0, 0, Header, 1, 8, 240
1, 0, Start_track
1, 0, Time_signature, 4, 2, 24, 8
1, 0, Key_signature, -1, "major"
1, 0, Tempo, 600000
1, 40600, Tempo, 600000
1, 82800, Tempo, 674157
1, 83040, Tempo, 750000
1, 83280, Tempo, 869565
1, 83520, Tempo, 1000000
1, 83760, Tempo, 1200000
1, 84000, Tempo, 1500000
1, 84240, Tempo, 2000000
1, 84480, Tempo, 300000
1, 86400, Time_signature, 12, 3, 12, 8
1, 86400, Tempo, 1333333
1, 92160, Tempo, 1333333
1, 106680, Tempo, 1333333
1, 106800, Tempo, 1363636
1, 106920, Tempo, 1363636
1, 107040, Tempo, 1363636
1, 107160, Tempo, 1395349
1, 107280, Tempo, 1395349
1, 107400, Tempo, 1428571
1, 107520, Tempo, 1428571
1, 107640, Tempo, 1463415
1, 107760, Tempo, 1463415
1, 107880, Tempo, 1463415
1, 108000, Tempo, 1333333
1, 155880, Tempo, 1363636
1, 156240, Tempo, 1500000
1, 156600, Tempo, 1578947
1, 157320, Tempo, 1714286
1, 157680, Tempo, 1875000
1, 158040, Tempo, 1875000
1, 158400, Time_signature, 3, 2, 24, 8
1, 158400, Tempo, 600000
1, 159840, Tempo, 600000
1, 164160, Tempo, 600000
1, 268580, Tempo, 600000
1, 268600, Tempo, 606061
1, 268620, Tempo, 612245
1, 268640, Tempo, 618557
1, 268660, Tempo, 625000
1, 268680, Tempo, 631579
1, 268700, Tempo, 645161
1, 268720, Tempo, 652174
1, 268740, Tempo, 659341
1, 268760, Tempo, 666667
1, 268780, Tempo, 674157
1, 268800, Tempo, 681818
1, 268820, Tempo, 697674
1, 268840, Tempo, 705882
1, 268860, Tempo, 714286
1, 268880, Tempo, 722892
1, 268900, Tempo, 731707
1, 268920, Tempo, 740741
1, 268940, Tempo, 759494
1, 268960, Tempo, 769231
1, 268980, Tempo, 779221
1, 269000, Tempo, 789474
1, 269020, Tempo, 800000
1, 269040, Tempo, 810811
1, 269060, Tempo, 833333
1, 269080, Tempo, 845070
1, 269100, Tempo, 857143
1, 269120, Tempo, 869565
1, 269140, Tempo, 882353
1, 269160, Tempo, 895522
1, 269180, Tempo, 923077
1, 269200, Tempo, 937500
1, 269220, Tempo, 952381
1, 269240, Tempo, 967742
1, 269260, Tempo, 983607
1, 269280, Tempo, 1016949
1, 269480, Tempo, 1034483
1, 269680, Tempo, 1052632
1, 269880, Tempo, 1071429
1, 270060, Tempo, 1090909
1, 270260, Tempo, 1111111
1, 270460, Tempo, 1132075
1, 270660, Tempo, 1153846
1, 270840, Tempo, 1176471
1, 271040, Tempo, 1200000
1, 271240, Tempo, 1224490
1, 271420, Tempo, 1250000
1, 271620, Tempo, 1276596
1, 271820, Tempo, 1304348
1, 272020, Tempo, 1333333
1, 272200, Tempo, 1363636
1, 272400, Tempo, 1395349
1, 272600, Tempo, 1428571
1, 272780, Tempo, 1463415
1, 272980, Tempo, 1500000
1, 273180, Tempo, 1538462
1, 273380, Tempo, 1578947
1, 273560, Tempo, 1621622
1, 273760, Tempo, 1666667
1, 273960, Tempo, 1714286
1, 274140, Tempo, 1764706
1, 274340, Tempo, 1818182
1, 274540, Tempo, 1875000
1, 274740, Tempo, 1935484
1, 274920, Tempo, 2000000
1, 275120, Tempo, 2068966
1, 275320, Tempo, 2142857
1, 275500, Tempo, 2222222
1, 275520, Tempo, 2142857
1, 275520, End_track
2, 0, Start_track
2, 0, MIDI_port, 0
2, 0, Title_t, "Violin I"
2, 0, Program_c, 0, 40
2, 0, Control_c, 0, 7, 127
2, 0, Control_c, 0, 10, 40
2, 0, Control_c, 0, 91, 127
2, 0, Control_c, 0, 93, 0
2, 3840, Note_on_c, 0, 69, 92
2, 3888, Note_on_c, 0, 69, 0
2, 3900, Note_on_c, 0, 71, 93
2, 3948, Note_on_c, 0, 71, 0
2, 3960, Note_on_c, 0, 72, 93
2, 4008, Note_on_c, 0, 72, 0
2, 4020, Note_on_c, 0, 74, 94
2, 4068, Note_on_c, 0, 74, 0
2, 4080, Note_on_c, 0, 76, 95
2, 4176, Note_on_c, 0, 76, 0
2, 4200, Note_on_c, 0, 81, 96
2, 4296, Note_on_c, 0, 81, 0
2, 4320, Note_on_c, 0, 80, 97
2, 4416, Note_on_c, 0, 80, 0
2, 4440, Note_on_c, 0, 76, 100
2, 4536, Note_on_c, 0, 76, 0
2, 4560, Note_on_c, 0, 71, 100
2, 4656, Note_on_c, 0, 71, 0
2, 4680, Note_on_c, 0, 74, 100
2, 4776, Note_on_c, 0, 74, 0
2, 4800, Note_on_c, 0, 73, 100
2, 4896, Note_on_c, 0, 73, 0
2, 4920, Note_on_c, 0, 69, 100
2, 5016, Note_on_c, 0, 69, 0
2, 5040, Note_on_c, 0, 79, 100
2, 5400, Note_on_c, 0, 79, 0
2, 5400, Note_on_c, 0, 78, 95
2, 5448, Note_on_c, 0, 78, 0
2, 5460, Note_on_c, 0, 76, 94
2, 5508, Note_on_c, 0, 76, 0
2, 5520, Note_on_c, 0, 78, 90
2, 5616, Note_on_c, 0, 78, 0
2, 5640, Note_on_c, 0, 74, 91
2, 5736, Note_on_c, 0, 74, 0
2, 5760, Note_on_c, 0, 71, 93
2, 5856, Note_on_c, 0, 71, 0
2, 5880, Note_on_c, 0, 74, 94
2, 5976, Note_on_c, 0, 74, 0
2, 6000, Note_on_c, 0, 77, 96
2, 6096, Note_on_c, 0, 77, 0
2, 6120, Note_on_c, 0, 69, 98
2, 6216, Note_on_c, 0, 69, 0
2, 6240, Note_on_c, 0, 68, 98
2, 6336, Note_on_c, 0, 68, 0
2, 6360, Note_on_c, 0, 76, 98
2, 6456, Note_on_c, 0, 76, 0
2, 6480, Note_on_c, 0, 69, 98
2, 6576, Note_on_c, 0, 69, 0
2, 6600, Note_on_c, 0, 74, 98
2, 6696, Note_on_c, 0, 74, 0
2, 6720, Note_on_c, 0, 72, 97
2, 6912, Note_on_c, 0, 72, 0
2, 6960, Note_on_c, 0, 71, 97
2, 7152, Note_on_c, 0, 71, 0
2, 7200, Note_on_c, 0, 69, 94
2, 7248, Note_on_c, 0, 69, 0
2, 7260, Note_on_c, 0, 68, 94
2, 7308, Note_on_c, 0, 68, 0
2, 7320, Note_on_c, 0, 69, 94
2, 7368, Note_on_c, 0, 69, 0
2, 7380, Note_on_c, 0, 71, 94
2, 7428, Note_on_c, 0, 71, 0
2, 7440, Note_on_c, 0, 72, 94
2, 7488, Note_on_c, 0, 72, 0
2, 7500, Note_on_c, 0, 74, 94
2, 7548, Note_on_c, 0, 74, 0
2, 7560, Note_on_c, 0, 76, 94
2, 7608, Note_on_c, 0, 76, 0
2, 7620, Note_on_c, 0, 77, 94
2, 7668, Note_on_c, 0, 77, 0
2, 7680, Note_on_c, 0, 79, 94
2, 7776, Note_on_c, 0, 79, 0
2, 7800, Note_on_c, 0, 67, 93
2, 7896, Note_on_c, 0, 67, 0
2, 7920, Note_on_c, 0, 79, 93
2, 8280, Note_on_c, 0, 79, 0
2, 8280, Note_on_c, 0, 76, 92
2, 8376, Note_on_c, 0, 76, 0
2, 8400, Note_on_c, 0, 69, 92
2, 8496, Note_on_c, 0, 69, 0
2, 8520, Note_on_c, 0, 79, 92
2, 8616, Note_on_c, 0, 79, 0
2, 8640, Note_on_c, 0, 77, 92
2, 8688, Note_on_c, 0, 77, 0
2, 8700, Note_on_c, 0, 76, 91
2, 8748, Note_on_c, 0, 76, 0
2, 8760, Note_on_c, 0, 74, 90
2, 8808, Note_on_c, 0, 74, 0
2, 8820, Note_on_c, 0, 76, 88
2, 8868, Note_on_c, 0, 76, 0
2, 8880, Note_on_c, 0, 77, 88
2, 8928, Note_on_c, 0, 77, 0
2, 8940, Note_on_c, 0, 76, 88
2, 8988, Note_on_c, 0, 76, 0
2, 9000, Note_on_c, 0, 77, 88
2, 9048, Note_on_c, 0, 77, 0
2, 9060, Note_on_c, 0, 79, 87
2, 9108, Note_on_c, 0, 79, 0
2, 9120, Note_on_c, 0, 81, 87
2, 9648, Note_on_c, 0, 81, 0
2, 9660, Note_on_c, 0, 79, 94
2, 9708, Note_on_c, 0, 79, 0
2, 9720, Note_on_c, 0, 78, 94
2, 9768, Note_on_c, 0, 78, 0
2, 9780, Note_on_c, 0, 76, 93
2, 9828, Note_on_c, 0, 76, 0
2, 9840, Note_on_c, 0, 78, 92
2, 9888, Note_on_c, 0, 78, 0
2, 9900, Note_on_c, 0, 74, 92
2, 9948, Note_on_c, 0, 74, 0
2, 9960, Note_on_c, 0, 76, 91
2, 10008, Note_on_c, 0, 76, 0
2, 10020, Note_on_c, 0, 78, 91
2, 10068, Note_on_c, 0, 78, 0
2, 10080, Note_on_c, 0, 79, 89
2, 10608, Note_on_c, 0, 79, 0
2, 10620, Note_on_c, 0, 77, 90
2, 10668, Note_on_c, 0, 77, 0
2, 10680, Note_on_c, 0, 76, 90
2, 10728, Note_on_c, 0, 76, 0
2, 10740, Note_on_c, 0, 77, 90
2, 10788, Note_on_c, 0, 77, 0
2, 10800, Note_on_c, 0, 79, 90
2, 10848, Note_on_c, 0, 79, 0
2, 10860, Note_on_c, 0, 81, 90
2, 10908, Note_on_c, 0, 81, 0
2, 10920, Note_on_c, 0, 82, 90
2, 10968, Note_on_c, 0, 82, 0
2, 10980, Note_on_c, 0, 79, 90
2, 11028, Note_on_c, 0, 79, 0
2, 11040, Note_on_c, 0, 81, 90
2, 11088, Note_on_c, 0, 81, 0
2, 11100, Note_on_c, 0, 82, 90
2, 11148, Note_on_c, 0, 82, 0
2, 11160, Note_on_c, 0, 81, 90
2, 11208, Note_on_c, 0, 81, 0
2, 11220, Note_on_c, 0, 79, 90
2, 11268, Note_on_c, 0, 79, 0
2, 11280, Note_on_c, 0, 77, 90
2, 11328, Note_on_c, 0, 77, 0
2, 11340, Note_on_c, 0, 76, 90
2, 11388, Note_on_c, 0, 76, 0
2, 11400, Note_on_c, 0, 74, 90
2, 11448, Note_on_c, 0, 74, 0
2, 11460, Note_on_c, 0, 73, 90
2, 11508, Note_on_c, 0, 73, 0
2, 11520, Note_on_c, 0, 74, 89
2, 11616, Note_on_c, 0, 74, 0
2, 11640, Note_on_c, 0, 86, 102
2, 11832, Note_on_c, 0, 86, 0
2, 11880, Note_on_c, 0, 85, 102
2, 11976, Note_on_c, 0, 85, 0
2, 12000, Note_on_c, 0, 86, 102
2, 12192, Note_on_c, 0, 86, 0
2, 12360, Note_on_c, 0, 77, 95
2, 12456, Note_on_c, 0, 77, 0
2, 12480, Note_on_c, 0, 76, 95
2, 12576, Note_on_c, 0, 76, 0
2, 12600, Note_on_c, 0, 81, 95
2, 12696, Note_on_c, 0, 81, 0
2, 12720, Note_on_c, 0, 69, 95
2, 13080, Note_on_c, 0, 69, 0
2, 13080, Note_on_c, 0, 74, 85
2, 13128, Note_on_c, 0, 74, 0
2, 13140, Note_on_c, 0, 76, 86
2, 13188, Note_on_c, 0, 76, 0
2, 13200, Note_on_c, 0, 78, 86
2, 13248, Note_on_c, 0, 78, 0
2, 13260, Note_on_c, 0, 79, 87
2, 13308, Note_on_c, 0, 79, 0
2, 13320, Note_on_c, 0, 81, 88
2, 13368, Note_on_c, 0, 81, 0
2, 13380, Note_on_c, 0, 79, 89
2, 13428, Note_on_c, 0, 79, 0
2, 13440, Note_on_c, 0, 79, 89
2, 13536, Note_on_c, 0, 79, 0
2, 13560, Note_on_c, 0, 74, 91
2, 13608, Note_on_c, 0, 74, 0
2, 13620, Note_on_c, 0, 72, 91
2, 13668, Note_on_c, 0, 72, 0
2, 13680, Note_on_c, 0, 74, 92
2, 13728, Note_on_c, 0, 74, 0
2, 13740, Note_on_c, 0, 71, 93
2, 13788, Note_on_c, 0, 71, 0
2, 13800, Note_on_c, 0, 72, 94
2, 13848, Note_on_c, 0, 72, 0
2, 13860, Note_on_c, 0, 74, 93
2, 13908, Note_on_c, 0, 74, 0
2, 13920, Note_on_c, 0, 67, 93
2, 14016, Note_on_c, 0, 67, 0
2, 14040, Note_on_c, 0, 72, 93
2, 14136, Note_on_c, 0, 72, 0
2, 14160, Note_on_c, 0, 79, 93
2, 14496, Note_on_c, 0, 79, 0
2, 14520, Note_on_c, 0, 78, 89
2, 14568, Note_on_c, 0, 78, 0
2, 14580, Note_on_c, 0, 79, 93
2, 14628, Note_on_c, 0, 79, 0
2, 14640, Note_on_c, 0, 81, 93
2, 14736, Note_on_c, 0, 81, 0
2, 14760, Note_on_c, 0, 72, 93
2, 15000, Note_on_c, 0, 72, 0
2, 15000, Note_on_c, 0, 70, 95
2, 15048, Note_on_c, 0, 70, 0
2, 15060, Note_on_c, 0, 72, 95
2, 15108, Note_on_c, 0, 72, 0
2, 15120, Note_on_c, 0, 74, 95
2, 15216, Note_on_c, 0, 74, 0
2, 15240, Note_on_c, 0, 81, 96
2, 15456, Note_on_c, 0, 81, 0
2, 15480, Note_on_c, 0, 79, 97
2, 15672, Note_on_c, 0, 79, 0
2, 15720, Note_on_c, 0, 77, 97
2, 15960, Note_on_c, 0, 77, 0
2, 15960, Note_on_c, 0, 76, 93
2, 16008, Note_on_c, 0, 76, 0
2, 16020, Note_on_c, 0, 74, 91
2, 16068, Note_on_c, 0, 74, 0
2, 16080, Note_on_c, 0, 73, 90
2, 16128, Note_on_c, 0, 73, 0
2, 16140, Note_on_c, 0, 74, 89
2, 16188, Note_on_c, 0, 74, 0
2, 16200, Note_on_c, 0, 71, 88
2, 16248, Note_on_c, 0, 71, 0
2, 16260, Note_on_c, 0, 73, 87
2, 16308, Note_on_c, 0, 73, 0
2, 16320, Note_on_c, 0, 74, 98
2, 16368, Note_on_c, 0, 74, 0
2, 16380, Note_on_c, 0, 76, 106
2, 16428, Note_on_c, 0, 76, 0
2, 16440, Note_on_c, 0, 77, 107
2, 16488, Note_on_c, 0, 77, 0
2, 16500, Note_on_c, 0, 79, 109
2, 16548, Note_on_c, 0, 79, 0
2, 16560, Note_on_c, 0, 81, 110
2, 16656, Note_on_c, 0, 81, 0
2, 16680, Note_on_c, 0, 86, 114
2, 16776, Note_on_c, 0, 86, 0
2, 16800, Note_on_c, 0, 85, 114
2, 16896, Note_on_c, 0, 85, 0
2, 16920, Note_on_c, 0, 81, 114
2, 17016, Note_on_c, 0, 81, 0
2, 17040, Note_on_c, 0, 76, 114
2, 17136, Note_on_c, 0, 76, 0
2, 17160, Note_on_c, 0, 79, 114
2, 17256, Note_on_c, 0, 79, 0
2, 17280, Note_on_c, 0, 78, 114
2, 17376, Note_on_c, 0, 78, 0
2, 17400, Note_on_c, 0, 74, 114
2, 17496, Note_on_c, 0, 74, 0
2, 17520, Note_on_c, 0, 84, 114
2, 17880, Note_on_c, 0, 84, 0
2, 17880, Note_on_c, 0, 83, 114
2, 17928, Note_on_c, 0, 83, 0
2, 17940, Note_on_c, 0, 81, 114
2, 17988, Note_on_c, 0, 81, 0
2, 18000, Note_on_c, 0, 83, 114
2, 18096, Note_on_c, 0, 83, 0
2, 18120, Note_on_c, 0, 79, 114
2, 18216, Note_on_c, 0, 79, 0
2, 18240, Note_on_c, 0, 76, 114
2, 18336, Note_on_c, 0, 76, 0
2, 18360, Note_on_c, 0, 79, 114
2, 18456, Note_on_c, 0, 79, 0
2, 18480, Note_on_c, 0, 82, 114
2, 18576, Note_on_c, 0, 82, 0
2, 18600, Note_on_c, 0, 74, 114
2, 18696, Note_on_c, 0, 74, 0
2, 18720, Note_on_c, 0, 73, 114
2, 18816, Note_on_c, 0, 73, 0
2, 18840, Note_on_c, 0, 81, 114
2, 18936, Note_on_c, 0, 81, 0
2, 18960, Note_on_c, 0, 74, 114
2, 19056, Note_on_c, 0, 74, 0
2, 19080, Note_on_c, 0, 79, 114
2, 19176, Note_on_c, 0, 79, 0
2, 19200, Note_on_c, 0, 77, 114
2, 19392, Note_on_c, 0, 77, 0
2, 19440, Note_on_c, 0, 76, 114
2, 19632, Note_on_c, 0, 76, 0
2, 19680, Note_on_c, 0, 74, 114
2, 19776, Note_on_c, 0, 74, 0
2, 19800, Note_on_c, 0, 72, 114
2, 19848, Note_on_c, 0, 72, 0
2, 19860, Note_on_c, 0, 70, 114
2, 19908, Note_on_c, 0, 70, 0
2, 19920, Note_on_c, 0, 69, 114
2, 19968, Note_on_c, 0, 69, 0
2, 19980, Note_on_c, 0, 67, 114
2, 20028, Note_on_c, 0, 67, 0
2, 20040, Note_on_c, 0, 65, 114
2, 20088, Note_on_c, 0, 65, 0
2, 20100, Note_on_c, 0, 64, 114
2, 20148, Note_on_c, 0, 64, 0
2, 20160, Note_on_c, 0, 65, 114
2, 20256, Note_on_c, 0, 65, 0
2, 20280, Note_on_c, 0, 81, 114
2, 20376, Note_on_c, 0, 81, 0
2, 20400, Note_on_c, 0, 64, 114
2, 20496, Note_on_c, 0, 64, 0
2, 20520, Note_on_c, 0, 79, 114
2, 20616, Note_on_c, 0, 79, 0
2, 20640, Note_on_c, 0, 62, 114
2, 20688, Note_on_c, 0, 62, 0
2, 20700, Note_on_c, 0, 79, 114
2, 20748, Note_on_c, 0, 79, 0
2, 20760, Note_on_c, 0, 77, 114
2, 20808, Note_on_c, 0, 77, 0
2, 20820, Note_on_c, 0, 76, 114
2, 20868, Note_on_c, 0, 76, 0
2, 20880, Note_on_c, 0, 74, 114
2, 20928, Note_on_c, 0, 74, 0
2, 20940, Note_on_c, 0, 72, 114
2, 20988, Note_on_c, 0, 72, 0
2, 21000, Note_on_c, 0, 70, 114
2, 21048, Note_on_c, 0, 70, 0
2, 21060, Note_on_c, 0, 69, 114
2, 21108, Note_on_c, 0, 69, 0
2, 21120, Note_on_c, 0, 70, 114
2, 21216, Note_on_c, 0, 70, 0
2, 21240, Note_on_c, 0, 86, 114
2, 21336, Note_on_c, 0, 86, 0
2, 21360, Note_on_c, 0, 69, 114
2, 21456, Note_on_c, 0, 69, 0
2, 21480, Note_on_c, 0, 84, 114
2, 21576, Note_on_c, 0, 84, 0
2, 21600, Note_on_c, 0, 67, 114
2, 21648, Note_on_c, 0, 67, 0
2, 21660, Note_on_c, 0, 84, 114
2, 21708, Note_on_c, 0, 84, 0
2, 21720, Note_on_c, 0, 82, 114
2, 21768, Note_on_c, 0, 82, 0
2, 21780, Note_on_c, 0, 81, 114
2, 21828, Note_on_c, 0, 81, 0
2, 21840, Note_on_c, 0, 79, 114
2, 21888, Note_on_c, 0, 79, 0
2, 21900, Note_on_c, 0, 77, 114
2, 21948, Note_on_c, 0, 77, 0
2, 21960, Note_on_c, 0, 76, 114
2, 22008, Note_on_c, 0, 76, 0
2, 22020, Note_on_c, 0, 74, 114
2, 22068, Note_on_c, 0, 74, 0
2, 22080, Note_on_c, 0, 76, 114
2, 22128, Note_on_c, 0, 76, 0
2, 22140, Note_on_c, 0, 82, 114
2, 22188, Note_on_c, 0, 82, 0
2, 22200, Note_on_c, 0, 81, 114
2, 22248, Note_on_c, 0, 81, 0
2, 22260, Note_on_c, 0, 79, 114
2, 22308, Note_on_c, 0, 79, 0
2, 22320, Note_on_c, 0, 81, 114
2, 22368, Note_on_c, 0, 81, 0
2, 22380, Note_on_c, 0, 76, 114
2, 22428, Note_on_c, 0, 76, 0
2, 22440, Note_on_c, 0, 74, 114
2, 22488, Note_on_c, 0, 74, 0
2, 22500, Note_on_c, 0, 73, 114
2, 22548, Note_on_c, 0, 73, 0
2, 22560, Note_on_c, 0, 74, 114
2, 22608, Note_on_c, 0, 74, 0
2, 22620, Note_on_c, 0, 81, 114
2, 22668, Note_on_c, 0, 81, 0
2, 22680, Note_on_c, 0, 79, 114
2, 22728, Note_on_c, 0, 79, 0
2, 22740, Note_on_c, 0, 77, 114
2, 22788, Note_on_c, 0, 77, 0
2, 22800, Note_on_c, 0, 79, 114
2, 22848, Note_on_c, 0, 79, 0
2, 22860, Note_on_c, 0, 74, 114
2, 22908, Note_on_c, 0, 74, 0
2, 22920, Note_on_c, 0, 73, 112
2, 22968, Note_on_c, 0, 73, 0
2, 22980, Note_on_c, 0, 71, 111
2, 23028, Note_on_c, 0, 71, 0
2, 23040, Note_on_c, 0, 73, 110
2, 23088, Note_on_c, 0, 73, 0
2, 23100, Note_on_c, 0, 79, 109
2, 23148, Note_on_c, 0, 79, 0
2, 23160, Note_on_c, 0, 77, 108
2, 23208, Note_on_c, 0, 77, 0
2, 23220, Note_on_c, 0, 76, 106
2, 23268, Note_on_c, 0, 76, 0
2, 23280, Note_on_c, 0, 77, 105
2, 23328, Note_on_c, 0, 77, 0
2, 23340, Note_on_c, 0, 76, 104
2, 23388, Note_on_c, 0, 76, 0
2, 23400, Note_on_c, 0, 74, 103
2, 23448, Note_on_c, 0, 74, 0
2, 23460, Note_on_c, 0, 77, 102
2, 23508, Note_on_c, 0, 77, 0
2, 23520, Note_on_c, 0, 76, 101
2, 23568, Note_on_c, 0, 76, 0
2, 23580, Note_on_c, 0, 74, 100
2, 23628, Note_on_c, 0, 74, 0
2, 23640, Note_on_c, 0, 73, 99
2, 23688, Note_on_c, 0, 73, 0
2, 23700, Note_on_c, 0, 71, 98
2, 23748, Note_on_c, 0, 71, 0
2, 23760, Note_on_c, 0, 69, 97
2, 24048, Note_on_c, 0, 69, 0
2, 24060, Note_on_c, 0, 65, 89
2, 24108, Note_on_c, 0, 65, 0
2, 24120, Note_on_c, 0, 62, 89
2, 24168, Note_on_c, 0, 62, 0
2, 24180, Note_on_c, 0, 65, 89
2, 24228, Note_on_c, 0, 65, 0
2, 24240, Note_on_c, 0, 67, 89
2, 24288, Note_on_c, 0, 67, 0
2, 24300, Note_on_c, 0, 64, 89
2, 24348, Note_on_c, 0, 64, 0
2, 24360, Note_on_c, 0, 61, 89
2, 24408, Note_on_c, 0, 61, 0
2, 24420, Note_on_c, 0, 64, 89
2, 24468, Note_on_c, 0, 64, 0
2, 24480, Note_on_c, 0, 65, 89
2, 24576, Note_on_c, 0, 65, 0
2, 24600, Note_on_c, 0, 62, 89
2, 24696, Note_on_c, 0, 62, 0
2, 24720, Note_on_c, 0, 74, 89
2, 25008, Note_on_c, 0, 74, 0
2, 25020, Note_on_c, 0, 70, 89
2, 25068, Note_on_c, 0, 70, 0
2, 25080, Note_on_c, 0, 67, 89
2, 25128, Note_on_c, 0, 67, 0
2, 25140, Note_on_c, 0, 70, 89
2, 25188, Note_on_c, 0, 70, 0
2, 25200, Note_on_c, 0, 72, 89
2, 25248, Note_on_c, 0, 72, 0
2, 25260, Note_on_c, 0, 69, 89
2, 25308, Note_on_c, 0, 69, 0
2, 25320, Note_on_c, 0, 66, 89
2, 25368, Note_on_c, 0, 66, 0
2, 25380, Note_on_c, 0, 69, 89
2, 25428, Note_on_c, 0, 69, 0
2, 25440, Note_on_c, 0, 70, 89
2, 25536, Note_on_c, 0, 70, 0
2, 25560, Note_on_c, 0, 67, 89
2, 25656, Note_on_c, 0, 67, 0
2, 25680, Note_on_c, 0, 82, 89
2, 25968, Note_on_c, 0, 82, 0
2, 25980, Note_on_c, 0, 67, 89
2, 26028, Note_on_c, 0, 67, 0
2, 26040, Note_on_c, 0, 65, 89
2, 26088, Note_on_c, 0, 65, 0
2, 26100, Note_on_c, 0, 64, 89
2, 26148, Note_on_c, 0, 64, 0
2, 26160, Note_on_c, 0, 65, 89
2, 26256, Note_on_c, 0, 65, 0
2, 26280, Note_on_c, 0, 81, 89
2, 26460, Note_on_c, 0, 81, 0
2, 26460, Note_on_c, 0, 65, 89
2, 26508, Note_on_c, 0, 65, 0
2, 26520, Note_on_c, 0, 64, 89
2, 26568, Note_on_c, 0, 64, 0
2, 26580, Note_on_c, 0, 62, 89
2, 26628, Note_on_c, 0, 62, 0
2, 26640, Note_on_c, 0, 64, 89
2, 26736, Note_on_c, 0, 64, 0
2, 26760, Note_on_c, 0, 79, 89
2, 26928, Note_on_c, 0, 79, 0
2, 26940, Note_on_c, 0, 64, 89
2, 26988, Note_on_c, 0, 64, 0
2, 27000, Note_on_c, 0, 62, 89
2, 27048, Note_on_c, 0, 62, 0
2, 27060, Note_on_c, 0, 61, 89
2, 27108, Note_on_c, 0, 61, 0
2, 27120, Note_on_c, 0, 62, 89
2, 27216, Note_on_c, 0, 62, 0
2, 27240, Note_on_c, 0, 74, 89
2, 27420, Note_on_c, 0, 74, 0
2, 27420, Note_on_c, 0, 77, 89
2, 27468, Note_on_c, 0, 77, 0
2, 27480, Note_on_c, 0, 76, 89
2, 27528, Note_on_c, 0, 76, 0
2, 27540, Note_on_c, 0, 74, 89
2, 27588, Note_on_c, 0, 74, 0
2, 27600, Note_on_c, 0, 76, 89
2, 27648, Note_on_c, 0, 76, 0
2, 27660, Note_on_c, 0, 79, 89
2, 27708, Note_on_c, 0, 79, 0
2, 27720, Note_on_c, 0, 77, 89
2, 27768, Note_on_c, 0, 77, 0
2, 27780, Note_on_c, 0, 76, 89
2, 27828, Note_on_c, 0, 76, 0
2, 27840, Note_on_c, 0, 77, 89
2, 27888, Note_on_c, 0, 77, 0
2, 27900, Note_on_c, 0, 69, 89
2, 27948, Note_on_c, 0, 69, 0
2, 27960, Note_on_c, 0, 71, 89
2, 28008, Note_on_c, 0, 71, 0
2, 28020, Note_on_c, 0, 73, 89
2, 28068, Note_on_c, 0, 73, 0
2, 28080, Note_on_c, 0, 74, 89
2, 28128, Note_on_c, 0, 74, 0
2, 28140, Note_on_c, 0, 76, 89
2, 28188, Note_on_c, 0, 76, 0
2, 28200, Note_on_c, 0, 77, 89
2, 28248, Note_on_c, 0, 77, 0
2, 28260, Note_on_c, 0, 73, 89
2, 28308, Note_on_c, 0, 73, 0
2, 28320, Note_on_c, 0, 67, 89
2, 28368, Note_on_c, 0, 67, 0
2, 28380, Note_on_c, 0, 74, 89
2, 28428, Note_on_c, 0, 74, 0
2, 28440, Note_on_c, 0, 77, 89
2, 28620, Note_on_c, 0, 77, 0
2, 28620, Note_on_c, 0, 74, 89
2, 28668, Note_on_c, 0, 74, 0
2, 28680, Note_on_c, 0, 71, 89
2, 28728, Note_on_c, 0, 71, 0
2, 28740, Note_on_c, 0, 67, 89
2, 28788, Note_on_c, 0, 67, 0
2, 28800, Note_on_c, 0, 76, 89
2, 28848, Note_on_c, 0, 76, 0
2, 28860, Note_on_c, 0, 67, 89
2, 28908, Note_on_c, 0, 67, 0
2, 28920, Note_on_c, 0, 69, 89
2, 28968, Note_on_c, 0, 69, 0
2, 28980, Note_on_c, 0, 71, 89
2, 29028, Note_on_c, 0, 71, 0
2, 29040, Note_on_c, 0, 72, 89
2, 29088, Note_on_c, 0, 72, 0
2, 29100, Note_on_c, 0, 74, 89
2, 29148, Note_on_c, 0, 74, 0
2, 29160, Note_on_c, 0, 76, 89
2, 29208, Note_on_c, 0, 76, 0
2, 29220, Note_on_c, 0, 72, 89
2, 29268, Note_on_c, 0, 72, 0
2, 29280, Note_on_c, 0, 65, 89
2, 29328, Note_on_c, 0, 65, 0
2, 29340, Note_on_c, 0, 72, 89
2, 29388, Note_on_c, 0, 72, 0
2, 29400, Note_on_c, 0, 75, 89
2, 29580, Note_on_c, 0, 75, 0
2, 29580, Note_on_c, 0, 72, 89
2, 29628, Note_on_c, 0, 72, 0
2, 29640, Note_on_c, 0, 69, 89
2, 29688, Note_on_c, 0, 69, 0
2, 29700, Note_on_c, 0, 65, 89
2, 29748, Note_on_c, 0, 65, 0
2, 29760, Note_on_c, 0, 74, 89
2, 29856, Note_on_c, 0, 74, 0
2, 29880, Note_on_c, 0, 77, 87
2, 29976, Note_on_c, 0, 77, 0
2, 30000, Note_on_c, 0, 79, 87
2, 30096, Note_on_c, 0, 79, 0
2, 30120, Note_on_c, 0, 74, 88
2, 30216, Note_on_c, 0, 74, 0
2, 30240, Note_on_c, 0, 76, 88
2, 30336, Note_on_c, 0, 76, 0
2, 30360, Note_on_c, 0, 79, 89
2, 30456, Note_on_c, 0, 79, 0
2, 30480, Note_on_c, 0, 81, 89
2, 30576, Note_on_c, 0, 81, 0
2, 30600, Note_on_c, 0, 76, 90
2, 30696, Note_on_c, 0, 76, 0
2, 30720, Note_on_c, 0, 77, 90
2, 30768, Note_on_c, 0, 77, 0
2, 30780, Note_on_c, 0, 79, 91
2, 30828, Note_on_c, 0, 79, 0
2, 30840, Note_on_c, 0, 77, 91
2, 30888, Note_on_c, 0, 77, 0
2, 30900, Note_on_c, 0, 76, 91
2, 30948, Note_on_c, 0, 76, 0
2, 30960, Note_on_c, 0, 74, 91
2, 31008, Note_on_c, 0, 74, 0
2, 31020, Note_on_c, 0, 72, 92
2, 31068, Note_on_c, 0, 72, 0
2, 31080, Note_on_c, 0, 70, 92
2, 31128, Note_on_c, 0, 70, 0
2, 31140, Note_on_c, 0, 69, 92
2, 31188, Note_on_c, 0, 69, 0
2, 31200, Note_on_c, 0, 67, 92
2, 31248, Note_on_c, 0, 67, 0
2, 31260, Note_on_c, 0, 81, 93
2, 31308, Note_on_c, 0, 81, 0
2, 31320, Note_on_c, 0, 79, 93
2, 31368, Note_on_c, 0, 79, 0
2, 31380, Note_on_c, 0, 77, 93
2, 31428, Note_on_c, 0, 77, 0
2, 31440, Note_on_c, 0, 76, 93
2, 31488, Note_on_c, 0, 76, 0
2, 31500, Note_on_c, 0, 74, 94
2, 31548, Note_on_c, 0, 74, 0
2, 31560, Note_on_c, 0, 72, 94
2, 31608, Note_on_c, 0, 72, 0
2, 31620, Note_on_c, 0, 70, 94
2, 31668, Note_on_c, 0, 70, 0
2, 31680, Note_on_c, 0, 69, 94
2, 31776, Note_on_c, 0, 69, 0
2, 31800, Note_on_c, 0, 77, 95
2, 31848, Note_on_c, 0, 77, 0
2, 31860, Note_on_c, 0, 79, 95
2, 31908, Note_on_c, 0, 79, 0
2, 31920, Note_on_c, 0, 81, 95
2, 32016, Note_on_c, 0, 81, 0
2, 32040, Note_on_c, 0, 65, 96
2, 32220, Note_on_c, 0, 65, 0
2, 32220, Note_on_c, 0, 64, 97
2, 32268, Note_on_c, 0, 64, 0
2, 32280, Note_on_c, 0, 62, 97
2, 32328, Note_on_c, 0, 62, 0
2, 32340, Note_on_c, 0, 60, 97
2, 32388, Note_on_c, 0, 60, 0
2, 32400, Note_on_c, 0, 59, 97
2, 32496, Note_on_c, 0, 59, 0
2, 32520, Note_on_c, 0, 71, 98
2, 32736, Note_on_c, 0, 71, 0
2, 32760, Note_on_c, 0, 76, 99
2, 32808, Note_on_c, 0, 76, 0
2, 32820, Note_on_c, 0, 77, 99
2, 32868, Note_on_c, 0, 77, 0
2, 32880, Note_on_c, 0, 79, 99
2, 32976, Note_on_c, 0, 79, 0
2, 33000, Note_on_c, 0, 64, 100
2, 33180, Note_on_c, 0, 64, 0
2, 33180, Note_on_c, 0, 62, 101
2, 33228, Note_on_c, 0, 62, 0
2, 33240, Note_on_c, 0, 61, 101
2, 33288, Note_on_c, 0, 61, 0
2, 33300, Note_on_c, 0, 59, 101
2, 33348, Note_on_c, 0, 59, 0
2, 33360, Note_on_c, 0, 57, 101
2, 33456, Note_on_c, 0, 57, 0
2, 33480, Note_on_c, 0, 69, 102
2, 33576, Note_on_c, 0, 69, 0
2, 33600, Note_on_c, 0, 69, 102
2, 33648, Note_on_c, 0, 69, 0
2, 33660, Note_on_c, 0, 74, 103
2, 33708, Note_on_c, 0, 74, 0
2, 33720, Note_on_c, 0, 77, 103
2, 33768, Note_on_c, 0, 77, 0
2, 33780, Note_on_c, 0, 81, 102
2, 33828, Note_on_c, 0, 81, 0
2, 33840, Note_on_c, 0, 86, 102
2, 33888, Note_on_c, 0, 86, 0
2, 33900, Note_on_c, 0, 81, 101
2, 33948, Note_on_c, 0, 81, 0
2, 33960, Note_on_c, 0, 77, 101
2, 34008, Note_on_c, 0, 77, 0
2, 34020, Note_on_c, 0, 74, 100
2, 34068, Note_on_c, 0, 74, 0
2, 34080, Note_on_c, 0, 69, 100
2, 34128, Note_on_c, 0, 69, 0
2, 34140, Note_on_c, 0, 72, 99
2, 34188, Note_on_c, 0, 72, 0
2, 34200, Note_on_c, 0, 76, 99
2, 34248, Note_on_c, 0, 76, 0
2, 34260, Note_on_c, 0, 81, 99
2, 34308, Note_on_c, 0, 81, 0
2, 34320, Note_on_c, 0, 84, 98
2, 34368, Note_on_c, 0, 84, 0
2, 34380, Note_on_c, 0, 81, 98
2, 34428, Note_on_c, 0, 81, 0
2, 34440, Note_on_c, 0, 76, 97
2, 34488, Note_on_c, 0, 76, 0
2, 34500, Note_on_c, 0, 72, 97
2, 34548, Note_on_c, 0, 72, 0
2, 34560, Note_on_c, 0, 69, 96
2, 34608, Note_on_c, 0, 69, 0
2, 34620, Note_on_c, 0, 71, 96
2, 34668, Note_on_c, 0, 71, 0
2, 34680, Note_on_c, 0, 74, 95
2, 34728, Note_on_c, 0, 74, 0
2, 34740, Note_on_c, 0, 77, 95
2, 34788, Note_on_c, 0, 77, 0
2, 34800, Note_on_c, 0, 83, 94
2, 34848, Note_on_c, 0, 83, 0
2, 34860, Note_on_c, 0, 77, 94
2, 34908, Note_on_c, 0, 77, 0
2, 34920, Note_on_c, 0, 74, 93
2, 34968, Note_on_c, 0, 74, 0
2, 34980, Note_on_c, 0, 69, 93
2, 35028, Note_on_c, 0, 69, 0
2, 35040, Note_on_c, 0, 68, 92
2, 35088, Note_on_c, 0, 68, 0
2, 35100, Note_on_c, 0, 71, 92
2, 35148, Note_on_c, 0, 71, 0
2, 35160, Note_on_c, 0, 74, 91
2, 35208, Note_on_c, 0, 74, 0
2, 35220, Note_on_c, 0, 76, 91
2, 35268, Note_on_c, 0, 76, 0
2, 35280, Note_on_c, 0, 83, 90
2, 35376, Note_on_c, 0, 83, 0
2, 39180, Note_on_c, 0, 62, 99
2, 39228, Note_on_c, 0, 62, 0
2, 39240, Note_on_c, 0, 60, 100
2, 39288, Note_on_c, 0, 60, 0
2, 39300, Note_on_c, 0, 59, 100
2, 39348, Note_on_c, 0, 59, 0
2, 39360, Note_on_c, 0, 60, 101
2, 39456, Note_on_c, 0, 60, 0
2, 39480, Note_on_c, 0, 76, 103
2, 39576, Note_on_c, 0, 76, 0
2, 39600, Note_on_c, 0, 59, 104
2, 39696, Note_on_c, 0, 59, 0
2, 39720, Note_on_c, 0, 74, 105
2, 39816, Note_on_c, 0, 74, 0
2, 39840, Note_on_c, 0, 57, 107
2, 39888, Note_on_c, 0, 57, 0
2, 39900, Note_on_c, 0, 74, 108
2, 39948, Note_on_c, 0, 74, 0
2, 39960, Note_on_c, 0, 72, 108
2, 40008, Note_on_c, 0, 72, 0
2, 40020, Note_on_c, 0, 71, 109
2, 40068, Note_on_c, 0, 71, 0
2, 40080, Note_on_c, 0, 69, 110
2, 40128, Note_on_c, 0, 69, 0
2, 40140, Note_on_c, 0, 67, 111
2, 40188, Note_on_c, 0, 67, 0
2, 40200, Note_on_c, 0, 65, 111
2, 40248, Note_on_c, 0, 65, 0
2, 40260, Note_on_c, 0, 64, 112
2, 40308, Note_on_c, 0, 64, 0
2, 40320, Note_on_c, 0, 65, 113
2, 40416, Note_on_c, 0, 65, 0
2, 40440, Note_on_c, 0, 81, 114
2, 40536, Note_on_c, 0, 81, 0
2, 40560, Note_on_c, 0, 64, 116
2, 40656, Note_on_c, 0, 64, 0
2, 40680, Note_on_c, 0, 79, 117
2, 40776, Note_on_c, 0, 79, 0
2, 40800, Note_on_c, 0, 62, 119
2, 40848, Note_on_c, 0, 62, 0
2, 40860, Note_on_c, 0, 79, 119
2, 40908, Note_on_c, 0, 79, 0
2, 40920, Note_on_c, 0, 77, 119
2, 40968, Note_on_c, 0, 77, 0
2, 40980, Note_on_c, 0, 76, 119
2, 41028, Note_on_c, 0, 76, 0
2, 41040, Note_on_c, 0, 74, 119
2, 41088, Note_on_c, 0, 74, 0
2, 41100, Note_on_c, 0, 72, 119
2, 41148, Note_on_c, 0, 72, 0
2, 41160, Note_on_c, 0, 71, 119
2, 41208, Note_on_c, 0, 71, 0
2, 41220, Note_on_c, 0, 69, 119
2, 41268, Note_on_c, 0, 69, 0
2, 41280, Note_on_c, 0, 71, 119
2, 41328, Note_on_c, 0, 71, 0
2, 41340, Note_on_c, 0, 77, 119
2, 41388, Note_on_c, 0, 77, 0
2, 41400, Note_on_c, 0, 76, 119
2, 41448, Note_on_c, 0, 76, 0
2, 41460, Note_on_c, 0, 74, 119
2, 41508, Note_on_c, 0, 74, 0
2, 41520, Note_on_c, 0, 76, 119
2, 41568, Note_on_c, 0, 76, 0
2, 41580, Note_on_c, 0, 71, 119
2, 41628, Note_on_c, 0, 71, 0
2, 41640, Note_on_c, 0, 69, 119
2, 41688, Note_on_c, 0, 69, 0
2, 41700, Note_on_c, 0, 68, 119
2, 41748, Note_on_c, 0, 68, 0
2, 41760, Note_on_c, 0, 69, 119
2, 41808, Note_on_c, 0, 69, 0
2, 41820, Note_on_c, 0, 76, 119
2, 41868, Note_on_c, 0, 76, 0
2, 41880, Note_on_c, 0, 74, 117
2, 41928, Note_on_c, 0, 74, 0
2, 41940, Note_on_c, 0, 72, 116
2, 41988, Note_on_c, 0, 72, 0
2, 42000, Note_on_c, 0, 74, 114
2, 42048, Note_on_c, 0, 74, 0
2, 42060, Note_on_c, 0, 69, 113
2, 42108, Note_on_c, 0, 69, 0
2, 42120, Note_on_c, 0, 68, 111
2, 42168, Note_on_c, 0, 68, 0
2, 42180, Note_on_c, 0, 66, 110
2, 42228, Note_on_c, 0, 66, 0
2, 42240, Note_on_c, 0, 68, 108
2, 42288, Note_on_c, 0, 68, 0
2, 42300, Note_on_c, 0, 74, 107
2, 42348, Note_on_c, 0, 74, 0
2, 42360, Note_on_c, 0, 72, 105
2, 42408, Note_on_c, 0, 72, 0
2, 42420, Note_on_c, 0, 71, 103
2, 42468, Note_on_c, 0, 71, 0
2, 42480, Note_on_c, 0, 72, 102
2, 42528, Note_on_c, 0, 72, 0
2, 42540, Note_on_c, 0, 71, 100
2, 42588, Note_on_c, 0, 71, 0
2, 42600, Note_on_c, 0, 69, 99
2, 42648, Note_on_c, 0, 69, 0
2, 42660, Note_on_c, 0, 72, 97
2, 42708, Note_on_c, 0, 72, 0
2, 42720, Note_on_c, 0, 71, 96
2, 42768, Note_on_c, 0, 71, 0
2, 42780, Note_on_c, 0, 69, 94
2, 42828, Note_on_c, 0, 69, 0
2, 42840, Note_on_c, 0, 68, 93
2, 42888, Note_on_c, 0, 68, 0
2, 42900, Note_on_c, 0, 66, 91
2, 42948, Note_on_c, 0, 66, 0
2, 42960, Note_on_c, 0, 64, 89
2, 43056, Note_on_c, 0, 64, 0
2, 43200, Note_on_c, 0, 69, 103
2, 43248, Note_on_c, 0, 69, 0
2, 43260, Note_on_c, 0, 71, 103
2, 43308, Note_on_c, 0, 71, 0
2, 43320, Note_on_c, 0, 72, 103
2, 43368, Note_on_c, 0, 72, 0
2, 43380, Note_on_c, 0, 74, 104
2, 43428, Note_on_c, 0, 74, 0
2, 43440, Note_on_c, 0, 76, 104
2, 43536, Note_on_c, 0, 76, 0
2, 43560, Note_on_c, 0, 81, 105
2, 43656, Note_on_c, 0, 81, 0
2, 43680, Note_on_c, 0, 80, 105
2, 43776, Note_on_c, 0, 80, 0
2, 43800, Note_on_c, 0, 76, 106
2, 43896, Note_on_c, 0, 76, 0
2, 43920, Note_on_c, 0, 71, 107
2, 44016, Note_on_c, 0, 71, 0
2, 44040, Note_on_c, 0, 74, 107
2, 44136, Note_on_c, 0, 74, 0
2, 44160, Note_on_c, 0, 73, 108
2, 44256, Note_on_c, 0, 73, 0
2, 44280, Note_on_c, 0, 69, 109
2, 44376, Note_on_c, 0, 69, 0
2, 44400, Note_on_c, 0, 79, 109
2, 44760, Note_on_c, 0, 79, 0
2, 44760, Note_on_c, 0, 78, 108
2, 44808, Note_on_c, 0, 78, 0
2, 44820, Note_on_c, 0, 76, 108
2, 44868, Note_on_c, 0, 76, 0
2, 44880, Note_on_c, 0, 78, 107
2, 44976, Note_on_c, 0, 78, 0
2, 45000, Note_on_c, 0, 74, 107
2, 45096, Note_on_c, 0, 74, 0
2, 45120, Note_on_c, 0, 71, 107
2, 45216, Note_on_c, 0, 71, 0
2, 45240, Note_on_c, 0, 74, 106
2, 45336, Note_on_c, 0, 74, 0
2, 45360, Note_on_c, 0, 77, 106
2, 45456, Note_on_c, 0, 77, 0
2, 45480, Note_on_c, 0, 69, 106
2, 45576, Note_on_c, 0, 69, 0
2, 45600, Note_on_c, 0, 68, 105
2, 45696, Note_on_c, 0, 68, 0
2, 45720, Note_on_c, 0, 76, 105
2, 45816, Note_on_c, 0, 76, 0
2, 45840, Note_on_c, 0, 69, 104
2, 45936, Note_on_c, 0, 69, 0
2, 45960, Note_on_c, 0, 74, 104
2, 46056, Note_on_c, 0, 74, 0
2, 46080, Note_on_c, 0, 72, 104
2, 46272, Note_on_c, 0, 72, 0
2, 46320, Note_on_c, 0, 71, 93
2, 46512, Note_on_c, 0, 71, 0
2, 46560, Note_on_c, 0, 69, 92
2, 46752, Note_on_c, 0, 69, 0
2, 46860, Note_on_c, 0, 65, 90
2, 46908, Note_on_c, 0, 65, 0
2, 46920, Note_on_c, 0, 64, 90
2, 46968, Note_on_c, 0, 64, 0
2, 46980, Note_on_c, 0, 62, 89
2, 47028, Note_on_c, 0, 62, 0
2, 47040, Note_on_c, 0, 60, 89
2, 47136, Note_on_c, 0, 60, 0
2, 47160, Note_on_c, 0, 69, 88
2, 47256, Note_on_c, 0, 69, 0
2, 47280, Note_on_c, 0, 62, 88
2, 47376, Note_on_c, 0, 62, 0
2, 47400, Note_on_c, 0, 71, 89
2, 47496, Note_on_c, 0, 71, 0
2, 47520, Note_on_c, 0, 60, 89
2, 47616, Note_on_c, 0, 60, 0
2, 47640, Note_on_c, 0, 69, 90
2, 47736, Note_on_c, 0, 69, 0
2, 47760, Note_on_c, 0, 59, 90
2, 47856, Note_on_c, 0, 59, 0
2, 47880, Note_on_c, 0, 68, 91
2, 47976, Note_on_c, 0, 68, 0
2, 48000, Note_on_c, 0, 60, 91
2, 48096, Note_on_c, 0, 60, 0
2, 48120, Note_on_c, 0, 69, 92
2, 48216, Note_on_c, 0, 69, 0
2, 48240, Note_on_c, 0, 64, 92
2, 48336, Note_on_c, 0, 64, 0
2, 48360, Note_on_c, 0, 71, 93
2, 48456, Note_on_c, 0, 71, 0
2, 48480, Note_on_c, 0, 72, 92
2, 48576, Note_on_c, 0, 72, 0
2, 48600, Note_on_c, 0, 69, 91
2, 48696, Note_on_c, 0, 69, 0
2, 48780, Note_on_c, 0, 79, 92
2, 48828, Note_on_c, 0, 79, 0
2, 48840, Note_on_c, 0, 77, 93
2, 48888, Note_on_c, 0, 77, 0
2, 48900, Note_on_c, 0, 76, 94
2, 48948, Note_on_c, 0, 76, 0
2, 48960, Note_on_c, 0, 74, 95
2, 49008, Note_on_c, 0, 74, 0
2, 49020, Note_on_c, 0, 77, 96
2, 49068, Note_on_c, 0, 77, 0
2, 49080, Note_on_c, 0, 81, 98
2, 49128, Note_on_c, 0, 81, 0
2, 49140, Note_on_c, 0, 86, 99
2, 49188, Note_on_c, 0, 86, 0
2, 49200, Note_on_c, 0, 76, 100
2, 49248, Note_on_c, 0, 76, 0
2, 49260, Note_on_c, 0, 79, 101
2, 49308, Note_on_c, 0, 79, 0
2, 49320, Note_on_c, 0, 81, 102
2, 49368, Note_on_c, 0, 81, 0
2, 49380, Note_on_c, 0, 85, 104
2, 49428, Note_on_c, 0, 85, 0
2, 49440, Note_on_c, 0, 86, 105
2, 49488, Note_on_c, 0, 86, 0
2, 49500, Note_on_c, 0, 81, 104
2, 49548, Note_on_c, 0, 81, 0
2, 49560, Note_on_c, 0, 77, 103
2, 49608, Note_on_c, 0, 77, 0
2, 49620, Note_on_c, 0, 74, 103
2, 49668, Note_on_c, 0, 74, 0
2, 49680, Note_on_c, 0, 73, 102
2, 49728, Note_on_c, 0, 73, 0
2, 49740, Note_on_c, 0, 76, 101
2, 49788, Note_on_c, 0, 76, 0
2, 49800, Note_on_c, 0, 79, 100
2, 49848, Note_on_c, 0, 79, 0
2, 49860, Note_on_c, 0, 81, 99
2, 49908, Note_on_c, 0, 81, 0
2, 49920, Note_on_c, 0, 74, 95
2, 49968, Note_on_c, 0, 74, 0
2, 49980, Note_on_c, 0, 77, 96
2, 50028, Note_on_c, 0, 77, 0
2, 50040, Note_on_c, 0, 81, 97
2, 50088, Note_on_c, 0, 81, 0
2, 50100, Note_on_c, 0, 86, 98
2, 50148, Note_on_c, 0, 86, 0
2, 50160, Note_on_c, 0, 76, 99
2, 50208, Note_on_c, 0, 76, 0
2, 50220, Note_on_c, 0, 79, 100
2, 50268, Note_on_c, 0, 79, 0
2, 50280, Note_on_c, 0, 81, 101
2, 50328, Note_on_c, 0, 81, 0
2, 50340, Note_on_c, 0, 85, 102
2, 50388, Note_on_c, 0, 85, 0
2, 50400, Note_on_c, 0, 86, 104
2, 50448, Note_on_c, 0, 86, 0
2, 50460, Note_on_c, 0, 81, 104
2, 50508, Note_on_c, 0, 81, 0
2, 50520, Note_on_c, 0, 77, 103
2, 50568, Note_on_c, 0, 77, 0
2, 50580, Note_on_c, 0, 74, 102
2, 50628, Note_on_c, 0, 74, 0
2, 50640, Note_on_c, 0, 62, 102
2, 50688, Note_on_c, 0, 62, 0
2, 50700, Note_on_c, 0, 64, 101
2, 50748, Note_on_c, 0, 64, 0
2, 50760, Note_on_c, 0, 65, 100
2, 50808, Note_on_c, 0, 65, 0
2, 50820, Note_on_c, 0, 62, 100
2, 50868, Note_on_c, 0, 62, 0
2, 50880, Note_on_c, 0, 64, 99
2, 50928, Note_on_c, 0, 64, 0
2, 50940, Note_on_c, 0, 62, 101
2, 50988, Note_on_c, 0, 62, 0
2, 51000, Note_on_c, 0, 64, 102
2, 51048, Note_on_c, 0, 64, 0
2, 51060, Note_on_c, 0, 65, 103
2, 51108, Note_on_c, 0, 65, 0
2, 51120, Note_on_c, 0, 64, 103
2, 51168, Note_on_c, 0, 64, 0
2, 51180, Note_on_c, 0, 66, 104
2, 51228, Note_on_c, 0, 66, 0
2, 51240, Note_on_c, 0, 67, 104
2, 51288, Note_on_c, 0, 67, 0
2, 51300, Note_on_c, 0, 64, 105
2, 51348, Note_on_c, 0, 64, 0
2, 51360, Note_on_c, 0, 66, 106
2, 51408, Note_on_c, 0, 66, 0
2, 51420, Note_on_c, 0, 64, 106
2, 51468, Note_on_c, 0, 64, 0
2, 51480, Note_on_c, 0, 66, 107
2, 51528, Note_on_c, 0, 66, 0
2, 51540, Note_on_c, 0, 67, 107
2, 51588, Note_on_c, 0, 67, 0
2, 51600, Note_on_c, 0, 66, 108
2, 51648, Note_on_c, 0, 66, 0
2, 51660, Note_on_c, 0, 67, 109
2, 51708, Note_on_c, 0, 67, 0
2, 51720, Note_on_c, 0, 69, 109
2, 51768, Note_on_c, 0, 69, 0
2, 51780, Note_on_c, 0, 66, 110
2, 51828, Note_on_c, 0, 66, 0
2, 51840, Note_on_c, 0, 67, 110
2, 51936, Note_on_c, 0, 67, 0
2, 51960, Note_on_c, 0, 74, 112
2, 52056, Note_on_c, 0, 74, 0
2, 52200, Note_on_c, 0, 82, 114
2, 52296, Note_on_c, 0, 82, 0
2, 52320, Note_on_c, 0, 81, 114
2, 52368, Note_on_c, 0, 81, 0
2, 52380, Note_on_c, 0, 79, 114
2, 52428, Note_on_c, 0, 79, 0
2, 52440, Note_on_c, 0, 78, 114
2, 52488, Note_on_c, 0, 78, 0
2, 52500, Note_on_c, 0, 76, 113
2, 52548, Note_on_c, 0, 76, 0
2, 52560, Note_on_c, 0, 78, 113
2, 52608, Note_on_c, 0, 78, 0
2, 52620, Note_on_c, 0, 74, 113
2, 52668, Note_on_c, 0, 74, 0
2, 52680, Note_on_c, 0, 76, 113
2, 52728, Note_on_c, 0, 76, 0
2, 52740, Note_on_c, 0, 78, 113
2, 52788, Note_on_c, 0, 78, 0
2, 52800, Note_on_c, 0, 79, 113
2, 53328, Note_on_c, 0, 79, 0
2, 53340, Note_on_c, 0, 77, 108
2, 53388, Note_on_c, 0, 77, 0
2, 53400, Note_on_c, 0, 79, 108
2, 53448, Note_on_c, 0, 79, 0
2, 53460, Note_on_c, 0, 81, 109
2, 53508, Note_on_c, 0, 81, 0
2, 53520, Note_on_c, 0, 79, 110
2, 53568, Note_on_c, 0, 79, 0
2, 53580, Note_on_c, 0, 82, 110
2, 53628, Note_on_c, 0, 82, 0
2, 53640, Note_on_c, 0, 81, 111
2, 53688, Note_on_c, 0, 81, 0
2, 53700, Note_on_c, 0, 79, 111
2, 53748, Note_on_c, 0, 79, 0
2, 53760, Note_on_c, 0, 81, 110
2, 54288, Note_on_c, 0, 81, 0
2, 54300, Note_on_c, 0, 79, 108
2, 54348, Note_on_c, 0, 79, 0
2, 54360, Note_on_c, 0, 78, 108
2, 54408, Note_on_c, 0, 78, 0
2, 54420, Note_on_c, 0, 76, 108
2, 54468, Note_on_c, 0, 76, 0
2, 54480, Note_on_c, 0, 74, 108
2, 54528, Note_on_c, 0, 74, 0
2, 54540, Note_on_c, 0, 72, 107
2, 54588, Note_on_c, 0, 72, 0
2, 54600, Note_on_c, 0, 70, 107
2, 54648, Note_on_c, 0, 70, 0
2, 54660, Note_on_c, 0, 69, 107
2, 54708, Note_on_c, 0, 69, 0
2, 54720, Note_on_c, 0, 70, 107
2, 54864, Note_on_c, 0, 70, 0
2, 54900, Note_on_c, 0, 72, 107
2, 54948, Note_on_c, 0, 72, 0
2, 54960, Note_on_c, 0, 69, 106
2, 55104, Note_on_c, 0, 69, 0
2, 55140, Note_on_c, 0, 67, 104
2, 55188, Note_on_c, 0, 67, 0
2, 55200, Note_on_c, 0, 67, 103
2, 55248, Note_on_c, 0, 67, 0
2, 55260, Note_on_c, 0, 79, 102
2, 55308, Note_on_c, 0, 79, 0
2, 55320, Note_on_c, 0, 78, 101
2, 55368, Note_on_c, 0, 78, 0
2, 55380, Note_on_c, 0, 76, 101
2, 55428, Note_on_c, 0, 76, 0
2, 55440, Note_on_c, 0, 74, 100
2, 55488, Note_on_c, 0, 74, 0
2, 55500, Note_on_c, 0, 72, 99
2, 55548, Note_on_c, 0, 72, 0
2, 55560, Note_on_c, 0, 70, 98
2, 55608, Note_on_c, 0, 70, 0
2, 55620, Note_on_c, 0, 69, 97
2, 55668, Note_on_c, 0, 69, 0
2, 55680, Note_on_c, 0, 67, 92
2, 55728, Note_on_c, 0, 67, 0
2, 55740, Note_on_c, 0, 70, 92
2, 55788, Note_on_c, 0, 70, 0
2, 55800, Note_on_c, 0, 74, 92
2, 55848, Note_on_c, 0, 74, 0
2, 55860, Note_on_c, 0, 79, 92
2, 55908, Note_on_c, 0, 79, 0
2, 55920, Note_on_c, 0, 69, 91
2, 55968, Note_on_c, 0, 69, 0
2, 55980, Note_on_c, 0, 72, 91
2, 56028, Note_on_c, 0, 72, 0
2, 56040, Note_on_c, 0, 74, 91
2, 56088, Note_on_c, 0, 74, 0
2, 56100, Note_on_c, 0, 78, 91
2, 56148, Note_on_c, 0, 78, 0
2, 56160, Note_on_c, 0, 79, 90
2, 56208, Note_on_c, 0, 79, 0
2, 56220, Note_on_c, 0, 74, 90
2, 56268, Note_on_c, 0, 74, 0
2, 56280, Note_on_c, 0, 70, 90
2, 56328, Note_on_c, 0, 70, 0
2, 56340, Note_on_c, 0, 67, 90
2, 56388, Note_on_c, 0, 67, 0
2, 56400, Note_on_c, 0, 66, 89
2, 56448, Note_on_c, 0, 66, 0
2, 56460, Note_on_c, 0, 69, 89
2, 56508, Note_on_c, 0, 69, 0
2, 56520, Note_on_c, 0, 72, 89
2, 56568, Note_on_c, 0, 72, 0
2, 56580, Note_on_c, 0, 74, 89
2, 56628, Note_on_c, 0, 74, 0
2, 56640, Note_on_c, 0, 67, 88
2, 56688, Note_on_c, 0, 67, 0
2, 56700, Note_on_c, 0, 70, 89
2, 56748, Note_on_c, 0, 70, 0
2, 56760, Note_on_c, 0, 74, 89
2, 56808, Note_on_c, 0, 74, 0
2, 56820, Note_on_c, 0, 79, 90
2, 56868, Note_on_c, 0, 79, 0
2, 56880, Note_on_c, 0, 69, 91
2, 56928, Note_on_c, 0, 69, 0
2, 56940, Note_on_c, 0, 72, 92
2, 56988, Note_on_c, 0, 72, 0
2, 57000, Note_on_c, 0, 74, 93
2, 57048, Note_on_c, 0, 74, 0
2, 57060, Note_on_c, 0, 78, 93
2, 57108, Note_on_c, 0, 78, 0
2, 57120, Note_on_c, 0, 79, 94
2, 57168, Note_on_c, 0, 79, 0
2, 57180, Note_on_c, 0, 74, 95
2, 57228, Note_on_c, 0, 74, 0
2, 57240, Note_on_c, 0, 70, 93
2, 57288, Note_on_c, 0, 70, 0
2, 57300, Note_on_c, 0, 67, 92
2, 57348, Note_on_c, 0, 67, 0
2, 57360, Note_on_c, 0, 55, 90
2, 57408, Note_on_c, 0, 55, 0
2, 57420, Note_on_c, 0, 68, 89
2, 57468, Note_on_c, 0, 68, 0
2, 57480, Note_on_c, 0, 67, 88
2, 57528, Note_on_c, 0, 67, 0
2, 57540, Note_on_c, 0, 65, 86
2, 57588, Note_on_c, 0, 65, 0
2, 57600, Note_on_c, 0, 63, 85
2, 57696, Note_on_c, 0, 63, 0
2, 57720, Note_on_c, 0, 72, 79
2, 57816, Note_on_c, 0, 72, 0
2, 57840, Note_on_c, 0, 65, 79
2, 57936, Note_on_c, 0, 65, 0
2, 57960, Note_on_c, 0, 74, 79
2, 58056, Note_on_c, 0, 74, 0
2, 58080, Note_on_c, 0, 63, 80
2, 58176, Note_on_c, 0, 63, 0
2, 58200, Note_on_c, 0, 72, 80
2, 58296, Note_on_c, 0, 72, 0
2, 58320, Note_on_c, 0, 62, 80
2, 58416, Note_on_c, 0, 62, 0
2, 58440, Note_on_c, 0, 71, 80
2, 58536, Note_on_c, 0, 71, 0
2, 58560, Note_on_c, 0, 63, 81
2, 58656, Note_on_c, 0, 63, 0
2, 58680, Note_on_c, 0, 72, 81
2, 58776, Note_on_c, 0, 72, 0
2, 58800, Note_on_c, 0, 67, 81
2, 58896, Note_on_c, 0, 67, 0
2, 58920, Note_on_c, 0, 74, 82
2, 59016, Note_on_c, 0, 74, 0
2, 59040, Note_on_c, 0, 75, 82
2, 59136, Note_on_c, 0, 75, 0
2, 59160, Note_on_c, 0, 72, 82
2, 59256, Note_on_c, 0, 72, 0
2, 59340, Note_on_c, 0, 67, 83
2, 59388, Note_on_c, 0, 67, 0
2, 59400, Note_on_c, 0, 65, 83
2, 59448, Note_on_c, 0, 65, 0
2, 59460, Note_on_c, 0, 67, 83
2, 59508, Note_on_c, 0, 67, 0
2, 59520, Note_on_c, 0, 69, 83
2, 59568, Note_on_c, 0, 69, 0
2, 59580, Note_on_c, 0, 67, 83
2, 59628, Note_on_c, 0, 67, 0
2, 59640, Note_on_c, 0, 69, 83
2, 59688, Note_on_c, 0, 69, 0
2, 59700, Note_on_c, 0, 70, 84
2, 59748, Note_on_c, 0, 70, 0
2, 59760, Note_on_c, 0, 69, 84
2, 59808, Note_on_c, 0, 69, 0
2, 59820, Note_on_c, 0, 70, 84
2, 59868, Note_on_c, 0, 70, 0
2, 59880, Note_on_c, 0, 72, 84
2, 59928, Note_on_c, 0, 72, 0
2, 59940, Note_on_c, 0, 69, 84
2, 59988, Note_on_c, 0, 69, 0
2, 60000, Note_on_c, 0, 70, 84
2, 60048, Note_on_c, 0, 70, 0
2, 60060, Note_on_c, 0, 69, 85
2, 60108, Note_on_c, 0, 69, 0
2, 60120, Note_on_c, 0, 70, 85
2, 60168, Note_on_c, 0, 70, 0
2, 60180, Note_on_c, 0, 72, 85
2, 60228, Note_on_c, 0, 72, 0
2, 60240, Note_on_c, 0, 74, 85
2, 60288, Note_on_c, 0, 74, 0
2, 60300, Note_on_c, 0, 72, 85
2, 60348, Note_on_c, 0, 72, 0
2, 60360, Note_on_c, 0, 74, 85
2, 60408, Note_on_c, 0, 74, 0
2, 60420, Note_on_c, 0, 76, 85
2, 60468, Note_on_c, 0, 76, 0
2, 60480, Note_on_c, 0, 78, 86
2, 60528, Note_on_c, 0, 78, 0
2, 60540, Note_on_c, 0, 76, 86
2, 60588, Note_on_c, 0, 76, 0
2, 60600, Note_on_c, 0, 78, 86
2, 60648, Note_on_c, 0, 78, 0
2, 60660, Note_on_c, 0, 79, 86
2, 60708, Note_on_c, 0, 79, 0
2, 60720, Note_on_c, 0, 78, 86
2, 60768, Note_on_c, 0, 78, 0
2, 60780, Note_on_c, 0, 79, 86
2, 60828, Note_on_c, 0, 79, 0
2, 60840, Note_on_c, 0, 81, 86
2, 60888, Note_on_c, 0, 81, 0
2, 60900, Note_on_c, 0, 78, 87
2, 60948, Note_on_c, 0, 78, 0
2, 60960, Note_on_c, 0, 79, 87
2, 61008, Note_on_c, 0, 79, 0
2, 61020, Note_on_c, 0, 72, 87
2, 61068, Note_on_c, 0, 72, 0
2, 61080, Note_on_c, 0, 70, 87
2, 61128, Note_on_c, 0, 70, 0
2, 61140, Note_on_c, 0, 69, 87
2, 61188, Note_on_c, 0, 69, 0
2, 61200, Note_on_c, 0, 67, 87
2, 61248, Note_on_c, 0, 67, 0
2, 61260, Note_on_c, 0, 74, 88
2, 61308, Note_on_c, 0, 74, 0
2, 61320, Note_on_c, 0, 79, 88
2, 61536, Note_on_c, 0, 79, 0
2, 61560, Note_on_c, 0, 69, 88
2, 61656, Note_on_c, 0, 69, 0
2, 61680, Note_on_c, 0, 79, 89
2, 62040, Note_on_c, 0, 79, 0
2, 62040, Note_on_c, 0, 69, 89
2, 62136, Note_on_c, 0, 69, 0
2, 62160, Note_on_c, 0, 62, 90
2, 62256, Note_on_c, 0, 62, 0
2, 62280, Note_on_c, 0, 77, 90
2, 62496, Note_on_c, 0, 77, 0
2, 62520, Note_on_c, 0, 65, 91
2, 62616, Note_on_c, 0, 65, 0
2, 62640, Note_on_c, 0, 75, 91
2, 63000, Note_on_c, 0, 75, 0
2, 63000, Note_on_c, 0, 65, 92
2, 63096, Note_on_c, 0, 65, 0
2, 63120, Note_on_c, 0, 58, 92
2, 63216, Note_on_c, 0, 58, 0
2, 63240, Note_on_c, 0, 74, 92
2, 63336, Note_on_c, 0, 74, 0
2, 63360, Note_on_c, 0, 64, 93
2, 63408, Note_on_c, 0, 64, 0
2, 63420, Note_on_c, 0, 65, 93
2, 63468, Note_on_c, 0, 65, 0
2, 63480, Note_on_c, 0, 67, 93
2, 63528, Note_on_c, 0, 67, 0
2, 63540, Note_on_c, 0, 70, 93
2, 63588, Note_on_c, 0, 70, 0
2, 63600, Note_on_c, 0, 73, 93
2, 63648, Note_on_c, 0, 73, 0
2, 63660, Note_on_c, 0, 82, 93
2, 63708, Note_on_c, 0, 82, 0
2, 63720, Note_on_c, 0, 81, 94
2, 63768, Note_on_c, 0, 81, 0
2, 63780, Note_on_c, 0, 79, 94
2, 63828, Note_on_c, 0, 79, 0
2, 63840, Note_on_c, 0, 65, 94
2, 63888, Note_on_c, 0, 65, 0
2, 63900, Note_on_c, 0, 67, 94
2, 63948, Note_on_c, 0, 67, 0
2, 63960, Note_on_c, 0, 69, 94
2, 64008, Note_on_c, 0, 69, 0
2, 64020, Note_on_c, 0, 73, 94
2, 64068, Note_on_c, 0, 73, 0
2, 64080, Note_on_c, 0, 74, 95
2, 64128, Note_on_c, 0, 74, 0
2, 64140, Note_on_c, 0, 81, 95
2, 64188, Note_on_c, 0, 81, 0
2, 64200, Note_on_c, 0, 79, 95
2, 64248, Note_on_c, 0, 79, 0
2, 64260, Note_on_c, 0, 77, 95
2, 64308, Note_on_c, 0, 77, 0
2, 64320, Note_on_c, 0, 67, 95
2, 64368, Note_on_c, 0, 67, 0
2, 64380, Note_on_c, 0, 69, 95
2, 64428, Note_on_c, 0, 69, 0
2, 64440, Note_on_c, 0, 73, 95
2, 64488, Note_on_c, 0, 73, 0
2, 64500, Note_on_c, 0, 74, 96
2, 64548, Note_on_c, 0, 74, 0
2, 64560, Note_on_c, 0, 76, 96
2, 64608, Note_on_c, 0, 76, 0
2, 64620, Note_on_c, 0, 79, 96
2, 64668, Note_on_c, 0, 79, 0
2, 64680, Note_on_c, 0, 77, 96
2, 64728, Note_on_c, 0, 77, 0
2, 64740, Note_on_c, 0, 76, 96
2, 64788, Note_on_c, 0, 76, 0
2, 64800, Note_on_c, 0, 69, 96
2, 64848, Note_on_c, 0, 69, 0
2, 64860, Note_on_c, 0, 73, 96
2, 64908, Note_on_c, 0, 73, 0
2, 64920, Note_on_c, 0, 74, 97
2, 64968, Note_on_c, 0, 74, 0
2, 64980, Note_on_c, 0, 76, 97
2, 65028, Note_on_c, 0, 76, 0
2, 65040, Note_on_c, 0, 77, 97
2, 65136, Note_on_c, 0, 77, 0
2, 65160, Note_on_c, 0, 74, 94
2, 65376, Note_on_c, 0, 74, 0
2, 65400, Note_on_c, 0, 79, 94
2, 65448, Note_on_c, 0, 79, 0
2, 65460, Note_on_c, 0, 81, 94
2, 65508, Note_on_c, 0, 81, 0
2, 65520, Note_on_c, 0, 82, 94
2, 65616, Note_on_c, 0, 82, 0
2, 65640, Note_on_c, 0, 67, 94
2, 65820, Note_on_c, 0, 67, 0
2, 65820, Note_on_c, 0, 65, 94
2, 65868, Note_on_c, 0, 65, 0
2, 65880, Note_on_c, 0, 64, 94
2, 65928, Note_on_c, 0, 64, 0
2, 65940, Note_on_c, 0, 62, 94
2, 65988, Note_on_c, 0, 62, 0
2, 66000, Note_on_c, 0, 60, 94
2, 66096, Note_on_c, 0, 60, 0
2, 66120, Note_on_c, 0, 72, 94
2, 66336, Note_on_c, 0, 72, 0
2, 66360, Note_on_c, 0, 77, 94
2, 66408, Note_on_c, 0, 77, 0
2, 66420, Note_on_c, 0, 79, 94
2, 66468, Note_on_c, 0, 79, 0
2, 66480, Note_on_c, 0, 81, 94
2, 66576, Note_on_c, 0, 81, 0
2, 66600, Note_on_c, 0, 65, 94
2, 66780, Note_on_c, 0, 65, 0
2, 66780, Note_on_c, 0, 63, 94
2, 66828, Note_on_c, 0, 63, 0
2, 66840, Note_on_c, 0, 62, 94
2, 66888, Note_on_c, 0, 62, 0
2, 66900, Note_on_c, 0, 60, 94
2, 66948, Note_on_c, 0, 60, 0
2, 66960, Note_on_c, 0, 58, 94
2, 67056, Note_on_c, 0, 58, 0
2, 67080, Note_on_c, 0, 70, 94
2, 67248, Note_on_c, 0, 70, 0
2, 67260, Note_on_c, 0, 72, 91
2, 67308, Note_on_c, 0, 72, 0
2, 67320, Note_on_c, 0, 70, 92
2, 67368, Note_on_c, 0, 70, 0
2, 67380, Note_on_c, 0, 69, 92
2, 67428, Note_on_c, 0, 69, 0
2, 67440, Note_on_c, 0, 67, 93
2, 67488, Note_on_c, 0, 67, 0
2, 67500, Note_on_c, 0, 65, 93
2, 67548, Note_on_c, 0, 65, 0
2, 67560, Note_on_c, 0, 64, 94
2, 67608, Note_on_c, 0, 64, 0
2, 67620, Note_on_c, 0, 62, 94
2, 67668, Note_on_c, 0, 62, 0
2, 67680, Note_on_c, 0, 60, 95
2, 67728, Note_on_c, 0, 60, 0
2, 67740, Note_on_c, 0, 74, 95
2, 67788, Note_on_c, 0, 74, 0
2, 67800, Note_on_c, 0, 72, 96
2, 67848, Note_on_c, 0, 72, 0
2, 67860, Note_on_c, 0, 70, 96
2, 67908, Note_on_c, 0, 70, 0
2, 67920, Note_on_c, 0, 69, 97
2, 67968, Note_on_c, 0, 69, 0
2, 67980, Note_on_c, 0, 67, 97
2, 68028, Note_on_c, 0, 67, 0
2, 68040, Note_on_c, 0, 66, 98
2, 68088, Note_on_c, 0, 66, 0
2, 68100, Note_on_c, 0, 64, 98
2, 68148, Note_on_c, 0, 64, 0
2, 68160, Note_on_c, 0, 62, 99
2, 68256, Note_on_c, 0, 62, 0
2, 68280, Note_on_c, 0, 74, 100
2, 68376, Note_on_c, 0, 74, 0
2, 68400, Note_on_c, 0, 75, 99
2, 68496, Note_on_c, 0, 75, 0
2, 68520, Note_on_c, 0, 70, 98
2, 68616, Note_on_c, 0, 70, 0
2, 68640, Note_on_c, 0, 72, 98
2, 68736, Note_on_c, 0, 72, 0
2, 68760, Note_on_c, 0, 75, 97
2, 68856, Note_on_c, 0, 75, 0
2, 68880, Note_on_c, 0, 77, 96
2, 68976, Note_on_c, 0, 77, 0
2, 69000, Note_on_c, 0, 72, 95
2, 69096, Note_on_c, 0, 72, 0
2, 69120, Note_on_c, 0, 74, 95
2, 69168, Note_on_c, 0, 74, 0
2, 69180, Note_on_c, 0, 77, 95
2, 69228, Note_on_c, 0, 77, 0
2, 69240, Note_on_c, 0, 79, 95
2, 69288, Note_on_c, 0, 79, 0
2, 69300, Note_on_c, 0, 81, 95
2, 69348, Note_on_c, 0, 81, 0
2, 69360, Note_on_c, 0, 82, 95
2, 69408, Note_on_c, 0, 82, 0
2, 69420, Note_on_c, 0, 84, 95
2, 69468, Note_on_c, 0, 84, 0
2, 69480, Note_on_c, 0, 86, 95
2, 69528, Note_on_c, 0, 86, 0
2, 69540, Note_on_c, 0, 82, 95
2, 69588, Note_on_c, 0, 82, 0
2, 69600, Note_on_c, 0, 76, 95
2, 69648, Note_on_c, 0, 76, 0
2, 69660, Note_on_c, 0, 82, 95
2, 69708, Note_on_c, 0, 82, 0
2, 69720, Note_on_c, 0, 86, 95
2, 69900, Note_on_c, 0, 86, 0
2, 69900, Note_on_c, 0, 82, 95
2, 69948, Note_on_c, 0, 82, 0
2, 69960, Note_on_c, 0, 79, 95
2, 70008, Note_on_c, 0, 79, 0
2, 70020, Note_on_c, 0, 76, 95
2, 70068, Note_on_c, 0, 76, 0
2, 70080, Note_on_c, 0, 85, 95
2, 70128, Note_on_c, 0, 85, 0
2, 70140, Note_on_c, 0, 76, 95
2, 70188, Note_on_c, 0, 76, 0
2, 70200, Note_on_c, 0, 77, 95
2, 70248, Note_on_c, 0, 77, 0
2, 70260, Note_on_c, 0, 79, 95
2, 70308, Note_on_c, 0, 79, 0
2, 70320, Note_on_c, 0, 81, 95
2, 70368, Note_on_c, 0, 81, 0
2, 70380, Note_on_c, 0, 82, 95
2, 70428, Note_on_c, 0, 82, 0
2, 70440, Note_on_c, 0, 84, 95
2, 70488, Note_on_c, 0, 84, 0
2, 70500, Note_on_c, 0, 81, 95
2, 70548, Note_on_c, 0, 81, 0
2, 70560, Note_on_c, 0, 74, 95
2, 70608, Note_on_c, 0, 74, 0
2, 70620, Note_on_c, 0, 81, 95
2, 70668, Note_on_c, 0, 81, 0
2, 70680, Note_on_c, 0, 84, 95
2, 70860, Note_on_c, 0, 84, 0
2, 70860, Note_on_c, 0, 81, 96
2, 70908, Note_on_c, 0, 81, 0
2, 70920, Note_on_c, 0, 78, 96
2, 70968, Note_on_c, 0, 78, 0
2, 70980, Note_on_c, 0, 74, 96
2, 71028, Note_on_c, 0, 74, 0
2, 71040, Note_on_c, 0, 82, 96
2, 71136, Note_on_c, 0, 82, 0
2, 71160, Note_on_c, 0, 79, 96
2, 71256, Note_on_c, 0, 79, 0
2, 71280, Note_on_c, 0, 74, 96
2, 71376, Note_on_c, 0, 74, 0
2, 71400, Note_on_c, 0, 86, 96
2, 71640, Note_on_c, 0, 86, 0
2, 71640, Note_on_c, 0, 81, 96
2, 71688, Note_on_c, 0, 81, 0
2, 71700, Note_on_c, 0, 77, 96
2, 71748, Note_on_c, 0, 77, 0
2, 71760, Note_on_c, 0, 74, 96
2, 72096, Note_on_c, 0, 74, 0
2, 72120, Note_on_c, 0, 70, 96
2, 72216, Note_on_c, 0, 70, 0
2, 72240, Note_on_c, 0, 67, 96
2, 72336, Note_on_c, 0, 67, 0
2, 72360, Note_on_c, 0, 79, 96
2, 72600, Note_on_c, 0, 79, 0
2, 72600, Note_on_c, 0, 76, 96
2, 72648, Note_on_c, 0, 76, 0
2, 72660, Note_on_c, 0, 73, 96
2, 72708, Note_on_c, 0, 73, 0
2, 72720, Note_on_c, 0, 69, 96
2, 72768, Note_on_c, 0, 69, 0
2, 72780, Note_on_c, 0, 67, 96
2, 72828, Note_on_c, 0, 67, 0
2, 72840, Note_on_c, 0, 65, 96
2, 72888, Note_on_c, 0, 65, 0
2, 72900, Note_on_c, 0, 64, 94
2, 72948, Note_on_c, 0, 64, 0
2, 72960, Note_on_c, 0, 65, 94
2, 73056, Note_on_c, 0, 65, 0
2, 73080, Note_on_c, 0, 81, 94
2, 73176, Note_on_c, 0, 81, 0
2, 73200, Note_on_c, 0, 64, 95
2, 73296, Note_on_c, 0, 64, 0
2, 73320, Note_on_c, 0, 79, 96
2, 73416, Note_on_c, 0, 79, 0
2, 73440, Note_on_c, 0, 62, 96
2, 73488, Note_on_c, 0, 62, 0
2, 73500, Note_on_c, 0, 79, 97
2, 73548, Note_on_c, 0, 79, 0
2, 73560, Note_on_c, 0, 77, 97
2, 73608, Note_on_c, 0, 77, 0
2, 73620, Note_on_c, 0, 76, 97
2, 73668, Note_on_c, 0, 76, 0
2, 73680, Note_on_c, 0, 74, 98
2, 73728, Note_on_c, 0, 74, 0
2, 73740, Note_on_c, 0, 72, 98
2, 73788, Note_on_c, 0, 72, 0
2, 73800, Note_on_c, 0, 70, 98
2, 73848, Note_on_c, 0, 70, 0
2, 73860, Note_on_c, 0, 69, 99
2, 73908, Note_on_c, 0, 69, 0
2, 73920, Note_on_c, 0, 70, 99
2, 74016, Note_on_c, 0, 70, 0
2, 74040, Note_on_c, 0, 86, 100
2, 74136, Note_on_c, 0, 86, 0
2, 74160, Note_on_c, 0, 69, 100
2, 74256, Note_on_c, 0, 69, 0
2, 74280, Note_on_c, 0, 84, 101
2, 74376, Note_on_c, 0, 84, 0
2, 74400, Note_on_c, 0, 67, 101
2, 74448, Note_on_c, 0, 67, 0
2, 74460, Note_on_c, 0, 84, 102
2, 74508, Note_on_c, 0, 84, 0
2, 74520, Note_on_c, 0, 82, 102
2, 74568, Note_on_c, 0, 82, 0
2, 74580, Note_on_c, 0, 81, 102
2, 74628, Note_on_c, 0, 81, 0
2, 74640, Note_on_c, 0, 79, 103
2, 74688, Note_on_c, 0, 79, 0
2, 74700, Note_on_c, 0, 77, 103
2, 74748, Note_on_c, 0, 77, 0
2, 74760, Note_on_c, 0, 76, 103
2, 74808, Note_on_c, 0, 76, 0
2, 74820, Note_on_c, 0, 74, 104
2, 74868, Note_on_c, 0, 74, 0
2, 74880, Note_on_c, 0, 76, 104
2, 74928, Note_on_c, 0, 76, 0
2, 74940, Note_on_c, 0, 82, 104
2, 74988, Note_on_c, 0, 82, 0
2, 75000, Note_on_c, 0, 81, 105
2, 75048, Note_on_c, 0, 81, 0
2, 75060, Note_on_c, 0, 79, 105
2, 75108, Note_on_c, 0, 79, 0
2, 75120, Note_on_c, 0, 81, 105
2, 75168, Note_on_c, 0, 81, 0
2, 75180, Note_on_c, 0, 76, 106
2, 75228, Note_on_c, 0, 76, 0
2, 75240, Note_on_c, 0, 74, 106
2, 75288, Note_on_c, 0, 74, 0
2, 75300, Note_on_c, 0, 73, 106
2, 75348, Note_on_c, 0, 73, 0
2, 75360, Note_on_c, 0, 74, 106
2, 75408, Note_on_c, 0, 74, 0
2, 75420, Note_on_c, 0, 81, 107
2, 75468, Note_on_c, 0, 81, 0
2, 75480, Note_on_c, 0, 79, 107
2, 75528, Note_on_c, 0, 79, 0
2, 75540, Note_on_c, 0, 77, 107
2, 75588, Note_on_c, 0, 77, 0
2, 75600, Note_on_c, 0, 79, 108
2, 75648, Note_on_c, 0, 79, 0
2, 75660, Note_on_c, 0, 74, 108
2, 75708, Note_on_c, 0, 74, 0
2, 75720, Note_on_c, 0, 73, 108
2, 75768, Note_on_c, 0, 73, 0
2, 75780, Note_on_c, 0, 71, 109
2, 75828, Note_on_c, 0, 71, 0
2, 75840, Note_on_c, 0, 73, 109
2, 75888, Note_on_c, 0, 73, 0
2, 75900, Note_on_c, 0, 79, 108
2, 75948, Note_on_c, 0, 79, 0
2, 75960, Note_on_c, 0, 77, 108
2, 76008, Note_on_c, 0, 77, 0
2, 76020, Note_on_c, 0, 76, 107
2, 76068, Note_on_c, 0, 76, 0
2, 76080, Note_on_c, 0, 77, 107
2, 76128, Note_on_c, 0, 77, 0
2, 76140, Note_on_c, 0, 76, 106
2, 76188, Note_on_c, 0, 76, 0
2, 76200, Note_on_c, 0, 74, 106
2, 76248, Note_on_c, 0, 74, 0
2, 76260, Note_on_c, 0, 77, 105
2, 76308, Note_on_c, 0, 77, 0
2, 76320, Note_on_c, 0, 76, 105
2, 76368, Note_on_c, 0, 76, 0
2, 76380, Note_on_c, 0, 74, 105
2, 76428, Note_on_c, 0, 74, 0
2, 76440, Note_on_c, 0, 73, 104
2, 76488, Note_on_c, 0, 73, 0
2, 76500, Note_on_c, 0, 71, 104
2, 76548, Note_on_c, 0, 71, 0
2, 76560, Note_on_c, 0, 69, 103
2, 76848, Note_on_c, 0, 69, 0
2, 76860, Note_on_c, 0, 65, 97
2, 76908, Note_on_c, 0, 65, 0
2, 76920, Note_on_c, 0, 62, 98
2, 76968, Note_on_c, 0, 62, 0
2, 76980, Note_on_c, 0, 65, 98
2, 77028, Note_on_c, 0, 65, 0
2, 77040, Note_on_c, 0, 67, 99
2, 77088, Note_on_c, 0, 67, 0
2, 77100, Note_on_c, 0, 64, 100
2, 77148, Note_on_c, 0, 64, 0
2, 77160, Note_on_c, 0, 61, 101
2, 77208, Note_on_c, 0, 61, 0
2, 77220, Note_on_c, 0, 64, 101
2, 77268, Note_on_c, 0, 64, 0
2, 77280, Note_on_c, 0, 65, 102
2, 77376, Note_on_c, 0, 65, 0
2, 77400, Note_on_c, 0, 62, 104
2, 77496, Note_on_c, 0, 62, 0
2, 77520, Note_on_c, 0, 74, 105
2, 77808, Note_on_c, 0, 74, 0
2, 77820, Note_on_c, 0, 70, 106
2, 77868, Note_on_c, 0, 70, 0
2, 77880, Note_on_c, 0, 67, 106
2, 77928, Note_on_c, 0, 67, 0
2, 77940, Note_on_c, 0, 70, 105
2, 77988, Note_on_c, 0, 70, 0
2, 78000, Note_on_c, 0, 72, 105
2, 78048, Note_on_c, 0, 72, 0
2, 78060, Note_on_c, 0, 69, 104
2, 78108, Note_on_c, 0, 69, 0
2, 78120, Note_on_c, 0, 66, 104
2, 78168, Note_on_c, 0, 66, 0
2, 78180, Note_on_c, 0, 69, 103
2, 78228, Note_on_c, 0, 69, 0
2, 78240, Note_on_c, 0, 70, 103
2, 78336, Note_on_c, 0, 70, 0
2, 78360, Note_on_c, 0, 67, 102
2, 78456, Note_on_c, 0, 67, 0
2, 78480, Note_on_c, 0, 82, 101
2, 78768, Note_on_c, 0, 82, 0
2, 78780, Note_on_c, 0, 67, 106
2, 78828, Note_on_c, 0, 67, 0
2, 78840, Note_on_c, 0, 65, 106
2, 78888, Note_on_c, 0, 65, 0
2, 78900, Note_on_c, 0, 64, 105
2, 78948, Note_on_c, 0, 64, 0
2, 78960, Note_on_c, 0, 65, 105
2, 79056, Note_on_c, 0, 65, 0
2, 79080, Note_on_c, 0, 81, 104
2, 79260, Note_on_c, 0, 81, 0
2, 79260, Note_on_c, 0, 65, 103
2, 79308, Note_on_c, 0, 65, 0
2, 79320, Note_on_c, 0, 64, 102
2, 79368, Note_on_c, 0, 64, 0
2, 79380, Note_on_c, 0, 62, 102
2, 79428, Note_on_c, 0, 62, 0
2, 79440, Note_on_c, 0, 64, 101
2, 79536, Note_on_c, 0, 64, 0
2, 79560, Note_on_c, 0, 79, 101
2, 79728, Note_on_c, 0, 79, 0
2, 79740, Note_on_c, 0, 64, 101
2, 79788, Note_on_c, 0, 64, 0
2, 79800, Note_on_c, 0, 62, 101
2, 79848, Note_on_c, 0, 62, 0
2, 79860, Note_on_c, 0, 61, 101
2, 79908, Note_on_c, 0, 61, 0
2, 79920, Note_on_c, 0, 62, 101
2, 80016, Note_on_c, 0, 62, 0
2, 80040, Note_on_c, 0, 74, 101
2, 80220, Note_on_c, 0, 74, 0
2, 80220, Note_on_c, 0, 77, 101
2, 80268, Note_on_c, 0, 77, 0
2, 80280, Note_on_c, 0, 76, 101
2, 80328, Note_on_c, 0, 76, 0
2, 80340, Note_on_c, 0, 74, 101
2, 80388, Note_on_c, 0, 74, 0
2, 80400, Note_on_c, 0, 76, 101
2, 80448, Note_on_c, 0, 76, 0
2, 80460, Note_on_c, 0, 79, 101
2, 80508, Note_on_c, 0, 79, 0
2, 80520, Note_on_c, 0, 77, 101
2, 80568, Note_on_c, 0, 77, 0
2, 80580, Note_on_c, 0, 76, 101
2, 80628, Note_on_c, 0, 76, 0
2, 80640, Note_on_c, 0, 77, 103
2, 80688, Note_on_c, 0, 77, 0
2, 80700, Note_on_c, 0, 79, 103
2, 80748, Note_on_c, 0, 79, 0
2, 80760, Note_on_c, 0, 77, 103
2, 80808, Note_on_c, 0, 77, 0
2, 80820, Note_on_c, 0, 76, 103
2, 80868, Note_on_c, 0, 76, 0
2, 80880, Note_on_c, 0, 74, 104
2, 80976, Note_on_c, 0, 74, 0
2, 81000, Note_on_c, 0, 86, 104
2, 81096, Note_on_c, 0, 86, 0
2, 81120, Note_on_c, 0, 85, 105
2, 81216, Note_on_c, 0, 85, 0
2, 81240, Note_on_c, 0, 81, 106
2, 81336, Note_on_c, 0, 81, 0
2, 81360, Note_on_c, 0, 76, 106
2, 81456, Note_on_c, 0, 76, 0
2, 81480, Note_on_c, 0, 79, 107
2, 81576, Note_on_c, 0, 79, 0
2, 81600, Note_on_c, 0, 78, 108
2, 81696, Note_on_c, 0, 78, 0
2, 81720, Note_on_c, 0, 74, 108
2, 81816, Note_on_c, 0, 74, 0
2, 81840, Note_on_c, 0, 84, 109
2, 82200, Note_on_c, 0, 84, 0
2, 82200, Note_on_c, 0, 83, 111
2, 82248, Note_on_c, 0, 83, 0
2, 82260, Note_on_c, 0, 81, 111
2, 82308, Note_on_c, 0, 81, 0
2, 82320, Note_on_c, 0, 83, 111
2, 82416, Note_on_c, 0, 83, 0
2, 82440, Note_on_c, 0, 79, 112
2, 82536, Note_on_c, 0, 79, 0
2, 82560, Note_on_c, 0, 76, 113
2, 82656, Note_on_c, 0, 76, 0
2, 82680, Note_on_c, 0, 79, 113
2, 82776, Note_on_c, 0, 79, 0
2, 82800, Note_on_c, 0, 82, 114
2, 82896, Note_on_c, 0, 82, 0
2, 82920, Note_on_c, 0, 74, 115
2, 83016, Note_on_c, 0, 74, 0
2, 83040, Note_on_c, 0, 73, 115
2, 83136, Note_on_c, 0, 73, 0
2, 83160, Note_on_c, 0, 81, 116
2, 83256, Note_on_c, 0, 81, 0
2, 83280, Note_on_c, 0, 74, 116
2, 83376, Note_on_c, 0, 74, 0
2, 83400, Note_on_c, 0, 79, 117
2, 83496, Note_on_c, 0, 79, 0
2, 83520, Note_on_c, 0, 77, 118
2, 83712, Note_on_c, 0, 77, 0
2, 83760, Note_on_c, 0, 76, 119
2, 83952, Note_on_c, 0, 76, 0
2, 84000, Note_on_c, 0, 74, 120
2, 84384, Note_on_c, 0, 74, 0
2, 89280, Note_on_c, 0, 84, 57
2, 89736, Note_on_c, 0, 84, 0
2, 89760, Note_on_c, 0, 83, 65
2, 89856, Note_on_c, 0, 83, 0
2, 89880, Note_on_c, 0, 81, 67
2, 89976, Note_on_c, 0, 81, 0
2, 90000, Note_on_c, 0, 79, 69
2, 90456, Note_on_c, 0, 79, 0
2, 90480, Note_on_c, 0, 77, 69
2, 90576, Note_on_c, 0, 77, 0
2, 90600, Note_on_c, 0, 76, 68
2, 90696, Note_on_c, 0, 76, 0
2, 90720, Note_on_c, 0, 74, 67
2, 90816, Note_on_c, 0, 74, 0
2, 90840, Note_on_c, 0, 71, 68
2, 90936, Note_on_c, 0, 71, 0
2, 90960, Note_on_c, 0, 72, 69
2, 91056, Note_on_c, 0, 72, 0
2, 91080, Note_on_c, 0, 77, 70
2, 91536, Note_on_c, 0, 77, 0
2, 91560, Note_on_c, 0, 76, 69
2, 91656, Note_on_c, 0, 76, 0
2, 91680, Note_on_c, 0, 79, 69
2, 91776, Note_on_c, 0, 79, 0
2, 91800, Note_on_c, 0, 84, 69
2, 91992, Note_on_c, 0, 84, 0
2, 92040, Note_on_c, 0, 75, 68
2, 92256, Note_on_c, 0, 75, 0
2, 92280, Note_on_c, 0, 74, 69
2, 92376, Note_on_c, 0, 74, 0
2, 92400, Note_on_c, 0, 77, 69
2, 92496, Note_on_c, 0, 77, 0
2, 92520, Note_on_c, 0, 82, 69
2, 92712, Note_on_c, 0, 82, 0
2, 92760, Note_on_c, 0, 74, 67
2, 92976, Note_on_c, 0, 74, 0
2, 93000, Note_on_c, 0, 72, 65
2, 93096, Note_on_c, 0, 72, 0
2, 93120, Note_on_c, 0, 76, 64
2, 93216, Note_on_c, 0, 76, 0
2, 93240, Note_on_c, 0, 81, 63
2, 93432, Note_on_c, 0, 81, 0
2, 93480, Note_on_c, 0, 72, 64
2, 93696, Note_on_c, 0, 72, 0
2, 93720, Note_on_c, 0, 70, 65
2, 93816, Note_on_c, 0, 70, 0
2, 93840, Note_on_c, 0, 74, 66
2, 93936, Note_on_c, 0, 74, 0
2, 93960, Note_on_c, 0, 79, 67
2, 94152, Note_on_c, 0, 79, 0
2, 94200, Note_on_c, 0, 70, 67
2, 94416, Note_on_c, 0, 70, 0
2, 94440, Note_on_c, 0, 69, 65
2, 94536, Note_on_c, 0, 69, 0
2, 94560, Note_on_c, 0, 74, 64
2, 94656, Note_on_c, 0, 74, 0
2, 94680, Note_on_c, 0, 79, 63
2, 94776, Note_on_c, 0, 79, 0
2, 94800, Note_on_c, 0, 81, 62
2, 94848, Note_on_c, 0, 81, 0
2, 94860, Note_on_c, 0, 79, 62
2, 94908, Note_on_c, 0, 79, 0
2, 94920, Note_on_c, 0, 77, 62
2, 94968, Note_on_c, 0, 77, 0
2, 94980, Note_on_c, 0, 76, 61
2, 95028, Note_on_c, 0, 76, 0
2, 95040, Note_on_c, 0, 77, 61
2, 95088, Note_on_c, 0, 77, 0
2, 95100, Note_on_c, 0, 76, 60
2, 95148, Note_on_c, 0, 76, 0
2, 95160, Note_on_c, 0, 77, 60
2, 95208, Note_on_c, 0, 77, 0
2, 95220, Note_on_c, 0, 74, 60
2, 95268, Note_on_c, 0, 74, 0
2, 95280, Note_on_c, 0, 69, 61
2, 95328, Note_on_c, 0, 69, 0
2, 95340, Note_on_c, 0, 74, 61
2, 95388, Note_on_c, 0, 74, 0
2, 95400, Note_on_c, 0, 79, 62
2, 95448, Note_on_c, 0, 79, 0
2, 95460, Note_on_c, 0, 77, 62
2, 95508, Note_on_c, 0, 77, 0
2, 95520, Note_on_c, 0, 79, 62
2, 95568, Note_on_c, 0, 79, 0
2, 95580, Note_on_c, 0, 76, 63
2, 95628, Note_on_c, 0, 76, 0
2, 95640, Note_on_c, 0, 72, 63
2, 95688, Note_on_c, 0, 72, 0
2, 95700, Note_on_c, 0, 76, 63
2, 95748, Note_on_c, 0, 76, 0
2, 95760, Note_on_c, 0, 81, 64
2, 95808, Note_on_c, 0, 81, 0
2, 95820, Note_on_c, 0, 79, 64
2, 95868, Note_on_c, 0, 79, 0
2, 95880, Note_on_c, 0, 81, 65
2, 95928, Note_on_c, 0, 81, 0
2, 95940, Note_on_c, 0, 77, 65
2, 95988, Note_on_c, 0, 77, 0
2, 96000, Note_on_c, 0, 74, 65
2, 96048, Note_on_c, 0, 74, 0
2, 96060, Note_on_c, 0, 77, 66
2, 96108, Note_on_c, 0, 77, 0
2, 96120, Note_on_c, 0, 82, 66
2, 96168, Note_on_c, 0, 82, 0
2, 96180, Note_on_c, 0, 81, 66
2, 96228, Note_on_c, 0, 81, 0
2, 96240, Note_on_c, 0, 82, 67
2, 96288, Note_on_c, 0, 82, 0
2, 96300, Note_on_c, 0, 79, 67
2, 96348, Note_on_c, 0, 79, 0
2, 96360, Note_on_c, 0, 81, 68
2, 96408, Note_on_c, 0, 81, 0
2, 96420, Note_on_c, 0, 82, 68
2, 96468, Note_on_c, 0, 82, 0
2, 96480, Note_on_c, 0, 73, 68
2, 96576, Note_on_c, 0, 73, 0
2, 96600, Note_on_c, 0, 81, 69
2, 96696, Note_on_c, 0, 81, 0
2, 96720, Note_on_c, 0, 74, 70
2, 96936, Note_on_c, 0, 74, 0
2, 96960, Note_on_c, 0, 71, 68
2, 97056, Note_on_c, 0, 71, 0
2, 97080, Note_on_c, 0, 73, 67
2, 97176, Note_on_c, 0, 73, 0
2, 97200, Note_on_c, 0, 74, 62
2, 97392, Note_on_c, 0, 74, 0
2, 97680, Note_on_c, 0, 69, 64
2, 97968, Note_on_c, 0, 69, 0
2, 97980, Note_on_c, 0, 66, 67
2, 98028, Note_on_c, 0, 66, 0
2, 98040, Note_on_c, 0, 67, 67
2, 98088, Note_on_c, 0, 67, 0
2, 98100, Note_on_c, 0, 69, 68
2, 98148, Note_on_c, 0, 69, 0
2, 98160, Note_on_c, 0, 70, 68
2, 98208, Note_on_c, 0, 70, 0
2, 98220, Note_on_c, 0, 72, 69
2, 98268, Note_on_c, 0, 72, 0
2, 98280, Note_on_c, 0, 74, 70
2, 98328, Note_on_c, 0, 74, 0
2, 98340, Note_on_c, 0, 77, 70
2, 98388, Note_on_c, 0, 77, 0
2, 98400, Note_on_c, 0, 75, 69
2, 98448, Note_on_c, 0, 75, 0
2, 98460, Note_on_c, 0, 74, 68
2, 98508, Note_on_c, 0, 74, 0
2, 98520, Note_on_c, 0, 72, 67
2, 98568, Note_on_c, 0, 72, 0
2, 98580, Note_on_c, 0, 70, 66
2, 98628, Note_on_c, 0, 70, 0
2, 98640, Note_on_c, 0, 72, 65
2, 98928, Note_on_c, 0, 72, 0
2, 99360, Note_on_c, 0, 82, 60
2, 99816, Note_on_c, 0, 82, 0
2, 99840, Note_on_c, 0, 81, 64
2, 99936, Note_on_c, 0, 81, 0
2, 99960, Note_on_c, 0, 79, 66
2, 100056, Note_on_c, 0, 79, 0
2, 100080, Note_on_c, 0, 77, 68
2, 100536, Note_on_c, 0, 77, 0
2, 100560, Note_on_c, 0, 75, 67
2, 100656, Note_on_c, 0, 75, 0
2, 100680, Note_on_c, 0, 74, 67
2, 100776, Note_on_c, 0, 74, 0
2, 100800, Note_on_c, 0, 72, 66
2, 100896, Note_on_c, 0, 72, 0
2, 100920, Note_on_c, 0, 69, 66
2, 101016, Note_on_c, 0, 69, 0
2, 101040, Note_on_c, 0, 70, 66
2, 101136, Note_on_c, 0, 70, 0
2, 101160, Note_on_c, 0, 75, 67
2, 101616, Note_on_c, 0, 75, 0
2, 101640, Note_on_c, 0, 74, 69
2, 101736, Note_on_c, 0, 74, 0
2, 101760, Note_on_c, 0, 77, 69
2, 101856, Note_on_c, 0, 77, 0
2, 101880, Note_on_c, 0, 82, 68
2, 101976, Note_on_c, 0, 82, 0
2, 102000, Note_on_c, 0, 84, 67
2, 102048, Note_on_c, 0, 84, 0
2, 102060, Note_on_c, 0, 82, 66
2, 102108, Note_on_c, 0, 82, 0
2, 102120, Note_on_c, 0, 81, 66
2, 102168, Note_on_c, 0, 81, 0
2, 102180, Note_on_c, 0, 79, 66
2, 102228, Note_on_c, 0, 79, 0
2, 102240, Note_on_c, 0, 81, 65
2, 102288, Note_on_c, 0, 81, 0
2, 102300, Note_on_c, 0, 79, 65
2, 102348, Note_on_c, 0, 79, 0
2, 102360, Note_on_c, 0, 81, 64
2, 102408, Note_on_c, 0, 81, 0
2, 102420, Note_on_c, 0, 77, 64
2, 102468, Note_on_c, 0, 77, 0
2, 102480, Note_on_c, 0, 72, 64
2, 102528, Note_on_c, 0, 72, 0
2, 102540, Note_on_c, 0, 77, 65
2, 102588, Note_on_c, 0, 77, 0
2, 102600, Note_on_c, 0, 82, 65
2, 102648, Note_on_c, 0, 82, 0
2, 102660, Note_on_c, 0, 81, 65
2, 102708, Note_on_c, 0, 81, 0
2, 102720, Note_on_c, 0, 82, 65
2, 102768, Note_on_c, 0, 82, 0
2, 102780, Note_on_c, 0, 79, 66
2, 102828, Note_on_c, 0, 79, 0
2, 102840, Note_on_c, 0, 76, 66
2, 102888, Note_on_c, 0, 76, 0
2, 102900, Note_on_c, 0, 79, 66
2, 102948, Note_on_c, 0, 79, 0
2, 102960, Note_on_c, 0, 84, 66
2, 103008, Note_on_c, 0, 84, 0
2, 103020, Note_on_c, 0, 82, 67
2, 103068, Note_on_c, 0, 82, 0
2, 103080, Note_on_c, 0, 84, 67
2, 103128, Note_on_c, 0, 84, 0
2, 103140, Note_on_c, 0, 81, 67
2, 103188, Note_on_c, 0, 81, 0
2, 103200, Note_on_c, 0, 77, 68
2, 103248, Note_on_c, 0, 77, 0
2, 103260, Note_on_c, 0, 81, 68
2, 103308, Note_on_c, 0, 81, 0
2, 103320, Note_on_c, 0, 86, 68
2, 103368, Note_on_c, 0, 86, 0
2, 103380, Note_on_c, 0, 84, 68
2, 103428, Note_on_c, 0, 84, 0
2, 103440, Note_on_c, 0, 86, 69
2, 103488, Note_on_c, 0, 86, 0
2, 103500, Note_on_c, 0, 82, 69
2, 103548, Note_on_c, 0, 82, 0
2, 103560, Note_on_c, 0, 84, 69
2, 103608, Note_on_c, 0, 84, 0
2, 103620, Note_on_c, 0, 86, 69
2, 103668, Note_on_c, 0, 86, 0
2, 103680, Note_on_c, 0, 76, 70
2, 103776, Note_on_c, 0, 76, 0
2, 103800, Note_on_c, 0, 84, 70
2, 103896, Note_on_c, 0, 84, 0
2, 103920, Note_on_c, 0, 77, 71
2, 104136, Note_on_c, 0, 77, 0
2, 104160, Note_on_c, 0, 74, 68
2, 104256, Note_on_c, 0, 74, 0
2, 104280, Note_on_c, 0, 76, 67
2, 104376, Note_on_c, 0, 76, 0
2, 104400, Note_on_c, 0, 77, 66
2, 104448, Note_on_c, 0, 77, 0
2, 104460, Note_on_c, 0, 76, 64
2, 104508, Note_on_c, 0, 76, 0
2, 104520, Note_on_c, 0, 77, 64
2, 104568, Note_on_c, 0, 77, 0
2, 104580, Note_on_c, 0, 81, 65
2, 104628, Note_on_c, 0, 81, 0
2, 104640, Note_on_c, 0, 76, 65
2, 104688, Note_on_c, 0, 76, 0
2, 104700, Note_on_c, 0, 79, 66
2, 104748, Note_on_c, 0, 79, 0
2, 104760, Note_on_c, 0, 77, 66
2, 104808, Note_on_c, 0, 77, 0
2, 104820, Note_on_c, 0, 79, 67
2, 104868, Note_on_c, 0, 79, 0
2, 104880, Note_on_c, 0, 81, 67
2, 104928, Note_on_c, 0, 81, 0
2, 104940, Note_on_c, 0, 82, 68
2, 104988, Note_on_c, 0, 82, 0
2, 105000, Note_on_c, 0, 84, 68
2, 105048, Note_on_c, 0, 84, 0
2, 105060, Note_on_c, 0, 81, 69
2, 105108, Note_on_c, 0, 81, 0
2, 105120, Note_on_c, 0, 77, 70
2, 105168, Note_on_c, 0, 77, 0
2, 105180, Note_on_c, 0, 76, 70
2, 105228, Note_on_c, 0, 76, 0
2, 105240, Note_on_c, 0, 77, 71
2, 105288, Note_on_c, 0, 77, 0
2, 105300, Note_on_c, 0, 82, 71
2, 105348, Note_on_c, 0, 82, 0
2, 105360, Note_on_c, 0, 74, 72
2, 105408, Note_on_c, 0, 74, 0
2, 105420, Note_on_c, 0, 77, 72
2, 105468, Note_on_c, 0, 77, 0
2, 105480, Note_on_c, 0, 76, 73
2, 105528, Note_on_c, 0, 76, 0
2, 105540, Note_on_c, 0, 77, 73
2, 105588, Note_on_c, 0, 77, 0
2, 105600, Note_on_c, 0, 79, 74
2, 105648, Note_on_c, 0, 79, 0
2, 105660, Note_on_c, 0, 81, 74
2, 105708, Note_on_c, 0, 81, 0
2, 105720, Note_on_c, 0, 82, 75
2, 105768, Note_on_c, 0, 82, 0
2, 105780, Note_on_c, 0, 79, 76
2, 105828, Note_on_c, 0, 79, 0
2, 105840, Note_on_c, 0, 76, 76
2, 105888, Note_on_c, 0, 76, 0
2, 105900, Note_on_c, 0, 74, 77
2, 105948, Note_on_c, 0, 74, 0
2, 105960, Note_on_c, 0, 76, 77
2, 106008, Note_on_c, 0, 76, 0
2, 106020, Note_on_c, 0, 81, 78
2, 106068, Note_on_c, 0, 81, 0
2, 106080, Note_on_c, 0, 72, 78
2, 106128, Note_on_c, 0, 72, 0
2, 106140, Note_on_c, 0, 76, 79
2, 106188, Note_on_c, 0, 76, 0
2, 106200, Note_on_c, 0, 74, 79
2, 106248, Note_on_c, 0, 74, 0
2, 106260, Note_on_c, 0, 76, 80
2, 106308, Note_on_c, 0, 76, 0
2, 106320, Note_on_c, 0, 77, 81
2, 106368, Note_on_c, 0, 77, 0
2, 106380, Note_on_c, 0, 79, 81
2, 106428, Note_on_c, 0, 79, 0
2, 106440, Note_on_c, 0, 81, 82
2, 106488, Note_on_c, 0, 81, 0
2, 106500, Note_on_c, 0, 77, 82
2, 106548, Note_on_c, 0, 77, 0
2, 106560, Note_on_c, 0, 74, 83
2, 106608, Note_on_c, 0, 74, 0
2, 106620, Note_on_c, 0, 72, 83
2, 106668, Note_on_c, 0, 72, 0
2, 106680, Note_on_c, 0, 74, 84
2, 106728, Note_on_c, 0, 74, 0
2, 106740, Note_on_c, 0, 79, 84
2, 106788, Note_on_c, 0, 79, 0
2, 106800, Note_on_c, 0, 70, 85
2, 106848, Note_on_c, 0, 70, 0
2, 106860, Note_on_c, 0, 74, 85
2, 106908, Note_on_c, 0, 74, 0
2, 106920, Note_on_c, 0, 72, 86
2, 106968, Note_on_c, 0, 72, 0
2, 106980, Note_on_c, 0, 74, 87
2, 107028, Note_on_c, 0, 74, 0
2, 107040, Note_on_c, 0, 76, 87
2, 107088, Note_on_c, 0, 76, 0
2, 107100, Note_on_c, 0, 77, 88
2, 107148, Note_on_c, 0, 77, 0
2, 107160, Note_on_c, 0, 79, 88
2, 107208, Note_on_c, 0, 79, 0
2, 107220, Note_on_c, 0, 76, 89
2, 107268, Note_on_c, 0, 76, 0
2, 107280, Note_on_c, 0, 72, 89
2, 107328, Note_on_c, 0, 72, 0
2, 107340, Note_on_c, 0, 70, 90
2, 107388, Note_on_c, 0, 70, 0
2, 107400, Note_on_c, 0, 72, 90
2, 107448, Note_on_c, 0, 72, 0
2, 107460, Note_on_c, 0, 77, 91
2, 107508, Note_on_c, 0, 77, 0
2, 107520, Note_on_c, 0, 70, 91
2, 107616, Note_on_c, 0, 70, 0
2, 107640, Note_on_c, 0, 69, 93
2, 107736, Note_on_c, 0, 69, 0
2, 107760, Note_on_c, 0, 70, 94
2, 107856, Note_on_c, 0, 70, 0
2, 107880, Note_on_c, 0, 67, 95
2, 107976, Note_on_c, 0, 67, 0
2, 108000, Note_on_c, 0, 65, 95
2, 108192, Note_on_c, 0, 65, 0
2, 108360, Note_on_c, 0, 62, 78
2, 108456, Note_on_c, 0, 62, 0
2, 108480, Note_on_c, 0, 60, 73
2, 108576, Note_on_c, 0, 60, 0
2, 108600, Note_on_c, 0, 58, 67
2, 108696, Note_on_c, 0, 58, 0
2, 108720, Note_on_c, 0, 57, 63
2, 108768, Note_on_c, 0, 57, 0
2, 108780, Note_on_c, 0, 60, 64
2, 108828, Note_on_c, 0, 60, 0
2, 108840, Note_on_c, 0, 62, 65
2, 108888, Note_on_c, 0, 62, 0
2, 108900, Note_on_c, 0, 58, 67
2, 108948, Note_on_c, 0, 58, 0
2, 108960, Note_on_c, 0, 60, 67
2, 109056, Note_on_c, 0, 60, 0
2, 109080, Note_on_c, 0, 70, 66
2, 109176, Note_on_c, 0, 70, 0
2, 109200, Note_on_c, 0, 69, 64
2, 109296, Note_on_c, 0, 69, 0
2, 109320, Note_on_c, 0, 67, 63
2, 109416, Note_on_c, 0, 67, 0
2, 109440, Note_on_c, 0, 65, 62
2, 109536, Note_on_c, 0, 65, 0
2, 109560, Note_on_c, 0, 74, 61
2, 109920, Note_on_c, 0, 74, 0
2, 109920, Note_on_c, 0, 76, 64
2, 110016, Note_on_c, 0, 76, 0
2, 110040, Note_on_c, 0, 77, 66
2, 110136, Note_on_c, 0, 77, 0
2, 110160, Note_on_c, 0, 72, 69
2, 110616, Note_on_c, 0, 72, 0
2, 110640, Note_on_c, 0, 76, 67
2, 110736, Note_on_c, 0, 76, 0
2, 110760, Note_on_c, 0, 77, 66
2, 110856, Note_on_c, 0, 77, 0
2, 110880, Note_on_c, 0, 70, 65
2, 111336, Note_on_c, 0, 70, 0
2, 111360, Note_on_c, 0, 76, 68
2, 111504, Note_on_c, 0, 76, 0
2, 111540, Note_on_c, 0, 77, 69
2, 111564, Note_on_c, 0, 77, 0
2, 111570, Note_on_c, 0, 79, 70
2, 111594, Note_on_c, 0, 79, 0
2, 111600, Note_on_c, 0, 69, 70
2, 112020, Note_on_c, 0, 69, 0
2, 112020, Note_on_c, 0, 71, 66
2, 112068, Note_on_c, 0, 71, 0
2, 112080, Note_on_c, 0, 71, 66
2, 112272, Note_on_c, 0, 71, 0
2, 112320, Note_on_c, 0, 72, 60
2, 112368, Note_on_c, 0, 72, 0
2, 112380, Note_on_c, 0, 71, 59
2, 112428, Note_on_c, 0, 71, 0
2, 112440, Note_on_c, 0, 72, 59
2, 112488, Note_on_c, 0, 72, 0
2, 112500, Note_on_c, 0, 76, 59
2, 112548, Note_on_c, 0, 76, 0
2, 112560, Note_on_c, 0, 71, 59
2, 112608, Note_on_c, 0, 71, 0
2, 112620, Note_on_c, 0, 74, 59
2, 112668, Note_on_c, 0, 74, 0
2, 112680, Note_on_c, 0, 72, 60
2, 112728, Note_on_c, 0, 72, 0
2, 112740, Note_on_c, 0, 74, 60
2, 112788, Note_on_c, 0, 74, 0
2, 112800, Note_on_c, 0, 76, 60
2, 112848, Note_on_c, 0, 76, 0
2, 112860, Note_on_c, 0, 77, 60
2, 112908, Note_on_c, 0, 77, 0
2, 112920, Note_on_c, 0, 79, 61
2, 112968, Note_on_c, 0, 79, 0
2, 112980, Note_on_c, 0, 76, 61
2, 113028, Note_on_c, 0, 76, 0
2, 113040, Note_on_c, 0, 72, 61
2, 113088, Note_on_c, 0, 72, 0
2, 113100, Note_on_c, 0, 70, 61
2, 113148, Note_on_c, 0, 70, 0
2, 113160, Note_on_c, 0, 72, 62
2, 113208, Note_on_c, 0, 72, 0
2, 113220, Note_on_c, 0, 77, 62
2, 113268, Note_on_c, 0, 77, 0
2, 113280, Note_on_c, 0, 69, 62
2, 113328, Note_on_c, 0, 69, 0
2, 113340, Note_on_c, 0, 72, 62
2, 113388, Note_on_c, 0, 72, 0
2, 113400, Note_on_c, 0, 71, 62
2, 113448, Note_on_c, 0, 71, 0
2, 113460, Note_on_c, 0, 72, 63
2, 113508, Note_on_c, 0, 72, 0
2, 113520, Note_on_c, 0, 74, 63
2, 113568, Note_on_c, 0, 74, 0
2, 113580, Note_on_c, 0, 76, 63
2, 113628, Note_on_c, 0, 76, 0
2, 113640, Note_on_c, 0, 77, 63
2, 113688, Note_on_c, 0, 77, 0
2, 113700, Note_on_c, 0, 74, 64
2, 113748, Note_on_c, 0, 74, 0
2, 113760, Note_on_c, 0, 71, 64
2, 113808, Note_on_c, 0, 71, 0
2, 113820, Note_on_c, 0, 69, 64
2, 113868, Note_on_c, 0, 69, 0
2, 113880, Note_on_c, 0, 71, 64
2, 113928, Note_on_c, 0, 71, 0
2, 113940, Note_on_c, 0, 76, 65
2, 113988, Note_on_c, 0, 76, 0
2, 114000, Note_on_c, 0, 67, 65
2, 114048, Note_on_c, 0, 67, 0
2, 114060, Note_on_c, 0, 71, 65
2, 114108, Note_on_c, 0, 71, 0
2, 114120, Note_on_c, 0, 69, 65
2, 114168, Note_on_c, 0, 69, 0
2, 114180, Note_on_c, 0, 71, 66
2, 114228, Note_on_c, 0, 71, 0
2, 114240, Note_on_c, 0, 72, 66
2, 114288, Note_on_c, 0, 72, 0
2, 114300, Note_on_c, 0, 74, 66
2, 114348, Note_on_c, 0, 74, 0
2, 114360, Note_on_c, 0, 76, 66
2, 114408, Note_on_c, 0, 76, 0
2, 114420, Note_on_c, 0, 72, 66
2, 114468, Note_on_c, 0, 72, 0
2, 114480, Note_on_c, 0, 69, 67
2, 114528, Note_on_c, 0, 69, 0
2, 114540, Note_on_c, 0, 67, 67
2, 114588, Note_on_c, 0, 67, 0
2, 114600, Note_on_c, 0, 69, 67
2, 114648, Note_on_c, 0, 69, 0
2, 114660, Note_on_c, 0, 74, 67
2, 114708, Note_on_c, 0, 74, 0
2, 114720, Note_on_c, 0, 65, 68
2, 114768, Note_on_c, 0, 65, 0
2, 114780, Note_on_c, 0, 69, 68
2, 114828, Note_on_c, 0, 69, 0
2, 114840, Note_on_c, 0, 67, 68
2, 114888, Note_on_c, 0, 67, 0
2, 114900, Note_on_c, 0, 69, 68
2, 114948, Note_on_c, 0, 69, 0
2, 114960, Note_on_c, 0, 71, 69
2, 115008, Note_on_c, 0, 71, 0
2, 115020, Note_on_c, 0, 72, 69
2, 115068, Note_on_c, 0, 72, 0
2, 115080, Note_on_c, 0, 74, 69
2, 115128, Note_on_c, 0, 74, 0
2, 115140, Note_on_c, 0, 71, 69
2, 115188, Note_on_c, 0, 71, 0
2, 115200, Note_on_c, 0, 72, 69
2, 115248, Note_on_c, 0, 72, 0
2, 115260, Note_on_c, 0, 67, 70
2, 115308, Note_on_c, 0, 67, 0
2, 115320, Note_on_c, 0, 69, 70
2, 115368, Note_on_c, 0, 69, 0
2, 115380, Note_on_c, 0, 65, 70
2, 115428, Note_on_c, 0, 65, 0
2, 115440, Note_on_c, 0, 67, 70
2, 115536, Note_on_c, 0, 67, 0
2, 115560, Note_on_c, 0, 77, 70
2, 115656, Note_on_c, 0, 77, 0
2, 115680, Note_on_c, 0, 76, 68
2, 115776, Note_on_c, 0, 76, 0
2, 115800, Note_on_c, 0, 74, 67
2, 115896, Note_on_c, 0, 74, 0
2, 115920, Note_on_c, 0, 72, 66
2, 116112, Note_on_c, 0, 72, 0
2, 116280, Note_on_c, 0, 69, 67
2, 116376, Note_on_c, 0, 69, 0
2, 116400, Note_on_c, 0, 67, 68
2, 116496, Note_on_c, 0, 67, 0
2, 116520, Note_on_c, 0, 65, 68
2, 116616, Note_on_c, 0, 65, 0
2, 116640, Note_on_c, 0, 64, 69
2, 116832, Note_on_c, 0, 64, 0
2, 117000, Note_on_c, 0, 77, 71
2, 117420, Note_on_c, 0, 77, 0
2, 117420, Note_on_c, 0, 76, 73
2, 117468, Note_on_c, 0, 76, 0
2, 117480, Note_on_c, 0, 83, 73
2, 117576, Note_on_c, 0, 83, 0
2, 117600, Note_on_c, 0, 84, 74
2, 117696, Note_on_c, 0, 84, 0
2, 117720, Note_on_c, 0, 76, 75
2, 118128, Note_on_c, 0, 76, 0
2, 118140, Note_on_c, 0, 74, 69
2, 118188, Note_on_c, 0, 74, 0
2, 118200, Note_on_c, 0, 83, 69
2, 118296, Note_on_c, 0, 83, 0
2, 118320, Note_on_c, 0, 84, 70
2, 118416, Note_on_c, 0, 84, 0
2, 118440, Note_on_c, 0, 74, 71
2, 118860, Note_on_c, 0, 74, 0
2, 118860, Note_on_c, 0, 72, 71
2, 118908, Note_on_c, 0, 72, 0
2, 118920, Note_on_c, 0, 83, 70
2, 119016, Note_on_c, 0, 83, 0
2, 119040, Note_on_c, 0, 84, 70
2, 119136, Note_on_c, 0, 84, 0
2, 119160, Note_on_c, 0, 72, 71
2, 119448, Note_on_c, 0, 72, 0
2, 119520, Note_on_c, 0, 71, 67
2, 119568, Note_on_c, 0, 71, 0
2, 119580, Note_on_c, 0, 69, 67
2, 119628, Note_on_c, 0, 69, 0
2, 119640, Note_on_c, 0, 71, 67
2, 119688, Note_on_c, 0, 71, 0
2, 119700, Note_on_c, 0, 67, 67
2, 119748, Note_on_c, 0, 67, 0
2, 119760, Note_on_c, 0, 62, 68
2, 119808, Note_on_c, 0, 62, 0
2, 119820, Note_on_c, 0, 67, 68
2, 119868, Note_on_c, 0, 67, 0
2, 119880, Note_on_c, 0, 72, 68
2, 119928, Note_on_c, 0, 72, 0
2, 119940, Note_on_c, 0, 71, 69
2, 119988, Note_on_c, 0, 71, 0
2, 120000, Note_on_c, 0, 72, 69
2, 120048, Note_on_c, 0, 72, 0
2, 120060, Note_on_c, 0, 67, 69
2, 120108, Note_on_c, 0, 67, 0
2, 120120, Note_on_c, 0, 64, 69
2, 120168, Note_on_c, 0, 64, 0
2, 120180, Note_on_c, 0, 67, 70
2, 120228, Note_on_c, 0, 67, 0
2, 120240, Note_on_c, 0, 74, 70
2, 120288, Note_on_c, 0, 74, 0
2, 120300, Note_on_c, 0, 72, 70
2, 120348, Note_on_c, 0, 72, 0
2, 120360, Note_on_c, 0, 74, 71
2, 120408, Note_on_c, 0, 74, 0
2, 120420, Note_on_c, 0, 71, 71
2, 120468, Note_on_c, 0, 71, 0
2, 120480, Note_on_c, 0, 67, 71
2, 120528, Note_on_c, 0, 67, 0
2, 120540, Note_on_c, 0, 71, 71
2, 120588, Note_on_c, 0, 71, 0
2, 120600, Note_on_c, 0, 76, 72
2, 120648, Note_on_c, 0, 76, 0
2, 120660, Note_on_c, 0, 74, 72
2, 120708, Note_on_c, 0, 74, 0
2, 120720, Note_on_c, 0, 76, 72
2, 120768, Note_on_c, 0, 76, 0
2, 120780, Note_on_c, 0, 72, 73
2, 120828, Note_on_c, 0, 72, 0
2, 120840, Note_on_c, 0, 67, 73
2, 120888, Note_on_c, 0, 67, 0
2, 120900, Note_on_c, 0, 72, 73
2, 120948, Note_on_c, 0, 72, 0
2, 120960, Note_on_c, 0, 71, 73
2, 121152, Note_on_c, 0, 71, 0
2, 121440, Note_on_c, 0, 71, 60
2, 121728, Note_on_c, 0, 71, 0
2, 121740, Note_on_c, 0, 68, 62
2, 121788, Note_on_c, 0, 68, 0
2, 121800, Note_on_c, 0, 69, 63
2, 121848, Note_on_c, 0, 69, 0
2, 121860, Note_on_c, 0, 71, 65
2, 121908, Note_on_c, 0, 71, 0
2, 121920, Note_on_c, 0, 72, 66
2, 121968, Note_on_c, 0, 72, 0
2, 121980, Note_on_c, 0, 74, 68
2, 122028, Note_on_c, 0, 74, 0
2, 122040, Note_on_c, 0, 76, 68
2, 122088, Note_on_c, 0, 76, 0
2, 122100, Note_on_c, 0, 79, 67
2, 122148, Note_on_c, 0, 79, 0
2, 122160, Note_on_c, 0, 77, 66
2, 122208, Note_on_c, 0, 77, 0
2, 122220, Note_on_c, 0, 76, 65
2, 122268, Note_on_c, 0, 76, 0
2, 122280, Note_on_c, 0, 74, 64
2, 122328, Note_on_c, 0, 74, 0
2, 122340, Note_on_c, 0, 72, 63
2, 122388, Note_on_c, 0, 72, 0
2, 122400, Note_on_c, 0, 74, 62
2, 122688, Note_on_c, 0, 74, 0
2, 123000, Note_on_c, 0, 83, 64
2, 123096, Note_on_c, 0, 83, 0
2, 123120, Note_on_c, 0, 84, 69
2, 123312, Note_on_c, 0, 84, 0
2, 123360, Note_on_c, 0, 72, 67
2, 123456, Note_on_c, 0, 72, 0
2, 123480, Note_on_c, 0, 60, 65
2, 123672, Note_on_c, 0, 60, 0
2, 123720, Note_on_c, 0, 84, 65
2, 123816, Note_on_c, 0, 84, 0
2, 123840, Note_on_c, 0, 82, 62
2, 124032, Note_on_c, 0, 82, 0
2, 124080, Note_on_c, 0, 72, 62
2, 124176, Note_on_c, 0, 72, 0
2, 124200, Note_on_c, 0, 60, 60
2, 124392, Note_on_c, 0, 60, 0
2, 124440, Note_on_c, 0, 81, 60
2, 124536, Note_on_c, 0, 81, 0
2, 124560, Note_on_c, 0, 79, 62
2, 124608, Note_on_c, 0, 79, 0
2, 124620, Note_on_c, 0, 71, 62
2, 124668, Note_on_c, 0, 71, 0
2, 124680, Note_on_c, 0, 72, 62
2, 124728, Note_on_c, 0, 72, 0
2, 124740, Note_on_c, 0, 74, 64
2, 124788, Note_on_c, 0, 74, 0
2, 124800, Note_on_c, 0, 76, 67
2, 124848, Note_on_c, 0, 76, 0
2, 124860, Note_on_c, 0, 77, 67
2, 124908, Note_on_c, 0, 77, 0
2, 124920, Note_on_c, 0, 79, 67
2, 124968, Note_on_c, 0, 79, 0
2, 124980, Note_on_c, 0, 82, 67
2, 125028, Note_on_c, 0, 82, 0
2, 125040, Note_on_c, 0, 81, 67
2, 125088, Note_on_c, 0, 81, 0
2, 125100, Note_on_c, 0, 79, 65
2, 125148, Note_on_c, 0, 79, 0
2, 125160, Note_on_c, 0, 77, 63
2, 125208, Note_on_c, 0, 77, 0
2, 125220, Note_on_c, 0, 76, 63
2, 125268, Note_on_c, 0, 76, 0
2, 125280, Note_on_c, 0, 77, 63
2, 125568, Note_on_c, 0, 77, 0
2, 125760, Note_on_c, 0, 77, 60
2, 126048, Note_on_c, 0, 77, 0
2, 126060, Note_on_c, 0, 74, 62
2, 126108, Note_on_c, 0, 74, 0
2, 126120, Note_on_c, 0, 76, 63
2, 126168, Note_on_c, 0, 76, 0
2, 126180, Note_on_c, 0, 77, 64
2, 126228, Note_on_c, 0, 77, 0
2, 126240, Note_on_c, 0, 79, 65
2, 126288, Note_on_c, 0, 79, 0
2, 126300, Note_on_c, 0, 81, 67
2, 126348, Note_on_c, 0, 81, 0
2, 126360, Note_on_c, 0, 82, 67
2, 126408, Note_on_c, 0, 82, 0
2, 126420, Note_on_c, 0, 86, 67
2, 126468, Note_on_c, 0, 86, 0
2, 126480, Note_on_c, 0, 84, 66
2, 126528, Note_on_c, 0, 84, 0
2, 126540, Note_on_c, 0, 82, 66
2, 126588, Note_on_c, 0, 82, 0
2, 126600, Note_on_c, 0, 81, 65
2, 126648, Note_on_c, 0, 81, 0
2, 126660, Note_on_c, 0, 79, 65
2, 126708, Note_on_c, 0, 79, 0
2, 126720, Note_on_c, 0, 81, 64
2, 126768, Note_on_c, 0, 81, 0
2, 126780, Note_on_c, 0, 79, 64
2, 126828, Note_on_c, 0, 79, 0
2, 126840, Note_on_c, 0, 81, 64
2, 126888, Note_on_c, 0, 81, 0
2, 126900, Note_on_c, 0, 77, 65
2, 126948, Note_on_c, 0, 77, 0
2, 126960, Note_on_c, 0, 72, 65
2, 127008, Note_on_c, 0, 72, 0
2, 127020, Note_on_c, 0, 77, 65
2, 127068, Note_on_c, 0, 77, 0
2, 127080, Note_on_c, 0, 81, 66
2, 127128, Note_on_c, 0, 81, 0
2, 127140, Note_on_c, 0, 79, 66
2, 127188, Note_on_c, 0, 79, 0
2, 127200, Note_on_c, 0, 81, 66
2, 127248, Note_on_c, 0, 81, 0
2, 127260, Note_on_c, 0, 77, 67
2, 127308, Note_on_c, 0, 77, 0
2, 127320, Note_on_c, 0, 72, 67
2, 127368, Note_on_c, 0, 72, 0
2, 127380, Note_on_c, 0, 77, 67
2, 127428, Note_on_c, 0, 77, 0
2, 127440, Note_on_c, 0, 81, 68
2, 127488, Note_on_c, 0, 81, 0
2, 127500, Note_on_c, 0, 79, 68
2, 127548, Note_on_c, 0, 79, 0
2, 127560, Note_on_c, 0, 81, 68
2, 127608, Note_on_c, 0, 81, 0
2, 127620, Note_on_c, 0, 78, 69
2, 127668, Note_on_c, 0, 78, 0
2, 127680, Note_on_c, 0, 72, 69
2, 127728, Note_on_c, 0, 72, 0
2, 127740, Note_on_c, 0, 78, 69
2, 127788, Note_on_c, 0, 78, 0
2, 127800, Note_on_c, 0, 81, 70
2, 127848, Note_on_c, 0, 81, 0
2, 127860, Note_on_c, 0, 79, 70
2, 127908, Note_on_c, 0, 79, 0
2, 127920, Note_on_c, 0, 81, 70
2, 127968, Note_on_c, 0, 81, 0
2, 127980, Note_on_c, 0, 78, 71
2, 128028, Note_on_c, 0, 78, 0
2, 128040, Note_on_c, 0, 72, 71
2, 128088, Note_on_c, 0, 72, 0
2, 128100, Note_on_c, 0, 78, 71
2, 128148, Note_on_c, 0, 78, 0
2, 128160, Note_on_c, 0, 79, 72
2, 128352, Note_on_c, 0, 79, 0
2, 128400, Note_on_c, 0, 74, 67
2, 128496, Note_on_c, 0, 74, 0
2, 128520, Note_on_c, 0, 62, 64
2, 128712, Note_on_c, 0, 62, 0
2, 128760, Note_on_c, 0, 82, 65
2, 128850, Note_on_c, 0, 81, 65
2, 128856, Note_on_c, 0, 82, 0
2, 128880, Note_on_c, 0, 81, 0
2, 128880, Note_on_c, 0, 80, 65
2, 129072, Note_on_c, 0, 80, 0
2, 129120, Note_on_c, 0, 71, 66
2, 129216, Note_on_c, 0, 71, 0
2, 129240, Note_on_c, 0, 64, 67
2, 129432, Note_on_c, 0, 64, 0
2, 129480, Note_on_c, 0, 83, 68
2, 129576, Note_on_c, 0, 83, 0
2, 129600, Note_on_c, 0, 84, 68
2, 129648, Note_on_c, 0, 84, 0
2, 129660, Note_on_c, 0, 83, 67
2, 129708, Note_on_c, 0, 83, 0
2, 129720, Note_on_c, 0, 81, 65
2, 129768, Note_on_c, 0, 81, 0
2, 129780, Note_on_c, 0, 80, 64
2, 129828, Note_on_c, 0, 80, 0
2, 129840, Note_on_c, 0, 81, 62
2, 129936, Note_on_c, 0, 81, 0
2, 132480, Note_on_c, 0, 86, 83
2, 132936, Note_on_c, 0, 86, 0
2, 132960, Note_on_c, 0, 84, 87
2, 133056, Note_on_c, 0, 84, 0
2, 133080, Note_on_c, 0, 82, 88
2, 133176, Note_on_c, 0, 82, 0
2, 133200, Note_on_c, 0, 81, 89
2, 133656, Note_on_c, 0, 81, 0
2, 133680, Note_on_c, 0, 79, 85
2, 133776, Note_on_c, 0, 79, 0
2, 133800, Note_on_c, 0, 77, 83
2, 133896, Note_on_c, 0, 77, 0
2, 133920, Note_on_c, 0, 76, 82
2, 134016, Note_on_c, 0, 76, 0
2, 134040, Note_on_c, 0, 73, 81
2, 134136, Note_on_c, 0, 73, 0
2, 134160, Note_on_c, 0, 74, 80
2, 134256, Note_on_c, 0, 74, 0
2, 134280, Note_on_c, 0, 79, 78
2, 134736, Note_on_c, 0, 79, 0
2, 134760, Note_on_c, 0, 77, 76
2, 134856, Note_on_c, 0, 77, 0
2, 135000, Note_on_c, 0, 70, 71
2, 135096, Note_on_c, 0, 70, 0
2, 135120, Note_on_c, 0, 69, 70
2, 135216, Note_on_c, 0, 69, 0
2, 135240, Note_on_c, 0, 67, 69
2, 135336, Note_on_c, 0, 67, 0
2, 135360, Note_on_c, 0, 65, 68
2, 135408, Note_on_c, 0, 65, 0
2, 135420, Note_on_c, 0, 69, 68
2, 135468, Note_on_c, 0, 69, 0
2, 135480, Note_on_c, 0, 70, 67
2, 135528, Note_on_c, 0, 70, 0
2, 135540, Note_on_c, 0, 67, 66
2, 135588, Note_on_c, 0, 67, 0
2, 135600, Note_on_c, 0, 69, 65
2, 135696, Note_on_c, 0, 69, 0
2, 135720, Note_on_c, 0, 79, 64
2, 135816, Note_on_c, 0, 79, 0
2, 135840, Note_on_c, 0, 77, 62
2, 135936, Note_on_c, 0, 77, 0
2, 135960, Note_on_c, 0, 76, 60
2, 136056, Note_on_c, 0, 76, 0
2, 136080, Note_on_c, 0, 74, 59
2, 136272, Note_on_c, 0, 74, 0
2, 136560, Note_on_c, 0, 69, 61
2, 136848, Note_on_c, 0, 69, 0
2, 136860, Note_on_c, 0, 66, 59
2, 136908, Note_on_c, 0, 66, 0
2, 136920, Note_on_c, 0, 67, 60
2, 136968, Note_on_c, 0, 67, 0
2, 136980, Note_on_c, 0, 69, 61
2, 137028, Note_on_c, 0, 69, 0
2, 137040, Note_on_c, 0, 70, 63
2, 137088, Note_on_c, 0, 70, 0
2, 137100, Note_on_c, 0, 72, 64
2, 137148, Note_on_c, 0, 72, 0
2, 137160, Note_on_c, 0, 74, 65
2, 137208, Note_on_c, 0, 74, 0
2, 137220, Note_on_c, 0, 77, 66
2, 137268, Note_on_c, 0, 77, 0
2, 137280, Note_on_c, 0, 75, 65
2, 137328, Note_on_c, 0, 75, 0
2, 137340, Note_on_c, 0, 74, 65
2, 137388, Note_on_c, 0, 74, 0
2, 137400, Note_on_c, 0, 72, 64
2, 137448, Note_on_c, 0, 72, 0
2, 137460, Note_on_c, 0, 70, 63
2, 137508, Note_on_c, 0, 70, 0
2, 137520, Note_on_c, 0, 72, 62
2, 137712, Note_on_c, 0, 72, 0
2, 138000, Note_on_c, 0, 72, 59
2, 138336, Note_on_c, 0, 72, 0
2, 138360, Note_on_c, 0, 70, 65
2, 138408, Note_on_c, 0, 70, 0
2, 138420, Note_on_c, 0, 68, 68
2, 138468, Note_on_c, 0, 68, 0
2, 138480, Note_on_c, 0, 67, 67
2, 138528, Note_on_c, 0, 67, 0
2, 138540, Note_on_c, 0, 65, 66
2, 138588, Note_on_c, 0, 65, 0
2, 138600, Note_on_c, 0, 63, 65
2, 139020, Note_on_c, 0, 63, 0
2, 139020, Note_on_c, 0, 62, 66
2, 139068, Note_on_c, 0, 62, 0
2, 139080, Note_on_c, 0, 69, 67
2, 139176, Note_on_c, 0, 69, 0
2, 139200, Note_on_c, 0, 70, 67
2, 139296, Note_on_c, 0, 70, 0
2, 139320, Note_on_c, 0, 62, 67
2, 139728, Note_on_c, 0, 62, 0
2, 139740, Note_on_c, 0, 60, 59
2, 139788, Note_on_c, 0, 60, 0
2, 139800, Note_on_c, 0, 69, 58
2, 139896, Note_on_c, 0, 69, 0
2, 139920, Note_on_c, 0, 70, 60
2, 140016, Note_on_c, 0, 70, 0
2, 140040, Note_on_c, 0, 60, 61
2, 140496, Note_on_c, 0, 60, 0
2, 140520, Note_on_c, 0, 58, 65
2, 140616, Note_on_c, 0, 58, 0
2, 140640, Note_on_c, 0, 62, 65
2, 140736, Note_on_c, 0, 62, 0
2, 140760, Note_on_c, 0, 65, 65
2, 140856, Note_on_c, 0, 65, 0
2, 140880, Note_on_c, 0, 70, 65
2, 140976, Note_on_c, 0, 70, 0
2, 141000, Note_on_c, 0, 74, 64
2, 141096, Note_on_c, 0, 74, 0
2, 141120, Note_on_c, 0, 72, 64
2, 141132, Note_on_c, 0, 72, 0
2, 141134, Note_on_c, 0, 71, 64
2, 141356, Note_on_c, 0, 71, 0
2, 141360, Note_on_c, 0, 62, 60
2, 141456, Note_on_c, 0, 62, 0
2, 141480, Note_on_c, 0, 55, 59
2, 141672, Note_on_c, 0, 55, 0
2, 141720, Note_on_c, 0, 74, 61
2, 141816, Note_on_c, 0, 74, 0
2, 141840, Note_on_c, 0, 75, 59
2, 141888, Note_on_c, 0, 75, 0
2, 141900, Note_on_c, 0, 74, 59
2, 141948, Note_on_c, 0, 74, 0
2, 141960, Note_on_c, 0, 75, 59
2, 142008, Note_on_c, 0, 75, 0
2, 142020, Note_on_c, 0, 72, 60
2, 142068, Note_on_c, 0, 72, 0
2, 142080, Note_on_c, 0, 67, 60
2, 142128, Note_on_c, 0, 67, 0
2, 142140, Note_on_c, 0, 72, 60
2, 142188, Note_on_c, 0, 72, 0
2, 142200, Note_on_c, 0, 75, 61
2, 142248, Note_on_c, 0, 75, 0
2, 142260, Note_on_c, 0, 74, 61
2, 142308, Note_on_c, 0, 74, 0
2, 142320, Note_on_c, 0, 75, 62
2, 142368, Note_on_c, 0, 75, 0
2, 142380, Note_on_c, 0, 72, 62
2, 142428, Note_on_c, 0, 72, 0
2, 142440, Note_on_c, 0, 67, 62
2, 142488, Note_on_c, 0, 67, 0
2, 142500, Note_on_c, 0, 72, 63
2, 142548, Note_on_c, 0, 72, 0
2, 142560, Note_on_c, 0, 76, 63
2, 142608, Note_on_c, 0, 76, 0
2, 142620, Note_on_c, 0, 74, 63
2, 142668, Note_on_c, 0, 74, 0
2, 142680, Note_on_c, 0, 76, 64
2, 142728, Note_on_c, 0, 76, 0
2, 142740, Note_on_c, 0, 73, 64
2, 142788, Note_on_c, 0, 73, 0
2, 142800, Note_on_c, 0, 67, 65
2, 142848, Note_on_c, 0, 67, 0
2, 142860, Note_on_c, 0, 73, 65
2, 142908, Note_on_c, 0, 73, 0
2, 142920, Note_on_c, 0, 76, 65
2, 142968, Note_on_c, 0, 76, 0
2, 142980, Note_on_c, 0, 74, 66
2, 143028, Note_on_c, 0, 74, 0
2, 143040, Note_on_c, 0, 76, 66
2, 143088, Note_on_c, 0, 76, 0
2, 143100, Note_on_c, 0, 73, 67
2, 143148, Note_on_c, 0, 73, 0
2, 143160, Note_on_c, 0, 67, 67
2, 143208, Note_on_c, 0, 67, 0
2, 143220, Note_on_c, 0, 73, 67
2, 143268, Note_on_c, 0, 73, 0
2, 143280, Note_on_c, 0, 74, 68
2, 143376, Note_on_c, 0, 74, 0
2, 143400, Note_on_c, 0, 77, 68
2, 143496, Note_on_c, 0, 77, 0
2, 143520, Note_on_c, 0, 82, 69
2, 143700, Note_on_c, 0, 82, 0
2, 143700, Note_on_c, 0, 86, 70
2, 143748, Note_on_c, 0, 86, 0
2, 143760, Note_on_c, 0, 84, 71
2, 143808, Note_on_c, 0, 84, 0
2, 143820, Note_on_c, 0, 82, 71
2, 143868, Note_on_c, 0, 82, 0
2, 143880, Note_on_c, 0, 81, 71
2, 143928, Note_on_c, 0, 81, 0
2, 143940, Note_on_c, 0, 79, 72
2, 143988, Note_on_c, 0, 79, 0
2, 144000, Note_on_c, 0, 81, 72
2, 144048, Note_on_c, 0, 81, 0
2, 144060, Note_on_c, 0, 79, 73
2, 144108, Note_on_c, 0, 79, 0
2, 144120, Note_on_c, 0, 77, 71
2, 144168, Note_on_c, 0, 77, 0
2, 144180, Note_on_c, 0, 76, 69
2, 144228, Note_on_c, 0, 76, 0
2, 144240, Note_on_c, 0, 77, 67
2, 144336, Note_on_c, 0, 77, 0
2, 146880, Note_on_c, 0, 84, 59
2, 147336, Note_on_c, 0, 84, 0
2, 147360, Note_on_c, 0, 83, 64
2, 147456, Note_on_c, 0, 83, 0
2, 147480, Note_on_c, 0, 81, 65
2, 147576, Note_on_c, 0, 81, 0
2, 147600, Note_on_c, 0, 79, 67
2, 148056, Note_on_c, 0, 79, 0
2, 148080, Note_on_c, 0, 77, 67
2, 148176, Note_on_c, 0, 77, 0
2, 148200, Note_on_c, 0, 76, 67
2, 148296, Note_on_c, 0, 76, 0
2, 148320, Note_on_c, 0, 74, 66
2, 148416, Note_on_c, 0, 74, 0
2, 148440, Note_on_c, 0, 71, 66
2, 148536, Note_on_c, 0, 71, 0
2, 148560, Note_on_c, 0, 72, 65
2, 148656, Note_on_c, 0, 72, 0
2, 148680, Note_on_c, 0, 77, 65
2, 149136, Note_on_c, 0, 77, 0
2, 149160, Note_on_c, 0, 76, 67
2, 149256, Note_on_c, 0, 76, 0
2, 149280, Note_on_c, 0, 79, 67
2, 149376, Note_on_c, 0, 79, 0
2, 149400, Note_on_c, 0, 84, 68
2, 149592, Note_on_c, 0, 84, 0
2, 149640, Note_on_c, 0, 75, 67
2, 149856, Note_on_c, 0, 75, 0
2, 149880, Note_on_c, 0, 74, 65
2, 149976, Note_on_c, 0, 74, 0
2, 150000, Note_on_c, 0, 77, 64
2, 150096, Note_on_c, 0, 77, 0
2, 150120, Note_on_c, 0, 82, 63
2, 150312, Note_on_c, 0, 82, 0
2, 150360, Note_on_c, 0, 74, 63
2, 150576, Note_on_c, 0, 74, 0
2, 150600, Note_on_c, 0, 72, 64
2, 150696, Note_on_c, 0, 72, 0
2, 150720, Note_on_c, 0, 76, 64
2, 150816, Note_on_c, 0, 76, 0
2, 150840, Note_on_c, 0, 81, 65
2, 151032, Note_on_c, 0, 81, 0
2, 151080, Note_on_c, 0, 72, 66
2, 151296, Note_on_c, 0, 72, 0
2, 151320, Note_on_c, 0, 70, 62
2, 151416, Note_on_c, 0, 70, 0
2, 151440, Note_on_c, 0, 74, 61
2, 151536, Note_on_c, 0, 74, 0
2, 151560, Note_on_c, 0, 79, 61
2, 151752, Note_on_c, 0, 79, 0
2, 151800, Note_on_c, 0, 70, 59
2, 152016, Note_on_c, 0, 70, 0
2, 152040, Note_on_c, 0, 69, 57
2, 152136, Note_on_c, 0, 69, 0
2, 152280, Note_on_c, 0, 62, 55
2, 152376, Note_on_c, 0, 62, 0
2, 152400, Note_on_c, 0, 60, 54
2, 152496, Note_on_c, 0, 60, 0
2, 152520, Note_on_c, 0, 58, 53
2, 152616, Note_on_c, 0, 58, 0
2, 152640, Note_on_c, 0, 57, 53
2, 152688, Note_on_c, 0, 57, 0
2, 152700, Note_on_c, 0, 60, 52
2, 152748, Note_on_c, 0, 60, 0
2, 152760, Note_on_c, 0, 62, 52
2, 152808, Note_on_c, 0, 62, 0
2, 152820, Note_on_c, 0, 58, 51
2, 152868, Note_on_c, 0, 58, 0
2, 152880, Note_on_c, 0, 60, 51
2, 152976, Note_on_c, 0, 60, 0
2, 153000, Note_on_c, 0, 70, 50
2, 153096, Note_on_c, 0, 70, 0
2, 153120, Note_on_c, 0, 69, 49
2, 153216, Note_on_c, 0, 69, 0
2, 153240, Note_on_c, 0, 67, 48
2, 153336, Note_on_c, 0, 67, 0
2, 153360, Note_on_c, 0, 65, 47
2, 153456, Note_on_c, 0, 65, 0
2, 153480, Note_on_c, 0, 84, 46
2, 153768, Note_on_c, 0, 84, 0
2, 153780, Note_on_c, 0, 82, 43
2, 153828, Note_on_c, 0, 82, 0
2, 153840, Note_on_c, 0, 81, 44
2, 153888, Note_on_c, 0, 81, 0
2, 153900, Note_on_c, 0, 82, 44
2, 153948, Note_on_c, 0, 82, 0
2, 153960, Note_on_c, 0, 84, 45
2, 154008, Note_on_c, 0, 84, 0
2, 154020, Note_on_c, 0, 81, 46
2, 154068, Note_on_c, 0, 81, 0
2, 154080, Note_on_c, 0, 77, 47
2, 154128, Note_on_c, 0, 77, 0
2, 154140, Note_on_c, 0, 76, 48
2, 154188, Note_on_c, 0, 76, 0
2, 154200, Note_on_c, 0, 77, 49
2, 154248, Note_on_c, 0, 77, 0
2, 154260, Note_on_c, 0, 82, 50
2, 154308, Note_on_c, 0, 82, 0
2, 154320, Note_on_c, 0, 74, 51
2, 154368, Note_on_c, 0, 74, 0
2, 154380, Note_on_c, 0, 77, 52
2, 154428, Note_on_c, 0, 77, 0
2, 154440, Note_on_c, 0, 76, 53
2, 154488, Note_on_c, 0, 76, 0
2, 154500, Note_on_c, 0, 77, 54
2, 154548, Note_on_c, 0, 77, 0
2, 154560, Note_on_c, 0, 79, 54
2, 154608, Note_on_c, 0, 79, 0
2, 154620, Note_on_c, 0, 81, 55
2, 154668, Note_on_c, 0, 81, 0
2, 154680, Note_on_c, 0, 82, 56
2, 154728, Note_on_c, 0, 82, 0
2, 154740, Note_on_c, 0, 79, 57
2, 154788, Note_on_c, 0, 79, 0
2, 154800, Note_on_c, 0, 76, 58
2, 154848, Note_on_c, 0, 76, 0
2, 154860, Note_on_c, 0, 74, 59
2, 154908, Note_on_c, 0, 74, 0
2, 154920, Note_on_c, 0, 76, 60
2, 154968, Note_on_c, 0, 76, 0
2, 154980, Note_on_c, 0, 81, 61
2, 155028, Note_on_c, 0, 81, 0
2, 155040, Note_on_c, 0, 72, 62
2, 155088, Note_on_c, 0, 72, 0
2, 155100, Note_on_c, 0, 76, 63
2, 155148, Note_on_c, 0, 76, 0
2, 155160, Note_on_c, 0, 74, 64
2, 155208, Note_on_c, 0, 74, 0
2, 155220, Note_on_c, 0, 76, 64
2, 155268, Note_on_c, 0, 76, 0
2, 155280, Note_on_c, 0, 77, 65
2, 155328, Note_on_c, 0, 77, 0
2, 155340, Note_on_c, 0, 79, 66
2, 155388, Note_on_c, 0, 79, 0
2, 155400, Note_on_c, 0, 81, 67
2, 155448, Note_on_c, 0, 81, 0
2, 155460, Note_on_c, 0, 77, 68
2, 155508, Note_on_c, 0, 77, 0
2, 155520, Note_on_c, 0, 74, 69
2, 155568, Note_on_c, 0, 74, 0
2, 155580, Note_on_c, 0, 72, 70
2, 155628, Note_on_c, 0, 72, 0
2, 155640, Note_on_c, 0, 74, 71
2, 155688, Note_on_c, 0, 74, 0
2, 155700, Note_on_c, 0, 79, 72
2, 155748, Note_on_c, 0, 79, 0
2, 155760, Note_on_c, 0, 70, 73
2, 155808, Note_on_c, 0, 70, 0
2, 155820, Note_on_c, 0, 74, 74
2, 155868, Note_on_c, 0, 74, 0
2, 155880, Note_on_c, 0, 72, 75
2, 155928, Note_on_c, 0, 72, 0
2, 155940, Note_on_c, 0, 74, 75
2, 155988, Note_on_c, 0, 74, 0
2, 156000, Note_on_c, 0, 76, 76
2, 156048, Note_on_c, 0, 76, 0
2, 156060, Note_on_c, 0, 77, 77
2, 156108, Note_on_c, 0, 77, 0
2, 156120, Note_on_c, 0, 79, 78
2, 156168, Note_on_c, 0, 79, 0
2, 156180, Note_on_c, 0, 76, 79
2, 156228, Note_on_c, 0, 76, 0
2, 156240, Note_on_c, 0, 72, 80
2, 156288, Note_on_c, 0, 72, 0
2, 156300, Note_on_c, 0, 70, 81
2, 156348, Note_on_c, 0, 70, 0
2, 156360, Note_on_c, 0, 72, 82
2, 156408, Note_on_c, 0, 72, 0
2, 156420, Note_on_c, 0, 77, 83
2, 156468, Note_on_c, 0, 77, 0
2, 156480, Note_on_c, 0, 70, 84
2, 156576, Note_on_c, 0, 70, 0
2, 156600, Note_on_c, 0, 69, 85
2, 156696, Note_on_c, 0, 69, 0
2, 156720, Note_on_c, 0, 70, 87
2, 156816, Note_on_c, 0, 70, 0
2, 156840, Note_on_c, 0, 67, 89
2, 156936, Note_on_c, 0, 67, 0
2, 156960, Note_on_c, 0, 65, 91
2, 157248, Note_on_c, 0, 65, 0
2, 159000, Note_on_c, 0, 74, 98
2, 159048, Note_on_c, 0, 74, 0
2, 159060, Note_on_c, 0, 73, 98
2, 159108, Note_on_c, 0, 73, 0
2, 159120, Note_on_c, 0, 74, 98
2, 159168, Note_on_c, 0, 74, 0
2, 159180, Note_on_c, 0, 69, 98
2, 159228, Note_on_c, 0, 69, 0
2, 159240, Note_on_c, 0, 70, 98
2, 159288, Note_on_c, 0, 70, 0
2, 159300, Note_on_c, 0, 67, 98
2, 159348, Note_on_c, 0, 67, 0
2, 159360, Note_on_c, 0, 69, 98
2, 159408, Note_on_c, 0, 69, 0
2, 159420, Note_on_c, 0, 65, 98
2, 159468, Note_on_c, 0, 65, 0
2, 159480, Note_on_c, 0, 67, 99
2, 159528, Note_on_c, 0, 67, 0
2, 159540, Note_on_c, 0, 64, 99
2, 159588, Note_on_c, 0, 64, 0
2, 159600, Note_on_c, 0, 65, 99
2, 159648, Note_on_c, 0, 65, 0
2, 159660, Note_on_c, 0, 62, 99
2, 159708, Note_on_c, 0, 62, 0
2, 159720, Note_on_c, 0, 64, 99
2, 159768, Note_on_c, 0, 64, 0
2, 159780, Note_on_c, 0, 61, 99
2, 159828, Note_on_c, 0, 61, 0
2, 159840, Note_on_c, 0, 62, 99
2, 159936, Note_on_c, 0, 62, 0
2, 159960, Note_on_c, 0, 70, 99
2, 160056, Note_on_c, 0, 70, 0
2, 160080, Note_on_c, 0, 70, 100
2, 160176, Note_on_c, 0, 70, 0
2, 160200, Note_on_c, 0, 69, 100
2, 160380, Note_on_c, 0, 69, 0
2, 160380, Note_on_c, 0, 71, 100
2, 160428, Note_on_c, 0, 71, 0
2, 160440, Note_on_c, 0, 73, 100
2, 160488, Note_on_c, 0, 73, 0
2, 160500, Note_on_c, 0, 69, 100
2, 160548, Note_on_c, 0, 69, 0
2, 160560, Note_on_c, 0, 74, 101
2, 160608, Note_on_c, 0, 74, 0
2, 160620, Note_on_c, 0, 73, 101
2, 160668, Note_on_c, 0, 73, 0
2, 160680, Note_on_c, 0, 74, 101
2, 160860, Note_on_c, 0, 74, 0
2, 160860, Note_on_c, 0, 76, 101
2, 160908, Note_on_c, 0, 76, 0
2, 160920, Note_on_c, 0, 77, 101
2, 160968, Note_on_c, 0, 77, 0
2, 160980, Note_on_c, 0, 76, 101
2, 161028, Note_on_c, 0, 76, 0
2, 161040, Note_on_c, 0, 79, 102
2, 161088, Note_on_c, 0, 79, 0
2, 161100, Note_on_c, 0, 77, 102
2, 161148, Note_on_c, 0, 77, 0
2, 161160, Note_on_c, 0, 76, 102
2, 161208, Note_on_c, 0, 76, 0
2, 161220, Note_on_c, 0, 74, 102
2, 161268, Note_on_c, 0, 74, 0
2, 161280, Note_on_c, 0, 80, 102
2, 161328, Note_on_c, 0, 80, 0
2, 161340, Note_on_c, 0, 81, 102
2, 161388, Note_on_c, 0, 81, 0
2, 161400, Note_on_c, 0, 69, 102
2, 161496, Note_on_c, 0, 69, 0
2, 161880, Note_on_c, 0, 69, 77
2, 161928, Note_on_c, 0, 69, 0
2, 161940, Note_on_c, 0, 70, 77
2, 161988, Note_on_c, 0, 70, 0
2, 162000, Note_on_c, 0, 72, 77
2, 162096, Note_on_c, 0, 72, 0
2, 162120, Note_on_c, 0, 75, 80
2, 162312, Note_on_c, 0, 75, 0
2, 162360, Note_on_c, 0, 74, 82
2, 162456, Note_on_c, 0, 74, 0
2, 162480, Note_on_c, 0, 66, 82
2, 162576, Note_on_c, 0, 66, 0
2, 162600, Note_on_c, 0, 67, 83
2, 162696, Note_on_c, 0, 67, 0
2, 162720, Note_on_c, 0, 72, 84
2, 162768, Note_on_c, 0, 72, 0
2, 162780, Note_on_c, 0, 69, 84
2, 162828, Note_on_c, 0, 69, 0
2, 162840, Note_on_c, 0, 70, 85
2, 162936, Note_on_c, 0, 70, 0
2, 163320, Note_on_c, 0, 71, 88
2, 163368, Note_on_c, 0, 71, 0
2, 163380, Note_on_c, 0, 72, 89
2, 163428, Note_on_c, 0, 72, 0
2, 163440, Note_on_c, 0, 74, 89
2, 163536, Note_on_c, 0, 74, 0
2, 163560, Note_on_c, 0, 77, 90
2, 163752, Note_on_c, 0, 77, 0
2, 163800, Note_on_c, 0, 76, 91
2, 163896, Note_on_c, 0, 76, 0
2, 163920, Note_on_c, 0, 68, 92
2, 164016, Note_on_c, 0, 68, 0
2, 164040, Note_on_c, 0, 69, 93
2, 164136, Note_on_c, 0, 69, 0
2, 164160, Note_on_c, 0, 74, 94
2, 164208, Note_on_c, 0, 74, 0
2, 164220, Note_on_c, 0, 71, 94
2, 164268, Note_on_c, 0, 71, 0
2, 164280, Note_on_c, 0, 73, 95
2, 164376, Note_on_c, 0, 73, 0
2, 164760, Note_on_c, 0, 81, 98
2, 164808, Note_on_c, 0, 81, 0
2, 164820, Note_on_c, 0, 80, 98
2, 164868, Note_on_c, 0, 80, 0
2, 164880, Note_on_c, 0, 81, 99
2, 164928, Note_on_c, 0, 81, 0
2, 164940, Note_on_c, 0, 76, 99
2, 164988, Note_on_c, 0, 76, 0
2, 165000, Note_on_c, 0, 77, 99
2, 165048, Note_on_c, 0, 77, 0
2, 165060, Note_on_c, 0, 74, 99
2, 165108, Note_on_c, 0, 74, 0
2, 165120, Note_on_c, 0, 76, 99
2, 165168, Note_on_c, 0, 76, 0
2, 165180, Note_on_c, 0, 73, 99
2, 165228, Note_on_c, 0, 73, 0
2, 165240, Note_on_c, 0, 74, 100
2, 165288, Note_on_c, 0, 74, 0
2, 165300, Note_on_c, 0, 71, 100
2, 165348, Note_on_c, 0, 71, 0
2, 165360, Note_on_c, 0, 73, 100
2, 165408, Note_on_c, 0, 73, 0
2, 165420, Note_on_c, 0, 69, 100
2, 165468, Note_on_c, 0, 69, 0
2, 165480, Note_on_c, 0, 73, 100
2, 165528, Note_on_c, 0, 73, 0
2, 165540, Note_on_c, 0, 76, 100
2, 165588, Note_on_c, 0, 76, 0
2, 165600, Note_on_c, 0, 79, 101
2, 165648, Note_on_c, 0, 79, 0
2, 165660, Note_on_c, 0, 76, 101
2, 165708, Note_on_c, 0, 76, 0
2, 165720, Note_on_c, 0, 77, 101
2, 165768, Note_on_c, 0, 77, 0
2, 165780, Note_on_c, 0, 74, 101
2, 165828, Note_on_c, 0, 74, 0
2, 165840, Note_on_c, 0, 76, 101
2, 165888, Note_on_c, 0, 76, 0
2, 165900, Note_on_c, 0, 73, 101
2, 165948, Note_on_c, 0, 73, 0
2, 165960, Note_on_c, 0, 74, 102
2, 166008, Note_on_c, 0, 74, 0
2, 166020, Note_on_c, 0, 71, 102
2, 166068, Note_on_c, 0, 71, 0
2, 166080, Note_on_c, 0, 73, 102
2, 166128, Note_on_c, 0, 73, 0
2, 166140, Note_on_c, 0, 69, 102
2, 166188, Note_on_c, 0, 69, 0
2, 166200, Note_on_c, 0, 73, 102
2, 166248, Note_on_c, 0, 73, 0
2, 166260, Note_on_c, 0, 76, 102
2, 166308, Note_on_c, 0, 76, 0
2, 166320, Note_on_c, 0, 79, 103
2, 166352, Note_on_c, 0, 79, 0
2, 166360, Note_on_c, 0, 76, 103
2, 166392, Note_on_c, 0, 76, 0
2, 166400, Note_on_c, 0, 74, 103
2, 166432, Note_on_c, 0, 74, 0
2, 166440, Note_on_c, 0, 75, 103
2, 166600, Note_on_c, 0, 74, 103
2, 166620, Note_on_c, 0, 75, 0
2, 166632, Note_on_c, 0, 74, 0
2, 166640, Note_on_c, 0, 73, 103
2, 166672, Note_on_c, 0, 73, 0
2, 166680, Note_on_c, 0, 74, 104
2, 166860, Note_on_c, 0, 74, 0
2, 166860, Note_on_c, 0, 82, 104
2, 166908, Note_on_c, 0, 82, 0
2, 166920, Note_on_c, 0, 73, 104
2, 166968, Note_on_c, 0, 73, 0
2, 166980, Note_on_c, 0, 74, 104
2, 167028, Note_on_c, 0, 74, 0
2, 167040, Note_on_c, 0, 73, 105
2, 167088, Note_on_c, 0, 73, 0
2, 167100, Note_on_c, 0, 69, 105
2, 167148, Note_on_c, 0, 69, 0
2, 167160, Note_on_c, 0, 64, 105
2, 167208, Note_on_c, 0, 64, 0
2, 167220, Note_on_c, 0, 61, 105
2, 167268, Note_on_c, 0, 61, 0
2, 167280, Note_on_c, 0, 57, 105
2, 167376, Note_on_c, 0, 57, 0
2, 167400, Note_on_c, 0, 64, 106
2, 167432, Note_on_c, 0, 64, 0
2, 167440, Note_on_c, 0, 65, 106
2, 167472, Note_on_c, 0, 65, 0
2, 167480, Note_on_c, 0, 67, 106
2, 167512, Note_on_c, 0, 67, 0
2, 167520, Note_on_c, 0, 67, 106
2, 167552, Note_on_c, 0, 67, 0
2, 167560, Note_on_c, 0, 69, 106
2, 167592, Note_on_c, 0, 69, 0
2, 167600, Note_on_c, 0, 71, 106
2, 167632, Note_on_c, 0, 71, 0
2, 167640, Note_on_c, 0, 71, 106
2, 167672, Note_on_c, 0, 71, 0
2, 167680, Note_on_c, 0, 73, 106
2, 167712, Note_on_c, 0, 73, 0
2, 167720, Note_on_c, 0, 74, 106
2, 167752, Note_on_c, 0, 74, 0
2, 167760, Note_on_c, 0, 74, 107
2, 167808, Note_on_c, 0, 74, 0
2, 167820, Note_on_c, 0, 69, 106
2, 167868, Note_on_c, 0, 69, 0
2, 167880, Note_on_c, 0, 65, 105
2, 167928, Note_on_c, 0, 65, 0
2, 167940, Note_on_c, 0, 62, 104
2, 167988, Note_on_c, 0, 62, 0
2, 168000, Note_on_c, 0, 57, 102
2, 168096, Note_on_c, 0, 57, 0
2, 168120, Note_on_c, 0, 65, 97
2, 168152, Note_on_c, 0, 65, 0
2, 168160, Note_on_c, 0, 67, 98
2, 168192, Note_on_c, 0, 67, 0
2, 168200, Note_on_c, 0, 69, 99
2, 168232, Note_on_c, 0, 69, 0
2, 168240, Note_on_c, 0, 69, 99
2, 168272, Note_on_c, 0, 69, 0
2, 168280, Note_on_c, 0, 71, 100
2, 168312, Note_on_c, 0, 71, 0
2, 168320, Note_on_c, 0, 73, 101
2, 168352, Note_on_c, 0, 73, 0
2, 168360, Note_on_c, 0, 73, 102
2, 168392, Note_on_c, 0, 73, 0
2, 168400, Note_on_c, 0, 74, 103
2, 168432, Note_on_c, 0, 74, 0
2, 168440, Note_on_c, 0, 76, 104
2, 168472, Note_on_c, 0, 76, 0
2, 168480, Note_on_c, 0, 76, 105
2, 168528, Note_on_c, 0, 76, 0
2, 168540, Note_on_c, 0, 73, 104
2, 168588, Note_on_c, 0, 73, 0
2, 168600, Note_on_c, 0, 67, 102
2, 168648, Note_on_c, 0, 67, 0
2, 168660, Note_on_c, 0, 64, 100
2, 168708, Note_on_c, 0, 64, 0
2, 168720, Note_on_c, 0, 57, 98
2, 168816, Note_on_c, 0, 57, 0
2, 168840, Note_on_c, 0, 69, 98
2, 168872, Note_on_c, 0, 69, 0
2, 168880, Note_on_c, 0, 71, 98
2, 168912, Note_on_c, 0, 71, 0
2, 168920, Note_on_c, 0, 73, 98
2, 168952, Note_on_c, 0, 73, 0
2, 168960, Note_on_c, 0, 73, 99
2, 168992, Note_on_c, 0, 73, 0
2, 169000, Note_on_c, 0, 74, 99
2, 169032, Note_on_c, 0, 74, 0
2, 169040, Note_on_c, 0, 76, 99
2, 169072, Note_on_c, 0, 76, 0
2, 169080, Note_on_c, 0, 76, 100
2, 169112, Note_on_c, 0, 76, 0
2, 169120, Note_on_c, 0, 77, 100
2, 169152, Note_on_c, 0, 77, 0
2, 169160, Note_on_c, 0, 79, 100
2, 169192, Note_on_c, 0, 79, 0
2, 169200, Note_on_c, 0, 77, 101
2, 169248, Note_on_c, 0, 77, 0
2, 169260, Note_on_c, 0, 74, 101
2, 169308, Note_on_c, 0, 74, 0
2, 169320, Note_on_c, 0, 73, 102
2, 169368, Note_on_c, 0, 73, 0
2, 169380, Note_on_c, 0, 74, 102
2, 169428, Note_on_c, 0, 74, 0
2, 169440, Note_on_c, 0, 75, 103
2, 169488, Note_on_c, 0, 75, 0
2, 169500, Note_on_c, 0, 74, 103
2, 169548, Note_on_c, 0, 74, 0
2, 169560, Note_on_c, 0, 73, 104
2, 169608, Note_on_c, 0, 73, 0
2, 169620, Note_on_c, 0, 74, 104
2, 169668, Note_on_c, 0, 74, 0
2, 169680, Note_on_c, 0, 70, 104
2, 169712, Note_on_c, 0, 70, 0
2, 169720, Note_on_c, 0, 73, 105
2, 169752, Note_on_c, 0, 73, 0
2, 169760, Note_on_c, 0, 74, 105
2, 169792, Note_on_c, 0, 74, 0
2, 169800, Note_on_c, 0, 67, 105
2, 169832, Note_on_c, 0, 67, 0
2, 169840, Note_on_c, 0, 73, 106
2, 169872, Note_on_c, 0, 73, 0
2, 169880, Note_on_c, 0, 74, 106
2, 169912, Note_on_c, 0, 74, 0
2, 169920, Note_on_c, 0, 69, 106
2, 169968, Note_on_c, 0, 69, 0
2, 169980, Note_on_c, 0, 74, 107
2, 170028, Note_on_c, 0, 74, 0
2, 170040, Note_on_c, 0, 73, 107
2, 170088, Note_on_c, 0, 73, 0
2, 170100, Note_on_c, 0, 74, 108
2, 170148, Note_on_c, 0, 74, 0
2, 170160, Note_on_c, 0, 77, 108
2, 170208, Note_on_c, 0, 77, 0
2, 170220, Note_on_c, 0, 74, 109
2, 170268, Note_on_c, 0, 74, 0
2, 170280, Note_on_c, 0, 73, 109
2, 170328, Note_on_c, 0, 73, 0
2, 170340, Note_on_c, 0, 74, 110
2, 170388, Note_on_c, 0, 74, 0
2, 170400, Note_on_c, 0, 69, 110
2, 170432, Note_on_c, 0, 69, 0
2, 170440, Note_on_c, 0, 73, 111
2, 170472, Note_on_c, 0, 73, 0
2, 170480, Note_on_c, 0, 74, 111
2, 170512, Note_on_c, 0, 74, 0
2, 170520, Note_on_c, 0, 65, 111
2, 170552, Note_on_c, 0, 65, 0
2, 170560, Note_on_c, 0, 73, 111
2, 170592, Note_on_c, 0, 73, 0
2, 170600, Note_on_c, 0, 74, 112
2, 170632, Note_on_c, 0, 74, 0
2, 170640, Note_on_c, 0, 67, 112
2, 170688, Note_on_c, 0, 67, 0
2, 170700, Note_on_c, 0, 74, 113
2, 170748, Note_on_c, 0, 74, 0
2, 170760, Note_on_c, 0, 73, 113
2, 170808, Note_on_c, 0, 73, 0
2, 170820, Note_on_c, 0, 74, 114
2, 170868, Note_on_c, 0, 74, 0
2, 170880, Note_on_c, 0, 82, 114
2, 170928, Note_on_c, 0, 82, 0
2, 170940, Note_on_c, 0, 74, 114
2, 170988, Note_on_c, 0, 74, 0
2, 171000, Note_on_c, 0, 73, 115
2, 171048, Note_on_c, 0, 73, 0
2, 171060, Note_on_c, 0, 74, 115
2, 171108, Note_on_c, 0, 74, 0
2, 171120, Note_on_c, 0, 67, 116
2, 171152, Note_on_c, 0, 67, 0
2, 171160, Note_on_c, 0, 73, 116
2, 171192, Note_on_c, 0, 73, 0
2, 171200, Note_on_c, 0, 74, 117
2, 171232, Note_on_c, 0, 74, 0
2, 171240, Note_on_c, 0, 64, 117
2, 171272, Note_on_c, 0, 64, 0
2, 171280, Note_on_c, 0, 73, 117
2, 171312, Note_on_c, 0, 73, 0
2, 171320, Note_on_c, 0, 74, 118
2, 171352, Note_on_c, 0, 74, 0
2, 171360, Note_on_c, 0, 65, 116
2, 171456, Note_on_c, 0, 65, 0
2, 171480, Note_on_c, 0, 69, 117
2, 171576, Note_on_c, 0, 69, 0
2, 171600, Note_on_c, 0, 74, 117
2, 171696, Note_on_c, 0, 74, 0
2, 171720, Note_on_c, 0, 77, 117
2, 171810, Note_on_c, 0, 81, 117
2, 171816, Note_on_c, 0, 77, 0
2, 171840, Note_on_c, 0, 81, 0
2, 171840, Note_on_c, 0, 80, 117
2, 171984, Note_on_c, 0, 80, 0
2, 172020, Note_on_c, 0, 78, 117
2, 172044, Note_on_c, 0, 78, 0
2, 172050, Note_on_c, 0, 80, 117
2, 172074, Note_on_c, 0, 80, 0
2, 172080, Note_on_c, 0, 81, 117
2, 172176, Note_on_c, 0, 81, 0
2, 172200, Note_on_c, 0, 76, 117
2, 172296, Note_on_c, 0, 76, 0
2, 172320, Note_on_c, 0, 77, 117
2, 172416, Note_on_c, 0, 77, 0
2, 172440, Note_on_c, 0, 74, 118
2, 172536, Note_on_c, 0, 74, 0
2, 172560, Note_on_c, 0, 69, 118
2, 172656, Note_on_c, 0, 69, 0
2, 172680, Note_on_c, 0, 73, 118
2, 172776, Note_on_c, 0, 73, 0
2, 172800, Note_on_c, 0, 74, 117
2, 172848, Note_on_c, 0, 74, 0
2, 172860, Note_on_c, 0, 69, 116
2, 172908, Note_on_c, 0, 69, 0
2, 172920, Note_on_c, 0, 70, 115
2, 172968, Note_on_c, 0, 70, 0
2, 172980, Note_on_c, 0, 67, 114
2, 173028, Note_on_c, 0, 67, 0
2, 173040, Note_on_c, 0, 69, 112
2, 173088, Note_on_c, 0, 69, 0
2, 173100, Note_on_c, 0, 65, 111
2, 173148, Note_on_c, 0, 65, 0
2, 173160, Note_on_c, 0, 67, 110
2, 173208, Note_on_c, 0, 67, 0
2, 173220, Note_on_c, 0, 64, 109
2, 173268, Note_on_c, 0, 64, 0
2, 173280, Note_on_c, 0, 65, 107
2, 173328, Note_on_c, 0, 65, 0
2, 173340, Note_on_c, 0, 62, 106
2, 173388, Note_on_c, 0, 62, 0
2, 173400, Note_on_c, 0, 64, 105
2, 173448, Note_on_c, 0, 64, 0
2, 173460, Note_on_c, 0, 61, 104
2, 173508, Note_on_c, 0, 61, 0
2, 173520, Note_on_c, 0, 62, 97
2, 173616, Note_on_c, 0, 62, 0
2, 173640, Note_on_c, 0, 69, 95
2, 173688, Note_on_c, 0, 69, 0
2, 173700, Note_on_c, 0, 67, 93
2, 173748, Note_on_c, 0, 67, 0
2, 173760, Note_on_c, 0, 69, 92
2, 173856, Note_on_c, 0, 69, 0
2, 173880, Note_on_c, 0, 77, 90
2, 173976, Note_on_c, 0, 77, 0
2, 174000, Note_on_c, 0, 73, 90
2, 174096, Note_on_c, 0, 73, 0
2, 174120, Note_on_c, 0, 74, 93
2, 174216, Note_on_c, 0, 74, 0
2, 174360, Note_on_c, 0, 67, 89
2, 174408, Note_on_c, 0, 67, 0
2, 174420, Note_on_c, 0, 65, 88
2, 174468, Note_on_c, 0, 65, 0
2, 174480, Note_on_c, 0, 67, 86
2, 174576, Note_on_c, 0, 67, 0
2, 174600, Note_on_c, 0, 76, 87
2, 174780, Note_on_c, 0, 76, 0
2, 174780, Note_on_c, 0, 74, 87
2, 174828, Note_on_c, 0, 74, 0
2, 174840, Note_on_c, 0, 73, 87
2, 174888, Note_on_c, 0, 73, 0
2, 174900, Note_on_c, 0, 74, 87
2, 174948, Note_on_c, 0, 74, 0
2, 174960, Note_on_c, 0, 76, 87
2, 175008, Note_on_c, 0, 76, 0
2, 175020, Note_on_c, 0, 74, 86
2, 175068, Note_on_c, 0, 74, 0
2, 175080, Note_on_c, 0, 73, 86
2, 175128, Note_on_c, 0, 73, 0
2, 175140, Note_on_c, 0, 71, 86
2, 175188, Note_on_c, 0, 71, 0
2, 175200, Note_on_c, 0, 69, 83
2, 175248, Note_on_c, 0, 69, 0
2, 175260, Note_on_c, 0, 67, 82
2, 175308, Note_on_c, 0, 67, 0
2, 175320, Note_on_c, 0, 70, 82
2, 175560, Note_on_c, 0, 70, 0
2, 175560, Note_on_c, 0, 69, 79
2, 175728, Note_on_c, 0, 69, 0
2, 175740, Note_on_c, 0, 67, 79
2, 175788, Note_on_c, 0, 67, 0
2, 175800, Note_on_c, 0, 65, 79
2, 175848, Note_on_c, 0, 65, 0
2, 175860, Note_on_c, 0, 64, 79
2, 175908, Note_on_c, 0, 64, 0
2, 175920, Note_on_c, 0, 65, 79
2, 175968, Note_on_c, 0, 65, 0
2, 175980, Note_on_c, 0, 62, 79
2, 176028, Note_on_c, 0, 62, 0
2, 176040, Note_on_c, 0, 64, 79
2, 176088, Note_on_c, 0, 64, 0
2, 176100, Note_on_c, 0, 61, 79
2, 176148, Note_on_c, 0, 61, 0
2, 176160, Note_on_c, 0, 62, 79
2, 176208, Note_on_c, 0, 62, 0
2, 176220, Note_on_c, 0, 57, 79
2, 176268, Note_on_c, 0, 57, 0
2, 176280, Note_on_c, 0, 62, 79
2, 176328, Note_on_c, 0, 62, 0
2, 176340, Note_on_c, 0, 61, 79
2, 176388, Note_on_c, 0, 61, 0
2, 176400, Note_on_c, 0, 62, 79
2, 176448, Note_on_c, 0, 62, 0
2, 176460, Note_on_c, 0, 57, 79
2, 176508, Note_on_c, 0, 57, 0
2, 176520, Note_on_c, 0, 65, 79
2, 176568, Note_on_c, 0, 65, 0
2, 176580, Note_on_c, 0, 64, 79
2, 176628, Note_on_c, 0, 64, 0
2, 176640, Note_on_c, 0, 65, 79
2, 176688, Note_on_c, 0, 65, 0
2, 176700, Note_on_c, 0, 62, 79
2, 176748, Note_on_c, 0, 62, 0
2, 176760, Note_on_c, 0, 69, 79
2, 176808, Note_on_c, 0, 69, 0
2, 176820, Note_on_c, 0, 65, 79
2, 176868, Note_on_c, 0, 65, 0
2, 176880, Note_on_c, 0, 67, 79
2, 176928, Note_on_c, 0, 67, 0
2, 176940, Note_on_c, 0, 64, 79
2, 176988, Note_on_c, 0, 64, 0
2, 177000, Note_on_c, 0, 65, 79
2, 177048, Note_on_c, 0, 65, 0
2, 177060, Note_on_c, 0, 62, 79
2, 177108, Note_on_c, 0, 62, 0
2, 177120, Note_on_c, 0, 61, 79
2, 177168, Note_on_c, 0, 61, 0
2, 177180, Note_on_c, 0, 69, 79
2, 177228, Note_on_c, 0, 69, 0
2, 177240, Note_on_c, 0, 76, 79
2, 177288, Note_on_c, 0, 76, 0
2, 177300, Note_on_c, 0, 74, 79
2, 177348, Note_on_c, 0, 74, 0
2, 177360, Note_on_c, 0, 76, 79
2, 177408, Note_on_c, 0, 76, 0
2, 177420, Note_on_c, 0, 69, 79
2, 177468, Note_on_c, 0, 69, 0
2, 177480, Note_on_c, 0, 79, 79
2, 177528, Note_on_c, 0, 79, 0
2, 177540, Note_on_c, 0, 77, 79
2, 177588, Note_on_c, 0, 77, 0
2, 177600, Note_on_c, 0, 79, 79
2, 177648, Note_on_c, 0, 79, 0
2, 177660, Note_on_c, 0, 76, 79
2, 177708, Note_on_c, 0, 76, 0
2, 177720, Note_on_c, 0, 81, 79
2, 177768, Note_on_c, 0, 81, 0
2, 177780, Note_on_c, 0, 77, 79
2, 177828, Note_on_c, 0, 77, 0
2, 177840, Note_on_c, 0, 79, 79
2, 177936, Note_on_c, 0, 79, 0
2, 177960, Note_on_c, 0, 69, 79
2, 178140, Note_on_c, 0, 69, 0
2, 178140, Note_on_c, 0, 71, 79
2, 178188, Note_on_c, 0, 71, 0
2, 178200, Note_on_c, 0, 73, 79
2, 178248, Note_on_c, 0, 73, 0
2, 178260, Note_on_c, 0, 74, 79
2, 178308, Note_on_c, 0, 74, 0
2, 178320, Note_on_c, 0, 76, 79
2, 178368, Note_on_c, 0, 76, 0
2, 178380, Note_on_c, 0, 77, 79
2, 178428, Note_on_c, 0, 77, 0
2, 178440, Note_on_c, 0, 79, 79
2, 178488, Note_on_c, 0, 79, 0
2, 178500, Note_on_c, 0, 76, 79
2, 178548, Note_on_c, 0, 76, 0
2, 178560, Note_on_c, 0, 77, 79
2, 178608, Note_on_c, 0, 77, 0
2, 178620, Note_on_c, 0, 82, 79
2, 178668, Note_on_c, 0, 82, 0
2, 178680, Note_on_c, 0, 81, 79
2, 178728, Note_on_c, 0, 81, 0
2, 178740, Note_on_c, 0, 79, 79
2, 178788, Note_on_c, 0, 79, 0
2, 178800, Note_on_c, 0, 81, 79
2, 178848, Note_on_c, 0, 81, 0
2, 178860, Note_on_c, 0, 77, 79
2, 178908, Note_on_c, 0, 77, 0
2, 178920, Note_on_c, 0, 79, 79
2, 178968, Note_on_c, 0, 79, 0
2, 178980, Note_on_c, 0, 76, 79
2, 179028, Note_on_c, 0, 76, 0
2, 179040, Note_on_c, 0, 77, 79
2, 179088, Note_on_c, 0, 77, 0
2, 179100, Note_on_c, 0, 81, 79
2, 179148, Note_on_c, 0, 81, 0
2, 179160, Note_on_c, 0, 77, 79
2, 179208, Note_on_c, 0, 77, 0
2, 179220, Note_on_c, 0, 76, 79
2, 179268, Note_on_c, 0, 76, 0
2, 179280, Note_on_c, 0, 77, 79
2, 179328, Note_on_c, 0, 77, 0
2, 179340, Note_on_c, 0, 81, 79
2, 179388, Note_on_c, 0, 81, 0
2, 179400, Note_on_c, 0, 74, 79
2, 179448, Note_on_c, 0, 74, 0
2, 179460, Note_on_c, 0, 73, 79
2, 179508, Note_on_c, 0, 73, 0
2, 179520, Note_on_c, 0, 74, 79
2, 179568, Note_on_c, 0, 74, 0
2, 179580, Note_on_c, 0, 81, 79
2, 179628, Note_on_c, 0, 81, 0
2, 179640, Note_on_c, 0, 72, 79
2, 179688, Note_on_c, 0, 72, 0
2, 179700, Note_on_c, 0, 70, 79
2, 179748, Note_on_c, 0, 70, 0
2, 179760, Note_on_c, 0, 72, 79
2, 179808, Note_on_c, 0, 72, 0
2, 179820, Note_on_c, 0, 81, 79
2, 179868, Note_on_c, 0, 81, 0
2, 179880, Note_on_c, 0, 70, 79
2, 179928, Note_on_c, 0, 70, 0
2, 179940, Note_on_c, 0, 69, 79
2, 179988, Note_on_c, 0, 69, 0
2, 180000, Note_on_c, 0, 67, 76
2, 180048, Note_on_c, 0, 67, 0
2, 180060, Note_on_c, 0, 62, 77
2, 180108, Note_on_c, 0, 62, 0
2, 180120, Note_on_c, 0, 70, 78
2, 180168, Note_on_c, 0, 70, 0
2, 180180, Note_on_c, 0, 69, 79
2, 180228, Note_on_c, 0, 69, 0
2, 180240, Note_on_c, 0, 71, 80
2, 180288, Note_on_c, 0, 71, 0
2, 180300, Note_on_c, 0, 67, 81
2, 180348, Note_on_c, 0, 67, 0
2, 180360, Note_on_c, 0, 74, 82
2, 180408, Note_on_c, 0, 74, 0
2, 180420, Note_on_c, 0, 72, 83
2, 180468, Note_on_c, 0, 72, 0
2, 180480, Note_on_c, 0, 74, 84
2, 180528, Note_on_c, 0, 74, 0
2, 180540, Note_on_c, 0, 67, 85
2, 180588, Note_on_c, 0, 67, 0
2, 180600, Note_on_c, 0, 72, 86
2, 180648, Note_on_c, 0, 72, 0
2, 180660, Note_on_c, 0, 74, 87
2, 180708, Note_on_c, 0, 74, 0
2, 180720, Note_on_c, 0, 76, 88
2, 180768, Note_on_c, 0, 76, 0
2, 180780, Note_on_c, 0, 79, 89
2, 180828, Note_on_c, 0, 79, 0
2, 180840, Note_on_c, 0, 72, 88
2, 180888, Note_on_c, 0, 72, 0
2, 180900, Note_on_c, 0, 71, 87
2, 180948, Note_on_c, 0, 71, 0
2, 180960, Note_on_c, 0, 72, 87
2, 181008, Note_on_c, 0, 72, 0
2, 181020, Note_on_c, 0, 79, 86
2, 181068, Note_on_c, 0, 79, 0
2, 181080, Note_on_c, 0, 70, 85
2, 181128, Note_on_c, 0, 70, 0
2, 181140, Note_on_c, 0, 69, 84
2, 181188, Note_on_c, 0, 69, 0
2, 181200, Note_on_c, 0, 70, 83
2, 181248, Note_on_c, 0, 70, 0
2, 181260, Note_on_c, 0, 79, 82
2, 181308, Note_on_c, 0, 79, 0
2, 181320, Note_on_c, 0, 69, 81
2, 181368, Note_on_c, 0, 69, 0
2, 181380, Note_on_c, 0, 67, 81
2, 181428, Note_on_c, 0, 67, 0
2, 181440, Note_on_c, 0, 65, 80
2, 181488, Note_on_c, 0, 65, 0
2, 181500, Note_on_c, 0, 60, 79
2, 181548, Note_on_c, 0, 60, 0
2, 181560, Note_on_c, 0, 69, 80
2, 181608, Note_on_c, 0, 69, 0
2, 181620, Note_on_c, 0, 67, 81
2, 181668, Note_on_c, 0, 67, 0
2, 181680, Note_on_c, 0, 69, 82
2, 181728, Note_on_c, 0, 69, 0
2, 181740, Note_on_c, 0, 65, 83
2, 181788, Note_on_c, 0, 65, 0
2, 181800, Note_on_c, 0, 72, 84
2, 181848, Note_on_c, 0, 72, 0
2, 181860, Note_on_c, 0, 70, 84
2, 181908, Note_on_c, 0, 70, 0
2, 181920, Note_on_c, 0, 72, 85
2, 181968, Note_on_c, 0, 72, 0
2, 181980, Note_on_c, 0, 65, 86
2, 182028, Note_on_c, 0, 65, 0
2, 182040, Note_on_c, 0, 70, 87
2, 182088, Note_on_c, 0, 70, 0
2, 182100, Note_on_c, 0, 72, 88
2, 182148, Note_on_c, 0, 72, 0
2, 182160, Note_on_c, 0, 74, 89
2, 182208, Note_on_c, 0, 74, 0
2, 182220, Note_on_c, 0, 65, 87
2, 182268, Note_on_c, 0, 65, 0
2, 182280, Note_on_c, 0, 70, 87
2, 182328, Note_on_c, 0, 70, 0
2, 182340, Note_on_c, 0, 74, 87
2, 182388, Note_on_c, 0, 74, 0
2, 182400, Note_on_c, 0, 67, 88
2, 182496, Note_on_c, 0, 67, 0
2, 182520, Note_on_c, 0, 79, 89
2, 182700, Note_on_c, 0, 79, 0
2, 182700, Note_on_c, 0, 76, 90
2, 182748, Note_on_c, 0, 76, 0
2, 182760, Note_on_c, 0, 77, 90
2, 182808, Note_on_c, 0, 77, 0
2, 182820, Note_on_c, 0, 74, 90
2, 182868, Note_on_c, 0, 74, 0
2, 182880, Note_on_c, 0, 76, 91
2, 182928, Note_on_c, 0, 76, 0
2, 182940, Note_on_c, 0, 67, 91
2, 182988, Note_on_c, 0, 67, 0
2, 183000, Note_on_c, 0, 72, 91
2, 183048, Note_on_c, 0, 72, 0
2, 183060, Note_on_c, 0, 76, 92
2, 183108, Note_on_c, 0, 76, 0
2, 183120, Note_on_c, 0, 69, 92
2, 183216, Note_on_c, 0, 69, 0
2, 183240, Note_on_c, 0, 81, 93
2, 183420, Note_on_c, 0, 81, 0
2, 183420, Note_on_c, 0, 77, 94
2, 183468, Note_on_c, 0, 77, 0
2, 183480, Note_on_c, 0, 79, 94
2, 183528, Note_on_c, 0, 79, 0
2, 183540, Note_on_c, 0, 76, 95
2, 183588, Note_on_c, 0, 76, 0
2, 183600, Note_on_c, 0, 77, 95
2, 183648, Note_on_c, 0, 77, 0
2, 183660, Note_on_c, 0, 69, 95
2, 183708, Note_on_c, 0, 69, 0
2, 183720, Note_on_c, 0, 74, 96
2, 183768, Note_on_c, 0, 74, 0
2, 183780, Note_on_c, 0, 77, 96
2, 183828, Note_on_c, 0, 77, 0
2, 183840, Note_on_c, 0, 70, 96
2, 183936, Note_on_c, 0, 70, 0
2, 183960, Note_on_c, 0, 82, 97
2, 184140, Note_on_c, 0, 82, 0
2, 184140, Note_on_c, 0, 79, 98
2, 184188, Note_on_c, 0, 79, 0
2, 184200, Note_on_c, 0, 81, 99
2, 184248, Note_on_c, 0, 81, 0
2, 184260, Note_on_c, 0, 77, 99
2, 184308, Note_on_c, 0, 77, 0
2, 184320, Note_on_c, 0, 79, 99
2, 184368, Note_on_c, 0, 79, 0
2, 184380, Note_on_c, 0, 72, 100
2, 184428, Note_on_c, 0, 72, 0
2, 184440, Note_on_c, 0, 76, 100
2, 184488, Note_on_c, 0, 76, 0
2, 184500, Note_on_c, 0, 79, 100
2, 184548, Note_on_c, 0, 79, 0
2, 184560, Note_on_c, 0, 72, 101
2, 184656, Note_on_c, 0, 72, 0
2, 184680, Note_on_c, 0, 84, 101
2, 184860, Note_on_c, 0, 84, 0
2, 184860, Note_on_c, 0, 81, 102
2, 184908, Note_on_c, 0, 81, 0
2, 184920, Note_on_c, 0, 82, 103
2, 184968, Note_on_c, 0, 82, 0
2, 184980, Note_on_c, 0, 79, 103
2, 185028, Note_on_c, 0, 79, 0
2, 185040, Note_on_c, 0, 81, 104
2, 185088, Note_on_c, 0, 81, 0
2, 185100, Note_on_c, 0, 72, 104
2, 185148, Note_on_c, 0, 72, 0
2, 185160, Note_on_c, 0, 74, 104
2, 185208, Note_on_c, 0, 74, 0
2, 185220, Note_on_c, 0, 70, 104
2, 185268, Note_on_c, 0, 70, 0
2, 185280, Note_on_c, 0, 72, 104
2, 185328, Note_on_c, 0, 72, 0
2, 185340, Note_on_c, 0, 69, 104
2, 185388, Note_on_c, 0, 69, 0
2, 185400, Note_on_c, 0, 70, 104
2, 185448, Note_on_c, 0, 70, 0
2, 185460, Note_on_c, 0, 67, 104
2, 185508, Note_on_c, 0, 67, 0
2, 185520, Note_on_c, 0, 69, 104
2, 185568, Note_on_c, 0, 69, 0
2, 185580, Note_on_c, 0, 65, 104
2, 185628, Note_on_c, 0, 65, 0
2, 185640, Note_on_c, 0, 67, 104
2, 185688, Note_on_c, 0, 67, 0
2, 185700, Note_on_c, 0, 64, 104
2, 185748, Note_on_c, 0, 64, 0
2, 185760, Note_on_c, 0, 65, 104
2, 185856, Note_on_c, 0, 65, 0
2, 185880, Note_on_c, 0, 74, 104
2, 185976, Note_on_c, 0, 74, 0
2, 186000, Note_on_c, 0, 74, 104
2, 186096, Note_on_c, 0, 74, 0
2, 186120, Note_on_c, 0, 72, 104
2, 186300, Note_on_c, 0, 72, 0
2, 186300, Note_on_c, 0, 74, 104
2, 186348, Note_on_c, 0, 74, 0
2, 186360, Note_on_c, 0, 76, 104
2, 186408, Note_on_c, 0, 76, 0
2, 186420, Note_on_c, 0, 72, 104
2, 186468, Note_on_c, 0, 72, 0
2, 186480, Note_on_c, 0, 77, 104
2, 186528, Note_on_c, 0, 77, 0
2, 186540, Note_on_c, 0, 76, 104
2, 186588, Note_on_c, 0, 76, 0
2, 186600, Note_on_c, 0, 77, 104
2, 186780, Note_on_c, 0, 77, 0
2, 186780, Note_on_c, 0, 79, 104
2, 186828, Note_on_c, 0, 79, 0
2, 186840, Note_on_c, 0, 81, 104
2, 186888, Note_on_c, 0, 81, 0
2, 186900, Note_on_c, 0, 79, 104
2, 186948, Note_on_c, 0, 79, 0
2, 186960, Note_on_c, 0, 82, 104
2, 187008, Note_on_c, 0, 82, 0
2, 187020, Note_on_c, 0, 81, 104
2, 187068, Note_on_c, 0, 81, 0
2, 187080, Note_on_c, 0, 79, 104
2, 187128, Note_on_c, 0, 79, 0
2, 187140, Note_on_c, 0, 77, 104
2, 187188, Note_on_c, 0, 77, 0
2, 187200, Note_on_c, 0, 83, 104
2, 187248, Note_on_c, 0, 83, 0
2, 187260, Note_on_c, 0, 84, 104
2, 187308, Note_on_c, 0, 84, 0
2, 187320, Note_on_c, 0, 72, 104
2, 187416, Note_on_c, 0, 72, 0
2, 187920, Note_on_c, 0, 76, 85
2, 187920, Note_on_c, 0, 85, 85
2, 188016, Note_on_c, 0, 85, 0
2, 188016, Note_on_c, 0, 76, 0
2, 188040, Note_on_c, 0, 76, 85
2, 188040, Note_on_c, 0, 85, 85
2, 188136, Note_on_c, 0, 85, 0
2, 188136, Note_on_c, 0, 76, 0
2, 188160, Note_on_c, 0, 76, 85
2, 188160, Note_on_c, 0, 85, 85
2, 188256, Note_on_c, 0, 85, 0
2, 188256, Note_on_c, 0, 76, 0
2, 188280, Note_on_c, 0, 76, 86
2, 188280, Note_on_c, 0, 85, 86
2, 188376, Note_on_c, 0, 85, 0
2, 188376, Note_on_c, 0, 76, 0
2, 188400, Note_on_c, 0, 76, 86
2, 188400, Note_on_c, 0, 85, 86
2, 188496, Note_on_c, 0, 85, 0
2, 188496, Note_on_c, 0, 76, 0
2, 188520, Note_on_c, 0, 85, 87
2, 188520, Note_on_c, 0, 76, 87
2, 188616, Note_on_c, 0, 76, 0
2, 188616, Note_on_c, 0, 85, 0
2, 188640, Note_on_c, 0, 74, 87
2, 188640, Note_on_c, 0, 86, 87
2, 188736, Note_on_c, 0, 86, 0
2, 188736, Note_on_c, 0, 74, 0
2, 188760, Note_on_c, 0, 86, 88
2, 188760, Note_on_c, 0, 74, 88
2, 188856, Note_on_c, 0, 74, 0
2, 188856, Note_on_c, 0, 86, 0
2, 188880, Note_on_c, 0, 86, 88
2, 188880, Note_on_c, 0, 74, 88
2, 188976, Note_on_c, 0, 74, 0
2, 188976, Note_on_c, 0, 86, 0
2, 189000, Note_on_c, 0, 74, 88
2, 189000, Note_on_c, 0, 86, 88
2, 189096, Note_on_c, 0, 86, 0
2, 189096, Note_on_c, 0, 74, 0
2, 189120, Note_on_c, 0, 86, 89
2, 189120, Note_on_c, 0, 74, 89
2, 189216, Note_on_c, 0, 74, 0
2, 189216, Note_on_c, 0, 86, 0
2, 189240, Note_on_c, 0, 86, 89
2, 189240, Note_on_c, 0, 74, 89
2, 189336, Note_on_c, 0, 74, 0
2, 189336, Note_on_c, 0, 86, 0
2, 189360, Note_on_c, 0, 86, 90
2, 189360, Note_on_c, 0, 76, 90
2, 189456, Note_on_c, 0, 76, 0
2, 189456, Note_on_c, 0, 86, 0
2, 189480, Note_on_c, 0, 86, 90
2, 189480, Note_on_c, 0, 76, 90
2, 189576, Note_on_c, 0, 76, 0
2, 189576, Note_on_c, 0, 86, 0
2, 189600, Note_on_c, 0, 86, 91
2, 189600, Note_on_c, 0, 76, 91
2, 189696, Note_on_c, 0, 76, 0
2, 189696, Note_on_c, 0, 86, 0
2, 189720, Note_on_c, 0, 76, 91
2, 189720, Note_on_c, 0, 86, 91
2, 189816, Note_on_c, 0, 86, 0
2, 189816, Note_on_c, 0, 76, 0
2, 189840, Note_on_c, 0, 76, 91
2, 189840, Note_on_c, 0, 86, 91
2, 189936, Note_on_c, 0, 86, 0
2, 189936, Note_on_c, 0, 76, 0
2, 189960, Note_on_c, 0, 76, 92
2, 189960, Note_on_c, 0, 86, 92
2, 190056, Note_on_c, 0, 86, 0
2, 190056, Note_on_c, 0, 76, 0
2, 190080, Note_on_c, 0, 76, 92
2, 190080, Note_on_c, 0, 84, 92
2, 190176, Note_on_c, 0, 84, 0
2, 190176, Note_on_c, 0, 76, 0
2, 190200, Note_on_c, 0, 84, 93
2, 190200, Note_on_c, 0, 76, 93
2, 190296, Note_on_c, 0, 76, 0
2, 190296, Note_on_c, 0, 84, 0
2, 190320, Note_on_c, 0, 84, 93
2, 190320, Note_on_c, 0, 76, 93
2, 190416, Note_on_c, 0, 76, 0
2, 190416, Note_on_c, 0, 84, 0
2, 190440, Note_on_c, 0, 84, 94
2, 190440, Note_on_c, 0, 76, 94
2, 190536, Note_on_c, 0, 76, 0
2, 190536, Note_on_c, 0, 84, 0
2, 190560, Note_on_c, 0, 76, 94
2, 190560, Note_on_c, 0, 84, 94
2, 190656, Note_on_c, 0, 84, 0
2, 190656, Note_on_c, 0, 76, 0
2, 190680, Note_on_c, 0, 84, 94
2, 190680, Note_on_c, 0, 76, 94
2, 190776, Note_on_c, 0, 76, 0
2, 190776, Note_on_c, 0, 84, 0
2, 190800, Note_on_c, 0, 74, 95
2, 190800, Note_on_c, 0, 84, 95
2, 190896, Note_on_c, 0, 84, 0
2, 190896, Note_on_c, 0, 74, 0
2, 190920, Note_on_c, 0, 84, 95
2, 190920, Note_on_c, 0, 74, 95
2, 191016, Note_on_c, 0, 74, 0
2, 191016, Note_on_c, 0, 84, 0
2, 191040, Note_on_c, 0, 83, 96
2, 191040, Note_on_c, 0, 74, 96
2, 191136, Note_on_c, 0, 74, 0
2, 191136, Note_on_c, 0, 83, 0
2, 191160, Note_on_c, 0, 83, 96
2, 191160, Note_on_c, 0, 74, 96
2, 191256, Note_on_c, 0, 74, 0
2, 191256, Note_on_c, 0, 83, 0
2, 191280, Note_on_c, 0, 74, 97
2, 191280, Note_on_c, 0, 83, 97
2, 191376, Note_on_c, 0, 83, 0
2, 191376, Note_on_c, 0, 74, 0
2, 191400, Note_on_c, 0, 74, 97
2, 191400, Note_on_c, 0, 83, 97
2, 191496, Note_on_c, 0, 83, 0
2, 191496, Note_on_c, 0, 74, 0
2, 191520, Note_on_c, 0, 83, 97
2, 191520, Note_on_c, 0, 72, 97
2, 191616, Note_on_c, 0, 72, 0
2, 191616, Note_on_c, 0, 83, 0
2, 191640, Note_on_c, 0, 83, 98
2, 191640, Note_on_c, 0, 72, 98
2, 191736, Note_on_c, 0, 72, 0
2, 191736, Note_on_c, 0, 83, 0
2, 191760, Note_on_c, 0, 72, 98
2, 191760, Note_on_c, 0, 81, 98
2, 191856, Note_on_c, 0, 81, 0
2, 191856, Note_on_c, 0, 72, 0
2, 191880, Note_on_c, 0, 81, 97
2, 191880, Note_on_c, 0, 72, 97
2, 191976, Note_on_c, 0, 72, 0
2, 191976, Note_on_c, 0, 81, 0
2, 192000, Note_on_c, 0, 81, 97
2, 192000, Note_on_c, 0, 72, 97
2, 192096, Note_on_c, 0, 72, 0
2, 192096, Note_on_c, 0, 81, 0
2, 192120, Note_on_c, 0, 72, 97
2, 192120, Note_on_c, 0, 81, 97
2, 192216, Note_on_c, 0, 81, 0
2, 192216, Note_on_c, 0, 72, 0
2, 192240, Note_on_c, 0, 81, 96
2, 192240, Note_on_c, 0, 71, 96
2, 192336, Note_on_c, 0, 71, 0
2, 192336, Note_on_c, 0, 81, 0
2, 192360, Note_on_c, 0, 71, 96
2, 192360, Note_on_c, 0, 81, 96
2, 192456, Note_on_c, 0, 81, 0
2, 192456, Note_on_c, 0, 71, 0
2, 192480, Note_on_c, 0, 71, 96
2, 192480, Note_on_c, 0, 80, 96
2, 192576, Note_on_c, 0, 80, 0
2, 192576, Note_on_c, 0, 71, 0
2, 192600, Note_on_c, 0, 71, 95
2, 192600, Note_on_c, 0, 80, 95
2, 192696, Note_on_c, 0, 80, 0
2, 192696, Note_on_c, 0, 71, 0
2, 192720, Note_on_c, 0, 80, 95
2, 192720, Note_on_c, 0, 71, 95
2, 192816, Note_on_c, 0, 71, 0
2, 192816, Note_on_c, 0, 80, 0
2, 192840, Note_on_c, 0, 80, 95
2, 192840, Note_on_c, 0, 71, 95
2, 192936, Note_on_c, 0, 71, 0
2, 192936, Note_on_c, 0, 80, 0
2, 192960, Note_on_c, 0, 81, 94
2, 192960, Note_on_c, 0, 69, 94
2, 193056, Note_on_c, 0, 69, 0
2, 193056, Note_on_c, 0, 81, 0
2, 193080, Note_on_c, 0, 76, 94
2, 193128, Note_on_c, 0, 76, 0
2, 193140, Note_on_c, 0, 74, 94
2, 193188, Note_on_c, 0, 74, 0
2, 193200, Note_on_c, 0, 76, 94
2, 193296, Note_on_c, 0, 76, 0
2, 193320, Note_on_c, 0, 84, 90
2, 193416, Note_on_c, 0, 84, 0
2, 193440, Note_on_c, 0, 80, 90
2, 193536, Note_on_c, 0, 80, 0
2, 193560, Note_on_c, 0, 81, 90
2, 193656, Note_on_c, 0, 81, 0
2, 193800, Note_on_c, 0, 74, 87
2, 193848, Note_on_c, 0, 74, 0
2, 193860, Note_on_c, 0, 72, 87
2, 193908, Note_on_c, 0, 72, 0
2, 193920, Note_on_c, 0, 74, 87
2, 194016, Note_on_c, 0, 74, 0
2, 194040, Note_on_c, 0, 83, 87
2, 194220, Note_on_c, 0, 83, 0
2, 194220, Note_on_c, 0, 81, 87
2, 194268, Note_on_c, 0, 81, 0
2, 194280, Note_on_c, 0, 80, 87
2, 194328, Note_on_c, 0, 80, 0
2, 194340, Note_on_c, 0, 81, 87
2, 194388, Note_on_c, 0, 81, 0
2, 194400, Note_on_c, 0, 83, 87
2, 194448, Note_on_c, 0, 83, 0
2, 194460, Note_on_c, 0, 81, 86
2, 194508, Note_on_c, 0, 81, 0
2, 194520, Note_on_c, 0, 80, 86
2, 194568, Note_on_c, 0, 80, 0
2, 194580, Note_on_c, 0, 78, 86
2, 194628, Note_on_c, 0, 78, 0
2, 194640, Note_on_c, 0, 76, 86
2, 194688, Note_on_c, 0, 76, 0
2, 194700, Note_on_c, 0, 74, 86
2, 194748, Note_on_c, 0, 74, 0
2, 194760, Note_on_c, 0, 77, 86
2, 195000, Note_on_c, 0, 77, 0
2, 195000, Note_on_c, 0, 76, 86
2, 195168, Note_on_c, 0, 76, 0
2, 195180, Note_on_c, 0, 74, 85
2, 195228, Note_on_c, 0, 74, 0
2, 195240, Note_on_c, 0, 72, 85
2, 195288, Note_on_c, 0, 72, 0
2, 195300, Note_on_c, 0, 71, 85
2, 195348, Note_on_c, 0, 71, 0
2, 195360, Note_on_c, 0, 72, 85
2, 195408, Note_on_c, 0, 72, 0
2, 195420, Note_on_c, 0, 69, 85
2, 195468, Note_on_c, 0, 69, 0
2, 195480, Note_on_c, 0, 71, 85
2, 195528, Note_on_c, 0, 71, 0
2, 195540, Note_on_c, 0, 68, 85
2, 195588, Note_on_c, 0, 68, 0
2, 195600, Note_on_c, 0, 69, 85
2, 195648, Note_on_c, 0, 69, 0
2, 195660, Note_on_c, 0, 64, 85
2, 195708, Note_on_c, 0, 64, 0
2, 195720, Note_on_c, 0, 69, 85
2, 195768, Note_on_c, 0, 69, 0
2, 195780, Note_on_c, 0, 68, 85
2, 195828, Note_on_c, 0, 68, 0
2, 195840, Note_on_c, 0, 69, 85
2, 195888, Note_on_c, 0, 69, 0
2, 195900, Note_on_c, 0, 64, 84
2, 195948, Note_on_c, 0, 64, 0
2, 195960, Note_on_c, 0, 72, 84
2, 196008, Note_on_c, 0, 72, 0
2, 196020, Note_on_c, 0, 71, 84
2, 196068, Note_on_c, 0, 71, 0
2, 196080, Note_on_c, 0, 72, 84
2, 196128, Note_on_c, 0, 72, 0
2, 196140, Note_on_c, 0, 69, 84
2, 196188, Note_on_c, 0, 69, 0
2, 196200, Note_on_c, 0, 76, 84
2, 196248, Note_on_c, 0, 76, 0
2, 196260, Note_on_c, 0, 72, 84
2, 196308, Note_on_c, 0, 72, 0
2, 196320, Note_on_c, 0, 74, 84
2, 196368, Note_on_c, 0, 74, 0
2, 196380, Note_on_c, 0, 71, 84
2, 196428, Note_on_c, 0, 71, 0
2, 196440, Note_on_c, 0, 72, 84
2, 196488, Note_on_c, 0, 72, 0
2, 196500, Note_on_c, 0, 69, 84
2, 196548, Note_on_c, 0, 69, 0
2, 196560, Note_on_c, 0, 68, 83
2, 196608, Note_on_c, 0, 68, 0
2, 196620, Note_on_c, 0, 76, 83
2, 196668, Note_on_c, 0, 76, 0
2, 196680, Note_on_c, 0, 83, 83
2, 196728, Note_on_c, 0, 83, 0
2, 196740, Note_on_c, 0, 81, 83
2, 196788, Note_on_c, 0, 81, 0
2, 196800, Note_on_c, 0, 83, 83
2, 196848, Note_on_c, 0, 83, 0
2, 196860, Note_on_c, 0, 76, 83
2, 196908, Note_on_c, 0, 76, 0
2, 196920, Note_on_c, 0, 86, 83
2, 196968, Note_on_c, 0, 86, 0
2, 196980, Note_on_c, 0, 84, 83
2, 197028, Note_on_c, 0, 84, 0
2, 197040, Note_on_c, 0, 86, 83
2, 197088, Note_on_c, 0, 86, 0
2, 197100, Note_on_c, 0, 83, 83
2, 197148, Note_on_c, 0, 83, 0
2, 197160, Note_on_c, 0, 88, 83
2, 197208, Note_on_c, 0, 88, 0
2, 197220, Note_on_c, 0, 84, 83
2, 197268, Note_on_c, 0, 84, 0
2, 197280, Note_on_c, 0, 86, 82
2, 197376, Note_on_c, 0, 86, 0
2, 197400, Note_on_c, 0, 76, 82
2, 197580, Note_on_c, 0, 76, 0
2, 197580, Note_on_c, 0, 78, 78
2, 197628, Note_on_c, 0, 78, 0
2, 197640, Note_on_c, 0, 80, 78
2, 197688, Note_on_c, 0, 80, 0
2, 197700, Note_on_c, 0, 81, 78
2, 197748, Note_on_c, 0, 81, 0
2, 197760, Note_on_c, 0, 83, 78
2, 197808, Note_on_c, 0, 83, 0
2, 197820, Note_on_c, 0, 84, 78
2, 197868, Note_on_c, 0, 84, 0
2, 197880, Note_on_c, 0, 86, 78
2, 197928, Note_on_c, 0, 86, 0
2, 197940, Note_on_c, 0, 83, 78
2, 197988, Note_on_c, 0, 83, 0
2, 198000, Note_on_c, 0, 84, 78
2, 198048, Note_on_c, 0, 84, 0
2, 198060, Note_on_c, 0, 77, 78
2, 198108, Note_on_c, 0, 77, 0
2, 198120, Note_on_c, 0, 76, 78
2, 198168, Note_on_c, 0, 76, 0
2, 198180, Note_on_c, 0, 74, 78
2, 198228, Note_on_c, 0, 74, 0
2, 198240, Note_on_c, 0, 76, 78
2, 198288, Note_on_c, 0, 76, 0
2, 198300, Note_on_c, 0, 72, 78
2, 198348, Note_on_c, 0, 72, 0
2, 198360, Note_on_c, 0, 74, 78
2, 198408, Note_on_c, 0, 74, 0
2, 198420, Note_on_c, 0, 71, 78
2, 198468, Note_on_c, 0, 71, 0
2, 198480, Note_on_c, 0, 72, 78
2, 198528, Note_on_c, 0, 72, 0
2, 198540, Note_on_c, 0, 76, 78
2, 198588, Note_on_c, 0, 76, 0
2, 198600, Note_on_c, 0, 72, 78
2, 198648, Note_on_c, 0, 72, 0
2, 198660, Note_on_c, 0, 71, 78
2, 198708, Note_on_c, 0, 71, 0
2, 198720, Note_on_c, 0, 72, 78
2, 198768, Note_on_c, 0, 72, 0
2, 198780, Note_on_c, 0, 76, 78
2, 198828, Note_on_c, 0, 76, 0
2, 198840, Note_on_c, 0, 69, 78
2, 198888, Note_on_c, 0, 69, 0
2, 198900, Note_on_c, 0, 68, 78
2, 198948, Note_on_c, 0, 68, 0
2, 198960, Note_on_c, 0, 69, 78
2, 199008, Note_on_c, 0, 69, 0
2, 199020, Note_on_c, 0, 76, 78
2, 199068, Note_on_c, 0, 76, 0
2, 199080, Note_on_c, 0, 67, 78
2, 199128, Note_on_c, 0, 67, 0
2, 199140, Note_on_c, 0, 65, 78
2, 199188, Note_on_c, 0, 65, 0
2, 199200, Note_on_c, 0, 67, 78
2, 199248, Note_on_c, 0, 67, 0
2, 199260, Note_on_c, 0, 76, 78
2, 199308, Note_on_c, 0, 76, 0
2, 199320, Note_on_c, 0, 65, 78
2, 199368, Note_on_c, 0, 65, 0
2, 199380, Note_on_c, 0, 64, 78
2, 199428, Note_on_c, 0, 64, 0
2, 199440, Note_on_c, 0, 62, 78
2, 199488, Note_on_c, 0, 62, 0
2, 199500, Note_on_c, 0, 57, 77
2, 199548, Note_on_c, 0, 57, 0
2, 199560, Note_on_c, 0, 65, 78
2, 199608, Note_on_c, 0, 65, 0
2, 199620, Note_on_c, 0, 64, 79
2, 199668, Note_on_c, 0, 64, 0
2, 199680, Note_on_c, 0, 66, 80
2, 199728, Note_on_c, 0, 66, 0
2, 199740, Note_on_c, 0, 62, 81
2, 199788, Note_on_c, 0, 62, 0
2, 199800, Note_on_c, 0, 69, 82
2, 199848, Note_on_c, 0, 69, 0
2, 199860, Note_on_c, 0, 67, 83
2, 199908, Note_on_c, 0, 67, 0
2, 199920, Note_on_c, 0, 69, 84
2, 199968, Note_on_c, 0, 69, 0
2, 199980, Note_on_c, 0, 62, 85
2, 200028, Note_on_c, 0, 62, 0
2, 200040, Note_on_c, 0, 67, 86
2, 200088, Note_on_c, 0, 67, 0
2, 200100, Note_on_c, 0, 69, 88
2, 200148, Note_on_c, 0, 69, 0
2, 200160, Note_on_c, 0, 71, 90
2, 200208, Note_on_c, 0, 71, 0
2, 200220, Note_on_c, 0, 74, 86
2, 200268, Note_on_c, 0, 74, 0
2, 200280, Note_on_c, 0, 67, 86
2, 200328, Note_on_c, 0, 67, 0
2, 200340, Note_on_c, 0, 66, 85
2, 200388, Note_on_c, 0, 66, 0
2, 200400, Note_on_c, 0, 67, 85
2, 200448, Note_on_c, 0, 67, 0
2, 200460, Note_on_c, 0, 74, 84
2, 200508, Note_on_c, 0, 74, 0
2, 200520, Note_on_c, 0, 65, 83
2, 200568, Note_on_c, 0, 65, 0
2, 200580, Note_on_c, 0, 64, 83
2, 200628, Note_on_c, 0, 64, 0
2, 200640, Note_on_c, 0, 65, 82
2, 200688, Note_on_c, 0, 65, 0
2, 200700, Note_on_c, 0, 74, 82
2, 200748, Note_on_c, 0, 74, 0
2, 200760, Note_on_c, 0, 65, 81
2, 200808, Note_on_c, 0, 65, 0
2, 200820, Note_on_c, 0, 62, 81
2, 200868, Note_on_c, 0, 62, 0
2, 200880, Note_on_c, 0, 60, 80
2, 200928, Note_on_c, 0, 60, 0
2, 200940, Note_on_c, 0, 55, 80
2, 200988, Note_on_c, 0, 55, 0
2, 201000, Note_on_c, 0, 64, 80
2, 201048, Note_on_c, 0, 64, 0
2, 201060, Note_on_c, 0, 62, 81
2, 201108, Note_on_c, 0, 62, 0
2, 201120, Note_on_c, 0, 64, 81
2, 201168, Note_on_c, 0, 64, 0
2, 201180, Note_on_c, 0, 60, 81
2, 201228, Note_on_c, 0, 60, 0
2, 201240, Note_on_c, 0, 67, 82
2, 201288, Note_on_c, 0, 67, 0
2, 201300, Note_on_c, 0, 65, 82
2, 201348, Note_on_c, 0, 65, 0
2, 201360, Note_on_c, 0, 67, 82
2, 201408, Note_on_c, 0, 67, 0
2, 201420, Note_on_c, 0, 60, 83
2, 201468, Note_on_c, 0, 60, 0
2, 201480, Note_on_c, 0, 65, 83
2, 201528, Note_on_c, 0, 65, 0
2, 201540, Note_on_c, 0, 67, 83
2, 201588, Note_on_c, 0, 67, 0
2, 201600, Note_on_c, 0, 69, 84
2, 201648, Note_on_c, 0, 69, 0
2, 201660, Note_on_c, 0, 60, 84
2, 201708, Note_on_c, 0, 60, 0
2, 201720, Note_on_c, 0, 62, 84
2, 201768, Note_on_c, 0, 62, 0
2, 201780, Note_on_c, 0, 64, 84
2, 201828, Note_on_c, 0, 64, 0
2, 201840, Note_on_c, 0, 65, 85
2, 201888, Note_on_c, 0, 65, 0
2, 201900, Note_on_c, 0, 67, 85
2, 201948, Note_on_c, 0, 67, 0
2, 201960, Note_on_c, 0, 69, 85
2, 202008, Note_on_c, 0, 69, 0
2, 202020, Note_on_c, 0, 70, 86
2, 202068, Note_on_c, 0, 70, 0
2, 202080, Note_on_c, 0, 72, 86
2, 202128, Note_on_c, 0, 72, 0
2, 202140, Note_on_c, 0, 74, 86
2, 202188, Note_on_c, 0, 74, 0
2, 202200, Note_on_c, 0, 76, 87
2, 202248, Note_on_c, 0, 76, 0
2, 202260, Note_on_c, 0, 77, 87
2, 202308, Note_on_c, 0, 77, 0
2, 202320, Note_on_c, 0, 79, 87
2, 202416, Note_on_c, 0, 79, 0
2, 202440, Note_on_c, 0, 82, 88
2, 202632, Note_on_c, 0, 82, 0
2, 202680, Note_on_c, 0, 81, 89
2, 202776, Note_on_c, 0, 81, 0
2, 202800, Note_on_c, 0, 73, 90
2, 202896, Note_on_c, 0, 73, 0
2, 202920, Note_on_c, 0, 74, 91
2, 203016, Note_on_c, 0, 74, 0
2, 203040, Note_on_c, 0, 79, 91
2, 203088, Note_on_c, 0, 79, 0
2, 203100, Note_on_c, 0, 76, 92
2, 203148, Note_on_c, 0, 76, 0
2, 203160, Note_on_c, 0, 77, 92
2, 203256, Note_on_c, 0, 77, 0
2, 203640, Note_on_c, 0, 78, 91
2, 203688, Note_on_c, 0, 78, 0
2, 203700, Note_on_c, 0, 79, 89
2, 203748, Note_on_c, 0, 79, 0
2, 203760, Note_on_c, 0, 81, 94
2, 203856, Note_on_c, 0, 81, 0
2, 203880, Note_on_c, 0, 84, 93
2, 204072, Note_on_c, 0, 84, 0
2, 204120, Note_on_c, 0, 83, 94
2, 204216, Note_on_c, 0, 83, 0
2, 204240, Note_on_c, 0, 75, 95
2, 204336, Note_on_c, 0, 75, 0
2, 204360, Note_on_c, 0, 76, 95
2, 204456, Note_on_c, 0, 76, 0
2, 204480, Note_on_c, 0, 81, 96
2, 204528, Note_on_c, 0, 81, 0
2, 204540, Note_on_c, 0, 78, 96
2, 204588, Note_on_c, 0, 78, 0
2, 204600, Note_on_c, 0, 80, 96
2, 204696, Note_on_c, 0, 80, 0
2, 204840, Note_on_c, 0, 71, 97
2, 204872, Note_on_c, 0, 71, 0
2, 204880, Note_on_c, 0, 72, 98
2, 204912, Note_on_c, 0, 72, 0
2, 204920, Note_on_c, 0, 74, 98
2, 204952, Note_on_c, 0, 74, 0
2, 204960, Note_on_c, 0, 74, 98
2, 204992, Note_on_c, 0, 74, 0
2, 205000, Note_on_c, 0, 76, 98
2, 205032, Note_on_c, 0, 76, 0
2, 205040, Note_on_c, 0, 78, 98
2, 205072, Note_on_c, 0, 78, 0
2, 205080, Note_on_c, 0, 78, 98
2, 205112, Note_on_c, 0, 78, 0
2, 205120, Note_on_c, 0, 80, 99
2, 205152, Note_on_c, 0, 80, 0
2, 205160, Note_on_c, 0, 81, 99
2, 205192, Note_on_c, 0, 81, 0
2, 205200, Note_on_c, 0, 81, 99
2, 205248, Note_on_c, 0, 81, 0
2, 205260, Note_on_c, 0, 76, 99
2, 205308, Note_on_c, 0, 76, 0
2, 205320, Note_on_c, 0, 72, 100
2, 205368, Note_on_c, 0, 72, 0
2, 205380, Note_on_c, 0, 69, 100
2, 205428, Note_on_c, 0, 69, 0
2, 205440, Note_on_c, 0, 64, 100
2, 205536, Note_on_c, 0, 64, 0
2, 205560, Note_on_c, 0, 72, 101
2, 205592, Note_on_c, 0, 72, 0
2, 205600, Note_on_c, 0, 74, 101
2, 205632, Note_on_c, 0, 74, 0
2, 205640, Note_on_c, 0, 76, 101
2, 205672, Note_on_c, 0, 76, 0
2, 205680, Note_on_c, 0, 76, 101
2, 205712, Note_on_c, 0, 76, 0
2, 205720, Note_on_c, 0, 78, 101
2, 205752, Note_on_c, 0, 78, 0
2, 205760, Note_on_c, 0, 80, 102
2, 205792, Note_on_c, 0, 80, 0
2, 205800, Note_on_c, 0, 80, 102
2, 205832, Note_on_c, 0, 80, 0
2, 205840, Note_on_c, 0, 81, 102
2, 205872, Note_on_c, 0, 81, 0
2, 205880, Note_on_c, 0, 83, 102
2, 205912, Note_on_c, 0, 83, 0
2, 205920, Note_on_c, 0, 83, 102
2, 205968, Note_on_c, 0, 83, 0
2, 205980, Note_on_c, 0, 80, 103
2, 206028, Note_on_c, 0, 80, 0
2, 206040, Note_on_c, 0, 74, 103
2, 206088, Note_on_c, 0, 74, 0
2, 206100, Note_on_c, 0, 71, 103
2, 206148, Note_on_c, 0, 71, 0
2, 206160, Note_on_c, 0, 64, 103
2, 206256, Note_on_c, 0, 64, 0
2, 206280, Note_on_c, 0, 76, 104
2, 206312, Note_on_c, 0, 76, 0
2, 206320, Note_on_c, 0, 78, 104
2, 206352, Note_on_c, 0, 78, 0
2, 206360, Note_on_c, 0, 80, 104
2, 206392, Note_on_c, 0, 80, 0
2, 206400, Note_on_c, 0, 80, 105
2, 206432, Note_on_c, 0, 80, 0
2, 206440, Note_on_c, 0, 81, 105
2, 206472, Note_on_c, 0, 81, 0
2, 206480, Note_on_c, 0, 83, 105
2, 206512, Note_on_c, 0, 83, 0
2, 206520, Note_on_c, 0, 83, 105
2, 206552, Note_on_c, 0, 83, 0
2, 206560, Note_on_c, 0, 84, 105
2, 206592, Note_on_c, 0, 84, 0
2, 206600, Note_on_c, 0, 86, 105
2, 206632, Note_on_c, 0, 86, 0
2, 206640, Note_on_c, 0, 84, 106
2, 206688, Note_on_c, 0, 84, 0
2, 206700, Note_on_c, 0, 81, 106
2, 206748, Note_on_c, 0, 81, 0
2, 206760, Note_on_c, 0, 80, 106
2, 206808, Note_on_c, 0, 80, 0
2, 206820, Note_on_c, 0, 81, 106
2, 206868, Note_on_c, 0, 81, 0
2, 206880, Note_on_c, 0, 82, 107
2, 206928, Note_on_c, 0, 82, 0
2, 206940, Note_on_c, 0, 81, 107
2, 206988, Note_on_c, 0, 81, 0
2, 207000, Note_on_c, 0, 80, 107
2, 207048, Note_on_c, 0, 80, 0
2, 207060, Note_on_c, 0, 81, 108
2, 207108, Note_on_c, 0, 81, 0
2, 207120, Note_on_c, 0, 77, 108
2, 207152, Note_on_c, 0, 77, 0
2, 207160, Note_on_c, 0, 80, 108
2, 207192, Note_on_c, 0, 80, 0
2, 207200, Note_on_c, 0, 81, 108
2, 207232, Note_on_c, 0, 81, 0
2, 207240, Note_on_c, 0, 74, 108
2, 207272, Note_on_c, 0, 74, 0
2, 207280, Note_on_c, 0, 80, 109
2, 207312, Note_on_c, 0, 80, 0
2, 207320, Note_on_c, 0, 81, 109
2, 207352, Note_on_c, 0, 81, 0
2, 207360, Note_on_c, 0, 76, 109
2, 207408, Note_on_c, 0, 76, 0
2, 207420, Note_on_c, 0, 81, 109
2, 207468, Note_on_c, 0, 81, 0
2, 207480, Note_on_c, 0, 80, 110
2, 207528, Note_on_c, 0, 80, 0
2, 207540, Note_on_c, 0, 81, 110
2, 207588, Note_on_c, 0, 81, 0
2, 207600, Note_on_c, 0, 84, 110
2, 207648, Note_on_c, 0, 84, 0
2, 207660, Note_on_c, 0, 81, 110
2, 207708, Note_on_c, 0, 81, 0
2, 207720, Note_on_c, 0, 80, 111
2, 207768, Note_on_c, 0, 80, 0
2, 207780, Note_on_c, 0, 81, 111
2, 207828, Note_on_c, 0, 81, 0
2, 207840, Note_on_c, 0, 76, 111
2, 207872, Note_on_c, 0, 76, 0
2, 207880, Note_on_c, 0, 79, 111
2, 207912, Note_on_c, 0, 79, 0
2, 207920, Note_on_c, 0, 81, 112
2, 207952, Note_on_c, 0, 81, 0
2, 207960, Note_on_c, 0, 72, 112
2, 207992, Note_on_c, 0, 72, 0
2, 208000, Note_on_c, 0, 79, 112
2, 208032, Note_on_c, 0, 79, 0
2, 208040, Note_on_c, 0, 81, 112
2, 208072, Note_on_c, 0, 81, 0
2, 208080, Note_on_c, 0, 74, 112
2, 208128, Note_on_c, 0, 74, 0
2, 208140, Note_on_c, 0, 81, 113
2, 208188, Note_on_c, 0, 81, 0
2, 208200, Note_on_c, 0, 80, 113
2, 208248, Note_on_c, 0, 80, 0
2, 208260, Note_on_c, 0, 81, 113
2, 208308, Note_on_c, 0, 81, 0
2, 208320, Note_on_c, 0, 77, 113
2, 208368, Note_on_c, 0, 77, 0
2, 208380, Note_on_c, 0, 81, 114
2, 208428, Note_on_c, 0, 81, 0
2, 208440, Note_on_c, 0, 80, 114
2, 208488, Note_on_c, 0, 80, 0
2, 208500, Note_on_c, 0, 81, 114
2, 208548, Note_on_c, 0, 81, 0
2, 208560, Note_on_c, 0, 74, 114
2, 208592, Note_on_c, 0, 74, 0
2, 208600, Note_on_c, 0, 80, 115
2, 208632, Note_on_c, 0, 80, 0
2, 208640, Note_on_c, 0, 81, 115
2, 208672, Note_on_c, 0, 81, 0
2, 208680, Note_on_c, 0, 71, 115
2, 208712, Note_on_c, 0, 71, 0
2, 208720, Note_on_c, 0, 80, 115
2, 208752, Note_on_c, 0, 80, 0
2, 208760, Note_on_c, 0, 81, 115
2, 208792, Note_on_c, 0, 81, 0
2, 208800, Note_on_c, 0, 72, 116
2, 208896, Note_on_c, 0, 72, 0
2, 208920, Note_on_c, 0, 76, 116
2, 209016, Note_on_c, 0, 76, 0
2, 209040, Note_on_c, 0, 81, 116
2, 209136, Note_on_c, 0, 81, 0
2, 209160, Note_on_c, 0, 84, 116
2, 209256, Note_on_c, 0, 84, 0
2, 209280, Note_on_c, 0, 75, 116
2, 209424, Note_on_c, 0, 75, 0
2, 209460, Note_on_c, 0, 73, 116
2, 209484, Note_on_c, 0, 73, 0
2, 209490, Note_on_c, 0, 75, 116
2, 209514, Note_on_c, 0, 75, 0
2, 209520, Note_on_c, 0, 76, 116
2, 209616, Note_on_c, 0, 76, 0
2, 209640, Note_on_c, 0, 71, 116
2, 209736, Note_on_c, 0, 71, 0
2, 209760, Note_on_c, 0, 72, 116
2, 209856, Note_on_c, 0, 72, 0
2, 209880, Note_on_c, 0, 69, 116
2, 209976, Note_on_c, 0, 69, 0
2, 210000, Note_on_c, 0, 64, 116
2, 210096, Note_on_c, 0, 64, 0
2, 210120, Note_on_c, 0, 68, 116
2, 210216, Note_on_c, 0, 68, 0
2, 210240, Note_on_c, 0, 69, 112
2, 210288, Note_on_c, 0, 69, 0
2, 210300, Note_on_c, 0, 76, 110
2, 210348, Note_on_c, 0, 76, 0
2, 210360, Note_on_c, 0, 81, 108
2, 210408, Note_on_c, 0, 81, 0
2, 210420, Note_on_c, 0, 83, 106
2, 210468, Note_on_c, 0, 83, 0
2, 210480, Note_on_c, 0, 84, 103
2, 210528, Note_on_c, 0, 84, 0
2, 210540, Note_on_c, 0, 81, 101
2, 210588, Note_on_c, 0, 81, 0
2, 210600, Note_on_c, 0, 76, 99
2, 210648, Note_on_c, 0, 76, 0
2, 210660, Note_on_c, 0, 81, 97
2, 210708, Note_on_c, 0, 81, 0
2, 210720, Note_on_c, 0, 72, 94
2, 210768, Note_on_c, 0, 72, 0
2, 210780, Note_on_c, 0, 76, 92
2, 210828, Note_on_c, 0, 76, 0
2, 210840, Note_on_c, 0, 69, 90
2, 210888, Note_on_c, 0, 69, 0
2, 210900, Note_on_c, 0, 76, 88
2, 210948, Note_on_c, 0, 76, 0
2, 210960, Note_on_c, 0, 67, 85
2, 211008, Note_on_c, 0, 67, 0
2, 211020, Note_on_c, 0, 76, 83
2, 211068, Note_on_c, 0, 76, 0
2, 211080, Note_on_c, 0, 81, 81
2, 211128, Note_on_c, 0, 81, 0
2, 211140, Note_on_c, 0, 83, 76
2, 211188, Note_on_c, 0, 83, 0
2, 211200, Note_on_c, 0, 85, 76
2, 211248, Note_on_c, 0, 85, 0
2, 211260, Note_on_c, 0, 81, 76
2, 211308, Note_on_c, 0, 81, 0
2, 211320, Note_on_c, 0, 76, 76
2, 211368, Note_on_c, 0, 76, 0
2, 211380, Note_on_c, 0, 81, 76
2, 211428, Note_on_c, 0, 81, 0
2, 211440, Note_on_c, 0, 73, 76
2, 211488, Note_on_c, 0, 73, 0
2, 211500, Note_on_c, 0, 76, 77
2, 211548, Note_on_c, 0, 76, 0
2, 211560, Note_on_c, 0, 67, 77
2, 211608, Note_on_c, 0, 67, 0
2, 211620, Note_on_c, 0, 76, 77
2, 211668, Note_on_c, 0, 76, 0
2, 211680, Note_on_c, 0, 65, 77
2, 211728, Note_on_c, 0, 65, 0
2, 211740, Note_on_c, 0, 74, 77
2, 211788, Note_on_c, 0, 74, 0
2, 211800, Note_on_c, 0, 81, 78
2, 211848, Note_on_c, 0, 81, 0
2, 211860, Note_on_c, 0, 84, 78
2, 211908, Note_on_c, 0, 84, 0
2, 211920, Note_on_c, 0, 86, 78
2, 211968, Note_on_c, 0, 86, 0
2, 211980, Note_on_c, 0, 82, 78
2, 212028, Note_on_c, 0, 82, 0
2, 212040, Note_on_c, 0, 79, 78
2, 212088, Note_on_c, 0, 79, 0
2, 212100, Note_on_c, 0, 82, 78
2, 212148, Note_on_c, 0, 82, 0
2, 212160, Note_on_c, 0, 74, 79
2, 212208, Note_on_c, 0, 74, 0
2, 212220, Note_on_c, 0, 79, 79
2, 212268, Note_on_c, 0, 79, 0
2, 212280, Note_on_c, 0, 70, 79
2, 212328, Note_on_c, 0, 70, 0
2, 212340, Note_on_c, 0, 74, 79
2, 212388, Note_on_c, 0, 74, 0
2, 212400, Note_on_c, 0, 66, 79
2, 212448, Note_on_c, 0, 66, 0
2, 212460, Note_on_c, 0, 74, 80
2, 212508, Note_on_c, 0, 74, 0
2, 212520, Note_on_c, 0, 81, 80
2, 212568, Note_on_c, 0, 81, 0
2, 212580, Note_on_c, 0, 82, 80
2, 212628, Note_on_c, 0, 82, 0
2, 212640, Note_on_c, 0, 84, 80
2, 212688, Note_on_c, 0, 84, 0
2, 212700, Note_on_c, 0, 81, 80
2, 212748, Note_on_c, 0, 81, 0
2, 212760, Note_on_c, 0, 78, 80
2, 212808, Note_on_c, 0, 78, 0
2, 212820, Note_on_c, 0, 81, 81
2, 212868, Note_on_c, 0, 81, 0
2, 212880, Note_on_c, 0, 72, 81
2, 212928, Note_on_c, 0, 72, 0
2, 212940, Note_on_c, 0, 78, 81
2, 212988, Note_on_c, 0, 78, 0
2, 213000, Note_on_c, 0, 69, 81
2, 213048, Note_on_c, 0, 69, 0
2, 213060, Note_on_c, 0, 72, 81
2, 213108, Note_on_c, 0, 72, 0
2, 213120, Note_on_c, 0, 70, 82
2, 213312, Note_on_c, 0, 70, 0
2, 213960, Note_on_c, 0, 71, 84
2, 214056, Note_on_c, 0, 71, 0
2, 214080, Note_on_c, 0, 74, 86
2, 214176, Note_on_c, 0, 74, 0
2, 214200, Note_on_c, 0, 77, 88
2, 214296, Note_on_c, 0, 77, 0
2, 214320, Note_on_c, 0, 80, 90
2, 214416, Note_on_c, 0, 80, 0
2, 214440, Note_on_c, 0, 79, 88
2, 214536, Note_on_c, 0, 79, 0
2, 214560, Note_on_c, 0, 72, 86
2, 215376, Note_on_c, 0, 72, 0
2, 215400, Note_on_c, 0, 70, 87
2, 215496, Note_on_c, 0, 70, 0
2, 215520, Note_on_c, 0, 64, 88
2, 215616, Note_on_c, 0, 64, 0
2, 215640, Note_on_c, 0, 67, 89
2, 215736, Note_on_c, 0, 67, 0
2, 215760, Note_on_c, 0, 61, 90
2, 215856, Note_on_c, 0, 61, 0
2, 215880, Note_on_c, 0, 60, 92
2, 216096, Note_on_c, 0, 60, 0
2, 216120, Note_on_c, 0, 79, 92
2, 216216, Note_on_c, 0, 79, 0
2, 216240, Note_on_c, 0, 77, 92
2, 216336, Note_on_c, 0, 77, 0
2, 216360, Note_on_c, 0, 76, 92
2, 216456, Note_on_c, 0, 76, 0
2, 216480, Note_on_c, 0, 74, 91
2, 216816, Note_on_c, 0, 74, 0
2, 216840, Note_on_c, 0, 82, 91
2, 216936, Note_on_c, 0, 82, 0
2, 216960, Note_on_c, 0, 73, 90
2, 217056, Note_on_c, 0, 73, 0
2, 217080, Note_on_c, 0, 76, 90
2, 217176, Note_on_c, 0, 76, 0
2, 217200, Note_on_c, 0, 79, 91
2, 217296, Note_on_c, 0, 79, 0
2, 217320, Note_on_c, 0, 77, 91
2, 217368, Note_on_c, 0, 77, 0
2, 217380, Note_on_c, 0, 76, 91
2, 217428, Note_on_c, 0, 76, 0
2, 217440, Note_on_c, 0, 77, 91
2, 217536, Note_on_c, 0, 77, 0
2, 217560, Note_on_c, 0, 79, 92
2, 217656, Note_on_c, 0, 79, 0
2, 217680, Note_on_c, 0, 77, 92
2, 217776, Note_on_c, 0, 77, 0
2, 217800, Note_on_c, 0, 76, 93
2, 217896, Note_on_c, 0, 76, 0
2, 217920, Note_on_c, 0, 74, 93
2, 218016, Note_on_c, 0, 74, 0
2, 218040, Note_on_c, 0, 75, 94
2, 218088, Note_on_c, 0, 75, 0
2, 218100, Note_on_c, 0, 77, 94
2, 218148, Note_on_c, 0, 77, 0
2, 218160, Note_on_c, 0, 79, 94
2, 218448, Note_on_c, 0, 79, 0
2, 218520, Note_on_c, 0, 75, 96
2, 218616, Note_on_c, 0, 75, 0
2, 218640, Note_on_c, 0, 72, 96
2, 218832, Note_on_c, 0, 72, 0
2, 218880, Note_on_c, 0, 70, 97
2, 218976, Note_on_c, 0, 70, 0
2, 219000, Note_on_c, 0, 84, 97
2, 219096, Note_on_c, 0, 84, 0
2, 219120, Note_on_c, 0, 82, 98
2, 219216, Note_on_c, 0, 82, 0
2, 219240, Note_on_c, 0, 81, 98
2, 219336, Note_on_c, 0, 81, 0
2, 219360, Note_on_c, 0, 79, 99
2, 219552, Note_on_c, 0, 79, 0
2, 219600, Note_on_c, 0, 79, 100
2, 219696, Note_on_c, 0, 79, 0
2, 219720, Note_on_c, 0, 87, 100
2, 219816, Note_on_c, 0, 87, 0
2, 219840, Note_on_c, 0, 78, 101
2, 219936, Note_on_c, 0, 78, 0
2, 219960, Note_on_c, 0, 81, 101
2, 220056, Note_on_c, 0, 81, 0
2, 220080, Note_on_c, 0, 84, 102
2, 220176, Note_on_c, 0, 84, 0
2, 220200, Note_on_c, 0, 82, 102
2, 220248, Note_on_c, 0, 82, 0
2, 220260, Note_on_c, 0, 81, 102
2, 220308, Note_on_c, 0, 81, 0
2, 220320, Note_on_c, 0, 82, 103
2, 220368, Note_on_c, 0, 82, 0
2, 220380, Note_on_c, 0, 74, 103
2, 220428, Note_on_c, 0, 74, 0
2, 220440, Note_on_c, 0, 75, 103
2, 220488, Note_on_c, 0, 75, 0
2, 220500, Note_on_c, 0, 72, 103
2, 220548, Note_on_c, 0, 72, 0
2, 220560, Note_on_c, 0, 74, 103
2, 220608, Note_on_c, 0, 74, 0
2, 220620, Note_on_c, 0, 70, 103
2, 220668, Note_on_c, 0, 70, 0
2, 220680, Note_on_c, 0, 72, 103
2, 220728, Note_on_c, 0, 72, 0
2, 220740, Note_on_c, 0, 69, 103
2, 220788, Note_on_c, 0, 69, 0
2, 220800, Note_on_c, 0, 70, 103
2, 220848, Note_on_c, 0, 70, 0
2, 220860, Note_on_c, 0, 67, 103
2, 220908, Note_on_c, 0, 67, 0
2, 220920, Note_on_c, 0, 69, 103
2, 220968, Note_on_c, 0, 69, 0
2, 220980, Note_on_c, 0, 66, 103
2, 221028, Note_on_c, 0, 66, 0
2, 221040, Note_on_c, 0, 67, 103
2, 221136, Note_on_c, 0, 67, 0
2, 221160, Note_on_c, 0, 75, 103
2, 221256, Note_on_c, 0, 75, 0
2, 221280, Note_on_c, 0, 75, 103
2, 221376, Note_on_c, 0, 75, 0
2, 221400, Note_on_c, 0, 74, 103
2, 221496, Note_on_c, 0, 74, 0
2, 221520, Note_on_c, 0, 74, 103
2, 221568, Note_on_c, 0, 74, 0
2, 221580, Note_on_c, 0, 76, 103
2, 221628, Note_on_c, 0, 76, 0
2, 221640, Note_on_c, 0, 78, 103
2, 221688, Note_on_c, 0, 78, 0
2, 221700, Note_on_c, 0, 74, 103
2, 221748, Note_on_c, 0, 74, 0
2, 221760, Note_on_c, 0, 79, 103
2, 221808, Note_on_c, 0, 79, 0
2, 221820, Note_on_c, 0, 78, 103
2, 221868, Note_on_c, 0, 78, 0
2, 221880, Note_on_c, 0, 79, 103
2, 222060, Note_on_c, 0, 79, 0
2, 222060, Note_on_c, 0, 81, 103
2, 222108, Note_on_c, 0, 81, 0
2, 222120, Note_on_c, 0, 82, 103
2, 222168, Note_on_c, 0, 82, 0
2, 222180, Note_on_c, 0, 81, 103
2, 222228, Note_on_c, 0, 81, 0
2, 222240, Note_on_c, 0, 84, 103
2, 222288, Note_on_c, 0, 84, 0
2, 222300, Note_on_c, 0, 82, 103
2, 222348, Note_on_c, 0, 82, 0
2, 222360, Note_on_c, 0, 81, 103
2, 222408, Note_on_c, 0, 81, 0
2, 222420, Note_on_c, 0, 79, 103
2, 222468, Note_on_c, 0, 79, 0
2, 222480, Note_on_c, 0, 85, 103
2, 222528, Note_on_c, 0, 85, 0
2, 222540, Note_on_c, 0, 86, 103
2, 222588, Note_on_c, 0, 86, 0
2, 222600, Note_on_c, 0, 74, 103
2, 222696, Note_on_c, 0, 74, 0
2, 223080, Note_on_c, 0, 74, 90
2, 223128, Note_on_c, 0, 74, 0
2, 223140, Note_on_c, 0, 75, 90
2, 223188, Note_on_c, 0, 75, 0
2, 223200, Note_on_c, 0, 77, 90
2, 223296, Note_on_c, 0, 77, 0
2, 223320, Note_on_c, 0, 80, 90
2, 223512, Note_on_c, 0, 80, 0
2, 223560, Note_on_c, 0, 79, 90
2, 223656, Note_on_c, 0, 79, 0
2, 223680, Note_on_c, 0, 71, 90
2, 223776, Note_on_c, 0, 71, 0
2, 223800, Note_on_c, 0, 72, 90
2, 223896, Note_on_c, 0, 72, 0
2, 223920, Note_on_c, 0, 77, 90
2, 223968, Note_on_c, 0, 77, 0
2, 223980, Note_on_c, 0, 74, 90
2, 224028, Note_on_c, 0, 74, 0
2, 224040, Note_on_c, 0, 75, 90
2, 224136, Note_on_c, 0, 75, 0
2, 224520, Note_on_c, 0, 76, 87
2, 224568, Note_on_c, 0, 76, 0
2, 224580, Note_on_c, 0, 77, 87
2, 224628, Note_on_c, 0, 77, 0
2, 224640, Note_on_c, 0, 79, 88
2, 224736, Note_on_c, 0, 79, 0
2, 224760, Note_on_c, 0, 82, 90
2, 224952, Note_on_c, 0, 82, 0
2, 225000, Note_on_c, 0, 81, 94
2, 225096, Note_on_c, 0, 81, 0
2, 225120, Note_on_c, 0, 73, 96
2, 225216, Note_on_c, 0, 73, 0
2, 225240, Note_on_c, 0, 74, 97
2, 225336, Note_on_c, 0, 74, 0
2, 225360, Note_on_c, 0, 79, 100
2, 225408, Note_on_c, 0, 79, 0
2, 225420, Note_on_c, 0, 76, 100
2, 225468, Note_on_c, 0, 76, 0
2, 225480, Note_on_c, 0, 78, 100
2, 225576, Note_on_c, 0, 78, 0
2, 225960, Note_on_c, 0, 86, 100
2, 226008, Note_on_c, 0, 86, 0
2, 226020, Note_on_c, 0, 85, 100
2, 226068, Note_on_c, 0, 85, 0
2, 226080, Note_on_c, 0, 86, 100
2, 226128, Note_on_c, 0, 86, 0
2, 226140, Note_on_c, 0, 81, 100
2, 226188, Note_on_c, 0, 81, 0
2, 226200, Note_on_c, 0, 82, 100
2, 226248, Note_on_c, 0, 82, 0
2, 226260, Note_on_c, 0, 79, 100
2, 226308, Note_on_c, 0, 79, 0
2, 226320, Note_on_c, 0, 81, 100
2, 226368, Note_on_c, 0, 81, 0
2, 226380, Note_on_c, 0, 78, 100
2, 226428, Note_on_c, 0, 78, 0
2, 226440, Note_on_c, 0, 79, 100
2, 226488, Note_on_c, 0, 79, 0
2, 226500, Note_on_c, 0, 76, 100
2, 226548, Note_on_c, 0, 76, 0
2, 226560, Note_on_c, 0, 78, 100
2, 226608, Note_on_c, 0, 78, 0
2, 226620, Note_on_c, 0, 74, 100
2, 226668, Note_on_c, 0, 74, 0
2, 226680, Note_on_c, 0, 78, 100
2, 226728, Note_on_c, 0, 78, 0
2, 226740, Note_on_c, 0, 81, 100
2, 226788, Note_on_c, 0, 81, 0
2, 226800, Note_on_c, 0, 84, 100
2, 226848, Note_on_c, 0, 84, 0
2, 226860, Note_on_c, 0, 81, 100
2, 226908, Note_on_c, 0, 81, 0
2, 226920, Note_on_c, 0, 82, 100
2, 226968, Note_on_c, 0, 82, 0
2, 226980, Note_on_c, 0, 79, 100
2, 227028, Note_on_c, 0, 79, 0
2, 227040, Note_on_c, 0, 81, 100
2, 227088, Note_on_c, 0, 81, 0
2, 227100, Note_on_c, 0, 78, 100
2, 227148, Note_on_c, 0, 78, 0
2, 227160, Note_on_c, 0, 79, 100
2, 227208, Note_on_c, 0, 79, 0
2, 227220, Note_on_c, 0, 76, 100
2, 227268, Note_on_c, 0, 76, 0
2, 227280, Note_on_c, 0, 78, 100
2, 227328, Note_on_c, 0, 78, 0
2, 227340, Note_on_c, 0, 74, 100
2, 227388, Note_on_c, 0, 74, 0
2, 227400, Note_on_c, 0, 78, 100
2, 227448, Note_on_c, 0, 78, 0
2, 227460, Note_on_c, 0, 81, 100
2, 227508, Note_on_c, 0, 81, 0
2, 227520, Note_on_c, 0, 82, 101
2, 227616, Note_on_c, 0, 82, 0
2, 230520, Note_on_c, 0, 74, 90
2, 230568, Note_on_c, 0, 74, 0
2, 230580, Note_on_c, 0, 72, 90
2, 230628, Note_on_c, 0, 72, 0
2, 230640, Note_on_c, 0, 74, 90
2, 230736, Note_on_c, 0, 74, 0
2, 230760, Note_on_c, 0, 82, 90
2, 230856, Note_on_c, 0, 82, 0
2, 230880, Note_on_c, 0, 78, 90
2, 230976, Note_on_c, 0, 78, 0
2, 231000, Note_on_c, 0, 79, 90
2, 231096, Note_on_c, 0, 79, 0
2, 231240, Note_on_c, 0, 72, 90
2, 231288, Note_on_c, 0, 72, 0
2, 231300, Note_on_c, 0, 70, 90
2, 231348, Note_on_c, 0, 70, 0
2, 231360, Note_on_c, 0, 72, 90
2, 231456, Note_on_c, 0, 72, 0
2, 231480, Note_on_c, 0, 81, 90
2, 231660, Note_on_c, 0, 81, 0
2, 231660, Note_on_c, 0, 79, 90
2, 231708, Note_on_c, 0, 79, 0
2, 231720, Note_on_c, 0, 78, 90
2, 231768, Note_on_c, 0, 78, 0
2, 231780, Note_on_c, 0, 79, 90
2, 231828, Note_on_c, 0, 79, 0
2, 231840, Note_on_c, 0, 81, 90
2, 231888, Note_on_c, 0, 81, 0
2, 231900, Note_on_c, 0, 79, 90
2, 231948, Note_on_c, 0, 79, 0
2, 231960, Note_on_c, 0, 78, 90
2, 232008, Note_on_c, 0, 78, 0
2, 232020, Note_on_c, 0, 76, 90
2, 232068, Note_on_c, 0, 76, 0
2, 232080, Note_on_c, 0, 74, 90
2, 232128, Note_on_c, 0, 74, 0
2, 232140, Note_on_c, 0, 72, 90
2, 232188, Note_on_c, 0, 72, 0
2, 232200, Note_on_c, 0, 75, 90
2, 232440, Note_on_c, 0, 75, 0
2, 232440, Note_on_c, 0, 74, 90
2, 232608, Note_on_c, 0, 74, 0
2, 232620, Note_on_c, 0, 72, 89
2, 232668, Note_on_c, 0, 72, 0
2, 232680, Note_on_c, 0, 70, 89
2, 232728, Note_on_c, 0, 70, 0
2, 232740, Note_on_c, 0, 69, 89
2, 232788, Note_on_c, 0, 69, 0
2, 232800, Note_on_c, 0, 70, 88
2, 232848, Note_on_c, 0, 70, 0
2, 232860, Note_on_c, 0, 67, 88
2, 232908, Note_on_c, 0, 67, 0
2, 232920, Note_on_c, 0, 69, 88
2, 232968, Note_on_c, 0, 69, 0
2, 232980, Note_on_c, 0, 66, 87
2, 233028, Note_on_c, 0, 66, 0
2, 233040, Note_on_c, 0, 67, 87
2, 233088, Note_on_c, 0, 67, 0
2, 233100, Note_on_c, 0, 62, 87
2, 233148, Note_on_c, 0, 62, 0
2, 233160, Note_on_c, 0, 67, 86
2, 233208, Note_on_c, 0, 67, 0
2, 233220, Note_on_c, 0, 66, 86
2, 233268, Note_on_c, 0, 66, 0
2, 233280, Note_on_c, 0, 67, 85
2, 233328, Note_on_c, 0, 67, 0
2, 233340, Note_on_c, 0, 62, 85
2, 233388, Note_on_c, 0, 62, 0
2, 233400, Note_on_c, 0, 70, 85
2, 233448, Note_on_c, 0, 70, 0
2, 233460, Note_on_c, 0, 69, 85
2, 233508, Note_on_c, 0, 69, 0
2, 233520, Note_on_c, 0, 71, 86
2, 233568, Note_on_c, 0, 71, 0
2, 233580, Note_on_c, 0, 67, 86
2, 233628, Note_on_c, 0, 67, 0
2, 233640, Note_on_c, 0, 74, 86
2, 233688, Note_on_c, 0, 74, 0
2, 233700, Note_on_c, 0, 72, 87
2, 233748, Note_on_c, 0, 72, 0
2, 233760, Note_on_c, 0, 74, 87
2, 233808, Note_on_c, 0, 74, 0
2, 233820, Note_on_c, 0, 67, 87
2, 233868, Note_on_c, 0, 67, 0
2, 233880, Note_on_c, 0, 72, 88
2, 233928, Note_on_c, 0, 72, 0
2, 233940, Note_on_c, 0, 74, 88
2, 233988, Note_on_c, 0, 74, 0
2, 234000, Note_on_c, 0, 75, 88
2, 234048, Note_on_c, 0, 75, 0
2, 234060, Note_on_c, 0, 79, 89
2, 234108, Note_on_c, 0, 79, 0
2, 234120, Note_on_c, 0, 72, 89
2, 234168, Note_on_c, 0, 72, 0
2, 234180, Note_on_c, 0, 71, 88
2, 234228, Note_on_c, 0, 71, 0
2, 234240, Note_on_c, 0, 72, 88
2, 234288, Note_on_c, 0, 72, 0
2, 234300, Note_on_c, 0, 79, 88
2, 234348, Note_on_c, 0, 79, 0
2, 234360, Note_on_c, 0, 70, 87
2, 234408, Note_on_c, 0, 70, 0
2, 234420, Note_on_c, 0, 69, 87
2, 234468, Note_on_c, 0, 69, 0
2, 234480, Note_on_c, 0, 70, 86
2, 234528, Note_on_c, 0, 70, 0
2, 234540, Note_on_c, 0, 79, 86
2, 234588, Note_on_c, 0, 79, 0
2, 234600, Note_on_c, 0, 69, 85
2, 234648, Note_on_c, 0, 69, 0
2, 234660, Note_on_c, 0, 67, 85
2, 234708, Note_on_c, 0, 67, 0
2, 234720, Note_on_c, 0, 69, 85
2, 234768, Note_on_c, 0, 69, 0
2, 234780, Note_on_c, 0, 64, 84
2, 234828, Note_on_c, 0, 64, 0
2, 234840, Note_on_c, 0, 73, 84
2, 234888, Note_on_c, 0, 73, 0
2, 234900, Note_on_c, 0, 71, 85
2, 234948, Note_on_c, 0, 71, 0
2, 234960, Note_on_c, 0, 73, 86
2, 235008, Note_on_c, 0, 73, 0
2, 235020, Note_on_c, 0, 69, 86
2, 235068, Note_on_c, 0, 69, 0
2, 235080, Note_on_c, 0, 76, 87
2, 235128, Note_on_c, 0, 76, 0
2, 235140, Note_on_c, 0, 74, 87
2, 235188, Note_on_c, 0, 74, 0
2, 235200, Note_on_c, 0, 76, 88
2, 235248, Note_on_c, 0, 76, 0
2, 235260, Note_on_c, 0, 69, 89
2, 235308, Note_on_c, 0, 69, 0
2, 235320, Note_on_c, 0, 74, 89
2, 235368, Note_on_c, 0, 74, 0
2, 235380, Note_on_c, 0, 76, 90
2, 235428, Note_on_c, 0, 76, 0
2, 235440, Note_on_c, 0, 77, 90
2, 235488, Note_on_c, 0, 77, 0
2, 235500, Note_on_c, 0, 81, 91
2, 235548, Note_on_c, 0, 81, 0
2, 235560, Note_on_c, 0, 74, 91
2, 235608, Note_on_c, 0, 74, 0
2, 235620, Note_on_c, 0, 73, 92
2, 235668, Note_on_c, 0, 73, 0
2, 235680, Note_on_c, 0, 74, 93
2, 235728, Note_on_c, 0, 74, 0
2, 235740, Note_on_c, 0, 80, 93
2, 235788, Note_on_c, 0, 80, 0
2, 235800, Note_on_c, 0, 74, 94
2, 235848, Note_on_c, 0, 74, 0
2, 235860, Note_on_c, 0, 73, 94
2, 235908, Note_on_c, 0, 73, 0
2, 235920, Note_on_c, 0, 74, 95
2, 235968, Note_on_c, 0, 74, 0
2, 235980, Note_on_c, 0, 83, 96
2, 236028, Note_on_c, 0, 83, 0
2, 236040, Note_on_c, 0, 72, 96
2, 236088, Note_on_c, 0, 72, 0
2, 236100, Note_on_c, 0, 71, 96
2, 236148, Note_on_c, 0, 71, 0
2, 236160, Note_on_c, 0, 69, 96
2, 236208, Note_on_c, 0, 69, 0
2, 236220, Note_on_c, 0, 72, 96
2, 236268, Note_on_c, 0, 72, 0
2, 236280, Note_on_c, 0, 77, 96
2, 236328, Note_on_c, 0, 77, 0
2, 236340, Note_on_c, 0, 81, 96
2, 236388, Note_on_c, 0, 81, 0
2, 236400, Note_on_c, 0, 84, 96
2, 236448, Note_on_c, 0, 84, 0
2, 236460, Note_on_c, 0, 81, 96
2, 236508, Note_on_c, 0, 81, 0
2, 236520, Note_on_c, 0, 82, 96
2, 236568, Note_on_c, 0, 82, 0
2, 236580, Note_on_c, 0, 79, 96
2, 236628, Note_on_c, 0, 79, 0
2, 236640, Note_on_c, 0, 81, 96
2, 236736, Note_on_c, 0, 81, 0
2, 236760, Note_on_c, 0, 84, 96
2, 236928, Note_on_c, 0, 84, 0
2, 236940, Note_on_c, 0, 74, 96
2, 236988, Note_on_c, 0, 74, 0
2, 237000, Note_on_c, 0, 77, 96
2, 237048, Note_on_c, 0, 77, 0
2, 237060, Note_on_c, 0, 82, 96
2, 237108, Note_on_c, 0, 82, 0
2, 237120, Note_on_c, 0, 86, 96
2, 237168, Note_on_c, 0, 86, 0
2, 237180, Note_on_c, 0, 82, 96
2, 237228, Note_on_c, 0, 82, 0
2, 237240, Note_on_c, 0, 84, 96
2, 237288, Note_on_c, 0, 84, 0
2, 237300, Note_on_c, 0, 81, 96
2, 237348, Note_on_c, 0, 81, 0
2, 237360, Note_on_c, 0, 83, 96
2, 237456, Note_on_c, 0, 83, 0
2, 237480, Note_on_c, 0, 86, 96
2, 237648, Note_on_c, 0, 86, 0
2, 237660, Note_on_c, 0, 76, 96
2, 237708, Note_on_c, 0, 76, 0
2, 237720, Note_on_c, 0, 79, 96
2, 237768, Note_on_c, 0, 79, 0
2, 237780, Note_on_c, 0, 84, 96
2, 237828, Note_on_c, 0, 84, 0
2, 237840, Note_on_c, 0, 88, 96
2, 237888, Note_on_c, 0, 88, 0
2, 237900, Note_on_c, 0, 85, 96
2, 237948, Note_on_c, 0, 85, 0
2, 237960, Note_on_c, 0, 86, 96
2, 238008, Note_on_c, 0, 86, 0
2, 238020, Note_on_c, 0, 83, 96
2, 238068, Note_on_c, 0, 83, 0
2, 238080, Note_on_c, 0, 85, 95
2, 238176, Note_on_c, 0, 85, 0
2, 238200, Note_on_c, 0, 88, 91
2, 238368, Note_on_c, 0, 88, 0
2, 238380, Note_on_c, 0, 69, 87
2, 238428, Note_on_c, 0, 69, 0
2, 238440, Note_on_c, 0, 74, 86
2, 238488, Note_on_c, 0, 74, 0
2, 238500, Note_on_c, 0, 76, 84
2, 238548, Note_on_c, 0, 76, 0
2, 238560, Note_on_c, 0, 77, 83
2, 238608, Note_on_c, 0, 77, 0
2, 238620, Note_on_c, 0, 74, 82
2, 238668, Note_on_c, 0, 74, 0
2, 238680, Note_on_c, 0, 69, 80
2, 238728, Note_on_c, 0, 69, 0
2, 238740, Note_on_c, 0, 74, 79
2, 238788, Note_on_c, 0, 74, 0
2, 238800, Note_on_c, 0, 65, 77
2, 238848, Note_on_c, 0, 65, 0
2, 238860, Note_on_c, 0, 69, 76
2, 238908, Note_on_c, 0, 69, 0
2, 238920, Note_on_c, 0, 62, 75
2, 238968, Note_on_c, 0, 62, 0
2, 238980, Note_on_c, 0, 69, 73
2, 239028, Note_on_c, 0, 69, 0
2, 239040, Note_on_c, 0, 60, 72
2, 239088, Note_on_c, 0, 60, 0
2, 239100, Note_on_c, 0, 69, 71
2, 239148, Note_on_c, 0, 69, 0
2, 239160, Note_on_c, 0, 74, 71
2, 239208, Note_on_c, 0, 74, 0
2, 239220, Note_on_c, 0, 76, 71
2, 239268, Note_on_c, 0, 76, 0
2, 239280, Note_on_c, 0, 78, 71
2, 239328, Note_on_c, 0, 78, 0
2, 239340, Note_on_c, 0, 74, 72
2, 239388, Note_on_c, 0, 74, 0
2, 239400, Note_on_c, 0, 69, 72
2, 239448, Note_on_c, 0, 69, 0
2, 239460, Note_on_c, 0, 74, 72
2, 239508, Note_on_c, 0, 74, 0
2, 239520, Note_on_c, 0, 66, 72
2, 239568, Note_on_c, 0, 66, 0
2, 239580, Note_on_c, 0, 69, 72
2, 239628, Note_on_c, 0, 69, 0
2, 239640, Note_on_c, 0, 60, 73
2, 239688, Note_on_c, 0, 60, 0
2, 239700, Note_on_c, 0, 69, 73
2, 239748, Note_on_c, 0, 69, 0
2, 239760, Note_on_c, 0, 58, 73
2, 239808, Note_on_c, 0, 58, 0
2, 239820, Note_on_c, 0, 67, 73
2, 239868, Note_on_c, 0, 67, 0
2, 239880, Note_on_c, 0, 74, 74
2, 239928, Note_on_c, 0, 74, 0
2, 239940, Note_on_c, 0, 78, 74
2, 239988, Note_on_c, 0, 78, 0
2, 240000, Note_on_c, 0, 79, 74
2, 240048, Note_on_c, 0, 79, 0
2, 240060, Note_on_c, 0, 75, 74
2, 240108, Note_on_c, 0, 75, 0
2, 240120, Note_on_c, 0, 72, 74
2, 240168, Note_on_c, 0, 72, 0
2, 240180, Note_on_c, 0, 75, 75
2, 240228, Note_on_c, 0, 75, 0
2, 240240, Note_on_c, 0, 67, 75
2, 240288, Note_on_c, 0, 67, 0
2, 240300, Note_on_c, 0, 72, 75
2, 240348, Note_on_c, 0, 72, 0
2, 240360, Note_on_c, 0, 63, 75
2, 240408, Note_on_c, 0, 63, 0
2, 240420, Note_on_c, 0, 67, 76
2, 240468, Note_on_c, 0, 67, 0
2, 240480, Note_on_c, 0, 59, 76
2, 240528, Note_on_c, 0, 59, 0
2, 240540, Note_on_c, 0, 67, 76
2, 240588, Note_on_c, 0, 67, 0
2, 240600, Note_on_c, 0, 74, 76
2, 240648, Note_on_c, 0, 74, 0
2, 240660, Note_on_c, 0, 75, 76
2, 240708, Note_on_c, 0, 75, 0
2, 240720, Note_on_c, 0, 77, 77
2, 240768, Note_on_c, 0, 77, 0
2, 240780, Note_on_c, 0, 74, 77
2, 240828, Note_on_c, 0, 74, 0
2, 240840, Note_on_c, 0, 71, 77
2, 240888, Note_on_c, 0, 71, 0
2, 240900, Note_on_c, 0, 74, 77
2, 240948, Note_on_c, 0, 74, 0
2, 240960, Note_on_c, 0, 67, 78
2, 241008, Note_on_c, 0, 67, 0
2, 241020, Note_on_c, 0, 71, 78
2, 241068, Note_on_c, 0, 71, 0
2, 241080, Note_on_c, 0, 62, 78
2, 241128, Note_on_c, 0, 62, 0
2, 241140, Note_on_c, 0, 65, 78
2, 241188, Note_on_c, 0, 65, 0
2, 241200, Note_on_c, 0, 63, 78
2, 241392, Note_on_c, 0, 63, 0
2, 242040, Note_on_c, 0, 76, 76
2, 242136, Note_on_c, 0, 76, 0
2, 242160, Note_on_c, 0, 79, 78
2, 242256, Note_on_c, 0, 79, 0
2, 242280, Note_on_c, 0, 82, 79
2, 242376, Note_on_c, 0, 82, 0
2, 242400, Note_on_c, 0, 85, 81
2, 242496, Note_on_c, 0, 85, 0
2, 242520, Note_on_c, 0, 84, 82
2, 242616, Note_on_c, 0, 84, 0
2, 242640, Note_on_c, 0, 77, 84
2, 243456, Note_on_c, 0, 77, 0
2, 243480, Note_on_c, 0, 75, 95
2, 243576, Note_on_c, 0, 75, 0
2, 243600, Note_on_c, 0, 69, 96
2, 243696, Note_on_c, 0, 69, 0
2, 243720, Note_on_c, 0, 72, 93
2, 243816, Note_on_c, 0, 72, 0
2, 243840, Note_on_c, 0, 66, 93
2, 243936, Note_on_c, 0, 66, 0
2, 243960, Note_on_c, 0, 65, 93
2, 244176, Note_on_c, 0, 65, 0
2, 244200, Note_on_c, 0, 72, 93
2, 244296, Note_on_c, 0, 72, 0
2, 244320, Note_on_c, 0, 70, 93
2, 244416, Note_on_c, 0, 70, 0
2, 244440, Note_on_c, 0, 69, 93
2, 244536, Note_on_c, 0, 69, 0
2, 244560, Note_on_c, 0, 67, 93
2, 244896, Note_on_c, 0, 67, 0
2, 244920, Note_on_c, 0, 75, 93
2, 245016, Note_on_c, 0, 75, 0
2, 245040, Note_on_c, 0, 66, 93
2, 245136, Note_on_c, 0, 66, 0
2, 245160, Note_on_c, 0, 69, 93
2, 245256, Note_on_c, 0, 69, 0
2, 245280, Note_on_c, 0, 72, 93
2, 245376, Note_on_c, 0, 72, 0
2, 245400, Note_on_c, 0, 70, 93
2, 245448, Note_on_c, 0, 70, 0
2, 245460, Note_on_c, 0, 69, 93
2, 245508, Note_on_c, 0, 69, 0
2, 245520, Note_on_c, 0, 70, 93
2, 245616, Note_on_c, 0, 70, 0
2, 245640, Note_on_c, 0, 82, 93
2, 245736, Note_on_c, 0, 82, 0
2, 245760, Note_on_c, 0, 81, 93
2, 245856, Note_on_c, 0, 81, 0
2, 245880, Note_on_c, 0, 79, 93
2, 245976, Note_on_c, 0, 79, 0
2, 246000, Note_on_c, 0, 77, 93
2, 246096, Note_on_c, 0, 77, 0
2, 246120, Note_on_c, 0, 79, 93
2, 246168, Note_on_c, 0, 79, 0
2, 246180, Note_on_c, 0, 81, 93
2, 246228, Note_on_c, 0, 81, 0
2, 246240, Note_on_c, 0, 82, 93
2, 246528, Note_on_c, 0, 82, 0
2, 246600, Note_on_c, 0, 79, 93
2, 246696, Note_on_c, 0, 79, 0
2, 246720, Note_on_c, 0, 76, 93
2, 246816, Note_on_c, 0, 76, 0
2, 246840, Note_on_c, 0, 74, 93
2, 246888, Note_on_c, 0, 74, 0
2, 246900, Note_on_c, 0, 73, 93
2, 246948, Note_on_c, 0, 73, 0
2, 246960, Note_on_c, 0, 74, 93
2, 247008, Note_on_c, 0, 74, 0
2, 247020, Note_on_c, 0, 69, 93
2, 247068, Note_on_c, 0, 69, 0
2, 247080, Note_on_c, 0, 70, 93
2, 247128, Note_on_c, 0, 70, 0
2, 247140, Note_on_c, 0, 67, 93
2, 247188, Note_on_c, 0, 67, 0
2, 247200, Note_on_c, 0, 69, 93
2, 247248, Note_on_c, 0, 69, 0
2, 247260, Note_on_c, 0, 65, 93
2, 247308, Note_on_c, 0, 65, 0
2, 247320, Note_on_c, 0, 67, 93
2, 247368, Note_on_c, 0, 67, 0
2, 247380, Note_on_c, 0, 64, 93
2, 247428, Note_on_c, 0, 64, 0
2, 247440, Note_on_c, 0, 65, 93
2, 247488, Note_on_c, 0, 65, 0
2, 247500, Note_on_c, 0, 62, 93
2, 247548, Note_on_c, 0, 62, 0
2, 247560, Note_on_c, 0, 64, 93
2, 247608, Note_on_c, 0, 64, 0
2, 247620, Note_on_c, 0, 61, 93
2, 247668, Note_on_c, 0, 61, 0
2, 247680, Note_on_c, 0, 62, 93
2, 247776, Note_on_c, 0, 62, 0
2, 247800, Note_on_c, 0, 70, 93
2, 247896, Note_on_c, 0, 70, 0
2, 247920, Note_on_c, 0, 70, 93
2, 248016, Note_on_c, 0, 70, 0
2, 248040, Note_on_c, 0, 69, 93
2, 248220, Note_on_c, 0, 69, 0
2, 248220, Note_on_c, 0, 71, 93
2, 248268, Note_on_c, 0, 71, 0
2, 248280, Note_on_c, 0, 73, 93
2, 248328, Note_on_c, 0, 73, 0
2, 248340, Note_on_c, 0, 69, 93
2, 248388, Note_on_c, 0, 69, 0
2, 248400, Note_on_c, 0, 74, 93
2, 248448, Note_on_c, 0, 74, 0
2, 248460, Note_on_c, 0, 73, 93
2, 248508, Note_on_c, 0, 73, 0
2, 248520, Note_on_c, 0, 74, 93
2, 248700, Note_on_c, 0, 74, 0
2, 248700, Note_on_c, 0, 76, 93
2, 248748, Note_on_c, 0, 76, 0
2, 248760, Note_on_c, 0, 77, 93
2, 248808, Note_on_c, 0, 77, 0
2, 248820, Note_on_c, 0, 76, 93
2, 248868, Note_on_c, 0, 76, 0
2, 248880, Note_on_c, 0, 79, 93
2, 248928, Note_on_c, 0, 79, 0
2, 248940, Note_on_c, 0, 77, 93
2, 248988, Note_on_c, 0, 77, 0
2, 249000, Note_on_c, 0, 76, 93
2, 249048, Note_on_c, 0, 76, 0
2, 249060, Note_on_c, 0, 74, 93
2, 249108, Note_on_c, 0, 74, 0
2, 249120, Note_on_c, 0, 80, 93
2, 249168, Note_on_c, 0, 80, 0
2, 249180, Note_on_c, 0, 81, 93
2, 249228, Note_on_c, 0, 81, 0
2, 249240, Note_on_c, 0, 69, 93
2, 249336, Note_on_c, 0, 69, 0
2, 249720, Note_on_c, 0, 81, 90
2, 249768, Note_on_c, 0, 81, 0
2, 249780, Note_on_c, 0, 82, 87
2, 249828, Note_on_c, 0, 82, 0
2, 249840, Note_on_c, 0, 74, 87
2, 249840, Note_on_c, 0, 84, 87
2, 249936, Note_on_c, 0, 84, 0
2, 249936, Note_on_c, 0, 74, 0
2, 249960, Note_on_c, 0, 74, 87
2, 249960, Note_on_c, 0, 84, 87
2, 250056, Note_on_c, 0, 84, 0
2, 250056, Note_on_c, 0, 74, 0
2, 250080, Note_on_c, 0, 84, 87
2, 250080, Note_on_c, 0, 74, 87
2, 250176, Note_on_c, 0, 74, 0
2, 250176, Note_on_c, 0, 84, 0
2, 250200, Note_on_c, 0, 74, 87
2, 250200, Note_on_c, 0, 84, 87
2, 250296, Note_on_c, 0, 84, 0
2, 250296, Note_on_c, 0, 74, 0
2, 250320, Note_on_c, 0, 84, 88
2, 250320, Note_on_c, 0, 74, 88
2, 250416, Note_on_c, 0, 74, 0
2, 250416, Note_on_c, 0, 84, 0
2, 250440, Note_on_c, 0, 74, 88
2, 250440, Note_on_c, 0, 84, 88
2, 250536, Note_on_c, 0, 84, 0
2, 250536, Note_on_c, 0, 74, 0
2, 250560, Note_on_c, 0, 82, 88
2, 250560, Note_on_c, 0, 74, 88
2, 250656, Note_on_c, 0, 74, 0
2, 250656, Note_on_c, 0, 82, 0
2, 250680, Note_on_c, 0, 82, 88
2, 250680, Note_on_c, 0, 74, 88
2, 250776, Note_on_c, 0, 74, 0
2, 250776, Note_on_c, 0, 82, 0
2, 250800, Note_on_c, 0, 74, 89
2, 250800, Note_on_c, 0, 82, 89
2, 250896, Note_on_c, 0, 82, 0
2, 250896, Note_on_c, 0, 74, 0
2, 250920, Note_on_c, 0, 74, 89
2, 250920, Note_on_c, 0, 82, 89
2, 251016, Note_on_c, 0, 82, 0
2, 251016, Note_on_c, 0, 74, 0
2, 251040, Note_on_c, 0, 74, 89
2, 251040, Note_on_c, 0, 82, 89
2, 251136, Note_on_c, 0, 82, 0
2, 251136, Note_on_c, 0, 74, 0
2, 251160, Note_on_c, 0, 82, 89
2, 251160, Note_on_c, 0, 74, 89
2, 251256, Note_on_c, 0, 74, 0
2, 251256, Note_on_c, 0, 82, 0
2, 251280, Note_on_c, 0, 85, 89
2, 251280, Note_on_c, 0, 76, 89
2, 251376, Note_on_c, 0, 76, 0
2, 251376, Note_on_c, 0, 85, 0
2, 251400, Note_on_c, 0, 85, 90
2, 251400, Note_on_c, 0, 76, 90
2, 251496, Note_on_c, 0, 76, 0
2, 251496, Note_on_c, 0, 85, 0
2, 251520, Note_on_c, 0, 76, 90
2, 251520, Note_on_c, 0, 85, 90
2, 251616, Note_on_c, 0, 85, 0
2, 251616, Note_on_c, 0, 76, 0
2, 251640, Note_on_c, 0, 76, 90
2, 251640, Note_on_c, 0, 85, 90
2, 251736, Note_on_c, 0, 85, 0
2, 251736, Note_on_c, 0, 76, 0
2, 251760, Note_on_c, 0, 76, 90
2, 251760, Note_on_c, 0, 85, 90
2, 251856, Note_on_c, 0, 85, 0
2, 251856, Note_on_c, 0, 76, 0
2, 251880, Note_on_c, 0, 85, 91
2, 251880, Note_on_c, 0, 76, 91
2, 251976, Note_on_c, 0, 76, 0
2, 251976, Note_on_c, 0, 85, 0
2, 252000, Note_on_c, 0, 86, 91
2, 252000, Note_on_c, 0, 74, 91
2, 252096, Note_on_c, 0, 74, 0
2, 252096, Note_on_c, 0, 86, 0
2, 252120, Note_on_c, 0, 86, 91
2, 252120, Note_on_c, 0, 74, 91
2, 252216, Note_on_c, 0, 74, 0
2, 252216, Note_on_c, 0, 86, 0
2, 252240, Note_on_c, 0, 74, 91
2, 252240, Note_on_c, 0, 86, 91
2, 252336, Note_on_c, 0, 86, 0
2, 252336, Note_on_c, 0, 74, 0
2, 252360, Note_on_c, 0, 86, 91
2, 252360, Note_on_c, 0, 74, 91
2, 252456, Note_on_c, 0, 74, 0
2, 252456, Note_on_c, 0, 86, 0
2, 252480, Note_on_c, 0, 74, 92
2, 252480, Note_on_c, 0, 86, 92
2, 252576, Note_on_c, 0, 86, 0
2, 252576, Note_on_c, 0, 74, 0
2, 252600, Note_on_c, 0, 86, 92
2, 252600, Note_on_c, 0, 74, 92
2, 252696, Note_on_c, 0, 74, 0
2, 252696, Note_on_c, 0, 86, 0
2, 252720, Note_on_c, 0, 74, 92
2, 252720, Note_on_c, 0, 82, 92
2, 252816, Note_on_c, 0, 82, 0
2, 252816, Note_on_c, 0, 74, 0
2, 252840, Note_on_c, 0, 82, 92
2, 252840, Note_on_c, 0, 74, 92
2, 252936, Note_on_c, 0, 74, 0
2, 252936, Note_on_c, 0, 82, 0
2, 252960, Note_on_c, 0, 82, 93
2, 252960, Note_on_c, 0, 72, 93
2, 253056, Note_on_c, 0, 72, 0
2, 253056, Note_on_c, 0, 82, 0
2, 253080, Note_on_c, 0, 82, 93
2, 253080, Note_on_c, 0, 72, 93
2, 253176, Note_on_c, 0, 72, 0
2, 253176, Note_on_c, 0, 82, 0
2, 253200, Note_on_c, 0, 82, 93
2, 253200, Note_on_c, 0, 72, 93
2, 253296, Note_on_c, 0, 72, 0
2, 253296, Note_on_c, 0, 82, 0
2, 253320, Note_on_c, 0, 72, 93
2, 253320, Note_on_c, 0, 82, 93
2, 253416, Note_on_c, 0, 82, 0
2, 253416, Note_on_c, 0, 72, 0
2, 253440, Note_on_c, 0, 72, 94
2, 253440, Note_on_c, 0, 81, 94
2, 253536, Note_on_c, 0, 81, 0
2, 253536, Note_on_c, 0, 72, 0
2, 253560, Note_on_c, 0, 72, 93
2, 253560, Note_on_c, 0, 81, 93
2, 253656, Note_on_c, 0, 81, 0
2, 253656, Note_on_c, 0, 72, 0
2, 253680, Note_on_c, 0, 81, 93
2, 253680, Note_on_c, 0, 70, 93
2, 253776, Note_on_c, 0, 70, 0
2, 253776, Note_on_c, 0, 81, 0
2, 253800, Note_on_c, 0, 70, 92
2, 253800, Note_on_c, 0, 81, 92
2, 253896, Note_on_c, 0, 81, 0
2, 253896, Note_on_c, 0, 70, 0
2, 253920, Note_on_c, 0, 81, 91
2, 253920, Note_on_c, 0, 70, 91
2, 254016, Note_on_c, 0, 70, 0
2, 254016, Note_on_c, 0, 81, 0
2, 254040, Note_on_c, 0, 70, 90
2, 254040, Note_on_c, 0, 81, 90
2, 254136, Note_on_c, 0, 81, 0
2, 254136, Note_on_c, 0, 70, 0
2, 254160, Note_on_c, 0, 79, 89
2, 254160, Note_on_c, 0, 70, 89
2, 254256, Note_on_c, 0, 70, 0
2, 254256, Note_on_c, 0, 79, 0
2, 254280, Note_on_c, 0, 79, 88
2, 254280, Note_on_c, 0, 70, 88
2, 254376, Note_on_c, 0, 70, 0
2, 254376, Note_on_c, 0, 79, 0
2, 254400, Note_on_c, 0, 79, 87
2, 254400, Note_on_c, 0, 69, 87
2, 254496, Note_on_c, 0, 69, 0
2, 254496, Note_on_c, 0, 79, 0
2, 254520, Note_on_c, 0, 79, 89
2, 254520, Note_on_c, 0, 69, 89
2, 254616, Note_on_c, 0, 69, 0
2, 254616, Note_on_c, 0, 79, 0
2, 254640, Note_on_c, 0, 79, 91
2, 254640, Note_on_c, 0, 69, 91
2, 254736, Note_on_c, 0, 69, 0
2, 254736, Note_on_c, 0, 79, 0
2, 254760, Note_on_c, 0, 79, 93
2, 254760, Note_on_c, 0, 69, 93
2, 254856, Note_on_c, 0, 69, 0
2, 254856, Note_on_c, 0, 79, 0
2, 254880, Note_on_c, 0, 69, 96
2, 254880, Note_on_c, 0, 77, 96
2, 254976, Note_on_c, 0, 77, 0
2, 254976, Note_on_c, 0, 69, 0
2, 255000, Note_on_c, 0, 70, 96
2, 255048, Note_on_c, 0, 70, 0
2, 255060, Note_on_c, 0, 67, 96
2, 255108, Note_on_c, 0, 67, 0
2, 255120, Note_on_c, 0, 69, 96
2, 255168, Note_on_c, 0, 69, 0
2, 255180, Note_on_c, 0, 65, 96
2, 255228, Note_on_c, 0, 65, 0
2, 255240, Note_on_c, 0, 67, 95
2, 255288, Note_on_c, 0, 67, 0
2, 255300, Note_on_c, 0, 64, 95
2, 255348, Note_on_c, 0, 64, 0
2, 255360, Note_on_c, 0, 65, 95
2, 255408, Note_on_c, 0, 65, 0
2, 255420, Note_on_c, 0, 62, 95
2, 255468, Note_on_c, 0, 62, 0
2, 255480, Note_on_c, 0, 64, 95
2, 255528, Note_on_c, 0, 64, 0
2, 255540, Note_on_c, 0, 61, 94
2, 255588, Note_on_c, 0, 61, 0
2, 255600, Note_on_c, 0, 62, 94
2, 255696, Note_on_c, 0, 62, 0
2, 255720, Note_on_c, 0, 70, 94
2, 255816, Note_on_c, 0, 70, 0
2, 255840, Note_on_c, 0, 70, 93
2, 255936, Note_on_c, 0, 70, 0
2, 255960, Note_on_c, 0, 69, 93
2, 256140, Note_on_c, 0, 69, 0
2, 256140, Note_on_c, 0, 71, 93
2, 256188, Note_on_c, 0, 71, 0
2, 256200, Note_on_c, 0, 73, 92
2, 256248, Note_on_c, 0, 73, 0
2, 256260, Note_on_c, 0, 69, 92
2, 256308, Note_on_c, 0, 69, 0
2, 256320, Note_on_c, 0, 74, 92
2, 256368, Note_on_c, 0, 74, 0
2, 256380, Note_on_c, 0, 73, 92
2, 256428, Note_on_c, 0, 73, 0
2, 256440, Note_on_c, 0, 74, 92
2, 256620, Note_on_c, 0, 74, 0
2, 256620, Note_on_c, 0, 76, 90
2, 256668, Note_on_c, 0, 76, 0
2, 256680, Note_on_c, 0, 77, 90
2, 256728, Note_on_c, 0, 77, 0
2, 256740, Note_on_c, 0, 76, 90
2, 256788, Note_on_c, 0, 76, 0
2, 256800, Note_on_c, 0, 79, 90
2, 256848, Note_on_c, 0, 79, 0
2, 256860, Note_on_c, 0, 77, 90
2, 256908, Note_on_c, 0, 77, 0
2, 256920, Note_on_c, 0, 76, 90
2, 256968, Note_on_c, 0, 76, 0
2, 256980, Note_on_c, 0, 74, 90
2, 257028, Note_on_c, 0, 74, 0
2, 257040, Note_on_c, 0, 80, 90
2, 257088, Note_on_c, 0, 80, 0
2, 257100, Note_on_c, 0, 81, 90
2, 257148, Note_on_c, 0, 81, 0
2, 257160, Note_on_c, 0, 69, 90
2, 257256, Note_on_c, 0, 69, 0
2, 257640, Note_on_c, 0, 69, 90
2, 257688, Note_on_c, 0, 69, 0
2, 257700, Note_on_c, 0, 70, 90
2, 257748, Note_on_c, 0, 70, 0
2, 257760, Note_on_c, 0, 72, 90
2, 257856, Note_on_c, 0, 72, 0
2, 257880, Note_on_c, 0, 75, 90
2, 258072, Note_on_c, 0, 75, 0
2, 258120, Note_on_c, 0, 74, 90
2, 258216, Note_on_c, 0, 74, 0
2, 258240, Note_on_c, 0, 66, 90
2, 258336, Note_on_c, 0, 66, 0
2, 258360, Note_on_c, 0, 67, 90
2, 258456, Note_on_c, 0, 67, 0
2, 258480, Note_on_c, 0, 72, 90
2, 258528, Note_on_c, 0, 72, 0
2, 258540, Note_on_c, 0, 69, 90
2, 258588, Note_on_c, 0, 69, 0
2, 258600, Note_on_c, 0, 70, 90
2, 258696, Note_on_c, 0, 70, 0
2, 259080, Note_on_c, 0, 71, 86
2, 259128, Note_on_c, 0, 71, 0
2, 259140, Note_on_c, 0, 72, 86
2, 259188, Note_on_c, 0, 72, 0
2, 259200, Note_on_c, 0, 74, 86
2, 259296, Note_on_c, 0, 74, 0
2, 259320, Note_on_c, 0, 77, 87
2, 259512, Note_on_c, 0, 77, 0
2, 259560, Note_on_c, 0, 76, 89
2, 259656, Note_on_c, 0, 76, 0
2, 259680, Note_on_c, 0, 68, 90
2, 259776, Note_on_c, 0, 68, 0
2, 259800, Note_on_c, 0, 69, 91
2, 259896, Note_on_c, 0, 69, 0
2, 259920, Note_on_c, 0, 74, 91
2, 259968, Note_on_c, 0, 74, 0
2, 259980, Note_on_c, 0, 71, 92
2, 260028, Note_on_c, 0, 71, 0
2, 260040, Note_on_c, 0, 73, 92
2, 260136, Note_on_c, 0, 73, 0
2, 260520, Note_on_c, 0, 81, 96
2, 260568, Note_on_c, 0, 81, 0
2, 260580, Note_on_c, 0, 80, 96
2, 260628, Note_on_c, 0, 80, 0
2, 260640, Note_on_c, 0, 81, 94
2, 260688, Note_on_c, 0, 81, 0
2, 260700, Note_on_c, 0, 76, 94
2, 260748, Note_on_c, 0, 76, 0
2, 260760, Note_on_c, 0, 77, 94
2, 260808, Note_on_c, 0, 77, 0
2, 260820, Note_on_c, 0, 74, 94
2, 260868, Note_on_c, 0, 74, 0
2, 260880, Note_on_c, 0, 76, 94
2, 260928, Note_on_c, 0, 76, 0
2, 260940, Note_on_c, 0, 73, 94
2, 260988, Note_on_c, 0, 73, 0
2, 261000, Note_on_c, 0, 74, 94
2, 261048, Note_on_c, 0, 74, 0
2, 261060, Note_on_c, 0, 71, 94
2, 261108, Note_on_c, 0, 71, 0
2, 261120, Note_on_c, 0, 73, 94
2, 261168, Note_on_c, 0, 73, 0
2, 261180, Note_on_c, 0, 69, 94
2, 261228, Note_on_c, 0, 69, 0
2, 261240, Note_on_c, 0, 73, 94
2, 261288, Note_on_c, 0, 73, 0
2, 261300, Note_on_c, 0, 76, 94
2, 261348, Note_on_c, 0, 76, 0
2, 261360, Note_on_c, 0, 79, 94
2, 261408, Note_on_c, 0, 79, 0
2, 261420, Note_on_c, 0, 76, 94
2, 261468, Note_on_c, 0, 76, 0
2, 261480, Note_on_c, 0, 77, 94
2, 261528, Note_on_c, 0, 77, 0
2, 261540, Note_on_c, 0, 74, 94
2, 261588, Note_on_c, 0, 74, 0
2, 261600, Note_on_c, 0, 76, 94
2, 261648, Note_on_c, 0, 76, 0
2, 261660, Note_on_c, 0, 73, 94
2, 261708, Note_on_c, 0, 73, 0
2, 261720, Note_on_c, 0, 74, 94
2, 261768, Note_on_c, 0, 74, 0
2, 261780, Note_on_c, 0, 71, 94
2, 261828, Note_on_c, 0, 71, 0
2, 261840, Note_on_c, 0, 73, 94
2, 261888, Note_on_c, 0, 73, 0
2, 261900, Note_on_c, 0, 69, 94
2, 261948, Note_on_c, 0, 69, 0
2, 261960, Note_on_c, 0, 73, 94
2, 262008, Note_on_c, 0, 73, 0
2, 262020, Note_on_c, 0, 76, 94
2, 262068, Note_on_c, 0, 76, 0
2, 262080, Note_on_c, 0, 79, 94
2, 262112, Note_on_c, 0, 79, 0
2, 262120, Note_on_c, 0, 76, 94
2, 262152, Note_on_c, 0, 76, 0
2, 262160, Note_on_c, 0, 74, 94
2, 262192, Note_on_c, 0, 74, 0
2, 262200, Note_on_c, 0, 75, 94
2, 262360, Note_on_c, 0, 74, 94
2, 262380, Note_on_c, 0, 75, 0
2, 262392, Note_on_c, 0, 74, 0
2, 262400, Note_on_c, 0, 73, 94
2, 262432, Note_on_c, 0, 73, 0
2, 262440, Note_on_c, 0, 74, 94
2, 262620, Note_on_c, 0, 74, 0
2, 262620, Note_on_c, 0, 82, 94
2, 262668, Note_on_c, 0, 82, 0
2, 262680, Note_on_c, 0, 73, 94
2, 262728, Note_on_c, 0, 73, 0
2, 262740, Note_on_c, 0, 74, 94
2, 262788, Note_on_c, 0, 74, 0
2, 262800, Note_on_c, 0, 73, 94
2, 262848, Note_on_c, 0, 73, 0
2, 262860, Note_on_c, 0, 69, 94
2, 262908, Note_on_c, 0, 69, 0
2, 262920, Note_on_c, 0, 64, 94
2, 262968, Note_on_c, 0, 64, 0
2, 262980, Note_on_c, 0, 61, 94
2, 263028, Note_on_c, 0, 61, 0
2, 263040, Note_on_c, 0, 57, 94
2, 263136, Note_on_c, 0, 57, 0
2, 263160, Note_on_c, 0, 64, 91
2, 263192, Note_on_c, 0, 64, 0
2, 263200, Note_on_c, 0, 65, 91
2, 263232, Note_on_c, 0, 65, 0
2, 263240, Note_on_c, 0, 67, 92
2, 263272, Note_on_c, 0, 67, 0
2, 263280, Note_on_c, 0, 67, 93
2, 263312, Note_on_c, 0, 67, 0
2, 263320, Note_on_c, 0, 69, 94
2, 263352, Note_on_c, 0, 69, 0
2, 263360, Note_on_c, 0, 71, 94
2, 263392, Note_on_c, 0, 71, 0
2, 263400, Note_on_c, 0, 71, 95
2, 263432, Note_on_c, 0, 71, 0
2, 263440, Note_on_c, 0, 73, 96
2, 263472, Note_on_c, 0, 73, 0
2, 263480, Note_on_c, 0, 74, 97
2, 263512, Note_on_c, 0, 74, 0
2, 263520, Note_on_c, 0, 74, 98
2, 263568, Note_on_c, 0, 74, 0
2, 263580, Note_on_c, 0, 69, 97
2, 263628, Note_on_c, 0, 69, 0
2, 263640, Note_on_c, 0, 65, 95
2, 263688, Note_on_c, 0, 65, 0
2, 263700, Note_on_c, 0, 62, 94
2, 263748, Note_on_c, 0, 62, 0
2, 263760, Note_on_c, 0, 57, 92
2, 263856, Note_on_c, 0, 57, 0
2, 263880, Note_on_c, 0, 65, 90
2, 263912, Note_on_c, 0, 65, 0
2, 263920, Note_on_c, 0, 67, 88
2, 263952, Note_on_c, 0, 67, 0
2, 263960, Note_on_c, 0, 69, 89
2, 263992, Note_on_c, 0, 69, 0
2, 264000, Note_on_c, 0, 69, 91
2, 264032, Note_on_c, 0, 69, 0
2, 264040, Note_on_c, 0, 71, 92
2, 264072, Note_on_c, 0, 71, 0
2, 264080, Note_on_c, 0, 73, 93
2, 264112, Note_on_c, 0, 73, 0
2, 264120, Note_on_c, 0, 73, 94
2, 264152, Note_on_c, 0, 73, 0
2, 264160, Note_on_c, 0, 74, 95
2, 264192, Note_on_c, 0, 74, 0
2, 264200, Note_on_c, 0, 76, 97
2, 264232, Note_on_c, 0, 76, 0
2, 264240, Note_on_c, 0, 76, 98
2, 264288, Note_on_c, 0, 76, 0
2, 264300, Note_on_c, 0, 73, 98
2, 264348, Note_on_c, 0, 73, 0
2, 264360, Note_on_c, 0, 67, 96
2, 264408, Note_on_c, 0, 67, 0
2, 264420, Note_on_c, 0, 64, 94
2, 264468, Note_on_c, 0, 64, 0
2, 264480, Note_on_c, 0, 57, 92
2, 264576, Note_on_c, 0, 57, 0
2, 264600, Note_on_c, 0, 69, 86
2, 264632, Note_on_c, 0, 69, 0
2, 264640, Note_on_c, 0, 71, 86
2, 264672, Note_on_c, 0, 71, 0
2, 264680, Note_on_c, 0, 73, 87
2, 264712, Note_on_c, 0, 73, 0
2, 264720, Note_on_c, 0, 73, 88
2, 264752, Note_on_c, 0, 73, 0
2, 264760, Note_on_c, 0, 74, 89
2, 264792, Note_on_c, 0, 74, 0
2, 264800, Note_on_c, 0, 76, 89
2, 264832, Note_on_c, 0, 76, 0
2, 264840, Note_on_c, 0, 76, 90
2, 264872, Note_on_c, 0, 76, 0
2, 264880, Note_on_c, 0, 77, 91
2, 264912, Note_on_c, 0, 77, 0
2, 264920, Note_on_c, 0, 79, 92
2, 264952, Note_on_c, 0, 79, 0
2, 264960, Note_on_c, 0, 77, 92
2, 265008, Note_on_c, 0, 77, 0
2, 265020, Note_on_c, 0, 74, 94
2, 265068, Note_on_c, 0, 74, 0
2, 265080, Note_on_c, 0, 73, 95
2, 265128, Note_on_c, 0, 73, 0
2, 265140, Note_on_c, 0, 74, 96
2, 265188, Note_on_c, 0, 74, 0
2, 265200, Note_on_c, 0, 75, 97
2, 265248, Note_on_c, 0, 75, 0
2, 265260, Note_on_c, 0, 74, 98
2, 265308, Note_on_c, 0, 74, 0
2, 265320, Note_on_c, 0, 73, 99
2, 265368, Note_on_c, 0, 73, 0
2, 265380, Note_on_c, 0, 74, 101
2, 265428, Note_on_c, 0, 74, 0
2, 265440, Note_on_c, 0, 70, 102
2, 265472, Note_on_c, 0, 70, 0
2, 265480, Note_on_c, 0, 73, 102
2, 265512, Note_on_c, 0, 73, 0
2, 265520, Note_on_c, 0, 74, 103
2, 265552, Note_on_c, 0, 74, 0
2, 265560, Note_on_c, 0, 67, 104
2, 265592, Note_on_c, 0, 67, 0
2, 265600, Note_on_c, 0, 73, 105
2, 265632, Note_on_c, 0, 73, 0
2, 265640, Note_on_c, 0, 74, 106
2, 265672, Note_on_c, 0, 74, 0
2, 265680, Note_on_c, 0, 69, 106
2, 265728, Note_on_c, 0, 69, 0
2, 265740, Note_on_c, 0, 74, 107
2, 265788, Note_on_c, 0, 74, 0
2, 265800, Note_on_c, 0, 73, 109
2, 265848, Note_on_c, 0, 73, 0
2, 265860, Note_on_c, 0, 74, 110
2, 265908, Note_on_c, 0, 74, 0
2, 265920, Note_on_c, 0, 77, 111
2, 265968, Note_on_c, 0, 77, 0
2, 265980, Note_on_c, 0, 74, 112
2, 266028, Note_on_c, 0, 74, 0
2, 266040, Note_on_c, 0, 73, 113
2, 266088, Note_on_c, 0, 73, 0
2, 266100, Note_on_c, 0, 74, 114
2, 266148, Note_on_c, 0, 74, 0
2, 266160, Note_on_c, 0, 69, 116
2, 266192, Note_on_c, 0, 69, 0
2, 266200, Note_on_c, 0, 73, 116
2, 266232, Note_on_c, 0, 73, 0
2, 266240, Note_on_c, 0, 74, 117
2, 266272, Note_on_c, 0, 74, 0
2, 266280, Note_on_c, 0, 65, 118
2, 266312, Note_on_c, 0, 65, 0
2, 266320, Note_on_c, 0, 73, 119
2, 266352, Note_on_c, 0, 73, 0
2, 266360, Note_on_c, 0, 74, 119
2, 266392, Note_on_c, 0, 74, 0
2, 266400, Note_on_c, 0, 67, 120
2, 266448, Note_on_c, 0, 67, 0
2, 266460, Note_on_c, 0, 74, 121
2, 266508, Note_on_c, 0, 74, 0
2, 266520, Note_on_c, 0, 73, 121
2, 266568, Note_on_c, 0, 73, 0
2, 266580, Note_on_c, 0, 74, 121
2, 266628, Note_on_c, 0, 74, 0
2, 266640, Note_on_c, 0, 82, 121
2, 266688, Note_on_c, 0, 82, 0
2, 266700, Note_on_c, 0, 74, 121
2, 266748, Note_on_c, 0, 74, 0
2, 266760, Note_on_c, 0, 73, 121
2, 266808, Note_on_c, 0, 73, 0
2, 266820, Note_on_c, 0, 74, 121
2, 266868, Note_on_c, 0, 74, 0
2, 266880, Note_on_c, 0, 67, 121
2, 266912, Note_on_c, 0, 67, 0
2, 266920, Note_on_c, 0, 73, 121
2, 266952, Note_on_c, 0, 73, 0
2, 266960, Note_on_c, 0, 74, 121
2, 266992, Note_on_c, 0, 74, 0
2, 267000, Note_on_c, 0, 64, 121
2, 267032, Note_on_c, 0, 64, 0
2, 267040, Note_on_c, 0, 73, 121
2, 267072, Note_on_c, 0, 73, 0
2, 267080, Note_on_c, 0, 74, 121
2, 267112, Note_on_c, 0, 74, 0
2, 267120, Note_on_c, 0, 65, 121
2, 267216, Note_on_c, 0, 65, 0
2, 267240, Note_on_c, 0, 69, 121
2, 267336, Note_on_c, 0, 69, 0
2, 267360, Note_on_c, 0, 74, 121
2, 267456, Note_on_c, 0, 74, 0
2, 267480, Note_on_c, 0, 77, 121
2, 267570, Note_on_c, 0, 81, 121
2, 267576, Note_on_c, 0, 77, 0
2, 267600, Note_on_c, 0, 81, 0
2, 267600, Note_on_c, 0, 80, 121
2, 267744, Note_on_c, 0, 80, 0
2, 267780, Note_on_c, 0, 78, 121
2, 267804, Note_on_c, 0, 78, 0
2, 267810, Note_on_c, 0, 80, 121
2, 267834, Note_on_c, 0, 80, 0
2, 267840, Note_on_c, 0, 81, 121
2, 267936, Note_on_c, 0, 81, 0
2, 267960, Note_on_c, 0, 76, 121
2, 268056, Note_on_c, 0, 76, 0
2, 268080, Note_on_c, 0, 77, 121
2, 268176, Note_on_c, 0, 77, 0
2, 268200, Note_on_c, 0, 74, 121
2, 268296, Note_on_c, 0, 74, 0
2, 268320, Note_on_c, 0, 69, 121
2, 268416, Note_on_c, 0, 69, 0
2, 268440, Note_on_c, 0, 73, 121
2, 268536, Note_on_c, 0, 73, 0
2, 268560, Note_on_c, 0, 74, 121
2, 268608, Note_on_c, 0, 74, 0
2, 268620, Note_on_c, 0, 69, 121
2, 268668, Note_on_c, 0, 69, 0
2, 268680, Note_on_c, 0, 70, 121
2, 268728, Note_on_c, 0, 70, 0
2, 268740, Note_on_c, 0, 67, 121
2, 268788, Note_on_c, 0, 67, 0
2, 268800, Note_on_c, 0, 69, 121
2, 268848, Note_on_c, 0, 69, 0
2, 268860, Note_on_c, 0, 65, 121
2, 268908, Note_on_c, 0, 65, 0
2, 268920, Note_on_c, 0, 67, 121
2, 268968, Note_on_c, 0, 67, 0
2, 268980, Note_on_c, 0, 64, 121
2, 269028, Note_on_c, 0, 64, 0
2, 269040, Note_on_c, 0, 65, 121
2, 269088, Note_on_c, 0, 65, 0
2, 269100, Note_on_c, 0, 62, 121
2, 269148, Note_on_c, 0, 62, 0
2, 269160, Note_on_c, 0, 64, 121
2, 269208, Note_on_c, 0, 64, 0
2, 269220, Note_on_c, 0, 61, 121
2, 269268, Note_on_c, 0, 61, 0
2, 269280, Note_on_c, 0, 62, 122
2, 269472, Note_on_c, 0, 62, 0
2, 269472, End_track
3, 0, Start_track
3, 0, MIDI_port, 0
3, 0, Title_t, "Violin II"
3, 0, Program_c, 1, 40
3, 0, Control_c, 1, 7, 127
3, 0, Control_c, 1, 10, 74
3, 0, Control_c, 1, 91, 127
3, 0, Control_c, 1, 93, 0
3, 0, Note_on_c, 1, 62, 90
3, 48, Note_on_c, 1, 62, 0
3, 60, Note_on_c, 1, 64, 92
3, 108, Note_on_c, 1, 64, 0
3, 120, Note_on_c, 1, 65, 93
3, 168, Note_on_c, 1, 65, 0
3, 180, Note_on_c, 1, 67, 94
3, 228, Note_on_c, 1, 67, 0
3, 240, Note_on_c, 1, 69, 96
3, 336, Note_on_c, 1, 69, 0
3, 360, Note_on_c, 1, 74, 99
3, 456, Note_on_c, 1, 74, 0
3, 480, Note_on_c, 1, 73, 102
3, 576, Note_on_c, 1, 73, 0
3, 600, Note_on_c, 1, 69, 102
3, 696, Note_on_c, 1, 69, 0
3, 720, Note_on_c, 1, 64, 102
3, 816, Note_on_c, 1, 64, 0
3, 840, Note_on_c, 1, 67, 102
3, 936, Note_on_c, 1, 67, 0
3, 960, Note_on_c, 1, 66, 102
3, 1056, Note_on_c, 1, 66, 0
3, 1080, Note_on_c, 1, 62, 102
3, 1176, Note_on_c, 1, 62, 0
3, 1200, Note_on_c, 1, 72, 102
3, 1560, Note_on_c, 1, 72, 0
3, 1560, Note_on_c, 1, 71, 102
3, 1608, Note_on_c, 1, 71, 0
3, 1620, Note_on_c, 1, 69, 102
3, 1668, Note_on_c, 1, 69, 0
3, 1680, Note_on_c, 1, 71, 102
3, 1776, Note_on_c, 1, 71, 0
3, 1800, Note_on_c, 1, 67, 102
3, 1896, Note_on_c, 1, 67, 0
3, 1920, Note_on_c, 1, 64, 102
3, 2016, Note_on_c, 1, 64, 0
3, 2040, Note_on_c, 1, 67, 102
3, 2136, Note_on_c, 1, 67, 0
3, 2160, Note_on_c, 1, 70, 102
3, 2256, Note_on_c, 1, 70, 0
3, 2280, Note_on_c, 1, 62, 102
3, 2376, Note_on_c, 1, 62, 0
3, 2400, Note_on_c, 1, 61, 102
3, 2496, Note_on_c, 1, 61, 0
3, 2520, Note_on_c, 1, 69, 102
3, 2616, Note_on_c, 1, 69, 0
3, 2640, Note_on_c, 1, 62, 102
3, 2736, Note_on_c, 1, 62, 0
3, 2760, Note_on_c, 1, 67, 102
3, 2856, Note_on_c, 1, 67, 0
3, 2880, Note_on_c, 1, 65, 102
3, 3072, Note_on_c, 1, 65, 0
3, 3120, Note_on_c, 1, 64, 102
3, 3312, Note_on_c, 1, 64, 0
3, 3360, Note_on_c, 1, 62, 102
3, 3408, Note_on_c, 1, 62, 0
3, 3420, Note_on_c, 1, 61, 102
3, 3468, Note_on_c, 1, 61, 0
3, 3480, Note_on_c, 1, 62, 102
3, 3528, Note_on_c, 1, 62, 0
3, 3540, Note_on_c, 1, 64, 102
3, 3588, Note_on_c, 1, 64, 0
3, 3600, Note_on_c, 1, 66, 102
3, 3648, Note_on_c, 1, 66, 0
3, 3660, Note_on_c, 1, 68, 102
3, 3708, Note_on_c, 1, 68, 0
3, 3720, Note_on_c, 1, 69, 102
3, 3768, Note_on_c, 1, 69, 0
3, 3780, Note_on_c, 1, 71, 102
3, 3828, Note_on_c, 1, 71, 0
3, 3840, Note_on_c, 1, 72, 102
3, 3888, Note_on_c, 1, 72, 0
3, 3900, Note_on_c, 1, 71, 102
3, 3948, Note_on_c, 1, 71, 0
3, 3960, Note_on_c, 1, 69, 102
3, 4008, Note_on_c, 1, 69, 0
3, 4020, Note_on_c, 1, 71, 102
3, 4068, Note_on_c, 1, 71, 0
3, 4080, Note_on_c, 1, 72, 102
3, 4128, Note_on_c, 1, 72, 0
3, 4140, Note_on_c, 1, 71, 102
3, 4188, Note_on_c, 1, 71, 0
3, 4200, Note_on_c, 1, 72, 102
3, 4248, Note_on_c, 1, 72, 0
3, 4260, Note_on_c, 1, 74, 102
3, 4308, Note_on_c, 1, 74, 0
3, 4320, Note_on_c, 1, 76, 102
3, 4704, Note_on_c, 1, 76, 0
3, 4800, Note_on_c, 1, 76, 102
3, 4848, Note_on_c, 1, 76, 0
3, 4860, Note_on_c, 1, 74, 102
3, 4908, Note_on_c, 1, 74, 0
3, 4920, Note_on_c, 1, 73, 102
3, 4968, Note_on_c, 1, 73, 0
3, 4980, Note_on_c, 1, 71, 102
3, 5028, Note_on_c, 1, 71, 0
3, 5040, Note_on_c, 1, 73, 102
3, 5088, Note_on_c, 1, 73, 0
3, 5100, Note_on_c, 1, 69, 102
3, 5148, Note_on_c, 1, 69, 0
3, 5160, Note_on_c, 1, 71, 102
3, 5208, Note_on_c, 1, 71, 0
3, 5220, Note_on_c, 1, 73, 102
3, 5268, Note_on_c, 1, 73, 0
3, 5280, Note_on_c, 1, 74, 102
3, 5808, Note_on_c, 1, 74, 0
3, 5820, Note_on_c, 1, 72, 102
3, 5868, Note_on_c, 1, 72, 0
3, 5880, Note_on_c, 1, 71, 102
3, 5928, Note_on_c, 1, 71, 0
3, 5940, Note_on_c, 1, 72, 102
3, 5988, Note_on_c, 1, 72, 0
3, 6000, Note_on_c, 1, 74, 102
3, 6048, Note_on_c, 1, 74, 0
3, 6060, Note_on_c, 1, 76, 102
3, 6108, Note_on_c, 1, 76, 0
3, 6120, Note_on_c, 1, 77, 102
3, 6168, Note_on_c, 1, 77, 0
3, 6180, Note_on_c, 1, 74, 102
3, 6228, Note_on_c, 1, 74, 0
3, 6240, Note_on_c, 1, 76, 102
3, 6288, Note_on_c, 1, 76, 0
3, 6300, Note_on_c, 1, 77, 102
3, 6348, Note_on_c, 1, 77, 0
3, 6360, Note_on_c, 1, 76, 102
3, 6408, Note_on_c, 1, 76, 0
3, 6420, Note_on_c, 1, 74, 102
3, 6468, Note_on_c, 1, 74, 0
3, 6480, Note_on_c, 1, 72, 102
3, 6528, Note_on_c, 1, 72, 0
3, 6540, Note_on_c, 1, 71, 102
3, 6588, Note_on_c, 1, 71, 0
3, 6600, Note_on_c, 1, 69, 102
3, 6648, Note_on_c, 1, 69, 0
3, 6660, Note_on_c, 1, 68, 102
3, 6708, Note_on_c, 1, 68, 0
3, 6720, Note_on_c, 1, 69, 102
3, 6816, Note_on_c, 1, 69, 0
3, 6840, Note_on_c, 1, 81, 102
3, 7032, Note_on_c, 1, 81, 0
3, 7080, Note_on_c, 1, 80, 102
3, 7176, Note_on_c, 1, 80, 0
3, 7200, Note_on_c, 1, 81, 102
3, 7296, Note_on_c, 1, 81, 0
3, 7320, Note_on_c, 1, 69, 102
3, 7368, Note_on_c, 1, 69, 0
3, 7380, Note_on_c, 1, 68, 102
3, 7428, Note_on_c, 1, 68, 0
3, 7440, Note_on_c, 1, 69, 102
3, 7488, Note_on_c, 1, 69, 0
3, 7500, Note_on_c, 1, 71, 102
3, 7548, Note_on_c, 1, 71, 0
3, 7560, Note_on_c, 1, 72, 102
3, 7608, Note_on_c, 1, 72, 0
3, 7620, Note_on_c, 1, 69, 102
3, 7668, Note_on_c, 1, 69, 0
3, 7680, Note_on_c, 1, 71, 102
3, 7728, Note_on_c, 1, 71, 0
3, 7740, Note_on_c, 1, 69, 102
3, 7788, Note_on_c, 1, 69, 0
3, 7800, Note_on_c, 1, 71, 102
3, 7848, Note_on_c, 1, 71, 0
3, 7860, Note_on_c, 1, 72, 102
3, 7908, Note_on_c, 1, 72, 0
3, 7920, Note_on_c, 1, 71, 102
3, 7968, Note_on_c, 1, 71, 0
3, 7980, Note_on_c, 1, 73, 102
3, 8028, Note_on_c, 1, 73, 0
3, 8040, Note_on_c, 1, 74, 102
3, 8088, Note_on_c, 1, 74, 0
3, 8100, Note_on_c, 1, 71, 102
3, 8148, Note_on_c, 1, 71, 0
3, 8160, Note_on_c, 1, 73, 102
3, 8208, Note_on_c, 1, 73, 0
3, 8220, Note_on_c, 1, 71, 102
3, 8268, Note_on_c, 1, 71, 0
3, 8280, Note_on_c, 1, 73, 102
3, 8328, Note_on_c, 1, 73, 0
3, 8340, Note_on_c, 1, 74, 102
3, 8388, Note_on_c, 1, 74, 0
3, 8400, Note_on_c, 1, 73, 102
3, 8448, Note_on_c, 1, 73, 0
3, 8460, Note_on_c, 1, 74, 102
3, 8508, Note_on_c, 1, 74, 0
3, 8520, Note_on_c, 1, 76, 102
3, 8568, Note_on_c, 1, 76, 0
3, 8580, Note_on_c, 1, 73, 102
3, 8628, Note_on_c, 1, 73, 0
3, 8640, Note_on_c, 1, 74, 102
3, 8736, Note_on_c, 1, 74, 0
3, 8760, Note_on_c, 1, 81, 102
3, 8856, Note_on_c, 1, 81, 0
3, 9000, Note_on_c, 1, 77, 102
3, 9096, Note_on_c, 1, 77, 0
3, 9120, Note_on_c, 1, 76, 102
3, 9168, Note_on_c, 1, 76, 0
3, 9180, Note_on_c, 1, 74, 102
3, 9228, Note_on_c, 1, 74, 0
3, 9240, Note_on_c, 1, 73, 102
3, 9288, Note_on_c, 1, 73, 0
3, 9300, Note_on_c, 1, 71, 102
3, 9348, Note_on_c, 1, 71, 0
3, 9360, Note_on_c, 1, 73, 102
3, 9408, Note_on_c, 1, 73, 0
3, 9420, Note_on_c, 1, 69, 102
3, 9468, Note_on_c, 1, 69, 0
3, 9480, Note_on_c, 1, 71, 102
3, 9528, Note_on_c, 1, 71, 0
3, 9540, Note_on_c, 1, 73, 102
3, 9588, Note_on_c, 1, 73, 0
3, 9600, Note_on_c, 1, 74, 102
3, 10128, Note_on_c, 1, 74, 0
3, 10140, Note_on_c, 1, 72, 102
3, 10188, Note_on_c, 1, 72, 0
3, 10200, Note_on_c, 1, 74, 102
3, 10248, Note_on_c, 1, 74, 0
3, 10260, Note_on_c, 1, 76, 102
3, 10308, Note_on_c, 1, 76, 0
3, 10320, Note_on_c, 1, 74, 102
3, 10368, Note_on_c, 1, 74, 0
3, 10380, Note_on_c, 1, 77, 102
3, 10428, Note_on_c, 1, 77, 0
3, 10440, Note_on_c, 1, 76, 102
3, 10488, Note_on_c, 1, 76, 0
3, 10500, Note_on_c, 1, 74, 102
3, 10548, Note_on_c, 1, 74, 0
3, 10560, Note_on_c, 1, 76, 102
3, 11088, Note_on_c, 1, 76, 0
3, 11100, Note_on_c, 1, 74, 102
3, 11148, Note_on_c, 1, 74, 0
3, 11160, Note_on_c, 1, 73, 102
3, 11208, Note_on_c, 1, 73, 0
3, 11220, Note_on_c, 1, 70, 102
3, 11268, Note_on_c, 1, 70, 0
3, 11280, Note_on_c, 1, 69, 102
3, 11328, Note_on_c, 1, 69, 0
3, 11340, Note_on_c, 1, 67, 102
3, 11388, Note_on_c, 1, 67, 0
3, 11400, Note_on_c, 1, 65, 102
3, 11448, Note_on_c, 1, 65, 0
3, 11460, Note_on_c, 1, 64, 102
3, 11508, Note_on_c, 1, 64, 0
3, 11520, Note_on_c, 1, 62, 102
3, 11568, Note_on_c, 1, 62, 0
3, 11580, Note_on_c, 1, 72, 102
3, 11628, Note_on_c, 1, 72, 0
3, 11640, Note_on_c, 1, 70, 102
3, 11688, Note_on_c, 1, 70, 0
3, 11700, Note_on_c, 1, 69, 102
3, 11748, Note_on_c, 1, 69, 0
3, 11760, Note_on_c, 1, 67, 102
3, 11808, Note_on_c, 1, 67, 0
3, 11820, Note_on_c, 1, 65, 102
3, 11868, Note_on_c, 1, 65, 0
3, 11880, Note_on_c, 1, 64, 102
3, 11928, Note_on_c, 1, 64, 0
3, 11940, Note_on_c, 1, 67, 102
3, 11988, Note_on_c, 1, 67, 0
3, 12000, Note_on_c, 1, 65, 102
3, 12096, Note_on_c, 1, 65, 0
3, 12120, Note_on_c, 1, 62, 102
3, 12216, Note_on_c, 1, 62, 0
3, 12240, Note_on_c, 1, 69, 102
3, 12528, Note_on_c, 1, 69, 0
3, 12540, Note_on_c, 1, 71, 114
3, 12588, Note_on_c, 1, 71, 0
3, 12600, Note_on_c, 1, 73, 114
3, 12648, Note_on_c, 1, 73, 0
3, 12660, Note_on_c, 1, 74, 114
3, 12708, Note_on_c, 1, 74, 0
3, 12720, Note_on_c, 1, 76, 114
3, 12816, Note_on_c, 1, 76, 0
3, 12840, Note_on_c, 1, 79, 114
3, 12936, Note_on_c, 1, 79, 0
3, 12960, Note_on_c, 1, 78, 114
3, 13056, Note_on_c, 1, 78, 0
3, 13080, Note_on_c, 1, 74, 114
3, 13176, Note_on_c, 1, 74, 0
3, 13200, Note_on_c, 1, 69, 114
3, 13296, Note_on_c, 1, 69, 0
3, 13320, Note_on_c, 1, 72, 114
3, 13416, Note_on_c, 1, 72, 0
3, 13440, Note_on_c, 1, 71, 114
3, 13536, Note_on_c, 1, 71, 0
3, 13560, Note_on_c, 1, 67, 114
3, 13656, Note_on_c, 1, 67, 0
3, 13680, Note_on_c, 1, 77, 114
3, 14040, Note_on_c, 1, 77, 0
3, 14040, Note_on_c, 1, 76, 114
3, 14088, Note_on_c, 1, 76, 0
3, 14100, Note_on_c, 1, 74, 114
3, 14148, Note_on_c, 1, 74, 0
3, 14160, Note_on_c, 1, 76, 114
3, 14256, Note_on_c, 1, 76, 0
3, 14280, Note_on_c, 1, 72, 114
3, 14376, Note_on_c, 1, 72, 0
3, 14400, Note_on_c, 1, 69, 114
3, 14496, Note_on_c, 1, 69, 0
3, 14520, Note_on_c, 1, 72, 114
3, 14616, Note_on_c, 1, 72, 0
3, 14640, Note_on_c, 1, 75, 114
3, 14736, Note_on_c, 1, 75, 0
3, 14760, Note_on_c, 1, 67, 114
3, 14856, Note_on_c, 1, 67, 0
3, 14880, Note_on_c, 1, 66, 114
3, 14976, Note_on_c, 1, 66, 0
3, 15000, Note_on_c, 1, 74, 114
3, 15096, Note_on_c, 1, 74, 0
3, 15120, Note_on_c, 1, 67, 114
3, 15216, Note_on_c, 1, 67, 0
3, 15240, Note_on_c, 1, 72, 114
3, 15336, Note_on_c, 1, 72, 0
3, 15360, Note_on_c, 1, 70, 114
3, 15552, Note_on_c, 1, 70, 0
3, 15600, Note_on_c, 1, 69, 114
3, 15792, Note_on_c, 1, 69, 0
3, 15840, Note_on_c, 1, 67, 114
3, 16032, Note_on_c, 1, 67, 0
3, 16200, Note_on_c, 1, 64, 114
3, 16296, Note_on_c, 1, 64, 0
3, 16320, Note_on_c, 1, 69, 89
3, 16848, Note_on_c, 1, 69, 0
3, 16860, Note_on_c, 1, 68, 89
3, 16908, Note_on_c, 1, 68, 0
3, 16920, Note_on_c, 1, 69, 89
3, 16968, Note_on_c, 1, 69, 0
3, 16980, Note_on_c, 1, 71, 89
3, 17028, Note_on_c, 1, 71, 0
3, 17040, Note_on_c, 1, 73, 89
3, 17088, Note_on_c, 1, 73, 0
3, 17100, Note_on_c, 1, 74, 89
3, 17148, Note_on_c, 1, 74, 0
3, 17160, Note_on_c, 1, 76, 89
3, 17208, Note_on_c, 1, 76, 0
3, 17220, Note_on_c, 1, 73, 89
3, 17268, Note_on_c, 1, 73, 0
3, 17280, Note_on_c, 1, 74, 89
3, 17328, Note_on_c, 1, 74, 0
3, 17340, Note_on_c, 1, 70, 89
3, 17388, Note_on_c, 1, 70, 0
3, 17400, Note_on_c, 1, 69, 89
3, 17448, Note_on_c, 1, 69, 0
3, 17460, Note_on_c, 1, 67, 89
3, 17508, Note_on_c, 1, 67, 0
3, 17520, Note_on_c, 1, 69, 89
3, 17568, Note_on_c, 1, 69, 0
3, 17580, Note_on_c, 1, 66, 89
3, 17628, Note_on_c, 1, 66, 0
3, 17640, Note_on_c, 1, 67, 89
3, 17688, Note_on_c, 1, 67, 0
3, 17700, Note_on_c, 1, 69, 89
3, 17748, Note_on_c, 1, 69, 0
3, 17760, Note_on_c, 1, 62, 89
3, 17856, Note_on_c, 1, 62, 0
3, 17880, Note_on_c, 1, 67, 89
3, 17976, Note_on_c, 1, 67, 0
3, 18000, Note_on_c, 1, 74, 89
3, 18336, Note_on_c, 1, 74, 0
3, 18360, Note_on_c, 1, 73, 89
3, 18408, Note_on_c, 1, 73, 0
3, 18420, Note_on_c, 1, 74, 89
3, 18468, Note_on_c, 1, 74, 0
3, 18480, Note_on_c, 1, 76, 89
3, 18528, Note_on_c, 1, 76, 0
3, 18540, Note_on_c, 1, 77, 89
3, 18588, Note_on_c, 1, 77, 0
3, 18600, Note_on_c, 1, 79, 89
3, 18780, Note_on_c, 1, 79, 0
3, 18780, Note_on_c, 1, 76, 89
3, 18828, Note_on_c, 1, 76, 0
3, 18840, Note_on_c, 1, 77, 89
3, 18888, Note_on_c, 1, 77, 0
3, 18900, Note_on_c, 1, 79, 89
3, 18948, Note_on_c, 1, 79, 0
3, 18960, Note_on_c, 1, 81, 89
3, 19056, Note_on_c, 1, 81, 0
3, 19080, Note_on_c, 1, 76, 89
3, 19296, Note_on_c, 1, 76, 0
3, 19320, Note_on_c, 1, 74, 87
3, 19512, Note_on_c, 1, 74, 0
3, 19560, Note_on_c, 1, 73, 81
3, 19656, Note_on_c, 1, 73, 0
3, 19680, Note_on_c, 1, 74, 80
3, 19872, Note_on_c, 1, 74, 0
3, 23820, Note_on_c, 1, 67, 95
3, 23868, Note_on_c, 1, 67, 0
3, 23880, Note_on_c, 1, 65, 96
3, 23928, Note_on_c, 1, 65, 0
3, 23940, Note_on_c, 1, 64, 97
3, 23988, Note_on_c, 1, 64, 0
3, 24000, Note_on_c, 1, 65, 98
3, 24096, Note_on_c, 1, 65, 0
3, 24120, Note_on_c, 1, 81, 101
3, 24216, Note_on_c, 1, 81, 0
3, 24240, Note_on_c, 1, 64, 103
3, 24336, Note_on_c, 1, 64, 0
3, 24360, Note_on_c, 1, 79, 106
3, 24456, Note_on_c, 1, 79, 0
3, 24480, Note_on_c, 1, 62, 108
3, 24528, Note_on_c, 1, 62, 0
3, 24540, Note_on_c, 1, 79, 109
3, 24588, Note_on_c, 1, 79, 0
3, 24600, Note_on_c, 1, 77, 111
3, 24648, Note_on_c, 1, 77, 0
3, 24660, Note_on_c, 1, 76, 114
3, 24708, Note_on_c, 1, 76, 0
3, 24720, Note_on_c, 1, 74, 114
3, 24768, Note_on_c, 1, 74, 0
3, 24780, Note_on_c, 1, 72, 114
3, 24828, Note_on_c, 1, 72, 0
3, 24840, Note_on_c, 1, 70, 114
3, 24888, Note_on_c, 1, 70, 0
3, 24900, Note_on_c, 1, 69, 114
3, 24948, Note_on_c, 1, 69, 0
3, 24960, Note_on_c, 1, 70, 114
3, 25056, Note_on_c, 1, 70, 0
3, 25080, Note_on_c, 1, 86, 114
3, 25176, Note_on_c, 1, 86, 0
3, 25200, Note_on_c, 1, 69, 114
3, 25296, Note_on_c, 1, 69, 0
3, 25320, Note_on_c, 1, 84, 114
3, 25416, Note_on_c, 1, 84, 0
3, 25440, Note_on_c, 1, 67, 114
3, 25488, Note_on_c, 1, 67, 0
3, 25500, Note_on_c, 1, 84, 114
3, 25548, Note_on_c, 1, 84, 0
3, 25560, Note_on_c, 1, 82, 114
3, 25608, Note_on_c, 1, 82, 0
3, 25620, Note_on_c, 1, 81, 114
3, 25668, Note_on_c, 1, 81, 0
3, 25680, Note_on_c, 1, 79, 114
3, 25728, Note_on_c, 1, 79, 0
3, 25740, Note_on_c, 1, 77, 114
3, 25788, Note_on_c, 1, 77, 0
3, 25800, Note_on_c, 1, 76, 114
3, 25848, Note_on_c, 1, 76, 0
3, 25860, Note_on_c, 1, 74, 114
3, 25908, Note_on_c, 1, 74, 0
3, 25920, Note_on_c, 1, 76, 114
3, 25968, Note_on_c, 1, 76, 0
3, 25980, Note_on_c, 1, 82, 114
3, 26028, Note_on_c, 1, 82, 0
3, 26040, Note_on_c, 1, 81, 114
3, 26088, Note_on_c, 1, 81, 0
3, 26100, Note_on_c, 1, 79, 114
3, 26148, Note_on_c, 1, 79, 0
3, 26160, Note_on_c, 1, 81, 114
3, 26208, Note_on_c, 1, 81, 0
3, 26220, Note_on_c, 1, 76, 114
3, 26268, Note_on_c, 1, 76, 0
3, 26280, Note_on_c, 1, 74, 114
3, 26328, Note_on_c, 1, 74, 0
3, 26340, Note_on_c, 1, 73, 114
3, 26388, Note_on_c, 1, 73, 0
3, 26400, Note_on_c, 1, 74, 114
3, 26448, Note_on_c, 1, 74, 0
3, 26460, Note_on_c, 1, 81, 114
3, 26508, Note_on_c, 1, 81, 0
3, 26520, Note_on_c, 1, 79, 114
3, 26568, Note_on_c, 1, 79, 0
3, 26580, Note_on_c, 1, 77, 114
3, 26628, Note_on_c, 1, 77, 0
3, 26640, Note_on_c, 1, 79, 114
3, 26688, Note_on_c, 1, 79, 0
3, 26700, Note_on_c, 1, 74, 114
3, 26748, Note_on_c, 1, 74, 0
3, 26760, Note_on_c, 1, 73, 114
3, 26808, Note_on_c, 1, 73, 0
3, 26820, Note_on_c, 1, 71, 114
3, 26868, Note_on_c, 1, 71, 0
3, 26880, Note_on_c, 1, 73, 114
3, 26928, Note_on_c, 1, 73, 0
3, 26940, Note_on_c, 1, 79, 114
3, 26988, Note_on_c, 1, 79, 0
3, 27000, Note_on_c, 1, 77, 114
3, 27048, Note_on_c, 1, 77, 0
3, 27060, Note_on_c, 1, 76, 114
3, 27108, Note_on_c, 1, 76, 0
3, 27120, Note_on_c, 1, 77, 114
3, 27168, Note_on_c, 1, 77, 0
3, 27180, Note_on_c, 1, 76, 114
3, 27228, Note_on_c, 1, 76, 0
3, 27240, Note_on_c, 1, 74, 114
3, 27288, Note_on_c, 1, 74, 0
3, 27300, Note_on_c, 1, 77, 114
3, 27348, Note_on_c, 1, 77, 0
3, 27360, Note_on_c, 1, 76, 114
3, 27408, Note_on_c, 1, 76, 0
3, 27420, Note_on_c, 1, 74, 114
3, 27468, Note_on_c, 1, 74, 0
3, 27480, Note_on_c, 1, 73, 114
3, 27528, Note_on_c, 1, 73, 0
3, 27540, Note_on_c, 1, 71, 114
3, 27588, Note_on_c, 1, 71, 0
3, 27600, Note_on_c, 1, 69, 114
3, 27936, Note_on_c, 1, 69, 0
3, 27960, Note_on_c, 1, 74, 89
3, 28008, Note_on_c, 1, 74, 0
3, 28020, Note_on_c, 1, 76, 89
3, 28068, Note_on_c, 1, 76, 0
3, 28080, Note_on_c, 1, 77, 89
3, 28176, Note_on_c, 1, 77, 0
3, 28200, Note_on_c, 1, 62, 89
3, 28380, Note_on_c, 1, 62, 0
3, 28380, Note_on_c, 1, 60, 89
3, 28428, Note_on_c, 1, 60, 0
3, 28440, Note_on_c, 1, 59, 89
3, 28488, Note_on_c, 1, 59, 0
3, 28500, Note_on_c, 1, 57, 89
3, 28548, Note_on_c, 1, 57, 0
3, 28560, Note_on_c, 1, 59, 89
3, 28656, Note_on_c, 1, 59, 0
3, 28680, Note_on_c, 1, 67, 89
3, 28896, Note_on_c, 1, 67, 0
3, 28920, Note_on_c, 1, 72, 89
3, 28968, Note_on_c, 1, 72, 0
3, 28980, Note_on_c, 1, 74, 89
3, 29028, Note_on_c, 1, 74, 0
3, 29040, Note_on_c, 1, 76, 89
3, 29136, Note_on_c, 1, 76, 0
3, 29160, Note_on_c, 1, 60, 89
3, 29340, Note_on_c, 1, 60, 0
3, 29340, Note_on_c, 1, 58, 89
3, 29388, Note_on_c, 1, 58, 0
3, 29400, Note_on_c, 1, 57, 89
3, 29448, Note_on_c, 1, 57, 0
3, 29460, Note_on_c, 1, 55, 89
3, 29508, Note_on_c, 1, 55, 0
3, 29520, Note_on_c, 1, 57, 89
3, 29616, Note_on_c, 1, 57, 0
3, 29640, Note_on_c, 1, 65, 89
3, 29808, Note_on_c, 1, 65, 0
3, 29820, Note_on_c, 1, 67, 89
3, 29868, Note_on_c, 1, 67, 0
3, 29880, Note_on_c, 1, 65, 89
3, 29928, Note_on_c, 1, 65, 0
3, 29940, Note_on_c, 1, 64, 89
3, 29988, Note_on_c, 1, 64, 0
3, 30000, Note_on_c, 1, 62, 89
3, 30048, Note_on_c, 1, 62, 0
3, 30060, Note_on_c, 1, 60, 89
3, 30108, Note_on_c, 1, 60, 0
3, 30120, Note_on_c, 1, 59, 89
3, 30168, Note_on_c, 1, 59, 0
3, 30180, Note_on_c, 1, 57, 89
3, 30228, Note_on_c, 1, 57, 0
3, 30240, Note_on_c, 1, 55, 89
3, 30288, Note_on_c, 1, 55, 0
3, 30300, Note_on_c, 1, 69, 89
3, 30348, Note_on_c, 1, 69, 0
3, 30360, Note_on_c, 1, 67, 89
3, 30408, Note_on_c, 1, 67, 0
3, 30420, Note_on_c, 1, 65, 89
3, 30468, Note_on_c, 1, 65, 0
3, 30480, Note_on_c, 1, 64, 89
3, 30528, Note_on_c, 1, 64, 0
3, 30540, Note_on_c, 1, 62, 89
3, 30588, Note_on_c, 1, 62, 0
3, 30600, Note_on_c, 1, 61, 89
3, 30648, Note_on_c, 1, 61, 0
3, 30660, Note_on_c, 1, 59, 89
3, 30708, Note_on_c, 1, 59, 0
3, 30720, Note_on_c, 1, 57, 86
3, 30816, Note_on_c, 1, 57, 0
3, 30840, Note_on_c, 1, 69, 86
3, 30936, Note_on_c, 1, 69, 0
3, 30960, Note_on_c, 1, 70, 87
3, 31056, Note_on_c, 1, 70, 0
3, 31080, Note_on_c, 1, 65, 87
3, 31176, Note_on_c, 1, 65, 0
3, 31200, Note_on_c, 1, 67, 88
3, 31296, Note_on_c, 1, 67, 0
3, 31320, Note_on_c, 1, 70, 89
3, 31416, Note_on_c, 1, 70, 0
3, 31440, Note_on_c, 1, 72, 89
3, 31536, Note_on_c, 1, 72, 0
3, 31560, Note_on_c, 1, 67, 90
3, 31656, Note_on_c, 1, 67, 0
3, 31680, Note_on_c, 1, 69, 90
3, 31728, Note_on_c, 1, 69, 0
3, 31740, Note_on_c, 1, 72, 91
3, 31788, Note_on_c, 1, 72, 0
3, 31800, Note_on_c, 1, 74, 91
3, 31848, Note_on_c, 1, 74, 0
3, 31860, Note_on_c, 1, 76, 91
3, 31908, Note_on_c, 1, 76, 0
3, 31920, Note_on_c, 1, 77, 91
3, 31968, Note_on_c, 1, 77, 0
3, 31980, Note_on_c, 1, 79, 92
3, 32028, Note_on_c, 1, 79, 0
3, 32040, Note_on_c, 1, 81, 92
3, 32088, Note_on_c, 1, 81, 0
3, 32100, Note_on_c, 1, 77, 92
3, 32148, Note_on_c, 1, 77, 0
3, 32160, Note_on_c, 1, 71, 93
3, 32208, Note_on_c, 1, 71, 0
3, 32220, Note_on_c, 1, 77, 93
3, 32268, Note_on_c, 1, 77, 0
3, 32280, Note_on_c, 1, 81, 93
3, 32460, Note_on_c, 1, 81, 0
3, 32460, Note_on_c, 1, 77, 94
3, 32508, Note_on_c, 1, 77, 0
3, 32520, Note_on_c, 1, 74, 94
3, 32568, Note_on_c, 1, 74, 0
3, 32580, Note_on_c, 1, 71, 95
3, 32628, Note_on_c, 1, 71, 0
3, 32640, Note_on_c, 1, 80, 95
3, 32688, Note_on_c, 1, 80, 0
3, 32700, Note_on_c, 1, 71, 95
3, 32748, Note_on_c, 1, 71, 0
3, 32760, Note_on_c, 1, 72, 96
3, 32808, Note_on_c, 1, 72, 0
3, 32820, Note_on_c, 1, 74, 96
3, 32868, Note_on_c, 1, 74, 0
3, 32880, Note_on_c, 1, 76, 96
3, 32928, Note_on_c, 1, 76, 0
3, 32940, Note_on_c, 1, 78, 96
3, 32988, Note_on_c, 1, 78, 0
3, 33000, Note_on_c, 1, 79, 97
3, 33048, Note_on_c, 1, 79, 0
3, 33060, Note_on_c, 1, 76, 97
3, 33108, Note_on_c, 1, 76, 0
3, 33120, Note_on_c, 1, 69, 97
3, 33168, Note_on_c, 1, 69, 0
3, 33180, Note_on_c, 1, 76, 98
3, 33228, Note_on_c, 1, 76, 0
3, 33240, Note_on_c, 1, 79, 98
3, 33420, Note_on_c, 1, 79, 0
3, 33420, Note_on_c, 1, 76, 99
3, 33468, Note_on_c, 1, 76, 0
3, 33480, Note_on_c, 1, 73, 99
3, 33528, Note_on_c, 1, 73, 0
3, 33540, Note_on_c, 1, 69, 99
3, 33588, Note_on_c, 1, 69, 0
3, 33600, Note_on_c, 1, 77, 98
3, 33696, Note_on_c, 1, 77, 0
3, 33720, Note_on_c, 1, 74, 98
3, 33816, Note_on_c, 1, 74, 0
3, 33840, Note_on_c, 1, 69, 97
3, 33936, Note_on_c, 1, 69, 0
3, 33960, Note_on_c, 1, 81, 96
3, 34200, Note_on_c, 1, 81, 0
3, 34200, Note_on_c, 1, 76, 95
3, 34248, Note_on_c, 1, 76, 0
3, 34260, Note_on_c, 1, 72, 94
3, 34308, Note_on_c, 1, 72, 0
3, 34320, Note_on_c, 1, 69, 94
3, 34656, Note_on_c, 1, 69, 0
3, 34680, Note_on_c, 1, 65, 92
3, 34776, Note_on_c, 1, 65, 0
3, 34800, Note_on_c, 1, 62, 91
3, 34896, Note_on_c, 1, 62, 0
3, 34920, Note_on_c, 1, 74, 91
3, 35160, Note_on_c, 1, 74, 0
3, 35160, Note_on_c, 1, 71, 91
3, 35208, Note_on_c, 1, 71, 0
3, 35220, Note_on_c, 1, 68, 92
3, 35268, Note_on_c, 1, 68, 0
3, 35280, Note_on_c, 1, 64, 93
3, 35328, Note_on_c, 1, 64, 0
3, 35340, Note_on_c, 1, 62, 95
3, 35388, Note_on_c, 1, 62, 0
3, 35400, Note_on_c, 1, 60, 96
3, 35448, Note_on_c, 1, 60, 0
3, 35460, Note_on_c, 1, 59, 97
3, 35508, Note_on_c, 1, 59, 0
3, 35520, Note_on_c, 1, 60, 99
3, 35616, Note_on_c, 1, 60, 0
3, 35640, Note_on_c, 1, 76, 102
3, 35736, Note_on_c, 1, 76, 0
3, 35760, Note_on_c, 1, 59, 104
3, 35856, Note_on_c, 1, 59, 0
3, 35880, Note_on_c, 1, 74, 107
3, 35976, Note_on_c, 1, 74, 0
3, 36000, Note_on_c, 1, 57, 110
3, 36048, Note_on_c, 1, 57, 0
3, 36060, Note_on_c, 1, 74, 111
3, 36108, Note_on_c, 1, 74, 0
3, 36120, Note_on_c, 1, 72, 113
3, 36168, Note_on_c, 1, 72, 0
3, 36180, Note_on_c, 1, 71, 114
3, 36228, Note_on_c, 1, 71, 0
3, 36240, Note_on_c, 1, 69, 116
3, 36288, Note_on_c, 1, 69, 0
3, 36300, Note_on_c, 1, 67, 116
3, 36348, Note_on_c, 1, 67, 0
3, 36360, Note_on_c, 1, 65, 116
3, 36408, Note_on_c, 1, 65, 0
3, 36420, Note_on_c, 1, 64, 116
3, 36468, Note_on_c, 1, 64, 0
3, 36480, Note_on_c, 1, 65, 116
3, 36576, Note_on_c, 1, 65, 0
3, 36600, Note_on_c, 1, 81, 116
3, 36696, Note_on_c, 1, 81, 0
3, 36720, Note_on_c, 1, 64, 116
3, 36816, Note_on_c, 1, 64, 0
3, 36840, Note_on_c, 1, 79, 116
3, 36936, Note_on_c, 1, 79, 0
3, 36960, Note_on_c, 1, 62, 116
3, 37008, Note_on_c, 1, 62, 0
3, 37020, Note_on_c, 1, 79, 116
3, 37068, Note_on_c, 1, 79, 0
3, 37080, Note_on_c, 1, 77, 116
3, 37128, Note_on_c, 1, 77, 0
3, 37140, Note_on_c, 1, 76, 116
3, 37188, Note_on_c, 1, 76, 0
3, 37200, Note_on_c, 1, 74, 116
3, 37248, Note_on_c, 1, 74, 0
3, 37260, Note_on_c, 1, 72, 116
3, 37308, Note_on_c, 1, 72, 0
3, 37320, Note_on_c, 1, 71, 116
3, 37368, Note_on_c, 1, 71, 0
3, 37380, Note_on_c, 1, 69, 116
3, 37428, Note_on_c, 1, 69, 0
3, 37440, Note_on_c, 1, 71, 116
3, 37488, Note_on_c, 1, 71, 0
3, 37500, Note_on_c, 1, 77, 116
3, 37548, Note_on_c, 1, 77, 0
3, 37560, Note_on_c, 1, 76, 116
3, 37608, Note_on_c, 1, 76, 0
3, 37620, Note_on_c, 1, 74, 116
3, 37668, Note_on_c, 1, 74, 0
3, 37680, Note_on_c, 1, 76, 116
3, 37728, Note_on_c, 1, 76, 0
3, 37740, Note_on_c, 1, 71, 116
3, 37788, Note_on_c, 1, 71, 0
3, 37800, Note_on_c, 1, 69, 116
3, 37848, Note_on_c, 1, 69, 0
3, 37860, Note_on_c, 1, 68, 116
3, 37908, Note_on_c, 1, 68, 0
3, 37920, Note_on_c, 1, 69, 116
3, 37968, Note_on_c, 1, 69, 0
3, 37980, Note_on_c, 1, 76, 116
3, 38028, Note_on_c, 1, 76, 0
3, 38040, Note_on_c, 1, 74, 116
3, 38088, Note_on_c, 1, 74, 0
3, 38100, Note_on_c, 1, 72, 116
3, 38148, Note_on_c, 1, 72, 0
3, 38160, Note_on_c, 1, 74, 115
3, 38208, Note_on_c, 1, 74, 0
3, 38220, Note_on_c, 1, 69, 114
3, 38268, Note_on_c, 1, 69, 0
3, 38280, Note_on_c, 1, 68, 113
3, 38328, Note_on_c, 1, 68, 0
3, 38340, Note_on_c, 1, 66, 111
3, 38388, Note_on_c, 1, 66, 0
3, 38400, Note_on_c, 1, 68, 110
3, 38448, Note_on_c, 1, 68, 0
3, 38460, Note_on_c, 1, 74, 109
3, 38508, Note_on_c, 1, 74, 0
3, 38520, Note_on_c, 1, 72, 108
3, 38568, Note_on_c, 1, 72, 0
3, 38580, Note_on_c, 1, 71, 107
3, 38628, Note_on_c, 1, 71, 0
3, 38640, Note_on_c, 1, 72, 106
3, 38688, Note_on_c, 1, 72, 0
3, 38700, Note_on_c, 1, 71, 105
3, 38748, Note_on_c, 1, 71, 0
3, 38760, Note_on_c, 1, 69, 104
3, 38808, Note_on_c, 1, 69, 0
3, 38820, Note_on_c, 1, 72, 103
3, 38868, Note_on_c, 1, 72, 0
3, 38880, Note_on_c, 1, 71, 102
3, 38928, Note_on_c, 1, 71, 0
3, 38940, Note_on_c, 1, 69, 100
3, 38988, Note_on_c, 1, 69, 0
3, 39000, Note_on_c, 1, 68, 99
3, 39048, Note_on_c, 1, 68, 0
3, 39060, Note_on_c, 1, 66, 98
3, 39108, Note_on_c, 1, 66, 0
3, 39120, Note_on_c, 1, 64, 95
3, 39408, Note_on_c, 1, 64, 0
3, 39420, Note_on_c, 1, 60, 89
3, 39468, Note_on_c, 1, 60, 0
3, 39480, Note_on_c, 1, 57, 89
3, 39528, Note_on_c, 1, 57, 0
3, 39540, Note_on_c, 1, 60, 89
3, 39588, Note_on_c, 1, 60, 0
3, 39600, Note_on_c, 1, 62, 89
3, 39648, Note_on_c, 1, 62, 0
3, 39660, Note_on_c, 1, 59, 89
3, 39708, Note_on_c, 1, 59, 0
3, 39720, Note_on_c, 1, 56, 89
3, 39768, Note_on_c, 1, 56, 0
3, 39780, Note_on_c, 1, 59, 89
3, 39828, Note_on_c, 1, 59, 0
3, 39840, Note_on_c, 1, 60, 89
3, 39936, Note_on_c, 1, 60, 0
3, 39960, Note_on_c, 1, 57, 89
3, 40056, Note_on_c, 1, 57, 0
3, 40080, Note_on_c, 1, 69, 89
3, 40368, Note_on_c, 1, 69, 0
3, 40380, Note_on_c, 1, 65, 89
3, 40428, Note_on_c, 1, 65, 0
3, 40440, Note_on_c, 1, 62, 89
3, 40488, Note_on_c, 1, 62, 0
3, 40500, Note_on_c, 1, 65, 89
3, 40548, Note_on_c, 1, 65, 0
3, 40560, Note_on_c, 1, 67, 89
3, 40608, Note_on_c, 1, 67, 0
3, 40620, Note_on_c, 1, 64, 89
3, 40668, Note_on_c, 1, 64, 0
3, 40680, Note_on_c, 1, 61, 89
3, 40728, Note_on_c, 1, 61, 0
3, 40740, Note_on_c, 1, 64, 89
3, 40788, Note_on_c, 1, 64, 0
3, 40800, Note_on_c, 1, 65, 89
3, 40896, Note_on_c, 1, 65, 0
3, 40920, Note_on_c, 1, 62, 89
3, 41016, Note_on_c, 1, 62, 0
3, 41040, Note_on_c, 1, 77, 89
3, 41328, Note_on_c, 1, 77, 0
3, 41340, Note_on_c, 1, 62, 89
3, 41388, Note_on_c, 1, 62, 0
3, 41400, Note_on_c, 1, 60, 89
3, 41448, Note_on_c, 1, 60, 0
3, 41460, Note_on_c, 1, 59, 89
3, 41508, Note_on_c, 1, 59, 0
3, 41520, Note_on_c, 1, 60, 89
3, 41616, Note_on_c, 1, 60, 0
3, 41640, Note_on_c, 1, 76, 89
3, 41820, Note_on_c, 1, 76, 0
3, 41820, Note_on_c, 1, 60, 89
3, 41868, Note_on_c, 1, 60, 0
3, 41880, Note_on_c, 1, 59, 89
3, 41928, Note_on_c, 1, 59, 0
3, 41940, Note_on_c, 1, 57, 89
3, 41988, Note_on_c, 1, 57, 0
3, 42000, Note_on_c, 1, 59, 89
3, 42096, Note_on_c, 1, 59, 0
3, 42120, Note_on_c, 1, 74, 89
3, 42288, Note_on_c, 1, 74, 0
3, 42300, Note_on_c, 1, 59, 89
3, 42348, Note_on_c, 1, 59, 0
3, 42360, Note_on_c, 1, 57, 89
3, 42408, Note_on_c, 1, 57, 0
3, 42420, Note_on_c, 1, 56, 89
3, 42468, Note_on_c, 1, 56, 0
3, 42480, Note_on_c, 1, 57, 89
3, 42576, Note_on_c, 1, 57, 0
3, 42600, Note_on_c, 1, 69, 89
3, 42780, Note_on_c, 1, 69, 0
3, 42780, Note_on_c, 1, 72, 89
3, 42828, Note_on_c, 1, 72, 0
3, 42840, Note_on_c, 1, 71, 89
3, 42888, Note_on_c, 1, 71, 0
3, 42900, Note_on_c, 1, 69, 89
3, 42948, Note_on_c, 1, 69, 0
3, 42960, Note_on_c, 1, 71, 89
3, 43008, Note_on_c, 1, 71, 0
3, 43020, Note_on_c, 1, 74, 89
3, 43068, Note_on_c, 1, 74, 0
3, 43080, Note_on_c, 1, 72, 89
3, 43128, Note_on_c, 1, 72, 0
3, 43140, Note_on_c, 1, 71, 89
3, 43188, Note_on_c, 1, 71, 0
3, 43200, Note_on_c, 1, 72, 89
3, 43248, Note_on_c, 1, 72, 0
3, 43260, Note_on_c, 1, 71, 89
3, 43308, Note_on_c, 1, 71, 0
3, 43320, Note_on_c, 1, 69, 92
3, 43368, Note_on_c, 1, 69, 0
3, 43380, Note_on_c, 1, 71, 95
3, 43428, Note_on_c, 1, 71, 0
3, 43440, Note_on_c, 1, 72, 98
3, 43488, Note_on_c, 1, 72, 0
3, 43500, Note_on_c, 1, 71, 101
3, 43548, Note_on_c, 1, 71, 0
3, 43560, Note_on_c, 1, 72, 104
3, 43608, Note_on_c, 1, 72, 0
3, 43620, Note_on_c, 1, 74, 107
3, 43668, Note_on_c, 1, 74, 0
3, 43680, Note_on_c, 1, 76, 109
3, 44208, Note_on_c, 1, 76, 0
3, 44220, Note_on_c, 1, 74, 109
3, 44268, Note_on_c, 1, 74, 0
3, 44280, Note_on_c, 1, 73, 109
3, 44328, Note_on_c, 1, 73, 0
3, 44340, Note_on_c, 1, 71, 109
3, 44388, Note_on_c, 1, 71, 0
3, 44400, Note_on_c, 1, 73, 109
3, 44448, Note_on_c, 1, 73, 0
3, 44460, Note_on_c, 1, 69, 109
3, 44508, Note_on_c, 1, 69, 0
3, 44520, Note_on_c, 1, 71, 109
3, 44568, Note_on_c, 1, 71, 0
3, 44580, Note_on_c, 1, 73, 109
3, 44628, Note_on_c, 1, 73, 0
3, 44640, Note_on_c, 1, 74, 109
3, 45168, Note_on_c, 1, 74, 0
3, 45180, Note_on_c, 1, 72, 109
3, 45228, Note_on_c, 1, 72, 0
3, 45240, Note_on_c, 1, 71, 109
3, 45288, Note_on_c, 1, 71, 0
3, 45300, Note_on_c, 1, 72, 109
3, 45348, Note_on_c, 1, 72, 0
3, 45360, Note_on_c, 1, 74, 109
3, 45408, Note_on_c, 1, 74, 0
3, 45420, Note_on_c, 1, 76, 109
3, 45468, Note_on_c, 1, 76, 0
3, 45480, Note_on_c, 1, 77, 109
3, 45528, Note_on_c, 1, 77, 0
3, 45540, Note_on_c, 1, 74, 109
3, 45588, Note_on_c, 1, 74, 0
3, 45600, Note_on_c, 1, 76, 109
3, 45648, Note_on_c, 1, 76, 0
3, 45660, Note_on_c, 1, 77, 109
3, 45708, Note_on_c, 1, 77, 0
3, 45720, Note_on_c, 1, 76, 109
3, 45768, Note_on_c, 1, 76, 0
3, 45780, Note_on_c, 1, 74, 109
3, 45828, Note_on_c, 1, 74, 0
3, 45840, Note_on_c, 1, 72, 109
3, 45888, Note_on_c, 1, 72, 0
3, 45900, Note_on_c, 1, 71, 109
3, 45948, Note_on_c, 1, 71, 0
3, 45960, Note_on_c, 1, 69, 109
3, 46008, Note_on_c, 1, 69, 0
3, 46020, Note_on_c, 1, 68, 109
3, 46068, Note_on_c, 1, 68, 0
3, 46080, Note_on_c, 1, 69, 110
3, 46176, Note_on_c, 1, 69, 0
3, 46200, Note_on_c, 1, 81, 109
3, 46392, Note_on_c, 1, 81, 0
3, 46440, Note_on_c, 1, 80, 107
3, 46536, Note_on_c, 1, 80, 0
3, 46560, Note_on_c, 1, 81, 105
3, 46656, Note_on_c, 1, 81, 0
3, 46680, Note_on_c, 1, 79, 104
3, 46728, Note_on_c, 1, 79, 0
3, 46740, Note_on_c, 1, 77, 103
3, 46788, Note_on_c, 1, 77, 0
3, 46800, Note_on_c, 1, 76, 103
3, 46848, Note_on_c, 1, 76, 0
3, 46860, Note_on_c, 1, 74, 102
3, 46908, Note_on_c, 1, 74, 0
3, 46920, Note_on_c, 1, 72, 102
3, 46968, Note_on_c, 1, 72, 0
3, 46980, Note_on_c, 1, 71, 101
3, 47028, Note_on_c, 1, 71, 0
3, 47040, Note_on_c, 1, 69, 97
3, 47088, Note_on_c, 1, 69, 0
3, 47100, Note_on_c, 1, 72, 94
3, 47148, Note_on_c, 1, 72, 0
3, 47160, Note_on_c, 1, 76, 94
3, 47208, Note_on_c, 1, 76, 0
3, 47220, Note_on_c, 1, 81, 94
3, 47268, Note_on_c, 1, 81, 0
3, 47280, Note_on_c, 1, 71, 94
3, 47328, Note_on_c, 1, 71, 0
3, 47340, Note_on_c, 1, 74, 94
3, 47388, Note_on_c, 1, 74, 0
3, 47400, Note_on_c, 1, 76, 94
3, 47448, Note_on_c, 1, 76, 0
3, 47460, Note_on_c, 1, 80, 94
3, 47508, Note_on_c, 1, 80, 0
3, 47520, Note_on_c, 1, 81, 94
3, 47568, Note_on_c, 1, 81, 0
3, 47580, Note_on_c, 1, 76, 94
3, 47628, Note_on_c, 1, 76, 0
3, 47640, Note_on_c, 1, 72, 94
3, 47688, Note_on_c, 1, 72, 0
3, 47700, Note_on_c, 1, 69, 94
3, 47748, Note_on_c, 1, 69, 0
3, 47760, Note_on_c, 1, 68, 94
3, 47808, Note_on_c, 1, 68, 0
3, 47820, Note_on_c, 1, 71, 94
3, 47868, Note_on_c, 1, 71, 0
3, 47880, Note_on_c, 1, 74, 94
3, 47928, Note_on_c, 1, 74, 0
3, 47940, Note_on_c, 1, 76, 94
3, 47988, Note_on_c, 1, 76, 0
3, 48000, Note_on_c, 1, 69, 94
3, 48048, Note_on_c, 1, 69, 0
3, 48060, Note_on_c, 1, 72, 94
3, 48108, Note_on_c, 1, 72, 0
3, 48120, Note_on_c, 1, 76, 94
3, 48168, Note_on_c, 1, 76, 0
3, 48180, Note_on_c, 1, 81, 94
3, 48228, Note_on_c, 1, 81, 0
3, 48240, Note_on_c, 1, 71, 94
3, 48288, Note_on_c, 1, 71, 0
3, 48300, Note_on_c, 1, 74, 94
3, 48348, Note_on_c, 1, 74, 0
3, 48360, Note_on_c, 1, 76, 94
3, 48408, Note_on_c, 1, 76, 0
3, 48420, Note_on_c, 1, 80, 94
3, 48468, Note_on_c, 1, 80, 0
3, 48480, Note_on_c, 1, 81, 94
3, 48528, Note_on_c, 1, 81, 0
3, 48540, Note_on_c, 1, 76, 94
3, 48588, Note_on_c, 1, 76, 0
3, 48600, Note_on_c, 1, 72, 94
3, 48648, Note_on_c, 1, 72, 0
3, 48660, Note_on_c, 1, 69, 94
3, 48708, Note_on_c, 1, 69, 0
3, 48720, Note_on_c, 1, 57, 94
3, 48768, Note_on_c, 1, 57, 0
3, 48780, Note_on_c, 1, 70, 94
3, 48828, Note_on_c, 1, 70, 0
3, 48840, Note_on_c, 1, 69, 94
3, 48888, Note_on_c, 1, 69, 0
3, 48900, Note_on_c, 1, 67, 94
3, 48948, Note_on_c, 1, 67, 0
3, 48960, Note_on_c, 1, 65, 89
3, 49056, Note_on_c, 1, 65, 0
3, 49080, Note_on_c, 1, 74, 89
3, 49176, Note_on_c, 1, 74, 0
3, 49200, Note_on_c, 1, 67, 89
3, 49296, Note_on_c, 1, 67, 0
3, 49320, Note_on_c, 1, 76, 89
3, 49416, Note_on_c, 1, 76, 0
3, 49440, Note_on_c, 1, 65, 89
3, 49536, Note_on_c, 1, 65, 0
3, 49560, Note_on_c, 1, 74, 89
3, 49656, Note_on_c, 1, 74, 0
3, 49680, Note_on_c, 1, 64, 89
3, 49776, Note_on_c, 1, 64, 0
3, 49800, Note_on_c, 1, 73, 89
3, 49896, Note_on_c, 1, 73, 0
3, 49920, Note_on_c, 1, 65, 89
3, 50016, Note_on_c, 1, 65, 0
3, 50040, Note_on_c, 1, 74, 89
3, 50136, Note_on_c, 1, 74, 0
3, 50160, Note_on_c, 1, 69, 89
3, 50256, Note_on_c, 1, 69, 0
3, 50280, Note_on_c, 1, 76, 89
3, 50376, Note_on_c, 1, 76, 0
3, 50400, Note_on_c, 1, 77, 89
3, 50496, Note_on_c, 1, 77, 0
3, 50520, Note_on_c, 1, 74, 89
3, 50616, Note_on_c, 1, 74, 0
3, 50760, Note_on_c, 1, 74, 87
3, 50976, Note_on_c, 1, 74, 0
3, 51000, Note_on_c, 1, 67, 91
3, 51096, Note_on_c, 1, 67, 0
3, 51120, Note_on_c, 1, 72, 93
3, 51480, Note_on_c, 1, 72, 0
3, 51480, Note_on_c, 1, 69, 99
3, 51576, Note_on_c, 1, 69, 0
3, 51600, Note_on_c, 1, 62, 101
3, 51696, Note_on_c, 1, 62, 0
3, 51720, Note_on_c, 1, 72, 103
3, 51816, Note_on_c, 1, 72, 0
3, 51840, Note_on_c, 1, 70, 105
3, 51888, Note_on_c, 1, 70, 0
3, 51900, Note_on_c, 1, 69, 106
3, 51948, Note_on_c, 1, 69, 0
3, 51960, Note_on_c, 1, 67, 106
3, 52008, Note_on_c, 1, 67, 0
3, 52020, Note_on_c, 1, 69, 106
3, 52068, Note_on_c, 1, 69, 0
3, 52080, Note_on_c, 1, 70, 106
3, 52128, Note_on_c, 1, 70, 0
3, 52140, Note_on_c, 1, 69, 106
3, 52188, Note_on_c, 1, 69, 0
3, 52200, Note_on_c, 1, 70, 106
3, 52248, Note_on_c, 1, 70, 0
3, 52260, Note_on_c, 1, 72, 106
3, 52308, Note_on_c, 1, 72, 0
3, 52320, Note_on_c, 1, 74, 106
3, 52848, Note_on_c, 1, 74, 0
3, 52860, Note_on_c, 1, 72, 106
3, 52908, Note_on_c, 1, 72, 0
3, 52920, Note_on_c, 1, 71, 106
3, 52968, Note_on_c, 1, 71, 0
3, 52980, Note_on_c, 1, 69, 106
3, 53028, Note_on_c, 1, 69, 0
3, 53040, Note_on_c, 1, 71, 106
3, 53088, Note_on_c, 1, 71, 0
3, 53100, Note_on_c, 1, 67, 106
3, 53148, Note_on_c, 1, 67, 0
3, 53160, Note_on_c, 1, 69, 106
3, 53208, Note_on_c, 1, 69, 0
3, 53220, Note_on_c, 1, 71, 106
3, 53268, Note_on_c, 1, 71, 0
3, 53280, Note_on_c, 1, 72, 106
3, 53808, Note_on_c, 1, 72, 0
3, 53820, Note_on_c, 1, 70, 106
3, 53868, Note_on_c, 1, 70, 0
3, 53880, Note_on_c, 1, 69, 106
3, 53928, Note_on_c, 1, 69, 0
3, 53940, Note_on_c, 1, 70, 106
3, 53988, Note_on_c, 1, 70, 0
3, 54000, Note_on_c, 1, 72, 106
3, 54048, Note_on_c, 1, 72, 0
3, 54060, Note_on_c, 1, 74, 106
3, 54108, Note_on_c, 1, 74, 0
3, 54120, Note_on_c, 1, 75, 106
3, 54168, Note_on_c, 1, 75, 0
3, 54180, Note_on_c, 1, 72, 106
3, 54228, Note_on_c, 1, 72, 0
3, 54240, Note_on_c, 1, 74, 106
3, 54288, Note_on_c, 1, 74, 0
3, 54300, Note_on_c, 1, 75, 106
3, 54348, Note_on_c, 1, 75, 0
3, 54360, Note_on_c, 1, 74, 106
3, 54408, Note_on_c, 1, 74, 0
3, 54420, Note_on_c, 1, 72, 106
3, 54468, Note_on_c, 1, 72, 0
3, 54480, Note_on_c, 1, 70, 106
3, 54528, Note_on_c, 1, 70, 0
3, 54540, Note_on_c, 1, 69, 106
3, 54588, Note_on_c, 1, 69, 0
3, 54600, Note_on_c, 1, 67, 106
3, 54648, Note_on_c, 1, 67, 0
3, 54660, Note_on_c, 1, 66, 106
3, 54708, Note_on_c, 1, 66, 0
3, 54720, Note_on_c, 1, 67, 103
3, 54816, Note_on_c, 1, 67, 0
3, 54840, Note_on_c, 1, 79, 103
3, 55032, Note_on_c, 1, 79, 0
3, 55080, Note_on_c, 1, 78, 101
3, 55176, Note_on_c, 1, 78, 0
3, 55200, Note_on_c, 1, 79, 101
3, 55392, Note_on_c, 1, 79, 0
3, 55500, Note_on_c, 1, 63, 99
3, 55548, Note_on_c, 1, 63, 0
3, 55560, Note_on_c, 1, 62, 98
3, 55608, Note_on_c, 1, 62, 0
3, 55620, Note_on_c, 1, 60, 98
3, 55668, Note_on_c, 1, 60, 0
3, 55680, Note_on_c, 1, 58, 98
3, 55776, Note_on_c, 1, 58, 0
3, 55800, Note_on_c, 1, 67, 97
3, 55896, Note_on_c, 1, 67, 0
3, 55920, Note_on_c, 1, 60, 97
3, 56016, Note_on_c, 1, 60, 0
3, 56040, Note_on_c, 1, 69, 96
3, 56136, Note_on_c, 1, 69, 0
3, 56160, Note_on_c, 1, 58, 96
3, 56256, Note_on_c, 1, 58, 0
3, 56280, Note_on_c, 1, 67, 95
3, 56376, Note_on_c, 1, 67, 0
3, 56400, Note_on_c, 1, 57, 95
3, 56496, Note_on_c, 1, 57, 0
3, 56520, Note_on_c, 1, 66, 94
3, 56616, Note_on_c, 1, 66, 0
3, 56640, Note_on_c, 1, 58, 94
3, 56736, Note_on_c, 1, 58, 0
3, 56760, Note_on_c, 1, 67, 93
3, 56856, Note_on_c, 1, 67, 0
3, 56880, Note_on_c, 1, 62, 93
3, 56976, Note_on_c, 1, 62, 0
3, 57000, Note_on_c, 1, 69, 92
3, 57096, Note_on_c, 1, 69, 0
3, 57120, Note_on_c, 1, 70, 92
3, 57216, Note_on_c, 1, 70, 0
3, 57240, Note_on_c, 1, 67, 91
3, 57336, Note_on_c, 1, 67, 0
3, 57420, Note_on_c, 1, 77, 98
3, 57468, Note_on_c, 1, 77, 0
3, 57480, Note_on_c, 1, 75, 97
3, 57528, Note_on_c, 1, 75, 0
3, 57540, Note_on_c, 1, 74, 96
3, 57588, Note_on_c, 1, 74, 0
3, 57600, Note_on_c, 1, 72, 95
3, 57648, Note_on_c, 1, 72, 0
3, 57660, Note_on_c, 1, 75, 94
3, 57708, Note_on_c, 1, 75, 0
3, 57720, Note_on_c, 1, 79, 94
3, 57768, Note_on_c, 1, 79, 0
3, 57780, Note_on_c, 1, 84, 94
3, 57828, Note_on_c, 1, 84, 0
3, 57840, Note_on_c, 1, 74, 94
3, 57888, Note_on_c, 1, 74, 0
3, 57900, Note_on_c, 1, 77, 94
3, 57948, Note_on_c, 1, 77, 0
3, 57960, Note_on_c, 1, 79, 94
3, 58008, Note_on_c, 1, 79, 0
3, 58020, Note_on_c, 1, 83, 94
3, 58068, Note_on_c, 1, 83, 0
3, 58080, Note_on_c, 1, 84, 94
3, 58128, Note_on_c, 1, 84, 0
3, 58140, Note_on_c, 1, 79, 94
3, 58188, Note_on_c, 1, 79, 0
3, 58200, Note_on_c, 1, 75, 94
3, 58248, Note_on_c, 1, 75, 0
3, 58260, Note_on_c, 1, 72, 94
3, 58308, Note_on_c, 1, 72, 0
3, 58320, Note_on_c, 1, 71, 94
3, 58368, Note_on_c, 1, 71, 0
3, 58380, Note_on_c, 1, 74, 94
3, 58428, Note_on_c, 1, 74, 0
3, 58440, Note_on_c, 1, 77, 94
3, 58488, Note_on_c, 1, 77, 0
3, 58500, Note_on_c, 1, 79, 94
3, 58548, Note_on_c, 1, 79, 0
3, 58560, Note_on_c, 1, 72, 94
3, 58608, Note_on_c, 1, 72, 0
3, 58620, Note_on_c, 1, 75, 94
3, 58668, Note_on_c, 1, 75, 0
3, 58680, Note_on_c, 1, 79, 94
3, 58728, Note_on_c, 1, 79, 0
3, 58740, Note_on_c, 1, 84, 94
3, 58788, Note_on_c, 1, 84, 0
3, 58800, Note_on_c, 1, 74, 94
3, 58848, Note_on_c, 1, 74, 0
3, 58860, Note_on_c, 1, 77, 94
3, 58908, Note_on_c, 1, 77, 0
3, 58920, Note_on_c, 1, 79, 94
3, 58968, Note_on_c, 1, 79, 0
3, 58980, Note_on_c, 1, 83, 94
3, 59028, Note_on_c, 1, 83, 0
3, 59040, Note_on_c, 1, 84, 94
3, 59088, Note_on_c, 1, 84, 0
3, 59100, Note_on_c, 1, 79, 94
3, 59148, Note_on_c, 1, 79, 0
3, 59160, Note_on_c, 1, 75, 94
3, 59208, Note_on_c, 1, 75, 0
3, 59220, Note_on_c, 1, 72, 94
3, 59268, Note_on_c, 1, 72, 0
3, 59280, Note_on_c, 1, 60, 94
3, 59376, Note_on_c, 1, 60, 0
3, 59400, Note_on_c, 1, 75, 90
3, 59616, Note_on_c, 1, 75, 0
3, 59640, Note_on_c, 1, 65, 90
3, 59736, Note_on_c, 1, 65, 0
3, 59760, Note_on_c, 1, 75, 90
3, 60120, Note_on_c, 1, 75, 0
3, 60120, Note_on_c, 1, 65, 91
3, 60216, Note_on_c, 1, 65, 0
3, 60240, Note_on_c, 1, 58, 91
3, 60336, Note_on_c, 1, 58, 0
3, 60360, Note_on_c, 1, 74, 92
3, 60576, Note_on_c, 1, 74, 0
3, 60600, Note_on_c, 1, 62, 92
3, 60696, Note_on_c, 1, 62, 0
3, 60720, Note_on_c, 1, 72, 92
3, 61080, Note_on_c, 1, 72, 0
3, 61080, Note_on_c, 1, 62, 93
3, 61176, Note_on_c, 1, 62, 0
3, 61200, Note_on_c, 1, 55, 93
3, 61248, Note_on_c, 1, 55, 0
3, 61260, Note_on_c, 1, 58, 93
3, 61308, Note_on_c, 1, 58, 0
3, 61320, Note_on_c, 1, 57, 93
3, 61368, Note_on_c, 1, 57, 0
3, 61380, Note_on_c, 1, 59, 94
3, 61428, Note_on_c, 1, 59, 0
3, 61440, Note_on_c, 1, 61, 94
3, 61488, Note_on_c, 1, 61, 0
3, 61500, Note_on_c, 1, 59, 94
3, 61548, Note_on_c, 1, 59, 0
3, 61560, Note_on_c, 1, 61, 94
3, 61608, Note_on_c, 1, 61, 0
3, 61620, Note_on_c, 1, 62, 94
3, 61668, Note_on_c, 1, 62, 0
3, 61680, Note_on_c, 1, 61, 94
3, 61728, Note_on_c, 1, 61, 0
3, 61740, Note_on_c, 1, 62, 94
3, 61788, Note_on_c, 1, 62, 0
3, 61800, Note_on_c, 1, 64, 94
3, 61848, Note_on_c, 1, 64, 0
3, 61860, Note_on_c, 1, 61, 94
3, 61908, Note_on_c, 1, 61, 0
3, 61920, Note_on_c, 1, 62, 95
3, 61968, Note_on_c, 1, 62, 0
3, 61980, Note_on_c, 1, 61, 95
3, 62028, Note_on_c, 1, 61, 0
3, 62040, Note_on_c, 1, 62, 95
3, 62088, Note_on_c, 1, 62, 0
3, 62100, Note_on_c, 1, 64, 95
3, 62148, Note_on_c, 1, 64, 0
3, 62160, Note_on_c, 1, 65, 95
3, 62208, Note_on_c, 1, 65, 0
3, 62220, Note_on_c, 1, 64, 95
3, 62268, Note_on_c, 1, 64, 0
3, 62280, Note_on_c, 1, 65, 95
3, 62328, Note_on_c, 1, 65, 0
3, 62340, Note_on_c, 1, 67, 95
3, 62388, Note_on_c, 1, 67, 0
3, 62400, Note_on_c, 1, 69, 96
3, 62448, Note_on_c, 1, 69, 0
3, 62460, Note_on_c, 1, 67, 96
3, 62508, Note_on_c, 1, 67, 0
3, 62520, Note_on_c, 1, 69, 96
3, 62568, Note_on_c, 1, 69, 0
3, 62580, Note_on_c, 1, 70, 96
3, 62628, Note_on_c, 1, 70, 0
3, 62640, Note_on_c, 1, 69, 96
3, 62688, Note_on_c, 1, 69, 0
3, 62700, Note_on_c, 1, 70, 96
3, 62748, Note_on_c, 1, 70, 0
3, 62760, Note_on_c, 1, 72, 96
3, 62808, Note_on_c, 1, 72, 0
3, 62820, Note_on_c, 1, 69, 96
3, 62868, Note_on_c, 1, 69, 0
3, 62880, Note_on_c, 1, 70, 96
3, 62928, Note_on_c, 1, 70, 0
3, 62940, Note_on_c, 1, 63, 97
3, 62988, Note_on_c, 1, 63, 0
3, 63000, Note_on_c, 1, 62, 97
3, 63048, Note_on_c, 1, 62, 0
3, 63060, Note_on_c, 1, 60, 97
3, 63108, Note_on_c, 1, 60, 0
3, 63120, Note_on_c, 1, 62, 97
3, 63168, Note_on_c, 1, 62, 0
3, 63180, Note_on_c, 1, 65, 97
3, 63228, Note_on_c, 1, 65, 0
3, 63240, Note_on_c, 1, 70, 97
3, 63456, Note_on_c, 1, 70, 0
3, 63480, Note_on_c, 1, 70, 98
3, 63576, Note_on_c, 1, 70, 0
3, 63600, Note_on_c, 1, 67, 98
3, 63696, Note_on_c, 1, 67, 0
3, 63720, Note_on_c, 1, 76, 98
3, 63960, Note_on_c, 1, 76, 0
3, 63960, Note_on_c, 1, 69, 99
3, 64056, Note_on_c, 1, 69, 0
3, 64080, Note_on_c, 1, 65, 99
3, 64176, Note_on_c, 1, 65, 0
3, 64200, Note_on_c, 1, 74, 99
3, 64416, Note_on_c, 1, 74, 0
3, 64440, Note_on_c, 1, 67, 99
3, 64536, Note_on_c, 1, 67, 0
3, 64560, Note_on_c, 1, 64, 100
3, 64656, Note_on_c, 1, 64, 0
3, 64680, Note_on_c, 1, 73, 100
3, 64776, Note_on_c, 1, 73, 0
3, 64800, Note_on_c, 1, 74, 100
3, 65088, Note_on_c, 1, 74, 0
3, 65100, Note_on_c, 1, 72, 101
3, 65148, Note_on_c, 1, 72, 0
3, 65160, Note_on_c, 1, 70, 101
3, 65208, Note_on_c, 1, 70, 0
3, 65220, Note_on_c, 1, 69, 101
3, 65268, Note_on_c, 1, 69, 0
3, 65280, Note_on_c, 1, 70, 101
3, 65328, Note_on_c, 1, 70, 0
3, 65340, Note_on_c, 1, 62, 101
3, 65388, Note_on_c, 1, 62, 0
3, 65400, Note_on_c, 1, 64, 101
3, 65448, Note_on_c, 1, 64, 0
3, 65460, Note_on_c, 1, 66, 101
3, 65508, Note_on_c, 1, 66, 0
3, 65520, Note_on_c, 1, 67, 102
3, 65568, Note_on_c, 1, 67, 0
3, 65580, Note_on_c, 1, 69, 102
3, 65628, Note_on_c, 1, 69, 0
3, 65640, Note_on_c, 1, 70, 102
3, 65688, Note_on_c, 1, 70, 0
3, 65700, Note_on_c, 1, 67, 102
3, 65748, Note_on_c, 1, 67, 0
3, 65760, Note_on_c, 1, 60, 102
3, 65808, Note_on_c, 1, 60, 0
3, 65820, Note_on_c, 1, 67, 102
3, 65868, Note_on_c, 1, 67, 0
3, 65880, Note_on_c, 1, 70, 102
3, 66060, Note_on_c, 1, 70, 0
3, 66060, Note_on_c, 1, 67, 103
3, 66108, Note_on_c, 1, 67, 0
3, 66120, Note_on_c, 1, 64, 103
3, 66168, Note_on_c, 1, 64, 0
3, 66180, Note_on_c, 1, 60, 103
3, 66228, Note_on_c, 1, 60, 0
3, 66240, Note_on_c, 1, 69, 103
3, 66288, Note_on_c, 1, 69, 0
3, 66300, Note_on_c, 1, 60, 103
3, 66348, Note_on_c, 1, 60, 0
3, 66360, Note_on_c, 1, 62, 103
3, 66408, Note_on_c, 1, 62, 0
3, 66420, Note_on_c, 1, 64, 103
3, 66468, Note_on_c, 1, 64, 0
3, 66480, Note_on_c, 1, 65, 103
3, 66528, Note_on_c, 1, 65, 0
3, 66540, Note_on_c, 1, 67, 104
3, 66588, Note_on_c, 1, 67, 0
3, 66600, Note_on_c, 1, 69, 104
3, 66648, Note_on_c, 1, 69, 0
3, 66660, Note_on_c, 1, 65, 103
3, 66708, Note_on_c, 1, 65, 0
3, 66720, Note_on_c, 1, 58, 102
3, 66768, Note_on_c, 1, 58, 0
3, 66780, Note_on_c, 1, 65, 102
3, 66828, Note_on_c, 1, 65, 0
3, 66840, Note_on_c, 1, 68, 101
3, 67020, Note_on_c, 1, 68, 0
3, 67020, Note_on_c, 1, 65, 100
3, 67068, Note_on_c, 1, 65, 0
3, 67080, Note_on_c, 1, 62, 99
3, 67128, Note_on_c, 1, 62, 0
3, 67140, Note_on_c, 1, 58, 98
3, 67188, Note_on_c, 1, 58, 0
3, 67200, Note_on_c, 1, 67, 98
3, 67296, Note_on_c, 1, 67, 0
3, 67320, Note_on_c, 1, 70, 97
3, 67416, Note_on_c, 1, 70, 0
3, 67440, Note_on_c, 1, 72, 94
3, 67536, Note_on_c, 1, 72, 0
3, 67560, Note_on_c, 1, 67, 94
3, 67656, Note_on_c, 1, 67, 0
3, 67680, Note_on_c, 1, 69, 94
3, 67776, Note_on_c, 1, 69, 0
3, 67800, Note_on_c, 1, 72, 94
3, 67896, Note_on_c, 1, 72, 0
3, 67920, Note_on_c, 1, 74, 94
3, 68016, Note_on_c, 1, 74, 0
3, 68040, Note_on_c, 1, 69, 94
3, 68136, Note_on_c, 1, 69, 0
3, 68160, Note_on_c, 1, 70, 94
3, 68208, Note_on_c, 1, 70, 0
3, 68220, Note_on_c, 1, 72, 94
3, 68268, Note_on_c, 1, 72, 0
3, 68280, Note_on_c, 1, 70, 93
3, 68328, Note_on_c, 1, 70, 0
3, 68340, Note_on_c, 1, 69, 93
3, 68388, Note_on_c, 1, 69, 0
3, 68400, Note_on_c, 1, 67, 93
3, 68448, Note_on_c, 1, 67, 0
3, 68460, Note_on_c, 1, 65, 93
3, 68508, Note_on_c, 1, 65, 0
3, 68520, Note_on_c, 1, 63, 93
3, 68568, Note_on_c, 1, 63, 0
3, 68580, Note_on_c, 1, 62, 93
3, 68628, Note_on_c, 1, 62, 0
3, 68640, Note_on_c, 1, 60, 93
3, 68688, Note_on_c, 1, 60, 0
3, 68700, Note_on_c, 1, 74, 93
3, 68748, Note_on_c, 1, 74, 0
3, 68760, Note_on_c, 1, 72, 93
3, 68808, Note_on_c, 1, 72, 0
3, 68820, Note_on_c, 1, 70, 93
3, 68868, Note_on_c, 1, 70, 0
3, 68880, Note_on_c, 1, 69, 93
3, 68928, Note_on_c, 1, 69, 0
3, 68940, Note_on_c, 1, 67, 93
3, 68988, Note_on_c, 1, 67, 0
3, 69000, Note_on_c, 1, 65, 93
3, 69048, Note_on_c, 1, 65, 0
3, 69060, Note_on_c, 1, 64, 93
3, 69108, Note_on_c, 1, 64, 0
3, 69120, Note_on_c, 1, 62, 92
3, 69216, Note_on_c, 1, 62, 0
3, 69240, Note_on_c, 1, 70, 92
3, 69288, Note_on_c, 1, 70, 0
3, 69300, Note_on_c, 1, 72, 92
3, 69348, Note_on_c, 1, 72, 0
3, 69360, Note_on_c, 1, 74, 92
3, 69456, Note_on_c, 1, 74, 0
3, 69480, Note_on_c, 1, 70, 92
3, 69660, Note_on_c, 1, 70, 0
3, 69660, Note_on_c, 1, 69, 92
3, 69708, Note_on_c, 1, 69, 0
3, 69720, Note_on_c, 1, 67, 92
3, 69768, Note_on_c, 1, 67, 0
3, 69780, Note_on_c, 1, 65, 92
3, 69828, Note_on_c, 1, 65, 0
3, 69840, Note_on_c, 1, 64, 92
3, 69936, Note_on_c, 1, 64, 0
3, 69960, Note_on_c, 1, 76, 92
3, 70176, Note_on_c, 1, 76, 0
3, 70200, Note_on_c, 1, 69, 91
3, 70248, Note_on_c, 1, 69, 0
3, 70260, Note_on_c, 1, 70, 91
3, 70308, Note_on_c, 1, 70, 0
3, 70320, Note_on_c, 1, 72, 91
3, 70416, Note_on_c, 1, 72, 0
3, 70440, Note_on_c, 1, 69, 91
3, 70620, Note_on_c, 1, 69, 0
3, 70620, Note_on_c, 1, 67, 91
3, 70668, Note_on_c, 1, 67, 0
3, 70680, Note_on_c, 1, 66, 91
3, 70728, Note_on_c, 1, 66, 0
3, 70740, Note_on_c, 1, 64, 91
3, 70788, Note_on_c, 1, 64, 0
3, 70800, Note_on_c, 1, 62, 91
3, 71088, Note_on_c, 1, 62, 0
3, 71100, Note_on_c, 1, 67, 90
3, 71148, Note_on_c, 1, 67, 0
3, 71160, Note_on_c, 1, 70, 90
3, 71208, Note_on_c, 1, 70, 0
3, 71220, Note_on_c, 1, 74, 90
3, 71268, Note_on_c, 1, 74, 0
3, 71280, Note_on_c, 1, 79, 90
3, 71328, Note_on_c, 1, 79, 0
3, 71340, Note_on_c, 1, 74, 90
3, 71388, Note_on_c, 1, 74, 0
3, 71400, Note_on_c, 1, 70, 90
3, 71448, Note_on_c, 1, 70, 0
3, 71460, Note_on_c, 1, 67, 90
3, 71508, Note_on_c, 1, 67, 0
3, 71520, Note_on_c, 1, 62, 90
3, 71568, Note_on_c, 1, 62, 0
3, 71580, Note_on_c, 1, 65, 90
3, 71628, Note_on_c, 1, 65, 0
3, 71640, Note_on_c, 1, 69, 90
3, 71688, Note_on_c, 1, 69, 0
3, 71700, Note_on_c, 1, 74, 90
3, 71748, Note_on_c, 1, 74, 0
3, 71760, Note_on_c, 1, 77, 89
3, 71808, Note_on_c, 1, 77, 0
3, 71820, Note_on_c, 1, 74, 89
3, 71868, Note_on_c, 1, 74, 0
3, 71880, Note_on_c, 1, 69, 89
3, 71928, Note_on_c, 1, 69, 0
3, 71940, Note_on_c, 1, 65, 89
3, 71988, Note_on_c, 1, 65, 0
3, 72000, Note_on_c, 1, 62, 89
3, 72048, Note_on_c, 1, 62, 0
3, 72060, Note_on_c, 1, 64, 89
3, 72108, Note_on_c, 1, 64, 0
3, 72120, Note_on_c, 1, 67, 89
3, 72168, Note_on_c, 1, 67, 0
3, 72180, Note_on_c, 1, 70, 89
3, 72228, Note_on_c, 1, 70, 0
3, 72240, Note_on_c, 1, 76, 89
3, 72288, Note_on_c, 1, 76, 0
3, 72300, Note_on_c, 1, 70, 89
3, 72348, Note_on_c, 1, 70, 0
3, 72360, Note_on_c, 1, 67, 89
3, 72408, Note_on_c, 1, 67, 0
3, 72420, Note_on_c, 1, 62, 89
3, 72468, Note_on_c, 1, 62, 0
3, 72480, Note_on_c, 1, 61, 89
3, 72528, Note_on_c, 1, 61, 0
3, 72540, Note_on_c, 1, 64, 89
3, 72588, Note_on_c, 1, 64, 0
3, 72600, Note_on_c, 1, 67, 89
3, 72648, Note_on_c, 1, 67, 0
3, 72660, Note_on_c, 1, 69, 89
3, 72708, Note_on_c, 1, 69, 0
3, 72720, Note_on_c, 1, 76, 89
3, 72816, Note_on_c, 1, 76, 0
3, 76620, Note_on_c, 1, 67, 111
3, 76668, Note_on_c, 1, 67, 0
3, 76680, Note_on_c, 1, 65, 111
3, 76728, Note_on_c, 1, 65, 0
3, 76740, Note_on_c, 1, 64, 111
3, 76788, Note_on_c, 1, 64, 0
3, 76800, Note_on_c, 1, 65, 111
3, 76896, Note_on_c, 1, 65, 0
3, 76920, Note_on_c, 1, 81, 111
3, 77016, Note_on_c, 1, 81, 0
3, 77040, Note_on_c, 1, 64, 111
3, 77136, Note_on_c, 1, 64, 0
3, 77160, Note_on_c, 1, 79, 111
3, 77256, Note_on_c, 1, 79, 0
3, 77280, Note_on_c, 1, 62, 111
3, 77328, Note_on_c, 1, 62, 0
3, 77340, Note_on_c, 1, 79, 111
3, 77388, Note_on_c, 1, 79, 0
3, 77400, Note_on_c, 1, 77, 111
3, 77448, Note_on_c, 1, 77, 0
3, 77460, Note_on_c, 1, 76, 111
3, 77508, Note_on_c, 1, 76, 0
3, 77520, Note_on_c, 1, 74, 111
3, 77568, Note_on_c, 1, 74, 0
3, 77580, Note_on_c, 1, 72, 111
3, 77628, Note_on_c, 1, 72, 0
3, 77640, Note_on_c, 1, 70, 111
3, 77688, Note_on_c, 1, 70, 0
3, 77700, Note_on_c, 1, 69, 111
3, 77748, Note_on_c, 1, 69, 0
3, 77760, Note_on_c, 1, 70, 111
3, 77856, Note_on_c, 1, 70, 0
3, 77880, Note_on_c, 1, 86, 111
3, 77976, Note_on_c, 1, 86, 0
3, 78000, Note_on_c, 1, 69, 111
3, 78096, Note_on_c, 1, 69, 0
3, 78120, Note_on_c, 1, 84, 111
3, 78216, Note_on_c, 1, 84, 0
3, 78240, Note_on_c, 1, 67, 111
3, 78288, Note_on_c, 1, 67, 0
3, 78300, Note_on_c, 1, 84, 111
3, 78348, Note_on_c, 1, 84, 0
3, 78360, Note_on_c, 1, 82, 111
3, 78408, Note_on_c, 1, 82, 0
3, 78420, Note_on_c, 1, 81, 111
3, 78468, Note_on_c, 1, 81, 0
3, 78480, Note_on_c, 1, 79, 111
3, 78528, Note_on_c, 1, 79, 0
3, 78540, Note_on_c, 1, 77, 111
3, 78588, Note_on_c, 1, 77, 0
3, 78600, Note_on_c, 1, 76, 111
3, 78648, Note_on_c, 1, 76, 0
3, 78660, Note_on_c, 1, 74, 111
3, 78708, Note_on_c, 1, 74, 0
3, 78720, Note_on_c, 1, 76, 111
3, 78768, Note_on_c, 1, 76, 0
3, 78780, Note_on_c, 1, 82, 111
3, 78828, Note_on_c, 1, 82, 0
3, 78840, Note_on_c, 1, 81, 111
3, 78888, Note_on_c, 1, 81, 0
3, 78900, Note_on_c, 1, 79, 111
3, 78948, Note_on_c, 1, 79, 0
3, 78960, Note_on_c, 1, 81, 111
3, 79008, Note_on_c, 1, 81, 0
3, 79020, Note_on_c, 1, 76, 111
3, 79068, Note_on_c, 1, 76, 0
3, 79080, Note_on_c, 1, 74, 111
3, 79128, Note_on_c, 1, 74, 0
3, 79140, Note_on_c, 1, 73, 111
3, 79188, Note_on_c, 1, 73, 0
3, 79200, Note_on_c, 1, 74, 111
3, 79248, Note_on_c, 1, 74, 0
3, 79260, Note_on_c, 1, 81, 111
3, 79308, Note_on_c, 1, 81, 0
3, 79320, Note_on_c, 1, 79, 111
3, 79368, Note_on_c, 1, 79, 0
3, 79380, Note_on_c, 1, 77, 111
3, 79428, Note_on_c, 1, 77, 0
3, 79440, Note_on_c, 1, 79, 111
3, 79488, Note_on_c, 1, 79, 0
3, 79500, Note_on_c, 1, 74, 111
3, 79548, Note_on_c, 1, 74, 0
3, 79560, Note_on_c, 1, 73, 111
3, 79608, Note_on_c, 1, 73, 0
3, 79620, Note_on_c, 1, 71, 111
3, 79668, Note_on_c, 1, 71, 0
3, 79680, Note_on_c, 1, 73, 111
3, 79728, Note_on_c, 1, 73, 0
3, 79740, Note_on_c, 1, 79, 111
3, 79788, Note_on_c, 1, 79, 0
3, 79800, Note_on_c, 1, 77, 111
3, 79848, Note_on_c, 1, 77, 0
3, 79860, Note_on_c, 1, 76, 111
3, 79908, Note_on_c, 1, 76, 0
3, 79920, Note_on_c, 1, 77, 111
3, 79968, Note_on_c, 1, 77, 0
3, 79980, Note_on_c, 1, 76, 111
3, 80028, Note_on_c, 1, 76, 0
3, 80040, Note_on_c, 1, 74, 111
3, 80088, Note_on_c, 1, 74, 0
3, 80100, Note_on_c, 1, 77, 111
3, 80148, Note_on_c, 1, 77, 0
3, 80160, Note_on_c, 1, 76, 110
3, 80208, Note_on_c, 1, 76, 0
3, 80220, Note_on_c, 1, 74, 110
3, 80268, Note_on_c, 1, 74, 0
3, 80280, Note_on_c, 1, 73, 110
3, 80328, Note_on_c, 1, 73, 0
3, 80340, Note_on_c, 1, 71, 109
3, 80388, Note_on_c, 1, 71, 0
3, 80400, Note_on_c, 1, 69, 109
3, 80496, Note_on_c, 1, 69, 0
3, 80760, Note_on_c, 1, 69, 106
3, 80856, Note_on_c, 1, 69, 0
3, 80880, Note_on_c, 1, 74, 106
3, 80976, Note_on_c, 1, 74, 0
3, 81000, Note_on_c, 1, 77, 106
3, 81096, Note_on_c, 1, 77, 0
3, 81120, Note_on_c, 1, 76, 106
3, 81216, Note_on_c, 1, 76, 0
3, 81240, Note_on_c, 1, 73, 107
3, 81336, Note_on_c, 1, 73, 0
3, 81360, Note_on_c, 1, 69, 107
3, 81648, Note_on_c, 1, 69, 0
3, 81660, Note_on_c, 1, 67, 108
3, 81708, Note_on_c, 1, 67, 0
3, 81720, Note_on_c, 1, 66, 108
3, 81768, Note_on_c, 1, 66, 0
3, 81780, Note_on_c, 1, 64, 108
3, 81828, Note_on_c, 1, 64, 0
3, 81840, Note_on_c, 1, 66, 108
3, 81888, Note_on_c, 1, 66, 0
3, 81900, Note_on_c, 1, 62, 108
3, 81948, Note_on_c, 1, 62, 0
3, 81960, Note_on_c, 1, 64, 109
3, 82008, Note_on_c, 1, 64, 0
3, 82020, Note_on_c, 1, 66, 109
3, 82068, Note_on_c, 1, 66, 0
3, 82080, Note_on_c, 1, 67, 109
3, 82608, Note_on_c, 1, 67, 0
3, 82620, Note_on_c, 1, 65, 110
3, 82668, Note_on_c, 1, 65, 0
3, 82680, Note_on_c, 1, 64, 110
3, 82728, Note_on_c, 1, 64, 0
3, 82740, Note_on_c, 1, 65, 110
3, 82788, Note_on_c, 1, 65, 0
3, 82800, Note_on_c, 1, 67, 111
3, 82848, Note_on_c, 1, 67, 0
3, 82860, Note_on_c, 1, 69, 111
3, 82908, Note_on_c, 1, 69, 0
3, 82920, Note_on_c, 1, 70, 111
3, 82968, Note_on_c, 1, 70, 0
3, 82980, Note_on_c, 1, 67, 111
3, 83028, Note_on_c, 1, 67, 0
3, 83040, Note_on_c, 1, 69, 111
3, 83088, Note_on_c, 1, 69, 0
3, 83100, Note_on_c, 1, 70, 111
3, 83148, Note_on_c, 1, 70, 0
3, 83160, Note_on_c, 1, 69, 111
3, 83208, Note_on_c, 1, 69, 0
3, 83220, Note_on_c, 1, 67, 112
3, 83268, Note_on_c, 1, 67, 0
3, 83280, Note_on_c, 1, 65, 112
3, 83328, Note_on_c, 1, 65, 0
3, 83340, Note_on_c, 1, 64, 112
3, 83388, Note_on_c, 1, 64, 0
3, 83400, Note_on_c, 1, 62, 112
3, 83448, Note_on_c, 1, 62, 0
3, 83460, Note_on_c, 1, 61, 112
3, 83508, Note_on_c, 1, 61, 0
3, 83520, Note_on_c, 1, 62, 112
3, 83616, Note_on_c, 1, 62, 0
3, 83640, Note_on_c, 1, 74, 113
3, 83832, Note_on_c, 1, 74, 0
3, 83880, Note_on_c, 1, 73, 113
3, 83976, Note_on_c, 1, 73, 0
3, 84000, Note_on_c, 1, 74, 114
3, 84384, Note_on_c, 1, 74, 0
3, 86400, Note_on_c, 1, 77, 60
3, 86856, Note_on_c, 1, 77, 0
3, 86880, Note_on_c, 1, 76, 70
3, 86976, Note_on_c, 1, 76, 0
3, 87000, Note_on_c, 1, 74, 74
3, 87096, Note_on_c, 1, 74, 0
3, 87120, Note_on_c, 1, 72, 72
3, 87576, Note_on_c, 1, 72, 0
3, 87600, Note_on_c, 1, 70, 73
3, 87696, Note_on_c, 1, 70, 0
3, 87720, Note_on_c, 1, 69, 75
3, 87816, Note_on_c, 1, 69, 0
3, 87840, Note_on_c, 1, 67, 72
3, 87936, Note_on_c, 1, 67, 0
3, 87960, Note_on_c, 1, 64, 70
3, 88056, Note_on_c, 1, 64, 0
3, 88080, Note_on_c, 1, 65, 67
3, 88176, Note_on_c, 1, 65, 0
3, 88200, Note_on_c, 1, 70, 65
3, 88656, Note_on_c, 1, 70, 0
3, 88680, Note_on_c, 1, 69, 68
3, 88776, Note_on_c, 1, 69, 0
3, 88800, Note_on_c, 1, 72, 70
3, 88896, Note_on_c, 1, 72, 0
3, 88920, Note_on_c, 1, 77, 70
3, 89016, Note_on_c, 1, 77, 0
3, 89040, Note_on_c, 1, 79, 69
3, 89088, Note_on_c, 1, 79, 0
3, 89100, Note_on_c, 1, 77, 68
3, 89148, Note_on_c, 1, 77, 0
3, 89160, Note_on_c, 1, 76, 68
3, 89208, Note_on_c, 1, 76, 0
3, 89220, Note_on_c, 1, 74, 68
3, 89268, Note_on_c, 1, 74, 0
3, 89280, Note_on_c, 1, 76, 69
3, 89328, Note_on_c, 1, 76, 0
3, 89340, Note_on_c, 1, 74, 69
3, 89388, Note_on_c, 1, 74, 0
3, 89400, Note_on_c, 1, 76, 69
3, 89448, Note_on_c, 1, 76, 0
3, 89460, Note_on_c, 1, 72, 70
3, 89508, Note_on_c, 1, 72, 0
3, 89520, Note_on_c, 1, 67, 70
3, 89568, Note_on_c, 1, 67, 0
3, 89580, Note_on_c, 1, 72, 71
3, 89628, Note_on_c, 1, 72, 0
3, 89640, Note_on_c, 1, 77, 71
3, 89688, Note_on_c, 1, 77, 0
3, 89700, Note_on_c, 1, 76, 71
3, 89748, Note_on_c, 1, 76, 0
3, 89760, Note_on_c, 1, 77, 72
3, 89808, Note_on_c, 1, 77, 0
3, 89820, Note_on_c, 1, 74, 72
3, 89868, Note_on_c, 1, 74, 0
3, 89880, Note_on_c, 1, 71, 72
3, 89928, Note_on_c, 1, 71, 0
3, 89940, Note_on_c, 1, 74, 73
3, 89988, Note_on_c, 1, 74, 0
3, 90000, Note_on_c, 1, 79, 73
3, 90048, Note_on_c, 1, 79, 0
3, 90060, Note_on_c, 1, 77, 73
3, 90108, Note_on_c, 1, 77, 0
3, 90120, Note_on_c, 1, 79, 74
3, 90168, Note_on_c, 1, 79, 0
3, 90180, Note_on_c, 1, 76, 74
3, 90228, Note_on_c, 1, 76, 0
3, 90240, Note_on_c, 1, 72, 74
3, 90288, Note_on_c, 1, 72, 0
3, 90300, Note_on_c, 1, 76, 75
3, 90348, Note_on_c, 1, 76, 0
3, 90360, Note_on_c, 1, 81, 75
3, 90408, Note_on_c, 1, 81, 0
3, 90420, Note_on_c, 1, 79, 76
3, 90468, Note_on_c, 1, 79, 0
3, 90480, Note_on_c, 1, 81, 76
3, 90528, Note_on_c, 1, 81, 0
3, 90540, Note_on_c, 1, 77, 76
3, 90588, Note_on_c, 1, 77, 0
3, 90600, Note_on_c, 1, 79, 77
3, 90648, Note_on_c, 1, 79, 0
3, 90660, Note_on_c, 1, 81, 77
3, 90708, Note_on_c, 1, 81, 0
3, 90720, Note_on_c, 1, 71, 77
3, 90816, Note_on_c, 1, 71, 0
3, 90840, Note_on_c, 1, 79, 77
3, 90936, Note_on_c, 1, 79, 0
3, 90960, Note_on_c, 1, 72, 76
3, 91176, Note_on_c, 1, 72, 0
3, 91200, Note_on_c, 1, 69, 72
3, 91296, Note_on_c, 1, 69, 0
3, 91320, Note_on_c, 1, 71, 71
3, 91416, Note_on_c, 1, 71, 0
3, 91440, Note_on_c, 1, 72, 70
3, 91488, Note_on_c, 1, 72, 0
3, 91500, Note_on_c, 1, 71, 70
3, 91548, Note_on_c, 1, 71, 0
3, 91560, Note_on_c, 1, 72, 71
3, 91608, Note_on_c, 1, 72, 0
3, 91620, Note_on_c, 1, 67, 71
3, 91668, Note_on_c, 1, 67, 0
3, 91680, Note_on_c, 1, 64, 71
3, 91728, Note_on_c, 1, 64, 0
3, 91740, Note_on_c, 1, 67, 72
3, 91788, Note_on_c, 1, 67, 0
3, 91800, Note_on_c, 1, 65, 72
3, 91848, Note_on_c, 1, 65, 0
3, 91860, Note_on_c, 1, 67, 72
3, 91908, Note_on_c, 1, 67, 0
3, 91920, Note_on_c, 1, 69, 73
3, 91968, Note_on_c, 1, 69, 0
3, 91980, Note_on_c, 1, 70, 73
3, 92028, Note_on_c, 1, 70, 0
3, 92040, Note_on_c, 1, 72, 73
3, 92088, Note_on_c, 1, 72, 0
3, 92100, Note_on_c, 1, 69, 74
3, 92148, Note_on_c, 1, 69, 0
3, 92160, Note_on_c, 1, 65, 74
3, 92208, Note_on_c, 1, 65, 0
3, 92220, Note_on_c, 1, 63, 74
3, 92268, Note_on_c, 1, 63, 0
3, 92280, Note_on_c, 1, 65, 74
3, 92328, Note_on_c, 1, 65, 0
3, 92340, Note_on_c, 1, 70, 75
3, 92388, Note_on_c, 1, 70, 0
3, 92400, Note_on_c, 1, 62, 75
3, 92448, Note_on_c, 1, 62, 0
3, 92460, Note_on_c, 1, 65, 75
3, 92508, Note_on_c, 1, 65, 0
3, 92520, Note_on_c, 1, 64, 76
3, 92568, Note_on_c, 1, 64, 0
3, 92580, Note_on_c, 1, 65, 76
3, 92628, Note_on_c, 1, 65, 0
3, 92640, Note_on_c, 1, 67, 76
3, 92688, Note_on_c, 1, 67, 0
3, 92700, Note_on_c, 1, 69, 77
3, 92748, Note_on_c, 1, 69, 0
3, 92760, Note_on_c, 1, 70, 77
3, 92808, Note_on_c, 1, 70, 0
3, 92820, Note_on_c, 1, 67, 77
3, 92868, Note_on_c, 1, 67, 0
3, 92880, Note_on_c, 1, 64, 78
3, 92928, Note_on_c, 1, 64, 0
3, 92940, Note_on_c, 1, 62, 78
3, 92988, Note_on_c, 1, 62, 0
3, 93000, Note_on_c, 1, 64, 78
3, 93048, Note_on_c, 1, 64, 0
3, 93060, Note_on_c, 1, 69, 77
3, 93108, Note_on_c, 1, 69, 0
3, 93120, Note_on_c, 1, 60, 77
3, 93168, Note_on_c, 1, 60, 0
3, 93180, Note_on_c, 1, 64, 77
3, 93228, Note_on_c, 1, 64, 0
3, 93240, Note_on_c, 1, 62, 76
3, 93288, Note_on_c, 1, 62, 0
3, 93300, Note_on_c, 1, 64, 76
3, 93348, Note_on_c, 1, 64, 0
3, 93360, Note_on_c, 1, 65, 75
3, 93408, Note_on_c, 1, 65, 0
3, 93420, Note_on_c, 1, 67, 75
3, 93468, Note_on_c, 1, 67, 0
3, 93480, Note_on_c, 1, 69, 75
3, 93528, Note_on_c, 1, 69, 0
3, 93540, Note_on_c, 1, 65, 74
3, 93588, Note_on_c, 1, 65, 0
3, 93600, Note_on_c, 1, 62, 74
3, 93648, Note_on_c, 1, 62, 0
3, 93660, Note_on_c, 1, 60, 74
3, 93708, Note_on_c, 1, 60, 0
3, 93720, Note_on_c, 1, 62, 73
3, 93768, Note_on_c, 1, 62, 0
3, 93780, Note_on_c, 1, 67, 73
3, 93828, Note_on_c, 1, 67, 0
3, 93840, Note_on_c, 1, 58, 73
3, 93888, Note_on_c, 1, 58, 0
3, 93900, Note_on_c, 1, 62, 72
3, 93948, Note_on_c, 1, 62, 0
3, 93960, Note_on_c, 1, 60, 72
3, 94008, Note_on_c, 1, 60, 0
3, 94020, Note_on_c, 1, 62, 71
3, 94068, Note_on_c, 1, 62, 0
3, 94080, Note_on_c, 1, 64, 71
3, 94128, Note_on_c, 1, 64, 0
3, 94140, Note_on_c, 1, 65, 71
3, 94188, Note_on_c, 1, 65, 0
3, 94200, Note_on_c, 1, 67, 70
3, 94248, Note_on_c, 1, 67, 0
3, 94260, Note_on_c, 1, 64, 70
3, 94308, Note_on_c, 1, 64, 0
3, 94320, Note_on_c, 1, 65, 70
3, 94512, Note_on_c, 1, 65, 0
3, 95040, Note_on_c, 1, 74, 60
3, 95496, Note_on_c, 1, 74, 0
3, 95520, Note_on_c, 1, 72, 68
3, 95616, Note_on_c, 1, 72, 0
3, 95640, Note_on_c, 1, 70, 70
3, 95736, Note_on_c, 1, 70, 0
3, 95760, Note_on_c, 1, 69, 69
3, 96216, Note_on_c, 1, 69, 0
3, 96240, Note_on_c, 1, 67, 69
3, 96336, Note_on_c, 1, 67, 0
3, 96360, Note_on_c, 1, 65, 69
3, 96456, Note_on_c, 1, 65, 0
3, 96480, Note_on_c, 1, 64, 68
3, 96576, Note_on_c, 1, 64, 0
3, 96600, Note_on_c, 1, 61, 68
3, 96696, Note_on_c, 1, 61, 0
3, 96720, Note_on_c, 1, 62, 67
3, 96816, Note_on_c, 1, 62, 0
3, 96840, Note_on_c, 1, 67, 67
3, 97260, Note_on_c, 1, 67, 0
3, 97260, Note_on_c, 1, 64, 69
3, 97308, Note_on_c, 1, 64, 0
3, 97320, Note_on_c, 1, 66, 69
3, 97368, Note_on_c, 1, 66, 0
3, 97380, Note_on_c, 1, 67, 70
3, 97428, Note_on_c, 1, 67, 0
3, 97440, Note_on_c, 1, 69, 71
3, 97488, Note_on_c, 1, 69, 0
3, 97500, Note_on_c, 1, 70, 72
3, 97548, Note_on_c, 1, 70, 0
3, 97560, Note_on_c, 1, 72, 72
3, 97608, Note_on_c, 1, 72, 0
3, 97620, Note_on_c, 1, 75, 73
3, 97668, Note_on_c, 1, 75, 0
3, 97680, Note_on_c, 1, 74, 74
3, 97728, Note_on_c, 1, 74, 0
3, 97740, Note_on_c, 1, 72, 72
3, 97788, Note_on_c, 1, 72, 0
3, 97800, Note_on_c, 1, 70, 71
3, 97848, Note_on_c, 1, 70, 0
3, 97860, Note_on_c, 1, 69, 69
3, 97908, Note_on_c, 1, 69, 0
3, 97920, Note_on_c, 1, 70, 68
3, 98112, Note_on_c, 1, 70, 0
3, 98400, Note_on_c, 1, 70, 69
3, 98688, Note_on_c, 1, 70, 0
3, 98700, Note_on_c, 1, 67, 67
3, 98748, Note_on_c, 1, 67, 0
3, 98760, Note_on_c, 1, 69, 66
3, 98808, Note_on_c, 1, 69, 0
3, 98820, Note_on_c, 1, 70, 66
3, 98868, Note_on_c, 1, 70, 0
3, 98880, Note_on_c, 1, 72, 66
3, 98928, Note_on_c, 1, 72, 0
3, 98940, Note_on_c, 1, 74, 66
3, 98988, Note_on_c, 1, 74, 0
3, 99000, Note_on_c, 1, 75, 67
3, 99048, Note_on_c, 1, 75, 0
3, 99060, Note_on_c, 1, 79, 67
3, 99108, Note_on_c, 1, 79, 0
3, 99120, Note_on_c, 1, 77, 67
3, 99168, Note_on_c, 1, 77, 0
3, 99180, Note_on_c, 1, 75, 67
3, 99228, Note_on_c, 1, 75, 0
3, 99240, Note_on_c, 1, 74, 68
3, 99288, Note_on_c, 1, 74, 0
3, 99300, Note_on_c, 1, 72, 68
3, 99348, Note_on_c, 1, 72, 0
3, 99360, Note_on_c, 1, 74, 68
3, 99408, Note_on_c, 1, 74, 0
3, 99420, Note_on_c, 1, 72, 68
3, 99468, Note_on_c, 1, 72, 0
3, 99480, Note_on_c, 1, 74, 69
3, 99528, Note_on_c, 1, 74, 0
3, 99540, Note_on_c, 1, 70, 69
3, 99588, Note_on_c, 1, 70, 0
3, 99600, Note_on_c, 1, 65, 69
3, 99648, Note_on_c, 1, 65, 0
3, 99660, Note_on_c, 1, 70, 69
3, 99708, Note_on_c, 1, 70, 0
3, 99720, Note_on_c, 1, 75, 70
3, 99768, Note_on_c, 1, 75, 0
3, 99780, Note_on_c, 1, 74, 70
3, 99828, Note_on_c, 1, 74, 0
3, 99840, Note_on_c, 1, 75, 70
3, 99888, Note_on_c, 1, 75, 0
3, 99900, Note_on_c, 1, 72, 70
3, 99948, Note_on_c, 1, 72, 0
3, 99960, Note_on_c, 1, 69, 71
3, 100008, Note_on_c, 1, 69, 0
3, 100020, Note_on_c, 1, 72, 71
3, 100068, Note_on_c, 1, 72, 0
3, 100080, Note_on_c, 1, 77, 71
3, 100128, Note_on_c, 1, 77, 0
3, 100140, Note_on_c, 1, 75, 71
3, 100188, Note_on_c, 1, 75, 0
3, 100200, Note_on_c, 1, 77, 72
3, 100248, Note_on_c, 1, 77, 0
3, 100260, Note_on_c, 1, 74, 72
3, 100308, Note_on_c, 1, 74, 0
3, 100320, Note_on_c, 1, 70, 72
3, 100368, Note_on_c, 1, 70, 0
3, 100380, Note_on_c, 1, 74, 72
3, 100428, Note_on_c, 1, 74, 0
3, 100440, Note_on_c, 1, 79, 73
3, 100488, Note_on_c, 1, 79, 0
3, 100500, Note_on_c, 1, 77, 73
3, 100548, Note_on_c, 1, 77, 0
3, 100560, Note_on_c, 1, 79, 73
3, 100608, Note_on_c, 1, 79, 0
3, 100620, Note_on_c, 1, 75, 73
3, 100668, Note_on_c, 1, 75, 0
3, 100680, Note_on_c, 1, 77, 74
3, 100728, Note_on_c, 1, 77, 0
3, 100740, Note_on_c, 1, 79, 74
3, 100788, Note_on_c, 1, 79, 0
3, 100800, Note_on_c, 1, 69, 74
3, 100896, Note_on_c, 1, 69, 0
3, 100920, Note_on_c, 1, 77, 75
3, 101016, Note_on_c, 1, 77, 0
3, 101040, Note_on_c, 1, 70, 75
3, 101256, Note_on_c, 1, 70, 0
3, 101280, Note_on_c, 1, 67, 76
3, 101376, Note_on_c, 1, 67, 0
3, 101400, Note_on_c, 1, 69, 77
3, 101496, Note_on_c, 1, 69, 0
3, 101520, Note_on_c, 1, 70, 77
3, 101808, Note_on_c, 1, 70, 0
3, 102240, Note_on_c, 1, 77, 75
3, 102696, Note_on_c, 1, 77, 0
3, 102720, Note_on_c, 1, 76, 77
3, 102816, Note_on_c, 1, 76, 0
3, 102840, Note_on_c, 1, 74, 78
3, 102936, Note_on_c, 1, 74, 0
3, 102960, Note_on_c, 1, 72, 76
3, 103416, Note_on_c, 1, 72, 0
3, 103440, Note_on_c, 1, 70, 69
3, 103536, Note_on_c, 1, 70, 0
3, 103560, Note_on_c, 1, 69, 68
3, 103656, Note_on_c, 1, 69, 0
3, 103680, Note_on_c, 1, 67, 67
3, 103776, Note_on_c, 1, 67, 0
3, 103800, Note_on_c, 1, 64, 68
3, 103896, Note_on_c, 1, 64, 0
3, 103920, Note_on_c, 1, 65, 69
3, 104016, Note_on_c, 1, 65, 0
3, 104040, Note_on_c, 1, 70, 71
3, 104496, Note_on_c, 1, 70, 0
3, 104520, Note_on_c, 1, 69, 70
3, 104616, Note_on_c, 1, 69, 0
3, 104640, Note_on_c, 1, 70, 69
3, 104736, Note_on_c, 1, 70, 0
3, 104760, Note_on_c, 1, 72, 70
3, 104952, Note_on_c, 1, 72, 0
3, 105000, Note_on_c, 1, 63, 71
3, 105216, Note_on_c, 1, 63, 0
3, 105240, Note_on_c, 1, 62, 71
3, 105336, Note_on_c, 1, 62, 0
3, 105360, Note_on_c, 1, 65, 73
3, 105456, Note_on_c, 1, 65, 0
3, 105480, Note_on_c, 1, 70, 74
3, 105672, Note_on_c, 1, 70, 0
3, 105720, Note_on_c, 1, 62, 78
3, 105936, Note_on_c, 1, 62, 0
3, 105960, Note_on_c, 1, 60, 82
3, 106056, Note_on_c, 1, 60, 0
3, 106080, Note_on_c, 1, 64, 83
3, 106176, Note_on_c, 1, 64, 0
3, 106200, Note_on_c, 1, 69, 82
3, 106392, Note_on_c, 1, 69, 0
3, 106440, Note_on_c, 1, 60, 79
3, 106656, Note_on_c, 1, 60, 0
3, 106680, Note_on_c, 1, 58, 77
3, 106776, Note_on_c, 1, 58, 0
3, 106800, Note_on_c, 1, 62, 76
3, 106896, Note_on_c, 1, 62, 0
3, 106920, Note_on_c, 1, 67, 76
3, 107112, Note_on_c, 1, 67, 0
3, 107160, Note_on_c, 1, 58, 80
3, 107376, Note_on_c, 1, 58, 0
3, 107400, Note_on_c, 1, 57, 84
3, 107496, Note_on_c, 1, 57, 0
3, 107520, Note_on_c, 1, 65, 86
3, 107736, Note_on_c, 1, 65, 0
3, 107760, Note_on_c, 1, 67, 90
3, 107856, Note_on_c, 1, 67, 0
3, 107880, Note_on_c, 1, 64, 94
3, 107976, Note_on_c, 1, 64, 0
3, 108000, Note_on_c, 1, 65, 98
3, 108048, Note_on_c, 1, 65, 0
3, 108060, Note_on_c, 1, 60, 97
3, 108108, Note_on_c, 1, 60, 0
3, 108120, Note_on_c, 1, 62, 96
3, 108168, Note_on_c, 1, 62, 0
3, 108180, Note_on_c, 1, 58, 95
3, 108228, Note_on_c, 1, 58, 0
3, 108240, Note_on_c, 1, 60, 94
3, 108336, Note_on_c, 1, 60, 0
3, 108360, Note_on_c, 1, 70, 88
3, 108456, Note_on_c, 1, 70, 0
3, 108480, Note_on_c, 1, 69, 86
3, 108576, Note_on_c, 1, 69, 0
3, 108600, Note_on_c, 1, 67, 84
3, 108696, Note_on_c, 1, 67, 0
3, 108720, Note_on_c, 1, 65, 83
3, 108912, Note_on_c, 1, 65, 0
3, 109080, Note_on_c, 1, 62, 77
3, 109176, Note_on_c, 1, 62, 0
3, 109200, Note_on_c, 1, 60, 75
3, 109296, Note_on_c, 1, 60, 0
3, 109320, Note_on_c, 1, 58, 74
3, 109416, Note_on_c, 1, 58, 0
3, 109440, Note_on_c, 1, 57, 72
3, 109632, Note_on_c, 1, 57, 0
3, 109800, Note_on_c, 1, 70, 60
3, 110220, Note_on_c, 1, 70, 0
3, 110220, Note_on_c, 1, 69, 72
3, 110268, Note_on_c, 1, 69, 0
3, 110280, Note_on_c, 1, 76, 73
3, 110376, Note_on_c, 1, 76, 0
3, 110400, Note_on_c, 1, 77, 74
3, 110496, Note_on_c, 1, 77, 0
3, 110520, Note_on_c, 1, 69, 75
3, 110928, Note_on_c, 1, 69, 0
3, 110940, Note_on_c, 1, 65, 75
3, 110988, Note_on_c, 1, 65, 0
3, 111000, Note_on_c, 1, 76, 76
3, 111096, Note_on_c, 1, 76, 0
3, 111120, Note_on_c, 1, 77, 76
3, 111216, Note_on_c, 1, 77, 0
3, 111240, Note_on_c, 1, 67, 77
3, 111660, Note_on_c, 1, 67, 0
3, 111660, Note_on_c, 1, 65, 79
3, 111708, Note_on_c, 1, 65, 0
3, 111720, Note_on_c, 1, 76, 79
3, 111816, Note_on_c, 1, 76, 0
3, 111840, Note_on_c, 1, 77, 80
3, 111936, Note_on_c, 1, 77, 0
3, 111960, Note_on_c, 1, 65, 78
3, 112416, Note_on_c, 1, 65, 0
3, 112440, Note_on_c, 1, 64, 71
3, 112536, Note_on_c, 1, 64, 0
3, 112680, Note_on_c, 1, 79, 70
3, 112872, Note_on_c, 1, 79, 0
3, 112920, Note_on_c, 1, 70, 73
3, 113136, Note_on_c, 1, 70, 0
3, 113160, Note_on_c, 1, 69, 75
3, 113256, Note_on_c, 1, 69, 0
3, 113280, Note_on_c, 1, 72, 74
3, 113376, Note_on_c, 1, 72, 0
3, 113400, Note_on_c, 1, 77, 73
3, 113592, Note_on_c, 1, 77, 0
3, 113640, Note_on_c, 1, 69, 71
3, 113856, Note_on_c, 1, 69, 0
3, 113880, Note_on_c, 1, 67, 69
3, 113976, Note_on_c, 1, 67, 0
3, 114000, Note_on_c, 1, 71, 71
3, 114096, Note_on_c, 1, 71, 0
3, 114120, Note_on_c, 1, 76, 73
3, 114312, Note_on_c, 1, 76, 0
3, 114360, Note_on_c, 1, 67, 74
3, 114576, Note_on_c, 1, 67, 0
3, 114600, Note_on_c, 1, 65, 71
3, 114696, Note_on_c, 1, 65, 0
3, 114720, Note_on_c, 1, 69, 69
3, 114816, Note_on_c, 1, 69, 0
3, 114840, Note_on_c, 1, 74, 68
3, 115032, Note_on_c, 1, 74, 0
3, 115080, Note_on_c, 1, 65, 66
3, 115296, Note_on_c, 1, 65, 0
3, 115320, Note_on_c, 1, 64, 66
3, 115416, Note_on_c, 1, 64, 0
3, 115560, Note_on_c, 1, 69, 69
3, 115656, Note_on_c, 1, 69, 0
3, 115680, Note_on_c, 1, 67, 71
3, 115776, Note_on_c, 1, 67, 0
3, 115800, Note_on_c, 1, 65, 72
3, 115896, Note_on_c, 1, 65, 0
3, 115920, Note_on_c, 1, 64, 74
3, 115968, Note_on_c, 1, 64, 0
3, 115980, Note_on_c, 1, 67, 75
3, 116028, Note_on_c, 1, 67, 0
3, 116040, Note_on_c, 1, 69, 75
3, 116088, Note_on_c, 1, 69, 0
3, 116100, Note_on_c, 1, 65, 76
3, 116148, Note_on_c, 1, 65, 0
3, 116160, Note_on_c, 1, 67, 75
3, 116256, Note_on_c, 1, 67, 0
3, 116280, Note_on_c, 1, 77, 73
3, 116376, Note_on_c, 1, 77, 0
3, 116400, Note_on_c, 1, 76, 71
3, 116496, Note_on_c, 1, 76, 0
3, 116520, Note_on_c, 1, 74, 69
3, 116616, Note_on_c, 1, 74, 0
3, 116640, Note_on_c, 1, 72, 67
3, 116736, Note_on_c, 1, 72, 0
3, 116760, Note_on_c, 1, 81, 63
3, 117120, Note_on_c, 1, 81, 0
3, 117120, Note_on_c, 1, 83, 68
3, 117216, Note_on_c, 1, 83, 0
3, 117240, Note_on_c, 1, 84, 69
3, 117336, Note_on_c, 1, 84, 0
3, 117360, Note_on_c, 1, 79, 70
3, 117816, Note_on_c, 1, 79, 0
3, 117840, Note_on_c, 1, 83, 72
3, 117936, Note_on_c, 1, 83, 0
3, 117960, Note_on_c, 1, 84, 73
3, 118056, Note_on_c, 1, 84, 0
3, 118080, Note_on_c, 1, 77, 73
3, 118536, Note_on_c, 1, 77, 0
3, 118560, Note_on_c, 1, 83, 75
3, 118704, Note_on_c, 1, 83, 0
3, 118740, Note_on_c, 1, 84, 76
3, 118764, Note_on_c, 1, 84, 0
3, 118770, Note_on_c, 1, 86, 76
3, 118794, Note_on_c, 1, 86, 0
3, 118800, Note_on_c, 1, 76, 76
3, 119220, Note_on_c, 1, 76, 0
3, 119220, Note_on_c, 1, 78, 78
3, 119268, Note_on_c, 1, 78, 0
3, 119280, Note_on_c, 1, 78, 78
3, 119472, Note_on_c, 1, 78, 0
3, 119520, Note_on_c, 1, 79, 75
3, 119712, Note_on_c, 1, 79, 0
3, 119760, Note_on_c, 1, 67, 74
3, 119856, Note_on_c, 1, 67, 0
3, 119880, Note_on_c, 1, 55, 73
3, 120072, Note_on_c, 1, 55, 0
3, 120120, Note_on_c, 1, 79, 71
3, 120216, Note_on_c, 1, 79, 0
3, 120240, Note_on_c, 1, 77, 71
3, 120432, Note_on_c, 1, 77, 0
3, 120480, Note_on_c, 1, 67, 69
3, 120576, Note_on_c, 1, 67, 0
3, 120600, Note_on_c, 1, 55, 69
3, 120792, Note_on_c, 1, 55, 0
3, 120840, Note_on_c, 1, 76, 67
3, 120936, Note_on_c, 1, 76, 0
3, 120960, Note_on_c, 1, 74, 66
3, 121008, Note_on_c, 1, 74, 0
3, 121020, Note_on_c, 1, 66, 67
3, 121068, Note_on_c, 1, 66, 0
3, 121080, Note_on_c, 1, 67, 68
3, 121128, Note_on_c, 1, 67, 0
3, 121140, Note_on_c, 1, 69, 69
3, 121188, Note_on_c, 1, 69, 0
3, 121200, Note_on_c, 1, 71, 70
3, 121248, Note_on_c, 1, 71, 0
3, 121260, Note_on_c, 1, 72, 71
3, 121308, Note_on_c, 1, 72, 0
3, 121320, Note_on_c, 1, 74, 72
3, 121368, Note_on_c, 1, 74, 0
3, 121380, Note_on_c, 1, 77, 73
3, 121428, Note_on_c, 1, 77, 0
3, 121440, Note_on_c, 1, 76, 74
3, 121488, Note_on_c, 1, 76, 0
3, 121500, Note_on_c, 1, 74, 75
3, 121548, Note_on_c, 1, 74, 0
3, 121560, Note_on_c, 1, 72, 75
3, 121608, Note_on_c, 1, 72, 0
3, 121620, Note_on_c, 1, 71, 74
3, 121668, Note_on_c, 1, 71, 0
3, 121680, Note_on_c, 1, 72, 73
3, 121968, Note_on_c, 1, 72, 0
3, 122160, Note_on_c, 1, 72, 69
3, 122448, Note_on_c, 1, 72, 0
3, 122460, Note_on_c, 1, 69, 66
3, 122508, Note_on_c, 1, 69, 0
3, 122520, Note_on_c, 1, 71, 67
3, 122568, Note_on_c, 1, 71, 0
3, 122580, Note_on_c, 1, 72, 68
3, 122628, Note_on_c, 1, 72, 0
3, 122640, Note_on_c, 1, 74, 69
3, 122688, Note_on_c, 1, 74, 0
3, 122700, Note_on_c, 1, 76, 70
3, 122748, Note_on_c, 1, 76, 0
3, 122760, Note_on_c, 1, 77, 71
3, 122808, Note_on_c, 1, 77, 0
3, 122820, Note_on_c, 1, 81, 72
3, 122868, Note_on_c, 1, 81, 0
3, 122880, Note_on_c, 1, 79, 73
3, 122928, Note_on_c, 1, 79, 0
3, 122940, Note_on_c, 1, 77, 74
3, 122988, Note_on_c, 1, 77, 0
3, 123000, Note_on_c, 1, 76, 75
3, 123048, Note_on_c, 1, 76, 0
3, 123060, Note_on_c, 1, 74, 76
3, 123108, Note_on_c, 1, 74, 0
3, 123120, Note_on_c, 1, 76, 75
3, 123168, Note_on_c, 1, 76, 0
3, 123180, Note_on_c, 1, 74, 75
3, 123228, Note_on_c, 1, 74, 0
3, 123240, Note_on_c, 1, 76, 74
3, 123288, Note_on_c, 1, 76, 0
3, 123300, Note_on_c, 1, 72, 73
3, 123348, Note_on_c, 1, 72, 0
3, 123360, Note_on_c, 1, 67, 72
3, 123408, Note_on_c, 1, 67, 0
3, 123420, Note_on_c, 1, 72, 72
3, 123468, Note_on_c, 1, 72, 0
3, 123480, Note_on_c, 1, 77, 71
3, 123528, Note_on_c, 1, 77, 0
3, 123540, Note_on_c, 1, 76, 70
3, 123588, Note_on_c, 1, 76, 0
3, 123600, Note_on_c, 1, 77, 70
3, 123648, Note_on_c, 1, 77, 0
3, 123660, Note_on_c, 1, 72, 70
3, 123708, Note_on_c, 1, 72, 0
3, 123720, Note_on_c, 1, 69, 70
3, 123768, Note_on_c, 1, 69, 0
3, 123780, Note_on_c, 1, 72, 71
3, 123828, Note_on_c, 1, 72, 0
3, 123840, Note_on_c, 1, 79, 71
3, 123888, Note_on_c, 1, 79, 0
3, 123900, Note_on_c, 1, 77, 71
3, 123948, Note_on_c, 1, 77, 0
3, 123960, Note_on_c, 1, 79, 71
3, 124008, Note_on_c, 1, 79, 0
3, 124020, Note_on_c, 1, 76, 72
3, 124068, Note_on_c, 1, 76, 0
3, 124080, Note_on_c, 1, 72, 72
3, 124128, Note_on_c, 1, 72, 0
3, 124140, Note_on_c, 1, 76, 72
3, 124188, Note_on_c, 1, 76, 0
3, 124200, Note_on_c, 1, 81, 72
3, 124248, Note_on_c, 1, 81, 0
3, 124260, Note_on_c, 1, 79, 73
3, 124308, Note_on_c, 1, 79, 0
3, 124320, Note_on_c, 1, 81, 73
3, 124368, Note_on_c, 1, 81, 0
3, 124380, Note_on_c, 1, 77, 73
3, 124428, Note_on_c, 1, 77, 0
3, 124440, Note_on_c, 1, 72, 73
3, 124488, Note_on_c, 1, 72, 0
3, 124500, Note_on_c, 1, 77, 73
3, 124548, Note_on_c, 1, 77, 0
3, 124560, Note_on_c, 1, 76, 74
3, 124752, Note_on_c, 1, 76, 0
3, 125040, Note_on_c, 1, 76, 71
3, 125328, Note_on_c, 1, 76, 0
3, 125340, Note_on_c, 1, 73, 73
3, 125388, Note_on_c, 1, 73, 0
3, 125400, Note_on_c, 1, 74, 73
3, 125448, Note_on_c, 1, 74, 0
3, 125460, Note_on_c, 1, 76, 74
3, 125508, Note_on_c, 1, 76, 0
3, 125520, Note_on_c, 1, 77, 74
3, 125568, Note_on_c, 1, 77, 0
3, 125580, Note_on_c, 1, 79, 75
3, 125628, Note_on_c, 1, 79, 0
3, 125640, Note_on_c, 1, 81, 75
3, 125688, Note_on_c, 1, 81, 0
3, 125700, Note_on_c, 1, 84, 76
3, 125748, Note_on_c, 1, 84, 0
3, 125760, Note_on_c, 1, 82, 75
3, 125808, Note_on_c, 1, 82, 0
3, 125820, Note_on_c, 1, 81, 75
3, 125868, Note_on_c, 1, 81, 0
3, 125880, Note_on_c, 1, 79, 74
3, 125928, Note_on_c, 1, 79, 0
3, 125940, Note_on_c, 1, 77, 73
3, 125988, Note_on_c, 1, 77, 0
3, 126000, Note_on_c, 1, 79, 72
3, 126288, Note_on_c, 1, 79, 0
3, 126600, Note_on_c, 1, 76, 60
3, 126696, Note_on_c, 1, 76, 0
3, 126720, Note_on_c, 1, 77, 57
3, 126912, Note_on_c, 1, 77, 0
3, 126960, Note_on_c, 1, 69, 59
3, 127056, Note_on_c, 1, 69, 0
3, 127080, Note_on_c, 1, 60, 60
3, 127272, Note_on_c, 1, 60, 0
3, 127320, Note_on_c, 1, 81, 61
3, 127416, Note_on_c, 1, 81, 0
3, 127440, Note_on_c, 1, 78, 62
3, 127632, Note_on_c, 1, 78, 0
3, 127680, Note_on_c, 1, 69, 64
3, 127776, Note_on_c, 1, 69, 0
3, 127800, Note_on_c, 1, 62, 65
3, 127992, Note_on_c, 1, 62, 0
3, 128040, Note_on_c, 1, 81, 67
3, 128136, Note_on_c, 1, 81, 0
3, 128160, Note_on_c, 1, 82, 68
3, 128208, Note_on_c, 1, 82, 0
3, 128220, Note_on_c, 1, 81, 69
3, 128268, Note_on_c, 1, 81, 0
3, 128280, Note_on_c, 1, 82, 69
3, 128328, Note_on_c, 1, 82, 0
3, 128340, Note_on_c, 1, 79, 70
3, 128388, Note_on_c, 1, 79, 0
3, 128400, Note_on_c, 1, 74, 71
3, 128448, Note_on_c, 1, 74, 0
3, 128460, Note_on_c, 1, 79, 72
3, 128508, Note_on_c, 1, 79, 0
3, 128520, Note_on_c, 1, 82, 73
3, 128568, Note_on_c, 1, 82, 0
3, 128580, Note_on_c, 1, 81, 73
3, 128628, Note_on_c, 1, 81, 0
3, 128640, Note_on_c, 1, 82, 74
3, 128688, Note_on_c, 1, 82, 0
3, 128700, Note_on_c, 1, 79, 75
3, 128748, Note_on_c, 1, 79, 0
3, 128760, Note_on_c, 1, 74, 76
3, 128808, Note_on_c, 1, 74, 0
3, 128820, Note_on_c, 1, 79, 77
3, 128868, Note_on_c, 1, 79, 0
3, 128880, Note_on_c, 1, 83, 78
3, 128928, Note_on_c, 1, 83, 0
3, 128940, Note_on_c, 1, 81, 78
3, 128988, Note_on_c, 1, 81, 0
3, 129000, Note_on_c, 1, 83, 79
3, 129048, Note_on_c, 1, 83, 0
3, 129060, Note_on_c, 1, 80, 80
3, 129108, Note_on_c, 1, 80, 0
3, 129120, Note_on_c, 1, 74, 81
3, 129168, Note_on_c, 1, 74, 0
3, 129180, Note_on_c, 1, 80, 82
3, 129228, Note_on_c, 1, 80, 0
3, 129240, Note_on_c, 1, 83, 82
3, 129288, Note_on_c, 1, 83, 0
3, 129300, Note_on_c, 1, 81, 83
3, 129348, Note_on_c, 1, 81, 0
3, 129360, Note_on_c, 1, 83, 84
3, 129408, Note_on_c, 1, 83, 0
3, 129420, Note_on_c, 1, 80, 85
3, 129468, Note_on_c, 1, 80, 0
3, 129480, Note_on_c, 1, 74, 86
3, 129528, Note_on_c, 1, 74, 0
3, 129540, Note_on_c, 1, 80, 86
3, 129588, Note_on_c, 1, 80, 0
3, 129600, Note_on_c, 1, 81, 87
3, 130056, Note_on_c, 1, 81, 0
3, 130080, Note_on_c, 1, 79, 90
3, 130176, Note_on_c, 1, 79, 0
3, 130200, Note_on_c, 1, 77, 89
3, 130296, Note_on_c, 1, 77, 0
3, 130320, Note_on_c, 1, 76, 85
3, 130776, Note_on_c, 1, 76, 0
3, 130800, Note_on_c, 1, 74, 89
3, 130896, Note_on_c, 1, 74, 0
3, 130920, Note_on_c, 1, 72, 91
3, 131016, Note_on_c, 1, 72, 0
3, 131040, Note_on_c, 1, 71, 93
3, 131136, Note_on_c, 1, 71, 0
3, 131160, Note_on_c, 1, 68, 90
3, 131256, Note_on_c, 1, 68, 0
3, 131280, Note_on_c, 1, 69, 87
3, 131376, Note_on_c, 1, 69, 0
3, 131400, Note_on_c, 1, 74, 84
3, 131856, Note_on_c, 1, 74, 0
3, 131880, Note_on_c, 1, 73, 77
3, 131976, Note_on_c, 1, 73, 0
3, 132000, Note_on_c, 1, 74, 76
3, 132096, Note_on_c, 1, 74, 0
3, 132120, Note_on_c, 1, 79, 75
3, 132216, Note_on_c, 1, 79, 0
3, 132240, Note_on_c, 1, 81, 74
3, 132288, Note_on_c, 1, 81, 0
3, 132300, Note_on_c, 1, 79, 74
3, 132348, Note_on_c, 1, 79, 0
3, 132360, Note_on_c, 1, 77, 74
3, 132408, Note_on_c, 1, 77, 0
3, 132420, Note_on_c, 1, 76, 73
3, 132468, Note_on_c, 1, 76, 0
3, 132480, Note_on_c, 1, 77, 73
3, 132528, Note_on_c, 1, 77, 0
3, 132540, Note_on_c, 1, 76, 72
3, 132588, Note_on_c, 1, 76, 0
3, 132600, Note_on_c, 1, 77, 72
3, 132648, Note_on_c, 1, 77, 0
3, 132660, Note_on_c, 1, 74, 72
3, 132708, Note_on_c, 1, 74, 0
3, 132720, Note_on_c, 1, 69, 73
3, 132768, Note_on_c, 1, 69, 0
3, 132780, Note_on_c, 1, 74, 73
3, 132828, Note_on_c, 1, 74, 0
3, 132840, Note_on_c, 1, 79, 73
3, 132888, Note_on_c, 1, 79, 0
3, 132900, Note_on_c, 1, 77, 73
3, 132948, Note_on_c, 1, 77, 0
3, 132960, Note_on_c, 1, 79, 74
3, 133008, Note_on_c, 1, 79, 0
3, 133020, Note_on_c, 1, 76, 74
3, 133068, Note_on_c, 1, 76, 0
3, 133080, Note_on_c, 1, 72, 74
3, 133128, Note_on_c, 1, 72, 0
3, 133140, Note_on_c, 1, 76, 75
3, 133188, Note_on_c, 1, 76, 0
3, 133200, Note_on_c, 1, 81, 75
3, 133248, Note_on_c, 1, 81, 0
3, 133260, Note_on_c, 1, 79, 75
3, 133308, Note_on_c, 1, 79, 0
3, 133320, Note_on_c, 1, 81, 75
3, 133368, Note_on_c, 1, 81, 0
3, 133380, Note_on_c, 1, 77, 74
3, 133428, Note_on_c, 1, 77, 0
3, 133440, Note_on_c, 1, 74, 74
3, 133488, Note_on_c, 1, 74, 0
3, 133500, Note_on_c, 1, 77, 74
3, 133548, Note_on_c, 1, 77, 0
3, 133560, Note_on_c, 1, 82, 73
3, 133608, Note_on_c, 1, 82, 0
3, 133620, Note_on_c, 1, 81, 73
3, 133668, Note_on_c, 1, 81, 0
3, 133680, Note_on_c, 1, 82, 73
3, 133728, Note_on_c, 1, 82, 0
3, 133740, Note_on_c, 1, 79, 72
3, 133788, Note_on_c, 1, 79, 0
3, 133800, Note_on_c, 1, 81, 72
3, 133848, Note_on_c, 1, 81, 0
3, 133860, Note_on_c, 1, 82, 72
3, 133908, Note_on_c, 1, 82, 0
3, 133920, Note_on_c, 1, 73, 72
3, 134016, Note_on_c, 1, 73, 0
3, 134040, Note_on_c, 1, 81, 71
3, 134136, Note_on_c, 1, 81, 0
3, 134160, Note_on_c, 1, 74, 70
3, 134376, Note_on_c, 1, 74, 0
3, 134400, Note_on_c, 1, 71, 69
3, 134496, Note_on_c, 1, 71, 0
3, 134520, Note_on_c, 1, 73, 69
3, 134616, Note_on_c, 1, 73, 0
3, 134640, Note_on_c, 1, 74, 68
3, 134688, Note_on_c, 1, 74, 0
3, 134700, Note_on_c, 1, 69, 68
3, 134748, Note_on_c, 1, 69, 0
3, 134760, Note_on_c, 1, 70, 68
3, 134808, Note_on_c, 1, 70, 0
3, 134820, Note_on_c, 1, 67, 68
3, 134868, Note_on_c, 1, 67, 0
3, 134880, Note_on_c, 1, 69, 68
3, 134976, Note_on_c, 1, 69, 0
3, 135000, Note_on_c, 1, 79, 67
3, 135096, Note_on_c, 1, 79, 0
3, 135120, Note_on_c, 1, 77, 67
3, 135216, Note_on_c, 1, 77, 0
3, 135240, Note_on_c, 1, 76, 67
3, 135336, Note_on_c, 1, 76, 0
3, 135360, Note_on_c, 1, 74, 66
3, 135552, Note_on_c, 1, 74, 0
3, 135720, Note_on_c, 1, 70, 66
3, 135816, Note_on_c, 1, 70, 0
3, 135840, Note_on_c, 1, 69, 65
3, 135936, Note_on_c, 1, 69, 0
3, 135960, Note_on_c, 1, 67, 65
3, 136056, Note_on_c, 1, 67, 0
3, 136080, Note_on_c, 1, 65, 65
3, 136128, Note_on_c, 1, 65, 0
3, 136140, Note_on_c, 1, 64, 64
3, 136188, Note_on_c, 1, 64, 0
3, 136200, Note_on_c, 1, 65, 64
3, 136248, Note_on_c, 1, 65, 0
3, 136260, Note_on_c, 1, 67, 65
3, 136308, Note_on_c, 1, 67, 0
3, 136320, Note_on_c, 1, 69, 66
3, 136368, Note_on_c, 1, 69, 0
3, 136380, Note_on_c, 1, 70, 66
3, 136428, Note_on_c, 1, 70, 0
3, 136440, Note_on_c, 1, 72, 67
3, 136488, Note_on_c, 1, 72, 0
3, 136500, Note_on_c, 1, 75, 68
3, 136548, Note_on_c, 1, 75, 0
3, 136560, Note_on_c, 1, 74, 68
3, 136608, Note_on_c, 1, 74, 0
3, 136620, Note_on_c, 1, 72, 67
3, 136668, Note_on_c, 1, 72, 0
3, 136680, Note_on_c, 1, 70, 66
3, 136728, Note_on_c, 1, 70, 0
3, 136740, Note_on_c, 1, 69, 65
3, 136788, Note_on_c, 1, 69, 0
3, 136800, Note_on_c, 1, 70, 65
3, 136992, Note_on_c, 1, 70, 0
3, 137280, Note_on_c, 1, 70, 60
3, 137568, Note_on_c, 1, 70, 0
3, 137580, Note_on_c, 1, 67, 64
3, 137628, Note_on_c, 1, 67, 0
3, 137640, Note_on_c, 1, 69, 65
3, 137688, Note_on_c, 1, 69, 0
3, 137700, Note_on_c, 1, 70, 66
3, 137748, Note_on_c, 1, 70, 0
3, 137760, Note_on_c, 1, 72, 67
3, 137808, Note_on_c, 1, 72, 0
3, 137820, Note_on_c, 1, 74, 67
3, 137868, Note_on_c, 1, 74, 0
3, 137880, Note_on_c, 1, 75, 68
3, 137928, Note_on_c, 1, 75, 0
3, 137940, Note_on_c, 1, 79, 69
3, 137988, Note_on_c, 1, 79, 0
3, 138000, Note_on_c, 1, 77, 68
3, 138048, Note_on_c, 1, 77, 0
3, 138060, Note_on_c, 1, 75, 68
3, 138108, Note_on_c, 1, 75, 0
3, 138120, Note_on_c, 1, 74, 67
3, 138168, Note_on_c, 1, 74, 0
3, 138180, Note_on_c, 1, 72, 66
3, 138228, Note_on_c, 1, 72, 0
3, 138240, Note_on_c, 1, 74, 65
3, 138336, Note_on_c, 1, 74, 0
3, 138360, Note_on_c, 1, 79, 60
3, 138720, Note_on_c, 1, 79, 0
3, 138720, Note_on_c, 1, 81, 65
3, 138816, Note_on_c, 1, 81, 0
3, 138840, Note_on_c, 1, 82, 68
3, 138936, Note_on_c, 1, 82, 0
3, 138960, Note_on_c, 1, 77, 69
3, 139416, Note_on_c, 1, 77, 0
3, 139440, Note_on_c, 1, 81, 66
3, 139536, Note_on_c, 1, 81, 0
3, 139560, Note_on_c, 1, 82, 66
3, 139656, Note_on_c, 1, 82, 0
3, 139680, Note_on_c, 1, 75, 66
3, 140136, Note_on_c, 1, 75, 0
3, 140160, Note_on_c, 1, 81, 61
3, 140304, Note_on_c, 1, 81, 0
3, 140340, Note_on_c, 1, 82, 60
3, 140364, Note_on_c, 1, 82, 0
3, 140370, Note_on_c, 1, 84, 60
3, 140394, Note_on_c, 1, 84, 0
3, 140400, Note_on_c, 1, 74, 60
3, 140448, Note_on_c, 1, 74, 0
3, 140460, Note_on_c, 1, 72, 61
3, 140508, Note_on_c, 1, 72, 0
3, 140520, Note_on_c, 1, 74, 62
3, 140568, Note_on_c, 1, 74, 0
3, 140580, Note_on_c, 1, 70, 63
3, 140628, Note_on_c, 1, 70, 0
3, 140640, Note_on_c, 1, 65, 66
3, 140688, Note_on_c, 1, 65, 0
3, 140700, Note_on_c, 1, 70, 67
3, 140748, Note_on_c, 1, 70, 0
3, 140760, Note_on_c, 1, 74, 68
3, 140808, Note_on_c, 1, 74, 0
3, 140820, Note_on_c, 1, 72, 68
3, 140868, Note_on_c, 1, 72, 0
3, 140880, Note_on_c, 1, 74, 69
3, 140928, Note_on_c, 1, 74, 0
3, 140940, Note_on_c, 1, 70, 69
3, 140988, Note_on_c, 1, 70, 0
3, 141000, Note_on_c, 1, 65, 70
3, 141048, Note_on_c, 1, 65, 0
3, 141060, Note_on_c, 1, 70, 71
3, 141108, Note_on_c, 1, 70, 0
3, 141120, Note_on_c, 1, 74, 71
3, 141168, Note_on_c, 1, 74, 0
3, 141180, Note_on_c, 1, 72, 72
3, 141228, Note_on_c, 1, 72, 0
3, 141240, Note_on_c, 1, 74, 72
3, 141288, Note_on_c, 1, 74, 0
3, 141300, Note_on_c, 1, 71, 71
3, 141348, Note_on_c, 1, 71, 0
3, 141360, Note_on_c, 1, 65, 71
3, 141408, Note_on_c, 1, 65, 0
3, 141420, Note_on_c, 1, 71, 71
3, 141468, Note_on_c, 1, 71, 0
3, 141480, Note_on_c, 1, 74, 70
3, 141528, Note_on_c, 1, 74, 0
3, 141540, Note_on_c, 1, 72, 70
3, 141588, Note_on_c, 1, 72, 0
3, 141600, Note_on_c, 1, 74, 69
3, 141648, Note_on_c, 1, 74, 0
3, 141660, Note_on_c, 1, 71, 69
3, 141708, Note_on_c, 1, 71, 0
3, 141720, Note_on_c, 1, 65, 68
3, 141768, Note_on_c, 1, 65, 0
3, 141780, Note_on_c, 1, 71, 68
3, 141828, Note_on_c, 1, 71, 0
3, 141840, Note_on_c, 1, 72, 68
3, 142032, Note_on_c, 1, 72, 0
3, 142080, Note_on_c, 1, 63, 68
3, 142176, Note_on_c, 1, 63, 0
3, 142200, Note_on_c, 1, 55, 68
3, 142392, Note_on_c, 1, 55, 0
3, 142440, Note_on_c, 1, 75, 66
3, 142536, Note_on_c, 1, 75, 0
3, 142560, Note_on_c, 1, 74, 66
3, 142572, Note_on_c, 1, 74, 0
3, 142574, Note_on_c, 1, 73, 66
3, 142796, Note_on_c, 1, 73, 0
3, 142800, Note_on_c, 1, 64, 71
3, 142896, Note_on_c, 1, 64, 0
3, 142920, Note_on_c, 1, 57, 71
3, 143112, Note_on_c, 1, 57, 0
3, 143160, Note_on_c, 1, 76, 71
3, 143256, Note_on_c, 1, 76, 0
3, 143280, Note_on_c, 1, 77, 71
3, 143328, Note_on_c, 1, 77, 0
3, 143340, Note_on_c, 1, 76, 70
3, 143388, Note_on_c, 1, 76, 0
3, 143400, Note_on_c, 1, 74, 69
3, 143448, Note_on_c, 1, 74, 0
3, 143460, Note_on_c, 1, 73, 68
3, 143508, Note_on_c, 1, 73, 0
3, 143520, Note_on_c, 1, 74, 68
3, 143616, Note_on_c, 1, 74, 0
3, 144000, Note_on_c, 1, 77, 70
3, 144456, Note_on_c, 1, 77, 0
3, 144480, Note_on_c, 1, 76, 69
3, 144576, Note_on_c, 1, 76, 0
3, 144600, Note_on_c, 1, 74, 70
3, 144696, Note_on_c, 1, 74, 0
3, 144720, Note_on_c, 1, 72, 70
3, 145176, Note_on_c, 1, 72, 0
3, 145200, Note_on_c, 1, 70, 72
3, 145296, Note_on_c, 1, 70, 0
3, 145320, Note_on_c, 1, 69, 73
3, 145416, Note_on_c, 1, 69, 0
3, 145440, Note_on_c, 1, 67, 73
3, 145536, Note_on_c, 1, 67, 0
3, 145560, Note_on_c, 1, 64, 74
3, 145656, Note_on_c, 1, 64, 0
3, 145680, Note_on_c, 1, 65, 74
3, 145776, Note_on_c, 1, 65, 0
3, 145800, Note_on_c, 1, 70, 75
3, 146256, Note_on_c, 1, 70, 0
3, 146280, Note_on_c, 1, 69, 77
3, 146376, Note_on_c, 1, 69, 0
3, 146400, Note_on_c, 1, 72, 77
3, 146496, Note_on_c, 1, 72, 0
3, 146520, Note_on_c, 1, 77, 73
3, 146616, Note_on_c, 1, 77, 0
3, 146640, Note_on_c, 1, 79, 73
3, 146688, Note_on_c, 1, 79, 0
3, 146700, Note_on_c, 1, 77, 73
3, 146748, Note_on_c, 1, 77, 0
3, 146760, Note_on_c, 1, 76, 72
3, 146808, Note_on_c, 1, 76, 0
3, 146820, Note_on_c, 1, 74, 72
3, 146868, Note_on_c, 1, 74, 0
3, 146880, Note_on_c, 1, 76, 72
3, 146928, Note_on_c, 1, 76, 0
3, 146940, Note_on_c, 1, 74, 71
3, 146988, Note_on_c, 1, 74, 0
3, 147000, Note_on_c, 1, 76, 71
3, 147048, Note_on_c, 1, 76, 0
3, 147060, Note_on_c, 1, 72, 71
3, 147108, Note_on_c, 1, 72, 0
3, 147120, Note_on_c, 1, 67, 70
3, 147168, Note_on_c, 1, 67, 0
3, 147180, Note_on_c, 1, 72, 70
3, 147228, Note_on_c, 1, 72, 0
3, 147240, Note_on_c, 1, 77, 70
3, 147288, Note_on_c, 1, 77, 0
3, 147300, Note_on_c, 1, 76, 70
3, 147348, Note_on_c, 1, 76, 0
3, 147360, Note_on_c, 1, 77, 69
3, 147408, Note_on_c, 1, 77, 0
3, 147420, Note_on_c, 1, 74, 69
3, 147468, Note_on_c, 1, 74, 0
3, 147480, Note_on_c, 1, 71, 69
3, 147528, Note_on_c, 1, 71, 0
3, 147540, Note_on_c, 1, 74, 68
3, 147588, Note_on_c, 1, 74, 0
3, 147600, Note_on_c, 1, 79, 68
3, 147648, Note_on_c, 1, 79, 0
3, 147660, Note_on_c, 1, 77, 68
3, 147708, Note_on_c, 1, 77, 0
3, 147720, Note_on_c, 1, 79, 67
3, 147768, Note_on_c, 1, 79, 0
3, 147780, Note_on_c, 1, 76, 67
3, 147828, Note_on_c, 1, 76, 0
3, 147840, Note_on_c, 1, 72, 67
3, 147888, Note_on_c, 1, 72, 0
3, 147900, Note_on_c, 1, 76, 68
3, 147948, Note_on_c, 1, 76, 0
3, 147960, Note_on_c, 1, 81, 68
3, 148008, Note_on_c, 1, 81, 0
3, 148020, Note_on_c, 1, 79, 69
3, 148068, Note_on_c, 1, 79, 0
3, 148080, Note_on_c, 1, 81, 69
3, 148128, Note_on_c, 1, 81, 0
3, 148140, Note_on_c, 1, 77, 69
3, 148188, Note_on_c, 1, 77, 0
3, 148200, Note_on_c, 1, 79, 70
3, 148248, Note_on_c, 1, 79, 0
3, 148260, Note_on_c, 1, 81, 70
3, 148308, Note_on_c, 1, 81, 0
3, 148320, Note_on_c, 1, 71, 71
3, 148416, Note_on_c, 1, 71, 0
3, 148440, Note_on_c, 1, 79, 71
3, 148536, Note_on_c, 1, 79, 0
3, 148560, Note_on_c, 1, 72, 72
3, 148776, Note_on_c, 1, 72, 0
3, 148800, Note_on_c, 1, 69, 72
3, 148896, Note_on_c, 1, 69, 0
3, 148920, Note_on_c, 1, 71, 71
3, 149016, Note_on_c, 1, 71, 0
3, 149040, Note_on_c, 1, 72, 70
3, 149088, Note_on_c, 1, 72, 0
3, 149100, Note_on_c, 1, 71, 70
3, 149148, Note_on_c, 1, 71, 0
3, 149160, Note_on_c, 1, 72, 70
3, 149208, Note_on_c, 1, 72, 0
3, 149220, Note_on_c, 1, 67, 69
3, 149268, Note_on_c, 1, 67, 0
3, 149280, Note_on_c, 1, 64, 69
3, 149328, Note_on_c, 1, 64, 0
3, 149340, Note_on_c, 1, 67, 68
3, 149388, Note_on_c, 1, 67, 0
3, 149400, Note_on_c, 1, 65, 68
3, 149448, Note_on_c, 1, 65, 0
3, 149460, Note_on_c, 1, 67, 68
3, 149508, Note_on_c, 1, 67, 0
3, 149520, Note_on_c, 1, 69, 67
3, 149568, Note_on_c, 1, 69, 0
3, 149580, Note_on_c, 1, 70, 67
3, 149628, Note_on_c, 1, 70, 0
3, 149640, Note_on_c, 1, 72, 67
3, 149688, Note_on_c, 1, 72, 0
3, 149700, Note_on_c, 1, 69, 67
3, 149748, Note_on_c, 1, 69, 0
3, 149760, Note_on_c, 1, 65, 67
3, 149808, Note_on_c, 1, 65, 0
3, 149820, Note_on_c, 1, 63, 68
3, 149868, Note_on_c, 1, 63, 0
3, 149880, Note_on_c, 1, 65, 68
3, 149928, Note_on_c, 1, 65, 0
3, 149940, Note_on_c, 1, 70, 68
3, 149988, Note_on_c, 1, 70, 0
3, 150000, Note_on_c, 1, 62, 68
3, 150048, Note_on_c, 1, 62, 0
3, 150060, Note_on_c, 1, 65, 68
3, 150108, Note_on_c, 1, 65, 0
3, 150120, Note_on_c, 1, 64, 68
3, 150168, Note_on_c, 1, 64, 0
3, 150180, Note_on_c, 1, 65, 69
3, 150228, Note_on_c, 1, 65, 0
3, 150240, Note_on_c, 1, 67, 69
3, 150288, Note_on_c, 1, 67, 0
3, 150300, Note_on_c, 1, 69, 69
3, 150348, Note_on_c, 1, 69, 0
3, 150360, Note_on_c, 1, 70, 69
3, 150408, Note_on_c, 1, 70, 0
3, 150420, Note_on_c, 1, 67, 69
3, 150468, Note_on_c, 1, 67, 0
3, 150480, Note_on_c, 1, 64, 70
3, 150528, Note_on_c, 1, 64, 0
3, 150540, Note_on_c, 1, 62, 70
3, 150588, Note_on_c, 1, 62, 0
3, 150600, Note_on_c, 1, 64, 70
3, 150648, Note_on_c, 1, 64, 0
3, 150660, Note_on_c, 1, 69, 70
3, 150708, Note_on_c, 1, 69, 0
3, 150720, Note_on_c, 1, 60, 70
3, 150768, Note_on_c, 1, 60, 0
3, 150780, Note_on_c, 1, 64, 70
3, 150828, Note_on_c, 1, 64, 0
3, 150840, Note_on_c, 1, 62, 67
3, 150888, Note_on_c, 1, 62, 0
3, 150900, Note_on_c, 1, 64, 67
3, 150948, Note_on_c, 1, 64, 0
3, 150960, Note_on_c, 1, 65, 67
3, 151008, Note_on_c, 1, 65, 0
3, 151020, Note_on_c, 1, 67, 67
3, 151068, Note_on_c, 1, 67, 0
3, 151080, Note_on_c, 1, 69, 67
3, 151128, Note_on_c, 1, 69, 0
3, 151140, Note_on_c, 1, 65, 67
3, 151188, Note_on_c, 1, 65, 0
3, 151200, Note_on_c, 1, 62, 66
3, 151248, Note_on_c, 1, 62, 0
3, 151260, Note_on_c, 1, 60, 66
3, 151308, Note_on_c, 1, 60, 0
3, 151320, Note_on_c, 1, 62, 66
3, 151368, Note_on_c, 1, 62, 0
3, 151380, Note_on_c, 1, 67, 66
3, 151428, Note_on_c, 1, 67, 0
3, 151440, Note_on_c, 1, 58, 66
3, 151488, Note_on_c, 1, 58, 0
3, 151500, Note_on_c, 1, 62, 66
3, 151548, Note_on_c, 1, 62, 0
3, 151560, Note_on_c, 1, 60, 65
3, 151608, Note_on_c, 1, 60, 0
3, 151620, Note_on_c, 1, 62, 65
3, 151668, Note_on_c, 1, 62, 0
3, 151680, Note_on_c, 1, 64, 65
3, 151728, Note_on_c, 1, 64, 0
3, 151740, Note_on_c, 1, 65, 65
3, 151788, Note_on_c, 1, 65, 0
3, 151800, Note_on_c, 1, 67, 65
3, 151848, Note_on_c, 1, 67, 0
3, 151860, Note_on_c, 1, 64, 65
3, 151908, Note_on_c, 1, 64, 0
3, 151920, Note_on_c, 1, 65, 64
3, 151968, Note_on_c, 1, 65, 0
3, 151980, Note_on_c, 1, 60, 64
3, 152028, Note_on_c, 1, 60, 0
3, 152040, Note_on_c, 1, 62, 64
3, 152088, Note_on_c, 1, 62, 0
3, 152100, Note_on_c, 1, 58, 64
3, 152148, Note_on_c, 1, 58, 0
3, 152160, Note_on_c, 1, 60, 64
3, 152256, Note_on_c, 1, 60, 0
3, 152280, Note_on_c, 1, 70, 63
3, 152376, Note_on_c, 1, 70, 0
3, 152400, Note_on_c, 1, 69, 62
3, 152496, Note_on_c, 1, 69, 0
3, 152520, Note_on_c, 1, 67, 61
3, 152616, Note_on_c, 1, 67, 0
3, 152640, Note_on_c, 1, 65, 60
3, 152832, Note_on_c, 1, 65, 0
3, 153000, Note_on_c, 1, 62, 57
3, 153096, Note_on_c, 1, 62, 0
3, 153120, Note_on_c, 1, 60, 56
3, 153216, Note_on_c, 1, 60, 0
3, 153240, Note_on_c, 1, 58, 55
3, 153336, Note_on_c, 1, 58, 0
3, 153360, Note_on_c, 1, 57, 55
3, 153408, Note_on_c, 1, 57, 0
3, 153420, Note_on_c, 1, 60, 54
3, 153468, Note_on_c, 1, 60, 0
3, 153480, Note_on_c, 1, 65, 54
3, 153528, Note_on_c, 1, 65, 0
3, 153540, Note_on_c, 1, 67, 53
3, 153588, Note_on_c, 1, 67, 0
3, 153600, Note_on_c, 1, 69, 53
3, 153648, Note_on_c, 1, 69, 0
3, 153660, Note_on_c, 1, 70, 52
3, 153708, Note_on_c, 1, 70, 0
3, 153720, Note_on_c, 1, 72, 52
3, 153912, Note_on_c, 1, 72, 0
3, 153960, Note_on_c, 1, 63, 51
3, 154176, Note_on_c, 1, 63, 0
3, 154200, Note_on_c, 1, 62, 48
3, 154296, Note_on_c, 1, 62, 0
3, 154320, Note_on_c, 1, 65, 50
3, 154416, Note_on_c, 1, 65, 0
3, 154440, Note_on_c, 1, 70, 52
3, 154632, Note_on_c, 1, 70, 0
3, 154680, Note_on_c, 1, 62, 55
3, 154896, Note_on_c, 1, 62, 0
3, 154920, Note_on_c, 1, 60, 59
3, 155016, Note_on_c, 1, 60, 0
3, 155040, Note_on_c, 1, 64, 61
3, 155136, Note_on_c, 1, 64, 0
3, 155160, Note_on_c, 1, 69, 63
3, 155352, Note_on_c, 1, 69, 0
3, 155400, Note_on_c, 1, 60, 67
3, 155616, Note_on_c, 1, 60, 0
3, 155640, Note_on_c, 1, 58, 71
3, 155736, Note_on_c, 1, 58, 0
3, 155760, Note_on_c, 1, 62, 73
3, 155856, Note_on_c, 1, 62, 0
3, 155880, Note_on_c, 1, 67, 75
3, 156072, Note_on_c, 1, 67, 0
3, 156120, Note_on_c, 1, 58, 78
3, 156216, Note_on_c, 1, 58, 0
3, 156240, Note_on_c, 1, 58, 80
3, 156336, Note_on_c, 1, 58, 0
3, 156360, Note_on_c, 1, 57, 82
3, 156456, Note_on_c, 1, 57, 0
3, 156480, Note_on_c, 1, 65, 84
3, 156576, Note_on_c, 1, 65, 0
3, 156600, Note_on_c, 1, 65, 86
3, 156696, Note_on_c, 1, 65, 0
3, 156720, Note_on_c, 1, 67, 88
3, 156816, Note_on_c, 1, 67, 0
3, 156840, Note_on_c, 1, 64, 90
3, 156936, Note_on_c, 1, 64, 0
3, 156960, Note_on_c, 1, 65, 92
3, 157248, Note_on_c, 1, 65, 0
3, 159240, Note_on_c, 1, 74, 94
3, 159288, Note_on_c, 1, 74, 0
3, 159300, Note_on_c, 1, 73, 94
3, 159348, Note_on_c, 1, 73, 0
3, 159360, Note_on_c, 1, 74, 94
3, 159408, Note_on_c, 1, 74, 0
3, 159420, Note_on_c, 1, 69, 94
3, 159468, Note_on_c, 1, 69, 0
3, 159480, Note_on_c, 1, 70, 94
3, 159528, Note_on_c, 1, 70, 0
3, 159540, Note_on_c, 1, 67, 94
3, 159588, Note_on_c, 1, 67, 0
3, 159600, Note_on_c, 1, 69, 94
3, 159648, Note_on_c, 1, 69, 0
3, 159660, Note_on_c, 1, 65, 94
3, 159708, Note_on_c, 1, 65, 0
3, 159720, Note_on_c, 1, 67, 94
3, 159768, Note_on_c, 1, 67, 0
3, 159780, Note_on_c, 1, 64, 94
3, 159828, Note_on_c, 1, 64, 0
3, 159840, Note_on_c, 1, 65, 94
3, 159888, Note_on_c, 1, 65, 0
3, 159900, Note_on_c, 1, 62, 94
3, 159948, Note_on_c, 1, 62, 0
3, 159960, Note_on_c, 1, 64, 94
3, 160008, Note_on_c, 1, 64, 0
3, 160020, Note_on_c, 1, 61, 94
3, 160068, Note_on_c, 1, 61, 0
3, 160080, Note_on_c, 1, 62, 94
3, 160128, Note_on_c, 1, 62, 0
3, 160140, Note_on_c, 1, 65, 94
3, 160188, Note_on_c, 1, 65, 0
3, 160200, Note_on_c, 1, 64, 94
3, 160248, Note_on_c, 1, 64, 0
3, 160260, Note_on_c, 1, 67, 94
3, 160308, Note_on_c, 1, 67, 0
3, 160320, Note_on_c, 1, 65, 94
3, 160416, Note_on_c, 1, 65, 0
3, 160440, Note_on_c, 1, 69, 94
3, 160536, Note_on_c, 1, 69, 0
3, 160560, Note_on_c, 1, 69, 94
3, 160656, Note_on_c, 1, 69, 0
3, 160680, Note_on_c, 1, 70, 94
3, 160728, Note_on_c, 1, 70, 0
3, 160740, Note_on_c, 1, 73, 94
3, 160788, Note_on_c, 1, 73, 0
3, 160800, Note_on_c, 1, 74, 94
3, 160848, Note_on_c, 1, 74, 0
3, 160860, Note_on_c, 1, 73, 94
3, 160908, Note_on_c, 1, 73, 0
3, 160920, Note_on_c, 1, 74, 94
3, 160968, Note_on_c, 1, 74, 0
3, 160980, Note_on_c, 1, 73, 94
3, 161028, Note_on_c, 1, 73, 0
3, 161040, Note_on_c, 1, 74, 94
3, 161136, Note_on_c, 1, 74, 0
3, 161160, Note_on_c, 1, 74, 94
3, 161376, Note_on_c, 1, 74, 0
3, 161400, Note_on_c, 1, 73, 94
3, 161496, Note_on_c, 1, 73, 0
3, 162120, Note_on_c, 1, 69, 69
3, 162168, Note_on_c, 1, 69, 0
3, 162180, Note_on_c, 1, 70, 69
3, 162228, Note_on_c, 1, 70, 0
3, 162240, Note_on_c, 1, 72, 69
3, 162336, Note_on_c, 1, 72, 0
3, 162360, Note_on_c, 1, 70, 70
3, 162456, Note_on_c, 1, 70, 0
3, 162480, Note_on_c, 1, 75, 70
3, 162576, Note_on_c, 1, 75, 0
3, 162600, Note_on_c, 1, 74, 71
3, 162696, Note_on_c, 1, 74, 0
3, 162720, Note_on_c, 1, 66, 72
3, 162816, Note_on_c, 1, 66, 0
3, 162840, Note_on_c, 1, 67, 72
3, 162936, Note_on_c, 1, 67, 0
3, 162960, Note_on_c, 1, 72, 73
3, 163008, Note_on_c, 1, 72, 0
3, 163020, Note_on_c, 1, 69, 73
3, 163068, Note_on_c, 1, 69, 0
3, 163080, Note_on_c, 1, 70, 73
3, 163176, Note_on_c, 1, 70, 0
3, 163560, Note_on_c, 1, 71, 75
3, 163608, Note_on_c, 1, 71, 0
3, 163620, Note_on_c, 1, 72, 76
3, 163668, Note_on_c, 1, 72, 0
3, 163680, Note_on_c, 1, 74, 76
3, 163776, Note_on_c, 1, 74, 0
3, 163800, Note_on_c, 1, 72, 77
3, 163896, Note_on_c, 1, 72, 0
3, 163920, Note_on_c, 1, 77, 77
3, 164016, Note_on_c, 1, 77, 0
3, 164040, Note_on_c, 1, 76, 78
3, 164136, Note_on_c, 1, 76, 0
3, 164160, Note_on_c, 1, 68, 78
3, 164256, Note_on_c, 1, 68, 0
3, 164280, Note_on_c, 1, 69, 79
3, 164376, Note_on_c, 1, 69, 0
3, 164400, Note_on_c, 1, 74, 79
3, 164448, Note_on_c, 1, 74, 0
3, 164460, Note_on_c, 1, 71, 80
3, 164508, Note_on_c, 1, 71, 0
3, 164520, Note_on_c, 1, 73, 80
3, 164616, Note_on_c, 1, 73, 0
3, 165000, Note_on_c, 1, 81, 82
3, 165048, Note_on_c, 1, 81, 0
3, 165060, Note_on_c, 1, 80, 83
3, 165108, Note_on_c, 1, 80, 0
3, 165120, Note_on_c, 1, 81, 83
3, 165168, Note_on_c, 1, 81, 0
3, 165180, Note_on_c, 1, 76, 83
3, 165228, Note_on_c, 1, 76, 0
3, 165240, Note_on_c, 1, 77, 83
3, 165288, Note_on_c, 1, 77, 0
3, 165300, Note_on_c, 1, 74, 84
3, 165348, Note_on_c, 1, 74, 0
3, 165360, Note_on_c, 1, 76, 84
3, 165408, Note_on_c, 1, 76, 0
3, 165420, Note_on_c, 1, 73, 84
3, 165468, Note_on_c, 1, 73, 0
3, 165480, Note_on_c, 1, 69, 85
3, 165576, Note_on_c, 1, 69, 0
3, 165720, Note_on_c, 1, 81, 86
3, 165768, Note_on_c, 1, 81, 0
3, 165780, Note_on_c, 1, 77, 86
3, 165828, Note_on_c, 1, 77, 0
3, 165840, Note_on_c, 1, 79, 86
3, 165888, Note_on_c, 1, 79, 0
3, 165900, Note_on_c, 1, 76, 87
3, 165948, Note_on_c, 1, 76, 0
3, 165960, Note_on_c, 1, 77, 87
3, 166008, Note_on_c, 1, 77, 0
3, 166020, Note_on_c, 1, 74, 87
3, 166068, Note_on_c, 1, 74, 0
3, 166080, Note_on_c, 1, 76, 87
3, 166128, Note_on_c, 1, 76, 0
3, 166140, Note_on_c, 1, 73, 88
3, 166188, Note_on_c, 1, 73, 0
3, 166200, Note_on_c, 1, 69, 88
3, 166296, Note_on_c, 1, 69, 0
3, 166440, Note_on_c, 1, 70, 89
3, 166472, Note_on_c, 1, 70, 0
3, 166480, Note_on_c, 1, 69, 89
3, 166512, Note_on_c, 1, 69, 0
3, 166520, Note_on_c, 1, 67, 89
3, 166552, Note_on_c, 1, 67, 0
3, 166560, Note_on_c, 1, 69, 90
3, 166712, Note_on_c, 1, 69, 0
3, 166720, Note_on_c, 1, 67, 90
3, 166752, Note_on_c, 1, 67, 0
3, 166760, Note_on_c, 1, 65, 91
3, 166792, Note_on_c, 1, 65, 0
3, 166800, Note_on_c, 1, 67, 91
3, 166848, Note_on_c, 1, 67, 0
3, 166860, Note_on_c, 1, 65, 91
3, 166908, Note_on_c, 1, 65, 0
3, 166920, Note_on_c, 1, 67, 91
3, 166968, Note_on_c, 1, 67, 0
3, 166980, Note_on_c, 1, 65, 92
3, 167028, Note_on_c, 1, 65, 0
3, 167040, Note_on_c, 1, 67, 92
3, 167136, Note_on_c, 1, 67, 0
3, 167400, Note_on_c, 1, 73, 94
3, 167432, Note_on_c, 1, 73, 0
3, 167440, Note_on_c, 1, 74, 94
3, 167472, Note_on_c, 1, 74, 0
3, 167480, Note_on_c, 1, 76, 94
3, 167512, Note_on_c, 1, 76, 0
3, 167520, Note_on_c, 1, 76, 94
3, 167552, Note_on_c, 1, 76, 0
3, 167560, Note_on_c, 1, 77, 94
3, 167592, Note_on_c, 1, 77, 0
3, 167600, Note_on_c, 1, 79, 95
3, 167632, Note_on_c, 1, 79, 0
3, 167640, Note_on_c, 1, 79, 95
3, 167672, Note_on_c, 1, 79, 0
3, 167680, Note_on_c, 1, 77, 95
3, 167712, Note_on_c, 1, 77, 0
3, 167720, Note_on_c, 1, 76, 95
3, 167752, Note_on_c, 1, 76, 0
3, 167760, Note_on_c, 1, 77, 95
3, 167856, Note_on_c, 1, 77, 0
3, 168120, Note_on_c, 1, 74, 92
3, 168152, Note_on_c, 1, 74, 0
3, 168160, Note_on_c, 1, 76, 92
3, 168192, Note_on_c, 1, 76, 0
3, 168200, Note_on_c, 1, 77, 92
3, 168232, Note_on_c, 1, 77, 0
3, 168240, Note_on_c, 1, 77, 93
3, 168272, Note_on_c, 1, 77, 0
3, 168280, Note_on_c, 1, 79, 93
3, 168312, Note_on_c, 1, 79, 0
3, 168320, Note_on_c, 1, 81, 93
3, 168352, Note_on_c, 1, 81, 0
3, 168360, Note_on_c, 1, 81, 93
3, 168392, Note_on_c, 1, 81, 0
3, 168400, Note_on_c, 1, 79, 94
3, 168432, Note_on_c, 1, 79, 0
3, 168440, Note_on_c, 1, 77, 94
3, 168472, Note_on_c, 1, 77, 0
3, 168480, Note_on_c, 1, 79, 94
3, 168576, Note_on_c, 1, 79, 0
3, 168840, Note_on_c, 1, 61, 93
3, 168872, Note_on_c, 1, 61, 0
3, 168880, Note_on_c, 1, 62, 93
3, 168912, Note_on_c, 1, 62, 0
3, 168920, Note_on_c, 1, 64, 93
3, 168952, Note_on_c, 1, 64, 0
3, 168960, Note_on_c, 1, 64, 94
3, 168992, Note_on_c, 1, 64, 0
3, 169000, Note_on_c, 1, 65, 94
3, 169032, Note_on_c, 1, 65, 0
3, 169040, Note_on_c, 1, 67, 94
3, 169072, Note_on_c, 1, 67, 0
3, 169080, Note_on_c, 1, 67, 95
3, 169112, Note_on_c, 1, 67, 0
3, 169120, Note_on_c, 1, 65, 95
3, 169152, Note_on_c, 1, 65, 0
3, 169160, Note_on_c, 1, 64, 95
3, 169192, Note_on_c, 1, 64, 0
3, 169200, Note_on_c, 1, 62, 95
3, 169248, Note_on_c, 1, 62, 0
3, 169260, Note_on_c, 1, 65, 96
3, 169308, Note_on_c, 1, 65, 0
3, 169320, Note_on_c, 1, 64, 96
3, 169368, Note_on_c, 1, 64, 0
3, 169380, Note_on_c, 1, 65, 97
3, 169428, Note_on_c, 1, 65, 0
3, 169440, Note_on_c, 1, 67, 97
3, 169488, Note_on_c, 1, 67, 0
3, 169500, Note_on_c, 1, 65, 98
3, 169548, Note_on_c, 1, 65, 0
3, 169560, Note_on_c, 1, 64, 98
3, 169608, Note_on_c, 1, 64, 0
3, 169620, Note_on_c, 1, 65, 99
3, 169668, Note_on_c, 1, 65, 0
3, 169680, Note_on_c, 1, 70, 99
3, 169776, Note_on_c, 1, 70, 0
3, 169800, Note_on_c, 1, 67, 100
3, 169896, Note_on_c, 1, 67, 0
3, 169920, Note_on_c, 1, 69, 101
3, 169968, Note_on_c, 1, 69, 0
3, 169980, Note_on_c, 1, 65, 102
3, 170028, Note_on_c, 1, 65, 0
3, 170040, Note_on_c, 1, 64, 102
3, 170088, Note_on_c, 1, 64, 0
3, 170100, Note_on_c, 1, 65, 103
3, 170148, Note_on_c, 1, 65, 0
3, 170160, Note_on_c, 1, 62, 103
3, 170208, Note_on_c, 1, 62, 0
3, 170220, Note_on_c, 1, 65, 103
3, 170268, Note_on_c, 1, 65, 0
3, 170280, Note_on_c, 1, 64, 104
3, 170328, Note_on_c, 1, 64, 0
3, 170340, Note_on_c, 1, 65, 104
3, 170388, Note_on_c, 1, 65, 0
3, 170400, Note_on_c, 1, 69, 105
3, 170496, Note_on_c, 1, 69, 0
3, 170520, Note_on_c, 1, 65, 106
3, 170616, Note_on_c, 1, 65, 0
3, 170640, Note_on_c, 1, 67, 107
3, 170688, Note_on_c, 1, 67, 0
3, 170700, Note_on_c, 1, 70, 107
3, 170748, Note_on_c, 1, 70, 0
3, 170760, Note_on_c, 1, 69, 108
3, 170808, Note_on_c, 1, 69, 0
3, 170820, Note_on_c, 1, 70, 108
3, 170868, Note_on_c, 1, 70, 0
3, 170880, Note_on_c, 1, 67, 109
3, 170928, Note_on_c, 1, 67, 0
3, 170940, Note_on_c, 1, 70, 109
3, 170988, Note_on_c, 1, 70, 0
3, 171000, Note_on_c, 1, 69, 110
3, 171048, Note_on_c, 1, 69, 0
3, 171060, Note_on_c, 1, 70, 110
3, 171108, Note_on_c, 1, 70, 0
3, 171120, Note_on_c, 1, 67, 110
3, 171216, Note_on_c, 1, 67, 0
3, 171240, Note_on_c, 1, 64, 111
3, 171336, Note_on_c, 1, 64, 0
3, 171360, Note_on_c, 1, 65, 112
3, 171456, Note_on_c, 1, 65, 0
3, 171480, Note_on_c, 1, 69, 113
3, 171576, Note_on_c, 1, 69, 0
3, 171600, Note_on_c, 1, 74, 113
3, 171696, Note_on_c, 1, 74, 0
3, 171720, Note_on_c, 1, 77, 113
3, 171810, Note_on_c, 1, 81, 113
3, 171816, Note_on_c, 1, 77, 0
3, 171840, Note_on_c, 1, 81, 0
3, 171840, Note_on_c, 1, 80, 113
3, 171984, Note_on_c, 1, 80, 0
3, 172020, Note_on_c, 1, 78, 113
3, 172044, Note_on_c, 1, 78, 0
3, 172050, Note_on_c, 1, 80, 113
3, 172074, Note_on_c, 1, 80, 0
3, 172080, Note_on_c, 1, 81, 113
3, 172176, Note_on_c, 1, 81, 0
3, 172200, Note_on_c, 1, 76, 113
3, 172296, Note_on_c, 1, 76, 0
3, 172320, Note_on_c, 1, 77, 113
3, 172416, Note_on_c, 1, 77, 0
3, 172440, Note_on_c, 1, 74, 113
3, 172536, Note_on_c, 1, 74, 0
3, 172560, Note_on_c, 1, 69, 113
3, 172656, Note_on_c, 1, 69, 0
3, 172680, Note_on_c, 1, 73, 113
3, 172776, Note_on_c, 1, 73, 0
3, 172800, Note_on_c, 1, 74, 113
3, 172848, Note_on_c, 1, 74, 0
3, 172860, Note_on_c, 1, 69, 112
3, 172908, Note_on_c, 1, 69, 0
3, 172920, Note_on_c, 1, 70, 110
3, 172968, Note_on_c, 1, 70, 0
3, 172980, Note_on_c, 1, 67, 109
3, 173028, Note_on_c, 1, 67, 0
3, 173040, Note_on_c, 1, 69, 107
3, 173088, Note_on_c, 1, 69, 0
3, 173100, Note_on_c, 1, 65, 106
3, 173148, Note_on_c, 1, 65, 0
3, 173160, Note_on_c, 1, 64, 104
3, 173208, Note_on_c, 1, 64, 0
3, 173220, Note_on_c, 1, 61, 103
3, 173268, Note_on_c, 1, 61, 0
3, 173280, Note_on_c, 1, 62, 102
3, 173328, Note_on_c, 1, 62, 0
3, 173340, Note_on_c, 1, 57, 100
3, 173388, Note_on_c, 1, 57, 0
3, 173400, Note_on_c, 1, 58, 99
3, 173448, Note_on_c, 1, 58, 0
3, 173460, Note_on_c, 1, 55, 97
3, 173508, Note_on_c, 1, 55, 0
3, 173520, Note_on_c, 1, 57, 96
3, 173712, Note_on_c, 1, 57, 0
3, 176520, Note_on_c, 1, 69, 90
3, 176568, Note_on_c, 1, 69, 0
3, 176580, Note_on_c, 1, 67, 90
3, 176628, Note_on_c, 1, 67, 0
3, 176640, Note_on_c, 1, 69, 90
3, 176736, Note_on_c, 1, 69, 0
3, 176760, Note_on_c, 1, 77, 90
3, 176856, Note_on_c, 1, 77, 0
3, 176880, Note_on_c, 1, 73, 90
3, 176976, Note_on_c, 1, 73, 0
3, 177000, Note_on_c, 1, 74, 90
3, 177096, Note_on_c, 1, 74, 0
3, 177240, Note_on_c, 1, 67, 90
3, 177288, Note_on_c, 1, 67, 0
3, 177300, Note_on_c, 1, 65, 90
3, 177348, Note_on_c, 1, 65, 0
3, 177360, Note_on_c, 1, 67, 90
3, 177456, Note_on_c, 1, 67, 0
3, 177480, Note_on_c, 1, 76, 90
3, 177660, Note_on_c, 1, 76, 0
3, 177660, Note_on_c, 1, 74, 90
3, 177708, Note_on_c, 1, 74, 0
3, 177720, Note_on_c, 1, 73, 90
3, 177768, Note_on_c, 1, 73, 0
3, 177780, Note_on_c, 1, 74, 90
3, 177828, Note_on_c, 1, 74, 0
3, 177840, Note_on_c, 1, 76, 90
3, 177888, Note_on_c, 1, 76, 0
3, 177900, Note_on_c, 1, 74, 90
3, 177948, Note_on_c, 1, 74, 0
3, 177960, Note_on_c, 1, 73, 90
3, 178008, Note_on_c, 1, 73, 0
3, 178020, Note_on_c, 1, 71, 90
3, 178068, Note_on_c, 1, 71, 0
3, 178080, Note_on_c, 1, 69, 90
3, 178128, Note_on_c, 1, 69, 0
3, 178140, Note_on_c, 1, 67, 90
3, 178188, Note_on_c, 1, 67, 0
3, 178200, Note_on_c, 1, 70, 90
3, 178440, Note_on_c, 1, 70, 0
3, 178440, Note_on_c, 1, 69, 90
3, 178608, Note_on_c, 1, 69, 0
3, 178620, Note_on_c, 1, 67, 90
3, 178668, Note_on_c, 1, 67, 0
3, 178680, Note_on_c, 1, 65, 90
3, 178728, Note_on_c, 1, 65, 0
3, 178740, Note_on_c, 1, 64, 90
3, 178788, Note_on_c, 1, 64, 0
3, 178800, Note_on_c, 1, 65, 90
3, 178848, Note_on_c, 1, 65, 0
3, 178860, Note_on_c, 1, 62, 90
3, 178908, Note_on_c, 1, 62, 0
3, 178920, Note_on_c, 1, 64, 90
3, 178968, Note_on_c, 1, 64, 0
3, 178980, Note_on_c, 1, 61, 90
3, 179028, Note_on_c, 1, 61, 0
3, 179040, Note_on_c, 1, 62, 90
3, 179088, Note_on_c, 1, 62, 0
3, 179100, Note_on_c, 1, 57, 90
3, 179148, Note_on_c, 1, 57, 0
3, 179160, Note_on_c, 1, 62, 90
3, 179208, Note_on_c, 1, 62, 0
3, 179220, Note_on_c, 1, 61, 90
3, 179268, Note_on_c, 1, 61, 0
3, 179280, Note_on_c, 1, 62, 90
3, 179328, Note_on_c, 1, 62, 0
3, 179340, Note_on_c, 1, 57, 88
3, 179388, Note_on_c, 1, 57, 0
3, 179400, Note_on_c, 1, 65, 88
3, 179448, Note_on_c, 1, 65, 0
3, 179460, Note_on_c, 1, 64, 89
3, 179508, Note_on_c, 1, 64, 0
3, 179520, Note_on_c, 1, 66, 89
3, 179568, Note_on_c, 1, 66, 0
3, 179580, Note_on_c, 1, 62, 89
3, 179628, Note_on_c, 1, 62, 0
3, 179640, Note_on_c, 1, 69, 90
3, 179688, Note_on_c, 1, 69, 0
3, 179700, Note_on_c, 1, 67, 90
3, 179748, Note_on_c, 1, 67, 0
3, 179760, Note_on_c, 1, 69, 91
3, 179808, Note_on_c, 1, 69, 0
3, 179820, Note_on_c, 1, 64, 91
3, 179868, Note_on_c, 1, 64, 0
3, 179880, Note_on_c, 1, 67, 92
3, 179928, Note_on_c, 1, 67, 0
3, 179940, Note_on_c, 1, 69, 92
3, 179988, Note_on_c, 1, 69, 0
3, 180000, Note_on_c, 1, 70, 92
3, 180048, Note_on_c, 1, 70, 0
3, 180060, Note_on_c, 1, 74, 93
3, 180108, Note_on_c, 1, 74, 0
3, 180120, Note_on_c, 1, 67, 93
3, 180168, Note_on_c, 1, 67, 0
3, 180180, Note_on_c, 1, 65, 93
3, 180228, Note_on_c, 1, 65, 0
3, 180240, Note_on_c, 1, 67, 92
3, 180288, Note_on_c, 1, 67, 0
3, 180300, Note_on_c, 1, 74, 92
3, 180348, Note_on_c, 1, 74, 0
3, 180360, Note_on_c, 1, 65, 92
3, 180408, Note_on_c, 1, 65, 0
3, 180420, Note_on_c, 1, 64, 91
3, 180468, Note_on_c, 1, 64, 0
3, 180480, Note_on_c, 1, 65, 91
3, 180528, Note_on_c, 1, 65, 0
3, 180540, Note_on_c, 1, 74, 91
3, 180588, Note_on_c, 1, 74, 0
3, 180600, Note_on_c, 1, 64, 90
3, 180648, Note_on_c, 1, 64, 0
3, 180660, Note_on_c, 1, 62, 90
3, 180708, Note_on_c, 1, 62, 0
3, 180720, Note_on_c, 1, 60, 90
3, 180768, Note_on_c, 1, 60, 0
3, 180780, Note_on_c, 1, 55, 85
3, 180828, Note_on_c, 1, 55, 0
3, 180840, Note_on_c, 1, 64, 85
3, 180888, Note_on_c, 1, 64, 0
3, 180900, Note_on_c, 1, 62, 85
3, 180948, Note_on_c, 1, 62, 0
3, 180960, Note_on_c, 1, 64, 85
3, 181008, Note_on_c, 1, 64, 0
3, 181020, Note_on_c, 1, 60, 86
3, 181068, Note_on_c, 1, 60, 0
3, 181080, Note_on_c, 1, 67, 86
3, 181128, Note_on_c, 1, 67, 0
3, 181140, Note_on_c, 1, 65, 86
3, 181188, Note_on_c, 1, 65, 0
3, 181200, Note_on_c, 1, 67, 86
3, 181248, Note_on_c, 1, 67, 0
3, 181260, Note_on_c, 1, 60, 87
3, 181308, Note_on_c, 1, 60, 0
3, 181320, Note_on_c, 1, 65, 87
3, 181368, Note_on_c, 1, 65, 0
3, 181380, Note_on_c, 1, 67, 87
3, 181428, Note_on_c, 1, 67, 0
3, 181440, Note_on_c, 1, 69, 87
3, 181488, Note_on_c, 1, 69, 0
3, 181500, Note_on_c, 1, 72, 88
3, 181548, Note_on_c, 1, 72, 0
3, 181560, Note_on_c, 1, 65, 88
3, 181608, Note_on_c, 1, 65, 0
3, 181620, Note_on_c, 1, 64, 88
3, 181668, Note_on_c, 1, 64, 0
3, 181680, Note_on_c, 1, 65, 88
3, 181728, Note_on_c, 1, 65, 0
3, 181740, Note_on_c, 1, 72, 89
3, 181788, Note_on_c, 1, 72, 0
3, 181800, Note_on_c, 1, 63, 89
3, 181848, Note_on_c, 1, 63, 0
3, 181860, Note_on_c, 1, 62, 89
3, 181908, Note_on_c, 1, 62, 0
3, 181920, Note_on_c, 1, 63, 89
3, 181968, Note_on_c, 1, 63, 0
3, 181980, Note_on_c, 1, 72, 90
3, 182028, Note_on_c, 1, 72, 0
3, 182040, Note_on_c, 1, 62, 90
3, 182088, Note_on_c, 1, 62, 0
3, 182100, Note_on_c, 1, 60, 90
3, 182148, Note_on_c, 1, 60, 0
3, 182160, Note_on_c, 1, 58, 90
3, 182208, Note_on_c, 1, 58, 0
3, 182220, Note_on_c, 1, 62, 91
3, 182268, Note_on_c, 1, 62, 0
3, 182280, Note_on_c, 1, 65, 91
3, 182328, Note_on_c, 1, 65, 0
3, 182340, Note_on_c, 1, 70, 91
3, 182388, Note_on_c, 1, 70, 0
3, 182400, Note_on_c, 1, 74, 91
3, 182448, Note_on_c, 1, 74, 0
3, 182460, Note_on_c, 1, 70, 92
3, 182508, Note_on_c, 1, 70, 0
3, 182520, Note_on_c, 1, 72, 92
3, 182568, Note_on_c, 1, 72, 0
3, 182580, Note_on_c, 1, 69, 92
3, 182628, Note_on_c, 1, 69, 0
3, 182640, Note_on_c, 1, 70, 93
3, 182736, Note_on_c, 1, 70, 0
3, 182760, Note_on_c, 1, 74, 93
3, 182928, Note_on_c, 1, 74, 0
3, 182940, Note_on_c, 1, 64, 94
3, 182988, Note_on_c, 1, 64, 0
3, 183000, Note_on_c, 1, 67, 94
3, 183048, Note_on_c, 1, 67, 0
3, 183060, Note_on_c, 1, 72, 94
3, 183108, Note_on_c, 1, 72, 0
3, 183120, Note_on_c, 1, 76, 95
3, 183168, Note_on_c, 1, 76, 0
3, 183180, Note_on_c, 1, 72, 95
3, 183228, Note_on_c, 1, 72, 0
3, 183240, Note_on_c, 1, 74, 95
3, 183288, Note_on_c, 1, 74, 0
3, 183300, Note_on_c, 1, 70, 95
3, 183348, Note_on_c, 1, 70, 0
3, 183360, Note_on_c, 1, 72, 96
3, 183456, Note_on_c, 1, 72, 0
3, 183480, Note_on_c, 1, 76, 96
3, 183648, Note_on_c, 1, 76, 0
3, 183660, Note_on_c, 1, 65, 97
3, 183708, Note_on_c, 1, 65, 0
3, 183720, Note_on_c, 1, 69, 97
3, 183768, Note_on_c, 1, 69, 0
3, 183780, Note_on_c, 1, 74, 97
3, 183828, Note_on_c, 1, 74, 0
3, 183840, Note_on_c, 1, 77, 98
3, 183888, Note_on_c, 1, 77, 0
3, 183900, Note_on_c, 1, 74, 98
3, 183948, Note_on_c, 1, 74, 0
3, 183960, Note_on_c, 1, 75, 98
3, 184008, Note_on_c, 1, 75, 0
3, 184020, Note_on_c, 1, 72, 98
3, 184068, Note_on_c, 1, 72, 0
3, 184080, Note_on_c, 1, 74, 99
3, 184176, Note_on_c, 1, 74, 0
3, 184200, Note_on_c, 1, 77, 99
3, 184368, Note_on_c, 1, 77, 0
3, 184380, Note_on_c, 1, 67, 100
3, 184428, Note_on_c, 1, 67, 0
3, 184440, Note_on_c, 1, 72, 100
3, 184488, Note_on_c, 1, 72, 0
3, 184500, Note_on_c, 1, 76, 100
3, 184548, Note_on_c, 1, 76, 0
3, 184560, Note_on_c, 1, 79, 101
3, 184608, Note_on_c, 1, 79, 0
3, 184620, Note_on_c, 1, 76, 101
3, 184668, Note_on_c, 1, 76, 0
3, 184680, Note_on_c, 1, 77, 101
3, 184728, Note_on_c, 1, 77, 0
3, 184740, Note_on_c, 1, 74, 101
3, 184788, Note_on_c, 1, 74, 0
3, 184800, Note_on_c, 1, 76, 102
3, 184896, Note_on_c, 1, 76, 0
3, 185160, Note_on_c, 1, 77, 103
3, 185208, Note_on_c, 1, 77, 0
3, 185220, Note_on_c, 1, 76, 104
3, 185268, Note_on_c, 1, 76, 0
3, 185280, Note_on_c, 1, 77, 104
3, 185328, Note_on_c, 1, 77, 0
3, 185340, Note_on_c, 1, 72, 104
3, 185388, Note_on_c, 1, 72, 0
3, 185400, Note_on_c, 1, 74, 104
3, 185448, Note_on_c, 1, 74, 0
3, 185460, Note_on_c, 1, 70, 104
3, 185508, Note_on_c, 1, 70, 0
3, 185520, Note_on_c, 1, 72, 104
3, 185568, Note_on_c, 1, 72, 0
3, 185580, Note_on_c, 1, 69, 104
3, 185628, Note_on_c, 1, 69, 0
3, 185640, Note_on_c, 1, 70, 104
3, 185688, Note_on_c, 1, 70, 0
3, 185700, Note_on_c, 1, 67, 104
3, 185748, Note_on_c, 1, 67, 0
3, 185760, Note_on_c, 1, 69, 104
3, 185808, Note_on_c, 1, 69, 0
3, 185820, Note_on_c, 1, 65, 104
3, 185868, Note_on_c, 1, 65, 0
3, 185880, Note_on_c, 1, 67, 104
3, 185928, Note_on_c, 1, 67, 0
3, 185940, Note_on_c, 1, 64, 104
3, 185988, Note_on_c, 1, 64, 0
3, 186000, Note_on_c, 1, 65, 104
3, 186048, Note_on_c, 1, 65, 0
3, 186060, Note_on_c, 1, 69, 104
3, 186108, Note_on_c, 1, 69, 0
3, 186120, Note_on_c, 1, 67, 104
3, 186168, Note_on_c, 1, 67, 0
3, 186180, Note_on_c, 1, 70, 104
3, 186228, Note_on_c, 1, 70, 0
3, 186240, Note_on_c, 1, 69, 104
3, 186336, Note_on_c, 1, 69, 0
3, 186360, Note_on_c, 1, 70, 104
3, 186456, Note_on_c, 1, 70, 0
3, 186480, Note_on_c, 1, 72, 104
3, 186576, Note_on_c, 1, 72, 0
3, 186600, Note_on_c, 1, 74, 104
3, 186648, Note_on_c, 1, 74, 0
3, 186660, Note_on_c, 1, 76, 104
3, 186708, Note_on_c, 1, 76, 0
3, 186720, Note_on_c, 1, 77, 104
3, 186768, Note_on_c, 1, 77, 0
3, 186780, Note_on_c, 1, 76, 104
3, 186828, Note_on_c, 1, 76, 0
3, 186840, Note_on_c, 1, 77, 104
3, 186888, Note_on_c, 1, 77, 0
3, 186900, Note_on_c, 1, 76, 104
3, 186948, Note_on_c, 1, 76, 0
3, 186960, Note_on_c, 1, 77, 104
3, 187056, Note_on_c, 1, 77, 0
3, 187080, Note_on_c, 1, 77, 104
3, 187296, Note_on_c, 1, 77, 0
3, 187320, Note_on_c, 1, 76, 104
3, 187416, Note_on_c, 1, 76, 0
3, 187920, Note_on_c, 1, 79, 77
3, 187920, Note_on_c, 1, 69, 77
3, 188016, Note_on_c, 1, 69, 0
3, 188016, Note_on_c, 1, 79, 0
3, 188040, Note_on_c, 1, 69, 82
3, 188040, Note_on_c, 1, 79, 82
3, 188136, Note_on_c, 1, 79, 0
3, 188136, Note_on_c, 1, 69, 0
3, 188160, Note_on_c, 1, 79, 82
3, 188160, Note_on_c, 1, 69, 82
3, 188256, Note_on_c, 1, 69, 0
3, 188256, Note_on_c, 1, 79, 0
3, 188280, Note_on_c, 1, 79, 83
3, 188280, Note_on_c, 1, 69, 83
3, 188376, Note_on_c, 1, 69, 0
3, 188376, Note_on_c, 1, 79, 0
3, 188400, Note_on_c, 1, 69, 83
3, 188400, Note_on_c, 1, 79, 83
3, 188496, Note_on_c, 1, 79, 0
3, 188496, Note_on_c, 1, 69, 0
3, 188520, Note_on_c, 1, 79, 84
3, 188520, Note_on_c, 1, 69, 84
3, 188616, Note_on_c, 1, 69, 0
3, 188616, Note_on_c, 1, 79, 0
3, 188640, Note_on_c, 1, 77, 84
3, 188640, Note_on_c, 1, 69, 84
3, 188736, Note_on_c, 1, 69, 0
3, 188736, Note_on_c, 1, 77, 0
3, 188760, Note_on_c, 1, 69, 85
3, 188760, Note_on_c, 1, 77, 85
3, 188856, Note_on_c, 1, 77, 0
3, 188856, Note_on_c, 1, 69, 0
3, 188880, Note_on_c, 1, 69, 85
3, 188880, Note_on_c, 1, 77, 85
3, 188976, Note_on_c, 1, 77, 0
3, 188976, Note_on_c, 1, 69, 0
3, 189000, Note_on_c, 1, 77, 86
3, 189000, Note_on_c, 1, 69, 86
3, 189096, Note_on_c, 1, 69, 0
3, 189096, Note_on_c, 1, 77, 0
3, 189120, Note_on_c, 1, 77, 86
3, 189120, Note_on_c, 1, 69, 86
3, 189216, Note_on_c, 1, 69, 0
3, 189216, Note_on_c, 1, 77, 0
3, 189240, Note_on_c, 1, 77, 87
3, 189240, Note_on_c, 1, 69, 87
3, 189336, Note_on_c, 1, 69, 0
3, 189336, Note_on_c, 1, 77, 0
3, 189360, Note_on_c, 1, 80, 87
3, 189360, Note_on_c, 1, 71, 87
3, 189456, Note_on_c, 1, 71, 0
3, 189456, Note_on_c, 1, 80, 0
3, 189480, Note_on_c, 1, 80, 87
3, 189480, Note_on_c, 1, 71, 87
3, 189576, Note_on_c, 1, 71, 0
3, 189576, Note_on_c, 1, 80, 0
3, 189600, Note_on_c, 1, 80, 88
3, 189600, Note_on_c, 1, 71, 88
3, 189696, Note_on_c, 1, 71, 0
3, 189696, Note_on_c, 1, 80, 0
3, 189720, Note_on_c, 1, 80, 88
3, 189720, Note_on_c, 1, 71, 88
3, 189816, Note_on_c, 1, 71, 0
3, 189816, Note_on_c, 1, 80, 0
3, 189840, Note_on_c, 1, 80, 89
3, 189840, Note_on_c, 1, 71, 89
3, 189936, Note_on_c, 1, 71, 0
3, 189936, Note_on_c, 1, 80, 0
3, 189960, Note_on_c, 1, 71, 89
3, 189960, Note_on_c, 1, 80, 89
3, 190056, Note_on_c, 1, 80, 0
3, 190056, Note_on_c, 1, 71, 0
3, 190080, Note_on_c, 1, 81, 90
3, 190080, Note_on_c, 1, 69, 90
3, 190176, Note_on_c, 1, 69, 0
3, 190176, Note_on_c, 1, 81, 0
3, 190200, Note_on_c, 1, 69, 90
3, 190200, Note_on_c, 1, 81, 90
3, 190296, Note_on_c, 1, 81, 0
3, 190296, Note_on_c, 1, 69, 0
3, 190320, Note_on_c, 1, 69, 91
3, 190320, Note_on_c, 1, 81, 91
3, 190416, Note_on_c, 1, 81, 0
3, 190416, Note_on_c, 1, 69, 0
3, 190440, Note_on_c, 1, 81, 91
3, 190440, Note_on_c, 1, 69, 91
3, 190536, Note_on_c, 1, 69, 0
3, 190536, Note_on_c, 1, 81, 0
3, 190560, Note_on_c, 1, 69, 92
3, 190560, Note_on_c, 1, 81, 92
3, 190656, Note_on_c, 1, 81, 0
3, 190656, Note_on_c, 1, 69, 0
3, 190680, Note_on_c, 1, 69, 92
3, 190680, Note_on_c, 1, 81, 92
3, 190776, Note_on_c, 1, 81, 0
3, 190776, Note_on_c, 1, 69, 0
3, 190800, Note_on_c, 1, 69, 93
3, 190800, Note_on_c, 1, 77, 93
3, 190896, Note_on_c, 1, 77, 0
3, 190896, Note_on_c, 1, 69, 0
3, 190920, Note_on_c, 1, 69, 93
3, 190920, Note_on_c, 1, 77, 93
3, 191016, Note_on_c, 1, 77, 0
3, 191016, Note_on_c, 1, 69, 0
3, 191040, Note_on_c, 1, 77, 94
3, 191040, Note_on_c, 1, 67, 94
3, 191136, Note_on_c, 1, 67, 0
3, 191136, Note_on_c, 1, 77, 0
3, 191160, Note_on_c, 1, 77, 94
3, 191160, Note_on_c, 1, 67, 94
3, 191256, Note_on_c, 1, 67, 0
3, 191256, Note_on_c, 1, 77, 0
3, 191280, Note_on_c, 1, 77, 95
3, 191280, Note_on_c, 1, 67, 95
3, 191376, Note_on_c, 1, 67, 0
3, 191376, Note_on_c, 1, 77, 0
3, 191400, Note_on_c, 1, 77, 95
3, 191400, Note_on_c, 1, 67, 95
3, 191496, Note_on_c, 1, 67, 0
3, 191496, Note_on_c, 1, 77, 0
3, 191520, Note_on_c, 1, 76, 96
3, 191520, Note_on_c, 1, 67, 96
3, 191616, Note_on_c, 1, 67, 0
3, 191616, Note_on_c, 1, 76, 0
3, 191640, Note_on_c, 1, 67, 95
3, 191640, Note_on_c, 1, 76, 95
3, 191736, Note_on_c, 1, 76, 0
3, 191736, Note_on_c, 1, 67, 0
3, 191760, Note_on_c, 1, 76, 94
3, 191760, Note_on_c, 1, 65, 94
3, 191856, Note_on_c, 1, 65, 0
3, 191856, Note_on_c, 1, 76, 0
3, 191880, Note_on_c, 1, 65, 93
3, 191880, Note_on_c, 1, 76, 93
3, 191976, Note_on_c, 1, 76, 0
3, 191976, Note_on_c, 1, 65, 0
3, 192000, Note_on_c, 1, 65, 91
3, 192000, Note_on_c, 1, 76, 91
3, 192096, Note_on_c, 1, 76, 0
3, 192096, Note_on_c, 1, 65, 0
3, 192120, Note_on_c, 1, 76, 90
3, 192120, Note_on_c, 1, 65, 90
3, 192216, Note_on_c, 1, 65, 0
3, 192216, Note_on_c, 1, 76, 0
3, 192240, Note_on_c, 1, 74, 89
3, 192240, Note_on_c, 1, 65, 89
3, 192336, Note_on_c, 1, 65, 0
3, 192336, Note_on_c, 1, 74, 0
3, 192360, Note_on_c, 1, 74, 88
3, 192360, Note_on_c, 1, 65, 88
3, 192456, Note_on_c, 1, 65, 0
3, 192456, Note_on_c, 1, 74, 0
3, 192480, Note_on_c, 1, 74, 86
3, 192480, Note_on_c, 1, 64, 86
3, 192576, Note_on_c, 1, 64, 0
3, 192576, Note_on_c, 1, 74, 0
3, 192600, Note_on_c, 1, 64, 85
3, 192600, Note_on_c, 1, 74, 85
3, 192696, Note_on_c, 1, 74, 0
3, 192696, Note_on_c, 1, 64, 0
3, 192720, Note_on_c, 1, 74, 84
3, 192720, Note_on_c, 1, 64, 84
3, 192816, Note_on_c, 1, 64, 0
3, 192816, Note_on_c, 1, 74, 0
3, 192840, Note_on_c, 1, 64, 82
3, 192840, Note_on_c, 1, 74, 82
3, 192936, Note_on_c, 1, 74, 0
3, 192936, Note_on_c, 1, 64, 0
3, 192960, Note_on_c, 1, 72, 81
3, 192960, Note_on_c, 1, 64, 81
3, 193056, Note_on_c, 1, 64, 0
3, 193056, Note_on_c, 1, 72, 0
3, 195960, Note_on_c, 1, 76, 90
3, 196008, Note_on_c, 1, 76, 0
3, 196020, Note_on_c, 1, 74, 90
3, 196068, Note_on_c, 1, 74, 0
3, 196080, Note_on_c, 1, 76, 90
3, 196176, Note_on_c, 1, 76, 0
3, 196200, Note_on_c, 1, 84, 90
3, 196296, Note_on_c, 1, 84, 0
3, 196320, Note_on_c, 1, 80, 90
3, 196416, Note_on_c, 1, 80, 0
3, 196440, Note_on_c, 1, 81, 90
3, 196536, Note_on_c, 1, 81, 0
3, 196680, Note_on_c, 1, 74, 90
3, 196728, Note_on_c, 1, 74, 0
3, 196740, Note_on_c, 1, 72, 90
3, 196788, Note_on_c, 1, 72, 0
3, 196800, Note_on_c, 1, 74, 90
3, 196896, Note_on_c, 1, 74, 0
3, 196920, Note_on_c, 1, 83, 90
3, 197100, Note_on_c, 1, 83, 0
3, 197100, Note_on_c, 1, 81, 90
3, 197148, Note_on_c, 1, 81, 0
3, 197160, Note_on_c, 1, 80, 90
3, 197208, Note_on_c, 1, 80, 0
3, 197220, Note_on_c, 1, 81, 90
3, 197268, Note_on_c, 1, 81, 0
3, 197280, Note_on_c, 1, 83, 90
3, 197328, Note_on_c, 1, 83, 0
3, 197340, Note_on_c, 1, 81, 90
3, 197388, Note_on_c, 1, 81, 0
3, 197400, Note_on_c, 1, 80, 90
3, 197448, Note_on_c, 1, 80, 0
3, 197460, Note_on_c, 1, 78, 90
3, 197508, Note_on_c, 1, 78, 0
3, 197520, Note_on_c, 1, 76, 90
3, 197568, Note_on_c, 1, 76, 0
3, 197580, Note_on_c, 1, 74, 90
3, 197628, Note_on_c, 1, 74, 0
3, 197640, Note_on_c, 1, 77, 90
3, 197880, Note_on_c, 1, 77, 0
3, 197880, Note_on_c, 1, 76, 90
3, 198048, Note_on_c, 1, 76, 0
3, 198060, Note_on_c, 1, 74, 90
3, 198108, Note_on_c, 1, 74, 0
3, 198120, Note_on_c, 1, 72, 90
3, 198168, Note_on_c, 1, 72, 0
3, 198180, Note_on_c, 1, 71, 90
3, 198228, Note_on_c, 1, 71, 0
3, 198240, Note_on_c, 1, 72, 90
3, 198288, Note_on_c, 1, 72, 0
3, 198300, Note_on_c, 1, 69, 90
3, 198348, Note_on_c, 1, 69, 0
3, 198360, Note_on_c, 1, 71, 90
3, 198408, Note_on_c, 1, 71, 0
3, 198420, Note_on_c, 1, 68, 90
3, 198468, Note_on_c, 1, 68, 0
3, 198480, Note_on_c, 1, 69, 90
3, 198528, Note_on_c, 1, 69, 0
3, 198540, Note_on_c, 1, 64, 90
3, 198588, Note_on_c, 1, 64, 0
3, 198600, Note_on_c, 1, 69, 90
3, 198648, Note_on_c, 1, 69, 0
3, 198660, Note_on_c, 1, 68, 90
3, 198708, Note_on_c, 1, 68, 0
3, 198720, Note_on_c, 1, 69, 90
3, 198768, Note_on_c, 1, 69, 0
3, 198780, Note_on_c, 1, 64, 90
3, 198828, Note_on_c, 1, 64, 0
3, 198840, Note_on_c, 1, 72, 90
3, 198888, Note_on_c, 1, 72, 0
3, 198900, Note_on_c, 1, 71, 90
3, 198948, Note_on_c, 1, 71, 0
3, 198960, Note_on_c, 1, 73, 90
3, 199008, Note_on_c, 1, 73, 0
3, 199020, Note_on_c, 1, 69, 90
3, 199068, Note_on_c, 1, 69, 0
3, 199080, Note_on_c, 1, 76, 90
3, 199128, Note_on_c, 1, 76, 0
3, 199140, Note_on_c, 1, 74, 90
3, 199188, Note_on_c, 1, 74, 0
3, 199200, Note_on_c, 1, 76, 90
3, 199248, Note_on_c, 1, 76, 0
3, 199260, Note_on_c, 1, 69, 90
3, 199308, Note_on_c, 1, 69, 0
3, 199320, Note_on_c, 1, 74, 90
3, 199368, Note_on_c, 1, 74, 0
3, 199380, Note_on_c, 1, 76, 90
3, 199428, Note_on_c, 1, 76, 0
3, 199440, Note_on_c, 1, 77, 90
3, 199488, Note_on_c, 1, 77, 0
3, 199500, Note_on_c, 1, 81, 87
3, 199548, Note_on_c, 1, 81, 0
3, 199560, Note_on_c, 1, 74, 87
3, 199608, Note_on_c, 1, 74, 0
3, 199620, Note_on_c, 1, 73, 88
3, 199668, Note_on_c, 1, 73, 0
3, 199680, Note_on_c, 1, 74, 88
3, 199728, Note_on_c, 1, 74, 0
3, 199740, Note_on_c, 1, 81, 89
3, 199788, Note_on_c, 1, 81, 0
3, 199800, Note_on_c, 1, 72, 90
3, 199848, Note_on_c, 1, 72, 0
3, 199860, Note_on_c, 1, 71, 90
3, 199908, Note_on_c, 1, 71, 0
3, 199920, Note_on_c, 1, 72, 91
3, 199968, Note_on_c, 1, 72, 0
3, 199980, Note_on_c, 1, 81, 91
3, 200028, Note_on_c, 1, 81, 0
3, 200040, Note_on_c, 1, 71, 92
3, 200088, Note_on_c, 1, 71, 0
3, 200100, Note_on_c, 1, 69, 92
3, 200148, Note_on_c, 1, 69, 0
3, 200160, Note_on_c, 1, 67, 93
3, 200208, Note_on_c, 1, 67, 0
3, 200220, Note_on_c, 1, 62, 94
3, 200268, Note_on_c, 1, 62, 0
3, 200280, Note_on_c, 1, 71, 94
3, 200328, Note_on_c, 1, 71, 0
3, 200340, Note_on_c, 1, 69, 93
3, 200388, Note_on_c, 1, 69, 0
3, 200400, Note_on_c, 1, 71, 93
3, 200448, Note_on_c, 1, 71, 0
3, 200460, Note_on_c, 1, 67, 92
3, 200508, Note_on_c, 1, 67, 0
3, 200520, Note_on_c, 1, 74, 91
3, 200568, Note_on_c, 1, 74, 0
3, 200580, Note_on_c, 1, 72, 91
3, 200628, Note_on_c, 1, 72, 0
3, 200640, Note_on_c, 1, 74, 90
3, 200688, Note_on_c, 1, 74, 0
3, 200700, Note_on_c, 1, 67, 90
3, 200748, Note_on_c, 1, 67, 0
3, 200760, Note_on_c, 1, 72, 89
3, 200808, Note_on_c, 1, 72, 0
3, 200820, Note_on_c, 1, 74, 90
3, 200868, Note_on_c, 1, 74, 0
3, 200880, Note_on_c, 1, 76, 90
3, 200928, Note_on_c, 1, 76, 0
3, 200940, Note_on_c, 1, 79, 90
3, 200988, Note_on_c, 1, 79, 0
3, 201000, Note_on_c, 1, 72, 90
3, 201048, Note_on_c, 1, 72, 0
3, 201060, Note_on_c, 1, 71, 90
3, 201108, Note_on_c, 1, 71, 0
3, 201120, Note_on_c, 1, 72, 90
3, 201168, Note_on_c, 1, 72, 0
3, 201180, Note_on_c, 1, 79, 90
3, 201228, Note_on_c, 1, 79, 0
3, 201240, Note_on_c, 1, 70, 90
3, 201288, Note_on_c, 1, 70, 0
3, 201300, Note_on_c, 1, 69, 91
3, 201348, Note_on_c, 1, 69, 0
3, 201360, Note_on_c, 1, 70, 91
3, 201408, Note_on_c, 1, 70, 0
3, 201420, Note_on_c, 1, 79, 91
3, 201468, Note_on_c, 1, 79, 0
3, 201480, Note_on_c, 1, 69, 91
3, 201528, Note_on_c, 1, 69, 0
3, 201540, Note_on_c, 1, 67, 91
3, 201588, Note_on_c, 1, 67, 0
3, 201600, Note_on_c, 1, 65, 91
3, 201744, Note_on_c, 1, 65, 0
3, 201780, Note_on_c, 1, 60, 92
3, 201828, Note_on_c, 1, 60, 0
3, 201840, Note_on_c, 1, 62, 92
3, 201888, Note_on_c, 1, 62, 0
3, 201900, Note_on_c, 1, 64, 92
3, 201948, Note_on_c, 1, 64, 0
3, 201960, Note_on_c, 1, 65, 93
3, 202008, Note_on_c, 1, 65, 0
3, 202020, Note_on_c, 1, 67, 93
3, 202068, Note_on_c, 1, 67, 0
3, 202080, Note_on_c, 1, 69, 93
3, 202128, Note_on_c, 1, 69, 0
3, 202140, Note_on_c, 1, 71, 93
3, 202188, Note_on_c, 1, 71, 0
3, 202200, Note_on_c, 1, 73, 93
3, 202248, Note_on_c, 1, 73, 0
3, 202260, Note_on_c, 1, 74, 93
3, 202308, Note_on_c, 1, 74, 0
3, 202320, Note_on_c, 1, 76, 94
3, 202368, Note_on_c, 1, 76, 0
3, 202380, Note_on_c, 1, 74, 94
3, 202428, Note_on_c, 1, 74, 0
3, 202440, Note_on_c, 1, 76, 94
3, 202488, Note_on_c, 1, 76, 0
3, 202500, Note_on_c, 1, 77, 94
3, 202548, Note_on_c, 1, 77, 0
3, 202560, Note_on_c, 1, 79, 94
3, 202656, Note_on_c, 1, 79, 0
3, 202680, Note_on_c, 1, 77, 95
3, 202776, Note_on_c, 1, 77, 0
3, 202800, Note_on_c, 1, 82, 95
3, 202896, Note_on_c, 1, 82, 0
3, 202920, Note_on_c, 1, 81, 95
3, 203016, Note_on_c, 1, 81, 0
3, 203040, Note_on_c, 1, 73, 96
3, 203136, Note_on_c, 1, 73, 0
3, 203160, Note_on_c, 1, 74, 96
3, 203256, Note_on_c, 1, 74, 0
3, 203280, Note_on_c, 1, 79, 96
3, 203328, Note_on_c, 1, 79, 0
3, 203340, Note_on_c, 1, 76, 97
3, 203388, Note_on_c, 1, 76, 0
3, 203400, Note_on_c, 1, 77, 97
3, 203496, Note_on_c, 1, 77, 0
3, 203880, Note_on_c, 1, 78, 98
3, 203928, Note_on_c, 1, 78, 0
3, 203940, Note_on_c, 1, 79, 98
3, 203988, Note_on_c, 1, 79, 0
3, 204000, Note_on_c, 1, 81, 99
3, 204096, Note_on_c, 1, 81, 0
3, 204120, Note_on_c, 1, 79, 99
3, 204216, Note_on_c, 1, 79, 0
3, 204240, Note_on_c, 1, 84, 99
3, 204336, Note_on_c, 1, 84, 0
3, 204360, Note_on_c, 1, 83, 100
3, 204456, Note_on_c, 1, 83, 0
3, 204480, Note_on_c, 1, 75, 100
3, 204576, Note_on_c, 1, 75, 0
3, 204600, Note_on_c, 1, 76, 100
3, 204696, Note_on_c, 1, 76, 0
3, 204720, Note_on_c, 1, 81, 101
3, 204768, Note_on_c, 1, 81, 0
3, 204780, Note_on_c, 1, 78, 101
3, 204828, Note_on_c, 1, 78, 0
3, 204840, Note_on_c, 1, 80, 101
3, 204872, Note_on_c, 1, 80, 0
3, 204880, Note_on_c, 1, 81, 101
3, 204912, Note_on_c, 1, 81, 0
3, 204920, Note_on_c, 1, 83, 101
3, 204952, Note_on_c, 1, 83, 0
3, 204960, Note_on_c, 1, 71, 101
3, 204992, Note_on_c, 1, 71, 0
3, 205000, Note_on_c, 1, 72, 101
3, 205032, Note_on_c, 1, 72, 0
3, 205040, Note_on_c, 1, 74, 102
3, 205072, Note_on_c, 1, 74, 0
3, 205080, Note_on_c, 1, 74, 102
3, 205112, Note_on_c, 1, 74, 0
3, 205120, Note_on_c, 1, 72, 102
3, 205152, Note_on_c, 1, 72, 0
3, 205160, Note_on_c, 1, 71, 102
3, 205192, Note_on_c, 1, 71, 0
3, 205200, Note_on_c, 1, 72, 102
3, 205296, Note_on_c, 1, 72, 0
3, 205560, Note_on_c, 1, 81, 103
3, 205592, Note_on_c, 1, 81, 0
3, 205600, Note_on_c, 1, 83, 103
3, 205632, Note_on_c, 1, 83, 0
3, 205640, Note_on_c, 1, 84, 103
3, 205672, Note_on_c, 1, 84, 0
3, 205680, Note_on_c, 1, 72, 103
3, 205712, Note_on_c, 1, 72, 0
3, 205720, Note_on_c, 1, 74, 104
3, 205752, Note_on_c, 1, 74, 0
3, 205760, Note_on_c, 1, 76, 104
3, 205792, Note_on_c, 1, 76, 0
3, 205800, Note_on_c, 1, 76, 104
3, 205832, Note_on_c, 1, 76, 0
3, 205840, Note_on_c, 1, 74, 104
3, 205872, Note_on_c, 1, 74, 0
3, 205880, Note_on_c, 1, 72, 104
3, 205912, Note_on_c, 1, 72, 0
3, 205920, Note_on_c, 1, 74, 104
3, 206016, Note_on_c, 1, 74, 0
3, 206280, Note_on_c, 1, 68, 105
3, 206312, Note_on_c, 1, 68, 0
3, 206320, Note_on_c, 1, 69, 105
3, 206352, Note_on_c, 1, 69, 0
3, 206360, Note_on_c, 1, 71, 105
3, 206392, Note_on_c, 1, 71, 0
3, 206400, Note_on_c, 1, 59, 106
3, 206432, Note_on_c, 1, 59, 0
3, 206440, Note_on_c, 1, 60, 106
3, 206472, Note_on_c, 1, 60, 0
3, 206480, Note_on_c, 1, 62, 106
3, 206512, Note_on_c, 1, 62, 0
3, 206520, Note_on_c, 1, 62, 106
3, 206552, Note_on_c, 1, 62, 0
3, 206560, Note_on_c, 1, 60, 106
3, 206592, Note_on_c, 1, 60, 0
3, 206600, Note_on_c, 1, 59, 106
3, 206632, Note_on_c, 1, 59, 0
3, 206640, Note_on_c, 1, 57, 106
3, 206688, Note_on_c, 1, 57, 0
3, 206700, Note_on_c, 1, 72, 106
3, 206748, Note_on_c, 1, 72, 0
3, 206760, Note_on_c, 1, 71, 107
3, 206808, Note_on_c, 1, 71, 0
3, 206820, Note_on_c, 1, 72, 107
3, 206868, Note_on_c, 1, 72, 0
3, 206880, Note_on_c, 1, 74, 107
3, 206928, Note_on_c, 1, 74, 0
3, 206940, Note_on_c, 1, 72, 107
3, 206988, Note_on_c, 1, 72, 0
3, 207000, Note_on_c, 1, 71, 107
3, 207048, Note_on_c, 1, 71, 0
3, 207060, Note_on_c, 1, 72, 107
3, 207108, Note_on_c, 1, 72, 0
3, 207120, Note_on_c, 1, 77, 108
3, 207216, Note_on_c, 1, 77, 0
3, 207240, Note_on_c, 1, 74, 108
3, 207336, Note_on_c, 1, 74, 0
3, 207360, Note_on_c, 1, 76, 108
3, 207408, Note_on_c, 1, 76, 0
3, 207420, Note_on_c, 1, 72, 109
3, 207468, Note_on_c, 1, 72, 0
3, 207480, Note_on_c, 1, 71, 109
3, 207528, Note_on_c, 1, 71, 0
3, 207540, Note_on_c, 1, 72, 109
3, 207588, Note_on_c, 1, 72, 0
3, 207600, Note_on_c, 1, 69, 109
3, 207648, Note_on_c, 1, 69, 0
3, 207660, Note_on_c, 1, 72, 109
3, 207708, Note_on_c, 1, 72, 0
3, 207720, Note_on_c, 1, 71, 109
3, 207768, Note_on_c, 1, 71, 0
3, 207780, Note_on_c, 1, 72, 110
3, 207828, Note_on_c, 1, 72, 0
3, 207840, Note_on_c, 1, 76, 110
3, 207936, Note_on_c, 1, 76, 0
3, 207960, Note_on_c, 1, 72, 110
3, 208056, Note_on_c, 1, 72, 0
3, 208080, Note_on_c, 1, 74, 110
3, 208128, Note_on_c, 1, 74, 0
3, 208140, Note_on_c, 1, 77, 111
3, 208188, Note_on_c, 1, 77, 0
3, 208200, Note_on_c, 1, 76, 111
3, 208248, Note_on_c, 1, 76, 0
3, 208260, Note_on_c, 1, 77, 111
3, 208308, Note_on_c, 1, 77, 0
3, 208320, Note_on_c, 1, 74, 111
3, 208368, Note_on_c, 1, 74, 0
3, 208380, Note_on_c, 1, 77, 111
3, 208428, Note_on_c, 1, 77, 0
3, 208440, Note_on_c, 1, 76, 112
3, 208488, Note_on_c, 1, 76, 0
3, 208500, Note_on_c, 1, 77, 112
3, 208548, Note_on_c, 1, 77, 0
3, 208560, Note_on_c, 1, 74, 112
3, 208656, Note_on_c, 1, 74, 0
3, 208680, Note_on_c, 1, 71, 109
3, 208776, Note_on_c, 1, 71, 0
3, 208800, Note_on_c, 1, 72, 108
3, 208896, Note_on_c, 1, 72, 0
3, 208920, Note_on_c, 1, 76, 107
3, 209016, Note_on_c, 1, 76, 0
3, 209040, Note_on_c, 1, 81, 106
3, 209136, Note_on_c, 1, 81, 0
3, 209160, Note_on_c, 1, 84, 105
3, 209256, Note_on_c, 1, 84, 0
3, 209280, Note_on_c, 1, 75, 104
3, 209424, Note_on_c, 1, 75, 0
3, 209460, Note_on_c, 1, 73, 103
3, 209484, Note_on_c, 1, 73, 0
3, 209490, Note_on_c, 1, 75, 103
3, 209514, Note_on_c, 1, 75, 0
3, 209520, Note_on_c, 1, 76, 102
3, 209616, Note_on_c, 1, 76, 0
3, 209640, Note_on_c, 1, 71, 102
3, 209736, Note_on_c, 1, 71, 0
3, 209760, Note_on_c, 1, 72, 101
3, 209856, Note_on_c, 1, 72, 0
3, 209880, Note_on_c, 1, 69, 100
3, 209976, Note_on_c, 1, 69, 0
3, 210000, Note_on_c, 1, 64, 99
3, 210096, Note_on_c, 1, 64, 0
3, 210120, Note_on_c, 1, 68, 98
3, 210216, Note_on_c, 1, 68, 0
3, 210240, Note_on_c, 1, 69, 97
3, 210432, Note_on_c, 1, 69, 0
3, 211080, Note_on_c, 1, 73, 86
3, 211176, Note_on_c, 1, 73, 0
3, 211200, Note_on_c, 1, 76, 87
3, 211296, Note_on_c, 1, 76, 0
3, 211320, Note_on_c, 1, 79, 89
3, 211416, Note_on_c, 1, 79, 0
3, 211440, Note_on_c, 1, 82, 90
3, 211536, Note_on_c, 1, 82, 0
3, 211560, Note_on_c, 1, 81, 92
3, 211656, Note_on_c, 1, 81, 0
3, 211680, Note_on_c, 1, 74, 93
3, 212496, Note_on_c, 1, 74, 0
3, 212520, Note_on_c, 1, 72, 104
3, 212616, Note_on_c, 1, 72, 0
3, 212640, Note_on_c, 1, 66, 103
3, 212736, Note_on_c, 1, 66, 0
3, 212760, Note_on_c, 1, 69, 97
3, 212856, Note_on_c, 1, 69, 0
3, 212880, Note_on_c, 1, 63, 91
3, 212976, Note_on_c, 1, 63, 0
3, 213000, Note_on_c, 1, 62, 86
3, 213096, Note_on_c, 1, 62, 0
3, 213120, Note_on_c, 1, 62, 80
3, 213168, Note_on_c, 1, 62, 0
3, 213180, Note_on_c, 1, 74, 77
3, 213228, Note_on_c, 1, 74, 0
3, 213240, Note_on_c, 1, 79, 76
3, 213288, Note_on_c, 1, 79, 0
3, 213300, Note_on_c, 1, 81, 76
3, 213348, Note_on_c, 1, 81, 0
3, 213360, Note_on_c, 1, 82, 76
3, 213408, Note_on_c, 1, 82, 0
3, 213420, Note_on_c, 1, 79, 76
3, 213468, Note_on_c, 1, 79, 0
3, 213480, Note_on_c, 1, 74, 76
3, 213528, Note_on_c, 1, 74, 0
3, 213540, Note_on_c, 1, 79, 76
3, 213588, Note_on_c, 1, 79, 0
3, 213600, Note_on_c, 1, 70, 76
3, 213648, Note_on_c, 1, 70, 0
3, 213660, Note_on_c, 1, 74, 76
3, 213708, Note_on_c, 1, 74, 0
3, 213720, Note_on_c, 1, 67, 76
3, 213768, Note_on_c, 1, 67, 0
3, 213780, Note_on_c, 1, 74, 76
3, 213828, Note_on_c, 1, 74, 0
3, 213840, Note_on_c, 1, 65, 76
3, 213888, Note_on_c, 1, 65, 0
3, 213900, Note_on_c, 1, 74, 76
3, 213948, Note_on_c, 1, 74, 0
3, 213960, Note_on_c, 1, 77, 76
3, 214008, Note_on_c, 1, 77, 0
3, 214020, Note_on_c, 1, 81, 76
3, 214068, Note_on_c, 1, 81, 0
3, 214080, Note_on_c, 1, 83, 76
3, 214128, Note_on_c, 1, 83, 0
3, 214140, Note_on_c, 1, 79, 76
3, 214188, Note_on_c, 1, 79, 0
3, 214200, Note_on_c, 1, 74, 76
3, 214248, Note_on_c, 1, 74, 0
3, 214260, Note_on_c, 1, 79, 76
3, 214308, Note_on_c, 1, 79, 0
3, 214320, Note_on_c, 1, 71, 76
3, 214368, Note_on_c, 1, 71, 0
3, 214380, Note_on_c, 1, 74, 76
3, 214428, Note_on_c, 1, 74, 0
3, 214440, Note_on_c, 1, 65, 76
3, 214488, Note_on_c, 1, 65, 0
3, 214500, Note_on_c, 1, 74, 76
3, 214548, Note_on_c, 1, 74, 0
3, 214560, Note_on_c, 1, 64, 76
3, 214608, Note_on_c, 1, 64, 0
3, 214620, Note_on_c, 1, 72, 76
3, 214668, Note_on_c, 1, 72, 0
3, 214680, Note_on_c, 1, 79, 76
3, 214728, Note_on_c, 1, 79, 0
3, 214740, Note_on_c, 1, 83, 76
3, 214788, Note_on_c, 1, 83, 0
3, 214800, Note_on_c, 1, 84, 76
3, 214848, Note_on_c, 1, 84, 0
3, 214860, Note_on_c, 1, 81, 76
3, 214908, Note_on_c, 1, 81, 0
3, 214920, Note_on_c, 1, 77, 76
3, 214968, Note_on_c, 1, 77, 0
3, 214980, Note_on_c, 1, 81, 76
3, 215028, Note_on_c, 1, 81, 0
3, 215040, Note_on_c, 1, 72, 76
3, 215088, Note_on_c, 1, 72, 0
3, 215100, Note_on_c, 1, 77, 76
3, 215148, Note_on_c, 1, 77, 0
3, 215160, Note_on_c, 1, 69, 76
3, 215208, Note_on_c, 1, 69, 0
3, 215220, Note_on_c, 1, 72, 76
3, 215268, Note_on_c, 1, 72, 0
3, 215280, Note_on_c, 1, 64, 76
3, 215328, Note_on_c, 1, 64, 0
3, 215340, Note_on_c, 1, 72, 76
3, 215388, Note_on_c, 1, 72, 0
3, 215400, Note_on_c, 1, 79, 76
3, 215448, Note_on_c, 1, 79, 0
3, 215460, Note_on_c, 1, 81, 76
3, 215508, Note_on_c, 1, 81, 0
3, 215520, Note_on_c, 1, 82, 76
3, 215568, Note_on_c, 1, 82, 0
3, 215580, Note_on_c, 1, 79, 76
3, 215628, Note_on_c, 1, 79, 0
3, 215640, Note_on_c, 1, 76, 76
3, 215688, Note_on_c, 1, 76, 0
3, 215700, Note_on_c, 1, 79, 76
3, 215748, Note_on_c, 1, 79, 0
3, 215760, Note_on_c, 1, 70, 76
3, 215808, Note_on_c, 1, 70, 0
3, 215820, Note_on_c, 1, 76, 76
3, 215868, Note_on_c, 1, 76, 0
3, 215880, Note_on_c, 1, 67, 76
3, 215928, Note_on_c, 1, 67, 0
3, 215940, Note_on_c, 1, 70, 78
3, 215988, Note_on_c, 1, 70, 0
3, 216000, Note_on_c, 1, 69, 77
3, 216096, Note_on_c, 1, 69, 0
3, 216120, Note_on_c, 1, 70, 77
3, 216216, Note_on_c, 1, 70, 0
3, 216240, Note_on_c, 1, 69, 78
3, 216336, Note_on_c, 1, 69, 0
3, 216360, Note_on_c, 1, 67, 78
3, 216456, Note_on_c, 1, 67, 0
3, 216480, Note_on_c, 1, 65, 79
3, 216576, Note_on_c, 1, 65, 0
3, 216600, Note_on_c, 1, 67, 79
3, 216648, Note_on_c, 1, 67, 0
3, 216660, Note_on_c, 1, 69, 79
3, 216708, Note_on_c, 1, 69, 0
3, 216720, Note_on_c, 1, 70, 80
3, 217008, Note_on_c, 1, 70, 0
3, 217080, Note_on_c, 1, 67, 81
3, 217176, Note_on_c, 1, 67, 0
3, 217200, Note_on_c, 1, 64, 82
3, 217392, Note_on_c, 1, 64, 0
3, 217440, Note_on_c, 1, 62, 83
3, 217536, Note_on_c, 1, 62, 0
3, 217560, Note_on_c, 1, 74, 84
3, 217752, Note_on_c, 1, 74, 0
3, 217800, Note_on_c, 1, 72, 85
3, 217896, Note_on_c, 1, 72, 0
3, 217920, Note_on_c, 1, 70, 85
3, 218256, Note_on_c, 1, 70, 0
3, 218280, Note_on_c, 1, 79, 87
3, 218376, Note_on_c, 1, 79, 0
3, 218400, Note_on_c, 1, 69, 87
3, 218496, Note_on_c, 1, 69, 0
3, 218520, Note_on_c, 1, 70, 88
3, 218616, Note_on_c, 1, 70, 0
3, 218640, Note_on_c, 1, 75, 89
3, 218736, Note_on_c, 1, 75, 0
3, 218760, Note_on_c, 1, 74, 89
3, 218808, Note_on_c, 1, 74, 0
3, 218820, Note_on_c, 1, 72, 89
3, 218868, Note_on_c, 1, 72, 0
3, 218880, Note_on_c, 1, 74, 90
3, 218976, Note_on_c, 1, 74, 0
3, 219000, Note_on_c, 1, 75, 90
3, 219096, Note_on_c, 1, 75, 0
3, 219120, Note_on_c, 1, 74, 91
3, 219216, Note_on_c, 1, 74, 0
3, 219240, Note_on_c, 1, 72, 91
3, 219336, Note_on_c, 1, 72, 0
3, 219360, Note_on_c, 1, 70, 92
3, 219456, Note_on_c, 1, 70, 0
3, 219480, Note_on_c, 1, 72, 92
3, 219528, Note_on_c, 1, 72, 0
3, 219540, Note_on_c, 1, 74, 93
3, 219588, Note_on_c, 1, 74, 0
3, 219600, Note_on_c, 1, 75, 93
3, 219888, Note_on_c, 1, 75, 0
3, 219960, Note_on_c, 1, 72, 95
3, 220056, Note_on_c, 1, 72, 0
3, 220080, Note_on_c, 1, 69, 95
3, 220272, Note_on_c, 1, 69, 0
3, 220320, Note_on_c, 1, 67, 95
3, 220416, Note_on_c, 1, 67, 0
3, 220440, Note_on_c, 1, 79, 95
3, 220488, Note_on_c, 1, 79, 0
3, 220500, Note_on_c, 1, 78, 95
3, 220548, Note_on_c, 1, 78, 0
3, 220560, Note_on_c, 1, 79, 95
3, 220608, Note_on_c, 1, 79, 0
3, 220620, Note_on_c, 1, 74, 95
3, 220668, Note_on_c, 1, 74, 0
3, 220680, Note_on_c, 1, 75, 95
3, 220728, Note_on_c, 1, 75, 0
3, 220740, Note_on_c, 1, 72, 95
3, 220788, Note_on_c, 1, 72, 0
3, 220800, Note_on_c, 1, 74, 95
3, 220848, Note_on_c, 1, 74, 0
3, 220860, Note_on_c, 1, 70, 95
3, 220908, Note_on_c, 1, 70, 0
3, 220920, Note_on_c, 1, 72, 95
3, 220968, Note_on_c, 1, 72, 0
3, 220980, Note_on_c, 1, 69, 95
3, 221028, Note_on_c, 1, 69, 0
3, 221040, Note_on_c, 1, 70, 95
3, 221088, Note_on_c, 1, 70, 0
3, 221100, Note_on_c, 1, 67, 95
3, 221148, Note_on_c, 1, 67, 0
3, 221160, Note_on_c, 1, 69, 95
3, 221208, Note_on_c, 1, 69, 0
3, 221220, Note_on_c, 1, 66, 95
3, 221268, Note_on_c, 1, 66, 0
3, 221280, Note_on_c, 1, 67, 95
3, 221328, Note_on_c, 1, 67, 0
3, 221340, Note_on_c, 1, 70, 95
3, 221388, Note_on_c, 1, 70, 0
3, 221400, Note_on_c, 1, 69, 95
3, 221448, Note_on_c, 1, 69, 0
3, 221460, Note_on_c, 1, 72, 95
3, 221508, Note_on_c, 1, 72, 0
3, 221520, Note_on_c, 1, 70, 95
3, 221616, Note_on_c, 1, 70, 0
3, 221640, Note_on_c, 1, 72, 95
3, 221736, Note_on_c, 1, 72, 0
3, 221760, Note_on_c, 1, 74, 95
3, 221856, Note_on_c, 1, 74, 0
3, 221880, Note_on_c, 1, 76, 95
3, 221928, Note_on_c, 1, 76, 0
3, 221940, Note_on_c, 1, 78, 95
3, 221988, Note_on_c, 1, 78, 0
3, 222000, Note_on_c, 1, 79, 95
3, 222048, Note_on_c, 1, 79, 0
3, 222060, Note_on_c, 1, 78, 95
3, 222108, Note_on_c, 1, 78, 0
3, 222120, Note_on_c, 1, 79, 95
3, 222168, Note_on_c, 1, 79, 0
3, 222180, Note_on_c, 1, 78, 95
3, 222228, Note_on_c, 1, 78, 0
3, 222240, Note_on_c, 1, 79, 95
3, 222336, Note_on_c, 1, 79, 0
3, 222360, Note_on_c, 1, 79, 95
3, 222576, Note_on_c, 1, 79, 0
3, 222600, Note_on_c, 1, 78, 95
3, 222696, Note_on_c, 1, 78, 0
3, 223320, Note_on_c, 1, 74, 90
3, 223368, Note_on_c, 1, 74, 0
3, 223380, Note_on_c, 1, 75, 90
3, 223428, Note_on_c, 1, 75, 0
3, 223440, Note_on_c, 1, 77, 90
3, 223536, Note_on_c, 1, 77, 0
3, 223560, Note_on_c, 1, 75, 90
3, 223656, Note_on_c, 1, 75, 0
3, 223680, Note_on_c, 1, 80, 90
3, 223776, Note_on_c, 1, 80, 0
3, 223800, Note_on_c, 1, 79, 90
3, 223896, Note_on_c, 1, 79, 0
3, 223920, Note_on_c, 1, 71, 90
3, 224016, Note_on_c, 1, 71, 0
3, 224040, Note_on_c, 1, 72, 90
3, 224136, Note_on_c, 1, 72, 0
3, 224160, Note_on_c, 1, 77, 90
3, 224208, Note_on_c, 1, 77, 0
3, 224220, Note_on_c, 1, 74, 90
3, 224268, Note_on_c, 1, 74, 0
3, 224280, Note_on_c, 1, 75, 90
3, 224376, Note_on_c, 1, 75, 0
3, 224760, Note_on_c, 1, 76, 79
3, 224808, Note_on_c, 1, 76, 0
3, 224820, Note_on_c, 1, 77, 80
3, 224868, Note_on_c, 1, 77, 0
3, 224880, Note_on_c, 1, 79, 84
3, 224976, Note_on_c, 1, 79, 0
3, 225000, Note_on_c, 1, 77, 86
3, 225096, Note_on_c, 1, 77, 0
3, 225120, Note_on_c, 1, 82, 88
3, 225216, Note_on_c, 1, 82, 0
3, 225240, Note_on_c, 1, 81, 90
3, 225336, Note_on_c, 1, 81, 0
3, 225360, Note_on_c, 1, 73, 92
3, 225456, Note_on_c, 1, 73, 0
3, 225480, Note_on_c, 1, 74, 94
3, 225576, Note_on_c, 1, 74, 0
3, 225600, Note_on_c, 1, 79, 96
3, 225648, Note_on_c, 1, 79, 0
3, 225660, Note_on_c, 1, 76, 97
3, 225708, Note_on_c, 1, 76, 0
3, 225720, Note_on_c, 1, 78, 98
3, 225816, Note_on_c, 1, 78, 0
3, 226200, Note_on_c, 1, 86, 99
3, 226248, Note_on_c, 1, 86, 0
3, 226260, Note_on_c, 1, 85, 99
3, 226308, Note_on_c, 1, 85, 0
3, 226320, Note_on_c, 1, 86, 99
3, 226368, Note_on_c, 1, 86, 0
3, 226380, Note_on_c, 1, 81, 99
3, 226428, Note_on_c, 1, 81, 0
3, 226440, Note_on_c, 1, 82, 99
3, 226488, Note_on_c, 1, 82, 0
3, 226500, Note_on_c, 1, 79, 99
3, 226548, Note_on_c, 1, 79, 0
3, 226560, Note_on_c, 1, 81, 99
3, 226608, Note_on_c, 1, 81, 0
3, 226620, Note_on_c, 1, 78, 99
3, 226668, Note_on_c, 1, 78, 0
3, 226680, Note_on_c, 1, 74, 99
3, 226776, Note_on_c, 1, 74, 0
3, 226920, Note_on_c, 1, 86, 99
3, 226968, Note_on_c, 1, 86, 0
3, 226980, Note_on_c, 1, 82, 99
3, 227028, Note_on_c, 1, 82, 0
3, 227040, Note_on_c, 1, 84, 99
3, 227088, Note_on_c, 1, 84, 0
3, 227100, Note_on_c, 1, 81, 99
3, 227148, Note_on_c, 1, 81, 0
3, 227160, Note_on_c, 1, 82, 99
3, 227208, Note_on_c, 1, 82, 0
3, 227220, Note_on_c, 1, 79, 99
3, 227268, Note_on_c, 1, 79, 0
3, 227280, Note_on_c, 1, 81, 99
3, 227328, Note_on_c, 1, 81, 0
3, 227340, Note_on_c, 1, 78, 99
3, 227388, Note_on_c, 1, 78, 0
3, 227400, Note_on_c, 1, 74, 99
3, 227496, Note_on_c, 1, 74, 0
3, 227640, Note_on_c, 1, 74, 90
3, 227688, Note_on_c, 1, 74, 0
3, 227700, Note_on_c, 1, 72, 90
3, 227748, Note_on_c, 1, 72, 0
3, 227760, Note_on_c, 1, 74, 90
3, 227856, Note_on_c, 1, 74, 0
3, 227880, Note_on_c, 1, 82, 90
3, 227976, Note_on_c, 1, 82, 0
3, 228000, Note_on_c, 1, 78, 90
3, 228096, Note_on_c, 1, 78, 0
3, 228120, Note_on_c, 1, 79, 90
3, 228216, Note_on_c, 1, 79, 0
3, 228360, Note_on_c, 1, 72, 90
3, 228408, Note_on_c, 1, 72, 0
3, 228420, Note_on_c, 1, 70, 90
3, 228468, Note_on_c, 1, 70, 0
3, 228480, Note_on_c, 1, 72, 90
3, 228576, Note_on_c, 1, 72, 0
3, 228600, Note_on_c, 1, 81, 90
3, 228780, Note_on_c, 1, 81, 0
3, 228780, Note_on_c, 1, 79, 90
3, 228828, Note_on_c, 1, 79, 0
3, 228840, Note_on_c, 1, 78, 90
3, 228888, Note_on_c, 1, 78, 0
3, 228900, Note_on_c, 1, 79, 90
3, 228948, Note_on_c, 1, 79, 0
3, 228960, Note_on_c, 1, 81, 90
3, 229008, Note_on_c, 1, 81, 0
3, 229020, Note_on_c, 1, 79, 90
3, 229068, Note_on_c, 1, 79, 0
3, 229080, Note_on_c, 1, 78, 90
3, 229128, Note_on_c, 1, 78, 0
3, 229140, Note_on_c, 1, 76, 90
3, 229188, Note_on_c, 1, 76, 0
3, 229200, Note_on_c, 1, 74, 90
3, 229248, Note_on_c, 1, 74, 0
3, 229260, Note_on_c, 1, 72, 90
3, 229308, Note_on_c, 1, 72, 0
3, 229320, Note_on_c, 1, 75, 90
3, 229560, Note_on_c, 1, 75, 0
3, 229560, Note_on_c, 1, 74, 90
3, 229728, Note_on_c, 1, 74, 0
3, 229740, Note_on_c, 1, 72, 86
3, 229788, Note_on_c, 1, 72, 0
3, 229800, Note_on_c, 1, 70, 86
3, 229848, Note_on_c, 1, 70, 0
3, 229860, Note_on_c, 1, 69, 86
3, 229908, Note_on_c, 1, 69, 0
3, 229920, Note_on_c, 1, 70, 86
3, 229968, Note_on_c, 1, 70, 0
3, 229980, Note_on_c, 1, 67, 86
3, 230028, Note_on_c, 1, 67, 0
3, 230040, Note_on_c, 1, 69, 86
3, 230088, Note_on_c, 1, 69, 0
3, 230100, Note_on_c, 1, 66, 86
3, 230148, Note_on_c, 1, 66, 0
3, 230160, Note_on_c, 1, 67, 86
3, 230208, Note_on_c, 1, 67, 0
3, 230220, Note_on_c, 1, 62, 86
3, 230268, Note_on_c, 1, 62, 0
3, 230280, Note_on_c, 1, 67, 86
3, 230328, Note_on_c, 1, 67, 0
3, 230340, Note_on_c, 1, 66, 85
3, 230388, Note_on_c, 1, 66, 0
3, 230400, Note_on_c, 1, 67, 82
3, 230448, Note_on_c, 1, 67, 0
3, 230460, Note_on_c, 1, 62, 81
3, 230508, Note_on_c, 1, 62, 0
3, 230520, Note_on_c, 1, 70, 79
3, 230568, Note_on_c, 1, 70, 0
3, 230580, Note_on_c, 1, 69, 78
3, 230628, Note_on_c, 1, 69, 0
3, 230640, Note_on_c, 1, 70, 77
3, 230688, Note_on_c, 1, 70, 0
3, 230700, Note_on_c, 1, 67, 76
3, 230748, Note_on_c, 1, 67, 0
3, 230760, Note_on_c, 1, 74, 76
3, 230808, Note_on_c, 1, 74, 0
3, 230820, Note_on_c, 1, 67, 74
3, 230868, Note_on_c, 1, 67, 0
3, 230880, Note_on_c, 1, 72, 71
3, 230928, Note_on_c, 1, 72, 0
3, 230940, Note_on_c, 1, 69, 71
3, 230988, Note_on_c, 1, 69, 0
3, 231000, Note_on_c, 1, 70, 71
3, 231048, Note_on_c, 1, 70, 0
3, 231060, Note_on_c, 1, 67, 71
3, 231108, Note_on_c, 1, 67, 0
3, 231120, Note_on_c, 1, 66, 71
3, 231168, Note_on_c, 1, 66, 0
3, 231180, Note_on_c, 1, 74, 71
3, 231228, Note_on_c, 1, 74, 0
3, 231240, Note_on_c, 1, 81, 71
3, 231288, Note_on_c, 1, 81, 0
3, 231300, Note_on_c, 1, 79, 71
3, 231348, Note_on_c, 1, 79, 0
3, 231360, Note_on_c, 1, 81, 71
3, 231408, Note_on_c, 1, 81, 0
3, 231420, Note_on_c, 1, 74, 71
3, 231468, Note_on_c, 1, 74, 0
3, 231480, Note_on_c, 1, 84, 71
3, 231528, Note_on_c, 1, 84, 0
3, 231540, Note_on_c, 1, 82, 71
3, 231588, Note_on_c, 1, 82, 0
3, 231600, Note_on_c, 1, 84, 71
3, 231648, Note_on_c, 1, 84, 0
3, 231660, Note_on_c, 1, 81, 71
3, 231708, Note_on_c, 1, 81, 0
3, 231720, Note_on_c, 1, 86, 71
3, 231768, Note_on_c, 1, 86, 0
3, 231780, Note_on_c, 1, 82, 71
3, 231828, Note_on_c, 1, 82, 0
3, 231840, Note_on_c, 1, 84, 71
3, 231936, Note_on_c, 1, 84, 0
3, 231960, Note_on_c, 1, 62, 70
3, 232140, Note_on_c, 1, 62, 0
3, 232140, Note_on_c, 1, 64, 69
3, 232188, Note_on_c, 1, 64, 0
3, 232200, Note_on_c, 1, 66, 69
3, 232248, Note_on_c, 1, 66, 0
3, 232260, Note_on_c, 1, 67, 70
3, 232308, Note_on_c, 1, 67, 0
3, 232320, Note_on_c, 1, 69, 70
3, 232368, Note_on_c, 1, 69, 0
3, 232380, Note_on_c, 1, 70, 71
3, 232428, Note_on_c, 1, 70, 0
3, 232440, Note_on_c, 1, 72, 72
3, 232488, Note_on_c, 1, 72, 0
3, 232500, Note_on_c, 1, 69, 72
3, 232548, Note_on_c, 1, 69, 0
3, 232560, Note_on_c, 1, 70, 73
3, 232608, Note_on_c, 1, 70, 0
3, 232620, Note_on_c, 1, 75, 73
3, 232668, Note_on_c, 1, 75, 0
3, 232680, Note_on_c, 1, 74, 74
3, 232728, Note_on_c, 1, 74, 0
3, 232740, Note_on_c, 1, 72, 75
3, 232788, Note_on_c, 1, 72, 0
3, 232800, Note_on_c, 1, 74, 75
3, 232848, Note_on_c, 1, 74, 0
3, 232860, Note_on_c, 1, 70, 76
3, 232908, Note_on_c, 1, 70, 0
3, 232920, Note_on_c, 1, 72, 77
3, 232968, Note_on_c, 1, 72, 0
3, 232980, Note_on_c, 1, 69, 77
3, 233028, Note_on_c, 1, 69, 0
3, 233040, Note_on_c, 1, 70, 78
3, 233088, Note_on_c, 1, 70, 0
3, 233100, Note_on_c, 1, 74, 78
3, 233148, Note_on_c, 1, 74, 0
3, 233160, Note_on_c, 1, 70, 79
3, 233208, Note_on_c, 1, 70, 0
3, 233220, Note_on_c, 1, 69, 80
3, 233268, Note_on_c, 1, 69, 0
3, 233280, Note_on_c, 1, 70, 80
3, 233328, Note_on_c, 1, 70, 0
3, 233340, Note_on_c, 1, 74, 81
3, 233388, Note_on_c, 1, 74, 0
3, 233400, Note_on_c, 1, 67, 80
3, 233448, Note_on_c, 1, 67, 0
3, 233460, Note_on_c, 1, 66, 79
3, 233508, Note_on_c, 1, 66, 0
3, 233520, Note_on_c, 1, 67, 79
3, 233568, Note_on_c, 1, 67, 0
3, 233580, Note_on_c, 1, 74, 78
3, 233628, Note_on_c, 1, 74, 0
3, 233640, Note_on_c, 1, 65, 77
3, 233688, Note_on_c, 1, 65, 0
3, 233700, Note_on_c, 1, 63, 76
3, 233748, Note_on_c, 1, 63, 0
3, 233760, Note_on_c, 1, 65, 76
3, 233808, Note_on_c, 1, 65, 0
3, 233820, Note_on_c, 1, 74, 75
3, 233868, Note_on_c, 1, 74, 0
3, 233880, Note_on_c, 1, 64, 74
3, 233928, Note_on_c, 1, 64, 0
3, 233940, Note_on_c, 1, 62, 73
3, 233988, Note_on_c, 1, 62, 0
3, 234000, Note_on_c, 1, 60, 73
3, 234048, Note_on_c, 1, 60, 0
3, 234060, Note_on_c, 1, 55, 74
3, 234108, Note_on_c, 1, 55, 0
3, 234120, Note_on_c, 1, 63, 74
3, 234168, Note_on_c, 1, 63, 0
3, 234180, Note_on_c, 1, 62, 75
3, 234228, Note_on_c, 1, 62, 0
3, 234240, Note_on_c, 1, 64, 75
3, 234288, Note_on_c, 1, 64, 0
3, 234300, Note_on_c, 1, 60, 76
3, 234348, Note_on_c, 1, 60, 0
3, 234360, Note_on_c, 1, 67, 76
3, 234408, Note_on_c, 1, 67, 0
3, 234420, Note_on_c, 1, 65, 77
3, 234468, Note_on_c, 1, 65, 0
3, 234480, Note_on_c, 1, 67, 78
3, 234528, Note_on_c, 1, 67, 0
3, 234540, Note_on_c, 1, 64, 78
3, 234588, Note_on_c, 1, 64, 0
3, 234600, Note_on_c, 1, 69, 79
3, 234648, Note_on_c, 1, 69, 0
3, 234660, Note_on_c, 1, 71, 79
3, 234708, Note_on_c, 1, 71, 0
3, 234720, Note_on_c, 1, 73, 80
3, 234768, Note_on_c, 1, 73, 0
3, 234780, Note_on_c, 1, 76, 80
3, 234828, Note_on_c, 1, 76, 0
3, 234840, Note_on_c, 1, 69, 81
3, 234888, Note_on_c, 1, 69, 0
3, 234900, Note_on_c, 1, 68, 81
3, 234948, Note_on_c, 1, 68, 0
3, 234960, Note_on_c, 1, 69, 82
3, 235008, Note_on_c, 1, 69, 0
3, 235020, Note_on_c, 1, 76, 82
3, 235068, Note_on_c, 1, 76, 0
3, 235080, Note_on_c, 1, 67, 83
3, 235128, Note_on_c, 1, 67, 0
3, 235140, Note_on_c, 1, 65, 83
3, 235188, Note_on_c, 1, 65, 0
3, 235200, Note_on_c, 1, 67, 84
3, 235248, Note_on_c, 1, 67, 0
3, 235260, Note_on_c, 1, 76, 84
3, 235308, Note_on_c, 1, 76, 0
3, 235320, Note_on_c, 1, 65, 85
3, 235368, Note_on_c, 1, 65, 0
3, 235380, Note_on_c, 1, 64, 86
3, 235428, Note_on_c, 1, 64, 0
3, 235440, Note_on_c, 1, 62, 86
3, 235488, Note_on_c, 1, 62, 0
3, 235500, Note_on_c, 1, 57, 87
3, 235548, Note_on_c, 1, 57, 0
3, 235560, Note_on_c, 1, 65, 87
3, 235608, Note_on_c, 1, 65, 0
3, 235620, Note_on_c, 1, 64, 88
3, 235668, Note_on_c, 1, 64, 0
3, 235680, Note_on_c, 1, 65, 88
3, 235728, Note_on_c, 1, 65, 0
3, 235740, Note_on_c, 1, 62, 89
3, 235788, Note_on_c, 1, 62, 0
3, 235800, Note_on_c, 1, 71, 89
3, 235848, Note_on_c, 1, 71, 0
3, 235860, Note_on_c, 1, 69, 90
3, 235908, Note_on_c, 1, 69, 0
3, 235920, Note_on_c, 1, 71, 90
3, 235968, Note_on_c, 1, 71, 0
3, 235980, Note_on_c, 1, 64, 91
3, 236028, Note_on_c, 1, 64, 0
3, 236040, Note_on_c, 1, 69, 91
3, 236088, Note_on_c, 1, 69, 0
3, 236100, Note_on_c, 1, 71, 92
3, 236148, Note_on_c, 1, 71, 0
3, 236160, Note_on_c, 1, 72, 90
3, 236208, Note_on_c, 1, 72, 0
3, 236220, Note_on_c, 1, 64, 90
3, 236268, Note_on_c, 1, 64, 0
3, 236280, Note_on_c, 1, 69, 90
3, 236328, Note_on_c, 1, 69, 0
3, 236340, Note_on_c, 1, 72, 90
3, 236388, Note_on_c, 1, 72, 0
3, 236400, Note_on_c, 1, 65, 90
3, 236496, Note_on_c, 1, 65, 0
3, 236520, Note_on_c, 1, 77, 90
3, 236700, Note_on_c, 1, 77, 0
3, 236700, Note_on_c, 1, 74, 90
3, 236748, Note_on_c, 1, 74, 0
3, 236760, Note_on_c, 1, 76, 90
3, 236808, Note_on_c, 1, 76, 0
3, 236820, Note_on_c, 1, 73, 90
3, 236868, Note_on_c, 1, 73, 0
3, 236880, Note_on_c, 1, 74, 90
3, 236928, Note_on_c, 1, 74, 0
3, 236940, Note_on_c, 1, 65, 90
3, 236988, Note_on_c, 1, 65, 0
3, 237000, Note_on_c, 1, 70, 90
3, 237048, Note_on_c, 1, 70, 0
3, 237060, Note_on_c, 1, 74, 90
3, 237108, Note_on_c, 1, 74, 0
3, 237120, Note_on_c, 1, 67, 90
3, 237216, Note_on_c, 1, 67, 0
3, 237240, Note_on_c, 1, 79, 90
3, 237420, Note_on_c, 1, 79, 0
3, 237420, Note_on_c, 1, 76, 90
3, 237468, Note_on_c, 1, 76, 0
3, 237480, Note_on_c, 1, 77, 90
3, 237528, Note_on_c, 1, 77, 0
3, 237540, Note_on_c, 1, 74, 90
3, 237588, Note_on_c, 1, 74, 0
3, 237600, Note_on_c, 1, 76, 90
3, 237648, Note_on_c, 1, 76, 0
3, 237660, Note_on_c, 1, 67, 90
3, 237708, Note_on_c, 1, 67, 0
3, 237720, Note_on_c, 1, 72, 90
3, 237768, Note_on_c, 1, 72, 0
3, 237780, Note_on_c, 1, 76, 90
3, 237828, Note_on_c, 1, 76, 0
3, 237840, Note_on_c, 1, 69, 90
3, 237936, Note_on_c, 1, 69, 0
3, 237960, Note_on_c, 1, 81, 89
3, 238140, Note_on_c, 1, 81, 0
3, 238140, Note_on_c, 1, 77, 85
3, 238188, Note_on_c, 1, 77, 0
3, 238200, Note_on_c, 1, 79, 84
3, 238248, Note_on_c, 1, 79, 0
3, 238260, Note_on_c, 1, 76, 83
3, 238308, Note_on_c, 1, 76, 0
3, 238320, Note_on_c, 1, 77, 82
3, 238512, Note_on_c, 1, 77, 0
3, 239160, Note_on_c, 1, 78, 85
3, 239256, Note_on_c, 1, 78, 0
3, 239280, Note_on_c, 1, 81, 86
3, 239376, Note_on_c, 1, 81, 0
3, 239400, Note_on_c, 1, 84, 87
3, 239496, Note_on_c, 1, 84, 0
3, 239520, Note_on_c, 1, 87, 88
3, 239616, Note_on_c, 1, 87, 0
3, 239640, Note_on_c, 1, 86, 89
3, 239736, Note_on_c, 1, 86, 0
3, 239760, Note_on_c, 1, 79, 91
3, 240576, Note_on_c, 1, 79, 0
3, 240600, Note_on_c, 1, 77, 99
3, 240696, Note_on_c, 1, 77, 0
3, 240720, Note_on_c, 1, 71, 94
3, 240816, Note_on_c, 1, 71, 0
3, 240840, Note_on_c, 1, 74, 92
3, 240936, Note_on_c, 1, 74, 0
3, 240960, Note_on_c, 1, 68, 90
3, 241056, Note_on_c, 1, 68, 0
3, 241080, Note_on_c, 1, 67, 88
3, 241248, Note_on_c, 1, 67, 0
3, 241260, Note_on_c, 1, 67, 85
3, 241308, Note_on_c, 1, 67, 0
3, 241320, Note_on_c, 1, 72, 84
3, 241368, Note_on_c, 1, 72, 0
3, 241380, Note_on_c, 1, 74, 83
3, 241428, Note_on_c, 1, 74, 0
3, 241440, Note_on_c, 1, 75, 82
3, 241488, Note_on_c, 1, 75, 0
3, 241500, Note_on_c, 1, 72, 81
3, 241548, Note_on_c, 1, 72, 0
3, 241560, Note_on_c, 1, 67, 80
3, 241608, Note_on_c, 1, 67, 0
3, 241620, Note_on_c, 1, 72, 79
3, 241668, Note_on_c, 1, 72, 0
3, 241680, Note_on_c, 1, 63, 78
3, 241728, Note_on_c, 1, 63, 0
3, 241740, Note_on_c, 1, 67, 77
3, 241788, Note_on_c, 1, 67, 0
3, 241800, Note_on_c, 1, 60, 76
3, 241848, Note_on_c, 1, 60, 0
3, 241860, Note_on_c, 1, 67, 75
3, 241908, Note_on_c, 1, 67, 0
3, 241920, Note_on_c, 1, 58, 74
3, 241968, Note_on_c, 1, 58, 0
3, 241980, Note_on_c, 1, 67, 72
3, 242028, Note_on_c, 1, 67, 0
3, 242040, Note_on_c, 1, 72, 70
3, 242088, Note_on_c, 1, 72, 0
3, 242100, Note_on_c, 1, 74, 70
3, 242148, Note_on_c, 1, 74, 0
3, 242160, Note_on_c, 1, 76, 70
3, 242208, Note_on_c, 1, 76, 0
3, 242220, Note_on_c, 1, 72, 70
3, 242268, Note_on_c, 1, 72, 0
3, 242280, Note_on_c, 1, 67, 70
3, 242328, Note_on_c, 1, 67, 0
3, 242340, Note_on_c, 1, 72, 70
3, 242388, Note_on_c, 1, 72, 0
3, 242400, Note_on_c, 1, 64, 70
3, 242448, Note_on_c, 1, 64, 0
3, 242460, Note_on_c, 1, 67, 70
3, 242508, Note_on_c, 1, 67, 0
3, 242520, Note_on_c, 1, 58, 70
3, 242568, Note_on_c, 1, 58, 0
3, 242580, Note_on_c, 1, 67, 70
3, 242628, Note_on_c, 1, 67, 0
3, 242640, Note_on_c, 1, 57, 70
3, 242688, Note_on_c, 1, 57, 0
3, 242700, Note_on_c, 1, 65, 70
3, 242748, Note_on_c, 1, 65, 0
3, 242760, Note_on_c, 1, 72, 70
3, 242808, Note_on_c, 1, 72, 0
3, 242820, Note_on_c, 1, 76, 70
3, 242868, Note_on_c, 1, 76, 0
3, 242880, Note_on_c, 1, 77, 70
3, 242928, Note_on_c, 1, 77, 0
3, 242940, Note_on_c, 1, 74, 70
3, 242988, Note_on_c, 1, 74, 0
3, 243000, Note_on_c, 1, 70, 70
3, 243048, Note_on_c, 1, 70, 0
3, 243060, Note_on_c, 1, 74, 70
3, 243108, Note_on_c, 1, 74, 0
3, 243120, Note_on_c, 1, 65, 70
3, 243168, Note_on_c, 1, 65, 0
3, 243180, Note_on_c, 1, 70, 70
3, 243228, Note_on_c, 1, 70, 0
3, 243240, Note_on_c, 1, 62, 70
3, 243288, Note_on_c, 1, 62, 0
3, 243300, Note_on_c, 1, 65, 70
3, 243348, Note_on_c, 1, 65, 0
3, 243360, Note_on_c, 1, 57, 70
3, 243408, Note_on_c, 1, 57, 0
3, 243420, Note_on_c, 1, 65, 70
3, 243468, Note_on_c, 1, 65, 0
3, 243480, Note_on_c, 1, 72, 70
3, 243528, Note_on_c, 1, 72, 0
3, 243540, Note_on_c, 1, 74, 70
3, 243588, Note_on_c, 1, 74, 0
3, 243600, Note_on_c, 1, 75, 70
3, 243648, Note_on_c, 1, 75, 0
3, 243660, Note_on_c, 1, 72, 70
3, 243708, Note_on_c, 1, 72, 0
3, 243720, Note_on_c, 1, 69, 70
3, 243768, Note_on_c, 1, 69, 0
3, 243780, Note_on_c, 1, 72, 70
3, 243828, Note_on_c, 1, 72, 0
3, 243840, Note_on_c, 1, 63, 70
3, 243888, Note_on_c, 1, 63, 0
3, 243900, Note_on_c, 1, 69, 70
3, 243948, Note_on_c, 1, 69, 0
3, 243960, Note_on_c, 1, 60, 70
3, 244008, Note_on_c, 1, 60, 0
3, 244020, Note_on_c, 1, 63, 70
3, 244068, Note_on_c, 1, 63, 0
3, 244080, Note_on_c, 1, 62, 70
3, 244176, Note_on_c, 1, 62, 0
3, 244200, Note_on_c, 1, 75, 69
3, 244296, Note_on_c, 1, 75, 0
3, 244320, Note_on_c, 1, 74, 70
3, 244416, Note_on_c, 1, 74, 0
3, 244440, Note_on_c, 1, 72, 71
3, 244536, Note_on_c, 1, 72, 0
3, 244560, Note_on_c, 1, 70, 72
3, 244656, Note_on_c, 1, 70, 0
3, 244680, Note_on_c, 1, 72, 74
3, 244728, Note_on_c, 1, 72, 0
3, 244740, Note_on_c, 1, 74, 74
3, 244788, Note_on_c, 1, 74, 0
3, 244800, Note_on_c, 1, 75, 75
3, 245088, Note_on_c, 1, 75, 0
3, 245160, Note_on_c, 1, 74, 79
3, 245256, Note_on_c, 1, 74, 0
3, 245280, Note_on_c, 1, 69, 80
3, 245472, Note_on_c, 1, 69, 0
3, 245520, Note_on_c, 1, 67, 83
3, 245616, Note_on_c, 1, 67, 0
3, 245640, Note_on_c, 1, 79, 84
3, 245736, Note_on_c, 1, 79, 0
3, 245760, Note_on_c, 1, 77, 85
3, 245856, Note_on_c, 1, 77, 0
3, 245880, Note_on_c, 1, 76, 87
3, 245976, Note_on_c, 1, 76, 0
3, 246000, Note_on_c, 1, 74, 88
3, 246336, Note_on_c, 1, 74, 0
3, 246360, Note_on_c, 1, 82, 84
3, 246456, Note_on_c, 1, 82, 0
3, 246480, Note_on_c, 1, 73, 86
3, 246576, Note_on_c, 1, 73, 0
3, 246600, Note_on_c, 1, 76, 86
3, 246696, Note_on_c, 1, 76, 0
3, 246720, Note_on_c, 1, 79, 90
3, 246816, Note_on_c, 1, 79, 0
3, 246840, Note_on_c, 1, 77, 90
3, 246888, Note_on_c, 1, 77, 0
3, 246900, Note_on_c, 1, 76, 90
3, 246948, Note_on_c, 1, 76, 0
3, 246960, Note_on_c, 1, 77, 90
3, 247008, Note_on_c, 1, 77, 0
3, 247020, Note_on_c, 1, 76, 90
3, 247068, Note_on_c, 1, 76, 0
3, 247080, Note_on_c, 1, 74, 90
3, 247128, Note_on_c, 1, 74, 0
3, 247140, Note_on_c, 1, 73, 90
3, 247188, Note_on_c, 1, 73, 0
3, 247200, Note_on_c, 1, 74, 90
3, 247248, Note_on_c, 1, 74, 0
3, 247260, Note_on_c, 1, 69, 90
3, 247308, Note_on_c, 1, 69, 0
3, 247320, Note_on_c, 1, 70, 90
3, 247368, Note_on_c, 1, 70, 0
3, 247380, Note_on_c, 1, 67, 90
3, 247428, Note_on_c, 1, 67, 0
3, 247440, Note_on_c, 1, 69, 90
3, 247488, Note_on_c, 1, 69, 0
3, 247500, Note_on_c, 1, 65, 90
3, 247548, Note_on_c, 1, 65, 0
3, 247560, Note_on_c, 1, 67, 90
3, 247608, Note_on_c, 1, 67, 0
3, 247620, Note_on_c, 1, 64, 90
3, 247668, Note_on_c, 1, 64, 0
3, 247680, Note_on_c, 1, 65, 90
3, 247728, Note_on_c, 1, 65, 0
3, 247740, Note_on_c, 1, 62, 90
3, 247788, Note_on_c, 1, 62, 0
3, 247800, Note_on_c, 1, 64, 90
3, 247848, Note_on_c, 1, 64, 0
3, 247860, Note_on_c, 1, 61, 90
3, 247908, Note_on_c, 1, 61, 0
3, 247920, Note_on_c, 1, 62, 90
3, 247968, Note_on_c, 1, 62, 0
3, 247980, Note_on_c, 1, 65, 90
3, 248028, Note_on_c, 1, 65, 0
3, 248040, Note_on_c, 1, 64, 90
3, 248088, Note_on_c, 1, 64, 0
3, 248100, Note_on_c, 1, 67, 90
3, 248148, Note_on_c, 1, 67, 0
3, 248160, Note_on_c, 1, 65, 90
3, 248256, Note_on_c, 1, 65, 0
3, 248280, Note_on_c, 1, 67, 90
3, 248376, Note_on_c, 1, 67, 0
3, 248400, Note_on_c, 1, 69, 90
3, 248496, Note_on_c, 1, 69, 0
3, 248520, Note_on_c, 1, 71, 90
3, 248568, Note_on_c, 1, 71, 0
3, 248580, Note_on_c, 1, 73, 90
3, 248628, Note_on_c, 1, 73, 0
3, 248640, Note_on_c, 1, 74, 90
3, 248688, Note_on_c, 1, 74, 0
3, 248700, Note_on_c, 1, 73, 90
3, 248748, Note_on_c, 1, 73, 0
3, 248760, Note_on_c, 1, 74, 90
3, 248808, Note_on_c, 1, 74, 0
3, 248820, Note_on_c, 1, 73, 90
3, 248868, Note_on_c, 1, 73, 0
3, 248880, Note_on_c, 1, 74, 90
3, 248976, Note_on_c, 1, 74, 0
3, 249000, Note_on_c, 1, 74, 86
3, 249216, Note_on_c, 1, 74, 0
3, 249240, Note_on_c, 1, 73, 82
3, 249336, Note_on_c, 1, 73, 0
3, 249960, Note_on_c, 1, 78, 79
3, 249960, Note_on_c, 1, 69, 79
3, 250056, Note_on_c, 1, 69, 0
3, 250056, Note_on_c, 1, 78, 0
3, 250080, Note_on_c, 1, 69, 79
3, 250080, Note_on_c, 1, 78, 79
3, 250176, Note_on_c, 1, 78, 0
3, 250176, Note_on_c, 1, 69, 0
3, 250200, Note_on_c, 1, 69, 79
3, 250200, Note_on_c, 1, 78, 79
3, 250296, Note_on_c, 1, 78, 0
3, 250296, Note_on_c, 1, 69, 0
3, 250320, Note_on_c, 1, 78, 79
3, 250320, Note_on_c, 1, 69, 79
3, 250416, Note_on_c, 1, 69, 0
3, 250416, Note_on_c, 1, 78, 0
3, 250440, Note_on_c, 1, 69, 80
3, 250440, Note_on_c, 1, 78, 80
3, 250536, Note_on_c, 1, 78, 0
3, 250536, Note_on_c, 1, 69, 0
3, 250560, Note_on_c, 1, 79, 80
3, 250560, Note_on_c, 1, 67, 80
3, 250656, Note_on_c, 1, 67, 0
3, 250656, Note_on_c, 1, 79, 0
3, 250680, Note_on_c, 1, 79, 80
3, 250680, Note_on_c, 1, 67, 80
3, 250776, Note_on_c, 1, 67, 0
3, 250776, Note_on_c, 1, 79, 0
3, 250800, Note_on_c, 1, 67, 81
3, 250800, Note_on_c, 1, 79, 81
3, 250896, Note_on_c, 1, 79, 0
3, 250896, Note_on_c, 1, 67, 0
3, 250920, Note_on_c, 1, 67, 81
3, 250920, Note_on_c, 1, 79, 81
3, 251016, Note_on_c, 1, 79, 0
3, 251016, Note_on_c, 1, 67, 0
3, 251040, Note_on_c, 1, 79, 81
3, 251040, Note_on_c, 1, 67, 81
3, 251136, Note_on_c, 1, 67, 0
3, 251136, Note_on_c, 1, 79, 0
3, 251160, Note_on_c, 1, 67, 82
3, 251160, Note_on_c, 1, 79, 82
3, 251256, Note_on_c, 1, 79, 0
3, 251256, Note_on_c, 1, 67, 0
3, 251280, Note_on_c, 1, 79, 82
3, 251280, Note_on_c, 1, 69, 82
3, 251376, Note_on_c, 1, 69, 0
3, 251376, Note_on_c, 1, 79, 0
3, 251400, Note_on_c, 1, 79, 82
3, 251400, Note_on_c, 1, 69, 82
3, 251496, Note_on_c, 1, 69, 0
3, 251496, Note_on_c, 1, 79, 0
3, 251520, Note_on_c, 1, 69, 83
3, 251520, Note_on_c, 1, 79, 83
3, 251616, Note_on_c, 1, 79, 0
3, 251616, Note_on_c, 1, 69, 0
3, 251640, Note_on_c, 1, 69, 83
3, 251640, Note_on_c, 1, 79, 83
3, 251736, Note_on_c, 1, 79, 0
3, 251736, Note_on_c, 1, 69, 0
3, 251760, Note_on_c, 1, 79, 83
3, 251760, Note_on_c, 1, 69, 83
3, 251856, Note_on_c, 1, 69, 0
3, 251856, Note_on_c, 1, 79, 0
3, 251880, Note_on_c, 1, 69, 83
3, 251880, Note_on_c, 1, 79, 83
3, 251976, Note_on_c, 1, 79, 0
3, 251976, Note_on_c, 1, 69, 0
3, 252000, Note_on_c, 1, 77, 84
3, 252000, Note_on_c, 1, 69, 84
3, 252096, Note_on_c, 1, 69, 0
3, 252096, Note_on_c, 1, 77, 0
3, 252120, Note_on_c, 1, 69, 84
3, 252120, Note_on_c, 1, 77, 84
3, 252216, Note_on_c, 1, 77, 0
3, 252216, Note_on_c, 1, 69, 0
3, 252240, Note_on_c, 1, 69, 84
3, 252240, Note_on_c, 1, 77, 84
3, 252336, Note_on_c, 1, 77, 0
3, 252336, Note_on_c, 1, 69, 0
3, 252360, Note_on_c, 1, 77, 85
3, 252360, Note_on_c, 1, 69, 85
3, 252456, Note_on_c, 1, 69, 0
3, 252456, Note_on_c, 1, 77, 0
3, 252480, Note_on_c, 1, 69, 85
3, 252480, Note_on_c, 1, 77, 85
3, 252576, Note_on_c, 1, 77, 0
3, 252576, Note_on_c, 1, 69, 0
3, 252600, Note_on_c, 1, 69, 85
3, 252600, Note_on_c, 1, 77, 85
3, 252696, Note_on_c, 1, 77, 0
3, 252696, Note_on_c, 1, 69, 0
3, 252720, Note_on_c, 1, 77, 86
3, 252720, Note_on_c, 1, 67, 86
3, 252816, Note_on_c, 1, 67, 0
3, 252816, Note_on_c, 1, 77, 0
3, 252840, Note_on_c, 1, 67, 86
3, 252840, Note_on_c, 1, 77, 86
3, 252936, Note_on_c, 1, 77, 0
3, 252936, Note_on_c, 1, 67, 0
3, 252960, Note_on_c, 1, 67, 86
3, 252960, Note_on_c, 1, 76, 86
3, 253056, Note_on_c, 1, 76, 0
3, 253056, Note_on_c, 1, 67, 0
3, 253080, Note_on_c, 1, 67, 87
3, 253080, Note_on_c, 1, 76, 87
3, 253176, Note_on_c, 1, 76, 0
3, 253176, Note_on_c, 1, 67, 0
3, 253200, Note_on_c, 1, 67, 87
3, 253200, Note_on_c, 1, 76, 87
3, 253296, Note_on_c, 1, 76, 0
3, 253296, Note_on_c, 1, 67, 0
3, 253320, Note_on_c, 1, 67, 87
3, 253320, Note_on_c, 1, 76, 87
3, 253416, Note_on_c, 1, 76, 0
3, 253416, Note_on_c, 1, 67, 0
3, 253440, Note_on_c, 1, 76, 88
3, 253440, Note_on_c, 1, 65, 88
3, 253536, Note_on_c, 1, 65, 0
3, 253536, Note_on_c, 1, 76, 0
3, 253560, Note_on_c, 1, 65, 87
3, 253560, Note_on_c, 1, 76, 87
3, 253656, Note_on_c, 1, 76, 0
3, 253656, Note_on_c, 1, 65, 0
3, 253680, Note_on_c, 1, 74, 87
3, 253680, Note_on_c, 1, 65, 87
3, 253776, Note_on_c, 1, 65, 0
3, 253776, Note_on_c, 1, 74, 0
3, 253800, Note_on_c, 1, 65, 86
3, 253800, Note_on_c, 1, 74, 86
3, 253896, Note_on_c, 1, 74, 0
3, 253896, Note_on_c, 1, 65, 0
3, 253920, Note_on_c, 1, 65, 85
3, 253920, Note_on_c, 1, 74, 85
3, 254016, Note_on_c, 1, 74, 0
3, 254016, Note_on_c, 1, 65, 0
3, 254040, Note_on_c, 1, 74, 84
3, 254040, Note_on_c, 1, 65, 84
3, 254136, Note_on_c, 1, 65, 0
3, 254136, Note_on_c, 1, 74, 0
3, 254160, Note_on_c, 1, 74, 83
3, 254160, Note_on_c, 1, 64, 83
3, 254256, Note_on_c, 1, 64, 0
3, 254256, Note_on_c, 1, 74, 0
3, 254280, Note_on_c, 1, 74, 82
3, 254280, Note_on_c, 1, 64, 82
3, 254376, Note_on_c, 1, 64, 0
3, 254376, Note_on_c, 1, 74, 0
3, 254400, Note_on_c, 1, 64, 81
3, 254400, Note_on_c, 1, 73, 81
3, 254496, Note_on_c, 1, 73, 0
3, 254496, Note_on_c, 1, 64, 0
3, 254520, Note_on_c, 1, 73, 82
3, 254520, Note_on_c, 1, 64, 82
3, 254616, Note_on_c, 1, 64, 0
3, 254616, Note_on_c, 1, 73, 0
3, 254640, Note_on_c, 1, 73, 83
3, 254640, Note_on_c, 1, 64, 83
3, 254736, Note_on_c, 1, 64, 0
3, 254736, Note_on_c, 1, 73, 0
3, 254760, Note_on_c, 1, 76, 84
3, 254760, Note_on_c, 1, 69, 84
3, 254856, Note_on_c, 1, 69, 0
3, 254856, Note_on_c, 1, 76, 0
3, 254880, Note_on_c, 1, 62, 85
3, 254880, Note_on_c, 1, 69, 85
3, 254880, Note_on_c, 1, 77, 85
3, 254976, Note_on_c, 1, 77, 0
3, 254976, Note_on_c, 1, 69, 0
3, 254976, Note_on_c, 1, 62, 0
3, 255000, Note_on_c, 1, 74, 86
3, 255048, Note_on_c, 1, 74, 0
3, 255060, Note_on_c, 1, 73, 86
3, 255108, Note_on_c, 1, 73, 0
3, 255120, Note_on_c, 1, 74, 87
3, 255168, Note_on_c, 1, 74, 0
3, 255180, Note_on_c, 1, 69, 87
3, 255228, Note_on_c, 1, 69, 0
3, 255240, Note_on_c, 1, 70, 89
3, 255288, Note_on_c, 1, 70, 0
3, 255300, Note_on_c, 1, 67, 89
3, 255348, Note_on_c, 1, 67, 0
3, 255360, Note_on_c, 1, 69, 89
3, 255408, Note_on_c, 1, 69, 0
3, 255420, Note_on_c, 1, 65, 88
3, 255468, Note_on_c, 1, 65, 0
3, 255480, Note_on_c, 1, 67, 88
3, 255528, Note_on_c, 1, 67, 0
3, 255540, Note_on_c, 1, 64, 88
3, 255588, Note_on_c, 1, 64, 0
3, 255600, Note_on_c, 1, 65, 87
3, 255648, Note_on_c, 1, 65, 0
3, 255660, Note_on_c, 1, 62, 87
3, 255708, Note_on_c, 1, 62, 0
3, 255720, Note_on_c, 1, 64, 86
3, 255768, Note_on_c, 1, 64, 0
3, 255780, Note_on_c, 1, 61, 86
3, 255828, Note_on_c, 1, 61, 0
3, 255840, Note_on_c, 1, 62, 86
3, 255888, Note_on_c, 1, 62, 0
3, 255900, Note_on_c, 1, 65, 85
3, 255948, Note_on_c, 1, 65, 0
3, 255960, Note_on_c, 1, 64, 85
3, 256008, Note_on_c, 1, 64, 0
3, 256020, Note_on_c, 1, 67, 85
3, 256068, Note_on_c, 1, 67, 0
3, 256080, Note_on_c, 1, 65, 84
3, 256176, Note_on_c, 1, 65, 0
3, 256200, Note_on_c, 1, 69, 83
3, 256296, Note_on_c, 1, 69, 0
3, 256320, Note_on_c, 1, 69, 83
3, 256416, Note_on_c, 1, 69, 0
3, 256440, Note_on_c, 1, 70, 82
3, 256488, Note_on_c, 1, 70, 0
3, 256500, Note_on_c, 1, 73, 82
3, 256548, Note_on_c, 1, 73, 0
3, 256560, Note_on_c, 1, 74, 81
3, 256608, Note_on_c, 1, 74, 0
3, 256620, Note_on_c, 1, 73, 81
3, 256668, Note_on_c, 1, 73, 0
3, 256680, Note_on_c, 1, 74, 81
3, 256728, Note_on_c, 1, 74, 0
3, 256740, Note_on_c, 1, 73, 80
3, 256788, Note_on_c, 1, 73, 0
3, 256800, Note_on_c, 1, 74, 80
3, 256896, Note_on_c, 1, 74, 0
3, 256920, Note_on_c, 1, 74, 79
3, 257136, Note_on_c, 1, 74, 0
3, 257160, Note_on_c, 1, 73, 78
3, 257256, Note_on_c, 1, 73, 0
3, 257880, Note_on_c, 1, 69, 90
3, 257928, Note_on_c, 1, 69, 0
3, 257940, Note_on_c, 1, 70, 90
3, 257988, Note_on_c, 1, 70, 0
3, 258000, Note_on_c, 1, 72, 90
3, 258096, Note_on_c, 1, 72, 0
3, 258120, Note_on_c, 1, 70, 90
3, 258216, Note_on_c, 1, 70, 0
3, 258240, Note_on_c, 1, 75, 90
3, 258336, Note_on_c, 1, 75, 0
3, 258360, Note_on_c, 1, 74, 90
3, 258456, Note_on_c, 1, 74, 0
3, 258480, Note_on_c, 1, 66, 90
3, 258576, Note_on_c, 1, 66, 0
3, 258600, Note_on_c, 1, 67, 90
3, 258696, Note_on_c, 1, 67, 0
3, 258720, Note_on_c, 1, 72, 90
3, 258768, Note_on_c, 1, 72, 0
3, 258780, Note_on_c, 1, 69, 90
3, 258828, Note_on_c, 1, 69, 0
3, 258840, Note_on_c, 1, 70, 90
3, 258936, Note_on_c, 1, 70, 0
3, 259320, Note_on_c, 1, 71, 79
3, 259368, Note_on_c, 1, 71, 0
3, 259380, Note_on_c, 1, 72, 79
3, 259428, Note_on_c, 1, 72, 0
3, 259440, Note_on_c, 1, 74, 80
3, 259536, Note_on_c, 1, 74, 0
3, 259560, Note_on_c, 1, 72, 81
3, 259656, Note_on_c, 1, 72, 0
3, 259680, Note_on_c, 1, 77, 81
3, 259776, Note_on_c, 1, 77, 0
3, 259800, Note_on_c, 1, 76, 82
3, 259896, Note_on_c, 1, 76, 0
3, 259920, Note_on_c, 1, 68, 83
3, 260016, Note_on_c, 1, 68, 0
3, 260040, Note_on_c, 1, 69, 84
3, 260136, Note_on_c, 1, 69, 0
3, 260160, Note_on_c, 1, 74, 85
3, 260208, Note_on_c, 1, 74, 0
3, 260220, Note_on_c, 1, 71, 85
3, 260268, Note_on_c, 1, 71, 0
3, 260280, Note_on_c, 1, 73, 86
3, 260376, Note_on_c, 1, 73, 0
3, 260760, Note_on_c, 1, 81, 90
3, 260808, Note_on_c, 1, 81, 0
3, 260820, Note_on_c, 1, 80, 90
3, 260868, Note_on_c, 1, 80, 0
3, 260880, Note_on_c, 1, 81, 90
3, 260928, Note_on_c, 1, 81, 0
3, 260940, Note_on_c, 1, 76, 90
3, 260988, Note_on_c, 1, 76, 0
3, 261000, Note_on_c, 1, 77, 90
3, 261048, Note_on_c, 1, 77, 0
3, 261060, Note_on_c, 1, 74, 90
3, 261108, Note_on_c, 1, 74, 0
3, 261120, Note_on_c, 1, 76, 90
3, 261168, Note_on_c, 1, 76, 0
3, 261180, Note_on_c, 1, 73, 90
3, 261228, Note_on_c, 1, 73, 0
3, 261240, Note_on_c, 1, 69, 90
3, 261336, Note_on_c, 1, 69, 0
3, 261480, Note_on_c, 1, 81, 90
3, 261528, Note_on_c, 1, 81, 0
3, 261540, Note_on_c, 1, 77, 90
3, 261588, Note_on_c, 1, 77, 0
3, 261600, Note_on_c, 1, 79, 90
3, 261648, Note_on_c, 1, 79, 0
3, 261660, Note_on_c, 1, 76, 90
3, 261708, Note_on_c, 1, 76, 0
3, 261720, Note_on_c, 1, 77, 90
3, 261768, Note_on_c, 1, 77, 0
3, 261780, Note_on_c, 1, 74, 90
3, 261828, Note_on_c, 1, 74, 0
3, 261840, Note_on_c, 1, 76, 90
3, 261888, Note_on_c, 1, 76, 0
3, 261900, Note_on_c, 1, 73, 90
3, 261948, Note_on_c, 1, 73, 0
3, 261960, Note_on_c, 1, 69, 90
3, 262056, Note_on_c, 1, 69, 0
3, 262200, Note_on_c, 1, 70, 90
3, 262232, Note_on_c, 1, 70, 0
3, 262240, Note_on_c, 1, 69, 90
3, 262272, Note_on_c, 1, 69, 0
3, 262280, Note_on_c, 1, 67, 90
3, 262312, Note_on_c, 1, 67, 0
3, 262320, Note_on_c, 1, 69, 90
3, 262472, Note_on_c, 1, 69, 0
3, 262480, Note_on_c, 1, 67, 90
3, 262512, Note_on_c, 1, 67, 0
3, 262520, Note_on_c, 1, 65, 90
3, 262552, Note_on_c, 1, 65, 0
3, 262560, Note_on_c, 1, 67, 90
3, 262608, Note_on_c, 1, 67, 0
3, 262620, Note_on_c, 1, 65, 90
3, 262668, Note_on_c, 1, 65, 0
3, 262680, Note_on_c, 1, 67, 90
3, 262728, Note_on_c, 1, 67, 0
3, 262740, Note_on_c, 1, 65, 90
3, 262788, Note_on_c, 1, 65, 0
3, 262800, Note_on_c, 1, 67, 90
3, 262896, Note_on_c, 1, 67, 0
3, 263160, Note_on_c, 1, 73, 80
3, 263192, Note_on_c, 1, 73, 0
3, 263200, Note_on_c, 1, 74, 81
3, 263232, Note_on_c, 1, 74, 0
3, 263240, Note_on_c, 1, 76, 82
3, 263272, Note_on_c, 1, 76, 0
3, 263280, Note_on_c, 1, 76, 83
3, 263312, Note_on_c, 1, 76, 0
3, 263320, Note_on_c, 1, 77, 84
3, 263352, Note_on_c, 1, 77, 0
3, 263360, Note_on_c, 1, 79, 85
3, 263392, Note_on_c, 1, 79, 0
3, 263400, Note_on_c, 1, 79, 86
3, 263432, Note_on_c, 1, 79, 0
3, 263440, Note_on_c, 1, 77, 87
3, 263472, Note_on_c, 1, 77, 0
3, 263480, Note_on_c, 1, 76, 88
3, 263512, Note_on_c, 1, 76, 0
3, 263520, Note_on_c, 1, 77, 90
3, 263616, Note_on_c, 1, 77, 0
3, 263880, Note_on_c, 1, 74, 79
3, 263912, Note_on_c, 1, 74, 0
3, 263920, Note_on_c, 1, 76, 80
3, 263952, Note_on_c, 1, 76, 0
3, 263960, Note_on_c, 1, 77, 81
3, 263992, Note_on_c, 1, 77, 0
3, 264000, Note_on_c, 1, 77, 82
3, 264032, Note_on_c, 1, 77, 0
3, 264040, Note_on_c, 1, 79, 83
3, 264072, Note_on_c, 1, 79, 0
3, 264080, Note_on_c, 1, 81, 83
3, 264112, Note_on_c, 1, 81, 0
3, 264120, Note_on_c, 1, 81, 84
3, 264152, Note_on_c, 1, 81, 0
3, 264160, Note_on_c, 1, 79, 85
3, 264192, Note_on_c, 1, 79, 0
3, 264200, Note_on_c, 1, 77, 86
3, 264232, Note_on_c, 1, 77, 0
3, 264240, Note_on_c, 1, 79, 87
3, 264336, Note_on_c, 1, 79, 0
3, 264600, Note_on_c, 1, 61, 78
3, 264632, Note_on_c, 1, 61, 0
3, 264640, Note_on_c, 1, 62, 79
3, 264672, Note_on_c, 1, 62, 0
3, 264680, Note_on_c, 1, 64, 80
3, 264712, Note_on_c, 1, 64, 0
3, 264720, Note_on_c, 1, 64, 81
3, 264752, Note_on_c, 1, 64, 0
3, 264760, Note_on_c, 1, 65, 82
3, 264792, Note_on_c, 1, 65, 0
3, 264800, Note_on_c, 1, 67, 82
3, 264832, Note_on_c, 1, 67, 0
3, 264840, Note_on_c, 1, 67, 83
3, 264872, Note_on_c, 1, 67, 0
3, 264880, Note_on_c, 1, 65, 84
3, 264912, Note_on_c, 1, 65, 0
3, 264920, Note_on_c, 1, 64, 85
3, 264952, Note_on_c, 1, 64, 0
3, 264960, Note_on_c, 1, 62, 86
3, 265008, Note_on_c, 1, 62, 0
3, 265020, Note_on_c, 1, 65, 87
3, 265068, Note_on_c, 1, 65, 0
3, 265080, Note_on_c, 1, 64, 89
3, 265128, Note_on_c, 1, 64, 0
3, 265140, Note_on_c, 1, 65, 90
3, 265188, Note_on_c, 1, 65, 0
3, 265200, Note_on_c, 1, 67, 91
3, 265248, Note_on_c, 1, 67, 0
3, 265260, Note_on_c, 1, 65, 93
3, 265308, Note_on_c, 1, 65, 0
3, 265320, Note_on_c, 1, 64, 94
3, 265368, Note_on_c, 1, 64, 0
3, 265380, Note_on_c, 1, 65, 95
3, 265428, Note_on_c, 1, 65, 0
3, 265440, Note_on_c, 1, 70, 97
3, 265536, Note_on_c, 1, 70, 0
3, 265560, Note_on_c, 1, 67, 99
3, 265656, Note_on_c, 1, 67, 0
3, 265680, Note_on_c, 1, 69, 102
3, 265728, Note_on_c, 1, 69, 0
3, 265740, Note_on_c, 1, 65, 103
3, 265788, Note_on_c, 1, 65, 0
3, 265800, Note_on_c, 1, 64, 105
3, 265848, Note_on_c, 1, 64, 0
3, 265860, Note_on_c, 1, 65, 106
3, 265908, Note_on_c, 1, 65, 0
3, 265920, Note_on_c, 1, 62, 107
3, 265968, Note_on_c, 1, 62, 0
3, 265980, Note_on_c, 1, 65, 109
3, 266028, Note_on_c, 1, 65, 0
3, 266040, Note_on_c, 1, 64, 110
3, 266088, Note_on_c, 1, 64, 0
3, 266100, Note_on_c, 1, 65, 111
3, 266148, Note_on_c, 1, 65, 0
3, 266160, Note_on_c, 1, 69, 113
3, 266256, Note_on_c, 1, 69, 0
3, 266280, Note_on_c, 1, 65, 115
3, 266376, Note_on_c, 1, 65, 0
3, 266400, Note_on_c, 1, 67, 118
3, 266448, Note_on_c, 1, 67, 0
3, 266460, Note_on_c, 1, 70, 120
3, 266508, Note_on_c, 1, 70, 0
3, 266520, Note_on_c, 1, 69, 120
3, 266568, Note_on_c, 1, 69, 0
3, 266580, Note_on_c, 1, 70, 120
3, 266628, Note_on_c, 1, 70, 0
3, 266640, Note_on_c, 1, 67, 120
3, 266688, Note_on_c, 1, 67, 0
3, 266700, Note_on_c, 1, 70, 120
3, 266748, Note_on_c, 1, 70, 0
3, 266760, Note_on_c, 1, 69, 120
3, 266808, Note_on_c, 1, 69, 0
3, 266820, Note_on_c, 1, 70, 120
3, 266868, Note_on_c, 1, 70, 0
3, 266880, Note_on_c, 1, 67, 120
3, 266976, Note_on_c, 1, 67, 0
3, 267000, Note_on_c, 1, 64, 120
3, 267096, Note_on_c, 1, 64, 0
3, 267120, Note_on_c, 1, 65, 120
3, 267216, Note_on_c, 1, 65, 0
3, 267240, Note_on_c, 1, 69, 120
3, 267336, Note_on_c, 1, 69, 0
3, 267360, Note_on_c, 1, 74, 120
3, 267456, Note_on_c, 1, 74, 0
3, 267480, Note_on_c, 1, 77, 120
3, 267570, Note_on_c, 1, 81, 120
3, 267576, Note_on_c, 1, 77, 0
3, 267600, Note_on_c, 1, 81, 0
3, 267600, Note_on_c, 1, 80, 120
3, 267744, Note_on_c, 1, 80, 0
3, 267780, Note_on_c, 1, 78, 120
3, 267804, Note_on_c, 1, 78, 0
3, 267810, Note_on_c, 1, 80, 120
3, 267834, Note_on_c, 1, 80, 0
3, 267840, Note_on_c, 1, 81, 120
3, 267936, Note_on_c, 1, 81, 0
3, 267960, Note_on_c, 1, 76, 120
3, 268056, Note_on_c, 1, 76, 0
3, 268080, Note_on_c, 1, 77, 120
3, 268176, Note_on_c, 1, 77, 0
3, 268200, Note_on_c, 1, 74, 120
3, 268296, Note_on_c, 1, 74, 0
3, 268320, Note_on_c, 1, 69, 120
3, 268416, Note_on_c, 1, 69, 0
3, 268440, Note_on_c, 1, 73, 120
3, 268536, Note_on_c, 1, 73, 0
3, 268560, Note_on_c, 1, 74, 120
3, 268608, Note_on_c, 1, 74, 0
3, 268620, Note_on_c, 1, 69, 120
3, 268668, Note_on_c, 1, 69, 0
3, 268680, Note_on_c, 1, 70, 120
3, 268728, Note_on_c, 1, 70, 0
3, 268740, Note_on_c, 1, 67, 120
3, 268788, Note_on_c, 1, 67, 0
3, 268800, Note_on_c, 1, 69, 120
3, 268848, Note_on_c, 1, 69, 0
3, 268860, Note_on_c, 1, 65, 120
3, 268908, Note_on_c, 1, 65, 0
3, 268920, Note_on_c, 1, 64, 120
3, 268968, Note_on_c, 1, 64, 0
3, 268980, Note_on_c, 1, 61, 120
3, 269028, Note_on_c, 1, 61, 0
3, 269040, Note_on_c, 1, 62, 120
3, 269088, Note_on_c, 1, 62, 0
3, 269100, Note_on_c, 1, 57, 120
3, 269148, Note_on_c, 1, 57, 0
3, 269160, Note_on_c, 1, 58, 120
3, 269208, Note_on_c, 1, 58, 0
3, 269220, Note_on_c, 1, 55, 120
3, 269268, Note_on_c, 1, 55, 0
3, 269280, Note_on_c, 1, 57, 120
3, 269472, Note_on_c, 1, 57, 0
3, 269472, End_track
4, 0, Start_track
4, 0, MIDI_port, 0
4, 0, Title_t, "Trills..."
4, 0, Program_c, 2, 40
4, 0, Control_c, 2, 7, 127
4, 0, Control_c, 2, 10, 63
4, 0, Control_c, 2, 91, 0
4, 0, Control_c, 2, 93, 0
4, 3120, Note_on_c, 2, 64, 102
4, 3144, Note_on_c, 2, 64, 0
4, 3150, Note_on_c, 2, 65, 102
4, 3174, Note_on_c, 2, 65, 0
4, 3180, Note_on_c, 2, 64, 102
4, 3204, Note_on_c, 2, 64, 0
4, 3210, Note_on_c, 2, 65, 102
4, 3234, Note_on_c, 2, 65, 0
4, 3240, Note_on_c, 2, 64, 102
4, 3264, Note_on_c, 2, 64, 0
4, 3270, Note_on_c, 2, 65, 102
4, 3294, Note_on_c, 2, 65, 0
4, 3300, Note_on_c, 2, 64, 102
4, 3324, Note_on_c, 2, 64, 0
4, 3330, Note_on_c, 2, 65, 102
4, 3354, Note_on_c, 2, 65, 0
4, 6960, Note_on_c, 2, 71, 102
4, 6984, Note_on_c, 2, 71, 0
4, 6990, Note_on_c, 2, 72, 102
4, 7014, Note_on_c, 2, 72, 0
4, 7020, Note_on_c, 2, 71, 102
4, 7044, Note_on_c, 2, 71, 0
4, 7050, Note_on_c, 2, 72, 102
4, 7074, Note_on_c, 2, 72, 0
4, 7080, Note_on_c, 2, 71, 102
4, 7104, Note_on_c, 2, 71, 0
4, 7110, Note_on_c, 2, 72, 102
4, 7134, Note_on_c, 2, 72, 0
4, 7140, Note_on_c, 2, 71, 102
4, 7164, Note_on_c, 2, 71, 0
4, 7170, Note_on_c, 2, 72, 102
4, 7194, Note_on_c, 2, 72, 0
4, 19440, Note_on_c, 2, 76, 102
4, 19464, Note_on_c, 2, 76, 0
4, 19470, Note_on_c, 2, 77, 102
4, 19494, Note_on_c, 2, 77, 0
4, 19500, Note_on_c, 2, 76, 102
4, 19524, Note_on_c, 2, 76, 0
4, 19530, Note_on_c, 2, 77, 102
4, 19554, Note_on_c, 2, 77, 0
4, 19560, Note_on_c, 2, 76, 102
4, 19584, Note_on_c, 2, 76, 0
4, 19590, Note_on_c, 2, 77, 102
4, 19614, Note_on_c, 2, 77, 0
4, 19620, Note_on_c, 2, 76, 102
4, 19644, Note_on_c, 2, 76, 0
4, 19650, Note_on_c, 2, 77, 102
4, 19674, Note_on_c, 2, 77, 0
4, 46320, Note_on_c, 2, 71, 102
4, 46344, Note_on_c, 2, 71, 0
4, 46350, Note_on_c, 2, 72, 102
4, 46374, Note_on_c, 2, 72, 0
4, 46380, Note_on_c, 2, 71, 102
4, 46404, Note_on_c, 2, 71, 0
4, 46410, Note_on_c, 2, 72, 102
4, 46434, Note_on_c, 2, 72, 0
4, 46440, Note_on_c, 2, 71, 102
4, 46464, Note_on_c, 2, 71, 0
4, 46470, Note_on_c, 2, 72, 102
4, 46494, Note_on_c, 2, 72, 0
4, 46500, Note_on_c, 2, 71, 102
4, 46524, Note_on_c, 2, 71, 0
4, 46530, Note_on_c, 2, 72, 102
4, 46554, Note_on_c, 2, 72, 0
4, 91320, Note_on_c, 2, 71, 63
4, 91332, Note_on_c, 2, 71, 0
4, 91334, Note_on_c, 2, 72, 63
4, 91346, Note_on_c, 2, 72, 0
4, 91350, Note_on_c, 2, 71, 64
4, 91362, Note_on_c, 2, 71, 0
4, 91364, Note_on_c, 2, 72, 65
4, 91376, Note_on_c, 2, 72, 0
4, 91380, Note_on_c, 2, 71, 65
4, 91392, Note_on_c, 2, 71, 0
4, 91394, Note_on_c, 2, 72, 65
4, 91406, Note_on_c, 2, 72, 0
4, 91410, Note_on_c, 2, 71, 66
4, 91422, Note_on_c, 2, 71, 0
4, 91424, Note_on_c, 2, 72, 67
4, 91436, Note_on_c, 2, 72, 0
4, 112080, Note_on_c, 2, 71, 57
4, 112092, Note_on_c, 2, 71, 0
4, 112094, Note_on_c, 2, 72, 57
4, 112106, Note_on_c, 2, 72, 0
4, 112110, Note_on_c, 2, 71, 57
4, 112122, Note_on_c, 2, 71, 0
4, 112124, Note_on_c, 2, 72, 58
4, 112136, Note_on_c, 2, 72, 0
4, 112140, Note_on_c, 2, 71, 59
4, 112152, Note_on_c, 2, 71, 0
4, 112154, Note_on_c, 2, 72, 59
4, 112166, Note_on_c, 2, 72, 0
4, 112170, Note_on_c, 2, 71, 59
4, 112182, Note_on_c, 2, 71, 0
4, 112184, Note_on_c, 2, 72, 60
4, 112196, Note_on_c, 2, 72, 0
4, 112200, Note_on_c, 2, 71, 61
4, 112212, Note_on_c, 2, 71, 0
4, 112214, Note_on_c, 2, 72, 61
4, 112226, Note_on_c, 2, 72, 0
4, 112230, Note_on_c, 2, 71, 61
4, 112242, Note_on_c, 2, 71, 0
4, 112244, Note_on_c, 2, 72, 62
4, 112256, Note_on_c, 2, 72, 0
4, 112260, Note_on_c, 2, 71, 63
4, 112272, Note_on_c, 2, 71, 0
4, 112274, Note_on_c, 2, 72, 63
4, 112286, Note_on_c, 2, 72, 0
4, 112290, Note_on_c, 2, 69, 63
4, 112302, Note_on_c, 2, 69, 0
4, 112304, Note_on_c, 2, 71, 64
4, 112316, Note_on_c, 2, 71, 0
4, 119160, Note_on_c, 2, 72, 59
4, 119172, Note_on_c, 2, 72, 0
4, 119174, Note_on_c, 2, 74, 59
4, 119186, Note_on_c, 2, 74, 0
4, 119190, Note_on_c, 2, 72, 59
4, 119202, Note_on_c, 2, 72, 0
4, 119204, Note_on_c, 2, 74, 60
4, 119216, Note_on_c, 2, 74, 0
4, 119220, Note_on_c, 2, 72, 60
4, 119232, Note_on_c, 2, 72, 0
4, 119234, Note_on_c, 2, 74, 60
4, 119246, Note_on_c, 2, 74, 0
4, 119250, Note_on_c, 2, 72, 61
4, 119262, Note_on_c, 2, 72, 0
4, 119264, Note_on_c, 2, 74, 61
4, 119276, Note_on_c, 2, 74, 0
4, 119280, Note_on_c, 2, 72, 62
4, 119292, Note_on_c, 2, 72, 0
4, 119294, Note_on_c, 2, 78, 62
4, 119294, Note_on_c, 2, 74, 62
4, 119306, Note_on_c, 2, 74, 0
4, 119306, Note_on_c, 2, 78, 0
4, 119310, Note_on_c, 2, 79, 62
4, 119310, Note_on_c, 2, 72, 62
4, 119322, Note_on_c, 2, 72, 0
4, 119322, Note_on_c, 2, 79, 0
4, 119324, Note_on_c, 2, 74, 63
4, 119324, Note_on_c, 2, 78, 63
4, 119336, Note_on_c, 2, 78, 0
4, 119336, Note_on_c, 2, 74, 0
4, 119340, Note_on_c, 2, 79, 63
4, 119340, Note_on_c, 2, 72, 63
4, 119352, Note_on_c, 2, 72, 0
4, 119352, Note_on_c, 2, 79, 0
4, 119354, Note_on_c, 2, 74, 63
4, 119354, Note_on_c, 2, 78, 63
4, 119366, Note_on_c, 2, 78, 0
4, 119366, Note_on_c, 2, 74, 0
4, 119370, Note_on_c, 2, 79, 64
4, 119370, Note_on_c, 2, 72, 64
4, 119382, Note_on_c, 2, 72, 0
4, 119382, Note_on_c, 2, 79, 0
4, 119384, Note_on_c, 2, 78, 64
4, 119384, Note_on_c, 2, 74, 64
4, 119396, Note_on_c, 2, 74, 0
4, 119396, Note_on_c, 2, 78, 0
4, 119400, Note_on_c, 2, 79, 65
4, 119400, Note_on_c, 2, 72, 65
4, 119412, Note_on_c, 2, 72, 0
4, 119412, Note_on_c, 2, 79, 0
4, 119414, Note_on_c, 2, 78, 65
4, 119414, Note_on_c, 2, 74, 65
4, 119426, Note_on_c, 2, 74, 0
4, 119426, Note_on_c, 2, 78, 0
4, 119430, Note_on_c, 2, 79, 65
4, 119430, Note_on_c, 2, 72, 65
4, 119442, Note_on_c, 2, 72, 0
4, 119442, Note_on_c, 2, 79, 0
4, 119444, Note_on_c, 2, 74, 66
4, 119444, Note_on_c, 2, 78, 66
4, 119456, Note_on_c, 2, 78, 0
4, 119456, Note_on_c, 2, 74, 0
4, 119460, Note_on_c, 2, 72, 66
4, 119460, Note_on_c, 2, 79, 66
4, 119472, Note_on_c, 2, 79, 0
4, 119472, Note_on_c, 2, 72, 0
4, 119474, Note_on_c, 2, 78, 66
4, 119474, Note_on_c, 2, 74, 66
4, 119486, Note_on_c, 2, 74, 0
4, 119486, Note_on_c, 2, 78, 0
4, 119490, Note_on_c, 2, 76, 67
4, 119490, Note_on_c, 2, 71, 67
4, 119502, Note_on_c, 2, 71, 0
4, 119502, Note_on_c, 2, 76, 0
4, 119504, Note_on_c, 2, 78, 67
4, 119504, Note_on_c, 2, 72, 67
4, 119516, Note_on_c, 2, 72, 0
4, 119516, Note_on_c, 2, 78, 0
4, 148920, Note_on_c, 2, 71, 58
4, 148932, Note_on_c, 2, 71, 0
4, 148934, Note_on_c, 2, 72, 58
4, 148946, Note_on_c, 2, 72, 0
4, 148950, Note_on_c, 2, 71, 59
4, 148962, Note_on_c, 2, 71, 0
4, 148964, Note_on_c, 2, 72, 60
4, 148976, Note_on_c, 2, 72, 0
4, 148980, Note_on_c, 2, 71, 60
4, 148992, Note_on_c, 2, 71, 0
4, 148994, Note_on_c, 2, 72, 60
4, 149006, Note_on_c, 2, 72, 0
4, 149010, Note_on_c, 2, 71, 61
4, 149022, Note_on_c, 2, 71, 0
4, 149024, Note_on_c, 2, 72, 62
4, 149036, Note_on_c, 2, 72, 0
4, 161280, Note_on_c, 2, 74, 90
4, 161304, Note_on_c, 2, 74, 0
4, 161310, Note_on_c, 2, 76, 90
4, 161334, Note_on_c, 2, 76, 0
4, 161340, Note_on_c, 2, 74, 90
4, 161364, Note_on_c, 2, 74, 0
4, 161370, Note_on_c, 2, 76, 90
4, 161394, Note_on_c, 2, 76, 0
4, 171840, Note_on_c, 2, 80, 90
4, 171864, Note_on_c, 2, 80, 0
4, 171870, Note_on_c, 2, 81, 90
4, 171894, Note_on_c, 2, 81, 0
4, 171900, Note_on_c, 2, 80, 90
4, 171924, Note_on_c, 2, 80, 0
4, 171930, Note_on_c, 2, 81, 90
4, 171954, Note_on_c, 2, 81, 0
4, 171960, Note_on_c, 2, 80, 90
4, 171984, Note_on_c, 2, 80, 0
4, 171990, Note_on_c, 2, 81, 90
4, 172014, Note_on_c, 2, 81, 0
4, 187200, Note_on_c, 2, 77, 90
4, 187224, Note_on_c, 2, 77, 0
4, 187230, Note_on_c, 2, 79, 90
4, 187254, Note_on_c, 2, 79, 0
4, 187260, Note_on_c, 2, 77, 90
4, 187284, Note_on_c, 2, 77, 0
4, 187290, Note_on_c, 2, 79, 90
4, 187314, Note_on_c, 2, 79, 0
4, 209280, Note_on_c, 2, 75, 90
4, 209280, Note_on_c, 2, 74, 90
4, 209304, Note_on_c, 2, 74, 0
4, 209304, Note_on_c, 2, 75, 0
4, 209310, Note_on_c, 2, 76, 90
4, 209310, Note_on_c, 2, 76, 90
4, 209334, Note_on_c, 2, 76, 0
4, 209334, Note_on_c, 2, 76, 0
4, 209340, Note_on_c, 2, 75, 90
4, 209340, Note_on_c, 2, 75, 90
4, 209364, Note_on_c, 2, 75, 0
4, 209364, Note_on_c, 2, 75, 0
4, 209370, Note_on_c, 2, 76, 90
4, 209370, Note_on_c, 2, 76, 90
4, 209394, Note_on_c, 2, 76, 0
4, 209394, Note_on_c, 2, 76, 0
4, 209400, Note_on_c, 2, 75, 90
4, 209400, Note_on_c, 2, 75, 90
4, 209424, Note_on_c, 2, 75, 0
4, 209424, Note_on_c, 2, 75, 0
4, 209430, Note_on_c, 2, 76, 90
4, 209430, Note_on_c, 2, 76, 90
4, 209454, Note_on_c, 2, 76, 0
4, 209454, Note_on_c, 2, 76, 0
4, 217200, Note_on_c, 2, 64, 90
4, 217224, Note_on_c, 2, 64, 0
4, 217230, Note_on_c, 2, 65, 90
4, 217254, Note_on_c, 2, 65, 0
4, 217260, Note_on_c, 2, 64, 90
4, 217284, Note_on_c, 2, 64, 0
4, 217290, Note_on_c, 2, 65, 90
4, 217314, Note_on_c, 2, 65, 0
4, 217320, Note_on_c, 2, 64, 90
4, 217344, Note_on_c, 2, 64, 0
4, 217350, Note_on_c, 2, 65, 90
4, 217374, Note_on_c, 2, 65, 0
4, 217380, Note_on_c, 2, 64, 90
4, 217404, Note_on_c, 2, 64, 0
4, 217410, Note_on_c, 2, 65, 90
4, 217434, Note_on_c, 2, 65, 0
4, 218640, Note_on_c, 2, 72, 90
4, 218664, Note_on_c, 2, 72, 0
4, 218670, Note_on_c, 2, 74, 90
4, 218694, Note_on_c, 2, 74, 0
4, 218700, Note_on_c, 2, 72, 90
4, 218724, Note_on_c, 2, 72, 0
4, 218730, Note_on_c, 2, 74, 90
4, 218754, Note_on_c, 2, 74, 0
4, 218760, Note_on_c, 2, 72, 90
4, 218784, Note_on_c, 2, 72, 0
4, 218790, Note_on_c, 2, 74, 90
4, 218814, Note_on_c, 2, 74, 0
4, 218820, Note_on_c, 2, 72, 90
4, 218844, Note_on_c, 2, 72, 0
4, 218850, Note_on_c, 2, 74, 90
4, 218874, Note_on_c, 2, 74, 0
4, 220080, Note_on_c, 2, 69, 90
4, 220104, Note_on_c, 2, 69, 0
4, 220110, Note_on_c, 2, 70, 90
4, 220134, Note_on_c, 2, 70, 0
4, 220140, Note_on_c, 2, 69, 90
4, 220164, Note_on_c, 2, 69, 0
4, 220170, Note_on_c, 2, 70, 90
4, 220194, Note_on_c, 2, 70, 0
4, 220200, Note_on_c, 2, 69, 90
4, 220224, Note_on_c, 2, 69, 0
4, 220230, Note_on_c, 2, 70, 90
4, 220254, Note_on_c, 2, 70, 0
4, 220260, Note_on_c, 2, 69, 90
4, 220284, Note_on_c, 2, 69, 0
4, 220290, Note_on_c, 2, 70, 90
4, 220314, Note_on_c, 2, 70, 0
4, 222480, Note_on_c, 2, 79, 90
4, 222504, Note_on_c, 2, 79, 0
4, 222510, Note_on_c, 2, 81, 90
4, 222534, Note_on_c, 2, 81, 0
4, 222540, Note_on_c, 2, 79, 90
4, 222564, Note_on_c, 2, 79, 0
4, 222570, Note_on_c, 2, 81, 90
4, 222594, Note_on_c, 2, 81, 0
4, 222600, Note_on_c, 2, 79, 90
4, 222624, Note_on_c, 2, 79, 0
4, 222630, Note_on_c, 2, 81, 90
4, 222654, Note_on_c, 2, 81, 0
4, 222660, Note_on_c, 2, 79, 90
4, 222684, Note_on_c, 2, 79, 0
4, 222690, Note_on_c, 2, 81, 90
4, 222714, Note_on_c, 2, 81, 0
4, 245280, Note_on_c, 2, 69, 90
4, 245304, Note_on_c, 2, 69, 0
4, 245310, Note_on_c, 2, 70, 90
4, 245334, Note_on_c, 2, 70, 0
4, 245340, Note_on_c, 2, 69, 90
4, 245364, Note_on_c, 2, 69, 0
4, 245370, Note_on_c, 2, 70, 90
4, 245394, Note_on_c, 2, 70, 0
4, 245400, Note_on_c, 2, 69, 90
4, 245424, Note_on_c, 2, 69, 0
4, 245430, Note_on_c, 2, 70, 90
4, 245454, Note_on_c, 2, 70, 0
4, 245460, Note_on_c, 2, 69, 90
4, 245484, Note_on_c, 2, 69, 0
4, 245490, Note_on_c, 2, 70, 90
4, 245514, Note_on_c, 2, 70, 0
4, 249120, Note_on_c, 2, 74, 90
4, 249144, Note_on_c, 2, 74, 0
4, 249150, Note_on_c, 2, 76, 90
4, 249174, Note_on_c, 2, 76, 0
4, 249180, Note_on_c, 2, 74, 90
4, 249204, Note_on_c, 2, 74, 0
4, 249210, Note_on_c, 2, 76, 90
4, 249234, Note_on_c, 2, 76, 0
4, 257040, Note_on_c, 2, 74, 90
4, 257064, Note_on_c, 2, 74, 0
4, 257070, Note_on_c, 2, 76, 90
4, 257094, Note_on_c, 2, 76, 0
4, 257100, Note_on_c, 2, 74, 90
4, 257124, Note_on_c, 2, 74, 0
4, 257130, Note_on_c, 2, 76, 90
4, 257154, Note_on_c, 2, 76, 0
4, 267600, Note_on_c, 2, 80, 90
4, 267624, Note_on_c, 2, 80, 0
4, 267630, Note_on_c, 2, 81, 90
4, 267654, Note_on_c, 2, 81, 0
4, 267660, Note_on_c, 2, 80, 90
4, 267684, Note_on_c, 2, 80, 0
4, 267690, Note_on_c, 2, 81, 90
4, 267714, Note_on_c, 2, 81, 0
4, 267720, Note_on_c, 2, 80, 90
4, 267744, Note_on_c, 2, 80, 0
4, 267750, Note_on_c, 2, 81, 90
4, 267774, Note_on_c, 2, 81, 0
4, 267774, End_track
5, 0, Start_track
5, 0, MIDI_port, 0
5, 0, Title_t, "Piano"
5, 0, Program_c, 3, 42
5, 0, Control_c, 3, 7, 127
5, 0, Control_c, 3, 10, 93
5, 0, Control_c, 3, 91, 127
5, 0, Control_c, 3, 93, 0
5, 0, Note_on_c, 3, 65, 70
5, 288, Note_on_c, 3, 65, 0
5, 360, Note_on_c, 3, 67, 74
5, 456, Note_on_c, 3, 67, 0
5, 480, Note_on_c, 3, 69, 74
5, 576, Note_on_c, 3, 69, 0
5, 600, Note_on_c, 3, 64, 74
5, 696, Note_on_c, 3, 64, 0
5, 720, Note_on_c, 3, 61, 74
5, 816, Note_on_c, 3, 61, 0
5, 1080, Note_on_c, 3, 66, 74
5, 1128, Note_on_c, 3, 66, 0
5, 1140, Note_on_c, 3, 67, 74
5, 1188, Note_on_c, 3, 67, 0
5, 1200, Note_on_c, 3, 69, 74
5, 1296, Note_on_c, 3, 69, 0
5, 1320, Note_on_c, 3, 62, 74
5, 1416, Note_on_c, 3, 62, 0
5, 1440, Note_on_c, 3, 67, 74
5, 1488, Note_on_c, 3, 67, 0
5, 1500, Note_on_c, 3, 66, 74
5, 1548, Note_on_c, 3, 66, 0
5, 1560, Note_on_c, 3, 67, 74
5, 1608, Note_on_c, 3, 67, 0
5, 1620, Note_on_c, 3, 69, 74
5, 1668, Note_on_c, 3, 69, 0
5, 1680, Note_on_c, 3, 67, 74
5, 1728, Note_on_c, 3, 67, 0
5, 1740, Note_on_c, 3, 65, 74
5, 1788, Note_on_c, 3, 65, 0
5, 1800, Note_on_c, 3, 64, 74
5, 1848, Note_on_c, 3, 64, 0
5, 1860, Note_on_c, 3, 62, 74
5, 1908, Note_on_c, 3, 62, 0
5, 1920, Note_on_c, 3, 61, 74
5, 1968, Note_on_c, 3, 61, 0
5, 1980, Note_on_c, 3, 62, 74
5, 2028, Note_on_c, 3, 62, 0
5, 2040, Note_on_c, 3, 64, 74
5, 2088, Note_on_c, 3, 64, 0
5, 2100, Note_on_c, 3, 65, 74
5, 2148, Note_on_c, 3, 65, 0
5, 2160, Note_on_c, 3, 67, 74
5, 2208, Note_on_c, 3, 67, 0
5, 2220, Note_on_c, 3, 69, 74
5, 2268, Note_on_c, 3, 69, 0
5, 2280, Note_on_c, 3, 70, 74
5, 2328, Note_on_c, 3, 70, 0
5, 2340, Note_on_c, 3, 67, 74
5, 2388, Note_on_c, 3, 67, 0
5, 2400, Note_on_c, 3, 69, 74
5, 2496, Note_on_c, 3, 69, 0
5, 2520, Note_on_c, 3, 61, 74
5, 2616, Note_on_c, 3, 61, 0
5, 2640, Note_on_c, 3, 62, 74
5, 2736, Note_on_c, 3, 62, 0
5, 2760, Note_on_c, 3, 67, 74
5, 2856, Note_on_c, 3, 67, 0
5, 2880, Note_on_c, 3, 62, 74
5, 2880, Note_on_c, 3, 65, 74
5, 3072, Note_on_c, 3, 65, 0
5, 3072, Note_on_c, 3, 62, 0
5, 3120, Note_on_c, 3, 64, 74
5, 3120, Note_on_c, 3, 61, 74
5, 3312, Note_on_c, 3, 61, 0
5, 3312, Note_on_c, 3, 64, 0
5, 3360, Note_on_c, 3, 62, 74
5, 3456, Note_on_c, 3, 62, 0
5, 3480, Note_on_c, 3, 57, 74
5, 3576, Note_on_c, 3, 57, 0
5, 3600, Note_on_c, 3, 57, 74
5, 3648, Note_on_c, 3, 57, 0
5, 3660, Note_on_c, 3, 59, 74
5, 3708, Note_on_c, 3, 59, 0
5, 3720, Note_on_c, 3, 60, 74
5, 3768, Note_on_c, 3, 60, 0
5, 3780, Note_on_c, 3, 62, 74
5, 3828, Note_on_c, 3, 62, 0
5, 3840, Note_on_c, 3, 64, 54
5, 3936, Note_on_c, 3, 64, 0
5, 3960, Note_on_c, 3, 60, 54
5, 4056, Note_on_c, 3, 60, 0
5, 4080, Note_on_c, 3, 57, 54
5, 4272, Note_on_c, 3, 57, 0
5, 4320, Note_on_c, 3, 59, 54
5, 4416, Note_on_c, 3, 59, 0
5, 4440, Note_on_c, 3, 64, 54
5, 4536, Note_on_c, 3, 64, 0
5, 4560, Note_on_c, 3, 68, 54
5, 4752, Note_on_c, 3, 68, 0
5, 4800, Note_on_c, 3, 69, 54
5, 4896, Note_on_c, 3, 69, 0
5, 4920, Note_on_c, 3, 64, 54
5, 5016, Note_on_c, 3, 64, 0
5, 5040, Note_on_c, 3, 76, 54
5, 5136, Note_on_c, 3, 76, 0
5, 5160, Note_on_c, 3, 69, 54
5, 5256, Note_on_c, 3, 69, 0
5, 5400, Note_on_c, 3, 69, 54
5, 5496, Note_on_c, 3, 69, 0
5, 5520, Note_on_c, 3, 57, 54
5, 5616, Note_on_c, 3, 57, 0
5, 5640, Note_on_c, 3, 62, 54
5, 5736, Note_on_c, 3, 62, 0
5, 5880, Note_on_c, 3, 65, 54
5, 5976, Note_on_c, 3, 65, 0
5, 6000, Note_on_c, 3, 59, 54
5, 6096, Note_on_c, 3, 59, 0
5, 6120, Note_on_c, 3, 62, 54
5, 6216, Note_on_c, 3, 62, 0
5, 6360, Note_on_c, 3, 68, 54
5, 6456, Note_on_c, 3, 68, 0
5, 6480, Note_on_c, 3, 64, 54
5, 6576, Note_on_c, 3, 64, 0
5, 6600, Note_on_c, 3, 69, 54
5, 6696, Note_on_c, 3, 69, 0
5, 6720, Note_on_c, 3, 64, 54
5, 6816, Note_on_c, 3, 64, 0
5, 6840, Note_on_c, 3, 65, 54
5, 7032, Note_on_c, 3, 65, 0
5, 7080, Note_on_c, 3, 64, 54
5, 7128, Note_on_c, 3, 64, 0
5, 7140, Note_on_c, 3, 62, 54
5, 7188, Note_on_c, 3, 62, 0
5, 7200, Note_on_c, 3, 60, 54
5, 7296, Note_on_c, 3, 60, 0
5, 7320, Note_on_c, 3, 64, 54
5, 7416, Note_on_c, 3, 64, 0
5, 7440, Note_on_c, 3, 69, 54
5, 7536, Note_on_c, 3, 69, 0
5, 7560, Note_on_c, 3, 57, 54
5, 7656, Note_on_c, 3, 57, 0
5, 7680, Note_on_c, 3, 64, 54
5, 7872, Note_on_c, 3, 64, 0
5, 8520, Note_on_c, 3, 61, 54
5, 8616, Note_on_c, 3, 61, 0
5, 8640, Note_on_c, 3, 69, 54
5, 8688, Note_on_c, 3, 69, 0
5, 8700, Note_on_c, 3, 67, 54
5, 8748, Note_on_c, 3, 67, 0
5, 8760, Note_on_c, 3, 65, 54
5, 8808, Note_on_c, 3, 65, 0
5, 8820, Note_on_c, 3, 64, 54
5, 8868, Note_on_c, 3, 64, 0
5, 8880, Note_on_c, 3, 62, 54
5, 8928, Note_on_c, 3, 62, 0
5, 8940, Note_on_c, 3, 61, 54
5, 8988, Note_on_c, 3, 61, 0
5, 9000, Note_on_c, 3, 62, 54
5, 9048, Note_on_c, 3, 62, 0
5, 9060, Note_on_c, 3, 64, 54
5, 9108, Note_on_c, 3, 64, 0
5, 9120, Note_on_c, 3, 57, 54
5, 9216, Note_on_c, 3, 57, 0
5, 9240, Note_on_c, 3, 64, 54
5, 9336, Note_on_c, 3, 64, 0
5, 9360, Note_on_c, 3, 67, 54
5, 9456, Note_on_c, 3, 67, 0
5, 9480, Note_on_c, 3, 64, 54
5, 9576, Note_on_c, 3, 64, 0
5, 9720, Note_on_c, 3, 69, 54
5, 9816, Note_on_c, 3, 69, 0
5, 9840, Note_on_c, 3, 57, 54
5, 9936, Note_on_c, 3, 57, 0
5, 9960, Note_on_c, 3, 69, 54
5, 10056, Note_on_c, 3, 69, 0
5, 10200, Note_on_c, 3, 62, 54
5, 10296, Note_on_c, 3, 62, 0
5, 10320, Note_on_c, 3, 67, 54
5, 10416, Note_on_c, 3, 67, 0
5, 10440, Note_on_c, 3, 59, 54
5, 10536, Note_on_c, 3, 59, 0
5, 10560, Note_on_c, 3, 60, 54
5, 10656, Note_on_c, 3, 60, 0
5, 10680, Note_on_c, 3, 61, 54
5, 10872, Note_on_c, 3, 61, 0
5, 10920, Note_on_c, 3, 62, 54
5, 11016, Note_on_c, 3, 62, 0
5, 11040, Note_on_c, 3, 64, 54
5, 11136, Note_on_c, 3, 64, 0
5, 11160, Note_on_c, 3, 64, 54
5, 11256, Note_on_c, 3, 64, 0
5, 11280, Note_on_c, 3, 65, 54
5, 11376, Note_on_c, 3, 65, 0
5, 11400, Note_on_c, 3, 58, 54
5, 11496, Note_on_c, 3, 58, 0
5, 11520, Note_on_c, 3, 57, 54
5, 11616, Note_on_c, 3, 57, 0
5, 11640, Note_on_c, 3, 65, 54
5, 11736, Note_on_c, 3, 65, 0
5, 11760, Note_on_c, 3, 70, 54
5, 11856, Note_on_c, 3, 70, 0
5, 11880, Note_on_c, 3, 67, 54
5, 11976, Note_on_c, 3, 67, 0
5, 12000, Note_on_c, 3, 69, 54
5, 12048, Note_on_c, 3, 69, 0
5, 12060, Note_on_c, 3, 67, 54
5, 12108, Note_on_c, 3, 67, 0
5, 12120, Note_on_c, 3, 65, 54
5, 12168, Note_on_c, 3, 65, 0
5, 12180, Note_on_c, 3, 64, 54
5, 12228, Note_on_c, 3, 64, 0
5, 12240, Note_on_c, 3, 62, 54
5, 12288, Note_on_c, 3, 62, 0
5, 12300, Note_on_c, 3, 64, 54
5, 12348, Note_on_c, 3, 64, 0
5, 12360, Note_on_c, 3, 65, 54
5, 12408, Note_on_c, 3, 65, 0
5, 12420, Note_on_c, 3, 67, 54
5, 12468, Note_on_c, 3, 67, 0
5, 12480, Note_on_c, 3, 69, 54
5, 12576, Note_on_c, 3, 69, 0
5, 12600, Note_on_c, 3, 64, 54
5, 12696, Note_on_c, 3, 64, 0
5, 12840, Note_on_c, 3, 69, 54
5, 12936, Note_on_c, 3, 69, 0
5, 12960, Note_on_c, 3, 62, 54
5, 13056, Note_on_c, 3, 62, 0
5, 13080, Note_on_c, 3, 66, 54
5, 13176, Note_on_c, 3, 66, 0
5, 13200, Note_on_c, 3, 69, 54
5, 13296, Note_on_c, 3, 69, 0
5, 13320, Note_on_c, 3, 66, 54
5, 13416, Note_on_c, 3, 66, 0
5, 13440, Note_on_c, 3, 62, 54
5, 13536, Note_on_c, 3, 62, 0
5, 13560, Note_on_c, 3, 67, 54
5, 13656, Note_on_c, 3, 67, 0
5, 13800, Note_on_c, 3, 62, 54
5, 13980, Note_on_c, 3, 62, 0
5, 13980, Note_on_c, 3, 55, 54
5, 14028, Note_on_c, 3, 55, 0
5, 14040, Note_on_c, 3, 57, 54
5, 14088, Note_on_c, 3, 57, 0
5, 14100, Note_on_c, 3, 58, 54
5, 14148, Note_on_c, 3, 58, 0
5, 14160, Note_on_c, 3, 60, 54
5, 14208, Note_on_c, 3, 60, 0
5, 14220, Note_on_c, 3, 62, 54
5, 14268, Note_on_c, 3, 62, 0
5, 14280, Note_on_c, 3, 63, 54
5, 14328, Note_on_c, 3, 63, 0
5, 14340, Note_on_c, 3, 65, 54
5, 14388, Note_on_c, 3, 65, 0
5, 14400, Note_on_c, 3, 63, 54
5, 14448, Note_on_c, 3, 63, 0
5, 14460, Note_on_c, 3, 62, 54
5, 14508, Note_on_c, 3, 62, 0
5, 14520, Note_on_c, 3, 60, 54
5, 14568, Note_on_c, 3, 60, 0
5, 14580, Note_on_c, 3, 58, 54
5, 14628, Note_on_c, 3, 58, 0
5, 14640, Note_on_c, 3, 57, 54
5, 14688, Note_on_c, 3, 57, 0
5, 14700, Note_on_c, 3, 58, 54
5, 14748, Note_on_c, 3, 58, 0
5, 14760, Note_on_c, 3, 60, 54
5, 14808, Note_on_c, 3, 60, 0
5, 14820, Note_on_c, 3, 57, 54
5, 14868, Note_on_c, 3, 57, 0
5, 14880, Note_on_c, 3, 69, 54
5, 14928, Note_on_c, 3, 69, 0
5, 14940, Note_on_c, 3, 67, 54
5, 14988, Note_on_c, 3, 67, 0
5, 15000, Note_on_c, 3, 66, 54
5, 15048, Note_on_c, 3, 66, 0
5, 15060, Note_on_c, 3, 64, 54
5, 15108, Note_on_c, 3, 64, 0
5, 15120, Note_on_c, 3, 62, 54
5, 15168, Note_on_c, 3, 62, 0
5, 15180, Note_on_c, 3, 60, 54
5, 15228, Note_on_c, 3, 60, 0
5, 15240, Note_on_c, 3, 58, 54
5, 15288, Note_on_c, 3, 58, 0
5, 15300, Note_on_c, 3, 57, 54
5, 15348, Note_on_c, 3, 57, 0
5, 15360, Note_on_c, 3, 58, 54
5, 15408, Note_on_c, 3, 58, 0
5, 15420, Note_on_c, 3, 62, 54
5, 15468, Note_on_c, 3, 62, 0
5, 15480, Note_on_c, 3, 61, 54
5, 15528, Note_on_c, 3, 61, 0
5, 15540, Note_on_c, 3, 62, 54
5, 15588, Note_on_c, 3, 62, 0
5, 15600, Note_on_c, 3, 64, 54
5, 15696, Note_on_c, 3, 64, 0
5, 15720, Note_on_c, 3, 62, 54
5, 15960, Note_on_c, 3, 62, 0
5, 15960, Note_on_c, 3, 64, 54
5, 16008, Note_on_c, 3, 64, 0
5, 16020, Note_on_c, 3, 65, 54
5, 16068, Note_on_c, 3, 65, 0
5, 16080, Note_on_c, 3, 67, 54
5, 16128, Note_on_c, 3, 67, 0
5, 16140, Note_on_c, 3, 69, 54
5, 16188, Note_on_c, 3, 69, 0
5, 16200, Note_on_c, 3, 67, 54
5, 16248, Note_on_c, 3, 67, 0
5, 16260, Note_on_c, 3, 69, 54
5, 16308, Note_on_c, 3, 69, 0
5, 16320, Note_on_c, 3, 65, 54
5, 16416, Note_on_c, 3, 65, 0
5, 16440, Note_on_c, 3, 57, 54
5, 16536, Note_on_c, 3, 57, 0
5, 16560, Note_on_c, 3, 62, 54
5, 16656, Note_on_c, 3, 62, 0
5, 16680, Note_on_c, 3, 65, 54
5, 16776, Note_on_c, 3, 65, 0
5, 16800, Note_on_c, 3, 64, 54
5, 16896, Note_on_c, 3, 64, 0
5, 16920, Note_on_c, 3, 61, 54
5, 17016, Note_on_c, 3, 61, 0
5, 17040, Note_on_c, 3, 64, 54
5, 17136, Note_on_c, 3, 64, 0
5, 17160, Note_on_c, 3, 61, 54
5, 17256, Note_on_c, 3, 61, 0
5, 17280, Note_on_c, 3, 57, 54
5, 17376, Note_on_c, 3, 57, 0
5, 17400, Note_on_c, 3, 62, 54
5, 17496, Note_on_c, 3, 62, 0
5, 17640, Note_on_c, 3, 69, 54
5, 17820, Note_on_c, 3, 69, 0
5, 17820, Note_on_c, 3, 62, 54
5, 17868, Note_on_c, 3, 62, 0
5, 17880, Note_on_c, 3, 64, 54
5, 17928, Note_on_c, 3, 64, 0
5, 17940, Note_on_c, 3, 66, 54
5, 17988, Note_on_c, 3, 66, 0
5, 18000, Note_on_c, 3, 67, 54
5, 18048, Note_on_c, 3, 67, 0
5, 18060, Note_on_c, 3, 69, 54
5, 18108, Note_on_c, 3, 69, 0
5, 18120, Note_on_c, 3, 70, 54
5, 18168, Note_on_c, 3, 70, 0
5, 18180, Note_on_c, 3, 72, 54
5, 18228, Note_on_c, 3, 72, 0
5, 18240, Note_on_c, 3, 70, 54
5, 18288, Note_on_c, 3, 70, 0
5, 18300, Note_on_c, 3, 69, 54
5, 18348, Note_on_c, 3, 69, 0
5, 18360, Note_on_c, 3, 70, 54
5, 18408, Note_on_c, 3, 70, 0
5, 18420, Note_on_c, 3, 69, 54
5, 18468, Note_on_c, 3, 69, 0
5, 18480, Note_on_c, 3, 67, 54
5, 18576, Note_on_c, 3, 67, 0
5, 18600, Note_on_c, 3, 55, 54
5, 18696, Note_on_c, 3, 55, 0
5, 18720, Note_on_c, 3, 62, 54
5, 18768, Note_on_c, 3, 62, 0
5, 18780, Note_on_c, 3, 61, 54
5, 18828, Note_on_c, 3, 61, 0
5, 18840, Note_on_c, 3, 62, 54
5, 18888, Note_on_c, 3, 62, 0
5, 18900, Note_on_c, 3, 64, 54
5, 18948, Note_on_c, 3, 64, 0
5, 18960, Note_on_c, 3, 65, 54
5, 19008, Note_on_c, 3, 65, 0
5, 19020, Note_on_c, 3, 67, 54
5, 19068, Note_on_c, 3, 67, 0
5, 19080, Note_on_c, 3, 69, 54
5, 19176, Note_on_c, 3, 69, 0
5, 19200, Note_on_c, 3, 57, 54
5, 19296, Note_on_c, 3, 57, 0
5, 19320, Note_on_c, 3, 62, 54
5, 19416, Note_on_c, 3, 62, 0
5, 19440, Note_on_c, 3, 70, 54
5, 19440, Note_on_c, 3, 62, 54
5, 19440, Note_on_c, 3, 64, 54
5, 19536, Note_on_c, 3, 64, 0
5, 19536, Note_on_c, 3, 62, 0
5, 19536, Note_on_c, 3, 70, 0
5, 19560, Note_on_c, 3, 64, 54
5, 19560, Note_on_c, 3, 69, 54
5, 19560, Note_on_c, 3, 61, 54
5, 19656, Note_on_c, 3, 61, 0
5, 19656, Note_on_c, 3, 69, 0
5, 19656, Note_on_c, 3, 64, 0
5, 19680, Note_on_c, 3, 65, 54
5, 19680, Note_on_c, 3, 57, 54
5, 19680, Note_on_c, 3, 62, 54
5, 19872, Note_on_c, 3, 62, 0
5, 19872, Note_on_c, 3, 57, 0
5, 19872, Note_on_c, 3, 65, 0
5, 20160, Note_on_c, 3, 69, 42
5, 20160, Note_on_c, 3, 74, 42
5, 20160, Note_on_c, 3, 62, 42
5, 20256, Note_on_c, 3, 62, 0
5, 20256, Note_on_c, 3, 74, 0
5, 20256, Note_on_c, 3, 69, 0
5, 20400, Note_on_c, 3, 64, 42
5, 20400, Note_on_c, 3, 69, 42
5, 20400, Note_on_c, 3, 73, 42
5, 20496, Note_on_c, 3, 73, 0
5, 20496, Note_on_c, 3, 69, 0
5, 20496, Note_on_c, 3, 64, 0
5, 20640, Note_on_c, 3, 74, 42
5, 20640, Note_on_c, 3, 65, 42
5, 20640, Note_on_c, 3, 69, 42
5, 20736, Note_on_c, 3, 69, 0
5, 20736, Note_on_c, 3, 65, 0
5, 20736, Note_on_c, 3, 74, 0
5, 21120, Note_on_c, 3, 70, 42
5, 21120, Note_on_c, 3, 74, 42
5, 21120, Note_on_c, 3, 67, 42
5, 21216, Note_on_c, 3, 67, 0
5, 21216, Note_on_c, 3, 74, 0
5, 21216, Note_on_c, 3, 70, 0
5, 21360, Note_on_c, 3, 66, 42
5, 21360, Note_on_c, 3, 69, 42
5, 21360, Note_on_c, 3, 74, 42
5, 21456, Note_on_c, 3, 74, 0
5, 21456, Note_on_c, 3, 69, 0
5, 21456, Note_on_c, 3, 66, 0
5, 21600, Note_on_c, 3, 74, 42
5, 21600, Note_on_c, 3, 67, 42
5, 21600, Note_on_c, 3, 70, 42
5, 21696, Note_on_c, 3, 70, 0
5, 21696, Note_on_c, 3, 67, 0
5, 21696, Note_on_c, 3, 74, 0
5, 22080, Note_on_c, 3, 64, 42
5, 22080, Note_on_c, 3, 70, 42
5, 22176, Note_on_c, 3, 70, 0
5, 22176, Note_on_c, 3, 64, 0
5, 22320, Note_on_c, 3, 64, 42
5, 22320, Note_on_c, 3, 69, 42
5, 22416, Note_on_c, 3, 69, 0
5, 22416, Note_on_c, 3, 64, 0
5, 22560, Note_on_c, 3, 62, 42
5, 22560, Note_on_c, 3, 69, 42
5, 22656, Note_on_c, 3, 69, 0
5, 22656, Note_on_c, 3, 62, 0
5, 22800, Note_on_c, 3, 62, 42
5, 22800, Note_on_c, 3, 67, 42
5, 22896, Note_on_c, 3, 67, 0
5, 22896, Note_on_c, 3, 62, 0
5, 23040, Note_on_c, 3, 67, 42
5, 23040, Note_on_c, 3, 61, 42
5, 23136, Note_on_c, 3, 61, 0
5, 23136, Note_on_c, 3, 67, 0
5, 23280, Note_on_c, 3, 65, 42
5, 23280, Note_on_c, 3, 62, 42
5, 23376, Note_on_c, 3, 62, 0
5, 23376, Note_on_c, 3, 65, 0
5, 23520, Note_on_c, 3, 64, 42
5, 23520, Note_on_c, 3, 61, 42
5, 23520, Note_on_c, 3, 64, 42
5, 23616, Note_on_c, 3, 64, 0
5, 23616, Note_on_c, 3, 61, 0
5, 23616, Note_on_c, 3, 64, 0
5, 24000, Note_on_c, 3, 65, 42
5, 24000, Note_on_c, 3, 69, 42
5, 24000, Note_on_c, 3, 74, 42
5, 24096, Note_on_c, 3, 74, 0
5, 24096, Note_on_c, 3, 69, 0
5, 24096, Note_on_c, 3, 65, 0
5, 24240, Note_on_c, 3, 73, 42
5, 24240, Note_on_c, 3, 69, 42
5, 24240, Note_on_c, 3, 76, 42
5, 24336, Note_on_c, 3, 76, 0
5, 24336, Note_on_c, 3, 69, 0
5, 24336, Note_on_c, 3, 73, 0
5, 24480, Note_on_c, 3, 69, 42
5, 24480, Note_on_c, 3, 74, 42
5, 24480, Note_on_c, 3, 77, 42
5, 24576, Note_on_c, 3, 77, 0
5, 24576, Note_on_c, 3, 74, 0
5, 24576, Note_on_c, 3, 69, 0
5, 24960, Note_on_c, 3, 67, 54
5, 24960, Note_on_c, 3, 74, 54
5, 24960, Note_on_c, 3, 79, 54
5, 25056, Note_on_c, 3, 79, 0
5, 25056, Note_on_c, 3, 74, 0
5, 25056, Note_on_c, 3, 67, 0
5, 25200, Note_on_c, 3, 74, 54
5, 25200, Note_on_c, 3, 69, 54
5, 25200, Note_on_c, 3, 78, 54
5, 25296, Note_on_c, 3, 78, 0
5, 25296, Note_on_c, 3, 69, 0
5, 25296, Note_on_c, 3, 74, 0
5, 25440, Note_on_c, 3, 70, 54
5, 25440, Note_on_c, 3, 74, 54
5, 25440, Note_on_c, 3, 79, 54
5, 25536, Note_on_c, 3, 79, 0
5, 25536, Note_on_c, 3, 74, 0
5, 25536, Note_on_c, 3, 70, 0
5, 25920, Note_on_c, 3, 82, 54
5, 25920, Note_on_c, 3, 76, 54
5, 26016, Note_on_c, 3, 76, 0
5, 26016, Note_on_c, 3, 82, 0
5, 26160, Note_on_c, 3, 81, 54
5, 26160, Note_on_c, 3, 76, 54
5, 26256, Note_on_c, 3, 76, 0
5, 26256, Note_on_c, 3, 81, 0
5, 26400, Note_on_c, 3, 74, 54
5, 26400, Note_on_c, 3, 81, 54
5, 26496, Note_on_c, 3, 81, 0
5, 26496, Note_on_c, 3, 74, 0
5, 26640, Note_on_c, 3, 74, 54
5, 26640, Note_on_c, 3, 79, 54
5, 26736, Note_on_c, 3, 79, 0
5, 26736, Note_on_c, 3, 74, 0
5, 26880, Note_on_c, 3, 79, 54
5, 26880, Note_on_c, 3, 73, 54
5, 26976, Note_on_c, 3, 73, 0
5, 26976, Note_on_c, 3, 79, 0
5, 27120, Note_on_c, 3, 77, 54
5, 27120, Note_on_c, 3, 74, 54
5, 27216, Note_on_c, 3, 74, 0
5, 27216, Note_on_c, 3, 77, 0
5, 27360, Note_on_c, 3, 69, 54
5, 27360, Note_on_c, 3, 76, 54
5, 27456, Note_on_c, 3, 76, 0
5, 27456, Note_on_c, 3, 69, 0
5, 27840, Note_on_c, 3, 62, 54
5, 27888, Note_on_c, 3, 62, 0
5, 27900, Note_on_c, 3, 64, 54
5, 27948, Note_on_c, 3, 64, 0
5, 27960, Note_on_c, 3, 65, 54
5, 28008, Note_on_c, 3, 65, 0
5, 28020, Note_on_c, 3, 67, 54
5, 28068, Note_on_c, 3, 67, 0
5, 28080, Note_on_c, 3, 69, 54
5, 28176, Note_on_c, 3, 69, 0
5, 28200, Note_on_c, 3, 74, 54
5, 28296, Note_on_c, 3, 74, 0
5, 28320, Note_on_c, 3, 71, 54
5, 28416, Note_on_c, 3, 71, 0
5, 28440, Note_on_c, 3, 67, 54
5, 28536, Note_on_c, 3, 67, 0
5, 28800, Note_on_c, 3, 60, 54
5, 28848, Note_on_c, 3, 60, 0
5, 28860, Note_on_c, 3, 62, 54
5, 28908, Note_on_c, 3, 62, 0
5, 28920, Note_on_c, 3, 64, 54
5, 28968, Note_on_c, 3, 64, 0
5, 28980, Note_on_c, 3, 65, 54
5, 29028, Note_on_c, 3, 65, 0
5, 29040, Note_on_c, 3, 67, 54
5, 29136, Note_on_c, 3, 67, 0
5, 29160, Note_on_c, 3, 72, 54
5, 29256, Note_on_c, 3, 72, 0
5, 29280, Note_on_c, 3, 69, 54
5, 29376, Note_on_c, 3, 69, 0
5, 29400, Note_on_c, 3, 65, 54
5, 29496, Note_on_c, 3, 65, 0
5, 31680, Note_on_c, 3, 65, 68
5, 31728, Note_on_c, 3, 65, 0
5, 31740, Note_on_c, 3, 67, 68
5, 31788, Note_on_c, 3, 67, 0
5, 31800, Note_on_c, 3, 69, 68
5, 31848, Note_on_c, 3, 69, 0
5, 31860, Note_on_c, 3, 70, 68
5, 31908, Note_on_c, 3, 70, 0
5, 31920, Note_on_c, 3, 72, 68
5, 32016, Note_on_c, 3, 72, 0
5, 32040, Note_on_c, 3, 77, 68
5, 32136, Note_on_c, 3, 77, 0
5, 32160, Note_on_c, 3, 74, 68
5, 32256, Note_on_c, 3, 74, 0
5, 32280, Note_on_c, 3, 71, 68
5, 32376, Note_on_c, 3, 71, 0
5, 32640, Note_on_c, 3, 64, 68
5, 32688, Note_on_c, 3, 64, 0
5, 32700, Note_on_c, 3, 66, 68
5, 32748, Note_on_c, 3, 66, 0
5, 32760, Note_on_c, 3, 68, 68
5, 32808, Note_on_c, 3, 68, 0
5, 32820, Note_on_c, 3, 69, 68
5, 32868, Note_on_c, 3, 69, 0
5, 32880, Note_on_c, 3, 71, 68
5, 32976, Note_on_c, 3, 71, 0
5, 33000, Note_on_c, 3, 76, 68
5, 33096, Note_on_c, 3, 76, 0
5, 33120, Note_on_c, 3, 73, 68
5, 33216, Note_on_c, 3, 73, 0
5, 33240, Note_on_c, 3, 69, 68
5, 33336, Note_on_c, 3, 69, 0
5, 35520, Note_on_c, 3, 64, 55
5, 35520, Note_on_c, 3, 69, 55
5, 35520, Note_on_c, 3, 60, 55
5, 35616, Note_on_c, 3, 60, 0
5, 35616, Note_on_c, 3, 69, 0
5, 35616, Note_on_c, 3, 64, 0
5, 35760, Note_on_c, 3, 68, 55
5, 35760, Note_on_c, 3, 59, 55
5, 35760, Note_on_c, 3, 64, 55
5, 35856, Note_on_c, 3, 64, 0
5, 35856, Note_on_c, 3, 59, 0
5, 35856, Note_on_c, 3, 68, 0
5, 36000, Note_on_c, 3, 69, 55
5, 36000, Note_on_c, 3, 64, 55
5, 36000, Note_on_c, 3, 60, 55
5, 36096, Note_on_c, 3, 60, 0
5, 36096, Note_on_c, 3, 64, 0
5, 36096, Note_on_c, 3, 69, 0
5, 36480, Note_on_c, 3, 65, 55
5, 36480, Note_on_c, 3, 69, 55
5, 36480, Note_on_c, 3, 62, 55
5, 36576, Note_on_c, 3, 62, 0
5, 36576, Note_on_c, 3, 69, 0
5, 36576, Note_on_c, 3, 65, 0
5, 36720, Note_on_c, 3, 61, 55
5, 36720, Note_on_c, 3, 64, 55
5, 36720, Note_on_c, 3, 69, 55
5, 36816, Note_on_c, 3, 69, 0
5, 36816, Note_on_c, 3, 64, 0
5, 36816, Note_on_c, 3, 61, 0
5, 36960, Note_on_c, 3, 69, 55
5, 36960, Note_on_c, 3, 62, 55
5, 36960, Note_on_c, 3, 65, 55
5, 37056, Note_on_c, 3, 65, 0
5, 37056, Note_on_c, 3, 62, 0
5, 37056, Note_on_c, 3, 69, 0
5, 37440, Note_on_c, 3, 71, 55
5, 37440, Note_on_c, 3, 77, 55
5, 37536, Note_on_c, 3, 77, 0
5, 37536, Note_on_c, 3, 71, 0
5, 37680, Note_on_c, 3, 76, 55
5, 37680, Note_on_c, 3, 71, 55
5, 37776, Note_on_c, 3, 71, 0
5, 37776, Note_on_c, 3, 76, 0
5, 37920, Note_on_c, 3, 76, 55
5, 37920, Note_on_c, 3, 69, 55
5, 38016, Note_on_c, 3, 69, 0
5, 38016, Note_on_c, 3, 76, 0
5, 38160, Note_on_c, 3, 74, 55
5, 38160, Note_on_c, 3, 69, 55
5, 38256, Note_on_c, 3, 69, 0
5, 38256, Note_on_c, 3, 74, 0
5, 38400, Note_on_c, 3, 68, 55
5, 38400, Note_on_c, 3, 74, 55
5, 38496, Note_on_c, 3, 74, 0
5, 38496, Note_on_c, 3, 68, 0
5, 38640, Note_on_c, 3, 69, 55
5, 38640, Note_on_c, 3, 72, 55
5, 38736, Note_on_c, 3, 72, 0
5, 38736, Note_on_c, 3, 69, 0
5, 38880, Note_on_c, 3, 64, 55
5, 38880, Note_on_c, 3, 71, 55
5, 38976, Note_on_c, 3, 71, 0
5, 38976, Note_on_c, 3, 64, 0
5, 39360, Note_on_c, 3, 69, 55
5, 39360, Note_on_c, 3, 60, 55
5, 39360, Note_on_c, 3, 64, 55
5, 39456, Note_on_c, 3, 64, 0
5, 39456, Note_on_c, 3, 60, 0
5, 39456, Note_on_c, 3, 69, 0
5, 39600, Note_on_c, 3, 68, 55
5, 39600, Note_on_c, 3, 71, 55
5, 39600, Note_on_c, 3, 64, 55
5, 39696, Note_on_c, 3, 64, 0
5, 39696, Note_on_c, 3, 71, 0
5, 39696, Note_on_c, 3, 68, 0
5, 39840, Note_on_c, 3, 64, 55
5, 39840, Note_on_c, 3, 69, 55
5, 39840, Note_on_c, 3, 72, 55
5, 39936, Note_on_c, 3, 72, 0
5, 39936, Note_on_c, 3, 69, 0
5, 39936, Note_on_c, 3, 64, 0
5, 40320, Note_on_c, 3, 62, 55
5, 40320, Note_on_c, 3, 69, 55
5, 40320, Note_on_c, 3, 74, 55
5, 40416, Note_on_c, 3, 74, 0
5, 40416, Note_on_c, 3, 69, 0
5, 40416, Note_on_c, 3, 62, 0
5, 40560, Note_on_c, 3, 69, 55
5, 40560, Note_on_c, 3, 73, 55
5, 40560, Note_on_c, 3, 64, 55
5, 40656, Note_on_c, 3, 64, 0
5, 40656, Note_on_c, 3, 73, 0
5, 40656, Note_on_c, 3, 69, 0
5, 40800, Note_on_c, 3, 65, 55
5, 40800, Note_on_c, 3, 69, 55
5, 40800, Note_on_c, 3, 74, 55
5, 40896, Note_on_c, 3, 74, 0
5, 40896, Note_on_c, 3, 69, 0
5, 40896, Note_on_c, 3, 65, 0
5, 41280, Note_on_c, 3, 77, 55
5, 41280, Note_on_c, 3, 71, 55
5, 41376, Note_on_c, 3, 71, 0
5, 41376, Note_on_c, 3, 77, 0
5, 41520, Note_on_c, 3, 71, 55
5, 41520, Note_on_c, 3, 76, 55
5, 41616, Note_on_c, 3, 76, 0
5, 41616, Note_on_c, 3, 71, 0
5, 41760, Note_on_c, 3, 69, 55
5, 41760, Note_on_c, 3, 76, 55
5, 41856, Note_on_c, 3, 76, 0
5, 41856, Note_on_c, 3, 69, 0
5, 42000, Note_on_c, 3, 74, 55
5, 42000, Note_on_c, 3, 69, 55
5, 42096, Note_on_c, 3, 69, 0
5, 42096, Note_on_c, 3, 74, 0
5, 42240, Note_on_c, 3, 68, 55
5, 42240, Note_on_c, 3, 74, 55
5, 42336, Note_on_c, 3, 74, 0
5, 42336, Note_on_c, 3, 68, 0
5, 42480, Note_on_c, 3, 72, 55
5, 42480, Note_on_c, 3, 69, 55
5, 42576, Note_on_c, 3, 69, 0
5, 42576, Note_on_c, 3, 72, 0
5, 42720, Note_on_c, 3, 64, 55
5, 42720, Note_on_c, 3, 71, 55
5, 42816, Note_on_c, 3, 71, 0
5, 42816, Note_on_c, 3, 64, 0
5, 43200, Note_on_c, 3, 64, 69
5, 43296, Note_on_c, 3, 64, 0
5, 43320, Note_on_c, 3, 60, 69
5, 43416, Note_on_c, 3, 60, 0
5, 43440, Note_on_c, 3, 57, 69
5, 43632, Note_on_c, 3, 57, 0
5, 43680, Note_on_c, 3, 59, 69
5, 43776, Note_on_c, 3, 59, 0
5, 43800, Note_on_c, 3, 64, 69
5, 43896, Note_on_c, 3, 64, 0
5, 43920, Note_on_c, 3, 68, 69
5, 44112, Note_on_c, 3, 68, 0
5, 44160, Note_on_c, 3, 69, 69
5, 44256, Note_on_c, 3, 69, 0
5, 44280, Note_on_c, 3, 64, 69
5, 44376, Note_on_c, 3, 64, 0
5, 44400, Note_on_c, 3, 76, 69
5, 44496, Note_on_c, 3, 76, 0
5, 44520, Note_on_c, 3, 69, 69
5, 44616, Note_on_c, 3, 69, 0
5, 44760, Note_on_c, 3, 69, 69
5, 44856, Note_on_c, 3, 69, 0
5, 44880, Note_on_c, 3, 57, 69
5, 44976, Note_on_c, 3, 57, 0
5, 45000, Note_on_c, 3, 62, 69
5, 45096, Note_on_c, 3, 62, 0
5, 45240, Note_on_c, 3, 65, 69
5, 45336, Note_on_c, 3, 65, 0
5, 45360, Note_on_c, 3, 59, 69
5, 45456, Note_on_c, 3, 59, 0
5, 45480, Note_on_c, 3, 62, 69
5, 45576, Note_on_c, 3, 62, 0
5, 46080, Note_on_c, 3, 64, 69
5, 46176, Note_on_c, 3, 64, 0
5, 46200, Note_on_c, 3, 65, 69
5, 46392, Note_on_c, 3, 65, 0
5, 46440, Note_on_c, 3, 64, 69
5, 46488, Note_on_c, 3, 64, 0
5, 46500, Note_on_c, 3, 62, 69
5, 46548, Note_on_c, 3, 62, 0
5, 46560, Note_on_c, 3, 60, 69
5, 46752, Note_on_c, 3, 60, 0
5, 47040, Note_on_c, 3, 64, 55
5, 47136, Note_on_c, 3, 64, 0
5, 47160, Note_on_c, 3, 64, 55
5, 47256, Note_on_c, 3, 64, 0
5, 47280, Note_on_c, 3, 64, 55
5, 47376, Note_on_c, 3, 64, 0
5, 47400, Note_on_c, 3, 64, 55
5, 47496, Note_on_c, 3, 64, 0
5, 47520, Note_on_c, 3, 64, 55
5, 47616, Note_on_c, 3, 64, 0
5, 47640, Note_on_c, 3, 64, 55
5, 47736, Note_on_c, 3, 64, 0
5, 47760, Note_on_c, 3, 64, 55
5, 47856, Note_on_c, 3, 64, 0
5, 47880, Note_on_c, 3, 64, 55
5, 47976, Note_on_c, 3, 64, 0
5, 48000, Note_on_c, 3, 64, 55
5, 48096, Note_on_c, 3, 64, 0
5, 48120, Note_on_c, 3, 64, 55
5, 48216, Note_on_c, 3, 64, 0
5, 48240, Note_on_c, 3, 64, 55
5, 48336, Note_on_c, 3, 64, 0
5, 48360, Note_on_c, 3, 64, 55
5, 48456, Note_on_c, 3, 64, 0
5, 48480, Note_on_c, 3, 64, 55
5, 48576, Note_on_c, 3, 64, 0
5, 48600, Note_on_c, 3, 64, 55
5, 48696, Note_on_c, 3, 64, 0
5, 49560, Note_on_c, 3, 57, 55
5, 49656, Note_on_c, 3, 57, 0
5, 49680, Note_on_c, 3, 57, 55
5, 49776, Note_on_c, 3, 57, 0
5, 49800, Note_on_c, 3, 57, 55
5, 49896, Note_on_c, 3, 57, 0
5, 49920, Note_on_c, 3, 57, 55
5, 50016, Note_on_c, 3, 57, 0
5, 50040, Note_on_c, 3, 57, 55
5, 50136, Note_on_c, 3, 57, 0
5, 50160, Note_on_c, 3, 57, 55
5, 50256, Note_on_c, 3, 57, 0
5, 50280, Note_on_c, 3, 57, 55
5, 50376, Note_on_c, 3, 57, 0
5, 50400, Note_on_c, 3, 57, 55
5, 50496, Note_on_c, 3, 57, 0
5, 50520, Note_on_c, 3, 69, 55
5, 50616, Note_on_c, 3, 69, 0
5, 50640, Note_on_c, 3, 74, 55
5, 50736, Note_on_c, 3, 74, 0
5, 50760, Note_on_c, 3, 62, 55
5, 50856, Note_on_c, 3, 62, 0
5, 50880, Note_on_c, 3, 64, 55
5, 51072, Note_on_c, 3, 64, 0
5, 51240, Note_on_c, 3, 57, 55
5, 51336, Note_on_c, 3, 57, 0
5, 51360, Note_on_c, 3, 62, 55
5, 51552, Note_on_c, 3, 62, 0
5, 51720, Note_on_c, 3, 66, 55
5, 51816, Note_on_c, 3, 66, 0
5, 51840, Note_on_c, 3, 74, 65
5, 51888, Note_on_c, 3, 74, 0
5, 51900, Note_on_c, 3, 72, 65
5, 51948, Note_on_c, 3, 72, 0
5, 51960, Note_on_c, 3, 70, 65
5, 52008, Note_on_c, 3, 70, 0
5, 52020, Note_on_c, 3, 69, 65
5, 52068, Note_on_c, 3, 69, 0
5, 52080, Note_on_c, 3, 67, 65
5, 52128, Note_on_c, 3, 67, 0
5, 52140, Note_on_c, 3, 66, 65
5, 52188, Note_on_c, 3, 66, 0
5, 52200, Note_on_c, 3, 67, 65
5, 52248, Note_on_c, 3, 67, 0
5, 52260, Note_on_c, 3, 69, 65
5, 52308, Note_on_c, 3, 69, 0
5, 52320, Note_on_c, 3, 62, 65
5, 52416, Note_on_c, 3, 62, 0
5, 52440, Note_on_c, 3, 69, 65
5, 52536, Note_on_c, 3, 69, 0
5, 52560, Note_on_c, 3, 72, 65
5, 52656, Note_on_c, 3, 72, 0
5, 52680, Note_on_c, 3, 69, 65
5, 52776, Note_on_c, 3, 69, 0
5, 52920, Note_on_c, 3, 74, 65
5, 53016, Note_on_c, 3, 74, 0
5, 53040, Note_on_c, 3, 62, 65
5, 53136, Note_on_c, 3, 62, 0
5, 53160, Note_on_c, 3, 74, 65
5, 53256, Note_on_c, 3, 74, 0
5, 53400, Note_on_c, 3, 67, 65
5, 53496, Note_on_c, 3, 67, 0
5, 53520, Note_on_c, 3, 72, 65
5, 53616, Note_on_c, 3, 72, 0
5, 53640, Note_on_c, 3, 64, 65
5, 53736, Note_on_c, 3, 64, 0
5, 53760, Note_on_c, 3, 65, 65
5, 53856, Note_on_c, 3, 65, 0
5, 53880, Note_on_c, 3, 66, 65
5, 54072, Note_on_c, 3, 66, 0
5, 54120, Note_on_c, 3, 67, 65
5, 54216, Note_on_c, 3, 67, 0
5, 54240, Note_on_c, 3, 69, 65
5, 54336, Note_on_c, 3, 69, 0
5, 54360, Note_on_c, 3, 57, 65
5, 54456, Note_on_c, 3, 57, 0
5, 54480, Note_on_c, 3, 58, 65
5, 54576, Note_on_c, 3, 58, 0
5, 54600, Note_on_c, 3, 60, 65
5, 54696, Note_on_c, 3, 60, 0
5, 54720, Note_on_c, 3, 62, 65
5, 54816, Note_on_c, 3, 62, 0
5, 54840, Note_on_c, 3, 63, 65
5, 54936, Note_on_c, 3, 63, 0
5, 54960, Note_on_c, 3, 57, 65
5, 55056, Note_on_c, 3, 57, 0
5, 55080, Note_on_c, 3, 62, 65
5, 55176, Note_on_c, 3, 62, 0
5, 55200, Note_on_c, 3, 58, 65
5, 55296, Note_on_c, 3, 58, 0
5, 55680, Note_on_c, 3, 62, 55
5, 55776, Note_on_c, 3, 62, 0
5, 55800, Note_on_c, 3, 62, 55
5, 55896, Note_on_c, 3, 62, 0
5, 55920, Note_on_c, 3, 62, 55
5, 56016, Note_on_c, 3, 62, 0
5, 56040, Note_on_c, 3, 62, 55
5, 56136, Note_on_c, 3, 62, 0
5, 56160, Note_on_c, 3, 62, 55
5, 56256, Note_on_c, 3, 62, 0
5, 56280, Note_on_c, 3, 62, 55
5, 56376, Note_on_c, 3, 62, 0
5, 56400, Note_on_c, 3, 62, 55
5, 56496, Note_on_c, 3, 62, 0
5, 56520, Note_on_c, 3, 62, 55
5, 56616, Note_on_c, 3, 62, 0
5, 56640, Note_on_c, 3, 62, 55
5, 56736, Note_on_c, 3, 62, 0
5, 56760, Note_on_c, 3, 62, 55
5, 56856, Note_on_c, 3, 62, 0
5, 56880, Note_on_c, 3, 62, 55
5, 56976, Note_on_c, 3, 62, 0
5, 57000, Note_on_c, 3, 62, 55
5, 57096, Note_on_c, 3, 62, 0
5, 57120, Note_on_c, 3, 62, 55
5, 57216, Note_on_c, 3, 62, 0
5, 57240, Note_on_c, 3, 62, 55
5, 57336, Note_on_c, 3, 62, 0
5, 57600, Note_on_c, 3, 67, 55
5, 57696, Note_on_c, 3, 67, 0
5, 57720, Note_on_c, 3, 55, 55
5, 57816, Note_on_c, 3, 55, 0
5, 57840, Note_on_c, 3, 55, 55
5, 57936, Note_on_c, 3, 55, 0
5, 57960, Note_on_c, 3, 55, 55
5, 58056, Note_on_c, 3, 55, 0
5, 58080, Note_on_c, 3, 55, 55
5, 58176, Note_on_c, 3, 55, 0
5, 58200, Note_on_c, 3, 55, 55
5, 58296, Note_on_c, 3, 55, 0
5, 58320, Note_on_c, 3, 55, 55
5, 58416, Note_on_c, 3, 55, 0
5, 58440, Note_on_c, 3, 55, 55
5, 58536, Note_on_c, 3, 55, 0
5, 58560, Note_on_c, 3, 55, 55
5, 58656, Note_on_c, 3, 55, 0
5, 58680, Note_on_c, 3, 55, 55
5, 58776, Note_on_c, 3, 55, 0
5, 58800, Note_on_c, 3, 55, 55
5, 58896, Note_on_c, 3, 55, 0
5, 58920, Note_on_c, 3, 55, 55
5, 59016, Note_on_c, 3, 55, 0
5, 59040, Note_on_c, 3, 55, 55
5, 59136, Note_on_c, 3, 55, 0
5, 59160, Note_on_c, 3, 55, 55
5, 59256, Note_on_c, 3, 55, 0
5, 59640, Note_on_c, 3, 72, 59
5, 59640, Note_on_c, 3, 69, 59
5, 59688, Note_on_c, 3, 69, 0
5, 59688, Note_on_c, 3, 72, 0
5, 59700, Note_on_c, 3, 67, 59
5, 59700, Note_on_c, 3, 70, 59
5, 59748, Note_on_c, 3, 70, 0
5, 59748, Note_on_c, 3, 67, 0
5, 59760, Note_on_c, 3, 69, 59
5, 59760, Note_on_c, 3, 72, 59
5, 59856, Note_on_c, 3, 72, 0
5, 59856, Note_on_c, 3, 69, 0
5, 60120, Note_on_c, 3, 74, 59
5, 60120, Note_on_c, 3, 70, 59
5, 60168, Note_on_c, 3, 70, 0
5, 60168, Note_on_c, 3, 74, 0
5, 60180, Note_on_c, 3, 69, 59
5, 60180, Note_on_c, 3, 75, 59
5, 60228, Note_on_c, 3, 75, 0
5, 60228, Note_on_c, 3, 69, 0
5, 60240, Note_on_c, 3, 70, 59
5, 60240, Note_on_c, 3, 74, 59
5, 60336, Note_on_c, 3, 74, 0
5, 60336, Note_on_c, 3, 70, 0
5, 60600, Note_on_c, 3, 74, 59
5, 60600, Note_on_c, 3, 69, 59
5, 60648, Note_on_c, 3, 69, 0
5, 60648, Note_on_c, 3, 74, 0
5, 60660, Note_on_c, 3, 70, 59
5, 60660, Note_on_c, 3, 76, 59
5, 60708, Note_on_c, 3, 76, 0
5, 60708, Note_on_c, 3, 70, 0
5, 60720, Note_on_c, 3, 72, 59
5, 60720, Note_on_c, 3, 78, 59
5, 60816, Note_on_c, 3, 78, 0
5, 60816, Note_on_c, 3, 72, 0
5, 61080, Note_on_c, 3, 70, 59
5, 61080, Note_on_c, 3, 79, 59
5, 61128, Note_on_c, 3, 79, 0
5, 61128, Note_on_c, 3, 70, 0
5, 61140, Note_on_c, 3, 72, 59
5, 61140, Note_on_c, 3, 78, 59
5, 61188, Note_on_c, 3, 78, 0
5, 61188, Note_on_c, 3, 72, 0
5, 61200, Note_on_c, 3, 74, 59
5, 61200, Note_on_c, 3, 79, 59
5, 61296, Note_on_c, 3, 79, 0
5, 61296, Note_on_c, 3, 74, 0
5, 61560, Note_on_c, 3, 79, 59
5, 61560, Note_on_c, 3, 76, 59
5, 61608, Note_on_c, 3, 76, 0
5, 61608, Note_on_c, 3, 79, 0
5, 61620, Note_on_c, 3, 74, 59
5, 61620, Note_on_c, 3, 77, 59
5, 61668, Note_on_c, 3, 77, 0
5, 61668, Note_on_c, 3, 74, 0
5, 61680, Note_on_c, 3, 79, 59
5, 61680, Note_on_c, 3, 76, 59
5, 61776, Note_on_c, 3, 76, 0
5, 61776, Note_on_c, 3, 79, 0
5, 62040, Note_on_c, 3, 77, 59
5, 62040, Note_on_c, 3, 69, 59
5, 62088, Note_on_c, 3, 69, 0
5, 62088, Note_on_c, 3, 77, 0
5, 62100, Note_on_c, 3, 76, 59
5, 62100, Note_on_c, 3, 67, 59
5, 62148, Note_on_c, 3, 67, 0
5, 62148, Note_on_c, 3, 76, 0
5, 62160, Note_on_c, 3, 74, 59
5, 62160, Note_on_c, 3, 65, 59
5, 62256, Note_on_c, 3, 65, 0
5, 62256, Note_on_c, 3, 74, 0
5, 62520, Note_on_c, 3, 75, 59
5, 62520, Note_on_c, 3, 65, 59
5, 62568, Note_on_c, 3, 65, 0
5, 62568, Note_on_c, 3, 75, 0
5, 62580, Note_on_c, 3, 67, 59
5, 62580, Note_on_c, 3, 74, 59
5, 62628, Note_on_c, 3, 74, 0
5, 62628, Note_on_c, 3, 67, 0
5, 62640, Note_on_c, 3, 69, 59
5, 62640, Note_on_c, 3, 72, 59
5, 62736, Note_on_c, 3, 72, 0
5, 62736, Note_on_c, 3, 69, 0
5, 63000, Note_on_c, 3, 70, 59
5, 63000, Note_on_c, 3, 65, 59
5, 63048, Note_on_c, 3, 65, 0
5, 63048, Note_on_c, 3, 70, 0
5, 63060, Note_on_c, 3, 69, 59
5, 63108, Note_on_c, 3, 69, 0
5, 63120, Note_on_c, 3, 65, 59
5, 63120, Note_on_c, 3, 70, 59
5, 63216, Note_on_c, 3, 70, 0
5, 63216, Note_on_c, 3, 65, 0
5, 63480, Note_on_c, 3, 67, 59
5, 63528, Note_on_c, 3, 67, 0
5, 63540, Note_on_c, 3, 65, 59
5, 63588, Note_on_c, 3, 65, 0
5, 63600, Note_on_c, 3, 64, 59
5, 63696, Note_on_c, 3, 64, 0
5, 63960, Note_on_c, 3, 65, 59
5, 64008, Note_on_c, 3, 65, 0
5, 64020, Note_on_c, 3, 64, 59
5, 64068, Note_on_c, 3, 64, 0
5, 64080, Note_on_c, 3, 62, 59
5, 64176, Note_on_c, 3, 62, 0
5, 64440, Note_on_c, 3, 64, 59
5, 64488, Note_on_c, 3, 64, 0
5, 64500, Note_on_c, 3, 62, 59
5, 64548, Note_on_c, 3, 62, 0
5, 64560, Note_on_c, 3, 61, 59
5, 64656, Note_on_c, 3, 61, 0
5, 64680, Note_on_c, 3, 64, 59
5, 64680, Note_on_c, 3, 61, 59
5, 64680, Note_on_c, 3, 69, 59
5, 64776, Note_on_c, 3, 69, 0
5, 64776, Note_on_c, 3, 61, 0
5, 64776, Note_on_c, 3, 64, 0
5, 64800, Note_on_c, 3, 62, 59
5, 64800, Note_on_c, 3, 65, 59
5, 64896, Note_on_c, 3, 65, 0
5, 64896, Note_on_c, 3, 62, 0
5, 65280, Note_on_c, 3, 55, 59
5, 65328, Note_on_c, 3, 55, 0
5, 65340, Note_on_c, 3, 57, 59
5, 65388, Note_on_c, 3, 57, 0
5, 65400, Note_on_c, 3, 58, 59
5, 65448, Note_on_c, 3, 58, 0
5, 65460, Note_on_c, 3, 60, 59
5, 65508, Note_on_c, 3, 60, 0
5, 65520, Note_on_c, 3, 62, 59
5, 65616, Note_on_c, 3, 62, 0
5, 65640, Note_on_c, 3, 67, 59
5, 65736, Note_on_c, 3, 67, 0
5, 65760, Note_on_c, 3, 64, 59
5, 65856, Note_on_c, 3, 64, 0
5, 65880, Note_on_c, 3, 60, 59
5, 65976, Note_on_c, 3, 60, 0
5, 66240, Note_on_c, 3, 53, 59
5, 66288, Note_on_c, 3, 53, 0
5, 66300, Note_on_c, 3, 55, 59
5, 66348, Note_on_c, 3, 55, 0
5, 66360, Note_on_c, 3, 57, 59
5, 66408, Note_on_c, 3, 57, 0
5, 66420, Note_on_c, 3, 58, 59
5, 66468, Note_on_c, 3, 58, 0
5, 66480, Note_on_c, 3, 60, 59
5, 66576, Note_on_c, 3, 60, 0
5, 66600, Note_on_c, 3, 65, 59
5, 66696, Note_on_c, 3, 65, 0
5, 66720, Note_on_c, 3, 62, 59
5, 66816, Note_on_c, 3, 62, 0
5, 66840, Note_on_c, 3, 58, 59
5, 66936, Note_on_c, 3, 58, 0
5, 69120, Note_on_c, 3, 58, 69
5, 69168, Note_on_c, 3, 58, 0
5, 69180, Note_on_c, 3, 60, 69
5, 69228, Note_on_c, 3, 60, 0
5, 69240, Note_on_c, 3, 62, 69
5, 69288, Note_on_c, 3, 62, 0
5, 69300, Note_on_c, 3, 63, 69
5, 69348, Note_on_c, 3, 63, 0
5, 69360, Note_on_c, 3, 65, 69
5, 69456, Note_on_c, 3, 65, 0
5, 69480, Note_on_c, 3, 70, 69
5, 69576, Note_on_c, 3, 70, 0
5, 69600, Note_on_c, 3, 67, 69
5, 69696, Note_on_c, 3, 67, 0
5, 69720, Note_on_c, 3, 64, 69
5, 69816, Note_on_c, 3, 64, 0
5, 70080, Note_on_c, 3, 57, 69
5, 70128, Note_on_c, 3, 57, 0
5, 70140, Note_on_c, 3, 59, 69
5, 70188, Note_on_c, 3, 59, 0
5, 70200, Note_on_c, 3, 61, 69
5, 70248, Note_on_c, 3, 61, 0
5, 70260, Note_on_c, 3, 62, 69
5, 70308, Note_on_c, 3, 62, 0
5, 70320, Note_on_c, 3, 64, 69
5, 70416, Note_on_c, 3, 64, 0
5, 70440, Note_on_c, 3, 69, 69
5, 70536, Note_on_c, 3, 69, 0
5, 70560, Note_on_c, 3, 66, 69
5, 70656, Note_on_c, 3, 66, 0
5, 70680, Note_on_c, 3, 62, 69
5, 70776, Note_on_c, 3, 62, 0
5, 72960, Note_on_c, 3, 74, 55
5, 72960, Note_on_c, 3, 62, 55
5, 72960, Note_on_c, 3, 69, 55
5, 73056, Note_on_c, 3, 69, 0
5, 73056, Note_on_c, 3, 62, 0
5, 73056, Note_on_c, 3, 74, 0
5, 73200, Note_on_c, 3, 69, 55
5, 73200, Note_on_c, 3, 64, 55
5, 73200, Note_on_c, 3, 73, 55
5, 73296, Note_on_c, 3, 73, 0
5, 73296, Note_on_c, 3, 64, 0
5, 73296, Note_on_c, 3, 69, 0
5, 73440, Note_on_c, 3, 74, 55
5, 73440, Note_on_c, 3, 69, 55
5, 73440, Note_on_c, 3, 65, 55
5, 73536, Note_on_c, 3, 65, 0
5, 73536, Note_on_c, 3, 69, 0
5, 73536, Note_on_c, 3, 74, 0
5, 73920, Note_on_c, 3, 74, 55
5, 73920, Note_on_c, 3, 67, 55
5, 73920, Note_on_c, 3, 70, 55
5, 74016, Note_on_c, 3, 70, 0
5, 74016, Note_on_c, 3, 67, 0
5, 74016, Note_on_c, 3, 74, 0
5, 74160, Note_on_c, 3, 69, 55
5, 74160, Note_on_c, 3, 66, 55
5, 74160, Note_on_c, 3, 74, 55
5, 74256, Note_on_c, 3, 74, 0
5, 74256, Note_on_c, 3, 66, 0
5, 74256, Note_on_c, 3, 69, 0
5, 74400, Note_on_c, 3, 74, 55
5, 74400, Note_on_c, 3, 70, 55
5, 74400, Note_on_c, 3, 67, 55
5, 74496, Note_on_c, 3, 67, 0
5, 74496, Note_on_c, 3, 70, 0
5, 74496, Note_on_c, 3, 74, 0
5, 74880, Note_on_c, 3, 64, 55
5, 74880, Note_on_c, 3, 70, 55
5, 74976, Note_on_c, 3, 70, 0
5, 74976, Note_on_c, 3, 64, 0
5, 75120, Note_on_c, 3, 69, 55
5, 75120, Note_on_c, 3, 64, 55
5, 75216, Note_on_c, 3, 64, 0
5, 75216, Note_on_c, 3, 69, 0
5, 75360, Note_on_c, 3, 62, 55
5, 75360, Note_on_c, 3, 69, 55
5, 75456, Note_on_c, 3, 69, 0
5, 75456, Note_on_c, 3, 62, 0
5, 75600, Note_on_c, 3, 67, 55
5, 75600, Note_on_c, 3, 62, 55
5, 75696, Note_on_c, 3, 62, 0
5, 75696, Note_on_c, 3, 67, 0
5, 75840, Note_on_c, 3, 67, 55
5, 75840, Note_on_c, 3, 61, 55
5, 75936, Note_on_c, 3, 61, 0
5, 75936, Note_on_c, 3, 67, 0
5, 76080, Note_on_c, 3, 65, 55
5, 76080, Note_on_c, 3, 62, 55
5, 76176, Note_on_c, 3, 62, 0
5, 76176, Note_on_c, 3, 65, 0
5, 76320, Note_on_c, 3, 61, 55
5, 76320, Note_on_c, 3, 64, 55
5, 76320, Note_on_c, 3, 64, 55
5, 76416, Note_on_c, 3, 64, 0
5, 76416, Note_on_c, 3, 64, 0
5, 76416, Note_on_c, 3, 61, 0
5, 76800, Note_on_c, 3, 65, 55
5, 76800, Note_on_c, 3, 74, 55
5, 76800, Note_on_c, 3, 69, 55
5, 76896, Note_on_c, 3, 69, 0
5, 76896, Note_on_c, 3, 74, 0
5, 76896, Note_on_c, 3, 65, 0
5, 77040, Note_on_c, 3, 76, 55
5, 77040, Note_on_c, 3, 73, 55
5, 77040, Note_on_c, 3, 69, 55
5, 77136, Note_on_c, 3, 69, 0
5, 77136, Note_on_c, 3, 73, 0
5, 77136, Note_on_c, 3, 76, 0
5, 77280, Note_on_c, 3, 77, 55
5, 77280, Note_on_c, 3, 69, 55
5, 77280, Note_on_c, 3, 74, 55
5, 77376, Note_on_c, 3, 74, 0
5, 77376, Note_on_c, 3, 69, 0
5, 77376, Note_on_c, 3, 77, 0
5, 77760, Note_on_c, 3, 67, 55
5, 77760, Note_on_c, 3, 79, 55
5, 77760, Note_on_c, 3, 74, 55
5, 77856, Note_on_c, 3, 74, 0
5, 77856, Note_on_c, 3, 79, 0
5, 77856, Note_on_c, 3, 67, 0
5, 78000, Note_on_c, 3, 78, 55
5, 78000, Note_on_c, 3, 74, 55
5, 78000, Note_on_c, 3, 69, 55
5, 78096, Note_on_c, 3, 69, 0
5, 78096, Note_on_c, 3, 74, 0
5, 78096, Note_on_c, 3, 78, 0
5, 78240, Note_on_c, 3, 79, 55
5, 78240, Note_on_c, 3, 70, 55
5, 78240, Note_on_c, 3, 74, 55
5, 78336, Note_on_c, 3, 74, 0
5, 78336, Note_on_c, 3, 70, 0
5, 78336, Note_on_c, 3, 79, 0
5, 78720, Note_on_c, 3, 82, 69
5, 78720, Note_on_c, 3, 76, 69
5, 78816, Note_on_c, 3, 76, 0
5, 78816, Note_on_c, 3, 82, 0
5, 78960, Note_on_c, 3, 81, 69
5, 78960, Note_on_c, 3, 76, 69
5, 79056, Note_on_c, 3, 76, 0
5, 79056, Note_on_c, 3, 81, 0
5, 79200, Note_on_c, 3, 74, 69
5, 79200, Note_on_c, 3, 81, 69
5, 79296, Note_on_c, 3, 81, 0
5, 79296, Note_on_c, 3, 74, 0
5, 79440, Note_on_c, 3, 74, 69
5, 79440, Note_on_c, 3, 79, 69
5, 79536, Note_on_c, 3, 79, 0
5, 79536, Note_on_c, 3, 74, 0
5, 79680, Note_on_c, 3, 73, 69
5, 79680, Note_on_c, 3, 79, 69
5, 79776, Note_on_c, 3, 79, 0
5, 79776, Note_on_c, 3, 73, 0
5, 79920, Note_on_c, 3, 77, 69
5, 79920, Note_on_c, 3, 74, 69
5, 80016, Note_on_c, 3, 74, 0
5, 80016, Note_on_c, 3, 77, 0
5, 80160, Note_on_c, 3, 76, 69
5, 80160, Note_on_c, 3, 69, 69
5, 80256, Note_on_c, 3, 69, 0
5, 80256, Note_on_c, 3, 76, 0
5, 80640, Note_on_c, 3, 74, 79
5, 80688, Note_on_c, 3, 74, 0
5, 80700, Note_on_c, 3, 76, 79
5, 80748, Note_on_c, 3, 76, 0
5, 80760, Note_on_c, 3, 77, 79
5, 80808, Note_on_c, 3, 77, 0
5, 80820, Note_on_c, 3, 79, 79
5, 80868, Note_on_c, 3, 79, 0
5, 80880, Note_on_c, 3, 81, 79
5, 80976, Note_on_c, 3, 81, 0
5, 81000, Note_on_c, 3, 86, 79
5, 81000, Note_on_c, 3, 81, 79
5, 81000, Note_on_c, 3, 77, 79
5, 81096, Note_on_c, 3, 77, 0
5, 81096, Note_on_c, 3, 81, 0
5, 81096, Note_on_c, 3, 86, 0
5, 81120, Note_on_c, 3, 76, 79
5, 81120, Note_on_c, 3, 81, 79
5, 81120, Note_on_c, 3, 85, 79
5, 81216, Note_on_c, 3, 85, 0
5, 81216, Note_on_c, 3, 81, 0
5, 81216, Note_on_c, 3, 76, 0
5, 81240, Note_on_c, 3, 73, 79
5, 81240, Note_on_c, 3, 76, 79
5, 81240, Note_on_c, 3, 81, 79
5, 81336, Note_on_c, 3, 81, 0
5, 81336, Note_on_c, 3, 76, 0
5, 81336, Note_on_c, 3, 73, 0
5, 81360, Note_on_c, 3, 69, 79
5, 81360, Note_on_c, 3, 73, 79
5, 81360, Note_on_c, 3, 76, 79
5, 81456, Note_on_c, 3, 76, 0
5, 81456, Note_on_c, 3, 73, 0
5, 81456, Note_on_c, 3, 69, 0
5, 81480, Note_on_c, 3, 79, 79
5, 81576, Note_on_c, 3, 79, 0
5, 81600, Note_on_c, 3, 74, 79
5, 81600, Note_on_c, 3, 69, 79
5, 81600, Note_on_c, 3, 78, 79
5, 81696, Note_on_c, 3, 78, 0
5, 81696, Note_on_c, 3, 69, 0
5, 81696, Note_on_c, 3, 74, 0
5, 81720, Note_on_c, 3, 57, 79
5, 81816, Note_on_c, 3, 57, 0
5, 81840, Note_on_c, 3, 69, 79
5, 81936, Note_on_c, 3, 69, 0
5, 81960, Note_on_c, 3, 62, 79
5, 82056, Note_on_c, 3, 62, 0
5, 82200, Note_on_c, 3, 74, 79
5, 82296, Note_on_c, 3, 74, 0
5, 82320, Note_on_c, 3, 62, 79
5, 82416, Note_on_c, 3, 62, 0
5, 82440, Note_on_c, 3, 67, 79
5, 82536, Note_on_c, 3, 67, 0
5, 82680, Note_on_c, 3, 70, 79
5, 82776, Note_on_c, 3, 70, 0
5, 82800, Note_on_c, 3, 64, 79
5, 82896, Note_on_c, 3, 64, 0
5, 82920, Note_on_c, 3, 67, 79
5, 83016, Note_on_c, 3, 67, 0
5, 83160, Note_on_c, 3, 61, 79
5, 83256, Note_on_c, 3, 61, 0
5, 83280, Note_on_c, 3, 57, 79
5, 83376, Note_on_c, 3, 57, 0
5, 83400, Note_on_c, 3, 62, 79
5, 83496, Note_on_c, 3, 62, 0
5, 83520, Note_on_c, 3, 69, 79
5, 83616, Note_on_c, 3, 69, 0
5, 83640, Note_on_c, 3, 70, 81
5, 83832, Note_on_c, 3, 70, 0
5, 83880, Note_on_c, 3, 73, 79
5, 83880, Note_on_c, 3, 69, 79
5, 83928, Note_on_c, 3, 69, 0
5, 83940, Note_on_c, 3, 67, 79
5, 83988, Note_on_c, 3, 67, 0
5, 83988, Note_on_c, 3, 73, 0
5, 84000, Note_on_c, 3, 66, 79
5, 84000, Note_on_c, 3, 74, 79
5, 84384, Note_on_c, 3, 74, 0
5, 84384, Note_on_c, 3, 66, 0
5, 86400, Note_on_c, 3, 65, 40
5, 86400, Note_on_c, 3, 60, 40
5, 86400, Note_on_c, 3, 69, 40
5, 86592, Note_on_c, 3, 69, 0
5, 86592, Note_on_c, 3, 60, 0
5, 86592, Note_on_c, 3, 65, 0
5, 86760, Note_on_c, 3, 70, 40
5, 86760, Note_on_c, 3, 67, 40
5, 86760, Note_on_c, 3, 58, 40
5, 86952, Note_on_c, 3, 58, 0
5, 86952, Note_on_c, 3, 67, 0
5, 86952, Note_on_c, 3, 70, 0
5, 87120, Note_on_c, 3, 65, 40
5, 87120, Note_on_c, 3, 72, 40
5, 87120, Note_on_c, 3, 60, 40
5, 87312, Note_on_c, 3, 60, 0
5, 87312, Note_on_c, 3, 72, 0
5, 87312, Note_on_c, 3, 65, 0
5, 87480, Note_on_c, 3, 62, 40
5, 87480, Note_on_c, 3, 74, 40
5, 87480, Note_on_c, 3, 65, 40
5, 87672, Note_on_c, 3, 65, 0
5, 87672, Note_on_c, 3, 74, 0
5, 87672, Note_on_c, 3, 62, 0
5, 87840, Note_on_c, 3, 67, 40
5, 87840, Note_on_c, 3, 76, 40
5, 87936, Note_on_c, 3, 76, 0
5, 87960, Note_on_c, 3, 72, 40
5, 88056, Note_on_c, 3, 72, 0
5, 88056, Note_on_c, 3, 67, 0
5, 88080, Note_on_c, 3, 77, 40
5, 88080, Note_on_c, 3, 72, 40
5, 88176, Note_on_c, 3, 72, 0
5, 88200, Note_on_c, 3, 70, 40
5, 88296, Note_on_c, 3, 77, 0
5, 88320, Note_on_c, 3, 74, 40
5, 88416, Note_on_c, 3, 74, 0
5, 88416, Note_on_c, 3, 70, 0
5, 88440, Note_on_c, 3, 76, 40
5, 88440, Note_on_c, 3, 67, 40
5, 88440, Note_on_c, 3, 72, 40
5, 88536, Note_on_c, 3, 72, 0
5, 88536, Note_on_c, 3, 67, 0
5, 88536, Note_on_c, 3, 76, 0
5, 88560, Note_on_c, 3, 65, 40
5, 88560, Note_on_c, 3, 72, 40
5, 88560, Note_on_c, 3, 77, 40
5, 88752, Note_on_c, 3, 77, 0
5, 88752, Note_on_c, 3, 72, 0
5, 88752, Note_on_c, 3, 65, 0
5, 88800, Note_on_c, 3, 69, 40
5, 88800, Note_on_c, 3, 72, 40
5, 88800, Note_on_c, 3, 65, 40
5, 88896, Note_on_c, 3, 65, 0
5, 88896, Note_on_c, 3, 72, 0
5, 88896, Note_on_c, 3, 69, 0
5, 88920, Note_on_c, 3, 69, 40
5, 88920, Note_on_c, 3, 72, 40
5, 88920, Note_on_c, 3, 65, 40
5, 89112, Note_on_c, 3, 65, 0
5, 89112, Note_on_c, 3, 72, 0
5, 89112, Note_on_c, 3, 69, 0
5, 89160, Note_on_c, 3, 71, 40
5, 89160, Note_on_c, 3, 67, 40
5, 89256, Note_on_c, 3, 67, 0
5, 89256, Note_on_c, 3, 71, 0
5, 89280, Note_on_c, 3, 72, 40
5, 89280, Note_on_c, 3, 64, 40
5, 89280, Note_on_c, 3, 67, 40
5, 89472, Note_on_c, 3, 67, 0
5, 89472, Note_on_c, 3, 64, 0
5, 89472, Note_on_c, 3, 72, 0
5, 89640, Note_on_c, 3, 77, 40
5, 89640, Note_on_c, 3, 65, 40
5, 89832, Note_on_c, 3, 65, 0
5, 89832, Note_on_c, 3, 77, 0
5, 90000, Note_on_c, 3, 72, 40
5, 90000, Note_on_c, 3, 67, 40
5, 90000, Note_on_c, 3, 76, 40
5, 90192, Note_on_c, 3, 76, 0
5, 90192, Note_on_c, 3, 67, 0
5, 90192, Note_on_c, 3, 72, 0
5, 90360, Note_on_c, 3, 69, 40
5, 90360, Note_on_c, 3, 72, 40
5, 90552, Note_on_c, 3, 72, 0
5, 90552, Note_on_c, 3, 69, 0
5, 90720, Note_on_c, 3, 74, 40
5, 90720, Note_on_c, 3, 79, 40
5, 90912, Note_on_c, 3, 79, 0
5, 90912, Note_on_c, 3, 74, 0
5, 90960, Note_on_c, 3, 72, 40
5, 90960, Note_on_c, 3, 79, 40
5, 91056, Note_on_c, 3, 79, 0
5, 91056, Note_on_c, 3, 72, 0
5, 91080, Note_on_c, 3, 77, 40
5, 91080, Note_on_c, 3, 69, 40
5, 91272, Note_on_c, 3, 69, 0
5, 91272, Note_on_c, 3, 77, 0
5, 91320, Note_on_c, 3, 67, 40
5, 91320, Note_on_c, 3, 74, 40
5, 91416, Note_on_c, 3, 74, 0
5, 91416, Note_on_c, 3, 67, 0
5, 91440, Note_on_c, 3, 72, 40
5, 91440, Note_on_c, 3, 67, 40
5, 91632, Note_on_c, 3, 67, 0
5, 91632, Note_on_c, 3, 72, 0
5, 92040, Note_on_c, 3, 65, 40
5, 92040, Note_on_c, 3, 72, 40
5, 92256, Note_on_c, 3, 72, 0
5, 92280, Note_on_c, 3, 70, 40
5, 92376, Note_on_c, 3, 70, 0
5, 92376, Note_on_c, 3, 65, 0
5, 92760, Note_on_c, 3, 70, 40
5, 92760, Note_on_c, 3, 64, 40
5, 92976, Note_on_c, 3, 70, 0
5, 93000, Note_on_c, 3, 69, 40
5, 93096, Note_on_c, 3, 69, 0
5, 93096, Note_on_c, 3, 64, 0
5, 93480, Note_on_c, 3, 62, 40
5, 93480, Note_on_c, 3, 69, 40
5, 93696, Note_on_c, 3, 69, 0
5, 93720, Note_on_c, 3, 67, 40
5, 93816, Note_on_c, 3, 67, 0
5, 93816, Note_on_c, 3, 62, 0
5, 94200, Note_on_c, 3, 64, 40
5, 94200, Note_on_c, 3, 67, 40
5, 94200, Note_on_c, 3, 72, 40
5, 94296, Note_on_c, 3, 67, 0
5, 94296, Note_on_c, 3, 64, 0
5, 94320, Note_on_c, 3, 65, 40
5, 94416, Note_on_c, 3, 72, 0
5, 94440, Note_on_c, 3, 77, 40
5, 94536, Note_on_c, 3, 77, 0
5, 94536, Note_on_c, 3, 65, 0
5, 94560, Note_on_c, 3, 65, 40
5, 94560, Note_on_c, 3, 74, 40
5, 94560, Note_on_c, 3, 70, 40
5, 94656, Note_on_c, 3, 70, 0
5, 94656, Note_on_c, 3, 74, 0
5, 94656, Note_on_c, 3, 65, 0
5, 94680, Note_on_c, 3, 70, 40
5, 94680, Note_on_c, 3, 74, 40
5, 94680, Note_on_c, 3, 67, 40
5, 94872, Note_on_c, 3, 67, 0
5, 94872, Note_on_c, 3, 74, 0
5, 94872, Note_on_c, 3, 70, 0
5, 94920, Note_on_c, 3, 73, 40
5, 94920, Note_on_c, 3, 69, 40
5, 95016, Note_on_c, 3, 69, 0
5, 95016, Note_on_c, 3, 73, 0
5, 95040, Note_on_c, 3, 74, 40
5, 95040, Note_on_c, 3, 69, 40
5, 95040, Note_on_c, 3, 65, 40
5, 95232, Note_on_c, 3, 65, 0
5, 95232, Note_on_c, 3, 69, 0
5, 95232, Note_on_c, 3, 74, 0
5, 95400, Note_on_c, 3, 67, 40
5, 95400, Note_on_c, 3, 79, 40
5, 95592, Note_on_c, 3, 79, 0
5, 95592, Note_on_c, 3, 67, 0
5, 95760, Note_on_c, 3, 69, 40
5, 95760, Note_on_c, 3, 65, 40
5, 95760, Note_on_c, 3, 72, 40
5, 95952, Note_on_c, 3, 72, 0
5, 95952, Note_on_c, 3, 65, 0
5, 95952, Note_on_c, 3, 69, 0
5, 96120, Note_on_c, 3, 70, 40
5, 96120, Note_on_c, 3, 62, 40
5, 96120, Note_on_c, 3, 65, 40
5, 96312, Note_on_c, 3, 65, 0
5, 96312, Note_on_c, 3, 62, 0
5, 96312, Note_on_c, 3, 70, 0
5, 96480, Note_on_c, 3, 64, 40
5, 96480, Note_on_c, 3, 69, 40
5, 96672, Note_on_c, 3, 69, 0
5, 96672, Note_on_c, 3, 64, 0
5, 96720, Note_on_c, 3, 81, 40
5, 96816, Note_on_c, 3, 81, 0
5, 96840, Note_on_c, 3, 70, 40
5, 96840, Note_on_c, 3, 79, 40
5, 97032, Note_on_c, 3, 79, 0
5, 97032, Note_on_c, 3, 70, 0
5, 97080, Note_on_c, 3, 76, 40
5, 97080, Note_on_c, 3, 69, 40
5, 97176, Note_on_c, 3, 69, 0
5, 97176, Note_on_c, 3, 76, 0
5, 97200, Note_on_c, 3, 69, 40
5, 97200, Note_on_c, 3, 74, 40
5, 97392, Note_on_c, 3, 74, 0
5, 97392, Note_on_c, 3, 69, 0
5, 97800, Note_on_c, 3, 66, 40
5, 97800, Note_on_c, 3, 62, 40
5, 97800, Note_on_c, 3, 72, 40
5, 97896, Note_on_c, 3, 72, 0
5, 97896, Note_on_c, 3, 62, 0
5, 97896, Note_on_c, 3, 66, 0
5, 97920, Note_on_c, 3, 62, 40
5, 97920, Note_on_c, 3, 70, 40
5, 98112, Note_on_c, 3, 70, 0
5, 98112, Note_on_c, 3, 62, 0
5, 98520, Note_on_c, 3, 63, 40
5, 98520, Note_on_c, 3, 67, 40
5, 98520, Note_on_c, 3, 60, 40
5, 98616, Note_on_c, 3, 60, 0
5, 98616, Note_on_c, 3, 67, 0
5, 98616, Note_on_c, 3, 63, 0
5, 98640, Note_on_c, 3, 60, 40
5, 98640, Note_on_c, 3, 65, 40
5, 98640, Note_on_c, 3, 63, 40
5, 98832, Note_on_c, 3, 63, 0
5, 98832, Note_on_c, 3, 65, 0
5, 98832, Note_on_c, 3, 60, 0
5, 99240, Note_on_c, 3, 69, 40
5, 99240, Note_on_c, 3, 63, 40
5, 99240, Note_on_c, 3, 65, 40
5, 99336, Note_on_c, 3, 65, 0
5, 99336, Note_on_c, 3, 63, 0
5, 99336, Note_on_c, 3, 69, 0
5, 99360, Note_on_c, 3, 62, 40
5, 99360, Note_on_c, 3, 70, 40
5, 99360, Note_on_c, 3, 65, 40
5, 99552, Note_on_c, 3, 65, 0
5, 99552, Note_on_c, 3, 70, 0
5, 99552, Note_on_c, 3, 62, 0
5, 99720, Note_on_c, 3, 63, 40
5, 99720, Note_on_c, 3, 75, 40
5, 99912, Note_on_c, 3, 75, 0
5, 99912, Note_on_c, 3, 63, 0
5, 100080, Note_on_c, 3, 70, 40
5, 100080, Note_on_c, 3, 74, 40
5, 100080, Note_on_c, 3, 65, 40
5, 100272, Note_on_c, 3, 65, 0
5, 100272, Note_on_c, 3, 74, 0
5, 100272, Note_on_c, 3, 70, 0
5, 100440, Note_on_c, 3, 67, 40
5, 100440, Note_on_c, 3, 79, 40
5, 100440, Note_on_c, 3, 70, 40
5, 100632, Note_on_c, 3, 70, 0
5, 100632, Note_on_c, 3, 79, 0
5, 100632, Note_on_c, 3, 67, 0
5, 100800, Note_on_c, 3, 77, 40
5, 100800, Note_on_c, 3, 69, 40
5, 100800, Note_on_c, 3, 72, 40
5, 100992, Note_on_c, 3, 72, 0
5, 100992, Note_on_c, 3, 69, 0
5, 100992, Note_on_c, 3, 77, 0
5, 101040, Note_on_c, 3, 65, 40
5, 101040, Note_on_c, 3, 77, 40
5, 101040, Note_on_c, 3, 70, 40
5, 101136, Note_on_c, 3, 70, 0
5, 101136, Note_on_c, 3, 77, 0
5, 101136, Note_on_c, 3, 65, 0
5, 101160, Note_on_c, 3, 67, 40
5, 101160, Note_on_c, 3, 75, 40
5, 101352, Note_on_c, 3, 75, 0
5, 101352, Note_on_c, 3, 67, 0
5, 101400, Note_on_c, 3, 72, 40
5, 101400, Note_on_c, 3, 65, 40
5, 101496, Note_on_c, 3, 65, 0
5, 101496, Note_on_c, 3, 72, 0
5, 101520, Note_on_c, 3, 65, 40
5, 101520, Note_on_c, 3, 70, 40
5, 101712, Note_on_c, 3, 70, 0
5, 101712, Note_on_c, 3, 65, 0
5, 101760, Note_on_c, 3, 70, 40
5, 101760, Note_on_c, 3, 77, 40
5, 101760, Note_on_c, 3, 74, 40
5, 101856, Note_on_c, 3, 74, 0
5, 101856, Note_on_c, 3, 77, 0
5, 101856, Note_on_c, 3, 70, 0
5, 101880, Note_on_c, 3, 67, 40
5, 101880, Note_on_c, 3, 74, 40
5, 101880, Note_on_c, 3, 77, 40
5, 102072, Note_on_c, 3, 77, 0
5, 102072, Note_on_c, 3, 74, 0
5, 102072, Note_on_c, 3, 67, 0
5, 102120, Note_on_c, 3, 67, 40
5, 102120, Note_on_c, 3, 76, 40
5, 102120, Note_on_c, 3, 72, 40
5, 102216, Note_on_c, 3, 72, 0
5, 102216, Note_on_c, 3, 76, 0
5, 102216, Note_on_c, 3, 67, 0
5, 102240, Note_on_c, 3, 69, 40
5, 102240, Note_on_c, 3, 77, 40
5, 102240, Note_on_c, 3, 72, 40
5, 102432, Note_on_c, 3, 72, 0
5, 102432, Note_on_c, 3, 77, 0
5, 102432, Note_on_c, 3, 69, 0
5, 102600, Note_on_c, 3, 67, 40
5, 102600, Note_on_c, 3, 70, 40
5, 102792, Note_on_c, 3, 70, 0
5, 102792, Note_on_c, 3, 67, 0
5, 102960, Note_on_c, 3, 72, 40
5, 102960, Note_on_c, 3, 77, 40
5, 102960, Note_on_c, 3, 65, 40
5, 103152, Note_on_c, 3, 65, 0
5, 103152, Note_on_c, 3, 77, 0
5, 103152, Note_on_c, 3, 72, 0
5, 103320, Note_on_c, 3, 65, 40
5, 103320, Note_on_c, 3, 77, 40
5, 103320, Note_on_c, 3, 74, 40
5, 103512, Note_on_c, 3, 74, 0
5, 103512, Note_on_c, 3, 77, 0
5, 103512, Note_on_c, 3, 65, 0
5, 103680, Note_on_c, 3, 79, 40
5, 103680, Note_on_c, 3, 72, 40
5, 103872, Note_on_c, 3, 72, 0
5, 103872, Note_on_c, 3, 79, 0
5, 103920, Note_on_c, 3, 81, 40
5, 103920, Note_on_c, 3, 72, 40
5, 104016, Note_on_c, 3, 72, 0
5, 104016, Note_on_c, 3, 81, 0
5, 104040, Note_on_c, 3, 67, 40
5, 104040, Note_on_c, 3, 70, 40
5, 104040, Note_on_c, 3, 74, 40
5, 104232, Note_on_c, 3, 74, 0
5, 104232, Note_on_c, 3, 70, 0
5, 104232, Note_on_c, 3, 67, 0
5, 104280, Note_on_c, 3, 64, 40
5, 104280, Note_on_c, 3, 72, 40
5, 104280, Note_on_c, 3, 67, 40
5, 104376, Note_on_c, 3, 67, 0
5, 104376, Note_on_c, 3, 72, 0
5, 104376, Note_on_c, 3, 64, 0
5, 104400, Note_on_c, 3, 65, 40
5, 104400, Note_on_c, 3, 72, 40
5, 104592, Note_on_c, 3, 72, 0
5, 104592, Note_on_c, 3, 65, 0
5, 105000, Note_on_c, 3, 84, 40
5, 105216, Note_on_c, 3, 84, 0
5, 105240, Note_on_c, 3, 82, 40
5, 105336, Note_on_c, 3, 82, 0
5, 105720, Note_on_c, 3, 82, 40
5, 105936, Note_on_c, 3, 82, 0
5, 105960, Note_on_c, 3, 81, 40
5, 106056, Note_on_c, 3, 81, 0
5, 106440, Note_on_c, 3, 81, 40
5, 106656, Note_on_c, 3, 81, 0
5, 106680, Note_on_c, 3, 79, 40
5, 106776, Note_on_c, 3, 79, 0
5, 107160, Note_on_c, 3, 79, 40
5, 107376, Note_on_c, 3, 79, 0
5, 107400, Note_on_c, 3, 77, 40
5, 107496, Note_on_c, 3, 77, 0
5, 107520, Note_on_c, 3, 70, 43
5, 107520, Note_on_c, 3, 65, 43
5, 107616, Note_on_c, 3, 65, 0
5, 107616, Note_on_c, 3, 70, 0
5, 107640, Note_on_c, 3, 69, 49
5, 107640, Note_on_c, 3, 65, 49
5, 107736, Note_on_c, 3, 65, 0
5, 107736, Note_on_c, 3, 69, 0
5, 107760, Note_on_c, 3, 67, 54
5, 107760, Note_on_c, 3, 70, 54
5, 107856, Note_on_c, 3, 70, 0
5, 107856, Note_on_c, 3, 67, 0
5, 107880, Note_on_c, 3, 64, 59
5, 107880, Note_on_c, 3, 58, 59
5, 107880, Note_on_c, 3, 67, 59
5, 107976, Note_on_c, 3, 67, 0
5, 107976, Note_on_c, 3, 58, 0
5, 107976, Note_on_c, 3, 64, 0
5, 108000, Note_on_c, 3, 65, 65
5, 108000, Note_on_c, 3, 60, 65
5, 108000, Note_on_c, 3, 57, 65
5, 108192, Note_on_c, 3, 57, 0
5, 108192, Note_on_c, 3, 60, 0
5, 108192, Note_on_c, 3, 65, 0
5, 109680, Note_on_c, 3, 74, 40
5, 109680, Note_on_c, 3, 65, 40
5, 109680, Note_on_c, 3, 70, 40
5, 109776, Note_on_c, 3, 70, 0
5, 109776, Note_on_c, 3, 65, 0
5, 109776, Note_on_c, 3, 74, 0
5, 109800, Note_on_c, 3, 62, 44
5, 109800, Note_on_c, 3, 70, 44
5, 109800, Note_on_c, 3, 65, 44
5, 109992, Note_on_c, 3, 65, 0
5, 109992, Note_on_c, 3, 70, 0
5, 109992, Note_on_c, 3, 62, 0
5, 110040, Note_on_c, 3, 62, 43
5, 110040, Note_on_c, 3, 58, 43
5, 110040, Note_on_c, 3, 65, 43
5, 110136, Note_on_c, 3, 65, 0
5, 110136, Note_on_c, 3, 58, 0
5, 110136, Note_on_c, 3, 62, 0
5, 110400, Note_on_c, 3, 69, 42
5, 110400, Note_on_c, 3, 65, 42
5, 110400, Note_on_c, 3, 72, 42
5, 110496, Note_on_c, 3, 72, 0
5, 110496, Note_on_c, 3, 65, 0
5, 110496, Note_on_c, 3, 69, 0
5, 110520, Note_on_c, 3, 65, 42
5, 110520, Note_on_c, 3, 60, 42
5, 110520, Note_on_c, 3, 69, 42
5, 110712, Note_on_c, 3, 69, 0
5, 110712, Note_on_c, 3, 60, 0
5, 110712, Note_on_c, 3, 65, 0
5, 110760, Note_on_c, 3, 57, 41
5, 110760, Note_on_c, 3, 60, 41
5, 110760, Note_on_c, 3, 65, 41
5, 110856, Note_on_c, 3, 65, 0
5, 110856, Note_on_c, 3, 60, 0
5, 110856, Note_on_c, 3, 57, 0
5, 111120, Note_on_c, 3, 62, 40
5, 111120, Note_on_c, 3, 65, 40
5, 111120, Note_on_c, 3, 70, 40
5, 111216, Note_on_c, 3, 70, 0
5, 111216, Note_on_c, 3, 65, 0
5, 111216, Note_on_c, 3, 62, 0
5, 111240, Note_on_c, 3, 58, 40
5, 111240, Note_on_c, 3, 67, 40
5, 111240, Note_on_c, 3, 64, 40
5, 111432, Note_on_c, 3, 64, 0
5, 111432, Note_on_c, 3, 67, 0
5, 111432, Note_on_c, 3, 58, 0
5, 111480, Note_on_c, 3, 55, 40
5, 111480, Note_on_c, 3, 58, 40
5, 111480, Note_on_c, 3, 64, 40
5, 111576, Note_on_c, 3, 64, 0
5, 111576, Note_on_c, 3, 58, 0
5, 111576, Note_on_c, 3, 55, 0
5, 111600, Note_on_c, 3, 69, 40
5, 111600, Note_on_c, 3, 60, 40
5, 111792, Note_on_c, 3, 60, 0
5, 111792, Note_on_c, 3, 69, 0
5, 112920, Note_on_c, 3, 76, 40
5, 112920, Note_on_c, 3, 79, 40
5, 113016, Note_on_c, 3, 76, 0
5, 113040, Note_on_c, 3, 72, 40
5, 113136, Note_on_c, 3, 79, 0
5, 113160, Note_on_c, 3, 77, 40
5, 113256, Note_on_c, 3, 77, 0
5, 113256, Note_on_c, 3, 72, 0
5, 113640, Note_on_c, 3, 77, 40
5, 113640, Note_on_c, 3, 74, 40
5, 113736, Note_on_c, 3, 74, 0
5, 113760, Note_on_c, 3, 71, 40
5, 113856, Note_on_c, 3, 77, 0
5, 113880, Note_on_c, 3, 76, 40
5, 113976, Note_on_c, 3, 76, 0
5, 113976, Note_on_c, 3, 71, 0
5, 114360, Note_on_c, 3, 76, 40
5, 114360, Note_on_c, 3, 72, 40
5, 114456, Note_on_c, 3, 72, 0
5, 114480, Note_on_c, 3, 72, 40
5, 114576, Note_on_c, 3, 76, 0
5, 114600, Note_on_c, 3, 74, 40
5, 114696, Note_on_c, 3, 74, 0
5, 114696, Note_on_c, 3, 72, 0
5, 115080, Note_on_c, 3, 67, 40
5, 115080, Note_on_c, 3, 74, 40
5, 115080, Note_on_c, 3, 71, 40
5, 115176, Note_on_c, 3, 71, 0
5, 115176, Note_on_c, 3, 74, 0
5, 115176, Note_on_c, 3, 67, 0
5, 115200, Note_on_c, 3, 67, 40
5, 115200, Note_on_c, 3, 72, 40
5, 115392, Note_on_c, 3, 72, 0
5, 115392, Note_on_c, 3, 67, 0
5, 116880, Note_on_c, 3, 77, 40
5, 116880, Note_on_c, 3, 81, 40
5, 116880, Note_on_c, 3, 72, 40
5, 116976, Note_on_c, 3, 72, 0
5, 116976, Note_on_c, 3, 81, 0
5, 116976, Note_on_c, 3, 77, 0
5, 117000, Note_on_c, 3, 69, 40
5, 117000, Note_on_c, 3, 77, 40
5, 117000, Note_on_c, 3, 72, 40
5, 117192, Note_on_c, 3, 72, 0
5, 117192, Note_on_c, 3, 77, 0
5, 117192, Note_on_c, 3, 69, 0
5, 117240, Note_on_c, 3, 69, 40
5, 117240, Note_on_c, 3, 72, 40
5, 117240, Note_on_c, 3, 65, 40
5, 117336, Note_on_c, 3, 65, 0
5, 117336, Note_on_c, 3, 72, 0
5, 117336, Note_on_c, 3, 69, 0
5, 117600, Note_on_c, 3, 72, 40
5, 117600, Note_on_c, 3, 76, 40
5, 117600, Note_on_c, 3, 79, 40
5, 117696, Note_on_c, 3, 79, 0
5, 117696, Note_on_c, 3, 76, 0
5, 117696, Note_on_c, 3, 72, 0
5, 117720, Note_on_c, 3, 76, 40
5, 117720, Note_on_c, 3, 72, 40
5, 117720, Note_on_c, 3, 67, 40
5, 117912, Note_on_c, 3, 67, 0
5, 117912, Note_on_c, 3, 72, 0
5, 117912, Note_on_c, 3, 76, 0
5, 117960, Note_on_c, 3, 64, 40
5, 117960, Note_on_c, 3, 72, 40
5, 117960, Note_on_c, 3, 67, 40
5, 118056, Note_on_c, 3, 67, 0
5, 118056, Note_on_c, 3, 72, 0
5, 118056, Note_on_c, 3, 64, 0
5, 118320, Note_on_c, 3, 72, 40
5, 118320, Note_on_c, 3, 77, 40
5, 118320, Note_on_c, 3, 69, 40
5, 118416, Note_on_c, 3, 69, 0
5, 118416, Note_on_c, 3, 77, 0
5, 118416, Note_on_c, 3, 72, 0
5, 118440, Note_on_c, 3, 65, 40
5, 118440, Note_on_c, 3, 74, 40
5, 118440, Note_on_c, 3, 71, 40
5, 118632, Note_on_c, 3, 71, 0
5, 118632, Note_on_c, 3, 74, 0
5, 118632, Note_on_c, 3, 65, 0
5, 118680, Note_on_c, 3, 62, 40
5, 118680, Note_on_c, 3, 71, 40
5, 118680, Note_on_c, 3, 65, 40
5, 118776, Note_on_c, 3, 65, 0
5, 118776, Note_on_c, 3, 71, 0
5, 118776, Note_on_c, 3, 62, 0
5, 118800, Note_on_c, 3, 76, 40
5, 118800, Note_on_c, 3, 67, 40
5, 118992, Note_on_c, 3, 67, 0
5, 118992, Note_on_c, 3, 76, 0
5, 119880, Note_on_c, 3, 79, 40
5, 119880, Note_on_c, 3, 72, 40
5, 119976, Note_on_c, 3, 72, 0
5, 119976, Note_on_c, 3, 79, 0
5, 120240, Note_on_c, 3, 77, 40
5, 120240, Note_on_c, 3, 71, 40
5, 120240, Note_on_c, 3, 65, 40
5, 120336, Note_on_c, 3, 65, 0
5, 120336, Note_on_c, 3, 71, 0
5, 120336, Note_on_c, 3, 77, 0
5, 120600, Note_on_c, 3, 67, 40
5, 120600, Note_on_c, 3, 76, 40
5, 120600, Note_on_c, 3, 72, 40
5, 120696, Note_on_c, 3, 72, 0
5, 120696, Note_on_c, 3, 76, 0
5, 120696, Note_on_c, 3, 67, 0
5, 120960, Note_on_c, 3, 71, 40
5, 120960, Note_on_c, 3, 67, 40
5, 120960, Note_on_c, 3, 74, 40
5, 121152, Note_on_c, 3, 74, 0
5, 121152, Note_on_c, 3, 67, 0
5, 121152, Note_on_c, 3, 71, 0
5, 121560, Note_on_c, 3, 76, 40
5, 121560, Note_on_c, 3, 68, 40
5, 121560, Note_on_c, 3, 64, 40
5, 121656, Note_on_c, 3, 64, 0
5, 121656, Note_on_c, 3, 68, 0
5, 121656, Note_on_c, 3, 76, 0
5, 121680, Note_on_c, 3, 72, 40
5, 121680, Note_on_c, 3, 64, 40
5, 121872, Note_on_c, 3, 64, 0
5, 121872, Note_on_c, 3, 72, 0
5, 122280, Note_on_c, 3, 69, 40
5, 122280, Note_on_c, 3, 77, 40
5, 122280, Note_on_c, 3, 65, 40
5, 122376, Note_on_c, 3, 65, 0
5, 122376, Note_on_c, 3, 77, 0
5, 122376, Note_on_c, 3, 69, 0
5, 122400, Note_on_c, 3, 67, 40
5, 122400, Note_on_c, 3, 74, 40
5, 122592, Note_on_c, 3, 74, 0
5, 122592, Note_on_c, 3, 67, 0
5, 123000, Note_on_c, 3, 71, 40
5, 123000, Note_on_c, 3, 67, 40
5, 123000, Note_on_c, 3, 79, 40
5, 123096, Note_on_c, 3, 79, 0
5, 123096, Note_on_c, 3, 67, 0
5, 123096, Note_on_c, 3, 71, 0
5, 123120, Note_on_c, 3, 67, 40
5, 123120, Note_on_c, 3, 76, 40
5, 123216, Note_on_c, 3, 76, 0
5, 123216, Note_on_c, 3, 67, 0
5, 123480, Note_on_c, 3, 77, 40
5, 123480, Note_on_c, 3, 84, 40
5, 123576, Note_on_c, 3, 84, 0
5, 123576, Note_on_c, 3, 77, 0
5, 123840, Note_on_c, 3, 82, 40
5, 123840, Note_on_c, 3, 76, 40
5, 123840, Note_on_c, 3, 70, 40
5, 123936, Note_on_c, 3, 70, 0
5, 123936, Note_on_c, 3, 76, 0
5, 123936, Note_on_c, 3, 82, 0
5, 124200, Note_on_c, 3, 81, 40
5, 124200, Note_on_c, 3, 72, 40
5, 124200, Note_on_c, 3, 77, 40
5, 124296, Note_on_c, 3, 77, 0
5, 124296, Note_on_c, 3, 72, 0
5, 124296, Note_on_c, 3, 81, 0
5, 124560, Note_on_c, 3, 79, 40
5, 124560, Note_on_c, 3, 76, 40
5, 124560, Note_on_c, 3, 67, 40
5, 124752, Note_on_c, 3, 67, 0
5, 124752, Note_on_c, 3, 76, 0
5, 124752, Note_on_c, 3, 79, 0
5, 125160, Note_on_c, 3, 73, 40
5, 125160, Note_on_c, 3, 81, 40
5, 125160, Note_on_c, 3, 69, 40
5, 125256, Note_on_c, 3, 69, 0
5, 125256, Note_on_c, 3, 81, 0
5, 125256, Note_on_c, 3, 73, 0
5, 125280, Note_on_c, 3, 69, 40
5, 125280, Note_on_c, 3, 77, 40
5, 125472, Note_on_c, 3, 77, 0
5, 125472, Note_on_c, 3, 69, 0
5, 125880, Note_on_c, 3, 74, 40
5, 125880, Note_on_c, 3, 70, 40
5, 125880, Note_on_c, 3, 82, 40
5, 125976, Note_on_c, 3, 82, 0
5, 125976, Note_on_c, 3, 70, 0
5, 125976, Note_on_c, 3, 74, 0
5, 126000, Note_on_c, 3, 79, 40
5, 126000, Note_on_c, 3, 72, 40
5, 126192, Note_on_c, 3, 72, 0
5, 126192, Note_on_c, 3, 79, 0
5, 126600, Note_on_c, 3, 72, 40
5, 126600, Note_on_c, 3, 76, 40
5, 126600, Note_on_c, 3, 84, 40
5, 126696, Note_on_c, 3, 84, 0
5, 126696, Note_on_c, 3, 76, 0
5, 126696, Note_on_c, 3, 72, 0
5, 126720, Note_on_c, 3, 81, 40
5, 126720, Note_on_c, 3, 72, 40
5, 127008, Note_on_c, 3, 72, 0
5, 127080, Note_on_c, 3, 72, 40
5, 127080, Note_on_c, 3, 77, 40
5, 127296, Note_on_c, 3, 81, 0
5, 127440, Note_on_c, 3, 77, 0
5, 127440, Note_on_c, 3, 72, 0
5, 127440, Note_on_c, 3, 78, 40
5, 127440, Note_on_c, 3, 74, 40
5, 127440, Note_on_c, 3, 81, 40
5, 128016, Note_on_c, 3, 81, 0
5, 128016, Note_on_c, 3, 74, 0
5, 128016, Note_on_c, 3, 78, 0
5, 128160, Note_on_c, 3, 79, 40
5, 128160, Note_on_c, 3, 82, 40
5, 128160, Note_on_c, 3, 74, 40
5, 128736, Note_on_c, 3, 74, 0
5, 128736, Note_on_c, 3, 82, 0
5, 128736, Note_on_c, 3, 79, 0
5, 128880, Note_on_c, 3, 80, 40
5, 128880, Note_on_c, 3, 74, 40
5, 128880, Note_on_c, 3, 83, 40
5, 129456, Note_on_c, 3, 83, 0
5, 129456, Note_on_c, 3, 74, 0
5, 129456, Note_on_c, 3, 80, 0
5, 129600, Note_on_c, 3, 72, 49
5, 129600, Note_on_c, 3, 76, 49
5, 129600, Note_on_c, 3, 84, 49
5, 129600, Note_on_c, 3, 81, 49
5, 129792, Note_on_c, 3, 81, 0
5, 129792, Note_on_c, 3, 72, 0
5, 129792, Note_on_c, 3, 76, 0
5, 129792, Note_on_c, 3, 84, 0
5, 129960, Note_on_c, 3, 77, 49
5, 129960, Note_on_c, 3, 74, 49
5, 130152, Note_on_c, 3, 74, 0
5, 130152, Note_on_c, 3, 77, 0
5, 130320, Note_on_c, 3, 81, 49
5, 130320, Note_on_c, 3, 76, 49
5, 130512, Note_on_c, 3, 76, 0
5, 130512, Note_on_c, 3, 81, 0
5, 130680, Note_on_c, 3, 77, 49
5, 130680, Note_on_c, 3, 65, 49
5, 130680, Note_on_c, 3, 69, 49
5, 130872, Note_on_c, 3, 69, 0
5, 130872, Note_on_c, 3, 65, 0
5, 130872, Note_on_c, 3, 77, 0
5, 131040, Note_on_c, 3, 71, 49
5, 131040, Note_on_c, 3, 68, 49
5, 131136, Note_on_c, 3, 68, 0
5, 131160, Note_on_c, 3, 76, 49
5, 131256, Note_on_c, 3, 76, 0
5, 131256, Note_on_c, 3, 71, 0
5, 131280, Note_on_c, 3, 81, 49
5, 131400, Note_on_c, 3, 71, 49
5, 131400, Note_on_c, 3, 74, 49
5, 131496, Note_on_c, 3, 81, 0
5, 131520, Note_on_c, 3, 78, 49
5, 131616, Note_on_c, 3, 78, 0
5, 131616, Note_on_c, 3, 74, 0
5, 131616, Note_on_c, 3, 71, 0
5, 131640, Note_on_c, 3, 71, 49
5, 131640, Note_on_c, 3, 76, 49
5, 131640, Note_on_c, 3, 80, 49
5, 131736, Note_on_c, 3, 80, 0
5, 131736, Note_on_c, 3, 76, 0
5, 131736, Note_on_c, 3, 71, 0
5, 131760, Note_on_c, 3, 69, 49
5, 131760, Note_on_c, 3, 81, 49
5, 131760, Note_on_c, 3, 76, 49
5, 131952, Note_on_c, 3, 76, 0
5, 131952, Note_on_c, 3, 81, 0
5, 131952, Note_on_c, 3, 69, 0
5, 132000, Note_on_c, 3, 69, 49
5, 132000, Note_on_c, 3, 65, 49
5, 132000, Note_on_c, 3, 74, 49
5, 132096, Note_on_c, 3, 74, 0
5, 132096, Note_on_c, 3, 65, 0
5, 132096, Note_on_c, 3, 69, 0
5, 132120, Note_on_c, 3, 67, 49
5, 132120, Note_on_c, 3, 70, 49
5, 132120, Note_on_c, 3, 74, 49
5, 132312, Note_on_c, 3, 74, 0
5, 132312, Note_on_c, 3, 70, 0
5, 132312, Note_on_c, 3, 67, 0
5, 132360, Note_on_c, 3, 73, 49
5, 132360, Note_on_c, 3, 69, 49
5, 132456, Note_on_c, 3, 69, 0
5, 132456, Note_on_c, 3, 73, 0
5, 132480, Note_on_c, 3, 65, 49
5, 132480, Note_on_c, 3, 74, 49
5, 132480, Note_on_c, 3, 69, 49
5, 132672, Note_on_c, 3, 69, 0
5, 132672, Note_on_c, 3, 74, 0
5, 132672, Note_on_c, 3, 65, 0
5, 132840, Note_on_c, 3, 79, 49
5, 132840, Note_on_c, 3, 67, 49
5, 133032, Note_on_c, 3, 67, 0
5, 133032, Note_on_c, 3, 79, 0
5, 133200, Note_on_c, 3, 74, 49
5, 133200, Note_on_c, 3, 77, 49
5, 133200, Note_on_c, 3, 69, 49
5, 133392, Note_on_c, 3, 69, 0
5, 133392, Note_on_c, 3, 77, 0
5, 133392, Note_on_c, 3, 74, 0
5, 133560, Note_on_c, 3, 74, 49
5, 133560, Note_on_c, 3, 70, 49
5, 133560, Note_on_c, 3, 62, 49
5, 133752, Note_on_c, 3, 62, 0
5, 133752, Note_on_c, 3, 70, 0
5, 133752, Note_on_c, 3, 74, 0
5, 133920, Note_on_c, 3, 76, 49
5, 133920, Note_on_c, 3, 81, 49
5, 134112, Note_on_c, 3, 81, 0
5, 134112, Note_on_c, 3, 76, 0
5, 134160, Note_on_c, 3, 81, 49
5, 134160, Note_on_c, 3, 77, 49
5, 134256, Note_on_c, 3, 77, 0
5, 134256, Note_on_c, 3, 81, 0
5, 134280, Note_on_c, 3, 70, 49
5, 134280, Note_on_c, 3, 79, 49
5, 134472, Note_on_c, 3, 79, 0
5, 134472, Note_on_c, 3, 70, 0
5, 134520, Note_on_c, 3, 76, 49
5, 134520, Note_on_c, 3, 69, 49
5, 134616, Note_on_c, 3, 69, 0
5, 134616, Note_on_c, 3, 76, 0
5, 134640, Note_on_c, 3, 74, 48
5, 134640, Note_on_c, 3, 69, 48
5, 134832, Note_on_c, 3, 69, 0
5, 134832, Note_on_c, 3, 74, 0
5, 136680, Note_on_c, 3, 66, 23
5, 136680, Note_on_c, 3, 62, 23
5, 136680, Note_on_c, 3, 74, 23
5, 136776, Note_on_c, 3, 74, 0
5, 136776, Note_on_c, 3, 62, 0
5, 136776, Note_on_c, 3, 66, 0
5, 136800, Note_on_c, 3, 62, 23
5, 136800, Note_on_c, 3, 70, 23
5, 136992, Note_on_c, 3, 70, 0
5, 136992, Note_on_c, 3, 62, 0
5, 137400, Note_on_c, 3, 75, 23
5, 137400, Note_on_c, 3, 70, 23
5, 137400, Note_on_c, 3, 67, 23
5, 137496, Note_on_c, 3, 67, 0
5, 137496, Note_on_c, 3, 70, 0
5, 137496, Note_on_c, 3, 75, 0
5, 137520, Note_on_c, 3, 65, 23
5, 137520, Note_on_c, 3, 72, 23
5, 137712, Note_on_c, 3, 72, 0
5, 137712, Note_on_c, 3, 65, 0
5, 138120, Note_on_c, 3, 69, 23
5, 138120, Note_on_c, 3, 77, 23
5, 138216, Note_on_c, 3, 77, 0
5, 138216, Note_on_c, 3, 69, 0
5, 138240, Note_on_c, 3, 65, 23
5, 138240, Note_on_c, 3, 74, 23
5, 138432, Note_on_c, 3, 74, 0
5, 138432, Note_on_c, 3, 65, 0
5, 138480, Note_on_c, 3, 70, 40
5, 138480, Note_on_c, 3, 62, 40
5, 138576, Note_on_c, 3, 62, 0
5, 138576, Note_on_c, 3, 70, 0
5, 138600, Note_on_c, 3, 67, 40
5, 138600, Note_on_c, 3, 70, 40
5, 138600, Note_on_c, 3, 75, 40
5, 138792, Note_on_c, 3, 75, 0
5, 138792, Note_on_c, 3, 70, 0
5, 138792, Note_on_c, 3, 67, 0
5, 138840, Note_on_c, 3, 63, 40
5, 138840, Note_on_c, 3, 70, 40
5, 138840, Note_on_c, 3, 67, 40
5, 138936, Note_on_c, 3, 67, 0
5, 138936, Note_on_c, 3, 70, 0
5, 138936, Note_on_c, 3, 63, 0
5, 139200, Note_on_c, 3, 77, 40
5, 139200, Note_on_c, 3, 74, 40
5, 139200, Note_on_c, 3, 70, 40
5, 139296, Note_on_c, 3, 70, 0
5, 139296, Note_on_c, 3, 74, 0
5, 139296, Note_on_c, 3, 77, 0
5, 139320, Note_on_c, 3, 74, 40
5, 139320, Note_on_c, 3, 65, 40
5, 139320, Note_on_c, 3, 70, 40
5, 139512, Note_on_c, 3, 70, 0
5, 139512, Note_on_c, 3, 65, 0
5, 139512, Note_on_c, 3, 74, 0
5, 139560, Note_on_c, 3, 62, 40
5, 139560, Note_on_c, 3, 70, 40
5, 139560, Note_on_c, 3, 65, 40
5, 139656, Note_on_c, 3, 65, 0
5, 139656, Note_on_c, 3, 70, 0
5, 139656, Note_on_c, 3, 62, 0
5, 139920, Note_on_c, 3, 67, 40
5, 139920, Note_on_c, 3, 75, 40
5, 139920, Note_on_c, 3, 72, 40
5, 140016, Note_on_c, 3, 72, 0
5, 140016, Note_on_c, 3, 75, 0
5, 140016, Note_on_c, 3, 67, 0
5, 140040, Note_on_c, 3, 72, 40
5, 140040, Note_on_c, 3, 63, 40
5, 140040, Note_on_c, 3, 69, 40
5, 140232, Note_on_c, 3, 69, 0
5, 140232, Note_on_c, 3, 63, 0
5, 140232, Note_on_c, 3, 72, 0
5, 140280, Note_on_c, 3, 63, 40
5, 140280, Note_on_c, 3, 69, 40
5, 140280, Note_on_c, 3, 60, 40
5, 140376, Note_on_c, 3, 60, 0
5, 140376, Note_on_c, 3, 69, 0
5, 140376, Note_on_c, 3, 63, 0
5, 140400, Note_on_c, 3, 74, 40
5, 140400, Note_on_c, 3, 65, 40
5, 140688, Note_on_c, 3, 65, 0
5, 140760, Note_on_c, 3, 65, 40
5, 140760, Note_on_c, 3, 70, 40
5, 141048, Note_on_c, 3, 70, 0
5, 141048, Note_on_c, 3, 65, 0
5, 141048, Note_on_c, 3, 74, 0
5, 141120, Note_on_c, 3, 71, 40
5, 141120, Note_on_c, 3, 74, 40
5, 141120, Note_on_c, 3, 67, 40
5, 141696, Note_on_c, 3, 67, 0
5, 141696, Note_on_c, 3, 74, 0
5, 141696, Note_on_c, 3, 71, 0
5, 141840, Note_on_c, 3, 75, 40
5, 141840, Note_on_c, 3, 72, 40
5, 141840, Note_on_c, 3, 67, 40
5, 142416, Note_on_c, 3, 67, 0
5, 142416, Note_on_c, 3, 72, 0
5, 142416, Note_on_c, 3, 75, 0
5, 142560, Note_on_c, 3, 73, 40
5, 142560, Note_on_c, 3, 76, 40
5, 142560, Note_on_c, 3, 69, 40
5, 143136, Note_on_c, 3, 69, 0
5, 143136, Note_on_c, 3, 76, 0
5, 143136, Note_on_c, 3, 73, 0
5, 143280, Note_on_c, 3, 69, 40
5, 143280, Note_on_c, 3, 77, 40
5, 143280, Note_on_c, 3, 74, 40
5, 143472, Note_on_c, 3, 74, 0
5, 143472, Note_on_c, 3, 77, 0
5, 143472, Note_on_c, 3, 69, 0
5, 143520, Note_on_c, 3, 74, 41
5, 143520, Note_on_c, 3, 77, 41
5, 143520, Note_on_c, 3, 70, 41
5, 143616, Note_on_c, 3, 70, 0
5, 143616, Note_on_c, 3, 77, 0
5, 143616, Note_on_c, 3, 74, 0
5, 143640, Note_on_c, 3, 67, 41
5, 143640, Note_on_c, 3, 79, 41
5, 143640, Note_on_c, 3, 72, 41
5, 143832, Note_on_c, 3, 72, 0
5, 143832, Note_on_c, 3, 79, 0
5, 143832, Note_on_c, 3, 67, 0
5, 143880, Note_on_c, 3, 72, 42
5, 143880, Note_on_c, 3, 70, 42
5, 143880, Note_on_c, 3, 76, 42
5, 143976, Note_on_c, 3, 76, 0
5, 143976, Note_on_c, 3, 70, 0
5, 143976, Note_on_c, 3, 72, 0
5, 144000, Note_on_c, 3, 77, 42
5, 144000, Note_on_c, 3, 69, 42
5, 144000, Note_on_c, 3, 72, 42
5, 144192, Note_on_c, 3, 72, 0
5, 144192, Note_on_c, 3, 69, 0
5, 144192, Note_on_c, 3, 77, 0
5, 144360, Note_on_c, 3, 74, 43
5, 144360, Note_on_c, 3, 70, 43
5, 144552, Note_on_c, 3, 70, 0
5, 144552, Note_on_c, 3, 74, 0
5, 144720, Note_on_c, 3, 69, 45
5, 144720, Note_on_c, 3, 65, 45
5, 144720, Note_on_c, 3, 72, 45
5, 144912, Note_on_c, 3, 72, 0
5, 144912, Note_on_c, 3, 65, 0
5, 144912, Note_on_c, 3, 69, 0
5, 145080, Note_on_c, 3, 74, 46
5, 145080, Note_on_c, 3, 62, 46
5, 145080, Note_on_c, 3, 65, 46
5, 145272, Note_on_c, 3, 65, 0
5, 145272, Note_on_c, 3, 62, 0
5, 145272, Note_on_c, 3, 74, 0
5, 145440, Note_on_c, 3, 67, 47
5, 145440, Note_on_c, 3, 76, 47
5, 145536, Note_on_c, 3, 76, 0
5, 145560, Note_on_c, 3, 72, 47
5, 145656, Note_on_c, 3, 72, 0
5, 145656, Note_on_c, 3, 67, 0
5, 145680, Note_on_c, 3, 77, 47
5, 145680, Note_on_c, 3, 72, 47
5, 145776, Note_on_c, 3, 72, 0
5, 145800, Note_on_c, 3, 70, 48
5, 145896, Note_on_c, 3, 77, 0
5, 145920, Note_on_c, 3, 74, 48
5, 146016, Note_on_c, 3, 74, 0
5, 146016, Note_on_c, 3, 70, 0
5, 146040, Note_on_c, 3, 76, 48
5, 146040, Note_on_c, 3, 72, 48
5, 146040, Note_on_c, 3, 67, 48
5, 146136, Note_on_c, 3, 67, 0
5, 146136, Note_on_c, 3, 72, 0
5, 146136, Note_on_c, 3, 76, 0
5, 146160, Note_on_c, 3, 65, 49
5, 146160, Note_on_c, 3, 72, 49
5, 146160, Note_on_c, 3, 77, 49
5, 146352, Note_on_c, 3, 77, 0
5, 146352, Note_on_c, 3, 72, 0
5, 146352, Note_on_c, 3, 65, 0
5, 146400, Note_on_c, 3, 65, 49
5, 146400, Note_on_c, 3, 72, 49
5, 146400, Note_on_c, 3, 69, 49
5, 146496, Note_on_c, 3, 69, 0
5, 146496, Note_on_c, 3, 72, 0
5, 146496, Note_on_c, 3, 65, 0
5, 146520, Note_on_c, 3, 69, 50
5, 146520, Note_on_c, 3, 65, 50
5, 146520, Note_on_c, 3, 72, 50
5, 146712, Note_on_c, 3, 72, 0
5, 146712, Note_on_c, 3, 65, 0
5, 146712, Note_on_c, 3, 69, 0
5, 146760, Note_on_c, 3, 67, 50
5, 146760, Note_on_c, 3, 71, 50
5, 146856, Note_on_c, 3, 71, 0
5, 146856, Note_on_c, 3, 67, 0
5, 146880, Note_on_c, 3, 72, 40
5, 146880, Note_on_c, 3, 67, 40
5, 146880, Note_on_c, 3, 64, 40
5, 147072, Note_on_c, 3, 64, 0
5, 147072, Note_on_c, 3, 67, 0
5, 147072, Note_on_c, 3, 72, 0
5, 147240, Note_on_c, 3, 65, 40
5, 147240, Note_on_c, 3, 77, 40
5, 147432, Note_on_c, 3, 77, 0
5, 147432, Note_on_c, 3, 65, 0
5, 147600, Note_on_c, 3, 76, 40
5, 147600, Note_on_c, 3, 72, 40
5, 147600, Note_on_c, 3, 67, 40
5, 147792, Note_on_c, 3, 67, 0
5, 147792, Note_on_c, 3, 72, 0
5, 147792, Note_on_c, 3, 76, 0
5, 147960, Note_on_c, 3, 69, 40
5, 147960, Note_on_c, 3, 72, 40
5, 148152, Note_on_c, 3, 72, 0
5, 148152, Note_on_c, 3, 69, 0
5, 148320, Note_on_c, 3, 74, 40
5, 148320, Note_on_c, 3, 79, 40
5, 148512, Note_on_c, 3, 79, 0
5, 148512, Note_on_c, 3, 74, 0
5, 148560, Note_on_c, 3, 72, 40
5, 148560, Note_on_c, 3, 79, 40
5, 148656, Note_on_c, 3, 79, 0
5, 148656, Note_on_c, 3, 72, 0
5, 148680, Note_on_c, 3, 69, 40
5, 148680, Note_on_c, 3, 77, 40
5, 148872, Note_on_c, 3, 77, 0
5, 148872, Note_on_c, 3, 69, 0
5, 148920, Note_on_c, 3, 74, 40
5, 148920, Note_on_c, 3, 67, 40
5, 149016, Note_on_c, 3, 67, 0
5, 149016, Note_on_c, 3, 74, 0
5, 149040, Note_on_c, 3, 67, 40
5, 149040, Note_on_c, 3, 72, 40
5, 149232, Note_on_c, 3, 72, 0
5, 149232, Note_on_c, 3, 67, 0
5, 149640, Note_on_c, 3, 65, 40
5, 149640, Note_on_c, 3, 72, 40
5, 149856, Note_on_c, 3, 72, 0
5, 149880, Note_on_c, 3, 70, 40
5, 149976, Note_on_c, 3, 70, 0
5, 149976, Note_on_c, 3, 65, 0
5, 150360, Note_on_c, 3, 70, 40
5, 150360, Note_on_c, 3, 67, 40
5, 150456, Note_on_c, 3, 67, 0
5, 150480, Note_on_c, 3, 64, 40
5, 150576, Note_on_c, 3, 70, 0
5, 150600, Note_on_c, 3, 69, 40
5, 150696, Note_on_c, 3, 69, 0
5, 150696, Note_on_c, 3, 64, 0
5, 151080, Note_on_c, 3, 62, 40
5, 151080, Note_on_c, 3, 69, 40
5, 151296, Note_on_c, 3, 69, 0
5, 151320, Note_on_c, 3, 67, 40
5, 151416, Note_on_c, 3, 67, 0
5, 151416, Note_on_c, 3, 62, 0
5, 151800, Note_on_c, 3, 64, 40
5, 151800, Note_on_c, 3, 67, 40
5, 151800, Note_on_c, 3, 60, 40
5, 151896, Note_on_c, 3, 60, 0
5, 151896, Note_on_c, 3, 67, 0
5, 151896, Note_on_c, 3, 64, 0
5, 151920, Note_on_c, 3, 65, 40
5, 151920, Note_on_c, 3, 60, 40
5, 152112, Note_on_c, 3, 60, 0
5, 152112, Note_on_c, 3, 65, 0
5, 153960, Note_on_c, 3, 84, 40
5, 154176, Note_on_c, 3, 84, 0
5, 154200, Note_on_c, 3, 82, 40
5, 154296, Note_on_c, 3, 82, 0
5, 154680, Note_on_c, 3, 82, 40
5, 154896, Note_on_c, 3, 82, 0
5, 154920, Note_on_c, 3, 81, 40
5, 155016, Note_on_c, 3, 81, 0
5, 155400, Note_on_c, 3, 81, 40
5, 155616, Note_on_c, 3, 81, 0
5, 155640, Note_on_c, 3, 79, 40
5, 155736, Note_on_c, 3, 79, 0
5, 156120, Note_on_c, 3, 79, 39
5, 156216, Note_on_c, 3, 79, 0
5, 156240, Note_on_c, 3, 79, 44
5, 156336, Note_on_c, 3, 79, 0
5, 156360, Note_on_c, 3, 77, 50
5, 156456, Note_on_c, 3, 77, 0
5, 156480, Note_on_c, 3, 65, 56
5, 156480, Note_on_c, 3, 70, 56
5, 156576, Note_on_c, 3, 70, 0
5, 156576, Note_on_c, 3, 65, 0
5, 156600, Note_on_c, 3, 60, 62
5, 156600, Note_on_c, 3, 69, 62
5, 156600, Note_on_c, 3, 65, 62
5, 156696, Note_on_c, 3, 65, 0
5, 156696, Note_on_c, 3, 69, 0
5, 156720, Note_on_c, 3, 70, 68
5, 156720, Note_on_c, 3, 67, 68
5, 156816, Note_on_c, 3, 67, 0
5, 156816, Note_on_c, 3, 70, 0
5, 156816, Note_on_c, 3, 60, 0
5, 156840, Note_on_c, 3, 64, 74
5, 156840, Note_on_c, 3, 58, 74
5, 156840, Note_on_c, 3, 67, 74
5, 156936, Note_on_c, 3, 67, 0
5, 156936, Note_on_c, 3, 58, 0
5, 156936, Note_on_c, 3, 64, 0
5, 156960, Note_on_c, 3, 60, 81
5, 156960, Note_on_c, 3, 57, 81
5, 156960, Note_on_c, 3, 65, 81
5, 157248, Note_on_c, 3, 65, 0
5, 157248, Note_on_c, 3, 57, 0
5, 157248, Note_on_c, 3, 60, 0
5, 159000, Note_on_c, 3, 69, 90
5, 159000, Note_on_c, 3, 65, 90
5, 159048, Note_on_c, 3, 65, 0
5, 159048, Note_on_c, 3, 69, 0
5, 159060, Note_on_c, 3, 64, 90
5, 159060, Note_on_c, 3, 67, 90
5, 159108, Note_on_c, 3, 67, 0
5, 159108, Note_on_c, 3, 64, 0
5, 159120, Note_on_c, 3, 65, 90
5, 159120, Note_on_c, 3, 69, 90
5, 159216, Note_on_c, 3, 69, 0
5, 159216, Note_on_c, 3, 65, 0
5, 159480, Note_on_c, 3, 74, 90
5, 159528, Note_on_c, 3, 74, 0
5, 159540, Note_on_c, 3, 73, 90
5, 159588, Note_on_c, 3, 73, 0
5, 159600, Note_on_c, 3, 74, 90
5, 159696, Note_on_c, 3, 74, 0
5, 159960, Note_on_c, 3, 67, 90
5, 159960, Note_on_c, 3, 70, 90
5, 160008, Note_on_c, 3, 70, 0
5, 160008, Note_on_c, 3, 67, 0
5, 160020, Note_on_c, 3, 69, 90
5, 160020, Note_on_c, 3, 64, 90
5, 160068, Note_on_c, 3, 64, 0
5, 160068, Note_on_c, 3, 69, 0
5, 160080, Note_on_c, 3, 65, 90
5, 160176, Note_on_c, 3, 65, 0
5, 160440, Note_on_c, 3, 64, 90
5, 160488, Note_on_c, 3, 64, 0
5, 160500, Note_on_c, 3, 61, 90
5, 160548, Note_on_c, 3, 61, 0
5, 160560, Note_on_c, 3, 62, 90
5, 160560, Note_on_c, 3, 57, 90
5, 160656, Note_on_c, 3, 57, 0
5, 160656, Note_on_c, 3, 62, 0
5, 160920, Note_on_c, 3, 69, 90
5, 160968, Note_on_c, 3, 69, 0
5, 160980, Note_on_c, 3, 70, 90
5, 161028, Note_on_c, 3, 70, 0
5, 161040, Note_on_c, 3, 67, 90
5, 161136, Note_on_c, 3, 67, 0
5, 161400, Note_on_c, 3, 81, 90
5, 161448, Note_on_c, 3, 81, 0
5, 161460, Note_on_c, 3, 80, 90
5, 161508, Note_on_c, 3, 80, 0
5, 161520, Note_on_c, 3, 81, 90
5, 161568, Note_on_c, 3, 81, 0
5, 161580, Note_on_c, 3, 76, 90
5, 161628, Note_on_c, 3, 76, 0
5, 161640, Note_on_c, 3, 73, 90
5, 161688, Note_on_c, 3, 73, 0
5, 161700, Note_on_c, 3, 76, 90
5, 161748, Note_on_c, 3, 76, 0
5, 161760, Note_on_c, 3, 69, 90
5, 161856, Note_on_c, 3, 69, 0
5, 163080, Note_on_c, 3, 62, 69
5, 163080, Note_on_c, 3, 74, 69
5, 163080, Note_on_c, 3, 67, 69
5, 163128, Note_on_c, 3, 67, 0
5, 163128, Note_on_c, 3, 74, 0
5, 163128, Note_on_c, 3, 62, 0
5, 163140, Note_on_c, 3, 66, 69
5, 163140, Note_on_c, 3, 69, 69
5, 163140, Note_on_c, 3, 60, 69
5, 163188, Note_on_c, 3, 60, 0
5, 163188, Note_on_c, 3, 69, 0
5, 163188, Note_on_c, 3, 66, 0
5, 163200, Note_on_c, 3, 62, 69
5, 163200, Note_on_c, 3, 67, 69
5, 163200, Note_on_c, 3, 70, 69
5, 163296, Note_on_c, 3, 70, 0
5, 163296, Note_on_c, 3, 67, 0
5, 163296, Note_on_c, 3, 62, 0
5, 164520, Note_on_c, 3, 64, 69
5, 164520, Note_on_c, 3, 69, 69
5, 164520, Note_on_c, 3, 73, 69
5, 164568, Note_on_c, 3, 73, 0
5, 164568, Note_on_c, 3, 69, 0
5, 164568, Note_on_c, 3, 64, 0
5, 164580, Note_on_c, 3, 62, 70
5, 164580, Note_on_c, 3, 71, 70
5, 164580, Note_on_c, 3, 74, 70
5, 164628, Note_on_c, 3, 74, 0
5, 164628, Note_on_c, 3, 71, 0
5, 164628, Note_on_c, 3, 62, 0
5, 164640, Note_on_c, 3, 73, 71
5, 164640, Note_on_c, 3, 64, 71
5, 164640, Note_on_c, 3, 69, 71
5, 164736, Note_on_c, 3, 69, 0
5, 164736, Note_on_c, 3, 64, 0
5, 164736, Note_on_c, 3, 73, 0
5, 164760, Note_on_c, 3, 73, 73
5, 164760, Note_on_c, 3, 69, 73
5, 164760, Note_on_c, 3, 76, 73
5, 164856, Note_on_c, 3, 76, 0
5, 164856, Note_on_c, 3, 69, 0
5, 164856, Note_on_c, 3, 73, 0
5, 164880, Note_on_c, 3, 74, 75
5, 164880, Note_on_c, 3, 69, 75
5, 164976, Note_on_c, 3, 69, 0
5, 164976, Note_on_c, 3, 74, 0
5, 165240, Note_on_c, 3, 81, 81
5, 165288, Note_on_c, 3, 81, 0
5, 165300, Note_on_c, 3, 80, 82
5, 165348, Note_on_c, 3, 80, 0
5, 165360, Note_on_c, 3, 81, 83
5, 165456, Note_on_c, 3, 81, 0
5, 165720, Note_on_c, 3, 81, 83
5, 165720, Note_on_c, 3, 74, 83
5, 165768, Note_on_c, 3, 74, 0
5, 165768, Note_on_c, 3, 81, 0
5, 165780, Note_on_c, 3, 80, 83
5, 165828, Note_on_c, 3, 80, 0
5, 165840, Note_on_c, 3, 81, 83
5, 165936, Note_on_c, 3, 81, 0
5, 166200, Note_on_c, 3, 79, 83
5, 166200, Note_on_c, 3, 73, 83
5, 166200, Note_on_c, 3, 69, 83
5, 166296, Note_on_c, 3, 69, 0
5, 166296, Note_on_c, 3, 73, 0
5, 166296, Note_on_c, 3, 79, 0
5, 166320, Note_on_c, 3, 69, 83
5, 166320, Note_on_c, 3, 74, 83
5, 166320, Note_on_c, 3, 77, 83
5, 166416, Note_on_c, 3, 77, 0
5, 166416, Note_on_c, 3, 74, 0
5, 166416, Note_on_c, 3, 69, 0
5, 166440, Note_on_c, 3, 70, 83
5, 166440, Note_on_c, 3, 75, 83
5, 166440, Note_on_c, 3, 67, 83
5, 166536, Note_on_c, 3, 67, 0
5, 166536, Note_on_c, 3, 75, 0
5, 166536, Note_on_c, 3, 70, 0
5, 166680, Note_on_c, 3, 69, 83
5, 166680, Note_on_c, 3, 74, 83
5, 166776, Note_on_c, 3, 74, 0
5, 166776, Note_on_c, 3, 69, 0
5, 166920, Note_on_c, 3, 79, 83
5, 166920, Note_on_c, 3, 82, 83
5, 167016, Note_on_c, 3, 82, 0
5, 167016, Note_on_c, 3, 79, 0
5, 167040, Note_on_c, 3, 64, 83
5, 167040, Note_on_c, 3, 73, 83
5, 167040, Note_on_c, 3, 67, 83
5, 167136, Note_on_c, 3, 67, 0
5, 167136, Note_on_c, 3, 73, 0
5, 167136, Note_on_c, 3, 64, 0
5, 167760, Note_on_c, 3, 65, 84
5, 167760, Note_on_c, 3, 69, 84
5, 167760, Note_on_c, 3, 74, 84
5, 167856, Note_on_c, 3, 74, 0
5, 167856, Note_on_c, 3, 69, 0
5, 167856, Note_on_c, 3, 65, 0
5, 168480, Note_on_c, 3, 69, 84
5, 168480, Note_on_c, 3, 76, 84
5, 168480, Note_on_c, 3, 73, 84
5, 168576, Note_on_c, 3, 73, 0
5, 168576, Note_on_c, 3, 76, 0
5, 168576, Note_on_c, 3, 69, 0
5, 169200, Note_on_c, 3, 74, 77
5, 169200, Note_on_c, 3, 77, 77
5, 169200, Note_on_c, 3, 69, 77
5, 169248, Note_on_c, 3, 69, 0
5, 169248, Note_on_c, 3, 77, 0
5, 169248, Note_on_c, 3, 74, 0
5, 169260, Note_on_c, 3, 69, 77
5, 169308, Note_on_c, 3, 69, 0
5, 169320, Note_on_c, 3, 67, 77
5, 169368, Note_on_c, 3, 67, 0
5, 169380, Note_on_c, 3, 69, 77
5, 169428, Note_on_c, 3, 69, 0
5, 169440, Note_on_c, 3, 70, 77
5, 169488, Note_on_c, 3, 70, 0
5, 169500, Note_on_c, 3, 69, 77
5, 169548, Note_on_c, 3, 69, 0
5, 169560, Note_on_c, 3, 67, 77
5, 169608, Note_on_c, 3, 67, 0
5, 169620, Note_on_c, 3, 69, 77
5, 169668, Note_on_c, 3, 69, 0
5, 169680, Note_on_c, 3, 70, 77
5, 169776, Note_on_c, 3, 70, 0
5, 169800, Note_on_c, 3, 67, 77
5, 169896, Note_on_c, 3, 67, 0
5, 169920, Note_on_c, 3, 74, 77
5, 169968, Note_on_c, 3, 74, 0
5, 169980, Note_on_c, 3, 69, 77
5, 170028, Note_on_c, 3, 69, 0
5, 170040, Note_on_c, 3, 67, 77
5, 170088, Note_on_c, 3, 67, 0
5, 170100, Note_on_c, 3, 69, 77
5, 170148, Note_on_c, 3, 69, 0
5, 170160, Note_on_c, 3, 65, 77
5, 170208, Note_on_c, 3, 65, 0
5, 170220, Note_on_c, 3, 69, 77
5, 170268, Note_on_c, 3, 69, 0
5, 170280, Note_on_c, 3, 67, 77
5, 170328, Note_on_c, 3, 67, 0
5, 170340, Note_on_c, 3, 69, 77
5, 170388, Note_on_c, 3, 69, 0
5, 170400, Note_on_c, 3, 69, 77
5, 170496, Note_on_c, 3, 69, 0
5, 170520, Note_on_c, 3, 65, 77
5, 170616, Note_on_c, 3, 65, 0
5, 170640, Note_on_c, 3, 67, 77
5, 170688, Note_on_c, 3, 67, 0
5, 170700, Note_on_c, 3, 65, 77
5, 170748, Note_on_c, 3, 65, 0
5, 170760, Note_on_c, 3, 64, 77
5, 170808, Note_on_c, 3, 64, 0
5, 170820, Note_on_c, 3, 65, 77
5, 170868, Note_on_c, 3, 65, 0
5, 170880, Note_on_c, 3, 67, 77
5, 170928, Note_on_c, 3, 67, 0
5, 170940, Note_on_c, 3, 65, 77
5, 170988, Note_on_c, 3, 65, 0
5, 171000, Note_on_c, 3, 64, 77
5, 171048, Note_on_c, 3, 64, 0
5, 171060, Note_on_c, 3, 65, 77
5, 171108, Note_on_c, 3, 65, 0
5, 171120, Note_on_c, 3, 67, 77
5, 171120, Note_on_c, 3, 61, 77
5, 171120, Note_on_c, 3, 64, 77
5, 171216, Note_on_c, 3, 64, 0
5, 171216, Note_on_c, 3, 61, 0
5, 171216, Note_on_c, 3, 67, 0
5, 171240, Note_on_c, 3, 64, 77
5, 171336, Note_on_c, 3, 64, 0
5, 171360, Note_on_c, 3, 62, 77
5, 171360, Note_on_c, 3, 65, 77
5, 171456, Note_on_c, 3, 65, 0
5, 171456, Note_on_c, 3, 62, 0
5, 171480, Note_on_c, 3, 65, 77
5, 171480, Note_on_c, 3, 69, 77
5, 171480, Note_on_c, 3, 62, 77
5, 171576, Note_on_c, 3, 62, 0
5, 171576, Note_on_c, 3, 69, 0
5, 171576, Note_on_c, 3, 65, 0
5, 171600, Note_on_c, 3, 65, 77
5, 171600, Note_on_c, 3, 69, 77
5, 171600, Note_on_c, 3, 74, 77
5, 171696, Note_on_c, 3, 74, 0
5, 171696, Note_on_c, 3, 69, 0
5, 171696, Note_on_c, 3, 65, 0
5, 171720, Note_on_c, 3, 77, 77
5, 171720, Note_on_c, 3, 69, 77
5, 171720, Note_on_c, 3, 74, 77
5, 171816, Note_on_c, 3, 74, 0
5, 171816, Note_on_c, 3, 69, 0
5, 171816, Note_on_c, 3, 77, 0
5, 171840, Note_on_c, 3, 76, 77
5, 171840, Note_on_c, 3, 71, 77
5, 171840, Note_on_c, 3, 80, 77
5, 171936, Note_on_c, 3, 80, 0
5, 171936, Note_on_c, 3, 71, 0
5, 171936, Note_on_c, 3, 76, 0
5, 171960, Note_on_c, 3, 80, 77
5, 171960, Note_on_c, 3, 71, 77
5, 171960, Note_on_c, 3, 76, 77
5, 172056, Note_on_c, 3, 76, 0
5, 172056, Note_on_c, 3, 71, 0
5, 172056, Note_on_c, 3, 80, 0
5, 172080, Note_on_c, 3, 76, 77
5, 172080, Note_on_c, 3, 81, 77
5, 172080, Note_on_c, 3, 69, 77
5, 172176, Note_on_c, 3, 69, 0
5, 172176, Note_on_c, 3, 81, 0
5, 172176, Note_on_c, 3, 76, 0
5, 172200, Note_on_c, 3, 76, 77
5, 172200, Note_on_c, 3, 69, 77
5, 172200, Note_on_c, 3, 73, 77
5, 172296, Note_on_c, 3, 73, 0
5, 172296, Note_on_c, 3, 69, 0
5, 172296, Note_on_c, 3, 76, 0
5, 172320, Note_on_c, 3, 69, 77
5, 172320, Note_on_c, 3, 74, 77
5, 172320, Note_on_c, 3, 77, 77
5, 172416, Note_on_c, 3, 77, 0
5, 172416, Note_on_c, 3, 74, 0
5, 172416, Note_on_c, 3, 69, 0
5, 172440, Note_on_c, 3, 62, 77
5, 172440, Note_on_c, 3, 74, 77
5, 172440, Note_on_c, 3, 69, 77
5, 172536, Note_on_c, 3, 69, 0
5, 172536, Note_on_c, 3, 74, 0
5, 172536, Note_on_c, 3, 62, 0
5, 172560, Note_on_c, 3, 69, 77
5, 172560, Note_on_c, 3, 65, 77
5, 172560, Note_on_c, 3, 62, 77
5, 172656, Note_on_c, 3, 62, 0
5, 172656, Note_on_c, 3, 65, 0
5, 172656, Note_on_c, 3, 69, 0
5, 172680, Note_on_c, 3, 64, 77
5, 172680, Note_on_c, 3, 73, 77
5, 172776, Note_on_c, 3, 73, 0
5, 172776, Note_on_c, 3, 64, 0
5, 172800, Note_on_c, 3, 65, 77
5, 172800, Note_on_c, 3, 74, 77
5, 172896, Note_on_c, 3, 74, 0
5, 172896, Note_on_c, 3, 65, 0
5, 172920, Note_on_c, 3, 67, 77
5, 172968, Note_on_c, 3, 67, 0
5, 172980, Note_on_c, 3, 64, 77
5, 173028, Note_on_c, 3, 64, 0
5, 173040, Note_on_c, 3, 65, 77
5, 173088, Note_on_c, 3, 65, 0
5, 173100, Note_on_c, 3, 62, 77
5, 173148, Note_on_c, 3, 62, 0
5, 173160, Note_on_c, 3, 58, 77
5, 173208, Note_on_c, 3, 58, 0
5, 173220, Note_on_c, 3, 55, 77
5, 173268, Note_on_c, 3, 55, 0
5, 173280, Note_on_c, 3, 57, 77
5, 173328, Note_on_c, 3, 57, 0
5, 173340, Note_on_c, 3, 53, 77
5, 173388, Note_on_c, 3, 53, 0
5, 173400, Note_on_c, 3, 55, 77
5, 173448, Note_on_c, 3, 55, 0
5, 173460, Note_on_c, 3, 52, 77
5, 173508, Note_on_c, 3, 52, 0
5, 173520, Note_on_c, 3, 53, 77
5, 173712, Note_on_c, 3, 53, 0
5, 175800, Note_on_c, 3, 65, 38
5, 175800, Note_on_c, 3, 74, 38
5, 175800, Note_on_c, 3, 69, 38
5, 175848, Note_on_c, 3, 69, 0
5, 175848, Note_on_c, 3, 74, 0
5, 175848, Note_on_c, 3, 65, 0
5, 175860, Note_on_c, 3, 70, 38
5, 175860, Note_on_c, 3, 76, 38
5, 175860, Note_on_c, 3, 67, 38
5, 175908, Note_on_c, 3, 67, 0
5, 175908, Note_on_c, 3, 76, 0
5, 175908, Note_on_c, 3, 70, 0
5, 175920, Note_on_c, 3, 74, 38
5, 175920, Note_on_c, 3, 65, 38
5, 175920, Note_on_c, 3, 69, 38
5, 176016, Note_on_c, 3, 69, 0
5, 176016, Note_on_c, 3, 65, 0
5, 176016, Note_on_c, 3, 74, 0
5, 176280, Note_on_c, 3, 74, 38
5, 176280, Note_on_c, 3, 69, 38
5, 176280, Note_on_c, 3, 77, 38
5, 176328, Note_on_c, 3, 77, 0
5, 176328, Note_on_c, 3, 69, 0
5, 176328, Note_on_c, 3, 74, 0
5, 176340, Note_on_c, 3, 70, 38
5, 176340, Note_on_c, 3, 76, 38
5, 176340, Note_on_c, 3, 79, 38
5, 176388, Note_on_c, 3, 79, 0
5, 176388, Note_on_c, 3, 76, 0
5, 176388, Note_on_c, 3, 70, 0
5, 176400, Note_on_c, 3, 74, 38
5, 176400, Note_on_c, 3, 69, 38
5, 176400, Note_on_c, 3, 77, 38
5, 176496, Note_on_c, 3, 77, 0
5, 176496, Note_on_c, 3, 69, 0
5, 176496, Note_on_c, 3, 74, 0
5, 178680, Note_on_c, 3, 69, 40
5, 178680, Note_on_c, 3, 65, 40
5, 178680, Note_on_c, 3, 62, 40
5, 178728, Note_on_c, 3, 62, 0
5, 178728, Note_on_c, 3, 65, 0
5, 178728, Note_on_c, 3, 69, 0
5, 178740, Note_on_c, 3, 67, 40
5, 178740, Note_on_c, 3, 61, 40
5, 178740, Note_on_c, 3, 70, 40
5, 178788, Note_on_c, 3, 70, 0
5, 178788, Note_on_c, 3, 61, 0
5, 178788, Note_on_c, 3, 67, 0
5, 178800, Note_on_c, 3, 69, 40
5, 178800, Note_on_c, 3, 65, 40
5, 178800, Note_on_c, 3, 62, 40
5, 178896, Note_on_c, 3, 62, 0
5, 178896, Note_on_c, 3, 65, 0
5, 178896, Note_on_c, 3, 69, 0
5, 179160, Note_on_c, 3, 65, 40
5, 179160, Note_on_c, 3, 74, 40
5, 179160, Note_on_c, 3, 69, 40
5, 179208, Note_on_c, 3, 69, 0
5, 179208, Note_on_c, 3, 74, 0
5, 179208, Note_on_c, 3, 65, 0
5, 179220, Note_on_c, 3, 67, 40
5, 179220, Note_on_c, 3, 76, 40
5, 179220, Note_on_c, 3, 70, 40
5, 179268, Note_on_c, 3, 70, 0
5, 179268, Note_on_c, 3, 76, 0
5, 179268, Note_on_c, 3, 67, 0
5, 179280, Note_on_c, 3, 69, 40
5, 179280, Note_on_c, 3, 65, 40
5, 179280, Note_on_c, 3, 74, 40
5, 179376, Note_on_c, 3, 74, 0
5, 179376, Note_on_c, 3, 65, 0
5, 179376, Note_on_c, 3, 69, 0
5, 179520, Note_on_c, 3, 72, 40
5, 179520, Note_on_c, 3, 81, 40
5, 179616, Note_on_c, 3, 81, 0
5, 179616, Note_on_c, 3, 72, 0
5, 180000, Note_on_c, 3, 67, 40
5, 180000, Note_on_c, 3, 74, 40
5, 180000, Note_on_c, 3, 70, 40
5, 180096, Note_on_c, 3, 70, 0
5, 180096, Note_on_c, 3, 74, 0
5, 180096, Note_on_c, 3, 67, 0
5, 180240, Note_on_c, 3, 71, 40
5, 180240, Note_on_c, 3, 74, 40
5, 180240, Note_on_c, 3, 77, 40
5, 180336, Note_on_c, 3, 77, 0
5, 180336, Note_on_c, 3, 74, 0
5, 180336, Note_on_c, 3, 71, 0
5, 180720, Note_on_c, 3, 67, 40
5, 180720, Note_on_c, 3, 76, 40
5, 180720, Note_on_c, 3, 72, 40
5, 180816, Note_on_c, 3, 72, 0
5, 180816, Note_on_c, 3, 76, 0
5, 180816, Note_on_c, 3, 67, 0
5, 180960, Note_on_c, 3, 79, 40
5, 180960, Note_on_c, 3, 76, 40
5, 180960, Note_on_c, 3, 70, 40
5, 181056, Note_on_c, 3, 70, 0
5, 181056, Note_on_c, 3, 76, 0
5, 181056, Note_on_c, 3, 79, 0
5, 181440, Note_on_c, 3, 69, 40
5, 181440, Note_on_c, 3, 65, 40
5, 181440, Note_on_c, 3, 72, 40
5, 181536, Note_on_c, 3, 72, 0
5, 181536, Note_on_c, 3, 65, 0
5, 181536, Note_on_c, 3, 69, 0
5, 181680, Note_on_c, 3, 69, 40
5, 181680, Note_on_c, 3, 77, 40
5, 181680, Note_on_c, 3, 72, 40
5, 181776, Note_on_c, 3, 72, 0
5, 181776, Note_on_c, 3, 77, 0
5, 181776, Note_on_c, 3, 69, 0
5, 182160, Note_on_c, 3, 65, 40
5, 182160, Note_on_c, 3, 74, 40
5, 182160, Note_on_c, 3, 70, 40
5, 182256, Note_on_c, 3, 70, 0
5, 182256, Note_on_c, 3, 74, 0
5, 182256, Note_on_c, 3, 65, 0
5, 182400, Note_on_c, 3, 79, 40
5, 182400, Note_on_c, 3, 70, 40
5, 182400, Note_on_c, 3, 74, 40
5, 182496, Note_on_c, 3, 74, 0
5, 182496, Note_on_c, 3, 70, 0
5, 182496, Note_on_c, 3, 79, 0
5, 182880, Note_on_c, 3, 67, 40
5, 182880, Note_on_c, 3, 76, 40
5, 182880, Note_on_c, 3, 72, 40
5, 182976, Note_on_c, 3, 72, 0
5, 182976, Note_on_c, 3, 76, 0
5, 182976, Note_on_c, 3, 67, 0
5, 183120, Note_on_c, 3, 76, 40
5, 183120, Note_on_c, 3, 72, 40
5, 183120, Note_on_c, 3, 81, 40
5, 183216, Note_on_c, 3, 81, 0
5, 183216, Note_on_c, 3, 72, 0
5, 183216, Note_on_c, 3, 76, 0
5, 183600, Note_on_c, 3, 69, 38
5, 183600, Note_on_c, 3, 77, 38
5, 183600, Note_on_c, 3, 74, 38
5, 183696, Note_on_c, 3, 74, 0
5, 183696, Note_on_c, 3, 77, 0
5, 183696, Note_on_c, 3, 69, 0
5, 183840, Note_on_c, 3, 77, 41
5, 183840, Note_on_c, 3, 82, 41
5, 183840, Note_on_c, 3, 74, 41
5, 183936, Note_on_c, 3, 74, 0
5, 183936, Note_on_c, 3, 82, 0
5, 183936, Note_on_c, 3, 77, 0
5, 184320, Note_on_c, 3, 79, 44
5, 184320, Note_on_c, 3, 67, 44
5, 184320, Note_on_c, 3, 72, 44
5, 184416, Note_on_c, 3, 72, 0
5, 184416, Note_on_c, 3, 67, 0
5, 184416, Note_on_c, 3, 79, 0
5, 184560, Note_on_c, 3, 79, 56
5, 184560, Note_on_c, 3, 76, 56
5, 184560, Note_on_c, 3, 84, 56
5, 184656, Note_on_c, 3, 84, 0
5, 184656, Note_on_c, 3, 76, 0
5, 184656, Note_on_c, 3, 79, 0
5, 184920, Note_on_c, 3, 72, 72
5, 184920, Note_on_c, 3, 77, 72
5, 184968, Note_on_c, 3, 77, 0
5, 184968, Note_on_c, 3, 72, 0
5, 184980, Note_on_c, 3, 70, 75
5, 184980, Note_on_c, 3, 76, 75
5, 185028, Note_on_c, 3, 76, 0
5, 185028, Note_on_c, 3, 70, 0
5, 185040, Note_on_c, 3, 77, 78
5, 185040, Note_on_c, 3, 72, 78
5, 185136, Note_on_c, 3, 72, 0
5, 185136, Note_on_c, 3, 77, 0
5, 185400, Note_on_c, 3, 77, 100
5, 185448, Note_on_c, 3, 77, 0
5, 185460, Note_on_c, 3, 76, 100
5, 185508, Note_on_c, 3, 76, 0
5, 185520, Note_on_c, 3, 77, 100
5, 185616, Note_on_c, 3, 77, 0
5, 185880, Note_on_c, 3, 74, 100
5, 185880, Note_on_c, 3, 70, 100
5, 185928, Note_on_c, 3, 70, 0
5, 185928, Note_on_c, 3, 74, 0
5, 185940, Note_on_c, 3, 72, 100
5, 185940, Note_on_c, 3, 67, 100
5, 185988, Note_on_c, 3, 67, 0
5, 185988, Note_on_c, 3, 72, 0
5, 186000, Note_on_c, 3, 74, 100
5, 186000, Note_on_c, 3, 69, 100
5, 186096, Note_on_c, 3, 69, 0
5, 186096, Note_on_c, 3, 74, 0
5, 186360, Note_on_c, 3, 67, 100
5, 186360, Note_on_c, 3, 70, 100
5, 186408, Note_on_c, 3, 70, 0
5, 186408, Note_on_c, 3, 67, 0
5, 186420, Note_on_c, 3, 64, 100
5, 186420, Note_on_c, 3, 67, 100
5, 186468, Note_on_c, 3, 67, 0
5, 186468, Note_on_c, 3, 64, 0
5, 186480, Note_on_c, 3, 65, 100
5, 186480, Note_on_c, 3, 72, 100
5, 186576, Note_on_c, 3, 72, 0
5, 186576, Note_on_c, 3, 65, 0
5, 186840, Note_on_c, 3, 72, 100
5, 186888, Note_on_c, 3, 72, 0
5, 186900, Note_on_c, 3, 74, 100
5, 186948, Note_on_c, 3, 74, 0
5, 186960, Note_on_c, 3, 70, 100
5, 187056, Note_on_c, 3, 70, 0
5, 187320, Note_on_c, 3, 84, 100
5, 187320, Note_on_c, 3, 76, 100
5, 187368, Note_on_c, 3, 76, 0
5, 187368, Note_on_c, 3, 84, 0
5, 187380, Note_on_c, 3, 74, 100
5, 187380, Note_on_c, 3, 83, 100
5, 187428, Note_on_c, 3, 83, 0
5, 187428, Note_on_c, 3, 74, 0
5, 187440, Note_on_c, 3, 76, 100
5, 187440, Note_on_c, 3, 84, 100
5, 187488, Note_on_c, 3, 84, 0
5, 187488, Note_on_c, 3, 76, 0
5, 187500, Note_on_c, 3, 79, 100
5, 187548, Note_on_c, 3, 79, 0
5, 187560, Note_on_c, 3, 76, 100
5, 187608, Note_on_c, 3, 76, 0
5, 187620, Note_on_c, 3, 79, 100
5, 187668, Note_on_c, 3, 79, 0
5, 187680, Note_on_c, 3, 72, 100
5, 187776, Note_on_c, 3, 72, 0
5, 188040, Note_on_c, 3, 69, 100
5, 188088, Note_on_c, 3, 69, 0
5, 188100, Note_on_c, 3, 67, 100
5, 188148, Note_on_c, 3, 67, 0
5, 188160, Note_on_c, 3, 69, 100
5, 188208, Note_on_c, 3, 69, 0
5, 188220, Note_on_c, 3, 64, 100
5, 188268, Note_on_c, 3, 64, 0
5, 188280, Note_on_c, 3, 61, 100
5, 188328, Note_on_c, 3, 61, 0
5, 188340, Note_on_c, 3, 64, 100
5, 188388, Note_on_c, 3, 64, 0
5, 188400, Note_on_c, 3, 57, 100
5, 188496, Note_on_c, 3, 57, 0
5, 188760, Note_on_c, 3, 74, 100
5, 188808, Note_on_c, 3, 74, 0
5, 188820, Note_on_c, 3, 73, 100
5, 188868, Note_on_c, 3, 73, 0
5, 188880, Note_on_c, 3, 74, 100
5, 188928, Note_on_c, 3, 74, 0
5, 188940, Note_on_c, 3, 69, 100
5, 188988, Note_on_c, 3, 69, 0
5, 189000, Note_on_c, 3, 65, 100
5, 189048, Note_on_c, 3, 65, 0
5, 189060, Note_on_c, 3, 69, 100
5, 189108, Note_on_c, 3, 69, 0
5, 189120, Note_on_c, 3, 62, 100
5, 189216, Note_on_c, 3, 62, 0
5, 189480, Note_on_c, 3, 76, 100
5, 189528, Note_on_c, 3, 76, 0
5, 189540, Note_on_c, 3, 74, 100
5, 189588, Note_on_c, 3, 74, 0
5, 189600, Note_on_c, 3, 76, 100
5, 189648, Note_on_c, 3, 76, 0
5, 189660, Note_on_c, 3, 71, 100
5, 189708, Note_on_c, 3, 71, 0
5, 189720, Note_on_c, 3, 68, 100
5, 189768, Note_on_c, 3, 68, 0
5, 189780, Note_on_c, 3, 71, 100
5, 189828, Note_on_c, 3, 71, 0
5, 189840, Note_on_c, 3, 64, 100
5, 189936, Note_on_c, 3, 64, 0
5, 190200, Note_on_c, 3, 69, 100
5, 190248, Note_on_c, 3, 69, 0
5, 190260, Note_on_c, 3, 68, 100
5, 190308, Note_on_c, 3, 68, 0
5, 190320, Note_on_c, 3, 69, 100
5, 190368, Note_on_c, 3, 69, 0
5, 190380, Note_on_c, 3, 64, 100
5, 190428, Note_on_c, 3, 64, 0
5, 190440, Note_on_c, 3, 60, 100
5, 190488, Note_on_c, 3, 60, 0
5, 190500, Note_on_c, 3, 64, 100
5, 190548, Note_on_c, 3, 64, 0
5, 190560, Note_on_c, 3, 57, 96
5, 190656, Note_on_c, 3, 57, 0
5, 190860, Note_on_c, 3, 62, 93
5, 190908, Note_on_c, 3, 62, 0
5, 190920, Note_on_c, 3, 67, 93
5, 190968, Note_on_c, 3, 67, 0
5, 190980, Note_on_c, 3, 65, 92
5, 191028, Note_on_c, 3, 65, 0
5, 191040, Note_on_c, 3, 67, 92
5, 191088, Note_on_c, 3, 67, 0
5, 191100, Note_on_c, 3, 62, 91
5, 191148, Note_on_c, 3, 62, 0
5, 191160, Note_on_c, 3, 71, 91
5, 191160, Note_on_c, 3, 67, 91
5, 191208, Note_on_c, 3, 67, 0
5, 191208, Note_on_c, 3, 71, 0
5, 191220, Note_on_c, 3, 69, 90
5, 191220, Note_on_c, 3, 65, 90
5, 191268, Note_on_c, 3, 65, 0
5, 191268, Note_on_c, 3, 69, 0
5, 191280, Note_on_c, 3, 71, 89
5, 191280, Note_on_c, 3, 67, 89
5, 191328, Note_on_c, 3, 67, 0
5, 191328, Note_on_c, 3, 71, 0
5, 191340, Note_on_c, 3, 62, 89
5, 191388, Note_on_c, 3, 62, 0
5, 191400, Note_on_c, 3, 71, 88
5, 191400, Note_on_c, 3, 67, 88
5, 191448, Note_on_c, 3, 67, 0
5, 191448, Note_on_c, 3, 71, 0
5, 191460, Note_on_c, 3, 74, 88
5, 191508, Note_on_c, 3, 74, 0
5, 191520, Note_on_c, 3, 76, 87
5, 191568, Note_on_c, 3, 76, 0
5, 191580, Note_on_c, 3, 60, 87
5, 191628, Note_on_c, 3, 60, 0
5, 191640, Note_on_c, 3, 65, 86
5, 191688, Note_on_c, 3, 65, 0
5, 191700, Note_on_c, 3, 64, 85
5, 191748, Note_on_c, 3, 64, 0
5, 191760, Note_on_c, 3, 65, 85
5, 191808, Note_on_c, 3, 65, 0
5, 191820, Note_on_c, 3, 60, 84
5, 191868, Note_on_c, 3, 60, 0
5, 191880, Note_on_c, 3, 65, 84
5, 191880, Note_on_c, 3, 69, 84
5, 191928, Note_on_c, 3, 69, 0
5, 191928, Note_on_c, 3, 65, 0
5, 191940, Note_on_c, 3, 64, 83
5, 191940, Note_on_c, 3, 67, 83
5, 191988, Note_on_c, 3, 67, 0
5, 191988, Note_on_c, 3, 64, 0
5, 192000, Note_on_c, 3, 65, 83
5, 192000, Note_on_c, 3, 69, 83
5, 192048, Note_on_c, 3, 69, 0
5, 192048, Note_on_c, 3, 65, 0
5, 192060, Note_on_c, 3, 60, 82
5, 192108, Note_on_c, 3, 60, 0
5, 192120, Note_on_c, 3, 65, 81
5, 192120, Note_on_c, 3, 69, 81
5, 192168, Note_on_c, 3, 69, 0
5, 192168, Note_on_c, 3, 65, 0
5, 192180, Note_on_c, 3, 72, 81
5, 192228, Note_on_c, 3, 72, 0
5, 192240, Note_on_c, 3, 74, 80
5, 192288, Note_on_c, 3, 74, 0
5, 192300, Note_on_c, 3, 59, 80
5, 192348, Note_on_c, 3, 59, 0
5, 192360, Note_on_c, 3, 64, 79
5, 192408, Note_on_c, 3, 64, 0
5, 192420, Note_on_c, 3, 62, 79
5, 192468, Note_on_c, 3, 62, 0
5, 192480, Note_on_c, 3, 64, 78
5, 192528, Note_on_c, 3, 64, 0
5, 192540, Note_on_c, 3, 59, 77
5, 192588, Note_on_c, 3, 59, 0
5, 192600, Note_on_c, 3, 68, 77
5, 192600, Note_on_c, 3, 64, 77
5, 192648, Note_on_c, 3, 64, 0
5, 192648, Note_on_c, 3, 68, 0
5, 192660, Note_on_c, 3, 62, 76
5, 192660, Note_on_c, 3, 66, 76
5, 192708, Note_on_c, 3, 66, 0
5, 192708, Note_on_c, 3, 62, 0
5, 192720, Note_on_c, 3, 68, 76
5, 192720, Note_on_c, 3, 64, 76
5, 192768, Note_on_c, 3, 64, 0
5, 192768, Note_on_c, 3, 68, 0
5, 192780, Note_on_c, 3, 59, 75
5, 192828, Note_on_c, 3, 59, 0
5, 192840, Note_on_c, 3, 68, 75
5, 192840, Note_on_c, 3, 64, 75
5, 192888, Note_on_c, 3, 64, 0
5, 192888, Note_on_c, 3, 68, 0
5, 192900, Note_on_c, 3, 71, 74
5, 192948, Note_on_c, 3, 71, 0
5, 192960, Note_on_c, 3, 72, 73
5, 193056, Note_on_c, 3, 72, 0
5, 195240, Note_on_c, 3, 60, 44
5, 195240, Note_on_c, 3, 64, 44
5, 195240, Note_on_c, 3, 69, 44
5, 195288, Note_on_c, 3, 69, 0
5, 195288, Note_on_c, 3, 64, 0
5, 195288, Note_on_c, 3, 60, 0
5, 195300, Note_on_c, 3, 65, 44
5, 195300, Note_on_c, 3, 62, 44
5, 195300, Note_on_c, 3, 71, 44
5, 195348, Note_on_c, 3, 71, 0
5, 195348, Note_on_c, 3, 62, 0
5, 195348, Note_on_c, 3, 65, 0
5, 195360, Note_on_c, 3, 69, 44
5, 195360, Note_on_c, 3, 60, 44
5, 195360, Note_on_c, 3, 64, 44
5, 195456, Note_on_c, 3, 64, 0
5, 195456, Note_on_c, 3, 60, 0
5, 195456, Note_on_c, 3, 69, 0
5, 195720, Note_on_c, 3, 64, 44
5, 195720, Note_on_c, 3, 69, 44
5, 195720, Note_on_c, 3, 72, 44
5, 195768, Note_on_c, 3, 72, 0
5, 195768, Note_on_c, 3, 69, 0
5, 195768, Note_on_c, 3, 64, 0
5, 195780, Note_on_c, 3, 74, 44
5, 195780, Note_on_c, 3, 65, 44
5, 195780, Note_on_c, 3, 71, 44
5, 195828, Note_on_c, 3, 71, 0
5, 195828, Note_on_c, 3, 65, 0
5, 195828, Note_on_c, 3, 74, 0
5, 195840, Note_on_c, 3, 69, 44
5, 195840, Note_on_c, 3, 64, 44
5, 195840, Note_on_c, 3, 72, 44
5, 195936, Note_on_c, 3, 72, 0
5, 195936, Note_on_c, 3, 64, 0
5, 195936, Note_on_c, 3, 69, 0
5, 198120, Note_on_c, 3, 60, 41
5, 198120, Note_on_c, 3, 64, 41
5, 198168, Note_on_c, 3, 64, 0
5, 198168, Note_on_c, 3, 60, 0
5, 198180, Note_on_c, 3, 62, 41
5, 198180, Note_on_c, 3, 65, 41
5, 198228, Note_on_c, 3, 65, 0
5, 198228, Note_on_c, 3, 62, 0
5, 198240, Note_on_c, 3, 60, 41
5, 198240, Note_on_c, 3, 64, 41
5, 198336, Note_on_c, 3, 64, 0
5, 198336, Note_on_c, 3, 60, 0
5, 198600, Note_on_c, 3, 60, 41
5, 198600, Note_on_c, 3, 64, 41
5, 198600, Note_on_c, 3, 69, 41
5, 198648, Note_on_c, 3, 69, 0
5, 198648, Note_on_c, 3, 64, 0
5, 198648, Note_on_c, 3, 60, 0
5, 198660, Note_on_c, 3, 65, 41
5, 198660, Note_on_c, 3, 71, 41
5, 198660, Note_on_c, 3, 62, 41
5, 198708, Note_on_c, 3, 62, 0
5, 198708, Note_on_c, 3, 71, 0
5, 198708, Note_on_c, 3, 65, 0
5, 198720, Note_on_c, 3, 69, 41
5, 198720, Note_on_c, 3, 64, 41
5, 198720, Note_on_c, 3, 60, 41
5, 198816, Note_on_c, 3, 60, 0
5, 198816, Note_on_c, 3, 64, 0
5, 198816, Note_on_c, 3, 69, 0
5, 198960, Note_on_c, 3, 76, 41
5, 198960, Note_on_c, 3, 67, 41
5, 199056, Note_on_c, 3, 67, 0
5, 199056, Note_on_c, 3, 76, 0
5, 199440, Note_on_c, 3, 69, 41
5, 199440, Note_on_c, 3, 74, 41
5, 199440, Note_on_c, 3, 65, 41
5, 199536, Note_on_c, 3, 65, 0
5, 199536, Note_on_c, 3, 74, 0
5, 199536, Note_on_c, 3, 69, 0
5, 199680, Note_on_c, 3, 72, 40
5, 199680, Note_on_c, 3, 69, 40
5, 199680, Note_on_c, 3, 66, 40
5, 199776, Note_on_c, 3, 66, 0
5, 199776, Note_on_c, 3, 69, 0
5, 199776, Note_on_c, 3, 72, 0
5, 200160, Note_on_c, 3, 71, 39
5, 200160, Note_on_c, 3, 67, 39
5, 200160, Note_on_c, 3, 62, 39
5, 200256, Note_on_c, 3, 62, 0
5, 200256, Note_on_c, 3, 67, 0
5, 200256, Note_on_c, 3, 71, 0
5, 200400, Note_on_c, 3, 74, 39
5, 200400, Note_on_c, 3, 65, 39
5, 200496, Note_on_c, 3, 65, 0
5, 200496, Note_on_c, 3, 74, 0
5, 200880, Note_on_c, 3, 67, 39
5, 200880, Note_on_c, 3, 72, 39
5, 200880, Note_on_c, 3, 64, 39
5, 200976, Note_on_c, 3, 64, 0
5, 200976, Note_on_c, 3, 72, 0
5, 200976, Note_on_c, 3, 67, 0
5, 201120, Note_on_c, 3, 67, 39
5, 201120, Note_on_c, 3, 70, 39
5, 201120, Note_on_c, 3, 64, 39
5, 201216, Note_on_c, 3, 64, 0
5, 201216, Note_on_c, 3, 70, 0
5, 201216, Note_on_c, 3, 67, 0
5, 201600, Note_on_c, 3, 60, 41
5, 201600, Note_on_c, 3, 69, 41
5, 201600, Note_on_c, 3, 65, 41
5, 201696, Note_on_c, 3, 65, 0
5, 201696, Note_on_c, 3, 69, 0
5, 201696, Note_on_c, 3, 60, 0
5, 203400, Note_on_c, 3, 69, 40
5, 203400, Note_on_c, 3, 77, 40
5, 203400, Note_on_c, 3, 74, 40
5, 203448, Note_on_c, 3, 74, 0
5, 203448, Note_on_c, 3, 77, 0
5, 203448, Note_on_c, 3, 69, 0
5, 203460, Note_on_c, 3, 73, 40
5, 203460, Note_on_c, 3, 76, 40
5, 203460, Note_on_c, 3, 67, 40
5, 203508, Note_on_c, 3, 67, 0
5, 203508, Note_on_c, 3, 76, 0
5, 203508, Note_on_c, 3, 73, 0
5, 203520, Note_on_c, 3, 69, 40
5, 203520, Note_on_c, 3, 74, 40
5, 203520, Note_on_c, 3, 77, 40
5, 203616, Note_on_c, 3, 77, 0
5, 203616, Note_on_c, 3, 74, 0
5, 203616, Note_on_c, 3, 69, 0
5, 204840, Note_on_c, 3, 62, 42
5, 204840, Note_on_c, 3, 71, 42
5, 204840, Note_on_c, 3, 68, 42
5, 204888, Note_on_c, 3, 68, 0
5, 204888, Note_on_c, 3, 71, 0
5, 204888, Note_on_c, 3, 62, 0
5, 204900, Note_on_c, 3, 66, 42
5, 204900, Note_on_c, 3, 69, 42
5, 204900, Note_on_c, 3, 60, 42
5, 204948, Note_on_c, 3, 60, 0
5, 204948, Note_on_c, 3, 69, 0
5, 204948, Note_on_c, 3, 66, 0
5, 204960, Note_on_c, 3, 59, 42
5, 204960, Note_on_c, 3, 64, 42
5, 204960, Note_on_c, 3, 71, 42
5, 205056, Note_on_c, 3, 71, 0
5, 205056, Note_on_c, 3, 64, 0
5, 205056, Note_on_c, 3, 59, 0
5, 205200, Note_on_c, 3, 60, 42
5, 205200, Note_on_c, 3, 69, 42
5, 205200, Note_on_c, 3, 64, 42
5, 205296, Note_on_c, 3, 64, 0
5, 205296, Note_on_c, 3, 69, 0
5, 205296, Note_on_c, 3, 60, 0
5, 205920, Note_on_c, 3, 68, 47
5, 205920, Note_on_c, 3, 64, 47
5, 205920, Note_on_c, 3, 71, 47
5, 206016, Note_on_c, 3, 71, 0
5, 206016, Note_on_c, 3, 64, 0
5, 206016, Note_on_c, 3, 68, 0
5, 206640, Note_on_c, 3, 69, 90
5, 206640, Note_on_c, 3, 72, 90
5, 206640, Note_on_c, 3, 64, 90
5, 206688, Note_on_c, 3, 64, 0
5, 206688, Note_on_c, 3, 72, 0
5, 206688, Note_on_c, 3, 69, 0
5, 206700, Note_on_c, 3, 64, 90
5, 206748, Note_on_c, 3, 64, 0
5, 206760, Note_on_c, 3, 62, 90
5, 206808, Note_on_c, 3, 62, 0
5, 206820, Note_on_c, 3, 64, 90
5, 206868, Note_on_c, 3, 64, 0
5, 206880, Note_on_c, 3, 65, 90
5, 206928, Note_on_c, 3, 65, 0
5, 206940, Note_on_c, 3, 64, 90
5, 206988, Note_on_c, 3, 64, 0
5, 207000, Note_on_c, 3, 62, 90
5, 207048, Note_on_c, 3, 62, 0
5, 207060, Note_on_c, 3, 64, 90
5, 207108, Note_on_c, 3, 64, 0
5, 207120, Note_on_c, 3, 65, 90
5, 207216, Note_on_c, 3, 65, 0
5, 207240, Note_on_c, 3, 62, 90
5, 207336, Note_on_c, 3, 62, 0
5, 207360, Note_on_c, 3, 69, 90
5, 207408, Note_on_c, 3, 69, 0
5, 207420, Note_on_c, 3, 64, 90
5, 207468, Note_on_c, 3, 64, 0
5, 207480, Note_on_c, 3, 62, 90
5, 207528, Note_on_c, 3, 62, 0
5, 207540, Note_on_c, 3, 64, 90
5, 207588, Note_on_c, 3, 64, 0
5, 207600, Note_on_c, 3, 60, 90
5, 207648, Note_on_c, 3, 60, 0
5, 207660, Note_on_c, 3, 64, 90
5, 207708, Note_on_c, 3, 64, 0
5, 207720, Note_on_c, 3, 62, 90
5, 207768, Note_on_c, 3, 62, 0
5, 207780, Note_on_c, 3, 64, 90
5, 207828, Note_on_c, 3, 64, 0
5, 207840, Note_on_c, 3, 76, 90
5, 207936, Note_on_c, 3, 76, 0
5, 207960, Note_on_c, 3, 72, 90
5, 208056, Note_on_c, 3, 72, 0
5, 208080, Note_on_c, 3, 74, 90
5, 208128, Note_on_c, 3, 74, 0
5, 208140, Note_on_c, 3, 60, 90
5, 208188, Note_on_c, 3, 60, 0
5, 208200, Note_on_c, 3, 59, 90
5, 208248, Note_on_c, 3, 59, 0
5, 208260, Note_on_c, 3, 60, 90
5, 208308, Note_on_c, 3, 60, 0
5, 208320, Note_on_c, 3, 62, 90
5, 208368, Note_on_c, 3, 62, 0
5, 208380, Note_on_c, 3, 60, 90
5, 208428, Note_on_c, 3, 60, 0
5, 208440, Note_on_c, 3, 59, 90
5, 208488, Note_on_c, 3, 59, 0
5, 208500, Note_on_c, 3, 60, 90
5, 208548, Note_on_c, 3, 60, 0
5, 208560, Note_on_c, 3, 59, 90
5, 208560, Note_on_c, 3, 68, 90
5, 208656, Note_on_c, 3, 68, 0
5, 208656, Note_on_c, 3, 59, 0
5, 208680, Note_on_c, 3, 64, 90
5, 208680, Note_on_c, 3, 71, 90
5, 208776, Note_on_c, 3, 71, 0
5, 208776, Note_on_c, 3, 64, 0
5, 208800, Note_on_c, 3, 64, 90
5, 208800, Note_on_c, 3, 72, 90
5, 208800, Note_on_c, 3, 69, 90
5, 208896, Note_on_c, 3, 69, 0
5, 208896, Note_on_c, 3, 72, 0
5, 208896, Note_on_c, 3, 64, 0
5, 208920, Note_on_c, 3, 72, 90
5, 208920, Note_on_c, 3, 76, 90
5, 208920, Note_on_c, 3, 69, 90
5, 209016, Note_on_c, 3, 69, 0
5, 209016, Note_on_c, 3, 76, 0
5, 209016, Note_on_c, 3, 72, 0
5, 209040, Note_on_c, 3, 81, 90
5, 209040, Note_on_c, 3, 76, 90
5, 209040, Note_on_c, 3, 72, 90
5, 209136, Note_on_c, 3, 72, 0
5, 209136, Note_on_c, 3, 76, 0
5, 209136, Note_on_c, 3, 81, 0
5, 209160, Note_on_c, 3, 84, 90
5, 209160, Note_on_c, 3, 81, 90
5, 209160, Note_on_c, 3, 76, 90
5, 209256, Note_on_c, 3, 76, 0
5, 209256, Note_on_c, 3, 81, 0
5, 209256, Note_on_c, 3, 84, 0
5, 209280, Note_on_c, 3, 75, 90
5, 209280, Note_on_c, 3, 66, 90
5, 209280, Note_on_c, 3, 72, 90
5, 209376, Note_on_c, 3, 72, 0
5, 209376, Note_on_c, 3, 66, 0
5, 209376, Note_on_c, 3, 75, 0
5, 209400, Note_on_c, 3, 71, 90
5, 209400, Note_on_c, 3, 66, 90
5, 209400, Note_on_c, 3, 75, 90
5, 209496, Note_on_c, 3, 75, 0
5, 209496, Note_on_c, 3, 66, 0
5, 209496, Note_on_c, 3, 71, 0
5, 209520, Note_on_c, 3, 64, 90
5, 209520, Note_on_c, 3, 76, 90
5, 209520, Note_on_c, 3, 71, 90
5, 209616, Note_on_c, 3, 71, 0
5, 209616, Note_on_c, 3, 76, 0
5, 209616, Note_on_c, 3, 64, 0
5, 209640, Note_on_c, 3, 71, 90
5, 209640, Note_on_c, 3, 64, 90
5, 209736, Note_on_c, 3, 64, 0
5, 209736, Note_on_c, 3, 71, 0
5, 209760, Note_on_c, 3, 72, 90
5, 209760, Note_on_c, 3, 64, 90
5, 209856, Note_on_c, 3, 64, 0
5, 209856, Note_on_c, 3, 72, 0
5, 209880, Note_on_c, 3, 64, 90
5, 209880, Note_on_c, 3, 69, 90
5, 209976, Note_on_c, 3, 69, 0
5, 209976, Note_on_c, 3, 64, 0
5, 210000, Note_on_c, 3, 64, 90
5, 210000, Note_on_c, 3, 60, 90
5, 210096, Note_on_c, 3, 60, 0
5, 210096, Note_on_c, 3, 64, 0
5, 210120, Note_on_c, 3, 68, 90
5, 210120, Note_on_c, 3, 64, 90
5, 210120, Note_on_c, 3, 59, 90
5, 210216, Note_on_c, 3, 59, 0
5, 210216, Note_on_c, 3, 64, 0
5, 210216, Note_on_c, 3, 68, 0
5, 210240, Note_on_c, 3, 69, 90
5, 210240, Note_on_c, 3, 60, 90
5, 210432, Note_on_c, 3, 60, 0
5, 210432, Note_on_c, 3, 69, 0
5, 210600, Note_on_c, 3, 76, 46
5, 210648, Note_on_c, 3, 76, 0
5, 210660, Note_on_c, 3, 74, 45
5, 210708, Note_on_c, 3, 74, 0
5, 210720, Note_on_c, 3, 76, 45
5, 210816, Note_on_c, 3, 76, 0
5, 210840, Note_on_c, 3, 72, 45
5, 210888, Note_on_c, 3, 72, 0
5, 210900, Note_on_c, 3, 71, 45
5, 210948, Note_on_c, 3, 71, 0
5, 210960, Note_on_c, 3, 73, 45
5, 211056, Note_on_c, 3, 73, 0
5, 211800, Note_on_c, 3, 77, 45
5, 211848, Note_on_c, 3, 77, 0
5, 211860, Note_on_c, 3, 76, 45
5, 211908, Note_on_c, 3, 76, 0
5, 211920, Note_on_c, 3, 74, 45
5, 212016, Note_on_c, 3, 74, 0
5, 212040, Note_on_c, 3, 70, 45
5, 212088, Note_on_c, 3, 70, 0
5, 212100, Note_on_c, 3, 69, 45
5, 212148, Note_on_c, 3, 69, 0
5, 212160, Note_on_c, 3, 67, 45
5, 212256, Note_on_c, 3, 67, 0
5, 212280, Note_on_c, 3, 63, 45
5, 212328, Note_on_c, 3, 63, 0
5, 212340, Note_on_c, 3, 62, 45
5, 212388, Note_on_c, 3, 62, 0
5, 212400, Note_on_c, 3, 60, 45
5, 212496, Note_on_c, 3, 60, 0
5, 213240, Note_on_c, 3, 79, 45
5, 213288, Note_on_c, 3, 79, 0
5, 213300, Note_on_c, 3, 78, 45
5, 213348, Note_on_c, 3, 78, 0
5, 213360, Note_on_c, 3, 79, 45
5, 213456, Note_on_c, 3, 79, 0
5, 213480, Note_on_c, 3, 74, 45
5, 213528, Note_on_c, 3, 74, 0
5, 213540, Note_on_c, 3, 72, 45
5, 213588, Note_on_c, 3, 72, 0
5, 213600, Note_on_c, 3, 74, 45
5, 213696, Note_on_c, 3, 74, 0
5, 213720, Note_on_c, 3, 70, 46
5, 213768, Note_on_c, 3, 70, 0
5, 213780, Note_on_c, 3, 69, 46
5, 213828, Note_on_c, 3, 69, 0
5, 213840, Note_on_c, 3, 71, 46
5, 213936, Note_on_c, 3, 71, 0
5, 214680, Note_on_c, 3, 76, 46
5, 214728, Note_on_c, 3, 76, 0
5, 214740, Note_on_c, 3, 74, 46
5, 214788, Note_on_c, 3, 74, 0
5, 214800, Note_on_c, 3, 72, 46
5, 214896, Note_on_c, 3, 72, 0
5, 214920, Note_on_c, 3, 69, 46
5, 214968, Note_on_c, 3, 69, 0
5, 214980, Note_on_c, 3, 67, 46
5, 215028, Note_on_c, 3, 67, 0
5, 215040, Note_on_c, 3, 65, 46
5, 215136, Note_on_c, 3, 65, 0
5, 215160, Note_on_c, 3, 62, 46
5, 215208, Note_on_c, 3, 62, 0
5, 215220, Note_on_c, 3, 60, 46
5, 215268, Note_on_c, 3, 60, 0
5, 215280, Note_on_c, 3, 58, 46
5, 215376, Note_on_c, 3, 58, 0
5, 215880, Note_on_c, 3, 77, 46
5, 215928, Note_on_c, 3, 77, 0
5, 215940, Note_on_c, 3, 76, 46
5, 215988, Note_on_c, 3, 76, 0
5, 216000, Note_on_c, 3, 77, 46
5, 216048, Note_on_c, 3, 77, 0
5, 216060, Note_on_c, 3, 72, 46
5, 216108, Note_on_c, 3, 72, 0
5, 216120, Note_on_c, 3, 74, 46
5, 216168, Note_on_c, 3, 74, 0
5, 216180, Note_on_c, 3, 70, 46
5, 216228, Note_on_c, 3, 70, 0
5, 216240, Note_on_c, 3, 72, 46
5, 216288, Note_on_c, 3, 72, 0
5, 216300, Note_on_c, 3, 69, 46
5, 216348, Note_on_c, 3, 69, 0
5, 216360, Note_on_c, 3, 70, 46
5, 216408, Note_on_c, 3, 70, 0
5, 216420, Note_on_c, 3, 67, 46
5, 216468, Note_on_c, 3, 67, 0
5, 216480, Note_on_c, 3, 69, 46
5, 216528, Note_on_c, 3, 69, 0
5, 216540, Note_on_c, 3, 74, 46
5, 216588, Note_on_c, 3, 74, 0
5, 216600, Note_on_c, 3, 76, 46
5, 216648, Note_on_c, 3, 76, 0
5, 216660, Note_on_c, 3, 77, 46
5, 216708, Note_on_c, 3, 77, 0
5, 216720, Note_on_c, 3, 79, 46
5, 216768, Note_on_c, 3, 79, 0
5, 216780, Note_on_c, 3, 76, 47
5, 216828, Note_on_c, 3, 76, 0
5, 216840, Note_on_c, 3, 77, 47
5, 216888, Note_on_c, 3, 77, 0
5, 216900, Note_on_c, 3, 74, 47
5, 216948, Note_on_c, 3, 74, 0
5, 216960, Note_on_c, 3, 76, 47
5, 217008, Note_on_c, 3, 76, 0
5, 217020, Note_on_c, 3, 73, 47
5, 217068, Note_on_c, 3, 73, 0
5, 217080, Note_on_c, 3, 74, 47
5, 217128, Note_on_c, 3, 74, 0
5, 217140, Note_on_c, 3, 71, 47
5, 217188, Note_on_c, 3, 71, 0
5, 217200, Note_on_c, 3, 73, 47
5, 217248, Note_on_c, 3, 73, 0
5, 217260, Note_on_c, 3, 69, 47
5, 217308, Note_on_c, 3, 69, 0
5, 217320, Note_on_c, 3, 74, 47
5, 217368, Note_on_c, 3, 74, 0
5, 217380, Note_on_c, 3, 73, 47
5, 217428, Note_on_c, 3, 73, 0
5, 217440, Note_on_c, 3, 74, 47
5, 217488, Note_on_c, 3, 74, 0
5, 217500, Note_on_c, 3, 69, 47
5, 217548, Note_on_c, 3, 69, 0
5, 217560, Note_on_c, 3, 70, 47
5, 217608, Note_on_c, 3, 70, 0
5, 217620, Note_on_c, 3, 67, 47
5, 217668, Note_on_c, 3, 67, 0
5, 217680, Note_on_c, 3, 69, 47
5, 217728, Note_on_c, 3, 69, 0
5, 217740, Note_on_c, 3, 65, 47
5, 217788, Note_on_c, 3, 65, 0
5, 217800, Note_on_c, 3, 67, 47
5, 217848, Note_on_c, 3, 67, 0
5, 217860, Note_on_c, 3, 64, 47
5, 217908, Note_on_c, 3, 64, 0
5, 217920, Note_on_c, 3, 65, 47
5, 217968, Note_on_c, 3, 65, 0
5, 217980, Note_on_c, 3, 70, 47
5, 218028, Note_on_c, 3, 70, 0
5, 218040, Note_on_c, 3, 72, 47
5, 218088, Note_on_c, 3, 72, 0
5, 218100, Note_on_c, 3, 74, 47
5, 218148, Note_on_c, 3, 74, 0
5, 218160, Note_on_c, 3, 75, 47
5, 218208, Note_on_c, 3, 75, 0
5, 218220, Note_on_c, 3, 72, 47
5, 218268, Note_on_c, 3, 72, 0
5, 218280, Note_on_c, 3, 74, 47
5, 218328, Note_on_c, 3, 74, 0
5, 218340, Note_on_c, 3, 70, 47
5, 218388, Note_on_c, 3, 70, 0
5, 218400, Note_on_c, 3, 72, 47
5, 218448, Note_on_c, 3, 72, 0
5, 218460, Note_on_c, 3, 69, 47
5, 218508, Note_on_c, 3, 69, 0
5, 218520, Note_on_c, 3, 70, 47
5, 218568, Note_on_c, 3, 70, 0
5, 218580, Note_on_c, 3, 67, 47
5, 218628, Note_on_c, 3, 67, 0
5, 218640, Note_on_c, 3, 69, 47
5, 218688, Note_on_c, 3, 69, 0
5, 218700, Note_on_c, 3, 65, 47
5, 218748, Note_on_c, 3, 65, 0
5, 218760, Note_on_c, 3, 70, 47
5, 218808, Note_on_c, 3, 70, 0
5, 218820, Note_on_c, 3, 69, 47
5, 218868, Note_on_c, 3, 69, 0
5, 218880, Note_on_c, 3, 70, 47
5, 218928, Note_on_c, 3, 70, 0
5, 218940, Note_on_c, 3, 65, 47
5, 218988, Note_on_c, 3, 65, 0
5, 219000, Note_on_c, 3, 67, 47
5, 219048, Note_on_c, 3, 67, 0
5, 219060, Note_on_c, 3, 63, 47
5, 219108, Note_on_c, 3, 63, 0
5, 219120, Note_on_c, 3, 65, 47
5, 219168, Note_on_c, 3, 65, 0
5, 219180, Note_on_c, 3, 62, 47
5, 219228, Note_on_c, 3, 62, 0
5, 219240, Note_on_c, 3, 63, 47
5, 219288, Note_on_c, 3, 63, 0
5, 219300, Note_on_c, 3, 60, 47
5, 219348, Note_on_c, 3, 60, 0
5, 219360, Note_on_c, 3, 62, 47
5, 219408, Note_on_c, 3, 62, 0
5, 219420, Note_on_c, 3, 67, 47
5, 219468, Note_on_c, 3, 67, 0
5, 219480, Note_on_c, 3, 69, 47
5, 219528, Note_on_c, 3, 69, 0
5, 219540, Note_on_c, 3, 70, 47
5, 219588, Note_on_c, 3, 70, 0
5, 219600, Note_on_c, 3, 72, 47
5, 219648, Note_on_c, 3, 72, 0
5, 219660, Note_on_c, 3, 69, 47
5, 219708, Note_on_c, 3, 69, 0
5, 219720, Note_on_c, 3, 70, 47
5, 219768, Note_on_c, 3, 70, 0
5, 219780, Note_on_c, 3, 67, 47
5, 219828, Note_on_c, 3, 67, 0
5, 219840, Note_on_c, 3, 69, 51
5, 219888, Note_on_c, 3, 69, 0
5, 219900, Note_on_c, 3, 66, 53
5, 219948, Note_on_c, 3, 66, 0
5, 219960, Note_on_c, 3, 67, 56
5, 220008, Note_on_c, 3, 67, 0
5, 220020, Note_on_c, 3, 64, 58
5, 220068, Note_on_c, 3, 64, 0
5, 220080, Note_on_c, 3, 66, 60
5, 220128, Note_on_c, 3, 66, 0
5, 220140, Note_on_c, 3, 62, 62
5, 220188, Note_on_c, 3, 62, 0
5, 220200, Note_on_c, 3, 74, 65
5, 220200, Note_on_c, 3, 79, 65
5, 220248, Note_on_c, 3, 79, 0
5, 220248, Note_on_c, 3, 74, 0
5, 220260, Note_on_c, 3, 72, 67
5, 220260, Note_on_c, 3, 78, 67
5, 220308, Note_on_c, 3, 78, 0
5, 220308, Note_on_c, 3, 72, 0
5, 220320, Note_on_c, 3, 79, 71
5, 220320, Note_on_c, 3, 70, 71
5, 220416, Note_on_c, 3, 70, 0
5, 220416, Note_on_c, 3, 79, 0
5, 220680, Note_on_c, 3, 79, 71
5, 220728, Note_on_c, 3, 79, 0
5, 220740, Note_on_c, 3, 78, 71
5, 220788, Note_on_c, 3, 78, 0
5, 220800, Note_on_c, 3, 79, 71
5, 220896, Note_on_c, 3, 79, 0
5, 221160, Note_on_c, 3, 75, 71
5, 221160, Note_on_c, 3, 72, 71
5, 221208, Note_on_c, 3, 72, 0
5, 221208, Note_on_c, 3, 75, 0
5, 221220, Note_on_c, 3, 69, 71
5, 221220, Note_on_c, 3, 74, 71
5, 221268, Note_on_c, 3, 74, 0
5, 221268, Note_on_c, 3, 69, 0
5, 221280, Note_on_c, 3, 75, 71
5, 221280, Note_on_c, 3, 70, 71
5, 221376, Note_on_c, 3, 70, 0
5, 221376, Note_on_c, 3, 75, 0
5, 221640, Note_on_c, 3, 69, 71
5, 221688, Note_on_c, 3, 69, 0
5, 221700, Note_on_c, 3, 66, 71
5, 221748, Note_on_c, 3, 66, 0
5, 221760, Note_on_c, 3, 62, 71
5, 221856, Note_on_c, 3, 62, 0
5, 222120, Note_on_c, 3, 74, 71
5, 222168, Note_on_c, 3, 74, 0
5, 222180, Note_on_c, 3, 75, 71
5, 222228, Note_on_c, 3, 75, 0
5, 222240, Note_on_c, 3, 72, 71
5, 222336, Note_on_c, 3, 72, 0
5, 222600, Note_on_c, 3, 78, 71
5, 222600, Note_on_c, 3, 86, 71
5, 222648, Note_on_c, 3, 86, 0
5, 222648, Note_on_c, 3, 78, 0
5, 222660, Note_on_c, 3, 85, 71
5, 222660, Note_on_c, 3, 76, 71
5, 222708, Note_on_c, 3, 76, 0
5, 222708, Note_on_c, 3, 85, 0
5, 222720, Note_on_c, 3, 86, 71
5, 222720, Note_on_c, 3, 78, 71
5, 222768, Note_on_c, 3, 78, 0
5, 222768, Note_on_c, 3, 86, 0
5, 222780, Note_on_c, 3, 81, 71
5, 222828, Note_on_c, 3, 81, 0
5, 222840, Note_on_c, 3, 78, 71
5, 222888, Note_on_c, 3, 78, 0
5, 222900, Note_on_c, 3, 81, 71
5, 222948, Note_on_c, 3, 81, 0
5, 222960, Note_on_c, 3, 69, 71
5, 222960, Note_on_c, 3, 74, 71
5, 222960, Note_on_c, 3, 66, 71
5, 223056, Note_on_c, 3, 66, 0
5, 223056, Note_on_c, 3, 74, 0
5, 223056, Note_on_c, 3, 69, 0
5, 224280, Note_on_c, 3, 72, 71
5, 224280, Note_on_c, 3, 67, 71
5, 224280, Note_on_c, 3, 75, 71
5, 224328, Note_on_c, 3, 75, 0
5, 224328, Note_on_c, 3, 67, 0
5, 224328, Note_on_c, 3, 72, 0
5, 224340, Note_on_c, 3, 65, 71
5, 224340, Note_on_c, 3, 74, 71
5, 224340, Note_on_c, 3, 71, 71
5, 224388, Note_on_c, 3, 71, 0
5, 224388, Note_on_c, 3, 74, 0
5, 224388, Note_on_c, 3, 65, 0
5, 224400, Note_on_c, 3, 67, 71
5, 224400, Note_on_c, 3, 72, 71
5, 224400, Note_on_c, 3, 75, 71
5, 224496, Note_on_c, 3, 75, 0
5, 224496, Note_on_c, 3, 72, 0
5, 224496, Note_on_c, 3, 67, 0
5, 225720, Note_on_c, 3, 69, 78
5, 225720, Note_on_c, 3, 74, 78
5, 225720, Note_on_c, 3, 78, 78
5, 225768, Note_on_c, 3, 78, 0
5, 225768, Note_on_c, 3, 74, 0
5, 225768, Note_on_c, 3, 69, 0
5, 225780, Note_on_c, 3, 67, 78
5, 225780, Note_on_c, 3, 76, 78
5, 225780, Note_on_c, 3, 73, 78
5, 225828, Note_on_c, 3, 73, 0
5, 225828, Note_on_c, 3, 76, 0
5, 225828, Note_on_c, 3, 67, 0
5, 225840, Note_on_c, 3, 74, 79
5, 225840, Note_on_c, 3, 69, 79
5, 225840, Note_on_c, 3, 78, 79
5, 225936, Note_on_c, 3, 78, 0
5, 225936, Note_on_c, 3, 69, 0
5, 225936, Note_on_c, 3, 74, 0
5, 225960, Note_on_c, 3, 78, 79
5, 225960, Note_on_c, 3, 81, 79
5, 226056, Note_on_c, 3, 81, 0
5, 226056, Note_on_c, 3, 78, 0
5, 226080, Note_on_c, 3, 74, 80
5, 226080, Note_on_c, 3, 79, 80
5, 226176, Note_on_c, 3, 79, 0
5, 226176, Note_on_c, 3, 74, 0
5, 226440, Note_on_c, 3, 86, 82
5, 226488, Note_on_c, 3, 86, 0
5, 226500, Note_on_c, 3, 85, 82
5, 226548, Note_on_c, 3, 85, 0
5, 226560, Note_on_c, 3, 86, 82
5, 226656, Note_on_c, 3, 86, 0
5, 226920, Note_on_c, 3, 74, 84
5, 226968, Note_on_c, 3, 74, 0
5, 226980, Note_on_c, 3, 73, 84
5, 226980, Note_on_c, 3, 76, 84
5, 227028, Note_on_c, 3, 76, 0
5, 227028, Note_on_c, 3, 73, 0
5, 227040, Note_on_c, 3, 74, 85
5, 227040, Note_on_c, 3, 78, 85
5, 227136, Note_on_c, 3, 78, 0
5, 227136, Note_on_c, 3, 74, 0
5, 227400, Note_on_c, 3, 72, 86
5, 227400, Note_on_c, 3, 78, 86
5, 227400, Note_on_c, 3, 74, 86
5, 227496, Note_on_c, 3, 74, 0
5, 227496, Note_on_c, 3, 78, 0
5, 227496, Note_on_c, 3, 72, 0
5, 227520, Note_on_c, 3, 70, 87
5, 227520, Note_on_c, 3, 74, 87
5, 227520, Note_on_c, 3, 79, 87
5, 227616, Note_on_c, 3, 79, 0
5, 227616, Note_on_c, 3, 74, 0
5, 227616, Note_on_c, 3, 70, 0
5, 229800, Note_on_c, 3, 62, 46
5, 229800, Note_on_c, 3, 58, 46
5, 229800, Note_on_c, 3, 67, 46
5, 229848, Note_on_c, 3, 67, 0
5, 229848, Note_on_c, 3, 58, 0
5, 229848, Note_on_c, 3, 62, 0
5, 229860, Note_on_c, 3, 63, 46
5, 229860, Note_on_c, 3, 60, 46
5, 229860, Note_on_c, 3, 69, 46
5, 229908, Note_on_c, 3, 69, 0
5, 229908, Note_on_c, 3, 60, 0
5, 229908, Note_on_c, 3, 63, 0
5, 229920, Note_on_c, 3, 58, 46
5, 229920, Note_on_c, 3, 62, 46
5, 229920, Note_on_c, 3, 67, 46
5, 230016, Note_on_c, 3, 67, 0
5, 230016, Note_on_c, 3, 62, 0
5, 230016, Note_on_c, 3, 58, 0
5, 230280, Note_on_c, 3, 67, 46
5, 230280, Note_on_c, 3, 62, 46
5, 230280, Note_on_c, 3, 70, 46
5, 230328, Note_on_c, 3, 70, 0
5, 230328, Note_on_c, 3, 62, 0
5, 230328, Note_on_c, 3, 67, 0
5, 230340, Note_on_c, 3, 72, 46
5, 230340, Note_on_c, 3, 63, 46
5, 230340, Note_on_c, 3, 69, 46
5, 230388, Note_on_c, 3, 69, 0
5, 230388, Note_on_c, 3, 63, 0
5, 230388, Note_on_c, 3, 72, 0
5, 230400, Note_on_c, 3, 67, 46
5, 230400, Note_on_c, 3, 62, 46
5, 230400, Note_on_c, 3, 70, 46
5, 230496, Note_on_c, 3, 70, 0
5, 230496, Note_on_c, 3, 62, 0
5, 230496, Note_on_c, 3, 67, 0
5, 232680, Note_on_c, 3, 74, 46
5, 232680, Note_on_c, 3, 70, 46
5, 232680, Note_on_c, 3, 67, 46
5, 232728, Note_on_c, 3, 67, 0
5, 232728, Note_on_c, 3, 70, 0
5, 232728, Note_on_c, 3, 74, 0
5, 232740, Note_on_c, 3, 75, 46
5, 232740, Note_on_c, 3, 72, 46
5, 232788, Note_on_c, 3, 72, 0
5, 232788, Note_on_c, 3, 75, 0
5, 232800, Note_on_c, 3, 74, 46
5, 232800, Note_on_c, 3, 67, 46
5, 232800, Note_on_c, 3, 70, 46
5, 232896, Note_on_c, 3, 70, 0
5, 232896, Note_on_c, 3, 67, 0
5, 232896, Note_on_c, 3, 74, 0
5, 233160, Note_on_c, 3, 70, 46
5, 233160, Note_on_c, 3, 79, 46
5, 233160, Note_on_c, 3, 74, 46
5, 233208, Note_on_c, 3, 74, 0
5, 233208, Note_on_c, 3, 79, 0
5, 233208, Note_on_c, 3, 70, 0
5, 233220, Note_on_c, 3, 72, 46
5, 233220, Note_on_c, 3, 75, 46
5, 233220, Note_on_c, 3, 81, 46
5, 233268, Note_on_c, 3, 81, 0
5, 233268, Note_on_c, 3, 75, 0
5, 233268, Note_on_c, 3, 72, 0
5, 233280, Note_on_c, 3, 70, 46
5, 233280, Note_on_c, 3, 74, 46
5, 233280, Note_on_c, 3, 79, 46
5, 233376, Note_on_c, 3, 79, 0
5, 233376, Note_on_c, 3, 74, 0
5, 233376, Note_on_c, 3, 70, 0
5, 233520, Note_on_c, 3, 86, 46
5, 233520, Note_on_c, 3, 77, 46
5, 233616, Note_on_c, 3, 77, 0
5, 233616, Note_on_c, 3, 86, 0
5, 234000, Note_on_c, 3, 79, 46
5, 234000, Note_on_c, 3, 84, 46
5, 234000, Note_on_c, 3, 75, 46
5, 234096, Note_on_c, 3, 75, 0
5, 234096, Note_on_c, 3, 84, 0
5, 234096, Note_on_c, 3, 79, 0
5, 234240, Note_on_c, 3, 79, 46
5, 234240, Note_on_c, 3, 82, 46
5, 234240, Note_on_c, 3, 76, 46
5, 234336, Note_on_c, 3, 76, 0
5, 234336, Note_on_c, 3, 82, 0
5, 234336, Note_on_c, 3, 79, 0
5, 234720, Note_on_c, 3, 76, 46
5, 234720, Note_on_c, 3, 81, 46
5, 234720, Note_on_c, 3, 73, 46
5, 234816, Note_on_c, 3, 73, 0
5, 234816, Note_on_c, 3, 81, 0
5, 234816, Note_on_c, 3, 76, 0
5, 234960, Note_on_c, 3, 76, 46
5, 234960, Note_on_c, 3, 79, 46
5, 234960, Note_on_c, 3, 69, 46
5, 235056, Note_on_c, 3, 69, 0
5, 235056, Note_on_c, 3, 79, 0
5, 235056, Note_on_c, 3, 76, 0
5, 235440, Note_on_c, 3, 74, 48
5, 235440, Note_on_c, 3, 77, 48
5, 235440, Note_on_c, 3, 69, 48
5, 235536, Note_on_c, 3, 69, 0
5, 235536, Note_on_c, 3, 77, 0
5, 235536, Note_on_c, 3, 74, 0
5, 235680, Note_on_c, 3, 68, 49
5, 235680, Note_on_c, 3, 71, 49
5, 235680, Note_on_c, 3, 74, 49
5, 235776, Note_on_c, 3, 74, 0
5, 235776, Note_on_c, 3, 71, 0
5, 235776, Note_on_c, 3, 68, 0
5, 236160, Note_on_c, 3, 64, 51
5, 236160, Note_on_c, 3, 72, 51
5, 236160, Note_on_c, 3, 69, 51
5, 236256, Note_on_c, 3, 69, 0
5, 236256, Note_on_c, 3, 72, 0
5, 236256, Note_on_c, 3, 64, 0
5, 236400, Note_on_c, 3, 69, 52
5, 236400, Note_on_c, 3, 77, 52
5, 236400, Note_on_c, 3, 72, 52
5, 236496, Note_on_c, 3, 72, 0
5, 236496, Note_on_c, 3, 77, 0
5, 236496, Note_on_c, 3, 69, 0
5, 236880, Note_on_c, 3, 65, 54
5, 236880, Note_on_c, 3, 74, 54
5, 236880, Note_on_c, 3, 70, 54
5, 236976, Note_on_c, 3, 70, 0
5, 236976, Note_on_c, 3, 74, 0
5, 236976, Note_on_c, 3, 65, 0
5, 237120, Note_on_c, 3, 70, 55
5, 237120, Note_on_c, 3, 74, 55
5, 237120, Note_on_c, 3, 79, 55
5, 237216, Note_on_c, 3, 79, 0
5, 237216, Note_on_c, 3, 74, 0
5, 237216, Note_on_c, 3, 70, 0
5, 237600, Note_on_c, 3, 72, 55
5, 237600, Note_on_c, 3, 76, 55
5, 237600, Note_on_c, 3, 67, 55
5, 237696, Note_on_c, 3, 67, 0
5, 237696, Note_on_c, 3, 76, 0
5, 237696, Note_on_c, 3, 72, 0
5, 237840, Note_on_c, 3, 76, 53
5, 237840, Note_on_c, 3, 73, 53
5, 237840, Note_on_c, 3, 81, 53
5, 237936, Note_on_c, 3, 81, 0
5, 237936, Note_on_c, 3, 73, 0
5, 237936, Note_on_c, 3, 76, 0
5, 238320, Note_on_c, 3, 69, 49
5, 238320, Note_on_c, 3, 74, 49
5, 238320, Note_on_c, 3, 77, 49
5, 238416, Note_on_c, 3, 77, 0
5, 238416, Note_on_c, 3, 74, 0
5, 238416, Note_on_c, 3, 69, 0
5, 238440, Note_on_c, 3, 74, 48
5, 238488, Note_on_c, 3, 74, 0
5, 238500, Note_on_c, 3, 73, 48
5, 238548, Note_on_c, 3, 73, 0
5, 238560, Note_on_c, 3, 74, 47
5, 238656, Note_on_c, 3, 74, 0
5, 238680, Note_on_c, 3, 69, 46
5, 238728, Note_on_c, 3, 69, 0
5, 238740, Note_on_c, 3, 67, 46
5, 238788, Note_on_c, 3, 67, 0
5, 238800, Note_on_c, 3, 69, 45
5, 238896, Note_on_c, 3, 69, 0
5, 238920, Note_on_c, 3, 65, 44
5, 238968, Note_on_c, 3, 65, 0
5, 238980, Note_on_c, 3, 62, 44
5, 239028, Note_on_c, 3, 62, 0
5, 239040, Note_on_c, 3, 66, 43
5, 239136, Note_on_c, 3, 66, 0
5, 239880, Note_on_c, 3, 70, 41
5, 239928, Note_on_c, 3, 70, 0
5, 239940, Note_on_c, 3, 69, 41
5, 239988, Note_on_c, 3, 69, 0
5, 240000, Note_on_c, 3, 67, 41
5, 240096, Note_on_c, 3, 67, 0
5, 240120, Note_on_c, 3, 63, 40
5, 240168, Note_on_c, 3, 63, 0
5, 240180, Note_on_c, 3, 62, 40
5, 240228, Note_on_c, 3, 62, 0
5, 240240, Note_on_c, 3, 60, 40
5, 240336, Note_on_c, 3, 60, 0
5, 240360, Note_on_c, 3, 56, 39
5, 240408, Note_on_c, 3, 56, 0
5, 240420, Note_on_c, 3, 55, 39
5, 240468, Note_on_c, 3, 55, 0
5, 240480, Note_on_c, 3, 53, 39
5, 240576, Note_on_c, 3, 53, 0
5, 241320, Note_on_c, 3, 72, 41
5, 241368, Note_on_c, 3, 72, 0
5, 241380, Note_on_c, 3, 71, 41
5, 241428, Note_on_c, 3, 71, 0
5, 241440, Note_on_c, 3, 72, 41
5, 241536, Note_on_c, 3, 72, 0
5, 241560, Note_on_c, 3, 67, 40
5, 241608, Note_on_c, 3, 67, 0
5, 241620, Note_on_c, 3, 65, 40
5, 241668, Note_on_c, 3, 65, 0
5, 241680, Note_on_c, 3, 67, 40
5, 241776, Note_on_c, 3, 67, 0
5, 241800, Note_on_c, 3, 63, 40
5, 241848, Note_on_c, 3, 63, 0
5, 241860, Note_on_c, 3, 62, 39
5, 241908, Note_on_c, 3, 62, 0
5, 241920, Note_on_c, 3, 64, 39
5, 242016, Note_on_c, 3, 64, 0
5, 242760, Note_on_c, 3, 69, 40
5, 242808, Note_on_c, 3, 69, 0
5, 242820, Note_on_c, 3, 67, 40
5, 242868, Note_on_c, 3, 67, 0
5, 242880, Note_on_c, 3, 65, 40
5, 242976, Note_on_c, 3, 65, 0
5, 243000, Note_on_c, 3, 62, 40
5, 243048, Note_on_c, 3, 62, 0
5, 243060, Note_on_c, 3, 60, 40
5, 243108, Note_on_c, 3, 60, 0
5, 243120, Note_on_c, 3, 58, 40
5, 243216, Note_on_c, 3, 58, 0
5, 243240, Note_on_c, 3, 55, 40
5, 243288, Note_on_c, 3, 55, 0
5, 243300, Note_on_c, 3, 53, 40
5, 243348, Note_on_c, 3, 53, 0
5, 243360, Note_on_c, 3, 51, 40
5, 243456, Note_on_c, 3, 51, 0
5, 243960, Note_on_c, 3, 70, 40
5, 244008, Note_on_c, 3, 70, 0
5, 244020, Note_on_c, 3, 69, 38
5, 244068, Note_on_c, 3, 69, 0
5, 244080, Note_on_c, 3, 70, 38
5, 244128, Note_on_c, 3, 70, 0
5, 244140, Note_on_c, 3, 65, 39
5, 244188, Note_on_c, 3, 65, 0
5, 244200, Note_on_c, 3, 67, 39
5, 244248, Note_on_c, 3, 67, 0
5, 244260, Note_on_c, 3, 63, 39
5, 244308, Note_on_c, 3, 63, 0
5, 244320, Note_on_c, 3, 65, 40
5, 244368, Note_on_c, 3, 65, 0
5, 244380, Note_on_c, 3, 62, 40
5, 244428, Note_on_c, 3, 62, 0
5, 244440, Note_on_c, 3, 63, 41
5, 244488, Note_on_c, 3, 63, 0
5, 244500, Note_on_c, 3, 60, 41
5, 244548, Note_on_c, 3, 60, 0
5, 244560, Note_on_c, 3, 62, 42
5, 244608, Note_on_c, 3, 62, 0
5, 244620, Note_on_c, 3, 67, 42
5, 244668, Note_on_c, 3, 67, 0
5, 244680, Note_on_c, 3, 69, 43
5, 244728, Note_on_c, 3, 69, 0
5, 244740, Note_on_c, 3, 70, 43
5, 244788, Note_on_c, 3, 70, 0
5, 244800, Note_on_c, 3, 72, 43
5, 244848, Note_on_c, 3, 72, 0
5, 244860, Note_on_c, 3, 69, 44
5, 244908, Note_on_c, 3, 69, 0
5, 244920, Note_on_c, 3, 70, 44
5, 244968, Note_on_c, 3, 70, 0
5, 244980, Note_on_c, 3, 67, 45
5, 245028, Note_on_c, 3, 67, 0
5, 245040, Note_on_c, 3, 69, 45
5, 245088, Note_on_c, 3, 69, 0
5, 245100, Note_on_c, 3, 66, 46
5, 245148, Note_on_c, 3, 66, 0
5, 245160, Note_on_c, 3, 67, 46
5, 245208, Note_on_c, 3, 67, 0
5, 245220, Note_on_c, 3, 64, 47
5, 245268, Note_on_c, 3, 64, 0
5, 245280, Note_on_c, 3, 66, 47
5, 245328, Note_on_c, 3, 66, 0
5, 245340, Note_on_c, 3, 62, 48
5, 245388, Note_on_c, 3, 62, 0
5, 245400, Note_on_c, 3, 67, 48
5, 245448, Note_on_c, 3, 67, 0
5, 245460, Note_on_c, 3, 66, 48
5, 245508, Note_on_c, 3, 66, 0
5, 245520, Note_on_c, 3, 67, 49
5, 245568, Note_on_c, 3, 67, 0
5, 245580, Note_on_c, 3, 62, 49
5, 245628, Note_on_c, 3, 62, 0
5, 245640, Note_on_c, 3, 67, 50
5, 245688, Note_on_c, 3, 67, 0
5, 245700, Note_on_c, 3, 69, 50
5, 245748, Note_on_c, 3, 69, 0
5, 245760, Note_on_c, 3, 71, 51
5, 245808, Note_on_c, 3, 71, 0
5, 245820, Note_on_c, 3, 74, 51
5, 245868, Note_on_c, 3, 74, 0
5, 245880, Note_on_c, 3, 73, 52
5, 245928, Note_on_c, 3, 73, 0
5, 245940, Note_on_c, 3, 76, 52
5, 245988, Note_on_c, 3, 76, 0
5, 246000, Note_on_c, 3, 74, 52
5, 246048, Note_on_c, 3, 74, 0
5, 246060, Note_on_c, 3, 62, 53
5, 246108, Note_on_c, 3, 62, 0
5, 246120, Note_on_c, 3, 64, 53
5, 246168, Note_on_c, 3, 64, 0
5, 246180, Note_on_c, 3, 65, 54
5, 246228, Note_on_c, 3, 65, 0
5, 246240, Note_on_c, 3, 67, 54
5, 246288, Note_on_c, 3, 67, 0
5, 246300, Note_on_c, 3, 64, 55
5, 246348, Note_on_c, 3, 64, 0
5, 246360, Note_on_c, 3, 65, 55
5, 246408, Note_on_c, 3, 65, 0
5, 246420, Note_on_c, 3, 62, 56
5, 246468, Note_on_c, 3, 62, 0
5, 246480, Note_on_c, 3, 64, 56
5, 246528, Note_on_c, 3, 64, 0
5, 246540, Note_on_c, 3, 61, 56
5, 246588, Note_on_c, 3, 61, 0
5, 246600, Note_on_c, 3, 62, 57
5, 246648, Note_on_c, 3, 62, 0
5, 246660, Note_on_c, 3, 59, 57
5, 246708, Note_on_c, 3, 59, 0
5, 246720, Note_on_c, 3, 61, 58
5, 246768, Note_on_c, 3, 61, 0
5, 246780, Note_on_c, 3, 57, 58
5, 246828, Note_on_c, 3, 57, 0
5, 246840, Note_on_c, 3, 69, 59
5, 246888, Note_on_c, 3, 69, 0
5, 246900, Note_on_c, 3, 67, 59
5, 246948, Note_on_c, 3, 67, 0
5, 246960, Note_on_c, 3, 69, 60
5, 246960, Note_on_c, 3, 65, 60
5, 247056, Note_on_c, 3, 65, 0
5, 247056, Note_on_c, 3, 69, 0
5, 247320, Note_on_c, 3, 74, 77
5, 247368, Note_on_c, 3, 74, 0
5, 247380, Note_on_c, 3, 73, 77
5, 247428, Note_on_c, 3, 73, 0
5, 247440, Note_on_c, 3, 74, 77
5, 247536, Note_on_c, 3, 74, 0
5, 247800, Note_on_c, 3, 70, 77
5, 247800, Note_on_c, 3, 67, 77
5, 247848, Note_on_c, 3, 67, 0
5, 247848, Note_on_c, 3, 70, 0
5, 247860, Note_on_c, 3, 69, 77
5, 247860, Note_on_c, 3, 64, 77
5, 247908, Note_on_c, 3, 64, 0
5, 247908, Note_on_c, 3, 69, 0
5, 247920, Note_on_c, 3, 70, 77
5, 247920, Note_on_c, 3, 65, 77
5, 248016, Note_on_c, 3, 65, 0
5, 248016, Note_on_c, 3, 70, 0
5, 248280, Note_on_c, 3, 64, 77
5, 248328, Note_on_c, 3, 64, 0
5, 248340, Note_on_c, 3, 61, 77
5, 248388, Note_on_c, 3, 61, 0
5, 248400, Note_on_c, 3, 62, 77
5, 248400, Note_on_c, 3, 57, 77
5, 248496, Note_on_c, 3, 57, 0
5, 248496, Note_on_c, 3, 62, 0
5, 248760, Note_on_c, 3, 69, 77
5, 248808, Note_on_c, 3, 69, 0
5, 248820, Note_on_c, 3, 70, 77
5, 248868, Note_on_c, 3, 70, 0
5, 248880, Note_on_c, 3, 67, 77
5, 248976, Note_on_c, 3, 67, 0
5, 249240, Note_on_c, 3, 81, 90
5, 249240, Note_on_c, 3, 73, 90
5, 249288, Note_on_c, 3, 73, 0
5, 249288, Note_on_c, 3, 81, 0
5, 249300, Note_on_c, 3, 71, 90
5, 249300, Note_on_c, 3, 80, 90
5, 249348, Note_on_c, 3, 80, 0
5, 249348, Note_on_c, 3, 71, 0
5, 249360, Note_on_c, 3, 81, 90
5, 249360, Note_on_c, 3, 73, 90
5, 249408, Note_on_c, 3, 73, 0
5, 249408, Note_on_c, 3, 81, 0
5, 249420, Note_on_c, 3, 76, 90
5, 249468, Note_on_c, 3, 76, 0
5, 249480, Note_on_c, 3, 73, 90
5, 249528, Note_on_c, 3, 73, 0
5, 249540, Note_on_c, 3, 76, 90
5, 249588, Note_on_c, 3, 76, 0
5, 249600, Note_on_c, 3, 61, 90
5, 249600, Note_on_c, 3, 64, 90
5, 249600, Note_on_c, 3, 69, 90
5, 249696, Note_on_c, 3, 69, 0
5, 249696, Note_on_c, 3, 64, 0
5, 249696, Note_on_c, 3, 61, 0
5, 249960, Note_on_c, 3, 74, 90
5, 250008, Note_on_c, 3, 74, 0
5, 250020, Note_on_c, 3, 73, 90
5, 250068, Note_on_c, 3, 73, 0
5, 250080, Note_on_c, 3, 74, 90
5, 250128, Note_on_c, 3, 74, 0
5, 250140, Note_on_c, 3, 69, 90
5, 250188, Note_on_c, 3, 69, 0
5, 250200, Note_on_c, 3, 66, 90
5, 250248, Note_on_c, 3, 66, 0
5, 250260, Note_on_c, 3, 69, 90
5, 250308, Note_on_c, 3, 69, 0
5, 250320, Note_on_c, 3, 62, 90
5, 250416, Note_on_c, 3, 62, 0
5, 250680, Note_on_c, 3, 67, 90
5, 250728, Note_on_c, 3, 67, 0
5, 250740, Note_on_c, 3, 66, 90
5, 250788, Note_on_c, 3, 66, 0
5, 250800, Note_on_c, 3, 67, 90
5, 250848, Note_on_c, 3, 67, 0
5, 250860, Note_on_c, 3, 62, 90
5, 250908, Note_on_c, 3, 62, 0
5, 250920, Note_on_c, 3, 58, 90
5, 250968, Note_on_c, 3, 58, 0
5, 250980, Note_on_c, 3, 62, 90
5, 251028, Note_on_c, 3, 62, 0
5, 251040, Note_on_c, 3, 55, 90
5, 251136, Note_on_c, 3, 55, 0
5, 251400, Note_on_c, 3, 69, 90
5, 251448, Note_on_c, 3, 69, 0
5, 251460, Note_on_c, 3, 67, 90
5, 251508, Note_on_c, 3, 67, 0
5, 251520, Note_on_c, 3, 69, 90
5, 251568, Note_on_c, 3, 69, 0
5, 251580, Note_on_c, 3, 64, 90
5, 251628, Note_on_c, 3, 64, 0
5, 251640, Note_on_c, 3, 61, 90
5, 251688, Note_on_c, 3, 61, 0
5, 251700, Note_on_c, 3, 64, 90
5, 251748, Note_on_c, 3, 64, 0
5, 251760, Note_on_c, 3, 57, 90
5, 251856, Note_on_c, 3, 57, 0
5, 252120, Note_on_c, 3, 74, 90
5, 252168, Note_on_c, 3, 74, 0
5, 252180, Note_on_c, 3, 73, 90
5, 252228, Note_on_c, 3, 73, 0
5, 252240, Note_on_c, 3, 74, 90
5, 252288, Note_on_c, 3, 74, 0
5, 252300, Note_on_c, 3, 69, 90
5, 252348, Note_on_c, 3, 69, 0
5, 252360, Note_on_c, 3, 65, 90
5, 252408, Note_on_c, 3, 65, 0
5, 252420, Note_on_c, 3, 69, 90
5, 252468, Note_on_c, 3, 69, 0
5, 252480, Note_on_c, 3, 62, 90
5, 252576, Note_on_c, 3, 62, 0
5, 252780, Note_on_c, 3, 67, 90
5, 252828, Note_on_c, 3, 67, 0
5, 252840, Note_on_c, 3, 72, 90
5, 252888, Note_on_c, 3, 72, 0
5, 252900, Note_on_c, 3, 70, 90
5, 252948, Note_on_c, 3, 70, 0
5, 252960, Note_on_c, 3, 72, 90
5, 253008, Note_on_c, 3, 72, 0
5, 253020, Note_on_c, 3, 67, 90
5, 253068, Note_on_c, 3, 67, 0
5, 253080, Note_on_c, 3, 72, 90
5, 253080, Note_on_c, 3, 76, 90
5, 253128, Note_on_c, 3, 76, 0
5, 253128, Note_on_c, 3, 72, 0
5, 253140, Note_on_c, 3, 70, 90
5, 253140, Note_on_c, 3, 74, 90
5, 253188, Note_on_c, 3, 74, 0
5, 253188, Note_on_c, 3, 70, 0
5, 253200, Note_on_c, 3, 72, 90
5, 253200, Note_on_c, 3, 76, 90
5, 253248, Note_on_c, 3, 76, 0
5, 253248, Note_on_c, 3, 72, 0
5, 253260, Note_on_c, 3, 67, 90
5, 253308, Note_on_c, 3, 67, 0
5, 253320, Note_on_c, 3, 72, 90
5, 253320, Note_on_c, 3, 76, 90
5, 253368, Note_on_c, 3, 76, 0
5, 253368, Note_on_c, 3, 72, 0
5, 253380, Note_on_c, 3, 79, 90
5, 253428, Note_on_c, 3, 79, 0
5, 253440, Note_on_c, 3, 81, 90
5, 253488, Note_on_c, 3, 81, 0
5, 253500, Note_on_c, 3, 65, 90
5, 253548, Note_on_c, 3, 65, 0
5, 253560, Note_on_c, 3, 70, 90
5, 253608, Note_on_c, 3, 70, 0
5, 253620, Note_on_c, 3, 69, 90
5, 253668, Note_on_c, 3, 69, 0
5, 253680, Note_on_c, 3, 70, 90
5, 253728, Note_on_c, 3, 70, 0
5, 253740, Note_on_c, 3, 65, 90
5, 253788, Note_on_c, 3, 65, 0
5, 253800, Note_on_c, 3, 70, 90
5, 253800, Note_on_c, 3, 74, 90
5, 253848, Note_on_c, 3, 74, 0
5, 253848, Note_on_c, 3, 70, 0
5, 253860, Note_on_c, 3, 69, 90
5, 253860, Note_on_c, 3, 72, 90
5, 253908, Note_on_c, 3, 72, 0
5, 253908, Note_on_c, 3, 69, 0
5, 253920, Note_on_c, 3, 70, 90
5, 253920, Note_on_c, 3, 74, 90
5, 253968, Note_on_c, 3, 74, 0
5, 253968, Note_on_c, 3, 70, 0
5, 253980, Note_on_c, 3, 65, 90
5, 254028, Note_on_c, 3, 65, 0
5, 254040, Note_on_c, 3, 70, 90
5, 254040, Note_on_c, 3, 74, 90
5, 254088, Note_on_c, 3, 74, 0
5, 254088, Note_on_c, 3, 70, 0
5, 254100, Note_on_c, 3, 77, 90
5, 254148, Note_on_c, 3, 77, 0
5, 254160, Note_on_c, 3, 77, 90
5, 254208, Note_on_c, 3, 77, 0
5, 254220, Note_on_c, 3, 62, 90
5, 254268, Note_on_c, 3, 62, 0
5, 254280, Note_on_c, 3, 69, 90
5, 254328, Note_on_c, 3, 69, 0
5, 254340, Note_on_c, 3, 67, 90
5, 254388, Note_on_c, 3, 67, 0
5, 254400, Note_on_c, 3, 69, 90
5, 254448, Note_on_c, 3, 69, 0
5, 254460, Note_on_c, 3, 64, 90
5, 254508, Note_on_c, 3, 64, 0
5, 254520, Note_on_c, 3, 69, 90
5, 254520, Note_on_c, 3, 73, 90
5, 254568, Note_on_c, 3, 73, 0
5, 254568, Note_on_c, 3, 69, 0
5, 254580, Note_on_c, 3, 67, 90
5, 254580, Note_on_c, 3, 71, 90
5, 254628, Note_on_c, 3, 71, 0
5, 254628, Note_on_c, 3, 67, 0
5, 254640, Note_on_c, 3, 69, 90
5, 254640, Note_on_c, 3, 73, 90
5, 254688, Note_on_c, 3, 73, 0
5, 254688, Note_on_c, 3, 69, 0
5, 254700, Note_on_c, 3, 67, 90
5, 254748, Note_on_c, 3, 67, 0
5, 254760, Note_on_c, 3, 65, 90
5, 254760, Note_on_c, 3, 74, 90
5, 254808, Note_on_c, 3, 74, 0
5, 254808, Note_on_c, 3, 65, 0
5, 254820, Note_on_c, 3, 73, 90
5, 254820, Note_on_c, 3, 64, 90
5, 254868, Note_on_c, 3, 64, 0
5, 254868, Note_on_c, 3, 73, 0
5, 254880, Note_on_c, 3, 74, 90
5, 254880, Note_on_c, 3, 65, 90
5, 254976, Note_on_c, 3, 65, 0
5, 254976, Note_on_c, 3, 74, 0
5, 255240, Note_on_c, 3, 74, 83
5, 255288, Note_on_c, 3, 74, 0
5, 255300, Note_on_c, 3, 73, 83
5, 255348, Note_on_c, 3, 73, 0
5, 255360, Note_on_c, 3, 74, 83
5, 255456, Note_on_c, 3, 74, 0
5, 255720, Note_on_c, 3, 67, 82
5, 255720, Note_on_c, 3, 70, 82
5, 255768, Note_on_c, 3, 70, 0
5, 255768, Note_on_c, 3, 67, 0
5, 255780, Note_on_c, 3, 64, 82
5, 255780, Note_on_c, 3, 69, 82
5, 255828, Note_on_c, 3, 69, 0
5, 255828, Note_on_c, 3, 64, 0
5, 255840, Note_on_c, 3, 65, 81
5, 255936, Note_on_c, 3, 65, 0
5, 256200, Note_on_c, 3, 64, 80
5, 256248, Note_on_c, 3, 64, 0
5, 256260, Note_on_c, 3, 61, 80
5, 256308, Note_on_c, 3, 61, 0
5, 256320, Note_on_c, 3, 62, 80
5, 256320, Note_on_c, 3, 57, 80
5, 256416, Note_on_c, 3, 57, 0
5, 256416, Note_on_c, 3, 62, 0
5, 256680, Note_on_c, 3, 69, 78
5, 256728, Note_on_c, 3, 69, 0
5, 256740, Note_on_c, 3, 70, 78
5, 256788, Note_on_c, 3, 70, 0
5, 256800, Note_on_c, 3, 67, 78
5, 256896, Note_on_c, 3, 67, 0
5, 257160, Note_on_c, 3, 81, 76
5, 257160, Note_on_c, 3, 73, 76
5, 257208, Note_on_c, 3, 73, 0
5, 257208, Note_on_c, 3, 81, 0
5, 257220, Note_on_c, 3, 71, 76
5, 257220, Note_on_c, 3, 80, 76
5, 257268, Note_on_c, 3, 80, 0
5, 257268, Note_on_c, 3, 71, 0
5, 257280, Note_on_c, 3, 73, 76
5, 257280, Note_on_c, 3, 81, 76
5, 257328, Note_on_c, 3, 81, 0
5, 257328, Note_on_c, 3, 73, 0
5, 257340, Note_on_c, 3, 76, 76
5, 257388, Note_on_c, 3, 76, 0
5, 257400, Note_on_c, 3, 73, 75
5, 257448, Note_on_c, 3, 73, 0
5, 257460, Note_on_c, 3, 76, 75
5, 257508, Note_on_c, 3, 76, 0
5, 257520, Note_on_c, 3, 61, 75
5, 257520, Note_on_c, 3, 64, 75
5, 257520, Note_on_c, 3, 69, 75
5, 257616, Note_on_c, 3, 69, 0
5, 257616, Note_on_c, 3, 64, 0
5, 257616, Note_on_c, 3, 61, 0
5, 258840, Note_on_c, 3, 67, 47
5, 258840, Note_on_c, 3, 74, 47
5, 258840, Note_on_c, 3, 62, 47
5, 258888, Note_on_c, 3, 62, 0
5, 258888, Note_on_c, 3, 74, 0
5, 258888, Note_on_c, 3, 67, 0
5, 258900, Note_on_c, 3, 66, 47
5, 258900, Note_on_c, 3, 60, 47
5, 258900, Note_on_c, 3, 69, 47
5, 258948, Note_on_c, 3, 69, 0
5, 258948, Note_on_c, 3, 60, 0
5, 258948, Note_on_c, 3, 66, 0
5, 258960, Note_on_c, 3, 62, 47
5, 258960, Note_on_c, 3, 67, 47
5, 258960, Note_on_c, 3, 70, 47
5, 259056, Note_on_c, 3, 70, 0
5, 259056, Note_on_c, 3, 67, 0
5, 259056, Note_on_c, 3, 62, 0
5, 260280, Note_on_c, 3, 69, 45
5, 260280, Note_on_c, 3, 64, 45
5, 260280, Note_on_c, 3, 73, 45
5, 260328, Note_on_c, 3, 73, 0
5, 260328, Note_on_c, 3, 64, 0
5, 260328, Note_on_c, 3, 69, 0
5, 260340, Note_on_c, 3, 71, 46
5, 260340, Note_on_c, 3, 74, 46
5, 260340, Note_on_c, 3, 62, 46
5, 260388, Note_on_c, 3, 62, 0
5, 260388, Note_on_c, 3, 74, 0
5, 260388, Note_on_c, 3, 71, 0
5, 260400, Note_on_c, 3, 69, 46
5, 260400, Note_on_c, 3, 73, 46
5, 260400, Note_on_c, 3, 64, 46
5, 260496, Note_on_c, 3, 64, 0
5, 260496, Note_on_c, 3, 73, 0
5, 260496, Note_on_c, 3, 69, 0
5, 260520, Note_on_c, 3, 69, 47
5, 260520, Note_on_c, 3, 73, 47
5, 260520, Note_on_c, 3, 76, 47
5, 260616, Note_on_c, 3, 76, 0
5, 260616, Note_on_c, 3, 73, 0
5, 260616, Note_on_c, 3, 69, 0
5, 260640, Note_on_c, 3, 74, 48
5, 260640, Note_on_c, 3, 69, 48
5, 260736, Note_on_c, 3, 69, 0
5, 260736, Note_on_c, 3, 74, 0
5, 261000, Note_on_c, 3, 81, 50
5, 261048, Note_on_c, 3, 81, 0
5, 261060, Note_on_c, 3, 80, 50
5, 261108, Note_on_c, 3, 80, 0
5, 261120, Note_on_c, 3, 81, 51
5, 261216, Note_on_c, 3, 81, 0
5, 261480, Note_on_c, 3, 74, 53
5, 261480, Note_on_c, 3, 81, 53
5, 261528, Note_on_c, 3, 81, 0
5, 261528, Note_on_c, 3, 74, 0
5, 261540, Note_on_c, 3, 80, 53
5, 261588, Note_on_c, 3, 80, 0
5, 261600, Note_on_c, 3, 81, 54
5, 261696, Note_on_c, 3, 81, 0
5, 261960, Note_on_c, 3, 69, 56
5, 261960, Note_on_c, 3, 73, 56
5, 261960, Note_on_c, 3, 79, 56
5, 262056, Note_on_c, 3, 79, 0
5, 262056, Note_on_c, 3, 73, 0
5, 262056, Note_on_c, 3, 69, 0
5, 262080, Note_on_c, 3, 74, 57
5, 262080, Note_on_c, 3, 77, 57
5, 262080, Note_on_c, 3, 69, 57
5, 262176, Note_on_c, 3, 69, 0
5, 262176, Note_on_c, 3, 77, 0
5, 262176, Note_on_c, 3, 74, 0
5, 262200, Note_on_c, 3, 67, 57
5, 262200, Note_on_c, 3, 75, 57
5, 262200, Note_on_c, 3, 70, 57
5, 262296, Note_on_c, 3, 70, 0
5, 262296, Note_on_c, 3, 75, 0
5, 262296, Note_on_c, 3, 67, 0
5, 262440, Note_on_c, 3, 69, 59
5, 262440, Note_on_c, 3, 74, 59
5, 262536, Note_on_c, 3, 74, 0
5, 262536, Note_on_c, 3, 69, 0
5, 262680, Note_on_c, 3, 82, 60
5, 262680, Note_on_c, 3, 79, 60
5, 262776, Note_on_c, 3, 79, 0
5, 262776, Note_on_c, 3, 82, 0
5, 262800, Note_on_c, 3, 67, 61
5, 262800, Note_on_c, 3, 64, 61
5, 262800, Note_on_c, 3, 73, 61
5, 262896, Note_on_c, 3, 73, 0
5, 262896, Note_on_c, 3, 64, 0
5, 262896, Note_on_c, 3, 67, 0
5, 263520, Note_on_c, 3, 74, 66
5, 263520, Note_on_c, 3, 65, 66
5, 263520, Note_on_c, 3, 69, 66
5, 263616, Note_on_c, 3, 69, 0
5, 263616, Note_on_c, 3, 65, 0
5, 263616, Note_on_c, 3, 74, 0
5, 264240, Note_on_c, 3, 73, 70
5, 264240, Note_on_c, 3, 69, 70
5, 264240, Note_on_c, 3, 76, 70
5, 264336, Note_on_c, 3, 76, 0
5, 264336, Note_on_c, 3, 69, 0
5, 264336, Note_on_c, 3, 73, 0
5, 264960, Note_on_c, 3, 69, 75
5, 264960, Note_on_c, 3, 77, 75
5, 264960, Note_on_c, 3, 74, 75
5, 265008, Note_on_c, 3, 74, 0
5, 265008, Note_on_c, 3, 77, 0
5, 265008, Note_on_c, 3, 69, 0
5, 265020, Note_on_c, 3, 69, 75
5, 265068, Note_on_c, 3, 69, 0
5, 265080, Note_on_c, 3, 67, 75
5, 265128, Note_on_c, 3, 67, 0
5, 265140, Note_on_c, 3, 69, 76
5, 265188, Note_on_c, 3, 69, 0
5, 265200, Note_on_c, 3, 70, 76
5, 265248, Note_on_c, 3, 70, 0
5, 265260, Note_on_c, 3, 69, 77
5, 265308, Note_on_c, 3, 69, 0
5, 265320, Note_on_c, 3, 67, 77
5, 265368, Note_on_c, 3, 67, 0
5, 265380, Note_on_c, 3, 69, 77
5, 265428, Note_on_c, 3, 69, 0
5, 265440, Note_on_c, 3, 70, 78
5, 265536, Note_on_c, 3, 70, 0
5, 265560, Note_on_c, 3, 67, 78
5, 265656, Note_on_c, 3, 67, 0
5, 265680, Note_on_c, 3, 74, 79
5, 265728, Note_on_c, 3, 74, 0
5, 265740, Note_on_c, 3, 69, 80
5, 265788, Note_on_c, 3, 69, 0
5, 265800, Note_on_c, 3, 67, 80
5, 265848, Note_on_c, 3, 67, 0
5, 265860, Note_on_c, 3, 69, 80
5, 265908, Note_on_c, 3, 69, 0
5, 265920, Note_on_c, 3, 65, 81
5, 265968, Note_on_c, 3, 65, 0
5, 265980, Note_on_c, 3, 69, 81
5, 266028, Note_on_c, 3, 69, 0
5, 266040, Note_on_c, 3, 67, 81
5, 266088, Note_on_c, 3, 67, 0
5, 266100, Note_on_c, 3, 69, 82
5, 266148, Note_on_c, 3, 69, 0
5, 266160, Note_on_c, 3, 69, 82
5, 266256, Note_on_c, 3, 69, 0
5, 266280, Note_on_c, 3, 65, 83
5, 266376, Note_on_c, 3, 65, 0
5, 266400, Note_on_c, 3, 67, 84
5, 266448, Note_on_c, 3, 67, 0
5, 266460, Note_on_c, 3, 65, 84
5, 266508, Note_on_c, 3, 65, 0
5, 266520, Note_on_c, 3, 64, 84
5, 266568, Note_on_c, 3, 64, 0
5, 266580, Note_on_c, 3, 65, 85
5, 266628, Note_on_c, 3, 65, 0
5, 266640, Note_on_c, 3, 67, 85
5, 266688, Note_on_c, 3, 67, 0
5, 266700, Note_on_c, 3, 65, 86
5, 266748, Note_on_c, 3, 65, 0
5, 266760, Note_on_c, 3, 64, 86
5, 266808, Note_on_c, 3, 64, 0
5, 266820, Note_on_c, 3, 65, 86
5, 266868, Note_on_c, 3, 65, 0
5, 266880, Note_on_c, 3, 67, 87
5, 266880, Note_on_c, 3, 61, 87
5, 266976, Note_on_c, 3, 61, 0
5, 266976, Note_on_c, 3, 67, 0
5, 267000, Note_on_c, 3, 64, 87
5, 267000, Note_on_c, 3, 57, 87
5, 267096, Note_on_c, 3, 57, 0
5, 267096, Note_on_c, 3, 64, 0
5, 267120, Note_on_c, 3, 57, 88
5, 267120, Note_on_c, 3, 65, 88
5, 267120, Note_on_c, 3, 62, 88
5, 267168, Note_on_c, 3, 62, 0
5, 267168, Note_on_c, 3, 65, 0
5, 267168, Note_on_c, 3, 57, 0
5, 267240, Note_on_c, 3, 65, 90
5, 267240, Note_on_c, 3, 69, 90
5, 267240, Note_on_c, 3, 62, 90
5, 267336, Note_on_c, 3, 62, 0
5, 267336, Note_on_c, 3, 69, 0
5, 267336, Note_on_c, 3, 65, 0
5, 267360, Note_on_c, 3, 69, 90
5, 267360, Note_on_c, 3, 74, 90
5, 267360, Note_on_c, 3, 65, 90
5, 267456, Note_on_c, 3, 65, 0
5, 267456, Note_on_c, 3, 74, 0
5, 267456, Note_on_c, 3, 69, 0
5, 267480, Note_on_c, 3, 69, 90
5, 267480, Note_on_c, 3, 74, 90
5, 267480, Note_on_c, 3, 77, 90
5, 267576, Note_on_c, 3, 77, 0
5, 267576, Note_on_c, 3, 74, 0
5, 267576, Note_on_c, 3, 69, 0
5, 267600, Note_on_c, 3, 76, 90
5, 267600, Note_on_c, 3, 71, 90
5, 267600, Note_on_c, 3, 80, 90
5, 267696, Note_on_c, 3, 80, 0
5, 267696, Note_on_c, 3, 71, 0
5, 267696, Note_on_c, 3, 76, 0
5, 267720, Note_on_c, 3, 80, 90
5, 267720, Note_on_c, 3, 71, 90
5, 267720, Note_on_c, 3, 76, 90
5, 267816, Note_on_c, 3, 76, 0
5, 267816, Note_on_c, 3, 71, 0
5, 267816, Note_on_c, 3, 80, 0
5, 267840, Note_on_c, 3, 69, 90
5, 267840, Note_on_c, 3, 76, 90
5, 267840, Note_on_c, 3, 81, 90
5, 267936, Note_on_c, 3, 81, 0
5, 267936, Note_on_c, 3, 76, 0
5, 267936, Note_on_c, 3, 69, 0
5, 267960, Note_on_c, 3, 69, 90
5, 267960, Note_on_c, 3, 76, 90
5, 268056, Note_on_c, 3, 76, 0
5, 268056, Note_on_c, 3, 69, 0
5, 268080, Note_on_c, 3, 74, 90
5, 268080, Note_on_c, 3, 77, 90
5, 268080, Note_on_c, 3, 69, 90
5, 268176, Note_on_c, 3, 69, 0
5, 268176, Note_on_c, 3, 77, 0
5, 268176, Note_on_c, 3, 74, 0
5, 268200, Note_on_c, 3, 62, 90
5, 268200, Note_on_c, 3, 74, 90
5, 268200, Note_on_c, 3, 69, 90
5, 268296, Note_on_c, 3, 69, 0
5, 268296, Note_on_c, 3, 74, 0
5, 268296, Note_on_c, 3, 62, 0
5, 268320, Note_on_c, 3, 62, 90
5, 268320, Note_on_c, 3, 69, 90
5, 268320, Note_on_c, 3, 65, 90
5, 268416, Note_on_c, 3, 65, 0
5, 268416, Note_on_c, 3, 69, 0
5, 268416, Note_on_c, 3, 62, 0
5, 268440, Note_on_c, 3, 69, 90
5, 268440, Note_on_c, 3, 64, 90
5, 268440, Note_on_c, 3, 73, 90
5, 268536, Note_on_c, 3, 73, 0
5, 268536, Note_on_c, 3, 64, 0
5, 268536, Note_on_c, 3, 69, 0
5, 268560, Note_on_c, 3, 65, 90
5, 268560, Note_on_c, 3, 74, 90
5, 268656, Note_on_c, 3, 74, 0
5, 268656, Note_on_c, 3, 65, 0
5, 268680, Note_on_c, 3, 67, 90
5, 268728, Note_on_c, 3, 67, 0
5, 268740, Note_on_c, 3, 64, 90
5, 268788, Note_on_c, 3, 64, 0
5, 268800, Note_on_c, 3, 65, 90
5, 268848, Note_on_c, 3, 65, 0
5, 268860, Note_on_c, 3, 62, 90
5, 268908, Note_on_c, 3, 62, 0
5, 268920, Note_on_c, 3, 58, 90
5, 268968, Note_on_c, 3, 58, 0
5, 268980, Note_on_c, 3, 55, 90
5, 269028, Note_on_c, 3, 55, 0
5, 269040, Note_on_c, 3, 57, 90
5, 269088, Note_on_c, 3, 57, 0
5, 269100, Note_on_c, 3, 53, 90
5, 269148, Note_on_c, 3, 53, 0
5, 269160, Note_on_c, 3, 55, 90
5, 269208, Note_on_c, 3, 55, 0
5, 269220, Note_on_c, 3, 61, 90
5, 269220, Note_on_c, 3, 52, 90
5, 269268, Note_on_c, 3, 52, 0
5, 269268, Note_on_c, 3, 61, 0
5, 269280, Note_on_c, 3, 62, 90
5, 269280, Note_on_c, 3, 53, 90
5, 269472, Note_on_c, 3, 53, 0
5, 269472, Note_on_c, 3, 62, 0
5, 269472, End_track
6, 0, Start_track
6, 0, MIDI_port, 0
6, 0, Title_t, "Piano"
6, 0, Program_c, 4, 43
6, 0, Control_c, 4, 7, 127
6, 0, Control_c, 4, 10, 127
6, 0, Control_c, 4, 91, 127
6, 0, Control_c, 4, 93, 0
6, 0, Note_on_c, 4, 50, 73
6, 96, Note_on_c, 4, 50, 0
6, 120, Note_on_c, 4, 62, 73
6, 216, Note_on_c, 4, 62, 0
6, 240, Note_on_c, 4, 60, 73
6, 336, Note_on_c, 4, 60, 0
6, 360, Note_on_c, 4, 58, 73
6, 456, Note_on_c, 4, 58, 0
6, 480, Note_on_c, 4, 57, 73
6, 528, Note_on_c, 4, 57, 0
6, 540, Note_on_c, 4, 55, 73
6, 588, Note_on_c, 4, 55, 0
6, 600, Note_on_c, 4, 57, 73
6, 648, Note_on_c, 4, 57, 0
6, 660, Note_on_c, 4, 58, 73
6, 708, Note_on_c, 4, 58, 0
6, 720, Note_on_c, 4, 57, 73
6, 768, Note_on_c, 4, 57, 0
6, 780, Note_on_c, 4, 55, 73
6, 828, Note_on_c, 4, 55, 0
6, 840, Note_on_c, 4, 53, 73
6, 888, Note_on_c, 4, 53, 0
6, 900, Note_on_c, 4, 52, 73
6, 948, Note_on_c, 4, 52, 0
6, 960, Note_on_c, 4, 50, 73
6, 1008, Note_on_c, 4, 50, 0
6, 1020, Note_on_c, 4, 48, 73
6, 1068, Note_on_c, 4, 48, 0
6, 1080, Note_on_c, 4, 50, 73
6, 1128, Note_on_c, 4, 50, 0
6, 1140, Note_on_c, 4, 51, 73
6, 1188, Note_on_c, 4, 51, 0
6, 1200, Note_on_c, 4, 50, 73
6, 1248, Note_on_c, 4, 50, 0
6, 1260, Note_on_c, 4, 48, 73
6, 1308, Note_on_c, 4, 48, 0
6, 1320, Note_on_c, 4, 46, 73
6, 1368, Note_on_c, 4, 46, 0
6, 1380, Note_on_c, 4, 45, 73
6, 1428, Note_on_c, 4, 45, 0
6, 1440, Note_on_c, 4, 43, 73
6, 2496, Note_on_c, 4, 43, 0
6, 2520, Note_on_c, 4, 41, 73
6, 2568, Note_on_c, 4, 41, 0
6, 2580, Note_on_c, 4, 40, 73
6, 2628, Note_on_c, 4, 40, 0
6, 2640, Note_on_c, 4, 41, 73
6, 2736, Note_on_c, 4, 41, 0
6, 2760, Note_on_c, 4, 46, 73
6, 2856, Note_on_c, 4, 46, 0
6, 2880, Note_on_c, 4, 45, 73
6, 2976, Note_on_c, 4, 45, 0
6, 3000, Note_on_c, 4, 43, 73
6, 3096, Note_on_c, 4, 43, 0
6, 3120, Note_on_c, 4, 45, 73
6, 3216, Note_on_c, 4, 45, 0
6, 3240, Note_on_c, 4, 33, 73
6, 3336, Note_on_c, 4, 33, 0
6, 3360, Note_on_c, 4, 38, 73
6, 3456, Note_on_c, 4, 38, 0
6, 3480, Note_on_c, 4, 50, 73
6, 3576, Note_on_c, 4, 50, 0
6, 3600, Note_on_c, 4, 48, 73
6, 3696, Note_on_c, 4, 48, 0
6, 3720, Note_on_c, 4, 47, 73
6, 3816, Note_on_c, 4, 47, 0
6, 3840, Note_on_c, 4, 45, 73
6, 3936, Note_on_c, 4, 45, 0
6, 3960, Note_on_c, 4, 57, 54
6, 4056, Note_on_c, 4, 57, 0
6, 4080, Note_on_c, 4, 55, 54
6, 4176, Note_on_c, 4, 55, 0
6, 4200, Note_on_c, 4, 53, 54
6, 4296, Note_on_c, 4, 53, 0
6, 4320, Note_on_c, 4, 52, 54
6, 4368, Note_on_c, 4, 52, 0
6, 4380, Note_on_c, 4, 50, 54
6, 4428, Note_on_c, 4, 50, 0
6, 4440, Note_on_c, 4, 52, 54
6, 4488, Note_on_c, 4, 52, 0
6, 4500, Note_on_c, 4, 53, 54
6, 4548, Note_on_c, 4, 53, 0
6, 4560, Note_on_c, 4, 52, 54
6, 4608, Note_on_c, 4, 52, 0
6, 4620, Note_on_c, 4, 50, 54
6, 4668, Note_on_c, 4, 50, 0
6, 4680, Note_on_c, 4, 48, 54
6, 4728, Note_on_c, 4, 48, 0
6, 4740, Note_on_c, 4, 47, 54
6, 4788, Note_on_c, 4, 47, 0
6, 4800, Note_on_c, 4, 45, 54
6, 4848, Note_on_c, 4, 45, 0
6, 4860, Note_on_c, 4, 44, 54
6, 4908, Note_on_c, 4, 44, 0
6, 4920, Note_on_c, 4, 45, 54
6, 4968, Note_on_c, 4, 45, 0
6, 4980, Note_on_c, 4, 47, 54
6, 5028, Note_on_c, 4, 47, 0
6, 5040, Note_on_c, 4, 45, 54
6, 5088, Note_on_c, 4, 45, 0
6, 5100, Note_on_c, 4, 43, 54
6, 5148, Note_on_c, 4, 43, 0
6, 5160, Note_on_c, 4, 41, 54
6, 5208, Note_on_c, 4, 41, 0
6, 5220, Note_on_c, 4, 40, 54
6, 5268, Note_on_c, 4, 40, 0
6, 5280, Note_on_c, 4, 38, 54
6, 5328, Note_on_c, 4, 38, 0
6, 5340, Note_on_c, 4, 49, 54
6, 5388, Note_on_c, 4, 49, 0
6, 5400, Note_on_c, 4, 50, 54
6, 5448, Note_on_c, 4, 50, 0
6, 5460, Note_on_c, 4, 52, 54
6, 5508, Note_on_c, 4, 52, 0
6, 5520, Note_on_c, 4, 50, 54
6, 5568, Note_on_c, 4, 50, 0
6, 5580, Note_on_c, 4, 48, 54
6, 5628, Note_on_c, 4, 48, 0
6, 5640, Note_on_c, 4, 47, 54
6, 5688, Note_on_c, 4, 47, 0
6, 5700, Note_on_c, 4, 45, 54
6, 5748, Note_on_c, 4, 45, 0
6, 5760, Note_on_c, 4, 44, 54
6, 5952, Note_on_c, 4, 44, 0
6, 6120, Note_on_c, 4, 50, 54
6, 6360, Note_on_c, 4, 50, 0
6, 6360, Note_on_c, 4, 48, 54
6, 6408, Note_on_c, 4, 48, 0
6, 6420, Note_on_c, 4, 47, 54
6, 6468, Note_on_c, 4, 47, 0
6, 6480, Note_on_c, 4, 48, 54
6, 6576, Note_on_c, 4, 48, 0
6, 6600, Note_on_c, 4, 53, 54
6, 6696, Note_on_c, 4, 53, 0
6, 6720, Note_on_c, 4, 52, 54
6, 6816, Note_on_c, 4, 52, 0
6, 6840, Note_on_c, 4, 50, 54
6, 6936, Note_on_c, 4, 50, 0
6, 6960, Note_on_c, 4, 52, 54
6, 7056, Note_on_c, 4, 52, 0
6, 7080, Note_on_c, 4, 40, 54
6, 7176, Note_on_c, 4, 40, 0
6, 7200, Note_on_c, 4, 45, 54
6, 7392, Note_on_c, 4, 45, 0
6, 8040, Note_on_c, 4, 52, 54
6, 8136, Note_on_c, 4, 52, 0
6, 8160, Note_on_c, 4, 57, 54
6, 8352, Note_on_c, 4, 57, 0
6, 8640, Note_on_c, 4, 38, 89
6, 8688, Note_on_c, 4, 38, 0
6, 8700, Note_on_c, 4, 40, 89
6, 8748, Note_on_c, 4, 40, 0
6, 8760, Note_on_c, 4, 41, 89
6, 8808, Note_on_c, 4, 41, 0
6, 8820, Note_on_c, 4, 43, 89
6, 8868, Note_on_c, 4, 43, 0
6, 8880, Note_on_c, 4, 45, 89
6, 8976, Note_on_c, 4, 45, 0
6, 9000, Note_on_c, 4, 50, 89
6, 9096, Note_on_c, 4, 50, 0
6, 9120, Note_on_c, 4, 49, 89
6, 9216, Note_on_c, 4, 49, 0
6, 9240, Note_on_c, 4, 45, 89
6, 9336, Note_on_c, 4, 45, 0
6, 9360, Note_on_c, 4, 40, 89
6, 9456, Note_on_c, 4, 40, 0
6, 9480, Note_on_c, 4, 43, 89
6, 9576, Note_on_c, 4, 43, 0
6, 9600, Note_on_c, 4, 42, 89
6, 9696, Note_on_c, 4, 42, 0
6, 9720, Note_on_c, 4, 38, 89
6, 9816, Note_on_c, 4, 38, 0
6, 9840, Note_on_c, 4, 48, 89
6, 10200, Note_on_c, 4, 48, 0
6, 10200, Note_on_c, 4, 47, 89
6, 10248, Note_on_c, 4, 47, 0
6, 10260, Note_on_c, 4, 45, 89
6, 10308, Note_on_c, 4, 45, 0
6, 10320, Note_on_c, 4, 47, 89
6, 10416, Note_on_c, 4, 47, 0
6, 10440, Note_on_c, 4, 43, 89
6, 10536, Note_on_c, 4, 43, 0
6, 10560, Note_on_c, 4, 40, 89
6, 10656, Note_on_c, 4, 40, 0
6, 10680, Note_on_c, 4, 43, 89
6, 10776, Note_on_c, 4, 43, 0
6, 10800, Note_on_c, 4, 46, 89
6, 10896, Note_on_c, 4, 46, 0
6, 10920, Note_on_c, 4, 38, 89
6, 11016, Note_on_c, 4, 38, 0
6, 11040, Note_on_c, 4, 37, 89
6, 11136, Note_on_c, 4, 37, 0
6, 11160, Note_on_c, 4, 45, 89
6, 11256, Note_on_c, 4, 45, 0
6, 11280, Note_on_c, 4, 38, 89
6, 11376, Note_on_c, 4, 38, 0
6, 11400, Note_on_c, 4, 43, 89
6, 11496, Note_on_c, 4, 43, 0
6, 11520, Note_on_c, 4, 41, 89
6, 11712, Note_on_c, 4, 41, 0
6, 11760, Note_on_c, 4, 40, 89
6, 11952, Note_on_c, 4, 40, 0
6, 12000, Note_on_c, 4, 38, 89
6, 12048, Note_on_c, 4, 38, 0
6, 12060, Note_on_c, 4, 37, 89
6, 12108, Note_on_c, 4, 37, 0
6, 12120, Note_on_c, 4, 38, 89
6, 12168, Note_on_c, 4, 38, 0
6, 12180, Note_on_c, 4, 40, 89
6, 12228, Note_on_c, 4, 40, 0
6, 12240, Note_on_c, 4, 41, 89
6, 12288, Note_on_c, 4, 41, 0
6, 12300, Note_on_c, 4, 43, 89
6, 12348, Note_on_c, 4, 43, 0
6, 12360, Note_on_c, 4, 45, 89
6, 12408, Note_on_c, 4, 45, 0
6, 12420, Note_on_c, 4, 47, 89
6, 12468, Note_on_c, 4, 47, 0
6, 12480, Note_on_c, 4, 49, 69
6, 12528, Note_on_c, 4, 49, 0
6, 12540, Note_on_c, 4, 47, 69
6, 12588, Note_on_c, 4, 47, 0
6, 12600, Note_on_c, 4, 45, 69
6, 12648, Note_on_c, 4, 45, 0
6, 12660, Note_on_c, 4, 47, 69
6, 12708, Note_on_c, 4, 47, 0
6, 12720, Note_on_c, 4, 49, 69
6, 12768, Note_on_c, 4, 49, 0
6, 12780, Note_on_c, 4, 45, 69
6, 12828, Note_on_c, 4, 45, 0
6, 12840, Note_on_c, 4, 47, 69
6, 12888, Note_on_c, 4, 47, 0
6, 12900, Note_on_c, 4, 49, 69
6, 12948, Note_on_c, 4, 49, 0
6, 12960, Note_on_c, 4, 50, 69
6, 13488, Note_on_c, 4, 50, 0
6, 13500, Note_on_c, 4, 48, 69
6, 13548, Note_on_c, 4, 48, 0
6, 13560, Note_on_c, 4, 47, 69
6, 13608, Note_on_c, 4, 47, 0
6, 13620, Note_on_c, 4, 45, 69
6, 13668, Note_on_c, 4, 45, 0
6, 13680, Note_on_c, 4, 47, 69
6, 13728, Note_on_c, 4, 47, 0
6, 13740, Note_on_c, 4, 43, 69
6, 13788, Note_on_c, 4, 43, 0
6, 13800, Note_on_c, 4, 45, 69
6, 13848, Note_on_c, 4, 45, 0
6, 13860, Note_on_c, 4, 47, 69
6, 13908, Note_on_c, 4, 47, 0
6, 13920, Note_on_c, 4, 48, 69
6, 14448, Note_on_c, 4, 48, 0
6, 14460, Note_on_c, 4, 46, 69
6, 14508, Note_on_c, 4, 46, 0
6, 14520, Note_on_c, 4, 45, 69
6, 14568, Note_on_c, 4, 45, 0
6, 14580, Note_on_c, 4, 46, 69
6, 14628, Note_on_c, 4, 46, 0
6, 14640, Note_on_c, 4, 48, 69
6, 14688, Note_on_c, 4, 48, 0
6, 14700, Note_on_c, 4, 50, 69
6, 14748, Note_on_c, 4, 50, 0
6, 14760, Note_on_c, 4, 51, 69
6, 14808, Note_on_c, 4, 51, 0
6, 14820, Note_on_c, 4, 48, 69
6, 14868, Note_on_c, 4, 48, 0
6, 14880, Note_on_c, 4, 50, 69
6, 14928, Note_on_c, 4, 50, 0
6, 14940, Note_on_c, 4, 51, 69
6, 14988, Note_on_c, 4, 51, 0
6, 15000, Note_on_c, 4, 50, 69
6, 15048, Note_on_c, 4, 50, 0
6, 15060, Note_on_c, 4, 48, 69
6, 15108, Note_on_c, 4, 48, 0
6, 15120, Note_on_c, 4, 46, 69
6, 15168, Note_on_c, 4, 46, 0
6, 15180, Note_on_c, 4, 45, 69
6, 15228, Note_on_c, 4, 45, 0
6, 15240, Note_on_c, 4, 43, 69
6, 15288, Note_on_c, 4, 43, 0
6, 15300, Note_on_c, 4, 42, 69
6, 15348, Note_on_c, 4, 42, 0
6, 15360, Note_on_c, 4, 43, 69
6, 15408, Note_on_c, 4, 43, 0
6, 15420, Note_on_c, 4, 41, 69
6, 15468, Note_on_c, 4, 41, 0
6, 15480, Note_on_c, 4, 40, 69
6, 15528, Note_on_c, 4, 40, 0
6, 15540, Note_on_c, 4, 38, 69
6, 15588, Note_on_c, 4, 38, 0
6, 15600, Note_on_c, 4, 37, 69
6, 15648, Note_on_c, 4, 37, 0
6, 15660, Note_on_c, 4, 33, 69
6, 15708, Note_on_c, 4, 33, 0
6, 15720, Note_on_c, 4, 38, 69
6, 15768, Note_on_c, 4, 38, 0
6, 15780, Note_on_c, 4, 36, 69
6, 15828, Note_on_c, 4, 36, 0
6, 15840, Note_on_c, 4, 34, 69
6, 15888, Note_on_c, 4, 34, 0
6, 15900, Note_on_c, 4, 38, 69
6, 15948, Note_on_c, 4, 38, 0
6, 15960, Note_on_c, 4, 37, 69
6, 16008, Note_on_c, 4, 37, 0
6, 16020, Note_on_c, 4, 38, 69
6, 16068, Note_on_c, 4, 38, 0
6, 16080, Note_on_c, 4, 40, 69
6, 16128, Note_on_c, 4, 40, 0
6, 16140, Note_on_c, 4, 41, 69
6, 16188, Note_on_c, 4, 41, 0
6, 16200, Note_on_c, 4, 43, 69
6, 16248, Note_on_c, 4, 43, 0
6, 16260, Note_on_c, 4, 40, 69
6, 16308, Note_on_c, 4, 40, 0
6, 16320, Note_on_c, 4, 41, 69
6, 16368, Note_on_c, 4, 41, 0
6, 16380, Note_on_c, 4, 40, 69
6, 16428, Note_on_c, 4, 40, 0
6, 16440, Note_on_c, 4, 38, 69
6, 16488, Note_on_c, 4, 38, 0
6, 16500, Note_on_c, 4, 40, 69
6, 16548, Note_on_c, 4, 40, 0
6, 16560, Note_on_c, 4, 41, 69
6, 16608, Note_on_c, 4, 41, 0
6, 16620, Note_on_c, 4, 40, 69
6, 16668, Note_on_c, 4, 40, 0
6, 16680, Note_on_c, 4, 41, 69
6, 16728, Note_on_c, 4, 41, 0
6, 16740, Note_on_c, 4, 43, 69
6, 16788, Note_on_c, 4, 43, 0
6, 16800, Note_on_c, 4, 45, 69
6, 17328, Note_on_c, 4, 45, 0
6, 17340, Note_on_c, 4, 43, 69
6, 17388, Note_on_c, 4, 43, 0
6, 17400, Note_on_c, 4, 42, 69
6, 17448, Note_on_c, 4, 42, 0
6, 17460, Note_on_c, 4, 40, 69
6, 17508, Note_on_c, 4, 40, 0
6, 17520, Note_on_c, 4, 42, 69
6, 17568, Note_on_c, 4, 42, 0
6, 17580, Note_on_c, 4, 38, 69
6, 17628, Note_on_c, 4, 38, 0
6, 17640, Note_on_c, 4, 40, 69
6, 17688, Note_on_c, 4, 40, 0
6, 17700, Note_on_c, 4, 42, 69
6, 17748, Note_on_c, 4, 42, 0
6, 17760, Note_on_c, 4, 43, 69
6, 18288, Note_on_c, 4, 43, 0
6, 18300, Note_on_c, 4, 41, 69
6, 18348, Note_on_c, 4, 41, 0
6, 18360, Note_on_c, 4, 40, 69
6, 18408, Note_on_c, 4, 40, 0
6, 18420, Note_on_c, 4, 41, 69
6, 18468, Note_on_c, 4, 41, 0
6, 18480, Note_on_c, 4, 43, 69
6, 18528, Note_on_c, 4, 43, 0
6, 18540, Note_on_c, 4, 45, 69
6, 18588, Note_on_c, 4, 45, 0
6, 18600, Note_on_c, 4, 46, 69
6, 18648, Note_on_c, 4, 46, 0
6, 18660, Note_on_c, 4, 43, 69
6, 18708, Note_on_c, 4, 43, 0
6, 18720, Note_on_c, 4, 45, 69
6, 18768, Note_on_c, 4, 45, 0
6, 18780, Note_on_c, 4, 46, 69
6, 18828, Note_on_c, 4, 46, 0
6, 18840, Note_on_c, 4, 45, 69
6, 18888, Note_on_c, 4, 45, 0
6, 18900, Note_on_c, 4, 43, 69
6, 18948, Note_on_c, 4, 43, 0
6, 18960, Note_on_c, 4, 41, 69
6, 19008, Note_on_c, 4, 41, 0
6, 19020, Note_on_c, 4, 40, 69
6, 19068, Note_on_c, 4, 40, 0
6, 19080, Note_on_c, 4, 38, 69
6, 19128, Note_on_c, 4, 38, 0
6, 19140, Note_on_c, 4, 37, 69
6, 19188, Note_on_c, 4, 37, 0
6, 19200, Note_on_c, 4, 38, 69
6, 19296, Note_on_c, 4, 38, 0
6, 19320, Note_on_c, 4, 34, 69
6, 19320, Note_on_c, 4, 46, 69
6, 19416, Note_on_c, 4, 46, 0
6, 19416, Note_on_c, 4, 34, 0
6, 19440, Note_on_c, 4, 43, 69
6, 19440, Note_on_c, 4, 31, 69
6, 19536, Note_on_c, 4, 31, 0
6, 19536, Note_on_c, 4, 43, 0
6, 19560, Note_on_c, 4, 33, 69
6, 19560, Note_on_c, 4, 45, 69
6, 19656, Note_on_c, 4, 45, 0
6, 19656, Note_on_c, 4, 33, 0
6, 19680, Note_on_c, 4, 26, 69
6, 19680, Note_on_c, 4, 38, 69
6, 19872, Note_on_c, 4, 38, 0
6, 19872, Note_on_c, 4, 26, 0
6, 20160, Note_on_c, 4, 50, 46
6, 20256, Note_on_c, 4, 50, 0
6, 20400, Note_on_c, 4, 45, 46
6, 20496, Note_on_c, 4, 45, 0
6, 20640, Note_on_c, 4, 38, 46
6, 20736, Note_on_c, 4, 38, 0
6, 21120, Note_on_c, 4, 43, 46
6, 21216, Note_on_c, 4, 43, 0
6, 21360, Note_on_c, 4, 50, 46
6, 21456, Note_on_c, 4, 50, 0
6, 21600, Note_on_c, 4, 55, 46
6, 21696, Note_on_c, 4, 55, 0
6, 22080, Note_on_c, 4, 60, 46
6, 22176, Note_on_c, 4, 60, 0
6, 22320, Note_on_c, 4, 53, 46
6, 22416, Note_on_c, 4, 53, 0
6, 22560, Note_on_c, 4, 58, 46
6, 22656, Note_on_c, 4, 58, 0
6, 22800, Note_on_c, 4, 52, 46
6, 22896, Note_on_c, 4, 52, 0
6, 23040, Note_on_c, 4, 57, 46
6, 23136, Note_on_c, 4, 57, 0
6, 23280, Note_on_c, 4, 50, 46
6, 23376, Note_on_c, 4, 50, 0
6, 23520, Note_on_c, 4, 57, 46
6, 23616, Note_on_c, 4, 57, 0
6, 23640, Note_on_c, 4, 52, 46
6, 23736, Note_on_c, 4, 52, 0
6, 23760, Note_on_c, 4, 49, 46
6, 23856, Note_on_c, 4, 49, 0
6, 23880, Note_on_c, 4, 45, 46
6, 23976, Note_on_c, 4, 45, 0
6, 24000, Note_on_c, 4, 50, 46
6, 24096, Note_on_c, 4, 50, 0
6, 24240, Note_on_c, 4, 45, 46
6, 24336, Note_on_c, 4, 45, 0
6, 24480, Note_on_c, 4, 38, 46
6, 24576, Note_on_c, 4, 38, 0
6, 24960, Note_on_c, 4, 43, 69
6, 25056, Note_on_c, 4, 43, 0
6, 25200, Note_on_c, 4, 50, 69
6, 25296, Note_on_c, 4, 50, 0
6, 25440, Note_on_c, 4, 55, 69
6, 25536, Note_on_c, 4, 55, 0
6, 25920, Note_on_c, 4, 60, 69
6, 26016, Note_on_c, 4, 60, 0
6, 26160, Note_on_c, 4, 53, 69
6, 26256, Note_on_c, 4, 53, 0
6, 26400, Note_on_c, 4, 58, 69
6, 26496, Note_on_c, 4, 58, 0
6, 26640, Note_on_c, 4, 52, 69
6, 26736, Note_on_c, 4, 52, 0
6, 26880, Note_on_c, 4, 57, 69
6, 26976, Note_on_c, 4, 57, 0
6, 27120, Note_on_c, 4, 50, 69
6, 27216, Note_on_c, 4, 50, 0
6, 27360, Note_on_c, 4, 57, 69
6, 27456, Note_on_c, 4, 57, 0
6, 27480, Note_on_c, 4, 52, 69
6, 27576, Note_on_c, 4, 52, 0
6, 27600, Note_on_c, 4, 49, 69
6, 27696, Note_on_c, 4, 49, 0
6, 27720, Note_on_c, 4, 45, 69
6, 27816, Note_on_c, 4, 45, 0
6, 27840, Note_on_c, 4, 50, 69
6, 27936, Note_on_c, 4, 50, 0
6, 28320, Note_on_c, 4, 55, 69
6, 28416, Note_on_c, 4, 55, 0
6, 28440, Note_on_c, 4, 50, 69
6, 28536, Note_on_c, 4, 50, 0
6, 28560, Note_on_c, 4, 47, 69
6, 28656, Note_on_c, 4, 47, 0
6, 28680, Note_on_c, 4, 43, 69
6, 28776, Note_on_c, 4, 43, 0
6, 28800, Note_on_c, 4, 48, 69
6, 28896, Note_on_c, 4, 48, 0
6, 29280, Note_on_c, 4, 53, 69
6, 29376, Note_on_c, 4, 53, 0
6, 29400, Note_on_c, 4, 48, 69
6, 29496, Note_on_c, 4, 48, 0
6, 29520, Note_on_c, 4, 41, 69
6, 29616, Note_on_c, 4, 41, 0
6, 29640, Note_on_c, 4, 45, 69
6, 29736, Note_on_c, 4, 45, 0
6, 29760, Note_on_c, 4, 46, 69
6, 29856, Note_on_c, 4, 46, 0
6, 29880, Note_on_c, 4, 53, 69
6, 29976, Note_on_c, 4, 53, 0
6, 30000, Note_on_c, 4, 47, 69
6, 30096, Note_on_c, 4, 47, 0
6, 30120, Note_on_c, 4, 43, 69
6, 30216, Note_on_c, 4, 43, 0
6, 30240, Note_on_c, 4, 48, 69
6, 30336, Note_on_c, 4, 48, 0
6, 30360, Note_on_c, 4, 52, 69
6, 30456, Note_on_c, 4, 52, 0
6, 30480, Note_on_c, 4, 49, 69
6, 30576, Note_on_c, 4, 49, 0
6, 30600, Note_on_c, 4, 45, 69
6, 30696, Note_on_c, 4, 45, 0
6, 30720, Note_on_c, 4, 50, 69
6, 30816, Note_on_c, 4, 50, 0
6, 31080, Note_on_c, 4, 38, 69
6, 31176, Note_on_c, 4, 38, 0
6, 31200, Note_on_c, 4, 40, 69
6, 31296, Note_on_c, 4, 40, 0
6, 31560, Note_on_c, 4, 52, 69
6, 31656, Note_on_c, 4, 52, 0
6, 31680, Note_on_c, 4, 53, 69
6, 31776, Note_on_c, 4, 53, 0
6, 32040, Note_on_c, 4, 50, 69
6, 32136, Note_on_c, 4, 50, 0
6, 32160, Note_on_c, 4, 47, 69
6, 32256, Note_on_c, 4, 47, 0
6, 32280, Note_on_c, 4, 59, 69
6, 32328, Note_on_c, 4, 59, 0
6, 32340, Note_on_c, 4, 60, 69
6, 32388, Note_on_c, 4, 60, 0
6, 32400, Note_on_c, 4, 62, 69
6, 32496, Note_on_c, 4, 62, 0
6, 32520, Note_on_c, 4, 59, 69
6, 32616, Note_on_c, 4, 59, 0
6, 32640, Note_on_c, 4, 52, 69
6, 32736, Note_on_c, 4, 52, 0
6, 33000, Note_on_c, 4, 49, 69
6, 33096, Note_on_c, 4, 49, 0
6, 33120, Note_on_c, 4, 45, 69
6, 33216, Note_on_c, 4, 45, 0
6, 33240, Note_on_c, 4, 57, 69
6, 33288, Note_on_c, 4, 57, 0
6, 33300, Note_on_c, 4, 59, 69
6, 33348, Note_on_c, 4, 59, 0
6, 33360, Note_on_c, 4, 61, 69
6, 33456, Note_on_c, 4, 61, 0
6, 33480, Note_on_c, 4, 57, 69
6, 33576, Note_on_c, 4, 57, 0
6, 33600, Note_on_c, 4, 50, 69
6, 33696, Note_on_c, 4, 50, 0
6, 33960, Note_on_c, 4, 62, 69
6, 34056, Note_on_c, 4, 62, 0
6, 34080, Note_on_c, 4, 60, 69
6, 34176, Note_on_c, 4, 60, 0
6, 34440, Note_on_c, 4, 48, 69
6, 34536, Note_on_c, 4, 48, 0
6, 34560, Note_on_c, 4, 53, 69
6, 34656, Note_on_c, 4, 53, 0
6, 34920, Note_on_c, 4, 41, 69
6, 35016, Note_on_c, 4, 41, 0
6, 35040, Note_on_c, 4, 40, 69
6, 35136, Note_on_c, 4, 40, 0
6, 35520, Note_on_c, 4, 57, 55
6, 35616, Note_on_c, 4, 57, 0
6, 35760, Note_on_c, 4, 52, 55
6, 35856, Note_on_c, 4, 52, 0
6, 36000, Note_on_c, 4, 45, 55
6, 36096, Note_on_c, 4, 45, 0
6, 36480, Note_on_c, 4, 50, 55
6, 36576, Note_on_c, 4, 50, 0
6, 36720, Note_on_c, 4, 45, 55
6, 36816, Note_on_c, 4, 45, 0
6, 36960, Note_on_c, 4, 38, 55
6, 37056, Note_on_c, 4, 38, 0
6, 37440, Note_on_c, 4, 43, 55
6, 37536, Note_on_c, 4, 43, 0
6, 37680, Note_on_c, 4, 48, 55
6, 37776, Note_on_c, 4, 48, 0
6, 37920, Note_on_c, 4, 53, 55
6, 38016, Note_on_c, 4, 53, 0
6, 38160, Note_on_c, 4, 47, 55
6, 38256, Note_on_c, 4, 47, 0
6, 38400, Note_on_c, 4, 52, 55
6, 38496, Note_on_c, 4, 52, 0
6, 38640, Note_on_c, 4, 45, 55
6, 38736, Note_on_c, 4, 45, 0
6, 38880, Note_on_c, 4, 52, 55
6, 38976, Note_on_c, 4, 52, 0
6, 39000, Note_on_c, 4, 47, 55
6, 39096, Note_on_c, 4, 47, 0
6, 39120, Note_on_c, 4, 44, 55
6, 39216, Note_on_c, 4, 44, 0
6, 39240, Note_on_c, 4, 40, 55
6, 39336, Note_on_c, 4, 40, 0
6, 39360, Note_on_c, 4, 45, 55
6, 39456, Note_on_c, 4, 45, 0
6, 39600, Note_on_c, 4, 52, 55
6, 39696, Note_on_c, 4, 52, 0
6, 39840, Note_on_c, 4, 57, 55
6, 39936, Note_on_c, 4, 57, 0
6, 40320, Note_on_c, 4, 50, 55
6, 40416, Note_on_c, 4, 50, 0
6, 40560, Note_on_c, 4, 45, 55
6, 40656, Note_on_c, 4, 45, 0
6, 40800, Note_on_c, 4, 38, 55
6, 40896, Note_on_c, 4, 38, 0
6, 41280, Note_on_c, 4, 55, 55
6, 41376, Note_on_c, 4, 55, 0
6, 41520, Note_on_c, 4, 48, 55
6, 41616, Note_on_c, 4, 48, 0
6, 41760, Note_on_c, 4, 53, 55
6, 41856, Note_on_c, 4, 53, 0
6, 42000, Note_on_c, 4, 47, 55
6, 42096, Note_on_c, 4, 47, 0
6, 42240, Note_on_c, 4, 52, 55
6, 42336, Note_on_c, 4, 52, 0
6, 42480, Note_on_c, 4, 45, 55
6, 42576, Note_on_c, 4, 45, 0
6, 42720, Note_on_c, 4, 52, 55
6, 42816, Note_on_c, 4, 52, 0
6, 42840, Note_on_c, 4, 40, 55
6, 42936, Note_on_c, 4, 40, 0
6, 42960, Note_on_c, 4, 44, 55
6, 43056, Note_on_c, 4, 44, 0
6, 43080, Note_on_c, 4, 40, 55
6, 43176, Note_on_c, 4, 40, 0
6, 43200, Note_on_c, 4, 45, 69
6, 43296, Note_on_c, 4, 45, 0
6, 43320, Note_on_c, 4, 57, 69
6, 43416, Note_on_c, 4, 57, 0
6, 43440, Note_on_c, 4, 55, 69
6, 43536, Note_on_c, 4, 55, 0
6, 43560, Note_on_c, 4, 53, 69
6, 43656, Note_on_c, 4, 53, 0
6, 43680, Note_on_c, 4, 52, 69
6, 43728, Note_on_c, 4, 52, 0
6, 43740, Note_on_c, 4, 50, 69
6, 43788, Note_on_c, 4, 50, 0
6, 43800, Note_on_c, 4, 52, 69
6, 43848, Note_on_c, 4, 52, 0
6, 43860, Note_on_c, 4, 53, 69
6, 43908, Note_on_c, 4, 53, 0
6, 43920, Note_on_c, 4, 52, 69
6, 43968, Note_on_c, 4, 52, 0
6, 43980, Note_on_c, 4, 50, 69
6, 44028, Note_on_c, 4, 50, 0
6, 44040, Note_on_c, 4, 48, 69
6, 44088, Note_on_c, 4, 48, 0
6, 44100, Note_on_c, 4, 47, 69
6, 44148, Note_on_c, 4, 47, 0
6, 44160, Note_on_c, 4, 45, 69
6, 44208, Note_on_c, 4, 45, 0
6, 44220, Note_on_c, 4, 44, 69
6, 44268, Note_on_c, 4, 44, 0
6, 44280, Note_on_c, 4, 45, 69
6, 44328, Note_on_c, 4, 45, 0
6, 44340, Note_on_c, 4, 47, 69
6, 44388, Note_on_c, 4, 47, 0
6, 44400, Note_on_c, 4, 45, 69
6, 44448, Note_on_c, 4, 45, 0
6, 44460, Note_on_c, 4, 43, 69
6, 44508, Note_on_c, 4, 43, 0
6, 44520, Note_on_c, 4, 41, 69
6, 44568, Note_on_c, 4, 41, 0
6, 44580, Note_on_c, 4, 40, 69
6, 44628, Note_on_c, 4, 40, 0
6, 44640, Note_on_c, 4, 38, 69
6, 44688, Note_on_c, 4, 38, 0
6, 44700, Note_on_c, 4, 49, 69
6, 44748, Note_on_c, 4, 49, 0
6, 44760, Note_on_c, 4, 50, 69
6, 44808, Note_on_c, 4, 50, 0
6, 44820, Note_on_c, 4, 52, 69
6, 44868, Note_on_c, 4, 52, 0
6, 44880, Note_on_c, 4, 50, 69
6, 44928, Note_on_c, 4, 50, 0
6, 44940, Note_on_c, 4, 48, 69
6, 44988, Note_on_c, 4, 48, 0
6, 45000, Note_on_c, 4, 47, 69
6, 45048, Note_on_c, 4, 47, 0
6, 45060, Note_on_c, 4, 45, 69
6, 45108, Note_on_c, 4, 45, 0
6, 45120, Note_on_c, 4, 44, 69
6, 45312, Note_on_c, 4, 44, 0
6, 45480, Note_on_c, 4, 50, 69
6, 45720, Note_on_c, 4, 50, 0
6, 45720, Note_on_c, 4, 48, 69
6, 45720, Note_on_c, 4, 56, 69
6, 45768, Note_on_c, 4, 48, 0
6, 45780, Note_on_c, 4, 47, 69
6, 45828, Note_on_c, 4, 47, 0
6, 45828, Note_on_c, 4, 56, 0
6, 45840, Note_on_c, 4, 52, 69
6, 45840, Note_on_c, 4, 48, 69
6, 45936, Note_on_c, 4, 48, 0
6, 45936, Note_on_c, 4, 52, 0
6, 45960, Note_on_c, 4, 57, 69
6, 45960, Note_on_c, 4, 53, 69
6, 46056, Note_on_c, 4, 53, 0
6, 46056, Note_on_c, 4, 57, 0
6, 46080, Note_on_c, 4, 52, 69
6, 46176, Note_on_c, 4, 52, 0
6, 46200, Note_on_c, 4, 50, 69
6, 46296, Note_on_c, 4, 50, 0
6, 46320, Note_on_c, 4, 52, 69
6, 46416, Note_on_c, 4, 52, 0
6, 46440, Note_on_c, 4, 40, 69
6, 46536, Note_on_c, 4, 40, 0
6, 46560, Note_on_c, 4, 45, 69
6, 46656, Note_on_c, 4, 45, 0
6, 46680, Note_on_c, 4, 57, 69
6, 46776, Note_on_c, 4, 57, 0
6, 46800, Note_on_c, 4, 56, 69
6, 46896, Note_on_c, 4, 56, 0
6, 46920, Note_on_c, 4, 52, 69
6, 47016, Note_on_c, 4, 52, 0
6, 47040, Note_on_c, 4, 57, 55
6, 47136, Note_on_c, 4, 57, 0
6, 48120, Note_on_c, 4, 57, 55
6, 48216, Note_on_c, 4, 57, 0
6, 48240, Note_on_c, 4, 56, 55
6, 48336, Note_on_c, 4, 56, 0
6, 48360, Note_on_c, 4, 52, 55
6, 48456, Note_on_c, 4, 52, 0
6, 48480, Note_on_c, 4, 45, 55
6, 48576, Note_on_c, 4, 45, 0
6, 48600, Note_on_c, 4, 57, 55
6, 48648, Note_on_c, 4, 57, 0
6, 48660, Note_on_c, 4, 58, 55
6, 48708, Note_on_c, 4, 58, 0
6, 48720, Note_on_c, 4, 60, 55
6, 48816, Note_on_c, 4, 60, 0
6, 48840, Note_on_c, 4, 61, 55
6, 48936, Note_on_c, 4, 61, 0
6, 48960, Note_on_c, 4, 62, 55
6, 49056, Note_on_c, 4, 62, 0
6, 49080, Note_on_c, 4, 57, 55
6, 49176, Note_on_c, 4, 57, 0
6, 49200, Note_on_c, 4, 57, 55
6, 49296, Note_on_c, 4, 57, 0
6, 49320, Note_on_c, 4, 57, 55
6, 49416, Note_on_c, 4, 57, 0
6, 49440, Note_on_c, 4, 57, 55
6, 49536, Note_on_c, 4, 57, 0
6, 50040, Note_on_c, 4, 50, 55
6, 50136, Note_on_c, 4, 50, 0
6, 50160, Note_on_c, 4, 49, 55
6, 50256, Note_on_c, 4, 49, 0
6, 50280, Note_on_c, 4, 45, 55
6, 50376, Note_on_c, 4, 45, 0
6, 50400, Note_on_c, 4, 50, 55
6, 50496, Note_on_c, 4, 50, 0
6, 50520, Note_on_c, 4, 38, 55
6, 50616, Note_on_c, 4, 38, 0
6, 50640, Note_on_c, 4, 41, 55
6, 50736, Note_on_c, 4, 41, 0
6, 50760, Note_on_c, 4, 38, 55
6, 50856, Note_on_c, 4, 38, 0
6, 50880, Note_on_c, 4, 45, 55
6, 51072, Note_on_c, 4, 45, 0
6, 51840, Note_on_c, 4, 43, 79
6, 51888, Note_on_c, 4, 43, 0
6, 51900, Note_on_c, 4, 45, 79
6, 51948, Note_on_c, 4, 45, 0
6, 51960, Note_on_c, 4, 46, 79
6, 52008, Note_on_c, 4, 46, 0
6, 52020, Note_on_c, 4, 48, 79
6, 52068, Note_on_c, 4, 48, 0
6, 52080, Note_on_c, 4, 50, 79
6, 52176, Note_on_c, 4, 50, 0
6, 52200, Note_on_c, 4, 55, 79
6, 52296, Note_on_c, 4, 55, 0
6, 52320, Note_on_c, 4, 54, 79
6, 52416, Note_on_c, 4, 54, 0
6, 52440, Note_on_c, 4, 50, 79
6, 52536, Note_on_c, 4, 50, 0
6, 52560, Note_on_c, 4, 45, 79
6, 52656, Note_on_c, 4, 45, 0
6, 52680, Note_on_c, 4, 48, 79
6, 52776, Note_on_c, 4, 48, 0
6, 52800, Note_on_c, 4, 47, 79
6, 52896, Note_on_c, 4, 47, 0
6, 52920, Note_on_c, 4, 43, 79
6, 53016, Note_on_c, 4, 43, 0
6, 53040, Note_on_c, 4, 53, 79
6, 53400, Note_on_c, 4, 53, 0
6, 53400, Note_on_c, 4, 52, 79
6, 53448, Note_on_c, 4, 52, 0
6, 53460, Note_on_c, 4, 50, 79
6, 53508, Note_on_c, 4, 50, 0
6, 53520, Note_on_c, 4, 52, 79
6, 53616, Note_on_c, 4, 52, 0
6, 53640, Note_on_c, 4, 48, 79
6, 53736, Note_on_c, 4, 48, 0
6, 53760, Note_on_c, 4, 45, 79
6, 53856, Note_on_c, 4, 45, 0
6, 53880, Note_on_c, 4, 48, 79
6, 53976, Note_on_c, 4, 48, 0
6, 54000, Note_on_c, 4, 51, 79
6, 54096, Note_on_c, 4, 51, 0
6, 54120, Note_on_c, 4, 43, 79
6, 54216, Note_on_c, 4, 43, 0
6, 54240, Note_on_c, 4, 42, 79
6, 54336, Note_on_c, 4, 42, 0
6, 54360, Note_on_c, 4, 50, 79
6, 54456, Note_on_c, 4, 50, 0
6, 54480, Note_on_c, 4, 43, 79
6, 54576, Note_on_c, 4, 43, 0
6, 54600, Note_on_c, 4, 51, 79
6, 54696, Note_on_c, 4, 51, 0
6, 54720, Note_on_c, 4, 50, 79
6, 54816, Note_on_c, 4, 50, 0
6, 54840, Note_on_c, 4, 48, 79
6, 54936, Note_on_c, 4, 48, 0
6, 54960, Note_on_c, 4, 50, 79
6, 55056, Note_on_c, 4, 50, 0
6, 55080, Note_on_c, 4, 38, 79
6, 55176, Note_on_c, 4, 38, 0
6, 55200, Note_on_c, 4, 43, 79
6, 55296, Note_on_c, 4, 43, 0
6, 55320, Note_on_c, 4, 58, 79
6, 55416, Note_on_c, 4, 58, 0
6, 55440, Note_on_c, 4, 54, 79
6, 55536, Note_on_c, 4, 54, 0
6, 55560, Note_on_c, 4, 50, 79
6, 55656, Note_on_c, 4, 50, 0
6, 55680, Note_on_c, 4, 55, 79
6, 55776, Note_on_c, 4, 55, 0
6, 56760, Note_on_c, 4, 55, 79
6, 56856, Note_on_c, 4, 55, 0
6, 56880, Note_on_c, 4, 54, 79
6, 56976, Note_on_c, 4, 54, 0
6, 57000, Note_on_c, 4, 50, 79
6, 57096, Note_on_c, 4, 50, 0
6, 57120, Note_on_c, 4, 43, 79
6, 57216, Note_on_c, 4, 43, 0
6, 57240, Note_on_c, 4, 55, 79
6, 57288, Note_on_c, 4, 55, 0
6, 57300, Note_on_c, 4, 57, 79
6, 57348, Note_on_c, 4, 57, 0
6, 57360, Note_on_c, 4, 58, 79
6, 57456, Note_on_c, 4, 58, 0
6, 57480, Note_on_c, 4, 59, 79
6, 57576, Note_on_c, 4, 59, 0
6, 57600, Note_on_c, 4, 60, 79
6, 57696, Note_on_c, 4, 60, 0
6, 58680, Note_on_c, 4, 48, 79
6, 58776, Note_on_c, 4, 48, 0
6, 58800, Note_on_c, 4, 47, 79
6, 58896, Note_on_c, 4, 47, 0
6, 58920, Note_on_c, 4, 43, 79
6, 59016, Note_on_c, 4, 43, 0
6, 59040, Note_on_c, 4, 36, 79
6, 59136, Note_on_c, 4, 36, 0
6, 59160, Note_on_c, 4, 48, 79
6, 59208, Note_on_c, 4, 48, 0
6, 59220, Note_on_c, 4, 50, 79
6, 59268, Note_on_c, 4, 50, 0
6, 59280, Note_on_c, 4, 51, 79
6, 59376, Note_on_c, 4, 51, 0
6, 59400, Note_on_c, 4, 48, 79
6, 59496, Note_on_c, 4, 48, 0
6, 59520, Note_on_c, 4, 53, 69
6, 59616, Note_on_c, 4, 53, 0
6, 59640, Note_on_c, 4, 63, 69
6, 59688, Note_on_c, 4, 63, 0
6, 59700, Note_on_c, 4, 62, 69
6, 59748, Note_on_c, 4, 62, 0
6, 59760, Note_on_c, 4, 60, 69
6, 59856, Note_on_c, 4, 60, 0
6, 59880, Note_on_c, 4, 57, 69
6, 59976, Note_on_c, 4, 57, 0
6, 60000, Note_on_c, 4, 58, 69
6, 60096, Note_on_c, 4, 58, 0
6, 60120, Note_on_c, 4, 65, 69
6, 60168, Note_on_c, 4, 65, 0
6, 60180, Note_on_c, 4, 63, 69
6, 60228, Note_on_c, 4, 63, 0
6, 60240, Note_on_c, 4, 65, 69
6, 60336, Note_on_c, 4, 65, 0
6, 60360, Note_on_c, 4, 46, 69
6, 60408, Note_on_c, 4, 46, 0
6, 60420, Note_on_c, 4, 48, 69
6, 60468, Note_on_c, 4, 48, 0
6, 60480, Note_on_c, 4, 50, 69
6, 60576, Note_on_c, 4, 50, 0
6, 60600, Note_on_c, 4, 66, 69
6, 60648, Note_on_c, 4, 66, 0
6, 60660, Note_on_c, 4, 64, 69
6, 60708, Note_on_c, 4, 64, 0
6, 60720, Note_on_c, 4, 62, 69
6, 60816, Note_on_c, 4, 62, 0
6, 60840, Note_on_c, 4, 50, 69
6, 60936, Note_on_c, 4, 50, 0
6, 60960, Note_on_c, 4, 55, 69
6, 61056, Note_on_c, 4, 55, 0
6, 61080, Note_on_c, 4, 62, 69
6, 61128, Note_on_c, 4, 62, 0
6, 61140, Note_on_c, 4, 60, 69
6, 61188, Note_on_c, 4, 60, 0
6, 61200, Note_on_c, 4, 58, 69
6, 61296, Note_on_c, 4, 58, 0
6, 61320, Note_on_c, 4, 52, 69
6, 61416, Note_on_c, 4, 52, 0
6, 61440, Note_on_c, 4, 57, 69
6, 61536, Note_on_c, 4, 57, 0
6, 61560, Note_on_c, 4, 69, 69
6, 61656, Note_on_c, 4, 69, 0
6, 61680, Note_on_c, 4, 64, 69
6, 61776, Note_on_c, 4, 64, 0
6, 61800, Note_on_c, 4, 57, 69
6, 61896, Note_on_c, 4, 57, 0
6, 61920, Note_on_c, 4, 50, 69
6, 62016, Note_on_c, 4, 50, 0
6, 62040, Note_on_c, 4, 62, 69
6, 62088, Note_on_c, 4, 62, 0
6, 62100, Note_on_c, 4, 61, 69
6, 62148, Note_on_c, 4, 61, 0
6, 62160, Note_on_c, 4, 62, 69
6, 62256, Note_on_c, 4, 62, 0
6, 62280, Note_on_c, 4, 50, 69
6, 62328, Note_on_c, 4, 50, 0
6, 62340, Note_on_c, 4, 51, 69
6, 62388, Note_on_c, 4, 51, 0
6, 62400, Note_on_c, 4, 53, 69
6, 62496, Note_on_c, 4, 53, 0
6, 62520, Note_on_c, 4, 60, 69
6, 62568, Note_on_c, 4, 60, 0
6, 62580, Note_on_c, 4, 62, 69
6, 62628, Note_on_c, 4, 62, 0
6, 62640, Note_on_c, 4, 63, 69
6, 62736, Note_on_c, 4, 63, 0
6, 62760, Note_on_c, 4, 53, 69
6, 62856, Note_on_c, 4, 53, 0
6, 62880, Note_on_c, 4, 58, 69
6, 62976, Note_on_c, 4, 58, 0
6, 63000, Note_on_c, 4, 62, 69
6, 63048, Note_on_c, 4, 62, 0
6, 63060, Note_on_c, 4, 63, 69
6, 63108, Note_on_c, 4, 63, 0
6, 63120, Note_on_c, 4, 62, 69
6, 63216, Note_on_c, 4, 62, 0
6, 63240, Note_on_c, 4, 58, 69
6, 63288, Note_on_c, 4, 58, 0
6, 63300, Note_on_c, 4, 57, 69
6, 63348, Note_on_c, 4, 57, 0
6, 63360, Note_on_c, 4, 55, 69
6, 63456, Note_on_c, 4, 55, 0
6, 63720, Note_on_c, 4, 52, 69
6, 63816, Note_on_c, 4, 52, 0
6, 63840, Note_on_c, 4, 53, 69
6, 63936, Note_on_c, 4, 53, 0
6, 64200, Note_on_c, 4, 50, 69
6, 64296, Note_on_c, 4, 50, 0
6, 64320, Note_on_c, 4, 52, 69
6, 64416, Note_on_c, 4, 52, 0
6, 64680, Note_on_c, 4, 45, 69
6, 64776, Note_on_c, 4, 45, 0
6, 64800, Note_on_c, 4, 50, 69
6, 64896, Note_on_c, 4, 50, 0
6, 64920, Note_on_c, 4, 45, 69
6, 65016, Note_on_c, 4, 45, 0
6, 65040, Note_on_c, 4, 38, 69
6, 65136, Note_on_c, 4, 38, 0
6, 65160, Note_on_c, 4, 41, 69
6, 65256, Note_on_c, 4, 41, 0
6, 65280, Note_on_c, 4, 43, 79
6, 65376, Note_on_c, 4, 43, 0
6, 65760, Note_on_c, 4, 48, 79
6, 65856, Note_on_c, 4, 48, 0
6, 65880, Note_on_c, 4, 43, 79
6, 65976, Note_on_c, 4, 43, 0
6, 66000, Note_on_c, 4, 40, 79
6, 66096, Note_on_c, 4, 40, 0
6, 66120, Note_on_c, 4, 36, 79
6, 66216, Note_on_c, 4, 36, 0
6, 66240, Note_on_c, 4, 41, 79
6, 66336, Note_on_c, 4, 41, 0
6, 66720, Note_on_c, 4, 46, 79
6, 66816, Note_on_c, 4, 46, 0
6, 66840, Note_on_c, 4, 53, 79
6, 66936, Note_on_c, 4, 53, 0
6, 66960, Note_on_c, 4, 50, 79
6, 67056, Note_on_c, 4, 50, 0
6, 67080, Note_on_c, 4, 46, 79
6, 67176, Note_on_c, 4, 46, 0
6, 67200, Note_on_c, 4, 51, 79
6, 67296, Note_on_c, 4, 51, 0
6, 67320, Note_on_c, 4, 55, 79
6, 67416, Note_on_c, 4, 55, 0
6, 67440, Note_on_c, 4, 52, 79
6, 67536, Note_on_c, 4, 52, 0
6, 67560, Note_on_c, 4, 48, 79
6, 67656, Note_on_c, 4, 48, 0
6, 67680, Note_on_c, 4, 53, 79
6, 67776, Note_on_c, 4, 53, 0
6, 67800, Note_on_c, 4, 57, 79
6, 67896, Note_on_c, 4, 57, 0
6, 67920, Note_on_c, 4, 54, 79
6, 68016, Note_on_c, 4, 54, 0
6, 68040, Note_on_c, 4, 50, 79
6, 68136, Note_on_c, 4, 50, 0
6, 68160, Note_on_c, 4, 55, 79
6, 68256, Note_on_c, 4, 55, 0
6, 68520, Note_on_c, 4, 43, 79
6, 68616, Note_on_c, 4, 43, 0
6, 68640, Note_on_c, 4, 45, 79
6, 68736, Note_on_c, 4, 45, 0
6, 69000, Note_on_c, 4, 45, 79
6, 69096, Note_on_c, 4, 45, 0
6, 69120, Note_on_c, 4, 46, 79
6, 69216, Note_on_c, 4, 46, 0
6, 69480, Note_on_c, 4, 55, 79
6, 69576, Note_on_c, 4, 55, 0
6, 69600, Note_on_c, 4, 52, 79
6, 69696, Note_on_c, 4, 52, 0
6, 69720, Note_on_c, 4, 40, 79
6, 69768, Note_on_c, 4, 40, 0
6, 69780, Note_on_c, 4, 41, 79
6, 69828, Note_on_c, 4, 41, 0
6, 69840, Note_on_c, 4, 43, 79
6, 69936, Note_on_c, 4, 43, 0
6, 69960, Note_on_c, 4, 40, 79
6, 70056, Note_on_c, 4, 40, 0
6, 70080, Note_on_c, 4, 45, 79
6, 70176, Note_on_c, 4, 45, 0
6, 70440, Note_on_c, 4, 54, 79
6, 70536, Note_on_c, 4, 54, 0
6, 70560, Note_on_c, 4, 50, 79
6, 70656, Note_on_c, 4, 50, 0
6, 70680, Note_on_c, 4, 38, 79
6, 70728, Note_on_c, 4, 38, 0
6, 70740, Note_on_c, 4, 40, 79
6, 70788, Note_on_c, 4, 40, 0
6, 70800, Note_on_c, 4, 42, 79
6, 70896, Note_on_c, 4, 42, 0
6, 70920, Note_on_c, 4, 38, 79
6, 71016, Note_on_c, 4, 38, 0
6, 71040, Note_on_c, 4, 43, 79
6, 71136, Note_on_c, 4, 43, 0
6, 71400, Note_on_c, 4, 55, 79
6, 71496, Note_on_c, 4, 55, 0
6, 71520, Note_on_c, 4, 53, 79
6, 71616, Note_on_c, 4, 53, 0
6, 71880, Note_on_c, 4, 41, 79
6, 71976, Note_on_c, 4, 41, 0
6, 72000, Note_on_c, 4, 46, 79
6, 72096, Note_on_c, 4, 46, 0
6, 72360, Note_on_c, 4, 58, 79
6, 72456, Note_on_c, 4, 58, 0
6, 72480, Note_on_c, 4, 57, 79
6, 72576, Note_on_c, 4, 57, 0
6, 72960, Note_on_c, 4, 50, 55
6, 73056, Note_on_c, 4, 50, 0
6, 73200, Note_on_c, 4, 45, 55
6, 73296, Note_on_c, 4, 45, 0
6, 73440, Note_on_c, 4, 38, 55
6, 73536, Note_on_c, 4, 38, 0
6, 73920, Note_on_c, 4, 43, 55
6, 74016, Note_on_c, 4, 43, 0
6, 74160, Note_on_c, 4, 50, 55
6, 74256, Note_on_c, 4, 50, 0
6, 74400, Note_on_c, 4, 55, 55
6, 74496, Note_on_c, 4, 55, 0
6, 74880, Note_on_c, 4, 60, 55
6, 74976, Note_on_c, 4, 60, 0
6, 75120, Note_on_c, 4, 53, 55
6, 75216, Note_on_c, 4, 53, 0
6, 75360, Note_on_c, 4, 58, 55
6, 75456, Note_on_c, 4, 58, 0
6, 75600, Note_on_c, 4, 52, 55
6, 75696, Note_on_c, 4, 52, 0
6, 75840, Note_on_c, 4, 57, 55
6, 75936, Note_on_c, 4, 57, 0
6, 76080, Note_on_c, 4, 50, 55
6, 76176, Note_on_c, 4, 50, 0
6, 76320, Note_on_c, 4, 57, 55
6, 76416, Note_on_c, 4, 57, 0
6, 76440, Note_on_c, 4, 52, 55
6, 76536, Note_on_c, 4, 52, 0
6, 76560, Note_on_c, 4, 49, 55
6, 76656, Note_on_c, 4, 49, 0
6, 76680, Note_on_c, 4, 45, 55
6, 76776, Note_on_c, 4, 45, 0
6, 76800, Note_on_c, 4, 50, 55
6, 76896, Note_on_c, 4, 50, 0
6, 77040, Note_on_c, 4, 45, 55
6, 77136, Note_on_c, 4, 45, 0
6, 77280, Note_on_c, 4, 38, 55
6, 77376, Note_on_c, 4, 38, 0
6, 77760, Note_on_c, 4, 43, 55
6, 77856, Note_on_c, 4, 43, 0
6, 78000, Note_on_c, 4, 50, 55
6, 78096, Note_on_c, 4, 50, 0
6, 78240, Note_on_c, 4, 55, 55
6, 78336, Note_on_c, 4, 55, 0
6, 78720, Note_on_c, 4, 48, 69
6, 78816, Note_on_c, 4, 48, 0
6, 78960, Note_on_c, 4, 53, 69
6, 79056, Note_on_c, 4, 53, 0
6, 79200, Note_on_c, 4, 46, 69
6, 79296, Note_on_c, 4, 46, 0
6, 79440, Note_on_c, 4, 52, 69
6, 79536, Note_on_c, 4, 52, 0
6, 79680, Note_on_c, 4, 45, 69
6, 79776, Note_on_c, 4, 45, 0
6, 79920, Note_on_c, 4, 50, 69
6, 80016, Note_on_c, 4, 50, 0
6, 80160, Note_on_c, 4, 57, 69
6, 80256, Note_on_c, 4, 57, 0
6, 80280, Note_on_c, 4, 45, 69
6, 80376, Note_on_c, 4, 45, 0
6, 80400, Note_on_c, 4, 49, 69
6, 80496, Note_on_c, 4, 49, 0
6, 80520, Note_on_c, 4, 45, 69
6, 80616, Note_on_c, 4, 45, 0
6, 80640, Note_on_c, 4, 50, 79
6, 80688, Note_on_c, 4, 50, 0
6, 80700, Note_on_c, 4, 49, 79
6, 80748, Note_on_c, 4, 49, 0
6, 80760, Note_on_c, 4, 50, 79
6, 80808, Note_on_c, 4, 50, 0
6, 80820, Note_on_c, 4, 52, 79
6, 80868, Note_on_c, 4, 52, 0
6, 80880, Note_on_c, 4, 53, 79
6, 80928, Note_on_c, 4, 53, 0
6, 80940, Note_on_c, 4, 52, 79
6, 80988, Note_on_c, 4, 52, 0
6, 81000, Note_on_c, 4, 53, 79
6, 81048, Note_on_c, 4, 53, 0
6, 81060, Note_on_c, 4, 55, 79
6, 81108, Note_on_c, 4, 55, 0
6, 81120, Note_on_c, 4, 57, 79
6, 81168, Note_on_c, 4, 57, 0
6, 81180, Note_on_c, 4, 55, 79
6, 81228, Note_on_c, 4, 55, 0
6, 81240, Note_on_c, 4, 57, 79
6, 81288, Note_on_c, 4, 57, 0
6, 81300, Note_on_c, 4, 58, 79
6, 81348, Note_on_c, 4, 58, 0
6, 81360, Note_on_c, 4, 57, 79
6, 81408, Note_on_c, 4, 57, 0
6, 81420, Note_on_c, 4, 55, 79
6, 81468, Note_on_c, 4, 55, 0
6, 81480, Note_on_c, 4, 53, 79
6, 81528, Note_on_c, 4, 53, 0
6, 81540, Note_on_c, 4, 52, 79
6, 81588, Note_on_c, 4, 52, 0
6, 81600, Note_on_c, 4, 50, 79
6, 81648, Note_on_c, 4, 50, 0
6, 81660, Note_on_c, 4, 49, 79
6, 81708, Note_on_c, 4, 49, 0
6, 81720, Note_on_c, 4, 50, 79
6, 81768, Note_on_c, 4, 50, 0
6, 81780, Note_on_c, 4, 52, 79
6, 81828, Note_on_c, 4, 52, 0
6, 81840, Note_on_c, 4, 50, 79
6, 81888, Note_on_c, 4, 50, 0
6, 81900, Note_on_c, 4, 48, 79
6, 81948, Note_on_c, 4, 48, 0
6, 81960, Note_on_c, 4, 46, 79
6, 82008, Note_on_c, 4, 46, 0
6, 82020, Note_on_c, 4, 45, 79
6, 82068, Note_on_c, 4, 45, 0
6, 82080, Note_on_c, 4, 43, 79
6, 82128, Note_on_c, 4, 43, 0
6, 82140, Note_on_c, 4, 42, 79
6, 82188, Note_on_c, 4, 42, 0
6, 82200, Note_on_c, 4, 43, 79
6, 82248, Note_on_c, 4, 43, 0
6, 82260, Note_on_c, 4, 45, 79
6, 82308, Note_on_c, 4, 45, 0
6, 82320, Note_on_c, 4, 43, 79
6, 82368, Note_on_c, 4, 43, 0
6, 82380, Note_on_c, 4, 41, 79
6, 82428, Note_on_c, 4, 41, 0
6, 82440, Note_on_c, 4, 40, 79
6, 82488, Note_on_c, 4, 40, 0
6, 82500, Note_on_c, 4, 38, 79
6, 82548, Note_on_c, 4, 38, 0
6, 82560, Note_on_c, 4, 37, 79
6, 82752, Note_on_c, 4, 37, 0
6, 82920, Note_on_c, 4, 55, 79
6, 83160, Note_on_c, 4, 55, 0
6, 83160, Note_on_c, 4, 53, 79
6, 83208, Note_on_c, 4, 53, 0
6, 83220, Note_on_c, 4, 52, 79
6, 83268, Note_on_c, 4, 52, 0
6, 83280, Note_on_c, 4, 53, 79
6, 83376, Note_on_c, 4, 53, 0
6, 83400, Note_on_c, 4, 58, 79
6, 83496, Note_on_c, 4, 58, 0
6, 83520, Note_on_c, 4, 57, 79
6, 83616, Note_on_c, 4, 57, 0
6, 83640, Note_on_c, 4, 55, 79
6, 83736, Note_on_c, 4, 55, 0
6, 83760, Note_on_c, 4, 57, 79
6, 83856, Note_on_c, 4, 57, 0
6, 83880, Note_on_c, 4, 45, 79
6, 83976, Note_on_c, 4, 45, 0
6, 84000, Note_on_c, 4, 50, 79
6, 84000, Note_on_c, 4, 38, 79
6, 84384, Note_on_c, 4, 38, 0
6, 84384, Note_on_c, 4, 50, 0
6, 86400, Note_on_c, 4, 53, 40
6, 86592, Note_on_c, 4, 53, 0
6, 86640, Note_on_c, 4, 41, 40
6, 86736, Note_on_c, 4, 41, 0
6, 86760, Note_on_c, 4, 43, 40
6, 86952, Note_on_c, 4, 43, 0
6, 87000, Note_on_c, 4, 55, 40
6, 87096, Note_on_c, 4, 55, 0
6, 87120, Note_on_c, 4, 57, 40
6, 87312, Note_on_c, 4, 57, 0
6, 87360, Note_on_c, 4, 45, 40
6, 87456, Note_on_c, 4, 45, 0
6, 87480, Note_on_c, 4, 46, 40
6, 87672, Note_on_c, 4, 46, 0
6, 87720, Note_on_c, 4, 58, 40
6, 87816, Note_on_c, 4, 58, 0
6, 87840, Note_on_c, 4, 60, 40
6, 87840, Note_on_c, 4, 58, 40
6, 88032, Note_on_c, 4, 58, 0
6, 88032, Note_on_c, 4, 60, 0
6, 88080, Note_on_c, 4, 60, 40
6, 88080, Note_on_c, 4, 57, 40
6, 88176, Note_on_c, 4, 57, 0
6, 88176, Note_on_c, 4, 60, 0
6, 88200, Note_on_c, 4, 62, 40
6, 88200, Note_on_c, 4, 55, 40
6, 88392, Note_on_c, 4, 55, 0
6, 88392, Note_on_c, 4, 62, 0
6, 88440, Note_on_c, 4, 60, 40
6, 88536, Note_on_c, 4, 60, 0
6, 88560, Note_on_c, 4, 53, 40
6, 88752, Note_on_c, 4, 53, 0
6, 88800, Note_on_c, 4, 57, 40
6, 88896, Note_on_c, 4, 57, 0
6, 88920, Note_on_c, 4, 50, 40
6, 89112, Note_on_c, 4, 50, 0
6, 89160, Note_on_c, 4, 55, 40
6, 89256, Note_on_c, 4, 55, 0
6, 89280, Note_on_c, 4, 48, 40
6, 89472, Note_on_c, 4, 48, 0
6, 89520, Note_on_c, 4, 36, 40
6, 89616, Note_on_c, 4, 36, 0
6, 89640, Note_on_c, 4, 38, 40
6, 89832, Note_on_c, 4, 38, 0
6, 89880, Note_on_c, 4, 50, 40
6, 89976, Note_on_c, 4, 50, 0
6, 90000, Note_on_c, 4, 52, 40
6, 90192, Note_on_c, 4, 52, 0
6, 90240, Note_on_c, 4, 40, 40
6, 90336, Note_on_c, 4, 40, 0
6, 90360, Note_on_c, 4, 41, 40
6, 90552, Note_on_c, 4, 41, 0
6, 90600, Note_on_c, 4, 53, 40
6, 90696, Note_on_c, 4, 53, 0
6, 90720, Note_on_c, 4, 53, 40
6, 90720, Note_on_c, 4, 55, 40
6, 90912, Note_on_c, 4, 55, 0
6, 90912, Note_on_c, 4, 53, 0
6, 90960, Note_on_c, 4, 52, 40
6, 90960, Note_on_c, 4, 55, 40
6, 91056, Note_on_c, 4, 55, 0
6, 91056, Note_on_c, 4, 52, 0
6, 91080, Note_on_c, 4, 62, 40
6, 91080, Note_on_c, 4, 50, 40
6, 91272, Note_on_c, 4, 50, 0
6, 91272, Note_on_c, 4, 62, 0
6, 91320, Note_on_c, 4, 59, 40
6, 91320, Note_on_c, 4, 55, 40
6, 91416, Note_on_c, 4, 55, 0
6, 91416, Note_on_c, 4, 59, 0
6, 91440, Note_on_c, 4, 48, 40
6, 91440, Note_on_c, 4, 55, 40
6, 91632, Note_on_c, 4, 55, 0
6, 91632, Note_on_c, 4, 48, 0
6, 91680, Note_on_c, 4, 46, 40
6, 91776, Note_on_c, 4, 46, 0
6, 91800, Note_on_c, 4, 45, 40
6, 91992, Note_on_c, 4, 45, 0
6, 92040, Note_on_c, 4, 57, 40
6, 92040, Note_on_c, 4, 53, 40
6, 92136, Note_on_c, 4, 53, 0
6, 92136, Note_on_c, 4, 57, 0
6, 92160, Note_on_c, 4, 46, 40
6, 92160, Note_on_c, 4, 58, 40
6, 92352, Note_on_c, 4, 58, 0
6, 92352, Note_on_c, 4, 46, 0
6, 92400, Note_on_c, 4, 45, 40
6, 92496, Note_on_c, 4, 45, 0
6, 92520, Note_on_c, 4, 43, 40
6, 92712, Note_on_c, 4, 43, 0
6, 92760, Note_on_c, 4, 55, 40
6, 92760, Note_on_c, 4, 52, 40
6, 92856, Note_on_c, 4, 52, 0
6, 92856, Note_on_c, 4, 55, 0
6, 92880, Note_on_c, 4, 57, 40
6, 92880, Note_on_c, 4, 45, 40
6, 93072, Note_on_c, 4, 45, 0
6, 93072, Note_on_c, 4, 57, 0
6, 93120, Note_on_c, 4, 43, 40
6, 93216, Note_on_c, 4, 43, 0
6, 93240, Note_on_c, 4, 41, 40
6, 93432, Note_on_c, 4, 41, 0
6, 93480, Note_on_c, 4, 50, 40
6, 93480, Note_on_c, 4, 53, 40
6, 93576, Note_on_c, 4, 53, 0
6, 93576, Note_on_c, 4, 50, 0
6, 93600, Note_on_c, 4, 43, 40
6, 93600, Note_on_c, 4, 55, 40
6, 93792, Note_on_c, 4, 55, 0
6, 93792, Note_on_c, 4, 43, 0
6, 93840, Note_on_c, 4, 41, 40
6, 93936, Note_on_c, 4, 41, 0
6, 93960, Note_on_c, 4, 40, 40
6, 94152, Note_on_c, 4, 40, 0
6, 94200, Note_on_c, 4, 36, 40
6, 94296, Note_on_c, 4, 36, 0
6, 94320, Note_on_c, 4, 41, 40
6, 94512, Note_on_c, 4, 41, 0
6, 94560, Note_on_c, 4, 46, 40
6, 94656, Note_on_c, 4, 46, 0
6, 94680, Note_on_c, 4, 40, 40
6, 94872, Note_on_c, 4, 40, 0
6, 94920, Note_on_c, 4, 45, 40
6, 95016, Note_on_c, 4, 45, 0
6, 95040, Note_on_c, 4, 50, 40
6, 95232, Note_on_c, 4, 50, 0
6, 95280, Note_on_c, 4, 38, 40
6, 95376, Note_on_c, 4, 38, 0
6, 95400, Note_on_c, 4, 40, 40
6, 95592, Note_on_c, 4, 40, 0
6, 95640, Note_on_c, 4, 52, 40
6, 95736, Note_on_c, 4, 52, 0
6, 95760, Note_on_c, 4, 53, 40
6, 95952, Note_on_c, 4, 53, 0
6, 96000, Note_on_c, 4, 41, 40
6, 96096, Note_on_c, 4, 41, 0
6, 96120, Note_on_c, 4, 43, 40
6, 96312, Note_on_c, 4, 43, 0
6, 96360, Note_on_c, 4, 55, 40
6, 96456, Note_on_c, 4, 55, 0
6, 96480, Note_on_c, 4, 55, 40
6, 96672, Note_on_c, 4, 55, 0
6, 96720, Note_on_c, 4, 57, 40
6, 96720, Note_on_c, 4, 53, 40
6, 96816, Note_on_c, 4, 53, 0
6, 96816, Note_on_c, 4, 57, 0
6, 96840, Note_on_c, 4, 52, 40
6, 96840, Note_on_c, 4, 64, 40
6, 97032, Note_on_c, 4, 64, 0
6, 97032, Note_on_c, 4, 52, 0
6, 97080, Note_on_c, 4, 57, 40
6, 97080, Note_on_c, 4, 61, 40
6, 97176, Note_on_c, 4, 61, 0
6, 97176, Note_on_c, 4, 57, 0
6, 97200, Note_on_c, 4, 57, 40
6, 97200, Note_on_c, 4, 50, 40
6, 97392, Note_on_c, 4, 50, 0
6, 97392, Note_on_c, 4, 57, 0
6, 97440, Note_on_c, 4, 62, 40
6, 97536, Note_on_c, 4, 62, 0
6, 97560, Note_on_c, 4, 54, 40
6, 97752, Note_on_c, 4, 54, 0
6, 97800, Note_on_c, 4, 50, 40
6, 97896, Note_on_c, 4, 50, 0
6, 97920, Note_on_c, 4, 55, 40
6, 98112, Note_on_c, 4, 55, 0
6, 98160, Note_on_c, 4, 63, 40
6, 98256, Note_on_c, 4, 63, 0
6, 98280, Note_on_c, 4, 55, 40
6, 98472, Note_on_c, 4, 55, 0
6, 98520, Note_on_c, 4, 51, 40
6, 98616, Note_on_c, 4, 51, 0
6, 98640, Note_on_c, 4, 57, 40
6, 98832, Note_on_c, 4, 57, 0
6, 98880, Note_on_c, 4, 65, 40
6, 98976, Note_on_c, 4, 65, 0
6, 99000, Note_on_c, 4, 57, 40
6, 99192, Note_on_c, 4, 57, 0
6, 99240, Note_on_c, 4, 53, 40
6, 99336, Note_on_c, 4, 53, 0
6, 99360, Note_on_c, 4, 58, 40
6, 99552, Note_on_c, 4, 58, 0
6, 99600, Note_on_c, 4, 46, 40
6, 99696, Note_on_c, 4, 46, 0
6, 99720, Note_on_c, 4, 48, 40
6, 99912, Note_on_c, 4, 48, 0
6, 99960, Note_on_c, 4, 60, 40
6, 100056, Note_on_c, 4, 60, 0
6, 100080, Note_on_c, 4, 62, 40
6, 100272, Note_on_c, 4, 62, 0
6, 100320, Note_on_c, 4, 50, 40
6, 100416, Note_on_c, 4, 50, 0
6, 100440, Note_on_c, 4, 51, 40
6, 100632, Note_on_c, 4, 51, 0
6, 100680, Note_on_c, 4, 63, 40
6, 100776, Note_on_c, 4, 63, 0
6, 100800, Note_on_c, 4, 63, 40
6, 100992, Note_on_c, 4, 63, 0
6, 101040, Note_on_c, 4, 62, 40
6, 101136, Note_on_c, 4, 62, 0
6, 101160, Note_on_c, 4, 60, 40
6, 101352, Note_on_c, 4, 60, 0
6, 101400, Note_on_c, 4, 57, 40
6, 101400, Note_on_c, 4, 53, 40
6, 101496, Note_on_c, 4, 53, 0
6, 101496, Note_on_c, 4, 57, 0
6, 101520, Note_on_c, 4, 58, 40
6, 101712, Note_on_c, 4, 58, 0
6, 101760, Note_on_c, 4, 62, 40
6, 101856, Note_on_c, 4, 62, 0
6, 101880, Note_on_c, 4, 55, 40
6, 102072, Note_on_c, 4, 55, 0
6, 102120, Note_on_c, 4, 57, 40
6, 102216, Note_on_c, 4, 57, 0
6, 102240, Note_on_c, 4, 53, 40
6, 102432, Note_on_c, 4, 53, 0
6, 102480, Note_on_c, 4, 41, 40
6, 102576, Note_on_c, 4, 41, 0
6, 102600, Note_on_c, 4, 43, 40
6, 102792, Note_on_c, 4, 43, 0
6, 102840, Note_on_c, 4, 55, 40
6, 102936, Note_on_c, 4, 55, 0
6, 102960, Note_on_c, 4, 57, 40
6, 103152, Note_on_c, 4, 57, 0
6, 103200, Note_on_c, 4, 45, 40
6, 103296, Note_on_c, 4, 45, 0
6, 103320, Note_on_c, 4, 46, 40
6, 103512, Note_on_c, 4, 46, 0
6, 103560, Note_on_c, 4, 58, 40
6, 103656, Note_on_c, 4, 58, 0
6, 103680, Note_on_c, 4, 58, 40
6, 103872, Note_on_c, 4, 58, 0
6, 103920, Note_on_c, 4, 57, 40
6, 103920, Note_on_c, 4, 65, 40
6, 104016, Note_on_c, 4, 65, 0
6, 104016, Note_on_c, 4, 57, 0
6, 104040, Note_on_c, 4, 55, 40
6, 104232, Note_on_c, 4, 55, 0
6, 104280, Note_on_c, 4, 48, 40
6, 104376, Note_on_c, 4, 48, 0
6, 104400, Note_on_c, 4, 60, 40
6, 104400, Note_on_c, 4, 53, 40
6, 104592, Note_on_c, 4, 53, 0
6, 104592, Note_on_c, 4, 60, 0
6, 104640, Note_on_c, 4, 55, 40
6, 104736, Note_on_c, 4, 55, 0
6, 104760, Note_on_c, 4, 57, 40
6, 104952, Note_on_c, 4, 57, 0
6, 105000, Note_on_c, 4, 53, 40
6, 105000, Note_on_c, 4, 65, 40
6, 105000, Note_on_c, 4, 57, 40
6, 105096, Note_on_c, 4, 57, 0
6, 105096, Note_on_c, 4, 65, 0
6, 105096, Note_on_c, 4, 53, 0
6, 105120, Note_on_c, 4, 65, 40
6, 105120, Note_on_c, 4, 58, 40
6, 105312, Note_on_c, 4, 58, 0
6, 105312, Note_on_c, 4, 65, 0
6, 105360, Note_on_c, 4, 57, 40
6, 105456, Note_on_c, 4, 57, 0
6, 105480, Note_on_c, 4, 55, 40
6, 105672, Note_on_c, 4, 55, 0
6, 105720, Note_on_c, 4, 55, 40
6, 105720, Note_on_c, 4, 64, 40
6, 105720, Note_on_c, 4, 52, 40
6, 105816, Note_on_c, 4, 52, 0
6, 105816, Note_on_c, 4, 64, 0
6, 105816, Note_on_c, 4, 55, 0
6, 105840, Note_on_c, 4, 57, 40
6, 105840, Note_on_c, 4, 64, 40
6, 106032, Note_on_c, 4, 64, 0
6, 106032, Note_on_c, 4, 57, 0
6, 106080, Note_on_c, 4, 55, 40
6, 106176, Note_on_c, 4, 55, 0
6, 106200, Note_on_c, 4, 53, 40
6, 106392, Note_on_c, 4, 53, 0
6, 106440, Note_on_c, 4, 62, 40
6, 106440, Note_on_c, 4, 50, 40
6, 106440, Note_on_c, 4, 53, 40
6, 106536, Note_on_c, 4, 53, 0
6, 106536, Note_on_c, 4, 50, 0
6, 106536, Note_on_c, 4, 62, 0
6, 106560, Note_on_c, 4, 62, 40
6, 106560, Note_on_c, 4, 55, 40
6, 106752, Note_on_c, 4, 55, 0
6, 106752, Note_on_c, 4, 62, 0
6, 106800, Note_on_c, 4, 53, 40
6, 106896, Note_on_c, 4, 53, 0
6, 106920, Note_on_c, 4, 52, 40
6, 107112, Note_on_c, 4, 52, 0
6, 107160, Note_on_c, 4, 60, 40
6, 107160, Note_on_c, 4, 52, 40
6, 107160, Note_on_c, 4, 48, 40
6, 107256, Note_on_c, 4, 48, 0
6, 107256, Note_on_c, 4, 52, 0
6, 107256, Note_on_c, 4, 60, 0
6, 107280, Note_on_c, 4, 60, 40
6, 107280, Note_on_c, 4, 53, 40
6, 107472, Note_on_c, 4, 53, 0
6, 107472, Note_on_c, 4, 60, 0
6, 107520, Note_on_c, 4, 53, 44
6, 107520, Note_on_c, 4, 50, 44
6, 107616, Note_on_c, 4, 50, 0
6, 107616, Note_on_c, 4, 53, 0
6, 107640, Note_on_c, 4, 48, 50
6, 107640, Note_on_c, 4, 60, 50
6, 107832, Note_on_c, 4, 60, 0
6, 107832, Note_on_c, 4, 48, 0
6, 107880, Note_on_c, 4, 36, 62
6, 107976, Note_on_c, 4, 36, 0
6, 108000, Note_on_c, 4, 41, 68
6, 108192, Note_on_c, 4, 41, 0
6, 108240, Note_on_c, 4, 53, 22
6, 108336, Note_on_c, 4, 53, 0
6, 108360, Note_on_c, 4, 53, 22
6, 108552, Note_on_c, 4, 53, 0
6, 108600, Note_on_c, 4, 41, 22
6, 108696, Note_on_c, 4, 41, 0
6, 108720, Note_on_c, 4, 41, 22
6, 108912, Note_on_c, 4, 41, 0
6, 108960, Note_on_c, 4, 53, 22
6, 109056, Note_on_c, 4, 53, 0
6, 109080, Note_on_c, 4, 53, 22
6, 109272, Note_on_c, 4, 53, 0
6, 109320, Note_on_c, 4, 41, 22
6, 109416, Note_on_c, 4, 41, 0
6, 109440, Note_on_c, 4, 41, 22
6, 109632, Note_on_c, 4, 41, 0
6, 109800, Note_on_c, 4, 53, 40
6, 109992, Note_on_c, 4, 53, 0
6, 110160, Note_on_c, 4, 41, 40
6, 110352, Note_on_c, 4, 41, 0
6, 110520, Note_on_c, 4, 53, 40
6, 110712, Note_on_c, 4, 53, 0
6, 110880, Note_on_c, 4, 41, 40
6, 111072, Note_on_c, 4, 41, 0
6, 111240, Note_on_c, 4, 53, 40
6, 111432, Note_on_c, 4, 53, 0
6, 111600, Note_on_c, 4, 53, 40
6, 111600, Note_on_c, 4, 41, 40
6, 111696, Note_on_c, 4, 41, 0
6, 111720, Note_on_c, 4, 43, 40
6, 111816, Note_on_c, 4, 43, 0
6, 111840, Note_on_c, 4, 45, 40
6, 111936, Note_on_c, 4, 45, 0
6, 111936, Note_on_c, 4, 53, 0
6, 111960, Note_on_c, 4, 38, 40
6, 112152, Note_on_c, 4, 38, 0
6, 112200, Note_on_c, 4, 43, 40
6, 112296, Note_on_c, 4, 43, 0
6, 112320, Note_on_c, 4, 48, 40
6, 112512, Note_on_c, 4, 48, 0
6, 112560, Note_on_c, 4, 50, 40
6, 112656, Note_on_c, 4, 50, 0
6, 112680, Note_on_c, 4, 52, 40
6, 112872, Note_on_c, 4, 52, 0
6, 112920, Note_on_c, 4, 48, 40
6, 113016, Note_on_c, 4, 48, 0
6, 113040, Note_on_c, 4, 53, 40
6, 113232, Note_on_c, 4, 53, 0
6, 113280, Note_on_c, 4, 52, 40
6, 113376, Note_on_c, 4, 52, 0
6, 113400, Note_on_c, 4, 50, 40
6, 113592, Note_on_c, 4, 50, 0
6, 113640, Note_on_c, 4, 47, 40
6, 113736, Note_on_c, 4, 47, 0
6, 113760, Note_on_c, 4, 52, 40
6, 113952, Note_on_c, 4, 52, 0
6, 114000, Note_on_c, 4, 50, 40
6, 114096, Note_on_c, 4, 50, 0
6, 114120, Note_on_c, 4, 48, 40
6, 114312, Note_on_c, 4, 48, 0
6, 114360, Note_on_c, 4, 45, 40
6, 114456, Note_on_c, 4, 45, 0
6, 114480, Note_on_c, 4, 50, 40
6, 114672, Note_on_c, 4, 50, 0
6, 114720, Note_on_c, 4, 48, 40
6, 114816, Note_on_c, 4, 48, 0
6, 114840, Note_on_c, 4, 47, 40
6, 115032, Note_on_c, 4, 47, 0
6, 115080, Note_on_c, 4, 43, 40
6, 115176, Note_on_c, 4, 43, 0
6, 115200, Note_on_c, 4, 48, 40
6, 115392, Note_on_c, 4, 48, 0
6, 115440, Note_on_c, 4, 60, 20
6, 115536, Note_on_c, 4, 60, 0
6, 115560, Note_on_c, 4, 60, 20
6, 115752, Note_on_c, 4, 60, 0
6, 115800, Note_on_c, 4, 48, 20
6, 115896, Note_on_c, 4, 48, 0
6, 115920, Note_on_c, 4, 48, 20
6, 116112, Note_on_c, 4, 48, 0
6, 116160, Note_on_c, 4, 60, 20
6, 116256, Note_on_c, 4, 60, 0
6, 116280, Note_on_c, 4, 60, 20
6, 116472, Note_on_c, 4, 60, 0
6, 116520, Note_on_c, 4, 48, 20
6, 116616, Note_on_c, 4, 48, 0
6, 116640, Note_on_c, 4, 48, 20
6, 116832, Note_on_c, 4, 48, 0
6, 117000, Note_on_c, 4, 60, 40
6, 117192, Note_on_c, 4, 60, 0
6, 117360, Note_on_c, 4, 48, 40
6, 117552, Note_on_c, 4, 48, 0
6, 117720, Note_on_c, 4, 60, 40
6, 117912, Note_on_c, 4, 60, 0
6, 118080, Note_on_c, 4, 48, 40
6, 118272, Note_on_c, 4, 48, 0
6, 118440, Note_on_c, 4, 60, 40
6, 118632, Note_on_c, 4, 60, 0
6, 118800, Note_on_c, 4, 60, 40
6, 118800, Note_on_c, 4, 48, 40
6, 118896, Note_on_c, 4, 48, 0
6, 118920, Note_on_c, 4, 50, 40
6, 119016, Note_on_c, 4, 50, 0
6, 119040, Note_on_c, 4, 52, 40
6, 119136, Note_on_c, 4, 52, 0
6, 119136, Note_on_c, 4, 60, 0
6, 119160, Note_on_c, 4, 45, 40
6, 119352, Note_on_c, 4, 45, 0
6, 119400, Note_on_c, 4, 50, 40
6, 119496, Note_on_c, 4, 50, 0
6, 119520, Note_on_c, 4, 43, 40
6, 119616, Note_on_c, 4, 43, 0
6, 119640, Note_on_c, 4, 55, 40
6, 119736, Note_on_c, 4, 55, 0
6, 119760, Note_on_c, 4, 53, 40
6, 119856, Note_on_c, 4, 53, 0
6, 119880, Note_on_c, 4, 52, 40
6, 120072, Note_on_c, 4, 52, 0
6, 120120, Note_on_c, 4, 60, 40
6, 120216, Note_on_c, 4, 60, 0
6, 120240, Note_on_c, 4, 50, 40
6, 120432, Note_on_c, 4, 50, 0
6, 120480, Note_on_c, 4, 59, 40
6, 120576, Note_on_c, 4, 59, 0
6, 120600, Note_on_c, 4, 48, 40
6, 120792, Note_on_c, 4, 48, 0
6, 120840, Note_on_c, 4, 60, 40
6, 120936, Note_on_c, 4, 60, 0
6, 120960, Note_on_c, 4, 55, 40
6, 121152, Note_on_c, 4, 55, 0
6, 121200, Note_on_c, 4, 43, 40
6, 121296, Note_on_c, 4, 43, 0
6, 121320, Note_on_c, 4, 44, 40
6, 121512, Note_on_c, 4, 44, 0
6, 121560, Note_on_c, 4, 40, 40
6, 121656, Note_on_c, 4, 40, 0
6, 121680, Note_on_c, 4, 45, 40
6, 121872, Note_on_c, 4, 45, 0
6, 121920, Note_on_c, 4, 53, 40
6, 122016, Note_on_c, 4, 53, 0
6, 122040, Note_on_c, 4, 45, 40
6, 122232, Note_on_c, 4, 45, 0
6, 122280, Note_on_c, 4, 41, 40
6, 122376, Note_on_c, 4, 41, 0
6, 122400, Note_on_c, 4, 47, 40
6, 122592, Note_on_c, 4, 47, 0
6, 122640, Note_on_c, 4, 55, 40
6, 122736, Note_on_c, 4, 55, 0
6, 122760, Note_on_c, 4, 47, 40
6, 122952, Note_on_c, 4, 47, 0
6, 123000, Note_on_c, 4, 43, 40
6, 123096, Note_on_c, 4, 43, 0
6, 123120, Note_on_c, 4, 48, 40
6, 123216, Note_on_c, 4, 48, 0
6, 123240, Note_on_c, 4, 60, 40
6, 123336, Note_on_c, 4, 60, 0
6, 123360, Note_on_c, 4, 58, 40
6, 123456, Note_on_c, 4, 58, 0
6, 123480, Note_on_c, 4, 57, 40
6, 123672, Note_on_c, 4, 57, 0
6, 123720, Note_on_c, 4, 65, 40
6, 123816, Note_on_c, 4, 65, 0
6, 123840, Note_on_c, 4, 55, 40
6, 124032, Note_on_c, 4, 55, 0
6, 124080, Note_on_c, 4, 64, 40
6, 124176, Note_on_c, 4, 64, 0
6, 124200, Note_on_c, 4, 53, 40
6, 124392, Note_on_c, 4, 53, 0
6, 124440, Note_on_c, 4, 65, 40
6, 124536, Note_on_c, 4, 65, 0
6, 124560, Note_on_c, 4, 60, 40
6, 124752, Note_on_c, 4, 60, 0
6, 124800, Note_on_c, 4, 48, 40
6, 124896, Note_on_c, 4, 48, 0
6, 124920, Note_on_c, 4, 49, 40
6, 125112, Note_on_c, 4, 49, 0
6, 125160, Note_on_c, 4, 45, 40
6, 125256, Note_on_c, 4, 45, 0
6, 125280, Note_on_c, 4, 50, 40
6, 125472, Note_on_c, 4, 50, 0
6, 125520, Note_on_c, 4, 58, 40
6, 125616, Note_on_c, 4, 58, 0
6, 125640, Note_on_c, 4, 50, 40
6, 125832, Note_on_c, 4, 50, 0
6, 125880, Note_on_c, 4, 46, 40
6, 125976, Note_on_c, 4, 46, 0
6, 126000, Note_on_c, 4, 52, 40
6, 126192, Note_on_c, 4, 52, 0
6, 126240, Note_on_c, 4, 60, 40
6, 126336, Note_on_c, 4, 60, 0
6, 126360, Note_on_c, 4, 52, 40
6, 126552, Note_on_c, 4, 52, 0
6, 126600, Note_on_c, 4, 48, 40
6, 126696, Note_on_c, 4, 48, 0
6, 126720, Note_on_c, 4, 53, 40
6, 126816, Note_on_c, 4, 53, 0
6, 126840, Note_on_c, 4, 53, 40
6, 126936, Note_on_c, 4, 53, 0
6, 126960, Note_on_c, 4, 53, 40
6, 127056, Note_on_c, 4, 53, 0
6, 127080, Note_on_c, 4, 51, 40
6, 127176, Note_on_c, 4, 51, 0
6, 127200, Note_on_c, 4, 51, 40
6, 127296, Note_on_c, 4, 51, 0
6, 127320, Note_on_c, 4, 51, 40
6, 127416, Note_on_c, 4, 51, 0
6, 127440, Note_on_c, 4, 50, 40
6, 127632, Note_on_c, 4, 50, 0
6, 127680, Note_on_c, 4, 38, 40
6, 127776, Note_on_c, 4, 38, 0
6, 127800, Note_on_c, 4, 38, 40
6, 127992, Note_on_c, 4, 38, 0
6, 128040, Note_on_c, 4, 50, 40
6, 128136, Note_on_c, 4, 50, 0
6, 128160, Note_on_c, 4, 55, 40
6, 128256, Note_on_c, 4, 55, 0
6, 128280, Note_on_c, 4, 55, 40
6, 128376, Note_on_c, 4, 55, 0
6, 128400, Note_on_c, 4, 55, 40
6, 128496, Note_on_c, 4, 55, 0
6, 128520, Note_on_c, 4, 53, 40
6, 128616, Note_on_c, 4, 53, 0
6, 128640, Note_on_c, 4, 53, 40
6, 128736, Note_on_c, 4, 53, 0
6, 128760, Note_on_c, 4, 53, 40
6, 128856, Note_on_c, 4, 53, 0
6, 128880, Note_on_c, 4, 52, 40
6, 129072, Note_on_c, 4, 52, 0
6, 129120, Note_on_c, 4, 40, 40
6, 129216, Note_on_c, 4, 40, 0
6, 129240, Note_on_c, 4, 40, 40
6, 129432, Note_on_c, 4, 40, 0
6, 129480, Note_on_c, 4, 52, 40
6, 129576, Note_on_c, 4, 52, 0
6, 129600, Note_on_c, 4, 57, 50
6, 129792, Note_on_c, 4, 57, 0
6, 129840, Note_on_c, 4, 45, 50
6, 129936, Note_on_c, 4, 45, 0
6, 129960, Note_on_c, 4, 47, 50
6, 130152, Note_on_c, 4, 47, 0
6, 130200, Note_on_c, 4, 59, 50
6, 130296, Note_on_c, 4, 59, 0
6, 130320, Note_on_c, 4, 60, 50
6, 130512, Note_on_c, 4, 60, 0
6, 130560, Note_on_c, 4, 48, 50
6, 130656, Note_on_c, 4, 48, 0
6, 130680, Note_on_c, 4, 50, 50
6, 130872, Note_on_c, 4, 50, 0
6, 130920, Note_on_c, 4, 62, 50
6, 131016, Note_on_c, 4, 62, 0
6, 131040, Note_on_c, 4, 62, 50
6, 131232, Note_on_c, 4, 62, 0
6, 131280, Note_on_c, 4, 60, 50
6, 131376, Note_on_c, 4, 60, 0
6, 131400, Note_on_c, 4, 59, 50
6, 131592, Note_on_c, 4, 59, 0
6, 131640, Note_on_c, 4, 52, 50
6, 131736, Note_on_c, 4, 52, 0
6, 131760, Note_on_c, 4, 57, 50
6, 131952, Note_on_c, 4, 57, 0
6, 132000, Note_on_c, 4, 53, 50
6, 132096, Note_on_c, 4, 53, 0
6, 132120, Note_on_c, 4, 52, 50
6, 132312, Note_on_c, 4, 52, 0
6, 132360, Note_on_c, 4, 45, 50
6, 132456, Note_on_c, 4, 45, 0
6, 132480, Note_on_c, 4, 50, 50
6, 132672, Note_on_c, 4, 50, 0
6, 132720, Note_on_c, 4, 38, 50
6, 132816, Note_on_c, 4, 38, 0
6, 132840, Note_on_c, 4, 40, 50
6, 133032, Note_on_c, 4, 40, 0
6, 133080, Note_on_c, 4, 52, 50
6, 133176, Note_on_c, 4, 52, 0
6, 133200, Note_on_c, 4, 53, 50
6, 133392, Note_on_c, 4, 53, 0
6, 133440, Note_on_c, 4, 41, 50
6, 133536, Note_on_c, 4, 41, 0
6, 133560, Note_on_c, 4, 43, 50
6, 133752, Note_on_c, 4, 43, 0
6, 133800, Note_on_c, 4, 55, 50
6, 133896, Note_on_c, 4, 55, 0
6, 133920, Note_on_c, 4, 57, 50
6, 133920, Note_on_c, 4, 55, 50
6, 134112, Note_on_c, 4, 55, 0
6, 134112, Note_on_c, 4, 57, 0
6, 134160, Note_on_c, 4, 57, 50
6, 134160, Note_on_c, 4, 53, 50
6, 134256, Note_on_c, 4, 53, 0
6, 134256, Note_on_c, 4, 57, 0
6, 134280, Note_on_c, 4, 64, 50
6, 134280, Note_on_c, 4, 52, 50
6, 134472, Note_on_c, 4, 52, 0
6, 134472, Note_on_c, 4, 64, 0
6, 134520, Note_on_c, 4, 57, 50
6, 134520, Note_on_c, 4, 61, 50
6, 134616, Note_on_c, 4, 61, 0
6, 134616, Note_on_c, 4, 57, 0
6, 134640, Note_on_c, 4, 62, 50
6, 134640, Note_on_c, 4, 50, 50
6, 134832, Note_on_c, 4, 50, 0
6, 134832, Note_on_c, 4, 62, 0
6, 134880, Note_on_c, 4, 38, 21
6, 134976, Note_on_c, 4, 38, 0
6, 135000, Note_on_c, 4, 38, 21
6, 135192, Note_on_c, 4, 38, 0
6, 135240, Note_on_c, 4, 50, 21
6, 135336, Note_on_c, 4, 50, 0
6, 135360, Note_on_c, 4, 50, 21
6, 135552, Note_on_c, 4, 50, 0
6, 135600, Note_on_c, 4, 38, 21
6, 135696, Note_on_c, 4, 38, 0
6, 135720, Note_on_c, 4, 38, 21
6, 135912, Note_on_c, 4, 38, 0
6, 135960, Note_on_c, 4, 50, 21
6, 136056, Note_on_c, 4, 50, 0
6, 136080, Note_on_c, 4, 50, 21
6, 136272, Note_on_c, 4, 50, 0
6, 136320, Note_on_c, 4, 62, 21
6, 136416, Note_on_c, 4, 62, 0
6, 136440, Note_on_c, 4, 54, 21
6, 136632, Note_on_c, 4, 54, 0
6, 136680, Note_on_c, 4, 50, 21
6, 136776, Note_on_c, 4, 50, 0
6, 136800, Note_on_c, 4, 55, 21
6, 136992, Note_on_c, 4, 55, 0
6, 137040, Note_on_c, 4, 63, 21
6, 137136, Note_on_c, 4, 63, 0
6, 137160, Note_on_c, 4, 55, 21
6, 137352, Note_on_c, 4, 55, 0
6, 137400, Note_on_c, 4, 51, 21
6, 137496, Note_on_c, 4, 51, 0
6, 137520, Note_on_c, 4, 57, 21
6, 137712, Note_on_c, 4, 57, 0
6, 137760, Note_on_c, 4, 65, 21
6, 137856, Note_on_c, 4, 65, 0
6, 137880, Note_on_c, 4, 57, 21
6, 138072, Note_on_c, 4, 57, 0
6, 138120, Note_on_c, 4, 53, 21
6, 138216, Note_on_c, 4, 53, 0
6, 138240, Note_on_c, 4, 58, 21
6, 138432, Note_on_c, 4, 58, 0
6, 138600, Note_on_c, 4, 46, 40
6, 138792, Note_on_c, 4, 46, 0
6, 138960, Note_on_c, 4, 58, 40
6, 139152, Note_on_c, 4, 58, 0
6, 139320, Note_on_c, 4, 46, 40
6, 139512, Note_on_c, 4, 46, 0
6, 139680, Note_on_c, 4, 58, 40
6, 139872, Note_on_c, 4, 58, 0
6, 140040, Note_on_c, 4, 46, 40
6, 140232, Note_on_c, 4, 46, 0
6, 140400, Note_on_c, 4, 58, 40
6, 140496, Note_on_c, 4, 58, 0
6, 140520, Note_on_c, 4, 58, 40
6, 140616, Note_on_c, 4, 58, 0
6, 140640, Note_on_c, 4, 58, 40
6, 140736, Note_on_c, 4, 58, 0
6, 140760, Note_on_c, 4, 56, 40
6, 140856, Note_on_c, 4, 56, 0
6, 140880, Note_on_c, 4, 56, 40
6, 140976, Note_on_c, 4, 56, 0
6, 141000, Note_on_c, 4, 56, 40
6, 141096, Note_on_c, 4, 56, 0
6, 141120, Note_on_c, 4, 55, 40
6, 141312, Note_on_c, 4, 55, 0
6, 141360, Note_on_c, 4, 43, 40
6, 141456, Note_on_c, 4, 43, 0
6, 141480, Note_on_c, 4, 43, 40
6, 141672, Note_on_c, 4, 43, 0
6, 141720, Note_on_c, 4, 55, 40
6, 141816, Note_on_c, 4, 55, 0
6, 141840, Note_on_c, 4, 60, 40
6, 141936, Note_on_c, 4, 60, 0
6, 141960, Note_on_c, 4, 60, 40
6, 142056, Note_on_c, 4, 60, 0
6, 142080, Note_on_c, 4, 60, 40
6, 142176, Note_on_c, 4, 60, 0
6, 142200, Note_on_c, 4, 58, 40
6, 142296, Note_on_c, 4, 58, 0
6, 142320, Note_on_c, 4, 58, 40
6, 142416, Note_on_c, 4, 58, 0
6, 142440, Note_on_c, 4, 58, 40
6, 142536, Note_on_c, 4, 58, 0
6, 142560, Note_on_c, 4, 57, 40
6, 142752, Note_on_c, 4, 57, 0
6, 142800, Note_on_c, 4, 45, 38
6, 142896, Note_on_c, 4, 45, 0
6, 142920, Note_on_c, 4, 45, 38
6, 143112, Note_on_c, 4, 45, 0
6, 143160, Note_on_c, 4, 57, 39
6, 143256, Note_on_c, 4, 57, 0
6, 143280, Note_on_c, 4, 62, 40
6, 143472, Note_on_c, 4, 62, 0
6, 143520, Note_on_c, 4, 50, 40
6, 143616, Note_on_c, 4, 50, 0
6, 143640, Note_on_c, 4, 52, 41
6, 143832, Note_on_c, 4, 52, 0
6, 143880, Note_on_c, 4, 48, 41
6, 143976, Note_on_c, 4, 48, 0
6, 144000, Note_on_c, 4, 53, 42
6, 144192, Note_on_c, 4, 53, 0
6, 144240, Note_on_c, 4, 41, 42
6, 144336, Note_on_c, 4, 41, 0
6, 144360, Note_on_c, 4, 43, 43
6, 144552, Note_on_c, 4, 43, 0
6, 144600, Note_on_c, 4, 55, 44
6, 144696, Note_on_c, 4, 55, 0
6, 144720, Note_on_c, 4, 57, 44
6, 144912, Note_on_c, 4, 57, 0
6, 144960, Note_on_c, 4, 45, 45
6, 145056, Note_on_c, 4, 45, 0
6, 145080, Note_on_c, 4, 46, 45
6, 145272, Note_on_c, 4, 46, 0
6, 145320, Note_on_c, 4, 58, 46
6, 145416, Note_on_c, 4, 58, 0
6, 145440, Note_on_c, 4, 58, 46
6, 145440, Note_on_c, 4, 60, 46
6, 145632, Note_on_c, 4, 60, 0
6, 145632, Note_on_c, 4, 58, 0
6, 145680, Note_on_c, 4, 60, 47
6, 145680, Note_on_c, 4, 57, 47
6, 145776, Note_on_c, 4, 57, 0
6, 145776, Note_on_c, 4, 60, 0
6, 145800, Note_on_c, 4, 62, 47
6, 145800, Note_on_c, 4, 55, 47
6, 145992, Note_on_c, 4, 55, 0
6, 145992, Note_on_c, 4, 62, 0
6, 146040, Note_on_c, 4, 60, 48
6, 146136, Note_on_c, 4, 60, 0
6, 146160, Note_on_c, 4, 53, 48
6, 146352, Note_on_c, 4, 53, 0
6, 146400, Note_on_c, 4, 57, 49
6, 146496, Note_on_c, 4, 57, 0
6, 146520, Note_on_c, 4, 50, 49
6, 146712, Note_on_c, 4, 50, 0
6, 146760, Note_on_c, 4, 55, 50
6, 146856, Note_on_c, 4, 55, 0
6, 146880, Note_on_c, 4, 48, 50
6, 147072, Note_on_c, 4, 48, 0
6, 147120, Note_on_c, 4, 36, 40
6, 147216, Note_on_c, 4, 36, 0
6, 147240, Note_on_c, 4, 38, 40
6, 147432, Note_on_c, 4, 38, 0
6, 147480, Note_on_c, 4, 50, 40
6, 147576, Note_on_c, 4, 50, 0
6, 147600, Note_on_c, 4, 52, 40
6, 147792, Note_on_c, 4, 52, 0
6, 147840, Note_on_c, 4, 40, 40
6, 147936, Note_on_c, 4, 40, 0
6, 147960, Note_on_c, 4, 41, 40
6, 148152, Note_on_c, 4, 41, 0
6, 148200, Note_on_c, 4, 53, 40
6, 148296, Note_on_c, 4, 53, 0
6, 148320, Note_on_c, 4, 53, 40
6, 148320, Note_on_c, 4, 55, 40
6, 148512, Note_on_c, 4, 55, 0
6, 148512, Note_on_c, 4, 53, 0
6, 148560, Note_on_c, 4, 55, 40
6, 148560, Note_on_c, 4, 52, 40
6, 148656, Note_on_c, 4, 52, 0
6, 148656, Note_on_c, 4, 55, 0
6, 148680, Note_on_c, 4, 62, 40
6, 148680, Note_on_c, 4, 50, 40
6, 148872, Note_on_c, 4, 50, 0
6, 148872, Note_on_c, 4, 62, 0
6, 148920, Note_on_c, 4, 55, 40
6, 148920, Note_on_c, 4, 59, 40
6, 149016, Note_on_c, 4, 59, 0
6, 149016, Note_on_c, 4, 55, 0
6, 149040, Note_on_c, 4, 48, 40
6, 149040, Note_on_c, 4, 55, 40
6, 149232, Note_on_c, 4, 55, 0
6, 149232, Note_on_c, 4, 48, 0
6, 149280, Note_on_c, 4, 46, 40
6, 149376, Note_on_c, 4, 46, 0
6, 149400, Note_on_c, 4, 45, 40
6, 149592, Note_on_c, 4, 45, 0
6, 149640, Note_on_c, 4, 53, 40
6, 149640, Note_on_c, 4, 57, 40
6, 149736, Note_on_c, 4, 57, 0
6, 149736, Note_on_c, 4, 53, 0
6, 149760, Note_on_c, 4, 46, 40
6, 149760, Note_on_c, 4, 58, 40
6, 149952, Note_on_c, 4, 58, 0
6, 149952, Note_on_c, 4, 46, 0
6, 150000, Note_on_c, 4, 45, 40
6, 150096, Note_on_c, 4, 45, 0
6, 150120, Note_on_c, 4, 43, 40
6, 150312, Note_on_c, 4, 43, 0
6, 150360, Note_on_c, 4, 55, 40
6, 150360, Note_on_c, 4, 52, 40
6, 150456, Note_on_c, 4, 52, 0
6, 150456, Note_on_c, 4, 55, 0
6, 150480, Note_on_c, 4, 45, 40
6, 150480, Note_on_c, 4, 57, 40
6, 150672, Note_on_c, 4, 57, 0
6, 150672, Note_on_c, 4, 45, 0
6, 150720, Note_on_c, 4, 43, 40
6, 150816, Note_on_c, 4, 43, 0
6, 150840, Note_on_c, 4, 41, 40
6, 151032, Note_on_c, 4, 41, 0
6, 151080, Note_on_c, 4, 50, 40
6, 151080, Note_on_c, 4, 53, 40
6, 151176, Note_on_c, 4, 53, 0
6, 151176, Note_on_c, 4, 50, 0
6, 151200, Note_on_c, 4, 55, 40
6, 151200, Note_on_c, 4, 43, 40
6, 151392, Note_on_c, 4, 43, 0
6, 151392, Note_on_c, 4, 55, 0
6, 151440, Note_on_c, 4, 41, 40
6, 151536, Note_on_c, 4, 41, 0
6, 151560, Note_on_c, 4, 40, 40
6, 151752, Note_on_c, 4, 40, 0
6, 151800, Note_on_c, 4, 36, 40
6, 151896, Note_on_c, 4, 36, 0
6, 151920, Note_on_c, 4, 41, 40
6, 152112, Note_on_c, 4, 41, 0
6, 152160, Note_on_c, 4, 53, 40
6, 152256, Note_on_c, 4, 53, 0
6, 152280, Note_on_c, 4, 53, 40
6, 152472, Note_on_c, 4, 53, 0
6, 152520, Note_on_c, 4, 41, 40
6, 152616, Note_on_c, 4, 41, 0
6, 152640, Note_on_c, 4, 41, 40
6, 152832, Note_on_c, 4, 41, 0
6, 152880, Note_on_c, 4, 53, 40
6, 152976, Note_on_c, 4, 53, 0
6, 153000, Note_on_c, 4, 53, 40
6, 153192, Note_on_c, 4, 53, 0
6, 153240, Note_on_c, 4, 41, 40
6, 153336, Note_on_c, 4, 41, 0
6, 153360, Note_on_c, 4, 41, 40
6, 153552, Note_on_c, 4, 41, 0
6, 153600, Note_on_c, 4, 53, 40
6, 153696, Note_on_c, 4, 53, 0
6, 153720, Note_on_c, 4, 57, 40
6, 153912, Note_on_c, 4, 57, 0
6, 153960, Note_on_c, 4, 57, 40
6, 153960, Note_on_c, 4, 53, 40
6, 153960, Note_on_c, 4, 65, 40
6, 154056, Note_on_c, 4, 65, 0
6, 154056, Note_on_c, 4, 53, 0
6, 154056, Note_on_c, 4, 57, 0
6, 154080, Note_on_c, 4, 58, 40
6, 154080, Note_on_c, 4, 65, 40
6, 154272, Note_on_c, 4, 65, 0
6, 154272, Note_on_c, 4, 58, 0
6, 154320, Note_on_c, 4, 57, 40
6, 154416, Note_on_c, 4, 57, 0
6, 154440, Note_on_c, 4, 55, 40
6, 154632, Note_on_c, 4, 55, 0
6, 154680, Note_on_c, 4, 52, 40
6, 154680, Note_on_c, 4, 64, 40
6, 154680, Note_on_c, 4, 55, 40
6, 154776, Note_on_c, 4, 55, 0
6, 154776, Note_on_c, 4, 64, 0
6, 154776, Note_on_c, 4, 52, 0
6, 154800, Note_on_c, 4, 64, 40
6, 154800, Note_on_c, 4, 57, 40
6, 154992, Note_on_c, 4, 57, 0
6, 154992, Note_on_c, 4, 64, 0
6, 155040, Note_on_c, 4, 55, 40
6, 155136, Note_on_c, 4, 55, 0
6, 155160, Note_on_c, 4, 53, 40
6, 155352, Note_on_c, 4, 53, 0
6, 155400, Note_on_c, 4, 53, 40
6, 155400, Note_on_c, 4, 50, 40
6, 155400, Note_on_c, 4, 62, 40
6, 155496, Note_on_c, 4, 62, 0
6, 155496, Note_on_c, 4, 50, 0
6, 155496, Note_on_c, 4, 53, 0
6, 155520, Note_on_c, 4, 62, 40
6, 155520, Note_on_c, 4, 55, 40
6, 155712, Note_on_c, 4, 55, 0
6, 155712, Note_on_c, 4, 62, 0
6, 155760, Note_on_c, 4, 53, 40
6, 155856, Note_on_c, 4, 53, 0
6, 155880, Note_on_c, 4, 52, 40
6, 156072, Note_on_c, 4, 52, 0
6, 156120, Note_on_c, 4, 48, 41
6, 156120, Note_on_c, 4, 60, 41
6, 156120, Note_on_c, 4, 52, 41
6, 156216, Note_on_c, 4, 52, 0
6, 156216, Note_on_c, 4, 60, 0
6, 156216, Note_on_c, 4, 48, 0
6, 156240, Note_on_c, 4, 53, 47
6, 156240, Note_on_c, 4, 60, 47
6, 156432, Note_on_c, 4, 60, 0
6, 156432, Note_on_c, 4, 53, 0
6, 156480, Note_on_c, 4, 53, 59
6, 156480, Note_on_c, 4, 50, 59
6, 156576, Note_on_c, 4, 50, 0
6, 156576, Note_on_c, 4, 53, 0
6, 156600, Note_on_c, 4, 48, 65
6, 156792, Note_on_c, 4, 48, 0
6, 156840, Note_on_c, 4, 36, 77
6, 156936, Note_on_c, 4, 36, 0
6, 156960, Note_on_c, 4, 41, 83
6, 157248, Note_on_c, 4, 41, 0
6, 159240, Note_on_c, 4, 50, 90
6, 159288, Note_on_c, 4, 50, 0
6, 159300, Note_on_c, 4, 52, 90
6, 159348, Note_on_c, 4, 52, 0
6, 159360, Note_on_c, 4, 53, 90
6, 159456, Note_on_c, 4, 53, 0
6, 159720, Note_on_c, 4, 57, 90
6, 159816, Note_on_c, 4, 57, 0
6, 159840, Note_on_c, 4, 50, 90
6, 159936, Note_on_c, 4, 50, 0
6, 160200, Note_on_c, 4, 49, 90
6, 160296, Note_on_c, 4, 49, 0
6, 160320, Note_on_c, 4, 50, 90
6, 160416, Note_on_c, 4, 50, 0
6, 160440, Note_on_c, 4, 52, 90
6, 160536, Note_on_c, 4, 52, 0
6, 160560, Note_on_c, 4, 53, 90
6, 160656, Note_on_c, 4, 53, 0
6, 160680, Note_on_c, 4, 52, 90
6, 160776, Note_on_c, 4, 52, 0
6, 160800, Note_on_c, 4, 53, 90
6, 160896, Note_on_c, 4, 53, 0
6, 160920, Note_on_c, 4, 50, 90
6, 161016, Note_on_c, 4, 50, 0
6, 161040, Note_on_c, 4, 46, 90
6, 161136, Note_on_c, 4, 46, 0
6, 161160, Note_on_c, 4, 58, 90
6, 161256, Note_on_c, 4, 58, 0
6, 161280, Note_on_c, 4, 57, 90
6, 161376, Note_on_c, 4, 57, 0
6, 161400, Note_on_c, 4, 45, 90
6, 161496, Note_on_c, 4, 45, 0
6, 161520, Note_on_c, 4, 49, 90
6, 161616, Note_on_c, 4, 49, 0
6, 161640, Note_on_c, 4, 52, 90
6, 161736, Note_on_c, 4, 52, 0
6, 161760, Note_on_c, 4, 57, 90
6, 161856, Note_on_c, 4, 57, 0
6, 161880, Note_on_c, 4, 55, 90
6, 161976, Note_on_c, 4, 55, 0
6, 162000, Note_on_c, 4, 54, 62
6, 162096, Note_on_c, 4, 54, 0
6, 162120, Note_on_c, 4, 54, 62
6, 162216, Note_on_c, 4, 54, 0
6, 162240, Note_on_c, 4, 54, 62
6, 162336, Note_on_c, 4, 54, 0
6, 162360, Note_on_c, 4, 55, 62
6, 162456, Note_on_c, 4, 55, 0
6, 162480, Note_on_c, 4, 48, 62
6, 162576, Note_on_c, 4, 48, 0
6, 162600, Note_on_c, 4, 46, 62
6, 162696, Note_on_c, 4, 46, 0
6, 162720, Note_on_c, 4, 45, 62
6, 162816, Note_on_c, 4, 45, 0
6, 162840, Note_on_c, 4, 43, 62
6, 162936, Note_on_c, 4, 43, 0
6, 162960, Note_on_c, 4, 42, 62
6, 163056, Note_on_c, 4, 42, 0
6, 163080, Note_on_c, 4, 43, 62
6, 163176, Note_on_c, 4, 43, 0
6, 163200, Note_on_c, 4, 55, 62
6, 163296, Note_on_c, 4, 55, 0
6, 163320, Note_on_c, 4, 53, 62
6, 163416, Note_on_c, 4, 53, 0
6, 163440, Note_on_c, 4, 52, 62
6, 163536, Note_on_c, 4, 52, 0
6, 163560, Note_on_c, 4, 44, 62
6, 163656, Note_on_c, 4, 44, 0
6, 163680, Note_on_c, 4, 44, 62
6, 163776, Note_on_c, 4, 44, 0
6, 163800, Note_on_c, 4, 45, 62
6, 163896, Note_on_c, 4, 45, 0
6, 163920, Note_on_c, 4, 50, 62
6, 164016, Note_on_c, 4, 50, 0
6, 164040, Note_on_c, 4, 48, 62
6, 164136, Note_on_c, 4, 48, 0
6, 164160, Note_on_c, 4, 47, 61
6, 164256, Note_on_c, 4, 47, 0
6, 164280, Note_on_c, 4, 45, 63
6, 164376, Note_on_c, 4, 45, 0
6, 164400, Note_on_c, 4, 44, 64
6, 164496, Note_on_c, 4, 44, 0
6, 164520, Note_on_c, 4, 45, 66
6, 164616, Note_on_c, 4, 45, 0
6, 164640, Note_on_c, 4, 57, 68
6, 164736, Note_on_c, 4, 57, 0
6, 164760, Note_on_c, 4, 55, 69
6, 164856, Note_on_c, 4, 55, 0
6, 164880, Note_on_c, 4, 53, 71
6, 164976, Note_on_c, 4, 53, 0
6, 165000, Note_on_c, 4, 50, 73
6, 165096, Note_on_c, 4, 50, 0
6, 165240, Note_on_c, 4, 50, 76
6, 165336, Note_on_c, 4, 50, 0
6, 165360, Note_on_c, 4, 55, 78
6, 165456, Note_on_c, 4, 55, 0
6, 165480, Note_on_c, 4, 53, 78
6, 165576, Note_on_c, 4, 53, 0
6, 165600, Note_on_c, 4, 52, 78
6, 165696, Note_on_c, 4, 52, 0
6, 165720, Note_on_c, 4, 50, 78
6, 165816, Note_on_c, 4, 50, 0
6, 165840, Note_on_c, 4, 49, 78
6, 165936, Note_on_c, 4, 49, 0
6, 165960, Note_on_c, 4, 45, 78
6, 166056, Note_on_c, 4, 45, 0
6, 166080, Note_on_c, 4, 57, 78
6, 166176, Note_on_c, 4, 57, 0
6, 166200, Note_on_c, 4, 45, 78
6, 166296, Note_on_c, 4, 45, 0
6, 166320, Note_on_c, 4, 50, 78
6, 166416, Note_on_c, 4, 50, 0
6, 166440, Note_on_c, 4, 55, 78
6, 166536, Note_on_c, 4, 55, 0
6, 166560, Note_on_c, 4, 53, 78
6, 166656, Note_on_c, 4, 53, 0
6, 166680, Note_on_c, 4, 41, 78
6, 166776, Note_on_c, 4, 41, 0
6, 166800, Note_on_c, 4, 40, 78
6, 166896, Note_on_c, 4, 40, 0
6, 166920, Note_on_c, 4, 52, 78
6, 167016, Note_on_c, 4, 52, 0
6, 167040, Note_on_c, 4, 45, 78
6, 167136, Note_on_c, 4, 45, 0
6, 167760, Note_on_c, 4, 45, 74
6, 167856, Note_on_c, 4, 45, 0
6, 168480, Note_on_c, 4, 45, 74
6, 168576, Note_on_c, 4, 45, 0
6, 169200, Note_on_c, 4, 50, 75
6, 169392, Note_on_c, 4, 50, 0
6, 169560, Note_on_c, 4, 62, 75
6, 169560, Note_on_c, 4, 50, 75
6, 169656, Note_on_c, 4, 50, 0
6, 169656, Note_on_c, 4, 62, 0
6, 169680, Note_on_c, 4, 55, 75
6, 169680, Note_on_c, 4, 62, 75
6, 169776, Note_on_c, 4, 62, 0
6, 169776, Note_on_c, 4, 55, 0
6, 169800, Note_on_c, 4, 62, 75
6, 169800, Note_on_c, 4, 52, 75
6, 169896, Note_on_c, 4, 52, 0
6, 169896, Note_on_c, 4, 62, 0
6, 169920, Note_on_c, 4, 53, 75
6, 169920, Note_on_c, 4, 62, 75
6, 170112, Note_on_c, 4, 62, 0
6, 170112, Note_on_c, 4, 53, 0
6, 170280, Note_on_c, 4, 50, 75
6, 170280, Note_on_c, 4, 62, 75
6, 170376, Note_on_c, 4, 62, 0
6, 170376, Note_on_c, 4, 50, 0
6, 170400, Note_on_c, 4, 53, 75
6, 170400, Note_on_c, 4, 62, 75
6, 170496, Note_on_c, 4, 62, 0
6, 170496, Note_on_c, 4, 53, 0
6, 170520, Note_on_c, 4, 62, 75
6, 170520, Note_on_c, 4, 50, 75
6, 170616, Note_on_c, 4, 50, 0
6, 170616, Note_on_c, 4, 62, 0
6, 170640, Note_on_c, 4, 52, 75
6, 170640, Note_on_c, 4, 62, 75
6, 170832, Note_on_c, 4, 62, 0
6, 170832, Note_on_c, 4, 52, 0
6, 171000, Note_on_c, 4, 58, 72
6, 171000, Note_on_c, 4, 55, 72
6, 171096, Note_on_c, 4, 55, 0
6, 171096, Note_on_c, 4, 58, 0
6, 171120, Note_on_c, 4, 57, 72
6, 171120, Note_on_c, 4, 45, 72
6, 171216, Note_on_c, 4, 45, 0
6, 171216, Note_on_c, 4, 57, 0
6, 171240, Note_on_c, 4, 49, 72
6, 171240, Note_on_c, 4, 57, 72
6, 171336, Note_on_c, 4, 57, 0
6, 171336, Note_on_c, 4, 49, 0
6, 171360, Note_on_c, 4, 50, 72
6, 171408, Note_on_c, 4, 50, 0
6, 171420, Note_on_c, 4, 62, 72
6, 171468, Note_on_c, 4, 62, 0
6, 171480, Note_on_c, 4, 60, 72
6, 171528, Note_on_c, 4, 60, 0
6, 171540, Note_on_c, 4, 58, 72
6, 171588, Note_on_c, 4, 58, 0
6, 171600, Note_on_c, 4, 57, 72
6, 171648, Note_on_c, 4, 57, 0
6, 171660, Note_on_c, 4, 55, 72
6, 171708, Note_on_c, 4, 55, 0
6, 171720, Note_on_c, 4, 53, 72
6, 171768, Note_on_c, 4, 53, 0
6, 171780, Note_on_c, 4, 52, 72
6, 171828, Note_on_c, 4, 52, 0
6, 171840, Note_on_c, 4, 50, 72
6, 171888, Note_on_c, 4, 50, 0
6, 171900, Note_on_c, 4, 53, 72
6, 171948, Note_on_c, 4, 53, 0
6, 171960, Note_on_c, 4, 52, 72
6, 172008, Note_on_c, 4, 52, 0
6, 172020, Note_on_c, 4, 50, 72
6, 172068, Note_on_c, 4, 50, 0
6, 172080, Note_on_c, 4, 49, 72
6, 172128, Note_on_c, 4, 49, 0
6, 172140, Note_on_c, 4, 43, 72
6, 172188, Note_on_c, 4, 43, 0
6, 172200, Note_on_c, 4, 47, 72
6, 172248, Note_on_c, 4, 47, 0
6, 172260, Note_on_c, 4, 49, 72
6, 172308, Note_on_c, 4, 49, 0
6, 172320, Note_on_c, 4, 50, 72
6, 172368, Note_on_c, 4, 50, 0
6, 172380, Note_on_c, 4, 52, 72
6, 172428, Note_on_c, 4, 52, 0
6, 172440, Note_on_c, 4, 53, 72
6, 172488, Note_on_c, 4, 53, 0
6, 172500, Note_on_c, 4, 55, 72
6, 172548, Note_on_c, 4, 55, 0
6, 172560, Note_on_c, 4, 57, 72
6, 172656, Note_on_c, 4, 57, 0
6, 172680, Note_on_c, 4, 45, 72
6, 172680, Note_on_c, 4, 57, 72
6, 172776, Note_on_c, 4, 57, 0
6, 172776, Note_on_c, 4, 45, 0
6, 172800, Note_on_c, 4, 50, 72
6, 172800, Note_on_c, 4, 57, 72
6, 172896, Note_on_c, 4, 57, 0
6, 172896, Note_on_c, 4, 50, 0
6, 172920, Note_on_c, 4, 38, 72
6, 173016, Note_on_c, 4, 38, 0
6, 173040, Note_on_c, 4, 38, 72
6, 173136, Note_on_c, 4, 38, 0
6, 173160, Note_on_c, 4, 38, 72
6, 173256, Note_on_c, 4, 38, 0
6, 173280, Note_on_c, 4, 38, 72
6, 173376, Note_on_c, 4, 38, 0
6, 173400, Note_on_c, 4, 38, 72
6, 173496, Note_on_c, 4, 38, 0
6, 173520, Note_on_c, 4, 38, 72
6, 173712, Note_on_c, 4, 38, 0
6, 173880, Note_on_c, 4, 50, 58
6, 173976, Note_on_c, 4, 50, 0
6, 174000, Note_on_c, 4, 52, 58
6, 174096, Note_on_c, 4, 52, 0
6, 174120, Note_on_c, 4, 53, 58
6, 174216, Note_on_c, 4, 53, 0
6, 174240, Note_on_c, 4, 55, 58
6, 174288, Note_on_c, 4, 55, 0
6, 174300, Note_on_c, 4, 57, 58
6, 174348, Note_on_c, 4, 57, 0
6, 174360, Note_on_c, 4, 58, 58
6, 174456, Note_on_c, 4, 58, 0
6, 174600, Note_on_c, 4, 55, 58
6, 174696, Note_on_c, 4, 55, 0
6, 174720, Note_on_c, 4, 57, 58
6, 174816, Note_on_c, 4, 57, 0
6, 174840, Note_on_c, 4, 58, 58
6, 174936, Note_on_c, 4, 58, 0
6, 174960, Note_on_c, 4, 49, 58
6, 175008, Note_on_c, 4, 49, 0
6, 175020, Note_on_c, 4, 50, 58
6, 175068, Note_on_c, 4, 50, 0
6, 175080, Note_on_c, 4, 52, 58
6, 175176, Note_on_c, 4, 52, 0
6, 175320, Note_on_c, 4, 49, 58
6, 175416, Note_on_c, 4, 49, 0
6, 175440, Note_on_c, 4, 50, 58
6, 175536, Note_on_c, 4, 50, 0
6, 175560, Note_on_c, 4, 52, 58
6, 175656, Note_on_c, 4, 52, 0
6, 175680, Note_on_c, 4, 53, 58
6, 175728, Note_on_c, 4, 53, 0
6, 175740, Note_on_c, 4, 55, 58
6, 175788, Note_on_c, 4, 55, 0
6, 175800, Note_on_c, 4, 57, 58
6, 175896, Note_on_c, 4, 57, 0
6, 175920, Note_on_c, 4, 50, 58
6, 176016, Note_on_c, 4, 50, 0
6, 176040, Note_on_c, 4, 45, 58
6, 176136, Note_on_c, 4, 45, 0
6, 176160, Note_on_c, 4, 41, 58
6, 176256, Note_on_c, 4, 41, 0
6, 176280, Note_on_c, 4, 45, 58
6, 176376, Note_on_c, 4, 45, 0
6, 176400, Note_on_c, 4, 38, 58
6, 176592, Note_on_c, 4, 38, 0
6, 176760, Note_on_c, 4, 38, 58
6, 176856, Note_on_c, 4, 38, 0
6, 176880, Note_on_c, 4, 45, 58
6, 176976, Note_on_c, 4, 45, 0
6, 177000, Note_on_c, 4, 50, 58
6, 177096, Note_on_c, 4, 50, 0
6, 177120, Note_on_c, 4, 45, 58
6, 177312, Note_on_c, 4, 45, 0
6, 177480, Note_on_c, 4, 45, 58
6, 177576, Note_on_c, 4, 45, 0
6, 177600, Note_on_c, 4, 49, 58
6, 177696, Note_on_c, 4, 49, 0
6, 177720, Note_on_c, 4, 52, 58
6, 177816, Note_on_c, 4, 52, 0
6, 177840, Note_on_c, 4, 57, 58
6, 178032, Note_on_c, 4, 57, 0
6, 178200, Note_on_c, 4, 52, 58
6, 178296, Note_on_c, 4, 52, 0
6, 178320, Note_on_c, 4, 49, 58
6, 178416, Note_on_c, 4, 49, 0
6, 178440, Note_on_c, 4, 45, 58
6, 178536, Note_on_c, 4, 45, 0
6, 178560, Note_on_c, 4, 50, 58
6, 178752, Note_on_c, 4, 50, 0
6, 178920, Note_on_c, 4, 45, 58
6, 179016, Note_on_c, 4, 45, 0
6, 179040, Note_on_c, 4, 41, 58
6, 179136, Note_on_c, 4, 41, 0
6, 179160, Note_on_c, 4, 45, 58
6, 179256, Note_on_c, 4, 45, 0
6, 179280, Note_on_c, 4, 38, 58
6, 179472, Note_on_c, 4, 38, 0
6, 179640, Note_on_c, 4, 50, 62
6, 179736, Note_on_c, 4, 50, 0
6, 179760, Note_on_c, 4, 54, 62
6, 179856, Note_on_c, 4, 54, 0
6, 179880, Note_on_c, 4, 50, 62
6, 179976, Note_on_c, 4, 50, 0
6, 180000, Note_on_c, 4, 55, 62
6, 180192, Note_on_c, 4, 55, 0
6, 180360, Note_on_c, 4, 55, 62
6, 180456, Note_on_c, 4, 55, 0
6, 180480, Note_on_c, 4, 47, 62
6, 180576, Note_on_c, 4, 47, 0
6, 180600, Note_on_c, 4, 43, 62
6, 180696, Note_on_c, 4, 43, 0
6, 180720, Note_on_c, 4, 48, 62
6, 180912, Note_on_c, 4, 48, 0
6, 181080, Note_on_c, 4, 48, 62
6, 181176, Note_on_c, 4, 48, 0
6, 181200, Note_on_c, 4, 52, 62
6, 181296, Note_on_c, 4, 52, 0
6, 181320, Note_on_c, 4, 48, 62
6, 181416, Note_on_c, 4, 48, 0
6, 181440, Note_on_c, 4, 53, 62
6, 181632, Note_on_c, 4, 53, 0
6, 181800, Note_on_c, 4, 53, 62
6, 181896, Note_on_c, 4, 53, 0
6, 181920, Note_on_c, 4, 45, 62
6, 182016, Note_on_c, 4, 45, 0
6, 182040, Note_on_c, 4, 41, 62
6, 182136, Note_on_c, 4, 41, 0
6, 182160, Note_on_c, 4, 46, 62
6, 182352, Note_on_c, 4, 46, 0
6, 182520, Note_on_c, 4, 50, 62
6, 182616, Note_on_c, 4, 50, 0
6, 182640, Note_on_c, 4, 43, 62
6, 182736, Note_on_c, 4, 43, 0
6, 182760, Note_on_c, 4, 46, 62
6, 182856, Note_on_c, 4, 46, 0
6, 182880, Note_on_c, 4, 48, 62
6, 183072, Note_on_c, 4, 48, 0
6, 183240, Note_on_c, 4, 52, 62
6, 183336, Note_on_c, 4, 52, 0
6, 183360, Note_on_c, 4, 43, 62
6, 183456, Note_on_c, 4, 43, 0
6, 183480, Note_on_c, 4, 48, 62
6, 183576, Note_on_c, 4, 48, 0
6, 183600, Note_on_c, 4, 50, 62
6, 183792, Note_on_c, 4, 50, 0
6, 183960, Note_on_c, 4, 53, 62
6, 184056, Note_on_c, 4, 53, 0
6, 184080, Note_on_c, 4, 46, 62
6, 184176, Note_on_c, 4, 46, 0
6, 184200, Note_on_c, 4, 50, 62
6, 184296, Note_on_c, 4, 50, 0
6, 184320, Note_on_c, 4, 52, 62
6, 184512, Note_on_c, 4, 52, 0
6, 184680, Note_on_c, 4, 55, 70
6, 184776, Note_on_c, 4, 55, 0
6, 184800, Note_on_c, 4, 60, 77
6, 184896, Note_on_c, 4, 60, 0
6, 184920, Note_on_c, 4, 55, 83
6, 184920, Note_on_c, 4, 52, 83
6, 185016, Note_on_c, 4, 52, 0
6, 185016, Note_on_c, 4, 55, 0
6, 185040, Note_on_c, 4, 53, 90
6, 185040, Note_on_c, 4, 57, 90
6, 185136, Note_on_c, 4, 57, 0
6, 185136, Note_on_c, 4, 53, 0
6, 185160, Note_on_c, 4, 41, 96
6, 185208, Note_on_c, 4, 41, 0
6, 185220, Note_on_c, 4, 43, 98
6, 185268, Note_on_c, 4, 43, 0
6, 185280, Note_on_c, 4, 45, 98
6, 185376, Note_on_c, 4, 45, 0
6, 185640, Note_on_c, 4, 48, 98
6, 185736, Note_on_c, 4, 48, 0
6, 185760, Note_on_c, 4, 41, 98
6, 185856, Note_on_c, 4, 41, 0
6, 186120, Note_on_c, 4, 40, 98
6, 186216, Note_on_c, 4, 40, 0
6, 186240, Note_on_c, 4, 41, 98
6, 186336, Note_on_c, 4, 41, 0
6, 186360, Note_on_c, 4, 43, 98
6, 186456, Note_on_c, 4, 43, 0
6, 186480, Note_on_c, 4, 45, 98
6, 186576, Note_on_c, 4, 45, 0
6, 186600, Note_on_c, 4, 43, 98
6, 186696, Note_on_c, 4, 43, 0
6, 186720, Note_on_c, 4, 45, 98
6, 186816, Note_on_c, 4, 45, 0
6, 186840, Note_on_c, 4, 41, 98
6, 186936, Note_on_c, 4, 41, 0
6, 186960, Note_on_c, 4, 38, 98
6, 187056, Note_on_c, 4, 38, 0
6, 187080, Note_on_c, 4, 50, 98
6, 187176, Note_on_c, 4, 50, 0
6, 187200, Note_on_c, 4, 48, 98
6, 187296, Note_on_c, 4, 48, 0
6, 187320, Note_on_c, 4, 36, 98
6, 187416, Note_on_c, 4, 36, 0
6, 187440, Note_on_c, 4, 40, 98
6, 187536, Note_on_c, 4, 40, 0
6, 187560, Note_on_c, 4, 43, 98
6, 187656, Note_on_c, 4, 43, 0
6, 187680, Note_on_c, 4, 48, 98
6, 187728, Note_on_c, 4, 48, 0
6, 187740, Note_on_c, 4, 48, 98
6, 187788, Note_on_c, 4, 48, 0
6, 187800, Note_on_c, 4, 46, 98
6, 187848, Note_on_c, 4, 46, 0
6, 187860, Note_on_c, 4, 48, 98
6, 187908, Note_on_c, 4, 48, 0
6, 187920, Note_on_c, 4, 45, 98
6, 188016, Note_on_c, 4, 45, 0
6, 188460, Note_on_c, 4, 45, 98
6, 188508, Note_on_c, 4, 45, 0
6, 188520, Note_on_c, 4, 43, 98
6, 188568, Note_on_c, 4, 43, 0
6, 188580, Note_on_c, 4, 45, 98
6, 188628, Note_on_c, 4, 45, 0
6, 188640, Note_on_c, 4, 38, 98
6, 188736, Note_on_c, 4, 38, 0
6, 189180, Note_on_c, 4, 50, 98
6, 189228, Note_on_c, 4, 50, 0
6, 189240, Note_on_c, 4, 52, 98
6, 189288, Note_on_c, 4, 52, 0
6, 189300, Note_on_c, 4, 53, 98
6, 189348, Note_on_c, 4, 53, 0
6, 189360, Note_on_c, 4, 52, 98
6, 189456, Note_on_c, 4, 52, 0
6, 189900, Note_on_c, 4, 52, 98
6, 189948, Note_on_c, 4, 52, 0
6, 189960, Note_on_c, 4, 50, 98
6, 190008, Note_on_c, 4, 50, 0
6, 190020, Note_on_c, 4, 52, 98
6, 190068, Note_on_c, 4, 52, 0
6, 190080, Note_on_c, 4, 45, 98
6, 190176, Note_on_c, 4, 45, 0
6, 190620, Note_on_c, 4, 45, 98
6, 190668, Note_on_c, 4, 45, 0
6, 190680, Note_on_c, 4, 44, 98
6, 190728, Note_on_c, 4, 44, 0
6, 190740, Note_on_c, 4, 45, 98
6, 190788, Note_on_c, 4, 45, 0
6, 190800, Note_on_c, 4, 38, 98
6, 190992, Note_on_c, 4, 38, 0
6, 191160, Note_on_c, 4, 50, 88
6, 191256, Note_on_c, 4, 50, 0
6, 191280, Note_on_c, 4, 47, 86
6, 191376, Note_on_c, 4, 47, 0
6, 191400, Note_on_c, 4, 43, 84
6, 191496, Note_on_c, 4, 43, 0
6, 191520, Note_on_c, 4, 48, 82
6, 191712, Note_on_c, 4, 48, 0
6, 191880, Note_on_c, 4, 48, 76
6, 191976, Note_on_c, 4, 48, 0
6, 192000, Note_on_c, 4, 45, 74
6, 192096, Note_on_c, 4, 45, 0
6, 192120, Note_on_c, 4, 41, 72
6, 192216, Note_on_c, 4, 41, 0
6, 192240, Note_on_c, 4, 47, 70
6, 192432, Note_on_c, 4, 47, 0
6, 192600, Note_on_c, 4, 47, 64
6, 192696, Note_on_c, 4, 47, 0
6, 192720, Note_on_c, 4, 52, 62
6, 192816, Note_on_c, 4, 52, 0
6, 192840, Note_on_c, 4, 40, 60
6, 192936, Note_on_c, 4, 40, 0
6, 192960, Note_on_c, 4, 45, 58
6, 193152, Note_on_c, 4, 45, 0
6, 193320, Note_on_c, 4, 45, 52
6, 193416, Note_on_c, 4, 45, 0
6, 193440, Note_on_c, 4, 47, 50
6, 193536, Note_on_c, 4, 47, 0
6, 193560, Note_on_c, 4, 48, 48
6, 193656, Note_on_c, 4, 48, 0
6, 193680, Note_on_c, 4, 50, 46
6, 193728, Note_on_c, 4, 50, 0
6, 193740, Note_on_c, 4, 52, 45
6, 193788, Note_on_c, 4, 52, 0
6, 193800, Note_on_c, 4, 53, 44
6, 193896, Note_on_c, 4, 53, 0
6, 194040, Note_on_c, 4, 50, 43
6, 194136, Note_on_c, 4, 50, 0
6, 194160, Note_on_c, 4, 52, 43
6, 194256, Note_on_c, 4, 52, 0
6, 194280, Note_on_c, 4, 53, 43
6, 194376, Note_on_c, 4, 53, 0
6, 194400, Note_on_c, 4, 44, 43
6, 194448, Note_on_c, 4, 44, 0
6, 194460, Note_on_c, 4, 45, 43
6, 194508, Note_on_c, 4, 45, 0
6, 194520, Note_on_c, 4, 47, 43
6, 194616, Note_on_c, 4, 47, 0
6, 194760, Note_on_c, 4, 44, 43
6, 194856, Note_on_c, 4, 44, 0
6, 194880, Note_on_c, 4, 45, 43
6, 194976, Note_on_c, 4, 45, 0
6, 195000, Note_on_c, 4, 47, 43
6, 195096, Note_on_c, 4, 47, 0
6, 195120, Note_on_c, 4, 48, 43
6, 195168, Note_on_c, 4, 48, 0
6, 195180, Note_on_c, 4, 50, 43
6, 195228, Note_on_c, 4, 50, 0
6, 195240, Note_on_c, 4, 52, 43
6, 195336, Note_on_c, 4, 52, 0
6, 195360, Note_on_c, 4, 57, 43
6, 195456, Note_on_c, 4, 57, 0
6, 195480, Note_on_c, 4, 52, 43
6, 195576, Note_on_c, 4, 52, 0
6, 195600, Note_on_c, 4, 48, 43
6, 195696, Note_on_c, 4, 48, 0
6, 195720, Note_on_c, 4, 52, 43
6, 195816, Note_on_c, 4, 52, 0
6, 195840, Note_on_c, 4, 45, 43
6, 196032, Note_on_c, 4, 45, 0
6, 196200, Note_on_c, 4, 57, 43
6, 196296, Note_on_c, 4, 57, 0
6, 196320, Note_on_c, 4, 52, 43
6, 196416, Note_on_c, 4, 52, 0
6, 196440, Note_on_c, 4, 45, 43
6, 196536, Note_on_c, 4, 45, 0
6, 196560, Note_on_c, 4, 52, 43
6, 196752, Note_on_c, 4, 52, 0
6, 196920, Note_on_c, 4, 52, 43
6, 197016, Note_on_c, 4, 52, 0
6, 197040, Note_on_c, 4, 56, 43
6, 197136, Note_on_c, 4, 56, 0
6, 197160, Note_on_c, 4, 59, 43
6, 197256, Note_on_c, 4, 59, 0
6, 197280, Note_on_c, 4, 64, 43
6, 197472, Note_on_c, 4, 64, 0
6, 197640, Note_on_c, 4, 59, 44
6, 197736, Note_on_c, 4, 59, 0
6, 197760, Note_on_c, 4, 56, 44
6, 197856, Note_on_c, 4, 56, 0
6, 197880, Note_on_c, 4, 52, 44
6, 197976, Note_on_c, 4, 52, 0
6, 198000, Note_on_c, 4, 57, 44
6, 198096, Note_on_c, 4, 57, 0
6, 198120, Note_on_c, 4, 57, 44
6, 198168, Note_on_c, 4, 57, 0
6, 198180, Note_on_c, 4, 56, 44
6, 198228, Note_on_c, 4, 56, 0
6, 198240, Note_on_c, 4, 57, 44
6, 198336, Note_on_c, 4, 57, 0
6, 198360, Note_on_c, 4, 52, 44
6, 198456, Note_on_c, 4, 52, 0
6, 198480, Note_on_c, 4, 48, 44
6, 198576, Note_on_c, 4, 48, 0
6, 198600, Note_on_c, 4, 52, 44
6, 198696, Note_on_c, 4, 52, 0
6, 198720, Note_on_c, 4, 45, 44
6, 198912, Note_on_c, 4, 45, 0
6, 198960, Note_on_c, 4, 61, 44
6, 199056, Note_on_c, 4, 61, 0
6, 199080, Note_on_c, 4, 57, 44
6, 199176, Note_on_c, 4, 57, 0
6, 199200, Note_on_c, 4, 61, 44
6, 199296, Note_on_c, 4, 61, 0
6, 199320, Note_on_c, 4, 57, 44
6, 199416, Note_on_c, 4, 57, 0
6, 199440, Note_on_c, 4, 62, 44
6, 199632, Note_on_c, 4, 62, 0
6, 199800, Note_on_c, 4, 50, 44
6, 199896, Note_on_c, 4, 50, 0
6, 199920, Note_on_c, 4, 42, 44
6, 200016, Note_on_c, 4, 42, 0
6, 200040, Note_on_c, 4, 38, 44
6, 200136, Note_on_c, 4, 38, 0
6, 200160, Note_on_c, 4, 43, 44
6, 200352, Note_on_c, 4, 43, 0
6, 200400, Note_on_c, 4, 59, 44
6, 200496, Note_on_c, 4, 59, 0
6, 200520, Note_on_c, 4, 55, 44
6, 200616, Note_on_c, 4, 55, 0
6, 200640, Note_on_c, 4, 59, 44
6, 200736, Note_on_c, 4, 59, 0
6, 200760, Note_on_c, 4, 55, 44
6, 200856, Note_on_c, 4, 55, 0
6, 200880, Note_on_c, 4, 60, 44
6, 201072, Note_on_c, 4, 60, 0
6, 201240, Note_on_c, 4, 48, 44
6, 201336, Note_on_c, 4, 48, 0
6, 201360, Note_on_c, 4, 40, 44
6, 201456, Note_on_c, 4, 40, 0
6, 201480, Note_on_c, 4, 36, 44
6, 201576, Note_on_c, 4, 36, 0
6, 201600, Note_on_c, 4, 41, 44
6, 201792, Note_on_c, 4, 41, 0
6, 201960, Note_on_c, 4, 53, 44
6, 202056, Note_on_c, 4, 53, 0
6, 202080, Note_on_c, 4, 52, 44
6, 202176, Note_on_c, 4, 52, 0
6, 202200, Note_on_c, 4, 50, 44
6, 202296, Note_on_c, 4, 50, 0
6, 202320, Note_on_c, 4, 49, 44
6, 202416, Note_on_c, 4, 49, 0
6, 202440, Note_on_c, 4, 49, 44
6, 202536, Note_on_c, 4, 49, 0
6, 202560, Note_on_c, 4, 49, 44
6, 202656, Note_on_c, 4, 49, 0
6, 202680, Note_on_c, 4, 50, 44
6, 202776, Note_on_c, 4, 50, 0
6, 202800, Note_on_c, 4, 55, 44
6, 202896, Note_on_c, 4, 55, 0
6, 202920, Note_on_c, 4, 53, 44
6, 203016, Note_on_c, 4, 53, 0
6, 203040, Note_on_c, 4, 52, 44
6, 203136, Note_on_c, 4, 52, 0
6, 203160, Note_on_c, 4, 50, 44
6, 203256, Note_on_c, 4, 50, 0
6, 203280, Note_on_c, 4, 49, 44
6, 203376, Note_on_c, 4, 49, 0
6, 203400, Note_on_c, 4, 50, 44
6, 203496, Note_on_c, 4, 50, 0
6, 203520, Note_on_c, 4, 62, 44
6, 203616, Note_on_c, 4, 62, 0
6, 203640, Note_on_c, 4, 60, 44
6, 203736, Note_on_c, 4, 60, 0
6, 203760, Note_on_c, 4, 59, 44
6, 203856, Note_on_c, 4, 59, 0
6, 203880, Note_on_c, 4, 51, 44
6, 203976, Note_on_c, 4, 51, 0
6, 204000, Note_on_c, 4, 51, 44
6, 204096, Note_on_c, 4, 51, 0
6, 204120, Note_on_c, 4, 52, 44
6, 204216, Note_on_c, 4, 52, 0
6, 204240, Note_on_c, 4, 57, 44
6, 204336, Note_on_c, 4, 57, 0
6, 204360, Note_on_c, 4, 55, 44
6, 204456, Note_on_c, 4, 55, 0
6, 204480, Note_on_c, 4, 54, 44
6, 204576, Note_on_c, 4, 54, 0
6, 204600, Note_on_c, 4, 52, 44
6, 204696, Note_on_c, 4, 52, 0
6, 204720, Note_on_c, 4, 51, 44
6, 204816, Note_on_c, 4, 51, 0
6, 204840, Note_on_c, 4, 52, 44
6, 204936, Note_on_c, 4, 52, 0
6, 204960, Note_on_c, 4, 44, 44
6, 205056, Note_on_c, 4, 44, 0
6, 205080, Note_on_c, 4, 47, 44
6, 205176, Note_on_c, 4, 47, 0
6, 205200, Note_on_c, 4, 40, 44
6, 205296, Note_on_c, 4, 40, 0
6, 205920, Note_on_c, 4, 40, 64
6, 206016, Note_on_c, 4, 40, 0
6, 206640, Note_on_c, 4, 45, 64
6, 206832, Note_on_c, 4, 45, 0
6, 207000, Note_on_c, 4, 45, 90
6, 207000, Note_on_c, 4, 57, 90
6, 207096, Note_on_c, 4, 57, 0
6, 207096, Note_on_c, 4, 45, 0
6, 207120, Note_on_c, 4, 50, 90
6, 207120, Note_on_c, 4, 57, 90
6, 207216, Note_on_c, 4, 57, 0
6, 207216, Note_on_c, 4, 50, 0
6, 207240, Note_on_c, 4, 47, 90
6, 207240, Note_on_c, 4, 57, 90
6, 207336, Note_on_c, 4, 57, 0
6, 207336, Note_on_c, 4, 47, 0
6, 207360, Note_on_c, 4, 48, 90
6, 207360, Note_on_c, 4, 57, 90
6, 207552, Note_on_c, 4, 57, 0
6, 207552, Note_on_c, 4, 48, 0
6, 207720, Note_on_c, 4, 57, 90
6, 207720, Note_on_c, 4, 45, 90
6, 207816, Note_on_c, 4, 45, 0
6, 207816, Note_on_c, 4, 57, 0
6, 207840, Note_on_c, 4, 48, 90
6, 207840, Note_on_c, 4, 57, 90
6, 207936, Note_on_c, 4, 57, 0
6, 207936, Note_on_c, 4, 48, 0
6, 207960, Note_on_c, 4, 57, 90
6, 207960, Note_on_c, 4, 45, 90
6, 208056, Note_on_c, 4, 45, 0
6, 208056, Note_on_c, 4, 57, 0
6, 208080, Note_on_c, 4, 47, 90
6, 208080, Note_on_c, 4, 57, 90
6, 208272, Note_on_c, 4, 57, 0
6, 208272, Note_on_c, 4, 47, 0
6, 208440, Note_on_c, 4, 53, 90
6, 208440, Note_on_c, 4, 50, 90
6, 208536, Note_on_c, 4, 50, 0
6, 208536, Note_on_c, 4, 53, 0
6, 208560, Note_on_c, 4, 40, 90
6, 208560, Note_on_c, 4, 52, 90
6, 208656, Note_on_c, 4, 52, 0
6, 208656, Note_on_c, 4, 40, 0
6, 208680, Note_on_c, 4, 52, 90
6, 208680, Note_on_c, 4, 44, 90
6, 208776, Note_on_c, 4, 44, 0
6, 208776, Note_on_c, 4, 52, 0
6, 208800, Note_on_c, 4, 52, 90
6, 208800, Note_on_c, 4, 45, 90
6, 208848, Note_on_c, 4, 45, 0
6, 208848, Note_on_c, 4, 52, 0
6, 208860, Note_on_c, 4, 57, 90
6, 208908, Note_on_c, 4, 57, 0
6, 208920, Note_on_c, 4, 55, 90
6, 208968, Note_on_c, 4, 55, 0
6, 208980, Note_on_c, 4, 53, 90
6, 209028, Note_on_c, 4, 53, 0
6, 209040, Note_on_c, 4, 52, 90
6, 209088, Note_on_c, 4, 52, 0
6, 209100, Note_on_c, 4, 50, 90
6, 209148, Note_on_c, 4, 50, 0
6, 209160, Note_on_c, 4, 48, 90
6, 209208, Note_on_c, 4, 48, 0
6, 209220, Note_on_c, 4, 47, 90
6, 209268, Note_on_c, 4, 47, 0
6, 209280, Note_on_c, 4, 45, 90
6, 209328, Note_on_c, 4, 45, 0
6, 209340, Note_on_c, 4, 48, 90
6, 209388, Note_on_c, 4, 48, 0
6, 209400, Note_on_c, 4, 47, 90
6, 209448, Note_on_c, 4, 47, 0
6, 209460, Note_on_c, 4, 45, 90
6, 209508, Note_on_c, 4, 45, 0
6, 209520, Note_on_c, 4, 44, 90
6, 209568, Note_on_c, 4, 44, 0
6, 209580, Note_on_c, 4, 40, 90
6, 209628, Note_on_c, 4, 40, 0
6, 209640, Note_on_c, 4, 42, 90
6, 209688, Note_on_c, 4, 42, 0
6, 209700, Note_on_c, 4, 44, 90
6, 209748, Note_on_c, 4, 44, 0
6, 209760, Note_on_c, 4, 45, 90
6, 209808, Note_on_c, 4, 45, 0
6, 209820, Note_on_c, 4, 47, 90
6, 209868, Note_on_c, 4, 47, 0
6, 209880, Note_on_c, 4, 48, 90
6, 209928, Note_on_c, 4, 48, 0
6, 209940, Note_on_c, 4, 50, 90
6, 209988, Note_on_c, 4, 50, 0
6, 210000, Note_on_c, 4, 52, 90
6, 210096, Note_on_c, 4, 52, 0
6, 210120, Note_on_c, 4, 40, 90
6, 210216, Note_on_c, 4, 40, 0
6, 210240, Note_on_c, 4, 45, 90
6, 210432, Note_on_c, 4, 45, 0
6, 210960, Note_on_c, 4, 45, 40
6, 211152, Note_on_c, 4, 45, 0
6, 211680, Note_on_c, 4, 46, 40
6, 211872, Note_on_c, 4, 46, 0
6, 212400, Note_on_c, 4, 45, 40
6, 212496, Note_on_c, 4, 45, 0
6, 213120, Note_on_c, 4, 43, 40
6, 213312, Note_on_c, 4, 43, 0
6, 213840, Note_on_c, 4, 43, 40
6, 214032, Note_on_c, 4, 43, 0
6, 214560, Note_on_c, 4, 45, 40
6, 214752, Note_on_c, 4, 45, 0
6, 215280, Note_on_c, 4, 43, 40
6, 215472, Note_on_c, 4, 43, 0
6, 216000, Note_on_c, 4, 41, 41
6, 216096, Note_on_c, 4, 41, 0
6, 216120, Note_on_c, 4, 65, 41
6, 216216, Note_on_c, 4, 65, 0
6, 216240, Note_on_c, 4, 65, 41
6, 216336, Note_on_c, 4, 65, 0
6, 216360, Note_on_c, 4, 65, 41
6, 216456, Note_on_c, 4, 65, 0
6, 216480, Note_on_c, 4, 65, 41
6, 216576, Note_on_c, 4, 65, 0
6, 216600, Note_on_c, 4, 65, 41
6, 216696, Note_on_c, 4, 65, 0
6, 216720, Note_on_c, 4, 52, 41
6, 216840, Note_on_c, 4, 64, 41
6, 216936, Note_on_c, 4, 64, 0
6, 216936, Note_on_c, 4, 52, 0
6, 216960, Note_on_c, 4, 64, 41
6, 217056, Note_on_c, 4, 64, 0
6, 217080, Note_on_c, 4, 64, 41
6, 217176, Note_on_c, 4, 64, 0
6, 217200, Note_on_c, 4, 57, 41
6, 217200, Note_on_c, 4, 64, 41
6, 217296, Note_on_c, 4, 64, 0
6, 217320, Note_on_c, 4, 64, 41
6, 217416, Note_on_c, 4, 64, 0
6, 217416, Note_on_c, 4, 57, 0
6, 217440, Note_on_c, 4, 50, 41
6, 217560, Note_on_c, 4, 62, 41
6, 217656, Note_on_c, 4, 62, 0
6, 217656, Note_on_c, 4, 50, 0
6, 217680, Note_on_c, 4, 62, 41
6, 217776, Note_on_c, 4, 62, 0
6, 217800, Note_on_c, 4, 62, 41
6, 217896, Note_on_c, 4, 62, 0
6, 217920, Note_on_c, 4, 62, 41
6, 218016, Note_on_c, 4, 62, 0
6, 218040, Note_on_c, 4, 62, 41
6, 218136, Note_on_c, 4, 62, 0
6, 218160, Note_on_c, 4, 48, 41
6, 218280, Note_on_c, 4, 60, 41
6, 218376, Note_on_c, 4, 60, 0
6, 218376, Note_on_c, 4, 48, 0
6, 218400, Note_on_c, 4, 60, 41
6, 218496, Note_on_c, 4, 60, 0
6, 218520, Note_on_c, 4, 60, 41
6, 218616, Note_on_c, 4, 60, 0
6, 218640, Note_on_c, 4, 53, 41
6, 218640, Note_on_c, 4, 60, 41
6, 218736, Note_on_c, 4, 60, 0
6, 218760, Note_on_c, 4, 60, 41
6, 218856, Note_on_c, 4, 60, 0
6, 218856, Note_on_c, 4, 53, 0
6, 218880, Note_on_c, 4, 46, 41
6, 219000, Note_on_c, 4, 58, 41
6, 219096, Note_on_c, 4, 58, 0
6, 219096, Note_on_c, 4, 46, 0
6, 219120, Note_on_c, 4, 58, 41
6, 219216, Note_on_c, 4, 58, 0
6, 219240, Note_on_c, 4, 58, 41
6, 219336, Note_on_c, 4, 58, 0
6, 219360, Note_on_c, 4, 58, 41
6, 219456, Note_on_c, 4, 58, 0
6, 219480, Note_on_c, 4, 58, 41
6, 219576, Note_on_c, 4, 58, 0
6, 219600, Note_on_c, 4, 45, 41
6, 219720, Note_on_c, 4, 57, 41
6, 219816, Note_on_c, 4, 57, 0
6, 219816, Note_on_c, 4, 45, 0
6, 219840, Note_on_c, 4, 57, 41
6, 219936, Note_on_c, 4, 57, 0
6, 219960, Note_on_c, 4, 57, 41
6, 220056, Note_on_c, 4, 57, 0
6, 220080, Note_on_c, 4, 50, 41
6, 220080, Note_on_c, 4, 57, 41
6, 220176, Note_on_c, 4, 57, 0
6, 220200, Note_on_c, 4, 58, 38
6, 220248, Note_on_c, 4, 58, 0
6, 220260, Note_on_c, 4, 60, 41
6, 220308, Note_on_c, 4, 60, 0
6, 220308, Note_on_c, 4, 50, 0
6, 220320, Note_on_c, 4, 62, 44
6, 220320, Note_on_c, 4, 55, 44
6, 220416, Note_on_c, 4, 55, 0
6, 220416, Note_on_c, 4, 62, 0
6, 220440, Note_on_c, 4, 55, 50
6, 220488, Note_on_c, 4, 55, 0
6, 220500, Note_on_c, 4, 57, 52
6, 220548, Note_on_c, 4, 57, 0
6, 220560, Note_on_c, 4, 58, 55
6, 220656, Note_on_c, 4, 58, 0
6, 220920, Note_on_c, 4, 62, 65
6, 221016, Note_on_c, 4, 62, 0
6, 221040, Note_on_c, 4, 55, 65
6, 221136, Note_on_c, 4, 55, 0
6, 221400, Note_on_c, 4, 54, 65
6, 221496, Note_on_c, 4, 54, 0
6, 221520, Note_on_c, 4, 55, 65
6, 221616, Note_on_c, 4, 55, 0
6, 221640, Note_on_c, 4, 57, 65
6, 221736, Note_on_c, 4, 57, 0
6, 221760, Note_on_c, 4, 58, 65
6, 221856, Note_on_c, 4, 58, 0
6, 221880, Note_on_c, 4, 57, 65
6, 221976, Note_on_c, 4, 57, 0
6, 222000, Note_on_c, 4, 58, 65
6, 222096, Note_on_c, 4, 58, 0
6, 222120, Note_on_c, 4, 55, 65
6, 222216, Note_on_c, 4, 55, 0
6, 222240, Note_on_c, 4, 51, 65
6, 222336, Note_on_c, 4, 51, 0
6, 222360, Note_on_c, 4, 39, 65
6, 222456, Note_on_c, 4, 39, 0
6, 222480, Note_on_c, 4, 38, 65
6, 222576, Note_on_c, 4, 38, 0
6, 222600, Note_on_c, 4, 50, 65
6, 222696, Note_on_c, 4, 50, 0
6, 222720, Note_on_c, 4, 54, 65
6, 222816, Note_on_c, 4, 54, 0
6, 222840, Note_on_c, 4, 57, 65
6, 222936, Note_on_c, 4, 57, 0
6, 222960, Note_on_c, 4, 62, 65
6, 223056, Note_on_c, 4, 62, 0
6, 223080, Note_on_c, 4, 60, 65
6, 223176, Note_on_c, 4, 60, 0
6, 223200, Note_on_c, 4, 59, 65
6, 223296, Note_on_c, 4, 59, 0
6, 223320, Note_on_c, 4, 59, 65
6, 223416, Note_on_c, 4, 59, 0
6, 223440, Note_on_c, 4, 59, 65
6, 223536, Note_on_c, 4, 59, 0
6, 223560, Note_on_c, 4, 60, 65
6, 223656, Note_on_c, 4, 60, 0
6, 223680, Note_on_c, 4, 53, 65
6, 223776, Note_on_c, 4, 53, 0
6, 223800, Note_on_c, 4, 51, 65
6, 223896, Note_on_c, 4, 51, 0
6, 223920, Note_on_c, 4, 50, 65
6, 224016, Note_on_c, 4, 50, 0
6, 224040, Note_on_c, 4, 48, 65
6, 224136, Note_on_c, 4, 48, 0
6, 224160, Note_on_c, 4, 47, 65
6, 224256, Note_on_c, 4, 47, 0
6, 224280, Note_on_c, 4, 48, 65
6, 224376, Note_on_c, 4, 48, 0
6, 224400, Note_on_c, 4, 60, 66
6, 224496, Note_on_c, 4, 60, 0
6, 224520, Note_on_c, 4, 58, 66
6, 224616, Note_on_c, 4, 58, 0
6, 224640, Note_on_c, 4, 57, 66
6, 224736, Note_on_c, 4, 57, 0
6, 224760, Note_on_c, 4, 49, 66
6, 224856, Note_on_c, 4, 49, 0
6, 224880, Note_on_c, 4, 49, 66
6, 224976, Note_on_c, 4, 49, 0
6, 225000, Note_on_c, 4, 50, 66
6, 225096, Note_on_c, 4, 50, 0
6, 225120, Note_on_c, 4, 55, 66
6, 225216, Note_on_c, 4, 55, 0
6, 225240, Note_on_c, 4, 53, 66
6, 225336, Note_on_c, 4, 53, 0
6, 225360, Note_on_c, 4, 52, 66
6, 225456, Note_on_c, 4, 52, 0
6, 225480, Note_on_c, 4, 50, 66
6, 225576, Note_on_c, 4, 50, 0
6, 225600, Note_on_c, 4, 49, 66
6, 225696, Note_on_c, 4, 49, 0
6, 225720, Note_on_c, 4, 50, 66
6, 225816, Note_on_c, 4, 50, 0
6, 225840, Note_on_c, 4, 62, 66
6, 225936, Note_on_c, 4, 62, 0
6, 225960, Note_on_c, 4, 60, 66
6, 226056, Note_on_c, 4, 60, 0
6, 226080, Note_on_c, 4, 58, 66
6, 226176, Note_on_c, 4, 58, 0
6, 226200, Note_on_c, 4, 55, 66
6, 226296, Note_on_c, 4, 55, 0
6, 226440, Note_on_c, 4, 55, 66
6, 226536, Note_on_c, 4, 55, 0
6, 226560, Note_on_c, 4, 60, 66
6, 226656, Note_on_c, 4, 60, 0
6, 226680, Note_on_c, 4, 58, 66
6, 226776, Note_on_c, 4, 58, 0
6, 226800, Note_on_c, 4, 57, 66
6, 226896, Note_on_c, 4, 57, 0
6, 226920, Note_on_c, 4, 55, 66
6, 227016, Note_on_c, 4, 55, 0
6, 227160, Note_on_c, 4, 50, 66
6, 227256, Note_on_c, 4, 50, 0
6, 227280, Note_on_c, 4, 62, 66
6, 227328, Note_on_c, 4, 62, 0
6, 227340, Note_on_c, 4, 60, 66
6, 227388, Note_on_c, 4, 60, 0
6, 227400, Note_on_c, 4, 58, 66
6, 227448, Note_on_c, 4, 58, 0
6, 227460, Note_on_c, 4, 57, 66
6, 227508, Note_on_c, 4, 57, 0
6, 227520, Note_on_c, 4, 55, 66
6, 227712, Note_on_c, 4, 55, 0
6, 227880, Note_on_c, 4, 43, 43
6, 227976, Note_on_c, 4, 43, 0
6, 228000, Note_on_c, 4, 45, 43
6, 228096, Note_on_c, 4, 45, 0
6, 228120, Note_on_c, 4, 46, 43
6, 228216, Note_on_c, 4, 46, 0
6, 228240, Note_on_c, 4, 48, 43
6, 228288, Note_on_c, 4, 48, 0
6, 228300, Note_on_c, 4, 50, 43
6, 228348, Note_on_c, 4, 50, 0
6, 228360, Note_on_c, 4, 51, 43
6, 228456, Note_on_c, 4, 51, 0
6, 228600, Note_on_c, 4, 48, 43
6, 228696, Note_on_c, 4, 48, 0
6, 228720, Note_on_c, 4, 50, 43
6, 228816, Note_on_c, 4, 50, 0
6, 228840, Note_on_c, 4, 51, 43
6, 228936, Note_on_c, 4, 51, 0
6, 228960, Note_on_c, 4, 42, 43
6, 229008, Note_on_c, 4, 42, 0
6, 229020, Note_on_c, 4, 43, 43
6, 229068, Note_on_c, 4, 43, 0
6, 229080, Note_on_c, 4, 45, 43
6, 229176, Note_on_c, 4, 45, 0
6, 229320, Note_on_c, 4, 42, 43
6, 229416, Note_on_c, 4, 42, 0
6, 229440, Note_on_c, 4, 43, 43
6, 229536, Note_on_c, 4, 43, 0
6, 229560, Note_on_c, 4, 45, 43
6, 229656, Note_on_c, 4, 45, 0
6, 229680, Note_on_c, 4, 46, 43
6, 229728, Note_on_c, 4, 46, 0
6, 229740, Note_on_c, 4, 48, 43
6, 229788, Note_on_c, 4, 48, 0
6, 229800, Note_on_c, 4, 50, 43
6, 229896, Note_on_c, 4, 50, 0
6, 229920, Note_on_c, 4, 55, 43
6, 230016, Note_on_c, 4, 55, 0
6, 230040, Note_on_c, 4, 50, 43
6, 230136, Note_on_c, 4, 50, 0
6, 230160, Note_on_c, 4, 46, 43
6, 230256, Note_on_c, 4, 46, 0
6, 230280, Note_on_c, 4, 50, 43
6, 230376, Note_on_c, 4, 50, 0
6, 230400, Note_on_c, 4, 43, 43
6, 230592, Note_on_c, 4, 43, 0
6, 230760, Note_on_c, 4, 43, 43
6, 230856, Note_on_c, 4, 43, 0
6, 230880, Note_on_c, 4, 50, 43
6, 230976, Note_on_c, 4, 50, 0
6, 231000, Note_on_c, 4, 55, 43
6, 231096, Note_on_c, 4, 55, 0
6, 231120, Note_on_c, 4, 50, 43
6, 231312, Note_on_c, 4, 50, 0
6, 231480, Note_on_c, 4, 50, 43
6, 231576, Note_on_c, 4, 50, 0
6, 231600, Note_on_c, 4, 54, 43
6, 231696, Note_on_c, 4, 54, 0
6, 231720, Note_on_c, 4, 57, 43
6, 231816, Note_on_c, 4, 57, 0
6, 231840, Note_on_c, 4, 62, 43
6, 232032, Note_on_c, 4, 62, 0
6, 232200, Note_on_c, 4, 57, 43
6, 232296, Note_on_c, 4, 57, 0
6, 232320, Note_on_c, 4, 54, 43
6, 232416, Note_on_c, 4, 54, 0
6, 232440, Note_on_c, 4, 50, 43
6, 232536, Note_on_c, 4, 50, 0
6, 232560, Note_on_c, 4, 55, 43
6, 232752, Note_on_c, 4, 55, 0
6, 232920, Note_on_c, 4, 50, 43
6, 233016, Note_on_c, 4, 50, 0
6, 233040, Note_on_c, 4, 46, 43
6, 233136, Note_on_c, 4, 46, 0
6, 233160, Note_on_c, 4, 50, 43
6, 233256, Note_on_c, 4, 50, 0
6, 233280, Note_on_c, 4, 43, 43
6, 233472, Note_on_c, 4, 43, 0
6, 233640, Note_on_c, 4, 55, 43
6, 233736, Note_on_c, 4, 55, 0
6, 233760, Note_on_c, 4, 59, 43
6, 233856, Note_on_c, 4, 59, 0
6, 233880, Note_on_c, 4, 55, 43
6, 233976, Note_on_c, 4, 55, 0
6, 234000, Note_on_c, 4, 60, 43
6, 234192, Note_on_c, 4, 60, 0
6, 234360, Note_on_c, 4, 48, 43
6, 234456, Note_on_c, 4, 48, 0
6, 234480, Note_on_c, 4, 52, 43
6, 234576, Note_on_c, 4, 52, 0
6, 234600, Note_on_c, 4, 48, 43
6, 234696, Note_on_c, 4, 48, 0
6, 234720, Note_on_c, 4, 45, 43
6, 234912, Note_on_c, 4, 45, 0
6, 235080, Note_on_c, 4, 57, 43
6, 235176, Note_on_c, 4, 57, 0
6, 235200, Note_on_c, 4, 61, 43
6, 235296, Note_on_c, 4, 61, 0
6, 235320, Note_on_c, 4, 57, 43
6, 235416, Note_on_c, 4, 57, 0
6, 235440, Note_on_c, 4, 62, 43
6, 235632, Note_on_c, 4, 62, 0
6, 235800, Note_on_c, 4, 59, 43
6, 235896, Note_on_c, 4, 59, 0
6, 235920, Note_on_c, 4, 56, 44
6, 236016, Note_on_c, 4, 56, 0
6, 236040, Note_on_c, 4, 52, 45
6, 236136, Note_on_c, 4, 52, 0
6, 236160, Note_on_c, 4, 45, 45
6, 236352, Note_on_c, 4, 45, 0
6, 236520, Note_on_c, 4, 48, 47
6, 236616, Note_on_c, 4, 48, 0
6, 236640, Note_on_c, 4, 41, 48
6, 236736, Note_on_c, 4, 41, 0
6, 236760, Note_on_c, 4, 45, 49
6, 236856, Note_on_c, 4, 45, 0
6, 236880, Note_on_c, 4, 46, 49
6, 237072, Note_on_c, 4, 46, 0
6, 237240, Note_on_c, 4, 50, 51
6, 237336, Note_on_c, 4, 50, 0
6, 237360, Note_on_c, 4, 43, 52
6, 237456, Note_on_c, 4, 43, 0
6, 237480, Note_on_c, 4, 47, 52
6, 237576, Note_on_c, 4, 47, 0
6, 237600, Note_on_c, 4, 48, 53
6, 237792, Note_on_c, 4, 48, 0
6, 237960, Note_on_c, 4, 52, 50
6, 238056, Note_on_c, 4, 52, 0
6, 238080, Note_on_c, 4, 45, 50
6, 238176, Note_on_c, 4, 45, 0
6, 238200, Note_on_c, 4, 49, 49
6, 238296, Note_on_c, 4, 49, 0
6, 238320, Note_on_c, 4, 50, 49
6, 238512, Note_on_c, 4, 50, 0
6, 239040, Note_on_c, 4, 50, 46
6, 239232, Note_on_c, 4, 50, 0
6, 239760, Note_on_c, 4, 51, 46
6, 239952, Note_on_c, 4, 51, 0
6, 240480, Note_on_c, 4, 50, 46
6, 240672, Note_on_c, 4, 50, 0
6, 241200, Note_on_c, 4, 48, 46
6, 241392, Note_on_c, 4, 48, 0
6, 241920, Note_on_c, 4, 48, 46
6, 242112, Note_on_c, 4, 48, 0
6, 242640, Note_on_c, 4, 50, 46
6, 242832, Note_on_c, 4, 50, 0
6, 243360, Note_on_c, 4, 48, 46
6, 243552, Note_on_c, 4, 48, 0
6, 244080, Note_on_c, 4, 46, 40
6, 244200, Note_on_c, 4, 58, 41
6, 244296, Note_on_c, 4, 58, 0
6, 244296, Note_on_c, 4, 46, 0
6, 244320, Note_on_c, 4, 58, 43
6, 244416, Note_on_c, 4, 58, 0
6, 244440, Note_on_c, 4, 58, 44
6, 244536, Note_on_c, 4, 58, 0
6, 244560, Note_on_c, 4, 58, 45
6, 244656, Note_on_c, 4, 58, 0
6, 244680, Note_on_c, 4, 58, 46
6, 244776, Note_on_c, 4, 58, 0
6, 244800, Note_on_c, 4, 45, 47
6, 244920, Note_on_c, 4, 57, 48
6, 245016, Note_on_c, 4, 57, 0
6, 245016, Note_on_c, 4, 45, 0
6, 245040, Note_on_c, 4, 57, 50
6, 245136, Note_on_c, 4, 57, 0
6, 245160, Note_on_c, 4, 57, 51
6, 245256, Note_on_c, 4, 57, 0
6, 245280, Note_on_c, 4, 50, 52
6, 245280, Note_on_c, 4, 57, 52
6, 245376, Note_on_c, 4, 57, 0
6, 245400, Note_on_c, 4, 57, 53
6, 245496, Note_on_c, 4, 57, 0
6, 245496, Note_on_c, 4, 50, 0
6, 245520, Note_on_c, 4, 55, 54
6, 245520, Note_on_c, 4, 43, 54
6, 245712, Note_on_c, 4, 43, 0
6, 245712, Note_on_c, 4, 55, 0
6, 245880, Note_on_c, 4, 45, 58
6, 245976, Note_on_c, 4, 45, 0
6, 246000, Note_on_c, 4, 46, 59
6, 246096, Note_on_c, 4, 46, 0
6, 246120, Note_on_c, 4, 43, 60
6, 246216, Note_on_c, 4, 43, 0
6, 246240, Note_on_c, 4, 40, 61
6, 246432, Note_on_c, 4, 40, 0
6, 246720, Note_on_c, 4, 45, 66
6, 246912, Note_on_c, 4, 45, 0
6, 246960, Note_on_c, 4, 38, 80
6, 247056, Note_on_c, 4, 38, 0
6, 247080, Note_on_c, 4, 50, 80
6, 247128, Note_on_c, 4, 50, 0
6, 247140, Note_on_c, 4, 52, 80
6, 247188, Note_on_c, 4, 52, 0
6, 247200, Note_on_c, 4, 53, 80
6, 247296, Note_on_c, 4, 53, 0
6, 247560, Note_on_c, 4, 57, 80
6, 247656, Note_on_c, 4, 57, 0
6, 247680, Note_on_c, 4, 50, 80
6, 247776, Note_on_c, 4, 50, 0
6, 248040, Note_on_c, 4, 49, 80
6, 248136, Note_on_c, 4, 49, 0
6, 248160, Note_on_c, 4, 50, 80
6, 248256, Note_on_c, 4, 50, 0
6, 248280, Note_on_c, 4, 52, 80
6, 248376, Note_on_c, 4, 52, 0
6, 248400, Note_on_c, 4, 53, 80
6, 248496, Note_on_c, 4, 53, 0
6, 248520, Note_on_c, 4, 52, 80
6, 248616, Note_on_c, 4, 52, 0
6, 248640, Note_on_c, 4, 53, 80
6, 248736, Note_on_c, 4, 53, 0
6, 248760, Note_on_c, 4, 50, 80
6, 248856, Note_on_c, 4, 50, 0
6, 248880, Note_on_c, 4, 46, 80
6, 248976, Note_on_c, 4, 46, 0
6, 249000, Note_on_c, 4, 57, 80
6, 249096, Note_on_c, 4, 57, 0
6, 249120, Note_on_c, 4, 57, 80
6, 249216, Note_on_c, 4, 57, 0
6, 249240, Note_on_c, 4, 45, 80
6, 249336, Note_on_c, 4, 45, 0
6, 249360, Note_on_c, 4, 49, 80
6, 249456, Note_on_c, 4, 49, 0
6, 249480, Note_on_c, 4, 52, 80
6, 249576, Note_on_c, 4, 52, 0
6, 249600, Note_on_c, 4, 57, 80
6, 249648, Note_on_c, 4, 57, 0
6, 249660, Note_on_c, 4, 58, 80
6, 249708, Note_on_c, 4, 58, 0
6, 249720, Note_on_c, 4, 57, 80
6, 249768, Note_on_c, 4, 57, 0
6, 249780, Note_on_c, 4, 55, 80
6, 249828, Note_on_c, 4, 55, 0
6, 249840, Note_on_c, 4, 54, 80
6, 249936, Note_on_c, 4, 54, 0
6, 249960, Note_on_c, 4, 50, 80
6, 250056, Note_on_c, 4, 50, 0
6, 250380, Note_on_c, 4, 50, 90
6, 250428, Note_on_c, 4, 50, 0
6, 250440, Note_on_c, 4, 48, 90
6, 250488, Note_on_c, 4, 48, 0
6, 250500, Note_on_c, 4, 50, 90
6, 250548, Note_on_c, 4, 50, 0
6, 250560, Note_on_c, 4, 43, 90
6, 250656, Note_on_c, 4, 43, 0
6, 250680, Note_on_c, 4, 55, 90
6, 250776, Note_on_c, 4, 55, 0
6, 251100, Note_on_c, 4, 43, 90
6, 251148, Note_on_c, 4, 43, 0
6, 251160, Note_on_c, 4, 45, 90
6, 251208, Note_on_c, 4, 45, 0
6, 251220, Note_on_c, 4, 46, 90
6, 251268, Note_on_c, 4, 46, 0
6, 251280, Note_on_c, 4, 45, 90
6, 251376, Note_on_c, 4, 45, 0
6, 251400, Note_on_c, 4, 33, 90
6, 251496, Note_on_c, 4, 33, 0
6, 251820, Note_on_c, 4, 45, 90
6, 251868, Note_on_c, 4, 45, 0
6, 251880, Note_on_c, 4, 43, 90
6, 251928, Note_on_c, 4, 43, 0
6, 251940, Note_on_c, 4, 45, 90
6, 251988, Note_on_c, 4, 45, 0
6, 252000, Note_on_c, 4, 38, 90
6, 252096, Note_on_c, 4, 38, 0
6, 252120, Note_on_c, 4, 50, 90
6, 252216, Note_on_c, 4, 50, 0
6, 252540, Note_on_c, 4, 50, 90
6, 252588, Note_on_c, 4, 50, 0
6, 252600, Note_on_c, 4, 49, 90
6, 252648, Note_on_c, 4, 49, 0
6, 252660, Note_on_c, 4, 50, 90
6, 252708, Note_on_c, 4, 50, 0
6, 252720, Note_on_c, 4, 43, 90
6, 252912, Note_on_c, 4, 43, 0
6, 253080, Note_on_c, 4, 55, 90
6, 253176, Note_on_c, 4, 55, 0
6, 253200, Note_on_c, 4, 52, 90
6, 253296, Note_on_c, 4, 52, 0
6, 253320, Note_on_c, 4, 48, 90
6, 253416, Note_on_c, 4, 48, 0
6, 253440, Note_on_c, 4, 53, 90
6, 253632, Note_on_c, 4, 53, 0
6, 253800, Note_on_c, 4, 53, 90
6, 253896, Note_on_c, 4, 53, 0
6, 253920, Note_on_c, 4, 50, 90
6, 254016, Note_on_c, 4, 50, 0
6, 254040, Note_on_c, 4, 46, 90
6, 254136, Note_on_c, 4, 46, 0
6, 254160, Note_on_c, 4, 52, 90
6, 254352, Note_on_c, 4, 52, 0
6, 254520, Note_on_c, 4, 52, 90
6, 254616, Note_on_c, 4, 52, 0
6, 254640, Note_on_c, 4, 57, 90
6, 254736, Note_on_c, 4, 57, 0
6, 254760, Note_on_c, 4, 45, 90
6, 254856, Note_on_c, 4, 45, 0
6, 254880, Note_on_c, 4, 50, 90
6, 254928, Note_on_c, 4, 50, 0
6, 254940, Note_on_c, 4, 49, 88
6, 254988, Note_on_c, 4, 49, 0
6, 255000, Note_on_c, 4, 50, 88
6, 255048, Note_on_c, 4, 50, 0
6, 255060, Note_on_c, 4, 52, 88
6, 255108, Note_on_c, 4, 52, 0
6, 255120, Note_on_c, 4, 53, 88
6, 255216, Note_on_c, 4, 53, 0
6, 255480, Note_on_c, 4, 57, 86
6, 255576, Note_on_c, 4, 57, 0
6, 255600, Note_on_c, 4, 50, 86
6, 255696, Note_on_c, 4, 50, 0
6, 255960, Note_on_c, 4, 49, 81
6, 256056, Note_on_c, 4, 49, 0
6, 256080, Note_on_c, 4, 50, 77
6, 256176, Note_on_c, 4, 50, 0
6, 256200, Note_on_c, 4, 52, 75
6, 256296, Note_on_c, 4, 52, 0
6, 256320, Note_on_c, 4, 53, 72
6, 256416, Note_on_c, 4, 53, 0
6, 256440, Note_on_c, 4, 52, 70
6, 256536, Note_on_c, 4, 52, 0
6, 256560, Note_on_c, 4, 53, 68
6, 256656, Note_on_c, 4, 53, 0
6, 256680, Note_on_c, 4, 50, 66
6, 256776, Note_on_c, 4, 50, 0
6, 256800, Note_on_c, 4, 46, 63
6, 256896, Note_on_c, 4, 46, 0
6, 256920, Note_on_c, 4, 58, 61
6, 257016, Note_on_c, 4, 58, 0
6, 257040, Note_on_c, 4, 57, 59
6, 257136, Note_on_c, 4, 57, 0
6, 257160, Note_on_c, 4, 45, 56
6, 257256, Note_on_c, 4, 45, 0
6, 257280, Note_on_c, 4, 49, 54
6, 257376, Note_on_c, 4, 49, 0
6, 257400, Note_on_c, 4, 52, 52
6, 257496, Note_on_c, 4, 52, 0
6, 257520, Note_on_c, 4, 57, 50
6, 257616, Note_on_c, 4, 57, 0
6, 257640, Note_on_c, 4, 55, 47
6, 257736, Note_on_c, 4, 55, 0
6, 257760, Note_on_c, 4, 54, 45
6, 257856, Note_on_c, 4, 54, 0
6, 257880, Note_on_c, 4, 54, 43
6, 257976, Note_on_c, 4, 54, 0
6, 258000, Note_on_c, 4, 54, 43
6, 258096, Note_on_c, 4, 54, 0
6, 258120, Note_on_c, 4, 55, 43
6, 258216, Note_on_c, 4, 55, 0
6, 258240, Note_on_c, 4, 48, 43
6, 258336, Note_on_c, 4, 48, 0
6, 258360, Note_on_c, 4, 46, 43
6, 258456, Note_on_c, 4, 46, 0
6, 258480, Note_on_c, 4, 45, 43
6, 258576, Note_on_c, 4, 45, 0
6, 258600, Note_on_c, 4, 43, 43
6, 258696, Note_on_c, 4, 43, 0
6, 258720, Note_on_c, 4, 42, 43
6, 258816, Note_on_c, 4, 42, 0
6, 258840, Note_on_c, 4, 43, 43
6, 258936, Note_on_c, 4, 43, 0
6, 258960, Note_on_c, 4, 55, 43
6, 259056, Note_on_c, 4, 55, 0
6, 259080, Note_on_c, 4, 53, 43
6, 259176, Note_on_c, 4, 53, 0
6, 259200, Note_on_c, 4, 52, 42
6, 259296, Note_on_c, 4, 52, 0
6, 259320, Note_on_c, 4, 44, 38
6, 259416, Note_on_c, 4, 44, 0
6, 259440, Note_on_c, 4, 44, 38
6, 259536, Note_on_c, 4, 44, 0
6, 259560, Note_on_c, 4, 45, 39
6, 259656, Note_on_c, 4, 45, 0
6, 259680, Note_on_c, 4, 50, 40
6, 259776, Note_on_c, 4, 50, 0
6, 259800, Note_on_c, 4, 48, 41
6, 259896, Note_on_c, 4, 48, 0
6, 259920, Note_on_c, 4, 47, 41
6, 260016, Note_on_c, 4, 47, 0
6, 260040, Note_on_c, 4, 45, 42
6, 260136, Note_on_c, 4, 45, 0
6, 260160, Note_on_c, 4, 44, 43
6, 260256, Note_on_c, 4, 44, 0
6, 260280, Note_on_c, 4, 45, 44
6, 260376, Note_on_c, 4, 45, 0
6, 260400, Note_on_c, 4, 57, 44
6, 260496, Note_on_c, 4, 57, 0
6, 260520, Note_on_c, 4, 55, 45
6, 260616, Note_on_c, 4, 55, 0
6, 260640, Note_on_c, 4, 53, 46
6, 260736, Note_on_c, 4, 53, 0
6, 260760, Note_on_c, 4, 50, 47
6, 260856, Note_on_c, 4, 50, 0
6, 261000, Note_on_c, 4, 50, 48
6, 261096, Note_on_c, 4, 50, 0
6, 261120, Note_on_c, 4, 55, 49
6, 261216, Note_on_c, 4, 55, 0
6, 261240, Note_on_c, 4, 53, 50
6, 261336, Note_on_c, 4, 53, 0
6, 261360, Note_on_c, 4, 52, 50
6, 261456, Note_on_c, 4, 52, 0
6, 261480, Note_on_c, 4, 50, 51
6, 261576, Note_on_c, 4, 50, 0
6, 261600, Note_on_c, 4, 49, 52
6, 261696, Note_on_c, 4, 49, 0
6, 261720, Note_on_c, 4, 45, 53
6, 261816, Note_on_c, 4, 45, 0
6, 261840, Note_on_c, 4, 57, 53
6, 261936, Note_on_c, 4, 57, 0
6, 261960, Note_on_c, 4, 45, 54
6, 262056, Note_on_c, 4, 45, 0
6, 262080, Note_on_c, 4, 50, 55
6, 262176, Note_on_c, 4, 50, 0
6, 262200, Note_on_c, 4, 55, 56
6, 262296, Note_on_c, 4, 55, 0
6, 262320, Note_on_c, 4, 53, 56
6, 262416, Note_on_c, 4, 53, 0
6, 262440, Note_on_c, 4, 41, 57
6, 262536, Note_on_c, 4, 41, 0
6, 262560, Note_on_c, 4, 40, 58
6, 262656, Note_on_c, 4, 40, 0
6, 262680, Note_on_c, 4, 52, 59
6, 262776, Note_on_c, 4, 52, 0
6, 262800, Note_on_c, 4, 45, 59
6, 262896, Note_on_c, 4, 45, 0
6, 263520, Note_on_c, 4, 45, 64
6, 263616, Note_on_c, 4, 45, 0
6, 264240, Note_on_c, 4, 45, 68
6, 264336, Note_on_c, 4, 45, 0
6, 264960, Note_on_c, 4, 50, 73
6, 265152, Note_on_c, 4, 50, 0
6, 265320, Note_on_c, 4, 50, 75
6, 265320, Note_on_c, 4, 62, 75
6, 265416, Note_on_c, 4, 62, 0
6, 265416, Note_on_c, 4, 50, 0
6, 265440, Note_on_c, 4, 62, 76
6, 265440, Note_on_c, 4, 55, 76
6, 265536, Note_on_c, 4, 55, 0
6, 265536, Note_on_c, 4, 62, 0
6, 265560, Note_on_c, 4, 52, 77
6, 265560, Note_on_c, 4, 62, 77
6, 265656, Note_on_c, 4, 62, 0
6, 265656, Note_on_c, 4, 52, 0
6, 265680, Note_on_c, 4, 53, 77
6, 265680, Note_on_c, 4, 62, 77
6, 265872, Note_on_c, 4, 62, 0
6, 265872, Note_on_c, 4, 53, 0
6, 266040, Note_on_c, 4, 50, 80
6, 266040, Note_on_c, 4, 62, 80
6, 266136, Note_on_c, 4, 62, 0
6, 266136, Note_on_c, 4, 50, 0
6, 266160, Note_on_c, 4, 62, 80
6, 266160, Note_on_c, 4, 53, 80
6, 266256, Note_on_c, 4, 53, 0
6, 266256, Note_on_c, 4, 62, 0
6, 266280, Note_on_c, 4, 50, 81
6, 266280, Note_on_c, 4, 62, 81
6, 266376, Note_on_c, 4, 62, 0
6, 266376, Note_on_c, 4, 50, 0
6, 266400, Note_on_c, 4, 52, 82
6, 266400, Note_on_c, 4, 62, 82
6, 266592, Note_on_c, 4, 62, 0
6, 266592, Note_on_c, 4, 52, 0
6, 266760, Note_on_c, 4, 58, 84
6, 266760, Note_on_c, 4, 55, 84
6, 266856, Note_on_c, 4, 55, 0
6, 266856, Note_on_c, 4, 58, 0
6, 266880, Note_on_c, 4, 45, 85
6, 266880, Note_on_c, 4, 57, 85
6, 266976, Note_on_c, 4, 57, 0
6, 266976, Note_on_c, 4, 45, 0
6, 267000, Note_on_c, 4, 49, 86
6, 267000, Note_on_c, 4, 57, 86
6, 267096, Note_on_c, 4, 57, 0
6, 267096, Note_on_c, 4, 49, 0
6, 267120, Note_on_c, 4, 50, 86
6, 267168, Note_on_c, 4, 50, 0
6, 267180, Note_on_c, 4, 62, 90
6, 267228, Note_on_c, 4, 62, 0
6, 267240, Note_on_c, 4, 60, 90
6, 267288, Note_on_c, 4, 60, 0
6, 267300, Note_on_c, 4, 58, 90
6, 267348, Note_on_c, 4, 58, 0
6, 267360, Note_on_c, 4, 57, 90
6, 267408, Note_on_c, 4, 57, 0
6, 267420, Note_on_c, 4, 55, 90
6, 267468, Note_on_c, 4, 55, 0
6, 267480, Note_on_c, 4, 53, 90
6, 267528, Note_on_c, 4, 53, 0
6, 267540, Note_on_c, 4, 52, 90
6, 267588, Note_on_c, 4, 52, 0
6, 267600, Note_on_c, 4, 50, 90
6, 267648, Note_on_c, 4, 50, 0
6, 267660, Note_on_c, 4, 53, 90
6, 267708, Note_on_c, 4, 53, 0
6, 267720, Note_on_c, 4, 52, 90
6, 267768, Note_on_c, 4, 52, 0
6, 267780, Note_on_c, 4, 50, 90
6, 267828, Note_on_c, 4, 50, 0
6, 267840, Note_on_c, 4, 49, 90
6, 267888, Note_on_c, 4, 49, 0
6, 267900, Note_on_c, 4, 43, 90
6, 267948, Note_on_c, 4, 43, 0
6, 267960, Note_on_c, 4, 47, 90
6, 268008, Note_on_c, 4, 47, 0
6, 268020, Note_on_c, 4, 49, 90
6, 268068, Note_on_c, 4, 49, 0
6, 268080, Note_on_c, 4, 50, 90
6, 268128, Note_on_c, 4, 50, 0
6, 268140, Note_on_c, 4, 52, 90
6, 268188, Note_on_c, 4, 52, 0
6, 268200, Note_on_c, 4, 53, 90
6, 268248, Note_on_c, 4, 53, 0
6, 268260, Note_on_c, 4, 55, 90
6, 268308, Note_on_c, 4, 55, 0
6, 268320, Note_on_c, 4, 57, 90
6, 268416, Note_on_c, 4, 57, 0
6, 268440, Note_on_c, 4, 45, 90
6, 268536, Note_on_c, 4, 45, 0
6, 268560, Note_on_c, 4, 50, 90
6, 268656, Note_on_c, 4, 50, 0
6, 268680, Note_on_c, 4, 38, 90
6, 268776, Note_on_c, 4, 38, 0
6, 268800, Note_on_c, 4, 38, 90
6, 268896, Note_on_c, 4, 38, 0
6, 268920, Note_on_c, 4, 38, 90
6, 269016, Note_on_c, 4, 38, 0
6, 269040, Note_on_c, 4, 38, 90
6, 269136, Note_on_c, 4, 38, 0
6, 269160, Note_on_c, 4, 38, 90
6, 269256, Note_on_c, 4, 38, 0
6, 269280, Note_on_c, 4, 38, 90
6, 269472, Note_on_c, 4, 38, 0
6, 269472, End_track
7, 0, Start_track
7, 0, MIDI_port, 0
7, 0, Title_t, "T. Walter"
7, 0, End_track
8, 0, Start_track
8, 0, MIDI_port, 0
8, 0, Title_t, "Bach-Double Violin Concerto"
8, 0, End_track
0, 0, End_of_file
