0, 0, Header, 1, 11, 48
1, 0, Start_track
1, 0, Time_signature, 2, 2, 24, 8
1, 0, Tempo, 454545
1, 48, Tempo, 454545
1, 96, Tempo, 454545
1, 192, Tempo, 454545
1, 288, Tempo, 454545
1, 384, Tempo, 454545
1, 480, Tempo, 454545
1, 576, Tempo, 454545
1, 672, Tempo, 454545
1, 768, Tempo, 454545
1, 864, Tempo, 454545
1, 960, Tempo, 454545
1, 1056, Tempo, 454545
1, 1152, Tempo, 454545
1, 1248, Tempo, 454545
1, 1344, Tempo, 454545
1, 1440, Tempo, 454545
1, 1536, Tempo, 454545
1, 1632, Tempo, 454545
1, 1728, Tempo, 454545
1, 1824, Tempo, 454545
1, 1920, Tempo, 454545
1, 2016, Tempo, 454545
1, 2112, Tempo, 454545
1, 2208, Tempo, 454545
1, 2304, Tempo, 454545
1, 2400, Tempo, 454545
1, 2496, Tempo, 454545
1, 2592, Tempo, 454545
1, 2688, Tempo, 454545
1, 2784, Tempo, 454545
1, 2880, Tempo, 454545
1, 2976, Tempo, 454545
1, 3072, Tempo, 454545
1, 3168, Tempo, 454545
1, 3264, Tempo, 454545
1, 3360, Tempo, 454545
1, 3456, Tempo, 454545
1, 3552, Tempo, 454545
1, 3648, Tempo, 454545
1, 3744, Tempo, 454545
1, 3840, Tempo, 454545
1, 3936, Tempo, 454545
1, 4032, Tempo, 454545
1, 4128, Tempo, 454545
1, 4224, Tempo, 454545
1, 4320, Tempo, 454545
1, 4416, Tempo, 454545
1, 4512, Tempo, 454545
1, 4608, Tempo, 454545
1, 4704, Tempo, 454545
1, 4800, Tempo, 454545
1, 4896, Tempo, 454545
1, 4992, Tempo, 454545
1, 5088, Tempo, 454545
1, 5184, Tempo, 454545
1, 5280, Tempo, 454545
1, 5376, Tempo, 454545
1, 5472, Tempo, 454545
1, 5568, Tempo, 454545
1, 5664, Tempo, 454545
1, 5760, Tempo, 454545
1, 5856, Tempo, 454545
1, 5952, Tempo, 454545
1, 6048, Tempo, 454545
1, 6144, Tempo, 454545
1, 6240, Tempo, 454545
1, 6336, Tempo, 454545
1, 6432, Tempo, 454545
1, 6528, Tempo, 454545
1, 6624, Tempo, 454545
1, 6720, Tempo, 454545
1, 6816, Tempo, 454545
1, 6912, Tempo, 454545
1, 7008, Tempo, 454545
1, 7104, Tempo, 454545
1, 7200, Tempo, 454545
1, 7296, Tempo, 454545
1, 7392, Tempo, 454545
1, 7488, Tempo, 454545
1, 7584, Tempo, 454545
1, 7680, Tempo, 454545
1, 7776, Tempo, 454545
1, 7872, Tempo, 454545
1, 7968, Tempo, 454545
1, 8064, Tempo, 454545
1, 8160, Tempo, 454545
1, 8256, Tempo, 454545
1, 8352, Tempo, 454545
1, 8448, Tempo, 454545
1, 8544, Tempo, 454545
1, 8640, Tempo, 454545
1, 8736, Tempo, 454545
1, 8832, Tempo, 454545
1, 8928, Tempo, 454545
1, 9024, Tempo, 454545
1, 9120, Tempo, 454545
1, 9216, Tempo, 454545
1, 9312, Tempo, 454545
1, 9408, Tempo, 454545
1, 9504, Tempo, 454545
1, 9600, Tempo, 454545
1, 9696, Tempo, 454545
1, 9792, Tempo, 454545
1, 9888, Tempo, 454545
1, 9984, Tempo, 454545
1, 10080, Tempo, 454545
1, 10176, Tempo, 454545
1, 10272, Tempo, 454545
1, 10368, Tempo, 454545
1, 10464, Tempo, 454545
1, 10560, Tempo, 454545
1, 10656, Tempo, 454545
1, 10752, Tempo, 454545
1, 10848, Tempo, 454545
1, 10944, Tempo, 454545
1, 11040, Tempo, 454545
1, 11136, Tempo, 454545
1, 11232, Tempo, 454545
1, 11328, Tempo, 454545
1, 11424, Tempo, 454545
1, 11520, Tempo, 454545
1, 11616, Tempo, 454545
1, 11712, Tempo, 454545
1, 11808, Tempo, 454545
1, 11904, Tempo, 454545
1, 12000, Tempo, 454545
1, 12096, Tempo, 454545
1, 12192, Tempo, 454545
1, 12288, Tempo, 454545
1, 12384, Tempo, 454545
1, 12480, Tempo, 454545
1, 12576, Tempo, 454545
1, 12672, Tempo, 454545
1, 12768, Tempo, 454545
1, 12864, Tempo, 454545
1, 12960, Tempo, 454545
1, 13056, Tempo, 454545
1, 13152, Tempo, 454545
1, 13248, Tempo, 454545
1, 13344, Tempo, 454545
1, 13440, Tempo, 454545
1, 13536, Tempo, 454545
1, 13632, Tempo, 454545
1, 13728, Tempo, 454545
1, 13824, Tempo, 454545
1, 13920, Tempo, 454545
1, 14016, Tempo, 454545
1, 14112, Tempo, 454545
1, 14208, Tempo, 454545
1, 14304, Tempo, 454545
1, 14400, Tempo, 454545
1, 14496, Tempo, 454545
1, 14592, Tempo, 454545
1, 14688, Tempo, 454545
1, 14784, Tempo, 454545
1, 14880, Tempo, 454545
1, 14976, Tempo, 454545
1, 15072, Tempo, 454545
1, 15168, Tempo, 454545
1, 15264, Tempo, 454545
1, 15360, Tempo, 454545
1, 15456, Tempo, 454545
1, 15552, Tempo, 454545
1, 15648, Tempo, 454545
1, 15744, Tempo, 454545
1, 15840, Tempo, 454545
1, 15936, Tempo, 454545
1, 16032, Tempo, 454545
1, 16128, Tempo, 454545
1, 16224, Tempo, 454545
1, 16320, Tempo, 454545
1, 16416, Tempo, 454545
1, 16512, Tempo, 454545
1, 16608, Tempo, 454545
1, 16704, Tempo, 454545
1, 16800, Tempo, 454545
1, 16896, Tempo, 454545
1, 16992, Tempo, 454545
1, 17088, Tempo, 454545
1, 17184, Tempo, 454545
1, 17280, Tempo, 454545
1, 17376, Tempo, 454545
1, 17472, Tempo, 454545
1, 17568, Tempo, 454545
1, 17664, Tempo, 454545
1, 17760, Tempo, 454545
1, 17856, Tempo, 454545
1, 17952, Tempo, 454545
1, 18048, Tempo, 454545
1, 18144, Tempo, 454545
1, 18240, Tempo, 454545
1, 18336, Tempo, 454545
1, 18432, Tempo, 454545
1, 18528, Tempo, 454545
1, 18624, Tempo, 454545
1, 18720, Tempo, 454545
1, 18816, Tempo, 454545
1, 18912, Tempo, 454545
1, 19008, Tempo, 454545
1, 19104, Tempo, 454545
1, 19200, Tempo, 454545
1, 19296, Tempo, 454545
1, 19392, Tempo, 454545
1, 19488, Tempo, 454545
1, 19584, Tempo, 454545
1, 19680, Tempo, 454545
1, 19776, Tempo, 454545
1, 19872, Tempo, 454545
1, 19968, Tempo, 454545
1, 20064, Tempo, 454545
1, 20160, Tempo, 454545
1, 20256, Tempo, 454545
1, 20352, Tempo, 454545
1, 20448, Tempo, 454545
1, 20544, Tempo, 454545
1, 20640, Tempo, 454545
1, 20736, Tempo, 454545
1, 20832, Tempo, 454545
1, 20928, Tempo, 454545
1, 21024, Tempo, 454545
1, 21120, Tempo, 454545
1, 21216, Tempo, 454545
1, 21312, Tempo, 454545
1, 21408, Tempo, 454545
1, 21504, Tempo, 454545
1, 21600, Tempo, 454545
1, 21696, Tempo, 454545
1, 21792, Tempo, 454545
1, 21888, Tempo, 454545
1, 21984, Tempo, 454545
1, 22080, Tempo, 454545
1, 22176, Tempo, 454545
1, 22272, Tempo, 454545
1, 22320, Tempo, 454545
1, 22368, Tempo, 454545
1, 22464, Tempo, 454545
1, 22560, Tempo, 454545
1, 22656, Tempo, 454545
1, 22752, Tempo, 454545
1, 22848, Tempo, 454545
1, 22944, Tempo, 454545
1, 23040, Tempo, 454545
1, 23136, Tempo, 454545
1, 23232, Tempo, 454545
1, 23328, Tempo, 454545
1, 23424, Tempo, 454545
1, 23520, Tempo, 454545
1, 23616, Tempo, 454545
1, 23712, Tempo, 454545
1, 23808, Tempo, 454545
1, 23904, Tempo, 454545
1, 24000, Tempo, 454545
1, 24096, Tempo, 454545
1, 24192, Tempo, 454545
1, 24288, Tempo, 454545
1, 24384, Tempo, 454545
1, 24480, Tempo, 454545
1, 24576, Tempo, 454545
1, 24672, Tempo, 454545
1, 24768, Tempo, 454545
1, 24864, Tempo, 454545
1, 24960, Tempo, 454545
1, 25056, Tempo, 454545
1, 25152, Tempo, 454545
1, 25248, Tempo, 454545
1, 25344, Tempo, 454545
1, 25440, Tempo, 454545
1, 25536, Tempo, 454545
1, 25632, Tempo, 454545
1, 25728, Tempo, 454545
1, 25824, Tempo, 454545
1, 25920, Tempo, 454545
1, 26016, Tempo, 454545
1, 26112, Tempo, 454545
1, 26208, Tempo, 454545
1, 26304, Tempo, 454545
1, 26400, Tempo, 454545
1, 26496, Tempo, 454545
1, 26592, Tempo, 454545
1, 26688, Tempo, 454545
1, 26784, Tempo, 454545
1, 26880, Tempo, 454545
1, 26976, Tempo, 454545
1, 27072, Tempo, 454545
1, 27168, Tempo, 454545
1, 27264, Tempo, 454545
1, 27360, Tempo, 454545
1, 27456, Tempo, 454545
1, 27552, Tempo, 454545
1, 27648, Tempo, 454545
1, 27744, Tempo, 454545
1, 27840, Tempo, 454545
1, 27936, Tempo, 454545
1, 28032, Tempo, 454545
1, 28128, Tempo, 454545
1, 28224, Tempo, 454545
1, 28320, Tempo, 454545
1, 28416, Tempo, 454545
1, 28512, Tempo, 454545
1, 28608, Tempo, 454545
1, 28704, Tempo, 454545
1, 28800, Tempo, 454545
1, 28896, Tempo, 454545
1, 28992, Tempo, 454545
1, 29088, Tempo, 454545
1, 29184, Tempo, 454545
1, 29280, Tempo, 454545
1, 29304, Tempo, 461538
1, 29328, Tempo, 468750
1, 29352, Tempo, 472440
1, 29376, Tempo, 480000
1, 29388, Tempo, 487804
1, 29412, Tempo, 491803
1, 29436, Tempo, 500000
1, 29460, Tempo, 508474
1, 29472, Tempo, 517241
1, 29496, Tempo, 521739
1, 29520, Tempo, 530973
1, 29544, Tempo, 540540
1, 29556, Tempo, 545454
1, 29568, Tempo, 545454
1, 29580, Tempo, 555555
1, 29604, Tempo, 566037
1, 29628, Tempo, 576923
1, 29640, Tempo, 582524
1, 29664, Tempo, 594059
1, 29688, Tempo, 606060
1, 29712, Tempo, 618556
1, 29724, Tempo, 625000
1, 29748, Tempo, 638297
1, 29760, Tempo, 638297
1, 29772, Tempo, 652173
1, 29796, Tempo, 659340
1, 29808, Tempo, 674157
1, 29856, Tempo, 674157
1, 29952, Tempo, 674157
1, 29952, End_track
2, 0, Start_track
2, 0, Title_t, "Keyboard"
2, 0, Control_c, 0, 7, 96
2, 0, Pitch_bend_c, 0, 8192
2, 0, Control_c, 0, 1, 0
2, 0, Program_c, 0, 0
2, 0, Control_c, 0, 64, 0
2, 0, Control_c, 0, 10, 64
2, 22272, Control_c, 0, 7, 96
2, 22272, Pitch_bend_c, 0, 8192
2, 22272, Control_c, 0, 1, 0
2, 22272, Program_c, 0, 0
2, 22272, Control_c, 0, 64, 0
2, 22272, Control_c, 0, 10, 64
2, 22272, End_track
3, 0, Start_track
3, 0, Title_t, "Cembalo RH"
3, 0, Control_c, 1, 7, 96
3, 0, Pitch_bend_c, 1, 8192
3, 0, Control_c, 1, 1, 0
3, 0, Program_c, 1, 16
3, 0, Control_c, 1, 64, 0
3, 0, Control_c, 1, 10, 64
3, 48, Control_c, 1, 7, 96
3, 96, Control_c, 1, 10, 108
3, 996, Note_on_c, 1, 74, 95
3, 1008, Note_on_c, 1, 74, 0
3, 1008, Note_on_c, 1, 81, 95
3, 1032, Note_on_c, 1, 81, 0
3, 1044, Note_on_c, 1, 76, 95
3, 1052, Note_on_c, 1, 76, 0
3, 1056, Note_on_c, 1, 78, 95
3, 1067, Note_on_c, 1, 78, 0
3, 1072, Note_on_c, 1, 76, 95
3, 1083, Note_on_c, 1, 76, 0
3, 1088, Note_on_c, 1, 74, 95
3, 1099, Note_on_c, 1, 74, 0
3, 1104, Note_on_c, 1, 73, 95
3, 1115, Note_on_c, 1, 73, 0
3, 1120, Note_on_c, 1, 74, 95
3, 1131, Note_on_c, 1, 74, 0
3, 1136, Note_on_c, 1, 76, 95
3, 1147, Note_on_c, 1, 76, 0
3, 1152, Note_on_c, 1, 69, 95
3, 1163, Note_on_c, 1, 69, 0
3, 1168, Note_on_c, 1, 73, 95
3, 1179, Note_on_c, 1, 73, 0
3, 1184, Note_on_c, 1, 71, 95
3, 1195, Note_on_c, 1, 71, 0
3, 1200, Note_on_c, 1, 69, 95
3, 1211, Note_on_c, 1, 69, 0
3, 1216, Note_on_c, 1, 71, 95
3, 1227, Note_on_c, 1, 71, 0
3, 1232, Note_on_c, 1, 73, 95
3, 1243, Note_on_c, 1, 73, 0
3, 1248, Note_on_c, 1, 66, 95
3, 1259, Note_on_c, 1, 66, 0
3, 1264, Note_on_c, 1, 71, 95
3, 1275, Note_on_c, 1, 71, 0
3, 1280, Note_on_c, 1, 69, 95
3, 1291, Note_on_c, 1, 69, 0
3, 1296, Note_on_c, 1, 68, 95
3, 1307, Note_on_c, 1, 68, 0
3, 1312, Note_on_c, 1, 73, 95
3, 1323, Note_on_c, 1, 73, 0
3, 1328, Note_on_c, 1, 71, 95
3, 1339, Note_on_c, 1, 71, 0
3, 1344, Note_on_c, 1, 69, 95
3, 1349, Note_on_c, 1, 69, 0
3, 1352, Note_on_c, 1, 68, 95
3, 1357, Note_on_c, 1, 68, 0
3, 1360, Note_on_c, 1, 69, 95
3, 1365, Note_on_c, 1, 69, 0
3, 1368, Note_on_c, 1, 71, 95
3, 1373, Note_on_c, 1, 71, 0
3, 1376, Note_on_c, 1, 73, 95
3, 1381, Note_on_c, 1, 73, 0
3, 1384, Note_on_c, 1, 74, 95
3, 1389, Note_on_c, 1, 74, 0
3, 1392, Note_on_c, 1, 76, 95
3, 1397, Note_on_c, 1, 76, 0
3, 1400, Note_on_c, 1, 78, 95
3, 1405, Note_on_c, 1, 78, 0
3, 1408, Note_on_c, 1, 76, 95
3, 1413, Note_on_c, 1, 76, 0
3, 1416, Note_on_c, 1, 74, 95
3, 1421, Note_on_c, 1, 74, 0
3, 1424, Note_on_c, 1, 73, 95
3, 1429, Note_on_c, 1, 73, 0
3, 1432, Note_on_c, 1, 71, 95
3, 1437, Note_on_c, 1, 71, 0
3, 1440, Note_on_c, 1, 69, 95
3, 1445, Note_on_c, 1, 69, 0
3, 1448, Note_on_c, 1, 73, 95
3, 1453, Note_on_c, 1, 73, 0
3, 1456, Note_on_c, 1, 71, 95
3, 1461, Note_on_c, 1, 71, 0
3, 1464, Note_on_c, 1, 69, 95
3, 1469, Note_on_c, 1, 69, 0
3, 1472, Note_on_c, 1, 68, 95
3, 1477, Note_on_c, 1, 68, 0
3, 1480, Note_on_c, 1, 66, 95
3, 1485, Note_on_c, 1, 66, 0
3, 1488, Note_on_c, 1, 64, 95
3, 1493, Note_on_c, 1, 64, 0
3, 1496, Note_on_c, 1, 66, 95
3, 1501, Note_on_c, 1, 66, 0
3, 1504, Note_on_c, 1, 64, 95
3, 1509, Note_on_c, 1, 64, 0
3, 1512, Note_on_c, 1, 62, 95
3, 1517, Note_on_c, 1, 62, 0
3, 1520, Note_on_c, 1, 61, 95
3, 1525, Note_on_c, 1, 61, 0
3, 1528, Note_on_c, 1, 59, 95
3, 1533, Note_on_c, 1, 59, 0
3, 1536, Note_on_c, 1, 57, 95
3, 1541, Note_on_c, 1, 57, 0
3, 1584, Note_on_c, 1, 69, 95
3, 1600, Note_on_c, 1, 69, 0
3, 1632, Note_on_c, 1, 69, 95
3, 1648, Note_on_c, 1, 69, 0
3, 1680, Note_on_c, 1, 68, 95
3, 1696, Note_on_c, 1, 68, 0
3, 1728, Note_on_c, 1, 69, 95
3, 1732, Note_on_c, 1, 69, 0
3, 1734, Note_on_c, 1, 71, 95
3, 1738, Note_on_c, 1, 71, 0
3, 1740, Note_on_c, 1, 69, 95
3, 1744, Note_on_c, 1, 69, 0
3, 1746, Note_on_c, 1, 71, 95
3, 1750, Note_on_c, 1, 71, 0
3, 1752, Note_on_c, 1, 69, 95
3, 1756, Note_on_c, 1, 69, 0
3, 1758, Note_on_c, 1, 71, 95
3, 1762, Note_on_c, 1, 71, 0
3, 1764, Note_on_c, 1, 69, 95
3, 1768, Note_on_c, 1, 69, 0
3, 1770, Note_on_c, 1, 71, 95
3, 1774, Note_on_c, 1, 71, 0
3, 1776, Note_on_c, 1, 69, 95
3, 1780, Note_on_c, 1, 69, 0
3, 1782, Note_on_c, 1, 71, 95
3, 1786, Note_on_c, 1, 71, 0
3, 1788, Note_on_c, 1, 69, 95
3, 1792, Note_on_c, 1, 69, 0
3, 1794, Note_on_c, 1, 71, 95
3, 1798, Note_on_c, 1, 71, 0
3, 1800, Note_on_c, 1, 69, 95
3, 1804, Note_on_c, 1, 69, 0
3, 1806, Note_on_c, 1, 71, 95
3, 1810, Note_on_c, 1, 71, 0
3, 1812, Note_on_c, 1, 69, 95
3, 1816, Note_on_c, 1, 69, 0
3, 1818, Note_on_c, 1, 71, 95
3, 1822, Note_on_c, 1, 71, 0
3, 1824, Note_on_c, 1, 69, 95
3, 1835, Note_on_c, 1, 69, 0
3, 1840, Note_on_c, 1, 73, 95
3, 1851, Note_on_c, 1, 73, 0
3, 1856, Note_on_c, 1, 71, 95
3, 1867, Note_on_c, 1, 71, 0
3, 1872, Note_on_c, 1, 69, 95
3, 1883, Note_on_c, 1, 69, 0
3, 1888, Note_on_c, 1, 68, 95
3, 1899, Note_on_c, 1, 68, 0
3, 1904, Note_on_c, 1, 66, 95
3, 1915, Note_on_c, 1, 66, 0
3, 1920, Note_on_c, 1, 64, 95
3, 1924, Note_on_c, 1, 64, 0
3, 1926, Note_on_c, 1, 66, 95
3, 1930, Note_on_c, 1, 66, 0
3, 1932, Note_on_c, 1, 64, 95
3, 1936, Note_on_c, 1, 64, 0
3, 1938, Note_on_c, 1, 66, 95
3, 1942, Note_on_c, 1, 66, 0
3, 1944, Note_on_c, 1, 64, 95
3, 1948, Note_on_c, 1, 64, 0
3, 1950, Note_on_c, 1, 66, 95
3, 1954, Note_on_c, 1, 66, 0
3, 1956, Note_on_c, 1, 64, 95
3, 1960, Note_on_c, 1, 64, 0
3, 1962, Note_on_c, 1, 66, 95
3, 1966, Note_on_c, 1, 66, 0
3, 1968, Note_on_c, 1, 64, 95
3, 1972, Note_on_c, 1, 64, 0
3, 1974, Note_on_c, 1, 66, 95
3, 1978, Note_on_c, 1, 66, 0
3, 1980, Note_on_c, 1, 64, 95
3, 1984, Note_on_c, 1, 64, 0
3, 1986, Note_on_c, 1, 66, 95
3, 1990, Note_on_c, 1, 66, 0
3, 1992, Note_on_c, 1, 64, 95
3, 1996, Note_on_c, 1, 64, 0
3, 1998, Note_on_c, 1, 66, 95
3, 2002, Note_on_c, 1, 66, 0
3, 2004, Note_on_c, 1, 64, 95
3, 2008, Note_on_c, 1, 64, 0
3, 2010, Note_on_c, 1, 66, 95
3, 2014, Note_on_c, 1, 66, 0
3, 2016, Note_on_c, 1, 64, 95
3, 2027, Note_on_c, 1, 64, 0
3, 2032, Note_on_c, 1, 61, 95
3, 2043, Note_on_c, 1, 61, 0
3, 2048, Note_on_c, 1, 62, 95
3, 2059, Note_on_c, 1, 62, 0
3, 2064, Note_on_c, 1, 64, 95
3, 2075, Note_on_c, 1, 64, 0
3, 2080, Note_on_c, 1, 62, 95
3, 2091, Note_on_c, 1, 62, 0
3, 2096, Note_on_c, 1, 64, 95
3, 2107, Note_on_c, 1, 64, 0
3, 2112, Note_on_c, 1, 66, 95
3, 2123, Note_on_c, 1, 66, 0
3, 2128, Note_on_c, 1, 69, 95
3, 2139, Note_on_c, 1, 69, 0
3, 2144, Note_on_c, 1, 68, 95
3, 2155, Note_on_c, 1, 68, 0
3, 2160, Note_on_c, 1, 66, 95
3, 2171, Note_on_c, 1, 66, 0
3, 2176, Note_on_c, 1, 69, 95
3, 2187, Note_on_c, 1, 69, 0
3, 2192, Note_on_c, 1, 68, 95
3, 2203, Note_on_c, 1, 68, 0
3, 2208, Note_on_c, 1, 66, 95
3, 2219, Note_on_c, 1, 66, 0
3, 2224, Note_on_c, 1, 63, 95
3, 2235, Note_on_c, 1, 63, 0
3, 2240, Note_on_c, 1, 64, 95
3, 2251, Note_on_c, 1, 64, 0
3, 2256, Note_on_c, 1, 66, 95
3, 2267, Note_on_c, 1, 66, 0
3, 2272, Note_on_c, 1, 64, 95
3, 2283, Note_on_c, 1, 64, 0
3, 2288, Note_on_c, 1, 66, 95
3, 2299, Note_on_c, 1, 66, 0
3, 2304, Note_on_c, 1, 68, 95
3, 2315, Note_on_c, 1, 68, 0
3, 2352, Note_on_c, 1, 73, 95
3, 2352, Note_on_c, 1, 71, 95
3, 2352, Note_on_c, 1, 76, 95
3, 2376, Note_on_c, 1, 71, 0
3, 2376, Note_on_c, 1, 73, 0
3, 2376, Note_on_c, 1, 76, 0
3, 2400, Note_on_c, 1, 73, 95
3, 2400, Note_on_c, 1, 69, 95
3, 2400, Note_on_c, 1, 76, 95
3, 2424, Note_on_c, 1, 69, 0
3, 2424, Note_on_c, 1, 73, 0
3, 2424, Note_on_c, 1, 76, 0
3, 2448, Note_on_c, 1, 71, 95
3, 2448, Note_on_c, 1, 66, 95
3, 2448, Note_on_c, 1, 74, 95
3, 2472, Note_on_c, 1, 66, 0
3, 2472, Note_on_c, 1, 71, 0
3, 2472, Note_on_c, 1, 74, 0
3, 2496, Note_on_c, 1, 71, 95
3, 2496, Note_on_c, 1, 68, 95
3, 2496, Note_on_c, 1, 74, 95
3, 2520, Note_on_c, 1, 68, 0
3, 2520, Note_on_c, 1, 71, 0
3, 2520, Note_on_c, 1, 74, 0
3, 2544, Note_on_c, 1, 69, 95
3, 2544, Note_on_c, 1, 73, 95
3, 2580, Note_on_c, 1, 73, 0
3, 2580, Note_on_c, 1, 74, 95
3, 2592, Note_on_c, 1, 74, 0
3, 2592, Note_on_c, 1, 76, 95
3, 2628, Note_on_c, 1, 76, 0
3, 2628, Note_on_c, 1, 78, 95
3, 2640, Note_on_c, 1, 69, 0
3, 2640, Note_on_c, 1, 78, 0
3, 2640, Note_on_c, 1, 71, 95
3, 2676, Note_on_c, 1, 71, 0
3, 2676, Note_on_c, 1, 69, 95
3, 2688, Note_on_c, 1, 69, 0
3, 2688, Note_on_c, 1, 69, 95
3, 2712, Note_on_c, 1, 69, 0
3, 3780, Note_on_c, 1, 74, 95
3, 3790, Note_on_c, 1, 74, 0
3, 3792, Control_c, 1, 7, 95
3, 3792, Note_on_c, 1, 81, 95
3, 3822, Note_on_c, 1, 81, 0
3, 3828, Control_c, 1, 7, 95
3, 3828, Note_on_c, 1, 76, 95
3, 3838, Note_on_c, 1, 76, 0
3, 3840, Note_on_c, 1, 78, 95
3, 3853, Note_on_c, 1, 78, 0
3, 3856, Note_on_c, 1, 76, 95
3, 3869, Note_on_c, 1, 76, 0
3, 3872, Note_on_c, 1, 74, 95
3, 3885, Note_on_c, 1, 74, 0
3, 3888, Note_on_c, 1, 73, 95
3, 3901, Note_on_c, 1, 73, 0
3, 3904, Note_on_c, 1, 74, 95
3, 3917, Note_on_c, 1, 74, 0
3, 3920, Note_on_c, 1, 76, 95
3, 3933, Note_on_c, 1, 76, 0
3, 3936, Note_on_c, 1, 69, 77
3, 3943, Note_on_c, 1, 69, 0
3, 3944, Note_on_c, 1, 66, 55
3, 3951, Note_on_c, 1, 66, 0
3, 3952, Note_on_c, 1, 67, 62
3, 3959, Note_on_c, 1, 67, 0
3, 3960, Note_on_c, 1, 69, 85
3, 3967, Note_on_c, 1, 69, 0
3, 3968, Note_on_c, 1, 71, 85
3, 3975, Note_on_c, 1, 71, 0
3, 3976, Note_on_c, 1, 73, 56
3, 3983, Note_on_c, 1, 73, 0
3, 3984, Note_on_c, 1, 74, 81
3, 3991, Note_on_c, 1, 74, 0
3, 3992, Note_on_c, 1, 76, 79
3, 3999, Note_on_c, 1, 76, 0
3, 4000, Note_on_c, 1, 74, 78
3, 4007, Note_on_c, 1, 74, 0
3, 4008, Note_on_c, 1, 73, 62
3, 4015, Note_on_c, 1, 73, 0
3, 4016, Note_on_c, 1, 71, 74
3, 4023, Note_on_c, 1, 71, 0
3, 4024, Note_on_c, 1, 69, 85
3, 4031, Note_on_c, 1, 69, 0
3, 4032, Note_on_c, 1, 71, 61
3, 4039, Note_on_c, 1, 71, 0
3, 4040, Note_on_c, 1, 74, 72
3, 4047, Note_on_c, 1, 74, 0
3, 4048, Note_on_c, 1, 73, 49
3, 4055, Note_on_c, 1, 73, 0
3, 4056, Note_on_c, 1, 71, 85
3, 4063, Note_on_c, 1, 71, 0
3, 4064, Note_on_c, 1, 69, 85
3, 4071, Note_on_c, 1, 69, 0
3, 4072, Note_on_c, 1, 67, 44
3, 4079, Note_on_c, 1, 67, 0
3, 4080, Note_on_c, 1, 66, 60
3, 4087, Note_on_c, 1, 66, 0
3, 4088, Note_on_c, 1, 64, 59
3, 4095, Note_on_c, 1, 64, 0
3, 4096, Note_on_c, 1, 66, 46
3, 4103, Note_on_c, 1, 66, 0
3, 4104, Note_on_c, 1, 67, 67
3, 4111, Note_on_c, 1, 67, 0
3, 4112, Note_on_c, 1, 69, 33
3, 4119, Note_on_c, 1, 69, 0
3, 4120, Note_on_c, 1, 66, 60
3, 4127, Note_on_c, 1, 66, 0
3, 4128, Note_on_c, 1, 62, 66
3, 4135, Note_on_c, 1, 62, 0
3, 4136, Note_on_c, 1, 61, 53
3, 4143, Note_on_c, 1, 61, 0
3, 4144, Note_on_c, 1, 62, 85
3, 4151, Note_on_c, 1, 62, 0
3, 4152, Note_on_c, 1, 64, 69
3, 4159, Note_on_c, 1, 64, 0
3, 4160, Note_on_c, 1, 66, 49
3, 4167, Note_on_c, 1, 66, 0
3, 4168, Note_on_c, 1, 67, 60
3, 4175, Note_on_c, 1, 67, 0
3, 4176, Note_on_c, 1, 69, 85
3, 4183, Note_on_c, 1, 69, 0
3, 4184, Note_on_c, 1, 71, 85
3, 4191, Note_on_c, 1, 71, 0
3, 4192, Note_on_c, 1, 69, 85
3, 4199, Note_on_c, 1, 69, 0
3, 4200, Note_on_c, 1, 67, 85
3, 4207, Note_on_c, 1, 67, 0
3, 4208, Note_on_c, 1, 66, 52
3, 4215, Note_on_c, 1, 66, 0
3, 4216, Note_on_c, 1, 64, 79
3, 4223, Note_on_c, 1, 64, 0
3, 4224, Note_on_c, 1, 66, 46
3, 4231, Note_on_c, 1, 66, 0
3, 4232, Note_on_c, 1, 69, 85
3, 4239, Note_on_c, 1, 69, 0
3, 4240, Note_on_c, 1, 67, 72
3, 4247, Note_on_c, 1, 67, 0
3, 4248, Note_on_c, 1, 66, 49
3, 4255, Note_on_c, 1, 66, 0
3, 4256, Note_on_c, 1, 64, 85
3, 4263, Note_on_c, 1, 64, 0
3, 4264, Note_on_c, 1, 62, 68
3, 4271, Note_on_c, 1, 62, 0
3, 4272, Note_on_c, 1, 61, 53
3, 4279, Note_on_c, 1, 61, 0
3, 4280, Note_on_c, 1, 59, 85
3, 4287, Note_on_c, 1, 59, 0
3, 4288, Note_on_c, 1, 61, 59
3, 4295, Note_on_c, 1, 61, 0
3, 4296, Note_on_c, 1, 62, 53
3, 4303, Note_on_c, 1, 62, 0
3, 4304, Note_on_c, 1, 64, 64
3, 4311, Note_on_c, 1, 64, 0
3, 4312, Note_on_c, 1, 61, 50
3, 4319, Note_on_c, 1, 61, 0
3, 4320, Note_on_c, 1, 57, 50
3, 4327, Note_on_c, 1, 57, 0
3, 4328, Note_on_c, 1, 62, 53
3, 4335, Note_on_c, 1, 62, 0
3, 4336, Note_on_c, 1, 64, 56
3, 4343, Note_on_c, 1, 64, 0
3, 4344, Note_on_c, 1, 66, 55
3, 4351, Note_on_c, 1, 66, 0
3, 4352, Note_on_c, 1, 64, 69
3, 4359, Note_on_c, 1, 64, 0
3, 4360, Note_on_c, 1, 62, 59
3, 4367, Note_on_c, 1, 62, 0
3, 4368, Note_on_c, 1, 57, 50
3, 4375, Note_on_c, 1, 57, 0
3, 4376, Note_on_c, 1, 62, 57
3, 4383, Note_on_c, 1, 62, 0
3, 4384, Note_on_c, 1, 64, 76
3, 4391, Note_on_c, 1, 64, 0
3, 4392, Note_on_c, 1, 66, 50
3, 4399, Note_on_c, 1, 66, 0
3, 4400, Note_on_c, 1, 64, 74
3, 4407, Note_on_c, 1, 64, 0
3, 4408, Note_on_c, 1, 62, 85
3, 4415, Note_on_c, 1, 62, 0
3, 4416, Note_on_c, 1, 61, 49
3, 4423, Note_on_c, 1, 61, 0
3, 4424, Note_on_c, 1, 66, 42
3, 4431, Note_on_c, 1, 66, 0
3, 4432, Note_on_c, 1, 67, 65
3, 4439, Note_on_c, 1, 67, 0
3, 4440, Note_on_c, 1, 69, 62
3, 4447, Note_on_c, 1, 69, 0
3, 4448, Note_on_c, 1, 67, 59
3, 4455, Note_on_c, 1, 67, 0
3, 4456, Note_on_c, 1, 66, 53
3, 4463, Note_on_c, 1, 66, 0
3, 4464, Note_on_c, 1, 62, 67
3, 4471, Note_on_c, 1, 62, 0
3, 4472, Note_on_c, 1, 67, 85
3, 4479, Note_on_c, 1, 67, 0
3, 4480, Note_on_c, 1, 69, 67
3, 4487, Note_on_c, 1, 69, 0
3, 4488, Note_on_c, 1, 71, 65
3, 4495, Note_on_c, 1, 71, 0
3, 4496, Note_on_c, 1, 69, 85
3, 4503, Note_on_c, 1, 69, 0
3, 4504, Note_on_c, 1, 67, 79
3, 4511, Note_on_c, 1, 67, 0
3, 4512, Note_on_c, 1, 64, 44
3, 4519, Note_on_c, 1, 64, 0
3, 4520, Note_on_c, 1, 67, 69
3, 4527, Note_on_c, 1, 67, 0
3, 4528, Note_on_c, 1, 69, 79
3, 4535, Note_on_c, 1, 69, 0
3, 4536, Note_on_c, 1, 71, 74
3, 4543, Note_on_c, 1, 71, 0
3, 4544, Note_on_c, 1, 69, 72
3, 4551, Note_on_c, 1, 69, 0
3, 4552, Note_on_c, 1, 67, 74
3, 4559, Note_on_c, 1, 67, 0
3, 4560, Note_on_c, 1, 66, 54
3, 4567, Note_on_c, 1, 66, 0
3, 4568, Note_on_c, 1, 67, 81
3, 4575, Note_on_c, 1, 67, 0
3, 4576, Note_on_c, 1, 69, 44
3, 4583, Note_on_c, 1, 69, 0
3, 4584, Note_on_c, 1, 71, 77
3, 4591, Note_on_c, 1, 71, 0
3, 4592, Note_on_c, 1, 73, 68
3, 4599, Note_on_c, 1, 73, 0
3, 4600, Note_on_c, 1, 69, 85
3, 4607, Note_on_c, 1, 69, 0
3, 4608, Note_on_c, 1, 74, 56
3, 4621, Note_on_c, 1, 74, 0
3, 4624, Note_on_c, 1, 73, 50
3, 4637, Note_on_c, 1, 73, 0
3, 4640, Note_on_c, 1, 71, 85
3, 4653, Note_on_c, 1, 71, 0
3, 4656, Note_on_c, 1, 69, 81
3, 4669, Note_on_c, 1, 69, 0
3, 4672, Note_on_c, 1, 71, 81
3, 4685, Note_on_c, 1, 71, 0
3, 4688, Note_on_c, 1, 67, 50
3, 4701, Note_on_c, 1, 67, 0
3, 4704, Note_on_c, 1, 66, 68
3, 4724, Note_on_c, 1, 66, 0
3, 4752, Note_on_c, 1, 74, 68
3, 4772, Note_on_c, 1, 74, 0
3, 4800, Note_on_c, 1, 74, 68
3, 4820, Note_on_c, 1, 74, 0
3, 4848, Note_on_c, 1, 73, 68
3, 4868, Note_on_c, 1, 73, 0
3, 4896, Note_on_c, 1, 74, 79
3, 4901, Note_on_c, 1, 74, 0
3, 4902, Note_on_c, 1, 76, 79
3, 4907, Note_on_c, 1, 76, 0
3, 4908, Note_on_c, 1, 74, 79
3, 4913, Note_on_c, 1, 74, 0
3, 4914, Note_on_c, 1, 76, 79
3, 4919, Note_on_c, 1, 76, 0
3, 4920, Note_on_c, 1, 74, 79
3, 4925, Note_on_c, 1, 74, 0
3, 4926, Note_on_c, 1, 76, 79
3, 4931, Note_on_c, 1, 76, 0
3, 4932, Note_on_c, 1, 74, 79
3, 4937, Note_on_c, 1, 74, 0
3, 4938, Note_on_c, 1, 76, 79
3, 4943, Note_on_c, 1, 76, 0
3, 4944, Note_on_c, 1, 74, 79
3, 4949, Note_on_c, 1, 74, 0
3, 4950, Note_on_c, 1, 76, 79
3, 4955, Note_on_c, 1, 76, 0
3, 4956, Note_on_c, 1, 74, 79
3, 4961, Note_on_c, 1, 74, 0
3, 4962, Note_on_c, 1, 76, 79
3, 4967, Note_on_c, 1, 76, 0
3, 4968, Note_on_c, 1, 74, 79
3, 4973, Note_on_c, 1, 74, 0
3, 4974, Note_on_c, 1, 76, 79
3, 4979, Note_on_c, 1, 76, 0
3, 4980, Note_on_c, 1, 74, 79
3, 4985, Note_on_c, 1, 74, 0
3, 4986, Note_on_c, 1, 76, 79
3, 4991, Note_on_c, 1, 76, 0
3, 4992, Note_on_c, 1, 74, 79
3, 5005, Note_on_c, 1, 74, 0
3, 5008, Note_on_c, 1, 78, 79
3, 5021, Note_on_c, 1, 78, 0
3, 5024, Note_on_c, 1, 76, 79
3, 5037, Note_on_c, 1, 76, 0
3, 5040, Note_on_c, 1, 74, 79
3, 5053, Note_on_c, 1, 74, 0
3, 5056, Note_on_c, 1, 73, 79
3, 5069, Note_on_c, 1, 73, 0
3, 5072, Note_on_c, 1, 71, 79
3, 5085, Note_on_c, 1, 71, 0
3, 5088, Note_on_c, 1, 69, 85
3, 5093, Note_on_c, 1, 69, 0
3, 5094, Note_on_c, 1, 71, 85
3, 5099, Note_on_c, 1, 71, 0
3, 5100, Note_on_c, 1, 69, 85
3, 5105, Note_on_c, 1, 69, 0
3, 5106, Note_on_c, 1, 71, 85
3, 5111, Note_on_c, 1, 71, 0
3, 5112, Note_on_c, 1, 69, 85
3, 5117, Note_on_c, 1, 69, 0
3, 5118, Note_on_c, 1, 71, 85
3, 5123, Note_on_c, 1, 71, 0
3, 5124, Note_on_c, 1, 69, 85
3, 5129, Note_on_c, 1, 69, 0
3, 5130, Note_on_c, 1, 71, 85
3, 5135, Note_on_c, 1, 71, 0
3, 5136, Note_on_c, 1, 69, 85
3, 5141, Note_on_c, 1, 69, 0
3, 5142, Note_on_c, 1, 71, 85
3, 5147, Note_on_c, 1, 71, 0
3, 5148, Note_on_c, 1, 69, 85
3, 5153, Note_on_c, 1, 69, 0
3, 5154, Note_on_c, 1, 71, 85
3, 5159, Note_on_c, 1, 71, 0
3, 5160, Note_on_c, 1, 69, 85
3, 5165, Note_on_c, 1, 69, 0
3, 5166, Note_on_c, 1, 71, 85
3, 5171, Note_on_c, 1, 71, 0
3, 5172, Note_on_c, 1, 69, 85
3, 5177, Note_on_c, 1, 69, 0
3, 5178, Note_on_c, 1, 71, 85
3, 5183, Note_on_c, 1, 71, 0
3, 5184, Note_on_c, 1, 69, 79
3, 5195, Note_on_c, 1, 69, 0
3, 5200, Note_on_c, 1, 66, 79
3, 5211, Note_on_c, 1, 66, 0
3, 5216, Note_on_c, 1, 67, 79
3, 5227, Note_on_c, 1, 67, 0
3, 5232, Note_on_c, 1, 69, 79
3, 5243, Note_on_c, 1, 69, 0
3, 5248, Note_on_c, 1, 67, 79
3, 5259, Note_on_c, 1, 67, 0
3, 5264, Note_on_c, 1, 69, 79
3, 5275, Note_on_c, 1, 69, 0
3, 5280, Note_on_c, 1, 71, 72
3, 5296, Note_on_c, 1, 71, 0
3, 5296, Note_on_c, 1, 74, 71
3, 5312, Note_on_c, 1, 74, 0
3, 5312, Note_on_c, 1, 73, 64
3, 5328, Note_on_c, 1, 73, 0
3, 5328, Note_on_c, 1, 71, 81
3, 5344, Note_on_c, 1, 71, 0
3, 5344, Note_on_c, 1, 74, 85
3, 5360, Note_on_c, 1, 74, 0
3, 5360, Note_on_c, 1, 73, 59
3, 5376, Note_on_c, 1, 73, 0
3, 5376, Note_on_c, 1, 71, 78
3, 5392, Note_on_c, 1, 71, 0
3, 5392, Note_on_c, 1, 68, 55
3, 5408, Note_on_c, 1, 68, 0
3, 5408, Note_on_c, 1, 69, 85
3, 5424, Note_on_c, 1, 69, 0
3, 5424, Note_on_c, 1, 71, 85
3, 5440, Note_on_c, 1, 71, 0
3, 5440, Note_on_c, 1, 69, 85
3, 5456, Note_on_c, 1, 69, 0
3, 5456, Note_on_c, 1, 71, 82
3, 5472, Note_on_c, 1, 71, 0
3, 5472, Note_on_c, 1, 73, 76
3, 5488, Note_on_c, 1, 73, 0
3, 5520, Note_on_c, 1, 69, 76
3, 5528, Note_on_c, 1, 79, 76
3, 5536, Note_on_c, 1, 69, 0
3, 5536, Note_on_c, 1, 79, 0
3, 5536, Note_on_c, 1, 78, 76
3, 5544, Note_on_c, 1, 78, 0
3, 5544, Note_on_c, 1, 76, 76
3, 5552, Note_on_c, 1, 76, 0
3, 5552, Note_on_c, 1, 74, 76
3, 5560, Note_on_c, 1, 74, 0
3, 5560, Note_on_c, 1, 73, 76
3, 5568, Note_on_c, 1, 73, 0
3, 5568, Note_on_c, 1, 74, 76
3, 5584, Note_on_c, 1, 74, 0
3, 5608, Note_on_c, 1, 67, 85
3, 5624, Note_on_c, 1, 67, 0
3, 5624, Note_on_c, 1, 78, 76
3, 5632, Note_on_c, 1, 78, 0
3, 5632, Note_on_c, 1, 76, 76
3, 5640, Note_on_c, 1, 76, 0
3, 5640, Note_on_c, 1, 74, 76
3, 5648, Note_on_c, 1, 74, 0
3, 5648, Note_on_c, 1, 73, 76
3, 5656, Note_on_c, 1, 73, 0
3, 5656, Note_on_c, 1, 71, 76
3, 5664, Note_on_c, 1, 71, 0
3, 5664, Note_on_c, 1, 73, 76
3, 5680, Note_on_c, 1, 73, 0
3, 5720, Note_on_c, 1, 76, 85
3, 5728, Note_on_c, 1, 76, 0
3, 5728, Note_on_c, 1, 74, 85
3, 5736, Note_on_c, 1, 74, 0
3, 5736, Note_on_c, 1, 72, 85
3, 5744, Note_on_c, 1, 72, 0
3, 5744, Note_on_c, 1, 71, 85
3, 5752, Note_on_c, 1, 71, 0
3, 5752, Note_on_c, 1, 69, 85
3, 5760, Note_on_c, 1, 69, 0
3, 5760, Note_on_c, 1, 71, 72
3, 5768, Note_on_c, 1, 71, 0
3, 5768, Note_on_c, 1, 72, 82
3, 5776, Note_on_c, 1, 72, 0
3, 5776, Note_on_c, 1, 71, 74
3, 5784, Note_on_c, 1, 71, 0
3, 5784, Note_on_c, 1, 69, 85
3, 5792, Note_on_c, 1, 69, 0
3, 5792, Note_on_c, 1, 67, 85
3, 5800, Note_on_c, 1, 67, 0
3, 5800, Note_on_c, 1, 66, 59
3, 5808, Note_on_c, 1, 66, 0
3, 5808, Note_on_c, 1, 64, 59
3, 5816, Note_on_c, 1, 64, 0
3, 5816, Note_on_c, 1, 66, 59
3, 5824, Note_on_c, 1, 66, 0
3, 5824, Note_on_c, 1, 64, 71
3, 5832, Note_on_c, 1, 64, 0
3, 5832, Note_on_c, 1, 62, 42
3, 5840, Note_on_c, 1, 62, 0
3, 5840, Note_on_c, 1, 61, 54
3, 5848, Note_on_c, 1, 61, 0
3, 5848, Note_on_c, 1, 64, 61
3, 5848, Note_on_c, 1, 67, 79
3, 5848, Note_on_c, 1, 71, 81
3, 5856, Note_on_c, 1, 64, 0
3, 5856, Note_on_c, 1, 67, 0
3, 5856, Note_on_c, 1, 71, 0
3, 5856, Note_on_c, 1, 64, 103
3, 5856, Note_on_c, 1, 69, 107
3, 5856, Note_on_c, 1, 67, 106
3, 5856, Note_on_c, 1, 73, 94
3, 5880, Note_on_c, 1, 64, 0
3, 5880, Note_on_c, 1, 67, 0
3, 5880, Note_on_c, 1, 69, 0
3, 5880, Note_on_c, 1, 73, 0
3, 5904, Note_on_c, 1, 66, 89
3, 5904, Note_on_c, 1, 69, 103
3, 5904, Note_on_c, 1, 74, 103
3, 5928, Note_on_c, 1, 66, 0
3, 5928, Note_on_c, 1, 69, 0
3, 5928, Note_on_c, 1, 74, 0
3, 5952, Note_on_c, 1, 66, 81
3, 5952, Note_on_c, 1, 71, 103
3, 5952, Note_on_c, 1, 74, 103
3, 5988, Note_on_c, 1, 66, 0
3, 5988, Note_on_c, 1, 71, 0
3, 5988, Note_on_c, 1, 74, 0
3, 5988, Note_on_c, 1, 64, 103
3, 5988, Note_on_c, 1, 71, 103
3, 5988, Note_on_c, 1, 74, 103
3, 6000, Note_on_c, 1, 64, 0
3, 6000, Note_on_c, 1, 71, 0
3, 6000, Note_on_c, 1, 74, 0
3, 6000, Note_on_c, 1, 64, 103
3, 6000, Note_on_c, 1, 69, 108
3, 6000, Note_on_c, 1, 73, 96
3, 6036, Note_on_c, 1, 64, 0
3, 6036, Note_on_c, 1, 69, 0
3, 6036, Note_on_c, 1, 73, 0
3, 6036, Note_on_c, 1, 67, 106
3, 6036, Note_on_c, 1, 64, 103
3, 6036, Note_on_c, 1, 73, 89
3, 6048, Note_on_c, 1, 64, 0
3, 6048, Note_on_c, 1, 67, 0
3, 6048, Note_on_c, 1, 73, 0
3, 6048, Note_on_c, 1, 66, 92
3, 6048, Note_on_c, 1, 62, 103
3, 6048, Note_on_c, 1, 69, 106
3, 6048, Note_on_c, 1, 74, 103
3, 6072, Note_on_c, 1, 62, 0
3, 6072, Note_on_c, 1, 66, 0
3, 6072, Note_on_c, 1, 69, 0
3, 6072, Note_on_c, 1, 74, 0
3, 6372, Note_on_c, 1, 67, 103
3, 6380, Note_on_c, 1, 67, 0
3, 6384, Note_on_c, 1, 74, 96
3, 6408, Note_on_c, 1, 74, 0
3, 6420, Note_on_c, 1, 69, 103
3, 6428, Note_on_c, 1, 69, 0
3, 6432, Note_on_c, 1, 71, 33
3, 6437, Note_on_c, 1, 71, 0
3, 6438, Note_on_c, 1, 73, 55
3, 6443, Note_on_c, 1, 73, 0
3, 6444, Note_on_c, 1, 71, 54
3, 6449, Note_on_c, 1, 71, 0
3, 6450, Note_on_c, 1, 73, 54
3, 6455, Note_on_c, 1, 73, 0
3, 6456, Note_on_c, 1, 71, 65
3, 6461, Note_on_c, 1, 71, 0
3, 6462, Note_on_c, 1, 73, 56
3, 6467, Note_on_c, 1, 73, 0
3, 6468, Note_on_c, 1, 71, 43
3, 6473, Note_on_c, 1, 71, 0
3, 6474, Note_on_c, 1, 73, 54
3, 6479, Note_on_c, 1, 73, 0
3, 6480, Note_on_c, 1, 71, 68
3, 6485, Note_on_c, 1, 71, 0
3, 6486, Note_on_c, 1, 73, 65
3, 6491, Note_on_c, 1, 73, 0
3, 6492, Note_on_c, 1, 71, 85
3, 6497, Note_on_c, 1, 71, 0
3, 6498, Note_on_c, 1, 73, 76
3, 6503, Note_on_c, 1, 73, 0
3, 6504, Note_on_c, 1, 71, 85
3, 6509, Note_on_c, 1, 71, 0
3, 6510, Note_on_c, 1, 73, 62
3, 6515, Note_on_c, 1, 73, 0
3, 6516, Note_on_c, 1, 71, 81
3, 6521, Note_on_c, 1, 71, 0
3, 6522, Note_on_c, 1, 73, 55
3, 6527, Note_on_c, 1, 73, 0
3, 6528, Note_on_c, 1, 71, 98
3, 6536, Note_on_c, 1, 71, 0
3, 6544, Note_on_c, 1, 74, 98
3, 6552, Note_on_c, 1, 74, 0
3, 6560, Note_on_c, 1, 73, 73
3, 6568, Note_on_c, 1, 73, 0
3, 6576, Note_on_c, 1, 71, 96
3, 6584, Note_on_c, 1, 71, 0
3, 6592, Note_on_c, 1, 74, 103
3, 6600, Note_on_c, 1, 74, 0
3, 6608, Note_on_c, 1, 73, 84
3, 6616, Note_on_c, 1, 73, 0
3, 6624, Note_on_c, 1, 71, 46
3, 6629, Note_on_c, 1, 71, 0
3, 6630, Note_on_c, 1, 73, 67
3, 6635, Note_on_c, 1, 73, 0
3, 6636, Note_on_c, 1, 71, 85
3, 6641, Note_on_c, 1, 71, 0
3, 6642, Note_on_c, 1, 73, 71
3, 6647, Note_on_c, 1, 73, 0
3, 6648, Note_on_c, 1, 71, 85
3, 6653, Note_on_c, 1, 71, 0
3, 6654, Note_on_c, 1, 73, 68
3, 6659, Note_on_c, 1, 73, 0
3, 6660, Note_on_c, 1, 71, 85
3, 6665, Note_on_c, 1, 71, 0
3, 6666, Note_on_c, 1, 73, 72
3, 6671, Note_on_c, 1, 73, 0
3, 6672, Note_on_c, 1, 71, 85
3, 6677, Note_on_c, 1, 71, 0
3, 6678, Note_on_c, 1, 73, 76
3, 6683, Note_on_c, 1, 73, 0
3, 6684, Note_on_c, 1, 71, 85
3, 6689, Note_on_c, 1, 71, 0
3, 6690, Note_on_c, 1, 73, 76
3, 6695, Note_on_c, 1, 73, 0
3, 6696, Note_on_c, 1, 71, 85
3, 6701, Note_on_c, 1, 71, 0
3, 6702, Note_on_c, 1, 73, 68
3, 6707, Note_on_c, 1, 73, 0
3, 6708, Note_on_c, 1, 71, 76
3, 6713, Note_on_c, 1, 71, 0
3, 6714, Note_on_c, 1, 73, 74
3, 6719, Note_on_c, 1, 73, 0
3, 6720, Note_on_c, 1, 71, 98
3, 6728, Note_on_c, 1, 71, 0
3, 6736, Note_on_c, 1, 74, 89
3, 6744, Note_on_c, 1, 74, 0
3, 6752, Note_on_c, 1, 73, 84
3, 6760, Note_on_c, 1, 73, 0
3, 6768, Note_on_c, 1, 71, 103
3, 6776, Note_on_c, 1, 71, 0
3, 6784, Note_on_c, 1, 69, 103
3, 6792, Note_on_c, 1, 69, 0
3, 6800, Note_on_c, 1, 68, 85
3, 6808, Note_on_c, 1, 68, 0
3, 6816, Note_on_c, 1, 69, 103
3, 6824, Note_on_c, 1, 69, 0
3, 6832, Note_on_c, 1, 76, 92
3, 6840, Note_on_c, 1, 76, 0
3, 6848, Note_on_c, 1, 74, 103
3, 6856, Note_on_c, 1, 74, 0
3, 6864, Note_on_c, 1, 73, 82
3, 6872, Note_on_c, 1, 73, 0
3, 6880, Note_on_c, 1, 71, 100
3, 6888, Note_on_c, 1, 71, 0
3, 6896, Note_on_c, 1, 69, 103
3, 6904, Note_on_c, 1, 69, 0
3, 6912, Note_on_c, 1, 74, 103
3, 6920, Note_on_c, 1, 74, 0
3, 6928, Note_on_c, 1, 78, 88
3, 6936, Note_on_c, 1, 78, 0
3, 6944, Note_on_c, 1, 76, 98
3, 6952, Note_on_c, 1, 76, 0
3, 6960, Note_on_c, 1, 74, 103
3, 6968, Note_on_c, 1, 74, 0
3, 6976, Note_on_c, 1, 73, 84
3, 6984, Note_on_c, 1, 73, 0
3, 6992, Note_on_c, 1, 71, 84
3, 7000, Note_on_c, 1, 71, 0
3, 7008, Note_on_c, 1, 76, 103
3, 7016, Note_on_c, 1, 76, 0
3, 7024, Note_on_c, 1, 79, 103
3, 7032, Note_on_c, 1, 79, 0
3, 7040, Note_on_c, 1, 78, 91
3, 7048, Note_on_c, 1, 78, 0
3, 7056, Note_on_c, 1, 76, 103
3, 7064, Note_on_c, 1, 76, 0
3, 7072, Note_on_c, 1, 74, 103
3, 7080, Note_on_c, 1, 74, 0
3, 7088, Note_on_c, 1, 73, 84
3, 7096, Note_on_c, 1, 73, 0
3, 7104, Note_on_c, 1, 78, 103
3, 7112, Note_on_c, 1, 78, 0
3, 7488, Control_c, 1, 7, 73
3, 7488, Note_on_c, 1, 66, 67
3, 7496, Note_on_c, 1, 66, 0
3, 7504, Note_on_c, 1, 71, 78
3, 7512, Note_on_c, 1, 71, 0
3, 7520, Note_on_c, 1, 74, 92
3, 7528, Note_on_c, 1, 74, 0
3, 7536, Control_c, 1, 7, 74
3, 7536, Note_on_c, 1, 74, 91
3, 7544, Note_on_c, 1, 74, 0
3, 7552, Note_on_c, 1, 73, 78
3, 7560, Note_on_c, 1, 73, 0
3, 7568, Note_on_c, 1, 74, 103
3, 7576, Note_on_c, 1, 74, 0
3, 7584, Note_on_c, 1, 66, 82
3, 7592, Note_on_c, 1, 66, 0
3, 7600, Note_on_c, 1, 71, 103
3, 7608, Note_on_c, 1, 71, 0
3, 7616, Note_on_c, 1, 74, 103
3, 7624, Note_on_c, 1, 74, 0
3, 7632, Note_on_c, 1, 74, 88
3, 7640, Note_on_c, 1, 74, 0
3, 7648, Note_on_c, 1, 73, 89
3, 7656, Note_on_c, 1, 73, 0
3, 7664, Note_on_c, 1, 74, 100
3, 7672, Note_on_c, 1, 74, 0
3, 7680, Note_on_c, 1, 67, 103
3, 7688, Note_on_c, 1, 67, 0
3, 7696, Note_on_c, 1, 70, 84
3, 7704, Note_on_c, 1, 70, 0
3, 7712, Note_on_c, 1, 71, 81
3, 7720, Note_on_c, 1, 71, 0
3, 7728, Note_on_c, 1, 73, 84
3, 7736, Note_on_c, 1, 73, 0
3, 7744, Note_on_c, 1, 70, 82
3, 7752, Note_on_c, 1, 70, 0
3, 7760, Note_on_c, 1, 71, 84
3, 7768, Note_on_c, 1, 71, 0
3, 7776, Note_on_c, 1, 64, 103
3, 7784, Note_on_c, 1, 64, 0
3, 7792, Note_on_c, 1, 70, 84
3, 7800, Note_on_c, 1, 70, 0
3, 7808, Note_on_c, 1, 73, 77
3, 7816, Note_on_c, 1, 73, 0
3, 7824, Note_on_c, 1, 73, 81
3, 7832, Note_on_c, 1, 73, 0
3, 7840, Note_on_c, 1, 71, 103
3, 7848, Note_on_c, 1, 71, 0
3, 7856, Note_on_c, 1, 73, 69
3, 7864, Note_on_c, 1, 73, 0
3, 7872, Note_on_c, 1, 66, 80
3, 7880, Note_on_c, 1, 66, 0
3, 7888, Note_on_c, 1, 71, 103
3, 7896, Note_on_c, 1, 71, 0
3, 7904, Note_on_c, 1, 74, 103
3, 7912, Note_on_c, 1, 74, 0
3, 7920, Note_on_c, 1, 74, 100
3, 7928, Note_on_c, 1, 74, 0
3, 7936, Note_on_c, 1, 73, 85
3, 7944, Note_on_c, 1, 73, 0
3, 7952, Note_on_c, 1, 74, 100
3, 7960, Note_on_c, 1, 74, 0
3, 7968, Note_on_c, 1, 64, 88
3, 7976, Note_on_c, 1, 64, 0
3, 7984, Note_on_c, 1, 67, 96
3, 7992, Note_on_c, 1, 67, 0
3, 8000, Note_on_c, 1, 73, 68
3, 8008, Note_on_c, 1, 73, 0
3, 8016, Note_on_c, 1, 73, 71
3, 8024, Note_on_c, 1, 73, 0
3, 8032, Note_on_c, 1, 70, 84
3, 8040, Note_on_c, 1, 70, 0
3, 8048, Note_on_c, 1, 71, 103
3, 8056, Note_on_c, 1, 71, 0
3, 8064, Note_on_c, 1, 73, 73
3, 8072, Note_on_c, 1, 73, 0
3, 8080, Note_on_c, 1, 70, 77
3, 8088, Note_on_c, 1, 70, 0
3, 8096, Note_on_c, 1, 71, 103
3, 8104, Note_on_c, 1, 71, 0
3, 8112, Note_on_c, 1, 66, 71
3, 8120, Note_on_c, 1, 66, 0
3, 8128, Note_on_c, 1, 71, 74
3, 8136, Note_on_c, 1, 71, 0
3, 8144, Note_on_c, 1, 70, 84
3, 8152, Note_on_c, 1, 70, 0
3, 8160, Note_on_c, 1, 71, 103
3, 8172, Note_on_c, 1, 71, 0
3, 8448, Note_on_c, 1, 71, 63
3, 8456, Note_on_c, 1, 71, 0
3, 8464, Note_on_c, 1, 78, 63
3, 8472, Note_on_c, 1, 78, 0
3, 8480, Note_on_c, 1, 83, 63
3, 8488, Note_on_c, 1, 83, 0
3, 8496, Note_on_c, 1, 83, 63
3, 8504, Note_on_c, 1, 83, 0
3, 8512, Note_on_c, 1, 82, 63
3, 8520, Note_on_c, 1, 82, 0
3, 8528, Note_on_c, 1, 83, 63
3, 8536, Note_on_c, 1, 83, 0
3, 8544, Note_on_c, 1, 74, 85
3, 8552, Note_on_c, 1, 74, 0
3, 8560, Note_on_c, 1, 78, 52
3, 8568, Note_on_c, 1, 78, 0
3, 8576, Note_on_c, 1, 83, 62
3, 8584, Note_on_c, 1, 83, 0
3, 8592, Note_on_c, 1, 83, 62
3, 8600, Note_on_c, 1, 83, 0
3, 8608, Note_on_c, 1, 82, 66
3, 8616, Note_on_c, 1, 82, 0
3, 8624, Note_on_c, 1, 83, 85
3, 8632, Note_on_c, 1, 83, 0
3, 8640, Note_on_c, 1, 76, 85
3, 8648, Note_on_c, 1, 76, 0
3, 8656, Note_on_c, 1, 78, 59
3, 8664, Note_on_c, 1, 78, 0
3, 8672, Note_on_c, 1, 79, 85
3, 8680, Note_on_c, 1, 79, 0
3, 8688, Note_on_c, 1, 76, 79
3, 8696, Note_on_c, 1, 76, 0
3, 8704, Note_on_c, 1, 78, 40
3, 8712, Note_on_c, 1, 78, 0
3, 8720, Note_on_c, 1, 74, 62
3, 8728, Note_on_c, 1, 74, 0
3, 8736, Note_on_c, 1, 73, 59
3, 8744, Note_on_c, 1, 73, 0
3, 8752, Note_on_c, 1, 76, 61
3, 8760, Note_on_c, 1, 76, 0
3, 8768, Note_on_c, 1, 82, 65
3, 8776, Note_on_c, 1, 82, 0
3, 8784, Note_on_c, 1, 82, 62
3, 8792, Note_on_c, 1, 82, 0
3, 8800, Note_on_c, 1, 80, 65
3, 8808, Note_on_c, 1, 80, 0
3, 8816, Note_on_c, 1, 82, 66
3, 8824, Note_on_c, 1, 82, 0
3, 8832, Note_on_c, 1, 74, 85
3, 8840, Note_on_c, 1, 74, 0
3, 8848, Note_on_c, 1, 78, 55
3, 8856, Note_on_c, 1, 78, 0
3, 8864, Note_on_c, 1, 83, 85
3, 8872, Note_on_c, 1, 83, 0
3, 8880, Note_on_c, 1, 83, 85
3, 8888, Note_on_c, 1, 83, 0
3, 8896, Note_on_c, 1, 82, 70
3, 8904, Note_on_c, 1, 82, 0
3, 8912, Note_on_c, 1, 83, 85
3, 8920, Note_on_c, 1, 83, 0
3, 8928, Note_on_c, 1, 79, 85
3, 8936, Note_on_c, 1, 79, 0
3, 8944, Note_on_c, 1, 76, 85
3, 8952, Note_on_c, 1, 76, 0
3, 8960, Note_on_c, 1, 73, 65
3, 8968, Note_on_c, 1, 73, 0
3, 8976, Note_on_c, 1, 70, 61
3, 8984, Note_on_c, 1, 70, 0
3, 8992, Note_on_c, 1, 73, 70
3, 9000, Note_on_c, 1, 73, 0
3, 9008, Note_on_c, 1, 71, 85
3, 9016, Note_on_c, 1, 71, 0
3, 9024, Note_on_c, 1, 70, 67
3, 9032, Note_on_c, 1, 70, 0
3, 9040, Note_on_c, 1, 73, 62
3, 9048, Note_on_c, 1, 73, 0
3, 9056, Note_on_c, 1, 71, 85
3, 9064, Note_on_c, 1, 71, 0
3, 9072, Note_on_c, 1, 70, 61
3, 9080, Note_on_c, 1, 70, 0
3, 9088, Note_on_c, 1, 71, 85
3, 9096, Note_on_c, 1, 71, 0
3, 9104, Note_on_c, 1, 73, 70
3, 9112, Note_on_c, 1, 73, 0
3, 9120, Note_on_c, 1, 74, 85
3, 9132, Note_on_c, 1, 74, 0
3, 9408, Control_c, 1, 7, 95
3, 9444, Note_on_c, 1, 73, 52
3, 9454, Note_on_c, 1, 73, 0
3, 9456, Control_c, 1, 7, 95
3, 9456, Note_on_c, 1, 78, 68
3, 9486, Note_on_c, 1, 78, 0
3, 9492, Note_on_c, 1, 73, 60
3, 9502, Note_on_c, 1, 73, 0
3, 9504, Note_on_c, 1, 74, 85
3, 9624, Note_on_c, 1, 74, 0
3, 9636, Note_on_c, 1, 74, 33
3, 9648, Note_on_c, 1, 74, 0
3, 9648, Note_on_c, 1, 76, 85
3, 9661, Note_on_c, 1, 76, 0
3, 9664, Note_on_c, 1, 73, 66
3, 9677, Note_on_c, 1, 73, 0
3, 9680, Note_on_c, 1, 74, 85
3, 9693, Note_on_c, 1, 74, 0
3, 9696, Note_on_c, 1, 73, 67
3, 9816, Note_on_c, 1, 73, 0
3, 9828, Note_on_c, 1, 73, 79
3, 9838, Note_on_c, 1, 73, 0
3, 9840, Note_on_c, 1, 78, 68
3, 9870, Note_on_c, 1, 78, 0
3, 9876, Note_on_c, 1, 74, 85
3, 9886, Note_on_c, 1, 74, 0
3, 9888, Note_on_c, 1, 71, 62
3, 9891, Note_on_c, 1, 71, 0
3, 9892, Note_on_c, 1, 73, 64
3, 9895, Note_on_c, 1, 73, 0
3, 9896, Note_on_c, 1, 71, 81
3, 9899, Note_on_c, 1, 71, 0
3, 9900, Note_on_c, 1, 73, 64
3, 9903, Note_on_c, 1, 73, 0
3, 9904, Note_on_c, 1, 71, 85
3, 9907, Note_on_c, 1, 71, 0
3, 9908, Note_on_c, 1, 73, 65
3, 9911, Note_on_c, 1, 73, 0
3, 9912, Note_on_c, 1, 71, 85
3, 9915, Note_on_c, 1, 71, 0
3, 9916, Note_on_c, 1, 73, 64
3, 9919, Note_on_c, 1, 73, 0
3, 9920, Note_on_c, 1, 71, 69
3, 9923, Note_on_c, 1, 71, 0
3, 9924, Note_on_c, 1, 73, 43
3, 9927, Note_on_c, 1, 73, 0
3, 9928, Note_on_c, 1, 71, 85
3, 9931, Note_on_c, 1, 71, 0
3, 9932, Note_on_c, 1, 73, 55
3, 9935, Note_on_c, 1, 73, 0
3, 9936, Note_on_c, 1, 71, 85
3, 9939, Note_on_c, 1, 71, 0
3, 9940, Note_on_c, 1, 73, 67
3, 9943, Note_on_c, 1, 73, 0
3, 9944, Note_on_c, 1, 71, 85
3, 9947, Note_on_c, 1, 71, 0
3, 9948, Note_on_c, 1, 73, 72
3, 9951, Note_on_c, 1, 73, 0
3, 9952, Note_on_c, 1, 71, 85
3, 9955, Note_on_c, 1, 71, 0
3, 9956, Note_on_c, 1, 73, 82
3, 9959, Note_on_c, 1, 73, 0
3, 9960, Note_on_c, 1, 71, 85
3, 9963, Note_on_c, 1, 71, 0
3, 9964, Note_on_c, 1, 73, 81
3, 9967, Note_on_c, 1, 73, 0
3, 9968, Note_on_c, 1, 71, 85
3, 9971, Note_on_c, 1, 71, 0
3, 9972, Note_on_c, 1, 73, 81
3, 9975, Note_on_c, 1, 73, 0
3, 9976, Note_on_c, 1, 71, 85
3, 9979, Note_on_c, 1, 71, 0
3, 9980, Note_on_c, 1, 73, 86
3, 9983, Note_on_c, 1, 73, 0
3, 9984, Note_on_c, 1, 71, 95
3, 9997, Note_on_c, 1, 71, 0
3, 10000, Note_on_c, 1, 73, 95
3, 10013, Note_on_c, 1, 73, 0
3, 10016, Note_on_c, 1, 74, 95
3, 10029, Note_on_c, 1, 74, 0
3, 10032, Note_on_c, 1, 73, 95
3, 10045, Note_on_c, 1, 73, 0
3, 10048, Note_on_c, 1, 74, 95
3, 10061, Note_on_c, 1, 74, 0
3, 10064, Note_on_c, 1, 71, 95
3, 10077, Note_on_c, 1, 71, 0
3, 10080, Note_on_c, 1, 69, 95
3, 10093, Note_on_c, 1, 69, 0
3, 10096, Note_on_c, 1, 66, 95
3, 10109, Note_on_c, 1, 66, 0
3, 10112, Note_on_c, 1, 68, 95
3, 10125, Note_on_c, 1, 68, 0
3, 10128, Note_on_c, 1, 69, 95
3, 10141, Note_on_c, 1, 69, 0
3, 10144, Note_on_c, 1, 73, 95
3, 10157, Note_on_c, 1, 73, 0
3, 10160, Note_on_c, 1, 71, 95
3, 10173, Note_on_c, 1, 71, 0
3, 10176, Note_on_c, 1, 73, 95
3, 10196, Note_on_c, 1, 73, 0
3, 10288, Note_on_c, 1, 64, 95
3, 10301, Note_on_c, 1, 64, 0
3, 10304, Note_on_c, 1, 66, 95
3, 10317, Note_on_c, 1, 66, 0
3, 10320, Note_on_c, 1, 68, 95
3, 10333, Note_on_c, 1, 68, 0
3, 10336, Note_on_c, 1, 71, 95
3, 10349, Note_on_c, 1, 71, 0
3, 10352, Note_on_c, 1, 69, 95
3, 10365, Note_on_c, 1, 69, 0
3, 10368, Note_on_c, 1, 71, 95
3, 10388, Note_on_c, 1, 71, 0
3, 10480, Note_on_c, 1, 62, 85
3, 10493, Note_on_c, 1, 62, 0
3, 10496, Note_on_c, 1, 64, 85
3, 10509, Note_on_c, 1, 64, 0
3, 10512, Note_on_c, 1, 66, 60
3, 10525, Note_on_c, 1, 66, 0
3, 10528, Note_on_c, 1, 69, 85
3, 10541, Note_on_c, 1, 69, 0
3, 10544, Note_on_c, 1, 68, 65
3, 10557, Note_on_c, 1, 68, 0
3, 10560, Note_on_c, 1, 69, 85
3, 10573, Note_on_c, 1, 69, 0
3, 10576, Note_on_c, 1, 61, 64
3, 10589, Note_on_c, 1, 61, 0
3, 10592, Note_on_c, 1, 63, 67
3, 10605, Note_on_c, 1, 63, 0
3, 10608, Note_on_c, 1, 65, 85
3, 10621, Note_on_c, 1, 65, 0
3, 10624, Note_on_c, 1, 68, 64
3, 10637, Note_on_c, 1, 68, 0
3, 10640, Note_on_c, 1, 66, 66
3, 10653, Note_on_c, 1, 66, 0
3, 10656, Note_on_c, 1, 68, 68
3, 10669, Note_on_c, 1, 68, 0
3, 10672, Note_on_c, 1, 71, 85
3, 10685, Note_on_c, 1, 71, 0
3, 10688, Note_on_c, 1, 69, 85
3, 10701, Note_on_c, 1, 69, 0
3, 10704, Note_on_c, 1, 68, 62
3, 10717, Note_on_c, 1, 68, 0
3, 10720, Note_on_c, 1, 71, 85
3, 10733, Note_on_c, 1, 71, 0
3, 10736, Note_on_c, 1, 69, 85
3, 10749, Note_on_c, 1, 69, 0
3, 10752, Note_on_c, 1, 68, 39
3, 10755, Note_on_c, 1, 68, 0
3, 10756, Note_on_c, 1, 69, 52
3, 10759, Note_on_c, 1, 69, 0
3, 10760, Note_on_c, 1, 68, 60
3, 10763, Note_on_c, 1, 68, 0
3, 10764, Note_on_c, 1, 69, 85
3, 10767, Note_on_c, 1, 69, 0
3, 10768, Note_on_c, 1, 68, 65
3, 10771, Note_on_c, 1, 68, 0
3, 10772, Note_on_c, 1, 69, 85
3, 10775, Note_on_c, 1, 69, 0
3, 10776, Note_on_c, 1, 68, 68
3, 10779, Note_on_c, 1, 68, 0
3, 10780, Note_on_c, 1, 69, 81
3, 10783, Note_on_c, 1, 69, 0
3, 10784, Note_on_c, 1, 68, 62
3, 10787, Note_on_c, 1, 68, 0
3, 10788, Note_on_c, 1, 69, 85
3, 10791, Note_on_c, 1, 69, 0
3, 10792, Note_on_c, 1, 68, 66
3, 10795, Note_on_c, 1, 68, 0
3, 10796, Note_on_c, 1, 69, 85
3, 10799, Note_on_c, 1, 69, 0
3, 10800, Note_on_c, 1, 68, 66
3, 10803, Note_on_c, 1, 68, 0
3, 10804, Note_on_c, 1, 69, 85
3, 10807, Note_on_c, 1, 69, 0
3, 10808, Note_on_c, 1, 68, 70
3, 10811, Note_on_c, 1, 68, 0
3, 10812, Note_on_c, 1, 69, 85
3, 10815, Note_on_c, 1, 69, 0
3, 10816, Note_on_c, 1, 68, 66
3, 10819, Note_on_c, 1, 68, 0
3, 10820, Note_on_c, 1, 69, 82
3, 10823, Note_on_c, 1, 69, 0
3, 10824, Note_on_c, 1, 68, 74
3, 10827, Note_on_c, 1, 68, 0
3, 10828, Note_on_c, 1, 69, 85
3, 10831, Note_on_c, 1, 69, 0
3, 10832, Note_on_c, 1, 68, 68
3, 10835, Note_on_c, 1, 68, 0
3, 10836, Note_on_c, 1, 69, 85
3, 10839, Note_on_c, 1, 69, 0
3, 10840, Note_on_c, 1, 68, 74
3, 10843, Note_on_c, 1, 68, 0
3, 10844, Note_on_c, 1, 69, 85
3, 10847, Note_on_c, 1, 69, 0
3, 10848, Note_on_c, 1, 68, 49
3, 10861, Note_on_c, 1, 68, 0
3, 10864, Note_on_c, 1, 65, 85
3, 10877, Note_on_c, 1, 65, 0
3, 10880, Note_on_c, 1, 66, 59
3, 10893, Note_on_c, 1, 66, 0
3, 10896, Note_on_c, 1, 68, 66
3, 10909, Note_on_c, 1, 68, 0
3, 10912, Note_on_c, 1, 66, 66
3, 10925, Note_on_c, 1, 66, 0
3, 10928, Note_on_c, 1, 68, 71
3, 10941, Note_on_c, 1, 68, 0
3, 10944, Note_on_c, 1, 69, 85
3, 10957, Note_on_c, 1, 69, 0
3, 10960, Note_on_c, 1, 66, 61
3, 10973, Note_on_c, 1, 66, 0
3, 10976, Note_on_c, 1, 68, 67
3, 10989, Note_on_c, 1, 68, 0
3, 10992, Note_on_c, 1, 69, 85
3, 11005, Note_on_c, 1, 69, 0
3, 11008, Note_on_c, 1, 68, 66
3, 11021, Note_on_c, 1, 68, 0
3, 11024, Note_on_c, 1, 69, 85
3, 11037, Note_on_c, 1, 69, 0
3, 11040, Note_on_c, 1, 71, 85
3, 11053, Note_on_c, 1, 71, 0
3, 11056, Note_on_c, 1, 68, 55
3, 11069, Note_on_c, 1, 68, 0
3, 11072, Note_on_c, 1, 69, 85
3, 11085, Note_on_c, 1, 69, 0
3, 11088, Note_on_c, 1, 71, 85
3, 11101, Note_on_c, 1, 71, 0
3, 11104, Note_on_c, 1, 69, 85
3, 11117, Note_on_c, 1, 69, 0
3, 11120, Note_on_c, 1, 71, 85
3, 11133, Note_on_c, 1, 71, 0
3, 11136, Note_on_c, 1, 73, 59
3, 11149, Note_on_c, 1, 73, 0
3, 11152, Note_on_c, 1, 69, 85
3, 11165, Note_on_c, 1, 69, 0
3, 11168, Note_on_c, 1, 71, 85
3, 11181, Note_on_c, 1, 71, 0
3, 11184, Note_on_c, 1, 73, 67
3, 11197, Note_on_c, 1, 73, 0
3, 11200, Note_on_c, 1, 71, 85
3, 11213, Note_on_c, 1, 71, 0
3, 11216, Note_on_c, 1, 73, 72
3, 11229, Note_on_c, 1, 73, 0
3, 11232, Note_on_c, 1, 74, 85
3, 11245, Note_on_c, 1, 74, 0
3, 11248, Note_on_c, 1, 71, 85
3, 11261, Note_on_c, 1, 71, 0
3, 11264, Note_on_c, 1, 73, 70
3, 11277, Note_on_c, 1, 73, 0
3, 11280, Note_on_c, 1, 74, 85
3, 11293, Note_on_c, 1, 74, 0
3, 11296, Note_on_c, 1, 73, 69
3, 11309, Note_on_c, 1, 73, 0
3, 11312, Note_on_c, 1, 74, 85
3, 11325, Note_on_c, 1, 74, 0
3, 11328, Note_on_c, 1, 68, 68
3, 11341, Note_on_c, 1, 68, 0
3, 11344, Note_on_c, 1, 71, 85
3, 11357, Note_on_c, 1, 71, 0
3, 11360, Note_on_c, 1, 69, 85
3, 11373, Note_on_c, 1, 69, 0
3, 11376, Note_on_c, 1, 68, 61
3, 11389, Note_on_c, 1, 68, 0
3, 11392, Note_on_c, 1, 66, 54
3, 11405, Note_on_c, 1, 66, 0
3, 11408, Note_on_c, 1, 68, 68
3, 11421, Note_on_c, 1, 68, 0
3, 11424, Note_on_c, 1, 69, 85
3, 11437, Note_on_c, 1, 69, 0
3, 11440, Note_on_c, 1, 57, 85
3, 11453, Note_on_c, 1, 57, 0
3, 11456, Note_on_c, 1, 59, 85
3, 11469, Note_on_c, 1, 59, 0
3, 11472, Note_on_c, 1, 61, 60
3, 11485, Note_on_c, 1, 61, 0
3, 11488, Note_on_c, 1, 59, 85
3, 11501, Note_on_c, 1, 59, 0
3, 11504, Note_on_c, 1, 61, 68
3, 11517, Note_on_c, 1, 61, 0
3, 11520, Note_on_c, 1, 62, 85
3, 11533, Note_on_c, 1, 62, 0
3, 11536, Note_on_c, 1, 59, 85
3, 11549, Note_on_c, 1, 59, 0
3, 11552, Note_on_c, 1, 61, 64
3, 11565, Note_on_c, 1, 61, 0
3, 11568, Note_on_c, 1, 62, 85
3, 11581, Note_on_c, 1, 62, 0
3, 11584, Note_on_c, 1, 61, 68
3, 11597, Note_on_c, 1, 61, 0
3, 11600, Note_on_c, 1, 62, 85
3, 11613, Note_on_c, 1, 62, 0
3, 11616, Note_on_c, 1, 56, 64
3, 11629, Note_on_c, 1, 56, 0
3, 11632, Note_on_c, 1, 57, 85
3, 11645, Note_on_c, 1, 57, 0
3, 11648, Note_on_c, 1, 59, 85
3, 11661, Note_on_c, 1, 59, 0
3, 11664, Note_on_c, 1, 61, 85
3, 11722, Note_on_c, 1, 61, 0
3, 11728, Note_on_c, 1, 62, 85
3, 11741, Note_on_c, 1, 62, 0
3, 11744, Note_on_c, 1, 64, 85
3, 11757, Note_on_c, 1, 64, 0
3, 11760, Note_on_c, 1, 66, 85
3, 11818, Note_on_c, 1, 66, 0
3, 11844, Note_on_c, 1, 66, 85
3, 11854, Note_on_c, 1, 66, 0
3, 11856, Note_on_c, 1, 65, 85
3, 11869, Note_on_c, 1, 65, 0
3, 11872, Note_on_c, 1, 66, 61
3, 11885, Note_on_c, 1, 66, 0
3, 11888, Note_on_c, 1, 68, 74
3, 11901, Note_on_c, 1, 68, 0
3, 11904, Note_on_c, 1, 61, 107
3, 11934, Note_on_c, 1, 61, 0
3, 11940, Note_on_c, 1, 73, 85
3, 11950, Note_on_c, 1, 73, 0
3, 11952, Note_on_c, 1, 71, 85
3, 11965, Note_on_c, 1, 71, 0
3, 11968, Note_on_c, 1, 73, 64
3, 11981, Note_on_c, 1, 73, 0
3, 11984, Note_on_c, 1, 74, 85
3, 11997, Note_on_c, 1, 74, 0
3, 12000, Note_on_c, 1, 65, 85
3, 12005, Note_on_c, 1, 65, 0
3, 12006, Note_on_c, 1, 66, 72
3, 12011, Note_on_c, 1, 66, 0
3, 12012, Note_on_c, 1, 65, 85
3, 12017, Note_on_c, 1, 65, 0
3, 12018, Note_on_c, 1, 66, 76
3, 12023, Note_on_c, 1, 66, 0
3, 12024, Note_on_c, 1, 65, 85
3, 12029, Note_on_c, 1, 65, 0
3, 12032, Note_on_c, 1, 63, 62
3, 12037, Note_on_c, 1, 63, 0
3, 12038, Note_on_c, 1, 65, 85
3, 12043, Note_on_c, 1, 65, 0
3, 12044, Note_on_c, 1, 66, 69
3, 12048, Note_on_c, 1, 66, 66
3, 12061, Note_on_c, 1, 66, 0
3, 12064, Note_on_c, 1, 68, 72
3, 12077, Note_on_c, 1, 68, 0
3, 12080, Note_on_c, 1, 69, 86
3, 12093, Note_on_c, 1, 69, 0
3, 12096, Note_on_c, 1, 71, 85
3, 12109, Note_on_c, 1, 71, 0
3, 12112, Note_on_c, 1, 73, 70
3, 12125, Note_on_c, 1, 73, 0
3, 12128, Note_on_c, 1, 74, 85
3, 12141, Note_on_c, 1, 74, 0
3, 12144, Note_on_c, 1, 73, 74
3, 12157, Note_on_c, 1, 73, 0
3, 12160, Note_on_c, 1, 74, 85
3, 12173, Note_on_c, 1, 74, 0
3, 12176, Note_on_c, 1, 71, 85
3, 12189, Note_on_c, 1, 71, 0
3, 12192, Note_on_c, 1, 69, 85
3, 12205, Note_on_c, 1, 69, 0
3, 12208, Note_on_c, 1, 68, 68
3, 12221, Note_on_c, 1, 68, 0
3, 12224, Note_on_c, 1, 66, 72
3, 12237, Note_on_c, 1, 66, 0
3, 14112, Control_c, 1, 7, 72
3, 14112, Note_on_c, 1, 73, 47
3, 14119, Note_on_c, 1, 73, 0
3, 14128, Note_on_c, 1, 76, 47
3, 14135, Note_on_c, 1, 76, 0
3, 14144, Note_on_c, 1, 81, 47
3, 14151, Note_on_c, 1, 81, 0
3, 14160, Control_c, 1, 7, 72
3, 14160, Note_on_c, 1, 81, 47
3, 14167, Note_on_c, 1, 81, 0
3, 14176, Note_on_c, 1, 80, 47
3, 14183, Note_on_c, 1, 80, 0
3, 14192, Note_on_c, 1, 81, 47
3, 14199, Note_on_c, 1, 81, 0
3, 14208, Note_on_c, 1, 73, 47
3, 14215, Note_on_c, 1, 73, 0
3, 14224, Note_on_c, 1, 76, 47
3, 14231, Note_on_c, 1, 76, 0
3, 14240, Note_on_c, 1, 81, 47
3, 14247, Note_on_c, 1, 81, 0
3, 14256, Note_on_c, 1, 81, 47
3, 14263, Note_on_c, 1, 81, 0
3, 14272, Note_on_c, 1, 80, 47
3, 14279, Note_on_c, 1, 80, 0
3, 14288, Note_on_c, 1, 81, 47
3, 14295, Note_on_c, 1, 81, 0
3, 14304, Note_on_c, 1, 74, 82
3, 14311, Note_on_c, 1, 74, 0
3, 14320, Note_on_c, 1, 76, 59
3, 14327, Note_on_c, 1, 76, 0
3, 14336, Note_on_c, 1, 78, 62
3, 14343, Note_on_c, 1, 78, 0
3, 14352, Note_on_c, 1, 74, 59
3, 14359, Note_on_c, 1, 74, 0
3, 14368, Note_on_c, 1, 76, 72
3, 14375, Note_on_c, 1, 76, 0
3, 14384, Note_on_c, 1, 73, 53
3, 14391, Note_on_c, 1, 73, 0
3, 14400, Note_on_c, 1, 71, 76
3, 14407, Note_on_c, 1, 71, 0
3, 14416, Note_on_c, 1, 74, 65
3, 14423, Note_on_c, 1, 74, 0
3, 14432, Note_on_c, 1, 80, 65
3, 14439, Note_on_c, 1, 80, 0
3, 14448, Note_on_c, 1, 80, 62
3, 14455, Note_on_c, 1, 80, 0
3, 14464, Note_on_c, 1, 78, 55
3, 14471, Note_on_c, 1, 78, 0
3, 14480, Note_on_c, 1, 80, 66
3, 14487, Note_on_c, 1, 80, 0
3, 14496, Note_on_c, 1, 73, 47
3, 14503, Note_on_c, 1, 73, 0
3, 14512, Note_on_c, 1, 76, 60
3, 14519, Note_on_c, 1, 76, 0
3, 14528, Note_on_c, 1, 81, 85
3, 14535, Note_on_c, 1, 81, 0
3, 14544, Note_on_c, 1, 81, 85
3, 14551, Note_on_c, 1, 81, 0
3, 14560, Note_on_c, 1, 80, 65
3, 14567, Note_on_c, 1, 80, 0
3, 14576, Note_on_c, 1, 81, 77
3, 14583, Note_on_c, 1, 81, 0
3, 14592, Note_on_c, 1, 78, 62
3, 14599, Note_on_c, 1, 78, 0
3, 14608, Note_on_c, 1, 74, 60
3, 14615, Note_on_c, 1, 74, 0
3, 14624, Note_on_c, 1, 71, 85
3, 14631, Note_on_c, 1, 71, 0
3, 14640, Note_on_c, 1, 68, 62
3, 14647, Note_on_c, 1, 68, 0
3, 14656, Note_on_c, 1, 71, 36
3, 14663, Note_on_c, 1, 71, 0
3, 14672, Note_on_c, 1, 69, 85
3, 14679, Note_on_c, 1, 69, 0
3, 14688, Note_on_c, 1, 68, 57
3, 14695, Note_on_c, 1, 68, 0
3, 14704, Note_on_c, 1, 71, 42
3, 14711, Note_on_c, 1, 71, 0
3, 14720, Note_on_c, 1, 69, 85
3, 14727, Note_on_c, 1, 69, 0
3, 14736, Note_on_c, 1, 68, 49
3, 14743, Note_on_c, 1, 68, 0
3, 14752, Note_on_c, 1, 69, 82
3, 14759, Note_on_c, 1, 69, 0
3, 14768, Note_on_c, 1, 71, 62
3, 14775, Note_on_c, 1, 71, 0
3, 14784, Note_on_c, 1, 73, 62
3, 14791, Note_on_c, 1, 73, 0
3, 14800, Note_on_c, 1, 69, 85
3, 14807, Note_on_c, 1, 69, 0
3, 14816, Note_on_c, 1, 71, 79
3, 14823, Note_on_c, 1, 71, 0
3, 14832, Note_on_c, 1, 73, 49
3, 14839, Note_on_c, 1, 73, 0
3, 14848, Note_on_c, 1, 76, 81
3, 14855, Note_on_c, 1, 76, 0
3, 14864, Note_on_c, 1, 74, 40
3, 14871, Note_on_c, 1, 74, 0
3, 14880, Note_on_c, 1, 76, 76
3, 14887, Note_on_c, 1, 76, 0
3, 14896, Note_on_c, 1, 73, 47
3, 14903, Note_on_c, 1, 73, 0
3, 14912, Note_on_c, 1, 74, 85
3, 14919, Note_on_c, 1, 74, 0
3, 14928, Note_on_c, 1, 76, 62
3, 14935, Note_on_c, 1, 76, 0
3, 14944, Note_on_c, 1, 79, 85
3, 14951, Note_on_c, 1, 79, 0
3, 14960, Note_on_c, 1, 78, 62
3, 14967, Note_on_c, 1, 78, 0
3, 14976, Note_on_c, 1, 79, 55
3, 14980, Note_on_c, 1, 79, 0
3, 14982, Note_on_c, 1, 81, 62
3, 14986, Note_on_c, 1, 81, 0
3, 14988, Note_on_c, 1, 79, 85
3, 14992, Note_on_c, 1, 79, 0
3, 14994, Note_on_c, 1, 81, 85
3, 14998, Note_on_c, 1, 81, 0
3, 15000, Note_on_c, 1, 79, 43
3, 15005, Note_on_c, 1, 79, 0
3, 15006, Note_on_c, 1, 81, 59
3, 15011, Note_on_c, 1, 81, 0
3, 15012, Note_on_c, 1, 79, 46
3, 15017, Note_on_c, 1, 79, 0
3, 15018, Note_on_c, 1, 81, 65
3, 15023, Note_on_c, 1, 81, 0
3, 15024, Note_on_c, 1, 79, 60
3, 15029, Note_on_c, 1, 79, 0
3, 15030, Note_on_c, 1, 81, 76
3, 15035, Note_on_c, 1, 81, 0
3, 15036, Note_on_c, 1, 79, 72
3, 15041, Note_on_c, 1, 79, 0
3, 15042, Note_on_c, 1, 81, 81
3, 15047, Note_on_c, 1, 81, 0
3, 15048, Note_on_c, 1, 79, 79
3, 15053, Note_on_c, 1, 79, 0
3, 15054, Note_on_c, 1, 81, 85
3, 15059, Note_on_c, 1, 81, 0
3, 15060, Note_on_c, 1, 79, 77
3, 15065, Note_on_c, 1, 79, 0
3, 15066, Note_on_c, 1, 81, 85
3, 15071, Note_on_c, 1, 81, 0
3, 15072, Note_on_c, 1, 79, 85
3, 15077, Note_on_c, 1, 79, 0
3, 15078, Note_on_c, 1, 81, 85
3, 15083, Note_on_c, 1, 81, 0
3, 15084, Note_on_c, 1, 79, 59
3, 15089, Note_on_c, 1, 79, 0
3, 15090, Note_on_c, 1, 81, 85
3, 15095, Note_on_c, 1, 81, 0
3, 15096, Note_on_c, 1, 79, 78
3, 15101, Note_on_c, 1, 79, 0
3, 15102, Note_on_c, 1, 81, 85
3, 15107, Note_on_c, 1, 81, 0
3, 15108, Note_on_c, 1, 79, 81
3, 15113, Note_on_c, 1, 79, 0
3, 15114, Note_on_c, 1, 81, 85
3, 15119, Note_on_c, 1, 81, 0
3, 15120, Note_on_c, 1, 79, 85
3, 15125, Note_on_c, 1, 79, 0
3, 15126, Note_on_c, 1, 81, 85
3, 15131, Note_on_c, 1, 81, 0
3, 15132, Note_on_c, 1, 79, 85
3, 15137, Note_on_c, 1, 79, 0
3, 15138, Note_on_c, 1, 81, 85
3, 15143, Note_on_c, 1, 81, 0
3, 15144, Note_on_c, 1, 79, 85
3, 15149, Note_on_c, 1, 79, 0
3, 15150, Note_on_c, 1, 81, 85
3, 15155, Note_on_c, 1, 81, 0
3, 15156, Note_on_c, 1, 79, 81
3, 15161, Note_on_c, 1, 79, 0
3, 15162, Note_on_c, 1, 81, 85
3, 15167, Note_on_c, 1, 81, 0
3, 15168, Note_on_c, 1, 79, 72
3, 15175, Note_on_c, 1, 79, 0
3, 15184, Note_on_c, 1, 67, 76
3, 15191, Note_on_c, 1, 67, 0
3, 15200, Note_on_c, 1, 69, 85
3, 15207, Note_on_c, 1, 69, 0
3, 15216, Note_on_c, 1, 71, 85
3, 15223, Note_on_c, 1, 71, 0
3, 15232, Note_on_c, 1, 74, 77
3, 15239, Note_on_c, 1, 74, 0
3, 15248, Note_on_c, 1, 73, 43
3, 15255, Note_on_c, 1, 73, 0
3, 15264, Note_on_c, 1, 74, 85
3, 15271, Note_on_c, 1, 74, 0
3, 15280, Note_on_c, 1, 71, 46
3, 15287, Note_on_c, 1, 71, 0
3, 15296, Note_on_c, 1, 73, 60
3, 15303, Note_on_c, 1, 73, 0
3, 15312, Note_on_c, 1, 74, 85
3, 15319, Note_on_c, 1, 74, 0
3, 15328, Note_on_c, 1, 78, 66
3, 15335, Note_on_c, 1, 78, 0
3, 15344, Note_on_c, 1, 76, 85
3, 15351, Note_on_c, 1, 76, 0
3, 15360, Note_on_c, 1, 78, 95
3, 15365, Note_on_c, 1, 78, 0
3, 15366, Note_on_c, 1, 79, 95
3, 15371, Note_on_c, 1, 79, 0
3, 15372, Note_on_c, 1, 78, 95
3, 15377, Note_on_c, 1, 78, 0
3, 15378, Note_on_c, 1, 79, 95
3, 15383, Note_on_c, 1, 79, 0
3, 15384, Note_on_c, 1, 78, 95
3, 15389, Note_on_c, 1, 78, 0
3, 15390, Note_on_c, 1, 79, 95
3, 15395, Note_on_c, 1, 79, 0
3, 15396, Note_on_c, 1, 78, 95
3, 15401, Note_on_c, 1, 78, 0
3, 15402, Note_on_c, 1, 79, 95
3, 15407, Note_on_c, 1, 79, 0
3, 15408, Note_on_c, 1, 78, 95
3, 15413, Note_on_c, 1, 78, 0
3, 15414, Note_on_c, 1, 79, 95
3, 15419, Note_on_c, 1, 79, 0
3, 15420, Note_on_c, 1, 78, 95
3, 15425, Note_on_c, 1, 78, 0
3, 15426, Note_on_c, 1, 79, 95
3, 15431, Note_on_c, 1, 79, 0
3, 15432, Note_on_c, 1, 78, 95
3, 15437, Note_on_c, 1, 78, 0
3, 15438, Note_on_c, 1, 79, 95
3, 15443, Note_on_c, 1, 79, 0
3, 15444, Note_on_c, 1, 78, 95
3, 15449, Note_on_c, 1, 78, 0
3, 15450, Note_on_c, 1, 79, 95
3, 15455, Note_on_c, 1, 79, 0
3, 15456, Note_on_c, 1, 78, 95
3, 15461, Note_on_c, 1, 78, 0
3, 15462, Note_on_c, 1, 79, 95
3, 15467, Note_on_c, 1, 79, 0
3, 15468, Note_on_c, 1, 78, 95
3, 15473, Note_on_c, 1, 78, 0
3, 15474, Note_on_c, 1, 79, 95
3, 15479, Note_on_c, 1, 79, 0
3, 15480, Note_on_c, 1, 78, 95
3, 15485, Note_on_c, 1, 78, 0
3, 15486, Note_on_c, 1, 79, 95
3, 15491, Note_on_c, 1, 79, 0
3, 15492, Note_on_c, 1, 78, 95
3, 15497, Note_on_c, 1, 78, 0
3, 15498, Note_on_c, 1, 79, 95
3, 15503, Note_on_c, 1, 79, 0
3, 15504, Note_on_c, 1, 78, 95
3, 15509, Note_on_c, 1, 78, 0
3, 15510, Note_on_c, 1, 79, 95
3, 15515, Note_on_c, 1, 79, 0
3, 15516, Note_on_c, 1, 78, 95
3, 15521, Note_on_c, 1, 78, 0
3, 15522, Note_on_c, 1, 79, 95
3, 15527, Note_on_c, 1, 79, 0
3, 15528, Note_on_c, 1, 78, 95
3, 15533, Note_on_c, 1, 78, 0
3, 15534, Note_on_c, 1, 79, 95
3, 15539, Note_on_c, 1, 79, 0
3, 15540, Note_on_c, 1, 78, 95
3, 15545, Note_on_c, 1, 78, 0
3, 15546, Note_on_c, 1, 79, 95
3, 15551, Note_on_c, 1, 79, 0
3, 15552, Control_c, 1, 7, 101
3, 15552, Note_on_c, 1, 78, 72
3, 15564, Control_c, 1, 7, 101
3, 15570, Note_on_c, 1, 78, 0
3, 15588, Note_on_c, 1, 78, 71
3, 15594, Note_on_c, 1, 78, 0
3, 15600, Note_on_c, 1, 83, 85
3, 15618, Note_on_c, 1, 83, 0
3, 15632, Note_on_c, 1, 78, 82
3, 15638, Note_on_c, 1, 78, 0
3, 15648, Note_on_c, 1, 79, 72
3, 15656, Note_on_c, 1, 79, 0
3, 15664, Note_on_c, 1, 78, 60
3, 15672, Note_on_c, 1, 78, 0
3, 15680, Note_on_c, 1, 76, 85
3, 15688, Note_on_c, 1, 76, 0
3, 15696, Note_on_c, 1, 74, 85
3, 15704, Note_on_c, 1, 74, 0
3, 15712, Note_on_c, 1, 76, 79
3, 15720, Note_on_c, 1, 76, 0
3, 15728, Note_on_c, 1, 78, 61
3, 15736, Note_on_c, 1, 78, 0
3, 15744, Note_on_c, 1, 71, 85
3, 15762, Note_on_c, 1, 71, 0
3, 15780, Note_on_c, 1, 66, 57
3, 15786, Note_on_c, 1, 66, 0
3, 15792, Note_on_c, 1, 71, 72
3, 15800, Note_on_c, 1, 71, 0
3, 15808, Note_on_c, 1, 74, 85
3, 15816, Note_on_c, 1, 74, 0
3, 15824, Note_on_c, 1, 73, 62
3, 15832, Note_on_c, 1, 73, 0
3, 15840, Note_on_c, 1, 74, 85
3, 15848, Note_on_c, 1, 74, 0
3, 15856, Note_on_c, 1, 71, 85
3, 15864, Note_on_c, 1, 71, 0
3, 15872, Note_on_c, 1, 73, 59
3, 15880, Note_on_c, 1, 73, 0
3, 15888, Note_on_c, 1, 74, 85
3, 15896, Note_on_c, 1, 74, 0
3, 15904, Note_on_c, 1, 78, 59
3, 15912, Note_on_c, 1, 78, 0
3, 15920, Note_on_c, 1, 76, 85
3, 15928, Note_on_c, 1, 76, 0
3, 15936, Note_on_c, 1, 78, 52
3, 15954, Note_on_c, 1, 78, 0
3, 15972, Note_on_c, 1, 71, 85
3, 15978, Note_on_c, 1, 71, 0
3, 15984, Note_on_c, 1, 78, 64
3, 16002, Note_on_c, 1, 78, 0
3, 16020, Note_on_c, 1, 73, 61
3, 16026, Note_on_c, 1, 73, 0
3, 16032, Note_on_c, 1, 74, 66
3, 16040, Note_on_c, 1, 74, 0
3, 16048, Note_on_c, 1, 73, 49
3, 16056, Note_on_c, 1, 73, 0
3, 16064, Note_on_c, 1, 71, 78
3, 16072, Note_on_c, 1, 71, 0
3, 16080, Note_on_c, 1, 70, 49
3, 16088, Note_on_c, 1, 70, 0
3, 16096, Note_on_c, 1, 71, 46
3, 16104, Note_on_c, 1, 71, 0
3, 16112, Note_on_c, 1, 73, 64
3, 16120, Note_on_c, 1, 73, 0
3, 16128, Note_on_c, 1, 66, 85
3, 16164, Note_on_c, 1, 66, 0
3, 16176, Note_on_c, 1, 76, 85
3, 16230, Note_on_c, 1, 76, 0
3, 16240, Note_on_c, 1, 74, 85
3, 16252, Note_on_c, 1, 74, 0
3, 16256, Note_on_c, 1, 73, 59
3, 16268, Note_on_c, 1, 73, 0
3, 16272, Note_on_c, 1, 71, 85
3, 16284, Note_on_c, 1, 71, 0
3, 16288, Note_on_c, 1, 73, 57
3, 16300, Note_on_c, 1, 73, 0
3, 16304, Note_on_c, 1, 70, 46
3, 16316, Note_on_c, 1, 70, 0
3, 16320, Note_on_c, 1, 79, 85
3, 16332, Note_on_c, 1, 79, 0
3, 16336, Note_on_c, 1, 78, 65
3, 16348, Note_on_c, 1, 78, 0
3, 16352, Note_on_c, 1, 76, 78
3, 16364, Note_on_c, 1, 76, 0
3, 16368, Note_on_c, 1, 74, 85
3, 16380, Note_on_c, 1, 74, 0
3, 16384, Note_on_c, 1, 76, 70
3, 16396, Note_on_c, 1, 76, 0
3, 16400, Note_on_c, 1, 73, 62
3, 16412, Note_on_c, 1, 73, 0
3, 16416, Note_on_c, 1, 71, 85
3, 16443, Note_on_c, 1, 71, 0
3, 16452, Note_on_c, 1, 66, 56
3, 16461, Note_on_c, 1, 66, 0
3, 16464, Note_on_c, 1, 71, 85
3, 16491, Note_on_c, 1, 71, 0
3, 16500, Note_on_c, 1, 66, 60
3, 16509, Note_on_c, 1, 66, 0
3, 16512, Note_on_c, 1, 67, 79
3, 16524, Note_on_c, 1, 67, 0
3, 16528, Note_on_c, 1, 66, 53
3, 16540, Note_on_c, 1, 66, 0
3, 16544, Note_on_c, 1, 64, 77
3, 16556, Note_on_c, 1, 64, 0
3, 16560, Note_on_c, 1, 62, 85
3, 16572, Note_on_c, 1, 62, 0
3, 16576, Note_on_c, 1, 64, 85
3, 16588, Note_on_c, 1, 64, 0
3, 16592, Note_on_c, 1, 66, 68
3, 16604, Note_on_c, 1, 66, 0
3, 16608, Note_on_c, 1, 59, 81
3, 16635, Note_on_c, 1, 59, 0
3, 16644, Note_on_c, 1, 54, 68
3, 16653, Note_on_c, 1, 54, 0
3, 16656, Note_on_c, 1, 59, 47
3, 16668, Note_on_c, 1, 59, 0
3, 16672, Note_on_c, 1, 62, 65
3, 16684, Note_on_c, 1, 62, 0
3, 16688, Note_on_c, 1, 61, 55
3, 16700, Note_on_c, 1, 61, 0
3, 16704, Note_on_c, 1, 62, 65
3, 16716, Note_on_c, 1, 62, 0
3, 16720, Note_on_c, 1, 59, 85
3, 16732, Note_on_c, 1, 59, 0
3, 16736, Note_on_c, 1, 61, 42
3, 16748, Note_on_c, 1, 61, 0
3, 16752, Note_on_c, 1, 62, 57
3, 16764, Note_on_c, 1, 62, 0
3, 16768, Note_on_c, 1, 66, 59
3, 16780, Note_on_c, 1, 66, 0
3, 16784, Note_on_c, 1, 64, 85
3, 16796, Note_on_c, 1, 64, 0
3, 16800, Note_on_c, 1, 66, 62
3, 16812, Note_on_c, 1, 66, 0
3, 16816, Note_on_c, 1, 62, 85
3, 16828, Note_on_c, 1, 62, 0
3, 16832, Note_on_c, 1, 64, 76
3, 16844, Note_on_c, 1, 64, 0
3, 16848, Note_on_c, 1, 66, 62
3, 16860, Note_on_c, 1, 66, 0
3, 16864, Note_on_c, 1, 69, 85
3, 16876, Note_on_c, 1, 69, 0
3, 16880, Note_on_c, 1, 68, 66
3, 16892, Note_on_c, 1, 68, 0
3, 16896, Note_on_c, 1, 69, 95
3, 16901, Note_on_c, 1, 69, 0
3, 16902, Note_on_c, 1, 71, 95
3, 16907, Note_on_c, 1, 71, 0
3, 16908, Note_on_c, 1, 69, 95
3, 16913, Note_on_c, 1, 69, 0
3, 16914, Note_on_c, 1, 71, 95
3, 16919, Note_on_c, 1, 71, 0
3, 16920, Note_on_c, 1, 69, 95
3, 16925, Note_on_c, 1, 69, 0
3, 16926, Note_on_c, 1, 71, 95
3, 16931, Note_on_c, 1, 71, 0
3, 16932, Note_on_c, 1, 69, 95
3, 16937, Note_on_c, 1, 69, 0
3, 16938, Note_on_c, 1, 71, 95
3, 16943, Note_on_c, 1, 71, 0
3, 16944, Note_on_c, 1, 69, 95
3, 16949, Note_on_c, 1, 69, 0
3, 16950, Note_on_c, 1, 71, 95
3, 16955, Note_on_c, 1, 71, 0
3, 16956, Note_on_c, 1, 69, 95
3, 16961, Note_on_c, 1, 69, 0
3, 16962, Note_on_c, 1, 71, 95
3, 16967, Note_on_c, 1, 71, 0
3, 16968, Note_on_c, 1, 69, 95
3, 16973, Note_on_c, 1, 69, 0
3, 16974, Note_on_c, 1, 71, 95
3, 16979, Note_on_c, 1, 71, 0
3, 16980, Note_on_c, 1, 69, 95
3, 16985, Note_on_c, 1, 69, 0
3, 16986, Note_on_c, 1, 71, 95
3, 16991, Note_on_c, 1, 71, 0
3, 16992, Note_on_c, 1, 69, 85
3, 17004, Note_on_c, 1, 69, 0
3, 17008, Note_on_c, 1, 72, 85
3, 17020, Note_on_c, 1, 72, 0
3, 17024, Note_on_c, 1, 71, 62
3, 17036, Note_on_c, 1, 71, 0
3, 17040, Note_on_c, 1, 69, 72
3, 17052, Note_on_c, 1, 69, 0
3, 17056, Note_on_c, 1, 67, 85
3, 17068, Note_on_c, 1, 67, 0
3, 17072, Note_on_c, 1, 66, 56
3, 17084, Note_on_c, 1, 66, 0
3, 17088, Note_on_c, 1, 67, 81
3, 17091, Note_on_c, 1, 67, 0
3, 17092, Note_on_c, 1, 69, 85
3, 17095, Note_on_c, 1, 69, 0
3, 17096, Note_on_c, 1, 67, 81
3, 17099, Note_on_c, 1, 67, 0
3, 17100, Note_on_c, 1, 69, 85
3, 17103, Note_on_c, 1, 69, 0
3, 17104, Note_on_c, 1, 67, 85
3, 17107, Note_on_c, 1, 67, 0
3, 17108, Note_on_c, 1, 69, 85
3, 17111, Note_on_c, 1, 69, 0
3, 17112, Note_on_c, 1, 67, 85
3, 17115, Note_on_c, 1, 67, 0
3, 17116, Note_on_c, 1, 69, 85
3, 17119, Note_on_c, 1, 69, 0
3, 17120, Note_on_c, 1, 67, 85
3, 17123, Note_on_c, 1, 67, 0
3, 17124, Note_on_c, 1, 69, 85
3, 17127, Note_on_c, 1, 69, 0
3, 17128, Note_on_c, 1, 67, 85
3, 17131, Note_on_c, 1, 67, 0
3, 17132, Note_on_c, 1, 69, 85
3, 17135, Note_on_c, 1, 69, 0
3, 17136, Note_on_c, 1, 67, 85
3, 17139, Note_on_c, 1, 67, 0
3, 17140, Note_on_c, 1, 69, 85
3, 17143, Note_on_c, 1, 69, 0
3, 17144, Note_on_c, 1, 67, 85
3, 17147, Note_on_c, 1, 67, 0
3, 17148, Note_on_c, 1, 69, 89
3, 17151, Note_on_c, 1, 69, 0
3, 17152, Note_on_c, 1, 67, 85
3, 17155, Note_on_c, 1, 67, 0
3, 17156, Note_on_c, 1, 69, 85
3, 17159, Note_on_c, 1, 69, 0
3, 17160, Note_on_c, 1, 67, 85
3, 17163, Note_on_c, 1, 67, 0
3, 17164, Note_on_c, 1, 69, 67
3, 17167, Note_on_c, 1, 69, 0
3, 17168, Note_on_c, 1, 67, 85
3, 17171, Note_on_c, 1, 67, 0
3, 17172, Note_on_c, 1, 69, 74
3, 17175, Note_on_c, 1, 69, 0
3, 17176, Note_on_c, 1, 67, 85
3, 17179, Note_on_c, 1, 67, 0
3, 17180, Note_on_c, 1, 69, 85
3, 17183, Note_on_c, 1, 69, 0
3, 17184, Note_on_c, 1, 67, 77
3, 17196, Note_on_c, 1, 67, 0
3, 17200, Note_on_c, 1, 71, 85
3, 17212, Note_on_c, 1, 71, 0
3, 17216, Note_on_c, 1, 69, 85
3, 17228, Note_on_c, 1, 69, 0
3, 17232, Note_on_c, 1, 67, 85
3, 17244, Note_on_c, 1, 67, 0
3, 17248, Note_on_c, 1, 66, 50
3, 17260, Note_on_c, 1, 66, 0
3, 17264, Note_on_c, 1, 64, 55
3, 17276, Note_on_c, 1, 64, 0
3, 17280, Note_on_c, 1, 66, 55
3, 17283, Note_on_c, 1, 66, 0
3, 17284, Note_on_c, 1, 67, 85
3, 17287, Note_on_c, 1, 67, 0
3, 17288, Note_on_c, 1, 66, 64
3, 17291, Note_on_c, 1, 66, 0
3, 17292, Note_on_c, 1, 67, 85
3, 17295, Note_on_c, 1, 67, 0
3, 17296, Note_on_c, 1, 66, 59
3, 17299, Note_on_c, 1, 66, 0
3, 17300, Note_on_c, 1, 67, 85
3, 17303, Note_on_c, 1, 67, 0
3, 17304, Note_on_c, 1, 66, 62
3, 17307, Note_on_c, 1, 66, 0
3, 17308, Note_on_c, 1, 67, 85
3, 17311, Note_on_c, 1, 67, 0
3, 17312, Note_on_c, 1, 66, 59
3, 17315, Note_on_c, 1, 66, 0
3, 17316, Note_on_c, 1, 67, 85
3, 17319, Note_on_c, 1, 67, 0
3, 17320, Note_on_c, 1, 66, 66
3, 17323, Note_on_c, 1, 66, 0
3, 17324, Note_on_c, 1, 67, 85
3, 17327, Note_on_c, 1, 67, 0
3, 17328, Note_on_c, 1, 66, 66
3, 17331, Note_on_c, 1, 66, 0
3, 17332, Note_on_c, 1, 67, 85
3, 17335, Note_on_c, 1, 67, 0
3, 17336, Note_on_c, 1, 66, 66
3, 17339, Note_on_c, 1, 66, 0
3, 17340, Note_on_c, 1, 67, 85
3, 17343, Note_on_c, 1, 67, 0
3, 17344, Note_on_c, 1, 66, 69
3, 17347, Note_on_c, 1, 66, 0
3, 17348, Note_on_c, 1, 67, 85
3, 17351, Note_on_c, 1, 67, 0
3, 17352, Note_on_c, 1, 66, 66
3, 17355, Note_on_c, 1, 66, 0
3, 17356, Note_on_c, 1, 67, 85
3, 17359, Note_on_c, 1, 67, 0
3, 17360, Note_on_c, 1, 66, 62
3, 17363, Note_on_c, 1, 66, 0
3, 17364, Note_on_c, 1, 67, 85
3, 17367, Note_on_c, 1, 67, 0
3, 17368, Note_on_c, 1, 66, 62
3, 17371, Note_on_c, 1, 66, 0
3, 17372, Note_on_c, 1, 67, 85
3, 17375, Note_on_c, 1, 67, 0
3, 17376, Note_on_c, 1, 66, 55
3, 17379, Note_on_c, 1, 66, 0
3, 17380, Note_on_c, 1, 67, 85
3, 17383, Note_on_c, 1, 67, 0
3, 17384, Note_on_c, 1, 66, 64
3, 17387, Note_on_c, 1, 66, 0
3, 17388, Note_on_c, 1, 67, 85
3, 17391, Note_on_c, 1, 67, 0
3, 17392, Note_on_c, 1, 66, 59
3, 17395, Note_on_c, 1, 66, 0
3, 17396, Note_on_c, 1, 67, 85
3, 17399, Note_on_c, 1, 67, 0
3, 17400, Note_on_c, 1, 66, 62
3, 17403, Note_on_c, 1, 66, 0
3, 17404, Note_on_c, 1, 67, 85
3, 17407, Note_on_c, 1, 67, 0
3, 17408, Note_on_c, 1, 66, 59
3, 17411, Note_on_c, 1, 66, 0
3, 17412, Note_on_c, 1, 67, 85
3, 17415, Note_on_c, 1, 67, 0
3, 17416, Note_on_c, 1, 66, 66
3, 17419, Note_on_c, 1, 66, 0
3, 17420, Note_on_c, 1, 67, 85
3, 17423, Note_on_c, 1, 67, 0
3, 17424, Note_on_c, 1, 66, 66
3, 17427, Note_on_c, 1, 66, 0
3, 17428, Note_on_c, 1, 67, 85
3, 17431, Note_on_c, 1, 67, 0
3, 17432, Note_on_c, 1, 66, 66
3, 17435, Note_on_c, 1, 66, 0
3, 17436, Note_on_c, 1, 67, 85
3, 17439, Note_on_c, 1, 67, 0
3, 17440, Note_on_c, 1, 66, 69
3, 17443, Note_on_c, 1, 66, 0
3, 17444, Note_on_c, 1, 67, 85
3, 17447, Note_on_c, 1, 67, 0
3, 17448, Note_on_c, 1, 66, 66
3, 17451, Note_on_c, 1, 66, 0
3, 17452, Note_on_c, 1, 67, 85
3, 17455, Note_on_c, 1, 67, 0
3, 17456, Note_on_c, 1, 66, 62
3, 17459, Note_on_c, 1, 66, 0
3, 17460, Note_on_c, 1, 67, 85
3, 17463, Note_on_c, 1, 67, 0
3, 17464, Note_on_c, 1, 66, 62
3, 17467, Note_on_c, 1, 66, 0
3, 17468, Note_on_c, 1, 67, 85
3, 17471, Note_on_c, 1, 67, 0
3, 17472, Note_on_c, 1, 66, 46
3, 17484, Note_on_c, 1, 66, 0
3, 17488, Note_on_c, 1, 62, 74
3, 17500, Note_on_c, 1, 62, 0
3, 17504, Note_on_c, 1, 64, 82
3, 17516, Note_on_c, 1, 64, 0
3, 17520, Note_on_c, 1, 66, 64
3, 17532, Note_on_c, 1, 66, 0
3, 17536, Note_on_c, 1, 69, 85
3, 17548, Note_on_c, 1, 69, 0
3, 17552, Note_on_c, 1, 67, 85
3, 17564, Note_on_c, 1, 67, 0
3, 17568, Note_on_c, 1, 69, 85
3, 17580, Note_on_c, 1, 69, 0
3, 17584, Note_on_c, 1, 66, 56
3, 17596, Note_on_c, 1, 66, 0
3, 17600, Note_on_c, 1, 67, 85
3, 17612, Note_on_c, 1, 67, 0
3, 17616, Note_on_c, 1, 69, 79
3, 17628, Note_on_c, 1, 69, 0
3, 17632, Note_on_c, 1, 73, 61
3, 17644, Note_on_c, 1, 73, 0
3, 17648, Note_on_c, 1, 71, 72
3, 17660, Note_on_c, 1, 71, 0
3, 17664, Note_on_c, 1, 73, 49
3, 17667, Note_on_c, 1, 73, 0
3, 17668, Note_on_c, 1, 74, 81
3, 17671, Note_on_c, 1, 74, 0
3, 17672, Note_on_c, 1, 73, 68
3, 17675, Note_on_c, 1, 73, 0
3, 17676, Note_on_c, 1, 74, 85
3, 17679, Note_on_c, 1, 74, 0
3, 17680, Note_on_c, 1, 73, 47
3, 17683, Note_on_c, 1, 73, 0
3, 17684, Note_on_c, 1, 74, 84
3, 17687, Note_on_c, 1, 74, 0
3, 17688, Note_on_c, 1, 73, 50
3, 17691, Note_on_c, 1, 73, 0
3, 17692, Note_on_c, 1, 74, 85
3, 17695, Note_on_c, 1, 74, 0
3, 17696, Note_on_c, 1, 73, 62
3, 17699, Note_on_c, 1, 73, 0
3, 17700, Note_on_c, 1, 74, 85
3, 17703, Note_on_c, 1, 74, 0
3, 17704, Note_on_c, 1, 73, 66
3, 17707, Note_on_c, 1, 73, 0
3, 17708, Note_on_c, 1, 74, 85
3, 17711, Note_on_c, 1, 74, 0
3, 17712, Note_on_c, 1, 73, 65
3, 17715, Note_on_c, 1, 73, 0
3, 17716, Note_on_c, 1, 74, 85
3, 17719, Note_on_c, 1, 74, 0
3, 17720, Note_on_c, 1, 73, 66
3, 17723, Note_on_c, 1, 73, 0
3, 17724, Note_on_c, 1, 74, 85
3, 17727, Note_on_c, 1, 74, 0
3, 17728, Note_on_c, 1, 73, 72
3, 17731, Note_on_c, 1, 73, 0
3, 17732, Note_on_c, 1, 74, 85
3, 17735, Note_on_c, 1, 74, 0
3, 17736, Note_on_c, 1, 73, 62
3, 17739, Note_on_c, 1, 73, 0
3, 17740, Note_on_c, 1, 74, 49
3, 17743, Note_on_c, 1, 74, 0
3, 17744, Note_on_c, 1, 73, 40
3, 17747, Note_on_c, 1, 73, 0
3, 17748, Note_on_c, 1, 74, 66
3, 17751, Note_on_c, 1, 74, 0
3, 17752, Note_on_c, 1, 73, 44
3, 17755, Note_on_c, 1, 73, 0
3, 17756, Note_on_c, 1, 74, 85
3, 17759, Note_on_c, 1, 74, 0
3, 17760, Note_on_c, 1, 73, 49
3, 17763, Note_on_c, 1, 73, 0
3, 17764, Note_on_c, 1, 74, 81
3, 17767, Note_on_c, 1, 74, 0
3, 17768, Note_on_c, 1, 73, 68
3, 17771, Note_on_c, 1, 73, 0
3, 17772, Note_on_c, 1, 74, 85
3, 17775, Note_on_c, 1, 74, 0
3, 17776, Note_on_c, 1, 73, 47
3, 17779, Note_on_c, 1, 73, 0
3, 17780, Note_on_c, 1, 74, 84
3, 17783, Note_on_c, 1, 74, 0
3, 17784, Note_on_c, 1, 73, 50
3, 17787, Note_on_c, 1, 73, 0
3, 17788, Note_on_c, 1, 74, 85
3, 17791, Note_on_c, 1, 74, 0
3, 17792, Note_on_c, 1, 73, 62
3, 17795, Note_on_c, 1, 73, 0
3, 17796, Note_on_c, 1, 74, 85
3, 17799, Note_on_c, 1, 74, 0
3, 17800, Note_on_c, 1, 73, 66
3, 17803, Note_on_c, 1, 73, 0
3, 17804, Note_on_c, 1, 74, 85
3, 17807, Note_on_c, 1, 74, 0
3, 17808, Note_on_c, 1, 73, 65
3, 17811, Note_on_c, 1, 73, 0
3, 17812, Note_on_c, 1, 74, 85
3, 17815, Note_on_c, 1, 74, 0
3, 17816, Note_on_c, 1, 73, 66
3, 17819, Note_on_c, 1, 73, 0
3, 17820, Note_on_c, 1, 74, 85
3, 17823, Note_on_c, 1, 74, 0
3, 17824, Note_on_c, 1, 73, 72
3, 17827, Note_on_c, 1, 73, 0
3, 17828, Note_on_c, 1, 74, 85
3, 17831, Note_on_c, 1, 74, 0
3, 17832, Note_on_c, 1, 73, 62
3, 17835, Note_on_c, 1, 73, 0
3, 17836, Note_on_c, 1, 74, 49
3, 17839, Note_on_c, 1, 74, 0
3, 17840, Note_on_c, 1, 73, 40
3, 17843, Note_on_c, 1, 73, 0
3, 17844, Note_on_c, 1, 74, 66
3, 17847, Note_on_c, 1, 74, 0
3, 17848, Note_on_c, 1, 73, 44
3, 17851, Note_on_c, 1, 73, 0
3, 17852, Note_on_c, 1, 74, 85
3, 17855, Note_on_c, 1, 74, 0
3, 17856, Note_on_c, 1, 73, 52
3, 17868, Note_on_c, 1, 73, 0
3, 17872, Note_on_c, 1, 69, 85
3, 17884, Note_on_c, 1, 69, 0
3, 17888, Note_on_c, 1, 71, 85
3, 17900, Note_on_c, 1, 71, 0
3, 17904, Note_on_c, 1, 73, 64
3, 17916, Note_on_c, 1, 73, 0
3, 17920, Note_on_c, 1, 76, 61
3, 17932, Note_on_c, 1, 76, 0
3, 17936, Note_on_c, 1, 74, 85
3, 17948, Note_on_c, 1, 74, 0
3, 17952, Note_on_c, 1, 76, 81
3, 17964, Note_on_c, 1, 76, 0
3, 17968, Note_on_c, 1, 73, 59
3, 17980, Note_on_c, 1, 73, 0
3, 17984, Note_on_c, 1, 74, 85
3, 17996, Note_on_c, 1, 74, 0
3, 18000, Note_on_c, 1, 76, 62
3, 18012, Note_on_c, 1, 76, 0
3, 18016, Note_on_c, 1, 79, 77
3, 18028, Note_on_c, 1, 79, 0
3, 18032, Note_on_c, 1, 78, 59
3, 18044, Note_on_c, 1, 78, 0
3, 18048, Note_on_c, 1, 79, 82
3, 18051, Note_on_c, 1, 79, 0
3, 18052, Note_on_c, 1, 81, 85
3, 18055, Note_on_c, 1, 81, 0
3, 18056, Note_on_c, 1, 79, 85
3, 18059, Note_on_c, 1, 79, 0
3, 18060, Note_on_c, 1, 81, 85
3, 18063, Note_on_c, 1, 81, 0
3, 18064, Note_on_c, 1, 79, 85
3, 18067, Note_on_c, 1, 79, 0
3, 18068, Note_on_c, 1, 81, 66
3, 18071, Note_on_c, 1, 81, 0
3, 18072, Note_on_c, 1, 79, 85
3, 18075, Note_on_c, 1, 79, 0
3, 18076, Note_on_c, 1, 81, 79
3, 18079, Note_on_c, 1, 81, 0
3, 18080, Note_on_c, 1, 79, 85
3, 18083, Note_on_c, 1, 79, 0
3, 18084, Note_on_c, 1, 81, 85
3, 18087, Note_on_c, 1, 81, 0
3, 18088, Note_on_c, 1, 79, 85
3, 18091, Note_on_c, 1, 79, 0
3, 18092, Note_on_c, 1, 81, 81
3, 18095, Note_on_c, 1, 81, 0
3, 18096, Note_on_c, 1, 79, 79
3, 18099, Note_on_c, 1, 79, 0
3, 18100, Note_on_c, 1, 81, 85
3, 18103, Note_on_c, 1, 81, 0
3, 18104, Note_on_c, 1, 79, 85
3, 18107, Note_on_c, 1, 79, 0
3, 18108, Note_on_c, 1, 81, 72
3, 18111, Note_on_c, 1, 81, 0
3, 18112, Note_on_c, 1, 79, 85
3, 18115, Note_on_c, 1, 79, 0
3, 18116, Note_on_c, 1, 81, 59
3, 18119, Note_on_c, 1, 81, 0
3, 18120, Note_on_c, 1, 79, 67
3, 18123, Note_on_c, 1, 79, 0
3, 18124, Note_on_c, 1, 81, 74
3, 18127, Note_on_c, 1, 81, 0
3, 18128, Note_on_c, 1, 79, 85
3, 18131, Note_on_c, 1, 79, 0
3, 18132, Note_on_c, 1, 81, 70
3, 18135, Note_on_c, 1, 81, 0
3, 18136, Note_on_c, 1, 79, 85
3, 18139, Note_on_c, 1, 79, 0
3, 18140, Note_on_c, 1, 81, 85
3, 18143, Note_on_c, 1, 81, 0
3, 18144, Note_on_c, 1, 79, 74
3, 18156, Note_on_c, 1, 79, 0
3, 18160, Note_on_c, 1, 76, 85
3, 18172, Note_on_c, 1, 76, 0
3, 18176, Note_on_c, 1, 78, 54
3, 18188, Note_on_c, 1, 78, 0
3, 18192, Note_on_c, 1, 79, 81
3, 18204, Note_on_c, 1, 79, 0
3, 18208, Note_on_c, 1, 76, 85
3, 18220, Note_on_c, 1, 76, 0
3, 18224, Note_on_c, 1, 78, 59
3, 18236, Note_on_c, 1, 78, 0
3, 18240, Note_on_c, 1, 79, 82
3, 18243, Note_on_c, 1, 79, 0
3, 18244, Note_on_c, 1, 81, 85
3, 18247, Note_on_c, 1, 81, 0
3, 18248, Note_on_c, 1, 79, 85
3, 18251, Note_on_c, 1, 79, 0
3, 18252, Note_on_c, 1, 81, 85
3, 18255, Note_on_c, 1, 81, 0
3, 18256, Note_on_c, 1, 79, 85
3, 18259, Note_on_c, 1, 79, 0
3, 18260, Note_on_c, 1, 81, 66
3, 18263, Note_on_c, 1, 81, 0
3, 18264, Note_on_c, 1, 79, 85
3, 18267, Note_on_c, 1, 79, 0
3, 18268, Note_on_c, 1, 81, 79
3, 18271, Note_on_c, 1, 81, 0
3, 18272, Note_on_c, 1, 79, 85
3, 18275, Note_on_c, 1, 79, 0
3, 18276, Note_on_c, 1, 81, 85
3, 18279, Note_on_c, 1, 81, 0
3, 18280, Note_on_c, 1, 79, 85
3, 18283, Note_on_c, 1, 79, 0
3, 18284, Note_on_c, 1, 81, 81
3, 18287, Note_on_c, 1, 81, 0
3, 18288, Note_on_c, 1, 79, 79
3, 18291, Note_on_c, 1, 79, 0
3, 18292, Note_on_c, 1, 81, 85
3, 18295, Note_on_c, 1, 81, 0
3, 18296, Note_on_c, 1, 79, 85
3, 18299, Note_on_c, 1, 79, 0
3, 18300, Note_on_c, 1, 81, 72
3, 18303, Note_on_c, 1, 81, 0
3, 18304, Note_on_c, 1, 79, 85
3, 18307, Note_on_c, 1, 79, 0
3, 18308, Note_on_c, 1, 81, 59
3, 18311, Note_on_c, 1, 81, 0
3, 18312, Note_on_c, 1, 79, 67
3, 18315, Note_on_c, 1, 79, 0
3, 18316, Note_on_c, 1, 81, 74
3, 18319, Note_on_c, 1, 81, 0
3, 18320, Note_on_c, 1, 79, 85
3, 18323, Note_on_c, 1, 79, 0
3, 18324, Note_on_c, 1, 81, 70
3, 18327, Note_on_c, 1, 81, 0
3, 18328, Note_on_c, 1, 79, 85
3, 18331, Note_on_c, 1, 79, 0
3, 18332, Note_on_c, 1, 81, 85
3, 18335, Note_on_c, 1, 81, 0
3, 18336, Note_on_c, 1, 79, 76
3, 18348, Note_on_c, 1, 79, 0
3, 18352, Note_on_c, 1, 83, 53
3, 18364, Note_on_c, 1, 83, 0
3, 18368, Note_on_c, 1, 81, 85
3, 18380, Note_on_c, 1, 81, 0
3, 18384, Note_on_c, 1, 79, 85
3, 18396, Note_on_c, 1, 79, 0
3, 18400, Note_on_c, 1, 78, 59
3, 18412, Note_on_c, 1, 78, 0
3, 18416, Note_on_c, 1, 76, 46
3, 18428, Note_on_c, 1, 76, 0
3, 18432, Note_on_c, 1, 78, 64
3, 18444, Note_on_c, 1, 78, 0
3, 18448, Note_on_c, 1, 81, 74
3, 18460, Note_on_c, 1, 81, 0
3, 18464, Note_on_c, 1, 79, 70
3, 18476, Note_on_c, 1, 79, 0
3, 18480, Note_on_c, 1, 78, 53
3, 18492, Note_on_c, 1, 78, 0
3, 18496, Note_on_c, 1, 76, 85
3, 18508, Note_on_c, 1, 76, 0
3, 18512, Note_on_c, 1, 74, 76
3, 18524, Note_on_c, 1, 74, 0
3, 18528, Note_on_c, 1, 76, 85
3, 18540, Note_on_c, 1, 76, 0
3, 18544, Note_on_c, 1, 79, 65
3, 18556, Note_on_c, 1, 79, 0
3, 18560, Note_on_c, 1, 78, 61
3, 18572, Note_on_c, 1, 78, 0
3, 18576, Note_on_c, 1, 76, 71
3, 18588, Note_on_c, 1, 76, 0
3, 18592, Note_on_c, 1, 74, 85
3, 18604, Note_on_c, 1, 74, 0
3, 18608, Note_on_c, 1, 73, 53
3, 18620, Note_on_c, 1, 73, 0
3, 18624, Note_on_c, 1, 74, 61
3, 18636, Note_on_c, 1, 74, 0
3, 18640, Note_on_c, 1, 78, 40
3, 18652, Note_on_c, 1, 78, 0
3, 18656, Note_on_c, 1, 76, 72
3, 18668, Note_on_c, 1, 76, 0
3, 18672, Note_on_c, 1, 74, 70
3, 18684, Note_on_c, 1, 74, 0
3, 18688, Note_on_c, 1, 73, 43
3, 18700, Note_on_c, 1, 73, 0
3, 18704, Note_on_c, 1, 71, 74
3, 18716, Note_on_c, 1, 71, 0
3, 18720, Note_on_c, 1, 73, 59
3, 18732, Note_on_c, 1, 73, 0
3, 18736, Note_on_c, 1, 76, 72
3, 18748, Note_on_c, 1, 76, 0
3, 18752, Note_on_c, 1, 74, 68
3, 18764, Note_on_c, 1, 74, 0
3, 18768, Note_on_c, 1, 73, 59
3, 18780, Note_on_c, 1, 73, 0
3, 18784, Note_on_c, 1, 74, 81
3, 18796, Note_on_c, 1, 74, 0
3, 18800, Note_on_c, 1, 73, 47
3, 18812, Note_on_c, 1, 73, 0
3, 18816, Note_on_c, 1, 71, 79
3, 18828, Note_on_c, 1, 71, 0
3, 18832, Note_on_c, 1, 69, 79
3, 18844, Note_on_c, 1, 69, 0
3, 18848, Note_on_c, 1, 71, 85
3, 18860, Note_on_c, 1, 71, 0
3, 18864, Note_on_c, 1, 73, 47
3, 18876, Note_on_c, 1, 73, 0
3, 18880, Note_on_c, 1, 74, 76
3, 18886, Note_on_c, 1, 74, 0
3, 18888, Note_on_c, 1, 73, 47
3, 18894, Note_on_c, 1, 73, 0
3, 18896, Note_on_c, 1, 71, 78
3, 18902, Note_on_c, 1, 71, 0
3, 18904, Note_on_c, 1, 69, 85
3, 18910, Note_on_c, 1, 69, 0
3, 18912, Note_on_c, 1, 68, 57
3, 18939, Note_on_c, 1, 68, 0
3, 18948, Note_on_c, 1, 66, 60
3, 18957, Note_on_c, 1, 66, 0
3, 18960, Note_on_c, 1, 65, 85
3, 18972, Note_on_c, 1, 65, 0
3, 18976, Note_on_c, 1, 68, 62
3, 18988, Note_on_c, 1, 68, 0
3, 18992, Note_on_c, 1, 71, 64
3, 19004, Note_on_c, 1, 71, 0
3, 19008, Note_on_c, 1, 69, 85
3, 19020, Note_on_c, 1, 69, 0
3, 19024, Note_on_c, 1, 73, 49
3, 19036, Note_on_c, 1, 73, 0
3, 19040, Note_on_c, 1, 71, 85
3, 19052, Note_on_c, 1, 71, 0
3, 19056, Note_on_c, 1, 69, 85
3, 19068, Note_on_c, 1, 69, 0
3, 19072, Note_on_c, 1, 73, 46
3, 19084, Note_on_c, 1, 73, 0
3, 19088, Note_on_c, 1, 78, 49
3, 19100, Note_on_c, 1, 78, 0
3, 19104, Note_on_c, 1, 71, 85
3, 19116, Note_on_c, 1, 71, 0
3, 19120, Note_on_c, 1, 74, 37
3, 19132, Note_on_c, 1, 74, 0
3, 19136, Note_on_c, 1, 73, 66
3, 19148, Note_on_c, 1, 73, 0
3, 19152, Note_on_c, 1, 71, 85
3, 19164, Note_on_c, 1, 71, 0
3, 19168, Note_on_c, 1, 78, 49
3, 19180, Note_on_c, 1, 78, 0
3, 19184, Note_on_c, 1, 77, 85
3, 19196, Note_on_c, 1, 77, 0
3, 19200, Note_on_c, 1, 78, 43
3, 19212, Note_on_c, 1, 78, 0
3, 19216, Note_on_c, 1, 69, 85
3, 19228, Note_on_c, 1, 69, 0
3, 19232, Note_on_c, 1, 71, 85
3, 19244, Note_on_c, 1, 71, 0
3, 19248, Note_on_c, 1, 73, 70
3, 19260, Note_on_c, 1, 73, 0
3, 19264, Note_on_c, 1, 74, 85
3, 19276, Note_on_c, 1, 74, 0
3, 19280, Note_on_c, 1, 76, 85
3, 19292, Note_on_c, 1, 76, 0
3, 19296, Note_on_c, 1, 74, 85
3, 19308, Note_on_c, 1, 74, 0
3, 19312, Note_on_c, 1, 78, 65
3, 19324, Note_on_c, 1, 78, 0
3, 19328, Note_on_c, 1, 76, 85
3, 19340, Note_on_c, 1, 76, 0
3, 19344, Note_on_c, 1, 74, 85
3, 19356, Note_on_c, 1, 74, 0
3, 19360, Note_on_c, 1, 78, 59
3, 19372, Note_on_c, 1, 78, 0
3, 19376, Note_on_c, 1, 83, 79
3, 19388, Note_on_c, 1, 83, 0
3, 19392, Note_on_c, 1, 80, 69
3, 19404, Note_on_c, 1, 80, 0
3, 19408, Note_on_c, 1, 77, 85
3, 19420, Note_on_c, 1, 77, 0
3, 19424, Note_on_c, 1, 78, 64
3, 19436, Note_on_c, 1, 78, 0
3, 19440, Note_on_c, 1, 79, 85
3, 19494, Note_on_c, 1, 79, 0
3, 19504, Note_on_c, 1, 78, 55
3, 19516, Note_on_c, 1, 78, 0
3, 19520, Note_on_c, 1, 76, 76
3, 19532, Note_on_c, 1, 76, 0
3, 19536, Note_on_c, 1, 74, 85
3, 19548, Note_on_c, 1, 74, 0
3, 19552, Note_on_c, 1, 73, 57
3, 19564, Note_on_c, 1, 73, 0
3, 19568, Note_on_c, 1, 71, 85
3, 19580, Note_on_c, 1, 71, 0
3, 19584, Note_on_c, 1, 73, 55
3, 19596, Note_on_c, 1, 73, 0
3, 19600, Note_on_c, 1, 78, 52
3, 19612, Note_on_c, 1, 78, 0
3, 19616, Note_on_c, 1, 76, 55
3, 19628, Note_on_c, 1, 76, 0
3, 19632, Note_on_c, 1, 75, 66
3, 19644, Note_on_c, 1, 75, 0
3, 19648, Note_on_c, 1, 76, 85
3, 19660, Note_on_c, 1, 76, 0
3, 19664, Note_on_c, 1, 78, 66
3, 19676, Note_on_c, 1, 78, 0
3, 19680, Note_on_c, 1, 71, 85
3, 19692, Note_on_c, 1, 71, 0
3, 19696, Note_on_c, 1, 76, 69
3, 19708, Note_on_c, 1, 76, 0
3, 19712, Note_on_c, 1, 78, 52
3, 19724, Note_on_c, 1, 78, 0
3, 19728, Note_on_c, 1, 79, 85
3, 19740, Note_on_c, 1, 79, 0
3, 19744, Note_on_c, 1, 81, 85
3, 19756, Note_on_c, 1, 81, 0
3, 19760, Note_on_c, 1, 83, 77
3, 19772, Note_on_c, 1, 83, 0
3, 19776, Note_on_c, 1, 84, 85
3, 19788, Note_on_c, 1, 84, 0
3, 19792, Note_on_c, 1, 75, 61
3, 19804, Note_on_c, 1, 75, 0
3, 19808, Note_on_c, 1, 76, 85
3, 19820, Note_on_c, 1, 76, 0
3, 19824, Note_on_c, 1, 71, 72
3, 19836, Note_on_c, 1, 71, 0
3, 19840, Note_on_c, 1, 76, 85
3, 19852, Note_on_c, 1, 76, 0
3, 19856, Note_on_c, 1, 75, 60
3, 19868, Note_on_c, 1, 75, 0
3, 19872, Note_on_c, 1, 76, 85
3, 19884, Note_on_c, 1, 76, 0
3, 19888, Note_on_c, 1, 71, 85
3, 19900, Note_on_c, 1, 71, 0
3, 19904, Note_on_c, 1, 69, 76
3, 19916, Note_on_c, 1, 69, 0
3, 19920, Note_on_c, 1, 67, 85
3, 19932, Note_on_c, 1, 67, 0
3, 19936, Note_on_c, 1, 66, 64
3, 19948, Note_on_c, 1, 66, 0
3, 19952, Note_on_c, 1, 67, 85
3, 19964, Note_on_c, 1, 67, 0
3, 19968, Note_on_c, 1, 64, 85
3, 19980, Note_on_c, 1, 64, 0
3, 19984, Note_on_c, 1, 69, 85
3, 19996, Note_on_c, 1, 69, 0
3, 20000, Note_on_c, 1, 67, 85
3, 20012, Note_on_c, 1, 67, 0
3, 20016, Note_on_c, 1, 66, 62
3, 20028, Note_on_c, 1, 66, 0
3, 20032, Note_on_c, 1, 67, 67
3, 20044, Note_on_c, 1, 67, 0
3, 20048, Note_on_c, 1, 69, 71
3, 20060, Note_on_c, 1, 69, 0
3, 20064, Note_on_c, 1, 62, 85
3, 20076, Note_on_c, 1, 62, 0
3, 20080, Note_on_c, 1, 67, 85
3, 20092, Note_on_c, 1, 67, 0
3, 20096, Note_on_c, 1, 69, 79
3, 20108, Note_on_c, 1, 69, 0
3, 20112, Note_on_c, 1, 71, 71
3, 20124, Note_on_c, 1, 71, 0
3, 20128, Note_on_c, 1, 72, 70
3, 20140, Note_on_c, 1, 72, 0
3, 20144, Note_on_c, 1, 69, 71
3, 20156, Note_on_c, 1, 69, 0
3, 20160, Note_on_c, 1, 67, 79
3, 20172, Note_on_c, 1, 67, 0
3, 20176, Note_on_c, 1, 69, 81
3, 20188, Note_on_c, 1, 69, 0
3, 20192, Note_on_c, 1, 71, 85
3, 20204, Note_on_c, 1, 71, 0
3, 20208, Note_on_c, 1, 64, 85
3, 20235, Note_on_c, 1, 64, 0
3, 20244, Note_on_c, 1, 76, 55
3, 20253, Note_on_c, 1, 76, 0
3, 20256, Note_on_c, 1, 81, 72
3, 20268, Note_on_c, 1, 81, 0
3, 20272, Note_on_c, 1, 74, 85
3, 20284, Note_on_c, 1, 74, 0
3, 20288, Note_on_c, 1, 72, 62
3, 20300, Note_on_c, 1, 72, 0
3, 20304, Note_on_c, 1, 71, 76
3, 20316, Note_on_c, 1, 71, 0
3, 20320, Note_on_c, 1, 69, 85
3, 20332, Note_on_c, 1, 69, 0
3, 20336, Note_on_c, 1, 67, 85
3, 20348, Note_on_c, 1, 67, 0
3, 20352, Note_on_c, 1, 69, 85
3, 20388, Note_on_c, 1, 69, 0
3, 20400, Note_on_c, 1, 69, 85
3, 20406, Note_on_c, 1, 69, 0
3, 20408, Note_on_c, 1, 67, 78
3, 20414, Note_on_c, 1, 67, 0
3, 20416, Note_on_c, 1, 66, 60
3, 20422, Note_on_c, 1, 66, 0
3, 20424, Note_on_c, 1, 64, 78
3, 20430, Note_on_c, 1, 64, 0
3, 20432, Note_on_c, 1, 63, 33
3, 20438, Note_on_c, 1, 63, 0
3, 20440, Note_on_c, 1, 64, 85
3, 20446, Note_on_c, 1, 64, 0
3, 20448, Note_on_c, 1, 66, 49
3, 20460, Note_on_c, 1, 66, 0
3, 20464, Note_on_c, 1, 71, 81
3, 20476, Note_on_c, 1, 71, 0
3, 20480, Note_on_c, 1, 69, 85
3, 20492, Note_on_c, 1, 69, 0
3, 20496, Note_on_c, 1, 67, 85
3, 20508, Note_on_c, 1, 67, 0
3, 20512, Note_on_c, 1, 66, 66
3, 20524, Note_on_c, 1, 66, 0
3, 20528, Note_on_c, 1, 64, 62
3, 20540, Note_on_c, 1, 64, 0
3, 20544, Note_on_c, 1, 66, 59
3, 20556, Note_on_c, 1, 66, 0
3, 20560, Note_on_c, 1, 71, 65
3, 20572, Note_on_c, 1, 71, 0
3, 20576, Note_on_c, 1, 70, 54
3, 20588, Note_on_c, 1, 70, 0
3, 20592, Note_on_c, 1, 71, 56
3, 20604, Note_on_c, 1, 71, 0
3, 20608, Note_on_c, 1, 78, 43
3, 20620, Note_on_c, 1, 78, 0
3, 20624, Note_on_c, 1, 69, 78
3, 20636, Note_on_c, 1, 69, 0
3, 20640, Note_on_c, 1, 71, 85
3, 20658, Note_on_c, 1, 71, 0
3, 20772, Note_on_c, 1, 73, 53
3, 20781, Note_on_c, 1, 73, 0
3, 20784, Note_on_c, 1, 77, 36
3, 20796, Note_on_c, 1, 77, 0
3, 20800, Note_on_c, 1, 70, 59
3, 20812, Note_on_c, 1, 70, 0
3, 20816, Note_on_c, 1, 71, 62
3, 20828, Note_on_c, 1, 71, 0
3, 20832, Note_on_c, 1, 73, 62
3, 20859, Note_on_c, 1, 73, 0
3, 20868, Note_on_c, 1, 66, 52
3, 20877, Note_on_c, 1, 66, 0
3, 20880, Note_on_c, 1, 71, 85
3, 20892, Note_on_c, 1, 71, 0
3, 20896, Note_on_c, 1, 68, 62
3, 20908, Note_on_c, 1, 68, 0
3, 20912, Note_on_c, 1, 65, 85
3, 20924, Note_on_c, 1, 65, 0
3, 20928, Note_on_c, 1, 66, 54
3, 20955, Note_on_c, 1, 66, 0
3, 20964, Note_on_c, 1, 61, 59
3, 20973, Note_on_c, 1, 61, 0
3, 20976, Note_on_c, 1, 62, 69
3, 20988, Note_on_c, 1, 62, 0
3, 20992, Note_on_c, 1, 58, 57
3, 21004, Note_on_c, 1, 58, 0
3, 21008, Note_on_c, 1, 59, 85
3, 21020, Note_on_c, 1, 59, 0
3, 21520, Note_on_c, 1, 62, 62
3, 21532, Note_on_c, 1, 62, 0
3, 21536, Note_on_c, 1, 64, 52
3, 21548, Note_on_c, 1, 64, 0
3, 21552, Note_on_c, 1, 66, 61
3, 21564, Note_on_c, 1, 66, 0
3, 21568, Note_on_c, 1, 68, 62
3, 21580, Note_on_c, 1, 68, 0
3, 21584, Note_on_c, 1, 69, 81
3, 21596, Note_on_c, 1, 69, 0
3, 21600, Note_on_c, 1, 68, 36
3, 21612, Note_on_c, 1, 68, 0
3, 21616, Note_on_c, 1, 64, 85
3, 21628, Note_on_c, 1, 64, 0
3, 21632, Note_on_c, 1, 66, 43
3, 21644, Note_on_c, 1, 66, 0
3, 21648, Note_on_c, 1, 68, 47
3, 21660, Note_on_c, 1, 68, 0
3, 21664, Note_on_c, 1, 69, 85
3, 21676, Note_on_c, 1, 69, 0
3, 21680, Note_on_c, 1, 71, 74
3, 21692, Note_on_c, 1, 71, 0
3, 21696, Note_on_c, 1, 70, 54
3, 21708, Note_on_c, 1, 70, 0
3, 21712, Note_on_c, 1, 66, 47
3, 21724, Note_on_c, 1, 66, 0
3, 21728, Note_on_c, 1, 68, 67
3, 21740, Note_on_c, 1, 68, 0
3, 21744, Note_on_c, 1, 70, 52
3, 21756, Note_on_c, 1, 70, 0
3, 21760, Note_on_c, 1, 71, 74
3, 21772, Note_on_c, 1, 71, 0
3, 21776, Note_on_c, 1, 73, 53
3, 21788, Note_on_c, 1, 73, 0
3, 21792, Note_on_c, 1, 71, 66
3, 21804, Note_on_c, 1, 71, 0
3, 21808, Note_on_c, 1, 68, 37
3, 21820, Note_on_c, 1, 68, 0
3, 21824, Note_on_c, 1, 69, 57
3, 21836, Note_on_c, 1, 69, 0
3, 21840, Note_on_c, 1, 71, 66
3, 21852, Note_on_c, 1, 71, 0
3, 21856, Note_on_c, 1, 73, 57
3, 21868, Note_on_c, 1, 73, 0
3, 21872, Note_on_c, 1, 74, 74
3, 21884, Note_on_c, 1, 74, 0
3, 21888, Note_on_c, 1, 73, 52
3, 21900, Note_on_c, 1, 73, 0
3, 21904, Note_on_c, 1, 70, 46
3, 21916, Note_on_c, 1, 70, 0
3, 21920, Note_on_c, 1, 71, 77
3, 21932, Note_on_c, 1, 71, 0
3, 21936, Note_on_c, 1, 73, 52
3, 21948, Note_on_c, 1, 73, 0
3, 21952, Note_on_c, 1, 74, 52
3, 21964, Note_on_c, 1, 74, 0
3, 21968, Note_on_c, 1, 76, 65
3, 21980, Note_on_c, 1, 76, 0
3, 21984, Note_on_c, 1, 78, 46
3, 21996, Note_on_c, 1, 78, 0
3, 22000, Note_on_c, 1, 74, 79
3, 22012, Note_on_c, 1, 74, 0
3, 22016, Note_on_c, 1, 71, 56
3, 22028, Note_on_c, 1, 71, 0
3, 22032, Note_on_c, 1, 78, 50
3, 22044, Note_on_c, 1, 78, 0
3, 22048, Note_on_c, 1, 74, 76
3, 22060, Note_on_c, 1, 74, 0
3, 22064, Note_on_c, 1, 71, 59
3, 22076, Note_on_c, 1, 71, 0
3, 22080, Note_on_c, 1, 78, 49
3, 22092, Note_on_c, 1, 78, 0
3, 22096, Note_on_c, 1, 74, 85
3, 22108, Note_on_c, 1, 74, 0
3, 22112, Note_on_c, 1, 71, 43
3, 22124, Note_on_c, 1, 71, 0
3, 22128, Note_on_c, 1, 66, 59
3, 22140, Note_on_c, 1, 66, 0
3, 22144, Note_on_c, 1, 71, 74
3, 22156, Note_on_c, 1, 71, 0
3, 22160, Note_on_c, 1, 70, 65
3, 22172, Note_on_c, 1, 70, 0
3, 22176, Note_on_c, 1, 71, 85
3, 22212, Note_on_c, 1, 71, 0
3, 22272, Control_c, 1, 7, 77
3, 22272, Note_on_c, 1, 69, 98
3, 22272, Note_on_c, 1, 66, 98
3, 22272, Note_on_c, 1, 62, 98
3, 22272, Note_on_c, 1, 74, 98
3, 22320, Note_on_c, 1, 62, 0
3, 22320, Note_on_c, 1, 66, 0
3, 22320, Note_on_c, 1, 69, 0
3, 22320, Note_on_c, 1, 74, 0
3, 22320, Control_c, 1, 10, 108
3, 23232, Control_c, 1, 7, 64
3, 23256, Control_c, 1, 7, 64
3, 23268, Note_on_c, 1, 74, 95
3, 23280, Note_on_c, 1, 74, 0
3, 23280, Note_on_c, 1, 81, 95
3, 23316, Note_on_c, 1, 81, 0
3, 23316, Note_on_c, 1, 76, 95
3, 23328, Note_on_c, 1, 76, 0
3, 23328, Note_on_c, 1, 78, 95
3, 23344, Note_on_c, 1, 78, 0
3, 23344, Note_on_c, 1, 76, 95
3, 23360, Note_on_c, 1, 76, 0
3, 23360, Note_on_c, 1, 74, 95
3, 23376, Note_on_c, 1, 74, 0
3, 23376, Note_on_c, 1, 73, 95
3, 23392, Note_on_c, 1, 73, 0
3, 23392, Note_on_c, 1, 74, 95
3, 23408, Note_on_c, 1, 74, 0
3, 23408, Note_on_c, 1, 76, 95
3, 23424, Note_on_c, 1, 76, 0
3, 23424, Note_on_c, 1, 69, 95
3, 23440, Note_on_c, 1, 69, 0
3, 23440, Note_on_c, 1, 73, 95
3, 23456, Note_on_c, 1, 73, 0
3, 23456, Note_on_c, 1, 71, 95
3, 23472, Note_on_c, 1, 71, 0
3, 23472, Note_on_c, 1, 69, 95
3, 23488, Note_on_c, 1, 69, 0
3, 23488, Note_on_c, 1, 71, 95
3, 23504, Note_on_c, 1, 71, 0
3, 23504, Note_on_c, 1, 73, 95
3, 23520, Note_on_c, 1, 73, 0
3, 23520, Note_on_c, 1, 66, 95
3, 23536, Note_on_c, 1, 66, 0
3, 23536, Note_on_c, 1, 71, 95
3, 23552, Note_on_c, 1, 71, 0
3, 23552, Note_on_c, 1, 69, 95
3, 23568, Note_on_c, 1, 69, 0
3, 23568, Note_on_c, 1, 68, 95
3, 23584, Note_on_c, 1, 68, 0
3, 23584, Note_on_c, 1, 73, 95
3, 23600, Note_on_c, 1, 73, 0
3, 23600, Note_on_c, 1, 71, 95
3, 23616, Note_on_c, 1, 71, 0
3, 23616, Note_on_c, 1, 69, 95
3, 23624, Note_on_c, 1, 69, 0
3, 23624, Note_on_c, 1, 68, 95
3, 23632, Note_on_c, 1, 68, 0
3, 23632, Note_on_c, 1, 69, 95
3, 23640, Note_on_c, 1, 69, 0
3, 23640, Note_on_c, 1, 71, 95
3, 23648, Note_on_c, 1, 71, 0
3, 23648, Note_on_c, 1, 73, 95
3, 23656, Note_on_c, 1, 73, 0
3, 23656, Note_on_c, 1, 74, 95
3, 23664, Note_on_c, 1, 74, 0
3, 23664, Note_on_c, 1, 76, 95
3, 23672, Note_on_c, 1, 76, 0
3, 23672, Note_on_c, 1, 78, 95
3, 23680, Note_on_c, 1, 78, 0
3, 23680, Note_on_c, 1, 76, 95
3, 23688, Note_on_c, 1, 76, 0
3, 23688, Note_on_c, 1, 74, 95
3, 23696, Note_on_c, 1, 74, 0
3, 23696, Note_on_c, 1, 73, 95
3, 23704, Note_on_c, 1, 73, 0
3, 23704, Note_on_c, 1, 71, 95
3, 23712, Note_on_c, 1, 71, 0
3, 23712, Note_on_c, 1, 69, 95
3, 23720, Note_on_c, 1, 69, 0
3, 23720, Note_on_c, 1, 73, 95
3, 23728, Note_on_c, 1, 73, 0
3, 23728, Note_on_c, 1, 71, 95
3, 23736, Note_on_c, 1, 71, 0
3, 23736, Note_on_c, 1, 69, 95
3, 23744, Note_on_c, 1, 69, 0
3, 23744, Note_on_c, 1, 68, 95
3, 23752, Note_on_c, 1, 68, 0
3, 23752, Note_on_c, 1, 66, 95
3, 23760, Note_on_c, 1, 66, 0
3, 23760, Note_on_c, 1, 64, 95
3, 23768, Note_on_c, 1, 64, 0
3, 23768, Note_on_c, 1, 66, 95
3, 23776, Note_on_c, 1, 66, 0
3, 23776, Note_on_c, 1, 64, 95
3, 23784, Note_on_c, 1, 64, 0
3, 23784, Note_on_c, 1, 62, 95
3, 23792, Note_on_c, 1, 62, 0
3, 23792, Note_on_c, 1, 61, 95
3, 23800, Note_on_c, 1, 61, 0
3, 23800, Note_on_c, 1, 59, 95
3, 23808, Note_on_c, 1, 59, 0
3, 23808, Note_on_c, 1, 57, 95
3, 23816, Note_on_c, 1, 57, 0
3, 23856, Note_on_c, 1, 69, 95
3, 23880, Note_on_c, 1, 69, 0
3, 23904, Note_on_c, 1, 69, 95
3, 23928, Note_on_c, 1, 69, 0
3, 23952, Note_on_c, 1, 68, 95
3, 23976, Note_on_c, 1, 68, 0
3, 24000, Note_on_c, 1, 69, 95
3, 24006, Note_on_c, 1, 69, 0
3, 24006, Note_on_c, 1, 71, 95
3, 24012, Note_on_c, 1, 71, 0
3, 24012, Note_on_c, 1, 69, 95
3, 24018, Note_on_c, 1, 69, 0
3, 24018, Note_on_c, 1, 71, 95
3, 24024, Note_on_c, 1, 71, 0
3, 24024, Note_on_c, 1, 69, 95
3, 24030, Note_on_c, 1, 69, 0
3, 24030, Note_on_c, 1, 71, 95
3, 24036, Note_on_c, 1, 71, 0
3, 24036, Note_on_c, 1, 69, 95
3, 24042, Note_on_c, 1, 69, 0
3, 24042, Note_on_c, 1, 71, 95
3, 24048, Note_on_c, 1, 71, 0
3, 24048, Note_on_c, 1, 69, 95
3, 24054, Note_on_c, 1, 69, 0
3, 24054, Note_on_c, 1, 71, 95
3, 24060, Note_on_c, 1, 71, 0
3, 24060, Note_on_c, 1, 69, 95
3, 24066, Note_on_c, 1, 69, 0
3, 24066, Note_on_c, 1, 71, 95
3, 24072, Note_on_c, 1, 71, 0
3, 24072, Note_on_c, 1, 69, 95
3, 24078, Note_on_c, 1, 69, 0
3, 24078, Note_on_c, 1, 71, 95
3, 24084, Note_on_c, 1, 71, 0
3, 24084, Note_on_c, 1, 69, 95
3, 24090, Note_on_c, 1, 69, 0
3, 24090, Note_on_c, 1, 71, 95
3, 24096, Note_on_c, 1, 71, 0
3, 24096, Note_on_c, 1, 69, 95
3, 24112, Note_on_c, 1, 69, 0
3, 24112, Note_on_c, 1, 73, 95
3, 24128, Note_on_c, 1, 73, 0
3, 24128, Note_on_c, 1, 71, 95
3, 24144, Note_on_c, 1, 71, 0
3, 24144, Note_on_c, 1, 69, 95
3, 24160, Note_on_c, 1, 69, 0
3, 24160, Note_on_c, 1, 68, 95
3, 24176, Note_on_c, 1, 68, 0
3, 24176, Note_on_c, 1, 66, 95
3, 24192, Note_on_c, 1, 66, 0
3, 24192, Note_on_c, 1, 64, 95
3, 24198, Note_on_c, 1, 64, 0
3, 24198, Note_on_c, 1, 66, 95
3, 24204, Note_on_c, 1, 66, 0
3, 24204, Note_on_c, 1, 64, 95
3, 24210, Note_on_c, 1, 64, 0
3, 24210, Note_on_c, 1, 66, 95
3, 24216, Note_on_c, 1, 66, 0
3, 24216, Note_on_c, 1, 64, 95
3, 24222, Note_on_c, 1, 64, 0
3, 24222, Note_on_c, 1, 66, 95
3, 24228, Note_on_c, 1, 66, 0
3, 24228, Note_on_c, 1, 64, 95
3, 24234, Note_on_c, 1, 64, 0
3, 24234, Note_on_c, 1, 66, 95
3, 24240, Note_on_c, 1, 66, 0
3, 24240, Note_on_c, 1, 64, 95
3, 24246, Note_on_c, 1, 64, 0
3, 24246, Note_on_c, 1, 66, 95
3, 24252, Note_on_c, 1, 66, 0
3, 24252, Note_on_c, 1, 64, 95
3, 24258, Note_on_c, 1, 64, 0
3, 24258, Note_on_c, 1, 66, 95
3, 24264, Note_on_c, 1, 66, 0
3, 24264, Note_on_c, 1, 64, 95
3, 24270, Note_on_c, 1, 64, 0
3, 24270, Note_on_c, 1, 66, 95
3, 24276, Note_on_c, 1, 66, 0
3, 24276, Note_on_c, 1, 64, 95
3, 24282, Note_on_c, 1, 64, 0
3, 24282, Note_on_c, 1, 66, 95
3, 24288, Note_on_c, 1, 66, 0
3, 24288, Note_on_c, 1, 64, 95
3, 24304, Note_on_c, 1, 64, 0
3, 24304, Note_on_c, 1, 61, 95
3, 24320, Note_on_c, 1, 61, 0
3, 24320, Note_on_c, 1, 62, 95
3, 24336, Note_on_c, 1, 62, 0
3, 24336, Note_on_c, 1, 64, 95
3, 24352, Note_on_c, 1, 64, 0
3, 24352, Note_on_c, 1, 62, 95
3, 24368, Note_on_c, 1, 62, 0
3, 24368, Note_on_c, 1, 64, 95
3, 24384, Note_on_c, 1, 64, 0
3, 24384, Note_on_c, 1, 66, 95
3, 24400, Note_on_c, 1, 66, 0
3, 24400, Note_on_c, 1, 69, 95
3, 24416, Note_on_c, 1, 69, 0
3, 24416, Note_on_c, 1, 68, 95
3, 24432, Note_on_c, 1, 68, 0
3, 24432, Note_on_c, 1, 66, 95
3, 24448, Note_on_c, 1, 66, 0
3, 24448, Note_on_c, 1, 69, 95
3, 24464, Note_on_c, 1, 69, 0
3, 24464, Note_on_c, 1, 68, 95
3, 24480, Note_on_c, 1, 68, 0
3, 24480, Note_on_c, 1, 66, 95
3, 24496, Note_on_c, 1, 66, 0
3, 24496, Note_on_c, 1, 63, 95
3, 24512, Note_on_c, 1, 63, 0
3, 24512, Note_on_c, 1, 64, 95
3, 24528, Note_on_c, 1, 64, 0
3, 24528, Note_on_c, 1, 66, 95
3, 24544, Note_on_c, 1, 66, 0
3, 24544, Note_on_c, 1, 64, 95
3, 24560, Note_on_c, 1, 64, 0
3, 24560, Note_on_c, 1, 66, 95
3, 24576, Note_on_c, 1, 66, 0
3, 24576, Note_on_c, 1, 68, 95
3, 24592, Note_on_c, 1, 68, 0
3, 24624, Note_on_c, 1, 73, 95
3, 24624, Note_on_c, 1, 71, 95
3, 24624, Note_on_c, 1, 76, 95
3, 24648, Note_on_c, 1, 71, 0
3, 24648, Note_on_c, 1, 73, 0
3, 24648, Note_on_c, 1, 76, 0
3, 24672, Note_on_c, 1, 73, 95
3, 24672, Note_on_c, 1, 69, 95
3, 24672, Note_on_c, 1, 76, 95
3, 24696, Note_on_c, 1, 69, 0
3, 24696, Note_on_c, 1, 73, 0
3, 24696, Note_on_c, 1, 76, 0
3, 24720, Note_on_c, 1, 71, 95
3, 24720, Note_on_c, 1, 66, 95
3, 24720, Note_on_c, 1, 74, 95
3, 24744, Note_on_c, 1, 66, 0
3, 24744, Note_on_c, 1, 71, 0
3, 24744, Note_on_c, 1, 74, 0
3, 24768, Note_on_c, 1, 71, 95
3, 24768, Note_on_c, 1, 68, 95
3, 24768, Note_on_c, 1, 74, 95
3, 24792, Note_on_c, 1, 68, 0
3, 24792, Note_on_c, 1, 71, 0
3, 24792, Note_on_c, 1, 74, 0
3, 24816, Note_on_c, 1, 69, 95
3, 24816, Note_on_c, 1, 73, 95
3, 24852, Note_on_c, 1, 73, 0
3, 24852, Note_on_c, 1, 74, 95
3, 24864, Note_on_c, 1, 74, 0
3, 24864, Note_on_c, 1, 76, 95
3, 24900, Note_on_c, 1, 76, 0
3, 24900, Note_on_c, 1, 78, 95
3, 24912, Note_on_c, 1, 69, 0
3, 24912, Note_on_c, 1, 78, 0
3, 24912, Note_on_c, 1, 71, 95
3, 24948, Note_on_c, 1, 71, 0
3, 24948, Note_on_c, 1, 69, 95
3, 24960, Note_on_c, 1, 69, 0
3, 24960, Note_on_c, 1, 69, 95
3, 24984, Note_on_c, 1, 69, 0
3, 26052, Note_on_c, 1, 74, 95
3, 26064, Note_on_c, 1, 74, 0
3, 26064, Control_c, 1, 7, 95
3, 26064, Note_on_c, 1, 81, 95
3, 26100, Note_on_c, 1, 81, 0
3, 26100, Control_c, 1, 7, 95
3, 26100, Note_on_c, 1, 76, 95
3, 26112, Note_on_c, 1, 76, 0
3, 26112, Note_on_c, 1, 78, 95
3, 26128, Note_on_c, 1, 78, 0
3, 26128, Note_on_c, 1, 76, 95
3, 26144, Note_on_c, 1, 76, 0
3, 26144, Note_on_c, 1, 74, 95
3, 26160, Note_on_c, 1, 74, 0
3, 26160, Note_on_c, 1, 73, 95
3, 26176, Note_on_c, 1, 73, 0
3, 26176, Note_on_c, 1, 74, 95
3, 26192, Note_on_c, 1, 74, 0
3, 26192, Note_on_c, 1, 76, 95
3, 26208, Note_on_c, 1, 76, 0
3, 26208, Note_on_c, 1, 69, 77
3, 26216, Note_on_c, 1, 69, 0
3, 26216, Note_on_c, 1, 66, 55
3, 26224, Note_on_c, 1, 66, 0
3, 26224, Note_on_c, 1, 67, 62
3, 26232, Note_on_c, 1, 67, 0
3, 26232, Note_on_c, 1, 69, 85
3, 26240, Note_on_c, 1, 69, 0
3, 26240, Note_on_c, 1, 71, 85
3, 26248, Note_on_c, 1, 71, 0
3, 26248, Note_on_c, 1, 73, 56
3, 26256, Note_on_c, 1, 73, 0
3, 26256, Note_on_c, 1, 74, 81
3, 26264, Note_on_c, 1, 74, 0
3, 26264, Note_on_c, 1, 76, 79
3, 26272, Note_on_c, 1, 76, 0
3, 26272, Note_on_c, 1, 74, 78
3, 26280, Note_on_c, 1, 74, 0
3, 26280, Note_on_c, 1, 73, 62
3, 26288, Note_on_c, 1, 73, 0
3, 26288, Note_on_c, 1, 71, 74
3, 26296, Note_on_c, 1, 71, 0
3, 26296, Note_on_c, 1, 69, 85
3, 26304, Note_on_c, 1, 69, 0
3, 26304, Note_on_c, 1, 71, 61
3, 26312, Note_on_c, 1, 71, 0
3, 26312, Note_on_c, 1, 74, 72
3, 26320, Note_on_c, 1, 74, 0
3, 26320, Note_on_c, 1, 73, 49
3, 26328, Note_on_c, 1, 73, 0
3, 26328, Note_on_c, 1, 71, 85
3, 26336, Note_on_c, 1, 71, 0
3, 26336, Note_on_c, 1, 69, 85
3, 26344, Note_on_c, 1, 69, 0
3, 26344, Note_on_c, 1, 67, 44
3, 26352, Note_on_c, 1, 67, 0
3, 26352, Note_on_c, 1, 66, 60
3, 26360, Note_on_c, 1, 66, 0
3, 26360, Note_on_c, 1, 64, 59
3, 26368, Note_on_c, 1, 64, 0
3, 26368, Note_on_c, 1, 66, 46
3, 26376, Note_on_c, 1, 66, 0
3, 26376, Note_on_c, 1, 67, 67
3, 26384, Note_on_c, 1, 67, 0
3, 26384, Note_on_c, 1, 69, 33
3, 26392, Note_on_c, 1, 69, 0
3, 26392, Note_on_c, 1, 66, 60
3, 26400, Note_on_c, 1, 66, 0
3, 26400, Note_on_c, 1, 62, 66
3, 26408, Note_on_c, 1, 62, 0
3, 26408, Note_on_c, 1, 61, 53
3, 26416, Note_on_c, 1, 61, 0
3, 26416, Note_on_c, 1, 62, 85
3, 26424, Note_on_c, 1, 62, 0
3, 26424, Note_on_c, 1, 64, 69
3, 26432, Note_on_c, 1, 64, 0
3, 26432, Note_on_c, 1, 66, 49
3, 26440, Note_on_c, 1, 66, 0
3, 26440, Note_on_c, 1, 67, 60
3, 26448, Note_on_c, 1, 67, 0
3, 26448, Note_on_c, 1, 69, 85
3, 26456, Note_on_c, 1, 69, 0
3, 26456, Note_on_c, 1, 71, 85
3, 26464, Note_on_c, 1, 71, 0
3, 26464, Note_on_c, 1, 69, 85
3, 26472, Note_on_c, 1, 69, 0
3, 26472, Note_on_c, 1, 67, 85
3, 26480, Note_on_c, 1, 67, 0
3, 26480, Note_on_c, 1, 66, 52
3, 26488, Note_on_c, 1, 66, 0
3, 26488, Note_on_c, 1, 64, 79
3, 26496, Note_on_c, 1, 64, 0
3, 26496, Note_on_c, 1, 66, 46
3, 26504, Note_on_c, 1, 66, 0
3, 26504, Note_on_c, 1, 69, 85
3, 26512, Note_on_c, 1, 69, 0
3, 26512, Note_on_c, 1, 67, 72
3, 26520, Note_on_c, 1, 67, 0
3, 26520, Note_on_c, 1, 66, 49
3, 26528, Note_on_c, 1, 66, 0
3, 26528, Note_on_c, 1, 64, 85
3, 26536, Note_on_c, 1, 64, 0
3, 26536, Note_on_c, 1, 62, 68
3, 26544, Note_on_c, 1, 62, 0
3, 26544, Note_on_c, 1, 61, 53
3, 26552, Note_on_c, 1, 61, 0
3, 26552, Note_on_c, 1, 59, 85
3, 26560, Note_on_c, 1, 59, 0
3, 26560, Note_on_c, 1, 61, 59
3, 26568, Note_on_c, 1, 61, 0
3, 26568, Note_on_c, 1, 62, 53
3, 26576, Note_on_c, 1, 62, 0
3, 26576, Note_on_c, 1, 64, 64
3, 26584, Note_on_c, 1, 64, 0
3, 26584, Note_on_c, 1, 61, 50
3, 26592, Note_on_c, 1, 61, 0
3, 26592, Note_on_c, 1, 57, 50
3, 26600, Note_on_c, 1, 57, 0
3, 26600, Note_on_c, 1, 62, 53
3, 26608, Note_on_c, 1, 62, 0
3, 26608, Note_on_c, 1, 64, 56
3, 26616, Note_on_c, 1, 64, 0
3, 26616, Note_on_c, 1, 66, 55
3, 26624, Note_on_c, 1, 66, 0
3, 26624, Note_on_c, 1, 64, 69
3, 26632, Note_on_c, 1, 64, 0
3, 26632, Note_on_c, 1, 62, 59
3, 26640, Note_on_c, 1, 62, 0
3, 26640, Note_on_c, 1, 57, 50
3, 26648, Note_on_c, 1, 57, 0
3, 26648, Note_on_c, 1, 62, 57
3, 26656, Note_on_c, 1, 62, 0
3, 26656, Note_on_c, 1, 64, 76
3, 26664, Note_on_c, 1, 64, 0
3, 26664, Note_on_c, 1, 66, 50
3, 26672, Note_on_c, 1, 66, 0
3, 26672, Note_on_c, 1, 64, 74
3, 26680, Note_on_c, 1, 64, 0
3, 26680, Note_on_c, 1, 62, 85
3, 26688, Note_on_c, 1, 62, 0
3, 26688, Note_on_c, 1, 61, 49
3, 26696, Note_on_c, 1, 61, 0
3, 26696, Note_on_c, 1, 66, 42
3, 26704, Note_on_c, 1, 66, 0
3, 26704, Note_on_c, 1, 67, 65
3, 26712, Note_on_c, 1, 67, 0
3, 26712, Note_on_c, 1, 69, 62
3, 26720, Note_on_c, 1, 69, 0
3, 26720, Note_on_c, 1, 67, 59
3, 26728, Note_on_c, 1, 67, 0
3, 26728, Note_on_c, 1, 66, 53
3, 26736, Note_on_c, 1, 66, 0
3, 26736, Note_on_c, 1, 62, 67
3, 26744, Note_on_c, 1, 62, 0
3, 26744, Note_on_c, 1, 67, 85
3, 26752, Note_on_c, 1, 67, 0
3, 26752, Note_on_c, 1, 69, 67
3, 26760, Note_on_c, 1, 69, 0
3, 26760, Note_on_c, 1, 71, 65
3, 26768, Note_on_c, 1, 71, 0
3, 26768, Note_on_c, 1, 69, 85
3, 26776, Note_on_c, 1, 69, 0
3, 26776, Note_on_c, 1, 67, 79
3, 26784, Note_on_c, 1, 67, 0
3, 26784, Note_on_c, 1, 64, 44
3, 26792, Note_on_c, 1, 64, 0
3, 26792, Note_on_c, 1, 67, 69
3, 26800, Note_on_c, 1, 67, 0
3, 26800, Note_on_c, 1, 69, 79
3, 26808, Note_on_c, 1, 69, 0
3, 26808, Note_on_c, 1, 71, 74
3, 26816, Note_on_c, 1, 71, 0
3, 26816, Note_on_c, 1, 69, 72
3, 26824, Note_on_c, 1, 69, 0
3, 26824, Note_on_c, 1, 67, 74
3, 26832, Note_on_c, 1, 67, 0
3, 26832, Note_on_c, 1, 66, 54
3, 26840, Note_on_c, 1, 66, 0
3, 26840, Note_on_c, 1, 67, 81
3, 26848, Note_on_c, 1, 67, 0
3, 26848, Note_on_c, 1, 69, 44
3, 26856, Note_on_c, 1, 69, 0
3, 26856, Note_on_c, 1, 71, 77
3, 26864, Note_on_c, 1, 71, 0
3, 26864, Note_on_c, 1, 73, 68
3, 26872, Note_on_c, 1, 73, 0
3, 26872, Note_on_c, 1, 69, 85
3, 26880, Note_on_c, 1, 69, 0
3, 26880, Note_on_c, 1, 74, 56
3, 26896, Note_on_c, 1, 74, 0
3, 26896, Note_on_c, 1, 73, 50
3, 26912, Note_on_c, 1, 73, 0
3, 26912, Note_on_c, 1, 71, 85
3, 26928, Note_on_c, 1, 71, 0
3, 26928, Note_on_c, 1, 69, 81
3, 26944, Note_on_c, 1, 69, 0
3, 26944, Note_on_c, 1, 71, 81
3, 26960, Note_on_c, 1, 71, 0
3, 26960, Note_on_c, 1, 67, 50
3, 26976, Note_on_c, 1, 67, 0
3, 26976, Note_on_c, 1, 66, 68
3, 27000, Note_on_c, 1, 66, 0
3, 27024, Note_on_c, 1, 74, 68
3, 27048, Note_on_c, 1, 74, 0
3, 27072, Note_on_c, 1, 74, 68
3, 27096, Note_on_c, 1, 74, 0
3, 27120, Note_on_c, 1, 73, 68
3, 27144, Note_on_c, 1, 73, 0
3, 27168, Note_on_c, 1, 74, 55
3, 27172, Note_on_c, 1, 74, 0
3, 27172, Note_on_c, 1, 76, 55
3, 27176, Note_on_c, 1, 76, 0
3, 27176, Note_on_c, 1, 74, 62
3, 27180, Note_on_c, 1, 74, 0
3, 27180, Note_on_c, 1, 76, 59
3, 27184, Note_on_c, 1, 76, 0
3, 27184, Note_on_c, 1, 74, 71
3, 27188, Note_on_c, 1, 74, 0
3, 27188, Note_on_c, 1, 76, 56
3, 27192, Note_on_c, 1, 76, 0
3, 27192, Note_on_c, 1, 74, 64
3, 27196, Note_on_c, 1, 74, 0
3, 27196, Note_on_c, 1, 76, 74
3, 27200, Note_on_c, 1, 76, 0
3, 27200, Note_on_c, 1, 74, 85
3, 27204, Note_on_c, 1, 74, 0
3, 27204, Note_on_c, 1, 76, 66
3, 27208, Note_on_c, 1, 76, 0
3, 27208, Note_on_c, 1, 74, 85
3, 27212, Note_on_c, 1, 74, 0
3, 27212, Note_on_c, 1, 76, 85
3, 27216, Note_on_c, 1, 76, 0
3, 27216, Note_on_c, 1, 74, 85
3, 27220, Note_on_c, 1, 74, 0
3, 27220, Note_on_c, 1, 76, 85
3, 27224, Note_on_c, 1, 76, 0
3, 27224, Note_on_c, 1, 74, 86
3, 27228, Note_on_c, 1, 74, 0
3, 27228, Note_on_c, 1, 76, 85
3, 27232, Note_on_c, 1, 76, 0
3, 27232, Note_on_c, 1, 74, 85
3, 27236, Note_on_c, 1, 74, 0
3, 27236, Note_on_c, 1, 76, 74
3, 27240, Note_on_c, 1, 76, 0
3, 27240, Note_on_c, 1, 74, 85
3, 27244, Note_on_c, 1, 74, 0
3, 27244, Note_on_c, 1, 76, 81
3, 27248, Note_on_c, 1, 76, 0
3, 27248, Note_on_c, 1, 74, 85
3, 27252, Note_on_c, 1, 74, 0
3, 27252, Note_on_c, 1, 76, 85
3, 27256, Note_on_c, 1, 76, 0
3, 27256, Note_on_c, 1, 74, 85
3, 27260, Note_on_c, 1, 74, 0
3, 27260, Note_on_c, 1, 76, 85
3, 27264, Note_on_c, 1, 76, 0
3, 27264, Note_on_c, 1, 74, 79
3, 27275, Note_on_c, 1, 74, 0
3, 27280, Note_on_c, 1, 78, 79
3, 27291, Note_on_c, 1, 78, 0
3, 27296, Note_on_c, 1, 76, 79
3, 27307, Note_on_c, 1, 76, 0
3, 27312, Note_on_c, 1, 74, 79
3, 27323, Note_on_c, 1, 74, 0
3, 27328, Note_on_c, 1, 73, 79
3, 27339, Note_on_c, 1, 73, 0
3, 27344, Note_on_c, 1, 71, 79
3, 27355, Note_on_c, 1, 71, 0
3, 27360, Note_on_c, 1, 69, 85
3, 27364, Note_on_c, 1, 69, 0
3, 27364, Note_on_c, 1, 71, 85
3, 27368, Note_on_c, 1, 71, 0
3, 27368, Note_on_c, 1, 69, 85
3, 27372, Note_on_c, 1, 69, 0
3, 27372, Note_on_c, 1, 71, 85
3, 27376, Note_on_c, 1, 71, 0
3, 27376, Note_on_c, 1, 69, 85
3, 27380, Note_on_c, 1, 69, 0
3, 27380, Note_on_c, 1, 71, 85
3, 27384, Note_on_c, 1, 71, 0
3, 27384, Note_on_c, 1, 69, 85
3, 27388, Note_on_c, 1, 69, 0
3, 27388, Note_on_c, 1, 71, 85
3, 27392, Note_on_c, 1, 71, 0
3, 27392, Note_on_c, 1, 69, 81
3, 27396, Note_on_c, 1, 69, 0
3, 27396, Note_on_c, 1, 71, 81
3, 27400, Note_on_c, 1, 71, 0
3, 27400, Note_on_c, 1, 69, 85
3, 27404, Note_on_c, 1, 69, 0
3, 27404, Note_on_c, 1, 71, 85
3, 27408, Note_on_c, 1, 71, 0
3, 27408, Note_on_c, 1, 69, 85
3, 27412, Note_on_c, 1, 69, 0
3, 27412, Note_on_c, 1, 71, 92
3, 27416, Note_on_c, 1, 71, 0
3, 27416, Note_on_c, 1, 69, 85
3, 27420, Note_on_c, 1, 69, 0
3, 27420, Note_on_c, 1, 71, 97
3, 27424, Note_on_c, 1, 71, 0
3, 27424, Note_on_c, 1, 69, 89
3, 27428, Note_on_c, 1, 69, 0
3, 27428, Note_on_c, 1, 71, 97
3, 27432, Note_on_c, 1, 71, 0
3, 27432, Note_on_c, 1, 69, 91
3, 27436, Note_on_c, 1, 69, 0
3, 27436, Note_on_c, 1, 71, 98
3, 27440, Note_on_c, 1, 71, 0
3, 27440, Note_on_c, 1, 69, 91
3, 27444, Note_on_c, 1, 69, 0
3, 27444, Note_on_c, 1, 71, 96
3, 27448, Note_on_c, 1, 71, 0
3, 27448, Note_on_c, 1, 69, 86
3, 27452, Note_on_c, 1, 69, 0
3, 27452, Note_on_c, 1, 71, 89
3, 27456, Note_on_c, 1, 71, 0
3, 27456, Note_on_c, 1, 69, 79
3, 27467, Note_on_c, 1, 69, 0
3, 27472, Note_on_c, 1, 66, 79
3, 27483, Note_on_c, 1, 66, 0
3, 27488, Note_on_c, 1, 67, 79
3, 27499, Note_on_c, 1, 67, 0
3, 27504, Note_on_c, 1, 69, 79
3, 27515, Note_on_c, 1, 69, 0
3, 27520, Note_on_c, 1, 67, 79
3, 27531, Note_on_c, 1, 67, 0
3, 27536, Note_on_c, 1, 69, 79
3, 27547, Note_on_c, 1, 69, 0
3, 27552, Note_on_c, 1, 71, 72
3, 27568, Note_on_c, 1, 71, 0
3, 27568, Note_on_c, 1, 74, 71
3, 27584, Note_on_c, 1, 74, 0
3, 27584, Note_on_c, 1, 73, 64
3, 27600, Note_on_c, 1, 73, 0
3, 27600, Note_on_c, 1, 71, 81
3, 27616, Note_on_c, 1, 71, 0
3, 27616, Note_on_c, 1, 74, 85
3, 27632, Note_on_c, 1, 74, 0
3, 27632, Note_on_c, 1, 73, 59
3, 27648, Note_on_c, 1, 73, 0
3, 27648, Note_on_c, 1, 71, 78
3, 27664, Note_on_c, 1, 71, 0
3, 27664, Note_on_c, 1, 68, 55
3, 27680, Note_on_c, 1, 68, 0
3, 27680, Note_on_c, 1, 69, 85
3, 27696, Note_on_c, 1, 69, 0
3, 27696, Note_on_c, 1, 71, 85
3, 27712, Note_on_c, 1, 71, 0
3, 27712, Note_on_c, 1, 69, 85
3, 27728, Note_on_c, 1, 69, 0
3, 27728, Note_on_c, 1, 71, 82
3, 27744, Note_on_c, 1, 71, 0
3, 27744, Note_on_c, 1, 73, 76
3, 27760, Note_on_c, 1, 73, 0
3, 27792, Note_on_c, 1, 69, 76
3, 27800, Note_on_c, 1, 79, 76
3, 27808, Note_on_c, 1, 69, 0
3, 27808, Note_on_c, 1, 79, 0
3, 27808, Note_on_c, 1, 78, 76
3, 27816, Note_on_c, 1, 78, 0
3, 27816, Note_on_c, 1, 76, 76
3, 27824, Note_on_c, 1, 76, 0
3, 27824, Note_on_c, 1, 74, 76
3, 27832, Note_on_c, 1, 74, 0
3, 27832, Note_on_c, 1, 73, 76
3, 27840, Note_on_c, 1, 73, 0
3, 27840, Note_on_c, 1, 74, 76
3, 27856, Note_on_c, 1, 74, 0
3, 27880, Note_on_c, 1, 67, 85
3, 27896, Note_on_c, 1, 67, 0
3, 27896, Note_on_c, 1, 78, 76
3, 27904, Note_on_c, 1, 78, 0
3, 27904, Note_on_c, 1, 76, 76
3, 27912, Note_on_c, 1, 76, 0
3, 27912, Note_on_c, 1, 74, 76
3, 27920, Note_on_c, 1, 74, 0
3, 27920, Note_on_c, 1, 73, 76
3, 27928, Note_on_c, 1, 73, 0
3, 27928, Note_on_c, 1, 71, 76
3, 27936, Note_on_c, 1, 71, 0
3, 27936, Note_on_c, 1, 73, 76
3, 27952, Note_on_c, 1, 73, 0
3, 27992, Note_on_c, 1, 76, 85
3, 28000, Note_on_c, 1, 76, 0
3, 28000, Note_on_c, 1, 74, 85
3, 28008, Note_on_c, 1, 74, 0
3, 28008, Note_on_c, 1, 72, 85
3, 28016, Note_on_c, 1, 72, 0
3, 28016, Note_on_c, 1, 71, 85
3, 28024, Note_on_c, 1, 71, 0
3, 28024, Note_on_c, 1, 69, 85
3, 28032, Note_on_c, 1, 69, 0
3, 28032, Note_on_c, 1, 71, 72
3, 28040, Note_on_c, 1, 71, 0
3, 28040, Note_on_c, 1, 72, 82
3, 28048, Note_on_c, 1, 72, 0
3, 28048, Note_on_c, 1, 71, 74
3, 28056, Note_on_c, 1, 71, 0
3, 28056, Note_on_c, 1, 69, 85
3, 28064, Note_on_c, 1, 69, 0
3, 28064, Note_on_c, 1, 67, 85
3, 28072, Note_on_c, 1, 67, 0
3, 28072, Note_on_c, 1, 66, 59
3, 28080, Note_on_c, 1, 66, 0
3, 28080, Note_on_c, 1, 64, 59
3, 28088, Note_on_c, 1, 64, 0
3, 28088, Note_on_c, 1, 66, 59
3, 28096, Note_on_c, 1, 66, 0
3, 28096, Note_on_c, 1, 64, 71
3, 28104, Note_on_c, 1, 64, 0
3, 28104, Note_on_c, 1, 62, 42
3, 28112, Note_on_c, 1, 62, 0
3, 28112, Note_on_c, 1, 61, 54
3, 28120, Note_on_c, 1, 61, 0
3, 28120, Note_on_c, 1, 64, 61
3, 28120, Note_on_c, 1, 67, 79
3, 28120, Note_on_c, 1, 71, 81
3, 28128, Note_on_c, 1, 64, 0
3, 28128, Note_on_c, 1, 67, 0
3, 28128, Note_on_c, 1, 71, 0
3, 28128, Note_on_c, 1, 64, 103
3, 28128, Note_on_c, 1, 69, 107
3, 28128, Note_on_c, 1, 67, 106
3, 28128, Note_on_c, 1, 73, 94
3, 28152, Note_on_c, 1, 64, 0
3, 28152, Note_on_c, 1, 67, 0
3, 28152, Note_on_c, 1, 69, 0
3, 28152, Note_on_c, 1, 73, 0
3, 28176, Note_on_c, 1, 66, 89
3, 28176, Note_on_c, 1, 69, 103
3, 28176, Note_on_c, 1, 74, 103
3, 28200, Note_on_c, 1, 66, 0
3, 28200, Note_on_c, 1, 69, 0
3, 28200, Note_on_c, 1, 74, 0
3, 28224, Note_on_c, 1, 66, 81
3, 28224, Note_on_c, 1, 71, 103
3, 28224, Note_on_c, 1, 74, 103
3, 28260, Note_on_c, 1, 66, 0
3, 28260, Note_on_c, 1, 71, 0
3, 28260, Note_on_c, 1, 74, 0
3, 28260, Note_on_c, 1, 64, 103
3, 28260, Note_on_c, 1, 71, 103
3, 28260, Note_on_c, 1, 74, 103
3, 28272, Note_on_c, 1, 64, 0
3, 28272, Note_on_c, 1, 71, 0
3, 28272, Note_on_c, 1, 74, 0
3, 28272, Note_on_c, 1, 64, 103
3, 28272, Note_on_c, 1, 69, 108
3, 28272, Note_on_c, 1, 73, 96
3, 28308, Note_on_c, 1, 64, 0
3, 28308, Note_on_c, 1, 69, 0
3, 28308, Note_on_c, 1, 73, 0
3, 28308, Note_on_c, 1, 67, 106
3, 28308, Note_on_c, 1, 64, 103
3, 28308, Note_on_c, 1, 73, 89
3, 28320, Note_on_c, 1, 64, 0
3, 28320, Note_on_c, 1, 67, 0
3, 28320, Note_on_c, 1, 73, 0
3, 28320, Note_on_c, 1, 66, 92
3, 28320, Note_on_c, 1, 62, 103
3, 28320, Note_on_c, 1, 69, 106
3, 28320, Note_on_c, 1, 74, 103
3, 28344, Note_on_c, 1, 62, 0
3, 28344, Note_on_c, 1, 66, 0
3, 28344, Note_on_c, 1, 69, 0
3, 28344, Note_on_c, 1, 74, 0
3, 28644, Note_on_c, 1, 67, 103
3, 28652, Note_on_c, 1, 67, 0
3, 28656, Note_on_c, 1, 74, 96
3, 28680, Note_on_c, 1, 74, 0
3, 28692, Note_on_c, 1, 69, 103
3, 28700, Note_on_c, 1, 69, 0
3, 28704, Note_on_c, 1, 71, 103
3, 28706, Note_on_c, 1, 71, 0
3, 28708, Note_on_c, 1, 73, 74
3, 28710, Note_on_c, 1, 73, 0
3, 28712, Note_on_c, 1, 71, 88
3, 28714, Note_on_c, 1, 71, 0
3, 28716, Note_on_c, 1, 73, 88
3, 28718, Note_on_c, 1, 73, 0
3, 28720, Note_on_c, 1, 71, 103
3, 28722, Note_on_c, 1, 71, 0
3, 28724, Note_on_c, 1, 73, 90
3, 28726, Note_on_c, 1, 73, 0
3, 28728, Note_on_c, 1, 71, 103
3, 28730, Note_on_c, 1, 71, 0
3, 28732, Note_on_c, 1, 73, 88
3, 28734, Note_on_c, 1, 73, 0
3, 28736, Note_on_c, 1, 71, 96
3, 28738, Note_on_c, 1, 71, 0
3, 28740, Note_on_c, 1, 73, 86
3, 28742, Note_on_c, 1, 73, 0
3, 28744, Note_on_c, 1, 71, 99
3, 28746, Note_on_c, 1, 71, 0
3, 28748, Note_on_c, 1, 73, 88
3, 28750, Note_on_c, 1, 73, 0
3, 28752, Note_on_c, 1, 71, 103
3, 28754, Note_on_c, 1, 71, 0
3, 28756, Note_on_c, 1, 73, 84
3, 28758, Note_on_c, 1, 73, 0
3, 28760, Note_on_c, 1, 71, 103
3, 28762, Note_on_c, 1, 71, 0
3, 28764, Note_on_c, 1, 73, 88
3, 28766, Note_on_c, 1, 73, 0
3, 28768, Note_on_c, 1, 71, 103
3, 28770, Note_on_c, 1, 71, 0
3, 28772, Note_on_c, 1, 73, 86
3, 28774, Note_on_c, 1, 73, 0
3, 28776, Note_on_c, 1, 71, 103
3, 28778, Note_on_c, 1, 71, 0
3, 28780, Note_on_c, 1, 73, 86
3, 28782, Note_on_c, 1, 73, 0
3, 28784, Note_on_c, 1, 71, 95
3, 28786, Note_on_c, 1, 71, 0
3, 28788, Note_on_c, 1, 73, 88
3, 28790, Note_on_c, 1, 73, 0
3, 28792, Note_on_c, 1, 71, 103
3, 28794, Note_on_c, 1, 71, 0
3, 28796, Note_on_c, 1, 73, 71
3, 28798, Note_on_c, 1, 73, 0
3, 28800, Note_on_c, 1, 71, 98
3, 28808, Note_on_c, 1, 71, 0
3, 28816, Note_on_c, 1, 74, 98
3, 28824, Note_on_c, 1, 74, 0
3, 28832, Note_on_c, 1, 73, 73
3, 28840, Note_on_c, 1, 73, 0
3, 28848, Note_on_c, 1, 71, 96
3, 28856, Note_on_c, 1, 71, 0
3, 28864, Note_on_c, 1, 74, 103
3, 28872, Note_on_c, 1, 74, 0
3, 28880, Note_on_c, 1, 73, 84
3, 28888, Note_on_c, 1, 73, 0
3, 28896, Note_on_c, 1, 71, 103
3, 28898, Note_on_c, 1, 71, 0
3, 28900, Note_on_c, 1, 73, 88
3, 28902, Note_on_c, 1, 73, 0
3, 28904, Note_on_c, 1, 71, 103
3, 28906, Note_on_c, 1, 71, 0
3, 28908, Note_on_c, 1, 73, 90
3, 28910, Note_on_c, 1, 73, 0
3, 28912, Note_on_c, 1, 71, 103
3, 28914, Note_on_c, 1, 71, 0
3, 28916, Note_on_c, 1, 73, 91
3, 28918, Note_on_c, 1, 73, 0
3, 28920, Note_on_c, 1, 71, 103
3, 28922, Note_on_c, 1, 71, 0
3, 28924, Note_on_c, 1, 73, 88
3, 28926, Note_on_c, 1, 73, 0
3, 28928, Note_on_c, 1, 71, 103
3, 28930, Note_on_c, 1, 71, 0
3, 28932, Note_on_c, 1, 73, 91
3, 28934, Note_on_c, 1, 73, 0
3, 28936, Note_on_c, 1, 71, 103
3, 28938, Note_on_c, 1, 71, 0
3, 28940, Note_on_c, 1, 73, 87
3, 28942, Note_on_c, 1, 73, 0
3, 28944, Note_on_c, 1, 71, 103
3, 28946, Note_on_c, 1, 71, 0
3, 28948, Note_on_c, 1, 73, 87
3, 28950, Note_on_c, 1, 73, 0
3, 28952, Note_on_c, 1, 71, 103
3, 28954, Note_on_c, 1, 71, 0
3, 28956, Note_on_c, 1, 73, 92
3, 28958, Note_on_c, 1, 73, 0
3, 28960, Note_on_c, 1, 71, 103
3, 28962, Note_on_c, 1, 71, 0
3, 28964, Note_on_c, 1, 73, 89
3, 28966, Note_on_c, 1, 73, 0
3, 28968, Note_on_c, 1, 71, 103
3, 28970, Note_on_c, 1, 71, 0
3, 28972, Note_on_c, 1, 73, 90
3, 28974, Note_on_c, 1, 73, 0
3, 28976, Note_on_c, 1, 71, 103
3, 28978, Note_on_c, 1, 71, 0
3, 28980, Note_on_c, 1, 73, 91
3, 28982, Note_on_c, 1, 73, 0
3, 28984, Note_on_c, 1, 71, 103
3, 28986, Note_on_c, 1, 71, 0
3, 28988, Note_on_c, 1, 73, 89
3, 28990, Note_on_c, 1, 73, 0
3, 28992, Note_on_c, 1, 71, 98
3, 29008, Note_on_c, 1, 71, 0
3, 29008, Note_on_c, 1, 74, 98
3, 29024, Note_on_c, 1, 74, 0
3, 29024, Note_on_c, 1, 73, 98
3, 29040, Note_on_c, 1, 73, 0
3, 29040, Note_on_c, 1, 71, 98
3, 29056, Note_on_c, 1, 71, 0
3, 29056, Note_on_c, 1, 69, 98
3, 29072, Note_on_c, 1, 69, 0
3, 29072, Note_on_c, 1, 68, 98
3, 29088, Note_on_c, 1, 68, 0
3, 29088, Note_on_c, 1, 73, 62
3, 29104, Note_on_c, 1, 73, 0
3, 29104, Note_on_c, 1, 76, 85
3, 29120, Note_on_c, 1, 76, 0
3, 29120, Note_on_c, 1, 74, 85
3, 29136, Note_on_c, 1, 74, 0
3, 29136, Note_on_c, 1, 73, 57
3, 29152, Note_on_c, 1, 73, 0
3, 29152, Note_on_c, 1, 71, 74
3, 29168, Note_on_c, 1, 71, 0
3, 29168, Note_on_c, 1, 69, 85
3, 29184, Note_on_c, 1, 69, 0
3, 29184, Note_on_c, 1, 74, 74
3, 29200, Note_on_c, 1, 74, 0
3, 29200, Note_on_c, 1, 78, 64
3, 29216, Note_on_c, 1, 78, 0
3, 29216, Note_on_c, 1, 76, 85
3, 29232, Note_on_c, 1, 76, 0
3, 29232, Note_on_c, 1, 74, 85
3, 29248, Note_on_c, 1, 74, 0
3, 29248, Note_on_c, 1, 73, 59
3, 29264, Note_on_c, 1, 73, 0
3, 29264, Note_on_c, 1, 71, 85
3, 29280, Note_on_c, 1, 71, 0
3, 29280, Note_on_c, 1, 76, 72
3, 29296, Note_on_c, 1, 76, 0
3, 29296, Note_on_c, 1, 79, 85
3, 29312, Note_on_c, 1, 79, 0
3, 29312, Note_on_c, 1, 78, 66
3, 29328, Note_on_c, 1, 78, 0
3, 29328, Note_on_c, 1, 76, 70
3, 29344, Note_on_c, 1, 76, 0
3, 29344, Note_on_c, 1, 74, 69
3, 29360, Note_on_c, 1, 74, 0
3, 29360, Note_on_c, 1, 73, 62
3, 29376, Note_on_c, 1, 73, 0
3, 29376, Note_on_c, 1, 78, 98
3, 29403, Note_on_c, 1, 78, 0
3, 29412, Note_on_c, 1, 81, 98
3, 29421, Note_on_c, 1, 81, 0
3, 29424, Note_on_c, 1, 86, 98
3, 29451, Note_on_c, 1, 86, 0
3, 29460, Note_on_c, 1, 81, 98
3, 29469, Note_on_c, 1, 81, 0
3, 29472, Note_on_c, 1, 83, 98
3, 29484, Note_on_c, 1, 83, 0
3, 29488, Note_on_c, 1, 81, 98
3, 29500, Note_on_c, 1, 81, 0
3, 29504, Note_on_c, 1, 79, 98
3, 29516, Note_on_c, 1, 79, 0
3, 29520, Note_on_c, 1, 78, 98
3, 29532, Note_on_c, 1, 78, 0
3, 29536, Note_on_c, 1, 79, 98
3, 29548, Note_on_c, 1, 79, 0
3, 29552, Note_on_c, 1, 81, 98
3, 29564, Note_on_c, 1, 81, 0
3, 29568, Note_on_c, 1, 74, 98
3, 29595, Note_on_c, 1, 74, 0
3, 29604, Note_on_c, 1, 76, 98
3, 29613, Note_on_c, 1, 76, 0
3, 29616, Note_on_c, 1, 73, 98
3, 29643, Note_on_c, 1, 73, 0
3, 29652, Note_on_c, 1, 74, 98
3, 29661, Note_on_c, 1, 74, 0
3, 29664, Note_on_c, 1, 69, 85
3, 29664, Note_on_c, 1, 66, 85
3, 29664, Note_on_c, 1, 62, 85
3, 29664, Note_on_c, 1, 74, 98
3, 29760, Note_on_c, 1, 62, 0
3, 29760, Note_on_c, 1, 66, 0
3, 29760, Note_on_c, 1, 69, 0
3, 29760, Note_on_c, 1, 74, 0
3, 29760, End_track
4, 0, Start_track
4, 0, Title_t, "Cembalo LH"
4, 0, Control_c, 2, 7, 83
4, 0, Pitch_bend_c, 2, 8192
4, 0, Control_c, 2, 1, 0
4, 0, Program_c, 2, 16
4, 0, Control_c, 2, 64, 0
4, 0, Control_c, 2, 10, 64
4, 48, Control_c, 2, 7, 83
4, 96, Control_c, 2, 10, 18
4, 804, Note_on_c, 2, 57, 95
4, 812, Note_on_c, 2, 57, 0
4, 816, Note_on_c, 2, 62, 95
4, 840, Note_on_c, 2, 62, 0
4, 852, Note_on_c, 2, 57, 95
4, 860, Note_on_c, 2, 57, 0
4, 864, Note_on_c, 2, 59, 95
4, 875, Note_on_c, 2, 59, 0
4, 880, Note_on_c, 2, 57, 95
4, 891, Note_on_c, 2, 57, 0
4, 896, Note_on_c, 2, 55, 95
4, 907, Note_on_c, 2, 55, 0
4, 912, Note_on_c, 2, 54, 95
4, 923, Note_on_c, 2, 54, 0
4, 928, Note_on_c, 2, 55, 95
4, 939, Note_on_c, 2, 55, 0
4, 944, Note_on_c, 2, 57, 95
4, 955, Note_on_c, 2, 57, 0
4, 960, Note_on_c, 2, 50, 95
4, 976, Note_on_c, 2, 50, 0
4, 1008, Note_on_c, 2, 49, 95
4, 1024, Note_on_c, 2, 49, 0
4, 1056, Note_on_c, 2, 50, 95
4, 1072, Note_on_c, 2, 50, 0
4, 1104, Note_on_c, 2, 52, 95
4, 1120, Note_on_c, 2, 52, 0
4, 1152, Note_on_c, 2, 54, 95
4, 1176, Note_on_c, 2, 54, 0
4, 1200, Note_on_c, 2, 49, 95
4, 1224, Note_on_c, 2, 49, 0
4, 1248, Note_on_c, 2, 50, 95
4, 1272, Note_on_c, 2, 50, 0
4, 1296, Note_on_c, 2, 52, 95
4, 1320, Note_on_c, 2, 52, 0
4, 1344, Note_on_c, 2, 54, 95
4, 1368, Note_on_c, 2, 54, 0
4, 1392, Note_on_c, 2, 52, 95
4, 1416, Note_on_c, 2, 52, 0
4, 1440, Note_on_c, 2, 54, 95
4, 1464, Note_on_c, 2, 54, 0
4, 1488, Note_on_c, 2, 56, 95
4, 1512, Note_on_c, 2, 56, 0
4, 1536, Note_on_c, 2, 57, 95
4, 1549, Note_on_c, 2, 57, 0
4, 1552, Note_on_c, 2, 61, 95
4, 1565, Note_on_c, 2, 61, 0
4, 1568, Note_on_c, 2, 59, 95
4, 1581, Note_on_c, 2, 59, 0
4, 1584, Note_on_c, 2, 57, 95
4, 1597, Note_on_c, 2, 57, 0
4, 1600, Note_on_c, 2, 59, 95
4, 1613, Note_on_c, 2, 59, 0
4, 1616, Note_on_c, 2, 61, 95
4, 1629, Note_on_c, 2, 61, 0
4, 1632, Note_on_c, 2, 62, 95
4, 1652, Note_on_c, 2, 62, 0
4, 1680, Note_on_c, 2, 64, 95
4, 1700, Note_on_c, 2, 64, 0
4, 1728, Note_on_c, 2, 66, 95
4, 1733, Note_on_c, 2, 66, 0
4, 1734, Note_on_c, 2, 68, 95
4, 1739, Note_on_c, 2, 68, 0
4, 1740, Note_on_c, 2, 66, 95
4, 1745, Note_on_c, 2, 66, 0
4, 1746, Note_on_c, 2, 68, 95
4, 1751, Note_on_c, 2, 68, 0
4, 1752, Note_on_c, 2, 66, 95
4, 1757, Note_on_c, 2, 66, 0
4, 1758, Note_on_c, 2, 68, 95
4, 1763, Note_on_c, 2, 68, 0
4, 1764, Note_on_c, 2, 66, 95
4, 1769, Note_on_c, 2, 66, 0
4, 1770, Note_on_c, 2, 68, 95
4, 1775, Note_on_c, 2, 68, 0
4, 1776, Note_on_c, 2, 66, 95
4, 1781, Note_on_c, 2, 66, 0
4, 1782, Note_on_c, 2, 68, 95
4, 1787, Note_on_c, 2, 68, 0
4, 1788, Note_on_c, 2, 66, 95
4, 1793, Note_on_c, 2, 66, 0
4, 1794, Note_on_c, 2, 68, 95
4, 1799, Note_on_c, 2, 68, 0
4, 1800, Note_on_c, 2, 66, 95
4, 1805, Note_on_c, 2, 66, 0
4, 1806, Note_on_c, 2, 68, 95
4, 1811, Note_on_c, 2, 68, 0
4, 1812, Note_on_c, 2, 66, 95
4, 1817, Note_on_c, 2, 66, 0
4, 1818, Note_on_c, 2, 68, 95
4, 1823, Note_on_c, 2, 68, 0
4, 1824, Note_on_c, 2, 66, 95
4, 1837, Note_on_c, 2, 66, 0
4, 1840, Note_on_c, 2, 69, 95
4, 1853, Note_on_c, 2, 69, 0
4, 1856, Note_on_c, 2, 68, 95
4, 1869, Note_on_c, 2, 68, 0
4, 1872, Note_on_c, 2, 66, 95
4, 1885, Note_on_c, 2, 66, 0
4, 1888, Note_on_c, 2, 64, 95
4, 1901, Note_on_c, 2, 64, 0
4, 1904, Note_on_c, 2, 62, 95
4, 1917, Note_on_c, 2, 62, 0
4, 1920, Note_on_c, 2, 61, 95
4, 1925, Note_on_c, 2, 61, 0
4, 1926, Note_on_c, 2, 62, 95
4, 1931, Note_on_c, 2, 62, 0
4, 1932, Note_on_c, 2, 61, 95
4, 1937, Note_on_c, 2, 61, 0
4, 1938, Note_on_c, 2, 62, 95
4, 1943, Note_on_c, 2, 62, 0
4, 1944, Note_on_c, 2, 61, 95
4, 1949, Note_on_c, 2, 61, 0
4, 1950, Note_on_c, 2, 62, 95
4, 1955, Note_on_c, 2, 62, 0
4, 1956, Note_on_c, 2, 61, 95
4, 1961, Note_on_c, 2, 61, 0
4, 1962, Note_on_c, 2, 62, 95
4, 1967, Note_on_c, 2, 62, 0
4, 1968, Note_on_c, 2, 61, 95
4, 1973, Note_on_c, 2, 61, 0
4, 1974, Note_on_c, 2, 62, 95
4, 1979, Note_on_c, 2, 62, 0
4, 1980, Note_on_c, 2, 61, 95
4, 1985, Note_on_c, 2, 61, 0
4, 1986, Note_on_c, 2, 62, 95
4, 1991, Note_on_c, 2, 62, 0
4, 1992, Note_on_c, 2, 61, 95
4, 1997, Note_on_c, 2, 61, 0
4, 1998, Note_on_c, 2, 62, 95
4, 2003, Note_on_c, 2, 62, 0
4, 2004, Note_on_c, 2, 61, 95
4, 2009, Note_on_c, 2, 61, 0
4, 2010, Note_on_c, 2, 62, 95
4, 2015, Note_on_c, 2, 62, 0
4, 2016, Note_on_c, 2, 61, 95
4, 2029, Note_on_c, 2, 61, 0
4, 2032, Note_on_c, 2, 57, 95
4, 2045, Note_on_c, 2, 57, 0
4, 2048, Note_on_c, 2, 59, 95
4, 2061, Note_on_c, 2, 59, 0
4, 2064, Note_on_c, 2, 61, 95
4, 2077, Note_on_c, 2, 61, 0
4, 2080, Note_on_c, 2, 59, 95
4, 2093, Note_on_c, 2, 59, 0
4, 2096, Note_on_c, 2, 61, 95
4, 2109, Note_on_c, 2, 61, 0
4, 2112, Note_on_c, 2, 63, 95
4, 2125, Note_on_c, 2, 63, 0
4, 2128, Note_on_c, 2, 66, 95
4, 2141, Note_on_c, 2, 66, 0
4, 2144, Note_on_c, 2, 64, 95
4, 2157, Note_on_c, 2, 64, 0
4, 2160, Note_on_c, 2, 63, 95
4, 2173, Note_on_c, 2, 63, 0
4, 2176, Note_on_c, 2, 66, 95
4, 2189, Note_on_c, 2, 66, 0
4, 2192, Note_on_c, 2, 64, 95
4, 2205, Note_on_c, 2, 64, 0
4, 2208, Note_on_c, 2, 63, 95
4, 2224, Note_on_c, 2, 63, 0
4, 2224, Note_on_c, 2, 59, 95
4, 2240, Note_on_c, 2, 59, 0
4, 2240, Note_on_c, 2, 61, 95
4, 2256, Note_on_c, 2, 61, 0
4, 2256, Note_on_c, 2, 63, 95
4, 2269, Note_on_c, 2, 63, 0
4, 2272, Note_on_c, 2, 61, 95
4, 2285, Note_on_c, 2, 61, 0
4, 2288, Note_on_c, 2, 63, 95
4, 2301, Note_on_c, 2, 63, 0
4, 2304, Note_on_c, 2, 64, 95
4, 2311, Note_on_c, 2, 64, 0
4, 2312, Note_on_c, 2, 62, 95
4, 2319, Note_on_c, 2, 62, 0
4, 2320, Note_on_c, 2, 64, 95
4, 2327, Note_on_c, 2, 64, 0
4, 2328, Note_on_c, 2, 66, 95
4, 2335, Note_on_c, 2, 66, 0
4, 2336, Note_on_c, 2, 64, 95
4, 2343, Note_on_c, 2, 64, 0
4, 2344, Note_on_c, 2, 62, 95
4, 2351, Note_on_c, 2, 62, 0
4, 2352, Note_on_c, 2, 61, 95
4, 2359, Note_on_c, 2, 61, 0
4, 2360, Note_on_c, 2, 62, 95
4, 2367, Note_on_c, 2, 62, 0
4, 2368, Note_on_c, 2, 61, 95
4, 2375, Note_on_c, 2, 61, 0
4, 2376, Note_on_c, 2, 59, 95
4, 2383, Note_on_c, 2, 59, 0
4, 2384, Note_on_c, 2, 57, 95
4, 2391, Note_on_c, 2, 57, 0
4, 2392, Note_on_c, 2, 56, 95
4, 2399, Note_on_c, 2, 56, 0
4, 2400, Note_on_c, 2, 54, 95
4, 2407, Note_on_c, 2, 54, 0
4, 2408, Note_on_c, 2, 52, 95
4, 2415, Note_on_c, 2, 52, 0
4, 2416, Note_on_c, 2, 54, 95
4, 2423, Note_on_c, 2, 54, 0
4, 2424, Note_on_c, 2, 56, 95
4, 2431, Note_on_c, 2, 56, 0
4, 2432, Note_on_c, 2, 57, 95
4, 2439, Note_on_c, 2, 57, 0
4, 2440, Note_on_c, 2, 54, 95
4, 2447, Note_on_c, 2, 54, 0
4, 2448, Note_on_c, 2, 59, 95
4, 2455, Note_on_c, 2, 59, 0
4, 2456, Note_on_c, 2, 61, 95
4, 2463, Note_on_c, 2, 61, 0
4, 2464, Note_on_c, 2, 59, 95
4, 2471, Note_on_c, 2, 59, 0
4, 2472, Note_on_c, 2, 57, 95
4, 2479, Note_on_c, 2, 57, 0
4, 2480, Note_on_c, 2, 56, 95
4, 2487, Note_on_c, 2, 56, 0
4, 2488, Note_on_c, 2, 54, 95
4, 2495, Note_on_c, 2, 54, 0
4, 2496, Note_on_c, 2, 52, 95
4, 2503, Note_on_c, 2, 52, 0
4, 2504, Note_on_c, 2, 50, 95
4, 2511, Note_on_c, 2, 50, 0
4, 2512, Note_on_c, 2, 52, 95
4, 2519, Note_on_c, 2, 52, 0
4, 2520, Note_on_c, 2, 54, 95
4, 2527, Note_on_c, 2, 54, 0
4, 2528, Note_on_c, 2, 56, 95
4, 2535, Note_on_c, 2, 56, 0
4, 2536, Note_on_c, 2, 52, 95
4, 2543, Note_on_c, 2, 52, 0
4, 2544, Note_on_c, 2, 54, 95
4, 2551, Note_on_c, 2, 54, 0
4, 2552, Note_on_c, 2, 57, 95
4, 2559, Note_on_c, 2, 57, 0
4, 2560, Note_on_c, 2, 56, 95
4, 2567, Note_on_c, 2, 56, 0
4, 2568, Note_on_c, 2, 54, 95
4, 2575, Note_on_c, 2, 54, 0
4, 2576, Note_on_c, 2, 52, 95
4, 2583, Note_on_c, 2, 52, 0
4, 2584, Note_on_c, 2, 50, 95
4, 2591, Note_on_c, 2, 50, 0
4, 2592, Note_on_c, 2, 49, 95
4, 2605, Note_on_c, 2, 49, 0
4, 2608, Note_on_c, 2, 47, 95
4, 2621, Note_on_c, 2, 47, 0
4, 2624, Note_on_c, 2, 45, 95
4, 2637, Note_on_c, 2, 45, 0
4, 2640, Note_on_c, 2, 52, 95
4, 2670, Note_on_c, 2, 52, 0
4, 2676, Note_on_c, 2, 40, 95
4, 2686, Note_on_c, 2, 40, 0
4, 2688, Note_on_c, 2, 45, 95
4, 2712, Note_on_c, 2, 45, 0
4, 2736, Note_on_c, 2, 42, 95
4, 2760, Note_on_c, 2, 42, 0
4, 2784, Note_on_c, 2, 43, 95
4, 2808, Note_on_c, 2, 43, 0
4, 2832, Note_on_c, 2, 45, 95
4, 2856, Note_on_c, 2, 45, 0
4, 2880, Note_on_c, 2, 47, 95
4, 2904, Note_on_c, 2, 47, 0
4, 2928, Note_on_c, 2, 49, 95
4, 2952, Note_on_c, 2, 49, 0
4, 2976, Note_on_c, 2, 50, 95
4, 3000, Note_on_c, 2, 50, 0
4, 3024, Note_on_c, 2, 52, 95
4, 3048, Note_on_c, 2, 52, 0
4, 3072, Note_on_c, 2, 54, 95
4, 3096, Note_on_c, 2, 54, 0
4, 3120, Note_on_c, 2, 54, 95
4, 3144, Note_on_c, 2, 54, 0
4, 3168, Note_on_c, 2, 55, 95
4, 3192, Note_on_c, 2, 55, 0
4, 3216, Note_on_c, 2, 57, 95
4, 3240, Note_on_c, 2, 57, 0
4, 3264, Note_on_c, 2, 59, 95
4, 3288, Note_on_c, 2, 59, 0
4, 3312, Note_on_c, 2, 57, 95
4, 3336, Note_on_c, 2, 57, 0
4, 3360, Note_on_c, 2, 59, 95
4, 3384, Note_on_c, 2, 59, 0
4, 3408, Note_on_c, 2, 61, 95
4, 3432, Note_on_c, 2, 61, 0
4, 3456, Note_on_c, 2, 62, 95
4, 3480, Note_on_c, 2, 62, 0
4, 3684, Note_on_c, 2, 57, 95
4, 3696, Note_on_c, 2, 57, 0
4, 3696, Note_on_c, 2, 62, 95
4, 3732, Note_on_c, 2, 62, 0
4, 3732, Note_on_c, 2, 57, 95
4, 3744, Note_on_c, 2, 57, 0
4, 3744, Note_on_c, 2, 59, 95
4, 3760, Note_on_c, 2, 59, 0
4, 3760, Note_on_c, 2, 57, 95
4, 3776, Note_on_c, 2, 57, 0
4, 3776, Note_on_c, 2, 55, 95
4, 3792, Note_on_c, 2, 55, 0
4, 3792, Note_on_c, 2, 54, 95
4, 3808, Note_on_c, 2, 54, 0
4, 3808, Note_on_c, 2, 55, 95
4, 3824, Note_on_c, 2, 55, 0
4, 3824, Note_on_c, 2, 57, 95
4, 3840, Note_on_c, 2, 57, 0
4, 3840, Note_on_c, 2, 50, 95
4, 3864, Note_on_c, 2, 50, 0
4, 3888, Note_on_c, 2, 52, 95
4, 3912, Note_on_c, 2, 52, 0
4, 3936, Note_on_c, 2, 54, 95
4, 3960, Note_on_c, 2, 54, 0
4, 3984, Note_on_c, 2, 42, 95
4, 4008, Note_on_c, 2, 42, 0
4, 4032, Note_on_c, 2, 43, 95
4, 4056, Note_on_c, 2, 43, 0
4, 4080, Note_on_c, 2, 45, 95
4, 4104, Note_on_c, 2, 45, 0
4, 4128, Note_on_c, 2, 47, 95
4, 4152, Note_on_c, 2, 47, 0
4, 4176, Note_on_c, 2, 49, 95
4, 4200, Note_on_c, 2, 49, 0
4, 4224, Note_on_c, 2, 50, 95
4, 4248, Note_on_c, 2, 50, 0
4, 4272, Note_on_c, 2, 52, 95
4, 4296, Note_on_c, 2, 52, 0
4, 4320, Note_on_c, 2, 54, 95
4, 4344, Note_on_c, 2, 54, 0
4, 4368, Note_on_c, 2, 55, 95
4, 4392, Note_on_c, 2, 55, 0
4, 4416, Note_on_c, 2, 57, 95
4, 4440, Note_on_c, 2, 57, 0
4, 4464, Note_on_c, 2, 59, 95
4, 4488, Note_on_c, 2, 59, 0
4, 4512, Note_on_c, 2, 61, 95
4, 4548, Note_on_c, 2, 61, 0
4, 4548, Note_on_c, 2, 57, 95
4, 4560, Note_on_c, 2, 57, 0
4, 4560, Note_on_c, 2, 62, 95
4, 4596, Note_on_c, 2, 62, 0
4, 4596, Note_on_c, 2, 57, 95
4, 4608, Note_on_c, 2, 57, 0
4, 4608, Note_on_c, 2, 59, 95
4, 4624, Note_on_c, 2, 59, 0
4, 4624, Note_on_c, 2, 57, 95
4, 4640, Note_on_c, 2, 57, 0
4, 4640, Note_on_c, 2, 55, 95
4, 4656, Note_on_c, 2, 55, 0
4, 4656, Note_on_c, 2, 54, 95
4, 4672, Note_on_c, 2, 54, 0
4, 4672, Note_on_c, 2, 55, 95
4, 4688, Note_on_c, 2, 55, 0
4, 4688, Note_on_c, 2, 57, 95
4, 4704, Note_on_c, 2, 57, 0
4, 4704, Note_on_c, 2, 50, 95
4, 4720, Note_on_c, 2, 50, 0
4, 4720, Note_on_c, 2, 54, 95
4, 4736, Note_on_c, 2, 54, 0
4, 4736, Note_on_c, 2, 52, 95
4, 4752, Note_on_c, 2, 52, 0
4, 4752, Note_on_c, 2, 50, 95
4, 4768, Note_on_c, 2, 50, 0
4, 4768, Note_on_c, 2, 52, 95
4, 4784, Note_on_c, 2, 52, 0
4, 4784, Note_on_c, 2, 54, 95
4, 4800, Note_on_c, 2, 54, 0
4, 4800, Note_on_c, 2, 55, 95
4, 4824, Note_on_c, 2, 55, 0
4, 4848, Note_on_c, 2, 57, 95
4, 4872, Note_on_c, 2, 57, 0
4, 4896, Note_on_c, 2, 59, 65
4, 4901, Note_on_c, 2, 59, 0
4, 4902, Note_on_c, 2, 61, 54
4, 4907, Note_on_c, 2, 61, 0
4, 4908, Note_on_c, 2, 59, 72
4, 4913, Note_on_c, 2, 59, 0
4, 4914, Note_on_c, 2, 61, 52
4, 4919, Note_on_c, 2, 61, 0
4, 4920, Note_on_c, 2, 59, 59
4, 4925, Note_on_c, 2, 59, 0
4, 4926, Note_on_c, 2, 61, 43
4, 4931, Note_on_c, 2, 61, 0
4, 4932, Note_on_c, 2, 59, 72
4, 4937, Note_on_c, 2, 59, 0
4, 4938, Note_on_c, 2, 61, 59
4, 4943, Note_on_c, 2, 61, 0
4, 4944, Note_on_c, 2, 59, 79
4, 4949, Note_on_c, 2, 59, 0
4, 4950, Note_on_c, 2, 61, 62
4, 4955, Note_on_c, 2, 61, 0
4, 4956, Note_on_c, 2, 59, 85
4, 4961, Note_on_c, 2, 59, 0
4, 4962, Note_on_c, 2, 61, 72
4, 4967, Note_on_c, 2, 61, 0
4, 4968, Note_on_c, 2, 59, 85
4, 4973, Note_on_c, 2, 59, 0
4, 4974, Note_on_c, 2, 61, 85
4, 4979, Note_on_c, 2, 61, 0
4, 4980, Note_on_c, 2, 59, 85
4, 4985, Note_on_c, 2, 59, 0
4, 4986, Note_on_c, 2, 61, 72
4, 4991, Note_on_c, 2, 61, 0
4, 4992, Note_on_c, 2, 59, 76
4, 5008, Note_on_c, 2, 59, 0
4, 5008, Note_on_c, 2, 62, 76
4, 5024, Note_on_c, 2, 62, 0
4, 5024, Note_on_c, 2, 61, 76
4, 5040, Note_on_c, 2, 61, 0
4, 5040, Note_on_c, 2, 59, 76
4, 5056, Note_on_c, 2, 59, 0
4, 5056, Note_on_c, 2, 57, 76
4, 5072, Note_on_c, 2, 57, 0
4, 5072, Note_on_c, 2, 55, 76
4, 5088, Note_on_c, 2, 55, 0
4, 5088, Note_on_c, 2, 54, 57
4, 5093, Note_on_c, 2, 54, 0
4, 5094, Note_on_c, 2, 55, 85
4, 5099, Note_on_c, 2, 55, 0
4, 5100, Note_on_c, 2, 54, 60
4, 5105, Note_on_c, 2, 54, 0
4, 5106, Note_on_c, 2, 55, 85
4, 5111, Note_on_c, 2, 55, 0
4, 5112, Note_on_c, 2, 54, 65
4, 5117, Note_on_c, 2, 54, 0
4, 5118, Note_on_c, 2, 55, 74
4, 5123, Note_on_c, 2, 55, 0
4, 5124, Note_on_c, 2, 54, 65
4, 5129, Note_on_c, 2, 54, 0
4, 5130, Note_on_c, 2, 55, 85
4, 5135, Note_on_c, 2, 55, 0
4, 5136, Note_on_c, 2, 54, 68
4, 5141, Note_on_c, 2, 54, 0
4, 5142, Note_on_c, 2, 55, 85
4, 5147, Note_on_c, 2, 55, 0
4, 5148, Note_on_c, 2, 54, 66
4, 5153, Note_on_c, 2, 54, 0
4, 5154, Note_on_c, 2, 55, 85
4, 5159, Note_on_c, 2, 55, 0
4, 5160, Note_on_c, 2, 54, 72
4, 5165, Note_on_c, 2, 54, 0
4, 5166, Note_on_c, 2, 55, 85
4, 5171, Note_on_c, 2, 55, 0
4, 5172, Note_on_c, 2, 54, 64
4, 5177, Note_on_c, 2, 54, 0
4, 5178, Note_on_c, 2, 55, 85
4, 5183, Note_on_c, 2, 55, 0
4, 5184, Note_on_c, 2, 54, 76
4, 5200, Note_on_c, 2, 54, 0
4, 5200, Note_on_c, 2, 50, 71
4, 5216, Note_on_c, 2, 50, 0
4, 5216, Note_on_c, 2, 52, 85
4, 5232, Note_on_c, 2, 52, 0
4, 5232, Note_on_c, 2, 54, 59
4, 5248, Note_on_c, 2, 54, 0
4, 5248, Note_on_c, 2, 52, 69
4, 5264, Note_on_c, 2, 52, 0
4, 5264, Note_on_c, 2, 54, 60
4, 5280, Note_on_c, 2, 54, 0
4, 5280, Note_on_c, 2, 56, 64
4, 5296, Note_on_c, 2, 56, 0
4, 5296, Note_on_c, 2, 59, 85
4, 5312, Note_on_c, 2, 59, 0
4, 5312, Note_on_c, 2, 57, 85
4, 5328, Note_on_c, 2, 57, 0
4, 5328, Note_on_c, 2, 56, 59
4, 5344, Note_on_c, 2, 56, 0
4, 5344, Note_on_c, 2, 59, 57
4, 5360, Note_on_c, 2, 59, 0
4, 5360, Note_on_c, 2, 57, 85
4, 5376, Note_on_c, 2, 57, 0
4, 5376, Note_on_c, 2, 56, 57
4, 5392, Note_on_c, 2, 56, 0
4, 5392, Note_on_c, 2, 52, 77
4, 5408, Note_on_c, 2, 52, 0
4, 5408, Note_on_c, 2, 54, 56
4, 5424, Note_on_c, 2, 54, 0
4, 5424, Note_on_c, 2, 56, 61
4, 5440, Note_on_c, 2, 56, 0
4, 5440, Note_on_c, 2, 54, 66
4, 5456, Note_on_c, 2, 54, 0
4, 5456, Note_on_c, 2, 56, 67
4, 5472, Note_on_c, 2, 56, 0
4, 5472, Note_on_c, 2, 57, 76
4, 5480, Note_on_c, 2, 57, 0
4, 5480, Note_on_c, 2, 61, 52
4, 5488, Note_on_c, 2, 61, 0
4, 5488, Note_on_c, 2, 62, 82
4, 5496, Note_on_c, 2, 62, 0
4, 5496, Note_on_c, 2, 64, 67
4, 5504, Note_on_c, 2, 64, 0
4, 5504, Note_on_c, 2, 66, 40
4, 5512, Note_on_c, 2, 66, 0
4, 5512, Note_on_c, 2, 67, 85
4, 5520, Note_on_c, 2, 67, 0
4, 5520, Note_on_c, 2, 69, 85
4, 5536, Note_on_c, 2, 69, 0
4, 5576, Note_on_c, 2, 59, 85
4, 5584, Note_on_c, 2, 59, 0
4, 5584, Note_on_c, 2, 61, 57
4, 5592, Note_on_c, 2, 61, 0
4, 5592, Note_on_c, 2, 62, 85
4, 5600, Note_on_c, 2, 62, 0
4, 5600, Note_on_c, 2, 64, 85
4, 5608, Note_on_c, 2, 64, 0
4, 5608, Note_on_c, 2, 66, 64
4, 5616, Note_on_c, 2, 66, 0
4, 5616, Note_on_c, 2, 67, 85
4, 5632, Note_on_c, 2, 67, 0
4, 5672, Note_on_c, 2, 57, 76
4, 5680, Note_on_c, 2, 57, 0
4, 5680, Note_on_c, 2, 59, 76
4, 5688, Note_on_c, 2, 59, 0
4, 5688, Note_on_c, 2, 61, 76
4, 5696, Note_on_c, 2, 61, 0
4, 5696, Note_on_c, 2, 62, 76
4, 5704, Note_on_c, 2, 62, 0
4, 5704, Note_on_c, 2, 64, 76
4, 5712, Note_on_c, 2, 64, 0
4, 5712, Note_on_c, 2, 66, 76
4, 5728, Note_on_c, 2, 66, 0
4, 5760, Note_on_c, 2, 55, 76
4, 5776, Note_on_c, 2, 55, 0
4, 5848, Note_on_c, 2, 59, 76
4, 5856, Note_on_c, 2, 59, 0
4, 5856, Note_on_c, 2, 57, 103
4, 5861, Note_on_c, 2, 57, 0
4, 5864, Note_on_c, 2, 59, 103
4, 5869, Note_on_c, 2, 59, 0
4, 5872, Note_on_c, 2, 57, 93
4, 5877, Note_on_c, 2, 57, 0
4, 5880, Note_on_c, 2, 55, 82
4, 5885, Note_on_c, 2, 55, 0
4, 5888, Note_on_c, 2, 54, 86
4, 5893, Note_on_c, 2, 54, 0
4, 5896, Note_on_c, 2, 52, 103
4, 5901, Note_on_c, 2, 52, 0
4, 5904, Note_on_c, 2, 50, 99
4, 5909, Note_on_c, 2, 50, 0
4, 5912, Note_on_c, 2, 52, 82
4, 5917, Note_on_c, 2, 52, 0
4, 5920, Note_on_c, 2, 50, 80
4, 5925, Note_on_c, 2, 50, 0
4, 5928, Note_on_c, 2, 49, 82
4, 5933, Note_on_c, 2, 49, 0
4, 5936, Note_on_c, 2, 47, 69
4, 5941, Note_on_c, 2, 47, 0
4, 5944, Note_on_c, 2, 45, 103
4, 5949, Note_on_c, 2, 45, 0
4, 5952, Note_on_c, 2, 47, 100
4, 5963, Note_on_c, 2, 47, 0
4, 5968, Note_on_c, 2, 45, 100
4, 5979, Note_on_c, 2, 45, 0
4, 5984, Note_on_c, 2, 43, 103
4, 5995, Note_on_c, 2, 43, 0
4, 6000, Note_on_c, 2, 45, 103
4, 6024, Note_on_c, 2, 45, 0
4, 6036, Note_on_c, 2, 45, 103
4, 6044, Note_on_c, 2, 45, 0
4, 6048, Note_on_c, 2, 38, 103
4, 6064, Note_on_c, 2, 38, 0
4, 6096, Note_on_c, 2, 42, 88
4, 6112, Note_on_c, 2, 42, 0
4, 6144, Note_on_c, 2, 43, 103
4, 6160, Note_on_c, 2, 43, 0
4, 6192, Note_on_c, 2, 48, 91
4, 6208, Note_on_c, 2, 48, 0
4, 6240, Note_on_c, 2, 47, 103
4, 6264, Note_on_c, 2, 47, 0
4, 6276, Note_on_c, 2, 55, 103
4, 6284, Note_on_c, 2, 55, 0
4, 6288, Note_on_c, 2, 62, 103
4, 6312, Note_on_c, 2, 62, 0
4, 6324, Note_on_c, 2, 57, 103
4, 6332, Note_on_c, 2, 57, 0
4, 6336, Note_on_c, 2, 59, 103
4, 6347, Note_on_c, 2, 59, 0
4, 6352, Note_on_c, 2, 57, 103
4, 6363, Note_on_c, 2, 57, 0
4, 6368, Note_on_c, 2, 55, 98
4, 6379, Note_on_c, 2, 55, 0
4, 6384, Note_on_c, 2, 54, 84
4, 6395, Note_on_c, 2, 54, 0
4, 6400, Note_on_c, 2, 56, 89
4, 6411, Note_on_c, 2, 56, 0
4, 6416, Note_on_c, 2, 57, 103
4, 6427, Note_on_c, 2, 57, 0
4, 6432, Note_on_c, 2, 56, 62
4, 6437, Note_on_c, 2, 56, 0
4, 6438, Note_on_c, 2, 57, 85
4, 6443, Note_on_c, 2, 57, 0
4, 6444, Note_on_c, 2, 56, 70
4, 6449, Note_on_c, 2, 56, 0
4, 6450, Note_on_c, 2, 57, 85
4, 6455, Note_on_c, 2, 57, 0
4, 6456, Note_on_c, 2, 56, 68
4, 6461, Note_on_c, 2, 56, 0
4, 6462, Note_on_c, 2, 57, 85
4, 6467, Note_on_c, 2, 57, 0
4, 6468, Note_on_c, 2, 56, 70
4, 6473, Note_on_c, 2, 56, 0
4, 6474, Note_on_c, 2, 57, 85
4, 6479, Note_on_c, 2, 57, 0
4, 6480, Note_on_c, 2, 56, 76
4, 6485, Note_on_c, 2, 56, 0
4, 6486, Note_on_c, 2, 57, 85
4, 6491, Note_on_c, 2, 57, 0
4, 6492, Note_on_c, 2, 56, 79
4, 6497, Note_on_c, 2, 56, 0
4, 6498, Note_on_c, 2, 57, 85
4, 6503, Note_on_c, 2, 57, 0
4, 6504, Note_on_c, 2, 56, 79
4, 6509, Note_on_c, 2, 56, 0
4, 6510, Note_on_c, 2, 57, 85
4, 6515, Note_on_c, 2, 57, 0
4, 6516, Note_on_c, 2, 56, 77
4, 6521, Note_on_c, 2, 56, 0
4, 6522, Note_on_c, 2, 57, 85
4, 6527, Note_on_c, 2, 57, 0
4, 6528, Note_on_c, 2, 56, 77
4, 6539, Note_on_c, 2, 56, 0
4, 6544, Note_on_c, 2, 59, 103
4, 6555, Note_on_c, 2, 59, 0
4, 6560, Note_on_c, 2, 57, 103
4, 6571, Note_on_c, 2, 57, 0
4, 6576, Note_on_c, 2, 56, 80
4, 6587, Note_on_c, 2, 56, 0
4, 6592, Note_on_c, 2, 59, 103
4, 6603, Note_on_c, 2, 59, 0
4, 6608, Note_on_c, 2, 57, 103
4, 6619, Note_on_c, 2, 57, 0
4, 6624, Note_on_c, 2, 56, 66
4, 6629, Note_on_c, 2, 56, 0
4, 6630, Note_on_c, 2, 57, 85
4, 6635, Note_on_c, 2, 57, 0
4, 6636, Note_on_c, 2, 56, 70
4, 6641, Note_on_c, 2, 56, 0
4, 6642, Note_on_c, 2, 57, 85
4, 6647, Note_on_c, 2, 57, 0
4, 6648, Note_on_c, 2, 56, 62
4, 6653, Note_on_c, 2, 56, 0
4, 6654, Note_on_c, 2, 57, 85
4, 6659, Note_on_c, 2, 57, 0
4, 6660, Note_on_c, 2, 56, 76
4, 6665, Note_on_c, 2, 56, 0
4, 6666, Note_on_c, 2, 57, 85
4, 6671, Note_on_c, 2, 57, 0
4, 6672, Note_on_c, 2, 56, 74
4, 6677, Note_on_c, 2, 56, 0
4, 6678, Note_on_c, 2, 57, 85
4, 6683, Note_on_c, 2, 57, 0
4, 6684, Note_on_c, 2, 56, 74
4, 6689, Note_on_c, 2, 56, 0
4, 6690, Note_on_c, 2, 57, 85
4, 6695, Note_on_c, 2, 57, 0
4, 6696, Note_on_c, 2, 56, 81
4, 6701, Note_on_c, 2, 56, 0
4, 6702, Note_on_c, 2, 57, 85
4, 6707, Note_on_c, 2, 57, 0
4, 6708, Note_on_c, 2, 56, 70
4, 6713, Note_on_c, 2, 56, 0
4, 6714, Note_on_c, 2, 57, 85
4, 6719, Note_on_c, 2, 57, 0
4, 6720, Note_on_c, 2, 56, 88
4, 6731, Note_on_c, 2, 56, 0
4, 6736, Note_on_c, 2, 59, 103
4, 6747, Note_on_c, 2, 59, 0
4, 6752, Note_on_c, 2, 57, 103
4, 6763, Note_on_c, 2, 57, 0
4, 6768, Note_on_c, 2, 56, 69
4, 6779, Note_on_c, 2, 56, 0
4, 6784, Note_on_c, 2, 54, 90
4, 6795, Note_on_c, 2, 54, 0
4, 6800, Note_on_c, 2, 52, 103
4, 6811, Note_on_c, 2, 52, 0
4, 6816, Note_on_c, 2, 57, 103
4, 6827, Note_on_c, 2, 57, 0
4, 6832, Note_on_c, 2, 61, 84
4, 6843, Note_on_c, 2, 61, 0
4, 6848, Note_on_c, 2, 59, 94
4, 6859, Note_on_c, 2, 59, 0
4, 6864, Note_on_c, 2, 57, 103
4, 6875, Note_on_c, 2, 57, 0
4, 6880, Note_on_c, 2, 55, 103
4, 6891, Note_on_c, 2, 55, 0
4, 6896, Note_on_c, 2, 54, 84
4, 6907, Note_on_c, 2, 54, 0
4, 6912, Note_on_c, 2, 59, 96
4, 6923, Note_on_c, 2, 59, 0
4, 6928, Note_on_c, 2, 62, 103
4, 6939, Note_on_c, 2, 62, 0
4, 6944, Note_on_c, 2, 61, 89
4, 6955, Note_on_c, 2, 61, 0
4, 6960, Note_on_c, 2, 59, 103
4, 6971, Note_on_c, 2, 59, 0
4, 6976, Note_on_c, 2, 57, 103
4, 6987, Note_on_c, 2, 57, 0
4, 6992, Note_on_c, 2, 55, 103
4, 7003, Note_on_c, 2, 55, 0
4, 7008, Note_on_c, 2, 61, 92
4, 7019, Note_on_c, 2, 61, 0
4, 7024, Note_on_c, 2, 64, 103
4, 7035, Note_on_c, 2, 64, 0
4, 7040, Note_on_c, 2, 62, 103
4, 7051, Note_on_c, 2, 62, 0
4, 7056, Note_on_c, 2, 61, 92
4, 7067, Note_on_c, 2, 61, 0
4, 7072, Note_on_c, 2, 59, 103
4, 7083, Note_on_c, 2, 59, 0
4, 7088, Note_on_c, 2, 57, 103
4, 7099, Note_on_c, 2, 57, 0
4, 7104, Note_on_c, 2, 62, 103
4, 7120, Note_on_c, 2, 62, 0
4, 7152, Note_on_c, 2, 54, 93
4, 7168, Note_on_c, 2, 54, 0
4, 7200, Note_on_c, 2, 55, 103
4, 7216, Note_on_c, 2, 55, 0
4, 7248, Note_on_c, 2, 57, 103
4, 7264, Note_on_c, 2, 57, 0
4, 7296, Note_on_c, 2, 59, 103
4, 7307, Note_on_c, 2, 59, 0
4, 7312, Note_on_c, 2, 57, 103
4, 7323, Note_on_c, 2, 57, 0
4, 7328, Note_on_c, 2, 55, 103
4, 7339, Note_on_c, 2, 55, 0
4, 7344, Note_on_c, 2, 57, 103
4, 7368, Note_on_c, 2, 57, 0
4, 7380, Note_on_c, 2, 45, 103
4, 7388, Note_on_c, 2, 45, 0
4, 7392, Note_on_c, 2, 50, 103
4, 7403, Note_on_c, 2, 50, 0
4, 7408, Note_on_c, 2, 54, 62
4, 7419, Note_on_c, 2, 54, 0
4, 7424, Note_on_c, 2, 52, 81
4, 7435, Note_on_c, 2, 52, 0
4, 7440, Note_on_c, 2, 50, 103
4, 7451, Note_on_c, 2, 50, 0
4, 7456, Note_on_c, 2, 52, 84
4, 7467, Note_on_c, 2, 52, 0
4, 7472, Note_on_c, 2, 54, 84
4, 7483, Note_on_c, 2, 54, 0
4, 7488, Note_on_c, 2, 47, 81
4, 7504, Note_on_c, 2, 47, 0
4, 7584, Note_on_c, 2, 47, 103
4, 7600, Note_on_c, 2, 47, 0
4, 7680, Note_on_c, 2, 47, 103
4, 7696, Note_on_c, 2, 47, 0
4, 7776, Note_on_c, 2, 47, 85
4, 7792, Note_on_c, 2, 47, 0
4, 7872, Note_on_c, 2, 47, 103
4, 7888, Note_on_c, 2, 47, 0
4, 7968, Note_on_c, 2, 47, 103
4, 7984, Note_on_c, 2, 47, 0
4, 8064, Note_on_c, 2, 47, 103
4, 8080, Note_on_c, 2, 47, 0
4, 8160, Note_on_c, 2, 47, 103
4, 8184, Note_on_c, 2, 47, 0
4, 8196, Note_on_c, 2, 54, 80
4, 8204, Note_on_c, 2, 54, 0
4, 8208, Note_on_c, 2, 59, 91
4, 8219, Note_on_c, 2, 59, 0
4, 8224, Note_on_c, 2, 62, 103
4, 8235, Note_on_c, 2, 62, 0
4, 8240, Note_on_c, 2, 61, 87
4, 8251, Note_on_c, 2, 61, 0
4, 8256, Note_on_c, 2, 62, 88
4, 8267, Note_on_c, 2, 62, 0
4, 8272, Note_on_c, 2, 61, 80
4, 8283, Note_on_c, 2, 61, 0
4, 8288, Note_on_c, 2, 59, 100
4, 8299, Note_on_c, 2, 59, 0
4, 8304, Note_on_c, 2, 58, 84
4, 8315, Note_on_c, 2, 58, 0
4, 8320, Note_on_c, 2, 59, 103
4, 8331, Note_on_c, 2, 59, 0
4, 8336, Note_on_c, 2, 61, 91
4, 8347, Note_on_c, 2, 61, 0
4, 8352, Note_on_c, 2, 54, 82
4, 8384, Note_on_c, 2, 54, 0
4, 8416, Note_on_c, 2, 55, 103
4, 8427, Note_on_c, 2, 55, 0
4, 8432, Note_on_c, 2, 52, 95
4, 8443, Note_on_c, 2, 52, 0
4, 8448, Note_on_c, 2, 50, 96
4, 8459, Note_on_c, 2, 50, 0
4, 8464, Note_on_c, 2, 49, 84
4, 8475, Note_on_c, 2, 49, 0
4, 8480, Note_on_c, 2, 47, 103
4, 8491, Note_on_c, 2, 47, 0
4, 8544, Note_on_c, 2, 47, 85
4, 8560, Note_on_c, 2, 47, 0
4, 8640, Note_on_c, 2, 47, 85
4, 8656, Note_on_c, 2, 47, 0
4, 8736, Note_on_c, 2, 47, 85
4, 8752, Note_on_c, 2, 47, 0
4, 8832, Note_on_c, 2, 47, 85
4, 8848, Note_on_c, 2, 47, 0
4, 8928, Note_on_c, 2, 47, 91
4, 8944, Note_on_c, 2, 47, 0
4, 9024, Note_on_c, 2, 47, 95
4, 9040, Note_on_c, 2, 47, 0
4, 9120, Note_on_c, 2, 47, 91
4, 9144, Note_on_c, 2, 47, 0
4, 9156, Note_on_c, 2, 54, 86
4, 9164, Note_on_c, 2, 54, 0
4, 9168, Note_on_c, 2, 59, 78
4, 9179, Note_on_c, 2, 59, 0
4, 9184, Note_on_c, 2, 57, 85
4, 9195, Note_on_c, 2, 57, 0
4, 9200, Note_on_c, 2, 56, 66
4, 9211, Note_on_c, 2, 56, 0
4, 9216, Note_on_c, 2, 57, 85
4, 9227, Note_on_c, 2, 57, 0
4, 9232, Note_on_c, 2, 56, 67
4, 9243, Note_on_c, 2, 56, 0
4, 9248, Note_on_c, 2, 54, 59
4, 9259, Note_on_c, 2, 54, 0
4, 9264, Note_on_c, 2, 53, 85
4, 9275, Note_on_c, 2, 53, 0
4, 9280, Note_on_c, 2, 54, 62
4, 9291, Note_on_c, 2, 54, 0
4, 9296, Note_on_c, 2, 56, 69
4, 9307, Note_on_c, 2, 56, 0
4, 9312, Note_on_c, 2, 49, 78
4, 9361, Note_on_c, 2, 49, 0
4, 9376, Note_on_c, 2, 50, 53
4, 9387, Note_on_c, 2, 50, 0
4, 9392, Note_on_c, 2, 47, 85
4, 9403, Note_on_c, 2, 47, 0
4, 9408, Note_on_c, 2, 45, 79
4, 9419, Note_on_c, 2, 45, 0
4, 9424, Note_on_c, 2, 44, 56
4, 9435, Note_on_c, 2, 44, 0
4, 9440, Note_on_c, 2, 42, 70
4, 9451, Note_on_c, 2, 42, 0
4, 9504, Note_on_c, 2, 42, 72
4, 9520, Note_on_c, 2, 42, 0
4, 9600, Note_on_c, 2, 42, 66
4, 9616, Note_on_c, 2, 42, 0
4, 9696, Note_on_c, 2, 42, 66
4, 9712, Note_on_c, 2, 42, 0
4, 9792, Note_on_c, 2, 42, 66
4, 9808, Note_on_c, 2, 42, 0
4, 9888, Note_on_c, 2, 42, 72
4, 9904, Note_on_c, 2, 42, 0
4, 9984, Note_on_c, 2, 42, 71
4, 10000, Note_on_c, 2, 42, 0
4, 10080, Note_on_c, 2, 42, 70
4, 10104, Note_on_c, 2, 42, 0
4, 10116, Note_on_c, 2, 49, 60
4, 10124, Note_on_c, 2, 49, 0
4, 10128, Note_on_c, 2, 54, 66
4, 10139, Note_on_c, 2, 54, 0
4, 10144, Note_on_c, 2, 57, 81
4, 10155, Note_on_c, 2, 57, 0
4, 10160, Note_on_c, 2, 56, 66
4, 10171, Note_on_c, 2, 56, 0
4, 10176, Note_on_c, 2, 57, 85
4, 10192, Note_on_c, 2, 57, 0
4, 10288, Note_on_c, 2, 49, 66
4, 10299, Note_on_c, 2, 49, 0
4, 10304, Note_on_c, 2, 50, 85
4, 10315, Note_on_c, 2, 50, 0
4, 10320, Note_on_c, 2, 52, 85
4, 10331, Note_on_c, 2, 52, 0
4, 10336, Note_on_c, 2, 56, 59
4, 10347, Note_on_c, 2, 56, 0
4, 10352, Note_on_c, 2, 54, 66
4, 10363, Note_on_c, 2, 54, 0
4, 10368, Note_on_c, 2, 56, 66
4, 10384, Note_on_c, 2, 56, 0
4, 10480, Note_on_c, 2, 47, 85
4, 10491, Note_on_c, 2, 47, 0
4, 10496, Note_on_c, 2, 49, 62
4, 10507, Note_on_c, 2, 49, 0
4, 10512, Note_on_c, 2, 50, 85
4, 10523, Note_on_c, 2, 50, 0
4, 10528, Note_on_c, 2, 54, 59
4, 10539, Note_on_c, 2, 54, 0
4, 10544, Note_on_c, 2, 53, 85
4, 10555, Note_on_c, 2, 53, 0
4, 10560, Note_on_c, 2, 54, 60
4, 10571, Note_on_c, 2, 54, 0
4, 10576, Note_on_c, 2, 45, 85
4, 10587, Note_on_c, 2, 45, 0
4, 10592, Note_on_c, 2, 47, 85
4, 10603, Note_on_c, 2, 47, 0
4, 10608, Note_on_c, 2, 49, 55
4, 10619, Note_on_c, 2, 49, 0
4, 10624, Note_on_c, 2, 53, 85
4, 10635, Note_on_c, 2, 53, 0
4, 10640, Note_on_c, 2, 51, 61
4, 10651, Note_on_c, 2, 51, 0
4, 10656, Note_on_c, 2, 53, 85
4, 10667, Note_on_c, 2, 53, 0
4, 10672, Note_on_c, 2, 56, 66
4, 10683, Note_on_c, 2, 56, 0
4, 10688, Note_on_c, 2, 54, 66
4, 10699, Note_on_c, 2, 54, 0
4, 10704, Note_on_c, 2, 53, 85
4, 10715, Note_on_c, 2, 53, 0
4, 10720, Note_on_c, 2, 56, 62
4, 10731, Note_on_c, 2, 56, 0
4, 10736, Note_on_c, 2, 54, 70
4, 10747, Note_on_c, 2, 54, 0
4, 10752, Note_on_c, 2, 53, 70
4, 10755, Note_on_c, 2, 53, 0
4, 10756, Note_on_c, 2, 54, 66
4, 10759, Note_on_c, 2, 54, 0
4, 10760, Note_on_c, 2, 53, 72
4, 10763, Note_on_c, 2, 53, 0
4, 10764, Note_on_c, 2, 54, 66
4, 10767, Note_on_c, 2, 54, 0
4, 10768, Note_on_c, 2, 53, 76
4, 10771, Note_on_c, 2, 53, 0
4, 10772, Note_on_c, 2, 54, 62
4, 10775, Note_on_c, 2, 54, 0
4, 10776, Note_on_c, 2, 53, 82
4, 10779, Note_on_c, 2, 53, 0
4, 10780, Note_on_c, 2, 54, 59
4, 10783, Note_on_c, 2, 54, 0
4, 10784, Note_on_c, 2, 53, 85
4, 10787, Note_on_c, 2, 53, 0
4, 10788, Note_on_c, 2, 54, 65
4, 10791, Note_on_c, 2, 54, 0
4, 10792, Note_on_c, 2, 53, 79
4, 10795, Note_on_c, 2, 53, 0
4, 10796, Note_on_c, 2, 54, 64
4, 10799, Note_on_c, 2, 54, 0
4, 10800, Note_on_c, 2, 53, 85
4, 10803, Note_on_c, 2, 53, 0
4, 10804, Note_on_c, 2, 54, 59
4, 10807, Note_on_c, 2, 54, 0
4, 10808, Note_on_c, 2, 53, 85
4, 10811, Note_on_c, 2, 53, 0
4, 10812, Note_on_c, 2, 54, 62
4, 10815, Note_on_c, 2, 54, 0
4, 10816, Note_on_c, 2, 53, 85
4, 10819, Note_on_c, 2, 53, 0
4, 10820, Note_on_c, 2, 54, 68
4, 10823, Note_on_c, 2, 54, 0
4, 10824, Note_on_c, 2, 53, 85
4, 10827, Note_on_c, 2, 53, 0
4, 10828, Note_on_c, 2, 54, 67
4, 10831, Note_on_c, 2, 54, 0
4, 10832, Note_on_c, 2, 53, 85
4, 10835, Note_on_c, 2, 53, 0
4, 10836, Note_on_c, 2, 54, 72
4, 10839, Note_on_c, 2, 54, 0
4, 10840, Note_on_c, 2, 53, 85
4, 10843, Note_on_c, 2, 53, 0
4, 10844, Note_on_c, 2, 54, 68
4, 10847, Note_on_c, 2, 54, 0
4, 10848, Note_on_c, 2, 53, 85
4, 10859, Note_on_c, 2, 53, 0
4, 10864, Note_on_c, 2, 49, 62
4, 10875, Note_on_c, 2, 49, 0
4, 10880, Note_on_c, 2, 51, 62
4, 10891, Note_on_c, 2, 51, 0
4, 10896, Note_on_c, 2, 53, 85
4, 10907, Note_on_c, 2, 53, 0
4, 10912, Note_on_c, 2, 51, 56
4, 10923, Note_on_c, 2, 51, 0
4, 10928, Note_on_c, 2, 53, 85
4, 10939, Note_on_c, 2, 53, 0
4, 10944, Note_on_c, 2, 54, 61
4, 10955, Note_on_c, 2, 54, 0
4, 10960, Note_on_c, 2, 50, 85
4, 10971, Note_on_c, 2, 50, 0
4, 10976, Note_on_c, 2, 52, 85
4, 10987, Note_on_c, 2, 52, 0
4, 10992, Note_on_c, 2, 54, 59
4, 11003, Note_on_c, 2, 54, 0
4, 11008, Note_on_c, 2, 52, 85
4, 11019, Note_on_c, 2, 52, 0
4, 11024, Note_on_c, 2, 54, 62
4, 11035, Note_on_c, 2, 54, 0
4, 11040, Note_on_c, 2, 56, 66
4, 11051, Note_on_c, 2, 56, 0
4, 11056, Note_on_c, 2, 52, 85
4, 11067, Note_on_c, 2, 52, 0
4, 11072, Note_on_c, 2, 54, 70
4, 11083, Note_on_c, 2, 54, 0
4, 11088, Note_on_c, 2, 56, 66
4, 11099, Note_on_c, 2, 56, 0
4, 11104, Note_on_c, 2, 54, 68
4, 11115, Note_on_c, 2, 54, 0
4, 11120, Note_on_c, 2, 56, 55
4, 11131, Note_on_c, 2, 56, 0
4, 11136, Note_on_c, 2, 57, 85
4, 11147, Note_on_c, 2, 57, 0
4, 11152, Note_on_c, 2, 54, 60
4, 11163, Note_on_c, 2, 54, 0
4, 11168, Note_on_c, 2, 56, 72
4, 11179, Note_on_c, 2, 56, 0
4, 11184, Note_on_c, 2, 57, 85
4, 11195, Note_on_c, 2, 57, 0
4, 11200, Note_on_c, 2, 56, 66
4, 11211, Note_on_c, 2, 56, 0
4, 11216, Note_on_c, 2, 57, 85
4, 11227, Note_on_c, 2, 57, 0
4, 11232, Note_on_c, 2, 59, 74
4, 11243, Note_on_c, 2, 59, 0
4, 11248, Note_on_c, 2, 56, 62
4, 11259, Note_on_c, 2, 56, 0
4, 11264, Note_on_c, 2, 57, 85
4, 11275, Note_on_c, 2, 57, 0
4, 11280, Note_on_c, 2, 59, 85
4, 11291, Note_on_c, 2, 59, 0
4, 11296, Note_on_c, 2, 57, 85
4, 11307, Note_on_c, 2, 57, 0
4, 11312, Note_on_c, 2, 59, 85
4, 11323, Note_on_c, 2, 59, 0
4, 11328, Note_on_c, 2, 53, 85
4, 11339, Note_on_c, 2, 53, 0
4, 11344, Note_on_c, 2, 56, 71
4, 11355, Note_on_c, 2, 56, 0
4, 11360, Note_on_c, 2, 54, 60
4, 11371, Note_on_c, 2, 54, 0
4, 11376, Note_on_c, 2, 53, 85
4, 11387, Note_on_c, 2, 53, 0
4, 11392, Note_on_c, 2, 51, 62
4, 11403, Note_on_c, 2, 51, 0
4, 11408, Note_on_c, 2, 53, 85
4, 11419, Note_on_c, 2, 53, 0
4, 11424, Note_on_c, 2, 54, 54
4, 11435, Note_on_c, 2, 54, 0
4, 11440, Note_on_c, 2, 42, 56
4, 11451, Note_on_c, 2, 42, 0
4, 11456, Note_on_c, 2, 44, 66
4, 11467, Note_on_c, 2, 44, 0
4, 11472, Note_on_c, 2, 45, 85
4, 11483, Note_on_c, 2, 45, 0
4, 11488, Note_on_c, 2, 44, 59
4, 11499, Note_on_c, 2, 44, 0
4, 11504, Note_on_c, 2, 45, 85
4, 11515, Note_on_c, 2, 45, 0
4, 11520, Note_on_c, 2, 47, 70
4, 11531, Note_on_c, 2, 47, 0
4, 11536, Note_on_c, 2, 44, 46
4, 11547, Note_on_c, 2, 44, 0
4, 11552, Note_on_c, 2, 45, 85
4, 11563, Note_on_c, 2, 45, 0
4, 11568, Note_on_c, 2, 47, 85
4, 11579, Note_on_c, 2, 47, 0
4, 11584, Note_on_c, 2, 45, 85
4, 11595, Note_on_c, 2, 45, 0
4, 11600, Note_on_c, 2, 47, 85
4, 11611, Note_on_c, 2, 47, 0
4, 11616, Note_on_c, 2, 49, 79
4, 11665, Note_on_c, 2, 49, 0
4, 11680, Note_on_c, 2, 50, 79
4, 11691, Note_on_c, 2, 50, 0
4, 11696, Note_on_c, 2, 52, 85
4, 11707, Note_on_c, 2, 52, 0
4, 11712, Note_on_c, 2, 54, 70
4, 11761, Note_on_c, 2, 54, 0
4, 11776, Note_on_c, 2, 56, 66
4, 11787, Note_on_c, 2, 56, 0
4, 11792, Note_on_c, 2, 58, 72
4, 11803, Note_on_c, 2, 58, 0
4, 11808, Note_on_c, 2, 59, 85
4, 11819, Note_on_c, 2, 59, 0
4, 11824, Note_on_c, 2, 61, 62
4, 11835, Note_on_c, 2, 61, 0
4, 11840, Note_on_c, 2, 62, 85
4, 11851, Note_on_c, 2, 62, 0
4, 11856, Note_on_c, 2, 61, 70
4, 11867, Note_on_c, 2, 61, 0
4, 11872, Note_on_c, 2, 63, 70
4, 11883, Note_on_c, 2, 63, 0
4, 11888, Note_on_c, 2, 65, 85
4, 11899, Note_on_c, 2, 65, 0
4, 11904, Note_on_c, 2, 54, 40
4, 11915, Note_on_c, 2, 54, 0
4, 11920, Note_on_c, 2, 56, 54
4, 11931, Note_on_c, 2, 56, 0
4, 11936, Note_on_c, 2, 57, 85
4, 11947, Note_on_c, 2, 57, 0
4, 11952, Note_on_c, 2, 56, 53
4, 11963, Note_on_c, 2, 56, 0
4, 11968, Note_on_c, 2, 57, 85
4, 11979, Note_on_c, 2, 57, 0
4, 11984, Note_on_c, 2, 59, 85
4, 11995, Note_on_c, 2, 59, 0
4, 12000, Note_on_c, 2, 57, 85
4, 12011, Note_on_c, 2, 57, 0
4, 12016, Note_on_c, 2, 59, 81
4, 12027, Note_on_c, 2, 59, 0
4, 12032, Note_on_c, 2, 61, 67
4, 12043, Note_on_c, 2, 61, 0
4, 12048, Note_on_c, 2, 50, 85
4, 12064, Note_on_c, 2, 50, 0
4, 12096, Note_on_c, 2, 47, 85
4, 12112, Note_on_c, 2, 47, 0
4, 12144, Note_on_c, 2, 49, 70
4, 12160, Note_on_c, 2, 49, 0
4, 12192, Note_on_c, 2, 42, 74
4, 12208, Note_on_c, 2, 42, 0
4, 12240, Note_on_c, 2, 45, 85
4, 12256, Note_on_c, 2, 45, 0
4, 12288, Note_on_c, 2, 47, 85
4, 12304, Note_on_c, 2, 47, 0
4, 12336, Note_on_c, 2, 49, 67
4, 12352, Note_on_c, 2, 49, 0
4, 12384, Note_on_c, 2, 50, 85
4, 12400, Note_on_c, 2, 50, 0
4, 12432, Note_on_c, 2, 51, 72
4, 12448, Note_on_c, 2, 51, 0
4, 12480, Note_on_c, 2, 52, 85
4, 12496, Note_on_c, 2, 52, 0
4, 12528, Note_on_c, 2, 54, 74
4, 12544, Note_on_c, 2, 54, 0
4, 12576, Note_on_c, 2, 55, 85
4, 12592, Note_on_c, 2, 55, 0
4, 12624, Note_on_c, 2, 56, 93
4, 12640, Note_on_c, 2, 56, 0
4, 12672, Note_on_c, 2, 57, 85
4, 12688, Note_on_c, 2, 57, 0
4, 12720, Note_on_c, 2, 59, 85
4, 12736, Note_on_c, 2, 59, 0
4, 12768, Note_on_c, 2, 61, 74
4, 12784, Note_on_c, 2, 61, 0
4, 12816, Note_on_c, 2, 49, 68
4, 12832, Note_on_c, 2, 49, 0
4, 12864, Note_on_c, 2, 50, 85
4, 12880, Note_on_c, 2, 50, 0
4, 12912, Note_on_c, 2, 52, 76
4, 12928, Note_on_c, 2, 52, 0
4, 12960, Note_on_c, 2, 54, 76
4, 12976, Note_on_c, 2, 54, 0
4, 13008, Note_on_c, 2, 42, 76
4, 13024, Note_on_c, 2, 42, 0
4, 13056, Note_on_c, 2, 44, 76
4, 13072, Note_on_c, 2, 44, 0
4, 13104, Note_on_c, 2, 56, 76
4, 13120, Note_on_c, 2, 56, 0
4, 13152, Note_on_c, 2, 57, 76
4, 13168, Note_on_c, 2, 57, 0
4, 13200, Note_on_c, 2, 45, 76
4, 13216, Note_on_c, 2, 45, 0
4, 13248, Note_on_c, 2, 47, 76
4, 13264, Note_on_c, 2, 47, 0
4, 13296, Note_on_c, 2, 59, 76
4, 13312, Note_on_c, 2, 59, 0
4, 13344, Note_on_c, 2, 61, 76
4, 13360, Note_on_c, 2, 61, 0
4, 13392, Note_on_c, 2, 49, 76
4, 13408, Note_on_c, 2, 49, 0
4, 13440, Note_on_c, 2, 50, 76
4, 13456, Note_on_c, 2, 50, 0
4, 13488, Note_on_c, 2, 62, 76
4, 13504, Note_on_c, 2, 62, 0
4, 13536, Note_on_c, 2, 62, 76
4, 13552, Note_on_c, 2, 62, 0
4, 13584, Note_on_c, 2, 61, 76
4, 13600, Note_on_c, 2, 61, 0
4, 13632, Note_on_c, 2, 62, 76
4, 13648, Note_on_c, 2, 62, 0
4, 13680, Note_on_c, 2, 64, 76
4, 13696, Note_on_c, 2, 64, 0
4, 13728, Note_on_c, 2, 66, 62
4, 13739, Note_on_c, 2, 66, 0
4, 13744, Note_on_c, 2, 64, 85
4, 13755, Note_on_c, 2, 64, 0
4, 13760, Note_on_c, 2, 62, 85
4, 13771, Note_on_c, 2, 62, 0
4, 13776, Note_on_c, 2, 61, 64
4, 13787, Note_on_c, 2, 61, 0
4, 13792, Note_on_c, 2, 63, 72
4, 13803, Note_on_c, 2, 63, 0
4, 13808, Note_on_c, 2, 64, 85
4, 13819, Note_on_c, 2, 64, 0
4, 13824, Note_on_c, 2, 63, 72
4, 13857, Note_on_c, 2, 63, 0
4, 13896, Note_on_c, 2, 59, 85
4, 13912, Note_on_c, 2, 59, 0
4, 13920, Note_on_c, 2, 64, 74
4, 13944, Note_on_c, 2, 64, 0
4, 13956, Note_on_c, 2, 62, 85
4, 13964, Note_on_c, 2, 62, 0
4, 13968, Note_on_c, 2, 61, 70
4, 13992, Note_on_c, 2, 61, 0
4, 14004, Note_on_c, 2, 54, 62
4, 14012, Note_on_c, 2, 54, 0
4, 14016, Note_on_c, 2, 52, 81
4, 14040, Note_on_c, 2, 52, 0
4, 14052, Note_on_c, 2, 50, 85
4, 14060, Note_on_c, 2, 50, 0
4, 14064, Note_on_c, 2, 52, 78
4, 14088, Note_on_c, 2, 52, 0
4, 14100, Note_on_c, 2, 40, 85
4, 14108, Note_on_c, 2, 40, 0
4, 14112, Note_on_c, 2, 45, 85
4, 14128, Note_on_c, 2, 45, 0
4, 14160, Note_on_c, 2, 57, 85
4, 14176, Note_on_c, 2, 57, 0
4, 14208, Note_on_c, 2, 45, 85
4, 14224, Note_on_c, 2, 45, 0
4, 14256, Note_on_c, 2, 57, 85
4, 14272, Note_on_c, 2, 57, 0
4, 14304, Note_on_c, 2, 45, 85
4, 14320, Note_on_c, 2, 45, 0
4, 14352, Note_on_c, 2, 57, 85
4, 14368, Note_on_c, 2, 57, 0
4, 14400, Note_on_c, 2, 45, 85
4, 14416, Note_on_c, 2, 45, 0
4, 14448, Note_on_c, 2, 57, 85
4, 14464, Note_on_c, 2, 57, 0
4, 14496, Note_on_c, 2, 45, 85
4, 14512, Note_on_c, 2, 45, 0
4, 14544, Note_on_c, 2, 57, 85
4, 14560, Note_on_c, 2, 57, 0
4, 14592, Note_on_c, 2, 45, 85
4, 14608, Note_on_c, 2, 45, 0
4, 14640, Note_on_c, 2, 57, 85
4, 14656, Note_on_c, 2, 57, 0
4, 14688, Note_on_c, 2, 45, 85
4, 14704, Note_on_c, 2, 45, 0
4, 14736, Note_on_c, 2, 57, 85
4, 14752, Note_on_c, 2, 57, 0
4, 14784, Note_on_c, 2, 45, 67
4, 14795, Note_on_c, 2, 45, 0
4, 14800, Note_on_c, 2, 49, 67
4, 14811, Note_on_c, 2, 49, 0
4, 14816, Note_on_c, 2, 52, 85
4, 14827, Note_on_c, 2, 52, 0
4, 14832, Note_on_c, 2, 57, 85
4, 14843, Note_on_c, 2, 57, 0
4, 14848, Note_on_c, 2, 61, 46
4, 14859, Note_on_c, 2, 61, 0
4, 14864, Note_on_c, 2, 57, 70
4, 14875, Note_on_c, 2, 57, 0
4, 14880, Note_on_c, 2, 61, 49
4, 14891, Note_on_c, 2, 61, 0
4, 14896, Note_on_c, 2, 57, 85
4, 14907, Note_on_c, 2, 57, 0
4, 14912, Note_on_c, 2, 59, 76
4, 14923, Note_on_c, 2, 59, 0
4, 14928, Note_on_c, 2, 61, 46
4, 14939, Note_on_c, 2, 61, 0
4, 14944, Note_on_c, 2, 64, 71
4, 14955, Note_on_c, 2, 64, 0
4, 14960, Note_on_c, 2, 63, 67
4, 14971, Note_on_c, 2, 63, 0
4, 14976, Note_on_c, 2, 64, 72
4, 14981, Note_on_c, 2, 64, 0
4, 14982, Note_on_c, 2, 66, 64
4, 14987, Note_on_c, 2, 66, 0
4, 14988, Note_on_c, 2, 64, 79
4, 14993, Note_on_c, 2, 64, 0
4, 14994, Note_on_c, 2, 66, 65
4, 14999, Note_on_c, 2, 66, 0
4, 15000, Note_on_c, 2, 64, 81
4, 15005, Note_on_c, 2, 64, 0
4, 15006, Note_on_c, 2, 66, 67
4, 15011, Note_on_c, 2, 66, 0
4, 15012, Note_on_c, 2, 64, 82
4, 15017, Note_on_c, 2, 64, 0
4, 15018, Note_on_c, 2, 66, 66
4, 15023, Note_on_c, 2, 66, 0
4, 15024, Note_on_c, 2, 64, 85
4, 15029, Note_on_c, 2, 64, 0
4, 15030, Note_on_c, 2, 66, 69
4, 15035, Note_on_c, 2, 66, 0
4, 15036, Note_on_c, 2, 64, 85
4, 15041, Note_on_c, 2, 64, 0
4, 15042, Note_on_c, 2, 66, 72
4, 15047, Note_on_c, 2, 66, 0
4, 15048, Note_on_c, 2, 64, 85
4, 15053, Note_on_c, 2, 64, 0
4, 15054, Note_on_c, 2, 66, 67
4, 15059, Note_on_c, 2, 66, 0
4, 15060, Note_on_c, 2, 64, 85
4, 15065, Note_on_c, 2, 64, 0
4, 15066, Note_on_c, 2, 66, 72
4, 15071, Note_on_c, 2, 66, 0
4, 15072, Note_on_c, 2, 64, 85
4, 15077, Note_on_c, 2, 64, 0
4, 15078, Note_on_c, 2, 66, 76
4, 15083, Note_on_c, 2, 66, 0
4, 15084, Note_on_c, 2, 64, 85
4, 15089, Note_on_c, 2, 64, 0
4, 15090, Note_on_c, 2, 66, 76
4, 15095, Note_on_c, 2, 66, 0
4, 15096, Note_on_c, 2, 64, 85
4, 15101, Note_on_c, 2, 64, 0
4, 15102, Note_on_c, 2, 66, 74
4, 15107, Note_on_c, 2, 66, 0
4, 15108, Note_on_c, 2, 64, 85
4, 15113, Note_on_c, 2, 64, 0
4, 15114, Note_on_c, 2, 66, 74
4, 15119, Note_on_c, 2, 66, 0
4, 15120, Note_on_c, 2, 64, 85
4, 15125, Note_on_c, 2, 64, 0
4, 15126, Note_on_c, 2, 66, 74
4, 15131, Note_on_c, 2, 66, 0
4, 15132, Note_on_c, 2, 64, 85
4, 15137, Note_on_c, 2, 64, 0
4, 15138, Note_on_c, 2, 66, 74
4, 15143, Note_on_c, 2, 66, 0
4, 15144, Note_on_c, 2, 64, 85
4, 15149, Note_on_c, 2, 64, 0
4, 15150, Note_on_c, 2, 66, 74
4, 15155, Note_on_c, 2, 66, 0
4, 15156, Note_on_c, 2, 64, 85
4, 15161, Note_on_c, 2, 64, 0
4, 15162, Note_on_c, 2, 66, 74
4, 15167, Note_on_c, 2, 66, 0
4, 15168, Note_on_c, 2, 64, 76
4, 15179, Note_on_c, 2, 64, 0
4, 15184, Note_on_c, 2, 52, 72
4, 15195, Note_on_c, 2, 52, 0
4, 15200, Note_on_c, 2, 54, 50
4, 15211, Note_on_c, 2, 54, 0
4, 15216, Note_on_c, 2, 55, 85
4, 15227, Note_on_c, 2, 55, 0
4, 15232, Note_on_c, 2, 59, 71
4, 15243, Note_on_c, 2, 59, 0
4, 15248, Note_on_c, 2, 57, 85
4, 15259, Note_on_c, 2, 57, 0
4, 15264, Note_on_c, 2, 59, 72
4, 15275, Note_on_c, 2, 59, 0
4, 15280, Note_on_c, 2, 55, 85
4, 15291, Note_on_c, 2, 55, 0
4, 15296, Note_on_c, 2, 57, 85
4, 15307, Note_on_c, 2, 57, 0
4, 15312, Note_on_c, 2, 59, 59
4, 15323, Note_on_c, 2, 59, 0
4, 15328, Note_on_c, 2, 62, 85
4, 15339, Note_on_c, 2, 62, 0
4, 15344, Note_on_c, 2, 61, 56
4, 15355, Note_on_c, 2, 61, 0
4, 15360, Note_on_c, 2, 62, 95
4, 15365, Note_on_c, 2, 62, 0
4, 15366, Note_on_c, 2, 64, 95
4, 15371, Note_on_c, 2, 64, 0
4, 15372, Note_on_c, 2, 62, 95
4, 15377, Note_on_c, 2, 62, 0
4, 15378, Note_on_c, 2, 64, 95
4, 15383, Note_on_c, 2, 64, 0
4, 15384, Note_on_c, 2, 62, 95
4, 15389, Note_on_c, 2, 62, 0
4, 15390, Note_on_c, 2, 64, 95
4, 15395, Note_on_c, 2, 64, 0
4, 15396, Note_on_c, 2, 62, 95
4, 15401, Note_on_c, 2, 62, 0
4, 15402, Note_on_c, 2, 64, 95
4, 15407, Note_on_c, 2, 64, 0
4, 15408, Note_on_c, 2, 62, 95
4, 15413, Note_on_c, 2, 62, 0
4, 15414, Note_on_c, 2, 64, 95
4, 15419, Note_on_c, 2, 64, 0
4, 15420, Note_on_c, 2, 62, 95
4, 15425, Note_on_c, 2, 62, 0
4, 15426, Note_on_c, 2, 64, 95
4, 15431, Note_on_c, 2, 64, 0
4, 15432, Note_on_c, 2, 62, 95
4, 15437, Note_on_c, 2, 62, 0
4, 15438, Note_on_c, 2, 64, 95
4, 15443, Note_on_c, 2, 64, 0
4, 15444, Note_on_c, 2, 62, 95
4, 15449, Note_on_c, 2, 62, 0
4, 15450, Note_on_c, 2, 64, 95
4, 15455, Note_on_c, 2, 64, 0
4, 15456, Note_on_c, 2, 62, 95
4, 15461, Note_on_c, 2, 62, 0
4, 15462, Note_on_c, 2, 64, 95
4, 15467, Note_on_c, 2, 64, 0
4, 15468, Note_on_c, 2, 62, 95
4, 15473, Note_on_c, 2, 62, 0
4, 15474, Note_on_c, 2, 64, 95
4, 15479, Note_on_c, 2, 64, 0
4, 15480, Note_on_c, 2, 62, 95
4, 15485, Note_on_c, 2, 62, 0
4, 15486, Note_on_c, 2, 64, 95
4, 15491, Note_on_c, 2, 64, 0
4, 15492, Note_on_c, 2, 62, 95
4, 15497, Note_on_c, 2, 62, 0
4, 15498, Note_on_c, 2, 64, 95
4, 15503, Note_on_c, 2, 64, 0
4, 15504, Note_on_c, 2, 62, 95
4, 15509, Note_on_c, 2, 62, 0
4, 15510, Note_on_c, 2, 64, 95
4, 15515, Note_on_c, 2, 64, 0
4, 15516, Note_on_c, 2, 62, 95
4, 15521, Note_on_c, 2, 62, 0
4, 15522, Note_on_c, 2, 64, 95
4, 15527, Note_on_c, 2, 64, 0
4, 15528, Note_on_c, 2, 62, 95
4, 15533, Note_on_c, 2, 62, 0
4, 15534, Note_on_c, 2, 64, 95
4, 15539, Note_on_c, 2, 64, 0
4, 15540, Note_on_c, 2, 62, 95
4, 15545, Note_on_c, 2, 62, 0
4, 15546, Note_on_c, 2, 64, 95
4, 15551, Note_on_c, 2, 64, 0
4, 15552, Note_on_c, 2, 62, 85
4, 15568, Note_on_c, 2, 62, 0
4, 15648, Control_c, 2, 7, 101
4, 15660, Control_c, 2, 7, 101
4, 15684, Note_on_c, 2, 66, 60
4, 15692, Note_on_c, 2, 66, 0
4, 15696, Note_on_c, 2, 71, 76
4, 15720, Note_on_c, 2, 71, 0
4, 15732, Note_on_c, 2, 66, 59
4, 15740, Note_on_c, 2, 66, 0
4, 15744, Note_on_c, 2, 67, 59
4, 15755, Note_on_c, 2, 67, 0
4, 15760, Note_on_c, 2, 66, 64
4, 15771, Note_on_c, 2, 66, 0
4, 15776, Note_on_c, 2, 64, 85
4, 15787, Note_on_c, 2, 64, 0
4, 15792, Note_on_c, 2, 62, 85
4, 15803, Note_on_c, 2, 62, 0
4, 15808, Note_on_c, 2, 64, 85
4, 15819, Note_on_c, 2, 64, 0
4, 15824, Note_on_c, 2, 66, 56
4, 15835, Note_on_c, 2, 66, 0
4, 15840, Note_on_c, 2, 59, 85
4, 15864, Note_on_c, 2, 59, 0
4, 15876, Note_on_c, 2, 54, 62
4, 15884, Note_on_c, 2, 54, 0
4, 15888, Note_on_c, 2, 59, 76
4, 15899, Note_on_c, 2, 59, 0
4, 15904, Note_on_c, 2, 62, 70
4, 15915, Note_on_c, 2, 62, 0
4, 15920, Note_on_c, 2, 61, 59
4, 15931, Note_on_c, 2, 61, 0
4, 15936, Note_on_c, 2, 62, 59
4, 15947, Note_on_c, 2, 62, 0
4, 15952, Note_on_c, 2, 59, 85
4, 15963, Note_on_c, 2, 59, 0
4, 15968, Note_on_c, 2, 61, 57
4, 15979, Note_on_c, 2, 61, 0
4, 15984, Note_on_c, 2, 62, 62
4, 15995, Note_on_c, 2, 62, 0
4, 16000, Note_on_c, 2, 66, 54
4, 16011, Note_on_c, 2, 66, 0
4, 16016, Note_on_c, 2, 64, 81
4, 16027, Note_on_c, 2, 64, 0
4, 16032, Note_on_c, 2, 66, 46
4, 16056, Note_on_c, 2, 66, 0
4, 16068, Note_on_c, 2, 59, 85
4, 16076, Note_on_c, 2, 59, 0
4, 16080, Note_on_c, 2, 66, 52
4, 16104, Note_on_c, 2, 66, 0
4, 16116, Note_on_c, 2, 61, 72
4, 16124, Note_on_c, 2, 61, 0
4, 16128, Note_on_c, 2, 62, 85
4, 16139, Note_on_c, 2, 62, 0
4, 16144, Note_on_c, 2, 61, 62
4, 16155, Note_on_c, 2, 61, 0
4, 16160, Note_on_c, 2, 59, 85
4, 16171, Note_on_c, 2, 59, 0
4, 16176, Note_on_c, 2, 58, 52
4, 16187, Note_on_c, 2, 58, 0
4, 16192, Note_on_c, 2, 59, 85
4, 16203, Note_on_c, 2, 59, 0
4, 16208, Note_on_c, 2, 61, 67
4, 16219, Note_on_c, 2, 61, 0
4, 16224, Note_on_c, 2, 54, 65
4, 16256, Note_on_c, 2, 54, 0
4, 16272, Note_on_c, 2, 64, 85
4, 16332, Note_on_c, 2, 64, 0
4, 16336, Note_on_c, 2, 62, 62
4, 16349, Note_on_c, 2, 62, 0
4, 16352, Note_on_c, 2, 61, 67
4, 16365, Note_on_c, 2, 61, 0
4, 16368, Note_on_c, 2, 59, 85
4, 16381, Note_on_c, 2, 59, 0
4, 16384, Note_on_c, 2, 61, 57
4, 16397, Note_on_c, 2, 61, 0
4, 16400, Note_on_c, 2, 58, 60
4, 16413, Note_on_c, 2, 58, 0
4, 16416, Note_on_c, 2, 67, 85
4, 16429, Note_on_c, 2, 67, 0
4, 16432, Note_on_c, 2, 66, 66
4, 16445, Note_on_c, 2, 66, 0
4, 16448, Note_on_c, 2, 64, 85
4, 16461, Note_on_c, 2, 64, 0
4, 16464, Note_on_c, 2, 62, 85
4, 16477, Note_on_c, 2, 62, 0
4, 16480, Note_on_c, 2, 64, 72
4, 16493, Note_on_c, 2, 64, 0
4, 16496, Note_on_c, 2, 61, 59
4, 16509, Note_on_c, 2, 61, 0
4, 16512, Note_on_c, 2, 59, 81
4, 16542, Note_on_c, 2, 59, 0
4, 16548, Note_on_c, 2, 54, 47
4, 16558, Note_on_c, 2, 54, 0
4, 16560, Note_on_c, 2, 59, 76
4, 16590, Note_on_c, 2, 59, 0
4, 16596, Note_on_c, 2, 54, 64
4, 16606, Note_on_c, 2, 54, 0
4, 16608, Note_on_c, 2, 55, 85
4, 16621, Note_on_c, 2, 55, 0
4, 16624, Note_on_c, 2, 54, 64
4, 16637, Note_on_c, 2, 54, 0
4, 16640, Note_on_c, 2, 52, 77
4, 16653, Note_on_c, 2, 52, 0
4, 16656, Note_on_c, 2, 50, 85
4, 16669, Note_on_c, 2, 50, 0
4, 16672, Note_on_c, 2, 52, 85
4, 16685, Note_on_c, 2, 52, 0
4, 16688, Note_on_c, 2, 54, 53
4, 16701, Note_on_c, 2, 54, 0
4, 16704, Note_on_c, 2, 47, 85
4, 16734, Note_on_c, 2, 47, 0
4, 16740, Note_on_c, 2, 42, 70
4, 16750, Note_on_c, 2, 42, 0
4, 16752, Note_on_c, 2, 47, 85
4, 16765, Note_on_c, 2, 47, 0
4, 16768, Note_on_c, 2, 50, 77
4, 16781, Note_on_c, 2, 50, 0
4, 16784, Note_on_c, 2, 49, 49
4, 16797, Note_on_c, 2, 49, 0
4, 16800, Note_on_c, 2, 50, 66
4, 16813, Note_on_c, 2, 50, 0
4, 16816, Note_on_c, 2, 47, 85
4, 16829, Note_on_c, 2, 47, 0
4, 16832, Note_on_c, 2, 49, 46
4, 16845, Note_on_c, 2, 49, 0
4, 16848, Note_on_c, 2, 50, 85
4, 16861, Note_on_c, 2, 50, 0
4, 16864, Note_on_c, 2, 54, 53
4, 16877, Note_on_c, 2, 54, 0
4, 16880, Note_on_c, 2, 53, 85
4, 16893, Note_on_c, 2, 53, 0
4, 16896, Note_on_c, 2, 54, 95
4, 16901, Note_on_c, 2, 54, 0
4, 16902, Note_on_c, 2, 55, 95
4, 16907, Note_on_c, 2, 55, 0
4, 16908, Note_on_c, 2, 54, 95
4, 16913, Note_on_c, 2, 54, 0
4, 16914, Note_on_c, 2, 55, 95
4, 16919, Note_on_c, 2, 55, 0
4, 16920, Note_on_c, 2, 54, 95
4, 16925, Note_on_c, 2, 54, 0
4, 16926, Note_on_c, 2, 55, 95
4, 16931, Note_on_c, 2, 55, 0
4, 16932, Note_on_c, 2, 54, 95
4, 16937, Note_on_c, 2, 54, 0
4, 16938, Note_on_c, 2, 55, 95
4, 16943, Note_on_c, 2, 55, 0
4, 16944, Note_on_c, 2, 54, 95
4, 16949, Note_on_c, 2, 54, 0
4, 16950, Note_on_c, 2, 55, 95
4, 16955, Note_on_c, 2, 55, 0
4, 16956, Note_on_c, 2, 54, 95
4, 16961, Note_on_c, 2, 54, 0
4, 16962, Note_on_c, 2, 55, 95
4, 16967, Note_on_c, 2, 55, 0
4, 16968, Note_on_c, 2, 54, 95
4, 16973, Note_on_c, 2, 54, 0
4, 16974, Note_on_c, 2, 55, 95
4, 16979, Note_on_c, 2, 55, 0
4, 16980, Note_on_c, 2, 54, 95
4, 16985, Note_on_c, 2, 54, 0
4, 16986, Note_on_c, 2, 55, 95
4, 16991, Note_on_c, 2, 55, 0
4, 16992, Note_on_c, 2, 54, 52
4, 17005, Note_on_c, 2, 54, 0
4, 17008, Note_on_c, 2, 57, 85
4, 17021, Note_on_c, 2, 57, 0
4, 17024, Note_on_c, 2, 55, 85
4, 17037, Note_on_c, 2, 55, 0
4, 17040, Note_on_c, 2, 54, 57
4, 17053, Note_on_c, 2, 54, 0
4, 17056, Note_on_c, 2, 52, 85
4, 17069, Note_on_c, 2, 52, 0
4, 17072, Note_on_c, 2, 51, 47
4, 17085, Note_on_c, 2, 51, 0
4, 17088, Note_on_c, 2, 52, 85
4, 17091, Note_on_c, 2, 52, 0
4, 17092, Note_on_c, 2, 54, 65
4, 17095, Note_on_c, 2, 54, 0
4, 17096, Note_on_c, 2, 52, 85
4, 17099, Note_on_c, 2, 52, 0
4, 17100, Note_on_c, 2, 54, 67
4, 17103, Note_on_c, 2, 54, 0
4, 17104, Note_on_c, 2, 52, 79
4, 17107, Note_on_c, 2, 52, 0
4, 17108, Note_on_c, 2, 54, 60
4, 17111, Note_on_c, 2, 54, 0
4, 17112, Note_on_c, 2, 52, 77
4, 17115, Note_on_c, 2, 52, 0
4, 17116, Note_on_c, 2, 54, 61
4, 17119, Note_on_c, 2, 54, 0
4, 17120, Note_on_c, 2, 52, 68
4, 17123, Note_on_c, 2, 52, 0
4, 17124, Note_on_c, 2, 54, 65
4, 17127, Note_on_c, 2, 54, 0
4, 17128, Note_on_c, 2, 52, 85
4, 17131, Note_on_c, 2, 52, 0
4, 17132, Note_on_c, 2, 54, 66
4, 17135, Note_on_c, 2, 54, 0
4, 17136, Note_on_c, 2, 52, 81
4, 17139, Note_on_c, 2, 52, 0
4, 17140, Note_on_c, 2, 54, 69
4, 17143, Note_on_c, 2, 54, 0
4, 17144, Note_on_c, 2, 52, 59
4, 17147, Note_on_c, 2, 52, 0
4, 17148, Note_on_c, 2, 54, 69
4, 17151, Note_on_c, 2, 54, 0
4, 17152, Note_on_c, 2, 52, 85
4, 17155, Note_on_c, 2, 52, 0
4, 17156, Note_on_c, 2, 54, 70
4, 17159, Note_on_c, 2, 54, 0
4, 17160, Note_on_c, 2, 52, 74
4, 17163, Note_on_c, 2, 52, 0
4, 17164, Note_on_c, 2, 54, 78
4, 17167, Note_on_c, 2, 54, 0
4, 17168, Note_on_c, 2, 52, 85
4, 17171, Note_on_c, 2, 52, 0
4, 17172, Note_on_c, 2, 54, 74
4, 17175, Note_on_c, 2, 54, 0
4, 17176, Note_on_c, 2, 52, 85
4, 17179, Note_on_c, 2, 52, 0
4, 17180, Note_on_c, 2, 54, 91
4, 17183, Note_on_c, 2, 54, 0
4, 17184, Note_on_c, 2, 52, 85
4, 17197, Note_on_c, 2, 52, 0
4, 17200, Note_on_c, 2, 55, 85
4, 17213, Note_on_c, 2, 55, 0
4, 17216, Note_on_c, 2, 54, 71
4, 17229, Note_on_c, 2, 54, 0
4, 17232, Note_on_c, 2, 52, 85
4, 17245, Note_on_c, 2, 52, 0
4, 17248, Note_on_c, 2, 50, 85
4, 17261, Note_on_c, 2, 50, 0
4, 17264, Note_on_c, 2, 49, 66
4, 17277, Note_on_c, 2, 49, 0
4, 17280, Note_on_c, 2, 50, 74
4, 17283, Note_on_c, 2, 50, 0
4, 17284, Note_on_c, 2, 52, 85
4, 17287, Note_on_c, 2, 52, 0
4, 17288, Note_on_c, 2, 50, 85
4, 17291, Note_on_c, 2, 50, 0
4, 17292, Note_on_c, 2, 52, 85
4, 17295, Note_on_c, 2, 52, 0
4, 17296, Note_on_c, 2, 50, 85
4, 17299, Note_on_c, 2, 50, 0
4, 17300, Note_on_c, 2, 52, 85
4, 17303, Note_on_c, 2, 52, 0
4, 17304, Note_on_c, 2, 50, 85
4, 17307, Note_on_c, 2, 50, 0
4, 17308, Note_on_c, 2, 52, 85
4, 17311, Note_on_c, 2, 52, 0
4, 17312, Note_on_c, 2, 50, 85
4, 17315, Note_on_c, 2, 50, 0
4, 17316, Note_on_c, 2, 52, 85
4, 17319, Note_on_c, 2, 52, 0
4, 17320, Note_on_c, 2, 50, 85
4, 17323, Note_on_c, 2, 50, 0
4, 17324, Note_on_c, 2, 52, 85
4, 17327, Note_on_c, 2, 52, 0
4, 17328, Note_on_c, 2, 50, 85
4, 17331, Note_on_c, 2, 50, 0
4, 17332, Note_on_c, 2, 52, 85
4, 17335, Note_on_c, 2, 52, 0
4, 17336, Note_on_c, 2, 50, 85
4, 17339, Note_on_c, 2, 50, 0
4, 17340, Note_on_c, 2, 52, 85
4, 17343, Note_on_c, 2, 52, 0
4, 17344, Note_on_c, 2, 50, 85
4, 17347, Note_on_c, 2, 50, 0
4, 17348, Note_on_c, 2, 52, 85
4, 17351, Note_on_c, 2, 52, 0
4, 17352, Note_on_c, 2, 50, 85
4, 17355, Note_on_c, 2, 50, 0
4, 17356, Note_on_c, 2, 52, 85
4, 17359, Note_on_c, 2, 52, 0
4, 17360, Note_on_c, 2, 50, 85
4, 17363, Note_on_c, 2, 50, 0
4, 17364, Note_on_c, 2, 52, 85
4, 17367, Note_on_c, 2, 52, 0
4, 17368, Note_on_c, 2, 50, 85
4, 17371, Note_on_c, 2, 50, 0
4, 17372, Note_on_c, 2, 52, 85
4, 17375, Note_on_c, 2, 52, 0
4, 17376, Note_on_c, 2, 50, 74
4, 17379, Note_on_c, 2, 50, 0
4, 17380, Note_on_c, 2, 52, 85
4, 17383, Note_on_c, 2, 52, 0
4, 17384, Note_on_c, 2, 50, 85
4, 17387, Note_on_c, 2, 50, 0
4, 17388, Note_on_c, 2, 52, 85
4, 17391, Note_on_c, 2, 52, 0
4, 17392, Note_on_c, 2, 50, 85
4, 17395, Note_on_c, 2, 50, 0
4, 17396, Note_on_c, 2, 52, 85
4, 17399, Note_on_c, 2, 52, 0
4, 17400, Note_on_c, 2, 50, 85
4, 17403, Note_on_c, 2, 50, 0
4, 17404, Note_on_c, 2, 52, 85
4, 17407, Note_on_c, 2, 52, 0
4, 17408, Note_on_c, 2, 50, 85
4, 17411, Note_on_c, 2, 50, 0
4, 17412, Note_on_c, 2, 52, 85
4, 17415, Note_on_c, 2, 52, 0
4, 17416, Note_on_c, 2, 50, 85
4, 17419, Note_on_c, 2, 50, 0
4, 17420, Note_on_c, 2, 52, 85
4, 17423, Note_on_c, 2, 52, 0
4, 17424, Note_on_c, 2, 50, 85
4, 17427, Note_on_c, 2, 50, 0
4, 17428, Note_on_c, 2, 52, 85
4, 17431, Note_on_c, 2, 52, 0
4, 17432, Note_on_c, 2, 50, 85
4, 17435, Note_on_c, 2, 50, 0
4, 17436, Note_on_c, 2, 52, 85
4, 17439, Note_on_c, 2, 52, 0
4, 17440, Note_on_c, 2, 50, 85
4, 17443, Note_on_c, 2, 50, 0
4, 17444, Note_on_c, 2, 52, 85
4, 17447, Note_on_c, 2, 52, 0
4, 17448, Note_on_c, 2, 50, 85
4, 17451, Note_on_c, 2, 50, 0
4, 17452, Note_on_c, 2, 52, 85
4, 17455, Note_on_c, 2, 52, 0
4, 17456, Note_on_c, 2, 50, 85
4, 17459, Note_on_c, 2, 50, 0
4, 17460, Note_on_c, 2, 52, 85
4, 17463, Note_on_c, 2, 52, 0
4, 17464, Note_on_c, 2, 50, 85
4, 17467, Note_on_c, 2, 50, 0
4, 17468, Note_on_c, 2, 52, 85
4, 17471, Note_on_c, 2, 52, 0
4, 17472, Note_on_c, 2, 50, 77
4, 17485, Note_on_c, 2, 50, 0
4, 17488, Note_on_c, 2, 42, 62
4, 17501, Note_on_c, 2, 42, 0
4, 17504, Note_on_c, 2, 45, 85
4, 17517, Note_on_c, 2, 45, 0
4, 17520, Note_on_c, 2, 50, 85
4, 17533, Note_on_c, 2, 50, 0
4, 17536, Note_on_c, 2, 54, 43
4, 17549, Note_on_c, 2, 54, 0
4, 17552, Note_on_c, 2, 52, 85
4, 17565, Note_on_c, 2, 52, 0
4, 17568, Note_on_c, 2, 54, 66
4, 17581, Note_on_c, 2, 54, 0
4, 17584, Note_on_c, 2, 50, 85
4, 17597, Note_on_c, 2, 50, 0
4, 17600, Note_on_c, 2, 52, 85
4, 17613, Note_on_c, 2, 52, 0
4, 17616, Note_on_c, 2, 54, 62
4, 17629, Note_on_c, 2, 54, 0
4, 17632, Note_on_c, 2, 57, 85
4, 17645, Note_on_c, 2, 57, 0
4, 17648, Note_on_c, 2, 56, 70
4, 17661, Note_on_c, 2, 56, 0
4, 17664, Note_on_c, 2, 57, 85
4, 17667, Note_on_c, 2, 57, 0
4, 17668, Note_on_c, 2, 59, 85
4, 17671, Note_on_c, 2, 59, 0
4, 17672, Note_on_c, 2, 57, 85
4, 17675, Note_on_c, 2, 57, 0
4, 17676, Note_on_c, 2, 59, 85
4, 17679, Note_on_c, 2, 59, 0
4, 17680, Note_on_c, 2, 57, 85
4, 17683, Note_on_c, 2, 57, 0
4, 17684, Note_on_c, 2, 59, 85
4, 17687, Note_on_c, 2, 59, 0
4, 17688, Note_on_c, 2, 57, 85
4, 17691, Note_on_c, 2, 57, 0
4, 17692, Note_on_c, 2, 59, 85
4, 17695, Note_on_c, 2, 59, 0
4, 17696, Note_on_c, 2, 57, 85
4, 17699, Note_on_c, 2, 57, 0
4, 17700, Note_on_c, 2, 59, 85
4, 17703, Note_on_c, 2, 59, 0
4, 17704, Note_on_c, 2, 57, 85
4, 17707, Note_on_c, 2, 57, 0
4, 17708, Note_on_c, 2, 59, 85
4, 17711, Note_on_c, 2, 59, 0
4, 17712, Note_on_c, 2, 57, 85
4, 17715, Note_on_c, 2, 57, 0
4, 17716, Note_on_c, 2, 59, 85
4, 17719, Note_on_c, 2, 59, 0
4, 17720, Note_on_c, 2, 57, 85
4, 17723, Note_on_c, 2, 57, 0
4, 17724, Note_on_c, 2, 59, 85
4, 17727, Note_on_c, 2, 59, 0
4, 17728, Note_on_c, 2, 57, 86
4, 17731, Note_on_c, 2, 57, 0
4, 17732, Note_on_c, 2, 59, 85
4, 17735, Note_on_c, 2, 59, 0
4, 17736, Note_on_c, 2, 57, 85
4, 17739, Note_on_c, 2, 57, 0
4, 17740, Note_on_c, 2, 59, 85
4, 17743, Note_on_c, 2, 59, 0
4, 17744, Note_on_c, 2, 57, 85
4, 17747, Note_on_c, 2, 57, 0
4, 17748, Note_on_c, 2, 59, 85
4, 17751, Note_on_c, 2, 59, 0
4, 17752, Note_on_c, 2, 57, 77
4, 17755, Note_on_c, 2, 57, 0
4, 17756, Note_on_c, 2, 59, 85
4, 17759, Note_on_c, 2, 59, 0
4, 17760, Note_on_c, 2, 57, 85
4, 17763, Note_on_c, 2, 57, 0
4, 17764, Note_on_c, 2, 59, 85
4, 17767, Note_on_c, 2, 59, 0
4, 17768, Note_on_c, 2, 57, 85
4, 17771, Note_on_c, 2, 57, 0
4, 17772, Note_on_c, 2, 59, 85
4, 17775, Note_on_c, 2, 59, 0
4, 17776, Note_on_c, 2, 57, 85
4, 17779, Note_on_c, 2, 57, 0
4, 17780, Note_on_c, 2, 59, 85
4, 17783, Note_on_c, 2, 59, 0
4, 17784, Note_on_c, 2, 57, 85
4, 17787, Note_on_c, 2, 57, 0
4, 17788, Note_on_c, 2, 59, 85
4, 17791, Note_on_c, 2, 59, 0
4, 17792, Note_on_c, 2, 57, 85
4, 17795, Note_on_c, 2, 57, 0
4, 17796, Note_on_c, 2, 59, 85
4, 17799, Note_on_c, 2, 59, 0
4, 17800, Note_on_c, 2, 57, 85
4, 17803, Note_on_c, 2, 57, 0
4, 17804, Note_on_c, 2, 59, 85
4, 17807, Note_on_c, 2, 59, 0
4, 17808, Note_on_c, 2, 57, 85
4, 17811, Note_on_c, 2, 57, 0
4, 17812, Note_on_c, 2, 59, 85
4, 17815, Note_on_c, 2, 59, 0
4, 17816, Note_on_c, 2, 57, 85
4, 17819, Note_on_c, 2, 57, 0
4, 17820, Note_on_c, 2, 59, 85
4, 17823, Note_on_c, 2, 59, 0
4, 17824, Note_on_c, 2, 57, 86
4, 17827, Note_on_c, 2, 57, 0
4, 17828, Note_on_c, 2, 59, 85
4, 17831, Note_on_c, 2, 59, 0
4, 17832, Note_on_c, 2, 57, 85
4, 17835, Note_on_c, 2, 57, 0
4, 17836, Note_on_c, 2, 59, 85
4, 17839, Note_on_c, 2, 59, 0
4, 17840, Note_on_c, 2, 57, 85
4, 17843, Note_on_c, 2, 57, 0
4, 17844, Note_on_c, 2, 59, 85
4, 17847, Note_on_c, 2, 59, 0
4, 17848, Note_on_c, 2, 57, 77
4, 17851, Note_on_c, 2, 57, 0
4, 17852, Note_on_c, 2, 59, 85
4, 17855, Note_on_c, 2, 59, 0
4, 17856, Note_on_c, 2, 57, 85
4, 17869, Note_on_c, 2, 57, 0
4, 17872, Note_on_c, 2, 49, 49
4, 17885, Note_on_c, 2, 49, 0
4, 17888, Note_on_c, 2, 52, 85
4, 17901, Note_on_c, 2, 52, 0
4, 17904, Note_on_c, 2, 57, 81
4, 17917, Note_on_c, 2, 57, 0
4, 17920, Note_on_c, 2, 61, 50
4, 17933, Note_on_c, 2, 61, 0
4, 17936, Note_on_c, 2, 59, 85
4, 17949, Note_on_c, 2, 59, 0
4, 17952, Note_on_c, 2, 61, 57
4, 17965, Note_on_c, 2, 61, 0
4, 17968, Note_on_c, 2, 57, 85
4, 17981, Note_on_c, 2, 57, 0
4, 17984, Note_on_c, 2, 59, 85
4, 17997, Note_on_c, 2, 59, 0
4, 18000, Note_on_c, 2, 61, 61
4, 18013, Note_on_c, 2, 61, 0
4, 18016, Note_on_c, 2, 64, 77
4, 18029, Note_on_c, 2, 64, 0
4, 18032, Note_on_c, 2, 62, 85
4, 18045, Note_on_c, 2, 62, 0
4, 18048, Note_on_c, 2, 64, 74
4, 18051, Note_on_c, 2, 64, 0
4, 18052, Note_on_c, 2, 66, 44
4, 18055, Note_on_c, 2, 66, 0
4, 18056, Note_on_c, 2, 64, 85
4, 18059, Note_on_c, 2, 64, 0
4, 18060, Note_on_c, 2, 66, 55
4, 18063, Note_on_c, 2, 66, 0
4, 18064, Note_on_c, 2, 64, 85
4, 18067, Note_on_c, 2, 64, 0
4, 18068, Note_on_c, 2, 66, 59
4, 18071, Note_on_c, 2, 66, 0
4, 18072, Note_on_c, 2, 64, 49
4, 18075, Note_on_c, 2, 64, 0
4, 18076, Note_on_c, 2, 66, 68
4, 18079, Note_on_c, 2, 66, 0
4, 18080, Note_on_c, 2, 64, 72
4, 18083, Note_on_c, 2, 64, 0
4, 18084, Note_on_c, 2, 66, 68
4, 18087, Note_on_c, 2, 66, 0
4, 18088, Note_on_c, 2, 64, 85
4, 18091, Note_on_c, 2, 64, 0
4, 18092, Note_on_c, 2, 66, 67
4, 18095, Note_on_c, 2, 66, 0
4, 18096, Note_on_c, 2, 64, 85
4, 18099, Note_on_c, 2, 64, 0
4, 18100, Note_on_c, 2, 66, 64
4, 18103, Note_on_c, 2, 66, 0
4, 18104, Note_on_c, 2, 64, 85
4, 18107, Note_on_c, 2, 64, 0
4, 18108, Note_on_c, 2, 66, 72
4, 18111, Note_on_c, 2, 66, 0
4, 18112, Note_on_c, 2, 64, 85
4, 18115, Note_on_c, 2, 64, 0
4, 18116, Note_on_c, 2, 66, 62
4, 18119, Note_on_c, 2, 66, 0
4, 18120, Note_on_c, 2, 64, 85
4, 18123, Note_on_c, 2, 64, 0
4, 18124, Note_on_c, 2, 66, 68
4, 18127, Note_on_c, 2, 66, 0
4, 18128, Note_on_c, 2, 64, 85
4, 18131, Note_on_c, 2, 64, 0
4, 18132, Note_on_c, 2, 66, 71
4, 18135, Note_on_c, 2, 66, 0
4, 18136, Note_on_c, 2, 64, 85
4, 18139, Note_on_c, 2, 64, 0
4, 18140, Note_on_c, 2, 66, 53
4, 18143, Note_on_c, 2, 66, 0
4, 18144, Note_on_c, 2, 64, 66
4, 18157, Note_on_c, 2, 64, 0
4, 18160, Note_on_c, 2, 61, 68
4, 18173, Note_on_c, 2, 61, 0
4, 18176, Note_on_c, 2, 62, 85
4, 18189, Note_on_c, 2, 62, 0
4, 18192, Note_on_c, 2, 64, 76
4, 18205, Note_on_c, 2, 64, 0
4, 18208, Note_on_c, 2, 61, 72
4, 18221, Note_on_c, 2, 61, 0
4, 18224, Note_on_c, 2, 62, 85
4, 18237, Note_on_c, 2, 62, 0
4, 18240, Note_on_c, 2, 64, 74
4, 18243, Note_on_c, 2, 64, 0
4, 18244, Note_on_c, 2, 66, 44
4, 18247, Note_on_c, 2, 66, 0
4, 18248, Note_on_c, 2, 64, 85
4, 18251, Note_on_c, 2, 64, 0
4, 18252, Note_on_c, 2, 66, 55
4, 18255, Note_on_c, 2, 66, 0
4, 18256, Note_on_c, 2, 64, 85
4, 18259, Note_on_c, 2, 64, 0
4, 18260, Note_on_c, 2, 66, 59
4, 18263, Note_on_c, 2, 66, 0
4, 18264, Note_on_c, 2, 64, 49
4, 18267, Note_on_c, 2, 64, 0
4, 18268, Note_on_c, 2, 66, 68
4, 18271, Note_on_c, 2, 66, 0
4, 18272, Note_on_c, 2, 64, 72
4, 18275, Note_on_c, 2, 64, 0
4, 18276, Note_on_c, 2, 66, 68
4, 18279, Note_on_c, 2, 66, 0
4, 18280, Note_on_c, 2, 64, 85
4, 18283, Note_on_c, 2, 64, 0
4, 18284, Note_on_c, 2, 66, 67
4, 18287, Note_on_c, 2, 66, 0
4, 18288, Note_on_c, 2, 64, 85
4, 18291, Note_on_c, 2, 64, 0
4, 18292, Note_on_c, 2, 66, 64
4, 18295, Note_on_c, 2, 66, 0
4, 18296, Note_on_c, 2, 64, 85
4, 18299, Note_on_c, 2, 64, 0
4, 18300, Note_on_c, 2, 66, 72
4, 18303, Note_on_c, 2, 66, 0
4, 18304, Note_on_c, 2, 64, 85
4, 18307, Note_on_c, 2, 64, 0
4, 18308, Note_on_c, 2, 66, 62
4, 18311, Note_on_c, 2, 66, 0
4, 18312, Note_on_c, 2, 64, 85
4, 18315, Note_on_c, 2, 64, 0
4, 18316, Note_on_c, 2, 66, 68
4, 18319, Note_on_c, 2, 66, 0
4, 18320, Note_on_c, 2, 64, 85
4, 18323, Note_on_c, 2, 64, 0
4, 18324, Note_on_c, 2, 66, 71
4, 18327, Note_on_c, 2, 66, 0
4, 18328, Note_on_c, 2, 64, 85
4, 18331, Note_on_c, 2, 64, 0
4, 18332, Note_on_c, 2, 66, 53
4, 18335, Note_on_c, 2, 66, 0
4, 18336, Note_on_c, 2, 64, 54
4, 18349, Note_on_c, 2, 64, 0
4, 18352, Note_on_c, 2, 67, 85
4, 18365, Note_on_c, 2, 67, 0
4, 18368, Note_on_c, 2, 66, 65
4, 18381, Note_on_c, 2, 66, 0
4, 18384, Note_on_c, 2, 64, 85
4, 18397, Note_on_c, 2, 64, 0
4, 18400, Note_on_c, 2, 62, 85
4, 18413, Note_on_c, 2, 62, 0
4, 18416, Note_on_c, 2, 61, 66
4, 18429, Note_on_c, 2, 61, 0
4, 18432, Note_on_c, 2, 62, 77
4, 18445, Note_on_c, 2, 62, 0
4, 18448, Note_on_c, 2, 66, 53
4, 18461, Note_on_c, 2, 66, 0
4, 18464, Note_on_c, 2, 64, 85
4, 18477, Note_on_c, 2, 64, 0
4, 18480, Note_on_c, 2, 62, 85
4, 18493, Note_on_c, 2, 62, 0
4, 18496, Note_on_c, 2, 61, 61
4, 18509, Note_on_c, 2, 61, 0
4, 18512, Note_on_c, 2, 59, 85
4, 18525, Note_on_c, 2, 59, 0
4, 18528, Note_on_c, 2, 61, 62
4, 18541, Note_on_c, 2, 61, 0
4, 18544, Note_on_c, 2, 64, 85
4, 18557, Note_on_c, 2, 64, 0
4, 18560, Note_on_c, 2, 62, 85
4, 18573, Note_on_c, 2, 62, 0
4, 18576, Note_on_c, 2, 61, 54
4, 18589, Note_on_c, 2, 61, 0
4, 18592, Note_on_c, 2, 59, 62
4, 18605, Note_on_c, 2, 59, 0
4, 18608, Note_on_c, 2, 57, 79
4, 18621, Note_on_c, 2, 57, 0
4, 18624, Note_on_c, 2, 59, 66
4, 18637, Note_on_c, 2, 59, 0
4, 18640, Note_on_c, 2, 62, 85
4, 18653, Note_on_c, 2, 62, 0
4, 18656, Note_on_c, 2, 61, 59
4, 18669, Note_on_c, 2, 61, 0
4, 18672, Note_on_c, 2, 59, 62
4, 18685, Note_on_c, 2, 59, 0
4, 18688, Note_on_c, 2, 57, 85
4, 18701, Note_on_c, 2, 57, 0
4, 18704, Note_on_c, 2, 56, 65
4, 18717, Note_on_c, 2, 56, 0
4, 18720, Note_on_c, 2, 57, 85
4, 18733, Note_on_c, 2, 57, 0
4, 18736, Note_on_c, 2, 61, 64
4, 18749, Note_on_c, 2, 61, 0
4, 18752, Note_on_c, 2, 59, 76
4, 18765, Note_on_c, 2, 59, 0
4, 18768, Note_on_c, 2, 57, 85
4, 18781, Note_on_c, 2, 57, 0
4, 18784, Note_on_c, 2, 59, 85
4, 18797, Note_on_c, 2, 59, 0
4, 18800, Note_on_c, 2, 57, 85
4, 18813, Note_on_c, 2, 57, 0
4, 18816, Note_on_c, 2, 56, 61
4, 18829, Note_on_c, 2, 56, 0
4, 18832, Note_on_c, 2, 57, 85
4, 18845, Note_on_c, 2, 57, 0
4, 18848, Note_on_c, 2, 56, 59
4, 18861, Note_on_c, 2, 56, 0
4, 18864, Note_on_c, 2, 54, 64
4, 18877, Note_on_c, 2, 54, 0
4, 18880, Note_on_c, 2, 53, 85
4, 18893, Note_on_c, 2, 53, 0
4, 18896, Note_on_c, 2, 54, 53
4, 18909, Note_on_c, 2, 54, 0
4, 18912, Note_on_c, 2, 49, 59
4, 18925, Note_on_c, 2, 49, 0
4, 18928, Note_on_c, 2, 53, 74
4, 18941, Note_on_c, 2, 53, 0
4, 18944, Note_on_c, 2, 51, 62
4, 18957, Note_on_c, 2, 51, 0
4, 18960, Note_on_c, 2, 49, 55
4, 18973, Note_on_c, 2, 49, 0
4, 18976, Note_on_c, 2, 51, 74
4, 18989, Note_on_c, 2, 51, 0
4, 18992, Note_on_c, 2, 53, 67
4, 19005, Note_on_c, 2, 53, 0
4, 19008, Note_on_c, 2, 54, 62
4, 19021, Note_on_c, 2, 54, 0
4, 19024, Note_on_c, 2, 57, 85
4, 19037, Note_on_c, 2, 57, 0
4, 19040, Note_on_c, 2, 56, 68
4, 19053, Note_on_c, 2, 56, 0
4, 19056, Note_on_c, 2, 54, 66
4, 19069, Note_on_c, 2, 54, 0
4, 19072, Note_on_c, 2, 53, 85
4, 19085, Note_on_c, 2, 53, 0
4, 19088, Note_on_c, 2, 54, 67
4, 19101, Note_on_c, 2, 54, 0
4, 19104, Note_on_c, 2, 56, 72
4, 19117, Note_on_c, 2, 56, 0
4, 19120, Note_on_c, 2, 59, 85
4, 19133, Note_on_c, 2, 59, 0
4, 19136, Note_on_c, 2, 57, 85
4, 19149, Note_on_c, 2, 57, 0
4, 19152, Note_on_c, 2, 56, 64
4, 19165, Note_on_c, 2, 56, 0
4, 19168, Note_on_c, 2, 54, 66
4, 19181, Note_on_c, 2, 54, 0
4, 19184, Note_on_c, 2, 56, 67
4, 19197, Note_on_c, 2, 56, 0
4, 19200, Note_on_c, 2, 57, 85
4, 19213, Note_on_c, 2, 57, 0
4, 19216, Note_on_c, 2, 61, 56
4, 19229, Note_on_c, 2, 61, 0
4, 19232, Note_on_c, 2, 59, 85
4, 19245, Note_on_c, 2, 59, 0
4, 19248, Note_on_c, 2, 58, 66
4, 19261, Note_on_c, 2, 58, 0
4, 19264, Note_on_c, 2, 56, 64
4, 19277, Note_on_c, 2, 56, 0
4, 19280, Note_on_c, 2, 54, 64
4, 19293, Note_on_c, 2, 54, 0
4, 19296, Note_on_c, 2, 59, 85
4, 19309, Note_on_c, 2, 59, 0
4, 19312, Note_on_c, 2, 62, 85
4, 19325, Note_on_c, 2, 62, 0
4, 19328, Note_on_c, 2, 61, 49
4, 19341, Note_on_c, 2, 61, 0
4, 19344, Note_on_c, 2, 59, 76
4, 19357, Note_on_c, 2, 59, 0
4, 19360, Note_on_c, 2, 57, 85
4, 19373, Note_on_c, 2, 57, 0
4, 19376, Note_on_c, 2, 56, 62
4, 19389, Note_on_c, 2, 56, 0
4, 19392, Note_on_c, 2, 61, 62
4, 19411, Note_on_c, 2, 61, 0
4, 19440, Note_on_c, 2, 49, 52
4, 19459, Note_on_c, 2, 49, 0
4, 19488, Note_on_c, 2, 54, 66
4, 19507, Note_on_c, 2, 54, 0
4, 19536, Note_on_c, 2, 54, 65
4, 19555, Note_on_c, 2, 54, 0
4, 19584, Note_on_c, 2, 54, 59
4, 19603, Note_on_c, 2, 54, 0
4, 19632, Note_on_c, 2, 42, 65
4, 19651, Note_on_c, 2, 42, 0
4, 19680, Note_on_c, 2, 43, 85
4, 19699, Note_on_c, 2, 43, 0
4, 19776, Note_on_c, 2, 45, 85
4, 19795, Note_on_c, 2, 45, 0
4, 19824, Note_on_c, 2, 47, 85
4, 19843, Note_on_c, 2, 47, 0
4, 19872, Note_on_c, 2, 40, 85
4, 19885, Note_on_c, 2, 40, 0
4, 19968, Note_on_c, 2, 45, 85
4, 19987, Note_on_c, 2, 45, 0
4, 20016, Note_on_c, 2, 50, 72
4, 20035, Note_on_c, 2, 50, 0
4, 20064, Note_on_c, 2, 47, 78
4, 20083, Note_on_c, 2, 47, 0
4, 20112, Note_on_c, 2, 43, 77
4, 20131, Note_on_c, 2, 43, 0
4, 20160, Note_on_c, 2, 40, 69
4, 20160, Note_on_c, 2, 40, 78
4, 20173, Note_on_c, 2, 40, 0
4, 20176, Note_on_c, 2, 42, 70
4, 20189, Note_on_c, 2, 42, 0
4, 20192, Note_on_c, 2, 43, 85
4, 20205, Note_on_c, 2, 43, 0
4, 20208, Note_on_c, 2, 45, 85
4, 20221, Note_on_c, 2, 45, 0
4, 20224, Note_on_c, 2, 47, 85
4, 20237, Note_on_c, 2, 47, 0
4, 20240, Note_on_c, 2, 48, 85
4, 20253, Note_on_c, 2, 48, 0
4, 20256, Note_on_c, 2, 38, 85
4, 20275, Note_on_c, 2, 38, 0
4, 20304, Note_on_c, 2, 43, 85
4, 20323, Note_on_c, 2, 43, 0
4, 20352, Note_on_c, 2, 50, 85
4, 20371, Note_on_c, 2, 50, 0
4, 20400, Note_on_c, 2, 48, 85
4, 20419, Note_on_c, 2, 48, 0
4, 20448, Note_on_c, 2, 47, 85
4, 20544, Note_on_c, 2, 47, 0
4, 20544, Note_on_c, 2, 47, 85
4, 20573, Note_on_c, 2, 47, 0
4, 20580, Note_on_c, 2, 54, 66
4, 20590, Note_on_c, 2, 54, 0
4, 20592, Note_on_c, 2, 59, 67
4, 20621, Note_on_c, 2, 59, 0
4, 20628, Note_on_c, 2, 54, 59
4, 20638, Note_on_c, 2, 54, 0
4, 20640, Note_on_c, 2, 55, 85
4, 20669, Note_on_c, 2, 55, 0
4, 20676, Note_on_c, 2, 54, 62
4, 20688, Note_on_c, 2, 54, 0
4, 20688, Note_on_c, 2, 55, 85
4, 20717, Note_on_c, 2, 55, 0
4, 20724, Note_on_c, 2, 52, 85
4, 20734, Note_on_c, 2, 52, 0
4, 20736, Note_on_c, 2, 42, 71
4, 20736, Note_on_c, 2, 54, 67
4, 20976, Note_on_c, 2, 59, 81
4, 20989, Note_on_c, 2, 59, 0
4, 20992, Note_on_c, 2, 58, 52
4, 21005, Note_on_c, 2, 58, 0
4, 21008, Note_on_c, 2, 59, 85
4, 21014, Note_on_c, 2, 54, 0
4, 21015, Note_on_c, 2, 42, 0
4, 21021, Note_on_c, 2, 59, 0
4, 21024, Note_on_c, 2, 42, 55
4, 21024, Note_on_c, 2, 54, 56
4, 21178, Note_on_c, 2, 42, 0
4, 21178, Note_on_c, 2, 54, 0
4, 21216, Note_on_c, 2, 42, 59
4, 21216, Note_on_c, 2, 54, 52
4, 21245, Note_on_c, 2, 42, 0
4, 21245, Note_on_c, 2, 54, 0
4, 21252, Note_on_c, 2, 47, 85
4, 21262, Note_on_c, 2, 47, 0
4, 21264, Note_on_c, 2, 54, 54
4, 21293, Note_on_c, 2, 54, 0
4, 21300, Note_on_c, 2, 49, 66
4, 21310, Note_on_c, 2, 49, 0
4, 21312, Note_on_c, 2, 50, 72
4, 21325, Note_on_c, 2, 50, 0
4, 21328, Note_on_c, 2, 49, 59
4, 21341, Note_on_c, 2, 49, 0
4, 21344, Note_on_c, 2, 47, 85
4, 21357, Note_on_c, 2, 47, 0
4, 21360, Note_on_c, 2, 46, 61
4, 21373, Note_on_c, 2, 46, 0
4, 21376, Note_on_c, 2, 47, 85
4, 21389, Note_on_c, 2, 47, 0
4, 21392, Note_on_c, 2, 49, 59
4, 21405, Note_on_c, 2, 49, 0
4, 21408, Note_on_c, 2, 42, 46
4, 21466, Note_on_c, 2, 42, 0
4, 21472, Note_on_c, 2, 54, 62
4, 21485, Note_on_c, 2, 54, 0
4, 21488, Note_on_c, 2, 52, 85
4, 21501, Note_on_c, 2, 52, 0
4, 21504, Note_on_c, 2, 50, 85
4, 21517, Note_on_c, 2, 50, 0
4, 21520, Note_on_c, 2, 47, 54
4, 21533, Note_on_c, 2, 47, 0
4, 21536, Note_on_c, 2, 49, 52
4, 21549, Note_on_c, 2, 49, 0
4, 21552, Note_on_c, 2, 50, 85
4, 21565, Note_on_c, 2, 50, 0
4, 21568, Note_on_c, 2, 52, 85
4, 21581, Note_on_c, 2, 52, 0
4, 21584, Note_on_c, 2, 54, 62
4, 21597, Note_on_c, 2, 54, 0
4, 21600, Note_on_c, 2, 52, 85
4, 21613, Note_on_c, 2, 52, 0
4, 21616, Note_on_c, 2, 49, 52
4, 21629, Note_on_c, 2, 49, 0
4, 21632, Note_on_c, 2, 50, 85
4, 21645, Note_on_c, 2, 50, 0
4, 21648, Note_on_c, 2, 52, 85
4, 21661, Note_on_c, 2, 52, 0
4, 21664, Note_on_c, 2, 54, 59
4, 21677, Note_on_c, 2, 54, 0
4, 21680, Note_on_c, 2, 55, 85
4, 21693, Note_on_c, 2, 55, 0
4, 21696, Note_on_c, 2, 54, 69
4, 21709, Note_on_c, 2, 54, 0
4, 21712, Note_on_c, 2, 50, 85
4, 21725, Note_on_c, 2, 50, 0
4, 21728, Note_on_c, 2, 52, 85
4, 21741, Note_on_c, 2, 52, 0
4, 21744, Note_on_c, 2, 54, 65
4, 21757, Note_on_c, 2, 54, 0
4, 21760, Note_on_c, 2, 55, 85
4, 21773, Note_on_c, 2, 55, 0
4, 21776, Note_on_c, 2, 57, 85
4, 21789, Note_on_c, 2, 57, 0
4, 21792, Note_on_c, 2, 55, 85
4, 21805, Note_on_c, 2, 55, 0
4, 21808, Note_on_c, 2, 52, 85
4, 21821, Note_on_c, 2, 52, 0
4, 21824, Note_on_c, 2, 54, 49
4, 21837, Note_on_c, 2, 54, 0
4, 21840, Note_on_c, 2, 56, 72
4, 21853, Note_on_c, 2, 56, 0
4, 21856, Note_on_c, 2, 57, 85
4, 21869, Note_on_c, 2, 57, 0
4, 21872, Note_on_c, 2, 59, 85
4, 21885, Note_on_c, 2, 59, 0
4, 21888, Note_on_c, 2, 57, 85
4, 21901, Note_on_c, 2, 57, 0
4, 21904, Note_on_c, 2, 54, 70
4, 21917, Note_on_c, 2, 54, 0
4, 21920, Note_on_c, 2, 56, 70
4, 21933, Note_on_c, 2, 56, 0
4, 21936, Note_on_c, 2, 58, 66
4, 21949, Note_on_c, 2, 58, 0
4, 21952, Note_on_c, 2, 59, 85
4, 21965, Note_on_c, 2, 59, 0
4, 21968, Note_on_c, 2, 61, 47
4, 21981, Note_on_c, 2, 61, 0
4, 21984, Note_on_c, 2, 59, 85
4, 22013, Note_on_c, 2, 59, 0
4, 22020, Note_on_c, 2, 55, 85
4, 22030, Note_on_c, 2, 55, 0
4, 22032, Note_on_c, 2, 50, 70
4, 22061, Note_on_c, 2, 50, 0
4, 22068, Note_on_c, 2, 52, 85
4, 22078, Note_on_c, 2, 52, 0
4, 22080, Note_on_c, 2, 54, 65
4, 22109, Note_on_c, 2, 54, 0
4, 22116, Note_on_c, 2, 52, 85
4, 22126, Note_on_c, 2, 52, 0
4, 22128, Note_on_c, 2, 54, 61
4, 22157, Note_on_c, 2, 54, 0
4, 22164, Note_on_c, 2, 42, 61
4, 22174, Note_on_c, 2, 42, 0
4, 22176, Note_on_c, 2, 47, 85
4, 22215, Note_on_c, 2, 47, 0
4, 22272, Control_c, 2, 7, 83
4, 22272, Pitch_bend_c, 2, 8192
4, 22272, Control_c, 2, 1, 0
4, 22272, Program_c, 2, 16
4, 22272, Control_c, 2, 64, 0
4, 22272, Control_c, 2, 10, 64
4, 22272, Note_on_c, 2, 50, 98
4, 22272, Note_on_c, 2, 54, 98
4, 22272, Note_on_c, 2, 57, 98
4, 22320, Note_on_c, 2, 50, 0
4, 22320, Note_on_c, 2, 54, 0
4, 22320, Note_on_c, 2, 57, 0
4, 22320, Control_c, 2, 7, 83
4, 22368, Control_c, 2, 10, 18
4, 23076, Note_on_c, 2, 57, 95
4, 23088, Note_on_c, 2, 57, 0
4, 23088, Note_on_c, 2, 62, 95
4, 23124, Note_on_c, 2, 62, 0
4, 23124, Note_on_c, 2, 57, 95
4, 23136, Note_on_c, 2, 57, 0
4, 23136, Note_on_c, 2, 59, 95
4, 23152, Note_on_c, 2, 59, 0
4, 23152, Note_on_c, 2, 57, 95
4, 23168, Note_on_c, 2, 57, 0
4, 23168, Note_on_c, 2, 55, 95
4, 23184, Note_on_c, 2, 55, 0
4, 23184, Note_on_c, 2, 54, 95
4, 23200, Note_on_c, 2, 54, 0
4, 23200, Note_on_c, 2, 55, 95
4, 23216, Note_on_c, 2, 55, 0
4, 23216, Note_on_c, 2, 57, 95
4, 23232, Note_on_c, 2, 57, 0
4, 23232, Note_on_c, 2, 50, 95
4, 23256, Note_on_c, 2, 50, 0
4, 23280, Note_on_c, 2, 49, 95
4, 23304, Note_on_c, 2, 49, 0
4, 23328, Note_on_c, 2, 50, 95
4, 23352, Note_on_c, 2, 50, 0
4, 23376, Note_on_c, 2, 52, 95
4, 23400, Note_on_c, 2, 52, 0
4, 23424, Note_on_c, 2, 54, 95
4, 23448, Note_on_c, 2, 54, 0
4, 23472, Note_on_c, 2, 49, 95
4, 23496, Note_on_c, 2, 49, 0
4, 23520, Note_on_c, 2, 50, 95
4, 23544, Note_on_c, 2, 50, 0
4, 23568, Note_on_c, 2, 52, 95
4, 23592, Note_on_c, 2, 52, 0
4, 23616, Note_on_c, 2, 54, 95
4, 23640, Note_on_c, 2, 54, 0
4, 23664, Note_on_c, 2, 52, 95
4, 23688, Note_on_c, 2, 52, 0
4, 23712, Note_on_c, 2, 54, 95
4, 23736, Note_on_c, 2, 54, 0
4, 23760, Note_on_c, 2, 56, 95
4, 23784, Note_on_c, 2, 56, 0
4, 23808, Note_on_c, 2, 57, 95
4, 23824, Note_on_c, 2, 57, 0
4, 23824, Note_on_c, 2, 61, 95
4, 23840, Note_on_c, 2, 61, 0
4, 23840, Note_on_c, 2, 59, 95
4, 23856, Note_on_c, 2, 59, 0
4, 23856, Note_on_c, 2, 57, 95
4, 23872, Note_on_c, 2, 57, 0
4, 23872, Note_on_c, 2, 59, 95
4, 23888, Note_on_c, 2, 59, 0
4, 23888, Note_on_c, 2, 61, 95
4, 23904, Note_on_c, 2, 61, 0
4, 23904, Note_on_c, 2, 62, 95
4, 23928, Note_on_c, 2, 62, 0
4, 23952, Note_on_c, 2, 64, 95
4, 23976, Note_on_c, 2, 64, 0
4, 24000, Note_on_c, 2, 66, 95
4, 24006, Note_on_c, 2, 66, 0
4, 24006, Note_on_c, 2, 68, 95
4, 24012, Note_on_c, 2, 68, 0
4, 24012, Note_on_c, 2, 66, 95
4, 24018, Note_on_c, 2, 66, 0
4, 24018, Note_on_c, 2, 68, 95
4, 24024, Note_on_c, 2, 68, 0
4, 24024, Note_on_c, 2, 66, 95
4, 24030, Note_on_c, 2, 66, 0
4, 24030, Note_on_c, 2, 68, 95
4, 24036, Note_on_c, 2, 68, 0
4, 24036, Note_on_c, 2, 66, 95
4, 24042, Note_on_c, 2, 66, 0
4, 24042, Note_on_c, 2, 68, 95
4, 24048, Note_on_c, 2, 68, 0
4, 24048, Note_on_c, 2, 66, 95
4, 24054, Note_on_c, 2, 66, 0
4, 24054, Note_on_c, 2, 68, 95
4, 24060, Note_on_c, 2, 68, 0
4, 24060, Note_on_c, 2, 66, 95
4, 24066, Note_on_c, 2, 66, 0
4, 24066, Note_on_c, 2, 68, 95
4, 24072, Note_on_c, 2, 68, 0
4, 24072, Note_on_c, 2, 66, 95
4, 24078, Note_on_c, 2, 66, 0
4, 24078, Note_on_c, 2, 68, 95
4, 24084, Note_on_c, 2, 68, 0
4, 24084, Note_on_c, 2, 66, 95
4, 24090, Note_on_c, 2, 66, 0
4, 24090, Note_on_c, 2, 68, 95
4, 24096, Note_on_c, 2, 68, 0
4, 24096, Note_on_c, 2, 66, 95
4, 24112, Note_on_c, 2, 66, 0
4, 24112, Note_on_c, 2, 69, 95
4, 24128, Note_on_c, 2, 69, 0
4, 24128, Note_on_c, 2, 68, 95
4, 24144, Note_on_c, 2, 68, 0
4, 24144, Note_on_c, 2, 66, 95
4, 24160, Note_on_c, 2, 66, 0
4, 24160, Note_on_c, 2, 64, 95
4, 24176, Note_on_c, 2, 64, 0
4, 24176, Note_on_c, 2, 62, 95
4, 24192, Note_on_c, 2, 62, 0
4, 24192, Note_on_c, 2, 61, 95
4, 24198, Note_on_c, 2, 61, 0
4, 24198, Note_on_c, 2, 62, 95
4, 24204, Note_on_c, 2, 62, 0
4, 24204, Note_on_c, 2, 61, 95
4, 24210, Note_on_c, 2, 61, 0
4, 24210, Note_on_c, 2, 62, 95
4, 24216, Note_on_c, 2, 62, 0
4, 24216, Note_on_c, 2, 61, 95
4, 24222, Note_on_c, 2, 61, 0
4, 24222, Note_on_c, 2, 62, 95
4, 24228, Note_on_c, 2, 62, 0
4, 24228, Note_on_c, 2, 61, 95
4, 24234, Note_on_c, 2, 61, 0
4, 24234, Note_on_c, 2, 62, 95
4, 24240, Note_on_c, 2, 62, 0
4, 24240, Note_on_c, 2, 61, 95
4, 24246, Note_on_c, 2, 61, 0
4, 24246, Note_on_c, 2, 62, 95
4, 24252, Note_on_c, 2, 62, 0
4, 24252, Note_on_c, 2, 61, 95
4, 24258, Note_on_c, 2, 61, 0
4, 24258, Note_on_c, 2, 62, 95
4, 24264, Note_on_c, 2, 62, 0
4, 24264, Note_on_c, 2, 61, 95
4, 24270, Note_on_c, 2, 61, 0
4, 24270, Note_on_c, 2, 62, 95
4, 24276, Note_on_c, 2, 62, 0
4, 24276, Note_on_c, 2, 61, 95
4, 24282, Note_on_c, 2, 61, 0
4, 24282, Note_on_c, 2, 62, 95
4, 24288, Note_on_c, 2, 62, 0
4, 24288, Note_on_c, 2, 61, 95
4, 24304, Note_on_c, 2, 61, 0
4, 24304, Note_on_c, 2, 57, 95
4, 24320, Note_on_c, 2, 57, 0
4, 24320, Note_on_c, 2, 59, 95
4, 24336, Note_on_c, 2, 59, 0
4, 24336, Note_on_c, 2, 61, 95
4, 24352, Note_on_c, 2, 61, 0
4, 24352, Note_on_c, 2, 59, 95
4, 24368, Note_on_c, 2, 59, 0
4, 24368, Note_on_c, 2, 61, 95
4, 24384, Note_on_c, 2, 61, 0
4, 24384, Note_on_c, 2, 63, 95
4, 24400, Note_on_c, 2, 63, 0
4, 24400, Note_on_c, 2, 66, 95
4, 24416, Note_on_c, 2, 66, 0
4, 24416, Note_on_c, 2, 64, 95
4, 24432, Note_on_c, 2, 64, 0
4, 24432, Note_on_c, 2, 63, 95
4, 24448, Note_on_c, 2, 63, 0
4, 24448, Note_on_c, 2, 66, 95
4, 24464, Note_on_c, 2, 66, 0
4, 24464, Note_on_c, 2, 64, 95
4, 24480, Note_on_c, 2, 64, 0
4, 24480, Note_on_c, 2, 63, 95
4, 24496, Note_on_c, 2, 63, 0
4, 24496, Note_on_c, 2, 59, 95
4, 24512, Note_on_c, 2, 59, 0
4, 24512, Note_on_c, 2, 61, 95
4, 24528, Note_on_c, 2, 61, 0
4, 24528, Note_on_c, 2, 63, 95
4, 24544, Note_on_c, 2, 63, 0
4, 24544, Note_on_c, 2, 61, 95
4, 24560, Note_on_c, 2, 61, 0
4, 24560, Note_on_c, 2, 63, 95
4, 24576, Note_on_c, 2, 63, 0
4, 24576, Note_on_c, 2, 64, 95
4, 24584, Note_on_c, 2, 64, 0
4, 24584, Note_on_c, 2, 62, 95
4, 24592, Note_on_c, 2, 62, 0
4, 24592, Note_on_c, 2, 64, 95
4, 24600, Note_on_c, 2, 64, 0
4, 24600, Note_on_c, 2, 66, 95
4, 24608, Note_on_c, 2, 66, 0
4, 24608, Note_on_c, 2, 64, 95
4, 24616, Note_on_c, 2, 64, 0
4, 24616, Note_on_c, 2, 62, 95
4, 24624, Note_on_c, 2, 62, 0
4, 24624, Note_on_c, 2, 61, 95
4, 24632, Note_on_c, 2, 61, 0
4, 24632, Note_on_c, 2, 62, 95
4, 24640, Note_on_c, 2, 62, 0
4, 24640, Note_on_c, 2, 61, 95
4, 24648, Note_on_c, 2, 61, 0
4, 24648, Note_on_c, 2, 59, 95
4, 24656, Note_on_c, 2, 59, 0
4, 24656, Note_on_c, 2, 57, 95
4, 24664, Note_on_c, 2, 57, 0
4, 24664, Note_on_c, 2, 56, 95
4, 24672, Note_on_c, 2, 56, 0
4, 24672, Note_on_c, 2, 54, 95
4, 24680, Note_on_c, 2, 54, 0
4, 24680, Note_on_c, 2, 52, 95
4, 24688, Note_on_c, 2, 52, 0
4, 24688, Note_on_c, 2, 54, 95
4, 24696, Note_on_c, 2, 54, 0
4, 24696, Note_on_c, 2, 56, 95
4, 24704, Note_on_c, 2, 56, 0
4, 24704, Note_on_c, 2, 57, 95
4, 24712, Note_on_c, 2, 57, 0
4, 24712, Note_on_c, 2, 54, 95
4, 24720, Note_on_c, 2, 54, 0
4, 24720, Note_on_c, 2, 59, 95
4, 24728, Note_on_c, 2, 59, 0
4, 24728, Note_on_c, 2, 61, 95
4, 24736, Note_on_c, 2, 61, 0
4, 24736, Note_on_c, 2, 59, 95
4, 24744, Note_on_c, 2, 59, 0
4, 24744, Note_on_c, 2, 57, 95
4, 24752, Note_on_c, 2, 57, 0
4, 24752, Note_on_c, 2, 56, 95
4, 24760, Note_on_c, 2, 56, 0
4, 24760, Note_on_c, 2, 54, 95
4, 24768, Note_on_c, 2, 54, 0
4, 24768, Note_on_c, 2, 52, 95
4, 24776, Note_on_c, 2, 52, 0
4, 24776, Note_on_c, 2, 50, 95
4, 24784, Note_on_c, 2, 50, 0
4, 24784, Note_on_c, 2, 52, 95
4, 24792, Note_on_c, 2, 52, 0
4, 24792, Note_on_c, 2, 54, 95
4, 24800, Note_on_c, 2, 54, 0
4, 24800, Note_on_c, 2, 56, 95
4, 24808, Note_on_c, 2, 56, 0
4, 24808, Note_on_c, 2, 52, 95
4, 24816, Note_on_c, 2, 52, 0
4, 24816, Note_on_c, 2, 54, 95
4, 24824, Note_on_c, 2, 54, 0
4, 24824, Note_on_c, 2, 57, 95
4, 24832, Note_on_c, 2, 57, 0
4, 24832, Note_on_c, 2, 56, 95
4, 24840, Note_on_c, 2, 56, 0
4, 24840, Note_on_c, 2, 54, 95
4, 24848, Note_on_c, 2, 54, 0
4, 24848, Note_on_c, 2, 52, 95
4, 24856, Note_on_c, 2, 52, 0
4, 24856, Note_on_c, 2, 50, 95
4, 24864, Note_on_c, 2, 50, 0
4, 24864, Note_on_c, 2, 49, 95
4, 24880, Note_on_c, 2, 49, 0
4, 24880, Note_on_c, 2, 47, 95
4, 24896, Note_on_c, 2, 47, 0
4, 24896, Note_on_c, 2, 45, 95
4, 24912, Note_on_c, 2, 45, 0
4, 24912, Note_on_c, 2, 52, 95
4, 24948, Note_on_c, 2, 52, 0
4, 24948, Note_on_c, 2, 40, 95
4, 24960, Note_on_c, 2, 40, 0
4, 24960, Note_on_c, 2, 45, 95
4, 24984, Note_on_c, 2, 45, 0
4, 25008, Note_on_c, 2, 42, 95
4, 25032, Note_on_c, 2, 42, 0
4, 25056, Note_on_c, 2, 43, 95
4, 25080, Note_on_c, 2, 43, 0
4, 25104, Note_on_c, 2, 45, 95
4, 25128, Note_on_c, 2, 45, 0
4, 25152, Note_on_c, 2, 47, 95
4, 25176, Note_on_c, 2, 47, 0
4, 25200, Note_on_c, 2, 49, 95
4, 25224, Note_on_c, 2, 49, 0
4, 25248, Note_on_c, 2, 50, 95
4, 25272, Note_on_c, 2, 50, 0
4, 25296, Note_on_c, 2, 52, 95
4, 25320, Note_on_c, 2, 52, 0
4, 25344, Note_on_c, 2, 54, 95
4, 25368, Note_on_c, 2, 54, 0
4, 25392, Note_on_c, 2, 54, 95
4, 25416, Note_on_c, 2, 54, 0
4, 25440, Note_on_c, 2, 55, 95
4, 25464, Note_on_c, 2, 55, 0
4, 25488, Note_on_c, 2, 57, 95
4, 25512, Note_on_c, 2, 57, 0
4, 25536, Note_on_c, 2, 59, 95
4, 25560, Note_on_c, 2, 59, 0
4, 25584, Note_on_c, 2, 57, 95
4, 25608, Note_on_c, 2, 57, 0
4, 25632, Note_on_c, 2, 59, 95
4, 25656, Note_on_c, 2, 59, 0
4, 25680, Note_on_c, 2, 61, 95
4, 25704, Note_on_c, 2, 61, 0
4, 25728, Note_on_c, 2, 62, 95
4, 25752, Note_on_c, 2, 62, 0
4, 25956, Note_on_c, 2, 57, 95
4, 25968, Note_on_c, 2, 57, 0
4, 25968, Note_on_c, 2, 62, 95
4, 26004, Note_on_c, 2, 62, 0
4, 26004, Note_on_c, 2, 57, 95
4, 26016, Note_on_c, 2, 57, 0
4, 26016, Note_on_c, 2, 59, 95
4, 26032, Note_on_c, 2, 59, 0
4, 26032, Note_on_c, 2, 57, 95
4, 26048, Note_on_c, 2, 57, 0
4, 26048, Note_on_c, 2, 55, 95
4, 26064, Note_on_c, 2, 55, 0
4, 26064, Note_on_c, 2, 54, 95
4, 26080, Note_on_c, 2, 54, 0
4, 26080, Note_on_c, 2, 55, 95
4, 26096, Note_on_c, 2, 55, 0
4, 26096, Note_on_c, 2, 57, 95
4, 26112, Note_on_c, 2, 57, 0
4, 26112, Note_on_c, 2, 50, 95
4, 26136, Note_on_c, 2, 50, 0
4, 26160, Note_on_c, 2, 52, 95
4, 26184, Note_on_c, 2, 52, 0
4, 26208, Note_on_c, 2, 54, 95
4, 26232, Note_on_c, 2, 54, 0
4, 26256, Note_on_c, 2, 42, 95
4, 26280, Note_on_c, 2, 42, 0
4, 26304, Note_on_c, 2, 43, 95
4, 26328, Note_on_c, 2, 43, 0
4, 26352, Note_on_c, 2, 45, 95
4, 26376, Note_on_c, 2, 45, 0
4, 26400, Note_on_c, 2, 47, 95
4, 26424, Note_on_c, 2, 47, 0
4, 26448, Note_on_c, 2, 49, 95
4, 26472, Note_on_c, 2, 49, 0
4, 26496, Note_on_c, 2, 50, 95
4, 26520, Note_on_c, 2, 50, 0
4, 26544, Note_on_c, 2, 52, 95
4, 26568, Note_on_c, 2, 52, 0
4, 26592, Note_on_c, 2, 54, 95
4, 26616, Note_on_c, 2, 54, 0
4, 26640, Note_on_c, 2, 55, 95
4, 26664, Note_on_c, 2, 55, 0
4, 26688, Note_on_c, 2, 57, 95
4, 26712, Note_on_c, 2, 57, 0
4, 26736, Note_on_c, 2, 59, 95
4, 26760, Note_on_c, 2, 59, 0
4, 26784, Note_on_c, 2, 61, 95
4, 26820, Note_on_c, 2, 61, 0
4, 26820, Note_on_c, 2, 57, 95
4, 26832, Note_on_c, 2, 57, 0
4, 26832, Note_on_c, 2, 62, 95
4, 26868, Note_on_c, 2, 62, 0
4, 26868, Note_on_c, 2, 57, 95
4, 26880, Note_on_c, 2, 57, 0
4, 26880, Note_on_c, 2, 59, 95
4, 26896, Note_on_c, 2, 59, 0
4, 26896, Note_on_c, 2, 57, 95
4, 26912, Note_on_c, 2, 57, 0
4, 26912, Note_on_c, 2, 55, 95
4, 26928, Note_on_c, 2, 55, 0
4, 26928, Note_on_c, 2, 54, 95
4, 26944, Note_on_c, 2, 54, 0
4, 26944, Note_on_c, 2, 55, 95
4, 26960, Note_on_c, 2, 55, 0
4, 26960, Note_on_c, 2, 57, 95
4, 26976, Note_on_c, 2, 57, 0
4, 26976, Note_on_c, 2, 50, 95
4, 26992, Note_on_c, 2, 50, 0
4, 26992, Note_on_c, 2, 54, 95
4, 27008, Note_on_c, 2, 54, 0
4, 27008, Note_on_c, 2, 52, 95
4, 27024, Note_on_c, 2, 52, 0
4, 27024, Note_on_c, 2, 50, 95
4, 27040, Note_on_c, 2, 50, 0
4, 27040, Note_on_c, 2, 52, 95
4, 27056, Note_on_c, 2, 52, 0
4, 27056, Note_on_c, 2, 54, 95
4, 27072, Note_on_c, 2, 54, 0
4, 27072, Note_on_c, 2, 55, 95
4, 27096, Note_on_c, 2, 55, 0
4, 27120, Note_on_c, 2, 57, 95
4, 27144, Note_on_c, 2, 57, 0
4, 27168, Note_on_c, 2, 59, 72
4, 27172, Note_on_c, 2, 59, 0
4, 27172, Note_on_c, 2, 61, 70
4, 27176, Note_on_c, 2, 61, 0
4, 27176, Note_on_c, 2, 59, 81
4, 27180, Note_on_c, 2, 59, 0
4, 27180, Note_on_c, 2, 61, 72
4, 27184, Note_on_c, 2, 61, 0
4, 27184, Note_on_c, 2, 59, 85
4, 27188, Note_on_c, 2, 59, 0
4, 27188, Note_on_c, 2, 61, 84
4, 27192, Note_on_c, 2, 61, 0
4, 27192, Note_on_c, 2, 59, 89
4, 27196, Note_on_c, 2, 59, 0
4, 27196, Note_on_c, 2, 61, 97
4, 27200, Note_on_c, 2, 61, 0
4, 27200, Note_on_c, 2, 59, 91
4, 27204, Note_on_c, 2, 59, 0
4, 27204, Note_on_c, 2, 61, 95
4, 27208, Note_on_c, 2, 61, 0
4, 27208, Note_on_c, 2, 59, 85
4, 27212, Note_on_c, 2, 59, 0
4, 27212, Note_on_c, 2, 61, 76
4, 27216, Note_on_c, 2, 61, 0
4, 27216, Note_on_c, 2, 59, 85
4, 27220, Note_on_c, 2, 59, 0
4, 27220, Note_on_c, 2, 61, 66
4, 27224, Note_on_c, 2, 61, 0
4, 27224, Note_on_c, 2, 59, 85
4, 27228, Note_on_c, 2, 59, 0
4, 27228, Note_on_c, 2, 61, 104
4, 27232, Note_on_c, 2, 61, 0
4, 27232, Note_on_c, 2, 59, 91
4, 27236, Note_on_c, 2, 59, 0
4, 27236, Note_on_c, 2, 61, 104
4, 27240, Note_on_c, 2, 61, 0
4, 27240, Note_on_c, 2, 59, 91
4, 27244, Note_on_c, 2, 59, 0
4, 27244, Note_on_c, 2, 61, 88
4, 27248, Note_on_c, 2, 61, 0
4, 27248, Note_on_c, 2, 59, 85
4, 27252, Note_on_c, 2, 59, 0
4, 27252, Note_on_c, 2, 61, 74
4, 27256, Note_on_c, 2, 61, 0
4, 27256, Note_on_c, 2, 59, 85
4, 27260, Note_on_c, 2, 59, 0
4, 27260, Note_on_c, 2, 61, 88
4, 27264, Note_on_c, 2, 61, 0
4, 27264, Note_on_c, 2, 59, 76
4, 27280, Note_on_c, 2, 59, 0
4, 27280, Note_on_c, 2, 62, 76
4, 27296, Note_on_c, 2, 62, 0
4, 27296, Note_on_c, 2, 61, 76
4, 27312, Note_on_c, 2, 61, 0
4, 27312, Note_on_c, 2, 59, 76
4, 27328, Note_on_c, 2, 59, 0
4, 27328, Note_on_c, 2, 57, 76
4, 27344, Note_on_c, 2, 57, 0
4, 27344, Note_on_c, 2, 55, 76
4, 27360, Note_on_c, 2, 55, 0
4, 27360, Note_on_c, 2, 54, 52
4, 27364, Note_on_c, 2, 54, 0
4, 27364, Note_on_c, 2, 55, 85
4, 27368, Note_on_c, 2, 55, 0
4, 27368, Note_on_c, 2, 54, 46
4, 27372, Note_on_c, 2, 54, 0
4, 27372, Note_on_c, 2, 55, 85
4, 27376, Note_on_c, 2, 55, 0
4, 27376, Note_on_c, 2, 54, 60
4, 27380, Note_on_c, 2, 54, 0
4, 27380, Note_on_c, 2, 55, 85
4, 27384, Note_on_c, 2, 55, 0
4, 27384, Note_on_c, 2, 54, 62
4, 27388, Note_on_c, 2, 54, 0
4, 27388, Note_on_c, 2, 55, 85
4, 27392, Note_on_c, 2, 55, 0
4, 27392, Note_on_c, 2, 54, 72
4, 27396, Note_on_c, 2, 54, 0
4, 27396, Note_on_c, 2, 55, 85
4, 27400, Note_on_c, 2, 55, 0
4, 27400, Note_on_c, 2, 54, 82
4, 27404, Note_on_c, 2, 54, 0
4, 27404, Note_on_c, 2, 55, 85
4, 27408, Note_on_c, 2, 55, 0
4, 27408, Note_on_c, 2, 54, 78
4, 27412, Note_on_c, 2, 54, 0
4, 27412, Note_on_c, 2, 55, 74
4, 27416, Note_on_c, 2, 55, 0
4, 27416, Note_on_c, 2, 54, 54
4, 27420, Note_on_c, 2, 54, 0
4, 27420, Note_on_c, 2, 55, 81
4, 27424, Note_on_c, 2, 55, 0
4, 27424, Note_on_c, 2, 54, 67
4, 27428, Note_on_c, 2, 54, 0
4, 27428, Note_on_c, 2, 55, 85
4, 27432, Note_on_c, 2, 55, 0
4, 27432, Note_on_c, 2, 54, 74
4, 27436, Note_on_c, 2, 54, 0
4, 27436, Note_on_c, 2, 55, 85
4, 27440, Note_on_c, 2, 55, 0
4, 27440, Note_on_c, 2, 54, 82
4, 27444, Note_on_c, 2, 54, 0
4, 27444, Note_on_c, 2, 55, 85
4, 27448, Note_on_c, 2, 55, 0
4, 27448, Note_on_c, 2, 54, 67
4, 27452, Note_on_c, 2, 54, 0
4, 27452, Note_on_c, 2, 55, 85
4, 27456, Note_on_c, 2, 55, 0
4, 27456, Note_on_c, 2, 54, 76
4, 27472, Note_on_c, 2, 54, 0
4, 27472, Note_on_c, 2, 50, 71
4, 27488, Note_on_c, 2, 50, 0
4, 27488, Note_on_c, 2, 52, 85
4, 27504, Note_on_c, 2, 52, 0
4, 27504, Note_on_c, 2, 54, 59
4, 27520, Note_on_c, 2, 54, 0
4, 27520, Note_on_c, 2, 52, 69
4, 27536, Note_on_c, 2, 52, 0
4, 27536, Note_on_c, 2, 54, 60
4, 27552, Note_on_c, 2, 54, 0
4, 27552, Note_on_c, 2, 56, 64
4, 27568, Note_on_c, 2, 56, 0
4, 27568, Note_on_c, 2, 59, 85
4, 27584, Note_on_c, 2, 59, 0
4, 27584, Note_on_c, 2, 57, 85
4, 27600, Note_on_c, 2, 57, 0
4, 27600, Note_on_c, 2, 56, 59
4, 27616, Note_on_c, 2, 56, 0
4, 27616, Note_on_c, 2, 59, 57
4, 27632, Note_on_c, 2, 59, 0
4, 27632, Note_on_c, 2, 57, 85
4, 27648, Note_on_c, 2, 57, 0
4, 27648, Note_on_c, 2, 56, 57
4, 27664, Note_on_c, 2, 56, 0
4, 27664, Note_on_c, 2, 52, 77
4, 27680, Note_on_c, 2, 52, 0
4, 27680, Note_on_c, 2, 54, 56
4, 27696, Note_on_c, 2, 54, 0
4, 27696, Note_on_c, 2, 56, 61
4, 27712, Note_on_c, 2, 56, 0
4, 27712, Note_on_c, 2, 54, 66
4, 27728, Note_on_c, 2, 54, 0
4, 27728, Note_on_c, 2, 56, 67
4, 27744, Note_on_c, 2, 56, 0
4, 27744, Note_on_c, 2, 57, 76
4, 27752, Note_on_c, 2, 57, 0
4, 27752, Note_on_c, 2, 61, 52
4, 27760, Note_on_c, 2, 61, 0
4, 27760, Note_on_c, 2, 62, 82
4, 27768, Note_on_c, 2, 62, 0
4, 27768, Note_on_c, 2, 64, 67
4, 27776, Note_on_c, 2, 64, 0
4, 27776, Note_on_c, 2, 66, 40
4, 27784, Note_on_c, 2, 66, 0
4, 27784, Note_on_c, 2, 67, 85
4, 27792, Note_on_c, 2, 67, 0
4, 27792, Note_on_c, 2, 69, 85
4, 27808, Note_on_c, 2, 69, 0
4, 27848, Note_on_c, 2, 59, 85
4, 27856, Note_on_c, 2, 59, 0
4, 27856, Note_on_c, 2, 61, 57
4, 27864, Note_on_c, 2, 61, 0
4, 27864, Note_on_c, 2, 62, 85
4, 27872, Note_on_c, 2, 62, 0
4, 27872, Note_on_c, 2, 64, 85
4, 27880, Note_on_c, 2, 64, 0
4, 27880, Note_on_c, 2, 66, 64
4, 27888, Note_on_c, 2, 66, 0
4, 27888, Note_on_c, 2, 67, 85
4, 27904, Note_on_c, 2, 67, 0
4, 27944, Note_on_c, 2, 57, 76
4, 27952, Note_on_c, 2, 57, 0
4, 27952, Note_on_c, 2, 59, 76
4, 27960, Note_on_c, 2, 59, 0
4, 27960, Note_on_c, 2, 61, 76
4, 27968, Note_on_c, 2, 61, 0
4, 27968, Note_on_c, 2, 62, 76
4, 27976, Note_on_c, 2, 62, 0
4, 27976, Note_on_c, 2, 64, 76
4, 27984, Note_on_c, 2, 64, 0
4, 27984, Note_on_c, 2, 66, 76
4, 28000, Note_on_c, 2, 66, 0
4, 28032, Note_on_c, 2, 55, 76
4, 28048, Note_on_c, 2, 55, 0
4, 28120, Note_on_c, 2, 59, 76
4, 28128, Note_on_c, 2, 59, 0
4, 28128, Note_on_c, 2, 57, 103
4, 28133, Note_on_c, 2, 57, 0
4, 28136, Note_on_c, 2, 59, 103
4, 28141, Note_on_c, 2, 59, 0
4, 28144, Note_on_c, 2, 57, 93
4, 28149, Note_on_c, 2, 57, 0
4, 28152, Note_on_c, 2, 55, 82
4, 28157, Note_on_c, 2, 55, 0
4, 28160, Note_on_c, 2, 54, 86
4, 28165, Note_on_c, 2, 54, 0
4, 28168, Note_on_c, 2, 52, 103
4, 28173, Note_on_c, 2, 52, 0
4, 28176, Note_on_c, 2, 50, 99
4, 28181, Note_on_c, 2, 50, 0
4, 28184, Note_on_c, 2, 52, 82
4, 28189, Note_on_c, 2, 52, 0
4, 28192, Note_on_c, 2, 50, 80
4, 28197, Note_on_c, 2, 50, 0
4, 28200, Note_on_c, 2, 49, 82
4, 28205, Note_on_c, 2, 49, 0
4, 28208, Note_on_c, 2, 47, 69
4, 28213, Note_on_c, 2, 47, 0
4, 28216, Note_on_c, 2, 45, 103
4, 28221, Note_on_c, 2, 45, 0
4, 28224, Note_on_c, 2, 47, 100
4, 28235, Note_on_c, 2, 47, 0
4, 28240, Note_on_c, 2, 45, 100
4, 28251, Note_on_c, 2, 45, 0
4, 28256, Note_on_c, 2, 43, 103
4, 28267, Note_on_c, 2, 43, 0
4, 28272, Note_on_c, 2, 45, 103
4, 28296, Note_on_c, 2, 45, 0
4, 28308, Note_on_c, 2, 45, 103
4, 28316, Note_on_c, 2, 45, 0
4, 28320, Note_on_c, 2, 38, 103
4, 28336, Note_on_c, 2, 38, 0
4, 28368, Note_on_c, 2, 42, 88
4, 28384, Note_on_c, 2, 42, 0
4, 28416, Note_on_c, 2, 43, 103
4, 28432, Note_on_c, 2, 43, 0
4, 28464, Note_on_c, 2, 48, 91
4, 28480, Note_on_c, 2, 48, 0
4, 28512, Note_on_c, 2, 47, 103
4, 28536, Note_on_c, 2, 47, 0
4, 28548, Note_on_c, 2, 55, 103
4, 28556, Note_on_c, 2, 55, 0
4, 28560, Note_on_c, 2, 62, 103
4, 28584, Note_on_c, 2, 62, 0
4, 28596, Note_on_c, 2, 57, 103
4, 28604, Note_on_c, 2, 57, 0
4, 28608, Note_on_c, 2, 59, 103
4, 28619, Note_on_c, 2, 59, 0
4, 28624, Note_on_c, 2, 57, 103
4, 28635, Note_on_c, 2, 57, 0
4, 28640, Note_on_c, 2, 55, 98
4, 28651, Note_on_c, 2, 55, 0
4, 28656, Note_on_c, 2, 54, 84
4, 28667, Note_on_c, 2, 54, 0
4, 28672, Note_on_c, 2, 56, 89
4, 28683, Note_on_c, 2, 56, 0
4, 28688, Note_on_c, 2, 57, 103
4, 28699, Note_on_c, 2, 57, 0
4, 28704, Note_on_c, 2, 56, 86
4, 28706, Note_on_c, 2, 56, 0
4, 28708, Note_on_c, 2, 57, 92
4, 28710, Note_on_c, 2, 57, 0
4, 28712, Note_on_c, 2, 56, 87
4, 28714, Note_on_c, 2, 56, 0
4, 28716, Note_on_c, 2, 57, 103
4, 28718, Note_on_c, 2, 57, 0
4, 28720, Note_on_c, 2, 56, 86
4, 28722, Note_on_c, 2, 56, 0
4, 28724, Note_on_c, 2, 57, 103
4, 28726, Note_on_c, 2, 57, 0
4, 28728, Note_on_c, 2, 56, 95
4, 28730, Note_on_c, 2, 56, 0
4, 28732, Note_on_c, 2, 57, 103
4, 28734, Note_on_c, 2, 57, 0
4, 28736, Note_on_c, 2, 56, 92
4, 28738, Note_on_c, 2, 56, 0
4, 28740, Note_on_c, 2, 57, 103
4, 28742, Note_on_c, 2, 57, 0
4, 28744, Note_on_c, 2, 56, 100
4, 28746, Note_on_c, 2, 56, 0
4, 28748, Note_on_c, 2, 57, 103
4, 28750, Note_on_c, 2, 57, 0
4, 28752, Note_on_c, 2, 56, 98
4, 28754, Note_on_c, 2, 56, 0
4, 28756, Note_on_c, 2, 57, 103
4, 28758, Note_on_c, 2, 57, 0
4, 28760, Note_on_c, 2, 56, 99
4, 28762, Note_on_c, 2, 56, 0
4, 28764, Note_on_c, 2, 57, 103
4, 28766, Note_on_c, 2, 57, 0
4, 28768, Note_on_c, 2, 56, 95
4, 28770, Note_on_c, 2, 56, 0
4, 28772, Note_on_c, 2, 57, 103
4, 28774, Note_on_c, 2, 57, 0
4, 28776, Note_on_c, 2, 56, 100
4, 28778, Note_on_c, 2, 56, 0
4, 28780, Note_on_c, 2, 57, 103
4, 28782, Note_on_c, 2, 57, 0
4, 28784, Note_on_c, 2, 56, 101
4, 28786, Note_on_c, 2, 56, 0
4, 28788, Note_on_c, 2, 57, 103
4, 28790, Note_on_c, 2, 57, 0
4, 28792, Note_on_c, 2, 56, 98
4, 28794, Note_on_c, 2, 56, 0
4, 28796, Note_on_c, 2, 57, 103
4, 28798, Note_on_c, 2, 57, 0
4, 28800, Note_on_c, 2, 56, 77
4, 28811, Note_on_c, 2, 56, 0
4, 28816, Note_on_c, 2, 59, 103
4, 28827, Note_on_c, 2, 59, 0
4, 28832, Note_on_c, 2, 57, 103
4, 28843, Note_on_c, 2, 57, 0
4, 28848, Note_on_c, 2, 56, 80
4, 28859, Note_on_c, 2, 56, 0
4, 28864, Note_on_c, 2, 59, 103
4, 28875, Note_on_c, 2, 59, 0
4, 28880, Note_on_c, 2, 57, 103
4, 28891, Note_on_c, 2, 57, 0
4, 28896, Note_on_c, 2, 56, 90
4, 28898, Note_on_c, 2, 56, 0
4, 28900, Note_on_c, 2, 57, 103
4, 28902, Note_on_c, 2, 57, 0
4, 28904, Note_on_c, 2, 56, 90
4, 28906, Note_on_c, 2, 56, 0
4, 28908, Note_on_c, 2, 57, 103
4, 28910, Note_on_c, 2, 57, 0
4, 28912, Note_on_c, 2, 56, 96
4, 28914, Note_on_c, 2, 56, 0
4, 28916, Note_on_c, 2, 57, 103
4, 28918, Note_on_c, 2, 57, 0
4, 28920, Note_on_c, 2, 56, 100
4, 28922, Note_on_c, 2, 56, 0
4, 28924, Note_on_c, 2, 57, 103
4, 28926, Note_on_c, 2, 57, 0
4, 28928, Note_on_c, 2, 56, 109
4, 28930, Note_on_c, 2, 56, 0
4, 28932, Note_on_c, 2, 57, 103
4, 28934, Note_on_c, 2, 57, 0
4, 28936, Note_on_c, 2, 56, 105
4, 28938, Note_on_c, 2, 56, 0
4, 28940, Note_on_c, 2, 57, 103
4, 28942, Note_on_c, 2, 57, 0
4, 28944, Note_on_c, 2, 56, 105
4, 28946, Note_on_c, 2, 56, 0
4, 28948, Note_on_c, 2, 57, 103
4, 28950, Note_on_c, 2, 57, 0
4, 28952, Note_on_c, 2, 56, 105
4, 28954, Note_on_c, 2, 56, 0
4, 28956, Note_on_c, 2, 57, 103
4, 28958, Note_on_c, 2, 57, 0
4, 28960, Note_on_c, 2, 56, 106
4, 28962, Note_on_c, 2, 56, 0
4, 28964, Note_on_c, 2, 57, 103
4, 28966, Note_on_c, 2, 57, 0
4, 28968, Note_on_c, 2, 56, 101
4, 28970, Note_on_c, 2, 56, 0
4, 28972, Note_on_c, 2, 57, 103
4, 28974, Note_on_c, 2, 57, 0
4, 28976, Note_on_c, 2, 56, 105
4, 28978, Note_on_c, 2, 56, 0
4, 28980, Note_on_c, 2, 57, 103
4, 28982, Note_on_c, 2, 57, 0
4, 28984, Note_on_c, 2, 56, 99
4, 28986, Note_on_c, 2, 56, 0
4, 28988, Note_on_c, 2, 57, 103
4, 28990, Note_on_c, 2, 57, 0
4, 28992, Note_on_c, 2, 56, 49
4, 29008, Note_on_c, 2, 56, 0
4, 29008, Note_on_c, 2, 59, 74
4, 29024, Note_on_c, 2, 59, 0
4, 29024, Note_on_c, 2, 57, 72
4, 29040, Note_on_c, 2, 57, 0
4, 29040, Note_on_c, 2, 56, 57
4, 29056, Note_on_c, 2, 56, 0
4, 29056, Note_on_c, 2, 54, 70
4, 29072, Note_on_c, 2, 54, 0
4, 29072, Note_on_c, 2, 52, 72
4, 29088, Note_on_c, 2, 52, 0
4, 29088, Note_on_c, 2, 57, 67
4, 29104, Note_on_c, 2, 57, 0
4, 29104, Note_on_c, 2, 61, 64
4, 29120, Note_on_c, 2, 61, 0
4, 29120, Note_on_c, 2, 59, 71
4, 29136, Note_on_c, 2, 59, 0
4, 29136, Note_on_c, 2, 57, 77
4, 29152, Note_on_c, 2, 57, 0
4, 29152, Note_on_c, 2, 55, 85
4, 29168, Note_on_c, 2, 55, 0
4, 29168, Note_on_c, 2, 54, 64
4, 29184, Note_on_c, 2, 54, 0
4, 29184, Note_on_c, 2, 59, 72
4, 29200, Note_on_c, 2, 59, 0
4, 29200, Note_on_c, 2, 62, 85
4, 29216, Note_on_c, 2, 62, 0
4, 29216, Note_on_c, 2, 61, 65
4, 29232, Note_on_c, 2, 61, 0
4, 29232, Note_on_c, 2, 59, 85
4, 29248, Note_on_c, 2, 59, 0
4, 29248, Note_on_c, 2, 57, 78
4, 29264, Note_on_c, 2, 57, 0
4, 29264, Note_on_c, 2, 55, 81
4, 29280, Note_on_c, 2, 55, 0
4, 29280, Note_on_c, 2, 61, 67
4, 29296, Note_on_c, 2, 61, 0
4, 29296, Note_on_c, 2, 64, 85
4, 29312, Note_on_c, 2, 64, 0
4, 29312, Note_on_c, 2, 62, 85
4, 29328, Note_on_c, 2, 62, 0
4, 29328, Note_on_c, 2, 61, 67
4, 29344, Note_on_c, 2, 61, 0
4, 29344, Note_on_c, 2, 59, 77
4, 29360, Note_on_c, 2, 59, 0
4, 29360, Note_on_c, 2, 57, 85
4, 29376, Note_on_c, 2, 57, 0
4, 29376, Note_on_c, 2, 62, 85
4, 29400, Note_on_c, 2, 62, 0
4, 29424, Note_on_c, 2, 54, 69
4, 29448, Note_on_c, 2, 54, 0
4, 29472, Note_on_c, 2, 55, 85
4, 29496, Note_on_c, 2, 55, 0
4, 29520, Note_on_c, 2, 57, 85
4, 29544, Note_on_c, 2, 57, 0
4, 29568, Note_on_c, 2, 59, 85
4, 29584, Note_on_c, 2, 59, 0
4, 29584, Note_on_c, 2, 57, 85
4, 29600, Note_on_c, 2, 57, 0
4, 29600, Note_on_c, 2, 55, 85
4, 29616, Note_on_c, 2, 55, 0
4, 29616, Note_on_c, 2, 57, 85
4, 29652, Note_on_c, 2, 57, 0
4, 29652, Note_on_c, 2, 45, 85
4, 29664, Note_on_c, 2, 45, 0
4, 29664, Note_on_c, 2, 50, 85
4, 29664, Note_on_c, 2, 57, 85
4, 29760, Note_on_c, 2, 50, 0
4, 29760, Note_on_c, 2, 57, 0
4, 29760, End_track
5, 0, Start_track
5, 0, Title_t, "Flute"
5, 0, Control_c, 3, 10, 18
5, 0, Control_c, 3, 7, 96
5, 0, Pitch_bend_c, 3, 8192
5, 0, Control_c, 3, 1, 0
5, 0, Program_c, 3, 73
5, 0, Control_c, 3, 64, 0
5, 228, Note_on_c, 3, 74, 95
5, 238, Note_on_c, 3, 74, 0
5, 240, Note_on_c, 3, 81, 95
5, 271, Note_on_c, 3, 81, 0
5, 276, Note_on_c, 3, 76, 95
5, 286, Note_on_c, 3, 76, 0
5, 288, Note_on_c, 3, 78, 95
5, 302, Note_on_c, 3, 78, 0
5, 304, Note_on_c, 3, 76, 95
5, 318, Note_on_c, 3, 76, 0
5, 320, Note_on_c, 3, 74, 95
5, 334, Note_on_c, 3, 74, 0
5, 336, Note_on_c, 3, 73, 95
5, 350, Note_on_c, 3, 73, 0
5, 352, Note_on_c, 3, 74, 95
5, 366, Note_on_c, 3, 74, 0
5, 368, Note_on_c, 3, 76, 95
5, 382, Note_on_c, 3, 76, 0
5, 384, Note_on_c, 3, 69, 95
5, 405, Note_on_c, 3, 69, 0
5, 432, Note_on_c, 3, 66, 95
5, 453, Note_on_c, 3, 66, 0
5, 480, Note_on_c, 3, 67, 95
5, 501, Note_on_c, 3, 67, 0
5, 528, Note_on_c, 3, 69, 95
5, 549, Note_on_c, 3, 69, 0
5, 576, Note_on_c, 3, 71, 95
5, 590, Note_on_c, 3, 71, 0
5, 592, Note_on_c, 3, 74, 95
5, 606, Note_on_c, 3, 74, 0
5, 608, Note_on_c, 3, 78, 95
5, 622, Note_on_c, 3, 78, 0
5, 624, Note_on_c, 3, 78, 95
5, 638, Note_on_c, 3, 78, 0
5, 640, Note_on_c, 3, 76, 95
5, 654, Note_on_c, 3, 76, 0
5, 656, Note_on_c, 3, 78, 95
5, 670, Note_on_c, 3, 78, 0
5, 672, Note_on_c, 3, 74, 95
5, 686, Note_on_c, 3, 74, 0
5, 688, Note_on_c, 3, 79, 95
5, 702, Note_on_c, 3, 79, 0
5, 704, Note_on_c, 3, 78, 95
5, 718, Note_on_c, 3, 78, 0
5, 720, Note_on_c, 3, 76, 95
5, 734, Note_on_c, 3, 76, 0
5, 736, Note_on_c, 3, 81, 95
5, 750, Note_on_c, 3, 81, 0
5, 752, Note_on_c, 3, 79, 95
5, 766, Note_on_c, 3, 79, 0
5, 768, Note_on_c, 3, 78, 95
5, 782, Note_on_c, 3, 78, 0
5, 784, Note_on_c, 3, 81, 95
5, 798, Note_on_c, 3, 81, 0
5, 800, Note_on_c, 3, 79, 95
5, 814, Note_on_c, 3, 79, 0
5, 816, Note_on_c, 3, 78, 95
5, 830, Note_on_c, 3, 78, 0
5, 832, Note_on_c, 3, 81, 95
5, 846, Note_on_c, 3, 81, 0
5, 848, Note_on_c, 3, 79, 95
5, 862, Note_on_c, 3, 79, 0
5, 864, Note_on_c, 3, 78, 95
5, 895, Note_on_c, 3, 78, 0
5, 900, Note_on_c, 3, 81, 95
5, 910, Note_on_c, 3, 81, 0
5, 912, Note_on_c, 3, 81, 95
5, 943, Note_on_c, 3, 81, 0
5, 948, Note_on_c, 3, 79, 95
5, 958, Note_on_c, 3, 79, 0
5, 960, Note_on_c, 3, 78, 95
5, 991, Note_on_c, 3, 78, 0
5, 996, Note_on_c, 3, 69, 95
5, 1006, Note_on_c, 3, 69, 0
5, 1008, Note_on_c, 3, 76, 95
5, 1039, Note_on_c, 3, 76, 0
5, 1044, Note_on_c, 3, 69, 95
5, 1054, Note_on_c, 3, 69, 0
5, 1056, Note_on_c, 3, 78, 95
5, 1077, Note_on_c, 3, 78, 0
5, 1104, Note_on_c, 3, 80, 95
5, 1125, Note_on_c, 3, 80, 0
5, 1152, Note_on_c, 3, 81, 95
5, 1319, Note_on_c, 3, 81, 0
5, 1344, Note_on_c, 3, 81, 95
5, 1365, Note_on_c, 3, 81, 0
5, 1392, Note_on_c, 3, 80, 95
5, 1413, Note_on_c, 3, 80, 0
5, 1440, Note_on_c, 3, 81, 95
5, 1461, Note_on_c, 3, 81, 0
5, 1488, Note_on_c, 3, 83, 95
5, 1509, Note_on_c, 3, 83, 0
5, 1536, Note_on_c, 3, 76, 95
5, 1567, Note_on_c, 3, 76, 0
5, 1572, Note_on_c, 3, 76, 95
5, 1582, Note_on_c, 3, 76, 0
5, 1584, Note_on_c, 3, 81, 95
5, 1615, Note_on_c, 3, 81, 0
5, 1620, Note_on_c, 3, 76, 95
5, 1630, Note_on_c, 3, 76, 0
5, 1632, Note_on_c, 3, 78, 95
5, 1646, Note_on_c, 3, 78, 0
5, 1648, Note_on_c, 3, 76, 95
5, 1662, Note_on_c, 3, 76, 0
5, 1664, Note_on_c, 3, 74, 95
5, 1678, Note_on_c, 3, 74, 0
5, 1680, Note_on_c, 3, 73, 95
5, 1694, Note_on_c, 3, 73, 0
5, 1696, Note_on_c, 3, 74, 95
5, 1710, Note_on_c, 3, 74, 0
5, 1712, Note_on_c, 3, 76, 95
5, 1726, Note_on_c, 3, 76, 0
5, 1728, Note_on_c, 3, 69, 95
5, 1742, Note_on_c, 3, 69, 0
5, 1744, Note_on_c, 3, 73, 95
5, 1758, Note_on_c, 3, 73, 0
5, 1760, Note_on_c, 3, 71, 95
5, 1774, Note_on_c, 3, 71, 0
5, 1776, Note_on_c, 3, 69, 95
5, 1790, Note_on_c, 3, 69, 0
5, 1792, Note_on_c, 3, 73, 95
5, 1806, Note_on_c, 3, 73, 0
5, 1808, Note_on_c, 3, 71, 95
5, 1822, Note_on_c, 3, 71, 0
5, 1824, Note_on_c, 3, 69, 95
5, 1908, Note_on_c, 3, 69, 0
5, 1920, Note_on_c, 3, 69, 95
5, 1934, Note_on_c, 3, 69, 0
5, 1936, Note_on_c, 3, 73, 95
5, 1950, Note_on_c, 3, 73, 0
5, 1952, Note_on_c, 3, 71, 95
5, 1966, Note_on_c, 3, 71, 0
5, 1968, Note_on_c, 3, 69, 95
5, 1982, Note_on_c, 3, 69, 0
5, 1984, Note_on_c, 3, 73, 95
5, 1998, Note_on_c, 3, 73, 0
5, 2000, Note_on_c, 3, 71, 95
5, 2014, Note_on_c, 3, 71, 0
5, 2016, Note_on_c, 3, 69, 95
5, 2100, Note_on_c, 3, 69, 0
5, 2112, Note_on_c, 3, 69, 95
5, 2196, Note_on_c, 3, 69, 0
5, 2208, Note_on_c, 3, 69, 95
5, 2292, Note_on_c, 3, 69, 0
5, 2304, Note_on_c, 3, 68, 95
5, 2318, Note_on_c, 3, 68, 0
5, 2320, Note_on_c, 3, 69, 95
5, 2334, Note_on_c, 3, 69, 0
5, 2336, Note_on_c, 3, 71, 95
5, 2350, Note_on_c, 3, 71, 0
5, 2352, Note_on_c, 3, 73, 95
5, 2415, Note_on_c, 3, 73, 0
5, 2416, Note_on_c, 3, 78, 95
5, 2426, Note_on_c, 3, 78, 0
5, 2432, Note_on_c, 3, 76, 95
5, 2442, Note_on_c, 3, 76, 0
5, 2448, Note_on_c, 3, 74, 95
5, 2520, Note_on_c, 3, 74, 0
5, 2532, Note_on_c, 3, 83, 95
5, 2544, Note_on_c, 3, 83, 0
5, 2544, Note_on_c, 3, 73, 95
5, 2580, Note_on_c, 3, 73, 0
5, 2580, Note_on_c, 3, 78, 95
5, 2592, Note_on_c, 3, 78, 0
5, 2592, Note_on_c, 3, 76, 95
5, 2608, Note_on_c, 3, 76, 0
5, 2608, Note_on_c, 3, 74, 95
5, 2624, Note_on_c, 3, 74, 0
5, 2624, Note_on_c, 3, 73, 95
5, 2640, Note_on_c, 3, 73, 0
5, 2640, Note_on_c, 3, 71, 95
5, 2656, Note_on_c, 3, 71, 0
5, 2656, Note_on_c, 3, 73, 95
5, 2672, Note_on_c, 3, 73, 0
5, 2672, Note_on_c, 3, 74, 95
5, 2688, Note_on_c, 3, 74, 0
5, 2688, Note_on_c, 3, 73, 95
5, 2704, Note_on_c, 3, 73, 0
5, 2704, Note_on_c, 3, 71, 95
5, 2720, Note_on_c, 3, 71, 0
5, 2720, Note_on_c, 3, 69, 95
5, 2736, Note_on_c, 3, 69, 0
5, 2736, Note_on_c, 3, 74, 95
5, 2800, Note_on_c, 3, 73, 95
5, 2808, Note_on_c, 3, 74, 0
5, 2816, Note_on_c, 3, 73, 0
5, 2816, Note_on_c, 3, 71, 95
5, 2832, Note_on_c, 3, 71, 0
5, 2832, Note_on_c, 3, 69, 95
5, 2868, Note_on_c, 3, 69, 0
5, 2868, Note_on_c, 3, 67, 95
5, 2880, Note_on_c, 3, 67, 0
5, 2880, Note_on_c, 3, 66, 95
5, 2896, Note_on_c, 3, 66, 0
5, 2896, Note_on_c, 3, 64, 95
5, 2912, Note_on_c, 3, 64, 0
5, 2912, Note_on_c, 3, 62, 95
5, 2928, Note_on_c, 3, 62, 0
5, 2928, Note_on_c, 3, 69, 95
5, 2952, Note_on_c, 3, 69, 0
5, 3108, Note_on_c, 3, 81, 95
5, 3120, Note_on_c, 3, 81, 0
5, 3120, Note_on_c, 3, 86, 95
5, 3156, Note_on_c, 3, 86, 0
5, 3156, Note_on_c, 3, 81, 95
5, 3168, Note_on_c, 3, 81, 0
5, 3168, Note_on_c, 3, 83, 95
5, 3184, Note_on_c, 3, 83, 0
5, 3184, Note_on_c, 3, 81, 95
5, 3200, Note_on_c, 3, 81, 0
5, 3200, Note_on_c, 3, 79, 95
5, 3216, Note_on_c, 3, 79, 0
5, 3216, Note_on_c, 3, 78, 95
5, 3232, Note_on_c, 3, 78, 0
5, 3232, Note_on_c, 3, 79, 95
5, 3248, Note_on_c, 3, 79, 0
5, 3248, Note_on_c, 3, 81, 95
5, 3264, Note_on_c, 3, 81, 0
5, 3264, Note_on_c, 3, 74, 95
5, 3280, Note_on_c, 3, 74, 0
5, 3312, Note_on_c, 3, 73, 95
5, 3328, Note_on_c, 3, 73, 0
5, 3360, Note_on_c, 3, 71, 95
5, 3376, Note_on_c, 3, 71, 0
5, 3408, Note_on_c, 3, 76, 95
5, 3424, Note_on_c, 3, 76, 0
5, 3456, Note_on_c, 3, 74, 95
5, 3472, Note_on_c, 3, 74, 0
5, 3472, Note_on_c, 3, 78, 95
5, 3488, Note_on_c, 3, 78, 0
5, 3488, Note_on_c, 3, 81, 95
5, 3504, Note_on_c, 3, 81, 0
5, 3504, Note_on_c, 3, 81, 95
5, 3520, Note_on_c, 3, 81, 0
5, 3520, Note_on_c, 3, 79, 95
5, 3536, Note_on_c, 3, 79, 0
5, 3536, Note_on_c, 3, 81, 95
5, 3552, Note_on_c, 3, 81, 0
5, 3552, Note_on_c, 3, 78, 95
5, 3568, Note_on_c, 3, 78, 0
5, 3568, Note_on_c, 3, 83, 95
5, 3584, Note_on_c, 3, 83, 0
5, 3584, Note_on_c, 3, 81, 95
5, 3600, Note_on_c, 3, 81, 0
5, 3600, Note_on_c, 3, 80, 95
5, 3616, Note_on_c, 3, 80, 0
5, 3616, Note_on_c, 3, 85, 95
5, 3632, Note_on_c, 3, 85, 0
5, 3632, Note_on_c, 3, 83, 95
5, 3648, Note_on_c, 3, 83, 0
5, 3648, Note_on_c, 3, 81, 95
5, 3712, Note_on_c, 3, 83, 95
5, 3720, Note_on_c, 3, 81, 0
5, 3728, Note_on_c, 3, 83, 0
5, 3728, Note_on_c, 3, 85, 95
5, 3744, Note_on_c, 3, 85, 0
5, 3744, Note_on_c, 3, 86, 95
5, 3760, Note_on_c, 3, 86, 0
5, 3760, Note_on_c, 3, 85, 95
5, 3776, Note_on_c, 3, 85, 0
5, 3776, Note_on_c, 3, 83, 95
5, 3792, Note_on_c, 3, 83, 0
5, 3792, Note_on_c, 3, 81, 95
5, 3808, Note_on_c, 3, 81, 0
5, 3808, Note_on_c, 3, 83, 95
5, 3824, Note_on_c, 3, 83, 0
5, 3824, Note_on_c, 3, 79, 95
5, 3840, Note_on_c, 3, 79, 0
5, 3840, Note_on_c, 3, 78, 95
5, 3864, Note_on_c, 3, 78, 0
5, 3888, Note_on_c, 3, 79, 95
5, 3912, Note_on_c, 3, 79, 0
5, 3936, Note_on_c, 3, 81, 85
5, 3960, Note_on_c, 3, 81, 0
5, 3984, Note_on_c, 3, 72, 85
5, 4008, Note_on_c, 3, 72, 0
5, 4032, Note_on_c, 3, 71, 85
5, 4056, Note_on_c, 3, 71, 0
5, 4080, Note_on_c, 3, 73, 85
5, 4104, Note_on_c, 3, 73, 0
5, 4128, Note_on_c, 3, 74, 85
5, 4152, Note_on_c, 3, 74, 0
5, 4176, Note_on_c, 3, 69, 85
5, 4192, Note_on_c, 3, 69, 0
5, 4192, Note_on_c, 3, 73, 85
5, 4208, Note_on_c, 3, 73, 0
5, 4208, Note_on_c, 3, 76, 85
5, 4224, Note_on_c, 3, 76, 0
5, 4224, Note_on_c, 3, 69, 85
5, 4240, Note_on_c, 3, 69, 0
5, 4240, Note_on_c, 3, 74, 85
5, 4256, Note_on_c, 3, 74, 0
5, 4256, Note_on_c, 3, 78, 85
5, 4272, Note_on_c, 3, 78, 0
5, 4272, Note_on_c, 3, 73, 85
5, 4288, Note_on_c, 3, 73, 0
5, 4288, Note_on_c, 3, 76, 85
5, 4304, Note_on_c, 3, 76, 0
5, 4304, Note_on_c, 3, 79, 85
5, 4320, Note_on_c, 3, 79, 0
5, 4320, Note_on_c, 3, 81, 95
5, 4344, Note_on_c, 3, 81, 0
5, 4368, Note_on_c, 3, 83, 85
5, 4392, Note_on_c, 3, 83, 0
5, 4416, Note_on_c, 3, 81, 78
5, 4440, Note_on_c, 3, 81, 0
5, 4464, Note_on_c, 3, 79, 85
5, 4488, Note_on_c, 3, 79, 0
5, 4512, Note_on_c, 3, 79, 85
5, 4536, Note_on_c, 3, 79, 0
5, 4560, Note_on_c, 3, 78, 64
5, 4576, Note_on_c, 3, 78, 0
5, 4576, Note_on_c, 3, 79, 85
5, 4592, Note_on_c, 3, 79, 0
5, 4592, Note_on_c, 3, 81, 85
5, 4608, Note_on_c, 3, 81, 0
5, 4608, Note_on_c, 3, 74, 72
5, 4656, Note_on_c, 3, 74, 0
5, 4672, Note_on_c, 3, 76, 76
5, 4688, Note_on_c, 3, 76, 0
5, 4688, Note_on_c, 3, 73, 55
5, 4704, Note_on_c, 3, 73, 0
5, 4704, Note_on_c, 3, 74, 85
5, 4740, Note_on_c, 3, 74, 0
5, 4740, Note_on_c, 3, 81, 91
5, 4740, Note_on_c, 3, 81, 85
5, 4752, Note_on_c, 3, 86, 84
5, 4764, Note_on_c, 3, 81, 0
5, 4788, Note_on_c, 3, 86, 0
5, 4788, Note_on_c, 3, 81, 85
5, 4800, Note_on_c, 3, 81, 0
5, 4800, Note_on_c, 3, 83, 64
5, 4816, Note_on_c, 3, 83, 0
5, 4816, Note_on_c, 3, 81, 74
5, 4832, Note_on_c, 3, 81, 0
5, 4832, Note_on_c, 3, 79, 85
5, 4848, Note_on_c, 3, 79, 0
5, 4848, Note_on_c, 3, 78, 49
5, 4864, Note_on_c, 3, 78, 0
5, 4864, Note_on_c, 3, 79, 77
5, 4880, Note_on_c, 3, 79, 0
5, 4880, Note_on_c, 3, 81, 85
5, 4896, Note_on_c, 3, 81, 0
5, 4896, Note_on_c, 3, 74, 76
5, 4912, Note_on_c, 3, 74, 0
5, 4912, Note_on_c, 3, 78, 62
5, 4928, Note_on_c, 3, 78, 0
5, 4928, Note_on_c, 3, 76, 84
5, 4944, Note_on_c, 3, 76, 0
5, 4944, Note_on_c, 3, 74, 72
5, 4960, Note_on_c, 3, 74, 0
5, 4960, Note_on_c, 3, 78, 49
5, 4976, Note_on_c, 3, 78, 0
5, 4976, Note_on_c, 3, 76, 78
5, 4992, Note_on_c, 3, 76, 0
5, 4992, Note_on_c, 3, 74, 78
5, 5104, Note_on_c, 3, 81, 62
5, 5120, Note_on_c, 3, 81, 0
5, 5120, Note_on_c, 3, 79, 81
5, 5136, Note_on_c, 3, 74, 0
5, 5136, Note_on_c, 3, 79, 0
5, 5136, Note_on_c, 3, 78, 53
5, 5152, Note_on_c, 3, 78, 0
5, 5152, Note_on_c, 3, 81, 65
5, 5168, Note_on_c, 3, 81, 0
5, 5168, Note_on_c, 3, 79, 78
5, 5184, Note_on_c, 3, 79, 0
5, 5184, Note_on_c, 3, 78, 78
5, 5208, Note_on_c, 3, 70, 0
5, 5232, Note_on_c, 3, 70, 0
5, 5248, Note_on_c, 3, 78, 0
5, 5280, Note_on_c, 3, 76, 78
5, 5472, Note_on_c, 3, 76, 0
5, 5472, Note_on_c, 3, 76, 78
5, 5520, Note_on_c, 3, 76, 0
5, 5536, Note_on_c, 3, 78, 78
5, 5552, Note_on_c, 3, 78, 0
5, 5552, Note_on_c, 3, 76, 78
5, 5568, Note_on_c, 3, 76, 0
5, 5568, Note_on_c, 3, 74, 78
5, 5616, Note_on_c, 3, 74, 0
5, 5632, Note_on_c, 3, 76, 78
5, 5648, Note_on_c, 3, 76, 0
5, 5648, Note_on_c, 3, 74, 78
5, 5664, Note_on_c, 3, 74, 0
5, 5664, Note_on_c, 3, 73, 78
5, 5712, Note_on_c, 3, 73, 0
5, 5728, Note_on_c, 3, 74, 78
5, 5744, Note_on_c, 3, 74, 0
5, 5744, Note_on_c, 3, 72, 78
5, 5760, Note_on_c, 3, 72, 0
5, 5760, Note_on_c, 3, 71, 78
5, 5808, Note_on_c, 3, 71, 0
5, 5808, Note_on_c, 3, 79, 78
5, 5872, Note_on_c, 3, 73, 71
5, 5880, Note_on_c, 3, 73, 0
5, 5880, Note_on_c, 3, 79, 0
5, 5888, Note_on_c, 3, 76, 93
5, 5896, Note_on_c, 3, 76, 0
5, 5904, Note_on_c, 3, 78, 78
5, 5912, Note_on_c, 3, 78, 0
5, 5920, Note_on_c, 3, 79, 100
5, 5928, Note_on_c, 3, 79, 0
5, 5936, Note_on_c, 3, 81, 103
5, 5944, Note_on_c, 3, 81, 0
5, 5952, Note_on_c, 3, 74, 85
5, 5970, Note_on_c, 3, 74, 0
5, 5988, Note_on_c, 3, 76, 96
5, 5994, Note_on_c, 3, 76, 0
5, 6000, Note_on_c, 3, 73, 87
5, 6018, Note_on_c, 3, 73, 0
5, 6036, Note_on_c, 3, 74, 96
5, 6042, Note_on_c, 3, 74, 0
5, 6048, Note_on_c, 3, 74, 94
5, 6072, Note_on_c, 3, 74, 0
5, 6096, Note_on_c, 3, 72, 84
5, 6120, Note_on_c, 3, 72, 0
5, 6144, Note_on_c, 3, 71, 101
5, 6168, Note_on_c, 3, 71, 0
5, 6192, Note_on_c, 3, 69, 103
5, 6216, Note_on_c, 3, 69, 0
5, 6240, Note_on_c, 3, 67, 98
5, 6248, Note_on_c, 3, 67, 0
5, 6256, Note_on_c, 3, 69, 103
5, 6264, Note_on_c, 3, 69, 0
5, 6272, Note_on_c, 3, 71, 103
5, 6280, Note_on_c, 3, 71, 0
5, 6288, Note_on_c, 3, 69, 103
5, 6296, Note_on_c, 3, 69, 0
5, 6304, Note_on_c, 3, 71, 98
5, 6312, Note_on_c, 3, 71, 0
5, 6320, Note_on_c, 3, 72, 74
5, 6328, Note_on_c, 3, 72, 0
5, 6336, Note_on_c, 3, 66, 73
5, 6360, Note_on_c, 3, 66, 0
5, 6384, Note_on_c, 3, 74, 101
5, 6420, Note_on_c, 3, 74, 0
5, 6448, Note_on_c, 3, 78, 71
5, 6460, Note_on_c, 3, 78, 0
5, 6464, Note_on_c, 3, 76, 100
5, 6476, Note_on_c, 3, 76, 0
5, 6480, Note_on_c, 3, 74, 103
5, 6492, Note_on_c, 3, 74, 0
5, 6496, Note_on_c, 3, 78, 74
5, 6508, Note_on_c, 3, 78, 0
5, 6512, Note_on_c, 3, 76, 103
5, 6524, Note_on_c, 3, 76, 0
5, 6528, Note_on_c, 3, 74, 103
5, 6600, Note_on_c, 3, 74, 0
5, 6624, Note_on_c, 3, 74, 98
5, 6636, Note_on_c, 3, 74, 0
5, 6640, Note_on_c, 3, 71, 103
5, 6652, Note_on_c, 3, 71, 0
5, 6656, Note_on_c, 3, 73, 78
5, 6668, Note_on_c, 3, 73, 0
5, 6672, Note_on_c, 3, 74, 103
5, 6684, Note_on_c, 3, 74, 0
5, 6688, Note_on_c, 3, 71, 103
5, 6700, Note_on_c, 3, 71, 0
5, 6704, Note_on_c, 3, 73, 84
5, 6716, Note_on_c, 3, 73, 0
5, 6720, Note_on_c, 3, 74, 103
5, 6774, Note_on_c, 3, 74, 0
5, 6804, Note_on_c, 3, 76, 78
5, 6816, Note_on_c, 3, 76, 0
5, 6816, Note_on_c, 3, 73, 66
5, 6888, Note_on_c, 3, 73, 0
5, 6912, Note_on_c, 3, 74, 103
5, 6984, Note_on_c, 3, 74, 0
5, 7008, Note_on_c, 3, 76, 90
5, 7080, Note_on_c, 3, 76, 0
5, 7104, Note_on_c, 3, 78, 84
5, 7131, Note_on_c, 3, 78, 0
5, 7140, Note_on_c, 3, 81, 96
5, 7149, Note_on_c, 3, 81, 0
5, 7152, Note_on_c, 3, 86, 103
5, 7179, Note_on_c, 3, 86, 0
5, 7188, Note_on_c, 3, 81, 103
5, 7197, Note_on_c, 3, 81, 0
5, 7200, Note_on_c, 3, 83, 103
5, 7212, Note_on_c, 3, 83, 0
5, 7216, Note_on_c, 3, 81, 103
5, 7228, Note_on_c, 3, 81, 0
5, 7232, Note_on_c, 3, 79, 99
5, 7244, Note_on_c, 3, 79, 0
5, 7248, Note_on_c, 3, 78, 84
5, 7260, Note_on_c, 3, 78, 0
5, 7264, Note_on_c, 3, 79, 103
5, 7276, Note_on_c, 3, 79, 0
5, 7280, Note_on_c, 3, 81, 103
5, 7292, Note_on_c, 3, 81, 0
5, 7296, Note_on_c, 3, 74, 103
5, 7323, Note_on_c, 3, 74, 0
5, 7332, Note_on_c, 3, 76, 88
5, 7341, Note_on_c, 3, 76, 0
5, 7344, Note_on_c, 3, 73, 82
5, 7371, Note_on_c, 3, 73, 0
5, 7380, Note_on_c, 3, 74, 96
5, 7389, Note_on_c, 3, 74, 0
5, 7392, Note_on_c, 3, 74, 91
5, 7464, Note_on_c, 3, 74, 0
5, 7524, Note_on_c, 3, 78, 88
5, 7533, Note_on_c, 3, 78, 0
5, 7536, Note_on_c, 3, 83, 98
5, 7563, Note_on_c, 3, 83, 0
5, 7572, Note_on_c, 3, 78, 82
5, 7581, Note_on_c, 3, 78, 0
5, 7584, Note_on_c, 3, 79, 103
5, 7692, Note_on_c, 3, 79, 0
5, 7716, Note_on_c, 3, 79, 103
5, 7725, Note_on_c, 3, 79, 0
5, 7728, Note_on_c, 3, 81, 85
5, 7740, Note_on_c, 3, 81, 0
5, 7744, Note_on_c, 3, 78, 77
5, 7756, Note_on_c, 3, 78, 0
5, 7760, Note_on_c, 3, 79, 103
5, 7772, Note_on_c, 3, 79, 0
5, 7776, Note_on_c, 3, 78, 84
5, 7884, Note_on_c, 3, 78, 0
5, 7908, Note_on_c, 3, 78, 77
5, 7917, Note_on_c, 3, 78, 0
5, 7920, Note_on_c, 3, 83, 84
5, 7947, Note_on_c, 3, 83, 0
5, 7956, Note_on_c, 3, 79, 103
5, 7965, Note_on_c, 3, 79, 0
5, 7968, Note_on_c, 3, 76, 103
5, 8076, Note_on_c, 3, 76, 0
5, 8080, Note_on_c, 3, 78, 73
5, 8092, Note_on_c, 3, 78, 0
5, 8096, Note_on_c, 3, 79, 84
5, 8108, Note_on_c, 3, 79, 0
5, 8112, Note_on_c, 3, 78, 80
5, 8124, Note_on_c, 3, 78, 0
5, 8128, Note_on_c, 3, 79, 95
5, 8140, Note_on_c, 3, 79, 0
5, 8144, Note_on_c, 3, 76, 103
5, 8156, Note_on_c, 3, 76, 0
5, 8160, Note_on_c, 3, 74, 92
5, 8172, Note_on_c, 3, 74, 0
5, 8176, Note_on_c, 3, 71, 91
5, 8188, Note_on_c, 3, 71, 0
5, 8192, Note_on_c, 3, 73, 85
5, 8204, Note_on_c, 3, 73, 0
5, 8208, Note_on_c, 3, 74, 100
5, 8220, Note_on_c, 3, 74, 0
5, 8224, Note_on_c, 3, 78, 77
5, 8236, Note_on_c, 3, 78, 0
5, 8240, Note_on_c, 3, 76, 103
5, 8252, Note_on_c, 3, 76, 0
5, 8256, Note_on_c, 3, 78, 80
5, 8268, Note_on_c, 3, 78, 0
5, 8272, Note_on_c, 3, 76, 103
5, 8284, Note_on_c, 3, 76, 0
5, 8288, Note_on_c, 3, 74, 103
5, 8300, Note_on_c, 3, 74, 0
5, 8304, Note_on_c, 3, 73, 88
5, 8316, Note_on_c, 3, 73, 0
5, 8320, Note_on_c, 3, 74, 88
5, 8332, Note_on_c, 3, 74, 0
5, 8336, Note_on_c, 3, 71, 80
5, 8348, Note_on_c, 3, 71, 0
5, 8352, Note_on_c, 3, 70, 91
5, 8364, Note_on_c, 3, 70, 0
5, 8368, Note_on_c, 3, 73, 86
5, 8380, Note_on_c, 3, 73, 0
5, 8384, Note_on_c, 3, 78, 82
5, 8396, Note_on_c, 3, 78, 0
5, 8400, Note_on_c, 3, 76, 101
5, 8412, Note_on_c, 3, 76, 0
5, 8416, Note_on_c, 3, 74, 103
5, 8428, Note_on_c, 3, 74, 0
5, 8432, Note_on_c, 3, 73, 84
5, 8444, Note_on_c, 3, 73, 0
5, 8448, Note_on_c, 3, 71, 103
5, 8460, Note_on_c, 3, 71, 0
5, 8464, Note_on_c, 3, 74, 103
5, 8476, Note_on_c, 3, 74, 0
5, 8480, Note_on_c, 3, 78, 84
5, 8492, Note_on_c, 3, 78, 0
5, 8496, Note_on_c, 3, 78, 88
5, 8508, Note_on_c, 3, 78, 0
5, 8512, Note_on_c, 3, 76, 103
5, 8524, Note_on_c, 3, 76, 0
5, 8528, Note_on_c, 3, 78, 87
5, 8540, Note_on_c, 3, 78, 0
5, 8544, Note_on_c, 3, 71, 85
5, 8556, Note_on_c, 3, 71, 0
5, 8560, Note_on_c, 3, 74, 76
5, 8572, Note_on_c, 3, 74, 0
5, 8576, Note_on_c, 3, 78, 59
5, 8588, Note_on_c, 3, 78, 0
5, 8592, Note_on_c, 3, 78, 55
5, 8604, Note_on_c, 3, 78, 0
5, 8608, Note_on_c, 3, 76, 71
5, 8620, Note_on_c, 3, 76, 0
5, 8624, Note_on_c, 3, 78, 52
5, 8636, Note_on_c, 3, 78, 0
5, 8640, Note_on_c, 3, 71, 64
5, 8652, Note_on_c, 3, 71, 0
5, 8656, Note_on_c, 3, 75, 66
5, 8668, Note_on_c, 3, 75, 0
5, 8672, Note_on_c, 3, 76, 74
5, 8684, Note_on_c, 3, 76, 0
5, 8688, Note_on_c, 3, 76, 85
5, 8700, Note_on_c, 3, 76, 0
5, 8704, Note_on_c, 3, 75, 62
5, 8716, Note_on_c, 3, 75, 0
5, 8720, Note_on_c, 3, 76, 85
5, 8732, Note_on_c, 3, 76, 0
5, 8736, Note_on_c, 3, 70, 57
5, 8748, Note_on_c, 3, 70, 0
5, 8752, Note_on_c, 3, 73, 43
5, 8764, Note_on_c, 3, 73, 0
5, 8768, Note_on_c, 3, 76, 85
5, 8780, Note_on_c, 3, 76, 0
5, 8784, Note_on_c, 3, 76, 85
5, 8796, Note_on_c, 3, 76, 0
5, 8800, Note_on_c, 3, 74, 85
5, 8812, Note_on_c, 3, 74, 0
5, 8816, Note_on_c, 3, 76, 76
5, 8828, Note_on_c, 3, 76, 0
5, 8832, Note_on_c, 3, 71, 85
5, 8844, Note_on_c, 3, 71, 0
5, 8848, Note_on_c, 3, 74, 85
5, 8860, Note_on_c, 3, 74, 0
5, 8864, Note_on_c, 3, 78, 67
5, 8876, Note_on_c, 3, 78, 0
5, 8880, Note_on_c, 3, 78, 61
5, 8892, Note_on_c, 3, 78, 0
5, 8896, Note_on_c, 3, 76, 85
5, 8908, Note_on_c, 3, 76, 0
5, 8912, Note_on_c, 3, 78, 60
5, 8924, Note_on_c, 3, 78, 0
5, 8928, Note_on_c, 3, 73, 59
5, 8940, Note_on_c, 3, 73, 0
5, 8944, Note_on_c, 3, 76, 85
5, 8956, Note_on_c, 3, 76, 0
5, 8960, Note_on_c, 3, 79, 85
5, 8972, Note_on_c, 3, 79, 0
5, 8976, Note_on_c, 3, 79, 85
5, 8988, Note_on_c, 3, 79, 0
5, 8992, Note_on_c, 3, 78, 54
5, 9004, Note_on_c, 3, 78, 0
5, 9008, Note_on_c, 3, 79, 85
5, 9020, Note_on_c, 3, 79, 0
5, 9024, Note_on_c, 3, 70, 70
5, 9036, Note_on_c, 3, 70, 0
5, 9040, Note_on_c, 3, 66, 66
5, 9052, Note_on_c, 3, 66, 0
5, 9056, Note_on_c, 3, 76, 85
5, 9068, Note_on_c, 3, 76, 0
5, 9072, Note_on_c, 3, 74, 74
5, 9084, Note_on_c, 3, 74, 0
5, 9088, Note_on_c, 3, 76, 74
5, 9100, Note_on_c, 3, 76, 0
5, 9104, Note_on_c, 3, 73, 53
5, 9116, Note_on_c, 3, 73, 0
5, 9120, Note_on_c, 3, 71, 85
5, 9138, Note_on_c, 3, 71, 0
5, 9168, Note_on_c, 3, 71, 85
5, 9186, Note_on_c, 3, 71, 0
5, 9216, Note_on_c, 3, 73, 84
5, 9234, Note_on_c, 3, 73, 0
5, 9264, Note_on_c, 3, 71, 79
5, 9276, Note_on_c, 3, 71, 0
5, 9280, Note_on_c, 3, 69, 85
5, 9292, Note_on_c, 3, 69, 0
5, 9296, Note_on_c, 3, 71, 85
5, 9308, Note_on_c, 3, 71, 0
5, 9312, Note_on_c, 3, 73, 65
5, 9324, Note_on_c, 3, 73, 0
5, 9328, Note_on_c, 3, 71, 85
5, 9340, Note_on_c, 3, 71, 0
5, 9344, Note_on_c, 3, 69, 69
5, 9356, Note_on_c, 3, 69, 0
5, 9360, Note_on_c, 3, 68, 55
5, 9372, Note_on_c, 3, 68, 0
5, 9376, Note_on_c, 3, 66, 70
5, 9388, Note_on_c, 3, 66, 0
5, 9392, Note_on_c, 3, 65, 85
5, 9404, Note_on_c, 3, 65, 0
5, 9408, Note_on_c, 3, 66, 61
5, 9420, Note_on_c, 3, 66, 0
5, 9424, Note_on_c, 3, 73, 66
5, 9436, Note_on_c, 3, 73, 0
5, 9440, Note_on_c, 3, 78, 62
5, 9452, Note_on_c, 3, 78, 0
5, 9456, Note_on_c, 3, 78, 67
5, 9468, Note_on_c, 3, 78, 0
5, 9472, Note_on_c, 3, 77, 85
5, 9484, Note_on_c, 3, 77, 0
5, 9488, Note_on_c, 3, 78, 64
5, 9500, Note_on_c, 3, 78, 0
5, 9504, Note_on_c, 3, 69, 85
5, 9516, Note_on_c, 3, 69, 0
5, 9520, Note_on_c, 3, 73, 67
5, 9532, Note_on_c, 3, 73, 0
5, 9536, Note_on_c, 3, 78, 70
5, 9548, Note_on_c, 3, 78, 0
5, 9552, Note_on_c, 3, 78, 66
5, 9564, Note_on_c, 3, 78, 0
5, 9568, Note_on_c, 3, 77, 85
5, 9580, Note_on_c, 3, 77, 0
5, 9584, Note_on_c, 3, 78, 64
5, 9596, Note_on_c, 3, 78, 0
5, 9600, Note_on_c, 3, 71, 66
5, 9612, Note_on_c, 3, 71, 0
5, 9616, Note_on_c, 3, 73, 65
5, 9628, Note_on_c, 3, 73, 0
5, 9632, Note_on_c, 3, 74, 85
5, 9644, Note_on_c, 3, 74, 0
5, 9648, Note_on_c, 3, 71, 59
5, 9660, Note_on_c, 3, 71, 0
5, 9664, Note_on_c, 3, 73, 43
5, 9676, Note_on_c, 3, 73, 0
5, 9680, Note_on_c, 3, 69, 85
5, 9692, Note_on_c, 3, 69, 0
5, 9696, Note_on_c, 3, 68, 72
5, 9708, Note_on_c, 3, 68, 0
5, 9712, Note_on_c, 3, 71, 85
5, 9724, Note_on_c, 3, 71, 0
5, 9728, Note_on_c, 3, 77, 85
5, 9740, Note_on_c, 3, 77, 0
5, 9744, Note_on_c, 3, 77, 85
5, 9756, Note_on_c, 3, 77, 0
5, 9760, Note_on_c, 3, 75, 65
5, 9772, Note_on_c, 3, 75, 0
5, 9776, Note_on_c, 3, 77, 85
5, 9788, Note_on_c, 3, 77, 0
5, 9792, Note_on_c, 3, 69, 85
5, 9804, Note_on_c, 3, 69, 0
5, 9808, Note_on_c, 3, 73, 64
5, 9820, Note_on_c, 3, 73, 0
5, 9824, Note_on_c, 3, 78, 70
5, 9836, Note_on_c, 3, 78, 0
5, 9840, Note_on_c, 3, 78, 66
5, 9852, Note_on_c, 3, 78, 0
5, 9856, Note_on_c, 3, 77, 85
5, 9868, Note_on_c, 3, 77, 0
5, 9872, Note_on_c, 3, 78, 65
5, 9884, Note_on_c, 3, 78, 0
5, 9888, Note_on_c, 3, 74, 85
5, 9900, Note_on_c, 3, 74, 0
5, 9904, Note_on_c, 3, 71, 85
5, 9916, Note_on_c, 3, 71, 0
5, 9920, Note_on_c, 3, 68, 61
5, 9932, Note_on_c, 3, 68, 0
5, 9936, Note_on_c, 3, 65, 85
5, 9948, Note_on_c, 3, 65, 0
5, 9952, Note_on_c, 3, 68, 62
5, 9964, Note_on_c, 3, 68, 0
5, 9968, Note_on_c, 3, 66, 55
5, 9980, Note_on_c, 3, 66, 0
5, 9984, Note_on_c, 3, 65, 84
5, 9996, Note_on_c, 3, 65, 0
5, 10000, Note_on_c, 3, 68, 67
5, 10012, Note_on_c, 3, 68, 0
5, 10016, Note_on_c, 3, 66, 60
5, 10028, Note_on_c, 3, 66, 0
5, 10032, Note_on_c, 3, 65, 85
5, 10044, Note_on_c, 3, 65, 0
5, 10048, Note_on_c, 3, 66, 62
5, 10060, Note_on_c, 3, 66, 0
5, 10064, Note_on_c, 3, 68, 69
5, 10076, Note_on_c, 3, 68, 0
5, 10080, Note_on_c, 3, 69, 85
5, 10098, Note_on_c, 3, 69, 0
5, 10192, Note_on_c, 3, 69, 95
5, 10204, Note_on_c, 3, 69, 0
5, 10208, Note_on_c, 3, 71, 95
5, 10220, Note_on_c, 3, 71, 0
5, 10224, Note_on_c, 3, 73, 95
5, 10236, Note_on_c, 3, 73, 0
5, 10240, Note_on_c, 3, 76, 95
5, 10252, Note_on_c, 3, 76, 0
5, 10256, Note_on_c, 3, 74, 95
5, 10268, Note_on_c, 3, 74, 0
5, 10272, Note_on_c, 3, 76, 95
5, 10290, Note_on_c, 3, 76, 0
5, 10384, Note_on_c, 3, 68, 95
5, 10396, Note_on_c, 3, 68, 0
5, 10400, Note_on_c, 3, 69, 95
5, 10412, Note_on_c, 3, 69, 0
5, 10416, Note_on_c, 3, 71, 95
5, 10428, Note_on_c, 3, 71, 0
5, 10432, Note_on_c, 3, 74, 95
5, 10444, Note_on_c, 3, 74, 0
5, 10448, Note_on_c, 3, 73, 95
5, 10460, Note_on_c, 3, 73, 0
5, 10464, Note_on_c, 3, 74, 95
5, 10469, Note_on_c, 3, 74, 0
5, 10470, Note_on_c, 3, 76, 95
5, 10475, Note_on_c, 3, 76, 0
5, 10476, Note_on_c, 3, 74, 95
5, 10481, Note_on_c, 3, 74, 0
5, 10482, Note_on_c, 3, 76, 95
5, 10487, Note_on_c, 3, 76, 0
5, 10488, Note_on_c, 3, 74, 95
5, 10493, Note_on_c, 3, 74, 0
5, 10494, Note_on_c, 3, 76, 95
5, 10499, Note_on_c, 3, 76, 0
5, 10500, Note_on_c, 3, 74, 95
5, 10505, Note_on_c, 3, 74, 0
5, 10506, Note_on_c, 3, 76, 95
5, 10511, Note_on_c, 3, 76, 0
5, 10512, Note_on_c, 3, 74, 95
5, 10517, Note_on_c, 3, 74, 0
5, 10518, Note_on_c, 3, 76, 95
5, 10523, Note_on_c, 3, 76, 0
5, 10524, Note_on_c, 3, 74, 95
5, 10529, Note_on_c, 3, 74, 0
5, 10530, Note_on_c, 3, 76, 95
5, 10535, Note_on_c, 3, 76, 0
5, 10536, Note_on_c, 3, 74, 95
5, 10560, Note_on_c, 3, 74, 0
5, 10560, Note_on_c, 3, 73, 95
5, 10565, Note_on_c, 3, 73, 0
5, 10566, Note_on_c, 3, 74, 95
5, 10571, Note_on_c, 3, 74, 0
5, 10572, Note_on_c, 3, 73, 95
5, 10577, Note_on_c, 3, 73, 0
5, 10578, Note_on_c, 3, 74, 95
5, 10583, Note_on_c, 3, 74, 0
5, 10584, Note_on_c, 3, 73, 95
5, 10589, Note_on_c, 3, 73, 0
5, 10590, Note_on_c, 3, 74, 95
5, 10595, Note_on_c, 3, 74, 0
5, 10596, Note_on_c, 3, 73, 95
5, 10601, Note_on_c, 3, 73, 0
5, 10602, Note_on_c, 3, 74, 95
5, 10607, Note_on_c, 3, 74, 0
5, 10608, Note_on_c, 3, 73, 95
5, 10613, Note_on_c, 3, 73, 0
5, 10614, Note_on_c, 3, 74, 95
5, 10619, Note_on_c, 3, 74, 0
5, 10620, Note_on_c, 3, 73, 95
5, 10625, Note_on_c, 3, 73, 0
5, 10626, Note_on_c, 3, 74, 95
5, 10631, Note_on_c, 3, 74, 0
5, 10632, Note_on_c, 3, 73, 95
5, 10637, Note_on_c, 3, 73, 0
5, 10638, Note_on_c, 3, 74, 95
5, 10643, Note_on_c, 3, 74, 0
5, 10644, Note_on_c, 3, 73, 95
5, 10656, Note_on_c, 3, 73, 0
5, 10656, Note_on_c, 3, 71, 95
5, 10661, Note_on_c, 3, 71, 0
5, 10662, Note_on_c, 3, 73, 95
5, 10667, Note_on_c, 3, 73, 0
5, 10668, Note_on_c, 3, 71, 95
5, 10673, Note_on_c, 3, 71, 0
5, 10674, Note_on_c, 3, 73, 95
5, 10679, Note_on_c, 3, 73, 0
5, 10680, Note_on_c, 3, 71, 95
5, 10685, Note_on_c, 3, 71, 0
5, 10686, Note_on_c, 3, 73, 95
5, 10691, Note_on_c, 3, 73, 0
5, 10692, Note_on_c, 3, 71, 95
5, 10697, Note_on_c, 3, 71, 0
5, 10698, Note_on_c, 3, 73, 95
5, 10703, Note_on_c, 3, 73, 0
5, 10704, Note_on_c, 3, 71, 95
5, 10709, Note_on_c, 3, 71, 0
5, 10710, Note_on_c, 3, 73, 95
5, 10715, Note_on_c, 3, 73, 0
5, 10716, Note_on_c, 3, 71, 95
5, 10721, Note_on_c, 3, 71, 0
5, 10722, Note_on_c, 3, 73, 95
5, 10727, Note_on_c, 3, 73, 0
5, 10728, Note_on_c, 3, 71, 95
5, 10733, Note_on_c, 3, 71, 0
5, 10734, Note_on_c, 3, 73, 95
5, 10739, Note_on_c, 3, 73, 0
5, 10740, Note_on_c, 3, 71, 95
5, 10752, Note_on_c, 3, 71, 0
5, 10752, Note_on_c, 3, 71, 85
5, 10764, Note_on_c, 3, 71, 0
5, 10768, Note_on_c, 3, 68, 52
5, 10780, Note_on_c, 3, 68, 0
5, 10784, Note_on_c, 3, 69, 85
5, 10796, Note_on_c, 3, 69, 0
5, 10800, Note_on_c, 3, 71, 85
5, 10812, Note_on_c, 3, 71, 0
5, 10816, Note_on_c, 3, 68, 68
5, 10828, Note_on_c, 3, 68, 0
5, 10832, Note_on_c, 3, 69, 85
5, 10844, Note_on_c, 3, 69, 0
5, 10848, Note_on_c, 3, 71, 85
5, 10944, Note_on_c, 3, 71, 0
5, 10944, Note_on_c, 3, 69, 85
5, 10992, Note_on_c, 3, 69, 0
5, 10992, Note_on_c, 3, 81, 85
5, 11088, Note_on_c, 3, 81, 0
5, 11088, Note_on_c, 3, 80, 67
5, 11184, Note_on_c, 3, 80, 0
5, 11184, Note_on_c, 3, 85, 88
5, 11280, Note_on_c, 3, 85, 0
5, 11280, Note_on_c, 3, 83, 85
5, 11316, Note_on_c, 3, 83, 0
5, 11316, Note_on_c, 3, 81, 85
5, 11328, Note_on_c, 3, 81, 0
5, 11328, Note_on_c, 3, 80, 57
5, 11472, Note_on_c, 3, 80, 0
5, 11472, Note_on_c, 3, 78, 59
5, 11508, Note_on_c, 3, 78, 0
5, 11508, Note_on_c, 3, 76, 81
5, 11520, Note_on_c, 3, 76, 0
5, 11520, Note_on_c, 3, 74, 85
5, 11664, Note_on_c, 3, 74, 0
5, 11664, Note_on_c, 3, 73, 66
5, 11700, Note_on_c, 3, 73, 0
5, 11700, Note_on_c, 3, 71, 85
5, 11712, Note_on_c, 3, 71, 0
5, 11712, Note_on_c, 3, 70, 61
5, 11760, Note_on_c, 3, 70, 0
5, 11844, Note_on_c, 3, 78, 72
5, 11856, Note_on_c, 3, 78, 0
5, 11856, Note_on_c, 3, 85, 95
5, 11892, Note_on_c, 3, 85, 0
5, 11892, Note_on_c, 3, 80, 72
5, 11904, Note_on_c, 3, 80, 0
5, 11904, Note_on_c, 3, 81, 67
5, 11920, Note_on_c, 3, 81, 0
5, 11920, Note_on_c, 3, 80, 62
5, 11936, Note_on_c, 3, 80, 0
5, 11936, Note_on_c, 3, 78, 52
5, 11952, Note_on_c, 3, 78, 0
5, 11952, Note_on_c, 3, 77, 50
5, 11968, Note_on_c, 3, 77, 0
5, 11968, Note_on_c, 3, 78, 55
5, 11984, Note_on_c, 3, 78, 0
5, 11984, Note_on_c, 3, 80, 61
5, 12000, Note_on_c, 3, 80, 0
5, 12000, Note_on_c, 3, 73, 66
5, 12048, Note_on_c, 3, 73, 0
5, 12048, Note_on_c, 3, 78, 76
5, 12120, Note_on_c, 3, 78, 0
5, 12132, Note_on_c, 3, 80, 62
5, 12144, Note_on_c, 3, 80, 0
5, 12144, Note_on_c, 3, 77, 85
5, 12180, Note_on_c, 3, 77, 0
5, 12180, Note_on_c, 3, 78, 57
5, 12192, Note_on_c, 3, 78, 0
5, 12192, Note_on_c, 3, 78, 89
5, 12384, Note_on_c, 3, 78, 0
5, 12420, Note_on_c, 3, 78, 70
5, 12432, Note_on_c, 3, 78, 0
5, 12432, Note_on_c, 3, 83, 85
5, 12468, Note_on_c, 3, 83, 0
5, 12468, Note_on_c, 3, 78, 85
5, 12480, Note_on_c, 3, 78, 0
5, 12480, Note_on_c, 3, 79, 85
5, 12496, Note_on_c, 3, 79, 0
5, 12496, Note_on_c, 3, 78, 85
5, 12512, Note_on_c, 3, 78, 0
5, 12512, Note_on_c, 3, 76, 85
5, 12528, Note_on_c, 3, 76, 0
5, 12528, Note_on_c, 3, 75, 85
5, 12544, Note_on_c, 3, 75, 0
5, 12544, Note_on_c, 3, 76, 85
5, 12560, Note_on_c, 3, 76, 0
5, 12560, Note_on_c, 3, 78, 85
5, 12576, Note_on_c, 3, 78, 0
5, 12576, Note_on_c, 3, 71, 85
5, 12592, Note_on_c, 3, 71, 0
5, 12592, Note_on_c, 3, 76, 85
5, 12608, Note_on_c, 3, 76, 0
5, 12608, Note_on_c, 3, 79, 85
5, 12624, Note_on_c, 3, 79, 0
5, 12624, Note_on_c, 3, 83, 85
5, 12640, Note_on_c, 3, 83, 0
5, 12640, Note_on_c, 3, 81, 85
5, 12656, Note_on_c, 3, 81, 0
5, 12656, Note_on_c, 3, 83, 85
5, 12672, Note_on_c, 3, 83, 0
5, 12672, Note_on_c, 3, 76, 85
5, 12688, Note_on_c, 3, 76, 0
5, 12688, Note_on_c, 3, 74, 85
5, 12704, Note_on_c, 3, 74, 0
5, 12704, Note_on_c, 3, 73, 85
5, 12720, Note_on_c, 3, 73, 0
5, 12720, Note_on_c, 3, 74, 85
5, 12784, Note_on_c, 3, 73, 85
5, 12792, Note_on_c, 3, 74, 0
5, 12800, Note_on_c, 3, 73, 0
5, 12800, Note_on_c, 3, 76, 85
5, 12816, Note_on_c, 3, 76, 0
5, 12816, Note_on_c, 3, 81, 85
5, 12852, Note_on_c, 3, 81, 0
5, 12852, Note_on_c, 3, 76, 85
5, 12864, Note_on_c, 3, 76, 0
5, 12864, Note_on_c, 3, 78, 85
5, 12880, Note_on_c, 3, 78, 0
5, 12880, Note_on_c, 3, 76, 85
5, 12896, Note_on_c, 3, 76, 0
5, 12896, Note_on_c, 3, 74, 85
5, 12912, Note_on_c, 3, 74, 0
5, 12912, Note_on_c, 3, 73, 85
5, 12928, Note_on_c, 3, 73, 0
5, 12928, Note_on_c, 3, 74, 85
5, 12944, Note_on_c, 3, 74, 0
5, 12944, Note_on_c, 3, 76, 85
5, 12960, Note_on_c, 3, 76, 0
5, 12960, Note_on_c, 3, 69, 85
5, 12996, Note_on_c, 3, 69, 0
5, 12996, Note_on_c, 3, 68, 85
5, 13008, Note_on_c, 3, 68, 0
5, 13008, Note_on_c, 3, 66, 85
5, 13024, Note_on_c, 3, 66, 0
5, 13024, Note_on_c, 3, 69, 85
5, 13040, Note_on_c, 3, 69, 0
5, 13040, Note_on_c, 3, 74, 85
5, 13056, Note_on_c, 3, 74, 0
5, 13056, Note_on_c, 3, 74, 85
5, 13092, Note_on_c, 3, 74, 0
5, 13092, Note_on_c, 3, 73, 85
5, 13095, Note_on_c, 3, 73, 0
5, 13096, Note_on_c, 3, 71, 85
5, 13099, Note_on_c, 3, 71, 0
5, 13100, Note_on_c, 3, 69, 85
5, 13103, Note_on_c, 3, 69, 0
5, 13104, Note_on_c, 3, 68, 85
5, 13115, Note_on_c, 3, 68, 0
5, 13120, Note_on_c, 3, 71, 85
5, 13136, Note_on_c, 3, 71, 0
5, 13136, Note_on_c, 3, 76, 85
5, 13152, Note_on_c, 3, 76, 0
5, 13152, Note_on_c, 3, 76, 85
5, 13188, Note_on_c, 3, 76, 0
5, 13188, Note_on_c, 3, 74, 85
5, 13192, Note_on_c, 3, 74, 0
5, 13192, Note_on_c, 3, 73, 85
5, 13196, Note_on_c, 3, 73, 0
5, 13196, Note_on_c, 3, 71, 85
5, 13200, Note_on_c, 3, 71, 0
5, 13200, Note_on_c, 3, 69, 85
5, 13216, Note_on_c, 3, 69, 0
5, 13216, Note_on_c, 3, 73, 85
5, 13232, Note_on_c, 3, 73, 0
5, 13232, Note_on_c, 3, 78, 85
5, 13248, Note_on_c, 3, 78, 0
5, 13248, Note_on_c, 3, 78, 85
5, 13284, Note_on_c, 3, 78, 0
5, 13284, Note_on_c, 3, 76, 85
5, 13288, Note_on_c, 3, 76, 0
5, 13288, Note_on_c, 3, 74, 85
5, 13292, Note_on_c, 3, 74, 0
5, 13292, Note_on_c, 3, 73, 85
5, 13296, Note_on_c, 3, 73, 0
5, 13296, Note_on_c, 3, 71, 85
5, 13312, Note_on_c, 3, 71, 0
5, 13312, Note_on_c, 3, 74, 85
5, 13328, Note_on_c, 3, 74, 0
5, 13328, Note_on_c, 3, 80, 85
5, 13344, Note_on_c, 3, 80, 0
5, 13344, Note_on_c, 3, 80, 85
5, 13380, Note_on_c, 3, 80, 0
5, 13380, Note_on_c, 3, 78, 85
5, 13384, Note_on_c, 3, 78, 0
5, 13384, Note_on_c, 3, 76, 85
5, 13388, Note_on_c, 3, 76, 0
5, 13388, Note_on_c, 3, 74, 85
5, 13392, Note_on_c, 3, 74, 0
5, 13392, Note_on_c, 3, 73, 85
5, 13408, Note_on_c, 3, 73, 0
5, 13408, Note_on_c, 3, 76, 85
5, 13424, Note_on_c, 3, 76, 0
5, 13424, Note_on_c, 3, 81, 85
5, 13440, Note_on_c, 3, 81, 0
5, 13440, Note_on_c, 3, 81, 85
5, 13476, Note_on_c, 3, 81, 0
5, 13476, Note_on_c, 3, 79, 85
5, 13480, Note_on_c, 3, 79, 0
5, 13480, Note_on_c, 3, 78, 85
5, 13484, Note_on_c, 3, 78, 0
5, 13484, Note_on_c, 3, 76, 85
5, 13488, Note_on_c, 3, 76, 0
5, 13488, Note_on_c, 3, 74, 85
5, 13504, Note_on_c, 3, 74, 0
5, 13504, Note_on_c, 3, 78, 85
5, 13520, Note_on_c, 3, 78, 0
5, 13520, Note_on_c, 3, 83, 85
5, 13536, Note_on_c, 3, 83, 0
5, 13536, Note_on_c, 3, 76, 85
5, 13552, Note_on_c, 3, 76, 0
5, 13552, Note_on_c, 3, 78, 85
5, 13568, Note_on_c, 3, 78, 0
5, 13568, Note_on_c, 3, 80, 85
5, 13584, Note_on_c, 3, 80, 0
5, 13584, Note_on_c, 3, 81, 85
5, 13728, Note_on_c, 3, 81, 0
5, 13728, Note_on_c, 3, 81, 85
5, 13824, Note_on_c, 3, 81, 0
5, 13824, Note_on_c, 3, 81, 85
5, 13840, Note_on_c, 3, 81, 0
5, 13840, Note_on_c, 3, 80, 85
5, 13856, Note_on_c, 3, 80, 0
5, 13856, Note_on_c, 3, 78, 85
5, 13872, Note_on_c, 3, 78, 0
5, 13872, Note_on_c, 3, 83, 85
5, 13888, Note_on_c, 3, 83, 0
5, 13888, Note_on_c, 3, 85, 85
5, 13904, Note_on_c, 3, 85, 0
5, 13904, Note_on_c, 3, 81, 85
5, 13920, Note_on_c, 3, 81, 0
5, 13920, Note_on_c, 3, 80, 85
5, 13936, Note_on_c, 3, 80, 0
5, 13936, Note_on_c, 3, 78, 85
5, 13952, Note_on_c, 3, 78, 0
5, 13952, Note_on_c, 3, 76, 85
5, 13968, Note_on_c, 3, 76, 0
5, 13968, Note_on_c, 3, 81, 85
5, 14004, Note_on_c, 3, 81, 0
5, 14004, Note_on_c, 3, 74, 85
5, 14016, Note_on_c, 3, 74, 0
5, 14016, Note_on_c, 3, 73, 85
5, 14040, Note_on_c, 3, 73, 0
5, 14064, Note_on_c, 3, 71, 85
5, 14070, Note_on_c, 3, 71, 0
5, 14070, Note_on_c, 3, 73, 85
5, 14076, Note_on_c, 3, 73, 0
5, 14076, Note_on_c, 3, 71, 85
5, 14082, Note_on_c, 3, 71, 0
5, 14082, Note_on_c, 3, 73, 85
5, 14088, Note_on_c, 3, 73, 0
5, 14088, Note_on_c, 3, 71, 85
5, 14094, Note_on_c, 3, 71, 0
5, 14112, Control_c, 3, 7, 87
5, 14112, Note_on_c, 3, 69, 85
5, 14128, Note_on_c, 3, 69, 0
5, 14128, Note_on_c, 3, 73, 85
5, 14144, Note_on_c, 3, 73, 0
5, 14144, Note_on_c, 3, 76, 85
5, 14160, Note_on_c, 3, 76, 0
5, 14160, Control_c, 3, 7, 87
5, 14160, Note_on_c, 3, 76, 85
5, 14176, Note_on_c, 3, 76, 0
5, 14176, Note_on_c, 3, 74, 85
5, 14192, Note_on_c, 3, 74, 0
5, 14192, Note_on_c, 3, 76, 85
5, 14208, Note_on_c, 3, 76, 0
5, 14208, Note_on_c, 3, 69, 85
5, 14224, Note_on_c, 3, 69, 0
5, 14224, Note_on_c, 3, 73, 85
5, 14240, Note_on_c, 3, 73, 0
5, 14240, Note_on_c, 3, 76, 85
5, 14256, Note_on_c, 3, 76, 0
5, 14256, Note_on_c, 3, 76, 85
5, 14272, Note_on_c, 3, 76, 0
5, 14272, Note_on_c, 3, 74, 85
5, 14288, Note_on_c, 3, 74, 0
5, 14288, Note_on_c, 3, 76, 85
5, 14304, Note_on_c, 3, 76, 0
5, 14304, Note_on_c, 3, 69, 85
5, 14320, Note_on_c, 3, 69, 0
5, 14320, Note_on_c, 3, 73, 49
5, 14336, Note_on_c, 3, 73, 0
5, 14336, Note_on_c, 3, 74, 85
5, 14352, Note_on_c, 3, 74, 0
5, 14352, Note_on_c, 3, 74, 85
5, 14368, Note_on_c, 3, 74, 0
5, 14368, Note_on_c, 3, 73, 50
5, 14384, Note_on_c, 3, 73, 0
5, 14384, Note_on_c, 3, 74, 85
5, 14400, Note_on_c, 3, 74, 0
5, 14400, Note_on_c, 3, 68, 62
5, 14416, Note_on_c, 3, 68, 0
5, 14416, Note_on_c, 3, 71, 67
5, 14432, Note_on_c, 3, 71, 0
5, 14432, Note_on_c, 3, 74, 85
5, 14448, Note_on_c, 3, 74, 0
5, 14448, Note_on_c, 3, 74, 85
5, 14464, Note_on_c, 3, 74, 0
5, 14464, Note_on_c, 3, 73, 66
5, 14480, Note_on_c, 3, 73, 0
5, 14480, Note_on_c, 3, 74, 85
5, 14496, Note_on_c, 3, 74, 0
5, 14496, Note_on_c, 3, 69, 85
5, 14512, Note_on_c, 3, 69, 0
5, 14512, Note_on_c, 3, 73, 47
5, 14528, Note_on_c, 3, 73, 0
5, 14528, Note_on_c, 3, 76, 85
5, 14544, Note_on_c, 3, 76, 0
5, 14544, Note_on_c, 3, 76, 62
5, 14560, Note_on_c, 3, 76, 0
5, 14560, Note_on_c, 3, 74, 85
5, 14576, Note_on_c, 3, 74, 0
5, 14576, Note_on_c, 3, 76, 85
5, 14592, Note_on_c, 3, 76, 0
5, 14592, Note_on_c, 3, 71, 74
5, 14608, Note_on_c, 3, 71, 0
5, 14608, Note_on_c, 3, 74, 76
5, 14624, Note_on_c, 3, 74, 0
5, 14624, Note_on_c, 3, 78, 69
5, 14640, Note_on_c, 3, 78, 0
5, 14640, Note_on_c, 3, 78, 64
5, 14656, Note_on_c, 3, 78, 0
5, 14656, Note_on_c, 3, 76, 76
5, 14672, Note_on_c, 3, 76, 0
5, 14672, Note_on_c, 3, 78, 55
5, 14688, Note_on_c, 3, 78, 0
5, 14688, Note_on_c, 3, 68, 59
5, 14704, Note_on_c, 3, 68, 0
5, 14704, Note_on_c, 3, 64, 56
5, 14720, Note_on_c, 3, 64, 0
5, 14720, Note_on_c, 3, 74, 85
5, 14736, Note_on_c, 3, 74, 0
5, 14736, Note_on_c, 3, 73, 61
5, 14752, Note_on_c, 3, 73, 0
5, 14752, Note_on_c, 3, 74, 85
5, 14768, Note_on_c, 3, 74, 0
5, 14768, Note_on_c, 3, 71, 85
5, 14784, Note_on_c, 3, 71, 0
5, 14784, Note_on_c, 3, 69, 85
5, 14808, Note_on_c, 3, 69, 0
5, 15012, Note_on_c, 3, 71, 85
5, 15024, Note_on_c, 3, 71, 0
5, 15024, Note_on_c, 3, 76, 85
5, 15060, Note_on_c, 3, 76, 0
5, 15060, Note_on_c, 3, 71, 72
5, 15072, Note_on_c, 3, 71, 0
5, 15072, Note_on_c, 3, 72, 61
5, 15088, Note_on_c, 3, 72, 0
5, 15088, Note_on_c, 3, 71, 70
5, 15104, Note_on_c, 3, 71, 0
5, 15104, Note_on_c, 3, 69, 85
5, 15120, Note_on_c, 3, 69, 0
5, 15120, Note_on_c, 3, 67, 84
5, 15136, Note_on_c, 3, 67, 0
5, 15136, Note_on_c, 3, 69, 76
5, 15152, Note_on_c, 3, 69, 0
5, 15152, Note_on_c, 3, 71, 85
5, 15168, Note_on_c, 3, 71, 0
5, 15168, Note_on_c, 3, 64, 85
5, 15192, Note_on_c, 3, 64, 0
5, 15396, Note_on_c, 3, 66, 62
5, 15408, Note_on_c, 3, 66, 0
5, 15408, Note_on_c, 3, 71, 52
5, 15444, Note_on_c, 3, 71, 0
5, 15444, Note_on_c, 3, 66, 66
5, 15456, Note_on_c, 3, 66, 0
5, 15456, Note_on_c, 3, 67, 79
5, 15472, Note_on_c, 3, 67, 0
5, 15472, Note_on_c, 3, 66, 52
5, 15488, Note_on_c, 3, 66, 0
5, 15488, Note_on_c, 3, 64, 76
5, 15504, Note_on_c, 3, 64, 0
5, 15504, Note_on_c, 3, 62, 85
5, 15520, Note_on_c, 3, 62, 0
5, 15520, Note_on_c, 3, 64, 85
5, 15536, Note_on_c, 3, 64, 0
5, 15536, Note_on_c, 3, 66, 62
5, 15552, Note_on_c, 3, 66, 0
5, 15552, Note_on_c, 3, 71, 85
5, 15576, Note_on_c, 3, 71, 0
5, 16932, Note_on_c, 3, 73, 65
5, 16944, Note_on_c, 3, 73, 0
5, 16944, Note_on_c, 3, 78, 59
5, 16980, Note_on_c, 3, 78, 0
5, 16980, Note_on_c, 3, 73, 68
5, 16992, Note_on_c, 3, 73, 0
5, 16992, Note_on_c, 3, 75, 70
5, 17040, Note_on_c, 3, 75, 0
5, 17124, Note_on_c, 3, 71, 85
5, 17136, Note_on_c, 3, 71, 0
5, 17136, Note_on_c, 3, 76, 85
5, 17172, Note_on_c, 3, 76, 0
5, 17172, Note_on_c, 3, 71, 85
5, 17184, Note_on_c, 3, 71, 0
5, 17184, Note_on_c, 3, 73, 66
5, 17232, Note_on_c, 3, 73, 0
5, 17316, Note_on_c, 3, 69, 85
5, 17328, Note_on_c, 3, 69, 0
5, 17328, Note_on_c, 3, 74, 85
5, 17364, Note_on_c, 3, 74, 0
5, 17364, Note_on_c, 3, 69, 85
5, 17376, Note_on_c, 3, 69, 0
5, 17376, Note_on_c, 3, 71, 53
5, 17392, Note_on_c, 3, 71, 0
5, 17392, Note_on_c, 3, 69, 85
5, 17408, Note_on_c, 3, 69, 0
5, 17408, Note_on_c, 3, 67, 74
5, 17424, Note_on_c, 3, 67, 0
5, 17424, Note_on_c, 3, 66, 52
5, 17440, Note_on_c, 3, 66, 0
5, 17440, Note_on_c, 3, 67, 85
5, 17456, Note_on_c, 3, 67, 0
5, 17456, Note_on_c, 3, 69, 85
5, 17472, Note_on_c, 3, 69, 0
5, 17472, Note_on_c, 3, 62, 85
5, 17520, Note_on_c, 3, 62, 0
5, 18048, Note_on_c, 3, 76, 57
5, 18064, Note_on_c, 3, 76, 0
5, 18064, Note_on_c, 3, 73, 48
5, 18080, Note_on_c, 3, 73, 0
5, 18080, Note_on_c, 3, 74, 88
5, 18096, Note_on_c, 3, 74, 0
5, 18096, Note_on_c, 3, 76, 80
5, 18112, Note_on_c, 3, 76, 0
5, 18112, Note_on_c, 3, 73, 54
5, 18128, Note_on_c, 3, 73, 0
5, 18128, Note_on_c, 3, 74, 77
5, 18144, Note_on_c, 3, 74, 0
5, 18144, Note_on_c, 3, 76, 60
5, 18240, Note_on_c, 3, 76, 0
5, 18240, Note_on_c, 3, 76, 66
5, 18256, Note_on_c, 3, 76, 0
5, 18256, Note_on_c, 3, 79, 88
5, 18272, Note_on_c, 3, 79, 0
5, 18272, Note_on_c, 3, 78, 37
5, 18288, Note_on_c, 3, 78, 0
5, 18288, Note_on_c, 3, 76, 59
5, 18304, Note_on_c, 3, 76, 0
5, 18304, Note_on_c, 3, 79, 72
5, 18320, Note_on_c, 3, 79, 0
5, 18320, Note_on_c, 3, 78, 62
5, 18336, Note_on_c, 3, 78, 0
5, 18336, Note_on_c, 3, 76, 80
5, 18360, Note_on_c, 3, 76, 0
5, 18468, Note_on_c, 3, 78, 65
5, 18480, Note_on_c, 3, 78, 0
5, 18480, Note_on_c, 3, 83, 76
5, 18552, Note_on_c, 3, 83, 0
5, 18564, Note_on_c, 3, 76, 85
5, 18576, Note_on_c, 3, 76, 0
5, 18576, Note_on_c, 3, 81, 88
5, 18648, Note_on_c, 3, 81, 0
5, 18660, Note_on_c, 3, 83, 88
5, 18672, Note_on_c, 3, 83, 0
5, 18672, Note_on_c, 3, 80, 74
5, 18744, Note_on_c, 3, 80, 0
5, 18756, Note_on_c, 3, 81, 88
5, 18768, Note_on_c, 3, 81, 0
5, 18768, Note_on_c, 3, 78, 63
5, 18804, Note_on_c, 3, 78, 0
5, 18804, Note_on_c, 3, 80, 71
5, 18816, Note_on_c, 3, 80, 0
5, 18816, Note_on_c, 3, 77, 88
5, 18852, Note_on_c, 3, 77, 0
5, 18852, Note_on_c, 3, 78, 66
5, 18864, Note_on_c, 3, 78, 0
5, 18864, Note_on_c, 3, 78, 60
5, 18870, Note_on_c, 3, 78, 0
5, 18870, Note_on_c, 3, 80, 44
5, 18876, Note_on_c, 3, 80, 0
5, 18876, Note_on_c, 3, 78, 46
5, 18882, Note_on_c, 3, 78, 0
5, 18882, Note_on_c, 3, 80, 50
5, 18888, Note_on_c, 3, 80, 0
5, 18888, Note_on_c, 3, 78, 48
5, 18894, Note_on_c, 3, 78, 0
5, 18894, Note_on_c, 3, 80, 43
5, 18900, Note_on_c, 3, 80, 0
5, 18900, Note_on_c, 3, 77, 57
5, 18906, Note_on_c, 3, 77, 0
5, 18906, Note_on_c, 3, 78, 44
5, 18912, Note_on_c, 3, 78, 0
5, 18912, Note_on_c, 3, 80, 66
5, 18984, Note_on_c, 3, 80, 0
5, 18996, Note_on_c, 3, 73, 57
5, 19008, Note_on_c, 3, 73, 0
5, 19008, Note_on_c, 3, 81, 88
5, 19104, Note_on_c, 3, 81, 0
5, 19104, Note_on_c, 3, 81, 74
5, 19120, Note_on_c, 3, 81, 0
5, 19120, Note_on_c, 3, 80, 62
5, 19136, Note_on_c, 3, 80, 0
5, 19136, Note_on_c, 3, 78, 56
5, 19152, Note_on_c, 3, 78, 0
5, 19152, Note_on_c, 3, 80, 65
5, 19168, Note_on_c, 3, 80, 0
5, 19168, Note_on_c, 3, 81, 88
5, 19184, Note_on_c, 3, 81, 0
5, 19184, Note_on_c, 3, 83, 88
5, 19200, Note_on_c, 3, 83, 0
5, 19200, Note_on_c, 3, 85, 65
5, 19296, Note_on_c, 3, 85, 0
5, 19296, Note_on_c, 3, 85, 66
5, 19312, Note_on_c, 3, 85, 0
5, 19312, Note_on_c, 3, 83, 80
5, 19328, Note_on_c, 3, 83, 0
5, 19328, Note_on_c, 3, 81, 52
5, 19344, Note_on_c, 3, 81, 0
5, 19344, Note_on_c, 3, 83, 88
5, 19360, Note_on_c, 3, 83, 0
5, 19360, Note_on_c, 3, 85, 59
5, 19376, Note_on_c, 3, 85, 0
5, 19376, Note_on_c, 3, 86, 88
5, 19392, Note_on_c, 3, 86, 0
5, 19392, Note_on_c, 3, 77, 81
5, 19440, Note_on_c, 3, 77, 0
5, 19440, Note_on_c, 3, 76, 88
5, 19504, Note_on_c, 3, 74, 65
5, 19512, Note_on_c, 3, 76, 0
5, 19520, Note_on_c, 3, 74, 0
5, 19520, Note_on_c, 3, 73, 60
5, 19536, Note_on_c, 3, 73, 0
5, 19536, Note_on_c, 3, 74, 77
5, 19552, Note_on_c, 3, 74, 0
5, 19552, Note_on_c, 3, 76, 80
5, 19568, Note_on_c, 3, 76, 0
5, 19568, Note_on_c, 3, 78, 62
5, 19584, Note_on_c, 3, 78, 0
5, 19584, Note_on_c, 3, 73, 59
5, 19632, Note_on_c, 3, 73, 0
5, 19632, Note_on_c, 3, 72, 88
5, 19696, Note_on_c, 3, 71, 60
5, 19704, Note_on_c, 3, 72, 0
5, 19712, Note_on_c, 3, 71, 0
5, 19712, Note_on_c, 3, 69, 76
5, 19728, Note_on_c, 3, 69, 0
5, 19728, Note_on_c, 3, 67, 80
5, 19744, Note_on_c, 3, 67, 0
5, 19744, Note_on_c, 3, 66, 63
5, 19760, Note_on_c, 3, 66, 0
5, 19760, Note_on_c, 3, 64, 71
5, 19776, Note_on_c, 3, 64, 0
5, 19776, Note_on_c, 3, 66, 74
5, 19872, Note_on_c, 3, 66, 0
5, 19872, Note_on_c, 3, 66, 59
5, 19888, Note_on_c, 3, 66, 0
5, 19888, Note_on_c, 3, 64, 62
5, 19904, Note_on_c, 3, 64, 0
5, 19904, Note_on_c, 3, 66, 52
5, 19920, Note_on_c, 3, 66, 0
5, 19920, Note_on_c, 3, 67, 48
5, 19936, Note_on_c, 3, 67, 0
5, 19936, Note_on_c, 3, 69, 69
5, 19952, Note_on_c, 3, 69, 0
5, 19952, Note_on_c, 3, 71, 80
5, 19968, Note_on_c, 3, 71, 0
5, 19968, Note_on_c, 3, 72, 88
5, 20064, Note_on_c, 3, 72, 0
5, 20064, Note_on_c, 3, 72, 78
5, 20080, Note_on_c, 3, 72, 0
5, 20080, Note_on_c, 3, 71, 74
5, 20096, Note_on_c, 3, 71, 0
5, 20096, Note_on_c, 3, 72, 81
5, 20112, Note_on_c, 3, 72, 0
5, 20112, Note_on_c, 3, 74, 78
5, 20128, Note_on_c, 3, 74, 0
5, 20128, Note_on_c, 3, 76, 87
5, 20144, Note_on_c, 3, 76, 0
5, 20144, Note_on_c, 3, 78, 65
5, 20160, Note_on_c, 3, 78, 0
5, 20160, Note_on_c, 3, 79, 88
5, 20224, Note_on_c, 3, 81, 49
5, 20232, Note_on_c, 3, 79, 0
5, 20240, Note_on_c, 3, 81, 0
5, 20240, Note_on_c, 3, 79, 80
5, 20256, Note_on_c, 3, 79, 0
5, 20256, Note_on_c, 3, 78, 49
5, 20304, Note_on_c, 3, 78, 0
5, 20304, Note_on_c, 3, 79, 88
5, 20368, Note_on_c, 3, 78, 57
5, 20376, Note_on_c, 3, 79, 0
5, 20384, Note_on_c, 3, 78, 0
5, 20384, Note_on_c, 3, 76, 80
5, 20400, Note_on_c, 3, 76, 0
5, 20400, Note_on_c, 3, 78, 57
5, 20416, Note_on_c, 3, 78, 0
5, 20416, Note_on_c, 3, 79, 56
5, 20432, Note_on_c, 3, 79, 0
5, 20432, Note_on_c, 3, 76, 88
5, 20448, Note_on_c, 3, 76, 0
5, 20448, Note_on_c, 3, 75, 69
5, 20496, Note_on_c, 3, 75, 0
5, 20496, Note_on_c, 3, 76, 78
5, 20560, Note_on_c, 3, 75, 54
5, 20568, Note_on_c, 3, 76, 0
5, 20576, Note_on_c, 3, 75, 0
5, 20576, Note_on_c, 3, 73, 55
5, 20592, Note_on_c, 3, 73, 0
5, 20592, Note_on_c, 3, 75, 63
5, 20608, Note_on_c, 3, 75, 0
5, 20608, Note_on_c, 3, 76, 88
5, 20624, Note_on_c, 3, 76, 0
5, 20624, Note_on_c, 3, 73, 57
5, 20640, Note_on_c, 3, 73, 0
5, 20640, Note_on_c, 3, 71, 88
5, 20704, Note_on_c, 3, 73, 69
5, 20712, Note_on_c, 3, 71, 0
5, 20720, Note_on_c, 3, 73, 0
5, 20720, Note_on_c, 3, 71, 88
5, 20736, Note_on_c, 3, 71, 0
5, 20736, Note_on_c, 3, 70, 56
5, 20752, Note_on_c, 3, 70, 0
5, 20752, Note_on_c, 3, 68, 67
5, 20768, Note_on_c, 3, 68, 0
5, 20768, Note_on_c, 3, 70, 56
5, 20784, Note_on_c, 3, 70, 0
5, 20784, Note_on_c, 3, 71, 66
5, 20800, Note_on_c, 3, 71, 0
5, 20800, Note_on_c, 3, 73, 69
5, 20816, Note_on_c, 3, 73, 0
5, 20816, Note_on_c, 3, 74, 88
5, 20832, Note_on_c, 3, 74, 0
5, 20832, Note_on_c, 3, 76, 78
5, 20848, Note_on_c, 3, 76, 0
5, 20848, Note_on_c, 3, 78, 60
5, 20864, Note_on_c, 3, 78, 0
5, 20864, Note_on_c, 3, 76, 59
5, 20880, Note_on_c, 3, 76, 0
5, 20880, Note_on_c, 3, 74, 88
5, 20896, Note_on_c, 3, 74, 0
5, 20896, Note_on_c, 3, 73, 56
5, 20912, Note_on_c, 3, 73, 0
5, 20912, Note_on_c, 3, 71, 88
5, 20928, Note_on_c, 3, 71, 0
5, 20928, Note_on_c, 3, 70, 57
5, 20944, Note_on_c, 3, 70, 0
5, 20944, Note_on_c, 3, 68, 63
5, 20960, Note_on_c, 3, 68, 0
5, 20960, Note_on_c, 3, 70, 65
5, 20976, Note_on_c, 3, 70, 0
5, 20976, Note_on_c, 3, 71, 83
5, 20992, Note_on_c, 3, 71, 0
5, 20992, Note_on_c, 3, 73, 65
5, 21008, Note_on_c, 3, 73, 0
5, 21008, Note_on_c, 3, 74, 80
5, 21024, Note_on_c, 3, 74, 0
5, 21024, Note_on_c, 3, 73, 60
5, 21088, Note_on_c, 3, 74, 88
5, 21096, Note_on_c, 3, 73, 0
5, 21104, Note_on_c, 3, 74, 0
5, 21104, Note_on_c, 3, 76, 88
5, 21120, Note_on_c, 3, 76, 0
5, 21120, Note_on_c, 3, 74, 88
5, 21136, Note_on_c, 3, 74, 0
5, 21136, Note_on_c, 3, 76, 71
5, 21152, Note_on_c, 3, 76, 0
5, 21152, Note_on_c, 3, 78, 62
5, 21168, Note_on_c, 3, 78, 0
5, 21168, Note_on_c, 3, 76, 88
5, 21240, Note_on_c, 3, 76, 0
5, 21252, Note_on_c, 3, 74, 88
5, 21264, Note_on_c, 3, 74, 0
5, 21264, Note_on_c, 3, 73, 60
5, 21328, Note_on_c, 3, 70, 44
5, 21336, Note_on_c, 3, 73, 0
5, 21344, Note_on_c, 3, 70, 0
5, 21344, Note_on_c, 3, 71, 78
5, 21360, Note_on_c, 3, 71, 0
5, 21360, Note_on_c, 3, 78, 52
5, 21396, Note_on_c, 3, 78, 0
5, 21396, Note_on_c, 3, 73, 49
5, 21408, Note_on_c, 3, 73, 0
5, 21408, Note_on_c, 3, 74, 83
5, 21424, Note_on_c, 3, 74, 0
5, 21424, Note_on_c, 3, 73, 65
5, 21440, Note_on_c, 3, 73, 0
5, 21440, Note_on_c, 3, 71, 88
5, 21456, Note_on_c, 3, 71, 0
5, 21456, Note_on_c, 3, 70, 70
5, 21472, Note_on_c, 3, 70, 0
5, 21472, Note_on_c, 3, 71, 88
5, 21488, Note_on_c, 3, 71, 0
5, 21488, Note_on_c, 3, 73, 70
5, 21504, Note_on_c, 3, 73, 0
5, 21504, Note_on_c, 3, 66, 57
5, 21552, Note_on_c, 3, 66, 0
5, 21552, Note_on_c, 3, 71, 88
5, 21648, Note_on_c, 3, 71, 0
5, 21648, Note_on_c, 3, 73, 62
5, 21744, Note_on_c, 3, 73, 0
5, 21744, Note_on_c, 3, 74, 88
5, 21840, Note_on_c, 3, 74, 0
5, 21840, Note_on_c, 3, 76, 80
5, 21924, Note_on_c, 3, 79, 88
5, 21936, Note_on_c, 3, 76, 0
5, 21936, Note_on_c, 3, 79, 0
5, 21936, Note_on_c, 3, 78, 69
5, 21972, Note_on_c, 3, 78, 0
5, 21972, Note_on_c, 3, 76, 88
5, 21984, Note_on_c, 3, 76, 0
5, 21984, Note_on_c, 3, 74, 88
5, 22020, Note_on_c, 3, 74, 0
5, 22020, Note_on_c, 3, 76, 88
5, 22032, Note_on_c, 3, 76, 0
5, 22032, Note_on_c, 3, 78, 57
5, 22068, Note_on_c, 3, 78, 0
5, 22068, Note_on_c, 3, 79, 76
5, 22080, Note_on_c, 3, 79, 0
5, 22080, Note_on_c, 3, 74, 88
5, 22104, Note_on_c, 3, 74, 0
5, 22128, Note_on_c, 3, 73, 60
5, 22134, Note_on_c, 3, 73, 0
5, 22134, Note_on_c, 3, 74, 82
5, 22140, Note_on_c, 3, 74, 0
5, 22140, Note_on_c, 3, 73, 46
5, 22146, Note_on_c, 3, 73, 0
5, 22146, Note_on_c, 3, 74, 80
5, 22152, Note_on_c, 3, 74, 0
5, 22176, Note_on_c, 3, 71, 88
5, 22224, Note_on_c, 3, 71, 0
5, 22272, Control_c, 3, 10, 18
5, 22272, Control_c, 3, 7, 96
5, 22272, Pitch_bend_c, 3, 8192
5, 22272, Control_c, 3, 1, 0
5, 22272, Program_c, 3, 73
5, 22272, Control_c, 3, 64, 0
5, 22500, Note_on_c, 3, 74, 95
5, 22510, Note_on_c, 3, 74, 0
5, 22512, Note_on_c, 3, 81, 95
5, 22543, Note_on_c, 3, 81, 0
5, 22548, Note_on_c, 3, 76, 95
5, 22558, Note_on_c, 3, 76, 0
5, 22560, Note_on_c, 3, 78, 95
5, 22574, Note_on_c, 3, 78, 0
5, 22576, Note_on_c, 3, 76, 95
5, 22590, Note_on_c, 3, 76, 0
5, 22592, Note_on_c, 3, 74, 95
5, 22606, Note_on_c, 3, 74, 0
5, 22608, Note_on_c, 3, 73, 95
5, 22622, Note_on_c, 3, 73, 0
5, 22624, Note_on_c, 3, 74, 95
5, 22638, Note_on_c, 3, 74, 0
5, 22640, Note_on_c, 3, 76, 95
5, 22654, Note_on_c, 3, 76, 0
5, 22656, Note_on_c, 3, 69, 95
5, 22677, Note_on_c, 3, 69, 0
5, 22704, Note_on_c, 3, 66, 95
5, 22725, Note_on_c, 3, 66, 0
5, 22752, Note_on_c, 3, 67, 95
5, 22773, Note_on_c, 3, 67, 0
5, 22800, Note_on_c, 3, 69, 95
5, 22821, Note_on_c, 3, 69, 0
5, 22848, Note_on_c, 3, 71, 95
5, 22862, Note_on_c, 3, 71, 0
5, 22864, Note_on_c, 3, 74, 95
5, 22878, Note_on_c, 3, 74, 0
5, 22880, Note_on_c, 3, 78, 95
5, 22894, Note_on_c, 3, 78, 0
5, 22896, Note_on_c, 3, 78, 95
5, 22910, Note_on_c, 3, 78, 0
5, 22912, Note_on_c, 3, 76, 95
5, 22926, Note_on_c, 3, 76, 0
5, 22928, Note_on_c, 3, 78, 95
5, 22942, Note_on_c, 3, 78, 0
5, 22944, Note_on_c, 3, 74, 95
5, 22958, Note_on_c, 3, 74, 0
5, 22960, Note_on_c, 3, 79, 95
5, 22974, Note_on_c, 3, 79, 0
5, 22976, Note_on_c, 3, 78, 95
5, 22990, Note_on_c, 3, 78, 0
5, 22992, Note_on_c, 3, 76, 95
5, 23006, Note_on_c, 3, 76, 0
5, 23008, Note_on_c, 3, 81, 95
5, 23022, Note_on_c, 3, 81, 0
5, 23024, Note_on_c, 3, 79, 95
5, 23038, Note_on_c, 3, 79, 0
5, 23040, Note_on_c, 3, 78, 95
5, 23054, Note_on_c, 3, 78, 0
5, 23056, Note_on_c, 3, 81, 95
5, 23070, Note_on_c, 3, 81, 0
5, 23072, Note_on_c, 3, 79, 95
5, 23086, Note_on_c, 3, 79, 0
5, 23088, Note_on_c, 3, 78, 95
5, 23102, Note_on_c, 3, 78, 0
5, 23104, Note_on_c, 3, 81, 95
5, 23118, Note_on_c, 3, 81, 0
5, 23120, Note_on_c, 3, 79, 95
5, 23134, Note_on_c, 3, 79, 0
5, 23136, Note_on_c, 3, 78, 95
5, 23167, Note_on_c, 3, 78, 0
5, 23172, Note_on_c, 3, 81, 95
5, 23182, Note_on_c, 3, 81, 0
5, 23184, Note_on_c, 3, 81, 95
5, 23215, Note_on_c, 3, 81, 0
5, 23220, Note_on_c, 3, 79, 95
5, 23230, Note_on_c, 3, 79, 0
5, 23232, Note_on_c, 3, 78, 95
5, 23263, Note_on_c, 3, 78, 0
5, 23268, Note_on_c, 3, 69, 95
5, 23278, Note_on_c, 3, 69, 0
5, 23280, Note_on_c, 3, 76, 95
5, 23311, Note_on_c, 3, 76, 0
5, 23316, Note_on_c, 3, 69, 95
5, 23326, Note_on_c, 3, 69, 0
5, 23328, Note_on_c, 3, 78, 95
5, 23349, Note_on_c, 3, 78, 0
5, 23376, Note_on_c, 3, 80, 95
5, 23397, Note_on_c, 3, 80, 0
5, 23424, Note_on_c, 3, 81, 95
5, 23591, Note_on_c, 3, 81, 0
5, 23616, Note_on_c, 3, 81, 95
5, 23637, Note_on_c, 3, 81, 0
5, 23664, Note_on_c, 3, 80, 95
5, 23685, Note_on_c, 3, 80, 0
5, 23712, Note_on_c, 3, 81, 95
5, 23733, Note_on_c, 3, 81, 0
5, 23760, Note_on_c, 3, 83, 95
5, 23781, Note_on_c, 3, 83, 0
5, 23808, Note_on_c, 3, 76, 95
5, 23839, Note_on_c, 3, 76, 0
5, 23844, Note_on_c, 3, 76, 95
5, 23854, Note_on_c, 3, 76, 0
5, 23856, Note_on_c, 3, 81, 95
5, 23887, Note_on_c, 3, 81, 0
5, 23892, Note_on_c, 3, 76, 95
5, 23902, Note_on_c, 3, 76, 0
5, 23904, Note_on_c, 3, 78, 95
5, 23918, Note_on_c, 3, 78, 0
5, 23920, Note_on_c, 3, 76, 95
5, 23934, Note_on_c, 3, 76, 0
5, 23936, Note_on_c, 3, 74, 95
5, 23950, Note_on_c, 3, 74, 0
5, 23952, Note_on_c, 3, 73, 95
5, 23966, Note_on_c, 3, 73, 0
5, 23968, Note_on_c, 3, 74, 95
5, 23982, Note_on_c, 3, 74, 0
5, 23984, Note_on_c, 3, 76, 95
5, 23998, Note_on_c, 3, 76, 0
5, 24000, Note_on_c, 3, 69, 95
5, 24014, Note_on_c, 3, 69, 0
5, 24016, Note_on_c, 3, 73, 95
5, 24030, Note_on_c, 3, 73, 0
5, 24032, Note_on_c, 3, 71, 95
5, 24046, Note_on_c, 3, 71, 0
5, 24048, Note_on_c, 3, 69, 95
5, 24062, Note_on_c, 3, 69, 0
5, 24064, Note_on_c, 3, 73, 95
5, 24078, Note_on_c, 3, 73, 0
5, 24080, Note_on_c, 3, 71, 95
5, 24094, Note_on_c, 3, 71, 0
5, 24096, Note_on_c, 3, 69, 95
5, 24180, Note_on_c, 3, 69, 0
5, 24192, Note_on_c, 3, 69, 95
5, 24206, Note_on_c, 3, 69, 0
5, 24208, Note_on_c, 3, 73, 95
5, 24222, Note_on_c, 3, 73, 0
5, 24224, Note_on_c, 3, 71, 95
5, 24238, Note_on_c, 3, 71, 0
5, 24240, Note_on_c, 3, 69, 95
5, 24254, Note_on_c, 3, 69, 0
5, 24256, Note_on_c, 3, 73, 95
5, 24270, Note_on_c, 3, 73, 0
5, 24272, Note_on_c, 3, 71, 95
5, 24286, Note_on_c, 3, 71, 0
5, 24288, Note_on_c, 3, 69, 95
5, 24372, Note_on_c, 3, 69, 0
5, 24384, Note_on_c, 3, 69, 95
5, 24468, Note_on_c, 3, 69, 0
5, 24480, Note_on_c, 3, 69, 95
5, 24564, Note_on_c, 3, 69, 0
5, 24576, Note_on_c, 3, 68, 95
5, 24590, Note_on_c, 3, 68, 0
5, 24592, Note_on_c, 3, 69, 95
5, 24606, Note_on_c, 3, 69, 0
5, 24608, Note_on_c, 3, 71, 95
5, 24622, Note_on_c, 3, 71, 0
5, 24624, Note_on_c, 3, 73, 95
5, 24687, Note_on_c, 3, 73, 0
5, 24688, Note_on_c, 3, 78, 95
5, 24698, Note_on_c, 3, 78, 0
5, 24704, Note_on_c, 3, 76, 95
5, 24714, Note_on_c, 3, 76, 0
5, 24720, Note_on_c, 3, 74, 95
5, 24792, Note_on_c, 3, 74, 0
5, 24804, Note_on_c, 3, 83, 95
5, 24816, Note_on_c, 3, 83, 0
5, 24816, Note_on_c, 3, 73, 95
5, 24852, Note_on_c, 3, 73, 0
5, 24852, Note_on_c, 3, 78, 95
5, 24864, Note_on_c, 3, 78, 0
5, 24864, Note_on_c, 3, 76, 95
5, 24880, Note_on_c, 3, 76, 0
5, 24880, Note_on_c, 3, 74, 95
5, 24896, Note_on_c, 3, 74, 0
5, 24896, Note_on_c, 3, 73, 95
5, 24912, Note_on_c, 3, 73, 0
5, 24912, Note_on_c, 3, 71, 95
5, 24928, Note_on_c, 3, 71, 0
5, 24928, Note_on_c, 3, 73, 95
5, 24944, Note_on_c, 3, 73, 0
5, 24944, Note_on_c, 3, 74, 95
5, 24960, Note_on_c, 3, 74, 0
5, 24960, Note_on_c, 3, 73, 95
5, 24976, Note_on_c, 3, 73, 0
5, 24976, Note_on_c, 3, 71, 95
5, 24992, Note_on_c, 3, 71, 0
5, 24992, Note_on_c, 3, 69, 95
5, 25008, Note_on_c, 3, 69, 0
5, 25008, Note_on_c, 3, 74, 95
5, 25072, Note_on_c, 3, 73, 95
5, 25080, Note_on_c, 3, 74, 0
5, 25088, Note_on_c, 3, 73, 0
5, 25088, Note_on_c, 3, 71, 95
5, 25104, Note_on_c, 3, 71, 0
5, 25104, Note_on_c, 3, 69, 95
5, 25140, Note_on_c, 3, 69, 0
5, 25140, Note_on_c, 3, 67, 95
5, 25152, Note_on_c, 3, 67, 0
5, 25152, Note_on_c, 3, 66, 95
5, 25168, Note_on_c, 3, 66, 0
5, 25168, Note_on_c, 3, 64, 95
5, 25184, Note_on_c, 3, 64, 0
5, 25184, Note_on_c, 3, 62, 95
5, 25200, Note_on_c, 3, 62, 0
5, 25200, Note_on_c, 3, 69, 95
5, 25224, Note_on_c, 3, 69, 0
5, 25380, Note_on_c, 3, 81, 95
5, 25392, Note_on_c, 3, 81, 0
5, 25392, Note_on_c, 3, 86, 95
5, 25428, Note_on_c, 3, 86, 0
5, 25428, Note_on_c, 3, 81, 95
5, 25440, Note_on_c, 3, 81, 0
5, 25440, Note_on_c, 3, 83, 95
5, 25456, Note_on_c, 3, 83, 0
5, 25456, Note_on_c, 3, 81, 95
5, 25472, Note_on_c, 3, 81, 0
5, 25472, Note_on_c, 3, 79, 95
5, 25488, Note_on_c, 3, 79, 0
5, 25488, Note_on_c, 3, 78, 95
5, 25504, Note_on_c, 3, 78, 0
5, 25504, Note_on_c, 3, 79, 95
5, 25520, Note_on_c, 3, 79, 0
5, 25520, Note_on_c, 3, 81, 95
5, 25536, Note_on_c, 3, 81, 0
5, 25536, Note_on_c, 3, 74, 95
5, 25552, Note_on_c, 3, 74, 0
5, 25584, Note_on_c, 3, 73, 95
5, 25600, Note_on_c, 3, 73, 0
5, 25632, Note_on_c, 3, 71, 95
5, 25648, Note_on_c, 3, 71, 0
5, 25680, Note_on_c, 3, 76, 95
5, 25696, Note_on_c, 3, 76, 0
5, 25728, Note_on_c, 3, 74, 95
5, 25744, Note_on_c, 3, 74, 0
5, 25744, Note_on_c, 3, 78, 95
5, 25760, Note_on_c, 3, 78, 0
5, 25760, Note_on_c, 3, 81, 95
5, 25776, Note_on_c, 3, 81, 0
5, 25776, Note_on_c, 3, 81, 95
5, 25792, Note_on_c, 3, 81, 0
5, 25792, Note_on_c, 3, 79, 95
5, 25808, Note_on_c, 3, 79, 0
5, 25808, Note_on_c, 3, 81, 95
5, 25824, Note_on_c, 3, 81, 0
5, 25824, Note_on_c, 3, 78, 95
5, 25840, Note_on_c, 3, 78, 0
5, 25840, Note_on_c, 3, 83, 95
5, 25856, Note_on_c, 3, 83, 0
5, 25856, Note_on_c, 3, 81, 95
5, 25872, Note_on_c, 3, 81, 0
5, 25872, Note_on_c, 3, 80, 95
5, 25888, Note_on_c, 3, 80, 0
5, 25888, Note_on_c, 3, 85, 95
5, 25904, Note_on_c, 3, 85, 0
5, 25904, Note_on_c, 3, 83, 95
5, 25920, Note_on_c, 3, 83, 0
5, 25920, Note_on_c, 3, 81, 95
5, 25984, Note_on_c, 3, 83, 95
5, 25992, Note_on_c, 3, 81, 0
5, 26000, Note_on_c, 3, 83, 0
5, 26000, Note_on_c, 3, 85, 95
5, 26016, Note_on_c, 3, 85, 0
5, 26016, Note_on_c, 3, 86, 95
5, 26032, Note_on_c, 3, 86, 0
5, 26032, Note_on_c, 3, 85, 95
5, 26048, Note_on_c, 3, 85, 0
5, 26048, Note_on_c, 3, 83, 95
5, 26064, Note_on_c, 3, 83, 0
5, 26064, Note_on_c, 3, 81, 95
5, 26080, Note_on_c, 3, 81, 0
5, 26080, Note_on_c, 3, 83, 95
5, 26096, Note_on_c, 3, 83, 0
5, 26096, Note_on_c, 3, 79, 95
5, 26112, Note_on_c, 3, 79, 0
5, 26112, Note_on_c, 3, 78, 95
5, 26136, Note_on_c, 3, 78, 0
5, 26160, Note_on_c, 3, 79, 95
5, 26184, Note_on_c, 3, 79, 0
5, 26208, Note_on_c, 3, 81, 85
5, 26232, Note_on_c, 3, 81, 0
5, 26256, Note_on_c, 3, 72, 85
5, 26280, Note_on_c, 3, 72, 0
5, 26304, Note_on_c, 3, 71, 85
5, 26328, Note_on_c, 3, 71, 0
5, 26352, Note_on_c, 3, 73, 85
5, 26376, Note_on_c, 3, 73, 0
5, 26400, Note_on_c, 3, 74, 85
5, 26424, Note_on_c, 3, 74, 0
5, 26448, Note_on_c, 3, 69, 85
5, 26464, Note_on_c, 3, 69, 0
5, 26464, Note_on_c, 3, 73, 85
5, 26480, Note_on_c, 3, 73, 0
5, 26480, Note_on_c, 3, 76, 85
5, 26496, Note_on_c, 3, 76, 0
5, 26496, Note_on_c, 3, 69, 85
5, 26512, Note_on_c, 3, 69, 0
5, 26512, Note_on_c, 3, 74, 85
5, 26528, Note_on_c, 3, 74, 0
5, 26528, Note_on_c, 3, 78, 85
5, 26544, Note_on_c, 3, 78, 0
5, 26544, Note_on_c, 3, 73, 85
5, 26560, Note_on_c, 3, 73, 0
5, 26560, Note_on_c, 3, 76, 85
5, 26576, Note_on_c, 3, 76, 0
5, 26576, Note_on_c, 3, 79, 85
5, 26592, Note_on_c, 3, 79, 0
5, 26592, Note_on_c, 3, 81, 95
5, 26616, Note_on_c, 3, 81, 0
5, 26640, Note_on_c, 3, 83, 85
5, 26664, Note_on_c, 3, 83, 0
5, 26688, Note_on_c, 3, 81, 78
5, 26712, Note_on_c, 3, 81, 0
5, 26736, Note_on_c, 3, 79, 85
5, 26760, Note_on_c, 3, 79, 0
5, 26784, Note_on_c, 3, 79, 85
5, 26808, Note_on_c, 3, 79, 0
5, 26832, Note_on_c, 3, 78, 64
5, 26848, Note_on_c, 3, 78, 0
5, 26848, Note_on_c, 3, 79, 85
5, 26864, Note_on_c, 3, 79, 0
5, 26864, Note_on_c, 3, 81, 85
5, 26880, Note_on_c, 3, 81, 0
5, 26880, Note_on_c, 3, 74, 72
5, 26928, Note_on_c, 3, 74, 0
5, 26944, Note_on_c, 3, 76, 76
5, 26960, Note_on_c, 3, 76, 0
5, 26960, Note_on_c, 3, 73, 55
5, 26976, Note_on_c, 3, 73, 0
5, 26976, Note_on_c, 3, 74, 85
5, 27012, Note_on_c, 3, 74, 0
5, 27012, Note_on_c, 3, 81, 91
5, 27012, Note_on_c, 3, 81, 85
5, 27024, Note_on_c, 3, 86, 84
5, 27036, Note_on_c, 3, 81, 0
5, 27060, Note_on_c, 3, 86, 0
5, 27060, Note_on_c, 3, 81, 85
5, 27072, Note_on_c, 3, 81, 0
5, 27072, Note_on_c, 3, 83, 64
5, 27088, Note_on_c, 3, 83, 0
5, 27088, Note_on_c, 3, 81, 74
5, 27104, Note_on_c, 3, 81, 0
5, 27104, Note_on_c, 3, 79, 85
5, 27120, Note_on_c, 3, 79, 0
5, 27120, Note_on_c, 3, 78, 49
5, 27136, Note_on_c, 3, 78, 0
5, 27136, Note_on_c, 3, 79, 77
5, 27152, Note_on_c, 3, 79, 0
5, 27152, Note_on_c, 3, 81, 85
5, 27168, Note_on_c, 3, 81, 0
5, 27168, Note_on_c, 3, 74, 76
5, 27184, Note_on_c, 3, 74, 0
5, 27184, Note_on_c, 3, 78, 62
5, 27200, Note_on_c, 3, 78, 0
5, 27200, Note_on_c, 3, 76, 84
5, 27216, Note_on_c, 3, 76, 0
5, 27216, Note_on_c, 3, 74, 72
5, 27232, Note_on_c, 3, 74, 0
5, 27232, Note_on_c, 3, 78, 49
5, 27248, Note_on_c, 3, 78, 0
5, 27248, Note_on_c, 3, 76, 78
5, 27264, Note_on_c, 3, 76, 0
5, 27264, Note_on_c, 3, 74, 78
5, 27376, Note_on_c, 3, 81, 62
5, 27392, Note_on_c, 3, 81, 0
5, 27392, Note_on_c, 3, 79, 81
5, 27408, Note_on_c, 3, 74, 0
5, 27408, Note_on_c, 3, 79, 0
5, 27408, Note_on_c, 3, 78, 53
5, 27424, Note_on_c, 3, 78, 0
5, 27424, Note_on_c, 3, 81, 65
5, 27440, Note_on_c, 3, 81, 0
5, 27440, Note_on_c, 3, 79, 78
5, 27456, Note_on_c, 3, 79, 0
5, 27456, Note_on_c, 3, 78, 78
5, 27480, Note_on_c, 3, 70, 0
5, 27504, Note_on_c, 3, 70, 0
5, 27520, Note_on_c, 3, 78, 0
5, 27528, Note_on_c, 3, 70, 0
5, 27552, Note_on_c, 3, 76, 78
5, 27744, Note_on_c, 3, 76, 0
5, 27744, Note_on_c, 3, 76, 78
5, 27792, Note_on_c, 3, 76, 0
5, 27808, Note_on_c, 3, 78, 78
5, 27824, Note_on_c, 3, 78, 0
5, 27824, Note_on_c, 3, 76, 78
5, 27840, Note_on_c, 3, 76, 0
5, 27840, Note_on_c, 3, 74, 78
5, 27888, Note_on_c, 3, 74, 0
5, 27904, Note_on_c, 3, 76, 78
5, 27920, Note_on_c, 3, 76, 0
5, 27920, Note_on_c, 3, 74, 78
5, 27936, Note_on_c, 3, 74, 0
5, 27936, Note_on_c, 3, 73, 78
5, 27984, Note_on_c, 3, 73, 0
5, 28000, Note_on_c, 3, 74, 78
5, 28016, Note_on_c, 3, 74, 0
5, 28016, Note_on_c, 3, 72, 78
5, 28032, Note_on_c, 3, 72, 0
5, 28032, Note_on_c, 3, 71, 78
5, 28080, Note_on_c, 3, 71, 0
5, 28080, Note_on_c, 3, 79, 78
5, 28144, Note_on_c, 3, 73, 71
5, 28152, Note_on_c, 3, 73, 0
5, 28152, Note_on_c, 3, 79, 0
5, 28160, Note_on_c, 3, 76, 93
5, 28168, Note_on_c, 3, 76, 0
5, 28176, Note_on_c, 3, 78, 78
5, 28184, Note_on_c, 3, 78, 0
5, 28192, Note_on_c, 3, 79, 100
5, 28200, Note_on_c, 3, 79, 0
5, 28208, Note_on_c, 3, 81, 103
5, 28216, Note_on_c, 3, 81, 0
5, 28224, Note_on_c, 3, 74, 85
5, 28242, Note_on_c, 3, 74, 0
5, 28260, Note_on_c, 3, 76, 96
5, 28266, Note_on_c, 3, 76, 0
5, 28272, Note_on_c, 3, 73, 87
5, 28290, Note_on_c, 3, 73, 0
5, 28308, Note_on_c, 3, 74, 96
5, 28314, Note_on_c, 3, 74, 0
5, 28320, Note_on_c, 3, 74, 94
5, 28344, Note_on_c, 3, 74, 0
5, 28368, Note_on_c, 3, 72, 84
5, 28392, Note_on_c, 3, 72, 0
5, 28416, Note_on_c, 3, 71, 101
5, 28440, Note_on_c, 3, 71, 0
5, 28464, Note_on_c, 3, 69, 103
5, 28488, Note_on_c, 3, 69, 0
5, 28512, Note_on_c, 3, 67, 98
5, 28520, Note_on_c, 3, 67, 0
5, 28528, Note_on_c, 3, 69, 103
5, 28536, Note_on_c, 3, 69, 0
5, 28544, Note_on_c, 3, 71, 103
5, 28552, Note_on_c, 3, 71, 0
5, 28560, Note_on_c, 3, 69, 103
5, 28568, Note_on_c, 3, 69, 0
5, 28576, Note_on_c, 3, 71, 98
5, 28584, Note_on_c, 3, 71, 0
5, 28592, Note_on_c, 3, 72, 74
5, 28600, Note_on_c, 3, 72, 0
5, 28608, Note_on_c, 3, 66, 73
5, 28632, Note_on_c, 3, 66, 0
5, 28656, Note_on_c, 3, 74, 101
5, 28692, Note_on_c, 3, 74, 0
5, 28720, Note_on_c, 3, 78, 71
5, 28732, Note_on_c, 3, 78, 0
5, 28736, Note_on_c, 3, 76, 100
5, 28748, Note_on_c, 3, 76, 0
5, 28752, Note_on_c, 3, 74, 103
5, 28764, Note_on_c, 3, 74, 0
5, 28768, Note_on_c, 3, 78, 74
5, 28780, Note_on_c, 3, 78, 0
5, 28784, Note_on_c, 3, 76, 103
5, 28796, Note_on_c, 3, 76, 0
5, 28800, Note_on_c, 3, 74, 103
5, 28872, Note_on_c, 3, 74, 0
5, 28896, Note_on_c, 3, 74, 98
5, 28908, Note_on_c, 3, 74, 0
5, 28912, Note_on_c, 3, 71, 103
5, 28924, Note_on_c, 3, 71, 0
5, 28928, Note_on_c, 3, 73, 78
5, 28940, Note_on_c, 3, 73, 0
5, 28944, Note_on_c, 3, 74, 103
5, 28956, Note_on_c, 3, 74, 0
5, 28960, Note_on_c, 3, 71, 103
5, 28972, Note_on_c, 3, 71, 0
5, 28976, Note_on_c, 3, 73, 84
5, 28988, Note_on_c, 3, 73, 0
5, 28992, Note_on_c, 3, 74, 98
5, 29046, Note_on_c, 3, 74, 0
5, 29076, Note_on_c, 3, 76, 98
5, 29085, Note_on_c, 3, 76, 0
5, 29088, Note_on_c, 3, 73, 98
5, 29160, Note_on_c, 3, 73, 0
5, 29184, Note_on_c, 3, 74, 98
5, 29256, Note_on_c, 3, 74, 0
5, 29280, Note_on_c, 3, 76, 98
5, 29352, Note_on_c, 3, 76, 0
5, 29376, Note_on_c, 3, 78, 98
5, 29403, Note_on_c, 3, 78, 0
5, 29412, Note_on_c, 3, 81, 98
5, 29421, Note_on_c, 3, 81, 0
5, 29424, Note_on_c, 3, 86, 98
5, 29451, Note_on_c, 3, 86, 0
5, 29460, Note_on_c, 3, 81, 98
5, 29469, Note_on_c, 3, 81, 0
5, 29472, Note_on_c, 3, 83, 98
5, 29484, Note_on_c, 3, 83, 0
5, 29488, Note_on_c, 3, 81, 98
5, 29500, Note_on_c, 3, 81, 0
5, 29504, Note_on_c, 3, 79, 98
5, 29516, Note_on_c, 3, 79, 0
5, 29520, Note_on_c, 3, 78, 98
5, 29532, Note_on_c, 3, 78, 0
5, 29536, Note_on_c, 3, 79, 98
5, 29548, Note_on_c, 3, 79, 0
5, 29552, Note_on_c, 3, 81, 98
5, 29564, Note_on_c, 3, 81, 0
5, 29568, Note_on_c, 3, 74, 98
5, 29595, Note_on_c, 3, 74, 0
5, 29604, Note_on_c, 3, 76, 98
5, 29613, Note_on_c, 3, 76, 0
5, 29616, Note_on_c, 3, 73, 98
5, 29643, Note_on_c, 3, 73, 0
5, 29652, Note_on_c, 3, 74, 98
5, 29661, Note_on_c, 3, 74, 0
5, 29664, Note_on_c, 3, 74, 98
5, 29760, Note_on_c, 3, 74, 0
5, 29760, End_track
6, 0, Start_track
6, 0, Title_t, "1st Violin"
6, 0, Control_c, 4, 10, 117
6, 0, Control_c, 4, 7, 96
6, 0, Pitch_bend_c, 4, 8192
6, 0, Control_c, 4, 1, 0
6, 0, Program_c, 4, 53
6, 0, Control_c, 4, 64, 0
6, 36, Note_on_c, 4, 69, 95
6, 46, Note_on_c, 4, 69, 0
6, 48, Note_on_c, 4, 74, 95
6, 79, Note_on_c, 4, 74, 0
6, 84, Note_on_c, 4, 69, 95
6, 94, Note_on_c, 4, 69, 0
6, 96, Note_on_c, 4, 71, 95
6, 110, Note_on_c, 4, 71, 0
6, 112, Note_on_c, 4, 69, 95
6, 126, Note_on_c, 4, 69, 0
6, 128, Note_on_c, 4, 67, 95
6, 142, Note_on_c, 4, 67, 0
6, 144, Note_on_c, 4, 66, 95
6, 158, Note_on_c, 4, 66, 0
6, 160, Note_on_c, 4, 67, 95
6, 174, Note_on_c, 4, 67, 0
6, 176, Note_on_c, 4, 69, 95
6, 190, Note_on_c, 4, 69, 0
6, 192, Note_on_c, 4, 62, 95
6, 206, Note_on_c, 4, 62, 0
6, 240, Note_on_c, 4, 61, 95
6, 261, Note_on_c, 4, 61, 0
6, 288, Note_on_c, 4, 62, 95
6, 309, Note_on_c, 4, 62, 0
6, 336, Note_on_c, 4, 64, 95
6, 357, Note_on_c, 4, 64, 0
6, 384, Note_on_c, 4, 66, 95
6, 398, Note_on_c, 4, 66, 0
6, 400, Note_on_c, 4, 69, 95
6, 414, Note_on_c, 4, 69, 0
6, 416, Note_on_c, 4, 74, 95
6, 430, Note_on_c, 4, 74, 0
6, 432, Note_on_c, 4, 74, 95
6, 446, Note_on_c, 4, 74, 0
6, 448, Note_on_c, 4, 73, 95
6, 462, Note_on_c, 4, 73, 0
6, 464, Note_on_c, 4, 74, 95
6, 478, Note_on_c, 4, 74, 0
6, 480, Note_on_c, 4, 71, 95
6, 494, Note_on_c, 4, 71, 0
6, 496, Note_on_c, 4, 76, 95
6, 510, Note_on_c, 4, 76, 0
6, 512, Note_on_c, 4, 74, 95
6, 526, Note_on_c, 4, 74, 0
6, 528, Note_on_c, 4, 73, 95
6, 542, Note_on_c, 4, 73, 0
6, 544, Note_on_c, 4, 78, 95
6, 558, Note_on_c, 4, 78, 0
6, 560, Note_on_c, 4, 76, 95
6, 574, Note_on_c, 4, 76, 0
6, 576, Note_on_c, 4, 74, 95
6, 597, Note_on_c, 4, 74, 0
6, 624, Note_on_c, 4, 69, 95
6, 645, Note_on_c, 4, 69, 0
6, 672, Note_on_c, 4, 71, 95
6, 693, Note_on_c, 4, 71, 0
6, 720, Note_on_c, 4, 73, 95
6, 741, Note_on_c, 4, 73, 0
6, 768, Note_on_c, 4, 74, 95
6, 782, Note_on_c, 4, 74, 0
6, 784, Note_on_c, 4, 78, 95
6, 798, Note_on_c, 4, 78, 0
6, 800, Note_on_c, 4, 76, 95
6, 814, Note_on_c, 4, 76, 0
6, 816, Note_on_c, 4, 74, 95
6, 830, Note_on_c, 4, 74, 0
6, 832, Note_on_c, 4, 78, 95
6, 846, Note_on_c, 4, 78, 0
6, 848, Note_on_c, 4, 76, 95
6, 862, Note_on_c, 4, 76, 0
6, 864, Note_on_c, 4, 74, 95
6, 936, Note_on_c, 4, 74, 0
6, 948, Note_on_c, 4, 73, 95
6, 958, Note_on_c, 4, 73, 0
6, 960, Note_on_c, 4, 74, 95
6, 960, Note_on_c, 4, 74, 95
6, 974, Note_on_c, 4, 74, 0
6, 976, Note_on_c, 4, 76, 95
6, 990, Note_on_c, 4, 76, 0
6, 992, Note_on_c, 4, 78, 95
6, 1006, Note_on_c, 4, 78, 0
6, 1008, Note_on_c, 4, 76, 95
6, 1022, Note_on_c, 4, 76, 0
6, 1024, Note_on_c, 4, 78, 95
6, 1038, Note_on_c, 4, 78, 0
6, 1040, Note_on_c, 4, 79, 95
6, 1054, Note_on_c, 4, 79, 0
6, 1056, Note_on_c, 4, 78, 95
6, 1070, Note_on_c, 4, 78, 0
6, 1072, Note_on_c, 4, 79, 95
6, 1086, Note_on_c, 4, 79, 0
6, 1088, Note_on_c, 4, 78, 95
6, 1102, Note_on_c, 4, 78, 0
6, 1104, Note_on_c, 4, 76, 95
6, 1118, Note_on_c, 4, 76, 0
6, 1120, Note_on_c, 4, 78, 95
6, 1134, Note_on_c, 4, 78, 0
6, 1136, Note_on_c, 4, 74, 95
6, 1150, Note_on_c, 4, 74, 0
6, 1152, Note_on_c, 4, 73, 95
6, 1168, Note_on_c, 4, 73, 0
6, 1168, Note_on_c, 4, 76, 95
6, 1184, Note_on_c, 4, 76, 0
6, 1184, Note_on_c, 4, 74, 95
6, 1200, Note_on_c, 4, 74, 0
6, 1200, Note_on_c, 4, 73, 95
6, 1216, Note_on_c, 4, 73, 0
6, 1216, Note_on_c, 4, 74, 95
6, 1232, Note_on_c, 4, 74, 0
6, 1232, Note_on_c, 4, 76, 95
6, 1248, Note_on_c, 4, 76, 0
6, 1248, Note_on_c, 4, 71, 95
6, 1272, Note_on_c, 4, 71, 0
6, 1296, Note_on_c, 4, 73, 95
6, 1320, Note_on_c, 4, 73, 0
6, 1344, Note_on_c, 4, 74, 95
6, 1536, Note_on_c, 4, 74, 0
6, 1552, Note_on_c, 4, 76, 95
6, 1568, Note_on_c, 4, 76, 0
6, 1568, Note_on_c, 4, 74, 95
6, 1584, Note_on_c, 4, 74, 0
6, 1584, Note_on_c, 4, 73, 95
6, 1600, Note_on_c, 4, 73, 0
6, 1600, Note_on_c, 4, 74, 95
6, 1616, Note_on_c, 4, 74, 0
6, 1616, Note_on_c, 4, 76, 95
6, 1632, Note_on_c, 4, 76, 0
6, 1632, Note_on_c, 4, 69, 95
6, 1668, Note_on_c, 4, 69, 0
6, 1668, Note_on_c, 4, 78, 95
6, 1680, Note_on_c, 4, 78, 0
6, 1680, Note_on_c, 4, 76, 95
6, 1716, Note_on_c, 4, 76, 0
6, 1716, Note_on_c, 4, 74, 95
6, 1728, Note_on_c, 4, 74, 0
6, 1728, Note_on_c, 4, 73, 95
6, 1744, Note_on_c, 4, 73, 0
6, 1744, Note_on_c, 4, 76, 95
6, 1760, Note_on_c, 4, 76, 0
6, 1760, Note_on_c, 4, 74, 95
6, 1776, Note_on_c, 4, 74, 0
6, 1776, Note_on_c, 4, 73, 95
6, 1792, Note_on_c, 4, 73, 0
6, 1792, Note_on_c, 4, 76, 95
6, 1808, Note_on_c, 4, 76, 0
6, 1808, Note_on_c, 4, 74, 95
6, 1824, Note_on_c, 4, 74, 0
6, 1824, Note_on_c, 4, 73, 95
6, 1920, Note_on_c, 4, 73, 0
6, 1936, Note_on_c, 4, 64, 95
6, 1952, Note_on_c, 4, 64, 0
6, 1952, Note_on_c, 4, 62, 95
6, 1968, Note_on_c, 4, 62, 0
6, 1968, Note_on_c, 4, 61, 95
6, 1984, Note_on_c, 4, 61, 0
6, 1984, Note_on_c, 4, 64, 95
6, 2000, Note_on_c, 4, 64, 0
6, 2000, Note_on_c, 4, 62, 95
6, 2016, Note_on_c, 4, 62, 0
6, 2016, Note_on_c, 4, 61, 95
6, 2112, Note_on_c, 4, 61, 0
6, 2112, Note_on_c, 4, 59, 95
6, 2208, Note_on_c, 4, 59, 0
6, 2208, Note_on_c, 4, 78, 95
6, 2352, Note_on_c, 4, 78, 0
6, 2352, Note_on_c, 4, 76, 95
6, 2368, Note_on_c, 4, 76, 0
6, 2368, Note_on_c, 4, 78, 95
6, 2384, Note_on_c, 4, 78, 0
6, 2384, Note_on_c, 4, 80, 95
6, 2400, Note_on_c, 4, 80, 0
6, 2400, Note_on_c, 4, 81, 95
6, 2464, Note_on_c, 4, 83, 95
6, 2472, Note_on_c, 4, 81, 0
6, 2480, Note_on_c, 4, 83, 0
6, 2480, Note_on_c, 4, 81, 95
6, 2496, Note_on_c, 4, 81, 0
6, 2496, Note_on_c, 4, 80, 95
6, 2512, Note_on_c, 4, 80, 0
6, 2512, Note_on_c, 4, 78, 95
6, 2528, Note_on_c, 4, 78, 0
6, 2528, Note_on_c, 4, 76, 95
6, 2544, Note_on_c, 4, 76, 0
6, 2544, Note_on_c, 4, 81, 95
6, 2640, Note_on_c, 4, 81, 0
6, 2640, Note_on_c, 4, 80, 95
6, 2688, Note_on_c, 4, 80, 0
6, 2688, Note_on_c, 4, 81, 95
6, 2752, Note_on_c, 4, 79, 95
6, 2760, Note_on_c, 4, 81, 0
6, 2768, Note_on_c, 4, 79, 0
6, 2768, Note_on_c, 4, 78, 95
6, 2784, Note_on_c, 4, 78, 0
6, 2784, Note_on_c, 4, 76, 95
6, 2848, Note_on_c, 4, 74, 95
6, 2856, Note_on_c, 4, 76, 0
6, 2864, Note_on_c, 4, 74, 0
6, 2864, Note_on_c, 4, 73, 95
6, 2880, Note_on_c, 4, 73, 0
6, 2880, Note_on_c, 4, 74, 95
6, 2896, Note_on_c, 4, 74, 0
6, 2896, Note_on_c, 4, 73, 95
6, 2912, Note_on_c, 4, 73, 0
6, 2912, Note_on_c, 4, 71, 95
6, 2928, Note_on_c, 4, 71, 0
6, 2928, Note_on_c, 4, 69, 95
6, 2944, Note_on_c, 4, 69, 0
6, 2944, Note_on_c, 4, 73, 95
6, 2960, Note_on_c, 4, 73, 0
6, 2960, Note_on_c, 4, 79, 95
6, 2976, Note_on_c, 4, 79, 0
6, 2976, Note_on_c, 4, 78, 95
6, 3000, Note_on_c, 4, 78, 0
6, 3024, Note_on_c, 4, 80, 95
6, 3048, Note_on_c, 4, 80, 0
6, 3072, Note_on_c, 4, 81, 95
6, 3108, Note_on_c, 4, 81, 0
6, 3108, Note_on_c, 4, 81, 95
6, 3120, Note_on_c, 4, 81, 0
6, 3120, Note_on_c, 4, 86, 95
6, 3156, Note_on_c, 4, 86, 0
6, 3156, Note_on_c, 4, 81, 95
6, 3168, Note_on_c, 4, 81, 0
6, 3168, Note_on_c, 4, 83, 95
6, 3184, Note_on_c, 4, 83, 0
6, 3184, Note_on_c, 4, 81, 95
6, 3200, Note_on_c, 4, 81, 0
6, 3200, Note_on_c, 4, 79, 95
6, 3216, Note_on_c, 4, 79, 0
6, 3216, Note_on_c, 4, 78, 95
6, 3232, Note_on_c, 4, 78, 0
6, 3232, Note_on_c, 4, 79, 95
6, 3248, Note_on_c, 4, 79, 0
6, 3248, Note_on_c, 4, 81, 95
6, 3264, Note_on_c, 4, 81, 0
6, 3264, Note_on_c, 4, 74, 95
6, 3288, Note_on_c, 4, 74, 0
6, 3312, Note_on_c, 4, 73, 95
6, 3336, Note_on_c, 4, 73, 0
6, 3360, Note_on_c, 4, 71, 95
6, 3384, Note_on_c, 4, 71, 0
6, 3408, Note_on_c, 4, 76, 95
6, 3432, Note_on_c, 4, 76, 0
6, 3456, Note_on_c, 4, 74, 95
6, 3472, Note_on_c, 4, 74, 0
6, 3472, Note_on_c, 4, 78, 95
6, 3488, Note_on_c, 4, 78, 0
6, 3488, Note_on_c, 4, 81, 95
6, 3504, Note_on_c, 4, 81, 0
6, 3504, Note_on_c, 4, 81, 95
6, 3520, Note_on_c, 4, 81, 0
6, 3520, Note_on_c, 4, 79, 95
6, 3536, Note_on_c, 4, 79, 0
6, 3536, Note_on_c, 4, 81, 95
6, 3552, Note_on_c, 4, 81, 0
6, 3552, Note_on_c, 4, 78, 95
6, 3568, Note_on_c, 4, 78, 0
6, 3568, Note_on_c, 4, 83, 95
6, 3584, Note_on_c, 4, 83, 0
6, 3584, Note_on_c, 4, 81, 95
6, 3600, Note_on_c, 4, 81, 0
6, 3600, Note_on_c, 4, 80, 95
6, 3616, Note_on_c, 4, 80, 0
6, 3616, Note_on_c, 4, 85, 95
6, 3632, Note_on_c, 4, 85, 0
6, 3632, Note_on_c, 4, 83, 95
6, 3648, Note_on_c, 4, 83, 0
6, 3648, Note_on_c, 4, 81, 95
6, 3712, Note_on_c, 4, 83, 95
6, 3720, Note_on_c, 4, 81, 0
6, 3728, Note_on_c, 4, 83, 0
6, 3728, Note_on_c, 4, 85, 95
6, 3744, Note_on_c, 4, 85, 0
6, 3744, Note_on_c, 4, 86, 95
6, 3760, Note_on_c, 4, 86, 0
6, 3760, Note_on_c, 4, 85, 95
6, 3776, Note_on_c, 4, 85, 0
6, 3776, Note_on_c, 4, 83, 95
6, 3792, Note_on_c, 4, 83, 0
6, 3792, Note_on_c, 4, 81, 95
6, 3808, Note_on_c, 4, 81, 0
6, 3808, Note_on_c, 4, 83, 95
6, 3824, Note_on_c, 4, 83, 0
6, 3824, Note_on_c, 4, 79, 95
6, 3840, Note_on_c, 4, 79, 0
6, 3840, Note_on_c, 4, 78, 95
6, 3864, Note_on_c, 4, 78, 0
6, 3888, Note_on_c, 4, 79, 95
6, 3912, Note_on_c, 4, 79, 0
6, 3936, Note_on_c, 4, 81, 95
6, 3952, Note_on_c, 4, 81, 0
6, 3984, Note_on_c, 4, 72, 95
6, 4000, Note_on_c, 4, 72, 0
6, 4032, Note_on_c, 4, 71, 95
6, 4048, Note_on_c, 4, 71, 0
6, 4080, Note_on_c, 4, 73, 95
6, 4096, Note_on_c, 4, 73, 0
6, 4128, Note_on_c, 4, 74, 95
6, 4144, Note_on_c, 4, 74, 0
6, 4176, Note_on_c, 4, 64, 95
6, 4192, Note_on_c, 4, 64, 0
6, 4192, Note_on_c, 4, 69, 95
6, 4208, Note_on_c, 4, 69, 0
6, 4208, Note_on_c, 4, 73, 95
6, 4224, Note_on_c, 4, 73, 0
6, 4224, Note_on_c, 4, 66, 95
6, 4240, Note_on_c, 4, 66, 0
6, 4240, Note_on_c, 4, 69, 95
6, 4256, Note_on_c, 4, 69, 0
6, 4256, Note_on_c, 4, 74, 95
6, 4272, Note_on_c, 4, 74, 0
6, 4272, Note_on_c, 4, 64, 95
6, 4288, Note_on_c, 4, 64, 0
6, 4288, Note_on_c, 4, 69, 95
6, 4304, Note_on_c, 4, 69, 0
6, 4304, Note_on_c, 4, 73, 95
6, 4320, Note_on_c, 4, 73, 0
6, 4320, Note_on_c, 4, 74, 66
6, 4344, Note_on_c, 4, 74, 0
6, 4368, Note_on_c, 4, 79, 85
6, 4392, Note_on_c, 4, 79, 0
6, 4416, Note_on_c, 4, 78, 60
6, 4440, Note_on_c, 4, 78, 0
6, 4464, Note_on_c, 4, 74, 85
6, 4488, Note_on_c, 4, 74, 0
6, 4512, Note_on_c, 4, 69, 85
6, 4536, Note_on_c, 4, 69, 0
6, 4560, Note_on_c, 4, 69, 74
6, 4596, Note_on_c, 4, 69, 0
6, 4596, Note_on_c, 4, 67, 61
6, 4608, Note_on_c, 4, 67, 0
6, 4608, Note_on_c, 4, 66, 66
6, 4644, Note_on_c, 4, 66, 0
6, 4644, Note_on_c, 4, 67, 85
6, 4656, Note_on_c, 4, 67, 0
6, 4656, Note_on_c, 4, 69, 78
6, 4720, Note_on_c, 4, 69, 70
6, 4736, Note_on_c, 4, 69, 0
6, 4736, Note_on_c, 4, 67, 85
6, 4752, Note_on_c, 4, 67, 0
6, 4752, Note_on_c, 4, 66, 53
6, 4768, Note_on_c, 4, 66, 0
6, 4768, Note_on_c, 4, 67, 85
6, 4784, Note_on_c, 4, 67, 0
6, 4784, Note_on_c, 4, 69, 85
6, 4800, Note_on_c, 4, 69, 0
6, 4800, Note_on_c, 4, 62, 78
6, 4836, Note_on_c, 4, 62, 0
6, 4836, Note_on_c, 4, 71, 78
6, 4848, Note_on_c, 4, 71, 0
6, 4848, Note_on_c, 4, 69, 78
6, 4884, Note_on_c, 4, 69, 0
6, 4884, Note_on_c, 4, 67, 78
6, 4896, Note_on_c, 4, 67, 0
6, 4896, Note_on_c, 4, 66, 78
6, 4912, Note_on_c, 4, 66, 0
6, 4912, Note_on_c, 4, 69, 78
6, 4928, Note_on_c, 4, 69, 0
6, 4928, Note_on_c, 4, 67, 78
6, 4944, Note_on_c, 4, 67, 0
6, 4944, Note_on_c, 4, 66, 78
6, 4960, Note_on_c, 4, 66, 0
6, 4960, Note_on_c, 4, 69, 78
6, 4976, Note_on_c, 4, 69, 0
6, 4976, Note_on_c, 4, 67, 78
6, 4992, Note_on_c, 4, 67, 0
6, 4992, Note_on_c, 4, 66, 95
6, 5104, Note_on_c, 4, 78, 95
6, 5120, Note_on_c, 4, 78, 0
6, 5120, Note_on_c, 4, 76, 95
6, 5136, Note_on_c, 4, 66, 0
6, 5136, Note_on_c, 4, 76, 0
6, 5136, Note_on_c, 4, 74, 95
6, 5152, Note_on_c, 4, 74, 0
6, 5152, Note_on_c, 4, 78, 95
6, 5168, Note_on_c, 4, 78, 0
6, 5168, Note_on_c, 4, 76, 95
6, 5184, Note_on_c, 4, 76, 0
6, 5184, Note_on_c, 4, 74, 95
6, 5466, Note_on_c, 4, 74, 0
6, 5472, Note_on_c, 4, 73, 95
6, 5487, Note_on_c, 4, 73, 0
6, 5488, Note_on_c, 4, 71, 95
6, 5503, Note_on_c, 4, 71, 0
6, 5504, Note_on_c, 4, 69, 95
6, 5519, Note_on_c, 4, 69, 0
6, 5520, Note_on_c, 4, 81, 95
6, 5584, Note_on_c, 4, 83, 95
6, 5587, Note_on_c, 4, 81, 0
6, 5599, Note_on_c, 4, 83, 0
6, 5600, Note_on_c, 4, 81, 95
6, 5615, Note_on_c, 4, 81, 0
6, 5616, Note_on_c, 4, 79, 95
6, 5680, Note_on_c, 4, 81, 95
6, 5683, Note_on_c, 4, 79, 0
6, 5695, Note_on_c, 4, 81, 0
6, 5696, Note_on_c, 4, 79, 95
6, 5711, Note_on_c, 4, 79, 0
6, 5712, Note_on_c, 4, 78, 95
6, 5776, Note_on_c, 4, 71, 95
6, 5779, Note_on_c, 4, 78, 0
6, 5791, Note_on_c, 4, 71, 0
6, 5792, Note_on_c, 4, 74, 95
6, 5807, Note_on_c, 4, 74, 0
6, 5808, Note_on_c, 4, 76, 95
6, 5823, Note_on_c, 4, 76, 0
6, 5824, Note_on_c, 4, 78, 95
6, 5839, Note_on_c, 4, 78, 0
6, 5840, Note_on_c, 4, 79, 95
6, 5855, Note_on_c, 4, 79, 0
6, 5856, Note_on_c, 4, 73, 66
6, 5867, Note_on_c, 4, 73, 0
6, 5872, Note_on_c, 4, 76, 66
6, 5883, Note_on_c, 4, 76, 0
6, 5888, Note_on_c, 4, 73, 66
6, 5899, Note_on_c, 4, 73, 0
6, 5904, Note_on_c, 4, 69, 66
6, 5915, Note_on_c, 4, 69, 0
6, 5920, Note_on_c, 4, 71, 66
6, 5931, Note_on_c, 4, 71, 0
6, 5936, Note_on_c, 4, 73, 66
6, 5947, Note_on_c, 4, 73, 0
6, 5952, Note_on_c, 4, 66, 65
6, 5976, Note_on_c, 4, 66, 0
6, 5988, Note_on_c, 4, 67, 85
6, 5996, Note_on_c, 4, 67, 0
6, 6000, Note_on_c, 4, 64, 85
6, 6024, Note_on_c, 4, 64, 0
6, 6036, Note_on_c, 4, 62, 85
6, 6044, Note_on_c, 4, 62, 0
6, 6048, Note_on_c, 4, 62, 85
6, 6399, Note_on_c, 4, 62, 0
6, 6400, Note_on_c, 4, 64, 85
6, 6410, Note_on_c, 4, 64, 0
6, 6416, Note_on_c, 4, 66, 85
6, 6426, Note_on_c, 4, 66, 0
6, 6432, Note_on_c, 4, 64, 85
6, 6768, Note_on_c, 4, 76, 71
6, 6800, Note_on_c, 4, 64, 0
6, 6808, Note_on_c, 4, 76, 0
6, 6816, Note_on_c, 4, 76, 77
6, 6856, Note_on_c, 4, 76, 0
6, 6864, Note_on_c, 4, 78, 60
6, 6944, Note_on_c, 4, 78, 0
6, 6960, Note_on_c, 4, 79, 85
6, 7040, Note_on_c, 4, 79, 0
6, 7056, Note_on_c, 4, 81, 78
6, 7136, Note_on_c, 4, 81, 0
6, 7140, Note_on_c, 4, 81, 85
6, 7150, Note_on_c, 4, 81, 0
6, 7152, Note_on_c, 4, 86, 85
6, 7182, Note_on_c, 4, 86, 0
6, 7188, Note_on_c, 4, 81, 85
6, 7198, Note_on_c, 4, 81, 0
6, 7200, Note_on_c, 4, 83, 85
6, 7213, Note_on_c, 4, 83, 0
6, 7216, Note_on_c, 4, 81, 81
6, 7229, Note_on_c, 4, 81, 0
6, 7232, Note_on_c, 4, 79, 67
6, 7245, Note_on_c, 4, 79, 0
6, 7248, Note_on_c, 4, 78, 65
6, 7261, Note_on_c, 4, 78, 0
6, 7264, Note_on_c, 4, 79, 85
6, 7277, Note_on_c, 4, 79, 0
6, 7280, Note_on_c, 4, 81, 85
6, 7293, Note_on_c, 4, 81, 0
6, 7296, Note_on_c, 4, 74, 103
6, 7323, Note_on_c, 4, 74, 0
6, 7332, Note_on_c, 4, 76, 88
6, 7341, Note_on_c, 4, 76, 0
6, 7344, Note_on_c, 4, 73, 82
6, 7371, Note_on_c, 4, 73, 0
6, 7380, Note_on_c, 4, 74, 96
6, 7389, Note_on_c, 4, 74, 0
6, 7392, Note_on_c, 4, 74, 91
6, 7464, Note_on_c, 4, 74, 0
6, 7488, Control_c, 4, 7, 80
6, 7488, Program_c, 4, 52
6, 7488, Note_on_c, 4, 71, 85
6, 7500, Note_on_c, 4, 71, 0
6, 7504, Note_on_c, 4, 74, 85
6, 7516, Note_on_c, 4, 74, 0
6, 7520, Note_on_c, 4, 78, 46
6, 7532, Note_on_c, 4, 78, 0
6, 7536, Control_c, 4, 7, 80
6, 7536, Note_on_c, 4, 78, 47
6, 7548, Note_on_c, 4, 78, 0
6, 7552, Note_on_c, 4, 76, 85
6, 7564, Note_on_c, 4, 76, 0
6, 7568, Note_on_c, 4, 78, 49
6, 7580, Note_on_c, 4, 78, 0
6, 7584, Note_on_c, 4, 71, 85
6, 7596, Note_on_c, 4, 71, 0
6, 7600, Note_on_c, 4, 74, 85
6, 7612, Note_on_c, 4, 74, 0
6, 7616, Note_on_c, 4, 78, 49
6, 7628, Note_on_c, 4, 78, 0
6, 7632, Note_on_c, 4, 78, 64
6, 7644, Note_on_c, 4, 78, 0
6, 7648, Note_on_c, 4, 76, 85
6, 7660, Note_on_c, 4, 76, 0
6, 7664, Note_on_c, 4, 78, 62
6, 7676, Note_on_c, 4, 78, 0
6, 7680, Note_on_c, 4, 71, 85
6, 7692, Note_on_c, 4, 71, 0
6, 7696, Note_on_c, 4, 75, 70
6, 7708, Note_on_c, 4, 75, 0
6, 7712, Note_on_c, 4, 76, 81
6, 7724, Note_on_c, 4, 76, 0
6, 7728, Note_on_c, 4, 76, 85
6, 7740, Note_on_c, 4, 76, 0
6, 7744, Note_on_c, 4, 75, 66
6, 7756, Note_on_c, 4, 75, 0
6, 7760, Note_on_c, 4, 76, 85
6, 7772, Note_on_c, 4, 76, 0
6, 7776, Note_on_c, 4, 70, 72
6, 7788, Note_on_c, 4, 70, 0
6, 7792, Note_on_c, 4, 73, 71
6, 7804, Note_on_c, 4, 73, 0
6, 7808, Note_on_c, 4, 76, 55
6, 7820, Note_on_c, 4, 76, 0
6, 7824, Note_on_c, 4, 76, 85
6, 7836, Note_on_c, 4, 76, 0
6, 7840, Note_on_c, 4, 74, 85
6, 7852, Note_on_c, 4, 74, 0
6, 7856, Note_on_c, 4, 76, 85
6, 7868, Note_on_c, 4, 76, 0
6, 7872, Note_on_c, 4, 71, 85
6, 7884, Note_on_c, 4, 71, 0
6, 7888, Note_on_c, 4, 74, 85
6, 7900, Note_on_c, 4, 74, 0
6, 7904, Note_on_c, 4, 78, 59
6, 7916, Note_on_c, 4, 78, 0
6, 7920, Note_on_c, 4, 78, 64
6, 7932, Note_on_c, 4, 78, 0
6, 7936, Note_on_c, 4, 76, 85
6, 7948, Note_on_c, 4, 76, 0
6, 7952, Note_on_c, 4, 78, 64
6, 7964, Note_on_c, 4, 78, 0
6, 7968, Note_on_c, 4, 69, 85
6, 7980, Note_on_c, 4, 69, 0
6, 7984, Note_on_c, 4, 76, 85
6, 7996, Note_on_c, 4, 76, 0
6, 8000, Note_on_c, 4, 79, 47
6, 8012, Note_on_c, 4, 79, 0
6, 8016, Note_on_c, 4, 79, 67
6, 8028, Note_on_c, 4, 79, 0
6, 8032, Note_on_c, 4, 78, 66
6, 8044, Note_on_c, 4, 78, 0
6, 8048, Note_on_c, 4, 79, 74
6, 8060, Note_on_c, 4, 79, 0
6, 8064, Note_on_c, 4, 68, 43
6, 8076, Note_on_c, 4, 68, 0
6, 8080, Note_on_c, 4, 66, 66
6, 8092, Note_on_c, 4, 66, 0
6, 8096, Note_on_c, 4, 76, 84
6, 8108, Note_on_c, 4, 76, 0
6, 8112, Note_on_c, 4, 74, 79
6, 8124, Note_on_c, 4, 74, 0
6, 8128, Note_on_c, 4, 76, 52
6, 8140, Note_on_c, 4, 76, 0
6, 8144, Note_on_c, 4, 73, 66
6, 8156, Note_on_c, 4, 73, 0
6, 8160, Note_on_c, 4, 71, 85
6, 8178, Note_on_c, 4, 71, 0
6, 8208, Note_on_c, 4, 66, 53
6, 8226, Note_on_c, 4, 66, 0
6, 8256, Note_on_c, 4, 71, 85
6, 8274, Note_on_c, 4, 71, 0
6, 8304, Note_on_c, 4, 73, 57
6, 8316, Note_on_c, 4, 73, 0
6, 8320, Note_on_c, 4, 74, 85
6, 8332, Note_on_c, 4, 74, 0
6, 8336, Note_on_c, 4, 76, 85
6, 8348, Note_on_c, 4, 76, 0
6, 8352, Note_on_c, 4, 78, 62
6, 8364, Note_on_c, 4, 78, 0
6, 8368, Note_on_c, 4, 76, 76
6, 8380, Note_on_c, 4, 76, 0
6, 8384, Note_on_c, 4, 74, 85
6, 8396, Note_on_c, 4, 74, 0
6, 8400, Note_on_c, 4, 73, 65
6, 8412, Note_on_c, 4, 73, 0
6, 8416, Note_on_c, 4, 71, 44
6, 8428, Note_on_c, 4, 71, 0
6, 8432, Note_on_c, 4, 70, 66
6, 8444, Note_on_c, 4, 70, 0
6, 8448, Control_c, 4, 7, 103
6, 8448, Note_on_c, 4, 71, 85
6, 8475, Note_on_c, 4, 71, 0
6, 8484, Note_on_c, 4, 78, 59
6, 8493, Note_on_c, 4, 78, 0
6, 8496, Control_c, 4, 7, 103
6, 8496, Note_on_c, 4, 83, 85
6, 8523, Note_on_c, 4, 83, 0
6, 8532, Note_on_c, 4, 78, 74
6, 8541, Note_on_c, 4, 78, 0
6, 8544, Note_on_c, 4, 79, 85
6, 8652, Note_on_c, 4, 79, 0
6, 8676, Note_on_c, 4, 79, 85
6, 8688, Note_on_c, 4, 79, 0
6, 8688, Note_on_c, 4, 81, 85
6, 8700, Note_on_c, 4, 81, 0
6, 8704, Note_on_c, 4, 78, 54
6, 8716, Note_on_c, 4, 78, 0
6, 8720, Note_on_c, 4, 79, 85
6, 8732, Note_on_c, 4, 79, 0
6, 8736, Note_on_c, 4, 78, 89
6, 8808, Note_on_c, 4, 78, 0
6, 8832, Note_on_c, 4, 78, 86
6, 8859, Note_on_c, 4, 78, 0
6, 8868, Note_on_c, 4, 78, 78
6, 8877, Note_on_c, 4, 78, 0
6, 8880, Note_on_c, 4, 83, 85
6, 8907, Note_on_c, 4, 83, 0
6, 8916, Note_on_c, 4, 79, 85
6, 8925, Note_on_c, 4, 79, 0
6, 8928, Note_on_c, 4, 76, 85
6, 9000, Note_on_c, 4, 76, 0
6, 9024, Note_on_c, 4, 76, 95
6, 9036, Note_on_c, 4, 76, 0
6, 9040, Note_on_c, 4, 78, 95
6, 9052, Note_on_c, 4, 78, 0
6, 9056, Note_on_c, 4, 79, 95
6, 9068, Note_on_c, 4, 79, 0
6, 9072, Note_on_c, 4, 78, 95
6, 9084, Note_on_c, 4, 78, 0
6, 9088, Note_on_c, 4, 79, 95
6, 9100, Note_on_c, 4, 79, 0
6, 9104, Note_on_c, 4, 76, 95
6, 9116, Note_on_c, 4, 76, 0
6, 9120, Note_on_c, 4, 74, 95
6, 9132, Note_on_c, 4, 74, 0
6, 9136, Note_on_c, 4, 71, 95
6, 9148, Note_on_c, 4, 71, 0
6, 9152, Note_on_c, 4, 73, 95
6, 9164, Note_on_c, 4, 73, 0
6, 9168, Note_on_c, 4, 74, 95
6, 9180, Note_on_c, 4, 74, 0
6, 9184, Note_on_c, 4, 78, 95
6, 9196, Note_on_c, 4, 78, 0
6, 9200, Note_on_c, 4, 77, 95
6, 9212, Note_on_c, 4, 77, 0
6, 9216, Note_on_c, 4, 78, 95
6, 9228, Note_on_c, 4, 78, 0
6, 9232, Note_on_c, 4, 80, 95
6, 9244, Note_on_c, 4, 80, 0
6, 9248, Note_on_c, 4, 81, 95
6, 9260, Note_on_c, 4, 81, 0
6, 9264, Note_on_c, 4, 80, 95
6, 9280, Note_on_c, 4, 81, 95
6, 9282, Note_on_c, 4, 80, 0
6, 9292, Note_on_c, 4, 81, 0
6, 9296, Note_on_c, 4, 78, 95
6, 9308, Note_on_c, 4, 78, 0
6, 9312, Note_on_c, 4, 77, 95
6, 9324, Note_on_c, 4, 77, 0
6, 9328, Note_on_c, 4, 80, 95
6, 9340, Note_on_c, 4, 80, 0
6, 9344, Note_on_c, 4, 85, 95
6, 9356, Note_on_c, 4, 85, 0
6, 9360, Note_on_c, 4, 83, 95
6, 9372, Note_on_c, 4, 83, 0
6, 9376, Note_on_c, 4, 81, 95
6, 9388, Note_on_c, 4, 81, 0
6, 9392, Note_on_c, 4, 80, 95
6, 9404, Note_on_c, 4, 80, 0
6, 9408, Note_on_c, 4, 78, 63
6, 9435, Note_on_c, 4, 78, 0
6, 9444, Note_on_c, 4, 73, 63
6, 9456, Note_on_c, 4, 73, 0
6, 9456, Note_on_c, 4, 73, 63
6, 9468, Note_on_c, 4, 73, 0
6, 9472, Note_on_c, 4, 71, 63
6, 9484, Note_on_c, 4, 71, 0
6, 9488, Note_on_c, 4, 73, 63
6, 9500, Note_on_c, 4, 73, 0
6, 9504, Note_on_c, 4, 66, 63
6, 9516, Note_on_c, 4, 66, 0
6, 9520, Note_on_c, 4, 69, 63
6, 9532, Note_on_c, 4, 69, 0
6, 9536, Note_on_c, 4, 73, 63
6, 9548, Note_on_c, 4, 73, 0
6, 9552, Note_on_c, 4, 73, 63
6, 9564, Note_on_c, 4, 73, 0
6, 9568, Note_on_c, 4, 71, 63
6, 9580, Note_on_c, 4, 71, 0
6, 9584, Note_on_c, 4, 73, 63
6, 9596, Note_on_c, 4, 73, 0
6, 9600, Note_on_c, 4, 66, 63
6, 9612, Note_on_c, 4, 66, 0
6, 9616, Note_on_c, 4, 70, 63
6, 9628, Note_on_c, 4, 70, 0
6, 9632, Note_on_c, 4, 71, 63
6, 9644, Note_on_c, 4, 71, 0
6, 9648, Note_on_c, 4, 71, 85
6, 9660, Note_on_c, 4, 71, 0
6, 9664, Note_on_c, 4, 70, 66
6, 9676, Note_on_c, 4, 70, 0
6, 9680, Note_on_c, 4, 71, 85
6, 9692, Note_on_c, 4, 71, 0
6, 9696, Note_on_c, 4, 65, 85
6, 9708, Note_on_c, 4, 65, 0
6, 9712, Note_on_c, 4, 68, 66
6, 9724, Note_on_c, 4, 68, 0
6, 9728, Note_on_c, 4, 71, 85
6, 9740, Note_on_c, 4, 71, 0
6, 9744, Note_on_c, 4, 71, 85
6, 9756, Note_on_c, 4, 71, 0
6, 9760, Note_on_c, 4, 69, 85
6, 9772, Note_on_c, 4, 69, 0
6, 9776, Note_on_c, 4, 71, 85
6, 9788, Note_on_c, 4, 71, 0
6, 9792, Note_on_c, 4, 66, 57
6, 9804, Note_on_c, 4, 66, 0
6, 9808, Note_on_c, 4, 69, 85
6, 9820, Note_on_c, 4, 69, 0
6, 9824, Note_on_c, 4, 73, 67
6, 9836, Note_on_c, 4, 73, 0
6, 9840, Note_on_c, 4, 73, 70
6, 9852, Note_on_c, 4, 73, 0
6, 9856, Note_on_c, 4, 71, 85
6, 9868, Note_on_c, 4, 71, 0
6, 9872, Note_on_c, 4, 73, 67
6, 9884, Note_on_c, 4, 73, 0
6, 9888, Note_on_c, 4, 65, 85
6, 9900, Note_on_c, 4, 65, 0
6, 9904, Note_on_c, 4, 71, 85
6, 9916, Note_on_c, 4, 71, 0
6, 9920, Note_on_c, 4, 74, 85
6, 9932, Note_on_c, 4, 74, 0
6, 9936, Note_on_c, 4, 74, 85
6, 9948, Note_on_c, 4, 74, 0
6, 9952, Note_on_c, 4, 73, 70
6, 9964, Note_on_c, 4, 73, 0
6, 9968, Note_on_c, 4, 74, 85
6, 9980, Note_on_c, 4, 74, 0
6, 9984, Note_on_c, 4, 65, 85
6, 9996, Note_on_c, 4, 65, 0
6, 10000, Note_on_c, 4, 61, 55
6, 10012, Note_on_c, 4, 61, 0
6, 10016, Note_on_c, 4, 71, 85
6, 10028, Note_on_c, 4, 71, 0
6, 10032, Note_on_c, 4, 69, 77
6, 10044, Note_on_c, 4, 69, 0
6, 10048, Note_on_c, 4, 71, 85
6, 10060, Note_on_c, 4, 71, 0
6, 10064, Note_on_c, 4, 68, 66
6, 10076, Note_on_c, 4, 68, 0
6, 10080, Note_on_c, 4, 66, 81
6, 10098, Note_on_c, 4, 66, 0
6, 10192, Note_on_c, 4, 66, 62
6, 10204, Note_on_c, 4, 66, 0
6, 10208, Note_on_c, 4, 68, 70
6, 10220, Note_on_c, 4, 68, 0
6, 10224, Note_on_c, 4, 69, 85
6, 10236, Note_on_c, 4, 69, 0
6, 10240, Note_on_c, 4, 73, 64
6, 10252, Note_on_c, 4, 73, 0
6, 10256, Note_on_c, 4, 71, 85
6, 10268, Note_on_c, 4, 71, 0
6, 10272, Note_on_c, 4, 73, 67
6, 10290, Note_on_c, 4, 73, 0
6, 10384, Note_on_c, 4, 64, 62
6, 10396, Note_on_c, 4, 64, 0
6, 10400, Note_on_c, 4, 66, 67
6, 10412, Note_on_c, 4, 66, 0
6, 10416, Note_on_c, 4, 68, 56
6, 10428, Note_on_c, 4, 68, 0
6, 10432, Note_on_c, 4, 71, 79
6, 10444, Note_on_c, 4, 71, 0
6, 10448, Note_on_c, 4, 69, 85
6, 10460, Note_on_c, 4, 69, 0
6, 10464, Note_on_c, 4, 71, 84
6, 10469, Note_on_c, 4, 71, 0
6, 10470, Note_on_c, 4, 73, 60
6, 10475, Note_on_c, 4, 73, 0
6, 10476, Note_on_c, 4, 71, 85
6, 10481, Note_on_c, 4, 71, 0
6, 10482, Note_on_c, 4, 73, 65
6, 10487, Note_on_c, 4, 73, 0
6, 10488, Note_on_c, 4, 71, 85
6, 10493, Note_on_c, 4, 71, 0
6, 10494, Note_on_c, 4, 73, 60
6, 10499, Note_on_c, 4, 73, 0
6, 10500, Note_on_c, 4, 71, 69
6, 10505, Note_on_c, 4, 71, 0
6, 10506, Note_on_c, 4, 73, 68
6, 10511, Note_on_c, 4, 73, 0
6, 10512, Note_on_c, 4, 71, 85
6, 10517, Note_on_c, 4, 71, 0
6, 10518, Note_on_c, 4, 73, 65
6, 10523, Note_on_c, 4, 73, 0
6, 10524, Note_on_c, 4, 71, 85
6, 10529, Note_on_c, 4, 71, 0
6, 10530, Note_on_c, 4, 73, 60
6, 10535, Note_on_c, 4, 73, 0
6, 10536, Note_on_c, 4, 71, 69
6, 10541, Note_on_c, 4, 71, 0
6, 10542, Note_on_c, 4, 73, 68
6, 10547, Note_on_c, 4, 73, 0
6, 10548, Note_on_c, 4, 71, 72
6, 10560, Note_on_c, 4, 71, 0
6, 10560, Note_on_c, 4, 69, 82
6, 10565, Note_on_c, 4, 69, 0
6, 10566, Note_on_c, 4, 71, 85
6, 10571, Note_on_c, 4, 71, 0
6, 10572, Note_on_c, 4, 69, 85
6, 10577, Note_on_c, 4, 69, 0
6, 10578, Note_on_c, 4, 71, 85
6, 10583, Note_on_c, 4, 71, 0
6, 10584, Note_on_c, 4, 69, 85
6, 10589, Note_on_c, 4, 69, 0
6, 10590, Note_on_c, 4, 71, 85
6, 10595, Note_on_c, 4, 71, 0
6, 10596, Note_on_c, 4, 69, 78
6, 10601, Note_on_c, 4, 69, 0
6, 10602, Note_on_c, 4, 71, 85
6, 10607, Note_on_c, 4, 71, 0
6, 10608, Note_on_c, 4, 69, 85
6, 10613, Note_on_c, 4, 69, 0
6, 10614, Note_on_c, 4, 71, 85
6, 10619, Note_on_c, 4, 71, 0
6, 10620, Note_on_c, 4, 69, 85
6, 10625, Note_on_c, 4, 69, 0
6, 10626, Note_on_c, 4, 71, 85
6, 10631, Note_on_c, 4, 71, 0
6, 10632, Note_on_c, 4, 69, 85
6, 10637, Note_on_c, 4, 69, 0
6, 10638, Note_on_c, 4, 71, 52
6, 10643, Note_on_c, 4, 71, 0
6, 10644, Note_on_c, 4, 69, 85
6, 10654, Note_on_c, 4, 69, 0
6, 10656, Note_on_c, 4, 68, 68
6, 10661, Note_on_c, 4, 68, 0
6, 10662, Note_on_c, 4, 69, 85
6, 10667, Note_on_c, 4, 69, 0
6, 10668, Note_on_c, 4, 68, 68
6, 10673, Note_on_c, 4, 68, 0
6, 10674, Note_on_c, 4, 69, 85
6, 10679, Note_on_c, 4, 69, 0
6, 10680, Note_on_c, 4, 68, 72
6, 10685, Note_on_c, 4, 68, 0
6, 10686, Note_on_c, 4, 69, 85
6, 10691, Note_on_c, 4, 69, 0
6, 10692, Note_on_c, 4, 68, 79
6, 10697, Note_on_c, 4, 68, 0
6, 10698, Note_on_c, 4, 69, 85
6, 10703, Note_on_c, 4, 69, 0
6, 10704, Note_on_c, 4, 68, 84
6, 10709, Note_on_c, 4, 68, 0
6, 10710, Note_on_c, 4, 69, 85
6, 10715, Note_on_c, 4, 69, 0
6, 10716, Note_on_c, 4, 68, 89
6, 10721, Note_on_c, 4, 68, 0
6, 10722, Note_on_c, 4, 69, 85
6, 10727, Note_on_c, 4, 69, 0
6, 10728, Note_on_c, 4, 68, 74
6, 10733, Note_on_c, 4, 68, 0
6, 10734, Note_on_c, 4, 69, 85
6, 10739, Note_on_c, 4, 69, 0
6, 10740, Note_on_c, 4, 68, 70
6, 10750, Note_on_c, 4, 68, 0
6, 10752, Note_on_c, 4, 68, 62
6, 10765, Note_on_c, 4, 68, 0
6, 10768, Note_on_c, 4, 65, 85
6, 10781, Note_on_c, 4, 65, 0
6, 10784, Note_on_c, 4, 66, 66
6, 10797, Note_on_c, 4, 66, 0
6, 10800, Note_on_c, 4, 68, 62
6, 10813, Note_on_c, 4, 68, 0
6, 10816, Note_on_c, 4, 65, 85
6, 10829, Note_on_c, 4, 65, 0
6, 10832, Note_on_c, 4, 66, 72
6, 10845, Note_on_c, 4, 66, 0
6, 10848, Note_on_c, 4, 68, 72
6, 10888, Note_on_c, 4, 68, 0
6, 10896, Note_on_c, 4, 80, 84
6, 10976, Note_on_c, 4, 80, 0
6, 10992, Note_on_c, 4, 78, 72
6, 11072, Note_on_c, 4, 78, 0
6, 11088, Note_on_c, 4, 83, 85
6, 11168, Note_on_c, 4, 83, 0
6, 11184, Note_on_c, 4, 81, 85
6, 11264, Note_on_c, 4, 81, 0
6, 11280, Note_on_c, 4, 86, 89
6, 11360, Note_on_c, 4, 86, 0
6, 11376, Note_on_c, 4, 85, 70
6, 11406, Note_on_c, 4, 85, 0
6, 11412, Note_on_c, 4, 83, 85
6, 11422, Note_on_c, 4, 83, 0
6, 11424, Note_on_c, 4, 81, 85
6, 11544, Note_on_c, 4, 81, 0
6, 11568, Note_on_c, 4, 80, 62
6, 11598, Note_on_c, 4, 80, 0
6, 11604, Note_on_c, 4, 78, 68
6, 11614, Note_on_c, 4, 78, 0
6, 11616, Note_on_c, 4, 77, 85
6, 11656, Note_on_c, 4, 77, 0
6, 11664, Note_on_c, 4, 76, 85
6, 11724, Note_on_c, 4, 76, 0
6, 11748, Note_on_c, 4, 73, 62
6, 11760, Note_on_c, 4, 73, 0
6, 11760, Note_on_c, 4, 78, 62
6, 11790, Note_on_c, 4, 78, 0
6, 11796, Note_on_c, 4, 73, 53
6, 11806, Note_on_c, 4, 73, 0
6, 11808, Note_on_c, 4, 74, 85
6, 11821, Note_on_c, 4, 74, 0
6, 11824, Note_on_c, 4, 73, 60
6, 11837, Note_on_c, 4, 73, 0
6, 11840, Note_on_c, 4, 71, 85
6, 11853, Note_on_c, 4, 71, 0
6, 11856, Note_on_c, 4, 69, 85
6, 11869, Note_on_c, 4, 69, 0
6, 11872, Note_on_c, 4, 71, 85
6, 11885, Note_on_c, 4, 71, 0
6, 11888, Note_on_c, 4, 73, 68
6, 11901, Note_on_c, 4, 73, 0
6, 11904, Note_on_c, 4, 66, 85
6, 11943, Note_on_c, 4, 66, 0
6, 11952, Note_on_c, 4, 74, 85
6, 12010, Note_on_c, 4, 74, 0
6, 12016, Note_on_c, 4, 69, 85
6, 12029, Note_on_c, 4, 69, 0
6, 12032, Note_on_c, 4, 68, 42
6, 12045, Note_on_c, 4, 68, 0
6, 12048, Note_on_c, 4, 69, 85
6, 12061, Note_on_c, 4, 69, 0
6, 12064, Note_on_c, 4, 71, 81
6, 12077, Note_on_c, 4, 71, 0
6, 12080, Note_on_c, 4, 73, 62
6, 12093, Note_on_c, 4, 73, 0
6, 12096, Note_on_c, 4, 74, 72
6, 12109, Note_on_c, 4, 74, 0
6, 12112, Note_on_c, 4, 71, 85
6, 12125, Note_on_c, 4, 71, 0
6, 12128, Note_on_c, 4, 69, 85
6, 12141, Note_on_c, 4, 69, 0
6, 12144, Note_on_c, 4, 68, 64
6, 12173, Note_on_c, 4, 68, 0
6, 12180, Note_on_c, 4, 66, 61
6, 12190, Note_on_c, 4, 66, 0
6, 12192, Note_on_c, 4, 66, 72
6, 12348, Note_on_c, 4, 66, 0
6, 12420, Note_on_c, 4, 78, 70
6, 12432, Note_on_c, 4, 78, 0
6, 12432, Note_on_c, 4, 83, 85
6, 12468, Note_on_c, 4, 83, 0
6, 12468, Note_on_c, 4, 78, 85
6, 12480, Note_on_c, 4, 78, 0
6, 12480, Note_on_c, 4, 79, 85
6, 12496, Note_on_c, 4, 79, 0
6, 12496, Note_on_c, 4, 78, 85
6, 12512, Note_on_c, 4, 78, 0
6, 12512, Note_on_c, 4, 76, 85
6, 12528, Note_on_c, 4, 76, 0
6, 12528, Note_on_c, 4, 75, 85
6, 12544, Note_on_c, 4, 75, 0
6, 12544, Note_on_c, 4, 76, 85
6, 12560, Note_on_c, 4, 76, 0
6, 12560, Note_on_c, 4, 78, 85
6, 12576, Note_on_c, 4, 78, 0
6, 12576, Note_on_c, 4, 71, 85
6, 12592, Note_on_c, 4, 71, 0
6, 12592, Note_on_c, 4, 76, 85
6, 12608, Note_on_c, 4, 76, 0
6, 12608, Note_on_c, 4, 79, 85
6, 12624, Note_on_c, 4, 79, 0
6, 12624, Note_on_c, 4, 83, 85
6, 12640, Note_on_c, 4, 83, 0
6, 12640, Note_on_c, 4, 81, 85
6, 12656, Note_on_c, 4, 81, 0
6, 12656, Note_on_c, 4, 83, 85
6, 12672, Note_on_c, 4, 83, 0
6, 12672, Note_on_c, 4, 76, 85
6, 12688, Note_on_c, 4, 76, 0
6, 12688, Note_on_c, 4, 74, 85
6, 12704, Note_on_c, 4, 74, 0
6, 12704, Note_on_c, 4, 73, 85
6, 12720, Note_on_c, 4, 73, 0
6, 12720, Note_on_c, 4, 74, 85
6, 12784, Note_on_c, 4, 73, 85
6, 12792, Note_on_c, 4, 74, 0
6, 12800, Note_on_c, 4, 73, 0
6, 12800, Note_on_c, 4, 76, 85
6, 12816, Note_on_c, 4, 76, 0
6, 12816, Note_on_c, 4, 81, 85
6, 12852, Note_on_c, 4, 81, 0
6, 12852, Note_on_c, 4, 76, 85
6, 12864, Note_on_c, 4, 76, 0
6, 12864, Note_on_c, 4, 78, 85
6, 12880, Note_on_c, 4, 78, 0
6, 12880, Note_on_c, 4, 76, 85
6, 12896, Note_on_c, 4, 76, 0
6, 12896, Note_on_c, 4, 74, 85
6, 12912, Note_on_c, 4, 74, 0
6, 12912, Note_on_c, 4, 73, 85
6, 12928, Note_on_c, 4, 73, 0
6, 12928, Note_on_c, 4, 74, 85
6, 12944, Note_on_c, 4, 74, 0
6, 12944, Note_on_c, 4, 76, 85
6, 12960, Note_on_c, 4, 76, 0
6, 12960, Note_on_c, 4, 69, 85
6, 12996, Note_on_c, 4, 69, 0
6, 12996, Note_on_c, 4, 68, 85
6, 13008, Note_on_c, 4, 68, 0
6, 13008, Note_on_c, 4, 66, 85
6, 13024, Note_on_c, 4, 66, 0
6, 13024, Note_on_c, 4, 69, 85
6, 13040, Note_on_c, 4, 69, 0
6, 13040, Note_on_c, 4, 74, 85
6, 13056, Note_on_c, 4, 74, 0
6, 13056, Note_on_c, 4, 74, 85
6, 13092, Note_on_c, 4, 74, 0
6, 13092, Note_on_c, 4, 73, 85
6, 13096, Note_on_c, 4, 73, 0
6, 13096, Note_on_c, 4, 71, 85
6, 13100, Note_on_c, 4, 71, 0
6, 13100, Note_on_c, 4, 69, 85
6, 13104, Note_on_c, 4, 69, 0
6, 13104, Note_on_c, 4, 68, 85
6, 13120, Note_on_c, 4, 68, 0
6, 13120, Note_on_c, 4, 71, 85
6, 13136, Note_on_c, 4, 71, 0
6, 13136, Note_on_c, 4, 76, 85
6, 13152, Note_on_c, 4, 76, 0
6, 13152, Note_on_c, 4, 76, 85
6, 13188, Note_on_c, 4, 76, 0
6, 13188, Note_on_c, 4, 74, 85
6, 13192, Note_on_c, 4, 74, 0
6, 13192, Note_on_c, 4, 73, 85
6, 13196, Note_on_c, 4, 73, 0
6, 13196, Note_on_c, 4, 71, 85
6, 13200, Note_on_c, 4, 71, 0
6, 13200, Note_on_c, 4, 69, 85
6, 13216, Note_on_c, 4, 69, 0
6, 13216, Note_on_c, 4, 73, 85
6, 13232, Note_on_c, 4, 73, 0
6, 13232, Note_on_c, 4, 78, 85
6, 13248, Note_on_c, 4, 78, 0
6, 13248, Note_on_c, 4, 78, 85
6, 13284, Note_on_c, 4, 78, 0
6, 13284, Note_on_c, 4, 76, 85
6, 13288, Note_on_c, 4, 76, 0
6, 13288, Note_on_c, 4, 74, 85
6, 13292, Note_on_c, 4, 74, 0
6, 13292, Note_on_c, 4, 73, 85
6, 13296, Note_on_c, 4, 73, 0
6, 13296, Note_on_c, 4, 71, 85
6, 13312, Note_on_c, 4, 71, 0
6, 13312, Note_on_c, 4, 74, 85
6, 13328, Note_on_c, 4, 74, 0
6, 13328, Note_on_c, 4, 80, 85
6, 13344, Note_on_c, 4, 80, 0
6, 13344, Note_on_c, 4, 80, 85
6, 13380, Note_on_c, 4, 80, 0
6, 13380, Note_on_c, 4, 78, 85
6, 13384, Note_on_c, 4, 78, 0
6, 13384, Note_on_c, 4, 76, 85
6, 13388, Note_on_c, 4, 76, 0
6, 13388, Note_on_c, 4, 74, 85
6, 13392, Note_on_c, 4, 74, 0
6, 13392, Note_on_c, 4, 73, 85
6, 13408, Note_on_c, 4, 73, 0
6, 13408, Note_on_c, 4, 76, 85
6, 13424, Note_on_c, 4, 76, 0
6, 13424, Note_on_c, 4, 81, 85
6, 13440, Note_on_c, 4, 81, 0
6, 13440, Note_on_c, 4, 81, 85
6, 13476, Note_on_c, 4, 81, 0
6, 13476, Note_on_c, 4, 79, 85
6, 13480, Note_on_c, 4, 79, 0
6, 13480, Note_on_c, 4, 78, 85
6, 13484, Note_on_c, 4, 78, 0
6, 13484, Note_on_c, 4, 76, 85
6, 13488, Note_on_c, 4, 76, 0
6, 13488, Note_on_c, 4, 74, 85
6, 13504, Note_on_c, 4, 74, 0
6, 13504, Note_on_c, 4, 78, 85
6, 13520, Note_on_c, 4, 78, 0
6, 13520, Note_on_c, 4, 83, 85
6, 13536, Note_on_c, 4, 83, 0
6, 13536, Note_on_c, 4, 76, 85
6, 13552, Note_on_c, 4, 76, 0
6, 13552, Note_on_c, 4, 78, 85
6, 13568, Note_on_c, 4, 78, 0
6, 13568, Note_on_c, 4, 80, 85
6, 13584, Note_on_c, 4, 80, 0
6, 13584, Note_on_c, 4, 81, 85
6, 13728, Note_on_c, 4, 81, 0
6, 13728, Note_on_c, 4, 81, 85
6, 13824, Note_on_c, 4, 81, 0
6, 13824, Note_on_c, 4, 81, 85
6, 13840, Note_on_c, 4, 81, 0
6, 13840, Note_on_c, 4, 80, 85
6, 13856, Note_on_c, 4, 80, 0
6, 13856, Note_on_c, 4, 78, 85
6, 13872, Note_on_c, 4, 78, 0
6, 13872, Note_on_c, 4, 83, 85
6, 13888, Note_on_c, 4, 83, 0
6, 13888, Note_on_c, 4, 85, 85
6, 13904, Note_on_c, 4, 85, 0
6, 13904, Note_on_c, 4, 81, 85
6, 13920, Note_on_c, 4, 81, 0
6, 13920, Note_on_c, 4, 80, 85
6, 13936, Note_on_c, 4, 80, 0
6, 13936, Note_on_c, 4, 78, 85
6, 13952, Note_on_c, 4, 78, 0
6, 13952, Note_on_c, 4, 76, 85
6, 13968, Note_on_c, 4, 76, 0
6, 13968, Note_on_c, 4, 81, 85
6, 14004, Note_on_c, 4, 81, 0
6, 14004, Note_on_c, 4, 74, 85
6, 14016, Note_on_c, 4, 74, 0
6, 14016, Note_on_c, 4, 73, 85
6, 14040, Note_on_c, 4, 73, 0
6, 14064, Note_on_c, 4, 71, 85
6, 14070, Note_on_c, 4, 71, 0
6, 14070, Note_on_c, 4, 73, 85
6, 14076, Note_on_c, 4, 73, 0
6, 14076, Note_on_c, 4, 71, 85
6, 14082, Note_on_c, 4, 71, 0
6, 14082, Note_on_c, 4, 73, 85
6, 14088, Note_on_c, 4, 73, 0
6, 14088, Note_on_c, 4, 71, 85
6, 14094, Note_on_c, 4, 71, 0
6, 14112, Control_c, 4, 7, 80
6, 14112, Note_on_c, 4, 69, 85
6, 14128, Note_on_c, 4, 69, 0
6, 14128, Note_on_c, 4, 73, 85
6, 14144, Note_on_c, 4, 73, 0
6, 14144, Note_on_c, 4, 76, 85
6, 14160, Note_on_c, 4, 76, 0
6, 14160, Control_c, 4, 7, 80
6, 14160, Note_on_c, 4, 76, 85
6, 14176, Note_on_c, 4, 76, 0
6, 14176, Note_on_c, 4, 74, 85
6, 14192, Note_on_c, 4, 74, 0
6, 14192, Note_on_c, 4, 76, 85
6, 14208, Note_on_c, 4, 76, 0
6, 14208, Note_on_c, 4, 64, 46
6, 14221, Note_on_c, 4, 64, 0
6, 14224, Note_on_c, 4, 69, 85
6, 14237, Note_on_c, 4, 69, 0
6, 14240, Note_on_c, 4, 73, 55
6, 14253, Note_on_c, 4, 73, 0
6, 14256, Note_on_c, 4, 73, 62
6, 14269, Note_on_c, 4, 73, 0
6, 14272, Note_on_c, 4, 71, 84
6, 14285, Note_on_c, 4, 71, 0
6, 14288, Note_on_c, 4, 73, 54
6, 14301, Note_on_c, 4, 73, 0
6, 14304, Note_on_c, 4, 66, 66
6, 14317, Note_on_c, 4, 66, 0
6, 14320, Note_on_c, 4, 67, 79
6, 14333, Note_on_c, 4, 67, 0
6, 14336, Note_on_c, 4, 69, 85
6, 14349, Note_on_c, 4, 69, 0
6, 14352, Note_on_c, 4, 71, 85
6, 14365, Note_on_c, 4, 71, 0
6, 14368, Note_on_c, 4, 73, 49
6, 14381, Note_on_c, 4, 73, 0
6, 14384, Note_on_c, 4, 69, 69
6, 14397, Note_on_c, 4, 69, 0
6, 14400, Note_on_c, 4, 62, 79
6, 14413, Note_on_c, 4, 62, 0
6, 14416, Note_on_c, 4, 65, 85
6, 14429, Note_on_c, 4, 65, 0
6, 14432, Note_on_c, 4, 71, 85
6, 14445, Note_on_c, 4, 71, 0
6, 14448, Note_on_c, 4, 71, 82
6, 14461, Note_on_c, 4, 71, 0
6, 14464, Note_on_c, 4, 69, 62
6, 14477, Note_on_c, 4, 69, 0
6, 14480, Note_on_c, 4, 71, 68
6, 14493, Note_on_c, 4, 71, 0
6, 14496, Note_on_c, 4, 64, 84
6, 14509, Note_on_c, 4, 64, 0
6, 14512, Note_on_c, 4, 69, 85
6, 14525, Note_on_c, 4, 69, 0
6, 14528, Note_on_c, 4, 73, 62
6, 14541, Note_on_c, 4, 73, 0
6, 14544, Note_on_c, 4, 73, 59
6, 14557, Note_on_c, 4, 73, 0
6, 14560, Note_on_c, 4, 71, 74
6, 14573, Note_on_c, 4, 71, 0
6, 14576, Note_on_c, 4, 73, 53
6, 14589, Note_on_c, 4, 73, 0
6, 14592, Note_on_c, 4, 62, 79
6, 14605, Note_on_c, 4, 62, 0
6, 14608, Note_on_c, 4, 66, 54
6, 14621, Note_on_c, 4, 66, 0
6, 14624, Note_on_c, 4, 71, 71
6, 14637, Note_on_c, 4, 71, 0
6, 14640, Note_on_c, 4, 71, 66
6, 14653, Note_on_c, 4, 71, 0
6, 14656, Note_on_c, 4, 68, 49
6, 14669, Note_on_c, 4, 68, 0
6, 14672, Note_on_c, 4, 69, 85
6, 14685, Note_on_c, 4, 69, 0
6, 14688, Note_on_c, 4, 71, 76
6, 14701, Note_on_c, 4, 71, 0
6, 14704, Note_on_c, 4, 68, 46
6, 14717, Note_on_c, 4, 68, 0
6, 14720, Note_on_c, 4, 69, 81
6, 14733, Note_on_c, 4, 69, 0
6, 14736, Note_on_c, 4, 64, 62
6, 14749, Note_on_c, 4, 64, 0
6, 14752, Note_on_c, 4, 69, 79
6, 14765, Note_on_c, 4, 69, 0
6, 14768, Note_on_c, 4, 68, 53
6, 14781, Note_on_c, 4, 68, 0
6, 14784, Note_on_c, 4, 69, 85
6, 14803, Note_on_c, 4, 69, 0
6, 14976, Program_c, 4, 53
6, 15012, Note_on_c, 4, 71, 85
6, 15024, Note_on_c, 4, 71, 0
6, 15024, Note_on_c, 4, 76, 85
6, 15060, Note_on_c, 4, 76, 0
6, 15060, Note_on_c, 4, 71, 72
6, 15072, Note_on_c, 4, 71, 0
6, 15072, Note_on_c, 4, 72, 61
6, 15088, Note_on_c, 4, 72, 0
6, 15088, Note_on_c, 4, 71, 70
6, 15104, Note_on_c, 4, 71, 0
6, 15104, Note_on_c, 4, 69, 85
6, 15120, Note_on_c, 4, 69, 0
6, 15120, Note_on_c, 4, 67, 84
6, 15136, Note_on_c, 4, 67, 0
6, 15136, Note_on_c, 4, 69, 76
6, 15152, Note_on_c, 4, 69, 0
6, 15152, Note_on_c, 4, 71, 85
6, 15168, Note_on_c, 4, 71, 0
6, 15168, Note_on_c, 4, 64, 85
6, 15192, Note_on_c, 4, 64, 0
6, 15396, Note_on_c, 4, 66, 62
6, 15408, Note_on_c, 4, 66, 0
6, 15408, Note_on_c, 4, 71, 52
6, 15444, Note_on_c, 4, 71, 0
6, 15444, Note_on_c, 4, 66, 66
6, 15456, Note_on_c, 4, 66, 0
6, 15456, Note_on_c, 4, 67, 79
6, 15472, Note_on_c, 4, 67, 0
6, 15472, Note_on_c, 4, 66, 52
6, 15488, Note_on_c, 4, 66, 0
6, 15488, Note_on_c, 4, 64, 76
6, 15504, Note_on_c, 4, 64, 0
6, 15504, Note_on_c, 4, 62, 85
6, 15520, Note_on_c, 4, 62, 0
6, 15520, Note_on_c, 4, 64, 85
6, 15536, Note_on_c, 4, 64, 0
6, 15536, Note_on_c, 4, 66, 62
6, 15552, Note_on_c, 4, 66, 0
6, 15552, Note_on_c, 4, 59, 62
6, 15571, Note_on_c, 4, 59, 0
6, 16896, Program_c, 4, 52
6, 16932, Note_on_c, 4, 69, 85
6, 16942, Note_on_c, 4, 69, 0
6, 16944, Note_on_c, 4, 73, 66
6, 16973, Note_on_c, 4, 73, 0
6, 16980, Note_on_c, 4, 69, 85
6, 16990, Note_on_c, 4, 69, 0
6, 16992, Note_on_c, 4, 66, 70
6, 17031, Note_on_c, 4, 66, 0
6, 17124, Note_on_c, 4, 67, 74
6, 17134, Note_on_c, 4, 67, 0
6, 17136, Note_on_c, 4, 71, 85
6, 17165, Note_on_c, 4, 71, 0
6, 17172, Note_on_c, 4, 67, 85
6, 17182, Note_on_c, 4, 67, 0
6, 17184, Note_on_c, 4, 64, 70
6, 17223, Note_on_c, 4, 64, 0
6, 17316, Note_on_c, 4, 69, 66
6, 17326, Note_on_c, 4, 69, 0
6, 17328, Note_on_c, 4, 74, 74
6, 17357, Note_on_c, 4, 74, 0
6, 17364, Note_on_c, 4, 69, 85
6, 17374, Note_on_c, 4, 69, 0
6, 17376, Note_on_c, 4, 71, 74
6, 17389, Note_on_c, 4, 71, 0
6, 17392, Note_on_c, 4, 69, 85
6, 17405, Note_on_c, 4, 69, 0
6, 17408, Note_on_c, 4, 67, 85
6, 17421, Note_on_c, 4, 67, 0
6, 17424, Note_on_c, 4, 66, 43
6, 17437, Note_on_c, 4, 66, 0
6, 17440, Note_on_c, 4, 67, 85
6, 17453, Note_on_c, 4, 67, 0
6, 17456, Note_on_c, 4, 69, 85
6, 17469, Note_on_c, 4, 69, 0
6, 17472, Note_on_c, 4, 62, 72
6, 17511, Note_on_c, 4, 62, 0
6, 17700, Note_on_c, 4, 64, 72
6, 17710, Note_on_c, 4, 64, 0
6, 17712, Note_on_c, 4, 69, 72
6, 17741, Note_on_c, 4, 69, 0
6, 17748, Note_on_c, 4, 64, 82
6, 17758, Note_on_c, 4, 64, 0
6, 17760, Note_on_c, 4, 66, 49
6, 17773, Note_on_c, 4, 66, 0
6, 17776, Note_on_c, 4, 64, 70
6, 17789, Note_on_c, 4, 64, 0
6, 17792, Note_on_c, 4, 62, 85
6, 17805, Note_on_c, 4, 62, 0
6, 17808, Note_on_c, 4, 61, 37
6, 17821, Note_on_c, 4, 61, 0
6, 17824, Note_on_c, 4, 62, 85
6, 17837, Note_on_c, 4, 62, 0
6, 17840, Note_on_c, 4, 64, 85
6, 17853, Note_on_c, 4, 64, 0
6, 17856, Note_on_c, 4, 57, 77
6, 17895, Note_on_c, 4, 57, 0
6, 18048, Note_on_c, 4, 73, 59
6, 18061, Note_on_c, 4, 73, 0
6, 18064, Note_on_c, 4, 69, 85
6, 18077, Note_on_c, 4, 69, 0
6, 18080, Note_on_c, 4, 71, 85
6, 18093, Note_on_c, 4, 71, 0
6, 18096, Note_on_c, 4, 73, 55
6, 18109, Note_on_c, 4, 73, 0
6, 18112, Note_on_c, 4, 69, 62
6, 18125, Note_on_c, 4, 69, 0
6, 18128, Note_on_c, 4, 71, 85
6, 18141, Note_on_c, 4, 71, 0
6, 18144, Note_on_c, 4, 73, 67
6, 18222, Note_on_c, 4, 73, 0
6, 18240, Note_on_c, 4, 73, 46
6, 18253, Note_on_c, 4, 73, 0
6, 18256, Note_on_c, 4, 76, 81
6, 18269, Note_on_c, 4, 76, 0
6, 18272, Note_on_c, 4, 74, 85
6, 18285, Note_on_c, 4, 74, 0
6, 18288, Note_on_c, 4, 73, 55
6, 18301, Note_on_c, 4, 73, 0
6, 18304, Note_on_c, 4, 76, 72
6, 18317, Note_on_c, 4, 76, 0
6, 18320, Note_on_c, 4, 74, 85
6, 18333, Note_on_c, 4, 74, 0
6, 18336, Note_on_c, 4, 73, 66
6, 18355, Note_on_c, 4, 73, 0
6, 18516, Note_on_c, 4, 71, 85
6, 18526, Note_on_c, 4, 71, 0
6, 18528, Note_on_c, 4, 76, 85
6, 18586, Note_on_c, 4, 76, 0
6, 18612, Note_on_c, 4, 73, 59
6, 18622, Note_on_c, 4, 73, 0
6, 18624, Note_on_c, 4, 74, 85
6, 18682, Note_on_c, 4, 74, 0
6, 18708, Note_on_c, 4, 76, 76
6, 18718, Note_on_c, 4, 76, 0
6, 18720, Note_on_c, 4, 73, 59
6, 18778, Note_on_c, 4, 73, 0
6, 18804, Note_on_c, 4, 73, 66
6, 18814, Note_on_c, 4, 73, 0
6, 18816, Note_on_c, 4, 74, 85
6, 18829, Note_on_c, 4, 74, 0
6, 18832, Note_on_c, 4, 73, 53
6, 18845, Note_on_c, 4, 73, 0
6, 18848, Note_on_c, 4, 71, 64
6, 18861, Note_on_c, 4, 71, 0
6, 18864, Note_on_c, 4, 69, 85
6, 18877, Note_on_c, 4, 69, 0
6, 18880, Note_on_c, 4, 68, 66
6, 18893, Note_on_c, 4, 68, 0
6, 18896, Note_on_c, 4, 66, 67
6, 18909, Note_on_c, 4, 66, 0
6, 18912, Note_on_c, 4, 64, 59
6, 18941, Note_on_c, 4, 64, 0
6, 18948, Note_on_c, 4, 73, 55
6, 18958, Note_on_c, 4, 73, 0
6, 18960, Note_on_c, 4, 80, 71
6, 19018, Note_on_c, 4, 80, 0
6, 19024, Note_on_c, 4, 78, 62
6, 19037, Note_on_c, 4, 78, 0
6, 19040, Note_on_c, 4, 77, 85
6, 19053, Note_on_c, 4, 77, 0
6, 19056, Note_on_c, 4, 78, 66
6, 19069, Note_on_c, 4, 78, 0
6, 19072, Note_on_c, 4, 80, 64
6, 19085, Note_on_c, 4, 80, 0
6, 19088, Note_on_c, 4, 81, 85
6, 19101, Note_on_c, 4, 81, 0
6, 19104, Note_on_c, 4, 83, 85
6, 19182, Note_on_c, 4, 83, 0
6, 19200, Note_on_c, 4, 83, 85
6, 19213, Note_on_c, 4, 83, 0
6, 19216, Note_on_c, 4, 81, 85
6, 19229, Note_on_c, 4, 81, 0
6, 19232, Note_on_c, 4, 80, 62
6, 19245, Note_on_c, 4, 80, 0
6, 19248, Note_on_c, 4, 81, 84
6, 19261, Note_on_c, 4, 81, 0
6, 19264, Note_on_c, 4, 83, 85
6, 19277, Note_on_c, 4, 83, 0
6, 19280, Note_on_c, 4, 85, 74
6, 19293, Note_on_c, 4, 85, 0
6, 19296, Note_on_c, 4, 86, 81
6, 19374, Note_on_c, 4, 86, 0
6, 19392, Note_on_c, 4, 86, 65
6, 19405, Note_on_c, 4, 86, 0
6, 19408, Note_on_c, 4, 85, 55
6, 19421, Note_on_c, 4, 85, 0
6, 19424, Note_on_c, 4, 83, 81
6, 19437, Note_on_c, 4, 83, 0
6, 19440, Note_on_c, 4, 85, 57
6, 19453, Note_on_c, 4, 85, 0
6, 19456, Note_on_c, 4, 86, 85
6, 19469, Note_on_c, 4, 86, 0
6, 19472, Note_on_c, 4, 88, 85
6, 19485, Note_on_c, 4, 88, 0
6, 19488, Note_on_c, 4, 82, 49
6, 19527, Note_on_c, 4, 82, 0
6, 19536, Note_on_c, 4, 83, 70
6, 19594, Note_on_c, 4, 83, 0
6, 19600, Note_on_c, 4, 81, 85
6, 19613, Note_on_c, 4, 81, 0
6, 19616, Note_on_c, 4, 80, 59
6, 19629, Note_on_c, 4, 80, 0
6, 19632, Note_on_c, 4, 81, 77
6, 19645, Note_on_c, 4, 81, 0
6, 19648, Note_on_c, 4, 83, 71
6, 19661, Note_on_c, 4, 83, 0
6, 19664, Note_on_c, 4, 84, 85
6, 19677, Note_on_c, 4, 84, 0
6, 19680, Note_on_c, 4, 75, 69
6, 19719, Note_on_c, 4, 75, 0
6, 19728, Note_on_c, 4, 76, 85
6, 19786, Note_on_c, 4, 76, 0
6, 19792, Note_on_c, 4, 78, 59
6, 19805, Note_on_c, 4, 78, 0
6, 19808, Note_on_c, 4, 76, 85
6, 19821, Note_on_c, 4, 76, 0
6, 19824, Note_on_c, 4, 75, 66
6, 19837, Note_on_c, 4, 75, 0
6, 19840, Note_on_c, 4, 73, 55
6, 19853, Note_on_c, 4, 73, 0
6, 19856, Note_on_c, 4, 71, 85
6, 19869, Note_on_c, 4, 71, 0
6, 19872, Note_on_c, 4, 79, 85
6, 19950, Note_on_c, 4, 79, 0
6, 19968, Note_on_c, 4, 79, 70
6, 19981, Note_on_c, 4, 79, 0
6, 19984, Note_on_c, 4, 66, 56
6, 19997, Note_on_c, 4, 66, 0
6, 20000, Note_on_c, 4, 67, 85
6, 20013, Note_on_c, 4, 67, 0
6, 20016, Note_on_c, 4, 69, 85
6, 20029, Note_on_c, 4, 69, 0
6, 20032, Note_on_c, 4, 71, 85
6, 20045, Note_on_c, 4, 71, 0
6, 20048, Note_on_c, 4, 72, 85
6, 20061, Note_on_c, 4, 72, 0
6, 20064, Note_on_c, 4, 74, 65
6, 20142, Note_on_c, 4, 74, 0
6, 20160, Note_on_c, 4, 74, 85
6, 20173, Note_on_c, 4, 74, 0
6, 20176, Note_on_c, 4, 72, 66
6, 20189, Note_on_c, 4, 72, 0
6, 20192, Note_on_c, 4, 71, 85
6, 20205, Note_on_c, 4, 71, 0
6, 20208, Note_on_c, 4, 72, 85
6, 20266, Note_on_c, 4, 72, 0
6, 20272, Note_on_c, 4, 71, 85
6, 20285, Note_on_c, 4, 71, 0
6, 20288, Note_on_c, 4, 69, 82
6, 20301, Note_on_c, 4, 69, 0
6, 20304, Note_on_c, 4, 71, 64
6, 20317, Note_on_c, 4, 71, 0
6, 20320, Note_on_c, 4, 72, 79
6, 20333, Note_on_c, 4, 72, 0
6, 20336, Note_on_c, 4, 71, 85
6, 20349, Note_on_c, 4, 71, 0
6, 20352, Note_on_c, 4, 69, 85
6, 20391, Note_on_c, 4, 69, 0
6, 20400, Note_on_c, 4, 81, 85
6, 20458, Note_on_c, 4, 81, 0
6, 20464, Note_on_c, 4, 79, 81
6, 20477, Note_on_c, 4, 79, 0
6, 20480, Note_on_c, 4, 78, 46
6, 20493, Note_on_c, 4, 78, 0
6, 20496, Note_on_c, 4, 79, 85
6, 20509, Note_on_c, 4, 79, 0
6, 20512, Note_on_c, 4, 81, 79
6, 20525, Note_on_c, 4, 81, 0
6, 20528, Note_on_c, 4, 79, 76
6, 20541, Note_on_c, 4, 79, 0
6, 20544, Note_on_c, 4, 78, 62
6, 20622, Note_on_c, 4, 78, 0
6, 20640, Note_on_c, 4, 78, 61
6, 20653, Note_on_c, 4, 78, 0
6, 20656, Note_on_c, 4, 76, 72
6, 20669, Note_on_c, 4, 76, 0
6, 20672, Note_on_c, 4, 74, 77
6, 20685, Note_on_c, 4, 74, 0
6, 20688, Note_on_c, 4, 76, 77
6, 20746, Note_on_c, 4, 76, 0
6, 20752, Note_on_c, 4, 78, 52
6, 20765, Note_on_c, 4, 78, 0
6, 20768, Note_on_c, 4, 76, 77
6, 20781, Note_on_c, 4, 76, 0
6, 20784, Note_on_c, 4, 74, 57
6, 20797, Note_on_c, 4, 74, 0
6, 20800, Note_on_c, 4, 73, 49
6, 20813, Note_on_c, 4, 73, 0
6, 20816, Note_on_c, 4, 71, 85
6, 20829, Note_on_c, 4, 71, 0
6, 20832, Note_on_c, 4, 70, 64
6, 20845, Note_on_c, 4, 70, 0
6, 20848, Note_on_c, 4, 68, 59
6, 20861, Note_on_c, 4, 68, 0
6, 20864, Note_on_c, 4, 70, 57
6, 20877, Note_on_c, 4, 70, 0
6, 20880, Note_on_c, 4, 71, 82
6, 20893, Note_on_c, 4, 71, 0
6, 20896, Note_on_c, 4, 73, 55
6, 20909, Note_on_c, 4, 73, 0
6, 20912, Note_on_c, 4, 74, 68
6, 20925, Note_on_c, 4, 74, 0
6, 20928, Note_on_c, 4, 76, 76
6, 20941, Note_on_c, 4, 76, 0
6, 20944, Note_on_c, 4, 78, 55
6, 20957, Note_on_c, 4, 78, 0
6, 20960, Note_on_c, 4, 76, 85
6, 20973, Note_on_c, 4, 76, 0
6, 20976, Note_on_c, 4, 74, 66
6, 20989, Note_on_c, 4, 74, 0
6, 20992, Note_on_c, 4, 73, 54
6, 21005, Note_on_c, 4, 73, 0
6, 21008, Note_on_c, 4, 71, 81
6, 21021, Note_on_c, 4, 71, 0
6, 21024, Note_on_c, 4, 70, 46
6, 21082, Note_on_c, 4, 70, 0
6, 21088, Note_on_c, 4, 71, 85
6, 21101, Note_on_c, 4, 71, 0
6, 21104, Note_on_c, 4, 73, 57
6, 21117, Note_on_c, 4, 73, 0
6, 21120, Note_on_c, 4, 71, 85
6, 21133, Note_on_c, 4, 71, 0
6, 21136, Note_on_c, 4, 73, 54
6, 21149, Note_on_c, 4, 73, 0
6, 21152, Note_on_c, 4, 74, 74
6, 21165, Note_on_c, 4, 74, 0
6, 21168, Note_on_c, 4, 73, 59
6, 21181, Note_on_c, 4, 73, 0
6, 21184, Note_on_c, 4, 74, 85
6, 21197, Note_on_c, 4, 74, 0
6, 21200, Note_on_c, 4, 76, 65
6, 21213, Note_on_c, 4, 76, 0
6, 21216, Note_on_c, 4, 70, 64
6, 21245, Note_on_c, 4, 70, 0
6, 21252, Note_on_c, 4, 71, 81
6, 21262, Note_on_c, 4, 71, 0
6, 21264, Note_on_c, 4, 73, 55
6, 21277, Note_on_c, 4, 73, 0
6, 21280, Note_on_c, 4, 74, 76
6, 21293, Note_on_c, 4, 74, 0
6, 21296, Note_on_c, 4, 76, 77
6, 21309, Note_on_c, 4, 76, 0
6, 21312, Note_on_c, 4, 78, 66
6, 21325, Note_on_c, 4, 78, 0
6, 21328, Note_on_c, 4, 70, 57
6, 21341, Note_on_c, 4, 70, 0
6, 21344, Note_on_c, 4, 71, 85
6, 21357, Note_on_c, 4, 71, 0
6, 21360, Note_on_c, 4, 78, 47
6, 21389, Note_on_c, 4, 78, 0
6, 21396, Note_on_c, 4, 73, 67
6, 21406, Note_on_c, 4, 73, 0
6, 21408, Note_on_c, 4, 74, 85
6, 21421, Note_on_c, 4, 74, 0
6, 21424, Note_on_c, 4, 73, 50
6, 21437, Note_on_c, 4, 73, 0
6, 21440, Note_on_c, 4, 71, 79
6, 21453, Note_on_c, 4, 71, 0
6, 21456, Note_on_c, 4, 70, 59
6, 21469, Note_on_c, 4, 70, 0
6, 21472, Note_on_c, 4, 71, 85
6, 21485, Note_on_c, 4, 71, 0
6, 21488, Note_on_c, 4, 73, 68
6, 21501, Note_on_c, 4, 73, 0
6, 21504, Note_on_c, 4, 66, 55
6, 21582, Note_on_c, 4, 66, 0
6, 21600, Note_on_c, 4, 68, 62
6, 21678, Note_on_c, 4, 68, 0
6, 21696, Note_on_c, 4, 70, 62
6, 21774, Note_on_c, 4, 70, 0
6, 21792, Note_on_c, 4, 71, 70
6, 21870, Note_on_c, 4, 71, 0
6, 21888, Note_on_c, 4, 73, 65
6, 21966, Note_on_c, 4, 73, 0
6, 21984, Note_on_c, 4, 74, 85
6, 22013, Note_on_c, 4, 74, 0
6, 22020, Note_on_c, 4, 76, 85
6, 22030, Note_on_c, 4, 76, 0
6, 22032, Note_on_c, 4, 78, 62
6, 22061, Note_on_c, 4, 78, 0
6, 22068, Note_on_c, 4, 79, 85
6, 22078, Note_on_c, 4, 79, 0
6, 22080, Note_on_c, 4, 71, 85
6, 22099, Note_on_c, 4, 71, 0
6, 22128, Note_on_c, 4, 73, 59
6, 22133, Note_on_c, 4, 73, 0
6, 22134, Note_on_c, 4, 74, 59
6, 22139, Note_on_c, 4, 74, 0
6, 22140, Note_on_c, 4, 73, 52
6, 22145, Note_on_c, 4, 73, 0
6, 22146, Note_on_c, 4, 74, 66
6, 22151, Note_on_c, 4, 74, 0
6, 22176, Note_on_c, 4, 71, 85
6, 22215, Note_on_c, 4, 71, 0
6, 22272, Control_c, 4, 10, 117
6, 22272, Control_c, 4, 7, 96
6, 22272, Pitch_bend_c, 4, 8192
6, 22272, Control_c, 4, 1, 0
6, 22272, Program_c, 4, 52
6, 22272, Control_c, 4, 64, 0
6, 22308, Note_on_c, 4, 69, 95
6, 22318, Note_on_c, 4, 69, 0
6, 22320, Note_on_c, 4, 74, 95
6, 22351, Note_on_c, 4, 74, 0
6, 22356, Note_on_c, 4, 69, 95
6, 22366, Note_on_c, 4, 69, 0
6, 22368, Note_on_c, 4, 71, 95
6, 22382, Note_on_c, 4, 71, 0
6, 22384, Note_on_c, 4, 69, 95
6, 22398, Note_on_c, 4, 69, 0
6, 22400, Note_on_c, 4, 67, 95
6, 22414, Note_on_c, 4, 67, 0
6, 22416, Note_on_c, 4, 66, 95
6, 22430, Note_on_c, 4, 66, 0
6, 22432, Note_on_c, 4, 67, 95
6, 22446, Note_on_c, 4, 67, 0
6, 22448, Note_on_c, 4, 69, 95
6, 22462, Note_on_c, 4, 69, 0
6, 22464, Note_on_c, 4, 62, 95
6, 22478, Note_on_c, 4, 62, 0
6, 22512, Note_on_c, 4, 61, 95
6, 22533, Note_on_c, 4, 61, 0
6, 22560, Note_on_c, 4, 62, 95
6, 22581, Note_on_c, 4, 62, 0
6, 22608, Note_on_c, 4, 64, 95
6, 22629, Note_on_c, 4, 64, 0
6, 22656, Note_on_c, 4, 66, 95
6, 22670, Note_on_c, 4, 66, 0
6, 22672, Note_on_c, 4, 69, 95
6, 22686, Note_on_c, 4, 69, 0
6, 22688, Note_on_c, 4, 74, 95
6, 22702, Note_on_c, 4, 74, 0
6, 22704, Note_on_c, 4, 74, 95
6, 22718, Note_on_c, 4, 74, 0
6, 22720, Note_on_c, 4, 73, 95
6, 22734, Note_on_c, 4, 73, 0
6, 22736, Note_on_c, 4, 74, 95
6, 22750, Note_on_c, 4, 74, 0
6, 22752, Note_on_c, 4, 71, 95
6, 22766, Note_on_c, 4, 71, 0
6, 22768, Note_on_c, 4, 76, 95
6, 22782, Note_on_c, 4, 76, 0
6, 22784, Note_on_c, 4, 74, 95
6, 22798, Note_on_c, 4, 74, 0
6, 22800, Note_on_c, 4, 73, 95
6, 22814, Note_on_c, 4, 73, 0
6, 22816, Note_on_c, 4, 78, 95
6, 22830, Note_on_c, 4, 78, 0
6, 22832, Note_on_c, 4, 76, 95
6, 22846, Note_on_c, 4, 76, 0
6, 22848, Note_on_c, 4, 74, 95
6, 22869, Note_on_c, 4, 74, 0
6, 22896, Note_on_c, 4, 69, 95
6, 22917, Note_on_c, 4, 69, 0
6, 22944, Note_on_c, 4, 71, 95
6, 22965, Note_on_c, 4, 71, 0
6, 22992, Note_on_c, 4, 73, 95
6, 23013, Note_on_c, 4, 73, 0
6, 23040, Note_on_c, 4, 74, 95
6, 23054, Note_on_c, 4, 74, 0
6, 23056, Note_on_c, 4, 78, 95
6, 23070, Note_on_c, 4, 78, 0
6, 23072, Note_on_c, 4, 76, 95
6, 23086, Note_on_c, 4, 76, 0
6, 23088, Note_on_c, 4, 74, 95
6, 23102, Note_on_c, 4, 74, 0
6, 23104, Note_on_c, 4, 78, 95
6, 23118, Note_on_c, 4, 78, 0
6, 23120, Note_on_c, 4, 76, 95
6, 23134, Note_on_c, 4, 76, 0
6, 23136, Note_on_c, 4, 74, 95
6, 23208, Note_on_c, 4, 74, 0
6, 23220, Note_on_c, 4, 73, 95
6, 23230, Note_on_c, 4, 73, 0
6, 23232, Note_on_c, 4, 74, 95
6, 23232, Note_on_c, 4, 74, 95
6, 23246, Note_on_c, 4, 74, 0
6, 23248, Note_on_c, 4, 76, 95
6, 23262, Note_on_c, 4, 76, 0
6, 23264, Note_on_c, 4, 78, 95
6, 23278, Note_on_c, 4, 78, 0
6, 23280, Note_on_c, 4, 76, 95
6, 23294, Note_on_c, 4, 76, 0
6, 23296, Note_on_c, 4, 78, 95
6, 23310, Note_on_c, 4, 78, 0
6, 23312, Note_on_c, 4, 79, 95
6, 23326, Note_on_c, 4, 79, 0
6, 23328, Note_on_c, 4, 78, 95
6, 23342, Note_on_c, 4, 78, 0
6, 23344, Note_on_c, 4, 79, 95
6, 23358, Note_on_c, 4, 79, 0
6, 23360, Note_on_c, 4, 78, 95
6, 23374, Note_on_c, 4, 78, 0
6, 23376, Note_on_c, 4, 76, 95
6, 23390, Note_on_c, 4, 76, 0
6, 23392, Note_on_c, 4, 78, 95
6, 23406, Note_on_c, 4, 78, 0
6, 23408, Note_on_c, 4, 74, 95
6, 23422, Note_on_c, 4, 74, 0
6, 23424, Note_on_c, 4, 73, 95
6, 23440, Note_on_c, 4, 73, 0
6, 23440, Note_on_c, 4, 76, 95
6, 23456, Note_on_c, 4, 76, 0
6, 23456, Note_on_c, 4, 74, 95
6, 23472, Note_on_c, 4, 74, 0
6, 23472, Note_on_c, 4, 73, 95
6, 23488, Note_on_c, 4, 73, 0
6, 23488, Note_on_c, 4, 74, 95
6, 23504, Note_on_c, 4, 74, 0
6, 23504, Note_on_c, 4, 76, 95
6, 23520, Note_on_c, 4, 76, 0
6, 23520, Note_on_c, 4, 71, 95
6, 23544, Note_on_c, 4, 71, 0
6, 23568, Note_on_c, 4, 73, 95
6, 23592, Note_on_c, 4, 73, 0
6, 23616, Note_on_c, 4, 74, 95
6, 23808, Note_on_c, 4, 74, 0
6, 23824, Note_on_c, 4, 76, 95
6, 23840, Note_on_c, 4, 76, 0
6, 23840, Note_on_c, 4, 74, 95
6, 23856, Note_on_c, 4, 74, 0
6, 23856, Note_on_c, 4, 73, 95
6, 23872, Note_on_c, 4, 73, 0
6, 23872, Note_on_c, 4, 74, 95
6, 23888, Note_on_c, 4, 74, 0
6, 23888, Note_on_c, 4, 76, 95
6, 23904, Note_on_c, 4, 76, 0
6, 23904, Note_on_c, 4, 69, 95
6, 23940, Note_on_c, 4, 69, 0
6, 23940, Note_on_c, 4, 78, 95
6, 23952, Note_on_c, 4, 78, 0
6, 23952, Note_on_c, 4, 76, 95
6, 23988, Note_on_c, 4, 76, 0
6, 23988, Note_on_c, 4, 74, 95
6, 24000, Note_on_c, 4, 74, 0
6, 24000, Note_on_c, 4, 73, 95
6, 24016, Note_on_c, 4, 73, 0
6, 24016, Note_on_c, 4, 76, 95
6, 24032, Note_on_c, 4, 76, 0
6, 24032, Note_on_c, 4, 74, 95
6, 24048, Note_on_c, 4, 74, 0
6, 24048, Note_on_c, 4, 73, 95
6, 24064, Note_on_c, 4, 73, 0
6, 24064, Note_on_c, 4, 76, 95
6, 24080, Note_on_c, 4, 76, 0
6, 24080, Note_on_c, 4, 74, 95
6, 24096, Note_on_c, 4, 74, 0
6, 24096, Note_on_c, 4, 73, 95
6, 24192, Note_on_c, 4, 73, 0
6, 24208, Note_on_c, 4, 64, 95
6, 24224, Note_on_c, 4, 64, 0
6, 24224, Note_on_c, 4, 62, 95
6, 24240, Note_on_c, 4, 62, 0
6, 24240, Note_on_c, 4, 61, 95
6, 24256, Note_on_c, 4, 61, 0
6, 24256, Note_on_c, 4, 64, 95
6, 24272, Note_on_c, 4, 64, 0
6, 24272, Note_on_c, 4, 62, 95
6, 24288, Note_on_c, 4, 62, 0
6, 24288, Note_on_c, 4, 61, 95
6, 24384, Note_on_c, 4, 61, 0
6, 24384, Note_on_c, 4, 59, 95
6, 24480, Note_on_c, 4, 59, 0
6, 24480, Note_on_c, 4, 78, 95
6, 24624, Note_on_c, 4, 78, 0
6, 24624, Note_on_c, 4, 76, 95
6, 24640, Note_on_c, 4, 76, 0
6, 24640, Note_on_c, 4, 78, 95
6, 24656, Note_on_c, 4, 78, 0
6, 24656, Note_on_c, 4, 80, 95
6, 24672, Note_on_c, 4, 80, 0
6, 24672, Note_on_c, 4, 81, 95
6, 24736, Note_on_c, 4, 83, 95
6, 24744, Note_on_c, 4, 81, 0
6, 24752, Note_on_c, 4, 83, 0
6, 24752, Note_on_c, 4, 81, 95
6, 24768, Note_on_c, 4, 81, 0
6, 24768, Note_on_c, 4, 80, 95
6, 24784, Note_on_c, 4, 80, 0
6, 24784, Note_on_c, 4, 78, 95
6, 24800, Note_on_c, 4, 78, 0
6, 24800, Note_on_c, 4, 76, 95
6, 24816, Note_on_c, 4, 76, 0
6, 24816, Note_on_c, 4, 81, 95
6, 24912, Note_on_c, 4, 81, 0
6, 24912, Note_on_c, 4, 80, 95
6, 24960, Note_on_c, 4, 80, 0
6, 24960, Note_on_c, 4, 81, 95
6, 25024, Note_on_c, 4, 79, 95
6, 25032, Note_on_c, 4, 81, 0
6, 25040, Note_on_c, 4, 79, 0
6, 25040, Note_on_c, 4, 78, 95
6, 25056, Note_on_c, 4, 78, 0
6, 25056, Note_on_c, 4, 76, 95
6, 25120, Note_on_c, 4, 74, 95
6, 25128, Note_on_c, 4, 76, 0
6, 25136, Note_on_c, 4, 74, 0
6, 25136, Note_on_c, 4, 73, 95
6, 25152, Note_on_c, 4, 73, 0
6, 25152, Note_on_c, 4, 74, 95
6, 25168, Note_on_c, 4, 74, 0
6, 25168, Note_on_c, 4, 73, 95
6, 25184, Note_on_c, 4, 73, 0
6, 25184, Note_on_c, 4, 71, 95
6, 25200, Note_on_c, 4, 71, 0
6, 25200, Note_on_c, 4, 69, 95
6, 25216, Note_on_c, 4, 69, 0
6, 25216, Note_on_c, 4, 73, 95
6, 25232, Note_on_c, 4, 73, 0
6, 25232, Note_on_c, 4, 79, 95
6, 25248, Note_on_c, 4, 79, 0
6, 25248, Note_on_c, 4, 78, 95
6, 25272, Note_on_c, 4, 78, 0
6, 25296, Note_on_c, 4, 80, 95
6, 25320, Note_on_c, 4, 80, 0
6, 25344, Note_on_c, 4, 81, 95
6, 25380, Note_on_c, 4, 81, 0
6, 25380, Note_on_c, 4, 81, 95
6, 25392, Note_on_c, 4, 81, 0
6, 25392, Note_on_c, 4, 86, 95
6, 25428, Note_on_c, 4, 86, 0
6, 25428, Note_on_c, 4, 81, 95
6, 25440, Note_on_c, 4, 81, 0
6, 25440, Note_on_c, 4, 83, 95
6, 25456, Note_on_c, 4, 83, 0
6, 25456, Note_on_c, 4, 81, 95
6, 25472, Note_on_c, 4, 81, 0
6, 25472, Note_on_c, 4, 79, 95
6, 25488, Note_on_c, 4, 79, 0
6, 25488, Note_on_c, 4, 78, 95
6, 25504, Note_on_c, 4, 78, 0
6, 25504, Note_on_c, 4, 79, 95
6, 25520, Note_on_c, 4, 79, 0
6, 25520, Note_on_c, 4, 81, 95
6, 25536, Note_on_c, 4, 81, 0
6, 25536, Note_on_c, 4, 74, 95
6, 25560, Note_on_c, 4, 74, 0
6, 25584, Note_on_c, 4, 73, 95
6, 25608, Note_on_c, 4, 73, 0
6, 25632, Note_on_c, 4, 71, 95
6, 25656, Note_on_c, 4, 71, 0
6, 25680, Note_on_c, 4, 76, 95
6, 25704, Note_on_c, 4, 76, 0
6, 25728, Note_on_c, 4, 74, 95
6, 25744, Note_on_c, 4, 74, 0
6, 25744, Note_on_c, 4, 78, 95
6, 25760, Note_on_c, 4, 78, 0
6, 25760, Note_on_c, 4, 81, 95
6, 25776, Note_on_c, 4, 81, 0
6, 25776, Note_on_c, 4, 81, 95
6, 25792, Note_on_c, 4, 81, 0
6, 25792, Note_on_c, 4, 79, 95
6, 25808, Note_on_c, 4, 79, 0
6, 25808, Note_on_c, 4, 81, 95
6, 25824, Note_on_c, 4, 81, 0
6, 25824, Note_on_c, 4, 78, 95
6, 25840, Note_on_c, 4, 78, 0
6, 25840, Note_on_c, 4, 83, 95
6, 25856, Note_on_c, 4, 83, 0
6, 25856, Note_on_c, 4, 81, 95
6, 25872, Note_on_c, 4, 81, 0
6, 25872, Note_on_c, 4, 80, 95
6, 25888, Note_on_c, 4, 80, 0
6, 25888, Note_on_c, 4, 85, 95
6, 25904, Note_on_c, 4, 85, 0
6, 25904, Note_on_c, 4, 83, 95
6, 25920, Note_on_c, 4, 83, 0
6, 25920, Note_on_c, 4, 81, 95
6, 25984, Note_on_c, 4, 83, 95
6, 25992, Note_on_c, 4, 81, 0
6, 26000, Note_on_c, 4, 83, 0
6, 26000, Note_on_c, 4, 85, 95
6, 26016, Note_on_c, 4, 85, 0
6, 26016, Note_on_c, 4, 86, 95
6, 26032, Note_on_c, 4, 86, 0
6, 26032, Note_on_c, 4, 85, 95
6, 26048, Note_on_c, 4, 85, 0
6, 26048, Note_on_c, 4, 83, 95
6, 26064, Note_on_c, 4, 83, 0
6, 26064, Note_on_c, 4, 81, 95
6, 26080, Note_on_c, 4, 81, 0
6, 26080, Note_on_c, 4, 83, 95
6, 26096, Note_on_c, 4, 83, 0
6, 26096, Note_on_c, 4, 79, 95
6, 26112, Note_on_c, 4, 79, 0
6, 26112, Note_on_c, 4, 78, 95
6, 26136, Note_on_c, 4, 78, 0
6, 26160, Note_on_c, 4, 79, 95
6, 26184, Note_on_c, 4, 79, 0
6, 26208, Note_on_c, 4, 81, 95
6, 26224, Note_on_c, 4, 81, 0
6, 26256, Note_on_c, 4, 72, 95
6, 26272, Note_on_c, 4, 72, 0
6, 26304, Note_on_c, 4, 71, 95
6, 26320, Note_on_c, 4, 71, 0
6, 26352, Note_on_c, 4, 73, 95
6, 26368, Note_on_c, 4, 73, 0
6, 26400, Note_on_c, 4, 74, 95
6, 26416, Note_on_c, 4, 74, 0
6, 26448, Note_on_c, 4, 64, 95
6, 26464, Note_on_c, 4, 64, 0
6, 26464, Note_on_c, 4, 69, 95
6, 26480, Note_on_c, 4, 69, 0
6, 26480, Note_on_c, 4, 73, 95
6, 26496, Note_on_c, 4, 73, 0
6, 26496, Note_on_c, 4, 66, 95
6, 26512, Note_on_c, 4, 66, 0
6, 26512, Note_on_c, 4, 69, 95
6, 26528, Note_on_c, 4, 69, 0
6, 26528, Note_on_c, 4, 74, 95
6, 26544, Note_on_c, 4, 74, 0
6, 26544, Note_on_c, 4, 64, 95
6, 26560, Note_on_c, 4, 64, 0
6, 26560, Note_on_c, 4, 69, 95
6, 26576, Note_on_c, 4, 69, 0
6, 26576, Note_on_c, 4, 73, 95
6, 26592, Note_on_c, 4, 73, 0
6, 26592, Note_on_c, 4, 74, 66
6, 26616, Note_on_c, 4, 74, 0
6, 26640, Note_on_c, 4, 79, 85
6, 26664, Note_on_c, 4, 79, 0
6, 26688, Note_on_c, 4, 78, 60
6, 26712, Note_on_c, 4, 78, 0
6, 26736, Note_on_c, 4, 74, 85
6, 26760, Note_on_c, 4, 74, 0
6, 26784, Note_on_c, 4, 69, 85
6, 26808, Note_on_c, 4, 69, 0
6, 26832, Note_on_c, 4, 69, 74
6, 26868, Note_on_c, 4, 69, 0
6, 26868, Note_on_c, 4, 67, 61
6, 26880, Note_on_c, 4, 67, 0
6, 26880, Note_on_c, 4, 66, 66
6, 26916, Note_on_c, 4, 66, 0
6, 26916, Note_on_c, 4, 67, 85
6, 26928, Note_on_c, 4, 67, 0
6, 26928, Note_on_c, 4, 69, 78
6, 26992, Note_on_c, 4, 69, 70
6, 27008, Note_on_c, 4, 69, 0
6, 27008, Note_on_c, 4, 67, 85
6, 27024, Note_on_c, 4, 67, 0
6, 27024, Note_on_c, 4, 66, 53
6, 27040, Note_on_c, 4, 66, 0
6, 27040, Note_on_c, 4, 67, 85
6, 27056, Note_on_c, 4, 67, 0
6, 27056, Note_on_c, 4, 69, 85
6, 27072, Note_on_c, 4, 69, 0
6, 27072, Note_on_c, 4, 62, 78
6, 27108, Note_on_c, 4, 62, 0
6, 27108, Note_on_c, 4, 71, 78
6, 27120, Note_on_c, 4, 71, 0
6, 27120, Note_on_c, 4, 69, 78
6, 27156, Note_on_c, 4, 69, 0
6, 27156, Note_on_c, 4, 67, 78
6, 27168, Note_on_c, 4, 67, 0
6, 27168, Note_on_c, 4, 66, 78
6, 27184, Note_on_c, 4, 66, 0
6, 27184, Note_on_c, 4, 69, 78
6, 27200, Note_on_c, 4, 69, 0
6, 27200, Note_on_c, 4, 67, 78
6, 27216, Note_on_c, 4, 67, 0
6, 27216, Note_on_c, 4, 66, 78
6, 27232, Note_on_c, 4, 66, 0
6, 27232, Note_on_c, 4, 69, 78
6, 27248, Note_on_c, 4, 69, 0
6, 27248, Note_on_c, 4, 67, 78
6, 27264, Note_on_c, 4, 67, 0
6, 27264, Note_on_c, 4, 66, 95
6, 27376, Note_on_c, 4, 78, 95
6, 27392, Note_on_c, 4, 78, 0
6, 27392, Note_on_c, 4, 76, 95
6, 27408, Note_on_c, 4, 66, 0
6, 27408, Note_on_c, 4, 76, 0
6, 27408, Note_on_c, 4, 74, 95
6, 27424, Note_on_c, 4, 74, 0
6, 27424, Note_on_c, 4, 78, 95
6, 27440, Note_on_c, 4, 78, 0
6, 27440, Note_on_c, 4, 76, 95
6, 27456, Note_on_c, 4, 76, 0
6, 27456, Note_on_c, 4, 74, 95
6, 27738, Note_on_c, 4, 74, 0
6, 27744, Note_on_c, 4, 73, 95
6, 27759, Note_on_c, 4, 73, 0
6, 27760, Note_on_c, 4, 71, 95
6, 27775, Note_on_c, 4, 71, 0
6, 27776, Note_on_c, 4, 69, 95
6, 27791, Note_on_c, 4, 69, 0
6, 27792, Note_on_c, 4, 81, 95
6, 27856, Note_on_c, 4, 83, 95
6, 27859, Note_on_c, 4, 81, 0
6, 27871, Note_on_c, 4, 83, 0
6, 27872, Note_on_c, 4, 81, 95
6, 27887, Note_on_c, 4, 81, 0
6, 27888, Note_on_c, 4, 79, 95
6, 27952, Note_on_c, 4, 81, 95
6, 27955, Note_on_c, 4, 79, 0
6, 27967, Note_on_c, 4, 81, 0
6, 27968, Note_on_c, 4, 79, 95
6, 27983, Note_on_c, 4, 79, 0
6, 27984, Note_on_c, 4, 78, 95
6, 28048, Note_on_c, 4, 71, 95
6, 28051, Note_on_c, 4, 78, 0
6, 28063, Note_on_c, 4, 71, 0
6, 28064, Note_on_c, 4, 74, 95
6, 28079, Note_on_c, 4, 74, 0
6, 28080, Note_on_c, 4, 76, 95
6, 28095, Note_on_c, 4, 76, 0
6, 28096, Note_on_c, 4, 78, 95
6, 28111, Note_on_c, 4, 78, 0
6, 28112, Note_on_c, 4, 79, 95
6, 28127, Note_on_c, 4, 79, 0
6, 28128, Note_on_c, 4, 73, 66
6, 28139, Note_on_c, 4, 73, 0
6, 28144, Note_on_c, 4, 76, 66
6, 28155, Note_on_c, 4, 76, 0
6, 28160, Note_on_c, 4, 73, 66
6, 28171, Note_on_c, 4, 73, 0
6, 28176, Note_on_c, 4, 69, 66
6, 28187, Note_on_c, 4, 69, 0
6, 28192, Note_on_c, 4, 71, 66
6, 28203, Note_on_c, 4, 71, 0
6, 28208, Note_on_c, 4, 73, 66
6, 28219, Note_on_c, 4, 73, 0
6, 28224, Note_on_c, 4, 66, 65
6, 28248, Note_on_c, 4, 66, 0
6, 28260, Note_on_c, 4, 67, 85
6, 28268, Note_on_c, 4, 67, 0
6, 28272, Note_on_c, 4, 64, 85
6, 28296, Note_on_c, 4, 64, 0
6, 28308, Note_on_c, 4, 62, 85
6, 28316, Note_on_c, 4, 62, 0
6, 28320, Note_on_c, 4, 62, 85
6, 28671, Note_on_c, 4, 62, 0
6, 28672, Note_on_c, 4, 64, 85
6, 28682, Note_on_c, 4, 64, 0
6, 28688, Note_on_c, 4, 66, 85
6, 28698, Note_on_c, 4, 66, 0
6, 28704, Note_on_c, 4, 64, 85
6, 28896, Note_on_c, 4, 64, 0
6, 28896, Note_on_c, 4, 64, 85
6, 29040, Note_on_c, 4, 64, 0
6, 29040, Note_on_c, 4, 76, 85
6, 29136, Note_on_c, 4, 76, 0
6, 29136, Note_on_c, 4, 78, 85
6, 29232, Note_on_c, 4, 78, 0
6, 29232, Note_on_c, 4, 79, 85
6, 29328, Note_on_c, 4, 79, 0
6, 29328, Note_on_c, 4, 81, 85
6, 29412, Note_on_c, 4, 81, 85
6, 29424, Note_on_c, 4, 81, 0
6, 29424, Note_on_c, 4, 86, 85
6, 29460, Note_on_c, 4, 86, 0
6, 29460, Note_on_c, 4, 81, 85
6, 29472, Note_on_c, 4, 81, 0
6, 29472, Note_on_c, 4, 83, 85
6, 29488, Note_on_c, 4, 83, 0
6, 29488, Note_on_c, 4, 81, 85
6, 29504, Note_on_c, 4, 81, 0
6, 29504, Note_on_c, 4, 79, 85
6, 29520, Note_on_c, 4, 79, 0
6, 29520, Note_on_c, 4, 78, 85
6, 29536, Note_on_c, 4, 78, 0
6, 29536, Note_on_c, 4, 79, 85
6, 29552, Note_on_c, 4, 79, 0
6, 29552, Note_on_c, 4, 81, 85
6, 29568, Note_on_c, 4, 81, 0
6, 29568, Note_on_c, 4, 74, 85
6, 29604, Note_on_c, 4, 74, 0
6, 29604, Note_on_c, 4, 76, 85
6, 29616, Note_on_c, 4, 76, 0
6, 29616, Note_on_c, 4, 73, 85
6, 29652, Note_on_c, 4, 73, 0
6, 29652, Note_on_c, 4, 74, 85
6, 29664, Note_on_c, 4, 74, 0
6, 29664, Note_on_c, 4, 74, 85
6, 29760, Note_on_c, 4, 74, 0
6, 29760, End_track
7, 0, Start_track
7, 0, Title_t, "2nd Violin"
7, 0, Control_c, 5, 7, 96
7, 0, Pitch_bend_c, 5, 8192
7, 0, Control_c, 5, 1, 0
7, 0, Program_c, 5, 53
7, 0, Control_c, 5, 64, 0
7, 0, Control_c, 5, 10, 64
7, 2916, Note_on_c, 5, 74, 95
7, 2928, Note_on_c, 5, 74, 0
7, 2928, Note_on_c, 5, 81, 95
7, 2964, Note_on_c, 5, 81, 0
7, 2964, Note_on_c, 5, 74, 95
7, 2976, Note_on_c, 5, 74, 0
7, 2976, Note_on_c, 5, 78, 95
7, 2992, Note_on_c, 5, 78, 0
7, 2992, Note_on_c, 5, 76, 95
7, 3008, Note_on_c, 5, 76, 0
7, 3008, Note_on_c, 5, 74, 95
7, 3024, Note_on_c, 5, 74, 0
7, 3024, Note_on_c, 5, 73, 95
7, 3040, Note_on_c, 5, 73, 0
7, 3040, Note_on_c, 5, 74, 95
7, 3056, Note_on_c, 5, 74, 0
7, 3056, Note_on_c, 5, 76, 95
7, 3072, Note_on_c, 5, 76, 0
7, 3072, Note_on_c, 5, 69, 95
7, 3088, Note_on_c, 5, 69, 0
7, 3088, Note_on_c, 5, 71, 95
7, 3104, Note_on_c, 5, 71, 0
7, 3104, Note_on_c, 5, 73, 95
7, 3120, Note_on_c, 5, 73, 0
7, 3120, Note_on_c, 5, 74, 95
7, 3136, Note_on_c, 5, 74, 0
7, 3136, Note_on_c, 5, 76, 95
7, 3152, Note_on_c, 5, 76, 0
7, 3152, Note_on_c, 5, 78, 95
7, 3168, Note_on_c, 5, 78, 0
7, 3168, Note_on_c, 5, 71, 95
7, 3192, Note_on_c, 5, 71, 0
7, 3216, Note_on_c, 5, 73, 95
7, 3240, Note_on_c, 5, 73, 0
7, 3264, Note_on_c, 5, 71, 95
7, 3280, Note_on_c, 5, 71, 0
7, 3280, Note_on_c, 5, 74, 95
7, 3296, Note_on_c, 5, 74, 0
7, 3296, Note_on_c, 5, 78, 95
7, 3312, Note_on_c, 5, 78, 0
7, 3312, Note_on_c, 5, 78, 95
7, 3328, Note_on_c, 5, 78, 0
7, 3328, Note_on_c, 5, 76, 95
7, 3344, Note_on_c, 5, 76, 0
7, 3344, Note_on_c, 5, 78, 95
7, 3360, Note_on_c, 5, 78, 0
7, 3360, Note_on_c, 5, 71, 95
7, 3376, Note_on_c, 5, 71, 0
7, 3376, Note_on_c, 5, 79, 95
7, 3392, Note_on_c, 5, 79, 0
7, 3392, Note_on_c, 5, 78, 95
7, 3408, Note_on_c, 5, 78, 0
7, 3408, Note_on_c, 5, 76, 95
7, 3424, Note_on_c, 5, 76, 0
7, 3424, Note_on_c, 5, 81, 95
7, 3440, Note_on_c, 5, 81, 0
7, 3440, Note_on_c, 5, 79, 95
7, 3456, Note_on_c, 5, 79, 0
7, 3456, Note_on_c, 5, 78, 95
7, 3480, Note_on_c, 5, 78, 0
7, 3504, Note_on_c, 5, 76, 95
7, 3528, Note_on_c, 5, 76, 0
7, 3552, Note_on_c, 5, 76, 95
7, 3576, Note_on_c, 5, 76, 0
7, 3600, Note_on_c, 5, 74, 95
7, 3624, Note_on_c, 5, 74, 0
7, 3648, Note_on_c, 5, 73, 95
7, 3664, Note_on_c, 5, 73, 0
7, 3664, Note_on_c, 5, 74, 95
7, 3680, Note_on_c, 5, 74, 0
7, 3680, Note_on_c, 5, 76, 95
7, 3696, Note_on_c, 5, 76, 0
7, 3696, Note_on_c, 5, 78, 95
7, 3712, Note_on_c, 5, 78, 0
7, 3712, Note_on_c, 5, 79, 95
7, 3728, Note_on_c, 5, 79, 0
7, 3728, Note_on_c, 5, 81, 95
7, 3744, Note_on_c, 5, 81, 0
7, 3744, Note_on_c, 5, 74, 95
7, 3816, Note_on_c, 5, 74, 0
7, 3828, Note_on_c, 5, 73, 95
7, 3840, Note_on_c, 5, 73, 0
7, 3840, Note_on_c, 5, 74, 95
7, 3864, Note_on_c, 5, 74, 0
7, 3888, Note_on_c, 5, 73, 95
7, 3912, Note_on_c, 5, 73, 0
7, 3936, Note_on_c, 5, 74, 95
7, 3960, Note_on_c, 5, 74, 0
7, 3984, Note_on_c, 5, 69, 75
7, 4000, Note_on_c, 5, 69, 0
7, 4032, Note_on_c, 5, 67, 75
7, 4048, Note_on_c, 5, 67, 0
7, 4080, Note_on_c, 5, 66, 75
7, 4096, Note_on_c, 5, 66, 0
7, 4128, Note_on_c, 5, 71, 75
7, 4144, Note_on_c, 5, 71, 0
7, 4176, Note_on_c, 5, 61, 77
7, 4192, Note_on_c, 5, 61, 0
7, 4192, Note_on_c, 5, 64, 77
7, 4208, Note_on_c, 5, 64, 0
7, 4208, Note_on_c, 5, 69, 77
7, 4224, Note_on_c, 5, 69, 0
7, 4224, Note_on_c, 5, 62, 77
7, 4240, Note_on_c, 5, 62, 0
7, 4240, Note_on_c, 5, 66, 77
7, 4256, Note_on_c, 5, 66, 0
7, 4256, Note_on_c, 5, 69, 77
7, 4272, Note_on_c, 5, 69, 0
7, 4272, Note_on_c, 5, 57, 77
7, 4288, Note_on_c, 5, 57, 0
7, 4288, Note_on_c, 5, 61, 77
7, 4304, Note_on_c, 5, 61, 0
7, 4304, Note_on_c, 5, 64, 77
7, 4320, Note_on_c, 5, 64, 0
7, 4320, Note_on_c, 5, 62, 77
7, 4336, Note_on_c, 5, 62, 0
7, 4368, Note_on_c, 5, 74, 77
7, 4384, Note_on_c, 5, 74, 0
7, 4416, Note_on_c, 5, 73, 77
7, 4432, Note_on_c, 5, 73, 0
7, 4464, Note_on_c, 5, 71, 77
7, 4480, Note_on_c, 5, 71, 0
7, 4512, Note_on_c, 5, 76, 77
7, 4528, Note_on_c, 5, 76, 0
7, 4560, Note_on_c, 5, 74, 77
7, 4584, Note_on_c, 5, 74, 0
7, 4584, Note_on_c, 5, 73, 77
7, 4592, Note_on_c, 5, 73, 0
7, 4608, Note_on_c, 5, 74, 77
7, 4644, Note_on_c, 5, 74, 0
7, 4644, Note_on_c, 5, 62, 77
7, 4656, Note_on_c, 5, 62, 0
7, 4656, Note_on_c, 5, 66, 77
7, 4692, Note_on_c, 5, 66, 0
7, 4692, Note_on_c, 5, 64, 77
7, 4704, Note_on_c, 5, 64, 0
7, 4704, Note_on_c, 5, 62, 77
7, 4728, Note_on_c, 5, 62, 0
7, 4752, Note_on_c, 5, 69, 79
7, 4776, Note_on_c, 5, 69, 0
7, 4800, Note_on_c, 5, 67, 79
7, 4824, Note_on_c, 5, 67, 0
7, 4848, Note_on_c, 5, 61, 79
7, 4872, Note_on_c, 5, 61, 0
7, 4896, Note_on_c, 5, 66, 79
7, 4912, Note_on_c, 5, 66, 0
7, 4912, Note_on_c, 5, 62, 79
7, 4928, Note_on_c, 5, 62, 0
7, 4928, Note_on_c, 5, 64, 79
7, 4944, Note_on_c, 5, 64, 0
7, 4944, Note_on_c, 5, 66, 79
7, 4960, Note_on_c, 5, 66, 0
7, 4960, Note_on_c, 5, 62, 79
7, 4976, Note_on_c, 5, 62, 0
7, 4976, Note_on_c, 5, 64, 79
7, 4992, Note_on_c, 5, 64, 0
7, 4992, Note_on_c, 5, 66, 79
7, 5104, Note_on_c, 5, 62, 79
7, 5120, Note_on_c, 5, 62, 0
7, 5120, Note_on_c, 5, 64, 79
7, 5136, Note_on_c, 5, 64, 0
7, 5136, Note_on_c, 5, 66, 0
7, 5136, Note_on_c, 5, 66, 79
7, 5152, Note_on_c, 5, 66, 0
7, 5152, Note_on_c, 5, 62, 79
7, 5168, Note_on_c, 5, 62, 0
7, 5168, Note_on_c, 5, 64, 79
7, 5184, Note_on_c, 5, 64, 0
7, 5184, Note_on_c, 5, 66, 79
7, 5220, Note_on_c, 5, 66, 0
7, 5220, Note_on_c, 5, 69, 79
7, 5232, Note_on_c, 5, 69, 0
7, 5232, Note_on_c, 5, 74, 79
7, 5248, Note_on_c, 5, 74, 0
7, 5248, Note_on_c, 5, 73, 79
7, 5264, Note_on_c, 5, 73, 0
7, 5264, Note_on_c, 5, 74, 79
7, 5280, Note_on_c, 5, 74, 0
7, 5280, Note_on_c, 5, 71, 79
7, 5472, Note_on_c, 5, 71, 0
7, 5472, Note_on_c, 5, 73, 79
7, 5496, Note_on_c, 5, 73, 0
7, 5520, Note_on_c, 5, 73, 79
7, 5544, Note_on_c, 5, 73, 0
7, 5568, Note_on_c, 5, 71, 79
7, 5592, Note_on_c, 5, 71, 0
7, 5616, Note_on_c, 5, 71, 79
7, 5640, Note_on_c, 5, 71, 0
7, 5664, Note_on_c, 5, 69, 79
7, 5688, Note_on_c, 5, 69, 0
7, 5712, Note_on_c, 5, 69, 79
7, 5736, Note_on_c, 5, 69, 0
7, 5760, Note_on_c, 5, 71, 79
7, 5808, Note_on_c, 5, 71, 0
7, 5892, Note_on_c, 5, 73, 79
7, 5901, Note_on_c, 5, 73, 0
7, 5904, Note_on_c, 5, 74, 85
7, 5931, Note_on_c, 5, 74, 0
7, 5940, Note_on_c, 5, 73, 71
7, 5949, Note_on_c, 5, 73, 0
7, 5952, Note_on_c, 5, 71, 85
7, 5979, Note_on_c, 5, 71, 0
7, 5988, Note_on_c, 5, 71, 85
7, 5997, Note_on_c, 5, 71, 0
7, 6000, Note_on_c, 5, 69, 85
7, 6027, Note_on_c, 5, 69, 0
7, 6036, Note_on_c, 5, 69, 85
7, 6045, Note_on_c, 5, 69, 0
7, 6048, Note_on_c, 5, 69, 85
7, 6066, Note_on_c, 5, 69, 0
7, 6180, Note_on_c, 5, 67, 85
7, 6189, Note_on_c, 5, 67, 0
7, 6192, Note_on_c, 5, 74, 85
7, 6219, Note_on_c, 5, 74, 0
7, 6228, Note_on_c, 5, 69, 85
7, 6237, Note_on_c, 5, 69, 0
7, 6240, Note_on_c, 5, 71, 85
7, 6252, Note_on_c, 5, 71, 0
7, 6256, Note_on_c, 5, 69, 85
7, 6268, Note_on_c, 5, 69, 0
7, 6272, Note_on_c, 5, 67, 85
7, 6284, Note_on_c, 5, 67, 0
7, 6288, Note_on_c, 5, 66, 68
7, 6300, Note_on_c, 5, 66, 0
7, 6304, Note_on_c, 5, 67, 85
7, 6316, Note_on_c, 5, 67, 0
7, 6320, Note_on_c, 5, 69, 85
7, 6332, Note_on_c, 5, 69, 0
7, 6336, Note_on_c, 5, 62, 85
7, 6354, Note_on_c, 5, 62, 0
7, 6384, Note_on_c, 5, 69, 85
7, 6402, Note_on_c, 5, 69, 0
7, 6432, Note_on_c, 5, 64, 85
7, 6504, Note_on_c, 5, 64, 0
7, 6544, Note_on_c, 5, 68, 67
7, 6556, Note_on_c, 5, 68, 0
7, 6560, Note_on_c, 5, 69, 85
7, 6572, Note_on_c, 5, 69, 0
7, 6576, Note_on_c, 5, 71, 55
7, 6588, Note_on_c, 5, 71, 0
7, 6592, Note_on_c, 5, 68, 72
7, 6604, Note_on_c, 5, 68, 0
7, 6608, Note_on_c, 5, 69, 85
7, 6620, Note_on_c, 5, 69, 0
7, 6624, Note_on_c, 5, 71, 85
7, 6696, Note_on_c, 5, 71, 0
7, 6736, Note_on_c, 5, 68, 70
7, 6748, Note_on_c, 5, 68, 0
7, 6752, Note_on_c, 5, 69, 85
7, 6764, Note_on_c, 5, 69, 0
7, 6768, Note_on_c, 5, 71, 85
7, 6795, Note_on_c, 5, 71, 0
7, 6804, Note_on_c, 5, 71, 85
7, 6813, Note_on_c, 5, 71, 0
7, 6816, Note_on_c, 5, 73, 74
7, 6834, Note_on_c, 5, 73, 0
7, 6900, Note_on_c, 5, 78, 70
7, 6909, Note_on_c, 5, 78, 0
7, 6912, Note_on_c, 5, 74, 85
7, 6930, Note_on_c, 5, 74, 0
7, 6996, Note_on_c, 5, 79, 85
7, 7005, Note_on_c, 5, 79, 0
7, 7008, Note_on_c, 5, 76, 85
7, 7026, Note_on_c, 5, 76, 0
7, 7092, Note_on_c, 5, 81, 85
7, 7104, Note_on_c, 5, 81, 0
7, 7104, Note_on_c, 5, 78, 85
7, 7122, Note_on_c, 5, 78, 0
7, 7152, Note_on_c, 5, 81, 85
7, 7170, Note_on_c, 5, 81, 0
7, 7200, Note_on_c, 5, 74, 85
7, 7218, Note_on_c, 5, 74, 0
7, 7248, Note_on_c, 5, 73, 72
7, 7266, Note_on_c, 5, 73, 0
7, 7296, Note_on_c, 5, 71, 85
7, 7323, Note_on_c, 5, 71, 0
7, 7332, Note_on_c, 5, 71, 85
7, 7341, Note_on_c, 5, 71, 0
7, 7344, Note_on_c, 5, 69, 85
7, 7371, Note_on_c, 5, 69, 0
7, 7380, Note_on_c, 5, 69, 85
7, 7389, Note_on_c, 5, 69, 0
7, 7392, Note_on_c, 5, 69, 85
7, 7464, Note_on_c, 5, 69, 0
7, 8292, Note_on_c, 5, 71, 85
7, 8301, Note_on_c, 5, 71, 0
7, 8304, Note_on_c, 5, 78, 55
7, 8331, Note_on_c, 5, 78, 0
7, 8340, Note_on_c, 5, 73, 66
7, 8349, Note_on_c, 5, 73, 0
7, 8352, Note_on_c, 5, 74, 85
7, 8364, Note_on_c, 5, 74, 0
7, 8368, Note_on_c, 5, 73, 65
7, 8380, Note_on_c, 5, 73, 0
7, 8384, Note_on_c, 5, 71, 85
7, 8396, Note_on_c, 5, 71, 0
7, 8400, Note_on_c, 5, 70, 74
7, 8412, Note_on_c, 5, 70, 0
7, 8416, Note_on_c, 5, 71, 85
7, 8428, Note_on_c, 5, 71, 0
7, 8432, Note_on_c, 5, 73, 74
7, 8444, Note_on_c, 5, 73, 0
7, 8448, Note_on_c, 5, 66, 57
7, 8460, Note_on_c, 5, 66, 0
7, 8464, Note_on_c, 5, 71, 85
7, 8476, Note_on_c, 5, 71, 0
7, 8480, Note_on_c, 5, 74, 85
7, 8492, Note_on_c, 5, 74, 0
7, 8496, Note_on_c, 5, 74, 85
7, 8508, Note_on_c, 5, 74, 0
7, 8512, Note_on_c, 5, 73, 72
7, 8524, Note_on_c, 5, 73, 0
7, 8528, Note_on_c, 5, 74, 85
7, 8540, Note_on_c, 5, 74, 0
7, 8544, Note_on_c, 5, 66, 46
7, 8557, Note_on_c, 5, 66, 0
7, 8560, Note_on_c, 5, 69, 85
7, 8573, Note_on_c, 5, 69, 0
7, 8576, Note_on_c, 5, 74, 85
7, 8589, Note_on_c, 5, 74, 0
7, 8592, Note_on_c, 5, 74, 85
7, 8605, Note_on_c, 5, 74, 0
7, 8608, Note_on_c, 5, 73, 66
7, 8621, Note_on_c, 5, 73, 0
7, 8624, Note_on_c, 5, 74, 85
7, 8637, Note_on_c, 5, 74, 0
7, 8640, Note_on_c, 5, 67, 85
7, 8653, Note_on_c, 5, 67, 0
7, 8656, Note_on_c, 5, 70, 62
7, 8669, Note_on_c, 5, 70, 0
7, 8672, Note_on_c, 5, 71, 85
7, 8685, Note_on_c, 5, 71, 0
7, 8688, Note_on_c, 5, 73, 66
7, 8701, Note_on_c, 5, 73, 0
7, 8704, Note_on_c, 5, 70, 52
7, 8717, Note_on_c, 5, 70, 0
7, 8720, Note_on_c, 5, 71, 85
7, 8733, Note_on_c, 5, 71, 0
7, 8736, Note_on_c, 5, 64, 74
7, 8749, Note_on_c, 5, 64, 0
7, 8752, Note_on_c, 5, 70, 61
7, 8765, Note_on_c, 5, 70, 0
7, 8768, Note_on_c, 5, 73, 69
7, 8781, Note_on_c, 5, 73, 0
7, 8784, Note_on_c, 5, 73, 62
7, 8797, Note_on_c, 5, 73, 0
7, 8800, Note_on_c, 5, 71, 85
7, 8813, Note_on_c, 5, 71, 0
7, 8816, Note_on_c, 5, 73, 66
7, 8829, Note_on_c, 5, 73, 0
7, 8832, Note_on_c, 5, 66, 50
7, 8845, Note_on_c, 5, 66, 0
7, 8848, Note_on_c, 5, 71, 85
7, 8861, Note_on_c, 5, 71, 0
7, 8864, Note_on_c, 5, 74, 85
7, 8877, Note_on_c, 5, 74, 0
7, 8880, Note_on_c, 5, 74, 85
7, 8893, Note_on_c, 5, 74, 0
7, 8896, Note_on_c, 5, 73, 66
7, 8909, Note_on_c, 5, 73, 0
7, 8912, Note_on_c, 5, 74, 85
7, 8925, Note_on_c, 5, 74, 0
7, 8928, Note_on_c, 5, 64, 55
7, 8941, Note_on_c, 5, 64, 0
7, 8944, Note_on_c, 5, 71, 85
7, 8957, Note_on_c, 5, 71, 0
7, 8960, Note_on_c, 5, 73, 61
7, 8973, Note_on_c, 5, 73, 0
7, 8976, Note_on_c, 5, 73, 70
7, 8989, Note_on_c, 5, 73, 0
7, 8992, Note_on_c, 5, 70, 55
7, 9005, Note_on_c, 5, 70, 0
7, 9008, Note_on_c, 5, 71, 85
7, 9021, Note_on_c, 5, 71, 0
7, 9024, Note_on_c, 5, 73, 68
7, 9037, Note_on_c, 5, 73, 0
7, 9040, Note_on_c, 5, 70, 62
7, 9053, Note_on_c, 5, 70, 0
7, 9056, Note_on_c, 5, 71, 85
7, 9069, Note_on_c, 5, 71, 0
7, 9072, Note_on_c, 5, 66, 62
7, 9085, Note_on_c, 5, 66, 0
7, 9088, Note_on_c, 5, 71, 85
7, 9101, Note_on_c, 5, 71, 0
7, 9104, Note_on_c, 5, 70, 65
7, 9117, Note_on_c, 5, 70, 0
7, 9120, Note_on_c, 5, 71, 85
7, 9140, Note_on_c, 5, 71, 0
7, 9252, Note_on_c, 5, 66, 68
7, 9262, Note_on_c, 5, 66, 0
7, 9264, Note_on_c, 5, 73, 56
7, 9294, Note_on_c, 5, 73, 0
7, 9300, Note_on_c, 5, 68, 64
7, 9310, Note_on_c, 5, 68, 0
7, 9312, Note_on_c, 5, 69, 85
7, 9325, Note_on_c, 5, 69, 0
7, 9328, Note_on_c, 5, 68, 66
7, 9341, Note_on_c, 5, 68, 0
7, 9344, Note_on_c, 5, 66, 52
7, 9357, Note_on_c, 5, 66, 0
7, 9360, Note_on_c, 5, 65, 85
7, 9373, Note_on_c, 5, 65, 0
7, 9376, Note_on_c, 5, 66, 52
7, 9389, Note_on_c, 5, 66, 0
7, 9392, Note_on_c, 5, 68, 69
7, 9405, Note_on_c, 5, 68, 0
7, 9408, Note_on_c, 5, 61, 52
7, 9421, Note_on_c, 5, 61, 0
7, 9424, Note_on_c, 5, 66, 65
7, 9437, Note_on_c, 5, 66, 0
7, 9440, Note_on_c, 5, 69, 85
7, 9453, Note_on_c, 5, 69, 0
7, 9456, Note_on_c, 5, 69, 85
7, 9469, Note_on_c, 5, 69, 0
7, 9472, Note_on_c, 5, 68, 52
7, 9485, Note_on_c, 5, 68, 0
7, 9488, Note_on_c, 5, 69, 85
7, 9501, Note_on_c, 5, 69, 0
7, 9504, Note_on_c, 5, 61, 52
7, 9517, Note_on_c, 5, 61, 0
7, 9520, Note_on_c, 5, 66, 65
7, 9533, Note_on_c, 5, 66, 0
7, 9536, Note_on_c, 5, 69, 85
7, 9549, Note_on_c, 5, 69, 0
7, 9552, Note_on_c, 5, 69, 85
7, 9565, Note_on_c, 5, 69, 0
7, 9568, Note_on_c, 5, 68, 52
7, 9581, Note_on_c, 5, 68, 0
7, 9584, Note_on_c, 5, 69, 85
7, 9597, Note_on_c, 5, 69, 0
7, 9600, Note_on_c, 5, 62, 70
7, 9613, Note_on_c, 5, 62, 0
7, 9616, Note_on_c, 5, 65, 85
7, 9629, Note_on_c, 5, 65, 0
7, 9632, Note_on_c, 5, 66, 62
7, 9645, Note_on_c, 5, 66, 0
7, 9648, Note_on_c, 5, 68, 59
7, 9661, Note_on_c, 5, 68, 0
7, 9664, Note_on_c, 5, 65, 85
7, 9677, Note_on_c, 5, 65, 0
7, 9680, Note_on_c, 5, 66, 56
7, 9693, Note_on_c, 5, 66, 0
7, 9696, Note_on_c, 5, 59, 85
7, 9709, Note_on_c, 5, 59, 0
7, 9712, Note_on_c, 5, 65, 85
7, 9725, Note_on_c, 5, 65, 0
7, 9728, Note_on_c, 5, 68, 65
7, 9741, Note_on_c, 5, 68, 0
7, 9744, Note_on_c, 5, 68, 62
7, 9757, Note_on_c, 5, 68, 0
7, 9760, Note_on_c, 5, 66, 61
7, 9773, Note_on_c, 5, 66, 0
7, 9776, Note_on_c, 5, 68, 65
7, 9789, Note_on_c, 5, 68, 0
7, 9792, Note_on_c, 5, 61, 55
7, 9805, Note_on_c, 5, 61, 0
7, 9808, Note_on_c, 5, 66, 66
7, 9821, Note_on_c, 5, 66, 0
7, 9824, Note_on_c, 5, 69, 85
7, 9837, Note_on_c, 5, 69, 0
7, 9840, Note_on_c, 5, 69, 85
7, 9853, Note_on_c, 5, 69, 0
7, 9856, Note_on_c, 5, 68, 62
7, 9869, Note_on_c, 5, 68, 0
7, 9872, Note_on_c, 5, 69, 85
7, 9885, Note_on_c, 5, 69, 0
7, 9888, Note_on_c, 5, 59, 77
7, 9901, Note_on_c, 5, 59, 0
7, 9904, Note_on_c, 5, 62, 85
7, 9917, Note_on_c, 5, 62, 0
7, 9920, Note_on_c, 5, 68, 47
7, 9933, Note_on_c, 5, 68, 0
7, 9936, Note_on_c, 5, 68, 66
7, 9949, Note_on_c, 5, 68, 0
7, 9952, Note_on_c, 5, 65, 79
7, 9965, Note_on_c, 5, 65, 0
7, 9968, Note_on_c, 5, 66, 62
7, 9981, Note_on_c, 5, 66, 0
7, 9984, Note_on_c, 5, 68, 59
7, 9997, Note_on_c, 5, 68, 0
7, 10000, Note_on_c, 5, 65, 85
7, 10013, Note_on_c, 5, 65, 0
7, 10016, Note_on_c, 5, 66, 62
7, 10029, Note_on_c, 5, 66, 0
7, 10032, Note_on_c, 5, 61, 59
7, 10045, Note_on_c, 5, 61, 0
7, 10048, Note_on_c, 5, 66, 66
7, 10061, Note_on_c, 5, 66, 0
7, 10064, Note_on_c, 5, 65, 85
7, 10077, Note_on_c, 5, 65, 0
7, 10080, Note_on_c, 5, 66, 70
7, 10099, Note_on_c, 5, 66, 0
7, 10224, Note_on_c, 5, 69, 85
7, 10243, Note_on_c, 5, 69, 0
7, 10272, Note_on_c, 5, 68, 70
7, 10291, Note_on_c, 5, 68, 0
7, 10416, Note_on_c, 5, 68, 70
7, 10435, Note_on_c, 5, 68, 0
7, 10464, Note_on_c, 5, 66, 68
7, 10483, Note_on_c, 5, 66, 0
7, 10896, Note_on_c, 5, 73, 66
7, 10920, Note_on_c, 5, 73, 0
7, 10992, Note_on_c, 5, 74, 85
7, 11016, Note_on_c, 5, 74, 0
7, 11088, Note_on_c, 5, 76, 85
7, 11112, Note_on_c, 5, 76, 0
7, 11184, Note_on_c, 5, 78, 72
7, 11208, Note_on_c, 5, 78, 0
7, 12228, Note_on_c, 5, 73, 85
7, 12238, Note_on_c, 5, 73, 0
7, 12240, Note_on_c, 5, 78, 72
7, 12270, Note_on_c, 5, 78, 0
7, 12276, Note_on_c, 5, 73, 74
7, 12286, Note_on_c, 5, 73, 0
7, 12288, Note_on_c, 5, 74, 85
7, 12301, Note_on_c, 5, 74, 0
7, 12304, Note_on_c, 5, 73, 50
7, 12317, Note_on_c, 5, 73, 0
7, 12320, Note_on_c, 5, 71, 64
7, 12333, Note_on_c, 5, 71, 0
7, 12336, Note_on_c, 5, 70, 34
7, 12349, Note_on_c, 5, 70, 0
7, 12352, Note_on_c, 5, 71, 85
7, 12365, Note_on_c, 5, 71, 0
7, 12368, Note_on_c, 5, 73, 62
7, 12381, Note_on_c, 5, 73, 0
7, 12384, Note_on_c, 5, 66, 65
7, 12397, Note_on_c, 5, 66, 0
7, 12400, Note_on_c, 5, 71, 40
7, 12413, Note_on_c, 5, 71, 0
7, 12416, Note_on_c, 5, 74, 85
7, 12429, Note_on_c, 5, 74, 0
7, 12432, Note_on_c, 5, 78, 65
7, 12445, Note_on_c, 5, 78, 0
7, 12448, Note_on_c, 5, 76, 69
7, 12461, Note_on_c, 5, 76, 0
7, 12464, Note_on_c, 5, 78, 59
7, 12477, Note_on_c, 5, 78, 0
7, 12480, Note_on_c, 5, 71, 77
7, 12493, Note_on_c, 5, 71, 0
7, 12496, Note_on_c, 5, 69, 85
7, 12509, Note_on_c, 5, 69, 0
7, 12512, Note_on_c, 5, 67, 85
7, 12525, Note_on_c, 5, 67, 0
7, 12528, Note_on_c, 5, 69, 85
7, 12588, Note_on_c, 5, 69, 0
7, 12592, Note_on_c, 5, 67, 85
7, 12605, Note_on_c, 5, 67, 0
7, 12608, Note_on_c, 5, 71, 85
7, 12621, Note_on_c, 5, 71, 0
7, 12624, Note_on_c, 5, 76, 85
7, 12654, Note_on_c, 5, 76, 0
7, 12660, Note_on_c, 5, 71, 85
7, 12670, Note_on_c, 5, 71, 0
7, 12672, Note_on_c, 5, 73, 49
7, 12685, Note_on_c, 5, 73, 0
7, 12688, Note_on_c, 5, 71, 78
7, 12701, Note_on_c, 5, 71, 0
7, 12704, Note_on_c, 5, 69, 85
7, 12717, Note_on_c, 5, 69, 0
7, 12720, Note_on_c, 5, 68, 57
7, 12733, Note_on_c, 5, 68, 0
7, 12736, Note_on_c, 5, 69, 85
7, 12749, Note_on_c, 5, 69, 0
7, 12752, Note_on_c, 5, 71, 55
7, 12765, Note_on_c, 5, 71, 0
7, 12768, Note_on_c, 5, 64, 85
7, 12781, Note_on_c, 5, 64, 0
7, 12784, Note_on_c, 5, 69, 85
7, 12797, Note_on_c, 5, 69, 0
7, 12800, Note_on_c, 5, 73, 55
7, 12813, Note_on_c, 5, 73, 0
7, 12816, Note_on_c, 5, 76, 62
7, 12829, Note_on_c, 5, 76, 0
7, 12832, Note_on_c, 5, 74, 85
7, 12845, Note_on_c, 5, 74, 0
7, 12848, Note_on_c, 5, 76, 85
7, 12861, Note_on_c, 5, 76, 0
7, 12864, Note_on_c, 5, 69, 85
7, 12877, Note_on_c, 5, 69, 0
7, 12880, Note_on_c, 5, 68, 52
7, 12893, Note_on_c, 5, 68, 0
7, 12896, Note_on_c, 5, 66, 62
7, 12909, Note_on_c, 5, 66, 0
7, 12912, Note_on_c, 5, 68, 67
7, 12972, Note_on_c, 5, 68, 0
7, 12976, Note_on_c, 5, 66, 60
7, 12989, Note_on_c, 5, 66, 0
7, 12992, Note_on_c, 5, 69, 85
7, 13005, Note_on_c, 5, 69, 0
7, 13008, Note_on_c, 5, 74, 85
7, 13038, Note_on_c, 5, 74, 0
7, 13044, Note_on_c, 5, 69, 85
7, 13054, Note_on_c, 5, 69, 0
7, 13056, Note_on_c, 5, 71, 85
7, 13069, Note_on_c, 5, 71, 0
7, 13072, Note_on_c, 5, 68, 53
7, 13085, Note_on_c, 5, 68, 0
7, 13088, Note_on_c, 5, 71, 85
7, 13101, Note_on_c, 5, 71, 0
7, 13104, Note_on_c, 5, 76, 85
7, 13134, Note_on_c, 5, 76, 0
7, 13140, Note_on_c, 5, 71, 85
7, 13150, Note_on_c, 5, 71, 0
7, 13152, Note_on_c, 5, 73, 56
7, 13165, Note_on_c, 5, 73, 0
7, 13168, Note_on_c, 5, 69, 85
7, 13181, Note_on_c, 5, 69, 0
7, 13184, Note_on_c, 5, 73, 66
7, 13197, Note_on_c, 5, 73, 0
7, 13200, Note_on_c, 5, 78, 69
7, 13230, Note_on_c, 5, 78, 0
7, 13236, Note_on_c, 5, 73, 67
7, 13246, Note_on_c, 5, 73, 0
7, 13248, Note_on_c, 5, 74, 85
7, 13261, Note_on_c, 5, 74, 0
7, 13264, Note_on_c, 5, 71, 72
7, 13277, Note_on_c, 5, 71, 0
7, 13280, Note_on_c, 5, 74, 85
7, 13293, Note_on_c, 5, 74, 0
7, 13296, Note_on_c, 5, 80, 72
7, 13326, Note_on_c, 5, 80, 0
7, 13332, Note_on_c, 5, 74, 85
7, 13342, Note_on_c, 5, 74, 0
7, 13344, Note_on_c, 5, 76, 85
7, 13357, Note_on_c, 5, 76, 0
7, 13360, Note_on_c, 5, 73, 64
7, 13373, Note_on_c, 5, 73, 0
7, 13376, Note_on_c, 5, 76, 85
7, 13389, Note_on_c, 5, 76, 0
7, 13392, Note_on_c, 5, 81, 85
7, 13422, Note_on_c, 5, 81, 0
7, 13428, Note_on_c, 5, 76, 85
7, 13438, Note_on_c, 5, 76, 0
7, 13440, Note_on_c, 5, 78, 54
7, 13453, Note_on_c, 5, 78, 0
7, 13456, Note_on_c, 5, 74, 85
7, 13469, Note_on_c, 5, 74, 0
7, 13472, Note_on_c, 5, 78, 70
7, 13485, Note_on_c, 5, 78, 0
7, 13488, Note_on_c, 5, 83, 85
7, 13518, Note_on_c, 5, 83, 0
7, 13524, Note_on_c, 5, 78, 72
7, 13534, Note_on_c, 5, 78, 0
7, 13536, Note_on_c, 5, 80, 67
7, 13549, Note_on_c, 5, 80, 0
7, 13552, Note_on_c, 5, 78, 61
7, 13565, Note_on_c, 5, 78, 0
7, 13568, Note_on_c, 5, 76, 85
7, 13581, Note_on_c, 5, 76, 0
7, 13584, Note_on_c, 5, 81, 85
7, 13614, Note_on_c, 5, 81, 0
7, 13620, Note_on_c, 5, 76, 85
7, 13630, Note_on_c, 5, 76, 0
7, 13632, Note_on_c, 5, 78, 67
7, 13645, Note_on_c, 5, 78, 0
7, 13648, Note_on_c, 5, 76, 85
7, 13661, Note_on_c, 5, 76, 0
7, 13664, Note_on_c, 5, 74, 85
7, 13677, Note_on_c, 5, 74, 0
7, 13680, Note_on_c, 5, 73, 64
7, 13693, Note_on_c, 5, 73, 0
7, 13696, Note_on_c, 5, 74, 85
7, 13709, Note_on_c, 5, 74, 0
7, 13712, Note_on_c, 5, 76, 85
7, 13725, Note_on_c, 5, 76, 0
7, 13728, Note_on_c, 5, 69, 85
7, 13748, Note_on_c, 5, 69, 0
7, 13776, Note_on_c, 5, 73, 66
7, 13796, Note_on_c, 5, 73, 0
7, 13824, Note_on_c, 5, 71, 85
7, 13844, Note_on_c, 5, 71, 0
7, 13872, Note_on_c, 5, 75, 70
7, 13892, Note_on_c, 5, 75, 0
7, 13920, Note_on_c, 5, 76, 79
7, 13950, Note_on_c, 5, 76, 0
7, 13956, Note_on_c, 5, 71, 85
7, 13966, Note_on_c, 5, 71, 0
7, 13968, Note_on_c, 5, 76, 79
7, 13981, Note_on_c, 5, 76, 0
7, 13984, Note_on_c, 5, 73, 62
7, 13997, Note_on_c, 5, 73, 0
7, 14000, Note_on_c, 5, 69, 85
7, 14013, Note_on_c, 5, 69, 0
7, 14016, Note_on_c, 5, 69, 85
7, 14036, Note_on_c, 5, 69, 0
7, 14064, Note_on_c, 5, 68, 65
7, 14084, Note_on_c, 5, 68, 0
7, 14112, Control_c, 5, 7, 96
7, 14112, Note_on_c, 5, 69, 85
7, 14142, Note_on_c, 5, 69, 0
7, 14148, Note_on_c, 5, 64, 62
7, 14158, Note_on_c, 5, 64, 0
7, 14160, Control_c, 5, 7, 96
7, 14160, Note_on_c, 5, 69, 85
7, 14190, Note_on_c, 5, 69, 0
7, 14196, Note_on_c, 5, 64, 69
7, 14206, Note_on_c, 5, 64, 0
7, 14208, Note_on_c, 5, 64, 71
7, 14220, Note_on_c, 5, 64, 0
7, 14220, Note_on_c, 5, 66, 71
7, 14340, Note_on_c, 5, 66, 71
7, 14352, Note_on_c, 5, 66, 0
7, 14352, Note_on_c, 5, 67, 71
7, 14365, Note_on_c, 5, 67, 0
7, 14368, Note_on_c, 5, 64, 71
7, 14381, Note_on_c, 5, 64, 0
7, 14384, Note_on_c, 5, 66, 71
7, 14397, Note_on_c, 5, 66, 0
7, 14400, Note_on_c, 5, 66, 71
7, 14410, Note_on_c, 5, 66, 0
7, 14412, Note_on_c, 5, 64, 71
7, 14532, Note_on_c, 5, 64, 71
7, 14544, Note_on_c, 5, 64, 0
7, 14544, Note_on_c, 5, 69, 85
7, 14574, Note_on_c, 5, 69, 0
7, 14580, Note_on_c, 5, 66, 64
7, 14590, Note_on_c, 5, 66, 0
7, 14592, Note_on_c, 5, 64, 85
7, 14602, Note_on_c, 5, 64, 0
7, 14604, Note_on_c, 5, 62, 85
7, 14704, Note_on_c, 5, 64, 85
7, 14720, Note_on_c, 5, 64, 0
7, 14720, Note_on_c, 5, 66, 46
7, 14736, Note_on_c, 5, 62, 0
7, 14736, Note_on_c, 5, 66, 0
7, 14736, Note_on_c, 5, 64, 85
7, 14752, Note_on_c, 5, 64, 0
7, 14752, Note_on_c, 5, 66, 62
7, 14768, Note_on_c, 5, 66, 0
7, 14768, Note_on_c, 5, 62, 85
7, 14784, Note_on_c, 5, 62, 0
7, 14784, Note_on_c, 5, 61, 74
7, 14808, Note_on_c, 5, 61, 0
7, 15012, Note_on_c, 5, 71, 85
7, 15024, Note_on_c, 5, 71, 0
7, 15024, Note_on_c, 5, 76, 85
7, 15060, Note_on_c, 5, 76, 0
7, 15060, Note_on_c, 5, 71, 72
7, 15072, Note_on_c, 5, 71, 0
7, 15072, Note_on_c, 5, 72, 61
7, 15088, Note_on_c, 5, 72, 0
7, 15088, Note_on_c, 5, 71, 70
7, 15104, Note_on_c, 5, 71, 0
7, 15104, Note_on_c, 5, 69, 85
7, 15120, Note_on_c, 5, 69, 0
7, 15120, Note_on_c, 5, 67, 84
7, 15136, Note_on_c, 5, 67, 0
7, 15136, Note_on_c, 5, 69, 76
7, 15152, Note_on_c, 5, 69, 0
7, 15152, Note_on_c, 5, 71, 85
7, 15168, Note_on_c, 5, 71, 0
7, 15168, Note_on_c, 5, 64, 85
7, 15192, Note_on_c, 5, 64, 0
7, 15396, Note_on_c, 5, 66, 62
7, 15408, Note_on_c, 5, 66, 0
7, 15408, Note_on_c, 5, 71, 52
7, 15444, Note_on_c, 5, 71, 0
7, 15444, Note_on_c, 5, 66, 66
7, 15456, Note_on_c, 5, 66, 0
7, 15456, Note_on_c, 5, 67, 79
7, 15472, Note_on_c, 5, 67, 0
7, 15472, Note_on_c, 5, 66, 52
7, 15488, Note_on_c, 5, 66, 0
7, 15488, Note_on_c, 5, 64, 76
7, 15504, Note_on_c, 5, 64, 0
7, 15504, Note_on_c, 5, 62, 85
7, 15520, Note_on_c, 5, 62, 0
7, 15520, Note_on_c, 5, 64, 85
7, 15536, Note_on_c, 5, 64, 0
7, 15536, Note_on_c, 5, 66, 62
7, 15552, Note_on_c, 5, 66, 0
7, 15552, Note_on_c, 5, 59, 62
7, 15571, Note_on_c, 5, 59, 0
7, 15744, Program_c, 5, 53
7, 16932, Note_on_c, 5, 66, 84
7, 16944, Note_on_c, 5, 66, 0
7, 16944, Note_on_c, 5, 69, 85
7, 16980, Note_on_c, 5, 69, 0
7, 16980, Note_on_c, 5, 66, 79
7, 16992, Note_on_c, 5, 66, 0
7, 16992, Note_on_c, 5, 59, 85
7, 17040, Note_on_c, 5, 59, 0
7, 17124, Note_on_c, 5, 64, 85
7, 17136, Note_on_c, 5, 64, 0
7, 17136, Note_on_c, 5, 67, 85
7, 17172, Note_on_c, 5, 67, 0
7, 17172, Note_on_c, 5, 64, 85
7, 17184, Note_on_c, 5, 64, 0
7, 17184, Note_on_c, 5, 57, 85
7, 17232, Note_on_c, 5, 57, 0
7, 17316, Note_on_c, 5, 69, 66
7, 17326, Note_on_c, 5, 69, 0
7, 17328, Note_on_c, 5, 74, 74
7, 17357, Note_on_c, 5, 74, 0
7, 17364, Note_on_c, 5, 69, 85
7, 17374, Note_on_c, 5, 69, 0
7, 17376, Note_on_c, 5, 71, 74
7, 17389, Note_on_c, 5, 71, 0
7, 17392, Note_on_c, 5, 69, 85
7, 17405, Note_on_c, 5, 69, 0
7, 17408, Note_on_c, 5, 67, 85
7, 17421, Note_on_c, 5, 67, 0
7, 17424, Note_on_c, 5, 66, 43
7, 17437, Note_on_c, 5, 66, 0
7, 17440, Note_on_c, 5, 67, 85
7, 17453, Note_on_c, 5, 67, 0
7, 17456, Note_on_c, 5, 69, 85
7, 17469, Note_on_c, 5, 69, 0
7, 17472, Note_on_c, 5, 62, 72
7, 17511, Note_on_c, 5, 62, 0
7, 17700, Note_on_c, 5, 64, 72
7, 17710, Note_on_c, 5, 64, 0
7, 17712, Note_on_c, 5, 69, 72
7, 17741, Note_on_c, 5, 69, 0
7, 17748, Note_on_c, 5, 64, 82
7, 17758, Note_on_c, 5, 64, 0
7, 17760, Note_on_c, 5, 66, 49
7, 17773, Note_on_c, 5, 66, 0
7, 17776, Note_on_c, 5, 64, 70
7, 17789, Note_on_c, 5, 64, 0
7, 17792, Note_on_c, 5, 62, 85
7, 17805, Note_on_c, 5, 62, 0
7, 17808, Note_on_c, 5, 61, 37
7, 17821, Note_on_c, 5, 61, 0
7, 17824, Note_on_c, 5, 62, 85
7, 17837, Note_on_c, 5, 62, 0
7, 17840, Note_on_c, 5, 64, 85
7, 17853, Note_on_c, 5, 64, 0
7, 17856, Note_on_c, 5, 57, 77
7, 17895, Note_on_c, 5, 57, 0
7, 18084, Note_on_c, 5, 64, 85
7, 18096, Note_on_c, 5, 64, 0
7, 18096, Note_on_c, 5, 69, 85
7, 18132, Note_on_c, 5, 69, 0
7, 18132, Note_on_c, 5, 64, 85
7, 18144, Note_on_c, 5, 64, 0
7, 18144, Note_on_c, 5, 61, 72
7, 18256, Note_on_c, 5, 61, 55
7, 18269, Note_on_c, 5, 61, 0
7, 18272, Note_on_c, 5, 62, 78
7, 18285, Note_on_c, 5, 62, 0
7, 18288, Note_on_c, 5, 64, 85
7, 18301, Note_on_c, 5, 64, 0
7, 18304, Note_on_c, 5, 61, 52
7, 18317, Note_on_c, 5, 61, 0
7, 18320, Note_on_c, 5, 62, 85
7, 18333, Note_on_c, 5, 62, 0
7, 18336, Note_on_c, 5, 57, 85
7, 18360, Note_on_c, 5, 57, 0
7, 18912, Note_on_c, 5, 71, 85
7, 18932, Note_on_c, 5, 71, 0
7, 19008, Note_on_c, 5, 69, 85
7, 19028, Note_on_c, 5, 69, 0
7, 19104, Note_on_c, 5, 77, 85
7, 19124, Note_on_c, 5, 77, 0
7, 19200, Note_on_c, 5, 78, 74
7, 19220, Note_on_c, 5, 78, 0
7, 19296, Note_on_c, 5, 78, 70
7, 19316, Note_on_c, 5, 78, 0
7, 19392, Note_on_c, 5, 80, 66
7, 19412, Note_on_c, 5, 80, 0
7, 21060, Note_on_c, 5, 73, 74
7, 21070, Note_on_c, 5, 73, 0
7, 21072, Note_on_c, 5, 78, 67
7, 21102, Note_on_c, 5, 78, 0
7, 21108, Note_on_c, 5, 73, 57
7, 21118, Note_on_c, 5, 73, 0
7, 21120, Note_on_c, 5, 74, 85
7, 21133, Note_on_c, 5, 74, 0
7, 21136, Note_on_c, 5, 73, 62
7, 21149, Note_on_c, 5, 73, 0
7, 21152, Note_on_c, 5, 71, 85
7, 21165, Note_on_c, 5, 71, 0
7, 21168, Note_on_c, 5, 70, 61
7, 21181, Note_on_c, 5, 70, 0
7, 21184, Note_on_c, 5, 71, 85
7, 21192, Note_on_c, 5, 73, 57
7, 21197, Note_on_c, 5, 71, 0
7, 21205, Note_on_c, 5, 73, 0
7, 21216, Note_on_c, 5, 66, 68
7, 21276, Note_on_c, 5, 66, 0
7, 21300, Note_on_c, 5, 64, 85
7, 21310, Note_on_c, 5, 64, 0
7, 21312, Note_on_c, 5, 62, 85
7, 21342, Note_on_c, 5, 62, 0
7, 21348, Note_on_c, 5, 74, 85
7, 21358, Note_on_c, 5, 74, 0
7, 21360, Note_on_c, 5, 73, 59
7, 21373, Note_on_c, 5, 73, 0
7, 21376, Note_on_c, 5, 74, 85
7, 21389, Note_on_c, 5, 74, 0
7, 21392, Note_on_c, 5, 71, 85
7, 21405, Note_on_c, 5, 71, 0
7, 21408, Note_on_c, 5, 70, 62
7, 21437, Note_on_c, 5, 70, 0
7, 21444, Note_on_c, 5, 71, 85
7, 21454, Note_on_c, 5, 71, 0
7, 21456, Note_on_c, 5, 73, 62
7, 21469, Note_on_c, 5, 73, 0
7, 21472, Note_on_c, 5, 74, 77
7, 21485, Note_on_c, 5, 74, 0
7, 21488, Note_on_c, 5, 76, 65
7, 21501, Note_on_c, 5, 76, 0
7, 21504, Note_on_c, 5, 78, 72
7, 21523, Note_on_c, 5, 78, 0
7, 22020, Note_on_c, 5, 71, 85
7, 22030, Note_on_c, 5, 71, 0
7, 22032, Note_on_c, 5, 71, 85
7, 22061, Note_on_c, 5, 71, 0
7, 22068, Note_on_c, 5, 71, 85
7, 22078, Note_on_c, 5, 71, 0
7, 22080, Note_on_c, 5, 71, 77
7, 22099, Note_on_c, 5, 71, 0
7, 22128, Note_on_c, 5, 70, 52
7, 22133, Note_on_c, 5, 70, 0
7, 22134, Note_on_c, 5, 71, 85
7, 22139, Note_on_c, 5, 71, 0
7, 22140, Note_on_c, 5, 70, 62
7, 22145, Note_on_c, 5, 70, 0
7, 22146, Note_on_c, 5, 71, 85
7, 22151, Note_on_c, 5, 71, 0
7, 22176, Note_on_c, 5, 66, 85
7, 22215, Note_on_c, 5, 66, 0
7, 22272, Control_c, 5, 7, 96
7, 22272, Pitch_bend_c, 5, 8192
7, 22272, Control_c, 5, 1, 0
7, 22272, Program_c, 5, 53
7, 22272, Control_c, 5, 64, 0
7, 22272, Control_c, 5, 10, 64
7, 25188, Note_on_c, 5, 74, 95
7, 25200, Note_on_c, 5, 74, 0
7, 25200, Note_on_c, 5, 81, 95
7, 25236, Note_on_c, 5, 81, 0
7, 25236, Note_on_c, 5, 74, 95
7, 25248, Note_on_c, 5, 74, 0
7, 25248, Note_on_c, 5, 78, 95
7, 25264, Note_on_c, 5, 78, 0
7, 25264, Note_on_c, 5, 76, 95
7, 25280, Note_on_c, 5, 76, 0
7, 25280, Note_on_c, 5, 74, 95
7, 25296, Note_on_c, 5, 74, 0
7, 25296, Note_on_c, 5, 73, 95
7, 25312, Note_on_c, 5, 73, 0
7, 25312, Note_on_c, 5, 74, 95
7, 25328, Note_on_c, 5, 74, 0
7, 25328, Note_on_c, 5, 76, 95
7, 25344, Note_on_c, 5, 76, 0
7, 25344, Note_on_c, 5, 69, 95
7, 25360, Note_on_c, 5, 69, 0
7, 25360, Note_on_c, 5, 71, 95
7, 25376, Note_on_c, 5, 71, 0
7, 25376, Note_on_c, 5, 73, 95
7, 25392, Note_on_c, 5, 73, 0
7, 25392, Note_on_c, 5, 74, 95
7, 25408, Note_on_c, 5, 74, 0
7, 25408, Note_on_c, 5, 76, 95
7, 25424, Note_on_c, 5, 76, 0
7, 25424, Note_on_c, 5, 78, 95
7, 25440, Note_on_c, 5, 78, 0
7, 25440, Note_on_c, 5, 71, 95
7, 25464, Note_on_c, 5, 71, 0
7, 25488, Note_on_c, 5, 73, 95
7, 25512, Note_on_c, 5, 73, 0
7, 25536, Note_on_c, 5, 71, 95
7, 25552, Note_on_c, 5, 71, 0
7, 25552, Note_on_c, 5, 74, 95
7, 25568, Note_on_c, 5, 74, 0
7, 25568, Note_on_c, 5, 78, 95
7, 25584, Note_on_c, 5, 78, 0
7, 25584, Note_on_c, 5, 78, 95
7, 25600, Note_on_c, 5, 78, 0
7, 25600, Note_on_c, 5, 76, 95
7, 25616, Note_on_c, 5, 76, 0
7, 25616, Note_on_c, 5, 78, 95
7, 25632, Note_on_c, 5, 78, 0
7, 25632, Note_on_c, 5, 71, 95
7, 25648, Note_on_c, 5, 71, 0
7, 25648, Note_on_c, 5, 79, 95
7, 25664, Note_on_c, 5, 79, 0
7, 25664, Note_on_c, 5, 78, 95
7, 25680, Note_on_c, 5, 78, 0
7, 25680, Note_on_c, 5, 76, 95
7, 25696, Note_on_c, 5, 76, 0
7, 25696, Note_on_c, 5, 81, 95
7, 25712, Note_on_c, 5, 81, 0
7, 25712, Note_on_c, 5, 79, 95
7, 25728, Note_on_c, 5, 79, 0
7, 25728, Note_on_c, 5, 78, 95
7, 25752, Note_on_c, 5, 78, 0
7, 25776, Note_on_c, 5, 76, 95
7, 25800, Note_on_c, 5, 76, 0
7, 25824, Note_on_c, 5, 76, 95
7, 25848, Note_on_c, 5, 76, 0
7, 25872, Note_on_c, 5, 74, 95
7, 25896, Note_on_c, 5, 74, 0
7, 25920, Note_on_c, 5, 73, 95
7, 25936, Note_on_c, 5, 73, 0
7, 25936, Note_on_c, 5, 74, 95
7, 25952, Note_on_c, 5, 74, 0
7, 25952, Note_on_c, 5, 76, 95
7, 25968, Note_on_c, 5, 76, 0
7, 25968, Note_on_c, 5, 78, 95
7, 25984, Note_on_c, 5, 78, 0
7, 25984, Note_on_c, 5, 79, 95
7, 26000, Note_on_c, 5, 79, 0
7, 26000, Note_on_c, 5, 81, 95
7, 26016, Note_on_c, 5, 81, 0
7, 26016, Note_on_c, 5, 74, 95
7, 26088, Note_on_c, 5, 74, 0
7, 26100, Note_on_c, 5, 73, 95
7, 26112, Note_on_c, 5, 73, 0
7, 26112, Note_on_c, 5, 74, 95
7, 26136, Note_on_c, 5, 74, 0
7, 26160, Note_on_c, 5, 73, 95
7, 26184, Note_on_c, 5, 73, 0
7, 26208, Note_on_c, 5, 74, 95
7, 26232, Note_on_c, 5, 74, 0
7, 26256, Note_on_c, 5, 69, 75
7, 26272, Note_on_c, 5, 69, 0
7, 26304, Note_on_c, 5, 67, 75
7, 26320, Note_on_c, 5, 67, 0
7, 26352, Note_on_c, 5, 66, 75
7, 26368, Note_on_c, 5, 66, 0
7, 26400, Note_on_c, 5, 71, 75
7, 26416, Note_on_c, 5, 71, 0
7, 26448, Note_on_c, 5, 61, 77
7, 26464, Note_on_c, 5, 61, 0
7, 26464, Note_on_c, 5, 64, 77
7, 26480, Note_on_c, 5, 64, 0
7, 26480, Note_on_c, 5, 69, 77
7, 26496, Note_on_c, 5, 69, 0
7, 26496, Note_on_c, 5, 62, 77
7, 26512, Note_on_c, 5, 62, 0
7, 26512, Note_on_c, 5, 66, 77
7, 26528, Note_on_c, 5, 66, 0
7, 26528, Note_on_c, 5, 69, 77
7, 26544, Note_on_c, 5, 69, 0
7, 26544, Note_on_c, 5, 57, 77
7, 26560, Note_on_c, 5, 57, 0
7, 26560, Note_on_c, 5, 61, 77
7, 26576, Note_on_c, 5, 61, 0
7, 26576, Note_on_c, 5, 64, 77
7, 26592, Note_on_c, 5, 64, 0
7, 26592, Note_on_c, 5, 62, 77
7, 26608, Note_on_c, 5, 62, 0
7, 26640, Note_on_c, 5, 74, 77
7, 26656, Note_on_c, 5, 74, 0
7, 26688, Note_on_c, 5, 73, 77
7, 26704, Note_on_c, 5, 73, 0
7, 26736, Note_on_c, 5, 71, 77
7, 26752, Note_on_c, 5, 71, 0
7, 26784, Note_on_c, 5, 76, 77
7, 26800, Note_on_c, 5, 76, 0
7, 26832, Note_on_c, 5, 74, 77
7, 26856, Note_on_c, 5, 74, 0
7, 26856, Note_on_c, 5, 73, 77
7, 26864, Note_on_c, 5, 73, 0
7, 26880, Note_on_c, 5, 74, 77
7, 26916, Note_on_c, 5, 74, 0
7, 26916, Note_on_c, 5, 62, 77
7, 26928, Note_on_c, 5, 62, 0
7, 26928, Note_on_c, 5, 66, 77
7, 26964, Note_on_c, 5, 66, 0
7, 26964, Note_on_c, 5, 64, 77
7, 26976, Note_on_c, 5, 64, 0
7, 26976, Note_on_c, 5, 62, 77
7, 27000, Note_on_c, 5, 62, 0
7, 27024, Note_on_c, 5, 69, 79
7, 27048, Note_on_c, 5, 69, 0
7, 27072, Note_on_c, 5, 67, 79
7, 27096, Note_on_c, 5, 67, 0
7, 27120, Note_on_c, 5, 61, 79
7, 27144, Note_on_c, 5, 61, 0
7, 27168, Note_on_c, 5, 66, 79
7, 27184, Note_on_c, 5, 66, 0
7, 27184, Note_on_c, 5, 62, 79
7, 27200, Note_on_c, 5, 62, 0
7, 27200, Note_on_c, 5, 64, 79
7, 27216, Note_on_c, 5, 64, 0
7, 27216, Note_on_c, 5, 66, 79
7, 27232, Note_on_c, 5, 66, 0
7, 27232, Note_on_c, 5, 62, 79
7, 27248, Note_on_c, 5, 62, 0
7, 27248, Note_on_c, 5, 64, 79
7, 27264, Note_on_c, 5, 64, 0
7, 27264, Note_on_c, 5, 66, 79
7, 27376, Note_on_c, 5, 62, 79
7, 27392, Note_on_c, 5, 62, 0
7, 27392, Note_on_c, 5, 64, 79
7, 27408, Note_on_c, 5, 64, 0
7, 27408, Note_on_c, 5, 66, 0
7, 27408, Note_on_c, 5, 66, 79
7, 27424, Note_on_c, 5, 66, 0
7, 27424, Note_on_c, 5, 62, 79
7, 27440, Note_on_c, 5, 62, 0
7, 27440, Note_on_c, 5, 64, 79
7, 27456, Note_on_c, 5, 64, 0
7, 27456, Note_on_c, 5, 66, 79
7, 27492, Note_on_c, 5, 66, 0
7, 27492, Note_on_c, 5, 69, 79
7, 27504, Note_on_c, 5, 69, 0
7, 27504, Note_on_c, 5, 74, 79
7, 27520, Note_on_c, 5, 74, 0
7, 27520, Note_on_c, 5, 73, 79
7, 27536, Note_on_c, 5, 73, 0
7, 27536, Note_on_c, 5, 74, 79
7, 27552, Note_on_c, 5, 74, 0
7, 27552, Note_on_c, 5, 71, 79
7, 27744, Note_on_c, 5, 71, 0
7, 27744, Note_on_c, 5, 73, 79
7, 27768, Note_on_c, 5, 73, 0
7, 27792, Note_on_c, 5, 73, 79
7, 27816, Note_on_c, 5, 73, 0
7, 27840, Note_on_c, 5, 71, 79
7, 27864, Note_on_c, 5, 71, 0
7, 27888, Note_on_c, 5, 71, 79
7, 27912, Note_on_c, 5, 71, 0
7, 27936, Note_on_c, 5, 69, 79
7, 27960, Note_on_c, 5, 69, 0
7, 27984, Note_on_c, 5, 69, 79
7, 28008, Note_on_c, 5, 69, 0
7, 28032, Note_on_c, 5, 71, 79
7, 28080, Note_on_c, 5, 71, 0
7, 28164, Note_on_c, 5, 73, 79
7, 28173, Note_on_c, 5, 73, 0
7, 28176, Note_on_c, 5, 74, 85
7, 28203, Note_on_c, 5, 74, 0
7, 28212, Note_on_c, 5, 73, 71
7, 28221, Note_on_c, 5, 73, 0
7, 28224, Note_on_c, 5, 71, 85
7, 28251, Note_on_c, 5, 71, 0
7, 28260, Note_on_c, 5, 71, 85
7, 28269, Note_on_c, 5, 71, 0
7, 28272, Note_on_c, 5, 69, 85
7, 28299, Note_on_c, 5, 69, 0
7, 28308, Note_on_c, 5, 69, 85
7, 28317, Note_on_c, 5, 69, 0
7, 28320, Note_on_c, 5, 69, 85
7, 28338, Note_on_c, 5, 69, 0
7, 28452, Note_on_c, 5, 67, 85
7, 28461, Note_on_c, 5, 67, 0
7, 28464, Note_on_c, 5, 74, 85
7, 28491, Note_on_c, 5, 74, 0
7, 28500, Note_on_c, 5, 69, 85
7, 28509, Note_on_c, 5, 69, 0
7, 28512, Note_on_c, 5, 71, 85
7, 28524, Note_on_c, 5, 71, 0
7, 28528, Note_on_c, 5, 69, 85
7, 28540, Note_on_c, 5, 69, 0
7, 28544, Note_on_c, 5, 67, 85
7, 28556, Note_on_c, 5, 67, 0
7, 28560, Note_on_c, 5, 66, 68
7, 28572, Note_on_c, 5, 66, 0
7, 28576, Note_on_c, 5, 67, 85
7, 28588, Note_on_c, 5, 67, 0
7, 28592, Note_on_c, 5, 69, 85
7, 28604, Note_on_c, 5, 69, 0
7, 28608, Note_on_c, 5, 62, 85
7, 28626, Note_on_c, 5, 62, 0
7, 28656, Note_on_c, 5, 69, 85
7, 28674, Note_on_c, 5, 69, 0
7, 28704, Note_on_c, 5, 64, 85
7, 28776, Note_on_c, 5, 64, 0
7, 28816, Note_on_c, 5, 68, 67
7, 28828, Note_on_c, 5, 68, 0
7, 28832, Note_on_c, 5, 69, 85
7, 28844, Note_on_c, 5, 69, 0
7, 28848, Note_on_c, 5, 71, 55
7, 28860, Note_on_c, 5, 71, 0
7, 28864, Note_on_c, 5, 68, 72
7, 28876, Note_on_c, 5, 68, 0
7, 28880, Note_on_c, 5, 69, 85
7, 28892, Note_on_c, 5, 69, 0
7, 28896, Note_on_c, 5, 71, 85
7, 28968, Note_on_c, 5, 71, 0
7, 28992, Note_on_c, 5, 71, 85
7, 29008, Note_on_c, 5, 71, 0
7, 29008, Note_on_c, 5, 68, 85
7, 29024, Note_on_c, 5, 68, 0
7, 29024, Note_on_c, 5, 69, 85
7, 29040, Note_on_c, 5, 69, 0
7, 29040, Note_on_c, 5, 71, 85
7, 29076, Note_on_c, 5, 71, 0
7, 29076, Note_on_c, 5, 71, 85
7, 29088, Note_on_c, 5, 71, 0
7, 29088, Note_on_c, 5, 73, 85
7, 29112, Note_on_c, 5, 73, 0
7, 29172, Note_on_c, 5, 78, 85
7, 29184, Note_on_c, 5, 78, 0
7, 29184, Note_on_c, 5, 74, 85
7, 29208, Note_on_c, 5, 74, 0
7, 29268, Note_on_c, 5, 79, 85
7, 29280, Note_on_c, 5, 79, 0
7, 29280, Note_on_c, 5, 76, 85
7, 29304, Note_on_c, 5, 76, 0
7, 29364, Note_on_c, 5, 81, 85
7, 29376, Note_on_c, 5, 81, 0
7, 29376, Note_on_c, 5, 78, 85
7, 29400, Note_on_c, 5, 78, 0
7, 29424, Note_on_c, 5, 81, 85
7, 29448, Note_on_c, 5, 81, 0
7, 29472, Note_on_c, 5, 74, 85
7, 29496, Note_on_c, 5, 74, 0
7, 29520, Note_on_c, 5, 73, 85
7, 29544, Note_on_c, 5, 73, 0
7, 29568, Note_on_c, 5, 71, 85
7, 29604, Note_on_c, 5, 71, 0
7, 29604, Note_on_c, 5, 71, 85
7, 29616, Note_on_c, 5, 71, 0
7, 29616, Note_on_c, 5, 69, 85
7, 29652, Note_on_c, 5, 69, 0
7, 29652, Note_on_c, 5, 69, 85
7, 29664, Note_on_c, 5, 69, 0
7, 29664, Note_on_c, 5, 69, 85
7, 29760, Note_on_c, 5, 69, 0
7, 29760, End_track
8, 0, Start_track
8, 0, Title_t, "Viola"
8, 0, Control_c, 6, 7, 96
8, 0, Pitch_bend_c, 6, 8192
8, 0, Control_c, 6, 1, 0
8, 0, Program_c, 6, 53
8, 0, Control_c, 6, 64, 0
8, 0, Control_c, 6, 10, 64
8, 2724, Note_on_c, 6, 69, 95
8, 2736, Note_on_c, 6, 69, 0
8, 2736, Note_on_c, 6, 74, 95
8, 2772, Note_on_c, 6, 74, 0
8, 2772, Note_on_c, 6, 69, 95
8, 2784, Note_on_c, 6, 69, 0
8, 2784, Note_on_c, 6, 71, 95
8, 2800, Note_on_c, 6, 71, 0
8, 2800, Note_on_c, 6, 69, 95
8, 2816, Note_on_c, 6, 69, 0
8, 2816, Note_on_c, 6, 67, 95
8, 2832, Note_on_c, 6, 67, 0
8, 2832, Note_on_c, 6, 66, 95
8, 2848, Note_on_c, 6, 66, 0
8, 2848, Note_on_c, 6, 67, 95
8, 2864, Note_on_c, 6, 67, 0
8, 2864, Note_on_c, 6, 69, 95
8, 2880, Note_on_c, 6, 69, 0
8, 2880, Note_on_c, 6, 62, 95
8, 2904, Note_on_c, 6, 62, 0
8, 2928, Note_on_c, 6, 64, 95
8, 2952, Note_on_c, 6, 64, 0
8, 2976, Note_on_c, 6, 57, 95
8, 3000, Note_on_c, 6, 57, 0
8, 3024, Note_on_c, 6, 64, 95
8, 3048, Note_on_c, 6, 64, 0
8, 3072, Note_on_c, 6, 61, 95
8, 3088, Note_on_c, 6, 61, 0
8, 3088, Note_on_c, 6, 62, 95
8, 3104, Note_on_c, 6, 62, 0
8, 3104, Note_on_c, 6, 64, 95
8, 3120, Note_on_c, 6, 64, 0
8, 3120, Note_on_c, 6, 66, 95
8, 3136, Note_on_c, 6, 66, 0
8, 3136, Note_on_c, 6, 67, 95
8, 3152, Note_on_c, 6, 67, 0
8, 3152, Note_on_c, 6, 69, 95
8, 3168, Note_on_c, 6, 69, 0
8, 3168, Note_on_c, 6, 62, 95
8, 3192, Note_on_c, 6, 62, 0
8, 3216, Note_on_c, 6, 69, 95
8, 3240, Note_on_c, 6, 69, 0
8, 3264, Note_on_c, 6, 66, 95
8, 3288, Note_on_c, 6, 66, 0
8, 3312, Note_on_c, 6, 69, 95
8, 3328, Note_on_c, 6, 69, 0
8, 3328, Note_on_c, 6, 67, 95
8, 3344, Note_on_c, 6, 67, 0
8, 3344, Note_on_c, 6, 69, 95
8, 3360, Note_on_c, 6, 69, 0
8, 3360, Note_on_c, 6, 66, 95
8, 3376, Note_on_c, 6, 66, 0
8, 3376, Note_on_c, 6, 64, 95
8, 3392, Note_on_c, 6, 64, 0
8, 3392, Note_on_c, 6, 62, 95
8, 3408, Note_on_c, 6, 62, 0
8, 3408, Note_on_c, 6, 69, 95
8, 3432, Note_on_c, 6, 69, 0
8, 3456, Note_on_c, 6, 69, 95
8, 3480, Note_on_c, 6, 69, 0
8, 3504, Note_on_c, 6, 61, 95
8, 3528, Note_on_c, 6, 61, 0
8, 3552, Note_on_c, 6, 62, 95
8, 3576, Note_on_c, 6, 62, 0
8, 3600, Note_on_c, 6, 64, 95
8, 3624, Note_on_c, 6, 64, 0
8, 3648, Note_on_c, 6, 66, 95
8, 3684, Note_on_c, 6, 66, 0
8, 3684, Note_on_c, 6, 73, 95
8, 3696, Note_on_c, 6, 73, 0
8, 3696, Note_on_c, 6, 69, 95
8, 3732, Note_on_c, 6, 69, 0
8, 3732, Note_on_c, 6, 67, 95
8, 3744, Note_on_c, 6, 67, 0
8, 3744, Note_on_c, 6, 66, 95
8, 3780, Note_on_c, 6, 66, 0
8, 3780, Note_on_c, 6, 67, 95
8, 3792, Note_on_c, 6, 67, 0
8, 3792, Note_on_c, 6, 69, 95
8, 3828, Note_on_c, 6, 69, 0
8, 3828, Note_on_c, 6, 69, 95
8, 3840, Note_on_c, 6, 69, 0
8, 3840, Note_on_c, 6, 69, 95
8, 3864, Note_on_c, 6, 69, 0
8, 3888, Note_on_c, 6, 67, 95
8, 3912, Note_on_c, 6, 67, 0
8, 3936, Note_on_c, 6, 66, 95
8, 3960, Note_on_c, 6, 66, 0
8, 3984, Note_on_c, 6, 62, 85
8, 4008, Note_on_c, 6, 62, 0
8, 4032, Note_on_c, 6, 62, 77
8, 4056, Note_on_c, 6, 62, 0
8, 4080, Note_on_c, 6, 69, 85
8, 4104, Note_on_c, 6, 69, 0
8, 4128, Note_on_c, 6, 66, 68
8, 4152, Note_on_c, 6, 66, 0
8, 4176, Note_on_c, 6, 64, 57
8, 4192, Note_on_c, 6, 64, 0
8, 4192, Note_on_c, 6, 61, 49
8, 4208, Note_on_c, 6, 61, 0
8, 4208, Note_on_c, 6, 57, 59
8, 4224, Note_on_c, 6, 57, 0
8, 4224, Note_on_c, 6, 66, 55
8, 4240, Note_on_c, 6, 66, 0
8, 4240, Note_on_c, 6, 62, 76
8, 4256, Note_on_c, 6, 62, 0
8, 4256, Note_on_c, 6, 57, 70
8, 4272, Note_on_c, 6, 57, 0
8, 4272, Note_on_c, 6, 67, 74
8, 4288, Note_on_c, 6, 67, 0
8, 4288, Note_on_c, 6, 64, 85
8, 4304, Note_on_c, 6, 64, 0
8, 4304, Note_on_c, 6, 57, 68
8, 4320, Note_on_c, 6, 57, 0
8, 4320, Note_on_c, 6, 66, 55
8, 4344, Note_on_c, 6, 66, 0
8, 4368, Note_on_c, 6, 62, 72
8, 4392, Note_on_c, 6, 62, 0
8, 4416, Note_on_c, 6, 66, 46
8, 4440, Note_on_c, 6, 66, 0
8, 4464, Note_on_c, 6, 66, 64
8, 4488, Note_on_c, 6, 66, 0
8, 4512, Note_on_c, 6, 64, 85
8, 4536, Note_on_c, 6, 64, 0
8, 4560, Note_on_c, 6, 66, 66
8, 4596, Note_on_c, 6, 66, 0
8, 4596, Note_on_c, 6, 64, 85
8, 4608, Note_on_c, 6, 64, 0
8, 4608, Note_on_c, 6, 62, 85
8, 4644, Note_on_c, 6, 62, 0
8, 4644, Note_on_c, 6, 67, 85
8, 4656, Note_on_c, 6, 67, 0
8, 4656, Note_on_c, 6, 64, 85
8, 4692, Note_on_c, 6, 64, 0
8, 4692, Note_on_c, 6, 57, 85
8, 4704, Note_on_c, 6, 57, 0
8, 4704, Note_on_c, 6, 57, 85
8, 4728, Note_on_c, 6, 57, 0
8, 4752, Note_on_c, 6, 62, 85
8, 4776, Note_on_c, 6, 62, 0
8, 4800, Note_on_c, 6, 62, 85
8, 4824, Note_on_c, 6, 62, 0
8, 4848, Note_on_c, 6, 66, 85
8, 4872, Note_on_c, 6, 66, 0
8, 4896, Note_on_c, 6, 59, 85
8, 5088, Note_on_c, 6, 59, 0
8, 5088, Note_on_c, 6, 57, 85
8, 5215, Note_on_c, 6, 57, 0
8, 5280, Note_on_c, 6, 64, 85
8, 5472, Note_on_c, 6, 64, 0
8, 5472, Note_on_c, 6, 64, 85
8, 5496, Note_on_c, 6, 64, 0
8, 5520, Note_on_c, 6, 66, 85
8, 5544, Note_on_c, 6, 66, 0
8, 5568, Note_on_c, 6, 66, 85
8, 5592, Note_on_c, 6, 66, 0
8, 5616, Note_on_c, 6, 64, 85
8, 5640, Note_on_c, 6, 64, 0
8, 5664, Note_on_c, 6, 64, 85
8, 5688, Note_on_c, 6, 64, 0
8, 5712, Note_on_c, 6, 62, 85
8, 5736, Note_on_c, 6, 62, 0
8, 5760, Note_on_c, 6, 62, 85
8, 5808, Note_on_c, 6, 62, 0
8, 5892, Note_on_c, 6, 69, 85
8, 5900, Note_on_c, 6, 69, 0
8, 5904, Note_on_c, 6, 66, 65
8, 5928, Note_on_c, 6, 66, 0
8, 5940, Note_on_c, 6, 64, 85
8, 5948, Note_on_c, 6, 64, 0
8, 5952, Note_on_c, 6, 62, 85
8, 5963, Note_on_c, 6, 62, 0
8, 5968, Note_on_c, 6, 61, 66
8, 5979, Note_on_c, 6, 61, 0
8, 5984, Note_on_c, 6, 59, 85
8, 5995, Note_on_c, 6, 59, 0
8, 6000, Note_on_c, 6, 64, 76
8, 6011, Note_on_c, 6, 64, 0
8, 6016, Note_on_c, 6, 66, 68
8, 6027, Note_on_c, 6, 66, 0
8, 6032, Note_on_c, 6, 67, 85
8, 6043, Note_on_c, 6, 67, 0
8, 6048, Note_on_c, 6, 66, 55
8, 6072, Note_on_c, 6, 66, 0
8, 6084, Note_on_c, 6, 69, 85
8, 6092, Note_on_c, 6, 69, 0
8, 6096, Note_on_c, 6, 74, 85
8, 6120, Note_on_c, 6, 74, 0
8, 6132, Note_on_c, 6, 69, 71
8, 6140, Note_on_c, 6, 69, 0
8, 6144, Note_on_c, 6, 71, 74
8, 6155, Note_on_c, 6, 71, 0
8, 6160, Note_on_c, 6, 69, 85
8, 6171, Note_on_c, 6, 69, 0
8, 6176, Note_on_c, 6, 67, 81
8, 6187, Note_on_c, 6, 67, 0
8, 6192, Note_on_c, 6, 66, 53
8, 6203, Note_on_c, 6, 66, 0
8, 6208, Note_on_c, 6, 67, 79
8, 6219, Note_on_c, 6, 67, 0
8, 6224, Note_on_c, 6, 69, 85
8, 6235, Note_on_c, 6, 69, 0
8, 6240, Note_on_c, 6, 62, 85
8, 6256, Note_on_c, 6, 62, 0
8, 6288, Note_on_c, 6, 62, 85
8, 6304, Note_on_c, 6, 62, 0
8, 6336, Note_on_c, 6, 62, 70
8, 6347, Note_on_c, 6, 62, 0
8, 6352, Note_on_c, 6, 60, 72
8, 6363, Note_on_c, 6, 60, 0
8, 6368, Note_on_c, 6, 59, 85
8, 6379, Note_on_c, 6, 59, 0
8, 6384, Note_on_c, 6, 57, 85
8, 6395, Note_on_c, 6, 57, 0
8, 6400, Note_on_c, 6, 59, 85
8, 6411, Note_on_c, 6, 59, 0
8, 6416, Note_on_c, 6, 61, 71
8, 6427, Note_on_c, 6, 61, 0
8, 6432, Note_on_c, 6, 59, 85
8, 6443, Note_on_c, 6, 59, 0
8, 6448, Note_on_c, 6, 62, 71
8, 6459, Note_on_c, 6, 62, 0
8, 6464, Note_on_c, 6, 61, 49
8, 6475, Note_on_c, 6, 61, 0
8, 6480, Note_on_c, 6, 59, 85
8, 6491, Note_on_c, 6, 59, 0
8, 6496, Note_on_c, 6, 62, 85
8, 6507, Note_on_c, 6, 62, 0
8, 6512, Note_on_c, 6, 61, 68
8, 6523, Note_on_c, 6, 61, 0
8, 6528, Note_on_c, 6, 59, 85
8, 6593, Note_on_c, 6, 59, 0
8, 6640, Note_on_c, 6, 56, 64
8, 6651, Note_on_c, 6, 56, 0
8, 6656, Note_on_c, 6, 57, 85
8, 6667, Note_on_c, 6, 57, 0
8, 6672, Note_on_c, 6, 59, 85
8, 6683, Note_on_c, 6, 59, 0
8, 6688, Note_on_c, 6, 56, 64
8, 6699, Note_on_c, 6, 56, 0
8, 6704, Note_on_c, 6, 57, 85
8, 6715, Note_on_c, 6, 57, 0
8, 6720, Note_on_c, 6, 59, 82
8, 6769, Note_on_c, 6, 59, 0
8, 6804, Note_on_c, 6, 68, 97
8, 6812, Note_on_c, 6, 68, 0
8, 6816, Note_on_c, 6, 69, 76
8, 6840, Note_on_c, 6, 69, 0
8, 6852, Note_on_c, 6, 64, 69
8, 6860, Note_on_c, 6, 64, 0
8, 6864, Note_on_c, 6, 69, 85
8, 6880, Note_on_c, 6, 69, 0
8, 6948, Note_on_c, 6, 66, 59
8, 6952, Note_on_c, 6, 66, 0
8, 6960, Note_on_c, 6, 71, 74
8, 6976, Note_on_c, 6, 71, 0
8, 7044, Note_on_c, 6, 69, 85
8, 7052, Note_on_c, 6, 69, 0
8, 7056, Note_on_c, 6, 73, 55
8, 7072, Note_on_c, 6, 73, 0
8, 7152, Note_on_c, 6, 62, 72
8, 7168, Note_on_c, 6, 62, 0
8, 7200, Note_on_c, 6, 62, 72
8, 7216, Note_on_c, 6, 62, 0
8, 7248, Note_on_c, 6, 69, 85
8, 7264, Note_on_c, 6, 69, 0
8, 7296, Note_on_c, 6, 66, 65
8, 7320, Note_on_c, 6, 66, 0
8, 7332, Note_on_c, 6, 67, 71
8, 7340, Note_on_c, 6, 67, 0
8, 7344, Note_on_c, 6, 64, 85
8, 7368, Note_on_c, 6, 64, 0
8, 7380, Note_on_c, 6, 66, 55
8, 7388, Note_on_c, 6, 66, 0
8, 7392, Note_on_c, 6, 66, 59
8, 7457, Note_on_c, 6, 66, 0
8, 8292, Note_on_c, 6, 71, 81
8, 8300, Note_on_c, 6, 71, 0
8, 8304, Note_on_c, 6, 66, 59
8, 8328, Note_on_c, 6, 66, 0
8, 8340, Note_on_c, 6, 73, 67
8, 8348, Note_on_c, 6, 73, 0
8, 8352, Note_on_c, 6, 74, 85
8, 8363, Note_on_c, 6, 74, 0
8, 8368, Note_on_c, 6, 73, 54
8, 8379, Note_on_c, 6, 73, 0
8, 8384, Note_on_c, 6, 71, 85
8, 8395, Note_on_c, 6, 71, 0
8, 8400, Note_on_c, 6, 70, 55
8, 8411, Note_on_c, 6, 70, 0
8, 8416, Note_on_c, 6, 71, 71
8, 8427, Note_on_c, 6, 71, 0
8, 8432, Note_on_c, 6, 73, 68
8, 8443, Note_on_c, 6, 73, 0
8, 8448, Note_on_c, 6, 66, 59
8, 8464, Note_on_c, 6, 66, 0
8, 9252, Note_on_c, 6, 66, 91
8, 9264, Note_on_c, 6, 66, 0
8, 9264, Note_on_c, 6, 73, 81
8, 9300, Note_on_c, 6, 73, 0
8, 9300, Note_on_c, 6, 68, 72
8, 9312, Note_on_c, 6, 68, 0
8, 9312, Note_on_c, 6, 69, 85
8, 9328, Note_on_c, 6, 69, 0
8, 9328, Note_on_c, 6, 68, 65
8, 9344, Note_on_c, 6, 68, 0
8, 9344, Note_on_c, 6, 66, 66
8, 9360, Note_on_c, 6, 66, 0
8, 9360, Note_on_c, 6, 65, 85
8, 9376, Note_on_c, 6, 65, 0
8, 9376, Note_on_c, 6, 66, 72
8, 9392, Note_on_c, 6, 66, 0
8, 9392, Note_on_c, 6, 68, 72
8, 9408, Note_on_c, 6, 68, 0
8, 9408, Note_on_c, 6, 61, 57
8, 9424, Note_on_c, 6, 61, 0
8, 9456, Note_on_c, 6, 57, 85
8, 9472, Note_on_c, 6, 57, 0
8, 9552, Note_on_c, 6, 57, 85
8, 9568, Note_on_c, 6, 57, 0
8, 9648, Note_on_c, 6, 57, 85
8, 9664, Note_on_c, 6, 57, 0
8, 9744, Note_on_c, 6, 57, 85
8, 9760, Note_on_c, 6, 57, 0
8, 9840, Note_on_c, 6, 57, 85
8, 9856, Note_on_c, 6, 57, 0
8, 9936, Note_on_c, 6, 57, 85
8, 9952, Note_on_c, 6, 57, 0
8, 10032, Note_on_c, 6, 57, 85
8, 10048, Note_on_c, 6, 57, 0
8, 10128, Note_on_c, 6, 57, 85
8, 10152, Note_on_c, 6, 57, 0
8, 10224, Note_on_c, 6, 66, 74
8, 10240, Note_on_c, 6, 66, 0
8, 10272, Note_on_c, 6, 61, 72
8, 10288, Note_on_c, 6, 61, 0
8, 10416, Note_on_c, 6, 64, 85
8, 10432, Note_on_c, 6, 64, 0
8, 10464, Note_on_c, 6, 59, 85
8, 10480, Note_on_c, 6, 59, 0
8, 12276, Note_on_c, 6, 66, 85
8, 12288, Note_on_c, 6, 66, 0
8, 12288, Note_on_c, 6, 66, 85
8, 12301, Note_on_c, 6, 66, 0
8, 12304, Note_on_c, 6, 64, 85
8, 12317, Note_on_c, 6, 64, 0
8, 12320, Note_on_c, 6, 62, 85
8, 12333, Note_on_c, 6, 62, 0
8, 12336, Note_on_c, 6, 64, 85
8, 12396, Note_on_c, 6, 64, 0
8, 12400, Note_on_c, 6, 62, 85
8, 12413, Note_on_c, 6, 62, 0
8, 12416, Note_on_c, 6, 61, 85
8, 12429, Note_on_c, 6, 61, 0
8, 12432, Note_on_c, 6, 59, 85
8, 12452, Note_on_c, 6, 59, 0
8, 12480, Note_on_c, 6, 59, 85
8, 12500, Note_on_c, 6, 59, 0
8, 12528, Note_on_c, 6, 66, 85
8, 12588, Note_on_c, 6, 66, 0
8, 12592, Note_on_c, 6, 59, 85
8, 12605, Note_on_c, 6, 59, 0
8, 12608, Note_on_c, 6, 64, 85
8, 12621, Note_on_c, 6, 64, 0
8, 12624, Note_on_c, 6, 64, 85
8, 12643, Note_on_c, 6, 64, 0
8, 12672, Note_on_c, 6, 64, 85
8, 12691, Note_on_c, 6, 64, 0
8, 12720, Note_on_c, 6, 71, 85
8, 12778, Note_on_c, 6, 71, 0
8, 12784, Note_on_c, 6, 64, 85
8, 12797, Note_on_c, 6, 64, 0
8, 12800, Note_on_c, 6, 69, 85
8, 12813, Note_on_c, 6, 69, 0
8, 12816, Note_on_c, 6, 69, 85
8, 12835, Note_on_c, 6, 69, 0
8, 12864, Note_on_c, 6, 69, 85
8, 12883, Note_on_c, 6, 69, 0
8, 12912, Note_on_c, 6, 64, 85
8, 12970, Note_on_c, 6, 64, 0
8, 12976, Note_on_c, 6, 57, 85
8, 12989, Note_on_c, 6, 57, 0
8, 12992, Note_on_c, 6, 62, 85
8, 13005, Note_on_c, 6, 62, 0
8, 13008, Note_on_c, 6, 69, 85
8, 13027, Note_on_c, 6, 69, 0
8, 13056, Note_on_c, 6, 64, 85
8, 13075, Note_on_c, 6, 64, 0
8, 13104, Note_on_c, 6, 71, 85
8, 13123, Note_on_c, 6, 71, 0
8, 13152, Note_on_c, 6, 69, 85
8, 13171, Note_on_c, 6, 69, 0
8, 13200, Note_on_c, 6, 73, 85
8, 13219, Note_on_c, 6, 73, 0
8, 13248, Note_on_c, 6, 66, 85
8, 13267, Note_on_c, 6, 66, 0
8, 13296, Note_on_c, 6, 74, 85
8, 13315, Note_on_c, 6, 74, 0
8, 13344, Note_on_c, 6, 73, 85
8, 13363, Note_on_c, 6, 73, 0
8, 13392, Note_on_c, 6, 76, 85
8, 13411, Note_on_c, 6, 76, 0
8, 13440, Note_on_c, 6, 69, 85
8, 13459, Note_on_c, 6, 69, 0
8, 13488, Note_on_c, 6, 66, 85
8, 13507, Note_on_c, 6, 66, 0
8, 13536, Note_on_c, 6, 71, 85
8, 13555, Note_on_c, 6, 71, 0
8, 13584, Note_on_c, 6, 69, 85
8, 13603, Note_on_c, 6, 69, 0
8, 13632, Note_on_c, 6, 74, 85
8, 13651, Note_on_c, 6, 74, 0
8, 13680, Note_on_c, 6, 68, 85
8, 13699, Note_on_c, 6, 68, 0
8, 13728, Note_on_c, 6, 69, 85
8, 13741, Note_on_c, 6, 69, 0
8, 13744, Note_on_c, 6, 68, 85
8, 13757, Note_on_c, 6, 68, 0
8, 13760, Note_on_c, 6, 66, 85
8, 13773, Note_on_c, 6, 66, 0
8, 13776, Note_on_c, 6, 64, 85
8, 13789, Note_on_c, 6, 64, 0
8, 13792, Note_on_c, 6, 66, 85
8, 13805, Note_on_c, 6, 66, 0
8, 13808, Note_on_c, 6, 68, 85
8, 13821, Note_on_c, 6, 68, 0
8, 13824, Note_on_c, 6, 66, 85
8, 13863, Note_on_c, 6, 66, 0
8, 13896, Note_on_c, 6, 71, 85
8, 13915, Note_on_c, 6, 71, 0
8, 13920, Note_on_c, 6, 71, 85
8, 13949, Note_on_c, 6, 71, 0
8, 13956, Note_on_c, 6, 68, 85
8, 13966, Note_on_c, 6, 68, 0
8, 13968, Note_on_c, 6, 69, 85
8, 13997, Note_on_c, 6, 69, 0
8, 14004, Note_on_c, 6, 57, 85
8, 14014, Note_on_c, 6, 57, 0
8, 14016, Note_on_c, 6, 64, 85
8, 14035, Note_on_c, 6, 64, 0
8, 14064, Note_on_c, 6, 64, 85
8, 14083, Note_on_c, 6, 64, 0
8, 14112, Control_c, 6, 7, 96
8, 14112, Note_on_c, 6, 64, 85
8, 14118, Control_c, 6, 7, 97
8, 14124, Control_c, 6, 7, 99
8, 14130, Control_c, 6, 7, 100
8, 14136, Control_c, 6, 7, 102
8, 14141, Note_on_c, 6, 64, 0
8, 14142, Control_c, 6, 7, 103
8, 14148, Control_c, 6, 7, 105
8, 14148, Note_on_c, 6, 64, 85
8, 14154, Control_c, 6, 7, 106
8, 14158, Note_on_c, 6, 64, 0
8, 14160, Control_c, 6, 7, 108
8, 14160, Note_on_c, 6, 69, 85
8, 14189, Note_on_c, 6, 69, 0
8, 14196, Note_on_c, 6, 64, 85
8, 14206, Note_on_c, 6, 64, 0
8, 14208, Note_on_c, 6, 64, 85
8, 14218, Note_on_c, 6, 64, 0
8, 14220, Note_on_c, 6, 66, 85
8, 14337, Note_on_c, 6, 66, 0
8, 14340, Note_on_c, 6, 66, 85
8, 14350, Note_on_c, 6, 66, 0
8, 14352, Note_on_c, 6, 67, 85
8, 14365, Note_on_c, 6, 67, 0
8, 14368, Note_on_c, 6, 64, 85
8, 14381, Note_on_c, 6, 64, 0
8, 14384, Note_on_c, 6, 66, 85
8, 14397, Note_on_c, 6, 66, 0
8, 14400, Note_on_c, 6, 66, 85
8, 14410, Note_on_c, 6, 66, 0
8, 14412, Note_on_c, 6, 64, 85
8, 14532, Note_on_c, 6, 64, 0
8, 14532, Note_on_c, 6, 64, 85
8, 14542, Note_on_c, 6, 64, 0
8, 14544, Note_on_c, 6, 69, 85
8, 14574, Note_on_c, 6, 69, 0
8, 14580, Note_on_c, 6, 66, 85
8, 14590, Note_on_c, 6, 66, 0
8, 14592, Note_on_c, 6, 64, 85
8, 14602, Note_on_c, 6, 64, 0
8, 14604, Note_on_c, 6, 62, 85
8, 14704, Note_on_c, 6, 64, 85
8, 14720, Note_on_c, 6, 64, 0
8, 14720, Note_on_c, 6, 66, 85
8, 14736, Note_on_c, 6, 62, 0
8, 14736, Note_on_c, 6, 66, 0
8, 14736, Note_on_c, 6, 64, 85
8, 14752, Note_on_c, 6, 64, 0
8, 14752, Note_on_c, 6, 66, 85
8, 14768, Note_on_c, 6, 66, 0
8, 14768, Note_on_c, 6, 62, 85
8, 14784, Note_on_c, 6, 62, 0
8, 14784, Note_on_c, 6, 61, 85
8, 14808, Note_on_c, 6, 61, 0
8, 15012, Note_on_c, 6, 71, 85
8, 15024, Note_on_c, 6, 71, 0
8, 15024, Note_on_c, 6, 76, 85
8, 15060, Note_on_c, 6, 76, 0
8, 15060, Note_on_c, 6, 71, 72
8, 15072, Note_on_c, 6, 71, 0
8, 15072, Note_on_c, 6, 72, 61
8, 15088, Note_on_c, 6, 72, 0
8, 15088, Note_on_c, 6, 71, 70
8, 15104, Note_on_c, 6, 71, 0
8, 15104, Note_on_c, 6, 69, 85
8, 15120, Note_on_c, 6, 69, 0
8, 15120, Note_on_c, 6, 67, 84
8, 15136, Note_on_c, 6, 67, 0
8, 15136, Note_on_c, 6, 69, 76
8, 15152, Note_on_c, 6, 69, 0
8, 15152, Note_on_c, 6, 71, 85
8, 15168, Note_on_c, 6, 71, 0
8, 15168, Note_on_c, 6, 64, 85
8, 15192, Note_on_c, 6, 64, 0
8, 15396, Note_on_c, 6, 66, 62
8, 15408, Note_on_c, 6, 66, 0
8, 15408, Note_on_c, 6, 71, 52
8, 15444, Note_on_c, 6, 71, 0
8, 15444, Note_on_c, 6, 66, 66
8, 15456, Note_on_c, 6, 66, 0
8, 15456, Note_on_c, 6, 67, 79
8, 15472, Note_on_c, 6, 67, 0
8, 15472, Note_on_c, 6, 66, 52
8, 15488, Note_on_c, 6, 66, 0
8, 15488, Note_on_c, 6, 64, 76
8, 15504, Note_on_c, 6, 64, 0
8, 15504, Note_on_c, 6, 62, 85
8, 15520, Note_on_c, 6, 62, 0
8, 15520, Note_on_c, 6, 64, 85
8, 15536, Note_on_c, 6, 64, 0
8, 15536, Note_on_c, 6, 66, 62
8, 15552, Note_on_c, 6, 66, 0
8, 15552, Note_on_c, 6, 59, 62
8, 15571, Note_on_c, 6, 59, 0
8, 16944, Note_on_c, 6, 54, 85
8, 16992, Note_on_c, 6, 54, 0
8, 16992, Note_on_c, 6, 59, 85
8, 17040, Note_on_c, 6, 59, 0
8, 17136, Note_on_c, 6, 52, 85
8, 17184, Note_on_c, 6, 52, 0
8, 17184, Note_on_c, 6, 57, 85
8, 17232, Note_on_c, 6, 57, 0
8, 17316, Note_on_c, 6, 69, 66
8, 17326, Note_on_c, 6, 69, 0
8, 17328, Note_on_c, 6, 74, 74
8, 17357, Note_on_c, 6, 74, 0
8, 17364, Note_on_c, 6, 69, 85
8, 17374, Note_on_c, 6, 69, 0
8, 17376, Note_on_c, 6, 71, 74
8, 17389, Note_on_c, 6, 71, 0
8, 17392, Note_on_c, 6, 69, 85
8, 17405, Note_on_c, 6, 69, 0
8, 17408, Note_on_c, 6, 67, 85
8, 17421, Note_on_c, 6, 67, 0
8, 17424, Note_on_c, 6, 66, 43
8, 17437, Note_on_c, 6, 66, 0
8, 17440, Note_on_c, 6, 67, 85
8, 17453, Note_on_c, 6, 67, 0
8, 17456, Note_on_c, 6, 69, 85
8, 17469, Note_on_c, 6, 69, 0
8, 17472, Note_on_c, 6, 62, 72
8, 17511, Note_on_c, 6, 62, 0
8, 17700, Note_on_c, 6, 64, 72
8, 17710, Note_on_c, 6, 64, 0
8, 17712, Note_on_c, 6, 69, 72
8, 17741, Note_on_c, 6, 69, 0
8, 17748, Note_on_c, 6, 64, 82
8, 17758, Note_on_c, 6, 64, 0
8, 17760, Note_on_c, 6, 66, 49
8, 17773, Note_on_c, 6, 66, 0
8, 17776, Note_on_c, 6, 64, 70
8, 17789, Note_on_c, 6, 64, 0
8, 17792, Note_on_c, 6, 62, 85
8, 17805, Note_on_c, 6, 62, 0
8, 17808, Note_on_c, 6, 61, 37
8, 17821, Note_on_c, 6, 61, 0
8, 17824, Note_on_c, 6, 62, 85
8, 17837, Note_on_c, 6, 62, 0
8, 17840, Note_on_c, 6, 64, 85
8, 17853, Note_on_c, 6, 64, 0
8, 17856, Note_on_c, 6, 57, 77
8, 17895, Note_on_c, 6, 57, 0
8, 18084, Note_on_c, 6, 64, 85
8, 18096, Note_on_c, 6, 64, 0
8, 18096, Note_on_c, 6, 69, 85
8, 18132, Note_on_c, 6, 69, 0
8, 18132, Note_on_c, 6, 64, 85
8, 18144, Note_on_c, 6, 64, 0
8, 18144, Note_on_c, 6, 61, 72
8, 18256, Note_on_c, 6, 61, 55
8, 18269, Note_on_c, 6, 61, 0
8, 18272, Note_on_c, 6, 62, 78
8, 18285, Note_on_c, 6, 62, 0
8, 18288, Note_on_c, 6, 64, 85
8, 18301, Note_on_c, 6, 64, 0
8, 18304, Note_on_c, 6, 61, 52
8, 18317, Note_on_c, 6, 61, 0
8, 18320, Note_on_c, 6, 62, 85
8, 18333, Note_on_c, 6, 62, 0
8, 18336, Note_on_c, 6, 57, 85
8, 18360, Note_on_c, 6, 57, 0
8, 18912, Note_on_c, 6, 65, 85
8, 18936, Note_on_c, 6, 65, 0
8, 19008, Note_on_c, 6, 61, 85
8, 19032, Note_on_c, 6, 61, 0
8, 19104, Note_on_c, 6, 71, 85
8, 19128, Note_on_c, 6, 71, 0
8, 19200, Note_on_c, 6, 69, 85
8, 19224, Note_on_c, 6, 69, 0
8, 19296, Note_on_c, 6, 66, 85
8, 19320, Note_on_c, 6, 66, 0
8, 19392, Note_on_c, 6, 61, 85
8, 19416, Note_on_c, 6, 61, 0
8, 21156, Note_on_c, 6, 59, 85
8, 21168, Note_on_c, 6, 59, 0
8, 21168, Note_on_c, 6, 66, 85
8, 21204, Note_on_c, 6, 66, 0
8, 21204, Note_on_c, 6, 61, 85
8, 21216, Note_on_c, 6, 61, 0
8, 21216, Note_on_c, 6, 62, 85
8, 21232, Note_on_c, 6, 62, 0
8, 21232, Note_on_c, 6, 61, 85
8, 21248, Note_on_c, 6, 61, 0
8, 21248, Note_on_c, 6, 59, 85
8, 21264, Note_on_c, 6, 59, 0
8, 21264, Note_on_c, 6, 58, 85
8, 21280, Note_on_c, 6, 58, 0
8, 21280, Note_on_c, 6, 59, 85
8, 21296, Note_on_c, 6, 59, 0
8, 21296, Note_on_c, 6, 61, 85
8, 21312, Note_on_c, 6, 61, 0
8, 21312, Note_on_c, 6, 57, 85
8, 21348, Note_on_c, 6, 57, 0
8, 21348, Note_on_c, 6, 66, 85
8, 21360, Note_on_c, 6, 66, 0
8, 21360, Note_on_c, 6, 66, 85
8, 21376, Note_on_c, 6, 66, 0
8, 21376, Note_on_c, 6, 62, 85
8, 21392, Note_on_c, 6, 62, 0
8, 21392, Note_on_c, 6, 64, 85
8, 21408, Note_on_c, 6, 64, 0
8, 21408, Note_on_c, 6, 66, 85
8, 21424, Note_on_c, 6, 66, 0
8, 21424, Note_on_c, 6, 64, 85
8, 21440, Note_on_c, 6, 64, 0
8, 21440, Note_on_c, 6, 62, 85
8, 21456, Note_on_c, 6, 62, 0
8, 21456, Note_on_c, 6, 64, 85
8, 21472, Note_on_c, 6, 64, 0
8, 21472, Note_on_c, 6, 62, 85
8, 21488, Note_on_c, 6, 62, 0
8, 21488, Note_on_c, 6, 61, 85
8, 21504, Note_on_c, 6, 61, 0
8, 21504, Note_on_c, 6, 59, 85
8, 21528, Note_on_c, 6, 59, 0
8, 22020, Note_on_c, 6, 67, 85
8, 22032, Note_on_c, 6, 67, 0
8, 22032, Note_on_c, 6, 66, 85
8, 22068, Note_on_c, 6, 66, 0
8, 22068, Note_on_c, 6, 64, 85
8, 22080, Note_on_c, 6, 64, 0
8, 22080, Note_on_c, 6, 62, 85
8, 22104, Note_on_c, 6, 62, 0
8, 22128, Note_on_c, 6, 66, 85
8, 22152, Note_on_c, 6, 66, 0
8, 22176, Note_on_c, 6, 62, 85
8, 22224, Note_on_c, 6, 62, 0
8, 22272, Control_c, 6, 7, 96
8, 22272, Pitch_bend_c, 6, 8192
8, 22272, Control_c, 6, 1, 0
8, 22272, Program_c, 6, 53
8, 22272, Control_c, 6, 64, 0
8, 22272, Control_c, 6, 10, 64
8, 24996, Note_on_c, 6, 69, 95
8, 25008, Note_on_c, 6, 69, 0
8, 25008, Note_on_c, 6, 74, 95
8, 25044, Note_on_c, 6, 74, 0
8, 25044, Note_on_c, 6, 69, 95
8, 25056, Note_on_c, 6, 69, 0
8, 25056, Note_on_c, 6, 71, 95
8, 25072, Note_on_c, 6, 71, 0
8, 25072, Note_on_c, 6, 69, 95
8, 25088, Note_on_c, 6, 69, 0
8, 25088, Note_on_c, 6, 67, 95
8, 25104, Note_on_c, 6, 67, 0
8, 25104, Note_on_c, 6, 66, 95
8, 25120, Note_on_c, 6, 66, 0
8, 25120, Note_on_c, 6, 67, 95
8, 25136, Note_on_c, 6, 67, 0
8, 25136, Note_on_c, 6, 69, 95
8, 25152, Note_on_c, 6, 69, 0
8, 25152, Note_on_c, 6, 62, 95
8, 25176, Note_on_c, 6, 62, 0
8, 25200, Note_on_c, 6, 64, 95
8, 25224, Note_on_c, 6, 64, 0
8, 25248, Note_on_c, 6, 57, 95
8, 25272, Note_on_c, 6, 57, 0
8, 25296, Note_on_c, 6, 64, 95
8, 25320, Note_on_c, 6, 64, 0
8, 25344, Note_on_c, 6, 61, 95
8, 25360, Note_on_c, 6, 61, 0
8, 25360, Note_on_c, 6, 62, 95
8, 25376, Note_on_c, 6, 62, 0
8, 25376, Note_on_c, 6, 64, 95
8, 25392, Note_on_c, 6, 64, 0
8, 25392, Note_on_c, 6, 66, 95
8, 25408, Note_on_c, 6, 66, 0
8, 25408, Note_on_c, 6, 67, 95
8, 25424, Note_on_c, 6, 67, 0
8, 25424, Note_on_c, 6, 69, 95
8, 25440, Note_on_c, 6, 69, 0
8, 25440, Note_on_c, 6, 62, 95
8, 25464, Note_on_c, 6, 62, 0
8, 25488, Note_on_c, 6, 69, 95
8, 25512, Note_on_c, 6, 69, 0
8, 25536, Note_on_c, 6, 66, 95
8, 25560, Note_on_c, 6, 66, 0
8, 25584, Note_on_c, 6, 69, 95
8, 25600, Note_on_c, 6, 69, 0
8, 25600, Note_on_c, 6, 67, 95
8, 25616, Note_on_c, 6, 67, 0
8, 25616, Note_on_c, 6, 69, 95
8, 25632, Note_on_c, 6, 69, 0
8, 25632, Note_on_c, 6, 66, 95
8, 25648, Note_on_c, 6, 66, 0
8, 25648, Note_on_c, 6, 64, 95
8, 25664, Note_on_c, 6, 64, 0
8, 25664, Note_on_c, 6, 62, 95
8, 25680, Note_on_c, 6, 62, 0
8, 25680, Note_on_c, 6, 69, 95
8, 25704, Note_on_c, 6, 69, 0
8, 25728, Note_on_c, 6, 69, 95
8, 25752, Note_on_c, 6, 69, 0
8, 25776, Note_on_c, 6, 61, 95
8, 25800, Note_on_c, 6, 61, 0
8, 25824, Note_on_c, 6, 62, 95
8, 25848, Note_on_c, 6, 62, 0
8, 25872, Note_on_c, 6, 64, 95
8, 25896, Note_on_c, 6, 64, 0
8, 25920, Note_on_c, 6, 66, 95
8, 25956, Note_on_c, 6, 66, 0
8, 25956, Note_on_c, 6, 73, 95
8, 25968, Note_on_c, 6, 73, 0
8, 25968, Note_on_c, 6, 69, 95
8, 26004, Note_on_c, 6, 69, 0
8, 26004, Note_on_c, 6, 67, 95
8, 26016, Note_on_c, 6, 67, 0
8, 26016, Note_on_c, 6, 66, 95
8, 26052, Note_on_c, 6, 66, 0
8, 26052, Note_on_c, 6, 67, 95
8, 26064, Note_on_c, 6, 67, 0
8, 26064, Note_on_c, 6, 69, 95
8, 26100, Note_on_c, 6, 69, 0
8, 26100, Note_on_c, 6, 69, 95
8, 26112, Note_on_c, 6, 69, 0
8, 26112, Note_on_c, 6, 69, 95
8, 26136, Note_on_c, 6, 69, 0
8, 26160, Note_on_c, 6, 67, 95
8, 26184, Note_on_c, 6, 67, 0
8, 26208, Note_on_c, 6, 66, 95
8, 26232, Note_on_c, 6, 66, 0
8, 26256, Note_on_c, 6, 62, 85
8, 26280, Note_on_c, 6, 62, 0
8, 26304, Note_on_c, 6, 62, 77
8, 26328, Note_on_c, 6, 62, 0
8, 26352, Note_on_c, 6, 69, 85
8, 26376, Note_on_c, 6, 69, 0
8, 26400, Note_on_c, 6, 66, 68
8, 26424, Note_on_c, 6, 66, 0
8, 26448, Note_on_c, 6, 64, 57
8, 26464, Note_on_c, 6, 64, 0
8, 26464, Note_on_c, 6, 61, 49
8, 26480, Note_on_c, 6, 61, 0
8, 26480, Note_on_c, 6, 57, 59
8, 26496, Note_on_c, 6, 57, 0
8, 26496, Note_on_c, 6, 66, 55
8, 26512, Note_on_c, 6, 66, 0
8, 26512, Note_on_c, 6, 62, 76
8, 26528, Note_on_c, 6, 62, 0
8, 26528, Note_on_c, 6, 57, 70
8, 26544, Note_on_c, 6, 57, 0
8, 26544, Note_on_c, 6, 67, 74
8, 26560, Note_on_c, 6, 67, 0
8, 26560, Note_on_c, 6, 64, 85
8, 26576, Note_on_c, 6, 64, 0
8, 26576, Note_on_c, 6, 57, 68
8, 26592, Note_on_c, 6, 57, 0
8, 26592, Note_on_c, 6, 66, 55
8, 26616, Note_on_c, 6, 66, 0
8, 26640, Note_on_c, 6, 62, 72
8, 26664, Note_on_c, 6, 62, 0
8, 26688, Note_on_c, 6, 66, 46
8, 26712, Note_on_c, 6, 66, 0
8, 26736, Note_on_c, 6, 66, 64
8, 26760, Note_on_c, 6, 66, 0
8, 26784, Note_on_c, 6, 64, 85
8, 26808, Note_on_c, 6, 64, 0
8, 26832, Note_on_c, 6, 66, 66
8, 26868, Note_on_c, 6, 66, 0
8, 26868, Note_on_c, 6, 64, 85
8, 26880, Note_on_c, 6, 64, 0
8, 26880, Note_on_c, 6, 62, 85
8, 26916, Note_on_c, 6, 62, 0
8, 26916, Note_on_c, 6, 67, 85
8, 26928, Note_on_c, 6, 67, 0
8, 26928, Note_on_c, 6, 64, 85
8, 26964, Note_on_c, 6, 64, 0
8, 26964, Note_on_c, 6, 57, 85
8, 26976, Note_on_c, 6, 57, 0
8, 26976, Note_on_c, 6, 57, 85
8, 27000, Note_on_c, 6, 57, 0
8, 27024, Note_on_c, 6, 62, 85
8, 27048, Note_on_c, 6, 62, 0
8, 27072, Note_on_c, 6, 62, 85
8, 27096, Note_on_c, 6, 62, 0
8, 27120, Note_on_c, 6, 66, 85
8, 27144, Note_on_c, 6, 66, 0
8, 27168, Note_on_c, 6, 59, 85
8, 27360, Note_on_c, 6, 59, 0
8, 27360, Note_on_c, 6, 57, 85
8, 27487, Note_on_c, 6, 57, 0
8, 27552, Note_on_c, 6, 64, 85
8, 27744, Note_on_c, 6, 64, 0
8, 27744, Note_on_c, 6, 64, 85
8, 27768, Note_on_c, 6, 64, 0
8, 27792, Note_on_c, 6, 66, 85
8, 27816, Note_on_c, 6, 66, 0
8, 27840, Note_on_c, 6, 66, 85
8, 27864, Note_on_c, 6, 66, 0
8, 27888, Note_on_c, 6, 64, 85
8, 27912, Note_on_c, 6, 64, 0
8, 27936, Note_on_c, 6, 64, 85
8, 27960, Note_on_c, 6, 64, 0
8, 27984, Note_on_c, 6, 62, 85
8, 28008, Note_on_c, 6, 62, 0
8, 28032, Note_on_c, 6, 62, 85
8, 28080, Note_on_c, 6, 62, 0
8, 28164, Note_on_c, 6, 69, 85
8, 28172, Note_on_c, 6, 69, 0
8, 28176, Note_on_c, 6, 66, 65
8, 28200, Note_on_c, 6, 66, 0
8, 28212, Note_on_c, 6, 64, 85
8, 28220, Note_on_c, 6, 64, 0
8, 28224, Note_on_c, 6, 62, 85
8, 28235, Note_on_c, 6, 62, 0
8, 28240, Note_on_c, 6, 61, 66
8, 28251, Note_on_c, 6, 61, 0
8, 28256, Note_on_c, 6, 59, 85
8, 28267, Note_on_c, 6, 59, 0
8, 28272, Note_on_c, 6, 64, 76
8, 28283, Note_on_c, 6, 64, 0
8, 28288, Note_on_c, 6, 66, 68
8, 28299, Note_on_c, 6, 66, 0
8, 28304, Note_on_c, 6, 67, 85
8, 28315, Note_on_c, 6, 67, 0
8, 28320, Note_on_c, 6, 66, 55
8, 28344, Note_on_c, 6, 66, 0
8, 28356, Note_on_c, 6, 69, 85
8, 28364, Note_on_c, 6, 69, 0
8, 28368, Note_on_c, 6, 74, 85
8, 28392, Note_on_c, 6, 74, 0
8, 28404, Note_on_c, 6, 69, 71
8, 28412, Note_on_c, 6, 69, 0
8, 28416, Note_on_c, 6, 71, 74
8, 28427, Note_on_c, 6, 71, 0
8, 28432, Note_on_c, 6, 69, 85
8, 28443, Note_on_c, 6, 69, 0
8, 28448, Note_on_c, 6, 67, 81
8, 28459, Note_on_c, 6, 67, 0
8, 28464, Note_on_c, 6, 66, 53
8, 28475, Note_on_c, 6, 66, 0
8, 28480, Note_on_c, 6, 67, 79
8, 28491, Note_on_c, 6, 67, 0
8, 28496, Note_on_c, 6, 69, 85
8, 28507, Note_on_c, 6, 69, 0
8, 28512, Note_on_c, 6, 62, 85
8, 28528, Note_on_c, 6, 62, 0
8, 28560, Note_on_c, 6, 62, 85
8, 28576, Note_on_c, 6, 62, 0
8, 28608, Note_on_c, 6, 62, 70
8, 28619, Note_on_c, 6, 62, 0
8, 28624, Note_on_c, 6, 60, 72
8, 28635, Note_on_c, 6, 60, 0
8, 28640, Note_on_c, 6, 59, 85
8, 28651, Note_on_c, 6, 59, 0
8, 28656, Note_on_c, 6, 57, 85
8, 28667, Note_on_c, 6, 57, 0
8, 28672, Note_on_c, 6, 59, 85
8, 28683, Note_on_c, 6, 59, 0
8, 28688, Note_on_c, 6, 61, 71
8, 28699, Note_on_c, 6, 61, 0
8, 28704, Note_on_c, 6, 59, 85
8, 28715, Note_on_c, 6, 59, 0
8, 28720, Note_on_c, 6, 62, 71
8, 28731, Note_on_c, 6, 62, 0
8, 28736, Note_on_c, 6, 61, 49
8, 28747, Note_on_c, 6, 61, 0
8, 28752, Note_on_c, 6, 59, 85
8, 28763, Note_on_c, 6, 59, 0
8, 28768, Note_on_c, 6, 62, 85
8, 28779, Note_on_c, 6, 62, 0
8, 28784, Note_on_c, 6, 61, 68
8, 28795, Note_on_c, 6, 61, 0
8, 28800, Note_on_c, 6, 59, 85
8, 28865, Note_on_c, 6, 59, 0
8, 28912, Note_on_c, 6, 56, 64
8, 28923, Note_on_c, 6, 56, 0
8, 28928, Note_on_c, 6, 57, 85
8, 28939, Note_on_c, 6, 57, 0
8, 28944, Note_on_c, 6, 59, 85
8, 28955, Note_on_c, 6, 59, 0
8, 28960, Note_on_c, 6, 56, 64
8, 28971, Note_on_c, 6, 56, 0
8, 28976, Note_on_c, 6, 57, 85
8, 28987, Note_on_c, 6, 57, 0
8, 28992, Note_on_c, 6, 59, 85
8, 29064, Note_on_c, 6, 59, 0
8, 29076, Note_on_c, 6, 68, 85
8, 29088, Note_on_c, 6, 68, 0
8, 29088, Note_on_c, 6, 69, 85
8, 29124, Note_on_c, 6, 69, 0
8, 29124, Note_on_c, 6, 61, 85
8, 29136, Note_on_c, 6, 61, 0
8, 29136, Note_on_c, 6, 69, 85
8, 29160, Note_on_c, 6, 69, 0
8, 29220, Note_on_c, 6, 66, 85
8, 29232, Note_on_c, 6, 66, 0
8, 29232, Note_on_c, 6, 71, 85
8, 29256, Note_on_c, 6, 71, 0
8, 29316, Note_on_c, 6, 69, 85
8, 29328, Note_on_c, 6, 69, 0
8, 29328, Note_on_c, 6, 73, 85
8, 29352, Note_on_c, 6, 73, 0
8, 29424, Note_on_c, 6, 62, 85
8, 29448, Note_on_c, 6, 62, 0
8, 29472, Note_on_c, 6, 62, 85
8, 29496, Note_on_c, 6, 62, 0
8, 29520, Note_on_c, 6, 69, 85
8, 29544, Note_on_c, 6, 69, 0
8, 29568, Note_on_c, 6, 66, 85
8, 29604, Note_on_c, 6, 66, 0
8, 29604, Note_on_c, 6, 67, 85
8, 29616, Note_on_c, 6, 67, 0
8, 29616, Note_on_c, 6, 64, 85
8, 29652, Note_on_c, 6, 64, 0
8, 29652, Note_on_c, 6, 66, 85
8, 29664, Note_on_c, 6, 66, 0
8, 29664, Note_on_c, 6, 66, 85
8, 29760, Note_on_c, 6, 66, 0
8, 29760, End_track
9, 0, Start_track
9, 0, Title_t, "cello"
9, 0, Control_c, 7, 7, 96
9, 0, Pitch_bend_c, 7, 8192
9, 0, Control_c, 7, 1, 0
9, 0, Program_c, 7, 54
9, 0, Control_c, 7, 64, 0
9, 0, Control_c, 7, 10, 64
9, 2736, Note_on_c, 7, 42, 95
9, 2752, Note_on_c, 7, 42, 0
9, 2784, Note_on_c, 7, 43, 95
9, 2800, Note_on_c, 7, 43, 0
9, 2832, Note_on_c, 7, 45, 95
9, 2848, Note_on_c, 7, 45, 0
9, 2880, Note_on_c, 7, 47, 95
9, 2896, Note_on_c, 7, 47, 0
9, 2928, Note_on_c, 7, 49, 95
9, 2944, Note_on_c, 7, 49, 0
9, 2976, Note_on_c, 7, 50, 95
9, 2992, Note_on_c, 7, 50, 0
9, 3024, Note_on_c, 7, 52, 95
9, 3040, Note_on_c, 7, 52, 0
9, 3072, Note_on_c, 7, 54, 95
9, 3088, Note_on_c, 7, 54, 0
9, 3120, Note_on_c, 7, 54, 95
9, 3136, Note_on_c, 7, 54, 0
9, 3168, Note_on_c, 7, 55, 95
9, 3184, Note_on_c, 7, 55, 0
9, 3216, Note_on_c, 7, 57, 95
9, 3232, Note_on_c, 7, 57, 0
9, 3264, Note_on_c, 7, 59, 95
9, 3280, Note_on_c, 7, 59, 0
9, 3312, Note_on_c, 7, 57, 95
9, 3328, Note_on_c, 7, 57, 0
9, 3360, Note_on_c, 7, 59, 95
9, 3376, Note_on_c, 7, 59, 0
9, 3408, Note_on_c, 7, 61, 95
9, 3424, Note_on_c, 7, 61, 0
9, 3456, Note_on_c, 7, 62, 95
9, 3472, Note_on_c, 7, 62, 0
9, 3684, Note_on_c, 7, 57, 95
9, 3692, Note_on_c, 7, 57, 0
9, 3696, Note_on_c, 7, 62, 95
9, 3720, Note_on_c, 7, 62, 0
9, 3732, Note_on_c, 7, 57, 95
9, 3740, Note_on_c, 7, 57, 0
9, 3744, Note_on_c, 7, 59, 95
9, 3755, Note_on_c, 7, 59, 0
9, 3760, Note_on_c, 7, 57, 95
9, 3771, Note_on_c, 7, 57, 0
9, 3776, Note_on_c, 7, 55, 95
9, 3787, Note_on_c, 7, 55, 0
9, 3792, Note_on_c, 7, 54, 95
9, 3803, Note_on_c, 7, 54, 0
9, 3808, Note_on_c, 7, 55, 95
9, 3819, Note_on_c, 7, 55, 0
9, 3824, Note_on_c, 7, 57, 95
9, 3835, Note_on_c, 7, 57, 0
9, 3840, Note_on_c, 7, 50, 95
9, 3856, Note_on_c, 7, 50, 0
9, 3888, Note_on_c, 7, 52, 95
9, 3904, Note_on_c, 7, 52, 0
9, 3936, Note_on_c, 7, 54, 95
9, 3952, Note_on_c, 7, 54, 0
9, 3984, Note_on_c, 7, 42, 85
9, 4000, Note_on_c, 7, 42, 0
9, 4032, Note_on_c, 7, 43, 85
9, 4064, Note_on_c, 7, 43, 0
9, 4080, Note_on_c, 7, 45, 85
9, 4112, Note_on_c, 7, 45, 0
9, 4128, Note_on_c, 7, 47, 85
9, 4160, Note_on_c, 7, 47, 0
9, 4176, Note_on_c, 7, 49, 67
9, 4208, Note_on_c, 7, 49, 0
9, 4224, Note_on_c, 7, 50, 85
9, 4256, Note_on_c, 7, 50, 0
9, 4272, Note_on_c, 7, 52, 85
9, 4304, Note_on_c, 7, 52, 0
9, 4320, Note_on_c, 7, 54, 74
9, 4352, Note_on_c, 7, 54, 0
9, 4368, Note_on_c, 7, 55, 85
9, 4400, Note_on_c, 7, 55, 0
9, 4416, Note_on_c, 7, 57, 85
9, 4448, Note_on_c, 7, 57, 0
9, 4464, Note_on_c, 7, 59, 85
9, 4496, Note_on_c, 7, 59, 0
9, 4512, Note_on_c, 7, 61, 66
9, 4536, Note_on_c, 7, 61, 0
9, 4548, Note_on_c, 7, 57, 85
9, 4556, Note_on_c, 7, 57, 0
9, 4560, Note_on_c, 7, 62, 85
9, 4584, Note_on_c, 7, 62, 0
9, 4596, Note_on_c, 7, 57, 85
9, 4604, Note_on_c, 7, 57, 0
9, 4608, Note_on_c, 7, 59, 69
9, 4621, Note_on_c, 7, 59, 0
9, 4624, Note_on_c, 7, 57, 81
9, 4637, Note_on_c, 7, 57, 0
9, 4640, Note_on_c, 7, 55, 77
9, 4653, Note_on_c, 7, 55, 0
9, 4656, Note_on_c, 7, 54, 62
9, 4669, Note_on_c, 7, 54, 0
9, 4672, Note_on_c, 7, 55, 85
9, 4685, Note_on_c, 7, 55, 0
9, 4688, Note_on_c, 7, 57, 85
9, 4701, Note_on_c, 7, 57, 0
9, 4704, Note_on_c, 7, 50, 85
9, 4717, Note_on_c, 7, 50, 0
9, 4720, Note_on_c, 7, 54, 68
9, 4733, Note_on_c, 7, 54, 0
9, 4736, Note_on_c, 7, 52, 85
9, 4749, Note_on_c, 7, 52, 0
9, 4752, Note_on_c, 7, 50, 85
9, 4765, Note_on_c, 7, 50, 0
9, 4768, Note_on_c, 7, 52, 85
9, 4781, Note_on_c, 7, 52, 0
9, 4784, Note_on_c, 7, 54, 85
9, 4797, Note_on_c, 7, 54, 0
9, 4800, Note_on_c, 7, 55, 77
9, 4819, Note_on_c, 7, 55, 0
9, 4848, Note_on_c, 7, 57, 85
9, 4867, Note_on_c, 7, 57, 0
9, 4896, Note_on_c, 7, 59, 85
9, 4915, Note_on_c, 7, 59, 0
9, 4944, Note_on_c, 7, 47, 74
9, 4963, Note_on_c, 7, 47, 0
9, 5040, Note_on_c, 7, 59, 74
9, 5059, Note_on_c, 7, 59, 0
9, 5088, Note_on_c, 7, 54, 69
9, 5107, Note_on_c, 7, 54, 0
9, 5136, Note_on_c, 7, 42, 74
9, 5155, Note_on_c, 7, 42, 0
9, 5232, Note_on_c, 7, 54, 66
9, 5251, Note_on_c, 7, 54, 0
9, 5280, Note_on_c, 7, 56, 67
9, 5299, Note_on_c, 7, 56, 0
9, 5328, Note_on_c, 7, 44, 60
9, 5347, Note_on_c, 7, 44, 0
9, 5424, Note_on_c, 7, 56, 49
9, 5443, Note_on_c, 7, 56, 0
9, 5472, Note_on_c, 7, 57, 74
9, 5491, Note_on_c, 7, 57, 0
9, 5520, Note_on_c, 7, 54, 74
9, 5536, Note_on_c, 7, 54, 0
9, 5568, Note_on_c, 7, 47, 85
9, 5584, Note_on_c, 7, 47, 0
9, 5616, Note_on_c, 7, 52, 78
9, 5632, Note_on_c, 7, 52, 0
9, 5664, Note_on_c, 7, 45, 85
9, 5680, Note_on_c, 7, 45, 0
9, 5712, Note_on_c, 7, 50, 85
9, 5728, Note_on_c, 7, 50, 0
9, 5760, Note_on_c, 7, 43, 85
9, 5793, Note_on_c, 7, 43, 0
9, 5892, Note_on_c, 7, 45, 85
9, 5900, Note_on_c, 7, 45, 0
9, 5904, Note_on_c, 7, 50, 56
9, 5928, Note_on_c, 7, 50, 0
9, 5940, Note_on_c, 7, 45, 85
9, 5948, Note_on_c, 7, 45, 0
9, 5952, Note_on_c, 7, 47, 60
9, 5963, Note_on_c, 7, 47, 0
9, 5968, Note_on_c, 7, 45, 85
9, 5979, Note_on_c, 7, 45, 0
9, 5984, Note_on_c, 7, 43, 85
9, 5995, Note_on_c, 7, 43, 0
9, 6000, Note_on_c, 7, 45, 85
9, 6024, Note_on_c, 7, 45, 0
9, 6036, Note_on_c, 7, 45, 85
9, 6044, Note_on_c, 7, 45, 0
9, 6048, Note_on_c, 7, 38, 85
9, 6064, Note_on_c, 7, 38, 0
9, 6096, Note_on_c, 7, 42, 65
9, 6112, Note_on_c, 7, 42, 0
9, 6144, Note_on_c, 7, 43, 55
9, 6160, Note_on_c, 7, 43, 0
9, 6192, Note_on_c, 7, 48, 85
9, 6208, Note_on_c, 7, 48, 0
9, 6240, Note_on_c, 7, 47, 85
9, 6264, Note_on_c, 7, 47, 0
9, 6276, Note_on_c, 7, 55, 91
9, 6284, Note_on_c, 7, 55, 0
9, 6288, Note_on_c, 7, 62, 98
9, 6312, Note_on_c, 7, 62, 0
9, 6324, Note_on_c, 7, 57, 85
9, 6332, Note_on_c, 7, 57, 0
9, 6336, Note_on_c, 7, 59, 85
9, 6347, Note_on_c, 7, 59, 0
9, 6352, Note_on_c, 7, 57, 85
9, 6363, Note_on_c, 7, 57, 0
9, 6368, Note_on_c, 7, 55, 85
9, 6379, Note_on_c, 7, 55, 0
9, 6384, Note_on_c, 7, 54, 72
9, 6395, Note_on_c, 7, 54, 0
9, 6400, Note_on_c, 7, 56, 72
9, 6411, Note_on_c, 7, 56, 0
9, 6416, Note_on_c, 7, 57, 85
9, 6427, Note_on_c, 7, 57, 0
9, 6432, Note_on_c, 7, 56, 67
9, 6448, Note_on_c, 7, 56, 0
9, 6480, Note_on_c, 7, 44, 64
9, 6496, Note_on_c, 7, 44, 0
9, 6576, Note_on_c, 7, 56, 60
9, 6592, Note_on_c, 7, 56, 0
9, 6624, Note_on_c, 7, 56, 56
9, 6640, Note_on_c, 7, 56, 0
9, 6672, Note_on_c, 7, 44, 74
9, 6688, Note_on_c, 7, 44, 0
9, 6768, Note_on_c, 7, 56, 62
9, 6784, Note_on_c, 7, 56, 0
9, 6816, Note_on_c, 7, 57, 85
9, 6832, Note_on_c, 7, 57, 0
9, 6900, Note_on_c, 7, 54, 85
9, 6908, Note_on_c, 7, 54, 0
9, 6912, Note_on_c, 7, 59, 85
9, 6928, Note_on_c, 7, 59, 0
9, 6996, Note_on_c, 7, 55, 85
9, 7004, Note_on_c, 7, 55, 0
9, 7008, Note_on_c, 7, 61, 82
9, 7024, Note_on_c, 7, 61, 0
9, 7092, Note_on_c, 7, 59, 85
9, 7100, Note_on_c, 7, 59, 0
9, 7104, Note_on_c, 7, 62, 85
9, 7120, Note_on_c, 7, 62, 0
9, 7152, Note_on_c, 7, 54, 97
9, 7168, Note_on_c, 7, 54, 0
9, 7200, Note_on_c, 7, 55, 89
9, 7216, Note_on_c, 7, 55, 0
9, 7248, Note_on_c, 7, 57, 85
9, 7264, Note_on_c, 7, 57, 0
9, 7296, Note_on_c, 7, 59, 62
9, 7307, Note_on_c, 7, 59, 0
9, 7312, Note_on_c, 7, 57, 85
9, 7323, Note_on_c, 7, 57, 0
9, 7328, Note_on_c, 7, 55, 85
9, 7339, Note_on_c, 7, 55, 0
9, 7344, Note_on_c, 7, 57, 85
9, 7368, Note_on_c, 7, 57, 0
9, 7380, Note_on_c, 7, 45, 85
9, 7388, Note_on_c, 7, 45, 0
9, 7392, Note_on_c, 7, 50, 85
9, 7403, Note_on_c, 7, 50, 0
9, 7408, Note_on_c, 7, 54, 68
9, 7419, Note_on_c, 7, 54, 0
9, 7424, Note_on_c, 7, 52, 85
9, 7435, Note_on_c, 7, 52, 0
9, 7440, Note_on_c, 7, 50, 85
9, 7451, Note_on_c, 7, 50, 0
9, 7456, Note_on_c, 7, 52, 85
9, 7467, Note_on_c, 7, 52, 0
9, 7472, Note_on_c, 7, 54, 70
9, 7483, Note_on_c, 7, 54, 0
9, 7488, Note_on_c, 7, 47, 91
9, 7504, Note_on_c, 7, 47, 0
9, 7584, Note_on_c, 7, 47, 85
9, 7600, Note_on_c, 7, 47, 0
9, 7680, Note_on_c, 7, 47, 88
9, 7696, Note_on_c, 7, 47, 0
9, 7776, Note_on_c, 7, 47, 85
9, 7792, Note_on_c, 7, 47, 0
9, 7872, Note_on_c, 7, 47, 98
9, 7888, Note_on_c, 7, 47, 0
9, 7968, Note_on_c, 7, 47, 106
9, 7984, Note_on_c, 7, 47, 0
9, 8064, Note_on_c, 7, 47, 101
9, 8080, Note_on_c, 7, 47, 0
9, 8196, Note_on_c, 7, 54, 84
9, 8208, Note_on_c, 7, 54, 0
9, 8208, Note_on_c, 7, 59, 85
9, 8219, Note_on_c, 7, 59, 0
9, 8224, Note_on_c, 7, 62, 85
9, 8235, Note_on_c, 7, 62, 0
9, 8240, Note_on_c, 7, 61, 67
9, 8251, Note_on_c, 7, 61, 0
9, 8256, Note_on_c, 7, 62, 85
9, 8267, Note_on_c, 7, 62, 0
9, 8272, Note_on_c, 7, 61, 70
9, 8283, Note_on_c, 7, 61, 0
9, 8288, Note_on_c, 7, 59, 85
9, 8299, Note_on_c, 7, 59, 0
9, 8304, Note_on_c, 7, 58, 72
9, 8315, Note_on_c, 7, 58, 0
9, 8320, Note_on_c, 7, 59, 85
9, 8331, Note_on_c, 7, 59, 0
9, 8336, Note_on_c, 7, 61, 72
9, 8347, Note_on_c, 7, 61, 0
9, 8352, Note_on_c, 7, 54, 67
9, 8384, Note_on_c, 7, 54, 0
9, 8416, Note_on_c, 7, 55, 85
9, 8427, Note_on_c, 7, 55, 0
9, 8432, Note_on_c, 7, 52, 85
9, 8443, Note_on_c, 7, 52, 0
9, 8448, Note_on_c, 7, 50, 85
9, 8459, Note_on_c, 7, 50, 0
9, 8464, Note_on_c, 7, 49, 64
9, 8475, Note_on_c, 7, 49, 0
9, 8480, Note_on_c, 7, 47, 85
9, 8491, Note_on_c, 7, 47, 0
9, 8544, Note_on_c, 7, 47, 103
9, 8560, Note_on_c, 7, 47, 0
9, 8640, Note_on_c, 7, 47, 103
9, 8656, Note_on_c, 7, 47, 0
9, 8736, Note_on_c, 7, 47, 103
9, 8752, Note_on_c, 7, 47, 0
9, 8832, Note_on_c, 7, 47, 103
9, 8848, Note_on_c, 7, 47, 0
9, 8928, Note_on_c, 7, 47, 103
9, 8944, Note_on_c, 7, 47, 0
9, 9024, Note_on_c, 7, 47, 103
9, 9040, Note_on_c, 7, 47, 0
9, 9156, Note_on_c, 7, 54, 86
9, 9164, Note_on_c, 7, 54, 0
9, 9168, Note_on_c, 7, 59, 85
9, 9179, Note_on_c, 7, 59, 0
9, 9184, Note_on_c, 7, 57, 85
9, 9195, Note_on_c, 7, 57, 0
9, 9200, Note_on_c, 7, 56, 74
9, 9211, Note_on_c, 7, 56, 0
9, 9216, Note_on_c, 7, 57, 85
9, 9227, Note_on_c, 7, 57, 0
9, 9232, Note_on_c, 7, 56, 70
9, 9243, Note_on_c, 7, 56, 0
9, 9248, Note_on_c, 7, 54, 68
9, 9259, Note_on_c, 7, 54, 0
9, 9264, Note_on_c, 7, 53, 85
9, 9275, Note_on_c, 7, 53, 0
9, 9280, Note_on_c, 7, 54, 68
9, 9291, Note_on_c, 7, 54, 0
9, 9296, Note_on_c, 7, 56, 70
9, 9307, Note_on_c, 7, 56, 0
9, 9312, Note_on_c, 7, 49, 70
9, 9360, Note_on_c, 7, 49, 0
9, 9376, Note_on_c, 7, 50, 85
9, 9387, Note_on_c, 7, 50, 0
9, 9392, Note_on_c, 7, 47, 85
9, 9403, Note_on_c, 7, 47, 0
9, 9408, Note_on_c, 7, 45, 56
9, 9419, Note_on_c, 7, 45, 0
9, 9424, Note_on_c, 7, 44, 74
9, 9435, Note_on_c, 7, 44, 0
9, 9440, Note_on_c, 7, 42, 76
9, 9451, Note_on_c, 7, 42, 0
9, 9504, Note_on_c, 7, 42, 88
9, 9520, Note_on_c, 7, 42, 0
9, 9600, Note_on_c, 7, 42, 88
9, 9616, Note_on_c, 7, 42, 0
9, 9696, Note_on_c, 7, 42, 88
9, 9712, Note_on_c, 7, 42, 0
9, 9792, Note_on_c, 7, 42, 88
9, 9808, Note_on_c, 7, 42, 0
9, 9888, Note_on_c, 7, 42, 88
9, 9904, Note_on_c, 7, 42, 0
9, 9984, Note_on_c, 7, 42, 88
9, 10000, Note_on_c, 7, 42, 0
9, 10080, Note_on_c, 7, 42, 88
9, 10096, Note_on_c, 7, 42, 0
9, 12240, Note_on_c, 7, 45, 85
9, 12256, Note_on_c, 7, 45, 0
9, 12288, Note_on_c, 7, 47, 85
9, 12304, Note_on_c, 7, 47, 0
9, 12336, Note_on_c, 7, 49, 67
9, 12352, Note_on_c, 7, 49, 0
9, 12384, Note_on_c, 7, 50, 85
9, 12400, Note_on_c, 7, 50, 0
9, 12432, Note_on_c, 7, 51, 72
9, 12448, Note_on_c, 7, 51, 0
9, 12480, Note_on_c, 7, 52, 85
9, 12496, Note_on_c, 7, 52, 0
9, 12528, Note_on_c, 7, 54, 74
9, 12544, Note_on_c, 7, 54, 0
9, 12576, Note_on_c, 7, 55, 85
9, 12592, Note_on_c, 7, 55, 0
9, 12624, Note_on_c, 7, 56, 93
9, 12640, Note_on_c, 7, 56, 0
9, 12672, Note_on_c, 7, 57, 85
9, 12688, Note_on_c, 7, 57, 0
9, 12720, Note_on_c, 7, 59, 85
9, 12736, Note_on_c, 7, 59, 0
9, 12768, Note_on_c, 7, 61, 74
9, 12784, Note_on_c, 7, 61, 0
9, 12816, Note_on_c, 7, 49, 68
9, 12832, Note_on_c, 7, 49, 0
9, 12864, Note_on_c, 7, 50, 85
9, 12880, Note_on_c, 7, 50, 0
9, 12912, Note_on_c, 7, 52, 76
9, 12928, Note_on_c, 7, 52, 0
9, 12960, Note_on_c, 7, 54, 76
9, 12976, Note_on_c, 7, 54, 0
9, 13008, Note_on_c, 7, 42, 76
9, 13024, Note_on_c, 7, 42, 0
9, 13056, Note_on_c, 7, 44, 76
9, 13072, Note_on_c, 7, 44, 0
9, 13104, Note_on_c, 7, 56, 76
9, 13120, Note_on_c, 7, 56, 0
9, 13152, Note_on_c, 7, 57, 76
9, 13168, Note_on_c, 7, 57, 0
9, 13200, Note_on_c, 7, 45, 76
9, 13216, Note_on_c, 7, 45, 0
9, 13248, Note_on_c, 7, 47, 76
9, 13264, Note_on_c, 7, 47, 0
9, 13296, Note_on_c, 7, 59, 76
9, 13312, Note_on_c, 7, 59, 0
9, 13344, Note_on_c, 7, 61, 76
9, 13360, Note_on_c, 7, 61, 0
9, 13392, Note_on_c, 7, 49, 76
9, 13408, Note_on_c, 7, 49, 0
9, 13440, Note_on_c, 7, 50, 76
9, 13456, Note_on_c, 7, 50, 0
9, 13488, Note_on_c, 7, 62, 76
9, 13504, Note_on_c, 7, 62, 0
9, 13536, Note_on_c, 7, 62, 76
9, 13552, Note_on_c, 7, 62, 0
9, 13584, Note_on_c, 7, 61, 76
9, 13600, Note_on_c, 7, 61, 0
9, 13632, Note_on_c, 7, 62, 76
9, 13648, Note_on_c, 7, 62, 0
9, 13680, Note_on_c, 7, 64, 76
9, 13696, Note_on_c, 7, 64, 0
9, 13728, Note_on_c, 7, 66, 62
9, 13739, Note_on_c, 7, 66, 0
9, 13744, Note_on_c, 7, 64, 85
9, 13755, Note_on_c, 7, 64, 0
9, 13760, Note_on_c, 7, 62, 85
9, 13771, Note_on_c, 7, 62, 0
9, 13776, Note_on_c, 7, 61, 64
9, 13787, Note_on_c, 7, 61, 0
9, 13792, Note_on_c, 7, 63, 72
9, 13803, Note_on_c, 7, 63, 0
9, 13808, Note_on_c, 7, 64, 85
9, 13819, Note_on_c, 7, 64, 0
9, 13824, Note_on_c, 7, 63, 72
9, 13857, Note_on_c, 7, 63, 0
9, 13896, Note_on_c, 7, 59, 85
9, 13912, Note_on_c, 7, 59, 0
9, 13920, Note_on_c, 7, 64, 74
9, 13944, Note_on_c, 7, 64, 0
9, 13956, Note_on_c, 7, 62, 85
9, 13964, Note_on_c, 7, 62, 0
9, 13968, Note_on_c, 7, 61, 70
9, 13992, Note_on_c, 7, 61, 0
9, 14004, Note_on_c, 7, 54, 62
9, 14012, Note_on_c, 7, 54, 0
9, 14016, Note_on_c, 7, 52, 81
9, 14040, Note_on_c, 7, 52, 0
9, 14052, Note_on_c, 7, 50, 85
9, 14060, Note_on_c, 7, 50, 0
9, 14064, Note_on_c, 7, 52, 78
9, 14088, Note_on_c, 7, 52, 0
9, 14100, Note_on_c, 7, 40, 85
9, 14108, Note_on_c, 7, 40, 0
9, 14112, Note_on_c, 7, 45, 85
9, 14128, Note_on_c, 7, 45, 0
9, 14160, Note_on_c, 7, 57, 85
9, 14176, Note_on_c, 7, 57, 0
9, 14208, Note_on_c, 7, 45, 85
9, 14224, Note_on_c, 7, 45, 0
9, 14256, Note_on_c, 7, 57, 85
9, 14272, Note_on_c, 7, 57, 0
9, 14304, Note_on_c, 7, 45, 85
9, 14320, Note_on_c, 7, 45, 0
9, 14352, Note_on_c, 7, 57, 76
9, 14368, Note_on_c, 7, 57, 0
9, 14400, Note_on_c, 7, 45, 82
9, 14416, Note_on_c, 7, 45, 0
9, 14436, Note_on_c, 7, 57, 85
9, 14452, Note_on_c, 7, 57, 0
9, 14496, Note_on_c, 7, 45, 36
9, 14520, Note_on_c, 7, 45, 0
9, 14544, Note_on_c, 7, 57, 43
9, 14568, Note_on_c, 7, 57, 0
9, 14592, Note_on_c, 7, 45, 66
9, 14616, Note_on_c, 7, 45, 0
9, 14640, Note_on_c, 7, 57, 37
9, 14664, Note_on_c, 7, 57, 0
9, 14688, Note_on_c, 7, 45, 85
9, 14712, Note_on_c, 7, 45, 0
9, 14736, Note_on_c, 7, 57, 46
9, 14760, Note_on_c, 7, 57, 0
9, 14784, Note_on_c, 7, 45, 85
9, 14808, Note_on_c, 7, 45, 0
9, 17040, Note_on_c, 7, 47, 85
9, 17088, Note_on_c, 7, 47, 0
9, 17088, Note_on_c, 7, 40, 65
9, 17136, Note_on_c, 7, 40, 0
9, 17232, Note_on_c, 7, 45, 65
9, 17280, Note_on_c, 7, 45, 0
9, 17280, Note_on_c, 7, 38, 65
9, 17328, Note_on_c, 7, 38, 0
9, 18408, Note_on_c, 7, 45, 85
9, 18432, Note_on_c, 7, 45, 0
9, 18432, Note_on_c, 7, 50, 59
9, 18456, Note_on_c, 7, 50, 0
9, 18528, Note_on_c, 7, 49, 74
9, 18552, Note_on_c, 7, 49, 0
9, 18624, Note_on_c, 7, 47, 85
9, 18648, Note_on_c, 7, 47, 0
9, 18720, Note_on_c, 7, 45, 85
9, 18744, Note_on_c, 7, 45, 0
9, 18816, Note_on_c, 7, 44, 66
9, 18840, Note_on_c, 7, 44, 0
9, 18864, Note_on_c, 7, 42, 64
9, 18888, Note_on_c, 7, 42, 0
9, 18912, Note_on_c, 7, 49, 62
9, 18936, Note_on_c, 7, 49, 0
9, 19008, Note_on_c, 7, 61, 67
9, 19032, Note_on_c, 7, 61, 0
9, 19104, Note_on_c, 7, 49, 53
9, 19128, Note_on_c, 7, 49, 0
9, 19200, Note_on_c, 7, 61, 46
9, 19224, Note_on_c, 7, 61, 0
9, 19296, Note_on_c, 7, 49, 64
9, 19320, Note_on_c, 7, 49, 0
9, 19392, Note_on_c, 7, 61, 68
9, 19416, Note_on_c, 7, 61, 0
9, 19440, Note_on_c, 7, 49, 61
9, 19464, Note_on_c, 7, 49, 0
9, 19488, Note_on_c, 7, 54, 66
9, 19512, Note_on_c, 7, 54, 0
9, 19584, Note_on_c, 7, 54, 57
9, 19608, Note_on_c, 7, 54, 0
9, 19632, Note_on_c, 7, 42, 62
9, 19656, Note_on_c, 7, 42, 0
9, 19680, Note_on_c, 7, 43, 85
9, 19704, Note_on_c, 7, 43, 0
9, 19776, Note_on_c, 7, 45, 85
9, 19800, Note_on_c, 7, 45, 0
9, 19824, Note_on_c, 7, 47, 85
9, 19848, Note_on_c, 7, 47, 0
9, 19872, Note_on_c, 7, 40, 64
9, 19896, Note_on_c, 7, 40, 0
9, 19968, Note_on_c, 7, 45, 85
9, 19992, Note_on_c, 7, 45, 0
9, 20016, Note_on_c, 7, 50, 85
9, 20040, Note_on_c, 7, 50, 0
9, 20064, Note_on_c, 7, 47, 85
9, 20088, Note_on_c, 7, 47, 0
9, 20112, Note_on_c, 7, 43, 85
9, 20136, Note_on_c, 7, 43, 0
9, 20160, Note_on_c, 7, 40, 79
9, 20184, Note_on_c, 7, 40, 0
9, 20208, Note_on_c, 7, 45, 85
9, 20232, Note_on_c, 7, 45, 0
9, 20256, Note_on_c, 7, 38, 49
9, 20280, Note_on_c, 7, 38, 0
9, 20304, Note_on_c, 7, 43, 85
9, 20328, Note_on_c, 7, 43, 0
9, 20352, Note_on_c, 7, 50, 85
9, 20376, Note_on_c, 7, 50, 0
9, 20400, Note_on_c, 7, 48, 85
9, 20424, Note_on_c, 7, 48, 0
9, 20448, Note_on_c, 7, 47, 85
9, 20580, Note_on_c, 7, 54, 62
9, 20592, Note_on_c, 7, 47, 0
9, 20592, Note_on_c, 7, 54, 0
9, 20592, Note_on_c, 7, 59, 85
9, 20628, Note_on_c, 7, 59, 0
9, 20628, Note_on_c, 7, 54, 52
9, 20640, Note_on_c, 7, 54, 0
9, 20640, Note_on_c, 7, 55, 79
9, 20676, Note_on_c, 7, 55, 0
9, 20676, Note_on_c, 7, 54, 53
9, 20688, Note_on_c, 7, 54, 0
9, 20688, Note_on_c, 7, 55, 85
9, 20724, Note_on_c, 7, 55, 0
9, 20724, Note_on_c, 7, 52, 85
9, 20736, Note_on_c, 7, 52, 0
9, 20736, Note_on_c, 7, 54, 85
9, 20928, Note_on_c, 7, 54, 0
9, 20928, Note_on_c, 7, 54, 85
9, 21120, Note_on_c, 7, 54, 0
9, 21120, Note_on_c, 7, 54, 85
9, 21252, Note_on_c, 7, 47, 85
9, 21264, Note_on_c, 7, 47, 0
9, 21264, Note_on_c, 7, 54, 0
9, 21264, Note_on_c, 7, 54, 49
9, 21300, Note_on_c, 7, 54, 0
9, 21300, Note_on_c, 7, 49, 70
9, 21312, Note_on_c, 7, 49, 0
9, 21312, Note_on_c, 7, 50, 72
9, 21328, Note_on_c, 7, 50, 0
9, 21328, Note_on_c, 7, 49, 60
9, 21344, Note_on_c, 7, 49, 0
9, 21344, Note_on_c, 7, 47, 85
9, 21360, Note_on_c, 7, 47, 0
9, 21360, Note_on_c, 7, 46, 70
9, 21376, Note_on_c, 7, 46, 0
9, 21376, Note_on_c, 7, 47, 85
9, 21392, Note_on_c, 7, 47, 0
9, 21392, Note_on_c, 7, 49, 66
9, 21408, Note_on_c, 7, 49, 0
9, 21408, Note_on_c, 7, 42, 43
9, 21472, Note_on_c, 7, 54, 62
9, 21480, Note_on_c, 7, 42, 0
9, 21488, Note_on_c, 7, 54, 0
9, 21488, Note_on_c, 7, 52, 85
9, 21504, Note_on_c, 7, 52, 0
9, 21504, Note_on_c, 7, 50, 85
9, 21528, Note_on_c, 7, 50, 0
9, 22020, Note_on_c, 7, 55, 85
9, 22032, Note_on_c, 7, 55, 0
9, 22032, Note_on_c, 7, 50, 85
9, 22068, Note_on_c, 7, 50, 0
9, 22068, Note_on_c, 7, 52, 85
9, 22080, Note_on_c, 7, 52, 0
9, 22080, Note_on_c, 7, 54, 65
9, 22116, Note_on_c, 7, 54, 0
9, 22116, Note_on_c, 7, 52, 85
9, 22128, Note_on_c, 7, 52, 0
9, 22128, Note_on_c, 7, 54, 67
9, 22164, Note_on_c, 7, 54, 0
9, 22164, Note_on_c, 7, 42, 67
9, 22176, Note_on_c, 7, 42, 0
9, 22176, Note_on_c, 7, 47, 85
9, 22224, Note_on_c, 7, 47, 0
9, 22272, Control_c, 7, 7, 96
9, 22272, Pitch_bend_c, 7, 8192
9, 22272, Control_c, 7, 1, 0
9, 22272, Program_c, 7, 55
9, 22272, Control_c, 7, 64, 0
9, 22272, Control_c, 7, 10, 64
9, 22272, Note_on_c, 7, 50, 98
9, 22320, Note_on_c, 7, 50, 0
9, 25008, Note_on_c, 7, 42, 95
9, 25024, Note_on_c, 7, 42, 0
9, 25056, Note_on_c, 7, 43, 95
9, 25072, Note_on_c, 7, 43, 0
9, 25104, Note_on_c, 7, 45, 95
9, 25120, Note_on_c, 7, 45, 0
9, 25152, Note_on_c, 7, 47, 95
9, 25168, Note_on_c, 7, 47, 0
9, 25200, Note_on_c, 7, 49, 95
9, 25216, Note_on_c, 7, 49, 0
9, 25248, Note_on_c, 7, 50, 95
9, 25264, Note_on_c, 7, 50, 0
9, 25296, Note_on_c, 7, 52, 95
9, 25312, Note_on_c, 7, 52, 0
9, 25344, Note_on_c, 7, 54, 95
9, 25360, Note_on_c, 7, 54, 0
9, 25392, Note_on_c, 7, 54, 95
9, 25408, Note_on_c, 7, 54, 0
9, 25440, Note_on_c, 7, 55, 95
9, 25456, Note_on_c, 7, 55, 0
9, 25488, Note_on_c, 7, 57, 95
9, 25504, Note_on_c, 7, 57, 0
9, 25536, Note_on_c, 7, 59, 95
9, 25552, Note_on_c, 7, 59, 0
9, 25584, Note_on_c, 7, 57, 95
9, 25600, Note_on_c, 7, 57, 0
9, 25632, Note_on_c, 7, 59, 95
9, 25648, Note_on_c, 7, 59, 0
9, 25680, Note_on_c, 7, 61, 95
9, 25696, Note_on_c, 7, 61, 0
9, 25728, Note_on_c, 7, 62, 95
9, 25744, Note_on_c, 7, 62, 0
9, 25956, Note_on_c, 7, 57, 95
9, 25964, Note_on_c, 7, 57, 0
9, 25968, Note_on_c, 7, 62, 95
9, 25992, Note_on_c, 7, 62, 0
9, 26004, Note_on_c, 7, 57, 95
9, 26012, Note_on_c, 7, 57, 0
9, 26016, Note_on_c, 7, 59, 95
9, 26027, Note_on_c, 7, 59, 0
9, 26032, Note_on_c, 7, 57, 95
9, 26043, Note_on_c, 7, 57, 0
9, 26048, Note_on_c, 7, 55, 95
9, 26059, Note_on_c, 7, 55, 0
9, 26064, Note_on_c, 7, 54, 95
9, 26075, Note_on_c, 7, 54, 0
9, 26080, Note_on_c, 7, 55, 95
9, 26091, Note_on_c, 7, 55, 0
9, 26096, Note_on_c, 7, 57, 95
9, 26107, Note_on_c, 7, 57, 0
9, 26112, Note_on_c, 7, 50, 95
9, 26128, Note_on_c, 7, 50, 0
9, 26160, Note_on_c, 7, 52, 95
9, 26176, Note_on_c, 7, 52, 0
9, 26208, Note_on_c, 7, 54, 95
9, 26224, Note_on_c, 7, 54, 0
9, 26256, Note_on_c, 7, 42, 85
9, 26272, Note_on_c, 7, 42, 0
9, 26304, Note_on_c, 7, 43, 85
9, 26336, Note_on_c, 7, 43, 0
9, 26352, Note_on_c, 7, 45, 85
9, 26384, Note_on_c, 7, 45, 0
9, 26400, Note_on_c, 7, 47, 85
9, 26432, Note_on_c, 7, 47, 0
9, 26448, Note_on_c, 7, 49, 67
9, 26480, Note_on_c, 7, 49, 0
9, 26496, Note_on_c, 7, 50, 85
9, 26528, Note_on_c, 7, 50, 0
9, 26544, Note_on_c, 7, 52, 85
9, 26576, Note_on_c, 7, 52, 0
9, 26592, Note_on_c, 7, 54, 74
9, 26624, Note_on_c, 7, 54, 0
9, 26640, Note_on_c, 7, 55, 85
9, 26672, Note_on_c, 7, 55, 0
9, 26688, Note_on_c, 7, 57, 85
9, 26720, Note_on_c, 7, 57, 0
9, 26736, Note_on_c, 7, 59, 85
9, 26768, Note_on_c, 7, 59, 0
9, 26784, Note_on_c, 7, 61, 66
9, 26808, Note_on_c, 7, 61, 0
9, 26820, Note_on_c, 7, 57, 85
9, 26828, Note_on_c, 7, 57, 0
9, 26832, Note_on_c, 7, 62, 85
9, 26856, Note_on_c, 7, 62, 0
9, 26868, Note_on_c, 7, 57, 85
9, 26876, Note_on_c, 7, 57, 0
9, 26880, Note_on_c, 7, 59, 69
9, 26893, Note_on_c, 7, 59, 0
9, 26896, Note_on_c, 7, 57, 81
9, 26909, Note_on_c, 7, 57, 0
9, 26912, Note_on_c, 7, 55, 77
9, 26925, Note_on_c, 7, 55, 0
9, 26928, Note_on_c, 7, 54, 62
9, 26941, Note_on_c, 7, 54, 0
9, 26944, Note_on_c, 7, 55, 85
9, 26957, Note_on_c, 7, 55, 0
9, 26960, Note_on_c, 7, 57, 85
9, 26973, Note_on_c, 7, 57, 0
9, 26976, Note_on_c, 7, 50, 85
9, 26989, Note_on_c, 7, 50, 0
9, 26992, Note_on_c, 7, 54, 68
9, 27005, Note_on_c, 7, 54, 0
9, 27008, Note_on_c, 7, 52, 85
9, 27021, Note_on_c, 7, 52, 0
9, 27024, Note_on_c, 7, 50, 85
9, 27037, Note_on_c, 7, 50, 0
9, 27040, Note_on_c, 7, 52, 85
9, 27053, Note_on_c, 7, 52, 0
9, 27056, Note_on_c, 7, 54, 85
9, 27069, Note_on_c, 7, 54, 0
9, 27072, Note_on_c, 7, 55, 77
9, 27091, Note_on_c, 7, 55, 0
9, 27120, Note_on_c, 7, 57, 85
9, 27139, Note_on_c, 7, 57, 0
9, 27168, Note_on_c, 7, 59, 85
9, 27187, Note_on_c, 7, 59, 0
9, 27216, Note_on_c, 7, 47, 74
9, 27235, Note_on_c, 7, 47, 0
9, 27312, Note_on_c, 7, 59, 74
9, 27331, Note_on_c, 7, 59, 0
9, 27360, Note_on_c, 7, 54, 69
9, 27379, Note_on_c, 7, 54, 0
9, 27408, Note_on_c, 7, 42, 74
9, 27427, Note_on_c, 7, 42, 0
9, 27504, Note_on_c, 7, 54, 66
9, 27523, Note_on_c, 7, 54, 0
9, 27552, Note_on_c, 7, 56, 67
9, 27571, Note_on_c, 7, 56, 0
9, 27600, Note_on_c, 7, 44, 60
9, 27619, Note_on_c, 7, 44, 0
9, 27696, Note_on_c, 7, 56, 49
9, 27715, Note_on_c, 7, 56, 0
9, 27744, Note_on_c, 7, 57, 74
9, 27763, Note_on_c, 7, 57, 0
9, 27792, Note_on_c, 7, 54, 74
9, 27808, Note_on_c, 7, 54, 0
9, 27840, Note_on_c, 7, 47, 85
9, 27856, Note_on_c, 7, 47, 0
9, 27888, Note_on_c, 7, 52, 78
9, 27904, Note_on_c, 7, 52, 0
9, 27936, Note_on_c, 7, 45, 85
9, 27952, Note_on_c, 7, 45, 0
9, 27984, Note_on_c, 7, 50, 85
9, 28000, Note_on_c, 7, 50, 0
9, 28032, Note_on_c, 7, 43, 85
9, 28065, Note_on_c, 7, 43, 0
9, 28164, Note_on_c, 7, 45, 85
9, 28172, Note_on_c, 7, 45, 0
9, 28176, Note_on_c, 7, 50, 56
9, 28200, Note_on_c, 7, 50, 0
9, 28212, Note_on_c, 7, 45, 85
9, 28220, Note_on_c, 7, 45, 0
9, 28224, Note_on_c, 7, 47, 60
9, 28235, Note_on_c, 7, 47, 0
9, 28240, Note_on_c, 7, 45, 85
9, 28251, Note_on_c, 7, 45, 0
9, 28256, Note_on_c, 7, 43, 85
9, 28267, Note_on_c, 7, 43, 0
9, 28272, Note_on_c, 7, 45, 85
9, 28296, Note_on_c, 7, 45, 0
9, 28308, Note_on_c, 7, 45, 85
9, 28316, Note_on_c, 7, 45, 0
9, 28320, Note_on_c, 7, 38, 85
9, 28336, Note_on_c, 7, 38, 0
9, 28368, Note_on_c, 7, 42, 65
9, 28384, Note_on_c, 7, 42, 0
9, 28416, Note_on_c, 7, 43, 55
9, 28432, Note_on_c, 7, 43, 0
9, 28464, Note_on_c, 7, 48, 85
9, 28480, Note_on_c, 7, 48, 0
9, 28512, Note_on_c, 7, 47, 85
9, 28536, Note_on_c, 7, 47, 0
9, 28548, Note_on_c, 7, 55, 91
9, 28556, Note_on_c, 7, 55, 0
9, 28560, Note_on_c, 7, 62, 98
9, 28584, Note_on_c, 7, 62, 0
9, 28596, Note_on_c, 7, 57, 85
9, 28604, Note_on_c, 7, 57, 0
9, 28608, Note_on_c, 7, 59, 85
9, 28619, Note_on_c, 7, 59, 0
9, 28624, Note_on_c, 7, 57, 85
9, 28635, Note_on_c, 7, 57, 0
9, 28640, Note_on_c, 7, 55, 85
9, 28651, Note_on_c, 7, 55, 0
9, 28656, Note_on_c, 7, 54, 72
9, 28667, Note_on_c, 7, 54, 0
9, 28672, Note_on_c, 7, 56, 72
9, 28683, Note_on_c, 7, 56, 0
9, 28688, Note_on_c, 7, 57, 85
9, 28699, Note_on_c, 7, 57, 0
9, 28704, Note_on_c, 7, 56, 67
9, 28720, Note_on_c, 7, 56, 0
9, 28752, Note_on_c, 7, 44, 64
9, 28768, Note_on_c, 7, 44, 0
9, 28848, Note_on_c, 7, 56, 60
9, 28864, Note_on_c, 7, 56, 0
9, 28896, Note_on_c, 7, 56, 56
9, 28912, Note_on_c, 7, 56, 0
9, 28944, Note_on_c, 7, 44, 74
9, 28960, Note_on_c, 7, 44, 0
9, 29040, Note_on_c, 7, 56, 85
9, 29064, Note_on_c, 7, 56, 0
9, 29088, Note_on_c, 7, 57, 85
9, 29112, Note_on_c, 7, 57, 0
9, 29172, Note_on_c, 7, 54, 85
9, 29184, Note_on_c, 7, 54, 0
9, 29184, Note_on_c, 7, 59, 85
9, 29208, Note_on_c, 7, 59, 0
9, 29268, Note_on_c, 7, 55, 85
9, 29280, Note_on_c, 7, 55, 0
9, 29280, Note_on_c, 7, 61, 85
9, 29304, Note_on_c, 7, 61, 0
9, 29364, Note_on_c, 7, 57, 85
9, 29376, Note_on_c, 7, 57, 0
9, 29376, Note_on_c, 7, 62, 85
9, 29400, Note_on_c, 7, 62, 0
9, 29424, Note_on_c, 7, 54, 85
9, 29448, Note_on_c, 7, 54, 0
9, 29472, Note_on_c, 7, 55, 85
9, 29496, Note_on_c, 7, 55, 0
9, 29520, Note_on_c, 7, 57, 85
9, 29544, Note_on_c, 7, 57, 0
9, 29568, Note_on_c, 7, 59, 85
9, 29584, Note_on_c, 7, 59, 0
9, 29584, Note_on_c, 7, 57, 85
9, 29600, Note_on_c, 7, 57, 0
9, 29600, Note_on_c, 7, 55, 85
9, 29616, Note_on_c, 7, 55, 0
9, 29616, Note_on_c, 7, 57, 85
9, 29652, Note_on_c, 7, 57, 0
9, 29652, Note_on_c, 7, 45, 85
9, 29664, Note_on_c, 7, 45, 0
9, 29664, Note_on_c, 7, 50, 85
9, 29760, Note_on_c, 7, 50, 0
9, 29760, End_track
10, 0, Start_track
10, 0, Title_t, "bass"
10, 0, Control_c, 8, 7, 96
10, 0, Pitch_bend_c, 8, 8192
10, 0, Control_c, 8, 1, 0
10, 0, Program_c, 8, 56
10, 0, Control_c, 8, 64, 0
10, 0, Control_c, 8, 10, 64
10, 2736, Note_on_c, 8, 30, 95
10, 2752, Note_on_c, 8, 30, 0
10, 2784, Note_on_c, 8, 31, 95
10, 2800, Note_on_c, 8, 31, 0
10, 2832, Note_on_c, 8, 33, 95
10, 2848, Note_on_c, 8, 33, 0
10, 2880, Note_on_c, 8, 35, 95
10, 2896, Note_on_c, 8, 35, 0
10, 2928, Note_on_c, 8, 37, 95
10, 2944, Note_on_c, 8, 37, 0
10, 2976, Note_on_c, 8, 38, 95
10, 2992, Note_on_c, 8, 38, 0
10, 3024, Note_on_c, 8, 40, 95
10, 3040, Note_on_c, 8, 40, 0
10, 3072, Note_on_c, 8, 42, 95
10, 3088, Note_on_c, 8, 42, 0
10, 3120, Note_on_c, 8, 42, 95
10, 3136, Note_on_c, 8, 42, 0
10, 3168, Note_on_c, 8, 43, 95
10, 3184, Note_on_c, 8, 43, 0
10, 3216, Note_on_c, 8, 45, 95
10, 3232, Note_on_c, 8, 45, 0
10, 3264, Note_on_c, 8, 47, 95
10, 3280, Note_on_c, 8, 47, 0
10, 3312, Note_on_c, 8, 45, 95
10, 3328, Note_on_c, 8, 45, 0
10, 3360, Note_on_c, 8, 47, 95
10, 3376, Note_on_c, 8, 47, 0
10, 3408, Note_on_c, 8, 49, 95
10, 3424, Note_on_c, 8, 49, 0
10, 3456, Note_on_c, 8, 50, 95
10, 3472, Note_on_c, 8, 50, 0
10, 3684, Note_on_c, 8, 45, 95
10, 3692, Note_on_c, 8, 45, 0
10, 3696, Note_on_c, 8, 50, 95
10, 3720, Note_on_c, 8, 50, 0
10, 3732, Note_on_c, 8, 45, 95
10, 3740, Note_on_c, 8, 45, 0
10, 3744, Note_on_c, 8, 47, 95
10, 3755, Note_on_c, 8, 47, 0
10, 3760, Note_on_c, 8, 45, 95
10, 3771, Note_on_c, 8, 45, 0
10, 3776, Note_on_c, 8, 43, 95
10, 3787, Note_on_c, 8, 43, 0
10, 3792, Note_on_c, 8, 42, 95
10, 3803, Note_on_c, 8, 42, 0
10, 3808, Note_on_c, 8, 43, 95
10, 3819, Note_on_c, 8, 43, 0
10, 3824, Note_on_c, 8, 45, 95
10, 3835, Note_on_c, 8, 45, 0
10, 3840, Note_on_c, 8, 38, 95
10, 3856, Note_on_c, 8, 38, 0
10, 3888, Note_on_c, 8, 40, 95
10, 3904, Note_on_c, 8, 40, 0
10, 3936, Note_on_c, 8, 42, 95
10, 3952, Note_on_c, 8, 42, 0
10, 3984, Note_on_c, 8, 30, 85
10, 4000, Note_on_c, 8, 30, 0
10, 4032, Note_on_c, 8, 31, 85
10, 4064, Note_on_c, 8, 31, 0
10, 4080, Note_on_c, 8, 33, 85
10, 4112, Note_on_c, 8, 33, 0
10, 4128, Note_on_c, 8, 35, 85
10, 4160, Note_on_c, 8, 35, 0
10, 4176, Note_on_c, 8, 37, 67
10, 4208, Note_on_c, 8, 37, 0
10, 4224, Note_on_c, 8, 38, 85
10, 4256, Note_on_c, 8, 38, 0
10, 4272, Note_on_c, 8, 40, 85
10, 4304, Note_on_c, 8, 40, 0
10, 4320, Note_on_c, 8, 42, 74
10, 4352, Note_on_c, 8, 42, 0
10, 4368, Note_on_c, 8, 43, 85
10, 4400, Note_on_c, 8, 43, 0
10, 4416, Note_on_c, 8, 45, 85
10, 4448, Note_on_c, 8, 45, 0
10, 4464, Note_on_c, 8, 47, 85
10, 4496, Note_on_c, 8, 47, 0
10, 4512, Note_on_c, 8, 49, 66
10, 4536, Note_on_c, 8, 49, 0
10, 4548, Note_on_c, 8, 45, 85
10, 4556, Note_on_c, 8, 45, 0
10, 4560, Note_on_c, 8, 50, 85
10, 4584, Note_on_c, 8, 50, 0
10, 4596, Note_on_c, 8, 45, 85
10, 4604, Note_on_c, 8, 45, 0
10, 4608, Note_on_c, 8, 47, 69
10, 4621, Note_on_c, 8, 47, 0
10, 4624, Note_on_c, 8, 45, 81
10, 4637, Note_on_c, 8, 45, 0
10, 4640, Note_on_c, 8, 43, 77
10, 4653, Note_on_c, 8, 43, 0
10, 4656, Note_on_c, 8, 42, 62
10, 4669, Note_on_c, 8, 42, 0
10, 4672, Note_on_c, 8, 43, 85
10, 4685, Note_on_c, 8, 43, 0
10, 4688, Note_on_c, 8, 45, 85
10, 4701, Note_on_c, 8, 45, 0
10, 4704, Note_on_c, 8, 38, 85
10, 4717, Note_on_c, 8, 38, 0
10, 4720, Note_on_c, 8, 42, 68
10, 4733, Note_on_c, 8, 42, 0
10, 4736, Note_on_c, 8, 40, 85
10, 4749, Note_on_c, 8, 40, 0
10, 4752, Note_on_c, 8, 38, 85
10, 4765, Note_on_c, 8, 38, 0
10, 4768, Note_on_c, 8, 40, 85
10, 4781, Note_on_c, 8, 40, 0
10, 4784, Note_on_c, 8, 42, 85
10, 4797, Note_on_c, 8, 42, 0
10, 4800, Note_on_c, 8, 43, 77
10, 4819, Note_on_c, 8, 43, 0
10, 4848, Note_on_c, 8, 45, 85
10, 4867, Note_on_c, 8, 45, 0
10, 4896, Note_on_c, 8, 47, 85
10, 4915, Note_on_c, 8, 47, 0
10, 4944, Note_on_c, 8, 35, 74
10, 4963, Note_on_c, 8, 35, 0
10, 5040, Note_on_c, 8, 47, 74
10, 5059, Note_on_c, 8, 47, 0
10, 5088, Note_on_c, 8, 42, 69
10, 5107, Note_on_c, 8, 42, 0
10, 5136, Note_on_c, 8, 30, 74
10, 5155, Note_on_c, 8, 30, 0
10, 5232, Note_on_c, 8, 42, 66
10, 5251, Note_on_c, 8, 42, 0
10, 5280, Note_on_c, 8, 44, 67
10, 5299, Note_on_c, 8, 44, 0
10, 5328, Note_on_c, 8, 32, 60
10, 5347, Note_on_c, 8, 32, 0
10, 5424, Note_on_c, 8, 44, 49
10, 5443, Note_on_c, 8, 44, 0
10, 5472, Note_on_c, 8, 45, 74
10, 5491, Note_on_c, 8, 45, 0
10, 5892, Note_on_c, 8, 45, 85
10, 5900, Note_on_c, 8, 45, 0
10, 5904, Note_on_c, 8, 50, 56
10, 5928, Note_on_c, 8, 50, 0
10, 5940, Note_on_c, 8, 45, 85
10, 5948, Note_on_c, 8, 45, 0
10, 5952, Note_on_c, 8, 47, 60
10, 5963, Note_on_c, 8, 47, 0
10, 5968, Note_on_c, 8, 45, 85
10, 5979, Note_on_c, 8, 45, 0
10, 5984, Note_on_c, 8, 43, 85
10, 5995, Note_on_c, 8, 43, 0
10, 6000, Note_on_c, 8, 45, 85
10, 6024, Note_on_c, 8, 45, 0
10, 6036, Note_on_c, 8, 45, 85
10, 6044, Note_on_c, 8, 45, 0
10, 6048, Note_on_c, 8, 38, 85
10, 6064, Note_on_c, 8, 38, 0
10, 6276, Note_on_c, 8, 43, 91
10, 6284, Note_on_c, 8, 43, 0
10, 6288, Note_on_c, 8, 50, 98
10, 6312, Note_on_c, 8, 50, 0
10, 6324, Note_on_c, 8, 45, 85
10, 6332, Note_on_c, 8, 45, 0
10, 6336, Note_on_c, 8, 47, 85
10, 6347, Note_on_c, 8, 47, 0
10, 6352, Note_on_c, 8, 45, 85
10, 6363, Note_on_c, 8, 45, 0
10, 6368, Note_on_c, 8, 43, 85
10, 6379, Note_on_c, 8, 43, 0
10, 6384, Note_on_c, 8, 42, 72
10, 6395, Note_on_c, 8, 42, 0
10, 6400, Note_on_c, 8, 44, 72
10, 6411, Note_on_c, 8, 44, 0
10, 6416, Note_on_c, 8, 45, 85
10, 6427, Note_on_c, 8, 45, 0
10, 6432, Note_on_c, 8, 44, 67
10, 6448, Note_on_c, 8, 44, 0
10, 6480, Note_on_c, 8, 32, 64
10, 6496, Note_on_c, 8, 32, 0
10, 6576, Note_on_c, 8, 44, 60
10, 6592, Note_on_c, 8, 44, 0
10, 6624, Note_on_c, 8, 44, 56
10, 6640, Note_on_c, 8, 44, 0
10, 6672, Note_on_c, 8, 32, 74
10, 6688, Note_on_c, 8, 32, 0
10, 6768, Note_on_c, 8, 44, 62
10, 6784, Note_on_c, 8, 44, 0
10, 6816, Note_on_c, 8, 45, 85
10, 6832, Note_on_c, 8, 45, 0
10, 6900, Note_on_c, 8, 42, 85
10, 6908, Note_on_c, 8, 42, 0
10, 6912, Note_on_c, 8, 47, 85
10, 6928, Note_on_c, 8, 47, 0
10, 6996, Note_on_c, 8, 43, 85
10, 7004, Note_on_c, 8, 43, 0
10, 7008, Note_on_c, 8, 49, 82
10, 7024, Note_on_c, 8, 49, 0
10, 7092, Note_on_c, 8, 47, 85
10, 7100, Note_on_c, 8, 47, 0
10, 7104, Note_on_c, 8, 50, 85
10, 7120, Note_on_c, 8, 50, 0
10, 7152, Note_on_c, 8, 42, 97
10, 7168, Note_on_c, 8, 42, 0
10, 7200, Note_on_c, 8, 43, 89
10, 7216, Note_on_c, 8, 43, 0
10, 7248, Note_on_c, 8, 45, 85
10, 7264, Note_on_c, 8, 45, 0
10, 7296, Note_on_c, 8, 47, 62
10, 7307, Note_on_c, 8, 47, 0
10, 7312, Note_on_c, 8, 45, 85
10, 7323, Note_on_c, 8, 45, 0
10, 7328, Note_on_c, 8, 43, 85
10, 7339, Note_on_c, 8, 43, 0
10, 7344, Note_on_c, 8, 45, 85
10, 7368, Note_on_c, 8, 45, 0
10, 7380, Note_on_c, 8, 33, 85
10, 7388, Note_on_c, 8, 33, 0
10, 7392, Note_on_c, 8, 38, 85
10, 7403, Note_on_c, 8, 38, 0
10, 7408, Note_on_c, 8, 42, 68
10, 7419, Note_on_c, 8, 42, 0
10, 7424, Note_on_c, 8, 40, 85
10, 7435, Note_on_c, 8, 40, 0
10, 7440, Note_on_c, 8, 38, 85
10, 7451, Note_on_c, 8, 38, 0
10, 7456, Note_on_c, 8, 40, 85
10, 7467, Note_on_c, 8, 40, 0
10, 7472, Note_on_c, 8, 42, 70
10, 7483, Note_on_c, 8, 42, 0
10, 7488, Note_on_c, 8, 35, 91
10, 7504, Note_on_c, 8, 35, 0
10, 9408, Note_on_c, 8, 30, 78
10, 9424, Note_on_c, 8, 30, 0
10, 9504, Note_on_c, 8, 30, 77
10, 9520, Note_on_c, 8, 30, 0
10, 9600, Note_on_c, 8, 30, 77
10, 9616, Note_on_c, 8, 30, 0
10, 9696, Note_on_c, 8, 30, 77
10, 9712, Note_on_c, 8, 30, 0
10, 9792, Note_on_c, 8, 30, 77
10, 9808, Note_on_c, 8, 30, 0
10, 9888, Note_on_c, 8, 30, 77
10, 9904, Note_on_c, 8, 30, 0
10, 9984, Note_on_c, 8, 30, 77
10, 10000, Note_on_c, 8, 30, 0
10, 10080, Note_on_c, 8, 30, 77
10, 10096, Note_on_c, 8, 30, 0
10, 12240, Note_on_c, 8, 33, 85
10, 12256, Note_on_c, 8, 33, 0
10, 12288, Note_on_c, 8, 35, 85
10, 12304, Note_on_c, 8, 35, 0
10, 12336, Note_on_c, 8, 37, 67
10, 12352, Note_on_c, 8, 37, 0
10, 12384, Note_on_c, 8, 38, 85
10, 12400, Note_on_c, 8, 38, 0
10, 12432, Note_on_c, 8, 39, 72
10, 12448, Note_on_c, 8, 39, 0
10, 12480, Note_on_c, 8, 40, 85
10, 12496, Note_on_c, 8, 40, 0
10, 12528, Note_on_c, 8, 42, 74
10, 12544, Note_on_c, 8, 42, 0
10, 12576, Note_on_c, 8, 43, 85
10, 12592, Note_on_c, 8, 43, 0
10, 12624, Note_on_c, 8, 44, 93
10, 12640, Note_on_c, 8, 44, 0
10, 12672, Note_on_c, 8, 45, 85
10, 12688, Note_on_c, 8, 45, 0
10, 12720, Note_on_c, 8, 47, 85
10, 12736, Note_on_c, 8, 47, 0
10, 12768, Note_on_c, 8, 49, 74
10, 12784, Note_on_c, 8, 49, 0
10, 12816, Note_on_c, 8, 37, 68
10, 12832, Note_on_c, 8, 37, 0
10, 12864, Note_on_c, 8, 38, 85
10, 12880, Note_on_c, 8, 38, 0
10, 12912, Note_on_c, 8, 40, 76
10, 12928, Note_on_c, 8, 40, 0
10, 12960, Note_on_c, 8, 42, 76
10, 12976, Note_on_c, 8, 42, 0
10, 13008, Note_on_c, 8, 30, 76
10, 13024, Note_on_c, 8, 30, 0
10, 13056, Note_on_c, 8, 32, 76
10, 13072, Note_on_c, 8, 32, 0
10, 13104, Note_on_c, 8, 44, 76
10, 13120, Note_on_c, 8, 44, 0
10, 13152, Note_on_c, 8, 45, 76
10, 13168, Note_on_c, 8, 45, 0
10, 13200, Note_on_c, 8, 33, 76
10, 13216, Note_on_c, 8, 33, 0
10, 13248, Note_on_c, 8, 35, 76
10, 13264, Note_on_c, 8, 35, 0
10, 13296, Note_on_c, 8, 47, 76
10, 13312, Note_on_c, 8, 47, 0
10, 13344, Note_on_c, 8, 49, 76
10, 13360, Note_on_c, 8, 49, 0
10, 13392, Note_on_c, 8, 37, 76
10, 13408, Note_on_c, 8, 37, 0
10, 13440, Note_on_c, 8, 38, 76
10, 13456, Note_on_c, 8, 38, 0
10, 13488, Note_on_c, 8, 50, 76
10, 13504, Note_on_c, 8, 50, 0
10, 13536, Note_on_c, 8, 50, 76
10, 13552, Note_on_c, 8, 50, 0
10, 13584, Note_on_c, 8, 49, 76
10, 13600, Note_on_c, 8, 49, 0
10, 13632, Note_on_c, 8, 50, 76
10, 13648, Note_on_c, 8, 50, 0
10, 13680, Note_on_c, 8, 52, 76
10, 13696, Note_on_c, 8, 52, 0
10, 13728, Note_on_c, 8, 54, 62
10, 13739, Note_on_c, 8, 54, 0
10, 13744, Note_on_c, 8, 52, 85
10, 13755, Note_on_c, 8, 52, 0
10, 13760, Note_on_c, 8, 50, 85
10, 13771, Note_on_c, 8, 50, 0
10, 13776, Note_on_c, 8, 49, 64
10, 13787, Note_on_c, 8, 49, 0
10, 13792, Note_on_c, 8, 51, 72
10, 13803, Note_on_c, 8, 51, 0
10, 13808, Note_on_c, 8, 52, 85
10, 13819, Note_on_c, 8, 52, 0
10, 13824, Note_on_c, 8, 51, 72
10, 13857, Note_on_c, 8, 51, 0
10, 13896, Note_on_c, 8, 47, 85
10, 13912, Note_on_c, 8, 47, 0
10, 13920, Note_on_c, 8, 52, 74
10, 13944, Note_on_c, 8, 52, 0
10, 13956, Note_on_c, 8, 50, 85
10, 13964, Note_on_c, 8, 50, 0
10, 13968, Note_on_c, 8, 49, 70
10, 13992, Note_on_c, 8, 49, 0
10, 14004, Note_on_c, 8, 42, 62
10, 14012, Note_on_c, 8, 42, 0
10, 14016, Note_on_c, 8, 40, 81
10, 14040, Note_on_c, 8, 40, 0
10, 14052, Note_on_c, 8, 38, 85
10, 14060, Note_on_c, 8, 38, 0
10, 14064, Note_on_c, 8, 40, 78
10, 14088, Note_on_c, 8, 40, 0
10, 14100, Note_on_c, 8, 28, 85
10, 14108, Note_on_c, 8, 28, 0
10, 14112, Note_on_c, 8, 33, 85
10, 14128, Note_on_c, 8, 33, 0
10, 14160, Note_on_c, 8, 45, 85
10, 14176, Note_on_c, 8, 45, 0
10, 14208, Note_on_c, 8, 33, 85
10, 14224, Note_on_c, 8, 33, 0
10, 14256, Note_on_c, 8, 45, 85
10, 14272, Note_on_c, 8, 45, 0
10, 14304, Note_on_c, 8, 33, 85
10, 14320, Note_on_c, 8, 33, 0
10, 14400, Note_on_c, 8, 33, 85
10, 14416, Note_on_c, 8, 33, 0
10, 14496, Note_on_c, 8, 33, 85
10, 14512, Note_on_c, 8, 33, 0
10, 14592, Note_on_c, 8, 33, 85
10, 14608, Note_on_c, 8, 33, 0
10, 14688, Note_on_c, 8, 33, 92
10, 14704, Note_on_c, 8, 33, 0
10, 17040, Note_on_c, 8, 35, 85
10, 17072, Note_on_c, 8, 35, 0
10, 17088, Note_on_c, 8, 28, 85
10, 17120, Note_on_c, 8, 28, 0
10, 17232, Note_on_c, 8, 33, 85
10, 17264, Note_on_c, 8, 33, 0
10, 17280, Note_on_c, 8, 26, 85
10, 17312, Note_on_c, 8, 26, 0
10, 18912, Note_on_c, 8, 37, 70
10, 19231, Control_c, 8, 7, 68
10, 19234, Control_c, 8, 7, 70
10, 19236, Control_c, 8, 7, 71
10, 19244, Control_c, 8, 7, 74
10, 19255, Control_c, 8, 7, 76
10, 19257, Control_c, 8, 7, 77
10, 19265, Control_c, 8, 7, 80
10, 19267, Control_c, 8, 7, 81
10, 19269, Control_c, 8, 7, 82
10, 19271, Control_c, 8, 7, 83
10, 19282, Control_c, 8, 7, 85
10, 19295, Control_c, 8, 7, 88
10, 19305, Control_c, 8, 7, 91
10, 19326, Control_c, 8, 7, 94
10, 19328, Control_c, 8, 7, 95
10, 19481, Note_on_c, 8, 37, 0
10, 20736, Note_on_c, 8, 30, 70
10, 21216, Note_on_c, 8, 30, 0
10, 21216, Note_on_c, 8, 42, 85
10, 21252, Note_on_c, 8, 35, 85
10, 21264, Note_on_c, 8, 35, 0
10, 21264, Note_on_c, 8, 42, 0
10, 21264, Note_on_c, 8, 42, 49
10, 21300, Note_on_c, 8, 42, 0
10, 21300, Note_on_c, 8, 37, 70
10, 21312, Note_on_c, 8, 37, 0
10, 21312, Note_on_c, 8, 38, 72
10, 21328, Note_on_c, 8, 38, 0
10, 21328, Note_on_c, 8, 37, 60
10, 21344, Note_on_c, 8, 37, 0
10, 21344, Note_on_c, 8, 35, 85
10, 21360, Note_on_c, 8, 35, 0
10, 21360, Note_on_c, 8, 34, 70
10, 21376, Note_on_c, 8, 34, 0
10, 21376, Note_on_c, 8, 35, 85
10, 21392, Note_on_c, 8, 35, 0
10, 21392, Note_on_c, 8, 37, 66
10, 21408, Note_on_c, 8, 37, 0
10, 21408, Note_on_c, 8, 30, 43
10, 21472, Note_on_c, 8, 42, 62
10, 21480, Note_on_c, 8, 30, 0
10, 21488, Note_on_c, 8, 42, 0
10, 21488, Note_on_c, 8, 40, 85
10, 21504, Note_on_c, 8, 40, 0
10, 21504, Note_on_c, 8, 38, 85
10, 21528, Note_on_c, 8, 38, 0
10, 22020, Note_on_c, 8, 43, 85
10, 22032, Note_on_c, 8, 43, 0
10, 22032, Note_on_c, 8, 38, 85
10, 22068, Note_on_c, 8, 38, 0
10, 22068, Note_on_c, 8, 40, 85
10, 22080, Note_on_c, 8, 40, 0
10, 22080, Note_on_c, 8, 42, 65
10, 22116, Note_on_c, 8, 42, 0
10, 22116, Note_on_c, 8, 40, 85
10, 22128, Note_on_c, 8, 40, 0
10, 22128, Note_on_c, 8, 42, 67
10, 22164, Note_on_c, 8, 42, 0
10, 22164, Note_on_c, 8, 30, 67
10, 22176, Note_on_c, 8, 30, 0
10, 22176, Note_on_c, 8, 35, 85
10, 22224, Note_on_c, 8, 35, 0
10, 22272, Control_c, 8, 7, 96
10, 22272, Pitch_bend_c, 8, 8192
10, 22272, Control_c, 8, 1, 0
10, 22272, Program_c, 8, 56
10, 22272, Control_c, 8, 64, 0
10, 22272, Control_c, 8, 10, 64
10, 22272, Note_on_c, 8, 38, 98
10, 22320, Note_on_c, 8, 38, 0
10, 25008, Note_on_c, 8, 30, 95
10, 25024, Note_on_c, 8, 30, 0
10, 25056, Note_on_c, 8, 31, 95
10, 25072, Note_on_c, 8, 31, 0
10, 25104, Note_on_c, 8, 33, 95
10, 25120, Note_on_c, 8, 33, 0
10, 25152, Note_on_c, 8, 35, 95
10, 25168, Note_on_c, 8, 35, 0
10, 25200, Note_on_c, 8, 37, 95
10, 25216, Note_on_c, 8, 37, 0
10, 25248, Note_on_c, 8, 38, 95
10, 25264, Note_on_c, 8, 38, 0
10, 25296, Note_on_c, 8, 40, 95
10, 25312, Note_on_c, 8, 40, 0
10, 25344, Note_on_c, 8, 42, 95
10, 25360, Note_on_c, 8, 42, 0
10, 25392, Note_on_c, 8, 42, 95
10, 25408, Note_on_c, 8, 42, 0
10, 25440, Note_on_c, 8, 43, 95
10, 25456, Note_on_c, 8, 43, 0
10, 25488, Note_on_c, 8, 45, 95
10, 25504, Note_on_c, 8, 45, 0
10, 25536, Note_on_c, 8, 47, 95
10, 25552, Note_on_c, 8, 47, 0
10, 25584, Note_on_c, 8, 45, 95
10, 25600, Note_on_c, 8, 45, 0
10, 25632, Note_on_c, 8, 47, 95
10, 25648, Note_on_c, 8, 47, 0
10, 25680, Note_on_c, 8, 49, 95
10, 25696, Note_on_c, 8, 49, 0
10, 25728, Note_on_c, 8, 50, 95
10, 25744, Note_on_c, 8, 50, 0
10, 25956, Note_on_c, 8, 45, 95
10, 25964, Note_on_c, 8, 45, 0
10, 25968, Note_on_c, 8, 50, 95
10, 25992, Note_on_c, 8, 50, 0
10, 26004, Note_on_c, 8, 45, 95
10, 26012, Note_on_c, 8, 45, 0
10, 26016, Note_on_c, 8, 47, 95
10, 26027, Note_on_c, 8, 47, 0
10, 26032, Note_on_c, 8, 45, 95
10, 26043, Note_on_c, 8, 45, 0
10, 26048, Note_on_c, 8, 43, 95
10, 26059, Note_on_c, 8, 43, 0
10, 26064, Note_on_c, 8, 42, 95
10, 26075, Note_on_c, 8, 42, 0
10, 26080, Note_on_c, 8, 43, 95
10, 26091, Note_on_c, 8, 43, 0
10, 26096, Note_on_c, 8, 45, 95
10, 26107, Note_on_c, 8, 45, 0
10, 26112, Note_on_c, 8, 38, 95
10, 26128, Note_on_c, 8, 38, 0
10, 26160, Note_on_c, 8, 40, 95
10, 26176, Note_on_c, 8, 40, 0
10, 26208, Note_on_c, 8, 42, 95
10, 26224, Note_on_c, 8, 42, 0
10, 26256, Note_on_c, 8, 30, 85
10, 26272, Note_on_c, 8, 30, 0
10, 26304, Note_on_c, 8, 31, 85
10, 26336, Note_on_c, 8, 31, 0
10, 26352, Note_on_c, 8, 33, 85
10, 26384, Note_on_c, 8, 33, 0
10, 26400, Note_on_c, 8, 35, 85
10, 26432, Note_on_c, 8, 35, 0
10, 26448, Note_on_c, 8, 37, 67
10, 26480, Note_on_c, 8, 37, 0
10, 26496, Note_on_c, 8, 38, 85
10, 26528, Note_on_c, 8, 38, 0
10, 26544, Note_on_c, 8, 40, 85
10, 26576, Note_on_c, 8, 40, 0
10, 26592, Note_on_c, 8, 42, 74
10, 26624, Note_on_c, 8, 42, 0
10, 26640, Note_on_c, 8, 43, 85
10, 26672, Note_on_c, 8, 43, 0
10, 26688, Note_on_c, 8, 45, 85
10, 26720, Note_on_c, 8, 45, 0
10, 26736, Note_on_c, 8, 47, 85
10, 26768, Note_on_c, 8, 47, 0
10, 26784, Note_on_c, 8, 49, 66
10, 26808, Note_on_c, 8, 49, 0
10, 26820, Note_on_c, 8, 45, 85
10, 26828, Note_on_c, 8, 45, 0
10, 26832, Note_on_c, 8, 50, 85
10, 26856, Note_on_c, 8, 50, 0
10, 26868, Note_on_c, 8, 45, 85
10, 26876, Note_on_c, 8, 45, 0
10, 26880, Note_on_c, 8, 47, 69
10, 26893, Note_on_c, 8, 47, 0
10, 26896, Note_on_c, 8, 45, 81
10, 26909, Note_on_c, 8, 45, 0
10, 26912, Note_on_c, 8, 43, 77
10, 26925, Note_on_c, 8, 43, 0
10, 26928, Note_on_c, 8, 42, 62
10, 26941, Note_on_c, 8, 42, 0
10, 26944, Note_on_c, 8, 43, 85
10, 26957, Note_on_c, 8, 43, 0
10, 26960, Note_on_c, 8, 45, 85
10, 26973, Note_on_c, 8, 45, 0
10, 26976, Note_on_c, 8, 38, 85
10, 26989, Note_on_c, 8, 38, 0
10, 26992, Note_on_c, 8, 42, 68
10, 27005, Note_on_c, 8, 42, 0
10, 27008, Note_on_c, 8, 40, 85
10, 27021, Note_on_c, 8, 40, 0
10, 27024, Note_on_c, 8, 38, 85
10, 27037, Note_on_c, 8, 38, 0
10, 27040, Note_on_c, 8, 40, 85
10, 27053, Note_on_c, 8, 40, 0
10, 27056, Note_on_c, 8, 42, 85
10, 27069, Note_on_c, 8, 42, 0
10, 27072, Note_on_c, 8, 43, 77
10, 27091, Note_on_c, 8, 43, 0
10, 27120, Note_on_c, 8, 45, 85
10, 27139, Note_on_c, 8, 45, 0
10, 27168, Note_on_c, 8, 47, 85
10, 27187, Note_on_c, 8, 47, 0
10, 27216, Note_on_c, 8, 35, 74
10, 27235, Note_on_c, 8, 35, 0
10, 27312, Note_on_c, 8, 47, 74
10, 27331, Note_on_c, 8, 47, 0
10, 27360, Note_on_c, 8, 42, 69
10, 27379, Note_on_c, 8, 42, 0
10, 27408, Note_on_c, 8, 30, 74
10, 27427, Note_on_c, 8, 30, 0
10, 27504, Note_on_c, 8, 42, 66
10, 27523, Note_on_c, 8, 42, 0
10, 27552, Note_on_c, 8, 44, 67
10, 27571, Note_on_c, 8, 44, 0
10, 27600, Note_on_c, 8, 32, 60
10, 27619, Note_on_c, 8, 32, 0
10, 27696, Note_on_c, 8, 44, 49
10, 27715, Note_on_c, 8, 44, 0
10, 27744, Note_on_c, 8, 45, 74
10, 27763, Note_on_c, 8, 45, 0
10, 28164, Note_on_c, 8, 45, 85
10, 28172, Note_on_c, 8, 45, 0
10, 28176, Note_on_c, 8, 50, 56
10, 28200, Note_on_c, 8, 50, 0
10, 28212, Note_on_c, 8, 45, 85
10, 28220, Note_on_c, 8, 45, 0
10, 28224, Note_on_c, 8, 47, 60
10, 28235, Note_on_c, 8, 47, 0
10, 28240, Note_on_c, 8, 45, 85
10, 28251, Note_on_c, 8, 45, 0
10, 28256, Note_on_c, 8, 43, 85
10, 28267, Note_on_c, 8, 43, 0
10, 28272, Note_on_c, 8, 45, 85
10, 28296, Note_on_c, 8, 45, 0
10, 28308, Note_on_c, 8, 45, 85
10, 28316, Note_on_c, 8, 45, 0
10, 28320, Note_on_c, 8, 38, 85
10, 28336, Note_on_c, 8, 38, 0
10, 28548, Note_on_c, 8, 43, 91
10, 28556, Note_on_c, 8, 43, 0
10, 28560, Note_on_c, 8, 50, 98
10, 28584, Note_on_c, 8, 50, 0
10, 28596, Note_on_c, 8, 45, 85
10, 28604, Note_on_c, 8, 45, 0
10, 28608, Note_on_c, 8, 47, 85
10, 28619, Note_on_c, 8, 47, 0
10, 28624, Note_on_c, 8, 45, 85
10, 28635, Note_on_c, 8, 45, 0
10, 28640, Note_on_c, 8, 43, 85
10, 28651, Note_on_c, 8, 43, 0
10, 28656, Note_on_c, 8, 42, 72
10, 28667, Note_on_c, 8, 42, 0
10, 28672, Note_on_c, 8, 44, 72
10, 28683, Note_on_c, 8, 44, 0
10, 28688, Note_on_c, 8, 45, 85
10, 28699, Note_on_c, 8, 45, 0
10, 28704, Note_on_c, 8, 44, 67
10, 28720, Note_on_c, 8, 44, 0
10, 28752, Note_on_c, 8, 32, 64
10, 28768, Note_on_c, 8, 32, 0
10, 28848, Note_on_c, 8, 44, 60
10, 28864, Note_on_c, 8, 44, 0
10, 28896, Note_on_c, 8, 44, 56
10, 28912, Note_on_c, 8, 44, 0
10, 28944, Note_on_c, 8, 32, 74
10, 28960, Note_on_c, 8, 32, 0
10, 29040, Note_on_c, 8, 44, 85
10, 29064, Note_on_c, 8, 44, 0
10, 29088, Note_on_c, 8, 45, 85
10, 29112, Note_on_c, 8, 45, 0
10, 29172, Note_on_c, 8, 42, 85
10, 29184, Note_on_c, 8, 42, 0
10, 29184, Note_on_c, 8, 47, 85
10, 29208, Note_on_c, 8, 47, 0
10, 29268, Note_on_c, 8, 43, 85
10, 29280, Note_on_c, 8, 43, 0
10, 29280, Note_on_c, 8, 49, 85
10, 29304, Note_on_c, 8, 49, 0
10, 29364, Note_on_c, 8, 45, 85
10, 29376, Note_on_c, 8, 45, 0
10, 29376, Note_on_c, 8, 50, 85
10, 29400, Note_on_c, 8, 50, 0
10, 29424, Note_on_c, 8, 42, 85
10, 29448, Note_on_c, 8, 42, 0
10, 29472, Note_on_c, 8, 43, 85
10, 29496, Note_on_c, 8, 43, 0
10, 29520, Note_on_c, 8, 45, 85
10, 29544, Note_on_c, 8, 45, 0
10, 29568, Note_on_c, 8, 47, 85
10, 29584, Note_on_c, 8, 47, 0
10, 29584, Note_on_c, 8, 45, 85
10, 29600, Note_on_c, 8, 45, 0
10, 29600, Note_on_c, 8, 43, 85
10, 29616, Note_on_c, 8, 43, 0
10, 29616, Note_on_c, 8, 45, 85
10, 29652, Note_on_c, 8, 45, 0
10, 29652, Note_on_c, 8, 33, 85
10, 29664, Note_on_c, 8, 33, 0
10, 29664, Note_on_c, 8, 38, 85
10, 29760, Note_on_c, 8, 38, 0
10, 29760, End_track
11, 0, Start_track
11, 0, Title_t, "Drum&SE"
11, 0, Control_c, 9, 7, 96
11, 22272, Control_c, 9, 7, 96
11, 22272, End_track
0, 0, End_of_file
