0, 0, Header, 1, 11, 240
1, 0, Start_track
1, 0, Time_signature, 4, 2, 24, 8
1, 0, Key_signature, 0, "major"
1, 0, Tempo, 705882
1, 112320, Tempo, 800000
1, 113520, Tempo, 845070
1, 113760, Tempo, 909091
1, 114000, Tempo, 967742
1, 114240, Tempo, 1052632
1, 114480, Tempo, 1132075
1, 114720, Tempo, 1224490
1, 114960, Tempo, 1363636
1, 115200, Time_signature, 4, 4, 6, 8
1, 115200, Tempo, 4000000
1, 115260, Tempo, 3333333
1, 115320, Tempo, 3000000
1, 115380, Tempo, 2608696
1, 115440, Tempo, 2400000
1, 115500, Tempo, 2307692
1, 115560, Tempo, 2142857
1, 115620, Tempo, 2068966
1, 115680, Tempo, 2000000
1, 115740, Tempo, 2142857
1, 115800, Tempo, 2400000
1, 115860, Tempo, 2608696
1, 115920, Tempo, 3000000
1, 115980, Tempo, 3157895
1, 116040, Tempo, 3333333
1, 116100, Tempo, 3750000
1, 116160, Time_signature, 4, 2, 24, 8
1, 116160, Tempo, 750000
1, 116400, Tempo, 967742
1, 116640, Tempo, 1333333
1, 116880, Tempo, 2222222
1, 117120, Tempo, 705882
1, 165360, Tempo, 779221
1, 165600, Tempo, 869565
1, 165840, Tempo, 983607
1, 166080, Tempo, 1153846
1, 166320, Tempo, 1363636
1, 166560, Tempo, 1666667
1, 166800, Tempo, 2142857
1, 166800, End_track
2, 0, Start_track
2, 0, MIDI_port, 0
2, 0, Title_t, "Solo  Violin Concerto in E Maj"
2, 0, Program_c, 1, 40
2, 0, Control_c, 1, 7, 127
2, 0, Control_c, 1, 10, 64
2, 0, Note_on_c, 1, 64, 96
2, 132, Note_on_c, 1, 64, 0
2, 240, Note_on_c, 1, 68, 96
2, 372, Note_on_c, 1, 68, 0
2, 480, Note_on_c, 1, 71, 96
2, 720, Note_on_c, 1, 71, 0
2, 840, Note_on_c, 1, 68, 96
2, 900, Note_on_c, 1, 68, 0
2, 900, Note_on_c, 1, 69, 96
2, 960, Note_on_c, 1, 69, 0
2, 960, Note_on_c, 1, 71, 112
2, 1056, Note_on_c, 1, 71, 0
2, 1080, Note_on_c, 1, 68, 96
2, 1140, Note_on_c, 1, 68, 0
2, 1140, Note_on_c, 1, 69, 96
2, 1200, Note_on_c, 1, 69, 0
2, 1200, Note_on_c, 1, 71, 112
2, 1266, Note_on_c, 1, 71, 0
2, 1320, Note_on_c, 1, 76, 112
2, 1386, Note_on_c, 1, 76, 0
2, 1440, Note_on_c, 1, 71, 112
2, 1536, Note_on_c, 1, 71, 0
2, 1560, Note_on_c, 1, 71, 96
2, 1620, Note_on_c, 1, 71, 0
2, 1620, Note_on_c, 1, 69, 96
2, 1680, Note_on_c, 1, 69, 0
2, 1680, Note_on_c, 1, 68, 112
2, 1746, Note_on_c, 1, 68, 0
2, 1800, Note_on_c, 1, 66, 96
2, 1860, Note_on_c, 1, 66, 0
2, 1860, Note_on_c, 1, 64, 96
2, 1920, Note_on_c, 1, 64, 0
2, 1920, Note_on_c, 1, 69, 96
2, 1980, Note_on_c, 1, 69, 0
2, 1980, Note_on_c, 1, 71, 96
2, 2040, Note_on_c, 1, 71, 0
2, 2040, Note_on_c, 1, 73, 96
2, 2100, Note_on_c, 1, 73, 0
2, 2100, Note_on_c, 1, 69, 96
2, 2160, Note_on_c, 1, 69, 0
2, 2160, Note_on_c, 1, 68, 96
2, 2220, Note_on_c, 1, 68, 0
2, 2220, Note_on_c, 1, 69, 96
2, 2280, Note_on_c, 1, 69, 0
2, 2280, Note_on_c, 1, 71, 96
2, 2340, Note_on_c, 1, 71, 0
2, 2340, Note_on_c, 1, 68, 96
2, 2400, Note_on_c, 1, 68, 0
2, 2400, Note_on_c, 1, 66, 112
2, 2460, Note_on_c, 1, 66, 0
2, 2460, Note_on_c, 1, 71, 96
2, 2520, Note_on_c, 1, 71, 0
2, 2520, Note_on_c, 1, 73, 96
2, 2580, Note_on_c, 1, 73, 0
2, 2580, Note_on_c, 1, 75, 96
2, 2640, Note_on_c, 1, 75, 0
2, 2640, Note_on_c, 1, 76, 96
2, 2700, Note_on_c, 1, 76, 0
2, 2700, Note_on_c, 1, 78, 96
2, 2760, Note_on_c, 1, 78, 0
2, 2760, Note_on_c, 1, 80, 96
2, 2820, Note_on_c, 1, 80, 0
2, 2820, Note_on_c, 1, 81, 96
2, 2880, Note_on_c, 1, 81, 0
2, 2880, Note_on_c, 1, 83, 96
2, 2928, Note_on_c, 1, 83, 0
2, 2940, Note_on_c, 1, 83, 96
2, 2988, Note_on_c, 1, 83, 0
2, 3000, Note_on_c, 1, 83, 96
2, 3048, Note_on_c, 1, 83, 0
2, 3060, Note_on_c, 1, 83, 96
2, 3108, Note_on_c, 1, 83, 0
2, 3120, Note_on_c, 1, 83, 96
2, 3168, Note_on_c, 1, 83, 0
2, 3180, Note_on_c, 1, 83, 96
2, 3228, Note_on_c, 1, 83, 0
2, 3240, Note_on_c, 1, 83, 96
2, 3288, Note_on_c, 1, 83, 0
2, 3300, Note_on_c, 1, 83, 96
2, 3348, Note_on_c, 1, 83, 0
2, 3360, Note_on_c, 1, 83, 96
2, 3420, Note_on_c, 1, 83, 0
2, 3420, Note_on_c, 1, 80, 96
2, 3480, Note_on_c, 1, 80, 0
2, 3480, Note_on_c, 1, 77, 96
2, 3522, Note_on_c, 1, 77, 0
2, 3540, Note_on_c, 1, 73, 96
2, 3582, Note_on_c, 1, 73, 0
2, 3600, Note_on_c, 1, 71, 96
2, 3660, Note_on_c, 1, 71, 0
2, 3660, Note_on_c, 1, 73, 96
2, 3720, Note_on_c, 1, 73, 0
2, 3720, Note_on_c, 1, 77, 96
2, 3780, Note_on_c, 1, 77, 0
2, 3780, Note_on_c, 1, 80, 96
2, 3840, Note_on_c, 1, 80, 0
2, 3840, Note_on_c, 1, 81, 96
2, 3888, Note_on_c, 1, 81, 0
2, 3900, Note_on_c, 1, 81, 96
2, 3948, Note_on_c, 1, 81, 0
2, 3960, Note_on_c, 1, 81, 96
2, 4008, Note_on_c, 1, 81, 0
2, 4020, Note_on_c, 1, 81, 96
2, 4068, Note_on_c, 1, 81, 0
2, 4080, Note_on_c, 1, 81, 96
2, 4128, Note_on_c, 1, 81, 0
2, 4140, Note_on_c, 1, 81, 96
2, 4188, Note_on_c, 1, 81, 0
2, 4200, Note_on_c, 1, 81, 96
2, 4248, Note_on_c, 1, 81, 0
2, 4260, Note_on_c, 1, 81, 96
2, 4308, Note_on_c, 1, 81, 0
2, 4320, Note_on_c, 1, 81, 96
2, 4380, Note_on_c, 1, 81, 0
2, 4380, Note_on_c, 1, 78, 96
2, 4413, Note_on_c, 1, 78, 0
2, 4440, Note_on_c, 1, 75, 96
2, 4488, Note_on_c, 1, 75, 0
2, 4500, Note_on_c, 1, 71, 96
2, 4548, Note_on_c, 1, 71, 0
2, 4560, Note_on_c, 1, 69, 96
2, 4608, Note_on_c, 1, 69, 0
2, 4620, Note_on_c, 1, 71, 96
2, 4668, Note_on_c, 1, 71, 0
2, 4680, Note_on_c, 1, 75, 96
2, 4728, Note_on_c, 1, 75, 0
2, 4740, Note_on_c, 1, 78, 96
2, 4788, Note_on_c, 1, 78, 0
2, 4800, Note_on_c, 1, 80, 96
2, 4848, Note_on_c, 1, 80, 0
2, 4860, Note_on_c, 1, 80, 96
2, 4908, Note_on_c, 1, 80, 0
2, 4920, Note_on_c, 1, 80, 96
2, 4968, Note_on_c, 1, 80, 0
2, 4980, Note_on_c, 1, 80, 96
2, 5028, Note_on_c, 1, 80, 0
2, 5040, Note_on_c, 1, 80, 96
2, 5100, Note_on_c, 1, 80, 0
2, 5100, Note_on_c, 1, 80, 96
2, 5160, Note_on_c, 1, 80, 0
2, 5160, Note_on_c, 1, 80, 96
2, 5220, Note_on_c, 1, 80, 0
2, 5220, Note_on_c, 1, 80, 96
2, 5280, Note_on_c, 1, 80, 0
2, 5280, Note_on_c, 1, 81, 96
2, 5328, Note_on_c, 1, 81, 0
2, 5340, Note_on_c, 1, 83, 96
2, 5388, Note_on_c, 1, 83, 0
2, 5400, Note_on_c, 1, 85, 96
2, 5448, Note_on_c, 1, 85, 0
2, 5460, Note_on_c, 1, 81, 96
2, 5508, Note_on_c, 1, 81, 0
2, 5520, Note_on_c, 1, 80, 96
2, 5568, Note_on_c, 1, 80, 0
2, 5580, Note_on_c, 1, 81, 96
2, 5628, Note_on_c, 1, 81, 0
2, 5640, Note_on_c, 1, 83, 96
2, 5688, Note_on_c, 1, 83, 0
2, 5700, Note_on_c, 1, 80, 96
2, 5748, Note_on_c, 1, 80, 0
2, 5760, Note_on_c, 1, 78, 96
2, 5808, Note_on_c, 1, 78, 0
2, 5820, Note_on_c, 1, 80, 96
2, 5868, Note_on_c, 1, 80, 0
2, 5880, Note_on_c, 1, 81, 96
2, 5928, Note_on_c, 1, 81, 0
2, 5940, Note_on_c, 1, 78, 96
2, 5988, Note_on_c, 1, 78, 0
2, 6000, Note_on_c, 1, 76, 96
2, 6048, Note_on_c, 1, 76, 0
2, 6060, Note_on_c, 1, 78, 96
2, 6108, Note_on_c, 1, 78, 0
2, 6120, Note_on_c, 1, 80, 96
2, 6168, Note_on_c, 1, 80, 0
2, 6180, Note_on_c, 1, 76, 96
2, 6228, Note_on_c, 1, 76, 0
2, 6240, Note_on_c, 1, 75, 96
2, 6288, Note_on_c, 1, 75, 0
2, 6300, Note_on_c, 1, 76, 96
2, 6348, Note_on_c, 1, 76, 0
2, 6360, Note_on_c, 1, 78, 96
2, 6408, Note_on_c, 1, 78, 0
2, 6420, Note_on_c, 1, 75, 96
2, 6468, Note_on_c, 1, 75, 0
2, 6480, Note_on_c, 1, 69, 96
2, 6528, Note_on_c, 1, 69, 0
2, 6540, Note_on_c, 1, 71, 96
2, 6588, Note_on_c, 1, 71, 0
2, 6600, Note_on_c, 1, 73, 96
2, 6648, Note_on_c, 1, 73, 0
2, 6660, Note_on_c, 1, 69, 96
2, 6708, Note_on_c, 1, 69, 0
2, 6720, Note_on_c, 1, 66, 96
2, 6768, Note_on_c, 1, 66, 0
2, 6780, Note_on_c, 1, 68, 96
2, 6828, Note_on_c, 1, 68, 0
2, 6840, Note_on_c, 1, 69, 96
2, 6888, Note_on_c, 1, 69, 0
2, 6900, Note_on_c, 1, 66, 96
2, 6948, Note_on_c, 1, 66, 0
2, 6960, Note_on_c, 1, 63, 96
2, 7008, Note_on_c, 1, 63, 0
2, 7020, Note_on_c, 1, 64, 96
2, 7068, Note_on_c, 1, 64, 0
2, 7080, Note_on_c, 1, 66, 96
2, 7128, Note_on_c, 1, 66, 0
2, 7140, Note_on_c, 1, 63, 96
2, 7188, Note_on_c, 1, 63, 0
2, 7200, Note_on_c, 1, 59, 96
2, 7440, Note_on_c, 1, 59, 0
2, 7560, Note_on_c, 1, 78, 96
2, 7620, Note_on_c, 1, 78, 0
2, 7620, Note_on_c, 1, 80, 96
2, 7644, Note_on_c, 1, 80, 0
2, 7650, Note_on_c, 1, 81, 96
2, 7674, Note_on_c, 1, 81, 0
2, 7680, Note_on_c, 1, 80, 96
2, 7692, Note_on_c, 1, 80, 0
2, 7695, Note_on_c, 1, 81, 96
2, 7707, Note_on_c, 1, 81, 0
2, 7710, Note_on_c, 1, 80, 96
2, 7722, Note_on_c, 1, 80, 0
2, 7725, Note_on_c, 1, 81, 96
2, 7737, Note_on_c, 1, 81, 0
2, 7740, Note_on_c, 1, 80, 96
2, 7752, Note_on_c, 1, 80, 0
2, 7755, Note_on_c, 1, 81, 96
2, 7767, Note_on_c, 1, 81, 0
2, 7770, Note_on_c, 1, 80, 96
2, 7782, Note_on_c, 1, 80, 0
2, 7785, Note_on_c, 1, 81, 96
2, 7797, Note_on_c, 1, 81, 0
2, 7800, Note_on_c, 1, 80, 96
2, 7848, Note_on_c, 1, 80, 0
2, 7860, Note_on_c, 1, 78, 96
2, 7884, Note_on_c, 1, 78, 0
2, 7890, Note_on_c, 1, 76, 96
2, 7914, Note_on_c, 1, 76, 0
2, 7920, Note_on_c, 1, 80, 96
2, 7968, Note_on_c, 1, 80, 0
2, 7980, Note_on_c, 1, 78, 96
2, 8028, Note_on_c, 1, 78, 0
2, 8040, Note_on_c, 1, 76, 96
2, 8088, Note_on_c, 1, 76, 0
2, 8100, Note_on_c, 1, 75, 96
2, 8148, Note_on_c, 1, 75, 0
2, 8160, Note_on_c, 1, 76, 96
2, 8244, Note_on_c, 1, 76, 0
2, 8280, Note_on_c, 1, 71, 96
2, 8328, Note_on_c, 1, 71, 0
2, 8340, Note_on_c, 1, 71, 96
2, 8388, Note_on_c, 1, 71, 0
2, 8400, Note_on_c, 1, 73, 96
2, 8448, Note_on_c, 1, 73, 0
2, 8460, Note_on_c, 1, 73, 96
2, 8508, Note_on_c, 1, 73, 0
2, 8520, Note_on_c, 1, 75, 96
2, 8568, Note_on_c, 1, 75, 0
2, 8580, Note_on_c, 1, 75, 96
2, 8628, Note_on_c, 1, 75, 0
2, 8640, Note_on_c, 1, 76, 96
2, 8688, Note_on_c, 1, 76, 0
2, 8700, Note_on_c, 1, 76, 96
2, 8748, Note_on_c, 1, 76, 0
2, 8760, Note_on_c, 1, 71, 96
2, 8808, Note_on_c, 1, 71, 0
2, 8820, Note_on_c, 1, 71, 96
2, 8868, Note_on_c, 1, 71, 0
2, 8880, Note_on_c, 1, 73, 96
2, 8928, Note_on_c, 1, 73, 0
2, 8940, Note_on_c, 1, 73, 96
2, 8988, Note_on_c, 1, 73, 0
2, 9000, Note_on_c, 1, 75, 96
2, 9048, Note_on_c, 1, 75, 0
2, 9060, Note_on_c, 1, 75, 96
2, 9108, Note_on_c, 1, 75, 0
2, 9120, Note_on_c, 1, 76, 96
2, 9168, Note_on_c, 1, 76, 0
2, 9180, Note_on_c, 1, 78, 96
2, 9228, Note_on_c, 1, 78, 0
2, 9240, Note_on_c, 1, 80, 96
2, 9288, Note_on_c, 1, 80, 0
2, 9300, Note_on_c, 1, 76, 96
2, 9348, Note_on_c, 1, 76, 0
2, 9360, Note_on_c, 1, 81, 96
2, 9408, Note_on_c, 1, 81, 0
2, 9420, Note_on_c, 1, 78, 96
2, 9468, Note_on_c, 1, 78, 0
2, 9480, Note_on_c, 1, 83, 96
2, 9576, Note_on_c, 1, 83, 0
2, 9600, Note_on_c, 1, 80, 96
2, 9612, Note_on_c, 1, 80, 0
2, 9615, Note_on_c, 1, 81, 96
2, 9627, Note_on_c, 1, 81, 0
2, 9630, Note_on_c, 1, 80, 96
2, 9642, Note_on_c, 1, 80, 0
2, 9645, Note_on_c, 1, 81, 96
2, 9657, Note_on_c, 1, 81, 0
2, 9660, Note_on_c, 1, 80, 96
2, 9708, Note_on_c, 1, 80, 0
2, 9720, Note_on_c, 1, 78, 96
2, 9768, Note_on_c, 1, 78, 0
2, 9780, Note_on_c, 1, 76, 96
2, 9828, Note_on_c, 1, 76, 0
2, 9840, Note_on_c, 1, 80, 112
2, 9888, Note_on_c, 1, 80, 0
2, 9900, Note_on_c, 1, 78, 96
2, 9948, Note_on_c, 1, 78, 0
2, 9960, Note_on_c, 1, 76, 96
2, 10008, Note_on_c, 1, 76, 0
2, 10020, Note_on_c, 1, 75, 96
2, 10068, Note_on_c, 1, 75, 0
2, 10080, Note_on_c, 1, 76, 96
2, 10320, Note_on_c, 1, 76, 0
2, 10560, Note_on_c, 1, 64, 96
2, 10680, Note_on_c, 1, 64, 0
2, 10800, Note_on_c, 1, 68, 96
2, 10920, Note_on_c, 1, 68, 0
2, 11040, Note_on_c, 1, 71, 96
2, 11280, Note_on_c, 1, 71, 0
2, 11400, Note_on_c, 1, 71, 96
2, 11496, Note_on_c, 1, 71, 0
2, 11520, Note_on_c, 1, 73, 112
2, 11580, Note_on_c, 1, 73, 0
2, 11580, Note_on_c, 1, 75, 96
2, 11622, Note_on_c, 1, 75, 0
2, 11640, Note_on_c, 1, 76, 96
2, 11700, Note_on_c, 1, 76, 0
2, 11700, Note_on_c, 1, 73, 96
2, 11760, Note_on_c, 1, 73, 0
2, 11760, Note_on_c, 1, 71, 96
2, 11886, Note_on_c, 1, 71, 0
2, 11940, Note_on_c, 1, 71, 96
2, 12000, Note_on_c, 1, 71, 0
2, 12000, Note_on_c, 1, 73, 96
2, 12057, Note_on_c, 1, 73, 0
2, 12060, Note_on_c, 1, 75, 96
2, 12089, Note_on_c, 1, 75, 0
2, 12090, Note_on_c, 1, 76, 96
2, 12119, Note_on_c, 1, 76, 0
2, 12120, Note_on_c, 1, 75, 96
2, 12177, Note_on_c, 1, 75, 0
2, 12180, Note_on_c, 1, 76, 96
2, 12209, Note_on_c, 1, 76, 0
2, 12210, Note_on_c, 1, 78, 96
2, 12239, Note_on_c, 1, 78, 0
2, 12240, Note_on_c, 1, 71, 112
2, 12297, Note_on_c, 1, 71, 0
2, 12300, Note_on_c, 1, 75, 96
2, 12342, Note_on_c, 1, 75, 0
2, 12360, Note_on_c, 1, 76, 96
2, 12420, Note_on_c, 1, 76, 0
2, 12420, Note_on_c, 1, 80, 96
2, 12480, Note_on_c, 1, 80, 0
2, 12480, Note_on_c, 1, 81, 112
2, 12540, Note_on_c, 1, 81, 0
2, 12540, Note_on_c, 1, 80, 96
2, 12600, Note_on_c, 1, 80, 0
2, 12600, Note_on_c, 1, 78, 96
2, 12636, Note_on_c, 1, 78, 0
2, 12660, Note_on_c, 1, 81, 96
2, 12696, Note_on_c, 1, 81, 0
2, 12720, Note_on_c, 1, 80, 112
2, 12780, Note_on_c, 1, 80, 0
2, 12780, Note_on_c, 1, 78, 96
2, 12840, Note_on_c, 1, 78, 0
2, 12840, Note_on_c, 1, 76, 96
2, 12900, Note_on_c, 1, 76, 0
2, 12900, Note_on_c, 1, 80, 96
2, 12960, Note_on_c, 1, 80, 0
2, 12960, Note_on_c, 1, 78, 112
2, 13020, Note_on_c, 1, 78, 0
2, 13020, Note_on_c, 1, 76, 96
2, 13080, Note_on_c, 1, 76, 0
2, 13080, Note_on_c, 1, 75, 96
2, 13140, Note_on_c, 1, 75, 0
2, 13140, Note_on_c, 1, 73, 96
2, 13200, Note_on_c, 1, 73, 0
2, 13200, Note_on_c, 1, 71, 112
2, 13260, Note_on_c, 1, 71, 0
2, 13260, Note_on_c, 1, 69, 96
2, 13320, Note_on_c, 1, 69, 0
2, 13320, Note_on_c, 1, 68, 96
2, 13380, Note_on_c, 1, 68, 0
2, 13380, Note_on_c, 1, 66, 96
2, 13440, Note_on_c, 1, 66, 0
2, 13440, Note_on_c, 1, 64, 96
2, 13584, Note_on_c, 1, 64, 0
2, 13680, Note_on_c, 1, 68, 96
2, 13824, Note_on_c, 1, 68, 0
2, 13920, Note_on_c, 1, 71, 96
2, 14160, Note_on_c, 1, 71, 0
2, 14280, Note_on_c, 1, 68, 96
2, 14340, Note_on_c, 1, 68, 0
2, 14340, Note_on_c, 1, 69, 96
2, 14400, Note_on_c, 1, 69, 0
2, 14400, Note_on_c, 1, 71, 112
2, 14460, Note_on_c, 1, 71, 0
2, 14520, Note_on_c, 1, 68, 96
2, 14568, Note_on_c, 1, 68, 0
2, 14580, Note_on_c, 1, 69, 96
2, 14628, Note_on_c, 1, 69, 0
2, 14640, Note_on_c, 1, 71, 112
2, 14736, Note_on_c, 1, 71, 0
2, 14760, Note_on_c, 1, 76, 96
2, 14820, Note_on_c, 1, 76, 0
2, 14880, Note_on_c, 1, 71, 112
2, 14940, Note_on_c, 1, 71, 0
2, 15000, Note_on_c, 1, 71, 96
2, 15048, Note_on_c, 1, 71, 0
2, 15060, Note_on_c, 1, 69, 96
2, 15108, Note_on_c, 1, 69, 0
2, 15120, Note_on_c, 1, 68, 96
2, 15216, Note_on_c, 1, 68, 0
2, 15240, Note_on_c, 1, 66, 96
2, 15288, Note_on_c, 1, 66, 0
2, 15300, Note_on_c, 1, 64, 96
2, 15348, Note_on_c, 1, 64, 0
2, 15360, Note_on_c, 1, 69, 96
2, 15408, Note_on_c, 1, 69, 0
2, 15420, Note_on_c, 1, 71, 96
2, 15468, Note_on_c, 1, 71, 0
2, 15480, Note_on_c, 1, 73, 96
2, 15528, Note_on_c, 1, 73, 0
2, 15540, Note_on_c, 1, 69, 96
2, 15588, Note_on_c, 1, 69, 0
2, 15600, Note_on_c, 1, 68, 96
2, 15648, Note_on_c, 1, 68, 0
2, 15660, Note_on_c, 1, 69, 96
2, 15708, Note_on_c, 1, 69, 0
2, 15720, Note_on_c, 1, 71, 96
2, 15768, Note_on_c, 1, 71, 0
2, 15780, Note_on_c, 1, 68, 96
2, 15828, Note_on_c, 1, 68, 0
2, 15840, Note_on_c, 1, 66, 96
2, 15888, Note_on_c, 1, 66, 0
2, 15900, Note_on_c, 1, 69, 96
2, 15948, Note_on_c, 1, 69, 0
2, 15960, Note_on_c, 1, 71, 96
2, 16008, Note_on_c, 1, 71, 0
2, 16020, Note_on_c, 1, 75, 96
2, 16068, Note_on_c, 1, 75, 0
2, 16080, Note_on_c, 1, 78, 96
2, 16128, Note_on_c, 1, 78, 0
2, 16140, Note_on_c, 1, 75, 96
2, 16188, Note_on_c, 1, 75, 0
2, 16200, Note_on_c, 1, 73, 96
2, 16248, Note_on_c, 1, 73, 0
2, 16260, Note_on_c, 1, 71, 96
2, 16308, Note_on_c, 1, 71, 0
2, 16320, Note_on_c, 1, 69, 96
2, 16368, Note_on_c, 1, 69, 0
2, 16380, Note_on_c, 1, 71, 96
2, 16428, Note_on_c, 1, 71, 0
2, 16440, Note_on_c, 1, 75, 96
2, 16488, Note_on_c, 1, 75, 0
2, 16500, Note_on_c, 1, 78, 96
2, 16548, Note_on_c, 1, 78, 0
2, 16560, Note_on_c, 1, 81, 96
2, 16608, Note_on_c, 1, 81, 0
2, 16620, Note_on_c, 1, 80, 96
2, 16668, Note_on_c, 1, 80, 0
2, 16680, Note_on_c, 1, 78, 96
2, 16728, Note_on_c, 1, 78, 0
2, 16740, Note_on_c, 1, 76, 96
2, 16788, Note_on_c, 1, 76, 0
2, 16800, Note_on_c, 1, 75, 96
2, 16848, Note_on_c, 1, 75, 0
2, 16860, Note_on_c, 1, 76, 96
2, 16908, Note_on_c, 1, 76, 0
2, 16920, Note_on_c, 1, 78, 96
2, 16968, Note_on_c, 1, 78, 0
2, 16980, Note_on_c, 1, 75, 96
2, 17028, Note_on_c, 1, 75, 0
2, 17040, Note_on_c, 1, 71, 80
2, 17088, Note_on_c, 1, 71, 0
2, 17100, Note_on_c, 1, 75, 80
2, 17148, Note_on_c, 1, 75, 0
2, 17160, Note_on_c, 1, 73, 80
2, 17208, Note_on_c, 1, 73, 0
2, 17220, Note_on_c, 1, 71, 80
2, 17268, Note_on_c, 1, 71, 0
2, 17280, Note_on_c, 1, 81, 80
2, 17328, Note_on_c, 1, 81, 0
2, 17340, Note_on_c, 1, 80, 80
2, 17388, Note_on_c, 1, 80, 0
2, 17400, Note_on_c, 1, 78, 80
2, 17448, Note_on_c, 1, 78, 0
2, 17460, Note_on_c, 1, 76, 80
2, 17508, Note_on_c, 1, 76, 0
2, 17520, Note_on_c, 1, 75, 80
2, 17568, Note_on_c, 1, 75, 0
2, 17580, Note_on_c, 1, 76, 80
2, 17628, Note_on_c, 1, 76, 0
2, 17640, Note_on_c, 1, 78, 80
2, 17688, Note_on_c, 1, 78, 0
2, 17700, Note_on_c, 1, 75, 80
2, 17748, Note_on_c, 1, 75, 0
2, 17760, Note_on_c, 1, 71, 64
2, 17808, Note_on_c, 1, 71, 0
2, 17820, Note_on_c, 1, 75, 64
2, 17868, Note_on_c, 1, 75, 0
2, 17880, Note_on_c, 1, 73, 64
2, 17928, Note_on_c, 1, 73, 0
2, 17940, Note_on_c, 1, 71, 64
2, 17988, Note_on_c, 1, 71, 0
2, 18000, Note_on_c, 1, 81, 64
2, 18048, Note_on_c, 1, 81, 0
2, 18060, Note_on_c, 1, 80, 64
2, 18108, Note_on_c, 1, 80, 0
2, 18120, Note_on_c, 1, 78, 64
2, 18168, Note_on_c, 1, 78, 0
2, 18180, Note_on_c, 1, 76, 64
2, 18228, Note_on_c, 1, 76, 0
2, 18240, Note_on_c, 1, 75, 64
2, 18288, Note_on_c, 1, 75, 0
2, 18300, Note_on_c, 1, 76, 64
2, 18348, Note_on_c, 1, 76, 0
2, 18360, Note_on_c, 1, 78, 64
2, 18408, Note_on_c, 1, 78, 0
2, 18420, Note_on_c, 1, 75, 64
2, 18468, Note_on_c, 1, 75, 0
2, 18480, Note_on_c, 1, 71, 48
2, 18576, Note_on_c, 1, 71, 0
2, 18600, Note_on_c, 1, 75, 96
2, 18648, Note_on_c, 1, 75, 0
2, 18660, Note_on_c, 1, 76, 96
2, 18708, Note_on_c, 1, 76, 0
2, 18720, Note_on_c, 1, 78, 112
2, 18792, Note_on_c, 1, 78, 0
2, 18840, Note_on_c, 1, 75, 96
2, 18888, Note_on_c, 1, 75, 0
2, 18900, Note_on_c, 1, 76, 96
2, 18948, Note_on_c, 1, 76, 0
2, 18960, Note_on_c, 1, 78, 112
2, 19032, Note_on_c, 1, 78, 0
2, 19080, Note_on_c, 1, 83, 96
2, 19152, Note_on_c, 1, 83, 0
2, 19200, Note_on_c, 1, 78, 112
2, 19296, Note_on_c, 1, 78, 0
2, 19320, Note_on_c, 1, 78, 96
2, 19368, Note_on_c, 1, 78, 0
2, 19380, Note_on_c, 1, 76, 96
2, 19428, Note_on_c, 1, 76, 0
2, 19440, Note_on_c, 1, 75, 96
2, 19536, Note_on_c, 1, 75, 0
2, 19560, Note_on_c, 1, 75, 96
2, 19608, Note_on_c, 1, 75, 0
2, 19620, Note_on_c, 1, 73, 96
2, 19668, Note_on_c, 1, 73, 0
2, 19680, Note_on_c, 1, 78, 96
2, 19728, Note_on_c, 1, 78, 0
2, 19740, Note_on_c, 1, 83, 96
2, 19788, Note_on_c, 1, 83, 0
2, 19800, Note_on_c, 1, 78, 96
2, 19848, Note_on_c, 1, 78, 0
2, 19860, Note_on_c, 1, 76, 96
2, 19908, Note_on_c, 1, 76, 0
2, 19920, Note_on_c, 1, 75, 80
2, 19968, Note_on_c, 1, 75, 0
2, 19980, Note_on_c, 1, 78, 80
2, 20028, Note_on_c, 1, 78, 0
2, 20040, Note_on_c, 1, 75, 80
2, 20088, Note_on_c, 1, 75, 0
2, 20100, Note_on_c, 1, 73, 80
2, 20148, Note_on_c, 1, 73, 0
2, 20160, Note_on_c, 1, 71, 112
2, 20220, Note_on_c, 1, 71, 0
2, 20220, Note_on_c, 1, 81, 96
2, 20280, Note_on_c, 1, 81, 0
2, 20280, Note_on_c, 1, 78, 96
2, 20340, Note_on_c, 1, 78, 0
2, 20340, Note_on_c, 1, 76, 96
2, 20400, Note_on_c, 1, 76, 0
2, 20400, Note_on_c, 1, 75, 96
2, 20460, Note_on_c, 1, 75, 0
2, 20460, Note_on_c, 1, 78, 96
2, 20520, Note_on_c, 1, 78, 0
2, 20520, Note_on_c, 1, 75, 96
2, 20580, Note_on_c, 1, 75, 0
2, 20580, Note_on_c, 1, 73, 96
2, 20640, Note_on_c, 1, 73, 0
2, 20640, Note_on_c, 1, 71, 112
2, 20700, Note_on_c, 1, 71, 0
2, 20700, Note_on_c, 1, 80, 96
2, 20760, Note_on_c, 1, 80, 0
2, 20760, Note_on_c, 1, 76, 96
2, 20820, Note_on_c, 1, 76, 0
2, 20820, Note_on_c, 1, 75, 96
2, 20880, Note_on_c, 1, 75, 0
2, 20880, Note_on_c, 1, 73, 96
2, 20940, Note_on_c, 1, 73, 0
2, 20940, Note_on_c, 1, 76, 96
2, 21000, Note_on_c, 1, 76, 0
2, 21000, Note_on_c, 1, 73, 96
2, 21060, Note_on_c, 1, 73, 0
2, 21060, Note_on_c, 1, 71, 96
2, 21120, Note_on_c, 1, 71, 0
2, 21120, Note_on_c, 1, 70, 112
2, 21180, Note_on_c, 1, 70, 0
2, 21180, Note_on_c, 1, 73, 96
2, 21240, Note_on_c, 1, 73, 0
2, 21240, Note_on_c, 1, 76, 96
2, 21276, Note_on_c, 1, 76, 0
2, 21300, Note_on_c, 1, 80, 96
2, 21336, Note_on_c, 1, 80, 0
2, 21360, Note_on_c, 1, 78, 96
2, 21540, Note_on_c, 1, 78, 0
2, 21540, Note_on_c, 1, 76, 96
2, 21600, Note_on_c, 1, 76, 0
2, 21600, Note_on_c, 1, 75, 112
2, 21660, Note_on_c, 1, 75, 0
2, 21660, Note_on_c, 1, 78, 96
2, 21720, Note_on_c, 1, 78, 0
2, 21720, Note_on_c, 1, 82, 96
2, 21762, Note_on_c, 1, 82, 0
2, 21780, Note_on_c, 1, 83, 96
2, 21822, Note_on_c, 1, 83, 0
2, 21840, Note_on_c, 1, 73, 112
2, 21900, Note_on_c, 1, 73, 0
2, 21900, Note_on_c, 1, 76, 96
2, 21960, Note_on_c, 1, 76, 0
2, 21960, Note_on_c, 1, 82, 96
2, 22002, Note_on_c, 1, 82, 0
2, 22020, Note_on_c, 1, 83, 96
2, 22062, Note_on_c, 1, 83, 0
2, 22080, Note_on_c, 1, 71, 112
2, 22140, Note_on_c, 1, 71, 0
2, 22140, Note_on_c, 1, 75, 96
2, 22200, Note_on_c, 1, 75, 0
2, 22200, Note_on_c, 1, 82, 96
2, 22242, Note_on_c, 1, 82, 0
2, 22260, Note_on_c, 1, 83, 96
2, 22302, Note_on_c, 1, 83, 0
2, 22320, Note_on_c, 1, 65, 112
2, 22380, Note_on_c, 1, 65, 0
2, 22380, Note_on_c, 1, 73, 96
2, 22440, Note_on_c, 1, 73, 0
2, 22440, Note_on_c, 1, 80, 96
2, 22500, Note_on_c, 1, 80, 0
2, 22500, Note_on_c, 1, 83, 96
2, 22560, Note_on_c, 1, 83, 0
2, 22560, Note_on_c, 1, 82, 96
2, 22620, Note_on_c, 1, 82, 0
2, 22620, Note_on_c, 1, 78, 96
2, 22680, Note_on_c, 1, 78, 0
2, 22680, Note_on_c, 1, 73, 96
2, 22740, Note_on_c, 1, 73, 0
2, 22740, Note_on_c, 1, 70, 96
2, 22800, Note_on_c, 1, 70, 0
2, 22800, Note_on_c, 1, 66, 96
2, 22860, Note_on_c, 1, 66, 0
2, 22860, Note_on_c, 1, 73, 96
2, 22920, Note_on_c, 1, 73, 0
2, 22920, Note_on_c, 1, 75, 96
2, 22980, Note_on_c, 1, 75, 0
2, 22980, Note_on_c, 1, 76, 96
2, 23040, Note_on_c, 1, 76, 0
2, 23040, Note_on_c, 1, 78, 96
2, 23088, Note_on_c, 1, 78, 0
2, 23100, Note_on_c, 1, 78, 96
2, 23148, Note_on_c, 1, 78, 0
2, 23160, Note_on_c, 1, 78, 96
2, 23208, Note_on_c, 1, 78, 0
2, 23220, Note_on_c, 1, 78, 96
2, 23268, Note_on_c, 1, 78, 0
2, 23280, Note_on_c, 1, 78, 96
2, 23328, Note_on_c, 1, 78, 0
2, 23340, Note_on_c, 1, 78, 96
2, 23388, Note_on_c, 1, 78, 0
2, 23400, Note_on_c, 1, 78, 96
2, 23448, Note_on_c, 1, 78, 0
2, 23460, Note_on_c, 1, 78, 96
2, 23508, Note_on_c, 1, 78, 0
2, 23520, Note_on_c, 1, 78, 96
2, 23568, Note_on_c, 1, 78, 0
2, 23580, Note_on_c, 1, 75, 96
2, 23610, Note_on_c, 1, 75, 0
2, 23640, Note_on_c, 1, 72, 96
2, 23688, Note_on_c, 1, 72, 0
2, 23700, Note_on_c, 1, 68, 96
2, 23748, Note_on_c, 1, 68, 0
2, 23760, Note_on_c, 1, 66, 96
2, 23808, Note_on_c, 1, 66, 0
2, 23820, Note_on_c, 1, 68, 96
2, 23868, Note_on_c, 1, 68, 0
2, 23880, Note_on_c, 1, 72, 96
2, 23928, Note_on_c, 1, 72, 0
2, 23940, Note_on_c, 1, 75, 96
2, 23988, Note_on_c, 1, 75, 0
2, 24000, Note_on_c, 1, 76, 96
2, 24048, Note_on_c, 1, 76, 0
2, 24060, Note_on_c, 1, 76, 96
2, 24108, Note_on_c, 1, 76, 0
2, 24120, Note_on_c, 1, 76, 96
2, 24168, Note_on_c, 1, 76, 0
2, 24180, Note_on_c, 1, 76, 96
2, 24228, Note_on_c, 1, 76, 0
2, 24240, Note_on_c, 1, 76, 96
2, 24288, Note_on_c, 1, 76, 0
2, 24300, Note_on_c, 1, 76, 96
2, 24348, Note_on_c, 1, 76, 0
2, 24360, Note_on_c, 1, 76, 96
2, 24408, Note_on_c, 1, 76, 0
2, 24420, Note_on_c, 1, 76, 96
2, 24468, Note_on_c, 1, 76, 0
2, 24480, Note_on_c, 1, 76, 96
2, 24528, Note_on_c, 1, 76, 0
2, 24540, Note_on_c, 1, 73, 96
2, 24570, Note_on_c, 1, 73, 0
2, 24600, Note_on_c, 1, 70, 96
2, 24648, Note_on_c, 1, 70, 0
2, 24660, Note_on_c, 1, 66, 96
2, 24708, Note_on_c, 1, 66, 0
2, 24720, Note_on_c, 1, 64, 96
2, 24774, Note_on_c, 1, 64, 0
2, 24780, Note_on_c, 1, 66, 96
2, 24834, Note_on_c, 1, 66, 0
2, 24840, Note_on_c, 1, 70, 96
2, 24894, Note_on_c, 1, 70, 0
2, 24900, Note_on_c, 1, 73, 96
2, 24954, Note_on_c, 1, 73, 0
2, 24960, Note_on_c, 1, 75, 96
2, 25008, Note_on_c, 1, 75, 0
2, 25020, Note_on_c, 1, 75, 96
2, 25068, Note_on_c, 1, 75, 0
2, 25080, Note_on_c, 1, 75, 96
2, 25128, Note_on_c, 1, 75, 0
2, 25140, Note_on_c, 1, 75, 96
2, 25188, Note_on_c, 1, 75, 0
2, 25200, Note_on_c, 1, 75, 96
2, 25248, Note_on_c, 1, 75, 0
2, 25260, Note_on_c, 1, 75, 96
2, 25308, Note_on_c, 1, 75, 0
2, 25320, Note_on_c, 1, 75, 96
2, 25368, Note_on_c, 1, 75, 0
2, 25380, Note_on_c, 1, 75, 96
2, 25428, Note_on_c, 1, 75, 0
2, 25440, Note_on_c, 1, 76, 112
2, 25488, Note_on_c, 1, 76, 0
2, 25500, Note_on_c, 1, 78, 96
2, 25548, Note_on_c, 1, 78, 0
2, 25560, Note_on_c, 1, 80, 96
2, 25608, Note_on_c, 1, 80, 0
2, 25620, Note_on_c, 1, 76, 96
2, 25668, Note_on_c, 1, 76, 0
2, 25680, Note_on_c, 1, 75, 112
2, 25728, Note_on_c, 1, 75, 0
2, 25740, Note_on_c, 1, 76, 96
2, 25788, Note_on_c, 1, 76, 0
2, 25800, Note_on_c, 1, 78, 96
2, 25848, Note_on_c, 1, 78, 0
2, 25860, Note_on_c, 1, 75, 96
2, 25908, Note_on_c, 1, 75, 0
2, 25920, Note_on_c, 1, 73, 112
2, 25968, Note_on_c, 1, 73, 0
2, 25980, Note_on_c, 1, 75, 96
2, 26028, Note_on_c, 1, 75, 0
2, 26040, Note_on_c, 1, 76, 96
2, 26088, Note_on_c, 1, 76, 0
2, 26100, Note_on_c, 1, 73, 96
2, 26148, Note_on_c, 1, 73, 0
2, 26160, Note_on_c, 1, 71, 112
2, 26208, Note_on_c, 1, 71, 0
2, 26220, Note_on_c, 1, 73, 96
2, 26268, Note_on_c, 1, 73, 0
2, 26280, Note_on_c, 1, 75, 96
2, 26328, Note_on_c, 1, 75, 0
2, 26340, Note_on_c, 1, 71, 96
2, 26388, Note_on_c, 1, 71, 0
2, 26400, Note_on_c, 1, 70, 112
2, 26448, Note_on_c, 1, 70, 0
2, 26460, Note_on_c, 1, 71, 96
2, 26508, Note_on_c, 1, 71, 0
2, 26520, Note_on_c, 1, 73, 96
2, 26568, Note_on_c, 1, 73, 0
2, 26580, Note_on_c, 1, 70, 96
2, 26628, Note_on_c, 1, 70, 0
2, 26640, Note_on_c, 1, 64, 112
2, 26688, Note_on_c, 1, 64, 0
2, 26700, Note_on_c, 1, 66, 96
2, 26748, Note_on_c, 1, 66, 0
2, 26760, Note_on_c, 1, 68, 96
2, 26808, Note_on_c, 1, 68, 0
2, 26820, Note_on_c, 1, 64, 96
2, 26868, Note_on_c, 1, 64, 0
2, 26880, Note_on_c, 1, 61, 112
2, 26925, Note_on_c, 1, 61, 0
2, 26940, Note_on_c, 1, 63, 96
2, 26985, Note_on_c, 1, 63, 0
2, 27000, Note_on_c, 1, 64, 96
2, 27045, Note_on_c, 1, 64, 0
2, 27060, Note_on_c, 1, 61, 96
2, 27105, Note_on_c, 1, 61, 0
2, 27120, Note_on_c, 1, 58, 112
2, 27165, Note_on_c, 1, 58, 0
2, 27180, Note_on_c, 1, 59, 96
2, 27225, Note_on_c, 1, 59, 0
2, 27240, Note_on_c, 1, 61, 96
2, 27285, Note_on_c, 1, 61, 0
2, 27300, Note_on_c, 1, 63, 96
2, 27345, Note_on_c, 1, 63, 0
2, 27360, Note_on_c, 1, 64, 96
2, 27405, Note_on_c, 1, 64, 0
2, 27420, Note_on_c, 1, 66, 96
2, 27465, Note_on_c, 1, 66, 0
2, 27480, Note_on_c, 1, 68, 96
2, 27525, Note_on_c, 1, 68, 0
2, 27540, Note_on_c, 1, 70, 96
2, 27585, Note_on_c, 1, 70, 0
2, 27600, Note_on_c, 1, 71, 96
2, 27645, Note_on_c, 1, 71, 0
2, 27660, Note_on_c, 1, 73, 96
2, 27705, Note_on_c, 1, 73, 0
2, 27720, Note_on_c, 1, 75, 96
2, 27765, Note_on_c, 1, 75, 0
2, 27780, Note_on_c, 1, 76, 96
2, 27803, Note_on_c, 1, 76, 0
2, 27810, Note_on_c, 1, 78, 96
2, 27833, Note_on_c, 1, 78, 0
2, 27840, Note_on_c, 1, 75, 96
2, 27930, Note_on_c, 1, 75, 0
2, 27960, Note_on_c, 1, 73, 96
2, 28005, Note_on_c, 1, 73, 0
2, 28020, Note_on_c, 1, 71, 96
2, 28065, Note_on_c, 1, 71, 0
2, 28080, Note_on_c, 1, 73, 96
2, 28170, Note_on_c, 1, 73, 0
2, 28200, Note_on_c, 1, 71, 96
2, 28245, Note_on_c, 1, 71, 0
2, 28260, Note_on_c, 1, 70, 96
2, 28305, Note_on_c, 1, 70, 0
2, 28320, Note_on_c, 1, 71, 96
2, 28365, Note_on_c, 1, 71, 0
2, 28380, Note_on_c, 1, 75, 96
2, 28403, Note_on_c, 1, 75, 0
2, 28410, Note_on_c, 1, 76, 96
2, 28433, Note_on_c, 1, 76, 0
2, 28440, Note_on_c, 1, 78, 96
2, 28485, Note_on_c, 1, 78, 0
2, 28500, Note_on_c, 1, 71, 96
2, 28545, Note_on_c, 1, 71, 0
2, 28560, Note_on_c, 1, 80, 96
2, 28605, Note_on_c, 1, 80, 0
2, 28620, Note_on_c, 1, 71, 96
2, 28665, Note_on_c, 1, 71, 0
2, 28680, Note_on_c, 1, 82, 96
2, 28725, Note_on_c, 1, 82, 0
2, 28740, Note_on_c, 1, 71, 96
2, 28785, Note_on_c, 1, 71, 0
2, 28800, Note_on_c, 1, 83, 96
2, 28854, Note_on_c, 1, 83, 0
2, 28860, Note_on_c, 1, 82, 96
2, 28887, Note_on_c, 1, 82, 0
2, 28890, Note_on_c, 1, 80, 96
2, 28917, Note_on_c, 1, 80, 0
2, 28920, Note_on_c, 1, 78, 96
2, 28965, Note_on_c, 1, 78, 0
2, 28980, Note_on_c, 1, 76, 96
2, 29025, Note_on_c, 1, 76, 0
2, 29040, Note_on_c, 1, 75, 96
2, 29063, Note_on_c, 1, 75, 0
2, 29070, Note_on_c, 1, 76, 96
2, 29093, Note_on_c, 1, 76, 0
2, 29100, Note_on_c, 1, 78, 96
2, 29130, Note_on_c, 1, 78, 0
2, 29160, Note_on_c, 1, 73, 96
2, 29183, Note_on_c, 1, 73, 0
2, 29190, Note_on_c, 1, 75, 96
2, 29213, Note_on_c, 1, 75, 0
2, 29220, Note_on_c, 1, 76, 96
2, 29265, Note_on_c, 1, 76, 0
2, 29280, Note_on_c, 1, 75, 96
2, 29303, Note_on_c, 1, 75, 0
2, 29310, Note_on_c, 1, 73, 96
2, 29333, Note_on_c, 1, 73, 0
2, 29340, Note_on_c, 1, 71, 96
2, 29385, Note_on_c, 1, 71, 0
2, 29400, Note_on_c, 1, 78, 96
2, 29445, Note_on_c, 1, 78, 0
2, 29460, Note_on_c, 1, 75, 96
2, 29505, Note_on_c, 1, 75, 0
2, 29520, Note_on_c, 1, 83, 112
2, 29574, Note_on_c, 1, 83, 0
2, 29580, Note_on_c, 1, 78, 96
2, 29634, Note_on_c, 1, 78, 0
2, 29640, Note_on_c, 1, 75, 96
2, 29685, Note_on_c, 1, 75, 0
2, 29700, Note_on_c, 1, 71, 96
2, 29745, Note_on_c, 1, 71, 0
2, 29760, Note_on_c, 1, 66, 112
2, 29817, Note_on_c, 1, 66, 0
2, 29820, Note_on_c, 1, 71, 96
2, 29849, Note_on_c, 1, 71, 0
2, 29850, Note_on_c, 1, 70, 96
2, 29879, Note_on_c, 1, 70, 0
2, 29880, Note_on_c, 1, 71, 96
2, 29910, Note_on_c, 1, 71, 0
2, 29940, Note_on_c, 1, 66, 96
2, 29985, Note_on_c, 1, 66, 0
2, 30000, Note_on_c, 1, 63, 112
2, 30057, Note_on_c, 1, 63, 0
2, 30060, Note_on_c, 1, 66, 96
2, 30089, Note_on_c, 1, 66, 0
2, 30090, Note_on_c, 1, 64, 96
2, 30119, Note_on_c, 1, 64, 0
2, 30120, Note_on_c, 1, 66, 96
2, 30165, Note_on_c, 1, 66, 0
2, 30180, Note_on_c, 1, 63, 96
2, 30225, Note_on_c, 1, 63, 0
2, 30240, Note_on_c, 1, 59, 96
2, 31080, Note_on_c, 1, 59, 0
2, 31260, Note_on_c, 1, 66, 96
2, 31305, Note_on_c, 1, 66, 0
2, 31320, Note_on_c, 1, 71, 96
2, 31365, Note_on_c, 1, 71, 0
2, 31380, Note_on_c, 1, 75, 96
2, 31425, Note_on_c, 1, 75, 0
2, 31440, Note_on_c, 1, 76, 96
2, 31485, Note_on_c, 1, 76, 0
2, 31500, Note_on_c, 1, 73, 96
2, 31545, Note_on_c, 1, 73, 0
2, 31560, Note_on_c, 1, 78, 96
2, 31650, Note_on_c, 1, 78, 0
2, 31680, Note_on_c, 1, 76, 112
2, 31725, Note_on_c, 1, 76, 0
2, 31740, Note_on_c, 1, 75, 96
2, 31785, Note_on_c, 1, 75, 0
2, 31800, Note_on_c, 1, 73, 96
2, 31845, Note_on_c, 1, 73, 0
2, 31860, Note_on_c, 1, 71, 96
2, 31905, Note_on_c, 1, 71, 0
2, 31920, Note_on_c, 1, 75, 112
2, 31965, Note_on_c, 1, 75, 0
2, 31980, Note_on_c, 1, 73, 96
2, 32025, Note_on_c, 1, 73, 0
2, 32040, Note_on_c, 1, 71, 96
2, 32085, Note_on_c, 1, 71, 0
2, 32100, Note_on_c, 1, 70, 96
2, 32145, Note_on_c, 1, 70, 0
2, 32160, Note_on_c, 1, 71, 96
2, 32400, Note_on_c, 1, 71, 0
2, 33120, Note_on_c, 1, 59, 112
2, 33180, Note_on_c, 1, 59, 0
2, 33180, Note_on_c, 1, 62, 96
2, 33240, Note_on_c, 1, 62, 0
2, 33240, Note_on_c, 1, 64, 96
2, 33300, Note_on_c, 1, 64, 0
2, 33300, Note_on_c, 1, 68, 96
2, 33360, Note_on_c, 1, 68, 0
2, 33360, Note_on_c, 1, 71, 112
2, 33420, Note_on_c, 1, 71, 0
2, 33420, Note_on_c, 1, 68, 96
2, 33480, Note_on_c, 1, 68, 0
2, 33480, Note_on_c, 1, 66, 96
2, 33540, Note_on_c, 1, 66, 0
2, 33540, Note_on_c, 1, 64, 96
2, 33600, Note_on_c, 1, 64, 0
2, 33600, Note_on_c, 1, 62, 112
2, 33660, Note_on_c, 1, 62, 0
2, 33660, Note_on_c, 1, 64, 96
2, 33720, Note_on_c, 1, 64, 0
2, 33720, Note_on_c, 1, 68, 96
2, 33780, Note_on_c, 1, 68, 0
2, 33780, Note_on_c, 1, 71, 96
2, 33840, Note_on_c, 1, 71, 0
2, 33840, Note_on_c, 1, 74, 112
2, 33900, Note_on_c, 1, 74, 0
2, 33900, Note_on_c, 1, 73, 96
2, 33960, Note_on_c, 1, 73, 0
2, 33960, Note_on_c, 1, 71, 96
2, 34020, Note_on_c, 1, 71, 0
2, 34020, Note_on_c, 1, 69, 96
2, 34080, Note_on_c, 1, 69, 0
2, 34080, Note_on_c, 1, 68, 112
2, 34140, Note_on_c, 1, 68, 0
2, 34140, Note_on_c, 1, 69, 96
2, 34200, Note_on_c, 1, 69, 0
2, 34200, Note_on_c, 1, 71, 96
2, 34236, Note_on_c, 1, 71, 0
2, 34260, Note_on_c, 1, 68, 96
2, 34320, Note_on_c, 1, 68, 0
2, 34320, Note_on_c, 1, 64, 80
2, 34380, Note_on_c, 1, 64, 0
2, 34380, Note_on_c, 1, 68, 80
2, 34440, Note_on_c, 1, 68, 0
2, 34440, Note_on_c, 1, 66, 80
2, 34500, Note_on_c, 1, 66, 0
2, 34500, Note_on_c, 1, 64, 80
2, 34560, Note_on_c, 1, 64, 0
2, 34560, Note_on_c, 1, 74, 80
2, 34605, Note_on_c, 1, 74, 0
2, 34620, Note_on_c, 1, 73, 80
2, 34665, Note_on_c, 1, 73, 0
2, 34680, Note_on_c, 1, 71, 80
2, 34725, Note_on_c, 1, 71, 0
2, 34740, Note_on_c, 1, 69, 80
2, 34785, Note_on_c, 1, 69, 0
2, 34800, Note_on_c, 1, 68, 80
2, 34845, Note_on_c, 1, 68, 0
2, 34860, Note_on_c, 1, 69, 80
2, 34905, Note_on_c, 1, 69, 0
2, 34920, Note_on_c, 1, 71, 80
2, 34965, Note_on_c, 1, 71, 0
2, 34980, Note_on_c, 1, 68, 80
2, 35025, Note_on_c, 1, 68, 0
2, 35040, Note_on_c, 1, 64, 64
2, 35085, Note_on_c, 1, 64, 0
2, 35100, Note_on_c, 1, 68, 64
2, 35145, Note_on_c, 1, 68, 0
2, 35160, Note_on_c, 1, 66, 64
2, 35205, Note_on_c, 1, 66, 0
2, 35220, Note_on_c, 1, 64, 64
2, 35265, Note_on_c, 1, 64, 0
2, 35280, Note_on_c, 1, 74, 64
2, 35325, Note_on_c, 1, 74, 0
2, 35340, Note_on_c, 1, 73, 64
2, 35385, Note_on_c, 1, 73, 0
2, 35400, Note_on_c, 1, 71, 64
2, 35445, Note_on_c, 1, 71, 0
2, 35460, Note_on_c, 1, 69, 64
2, 35505, Note_on_c, 1, 69, 0
2, 35520, Note_on_c, 1, 68, 64
2, 35565, Note_on_c, 1, 68, 0
2, 35580, Note_on_c, 1, 69, 64
2, 35625, Note_on_c, 1, 69, 0
2, 35640, Note_on_c, 1, 71, 64
2, 35685, Note_on_c, 1, 71, 0
2, 35700, Note_on_c, 1, 68, 64
2, 35745, Note_on_c, 1, 68, 0
2, 35760, Note_on_c, 1, 64, 64
2, 35850, Note_on_c, 1, 64, 0
2, 35880, Note_on_c, 1, 68, 96
2, 35925, Note_on_c, 1, 68, 0
2, 35940, Note_on_c, 1, 69, 96
2, 35985, Note_on_c, 1, 69, 0
2, 36000, Note_on_c, 1, 71, 112
2, 36090, Note_on_c, 1, 71, 0
2, 36120, Note_on_c, 1, 68, 96
2, 36165, Note_on_c, 1, 68, 0
2, 36180, Note_on_c, 1, 69, 96
2, 36225, Note_on_c, 1, 69, 0
2, 36240, Note_on_c, 1, 71, 112
2, 36348, Note_on_c, 1, 71, 0
2, 36360, Note_on_c, 1, 76, 96
2, 36432, Note_on_c, 1, 76, 0
2, 36480, Note_on_c, 1, 71, 96
2, 36570, Note_on_c, 1, 71, 0
2, 36600, Note_on_c, 1, 71, 96
2, 36645, Note_on_c, 1, 71, 0
2, 36660, Note_on_c, 1, 69, 96
2, 36705, Note_on_c, 1, 69, 0
2, 36720, Note_on_c, 1, 68, 96
2, 36810, Note_on_c, 1, 68, 0
2, 36840, Note_on_c, 1, 66, 96
2, 36885, Note_on_c, 1, 66, 0
2, 36900, Note_on_c, 1, 64, 96
2, 36945, Note_on_c, 1, 64, 0
2, 36960, Note_on_c, 1, 71, 112
2, 37008, Note_on_c, 1, 71, 0
2, 37020, Note_on_c, 1, 76, 96
2, 37068, Note_on_c, 1, 76, 0
2, 37080, Note_on_c, 1, 71, 96
2, 37128, Note_on_c, 1, 71, 0
2, 37140, Note_on_c, 1, 69, 96
2, 37188, Note_on_c, 1, 69, 0
2, 37200, Note_on_c, 1, 68, 112
2, 37248, Note_on_c, 1, 68, 0
2, 37260, Note_on_c, 1, 71, 96
2, 37308, Note_on_c, 1, 71, 0
2, 37320, Note_on_c, 1, 68, 96
2, 37368, Note_on_c, 1, 68, 0
2, 37380, Note_on_c, 1, 66, 96
2, 37428, Note_on_c, 1, 66, 0
2, 37440, Note_on_c, 1, 64, 112
2, 37485, Note_on_c, 1, 64, 0
2, 37500, Note_on_c, 1, 74, 96
2, 37545, Note_on_c, 1, 74, 0
2, 37560, Note_on_c, 1, 71, 96
2, 37605, Note_on_c, 1, 71, 0
2, 37620, Note_on_c, 1, 69, 96
2, 37665, Note_on_c, 1, 69, 0
2, 37680, Note_on_c, 1, 68, 96
2, 37725, Note_on_c, 1, 68, 0
2, 37740, Note_on_c, 1, 71, 96
2, 37785, Note_on_c, 1, 71, 0
2, 37800, Note_on_c, 1, 68, 96
2, 37845, Note_on_c, 1, 68, 0
2, 37860, Note_on_c, 1, 66, 96
2, 37905, Note_on_c, 1, 66, 0
2, 37920, Note_on_c, 1, 64, 112
2, 37965, Note_on_c, 1, 64, 0
2, 37980, Note_on_c, 1, 73, 96
2, 38025, Note_on_c, 1, 73, 0
2, 38040, Note_on_c, 1, 69, 96
2, 38085, Note_on_c, 1, 69, 0
2, 38100, Note_on_c, 1, 68, 96
2, 38145, Note_on_c, 1, 68, 0
2, 38160, Note_on_c, 1, 66, 96
2, 38205, Note_on_c, 1, 66, 0
2, 38220, Note_on_c, 1, 69, 96
2, 38265, Note_on_c, 1, 69, 0
2, 38280, Note_on_c, 1, 66, 96
2, 38325, Note_on_c, 1, 66, 0
2, 38340, Note_on_c, 1, 64, 96
2, 38385, Note_on_c, 1, 64, 0
2, 38400, Note_on_c, 1, 63, 96
2, 38445, Note_on_c, 1, 63, 0
2, 38460, Note_on_c, 1, 66, 96
2, 38505, Note_on_c, 1, 66, 0
2, 38520, Note_on_c, 1, 69, 96
2, 38565, Note_on_c, 1, 69, 0
2, 38580, Note_on_c, 1, 73, 96
2, 38625, Note_on_c, 1, 73, 0
2, 38640, Note_on_c, 1, 71, 96
2, 38820, Note_on_c, 1, 71, 0
2, 38820, Note_on_c, 1, 69, 96
2, 38865, Note_on_c, 1, 69, 0
2, 38880, Note_on_c, 1, 68, 112
2, 38925, Note_on_c, 1, 68, 0
2, 38940, Note_on_c, 1, 71, 96
2, 38985, Note_on_c, 1, 71, 0
2, 39000, Note_on_c, 1, 75, 96
2, 39045, Note_on_c, 1, 75, 0
2, 39060, Note_on_c, 1, 76, 96
2, 39105, Note_on_c, 1, 76, 0
2, 39120, Note_on_c, 1, 66, 112
2, 39165, Note_on_c, 1, 66, 0
2, 39180, Note_on_c, 1, 69, 96
2, 39225, Note_on_c, 1, 69, 0
2, 39240, Note_on_c, 1, 75, 96
2, 39285, Note_on_c, 1, 75, 0
2, 39300, Note_on_c, 1, 76, 96
2, 39345, Note_on_c, 1, 76, 0
2, 39360, Note_on_c, 1, 64, 112
2, 39420, Note_on_c, 1, 64, 0
2, 39420, Note_on_c, 1, 68, 96
2, 39465, Note_on_c, 1, 68, 0
2, 39480, Note_on_c, 1, 75, 96
2, 39525, Note_on_c, 1, 75, 0
2, 39540, Note_on_c, 1, 76, 96
2, 39585, Note_on_c, 1, 76, 0
2, 39600, Note_on_c, 1, 58, 112
2, 39660, Note_on_c, 1, 58, 0
2, 39660, Note_on_c, 1, 66, 96
2, 39705, Note_on_c, 1, 66, 0
2, 39720, Note_on_c, 1, 73, 96
2, 39765, Note_on_c, 1, 73, 0
2, 39780, Note_on_c, 1, 76, 96
2, 39825, Note_on_c, 1, 76, 0
2, 39840, Note_on_c, 1, 75, 96
2, 39885, Note_on_c, 1, 75, 0
2, 39900, Note_on_c, 1, 71, 96
2, 39936, Note_on_c, 1, 71, 0
2, 39960, Note_on_c, 1, 66, 96
2, 40005, Note_on_c, 1, 66, 0
2, 40020, Note_on_c, 1, 63, 96
2, 40065, Note_on_c, 1, 63, 0
2, 40080, Note_on_c, 1, 59, 96
2, 40140, Note_on_c, 1, 59, 0
2, 40140, Note_on_c, 1, 78, 96
2, 40185, Note_on_c, 1, 78, 0
2, 40200, Note_on_c, 1, 80, 96
2, 40245, Note_on_c, 1, 80, 0
2, 40260, Note_on_c, 1, 81, 96
2, 40305, Note_on_c, 1, 81, 0
2, 40320, Note_on_c, 1, 83, 96
2, 40365, Note_on_c, 1, 83, 0
2, 40380, Note_on_c, 1, 83, 96
2, 40425, Note_on_c, 1, 83, 0
2, 40440, Note_on_c, 1, 83, 96
2, 40485, Note_on_c, 1, 83, 0
2, 40500, Note_on_c, 1, 83, 96
2, 40545, Note_on_c, 1, 83, 0
2, 40560, Note_on_c, 1, 83, 96
2, 40605, Note_on_c, 1, 83, 0
2, 40620, Note_on_c, 1, 83, 96
2, 40665, Note_on_c, 1, 83, 0
2, 40680, Note_on_c, 1, 83, 96
2, 40725, Note_on_c, 1, 83, 0
2, 40740, Note_on_c, 1, 83, 96
2, 40785, Note_on_c, 1, 83, 0
2, 40800, Note_on_c, 1, 83, 96
2, 40860, Note_on_c, 1, 83, 0
2, 40860, Note_on_c, 1, 80, 96
2, 40905, Note_on_c, 1, 80, 0
2, 40920, Note_on_c, 1, 77, 96
2, 40965, Note_on_c, 1, 77, 0
2, 40980, Note_on_c, 1, 73, 96
2, 41025, Note_on_c, 1, 73, 0
2, 41040, Note_on_c, 1, 71, 112
2, 41100, Note_on_c, 1, 71, 0
2, 41100, Note_on_c, 1, 73, 96
2, 41145, Note_on_c, 1, 73, 0
2, 41160, Note_on_c, 1, 77, 96
2, 41205, Note_on_c, 1, 77, 0
2, 41220, Note_on_c, 1, 80, 96
2, 41265, Note_on_c, 1, 80, 0
2, 41280, Note_on_c, 1, 81, 96
2, 41325, Note_on_c, 1, 81, 0
2, 41340, Note_on_c, 1, 81, 96
2, 41385, Note_on_c, 1, 81, 0
2, 41400, Note_on_c, 1, 81, 96
2, 41445, Note_on_c, 1, 81, 0
2, 41460, Note_on_c, 1, 81, 96
2, 41505, Note_on_c, 1, 81, 0
2, 41520, Note_on_c, 1, 81, 96
2, 41565, Note_on_c, 1, 81, 0
2, 41580, Note_on_c, 1, 81, 96
2, 41625, Note_on_c, 1, 81, 0
2, 41640, Note_on_c, 1, 81, 96
2, 41685, Note_on_c, 1, 81, 0
2, 41700, Note_on_c, 1, 81, 96
2, 41745, Note_on_c, 1, 81, 0
2, 41760, Note_on_c, 1, 81, 96
2, 41805, Note_on_c, 1, 81, 0
2, 41820, Note_on_c, 1, 78, 96
2, 41865, Note_on_c, 1, 78, 0
2, 41880, Note_on_c, 1, 75, 96
2, 41925, Note_on_c, 1, 75, 0
2, 41940, Note_on_c, 1, 71, 96
2, 41985, Note_on_c, 1, 71, 0
2, 42000, Note_on_c, 1, 69, 112
2, 42060, Note_on_c, 1, 69, 0
2, 42060, Note_on_c, 1, 71, 96
2, 42105, Note_on_c, 1, 71, 0
2, 42120, Note_on_c, 1, 75, 96
2, 42165, Note_on_c, 1, 75, 0
2, 42180, Note_on_c, 1, 78, 96
2, 42225, Note_on_c, 1, 78, 0
2, 42240, Note_on_c, 1, 80, 96
2, 42285, Note_on_c, 1, 80, 0
2, 42300, Note_on_c, 1, 80, 96
2, 42345, Note_on_c, 1, 80, 0
2, 42360, Note_on_c, 1, 80, 96
2, 42405, Note_on_c, 1, 80, 0
2, 42420, Note_on_c, 1, 80, 96
2, 42465, Note_on_c, 1, 80, 0
2, 42480, Note_on_c, 1, 80, 96
2, 42525, Note_on_c, 1, 80, 0
2, 42540, Note_on_c, 1, 80, 96
2, 42585, Note_on_c, 1, 80, 0
2, 42600, Note_on_c, 1, 80, 96
2, 42645, Note_on_c, 1, 80, 0
2, 42660, Note_on_c, 1, 80, 96
2, 42705, Note_on_c, 1, 80, 0
2, 42720, Note_on_c, 1, 81, 112
2, 42765, Note_on_c, 1, 81, 0
2, 42780, Note_on_c, 1, 83, 96
2, 42825, Note_on_c, 1, 83, 0
2, 42840, Note_on_c, 1, 85, 96
2, 42885, Note_on_c, 1, 85, 0
2, 42900, Note_on_c, 1, 81, 96
2, 42945, Note_on_c, 1, 81, 0
2, 42960, Note_on_c, 1, 80, 112
2, 43005, Note_on_c, 1, 80, 0
2, 43020, Note_on_c, 1, 81, 96
2, 43065, Note_on_c, 1, 81, 0
2, 43080, Note_on_c, 1, 83, 96
2, 43125, Note_on_c, 1, 83, 0
2, 43140, Note_on_c, 1, 80, 96
2, 43185, Note_on_c, 1, 80, 0
2, 43200, Note_on_c, 1, 78, 112
2, 43245, Note_on_c, 1, 78, 0
2, 43260, Note_on_c, 1, 80, 96
2, 43305, Note_on_c, 1, 80, 0
2, 43320, Note_on_c, 1, 81, 96
2, 43365, Note_on_c, 1, 81, 0
2, 43380, Note_on_c, 1, 78, 96
2, 43425, Note_on_c, 1, 78, 0
2, 43440, Note_on_c, 1, 76, 112
2, 43485, Note_on_c, 1, 76, 0
2, 43500, Note_on_c, 1, 78, 96
2, 43545, Note_on_c, 1, 78, 0
2, 43560, Note_on_c, 1, 80, 96
2, 43605, Note_on_c, 1, 80, 0
2, 43620, Note_on_c, 1, 76, 96
2, 43665, Note_on_c, 1, 76, 0
2, 43680, Note_on_c, 1, 75, 112
2, 43725, Note_on_c, 1, 75, 0
2, 43740, Note_on_c, 1, 76, 96
2, 43785, Note_on_c, 1, 76, 0
2, 43800, Note_on_c, 1, 78, 96
2, 43845, Note_on_c, 1, 78, 0
2, 43860, Note_on_c, 1, 75, 96
2, 43905, Note_on_c, 1, 75, 0
2, 43920, Note_on_c, 1, 69, 112
2, 43965, Note_on_c, 1, 69, 0
2, 43980, Note_on_c, 1, 71, 96
2, 44025, Note_on_c, 1, 71, 0
2, 44040, Note_on_c, 1, 73, 96
2, 44085, Note_on_c, 1, 73, 0
2, 44100, Note_on_c, 1, 69, 96
2, 44145, Note_on_c, 1, 69, 0
2, 44160, Note_on_c, 1, 66, 112
2, 44205, Note_on_c, 1, 66, 0
2, 44220, Note_on_c, 1, 68, 96
2, 44265, Note_on_c, 1, 68, 0
2, 44280, Note_on_c, 1, 69, 96
2, 44325, Note_on_c, 1, 69, 0
2, 44340, Note_on_c, 1, 66, 96
2, 44385, Note_on_c, 1, 66, 0
2, 44400, Note_on_c, 1, 63, 112
2, 44445, Note_on_c, 1, 63, 0
2, 44460, Note_on_c, 1, 64, 96
2, 44505, Note_on_c, 1, 64, 0
2, 44520, Note_on_c, 1, 66, 96
2, 44565, Note_on_c, 1, 66, 0
2, 44580, Note_on_c, 1, 63, 96
2, 44625, Note_on_c, 1, 63, 0
2, 44640, Note_on_c, 1, 59, 112
2, 44685, Note_on_c, 1, 59, 0
2, 44700, Note_on_c, 1, 63, 96
2, 44745, Note_on_c, 1, 63, 0
2, 44760, Note_on_c, 1, 66, 96
2, 44805, Note_on_c, 1, 66, 0
2, 44820, Note_on_c, 1, 69, 96
2, 44865, Note_on_c, 1, 69, 0
2, 44880, Note_on_c, 1, 71, 96
2, 44925, Note_on_c, 1, 71, 0
2, 44940, Note_on_c, 1, 75, 96
2, 44985, Note_on_c, 1, 75, 0
2, 45000, Note_on_c, 1, 78, 96
2, 45045, Note_on_c, 1, 78, 0
2, 45060, Note_on_c, 1, 80, 96
2, 45083, Note_on_c, 1, 80, 0
2, 45090, Note_on_c, 1, 81, 96
2, 45113, Note_on_c, 1, 81, 0
2, 45120, Note_on_c, 1, 80, 96
2, 45210, Note_on_c, 1, 80, 0
2, 45240, Note_on_c, 1, 78, 96
2, 45285, Note_on_c, 1, 78, 0
2, 45300, Note_on_c, 1, 76, 96
2, 45345, Note_on_c, 1, 76, 0
2, 45360, Note_on_c, 1, 78, 96
2, 45450, Note_on_c, 1, 78, 0
2, 45480, Note_on_c, 1, 76, 96
2, 45525, Note_on_c, 1, 76, 0
2, 45540, Note_on_c, 1, 75, 96
2, 45585, Note_on_c, 1, 75, 0
2, 45600, Note_on_c, 1, 76, 96
2, 45645, Note_on_c, 1, 76, 0
2, 45660, Note_on_c, 1, 80, 96
2, 45683, Note_on_c, 1, 80, 0
2, 45690, Note_on_c, 1, 81, 96
2, 45713, Note_on_c, 1, 81, 0
2, 45720, Note_on_c, 1, 83, 96
2, 45765, Note_on_c, 1, 83, 0
2, 45780, Note_on_c, 1, 76, 96
2, 45825, Note_on_c, 1, 76, 0
2, 45840, Note_on_c, 1, 85, 96
2, 45885, Note_on_c, 1, 85, 0
2, 45900, Note_on_c, 1, 76, 96
2, 45945, Note_on_c, 1, 76, 0
2, 45960, Note_on_c, 1, 87, 96
2, 46005, Note_on_c, 1, 87, 0
2, 46020, Note_on_c, 1, 76, 96
2, 46065, Note_on_c, 1, 76, 0
2, 46080, Note_on_c, 1, 88, 96
2, 46125, Note_on_c, 1, 88, 0
2, 46140, Note_on_c, 1, 87, 96
2, 46163, Note_on_c, 1, 87, 0
2, 46170, Note_on_c, 1, 85, 96
2, 46193, Note_on_c, 1, 85, 0
2, 46200, Note_on_c, 1, 83, 96
2, 46245, Note_on_c, 1, 83, 0
2, 46260, Note_on_c, 1, 81, 96
2, 46305, Note_on_c, 1, 81, 0
2, 46320, Note_on_c, 1, 80, 96
2, 46343, Note_on_c, 1, 80, 0
2, 46350, Note_on_c, 1, 81, 96
2, 46373, Note_on_c, 1, 81, 0
2, 46380, Note_on_c, 1, 83, 96
2, 46425, Note_on_c, 1, 83, 0
2, 46440, Note_on_c, 1, 78, 96
2, 46463, Note_on_c, 1, 78, 0
2, 46470, Note_on_c, 1, 80, 96
2, 46493, Note_on_c, 1, 80, 0
2, 46500, Note_on_c, 1, 81, 96
2, 46545, Note_on_c, 1, 81, 0
2, 46560, Note_on_c, 1, 80, 96
2, 46583, Note_on_c, 1, 80, 0
2, 46590, Note_on_c, 1, 78, 96
2, 46613, Note_on_c, 1, 78, 0
2, 46620, Note_on_c, 1, 76, 96
2, 46665, Note_on_c, 1, 76, 0
2, 46680, Note_on_c, 1, 83, 96
2, 46725, Note_on_c, 1, 83, 0
2, 46740, Note_on_c, 1, 80, 96
2, 46785, Note_on_c, 1, 80, 0
2, 46800, Note_on_c, 1, 88, 112
2, 46845, Note_on_c, 1, 88, 0
2, 46860, Note_on_c, 1, 83, 96
2, 46905, Note_on_c, 1, 83, 0
2, 46920, Note_on_c, 1, 80, 96
2, 46965, Note_on_c, 1, 80, 0
2, 46980, Note_on_c, 1, 76, 96
2, 47025, Note_on_c, 1, 76, 0
2, 47040, Note_on_c, 1, 71, 112
2, 47100, Note_on_c, 1, 71, 0
2, 47100, Note_on_c, 1, 76, 96
2, 47130, Note_on_c, 1, 76, 0
2, 47130, Note_on_c, 1, 75, 96
2, 47160, Note_on_c, 1, 75, 0
2, 47160, Note_on_c, 1, 76, 96
2, 47196, Note_on_c, 1, 76, 0
2, 47220, Note_on_c, 1, 71, 96
2, 47265, Note_on_c, 1, 71, 0
2, 47280, Note_on_c, 1, 68, 112
2, 47340, Note_on_c, 1, 68, 0
2, 47340, Note_on_c, 1, 71, 96
2, 47370, Note_on_c, 1, 71, 0
2, 47370, Note_on_c, 1, 69, 96
2, 47400, Note_on_c, 1, 69, 0
2, 47400, Note_on_c, 1, 71, 96
2, 47445, Note_on_c, 1, 71, 0
2, 47460, Note_on_c, 1, 68, 96
2, 47505, Note_on_c, 1, 68, 0
2, 47520, Note_on_c, 1, 64, 96
2, 48360, Note_on_c, 1, 64, 0
2, 48540, Note_on_c, 1, 71, 96
2, 48585, Note_on_c, 1, 71, 0
2, 48600, Note_on_c, 1, 76, 96
2, 48645, Note_on_c, 1, 76, 0
2, 48660, Note_on_c, 1, 80, 96
2, 48705, Note_on_c, 1, 80, 0
2, 48720, Note_on_c, 1, 81, 96
2, 48765, Note_on_c, 1, 81, 0
2, 48780, Note_on_c, 1, 78, 96
2, 48825, Note_on_c, 1, 78, 0
2, 48840, Note_on_c, 1, 83, 96
2, 48930, Note_on_c, 1, 83, 0
2, 48960, Note_on_c, 1, 81, 96
2, 49005, Note_on_c, 1, 81, 0
2, 49020, Note_on_c, 1, 80, 96
2, 49065, Note_on_c, 1, 80, 0
2, 49080, Note_on_c, 1, 78, 96
2, 49125, Note_on_c, 1, 78, 0
2, 49140, Note_on_c, 1, 76, 96
2, 49185, Note_on_c, 1, 76, 0
2, 49200, Note_on_c, 1, 80, 96
2, 49245, Note_on_c, 1, 80, 0
2, 49260, Note_on_c, 1, 78, 96
2, 49305, Note_on_c, 1, 78, 0
2, 49320, Note_on_c, 1, 76, 96
2, 49365, Note_on_c, 1, 76, 0
2, 49380, Note_on_c, 1, 75, 96
2, 49425, Note_on_c, 1, 75, 0
2, 49440, Note_on_c, 1, 76, 96
2, 49680, Note_on_c, 1, 76, 0
2, 49920, Note_on_c, 1, 80, 96
2, 49980, Note_on_c, 1, 80, 0
2, 49980, Note_on_c, 1, 73, 96
2, 50025, Note_on_c, 1, 73, 0
2, 50040, Note_on_c, 1, 72, 96
2, 50085, Note_on_c, 1, 72, 0
2, 50100, Note_on_c, 1, 73, 96
2, 50145, Note_on_c, 1, 73, 0
2, 50160, Note_on_c, 1, 68, 96
2, 50205, Note_on_c, 1, 68, 0
2, 50220, Note_on_c, 1, 73, 96
2, 50265, Note_on_c, 1, 73, 0
2, 50280, Note_on_c, 1, 75, 96
2, 50325, Note_on_c, 1, 75, 0
2, 50340, Note_on_c, 1, 72, 96
2, 50385, Note_on_c, 1, 72, 0
2, 50400, Note_on_c, 1, 73, 96
2, 50445, Note_on_c, 1, 73, 0
2, 50460, Note_on_c, 1, 68, 96
2, 50505, Note_on_c, 1, 68, 0
2, 50520, Note_on_c, 1, 69, 96
2, 50565, Note_on_c, 1, 69, 0
2, 50580, Note_on_c, 1, 66, 96
2, 50625, Note_on_c, 1, 66, 0
2, 50640, Note_on_c, 1, 68, 96
2, 50685, Note_on_c, 1, 68, 0
2, 50700, Note_on_c, 1, 73, 96
2, 50745, Note_on_c, 1, 73, 0
2, 50760, Note_on_c, 1, 75, 96
2, 50805, Note_on_c, 1, 75, 0
2, 50820, Note_on_c, 1, 76, 96
2, 50865, Note_on_c, 1, 76, 0
2, 50880, Note_on_c, 1, 75, 96
2, 50940, Note_on_c, 1, 75, 0
2, 50940, Note_on_c, 1, 80, 96
2, 50985, Note_on_c, 1, 80, 0
2, 51000, Note_on_c, 1, 79, 96
2, 51045, Note_on_c, 1, 79, 0
2, 51060, Note_on_c, 1, 80, 96
2, 51105, Note_on_c, 1, 80, 0
2, 51120, Note_on_c, 1, 75, 96
2, 51165, Note_on_c, 1, 75, 0
2, 51180, Note_on_c, 1, 80, 96
2, 51225, Note_on_c, 1, 80, 0
2, 51240, Note_on_c, 1, 82, 96
2, 51285, Note_on_c, 1, 82, 0
2, 51300, Note_on_c, 1, 79, 96
2, 51345, Note_on_c, 1, 79, 0
2, 51360, Note_on_c, 1, 80, 96
2, 51405, Note_on_c, 1, 80, 0
2, 51420, Note_on_c, 1, 75, 96
2, 51465, Note_on_c, 1, 75, 0
2, 51480, Note_on_c, 1, 76, 96
2, 51525, Note_on_c, 1, 76, 0
2, 51540, Note_on_c, 1, 73, 96
2, 51585, Note_on_c, 1, 73, 0
2, 51600, Note_on_c, 1, 75, 96
2, 51645, Note_on_c, 1, 75, 0
2, 51660, Note_on_c, 1, 80, 96
2, 51705, Note_on_c, 1, 80, 0
2, 51720, Note_on_c, 1, 79, 96
2, 51765, Note_on_c, 1, 79, 0
2, 51780, Note_on_c, 1, 80, 96
2, 51825, Note_on_c, 1, 80, 0
2, 51840, Note_on_c, 1, 73, 112
2, 51885, Note_on_c, 1, 73, 0
2, 51900, Note_on_c, 1, 72, 96
2, 51945, Note_on_c, 1, 72, 0
2, 51960, Note_on_c, 1, 73, 96
2, 52005, Note_on_c, 1, 73, 0
2, 52020, Note_on_c, 1, 78, 96
2, 52065, Note_on_c, 1, 78, 0
2, 52080, Note_on_c, 1, 80, 112
2, 52125, Note_on_c, 1, 80, 0
2, 52140, Note_on_c, 1, 77, 96
2, 52185, Note_on_c, 1, 77, 0
2, 52200, Note_on_c, 1, 78, 96
2, 52245, Note_on_c, 1, 78, 0
2, 52260, Note_on_c, 1, 73, 96
2, 52305, Note_on_c, 1, 73, 0
2, 52320, Note_on_c, 1, 74, 112
2, 52365, Note_on_c, 1, 74, 0
2, 52380, Note_on_c, 1, 71, 96
2, 52425, Note_on_c, 1, 71, 0
2, 52440, Note_on_c, 1, 73, 96
2, 52485, Note_on_c, 1, 73, 0
2, 52500, Note_on_c, 1, 68, 96
2, 52545, Note_on_c, 1, 68, 0
2, 52560, Note_on_c, 1, 69, 112
2, 52605, Note_on_c, 1, 69, 0
2, 52620, Note_on_c, 1, 66, 96
2, 52665, Note_on_c, 1, 66, 0
2, 52680, Note_on_c, 1, 68, 96
2, 52725, Note_on_c, 1, 68, 0
2, 52740, Note_on_c, 1, 69, 96
2, 52785, Note_on_c, 1, 69, 0
2, 52800, Note_on_c, 1, 60, 112
2, 52845, Note_on_c, 1, 60, 0
2, 52860, Note_on_c, 1, 68, 96
2, 52905, Note_on_c, 1, 68, 0
2, 52920, Note_on_c, 1, 75, 96
2, 52965, Note_on_c, 1, 75, 0
2, 52980, Note_on_c, 1, 76, 96
2, 53025, Note_on_c, 1, 76, 0
2, 53040, Note_on_c, 1, 78, 96
2, 53085, Note_on_c, 1, 78, 0
2, 53100, Note_on_c, 1, 75, 96
2, 53145, Note_on_c, 1, 75, 0
2, 53160, Note_on_c, 1, 76, 96
2, 53205, Note_on_c, 1, 76, 0
2, 53220, Note_on_c, 1, 73, 96
2, 53265, Note_on_c, 1, 73, 0
2, 53280, Note_on_c, 1, 72, 112
2, 53325, Note_on_c, 1, 72, 0
2, 53340, Note_on_c, 1, 75, 96
2, 53385, Note_on_c, 1, 75, 0
2, 53400, Note_on_c, 1, 78, 96
2, 53445, Note_on_c, 1, 78, 0
2, 53460, Note_on_c, 1, 81, 96
2, 53505, Note_on_c, 1, 81, 0
2, 53520, Note_on_c, 1, 80, 96
2, 53565, Note_on_c, 1, 80, 0
2, 53580, Note_on_c, 1, 78, 96
2, 53625, Note_on_c, 1, 78, 0
2, 53640, Note_on_c, 1, 76, 96
2, 53685, Note_on_c, 1, 76, 0
2, 53700, Note_on_c, 1, 75, 96
2, 53745, Note_on_c, 1, 75, 0
2, 53760, Note_on_c, 1, 76, 96
2, 53814, Note_on_c, 1, 76, 0
2, 53820, Note_on_c, 1, 85, 97
2, 53874, Note_on_c, 1, 85, 0
2, 53880, Note_on_c, 1, 76, 98
2, 53934, Note_on_c, 1, 76, 0
2, 53940, Note_on_c, 1, 85, 99
2, 53994, Note_on_c, 1, 85, 0
2, 54000, Note_on_c, 1, 76, 100
2, 54054, Note_on_c, 1, 76, 0
2, 54060, Note_on_c, 1, 85, 101
2, 54114, Note_on_c, 1, 85, 0
2, 54120, Note_on_c, 1, 76, 102
2, 54174, Note_on_c, 1, 76, 0
2, 54180, Note_on_c, 1, 85, 103
2, 54234, Note_on_c, 1, 85, 0
2, 54240, Note_on_c, 1, 76, 104
2, 54285, Note_on_c, 1, 76, 0
2, 54300, Note_on_c, 1, 85, 105
2, 54345, Note_on_c, 1, 85, 0
2, 54360, Note_on_c, 1, 76, 106
2, 54405, Note_on_c, 1, 76, 0
2, 54420, Note_on_c, 1, 85, 107
2, 54465, Note_on_c, 1, 85, 0
2, 54480, Note_on_c, 1, 76, 108
2, 54525, Note_on_c, 1, 76, 0
2, 54540, Note_on_c, 1, 85, 109
2, 54585, Note_on_c, 1, 85, 0
2, 54600, Note_on_c, 1, 76, 110
2, 54645, Note_on_c, 1, 76, 0
2, 54660, Note_on_c, 1, 85, 111
2, 54705, Note_on_c, 1, 85, 0
2, 54720, Note_on_c, 1, 75, 112
2, 54774, Note_on_c, 1, 75, 0
2, 54780, Note_on_c, 1, 85, 111
2, 54834, Note_on_c, 1, 85, 0
2, 54840, Note_on_c, 1, 75, 110
2, 54894, Note_on_c, 1, 75, 0
2, 54900, Note_on_c, 1, 85, 109
2, 54954, Note_on_c, 1, 85, 0
2, 54960, Note_on_c, 1, 75, 108
2, 55014, Note_on_c, 1, 75, 0
2, 55020, Note_on_c, 1, 85, 107
2, 55074, Note_on_c, 1, 85, 0
2, 55080, Note_on_c, 1, 75, 106
2, 55134, Note_on_c, 1, 75, 0
2, 55140, Note_on_c, 1, 85, 105
2, 55194, Note_on_c, 1, 85, 0
2, 55200, Note_on_c, 1, 75, 104
2, 55245, Note_on_c, 1, 75, 0
2, 55260, Note_on_c, 1, 85, 103
2, 55305, Note_on_c, 1, 85, 0
2, 55320, Note_on_c, 1, 75, 102
2, 55365, Note_on_c, 1, 75, 0
2, 55380, Note_on_c, 1, 85, 101
2, 55425, Note_on_c, 1, 85, 0
2, 55440, Note_on_c, 1, 75, 100
2, 55485, Note_on_c, 1, 75, 0
2, 55500, Note_on_c, 1, 85, 99
2, 55545, Note_on_c, 1, 85, 0
2, 55560, Note_on_c, 1, 75, 98
2, 55605, Note_on_c, 1, 75, 0
2, 55620, Note_on_c, 1, 85, 97
2, 55665, Note_on_c, 1, 85, 0
2, 55680, Note_on_c, 1, 75, 96
2, 55734, Note_on_c, 1, 75, 0
2, 55740, Note_on_c, 1, 83, 98
2, 55794, Note_on_c, 1, 83, 0
2, 55800, Note_on_c, 1, 75, 100
2, 55854, Note_on_c, 1, 75, 0
2, 55860, Note_on_c, 1, 83, 102
2, 55914, Note_on_c, 1, 83, 0
2, 55920, Note_on_c, 1, 75, 104
2, 55974, Note_on_c, 1, 75, 0
2, 55980, Note_on_c, 1, 83, 106
2, 56034, Note_on_c, 1, 83, 0
2, 56040, Note_on_c, 1, 75, 108
2, 56094, Note_on_c, 1, 75, 0
2, 56100, Note_on_c, 1, 83, 110
2, 56154, Note_on_c, 1, 83, 0
2, 56160, Note_on_c, 1, 74, 112
2, 56214, Note_on_c, 1, 74, 0
2, 56220, Note_on_c, 1, 83, 113
2, 56274, Note_on_c, 1, 83, 0
2, 56280, Note_on_c, 1, 74, 115
2, 56334, Note_on_c, 1, 74, 0
2, 56340, Note_on_c, 1, 83, 117
2, 56394, Note_on_c, 1, 83, 0
2, 56400, Note_on_c, 1, 74, 119
2, 56454, Note_on_c, 1, 74, 0
2, 56460, Note_on_c, 1, 83, 121
2, 56514, Note_on_c, 1, 83, 0
2, 56520, Note_on_c, 1, 74, 123
2, 56574, Note_on_c, 1, 74, 0
2, 56580, Note_on_c, 1, 83, 125
2, 56634, Note_on_c, 1, 83, 0
2, 56640, Note_on_c, 1, 73, 127
2, 56694, Note_on_c, 1, 73, 0
2, 56700, Note_on_c, 1, 83, 125
2, 56754, Note_on_c, 1, 83, 0
2, 56760, Note_on_c, 1, 73, 123
2, 56814, Note_on_c, 1, 73, 0
2, 56820, Note_on_c, 1, 83, 121
2, 56874, Note_on_c, 1, 83, 0
2, 56880, Note_on_c, 1, 73, 119
2, 56934, Note_on_c, 1, 73, 0
2, 56940, Note_on_c, 1, 83, 117
2, 56994, Note_on_c, 1, 83, 0
2, 57000, Note_on_c, 1, 73, 115
2, 57054, Note_on_c, 1, 73, 0
2, 57060, Note_on_c, 1, 83, 113
2, 57114, Note_on_c, 1, 83, 0
2, 57120, Note_on_c, 1, 73, 111
2, 57165, Note_on_c, 1, 73, 0
2, 57180, Note_on_c, 1, 83, 110
2, 57225, Note_on_c, 1, 83, 0
2, 57240, Note_on_c, 1, 73, 108
2, 57285, Note_on_c, 1, 73, 0
2, 57300, Note_on_c, 1, 83, 106
2, 57345, Note_on_c, 1, 83, 0
2, 57360, Note_on_c, 1, 73, 104
2, 57405, Note_on_c, 1, 73, 0
2, 57420, Note_on_c, 1, 83, 102
2, 57465, Note_on_c, 1, 83, 0
2, 57480, Note_on_c, 1, 73, 100
2, 57525, Note_on_c, 1, 73, 0
2, 57540, Note_on_c, 1, 83, 98
2, 57585, Note_on_c, 1, 83, 0
2, 57600, Note_on_c, 1, 73, 96
2, 57654, Note_on_c, 1, 73, 0
2, 57660, Note_on_c, 1, 81, 97
2, 57714, Note_on_c, 1, 81, 0
2, 57720, Note_on_c, 1, 73, 98
2, 57774, Note_on_c, 1, 73, 0
2, 57780, Note_on_c, 1, 81, 99
2, 57834, Note_on_c, 1, 81, 0
2, 57840, Note_on_c, 1, 73, 100
2, 57894, Note_on_c, 1, 73, 0
2, 57900, Note_on_c, 1, 81, 101
2, 57954, Note_on_c, 1, 81, 0
2, 57960, Note_on_c, 1, 73, 102
2, 58014, Note_on_c, 1, 73, 0
2, 58020, Note_on_c, 1, 81, 103
2, 58074, Note_on_c, 1, 81, 0
2, 58080, Note_on_c, 1, 73, 104
2, 58125, Note_on_c, 1, 73, 0
2, 58140, Note_on_c, 1, 81, 105
2, 58185, Note_on_c, 1, 81, 0
2, 58200, Note_on_c, 1, 73, 106
2, 58245, Note_on_c, 1, 73, 0
2, 58260, Note_on_c, 1, 81, 107
2, 58305, Note_on_c, 1, 81, 0
2, 58320, Note_on_c, 1, 73, 108
2, 58365, Note_on_c, 1, 73, 0
2, 58380, Note_on_c, 1, 81, 109
2, 58425, Note_on_c, 1, 81, 0
2, 58440, Note_on_c, 1, 73, 110
2, 58485, Note_on_c, 1, 73, 0
2, 58500, Note_on_c, 1, 81, 111
2, 58545, Note_on_c, 1, 81, 0
2, 58560, Note_on_c, 1, 72, 112
2, 58614, Note_on_c, 1, 72, 0
2, 58620, Note_on_c, 1, 81, 112
2, 58674, Note_on_c, 1, 81, 0
2, 58680, Note_on_c, 1, 72, 112
2, 58734, Note_on_c, 1, 72, 0
2, 58740, Note_on_c, 1, 81, 112
2, 58794, Note_on_c, 1, 81, 0
2, 58800, Note_on_c, 1, 73, 112
2, 58854, Note_on_c, 1, 73, 0
2, 58860, Note_on_c, 1, 81, 112
2, 58914, Note_on_c, 1, 81, 0
2, 58920, Note_on_c, 1, 73, 112
2, 58974, Note_on_c, 1, 73, 0
2, 58980, Note_on_c, 1, 81, 112
2, 59034, Note_on_c, 1, 81, 0
2, 59040, Note_on_c, 1, 72, 112
2, 59094, Note_on_c, 1, 72, 0
2, 59100, Note_on_c, 1, 81, 112
2, 59154, Note_on_c, 1, 81, 0
2, 59160, Note_on_c, 1, 72, 112
2, 59214, Note_on_c, 1, 72, 0
2, 59220, Note_on_c, 1, 81, 112
2, 59274, Note_on_c, 1, 81, 0
2, 59280, Note_on_c, 1, 73, 112
2, 59334, Note_on_c, 1, 73, 0
2, 59340, Note_on_c, 1, 81, 112
2, 59394, Note_on_c, 1, 81, 0
2, 59400, Note_on_c, 1, 73, 112
2, 59454, Note_on_c, 1, 73, 0
2, 59460, Note_on_c, 1, 81, 112
2, 59514, Note_on_c, 1, 81, 0
2, 59520, Note_on_c, 1, 75, 112
2, 59574, Note_on_c, 1, 75, 0
2, 59580, Note_on_c, 1, 81, 112
2, 59634, Note_on_c, 1, 81, 0
2, 59640, Note_on_c, 1, 75, 112
2, 59694, Note_on_c, 1, 75, 0
2, 59700, Note_on_c, 1, 81, 112
2, 59754, Note_on_c, 1, 81, 0
2, 59760, Note_on_c, 1, 75, 112
2, 59814, Note_on_c, 1, 75, 0
2, 59820, Note_on_c, 1, 81, 112
2, 59874, Note_on_c, 1, 81, 0
2, 59880, Note_on_c, 1, 75, 112
2, 59934, Note_on_c, 1, 75, 0
2, 59940, Note_on_c, 1, 81, 112
2, 59994, Note_on_c, 1, 81, 0
2, 60000, Note_on_c, 1, 75, 112
2, 60054, Note_on_c, 1, 75, 0
2, 60060, Note_on_c, 1, 80, 112
2, 60114, Note_on_c, 1, 80, 0
2, 60120, Note_on_c, 1, 75, 112
2, 60174, Note_on_c, 1, 75, 0
2, 60180, Note_on_c, 1, 80, 112
2, 60234, Note_on_c, 1, 80, 0
2, 60240, Note_on_c, 1, 75, 112
2, 60294, Note_on_c, 1, 75, 0
2, 60300, Note_on_c, 1, 78, 112
2, 60354, Note_on_c, 1, 78, 0
2, 60360, Note_on_c, 1, 75, 112
2, 60414, Note_on_c, 1, 75, 0
2, 60420, Note_on_c, 1, 78, 112
2, 60474, Note_on_c, 1, 78, 0
2, 60480, Note_on_c, 1, 75, 112
2, 60528, Note_on_c, 1, 75, 0
2, 60540, Note_on_c, 1, 76, 112
2, 60588, Note_on_c, 1, 76, 0
2, 60600, Note_on_c, 1, 75, 112
2, 60648, Note_on_c, 1, 75, 0
2, 60660, Note_on_c, 1, 76, 112
2, 60708, Note_on_c, 1, 76, 0
2, 60720, Note_on_c, 1, 75, 112
2, 60768, Note_on_c, 1, 75, 0
2, 60780, Note_on_c, 1, 76, 112
2, 60828, Note_on_c, 1, 76, 0
2, 60840, Note_on_c, 1, 75, 112
2, 60888, Note_on_c, 1, 75, 0
2, 60900, Note_on_c, 1, 76, 112
2, 60948, Note_on_c, 1, 76, 0
2, 60960, Note_on_c, 1, 73, 112
2, 61008, Note_on_c, 1, 73, 0
2, 61020, Note_on_c, 1, 76, 112
2, 61068, Note_on_c, 1, 76, 0
2, 61080, Note_on_c, 1, 73, 112
2, 61128, Note_on_c, 1, 73, 0
2, 61140, Note_on_c, 1, 76, 112
2, 61188, Note_on_c, 1, 76, 0
2, 61200, Note_on_c, 1, 73, 112
2, 61248, Note_on_c, 1, 73, 0
2, 61260, Note_on_c, 1, 76, 112
2, 61308, Note_on_c, 1, 76, 0
2, 61320, Note_on_c, 1, 73, 112
2, 61368, Note_on_c, 1, 73, 0
2, 61380, Note_on_c, 1, 76, 112
2, 61428, Note_on_c, 1, 76, 0
2, 61440, Note_on_c, 1, 71, 112
2, 61488, Note_on_c, 1, 71, 0
2, 61500, Note_on_c, 1, 77, 112
2, 61548, Note_on_c, 1, 77, 0
2, 61560, Note_on_c, 1, 71, 112
2, 61608, Note_on_c, 1, 71, 0
2, 61620, Note_on_c, 1, 77, 112
2, 61668, Note_on_c, 1, 77, 0
2, 61680, Note_on_c, 1, 71, 112
2, 61728, Note_on_c, 1, 71, 0
2, 61740, Note_on_c, 1, 77, 112
2, 61788, Note_on_c, 1, 77, 0
2, 61800, Note_on_c, 1, 71, 112
2, 61848, Note_on_c, 1, 71, 0
2, 61860, Note_on_c, 1, 77, 112
2, 61908, Note_on_c, 1, 77, 0
2, 61920, Note_on_c, 1, 69, 112
2, 61968, Note_on_c, 1, 69, 0
2, 61980, Note_on_c, 1, 78, 112
2, 62028, Note_on_c, 1, 78, 0
2, 62040, Note_on_c, 1, 69, 112
2, 62088, Note_on_c, 1, 69, 0
2, 62100, Note_on_c, 1, 78, 112
2, 62148, Note_on_c, 1, 78, 0
2, 62160, Note_on_c, 1, 69, 112
2, 62208, Note_on_c, 1, 69, 0
2, 62220, Note_on_c, 1, 78, 112
2, 62268, Note_on_c, 1, 78, 0
2, 62280, Note_on_c, 1, 69, 112
2, 62328, Note_on_c, 1, 69, 0
2, 62340, Note_on_c, 1, 78, 112
2, 62388, Note_on_c, 1, 78, 0
2, 62400, Note_on_c, 1, 69, 112
2, 62448, Note_on_c, 1, 69, 0
2, 62460, Note_on_c, 1, 75, 112
2, 62508, Note_on_c, 1, 75, 0
2, 62520, Note_on_c, 1, 69, 112
2, 62568, Note_on_c, 1, 69, 0
2, 62580, Note_on_c, 1, 75, 112
2, 62628, Note_on_c, 1, 75, 0
2, 62640, Note_on_c, 1, 69, 112
2, 62688, Note_on_c, 1, 69, 0
2, 62700, Note_on_c, 1, 75, 112
2, 62748, Note_on_c, 1, 75, 0
2, 62760, Note_on_c, 1, 69, 112
2, 62808, Note_on_c, 1, 69, 0
2, 62820, Note_on_c, 1, 75, 112
2, 62868, Note_on_c, 1, 75, 0
2, 62880, Note_on_c, 1, 68, 112
2, 62928, Note_on_c, 1, 68, 0
2, 62940, Note_on_c, 1, 76, 112
2, 62988, Note_on_c, 1, 76, 0
2, 63000, Note_on_c, 1, 68, 112
2, 63048, Note_on_c, 1, 68, 0
2, 63060, Note_on_c, 1, 76, 112
2, 63108, Note_on_c, 1, 76, 0
2, 63120, Note_on_c, 1, 68, 112
2, 63168, Note_on_c, 1, 68, 0
2, 63180, Note_on_c, 1, 74, 112
2, 63228, Note_on_c, 1, 74, 0
2, 63240, Note_on_c, 1, 68, 112
2, 63288, Note_on_c, 1, 68, 0
2, 63300, Note_on_c, 1, 74, 112
2, 63348, Note_on_c, 1, 74, 0
2, 63360, Note_on_c, 1, 68, 96
2, 63408, Note_on_c, 1, 68, 0
2, 63420, Note_on_c, 1, 73, 95
2, 63468, Note_on_c, 1, 73, 0
2, 63480, Note_on_c, 1, 68, 94
2, 63528, Note_on_c, 1, 68, 0
2, 63540, Note_on_c, 1, 73, 93
2, 63588, Note_on_c, 1, 73, 0
2, 63600, Note_on_c, 1, 68, 92
2, 63648, Note_on_c, 1, 68, 0
2, 63660, Note_on_c, 1, 73, 91
2, 63708, Note_on_c, 1, 73, 0
2, 63720, Note_on_c, 1, 68, 90
2, 63768, Note_on_c, 1, 68, 0
2, 63780, Note_on_c, 1, 73, 89
2, 63828, Note_on_c, 1, 73, 0
2, 63840, Note_on_c, 1, 66, 88
2, 63888, Note_on_c, 1, 66, 0
2, 63900, Note_on_c, 1, 75, 87
2, 63948, Note_on_c, 1, 75, 0
2, 63960, Note_on_c, 1, 66, 86
2, 64008, Note_on_c, 1, 66, 0
2, 64020, Note_on_c, 1, 75, 85
2, 64068, Note_on_c, 1, 75, 0
2, 64080, Note_on_c, 1, 66, 84
2, 64128, Note_on_c, 1, 66, 0
2, 64140, Note_on_c, 1, 73, 83
2, 64188, Note_on_c, 1, 73, 0
2, 64200, Note_on_c, 1, 66, 82
2, 64248, Note_on_c, 1, 66, 0
2, 64260, Note_on_c, 1, 73, 81
2, 64308, Note_on_c, 1, 73, 0
2, 64320, Note_on_c, 1, 66, 80
2, 64368, Note_on_c, 1, 66, 0
2, 64380, Note_on_c, 1, 72, 79
2, 64428, Note_on_c, 1, 72, 0
2, 64440, Note_on_c, 1, 66, 78
2, 64488, Note_on_c, 1, 66, 0
2, 64500, Note_on_c, 1, 72, 77
2, 64548, Note_on_c, 1, 72, 0
2, 64560, Note_on_c, 1, 66, 76
2, 64608, Note_on_c, 1, 66, 0
2, 64620, Note_on_c, 1, 72, 75
2, 64668, Note_on_c, 1, 72, 0
2, 64680, Note_on_c, 1, 66, 74
2, 64728, Note_on_c, 1, 66, 0
2, 64740, Note_on_c, 1, 72, 73
2, 64788, Note_on_c, 1, 72, 0
2, 64800, Note_on_c, 1, 64, 72
2, 64848, Note_on_c, 1, 64, 0
2, 64860, Note_on_c, 1, 73, 71
2, 64908, Note_on_c, 1, 73, 0
2, 64920, Note_on_c, 1, 64, 70
2, 64968, Note_on_c, 1, 64, 0
2, 64980, Note_on_c, 1, 73, 69
2, 65028, Note_on_c, 1, 73, 0
2, 65040, Note_on_c, 1, 64, 68
2, 65088, Note_on_c, 1, 64, 0
2, 65100, Note_on_c, 1, 73, 67
2, 65148, Note_on_c, 1, 73, 0
2, 65160, Note_on_c, 1, 64, 66
2, 65208, Note_on_c, 1, 64, 0
2, 65220, Note_on_c, 1, 73, 65
2, 65268, Note_on_c, 1, 73, 0
2, 65280, Note_on_c, 1, 67, 64
2, 65328, Note_on_c, 1, 67, 0
2, 65340, Note_on_c, 1, 73, 66
2, 65388, Note_on_c, 1, 73, 0
2, 65400, Note_on_c, 1, 67, 68
2, 65448, Note_on_c, 1, 67, 0
2, 65460, Note_on_c, 1, 73, 70
2, 65508, Note_on_c, 1, 73, 0
2, 65520, Note_on_c, 1, 67, 72
2, 65568, Note_on_c, 1, 67, 0
2, 65580, Note_on_c, 1, 73, 74
2, 65628, Note_on_c, 1, 73, 0
2, 65640, Note_on_c, 1, 67, 76
2, 65688, Note_on_c, 1, 67, 0
2, 65700, Note_on_c, 1, 73, 78
2, 65748, Note_on_c, 1, 73, 0
2, 65760, Note_on_c, 1, 68, 80
2, 65814, Note_on_c, 1, 68, 0
2, 65820, Note_on_c, 1, 72, 82
2, 65874, Note_on_c, 1, 72, 0
2, 65880, Note_on_c, 1, 68, 84
2, 65934, Note_on_c, 1, 68, 0
2, 65940, Note_on_c, 1, 72, 86
2, 65994, Note_on_c, 1, 72, 0
2, 66000, Note_on_c, 1, 68, 88
2, 66054, Note_on_c, 1, 68, 0
2, 66060, Note_on_c, 1, 72, 90
2, 66114, Note_on_c, 1, 72, 0
2, 66120, Note_on_c, 1, 68, 92
2, 66174, Note_on_c, 1, 68, 0
2, 66180, Note_on_c, 1, 72, 94
2, 66234, Note_on_c, 1, 72, 0
2, 66240, Note_on_c, 1, 73, 96
2, 66360, Note_on_c, 1, 73, 0
2, 66480, Note_on_c, 1, 76, 96
2, 66600, Note_on_c, 1, 76, 0
2, 66720, Note_on_c, 1, 80, 96
2, 66960, Note_on_c, 1, 80, 0
2, 67080, Note_on_c, 1, 76, 96
2, 67125, Note_on_c, 1, 76, 0
2, 67140, Note_on_c, 1, 78, 96
2, 67185, Note_on_c, 1, 78, 0
2, 67200, Note_on_c, 1, 80, 96
2, 67290, Note_on_c, 1, 80, 0
2, 67320, Note_on_c, 1, 76, 96
2, 67365, Note_on_c, 1, 76, 0
2, 67380, Note_on_c, 1, 78, 96
2, 67425, Note_on_c, 1, 78, 0
2, 67440, Note_on_c, 1, 80, 96
2, 67530, Note_on_c, 1, 80, 0
2, 67560, Note_on_c, 1, 85, 96
2, 67650, Note_on_c, 1, 85, 0
2, 67680, Note_on_c, 1, 80, 96
2, 67770, Note_on_c, 1, 80, 0
2, 67800, Note_on_c, 1, 80, 96
2, 67845, Note_on_c, 1, 80, 0
2, 67860, Note_on_c, 1, 78, 96
2, 67905, Note_on_c, 1, 78, 0
2, 67920, Note_on_c, 1, 76, 96
2, 68010, Note_on_c, 1, 76, 0
2, 68040, Note_on_c, 1, 75, 96
2, 68085, Note_on_c, 1, 75, 0
2, 68100, Note_on_c, 1, 73, 96
2, 68145, Note_on_c, 1, 73, 0
2, 68160, Note_on_c, 1, 82, 96
2, 68205, Note_on_c, 1, 82, 0
2, 68220, Note_on_c, 1, 76, 96
2, 68265, Note_on_c, 1, 76, 0
2, 68280, Note_on_c, 1, 75, 96
2, 68325, Note_on_c, 1, 75, 0
2, 68340, Note_on_c, 1, 73, 96
2, 68385, Note_on_c, 1, 73, 0
2, 68400, Note_on_c, 1, 66, 96
2, 68445, Note_on_c, 1, 66, 0
2, 68460, Note_on_c, 1, 73, 96
2, 68505, Note_on_c, 1, 73, 0
2, 68520, Note_on_c, 1, 75, 96
2, 68565, Note_on_c, 1, 75, 0
2, 68580, Note_on_c, 1, 76, 96
2, 68625, Note_on_c, 1, 76, 0
2, 68640, Note_on_c, 1, 82, 96
2, 68685, Note_on_c, 1, 82, 0
2, 68700, Note_on_c, 1, 76, 96
2, 68745, Note_on_c, 1, 76, 0
2, 68760, Note_on_c, 1, 75, 96
2, 68805, Note_on_c, 1, 75, 0
2, 68820, Note_on_c, 1, 73, 96
2, 68865, Note_on_c, 1, 73, 0
2, 68880, Note_on_c, 1, 66, 96
2, 68925, Note_on_c, 1, 66, 0
2, 68940, Note_on_c, 1, 73, 96
2, 68985, Note_on_c, 1, 73, 0
2, 69000, Note_on_c, 1, 75, 96
2, 69045, Note_on_c, 1, 75, 0
2, 69060, Note_on_c, 1, 76, 96
2, 69105, Note_on_c, 1, 76, 0
2, 69120, Note_on_c, 1, 83, 96
2, 69165, Note_on_c, 1, 83, 0
2, 69180, Note_on_c, 1, 78, 96
2, 69225, Note_on_c, 1, 78, 0
2, 69240, Note_on_c, 1, 75, 96
2, 69285, Note_on_c, 1, 75, 0
2, 69300, Note_on_c, 1, 83, 96
2, 69345, Note_on_c, 1, 83, 0
2, 69360, Note_on_c, 1, 78, 96
2, 69405, Note_on_c, 1, 78, 0
2, 69420, Note_on_c, 1, 75, 96
2, 69465, Note_on_c, 1, 75, 0
2, 69480, Note_on_c, 1, 71, 96
2, 69525, Note_on_c, 1, 71, 0
2, 69540, Note_on_c, 1, 78, 96
2, 69585, Note_on_c, 1, 78, 0
2, 69600, Note_on_c, 1, 75, 96
2, 69645, Note_on_c, 1, 75, 0
2, 69660, Note_on_c, 1, 71, 96
2, 69705, Note_on_c, 1, 71, 0
2, 69720, Note_on_c, 1, 66, 96
2, 69765, Note_on_c, 1, 66, 0
2, 69780, Note_on_c, 1, 63, 96
2, 69825, Note_on_c, 1, 63, 0
2, 69840, Note_on_c, 1, 59, 96
2, 69930, Note_on_c, 1, 59, 0
2, 69960, Note_on_c, 1, 75, 96
2, 70005, Note_on_c, 1, 75, 0
2, 70020, Note_on_c, 1, 76, 96
2, 70065, Note_on_c, 1, 76, 0
2, 70080, Note_on_c, 1, 78, 96
2, 70170, Note_on_c, 1, 78, 0
2, 70200, Note_on_c, 1, 75, 96
2, 70245, Note_on_c, 1, 75, 0
2, 70260, Note_on_c, 1, 76, 96
2, 70305, Note_on_c, 1, 76, 0
2, 70320, Note_on_c, 1, 78, 96
2, 70410, Note_on_c, 1, 78, 0
2, 70440, Note_on_c, 1, 83, 96
2, 70530, Note_on_c, 1, 83, 0
2, 70560, Note_on_c, 1, 78, 96
2, 70650, Note_on_c, 1, 78, 0
2, 70680, Note_on_c, 1, 78, 96
2, 70725, Note_on_c, 1, 78, 0
2, 70740, Note_on_c, 1, 76, 96
2, 70785, Note_on_c, 1, 76, 0
2, 70800, Note_on_c, 1, 75, 96
2, 70890, Note_on_c, 1, 75, 0
2, 70920, Note_on_c, 1, 73, 96
2, 70965, Note_on_c, 1, 73, 0
2, 70980, Note_on_c, 1, 71, 96
2, 71025, Note_on_c, 1, 71, 0
2, 71040, Note_on_c, 1, 80, 96
2, 71085, Note_on_c, 1, 80, 0
2, 71100, Note_on_c, 1, 74, 96
2, 71145, Note_on_c, 1, 74, 0
2, 71160, Note_on_c, 1, 73, 96
2, 71205, Note_on_c, 1, 73, 0
2, 71220, Note_on_c, 1, 71, 96
2, 71265, Note_on_c, 1, 71, 0
2, 71280, Note_on_c, 1, 64, 96
2, 71325, Note_on_c, 1, 64, 0
2, 71340, Note_on_c, 1, 71, 96
2, 71385, Note_on_c, 1, 71, 0
2, 71400, Note_on_c, 1, 73, 96
2, 71445, Note_on_c, 1, 73, 0
2, 71460, Note_on_c, 1, 74, 96
2, 71505, Note_on_c, 1, 74, 0
2, 71520, Note_on_c, 1, 80, 96
2, 71565, Note_on_c, 1, 80, 0
2, 71580, Note_on_c, 1, 74, 96
2, 71625, Note_on_c, 1, 74, 0
2, 71640, Note_on_c, 1, 73, 96
2, 71685, Note_on_c, 1, 73, 0
2, 71700, Note_on_c, 1, 71, 96
2, 71745, Note_on_c, 1, 71, 0
2, 71760, Note_on_c, 1, 64, 96
2, 71805, Note_on_c, 1, 64, 0
2, 71820, Note_on_c, 1, 71, 96
2, 71865, Note_on_c, 1, 71, 0
2, 71880, Note_on_c, 1, 73, 96
2, 71925, Note_on_c, 1, 73, 0
2, 71940, Note_on_c, 1, 74, 96
2, 71985, Note_on_c, 1, 74, 0
2, 72000, Note_on_c, 1, 81, 96
2, 72045, Note_on_c, 1, 81, 0
2, 72060, Note_on_c, 1, 76, 96
2, 72105, Note_on_c, 1, 76, 0
2, 72120, Note_on_c, 1, 73, 96
2, 72165, Note_on_c, 1, 73, 0
2, 72180, Note_on_c, 1, 81, 96
2, 72225, Note_on_c, 1, 81, 0
2, 72240, Note_on_c, 1, 76, 96
2, 72285, Note_on_c, 1, 76, 0
2, 72300, Note_on_c, 1, 73, 96
2, 72345, Note_on_c, 1, 73, 0
2, 72360, Note_on_c, 1, 69, 96
2, 72405, Note_on_c, 1, 69, 0
2, 72420, Note_on_c, 1, 76, 96
2, 72465, Note_on_c, 1, 76, 0
2, 72480, Note_on_c, 1, 73, 96
2, 72525, Note_on_c, 1, 73, 0
2, 72540, Note_on_c, 1, 69, 96
2, 72585, Note_on_c, 1, 69, 0
2, 72600, Note_on_c, 1, 64, 96
2, 72645, Note_on_c, 1, 64, 0
2, 72660, Note_on_c, 1, 61, 96
2, 72705, Note_on_c, 1, 61, 0
2, 72720, Note_on_c, 1, 57, 96
2, 72810, Note_on_c, 1, 57, 0
2, 72840, Note_on_c, 1, 61, 96
2, 72885, Note_on_c, 1, 61, 0
2, 72900, Note_on_c, 1, 62, 96
2, 72945, Note_on_c, 1, 62, 0
2, 72960, Note_on_c, 1, 64, 96
2, 73050, Note_on_c, 1, 64, 0
2, 73080, Note_on_c, 1, 61, 96
2, 73125, Note_on_c, 1, 61, 0
2, 73140, Note_on_c, 1, 62, 96
2, 73185, Note_on_c, 1, 62, 0
2, 73200, Note_on_c, 1, 64, 96
2, 73290, Note_on_c, 1, 64, 0
2, 73320, Note_on_c, 1, 69, 96
2, 73410, Note_on_c, 1, 69, 0
2, 73440, Note_on_c, 1, 64, 96
2, 73530, Note_on_c, 1, 64, 0
2, 73560, Note_on_c, 1, 64, 96
2, 73605, Note_on_c, 1, 64, 0
2, 73620, Note_on_c, 1, 62, 96
2, 73665, Note_on_c, 1, 62, 0
2, 73680, Note_on_c, 1, 61, 96
2, 73770, Note_on_c, 1, 61, 0
2, 73800, Note_on_c, 1, 59, 96
2, 73845, Note_on_c, 1, 59, 0
2, 73860, Note_on_c, 1, 57, 96
2, 73905, Note_on_c, 1, 57, 0
2, 73920, Note_on_c, 1, 74, 96
2, 73965, Note_on_c, 1, 74, 0
2, 73980, Note_on_c, 1, 76, 96
2, 74025, Note_on_c, 1, 76, 0
2, 74040, Note_on_c, 1, 74, 96
2, 74085, Note_on_c, 1, 74, 0
2, 74100, Note_on_c, 1, 71, 96
2, 74145, Note_on_c, 1, 71, 0
2, 74160, Note_on_c, 1, 73, 96
2, 74205, Note_on_c, 1, 73, 0
2, 74220, Note_on_c, 1, 74, 96
2, 74265, Note_on_c, 1, 74, 0
2, 74280, Note_on_c, 1, 73, 96
2, 74325, Note_on_c, 1, 73, 0
2, 74340, Note_on_c, 1, 69, 96
2, 74385, Note_on_c, 1, 69, 0
2, 74400, Note_on_c, 1, 71, 96
2, 74445, Note_on_c, 1, 71, 0
2, 74460, Note_on_c, 1, 64, 96
2, 74505, Note_on_c, 1, 64, 0
2, 74520, Note_on_c, 1, 66, 96
2, 74565, Note_on_c, 1, 66, 0
2, 74580, Note_on_c, 1, 68, 96
2, 74625, Note_on_c, 1, 68, 0
2, 74640, Note_on_c, 1, 69, 96
2, 74685, Note_on_c, 1, 69, 0
2, 74700, Note_on_c, 1, 71, 96
2, 74745, Note_on_c, 1, 71, 0
2, 74760, Note_on_c, 1, 73, 96
2, 74805, Note_on_c, 1, 73, 0
2, 74820, Note_on_c, 1, 74, 96
2, 74865, Note_on_c, 1, 74, 0
2, 74880, Note_on_c, 1, 76, 96
2, 74925, Note_on_c, 1, 76, 0
2, 74940, Note_on_c, 1, 76, 96
2, 74985, Note_on_c, 1, 76, 0
2, 75000, Note_on_c, 1, 76, 96
2, 75045, Note_on_c, 1, 76, 0
2, 75060, Note_on_c, 1, 76, 96
2, 75105, Note_on_c, 1, 76, 0
2, 75120, Note_on_c, 1, 76, 96
2, 75165, Note_on_c, 1, 76, 0
2, 75180, Note_on_c, 1, 76, 96
2, 75225, Note_on_c, 1, 76, 0
2, 75240, Note_on_c, 1, 76, 96
2, 75285, Note_on_c, 1, 76, 0
2, 75300, Note_on_c, 1, 76, 96
2, 75345, Note_on_c, 1, 76, 0
2, 75360, Note_on_c, 1, 76, 96
2, 75405, Note_on_c, 1, 76, 0
2, 75420, Note_on_c, 1, 80, 96
2, 75465, Note_on_c, 1, 80, 0
2, 75480, Note_on_c, 1, 82, 96
2, 75525, Note_on_c, 1, 82, 0
2, 75540, Note_on_c, 1, 83, 96
2, 75585, Note_on_c, 1, 83, 0
2, 75600, Note_on_c, 1, 85, 96
2, 75645, Note_on_c, 1, 85, 0
2, 75660, Note_on_c, 1, 79, 96
2, 75705, Note_on_c, 1, 79, 0
2, 75720, Note_on_c, 1, 78, 96
2, 75765, Note_on_c, 1, 78, 0
2, 75780, Note_on_c, 1, 76, 96
2, 75825, Note_on_c, 1, 76, 0
2, 75840, Note_on_c, 1, 74, 96
2, 75885, Note_on_c, 1, 74, 0
2, 75900, Note_on_c, 1, 74, 96
2, 75945, Note_on_c, 1, 74, 0
2, 75960, Note_on_c, 1, 74, 96
2, 76005, Note_on_c, 1, 74, 0
2, 76020, Note_on_c, 1, 74, 96
2, 76065, Note_on_c, 1, 74, 0
2, 76080, Note_on_c, 1, 74, 96
2, 76125, Note_on_c, 1, 74, 0
2, 76140, Note_on_c, 1, 74, 96
2, 76185, Note_on_c, 1, 74, 0
2, 76200, Note_on_c, 1, 74, 96
2, 76245, Note_on_c, 1, 74, 0
2, 76260, Note_on_c, 1, 74, 96
2, 76305, Note_on_c, 1, 74, 0
2, 76320, Note_on_c, 1, 74, 96
2, 76365, Note_on_c, 1, 74, 0
2, 76380, Note_on_c, 1, 76, 96
2, 76403, Note_on_c, 1, 76, 0
2, 76410, Note_on_c, 1, 78, 96
2, 76433, Note_on_c, 1, 78, 0
2, 76440, Note_on_c, 1, 80, 96
2, 76485, Note_on_c, 1, 80, 0
2, 76500, Note_on_c, 1, 81, 96
2, 76545, Note_on_c, 1, 81, 0
2, 76560, Note_on_c, 1, 83, 96
2, 76605, Note_on_c, 1, 83, 0
2, 76620, Note_on_c, 1, 78, 96
2, 76665, Note_on_c, 1, 78, 0
2, 76680, Note_on_c, 1, 76, 96
2, 76725, Note_on_c, 1, 76, 0
2, 76740, Note_on_c, 1, 74, 96
2, 76785, Note_on_c, 1, 74, 0
2, 76800, Note_on_c, 1, 73, 96
2, 76845, Note_on_c, 1, 73, 0
2, 76860, Note_on_c, 1, 73, 96
2, 76905, Note_on_c, 1, 73, 0
2, 76920, Note_on_c, 1, 73, 96
2, 76965, Note_on_c, 1, 73, 0
2, 76980, Note_on_c, 1, 73, 96
2, 77025, Note_on_c, 1, 73, 0
2, 77040, Note_on_c, 1, 73, 96
2, 77085, Note_on_c, 1, 73, 0
2, 77100, Note_on_c, 1, 73, 96
2, 77145, Note_on_c, 1, 73, 0
2, 77160, Note_on_c, 1, 73, 96
2, 77205, Note_on_c, 1, 73, 0
2, 77220, Note_on_c, 1, 73, 96
2, 77265, Note_on_c, 1, 73, 0
2, 77280, Note_on_c, 1, 74, 96
2, 77325, Note_on_c, 1, 74, 0
2, 77340, Note_on_c, 1, 80, 96
2, 77363, Note_on_c, 1, 80, 0
2, 77370, Note_on_c, 1, 81, 96
2, 77393, Note_on_c, 1, 81, 0
2, 77400, Note_on_c, 1, 83, 96
2, 77445, Note_on_c, 1, 83, 0
2, 77460, Note_on_c, 1, 80, 96
2, 77505, Note_on_c, 1, 80, 0
2, 77520, Note_on_c, 1, 73, 96
2, 77565, Note_on_c, 1, 73, 0
2, 77580, Note_on_c, 1, 78, 96
2, 77603, Note_on_c, 1, 78, 0
2, 77610, Note_on_c, 1, 80, 96
2, 77633, Note_on_c, 1, 80, 0
2, 77640, Note_on_c, 1, 81, 96
2, 77685, Note_on_c, 1, 81, 0
2, 77700, Note_on_c, 1, 78, 96
2, 77745, Note_on_c, 1, 78, 0
2, 77760, Note_on_c, 1, 71, 96
2, 77805, Note_on_c, 1, 71, 0
2, 77820, Note_on_c, 1, 76, 96
2, 77843, Note_on_c, 1, 76, 0
2, 77850, Note_on_c, 1, 78, 96
2, 77873, Note_on_c, 1, 78, 0
2, 77880, Note_on_c, 1, 80, 96
2, 77925, Note_on_c, 1, 80, 0
2, 77940, Note_on_c, 1, 76, 96
2, 77985, Note_on_c, 1, 76, 0
2, 78000, Note_on_c, 1, 69, 96
2, 78045, Note_on_c, 1, 69, 0
2, 78060, Note_on_c, 1, 74, 96
2, 78083, Note_on_c, 1, 74, 0
2, 78090, Note_on_c, 1, 76, 96
2, 78113, Note_on_c, 1, 76, 0
2, 78120, Note_on_c, 1, 78, 96
2, 78165, Note_on_c, 1, 78, 0
2, 78180, Note_on_c, 1, 74, 96
2, 78225, Note_on_c, 1, 74, 0
2, 78240, Note_on_c, 1, 68, 96
2, 78285, Note_on_c, 1, 68, 0
2, 78300, Note_on_c, 1, 74, 96
2, 78345, Note_on_c, 1, 74, 0
2, 78360, Note_on_c, 1, 76, 96
2, 78405, Note_on_c, 1, 76, 0
2, 78420, Note_on_c, 1, 74, 96
2, 78465, Note_on_c, 1, 74, 0
2, 78480, Note_on_c, 1, 76, 96
2, 78525, Note_on_c, 1, 76, 0
2, 78540, Note_on_c, 1, 74, 96
2, 78585, Note_on_c, 1, 74, 0
2, 78600, Note_on_c, 1, 76, 96
2, 78645, Note_on_c, 1, 76, 0
2, 78660, Note_on_c, 1, 74, 96
2, 78705, Note_on_c, 1, 74, 0
2, 78720, Note_on_c, 1, 68, 96
2, 78765, Note_on_c, 1, 68, 0
2, 78780, Note_on_c, 1, 74, 96
2, 78825, Note_on_c, 1, 74, 0
2, 78840, Note_on_c, 1, 76, 96
2, 78885, Note_on_c, 1, 76, 0
2, 78900, Note_on_c, 1, 74, 96
2, 78945, Note_on_c, 1, 74, 0
2, 78960, Note_on_c, 1, 76, 96
2, 79005, Note_on_c, 1, 76, 0
2, 79020, Note_on_c, 1, 74, 96
2, 79065, Note_on_c, 1, 74, 0
2, 79080, Note_on_c, 1, 76, 96
2, 79125, Note_on_c, 1, 76, 0
2, 79140, Note_on_c, 1, 74, 96
2, 79185, Note_on_c, 1, 74, 0
2, 79200, Note_on_c, 1, 68, 96
2, 79245, Note_on_c, 1, 68, 0
2, 79260, Note_on_c, 1, 74, 96
2, 79305, Note_on_c, 1, 74, 0
2, 79320, Note_on_c, 1, 76, 96
2, 79365, Note_on_c, 1, 76, 0
2, 79380, Note_on_c, 1, 74, 96
2, 79425, Note_on_c, 1, 74, 0
2, 79440, Note_on_c, 1, 76, 96
2, 79485, Note_on_c, 1, 76, 0
2, 79500, Note_on_c, 1, 74, 96
2, 79545, Note_on_c, 1, 74, 0
2, 79560, Note_on_c, 1, 76, 96
2, 79605, Note_on_c, 1, 76, 0
2, 79620, Note_on_c, 1, 74, 96
2, 79665, Note_on_c, 1, 74, 0
2, 79680, Note_on_c, 1, 68, 96
2, 79725, Note_on_c, 1, 68, 0
2, 79740, Note_on_c, 1, 74, 96
2, 79785, Note_on_c, 1, 74, 0
2, 79800, Note_on_c, 1, 76, 96
2, 79845, Note_on_c, 1, 76, 0
2, 79860, Note_on_c, 1, 74, 96
2, 79905, Note_on_c, 1, 74, 0
2, 79920, Note_on_c, 1, 76, 96
2, 79965, Note_on_c, 1, 76, 0
2, 79980, Note_on_c, 1, 74, 96
2, 80025, Note_on_c, 1, 74, 0
2, 80040, Note_on_c, 1, 76, 96
2, 80085, Note_on_c, 1, 76, 0
2, 80100, Note_on_c, 1, 74, 96
2, 80145, Note_on_c, 1, 74, 0
2, 80160, Note_on_c, 1, 67, 96
2, 80205, Note_on_c, 1, 67, 0
2, 80220, Note_on_c, 1, 73, 96
2, 80265, Note_on_c, 1, 73, 0
2, 80280, Note_on_c, 1, 76, 96
2, 80325, Note_on_c, 1, 76, 0
2, 80340, Note_on_c, 1, 73, 96
2, 80385, Note_on_c, 1, 73, 0
2, 80400, Note_on_c, 1, 76, 96
2, 80445, Note_on_c, 1, 76, 0
2, 80460, Note_on_c, 1, 73, 96
2, 80505, Note_on_c, 1, 73, 0
2, 80520, Note_on_c, 1, 76, 96
2, 80565, Note_on_c, 1, 76, 0
2, 80580, Note_on_c, 1, 73, 96
2, 80625, Note_on_c, 1, 73, 0
2, 80640, Note_on_c, 1, 67, 96
2, 80685, Note_on_c, 1, 67, 0
2, 80700, Note_on_c, 1, 73, 96
2, 80745, Note_on_c, 1, 73, 0
2, 80760, Note_on_c, 1, 76, 96
2, 80805, Note_on_c, 1, 76, 0
2, 80820, Note_on_c, 1, 73, 96
2, 80865, Note_on_c, 1, 73, 0
2, 80880, Note_on_c, 1, 76, 96
2, 80925, Note_on_c, 1, 76, 0
2, 80940, Note_on_c, 1, 73, 96
2, 80985, Note_on_c, 1, 73, 0
2, 81000, Note_on_c, 1, 76, 96
2, 81045, Note_on_c, 1, 76, 0
2, 81060, Note_on_c, 1, 73, 96
2, 81105, Note_on_c, 1, 73, 0
2, 81120, Note_on_c, 1, 67, 96
2, 81174, Note_on_c, 1, 67, 0
2, 81180, Note_on_c, 1, 73, 96
2, 81234, Note_on_c, 1, 73, 0
2, 81240, Note_on_c, 1, 76, 96
2, 81294, Note_on_c, 1, 76, 0
2, 81300, Note_on_c, 1, 73, 96
2, 81354, Note_on_c, 1, 73, 0
2, 81360, Note_on_c, 1, 76, 96
2, 81414, Note_on_c, 1, 76, 0
2, 81420, Note_on_c, 1, 73, 96
2, 81474, Note_on_c, 1, 73, 0
2, 81480, Note_on_c, 1, 76, 96
2, 81534, Note_on_c, 1, 76, 0
2, 81540, Note_on_c, 1, 73, 96
2, 81594, Note_on_c, 1, 73, 0
2, 81600, Note_on_c, 1, 67, 96
2, 81654, Note_on_c, 1, 67, 0
2, 81660, Note_on_c, 1, 73, 96
2, 81714, Note_on_c, 1, 73, 0
2, 81720, Note_on_c, 1, 76, 96
2, 81774, Note_on_c, 1, 76, 0
2, 81780, Note_on_c, 1, 73, 96
2, 81834, Note_on_c, 1, 73, 0
2, 81840, Note_on_c, 1, 76, 96
2, 81894, Note_on_c, 1, 76, 0
2, 81900, Note_on_c, 1, 73, 96
2, 81954, Note_on_c, 1, 73, 0
2, 81960, Note_on_c, 1, 76, 96
2, 82014, Note_on_c, 1, 76, 0
2, 82020, Note_on_c, 1, 73, 96
2, 82074, Note_on_c, 1, 73, 0
2, 82080, Note_on_c, 1, 66, 96
2, 82125, Note_on_c, 1, 66, 0
2, 82140, Note_on_c, 1, 73, 96
2, 82185, Note_on_c, 1, 73, 0
2, 82200, Note_on_c, 1, 76, 96
2, 82245, Note_on_c, 1, 76, 0
2, 82260, Note_on_c, 1, 73, 96
2, 82305, Note_on_c, 1, 73, 0
2, 82320, Note_on_c, 1, 76, 96
2, 82365, Note_on_c, 1, 76, 0
2, 82380, Note_on_c, 1, 73, 96
2, 82425, Note_on_c, 1, 73, 0
2, 82440, Note_on_c, 1, 76, 96
2, 82485, Note_on_c, 1, 76, 0
2, 82500, Note_on_c, 1, 73, 96
2, 82545, Note_on_c, 1, 73, 0
2, 82560, Note_on_c, 1, 66, 96
2, 82605, Note_on_c, 1, 66, 0
2, 82620, Note_on_c, 1, 73, 96
2, 82665, Note_on_c, 1, 73, 0
2, 82680, Note_on_c, 1, 76, 96
2, 82725, Note_on_c, 1, 76, 0
2, 82740, Note_on_c, 1, 73, 96
2, 82785, Note_on_c, 1, 73, 0
2, 82800, Note_on_c, 1, 76, 96
2, 82845, Note_on_c, 1, 76, 0
2, 82860, Note_on_c, 1, 73, 96
2, 82905, Note_on_c, 1, 73, 0
2, 82920, Note_on_c, 1, 76, 96
2, 82965, Note_on_c, 1, 76, 0
2, 82980, Note_on_c, 1, 73, 96
2, 83025, Note_on_c, 1, 73, 0
2, 83040, Note_on_c, 1, 66, 96
2, 83094, Note_on_c, 1, 66, 0
2, 83100, Note_on_c, 1, 73, 96
2, 83154, Note_on_c, 1, 73, 0
2, 83160, Note_on_c, 1, 76, 96
2, 83214, Note_on_c, 1, 76, 0
2, 83220, Note_on_c, 1, 73, 96
2, 83274, Note_on_c, 1, 73, 0
2, 83280, Note_on_c, 1, 76, 96
2, 83334, Note_on_c, 1, 76, 0
2, 83340, Note_on_c, 1, 73, 96
2, 83394, Note_on_c, 1, 73, 0
2, 83400, Note_on_c, 1, 76, 96
2, 83454, Note_on_c, 1, 76, 0
2, 83460, Note_on_c, 1, 73, 96
2, 83514, Note_on_c, 1, 73, 0
2, 83520, Note_on_c, 1, 66, 96
2, 83565, Note_on_c, 1, 66, 0
2, 83580, Note_on_c, 1, 73, 96
2, 83625, Note_on_c, 1, 73, 0
2, 83640, Note_on_c, 1, 76, 96
2, 83685, Note_on_c, 1, 76, 0
2, 83700, Note_on_c, 1, 73, 96
2, 83745, Note_on_c, 1, 73, 0
2, 83760, Note_on_c, 1, 76, 96
2, 83805, Note_on_c, 1, 76, 0
2, 83820, Note_on_c, 1, 73, 96
2, 83865, Note_on_c, 1, 73, 0
2, 83880, Note_on_c, 1, 76, 96
2, 83925, Note_on_c, 1, 76, 0
2, 83940, Note_on_c, 1, 73, 96
2, 83985, Note_on_c, 1, 73, 0
2, 84000, Note_on_c, 1, 66, 96
2, 84045, Note_on_c, 1, 66, 0
2, 84060, Note_on_c, 1, 74, 96
2, 84105, Note_on_c, 1, 74, 0
2, 84120, Note_on_c, 1, 83, 96
2, 84165, Note_on_c, 1, 83, 0
2, 84180, Note_on_c, 1, 74, 96
2, 84225, Note_on_c, 1, 74, 0
2, 84240, Note_on_c, 1, 83, 96
2, 84285, Note_on_c, 1, 83, 0
2, 84300, Note_on_c, 1, 74, 96
2, 84345, Note_on_c, 1, 74, 0
2, 84360, Note_on_c, 1, 83, 96
2, 84405, Note_on_c, 1, 83, 0
2, 84420, Note_on_c, 1, 74, 96
2, 84465, Note_on_c, 1, 74, 0
2, 84480, Note_on_c, 1, 66, 96
2, 84525, Note_on_c, 1, 66, 0
2, 84540, Note_on_c, 1, 74, 96
2, 84585, Note_on_c, 1, 74, 0
2, 84600, Note_on_c, 1, 83, 96
2, 84645, Note_on_c, 1, 83, 0
2, 84660, Note_on_c, 1, 74, 96
2, 84705, Note_on_c, 1, 74, 0
2, 84720, Note_on_c, 1, 83, 96
2, 84765, Note_on_c, 1, 83, 0
2, 84780, Note_on_c, 1, 74, 96
2, 84825, Note_on_c, 1, 74, 0
2, 84840, Note_on_c, 1, 83, 96
2, 84885, Note_on_c, 1, 83, 0
2, 84900, Note_on_c, 1, 74, 96
2, 84945, Note_on_c, 1, 74, 0
2, 84960, Note_on_c, 1, 66, 96
2, 85014, Note_on_c, 1, 66, 0
2, 85020, Note_on_c, 1, 74, 96
2, 85074, Note_on_c, 1, 74, 0
2, 85080, Note_on_c, 1, 83, 96
2, 85134, Note_on_c, 1, 83, 0
2, 85140, Note_on_c, 1, 74, 96
2, 85194, Note_on_c, 1, 74, 0
2, 85200, Note_on_c, 1, 83, 96
2, 85254, Note_on_c, 1, 83, 0
2, 85260, Note_on_c, 1, 74, 96
2, 85314, Note_on_c, 1, 74, 0
2, 85320, Note_on_c, 1, 83, 96
2, 85374, Note_on_c, 1, 83, 0
2, 85380, Note_on_c, 1, 74, 96
2, 85434, Note_on_c, 1, 74, 0
2, 85440, Note_on_c, 1, 66, 96
2, 85494, Note_on_c, 1, 66, 0
2, 85500, Note_on_c, 1, 74, 96
2, 85554, Note_on_c, 1, 74, 0
2, 85560, Note_on_c, 1, 83, 96
2, 85614, Note_on_c, 1, 83, 0
2, 85620, Note_on_c, 1, 74, 96
2, 85674, Note_on_c, 1, 74, 0
2, 85680, Note_on_c, 1, 83, 96
2, 85734, Note_on_c, 1, 83, 0
2, 85740, Note_on_c, 1, 74, 96
2, 85794, Note_on_c, 1, 74, 0
2, 85800, Note_on_c, 1, 83, 96
2, 85854, Note_on_c, 1, 83, 0
2, 85860, Note_on_c, 1, 74, 96
2, 85914, Note_on_c, 1, 74, 0
2, 85920, Note_on_c, 1, 65, 96
2, 85965, Note_on_c, 1, 65, 0
2, 85980, Note_on_c, 1, 73, 96
2, 86025, Note_on_c, 1, 73, 0
2, 86040, Note_on_c, 1, 83, 96
2, 86085, Note_on_c, 1, 83, 0
2, 86100, Note_on_c, 1, 73, 96
2, 86145, Note_on_c, 1, 73, 0
2, 86160, Note_on_c, 1, 83, 96
2, 86205, Note_on_c, 1, 83, 0
2, 86220, Note_on_c, 1, 73, 96
2, 86265, Note_on_c, 1, 73, 0
2, 86280, Note_on_c, 1, 83, 96
2, 86325, Note_on_c, 1, 83, 0
2, 86340, Note_on_c, 1, 73, 96
2, 86385, Note_on_c, 1, 73, 0
2, 86400, Note_on_c, 1, 65, 96
2, 86445, Note_on_c, 1, 65, 0
2, 86460, Note_on_c, 1, 73, 96
2, 86505, Note_on_c, 1, 73, 0
2, 86520, Note_on_c, 1, 83, 96
2, 86565, Note_on_c, 1, 83, 0
2, 86580, Note_on_c, 1, 73, 96
2, 86625, Note_on_c, 1, 73, 0
2, 86640, Note_on_c, 1, 83, 96
2, 86685, Note_on_c, 1, 83, 0
2, 86700, Note_on_c, 1, 73, 96
2, 86745, Note_on_c, 1, 73, 0
2, 86760, Note_on_c, 1, 83, 96
2, 86805, Note_on_c, 1, 83, 0
2, 86820, Note_on_c, 1, 73, 96
2, 86865, Note_on_c, 1, 73, 0
2, 86880, Note_on_c, 1, 65, 96
2, 86934, Note_on_c, 1, 65, 0
2, 86940, Note_on_c, 1, 73, 96
2, 86994, Note_on_c, 1, 73, 0
2, 87000, Note_on_c, 1, 83, 96
2, 87054, Note_on_c, 1, 83, 0
2, 87060, Note_on_c, 1, 73, 96
2, 87114, Note_on_c, 1, 73, 0
2, 87120, Note_on_c, 1, 83, 96
2, 87174, Note_on_c, 1, 83, 0
2, 87180, Note_on_c, 1, 73, 96
2, 87234, Note_on_c, 1, 73, 0
2, 87240, Note_on_c, 1, 83, 96
2, 87294, Note_on_c, 1, 83, 0
2, 87300, Note_on_c, 1, 73, 96
2, 87354, Note_on_c, 1, 73, 0
2, 87360, Note_on_c, 1, 65, 96
2, 87414, Note_on_c, 1, 65, 0
2, 87420, Note_on_c, 1, 73, 96
2, 87474, Note_on_c, 1, 73, 0
2, 87480, Note_on_c, 1, 83, 96
2, 87534, Note_on_c, 1, 83, 0
2, 87540, Note_on_c, 1, 73, 96
2, 87594, Note_on_c, 1, 73, 0
2, 87600, Note_on_c, 1, 83, 96
2, 87654, Note_on_c, 1, 83, 0
2, 87660, Note_on_c, 1, 73, 96
2, 87714, Note_on_c, 1, 73, 0
2, 87720, Note_on_c, 1, 83, 96
2, 87774, Note_on_c, 1, 83, 0
2, 87780, Note_on_c, 1, 73, 96
2, 87834, Note_on_c, 1, 73, 0
2, 87840, Note_on_c, 1, 81, 96
2, 87930, Note_on_c, 1, 81, 0
2, 87960, Note_on_c, 1, 80, 96
2, 88005, Note_on_c, 1, 80, 0
2, 88020, Note_on_c, 1, 78, 96
2, 88065, Note_on_c, 1, 78, 0
2, 88080, Note_on_c, 1, 80, 96
2, 88170, Note_on_c, 1, 80, 0
2, 88200, Note_on_c, 1, 78, 96
2, 88245, Note_on_c, 1, 78, 0
2, 88260, Note_on_c, 1, 77, 96
2, 88305, Note_on_c, 1, 77, 0
2, 88320, Note_on_c, 1, 78, 96
2, 88365, Note_on_c, 1, 78, 0
2, 88380, Note_on_c, 1, 78, 96
2, 88425, Note_on_c, 1, 78, 0
2, 88440, Note_on_c, 1, 76, 96
2, 88485, Note_on_c, 1, 76, 0
2, 88500, Note_on_c, 1, 78, 96
2, 88545, Note_on_c, 1, 78, 0
2, 88560, Note_on_c, 1, 74, 96
2, 88605, Note_on_c, 1, 74, 0
2, 88620, Note_on_c, 1, 78, 96
2, 88665, Note_on_c, 1, 78, 0
2, 88680, Note_on_c, 1, 73, 96
2, 88725, Note_on_c, 1, 73, 0
2, 88740, Note_on_c, 1, 78, 96
2, 88785, Note_on_c, 1, 78, 0
2, 88800, Note_on_c, 1, 74, 96
2, 88845, Note_on_c, 1, 74, 0
2, 88860, Note_on_c, 1, 78, 96
2, 88905, Note_on_c, 1, 78, 0
2, 88920, Note_on_c, 1, 73, 96
2, 88965, Note_on_c, 1, 73, 0
2, 88980, Note_on_c, 1, 78, 96
2, 89025, Note_on_c, 1, 78, 0
2, 89040, Note_on_c, 1, 71, 96
2, 89085, Note_on_c, 1, 71, 0
2, 89100, Note_on_c, 1, 78, 96
2, 89145, Note_on_c, 1, 78, 0
2, 89160, Note_on_c, 1, 69, 96
2, 89205, Note_on_c, 1, 69, 0
2, 89220, Note_on_c, 1, 78, 96
2, 89265, Note_on_c, 1, 78, 0
2, 89280, Note_on_c, 1, 68, 96
2, 89325, Note_on_c, 1, 68, 0
2, 89340, Note_on_c, 1, 71, 96
2, 89385, Note_on_c, 1, 71, 0
2, 89400, Note_on_c, 1, 74, 96
2, 89580, Note_on_c, 1, 74, 0
2, 89640, Note_on_c, 1, 73, 96
2, 89730, Note_on_c, 1, 73, 0
2, 89760, Note_on_c, 1, 71, 96
2, 89805, Note_on_c, 1, 71, 0
2, 89820, Note_on_c, 1, 69, 96
2, 89865, Note_on_c, 1, 69, 0
2, 89880, Note_on_c, 1, 68, 96
2, 89925, Note_on_c, 1, 68, 0
2, 89940, Note_on_c, 1, 66, 96
2, 89985, Note_on_c, 1, 66, 0
2, 90000, Note_on_c, 1, 69, 96
2, 90045, Note_on_c, 1, 69, 0
2, 90060, Note_on_c, 1, 68, 96
2, 90105, Note_on_c, 1, 68, 0
2, 90120, Note_on_c, 1, 66, 96
2, 90165, Note_on_c, 1, 66, 0
2, 90180, Note_on_c, 1, 65, 96
2, 90225, Note_on_c, 1, 65, 0
2, 90240, Note_on_c, 1, 66, 96
2, 90330, Note_on_c, 1, 66, 0
2, 90360, Note_on_c, 1, 73, 96
2, 90450, Note_on_c, 1, 73, 0
2, 90480, Note_on_c, 1, 78, 96
2, 90570, Note_on_c, 1, 78, 0
2, 90600, Note_on_c, 1, 69, 96
2, 90690, Note_on_c, 1, 69, 0
2, 90720, Note_on_c, 1, 68, 96
2, 90765, Note_on_c, 1, 68, 0
2, 90780, Note_on_c, 1, 71, 96
2, 90825, Note_on_c, 1, 71, 0
2, 90840, Note_on_c, 1, 74, 96
2, 90885, Note_on_c, 1, 74, 0
2, 90900, Note_on_c, 1, 78, 96
2, 90945, Note_on_c, 1, 78, 0
2, 90960, Note_on_c, 1, 76, 96
2, 91050, Note_on_c, 1, 76, 0
2, 91080, Note_on_c, 1, 80, 112
2, 91080, Note_on_c, 1, 76, 112
2, 91170, Note_on_c, 1, 76, 0
2, 91170, Note_on_c, 1, 80, 0
2, 91200, Note_on_c, 1, 76, 112
2, 91290, Note_on_c, 1, 76, 0
2, 91320, Note_on_c, 1, 74, 96
2, 91365, Note_on_c, 1, 74, 0
2, 91380, Note_on_c, 1, 73, 96
2, 91425, Note_on_c, 1, 73, 0
2, 91440, Note_on_c, 1, 74, 96
2, 91530, Note_on_c, 1, 74, 0
2, 91560, Note_on_c, 1, 74, 112
2, 91650, Note_on_c, 1, 74, 0
2, 91680, Note_on_c, 1, 74, 112
2, 91770, Note_on_c, 1, 74, 0
2, 91800, Note_on_c, 1, 73, 96
2, 91845, Note_on_c, 1, 73, 0
2, 91860, Note_on_c, 1, 71, 96
2, 91905, Note_on_c, 1, 71, 0
2, 91920, Note_on_c, 1, 73, 96
2, 92010, Note_on_c, 1, 73, 0
2, 92040, Note_on_c, 1, 73, 96
2, 92130, Note_on_c, 1, 73, 0
2, 92160, Note_on_c, 1, 75, 96
2, 92340, Note_on_c, 1, 75, 0
2, 92520, Note_on_c, 1, 76, 96
2, 92610, Note_on_c, 1, 76, 0
2, 92640, Note_on_c, 1, 76, 96
2, 92685, Note_on_c, 1, 76, 0
2, 92700, Note_on_c, 1, 73, 96
2, 92745, Note_on_c, 1, 73, 0
2, 92760, Note_on_c, 1, 70, 96
2, 92805, Note_on_c, 1, 70, 0
2, 92820, Note_on_c, 1, 66, 96
2, 92865, Note_on_c, 1, 66, 0
2, 92880, Note_on_c, 1, 70, 96
2, 92925, Note_on_c, 1, 70, 0
2, 92940, Note_on_c, 1, 73, 96
2, 92985, Note_on_c, 1, 73, 0
2, 93000, Note_on_c, 1, 76, 96
2, 93045, Note_on_c, 1, 76, 0
2, 93060, Note_on_c, 1, 75, 96
2, 93105, Note_on_c, 1, 75, 0
2, 93120, Note_on_c, 1, 76, 96
2, 93210, Note_on_c, 1, 76, 0
2, 93240, Note_on_c, 1, 73, 96
2, 93285, Note_on_c, 1, 73, 0
2, 93300, Note_on_c, 1, 75, 96
2, 93345, Note_on_c, 1, 75, 0
2, 93360, Note_on_c, 1, 76, 96
2, 93450, Note_on_c, 1, 76, 0
2, 93480, Note_on_c, 1, 76, 96
2, 93570, Note_on_c, 1, 76, 0
2, 93600, Note_on_c, 1, 76, 96
2, 93690, Note_on_c, 1, 76, 0
2, 93720, Note_on_c, 1, 75, 96
2, 93765, Note_on_c, 1, 75, 0
2, 93780, Note_on_c, 1, 73, 96
2, 93825, Note_on_c, 1, 73, 0
2, 93840, Note_on_c, 1, 75, 96
2, 93930, Note_on_c, 1, 75, 0
2, 93960, Note_on_c, 1, 71, 96
2, 94005, Note_on_c, 1, 71, 0
2, 94020, Note_on_c, 1, 73, 96
2, 94065, Note_on_c, 1, 73, 0
2, 94080, Note_on_c, 1, 74, 96
2, 94170, Note_on_c, 1, 74, 0
2, 94200, Note_on_c, 1, 71, 96
2, 94245, Note_on_c, 1, 71, 0
2, 94260, Note_on_c, 1, 73, 96
2, 94305, Note_on_c, 1, 73, 0
2, 94320, Note_on_c, 1, 74, 96
2, 94410, Note_on_c, 1, 74, 0
2, 94440, Note_on_c, 1, 73, 96
2, 94485, Note_on_c, 1, 73, 0
2, 94500, Note_on_c, 1, 71, 96
2, 94545, Note_on_c, 1, 71, 0
2, 94560, Note_on_c, 1, 73, 96
2, 94650, Note_on_c, 1, 73, 0
2, 94680, Note_on_c, 1, 69, 96
2, 94725, Note_on_c, 1, 69, 0
2, 94740, Note_on_c, 1, 71, 96
2, 94785, Note_on_c, 1, 71, 0
2, 94800, Note_on_c, 1, 73, 96
2, 94890, Note_on_c, 1, 73, 0
2, 94920, Note_on_c, 1, 71, 96
2, 94965, Note_on_c, 1, 71, 0
2, 94980, Note_on_c, 1, 69, 96
2, 95025, Note_on_c, 1, 69, 0
2, 95040, Note_on_c, 1, 81, 96
2, 95130, Note_on_c, 1, 81, 0
2, 95160, Note_on_c, 1, 78, 96
2, 95205, Note_on_c, 1, 78, 0
2, 95220, Note_on_c, 1, 80, 96
2, 95265, Note_on_c, 1, 80, 0
2, 95280, Note_on_c, 1, 81, 96
2, 95370, Note_on_c, 1, 81, 0
2, 95400, Note_on_c, 1, 80, 96
2, 95445, Note_on_c, 1, 80, 0
2, 95460, Note_on_c, 1, 78, 96
2, 95505, Note_on_c, 1, 78, 0
2, 95520, Note_on_c, 1, 80, 96
2, 95700, Note_on_c, 1, 80, 0
2, 95760, Note_on_c, 1, 80, 96
2, 95850, Note_on_c, 1, 80, 0
2, 95880, Note_on_c, 1, 80, 96
2, 95970, Note_on_c, 1, 80, 0
2, 96000, Note_on_c, 1, 80, 96
2, 96090, Note_on_c, 1, 80, 0
2, 96120, Note_on_c, 1, 81, 96
2, 96165, Note_on_c, 1, 81, 0
2, 96180, Note_on_c, 1, 80, 96
2, 96225, Note_on_c, 1, 80, 0
2, 96225, End_track
3, 0, Start_track
3, 0, MIDI_port, 0
3, 0, Title_t, "Solo by J.S. Bach BWV 1042"
3, 0, Program_c, 2, 40
3, 0, Control_c, 2, 7, 127
3, 0, Control_c, 2, 10, 64
3, 91200, Note_on_c, 2, 82, 112
3, 91380, Note_on_c, 2, 82, 0
3, 91560, Note_on_c, 2, 83, 112
3, 91650, Note_on_c, 2, 83, 0
3, 91680, Note_on_c, 2, 80, 112
3, 91860, Note_on_c, 2, 80, 0
3, 92040, Note_on_c, 2, 81, 96
3, 92130, Note_on_c, 2, 81, 0
3, 92160, Note_on_c, 2, 81, 96
3, 92205, Note_on_c, 2, 81, 0
3, 92220, Note_on_c, 2, 78, 96
3, 92265, Note_on_c, 2, 78, 0
3, 92280, Note_on_c, 2, 75, 96
3, 92325, Note_on_c, 2, 75, 0
3, 92340, Note_on_c, 2, 71, 96
3, 92385, Note_on_c, 2, 71, 0
3, 92400, Note_on_c, 2, 80, 96
3, 92490, Note_on_c, 2, 80, 0
3, 92520, Note_on_c, 2, 80, 96
3, 92610, Note_on_c, 2, 80, 0
3, 92640, Note_on_c, 2, 78, 96
3, 92820, Note_on_c, 2, 78, 0
3, 93000, Note_on_c, 2, 78, 96
3, 93210, Note_on_c, 2, 78, 0
3, 93240, Note_on_c, 2, 78, 96
3, 93330, Note_on_c, 2, 78, 0
3, 93360, Note_on_c, 2, 78, 96
3, 93450, Note_on_c, 2, 78, 0
3, 93480, Note_on_c, 2, 78, 96
3, 93570, Note_on_c, 2, 78, 0
3, 93600, Note_on_c, 2, 78, 96
3, 93780, Note_on_c, 2, 78, 0
3, 94080, Note_on_c, 2, 76, 96
3, 94170, Note_on_c, 2, 76, 0
3, 94200, Note_on_c, 2, 76, 96
3, 94290, Note_on_c, 2, 76, 0
3, 94320, Note_on_c, 2, 76, 96
3, 94410, Note_on_c, 2, 76, 0
3, 94440, Note_on_c, 2, 76, 96
3, 94530, Note_on_c, 2, 76, 0
3, 94560, Note_on_c, 2, 76, 96
3, 94740, Note_on_c, 2, 76, 0
3, 94800, Note_on_c, 2, 81, 96
3, 94890, Note_on_c, 2, 81, 0
3, 94920, Note_on_c, 2, 81, 96
3, 95010, Note_on_c, 2, 81, 0
3, 95040, Note_on_c, 2, 71, 96
3, 95220, Note_on_c, 2, 71, 0
3, 95280, Note_on_c, 2, 71, 96
3, 95370, Note_on_c, 2, 71, 0
3, 95400, Note_on_c, 2, 71, 96
3, 95490, Note_on_c, 2, 71, 0
3, 95520, Note_on_c, 2, 71, 96
3, 95610, Note_on_c, 2, 71, 0
3, 95640, Note_on_c, 2, 71, 96
3, 95685, Note_on_c, 2, 71, 0
3, 95700, Note_on_c, 2, 73, 96
3, 95745, Note_on_c, 2, 73, 0
3, 95760, Note_on_c, 2, 74, 96
3, 95850, Note_on_c, 2, 74, 0
3, 95880, Note_on_c, 2, 73, 96
3, 95925, Note_on_c, 2, 73, 0
3, 95940, Note_on_c, 2, 71, 96
3, 95985, Note_on_c, 2, 71, 0
3, 96000, Note_on_c, 2, 73, 96
3, 96180, Note_on_c, 2, 73, 0
3, 96240, Note_on_c, 2, 78, 96
3, 96285, Note_on_c, 2, 78, 0
3, 96300, Note_on_c, 2, 76, 96
3, 96345, Note_on_c, 2, 76, 0
3, 96360, Note_on_c, 2, 75, 96
3, 96405, Note_on_c, 2, 75, 0
3, 96420, Note_on_c, 2, 73, 96
3, 96465, Note_on_c, 2, 73, 0
3, 96480, Note_on_c, 2, 71, 96
3, 96525, Note_on_c, 2, 71, 0
3, 96540, Note_on_c, 2, 68, 96
3, 96585, Note_on_c, 2, 68, 0
3, 96600, Note_on_c, 2, 69, 96
3, 96645, Note_on_c, 2, 69, 0
3, 96660, Note_on_c, 2, 66, 96
3, 96705, Note_on_c, 2, 66, 0
3, 96720, Note_on_c, 2, 59, 96
3, 96810, Note_on_c, 2, 59, 0
3, 96840, Note_on_c, 2, 81, 96
3, 96930, Note_on_c, 2, 81, 0
3, 96960, Note_on_c, 2, 80, 96
3, 97005, Note_on_c, 2, 80, 0
3, 97020, Note_on_c, 2, 81, 96
3, 97065, Note_on_c, 2, 81, 0
3, 97080, Note_on_c, 2, 83, 96
3, 97125, Note_on_c, 2, 83, 0
3, 97140, Note_on_c, 2, 80, 96
3, 97185, Note_on_c, 2, 80, 0
3, 97200, Note_on_c, 2, 78, 96
3, 97245, Note_on_c, 2, 78, 0
3, 97260, Note_on_c, 2, 80, 96
3, 97305, Note_on_c, 2, 80, 0
3, 97320, Note_on_c, 2, 81, 96
3, 97365, Note_on_c, 2, 81, 0
3, 97380, Note_on_c, 2, 78, 96
3, 97425, Note_on_c, 2, 78, 0
3, 97440, Note_on_c, 2, 76, 96
3, 97485, Note_on_c, 2, 76, 0
3, 97500, Note_on_c, 2, 78, 96
3, 97545, Note_on_c, 2, 78, 0
3, 97560, Note_on_c, 2, 80, 96
3, 97605, Note_on_c, 2, 80, 0
3, 97620, Note_on_c, 2, 76, 96
3, 97665, Note_on_c, 2, 76, 0
3, 97680, Note_on_c, 2, 75, 96
3, 97725, Note_on_c, 2, 75, 0
3, 97740, Note_on_c, 2, 76, 96
3, 97785, Note_on_c, 2, 76, 0
3, 97800, Note_on_c, 2, 78, 96
3, 97845, Note_on_c, 2, 78, 0
3, 97860, Note_on_c, 2, 75, 96
3, 97905, Note_on_c, 2, 75, 0
3, 97920, Note_on_c, 2, 73, 96
3, 97965, Note_on_c, 2, 73, 0
3, 97980, Note_on_c, 2, 75, 96
3, 98025, Note_on_c, 2, 75, 0
3, 98040, Note_on_c, 2, 76, 96
3, 98085, Note_on_c, 2, 76, 0
3, 98100, Note_on_c, 2, 71, 96
3, 98145, Note_on_c, 2, 71, 0
3, 98160, Note_on_c, 2, 73, 96
3, 98205, Note_on_c, 2, 73, 0
3, 98220, Note_on_c, 2, 76, 96
3, 98265, Note_on_c, 2, 76, 0
3, 98280, Note_on_c, 2, 75, 96
3, 98325, Note_on_c, 2, 75, 0
3, 98340, Note_on_c, 2, 78, 96
3, 98385, Note_on_c, 2, 78, 0
3, 98400, Note_on_c, 2, 76, 96
3, 98445, Note_on_c, 2, 76, 0
3, 98460, Note_on_c, 2, 78, 96
3, 98505, Note_on_c, 2, 78, 0
3, 98520, Note_on_c, 2, 80, 96
3, 98565, Note_on_c, 2, 80, 0
3, 98580, Note_on_c, 2, 71, 96
3, 98625, Note_on_c, 2, 71, 0
3, 98640, Note_on_c, 2, 73, 96
3, 98685, Note_on_c, 2, 73, 0
3, 98700, Note_on_c, 2, 76, 96
3, 98745, Note_on_c, 2, 76, 0
3, 98760, Note_on_c, 2, 75, 96
3, 98805, Note_on_c, 2, 75, 0
3, 98820, Note_on_c, 2, 78, 96
3, 98865, Note_on_c, 2, 78, 0
3, 98880, Note_on_c, 2, 76, 96
3, 98925, Note_on_c, 2, 76, 0
3, 98940, Note_on_c, 2, 78, 96
3, 98985, Note_on_c, 2, 78, 0
3, 99000, Note_on_c, 2, 80, 96
3, 99045, Note_on_c, 2, 80, 0
3, 99060, Note_on_c, 2, 75, 96
3, 99105, Note_on_c, 2, 75, 0
3, 99120, Note_on_c, 2, 76, 96
3, 99165, Note_on_c, 2, 76, 0
3, 99180, Note_on_c, 2, 80, 96
3, 99225, Note_on_c, 2, 80, 0
3, 99240, Note_on_c, 2, 78, 96
3, 99285, Note_on_c, 2, 78, 0
3, 99300, Note_on_c, 2, 81, 96
3, 99345, Note_on_c, 2, 81, 0
3, 99360, Note_on_c, 2, 80, 96
3, 99405, Note_on_c, 2, 80, 0
3, 99420, Note_on_c, 2, 81, 96
3, 99465, Note_on_c, 2, 81, 0
3, 99480, Note_on_c, 2, 83, 96
3, 99525, Note_on_c, 2, 83, 0
3, 99540, Note_on_c, 2, 75, 96
3, 99585, Note_on_c, 2, 75, 0
3, 99600, Note_on_c, 2, 76, 96
3, 99645, Note_on_c, 2, 76, 0
3, 99660, Note_on_c, 2, 80, 96
3, 99705, Note_on_c, 2, 80, 0
3, 99720, Note_on_c, 2, 78, 96
3, 99765, Note_on_c, 2, 78, 0
3, 99780, Note_on_c, 2, 81, 96
3, 99825, Note_on_c, 2, 81, 0
3, 99840, Note_on_c, 2, 80, 96
3, 99885, Note_on_c, 2, 80, 0
3, 99900, Note_on_c, 2, 81, 96
3, 99945, Note_on_c, 2, 81, 0
3, 99960, Note_on_c, 2, 83, 96
3, 100005, Note_on_c, 2, 83, 0
3, 100020, Note_on_c, 2, 80, 96
3, 100065, Note_on_c, 2, 80, 0
3, 100080, Note_on_c, 2, 81, 96
3, 100125, Note_on_c, 2, 81, 0
3, 100140, Note_on_c, 2, 78, 96
3, 100185, Note_on_c, 2, 78, 0
3, 100200, Note_on_c, 2, 80, 96
3, 100245, Note_on_c, 2, 80, 0
3, 100260, Note_on_c, 2, 76, 96
3, 100305, Note_on_c, 2, 76, 0
3, 100320, Note_on_c, 2, 75, 96
3, 100365, Note_on_c, 2, 75, 0
3, 100380, Note_on_c, 2, 76, 96
3, 100425, Note_on_c, 2, 76, 0
3, 100440, Note_on_c, 2, 78, 96
3, 100485, Note_on_c, 2, 78, 0
3, 100500, Note_on_c, 2, 75, 96
3, 100545, Note_on_c, 2, 75, 0
3, 100560, Note_on_c, 2, 76, 96
3, 100605, Note_on_c, 2, 76, 0
3, 100620, Note_on_c, 2, 73, 96
3, 100665, Note_on_c, 2, 73, 0
3, 100680, Note_on_c, 2, 75, 96
3, 100725, Note_on_c, 2, 75, 0
3, 100740, Note_on_c, 2, 71, 96
3, 100785, Note_on_c, 2, 71, 0
3, 100800, Note_on_c, 2, 69, 96
3, 100845, Note_on_c, 2, 69, 0
3, 100860, Note_on_c, 2, 71, 96
3, 100905, Note_on_c, 2, 71, 0
3, 100920, Note_on_c, 2, 73, 96
3, 100965, Note_on_c, 2, 73, 0
3, 100980, Note_on_c, 2, 68, 96
3, 101025, Note_on_c, 2, 68, 0
3, 101040, Note_on_c, 2, 69, 96
3, 101085, Note_on_c, 2, 69, 0
3, 101100, Note_on_c, 2, 64, 96
3, 101145, Note_on_c, 2, 64, 0
3, 101160, Note_on_c, 2, 66, 96
3, 101205, Note_on_c, 2, 66, 0
3, 101220, Note_on_c, 2, 63, 96
3, 101265, Note_on_c, 2, 63, 0
3, 101280, Note_on_c, 2, 59, 96
3, 101520, Note_on_c, 2, 59, 0
3, 101640, Note_on_c, 2, 75, 96
3, 101730, Note_on_c, 2, 75, 0
3, 101760, Note_on_c, 2, 82, 96
3, 101805, Note_on_c, 2, 82, 0
3, 101820, Note_on_c, 2, 75, 96
3, 101865, Note_on_c, 2, 75, 0
3, 101880, Note_on_c, 2, 70, 96
3, 101925, Note_on_c, 2, 70, 0
3, 101940, Note_on_c, 2, 75, 96
3, 101985, Note_on_c, 2, 75, 0
3, 102000, Note_on_c, 2, 67, 96
3, 102045, Note_on_c, 2, 67, 0
3, 102060, Note_on_c, 2, 75, 96
3, 102105, Note_on_c, 2, 75, 0
3, 102120, Note_on_c, 2, 73, 96
3, 102165, Note_on_c, 2, 73, 0
3, 102180, Note_on_c, 2, 75, 96
3, 102225, Note_on_c, 2, 75, 0
3, 102240, Note_on_c, 2, 76, 96
3, 102285, Note_on_c, 2, 76, 0
3, 102300, Note_on_c, 2, 73, 96
3, 102345, Note_on_c, 2, 73, 0
3, 102360, Note_on_c, 2, 75, 96
3, 102405, Note_on_c, 2, 75, 0
3, 102420, Note_on_c, 2, 71, 96
3, 102465, Note_on_c, 2, 71, 0
3, 102480, Note_on_c, 2, 73, 96
3, 102525, Note_on_c, 2, 73, 0
3, 102540, Note_on_c, 2, 82, 96
3, 102585, Note_on_c, 2, 82, 0
3, 102600, Note_on_c, 2, 80, 96
3, 102645, Note_on_c, 2, 80, 0
3, 102660, Note_on_c, 2, 82, 96
3, 102705, Note_on_c, 2, 82, 0
3, 102720, Note_on_c, 2, 71, 96
3, 102765, Note_on_c, 2, 71, 0
3, 102780, Note_on_c, 2, 73, 96
3, 102825, Note_on_c, 2, 73, 0
3, 102840, Note_on_c, 2, 75, 96
3, 102885, Note_on_c, 2, 75, 0
3, 102900, Note_on_c, 2, 80, 96
3, 102945, Note_on_c, 2, 80, 0
3, 102960, Note_on_c, 2, 75, 96
3, 103005, Note_on_c, 2, 75, 0
3, 103020, Note_on_c, 2, 73, 96
3, 103065, Note_on_c, 2, 73, 0
3, 103080, Note_on_c, 2, 71, 96
3, 103125, Note_on_c, 2, 71, 0
3, 103140, Note_on_c, 2, 70, 96
3, 103185, Note_on_c, 2, 70, 0
3, 103200, Note_on_c, 2, 68, 96
3, 103245, Note_on_c, 2, 68, 0
3, 103260, Note_on_c, 2, 70, 96
3, 103305, Note_on_c, 2, 70, 0
3, 103320, Note_on_c, 2, 71, 96
3, 103365, Note_on_c, 2, 71, 0
3, 103380, Note_on_c, 2, 75, 96
3, 103425, Note_on_c, 2, 75, 0
3, 103440, Note_on_c, 2, 71, 96
3, 103485, Note_on_c, 2, 71, 0
3, 103500, Note_on_c, 2, 70, 96
3, 103545, Note_on_c, 2, 70, 0
3, 103560, Note_on_c, 2, 68, 96
3, 103605, Note_on_c, 2, 68, 0
3, 103620, Note_on_c, 2, 66, 96
3, 103665, Note_on_c, 2, 66, 0
3, 103680, Note_on_c, 2, 64, 96
3, 103725, Note_on_c, 2, 64, 0
3, 103740, Note_on_c, 2, 66, 96
3, 103785, Note_on_c, 2, 66, 0
3, 103800, Note_on_c, 2, 68, 96
3, 103845, Note_on_c, 2, 68, 0
3, 103860, Note_on_c, 2, 73, 96
3, 103905, Note_on_c, 2, 73, 0
3, 103920, Note_on_c, 2, 68, 96
3, 103965, Note_on_c, 2, 68, 0
3, 103980, Note_on_c, 2, 66, 96
3, 104025, Note_on_c, 2, 66, 0
3, 104040, Note_on_c, 2, 64, 96
3, 104085, Note_on_c, 2, 64, 0
3, 104100, Note_on_c, 2, 63, 96
3, 104145, Note_on_c, 2, 63, 0
3, 104160, Note_on_c, 2, 61, 96
3, 104205, Note_on_c, 2, 61, 0
3, 104220, Note_on_c, 2, 63, 96
3, 104265, Note_on_c, 2, 63, 0
3, 104280, Note_on_c, 2, 64, 96
3, 104325, Note_on_c, 2, 64, 0
3, 104340, Note_on_c, 2, 68, 96
3, 104385, Note_on_c, 2, 68, 0
3, 104400, Note_on_c, 2, 73, 96
3, 104445, Note_on_c, 2, 73, 0
3, 104460, Note_on_c, 2, 75, 96
3, 104505, Note_on_c, 2, 75, 0
3, 104520, Note_on_c, 2, 76, 96
3, 104565, Note_on_c, 2, 76, 0
3, 104580, Note_on_c, 2, 73, 96
3, 104625, Note_on_c, 2, 73, 0
3, 104640, Note_on_c, 2, 79, 96
3, 104685, Note_on_c, 2, 79, 0
3, 104700, Note_on_c, 2, 73, 96
3, 104745, Note_on_c, 2, 73, 0
3, 104760, Note_on_c, 2, 82, 96
3, 104805, Note_on_c, 2, 82, 0
3, 104820, Note_on_c, 2, 73, 96
3, 104865, Note_on_c, 2, 73, 0
3, 104880, Note_on_c, 2, 79, 96
3, 104925, Note_on_c, 2, 79, 0
3, 104940, Note_on_c, 2, 73, 96
3, 104985, Note_on_c, 2, 73, 0
3, 105000, Note_on_c, 2, 82, 96
3, 105045, Note_on_c, 2, 82, 0
3, 105060, Note_on_c, 2, 73, 96
3, 105105, Note_on_c, 2, 73, 0
3, 105120, Note_on_c, 2, 79, 96
3, 105165, Note_on_c, 2, 79, 0
3, 105180, Note_on_c, 2, 73, 96
3, 105225, Note_on_c, 2, 73, 0
3, 105240, Note_on_c, 2, 82, 96
3, 105285, Note_on_c, 2, 82, 0
3, 105300, Note_on_c, 2, 73, 96
3, 105345, Note_on_c, 2, 73, 0
3, 105360, Note_on_c, 2, 79, 96
3, 105405, Note_on_c, 2, 79, 0
3, 105420, Note_on_c, 2, 73, 96
3, 105465, Note_on_c, 2, 73, 0
3, 105480, Note_on_c, 2, 82, 96
3, 105525, Note_on_c, 2, 82, 0
3, 105540, Note_on_c, 2, 73, 96
3, 105585, Note_on_c, 2, 73, 0
3, 105600, Note_on_c, 2, 80, 96
3, 105654, Note_on_c, 2, 80, 0
3, 105660, Note_on_c, 2, 71, 96
3, 105714, Note_on_c, 2, 71, 0
3, 105720, Note_on_c, 2, 83, 96
3, 105774, Note_on_c, 2, 83, 0
3, 105780, Note_on_c, 2, 71, 96
3, 105834, Note_on_c, 2, 71, 0
3, 105840, Note_on_c, 2, 80, 96
3, 105894, Note_on_c, 2, 80, 0
3, 105900, Note_on_c, 2, 71, 96
3, 105954, Note_on_c, 2, 71, 0
3, 105960, Note_on_c, 2, 83, 96
3, 106014, Note_on_c, 2, 83, 0
3, 106020, Note_on_c, 2, 71, 96
3, 106074, Note_on_c, 2, 71, 0
3, 106080, Note_on_c, 2, 80, 96
3, 106134, Note_on_c, 2, 80, 0
3, 106140, Note_on_c, 2, 71, 96
3, 106194, Note_on_c, 2, 71, 0
3, 106200, Note_on_c, 2, 83, 96
3, 106254, Note_on_c, 2, 83, 0
3, 106260, Note_on_c, 2, 71, 96
3, 106314, Note_on_c, 2, 71, 0
3, 106320, Note_on_c, 2, 80, 96
3, 106374, Note_on_c, 2, 80, 0
3, 106380, Note_on_c, 2, 71, 96
3, 106434, Note_on_c, 2, 71, 0
3, 106440, Note_on_c, 2, 83, 96
3, 106494, Note_on_c, 2, 83, 0
3, 106500, Note_on_c, 2, 71, 96
3, 106554, Note_on_c, 2, 71, 0
3, 106560, Note_on_c, 2, 82, 96
3, 106605, Note_on_c, 2, 82, 0
3, 106620, Note_on_c, 2, 75, 96
3, 106665, Note_on_c, 2, 75, 0
3, 106680, Note_on_c, 2, 85, 96
3, 106725, Note_on_c, 2, 85, 0
3, 106740, Note_on_c, 2, 75, 96
3, 106785, Note_on_c, 2, 75, 0
3, 106800, Note_on_c, 2, 82, 96
3, 106845, Note_on_c, 2, 82, 0
3, 106860, Note_on_c, 2, 75, 96
3, 106905, Note_on_c, 2, 75, 0
3, 106920, Note_on_c, 2, 85, 96
3, 106965, Note_on_c, 2, 85, 0
3, 106980, Note_on_c, 2, 75, 96
3, 107025, Note_on_c, 2, 75, 0
3, 107040, Note_on_c, 2, 82, 96
3, 107085, Note_on_c, 2, 82, 0
3, 107100, Note_on_c, 2, 75, 96
3, 107145, Note_on_c, 2, 75, 0
3, 107160, Note_on_c, 2, 85, 96
3, 107205, Note_on_c, 2, 85, 0
3, 107220, Note_on_c, 2, 75, 96
3, 107265, Note_on_c, 2, 75, 0
3, 107280, Note_on_c, 2, 82, 96
3, 107325, Note_on_c, 2, 82, 0
3, 107340, Note_on_c, 2, 75, 96
3, 107385, Note_on_c, 2, 75, 0
3, 107400, Note_on_c, 2, 85, 96
3, 107445, Note_on_c, 2, 85, 0
3, 107460, Note_on_c, 2, 75, 96
3, 107505, Note_on_c, 2, 75, 0
3, 107520, Note_on_c, 2, 83, 96
3, 107574, Note_on_c, 2, 83, 0
3, 107580, Note_on_c, 2, 75, 96
3, 107634, Note_on_c, 2, 75, 0
3, 107640, Note_on_c, 2, 87, 96
3, 107694, Note_on_c, 2, 87, 0
3, 107700, Note_on_c, 2, 75, 96
3, 107754, Note_on_c, 2, 75, 0
3, 107760, Note_on_c, 2, 83, 96
3, 107814, Note_on_c, 2, 83, 0
3, 107820, Note_on_c, 2, 75, 96
3, 107874, Note_on_c, 2, 75, 0
3, 107880, Note_on_c, 2, 87, 96
3, 107934, Note_on_c, 2, 87, 0
3, 107940, Note_on_c, 2, 75, 96
3, 107994, Note_on_c, 2, 75, 0
3, 108000, Note_on_c, 2, 83, 96
3, 108054, Note_on_c, 2, 83, 0
3, 108060, Note_on_c, 2, 75, 96
3, 108114, Note_on_c, 2, 75, 0
3, 108120, Note_on_c, 2, 87, 96
3, 108174, Note_on_c, 2, 87, 0
3, 108180, Note_on_c, 2, 75, 96
3, 108234, Note_on_c, 2, 75, 0
3, 108240, Note_on_c, 2, 83, 96
3, 108294, Note_on_c, 2, 83, 0
3, 108300, Note_on_c, 2, 75, 96
3, 108354, Note_on_c, 2, 75, 0
3, 108360, Note_on_c, 2, 87, 96
3, 108414, Note_on_c, 2, 87, 0
3, 108420, Note_on_c, 2, 75, 96
3, 108474, Note_on_c, 2, 75, 0
3, 108480, Note_on_c, 2, 76, 96
3, 108525, Note_on_c, 2, 76, 0
3, 108540, Note_on_c, 2, 75, 96
3, 108585, Note_on_c, 2, 75, 0
3, 108600, Note_on_c, 2, 76, 96
3, 108645, Note_on_c, 2, 76, 0
3, 108660, Note_on_c, 2, 85, 96
3, 108705, Note_on_c, 2, 85, 0
3, 108720, Note_on_c, 2, 85, 96
3, 108765, Note_on_c, 2, 85, 0
3, 108780, Note_on_c, 2, 83, 96
3, 108825, Note_on_c, 2, 83, 0
3, 108840, Note_on_c, 2, 85, 96
3, 108885, Note_on_c, 2, 85, 0
3, 108900, Note_on_c, 2, 82, 96
3, 108945, Note_on_c, 2, 82, 0
3, 108960, Note_on_c, 2, 82, 96
3, 109005, Note_on_c, 2, 82, 0
3, 109020, Note_on_c, 2, 80, 96
3, 109065, Note_on_c, 2, 80, 0
3, 109080, Note_on_c, 2, 82, 96
3, 109125, Note_on_c, 2, 82, 0
3, 109140, Note_on_c, 2, 79, 96
3, 109185, Note_on_c, 2, 79, 0
3, 109200, Note_on_c, 2, 79, 96
3, 109245, Note_on_c, 2, 79, 0
3, 109260, Note_on_c, 2, 80, 96
3, 109305, Note_on_c, 2, 80, 0
3, 109320, Note_on_c, 2, 79, 96
3, 109365, Note_on_c, 2, 79, 0
3, 109380, Note_on_c, 2, 76, 96
3, 109425, Note_on_c, 2, 76, 0
3, 109440, Note_on_c, 2, 76, 96
3, 109485, Note_on_c, 2, 76, 0
3, 109500, Note_on_c, 2, 75, 96
3, 109545, Note_on_c, 2, 75, 0
3, 109560, Note_on_c, 2, 76, 96
3, 109605, Note_on_c, 2, 76, 0
3, 109620, Note_on_c, 2, 73, 96
3, 109665, Note_on_c, 2, 73, 0
3, 109680, Note_on_c, 2, 73, 96
3, 109725, Note_on_c, 2, 73, 0
3, 109740, Note_on_c, 2, 72, 96
3, 109785, Note_on_c, 2, 72, 0
3, 109800, Note_on_c, 2, 73, 96
3, 109845, Note_on_c, 2, 73, 0
3, 109860, Note_on_c, 2, 67, 96
3, 109905, Note_on_c, 2, 67, 0
3, 109920, Note_on_c, 2, 58, 96
3, 109952, Note_on_c, 2, 67, 96
3, 110016, Note_on_c, 2, 73, 96
3, 110068, Note_on_c, 2, 58, 0
3, 110100, Note_on_c, 2, 67, 0
3, 110164, Note_on_c, 2, 73, 0
3, 110280, Note_on_c, 2, 73, 96
3, 110325, Note_on_c, 2, 73, 0
3, 110340, Note_on_c, 2, 75, 96
3, 110385, Note_on_c, 2, 75, 0
3, 110400, Note_on_c, 2, 75, 96
3, 110490, Note_on_c, 2, 75, 0
3, 110520, Note_on_c, 2, 73, 96
3, 110565, Note_on_c, 2, 73, 0
3, 110580, Note_on_c, 2, 71, 96
3, 110625, Note_on_c, 2, 71, 0
3, 110640, Note_on_c, 2, 75, 96
3, 110685, Note_on_c, 2, 75, 0
3, 110700, Note_on_c, 2, 73, 96
3, 110745, Note_on_c, 2, 73, 0
3, 110760, Note_on_c, 2, 71, 96
3, 110805, Note_on_c, 2, 71, 0
3, 110820, Note_on_c, 2, 70, 96
3, 110865, Note_on_c, 2, 70, 0
3, 110880, Note_on_c, 2, 68, 96
3, 111720, Note_on_c, 2, 68, 0
3, 111900, Note_on_c, 2, 56, 96
3, 111945, Note_on_c, 2, 56, 0
3, 111960, Note_on_c, 2, 66, 96
3, 112005, Note_on_c, 2, 66, 0
3, 112020, Note_on_c, 2, 56, 96
3, 112065, Note_on_c, 2, 56, 0
3, 112080, Note_on_c, 2, 64, 96
3, 112125, Note_on_c, 2, 64, 0
3, 112140, Note_on_c, 2, 56, 96
3, 112185, Note_on_c, 2, 56, 0
3, 112200, Note_on_c, 2, 63, 96
3, 112245, Note_on_c, 2, 63, 0
3, 112260, Note_on_c, 2, 56, 96
3, 112305, Note_on_c, 2, 56, 0
3, 112320, Note_on_c, 2, 64, 96
3, 112365, Note_on_c, 2, 64, 0
3, 112380, Note_on_c, 2, 61, 96
3, 112425, Note_on_c, 2, 61, 0
3, 112440, Note_on_c, 2, 60, 96
3, 112485, Note_on_c, 2, 60, 0
3, 112500, Note_on_c, 2, 61, 96
3, 112545, Note_on_c, 2, 61, 0
3, 112560, Note_on_c, 2, 69, 96
3, 112800, Note_on_c, 2, 69, 0
3, 112860, Note_on_c, 2, 64, 96
3, 112905, Note_on_c, 2, 64, 0
3, 112920, Note_on_c, 2, 63, 96
3, 112965, Note_on_c, 2, 63, 0
3, 112980, Note_on_c, 2, 64, 96
3, 113025, Note_on_c, 2, 64, 0
3, 113040, Note_on_c, 2, 73, 96
3, 113325, Note_on_c, 2, 73, 0
3, 113340, Note_on_c, 2, 69, 96
3, 113385, Note_on_c, 2, 69, 0
3, 113400, Note_on_c, 2, 68, 96
3, 113445, Note_on_c, 2, 68, 0
3, 113460, Note_on_c, 2, 69, 96
3, 113505, Note_on_c, 2, 69, 0
3, 113520, Note_on_c, 2, 76, 96
3, 113700, Note_on_c, 2, 76, 0
3, 113820, Note_on_c, 2, 75, 96
3, 113865, Note_on_c, 2, 75, 0
3, 113880, Note_on_c, 2, 73, 96
3, 113925, Note_on_c, 2, 73, 0
3, 113940, Note_on_c, 2, 76, 96
3, 113985, Note_on_c, 2, 76, 0
3, 114000, Note_on_c, 2, 82, 96
3, 114285, Note_on_c, 2, 82, 0
3, 114300, Note_on_c, 2, 80, 96
3, 114345, Note_on_c, 2, 80, 0
3, 114360, Note_on_c, 2, 79, 96
3, 114405, Note_on_c, 2, 79, 0
3, 114420, Note_on_c, 2, 82, 96
3, 114465, Note_on_c, 2, 82, 0
3, 114480, Note_on_c, 2, 85, 96
3, 114660, Note_on_c, 2, 85, 0
3, 114780, Note_on_c, 2, 83, 96
3, 114825, Note_on_c, 2, 83, 0
3, 114840, Note_on_c, 2, 82, 96
3, 114885, Note_on_c, 2, 82, 0
3, 114900, Note_on_c, 2, 85, 96
3, 114945, Note_on_c, 2, 85, 0
3, 114960, Note_on_c, 2, 88, 96
3, 115260, Note_on_c, 2, 88, 0
3, 115260, Note_on_c, 2, 87, 96
3, 115320, Note_on_c, 2, 87, 0
3, 115320, Note_on_c, 2, 85, 96
3, 115380, Note_on_c, 2, 85, 0
3, 115380, Note_on_c, 2, 83, 96
3, 115440, Note_on_c, 2, 83, 0
3, 115440, Note_on_c, 2, 82, 96
3, 115500, Note_on_c, 2, 82, 0
3, 115500, Note_on_c, 2, 80, 96
3, 115560, Note_on_c, 2, 80, 0
3, 115560, Note_on_c, 2, 79, 96
3, 115620, Note_on_c, 2, 79, 0
3, 115620, Note_on_c, 2, 80, 96
3, 115656, Note_on_c, 2, 80, 0
3, 115680, Note_on_c, 2, 76, 96
3, 115740, Note_on_c, 2, 76, 0
3, 115740, Note_on_c, 2, 75, 96
3, 115800, Note_on_c, 2, 75, 0
3, 115800, Note_on_c, 2, 74, 96
3, 115860, Note_on_c, 2, 74, 0
3, 115860, Note_on_c, 2, 75, 96
3, 115908, Note_on_c, 2, 75, 0
3, 115920, Note_on_c, 2, 67, 96
3, 115980, Note_on_c, 2, 67, 0
3, 115980, Note_on_c, 2, 68, 96
3, 116028, Note_on_c, 2, 68, 0
3, 116040, Note_on_c, 2, 62, 96
3, 116100, Note_on_c, 2, 62, 0
3, 116100, Note_on_c, 2, 63, 96
3, 116160, Note_on_c, 2, 63, 0
3, 116160, Note_on_c, 2, 71, 96
3, 116640, Note_on_c, 2, 71, 0
3, 116640, Note_on_c, 2, 71, 88
3, 116700, Note_on_c, 2, 71, 0
3, 116700, Note_on_c, 2, 70, 87
3, 116760, Note_on_c, 2, 70, 0
3, 116760, Note_on_c, 2, 68, 86
3, 116820, Note_on_c, 2, 68, 0
3, 116820, Note_on_c, 2, 67, 85
3, 116880, Note_on_c, 2, 67, 0
3, 116880, Note_on_c, 2, 68, 84
3, 117000, Note_on_c, 2, 68, 0
3, 117120, Note_on_c, 2, 64, 96
3, 117240, Note_on_c, 2, 64, 0
3, 117360, Note_on_c, 2, 68, 96
3, 117480, Note_on_c, 2, 68, 0
3, 117600, Note_on_c, 2, 71, 96
3, 117840, Note_on_c, 2, 71, 0
3, 117960, Note_on_c, 2, 68, 96
3, 118005, Note_on_c, 2, 68, 0
3, 118020, Note_on_c, 2, 69, 96
3, 118065, Note_on_c, 2, 69, 0
3, 118080, Note_on_c, 2, 71, 96
3, 118170, Note_on_c, 2, 71, 0
3, 118200, Note_on_c, 2, 68, 96
3, 118245, Note_on_c, 2, 68, 0
3, 118260, Note_on_c, 2, 69, 96
3, 118305, Note_on_c, 2, 69, 0
3, 118320, Note_on_c, 2, 71, 96
3, 118410, Note_on_c, 2, 71, 0
3, 118440, Note_on_c, 2, 76, 96
3, 118530, Note_on_c, 2, 76, 0
3, 118560, Note_on_c, 2, 71, 96
3, 118650, Note_on_c, 2, 71, 0
3, 118680, Note_on_c, 2, 71, 96
3, 118725, Note_on_c, 2, 71, 0
3, 118740, Note_on_c, 2, 69, 96
3, 118785, Note_on_c, 2, 69, 0
3, 118800, Note_on_c, 2, 68, 96
3, 118890, Note_on_c, 2, 68, 0
3, 118920, Note_on_c, 2, 66, 96
3, 118965, Note_on_c, 2, 66, 0
3, 118980, Note_on_c, 2, 64, 96
3, 119025, Note_on_c, 2, 64, 0
3, 119040, Note_on_c, 2, 69, 96
3, 119085, Note_on_c, 2, 69, 0
3, 119100, Note_on_c, 2, 71, 96
3, 119145, Note_on_c, 2, 71, 0
3, 119160, Note_on_c, 2, 73, 96
3, 119205, Note_on_c, 2, 73, 0
3, 119220, Note_on_c, 2, 69, 96
3, 119265, Note_on_c, 2, 69, 0
3, 119280, Note_on_c, 2, 68, 96
3, 119325, Note_on_c, 2, 68, 0
3, 119340, Note_on_c, 2, 69, 96
3, 119385, Note_on_c, 2, 69, 0
3, 119400, Note_on_c, 2, 71, 96
3, 119445, Note_on_c, 2, 71, 0
3, 119460, Note_on_c, 2, 68, 96
3, 119505, Note_on_c, 2, 68, 0
3, 119520, Note_on_c, 2, 66, 96
3, 119565, Note_on_c, 2, 66, 0
3, 119580, Note_on_c, 2, 71, 96
3, 119625, Note_on_c, 2, 71, 0
3, 119640, Note_on_c, 2, 73, 96
3, 119685, Note_on_c, 2, 73, 0
3, 119700, Note_on_c, 2, 75, 96
3, 119745, Note_on_c, 2, 75, 0
3, 119760, Note_on_c, 2, 76, 96
3, 119805, Note_on_c, 2, 76, 0
3, 119820, Note_on_c, 2, 78, 96
3, 119865, Note_on_c, 2, 78, 0
3, 119880, Note_on_c, 2, 80, 96
3, 119925, Note_on_c, 2, 80, 0
3, 119940, Note_on_c, 2, 81, 96
3, 119985, Note_on_c, 2, 81, 0
3, 120000, Note_on_c, 2, 83, 96
3, 120045, Note_on_c, 2, 83, 0
3, 120060, Note_on_c, 2, 83, 96
3, 120105, Note_on_c, 2, 83, 0
3, 120120, Note_on_c, 2, 83, 96
3, 120165, Note_on_c, 2, 83, 0
3, 120180, Note_on_c, 2, 83, 96
3, 120225, Note_on_c, 2, 83, 0
3, 120240, Note_on_c, 2, 83, 96
3, 120285, Note_on_c, 2, 83, 0
3, 120300, Note_on_c, 2, 83, 96
3, 120345, Note_on_c, 2, 83, 0
3, 120360, Note_on_c, 2, 83, 96
3, 120405, Note_on_c, 2, 83, 0
3, 120420, Note_on_c, 2, 83, 96
3, 120465, Note_on_c, 2, 83, 0
3, 120480, Note_on_c, 2, 83, 96
3, 120525, Note_on_c, 2, 83, 0
3, 120540, Note_on_c, 2, 80, 96
3, 120585, Note_on_c, 2, 80, 0
3, 120600, Note_on_c, 2, 77, 96
3, 120645, Note_on_c, 2, 77, 0
3, 120660, Note_on_c, 2, 73, 96
3, 120705, Note_on_c, 2, 73, 0
3, 120720, Note_on_c, 2, 71, 96
3, 120765, Note_on_c, 2, 71, 0
3, 120780, Note_on_c, 2, 73, 96
3, 120825, Note_on_c, 2, 73, 0
3, 120840, Note_on_c, 2, 77, 96
3, 120885, Note_on_c, 2, 77, 0
3, 120900, Note_on_c, 2, 80, 96
3, 120945, Note_on_c, 2, 80, 0
3, 120960, Note_on_c, 2, 81, 96
3, 121005, Note_on_c, 2, 81, 0
3, 121020, Note_on_c, 2, 81, 96
3, 121065, Note_on_c, 2, 81, 0
3, 121080, Note_on_c, 2, 81, 96
3, 121125, Note_on_c, 2, 81, 0
3, 121140, Note_on_c, 2, 81, 96
3, 121185, Note_on_c, 2, 81, 0
3, 121200, Note_on_c, 2, 81, 96
3, 121245, Note_on_c, 2, 81, 0
3, 121260, Note_on_c, 2, 81, 96
3, 121305, Note_on_c, 2, 81, 0
3, 121320, Note_on_c, 2, 81, 96
3, 121365, Note_on_c, 2, 81, 0
3, 121380, Note_on_c, 2, 81, 96
3, 121425, Note_on_c, 2, 81, 0
3, 121440, Note_on_c, 2, 81, 96
3, 121485, Note_on_c, 2, 81, 0
3, 121500, Note_on_c, 2, 78, 96
3, 121545, Note_on_c, 2, 78, 0
3, 121560, Note_on_c, 2, 75, 96
3, 121605, Note_on_c, 2, 75, 0
3, 121620, Note_on_c, 2, 71, 96
3, 121665, Note_on_c, 2, 71, 0
3, 121680, Note_on_c, 2, 69, 96
3, 121725, Note_on_c, 2, 69, 0
3, 121740, Note_on_c, 2, 71, 96
3, 121785, Note_on_c, 2, 71, 0
3, 121800, Note_on_c, 2, 75, 96
3, 121845, Note_on_c, 2, 75, 0
3, 121860, Note_on_c, 2, 78, 96
3, 121905, Note_on_c, 2, 78, 0
3, 121920, Note_on_c, 2, 80, 96
3, 121965, Note_on_c, 2, 80, 0
3, 121980, Note_on_c, 2, 80, 96
3, 122025, Note_on_c, 2, 80, 0
3, 122040, Note_on_c, 2, 80, 96
3, 122085, Note_on_c, 2, 80, 0
3, 122100, Note_on_c, 2, 80, 96
3, 122145, Note_on_c, 2, 80, 0
3, 122160, Note_on_c, 2, 80, 96
3, 122205, Note_on_c, 2, 80, 0
3, 122220, Note_on_c, 2, 80, 96
3, 122265, Note_on_c, 2, 80, 0
3, 122280, Note_on_c, 2, 80, 96
3, 122325, Note_on_c, 2, 80, 0
3, 122340, Note_on_c, 2, 80, 96
3, 122385, Note_on_c, 2, 80, 0
3, 122400, Note_on_c, 2, 81, 96
3, 122445, Note_on_c, 2, 81, 0
3, 122460, Note_on_c, 2, 83, 96
3, 122505, Note_on_c, 2, 83, 0
3, 122520, Note_on_c, 2, 85, 96
3, 122565, Note_on_c, 2, 85, 0
3, 122580, Note_on_c, 2, 81, 96
3, 122625, Note_on_c, 2, 81, 0
3, 122640, Note_on_c, 2, 80, 96
3, 122685, Note_on_c, 2, 80, 0
3, 122700, Note_on_c, 2, 81, 96
3, 122745, Note_on_c, 2, 81, 0
3, 122760, Note_on_c, 2, 83, 96
3, 122805, Note_on_c, 2, 83, 0
3, 122820, Note_on_c, 2, 80, 96
3, 122865, Note_on_c, 2, 80, 0
3, 122880, Note_on_c, 2, 78, 96
3, 122925, Note_on_c, 2, 78, 0
3, 122940, Note_on_c, 2, 80, 96
3, 122985, Note_on_c, 2, 80, 0
3, 123000, Note_on_c, 2, 81, 96
3, 123045, Note_on_c, 2, 81, 0
3, 123060, Note_on_c, 2, 78, 96
3, 123105, Note_on_c, 2, 78, 0
3, 123120, Note_on_c, 2, 76, 96
3, 123165, Note_on_c, 2, 76, 0
3, 123180, Note_on_c, 2, 78, 96
3, 123225, Note_on_c, 2, 78, 0
3, 123240, Note_on_c, 2, 80, 96
3, 123285, Note_on_c, 2, 80, 0
3, 123300, Note_on_c, 2, 76, 96
3, 123345, Note_on_c, 2, 76, 0
3, 123360, Note_on_c, 2, 75, 96
3, 123405, Note_on_c, 2, 75, 0
3, 123420, Note_on_c, 2, 76, 96
3, 123465, Note_on_c, 2, 76, 0
3, 123480, Note_on_c, 2, 78, 96
3, 123525, Note_on_c, 2, 78, 0
3, 123540, Note_on_c, 2, 75, 96
3, 123585, Note_on_c, 2, 75, 0
3, 123600, Note_on_c, 2, 69, 96
3, 123645, Note_on_c, 2, 69, 0
3, 123660, Note_on_c, 2, 71, 96
3, 123705, Note_on_c, 2, 71, 0
3, 123720, Note_on_c, 2, 73, 96
3, 123765, Note_on_c, 2, 73, 0
3, 123780, Note_on_c, 2, 69, 96
3, 123825, Note_on_c, 2, 69, 0
3, 123840, Note_on_c, 2, 66, 96
3, 123885, Note_on_c, 2, 66, 0
3, 123900, Note_on_c, 2, 68, 96
3, 123945, Note_on_c, 2, 68, 0
3, 123960, Note_on_c, 2, 69, 96
3, 124005, Note_on_c, 2, 69, 0
3, 124020, Note_on_c, 2, 66, 96
3, 124065, Note_on_c, 2, 66, 0
3, 124080, Note_on_c, 2, 63, 96
3, 124125, Note_on_c, 2, 63, 0
3, 124140, Note_on_c, 2, 64, 96
3, 124185, Note_on_c, 2, 64, 0
3, 124200, Note_on_c, 2, 66, 96
3, 124245, Note_on_c, 2, 66, 0
3, 124260, Note_on_c, 2, 63, 96
3, 124305, Note_on_c, 2, 63, 0
3, 124320, Note_on_c, 2, 59, 96
3, 124560, Note_on_c, 2, 59, 0
3, 124680, Note_on_c, 2, 78, 96
3, 124725, Note_on_c, 2, 78, 0
3, 124740, Note_on_c, 2, 80, 96
3, 124763, Note_on_c, 2, 80, 0
3, 124770, Note_on_c, 2, 81, 96
3, 124793, Note_on_c, 2, 81, 0
3, 124800, Note_on_c, 2, 80, 96
3, 124812, Note_on_c, 2, 80, 0
3, 124815, Note_on_c, 2, 81, 96
3, 124827, Note_on_c, 2, 81, 0
3, 124830, Note_on_c, 2, 80, 96
3, 124842, Note_on_c, 2, 80, 0
3, 124845, Note_on_c, 2, 81, 96
3, 124857, Note_on_c, 2, 81, 0
3, 124860, Note_on_c, 2, 80, 96
3, 124872, Note_on_c, 2, 80, 0
3, 124875, Note_on_c, 2, 81, 96
3, 124887, Note_on_c, 2, 81, 0
3, 124890, Note_on_c, 2, 80, 96
3, 124902, Note_on_c, 2, 80, 0
3, 124905, Note_on_c, 2, 81, 96
3, 124917, Note_on_c, 2, 81, 0
3, 124920, Note_on_c, 2, 80, 96
3, 124968, Note_on_c, 2, 80, 0
3, 124980, Note_on_c, 2, 78, 96
3, 125004, Note_on_c, 2, 78, 0
3, 125010, Note_on_c, 2, 76, 96
3, 125034, Note_on_c, 2, 76, 0
3, 125040, Note_on_c, 2, 80, 96
3, 125088, Note_on_c, 2, 80, 0
3, 125100, Note_on_c, 2, 78, 96
3, 125148, Note_on_c, 2, 78, 0
3, 125160, Note_on_c, 2, 76, 96
3, 125208, Note_on_c, 2, 76, 0
3, 125220, Note_on_c, 2, 75, 96
3, 125268, Note_on_c, 2, 75, 0
3, 125280, Note_on_c, 2, 76, 96
3, 125364, Note_on_c, 2, 76, 0
3, 125400, Note_on_c, 2, 71, 96
3, 125448, Note_on_c, 2, 71, 0
3, 125460, Note_on_c, 2, 71, 96
3, 125508, Note_on_c, 2, 71, 0
3, 125520, Note_on_c, 2, 73, 96
3, 125568, Note_on_c, 2, 73, 0
3, 125580, Note_on_c, 2, 73, 96
3, 125628, Note_on_c, 2, 73, 0
3, 125640, Note_on_c, 2, 75, 96
3, 125688, Note_on_c, 2, 75, 0
3, 125700, Note_on_c, 2, 75, 96
3, 125748, Note_on_c, 2, 75, 0
3, 125760, Note_on_c, 2, 76, 96
3, 125805, Note_on_c, 2, 76, 0
3, 125820, Note_on_c, 2, 76, 96
3, 125865, Note_on_c, 2, 76, 0
3, 125880, Note_on_c, 2, 71, 96
3, 125925, Note_on_c, 2, 71, 0
3, 125940, Note_on_c, 2, 71, 96
3, 125985, Note_on_c, 2, 71, 0
3, 126000, Note_on_c, 2, 73, 96
3, 126045, Note_on_c, 2, 73, 0
3, 126060, Note_on_c, 2, 73, 96
3, 126105, Note_on_c, 2, 73, 0
3, 126120, Note_on_c, 2, 75, 96
3, 126165, Note_on_c, 2, 75, 0
3, 126180, Note_on_c, 2, 75, 96
3, 126225, Note_on_c, 2, 75, 0
3, 126240, Note_on_c, 2, 76, 96
3, 126285, Note_on_c, 2, 76, 0
3, 126300, Note_on_c, 2, 78, 96
3, 126345, Note_on_c, 2, 78, 0
3, 126360, Note_on_c, 2, 80, 96
3, 126405, Note_on_c, 2, 80, 0
3, 126420, Note_on_c, 2, 76, 96
3, 126465, Note_on_c, 2, 76, 0
3, 126480, Note_on_c, 2, 81, 96
3, 126525, Note_on_c, 2, 81, 0
3, 126540, Note_on_c, 2, 78, 96
3, 126585, Note_on_c, 2, 78, 0
3, 126600, Note_on_c, 2, 83, 96
3, 126690, Note_on_c, 2, 83, 0
3, 126720, Note_on_c, 2, 80, 96
3, 126732, Note_on_c, 2, 80, 0
3, 126735, Note_on_c, 2, 81, 96
3, 126747, Note_on_c, 2, 81, 0
3, 126750, Note_on_c, 2, 80, 96
3, 126762, Note_on_c, 2, 80, 0
3, 126765, Note_on_c, 2, 81, 96
3, 126777, Note_on_c, 2, 81, 0
3, 126780, Note_on_c, 2, 80, 96
3, 126828, Note_on_c, 2, 80, 0
3, 126840, Note_on_c, 2, 78, 96
3, 126888, Note_on_c, 2, 78, 0
3, 126900, Note_on_c, 2, 76, 96
3, 126948, Note_on_c, 2, 76, 0
3, 126960, Note_on_c, 2, 80, 96
3, 127008, Note_on_c, 2, 80, 0
3, 127020, Note_on_c, 2, 78, 96
3, 127068, Note_on_c, 2, 78, 0
3, 127080, Note_on_c, 2, 76, 96
3, 127128, Note_on_c, 2, 76, 0
3, 127140, Note_on_c, 2, 75, 96
3, 127188, Note_on_c, 2, 75, 0
3, 127200, Note_on_c, 2, 76, 96
3, 127440, Note_on_c, 2, 76, 0
3, 127680, Note_on_c, 2, 64, 96
3, 127800, Note_on_c, 2, 64, 0
3, 127920, Note_on_c, 2, 68, 96
3, 128040, Note_on_c, 2, 68, 0
3, 128160, Note_on_c, 2, 71, 96
3, 128400, Note_on_c, 2, 71, 0
3, 128520, Note_on_c, 2, 71, 96
3, 128610, Note_on_c, 2, 71, 0
3, 128640, Note_on_c, 2, 73, 96
3, 128685, Note_on_c, 2, 73, 0
3, 128700, Note_on_c, 2, 75, 96
3, 128745, Note_on_c, 2, 75, 0
3, 128760, Note_on_c, 2, 76, 96
3, 128805, Note_on_c, 2, 76, 0
3, 128820, Note_on_c, 2, 73, 96
3, 128865, Note_on_c, 2, 73, 0
3, 128880, Note_on_c, 2, 71, 96
3, 129015, Note_on_c, 2, 71, 0
3, 129060, Note_on_c, 2, 71, 96
3, 129105, Note_on_c, 2, 71, 0
3, 129120, Note_on_c, 2, 73, 96
3, 129165, Note_on_c, 2, 73, 0
3, 129180, Note_on_c, 2, 75, 96
3, 129203, Note_on_c, 2, 75, 0
3, 129210, Note_on_c, 2, 76, 96
3, 129233, Note_on_c, 2, 76, 0
3, 129240, Note_on_c, 2, 75, 96
3, 129285, Note_on_c, 2, 75, 0
3, 129300, Note_on_c, 2, 76, 96
3, 129323, Note_on_c, 2, 76, 0
3, 129330, Note_on_c, 2, 78, 96
3, 129353, Note_on_c, 2, 78, 0
3, 129360, Note_on_c, 2, 71, 96
3, 129405, Note_on_c, 2, 71, 0
3, 129420, Note_on_c, 2, 75, 96
3, 129465, Note_on_c, 2, 75, 0
3, 129480, Note_on_c, 2, 76, 96
3, 129525, Note_on_c, 2, 76, 0
3, 129540, Note_on_c, 2, 80, 96
3, 129585, Note_on_c, 2, 80, 0
3, 129600, Note_on_c, 2, 81, 96
3, 129645, Note_on_c, 2, 81, 0
3, 129660, Note_on_c, 2, 80, 96
3, 129705, Note_on_c, 2, 80, 0
3, 129720, Note_on_c, 2, 78, 96
3, 129765, Note_on_c, 2, 78, 0
3, 129780, Note_on_c, 2, 81, 96
3, 129825, Note_on_c, 2, 81, 0
3, 129840, Note_on_c, 2, 80, 96
3, 129885, Note_on_c, 2, 80, 0
3, 129900, Note_on_c, 2, 78, 96
3, 129945, Note_on_c, 2, 78, 0
3, 129960, Note_on_c, 2, 76, 96
3, 130005, Note_on_c, 2, 76, 0
3, 130020, Note_on_c, 2, 80, 96
3, 130065, Note_on_c, 2, 80, 0
3, 130080, Note_on_c, 2, 78, 96
3, 130125, Note_on_c, 2, 78, 0
3, 130140, Note_on_c, 2, 76, 96
3, 130185, Note_on_c, 2, 76, 0
3, 130200, Note_on_c, 2, 75, 96
3, 130245, Note_on_c, 2, 75, 0
3, 130260, Note_on_c, 2, 73, 96
3, 130305, Note_on_c, 2, 73, 0
3, 130320, Note_on_c, 2, 71, 96
3, 130365, Note_on_c, 2, 71, 0
3, 130380, Note_on_c, 2, 69, 96
3, 130425, Note_on_c, 2, 69, 0
3, 130440, Note_on_c, 2, 68, 96
3, 130485, Note_on_c, 2, 68, 0
3, 130500, Note_on_c, 2, 66, 96
3, 130545, Note_on_c, 2, 66, 0
3, 130560, Note_on_c, 2, 64, 96
3, 130680, Note_on_c, 2, 64, 0
3, 130800, Note_on_c, 2, 68, 96
3, 130920, Note_on_c, 2, 68, 0
3, 131040, Note_on_c, 2, 71, 96
3, 131280, Note_on_c, 2, 71, 0
3, 131400, Note_on_c, 2, 68, 96
3, 131445, Note_on_c, 2, 68, 0
3, 131460, Note_on_c, 2, 69, 96
3, 131505, Note_on_c, 2, 69, 0
3, 131520, Note_on_c, 2, 71, 96
3, 131610, Note_on_c, 2, 71, 0
3, 131640, Note_on_c, 2, 68, 96
3, 131685, Note_on_c, 2, 68, 0
3, 131700, Note_on_c, 2, 69, 96
3, 131745, Note_on_c, 2, 69, 0
3, 131760, Note_on_c, 2, 71, 96
3, 131850, Note_on_c, 2, 71, 0
3, 131880, Note_on_c, 2, 76, 96
3, 131970, Note_on_c, 2, 76, 0
3, 132000, Note_on_c, 2, 71, 96
3, 132090, Note_on_c, 2, 71, 0
3, 132120, Note_on_c, 2, 71, 96
3, 132165, Note_on_c, 2, 71, 0
3, 132180, Note_on_c, 2, 69, 96
3, 132225, Note_on_c, 2, 69, 0
3, 132240, Note_on_c, 2, 68, 96
3, 132330, Note_on_c, 2, 68, 0
3, 132360, Note_on_c, 2, 66, 96
3, 132405, Note_on_c, 2, 66, 0
3, 132420, Note_on_c, 2, 64, 96
3, 132465, Note_on_c, 2, 64, 0
3, 132480, Note_on_c, 2, 69, 96
3, 132525, Note_on_c, 2, 69, 0
3, 132540, Note_on_c, 2, 71, 96
3, 132585, Note_on_c, 2, 71, 0
3, 132600, Note_on_c, 2, 73, 96
3, 132645, Note_on_c, 2, 73, 0
3, 132660, Note_on_c, 2, 69, 96
3, 132705, Note_on_c, 2, 69, 0
3, 132720, Note_on_c, 2, 68, 96
3, 132765, Note_on_c, 2, 68, 0
3, 132780, Note_on_c, 2, 69, 96
3, 132825, Note_on_c, 2, 69, 0
3, 132840, Note_on_c, 2, 71, 96
3, 132885, Note_on_c, 2, 71, 0
3, 132900, Note_on_c, 2, 68, 96
3, 132945, Note_on_c, 2, 68, 0
3, 132960, Note_on_c, 2, 66, 96
3, 133005, Note_on_c, 2, 66, 0
3, 133020, Note_on_c, 2, 69, 96
3, 133065, Note_on_c, 2, 69, 0
3, 133080, Note_on_c, 2, 71, 96
3, 133125, Note_on_c, 2, 71, 0
3, 133140, Note_on_c, 2, 75, 96
3, 133185, Note_on_c, 2, 75, 0
3, 133200, Note_on_c, 2, 78, 96
3, 133245, Note_on_c, 2, 78, 0
3, 133260, Note_on_c, 2, 75, 96
3, 133305, Note_on_c, 2, 75, 0
3, 133320, Note_on_c, 2, 73, 96
3, 133365, Note_on_c, 2, 73, 0
3, 133380, Note_on_c, 2, 71, 96
3, 133425, Note_on_c, 2, 71, 0
3, 133440, Note_on_c, 2, 69, 96
3, 133485, Note_on_c, 2, 69, 0
3, 133500, Note_on_c, 2, 71, 96
3, 133545, Note_on_c, 2, 71, 0
3, 133560, Note_on_c, 2, 75, 96
3, 133605, Note_on_c, 2, 75, 0
3, 133620, Note_on_c, 2, 78, 96
3, 133665, Note_on_c, 2, 78, 0
3, 133680, Note_on_c, 2, 81, 96
3, 133725, Note_on_c, 2, 81, 0
3, 133740, Note_on_c, 2, 80, 96
3, 133785, Note_on_c, 2, 80, 0
3, 133800, Note_on_c, 2, 78, 96
3, 133845, Note_on_c, 2, 78, 0
3, 133860, Note_on_c, 2, 76, 96
3, 133905, Note_on_c, 2, 76, 0
3, 133920, Note_on_c, 2, 75, 96
3, 133965, Note_on_c, 2, 75, 0
3, 133980, Note_on_c, 2, 76, 96
3, 134025, Note_on_c, 2, 76, 0
3, 134040, Note_on_c, 2, 78, 96
3, 134085, Note_on_c, 2, 78, 0
3, 134100, Note_on_c, 2, 75, 96
3, 134145, Note_on_c, 2, 75, 0
3, 134160, Note_on_c, 2, 71, 80
3, 134205, Note_on_c, 2, 71, 0
3, 134220, Note_on_c, 2, 75, 80
3, 134265, Note_on_c, 2, 75, 0
3, 134280, Note_on_c, 2, 73, 80
3, 134325, Note_on_c, 2, 73, 0
3, 134340, Note_on_c, 2, 71, 80
3, 134385, Note_on_c, 2, 71, 0
3, 134400, Note_on_c, 2, 81, 80
3, 134445, Note_on_c, 2, 81, 0
3, 134460, Note_on_c, 2, 80, 80
3, 134505, Note_on_c, 2, 80, 0
3, 134520, Note_on_c, 2, 78, 80
3, 134565, Note_on_c, 2, 78, 0
3, 134580, Note_on_c, 2, 76, 80
3, 134625, Note_on_c, 2, 76, 0
3, 134640, Note_on_c, 2, 75, 80
3, 134685, Note_on_c, 2, 75, 0
3, 134700, Note_on_c, 2, 76, 80
3, 134745, Note_on_c, 2, 76, 0
3, 134760, Note_on_c, 2, 78, 80
3, 134805, Note_on_c, 2, 78, 0
3, 134820, Note_on_c, 2, 75, 80
3, 134865, Note_on_c, 2, 75, 0
3, 134880, Note_on_c, 2, 71, 64
3, 134925, Note_on_c, 2, 71, 0
3, 134940, Note_on_c, 2, 75, 64
3, 134985, Note_on_c, 2, 75, 0
3, 135000, Note_on_c, 2, 73, 64
3, 135045, Note_on_c, 2, 73, 0
3, 135060, Note_on_c, 2, 71, 64
3, 135105, Note_on_c, 2, 71, 0
3, 135120, Note_on_c, 2, 81, 64
3, 135165, Note_on_c, 2, 81, 0
3, 135180, Note_on_c, 2, 80, 64
3, 135225, Note_on_c, 2, 80, 0
3, 135240, Note_on_c, 2, 78, 64
3, 135285, Note_on_c, 2, 78, 0
3, 135300, Note_on_c, 2, 76, 64
3, 135345, Note_on_c, 2, 76, 0
3, 135360, Note_on_c, 2, 75, 64
3, 135405, Note_on_c, 2, 75, 0
3, 135420, Note_on_c, 2, 76, 64
3, 135465, Note_on_c, 2, 76, 0
3, 135480, Note_on_c, 2, 78, 64
3, 135525, Note_on_c, 2, 78, 0
3, 135540, Note_on_c, 2, 75, 64
3, 135585, Note_on_c, 2, 75, 0
3, 135600, Note_on_c, 2, 71, 64
3, 135690, Note_on_c, 2, 71, 0
3, 135720, Note_on_c, 2, 75, 96
3, 135765, Note_on_c, 2, 75, 0
3, 135780, Note_on_c, 2, 76, 96
3, 135825, Note_on_c, 2, 76, 0
3, 135840, Note_on_c, 2, 78, 96
3, 135930, Note_on_c, 2, 78, 0
3, 135960, Note_on_c, 2, 75, 96
3, 136005, Note_on_c, 2, 75, 0
3, 136020, Note_on_c, 2, 76, 96
3, 136065, Note_on_c, 2, 76, 0
3, 136080, Note_on_c, 2, 78, 96
3, 136170, Note_on_c, 2, 78, 0
3, 136200, Note_on_c, 2, 83, 96
3, 136290, Note_on_c, 2, 83, 0
3, 136320, Note_on_c, 2, 78, 96
3, 136410, Note_on_c, 2, 78, 0
3, 136440, Note_on_c, 2, 78, 96
3, 136485, Note_on_c, 2, 78, 0
3, 136500, Note_on_c, 2, 76, 96
3, 136545, Note_on_c, 2, 76, 0
3, 136560, Note_on_c, 2, 75, 96
3, 136650, Note_on_c, 2, 75, 0
3, 136680, Note_on_c, 2, 75, 96
3, 136725, Note_on_c, 2, 75, 0
3, 136740, Note_on_c, 2, 73, 96
3, 136785, Note_on_c, 2, 73, 0
3, 136800, Note_on_c, 2, 71, 96
3, 136845, Note_on_c, 2, 71, 0
3, 136860, Note_on_c, 2, 83, 96
3, 136905, Note_on_c, 2, 83, 0
3, 136920, Note_on_c, 2, 78, 96
3, 136965, Note_on_c, 2, 78, 0
3, 136980, Note_on_c, 2, 76, 96
3, 137025, Note_on_c, 2, 76, 0
3, 137040, Note_on_c, 2, 75, 96
3, 137085, Note_on_c, 2, 75, 0
3, 137100, Note_on_c, 2, 78, 96
3, 137145, Note_on_c, 2, 78, 0
3, 137160, Note_on_c, 2, 75, 96
3, 137205, Note_on_c, 2, 75, 0
3, 137220, Note_on_c, 2, 73, 96
3, 137265, Note_on_c, 2, 73, 0
3, 137280, Note_on_c, 2, 71, 96
3, 137325, Note_on_c, 2, 71, 0
3, 137340, Note_on_c, 2, 81, 96
3, 137385, Note_on_c, 2, 81, 0
3, 137400, Note_on_c, 2, 78, 96
3, 137445, Note_on_c, 2, 78, 0
3, 137460, Note_on_c, 2, 76, 96
3, 137505, Note_on_c, 2, 76, 0
3, 137520, Note_on_c, 2, 75, 96
3, 137565, Note_on_c, 2, 75, 0
3, 137580, Note_on_c, 2, 78, 96
3, 137625, Note_on_c, 2, 78, 0
3, 137640, Note_on_c, 2, 75, 96
3, 137685, Note_on_c, 2, 75, 0
3, 137700, Note_on_c, 2, 73, 96
3, 137745, Note_on_c, 2, 73, 0
3, 137760, Note_on_c, 2, 71, 96
3, 137805, Note_on_c, 2, 71, 0
3, 137820, Note_on_c, 2, 80, 96
3, 137865, Note_on_c, 2, 80, 0
3, 137880, Note_on_c, 2, 76, 96
3, 137925, Note_on_c, 2, 76, 0
3, 137940, Note_on_c, 2, 75, 96
3, 137985, Note_on_c, 2, 75, 0
3, 138000, Note_on_c, 2, 73, 96
3, 138045, Note_on_c, 2, 73, 0
3, 138060, Note_on_c, 2, 76, 96
3, 138105, Note_on_c, 2, 76, 0
3, 138120, Note_on_c, 2, 73, 96
3, 138165, Note_on_c, 2, 73, 0
3, 138180, Note_on_c, 2, 71, 96
3, 138225, Note_on_c, 2, 71, 0
3, 138240, Note_on_c, 2, 70, 96
3, 138285, Note_on_c, 2, 70, 0
3, 138300, Note_on_c, 2, 73, 96
3, 138345, Note_on_c, 2, 73, 0
3, 138360, Note_on_c, 2, 76, 96
3, 138405, Note_on_c, 2, 76, 0
3, 138420, Note_on_c, 2, 80, 96
3, 138465, Note_on_c, 2, 80, 0
3, 138480, Note_on_c, 2, 78, 96
3, 138615, Note_on_c, 2, 78, 0
3, 138660, Note_on_c, 2, 76, 96
3, 138705, Note_on_c, 2, 76, 0
3, 138720, Note_on_c, 2, 75, 96
3, 138765, Note_on_c, 2, 75, 0
3, 138780, Note_on_c, 2, 78, 96
3, 138825, Note_on_c, 2, 78, 0
3, 138840, Note_on_c, 2, 82, 96
3, 138885, Note_on_c, 2, 82, 0
3, 138900, Note_on_c, 2, 83, 96
3, 138945, Note_on_c, 2, 83, 0
3, 138960, Note_on_c, 2, 73, 96
3, 139005, Note_on_c, 2, 73, 0
3, 139020, Note_on_c, 2, 76, 96
3, 139065, Note_on_c, 2, 76, 0
3, 139080, Note_on_c, 2, 82, 96
3, 139125, Note_on_c, 2, 82, 0
3, 139140, Note_on_c, 2, 83, 96
3, 139185, Note_on_c, 2, 83, 0
3, 139200, Note_on_c, 2, 71, 96
3, 139245, Note_on_c, 2, 71, 0
3, 139260, Note_on_c, 2, 75, 96
3, 139305, Note_on_c, 2, 75, 0
3, 139320, Note_on_c, 2, 82, 96
3, 139365, Note_on_c, 2, 82, 0
3, 139380, Note_on_c, 2, 83, 96
3, 139425, Note_on_c, 2, 83, 0
3, 139440, Note_on_c, 2, 65, 96
3, 139485, Note_on_c, 2, 65, 0
3, 139500, Note_on_c, 2, 73, 96
3, 139545, Note_on_c, 2, 73, 0
3, 139560, Note_on_c, 2, 80, 96
3, 139605, Note_on_c, 2, 80, 0
3, 139620, Note_on_c, 2, 83, 96
3, 139665, Note_on_c, 2, 83, 0
3, 139680, Note_on_c, 2, 82, 96
3, 139725, Note_on_c, 2, 82, 0
3, 139740, Note_on_c, 2, 78, 96
3, 139785, Note_on_c, 2, 78, 0
3, 139800, Note_on_c, 2, 73, 96
3, 139845, Note_on_c, 2, 73, 0
3, 139860, Note_on_c, 2, 70, 96
3, 139905, Note_on_c, 2, 70, 0
3, 139920, Note_on_c, 2, 66, 96
3, 139965, Note_on_c, 2, 66, 0
3, 139980, Note_on_c, 2, 73, 96
3, 140025, Note_on_c, 2, 73, 0
3, 140040, Note_on_c, 2, 75, 96
3, 140085, Note_on_c, 2, 75, 0
3, 140100, Note_on_c, 2, 76, 96
3, 140145, Note_on_c, 2, 76, 0
3, 140160, Note_on_c, 2, 78, 96
3, 140205, Note_on_c, 2, 78, 0
3, 140220, Note_on_c, 2, 78, 96
3, 140265, Note_on_c, 2, 78, 0
3, 140280, Note_on_c, 2, 78, 96
3, 140325, Note_on_c, 2, 78, 0
3, 140340, Note_on_c, 2, 78, 96
3, 140385, Note_on_c, 2, 78, 0
3, 140400, Note_on_c, 2, 78, 96
3, 140445, Note_on_c, 2, 78, 0
3, 140460, Note_on_c, 2, 78, 96
3, 140505, Note_on_c, 2, 78, 0
3, 140520, Note_on_c, 2, 78, 96
3, 140565, Note_on_c, 2, 78, 0
3, 140580, Note_on_c, 2, 78, 96
3, 140625, Note_on_c, 2, 78, 0
3, 140640, Note_on_c, 2, 78, 96
3, 140685, Note_on_c, 2, 78, 0
3, 140700, Note_on_c, 2, 75, 96
3, 140745, Note_on_c, 2, 75, 0
3, 140760, Note_on_c, 2, 72, 96
3, 140805, Note_on_c, 2, 72, 0
3, 140820, Note_on_c, 2, 68, 96
3, 140865, Note_on_c, 2, 68, 0
3, 140880, Note_on_c, 2, 66, 96
3, 140925, Note_on_c, 2, 66, 0
3, 140940, Note_on_c, 2, 68, 96
3, 140985, Note_on_c, 2, 68, 0
3, 141000, Note_on_c, 2, 72, 96
3, 141045, Note_on_c, 2, 72, 0
3, 141060, Note_on_c, 2, 75, 96
3, 141105, Note_on_c, 2, 75, 0
3, 141120, Note_on_c, 2, 76, 96
3, 141165, Note_on_c, 2, 76, 0
3, 141180, Note_on_c, 2, 76, 96
3, 141225, Note_on_c, 2, 76, 0
3, 141240, Note_on_c, 2, 76, 96
3, 141285, Note_on_c, 2, 76, 0
3, 141300, Note_on_c, 2, 76, 96
3, 141345, Note_on_c, 2, 76, 0
3, 141360, Note_on_c, 2, 76, 96
3, 141405, Note_on_c, 2, 76, 0
3, 141420, Note_on_c, 2, 76, 96
3, 141465, Note_on_c, 2, 76, 0
3, 141480, Note_on_c, 2, 76, 96
3, 141525, Note_on_c, 2, 76, 0
3, 141540, Note_on_c, 2, 76, 96
3, 141585, Note_on_c, 2, 76, 0
3, 141600, Note_on_c, 2, 76, 96
3, 141645, Note_on_c, 2, 76, 0
3, 141660, Note_on_c, 2, 73, 96
3, 141705, Note_on_c, 2, 73, 0
3, 141720, Note_on_c, 2, 70, 96
3, 141765, Note_on_c, 2, 70, 0
3, 141780, Note_on_c, 2, 66, 96
3, 141825, Note_on_c, 2, 66, 0
3, 141840, Note_on_c, 2, 64, 96
3, 141885, Note_on_c, 2, 64, 0
3, 141900, Note_on_c, 2, 66, 96
3, 141945, Note_on_c, 2, 66, 0
3, 141960, Note_on_c, 2, 70, 96
3, 142005, Note_on_c, 2, 70, 0
3, 142020, Note_on_c, 2, 73, 96
3, 142065, Note_on_c, 2, 73, 0
3, 142080, Note_on_c, 2, 75, 96
3, 142125, Note_on_c, 2, 75, 0
3, 142140, Note_on_c, 2, 75, 96
3, 142185, Note_on_c, 2, 75, 0
3, 142200, Note_on_c, 2, 75, 96
3, 142245, Note_on_c, 2, 75, 0
3, 142260, Note_on_c, 2, 75, 96
3, 142305, Note_on_c, 2, 75, 0
3, 142320, Note_on_c, 2, 75, 96
3, 142365, Note_on_c, 2, 75, 0
3, 142380, Note_on_c, 2, 75, 96
3, 142425, Note_on_c, 2, 75, 0
3, 142440, Note_on_c, 2, 75, 96
3, 142485, Note_on_c, 2, 75, 0
3, 142500, Note_on_c, 2, 75, 96
3, 142545, Note_on_c, 2, 75, 0
3, 142560, Note_on_c, 2, 76, 96
3, 142605, Note_on_c, 2, 76, 0
3, 142620, Note_on_c, 2, 78, 96
3, 142665, Note_on_c, 2, 78, 0
3, 142680, Note_on_c, 2, 80, 96
3, 142725, Note_on_c, 2, 80, 0
3, 142740, Note_on_c, 2, 76, 96
3, 142785, Note_on_c, 2, 76, 0
3, 142800, Note_on_c, 2, 75, 96
3, 142845, Note_on_c, 2, 75, 0
3, 142860, Note_on_c, 2, 76, 96
3, 142905, Note_on_c, 2, 76, 0
3, 142920, Note_on_c, 2, 78, 96
3, 142965, Note_on_c, 2, 78, 0
3, 142980, Note_on_c, 2, 75, 96
3, 143025, Note_on_c, 2, 75, 0
3, 143040, Note_on_c, 2, 73, 96
3, 143085, Note_on_c, 2, 73, 0
3, 143100, Note_on_c, 2, 75, 96
3, 143145, Note_on_c, 2, 75, 0
3, 143160, Note_on_c, 2, 76, 96
3, 143205, Note_on_c, 2, 76, 0
3, 143220, Note_on_c, 2, 73, 96
3, 143265, Note_on_c, 2, 73, 0
3, 143280, Note_on_c, 2, 71, 96
3, 143325, Note_on_c, 2, 71, 0
3, 143340, Note_on_c, 2, 73, 96
3, 143385, Note_on_c, 2, 73, 0
3, 143400, Note_on_c, 2, 75, 96
3, 143445, Note_on_c, 2, 75, 0
3, 143460, Note_on_c, 2, 71, 96
3, 143505, Note_on_c, 2, 71, 0
3, 143520, Note_on_c, 2, 70, 96
3, 143565, Note_on_c, 2, 70, 0
3, 143580, Note_on_c, 2, 71, 96
3, 143625, Note_on_c, 2, 71, 0
3, 143640, Note_on_c, 2, 73, 96
3, 143685, Note_on_c, 2, 73, 0
3, 143700, Note_on_c, 2, 70, 96
3, 143745, Note_on_c, 2, 70, 0
3, 143760, Note_on_c, 2, 64, 96
3, 143805, Note_on_c, 2, 64, 0
3, 143820, Note_on_c, 2, 66, 96
3, 143865, Note_on_c, 2, 66, 0
3, 143880, Note_on_c, 2, 68, 96
3, 143925, Note_on_c, 2, 68, 0
3, 143940, Note_on_c, 2, 64, 96
3, 143985, Note_on_c, 2, 64, 0
3, 144000, Note_on_c, 2, 61, 96
3, 144045, Note_on_c, 2, 61, 0
3, 144060, Note_on_c, 2, 63, 96
3, 144105, Note_on_c, 2, 63, 0
3, 144120, Note_on_c, 2, 64, 96
3, 144165, Note_on_c, 2, 64, 0
3, 144180, Note_on_c, 2, 61, 96
3, 144225, Note_on_c, 2, 61, 0
3, 144240, Note_on_c, 2, 58, 96
3, 144285, Note_on_c, 2, 58, 0
3, 144300, Note_on_c, 2, 59, 96
3, 144345, Note_on_c, 2, 59, 0
3, 144360, Note_on_c, 2, 61, 96
3, 144405, Note_on_c, 2, 61, 0
3, 144420, Note_on_c, 2, 63, 96
3, 144465, Note_on_c, 2, 63, 0
3, 144480, Note_on_c, 2, 64, 96
3, 144525, Note_on_c, 2, 64, 0
3, 144540, Note_on_c, 2, 66, 96
3, 144585, Note_on_c, 2, 66, 0
3, 144600, Note_on_c, 2, 68, 96
3, 144645, Note_on_c, 2, 68, 0
3, 144660, Note_on_c, 2, 70, 96
3, 144705, Note_on_c, 2, 70, 0
3, 144720, Note_on_c, 2, 71, 96
3, 144765, Note_on_c, 2, 71, 0
3, 144780, Note_on_c, 2, 73, 96
3, 144825, Note_on_c, 2, 73, 0
3, 144840, Note_on_c, 2, 75, 96
3, 144885, Note_on_c, 2, 75, 0
3, 144900, Note_on_c, 2, 76, 96
3, 144923, Note_on_c, 2, 76, 0
3, 144930, Note_on_c, 2, 78, 96
3, 144953, Note_on_c, 2, 78, 0
3, 144960, Note_on_c, 2, 75, 96
3, 145050, Note_on_c, 2, 75, 0
3, 145080, Note_on_c, 2, 73, 96
3, 145125, Note_on_c, 2, 73, 0
3, 145140, Note_on_c, 2, 71, 96
3, 145185, Note_on_c, 2, 71, 0
3, 145200, Note_on_c, 2, 73, 96
3, 145290, Note_on_c, 2, 73, 0
3, 145320, Note_on_c, 2, 71, 96
3, 145365, Note_on_c, 2, 71, 0
3, 145380, Note_on_c, 2, 70, 96
3, 145425, Note_on_c, 2, 70, 0
3, 145440, Note_on_c, 2, 71, 96
3, 145485, Note_on_c, 2, 71, 0
3, 145500, Note_on_c, 2, 75, 96
3, 145523, Note_on_c, 2, 75, 0
3, 145530, Note_on_c, 2, 76, 96
3, 145553, Note_on_c, 2, 76, 0
3, 145560, Note_on_c, 2, 78, 96
3, 145605, Note_on_c, 2, 78, 0
3, 145620, Note_on_c, 2, 71, 96
3, 145665, Note_on_c, 2, 71, 0
3, 145680, Note_on_c, 2, 80, 96
3, 145725, Note_on_c, 2, 80, 0
3, 145740, Note_on_c, 2, 71, 96
3, 145785, Note_on_c, 2, 71, 0
3, 145800, Note_on_c, 2, 82, 96
3, 145845, Note_on_c, 2, 82, 0
3, 145860, Note_on_c, 2, 71, 96
3, 145905, Note_on_c, 2, 71, 0
3, 145920, Note_on_c, 2, 83, 96
3, 145965, Note_on_c, 2, 83, 0
3, 145980, Note_on_c, 2, 82, 96
3, 146003, Note_on_c, 2, 82, 0
3, 146010, Note_on_c, 2, 80, 96
3, 146033, Note_on_c, 2, 80, 0
3, 146040, Note_on_c, 2, 78, 96
3, 146085, Note_on_c, 2, 78, 0
3, 146100, Note_on_c, 2, 76, 96
3, 146145, Note_on_c, 2, 76, 0
3, 146160, Note_on_c, 2, 75, 96
3, 146183, Note_on_c, 2, 75, 0
3, 146190, Note_on_c, 2, 76, 96
3, 146213, Note_on_c, 2, 76, 0
3, 146220, Note_on_c, 2, 78, 96
3, 146265, Note_on_c, 2, 78, 0
3, 146280, Note_on_c, 2, 73, 96
3, 146303, Note_on_c, 2, 73, 0
3, 146310, Note_on_c, 2, 75, 96
3, 146333, Note_on_c, 2, 75, 0
3, 146340, Note_on_c, 2, 76, 96
3, 146385, Note_on_c, 2, 76, 0
3, 146400, Note_on_c, 2, 75, 96
3, 146423, Note_on_c, 2, 75, 0
3, 146430, Note_on_c, 2, 73, 96
3, 146453, Note_on_c, 2, 73, 0
3, 146460, Note_on_c, 2, 71, 96
3, 146505, Note_on_c, 2, 71, 0
3, 146520, Note_on_c, 2, 78, 96
3, 146565, Note_on_c, 2, 78, 0
3, 146580, Note_on_c, 2, 75, 96
3, 146625, Note_on_c, 2, 75, 0
3, 146640, Note_on_c, 2, 83, 96
3, 146685, Note_on_c, 2, 83, 0
3, 146700, Note_on_c, 2, 78, 96
3, 146745, Note_on_c, 2, 78, 0
3, 146760, Note_on_c, 2, 75, 96
3, 146805, Note_on_c, 2, 75, 0
3, 146820, Note_on_c, 2, 71, 96
3, 146865, Note_on_c, 2, 71, 0
3, 146880, Note_on_c, 2, 66, 96
3, 146940, Note_on_c, 2, 66, 0
3, 146940, Note_on_c, 2, 71, 96
3, 146970, Note_on_c, 2, 71, 0
3, 146970, Note_on_c, 2, 70, 96
3, 147000, Note_on_c, 2, 70, 0
3, 147000, Note_on_c, 2, 71, 96
3, 147045, Note_on_c, 2, 71, 0
3, 147060, Note_on_c, 2, 66, 96
3, 147105, Note_on_c, 2, 66, 0
3, 147120, Note_on_c, 2, 63, 96
3, 147180, Note_on_c, 2, 63, 0
3, 147180, Note_on_c, 2, 66, 96
3, 147210, Note_on_c, 2, 66, 0
3, 147210, Note_on_c, 2, 64, 96
3, 147240, Note_on_c, 2, 64, 0
3, 147240, Note_on_c, 2, 66, 96
3, 147285, Note_on_c, 2, 66, 0
3, 147300, Note_on_c, 2, 63, 96
3, 147345, Note_on_c, 2, 63, 0
3, 147360, Note_on_c, 2, 59, 96
3, 148200, Note_on_c, 2, 59, 0
3, 148380, Note_on_c, 2, 66, 96
3, 148425, Note_on_c, 2, 66, 0
3, 148440, Note_on_c, 2, 71, 96
3, 148485, Note_on_c, 2, 71, 0
3, 148500, Note_on_c, 2, 75, 96
3, 148545, Note_on_c, 2, 75, 0
3, 148560, Note_on_c, 2, 76, 96
3, 148605, Note_on_c, 2, 76, 0
3, 148620, Note_on_c, 2, 71, 96
3, 148665, Note_on_c, 2, 71, 0
3, 148680, Note_on_c, 2, 78, 96
3, 148770, Note_on_c, 2, 78, 0
3, 148800, Note_on_c, 2, 76, 96
3, 148845, Note_on_c, 2, 76, 0
3, 148860, Note_on_c, 2, 75, 96
3, 148905, Note_on_c, 2, 75, 0
3, 148920, Note_on_c, 2, 73, 96
3, 148965, Note_on_c, 2, 73, 0
3, 148980, Note_on_c, 2, 71, 96
3, 149025, Note_on_c, 2, 71, 0
3, 149040, Note_on_c, 2, 75, 96
3, 149085, Note_on_c, 2, 75, 0
3, 149100, Note_on_c, 2, 73, 96
3, 149145, Note_on_c, 2, 73, 0
3, 149160, Note_on_c, 2, 71, 96
3, 149205, Note_on_c, 2, 71, 0
3, 149220, Note_on_c, 2, 70, 96
3, 149265, Note_on_c, 2, 70, 0
3, 149280, Note_on_c, 2, 71, 96
3, 149520, Note_on_c, 2, 71, 0
3, 150240, Note_on_c, 2, 59, 96
3, 150285, Note_on_c, 2, 59, 0
3, 150300, Note_on_c, 2, 62, 96
3, 150345, Note_on_c, 2, 62, 0
3, 150360, Note_on_c, 2, 64, 96
3, 150405, Note_on_c, 2, 64, 0
3, 150420, Note_on_c, 2, 68, 96
3, 150465, Note_on_c, 2, 68, 0
3, 150480, Note_on_c, 2, 71, 96
3, 150525, Note_on_c, 2, 71, 0
3, 150540, Note_on_c, 2, 68, 96
3, 150585, Note_on_c, 2, 68, 0
3, 150600, Note_on_c, 2, 66, 96
3, 150645, Note_on_c, 2, 66, 0
3, 150660, Note_on_c, 2, 64, 96
3, 150705, Note_on_c, 2, 64, 0
3, 150720, Note_on_c, 2, 62, 96
3, 150765, Note_on_c, 2, 62, 0
3, 150780, Note_on_c, 2, 64, 96
3, 150825, Note_on_c, 2, 64, 0
3, 150840, Note_on_c, 2, 68, 96
3, 150885, Note_on_c, 2, 68, 0
3, 150900, Note_on_c, 2, 71, 96
3, 150945, Note_on_c, 2, 71, 0
3, 150960, Note_on_c, 2, 74, 96
3, 151005, Note_on_c, 2, 74, 0
3, 151020, Note_on_c, 2, 73, 96
3, 151065, Note_on_c, 2, 73, 0
3, 151080, Note_on_c, 2, 71, 96
3, 151125, Note_on_c, 2, 71, 0
3, 151140, Note_on_c, 2, 69, 96
3, 151185, Note_on_c, 2, 69, 0
3, 151200, Note_on_c, 2, 68, 96
3, 151245, Note_on_c, 2, 68, 0
3, 151260, Note_on_c, 2, 69, 96
3, 151305, Note_on_c, 2, 69, 0
3, 151320, Note_on_c, 2, 71, 96
3, 151365, Note_on_c, 2, 71, 0
3, 151380, Note_on_c, 2, 68, 96
3, 151425, Note_on_c, 2, 68, 0
3, 151440, Note_on_c, 2, 64, 80
3, 151485, Note_on_c, 2, 64, 0
3, 151500, Note_on_c, 2, 68, 80
3, 151545, Note_on_c, 2, 68, 0
3, 151560, Note_on_c, 2, 66, 80
3, 151605, Note_on_c, 2, 66, 0
3, 151620, Note_on_c, 2, 64, 80
3, 151665, Note_on_c, 2, 64, 0
3, 151680, Note_on_c, 2, 74, 80
3, 151725, Note_on_c, 2, 74, 0
3, 151740, Note_on_c, 2, 73, 80
3, 151785, Note_on_c, 2, 73, 0
3, 151800, Note_on_c, 2, 71, 80
3, 151845, Note_on_c, 2, 71, 0
3, 151860, Note_on_c, 2, 69, 80
3, 151905, Note_on_c, 2, 69, 0
3, 151920, Note_on_c, 2, 68, 80
3, 151965, Note_on_c, 2, 68, 0
3, 151980, Note_on_c, 2, 69, 80
3, 152025, Note_on_c, 2, 69, 0
3, 152040, Note_on_c, 2, 71, 80
3, 152085, Note_on_c, 2, 71, 0
3, 152100, Note_on_c, 2, 68, 80
3, 152145, Note_on_c, 2, 68, 0
3, 152160, Note_on_c, 2, 64, 64
3, 152205, Note_on_c, 2, 64, 0
3, 152220, Note_on_c, 2, 68, 64
3, 152265, Note_on_c, 2, 68, 0
3, 152280, Note_on_c, 2, 66, 64
3, 152325, Note_on_c, 2, 66, 0
3, 152340, Note_on_c, 2, 64, 64
3, 152385, Note_on_c, 2, 64, 0
3, 152400, Note_on_c, 2, 74, 64
3, 152445, Note_on_c, 2, 74, 0
3, 152460, Note_on_c, 2, 73, 64
3, 152505, Note_on_c, 2, 73, 0
3, 152520, Note_on_c, 2, 71, 64
3, 152565, Note_on_c, 2, 71, 0
3, 152580, Note_on_c, 2, 69, 64
3, 152625, Note_on_c, 2, 69, 0
3, 152640, Note_on_c, 2, 68, 64
3, 152685, Note_on_c, 2, 68, 0
3, 152700, Note_on_c, 2, 69, 64
3, 152745, Note_on_c, 2, 69, 0
3, 152760, Note_on_c, 2, 71, 64
3, 152805, Note_on_c, 2, 71, 0
3, 152820, Note_on_c, 2, 68, 64
3, 152865, Note_on_c, 2, 68, 0
3, 152880, Note_on_c, 2, 64, 64
3, 152970, Note_on_c, 2, 64, 0
3, 153000, Note_on_c, 2, 68, 96
3, 153045, Note_on_c, 2, 68, 0
3, 153060, Note_on_c, 2, 69, 96
3, 153105, Note_on_c, 2, 69, 0
3, 153120, Note_on_c, 2, 71, 96
3, 153192, Note_on_c, 2, 71, 0
3, 153240, Note_on_c, 2, 68, 96
3, 153285, Note_on_c, 2, 68, 0
3, 153300, Note_on_c, 2, 69, 96
3, 153345, Note_on_c, 2, 69, 0
3, 153360, Note_on_c, 2, 71, 96
3, 153450, Note_on_c, 2, 71, 0
3, 153480, Note_on_c, 2, 76, 96
3, 153570, Note_on_c, 2, 76, 0
3, 153600, Note_on_c, 2, 71, 96
3, 153690, Note_on_c, 2, 71, 0
3, 153720, Note_on_c, 2, 71, 96
3, 153765, Note_on_c, 2, 71, 0
3, 153780, Note_on_c, 2, 69, 96
3, 153825, Note_on_c, 2, 69, 0
3, 153840, Note_on_c, 2, 68, 96
3, 153930, Note_on_c, 2, 68, 0
3, 153960, Note_on_c, 2, 66, 96
3, 154005, Note_on_c, 2, 66, 0
3, 154020, Note_on_c, 2, 64, 96
3, 154065, Note_on_c, 2, 64, 0
3, 154080, Note_on_c, 2, 71, 96
3, 154125, Note_on_c, 2, 71, 0
3, 154140, Note_on_c, 2, 76, 96
3, 154185, Note_on_c, 2, 76, 0
3, 154200, Note_on_c, 2, 71, 96
3, 154245, Note_on_c, 2, 71, 0
3, 154260, Note_on_c, 2, 69, 96
3, 154305, Note_on_c, 2, 69, 0
3, 154320, Note_on_c, 2, 68, 96
3, 154365, Note_on_c, 2, 68, 0
3, 154380, Note_on_c, 2, 71, 96
3, 154425, Note_on_c, 2, 71, 0
3, 154440, Note_on_c, 2, 68, 96
3, 154485, Note_on_c, 2, 68, 0
3, 154500, Note_on_c, 2, 66, 96
3, 154545, Note_on_c, 2, 66, 0
3, 154560, Note_on_c, 2, 64, 96
3, 154605, Note_on_c, 2, 64, 0
3, 154620, Note_on_c, 2, 74, 96
3, 154665, Note_on_c, 2, 74, 0
3, 154680, Note_on_c, 2, 71, 96
3, 154725, Note_on_c, 2, 71, 0
3, 154740, Note_on_c, 2, 69, 96
3, 154785, Note_on_c, 2, 69, 0
3, 154800, Note_on_c, 2, 68, 96
3, 154845, Note_on_c, 2, 68, 0
3, 154860, Note_on_c, 2, 71, 96
3, 154905, Note_on_c, 2, 71, 0
3, 154920, Note_on_c, 2, 68, 96
3, 154965, Note_on_c, 2, 68, 0
3, 154980, Note_on_c, 2, 66, 96
3, 155025, Note_on_c, 2, 66, 0
3, 155040, Note_on_c, 2, 64, 96
3, 155085, Note_on_c, 2, 64, 0
3, 155100, Note_on_c, 2, 73, 96
3, 155145, Note_on_c, 2, 73, 0
3, 155160, Note_on_c, 2, 69, 96
3, 155205, Note_on_c, 2, 69, 0
3, 155220, Note_on_c, 2, 68, 96
3, 155265, Note_on_c, 2, 68, 0
3, 155280, Note_on_c, 2, 66, 96
3, 155325, Note_on_c, 2, 66, 0
3, 155340, Note_on_c, 2, 69, 96
3, 155385, Note_on_c, 2, 69, 0
3, 155400, Note_on_c, 2, 66, 96
3, 155445, Note_on_c, 2, 66, 0
3, 155460, Note_on_c, 2, 64, 96
3, 155505, Note_on_c, 2, 64, 0
3, 155520, Note_on_c, 2, 63, 96
3, 155565, Note_on_c, 2, 63, 0
3, 155580, Note_on_c, 2, 66, 96
3, 155625, Note_on_c, 2, 66, 0
3, 155640, Note_on_c, 2, 69, 96
3, 155685, Note_on_c, 2, 69, 0
3, 155700, Note_on_c, 2, 73, 96
3, 155745, Note_on_c, 2, 73, 0
3, 155760, Note_on_c, 2, 71, 96
3, 155895, Note_on_c, 2, 71, 0
3, 155940, Note_on_c, 2, 69, 96
3, 155985, Note_on_c, 2, 69, 0
3, 156000, Note_on_c, 2, 68, 96
3, 156045, Note_on_c, 2, 68, 0
3, 156060, Note_on_c, 2, 71, 96
3, 156105, Note_on_c, 2, 71, 0
3, 156120, Note_on_c, 2, 75, 96
3, 156165, Note_on_c, 2, 75, 0
3, 156180, Note_on_c, 2, 76, 96
3, 156225, Note_on_c, 2, 76, 0
3, 156240, Note_on_c, 2, 66, 96
3, 156285, Note_on_c, 2, 66, 0
3, 156300, Note_on_c, 2, 69, 96
3, 156345, Note_on_c, 2, 69, 0
3, 156360, Note_on_c, 2, 75, 96
3, 156405, Note_on_c, 2, 75, 0
3, 156420, Note_on_c, 2, 76, 96
3, 156465, Note_on_c, 2, 76, 0
3, 156480, Note_on_c, 2, 64, 96
3, 156525, Note_on_c, 2, 64, 0
3, 156540, Note_on_c, 2, 68, 96
3, 156585, Note_on_c, 2, 68, 0
3, 156600, Note_on_c, 2, 75, 96
3, 156645, Note_on_c, 2, 75, 0
3, 156660, Note_on_c, 2, 76, 96
3, 156705, Note_on_c, 2, 76, 0
3, 156720, Note_on_c, 2, 58, 96
3, 156765, Note_on_c, 2, 58, 0
3, 156780, Note_on_c, 2, 66, 96
3, 156825, Note_on_c, 2, 66, 0
3, 156840, Note_on_c, 2, 73, 96
3, 156885, Note_on_c, 2, 73, 0
3, 156900, Note_on_c, 2, 76, 96
3, 156945, Note_on_c, 2, 76, 0
3, 156960, Note_on_c, 2, 75, 96
3, 157005, Note_on_c, 2, 75, 0
3, 157020, Note_on_c, 2, 71, 96
3, 157065, Note_on_c, 2, 71, 0
3, 157080, Note_on_c, 2, 66, 96
3, 157125, Note_on_c, 2, 66, 0
3, 157140, Note_on_c, 2, 63, 96
3, 157185, Note_on_c, 2, 63, 0
3, 157200, Note_on_c, 2, 59, 96
3, 157245, Note_on_c, 2, 59, 0
3, 157260, Note_on_c, 2, 78, 96
3, 157305, Note_on_c, 2, 78, 0
3, 157320, Note_on_c, 2, 80, 96
3, 157365, Note_on_c, 2, 80, 0
3, 157380, Note_on_c, 2, 81, 96
3, 157425, Note_on_c, 2, 81, 0
3, 157440, Note_on_c, 2, 83, 96
3, 157485, Note_on_c, 2, 83, 0
3, 157500, Note_on_c, 2, 83, 96
3, 157545, Note_on_c, 2, 83, 0
3, 157560, Note_on_c, 2, 83, 96
3, 157605, Note_on_c, 2, 83, 0
3, 157620, Note_on_c, 2, 83, 96
3, 157665, Note_on_c, 2, 83, 0
3, 157680, Note_on_c, 2, 83, 96
3, 157725, Note_on_c, 2, 83, 0
3, 157740, Note_on_c, 2, 83, 96
3, 157785, Note_on_c, 2, 83, 0
3, 157800, Note_on_c, 2, 83, 96
3, 157845, Note_on_c, 2, 83, 0
3, 157860, Note_on_c, 2, 83, 96
3, 157905, Note_on_c, 2, 83, 0
3, 157920, Note_on_c, 2, 83, 96
3, 157965, Note_on_c, 2, 83, 0
3, 157980, Note_on_c, 2, 80, 96
3, 158025, Note_on_c, 2, 80, 0
3, 158040, Note_on_c, 2, 77, 96
3, 158085, Note_on_c, 2, 77, 0
3, 158100, Note_on_c, 2, 73, 96
3, 158145, Note_on_c, 2, 73, 0
3, 158160, Note_on_c, 2, 71, 96
3, 158205, Note_on_c, 2, 71, 0
3, 158220, Note_on_c, 2, 73, 96
3, 158265, Note_on_c, 2, 73, 0
3, 158280, Note_on_c, 2, 77, 96
3, 158325, Note_on_c, 2, 77, 0
3, 158340, Note_on_c, 2, 80, 96
3, 158385, Note_on_c, 2, 80, 0
3, 158400, Note_on_c, 2, 81, 96
3, 158445, Note_on_c, 2, 81, 0
3, 158460, Note_on_c, 2, 81, 96
3, 158505, Note_on_c, 2, 81, 0
3, 158520, Note_on_c, 2, 81, 96
3, 158565, Note_on_c, 2, 81, 0
3, 158580, Note_on_c, 2, 81, 96
3, 158625, Note_on_c, 2, 81, 0
3, 158640, Note_on_c, 2, 81, 96
3, 158685, Note_on_c, 2, 81, 0
3, 158700, Note_on_c, 2, 81, 96
3, 158745, Note_on_c, 2, 81, 0
3, 158760, Note_on_c, 2, 81, 96
3, 158805, Note_on_c, 2, 81, 0
3, 158820, Note_on_c, 2, 81, 96
3, 158865, Note_on_c, 2, 81, 0
3, 158880, Note_on_c, 2, 81, 96
3, 158925, Note_on_c, 2, 81, 0
3, 158940, Note_on_c, 2, 78, 96
3, 158985, Note_on_c, 2, 78, 0
3, 159000, Note_on_c, 2, 75, 96
3, 159045, Note_on_c, 2, 75, 0
3, 159060, Note_on_c, 2, 71, 96
3, 159105, Note_on_c, 2, 71, 0
3, 159120, Note_on_c, 2, 69, 96
3, 159165, Note_on_c, 2, 69, 0
3, 159180, Note_on_c, 2, 71, 96
3, 159225, Note_on_c, 2, 71, 0
3, 159240, Note_on_c, 2, 75, 96
3, 159285, Note_on_c, 2, 75, 0
3, 159300, Note_on_c, 2, 78, 96
3, 159345, Note_on_c, 2, 78, 0
3, 159360, Note_on_c, 2, 80, 96
3, 159405, Note_on_c, 2, 80, 0
3, 159420, Note_on_c, 2, 80, 96
3, 159465, Note_on_c, 2, 80, 0
3, 159480, Note_on_c, 2, 80, 96
3, 159525, Note_on_c, 2, 80, 0
3, 159540, Note_on_c, 2, 80, 96
3, 159585, Note_on_c, 2, 80, 0
3, 159600, Note_on_c, 2, 80, 96
3, 159645, Note_on_c, 2, 80, 0
3, 159660, Note_on_c, 2, 80, 96
3, 159705, Note_on_c, 2, 80, 0
3, 159720, Note_on_c, 2, 80, 96
3, 159765, Note_on_c, 2, 80, 0
3, 159780, Note_on_c, 2, 80, 96
3, 159825, Note_on_c, 2, 80, 0
3, 159840, Note_on_c, 2, 81, 96
3, 159885, Note_on_c, 2, 81, 0
3, 159900, Note_on_c, 2, 83, 96
3, 159945, Note_on_c, 2, 83, 0
3, 159960, Note_on_c, 2, 85, 96
3, 160005, Note_on_c, 2, 85, 0
3, 160020, Note_on_c, 2, 81, 96
3, 160065, Note_on_c, 2, 81, 0
3, 160080, Note_on_c, 2, 80, 96
3, 160125, Note_on_c, 2, 80, 0
3, 160140, Note_on_c, 2, 81, 96
3, 160185, Note_on_c, 2, 81, 0
3, 160200, Note_on_c, 2, 83, 96
3, 160245, Note_on_c, 2, 83, 0
3, 160260, Note_on_c, 2, 80, 96
3, 160305, Note_on_c, 2, 80, 0
3, 160320, Note_on_c, 2, 78, 96
3, 160365, Note_on_c, 2, 78, 0
3, 160380, Note_on_c, 2, 80, 96
3, 160425, Note_on_c, 2, 80, 0
3, 160440, Note_on_c, 2, 81, 96
3, 160485, Note_on_c, 2, 81, 0
3, 160500, Note_on_c, 2, 78, 96
3, 160545, Note_on_c, 2, 78, 0
3, 160560, Note_on_c, 2, 76, 96
3, 160605, Note_on_c, 2, 76, 0
3, 160620, Note_on_c, 2, 78, 96
3, 160665, Note_on_c, 2, 78, 0
3, 160680, Note_on_c, 2, 80, 96
3, 160725, Note_on_c, 2, 80, 0
3, 160740, Note_on_c, 2, 76, 96
3, 160785, Note_on_c, 2, 76, 0
3, 160800, Note_on_c, 2, 75, 96
3, 160845, Note_on_c, 2, 75, 0
3, 160860, Note_on_c, 2, 76, 96
3, 160905, Note_on_c, 2, 76, 0
3, 160920, Note_on_c, 2, 78, 96
3, 160965, Note_on_c, 2, 78, 0
3, 160980, Note_on_c, 2, 75, 96
3, 161025, Note_on_c, 2, 75, 0
3, 161040, Note_on_c, 2, 69, 96
3, 161085, Note_on_c, 2, 69, 0
3, 161100, Note_on_c, 2, 71, 96
3, 161145, Note_on_c, 2, 71, 0
3, 161160, Note_on_c, 2, 73, 96
3, 161205, Note_on_c, 2, 73, 0
3, 161220, Note_on_c, 2, 69, 96
3, 161265, Note_on_c, 2, 69, 0
3, 161280, Note_on_c, 2, 66, 96
3, 161325, Note_on_c, 2, 66, 0
3, 161340, Note_on_c, 2, 68, 96
3, 161385, Note_on_c, 2, 68, 0
3, 161400, Note_on_c, 2, 69, 96
3, 161445, Note_on_c, 2, 69, 0
3, 161460, Note_on_c, 2, 66, 96
3, 161505, Note_on_c, 2, 66, 0
3, 161520, Note_on_c, 2, 63, 96
3, 161565, Note_on_c, 2, 63, 0
3, 161580, Note_on_c, 2, 64, 96
3, 161625, Note_on_c, 2, 64, 0
3, 161640, Note_on_c, 2, 66, 96
3, 161685, Note_on_c, 2, 66, 0
3, 161700, Note_on_c, 2, 63, 96
3, 161745, Note_on_c, 2, 63, 0
3, 161760, Note_on_c, 2, 59, 96
3, 161805, Note_on_c, 2, 59, 0
3, 161820, Note_on_c, 2, 63, 96
3, 161865, Note_on_c, 2, 63, 0
3, 161880, Note_on_c, 2, 66, 96
3, 161925, Note_on_c, 2, 66, 0
3, 161940, Note_on_c, 2, 69, 96
3, 161985, Note_on_c, 2, 69, 0
3, 162000, Note_on_c, 2, 71, 96
3, 162045, Note_on_c, 2, 71, 0
3, 162060, Note_on_c, 2, 75, 96
3, 162105, Note_on_c, 2, 75, 0
3, 162120, Note_on_c, 2, 78, 96
3, 162165, Note_on_c, 2, 78, 0
3, 162180, Note_on_c, 2, 80, 96
3, 162203, Note_on_c, 2, 80, 0
3, 162210, Note_on_c, 2, 81, 96
3, 162233, Note_on_c, 2, 81, 0
3, 162240, Note_on_c, 2, 80, 96
3, 162330, Note_on_c, 2, 80, 0
3, 162360, Note_on_c, 2, 78, 96
3, 162405, Note_on_c, 2, 78, 0
3, 162420, Note_on_c, 2, 76, 96
3, 162465, Note_on_c, 2, 76, 0
3, 162480, Note_on_c, 2, 78, 96
3, 162570, Note_on_c, 2, 78, 0
3, 162600, Note_on_c, 2, 76, 96
3, 162645, Note_on_c, 2, 76, 0
3, 162660, Note_on_c, 2, 75, 96
3, 162705, Note_on_c, 2, 75, 0
3, 162720, Note_on_c, 2, 76, 96
3, 162765, Note_on_c, 2, 76, 0
3, 162780, Note_on_c, 2, 80, 96
3, 162803, Note_on_c, 2, 80, 0
3, 162810, Note_on_c, 2, 81, 96
3, 162833, Note_on_c, 2, 81, 0
3, 162840, Note_on_c, 2, 83, 96
3, 162885, Note_on_c, 2, 83, 0
3, 162900, Note_on_c, 2, 76, 96
3, 162945, Note_on_c, 2, 76, 0
3, 162960, Note_on_c, 2, 85, 96
3, 163005, Note_on_c, 2, 85, 0
3, 163020, Note_on_c, 2, 76, 96
3, 163065, Note_on_c, 2, 76, 0
3, 163080, Note_on_c, 2, 87, 96
3, 163125, Note_on_c, 2, 87, 0
3, 163140, Note_on_c, 2, 76, 96
3, 163185, Note_on_c, 2, 76, 0
3, 163200, Note_on_c, 2, 88, 96
3, 163245, Note_on_c, 2, 88, 0
3, 163260, Note_on_c, 2, 87, 96
3, 163283, Note_on_c, 2, 87, 0
3, 163290, Note_on_c, 2, 85, 96
3, 163313, Note_on_c, 2, 85, 0
3, 163320, Note_on_c, 2, 83, 96
3, 163365, Note_on_c, 2, 83, 0
3, 163380, Note_on_c, 2, 81, 96
3, 163425, Note_on_c, 2, 81, 0
3, 163440, Note_on_c, 2, 80, 96
3, 163463, Note_on_c, 2, 80, 0
3, 163470, Note_on_c, 2, 81, 96
3, 163493, Note_on_c, 2, 81, 0
3, 163500, Note_on_c, 2, 83, 96
3, 163545, Note_on_c, 2, 83, 0
3, 163560, Note_on_c, 2, 78, 96
3, 163583, Note_on_c, 2, 78, 0
3, 163590, Note_on_c, 2, 80, 96
3, 163613, Note_on_c, 2, 80, 0
3, 163620, Note_on_c, 2, 81, 96
3, 163665, Note_on_c, 2, 81, 0
3, 163680, Note_on_c, 2, 80, 96
3, 163703, Note_on_c, 2, 80, 0
3, 163710, Note_on_c, 2, 78, 96
3, 163733, Note_on_c, 2, 78, 0
3, 163740, Note_on_c, 2, 76, 96
3, 163785, Note_on_c, 2, 76, 0
3, 163800, Note_on_c, 2, 83, 96
3, 163845, Note_on_c, 2, 83, 0
3, 163860, Note_on_c, 2, 80, 96
3, 163905, Note_on_c, 2, 80, 0
3, 163920, Note_on_c, 2, 88, 96
3, 163965, Note_on_c, 2, 88, 0
3, 163980, Note_on_c, 2, 83, 96
3, 164025, Note_on_c, 2, 83, 0
3, 164040, Note_on_c, 2, 80, 96
3, 164085, Note_on_c, 2, 80, 0
3, 164100, Note_on_c, 2, 76, 96
3, 164145, Note_on_c, 2, 76, 0
3, 164160, Note_on_c, 2, 71, 96
3, 164220, Note_on_c, 2, 71, 0
3, 164220, Note_on_c, 2, 76, 96
3, 164250, Note_on_c, 2, 76, 0
3, 164250, Note_on_c, 2, 75, 96
3, 164280, Note_on_c, 2, 75, 0
3, 164280, Note_on_c, 2, 76, 96
3, 164325, Note_on_c, 2, 76, 0
3, 164340, Note_on_c, 2, 71, 96
3, 164385, Note_on_c, 2, 71, 0
3, 164400, Note_on_c, 2, 68, 96
3, 164460, Note_on_c, 2, 68, 0
3, 164460, Note_on_c, 2, 71, 96
3, 164490, Note_on_c, 2, 71, 0
3, 164490, Note_on_c, 2, 69, 96
3, 164520, Note_on_c, 2, 69, 0
3, 164520, Note_on_c, 2, 71, 96
3, 164565, Note_on_c, 2, 71, 0
3, 164580, Note_on_c, 2, 68, 96
3, 164625, Note_on_c, 2, 68, 0
3, 164640, Note_on_c, 2, 64, 96
3, 165480, Note_on_c, 2, 64, 0
3, 165660, Note_on_c, 2, 71, 96
3, 165705, Note_on_c, 2, 71, 0
3, 165720, Note_on_c, 2, 76, 96
3, 165765, Note_on_c, 2, 76, 0
3, 165780, Note_on_c, 2, 80, 96
3, 165825, Note_on_c, 2, 80, 0
3, 165840, Note_on_c, 2, 81, 96
3, 165885, Note_on_c, 2, 81, 0
3, 165900, Note_on_c, 2, 78, 96
3, 165945, Note_on_c, 2, 78, 0
3, 165960, Note_on_c, 2, 83, 96
3, 166050, Note_on_c, 2, 83, 0
3, 166080, Note_on_c, 2, 81, 96
3, 166125, Note_on_c, 2, 81, 0
3, 166140, Note_on_c, 2, 80, 96
3, 166185, Note_on_c, 2, 80, 0
3, 166200, Note_on_c, 2, 78, 96
3, 166245, Note_on_c, 2, 78, 0
3, 166260, Note_on_c, 2, 76, 96
3, 166305, Note_on_c, 2, 76, 0
3, 166320, Note_on_c, 2, 80, 96
3, 166365, Note_on_c, 2, 80, 0
3, 166380, Note_on_c, 2, 78, 96
3, 166425, Note_on_c, 2, 78, 0
3, 166440, Note_on_c, 2, 76, 96
3, 166485, Note_on_c, 2, 76, 0
3, 166500, Note_on_c, 2, 75, 96
3, 166545, Note_on_c, 2, 75, 0
3, 166560, Note_on_c, 2, 76, 96
3, 166800, Note_on_c, 2, 76, 0
3, 166800, End_track
4, 0, Start_track
4, 0, MIDI_port, 0
4, 0, Title_t, "acc.     1st Movement"
4, 0, Program_c, 3, 48
4, 0, Control_c, 3, 7, 96
4, 0, Control_c, 3, 10, 16
4, 0, Note_on_c, 3, 64, 96
4, 132, Note_on_c, 3, 64, 0
4, 240, Note_on_c, 3, 68, 96
4, 372, Note_on_c, 3, 68, 0
4, 480, Note_on_c, 3, 71, 96
4, 720, Note_on_c, 3, 71, 0
4, 840, Note_on_c, 3, 68, 96
4, 900, Note_on_c, 3, 68, 0
4, 900, Note_on_c, 3, 69, 96
4, 960, Note_on_c, 3, 69, 0
4, 960, Note_on_c, 3, 71, 112
4, 1056, Note_on_c, 3, 71, 0
4, 1080, Note_on_c, 3, 68, 96
4, 1140, Note_on_c, 3, 68, 0
4, 1140, Note_on_c, 3, 69, 96
4, 1200, Note_on_c, 3, 69, 0
4, 1200, Note_on_c, 3, 71, 112
4, 1266, Note_on_c, 3, 71, 0
4, 1320, Note_on_c, 3, 76, 112
4, 1386, Note_on_c, 3, 76, 0
4, 1440, Note_on_c, 3, 71, 112
4, 1536, Note_on_c, 3, 71, 0
4, 1560, Note_on_c, 3, 71, 96
4, 1620, Note_on_c, 3, 71, 0
4, 1620, Note_on_c, 3, 69, 96
4, 1680, Note_on_c, 3, 69, 0
4, 1680, Note_on_c, 3, 68, 112
4, 1746, Note_on_c, 3, 68, 0
4, 1800, Note_on_c, 3, 66, 96
4, 1860, Note_on_c, 3, 66, 0
4, 1860, Note_on_c, 3, 64, 96
4, 1920, Note_on_c, 3, 64, 0
4, 1920, Note_on_c, 3, 69, 96
4, 1980, Note_on_c, 3, 69, 0
4, 1980, Note_on_c, 3, 71, 96
4, 2040, Note_on_c, 3, 71, 0
4, 2040, Note_on_c, 3, 73, 96
4, 2100, Note_on_c, 3, 73, 0
4, 2100, Note_on_c, 3, 69, 96
4, 2160, Note_on_c, 3, 69, 0
4, 2160, Note_on_c, 3, 68, 96
4, 2220, Note_on_c, 3, 68, 0
4, 2220, Note_on_c, 3, 69, 96
4, 2280, Note_on_c, 3, 69, 0
4, 2280, Note_on_c, 3, 71, 96
4, 2340, Note_on_c, 3, 71, 0
4, 2340, Note_on_c, 3, 68, 96
4, 2400, Note_on_c, 3, 68, 0
4, 2400, Note_on_c, 3, 66, 112
4, 2460, Note_on_c, 3, 66, 0
4, 2460, Note_on_c, 3, 71, 96
4, 2520, Note_on_c, 3, 71, 0
4, 2520, Note_on_c, 3, 73, 96
4, 2580, Note_on_c, 3, 73, 0
4, 2580, Note_on_c, 3, 75, 96
4, 2640, Note_on_c, 3, 75, 0
4, 2640, Note_on_c, 3, 76, 96
4, 2700, Note_on_c, 3, 76, 0
4, 2700, Note_on_c, 3, 78, 96
4, 2760, Note_on_c, 3, 78, 0
4, 2760, Note_on_c, 3, 80, 96
4, 2820, Note_on_c, 3, 80, 0
4, 2820, Note_on_c, 3, 81, 96
4, 2880, Note_on_c, 3, 81, 0
4, 2880, Note_on_c, 3, 83, 96
4, 2928, Note_on_c, 3, 83, 0
4, 2940, Note_on_c, 3, 83, 96
4, 2988, Note_on_c, 3, 83, 0
4, 3000, Note_on_c, 3, 83, 96
4, 3048, Note_on_c, 3, 83, 0
4, 3060, Note_on_c, 3, 83, 96
4, 3108, Note_on_c, 3, 83, 0
4, 3120, Note_on_c, 3, 83, 96
4, 3168, Note_on_c, 3, 83, 0
4, 3180, Note_on_c, 3, 83, 96
4, 3228, Note_on_c, 3, 83, 0
4, 3240, Note_on_c, 3, 83, 96
4, 3288, Note_on_c, 3, 83, 0
4, 3300, Note_on_c, 3, 83, 96
4, 3348, Note_on_c, 3, 83, 0
4, 3360, Note_on_c, 3, 83, 96
4, 3504, Note_on_c, 3, 83, 0
4, 3840, Note_on_c, 3, 81, 96
4, 3888, Note_on_c, 3, 81, 0
4, 3900, Note_on_c, 3, 81, 96
4, 3948, Note_on_c, 3, 81, 0
4, 3960, Note_on_c, 3, 81, 96
4, 4008, Note_on_c, 3, 81, 0
4, 4020, Note_on_c, 3, 81, 96
4, 4068, Note_on_c, 3, 81, 0
4, 4080, Note_on_c, 3, 81, 96
4, 4128, Note_on_c, 3, 81, 0
4, 4140, Note_on_c, 3, 81, 96
4, 4188, Note_on_c, 3, 81, 0
4, 4200, Note_on_c, 3, 81, 96
4, 4248, Note_on_c, 3, 81, 0
4, 4260, Note_on_c, 3, 81, 96
4, 4308, Note_on_c, 3, 81, 0
4, 4320, Note_on_c, 3, 81, 96
4, 4464, Note_on_c, 3, 81, 0
4, 4800, Note_on_c, 3, 80, 96
4, 4848, Note_on_c, 3, 80, 0
4, 4860, Note_on_c, 3, 80, 96
4, 4908, Note_on_c, 3, 80, 0
4, 4920, Note_on_c, 3, 80, 96
4, 4968, Note_on_c, 3, 80, 0
4, 4980, Note_on_c, 3, 80, 96
4, 5028, Note_on_c, 3, 80, 0
4, 5040, Note_on_c, 3, 80, 96
4, 5100, Note_on_c, 3, 80, 0
4, 5100, Note_on_c, 3, 80, 96
4, 5160, Note_on_c, 3, 80, 0
4, 5160, Note_on_c, 3, 80, 96
4, 5220, Note_on_c, 3, 80, 0
4, 5220, Note_on_c, 3, 80, 96
4, 5280, Note_on_c, 3, 80, 0
4, 5280, Note_on_c, 3, 81, 96
4, 5328, Note_on_c, 3, 81, 0
4, 5340, Note_on_c, 3, 83, 96
4, 5388, Note_on_c, 3, 83, 0
4, 5400, Note_on_c, 3, 85, 96
4, 5448, Note_on_c, 3, 85, 0
4, 5460, Note_on_c, 3, 81, 96
4, 5508, Note_on_c, 3, 81, 0
4, 5520, Note_on_c, 3, 80, 96
4, 5568, Note_on_c, 3, 80, 0
4, 5580, Note_on_c, 3, 81, 96
4, 5628, Note_on_c, 3, 81, 0
4, 5640, Note_on_c, 3, 83, 96
4, 5688, Note_on_c, 3, 83, 0
4, 5700, Note_on_c, 3, 80, 96
4, 5748, Note_on_c, 3, 80, 0
4, 5760, Note_on_c, 3, 78, 96
4, 5808, Note_on_c, 3, 78, 0
4, 5820, Note_on_c, 3, 80, 96
4, 5868, Note_on_c, 3, 80, 0
4, 5880, Note_on_c, 3, 81, 96
4, 5928, Note_on_c, 3, 81, 0
4, 5940, Note_on_c, 3, 78, 96
4, 5988, Note_on_c, 3, 78, 0
4, 6000, Note_on_c, 3, 76, 96
4, 6048, Note_on_c, 3, 76, 0
4, 6060, Note_on_c, 3, 78, 96
4, 6108, Note_on_c, 3, 78, 0
4, 6120, Note_on_c, 3, 80, 96
4, 6168, Note_on_c, 3, 80, 0
4, 6180, Note_on_c, 3, 76, 96
4, 6228, Note_on_c, 3, 76, 0
4, 6240, Note_on_c, 3, 75, 96
4, 6288, Note_on_c, 3, 75, 0
4, 6300, Note_on_c, 3, 76, 96
4, 6348, Note_on_c, 3, 76, 0
4, 6360, Note_on_c, 3, 78, 96
4, 6408, Note_on_c, 3, 78, 0
4, 6420, Note_on_c, 3, 75, 96
4, 6468, Note_on_c, 3, 75, 0
4, 6480, Note_on_c, 3, 69, 96
4, 6528, Note_on_c, 3, 69, 0
4, 6540, Note_on_c, 3, 71, 96
4, 6588, Note_on_c, 3, 71, 0
4, 6600, Note_on_c, 3, 73, 96
4, 6648, Note_on_c, 3, 73, 0
4, 6660, Note_on_c, 3, 69, 96
4, 6708, Note_on_c, 3, 69, 0
4, 6720, Note_on_c, 3, 66, 96
4, 6768, Note_on_c, 3, 66, 0
4, 6780, Note_on_c, 3, 68, 96
4, 6828, Note_on_c, 3, 68, 0
4, 6840, Note_on_c, 3, 69, 96
4, 6888, Note_on_c, 3, 69, 0
4, 6900, Note_on_c, 3, 66, 96
4, 6948, Note_on_c, 3, 66, 0
4, 6960, Note_on_c, 3, 63, 96
4, 7008, Note_on_c, 3, 63, 0
4, 7020, Note_on_c, 3, 64, 96
4, 7068, Note_on_c, 3, 64, 0
4, 7080, Note_on_c, 3, 66, 96
4, 7128, Note_on_c, 3, 66, 0
4, 7140, Note_on_c, 3, 63, 96
4, 7188, Note_on_c, 3, 63, 0
4, 7200, Note_on_c, 3, 59, 96
4, 7440, Note_on_c, 3, 59, 0
4, 7560, Note_on_c, 3, 78, 96
4, 7620, Note_on_c, 3, 78, 0
4, 7620, Note_on_c, 3, 80, 96
4, 7644, Note_on_c, 3, 80, 0
4, 7650, Note_on_c, 3, 81, 96
4, 7674, Note_on_c, 3, 81, 0
4, 7680, Note_on_c, 3, 80, 96
4, 7692, Note_on_c, 3, 80, 0
4, 7695, Note_on_c, 3, 81, 96
4, 7707, Note_on_c, 3, 81, 0
4, 7710, Note_on_c, 3, 80, 96
4, 7722, Note_on_c, 3, 80, 0
4, 7725, Note_on_c, 3, 81, 96
4, 7737, Note_on_c, 3, 81, 0
4, 7740, Note_on_c, 3, 80, 96
4, 7752, Note_on_c, 3, 80, 0
4, 7755, Note_on_c, 3, 81, 96
4, 7767, Note_on_c, 3, 81, 0
4, 7770, Note_on_c, 3, 80, 96
4, 7782, Note_on_c, 3, 80, 0
4, 7785, Note_on_c, 3, 81, 96
4, 7797, Note_on_c, 3, 81, 0
4, 7800, Note_on_c, 3, 80, 96
4, 7848, Note_on_c, 3, 80, 0
4, 7860, Note_on_c, 3, 78, 96
4, 7884, Note_on_c, 3, 78, 0
4, 7890, Note_on_c, 3, 76, 96
4, 7914, Note_on_c, 3, 76, 0
4, 7920, Note_on_c, 3, 80, 96
4, 7968, Note_on_c, 3, 80, 0
4, 7980, Note_on_c, 3, 78, 96
4, 8028, Note_on_c, 3, 78, 0
4, 8040, Note_on_c, 3, 76, 96
4, 8088, Note_on_c, 3, 76, 0
4, 8100, Note_on_c, 3, 75, 96
4, 8148, Note_on_c, 3, 75, 0
4, 8160, Note_on_c, 3, 76, 96
4, 8244, Note_on_c, 3, 76, 0
4, 8280, Note_on_c, 3, 71, 96
4, 8328, Note_on_c, 3, 71, 0
4, 8340, Note_on_c, 3, 71, 96
4, 8388, Note_on_c, 3, 71, 0
4, 8400, Note_on_c, 3, 73, 96
4, 8448, Note_on_c, 3, 73, 0
4, 8460, Note_on_c, 3, 73, 96
4, 8508, Note_on_c, 3, 73, 0
4, 8520, Note_on_c, 3, 75, 96
4, 8568, Note_on_c, 3, 75, 0
4, 8580, Note_on_c, 3, 75, 96
4, 8628, Note_on_c, 3, 75, 0
4, 8640, Note_on_c, 3, 76, 96
4, 8688, Note_on_c, 3, 76, 0
4, 8700, Note_on_c, 3, 76, 96
4, 8748, Note_on_c, 3, 76, 0
4, 8760, Note_on_c, 3, 71, 96
4, 8808, Note_on_c, 3, 71, 0
4, 8820, Note_on_c, 3, 71, 96
4, 8868, Note_on_c, 3, 71, 0
4, 8880, Note_on_c, 3, 73, 96
4, 8928, Note_on_c, 3, 73, 0
4, 8940, Note_on_c, 3, 73, 96
4, 8988, Note_on_c, 3, 73, 0
4, 9000, Note_on_c, 3, 75, 96
4, 9048, Note_on_c, 3, 75, 0
4, 9060, Note_on_c, 3, 75, 96
4, 9108, Note_on_c, 3, 75, 0
4, 9120, Note_on_c, 3, 76, 96
4, 9168, Note_on_c, 3, 76, 0
4, 9180, Note_on_c, 3, 78, 96
4, 9228, Note_on_c, 3, 78, 0
4, 9240, Note_on_c, 3, 80, 96
4, 9288, Note_on_c, 3, 80, 0
4, 9300, Note_on_c, 3, 76, 96
4, 9348, Note_on_c, 3, 76, 0
4, 9360, Note_on_c, 3, 81, 96
4, 9408, Note_on_c, 3, 81, 0
4, 9420, Note_on_c, 3, 78, 96
4, 9468, Note_on_c, 3, 78, 0
4, 9480, Note_on_c, 3, 83, 96
4, 9576, Note_on_c, 3, 83, 0
4, 9600, Note_on_c, 3, 80, 96
4, 9612, Note_on_c, 3, 80, 0
4, 9615, Note_on_c, 3, 81, 96
4, 9627, Note_on_c, 3, 81, 0
4, 9630, Note_on_c, 3, 80, 96
4, 9642, Note_on_c, 3, 80, 0
4, 9645, Note_on_c, 3, 81, 96
4, 9657, Note_on_c, 3, 81, 0
4, 9660, Note_on_c, 3, 80, 96
4, 9708, Note_on_c, 3, 80, 0
4, 9720, Note_on_c, 3, 78, 96
4, 9768, Note_on_c, 3, 78, 0
4, 9780, Note_on_c, 3, 76, 96
4, 9828, Note_on_c, 3, 76, 0
4, 9840, Note_on_c, 3, 80, 112
4, 9888, Note_on_c, 3, 80, 0
4, 9900, Note_on_c, 3, 78, 96
4, 9948, Note_on_c, 3, 78, 0
4, 9960, Note_on_c, 3, 76, 96
4, 10008, Note_on_c, 3, 76, 0
4, 10020, Note_on_c, 3, 75, 96
4, 10068, Note_on_c, 3, 75, 0
4, 10080, Note_on_c, 3, 76, 96
4, 10320, Note_on_c, 3, 76, 0
4, 10440, Note_on_c, 3, 68, 96
4, 10488, Note_on_c, 3, 68, 0
4, 10500, Note_on_c, 3, 69, 96
4, 10548, Note_on_c, 3, 69, 0
4, 10560, Note_on_c, 3, 71, 96
4, 10656, Note_on_c, 3, 71, 0
4, 10680, Note_on_c, 3, 68, 96
4, 10728, Note_on_c, 3, 68, 0
4, 10740, Note_on_c, 3, 69, 96
4, 10788, Note_on_c, 3, 69, 0
4, 10800, Note_on_c, 3, 71, 96
4, 10896, Note_on_c, 3, 71, 0
4, 10920, Note_on_c, 3, 76, 96
4, 11016, Note_on_c, 3, 76, 0
4, 11040, Note_on_c, 3, 71, 96
4, 11136, Note_on_c, 3, 71, 0
4, 11160, Note_on_c, 3, 71, 96
4, 11208, Note_on_c, 3, 71, 0
4, 11220, Note_on_c, 3, 69, 96
4, 11268, Note_on_c, 3, 69, 0
4, 11280, Note_on_c, 3, 68, 96
4, 11376, Note_on_c, 3, 68, 0
4, 11400, Note_on_c, 3, 66, 96
4, 11448, Note_on_c, 3, 66, 0
4, 11460, Note_on_c, 3, 64, 96
4, 11508, Note_on_c, 3, 64, 0
4, 13440, Note_on_c, 3, 64, 96
4, 13560, Note_on_c, 3, 64, 0
4, 13680, Note_on_c, 3, 68, 96
4, 13800, Note_on_c, 3, 68, 0
4, 13920, Note_on_c, 3, 71, 96
4, 14160, Note_on_c, 3, 71, 0
4, 14280, Note_on_c, 3, 68, 96
4, 14340, Note_on_c, 3, 68, 0
4, 14340, Note_on_c, 3, 69, 96
4, 14400, Note_on_c, 3, 69, 0
4, 14400, Note_on_c, 3, 71, 112
4, 14460, Note_on_c, 3, 71, 0
4, 14520, Note_on_c, 3, 68, 96
4, 14568, Note_on_c, 3, 68, 0
4, 14580, Note_on_c, 3, 69, 96
4, 14628, Note_on_c, 3, 69, 0
4, 14640, Note_on_c, 3, 71, 112
4, 14736, Note_on_c, 3, 71, 0
4, 14760, Note_on_c, 3, 76, 96
4, 14820, Note_on_c, 3, 76, 0
4, 14880, Note_on_c, 3, 71, 112
4, 14940, Note_on_c, 3, 71, 0
4, 15000, Note_on_c, 3, 71, 96
4, 15048, Note_on_c, 3, 71, 0
4, 15060, Note_on_c, 3, 69, 96
4, 15108, Note_on_c, 3, 69, 0
4, 15120, Note_on_c, 3, 68, 96
4, 15216, Note_on_c, 3, 68, 0
4, 15240, Note_on_c, 3, 66, 96
4, 15288, Note_on_c, 3, 66, 0
4, 15300, Note_on_c, 3, 64, 96
4, 15348, Note_on_c, 3, 64, 0
4, 15360, Note_on_c, 3, 69, 96
4, 15408, Note_on_c, 3, 69, 0
4, 15420, Note_on_c, 3, 71, 96
4, 15468, Note_on_c, 3, 71, 0
4, 15480, Note_on_c, 3, 73, 96
4, 15528, Note_on_c, 3, 73, 0
4, 15540, Note_on_c, 3, 69, 96
4, 15588, Note_on_c, 3, 69, 0
4, 15600, Note_on_c, 3, 68, 96
4, 15648, Note_on_c, 3, 68, 0
4, 15660, Note_on_c, 3, 69, 96
4, 15708, Note_on_c, 3, 69, 0
4, 15720, Note_on_c, 3, 71, 96
4, 15768, Note_on_c, 3, 71, 0
4, 15780, Note_on_c, 3, 68, 96
4, 15828, Note_on_c, 3, 68, 0
4, 15840, Note_on_c, 3, 66, 96
4, 16032, Note_on_c, 3, 66, 0
4, 16320, Note_on_c, 3, 63, 96
4, 16440, Note_on_c, 3, 63, 0
4, 16560, Note_on_c, 3, 66, 96
4, 16680, Note_on_c, 3, 66, 0
4, 16800, Note_on_c, 3, 71, 96
4, 17040, Note_on_c, 3, 71, 0
4, 17280, Note_on_c, 3, 66, 80
4, 17472, Note_on_c, 3, 66, 0
4, 17520, Note_on_c, 3, 71, 80
4, 17712, Note_on_c, 3, 71, 0
4, 17760, Note_on_c, 3, 75, 80
4, 17952, Note_on_c, 3, 75, 0
4, 18600, Note_on_c, 3, 75, 96
4, 18648, Note_on_c, 3, 75, 0
4, 18660, Note_on_c, 3, 76, 96
4, 18708, Note_on_c, 3, 76, 0
4, 18720, Note_on_c, 3, 78, 112
4, 18792, Note_on_c, 3, 78, 0
4, 18840, Note_on_c, 3, 75, 96
4, 18888, Note_on_c, 3, 75, 0
4, 18900, Note_on_c, 3, 76, 96
4, 18948, Note_on_c, 3, 76, 0
4, 18960, Note_on_c, 3, 78, 112
4, 19032, Note_on_c, 3, 78, 0
4, 19080, Note_on_c, 3, 83, 96
4, 19152, Note_on_c, 3, 83, 0
4, 19200, Note_on_c, 3, 78, 112
4, 19296, Note_on_c, 3, 78, 0
4, 19320, Note_on_c, 3, 78, 96
4, 19368, Note_on_c, 3, 78, 0
4, 19380, Note_on_c, 3, 76, 96
4, 19428, Note_on_c, 3, 76, 0
4, 19440, Note_on_c, 3, 75, 96
4, 19536, Note_on_c, 3, 75, 0
4, 19560, Note_on_c, 3, 75, 96
4, 19608, Note_on_c, 3, 75, 0
4, 19620, Note_on_c, 3, 73, 96
4, 19668, Note_on_c, 3, 73, 0
4, 19680, Note_on_c, 3, 66, 96
4, 20640, Note_on_c, 3, 66, 0
4, 21720, Note_on_c, 3, 66, 96
4, 21804, Note_on_c, 3, 66, 0
4, 21960, Note_on_c, 3, 66, 96
4, 22044, Note_on_c, 3, 66, 0
4, 22200, Note_on_c, 3, 66, 96
4, 22320, Note_on_c, 3, 66, 0
4, 22440, Note_on_c, 3, 65, 96
4, 22560, Note_on_c, 3, 65, 0
4, 22560, Note_on_c, 3, 66, 96
4, 22680, Note_on_c, 3, 66, 0
4, 23040, Note_on_c, 3, 78, 96
4, 23088, Note_on_c, 3, 78, 0
4, 23100, Note_on_c, 3, 78, 96
4, 23148, Note_on_c, 3, 78, 0
4, 23160, Note_on_c, 3, 78, 96
4, 23208, Note_on_c, 3, 78, 0
4, 23220, Note_on_c, 3, 78, 96
4, 23268, Note_on_c, 3, 78, 0
4, 23280, Note_on_c, 3, 78, 96
4, 23328, Note_on_c, 3, 78, 0
4, 23340, Note_on_c, 3, 78, 96
4, 23388, Note_on_c, 3, 78, 0
4, 23400, Note_on_c, 3, 78, 96
4, 23448, Note_on_c, 3, 78, 0
4, 23460, Note_on_c, 3, 78, 96
4, 23508, Note_on_c, 3, 78, 0
4, 23520, Note_on_c, 3, 78, 96
4, 23640, Note_on_c, 3, 78, 0
4, 24000, Note_on_c, 3, 76, 96
4, 24048, Note_on_c, 3, 76, 0
4, 24060, Note_on_c, 3, 76, 96
4, 24108, Note_on_c, 3, 76, 0
4, 24120, Note_on_c, 3, 76, 96
4, 24168, Note_on_c, 3, 76, 0
4, 24180, Note_on_c, 3, 76, 96
4, 24228, Note_on_c, 3, 76, 0
4, 24240, Note_on_c, 3, 76, 96
4, 24288, Note_on_c, 3, 76, 0
4, 24300, Note_on_c, 3, 76, 96
4, 24348, Note_on_c, 3, 76, 0
4, 24360, Note_on_c, 3, 76, 96
4, 24408, Note_on_c, 3, 76, 0
4, 24420, Note_on_c, 3, 76, 96
4, 24468, Note_on_c, 3, 76, 0
4, 24480, Note_on_c, 3, 76, 96
4, 24600, Note_on_c, 3, 76, 0
4, 24960, Note_on_c, 3, 75, 96
4, 25008, Note_on_c, 3, 75, 0
4, 25020, Note_on_c, 3, 75, 96
4, 25068, Note_on_c, 3, 75, 0
4, 25080, Note_on_c, 3, 75, 96
4, 25128, Note_on_c, 3, 75, 0
4, 25140, Note_on_c, 3, 75, 96
4, 25188, Note_on_c, 3, 75, 0
4, 25200, Note_on_c, 3, 75, 96
4, 25248, Note_on_c, 3, 75, 0
4, 25260, Note_on_c, 3, 75, 96
4, 25308, Note_on_c, 3, 75, 0
4, 25320, Note_on_c, 3, 75, 96
4, 25368, Note_on_c, 3, 75, 0
4, 25380, Note_on_c, 3, 75, 96
4, 25428, Note_on_c, 3, 75, 0
4, 25440, Note_on_c, 3, 76, 112
4, 25488, Note_on_c, 3, 76, 0
4, 25500, Note_on_c, 3, 78, 96
4, 25548, Note_on_c, 3, 78, 0
4, 25560, Note_on_c, 3, 80, 96
4, 25608, Note_on_c, 3, 80, 0
4, 25620, Note_on_c, 3, 76, 96
4, 25668, Note_on_c, 3, 76, 0
4, 25680, Note_on_c, 3, 75, 112
4, 25728, Note_on_c, 3, 75, 0
4, 25740, Note_on_c, 3, 76, 96
4, 25788, Note_on_c, 3, 76, 0
4, 25800, Note_on_c, 3, 78, 96
4, 25848, Note_on_c, 3, 78, 0
4, 25860, Note_on_c, 3, 75, 96
4, 25908, Note_on_c, 3, 75, 0
4, 25920, Note_on_c, 3, 73, 112
4, 25968, Note_on_c, 3, 73, 0
4, 25980, Note_on_c, 3, 75, 96
4, 26028, Note_on_c, 3, 75, 0
4, 26040, Note_on_c, 3, 76, 96
4, 26088, Note_on_c, 3, 76, 0
4, 26100, Note_on_c, 3, 73, 96
4, 26148, Note_on_c, 3, 73, 0
4, 26160, Note_on_c, 3, 71, 112
4, 26208, Note_on_c, 3, 71, 0
4, 26220, Note_on_c, 3, 73, 96
4, 26268, Note_on_c, 3, 73, 0
4, 26280, Note_on_c, 3, 75, 96
4, 26328, Note_on_c, 3, 75, 0
4, 26340, Note_on_c, 3, 71, 96
4, 26388, Note_on_c, 3, 71, 0
4, 26400, Note_on_c, 3, 70, 112
4, 26448, Note_on_c, 3, 70, 0
4, 26460, Note_on_c, 3, 71, 96
4, 26508, Note_on_c, 3, 71, 0
4, 26520, Note_on_c, 3, 73, 96
4, 26568, Note_on_c, 3, 73, 0
4, 26580, Note_on_c, 3, 70, 96
4, 26628, Note_on_c, 3, 70, 0
4, 26640, Note_on_c, 3, 64, 112
4, 26688, Note_on_c, 3, 64, 0
4, 26700, Note_on_c, 3, 66, 96
4, 26748, Note_on_c, 3, 66, 0
4, 26760, Note_on_c, 3, 68, 96
4, 26808, Note_on_c, 3, 68, 0
4, 26820, Note_on_c, 3, 64, 96
4, 26868, Note_on_c, 3, 64, 0
4, 26880, Note_on_c, 3, 61, 112
4, 26925, Note_on_c, 3, 61, 0
4, 26940, Note_on_c, 3, 63, 96
4, 26985, Note_on_c, 3, 63, 0
4, 27000, Note_on_c, 3, 64, 96
4, 27045, Note_on_c, 3, 64, 0
4, 27060, Note_on_c, 3, 61, 96
4, 27105, Note_on_c, 3, 61, 0
4, 27120, Note_on_c, 3, 58, 112
4, 27165, Note_on_c, 3, 58, 0
4, 27180, Note_on_c, 3, 59, 96
4, 27225, Note_on_c, 3, 59, 0
4, 27240, Note_on_c, 3, 61, 96
4, 27285, Note_on_c, 3, 61, 0
4, 27300, Note_on_c, 3, 63, 96
4, 27345, Note_on_c, 3, 63, 0
4, 27360, Note_on_c, 3, 64, 96
4, 27405, Note_on_c, 3, 64, 0
4, 27420, Note_on_c, 3, 66, 96
4, 27465, Note_on_c, 3, 66, 0
4, 27480, Note_on_c, 3, 68, 96
4, 27525, Note_on_c, 3, 68, 0
4, 27540, Note_on_c, 3, 70, 96
4, 27585, Note_on_c, 3, 70, 0
4, 27600, Note_on_c, 3, 71, 96
4, 27645, Note_on_c, 3, 71, 0
4, 27660, Note_on_c, 3, 73, 96
4, 27705, Note_on_c, 3, 73, 0
4, 27720, Note_on_c, 3, 75, 96
4, 27765, Note_on_c, 3, 75, 0
4, 27780, Note_on_c, 3, 76, 96
4, 27803, Note_on_c, 3, 76, 0
4, 27810, Note_on_c, 3, 78, 96
4, 27833, Note_on_c, 3, 78, 0
4, 27840, Note_on_c, 3, 75, 96
4, 27930, Note_on_c, 3, 75, 0
4, 27960, Note_on_c, 3, 73, 96
4, 28005, Note_on_c, 3, 73, 0
4, 28020, Note_on_c, 3, 71, 96
4, 28065, Note_on_c, 3, 71, 0
4, 28080, Note_on_c, 3, 73, 96
4, 28170, Note_on_c, 3, 73, 0
4, 28200, Note_on_c, 3, 71, 96
4, 28245, Note_on_c, 3, 71, 0
4, 28260, Note_on_c, 3, 70, 96
4, 28305, Note_on_c, 3, 70, 0
4, 28320, Note_on_c, 3, 71, 96
4, 28500, Note_on_c, 3, 71, 0
4, 28920, Note_on_c, 3, 66, 96
4, 28965, Note_on_c, 3, 66, 0
4, 28980, Note_on_c, 3, 66, 96
4, 29025, Note_on_c, 3, 66, 0
4, 29040, Note_on_c, 3, 68, 96
4, 29085, Note_on_c, 3, 68, 0
4, 29100, Note_on_c, 3, 68, 96
4, 29145, Note_on_c, 3, 68, 0
4, 29160, Note_on_c, 3, 70, 96
4, 29205, Note_on_c, 3, 70, 0
4, 29220, Note_on_c, 3, 70, 96
4, 29265, Note_on_c, 3, 70, 0
4, 29280, Note_on_c, 3, 71, 96
4, 29400, Note_on_c, 3, 71, 0
4, 30360, Note_on_c, 3, 66, 96
4, 30405, Note_on_c, 3, 66, 0
4, 30420, Note_on_c, 3, 66, 96
4, 30465, Note_on_c, 3, 66, 0
4, 30480, Note_on_c, 3, 68, 96
4, 30525, Note_on_c, 3, 68, 0
4, 30540, Note_on_c, 3, 68, 96
4, 30585, Note_on_c, 3, 68, 0
4, 30600, Note_on_c, 3, 70, 96
4, 30645, Note_on_c, 3, 70, 0
4, 30660, Note_on_c, 3, 70, 96
4, 30705, Note_on_c, 3, 70, 0
4, 30720, Note_on_c, 3, 71, 96
4, 30765, Note_on_c, 3, 71, 0
4, 30780, Note_on_c, 3, 71, 96
4, 30825, Note_on_c, 3, 71, 0
4, 30840, Note_on_c, 3, 66, 96
4, 30885, Note_on_c, 3, 66, 0
4, 30900, Note_on_c, 3, 66, 96
4, 30945, Note_on_c, 3, 66, 0
4, 30960, Note_on_c, 3, 68, 96
4, 31005, Note_on_c, 3, 68, 0
4, 31020, Note_on_c, 3, 68, 96
4, 31065, Note_on_c, 3, 68, 0
4, 31080, Note_on_c, 3, 70, 96
4, 31125, Note_on_c, 3, 70, 0
4, 31140, Note_on_c, 3, 70, 96
4, 31185, Note_on_c, 3, 70, 0
4, 31200, Note_on_c, 3, 71, 96
4, 31245, Note_on_c, 3, 71, 0
4, 31260, Note_on_c, 3, 73, 96
4, 31305, Note_on_c, 3, 73, 0
4, 31320, Note_on_c, 3, 75, 96
4, 31365, Note_on_c, 3, 75, 0
4, 31380, Note_on_c, 3, 71, 96
4, 31425, Note_on_c, 3, 71, 0
4, 31440, Note_on_c, 3, 76, 96
4, 31485, Note_on_c, 3, 76, 0
4, 31500, Note_on_c, 3, 73, 96
4, 31545, Note_on_c, 3, 73, 0
4, 31560, Note_on_c, 3, 78, 96
4, 31650, Note_on_c, 3, 78, 0
4, 31680, Note_on_c, 3, 76, 112
4, 31725, Note_on_c, 3, 76, 0
4, 31740, Note_on_c, 3, 75, 96
4, 31785, Note_on_c, 3, 75, 0
4, 31800, Note_on_c, 3, 73, 96
4, 31845, Note_on_c, 3, 73, 0
4, 31860, Note_on_c, 3, 71, 96
4, 31905, Note_on_c, 3, 71, 0
4, 31920, Note_on_c, 3, 75, 112
4, 31965, Note_on_c, 3, 75, 0
4, 31980, Note_on_c, 3, 73, 96
4, 32025, Note_on_c, 3, 73, 0
4, 32040, Note_on_c, 3, 71, 96
4, 32085, Note_on_c, 3, 71, 0
4, 32100, Note_on_c, 3, 70, 96
4, 32145, Note_on_c, 3, 70, 0
4, 32160, Note_on_c, 3, 71, 96
4, 32400, Note_on_c, 3, 71, 0
4, 32640, Note_on_c, 3, 64, 96
4, 32760, Note_on_c, 3, 64, 0
4, 32880, Note_on_c, 3, 68, 96
4, 33000, Note_on_c, 3, 68, 0
4, 33120, Note_on_c, 3, 71, 96
4, 33360, Note_on_c, 3, 71, 0
4, 33600, Note_on_c, 3, 68, 96
4, 33720, Note_on_c, 3, 68, 0
4, 33840, Note_on_c, 3, 71, 96
4, 33960, Note_on_c, 3, 71, 0
4, 34080, Note_on_c, 3, 76, 96
4, 34320, Note_on_c, 3, 76, 0
4, 34560, Note_on_c, 3, 71, 80
4, 34740, Note_on_c, 3, 71, 0
4, 34800, Note_on_c, 3, 76, 80
4, 34980, Note_on_c, 3, 76, 0
4, 35040, Note_on_c, 3, 80, 80
4, 35220, Note_on_c, 3, 80, 0
4, 35880, Note_on_c, 3, 64, 96
4, 35925, Note_on_c, 3, 64, 0
4, 35940, Note_on_c, 3, 66, 96
4, 35985, Note_on_c, 3, 66, 0
4, 36000, Note_on_c, 3, 68, 112
4, 36090, Note_on_c, 3, 68, 0
4, 36120, Note_on_c, 3, 64, 96
4, 36165, Note_on_c, 3, 64, 0
4, 36180, Note_on_c, 3, 66, 96
4, 36225, Note_on_c, 3, 66, 0
4, 36240, Note_on_c, 3, 68, 112
4, 36348, Note_on_c, 3, 68, 0
4, 36360, Note_on_c, 3, 71, 96
4, 36432, Note_on_c, 3, 71, 0
4, 36480, Note_on_c, 3, 71, 96
4, 36570, Note_on_c, 3, 71, 0
4, 36600, Note_on_c, 3, 71, 96
4, 36645, Note_on_c, 3, 71, 0
4, 36660, Note_on_c, 3, 69, 96
4, 36705, Note_on_c, 3, 69, 0
4, 36720, Note_on_c, 3, 68, 96
4, 36810, Note_on_c, 3, 68, 0
4, 36840, Note_on_c, 3, 66, 96
4, 36885, Note_on_c, 3, 66, 0
4, 36900, Note_on_c, 3, 64, 96
4, 36945, Note_on_c, 3, 64, 0
4, 36960, Note_on_c, 3, 59, 96
4, 37920, Note_on_c, 3, 59, 0
4, 39000, Note_on_c, 3, 71, 96
4, 39090, Note_on_c, 3, 71, 0
4, 39240, Note_on_c, 3, 71, 96
4, 39330, Note_on_c, 3, 71, 0
4, 39480, Note_on_c, 3, 71, 96
4, 39570, Note_on_c, 3, 71, 0
4, 39720, Note_on_c, 3, 70, 96
4, 39810, Note_on_c, 3, 70, 0
4, 39960, Note_on_c, 3, 71, 96
4, 40050, Note_on_c, 3, 71, 0
4, 40320, Note_on_c, 3, 83, 96
4, 40365, Note_on_c, 3, 83, 0
4, 40380, Note_on_c, 3, 83, 96
4, 40425, Note_on_c, 3, 83, 0
4, 40440, Note_on_c, 3, 83, 96
4, 40485, Note_on_c, 3, 83, 0
4, 40500, Note_on_c, 3, 83, 96
4, 40545, Note_on_c, 3, 83, 0
4, 40560, Note_on_c, 3, 83, 96
4, 40605, Note_on_c, 3, 83, 0
4, 40620, Note_on_c, 3, 83, 96
4, 40665, Note_on_c, 3, 83, 0
4, 40680, Note_on_c, 3, 83, 96
4, 40725, Note_on_c, 3, 83, 0
4, 40740, Note_on_c, 3, 83, 96
4, 40785, Note_on_c, 3, 83, 0
4, 40800, Note_on_c, 3, 83, 96
4, 40920, Note_on_c, 3, 83, 0
4, 41280, Note_on_c, 3, 81, 96
4, 41325, Note_on_c, 3, 81, 0
4, 41340, Note_on_c, 3, 81, 96
4, 41385, Note_on_c, 3, 81, 0
4, 41400, Note_on_c, 3, 81, 96
4, 41445, Note_on_c, 3, 81, 0
4, 41460, Note_on_c, 3, 81, 96
4, 41505, Note_on_c, 3, 81, 0
4, 41520, Note_on_c, 3, 81, 96
4, 41565, Note_on_c, 3, 81, 0
4, 41580, Note_on_c, 3, 81, 96
4, 41625, Note_on_c, 3, 81, 0
4, 41640, Note_on_c, 3, 81, 96
4, 41685, Note_on_c, 3, 81, 0
4, 41700, Note_on_c, 3, 81, 96
4, 41745, Note_on_c, 3, 81, 0
4, 41760, Note_on_c, 3, 81, 96
4, 41880, Note_on_c, 3, 81, 0
4, 42240, Note_on_c, 3, 80, 96
4, 42285, Note_on_c, 3, 80, 0
4, 42300, Note_on_c, 3, 80, 96
4, 42345, Note_on_c, 3, 80, 0
4, 42360, Note_on_c, 3, 80, 96
4, 42405, Note_on_c, 3, 80, 0
4, 42420, Note_on_c, 3, 80, 96
4, 42465, Note_on_c, 3, 80, 0
4, 42480, Note_on_c, 3, 80, 96
4, 42525, Note_on_c, 3, 80, 0
4, 42540, Note_on_c, 3, 80, 96
4, 42585, Note_on_c, 3, 80, 0
4, 42600, Note_on_c, 3, 80, 96
4, 42645, Note_on_c, 3, 80, 0
4, 42660, Note_on_c, 3, 80, 96
4, 42705, Note_on_c, 3, 80, 0
4, 42720, Note_on_c, 3, 81, 112
4, 42765, Note_on_c, 3, 81, 0
4, 42780, Note_on_c, 3, 83, 96
4, 42825, Note_on_c, 3, 83, 0
4, 42840, Note_on_c, 3, 85, 96
4, 42885, Note_on_c, 3, 85, 0
4, 42900, Note_on_c, 3, 81, 96
4, 42945, Note_on_c, 3, 81, 0
4, 42960, Note_on_c, 3, 80, 112
4, 43005, Note_on_c, 3, 80, 0
4, 43020, Note_on_c, 3, 81, 96
4, 43065, Note_on_c, 3, 81, 0
4, 43080, Note_on_c, 3, 83, 96
4, 43125, Note_on_c, 3, 83, 0
4, 43140, Note_on_c, 3, 80, 96
4, 43185, Note_on_c, 3, 80, 0
4, 43200, Note_on_c, 3, 78, 112
4, 43245, Note_on_c, 3, 78, 0
4, 43260, Note_on_c, 3, 80, 96
4, 43305, Note_on_c, 3, 80, 0
4, 43320, Note_on_c, 3, 81, 96
4, 43365, Note_on_c, 3, 81, 0
4, 43380, Note_on_c, 3, 78, 96
4, 43425, Note_on_c, 3, 78, 0
4, 43440, Note_on_c, 3, 76, 112
4, 43485, Note_on_c, 3, 76, 0
4, 43500, Note_on_c, 3, 78, 96
4, 43545, Note_on_c, 3, 78, 0
4, 43560, Note_on_c, 3, 80, 96
4, 43605, Note_on_c, 3, 80, 0
4, 43620, Note_on_c, 3, 76, 96
4, 43665, Note_on_c, 3, 76, 0
4, 43680, Note_on_c, 3, 75, 112
4, 43725, Note_on_c, 3, 75, 0
4, 43740, Note_on_c, 3, 76, 96
4, 43785, Note_on_c, 3, 76, 0
4, 43800, Note_on_c, 3, 78, 96
4, 43845, Note_on_c, 3, 78, 0
4, 43860, Note_on_c, 3, 75, 96
4, 43905, Note_on_c, 3, 75, 0
4, 43920, Note_on_c, 3, 69, 112
4, 43965, Note_on_c, 3, 69, 0
4, 43980, Note_on_c, 3, 71, 96
4, 44025, Note_on_c, 3, 71, 0
4, 44040, Note_on_c, 3, 73, 96
4, 44085, Note_on_c, 3, 73, 0
4, 44100, Note_on_c, 3, 69, 96
4, 44145, Note_on_c, 3, 69, 0
4, 44160, Note_on_c, 3, 66, 112
4, 44205, Note_on_c, 3, 66, 0
4, 44220, Note_on_c, 3, 68, 96
4, 44265, Note_on_c, 3, 68, 0
4, 44280, Note_on_c, 3, 69, 96
4, 44325, Note_on_c, 3, 69, 0
4, 44340, Note_on_c, 3, 66, 96
4, 44385, Note_on_c, 3, 66, 0
4, 44400, Note_on_c, 3, 63, 112
4, 44445, Note_on_c, 3, 63, 0
4, 44460, Note_on_c, 3, 64, 96
4, 44505, Note_on_c, 3, 64, 0
4, 44520, Note_on_c, 3, 66, 96
4, 44565, Note_on_c, 3, 66, 0
4, 44580, Note_on_c, 3, 63, 96
4, 44625, Note_on_c, 3, 63, 0
4, 44640, Note_on_c, 3, 59, 112
4, 44820, Note_on_c, 3, 59, 0
4, 45000, Note_on_c, 3, 78, 96
4, 45045, Note_on_c, 3, 78, 0
4, 45060, Note_on_c, 3, 80, 96
4, 45083, Note_on_c, 3, 80, 0
4, 45090, Note_on_c, 3, 81, 96
4, 45113, Note_on_c, 3, 81, 0
4, 45120, Note_on_c, 3, 80, 96
4, 45210, Note_on_c, 3, 80, 0
4, 45240, Note_on_c, 3, 78, 96
4, 45285, Note_on_c, 3, 78, 0
4, 45300, Note_on_c, 3, 76, 96
4, 45345, Note_on_c, 3, 76, 0
4, 45360, Note_on_c, 3, 78, 96
4, 45450, Note_on_c, 3, 78, 0
4, 45480, Note_on_c, 3, 76, 96
4, 45525, Note_on_c, 3, 76, 0
4, 45540, Note_on_c, 3, 75, 96
4, 45585, Note_on_c, 3, 75, 0
4, 45600, Note_on_c, 3, 76, 96
4, 45780, Note_on_c, 3, 76, 0
4, 46200, Note_on_c, 3, 71, 96
4, 46245, Note_on_c, 3, 71, 0
4, 46260, Note_on_c, 3, 71, 96
4, 46305, Note_on_c, 3, 71, 0
4, 46320, Note_on_c, 3, 73, 96
4, 46365, Note_on_c, 3, 73, 0
4, 46380, Note_on_c, 3, 73, 96
4, 46425, Note_on_c, 3, 73, 0
4, 46440, Note_on_c, 3, 75, 96
4, 46485, Note_on_c, 3, 75, 0
4, 46500, Note_on_c, 3, 75, 96
4, 46545, Note_on_c, 3, 75, 0
4, 46560, Note_on_c, 3, 76, 96
4, 46680, Note_on_c, 3, 76, 0
4, 47640, Note_on_c, 3, 71, 96
4, 47685, Note_on_c, 3, 71, 0
4, 47700, Note_on_c, 3, 71, 96
4, 47745, Note_on_c, 3, 71, 0
4, 47760, Note_on_c, 3, 73, 96
4, 47805, Note_on_c, 3, 73, 0
4, 47820, Note_on_c, 3, 73, 96
4, 47865, Note_on_c, 3, 73, 0
4, 47880, Note_on_c, 3, 75, 96
4, 47925, Note_on_c, 3, 75, 0
4, 47940, Note_on_c, 3, 75, 96
4, 47985, Note_on_c, 3, 75, 0
4, 48000, Note_on_c, 3, 76, 96
4, 48045, Note_on_c, 3, 76, 0
4, 48060, Note_on_c, 3, 76, 96
4, 48105, Note_on_c, 3, 76, 0
4, 48120, Note_on_c, 3, 71, 96
4, 48165, Note_on_c, 3, 71, 0
4, 48180, Note_on_c, 3, 71, 96
4, 48225, Note_on_c, 3, 71, 0
4, 48240, Note_on_c, 3, 73, 96
4, 48285, Note_on_c, 3, 73, 0
4, 48300, Note_on_c, 3, 73, 96
4, 48345, Note_on_c, 3, 73, 0
4, 48360, Note_on_c, 3, 75, 96
4, 48405, Note_on_c, 3, 75, 0
4, 48420, Note_on_c, 3, 75, 96
4, 48465, Note_on_c, 3, 75, 0
4, 48480, Note_on_c, 3, 76, 96
4, 48525, Note_on_c, 3, 76, 0
4, 48540, Note_on_c, 3, 78, 96
4, 48585, Note_on_c, 3, 78, 0
4, 48600, Note_on_c, 3, 80, 96
4, 48645, Note_on_c, 3, 80, 0
4, 48660, Note_on_c, 3, 76, 96
4, 48705, Note_on_c, 3, 76, 0
4, 48720, Note_on_c, 3, 81, 96
4, 48765, Note_on_c, 3, 81, 0
4, 48780, Note_on_c, 3, 78, 96
4, 48825, Note_on_c, 3, 78, 0
4, 48840, Note_on_c, 3, 83, 96
4, 48930, Note_on_c, 3, 83, 0
4, 48960, Note_on_c, 3, 81, 96
4, 49005, Note_on_c, 3, 81, 0
4, 49020, Note_on_c, 3, 80, 96
4, 49065, Note_on_c, 3, 80, 0
4, 49080, Note_on_c, 3, 78, 96
4, 49125, Note_on_c, 3, 78, 0
4, 49140, Note_on_c, 3, 76, 96
4, 49185, Note_on_c, 3, 76, 0
4, 49200, Note_on_c, 3, 80, 96
4, 49245, Note_on_c, 3, 80, 0
4, 49260, Note_on_c, 3, 78, 96
4, 49305, Note_on_c, 3, 78, 0
4, 49320, Note_on_c, 3, 76, 96
4, 49365, Note_on_c, 3, 76, 0
4, 49380, Note_on_c, 3, 75, 96
4, 49425, Note_on_c, 3, 75, 0
4, 49440, Note_on_c, 3, 76, 96
4, 49680, Note_on_c, 3, 76, 0
4, 49920, Note_on_c, 3, 61, 96
4, 50040, Note_on_c, 3, 61, 0
4, 50160, Note_on_c, 3, 64, 96
4, 50280, Note_on_c, 3, 64, 0
4, 50400, Note_on_c, 3, 68, 96
4, 50640, Note_on_c, 3, 68, 0
4, 50880, Note_on_c, 3, 59, 96
4, 51000, Note_on_c, 3, 59, 0
4, 51120, Note_on_c, 3, 63, 96
4, 51240, Note_on_c, 3, 63, 0
4, 51360, Note_on_c, 3, 68, 96
4, 51600, Note_on_c, 3, 68, 0
4, 51840, Note_on_c, 3, 57, 96
4, 51960, Note_on_c, 3, 57, 0
4, 52080, Note_on_c, 3, 61, 96
4, 52200, Note_on_c, 3, 61, 0
4, 52320, Note_on_c, 3, 66, 96
4, 52560, Note_on_c, 3, 66, 0
4, 52800, Note_on_c, 3, 56, 96
4, 52920, Note_on_c, 3, 56, 0
4, 53040, Note_on_c, 3, 63, 96
4, 53160, Note_on_c, 3, 63, 0
4, 53280, Note_on_c, 3, 68, 96
4, 53520, Note_on_c, 3, 68, 0
4, 53760, Note_on_c, 3, 80, 96
4, 54216, Note_on_c, 3, 80, 0
4, 54240, Note_on_c, 3, 79, 96
4, 54468, Note_on_c, 3, 79, 0
4, 54480, Note_on_c, 3, 80, 96
4, 54708, Note_on_c, 3, 80, 0
4, 54720, Note_on_c, 3, 82, 96
4, 55404, Note_on_c, 3, 82, 0
4, 55440, Note_on_c, 3, 80, 96
4, 55554, Note_on_c, 3, 80, 0
4, 55560, Note_on_c, 3, 79, 96
4, 55674, Note_on_c, 3, 79, 0
4, 55680, Note_on_c, 3, 80, 96
4, 55908, Note_on_c, 3, 80, 0
4, 55920, Note_on_c, 3, 75, 96
4, 56148, Note_on_c, 3, 75, 0
4, 56160, Note_on_c, 3, 77, 96
4, 56388, Note_on_c, 3, 77, 0
4, 56400, Note_on_c, 3, 78, 96
4, 56628, Note_on_c, 3, 78, 0
4, 56640, Note_on_c, 3, 80, 96
4, 57324, Note_on_c, 3, 80, 0
4, 57360, Note_on_c, 3, 78, 96
4, 57474, Note_on_c, 3, 78, 0
4, 57480, Note_on_c, 3, 77, 96
4, 57594, Note_on_c, 3, 77, 0
4, 57600, Note_on_c, 3, 78, 96
4, 57828, Note_on_c, 3, 78, 0
4, 57840, Note_on_c, 3, 73, 96
4, 58068, Note_on_c, 3, 73, 0
4, 58080, Note_on_c, 3, 75, 96
4, 58308, Note_on_c, 3, 75, 0
4, 58320, Note_on_c, 3, 76, 96
4, 58548, Note_on_c, 3, 76, 0
4, 58560, Note_on_c, 3, 78, 96
4, 59976, Note_on_c, 3, 78, 0
4, 60000, Note_on_c, 3, 75, 96
4, 60228, Note_on_c, 3, 75, 0
4, 60240, Note_on_c, 3, 72, 96
4, 60468, Note_on_c, 3, 72, 0
4, 60480, Note_on_c, 3, 68, 96
4, 61896, Note_on_c, 3, 68, 0
4, 61920, Note_on_c, 3, 66, 96
4, 62856, Note_on_c, 3, 66, 0
4, 62880, Note_on_c, 3, 64, 96
4, 63816, Note_on_c, 3, 64, 0
4, 63840, Note_on_c, 3, 66, 96
4, 64068, Note_on_c, 3, 66, 0
4, 64080, Note_on_c, 3, 69, 96
4, 64308, Note_on_c, 3, 69, 0
4, 64320, Note_on_c, 3, 63, 96
4, 64776, Note_on_c, 3, 63, 0
4, 64800, Note_on_c, 3, 64, 96
4, 65736, Note_on_c, 3, 64, 0
4, 65760, Note_on_c, 3, 63, 96
4, 66216, Note_on_c, 3, 63, 0
4, 66240, Note_on_c, 3, 73, 96
4, 66360, Note_on_c, 3, 73, 0
4, 66480, Note_on_c, 3, 76, 96
4, 66600, Note_on_c, 3, 76, 0
4, 66720, Note_on_c, 3, 80, 96
4, 66960, Note_on_c, 3, 80, 0
4, 67080, Note_on_c, 3, 76, 96
4, 67125, Note_on_c, 3, 76, 0
4, 67140, Note_on_c, 3, 78, 96
4, 67185, Note_on_c, 3, 78, 0
4, 67200, Note_on_c, 3, 80, 96
4, 67290, Note_on_c, 3, 80, 0
4, 67320, Note_on_c, 3, 76, 96
4, 67365, Note_on_c, 3, 76, 0
4, 67380, Note_on_c, 3, 78, 96
4, 67425, Note_on_c, 3, 78, 0
4, 67440, Note_on_c, 3, 80, 96
4, 67530, Note_on_c, 3, 80, 0
4, 67560, Note_on_c, 3, 85, 96
4, 67650, Note_on_c, 3, 85, 0
4, 67680, Note_on_c, 3, 80, 96
4, 67770, Note_on_c, 3, 80, 0
4, 67800, Note_on_c, 3, 80, 96
4, 67845, Note_on_c, 3, 80, 0
4, 67860, Note_on_c, 3, 78, 96
4, 67905, Note_on_c, 3, 78, 0
4, 67920, Note_on_c, 3, 76, 96
4, 68010, Note_on_c, 3, 76, 0
4, 68040, Note_on_c, 3, 75, 96
4, 68085, Note_on_c, 3, 75, 0
4, 68100, Note_on_c, 3, 73, 96
4, 68145, Note_on_c, 3, 73, 0
4, 68160, Note_on_c, 3, 64, 96
4, 68280, Note_on_c, 3, 64, 0
4, 68400, Note_on_c, 3, 70, 96
4, 68520, Note_on_c, 3, 70, 0
4, 68640, Note_on_c, 3, 73, 96
4, 68880, Note_on_c, 3, 73, 0
4, 69120, Note_on_c, 3, 71, 96
4, 69240, Note_on_c, 3, 71, 0
4, 69360, Note_on_c, 3, 75, 96
4, 69480, Note_on_c, 3, 75, 0
4, 69600, Note_on_c, 3, 78, 96
4, 69840, Note_on_c, 3, 78, 0
4, 69960, Note_on_c, 3, 75, 96
4, 70005, Note_on_c, 3, 75, 0
4, 70020, Note_on_c, 3, 76, 96
4, 70065, Note_on_c, 3, 76, 0
4, 70080, Note_on_c, 3, 78, 96
4, 70170, Note_on_c, 3, 78, 0
4, 70200, Note_on_c, 3, 75, 96
4, 70245, Note_on_c, 3, 75, 0
4, 70260, Note_on_c, 3, 76, 96
4, 70305, Note_on_c, 3, 76, 0
4, 70320, Note_on_c, 3, 78, 96
4, 70410, Note_on_c, 3, 78, 0
4, 70440, Note_on_c, 3, 83, 96
4, 70530, Note_on_c, 3, 83, 0
4, 70560, Note_on_c, 3, 78, 96
4, 70650, Note_on_c, 3, 78, 0
4, 70680, Note_on_c, 3, 78, 96
4, 70725, Note_on_c, 3, 78, 0
4, 70740, Note_on_c, 3, 76, 96
4, 70785, Note_on_c, 3, 76, 0
4, 70800, Note_on_c, 3, 75, 96
4, 70890, Note_on_c, 3, 75, 0
4, 70920, Note_on_c, 3, 73, 96
4, 70965, Note_on_c, 3, 73, 0
4, 70980, Note_on_c, 3, 71, 96
4, 71025, Note_on_c, 3, 71, 0
4, 71040, Note_on_c, 3, 62, 96
4, 71160, Note_on_c, 3, 62, 0
4, 71280, Note_on_c, 3, 68, 96
4, 71400, Note_on_c, 3, 68, 0
4, 71520, Note_on_c, 3, 71, 96
4, 71760, Note_on_c, 3, 71, 0
4, 72000, Note_on_c, 3, 69, 96
4, 72120, Note_on_c, 3, 69, 0
4, 72240, Note_on_c, 3, 73, 96
4, 72360, Note_on_c, 3, 73, 0
4, 72480, Note_on_c, 3, 76, 96
4, 72720, Note_on_c, 3, 76, 0
4, 72840, Note_on_c, 3, 61, 96
4, 72885, Note_on_c, 3, 61, 0
4, 72900, Note_on_c, 3, 62, 96
4, 72945, Note_on_c, 3, 62, 0
4, 72960, Note_on_c, 3, 64, 96
4, 73050, Note_on_c, 3, 64, 0
4, 73080, Note_on_c, 3, 61, 96
4, 73125, Note_on_c, 3, 61, 0
4, 73140, Note_on_c, 3, 62, 96
4, 73185, Note_on_c, 3, 62, 0
4, 73200, Note_on_c, 3, 64, 96
4, 73290, Note_on_c, 3, 64, 0
4, 73320, Note_on_c, 3, 69, 96
4, 73410, Note_on_c, 3, 69, 0
4, 73440, Note_on_c, 3, 64, 96
4, 73530, Note_on_c, 3, 64, 0
4, 73560, Note_on_c, 3, 64, 96
4, 73605, Note_on_c, 3, 64, 0
4, 73620, Note_on_c, 3, 62, 96
4, 73665, Note_on_c, 3, 62, 0
4, 73680, Note_on_c, 3, 61, 96
4, 73770, Note_on_c, 3, 61, 0
4, 73800, Note_on_c, 3, 59, 96
4, 73845, Note_on_c, 3, 59, 0
4, 73860, Note_on_c, 3, 57, 96
4, 73905, Note_on_c, 3, 57, 0
4, 73920, Note_on_c, 3, 74, 96
4, 73965, Note_on_c, 3, 74, 0
4, 73980, Note_on_c, 3, 76, 96
4, 74025, Note_on_c, 3, 76, 0
4, 74040, Note_on_c, 3, 74, 96
4, 74085, Note_on_c, 3, 74, 0
4, 74100, Note_on_c, 3, 71, 96
4, 74145, Note_on_c, 3, 71, 0
4, 74160, Note_on_c, 3, 73, 96
4, 74205, Note_on_c, 3, 73, 0
4, 74220, Note_on_c, 3, 74, 96
4, 74265, Note_on_c, 3, 74, 0
4, 74280, Note_on_c, 3, 73, 96
4, 74325, Note_on_c, 3, 73, 0
4, 74340, Note_on_c, 3, 69, 96
4, 74385, Note_on_c, 3, 69, 0
4, 74400, Note_on_c, 3, 71, 96
4, 74445, Note_on_c, 3, 71, 0
4, 74460, Note_on_c, 3, 64, 96
4, 74505, Note_on_c, 3, 64, 0
4, 74520, Note_on_c, 3, 66, 96
4, 74565, Note_on_c, 3, 66, 0
4, 74580, Note_on_c, 3, 68, 96
4, 74625, Note_on_c, 3, 68, 0
4, 74640, Note_on_c, 3, 69, 96
4, 74685, Note_on_c, 3, 69, 0
4, 74700, Note_on_c, 3, 71, 96
4, 74745, Note_on_c, 3, 71, 0
4, 74760, Note_on_c, 3, 73, 96
4, 74805, Note_on_c, 3, 73, 0
4, 74820, Note_on_c, 3, 74, 96
4, 74865, Note_on_c, 3, 74, 0
4, 74880, Note_on_c, 3, 76, 96
4, 74925, Note_on_c, 3, 76, 0
4, 74940, Note_on_c, 3, 76, 96
4, 74985, Note_on_c, 3, 76, 0
4, 75000, Note_on_c, 3, 76, 96
4, 75045, Note_on_c, 3, 76, 0
4, 75060, Note_on_c, 3, 76, 96
4, 75105, Note_on_c, 3, 76, 0
4, 75120, Note_on_c, 3, 76, 96
4, 75165, Note_on_c, 3, 76, 0
4, 75180, Note_on_c, 3, 76, 96
4, 75225, Note_on_c, 3, 76, 0
4, 75240, Note_on_c, 3, 76, 96
4, 75285, Note_on_c, 3, 76, 0
4, 75300, Note_on_c, 3, 76, 96
4, 75345, Note_on_c, 3, 76, 0
4, 75360, Note_on_c, 3, 76, 96
4, 75480, Note_on_c, 3, 76, 0
4, 75840, Note_on_c, 3, 74, 96
4, 75885, Note_on_c, 3, 74, 0
4, 75900, Note_on_c, 3, 74, 96
4, 75945, Note_on_c, 3, 74, 0
4, 75960, Note_on_c, 3, 74, 96
4, 76005, Note_on_c, 3, 74, 0
4, 76020, Note_on_c, 3, 74, 96
4, 76065, Note_on_c, 3, 74, 0
4, 76080, Note_on_c, 3, 74, 96
4, 76125, Note_on_c, 3, 74, 0
4, 76140, Note_on_c, 3, 74, 96
4, 76185, Note_on_c, 3, 74, 0
4, 76200, Note_on_c, 3, 74, 96
4, 76245, Note_on_c, 3, 74, 0
4, 76260, Note_on_c, 3, 74, 96
4, 76305, Note_on_c, 3, 74, 0
4, 76320, Note_on_c, 3, 74, 96
4, 76440, Note_on_c, 3, 74, 0
4, 76800, Note_on_c, 3, 73, 96
4, 76845, Note_on_c, 3, 73, 0
4, 76860, Note_on_c, 3, 73, 96
4, 76905, Note_on_c, 3, 73, 0
4, 76920, Note_on_c, 3, 73, 96
4, 76965, Note_on_c, 3, 73, 0
4, 76980, Note_on_c, 3, 73, 96
4, 77025, Note_on_c, 3, 73, 0
4, 77040, Note_on_c, 3, 73, 96
4, 77085, Note_on_c, 3, 73, 0
4, 77100, Note_on_c, 3, 73, 96
4, 77145, Note_on_c, 3, 73, 0
4, 77160, Note_on_c, 3, 73, 96
4, 77205, Note_on_c, 3, 73, 0
4, 77220, Note_on_c, 3, 73, 96
4, 77265, Note_on_c, 3, 73, 0
4, 77280, Note_on_c, 3, 74, 96
4, 77460, Note_on_c, 3, 74, 0
4, 77520, Note_on_c, 3, 73, 96
4, 77700, Note_on_c, 3, 73, 0
4, 77760, Note_on_c, 3, 71, 96
4, 77940, Note_on_c, 3, 71, 0
4, 78000, Note_on_c, 3, 69, 96
4, 78180, Note_on_c, 3, 69, 0
4, 78240, Note_on_c, 3, 64, 96
4, 78360, Note_on_c, 3, 64, 0
4, 78480, Note_on_c, 3, 68, 96
4, 78600, Note_on_c, 3, 68, 0
4, 78720, Note_on_c, 3, 71, 96
4, 78960, Note_on_c, 3, 71, 0
4, 79080, Note_on_c, 3, 68, 96
4, 79125, Note_on_c, 3, 68, 0
4, 79140, Note_on_c, 3, 69, 96
4, 79185, Note_on_c, 3, 69, 0
4, 79200, Note_on_c, 3, 71, 96
4, 79290, Note_on_c, 3, 71, 0
4, 79320, Note_on_c, 3, 68, 96
4, 79365, Note_on_c, 3, 68, 0
4, 79380, Note_on_c, 3, 69, 96
4, 79425, Note_on_c, 3, 69, 0
4, 79440, Note_on_c, 3, 71, 96
4, 79530, Note_on_c, 3, 71, 0
4, 79560, Note_on_c, 3, 76, 96
4, 79650, Note_on_c, 3, 76, 0
4, 79680, Note_on_c, 3, 71, 96
4, 79770, Note_on_c, 3, 71, 0
4, 79800, Note_on_c, 3, 71, 96
4, 79845, Note_on_c, 3, 71, 0
4, 79860, Note_on_c, 3, 69, 96
4, 79905, Note_on_c, 3, 69, 0
4, 79920, Note_on_c, 3, 68, 96
4, 80010, Note_on_c, 3, 68, 0
4, 80040, Note_on_c, 3, 66, 96
4, 80085, Note_on_c, 3, 66, 0
4, 80100, Note_on_c, 3, 64, 96
4, 80145, Note_on_c, 3, 64, 0
4, 80160, Note_on_c, 3, 69, 96
4, 80250, Note_on_c, 3, 69, 0
4, 80280, Note_on_c, 3, 57, 96
4, 80370, Note_on_c, 3, 57, 0
4, 80520, Note_on_c, 3, 69, 96
4, 80565, Note_on_c, 3, 69, 0
4, 80580, Note_on_c, 3, 68, 96
4, 80625, Note_on_c, 3, 68, 0
4, 80640, Note_on_c, 3, 69, 96
4, 80730, Note_on_c, 3, 69, 0
4, 80760, Note_on_c, 3, 57, 96
4, 80805, Note_on_c, 3, 57, 0
4, 80820, Note_on_c, 3, 59, 96
4, 80865, Note_on_c, 3, 59, 0
4, 80880, Note_on_c, 3, 61, 96
4, 80970, Note_on_c, 3, 61, 0
4, 81000, Note_on_c, 3, 64, 96
4, 81090, Note_on_c, 3, 64, 0
4, 81120, Note_on_c, 3, 69, 96
4, 81210, Note_on_c, 3, 69, 0
4, 81240, Note_on_c, 3, 64, 96
4, 81330, Note_on_c, 3, 64, 0
4, 81360, Note_on_c, 3, 69, 96
4, 81450, Note_on_c, 3, 69, 0
4, 81480, Note_on_c, 3, 73, 96
4, 81570, Note_on_c, 3, 73, 0
4, 81600, Note_on_c, 3, 76, 96
4, 81690, Note_on_c, 3, 76, 0
4, 81720, Note_on_c, 3, 73, 96
4, 81810, Note_on_c, 3, 73, 0
4, 81840, Note_on_c, 3, 69, 96
4, 81930, Note_on_c, 3, 69, 0
4, 81960, Note_on_c, 3, 67, 96
4, 82050, Note_on_c, 3, 67, 0
4, 82080, Note_on_c, 3, 66, 96
4, 82260, Note_on_c, 3, 66, 0
4, 82320, Note_on_c, 3, 70, 96
4, 82500, Note_on_c, 3, 70, 0
4, 82560, Note_on_c, 3, 73, 96
4, 82740, Note_on_c, 3, 73, 0
4, 82920, Note_on_c, 3, 70, 96
4, 82965, Note_on_c, 3, 70, 0
4, 82980, Note_on_c, 3, 71, 96
4, 83025, Note_on_c, 3, 71, 0
4, 83040, Note_on_c, 3, 73, 96
4, 83130, Note_on_c, 3, 73, 0
4, 83160, Note_on_c, 3, 70, 96
4, 83205, Note_on_c, 3, 70, 0
4, 83220, Note_on_c, 3, 71, 96
4, 83265, Note_on_c, 3, 71, 0
4, 83280, Note_on_c, 3, 73, 96
4, 83370, Note_on_c, 3, 73, 0
4, 83400, Note_on_c, 3, 78, 96
4, 83490, Note_on_c, 3, 78, 0
4, 83520, Note_on_c, 3, 73, 96
4, 83610, Note_on_c, 3, 73, 0
4, 83640, Note_on_c, 3, 73, 96
4, 83685, Note_on_c, 3, 73, 0
4, 83700, Note_on_c, 3, 71, 96
4, 83745, Note_on_c, 3, 71, 0
4, 83760, Note_on_c, 3, 70, 96
4, 83850, Note_on_c, 3, 70, 0
4, 83880, Note_on_c, 3, 68, 96
4, 83925, Note_on_c, 3, 68, 0
4, 83940, Note_on_c, 3, 66, 96
4, 83985, Note_on_c, 3, 66, 0
4, 84000, Note_on_c, 3, 74, 96
4, 84090, Note_on_c, 3, 74, 0
4, 84120, Note_on_c, 3, 59, 96
4, 84210, Note_on_c, 3, 59, 0
4, 84360, Note_on_c, 3, 71, 96
4, 84405, Note_on_c, 3, 71, 0
4, 84420, Note_on_c, 3, 70, 96
4, 84465, Note_on_c, 3, 70, 0
4, 84480, Note_on_c, 3, 71, 96
4, 84570, Note_on_c, 3, 71, 0
4, 84600, Note_on_c, 3, 59, 96
4, 84645, Note_on_c, 3, 59, 0
4, 84660, Note_on_c, 3, 61, 96
4, 84705, Note_on_c, 3, 61, 0
4, 84720, Note_on_c, 3, 62, 96
4, 84810, Note_on_c, 3, 62, 0
4, 84840, Note_on_c, 3, 66, 96
4, 84930, Note_on_c, 3, 66, 0
4, 84960, Note_on_c, 3, 71, 96
4, 85050, Note_on_c, 3, 71, 0
4, 85080, Note_on_c, 3, 66, 96
4, 85170, Note_on_c, 3, 66, 0
4, 85200, Note_on_c, 3, 71, 96
4, 85290, Note_on_c, 3, 71, 0
4, 85320, Note_on_c, 3, 74, 96
4, 85410, Note_on_c, 3, 74, 0
4, 85440, Note_on_c, 3, 78, 96
4, 85530, Note_on_c, 3, 78, 0
4, 85560, Note_on_c, 3, 74, 96
4, 85650, Note_on_c, 3, 74, 0
4, 85680, Note_on_c, 3, 71, 96
4, 85770, Note_on_c, 3, 71, 0
4, 85800, Note_on_c, 3, 68, 96
4, 85890, Note_on_c, 3, 68, 0
4, 85920, Note_on_c, 3, 61, 96
4, 86100, Note_on_c, 3, 61, 0
4, 86160, Note_on_c, 3, 65, 96
4, 86340, Note_on_c, 3, 65, 0
4, 86400, Note_on_c, 3, 68, 96
4, 86580, Note_on_c, 3, 68, 0
4, 86760, Note_on_c, 3, 65, 96
4, 86805, Note_on_c, 3, 65, 0
4, 86820, Note_on_c, 3, 66, 96
4, 86865, Note_on_c, 3, 66, 0
4, 86880, Note_on_c, 3, 68, 96
4, 86970, Note_on_c, 3, 68, 0
4, 87000, Note_on_c, 3, 65, 96
4, 87045, Note_on_c, 3, 65, 0
4, 87060, Note_on_c, 3, 66, 96
4, 87105, Note_on_c, 3, 66, 0
4, 87120, Note_on_c, 3, 68, 96
4, 87210, Note_on_c, 3, 68, 0
4, 87240, Note_on_c, 3, 73, 96
4, 87330, Note_on_c, 3, 73, 0
4, 87360, Note_on_c, 3, 68, 96
4, 87450, Note_on_c, 3, 68, 0
4, 87480, Note_on_c, 3, 68, 96
4, 87525, Note_on_c, 3, 68, 0
4, 87540, Note_on_c, 3, 66, 96
4, 87585, Note_on_c, 3, 66, 0
4, 87600, Note_on_c, 3, 65, 96
4, 87690, Note_on_c, 3, 65, 0
4, 87720, Note_on_c, 3, 63, 96
4, 87765, Note_on_c, 3, 63, 0
4, 87780, Note_on_c, 3, 61, 96
4, 87825, Note_on_c, 3, 61, 0
4, 87840, Note_on_c, 3, 81, 96
4, 87930, Note_on_c, 3, 81, 0
4, 87960, Note_on_c, 3, 80, 96
4, 88005, Note_on_c, 3, 80, 0
4, 88020, Note_on_c, 3, 78, 96
4, 88065, Note_on_c, 3, 78, 0
4, 88080, Note_on_c, 3, 80, 96
4, 88170, Note_on_c, 3, 80, 0
4, 88200, Note_on_c, 3, 78, 96
4, 88245, Note_on_c, 3, 78, 0
4, 88260, Note_on_c, 3, 77, 96
4, 88305, Note_on_c, 3, 77, 0
4, 88320, Note_on_c, 3, 78, 96
4, 89040, Note_on_c, 3, 78, 0
4, 89280, Note_on_c, 3, 80, 96
4, 89460, Note_on_c, 3, 80, 0
4, 89640, Note_on_c, 3, 73, 96
4, 89730, Note_on_c, 3, 73, 0
4, 89760, Note_on_c, 3, 71, 96
4, 89805, Note_on_c, 3, 71, 0
4, 89820, Note_on_c, 3, 69, 96
4, 89865, Note_on_c, 3, 69, 0
4, 89880, Note_on_c, 3, 68, 96
4, 89925, Note_on_c, 3, 68, 0
4, 89940, Note_on_c, 3, 66, 96
4, 89985, Note_on_c, 3, 66, 0
4, 90000, Note_on_c, 3, 69, 96
4, 90045, Note_on_c, 3, 69, 0
4, 90060, Note_on_c, 3, 68, 96
4, 90105, Note_on_c, 3, 68, 0
4, 90120, Note_on_c, 3, 66, 96
4, 90165, Note_on_c, 3, 66, 0
4, 90180, Note_on_c, 3, 65, 96
4, 90225, Note_on_c, 3, 65, 0
4, 90240, Note_on_c, 3, 66, 96
4, 90420, Note_on_c, 3, 66, 0
4, 93000, Note_on_c, 3, 70, 96
4, 93045, Note_on_c, 3, 70, 0
4, 93060, Note_on_c, 3, 71, 96
4, 93105, Note_on_c, 3, 71, 0
4, 93120, Note_on_c, 3, 73, 96
4, 93210, Note_on_c, 3, 73, 0
4, 93240, Note_on_c, 3, 76, 96
4, 93285, Note_on_c, 3, 76, 0
4, 93300, Note_on_c, 3, 75, 96
4, 93345, Note_on_c, 3, 75, 0
4, 93360, Note_on_c, 3, 73, 96
4, 93450, Note_on_c, 3, 73, 0
4, 93480, Note_on_c, 3, 82, 96
4, 93570, Note_on_c, 3, 82, 0
4, 93600, Note_on_c, 3, 83, 96
4, 93690, Note_on_c, 3, 83, 0
4, 93720, Note_on_c, 3, 78, 96
4, 93810, Note_on_c, 3, 78, 0
4, 93840, Note_on_c, 3, 71, 96
4, 93930, Note_on_c, 3, 71, 0
4, 93960, Note_on_c, 3, 74, 96
4, 94005, Note_on_c, 3, 74, 0
4, 94020, Note_on_c, 3, 73, 96
4, 94065, Note_on_c, 3, 73, 0
4, 95040, Note_on_c, 3, 78, 96
4, 95130, Note_on_c, 3, 78, 0
4, 95160, Note_on_c, 3, 75, 96
4, 95205, Note_on_c, 3, 75, 0
4, 95220, Note_on_c, 3, 76, 96
4, 95265, Note_on_c, 3, 76, 0
4, 95280, Note_on_c, 3, 78, 96
4, 95370, Note_on_c, 3, 78, 0
4, 95400, Note_on_c, 3, 76, 96
4, 95445, Note_on_c, 3, 76, 0
4, 95460, Note_on_c, 3, 75, 96
4, 95505, Note_on_c, 3, 75, 0
4, 95520, Note_on_c, 3, 76, 96
4, 95610, Note_on_c, 3, 76, 0
4, 95640, Note_on_c, 3, 68, 96
4, 95685, Note_on_c, 3, 68, 0
4, 95700, Note_on_c, 3, 69, 96
4, 95745, Note_on_c, 3, 69, 0
4, 95760, Note_on_c, 3, 71, 96
4, 95850, Note_on_c, 3, 71, 0
4, 95880, Note_on_c, 3, 69, 96
4, 95925, Note_on_c, 3, 69, 0
4, 95940, Note_on_c, 3, 68, 96
4, 95985, Note_on_c, 3, 68, 0
4, 95985, End_track
5, 0, Start_track
5, 0, MIDI_port, 0
5, 0, Title_t, "acc. Reconstructed from a "
5, 0, Program_c, 4, 48
5, 0, Control_c, 4, 7, 96
5, 0, Control_c, 4, 10, 16
5, 94080, Note_on_c, 4, 71, 96
5, 94170, Note_on_c, 4, 71, 0
5, 94200, Note_on_c, 4, 74, 96
5, 94245, Note_on_c, 4, 74, 0
5, 94260, Note_on_c, 4, 73, 96
5, 94305, Note_on_c, 4, 73, 0
5, 94320, Note_on_c, 4, 71, 96
5, 94410, Note_on_c, 4, 71, 0
5, 94440, Note_on_c, 4, 80, 96
5, 94530, Note_on_c, 4, 80, 0
5, 94560, Note_on_c, 4, 81, 96
5, 94650, Note_on_c, 4, 81, 0
5, 94680, Note_on_c, 4, 76, 96
5, 94770, Note_on_c, 4, 76, 0
5, 94800, Note_on_c, 4, 69, 96
5, 94890, Note_on_c, 4, 69, 0
5, 94920, Note_on_c, 4, 73, 96
5, 95010, Note_on_c, 4, 73, 0
5, 96000, Note_on_c, 4, 69, 96
5, 96090, Note_on_c, 4, 69, 0
5, 96120, Note_on_c, 4, 73, 96
5, 96210, Note_on_c, 4, 73, 0
5, 96240, Note_on_c, 4, 78, 96
5, 96330, Note_on_c, 4, 78, 0
5, 96360, Note_on_c, 4, 81, 96
5, 96450, Note_on_c, 4, 81, 0
5, 96480, Note_on_c, 4, 81, 96
5, 96660, Note_on_c, 4, 81, 0
5, 96840, Note_on_c, 4, 81, 96
5, 96930, Note_on_c, 4, 81, 0
5, 96960, Note_on_c, 4, 80, 96
5, 97005, Note_on_c, 4, 80, 0
5, 97020, Note_on_c, 4, 81, 96
5, 97065, Note_on_c, 4, 81, 0
5, 97080, Note_on_c, 4, 83, 96
5, 97125, Note_on_c, 4, 83, 0
5, 97140, Note_on_c, 4, 80, 96
5, 97185, Note_on_c, 4, 80, 0
5, 97200, Note_on_c, 4, 78, 96
5, 97245, Note_on_c, 4, 78, 0
5, 97260, Note_on_c, 4, 80, 96
5, 97305, Note_on_c, 4, 80, 0
5, 97320, Note_on_c, 4, 81, 96
5, 97365, Note_on_c, 4, 81, 0
5, 97380, Note_on_c, 4, 78, 96
5, 97425, Note_on_c, 4, 78, 0
5, 97440, Note_on_c, 4, 76, 96
5, 97485, Note_on_c, 4, 76, 0
5, 97500, Note_on_c, 4, 78, 96
5, 97545, Note_on_c, 4, 78, 0
5, 97560, Note_on_c, 4, 80, 96
5, 97605, Note_on_c, 4, 80, 0
5, 97620, Note_on_c, 4, 76, 96
5, 97665, Note_on_c, 4, 76, 0
5, 97680, Note_on_c, 4, 75, 96
5, 97725, Note_on_c, 4, 75, 0
5, 97740, Note_on_c, 4, 76, 96
5, 97785, Note_on_c, 4, 76, 0
5, 97800, Note_on_c, 4, 78, 96
5, 97845, Note_on_c, 4, 78, 0
5, 97860, Note_on_c, 4, 75, 96
5, 97905, Note_on_c, 4, 75, 0
5, 97920, Note_on_c, 4, 73, 96
5, 97965, Note_on_c, 4, 73, 0
5, 97980, Note_on_c, 4, 75, 96
5, 98025, Note_on_c, 4, 75, 0
5, 98040, Note_on_c, 4, 76, 96
5, 98085, Note_on_c, 4, 76, 0
5, 98100, Note_on_c, 4, 71, 96
5, 98145, Note_on_c, 4, 71, 0
5, 98160, Note_on_c, 4, 73, 96
5, 98205, Note_on_c, 4, 73, 0
5, 98220, Note_on_c, 4, 76, 96
5, 98265, Note_on_c, 4, 76, 0
5, 98280, Note_on_c, 4, 75, 96
5, 98325, Note_on_c, 4, 75, 0
5, 98340, Note_on_c, 4, 78, 96
5, 98385, Note_on_c, 4, 78, 0
5, 98400, Note_on_c, 4, 76, 96
5, 98445, Note_on_c, 4, 76, 0
5, 98460, Note_on_c, 4, 78, 96
5, 98505, Note_on_c, 4, 78, 0
5, 98520, Note_on_c, 4, 80, 96
5, 98565, Note_on_c, 4, 80, 0
5, 98580, Note_on_c, 4, 71, 96
5, 98625, Note_on_c, 4, 71, 0
5, 98640, Note_on_c, 4, 73, 96
5, 98685, Note_on_c, 4, 73, 0
5, 98700, Note_on_c, 4, 76, 96
5, 98745, Note_on_c, 4, 76, 0
5, 98760, Note_on_c, 4, 75, 96
5, 98805, Note_on_c, 4, 75, 0
5, 98820, Note_on_c, 4, 78, 96
5, 98865, Note_on_c, 4, 78, 0
5, 98880, Note_on_c, 4, 76, 96
5, 98925, Note_on_c, 4, 76, 0
5, 98940, Note_on_c, 4, 78, 96
5, 98985, Note_on_c, 4, 78, 0
5, 99000, Note_on_c, 4, 80, 96
5, 99045, Note_on_c, 4, 80, 0
5, 99060, Note_on_c, 4, 75, 96
5, 99105, Note_on_c, 4, 75, 0
5, 99120, Note_on_c, 4, 76, 96
5, 99165, Note_on_c, 4, 76, 0
5, 99180, Note_on_c, 4, 80, 96
5, 99225, Note_on_c, 4, 80, 0
5, 99240, Note_on_c, 4, 78, 96
5, 99285, Note_on_c, 4, 78, 0
5, 99300, Note_on_c, 4, 81, 96
5, 99345, Note_on_c, 4, 81, 0
5, 99360, Note_on_c, 4, 80, 96
5, 99405, Note_on_c, 4, 80, 0
5, 99420, Note_on_c, 4, 81, 96
5, 99465, Note_on_c, 4, 81, 0
5, 99480, Note_on_c, 4, 83, 96
5, 99525, Note_on_c, 4, 83, 0
5, 99540, Note_on_c, 4, 75, 96
5, 99585, Note_on_c, 4, 75, 0
5, 99600, Note_on_c, 4, 76, 96
5, 99645, Note_on_c, 4, 76, 0
5, 99660, Note_on_c, 4, 80, 96
5, 99705, Note_on_c, 4, 80, 0
5, 99720, Note_on_c, 4, 78, 96
5, 99765, Note_on_c, 4, 78, 0
5, 99780, Note_on_c, 4, 81, 96
5, 99825, Note_on_c, 4, 81, 0
5, 99840, Note_on_c, 4, 80, 96
5, 99885, Note_on_c, 4, 80, 0
5, 99900, Note_on_c, 4, 81, 96
5, 99945, Note_on_c, 4, 81, 0
5, 99960, Note_on_c, 4, 83, 96
5, 100005, Note_on_c, 4, 83, 0
5, 100020, Note_on_c, 4, 80, 96
5, 100065, Note_on_c, 4, 80, 0
5, 100080, Note_on_c, 4, 81, 96
5, 100125, Note_on_c, 4, 81, 0
5, 100140, Note_on_c, 4, 78, 96
5, 100185, Note_on_c, 4, 78, 0
5, 100200, Note_on_c, 4, 80, 96
5, 100245, Note_on_c, 4, 80, 0
5, 100260, Note_on_c, 4, 76, 96
5, 100305, Note_on_c, 4, 76, 0
5, 100320, Note_on_c, 4, 75, 96
5, 101280, Note_on_c, 4, 75, 0
5, 101760, Note_on_c, 4, 70, 96
5, 101880, Note_on_c, 4, 70, 0
5, 102000, Note_on_c, 4, 73, 96
5, 102120, Note_on_c, 4, 73, 0
5, 102240, Note_on_c, 4, 76, 96
5, 102480, Note_on_c, 4, 76, 0
5, 102720, Note_on_c, 4, 68, 96
5, 102840, Note_on_c, 4, 68, 0
5, 102960, Note_on_c, 4, 71, 96
5, 103080, Note_on_c, 4, 71, 0
5, 103200, Note_on_c, 4, 75, 96
5, 103440, Note_on_c, 4, 75, 0
5, 103680, Note_on_c, 4, 73, 96
5, 103800, Note_on_c, 4, 73, 0
5, 103920, Note_on_c, 4, 76, 96
5, 104040, Note_on_c, 4, 76, 0
5, 104160, Note_on_c, 4, 80, 96
5, 104400, Note_on_c, 4, 80, 0
5, 104640, Note_on_c, 4, 75, 96
5, 108240, Note_on_c, 4, 75, 0
5, 108480, Note_on_c, 4, 76, 96
5, 109980, Note_on_c, 4, 76, 0
5, 110280, Note_on_c, 4, 76, 96
5, 110370, Note_on_c, 4, 76, 0
5, 110400, Note_on_c, 4, 75, 96
5, 110490, Note_on_c, 4, 75, 0
5, 110520, Note_on_c, 4, 73, 96
5, 110565, Note_on_c, 4, 73, 0
5, 110580, Note_on_c, 4, 71, 96
5, 110625, Note_on_c, 4, 71, 0
5, 110640, Note_on_c, 4, 75, 96
5, 110685, Note_on_c, 4, 75, 0
5, 110700, Note_on_c, 4, 73, 96
5, 110745, Note_on_c, 4, 73, 0
5, 110760, Note_on_c, 4, 71, 96
5, 110805, Note_on_c, 4, 71, 0
5, 110820, Note_on_c, 4, 70, 96
5, 110865, Note_on_c, 4, 70, 0
5, 110880, Note_on_c, 4, 68, 96
5, 110970, Note_on_c, 4, 68, 0
5, 111000, Note_on_c, 4, 75, 96
5, 111045, Note_on_c, 4, 75, 0
5, 111060, Note_on_c, 4, 75, 96
5, 111105, Note_on_c, 4, 75, 0
5, 111120, Note_on_c, 4, 76, 96
5, 111165, Note_on_c, 4, 76, 0
5, 111180, Note_on_c, 4, 76, 96
5, 111225, Note_on_c, 4, 76, 0
5, 111240, Note_on_c, 4, 73, 96
5, 111285, Note_on_c, 4, 73, 0
5, 111300, Note_on_c, 4, 73, 96
5, 111345, Note_on_c, 4, 73, 0
5, 111360, Note_on_c, 4, 75, 96
5, 111405, Note_on_c, 4, 75, 0
5, 111420, Note_on_c, 4, 75, 96
5, 111465, Note_on_c, 4, 75, 0
5, 111480, Note_on_c, 4, 71, 96
5, 111525, Note_on_c, 4, 71, 0
5, 111540, Note_on_c, 4, 71, 96
5, 111585, Note_on_c, 4, 71, 0
5, 111600, Note_on_c, 4, 73, 96
5, 111645, Note_on_c, 4, 73, 0
5, 111660, Note_on_c, 4, 73, 96
5, 111705, Note_on_c, 4, 73, 0
5, 111720, Note_on_c, 4, 70, 96
5, 111765, Note_on_c, 4, 70, 0
5, 111780, Note_on_c, 4, 70, 96
5, 111825, Note_on_c, 4, 70, 0
5, 111840, Note_on_c, 4, 71, 96
5, 112020, Note_on_c, 4, 71, 0
5, 112620, Note_on_c, 4, 64, 96
5, 112665, Note_on_c, 4, 64, 0
5, 112680, Note_on_c, 4, 62, 96
5, 112725, Note_on_c, 4, 62, 0
5, 112740, Note_on_c, 4, 64, 96
5, 112785, Note_on_c, 4, 64, 0
5, 112800, Note_on_c, 4, 61, 96
5, 112980, Note_on_c, 4, 61, 0
5, 113100, Note_on_c, 4, 69, 96
5, 113145, Note_on_c, 4, 69, 0
5, 113160, Note_on_c, 4, 68, 96
5, 113205, Note_on_c, 4, 68, 0
5, 113220, Note_on_c, 4, 69, 96
5, 113265, Note_on_c, 4, 69, 0
5, 113280, Note_on_c, 4, 64, 96
5, 113460, Note_on_c, 4, 64, 0
5, 113580, Note_on_c, 4, 73, 96
5, 113625, Note_on_c, 4, 73, 0
5, 113640, Note_on_c, 4, 71, 96
5, 113685, Note_on_c, 4, 71, 0
5, 113700, Note_on_c, 4, 73, 96
5, 113745, Note_on_c, 4, 73, 0
5, 113760, Note_on_c, 4, 67, 96
5, 113940, Note_on_c, 4, 67, 0
5, 114060, Note_on_c, 4, 76, 96
5, 114105, Note_on_c, 4, 76, 0
5, 114120, Note_on_c, 4, 75, 96
5, 114165, Note_on_c, 4, 75, 0
5, 114180, Note_on_c, 4, 76, 96
5, 114225, Note_on_c, 4, 76, 0
5, 114240, Note_on_c, 4, 73, 96
5, 114420, Note_on_c, 4, 73, 0
5, 114540, Note_on_c, 4, 82, 96
5, 114585, Note_on_c, 4, 82, 0
5, 114600, Note_on_c, 4, 80, 96
5, 114645, Note_on_c, 4, 80, 0
5, 114660, Note_on_c, 4, 82, 96
5, 114705, Note_on_c, 4, 82, 0
5, 114720, Note_on_c, 4, 79, 96
5, 115080, Note_on_c, 4, 79, 0
5, 117120, Note_on_c, 4, 64, 96
5, 117240, Note_on_c, 4, 64, 0
5, 117360, Note_on_c, 4, 68, 96
5, 117480, Note_on_c, 4, 68, 0
5, 117600, Note_on_c, 4, 71, 96
5, 117840, Note_on_c, 4, 71, 0
5, 117960, Note_on_c, 4, 68, 96
5, 118005, Note_on_c, 4, 68, 0
5, 118020, Note_on_c, 4, 69, 96
5, 118065, Note_on_c, 4, 69, 0
5, 118080, Note_on_c, 4, 71, 96
5, 118170, Note_on_c, 4, 71, 0
5, 118200, Note_on_c, 4, 68, 96
5, 118245, Note_on_c, 4, 68, 0
5, 118260, Note_on_c, 4, 69, 96
5, 118305, Note_on_c, 4, 69, 0
5, 118320, Note_on_c, 4, 71, 96
5, 118410, Note_on_c, 4, 71, 0
5, 118440, Note_on_c, 4, 76, 96
5, 118530, Note_on_c, 4, 76, 0
5, 118560, Note_on_c, 4, 71, 96
5, 118650, Note_on_c, 4, 71, 0
5, 118680, Note_on_c, 4, 71, 96
5, 118725, Note_on_c, 4, 71, 0
5, 118740, Note_on_c, 4, 69, 96
5, 118785, Note_on_c, 4, 69, 0
5, 118800, Note_on_c, 4, 68, 96
5, 118890, Note_on_c, 4, 68, 0
5, 118920, Note_on_c, 4, 66, 96
5, 118965, Note_on_c, 4, 66, 0
5, 118980, Note_on_c, 4, 64, 96
5, 119025, Note_on_c, 4, 64, 0
5, 119040, Note_on_c, 4, 69, 96
5, 119085, Note_on_c, 4, 69, 0
5, 119100, Note_on_c, 4, 71, 96
5, 119145, Note_on_c, 4, 71, 0
5, 119160, Note_on_c, 4, 73, 96
5, 119205, Note_on_c, 4, 73, 0
5, 119220, Note_on_c, 4, 69, 96
5, 119265, Note_on_c, 4, 69, 0
5, 119280, Note_on_c, 4, 68, 96
5, 119325, Note_on_c, 4, 68, 0
5, 119340, Note_on_c, 4, 69, 96
5, 119385, Note_on_c, 4, 69, 0
5, 119400, Note_on_c, 4, 71, 96
5, 119445, Note_on_c, 4, 71, 0
5, 119460, Note_on_c, 4, 68, 96
5, 119505, Note_on_c, 4, 68, 0
5, 119520, Note_on_c, 4, 66, 96
5, 119565, Note_on_c, 4, 66, 0
5, 119580, Note_on_c, 4, 71, 96
5, 119625, Note_on_c, 4, 71, 0
5, 119640, Note_on_c, 4, 73, 96
5, 119685, Note_on_c, 4, 73, 0
5, 119700, Note_on_c, 4, 75, 96
5, 119745, Note_on_c, 4, 75, 0
5, 119760, Note_on_c, 4, 76, 96
5, 119805, Note_on_c, 4, 76, 0
5, 119820, Note_on_c, 4, 78, 96
5, 119865, Note_on_c, 4, 78, 0
5, 119880, Note_on_c, 4, 80, 96
5, 119925, Note_on_c, 4, 80, 0
5, 119940, Note_on_c, 4, 81, 96
5, 119985, Note_on_c, 4, 81, 0
5, 120000, Note_on_c, 4, 83, 96
5, 120045, Note_on_c, 4, 83, 0
5, 120060, Note_on_c, 4, 83, 96
5, 120105, Note_on_c, 4, 83, 0
5, 120120, Note_on_c, 4, 83, 96
5, 120165, Note_on_c, 4, 83, 0
5, 120180, Note_on_c, 4, 83, 96
5, 120225, Note_on_c, 4, 83, 0
5, 120240, Note_on_c, 4, 83, 96
5, 120285, Note_on_c, 4, 83, 0
5, 120300, Note_on_c, 4, 83, 96
5, 120345, Note_on_c, 4, 83, 0
5, 120360, Note_on_c, 4, 83, 96
5, 120405, Note_on_c, 4, 83, 0
5, 120420, Note_on_c, 4, 83, 96
5, 120465, Note_on_c, 4, 83, 0
5, 120480, Note_on_c, 4, 83, 96
5, 120600, Note_on_c, 4, 83, 0
5, 120960, Note_on_c, 4, 81, 96
5, 121005, Note_on_c, 4, 81, 0
5, 121020, Note_on_c, 4, 81, 96
5, 121065, Note_on_c, 4, 81, 0
5, 121080, Note_on_c, 4, 81, 96
5, 121125, Note_on_c, 4, 81, 0
5, 121140, Note_on_c, 4, 81, 96
5, 121185, Note_on_c, 4, 81, 0
5, 121200, Note_on_c, 4, 81, 96
5, 121245, Note_on_c, 4, 81, 0
5, 121260, Note_on_c, 4, 81, 96
5, 121305, Note_on_c, 4, 81, 0
5, 121320, Note_on_c, 4, 81, 96
5, 121365, Note_on_c, 4, 81, 0
5, 121380, Note_on_c, 4, 81, 96
5, 121425, Note_on_c, 4, 81, 0
5, 121440, Note_on_c, 4, 81, 96
5, 121560, Note_on_c, 4, 81, 0
5, 121920, Note_on_c, 4, 80, 96
5, 121965, Note_on_c, 4, 80, 0
5, 121980, Note_on_c, 4, 80, 96
5, 122025, Note_on_c, 4, 80, 0
5, 122040, Note_on_c, 4, 80, 96
5, 122085, Note_on_c, 4, 80, 0
5, 122100, Note_on_c, 4, 80, 96
5, 122145, Note_on_c, 4, 80, 0
5, 122160, Note_on_c, 4, 80, 96
5, 122205, Note_on_c, 4, 80, 0
5, 122220, Note_on_c, 4, 80, 96
5, 122265, Note_on_c, 4, 80, 0
5, 122280, Note_on_c, 4, 80, 96
5, 122325, Note_on_c, 4, 80, 0
5, 122340, Note_on_c, 4, 80, 96
5, 122385, Note_on_c, 4, 80, 0
5, 122400, Note_on_c, 4, 81, 96
5, 122445, Note_on_c, 4, 81, 0
5, 122460, Note_on_c, 4, 83, 96
5, 122505, Note_on_c, 4, 83, 0
5, 122520, Note_on_c, 4, 85, 96
5, 122565, Note_on_c, 4, 85, 0
5, 122580, Note_on_c, 4, 81, 96
5, 122625, Note_on_c, 4, 81, 0
5, 122640, Note_on_c, 4, 80, 96
5, 122685, Note_on_c, 4, 80, 0
5, 122700, Note_on_c, 4, 81, 96
5, 122745, Note_on_c, 4, 81, 0
5, 122760, Note_on_c, 4, 83, 96
5, 122805, Note_on_c, 4, 83, 0
5, 122820, Note_on_c, 4, 80, 96
5, 122865, Note_on_c, 4, 80, 0
5, 122880, Note_on_c, 4, 78, 96
5, 122925, Note_on_c, 4, 78, 0
5, 122940, Note_on_c, 4, 80, 96
5, 122985, Note_on_c, 4, 80, 0
5, 123000, Note_on_c, 4, 81, 96
5, 123045, Note_on_c, 4, 81, 0
5, 123060, Note_on_c, 4, 78, 96
5, 123105, Note_on_c, 4, 78, 0
5, 123120, Note_on_c, 4, 76, 96
5, 123165, Note_on_c, 4, 76, 0
5, 123180, Note_on_c, 4, 78, 96
5, 123225, Note_on_c, 4, 78, 0
5, 123240, Note_on_c, 4, 80, 96
5, 123285, Note_on_c, 4, 80, 0
5, 123300, Note_on_c, 4, 76, 96
5, 123345, Note_on_c, 4, 76, 0
5, 123360, Note_on_c, 4, 75, 96
5, 123405, Note_on_c, 4, 75, 0
5, 123420, Note_on_c, 4, 76, 96
5, 123465, Note_on_c, 4, 76, 0
5, 123480, Note_on_c, 4, 78, 96
5, 123525, Note_on_c, 4, 78, 0
5, 123540, Note_on_c, 4, 75, 96
5, 123585, Note_on_c, 4, 75, 0
5, 123600, Note_on_c, 4, 69, 96
5, 123645, Note_on_c, 4, 69, 0
5, 123660, Note_on_c, 4, 71, 96
5, 123705, Note_on_c, 4, 71, 0
5, 123720, Note_on_c, 4, 73, 96
5, 123765, Note_on_c, 4, 73, 0
5, 123780, Note_on_c, 4, 69, 96
5, 123825, Note_on_c, 4, 69, 0
5, 123840, Note_on_c, 4, 66, 96
5, 123885, Note_on_c, 4, 66, 0
5, 123900, Note_on_c, 4, 68, 96
5, 123945, Note_on_c, 4, 68, 0
5, 123960, Note_on_c, 4, 69, 96
5, 124005, Note_on_c, 4, 69, 0
5, 124020, Note_on_c, 4, 66, 96
5, 124065, Note_on_c, 4, 66, 0
5, 124080, Note_on_c, 4, 63, 96
5, 124125, Note_on_c, 4, 63, 0
5, 124140, Note_on_c, 4, 64, 96
5, 124185, Note_on_c, 4, 64, 0
5, 124200, Note_on_c, 4, 66, 96
5, 124245, Note_on_c, 4, 66, 0
5, 124260, Note_on_c, 4, 63, 96
5, 124305, Note_on_c, 4, 63, 0
5, 124320, Note_on_c, 4, 59, 96
5, 124560, Note_on_c, 4, 59, 0
5, 124680, Note_on_c, 4, 78, 96
5, 124725, Note_on_c, 4, 78, 0
5, 124740, Note_on_c, 4, 80, 96
5, 124763, Note_on_c, 4, 80, 0
5, 124770, Note_on_c, 4, 81, 96
5, 124793, Note_on_c, 4, 81, 0
5, 124800, Note_on_c, 4, 80, 96
5, 124812, Note_on_c, 4, 80, 0
5, 124815, Note_on_c, 4, 81, 96
5, 124827, Note_on_c, 4, 81, 0
5, 124830, Note_on_c, 4, 80, 96
5, 124842, Note_on_c, 4, 80, 0
5, 124845, Note_on_c, 4, 81, 96
5, 124857, Note_on_c, 4, 81, 0
5, 124860, Note_on_c, 4, 80, 96
5, 124872, Note_on_c, 4, 80, 0
5, 124875, Note_on_c, 4, 81, 96
5, 124887, Note_on_c, 4, 81, 0
5, 124890, Note_on_c, 4, 80, 96
5, 124902, Note_on_c, 4, 80, 0
5, 124905, Note_on_c, 4, 81, 96
5, 124917, Note_on_c, 4, 81, 0
5, 124920, Note_on_c, 4, 80, 96
5, 124968, Note_on_c, 4, 80, 0
5, 124980, Note_on_c, 4, 78, 96
5, 125004, Note_on_c, 4, 78, 0
5, 125010, Note_on_c, 4, 76, 96
5, 125034, Note_on_c, 4, 76, 0
5, 125040, Note_on_c, 4, 80, 96
5, 125088, Note_on_c, 4, 80, 0
5, 125100, Note_on_c, 4, 78, 96
5, 125148, Note_on_c, 4, 78, 0
5, 125160, Note_on_c, 4, 76, 96
5, 125208, Note_on_c, 4, 76, 0
5, 125220, Note_on_c, 4, 75, 96
5, 125268, Note_on_c, 4, 75, 0
5, 125280, Note_on_c, 4, 76, 96
5, 125364, Note_on_c, 4, 76, 0
5, 125400, Note_on_c, 4, 71, 96
5, 125448, Note_on_c, 4, 71, 0
5, 125460, Note_on_c, 4, 71, 96
5, 125508, Note_on_c, 4, 71, 0
5, 125520, Note_on_c, 4, 73, 96
5, 125568, Note_on_c, 4, 73, 0
5, 125580, Note_on_c, 4, 73, 96
5, 125628, Note_on_c, 4, 73, 0
5, 125640, Note_on_c, 4, 75, 96
5, 125688, Note_on_c, 4, 75, 0
5, 125700, Note_on_c, 4, 75, 96
5, 125748, Note_on_c, 4, 75, 0
5, 125760, Note_on_c, 4, 76, 96
5, 125805, Note_on_c, 4, 76, 0
5, 125820, Note_on_c, 4, 76, 96
5, 125865, Note_on_c, 4, 76, 0
5, 125880, Note_on_c, 4, 71, 96
5, 125925, Note_on_c, 4, 71, 0
5, 125940, Note_on_c, 4, 71, 96
5, 125985, Note_on_c, 4, 71, 0
5, 126000, Note_on_c, 4, 73, 96
5, 126045, Note_on_c, 4, 73, 0
5, 126060, Note_on_c, 4, 73, 96
5, 126105, Note_on_c, 4, 73, 0
5, 126120, Note_on_c, 4, 75, 96
5, 126165, Note_on_c, 4, 75, 0
5, 126180, Note_on_c, 4, 75, 96
5, 126225, Note_on_c, 4, 75, 0
5, 126240, Note_on_c, 4, 76, 96
5, 126285, Note_on_c, 4, 76, 0
5, 126300, Note_on_c, 4, 78, 96
5, 126345, Note_on_c, 4, 78, 0
5, 126360, Note_on_c, 4, 80, 96
5, 126405, Note_on_c, 4, 80, 0
5, 126420, Note_on_c, 4, 76, 96
5, 126465, Note_on_c, 4, 76, 0
5, 126480, Note_on_c, 4, 81, 96
5, 126525, Note_on_c, 4, 81, 0
5, 126540, Note_on_c, 4, 78, 96
5, 126585, Note_on_c, 4, 78, 0
5, 126600, Note_on_c, 4, 83, 96
5, 126690, Note_on_c, 4, 83, 0
5, 126720, Note_on_c, 4, 80, 96
5, 126732, Note_on_c, 4, 80, 0
5, 126735, Note_on_c, 4, 81, 96
5, 126747, Note_on_c, 4, 81, 0
5, 126750, Note_on_c, 4, 80, 96
5, 126762, Note_on_c, 4, 80, 0
5, 126765, Note_on_c, 4, 81, 96
5, 126777, Note_on_c, 4, 81, 0
5, 126780, Note_on_c, 4, 80, 96
5, 126828, Note_on_c, 4, 80, 0
5, 126840, Note_on_c, 4, 78, 96
5, 126888, Note_on_c, 4, 78, 0
5, 126900, Note_on_c, 4, 76, 96
5, 126948, Note_on_c, 4, 76, 0
5, 126960, Note_on_c, 4, 80, 96
5, 127008, Note_on_c, 4, 80, 0
5, 127020, Note_on_c, 4, 78, 96
5, 127068, Note_on_c, 4, 78, 0
5, 127080, Note_on_c, 4, 76, 96
5, 127128, Note_on_c, 4, 76, 0
5, 127140, Note_on_c, 4, 75, 96
5, 127188, Note_on_c, 4, 75, 0
5, 127200, Note_on_c, 4, 76, 96
5, 127440, Note_on_c, 4, 76, 0
5, 127560, Note_on_c, 4, 68, 96
5, 127608, Note_on_c, 4, 68, 0
5, 127620, Note_on_c, 4, 69, 96
5, 127668, Note_on_c, 4, 69, 0
5, 127680, Note_on_c, 4, 71, 96
5, 127770, Note_on_c, 4, 71, 0
5, 127800, Note_on_c, 4, 68, 96
5, 127845, Note_on_c, 4, 68, 0
5, 127860, Note_on_c, 4, 69, 96
5, 127905, Note_on_c, 4, 69, 0
5, 127920, Note_on_c, 4, 71, 96
5, 128010, Note_on_c, 4, 71, 0
5, 128040, Note_on_c, 4, 76, 96
5, 128130, Note_on_c, 4, 76, 0
5, 128160, Note_on_c, 4, 71, 96
5, 128250, Note_on_c, 4, 71, 0
5, 128280, Note_on_c, 4, 71, 96
5, 128325, Note_on_c, 4, 71, 0
5, 128340, Note_on_c, 4, 69, 96
5, 128385, Note_on_c, 4, 69, 0
5, 128400, Note_on_c, 4, 68, 96
5, 128490, Note_on_c, 4, 68, 0
5, 128520, Note_on_c, 4, 66, 96
5, 128565, Note_on_c, 4, 66, 0
5, 128580, Note_on_c, 4, 64, 96
5, 128625, Note_on_c, 4, 64, 0
5, 130560, Note_on_c, 4, 64, 96
5, 130680, Note_on_c, 4, 64, 0
5, 130800, Note_on_c, 4, 68, 96
5, 130920, Note_on_c, 4, 68, 0
5, 131040, Note_on_c, 4, 71, 96
5, 131280, Note_on_c, 4, 71, 0
5, 131400, Note_on_c, 4, 68, 96
5, 131445, Note_on_c, 4, 68, 0
5, 131460, Note_on_c, 4, 69, 96
5, 131505, Note_on_c, 4, 69, 0
5, 131520, Note_on_c, 4, 71, 96
5, 131610, Note_on_c, 4, 71, 0
5, 131640, Note_on_c, 4, 68, 96
5, 131685, Note_on_c, 4, 68, 0
5, 131700, Note_on_c, 4, 69, 96
5, 131745, Note_on_c, 4, 69, 0
5, 131760, Note_on_c, 4, 71, 96
5, 131850, Note_on_c, 4, 71, 0
5, 131880, Note_on_c, 4, 76, 96
5, 131970, Note_on_c, 4, 76, 0
5, 132000, Note_on_c, 4, 71, 96
5, 132090, Note_on_c, 4, 71, 0
5, 132120, Note_on_c, 4, 71, 96
5, 132165, Note_on_c, 4, 71, 0
5, 132180, Note_on_c, 4, 69, 96
5, 132225, Note_on_c, 4, 69, 0
5, 132240, Note_on_c, 4, 68, 96
5, 132330, Note_on_c, 4, 68, 0
5, 132360, Note_on_c, 4, 66, 96
5, 132405, Note_on_c, 4, 66, 0
5, 132420, Note_on_c, 4, 64, 96
5, 132465, Note_on_c, 4, 64, 0
5, 132480, Note_on_c, 4, 69, 96
5, 132525, Note_on_c, 4, 69, 0
5, 132540, Note_on_c, 4, 71, 96
5, 132585, Note_on_c, 4, 71, 0
5, 132600, Note_on_c, 4, 73, 96
5, 132645, Note_on_c, 4, 73, 0
5, 132660, Note_on_c, 4, 69, 96
5, 132705, Note_on_c, 4, 69, 0
5, 132720, Note_on_c, 4, 68, 96
5, 132765, Note_on_c, 4, 68, 0
5, 132780, Note_on_c, 4, 69, 96
5, 132825, Note_on_c, 4, 69, 0
5, 132840, Note_on_c, 4, 71, 96
5, 132885, Note_on_c, 4, 71, 0
5, 132900, Note_on_c, 4, 68, 96
5, 132945, Note_on_c, 4, 68, 0
5, 132960, Note_on_c, 4, 66, 96
5, 133140, Note_on_c, 4, 66, 0
5, 133440, Note_on_c, 4, 63, 96
5, 133560, Note_on_c, 4, 63, 0
5, 133680, Note_on_c, 4, 66, 96
5, 133800, Note_on_c, 4, 66, 0
5, 133920, Note_on_c, 4, 71, 96
5, 134160, Note_on_c, 4, 71, 0
5, 134400, Note_on_c, 4, 66, 80
5, 134520, Note_on_c, 4, 66, 0
5, 134640, Note_on_c, 4, 71, 80
5, 134760, Note_on_c, 4, 71, 0
5, 134880, Note_on_c, 4, 75, 80
5, 135120, Note_on_c, 4, 75, 0
5, 135720, Note_on_c, 4, 75, 96
5, 135765, Note_on_c, 4, 75, 0
5, 135780, Note_on_c, 4, 76, 96
5, 135825, Note_on_c, 4, 76, 0
5, 135840, Note_on_c, 4, 78, 96
5, 135930, Note_on_c, 4, 78, 0
5, 135960, Note_on_c, 4, 75, 96
5, 136005, Note_on_c, 4, 75, 0
5, 136020, Note_on_c, 4, 76, 96
5, 136065, Note_on_c, 4, 76, 0
5, 136080, Note_on_c, 4, 78, 96
5, 136170, Note_on_c, 4, 78, 0
5, 136200, Note_on_c, 4, 83, 96
5, 136290, Note_on_c, 4, 83, 0
5, 136320, Note_on_c, 4, 78, 96
5, 136455, Note_on_c, 4, 78, 0
5, 136500, Note_on_c, 4, 76, 96
5, 136545, Note_on_c, 4, 76, 0
5, 136560, Note_on_c, 4, 75, 96
5, 136695, Note_on_c, 4, 75, 0
5, 136740, Note_on_c, 4, 73, 96
5, 136785, Note_on_c, 4, 73, 0
5, 136800, Note_on_c, 4, 66, 96
5, 137760, Note_on_c, 4, 66, 0
5, 138840, Note_on_c, 4, 66, 96
5, 138930, Note_on_c, 4, 66, 0
5, 139080, Note_on_c, 4, 66, 96
5, 139170, Note_on_c, 4, 66, 0
5, 139320, Note_on_c, 4, 66, 96
5, 139410, Note_on_c, 4, 66, 0
5, 139560, Note_on_c, 4, 65, 96
5, 139650, Note_on_c, 4, 65, 0
5, 139680, Note_on_c, 4, 66, 96
5, 139860, Note_on_c, 4, 66, 0
5, 140160, Note_on_c, 4, 78, 96
5, 140205, Note_on_c, 4, 78, 0
5, 140220, Note_on_c, 4, 78, 96
5, 140265, Note_on_c, 4, 78, 0
5, 140280, Note_on_c, 4, 78, 96
5, 140325, Note_on_c, 4, 78, 0
5, 140340, Note_on_c, 4, 78, 96
5, 140385, Note_on_c, 4, 78, 0
5, 140400, Note_on_c, 4, 78, 96
5, 140445, Note_on_c, 4, 78, 0
5, 140460, Note_on_c, 4, 78, 96
5, 140505, Note_on_c, 4, 78, 0
5, 140520, Note_on_c, 4, 78, 96
5, 140565, Note_on_c, 4, 78, 0
5, 140580, Note_on_c, 4, 78, 96
5, 140625, Note_on_c, 4, 78, 0
5, 140640, Note_on_c, 4, 78, 96
5, 140760, Note_on_c, 4, 78, 0
5, 141120, Note_on_c, 4, 76, 96
5, 141165, Note_on_c, 4, 76, 0
5, 141180, Note_on_c, 4, 76, 96
5, 141225, Note_on_c, 4, 76, 0
5, 141240, Note_on_c, 4, 76, 96
5, 141285, Note_on_c, 4, 76, 0
5, 141300, Note_on_c, 4, 76, 96
5, 141345, Note_on_c, 4, 76, 0
5, 141360, Note_on_c, 4, 76, 96
5, 141405, Note_on_c, 4, 76, 0
5, 141420, Note_on_c, 4, 76, 96
5, 141465, Note_on_c, 4, 76, 0
5, 141480, Note_on_c, 4, 76, 96
5, 141525, Note_on_c, 4, 76, 0
5, 141540, Note_on_c, 4, 76, 96
5, 141585, Note_on_c, 4, 76, 0
5, 141600, Note_on_c, 4, 76, 96
5, 141720, Note_on_c, 4, 76, 0
5, 142080, Note_on_c, 4, 75, 96
5, 142125, Note_on_c, 4, 75, 0
5, 142140, Note_on_c, 4, 75, 96
5, 142185, Note_on_c, 4, 75, 0
5, 142200, Note_on_c, 4, 75, 96
5, 142245, Note_on_c, 4, 75, 0
5, 142260, Note_on_c, 4, 75, 96
5, 142305, Note_on_c, 4, 75, 0
5, 142320, Note_on_c, 4, 75, 96
5, 142365, Note_on_c, 4, 75, 0
5, 142380, Note_on_c, 4, 75, 96
5, 142425, Note_on_c, 4, 75, 0
5, 142440, Note_on_c, 4, 75, 96
5, 142485, Note_on_c, 4, 75, 0
5, 142500, Note_on_c, 4, 75, 96
5, 142545, Note_on_c, 4, 75, 0
5, 142560, Note_on_c, 4, 76, 96
5, 142605, Note_on_c, 4, 76, 0
5, 142620, Note_on_c, 4, 78, 96
5, 142665, Note_on_c, 4, 78, 0
5, 142680, Note_on_c, 4, 80, 96
5, 142725, Note_on_c, 4, 80, 0
5, 142740, Note_on_c, 4, 76, 96
5, 142785, Note_on_c, 4, 76, 0
5, 142800, Note_on_c, 4, 75, 96
5, 142845, Note_on_c, 4, 75, 0
5, 142860, Note_on_c, 4, 76, 96
5, 142905, Note_on_c, 4, 76, 0
5, 142920, Note_on_c, 4, 78, 96
5, 142965, Note_on_c, 4, 78, 0
5, 142980, Note_on_c, 4, 75, 96
5, 143025, Note_on_c, 4, 75, 0
5, 143040, Note_on_c, 4, 73, 96
5, 143085, Note_on_c, 4, 73, 0
5, 143100, Note_on_c, 4, 75, 96
5, 143145, Note_on_c, 4, 75, 0
5, 143160, Note_on_c, 4, 76, 96
5, 143205, Note_on_c, 4, 76, 0
5, 143220, Note_on_c, 4, 73, 96
5, 143265, Note_on_c, 4, 73, 0
5, 143280, Note_on_c, 4, 71, 96
5, 143325, Note_on_c, 4, 71, 0
5, 143340, Note_on_c, 4, 73, 96
5, 143385, Note_on_c, 4, 73, 0
5, 143400, Note_on_c, 4, 75, 96
5, 143445, Note_on_c, 4, 75, 0
5, 143460, Note_on_c, 4, 71, 96
5, 143505, Note_on_c, 4, 71, 0
5, 143520, Note_on_c, 4, 70, 96
5, 143565, Note_on_c, 4, 70, 0
5, 143580, Note_on_c, 4, 71, 96
5, 143625, Note_on_c, 4, 71, 0
5, 143640, Note_on_c, 4, 73, 96
5, 143685, Note_on_c, 4, 73, 0
5, 143700, Note_on_c, 4, 70, 96
5, 143745, Note_on_c, 4, 70, 0
5, 143760, Note_on_c, 4, 64, 96
5, 143805, Note_on_c, 4, 64, 0
5, 143820, Note_on_c, 4, 66, 96
5, 143865, Note_on_c, 4, 66, 0
5, 143880, Note_on_c, 4, 68, 96
5, 143925, Note_on_c, 4, 68, 0
5, 143940, Note_on_c, 4, 64, 96
5, 143985, Note_on_c, 4, 64, 0
5, 144000, Note_on_c, 4, 61, 96
5, 144045, Note_on_c, 4, 61, 0
5, 144060, Note_on_c, 4, 63, 96
5, 144105, Note_on_c, 4, 63, 0
5, 144120, Note_on_c, 4, 64, 96
5, 144165, Note_on_c, 4, 64, 0
5, 144180, Note_on_c, 4, 61, 96
5, 144225, Note_on_c, 4, 61, 0
5, 144240, Note_on_c, 4, 58, 96
5, 144285, Note_on_c, 4, 58, 0
5, 144300, Note_on_c, 4, 59, 96
5, 144345, Note_on_c, 4, 59, 0
5, 144360, Note_on_c, 4, 61, 96
5, 144405, Note_on_c, 4, 61, 0
5, 144420, Note_on_c, 4, 63, 96
5, 144465, Note_on_c, 4, 63, 0
5, 144480, Note_on_c, 4, 64, 96
5, 144525, Note_on_c, 4, 64, 0
5, 144540, Note_on_c, 4, 66, 96
5, 144585, Note_on_c, 4, 66, 0
5, 144600, Note_on_c, 4, 68, 96
5, 144645, Note_on_c, 4, 68, 0
5, 144660, Note_on_c, 4, 70, 96
5, 144705, Note_on_c, 4, 70, 0
5, 144720, Note_on_c, 4, 71, 96
5, 144765, Note_on_c, 4, 71, 0
5, 144780, Note_on_c, 4, 73, 96
5, 144825, Note_on_c, 4, 73, 0
5, 144840, Note_on_c, 4, 75, 96
5, 144885, Note_on_c, 4, 75, 0
5, 144900, Note_on_c, 4, 76, 96
5, 144923, Note_on_c, 4, 76, 0
5, 144930, Note_on_c, 4, 78, 96
5, 144953, Note_on_c, 4, 78, 0
5, 144960, Note_on_c, 4, 75, 96
5, 145050, Note_on_c, 4, 75, 0
5, 145080, Note_on_c, 4, 73, 96
5, 145125, Note_on_c, 4, 73, 0
5, 145140, Note_on_c, 4, 71, 96
5, 145185, Note_on_c, 4, 71, 0
5, 145200, Note_on_c, 4, 73, 96
5, 145290, Note_on_c, 4, 73, 0
5, 145320, Note_on_c, 4, 71, 96
5, 145365, Note_on_c, 4, 71, 0
5, 145380, Note_on_c, 4, 70, 96
5, 145425, Note_on_c, 4, 70, 0
5, 145440, Note_on_c, 4, 71, 96
5, 145620, Note_on_c, 4, 71, 0
5, 146040, Note_on_c, 4, 66, 96
5, 146085, Note_on_c, 4, 66, 0
5, 146100, Note_on_c, 4, 66, 96
5, 146145, Note_on_c, 4, 66, 0
5, 146160, Note_on_c, 4, 68, 96
5, 146205, Note_on_c, 4, 68, 0
5, 146220, Note_on_c, 4, 68, 96
5, 146265, Note_on_c, 4, 68, 0
5, 146280, Note_on_c, 4, 70, 96
5, 146325, Note_on_c, 4, 70, 0
5, 146340, Note_on_c, 4, 70, 96
5, 146385, Note_on_c, 4, 70, 0
5, 146400, Note_on_c, 4, 71, 96
5, 146580, Note_on_c, 4, 71, 0
5, 147480, Note_on_c, 4, 66, 96
5, 147525, Note_on_c, 4, 66, 0
5, 147540, Note_on_c, 4, 66, 96
5, 147585, Note_on_c, 4, 66, 0
5, 147600, Note_on_c, 4, 68, 96
5, 147645, Note_on_c, 4, 68, 0
5, 147660, Note_on_c, 4, 68, 96
5, 147705, Note_on_c, 4, 68, 0
5, 147720, Note_on_c, 4, 70, 96
5, 147765, Note_on_c, 4, 70, 0
5, 147780, Note_on_c, 4, 70, 96
5, 147825, Note_on_c, 4, 70, 0
5, 147840, Note_on_c, 4, 71, 96
5, 147885, Note_on_c, 4, 71, 0
5, 147900, Note_on_c, 4, 71, 96
5, 147945, Note_on_c, 4, 71, 0
5, 147960, Note_on_c, 4, 66, 96
5, 148005, Note_on_c, 4, 66, 0
5, 148020, Note_on_c, 4, 66, 96
5, 148065, Note_on_c, 4, 66, 0
5, 148080, Note_on_c, 4, 68, 96
5, 148125, Note_on_c, 4, 68, 0
5, 148140, Note_on_c, 4, 68, 96
5, 148185, Note_on_c, 4, 68, 0
5, 148200, Note_on_c, 4, 70, 96
5, 148245, Note_on_c, 4, 70, 0
5, 148260, Note_on_c, 4, 70, 96
5, 148305, Note_on_c, 4, 70, 0
5, 148320, Note_on_c, 4, 71, 96
5, 148365, Note_on_c, 4, 71, 0
5, 148380, Note_on_c, 4, 73, 96
5, 148425, Note_on_c, 4, 73, 0
5, 148440, Note_on_c, 4, 75, 96
5, 148485, Note_on_c, 4, 75, 0
5, 148500, Note_on_c, 4, 71, 96
5, 148545, Note_on_c, 4, 71, 0
5, 148560, Note_on_c, 4, 76, 96
5, 148605, Note_on_c, 4, 76, 0
5, 148620, Note_on_c, 4, 73, 96
5, 148665, Note_on_c, 4, 73, 0
5, 148680, Note_on_c, 4, 76, 96
5, 148770, Note_on_c, 4, 76, 0
5, 148800, Note_on_c, 4, 76, 96
5, 148845, Note_on_c, 4, 76, 0
5, 148860, Note_on_c, 4, 75, 96
5, 148905, Note_on_c, 4, 75, 0
5, 148920, Note_on_c, 4, 73, 96
5, 148965, Note_on_c, 4, 73, 0
5, 148980, Note_on_c, 4, 71, 96
5, 149025, Note_on_c, 4, 71, 0
5, 149040, Note_on_c, 4, 75, 96
5, 149085, Note_on_c, 4, 75, 0
5, 149100, Note_on_c, 4, 73, 96
5, 149145, Note_on_c, 4, 73, 0
5, 149160, Note_on_c, 4, 71, 96
5, 149205, Note_on_c, 4, 71, 0
5, 149220, Note_on_c, 4, 70, 96
5, 149265, Note_on_c, 4, 70, 0
5, 149280, Note_on_c, 4, 71, 96
5, 149520, Note_on_c, 4, 71, 0
5, 149760, Note_on_c, 4, 64, 96
5, 149880, Note_on_c, 4, 64, 0
5, 150000, Note_on_c, 4, 68, 96
5, 150120, Note_on_c, 4, 68, 0
5, 150240, Note_on_c, 4, 71, 96
5, 150480, Note_on_c, 4, 71, 0
5, 150720, Note_on_c, 4, 68, 96
5, 150840, Note_on_c, 4, 68, 0
5, 150960, Note_on_c, 4, 71, 96
5, 151080, Note_on_c, 4, 71, 0
5, 151200, Note_on_c, 4, 76, 96
5, 151440, Note_on_c, 4, 76, 0
5, 151680, Note_on_c, 4, 71, 80
5, 151800, Note_on_c, 4, 71, 0
5, 151920, Note_on_c, 4, 76, 80
5, 152040, Note_on_c, 4, 76, 0
5, 152160, Note_on_c, 4, 80, 80
5, 152400, Note_on_c, 4, 80, 0
5, 153000, Note_on_c, 4, 68, 96
5, 153045, Note_on_c, 4, 68, 0
5, 153060, Note_on_c, 4, 69, 96
5, 153105, Note_on_c, 4, 69, 0
5, 153120, Note_on_c, 4, 71, 96
5, 153192, Note_on_c, 4, 71, 0
5, 153240, Note_on_c, 4, 68, 96
5, 153285, Note_on_c, 4, 68, 0
5, 153300, Note_on_c, 4, 69, 96
5, 153345, Note_on_c, 4, 69, 0
5, 153360, Note_on_c, 4, 71, 96
5, 153450, Note_on_c, 4, 71, 0
5, 153480, Note_on_c, 4, 76, 96
5, 153570, Note_on_c, 4, 76, 0
5, 153600, Note_on_c, 4, 71, 96
5, 153690, Note_on_c, 4, 71, 0
5, 153720, Note_on_c, 4, 71, 96
5, 153765, Note_on_c, 4, 71, 0
5, 153780, Note_on_c, 4, 69, 96
5, 153825, Note_on_c, 4, 69, 0
5, 153840, Note_on_c, 4, 68, 96
5, 153930, Note_on_c, 4, 68, 0
5, 153960, Note_on_c, 4, 66, 96
5, 154005, Note_on_c, 4, 66, 0
5, 154020, Note_on_c, 4, 64, 96
5, 154065, Note_on_c, 4, 64, 0
5, 154080, Note_on_c, 4, 59, 96
5, 155040, Note_on_c, 4, 59, 0
5, 156120, Note_on_c, 4, 71, 96
5, 156210, Note_on_c, 4, 71, 0
5, 156360, Note_on_c, 4, 71, 96
5, 156450, Note_on_c, 4, 71, 0
5, 156600, Note_on_c, 4, 71, 96
5, 156690, Note_on_c, 4, 71, 0
5, 156840, Note_on_c, 4, 70, 96
5, 156930, Note_on_c, 4, 70, 0
5, 156960, Note_on_c, 4, 71, 96
5, 157200, Note_on_c, 4, 71, 0
5, 157440, Note_on_c, 4, 83, 96
5, 157485, Note_on_c, 4, 83, 0
5, 157500, Note_on_c, 4, 83, 96
5, 157545, Note_on_c, 4, 83, 0
5, 157560, Note_on_c, 4, 83, 96
5, 157605, Note_on_c, 4, 83, 0
5, 157620, Note_on_c, 4, 83, 96
5, 157665, Note_on_c, 4, 83, 0
5, 157680, Note_on_c, 4, 83, 96
5, 157725, Note_on_c, 4, 83, 0
5, 157740, Note_on_c, 4, 83, 96
5, 157785, Note_on_c, 4, 83, 0
5, 157800, Note_on_c, 4, 83, 96
5, 157845, Note_on_c, 4, 83, 0
5, 157860, Note_on_c, 4, 83, 96
5, 157905, Note_on_c, 4, 83, 0
5, 157920, Note_on_c, 4, 83, 96
5, 158040, Note_on_c, 4, 83, 0
5, 158400, Note_on_c, 4, 81, 96
5, 158445, Note_on_c, 4, 81, 0
5, 158460, Note_on_c, 4, 81, 96
5, 158505, Note_on_c, 4, 81, 0
5, 158520, Note_on_c, 4, 81, 96
5, 158565, Note_on_c, 4, 81, 0
5, 158580, Note_on_c, 4, 81, 96
5, 158625, Note_on_c, 4, 81, 0
5, 158640, Note_on_c, 4, 81, 96
5, 158685, Note_on_c, 4, 81, 0
5, 158700, Note_on_c, 4, 81, 96
5, 158745, Note_on_c, 4, 81, 0
5, 158760, Note_on_c, 4, 81, 96
5, 158805, Note_on_c, 4, 81, 0
5, 158820, Note_on_c, 4, 81, 96
5, 158865, Note_on_c, 4, 81, 0
5, 158880, Note_on_c, 4, 81, 96
5, 159000, Note_on_c, 4, 81, 0
5, 159360, Note_on_c, 4, 80, 96
5, 159405, Note_on_c, 4, 80, 0
5, 159420, Note_on_c, 4, 80, 96
5, 159465, Note_on_c, 4, 80, 0
5, 159480, Note_on_c, 4, 80, 96
5, 159525, Note_on_c, 4, 80, 0
5, 159540, Note_on_c, 4, 80, 96
5, 159585, Note_on_c, 4, 80, 0
5, 159600, Note_on_c, 4, 80, 96
5, 159645, Note_on_c, 4, 80, 0
5, 159660, Note_on_c, 4, 80, 96
5, 159705, Note_on_c, 4, 80, 0
5, 159720, Note_on_c, 4, 80, 96
5, 159765, Note_on_c, 4, 80, 0
5, 159780, Note_on_c, 4, 80, 96
5, 159825, Note_on_c, 4, 80, 0
5, 159840, Note_on_c, 4, 81, 96
5, 159885, Note_on_c, 4, 81, 0
5, 159900, Note_on_c, 4, 83, 96
5, 159945, Note_on_c, 4, 83, 0
5, 159960, Note_on_c, 4, 85, 96
5, 160005, Note_on_c, 4, 85, 0
5, 160020, Note_on_c, 4, 81, 96
5, 160065, Note_on_c, 4, 81, 0
5, 160080, Note_on_c, 4, 80, 96
5, 160125, Note_on_c, 4, 80, 0
5, 160140, Note_on_c, 4, 81, 96
5, 160185, Note_on_c, 4, 81, 0
5, 160200, Note_on_c, 4, 83, 96
5, 160245, Note_on_c, 4, 83, 0
5, 160260, Note_on_c, 4, 80, 96
5, 160305, Note_on_c, 4, 80, 0
5, 160320, Note_on_c, 4, 78, 96
5, 160365, Note_on_c, 4, 78, 0
5, 160380, Note_on_c, 4, 80, 96
5, 160425, Note_on_c, 4, 80, 0
5, 160440, Note_on_c, 4, 81, 96
5, 160485, Note_on_c, 4, 81, 0
5, 160500, Note_on_c, 4, 78, 96
5, 160545, Note_on_c, 4, 78, 0
5, 160560, Note_on_c, 4, 76, 96
5, 160605, Note_on_c, 4, 76, 0
5, 160620, Note_on_c, 4, 78, 96
5, 160665, Note_on_c, 4, 78, 0
5, 160680, Note_on_c, 4, 80, 96
5, 160725, Note_on_c, 4, 80, 0
5, 160740, Note_on_c, 4, 76, 96
5, 160785, Note_on_c, 4, 76, 0
5, 160800, Note_on_c, 4, 75, 96
5, 160845, Note_on_c, 4, 75, 0
5, 160860, Note_on_c, 4, 76, 96
5, 160905, Note_on_c, 4, 76, 0
5, 160920, Note_on_c, 4, 78, 96
5, 160965, Note_on_c, 4, 78, 0
5, 160980, Note_on_c, 4, 75, 96
5, 161025, Note_on_c, 4, 75, 0
5, 161040, Note_on_c, 4, 69, 96
5, 161085, Note_on_c, 4, 69, 0
5, 161100, Note_on_c, 4, 71, 96
5, 161145, Note_on_c, 4, 71, 0
5, 161160, Note_on_c, 4, 73, 96
5, 161205, Note_on_c, 4, 73, 0
5, 161220, Note_on_c, 4, 69, 96
5, 161265, Note_on_c, 4, 69, 0
5, 161280, Note_on_c, 4, 66, 96
5, 161325, Note_on_c, 4, 66, 0
5, 161340, Note_on_c, 4, 68, 96
5, 161385, Note_on_c, 4, 68, 0
5, 161400, Note_on_c, 4, 69, 96
5, 161445, Note_on_c, 4, 69, 0
5, 161460, Note_on_c, 4, 66, 96
5, 161505, Note_on_c, 4, 66, 0
5, 161520, Note_on_c, 4, 63, 96
5, 161565, Note_on_c, 4, 63, 0
5, 161580, Note_on_c, 4, 64, 96
5, 161625, Note_on_c, 4, 64, 0
5, 161640, Note_on_c, 4, 66, 96
5, 161685, Note_on_c, 4, 66, 0
5, 161700, Note_on_c, 4, 63, 96
5, 161745, Note_on_c, 4, 63, 0
5, 161760, Note_on_c, 4, 59, 96
5, 161940, Note_on_c, 4, 59, 0
5, 162120, Note_on_c, 4, 78, 96
5, 162165, Note_on_c, 4, 78, 0
5, 162180, Note_on_c, 4, 80, 96
5, 162203, Note_on_c, 4, 80, 0
5, 162210, Note_on_c, 4, 81, 96
5, 162233, Note_on_c, 4, 81, 0
5, 162240, Note_on_c, 4, 80, 96
5, 162330, Note_on_c, 4, 80, 0
5, 162360, Note_on_c, 4, 78, 96
5, 162405, Note_on_c, 4, 78, 0
5, 162420, Note_on_c, 4, 76, 96
5, 162465, Note_on_c, 4, 76, 0
5, 162480, Note_on_c, 4, 78, 96
5, 162570, Note_on_c, 4, 78, 0
5, 162600, Note_on_c, 4, 76, 96
5, 162645, Note_on_c, 4, 76, 0
5, 162660, Note_on_c, 4, 75, 96
5, 162705, Note_on_c, 4, 75, 0
5, 162720, Note_on_c, 4, 76, 96
5, 162900, Note_on_c, 4, 76, 0
5, 163320, Note_on_c, 4, 71, 96
5, 163365, Note_on_c, 4, 71, 0
5, 163380, Note_on_c, 4, 71, 96
5, 163425, Note_on_c, 4, 71, 0
5, 163440, Note_on_c, 4, 73, 96
5, 163485, Note_on_c, 4, 73, 0
5, 163500, Note_on_c, 4, 73, 96
5, 163545, Note_on_c, 4, 73, 0
5, 163560, Note_on_c, 4, 75, 96
5, 163605, Note_on_c, 4, 75, 0
5, 163620, Note_on_c, 4, 75, 96
5, 163665, Note_on_c, 4, 75, 0
5, 163680, Note_on_c, 4, 76, 96
5, 163860, Note_on_c, 4, 76, 0
5, 164760, Note_on_c, 4, 71, 96
5, 164805, Note_on_c, 4, 71, 0
5, 164820, Note_on_c, 4, 71, 96
5, 164865, Note_on_c, 4, 71, 0
5, 164880, Note_on_c, 4, 73, 96
5, 164925, Note_on_c, 4, 73, 0
5, 164940, Note_on_c, 4, 73, 96
5, 164985, Note_on_c, 4, 73, 0
5, 165000, Note_on_c, 4, 75, 96
5, 165045, Note_on_c, 4, 75, 0
5, 165060, Note_on_c, 4, 75, 96
5, 165105, Note_on_c, 4, 75, 0
5, 165120, Note_on_c, 4, 76, 96
5, 165165, Note_on_c, 4, 76, 0
5, 165180, Note_on_c, 4, 76, 96
5, 165225, Note_on_c, 4, 76, 0
5, 165240, Note_on_c, 4, 71, 96
5, 165285, Note_on_c, 4, 71, 0
5, 165300, Note_on_c, 4, 71, 96
5, 165345, Note_on_c, 4, 71, 0
5, 165360, Note_on_c, 4, 73, 96
5, 165405, Note_on_c, 4, 73, 0
5, 165420, Note_on_c, 4, 73, 96
5, 165465, Note_on_c, 4, 73, 0
5, 165480, Note_on_c, 4, 75, 96
5, 165525, Note_on_c, 4, 75, 0
5, 165540, Note_on_c, 4, 75, 96
5, 165585, Note_on_c, 4, 75, 0
5, 165600, Note_on_c, 4, 76, 96
5, 165645, Note_on_c, 4, 76, 0
5, 165660, Note_on_c, 4, 78, 96
5, 165705, Note_on_c, 4, 78, 0
5, 165720, Note_on_c, 4, 80, 96
5, 165765, Note_on_c, 4, 80, 0
5, 165780, Note_on_c, 4, 76, 96
5, 165825, Note_on_c, 4, 76, 0
5, 165840, Note_on_c, 4, 81, 96
5, 165885, Note_on_c, 4, 81, 0
5, 165900, Note_on_c, 4, 78, 96
5, 165945, Note_on_c, 4, 78, 0
5, 165960, Note_on_c, 4, 83, 96
5, 166050, Note_on_c, 4, 83, 0
5, 166080, Note_on_c, 4, 81, 96
5, 166125, Note_on_c, 4, 81, 0
5, 166140, Note_on_c, 4, 80, 96
5, 166185, Note_on_c, 4, 80, 0
5, 166200, Note_on_c, 4, 78, 96
5, 166245, Note_on_c, 4, 78, 0
5, 166260, Note_on_c, 4, 76, 96
5, 166305, Note_on_c, 4, 76, 0
5, 166320, Note_on_c, 4, 80, 96
5, 166365, Note_on_c, 4, 80, 0
5, 166380, Note_on_c, 4, 78, 96
5, 166425, Note_on_c, 4, 78, 0
5, 166440, Note_on_c, 4, 76, 96
5, 166485, Note_on_c, 4, 76, 0
5, 166500, Note_on_c, 4, 75, 96
5, 166545, Note_on_c, 4, 75, 0
5, 166560, Note_on_c, 4, 76, 96
5, 166800, Note_on_c, 4, 76, 0
5, 166800, End_track
6, 0, Start_track
6, 0, MIDI_port, 0
6, 0, Title_t, "acc. poorer MIDI file from ?"
6, 0, Program_c, 5, 48
6, 0, Control_c, 5, 7, 96
6, 0, Control_c, 5, 10, 48
6, 0, Note_on_c, 5, 59, 96
6, 132, Note_on_c, 5, 59, 0
6, 240, Note_on_c, 5, 64, 96
6, 372, Note_on_c, 5, 64, 0
6, 480, Note_on_c, 5, 68, 96
6, 720, Note_on_c, 5, 68, 0
6, 840, Note_on_c, 5, 64, 96
6, 900, Note_on_c, 5, 64, 0
6, 900, Note_on_c, 5, 66, 96
6, 960, Note_on_c, 5, 66, 0
6, 960, Note_on_c, 5, 68, 112
6, 1056, Note_on_c, 5, 68, 0
6, 1080, Note_on_c, 5, 64, 96
6, 1140, Note_on_c, 5, 64, 0
6, 1140, Note_on_c, 5, 66, 96
6, 1200, Note_on_c, 5, 66, 0
6, 1200, Note_on_c, 5, 68, 112
6, 1266, Note_on_c, 5, 68, 0
6, 1320, Note_on_c, 5, 71, 112
6, 1386, Note_on_c, 5, 71, 0
6, 1440, Note_on_c, 5, 68, 112
6, 1536, Note_on_c, 5, 68, 0
6, 1560, Note_on_c, 5, 64, 96
6, 1680, Note_on_c, 5, 64, 0
6, 1680, Note_on_c, 5, 64, 112
6, 1746, Note_on_c, 5, 64, 0
6, 1800, Note_on_c, 5, 68, 96
6, 1920, Note_on_c, 5, 68, 0
6, 1920, Note_on_c, 5, 68, 96
6, 2040, Note_on_c, 5, 68, 0
6, 2040, Note_on_c, 5, 66, 96
6, 2280, Note_on_c, 5, 66, 0
6, 2280, Note_on_c, 5, 64, 96
6, 2400, Note_on_c, 5, 64, 0
6, 2400, Note_on_c, 5, 63, 96
6, 2532, Note_on_c, 5, 63, 0
6, 2880, Note_on_c, 5, 75, 96
6, 2928, Note_on_c, 5, 75, 0
6, 2940, Note_on_c, 5, 75, 96
6, 2988, Note_on_c, 5, 75, 0
6, 3000, Note_on_c, 5, 75, 96
6, 3048, Note_on_c, 5, 75, 0
6, 3060, Note_on_c, 5, 75, 96
6, 3108, Note_on_c, 5, 75, 0
6, 3120, Note_on_c, 5, 75, 96
6, 3168, Note_on_c, 5, 75, 0
6, 3180, Note_on_c, 5, 75, 96
6, 3228, Note_on_c, 5, 75, 0
6, 3240, Note_on_c, 5, 75, 96
6, 3288, Note_on_c, 5, 75, 0
6, 3300, Note_on_c, 5, 75, 96
6, 3348, Note_on_c, 5, 75, 0
6, 3360, Note_on_c, 5, 73, 96
6, 3504, Note_on_c, 5, 73, 0
6, 3840, Note_on_c, 5, 73, 96
6, 3888, Note_on_c, 5, 73, 0
6, 3900, Note_on_c, 5, 73, 96
6, 3948, Note_on_c, 5, 73, 0
6, 3960, Note_on_c, 5, 73, 96
6, 4008, Note_on_c, 5, 73, 0
6, 4020, Note_on_c, 5, 73, 96
6, 4068, Note_on_c, 5, 73, 0
6, 4080, Note_on_c, 5, 73, 96
6, 4128, Note_on_c, 5, 73, 0
6, 4140, Note_on_c, 5, 73, 96
6, 4188, Note_on_c, 5, 73, 0
6, 4200, Note_on_c, 5, 73, 96
6, 4248, Note_on_c, 5, 73, 0
6, 4260, Note_on_c, 5, 73, 96
6, 4308, Note_on_c, 5, 73, 0
6, 4320, Note_on_c, 5, 75, 96
6, 4464, Note_on_c, 5, 75, 0
6, 4800, Note_on_c, 5, 76, 96
6, 4848, Note_on_c, 5, 76, 0
6, 4860, Note_on_c, 5, 76, 96
6, 4908, Note_on_c, 5, 76, 0
6, 4920, Note_on_c, 5, 76, 96
6, 4968, Note_on_c, 5, 76, 0
6, 4980, Note_on_c, 5, 76, 96
6, 5028, Note_on_c, 5, 76, 0
6, 5040, Note_on_c, 5, 76, 96
6, 5100, Note_on_c, 5, 76, 0
6, 5100, Note_on_c, 5, 76, 96
6, 5160, Note_on_c, 5, 76, 0
6, 5160, Note_on_c, 5, 76, 96
6, 5220, Note_on_c, 5, 76, 0
6, 5220, Note_on_c, 5, 76, 96
6, 5280, Note_on_c, 5, 76, 0
6, 5280, Note_on_c, 5, 76, 96
6, 5472, Note_on_c, 5, 76, 0
6, 5520, Note_on_c, 5, 75, 96
6, 5712, Note_on_c, 5, 75, 0
6, 5760, Note_on_c, 5, 73, 96
6, 5880, Note_on_c, 5, 73, 0
6, 6000, Note_on_c, 5, 71, 96
6, 6120, Note_on_c, 5, 71, 0
6, 6240, Note_on_c, 5, 69, 96
6, 6360, Note_on_c, 5, 69, 0
6, 6360, Note_on_c, 5, 66, 96
6, 6480, Note_on_c, 5, 66, 0
6, 6480, Note_on_c, 5, 68, 96
6, 6600, Note_on_c, 5, 68, 0
6, 6720, Note_on_c, 5, 69, 96
6, 6840, Note_on_c, 5, 69, 0
6, 6840, Note_on_c, 5, 66, 96
6, 6900, Note_on_c, 5, 66, 0
6, 6900, Note_on_c, 5, 68, 96
6, 6960, Note_on_c, 5, 68, 0
6, 6960, Note_on_c, 5, 69, 96
6, 7080, Note_on_c, 5, 69, 0
6, 7080, Note_on_c, 5, 66, 96
6, 7140, Note_on_c, 5, 66, 0
6, 7140, Note_on_c, 5, 68, 96
6, 7200, Note_on_c, 5, 68, 0
6, 7200, Note_on_c, 5, 69, 96
6, 7440, Note_on_c, 5, 69, 0
6, 7560, Note_on_c, 5, 78, 96
6, 7680, Note_on_c, 5, 78, 0
6, 7680, Note_on_c, 5, 76, 96
6, 7800, Note_on_c, 5, 76, 0
6, 7800, Note_on_c, 5, 71, 96
6, 7920, Note_on_c, 5, 71, 0
6, 7920, Note_on_c, 5, 73, 96
6, 8040, Note_on_c, 5, 73, 0
6, 8040, Note_on_c, 5, 71, 96
6, 8160, Note_on_c, 5, 71, 0
6, 8160, Note_on_c, 5, 64, 96
6, 8244, Note_on_c, 5, 64, 0
6, 8280, Note_on_c, 5, 68, 96
6, 8520, Note_on_c, 5, 68, 0
6, 8520, Note_on_c, 5, 69, 96
6, 8640, Note_on_c, 5, 69, 0
6, 8640, Note_on_c, 5, 68, 96
6, 8736, Note_on_c, 5, 68, 0
6, 8760, Note_on_c, 5, 71, 96
6, 8952, Note_on_c, 5, 71, 0
6, 9000, Note_on_c, 5, 69, 96
6, 9096, Note_on_c, 5, 69, 0
6, 9120, Note_on_c, 5, 68, 96
6, 9216, Note_on_c, 5, 68, 0
6, 9240, Note_on_c, 5, 75, 96
6, 9288, Note_on_c, 5, 75, 0
6, 9300, Note_on_c, 5, 75, 96
6, 9348, Note_on_c, 5, 75, 0
6, 9360, Note_on_c, 5, 76, 96
6, 9408, Note_on_c, 5, 76, 0
6, 9420, Note_on_c, 5, 76, 96
6, 9468, Note_on_c, 5, 76, 0
6, 9480, Note_on_c, 5, 78, 96
6, 9528, Note_on_c, 5, 78, 0
6, 9540, Note_on_c, 5, 78, 96
6, 9588, Note_on_c, 5, 78, 0
6, 9600, Note_on_c, 5, 71, 96
6, 9696, Note_on_c, 5, 71, 0
6, 9720, Note_on_c, 5, 73, 96
6, 9816, Note_on_c, 5, 73, 0
6, 9840, Note_on_c, 5, 73, 96
6, 9936, Note_on_c, 5, 73, 0
6, 9960, Note_on_c, 5, 71, 96
6, 10056, Note_on_c, 5, 71, 0
6, 10080, Note_on_c, 5, 71, 96
6, 10320, Note_on_c, 5, 71, 0
6, 10440, Note_on_c, 5, 64, 96
6, 10488, Note_on_c, 5, 64, 0
6, 10500, Note_on_c, 5, 66, 96
6, 10548, Note_on_c, 5, 66, 0
6, 10560, Note_on_c, 5, 68, 96
6, 10656, Note_on_c, 5, 68, 0
6, 10680, Note_on_c, 5, 59, 96
6, 10776, Note_on_c, 5, 59, 0
6, 10800, Note_on_c, 5, 64, 96
6, 10896, Note_on_c, 5, 64, 0
6, 10920, Note_on_c, 5, 64, 96
6, 10968, Note_on_c, 5, 64, 0
6, 10980, Note_on_c, 5, 66, 96
6, 11028, Note_on_c, 5, 66, 0
6, 11040, Note_on_c, 5, 68, 96
6, 11136, Note_on_c, 5, 68, 0
6, 11160, Note_on_c, 5, 68, 96
6, 11208, Note_on_c, 5, 68, 0
6, 11220, Note_on_c, 5, 66, 96
6, 11268, Note_on_c, 5, 66, 0
6, 11280, Note_on_c, 5, 64, 96
6, 11376, Note_on_c, 5, 64, 0
6, 11400, Note_on_c, 5, 59, 96
6, 11496, Note_on_c, 5, 59, 0
6, 13440, Note_on_c, 5, 59, 96
6, 13560, Note_on_c, 5, 59, 0
6, 13680, Note_on_c, 5, 64, 96
6, 13800, Note_on_c, 5, 64, 0
6, 13920, Note_on_c, 5, 68, 96
6, 14160, Note_on_c, 5, 68, 0
6, 14280, Note_on_c, 5, 64, 96
6, 14340, Note_on_c, 5, 64, 0
6, 14340, Note_on_c, 5, 66, 96
6, 14400, Note_on_c, 5, 66, 0
6, 14400, Note_on_c, 5, 68, 112
6, 14460, Note_on_c, 5, 68, 0
6, 14520, Note_on_c, 5, 64, 96
6, 14568, Note_on_c, 5, 64, 0
6, 14580, Note_on_c, 5, 66, 96
6, 14628, Note_on_c, 5, 66, 0
6, 14640, Note_on_c, 5, 68, 112
6, 14736, Note_on_c, 5, 68, 0
6, 14760, Note_on_c, 5, 71, 96
6, 14820, Note_on_c, 5, 71, 0
6, 14880, Note_on_c, 5, 68, 112
6, 14940, Note_on_c, 5, 68, 0
6, 15000, Note_on_c, 5, 64, 96
6, 15096, Note_on_c, 5, 64, 0
6, 15120, Note_on_c, 5, 64, 96
6, 15216, Note_on_c, 5, 64, 0
6, 15240, Note_on_c, 5, 68, 96
6, 15336, Note_on_c, 5, 68, 0
6, 15360, Note_on_c, 5, 68, 96
6, 15456, Note_on_c, 5, 68, 0
6, 15480, Note_on_c, 5, 66, 96
6, 15672, Note_on_c, 5, 66, 0
6, 15720, Note_on_c, 5, 64, 96
6, 15816, Note_on_c, 5, 64, 0
6, 15840, Note_on_c, 5, 63, 96
6, 16032, Note_on_c, 5, 63, 0
6, 16320, Note_on_c, 5, 59, 96
6, 16440, Note_on_c, 5, 59, 0
6, 16560, Note_on_c, 5, 63, 96
6, 16680, Note_on_c, 5, 63, 0
6, 16800, Note_on_c, 5, 66, 96
6, 17040, Note_on_c, 5, 66, 0
6, 17280, Note_on_c, 5, 63, 80
6, 17400, Note_on_c, 5, 63, 0
6, 17520, Note_on_c, 5, 66, 80
6, 17640, Note_on_c, 5, 66, 0
6, 17760, Note_on_c, 5, 71, 80
6, 17952, Note_on_c, 5, 71, 0
6, 18600, Note_on_c, 5, 71, 96
6, 18648, Note_on_c, 5, 71, 0
6, 18660, Note_on_c, 5, 73, 96
6, 18708, Note_on_c, 5, 73, 0
6, 18720, Note_on_c, 5, 75, 112
6, 18792, Note_on_c, 5, 75, 0
6, 18840, Note_on_c, 5, 71, 96
6, 18888, Note_on_c, 5, 71, 0
6, 18900, Note_on_c, 5, 73, 96
6, 18948, Note_on_c, 5, 73, 0
6, 18960, Note_on_c, 5, 75, 112
6, 19032, Note_on_c, 5, 75, 0
6, 19080, Note_on_c, 5, 78, 96
6, 19152, Note_on_c, 5, 78, 0
6, 19200, Note_on_c, 5, 75, 112
6, 19296, Note_on_c, 5, 75, 0
6, 19320, Note_on_c, 5, 71, 96
6, 19416, Note_on_c, 5, 71, 0
6, 19440, Note_on_c, 5, 71, 96
6, 19536, Note_on_c, 5, 71, 0
6, 19560, Note_on_c, 5, 66, 96
6, 19656, Note_on_c, 5, 66, 0
6, 19680, Note_on_c, 5, 63, 96
6, 20640, Note_on_c, 5, 63, 0
6, 21720, Note_on_c, 5, 63, 96
6, 21804, Note_on_c, 5, 63, 0
6, 21960, Note_on_c, 5, 63, 96
6, 22044, Note_on_c, 5, 63, 0
6, 22200, Note_on_c, 5, 63, 96
6, 22320, Note_on_c, 5, 63, 0
6, 22440, Note_on_c, 5, 61, 96
6, 22560, Note_on_c, 5, 61, 0
6, 22560, Note_on_c, 5, 61, 96
6, 22680, Note_on_c, 5, 61, 0
6, 23040, Note_on_c, 5, 70, 96
6, 23088, Note_on_c, 5, 70, 0
6, 23100, Note_on_c, 5, 70, 96
6, 23148, Note_on_c, 5, 70, 0
6, 23160, Note_on_c, 5, 70, 96
6, 23208, Note_on_c, 5, 70, 0
6, 23220, Note_on_c, 5, 70, 96
6, 23268, Note_on_c, 5, 70, 0
6, 23280, Note_on_c, 5, 70, 96
6, 23328, Note_on_c, 5, 70, 0
6, 23340, Note_on_c, 5, 70, 96
6, 23388, Note_on_c, 5, 70, 0
6, 23400, Note_on_c, 5, 70, 96
6, 23448, Note_on_c, 5, 70, 0
6, 23460, Note_on_c, 5, 70, 96
6, 23508, Note_on_c, 5, 70, 0
6, 23520, Note_on_c, 5, 72, 96
6, 23640, Note_on_c, 5, 72, 0
6, 24000, Note_on_c, 5, 73, 96
6, 24048, Note_on_c, 5, 73, 0
6, 24060, Note_on_c, 5, 73, 96
6, 24108, Note_on_c, 5, 73, 0
6, 24120, Note_on_c, 5, 73, 96
6, 24168, Note_on_c, 5, 73, 0
6, 24180, Note_on_c, 5, 73, 96
6, 24228, Note_on_c, 5, 73, 0
6, 24240, Note_on_c, 5, 71, 96
6, 24288, Note_on_c, 5, 71, 0
6, 24300, Note_on_c, 5, 71, 96
6, 24348, Note_on_c, 5, 71, 0
6, 24360, Note_on_c, 5, 71, 96
6, 24408, Note_on_c, 5, 71, 0
6, 24420, Note_on_c, 5, 71, 96
6, 24468, Note_on_c, 5, 71, 0
6, 24480, Note_on_c, 5, 70, 96
6, 24600, Note_on_c, 5, 70, 0
6, 24960, Note_on_c, 5, 71, 96
6, 25008, Note_on_c, 5, 71, 0
6, 25020, Note_on_c, 5, 71, 96
6, 25068, Note_on_c, 5, 71, 0
6, 25080, Note_on_c, 5, 71, 96
6, 25128, Note_on_c, 5, 71, 0
6, 25140, Note_on_c, 5, 71, 96
6, 25188, Note_on_c, 5, 71, 0
6, 25200, Note_on_c, 5, 71, 96
6, 25248, Note_on_c, 5, 71, 0
6, 25260, Note_on_c, 5, 71, 96
6, 25308, Note_on_c, 5, 71, 0
6, 25320, Note_on_c, 5, 71, 96
6, 25368, Note_on_c, 5, 71, 0
6, 25380, Note_on_c, 5, 71, 96
6, 25428, Note_on_c, 5, 71, 0
6, 25440, Note_on_c, 5, 71, 96
6, 25632, Note_on_c, 5, 71, 0
6, 25680, Note_on_c, 5, 70, 96
6, 25872, Note_on_c, 5, 70, 0
6, 25920, Note_on_c, 5, 68, 96
6, 26112, Note_on_c, 5, 68, 0
6, 26160, Note_on_c, 5, 66, 96
6, 26352, Note_on_c, 5, 66, 0
6, 26400, Note_on_c, 5, 64, 96
6, 26592, Note_on_c, 5, 64, 0
6, 26640, Note_on_c, 5, 61, 96
6, 26736, Note_on_c, 5, 61, 0
6, 26760, Note_on_c, 5, 63, 96
6, 26856, Note_on_c, 5, 63, 0
6, 26880, Note_on_c, 5, 64, 96
6, 26970, Note_on_c, 5, 64, 0
6, 27000, Note_on_c, 5, 61, 96
6, 27045, Note_on_c, 5, 61, 0
6, 27060, Note_on_c, 5, 63, 96
6, 27105, Note_on_c, 5, 63, 0
6, 27120, Note_on_c, 5, 64, 96
6, 27210, Note_on_c, 5, 64, 0
6, 27240, Note_on_c, 5, 61, 96
6, 27285, Note_on_c, 5, 61, 0
6, 27300, Note_on_c, 5, 59, 96
6, 27345, Note_on_c, 5, 59, 0
6, 27360, Note_on_c, 5, 58, 96
6, 27540, Note_on_c, 5, 58, 0
6, 27720, Note_on_c, 5, 73, 96
6, 27810, Note_on_c, 5, 73, 0
6, 27840, Note_on_c, 5, 71, 96
6, 27930, Note_on_c, 5, 71, 0
6, 27960, Note_on_c, 5, 66, 96
6, 28050, Note_on_c, 5, 66, 0
6, 28080, Note_on_c, 5, 68, 96
6, 28170, Note_on_c, 5, 68, 0
6, 28200, Note_on_c, 5, 66, 96
6, 28290, Note_on_c, 5, 66, 0
6, 28320, Note_on_c, 5, 66, 96
6, 28500, Note_on_c, 5, 66, 0
6, 28920, Note_on_c, 5, 66, 96
6, 28965, Note_on_c, 5, 66, 0
6, 28980, Note_on_c, 5, 66, 96
6, 29025, Note_on_c, 5, 66, 0
6, 29040, Note_on_c, 5, 68, 96
6, 29085, Note_on_c, 5, 68, 0
6, 29100, Note_on_c, 5, 68, 96
6, 29145, Note_on_c, 5, 68, 0
6, 29160, Note_on_c, 5, 70, 96
6, 29205, Note_on_c, 5, 70, 0
6, 29220, Note_on_c, 5, 70, 96
6, 29265, Note_on_c, 5, 70, 0
6, 29280, Note_on_c, 5, 71, 96
6, 29400, Note_on_c, 5, 71, 0
6, 30360, Note_on_c, 5, 66, 96
6, 30405, Note_on_c, 5, 66, 0
6, 30420, Note_on_c, 5, 66, 96
6, 30465, Note_on_c, 5, 66, 0
6, 30480, Note_on_c, 5, 68, 96
6, 30525, Note_on_c, 5, 68, 0
6, 30540, Note_on_c, 5, 68, 96
6, 30585, Note_on_c, 5, 68, 0
6, 30600, Note_on_c, 5, 70, 96
6, 30645, Note_on_c, 5, 70, 0
6, 30660, Note_on_c, 5, 70, 96
6, 30705, Note_on_c, 5, 70, 0
6, 30720, Note_on_c, 5, 71, 96
6, 30810, Note_on_c, 5, 71, 0
6, 30840, Note_on_c, 5, 66, 96
6, 31020, Note_on_c, 5, 66, 0
6, 31080, Note_on_c, 5, 64, 96
6, 31170, Note_on_c, 5, 64, 0
6, 31200, Note_on_c, 5, 63, 96
6, 31290, Note_on_c, 5, 63, 0
6, 31320, Note_on_c, 5, 66, 96
6, 31365, Note_on_c, 5, 66, 0
6, 31380, Note_on_c, 5, 66, 96
6, 31425, Note_on_c, 5, 66, 0
6, 31440, Note_on_c, 5, 71, 96
6, 31485, Note_on_c, 5, 71, 0
6, 31500, Note_on_c, 5, 71, 96
6, 31545, Note_on_c, 5, 71, 0
6, 31560, Note_on_c, 5, 73, 96
6, 31605, Note_on_c, 5, 73, 0
6, 31620, Note_on_c, 5, 73, 96
6, 31665, Note_on_c, 5, 73, 0
6, 31680, Note_on_c, 5, 71, 96
6, 31770, Note_on_c, 5, 71, 0
6, 31800, Note_on_c, 5, 63, 96
6, 31890, Note_on_c, 5, 63, 0
6, 31920, Note_on_c, 5, 68, 96
6, 32010, Note_on_c, 5, 68, 0
6, 32040, Note_on_c, 5, 66, 96
6, 32130, Note_on_c, 5, 66, 0
6, 32160, Note_on_c, 5, 66, 96
6, 32400, Note_on_c, 5, 66, 0
6, 32640, Note_on_c, 5, 59, 96
6, 32760, Note_on_c, 5, 59, 0
6, 32880, Note_on_c, 5, 64, 96
6, 33000, Note_on_c, 5, 64, 0
6, 33120, Note_on_c, 5, 68, 96
6, 33360, Note_on_c, 5, 68, 0
6, 33600, Note_on_c, 5, 64, 96
6, 33720, Note_on_c, 5, 64, 0
6, 33840, Note_on_c, 5, 68, 96
6, 33960, Note_on_c, 5, 68, 0
6, 34080, Note_on_c, 5, 71, 96
6, 34320, Note_on_c, 5, 71, 0
6, 34560, Note_on_c, 5, 68, 80
6, 34680, Note_on_c, 5, 68, 0
6, 34800, Note_on_c, 5, 71, 80
6, 34920, Note_on_c, 5, 71, 0
6, 35040, Note_on_c, 5, 76, 80
6, 35220, Note_on_c, 5, 76, 0
6, 35880, Note_on_c, 5, 64, 96
6, 35925, Note_on_c, 5, 64, 0
6, 35940, Note_on_c, 5, 66, 96
6, 35985, Note_on_c, 5, 66, 0
6, 36000, Note_on_c, 5, 68, 112
6, 36090, Note_on_c, 5, 68, 0
6, 36120, Note_on_c, 5, 64, 96
6, 36165, Note_on_c, 5, 64, 0
6, 36180, Note_on_c, 5, 66, 96
6, 36225, Note_on_c, 5, 66, 0
6, 36240, Note_on_c, 5, 68, 112
6, 36348, Note_on_c, 5, 68, 0
6, 36360, Note_on_c, 5, 71, 96
6, 36432, Note_on_c, 5, 71, 0
6, 36480, Note_on_c, 5, 68, 96
6, 36570, Note_on_c, 5, 68, 0
6, 36600, Note_on_c, 5, 64, 96
6, 36690, Note_on_c, 5, 64, 0
6, 36720, Note_on_c, 5, 64, 96
6, 36810, Note_on_c, 5, 64, 0
6, 36840, Note_on_c, 5, 59, 96
6, 36930, Note_on_c, 5, 59, 0
6, 36960, Note_on_c, 5, 56, 96
6, 37920, Note_on_c, 5, 56, 0
6, 39000, Note_on_c, 5, 68, 96
6, 39090, Note_on_c, 5, 68, 0
6, 39240, Note_on_c, 5, 68, 96
6, 39330, Note_on_c, 5, 68, 0
6, 39480, Note_on_c, 5, 68, 96
6, 39570, Note_on_c, 5, 68, 0
6, 39720, Note_on_c, 5, 66, 96
6, 39810, Note_on_c, 5, 66, 0
6, 39840, Note_on_c, 5, 71, 96
6, 40020, Note_on_c, 5, 71, 0
6, 40320, Note_on_c, 5, 75, 96
6, 40365, Note_on_c, 5, 75, 0
6, 40380, Note_on_c, 5, 75, 96
6, 40425, Note_on_c, 5, 75, 0
6, 40440, Note_on_c, 5, 75, 96
6, 40485, Note_on_c, 5, 75, 0
6, 40500, Note_on_c, 5, 75, 96
6, 40545, Note_on_c, 5, 75, 0
6, 40560, Note_on_c, 5, 75, 96
6, 40605, Note_on_c, 5, 75, 0
6, 40620, Note_on_c, 5, 75, 96
6, 40665, Note_on_c, 5, 75, 0
6, 40680, Note_on_c, 5, 75, 96
6, 40725, Note_on_c, 5, 75, 0
6, 40740, Note_on_c, 5, 75, 96
6, 40785, Note_on_c, 5, 75, 0
6, 40800, Note_on_c, 5, 73, 96
6, 40920, Note_on_c, 5, 73, 0
6, 41280, Note_on_c, 5, 73, 96
6, 41325, Note_on_c, 5, 73, 0
6, 41340, Note_on_c, 5, 73, 96
6, 41385, Note_on_c, 5, 73, 0
6, 41400, Note_on_c, 5, 73, 96
6, 41445, Note_on_c, 5, 73, 0
6, 41460, Note_on_c, 5, 73, 96
6, 41505, Note_on_c, 5, 73, 0
6, 41520, Note_on_c, 5, 73, 96
6, 41565, Note_on_c, 5, 73, 0
6, 41580, Note_on_c, 5, 73, 96
6, 41625, Note_on_c, 5, 73, 0
6, 41640, Note_on_c, 5, 73, 96
6, 41685, Note_on_c, 5, 73, 0
6, 41700, Note_on_c, 5, 73, 96
6, 41745, Note_on_c, 5, 73, 0
6, 41760, Note_on_c, 5, 75, 96
6, 41880, Note_on_c, 5, 75, 0
6, 42240, Note_on_c, 5, 76, 96
6, 42285, Note_on_c, 5, 76, 0
6, 42300, Note_on_c, 5, 76, 96
6, 42345, Note_on_c, 5, 76, 0
6, 42360, Note_on_c, 5, 76, 96
6, 42405, Note_on_c, 5, 76, 0
6, 42420, Note_on_c, 5, 76, 96
6, 42465, Note_on_c, 5, 76, 0
6, 42480, Note_on_c, 5, 76, 96
6, 42525, Note_on_c, 5, 76, 0
6, 42540, Note_on_c, 5, 76, 96
6, 42585, Note_on_c, 5, 76, 0
6, 42600, Note_on_c, 5, 76, 96
6, 42645, Note_on_c, 5, 76, 0
6, 42660, Note_on_c, 5, 76, 96
6, 42705, Note_on_c, 5, 76, 0
6, 42720, Note_on_c, 5, 76, 96
6, 42900, Note_on_c, 5, 76, 0
6, 42960, Note_on_c, 5, 75, 96
6, 43140, Note_on_c, 5, 75, 0
6, 43200, Note_on_c, 5, 73, 96
6, 43380, Note_on_c, 5, 73, 0
6, 43440, Note_on_c, 5, 71, 96
6, 43620, Note_on_c, 5, 71, 0
6, 43680, Note_on_c, 5, 69, 96
6, 43860, Note_on_c, 5, 69, 0
6, 43920, Note_on_c, 5, 66, 96
6, 44010, Note_on_c, 5, 66, 0
6, 44040, Note_on_c, 5, 68, 96
6, 44130, Note_on_c, 5, 68, 0
6, 44160, Note_on_c, 5, 69, 96
6, 44250, Note_on_c, 5, 69, 0
6, 44280, Note_on_c, 5, 66, 96
6, 44325, Note_on_c, 5, 66, 0
6, 44340, Note_on_c, 5, 68, 96
6, 44385, Note_on_c, 5, 68, 0
6, 44400, Note_on_c, 5, 69, 96
6, 44490, Note_on_c, 5, 69, 0
6, 44520, Note_on_c, 5, 66, 96
6, 44565, Note_on_c, 5, 66, 0
6, 44580, Note_on_c, 5, 68, 96
6, 44625, Note_on_c, 5, 68, 0
6, 44640, Note_on_c, 5, 69, 96
6, 44820, Note_on_c, 5, 69, 0
6, 45000, Note_on_c, 5, 78, 96
6, 45090, Note_on_c, 5, 78, 0
6, 45120, Note_on_c, 5, 76, 96
6, 45210, Note_on_c, 5, 76, 0
6, 45240, Note_on_c, 5, 71, 96
6, 45330, Note_on_c, 5, 71, 0
6, 45360, Note_on_c, 5, 73, 96
6, 45450, Note_on_c, 5, 73, 0
6, 45480, Note_on_c, 5, 71, 96
6, 45570, Note_on_c, 5, 71, 0
6, 45600, Note_on_c, 5, 71, 96
6, 45780, Note_on_c, 5, 71, 0
6, 46200, Note_on_c, 5, 71, 96
6, 46245, Note_on_c, 5, 71, 0
6, 46260, Note_on_c, 5, 71, 96
6, 46305, Note_on_c, 5, 71, 0
6, 46320, Note_on_c, 5, 73, 96
6, 46365, Note_on_c, 5, 73, 0
6, 46380, Note_on_c, 5, 73, 96
6, 46425, Note_on_c, 5, 73, 0
6, 46440, Note_on_c, 5, 75, 96
6, 46485, Note_on_c, 5, 75, 0
6, 46500, Note_on_c, 5, 75, 96
6, 46545, Note_on_c, 5, 75, 0
6, 46560, Note_on_c, 5, 76, 96
6, 46680, Note_on_c, 5, 76, 0
6, 47640, Note_on_c, 5, 71, 96
6, 47685, Note_on_c, 5, 71, 0
6, 47700, Note_on_c, 5, 71, 96
6, 47745, Note_on_c, 5, 71, 0
6, 47760, Note_on_c, 5, 73, 96
6, 47805, Note_on_c, 5, 73, 0
6, 47820, Note_on_c, 5, 73, 96
6, 47865, Note_on_c, 5, 73, 0
6, 47880, Note_on_c, 5, 75, 96
6, 47925, Note_on_c, 5, 75, 0
6, 47940, Note_on_c, 5, 75, 96
6, 47985, Note_on_c, 5, 75, 0
6, 48000, Note_on_c, 5, 76, 96
6, 48090, Note_on_c, 5, 76, 0
6, 48120, Note_on_c, 5, 71, 96
6, 48300, Note_on_c, 5, 71, 0
6, 48360, Note_on_c, 5, 69, 96
6, 48450, Note_on_c, 5, 69, 0
6, 48480, Note_on_c, 5, 68, 96
6, 48570, Note_on_c, 5, 68, 0
6, 48600, Note_on_c, 5, 71, 96
6, 48645, Note_on_c, 5, 71, 0
6, 48660, Note_on_c, 5, 71, 96
6, 48705, Note_on_c, 5, 71, 0
6, 48720, Note_on_c, 5, 76, 96
6, 48765, Note_on_c, 5, 76, 0
6, 48780, Note_on_c, 5, 76, 96
6, 48825, Note_on_c, 5, 76, 0
6, 48840, Note_on_c, 5, 78, 96
6, 48885, Note_on_c, 5, 78, 0
6, 48900, Note_on_c, 5, 78, 96
6, 48945, Note_on_c, 5, 78, 0
6, 48960, Note_on_c, 5, 76, 96
6, 49050, Note_on_c, 5, 76, 0
6, 49080, Note_on_c, 5, 68, 96
6, 49170, Note_on_c, 5, 68, 0
6, 49200, Note_on_c, 5, 73, 96
6, 49290, Note_on_c, 5, 73, 0
6, 49320, Note_on_c, 5, 71, 96
6, 49410, Note_on_c, 5, 71, 0
6, 49440, Note_on_c, 5, 76, 96
6, 49680, Note_on_c, 5, 76, 0
6, 49920, Note_on_c, 5, 61, 96
6, 50040, Note_on_c, 5, 61, 0
6, 50160, Note_on_c, 5, 64, 96
6, 50280, Note_on_c, 5, 64, 0
6, 50400, Note_on_c, 5, 68, 96
6, 50640, Note_on_c, 5, 68, 0
6, 50880, Note_on_c, 5, 59, 96
6, 51000, Note_on_c, 5, 59, 0
6, 51120, Note_on_c, 5, 63, 96
6, 51240, Note_on_c, 5, 63, 0
6, 51360, Note_on_c, 5, 68, 96
6, 51600, Note_on_c, 5, 68, 0
6, 51840, Note_on_c, 5, 57, 96
6, 51960, Note_on_c, 5, 57, 0
6, 52080, Note_on_c, 5, 61, 96
6, 52200, Note_on_c, 5, 61, 0
6, 52320, Note_on_c, 5, 66, 96
6, 52560, Note_on_c, 5, 66, 0
6, 52800, Note_on_c, 5, 56, 96
6, 52920, Note_on_c, 5, 56, 0
6, 53040, Note_on_c, 5, 63, 96
6, 53160, Note_on_c, 5, 63, 0
6, 53280, Note_on_c, 5, 68, 96
6, 53520, Note_on_c, 5, 68, 0
6, 53760, Note_on_c, 5, 73, 96
6, 54120, Note_on_c, 5, 73, 0
6, 54360, Note_on_c, 5, 75, 96
6, 54450, Note_on_c, 5, 75, 0
6, 54480, Note_on_c, 5, 73, 96
6, 54570, Note_on_c, 5, 73, 0
6, 54600, Note_on_c, 5, 71, 96
6, 54690, Note_on_c, 5, 71, 0
6, 54720, Note_on_c, 5, 70, 96
6, 54900, Note_on_c, 5, 70, 0
6, 54960, Note_on_c, 5, 75, 96
6, 55290, Note_on_c, 5, 75, 0
6, 55320, Note_on_c, 5, 76, 96
6, 55410, Note_on_c, 5, 76, 0
6, 55440, Note_on_c, 5, 75, 96
6, 55530, Note_on_c, 5, 75, 0
6, 55560, Note_on_c, 5, 73, 96
6, 55650, Note_on_c, 5, 73, 0
6, 55680, Note_on_c, 5, 75, 96
6, 55860, Note_on_c, 5, 75, 0
6, 55920, Note_on_c, 5, 71, 96
6, 56250, Note_on_c, 5, 71, 0
6, 56280, Note_on_c, 5, 73, 96
6, 56370, Note_on_c, 5, 73, 0
6, 56400, Note_on_c, 5, 71, 96
6, 56490, Note_on_c, 5, 71, 0
6, 56520, Note_on_c, 5, 69, 96
6, 56610, Note_on_c, 5, 69, 0
6, 56640, Note_on_c, 5, 68, 96
6, 56820, Note_on_c, 5, 68, 0
6, 56880, Note_on_c, 5, 73, 96
6, 57210, Note_on_c, 5, 73, 0
6, 57240, Note_on_c, 5, 74, 96
6, 57330, Note_on_c, 5, 74, 0
6, 57360, Note_on_c, 5, 73, 96
6, 57450, Note_on_c, 5, 73, 0
6, 57480, Note_on_c, 5, 71, 96
6, 57570, Note_on_c, 5, 71, 0
6, 57600, Note_on_c, 5, 73, 96
6, 57828, Note_on_c, 5, 73, 0
6, 57840, Note_on_c, 5, 71, 96
6, 58068, Note_on_c, 5, 71, 0
6, 58080, Note_on_c, 5, 69, 96
6, 58308, Note_on_c, 5, 69, 0
6, 58320, Note_on_c, 5, 68, 96
6, 58548, Note_on_c, 5, 68, 0
6, 58560, Note_on_c, 5, 66, 96
6, 58788, Note_on_c, 5, 66, 0
6, 58800, Note_on_c, 5, 73, 96
6, 59028, Note_on_c, 5, 73, 0
6, 59040, Note_on_c, 5, 75, 96
6, 59268, Note_on_c, 5, 75, 0
6, 59280, Note_on_c, 5, 76, 96
6, 59508, Note_on_c, 5, 76, 0
6, 59520, Note_on_c, 5, 75, 96
6, 60204, Note_on_c, 5, 75, 0
6, 60240, Note_on_c, 5, 63, 96
6, 60468, Note_on_c, 5, 63, 0
6, 60480, Note_on_c, 5, 64, 96
6, 60936, Note_on_c, 5, 64, 0
6, 60960, Note_on_c, 5, 76, 96
6, 61416, Note_on_c, 5, 76, 0
6, 61440, Note_on_c, 5, 74, 96
6, 61668, Note_on_c, 5, 74, 0
6, 61680, Note_on_c, 5, 73, 96
6, 62136, Note_on_c, 5, 73, 0
6, 62160, Note_on_c, 5, 73, 96
6, 62388, Note_on_c, 5, 73, 0
6, 62400, Note_on_c, 5, 71, 96
6, 63312, Note_on_c, 5, 71, 0
6, 63360, Note_on_c, 5, 73, 96
6, 63588, Note_on_c, 5, 73, 0
6, 63600, Note_on_c, 5, 71, 96
6, 63828, Note_on_c, 5, 71, 0
6, 63840, Note_on_c, 5, 69, 96
6, 64296, Note_on_c, 5, 69, 0
6, 64320, Note_on_c, 5, 68, 96
6, 65232, Note_on_c, 5, 68, 0
6, 65280, Note_on_c, 5, 70, 96
6, 65736, Note_on_c, 5, 70, 0
6, 65760, Note_on_c, 5, 68, 96
6, 66216, Note_on_c, 5, 68, 0
6, 66240, Note_on_c, 5, 68, 96
6, 66360, Note_on_c, 5, 68, 0
6, 66480, Note_on_c, 5, 73, 96
6, 66600, Note_on_c, 5, 73, 0
6, 66720, Note_on_c, 5, 76, 96
6, 66960, Note_on_c, 5, 76, 0
6, 67080, Note_on_c, 5, 73, 96
6, 67125, Note_on_c, 5, 73, 0
6, 67140, Note_on_c, 5, 75, 96
6, 67185, Note_on_c, 5, 75, 0
6, 67200, Note_on_c, 5, 76, 96
6, 67290, Note_on_c, 5, 76, 0
6, 67320, Note_on_c, 5, 73, 96
6, 67365, Note_on_c, 5, 73, 0
6, 67380, Note_on_c, 5, 75, 96
6, 67425, Note_on_c, 5, 75, 0
6, 67440, Note_on_c, 5, 76, 96
6, 67530, Note_on_c, 5, 76, 0
6, 67560, Note_on_c, 5, 80, 96
6, 67650, Note_on_c, 5, 80, 0
6, 67680, Note_on_c, 5, 76, 96
6, 67770, Note_on_c, 5, 76, 0
6, 67800, Note_on_c, 5, 73, 96
6, 67890, Note_on_c, 5, 73, 0
6, 67920, Note_on_c, 5, 73, 96
6, 68010, Note_on_c, 5, 73, 0
6, 68040, Note_on_c, 5, 71, 96
6, 68130, Note_on_c, 5, 71, 0
6, 68160, Note_on_c, 5, 64, 96
6, 68280, Note_on_c, 5, 64, 0
6, 68400, Note_on_c, 5, 70, 96
6, 68520, Note_on_c, 5, 70, 0
6, 68640, Note_on_c, 5, 73, 96
6, 68880, Note_on_c, 5, 73, 0
6, 69120, Note_on_c, 5, 66, 96
6, 69240, Note_on_c, 5, 66, 0
6, 69360, Note_on_c, 5, 71, 96
6, 69480, Note_on_c, 5, 71, 0
6, 69600, Note_on_c, 5, 75, 96
6, 69840, Note_on_c, 5, 75, 0
6, 69960, Note_on_c, 5, 75, 96
6, 70005, Note_on_c, 5, 75, 0
6, 70020, Note_on_c, 5, 76, 96
6, 70065, Note_on_c, 5, 76, 0
6, 70080, Note_on_c, 5, 75, 96
6, 70170, Note_on_c, 5, 75, 0
6, 70200, Note_on_c, 5, 71, 96
6, 70245, Note_on_c, 5, 71, 0
6, 70260, Note_on_c, 5, 73, 96
6, 70305, Note_on_c, 5, 73, 0
6, 70320, Note_on_c, 5, 75, 96
6, 70410, Note_on_c, 5, 75, 0
6, 70440, Note_on_c, 5, 78, 96
6, 70530, Note_on_c, 5, 78, 0
6, 70560, Note_on_c, 5, 75, 96
6, 70650, Note_on_c, 5, 75, 0
6, 70680, Note_on_c, 5, 71, 96
6, 70770, Note_on_c, 5, 71, 0
6, 70800, Note_on_c, 5, 71, 96
6, 70890, Note_on_c, 5, 71, 0
6, 70920, Note_on_c, 5, 66, 96
6, 71010, Note_on_c, 5, 66, 0
6, 71040, Note_on_c, 5, 62, 96
6, 71160, Note_on_c, 5, 62, 0
6, 71280, Note_on_c, 5, 68, 96
6, 71400, Note_on_c, 5, 68, 0
6, 71520, Note_on_c, 5, 71, 96
6, 71760, Note_on_c, 5, 71, 0
6, 72000, Note_on_c, 5, 64, 96
6, 72120, Note_on_c, 5, 64, 0
6, 72240, Note_on_c, 5, 69, 96
6, 72360, Note_on_c, 5, 69, 0
6, 72480, Note_on_c, 5, 73, 96
6, 72720, Note_on_c, 5, 73, 0
6, 72840, Note_on_c, 5, 57, 96
6, 72885, Note_on_c, 5, 57, 0
6, 72900, Note_on_c, 5, 59, 96
6, 72945, Note_on_c, 5, 59, 0
6, 72960, Note_on_c, 5, 61, 96
6, 73050, Note_on_c, 5, 61, 0
6, 73080, Note_on_c, 5, 57, 96
6, 73125, Note_on_c, 5, 57, 0
6, 73140, Note_on_c, 5, 59, 96
6, 73185, Note_on_c, 5, 59, 0
6, 73200, Note_on_c, 5, 61, 96
6, 73290, Note_on_c, 5, 61, 0
6, 73320, Note_on_c, 5, 64, 96
6, 73410, Note_on_c, 5, 64, 0
6, 73440, Note_on_c, 5, 61, 96
6, 73530, Note_on_c, 5, 61, 0
6, 73560, Note_on_c, 5, 57, 96
6, 73650, Note_on_c, 5, 57, 0
6, 73680, Note_on_c, 5, 57, 96
6, 73770, Note_on_c, 5, 57, 0
6, 73800, Note_on_c, 5, 64, 96
6, 73890, Note_on_c, 5, 64, 0
6, 73920, Note_on_c, 5, 66, 96
6, 74010, Note_on_c, 5, 66, 0
6, 74040, Note_on_c, 5, 71, 96
6, 74220, Note_on_c, 5, 71, 0
6, 74280, Note_on_c, 5, 69, 96
6, 74370, Note_on_c, 5, 69, 0
6, 74400, Note_on_c, 5, 68, 96
6, 74580, Note_on_c, 5, 68, 0
6, 74880, Note_on_c, 5, 73, 96
6, 74925, Note_on_c, 5, 73, 0
6, 74940, Note_on_c, 5, 73, 96
6, 74985, Note_on_c, 5, 73, 0
6, 75000, Note_on_c, 5, 73, 96
6, 75045, Note_on_c, 5, 73, 0
6, 75060, Note_on_c, 5, 73, 96
6, 75105, Note_on_c, 5, 73, 0
6, 75120, Note_on_c, 5, 73, 96
6, 75165, Note_on_c, 5, 73, 0
6, 75180, Note_on_c, 5, 73, 96
6, 75225, Note_on_c, 5, 73, 0
6, 75240, Note_on_c, 5, 73, 96
6, 75285, Note_on_c, 5, 73, 0
6, 75300, Note_on_c, 5, 73, 96
6, 75345, Note_on_c, 5, 73, 0
6, 75360, Note_on_c, 5, 70, 96
6, 75480, Note_on_c, 5, 70, 0
6, 75840, Note_on_c, 5, 71, 96
6, 75885, Note_on_c, 5, 71, 0
6, 75900, Note_on_c, 5, 71, 96
6, 75945, Note_on_c, 5, 71, 0
6, 75960, Note_on_c, 5, 71, 96
6, 76005, Note_on_c, 5, 71, 0
6, 76020, Note_on_c, 5, 71, 96
6, 76065, Note_on_c, 5, 71, 0
6, 76080, Note_on_c, 5, 71, 96
6, 76125, Note_on_c, 5, 71, 0
6, 76140, Note_on_c, 5, 71, 96
6, 76185, Note_on_c, 5, 71, 0
6, 76200, Note_on_c, 5, 71, 96
6, 76245, Note_on_c, 5, 71, 0
6, 76260, Note_on_c, 5, 71, 96
6, 76305, Note_on_c, 5, 71, 0
6, 76320, Note_on_c, 5, 71, 96
6, 76440, Note_on_c, 5, 71, 0
6, 76800, Note_on_c, 5, 69, 96
6, 76845, Note_on_c, 5, 69, 0
6, 76860, Note_on_c, 5, 69, 96
6, 76905, Note_on_c, 5, 69, 0
6, 76920, Note_on_c, 5, 69, 96
6, 76965, Note_on_c, 5, 69, 0
6, 76980, Note_on_c, 5, 69, 96
6, 77025, Note_on_c, 5, 69, 0
6, 77040, Note_on_c, 5, 69, 96
6, 77085, Note_on_c, 5, 69, 0
6, 77100, Note_on_c, 5, 69, 96
6, 77145, Note_on_c, 5, 69, 0
6, 77160, Note_on_c, 5, 69, 96
6, 77205, Note_on_c, 5, 69, 0
6, 77220, Note_on_c, 5, 69, 96
6, 77265, Note_on_c, 5, 69, 0
6, 77280, Note_on_c, 5, 69, 96
6, 77460, Note_on_c, 5, 69, 0
6, 77520, Note_on_c, 5, 68, 96
6, 77700, Note_on_c, 5, 68, 0
6, 77760, Note_on_c, 5, 66, 96
6, 77940, Note_on_c, 5, 66, 0
6, 78000, Note_on_c, 5, 64, 96
6, 78180, Note_on_c, 5, 64, 0
6, 78240, Note_on_c, 5, 64, 96
6, 78360, Note_on_c, 5, 64, 0
6, 78480, Note_on_c, 5, 68, 96
6, 78600, Note_on_c, 5, 68, 0
6, 78720, Note_on_c, 5, 71, 96
6, 78960, Note_on_c, 5, 71, 0
6, 79080, Note_on_c, 5, 68, 96
6, 79125, Note_on_c, 5, 68, 0
6, 79140, Note_on_c, 5, 69, 96
6, 79185, Note_on_c, 5, 69, 0
6, 79200, Note_on_c, 5, 71, 96
6, 79290, Note_on_c, 5, 71, 0
6, 79320, Note_on_c, 5, 68, 96
6, 79365, Note_on_c, 5, 68, 0
6, 79380, Note_on_c, 5, 69, 96
6, 79425, Note_on_c, 5, 69, 0
6, 79440, Note_on_c, 5, 71, 96
6, 79530, Note_on_c, 5, 71, 0
6, 79560, Note_on_c, 5, 76, 96
6, 79650, Note_on_c, 5, 76, 0
6, 79680, Note_on_c, 5, 71, 96
6, 79770, Note_on_c, 5, 71, 0
6, 79800, Note_on_c, 5, 71, 96
6, 79845, Note_on_c, 5, 71, 0
6, 79860, Note_on_c, 5, 69, 96
6, 79905, Note_on_c, 5, 69, 0
6, 79920, Note_on_c, 5, 68, 96
6, 80010, Note_on_c, 5, 68, 0
6, 80040, Note_on_c, 5, 66, 96
6, 80085, Note_on_c, 5, 66, 0
6, 80100, Note_on_c, 5, 64, 96
6, 80145, Note_on_c, 5, 64, 0
6, 80160, Note_on_c, 5, 69, 96
6, 80250, Note_on_c, 5, 69, 0
6, 80280, Note_on_c, 5, 57, 96
6, 80370, Note_on_c, 5, 57, 0
6, 80520, Note_on_c, 5, 69, 96
6, 80565, Note_on_c, 5, 69, 0
6, 80580, Note_on_c, 5, 68, 96
6, 80625, Note_on_c, 5, 68, 0
6, 80640, Note_on_c, 5, 69, 96
6, 80730, Note_on_c, 5, 69, 0
6, 80760, Note_on_c, 5, 57, 96
6, 80805, Note_on_c, 5, 57, 0
6, 80820, Note_on_c, 5, 59, 96
6, 80865, Note_on_c, 5, 59, 0
6, 80880, Note_on_c, 5, 61, 96
6, 80970, Note_on_c, 5, 61, 0
6, 81000, Note_on_c, 5, 64, 96
6, 81090, Note_on_c, 5, 64, 0
6, 81120, Note_on_c, 5, 69, 96
6, 81210, Note_on_c, 5, 69, 0
6, 81240, Note_on_c, 5, 64, 96
6, 81330, Note_on_c, 5, 64, 0
6, 81360, Note_on_c, 5, 69, 96
6, 81450, Note_on_c, 5, 69, 0
6, 81480, Note_on_c, 5, 73, 96
6, 81570, Note_on_c, 5, 73, 0
6, 81600, Note_on_c, 5, 76, 96
6, 81690, Note_on_c, 5, 76, 0
6, 81720, Note_on_c, 5, 73, 96
6, 81810, Note_on_c, 5, 73, 0
6, 81840, Note_on_c, 5, 69, 96
6, 81930, Note_on_c, 5, 69, 0
6, 81960, Note_on_c, 5, 67, 96
6, 82050, Note_on_c, 5, 67, 0
6, 82080, Note_on_c, 5, 66, 96
6, 82200, Note_on_c, 5, 66, 0
6, 82320, Note_on_c, 5, 70, 96
6, 82440, Note_on_c, 5, 70, 0
6, 82560, Note_on_c, 5, 73, 96
6, 82800, Note_on_c, 5, 73, 0
6, 82920, Note_on_c, 5, 70, 96
6, 82965, Note_on_c, 5, 70, 0
6, 82980, Note_on_c, 5, 71, 96
6, 83025, Note_on_c, 5, 71, 0
6, 83040, Note_on_c, 5, 73, 96
6, 83130, Note_on_c, 5, 73, 0
6, 83160, Note_on_c, 5, 70, 96
6, 83205, Note_on_c, 5, 70, 0
6, 83220, Note_on_c, 5, 71, 96
6, 83265, Note_on_c, 5, 71, 0
6, 83280, Note_on_c, 5, 73, 96
6, 83370, Note_on_c, 5, 73, 0
6, 83400, Note_on_c, 5, 78, 96
6, 83490, Note_on_c, 5, 78, 0
6, 83520, Note_on_c, 5, 73, 96
6, 83610, Note_on_c, 5, 73, 0
6, 83640, Note_on_c, 5, 73, 96
6, 83685, Note_on_c, 5, 73, 0
6, 83700, Note_on_c, 5, 71, 96
6, 83745, Note_on_c, 5, 71, 0
6, 83760, Note_on_c, 5, 70, 96
6, 83850, Note_on_c, 5, 70, 0
6, 83880, Note_on_c, 5, 68, 96
6, 83925, Note_on_c, 5, 68, 0
6, 83940, Note_on_c, 5, 66, 96
6, 83985, Note_on_c, 5, 66, 0
6, 84000, Note_on_c, 5, 74, 96
6, 84090, Note_on_c, 5, 74, 0
6, 84120, Note_on_c, 5, 59, 96
6, 84210, Note_on_c, 5, 59, 0
6, 84360, Note_on_c, 5, 71, 96
6, 84405, Note_on_c, 5, 71, 0
6, 84420, Note_on_c, 5, 70, 96
6, 84465, Note_on_c, 5, 70, 0
6, 84480, Note_on_c, 5, 71, 96
6, 84570, Note_on_c, 5, 71, 0
6, 84600, Note_on_c, 5, 59, 96
6, 84645, Note_on_c, 5, 59, 0
6, 84660, Note_on_c, 5, 61, 96
6, 84705, Note_on_c, 5, 61, 0
6, 84720, Note_on_c, 5, 62, 96
6, 84810, Note_on_c, 5, 62, 0
6, 84840, Note_on_c, 5, 66, 96
6, 84930, Note_on_c, 5, 66, 0
6, 84960, Note_on_c, 5, 71, 96
6, 85050, Note_on_c, 5, 71, 0
6, 85080, Note_on_c, 5, 66, 96
6, 85170, Note_on_c, 5, 66, 0
6, 85200, Note_on_c, 5, 71, 96
6, 85290, Note_on_c, 5, 71, 0
6, 85320, Note_on_c, 5, 74, 96
6, 85410, Note_on_c, 5, 74, 0
6, 85440, Note_on_c, 5, 78, 96
6, 85530, Note_on_c, 5, 78, 0
6, 85560, Note_on_c, 5, 74, 96
6, 85650, Note_on_c, 5, 74, 0
6, 85680, Note_on_c, 5, 71, 96
6, 85770, Note_on_c, 5, 71, 0
6, 85800, Note_on_c, 5, 68, 96
6, 85890, Note_on_c, 5, 68, 0
6, 85920, Note_on_c, 5, 61, 96
6, 86040, Note_on_c, 5, 61, 0
6, 86160, Note_on_c, 5, 65, 96
6, 86280, Note_on_c, 5, 65, 0
6, 86400, Note_on_c, 5, 68, 96
6, 86640, Note_on_c, 5, 68, 0
6, 86760, Note_on_c, 5, 65, 96
6, 86805, Note_on_c, 5, 65, 0
6, 86820, Note_on_c, 5, 66, 96
6, 86865, Note_on_c, 5, 66, 0
6, 86880, Note_on_c, 5, 68, 96
6, 86970, Note_on_c, 5, 68, 0
6, 87000, Note_on_c, 5, 65, 96
6, 87045, Note_on_c, 5, 65, 0
6, 87060, Note_on_c, 5, 66, 96
6, 87105, Note_on_c, 5, 66, 0
6, 87120, Note_on_c, 5, 68, 96
6, 87210, Note_on_c, 5, 68, 0
6, 87240, Note_on_c, 5, 73, 96
6, 87330, Note_on_c, 5, 73, 0
6, 87360, Note_on_c, 5, 68, 96
6, 87450, Note_on_c, 5, 68, 0
6, 87480, Note_on_c, 5, 68, 96
6, 87525, Note_on_c, 5, 68, 0
6, 87540, Note_on_c, 5, 66, 96
6, 87585, Note_on_c, 5, 66, 0
6, 87600, Note_on_c, 5, 65, 96
6, 87690, Note_on_c, 5, 65, 0
6, 87720, Note_on_c, 5, 63, 96
6, 87765, Note_on_c, 5, 63, 0
6, 87780, Note_on_c, 5, 61, 96
6, 87825, Note_on_c, 5, 61, 0
6, 87840, Note_on_c, 5, 73, 96
6, 87930, Note_on_c, 5, 73, 0
6, 87960, Note_on_c, 5, 74, 96
6, 88050, Note_on_c, 5, 74, 0
6, 88080, Note_on_c, 5, 74, 96
6, 88170, Note_on_c, 5, 74, 0
6, 88200, Note_on_c, 5, 73, 96
6, 88290, Note_on_c, 5, 73, 0
6, 88320, Note_on_c, 5, 73, 96
6, 88440, Note_on_c, 5, 73, 0
6, 88560, Note_on_c, 5, 70, 96
6, 88680, Note_on_c, 5, 70, 0
6, 88800, Note_on_c, 5, 71, 96
6, 89460, Note_on_c, 5, 71, 0
6, 89640, Note_on_c, 5, 65, 96
6, 89730, Note_on_c, 5, 65, 0
6, 89760, Note_on_c, 5, 61, 96
6, 89850, Note_on_c, 5, 61, 0
6, 89880, Note_on_c, 5, 62, 96
6, 90060, Note_on_c, 5, 62, 0
6, 90120, Note_on_c, 5, 61, 96
6, 90210, Note_on_c, 5, 61, 0
6, 90240, Note_on_c, 5, 61, 96
6, 90420, Note_on_c, 5, 61, 0
6, 90420, End_track
7, 0, Start_track
7, 0, MIDI_port, 0
7, 0, Title_t, "acc.    by Marty Weimer"
7, 0, Program_c, 6, 48
7, 0, Control_c, 6, 7, 96
7, 0, Control_c, 6, 10, 48
7, 96840, Note_on_c, 6, 75, 96
7, 96930, Note_on_c, 6, 75, 0
7, 96960, Note_on_c, 6, 71, 96
7, 97140, Note_on_c, 6, 71, 0
7, 97200, Note_on_c, 6, 71, 96
7, 97380, Note_on_c, 6, 71, 0
7, 97440, Note_on_c, 6, 73, 96
7, 97620, Note_on_c, 6, 73, 0
7, 97680, Note_on_c, 6, 68, 96
7, 97860, Note_on_c, 6, 68, 0
7, 97920, Note_on_c, 6, 69, 96
7, 98100, Note_on_c, 6, 69, 0
7, 98160, Note_on_c, 6, 69, 96
7, 98340, Note_on_c, 6, 69, 0
7, 98400, Note_on_c, 6, 68, 96
7, 98490, Note_on_c, 6, 68, 0
7, 98520, Note_on_c, 6, 68, 96
7, 98700, Note_on_c, 6, 68, 0
7, 98760, Note_on_c, 6, 66, 96
7, 98850, Note_on_c, 6, 66, 0
7, 98880, Note_on_c, 6, 73, 96
7, 98970, Note_on_c, 6, 73, 0
7, 99000, Note_on_c, 6, 75, 96
7, 99045, Note_on_c, 6, 75, 0
7, 99060, Note_on_c, 6, 75, 96
7, 99105, Note_on_c, 6, 75, 0
7, 99120, Note_on_c, 6, 73, 96
7, 99165, Note_on_c, 6, 73, 0
7, 99180, Note_on_c, 6, 73, 96
7, 99225, Note_on_c, 6, 73, 0
7, 99240, Note_on_c, 6, 78, 96
7, 99285, Note_on_c, 6, 78, 0
7, 99300, Note_on_c, 6, 78, 96
7, 99345, Note_on_c, 6, 78, 0
7, 99360, Note_on_c, 6, 76, 96
7, 99405, Note_on_c, 6, 76, 0
7, 99420, Note_on_c, 6, 76, 96
7, 99465, Note_on_c, 6, 76, 0
7, 99480, Note_on_c, 6, 75, 96
7, 99525, Note_on_c, 6, 75, 0
7, 99540, Note_on_c, 6, 75, 96
7, 99585, Note_on_c, 6, 75, 0
7, 99600, Note_on_c, 6, 73, 96
7, 99645, Note_on_c, 6, 73, 0
7, 99660, Note_on_c, 6, 73, 96
7, 99705, Note_on_c, 6, 73, 0
7, 99720, Note_on_c, 6, 78, 96
7, 99765, Note_on_c, 6, 78, 0
7, 99780, Note_on_c, 6, 78, 96
7, 99825, Note_on_c, 6, 78, 0
7, 99840, Note_on_c, 6, 76, 96
7, 100020, Note_on_c, 6, 76, 0
7, 100140, Note_on_c, 6, 75, 96
7, 100185, Note_on_c, 6, 75, 0
7, 100200, Note_on_c, 6, 76, 96
7, 100245, Note_on_c, 6, 76, 0
7, 100260, Note_on_c, 6, 73, 96
7, 100305, Note_on_c, 6, 73, 0
7, 100320, Note_on_c, 6, 71, 96
7, 101280, Note_on_c, 6, 71, 0
7, 102000, Note_on_c, 6, 70, 96
7, 102120, Note_on_c, 6, 70, 0
7, 102240, Note_on_c, 6, 73, 96
7, 102360, Note_on_c, 6, 73, 0
7, 102480, Note_on_c, 6, 76, 96
7, 102720, Note_on_c, 6, 76, 0
7, 102960, Note_on_c, 6, 68, 96
7, 103080, Note_on_c, 6, 68, 0
7, 103200, Note_on_c, 6, 71, 96
7, 103320, Note_on_c, 6, 71, 0
7, 103440, Note_on_c, 6, 75, 96
7, 103680, Note_on_c, 6, 75, 0
7, 103920, Note_on_c, 6, 73, 96
7, 104040, Note_on_c, 6, 73, 0
7, 104160, Note_on_c, 6, 76, 96
7, 104280, Note_on_c, 6, 76, 0
7, 104400, Note_on_c, 6, 80, 96
7, 104640, Note_on_c, 6, 80, 0
7, 104640, Note_on_c, 6, 73, 96
7, 105360, Note_on_c, 6, 73, 0
7, 105600, Note_on_c, 6, 71, 96
7, 106320, Note_on_c, 6, 71, 0
7, 106560, Note_on_c, 6, 67, 96
7, 107280, Note_on_c, 6, 67, 0
7, 107520, Note_on_c, 6, 68, 96
7, 108240, Note_on_c, 6, 68, 0
7, 108480, Note_on_c, 6, 70, 96
7, 109980, Note_on_c, 6, 70, 0
7, 110280, Note_on_c, 6, 70, 96
7, 110370, Note_on_c, 6, 70, 0
7, 110400, Note_on_c, 6, 71, 96
7, 110490, Note_on_c, 6, 71, 0
7, 110520, Note_on_c, 6, 70, 96
7, 110565, Note_on_c, 6, 70, 0
7, 110580, Note_on_c, 6, 68, 96
7, 110625, Note_on_c, 6, 68, 0
7, 110640, Note_on_c, 6, 71, 96
7, 110685, Note_on_c, 6, 71, 0
7, 110700, Note_on_c, 6, 70, 96
7, 110745, Note_on_c, 6, 70, 0
7, 110760, Note_on_c, 6, 67, 96
7, 110805, Note_on_c, 6, 67, 0
7, 110820, Note_on_c, 6, 68, 96
7, 110865, Note_on_c, 6, 68, 0
7, 110880, Note_on_c, 6, 68, 96
7, 110970, Note_on_c, 6, 68, 0
7, 111000, Note_on_c, 6, 71, 96
7, 111045, Note_on_c, 6, 71, 0
7, 111060, Note_on_c, 6, 71, 96
7, 111105, Note_on_c, 6, 71, 0
7, 111120, Note_on_c, 6, 73, 96
7, 111165, Note_on_c, 6, 73, 0
7, 111180, Note_on_c, 6, 73, 96
7, 111225, Note_on_c, 6, 73, 0
7, 111240, Note_on_c, 6, 70, 96
7, 111285, Note_on_c, 6, 70, 0
7, 111300, Note_on_c, 6, 70, 96
7, 111345, Note_on_c, 6, 70, 0
7, 111360, Note_on_c, 6, 71, 96
7, 111405, Note_on_c, 6, 71, 0
7, 111420, Note_on_c, 6, 71, 96
7, 111465, Note_on_c, 6, 71, 0
7, 111480, Note_on_c, 6, 68, 96
7, 111525, Note_on_c, 6, 68, 0
7, 111540, Note_on_c, 6, 68, 96
7, 111585, Note_on_c, 6, 68, 0
7, 111600, Note_on_c, 6, 70, 96
7, 111645, Note_on_c, 6, 70, 0
7, 111660, Note_on_c, 6, 70, 96
7, 111705, Note_on_c, 6, 70, 0
7, 111720, Note_on_c, 6, 67, 96
7, 111765, Note_on_c, 6, 67, 0
7, 111780, Note_on_c, 6, 67, 96
7, 111825, Note_on_c, 6, 67, 0
7, 111840, Note_on_c, 6, 68, 96
7, 112020, Note_on_c, 6, 68, 0
7, 112620, Note_on_c, 6, 61, 96
7, 112665, Note_on_c, 6, 61, 0
7, 112680, Note_on_c, 6, 59, 96
7, 112725, Note_on_c, 6, 59, 0
7, 112740, Note_on_c, 6, 61, 96
7, 112785, Note_on_c, 6, 61, 0
7, 112800, Note_on_c, 6, 57, 96
7, 112980, Note_on_c, 6, 57, 0
7, 113100, Note_on_c, 6, 73, 96
7, 113145, Note_on_c, 6, 73, 0
7, 113160, Note_on_c, 6, 71, 96
7, 113205, Note_on_c, 6, 71, 0
7, 113220, Note_on_c, 6, 73, 96
7, 113265, Note_on_c, 6, 73, 0
7, 113280, Note_on_c, 6, 69, 96
7, 113460, Note_on_c, 6, 69, 0
7, 113580, Note_on_c, 6, 76, 96
7, 113625, Note_on_c, 6, 76, 0
7, 113640, Note_on_c, 6, 74, 96
7, 113685, Note_on_c, 6, 74, 0
7, 113700, Note_on_c, 6, 76, 96
7, 113745, Note_on_c, 6, 76, 0
7, 113760, Note_on_c, 6, 73, 96
7, 113940, Note_on_c, 6, 73, 0
7, 114060, Note_on_c, 6, 73, 96
7, 114105, Note_on_c, 6, 73, 0
7, 114120, Note_on_c, 6, 71, 96
7, 114165, Note_on_c, 6, 71, 0
7, 114180, Note_on_c, 6, 73, 96
7, 114225, Note_on_c, 6, 73, 0
7, 114240, Note_on_c, 6, 70, 96
7, 114420, Note_on_c, 6, 70, 0
7, 114540, Note_on_c, 6, 73, 96
7, 114585, Note_on_c, 6, 73, 0
7, 114600, Note_on_c, 6, 71, 96
7, 114645, Note_on_c, 6, 71, 0
7, 114660, Note_on_c, 6, 73, 96
7, 114705, Note_on_c, 6, 73, 0
7, 114720, Note_on_c, 6, 70, 96
7, 115080, Note_on_c, 6, 70, 0
7, 117120, Note_on_c, 6, 59, 96
7, 117240, Note_on_c, 6, 59, 0
7, 117360, Note_on_c, 6, 64, 96
7, 117480, Note_on_c, 6, 64, 0
7, 117600, Note_on_c, 6, 68, 96
7, 117840, Note_on_c, 6, 68, 0
7, 117960, Note_on_c, 6, 64, 96
7, 118020, Note_on_c, 6, 64, 0
7, 118020, Note_on_c, 6, 66, 96
7, 118080, Note_on_c, 6, 66, 0
7, 118080, Note_on_c, 6, 68, 96
7, 118170, Note_on_c, 6, 68, 0
7, 118200, Note_on_c, 6, 64, 96
7, 118245, Note_on_c, 6, 64, 0
7, 118260, Note_on_c, 6, 66, 96
7, 118305, Note_on_c, 6, 66, 0
7, 118320, Note_on_c, 6, 68, 96
7, 118410, Note_on_c, 6, 68, 0
7, 118440, Note_on_c, 6, 71, 96
7, 118530, Note_on_c, 6, 71, 0
7, 118560, Note_on_c, 6, 68, 96
7, 118650, Note_on_c, 6, 68, 0
7, 118680, Note_on_c, 6, 64, 96
7, 118770, Note_on_c, 6, 64, 0
7, 118800, Note_on_c, 6, 64, 96
7, 118890, Note_on_c, 6, 64, 0
7, 118920, Note_on_c, 6, 68, 96
7, 119130, Note_on_c, 6, 68, 0
7, 119160, Note_on_c, 6, 66, 96
7, 119340, Note_on_c, 6, 66, 0
7, 119400, Note_on_c, 6, 64, 96
7, 119490, Note_on_c, 6, 64, 0
7, 119520, Note_on_c, 6, 63, 96
7, 119700, Note_on_c, 6, 63, 0
7, 120000, Note_on_c, 6, 75, 96
7, 120045, Note_on_c, 6, 75, 0
7, 120060, Note_on_c, 6, 75, 96
7, 120105, Note_on_c, 6, 75, 0
7, 120120, Note_on_c, 6, 75, 96
7, 120165, Note_on_c, 6, 75, 0
7, 120180, Note_on_c, 6, 75, 96
7, 120225, Note_on_c, 6, 75, 0
7, 120240, Note_on_c, 6, 75, 96
7, 120285, Note_on_c, 6, 75, 0
7, 120300, Note_on_c, 6, 75, 96
7, 120345, Note_on_c, 6, 75, 0
7, 120360, Note_on_c, 6, 75, 96
7, 120405, Note_on_c, 6, 75, 0
7, 120420, Note_on_c, 6, 75, 96
7, 120465, Note_on_c, 6, 75, 0
7, 120480, Note_on_c, 6, 73, 96
7, 120600, Note_on_c, 6, 73, 0
7, 120960, Note_on_c, 6, 73, 96
7, 121005, Note_on_c, 6, 73, 0
7, 121020, Note_on_c, 6, 73, 96
7, 121065, Note_on_c, 6, 73, 0
7, 121080, Note_on_c, 6, 73, 96
7, 121125, Note_on_c, 6, 73, 0
7, 121140, Note_on_c, 6, 73, 96
7, 121185, Note_on_c, 6, 73, 0
7, 121200, Note_on_c, 6, 73, 96
7, 121245, Note_on_c, 6, 73, 0
7, 121260, Note_on_c, 6, 73, 96
7, 121305, Note_on_c, 6, 73, 0
7, 121320, Note_on_c, 6, 73, 96
7, 121365, Note_on_c, 6, 73, 0
7, 121380, Note_on_c, 6, 73, 96
7, 121425, Note_on_c, 6, 73, 0
7, 121440, Note_on_c, 6, 75, 96
7, 121560, Note_on_c, 6, 75, 0
7, 121920, Note_on_c, 6, 76, 96
7, 121965, Note_on_c, 6, 76, 0
7, 121980, Note_on_c, 6, 76, 96
7, 122025, Note_on_c, 6, 76, 0
7, 122040, Note_on_c, 6, 76, 96
7, 122085, Note_on_c, 6, 76, 0
7, 122100, Note_on_c, 6, 76, 96
7, 122145, Note_on_c, 6, 76, 0
7, 122160, Note_on_c, 6, 76, 96
7, 122205, Note_on_c, 6, 76, 0
7, 122220, Note_on_c, 6, 76, 96
7, 122265, Note_on_c, 6, 76, 0
7, 122280, Note_on_c, 6, 76, 96
7, 122325, Note_on_c, 6, 76, 0
7, 122340, Note_on_c, 6, 76, 96
7, 122385, Note_on_c, 6, 76, 0
7, 122400, Note_on_c, 6, 76, 96
7, 122580, Note_on_c, 6, 76, 0
7, 122640, Note_on_c, 6, 75, 96
7, 122820, Note_on_c, 6, 75, 0
7, 122880, Note_on_c, 6, 73, 96
7, 123060, Note_on_c, 6, 73, 0
7, 123120, Note_on_c, 6, 71, 96
7, 123300, Note_on_c, 6, 71, 0
7, 123360, Note_on_c, 6, 69, 96
7, 123540, Note_on_c, 6, 69, 0
7, 123600, Note_on_c, 6, 66, 96
7, 123690, Note_on_c, 6, 66, 0
7, 123720, Note_on_c, 6, 68, 96
7, 123810, Note_on_c, 6, 68, 0
7, 123840, Note_on_c, 6, 69, 96
7, 123930, Note_on_c, 6, 69, 0
7, 123960, Note_on_c, 6, 66, 96
7, 124005, Note_on_c, 6, 66, 0
7, 124020, Note_on_c, 6, 68, 96
7, 124065, Note_on_c, 6, 68, 0
7, 124080, Note_on_c, 6, 69, 96
7, 124170, Note_on_c, 6, 69, 0
7, 124200, Note_on_c, 6, 66, 96
7, 124245, Note_on_c, 6, 66, 0
7, 124260, Note_on_c, 6, 68, 96
7, 124305, Note_on_c, 6, 68, 0
7, 124320, Note_on_c, 6, 69, 96
7, 124560, Note_on_c, 6, 69, 0
7, 124680, Note_on_c, 6, 78, 96
7, 124770, Note_on_c, 6, 78, 0
7, 124800, Note_on_c, 6, 76, 96
7, 124890, Note_on_c, 6, 76, 0
7, 124920, Note_on_c, 6, 71, 96
7, 125010, Note_on_c, 6, 71, 0
7, 125040, Note_on_c, 6, 73, 96
7, 125130, Note_on_c, 6, 73, 0
7, 125160, Note_on_c, 6, 71, 96
7, 125250, Note_on_c, 6, 71, 0
7, 125280, Note_on_c, 6, 64, 96
7, 125370, Note_on_c, 6, 64, 0
7, 125400, Note_on_c, 6, 71, 96
7, 125580, Note_on_c, 6, 71, 0
7, 125640, Note_on_c, 6, 69, 96
7, 125730, Note_on_c, 6, 69, 0
7, 125760, Note_on_c, 6, 68, 96
7, 125850, Note_on_c, 6, 68, 0
7, 125880, Note_on_c, 6, 71, 96
7, 126060, Note_on_c, 6, 71, 0
7, 126120, Note_on_c, 6, 69, 96
7, 126210, Note_on_c, 6, 69, 0
7, 126240, Note_on_c, 6, 68, 96
7, 126330, Note_on_c, 6, 68, 0
7, 126360, Note_on_c, 6, 75, 96
7, 126405, Note_on_c, 6, 75, 0
7, 126420, Note_on_c, 6, 75, 96
7, 126465, Note_on_c, 6, 75, 0
7, 126480, Note_on_c, 6, 76, 96
7, 126525, Note_on_c, 6, 76, 0
7, 126540, Note_on_c, 6, 76, 96
7, 126585, Note_on_c, 6, 76, 0
7, 126600, Note_on_c, 6, 78, 96
7, 126645, Note_on_c, 6, 78, 0
7, 126660, Note_on_c, 6, 78, 96
7, 126705, Note_on_c, 6, 78, 0
7, 126720, Note_on_c, 6, 71, 96
7, 126810, Note_on_c, 6, 71, 0
7, 126840, Note_on_c, 6, 73, 96
7, 126930, Note_on_c, 6, 73, 0
7, 126960, Note_on_c, 6, 73, 96
7, 127050, Note_on_c, 6, 73, 0
7, 127080, Note_on_c, 6, 71, 96
7, 127170, Note_on_c, 6, 71, 0
7, 127200, Note_on_c, 6, 71, 96
7, 127440, Note_on_c, 6, 71, 0
7, 127560, Note_on_c, 6, 64, 96
7, 127605, Note_on_c, 6, 64, 0
7, 127620, Note_on_c, 6, 66, 96
7, 127665, Note_on_c, 6, 66, 0
7, 127680, Note_on_c, 6, 68, 96
7, 127770, Note_on_c, 6, 68, 0
7, 127800, Note_on_c, 6, 59, 96
7, 127890, Note_on_c, 6, 59, 0
7, 127920, Note_on_c, 6, 64, 96
7, 128010, Note_on_c, 6, 64, 0
7, 128040, Note_on_c, 6, 64, 96
7, 128085, Note_on_c, 6, 64, 0
7, 128100, Note_on_c, 6, 66, 96
7, 128145, Note_on_c, 6, 66, 0
7, 128160, Note_on_c, 6, 68, 96
7, 128250, Note_on_c, 6, 68, 0
7, 128280, Note_on_c, 6, 68, 96
7, 128325, Note_on_c, 6, 68, 0
7, 128340, Note_on_c, 6, 66, 96
7, 128385, Note_on_c, 6, 66, 0
7, 128400, Note_on_c, 6, 64, 96
7, 128490, Note_on_c, 6, 64, 0
7, 128520, Note_on_c, 6, 59, 96
7, 128610, Note_on_c, 6, 59, 0
7, 130560, Note_on_c, 6, 59, 96
7, 130680, Note_on_c, 6, 59, 0
7, 130800, Note_on_c, 6, 64, 96
7, 130920, Note_on_c, 6, 64, 0
7, 131040, Note_on_c, 6, 68, 96
7, 131280, Note_on_c, 6, 68, 0
7, 131400, Note_on_c, 6, 64, 96
7, 131445, Note_on_c, 6, 64, 0
7, 131460, Note_on_c, 6, 66, 96
7, 131505, Note_on_c, 6, 66, 0
7, 131520, Note_on_c, 6, 68, 96
7, 131610, Note_on_c, 6, 68, 0
7, 131640, Note_on_c, 6, 64, 96
7, 131685, Note_on_c, 6, 64, 0
7, 131700, Note_on_c, 6, 66, 96
7, 131745, Note_on_c, 6, 66, 0
7, 131760, Note_on_c, 6, 68, 96
7, 131850, Note_on_c, 6, 68, 0
7, 131880, Note_on_c, 6, 71, 96
7, 131970, Note_on_c, 6, 71, 0
7, 132000, Note_on_c, 6, 68, 96
7, 132090, Note_on_c, 6, 68, 0
7, 132120, Note_on_c, 6, 64, 96
7, 132210, Note_on_c, 6, 64, 0
7, 132240, Note_on_c, 6, 64, 96
7, 132330, Note_on_c, 6, 64, 0
7, 132360, Note_on_c, 6, 68, 96
7, 132570, Note_on_c, 6, 68, 0
7, 132600, Note_on_c, 6, 66, 96
7, 132780, Note_on_c, 6, 66, 0
7, 132840, Note_on_c, 6, 64, 96
7, 132930, Note_on_c, 6, 64, 0
7, 132960, Note_on_c, 6, 63, 96
7, 133140, Note_on_c, 6, 63, 0
7, 133440, Note_on_c, 6, 59, 96
7, 133560, Note_on_c, 6, 59, 0
7, 133680, Note_on_c, 6, 63, 96
7, 133800, Note_on_c, 6, 63, 0
7, 133920, Note_on_c, 6, 66, 96
7, 134160, Note_on_c, 6, 66, 0
7, 134400, Note_on_c, 6, 63, 80
7, 134520, Note_on_c, 6, 63, 0
7, 134640, Note_on_c, 6, 66, 80
7, 134760, Note_on_c, 6, 66, 0
7, 134880, Note_on_c, 6, 71, 80
7, 135120, Note_on_c, 6, 71, 0
7, 135720, Note_on_c, 6, 71, 96
7, 135765, Note_on_c, 6, 71, 0
7, 135780, Note_on_c, 6, 73, 96
7, 135825, Note_on_c, 6, 73, 0
7, 135840, Note_on_c, 6, 75, 96
7, 135930, Note_on_c, 6, 75, 0
7, 135960, Note_on_c, 6, 71, 96
7, 136005, Note_on_c, 6, 71, 0
7, 136020, Note_on_c, 6, 73, 96
7, 136065, Note_on_c, 6, 73, 0
7, 136080, Note_on_c, 6, 75, 96
7, 136170, Note_on_c, 6, 75, 0
7, 136200, Note_on_c, 6, 78, 96
7, 136290, Note_on_c, 6, 78, 0
7, 136320, Note_on_c, 6, 75, 96
7, 136410, Note_on_c, 6, 75, 0
7, 136440, Note_on_c, 6, 71, 96
7, 136620, Note_on_c, 6, 71, 0
7, 136680, Note_on_c, 6, 66, 96
7, 136770, Note_on_c, 6, 66, 0
7, 136800, Note_on_c, 6, 63, 96
7, 137760, Note_on_c, 6, 63, 0
7, 138840, Note_on_c, 6, 63, 96
7, 138930, Note_on_c, 6, 63, 0
7, 139080, Note_on_c, 6, 63, 96
7, 139170, Note_on_c, 6, 63, 0
7, 139320, Note_on_c, 6, 63, 96
7, 139410, Note_on_c, 6, 63, 0
7, 139560, Note_on_c, 6, 61, 96
7, 139650, Note_on_c, 6, 61, 0
7, 139680, Note_on_c, 6, 61, 96
7, 139860, Note_on_c, 6, 61, 0
7, 140160, Note_on_c, 6, 70, 96
7, 140205, Note_on_c, 6, 70, 0
7, 140220, Note_on_c, 6, 70, 96
7, 140265, Note_on_c, 6, 70, 0
7, 140280, Note_on_c, 6, 70, 96
7, 140325, Note_on_c, 6, 70, 0
7, 140340, Note_on_c, 6, 70, 96
7, 140385, Note_on_c, 6, 70, 0
7, 140400, Note_on_c, 6, 70, 96
7, 140445, Note_on_c, 6, 70, 0
7, 140460, Note_on_c, 6, 70, 96
7, 140505, Note_on_c, 6, 70, 0
7, 140520, Note_on_c, 6, 70, 96
7, 140565, Note_on_c, 6, 70, 0
7, 140580, Note_on_c, 6, 70, 96
7, 140625, Note_on_c, 6, 70, 0
7, 140640, Note_on_c, 6, 72, 96
7, 140760, Note_on_c, 6, 72, 0
7, 141120, Note_on_c, 6, 73, 96
7, 141165, Note_on_c, 6, 73, 0
7, 141180, Note_on_c, 6, 73, 96
7, 141225, Note_on_c, 6, 73, 0
7, 141240, Note_on_c, 6, 73, 96
7, 141285, Note_on_c, 6, 73, 0
7, 141300, Note_on_c, 6, 73, 96
7, 141345, Note_on_c, 6, 73, 0
7, 141360, Note_on_c, 6, 71, 96
7, 141405, Note_on_c, 6, 71, 0
7, 141420, Note_on_c, 6, 71, 96
7, 141465, Note_on_c, 6, 71, 0
7, 141480, Note_on_c, 6, 71, 96
7, 141525, Note_on_c, 6, 71, 0
7, 141540, Note_on_c, 6, 71, 96
7, 141585, Note_on_c, 6, 71, 0
7, 141600, Note_on_c, 6, 70, 96
7, 141720, Note_on_c, 6, 70, 0
7, 142080, Note_on_c, 6, 71, 96
7, 142125, Note_on_c, 6, 71, 0
7, 142140, Note_on_c, 6, 71, 96
7, 142185, Note_on_c, 6, 71, 0
7, 142200, Note_on_c, 6, 71, 96
7, 142245, Note_on_c, 6, 71, 0
7, 142260, Note_on_c, 6, 71, 96
7, 142305, Note_on_c, 6, 71, 0
7, 142320, Note_on_c, 6, 71, 96
7, 142365, Note_on_c, 6, 71, 0
7, 142380, Note_on_c, 6, 71, 96
7, 142425, Note_on_c, 6, 71, 0
7, 142440, Note_on_c, 6, 71, 96
7, 142485, Note_on_c, 6, 71, 0
7, 142500, Note_on_c, 6, 71, 96
7, 142545, Note_on_c, 6, 71, 0
7, 142560, Note_on_c, 6, 71, 96
7, 142740, Note_on_c, 6, 71, 0
7, 142800, Note_on_c, 6, 70, 96
7, 142980, Note_on_c, 6, 70, 0
7, 143040, Note_on_c, 6, 68, 96
7, 143220, Note_on_c, 6, 68, 0
7, 143280, Note_on_c, 6, 66, 96
7, 143460, Note_on_c, 6, 66, 0
7, 143520, Note_on_c, 6, 64, 96
7, 143700, Note_on_c, 6, 64, 0
7, 143760, Note_on_c, 6, 61, 96
7, 143850, Note_on_c, 6, 61, 0
7, 143880, Note_on_c, 6, 63, 96
7, 143970, Note_on_c, 6, 63, 0
7, 144000, Note_on_c, 6, 64, 96
7, 144090, Note_on_c, 6, 64, 0
7, 144120, Note_on_c, 6, 61, 96
7, 144165, Note_on_c, 6, 61, 0
7, 144180, Note_on_c, 6, 63, 96
7, 144225, Note_on_c, 6, 63, 0
7, 144240, Note_on_c, 6, 64, 96
7, 144330, Note_on_c, 6, 64, 0
7, 144360, Note_on_c, 6, 61, 96
7, 144405, Note_on_c, 6, 61, 0
7, 144420, Note_on_c, 6, 59, 96
7, 144465, Note_on_c, 6, 59, 0
7, 144480, Note_on_c, 6, 58, 96
7, 144660, Note_on_c, 6, 58, 0
7, 144840, Note_on_c, 6, 73, 96
7, 144930, Note_on_c, 6, 73, 0
7, 144960, Note_on_c, 6, 71, 96
7, 145050, Note_on_c, 6, 71, 0
7, 145080, Note_on_c, 6, 66, 96
7, 145170, Note_on_c, 6, 66, 0
7, 145200, Note_on_c, 6, 68, 96
7, 145290, Note_on_c, 6, 68, 0
7, 145320, Note_on_c, 6, 66, 96
7, 145410, Note_on_c, 6, 66, 0
7, 145440, Note_on_c, 6, 66, 96
7, 145620, Note_on_c, 6, 66, 0
7, 146040, Note_on_c, 6, 66, 96
7, 146085, Note_on_c, 6, 66, 0
7, 146100, Note_on_c, 6, 66, 96
7, 146145, Note_on_c, 6, 66, 0
7, 146160, Note_on_c, 6, 68, 96
7, 146205, Note_on_c, 6, 68, 0
7, 146220, Note_on_c, 6, 68, 96
7, 146265, Note_on_c, 6, 68, 0
7, 146280, Note_on_c, 6, 70, 96
7, 146325, Note_on_c, 6, 70, 0
7, 146340, Note_on_c, 6, 70, 96
7, 146385, Note_on_c, 6, 70, 0
7, 146400, Note_on_c, 6, 71, 96
7, 146580, Note_on_c, 6, 71, 0
7, 147480, Note_on_c, 6, 66, 96
7, 147525, Note_on_c, 6, 66, 0
7, 147540, Note_on_c, 6, 66, 96
7, 147585, Note_on_c, 6, 66, 0
7, 147600, Note_on_c, 6, 68, 96
7, 147645, Note_on_c, 6, 68, 0
7, 147660, Note_on_c, 6, 68, 96
7, 147705, Note_on_c, 6, 68, 0
7, 147720, Note_on_c, 6, 70, 96
7, 147765, Note_on_c, 6, 70, 0
7, 147780, Note_on_c, 6, 70, 96
7, 147825, Note_on_c, 6, 70, 0
7, 147840, Note_on_c, 6, 71, 96
7, 147930, Note_on_c, 6, 71, 0
7, 147960, Note_on_c, 6, 66, 96
7, 148140, Note_on_c, 6, 66, 0
7, 148200, Note_on_c, 6, 64, 96
7, 148290, Note_on_c, 6, 64, 0
7, 148320, Note_on_c, 6, 63, 96
7, 148410, Note_on_c, 6, 63, 0
7, 148440, Note_on_c, 6, 66, 96
7, 148485, Note_on_c, 6, 66, 0
7, 148500, Note_on_c, 6, 66, 96
7, 148545, Note_on_c, 6, 66, 0
7, 148560, Note_on_c, 6, 71, 96
7, 148605, Note_on_c, 6, 71, 0
7, 148620, Note_on_c, 6, 71, 96
7, 148665, Note_on_c, 6, 71, 0
7, 148680, Note_on_c, 6, 73, 96
7, 148725, Note_on_c, 6, 73, 0
7, 148740, Note_on_c, 6, 73, 96
7, 148785, Note_on_c, 6, 73, 0
7, 148800, Note_on_c, 6, 71, 96
7, 148890, Note_on_c, 6, 71, 0
7, 148920, Note_on_c, 6, 63, 96
7, 149010, Note_on_c, 6, 63, 0
7, 149040, Note_on_c, 6, 68, 96
7, 149130, Note_on_c, 6, 68, 0
7, 149160, Note_on_c, 6, 66, 96
7, 149250, Note_on_c, 6, 66, 0
7, 149280, Note_on_c, 6, 66, 96
7, 149520, Note_on_c, 6, 66, 0
7, 149760, Note_on_c, 6, 59, 96
7, 149880, Note_on_c, 6, 59, 0
7, 150000, Note_on_c, 6, 64, 96
7, 150120, Note_on_c, 6, 64, 0
7, 150240, Note_on_c, 6, 68, 96
7, 150480, Note_on_c, 6, 68, 0
7, 150720, Note_on_c, 6, 64, 96
7, 150840, Note_on_c, 6, 64, 0
7, 150960, Note_on_c, 6, 68, 96
7, 151080, Note_on_c, 6, 68, 0
7, 151200, Note_on_c, 6, 71, 96
7, 151440, Note_on_c, 6, 71, 0
7, 151680, Note_on_c, 6, 68, 80
7, 151800, Note_on_c, 6, 68, 0
7, 151920, Note_on_c, 6, 71, 80
7, 152040, Note_on_c, 6, 71, 0
7, 152160, Note_on_c, 6, 76, 80
7, 152400, Note_on_c, 6, 76, 0
7, 153000, Note_on_c, 6, 64, 96
7, 153045, Note_on_c, 6, 64, 0
7, 153060, Note_on_c, 6, 66, 96
7, 153105, Note_on_c, 6, 66, 0
7, 153120, Note_on_c, 6, 68, 96
7, 153192, Note_on_c, 6, 68, 0
7, 153240, Note_on_c, 6, 64, 96
7, 153285, Note_on_c, 6, 64, 0
7, 153300, Note_on_c, 6, 66, 96
7, 153345, Note_on_c, 6, 66, 0
7, 153360, Note_on_c, 6, 68, 96
7, 153450, Note_on_c, 6, 68, 0
7, 153480, Note_on_c, 6, 71, 96
7, 153570, Note_on_c, 6, 71, 0
7, 153600, Note_on_c, 6, 68, 96
7, 153690, Note_on_c, 6, 68, 0
7, 153720, Note_on_c, 6, 64, 96
7, 153810, Note_on_c, 6, 64, 0
7, 153840, Note_on_c, 6, 64, 96
7, 153930, Note_on_c, 6, 64, 0
7, 153960, Note_on_c, 6, 59, 96
7, 154050, Note_on_c, 6, 59, 0
7, 154080, Note_on_c, 6, 56, 96
7, 155040, Note_on_c, 6, 56, 0
7, 156120, Note_on_c, 6, 68, 96
7, 156210, Note_on_c, 6, 68, 0
7, 156360, Note_on_c, 6, 68, 96
7, 156450, Note_on_c, 6, 68, 0
7, 156600, Note_on_c, 6, 68, 96
7, 156690, Note_on_c, 6, 68, 0
7, 156840, Note_on_c, 6, 66, 96
7, 156930, Note_on_c, 6, 66, 0
7, 156960, Note_on_c, 6, 66, 96
7, 157200, Note_on_c, 6, 66, 0
7, 157440, Note_on_c, 6, 75, 96
7, 157485, Note_on_c, 6, 75, 0
7, 157500, Note_on_c, 6, 75, 96
7, 157545, Note_on_c, 6, 75, 0
7, 157560, Note_on_c, 6, 75, 96
7, 157605, Note_on_c, 6, 75, 0
7, 157620, Note_on_c, 6, 75, 96
7, 157665, Note_on_c, 6, 75, 0
7, 157680, Note_on_c, 6, 75, 96
7, 157725, Note_on_c, 6, 75, 0
7, 157740, Note_on_c, 6, 75, 96
7, 157785, Note_on_c, 6, 75, 0
7, 157800, Note_on_c, 6, 75, 96
7, 157845, Note_on_c, 6, 75, 0
7, 157860, Note_on_c, 6, 75, 96
7, 157905, Note_on_c, 6, 75, 0
7, 157920, Note_on_c, 6, 73, 96
7, 158040, Note_on_c, 6, 73, 0
7, 158400, Note_on_c, 6, 73, 96
7, 158445, Note_on_c, 6, 73, 0
7, 158460, Note_on_c, 6, 73, 96
7, 158505, Note_on_c, 6, 73, 0
7, 158520, Note_on_c, 6, 73, 96
7, 158565, Note_on_c, 6, 73, 0
7, 158580, Note_on_c, 6, 73, 96
7, 158625, Note_on_c, 6, 73, 0
7, 158640, Note_on_c, 6, 73, 96
7, 158685, Note_on_c, 6, 73, 0
7, 158700, Note_on_c, 6, 73, 96
7, 158745, Note_on_c, 6, 73, 0
7, 158760, Note_on_c, 6, 73, 96
7, 158805, Note_on_c, 6, 73, 0
7, 158820, Note_on_c, 6, 73, 96
7, 158865, Note_on_c, 6, 73, 0
7, 158880, Note_on_c, 6, 75, 96
7, 159000, Note_on_c, 6, 75, 0
7, 159360, Note_on_c, 6, 76, 96
7, 159405, Note_on_c, 6, 76, 0
7, 159420, Note_on_c, 6, 76, 96
7, 159465, Note_on_c, 6, 76, 0
7, 159480, Note_on_c, 6, 76, 96
7, 159525, Note_on_c, 6, 76, 0
7, 159540, Note_on_c, 6, 76, 96
7, 159585, Note_on_c, 6, 76, 0
7, 159600, Note_on_c, 6, 76, 96
7, 159645, Note_on_c, 6, 76, 0
7, 159660, Note_on_c, 6, 76, 96
7, 159705, Note_on_c, 6, 76, 0
7, 159720, Note_on_c, 6, 76, 96
7, 159765, Note_on_c, 6, 76, 0
7, 159780, Note_on_c, 6, 76, 96
7, 159825, Note_on_c, 6, 76, 0
7, 159840, Note_on_c, 6, 76, 96
7, 160020, Note_on_c, 6, 76, 0
7, 160080, Note_on_c, 6, 75, 96
7, 160260, Note_on_c, 6, 75, 0
7, 160320, Note_on_c, 6, 73, 96
7, 160500, Note_on_c, 6, 73, 0
7, 160560, Note_on_c, 6, 71, 96
7, 160740, Note_on_c, 6, 71, 0
7, 160800, Note_on_c, 6, 69, 96
7, 160980, Note_on_c, 6, 69, 0
7, 161040, Note_on_c, 6, 66, 96
7, 161130, Note_on_c, 6, 66, 0
7, 161160, Note_on_c, 6, 68, 96
7, 161250, Note_on_c, 6, 68, 0
7, 161280, Note_on_c, 6, 69, 96
7, 161370, Note_on_c, 6, 69, 0
7, 161400, Note_on_c, 6, 66, 96
7, 161445, Note_on_c, 6, 66, 0
7, 161460, Note_on_c, 6, 68, 96
7, 161505, Note_on_c, 6, 68, 0
7, 161520, Note_on_c, 6, 69, 96
7, 161610, Note_on_c, 6, 69, 0
7, 161640, Note_on_c, 6, 66, 96
7, 161685, Note_on_c, 6, 66, 0
7, 161700, Note_on_c, 6, 68, 96
7, 161745, Note_on_c, 6, 68, 0
7, 161760, Note_on_c, 6, 69, 96
7, 161940, Note_on_c, 6, 69, 0
7, 162120, Note_on_c, 6, 78, 96
7, 162210, Note_on_c, 6, 78, 0
7, 162240, Note_on_c, 6, 76, 96
7, 162330, Note_on_c, 6, 76, 0
7, 162360, Note_on_c, 6, 71, 96
7, 162450, Note_on_c, 6, 71, 0
7, 162480, Note_on_c, 6, 73, 96
7, 162570, Note_on_c, 6, 73, 0
7, 162600, Note_on_c, 6, 71, 96
7, 162690, Note_on_c, 6, 71, 0
7, 162720, Note_on_c, 6, 71, 96
7, 162900, Note_on_c, 6, 71, 0
7, 163320, Note_on_c, 6, 71, 96
7, 163365, Note_on_c, 6, 71, 0
7, 163380, Note_on_c, 6, 71, 96
7, 163425, Note_on_c, 6, 71, 0
7, 163440, Note_on_c, 6, 73, 96
7, 163485, Note_on_c, 6, 73, 0
7, 163500, Note_on_c, 6, 73, 96
7, 163545, Note_on_c, 6, 73, 0
7, 163560, Note_on_c, 6, 75, 96
7, 163605, Note_on_c, 6, 75, 0
7, 163620, Note_on_c, 6, 75, 96
7, 163665, Note_on_c, 6, 75, 0
7, 163680, Note_on_c, 6, 76, 96
7, 163860, Note_on_c, 6, 76, 0
7, 164760, Note_on_c, 6, 71, 96
7, 164805, Note_on_c, 6, 71, 0
7, 164820, Note_on_c, 6, 71, 96
7, 164865, Note_on_c, 6, 71, 0
7, 164880, Note_on_c, 6, 73, 96
7, 164925, Note_on_c, 6, 73, 0
7, 164940, Note_on_c, 6, 73, 96
7, 164985, Note_on_c, 6, 73, 0
7, 165000, Note_on_c, 6, 75, 96
7, 165045, Note_on_c, 6, 75, 0
7, 165060, Note_on_c, 6, 75, 96
7, 165105, Note_on_c, 6, 75, 0
7, 165120, Note_on_c, 6, 76, 96
7, 165210, Note_on_c, 6, 76, 0
7, 165240, Note_on_c, 6, 71, 96
7, 165420, Note_on_c, 6, 71, 0
7, 165480, Note_on_c, 6, 69, 96
7, 165570, Note_on_c, 6, 69, 0
7, 165600, Note_on_c, 6, 68, 96
7, 165690, Note_on_c, 6, 68, 0
7, 165720, Note_on_c, 6, 71, 96
7, 165765, Note_on_c, 6, 71, 0
7, 165780, Note_on_c, 6, 71, 96
7, 165825, Note_on_c, 6, 71, 0
7, 165840, Note_on_c, 6, 76, 96
7, 165885, Note_on_c, 6, 76, 0
7, 165900, Note_on_c, 6, 76, 96
7, 165945, Note_on_c, 6, 76, 0
7, 165960, Note_on_c, 6, 78, 96
7, 166005, Note_on_c, 6, 78, 0
7, 166020, Note_on_c, 6, 78, 96
7, 166065, Note_on_c, 6, 78, 0
7, 166080, Note_on_c, 6, 76, 96
7, 166170, Note_on_c, 6, 76, 0
7, 166200, Note_on_c, 6, 68, 96
7, 166290, Note_on_c, 6, 68, 0
7, 166320, Note_on_c, 6, 73, 96
7, 166410, Note_on_c, 6, 73, 0
7, 166440, Note_on_c, 6, 71, 96
7, 166530, Note_on_c, 6, 71, 0
7, 166560, Note_on_c, 6, 71, 96
7, 166800, Note_on_c, 6, 71, 0
7, 166800, End_track
8, 0, Start_track
8, 0, MIDI_port, 0
8, 0, Title_t, "acc. Eureka, MT 6/20/95"
8, 0, Program_c, 7, 48
8, 0, Control_c, 7, 7, 96
8, 0, Control_c, 7, 10, 80
8, 0, Note_on_c, 7, 56, 96
8, 132, Note_on_c, 7, 56, 0
8, 240, Note_on_c, 7, 59, 96
8, 372, Note_on_c, 7, 59, 0
8, 480, Note_on_c, 7, 64, 96
8, 720, Note_on_c, 7, 64, 0
8, 840, Note_on_c, 7, 59, 96
8, 960, Note_on_c, 7, 59, 0
8, 960, Note_on_c, 7, 64, 112
8, 1026, Note_on_c, 7, 64, 0
8, 1080, Note_on_c, 7, 59, 96
8, 1200, Note_on_c, 7, 59, 0
8, 1200, Note_on_c, 7, 64, 112
8, 1266, Note_on_c, 7, 64, 0
8, 1320, Note_on_c, 7, 59, 96
8, 1386, Note_on_c, 7, 59, 0
8, 1440, Note_on_c, 7, 64, 112
8, 1506, Note_on_c, 7, 64, 0
8, 1560, Note_on_c, 7, 59, 96
8, 1680, Note_on_c, 7, 59, 0
8, 1680, Note_on_c, 7, 59, 112
8, 1746, Note_on_c, 7, 59, 0
8, 1800, Note_on_c, 7, 59, 96
8, 1920, Note_on_c, 7, 59, 0
8, 1920, Note_on_c, 7, 64, 96
8, 2040, Note_on_c, 7, 64, 0
8, 2040, Note_on_c, 7, 63, 96
8, 2160, Note_on_c, 7, 63, 0
8, 2160, Note_on_c, 7, 59, 96
8, 2280, Note_on_c, 7, 59, 0
8, 2280, Note_on_c, 7, 59, 96
8, 2400, Note_on_c, 7, 59, 0
8, 2400, Note_on_c, 7, 59, 96
8, 2532, Note_on_c, 7, 59, 0
8, 2880, Note_on_c, 7, 68, 96
8, 2928, Note_on_c, 7, 68, 0
8, 2940, Note_on_c, 7, 68, 96
8, 2988, Note_on_c, 7, 68, 0
8, 3000, Note_on_c, 7, 68, 96
8, 3048, Note_on_c, 7, 68, 0
8, 3060, Note_on_c, 7, 68, 96
8, 3108, Note_on_c, 7, 68, 0
8, 3120, Note_on_c, 7, 68, 96
8, 3168, Note_on_c, 7, 68, 0
8, 3180, Note_on_c, 7, 68, 96
8, 3228, Note_on_c, 7, 68, 0
8, 3240, Note_on_c, 7, 68, 96
8, 3288, Note_on_c, 7, 68, 0
8, 3300, Note_on_c, 7, 68, 96
8, 3348, Note_on_c, 7, 68, 0
8, 3360, Note_on_c, 7, 65, 96
8, 3504, Note_on_c, 7, 65, 0
8, 3840, Note_on_c, 7, 66, 96
8, 3888, Note_on_c, 7, 66, 0
8, 3900, Note_on_c, 7, 66, 96
8, 3948, Note_on_c, 7, 66, 0
8, 3960, Note_on_c, 7, 66, 96
8, 4008, Note_on_c, 7, 66, 0
8, 4020, Note_on_c, 7, 66, 96
8, 4068, Note_on_c, 7, 66, 0
8, 4080, Note_on_c, 7, 66, 96
8, 4128, Note_on_c, 7, 66, 0
8, 4140, Note_on_c, 7, 66, 96
8, 4188, Note_on_c, 7, 66, 0
8, 4200, Note_on_c, 7, 66, 96
8, 4248, Note_on_c, 7, 66, 0
8, 4260, Note_on_c, 7, 66, 96
8, 4308, Note_on_c, 7, 66, 0
8, 4320, Note_on_c, 7, 66, 96
8, 4464, Note_on_c, 7, 66, 0
8, 4800, Note_on_c, 7, 71, 96
8, 4848, Note_on_c, 7, 71, 0
8, 4860, Note_on_c, 7, 71, 96
8, 4908, Note_on_c, 7, 71, 0
8, 4920, Note_on_c, 7, 71, 96
8, 4968, Note_on_c, 7, 71, 0
8, 4980, Note_on_c, 7, 71, 96
8, 5028, Note_on_c, 7, 71, 0
8, 5040, Note_on_c, 7, 71, 96
8, 5100, Note_on_c, 7, 71, 0
8, 5100, Note_on_c, 7, 71, 96
8, 5160, Note_on_c, 7, 71, 0
8, 5160, Note_on_c, 7, 71, 96
8, 5220, Note_on_c, 7, 71, 0
8, 5220, Note_on_c, 7, 71, 96
8, 5280, Note_on_c, 7, 71, 0
8, 5280, Note_on_c, 7, 73, 96
8, 5472, Note_on_c, 7, 73, 0
8, 5520, Note_on_c, 7, 68, 96
8, 5712, Note_on_c, 7, 68, 0
8, 5760, Note_on_c, 7, 69, 96
8, 5880, Note_on_c, 7, 69, 0
8, 6000, Note_on_c, 7, 64, 96
8, 6120, Note_on_c, 7, 64, 0
8, 6240, Note_on_c, 7, 66, 96
8, 6360, Note_on_c, 7, 66, 0
8, 6480, Note_on_c, 7, 63, 96
8, 6600, Note_on_c, 7, 63, 0
8, 6600, Note_on_c, 7, 64, 96
8, 6720, Note_on_c, 7, 64, 0
8, 6720, Note_on_c, 7, 66, 96
8, 6840, Note_on_c, 7, 66, 0
8, 6840, Note_on_c, 7, 63, 96
8, 6900, Note_on_c, 7, 63, 0
8, 6900, Note_on_c, 7, 64, 96
8, 6960, Note_on_c, 7, 64, 0
8, 6960, Note_on_c, 7, 66, 96
8, 7080, Note_on_c, 7, 66, 0
8, 7080, Note_on_c, 7, 63, 96
8, 7140, Note_on_c, 7, 63, 0
8, 7140, Note_on_c, 7, 64, 96
8, 7200, Note_on_c, 7, 64, 0
8, 7200, Note_on_c, 7, 66, 96
8, 7440, Note_on_c, 7, 66, 0
8, 7560, Note_on_c, 7, 71, 96
8, 7680, Note_on_c, 7, 71, 0
8, 7680, Note_on_c, 7, 71, 96
8, 7800, Note_on_c, 7, 71, 0
8, 7800, Note_on_c, 7, 69, 96
8, 7860, Note_on_c, 7, 69, 0
8, 7860, Note_on_c, 7, 68, 96
8, 7920, Note_on_c, 7, 68, 0
8, 7920, Note_on_c, 7, 66, 96
8, 8040, Note_on_c, 7, 66, 0
8, 8040, Note_on_c, 7, 69, 96
8, 8160, Note_on_c, 7, 69, 0
8, 8160, Note_on_c, 7, 68, 96
8, 8244, Note_on_c, 7, 68, 0
8, 8280, Note_on_c, 7, 68, 96
8, 8520, Note_on_c, 7, 68, 0
8, 8520, Note_on_c, 7, 66, 96
8, 8640, Note_on_c, 7, 66, 0
8, 8640, Note_on_c, 7, 64, 96
8, 8736, Note_on_c, 7, 64, 0
8, 8760, Note_on_c, 7, 68, 96
8, 8952, Note_on_c, 7, 68, 0
8, 9000, Note_on_c, 7, 66, 96
8, 9096, Note_on_c, 7, 66, 0
8, 9120, Note_on_c, 7, 64, 96
8, 9216, Note_on_c, 7, 64, 0
8, 9240, Note_on_c, 7, 71, 96
8, 9288, Note_on_c, 7, 71, 0
8, 9300, Note_on_c, 7, 71, 96
8, 9348, Note_on_c, 7, 71, 0
8, 9360, Note_on_c, 7, 64, 96
8, 9408, Note_on_c, 7, 64, 0
8, 9420, Note_on_c, 7, 64, 96
8, 9468, Note_on_c, 7, 64, 0
8, 9480, Note_on_c, 7, 59, 96
8, 9528, Note_on_c, 7, 59, 0
8, 9540, Note_on_c, 7, 59, 96
8, 9588, Note_on_c, 7, 59, 0
8, 9600, Note_on_c, 7, 64, 96
8, 9696, Note_on_c, 7, 64, 0
8, 9720, Note_on_c, 7, 68, 96
8, 9816, Note_on_c, 7, 68, 0
8, 9840, Note_on_c, 7, 69, 96
8, 9936, Note_on_c, 7, 69, 0
8, 9960, Note_on_c, 7, 66, 96
8, 10056, Note_on_c, 7, 66, 0
8, 10080, Note_on_c, 7, 68, 96
8, 10320, Note_on_c, 7, 68, 0
8, 13440, Note_on_c, 7, 56, 96
8, 13560, Note_on_c, 7, 56, 0
8, 13680, Note_on_c, 7, 59, 96
8, 13800, Note_on_c, 7, 59, 0
8, 13920, Note_on_c, 7, 64, 96
8, 14160, Note_on_c, 7, 64, 0
8, 14280, Note_on_c, 7, 59, 96
8, 14400, Note_on_c, 7, 59, 0
8, 14400, Note_on_c, 7, 64, 112
8, 14460, Note_on_c, 7, 64, 0
8, 14520, Note_on_c, 7, 59, 96
8, 14616, Note_on_c, 7, 59, 0
8, 14640, Note_on_c, 7, 64, 112
8, 14736, Note_on_c, 7, 64, 0
8, 14760, Note_on_c, 7, 59, 96
8, 14820, Note_on_c, 7, 59, 0
8, 14880, Note_on_c, 7, 64, 112
8, 14940, Note_on_c, 7, 64, 0
8, 15000, Note_on_c, 7, 59, 96
8, 15096, Note_on_c, 7, 59, 0
8, 15120, Note_on_c, 7, 59, 96
8, 15216, Note_on_c, 7, 59, 0
8, 15240, Note_on_c, 7, 59, 96
8, 15336, Note_on_c, 7, 59, 0
8, 15360, Note_on_c, 7, 64, 96
8, 15456, Note_on_c, 7, 64, 0
8, 15480, Note_on_c, 7, 63, 96
8, 15576, Note_on_c, 7, 63, 0
8, 15600, Note_on_c, 7, 59, 96
8, 15696, Note_on_c, 7, 59, 0
8, 15720, Note_on_c, 7, 59, 96
8, 15816, Note_on_c, 7, 59, 0
8, 15840, Note_on_c, 7, 59, 96
8, 16032, Note_on_c, 7, 59, 0
8, 16080, Note_on_c, 7, 63, 96
8, 16272, Note_on_c, 7, 63, 0
8, 16320, Note_on_c, 7, 66, 96
8, 16512, Note_on_c, 7, 66, 0
8, 16800, Note_on_c, 7, 59, 80
8, 16920, Note_on_c, 7, 59, 0
8, 17040, Note_on_c, 7, 63, 80
8, 17160, Note_on_c, 7, 63, 0
8, 17280, Note_on_c, 7, 66, 80
8, 17520, Note_on_c, 7, 66, 0
8, 17760, Note_on_c, 7, 59, 64
8, 17880, Note_on_c, 7, 59, 0
8, 18000, Note_on_c, 7, 63, 64
8, 18120, Note_on_c, 7, 63, 0
8, 18240, Note_on_c, 7, 66, 64
8, 18480, Note_on_c, 7, 66, 0
8, 18600, Note_on_c, 7, 66, 96
8, 18696, Note_on_c, 7, 66, 0
8, 18720, Note_on_c, 7, 71, 112
8, 18792, Note_on_c, 7, 71, 0
8, 18840, Note_on_c, 7, 66, 96
8, 18936, Note_on_c, 7, 66, 0
8, 18960, Note_on_c, 7, 71, 112
8, 19032, Note_on_c, 7, 71, 0
8, 19080, Note_on_c, 7, 66, 96
8, 19152, Note_on_c, 7, 66, 0
8, 19200, Note_on_c, 7, 71, 112
8, 19296, Note_on_c, 7, 71, 0
8, 19320, Note_on_c, 7, 66, 96
8, 19416, Note_on_c, 7, 66, 0
8, 19440, Note_on_c, 7, 66, 96
8, 19536, Note_on_c, 7, 66, 0
8, 19560, Note_on_c, 7, 63, 96
8, 19656, Note_on_c, 7, 63, 0
8, 19680, Note_on_c, 7, 59, 96
8, 20640, Note_on_c, 7, 59, 0
8, 21720, Note_on_c, 7, 59, 96
8, 21804, Note_on_c, 7, 59, 0
8, 21960, Note_on_c, 7, 58, 96
8, 22044, Note_on_c, 7, 58, 0
8, 22200, Note_on_c, 7, 56, 96
8, 22320, Note_on_c, 7, 56, 0
8, 22440, Note_on_c, 7, 61, 96
8, 22560, Note_on_c, 7, 61, 0
8, 22560, Note_on_c, 7, 54, 96
8, 22680, Note_on_c, 7, 54, 0
8, 23040, Note_on_c, 7, 63, 96
8, 23088, Note_on_c, 7, 63, 0
8, 23100, Note_on_c, 7, 63, 96
8, 23148, Note_on_c, 7, 63, 0
8, 23160, Note_on_c, 7, 63, 96
8, 23208, Note_on_c, 7, 63, 0
8, 23220, Note_on_c, 7, 63, 96
8, 23268, Note_on_c, 7, 63, 0
8, 23280, Note_on_c, 7, 63, 96
8, 23328, Note_on_c, 7, 63, 0
8, 23340, Note_on_c, 7, 63, 96
8, 23388, Note_on_c, 7, 63, 0
8, 23400, Note_on_c, 7, 63, 96
8, 23448, Note_on_c, 7, 63, 0
8, 23460, Note_on_c, 7, 63, 96
8, 23508, Note_on_c, 7, 63, 0
8, 23520, Note_on_c, 7, 63, 96
8, 23640, Note_on_c, 7, 63, 0
8, 24000, Note_on_c, 7, 68, 96
8, 24048, Note_on_c, 7, 68, 0
8, 24060, Note_on_c, 7, 68, 96
8, 24108, Note_on_c, 7, 68, 0
8, 24120, Note_on_c, 7, 68, 96
8, 24168, Note_on_c, 7, 68, 0
8, 24180, Note_on_c, 7, 68, 96
8, 24228, Note_on_c, 7, 68, 0
8, 24240, Note_on_c, 7, 68, 96
8, 24288, Note_on_c, 7, 68, 0
8, 24300, Note_on_c, 7, 68, 96
8, 24348, Note_on_c, 7, 68, 0
8, 24360, Note_on_c, 7, 68, 96
8, 24408, Note_on_c, 7, 68, 0
8, 24420, Note_on_c, 7, 68, 96
8, 24468, Note_on_c, 7, 68, 0
8, 24480, Note_on_c, 7, 66, 96
8, 24600, Note_on_c, 7, 66, 0
8, 24960, Note_on_c, 7, 66, 96
8, 25008, Note_on_c, 7, 66, 0
8, 25020, Note_on_c, 7, 66, 96
8, 25068, Note_on_c, 7, 66, 0
8, 25080, Note_on_c, 7, 66, 96
8, 25128, Note_on_c, 7, 66, 0
8, 25140, Note_on_c, 7, 66, 96
8, 25188, Note_on_c, 7, 66, 0
8, 25200, Note_on_c, 7, 66, 96
8, 25248, Note_on_c, 7, 66, 0
8, 25260, Note_on_c, 7, 66, 96
8, 25308, Note_on_c, 7, 66, 0
8, 25320, Note_on_c, 7, 66, 96
8, 25368, Note_on_c, 7, 66, 0
8, 25380, Note_on_c, 7, 66, 96
8, 25428, Note_on_c, 7, 66, 0
8, 25440, Note_on_c, 7, 66, 96
8, 25632, Note_on_c, 7, 66, 0
8, 25680, Note_on_c, 7, 63, 96
8, 25872, Note_on_c, 7, 63, 0
8, 25920, Note_on_c, 7, 64, 96
8, 26112, Note_on_c, 7, 64, 0
8, 26160, Note_on_c, 7, 59, 96
8, 26352, Note_on_c, 7, 59, 0
8, 26400, Note_on_c, 7, 61, 96
8, 26592, Note_on_c, 7, 61, 0
8, 26640, Note_on_c, 7, 58, 96
8, 26736, Note_on_c, 7, 58, 0
8, 26760, Note_on_c, 7, 59, 96
8, 26856, Note_on_c, 7, 59, 0
8, 26880, Note_on_c, 7, 61, 96
8, 26970, Note_on_c, 7, 61, 0
8, 27000, Note_on_c, 7, 58, 96
8, 27045, Note_on_c, 7, 58, 0
8, 27060, Note_on_c, 7, 59, 96
8, 27105, Note_on_c, 7, 59, 0
8, 27120, Note_on_c, 7, 61, 96
8, 27210, Note_on_c, 7, 61, 0
8, 27240, Note_on_c, 7, 58, 96
8, 27285, Note_on_c, 7, 58, 0
8, 27300, Note_on_c, 7, 59, 96
8, 27345, Note_on_c, 7, 59, 0
8, 27360, Note_on_c, 7, 61, 96
8, 27540, Note_on_c, 7, 61, 0
8, 27720, Note_on_c, 7, 66, 96
8, 27810, Note_on_c, 7, 66, 0
8, 27840, Note_on_c, 7, 66, 96
8, 27930, Note_on_c, 7, 66, 0
8, 27960, Note_on_c, 7, 64, 96
8, 28005, Note_on_c, 7, 64, 0
8, 28020, Note_on_c, 7, 63, 96
8, 28065, Note_on_c, 7, 63, 0
8, 28080, Note_on_c, 7, 61, 96
8, 28170, Note_on_c, 7, 61, 0
8, 28200, Note_on_c, 7, 64, 96
8, 28290, Note_on_c, 7, 64, 0
8, 28320, Note_on_c, 7, 63, 96
8, 28500, Note_on_c, 7, 63, 0
8, 28920, Note_on_c, 7, 59, 96
8, 28965, Note_on_c, 7, 59, 0
8, 28980, Note_on_c, 7, 59, 96
8, 29025, Note_on_c, 7, 59, 0
8, 29040, Note_on_c, 7, 59, 96
8, 29085, Note_on_c, 7, 59, 0
8, 29100, Note_on_c, 7, 59, 96
8, 29145, Note_on_c, 7, 59, 0
8, 29160, Note_on_c, 7, 66, 96
8, 29205, Note_on_c, 7, 66, 0
8, 29220, Note_on_c, 7, 66, 96
8, 29265, Note_on_c, 7, 66, 0
8, 29280, Note_on_c, 7, 66, 96
8, 29400, Note_on_c, 7, 66, 0
8, 30360, Note_on_c, 7, 63, 96
8, 30405, Note_on_c, 7, 63, 0
8, 30420, Note_on_c, 7, 63, 96
8, 30465, Note_on_c, 7, 63, 0
8, 30480, Note_on_c, 7, 64, 96
8, 30525, Note_on_c, 7, 64, 0
8, 30540, Note_on_c, 7, 64, 96
8, 30585, Note_on_c, 7, 64, 0
8, 30600, Note_on_c, 7, 61, 96
8, 30645, Note_on_c, 7, 61, 0
8, 30660, Note_on_c, 7, 61, 96
8, 30705, Note_on_c, 7, 61, 0
8, 30720, Note_on_c, 7, 63, 96
8, 30810, Note_on_c, 7, 63, 0
8, 30840, Note_on_c, 7, 63, 96
8, 31020, Note_on_c, 7, 63, 0
8, 31080, Note_on_c, 7, 61, 96
8, 31170, Note_on_c, 7, 61, 0
8, 31200, Note_on_c, 7, 59, 96
8, 31290, Note_on_c, 7, 59, 0
8, 31320, Note_on_c, 7, 71, 96
8, 31365, Note_on_c, 7, 71, 0
8, 31380, Note_on_c, 7, 70, 96
8, 31425, Note_on_c, 7, 70, 0
8, 31440, Note_on_c, 7, 68, 96
8, 31485, Note_on_c, 7, 68, 0
8, 31500, Note_on_c, 7, 68, 96
8, 31545, Note_on_c, 7, 68, 0
8, 31560, Note_on_c, 7, 66, 96
8, 31605, Note_on_c, 7, 66, 0
8, 31620, Note_on_c, 7, 66, 96
8, 31665, Note_on_c, 7, 66, 0
8, 31680, Note_on_c, 7, 66, 96
8, 31770, Note_on_c, 7, 66, 0
8, 31800, Note_on_c, 7, 68, 96
8, 31890, Note_on_c, 7, 68, 0
8, 31920, Note_on_c, 7, 68, 96
8, 32010, Note_on_c, 7, 68, 0
8, 32040, Note_on_c, 7, 61, 96
8, 32130, Note_on_c, 7, 61, 0
8, 32160, Note_on_c, 7, 63, 96
8, 32400, Note_on_c, 7, 63, 0
8, 32640, Note_on_c, 7, 56, 96
8, 32760, Note_on_c, 7, 56, 0
8, 32880, Note_on_c, 7, 59, 96
8, 33000, Note_on_c, 7, 59, 0
8, 33120, Note_on_c, 7, 64, 96
8, 33240, Note_on_c, 7, 64, 0
8, 33360, Note_on_c, 7, 68, 96
8, 33480, Note_on_c, 7, 68, 0
8, 33600, Note_on_c, 7, 71, 96
8, 33720, Note_on_c, 7, 71, 0
8, 34080, Note_on_c, 7, 64, 80
8, 34200, Note_on_c, 7, 64, 0
8, 34320, Note_on_c, 7, 68, 80
8, 34440, Note_on_c, 7, 68, 0
8, 34560, Note_on_c, 7, 71, 80
8, 34740, Note_on_c, 7, 71, 0
8, 35040, Note_on_c, 7, 64, 64
8, 35160, Note_on_c, 7, 64, 0
8, 35280, Note_on_c, 7, 68, 64
8, 35400, Note_on_c, 7, 68, 0
8, 35520, Note_on_c, 7, 71, 64
8, 35700, Note_on_c, 7, 71, 0
8, 35880, Note_on_c, 7, 59, 96
8, 35970, Note_on_c, 7, 59, 0
8, 36000, Note_on_c, 7, 64, 112
8, 36090, Note_on_c, 7, 64, 0
8, 36120, Note_on_c, 7, 59, 96
8, 36210, Note_on_c, 7, 59, 0
8, 36240, Note_on_c, 7, 64, 112
8, 36348, Note_on_c, 7, 64, 0
8, 36360, Note_on_c, 7, 59, 96
8, 36432, Note_on_c, 7, 59, 0
8, 36480, Note_on_c, 7, 64, 112
8, 36570, Note_on_c, 7, 64, 0
8, 36600, Note_on_c, 7, 59, 96
8, 36690, Note_on_c, 7, 59, 0
8, 36720, Note_on_c, 7, 59, 96
8, 36810, Note_on_c, 7, 59, 0
8, 36840, Note_on_c, 7, 56, 96
8, 36930, Note_on_c, 7, 56, 0
8, 36960, Note_on_c, 7, 52, 96
8, 37920, Note_on_c, 7, 52, 0
8, 39000, Note_on_c, 7, 64, 96
8, 39090, Note_on_c, 7, 64, 0
8, 39240, Note_on_c, 7, 63, 96
8, 39330, Note_on_c, 7, 63, 0
8, 39480, Note_on_c, 7, 61, 96
8, 39570, Note_on_c, 7, 61, 0
8, 39720, Note_on_c, 7, 54, 96
8, 39810, Note_on_c, 7, 54, 0
8, 39840, Note_on_c, 7, 59, 96
8, 40020, Note_on_c, 7, 59, 0
8, 40320, Note_on_c, 7, 68, 96
8, 40365, Note_on_c, 7, 68, 0
8, 40380, Note_on_c, 7, 68, 96
8, 40425, Note_on_c, 7, 68, 0
8, 40440, Note_on_c, 7, 68, 96
8, 40485, Note_on_c, 7, 68, 0
8, 40500, Note_on_c, 7, 68, 96
8, 40545, Note_on_c, 7, 68, 0
8, 40560, Note_on_c, 7, 68, 96
8, 40605, Note_on_c, 7, 68, 0
8, 40620, Note_on_c, 7, 68, 96
8, 40665, Note_on_c, 7, 68, 0
8, 40680, Note_on_c, 7, 68, 96
8, 40725, Note_on_c, 7, 68, 0
8, 40740, Note_on_c, 7, 68, 96
8, 40785, Note_on_c, 7, 68, 0
8, 40800, Note_on_c, 7, 65, 96
8, 40920, Note_on_c, 7, 65, 0
8, 41280, Note_on_c, 7, 66, 96
8, 41325, Note_on_c, 7, 66, 0
8, 41340, Note_on_c, 7, 66, 96
8, 41385, Note_on_c, 7, 66, 0
8, 41400, Note_on_c, 7, 66, 96
8, 41445, Note_on_c, 7, 66, 0
8, 41460, Note_on_c, 7, 66, 96
8, 41505, Note_on_c, 7, 66, 0
8, 41520, Note_on_c, 7, 66, 96
8, 41565, Note_on_c, 7, 66, 0
8, 41580, Note_on_c, 7, 66, 96
8, 41625, Note_on_c, 7, 66, 0
8, 41640, Note_on_c, 7, 66, 96
8, 41685, Note_on_c, 7, 66, 0
8, 41700, Note_on_c, 7, 66, 96
8, 41745, Note_on_c, 7, 66, 0
8, 41760, Note_on_c, 7, 66, 96
8, 41880, Note_on_c, 7, 66, 0
8, 42240, Note_on_c, 7, 71, 96
8, 42285, Note_on_c, 7, 71, 0
8, 42300, Note_on_c, 7, 71, 96
8, 42345, Note_on_c, 7, 71, 0
8, 42360, Note_on_c, 7, 71, 96
8, 42405, Note_on_c, 7, 71, 0
8, 42420, Note_on_c, 7, 71, 96
8, 42465, Note_on_c, 7, 71, 0
8, 42480, Note_on_c, 7, 71, 96
8, 42525, Note_on_c, 7, 71, 0
8, 42540, Note_on_c, 7, 71, 96
8, 42585, Note_on_c, 7, 71, 0
8, 42600, Note_on_c, 7, 71, 96
8, 42645, Note_on_c, 7, 71, 0
8, 42660, Note_on_c, 7, 71, 96
8, 42705, Note_on_c, 7, 71, 0
8, 42720, Note_on_c, 7, 73, 96
8, 42900, Note_on_c, 7, 73, 0
8, 42960, Note_on_c, 7, 68, 96
8, 43140, Note_on_c, 7, 68, 0
8, 43200, Note_on_c, 7, 69, 96
8, 43380, Note_on_c, 7, 69, 0
8, 43440, Note_on_c, 7, 64, 96
8, 43620, Note_on_c, 7, 64, 0
8, 43680, Note_on_c, 7, 66, 96
8, 43860, Note_on_c, 7, 66, 0
8, 43920, Note_on_c, 7, 63, 96
8, 44010, Note_on_c, 7, 63, 0
8, 44040, Note_on_c, 7, 64, 96
8, 44130, Note_on_c, 7, 64, 0
8, 44160, Note_on_c, 7, 66, 96
8, 44250, Note_on_c, 7, 66, 0
8, 44280, Note_on_c, 7, 63, 96
8, 44325, Note_on_c, 7, 63, 0
8, 44340, Note_on_c, 7, 64, 96
8, 44385, Note_on_c, 7, 64, 0
8, 44400, Note_on_c, 7, 66, 96
8, 44490, Note_on_c, 7, 66, 0
8, 44520, Note_on_c, 7, 63, 96
8, 44565, Note_on_c, 7, 63, 0
8, 44580, Note_on_c, 7, 64, 96
8, 44625, Note_on_c, 7, 64, 0
8, 44640, Note_on_c, 7, 66, 96
8, 44820, Note_on_c, 7, 66, 0
8, 45000, Note_on_c, 7, 71, 96
8, 45090, Note_on_c, 7, 71, 0
8, 45120, Note_on_c, 7, 71, 96
8, 45210, Note_on_c, 7, 71, 0
8, 45240, Note_on_c, 7, 69, 96
8, 45285, Note_on_c, 7, 69, 0
8, 45300, Note_on_c, 7, 68, 96
8, 45345, Note_on_c, 7, 68, 0
8, 45360, Note_on_c, 7, 66, 96
8, 45450, Note_on_c, 7, 66, 0
8, 45480, Note_on_c, 7, 69, 96
8, 45570, Note_on_c, 7, 69, 0
8, 45600, Note_on_c, 7, 68, 96
8, 45780, Note_on_c, 7, 68, 0
8, 46200, Note_on_c, 7, 64, 96
8, 46245, Note_on_c, 7, 64, 0
8, 46260, Note_on_c, 7, 64, 96
8, 46305, Note_on_c, 7, 64, 0
8, 46320, Note_on_c, 7, 64, 96
8, 46365, Note_on_c, 7, 64, 0
8, 46380, Note_on_c, 7, 64, 96
8, 46425, Note_on_c, 7, 64, 0
8, 46440, Note_on_c, 7, 71, 96
8, 46485, Note_on_c, 7, 71, 0
8, 46500, Note_on_c, 7, 71, 96
8, 46545, Note_on_c, 7, 71, 0
8, 46560, Note_on_c, 7, 71, 96
8, 46680, Note_on_c, 7, 71, 0
8, 47640, Note_on_c, 7, 68, 96
8, 47685, Note_on_c, 7, 68, 0
8, 47700, Note_on_c, 7, 68, 96
8, 47745, Note_on_c, 7, 68, 0
8, 47760, Note_on_c, 7, 69, 96
8, 47805, Note_on_c, 7, 69, 0
8, 47820, Note_on_c, 7, 69, 96
8, 47865, Note_on_c, 7, 69, 0
8, 47880, Note_on_c, 7, 66, 96
8, 47925, Note_on_c, 7, 66, 0
8, 47940, Note_on_c, 7, 66, 96
8, 47985, Note_on_c, 7, 66, 0
8, 48000, Note_on_c, 7, 68, 96
8, 48090, Note_on_c, 7, 68, 0
8, 48120, Note_on_c, 7, 68, 96
8, 48300, Note_on_c, 7, 68, 0
8, 48360, Note_on_c, 7, 66, 96
8, 48450, Note_on_c, 7, 66, 0
8, 48480, Note_on_c, 7, 64, 96
8, 48525, Note_on_c, 7, 64, 0
8, 48540, Note_on_c, 7, 64, 96
8, 48585, Note_on_c, 7, 64, 0
8, 48600, Note_on_c, 7, 63, 96
8, 48645, Note_on_c, 7, 63, 0
8, 48660, Note_on_c, 7, 63, 96
8, 48705, Note_on_c, 7, 63, 0
8, 48720, Note_on_c, 7, 61, 96
8, 48765, Note_on_c, 7, 61, 0
8, 48780, Note_on_c, 7, 61, 96
8, 48825, Note_on_c, 7, 61, 0
8, 48840, Note_on_c, 7, 59, 96
8, 48885, Note_on_c, 7, 59, 0
8, 48900, Note_on_c, 7, 59, 96
8, 48945, Note_on_c, 7, 59, 0
8, 48960, Note_on_c, 7, 59, 96
8, 49050, Note_on_c, 7, 59, 0
8, 49080, Note_on_c, 7, 61, 96
8, 49170, Note_on_c, 7, 61, 0
8, 49200, Note_on_c, 7, 61, 96
8, 49290, Note_on_c, 7, 61, 0
8, 49320, Note_on_c, 7, 66, 96
8, 49410, Note_on_c, 7, 66, 0
8, 49440, Note_on_c, 7, 68, 96
8, 49680, Note_on_c, 7, 68, 0
8, 49920, Note_on_c, 7, 61, 96
8, 50010, Note_on_c, 7, 61, 0
8, 50040, Note_on_c, 7, 61, 96
8, 50130, Note_on_c, 7, 61, 0
8, 50160, Note_on_c, 7, 61, 96
8, 50250, Note_on_c, 7, 61, 0
8, 50280, Note_on_c, 7, 61, 96
8, 50370, Note_on_c, 7, 61, 0
8, 50400, Note_on_c, 7, 61, 96
8, 50490, Note_on_c, 7, 61, 0
8, 50520, Note_on_c, 7, 61, 96
8, 50610, Note_on_c, 7, 61, 0
8, 50640, Note_on_c, 7, 61, 96
8, 50730, Note_on_c, 7, 61, 0
8, 50760, Note_on_c, 7, 61, 96
8, 50850, Note_on_c, 7, 61, 0
8, 50880, Note_on_c, 7, 59, 96
8, 50970, Note_on_c, 7, 59, 0
8, 51000, Note_on_c, 7, 59, 96
8, 51090, Note_on_c, 7, 59, 0
8, 51120, Note_on_c, 7, 59, 96
8, 51210, Note_on_c, 7, 59, 0
8, 51240, Note_on_c, 7, 59, 96
8, 51330, Note_on_c, 7, 59, 0
8, 51360, Note_on_c, 7, 59, 96
8, 51450, Note_on_c, 7, 59, 0
8, 51480, Note_on_c, 7, 59, 96
8, 51570, Note_on_c, 7, 59, 0
8, 51600, Note_on_c, 7, 59, 96
8, 51690, Note_on_c, 7, 59, 0
8, 51720, Note_on_c, 7, 59, 96
8, 51810, Note_on_c, 7, 59, 0
8, 51840, Note_on_c, 7, 57, 96
8, 51930, Note_on_c, 7, 57, 0
8, 51960, Note_on_c, 7, 57, 96
8, 52050, Note_on_c, 7, 57, 0
8, 52080, Note_on_c, 7, 57, 96
8, 52170, Note_on_c, 7, 57, 0
8, 52200, Note_on_c, 7, 57, 96
8, 52290, Note_on_c, 7, 57, 0
8, 52320, Note_on_c, 7, 57, 96
8, 52410, Note_on_c, 7, 57, 0
8, 52440, Note_on_c, 7, 57, 96
8, 52530, Note_on_c, 7, 57, 0
8, 52560, Note_on_c, 7, 57, 96
8, 52650, Note_on_c, 7, 57, 0
8, 52680, Note_on_c, 7, 57, 96
8, 52770, Note_on_c, 7, 57, 0
8, 52800, Note_on_c, 7, 56, 96
8, 52890, Note_on_c, 7, 56, 0
8, 52920, Note_on_c, 7, 56, 96
8, 53010, Note_on_c, 7, 56, 0
8, 53040, Note_on_c, 7, 56, 96
8, 53130, Note_on_c, 7, 56, 0
8, 53160, Note_on_c, 7, 56, 96
8, 53250, Note_on_c, 7, 56, 0
8, 53280, Note_on_c, 7, 56, 96
8, 53370, Note_on_c, 7, 56, 0
8, 53400, Note_on_c, 7, 56, 96
8, 53490, Note_on_c, 7, 56, 0
8, 53520, Note_on_c, 7, 56, 96
8, 53610, Note_on_c, 7, 56, 0
8, 53640, Note_on_c, 7, 56, 96
8, 53730, Note_on_c, 7, 56, 0
8, 53760, Note_on_c, 7, 56, 96
8, 53850, Note_on_c, 7, 56, 0
8, 53880, Note_on_c, 7, 61, 96
8, 54060, Note_on_c, 7, 61, 0
8, 54120, Note_on_c, 7, 63, 96
8, 54210, Note_on_c, 7, 63, 0
8, 54240, Note_on_c, 7, 64, 96
8, 54510, Note_on_c, 7, 64, 0
8, 54600, Note_on_c, 7, 68, 96
8, 54690, Note_on_c, 7, 68, 0
8, 54720, Note_on_c, 7, 63, 96
8, 54948, Note_on_c, 7, 63, 0
8, 54960, Note_on_c, 7, 67, 96
8, 55188, Note_on_c, 7, 67, 0
8, 55200, Note_on_c, 7, 68, 96
8, 55794, Note_on_c, 7, 68, 0
8, 55800, Note_on_c, 7, 59, 96
8, 56028, Note_on_c, 7, 59, 0
8, 56040, Note_on_c, 7, 61, 96
8, 56154, Note_on_c, 7, 61, 0
8, 56160, Note_on_c, 7, 62, 96
8, 56502, Note_on_c, 7, 62, 0
8, 56520, Note_on_c, 7, 66, 96
8, 56634, Note_on_c, 7, 66, 0
8, 56640, Note_on_c, 7, 61, 96
8, 56868, Note_on_c, 7, 61, 0
8, 56880, Note_on_c, 7, 65, 96
8, 57108, Note_on_c, 7, 65, 0
8, 57120, Note_on_c, 7, 66, 96
8, 57696, Note_on_c, 7, 66, 0
8, 57720, Note_on_c, 7, 66, 127
8, 57912, Note_on_c, 7, 66, 0
8, 57960, Note_on_c, 7, 65, 127
8, 58056, Note_on_c, 7, 65, 0
8, 58080, Note_on_c, 7, 66, 127
8, 58272, Note_on_c, 7, 66, 0
8, 58320, Note_on_c, 7, 57, 127
8, 58512, Note_on_c, 7, 57, 0
8, 58560, Note_on_c, 7, 63, 127
8, 58656, Note_on_c, 7, 63, 0
8, 58680, Note_on_c, 7, 66, 127
8, 58872, Note_on_c, 7, 66, 0
8, 58920, Note_on_c, 7, 64, 127
8, 59016, Note_on_c, 7, 64, 0
8, 59040, Note_on_c, 7, 66, 127
8, 59136, Note_on_c, 7, 66, 0
8, 59160, Note_on_c, 7, 69, 127
8, 59352, Note_on_c, 7, 69, 0
8, 59400, Note_on_c, 7, 73, 127
8, 59496, Note_on_c, 7, 73, 0
8, 59520, Note_on_c, 7, 66, 127
8, 59616, Note_on_c, 7, 66, 0
8, 59640, Note_on_c, 7, 63, 127
8, 59832, Note_on_c, 7, 63, 0
8, 59880, Note_on_c, 7, 66, 127
8, 59976, Note_on_c, 7, 66, 0
8, 60000, Note_on_c, 7, 68, 127
8, 60096, Note_on_c, 7, 68, 0
8, 60120, Note_on_c, 7, 56, 127
8, 60312, Note_on_c, 7, 56, 0
8, 60360, Note_on_c, 7, 60, 127
8, 60456, Note_on_c, 7, 60, 0
8, 60480, Note_on_c, 7, 61, 96
8, 60570, Note_on_c, 7, 61, 0
8, 60600, Note_on_c, 7, 64, 96
8, 60690, Note_on_c, 7, 64, 0
8, 60720, Note_on_c, 7, 68, 96
8, 60810, Note_on_c, 7, 68, 0
8, 60840, Note_on_c, 7, 72, 96
8, 60930, Note_on_c, 7, 72, 0
8, 60960, Note_on_c, 7, 73, 96
8, 61050, Note_on_c, 7, 73, 0
8, 61080, Note_on_c, 7, 68, 96
8, 61260, Note_on_c, 7, 68, 0
8, 61320, Note_on_c, 7, 69, 96
8, 61410, Note_on_c, 7, 69, 0
8, 61440, Note_on_c, 7, 71, 96
8, 61530, Note_on_c, 7, 71, 0
8, 61560, Note_on_c, 7, 61, 96
8, 61650, Note_on_c, 7, 61, 0
8, 61680, Note_on_c, 7, 65, 96
8, 61770, Note_on_c, 7, 65, 0
8, 61800, Note_on_c, 7, 68, 96
8, 61890, Note_on_c, 7, 68, 0
8, 61920, Note_on_c, 7, 69, 96
8, 62490, Note_on_c, 7, 69, 0
8, 62520, Note_on_c, 7, 59, 96
8, 62610, Note_on_c, 7, 59, 0
8, 62640, Note_on_c, 7, 63, 96
8, 62730, Note_on_c, 7, 63, 0
8, 62760, Note_on_c, 7, 66, 96
8, 62850, Note_on_c, 7, 66, 0
8, 62880, Note_on_c, 7, 68, 96
8, 63450, Note_on_c, 7, 68, 0
8, 63480, Note_on_c, 7, 57, 96
8, 63570, Note_on_c, 7, 57, 0
8, 63600, Note_on_c, 7, 61, 96
8, 63690, Note_on_c, 7, 61, 0
8, 63720, Note_on_c, 7, 64, 96
8, 63810, Note_on_c, 7, 64, 0
8, 63840, Note_on_c, 7, 57, 96
8, 63930, Note_on_c, 7, 57, 0
8, 63960, Note_on_c, 7, 69, 96
8, 64140, Note_on_c, 7, 69, 0
8, 64200, Note_on_c, 7, 66, 96
8, 64410, Note_on_c, 7, 66, 0
8, 64440, Note_on_c, 7, 56, 96
8, 64530, Note_on_c, 7, 56, 0
8, 64560, Note_on_c, 7, 60, 96
8, 64650, Note_on_c, 7, 60, 0
8, 64680, Note_on_c, 7, 63, 96
8, 64770, Note_on_c, 7, 63, 0
8, 64800, Note_on_c, 7, 56, 96
8, 64890, Note_on_c, 7, 56, 0
8, 64920, Note_on_c, 7, 61, 96
8, 65010, Note_on_c, 7, 61, 0
8, 65040, Note_on_c, 7, 64, 96
8, 65130, Note_on_c, 7, 64, 0
8, 65160, Note_on_c, 7, 68, 96
8, 65250, Note_on_c, 7, 68, 0
8, 65280, Note_on_c, 7, 64, 96
8, 65370, Note_on_c, 7, 64, 0
8, 65400, Note_on_c, 7, 61, 96
8, 65490, Note_on_c, 7, 61, 0
8, 65520, Note_on_c, 7, 58, 96
8, 65610, Note_on_c, 7, 58, 0
8, 65640, Note_on_c, 7, 61, 96
8, 65730, Note_on_c, 7, 61, 0
8, 65760, Note_on_c, 7, 63, 96
8, 65850, Note_on_c, 7, 63, 0
8, 65880, Note_on_c, 7, 64, 96
8, 65970, Note_on_c, 7, 64, 0
8, 66000, Note_on_c, 7, 66, 96
8, 66180, Note_on_c, 7, 66, 0
8, 66240, Note_on_c, 7, 64, 96
8, 66360, Note_on_c, 7, 64, 0
8, 66480, Note_on_c, 7, 68, 96
8, 66600, Note_on_c, 7, 68, 0
8, 66720, Note_on_c, 7, 73, 96
8, 66960, Note_on_c, 7, 73, 0
8, 67080, Note_on_c, 7, 68, 96
8, 67170, Note_on_c, 7, 68, 0
8, 67200, Note_on_c, 7, 73, 96
8, 67290, Note_on_c, 7, 73, 0
8, 67320, Note_on_c, 7, 68, 96
8, 67410, Note_on_c, 7, 68, 0
8, 67440, Note_on_c, 7, 73, 96
8, 67530, Note_on_c, 7, 73, 0
8, 67560, Note_on_c, 7, 68, 96
8, 67650, Note_on_c, 7, 68, 0
8, 67680, Note_on_c, 7, 73, 96
8, 67770, Note_on_c, 7, 73, 0
8, 67800, Note_on_c, 7, 68, 96
8, 67890, Note_on_c, 7, 68, 0
8, 67920, Note_on_c, 7, 68, 96
8, 68010, Note_on_c, 7, 68, 0
8, 68040, Note_on_c, 7, 64, 96
8, 68130, Note_on_c, 7, 64, 0
8, 68160, Note_on_c, 7, 64, 96
8, 68280, Note_on_c, 7, 64, 0
8, 68400, Note_on_c, 7, 70, 96
8, 68520, Note_on_c, 7, 70, 0
8, 68640, Note_on_c, 7, 73, 96
8, 68880, Note_on_c, 7, 73, 0
8, 69120, Note_on_c, 7, 63, 96
8, 69240, Note_on_c, 7, 63, 0
8, 69360, Note_on_c, 7, 66, 96
8, 69480, Note_on_c, 7, 66, 0
8, 69600, Note_on_c, 7, 71, 96
8, 69840, Note_on_c, 7, 71, 0
8, 69960, Note_on_c, 7, 66, 96
8, 70050, Note_on_c, 7, 66, 0
8, 70080, Note_on_c, 7, 71, 96
8, 70170, Note_on_c, 7, 71, 0
8, 70200, Note_on_c, 7, 66, 96
8, 70290, Note_on_c, 7, 66, 0
8, 70320, Note_on_c, 7, 71, 96
8, 70410, Note_on_c, 7, 71, 0
8, 70440, Note_on_c, 7, 66, 96
8, 70530, Note_on_c, 7, 66, 0
8, 70560, Note_on_c, 7, 71, 96
8, 70650, Note_on_c, 7, 71, 0
8, 70680, Note_on_c, 7, 66, 96
8, 70770, Note_on_c, 7, 66, 0
8, 70800, Note_on_c, 7, 66, 96
8, 70890, Note_on_c, 7, 66, 0
8, 70920, Note_on_c, 7, 63, 96
8, 71010, Note_on_c, 7, 63, 0
8, 71040, Note_on_c, 7, 62, 96
8, 71160, Note_on_c, 7, 62, 0
8, 71280, Note_on_c, 7, 68, 96
8, 71400, Note_on_c, 7, 68, 0
8, 71520, Note_on_c, 7, 71, 96
8, 71760, Note_on_c, 7, 71, 0
8, 72000, Note_on_c, 7, 61, 96
8, 72120, Note_on_c, 7, 61, 0
8, 72240, Note_on_c, 7, 64, 96
8, 72360, Note_on_c, 7, 64, 0
8, 72480, Note_on_c, 7, 69, 96
8, 72720, Note_on_c, 7, 69, 0
8, 72840, Note_on_c, 7, 52, 96
8, 72930, Note_on_c, 7, 52, 0
8, 72960, Note_on_c, 7, 57, 96
8, 73050, Note_on_c, 7, 57, 0
8, 73080, Note_on_c, 7, 52, 96
8, 73170, Note_on_c, 7, 52, 0
8, 73200, Note_on_c, 7, 57, 96
8, 73290, Note_on_c, 7, 57, 0
8, 73320, Note_on_c, 7, 52, 96
8, 73410, Note_on_c, 7, 52, 0
8, 73440, Note_on_c, 7, 57, 96
8, 73530, Note_on_c, 7, 57, 0
8, 73560, Note_on_c, 7, 52, 96
8, 73650, Note_on_c, 7, 52, 0
8, 73680, Note_on_c, 7, 52, 96
8, 73770, Note_on_c, 7, 52, 0
8, 73800, Note_on_c, 7, 61, 96
8, 74010, Note_on_c, 7, 61, 0
8, 74040, Note_on_c, 7, 59, 96
8, 74130, Note_on_c, 7, 59, 0
8, 74160, Note_on_c, 7, 52, 96
8, 74250, Note_on_c, 7, 52, 0
8, 74280, Note_on_c, 7, 64, 96
8, 74370, Note_on_c, 7, 64, 0
8, 74400, Note_on_c, 7, 64, 96
8, 74580, Note_on_c, 7, 64, 0
8, 74880, Note_on_c, 7, 68, 96
8, 74925, Note_on_c, 7, 68, 0
8, 74940, Note_on_c, 7, 68, 96
8, 74985, Note_on_c, 7, 68, 0
8, 75000, Note_on_c, 7, 68, 96
8, 75045, Note_on_c, 7, 68, 0
8, 75060, Note_on_c, 7, 68, 96
8, 75105, Note_on_c, 7, 68, 0
8, 75120, Note_on_c, 7, 68, 96
8, 75165, Note_on_c, 7, 68, 0
8, 75180, Note_on_c, 7, 68, 96
8, 75225, Note_on_c, 7, 68, 0
8, 75240, Note_on_c, 7, 68, 96
8, 75285, Note_on_c, 7, 68, 0
8, 75300, Note_on_c, 7, 68, 96
8, 75345, Note_on_c, 7, 68, 0
8, 75360, Note_on_c, 7, 66, 96
8, 75480, Note_on_c, 7, 66, 0
8, 75840, Note_on_c, 7, 66, 96
8, 75885, Note_on_c, 7, 66, 0
8, 75900, Note_on_c, 7, 66, 96
8, 75945, Note_on_c, 7, 66, 0
8, 75960, Note_on_c, 7, 66, 96
8, 76005, Note_on_c, 7, 66, 0
8, 76020, Note_on_c, 7, 66, 96
8, 76065, Note_on_c, 7, 66, 0
8, 76080, Note_on_c, 7, 66, 96
8, 76125, Note_on_c, 7, 66, 0
8, 76140, Note_on_c, 7, 66, 96
8, 76185, Note_on_c, 7, 66, 0
8, 76200, Note_on_c, 7, 66, 96
8, 76245, Note_on_c, 7, 66, 0
8, 76260, Note_on_c, 7, 66, 96
8, 76305, Note_on_c, 7, 66, 0
8, 76320, Note_on_c, 7, 68, 96
8, 76440, Note_on_c, 7, 68, 0
8, 76800, Note_on_c, 7, 64, 96
8, 76845, Note_on_c, 7, 64, 0
8, 76860, Note_on_c, 7, 64, 96
8, 76905, Note_on_c, 7, 64, 0
8, 76920, Note_on_c, 7, 64, 96
8, 76965, Note_on_c, 7, 64, 0
8, 76980, Note_on_c, 7, 64, 96
8, 77025, Note_on_c, 7, 64, 0
8, 77040, Note_on_c, 7, 64, 96
8, 77085, Note_on_c, 7, 64, 0
8, 77100, Note_on_c, 7, 64, 96
8, 77145, Note_on_c, 7, 64, 0
8, 77160, Note_on_c, 7, 64, 96
8, 77205, Note_on_c, 7, 64, 0
8, 77220, Note_on_c, 7, 64, 96
8, 77265, Note_on_c, 7, 64, 0
8, 77280, Note_on_c, 7, 66, 96
8, 77460, Note_on_c, 7, 66, 0
8, 77520, Note_on_c, 7, 61, 96
8, 77700, Note_on_c, 7, 61, 0
8, 77760, Note_on_c, 7, 62, 96
8, 77940, Note_on_c, 7, 62, 0
8, 78000, Note_on_c, 7, 64, 96
8, 78180, Note_on_c, 7, 64, 0
8, 78240, Note_on_c, 7, 59, 96
8, 78330, Note_on_c, 7, 59, 0
8, 78360, Note_on_c, 7, 64, 96
8, 78450, Note_on_c, 7, 64, 0
8, 78480, Note_on_c, 7, 64, 96
8, 78570, Note_on_c, 7, 64, 0
8, 78600, Note_on_c, 7, 64, 96
8, 78690, Note_on_c, 7, 64, 0
8, 78720, Note_on_c, 7, 64, 96
8, 78810, Note_on_c, 7, 64, 0
8, 78840, Note_on_c, 7, 64, 96
8, 78930, Note_on_c, 7, 64, 0
8, 78960, Note_on_c, 7, 64, 96
8, 79050, Note_on_c, 7, 64, 0
8, 79080, Note_on_c, 7, 64, 96
8, 79170, Note_on_c, 7, 64, 0
8, 79200, Note_on_c, 7, 64, 96
8, 79290, Note_on_c, 7, 64, 0
8, 79320, Note_on_c, 7, 64, 96
8, 79410, Note_on_c, 7, 64, 0
8, 79440, Note_on_c, 7, 64, 96
8, 79530, Note_on_c, 7, 64, 0
8, 79560, Note_on_c, 7, 64, 96
8, 79650, Note_on_c, 7, 64, 0
8, 79680, Note_on_c, 7, 64, 96
8, 79770, Note_on_c, 7, 64, 0
8, 79800, Note_on_c, 7, 64, 96
8, 79890, Note_on_c, 7, 64, 0
8, 79920, Note_on_c, 7, 64, 96
8, 80010, Note_on_c, 7, 64, 0
8, 80040, Note_on_c, 7, 64, 96
8, 80130, Note_on_c, 7, 64, 0
8, 80160, Note_on_c, 7, 64, 96
8, 80250, Note_on_c, 7, 64, 0
8, 80280, Note_on_c, 7, 57, 96
8, 80370, Note_on_c, 7, 57, 0
8, 80400, Note_on_c, 7, 57, 96
8, 80490, Note_on_c, 7, 57, 0
8, 80520, Note_on_c, 7, 57, 96
8, 80610, Note_on_c, 7, 57, 0
8, 80640, Note_on_c, 7, 57, 96
8, 80730, Note_on_c, 7, 57, 0
8, 80760, Note_on_c, 7, 57, 96
8, 80850, Note_on_c, 7, 57, 0
8, 80880, Note_on_c, 7, 57, 96
8, 80970, Note_on_c, 7, 57, 0
8, 81000, Note_on_c, 7, 57, 96
8, 81090, Note_on_c, 7, 57, 0
8, 81120, Note_on_c, 7, 57, 96
8, 81210, Note_on_c, 7, 57, 0
8, 81240, Note_on_c, 7, 57, 96
8, 81330, Note_on_c, 7, 57, 0
8, 81360, Note_on_c, 7, 57, 96
8, 81450, Note_on_c, 7, 57, 0
8, 81480, Note_on_c, 7, 57, 96
8, 81570, Note_on_c, 7, 57, 0
8, 81600, Note_on_c, 7, 57, 96
8, 81690, Note_on_c, 7, 57, 0
8, 81720, Note_on_c, 7, 57, 96
8, 81810, Note_on_c, 7, 57, 0
8, 81840, Note_on_c, 7, 57, 96
8, 81930, Note_on_c, 7, 57, 0
8, 81960, Note_on_c, 7, 57, 96
8, 82050, Note_on_c, 7, 57, 0
8, 82080, Note_on_c, 7, 61, 96
8, 82170, Note_on_c, 7, 61, 0
8, 82200, Note_on_c, 7, 58, 96
8, 82290, Note_on_c, 7, 58, 0
8, 82320, Note_on_c, 7, 58, 96
8, 82410, Note_on_c, 7, 58, 0
8, 82440, Note_on_c, 7, 58, 96
8, 82530, Note_on_c, 7, 58, 0
8, 82560, Note_on_c, 7, 58, 96
8, 82650, Note_on_c, 7, 58, 0
8, 82680, Note_on_c, 7, 58, 96
8, 82770, Note_on_c, 7, 58, 0
8, 82800, Note_on_c, 7, 58, 96
8, 82890, Note_on_c, 7, 58, 0
8, 82920, Note_on_c, 7, 58, 96
8, 83010, Note_on_c, 7, 58, 0
8, 83040, Note_on_c, 7, 58, 96
8, 83130, Note_on_c, 7, 58, 0
8, 83160, Note_on_c, 7, 58, 96
8, 83250, Note_on_c, 7, 58, 0
8, 83280, Note_on_c, 7, 58, 96
8, 83370, Note_on_c, 7, 58, 0
8, 83400, Note_on_c, 7, 58, 96
8, 83490, Note_on_c, 7, 58, 0
8, 83520, Note_on_c, 7, 58, 96
8, 83610, Note_on_c, 7, 58, 0
8, 83640, Note_on_c, 7, 58, 96
8, 83730, Note_on_c, 7, 58, 0
8, 83760, Note_on_c, 7, 58, 96
8, 83850, Note_on_c, 7, 58, 0
8, 83880, Note_on_c, 7, 58, 96
8, 83970, Note_on_c, 7, 58, 0
8, 84000, Note_on_c, 7, 54, 96
8, 84090, Note_on_c, 7, 54, 0
8, 84120, Note_on_c, 7, 59, 96
8, 84210, Note_on_c, 7, 59, 0
8, 84240, Note_on_c, 7, 59, 96
8, 84330, Note_on_c, 7, 59, 0
8, 84360, Note_on_c, 7, 59, 96
8, 84450, Note_on_c, 7, 59, 0
8, 84480, Note_on_c, 7, 59, 96
8, 84570, Note_on_c, 7, 59, 0
8, 84600, Note_on_c, 7, 59, 96
8, 84690, Note_on_c, 7, 59, 0
8, 84720, Note_on_c, 7, 59, 96
8, 84810, Note_on_c, 7, 59, 0
8, 84840, Note_on_c, 7, 59, 96
8, 84930, Note_on_c, 7, 59, 0
8, 84960, Note_on_c, 7, 59, 96
8, 85050, Note_on_c, 7, 59, 0
8, 85080, Note_on_c, 7, 59, 96
8, 85170, Note_on_c, 7, 59, 0
8, 85200, Note_on_c, 7, 59, 96
8, 85290, Note_on_c, 7, 59, 0
8, 85320, Note_on_c, 7, 59, 96
8, 85410, Note_on_c, 7, 59, 0
8, 85440, Note_on_c, 7, 59, 96
8, 85530, Note_on_c, 7, 59, 0
8, 85560, Note_on_c, 7, 59, 96
8, 85650, Note_on_c, 7, 59, 0
8, 85680, Note_on_c, 7, 59, 96
8, 85770, Note_on_c, 7, 59, 0
8, 85800, Note_on_c, 7, 59, 96
8, 85890, Note_on_c, 7, 59, 0
8, 85920, Note_on_c, 7, 56, 96
8, 86010, Note_on_c, 7, 56, 0
8, 86040, Note_on_c, 7, 61, 96
8, 86130, Note_on_c, 7, 61, 0
8, 86160, Note_on_c, 7, 61, 96
8, 86250, Note_on_c, 7, 61, 0
8, 86280, Note_on_c, 7, 61, 96
8, 86370, Note_on_c, 7, 61, 0
8, 86400, Note_on_c, 7, 61, 96
8, 86490, Note_on_c, 7, 61, 0
8, 86520, Note_on_c, 7, 61, 96
8, 86610, Note_on_c, 7, 61, 0
8, 86640, Note_on_c, 7, 61, 96
8, 86730, Note_on_c, 7, 61, 0
8, 86760, Note_on_c, 7, 61, 96
8, 86850, Note_on_c, 7, 61, 0
8, 86880, Note_on_c, 7, 61, 96
8, 86970, Note_on_c, 7, 61, 0
8, 87000, Note_on_c, 7, 61, 96
8, 87090, Note_on_c, 7, 61, 0
8, 87120, Note_on_c, 7, 61, 96
8, 87210, Note_on_c, 7, 61, 0
8, 87240, Note_on_c, 7, 61, 96
8, 87330, Note_on_c, 7, 61, 0
8, 87360, Note_on_c, 7, 61, 96
8, 87450, Note_on_c, 7, 61, 0
8, 87480, Note_on_c, 7, 61, 96
8, 87570, Note_on_c, 7, 61, 0
8, 87600, Note_on_c, 7, 61, 96
8, 87690, Note_on_c, 7, 61, 0
8, 87720, Note_on_c, 7, 61, 96
8, 87810, Note_on_c, 7, 61, 0
8, 87840, Note_on_c, 7, 66, 96
8, 87930, Note_on_c, 7, 66, 0
8, 87960, Note_on_c, 7, 69, 96
8, 88050, Note_on_c, 7, 69, 0
8, 88080, Note_on_c, 7, 71, 96
8, 88170, Note_on_c, 7, 71, 0
8, 88200, Note_on_c, 7, 68, 96
8, 88290, Note_on_c, 7, 68, 0
8, 88320, Note_on_c, 7, 66, 96
8, 88680, Note_on_c, 7, 66, 0
8, 88800, Note_on_c, 7, 62, 96
8, 89460, Note_on_c, 7, 62, 0
8, 89640, Note_on_c, 7, 56, 96
8, 89730, Note_on_c, 7, 56, 0
8, 89760, Note_on_c, 7, 54, 96
8, 89850, Note_on_c, 7, 54, 0
8, 89880, Note_on_c, 7, 57, 96
8, 89970, Note_on_c, 7, 57, 0
8, 90000, Note_on_c, 7, 59, 96
8, 90090, Note_on_c, 7, 59, 0
8, 90120, Note_on_c, 7, 56, 96
8, 90210, Note_on_c, 7, 56, 0
8, 90240, Note_on_c, 7, 57, 96
8, 90420, Note_on_c, 7, 57, 0
8, 90420, End_track
9, 0, Start_track
9, 0, MIDI_port, 0
9, 0, Title_t, "acc.  weimermt@libby.org"
9, 0, Program_c, 8, 48
9, 0, Control_c, 8, 7, 96
9, 0, Control_c, 8, 10, 80
9, 96840, Note_on_c, 8, 66, 96
9, 96930, Note_on_c, 8, 66, 0
9, 96960, Note_on_c, 8, 64, 96
9, 97140, Note_on_c, 8, 64, 0
9, 97200, Note_on_c, 8, 66, 96
9, 97380, Note_on_c, 8, 66, 0
9, 97440, Note_on_c, 8, 68, 96
9, 97620, Note_on_c, 8, 68, 0
9, 97680, Note_on_c, 8, 68, 96
9, 97860, Note_on_c, 8, 68, 0
9, 97920, Note_on_c, 8, 64, 96
9, 98010, Note_on_c, 8, 64, 0
9, 98040, Note_on_c, 8, 68, 96
9, 98220, Note_on_c, 8, 68, 0
9, 98280, Note_on_c, 8, 66, 96
9, 98370, Note_on_c, 8, 66, 0
9, 98400, Note_on_c, 8, 73, 96
9, 98490, Note_on_c, 8, 73, 0
9, 98520, Note_on_c, 8, 71, 96
9, 98700, Note_on_c, 8, 71, 0
9, 98760, Note_on_c, 8, 69, 96
9, 98850, Note_on_c, 8, 69, 0
9, 98880, Note_on_c, 8, 68, 96
9, 98970, Note_on_c, 8, 68, 0
9, 99000, Note_on_c, 8, 71, 96
9, 99045, Note_on_c, 8, 71, 0
9, 99060, Note_on_c, 8, 71, 96
9, 99105, Note_on_c, 8, 71, 0
9, 99120, Note_on_c, 8, 68, 96
9, 99165, Note_on_c, 8, 68, 0
9, 99180, Note_on_c, 8, 68, 96
9, 99225, Note_on_c, 8, 68, 0
9, 99240, Note_on_c, 8, 71, 96
9, 99285, Note_on_c, 8, 71, 0
9, 99300, Note_on_c, 8, 71, 96
9, 99345, Note_on_c, 8, 71, 0
9, 99360, Note_on_c, 8, 71, 96
9, 99405, Note_on_c, 8, 71, 0
9, 99420, Note_on_c, 8, 71, 96
9, 99465, Note_on_c, 8, 71, 0
9, 99480, Note_on_c, 8, 69, 96
9, 99525, Note_on_c, 8, 69, 0
9, 99540, Note_on_c, 8, 69, 96
9, 99585, Note_on_c, 8, 69, 0
9, 99600, Note_on_c, 8, 68, 96
9, 99645, Note_on_c, 8, 68, 0
9, 99660, Note_on_c, 8, 68, 96
9, 99705, Note_on_c, 8, 68, 0
9, 99720, Note_on_c, 8, 71, 96
9, 99765, Note_on_c, 8, 71, 0
9, 99780, Note_on_c, 8, 71, 96
9, 99825, Note_on_c, 8, 71, 0
9, 99840, Note_on_c, 8, 71, 96
9, 100020, Note_on_c, 8, 71, 0
9, 100140, Note_on_c, 8, 69, 96
9, 100185, Note_on_c, 8, 69, 0
9, 100200, Note_on_c, 8, 71, 96
9, 100245, Note_on_c, 8, 71, 0
9, 100260, Note_on_c, 8, 68, 96
9, 100305, Note_on_c, 8, 68, 0
9, 100320, Note_on_c, 8, 66, 96
9, 101280, Note_on_c, 8, 66, 0
9, 102240, Note_on_c, 8, 70, 96
9, 102360, Note_on_c, 8, 70, 0
9, 102480, Note_on_c, 8, 67, 96
9, 102600, Note_on_c, 8, 67, 0
9, 102720, Note_on_c, 8, 63, 96
9, 102960, Note_on_c, 8, 63, 0
9, 103200, Note_on_c, 8, 68, 96
9, 103320, Note_on_c, 8, 68, 0
9, 103440, Note_on_c, 8, 71, 96
9, 103560, Note_on_c, 8, 71, 0
9, 103680, Note_on_c, 8, 68, 96
9, 103920, Note_on_c, 8, 68, 0
9, 104160, Note_on_c, 8, 61, 96
9, 104340, Note_on_c, 8, 61, 0
9, 104400, Note_on_c, 8, 64, 96
9, 104580, Note_on_c, 8, 64, 0
9, 104640, Note_on_c, 8, 63, 96
9, 104730, Note_on_c, 8, 63, 0
9, 104760, Note_on_c, 8, 63, 96
9, 104850, Note_on_c, 8, 63, 0
9, 104880, Note_on_c, 8, 63, 96
9, 104970, Note_on_c, 8, 63, 0
9, 105000, Note_on_c, 8, 63, 96
9, 105090, Note_on_c, 8, 63, 0
9, 105120, Note_on_c, 8, 63, 96
9, 105210, Note_on_c, 8, 63, 0
9, 105240, Note_on_c, 8, 63, 96
9, 105330, Note_on_c, 8, 63, 0
9, 105360, Note_on_c, 8, 63, 96
9, 105450, Note_on_c, 8, 63, 0
9, 105480, Note_on_c, 8, 63, 96
9, 105570, Note_on_c, 8, 63, 0
9, 105600, Note_on_c, 8, 63, 96
9, 105690, Note_on_c, 8, 63, 0
9, 105720, Note_on_c, 8, 63, 96
9, 105810, Note_on_c, 8, 63, 0
9, 105840, Note_on_c, 8, 63, 96
9, 105930, Note_on_c, 8, 63, 0
9, 105960, Note_on_c, 8, 63, 96
9, 106050, Note_on_c, 8, 63, 0
9, 106080, Note_on_c, 8, 63, 96
9, 106170, Note_on_c, 8, 63, 0
9, 106200, Note_on_c, 8, 63, 96
9, 106290, Note_on_c, 8, 63, 0
9, 106320, Note_on_c, 8, 63, 96
9, 106410, Note_on_c, 8, 63, 0
9, 106440, Note_on_c, 8, 63, 96
9, 106530, Note_on_c, 8, 63, 0
9, 106560, Note_on_c, 8, 63, 96
9, 106650, Note_on_c, 8, 63, 0
9, 106680, Note_on_c, 8, 63, 96
9, 106770, Note_on_c, 8, 63, 0
9, 106800, Note_on_c, 8, 63, 96
9, 106890, Note_on_c, 8, 63, 0
9, 106920, Note_on_c, 8, 63, 96
9, 107010, Note_on_c, 8, 63, 0
9, 107040, Note_on_c, 8, 63, 96
9, 107130, Note_on_c, 8, 63, 0
9, 107160, Note_on_c, 8, 63, 96
9, 107250, Note_on_c, 8, 63, 0
9, 107280, Note_on_c, 8, 63, 96
9, 107370, Note_on_c, 8, 63, 0
9, 107400, Note_on_c, 8, 63, 96
9, 107490, Note_on_c, 8, 63, 0
9, 107520, Note_on_c, 8, 63, 96
9, 107610, Note_on_c, 8, 63, 0
9, 107640, Note_on_c, 8, 63, 96
9, 107730, Note_on_c, 8, 63, 0
9, 107760, Note_on_c, 8, 63, 96
9, 107850, Note_on_c, 8, 63, 0
9, 107880, Note_on_c, 8, 63, 96
9, 107970, Note_on_c, 8, 63, 0
9, 108000, Note_on_c, 8, 63, 96
9, 108090, Note_on_c, 8, 63, 0
9, 108120, Note_on_c, 8, 63, 96
9, 108210, Note_on_c, 8, 63, 0
9, 108240, Note_on_c, 8, 63, 96
9, 108330, Note_on_c, 8, 63, 0
9, 108360, Note_on_c, 8, 63, 96
9, 108450, Note_on_c, 8, 63, 0
9, 108480, Note_on_c, 8, 61, 96
9, 109980, Note_on_c, 8, 61, 0
9, 110280, Note_on_c, 8, 61, 96
9, 110370, Note_on_c, 8, 61, 0
9, 110400, Note_on_c, 8, 59, 96
9, 110490, Note_on_c, 8, 59, 0
9, 110520, Note_on_c, 8, 64, 96
9, 110700, Note_on_c, 8, 64, 0
9, 110760, Note_on_c, 8, 61, 96
9, 110850, Note_on_c, 8, 61, 0
9, 110880, Note_on_c, 8, 59, 96
9, 111060, Note_on_c, 8, 59, 0
9, 111480, Note_on_c, 8, 63, 96
9, 111525, Note_on_c, 8, 63, 0
9, 111540, Note_on_c, 8, 63, 96
9, 111585, Note_on_c, 8, 63, 0
9, 111600, Note_on_c, 8, 64, 96
9, 111645, Note_on_c, 8, 64, 0
9, 111660, Note_on_c, 8, 64, 96
9, 111705, Note_on_c, 8, 64, 0
9, 111720, Note_on_c, 8, 61, 96
9, 111765, Note_on_c, 8, 61, 0
9, 111780, Note_on_c, 8, 61, 96
9, 111825, Note_on_c, 8, 61, 0
9, 111840, Note_on_c, 8, 63, 96
9, 112020, Note_on_c, 8, 63, 0
9, 112380, Note_on_c, 8, 64, 96
9, 112425, Note_on_c, 8, 64, 0
9, 112440, Note_on_c, 8, 63, 96
9, 112485, Note_on_c, 8, 63, 0
9, 112500, Note_on_c, 8, 64, 96
9, 112545, Note_on_c, 8, 64, 0
9, 112560, Note_on_c, 8, 61, 96
9, 112740, Note_on_c, 8, 61, 0
9, 112860, Note_on_c, 8, 61, 96
9, 112905, Note_on_c, 8, 61, 0
9, 112920, Note_on_c, 8, 60, 96
9, 112965, Note_on_c, 8, 60, 0
9, 112980, Note_on_c, 8, 61, 96
9, 113025, Note_on_c, 8, 61, 0
9, 113040, Note_on_c, 8, 57, 96
9, 113220, Note_on_c, 8, 57, 0
9, 113340, Note_on_c, 8, 73, 96
9, 113385, Note_on_c, 8, 73, 0
9, 113400, Note_on_c, 8, 71, 96
9, 113445, Note_on_c, 8, 71, 0
9, 113460, Note_on_c, 8, 73, 96
9, 113505, Note_on_c, 8, 73, 0
9, 113520, Note_on_c, 8, 69, 96
9, 113700, Note_on_c, 8, 69, 0
9, 113820, Note_on_c, 8, 71, 96
9, 113865, Note_on_c, 8, 71, 0
9, 113880, Note_on_c, 8, 70, 96
9, 113925, Note_on_c, 8, 70, 0
9, 113940, Note_on_c, 8, 68, 96
9, 113985, Note_on_c, 8, 68, 0
9, 114000, Note_on_c, 8, 67, 96
9, 114180, Note_on_c, 8, 67, 0
9, 114300, Note_on_c, 8, 71, 96
9, 114345, Note_on_c, 8, 71, 0
9, 114360, Note_on_c, 8, 70, 96
9, 114405, Note_on_c, 8, 70, 0
9, 114420, Note_on_c, 8, 68, 96
9, 114465, Note_on_c, 8, 68, 0
9, 114480, Note_on_c, 8, 67, 96
9, 114570, Note_on_c, 8, 67, 0
9, 114600, Note_on_c, 8, 63, 96
9, 114690, Note_on_c, 8, 63, 0
9, 114720, Note_on_c, 8, 63, 96
9, 115080, Note_on_c, 8, 63, 0
9, 117120, Note_on_c, 8, 56, 96
9, 117240, Note_on_c, 8, 56, 0
9, 117360, Note_on_c, 8, 59, 96
9, 117480, Note_on_c, 8, 59, 0
9, 117600, Note_on_c, 8, 64, 96
9, 117840, Note_on_c, 8, 64, 0
9, 117960, Note_on_c, 8, 59, 96
9, 118080, Note_on_c, 8, 59, 0
9, 118080, Note_on_c, 8, 64, 96
9, 118170, Note_on_c, 8, 64, 0
9, 118200, Note_on_c, 8, 59, 96
9, 118290, Note_on_c, 8, 59, 0
9, 118320, Note_on_c, 8, 64, 96
9, 118410, Note_on_c, 8, 64, 0
9, 118440, Note_on_c, 8, 59, 96
9, 118530, Note_on_c, 8, 59, 0
9, 118560, Note_on_c, 8, 64, 96
9, 118650, Note_on_c, 8, 64, 0
9, 118680, Note_on_c, 8, 59, 96
9, 118770, Note_on_c, 8, 59, 0
9, 118800, Note_on_c, 8, 59, 96
9, 118890, Note_on_c, 8, 59, 0
9, 118920, Note_on_c, 8, 59, 96
9, 119010, Note_on_c, 8, 59, 0
9, 119040, Note_on_c, 8, 64, 96
9, 119130, Note_on_c, 8, 64, 0
9, 119160, Note_on_c, 8, 63, 96
9, 119250, Note_on_c, 8, 63, 0
9, 119280, Note_on_c, 8, 59, 96
9, 119370, Note_on_c, 8, 59, 0
9, 119400, Note_on_c, 8, 59, 96
9, 119490, Note_on_c, 8, 59, 0
9, 119520, Note_on_c, 8, 59, 96
9, 119700, Note_on_c, 8, 59, 0
9, 120000, Note_on_c, 8, 68, 96
9, 120045, Note_on_c, 8, 68, 0
9, 120060, Note_on_c, 8, 68, 96
9, 120105, Note_on_c, 8, 68, 0
9, 120120, Note_on_c, 8, 68, 96
9, 120165, Note_on_c, 8, 68, 0
9, 120180, Note_on_c, 8, 68, 96
9, 120225, Note_on_c, 8, 68, 0
9, 120240, Note_on_c, 8, 68, 96
9, 120285, Note_on_c, 8, 68, 0
9, 120300, Note_on_c, 8, 68, 96
9, 120345, Note_on_c, 8, 68, 0
9, 120360, Note_on_c, 8, 68, 96
9, 120405, Note_on_c, 8, 68, 0
9, 120420, Note_on_c, 8, 68, 96
9, 120465, Note_on_c, 8, 68, 0
9, 120480, Note_on_c, 8, 65, 96
9, 120600, Note_on_c, 8, 65, 0
9, 120960, Note_on_c, 8, 66, 96
9, 121005, Note_on_c, 8, 66, 0
9, 121020, Note_on_c, 8, 66, 96
9, 121065, Note_on_c, 8, 66, 0
9, 121080, Note_on_c, 8, 66, 96
9, 121125, Note_on_c, 8, 66, 0
9, 121140, Note_on_c, 8, 66, 96
9, 121185, Note_on_c, 8, 66, 0
9, 121200, Note_on_c, 8, 66, 96
9, 121245, Note_on_c, 8, 66, 0
9, 121260, Note_on_c, 8, 66, 96
9, 121305, Note_on_c, 8, 66, 0
9, 121320, Note_on_c, 8, 66, 96
9, 121365, Note_on_c, 8, 66, 0
9, 121380, Note_on_c, 8, 66, 96
9, 121425, Note_on_c, 8, 66, 0
9, 121440, Note_on_c, 8, 66, 96
9, 121560, Note_on_c, 8, 66, 0
9, 121920, Note_on_c, 8, 71, 96
9, 121965, Note_on_c, 8, 71, 0
9, 121980, Note_on_c, 8, 71, 96
9, 122025, Note_on_c, 8, 71, 0
9, 122040, Note_on_c, 8, 71, 96
9, 122085, Note_on_c, 8, 71, 0
9, 122100, Note_on_c, 8, 71, 96
9, 122145, Note_on_c, 8, 71, 0
9, 122160, Note_on_c, 8, 71, 96
9, 122205, Note_on_c, 8, 71, 0
9, 122220, Note_on_c, 8, 71, 96
9, 122265, Note_on_c, 8, 71, 0
9, 122280, Note_on_c, 8, 71, 96
9, 122325, Note_on_c, 8, 71, 0
9, 122340, Note_on_c, 8, 71, 96
9, 122385, Note_on_c, 8, 71, 0
9, 122400, Note_on_c, 8, 73, 96
9, 122580, Note_on_c, 8, 73, 0
9, 122640, Note_on_c, 8, 68, 96
9, 122820, Note_on_c, 8, 68, 0
9, 122880, Note_on_c, 8, 69, 96
9, 123060, Note_on_c, 8, 69, 0
9, 123120, Note_on_c, 8, 64, 96
9, 123300, Note_on_c, 8, 64, 0
9, 123360, Note_on_c, 8, 66, 96
9, 123540, Note_on_c, 8, 66, 0
9, 123600, Note_on_c, 8, 63, 96
9, 123690, Note_on_c, 8, 63, 0
9, 123720, Note_on_c, 8, 64, 96
9, 123810, Note_on_c, 8, 64, 0
9, 123840, Note_on_c, 8, 66, 96
9, 123930, Note_on_c, 8, 66, 0
9, 123960, Note_on_c, 8, 63, 96
9, 124005, Note_on_c, 8, 63, 0
9, 124020, Note_on_c, 8, 64, 96
9, 124065, Note_on_c, 8, 64, 0
9, 124080, Note_on_c, 8, 66, 96
9, 124170, Note_on_c, 8, 66, 0
9, 124200, Note_on_c, 8, 63, 96
9, 124245, Note_on_c, 8, 63, 0
9, 124260, Note_on_c, 8, 64, 96
9, 124305, Note_on_c, 8, 64, 0
9, 124320, Note_on_c, 8, 66, 96
9, 124560, Note_on_c, 8, 66, 0
9, 124680, Note_on_c, 8, 71, 96
9, 124770, Note_on_c, 8, 71, 0
9, 124800, Note_on_c, 8, 71, 96
9, 124890, Note_on_c, 8, 71, 0
9, 124920, Note_on_c, 8, 69, 96
9, 124965, Note_on_c, 8, 69, 0
9, 124980, Note_on_c, 8, 68, 96
9, 125025, Note_on_c, 8, 68, 0
9, 125040, Note_on_c, 8, 66, 96
9, 125130, Note_on_c, 8, 66, 0
9, 125160, Note_on_c, 8, 69, 96
9, 125250, Note_on_c, 8, 69, 0
9, 125280, Note_on_c, 8, 68, 96
9, 125370, Note_on_c, 8, 68, 0
9, 125400, Note_on_c, 8, 68, 96
9, 125580, Note_on_c, 8, 68, 0
9, 125640, Note_on_c, 8, 66, 96
9, 125730, Note_on_c, 8, 66, 0
9, 125760, Note_on_c, 8, 64, 96
9, 125850, Note_on_c, 8, 64, 0
9, 125880, Note_on_c, 8, 68, 96
9, 126060, Note_on_c, 8, 68, 0
9, 126120, Note_on_c, 8, 66, 96
9, 126210, Note_on_c, 8, 66, 0
9, 126240, Note_on_c, 8, 64, 96
9, 126330, Note_on_c, 8, 64, 0
9, 126360, Note_on_c, 8, 71, 96
9, 126405, Note_on_c, 8, 71, 0
9, 126420, Note_on_c, 8, 71, 96
9, 126465, Note_on_c, 8, 71, 0
9, 126480, Note_on_c, 8, 64, 96
9, 126525, Note_on_c, 8, 64, 0
9, 126540, Note_on_c, 8, 64, 96
9, 126585, Note_on_c, 8, 64, 0
9, 126600, Note_on_c, 8, 59, 96
9, 126645, Note_on_c, 8, 59, 0
9, 126660, Note_on_c, 8, 59, 96
9, 126705, Note_on_c, 8, 59, 0
9, 126720, Note_on_c, 8, 64, 96
9, 126810, Note_on_c, 8, 64, 0
9, 126840, Note_on_c, 8, 68, 96
9, 126930, Note_on_c, 8, 68, 0
9, 126960, Note_on_c, 8, 69, 96
9, 127050, Note_on_c, 8, 69, 0
9, 127080, Note_on_c, 8, 66, 96
9, 127170, Note_on_c, 8, 66, 0
9, 127200, Note_on_c, 8, 68, 96
9, 127440, Note_on_c, 8, 68, 0
9, 130560, Note_on_c, 8, 56, 96
9, 130680, Note_on_c, 8, 56, 0
9, 130800, Note_on_c, 8, 59, 96
9, 130920, Note_on_c, 8, 59, 0
9, 131040, Note_on_c, 8, 64, 96
9, 131280, Note_on_c, 8, 64, 0
9, 131400, Note_on_c, 8, 59, 96
9, 131490, Note_on_c, 8, 59, 0
9, 131520, Note_on_c, 8, 64, 96
9, 131610, Note_on_c, 8, 64, 0
9, 131640, Note_on_c, 8, 59, 96
9, 131730, Note_on_c, 8, 59, 0
9, 131760, Note_on_c, 8, 64, 96
9, 131850, Note_on_c, 8, 64, 0
9, 131880, Note_on_c, 8, 59, 96
9, 131970, Note_on_c, 8, 59, 0
9, 132000, Note_on_c, 8, 64, 96
9, 132090, Note_on_c, 8, 64, 0
9, 132120, Note_on_c, 8, 59, 96
9, 132210, Note_on_c, 8, 59, 0
9, 132240, Note_on_c, 8, 59, 96
9, 132330, Note_on_c, 8, 59, 0
9, 132360, Note_on_c, 8, 59, 96
9, 132450, Note_on_c, 8, 59, 0
9, 132480, Note_on_c, 8, 64, 96
9, 132570, Note_on_c, 8, 64, 0
9, 132600, Note_on_c, 8, 63, 96
9, 132690, Note_on_c, 8, 63, 0
9, 132720, Note_on_c, 8, 59, 96
9, 132810, Note_on_c, 8, 59, 0
9, 132840, Note_on_c, 8, 59, 96
9, 132930, Note_on_c, 8, 59, 0
9, 132960, Note_on_c, 8, 59, 96
9, 133080, Note_on_c, 8, 59, 0
9, 133200, Note_on_c, 8, 63, 96
9, 133320, Note_on_c, 8, 63, 0
9, 133440, Note_on_c, 8, 66, 96
9, 133680, Note_on_c, 8, 66, 0
9, 133920, Note_on_c, 8, 59, 80
9, 134040, Note_on_c, 8, 59, 0
9, 134160, Note_on_c, 8, 63, 80
9, 134280, Note_on_c, 8, 63, 0
9, 134400, Note_on_c, 8, 66, 80
9, 134640, Note_on_c, 8, 66, 0
9, 134880, Note_on_c, 8, 59, 64
9, 135000, Note_on_c, 8, 59, 0
9, 135120, Note_on_c, 8, 63, 64
9, 135240, Note_on_c, 8, 63, 0
9, 135360, Note_on_c, 8, 66, 64
9, 135600, Note_on_c, 8, 66, 0
9, 135720, Note_on_c, 8, 66, 96
9, 135810, Note_on_c, 8, 66, 0
9, 135840, Note_on_c, 8, 71, 96
9, 135930, Note_on_c, 8, 71, 0
9, 135960, Note_on_c, 8, 66, 96
9, 136050, Note_on_c, 8, 66, 0
9, 136080, Note_on_c, 8, 71, 96
9, 136170, Note_on_c, 8, 71, 0
9, 136200, Note_on_c, 8, 66, 96
9, 136290, Note_on_c, 8, 66, 0
9, 136320, Note_on_c, 8, 71, 96
9, 136410, Note_on_c, 8, 71, 0
9, 136440, Note_on_c, 8, 66, 96
9, 136620, Note_on_c, 8, 66, 0
9, 136680, Note_on_c, 8, 63, 96
9, 136770, Note_on_c, 8, 63, 0
9, 136800, Note_on_c, 8, 59, 96
9, 137760, Note_on_c, 8, 59, 0
9, 138840, Note_on_c, 8, 59, 96
9, 138930, Note_on_c, 8, 59, 0
9, 139080, Note_on_c, 8, 58, 96
9, 139170, Note_on_c, 8, 58, 0
9, 139320, Note_on_c, 8, 56, 96
9, 139410, Note_on_c, 8, 56, 0
9, 139560, Note_on_c, 8, 61, 96
9, 139650, Note_on_c, 8, 61, 0
9, 139680, Note_on_c, 8, 54, 96
9, 139860, Note_on_c, 8, 54, 0
9, 140160, Note_on_c, 8, 63, 96
9, 140205, Note_on_c, 8, 63, 0
9, 140220, Note_on_c, 8, 63, 96
9, 140265, Note_on_c, 8, 63, 0
9, 140280, Note_on_c, 8, 63, 96
9, 140325, Note_on_c, 8, 63, 0
9, 140340, Note_on_c, 8, 63, 96
9, 140385, Note_on_c, 8, 63, 0
9, 140400, Note_on_c, 8, 63, 96
9, 140445, Note_on_c, 8, 63, 0
9, 140460, Note_on_c, 8, 63, 96
9, 140505, Note_on_c, 8, 63, 0
9, 140520, Note_on_c, 8, 63, 96
9, 140565, Note_on_c, 8, 63, 0
9, 140580, Note_on_c, 8, 63, 96
9, 140625, Note_on_c, 8, 63, 0
9, 140640, Note_on_c, 8, 63, 96
9, 140760, Note_on_c, 8, 63, 0
9, 141120, Note_on_c, 8, 68, 96
9, 141165, Note_on_c, 8, 68, 0
9, 141180, Note_on_c, 8, 68, 96
9, 141225, Note_on_c, 8, 68, 0
9, 141240, Note_on_c, 8, 68, 96
9, 141285, Note_on_c, 8, 68, 0
9, 141300, Note_on_c, 8, 68, 96
9, 141345, Note_on_c, 8, 68, 0
9, 141360, Note_on_c, 8, 68, 96
9, 141405, Note_on_c, 8, 68, 0
9, 141420, Note_on_c, 8, 68, 96
9, 141465, Note_on_c, 8, 68, 0
9, 141480, Note_on_c, 8, 68, 96
9, 141525, Note_on_c, 8, 68, 0
9, 141540, Note_on_c, 8, 68, 96
9, 141585, Note_on_c, 8, 68, 0
9, 141600, Note_on_c, 8, 66, 96
9, 141720, Note_on_c, 8, 66, 0
9, 142080, Note_on_c, 8, 66, 96
9, 142125, Note_on_c, 8, 66, 0
9, 142140, Note_on_c, 8, 66, 96
9, 142185, Note_on_c, 8, 66, 0
9, 142200, Note_on_c, 8, 66, 96
9, 142245, Note_on_c, 8, 66, 0
9, 142260, Note_on_c, 8, 66, 96
9, 142305, Note_on_c, 8, 66, 0
9, 142320, Note_on_c, 8, 66, 96
9, 142365, Note_on_c, 8, 66, 0
9, 142380, Note_on_c, 8, 66, 96
9, 142425, Note_on_c, 8, 66, 0
9, 142440, Note_on_c, 8, 66, 96
9, 142485, Note_on_c, 8, 66, 0
9, 142500, Note_on_c, 8, 66, 96
9, 142545, Note_on_c, 8, 66, 0
9, 142560, Note_on_c, 8, 68, 96
9, 142740, Note_on_c, 8, 68, 0
9, 142800, Note_on_c, 8, 63, 96
9, 142980, Note_on_c, 8, 63, 0
9, 143040, Note_on_c, 8, 64, 96
9, 143220, Note_on_c, 8, 64, 0
9, 143280, Note_on_c, 8, 59, 96
9, 143460, Note_on_c, 8, 59, 0
9, 143520, Note_on_c, 8, 61, 96
9, 143700, Note_on_c, 8, 61, 0
9, 143760, Note_on_c, 8, 58, 96
9, 143850, Note_on_c, 8, 58, 0
9, 143880, Note_on_c, 8, 59, 96
9, 143970, Note_on_c, 8, 59, 0
9, 144000, Note_on_c, 8, 61, 96
9, 144090, Note_on_c, 8, 61, 0
9, 144120, Note_on_c, 8, 58, 96
9, 144165, Note_on_c, 8, 58, 0
9, 144180, Note_on_c, 8, 59, 96
9, 144225, Note_on_c, 8, 59, 0
9, 144240, Note_on_c, 8, 61, 96
9, 144330, Note_on_c, 8, 61, 0
9, 144360, Note_on_c, 8, 58, 96
9, 144405, Note_on_c, 8, 58, 0
9, 144420, Note_on_c, 8, 59, 96
9, 144465, Note_on_c, 8, 59, 0
9, 144480, Note_on_c, 8, 61, 96
9, 144660, Note_on_c, 8, 61, 0
9, 144840, Note_on_c, 8, 66, 96
9, 144930, Note_on_c, 8, 66, 0
9, 144960, Note_on_c, 8, 66, 96
9, 145050, Note_on_c, 8, 66, 0
9, 145080, Note_on_c, 8, 64, 96
9, 145125, Note_on_c, 8, 64, 0
9, 145140, Note_on_c, 8, 63, 96
9, 145185, Note_on_c, 8, 63, 0
9, 145200, Note_on_c, 8, 61, 96
9, 145290, Note_on_c, 8, 61, 0
9, 145320, Note_on_c, 8, 64, 96
9, 145410, Note_on_c, 8, 64, 0
9, 145440, Note_on_c, 8, 63, 96
9, 145620, Note_on_c, 8, 63, 0
9, 146040, Note_on_c, 8, 59, 96
9, 146085, Note_on_c, 8, 59, 0
9, 146100, Note_on_c, 8, 59, 96
9, 146145, Note_on_c, 8, 59, 0
9, 146160, Note_on_c, 8, 59, 96
9, 146205, Note_on_c, 8, 59, 0
9, 146220, Note_on_c, 8, 59, 96
9, 146265, Note_on_c, 8, 59, 0
9, 146280, Note_on_c, 8, 66, 96
9, 146325, Note_on_c, 8, 66, 0
9, 146340, Note_on_c, 8, 66, 96
9, 146385, Note_on_c, 8, 66, 0
9, 146400, Note_on_c, 8, 66, 96
9, 146580, Note_on_c, 8, 66, 0
9, 147480, Note_on_c, 8, 63, 96
9, 147525, Note_on_c, 8, 63, 0
9, 147540, Note_on_c, 8, 63, 96
9, 147585, Note_on_c, 8, 63, 0
9, 147600, Note_on_c, 8, 64, 96
9, 147645, Note_on_c, 8, 64, 0
9, 147660, Note_on_c, 8, 64, 96
9, 147705, Note_on_c, 8, 64, 0
9, 147720, Note_on_c, 8, 61, 96
9, 147765, Note_on_c, 8, 61, 0
9, 147780, Note_on_c, 8, 61, 96
9, 147825, Note_on_c, 8, 61, 0
9, 147840, Note_on_c, 8, 63, 96
9, 147930, Note_on_c, 8, 63, 0
9, 147960, Note_on_c, 8, 63, 96
9, 148140, Note_on_c, 8, 63, 0
9, 148200, Note_on_c, 8, 61, 96
9, 148290, Note_on_c, 8, 61, 0
9, 148320, Note_on_c, 8, 59, 96
9, 148410, Note_on_c, 8, 59, 0
9, 148440, Note_on_c, 8, 71, 96
9, 148485, Note_on_c, 8, 71, 0
9, 148500, Note_on_c, 8, 70, 96
9, 148545, Note_on_c, 8, 70, 0
9, 148560, Note_on_c, 8, 68, 96
9, 148605, Note_on_c, 8, 68, 0
9, 148620, Note_on_c, 8, 68, 96
9, 148665, Note_on_c, 8, 68, 0
9, 148680, Note_on_c, 8, 66, 96
9, 148725, Note_on_c, 8, 66, 0
9, 148740, Note_on_c, 8, 66, 96
9, 148785, Note_on_c, 8, 66, 0
9, 148800, Note_on_c, 8, 66, 96
9, 148890, Note_on_c, 8, 66, 0
9, 148920, Note_on_c, 8, 68, 96
9, 149010, Note_on_c, 8, 68, 0
9, 149040, Note_on_c, 8, 68, 96
9, 149130, Note_on_c, 8, 68, 0
9, 149160, Note_on_c, 8, 61, 96
9, 149250, Note_on_c, 8, 61, 0
9, 149280, Note_on_c, 8, 63, 96
9, 149520, Note_on_c, 8, 63, 0
9, 149760, Note_on_c, 8, 56, 96
9, 149880, Note_on_c, 8, 56, 0
9, 150000, Note_on_c, 8, 59, 96
9, 150120, Note_on_c, 8, 59, 0
9, 150240, Note_on_c, 8, 64, 96
9, 150360, Note_on_c, 8, 64, 0
9, 150480, Note_on_c, 8, 68, 96
9, 150600, Note_on_c, 8, 68, 0
9, 150720, Note_on_c, 8, 71, 96
9, 150960, Note_on_c, 8, 71, 0
9, 151200, Note_on_c, 8, 64, 80
9, 151320, Note_on_c, 8, 64, 0
9, 151440, Note_on_c, 8, 68, 80
9, 151560, Note_on_c, 8, 68, 0
9, 151680, Note_on_c, 8, 71, 80
9, 151800, Note_on_c, 8, 71, 0
9, 151920, Note_on_c, 8, 64, 80
9, 152040, Note_on_c, 8, 64, 0
9, 152160, Note_on_c, 8, 68, 80
9, 152400, Note_on_c, 8, 68, 0
9, 152640, Note_on_c, 8, 71, 64
9, 152820, Note_on_c, 8, 71, 0
9, 153000, Note_on_c, 8, 59, 96
9, 153090, Note_on_c, 8, 59, 0
9, 153120, Note_on_c, 8, 64, 96
9, 153192, Note_on_c, 8, 64, 0
9, 153240, Note_on_c, 8, 59, 96
9, 153330, Note_on_c, 8, 59, 0
9, 153360, Note_on_c, 8, 64, 96
9, 153450, Note_on_c, 8, 64, 0
9, 153480, Note_on_c, 8, 59, 96
9, 153570, Note_on_c, 8, 59, 0
9, 153600, Note_on_c, 8, 64, 96
9, 153690, Note_on_c, 8, 64, 0
9, 153720, Note_on_c, 8, 59, 96
9, 153810, Note_on_c, 8, 59, 0
9, 153840, Note_on_c, 8, 59, 96
9, 153930, Note_on_c, 8, 59, 0
9, 153960, Note_on_c, 8, 56, 96
9, 154050, Note_on_c, 8, 56, 0
9, 154080, Note_on_c, 8, 52, 96
9, 155040, Note_on_c, 8, 52, 0
9, 156120, Note_on_c, 8, 64, 96
9, 156210, Note_on_c, 8, 64, 0
9, 156360, Note_on_c, 8, 63, 96
9, 156450, Note_on_c, 8, 63, 0
9, 156600, Note_on_c, 8, 61, 96
9, 156690, Note_on_c, 8, 61, 0
9, 156840, Note_on_c, 8, 54, 96
9, 156930, Note_on_c, 8, 54, 0
9, 156960, Note_on_c, 8, 59, 96
9, 157200, Note_on_c, 8, 59, 0
9, 157440, Note_on_c, 8, 68, 96
9, 157485, Note_on_c, 8, 68, 0
9, 157500, Note_on_c, 8, 68, 96
9, 157545, Note_on_c, 8, 68, 0
9, 157560, Note_on_c, 8, 68, 96
9, 157605, Note_on_c, 8, 68, 0
9, 157620, Note_on_c, 8, 68, 96
9, 157665, Note_on_c, 8, 68, 0
9, 157680, Note_on_c, 8, 68, 96
9, 157725, Note_on_c, 8, 68, 0
9, 157740, Note_on_c, 8, 68, 96
9, 157785, Note_on_c, 8, 68, 0
9, 157800, Note_on_c, 8, 68, 96
9, 157845, Note_on_c, 8, 68, 0
9, 157860, Note_on_c, 8, 68, 96
9, 157905, Note_on_c, 8, 68, 0
9, 157920, Note_on_c, 8, 65, 96
9, 158040, Note_on_c, 8, 65, 0
9, 158400, Note_on_c, 8, 66, 96
9, 158445, Note_on_c, 8, 66, 0
9, 158460, Note_on_c, 8, 66, 96
9, 158505, Note_on_c, 8, 66, 0
9, 158520, Note_on_c, 8, 66, 96
9, 158565, Note_on_c, 8, 66, 0
9, 158580, Note_on_c, 8, 66, 96
9, 158625, Note_on_c, 8, 66, 0
9, 158640, Note_on_c, 8, 66, 96
9, 158685, Note_on_c, 8, 66, 0
9, 158700, Note_on_c, 8, 66, 96
9, 158745, Note_on_c, 8, 66, 0
9, 158760, Note_on_c, 8, 66, 96
9, 158805, Note_on_c, 8, 66, 0
9, 158820, Note_on_c, 8, 66, 96
9, 158865, Note_on_c, 8, 66, 0
9, 158880, Note_on_c, 8, 66, 96
9, 159000, Note_on_c, 8, 66, 0
9, 159360, Note_on_c, 8, 71, 96
9, 159405, Note_on_c, 8, 71, 0
9, 159420, Note_on_c, 8, 71, 96
9, 159465, Note_on_c, 8, 71, 0
9, 159480, Note_on_c, 8, 71, 96
9, 159525, Note_on_c, 8, 71, 0
9, 159540, Note_on_c, 8, 71, 96
9, 159585, Note_on_c, 8, 71, 0
9, 159600, Note_on_c, 8, 71, 96
9, 159645, Note_on_c, 8, 71, 0
9, 159660, Note_on_c, 8, 71, 96
9, 159705, Note_on_c, 8, 71, 0
9, 159720, Note_on_c, 8, 71, 96
9, 159765, Note_on_c, 8, 71, 0
9, 159780, Note_on_c, 8, 71, 96
9, 159825, Note_on_c, 8, 71, 0
9, 159840, Note_on_c, 8, 73, 96
9, 160020, Note_on_c, 8, 73, 0
9, 160080, Note_on_c, 8, 68, 96
9, 160260, Note_on_c, 8, 68, 0
9, 160320, Note_on_c, 8, 69, 96
9, 160500, Note_on_c, 8, 69, 0
9, 160560, Note_on_c, 8, 64, 96
9, 160740, Note_on_c, 8, 64, 0
9, 160800, Note_on_c, 8, 66, 96
9, 160980, Note_on_c, 8, 66, 0
9, 161040, Note_on_c, 8, 63, 96
9, 161130, Note_on_c, 8, 63, 0
9, 161160, Note_on_c, 8, 64, 96
9, 161250, Note_on_c, 8, 64, 0
9, 161280, Note_on_c, 8, 66, 96
9, 161370, Note_on_c, 8, 66, 0
9, 161400, Note_on_c, 8, 63, 96
9, 161445, Note_on_c, 8, 63, 0
9, 161460, Note_on_c, 8, 64, 96
9, 161505, Note_on_c, 8, 64, 0
9, 161520, Note_on_c, 8, 66, 96
9, 161610, Note_on_c, 8, 66, 0
9, 161640, Note_on_c, 8, 63, 96
9, 161685, Note_on_c, 8, 63, 0
9, 161700, Note_on_c, 8, 64, 96
9, 161745, Note_on_c, 8, 64, 0
9, 161760, Note_on_c, 8, 66, 96
9, 161940, Note_on_c, 8, 66, 0
9, 162120, Note_on_c, 8, 71, 96
9, 162210, Note_on_c, 8, 71, 0
9, 162240, Note_on_c, 8, 71, 96
9, 162330, Note_on_c, 8, 71, 0
9, 162360, Note_on_c, 8, 69, 96
9, 162405, Note_on_c, 8, 69, 0
9, 162420, Note_on_c, 8, 68, 96
9, 162465, Note_on_c, 8, 68, 0
9, 162480, Note_on_c, 8, 66, 96
9, 162570, Note_on_c, 8, 66, 0
9, 162600, Note_on_c, 8, 69, 96
9, 162690, Note_on_c, 8, 69, 0
9, 162720, Note_on_c, 8, 68, 96
9, 162900, Note_on_c, 8, 68, 0
9, 163320, Note_on_c, 8, 64, 96
9, 163365, Note_on_c, 8, 64, 0
9, 163380, Note_on_c, 8, 64, 96
9, 163425, Note_on_c, 8, 64, 0
9, 163440, Note_on_c, 8, 64, 96
9, 163485, Note_on_c, 8, 64, 0
9, 163500, Note_on_c, 8, 64, 96
9, 163545, Note_on_c, 8, 64, 0
9, 163560, Note_on_c, 8, 71, 96
9, 163605, Note_on_c, 8, 71, 0
9, 163620, Note_on_c, 8, 71, 96
9, 163665, Note_on_c, 8, 71, 0
9, 163680, Note_on_c, 8, 71, 96
9, 163860, Note_on_c, 8, 71, 0
9, 164760, Note_on_c, 8, 68, 96
9, 164805, Note_on_c, 8, 68, 0
9, 164820, Note_on_c, 8, 68, 96
9, 164865, Note_on_c, 8, 68, 0
9, 164880, Note_on_c, 8, 69, 96
9, 164925, Note_on_c, 8, 69, 0
9, 164940, Note_on_c, 8, 69, 96
9, 164985, Note_on_c, 8, 69, 0
9, 165000, Note_on_c, 8, 66, 96
9, 165045, Note_on_c, 8, 66, 0
9, 165060, Note_on_c, 8, 66, 96
9, 165105, Note_on_c, 8, 66, 0
9, 165120, Note_on_c, 8, 68, 96
9, 165210, Note_on_c, 8, 68, 0
9, 165240, Note_on_c, 8, 68, 96
9, 165420, Note_on_c, 8, 68, 0
9, 165480, Note_on_c, 8, 66, 96
9, 165570, Note_on_c, 8, 66, 0
9, 165600, Note_on_c, 8, 64, 96
9, 165645, Note_on_c, 8, 64, 0
9, 165660, Note_on_c, 8, 64, 96
9, 165705, Note_on_c, 8, 64, 0
9, 165720, Note_on_c, 8, 63, 96
9, 165765, Note_on_c, 8, 63, 0
9, 165780, Note_on_c, 8, 63, 96
9, 165825, Note_on_c, 8, 63, 0
9, 165840, Note_on_c, 8, 61, 96
9, 165885, Note_on_c, 8, 61, 0
9, 165900, Note_on_c, 8, 61, 96
9, 165945, Note_on_c, 8, 61, 0
9, 165960, Note_on_c, 8, 59, 96
9, 166005, Note_on_c, 8, 59, 0
9, 166020, Note_on_c, 8, 59, 96
9, 166065, Note_on_c, 8, 59, 0
9, 166080, Note_on_c, 8, 59, 96
9, 166170, Note_on_c, 8, 59, 0
9, 166200, Note_on_c, 8, 61, 96
9, 166290, Note_on_c, 8, 61, 0
9, 166320, Note_on_c, 8, 61, 96
9, 166410, Note_on_c, 8, 61, 0
9, 166440, Note_on_c, 8, 66, 96
9, 166530, Note_on_c, 8, 66, 0
9, 166560, Note_on_c, 8, 68, 96
9, 166800, Note_on_c, 8, 68, 0
9, 166800, End_track
10, 0, Start_track
10, 0, MIDI_port, 0
10, 0, Title_t, "acc."
10, 0, Program_c, 10, 48
10, 0, Control_c, 10, 7, 96
10, 0, Control_c, 10, 10, 112
10, 0, Note_on_c, 10, 52, 96
10, 132, Note_on_c, 10, 52, 0
10, 240, Note_on_c, 10, 40, 96
10, 372, Note_on_c, 10, 40, 0
10, 480, Note_on_c, 10, 52, 96
10, 720, Note_on_c, 10, 52, 0
10, 840, Note_on_c, 10, 40, 96
10, 960, Note_on_c, 10, 40, 0
10, 960, Note_on_c, 10, 52, 112
10, 1026, Note_on_c, 10, 52, 0
10, 1080, Note_on_c, 10, 56, 96
10, 1140, Note_on_c, 10, 56, 0
10, 1140, Note_on_c, 10, 54, 96
10, 1200, Note_on_c, 10, 54, 0
10, 1200, Note_on_c, 10, 52, 112
10, 1266, Note_on_c, 10, 52, 0
10, 1320, Note_on_c, 10, 56, 96
10, 1380, Note_on_c, 10, 56, 0
10, 1380, Note_on_c, 10, 54, 96
10, 1440, Note_on_c, 10, 54, 0
10, 1440, Note_on_c, 10, 52, 112
10, 1506, Note_on_c, 10, 52, 0
10, 1560, Note_on_c, 10, 56, 96
10, 1620, Note_on_c, 10, 56, 0
10, 1620, Note_on_c, 10, 54, 96
10, 1680, Note_on_c, 10, 54, 0
10, 1680, Note_on_c, 10, 52, 112
10, 1746, Note_on_c, 10, 52, 0
10, 1800, Note_on_c, 10, 51, 96
10, 1920, Note_on_c, 10, 51, 0
10, 1920, Note_on_c, 10, 49, 96
10, 2040, Note_on_c, 10, 49, 0
10, 2040, Note_on_c, 10, 51, 96
10, 2160, Note_on_c, 10, 51, 0
10, 2160, Note_on_c, 10, 52, 96
10, 2280, Note_on_c, 10, 52, 0
10, 2280, Note_on_c, 10, 40, 96
10, 2400, Note_on_c, 10, 40, 0
10, 2400, Note_on_c, 10, 47, 96
10, 2532, Note_on_c, 10, 47, 0
10, 2880, Note_on_c, 10, 44, 96
10, 2928, Note_on_c, 10, 44, 0
10, 2940, Note_on_c, 10, 45, 96
10, 2988, Note_on_c, 10, 45, 0
10, 3000, Note_on_c, 10, 47, 96
10, 3048, Note_on_c, 10, 47, 0
10, 3060, Note_on_c, 10, 49, 96
10, 3108, Note_on_c, 10, 49, 0
10, 3120, Note_on_c, 10, 51, 96
10, 3168, Note_on_c, 10, 51, 0
10, 3180, Note_on_c, 10, 52, 96
10, 3228, Note_on_c, 10, 52, 0
10, 3240, Note_on_c, 10, 54, 96
10, 3288, Note_on_c, 10, 54, 0
10, 3300, Note_on_c, 10, 56, 96
10, 3348, Note_on_c, 10, 56, 0
10, 3360, Note_on_c, 10, 49, 96
10, 3504, Note_on_c, 10, 49, 0
10, 3840, Note_on_c, 10, 42, 96
10, 3888, Note_on_c, 10, 42, 0
10, 3900, Note_on_c, 10, 44, 96
10, 3948, Note_on_c, 10, 44, 0
10, 3960, Note_on_c, 10, 45, 96
10, 4008, Note_on_c, 10, 45, 0
10, 4020, Note_on_c, 10, 47, 96
10, 4068, Note_on_c, 10, 47, 0
10, 4080, Note_on_c, 10, 49, 96
10, 4128, Note_on_c, 10, 49, 0
10, 4140, Note_on_c, 10, 51, 96
10, 4188, Note_on_c, 10, 51, 0
10, 4200, Note_on_c, 10, 52, 96
10, 4248, Note_on_c, 10, 52, 0
10, 4260, Note_on_c, 10, 54, 96
10, 4308, Note_on_c, 10, 54, 0
10, 4320, Note_on_c, 10, 47, 96
10, 4464, Note_on_c, 10, 47, 0
10, 4800, Note_on_c, 10, 40, 96
10, 4848, Note_on_c, 10, 40, 0
10, 4860, Note_on_c, 10, 42, 96
10, 4908, Note_on_c, 10, 42, 0
10, 4920, Note_on_c, 10, 44, 96
10, 4968, Note_on_c, 10, 44, 0
10, 4980, Note_on_c, 10, 45, 96
10, 5028, Note_on_c, 10, 45, 0
10, 5040, Note_on_c, 10, 47, 96
10, 5100, Note_on_c, 10, 47, 0
10, 5100, Note_on_c, 10, 49, 96
10, 5160, Note_on_c, 10, 49, 0
10, 5160, Note_on_c, 10, 51, 96
10, 5220, Note_on_c, 10, 51, 0
10, 5220, Note_on_c, 10, 52, 96
10, 5280, Note_on_c, 10, 52, 0
10, 5280, Note_on_c, 10, 49, 96
10, 5376, Note_on_c, 10, 49, 0
10, 5400, Note_on_c, 10, 61, 96
10, 5592, Note_on_c, 10, 61, 0
10, 5640, Note_on_c, 10, 59, 96
10, 5736, Note_on_c, 10, 59, 0
10, 5760, Note_on_c, 10, 57, 96
10, 5880, Note_on_c, 10, 57, 0
10, 5880, Note_on_c, 10, 45, 96
10, 6120, Note_on_c, 10, 45, 0
10, 6120, Note_on_c, 10, 44, 96
10, 6240, Note_on_c, 10, 44, 0
10, 6240, Note_on_c, 10, 42, 96
10, 6360, Note_on_c, 10, 42, 0
10, 6360, Note_on_c, 10, 54, 96
10, 6600, Note_on_c, 10, 54, 0
10, 6600, Note_on_c, 10, 52, 96
10, 6720, Note_on_c, 10, 52, 0
10, 6720, Note_on_c, 10, 51, 96
10, 7200, Note_on_c, 10, 51, 0
10, 7200, Note_on_c, 10, 51, 96
10, 7260, Note_on_c, 10, 51, 0
10, 7260, Note_on_c, 10, 52, 96
10, 7320, Note_on_c, 10, 52, 0
10, 7320, Note_on_c, 10, 54, 96
10, 7380, Note_on_c, 10, 54, 0
10, 7380, Note_on_c, 10, 51, 96
10, 7440, Note_on_c, 10, 51, 0
10, 7440, Note_on_c, 10, 47, 96
10, 7560, Note_on_c, 10, 47, 0
10, 7560, Note_on_c, 10, 51, 96
10, 7680, Note_on_c, 10, 51, 0
10, 7680, Note_on_c, 10, 52, 96
10, 7800, Note_on_c, 10, 52, 0
10, 7800, Note_on_c, 10, 56, 96
10, 7920, Note_on_c, 10, 56, 0
10, 7920, Note_on_c, 10, 57, 96
10, 8040, Note_on_c, 10, 57, 0
10, 8040, Note_on_c, 10, 59, 96
10, 8160, Note_on_c, 10, 59, 0
10, 8160, Note_on_c, 10, 61, 96
10, 8244, Note_on_c, 10, 61, 0
10, 8280, Note_on_c, 10, 56, 96
10, 8340, Note_on_c, 10, 56, 0
10, 8340, Note_on_c, 10, 56, 96
10, 8400, Note_on_c, 10, 56, 0
10, 8400, Note_on_c, 10, 57, 96
10, 8460, Note_on_c, 10, 57, 0
10, 8460, Note_on_c, 10, 57, 96
10, 8520, Note_on_c, 10, 57, 0
10, 8520, Note_on_c, 10, 59, 96
10, 8580, Note_on_c, 10, 59, 0
10, 8580, Note_on_c, 10, 59, 96
10, 8640, Note_on_c, 10, 59, 0
10, 8640, Note_on_c, 10, 61, 96
10, 8688, Note_on_c, 10, 61, 0
10, 8700, Note_on_c, 10, 61, 96
10, 8748, Note_on_c, 10, 61, 0
10, 8760, Note_on_c, 10, 56, 96
10, 8808, Note_on_c, 10, 56, 0
10, 8820, Note_on_c, 10, 56, 96
10, 8868, Note_on_c, 10, 56, 0
10, 8880, Note_on_c, 10, 57, 96
10, 8928, Note_on_c, 10, 57, 0
10, 8940, Note_on_c, 10, 57, 96
10, 8988, Note_on_c, 10, 57, 0
10, 9000, Note_on_c, 10, 59, 96
10, 9048, Note_on_c, 10, 59, 0
10, 9060, Note_on_c, 10, 59, 96
10, 9108, Note_on_c, 10, 59, 0
10, 9120, Note_on_c, 10, 61, 96
10, 9168, Note_on_c, 10, 61, 0
10, 9180, Note_on_c, 10, 61, 96
10, 9228, Note_on_c, 10, 61, 0
10, 9240, Note_on_c, 10, 59, 96
10, 9288, Note_on_c, 10, 59, 0
10, 9300, Note_on_c, 10, 59, 96
10, 9348, Note_on_c, 10, 59, 0
10, 9360, Note_on_c, 10, 61, 96
10, 9408, Note_on_c, 10, 61, 0
10, 9420, Note_on_c, 10, 61, 96
10, 9468, Note_on_c, 10, 61, 0
10, 9480, Note_on_c, 10, 63, 96
10, 9528, Note_on_c, 10, 63, 0
10, 9540, Note_on_c, 10, 63, 96
10, 9588, Note_on_c, 10, 63, 0
10, 9600, Note_on_c, 10, 64, 96
10, 9696, Note_on_c, 10, 64, 0
10, 9720, Note_on_c, 10, 61, 96
10, 9816, Note_on_c, 10, 61, 0
10, 9840, Note_on_c, 10, 57, 96
10, 9936, Note_on_c, 10, 57, 0
10, 9960, Note_on_c, 10, 59, 96
10, 10056, Note_on_c, 10, 59, 0
10, 10080, Note_on_c, 10, 52, 96
10, 10320, Note_on_c, 10, 52, 0
10, 11040, Note_on_c, 10, 52, 96
10, 11232, Note_on_c, 10, 52, 0
10, 11280, Note_on_c, 10, 56, 96
10, 11472, Note_on_c, 10, 56, 0
10, 11520, Note_on_c, 10, 57, 96
10, 11760, Note_on_c, 10, 57, 0
10, 11820, Note_on_c, 10, 56, 96
10, 11880, Note_on_c, 10, 56, 0
10, 11880, Note_on_c, 10, 54, 96
10, 11940, Note_on_c, 10, 54, 0
10, 11940, Note_on_c, 10, 52, 96
10, 12000, Note_on_c, 10, 52, 0
10, 12000, Note_on_c, 10, 57, 96
10, 12240, Note_on_c, 10, 57, 0
10, 12360, Note_on_c, 10, 56, 96
10, 12480, Note_on_c, 10, 56, 0
10, 12480, Note_on_c, 10, 54, 96
10, 12600, Note_on_c, 10, 54, 0
10, 12600, Note_on_c, 10, 51, 96
10, 12720, Note_on_c, 10, 51, 0
10, 12720, Note_on_c, 10, 52, 96
10, 12840, Note_on_c, 10, 52, 0
10, 12840, Note_on_c, 10, 40, 96
10, 12960, Note_on_c, 10, 40, 0
10, 12960, Note_on_c, 10, 47, 96
10, 13200, Note_on_c, 10, 47, 0
10, 13440, Note_on_c, 10, 52, 96
10, 13560, Note_on_c, 10, 52, 0
10, 13680, Note_on_c, 10, 40, 96
10, 13800, Note_on_c, 10, 40, 0
10, 13920, Note_on_c, 10, 52, 96
10, 14160, Note_on_c, 10, 52, 0
10, 14280, Note_on_c, 10, 40, 96
10, 14400, Note_on_c, 10, 40, 0
10, 14400, Note_on_c, 10, 52, 112
10, 14460, Note_on_c, 10, 52, 0
10, 14520, Note_on_c, 10, 56, 96
10, 14568, Note_on_c, 10, 56, 0
10, 14580, Note_on_c, 10, 54, 96
10, 14628, Note_on_c, 10, 54, 0
10, 14640, Note_on_c, 10, 52, 112
10, 14736, Note_on_c, 10, 52, 0
10, 14760, Note_on_c, 10, 56, 96
10, 14808, Note_on_c, 10, 56, 0
10, 14820, Note_on_c, 10, 54, 96
10, 14868, Note_on_c, 10, 54, 0
10, 14880, Note_on_c, 10, 52, 112
10, 14940, Note_on_c, 10, 52, 0
10, 15000, Note_on_c, 10, 56, 96
10, 15048, Note_on_c, 10, 56, 0
10, 15060, Note_on_c, 10, 54, 96
10, 15108, Note_on_c, 10, 54, 0
10, 15120, Note_on_c, 10, 52, 96
10, 15216, Note_on_c, 10, 52, 0
10, 15240, Note_on_c, 10, 51, 96
10, 15336, Note_on_c, 10, 51, 0
10, 15360, Note_on_c, 10, 49, 96
10, 15456, Note_on_c, 10, 49, 0
10, 15480, Note_on_c, 10, 51, 96
10, 15576, Note_on_c, 10, 51, 0
10, 15600, Note_on_c, 10, 52, 96
10, 15696, Note_on_c, 10, 52, 0
10, 15720, Note_on_c, 10, 40, 96
10, 15816, Note_on_c, 10, 40, 0
10, 15840, Note_on_c, 10, 47, 96
10, 16032, Note_on_c, 10, 47, 0
10, 16200, Note_on_c, 10, 59, 96
10, 16296, Note_on_c, 10, 59, 0
10, 16320, Note_on_c, 10, 59, 96
10, 16416, Note_on_c, 10, 59, 0
10, 16440, Note_on_c, 10, 47, 96
10, 16536, Note_on_c, 10, 47, 0
10, 16680, Note_on_c, 10, 59, 96
10, 16776, Note_on_c, 10, 59, 0
10, 16800, Note_on_c, 10, 59, 96
10, 16896, Note_on_c, 10, 59, 0
10, 16920, Note_on_c, 10, 47, 96
10, 17016, Note_on_c, 10, 47, 0
10, 17160, Note_on_c, 10, 59, 80
10, 17256, Note_on_c, 10, 59, 0
10, 17280, Note_on_c, 10, 59, 80
10, 17376, Note_on_c, 10, 59, 0
10, 17400, Note_on_c, 10, 47, 80
10, 17496, Note_on_c, 10, 47, 0
10, 17640, Note_on_c, 10, 59, 64
10, 17736, Note_on_c, 10, 59, 0
10, 17760, Note_on_c, 10, 59, 64
10, 17856, Note_on_c, 10, 59, 0
10, 17880, Note_on_c, 10, 47, 64
10, 17976, Note_on_c, 10, 47, 0
10, 18600, Note_on_c, 10, 47, 96
10, 18696, Note_on_c, 10, 47, 0
10, 18720, Note_on_c, 10, 59, 112
10, 18792, Note_on_c, 10, 59, 0
10, 18840, Note_on_c, 10, 63, 96
10, 18888, Note_on_c, 10, 63, 0
10, 18900, Note_on_c, 10, 61, 96
10, 18948, Note_on_c, 10, 61, 0
10, 18960, Note_on_c, 10, 59, 112
10, 19032, Note_on_c, 10, 59, 0
10, 19080, Note_on_c, 10, 63, 96
10, 19128, Note_on_c, 10, 63, 0
10, 19140, Note_on_c, 10, 61, 96
10, 19188, Note_on_c, 10, 61, 0
10, 19200, Note_on_c, 10, 59, 112
10, 19296, Note_on_c, 10, 59, 0
10, 19320, Note_on_c, 10, 63, 96
10, 19368, Note_on_c, 10, 63, 0
10, 19380, Note_on_c, 10, 61, 96
10, 19428, Note_on_c, 10, 61, 0
10, 19440, Note_on_c, 10, 59, 96
10, 19536, Note_on_c, 10, 59, 0
10, 19560, Note_on_c, 10, 47, 96
10, 19656, Note_on_c, 10, 47, 0
10, 19680, Note_on_c, 10, 59, 96
10, 19776, Note_on_c, 10, 59, 0
10, 19800, Note_on_c, 10, 63, 96
10, 19848, Note_on_c, 10, 63, 0
10, 19860, Note_on_c, 10, 61, 96
10, 19908, Note_on_c, 10, 61, 0
10, 19920, Note_on_c, 10, 59, 96
10, 20016, Note_on_c, 10, 59, 0
10, 20040, Note_on_c, 10, 54, 96
10, 20136, Note_on_c, 10, 54, 0
10, 20160, Note_on_c, 10, 59, 96
10, 20280, Note_on_c, 10, 59, 0
10, 20280, Note_on_c, 10, 63, 96
10, 20340, Note_on_c, 10, 63, 0
10, 20340, Note_on_c, 10, 61, 96
10, 20400, Note_on_c, 10, 61, 0
10, 20400, Note_on_c, 10, 59, 96
10, 20484, Note_on_c, 10, 59, 0
10, 20520, Note_on_c, 10, 54, 96
10, 20604, Note_on_c, 10, 54, 0
10, 20640, Note_on_c, 10, 56, 96
10, 20760, Note_on_c, 10, 56, 0
10, 20760, Note_on_c, 10, 61, 96
10, 20820, Note_on_c, 10, 61, 0
10, 20820, Note_on_c, 10, 59, 96
10, 20880, Note_on_c, 10, 59, 0
10, 20880, Note_on_c, 10, 58, 96
10, 20964, Note_on_c, 10, 58, 0
10, 21000, Note_on_c, 10, 56, 96
10, 21084, Note_on_c, 10, 56, 0
10, 21120, Note_on_c, 10, 54, 96
10, 21204, Note_on_c, 10, 54, 0
10, 21240, Note_on_c, 10, 56, 96
10, 21324, Note_on_c, 10, 56, 0
10, 21360, Note_on_c, 10, 58, 96
10, 21444, Note_on_c, 10, 58, 0
10, 21480, Note_on_c, 10, 54, 96
10, 21564, Note_on_c, 10, 54, 0
10, 21600, Note_on_c, 10, 59, 96
10, 21720, Note_on_c, 10, 59, 0
10, 21840, Note_on_c, 10, 58, 96
10, 21960, Note_on_c, 10, 58, 0
10, 22080, Note_on_c, 10, 56, 96
10, 22200, Note_on_c, 10, 56, 0
10, 22320, Note_on_c, 10, 49, 96
10, 22440, Note_on_c, 10, 49, 0
10, 22560, Note_on_c, 10, 54, 96
10, 22800, Note_on_c, 10, 54, 0
10, 23040, Note_on_c, 10, 51, 96
10, 23088, Note_on_c, 10, 51, 0
10, 23100, Note_on_c, 10, 52, 96
10, 23148, Note_on_c, 10, 52, 0
10, 23160, Note_on_c, 10, 54, 96
10, 23208, Note_on_c, 10, 54, 0
10, 23220, Note_on_c, 10, 56, 96
10, 23268, Note_on_c, 10, 56, 0
10, 23280, Note_on_c, 10, 58, 96
10, 23328, Note_on_c, 10, 58, 0
10, 23340, Note_on_c, 10, 59, 96
10, 23388, Note_on_c, 10, 59, 0
10, 23400, Note_on_c, 10, 61, 96
10, 23448, Note_on_c, 10, 61, 0
10, 23460, Note_on_c, 10, 63, 96
10, 23508, Note_on_c, 10, 63, 0
10, 23520, Note_on_c, 10, 56, 96
10, 23640, Note_on_c, 10, 56, 0
10, 24000, Note_on_c, 10, 49, 96
10, 24048, Note_on_c, 10, 49, 0
10, 24060, Note_on_c, 10, 51, 96
10, 24108, Note_on_c, 10, 51, 0
10, 24120, Note_on_c, 10, 52, 96
10, 24168, Note_on_c, 10, 52, 0
10, 24180, Note_on_c, 10, 54, 96
10, 24228, Note_on_c, 10, 54, 0
10, 24240, Note_on_c, 10, 56, 96
10, 24288, Note_on_c, 10, 56, 0
10, 24300, Note_on_c, 10, 58, 96
10, 24348, Note_on_c, 10, 58, 0
10, 24360, Note_on_c, 10, 59, 96
10, 24408, Note_on_c, 10, 59, 0
10, 24420, Note_on_c, 10, 61, 96
10, 24468, Note_on_c, 10, 61, 0
10, 24480, Note_on_c, 10, 54, 96
10, 24600, Note_on_c, 10, 54, 0
10, 24960, Note_on_c, 10, 47, 96
10, 25008, Note_on_c, 10, 47, 0
10, 25020, Note_on_c, 10, 49, 96
10, 25068, Note_on_c, 10, 49, 0
10, 25080, Note_on_c, 10, 51, 96
10, 25128, Note_on_c, 10, 51, 0
10, 25140, Note_on_c, 10, 52, 96
10, 25188, Note_on_c, 10, 52, 0
10, 25200, Note_on_c, 10, 54, 96
10, 25248, Note_on_c, 10, 54, 0
10, 25260, Note_on_c, 10, 56, 96
10, 25308, Note_on_c, 10, 56, 0
10, 25320, Note_on_c, 10, 58, 96
10, 25368, Note_on_c, 10, 58, 0
10, 25380, Note_on_c, 10, 59, 96
10, 25428, Note_on_c, 10, 59, 0
10, 25440, Note_on_c, 10, 56, 96
10, 25536, Note_on_c, 10, 56, 0
10, 25560, Note_on_c, 10, 44, 96
10, 25752, Note_on_c, 10, 44, 0
10, 25800, Note_on_c, 10, 42, 96
10, 25896, Note_on_c, 10, 42, 0
10, 25920, Note_on_c, 10, 40, 96
10, 26016, Note_on_c, 10, 40, 0
10, 26040, Note_on_c, 10, 52, 96
10, 26232, Note_on_c, 10, 52, 0
10, 26280, Note_on_c, 10, 51, 96
10, 26376, Note_on_c, 10, 51, 0
10, 26400, Note_on_c, 10, 49, 96
10, 26496, Note_on_c, 10, 49, 0
10, 26520, Note_on_c, 10, 61, 96
10, 26712, Note_on_c, 10, 61, 0
10, 26760, Note_on_c, 10, 59, 96
10, 26856, Note_on_c, 10, 59, 0
10, 26880, Note_on_c, 10, 58, 96
10, 27240, Note_on_c, 10, 58, 0
10, 27360, Note_on_c, 10, 58, 96
10, 27450, Note_on_c, 10, 58, 0
10, 27480, Note_on_c, 10, 54, 96
10, 27570, Note_on_c, 10, 54, 0
10, 27600, Note_on_c, 10, 56, 96
10, 27690, Note_on_c, 10, 56, 0
10, 27720, Note_on_c, 10, 58, 96
10, 27810, Note_on_c, 10, 58, 0
10, 27840, Note_on_c, 10, 59, 96
10, 27930, Note_on_c, 10, 59, 0
10, 27960, Note_on_c, 10, 51, 96
10, 28005, Note_on_c, 10, 51, 0
10, 28020, Note_on_c, 10, 51, 96
10, 28065, Note_on_c, 10, 51, 0
10, 28080, Note_on_c, 10, 52, 96
10, 28125, Note_on_c, 10, 52, 0
10, 28140, Note_on_c, 10, 52, 96
10, 28185, Note_on_c, 10, 52, 0
10, 28200, Note_on_c, 10, 54, 96
10, 28245, Note_on_c, 10, 54, 0
10, 28260, Note_on_c, 10, 54, 96
10, 28305, Note_on_c, 10, 54, 0
10, 28320, Note_on_c, 10, 47, 96
10, 28410, Note_on_c, 10, 47, 0
10, 28440, Note_on_c, 10, 51, 96
10, 28530, Note_on_c, 10, 51, 0
10, 28560, Note_on_c, 10, 52, 96
10, 28650, Note_on_c, 10, 52, 0
10, 28680, Note_on_c, 10, 54, 96
10, 28770, Note_on_c, 10, 54, 0
10, 28800, Note_on_c, 10, 56, 96
10, 28890, Note_on_c, 10, 56, 0
10, 28920, Note_on_c, 10, 51, 96
10, 28965, Note_on_c, 10, 51, 0
10, 28980, Note_on_c, 10, 51, 96
10, 29025, Note_on_c, 10, 51, 0
10, 29040, Note_on_c, 10, 52, 96
10, 29085, Note_on_c, 10, 52, 0
10, 29100, Note_on_c, 10, 52, 96
10, 29145, Note_on_c, 10, 52, 0
10, 29160, Note_on_c, 10, 54, 96
10, 29205, Note_on_c, 10, 54, 0
10, 29220, Note_on_c, 10, 54, 96
10, 29265, Note_on_c, 10, 54, 0
10, 29280, Note_on_c, 10, 47, 96
10, 29400, Note_on_c, 10, 47, 0
10, 30840, Note_on_c, 10, 51, 96
10, 30885, Note_on_c, 10, 51, 0
10, 30900, Note_on_c, 10, 51, 96
10, 30945, Note_on_c, 10, 51, 0
10, 30960, Note_on_c, 10, 52, 96
10, 31005, Note_on_c, 10, 52, 0
10, 31020, Note_on_c, 10, 52, 96
10, 31065, Note_on_c, 10, 52, 0
10, 31080, Note_on_c, 10, 54, 96
10, 31125, Note_on_c, 10, 54, 0
10, 31140, Note_on_c, 10, 54, 96
10, 31185, Note_on_c, 10, 54, 0
10, 31200, Note_on_c, 10, 56, 96
10, 31245, Note_on_c, 10, 56, 0
10, 31260, Note_on_c, 10, 56, 96
10, 31305, Note_on_c, 10, 56, 0
10, 31320, Note_on_c, 10, 54, 96
10, 31365, Note_on_c, 10, 54, 0
10, 31380, Note_on_c, 10, 54, 96
10, 31425, Note_on_c, 10, 54, 0
10, 31440, Note_on_c, 10, 56, 96
10, 31485, Note_on_c, 10, 56, 0
10, 31500, Note_on_c, 10, 56, 96
10, 31545, Note_on_c, 10, 56, 0
10, 31560, Note_on_c, 10, 58, 96
10, 31605, Note_on_c, 10, 58, 0
10, 31620, Note_on_c, 10, 58, 96
10, 31665, Note_on_c, 10, 58, 0
10, 31680, Note_on_c, 10, 59, 96
10, 31770, Note_on_c, 10, 59, 0
10, 31800, Note_on_c, 10, 56, 96
10, 31890, Note_on_c, 10, 56, 0
10, 31920, Note_on_c, 10, 52, 96
10, 32010, Note_on_c, 10, 52, 0
10, 32040, Note_on_c, 10, 54, 96
10, 32130, Note_on_c, 10, 54, 0
10, 32160, Note_on_c, 10, 47, 96
10, 32400, Note_on_c, 10, 47, 0
10, 32640, Note_on_c, 10, 52, 96
10, 32760, Note_on_c, 10, 52, 0
10, 32880, Note_on_c, 10, 40, 96
10, 33000, Note_on_c, 10, 40, 0
10, 33120, Note_on_c, 10, 52, 96
10, 33360, Note_on_c, 10, 52, 0
10, 33480, Note_on_c, 10, 52, 80
10, 33570, Note_on_c, 10, 52, 0
10, 33600, Note_on_c, 10, 52, 80
10, 33690, Note_on_c, 10, 52, 0
10, 33720, Note_on_c, 10, 40, 80
10, 33810, Note_on_c, 10, 40, 0
10, 33960, Note_on_c, 10, 52, 64
10, 34050, Note_on_c, 10, 52, 0
10, 34080, Note_on_c, 10, 52, 64
10, 34170, Note_on_c, 10, 52, 0
10, 34200, Note_on_c, 10, 40, 64
10, 34290, Note_on_c, 10, 40, 0
10, 34440, Note_on_c, 10, 52, 80
10, 34530, Note_on_c, 10, 52, 0
10, 34560, Note_on_c, 10, 52, 80
10, 34650, Note_on_c, 10, 52, 0
10, 34680, Note_on_c, 10, 40, 80
10, 34770, Note_on_c, 10, 40, 0
10, 34920, Note_on_c, 10, 52, 64
10, 35010, Note_on_c, 10, 52, 0
10, 35040, Note_on_c, 10, 52, 64
10, 35130, Note_on_c, 10, 52, 0
10, 35160, Note_on_c, 10, 40, 64
10, 35250, Note_on_c, 10, 40, 0
10, 35880, Note_on_c, 10, 40, 96
10, 35970, Note_on_c, 10, 40, 0
10, 36000, Note_on_c, 10, 52, 112
10, 36090, Note_on_c, 10, 52, 0
10, 36120, Note_on_c, 10, 56, 96
10, 36165, Note_on_c, 10, 56, 0
10, 36180, Note_on_c, 10, 54, 96
10, 36225, Note_on_c, 10, 54, 0
10, 36240, Note_on_c, 10, 52, 112
10, 36348, Note_on_c, 10, 52, 0
10, 36360, Note_on_c, 10, 56, 96
10, 36405, Note_on_c, 10, 56, 0
10, 36420, Note_on_c, 10, 54, 96
10, 36465, Note_on_c, 10, 54, 0
10, 36480, Note_on_c, 10, 52, 112
10, 36570, Note_on_c, 10, 52, 0
10, 36600, Note_on_c, 10, 56, 96
10, 36645, Note_on_c, 10, 56, 0
10, 36660, Note_on_c, 10, 54, 96
10, 36705, Note_on_c, 10, 54, 0
10, 36720, Note_on_c, 10, 52, 96
10, 36810, Note_on_c, 10, 52, 0
10, 36840, Note_on_c, 10, 40, 96
10, 36930, Note_on_c, 10, 40, 0
10, 36960, Note_on_c, 10, 52, 96
10, 37050, Note_on_c, 10, 52, 0
10, 37080, Note_on_c, 10, 56, 96
10, 37125, Note_on_c, 10, 56, 0
10, 37140, Note_on_c, 10, 54, 96
10, 37185, Note_on_c, 10, 54, 0
10, 37200, Note_on_c, 10, 52, 96
10, 37290, Note_on_c, 10, 52, 0
10, 37320, Note_on_c, 10, 47, 96
10, 37410, Note_on_c, 10, 47, 0
10, 37440, Note_on_c, 10, 52, 96
10, 37530, Note_on_c, 10, 52, 0
10, 37560, Note_on_c, 10, 56, 96
10, 37605, Note_on_c, 10, 56, 0
10, 37620, Note_on_c, 10, 54, 96
10, 37665, Note_on_c, 10, 54, 0
10, 37680, Note_on_c, 10, 52, 96
10, 37770, Note_on_c, 10, 52, 0
10, 37800, Note_on_c, 10, 47, 96
10, 37890, Note_on_c, 10, 47, 0
10, 37920, Note_on_c, 10, 49, 96
10, 38010, Note_on_c, 10, 49, 0
10, 38040, Note_on_c, 10, 54, 96
10, 38085, Note_on_c, 10, 54, 0
10, 38100, Note_on_c, 10, 52, 96
10, 38145, Note_on_c, 10, 52, 0
10, 38160, Note_on_c, 10, 51, 96
10, 38250, Note_on_c, 10, 51, 0
10, 38280, Note_on_c, 10, 49, 96
10, 38370, Note_on_c, 10, 49, 0
10, 38400, Note_on_c, 10, 47, 96
10, 38490, Note_on_c, 10, 47, 0
10, 38520, Note_on_c, 10, 49, 96
10, 38610, Note_on_c, 10, 49, 0
10, 38640, Note_on_c, 10, 51, 96
10, 38730, Note_on_c, 10, 51, 0
10, 38760, Note_on_c, 10, 47, 96
10, 38850, Note_on_c, 10, 47, 0
10, 38880, Note_on_c, 10, 52, 96
10, 39060, Note_on_c, 10, 52, 0
10, 39120, Note_on_c, 10, 51, 96
10, 39300, Note_on_c, 10, 51, 0
10, 39360, Note_on_c, 10, 49, 96
10, 39540, Note_on_c, 10, 49, 0
10, 39600, Note_on_c, 10, 42, 96
10, 39780, Note_on_c, 10, 42, 0
10, 39840, Note_on_c, 10, 47, 96
10, 40020, Note_on_c, 10, 47, 0
10, 40320, Note_on_c, 10, 44, 96
10, 40365, Note_on_c, 10, 44, 0
10, 40380, Note_on_c, 10, 45, 96
10, 40425, Note_on_c, 10, 45, 0
10, 40440, Note_on_c, 10, 47, 96
10, 40485, Note_on_c, 10, 47, 0
10, 40500, Note_on_c, 10, 49, 96
10, 40545, Note_on_c, 10, 49, 0
10, 40560, Note_on_c, 10, 51, 96
10, 40605, Note_on_c, 10, 51, 0
10, 40620, Note_on_c, 10, 52, 96
10, 40665, Note_on_c, 10, 52, 0
10, 40680, Note_on_c, 10, 54, 96
10, 40725, Note_on_c, 10, 54, 0
10, 40740, Note_on_c, 10, 56, 96
10, 40785, Note_on_c, 10, 56, 0
10, 40800, Note_on_c, 10, 49, 96
10, 40920, Note_on_c, 10, 49, 0
10, 41280, Note_on_c, 10, 42, 96
10, 41325, Note_on_c, 10, 42, 0
10, 41340, Note_on_c, 10, 44, 96
10, 41385, Note_on_c, 10, 44, 0
10, 41400, Note_on_c, 10, 45, 96
10, 41445, Note_on_c, 10, 45, 0
10, 41460, Note_on_c, 10, 47, 96
10, 41505, Note_on_c, 10, 47, 0
10, 41520, Note_on_c, 10, 49, 96
10, 41565, Note_on_c, 10, 49, 0
10, 41580, Note_on_c, 10, 51, 96
10, 41625, Note_on_c, 10, 51, 0
10, 41640, Note_on_c, 10, 52, 96
10, 41685, Note_on_c, 10, 52, 0
10, 41700, Note_on_c, 10, 54, 96
10, 41745, Note_on_c, 10, 54, 0
10, 41760, Note_on_c, 10, 47, 96
10, 41880, Note_on_c, 10, 47, 0
10, 42240, Note_on_c, 10, 40, 96
10, 42285, Note_on_c, 10, 40, 0
10, 42300, Note_on_c, 10, 42, 96
10, 42345, Note_on_c, 10, 42, 0
10, 42360, Note_on_c, 10, 44, 96
10, 42405, Note_on_c, 10, 44, 0
10, 42420, Note_on_c, 10, 45, 96
10, 42465, Note_on_c, 10, 45, 0
10, 42480, Note_on_c, 10, 47, 96
10, 42525, Note_on_c, 10, 47, 0
10, 42540, Note_on_c, 10, 49, 96
10, 42585, Note_on_c, 10, 49, 0
10, 42600, Note_on_c, 10, 51, 96
10, 42645, Note_on_c, 10, 51, 0
10, 42660, Note_on_c, 10, 52, 96
10, 42705, Note_on_c, 10, 52, 0
10, 42720, Note_on_c, 10, 49, 96
10, 42810, Note_on_c, 10, 49, 0
10, 42840, Note_on_c, 10, 61, 96
10, 43020, Note_on_c, 10, 61, 0
10, 43080, Note_on_c, 10, 59, 96
10, 43170, Note_on_c, 10, 59, 0
10, 43200, Note_on_c, 10, 57, 96
10, 43290, Note_on_c, 10, 57, 0
10, 43320, Note_on_c, 10, 45, 96
10, 43500, Note_on_c, 10, 45, 0
10, 43560, Note_on_c, 10, 44, 96
10, 43650, Note_on_c, 10, 44, 0
10, 43680, Note_on_c, 10, 42, 96
10, 43770, Note_on_c, 10, 42, 0
10, 43800, Note_on_c, 10, 54, 96
10, 43980, Note_on_c, 10, 54, 0
10, 44040, Note_on_c, 10, 52, 96
10, 44130, Note_on_c, 10, 52, 0
10, 44160, Note_on_c, 10, 51, 96
10, 44520, Note_on_c, 10, 51, 0
10, 44760, Note_on_c, 10, 49, 96
10, 44850, Note_on_c, 10, 49, 0
10, 44880, Note_on_c, 10, 51, 96
10, 44970, Note_on_c, 10, 51, 0
10, 45000, Note_on_c, 10, 47, 96
10, 45090, Note_on_c, 10, 47, 0
10, 45120, Note_on_c, 10, 52, 96
10, 45210, Note_on_c, 10, 52, 0
10, 45240, Note_on_c, 10, 44, 96
10, 45285, Note_on_c, 10, 44, 0
10, 45300, Note_on_c, 10, 44, 96
10, 45345, Note_on_c, 10, 44, 0
10, 45360, Note_on_c, 10, 45, 96
10, 45405, Note_on_c, 10, 45, 0
10, 45420, Note_on_c, 10, 45, 96
10, 45465, Note_on_c, 10, 45, 0
10, 45480, Note_on_c, 10, 47, 96
10, 45525, Note_on_c, 10, 47, 0
10, 45540, Note_on_c, 10, 47, 96
10, 45585, Note_on_c, 10, 47, 0
10, 45600, Note_on_c, 10, 40, 96
10, 45690, Note_on_c, 10, 40, 0
10, 45720, Note_on_c, 10, 56, 96
10, 45810, Note_on_c, 10, 56, 0
10, 45840, Note_on_c, 10, 57, 96
10, 45930, Note_on_c, 10, 57, 0
10, 45960, Note_on_c, 10, 59, 96
10, 46050, Note_on_c, 10, 59, 0
10, 46080, Note_on_c, 10, 61, 96
10, 46170, Note_on_c, 10, 61, 0
10, 46200, Note_on_c, 10, 44, 96
10, 46245, Note_on_c, 10, 44, 0
10, 46260, Note_on_c, 10, 44, 96
10, 46305, Note_on_c, 10, 44, 0
10, 46320, Note_on_c, 10, 45, 96
10, 46365, Note_on_c, 10, 45, 0
10, 46380, Note_on_c, 10, 45, 96
10, 46425, Note_on_c, 10, 45, 0
10, 46440, Note_on_c, 10, 47, 96
10, 46485, Note_on_c, 10, 47, 0
10, 46500, Note_on_c, 10, 47, 96
10, 46545, Note_on_c, 10, 47, 0
10, 46560, Note_on_c, 10, 40, 96
10, 46680, Note_on_c, 10, 40, 0
10, 48120, Note_on_c, 10, 44, 96
10, 48165, Note_on_c, 10, 44, 0
10, 48180, Note_on_c, 10, 44, 96
10, 48225, Note_on_c, 10, 44, 0
10, 48240, Note_on_c, 10, 45, 96
10, 48285, Note_on_c, 10, 45, 0
10, 48300, Note_on_c, 10, 45, 96
10, 48345, Note_on_c, 10, 45, 0
10, 48360, Note_on_c, 10, 47, 96
10, 48405, Note_on_c, 10, 47, 0
10, 48420, Note_on_c, 10, 47, 96
10, 48465, Note_on_c, 10, 47, 0
10, 48480, Note_on_c, 10, 49, 96
10, 48525, Note_on_c, 10, 49, 0
10, 48540, Note_on_c, 10, 49, 96
10, 48585, Note_on_c, 10, 49, 0
10, 48600, Note_on_c, 10, 47, 96
10, 48645, Note_on_c, 10, 47, 0
10, 48660, Note_on_c, 10, 47, 96
10, 48705, Note_on_c, 10, 47, 0
10, 48720, Note_on_c, 10, 49, 96
10, 48765, Note_on_c, 10, 49, 0
10, 48780, Note_on_c, 10, 49, 96
10, 48825, Note_on_c, 10, 49, 0
10, 48840, Note_on_c, 10, 51, 96
10, 48885, Note_on_c, 10, 51, 0
10, 48900, Note_on_c, 10, 51, 96
10, 48945, Note_on_c, 10, 51, 0
10, 48960, Note_on_c, 10, 52, 96
10, 49050, Note_on_c, 10, 52, 0
10, 49080, Note_on_c, 10, 49, 96
10, 49170, Note_on_c, 10, 49, 0
10, 49200, Note_on_c, 10, 45, 96
10, 49290, Note_on_c, 10, 45, 0
10, 49320, Note_on_c, 10, 47, 96
10, 49410, Note_on_c, 10, 47, 0
10, 49440, Note_on_c, 10, 40, 96
10, 49530, Note_on_c, 10, 40, 0
10, 49560, Note_on_c, 10, 56, 96
10, 49605, Note_on_c, 10, 56, 0
10, 49620, Note_on_c, 10, 54, 96
10, 49665, Note_on_c, 10, 54, 0
10, 49680, Note_on_c, 10, 52, 96
10, 49770, Note_on_c, 10, 52, 0
10, 49800, Note_on_c, 10, 51, 96
10, 49890, Note_on_c, 10, 51, 0
10, 49920, Note_on_c, 10, 49, 96
10, 50010, Note_on_c, 10, 49, 0
10, 50040, Note_on_c, 10, 56, 96
10, 50220, Note_on_c, 10, 56, 0
10, 50280, Note_on_c, 10, 54, 96
10, 50370, Note_on_c, 10, 54, 0
10, 50400, Note_on_c, 10, 52, 96
10, 50490, Note_on_c, 10, 52, 0
10, 50520, Note_on_c, 10, 49, 96
10, 50610, Note_on_c, 10, 49, 0
10, 50640, Note_on_c, 10, 52, 96
10, 50730, Note_on_c, 10, 52, 0
10, 50760, Note_on_c, 10, 57, 96
10, 50850, Note_on_c, 10, 57, 0
10, 50880, Note_on_c, 10, 47, 96
10, 50970, Note_on_c, 10, 47, 0
10, 51000, Note_on_c, 10, 63, 96
10, 51180, Note_on_c, 10, 63, 0
10, 51240, Note_on_c, 10, 61, 96
10, 51330, Note_on_c, 10, 61, 0
10, 51360, Note_on_c, 10, 59, 96
10, 51450, Note_on_c, 10, 59, 0
10, 51480, Note_on_c, 10, 56, 96
10, 51570, Note_on_c, 10, 56, 0
10, 51600, Note_on_c, 10, 59, 96
10, 51690, Note_on_c, 10, 59, 0
10, 51720, Note_on_c, 10, 64, 96
10, 51810, Note_on_c, 10, 64, 0
10, 51840, Note_on_c, 10, 45, 96
10, 51930, Note_on_c, 10, 45, 0
10, 51960, Note_on_c, 10, 57, 96
10, 52140, Note_on_c, 10, 57, 0
10, 52200, Note_on_c, 10, 56, 96
10, 52290, Note_on_c, 10, 56, 0
10, 52320, Note_on_c, 10, 54, 96
10, 52410, Note_on_c, 10, 54, 0
10, 52440, Note_on_c, 10, 52, 96
10, 52530, Note_on_c, 10, 52, 0
10, 52560, Note_on_c, 10, 51, 96
10, 52650, Note_on_c, 10, 51, 0
10, 52680, Note_on_c, 10, 54, 96
10, 52770, Note_on_c, 10, 54, 0
10, 52800, Note_on_c, 10, 44, 96
10, 52890, Note_on_c, 10, 44, 0
10, 52920, Note_on_c, 10, 60, 96
10, 53100, Note_on_c, 10, 60, 0
10, 53160, Note_on_c, 10, 61, 96
10, 53250, Note_on_c, 10, 61, 0
10, 53280, Note_on_c, 10, 63, 96
10, 53370, Note_on_c, 10, 63, 0
10, 53400, Note_on_c, 10, 61, 96
10, 53490, Note_on_c, 10, 61, 0
10, 53520, Note_on_c, 10, 60, 96
10, 53610, Note_on_c, 10, 60, 0
10, 53640, Note_on_c, 10, 56, 96
10, 53730, Note_on_c, 10, 56, 0
10, 53760, Note_on_c, 10, 61, 96
10, 53850, Note_on_c, 10, 61, 0
10, 53880, Note_on_c, 10, 61, 96
10, 53970, Note_on_c, 10, 61, 0
10, 54000, Note_on_c, 10, 59, 96
10, 54090, Note_on_c, 10, 59, 0
10, 54120, Note_on_c, 10, 59, 96
10, 54210, Note_on_c, 10, 59, 0
10, 54240, Note_on_c, 10, 58, 96
10, 54330, Note_on_c, 10, 58, 0
10, 54360, Note_on_c, 10, 58, 96
10, 54450, Note_on_c, 10, 58, 0
10, 54480, Note_on_c, 10, 56, 96
10, 54570, Note_on_c, 10, 56, 0
10, 54600, Note_on_c, 10, 56, 96
10, 54690, Note_on_c, 10, 56, 0
10, 54720, Note_on_c, 10, 55, 96
10, 54810, Note_on_c, 10, 55, 0
10, 54840, Note_on_c, 10, 55, 96
10, 54930, Note_on_c, 10, 55, 0
10, 54960, Note_on_c, 10, 51, 96
10, 55050, Note_on_c, 10, 51, 0
10, 55080, Note_on_c, 10, 51, 96
10, 55170, Note_on_c, 10, 51, 0
10, 55200, Note_on_c, 10, 56, 96
10, 55290, Note_on_c, 10, 56, 0
10, 55320, Note_on_c, 10, 56, 96
10, 55410, Note_on_c, 10, 56, 0
10, 55440, Note_on_c, 10, 44, 96
10, 55530, Note_on_c, 10, 44, 0
10, 55560, Note_on_c, 10, 44, 96
10, 55650, Note_on_c, 10, 44, 0
10, 55680, Note_on_c, 10, 56, 96
10, 55770, Note_on_c, 10, 56, 0
10, 55800, Note_on_c, 10, 56, 96
10, 55890, Note_on_c, 10, 56, 0
10, 55920, Note_on_c, 10, 57, 96
10, 56010, Note_on_c, 10, 57, 0
10, 56040, Note_on_c, 10, 57, 96
10, 56130, Note_on_c, 10, 57, 0
10, 56160, Note_on_c, 10, 56, 96
10, 56250, Note_on_c, 10, 56, 0
10, 56280, Note_on_c, 10, 56, 96
10, 56370, Note_on_c, 10, 56, 0
10, 56400, Note_on_c, 10, 54, 96
10, 56490, Note_on_c, 10, 54, 0
10, 56520, Note_on_c, 10, 54, 96
10, 56610, Note_on_c, 10, 54, 0
10, 56640, Note_on_c, 10, 53, 96
10, 56730, Note_on_c, 10, 53, 0
10, 56760, Note_on_c, 10, 53, 96
10, 56850, Note_on_c, 10, 53, 0
10, 56880, Note_on_c, 10, 49, 96
10, 56970, Note_on_c, 10, 49, 0
10, 57000, Note_on_c, 10, 49, 96
10, 57090, Note_on_c, 10, 49, 0
10, 57120, Note_on_c, 10, 54, 96
10, 57210, Note_on_c, 10, 54, 0
10, 57240, Note_on_c, 10, 54, 96
10, 57330, Note_on_c, 10, 54, 0
10, 57360, Note_on_c, 10, 42, 96
10, 57450, Note_on_c, 10, 42, 0
10, 57480, Note_on_c, 10, 42, 96
10, 57570, Note_on_c, 10, 42, 0
10, 57600, Note_on_c, 10, 54, 127
10, 57690, Note_on_c, 10, 54, 0
10, 57720, Note_on_c, 10, 54, 127
10, 57810, Note_on_c, 10, 54, 0
10, 57840, Note_on_c, 10, 56, 127
10, 57930, Note_on_c, 10, 56, 0
10, 57960, Note_on_c, 10, 56, 127
10, 58050, Note_on_c, 10, 56, 0
10, 58080, Note_on_c, 10, 54, 127
10, 58170, Note_on_c, 10, 54, 0
10, 58200, Note_on_c, 10, 54, 127
10, 58290, Note_on_c, 10, 54, 0
10, 58320, Note_on_c, 10, 52, 127
10, 58410, Note_on_c, 10, 52, 0
10, 58440, Note_on_c, 10, 52, 127
10, 58530, Note_on_c, 10, 52, 0
10, 58560, Note_on_c, 10, 51, 127
10, 58650, Note_on_c, 10, 51, 0
10, 58680, Note_on_c, 10, 51, 127
10, 58770, Note_on_c, 10, 51, 0
10, 58800, Note_on_c, 10, 52, 127
10, 58890, Note_on_c, 10, 52, 0
10, 58920, Note_on_c, 10, 52, 127
10, 59010, Note_on_c, 10, 52, 0
10, 59040, Note_on_c, 10, 51, 127
10, 59130, Note_on_c, 10, 51, 0
10, 59160, Note_on_c, 10, 51, 127
10, 59250, Note_on_c, 10, 51, 0
10, 59280, Note_on_c, 10, 49, 127
10, 59370, Note_on_c, 10, 49, 0
10, 59400, Note_on_c, 10, 49, 127
10, 59490, Note_on_c, 10, 49, 0
10, 59520, Note_on_c, 10, 48, 127
10, 59610, Note_on_c, 10, 48, 0
10, 59640, Note_on_c, 10, 48, 127
10, 59730, Note_on_c, 10, 48, 0
10, 59760, Note_on_c, 10, 51, 127
10, 59850, Note_on_c, 10, 51, 0
10, 59880, Note_on_c, 10, 51, 127
10, 59970, Note_on_c, 10, 51, 0
10, 60000, Note_on_c, 10, 48, 127
10, 60090, Note_on_c, 10, 48, 0
10, 60120, Note_on_c, 10, 48, 127
10, 60210, Note_on_c, 10, 48, 0
10, 60240, Note_on_c, 10, 44, 127
10, 60330, Note_on_c, 10, 44, 0
10, 60360, Note_on_c, 10, 44, 127
10, 60450, Note_on_c, 10, 44, 0
10, 60480, Note_on_c, 10, 49, 96
10, 60570, Note_on_c, 10, 49, 0
10, 60600, Note_on_c, 10, 49, 96
10, 60690, Note_on_c, 10, 49, 0
10, 60720, Note_on_c, 10, 51, 96
10, 60810, Note_on_c, 10, 51, 0
10, 60840, Note_on_c, 10, 51, 96
10, 60930, Note_on_c, 10, 51, 0
10, 60960, Note_on_c, 10, 52, 96
10, 61050, Note_on_c, 10, 52, 0
10, 61080, Note_on_c, 10, 52, 96
10, 61170, Note_on_c, 10, 52, 0
10, 61200, Note_on_c, 10, 54, 96
10, 61290, Note_on_c, 10, 54, 0
10, 61320, Note_on_c, 10, 54, 96
10, 61410, Note_on_c, 10, 54, 0
10, 61440, Note_on_c, 10, 56, 96
10, 61530, Note_on_c, 10, 56, 0
10, 61560, Note_on_c, 10, 56, 96
10, 61650, Note_on_c, 10, 56, 0
10, 61680, Note_on_c, 10, 49, 96
10, 61770, Note_on_c, 10, 49, 0
10, 61800, Note_on_c, 10, 49, 96
10, 61890, Note_on_c, 10, 49, 0
10, 61920, Note_on_c, 10, 54, 96
10, 62010, Note_on_c, 10, 54, 0
10, 62040, Note_on_c, 10, 54, 96
10, 62130, Note_on_c, 10, 54, 0
10, 62160, Note_on_c, 10, 57, 96
10, 62250, Note_on_c, 10, 57, 0
10, 62280, Note_on_c, 10, 57, 96
10, 62370, Note_on_c, 10, 57, 0
10, 62400, Note_on_c, 10, 59, 96
10, 62490, Note_on_c, 10, 59, 0
10, 62520, Note_on_c, 10, 59, 96
10, 62610, Note_on_c, 10, 59, 0
10, 62640, Note_on_c, 10, 47, 96
10, 62730, Note_on_c, 10, 47, 0
10, 62760, Note_on_c, 10, 47, 96
10, 62850, Note_on_c, 10, 47, 0
10, 62880, Note_on_c, 10, 52, 96
10, 62970, Note_on_c, 10, 52, 0
10, 63000, Note_on_c, 10, 52, 96
10, 63090, Note_on_c, 10, 52, 0
10, 63120, Note_on_c, 10, 56, 96
10, 63210, Note_on_c, 10, 56, 0
10, 63240, Note_on_c, 10, 56, 96
10, 63330, Note_on_c, 10, 56, 0
10, 63360, Note_on_c, 10, 57, 96
10, 63450, Note_on_c, 10, 57, 0
10, 63480, Note_on_c, 10, 57, 96
10, 63570, Note_on_c, 10, 57, 0
10, 63600, Note_on_c, 10, 56, 96
10, 63690, Note_on_c, 10, 56, 0
10, 63720, Note_on_c, 10, 56, 96
10, 63810, Note_on_c, 10, 56, 0
10, 63840, Note_on_c, 10, 57, 96
10, 63930, Note_on_c, 10, 57, 0
10, 63960, Note_on_c, 10, 57, 96
10, 64050, Note_on_c, 10, 57, 0
10, 64080, Note_on_c, 10, 54, 96
10, 64170, Note_on_c, 10, 54, 0
10, 64200, Note_on_c, 10, 54, 96
10, 64290, Note_on_c, 10, 54, 0
10, 64320, Note_on_c, 10, 56, 96
10, 64410, Note_on_c, 10, 56, 0
10, 64440, Note_on_c, 10, 56, 96
10, 64530, Note_on_c, 10, 56, 0
10, 64560, Note_on_c, 10, 56, 96
10, 64650, Note_on_c, 10, 56, 0
10, 64680, Note_on_c, 10, 56, 96
10, 64770, Note_on_c, 10, 56, 0
10, 64800, Note_on_c, 10, 56, 96
10, 64890, Note_on_c, 10, 56, 0
10, 64920, Note_on_c, 10, 56, 96
10, 65010, Note_on_c, 10, 56, 0
10, 65040, Note_on_c, 10, 56, 96
10, 65130, Note_on_c, 10, 56, 0
10, 65160, Note_on_c, 10, 56, 96
10, 65250, Note_on_c, 10, 56, 0
10, 65280, Note_on_c, 10, 56, 96
10, 65370, Note_on_c, 10, 56, 0
10, 65400, Note_on_c, 10, 56, 96
10, 65490, Note_on_c, 10, 56, 0
10, 65520, Note_on_c, 10, 56, 96
10, 65610, Note_on_c, 10, 56, 0
10, 65640, Note_on_c, 10, 56, 96
10, 65730, Note_on_c, 10, 56, 0
10, 65760, Note_on_c, 10, 44, 96
10, 65850, Note_on_c, 10, 44, 0
10, 65880, Note_on_c, 10, 44, 96
10, 65970, Note_on_c, 10, 44, 0
10, 66000, Note_on_c, 10, 44, 96
10, 66090, Note_on_c, 10, 44, 0
10, 66120, Note_on_c, 10, 44, 96
10, 66210, Note_on_c, 10, 44, 0
10, 66240, Note_on_c, 10, 49, 96
10, 66360, Note_on_c, 10, 49, 0
10, 66480, Note_on_c, 10, 37, 96
10, 66600, Note_on_c, 10, 37, 0
10, 66720, Note_on_c, 10, 49, 96
10, 66960, Note_on_c, 10, 49, 0
10, 67080, Note_on_c, 10, 49, 96
10, 67170, Note_on_c, 10, 49, 0
10, 67200, Note_on_c, 10, 61, 96
10, 67290, Note_on_c, 10, 61, 0
10, 67320, Note_on_c, 10, 64, 96
10, 67365, Note_on_c, 10, 64, 0
10, 67380, Note_on_c, 10, 63, 96
10, 67425, Note_on_c, 10, 63, 0
10, 67440, Note_on_c, 10, 61, 96
10, 67530, Note_on_c, 10, 61, 0
10, 67560, Note_on_c, 10, 64, 96
10, 67605, Note_on_c, 10, 64, 0
10, 67620, Note_on_c, 10, 63, 96
10, 67665, Note_on_c, 10, 63, 0
10, 67680, Note_on_c, 10, 61, 96
10, 67770, Note_on_c, 10, 61, 0
10, 67800, Note_on_c, 10, 64, 96
10, 67845, Note_on_c, 10, 64, 0
10, 67860, Note_on_c, 10, 63, 96
10, 67905, Note_on_c, 10, 63, 0
10, 67920, Note_on_c, 10, 61, 96
10, 68010, Note_on_c, 10, 61, 0
10, 68040, Note_on_c, 10, 49, 96
10, 68130, Note_on_c, 10, 49, 0
10, 68160, Note_on_c, 10, 54, 96
10, 68250, Note_on_c, 10, 54, 0
10, 68280, Note_on_c, 10, 42, 96
10, 68370, Note_on_c, 10, 42, 0
10, 68520, Note_on_c, 10, 54, 96
10, 68610, Note_on_c, 10, 54, 0
10, 68640, Note_on_c, 10, 54, 96
10, 68730, Note_on_c, 10, 54, 0
10, 68760, Note_on_c, 10, 42, 96
10, 68850, Note_on_c, 10, 42, 0
10, 69000, Note_on_c, 10, 54, 96
10, 69090, Note_on_c, 10, 54, 0
10, 69120, Note_on_c, 10, 59, 96
10, 69240, Note_on_c, 10, 59, 0
10, 69360, Note_on_c, 10, 47, 96
10, 69480, Note_on_c, 10, 47, 0
10, 69600, Note_on_c, 10, 59, 96
10, 69840, Note_on_c, 10, 59, 0
10, 69960, Note_on_c, 10, 47, 96
10, 70050, Note_on_c, 10, 47, 0
10, 70080, Note_on_c, 10, 59, 96
10, 70170, Note_on_c, 10, 59, 0
10, 70200, Note_on_c, 10, 63, 96
10, 70245, Note_on_c, 10, 63, 0
10, 70260, Note_on_c, 10, 61, 96
10, 70305, Note_on_c, 10, 61, 0
10, 70320, Note_on_c, 10, 59, 96
10, 70410, Note_on_c, 10, 59, 0
10, 70440, Note_on_c, 10, 63, 96
10, 70485, Note_on_c, 10, 63, 0
10, 70500, Note_on_c, 10, 61, 96
10, 70545, Note_on_c, 10, 61, 0
10, 70560, Note_on_c, 10, 59, 96
10, 70650, Note_on_c, 10, 59, 0
10, 70680, Note_on_c, 10, 63, 96
10, 70725, Note_on_c, 10, 63, 0
10, 70740, Note_on_c, 10, 61, 96
10, 70785, Note_on_c, 10, 61, 0
10, 70800, Note_on_c, 10, 59, 96
10, 70890, Note_on_c, 10, 59, 0
10, 70920, Note_on_c, 10, 47, 96
10, 71010, Note_on_c, 10, 47, 0
10, 71040, Note_on_c, 10, 52, 96
10, 71130, Note_on_c, 10, 52, 0
10, 71160, Note_on_c, 10, 40, 96
10, 71250, Note_on_c, 10, 40, 0
10, 71400, Note_on_c, 10, 52, 96
10, 71490, Note_on_c, 10, 52, 0
10, 71520, Note_on_c, 10, 52, 96
10, 71610, Note_on_c, 10, 52, 0
10, 71640, Note_on_c, 10, 40, 96
10, 71730, Note_on_c, 10, 40, 0
10, 71880, Note_on_c, 10, 52, 96
10, 71970, Note_on_c, 10, 52, 0
10, 72000, Note_on_c, 10, 57, 96
10, 72120, Note_on_c, 10, 57, 0
10, 72240, Note_on_c, 10, 45, 96
10, 72360, Note_on_c, 10, 45, 0
10, 72480, Note_on_c, 10, 57, 96
10, 72720, Note_on_c, 10, 57, 0
10, 72840, Note_on_c, 10, 45, 96
10, 72930, Note_on_c, 10, 45, 0
10, 72960, Note_on_c, 10, 57, 96
10, 73050, Note_on_c, 10, 57, 0
10, 73080, Note_on_c, 10, 61, 96
10, 73125, Note_on_c, 10, 61, 0
10, 73140, Note_on_c, 10, 61, 96
10, 73185, Note_on_c, 10, 61, 0
10, 73200, Note_on_c, 10, 57, 96
10, 73290, Note_on_c, 10, 57, 0
10, 73320, Note_on_c, 10, 61, 96
10, 73365, Note_on_c, 10, 61, 0
10, 73380, Note_on_c, 10, 59, 96
10, 73425, Note_on_c, 10, 59, 0
10, 73440, Note_on_c, 10, 57, 96
10, 73530, Note_on_c, 10, 57, 0
10, 73560, Note_on_c, 10, 61, 96
10, 73605, Note_on_c, 10, 61, 0
10, 73620, Note_on_c, 10, 59, 96
10, 73665, Note_on_c, 10, 59, 0
10, 73680, Note_on_c, 10, 57, 96
10, 73770, Note_on_c, 10, 57, 0
10, 73800, Note_on_c, 10, 45, 96
10, 73890, Note_on_c, 10, 45, 0
10, 73920, Note_on_c, 10, 42, 96
10, 74010, Note_on_c, 10, 42, 0
10, 74040, Note_on_c, 10, 44, 96
10, 74130, Note_on_c, 10, 44, 0
10, 74160, Note_on_c, 10, 45, 96
10, 74340, Note_on_c, 10, 45, 0
10, 74400, Note_on_c, 10, 40, 96
10, 74580, Note_on_c, 10, 40, 0
10, 74880, Note_on_c, 10, 49, 96
10, 74925, Note_on_c, 10, 49, 0
10, 74940, Note_on_c, 10, 50, 96
10, 74985, Note_on_c, 10, 50, 0
10, 75000, Note_on_c, 10, 52, 96
10, 75045, Note_on_c, 10, 52, 0
10, 75060, Note_on_c, 10, 54, 96
10, 75105, Note_on_c, 10, 54, 0
10, 75120, Note_on_c, 10, 56, 96
10, 75165, Note_on_c, 10, 56, 0
10, 75180, Note_on_c, 10, 57, 96
10, 75225, Note_on_c, 10, 57, 0
10, 75240, Note_on_c, 10, 59, 96
10, 75285, Note_on_c, 10, 59, 0
10, 75300, Note_on_c, 10, 61, 96
10, 75345, Note_on_c, 10, 61, 0
10, 75360, Note_on_c, 10, 54, 96
10, 75480, Note_on_c, 10, 54, 0
10, 75840, Note_on_c, 10, 47, 96
10, 75885, Note_on_c, 10, 47, 0
10, 75900, Note_on_c, 10, 49, 96
10, 75945, Note_on_c, 10, 49, 0
10, 75960, Note_on_c, 10, 50, 96
10, 76005, Note_on_c, 10, 50, 0
10, 76020, Note_on_c, 10, 52, 96
10, 76065, Note_on_c, 10, 52, 0
10, 76080, Note_on_c, 10, 54, 96
10, 76125, Note_on_c, 10, 54, 0
10, 76140, Note_on_c, 10, 56, 96
10, 76185, Note_on_c, 10, 56, 0
10, 76200, Note_on_c, 10, 57, 96
10, 76245, Note_on_c, 10, 57, 0
10, 76260, Note_on_c, 10, 59, 96
10, 76305, Note_on_c, 10, 59, 0
10, 76320, Note_on_c, 10, 52, 96
10, 76440, Note_on_c, 10, 52, 0
10, 76800, Note_on_c, 10, 45, 96
10, 76845, Note_on_c, 10, 45, 0
10, 76860, Note_on_c, 10, 47, 96
10, 76905, Note_on_c, 10, 47, 0
10, 76920, Note_on_c, 10, 49, 96
10, 76965, Note_on_c, 10, 49, 0
10, 76980, Note_on_c, 10, 50, 96
10, 77025, Note_on_c, 10, 50, 0
10, 77040, Note_on_c, 10, 52, 96
10, 77085, Note_on_c, 10, 52, 0
10, 77100, Note_on_c, 10, 54, 96
10, 77145, Note_on_c, 10, 54, 0
10, 77160, Note_on_c, 10, 56, 96
10, 77205, Note_on_c, 10, 56, 0
10, 77220, Note_on_c, 10, 57, 96
10, 77265, Note_on_c, 10, 57, 0
10, 77280, Note_on_c, 10, 42, 96
10, 77370, Note_on_c, 10, 42, 0
10, 77400, Note_on_c, 10, 54, 96
10, 77580, Note_on_c, 10, 54, 0
10, 77640, Note_on_c, 10, 52, 96
10, 77730, Note_on_c, 10, 52, 0
10, 77760, Note_on_c, 10, 50, 96
10, 77850, Note_on_c, 10, 50, 0
10, 77880, Note_on_c, 10, 47, 96
10, 77970, Note_on_c, 10, 47, 0
10, 78000, Note_on_c, 10, 49, 96
10, 78090, Note_on_c, 10, 49, 0
10, 78120, Note_on_c, 10, 50, 96
10, 78210, Note_on_c, 10, 50, 0
10, 78240, Note_on_c, 10, 52, 96
10, 78330, Note_on_c, 10, 52, 0
10, 78360, Note_on_c, 10, 40, 96
10, 78450, Note_on_c, 10, 40, 0
10, 78600, Note_on_c, 10, 52, 96
10, 78690, Note_on_c, 10, 52, 0
10, 78720, Note_on_c, 10, 52, 96
10, 78810, Note_on_c, 10, 52, 0
10, 78840, Note_on_c, 10, 40, 96
10, 78885, Note_on_c, 10, 40, 0
10, 78900, Note_on_c, 10, 42, 96
10, 78945, Note_on_c, 10, 42, 0
10, 78960, Note_on_c, 10, 44, 96
10, 79050, Note_on_c, 10, 44, 0
10, 79080, Note_on_c, 10, 47, 96
10, 79170, Note_on_c, 10, 47, 0
10, 79200, Note_on_c, 10, 52, 96
10, 79290, Note_on_c, 10, 52, 0
10, 79320, Note_on_c, 10, 47, 96
10, 79410, Note_on_c, 10, 47, 0
10, 79440, Note_on_c, 10, 52, 96
10, 79530, Note_on_c, 10, 52, 0
10, 79560, Note_on_c, 10, 56, 96
10, 79650, Note_on_c, 10, 56, 0
10, 79680, Note_on_c, 10, 59, 96
10, 79770, Note_on_c, 10, 59, 0
10, 79800, Note_on_c, 10, 56, 96
10, 79890, Note_on_c, 10, 56, 0
10, 79920, Note_on_c, 10, 52, 96
10, 80010, Note_on_c, 10, 52, 0
10, 80040, Note_on_c, 10, 56, 96
10, 80130, Note_on_c, 10, 56, 0
10, 80160, Note_on_c, 10, 45, 96
10, 80280, Note_on_c, 10, 45, 0
10, 80400, Note_on_c, 10, 49, 96
10, 80520, Note_on_c, 10, 49, 0
10, 80640, Note_on_c, 10, 52, 96
10, 80880, Note_on_c, 10, 52, 0
10, 81000, Note_on_c, 10, 49, 96
10, 81045, Note_on_c, 10, 49, 0
10, 81060, Note_on_c, 10, 50, 96
10, 81105, Note_on_c, 10, 50, 0
10, 81120, Note_on_c, 10, 52, 96
10, 81210, Note_on_c, 10, 52, 0
10, 81240, Note_on_c, 10, 49, 96
10, 81285, Note_on_c, 10, 49, 0
10, 81300, Note_on_c, 10, 50, 96
10, 81345, Note_on_c, 10, 50, 0
10, 81360, Note_on_c, 10, 52, 96
10, 81450, Note_on_c, 10, 52, 0
10, 81480, Note_on_c, 10, 57, 96
10, 81570, Note_on_c, 10, 57, 0
10, 81600, Note_on_c, 10, 52, 96
10, 81690, Note_on_c, 10, 52, 0
10, 81720, Note_on_c, 10, 52, 96
10, 81765, Note_on_c, 10, 52, 0
10, 81780, Note_on_c, 10, 50, 96
10, 81825, Note_on_c, 10, 50, 0
10, 81840, Note_on_c, 10, 49, 96
10, 81930, Note_on_c, 10, 49, 0
10, 81960, Note_on_c, 10, 47, 96
10, 82005, Note_on_c, 10, 47, 0
10, 82020, Note_on_c, 10, 45, 96
10, 82065, Note_on_c, 10, 45, 0
10, 82080, Note_on_c, 10, 46, 96
10, 82260, Note_on_c, 10, 46, 0
10, 82440, Note_on_c, 10, 54, 96
10, 82530, Note_on_c, 10, 54, 0
10, 82560, Note_on_c, 10, 54, 96
10, 82650, Note_on_c, 10, 54, 0
10, 82680, Note_on_c, 10, 42, 96
10, 82725, Note_on_c, 10, 42, 0
10, 82740, Note_on_c, 10, 44, 96
10, 82785, Note_on_c, 10, 44, 0
10, 82800, Note_on_c, 10, 46, 96
10, 82890, Note_on_c, 10, 46, 0
10, 82920, Note_on_c, 10, 49, 96
10, 83010, Note_on_c, 10, 49, 0
10, 83040, Note_on_c, 10, 54, 96
10, 83130, Note_on_c, 10, 54, 0
10, 83160, Note_on_c, 10, 49, 96
10, 83250, Note_on_c, 10, 49, 0
10, 83280, Note_on_c, 10, 54, 96
10, 83370, Note_on_c, 10, 54, 0
10, 83400, Note_on_c, 10, 58, 96
10, 83490, Note_on_c, 10, 58, 0
10, 83520, Note_on_c, 10, 61, 96
10, 83610, Note_on_c, 10, 61, 0
10, 83640, Note_on_c, 10, 58, 96
10, 83730, Note_on_c, 10, 58, 0
10, 83760, Note_on_c, 10, 54, 96
10, 83850, Note_on_c, 10, 54, 0
10, 83880, Note_on_c, 10, 58, 96
10, 83970, Note_on_c, 10, 58, 0
10, 84000, Note_on_c, 10, 47, 96
10, 84120, Note_on_c, 10, 47, 0
10, 84240, Note_on_c, 10, 50, 96
10, 84360, Note_on_c, 10, 50, 0
10, 84480, Note_on_c, 10, 54, 96
10, 84720, Note_on_c, 10, 54, 0
10, 84840, Note_on_c, 10, 50, 96
10, 84885, Note_on_c, 10, 50, 0
10, 84900, Note_on_c, 10, 52, 96
10, 84945, Note_on_c, 10, 52, 0
10, 84960, Note_on_c, 10, 54, 96
10, 85050, Note_on_c, 10, 54, 0
10, 85080, Note_on_c, 10, 50, 96
10, 85125, Note_on_c, 10, 50, 0
10, 85140, Note_on_c, 10, 52, 96
10, 85185, Note_on_c, 10, 52, 0
10, 85200, Note_on_c, 10, 54, 96
10, 85290, Note_on_c, 10, 54, 0
10, 85320, Note_on_c, 10, 59, 96
10, 85410, Note_on_c, 10, 59, 0
10, 85440, Note_on_c, 10, 54, 96
10, 85530, Note_on_c, 10, 54, 0
10, 85560, Note_on_c, 10, 54, 96
10, 85605, Note_on_c, 10, 54, 0
10, 85620, Note_on_c, 10, 52, 96
10, 85665, Note_on_c, 10, 52, 0
10, 85680, Note_on_c, 10, 50, 96
10, 85770, Note_on_c, 10, 50, 0
10, 85800, Note_on_c, 10, 50, 96
10, 85845, Note_on_c, 10, 50, 0
10, 85860, Note_on_c, 10, 47, 96
10, 85905, Note_on_c, 10, 47, 0
10, 85920, Note_on_c, 10, 41, 96
10, 86100, Note_on_c, 10, 41, 0
10, 86280, Note_on_c, 10, 49, 96
10, 86370, Note_on_c, 10, 49, 0
10, 86400, Note_on_c, 10, 49, 96
10, 86490, Note_on_c, 10, 49, 0
10, 86520, Note_on_c, 10, 37, 96
10, 86565, Note_on_c, 10, 37, 0
10, 86580, Note_on_c, 10, 39, 96
10, 86625, Note_on_c, 10, 39, 0
10, 86640, Note_on_c, 10, 41, 96
10, 86730, Note_on_c, 10, 41, 0
10, 86760, Note_on_c, 10, 44, 96
10, 86850, Note_on_c, 10, 44, 0
10, 86880, Note_on_c, 10, 49, 96
10, 86970, Note_on_c, 10, 49, 0
10, 87000, Note_on_c, 10, 44, 96
10, 87090, Note_on_c, 10, 44, 0
10, 87120, Note_on_c, 10, 49, 96
10, 87210, Note_on_c, 10, 49, 0
10, 87240, Note_on_c, 10, 53, 96
10, 87330, Note_on_c, 10, 53, 0
10, 87360, Note_on_c, 10, 56, 96
10, 87450, Note_on_c, 10, 56, 0
10, 87480, Note_on_c, 10, 53, 96
10, 87570, Note_on_c, 10, 53, 0
10, 87600, Note_on_c, 10, 49, 96
10, 87690, Note_on_c, 10, 49, 0
10, 87720, Note_on_c, 10, 53, 96
10, 87810, Note_on_c, 10, 53, 0
10, 87840, Note_on_c, 10, 54, 96
10, 87930, Note_on_c, 10, 54, 0
10, 87960, Note_on_c, 10, 50, 96
10, 88050, Note_on_c, 10, 50, 0
10, 88080, Note_on_c, 10, 47, 96
10, 88170, Note_on_c, 10, 47, 0
10, 88200, Note_on_c, 10, 49, 96
10, 88290, Note_on_c, 10, 49, 0
10, 88320, Note_on_c, 10, 45, 96
10, 88410, Note_on_c, 10, 45, 0
10, 88440, Note_on_c, 10, 46, 96
10, 88530, Note_on_c, 10, 46, 0
10, 88680, Note_on_c, 10, 54, 96
10, 88770, Note_on_c, 10, 54, 0
10, 88800, Note_on_c, 10, 59, 96
10, 88890, Note_on_c, 10, 59, 0
10, 88920, Note_on_c, 10, 57, 96
10, 89010, Note_on_c, 10, 57, 0
10, 89040, Note_on_c, 10, 56, 96
10, 89130, Note_on_c, 10, 56, 0
10, 89160, Note_on_c, 10, 54, 96
10, 89250, Note_on_c, 10, 54, 0
10, 89280, Note_on_c, 10, 53, 96
10, 89370, Note_on_c, 10, 53, 0
10, 89400, Note_on_c, 10, 56, 96
10, 89445, Note_on_c, 10, 56, 0
10, 89460, Note_on_c, 10, 54, 96
10, 89505, Note_on_c, 10, 54, 0
10, 89520, Note_on_c, 10, 53, 96
10, 89610, Note_on_c, 10, 53, 0
10, 89640, Note_on_c, 10, 49, 96
10, 89730, Note_on_c, 10, 49, 0
10, 89760, Note_on_c, 10, 54, 96
10, 89850, Note_on_c, 10, 54, 0
10, 89880, Note_on_c, 10, 50, 96
10, 89970, Note_on_c, 10, 50, 0
10, 90000, Note_on_c, 10, 47, 96
10, 90090, Note_on_c, 10, 47, 0
10, 90120, Note_on_c, 10, 49, 96
10, 90210, Note_on_c, 10, 49, 0
10, 90240, Note_on_c, 10, 42, 96
10, 90360, Note_on_c, 10, 42, 0
10, 90480, Note_on_c, 10, 45, 96
10, 90600, Note_on_c, 10, 45, 0
10, 90720, Note_on_c, 10, 49, 96
10, 90960, Note_on_c, 10, 49, 0
10, 91080, Note_on_c, 10, 49, 96
10, 91170, Note_on_c, 10, 49, 0
10, 91200, Note_on_c, 10, 42, 96
10, 91320, Note_on_c, 10, 42, 0
10, 91440, Note_on_c, 10, 47, 96
10, 91560, Note_on_c, 10, 47, 0
10, 91680, Note_on_c, 10, 52, 96
10, 91920, Note_on_c, 10, 52, 0
10, 92040, Note_on_c, 10, 54, 96
10, 92130, Note_on_c, 10, 54, 0
10, 92160, Note_on_c, 10, 47, 96
10, 92280, Note_on_c, 10, 47, 0
10, 92400, Note_on_c, 10, 52, 96
10, 92520, Note_on_c, 10, 52, 0
10, 92640, Note_on_c, 10, 58, 96
10, 92880, Note_on_c, 10, 58, 0
10, 93000, Note_on_c, 10, 61, 96
10, 93060, Note_on_c, 10, 61, 0
10, 93060, Note_on_c, 10, 59, 96
10, 93120, Note_on_c, 10, 59, 0
10, 93120, Note_on_c, 10, 58, 96
10, 93240, Note_on_c, 10, 58, 0
10, 93240, Note_on_c, 10, 61, 96
10, 93300, Note_on_c, 10, 61, 0
10, 93300, Note_on_c, 10, 59, 96
10, 93360, Note_on_c, 10, 59, 0
10, 93360, Note_on_c, 10, 58, 96
10, 93480, Note_on_c, 10, 58, 0
10, 93480, Note_on_c, 10, 54, 96
10, 93600, Note_on_c, 10, 54, 0
10, 93600, Note_on_c, 10, 59, 96
10, 93720, Note_on_c, 10, 59, 0
10, 93720, Note_on_c, 10, 47, 96
10, 93840, Note_on_c, 10, 47, 0
10, 93840, Note_on_c, 10, 59, 96
10, 93960, Note_on_c, 10, 59, 0
10, 93960, Note_on_c, 10, 59, 96
10, 94020, Note_on_c, 10, 59, 0
10, 94020, Note_on_c, 10, 57, 96
10, 94080, Note_on_c, 10, 57, 0
10, 94080, End_track
11, 0, Start_track
11, 0, MIDI_port, 0
11, 0, Title_t, "acc."
11, 0, Program_c, 11, 48
11, 0, Control_c, 11, 7, 96
11, 0, Control_c, 11, 10, 112
11, 94080, Note_on_c, 11, 56, 96
11, 94200, Note_on_c, 11, 56, 0
11, 94200, Note_on_c, 11, 59, 96
11, 94260, Note_on_c, 11, 59, 0
11, 94260, Note_on_c, 11, 57, 96
11, 94320, Note_on_c, 11, 57, 0
11, 94320, Note_on_c, 11, 56, 96
11, 94440, Note_on_c, 11, 56, 0
11, 94440, Note_on_c, 11, 52, 96
11, 94560, Note_on_c, 11, 52, 0
11, 94560, Note_on_c, 11, 57, 96
11, 94680, Note_on_c, 11, 57, 0
11, 94680, Note_on_c, 11, 56, 96
11, 94800, Note_on_c, 11, 56, 0
11, 94800, Note_on_c, 11, 54, 96
11, 94920, Note_on_c, 11, 54, 0
11, 94920, Note_on_c, 11, 57, 96
11, 95040, Note_on_c, 11, 57, 0
11, 95040, Note_on_c, 11, 51, 96
11, 95130, Note_on_c, 11, 51, 0
11, 95160, Note_on_c, 11, 54, 96
11, 95250, Note_on_c, 11, 54, 0
11, 95280, Note_on_c, 11, 47, 96
11, 95370, Note_on_c, 11, 47, 0
11, 95400, Note_on_c, 11, 59, 96
11, 95490, Note_on_c, 11, 59, 0
11, 95520, Note_on_c, 11, 52, 96
11, 95610, Note_on_c, 11, 52, 0
11, 95640, Note_on_c, 11, 47, 96
11, 95730, Note_on_c, 11, 47, 0
11, 95760, Note_on_c, 11, 40, 96
11, 95850, Note_on_c, 11, 40, 0
11, 95880, Note_on_c, 11, 52, 96
11, 95970, Note_on_c, 11, 52, 0
11, 96000, Note_on_c, 11, 57, 96
11, 96090, Note_on_c, 11, 57, 0
11, 96120, Note_on_c, 11, 56, 96
11, 96210, Note_on_c, 11, 56, 0
11, 96240, Note_on_c, 11, 57, 96
11, 96330, Note_on_c, 11, 57, 0
11, 96360, Note_on_c, 11, 54, 96
11, 96450, Note_on_c, 11, 54, 0
11, 96480, Note_on_c, 11, 51, 96
11, 96660, Note_on_c, 11, 51, 0
11, 96840, Note_on_c, 11, 47, 96
11, 96930, Note_on_c, 11, 47, 0
11, 96960, Note_on_c, 11, 52, 96
11, 97050, Note_on_c, 11, 52, 0
11, 97080, Note_on_c, 11, 64, 96
11, 97260, Note_on_c, 11, 64, 0
11, 97320, Note_on_c, 11, 63, 96
11, 97410, Note_on_c, 11, 63, 0
11, 97440, Note_on_c, 11, 61, 96
11, 97530, Note_on_c, 11, 61, 0
11, 97560, Note_on_c, 11, 49, 96
11, 97740, Note_on_c, 11, 49, 0
11, 97800, Note_on_c, 11, 47, 96
11, 97890, Note_on_c, 11, 47, 0
11, 97920, Note_on_c, 11, 45, 96
11, 98010, Note_on_c, 11, 45, 0
11, 98040, Note_on_c, 11, 44, 96
11, 98085, Note_on_c, 11, 44, 0
11, 98100, Note_on_c, 11, 44, 96
11, 98145, Note_on_c, 11, 44, 0
11, 98160, Note_on_c, 11, 45, 96
11, 98205, Note_on_c, 11, 45, 0
11, 98220, Note_on_c, 11, 45, 96
11, 98265, Note_on_c, 11, 45, 0
11, 98280, Note_on_c, 11, 47, 96
11, 98325, Note_on_c, 11, 47, 0
11, 98340, Note_on_c, 11, 47, 96
11, 98385, Note_on_c, 11, 47, 0
11, 98400, Note_on_c, 11, 49, 96
11, 98445, Note_on_c, 11, 49, 0
11, 98460, Note_on_c, 11, 49, 96
11, 98505, Note_on_c, 11, 49, 0
11, 98520, Note_on_c, 11, 44, 96
11, 98565, Note_on_c, 11, 44, 0
11, 98580, Note_on_c, 11, 44, 96
11, 98625, Note_on_c, 11, 44, 0
11, 98640, Note_on_c, 11, 45, 96
11, 98685, Note_on_c, 11, 45, 0
11, 98700, Note_on_c, 11, 45, 96
11, 98745, Note_on_c, 11, 45, 0
11, 98760, Note_on_c, 11, 47, 96
11, 98805, Note_on_c, 11, 47, 0
11, 98820, Note_on_c, 11, 47, 96
11, 98865, Note_on_c, 11, 47, 0
11, 98880, Note_on_c, 11, 49, 96
11, 98925, Note_on_c, 11, 49, 0
11, 98940, Note_on_c, 11, 49, 96
11, 98985, Note_on_c, 11, 49, 0
11, 99000, Note_on_c, 11, 47, 96
11, 99045, Note_on_c, 11, 47, 0
11, 99060, Note_on_c, 11, 47, 96
11, 99105, Note_on_c, 11, 47, 0
11, 99120, Note_on_c, 11, 49, 96
11, 99165, Note_on_c, 11, 49, 0
11, 99180, Note_on_c, 11, 49, 96
11, 99225, Note_on_c, 11, 49, 0
11, 99240, Note_on_c, 11, 51, 96
11, 99285, Note_on_c, 11, 51, 0
11, 99300, Note_on_c, 11, 51, 96
11, 99345, Note_on_c, 11, 51, 0
11, 99360, Note_on_c, 11, 52, 96
11, 99405, Note_on_c, 11, 52, 0
11, 99420, Note_on_c, 11, 52, 96
11, 99465, Note_on_c, 11, 52, 0
11, 99480, Note_on_c, 11, 47, 96
11, 99525, Note_on_c, 11, 47, 0
11, 99540, Note_on_c, 11, 47, 96
11, 99585, Note_on_c, 11, 47, 0
11, 99600, Note_on_c, 11, 49, 96
11, 99645, Note_on_c, 11, 49, 0
11, 99660, Note_on_c, 11, 49, 96
11, 99705, Note_on_c, 11, 49, 0
11, 99720, Note_on_c, 11, 51, 96
11, 99765, Note_on_c, 11, 51, 0
11, 99780, Note_on_c, 11, 51, 96
11, 99825, Note_on_c, 11, 51, 0
11, 99840, Note_on_c, 11, 52, 96
11, 99885, Note_on_c, 11, 52, 0
11, 99900, Note_on_c, 11, 52, 96
11, 99945, Note_on_c, 11, 52, 0
11, 99960, Note_on_c, 11, 56, 96
11, 100005, Note_on_c, 11, 56, 0
11, 100020, Note_on_c, 11, 56, 96
11, 100065, Note_on_c, 11, 56, 0
11, 100080, Note_on_c, 11, 61, 96
11, 100125, Note_on_c, 11, 61, 0
11, 100140, Note_on_c, 11, 61, 96
11, 100185, Note_on_c, 11, 61, 0
11, 100200, Note_on_c, 11, 57, 96
11, 100245, Note_on_c, 11, 57, 0
11, 100260, Note_on_c, 11, 57, 96
11, 100305, Note_on_c, 11, 57, 0
11, 100320, Note_on_c, 11, 59, 96
11, 101040, Note_on_c, 11, 59, 0
11, 101400, Note_on_c, 11, 47, 96
11, 101490, Note_on_c, 11, 47, 0
11, 101520, Note_on_c, 11, 46, 96
11, 101610, Note_on_c, 11, 46, 0
11, 101640, Note_on_c, 11, 44, 96
11, 101730, Note_on_c, 11, 44, 0
11, 101760, Note_on_c, 11, 43, 96
11, 101850, Note_on_c, 11, 43, 0
11, 101880, Note_on_c, 11, 43, 96
11, 101970, Note_on_c, 11, 43, 0
11, 102000, Note_on_c, 11, 43, 96
11, 102090, Note_on_c, 11, 43, 0
11, 102120, Note_on_c, 11, 43, 96
11, 102210, Note_on_c, 11, 43, 0
11, 102240, Note_on_c, 11, 43, 96
11, 102330, Note_on_c, 11, 43, 0
11, 102360, Note_on_c, 11, 43, 96
11, 102450, Note_on_c, 11, 43, 0
11, 102480, Note_on_c, 11, 43, 96
11, 102570, Note_on_c, 11, 43, 0
11, 102600, Note_on_c, 11, 43, 96
11, 102690, Note_on_c, 11, 43, 0
11, 102720, Note_on_c, 11, 44, 96
11, 102810, Note_on_c, 11, 44, 0
11, 102840, Note_on_c, 11, 44, 96
11, 102930, Note_on_c, 11, 44, 0
11, 102960, Note_on_c, 11, 44, 96
11, 103050, Note_on_c, 11, 44, 0
11, 103080, Note_on_c, 11, 44, 96
11, 103170, Note_on_c, 11, 44, 0
11, 103200, Note_on_c, 11, 44, 96
11, 103290, Note_on_c, 11, 44, 0
11, 103320, Note_on_c, 11, 44, 96
11, 103410, Note_on_c, 11, 44, 0
11, 103440, Note_on_c, 11, 44, 96
11, 103530, Note_on_c, 11, 44, 0
11, 103560, Note_on_c, 11, 44, 96
11, 103650, Note_on_c, 11, 44, 0
11, 103680, Note_on_c, 11, 49, 96
11, 103770, Note_on_c, 11, 49, 0
11, 103800, Note_on_c, 11, 49, 96
11, 103890, Note_on_c, 11, 49, 0
11, 103920, Note_on_c, 11, 49, 96
11, 104010, Note_on_c, 11, 49, 0
11, 104040, Note_on_c, 11, 49, 96
11, 104130, Note_on_c, 11, 49, 0
11, 104160, Note_on_c, 11, 49, 96
11, 104250, Note_on_c, 11, 49, 0
11, 104280, Note_on_c, 11, 49, 96
11, 104370, Note_on_c, 11, 49, 0
11, 104400, Note_on_c, 11, 49, 96
11, 104490, Note_on_c, 11, 49, 0
11, 104520, Note_on_c, 11, 49, 96
11, 104610, Note_on_c, 11, 49, 0
11, 104640, Note_on_c, 11, 51, 96
11, 104760, Note_on_c, 11, 51, 0
11, 104880, Note_on_c, 11, 55, 96
11, 105000, Note_on_c, 11, 55, 0
11, 105120, Note_on_c, 11, 58, 96
11, 105360, Note_on_c, 11, 58, 0
11, 105600, Note_on_c, 11, 51, 96
11, 105720, Note_on_c, 11, 51, 0
11, 105840, Note_on_c, 11, 56, 96
11, 105960, Note_on_c, 11, 56, 0
11, 106080, Note_on_c, 11, 59, 96
11, 106320, Note_on_c, 11, 59, 0
11, 106560, Note_on_c, 11, 51, 96
11, 106740, Note_on_c, 11, 51, 0
11, 106800, Note_on_c, 11, 55, 96
11, 106890, Note_on_c, 11, 55, 0
11, 106920, Note_on_c, 11, 58, 96
11, 107010, Note_on_c, 11, 58, 0
11, 107040, Note_on_c, 11, 61, 96
11, 107220, Note_on_c, 11, 61, 0
11, 107520, Note_on_c, 11, 51, 96
11, 107700, Note_on_c, 11, 51, 0
11, 107760, Note_on_c, 11, 56, 96
11, 107850, Note_on_c, 11, 56, 0
11, 107880, Note_on_c, 11, 59, 96
11, 107970, Note_on_c, 11, 59, 0
11, 108000, Note_on_c, 11, 63, 96
11, 108180, Note_on_c, 11, 63, 0
11, 108480, Note_on_c, 11, 43, 96
11, 109980, Note_on_c, 11, 43, 0
11, 110280, Note_on_c, 11, 43, 96
11, 110370, Note_on_c, 11, 43, 0
11, 110400, Note_on_c, 11, 56, 96
11, 110490, Note_on_c, 11, 56, 0
11, 110520, Note_on_c, 11, 52, 96
11, 110610, Note_on_c, 11, 52, 0
11, 110640, Note_on_c, 11, 49, 96
11, 110730, Note_on_c, 11, 49, 0
11, 110760, Note_on_c, 11, 51, 96
11, 110850, Note_on_c, 11, 51, 0
11, 110880, Note_on_c, 11, 44, 96
11, 111060, Note_on_c, 11, 44, 0
11, 111960, Note_on_c, 11, 44, 96
11, 112005, Note_on_c, 11, 44, 0
11, 112020, Note_on_c, 11, 44, 96
11, 112065, Note_on_c, 11, 44, 0
11, 112080, Note_on_c, 11, 46, 96
11, 112125, Note_on_c, 11, 46, 0
11, 112140, Note_on_c, 11, 46, 96
11, 112185, Note_on_c, 11, 46, 0
11, 112200, Note_on_c, 11, 48, 96
11, 112245, Note_on_c, 11, 48, 0
11, 112260, Note_on_c, 11, 48, 96
11, 112305, Note_on_c, 11, 48, 0
11, 112320, Note_on_c, 11, 49, 96
11, 112410, Note_on_c, 11, 49, 0
11, 112440, Note_on_c, 11, 49, 96
11, 112530, Note_on_c, 11, 49, 0
11, 112560, Note_on_c, 11, 49, 96
11, 112650, Note_on_c, 11, 49, 0
11, 112680, Note_on_c, 11, 49, 96
11, 112770, Note_on_c, 11, 49, 0
11, 112800, Note_on_c, 11, 49, 96
11, 112890, Note_on_c, 11, 49, 0
11, 112920, Note_on_c, 11, 49, 96
11, 113010, Note_on_c, 11, 49, 0
11, 113040, Note_on_c, 11, 49, 96
11, 113130, Note_on_c, 11, 49, 0
11, 113160, Note_on_c, 11, 49, 96
11, 113250, Note_on_c, 11, 49, 0
11, 113280, Note_on_c, 11, 49, 96
11, 113370, Note_on_c, 11, 49, 0
11, 113400, Note_on_c, 11, 49, 96
11, 113490, Note_on_c, 11, 49, 0
11, 113520, Note_on_c, 11, 49, 96
11, 113610, Note_on_c, 11, 49, 0
11, 113640, Note_on_c, 11, 49, 96
11, 113730, Note_on_c, 11, 49, 0
11, 113760, Note_on_c, 11, 46, 96
11, 113850, Note_on_c, 11, 46, 0
11, 113880, Note_on_c, 11, 46, 96
11, 113970, Note_on_c, 11, 46, 0
11, 114000, Note_on_c, 11, 46, 96
11, 114090, Note_on_c, 11, 46, 0
11, 114120, Note_on_c, 11, 46, 96
11, 114210, Note_on_c, 11, 46, 0
11, 114240, Note_on_c, 11, 43, 96
11, 114330, Note_on_c, 11, 43, 0
11, 114360, Note_on_c, 11, 43, 96
11, 114450, Note_on_c, 11, 43, 0
11, 114480, Note_on_c, 11, 43, 96
11, 114570, Note_on_c, 11, 43, 0
11, 114600, Note_on_c, 11, 43, 96
11, 114690, Note_on_c, 11, 43, 0
11, 114720, Note_on_c, 11, 39, 96
11, 115080, Note_on_c, 11, 39, 0
11, 117120, Note_on_c, 11, 52, 96
11, 117240, Note_on_c, 11, 52, 0
11, 117360, Note_on_c, 11, 40, 96
11, 117480, Note_on_c, 11, 40, 0
11, 117600, Note_on_c, 11, 52, 96
11, 117840, Note_on_c, 11, 52, 0
11, 117960, Note_on_c, 11, 40, 96
11, 118080, Note_on_c, 11, 40, 0
11, 118080, Note_on_c, 11, 52, 96
11, 118170, Note_on_c, 11, 52, 0
11, 118200, Note_on_c, 11, 56, 96
11, 118245, Note_on_c, 11, 56, 0
11, 118260, Note_on_c, 11, 54, 96
11, 118305, Note_on_c, 11, 54, 0
11, 118320, Note_on_c, 11, 52, 96
11, 118410, Note_on_c, 11, 52, 0
11, 118440, Note_on_c, 11, 56, 96
11, 118485, Note_on_c, 11, 56, 0
11, 118500, Note_on_c, 11, 54, 96
11, 118545, Note_on_c, 11, 54, 0
11, 118560, Note_on_c, 11, 52, 96
11, 118650, Note_on_c, 11, 52, 0
11, 118680, Note_on_c, 11, 56, 96
11, 118725, Note_on_c, 11, 56, 0
11, 118740, Note_on_c, 11, 54, 96
11, 118785, Note_on_c, 11, 54, 0
11, 118800, Note_on_c, 11, 52, 96
11, 118890, Note_on_c, 11, 52, 0
11, 118920, Note_on_c, 11, 51, 96
11, 119010, Note_on_c, 11, 51, 0
11, 119040, Note_on_c, 11, 49, 96
11, 119130, Note_on_c, 11, 49, 0
11, 119160, Note_on_c, 11, 51, 96
11, 119250, Note_on_c, 11, 51, 0
11, 119280, Note_on_c, 11, 52, 96
11, 119370, Note_on_c, 11, 52, 0
11, 119400, Note_on_c, 11, 40, 96
11, 119490, Note_on_c, 11, 40, 0
11, 119520, Note_on_c, 11, 47, 96
11, 119700, Note_on_c, 11, 47, 0
11, 120000, Note_on_c, 11, 44, 96
11, 120045, Note_on_c, 11, 44, 0
11, 120060, Note_on_c, 11, 45, 96
11, 120105, Note_on_c, 11, 45, 0
11, 120120, Note_on_c, 11, 47, 96
11, 120165, Note_on_c, 11, 47, 0
11, 120180, Note_on_c, 11, 49, 96
11, 120225, Note_on_c, 11, 49, 0
11, 120240, Note_on_c, 11, 51, 96
11, 120285, Note_on_c, 11, 51, 0
11, 120300, Note_on_c, 11, 52, 96
11, 120345, Note_on_c, 11, 52, 0
11, 120360, Note_on_c, 11, 54, 96
11, 120405, Note_on_c, 11, 54, 0
11, 120420, Note_on_c, 11, 56, 96
11, 120465, Note_on_c, 11, 56, 0
11, 120480, Note_on_c, 11, 49, 96
11, 120600, Note_on_c, 11, 49, 0
11, 120960, Note_on_c, 11, 42, 96
11, 121005, Note_on_c, 11, 42, 0
11, 121020, Note_on_c, 11, 44, 96
11, 121065, Note_on_c, 11, 44, 0
11, 121080, Note_on_c, 11, 45, 96
11, 121125, Note_on_c, 11, 45, 0
11, 121140, Note_on_c, 11, 47, 96
11, 121185, Note_on_c, 11, 47, 0
11, 121200, Note_on_c, 11, 49, 96
11, 121245, Note_on_c, 11, 49, 0
11, 121260, Note_on_c, 11, 51, 96
11, 121305, Note_on_c, 11, 51, 0
11, 121320, Note_on_c, 11, 52, 96
11, 121365, Note_on_c, 11, 52, 0
11, 121380, Note_on_c, 11, 54, 96
11, 121425, Note_on_c, 11, 54, 0
11, 121440, Note_on_c, 11, 47, 96
11, 121560, Note_on_c, 11, 47, 0
11, 121920, Note_on_c, 11, 40, 96
11, 121965, Note_on_c, 11, 40, 0
11, 121980, Note_on_c, 11, 42, 96
11, 122025, Note_on_c, 11, 42, 0
11, 122040, Note_on_c, 11, 44, 96
11, 122085, Note_on_c, 11, 44, 0
11, 122100, Note_on_c, 11, 45, 96
11, 122145, Note_on_c, 11, 45, 0
11, 122160, Note_on_c, 11, 47, 96
11, 122205, Note_on_c, 11, 47, 0
11, 122220, Note_on_c, 11, 49, 96
11, 122265, Note_on_c, 11, 49, 0
11, 122280, Note_on_c, 11, 51, 96
11, 122325, Note_on_c, 11, 51, 0
11, 122340, Note_on_c, 11, 52, 96
11, 122385, Note_on_c, 11, 52, 0
11, 122400, Note_on_c, 11, 49, 96
11, 122490, Note_on_c, 11, 49, 0
11, 122520, Note_on_c, 11, 61, 96
11, 122700, Note_on_c, 11, 61, 0
11, 122760, Note_on_c, 11, 59, 96
11, 122850, Note_on_c, 11, 59, 0
11, 122880, Note_on_c, 11, 57, 96
11, 122970, Note_on_c, 11, 57, 0
11, 123000, Note_on_c, 11, 45, 96
11, 123180, Note_on_c, 11, 45, 0
11, 123240, Note_on_c, 11, 44, 96
11, 123330, Note_on_c, 11, 44, 0
11, 123360, Note_on_c, 11, 42, 96
11, 123450, Note_on_c, 11, 42, 0
11, 123480, Note_on_c, 11, 54, 96
11, 123660, Note_on_c, 11, 54, 0
11, 123720, Note_on_c, 11, 52, 96
11, 123810, Note_on_c, 11, 52, 0
11, 123840, Note_on_c, 11, 51, 96
11, 124200, Note_on_c, 11, 51, 0
11, 124380, Note_on_c, 11, 52, 96
11, 124425, Note_on_c, 11, 52, 0
11, 124440, Note_on_c, 11, 54, 96
11, 124485, Note_on_c, 11, 54, 0
11, 124500, Note_on_c, 11, 51, 96
11, 124545, Note_on_c, 11, 51, 0
11, 124560, Note_on_c, 11, 47, 96
11, 124650, Note_on_c, 11, 47, 0
11, 124680, Note_on_c, 11, 51, 96
11, 124770, Note_on_c, 11, 51, 0
11, 124800, Note_on_c, 11, 52, 96
11, 124890, Note_on_c, 11, 52, 0
11, 124920, Note_on_c, 11, 56, 96
11, 125010, Note_on_c, 11, 56, 0
11, 125040, Note_on_c, 11, 57, 96
11, 125130, Note_on_c, 11, 57, 0
11, 125160, Note_on_c, 11, 59, 96
11, 125250, Note_on_c, 11, 59, 0
11, 125280, Note_on_c, 11, 61, 96
11, 125370, Note_on_c, 11, 61, 0
11, 125400, Note_on_c, 11, 56, 96
11, 125445, Note_on_c, 11, 56, 0
11, 125460, Note_on_c, 11, 56, 96
11, 125505, Note_on_c, 11, 56, 0
11, 125520, Note_on_c, 11, 57, 96
11, 125565, Note_on_c, 11, 57, 0
11, 125580, Note_on_c, 11, 57, 96
11, 125625, Note_on_c, 11, 57, 0
11, 125640, Note_on_c, 11, 59, 96
11, 125685, Note_on_c, 11, 59, 0
11, 125700, Note_on_c, 11, 59, 96
11, 125745, Note_on_c, 11, 59, 0
11, 125760, Note_on_c, 11, 61, 96
11, 125805, Note_on_c, 11, 61, 0
11, 125820, Note_on_c, 11, 61, 96
11, 125865, Note_on_c, 11, 61, 0
11, 125880, Note_on_c, 11, 56, 96
11, 125925, Note_on_c, 11, 56, 0
11, 125940, Note_on_c, 11, 56, 96
11, 125985, Note_on_c, 11, 56, 0
11, 126000, Note_on_c, 11, 57, 96
11, 126045, Note_on_c, 11, 57, 0
11, 126060, Note_on_c, 11, 57, 96
11, 126105, Note_on_c, 11, 57, 0
11, 126120, Note_on_c, 11, 59, 96
11, 126165, Note_on_c, 11, 59, 0
11, 126180, Note_on_c, 11, 59, 96
11, 126225, Note_on_c, 11, 59, 0
11, 126240, Note_on_c, 11, 61, 96
11, 126285, Note_on_c, 11, 61, 0
11, 126300, Note_on_c, 11, 61, 96
11, 126345, Note_on_c, 11, 61, 0
11, 126360, Note_on_c, 11, 59, 96
11, 126405, Note_on_c, 11, 59, 0
11, 126420, Note_on_c, 11, 59, 96
11, 126465, Note_on_c, 11, 59, 0
11, 126480, Note_on_c, 11, 61, 96
11, 126525, Note_on_c, 11, 61, 0
11, 126540, Note_on_c, 11, 61, 96
11, 126585, Note_on_c, 11, 61, 0
11, 126600, Note_on_c, 11, 63, 96
11, 126645, Note_on_c, 11, 63, 0
11, 126660, Note_on_c, 11, 63, 96
11, 126705, Note_on_c, 11, 63, 0
11, 126720, Note_on_c, 11, 64, 96
11, 126810, Note_on_c, 11, 64, 0
11, 126840, Note_on_c, 11, 61, 96
11, 126930, Note_on_c, 11, 61, 0
11, 126960, Note_on_c, 11, 57, 96
11, 127050, Note_on_c, 11, 57, 0
11, 127080, Note_on_c, 11, 59, 96
11, 127170, Note_on_c, 11, 59, 0
11, 127200, Note_on_c, 11, 52, 96
11, 127440, Note_on_c, 11, 52, 0
11, 128160, Note_on_c, 11, 52, 96
11, 128280, Note_on_c, 11, 52, 0
11, 128400, Note_on_c, 11, 56, 96
11, 128520, Note_on_c, 11, 56, 0
11, 128640, Note_on_c, 11, 57, 96
11, 128880, Note_on_c, 11, 57, 0
11, 128940, Note_on_c, 11, 56, 96
11, 128985, Note_on_c, 11, 56, 0
11, 129000, Note_on_c, 11, 54, 96
11, 129045, Note_on_c, 11, 54, 0
11, 129060, Note_on_c, 11, 52, 96
11, 129105, Note_on_c, 11, 52, 0
11, 129120, Note_on_c, 11, 57, 96
11, 129300, Note_on_c, 11, 57, 0
11, 129480, Note_on_c, 11, 56, 96
11, 129570, Note_on_c, 11, 56, 0
11, 129600, Note_on_c, 11, 54, 96
11, 129690, Note_on_c, 11, 54, 0
11, 129720, Note_on_c, 11, 51, 96
11, 129810, Note_on_c, 11, 51, 0
11, 129840, Note_on_c, 11, 52, 96
11, 129930, Note_on_c, 11, 52, 0
11, 129960, Note_on_c, 11, 40, 96
11, 130050, Note_on_c, 11, 40, 0
11, 130080, Note_on_c, 11, 47, 96
11, 130260, Note_on_c, 11, 47, 0
11, 130560, Note_on_c, 11, 52, 96
11, 130680, Note_on_c, 11, 52, 0
11, 130800, Note_on_c, 11, 40, 96
11, 130920, Note_on_c, 11, 40, 0
11, 131040, Note_on_c, 11, 52, 96
11, 131280, Note_on_c, 11, 52, 0
11, 131400, Note_on_c, 11, 40, 96
11, 131490, Note_on_c, 11, 40, 0
11, 131520, Note_on_c, 11, 52, 96
11, 131610, Note_on_c, 11, 52, 0
11, 131640, Note_on_c, 11, 56, 96
11, 131685, Note_on_c, 11, 56, 0
11, 131700, Note_on_c, 11, 54, 96
11, 131745, Note_on_c, 11, 54, 0
11, 131760, Note_on_c, 11, 52, 96
11, 131850, Note_on_c, 11, 52, 0
11, 131880, Note_on_c, 11, 56, 96
11, 131925, Note_on_c, 11, 56, 0
11, 131940, Note_on_c, 11, 54, 96
11, 131985, Note_on_c, 11, 54, 0
11, 132000, Note_on_c, 11, 52, 96
11, 132090, Note_on_c, 11, 52, 0
11, 132120, Note_on_c, 11, 56, 96
11, 132165, Note_on_c, 11, 56, 0
11, 132180, Note_on_c, 11, 54, 96
11, 132225, Note_on_c, 11, 54, 0
11, 132240, Note_on_c, 11, 52, 96
11, 132330, Note_on_c, 11, 52, 0
11, 132360, Note_on_c, 11, 51, 96
11, 132450, Note_on_c, 11, 51, 0
11, 132480, Note_on_c, 11, 49, 96
11, 132570, Note_on_c, 11, 49, 0
11, 132600, Note_on_c, 11, 51, 96
11, 132690, Note_on_c, 11, 51, 0
11, 132720, Note_on_c, 11, 52, 96
11, 132810, Note_on_c, 11, 52, 0
11, 132840, Note_on_c, 11, 40, 96
11, 132930, Note_on_c, 11, 40, 0
11, 132960, Note_on_c, 11, 47, 96
11, 133140, Note_on_c, 11, 47, 0
11, 133320, Note_on_c, 11, 59, 96
11, 133410, Note_on_c, 11, 59, 0
11, 133440, Note_on_c, 11, 59, 96
11, 133530, Note_on_c, 11, 59, 0
11, 133560, Note_on_c, 11, 47, 96
11, 133650, Note_on_c, 11, 47, 0
11, 133800, Note_on_c, 11, 59, 96
11, 133890, Note_on_c, 11, 59, 0
11, 133920, Note_on_c, 11, 59, 96
11, 134010, Note_on_c, 11, 59, 0
11, 134040, Note_on_c, 11, 47, 96
11, 134130, Note_on_c, 11, 47, 0
11, 134280, Note_on_c, 11, 59, 80
11, 134370, Note_on_c, 11, 59, 0
11, 134400, Note_on_c, 11, 59, 80
11, 134490, Note_on_c, 11, 59, 0
11, 134520, Note_on_c, 11, 47, 80
11, 134610, Note_on_c, 11, 47, 0
11, 134760, Note_on_c, 11, 59, 64
11, 134850, Note_on_c, 11, 59, 0
11, 134880, Note_on_c, 11, 59, 64
11, 134970, Note_on_c, 11, 59, 0
11, 135000, Note_on_c, 11, 47, 64
11, 135090, Note_on_c, 11, 47, 0
11, 135720, Note_on_c, 11, 47, 96
11, 135810, Note_on_c, 11, 47, 0
11, 135840, Note_on_c, 11, 59, 96
11, 135930, Note_on_c, 11, 59, 0
11, 135960, Note_on_c, 11, 63, 96
11, 136005, Note_on_c, 11, 63, 0
11, 136020, Note_on_c, 11, 61, 96
11, 136065, Note_on_c, 11, 61, 0
11, 136080, Note_on_c, 11, 59, 96
11, 136170, Note_on_c, 11, 59, 0
11, 136200, Note_on_c, 11, 63, 96
11, 136245, Note_on_c, 11, 63, 0
11, 136260, Note_on_c, 11, 61, 96
11, 136305, Note_on_c, 11, 61, 0
11, 136320, Note_on_c, 11, 59, 96
11, 136410, Note_on_c, 11, 59, 0
11, 136440, Note_on_c, 11, 63, 96
11, 136485, Note_on_c, 11, 63, 0
11, 136500, Note_on_c, 11, 61, 96
11, 136545, Note_on_c, 11, 61, 0
11, 136560, Note_on_c, 11, 59, 96
11, 136650, Note_on_c, 11, 59, 0
11, 136680, Note_on_c, 11, 47, 96
11, 136770, Note_on_c, 11, 47, 0
11, 136800, Note_on_c, 11, 59, 96
11, 136890, Note_on_c, 11, 59, 0
11, 136920, Note_on_c, 11, 63, 96
11, 136965, Note_on_c, 11, 63, 0
11, 136980, Note_on_c, 11, 61, 96
11, 137025, Note_on_c, 11, 61, 0
11, 137040, Note_on_c, 11, 59, 96
11, 137130, Note_on_c, 11, 59, 0
11, 137160, Note_on_c, 11, 54, 96
11, 137250, Note_on_c, 11, 54, 0
11, 137280, Note_on_c, 11, 59, 96
11, 137370, Note_on_c, 11, 59, 0
11, 137400, Note_on_c, 11, 63, 96
11, 137445, Note_on_c, 11, 63, 0
11, 137460, Note_on_c, 11, 61, 96
11, 137505, Note_on_c, 11, 61, 0
11, 137520, Note_on_c, 11, 59, 96
11, 137610, Note_on_c, 11, 59, 0
11, 137640, Note_on_c, 11, 54, 96
11, 137730, Note_on_c, 11, 54, 0
11, 137760, Note_on_c, 11, 56, 96
11, 137850, Note_on_c, 11, 56, 0
11, 137880, Note_on_c, 11, 61, 96
11, 137925, Note_on_c, 11, 61, 0
11, 137940, Note_on_c, 11, 59, 96
11, 137985, Note_on_c, 11, 59, 0
11, 138000, Note_on_c, 11, 58, 96
11, 138090, Note_on_c, 11, 58, 0
11, 138120, Note_on_c, 11, 56, 96
11, 138210, Note_on_c, 11, 56, 0
11, 138240, Note_on_c, 11, 54, 96
11, 138330, Note_on_c, 11, 54, 0
11, 138360, Note_on_c, 11, 56, 96
11, 138450, Note_on_c, 11, 56, 0
11, 138480, Note_on_c, 11, 58, 96
11, 138570, Note_on_c, 11, 58, 0
11, 138600, Note_on_c, 11, 54, 96
11, 138690, Note_on_c, 11, 54, 0
11, 138720, Note_on_c, 11, 59, 96
11, 138900, Note_on_c, 11, 59, 0
11, 138960, Note_on_c, 11, 58, 96
11, 139140, Note_on_c, 11, 58, 0
11, 139200, Note_on_c, 11, 56, 96
11, 139380, Note_on_c, 11, 56, 0
11, 139440, Note_on_c, 11, 49, 96
11, 139620, Note_on_c, 11, 49, 0
11, 139680, Note_on_c, 11, 54, 96
11, 139860, Note_on_c, 11, 54, 0
11, 140160, Note_on_c, 11, 51, 96
11, 140205, Note_on_c, 11, 51, 0
11, 140220, Note_on_c, 11, 52, 96
11, 140265, Note_on_c, 11, 52, 0
11, 140280, Note_on_c, 11, 54, 96
11, 140325, Note_on_c, 11, 54, 0
11, 140340, Note_on_c, 11, 56, 96
11, 140385, Note_on_c, 11, 56, 0
11, 140400, Note_on_c, 11, 58, 96
11, 140445, Note_on_c, 11, 58, 0
11, 140460, Note_on_c, 11, 59, 96
11, 140505, Note_on_c, 11, 59, 0
11, 140520, Note_on_c, 11, 61, 96
11, 140565, Note_on_c, 11, 61, 0
11, 140580, Note_on_c, 11, 63, 96
11, 140625, Note_on_c, 11, 63, 0
11, 140640, Note_on_c, 11, 56, 96
11, 140760, Note_on_c, 11, 56, 0
11, 141120, Note_on_c, 11, 49, 96
11, 141165, Note_on_c, 11, 49, 0
11, 141180, Note_on_c, 11, 51, 96
11, 141225, Note_on_c, 11, 51, 0
11, 141240, Note_on_c, 11, 52, 96
11, 141285, Note_on_c, 11, 52, 0
11, 141300, Note_on_c, 11, 54, 96
11, 141345, Note_on_c, 11, 54, 0
11, 141360, Note_on_c, 11, 56, 96
11, 141405, Note_on_c, 11, 56, 0
11, 141420, Note_on_c, 11, 58, 96
11, 141465, Note_on_c, 11, 58, 0
11, 141480, Note_on_c, 11, 59, 96
11, 141525, Note_on_c, 11, 59, 0
11, 141540, Note_on_c, 11, 61, 96
11, 141585, Note_on_c, 11, 61, 0
11, 141600, Note_on_c, 11, 54, 96
11, 141720, Note_on_c, 11, 54, 0
11, 142080, Note_on_c, 11, 47, 96
11, 142125, Note_on_c, 11, 47, 0
11, 142140, Note_on_c, 11, 49, 96
11, 142185, Note_on_c, 11, 49, 0
11, 142200, Note_on_c, 11, 51, 96
11, 142245, Note_on_c, 11, 51, 0
11, 142260, Note_on_c, 11, 52, 96
11, 142305, Note_on_c, 11, 52, 0
11, 142320, Note_on_c, 11, 54, 96
11, 142365, Note_on_c, 11, 54, 0
11, 142380, Note_on_c, 11, 56, 96
11, 142425, Note_on_c, 11, 56, 0
11, 142440, Note_on_c, 11, 58, 96
11, 142485, Note_on_c, 11, 58, 0
11, 142500, Note_on_c, 11, 59, 96
11, 142545, Note_on_c, 11, 59, 0
11, 142560, Note_on_c, 11, 56, 96
11, 142650, Note_on_c, 11, 56, 0
11, 142680, Note_on_c, 11, 44, 96
11, 142860, Note_on_c, 11, 44, 0
11, 142920, Note_on_c, 11, 42, 96
11, 143010, Note_on_c, 11, 42, 0
11, 143040, Note_on_c, 11, 40, 96
11, 143130, Note_on_c, 11, 40, 0
11, 143160, Note_on_c, 11, 52, 96
11, 143340, Note_on_c, 11, 52, 0
11, 143400, Note_on_c, 11, 51, 96
11, 143490, Note_on_c, 11, 51, 0
11, 143520, Note_on_c, 11, 49, 96
11, 143610, Note_on_c, 11, 49, 0
11, 143640, Note_on_c, 11, 61, 96
11, 143820, Note_on_c, 11, 61, 0
11, 143880, Note_on_c, 11, 59, 96
11, 143970, Note_on_c, 11, 59, 0
11, 144000, Note_on_c, 11, 58, 96
11, 144360, Note_on_c, 11, 58, 0
11, 144600, Note_on_c, 11, 54, 96
11, 144690, Note_on_c, 11, 54, 0
11, 144720, Note_on_c, 11, 56, 96
11, 144810, Note_on_c, 11, 56, 0
11, 144840, Note_on_c, 11, 58, 96
11, 144930, Note_on_c, 11, 58, 0
11, 144960, Note_on_c, 11, 59, 96
11, 145050, Note_on_c, 11, 59, 0
11, 145080, Note_on_c, 11, 51, 96
11, 145125, Note_on_c, 11, 51, 0
11, 145140, Note_on_c, 11, 51, 96
11, 145185, Note_on_c, 11, 51, 0
11, 145200, Note_on_c, 11, 52, 96
11, 145245, Note_on_c, 11, 52, 0
11, 145260, Note_on_c, 11, 52, 96
11, 145305, Note_on_c, 11, 52, 0
11, 145320, Note_on_c, 11, 54, 96
11, 145365, Note_on_c, 11, 54, 0
11, 145380, Note_on_c, 11, 54, 96
11, 145425, Note_on_c, 11, 54, 0
11, 145440, Note_on_c, 11, 47, 96
11, 145530, Note_on_c, 11, 47, 0
11, 145560, Note_on_c, 11, 51, 96
11, 145650, Note_on_c, 11, 51, 0
11, 145680, Note_on_c, 11, 52, 96
11, 145770, Note_on_c, 11, 52, 0
11, 145800, Note_on_c, 11, 54, 96
11, 145890, Note_on_c, 11, 54, 0
11, 145920, Note_on_c, 11, 56, 96
11, 146010, Note_on_c, 11, 56, 0
11, 146040, Note_on_c, 11, 51, 96
11, 146085, Note_on_c, 11, 51, 0
11, 146100, Note_on_c, 11, 51, 96
11, 146145, Note_on_c, 11, 51, 0
11, 146160, Note_on_c, 11, 52, 96
11, 146205, Note_on_c, 11, 52, 0
11, 146220, Note_on_c, 11, 52, 96
11, 146265, Note_on_c, 11, 52, 0
11, 146280, Note_on_c, 11, 54, 96
11, 146325, Note_on_c, 11, 54, 0
11, 146340, Note_on_c, 11, 54, 96
11, 146385, Note_on_c, 11, 54, 0
11, 146400, Note_on_c, 11, 47, 96
11, 146580, Note_on_c, 11, 47, 0
11, 147960, Note_on_c, 11, 51, 96
11, 148005, Note_on_c, 11, 51, 0
11, 148020, Note_on_c, 11, 51, 96
11, 148065, Note_on_c, 11, 51, 0
11, 148080, Note_on_c, 11, 52, 96
11, 148125, Note_on_c, 11, 52, 0
11, 148140, Note_on_c, 11, 52, 96
11, 148185, Note_on_c, 11, 52, 0
11, 148200, Note_on_c, 11, 54, 96
11, 148245, Note_on_c, 11, 54, 0
11, 148260, Note_on_c, 11, 54, 96
11, 148305, Note_on_c, 11, 54, 0
11, 148320, Note_on_c, 11, 56, 96
11, 148365, Note_on_c, 11, 56, 0
11, 148380, Note_on_c, 11, 56, 96
11, 148425, Note_on_c, 11, 56, 0
11, 148440, Note_on_c, 11, 54, 96
11, 148485, Note_on_c, 11, 54, 0
11, 148500, Note_on_c, 11, 54, 96
11, 148545, Note_on_c, 11, 54, 0
11, 148560, Note_on_c, 11, 56, 96
11, 148605, Note_on_c, 11, 56, 0
11, 148620, Note_on_c, 11, 56, 96
11, 148665, Note_on_c, 11, 56, 0
11, 148680, Note_on_c, 11, 58, 96
11, 148725, Note_on_c, 11, 58, 0
11, 148740, Note_on_c, 11, 58, 96
11, 148785, Note_on_c, 11, 58, 0
11, 148800, Note_on_c, 11, 59, 96
11, 148890, Note_on_c, 11, 59, 0
11, 148920, Note_on_c, 11, 56, 96
11, 149010, Note_on_c, 11, 56, 0
11, 149040, Note_on_c, 11, 52, 96
11, 149130, Note_on_c, 11, 52, 0
11, 149160, Note_on_c, 11, 54, 96
11, 149250, Note_on_c, 11, 54, 0
11, 149280, Note_on_c, 11, 47, 96
11, 149520, Note_on_c, 11, 47, 0
11, 149760, Note_on_c, 11, 52, 96
11, 149880, Note_on_c, 11, 52, 0
11, 150000, Note_on_c, 11, 40, 96
11, 150120, Note_on_c, 11, 40, 0
11, 150240, Note_on_c, 11, 52, 96
11, 150480, Note_on_c, 11, 52, 0
11, 150600, Note_on_c, 11, 52, 96
11, 150690, Note_on_c, 11, 52, 0
11, 150720, Note_on_c, 11, 52, 96
11, 150810, Note_on_c, 11, 52, 0
11, 150840, Note_on_c, 11, 40, 96
11, 150930, Note_on_c, 11, 40, 0
11, 151080, Note_on_c, 11, 52, 96
11, 151170, Note_on_c, 11, 52, 0
11, 151200, Note_on_c, 11, 52, 96
11, 151290, Note_on_c, 11, 52, 0
11, 151320, Note_on_c, 11, 40, 96
11, 151410, Note_on_c, 11, 40, 0
11, 151560, Note_on_c, 11, 52, 80
11, 151650, Note_on_c, 11, 52, 0
11, 151680, Note_on_c, 11, 52, 80
11, 151770, Note_on_c, 11, 52, 0
11, 151800, Note_on_c, 11, 40, 80
11, 151890, Note_on_c, 11, 40, 0
11, 152040, Note_on_c, 11, 52, 64
11, 152130, Note_on_c, 11, 52, 0
11, 152160, Note_on_c, 11, 52, 64
11, 152250, Note_on_c, 11, 52, 0
11, 152280, Note_on_c, 11, 40, 64
11, 152370, Note_on_c, 11, 40, 0
11, 153000, Note_on_c, 11, 40, 96
11, 153090, Note_on_c, 11, 40, 0
11, 153120, Note_on_c, 11, 52, 96
11, 153192, Note_on_c, 11, 52, 0
11, 153240, Note_on_c, 11, 56, 96
11, 153285, Note_on_c, 11, 56, 0
11, 153300, Note_on_c, 11, 54, 96
11, 153345, Note_on_c, 11, 54, 0
11, 153360, Note_on_c, 11, 52, 96
11, 153450, Note_on_c, 11, 52, 0
11, 153480, Note_on_c, 11, 56, 96
11, 153525, Note_on_c, 11, 56, 0
11, 153540, Note_on_c, 11, 54, 96
11, 153585, Note_on_c, 11, 54, 0
11, 153600, Note_on_c, 11, 52, 96
11, 153690, Note_on_c, 11, 52, 0
11, 153720, Note_on_c, 11, 56, 96
11, 153765, Note_on_c, 11, 56, 0
11, 153780, Note_on_c, 11, 54, 96
11, 153825, Note_on_c, 11, 54, 0
11, 153840, Note_on_c, 11, 52, 96
11, 153930, Note_on_c, 11, 52, 0
11, 153960, Note_on_c, 11, 40, 96
11, 154050, Note_on_c, 11, 40, 0
11, 154080, Note_on_c, 11, 52, 96
11, 154170, Note_on_c, 11, 52, 0
11, 154200, Note_on_c, 11, 56, 96
11, 154245, Note_on_c, 11, 56, 0
11, 154260, Note_on_c, 11, 54, 96
11, 154305, Note_on_c, 11, 54, 0
11, 154320, Note_on_c, 11, 52, 96
11, 154410, Note_on_c, 11, 52, 0
11, 154440, Note_on_c, 11, 47, 96
11, 154530, Note_on_c, 11, 47, 0
11, 154560, Note_on_c, 11, 52, 96
11, 154650, Note_on_c, 11, 52, 0
11, 154680, Note_on_c, 11, 56, 96
11, 154725, Note_on_c, 11, 56, 0
11, 154740, Note_on_c, 11, 54, 96
11, 154785, Note_on_c, 11, 54, 0
11, 154800, Note_on_c, 11, 52, 96
11, 154890, Note_on_c, 11, 52, 0
11, 154920, Note_on_c, 11, 47, 96
11, 155010, Note_on_c, 11, 47, 0
11, 155040, Note_on_c, 11, 49, 96
11, 155130, Note_on_c, 11, 49, 0
11, 155160, Note_on_c, 11, 54, 96
11, 155205, Note_on_c, 11, 54, 0
11, 155220, Note_on_c, 11, 52, 96
11, 155265, Note_on_c, 11, 52, 0
11, 155280, Note_on_c, 11, 51, 96
11, 155370, Note_on_c, 11, 51, 0
11, 155400, Note_on_c, 11, 49, 96
11, 155490, Note_on_c, 11, 49, 0
11, 155520, Note_on_c, 11, 47, 96
11, 155610, Note_on_c, 11, 47, 0
11, 155640, Note_on_c, 11, 49, 96
11, 155730, Note_on_c, 11, 49, 0
11, 155760, Note_on_c, 11, 51, 96
11, 155850, Note_on_c, 11, 51, 0
11, 155880, Note_on_c, 11, 47, 96
11, 155970, Note_on_c, 11, 47, 0
11, 156000, Note_on_c, 11, 52, 96
11, 156180, Note_on_c, 11, 52, 0
11, 156240, Note_on_c, 11, 51, 96
11, 156420, Note_on_c, 11, 51, 0
11, 156480, Note_on_c, 11, 49, 96
11, 156660, Note_on_c, 11, 49, 0
11, 156720, Note_on_c, 11, 42, 96
11, 156900, Note_on_c, 11, 42, 0
11, 156960, Note_on_c, 11, 47, 96
11, 157200, Note_on_c, 11, 47, 0
11, 157440, Note_on_c, 11, 44, 96
11, 157485, Note_on_c, 11, 44, 0
11, 157500, Note_on_c, 11, 45, 96
11, 157545, Note_on_c, 11, 45, 0
11, 157560, Note_on_c, 11, 47, 96
11, 157605, Note_on_c, 11, 47, 0
11, 157620, Note_on_c, 11, 49, 96
11, 157665, Note_on_c, 11, 49, 0
11, 157680, Note_on_c, 11, 51, 96
11, 157725, Note_on_c, 11, 51, 0
11, 157740, Note_on_c, 11, 52, 96
11, 157785, Note_on_c, 11, 52, 0
11, 157800, Note_on_c, 11, 54, 96
11, 157845, Note_on_c, 11, 54, 0
11, 157860, Note_on_c, 11, 56, 96
11, 157905, Note_on_c, 11, 56, 0
11, 157920, Note_on_c, 11, 49, 96
11, 158040, Note_on_c, 11, 49, 0
11, 158400, Note_on_c, 11, 42, 96
11, 158445, Note_on_c, 11, 42, 0
11, 158460, Note_on_c, 11, 44, 96
11, 158505, Note_on_c, 11, 44, 0
11, 158520, Note_on_c, 11, 45, 96
11, 158565, Note_on_c, 11, 45, 0
11, 158580, Note_on_c, 11, 47, 96
11, 158625, Note_on_c, 11, 47, 0
11, 158640, Note_on_c, 11, 49, 96
11, 158685, Note_on_c, 11, 49, 0
11, 158700, Note_on_c, 11, 51, 96
11, 158745, Note_on_c, 11, 51, 0
11, 158760, Note_on_c, 11, 52, 96
11, 158805, Note_on_c, 11, 52, 0
11, 158820, Note_on_c, 11, 54, 96
11, 158865, Note_on_c, 11, 54, 0
11, 158880, Note_on_c, 11, 47, 96
11, 159000, Note_on_c, 11, 47, 0
11, 159360, Note_on_c, 11, 40, 96
11, 159405, Note_on_c, 11, 40, 0
11, 159420, Note_on_c, 11, 42, 96
11, 159465, Note_on_c, 11, 42, 0
11, 159480, Note_on_c, 11, 44, 96
11, 159525, Note_on_c, 11, 44, 0
11, 159540, Note_on_c, 11, 45, 96
11, 159585, Note_on_c, 11, 45, 0
11, 159600, Note_on_c, 11, 47, 96
11, 159645, Note_on_c, 11, 47, 0
11, 159660, Note_on_c, 11, 49, 96
11, 159705, Note_on_c, 11, 49, 0
11, 159720, Note_on_c, 11, 51, 96
11, 159765, Note_on_c, 11, 51, 0
11, 159780, Note_on_c, 11, 52, 96
11, 159825, Note_on_c, 11, 52, 0
11, 159840, Note_on_c, 11, 49, 96
11, 159930, Note_on_c, 11, 49, 0
11, 159960, Note_on_c, 11, 61, 96
11, 160140, Note_on_c, 11, 61, 0
11, 160200, Note_on_c, 11, 59, 96
11, 160290, Note_on_c, 11, 59, 0
11, 160320, Note_on_c, 11, 57, 96
11, 160410, Note_on_c, 11, 57, 0
11, 160440, Note_on_c, 11, 45, 96
11, 160620, Note_on_c, 11, 45, 0
11, 160680, Note_on_c, 11, 44, 96
11, 160770, Note_on_c, 11, 44, 0
11, 160800, Note_on_c, 11, 42, 96
11, 160890, Note_on_c, 11, 42, 0
11, 160920, Note_on_c, 11, 54, 96
11, 161100, Note_on_c, 11, 54, 0
11, 161160, Note_on_c, 11, 52, 96
11, 161250, Note_on_c, 11, 52, 0
11, 161280, Note_on_c, 11, 51, 96
11, 161640, Note_on_c, 11, 51, 0
11, 161880, Note_on_c, 11, 49, 96
11, 161970, Note_on_c, 11, 49, 0
11, 162000, Note_on_c, 11, 51, 96
11, 162090, Note_on_c, 11, 51, 0
11, 162120, Note_on_c, 11, 47, 96
11, 162210, Note_on_c, 11, 47, 0
11, 162240, Note_on_c, 11, 52, 96
11, 162330, Note_on_c, 11, 52, 0
11, 162360, Note_on_c, 11, 44, 96
11, 162405, Note_on_c, 11, 44, 0
11, 162420, Note_on_c, 11, 44, 96
11, 162465, Note_on_c, 11, 44, 0
11, 162480, Note_on_c, 11, 45, 96
11, 162525, Note_on_c, 11, 45, 0
11, 162540, Note_on_c, 11, 45, 96
11, 162585, Note_on_c, 11, 45, 0
11, 162600, Note_on_c, 11, 47, 96
11, 162645, Note_on_c, 11, 47, 0
11, 162660, Note_on_c, 11, 47, 96
11, 162705, Note_on_c, 11, 47, 0
11, 162720, Note_on_c, 11, 40, 96
11, 162810, Note_on_c, 11, 40, 0
11, 162840, Note_on_c, 11, 56, 96
11, 162930, Note_on_c, 11, 56, 0
11, 162960, Note_on_c, 11, 57, 96
11, 163050, Note_on_c, 11, 57, 0
11, 163080, Note_on_c, 11, 59, 96
11, 163170, Note_on_c, 11, 59, 0
11, 163200, Note_on_c, 11, 61, 96
11, 163290, Note_on_c, 11, 61, 0
11, 163320, Note_on_c, 11, 44, 96
11, 163365, Note_on_c, 11, 44, 0
11, 163380, Note_on_c, 11, 44, 96
11, 163425, Note_on_c, 11, 44, 0
11, 163440, Note_on_c, 11, 45, 96
11, 163485, Note_on_c, 11, 45, 0
11, 163500, Note_on_c, 11, 45, 96
11, 163545, Note_on_c, 11, 45, 0
11, 163560, Note_on_c, 11, 47, 96
11, 163605, Note_on_c, 11, 47, 0
11, 163620, Note_on_c, 11, 47, 96
11, 163665, Note_on_c, 11, 47, 0
11, 163680, Note_on_c, 11, 40, 96
11, 163860, Note_on_c, 11, 40, 0
11, 165240, Note_on_c, 11, 44, 96
11, 165285, Note_on_c, 11, 44, 0
11, 165300, Note_on_c, 11, 44, 96
11, 165345, Note_on_c, 11, 44, 0
11, 165360, Note_on_c, 11, 45, 96
11, 165405, Note_on_c, 11, 45, 0
11, 165420, Note_on_c, 11, 45, 96
11, 165465, Note_on_c, 11, 45, 0
11, 165480, Note_on_c, 11, 47, 96
11, 165525, Note_on_c, 11, 47, 0
11, 165540, Note_on_c, 11, 47, 96
11, 165585, Note_on_c, 11, 47, 0
11, 165600, Note_on_c, 11, 49, 96
11, 165645, Note_on_c, 11, 49, 0
11, 165660, Note_on_c, 11, 49, 96
11, 165705, Note_on_c, 11, 49, 0
11, 165720, Note_on_c, 11, 47, 96
11, 165765, Note_on_c, 11, 47, 0
11, 165780, Note_on_c, 11, 47, 96
11, 165825, Note_on_c, 11, 47, 0
11, 165840, Note_on_c, 11, 49, 96
11, 165885, Note_on_c, 11, 49, 0
11, 165900, Note_on_c, 11, 49, 96
11, 165945, Note_on_c, 11, 49, 0
11, 165960, Note_on_c, 11, 51, 96
11, 166005, Note_on_c, 11, 51, 0
11, 166020, Note_on_c, 11, 51, 96
11, 166065, Note_on_c, 11, 51, 0
11, 166080, Note_on_c, 11, 52, 96
11, 166170, Note_on_c, 11, 52, 0
11, 166200, Note_on_c, 11, 49, 96
11, 166290, Note_on_c, 11, 49, 0
11, 166320, Note_on_c, 11, 45, 96
11, 166410, Note_on_c, 11, 45, 0
11, 166440, Note_on_c, 11, 47, 96
11, 166530, Note_on_c, 11, 47, 0
11, 166560, Note_on_c, 11, 40, 96
11, 166800, Note_on_c, 11, 40, 0
11, 166800, End_track
0, 0, End_of_file
