0, 0, Header, 1, 11, 384
1, 0, Start_track
1, 0, Time_signature, 4, 2, 96, 8
1, 0, Sequencer_specific, 3, 0, 0, 65
1, 0, Sequencer_specific, 5, 0, 0, 119, 14, 1
1, 0, Tempo, 674157
1, 207520, Tempo, 681818
1, 207596, Tempo, 689655
1, 207672, Tempo, 697674
1, 207744, Tempo, 705882
1, 207832, Tempo, 731707
1, 207904, Tempo, 731707
1, 208056, Tempo, 750000
1, 208216, Tempo, 779220
1, 208288, Tempo, 789473
1, 208364, Tempo, 800000
1, 208440, Tempo, 800000
1, 208600, Tempo, 833333
1, 208672, Tempo, 833333
1, 208824, Tempo, 845070
1, 208896, Tempo, 869565
1, 209056, Tempo, 895522
1, 209056, End_track
2, 0, Start_track
2, 0, Title_t, "Track A"
2, 0, End_track
3, 0, Start_track
3, 0, Title_t, "Violin 1"
3, 0, Control_c, 0, 0, 0
3, 0, Program_c, 0, 62
3, 0, Control_c, 0, 7, 127
3, 0, Control_c, 0, 10, 127
3, 0, Control_c, 0, 91, 120
3, 0, Control_c, 0, 93, 91
3, 0, Pitch_bend_c, 0, 8192
3, 4, Control_c, 0, 1, 0
3, 8, Control_c, 0, 64, 0
3, 16, Note_on_c, 0, 67, 100
3, 100, Note_off_c, 0, 67, 64
3, 120, Note_on_c, 0, 66, 100
3, 204, Note_off_c, 0, 66, 64
3, 208, Note_on_c, 0, 67, 100
3, 384, Note_off_c, 0, 67, 64
3, 416, Note_on_c, 0, 62, 100
3, 496, Note_off_c, 0, 62, 64
3, 504, Note_on_c, 0, 60, 100
3, 588, Note_off_c, 0, 60, 64
3, 600, Note_on_c, 0, 62, 100
3, 776, Note_off_c, 0, 62, 64
3, 788, Note_on_c, 0, 67, 100
3, 872, Note_off_c, 0, 67, 64
3, 896, Note_on_c, 0, 66, 100
3, 976, Note_off_c, 0, 66, 64
3, 992, Note_on_c, 0, 67, 100
3, 1168, Note_off_c, 0, 67, 64
3, 1180, Note_on_c, 0, 59, 100
3, 1264, Note_off_c, 0, 59, 64
3, 1264, Note_on_c, 0, 57, 100
3, 1348, Note_off_c, 0, 57, 64
3, 1376, Note_on_c, 0, 59, 100
3, 1552, Note_off_c, 0, 59, 64
3, 1564, Note_on_c, 0, 67, 100
3, 1648, Note_off_c, 0, 67, 64
3, 1656, Note_on_c, 0, 66, 100
3, 1740, Note_off_c, 0, 66, 64
3, 1748, Note_on_c, 0, 67, 100
3, 1924, Note_off_c, 0, 67, 64
3, 1936, Note_on_c, 0, 55, 100
3, 2020, Note_off_c, 0, 55, 64
3, 2032, Note_on_c, 0, 57, 100
3, 2116, Note_off_c, 0, 57, 64
3, 2132, Note_on_c, 0, 59, 100
3, 2308, Note_off_c, 0, 59, 64
3, 2320, Note_on_c, 0, 61, 100
3, 2496, Note_off_c, 0, 61, 64
3, 2512, Note_on_c, 0, 62, 100
3, 2596, Note_off_c, 0, 62, 64
3, 2624, Note_on_c, 0, 61, 100
3, 2704, Note_off_c, 0, 61, 64
3, 2712, Note_on_c, 0, 62, 100
3, 2796, Note_off_c, 0, 62, 64
3, 2800, Note_on_c, 0, 64, 100
3, 2884, Note_off_c, 0, 64, 64
3, 2896, Note_on_c, 0, 62, 100
3, 2980, Note_off_c, 0, 62, 64
3, 2992, Note_on_c, 0, 66, 100
3, 3076, Note_off_c, 0, 66, 64
3, 3092, Note_on_c, 0, 62, 100
3, 3176, Note_off_c, 0, 62, 64
3, 3192, Note_on_c, 0, 67, 100
3, 3276, Note_off_c, 0, 67, 64
3, 3288, Note_on_c, 0, 62, 100
3, 3372, Note_off_c, 0, 62, 64
3, 3388, Note_on_c, 0, 61, 100
3, 3472, Note_off_c, 0, 61, 64
3, 3484, Note_on_c, 0, 62, 100
3, 3568, Note_off_c, 0, 62, 64
3, 3568, Note_on_c, 0, 64, 100
3, 3652, Note_off_c, 0, 64, 64
3, 3676, Note_on_c, 0, 62, 100
3, 3760, Note_off_c, 0, 62, 64
3, 3768, Note_on_c, 0, 69, 100
3, 3852, Note_off_c, 0, 69, 64
3, 3860, Note_on_c, 0, 62, 100
3, 3944, Note_off_c, 0, 62, 64
3, 3952, Note_on_c, 0, 71, 100
3, 4036, Note_off_c, 0, 71, 64
3, 4060, Note_on_c, 0, 62, 100
3, 4144, Note_off_c, 0, 62, 64
3, 4156, Note_on_c, 0, 61, 100
3, 4240, Note_off_c, 0, 61, 64
3, 4256, Note_on_c, 0, 62, 100
3, 4336, Note_off_c, 0, 62, 64
3, 4344, Note_on_c, 0, 64, 100
3, 4428, Note_off_c, 0, 64, 64
3, 4436, Note_on_c, 0, 62, 100
3, 4520, Note_off_c, 0, 62, 64
3, 4544, Note_on_c, 0, 72, 100
3, 4624, Note_off_c, 0, 72, 64
3, 4636, Note_on_c, 0, 62, 100
3, 4720, Note_off_c, 0, 62, 64
3, 4736, Note_on_c, 0, 74, 100
3, 4816, Note_off_c, 0, 74, 64
3, 4832, Note_on_c, 0, 71, 100
3, 5008, Note_off_c, 0, 71, 64
3, 5016, Note_on_c, 0, 69, 100
3, 5100, Note_off_c, 0, 69, 64
3, 5104, Note_on_c, 0, 67, 100
3, 5188, Note_off_c, 0, 67, 64
3, 5208, Note_on_c, 0, 69, 100
3, 5384, Note_off_c, 0, 69, 64
3, 5396, Note_on_c, 0, 67, 100
3, 5480, Note_off_c, 0, 67, 64
3, 5504, Note_on_c, 0, 66, 100
3, 5584, Note_off_c, 0, 66, 64
3, 5588, Note_on_c, 0, 67, 100
3, 5764, Note_off_c, 0, 67, 64
3, 5788, Note_on_c, 0, 66, 100
3, 5872, Note_off_c, 0, 66, 64
3, 5888, Note_on_c, 0, 64, 100
3, 5968, Note_off_c, 0, 64, 64
3, 5984, Note_on_c, 0, 62, 100
3, 6064, Note_off_c, 0, 62, 64
3, 6080, Note_on_c, 0, 67, 100
3, 6160, Note_off_c, 0, 67, 64
3, 6172, Note_on_c, 0, 62, 100
3, 6256, Note_off_c, 0, 62, 64
3, 6260, Note_on_c, 0, 67, 100
3, 6344, Note_off_c, 0, 67, 64
3, 6356, Note_on_c, 0, 64, 100
3, 6532, Note_off_c, 0, 64, 64
3, 6548, Note_on_c, 0, 62, 100
3, 6632, Note_off_c, 0, 62, 64
3, 6656, Note_on_c, 0, 60, 100
3, 6736, Note_off_c, 0, 60, 64
3, 6736, Note_on_c, 0, 59, 100
3, 6820, Note_off_c, 0, 59, 64
3, 6836, Note_on_c, 0, 67, 100
3, 6920, Note_off_c, 0, 67, 64
3, 6928, Note_on_c, 0, 59, 100
3, 7012, Note_off_c, 0, 59, 64
3, 7036, Note_on_c, 0, 67, 100
3, 7120, Note_off_c, 0, 67, 64
3, 7120, Note_on_c, 0, 60, 100
3, 7296, Note_off_c, 0, 60, 64
3, 7312, Note_on_c, 0, 59, 100
3, 7396, Note_off_c, 0, 59, 64
3, 7424, Note_on_c, 0, 57, 100
3, 7504, Note_off_c, 0, 57, 64
3, 7508, Note_on_c, 0, 55, 100
3, 7592, Note_off_c, 0, 55, 64
3, 7604, Note_on_c, 0, 67, 100
3, 7688, Note_off_c, 0, 67, 64
3, 7704, Note_on_c, 0, 57, 100
3, 7788, Note_off_c, 0, 57, 64
3, 7804, Note_on_c, 0, 67, 100
3, 7888, Note_off_c, 0, 67, 64
3, 7904, Note_on_c, 0, 59, 100
3, 7984, Note_off_c, 0, 59, 64
3, 7996, Note_on_c, 0, 67, 100
3, 8080, Note_off_c, 0, 67, 64
3, 8088, Note_on_c, 0, 61, 100
3, 8172, Note_off_c, 0, 61, 64
3, 8180, Note_on_c, 0, 67, 100
3, 8264, Note_off_c, 0, 67, 64
3, 8284, Note_on_c, 0, 62, 100
3, 8368, Note_off_c, 0, 62, 64
3, 8376, Note_on_c, 0, 66, 100
3, 8460, Note_off_c, 0, 66, 64
3, 8472, Note_on_c, 0, 62, 100
3, 8556, Note_off_c, 0, 62, 64
3, 8576, Note_on_c, 0, 67, 100
3, 8656, Note_off_c, 0, 67, 64
3, 8668, Note_on_c, 0, 62, 100
3, 8752, Note_off_c, 0, 62, 64
3, 8752, Note_on_c, 0, 69, 100
3, 8836, Note_off_c, 0, 69, 64
3, 8856, Note_on_c, 0, 62, 100
3, 8940, Note_off_c, 0, 62, 64
3, 8948, Note_on_c, 0, 71, 100
3, 9032, Note_off_c, 0, 71, 64
3, 9052, Note_on_c, 0, 62, 100
3, 9136, Note_off_c, 0, 62, 64
3, 9148, Note_on_c, 0, 72, 100
3, 9232, Note_off_c, 0, 72, 64
3, 9240, Note_on_c, 0, 62, 100
3, 9324, Note_off_c, 0, 62, 64
3, 9332, Note_on_c, 0, 74, 100
3, 9416, Note_off_c, 0, 74, 64
3, 9424, Note_on_c, 0, 71, 100
3, 9600, Note_off_c, 0, 71, 64
3, 9620, Note_on_c, 0, 69, 100
3, 9704, Note_off_c, 0, 69, 64
3, 9720, Note_on_c, 0, 67, 100
3, 9804, Note_off_c, 0, 67, 64
3, 9824, Note_on_c, 0, 62, 100
3, 10000, Note_off_c, 0, 62, 64
3, 10008, Note_on_c, 0, 66, 100
3, 10184, Note_off_c, 0, 66, 64
3, 10208, Note_on_c, 0, 67, 100
3, 10384, Note_off_c, 0, 67, 64
3, 10396, Note_on_c, 0, 66, 100
3, 10480, Note_off_c, 0, 66, 64
3, 10484, Note_on_c, 0, 64, 100
3, 10568, Note_off_c, 0, 64, 64
3, 10576, Note_on_c, 0, 62, 100
3, 10660, Note_off_c, 0, 62, 64
3, 10684, Note_on_c, 0, 60, 100
3, 10768, Note_off_c, 0, 60, 64
3, 10776, Note_on_c, 0, 59, 100
3, 10860, Note_off_c, 0, 59, 64
3, 10864, Note_on_c, 0, 57, 100
3, 10948, Note_off_c, 0, 57, 64
3, 10972, Note_on_c, 0, 59, 100
3, 11148, Note_off_c, 0, 59, 64
3, 11160, Note_on_c, 0, 57, 100
3, 11244, Note_off_c, 0, 57, 64
3, 11248, Note_on_c, 0, 55, 100
3, 11332, Note_off_c, 0, 55, 64
3, 11360, Note_on_c, 0, 62, 100
3, 11536, Note_on_c, 0, 62, 100
3, 11548, Note_off_c, 0, 62, 64
3, 11720, Note_off_c, 0, 62, 64
3, 11744, Note_on_c, 0, 55, 100
3, 12104, Note_off_c, 0, 55, 64
3, 12316, Note_on_c, 0, 79, 100
3, 12400, Note_off_c, 0, 79, 64
3, 12404, Note_on_c, 0, 78, 100
3, 12488, Note_off_c, 0, 78, 64
3, 12504, Note_on_c, 0, 79, 100
3, 12680, Note_off_c, 0, 79, 64
3, 12688, Note_on_c, 0, 74, 100
3, 12772, Note_off_c, 0, 74, 64
3, 12800, Note_on_c, 0, 72, 100
3, 12880, Note_off_c, 0, 72, 64
3, 12892, Note_on_c, 0, 74, 100
3, 13068, Note_off_c, 0, 74, 64
3, 14224, Note_on_c, 0, 74, 100
3, 14400, Note_off_c, 0, 74, 64
3, 14432, Note_on_c, 0, 79, 100
3, 14512, Note_off_c, 0, 79, 64
3, 14528, Note_on_c, 0, 83, 100
3, 14608, Note_off_c, 0, 83, 64
3, 14616, Note_on_c, 0, 81, 100
3, 14700, Note_off_c, 0, 81, 64
3, 14704, Note_on_c, 0, 79, 100
3, 14788, Note_off_c, 0, 79, 64
3, 14800, Note_on_c, 0, 78, 100
3, 14884, Note_off_c, 0, 78, 64
3, 14912, Note_on_c, 0, 81, 100
3, 14992, Note_off_c, 0, 81, 64
3, 15000, Note_on_c, 0, 74, 100
3, 15084, Note_off_c, 0, 74, 64
3, 15088, Note_on_c, 0, 76, 100
3, 15172, Note_off_c, 0, 76, 64
3, 15192, Note_on_c, 0, 78, 100
3, 15276, Note_off_c, 0, 78, 64
3, 15292, Note_on_c, 0, 79, 100
3, 15376, Note_off_c, 0, 79, 64
3, 15384, Note_on_c, 0, 81, 100
3, 15468, Note_off_c, 0, 81, 64
3, 15476, Note_on_c, 0, 79, 100
3, 15560, Note_off_c, 0, 79, 64
3, 15576, Note_on_c, 0, 78, 100
3, 15752, Note_off_c, 0, 78, 64
3, 15772, Note_on_c, 0, 86, 100
3, 15948, Note_off_c, 0, 86, 64
3, 16156, Note_on_c, 0, 85, 100
3, 16332, Note_off_c, 0, 85, 64
3, 16348, Note_on_c, 0, 86, 100
3, 16524, Note_off_c, 0, 86, 64
3, 16536, Note_on_c, 0, 79, 100
3, 16712, Note_off_c, 0, 79, 64
3, 16720, Note_on_c, 0, 74, 100
3, 16896, Note_off_c, 0, 74, 64
3, 16916, Note_on_c, 0, 76, 100
3, 17092, Note_off_c, 0, 76, 64
3, 17120, Note_on_c, 0, 78, 100
3, 17296, Note_off_c, 0, 78, 64
3, 17296, Note_on_c, 0, 76, 100
3, 17380, Note_off_c, 0, 76, 64
3, 17400, Note_on_c, 0, 74, 100
3, 17484, Note_off_c, 0, 74, 64
3, 17500, Note_on_c, 0, 76, 100
3, 17676, Note_off_c, 0, 76, 64
3, 17688, Note_on_c, 0, 74, 100
3, 17772, Note_off_c, 0, 74, 64
3, 17776, Note_on_c, 0, 73, 100
3, 17860, Note_off_c, 0, 73, 64
3, 17888, Note_on_c, 0, 74, 100
3, 18064, Note_off_c, 0, 74, 64
3, 18080, Note_on_c, 0, 73, 100
3, 18160, Note_off_c, 0, 73, 64
3, 18168, Note_on_c, 0, 71, 100
3, 18252, Note_off_c, 0, 71, 64
3, 18260, Note_on_c, 0, 69, 100
3, 18344, Note_off_c, 0, 69, 64
3, 18360, Note_on_c, 0, 74, 100
3, 18444, Note_off_c, 0, 74, 64
3, 18452, Note_on_c, 0, 69, 100
3, 18536, Note_off_c, 0, 69, 64
3, 18560, Note_on_c, 0, 74, 100
3, 18640, Note_off_c, 0, 74, 64
3, 18644, Note_on_c, 0, 71, 100
3, 18820, Note_off_c, 0, 71, 64
3, 18840, Note_on_c, 0, 69, 100
3, 18924, Note_off_c, 0, 69, 64
3, 18932, Note_on_c, 0, 67, 100
3, 19016, Note_off_c, 0, 67, 64
3, 19040, Note_on_c, 0, 66, 100
3, 19120, Note_off_c, 0, 66, 64
3, 19124, Note_on_c, 0, 74, 100
3, 19208, Note_off_c, 0, 74, 64
3, 19228, Note_on_c, 0, 66, 100
3, 19312, Note_off_c, 0, 66, 64
3, 19320, Note_on_c, 0, 74, 100
3, 19404, Note_off_c, 0, 74, 64
3, 19408, Note_on_c, 0, 67, 100
3, 19584, Note_off_c, 0, 67, 64
3, 19612, Note_on_c, 0, 66, 100
3, 19696, Note_off_c, 0, 66, 64
3, 19712, Note_on_c, 0, 64, 100
3, 19792, Note_off_c, 0, 64, 64
3, 19796, Note_on_c, 0, 62, 100
3, 19880, Note_off_c, 0, 62, 64
3, 19896, Note_on_c, 0, 74, 100
3, 19980, Note_off_c, 0, 74, 64
3, 20000, Note_on_c, 0, 64, 100
3, 20080, Note_off_c, 0, 64, 64
3, 20080, Note_on_c, 0, 74, 100
3, 20164, Note_off_c, 0, 74, 64
3, 20192, Note_on_c, 0, 66, 100
3, 20272, Note_off_c, 0, 66, 64
3, 20280, Note_on_c, 0, 74, 100
3, 20364, Note_off_c, 0, 74, 64
3, 20368, Note_on_c, 0, 68, 100
3, 20452, Note_off_c, 0, 68, 64
3, 20472, Note_on_c, 0, 74, 100
3, 20556, Note_off_c, 0, 74, 64
3, 20560, Note_on_c, 0, 69, 100
3, 20644, Note_off_c, 0, 69, 64
3, 20672, Note_on_c, 0, 73, 100
3, 20752, Note_off_c, 0, 73, 64
3, 20764, Note_on_c, 0, 69, 100
3, 20848, Note_off_c, 0, 69, 64
3, 20860, Note_on_c, 0, 74, 100
3, 20944, Note_off_c, 0, 74, 64
3, 20944, Note_on_c, 0, 69, 100
3, 21028, Note_off_c, 0, 69, 64
3, 21056, Note_on_c, 0, 76, 100
3, 21136, Note_off_c, 0, 76, 64
3, 21136, Note_on_c, 0, 69, 100
3, 21220, Note_off_c, 0, 69, 64
3, 21232, Note_on_c, 0, 78, 100
3, 21316, Note_off_c, 0, 78, 64
3, 21340, Note_on_c, 0, 69, 100
3, 21424, Note_off_c, 0, 69, 64
3, 21428, Note_on_c, 0, 79, 100
3, 21512, Note_off_c, 0, 79, 64
3, 21536, Note_on_c, 0, 69, 100
3, 21616, Note_off_c, 0, 69, 64
3, 21620, Note_on_c, 0, 81, 100
3, 21704, Note_off_c, 0, 81, 64
3, 21716, Note_on_c, 0, 78, 100
3, 21892, Note_off_c, 0, 78, 64
3, 21904, Note_on_c, 0, 76, 100
3, 21988, Note_off_c, 0, 76, 64
3, 22012, Note_on_c, 0, 74, 100
3, 22096, Note_off_c, 0, 74, 64
3, 22112, Note_on_c, 0, 69, 100
3, 22288, Note_off_c, 0, 69, 64
3, 22300, Note_on_c, 0, 73, 100
3, 22476, Note_off_c, 0, 73, 64
3, 22492, Note_on_c, 0, 74, 100
3, 22852, Note_off_c, 0, 74, 64
3, 23068, Note_on_c, 0, 79, 100
3, 23152, Note_off_c, 0, 79, 64
3, 23156, Note_on_c, 0, 78, 100
3, 23240, Note_off_c, 0, 78, 64
3, 23248, Note_on_c, 0, 79, 100
3, 23424, Note_off_c, 0, 79, 64
3, 23440, Note_on_c, 0, 74, 100
3, 23524, Note_off_c, 0, 74, 64
3, 23536, Note_on_c, 0, 72, 100
3, 23620, Note_off_c, 0, 72, 64
3, 23648, Note_on_c, 0, 74, 100
3, 23824, Note_off_c, 0, 74, 64
3, 24992, Note_on_c, 0, 71, 100
3, 25072, Note_off_c, 0, 71, 64
3, 25076, Note_on_c, 0, 72, 100
3, 25160, Note_off_c, 0, 72, 64
3, 25168, Note_on_c, 0, 74, 100
3, 25344, Note_off_c, 0, 74, 64
3, 25368, Note_on_c, 0, 76, 100
3, 25544, Note_off_c, 0, 76, 64
3, 25552, Note_on_c, 0, 69, 100
3, 25728, Note_off_c, 0, 69, 64
3, 25744, Note_on_c, 0, 86, 100
3, 25828, Note_off_c, 0, 86, 64
3, 25848, Note_on_c, 0, 85, 100
3, 25932, Note_off_c, 0, 85, 64
3, 25948, Note_on_c, 0, 86, 100
3, 26124, Note_off_c, 0, 86, 64
3, 26524, Note_on_c, 0, 86, 100
3, 26608, Note_off_c, 0, 86, 64
3, 26616, Note_on_c, 0, 85, 100
3, 26700, Note_off_c, 0, 85, 64
3, 26704, Note_on_c, 0, 86, 100
3, 26880, Note_off_c, 0, 86, 64
3, 27288, Note_on_c, 0, 86, 100
3, 27372, Note_off_c, 0, 86, 64
3, 27380, Note_on_c, 0, 85, 100
3, 27464, Note_off_c, 0, 85, 64
3, 27484, Note_on_c, 0, 86, 100
3, 27660, Note_off_c, 0, 86, 64
3, 28052, Note_on_c, 0, 74, 100
3, 28228, Note_off_c, 0, 74, 64
3, 28248, Note_on_c, 0, 78, 100
3, 28424, Note_off_c, 0, 78, 64
3, 28436, Note_on_c, 0, 81, 100
3, 28612, Note_off_c, 0, 81, 64
3, 28632, Note_on_c, 0, 78, 100
3, 28808, Note_off_c, 0, 78, 64
3, 28824, Note_on_c, 0, 74, 100
3, 29000, Note_off_c, 0, 74, 64
3, 29020, Note_on_c, 0, 78, 100
3, 29196, Note_off_c, 0, 78, 64
3, 29200, Note_on_c, 0, 81, 100
3, 29376, Note_off_c, 0, 81, 64
3, 29400, Note_on_c, 0, 78, 100
3, 29576, Note_off_c, 0, 78, 64
3, 29600, Note_on_c, 0, 69, 100
3, 29776, Note_off_c, 0, 69, 64
3, 29788, Note_on_c, 0, 74, 100
3, 29872, Note_off_c, 0, 74, 64
3, 29888, Note_on_c, 0, 78, 100
3, 29968, Note_off_c, 0, 78, 64
3, 29968, Note_on_c, 0, 76, 100
3, 30052, Note_off_c, 0, 76, 64
3, 30068, Note_on_c, 0, 74, 100
3, 30152, Note_off_c, 0, 74, 64
3, 30160, Note_on_c, 0, 73, 100
3, 30524, Note_off_c, 0, 73, 64
3, 30752, Note_on_c, 0, 73, 100
3, 30928, Note_off_c, 0, 73, 64
3, 30936, Note_on_c, 0, 71, 100
3, 31296, Note_off_c, 0, 71, 64
3, 31520, Note_on_c, 0, 76, 100
3, 31696, Note_off_c, 0, 76, 64
3, 31696, Note_on_c, 0, 74, 100
3, 31780, Note_off_c, 0, 74, 64
3, 31804, Note_on_c, 0, 78, 100
3, 31888, Note_off_c, 0, 78, 64
3, 31888, Note_on_c, 0, 71, 100
3, 31972, Note_off_c, 0, 71, 64
3, 31992, Note_on_c, 0, 73, 100
3, 32076, Note_off_c, 0, 73, 64
3, 32096, Note_on_c, 0, 74, 100
3, 32176, Note_off_c, 0, 74, 64
3, 32176, Note_on_c, 0, 76, 100
3, 32260, Note_off_c, 0, 76, 64
3, 32288, Note_on_c, 0, 78, 100
3, 32368, Note_off_c, 0, 78, 64
3, 32372, Note_on_c, 0, 79, 100
3, 32456, Note_off_c, 0, 79, 64
3, 32468, Note_on_c, 0, 81, 100
3, 32644, Note_off_c, 0, 81, 64
3, 32668, Note_on_c, 0, 81, 100
3, 32844, Note_off_c, 0, 81, 64
3, 32856, Note_on_c, 0, 81, 100
3, 33032, Note_off_c, 0, 81, 64
3, 33044, Note_on_c, 0, 79, 100
3, 33128, Note_off_c, 0, 79, 64
3, 33148, Note_on_c, 0, 78, 100
3, 33232, Note_off_c, 0, 78, 64
3, 33244, Note_on_c, 0, 79, 100
3, 33420, Note_off_c, 0, 79, 64
3, 33432, Note_on_c, 0, 79, 100
3, 33608, Note_off_c, 0, 79, 64
3, 33624, Note_on_c, 0, 79, 100
3, 33800, Note_off_c, 0, 79, 64
3, 33816, Note_on_c, 0, 78, 100
3, 33900, Note_off_c, 0, 78, 64
3, 33916, Note_on_c, 0, 76, 100
3, 34000, Note_off_c, 0, 76, 64
3, 34016, Note_on_c, 0, 78, 100
3, 34192, Note_off_c, 0, 78, 64
3, 34208, Note_on_c, 0, 76, 100
3, 34288, Note_off_c, 0, 76, 64
3, 34300, Note_on_c, 0, 74, 100
3, 34384, Note_off_c, 0, 74, 64
3, 34396, Note_on_c, 0, 69, 100
3, 34572, Note_off_c, 0, 69, 64
3, 34584, Note_on_c, 0, 73, 100
3, 34760, Note_off_c, 0, 73, 64
3, 34772, Note_on_c, 0, 74, 100
3, 34856, Note_off_c, 0, 74, 64
3, 34864, Note_on_c, 0, 73, 100
3, 34948, Note_off_c, 0, 73, 64
3, 34972, Note_on_c, 0, 74, 100
3, 35056, Note_off_c, 0, 74, 64
3, 35064, Note_on_c, 0, 76, 100
3, 35148, Note_off_c, 0, 76, 64
3, 35168, Note_on_c, 0, 74, 100
3, 35248, Note_off_c, 0, 74, 64
3, 35252, Note_on_c, 0, 78, 100
3, 35336, Note_off_c, 0, 78, 64
3, 35344, Note_on_c, 0, 74, 100
3, 35428, Note_off_c, 0, 74, 64
3, 35452, Note_on_c, 0, 79, 100
3, 35536, Note_off_c, 0, 79, 64
3, 35548, Note_on_c, 0, 74, 100
3, 35632, Note_off_c, 0, 74, 64
3, 35640, Note_on_c, 0, 73, 100
3, 35724, Note_off_c, 0, 73, 64
3, 35732, Note_on_c, 0, 74, 100
3, 35816, Note_off_c, 0, 74, 64
3, 35832, Note_on_c, 0, 76, 100
3, 35916, Note_off_c, 0, 76, 64
3, 35920, Note_on_c, 0, 74, 100
3, 36004, Note_off_c, 0, 74, 64
3, 36028, Note_on_c, 0, 81, 100
3, 36112, Note_off_c, 0, 81, 64
3, 36124, Note_on_c, 0, 74, 100
3, 36208, Note_off_c, 0, 74, 64
3, 36220, Note_on_c, 0, 83, 100
3, 36304, Note_off_c, 0, 83, 64
3, 36316, Note_on_c, 0, 78, 100
3, 36400, Note_off_c, 0, 78, 64
3, 36416, Note_on_c, 0, 76, 100
3, 36496, Note_off_c, 0, 76, 64
3, 36496, Note_on_c, 0, 78, 100
3, 36580, Note_off_c, 0, 78, 64
3, 36600, Note_on_c, 0, 79, 100
3, 36684, Note_off_c, 0, 79, 64
3, 36704, Note_on_c, 0, 78, 100
3, 36784, Note_off_c, 0, 78, 64
3, 36800, Note_on_c, 0, 69, 100
3, 36880, Note_off_c, 0, 69, 64
3, 36892, Note_on_c, 0, 79, 100
3, 36976, Note_off_c, 0, 79, 64
3, 36988, Note_on_c, 0, 71, 100
3, 37072, Note_off_c, 0, 71, 64
3, 37072, Note_on_c, 0, 78, 100
3, 37156, Note_off_c, 0, 78, 64
3, 37180, Note_on_c, 0, 76, 100
3, 37264, Note_off_c, 0, 76, 64
3, 37280, Note_on_c, 0, 78, 100
3, 37360, Note_off_c, 0, 78, 64
3, 37364, Note_on_c, 0, 79, 100
3, 37448, Note_off_c, 0, 79, 64
3, 37464, Note_on_c, 0, 78, 100
3, 37548, Note_off_c, 0, 78, 64
3, 37556, Note_on_c, 0, 72, 100
3, 37640, Note_off_c, 0, 72, 64
3, 37648, Note_on_c, 0, 79, 100
3, 37732, Note_off_c, 0, 79, 64
3, 37744, Note_on_c, 0, 71, 100
3, 37828, Note_off_c, 0, 71, 64
3, 37856, Note_on_c, 0, 69, 100
3, 37936, Note_off_c, 0, 69, 64
3, 37952, Note_on_c, 0, 67, 100
3, 38032, Note_off_c, 0, 67, 64
3, 38044, Note_on_c, 0, 69, 100
3, 38128, Note_off_c, 0, 69, 64
3, 38128, Note_on_c, 0, 71, 100
3, 38212, Note_off_c, 0, 71, 64
3, 38228, Note_on_c, 0, 69, 100
3, 38312, Note_off_c, 0, 69, 64
3, 38320, Note_on_c, 0, 79, 100
3, 38404, Note_off_c, 0, 79, 64
3, 38416, Note_on_c, 0, 69, 100
3, 38500, Note_off_c, 0, 69, 64
3, 38524, Note_on_c, 0, 78, 100
3, 38608, Note_off_c, 0, 78, 64
3, 38624, Note_on_c, 0, 79, 100
3, 38984, Note_off_c, 0, 79, 64
3, 39192, Note_on_c, 0, 67, 100
3, 39276, Note_off_c, 0, 67, 64
3, 39288, Note_on_c, 0, 66, 100
3, 39372, Note_off_c, 0, 66, 64
3, 39384, Note_on_c, 0, 67, 100
3, 39560, Note_off_c, 0, 67, 64
3, 39956, Note_on_c, 0, 67, 100
3, 40040, Note_off_c, 0, 67, 64
3, 40056, Note_on_c, 0, 66, 100
3, 40140, Note_off_c, 0, 66, 64
3, 40152, Note_on_c, 0, 67, 100
3, 40328, Note_off_c, 0, 67, 64
3, 40336, Note_on_c, 0, 67, 100
3, 40512, Note_off_c, 0, 67, 64
3, 40532, Note_on_c, 0, 67, 100
3, 40708, Note_off_c, 0, 67, 64
3, 40732, Note_on_c, 0, 67, 100
3, 40908, Note_off_c, 0, 67, 64
3, 40916, Note_on_c, 0, 67, 100
3, 41092, Note_off_c, 0, 67, 64
3, 41120, Note_on_c, 0, 67, 100
3, 41296, Note_off_c, 0, 67, 64
3, 41312, Note_on_c, 0, 67, 100
3, 41488, Note_off_c, 0, 67, 64
3, 41504, Note_on_c, 0, 67, 100
3, 41680, Note_off_c, 0, 67, 64
3, 41692, Note_on_c, 0, 67, 100
3, 41868, Note_off_c, 0, 67, 64
3, 41876, Note_on_c, 0, 67, 100
3, 42052, Note_off_c, 0, 67, 64
3, 42080, Note_on_c, 0, 67, 100
3, 42256, Note_off_c, 0, 67, 64
3, 42256, Note_on_c, 0, 62, 100
3, 42432, Note_off_c, 0, 62, 64
3, 42448, Note_on_c, 0, 60, 100
3, 42532, Note_off_c, 0, 60, 64
3, 42556, Note_on_c, 0, 67, 100
3, 42640, Note_off_c, 0, 67, 64
3, 42648, Note_on_c, 0, 69, 100
3, 42732, Note_off_c, 0, 69, 64
3, 42748, Note_on_c, 0, 71, 100
3, 42832, Note_off_c, 0, 71, 64
3, 42848, Note_on_c, 0, 72, 100
3, 43024, Note_off_c, 0, 72, 64
3, 43408, Note_on_c, 0, 84, 100
3, 43492, Note_off_c, 0, 84, 64
3, 43520, Note_on_c, 0, 83, 100
3, 43600, Note_off_c, 0, 83, 64
3, 43612, Note_on_c, 0, 84, 100
3, 43788, Note_off_c, 0, 84, 64
3, 43796, Note_on_c, 0, 84, 100
3, 43972, Note_off_c, 0, 84, 64
3, 43984, Note_on_c, 0, 84, 100
3, 44160, Note_off_c, 0, 84, 64
3, 44184, Note_on_c, 0, 83, 100
3, 44268, Note_off_c, 0, 83, 64
3, 44276, Note_on_c, 0, 81, 100
3, 44360, Note_off_c, 0, 81, 64
3, 44372, Note_on_c, 0, 83, 100
3, 44548, Note_off_c, 0, 83, 64
3, 44576, Note_on_c, 0, 83, 100
3, 44752, Note_off_c, 0, 83, 64
3, 44760, Note_on_c, 0, 82, 100
3, 44936, Note_off_c, 0, 82, 64
3, 44956, Note_on_c, 0, 81, 100
3, 45040, Note_off_c, 0, 81, 64
3, 45040, Note_on_c, 0, 79, 100
3, 45124, Note_off_c, 0, 79, 64
3, 45144, Note_on_c, 0, 81, 100
3, 45228, Note_off_c, 0, 81, 64
3, 45236, Note_on_c, 0, 79, 100
3, 45320, Note_off_c, 0, 79, 64
3, 45336, Note_on_c, 0, 77, 100
3, 45420, Note_off_c, 0, 77, 64
3, 45436, Note_on_c, 0, 76, 100
3, 45520, Note_off_c, 0, 76, 64
3, 45528, Note_on_c, 0, 74, 100
3, 45612, Note_off_c, 0, 74, 64
3, 45620, Note_on_c, 0, 71, 100
3, 45704, Note_off_c, 0, 71, 64
3, 45724, Note_on_c, 0, 67, 100
3, 45808, Note_off_c, 0, 67, 64
3, 45816, Note_on_c, 0, 69, 100
3, 45900, Note_off_c, 0, 69, 64
3, 45916, Note_on_c, 0, 71, 100
3, 46000, Note_off_c, 0, 71, 64
3, 46004, Note_on_c, 0, 72, 100
3, 46088, Note_off_c, 0, 72, 64
3, 46096, Note_on_c, 0, 74, 100
3, 46180, Note_off_c, 0, 74, 64
3, 46204, Note_on_c, 0, 76, 100
3, 46288, Note_off_c, 0, 76, 64
3, 46288, Note_on_c, 0, 77, 100
3, 46372, Note_off_c, 0, 77, 64
3, 46396, Note_on_c, 0, 79, 100
3, 46432, Note_off_c, 0, 79, 64
3, 46448, Note_on_c, 0, 77, 100
3, 46484, Note_off_c, 0, 77, 64
3, 46488, Note_on_c, 0, 76, 100
3, 46528, Note_off_c, 0, 76, 64
3, 46540, Note_on_c, 0, 77, 100
3, 46576, Note_off_c, 0, 77, 64
3, 46584, Note_on_c, 0, 79, 100
3, 46668, Note_off_c, 0, 79, 64
3, 46676, Note_on_c, 0, 74, 100
3, 46944, Note_off_c, 0, 74, 64
3, 46972, Note_on_c, 0, 72, 100
3, 47056, Note_off_c, 0, 72, 64
3, 47064, Note_on_c, 0, 72, 100
3, 47148, Note_off_c, 0, 72, 64
3, 47156, Note_on_c, 0, 71, 100
3, 47240, Note_off_c, 0, 71, 64
3, 47264, Note_on_c, 0, 72, 100
3, 47344, Note_off_c, 0, 72, 64
3, 47356, Note_on_c, 0, 74, 100
3, 47440, Note_off_c, 0, 74, 64
3, 47440, Note_on_c, 0, 72, 100
3, 47524, Note_off_c, 0, 72, 64
3, 47540, Note_on_c, 0, 76, 100
3, 47624, Note_off_c, 0, 76, 64
3, 47632, Note_on_c, 0, 74, 100
3, 47716, Note_off_c, 0, 74, 64
3, 47740, Note_on_c, 0, 77, 100
3, 47824, Note_off_c, 0, 77, 64
3, 47840, Note_on_c, 0, 76, 100
3, 47920, Note_off_c, 0, 76, 64
3, 47932, Note_on_c, 0, 74, 100
3, 48016, Note_off_c, 0, 74, 64
3, 48016, Note_on_c, 0, 76, 100
3, 48100, Note_off_c, 0, 76, 64
3, 48116, Note_on_c, 0, 77, 100
3, 48200, Note_off_c, 0, 77, 64
3, 48208, Note_on_c, 0, 76, 100
3, 48292, Note_off_c, 0, 76, 64
3, 48316, Note_on_c, 0, 79, 100
3, 48400, Note_off_c, 0, 79, 64
3, 48400, Note_on_c, 0, 77, 100
3, 48484, Note_off_c, 0, 77, 64
3, 48512, Note_on_c, 0, 81, 100
3, 48592, Note_off_c, 0, 81, 64
3, 48608, Note_on_c, 0, 79, 100
3, 48688, Note_off_c, 0, 79, 64
3, 48696, Note_on_c, 0, 77, 100
3, 48780, Note_off_c, 0, 77, 64
3, 48796, Note_on_c, 0, 79, 100
3, 48880, Note_off_c, 0, 79, 64
3, 48896, Note_on_c, 0, 81, 100
3, 48976, Note_off_c, 0, 81, 64
3, 48976, Note_on_c, 0, 79, 100
3, 49060, Note_off_c, 0, 79, 64
3, 49072, Note_on_c, 0, 81, 100
3, 49156, Note_off_c, 0, 81, 64
3, 49180, Note_on_c, 0, 79, 100
3, 49264, Note_off_c, 0, 79, 64
3, 49276, Note_on_c, 0, 77, 100
3, 49360, Note_off_c, 0, 77, 64
3, 49364, Note_on_c, 0, 76, 100
3, 49448, Note_off_c, 0, 76, 64
3, 49456, Note_on_c, 0, 77, 100
3, 49540, Note_off_c, 0, 77, 64
3, 49552, Note_on_c, 0, 76, 100
3, 49636, Note_off_c, 0, 76, 64
3, 49660, Note_on_c, 0, 74, 100
3, 49744, Note_off_c, 0, 74, 64
3, 49748, Note_on_c, 0, 72, 100
3, 49832, Note_off_c, 0, 72, 64
3, 49844, Note_on_c, 0, 76, 100
3, 49928, Note_off_c, 0, 76, 64
3, 49940, Note_on_c, 0, 74, 100
3, 50024, Note_off_c, 0, 74, 64
3, 50044, Note_on_c, 0, 72, 100
3, 50128, Note_off_c, 0, 72, 64
3, 50144, Note_on_c, 0, 71, 100
3, 50320, Note_off_c, 0, 71, 64
3, 50336, Note_on_c, 0, 67, 100
3, 50512, Note_off_c, 0, 67, 64
3, 50712, Note_on_c, 0, 55, 100
3, 50888, Note_off_c, 0, 55, 64
3, 50908, Note_on_c, 0, 59, 100
3, 51084, Note_off_c, 0, 59, 64
3, 51100, Note_on_c, 0, 62, 100
3, 51276, Note_off_c, 0, 62, 64
3, 51296, Note_on_c, 0, 59, 100
3, 51472, Note_off_c, 0, 59, 64
3, 51472, Note_on_c, 0, 55, 100
3, 51648, Note_off_c, 0, 55, 64
3, 51676, Note_on_c, 0, 59, 100
3, 51852, Note_off_c, 0, 59, 64
3, 51864, Note_on_c, 0, 62, 100
3, 52040, Note_off_c, 0, 62, 64
3, 52052, Note_on_c, 0, 59, 100
3, 52228, Note_off_c, 0, 59, 64
3, 52240, Note_on_c, 0, 55, 100
3, 52416, Note_off_c, 0, 55, 64
3, 52448, Note_on_c, 0, 62, 100
3, 52532, Note_off_c, 0, 62, 64
3, 52624, Note_on_c, 0, 62, 100
3, 52712, Note_off_c, 0, 62, 64
3, 52728, Note_on_c, 0, 62, 100
3, 52812, Note_off_c, 0, 62, 64
3, 52824, Note_on_c, 0, 62, 100
3, 53000, Note_off_c, 0, 62, 64
3, 53396, Note_on_c, 0, 74, 100
3, 53480, Note_off_c, 0, 74, 64
3, 53496, Note_on_c, 0, 73, 100
3, 53580, Note_off_c, 0, 73, 64
3, 53588, Note_on_c, 0, 74, 100
3, 53764, Note_off_c, 0, 74, 64
3, 54164, Note_on_c, 0, 74, 100
3, 54248, Note_off_c, 0, 74, 64
3, 54256, Note_on_c, 0, 73, 100
3, 54340, Note_off_c, 0, 73, 64
3, 54368, Note_on_c, 0, 74, 100
3, 54544, Note_off_c, 0, 74, 64
3, 54928, Note_on_c, 0, 72, 100
3, 55012, Note_off_c, 0, 72, 64
3, 55028, Note_on_c, 0, 71, 100
3, 55112, Note_off_c, 0, 71, 64
3, 55132, Note_on_c, 0, 72, 100
3, 55308, Note_off_c, 0, 72, 64
3, 55328, Note_on_c, 0, 71, 100
3, 55408, Note_off_c, 0, 71, 64
3, 55420, Note_on_c, 0, 69, 100
3, 55504, Note_off_c, 0, 69, 64
3, 55516, Note_on_c, 0, 74, 100
3, 55692, Note_off_c, 0, 74, 64
3, 55708, Note_on_c, 0, 72, 100
3, 55792, Note_off_c, 0, 72, 64
3, 55796, Note_on_c, 0, 71, 100
3, 55880, Note_off_c, 0, 71, 64
3, 55904, Note_on_c, 0, 72, 100
3, 56080, Note_off_c, 0, 72, 64
3, 56084, Note_on_c, 0, 71, 100
3, 56168, Note_off_c, 0, 71, 64
3, 56192, Note_on_c, 0, 69, 100
3, 56272, Note_off_c, 0, 69, 64
3, 56276, Note_on_c, 0, 71, 100
3, 56452, Note_off_c, 0, 71, 64
3, 56468, Note_on_c, 0, 67, 100
3, 56644, Note_off_c, 0, 67, 64
3, 56856, Note_on_c, 0, 62, 100
3, 57032, Note_off_c, 0, 62, 64
3, 57056, Note_on_c, 0, 59, 100
3, 57232, Note_off_c, 0, 59, 64
3, 57232, Note_on_c, 0, 55, 100
3, 57408, Note_off_c, 0, 55, 64
3, 58000, Note_on_c, 0, 74, 100
3, 58084, Note_off_c, 0, 74, 64
3, 58104, Note_on_c, 0, 72, 100
3, 58188, Note_off_c, 0, 72, 64
3, 58200, Note_on_c, 0, 74, 100
3, 58376, Note_off_c, 0, 74, 64
3, 58384, Note_on_c, 0, 79, 100
3, 58468, Note_off_c, 0, 79, 64
3, 58484, Note_on_c, 0, 78, 100
3, 58568, Note_off_c, 0, 78, 64
3, 58592, Note_on_c, 0, 79, 100
3, 58768, Note_off_c, 0, 79, 64
3, 58772, Note_on_c, 0, 74, 100
3, 58856, Note_off_c, 0, 74, 64
3, 58864, Note_on_c, 0, 72, 100
3, 58948, Note_off_c, 0, 72, 64
3, 58960, Note_on_c, 0, 74, 100
3, 59136, Note_off_c, 0, 74, 64
3, 59936, Note_on_c, 0, 79, 100
3, 60016, Note_off_c, 0, 79, 64
3, 60016, Note_on_c, 0, 78, 100
3, 60100, Note_off_c, 0, 78, 64
3, 60112, Note_on_c, 0, 79, 100
3, 60288, Note_off_c, 0, 79, 64
3, 60304, Note_on_c, 0, 67, 100
3, 60388, Note_off_c, 0, 67, 64
3, 60404, Note_on_c, 0, 69, 100
3, 60488, Note_off_c, 0, 69, 64
3, 60512, Note_on_c, 0, 71, 100
3, 60688, Note_off_c, 0, 71, 64
3, 60692, Note_on_c, 0, 73, 100
3, 60868, Note_off_c, 0, 73, 64
3, 60888, Note_on_c, 0, 74, 100
3, 60972, Note_off_c, 0, 74, 64
3, 60992, Note_on_c, 0, 73, 100
3, 61072, Note_off_c, 0, 73, 64
3, 61088, Note_on_c, 0, 74, 100
3, 61168, Note_off_c, 0, 74, 64
3, 61176, Note_on_c, 0, 76, 100
3, 61260, Note_off_c, 0, 76, 64
3, 61280, Note_on_c, 0, 74, 100
3, 61360, Note_off_c, 0, 74, 64
3, 61372, Note_on_c, 0, 78, 100
3, 61456, Note_off_c, 0, 78, 64
3, 61460, Note_on_c, 0, 74, 100
3, 61544, Note_off_c, 0, 74, 64
3, 61556, Note_on_c, 0, 79, 100
3, 61640, Note_off_c, 0, 79, 64
3, 61648, Note_on_c, 0, 74, 100
3, 61732, Note_off_c, 0, 74, 64
3, 61752, Note_on_c, 0, 73, 100
3, 61836, Note_off_c, 0, 73, 64
3, 61856, Note_on_c, 0, 74, 100
3, 61936, Note_off_c, 0, 74, 64
3, 61940, Note_on_c, 0, 76, 100
3, 62024, Note_off_c, 0, 76, 64
3, 62036, Note_on_c, 0, 74, 100
3, 62120, Note_off_c, 0, 74, 64
3, 62136, Note_on_c, 0, 81, 100
3, 62220, Note_off_c, 0, 81, 64
3, 62228, Note_on_c, 0, 74, 100
3, 62312, Note_off_c, 0, 74, 64
3, 62332, Note_on_c, 0, 83, 100
3, 62416, Note_off_c, 0, 83, 64
3, 62432, Note_on_c, 0, 74, 100
3, 62512, Note_off_c, 0, 74, 64
3, 62520, Note_on_c, 0, 73, 100
3, 62604, Note_off_c, 0, 73, 64
3, 62624, Note_on_c, 0, 74, 100
3, 62704, Note_off_c, 0, 74, 64
3, 62704, Note_on_c, 0, 76, 100
3, 62788, Note_off_c, 0, 76, 64
3, 62816, Note_on_c, 0, 74, 100
3, 62896, Note_off_c, 0, 74, 64
3, 62908, Note_on_c, 0, 84, 100
3, 62992, Note_off_c, 0, 84, 64
3, 63004, Note_on_c, 0, 74, 100
3, 63088, Note_off_c, 0, 74, 64
3, 63096, Note_on_c, 0, 86, 100
3, 63180, Note_off_c, 0, 86, 64
3, 63184, Note_on_c, 0, 83, 100
3, 63360, Note_off_c, 0, 83, 64
3, 63380, Note_on_c, 0, 81, 100
3, 63464, Note_off_c, 0, 81, 64
3, 63476, Note_on_c, 0, 79, 100
3, 63560, Note_off_c, 0, 79, 64
3, 63568, Note_on_c, 0, 81, 100
3, 63744, Note_off_c, 0, 81, 64
3, 63768, Note_on_c, 0, 79, 100
3, 63852, Note_off_c, 0, 79, 64
3, 63856, Note_on_c, 0, 78, 100
3, 63940, Note_off_c, 0, 78, 64
3, 63964, Note_on_c, 0, 79, 100
3, 64140, Note_off_c, 0, 79, 64
3, 64160, Note_on_c, 0, 78, 100
3, 64240, Note_off_c, 0, 78, 64
3, 64240, Note_on_c, 0, 76, 100
3, 64324, Note_off_c, 0, 76, 64
3, 64352, Note_on_c, 0, 74, 100
3, 64432, Note_off_c, 0, 74, 64
3, 64444, Note_on_c, 0, 79, 100
3, 64528, Note_off_c, 0, 79, 64
3, 64540, Note_on_c, 0, 74, 100
3, 64624, Note_off_c, 0, 74, 64
3, 64640, Note_on_c, 0, 79, 100
3, 64720, Note_off_c, 0, 79, 64
3, 64728, Note_on_c, 0, 76, 100
3, 64904, Note_off_c, 0, 76, 64
3, 64924, Note_on_c, 0, 74, 100
3, 65008, Note_off_c, 0, 74, 64
3, 65008, Note_on_c, 0, 72, 100
3, 65092, Note_off_c, 0, 72, 64
3, 65116, Note_on_c, 0, 71, 100
3, 65200, Note_off_c, 0, 71, 64
3, 65212, Note_on_c, 0, 79, 100
3, 65296, Note_off_c, 0, 79, 64
3, 65308, Note_on_c, 0, 71, 100
3, 65392, Note_off_c, 0, 71, 64
3, 65392, Note_on_c, 0, 79, 100
3, 65476, Note_off_c, 0, 79, 64
3, 65504, Note_on_c, 0, 72, 100
3, 65680, Note_off_c, 0, 72, 64
3, 65692, Note_on_c, 0, 71, 100
3, 65776, Note_off_c, 0, 71, 64
3, 65788, Note_on_c, 0, 69, 100
3, 65872, Note_off_c, 0, 69, 64
3, 65872, Note_on_c, 0, 67, 100
3, 65956, Note_off_c, 0, 67, 64
3, 65976, Note_on_c, 0, 79, 100
3, 66060, Note_off_c, 0, 79, 64
3, 66080, Note_on_c, 0, 69, 100
3, 66160, Note_off_c, 0, 69, 64
3, 66160, Note_on_c, 0, 79, 100
3, 66244, Note_off_c, 0, 79, 64
3, 66260, Note_on_c, 0, 71, 100
3, 66344, Note_off_c, 0, 71, 64
3, 66352, Note_on_c, 0, 79, 100
3, 66436, Note_off_c, 0, 79, 64
3, 66464, Note_on_c, 0, 73, 100
3, 66544, Note_off_c, 0, 73, 64
3, 66556, Note_on_c, 0, 79, 100
3, 66640, Note_off_c, 0, 79, 64
3, 66644, Note_on_c, 0, 74, 100
3, 66728, Note_off_c, 0, 74, 64
3, 66752, Note_on_c, 0, 78, 100
3, 66832, Note_off_c, 0, 78, 64
3, 66836, Note_on_c, 0, 74, 100
3, 66920, Note_off_c, 0, 74, 64
3, 66940, Note_on_c, 0, 79, 100
3, 67024, Note_off_c, 0, 79, 64
3, 67028, Note_on_c, 0, 74, 100
3, 67112, Note_off_c, 0, 74, 64
3, 67120, Note_on_c, 0, 81, 100
3, 67204, Note_off_c, 0, 81, 64
3, 67220, Note_on_c, 0, 74, 100
3, 67304, Note_off_c, 0, 74, 64
3, 67320, Note_on_c, 0, 83, 100
3, 67404, Note_off_c, 0, 83, 64
3, 67424, Note_on_c, 0, 74, 100
3, 67504, Note_off_c, 0, 74, 64
3, 67504, Note_on_c, 0, 84, 100
3, 67588, Note_off_c, 0, 84, 64
3, 67616, Note_on_c, 0, 74, 100
3, 67696, Note_off_c, 0, 74, 64
3, 67704, Note_on_c, 0, 86, 100
3, 67788, Note_off_c, 0, 86, 64
3, 67792, Note_on_c, 0, 83, 100
3, 67968, Note_off_c, 0, 83, 64
3, 67996, Note_on_c, 0, 81, 100
3, 68080, Note_off_c, 0, 81, 64
3, 68080, Note_on_c, 0, 79, 100
3, 68164, Note_off_c, 0, 79, 64
3, 68192, Note_on_c, 0, 74, 100
3, 68368, Note_off_c, 0, 74, 64
3, 68380, Note_on_c, 0, 78, 100
3, 68556, Note_off_c, 0, 78, 64
3, 68576, Note_on_c, 0, 79, 100
3, 68752, Note_off_c, 0, 79, 64
3, 68756, Note_on_c, 0, 78, 100
3, 68840, Note_off_c, 0, 78, 64
3, 68856, Note_on_c, 0, 76, 100
3, 68940, Note_off_c, 0, 76, 64
3, 68944, Note_on_c, 0, 74, 100
3, 69028, Note_off_c, 0, 74, 64
3, 69052, Note_on_c, 0, 72, 100
3, 69136, Note_off_c, 0, 72, 64
3, 69136, Note_on_c, 0, 71, 100
3, 69220, Note_off_c, 0, 71, 64
3, 69240, Note_on_c, 0, 69, 100
3, 69324, Note_off_c, 0, 69, 64
3, 69332, Note_on_c, 0, 71, 100
3, 69508, Note_off_c, 0, 71, 64
3, 69536, Note_on_c, 0, 69, 100
3, 69616, Note_off_c, 0, 69, 64
3, 69616, Note_on_c, 0, 67, 100
3, 69700, Note_off_c, 0, 67, 64
3, 69716, Note_on_c, 0, 74, 100
3, 69892, Note_off_c, 0, 74, 64
3, 69904, Note_on_c, 0, 62, 100
3, 70080, Note_off_c, 0, 62, 64
3, 70100, Note_on_c, 0, 67, 100
3, 70464, Note_off_c, 0, 67, 64
3, 70576, Note_on_c, 0, 67, 100
3, 70660, Note_off_c, 0, 67, 64
3, 70684, Note_on_c, 0, 62, 100
3, 70768, Note_off_c, 0, 62, 64
3, 70784, Note_on_c, 0, 64, 100
3, 70864, Note_off_c, 0, 64, 64
3, 70880, Note_on_c, 0, 65, 100
3, 70960, Note_off_c, 0, 65, 64
3, 70960, Note_on_c, 0, 64, 100
3, 71044, Note_off_c, 0, 64, 64
3, 71068, Note_on_c, 0, 65, 100
3, 71152, Note_off_c, 0, 65, 64
3, 71164, Note_on_c, 0, 74, 100
3, 71248, Note_off_c, 0, 74, 64
3, 71260, Note_on_c, 0, 71, 100
3, 71344, Note_off_c, 0, 71, 64
3, 71360, Note_on_c, 0, 65, 100
3, 71440, Note_off_c, 0, 65, 64
3, 71448, Note_on_c, 0, 62, 100
3, 71532, Note_off_c, 0, 62, 64
3, 71552, Note_on_c, 0, 55, 100
3, 71632, Note_off_c, 0, 55, 64
3, 71644, Note_on_c, 0, 65, 100
3, 71728, Note_off_c, 0, 65, 64
3, 71728, Note_on_c, 0, 64, 100
3, 71812, Note_off_c, 0, 64, 64
3, 71836, Note_on_c, 0, 65, 100
3, 71920, Note_off_c, 0, 65, 64
3, 71928, Note_on_c, 0, 74, 100
3, 72012, Note_off_c, 0, 74, 64
3, 72024, Note_on_c, 0, 71, 100
3, 72108, Note_off_c, 0, 71, 64
3, 72128, Note_on_c, 0, 65, 100
3, 72208, Note_off_c, 0, 65, 64
3, 72216, Note_on_c, 0, 62, 100
3, 72300, Note_off_c, 0, 62, 64
3, 72312, Note_on_c, 0, 55, 100
3, 72396, Note_off_c, 0, 55, 64
3, 72408, Note_on_c, 0, 64, 100
3, 72492, Note_off_c, 0, 64, 64
3, 72500, Note_on_c, 0, 62, 100
3, 72584, Note_off_c, 0, 62, 64
3, 72596, Note_on_c, 0, 64, 100
3, 72680, Note_off_c, 0, 64, 64
3, 72692, Note_on_c, 0, 72, 100
3, 72776, Note_off_c, 0, 72, 64
3, 72784, Note_on_c, 0, 67, 100
3, 72868, Note_off_c, 0, 67, 64
3, 72892, Note_on_c, 0, 64, 100
3, 72976, Note_off_c, 0, 64, 64
3, 72976, Note_on_c, 0, 60, 100
3, 73060, Note_off_c, 0, 60, 64
3, 73072, Note_on_c, 0, 55, 100
3, 73156, Note_off_c, 0, 55, 64
3, 73172, Note_on_c, 0, 64, 100
3, 73256, Note_off_c, 0, 64, 64
3, 73272, Note_on_c, 0, 62, 100
3, 73356, Note_off_c, 0, 62, 64
3, 73360, Note_on_c, 0, 64, 100
3, 73444, Note_off_c, 0, 64, 64
3, 73456, Note_on_c, 0, 72, 100
3, 73540, Note_off_c, 0, 72, 64
3, 73552, Note_on_c, 0, 67, 100
3, 73636, Note_off_c, 0, 67, 64
3, 73660, Note_on_c, 0, 64, 100
3, 73744, Note_off_c, 0, 64, 64
3, 73752, Note_on_c, 0, 60, 100
3, 73836, Note_off_c, 0, 60, 64
3, 73852, Note_on_c, 0, 55, 100
3, 73936, Note_off_c, 0, 55, 64
3, 73948, Note_on_c, 0, 66, 100
3, 74032, Note_off_c, 0, 66, 64
3, 74040, Note_on_c, 0, 64, 100
3, 74124, Note_off_c, 0, 64, 64
3, 74140, Note_on_c, 0, 66, 100
3, 74224, Note_off_c, 0, 66, 64
3, 74228, Note_on_c, 0, 72, 100
3, 74312, Note_off_c, 0, 72, 64
3, 74336, Note_on_c, 0, 69, 100
3, 74416, Note_off_c, 0, 69, 64
3, 74424, Note_on_c, 0, 66, 100
3, 74508, Note_off_c, 0, 66, 64
3, 74512, Note_on_c, 0, 60, 100
3, 74596, Note_off_c, 0, 60, 64
3, 74624, Note_on_c, 0, 57, 100
3, 74704, Note_off_c, 0, 57, 64
3, 74720, Note_on_c, 0, 66, 100
3, 74800, Note_off_c, 0, 66, 64
3, 74804, Note_on_c, 0, 64, 100
3, 74888, Note_off_c, 0, 64, 64
3, 74912, Note_on_c, 0, 66, 100
3, 74992, Note_off_c, 0, 66, 64
3, 74992, Note_on_c, 0, 72, 100
3, 75076, Note_off_c, 0, 72, 64
3, 75104, Note_on_c, 0, 69, 100
3, 75184, Note_off_c, 0, 69, 64
3, 75192, Note_on_c, 0, 66, 100
3, 75276, Note_off_c, 0, 66, 64
3, 75288, Note_on_c, 0, 60, 100
3, 75372, Note_off_c, 0, 60, 64
3, 75388, Note_on_c, 0, 57, 100
3, 75472, Note_off_c, 0, 57, 64
3, 75484, Note_on_c, 0, 59, 100
3, 75568, Note_off_c, 0, 59, 64
3, 75568, Note_on_c, 0, 62, 100
3, 75652, Note_off_c, 0, 62, 64
3, 75668, Note_on_c, 0, 64, 100
3, 75752, Note_off_c, 0, 64, 64
3, 75764, Note_on_c, 0, 66, 100
3, 75848, Note_off_c, 0, 66, 64
3, 75864, Note_on_c, 0, 67, 100
3, 75948, Note_off_c, 0, 67, 64
3, 75968, Note_on_c, 0, 69, 100
3, 76048, Note_off_c, 0, 69, 64
3, 76060, Note_on_c, 0, 71, 100
3, 76144, Note_off_c, 0, 71, 64
3, 76156, Note_on_c, 0, 73, 100
3, 76240, Note_off_c, 0, 73, 64
3, 76256, Note_on_c, 0, 74, 100
3, 76432, Note_off_c, 0, 74, 64
3, 76436, Note_on_c, 0, 62, 100
3, 76612, Note_off_c, 0, 62, 64
3, 77012, Note_on_c, 0, 78, 100
3, 77096, Note_off_c, 0, 78, 64
3, 77120, Note_on_c, 0, 76, 100
3, 77200, Note_off_c, 0, 76, 64
3, 77204, Note_on_c, 0, 78, 100
3, 77380, Note_off_c, 0, 78, 64
3, 77780, Note_on_c, 0, 81, 100
3, 77864, Note_off_c, 0, 81, 64
3, 77880, Note_on_c, 0, 79, 100
3, 77964, Note_off_c, 0, 79, 64
3, 77972, Note_on_c, 0, 81, 100
3, 78148, Note_off_c, 0, 81, 64
3, 78556, Note_on_c, 0, 75, 100
3, 78640, Note_off_c, 0, 75, 64
3, 78652, Note_on_c, 0, 73, 100
3, 78736, Note_off_c, 0, 73, 64
3, 78748, Note_on_c, 0, 75, 100
3, 78924, Note_off_c, 0, 75, 64
3, 79324, Note_on_c, 0, 75, 100
3, 79408, Note_off_c, 0, 75, 64
3, 79408, Note_on_c, 0, 73, 100
3, 79492, Note_off_c, 0, 73, 64
3, 79508, Note_on_c, 0, 75, 100
3, 79684, Note_off_c, 0, 75, 64
3, 80084, Note_on_c, 0, 79, 100
3, 80168, Note_off_c, 0, 79, 64
3, 80188, Note_on_c, 0, 78, 100
3, 80272, Note_off_c, 0, 78, 64
3, 80288, Note_on_c, 0, 79, 100
3, 80464, Note_off_c, 0, 79, 64
3, 80852, Note_on_c, 0, 79, 100
3, 80936, Note_off_c, 0, 79, 64
3, 80952, Note_on_c, 0, 78, 100
3, 81036, Note_off_c, 0, 78, 64
3, 81040, Note_on_c, 0, 79, 100
3, 81216, Note_off_c, 0, 79, 64
3, 81440, Note_on_c, 0, 76, 100
3, 81520, Note_off_c, 0, 76, 64
3, 81524, Note_on_c, 0, 75, 100
3, 81608, Note_off_c, 0, 75, 64
3, 81624, Note_on_c, 0, 76, 100
3, 81800, Note_off_c, 0, 76, 64
3, 81820, Note_on_c, 0, 71, 100
3, 81904, Note_off_c, 0, 71, 64
3, 81912, Note_on_c, 0, 69, 100
3, 81996, Note_off_c, 0, 69, 64
3, 82012, Note_on_c, 0, 71, 100
3, 82188, Note_off_c, 0, 71, 64
3, 83344, Note_on_c, 0, 64, 100
3, 83428, Note_off_c, 0, 64, 64
3, 83440, Note_on_c, 0, 66, 100
3, 83524, Note_off_c, 0, 66, 64
3, 83536, Note_on_c, 0, 67, 100
3, 83712, Note_off_c, 0, 67, 64
3, 83728, Note_on_c, 0, 69, 100
3, 83904, Note_off_c, 0, 69, 64
3, 83924, Note_on_c, 0, 71, 100
3, 84100, Note_off_c, 0, 71, 64
3, 84116, Note_on_c, 0, 75, 100
3, 84200, Note_off_c, 0, 75, 64
3, 84220, Note_on_c, 0, 73, 100
3, 84304, Note_off_c, 0, 73, 64
3, 84304, Note_on_c, 0, 75, 100
3, 84480, Note_off_c, 0, 75, 64
3, 84500, Note_on_c, 0, 78, 100
3, 84584, Note_off_c, 0, 78, 64
3, 84592, Note_on_c, 0, 76, 100
3, 84676, Note_off_c, 0, 76, 64
3, 84700, Note_on_c, 0, 78, 100
3, 84876, Note_off_c, 0, 78, 64
3, 85660, Note_on_c, 0, 63, 100
3, 85744, Note_off_c, 0, 63, 64
3, 85744, Note_on_c, 0, 61, 100
3, 85828, Note_off_c, 0, 61, 64
3, 85852, Note_on_c, 0, 63, 100
3, 86028, Note_off_c, 0, 63, 64
3, 86044, Note_on_c, 0, 83, 100
3, 86220, Note_off_c, 0, 83, 64
3, 86236, Note_on_c, 0, 79, 100
3, 86412, Note_off_c, 0, 79, 64
3, 86424, Note_on_c, 0, 78, 100
3, 86508, Note_off_c, 0, 78, 64
3, 86512, Note_on_c, 0, 76, 100
3, 86596, Note_off_c, 0, 76, 64
3, 86616, Note_on_c, 0, 78, 100
3, 86792, Note_off_c, 0, 78, 64
3, 86800, Note_on_c, 0, 76, 100
3, 86884, Note_off_c, 0, 76, 64
3, 86912, Note_on_c, 0, 75, 100
3, 86992, Note_off_c, 0, 75, 64
3, 87000, Note_on_c, 0, 84, 100
3, 87268, Note_off_c, 0, 84, 64
3, 87296, Note_on_c, 0, 83, 100
3, 87376, Note_off_c, 0, 83, 64
3, 87388, Note_on_c, 0, 81, 100
3, 87472, Note_off_c, 0, 81, 64
3, 87480, Note_on_c, 0, 79, 100
3, 87564, Note_off_c, 0, 79, 64
3, 87580, Note_on_c, 0, 78, 100
3, 87664, Note_off_c, 0, 78, 64
3, 87676, Note_on_c, 0, 76, 100
3, 87760, Note_off_c, 0, 76, 64
3, 87764, Note_on_c, 0, 83, 100
3, 87940, Note_off_c, 0, 83, 64
3, 87956, Note_on_c, 0, 81, 100
3, 88040, Note_off_c, 0, 81, 64
3, 88048, Note_on_c, 0, 79, 100
3, 88132, Note_off_c, 0, 79, 64
3, 88160, Note_on_c, 0, 78, 100
3, 88336, Note_off_c, 0, 78, 64
3, 88336, Note_on_c, 0, 76, 100
3, 88420, Note_off_c, 0, 76, 64
3, 88432, Note_on_c, 0, 75, 100
3, 88516, Note_off_c, 0, 75, 64
3, 88532, Note_on_c, 0, 76, 100
3, 88708, Note_off_c, 0, 76, 64
3, 88732, Note_on_c, 0, 76, 100
3, 88816, Note_off_c, 0, 76, 64
3, 88820, Note_on_c, 0, 75, 100
3, 88904, Note_off_c, 0, 75, 64
3, 88916, Note_on_c, 0, 76, 100
3, 89092, Note_off_c, 0, 76, 64
3, 89496, Note_on_c, 0, 76, 100
3, 89580, Note_off_c, 0, 76, 64
3, 89584, Note_on_c, 0, 75, 100
3, 89668, Note_off_c, 0, 75, 64
3, 89688, Note_on_c, 0, 76, 100
3, 89864, Note_off_c, 0, 76, 64
3, 90264, Note_on_c, 0, 76, 100
3, 90348, Note_off_c, 0, 76, 64
3, 90364, Note_on_c, 0, 75, 100
3, 90448, Note_off_c, 0, 75, 64
3, 90460, Note_on_c, 0, 76, 100
3, 90636, Note_off_c, 0, 76, 64
3, 91032, Note_on_c, 0, 76, 100
3, 91116, Note_off_c, 0, 76, 64
3, 91124, Note_on_c, 0, 78, 100
3, 91208, Note_off_c, 0, 78, 64
3, 91232, Note_on_c, 0, 79, 100
3, 91312, Note_off_c, 0, 79, 64
3, 91328, Note_on_c, 0, 78, 100
3, 91408, Note_off_c, 0, 78, 64
3, 91420, Note_on_c, 0, 76, 100
3, 91504, Note_off_c, 0, 76, 64
3, 91520, Note_on_c, 0, 74, 100
3, 91600, Note_off_c, 0, 74, 64
3, 91600, Note_on_c, 0, 73, 100
3, 91684, Note_off_c, 0, 73, 64
3, 91704, Note_on_c, 0, 76, 100
3, 91788, Note_off_c, 0, 76, 64
3, 91808, Note_on_c, 0, 69, 100
3, 91888, Note_off_c, 0, 69, 64
3, 91892, Note_on_c, 0, 71, 100
3, 91976, Note_off_c, 0, 71, 64
3, 91988, Note_on_c, 0, 73, 100
3, 92072, Note_off_c, 0, 73, 64
3, 92084, Note_on_c, 0, 74, 100
3, 92168, Note_off_c, 0, 74, 64
3, 92176, Note_on_c, 0, 76, 100
3, 92260, Note_off_c, 0, 76, 64
3, 92284, Note_on_c, 0, 74, 100
3, 92368, Note_off_c, 0, 74, 64
3, 92372, Note_on_c, 0, 73, 100
3, 92548, Note_off_c, 0, 73, 64
3, 92560, Note_on_c, 0, 81, 100
3, 92736, Note_off_c, 0, 81, 64
3, 92944, Note_on_c, 0, 80, 100
3, 93120, Note_off_c, 0, 80, 64
3, 93144, Note_on_c, 0, 81, 100
3, 93320, Note_off_c, 0, 81, 64
3, 93344, Note_on_c, 0, 76, 100
3, 93520, Note_off_c, 0, 76, 64
3, 93536, Note_on_c, 0, 69, 100
3, 93712, Note_off_c, 0, 69, 64
3, 93720, Note_on_c, 0, 71, 100
3, 93896, Note_off_c, 0, 71, 64
3, 93916, Note_on_c, 0, 73, 100
3, 94000, Note_off_c, 0, 73, 64
3, 94012, Note_on_c, 0, 74, 100
3, 94096, Note_off_c, 0, 74, 64
3, 94112, Note_on_c, 0, 76, 100
3, 94192, Note_off_c, 0, 76, 64
3, 94208, Note_on_c, 0, 74, 100
3, 94288, Note_off_c, 0, 74, 64
3, 94296, Note_on_c, 0, 73, 100
3, 94380, Note_off_c, 0, 73, 64
3, 94392, Note_on_c, 0, 76, 100
3, 94476, Note_off_c, 0, 76, 64
3, 94480, Note_on_c, 0, 81, 100
3, 94564, Note_off_c, 0, 81, 64
3, 94588, Note_on_c, 0, 79, 100
3, 94672, Note_off_c, 0, 79, 64
3, 94680, Note_on_c, 0, 78, 100
3, 94856, Note_off_c, 0, 78, 64
3, 94872, Note_on_c, 0, 86, 100
3, 94956, Note_off_c, 0, 86, 64
3, 94968, Note_on_c, 0, 85, 100
3, 95052, Note_off_c, 0, 85, 64
3, 95064, Note_on_c, 0, 86, 100
3, 95240, Note_off_c, 0, 86, 64
3, 95648, Note_on_c, 0, 86, 100
3, 95728, Note_off_c, 0, 86, 64
3, 95740, Note_on_c, 0, 85, 100
3, 95824, Note_off_c, 0, 85, 64
3, 95828, Note_on_c, 0, 86, 100
3, 96004, Note_off_c, 0, 86, 64
3, 96400, Note_on_c, 0, 86, 100
3, 96484, Note_off_c, 0, 86, 64
3, 96500, Note_on_c, 0, 85, 100
3, 96584, Note_off_c, 0, 85, 64
3, 96596, Note_on_c, 0, 86, 100
3, 96772, Note_off_c, 0, 86, 64
3, 97556, Note_on_c, 0, 74, 100
3, 97732, Note_off_c, 0, 74, 64
3, 97756, Note_on_c, 0, 71, 100
3, 97840, Note_off_c, 0, 71, 64
3, 97844, Note_on_c, 0, 74, 100
3, 97928, Note_off_c, 0, 74, 64
3, 97952, Note_on_c, 0, 67, 100
3, 98032, Note_off_c, 0, 67, 64
3, 98032, Note_on_c, 0, 69, 100
3, 98116, Note_off_c, 0, 69, 64
3, 98140, Note_on_c, 0, 71, 100
3, 98224, Note_off_c, 0, 71, 64
3, 98236, Note_on_c, 0, 72, 100
3, 98320, Note_off_c, 0, 72, 64
3, 98336, Note_on_c, 0, 74, 100
3, 98416, Note_off_c, 0, 74, 64
3, 98416, Note_on_c, 0, 72, 100
3, 98500, Note_off_c, 0, 72, 64
3, 98520, Note_on_c, 0, 71, 100
3, 98696, Note_off_c, 0, 71, 64
3, 98720, Note_on_c, 0, 79, 100
3, 98800, Note_off_c, 0, 79, 64
3, 98812, Note_on_c, 0, 78, 100
3, 98896, Note_off_c, 0, 78, 64
3, 98912, Note_on_c, 0, 79, 100
3, 99088, Note_off_c, 0, 79, 64
3, 99856, Note_on_c, 0, 79, 100
3, 99940, Note_off_c, 0, 79, 64
3, 99968, Note_on_c, 0, 78, 100
3, 100048, Note_off_c, 0, 78, 64
3, 100060, Note_on_c, 0, 79, 100
3, 100236, Note_off_c, 0, 79, 64
3, 100256, Note_on_c, 0, 74, 100
3, 100336, Note_off_c, 0, 74, 64
3, 100352, Note_on_c, 0, 72, 100
3, 100432, Note_off_c, 0, 72, 64
3, 100448, Note_on_c, 0, 74, 100
3, 100624, Note_off_c, 0, 74, 64
3, 101596, Note_on_c, 0, 85, 100
3, 101680, Note_off_c, 0, 85, 64
3, 101680, Note_on_c, 0, 83, 100
3, 101764, Note_off_c, 0, 83, 64
3, 101788, Note_on_c, 0, 85, 100
3, 101964, Note_off_c, 0, 85, 64
3, 102356, Note_on_c, 0, 85, 100
3, 102440, Note_off_c, 0, 85, 64
3, 102452, Note_on_c, 0, 83, 100
3, 102536, Note_off_c, 0, 83, 64
3, 102556, Note_on_c, 0, 85, 100
3, 102732, Note_off_c, 0, 85, 64
3, 103132, Note_on_c, 0, 82, 100
3, 103216, Note_off_c, 0, 82, 64
3, 103216, Note_on_c, 0, 80, 100
3, 103300, Note_off_c, 0, 80, 64
3, 103324, Note_on_c, 0, 82, 100
3, 103500, Note_off_c, 0, 82, 64
3, 103896, Note_on_c, 0, 82, 100
3, 103980, Note_off_c, 0, 82, 64
3, 103984, Note_on_c, 0, 80, 100
3, 104068, Note_off_c, 0, 80, 64
3, 104096, Note_on_c, 0, 82, 100
3, 104272, Note_off_c, 0, 82, 64
3, 104672, Note_on_c, 0, 85, 100
3, 104752, Note_off_c, 0, 85, 64
3, 104752, Note_on_c, 0, 83, 100
3, 104836, Note_off_c, 0, 83, 64
3, 104852, Note_on_c, 0, 85, 100
3, 105028, Note_off_c, 0, 85, 64
3, 105432, Note_on_c, 0, 82, 100
3, 105516, Note_off_c, 0, 82, 64
3, 105528, Note_on_c, 0, 80, 100
3, 105612, Note_off_c, 0, 80, 64
3, 105628, Note_on_c, 0, 82, 100
3, 105804, Note_off_c, 0, 82, 64
3, 106000, Note_on_c, 0, 83, 100
3, 106084, Note_off_c, 0, 83, 64
3, 106108, Note_on_c, 0, 82, 100
3, 106192, Note_off_c, 0, 82, 64
3, 106208, Note_on_c, 0, 83, 100
3, 106384, Note_off_c, 0, 83, 64
3, 106384, Note_on_c, 0, 78, 100
3, 106468, Note_off_c, 0, 78, 64
3, 106492, Note_on_c, 0, 76, 100
3, 106576, Note_off_c, 0, 76, 64
3, 106588, Note_on_c, 0, 78, 100
3, 106764, Note_off_c, 0, 78, 64
3, 106768, Note_on_c, 0, 83, 100
3, 106852, Note_off_c, 0, 83, 64
3, 106864, Note_on_c, 0, 82, 100
3, 106948, Note_off_c, 0, 82, 64
3, 106964, Note_on_c, 0, 83, 100
3, 107140, Note_off_c, 0, 83, 64
3, 107164, Note_on_c, 0, 71, 100
3, 107248, Note_off_c, 0, 71, 64
3, 107264, Note_on_c, 0, 70, 100
3, 107344, Note_off_c, 0, 70, 64
3, 107352, Note_on_c, 0, 71, 100
3, 107528, Note_off_c, 0, 71, 64
3, 107540, Note_on_c, 0, 83, 100
3, 107624, Note_off_c, 0, 83, 64
3, 107644, Note_on_c, 0, 82, 100
3, 107728, Note_off_c, 0, 82, 64
3, 107732, Note_on_c, 0, 83, 100
3, 107908, Note_off_c, 0, 83, 64
3, 107932, Note_on_c, 0, 71, 100
3, 108016, Note_off_c, 0, 71, 64
3, 108020, Note_on_c, 0, 73, 100
3, 108104, Note_off_c, 0, 73, 64
3, 108116, Note_on_c, 0, 74, 100
3, 108292, Note_off_c, 0, 74, 64
3, 108320, Note_on_c, 0, 76, 100
3, 108496, Note_off_c, 0, 76, 64
3, 108500, Note_on_c, 0, 78, 100
3, 108584, Note_off_c, 0, 78, 64
3, 108592, Note_on_c, 0, 76, 100
3, 108676, Note_off_c, 0, 76, 64
3, 108700, Note_on_c, 0, 78, 100
3, 108784, Note_off_c, 0, 78, 64
3, 108784, Note_on_c, 0, 79, 100
3, 108868, Note_off_c, 0, 79, 64
3, 108880, Note_on_c, 0, 78, 100
3, 108964, Note_off_c, 0, 78, 64
3, 108976, Note_on_c, 0, 76, 100
3, 109060, Note_off_c, 0, 76, 64
3, 109076, Note_on_c, 0, 74, 100
3, 109160, Note_off_c, 0, 74, 64
3, 109180, Note_on_c, 0, 73, 100
3, 109264, Note_off_c, 0, 73, 64
3, 109268, Note_on_c, 0, 74, 100
3, 109352, Note_off_c, 0, 74, 64
3, 109368, Note_on_c, 0, 76, 100
3, 109452, Note_off_c, 0, 76, 64
3, 109464, Note_on_c, 0, 74, 100
3, 109548, Note_off_c, 0, 74, 64
3, 109552, Note_on_c, 0, 76, 100
3, 109636, Note_off_c, 0, 76, 64
3, 109656, Note_on_c, 0, 76, 100
3, 109680, Note_off_c, 0, 76, 64
3, 109692, Note_on_c, 0, 78, 100
3, 109712, Note_off_c, 0, 78, 64
3, 109716, Note_on_c, 0, 76, 100
3, 109740, Note_off_c, 0, 76, 64
3, 109756, Note_on_c, 0, 78, 100
3, 109776, Note_off_c, 0, 78, 64
3, 109808, Note_on_c, 0, 76, 100
3, 109848, Note_off_c, 0, 76, 64
3, 109944, Note_on_c, 0, 74, 100
3, 109984, Note_off_c, 0, 74, 64
3, 109992, Note_on_c, 0, 76, 100
3, 110032, Note_off_c, 0, 76, 64
3, 110032, Note_on_c, 0, 78, 100
3, 110208, Note_off_c, 0, 78, 64
3, 110232, Note_on_c, 0, 83, 100
3, 110316, Note_off_c, 0, 83, 64
3, 110324, Note_on_c, 0, 82, 100
3, 110408, Note_off_c, 0, 82, 64
3, 110424, Note_on_c, 0, 83, 100
3, 110600, Note_off_c, 0, 83, 64
3, 110624, Note_on_c, 0, 78, 100
3, 110704, Note_off_c, 0, 78, 64
3, 110712, Note_on_c, 0, 76, 100
3, 110796, Note_off_c, 0, 76, 64
3, 110800, Note_on_c, 0, 74, 100
3, 110976, Note_off_c, 0, 74, 64
3, 111000, Note_on_c, 0, 73, 100
3, 111084, Note_off_c, 0, 73, 64
3, 111100, Note_on_c, 0, 71, 100
3, 111184, Note_off_c, 0, 71, 64
3, 111196, Note_on_c, 0, 73, 100
3, 111372, Note_off_c, 0, 73, 64
3, 111392, Note_on_c, 0, 71, 100
3, 111472, Note_off_c, 0, 71, 64
3, 111488, Note_on_c, 0, 70, 100
3, 111568, Note_off_c, 0, 70, 64
3, 111572, Note_on_c, 0, 79, 100
3, 111840, Note_off_c, 0, 79, 64
3, 111872, Note_on_c, 0, 78, 100
3, 111952, Note_off_c, 0, 78, 64
3, 111964, Note_on_c, 0, 76, 100
3, 112048, Note_off_c, 0, 76, 64
3, 112060, Note_on_c, 0, 74, 100
3, 112144, Note_off_c, 0, 74, 64
3, 112160, Note_on_c, 0, 73, 100
3, 112240, Note_off_c, 0, 73, 64
3, 112252, Note_on_c, 0, 71, 100
3, 112336, Note_off_c, 0, 71, 64
3, 112352, Note_on_c, 0, 78, 100
3, 112620, Note_off_c, 0, 78, 64
3, 112640, Note_on_c, 0, 79, 100
3, 112720, Note_off_c, 0, 79, 64
3, 112736, Note_on_c, 0, 73, 100
3, 113004, Note_off_c, 0, 73, 64
3, 113016, Note_on_c, 0, 71, 100
3, 113100, Note_off_c, 0, 71, 64
3, 113112, Note_on_c, 0, 71, 100
3, 113472, Note_off_c, 0, 71, 64
3, 114832, Note_on_c, 0, 74, 100
3, 114916, Note_off_c, 0, 74, 64
3, 114932, Note_on_c, 0, 73, 100
3, 115016, Note_off_c, 0, 73, 64
3, 115040, Note_on_c, 0, 74, 100
3, 115216, Note_off_c, 0, 74, 64
3, 115224, Note_on_c, 0, 78, 100
3, 115308, Note_off_c, 0, 78, 64
3, 115312, Note_on_c, 0, 76, 100
3, 115396, Note_off_c, 0, 76, 64
3, 115408, Note_on_c, 0, 78, 100
3, 115584, Note_off_c, 0, 78, 64
3, 115612, Note_on_c, 0, 78, 100
3, 115788, Note_off_c, 0, 78, 64
3, 115804, Note_on_c, 0, 78, 100
3, 115980, Note_off_c, 0, 78, 64
3, 115984, Note_on_c, 0, 76, 100
3, 116068, Note_off_c, 0, 76, 64
3, 116080, Note_on_c, 0, 74, 100
3, 116164, Note_off_c, 0, 74, 64
3, 116180, Note_on_c, 0, 76, 100
3, 116356, Note_off_c, 0, 76, 64
3, 116380, Note_on_c, 0, 76, 100
3, 116556, Note_off_c, 0, 76, 64
3, 116576, Note_on_c, 0, 76, 100
3, 116752, Note_off_c, 0, 76, 64
3, 116752, Note_on_c, 0, 74, 100
3, 116836, Note_off_c, 0, 74, 64
3, 116848, Note_on_c, 0, 73, 100
3, 116932, Note_off_c, 0, 73, 64
3, 116944, Note_on_c, 0, 74, 100
3, 117216, Note_off_c, 0, 74, 64
3, 117236, Note_on_c, 0, 73, 100
3, 117320, Note_off_c, 0, 73, 64
3, 117328, Note_on_c, 0, 73, 100
3, 117352, Note_off_c, 0, 73, 64
3, 117376, Note_on_c, 0, 74, 100
3, 117396, Note_off_c, 0, 74, 64
3, 117404, Note_on_c, 0, 73, 100
3, 117424, Note_off_c, 0, 73, 64
3, 117424, Note_on_c, 0, 74, 100
3, 117448, Note_off_c, 0, 74, 64
3, 117488, Note_on_c, 0, 73, 100
3, 117572, Note_off_c, 0, 73, 64
3, 117628, Note_on_c, 0, 71, 100
3, 117712, Note_off_c, 0, 71, 64
3, 117720, Note_on_c, 0, 71, 100
3, 118080, Note_off_c, 0, 71, 64
3, 118480, Note_on_c, 0, 67, 100
3, 118844, Note_off_c, 0, 67, 64
3, 118868, Note_on_c, 0, 71, 100
3, 119232, Note_off_c, 0, 71, 64
3, 119252, Note_on_c, 0, 74, 100
3, 119616, Note_off_c, 0, 74, 64
3, 119836, Note_on_c, 0, 74, 100
3, 120012, Note_off_c, 0, 74, 64
3, 120028, Note_on_c, 0, 71, 100
3, 120204, Note_off_c, 0, 71, 64
3, 120208, Note_on_c, 0, 74, 100
3, 120384, Note_off_c, 0, 74, 64
3, 120416, Note_on_c, 0, 79, 100
3, 120496, Note_off_c, 0, 79, 64
3, 120496, Note_on_c, 0, 83, 100
3, 120580, Note_off_c, 0, 83, 64
3, 120604, Note_on_c, 0, 81, 100
3, 120688, Note_off_c, 0, 81, 64
3, 120696, Note_on_c, 0, 79, 100
3, 120780, Note_off_c, 0, 79, 64
3, 120800, Note_on_c, 0, 78, 100
3, 120880, Note_off_c, 0, 78, 64
3, 120888, Note_on_c, 0, 79, 100
3, 120972, Note_off_c, 0, 79, 64
3, 120980, Note_on_c, 0, 81, 100
3, 121064, Note_off_c, 0, 81, 64
3, 121076, Note_on_c, 0, 79, 100
3, 121160, Note_off_c, 0, 79, 64
3, 121180, Note_on_c, 0, 78, 100
3, 121264, Note_off_c, 0, 78, 64
3, 121268, Note_on_c, 0, 76, 100
3, 121352, Note_off_c, 0, 76, 64
3, 121368, Note_on_c, 0, 74, 100
3, 121452, Note_off_c, 0, 74, 64
3, 121468, Note_on_c, 0, 73, 100
3, 121552, Note_off_c, 0, 73, 64
3, 121552, Note_on_c, 0, 74, 100
3, 121728, Note_off_c, 0, 74, 64
3, 121760, Note_on_c, 0, 69, 100
3, 121840, Note_off_c, 0, 69, 64
3, 121852, Note_on_c, 0, 67, 100
3, 121936, Note_off_c, 0, 67, 64
3, 121936, Note_on_c, 0, 69, 100
3, 122112, Note_off_c, 0, 69, 64
3, 122136, Note_on_c, 0, 74, 100
3, 122220, Note_off_c, 0, 74, 64
3, 122236, Note_on_c, 0, 73, 100
3, 122320, Note_off_c, 0, 73, 64
3, 122336, Note_on_c, 0, 74, 100
3, 122512, Note_off_c, 0, 74, 64
3, 122524, Note_on_c, 0, 66, 100
3, 122608, Note_off_c, 0, 66, 64
3, 122620, Note_on_c, 0, 64, 100
3, 122704, Note_off_c, 0, 64, 64
3, 122716, Note_on_c, 0, 66, 100
3, 122892, Note_off_c, 0, 66, 64
3, 122912, Note_on_c, 0, 74, 100
3, 122992, Note_off_c, 0, 74, 64
3, 123004, Note_on_c, 0, 73, 100
3, 123088, Note_off_c, 0, 73, 64
3, 123092, Note_on_c, 0, 74, 100
3, 123268, Note_off_c, 0, 74, 64
3, 123288, Note_on_c, 0, 62, 100
3, 123372, Note_off_c, 0, 62, 64
3, 123380, Note_on_c, 0, 64, 100
3, 123464, Note_off_c, 0, 64, 64
3, 123480, Note_on_c, 0, 66, 100
3, 123656, Note_off_c, 0, 66, 64
3, 123676, Note_on_c, 0, 68, 100
3, 123852, Note_off_c, 0, 68, 64
3, 123860, Note_on_c, 0, 69, 100
3, 124224, Note_off_c, 0, 69, 64
3, 124440, Note_on_c, 0, 73, 100
3, 124616, Note_off_c, 0, 73, 64
3, 124632, Note_on_c, 0, 74, 100
3, 124716, Note_off_c, 0, 74, 64
3, 124736, Note_on_c, 0, 73, 100
3, 124816, Note_off_c, 0, 73, 64
3, 124828, Note_on_c, 0, 74, 100
3, 124912, Note_off_c, 0, 74, 64
3, 124924, Note_on_c, 0, 76, 100
3, 125008, Note_off_c, 0, 76, 64
3, 125020, Note_on_c, 0, 74, 100
3, 125104, Note_off_c, 0, 74, 64
3, 125112, Note_on_c, 0, 78, 100
3, 125196, Note_off_c, 0, 78, 64
3, 125212, Note_on_c, 0, 73, 100
3, 125296, Note_off_c, 0, 73, 64
3, 125308, Note_on_c, 0, 76, 100
3, 125392, Note_off_c, 0, 76, 64
3, 125408, Note_on_c, 0, 74, 100
3, 125488, Note_off_c, 0, 74, 64
3, 125492, Note_on_c, 0, 76, 100
3, 125576, Note_off_c, 0, 76, 64
3, 125596, Note_on_c, 0, 78, 100
3, 125680, Note_off_c, 0, 78, 64
3, 125696, Note_on_c, 0, 76, 100
3, 125776, Note_off_c, 0, 76, 64
3, 125784, Note_on_c, 0, 74, 100
3, 125868, Note_off_c, 0, 74, 64
3, 125888, Note_on_c, 0, 72, 100
3, 125968, Note_off_c, 0, 72, 64
3, 125976, Note_on_c, 0, 71, 100
3, 126060, Note_off_c, 0, 71, 64
3, 126072, Note_on_c, 0, 69, 100
3, 126156, Note_off_c, 0, 69, 64
3, 126168, Note_on_c, 0, 71, 100
3, 126252, Note_off_c, 0, 71, 64
3, 126272, Note_on_c, 0, 69, 100
3, 126352, Note_off_c, 0, 69, 64
3, 126368, Note_on_c, 0, 71, 100
3, 126448, Note_off_c, 0, 71, 64
3, 126448, Note_on_c, 0, 72, 100
3, 126532, Note_off_c, 0, 72, 64
3, 126548, Note_on_c, 0, 71, 100
3, 126632, Note_off_c, 0, 71, 64
3, 126644, Note_on_c, 0, 74, 100
3, 126728, Note_off_c, 0, 74, 64
3, 126748, Note_on_c, 0, 69, 100
3, 126832, Note_off_c, 0, 69, 64
3, 126848, Note_on_c, 0, 72, 100
3, 126928, Note_off_c, 0, 72, 64
3, 126940, Note_on_c, 0, 71, 100
3, 127024, Note_off_c, 0, 71, 64
3, 127024, Note_on_c, 0, 72, 100
3, 127108, Note_off_c, 0, 72, 64
3, 127132, Note_on_c, 0, 74, 100
3, 127216, Note_off_c, 0, 74, 64
3, 127216, Note_on_c, 0, 72, 100
3, 127300, Note_off_c, 0, 72, 64
3, 127320, Note_on_c, 0, 71, 100
3, 127404, Note_off_c, 0, 71, 64
3, 127416, Note_on_c, 0, 69, 100
3, 127500, Note_off_c, 0, 69, 64
3, 127512, Note_on_c, 0, 67, 100
3, 127596, Note_off_c, 0, 67, 64
3, 127600, Note_on_c, 0, 66, 100
3, 127684, Note_off_c, 0, 66, 64
3, 127712, Note_on_c, 0, 67, 100
3, 127792, Note_off_c, 0, 67, 64
3, 127792, Note_on_c, 0, 66, 100
3, 127876, Note_off_c, 0, 66, 64
3, 127900, Note_on_c, 0, 67, 100
3, 127984, Note_off_c, 0, 67, 64
3, 127984, Note_on_c, 0, 69, 100
3, 128068, Note_off_c, 0, 69, 64
3, 128080, Note_on_c, 0, 67, 100
3, 128164, Note_off_c, 0, 67, 64
3, 128188, Note_on_c, 0, 71, 100
3, 128272, Note_off_c, 0, 71, 64
3, 128276, Note_on_c, 0, 66, 100
3, 128360, Note_off_c, 0, 66, 64
3, 128372, Note_on_c, 0, 69, 100
3, 128456, Note_off_c, 0, 69, 64
3, 128476, Note_on_c, 0, 67, 100
3, 128560, Note_off_c, 0, 67, 64
3, 128568, Note_on_c, 0, 69, 100
3, 128652, Note_off_c, 0, 69, 64
3, 128664, Note_on_c, 0, 71, 100
3, 128748, Note_off_c, 0, 71, 64
3, 128756, Note_on_c, 0, 69, 100
3, 128840, Note_off_c, 0, 69, 64
3, 128860, Note_on_c, 0, 67, 100
3, 128944, Note_off_c, 0, 67, 64
3, 128944, Note_on_c, 0, 66, 100
3, 129028, Note_off_c, 0, 66, 64
3, 129048, Note_on_c, 0, 64, 100
3, 129132, Note_off_c, 0, 64, 64
3, 129144, Note_on_c, 0, 62, 100
3, 129228, Note_off_c, 0, 62, 64
3, 129248, Note_on_c, 0, 64, 100
3, 129328, Note_off_c, 0, 64, 64
3, 129336, Note_on_c, 0, 67, 100
3, 129420, Note_off_c, 0, 67, 64
3, 129424, Note_on_c, 0, 66, 100
3, 129508, Note_off_c, 0, 66, 64
3, 129524, Note_on_c, 0, 69, 100
3, 129608, Note_off_c, 0, 69, 64
3, 129620, Note_on_c, 0, 67, 100
3, 129704, Note_off_c, 0, 67, 64
3, 129712, Note_on_c, 0, 71, 100
3, 129796, Note_off_c, 0, 71, 64
3, 129824, Note_on_c, 0, 69, 100
3, 129904, Note_off_c, 0, 69, 64
3, 129916, Note_on_c, 0, 67, 100
3, 130000, Note_off_c, 0, 67, 64
3, 130016, Note_on_c, 0, 66, 100
3, 130096, Note_off_c, 0, 66, 64
3, 130108, Note_on_c, 0, 67, 100
3, 130192, Note_off_c, 0, 67, 64
3, 130204, Note_on_c, 0, 69, 100
3, 130288, Note_off_c, 0, 69, 64
3, 130296, Note_on_c, 0, 71, 100
3, 130380, Note_off_c, 0, 71, 64
3, 130396, Note_on_c, 0, 72, 100
3, 130480, Note_off_c, 0, 72, 64
3, 130492, Note_on_c, 0, 74, 100
3, 130576, Note_off_c, 0, 74, 64
3, 130592, Note_on_c, 0, 72, 100
3, 130672, Note_off_c, 0, 72, 64
3, 130680, Note_on_c, 0, 74, 100
3, 130764, Note_off_c, 0, 74, 64
3, 130772, Note_on_c, 0, 71, 100
3, 130856, Note_off_c, 0, 71, 64
3, 130864, Note_on_c, 0, 79, 100
3, 130948, Note_off_c, 0, 79, 64
3, 130976, Note_on_c, 0, 78, 100
3, 131056, Note_off_c, 0, 78, 64
3, 131072, Note_on_c, 0, 76, 100
3, 131152, Note_off_c, 0, 76, 64
3, 131160, Note_on_c, 0, 74, 100
3, 131244, Note_off_c, 0, 74, 64
3, 131248, Note_on_c, 0, 72, 100
3, 131332, Note_off_c, 0, 72, 64
3, 131360, Note_on_c, 0, 71, 100
3, 131440, Note_off_c, 0, 71, 64
3, 131452, Note_on_c, 0, 69, 100
3, 131536, Note_off_c, 0, 69, 64
3, 131536, Note_on_c, 0, 67, 100
3, 131620, Note_off_c, 0, 67, 64
3, 131640, Note_on_c, 0, 64, 100
3, 131724, Note_off_c, 0, 64, 64
3, 131744, Note_on_c, 0, 62, 100
3, 131824, Note_off_c, 0, 62, 64
3, 131824, Note_on_c, 0, 60, 100
3, 131908, Note_off_c, 0, 60, 64
3, 131920, Note_on_c, 0, 59, 100
3, 132004, Note_off_c, 0, 59, 64
3, 132020, Note_on_c, 0, 57, 100
3, 132104, Note_off_c, 0, 57, 64
3, 132112, Note_on_c, 0, 55, 100
3, 132196, Note_off_c, 0, 55, 64
3, 132216, Note_on_c, 0, 57, 100
3, 132300, Note_off_c, 0, 57, 64
3, 132304, Note_on_c, 0, 59, 100
3, 132388, Note_off_c, 0, 59, 64
3, 132412, Note_on_c, 0, 60, 100
3, 132496, Note_off_c, 0, 60, 64
3, 132504, Note_on_c, 0, 59, 100
3, 132588, Note_off_c, 0, 59, 64
3, 132604, Note_on_c, 0, 57, 100
3, 132688, Note_off_c, 0, 57, 64
3, 132700, Note_on_c, 0, 55, 100
3, 132876, Note_off_c, 0, 55, 64
3, 132896, Note_on_c, 0, 79, 100
3, 133072, Note_off_c, 0, 79, 64
3, 133084, Note_on_c, 0, 78, 100
3, 133168, Note_off_c, 0, 78, 64
3, 133172, Note_on_c, 0, 74, 100
3, 133256, Note_off_c, 0, 74, 64
3, 133280, Note_on_c, 0, 78, 100
3, 133360, Note_off_c, 0, 78, 64
3, 133364, Note_on_c, 0, 74, 100
3, 133448, Note_off_c, 0, 74, 64
3, 133472, Note_on_c, 0, 78, 100
3, 133552, Note_off_c, 0, 78, 64
3, 133564, Note_on_c, 0, 74, 100
3, 133648, Note_off_c, 0, 74, 64
3, 133652, Note_on_c, 0, 78, 100
3, 133736, Note_off_c, 0, 78, 64
3, 133744, Note_on_c, 0, 74, 100
3, 133828, Note_off_c, 0, 74, 64
3, 133844, Note_on_c, 0, 77, 100
3, 133928, Note_off_c, 0, 77, 64
3, 133936, Note_on_c, 0, 74, 100
3, 134020, Note_off_c, 0, 74, 64
3, 134040, Note_on_c, 0, 77, 100
3, 134124, Note_off_c, 0, 77, 64
3, 134128, Note_on_c, 0, 74, 100
3, 134212, Note_off_c, 0, 74, 64
3, 134240, Note_on_c, 0, 77, 100
3, 134320, Note_off_c, 0, 77, 64
3, 134320, Note_on_c, 0, 74, 100
3, 134404, Note_off_c, 0, 74, 64
3, 134420, Note_on_c, 0, 77, 100
3, 134504, Note_off_c, 0, 77, 64
3, 134516, Note_on_c, 0, 74, 100
3, 134600, Note_off_c, 0, 74, 64
3, 134608, Note_on_c, 0, 76, 100
3, 134692, Note_off_c, 0, 76, 64
3, 134704, Note_on_c, 0, 72, 100
3, 134788, Note_off_c, 0, 72, 64
3, 134800, Note_on_c, 0, 76, 100
3, 134884, Note_off_c, 0, 76, 64
3, 134908, Note_on_c, 0, 72, 100
3, 134992, Note_off_c, 0, 72, 64
3, 135004, Note_on_c, 0, 76, 100
3, 135088, Note_off_c, 0, 76, 64
3, 135104, Note_on_c, 0, 72, 100
3, 135184, Note_off_c, 0, 72, 64
3, 135184, Note_on_c, 0, 76, 100
3, 135268, Note_off_c, 0, 76, 64
3, 135288, Note_on_c, 0, 72, 100
3, 135372, Note_off_c, 0, 72, 64
3, 135384, Note_on_c, 0, 76, 100
3, 135468, Note_off_c, 0, 76, 64
3, 135488, Note_on_c, 0, 73, 100
3, 135568, Note_off_c, 0, 73, 64
3, 135576, Note_on_c, 0, 76, 100
3, 135660, Note_off_c, 0, 76, 64
3, 135672, Note_on_c, 0, 73, 100
3, 135756, Note_off_c, 0, 73, 64
3, 135772, Note_on_c, 0, 76, 100
3, 135856, Note_off_c, 0, 76, 64
3, 135860, Note_on_c, 0, 73, 100
3, 135944, Note_off_c, 0, 73, 64
3, 135960, Note_on_c, 0, 76, 100
3, 136044, Note_off_c, 0, 76, 64
3, 136048, Note_on_c, 0, 73, 100
3, 136132, Note_off_c, 0, 73, 64
3, 136160, Note_on_c, 0, 75, 100
3, 136240, Note_off_c, 0, 75, 64
3, 136256, Note_on_c, 0, 71, 100
3, 136336, Note_off_c, 0, 71, 64
3, 136352, Note_on_c, 0, 75, 100
3, 136432, Note_off_c, 0, 75, 64
3, 136432, Note_on_c, 0, 71, 100
3, 136516, Note_off_c, 0, 71, 64
3, 136536, Note_on_c, 0, 75, 100
3, 136620, Note_off_c, 0, 75, 64
3, 136636, Note_on_c, 0, 71, 100
3, 136720, Note_off_c, 0, 71, 64
3, 136732, Note_on_c, 0, 75, 100
3, 136816, Note_off_c, 0, 75, 64
3, 136828, Note_on_c, 0, 71, 100
3, 136912, Note_off_c, 0, 71, 64
3, 136916, Note_on_c, 0, 74, 100
3, 137000, Note_off_c, 0, 74, 64
3, 137024, Note_on_c, 0, 71, 100
3, 137104, Note_off_c, 0, 71, 64
3, 137116, Note_on_c, 0, 74, 100
3, 137200, Note_off_c, 0, 74, 64
3, 137200, Note_on_c, 0, 71, 100
3, 137284, Note_off_c, 0, 71, 64
3, 137304, Note_on_c, 0, 74, 100
3, 137388, Note_off_c, 0, 74, 64
3, 137392, Note_on_c, 0, 71, 100
3, 137476, Note_off_c, 0, 71, 64
3, 137496, Note_on_c, 0, 74, 100
3, 137580, Note_off_c, 0, 74, 64
3, 137596, Note_on_c, 0, 71, 100
3, 137680, Note_off_c, 0, 71, 64
3, 137692, Note_on_c, 0, 72, 100
3, 137776, Note_off_c, 0, 72, 64
3, 137776, Note_on_c, 0, 69, 100
3, 137860, Note_off_c, 0, 69, 64
3, 137884, Note_on_c, 0, 72, 100
3, 137968, Note_off_c, 0, 72, 64
3, 137976, Note_on_c, 0, 69, 100
3, 138060, Note_off_c, 0, 69, 64
3, 138080, Note_on_c, 0, 72, 100
3, 138160, Note_off_c, 0, 72, 64
3, 138176, Note_on_c, 0, 69, 100
3, 138256, Note_off_c, 0, 69, 64
3, 138268, Note_on_c, 0, 72, 100
3, 138352, Note_off_c, 0, 72, 64
3, 138356, Note_on_c, 0, 69, 100
3, 138440, Note_off_c, 0, 69, 64
3, 138452, Note_on_c, 0, 70, 100
3, 138536, Note_off_c, 0, 70, 64
3, 138552, Note_on_c, 0, 69, 100
3, 138636, Note_off_c, 0, 69, 64
3, 138640, Note_on_c, 0, 70, 100
3, 138724, Note_off_c, 0, 70, 64
3, 138748, Note_on_c, 0, 77, 100
3, 138832, Note_off_c, 0, 77, 64
3, 138832, Note_on_c, 0, 74, 100
3, 138916, Note_off_c, 0, 74, 64
3, 138940, Note_on_c, 0, 70, 100
3, 139024, Note_off_c, 0, 70, 64
3, 139036, Note_on_c, 0, 65, 100
3, 139120, Note_off_c, 0, 65, 64
3, 139124, Note_on_c, 0, 62, 100
3, 139208, Note_off_c, 0, 62, 64
3, 139216, Note_on_c, 0, 70, 100
3, 139300, Note_off_c, 0, 70, 64
3, 139312, Note_on_c, 0, 69, 100
3, 139396, Note_off_c, 0, 69, 64
3, 139420, Note_on_c, 0, 70, 100
3, 139504, Note_off_c, 0, 70, 64
3, 139504, Note_on_c, 0, 77, 100
3, 139588, Note_off_c, 0, 77, 64
3, 139604, Note_on_c, 0, 74, 100
3, 139688, Note_off_c, 0, 74, 64
3, 139708, Note_on_c, 0, 70, 100
3, 139792, Note_off_c, 0, 70, 64
3, 139804, Note_on_c, 0, 65, 100
3, 139888, Note_off_c, 0, 65, 64
3, 139896, Note_on_c, 0, 62, 100
3, 139980, Note_off_c, 0, 62, 64
3, 140000, Note_on_c, 0, 72, 100
3, 140080, Note_off_c, 0, 72, 64
3, 140092, Note_on_c, 0, 71, 100
3, 140176, Note_off_c, 0, 71, 64
3, 140180, Note_on_c, 0, 72, 100
3, 140264, Note_off_c, 0, 72, 64
3, 140280, Note_on_c, 0, 78, 100
3, 140364, Note_off_c, 0, 78, 64
3, 140384, Note_on_c, 0, 72, 100
3, 140464, Note_off_c, 0, 72, 64
3, 140464, Note_on_c, 0, 69, 100
3, 140548, Note_off_c, 0, 69, 64
3, 140560, Note_on_c, 0, 66, 100
3, 140644, Note_off_c, 0, 66, 64
3, 140656, Note_on_c, 0, 63, 100
3, 140740, Note_off_c, 0, 63, 64
3, 140752, Note_on_c, 0, 72, 100
3, 140836, Note_off_c, 0, 72, 64
3, 140864, Note_on_c, 0, 71, 100
3, 140944, Note_off_c, 0, 71, 64
3, 140948, Note_on_c, 0, 72, 100
3, 141032, Note_off_c, 0, 72, 64
3, 141044, Note_on_c, 0, 78, 100
3, 141128, Note_off_c, 0, 78, 64
3, 141152, Note_on_c, 0, 72, 100
3, 141232, Note_off_c, 0, 72, 64
3, 141232, Note_on_c, 0, 69, 100
3, 141316, Note_off_c, 0, 69, 64
3, 141344, Note_on_c, 0, 66, 100
3, 141424, Note_off_c, 0, 66, 64
3, 141428, Note_on_c, 0, 63, 100
3, 141512, Note_off_c, 0, 63, 64
3, 141536, Note_on_c, 0, 74, 100
3, 141616, Note_off_c, 0, 74, 64
3, 141620, Note_on_c, 0, 72, 100
3, 141704, Note_off_c, 0, 72, 64
3, 141716, Note_on_c, 0, 74, 100
3, 141800, Note_off_c, 0, 74, 64
3, 141812, Note_on_c, 0, 80, 100
3, 141896, Note_off_c, 0, 80, 64
3, 141908, Note_on_c, 0, 74, 100
3, 141992, Note_off_c, 0, 74, 64
3, 142016, Note_on_c, 0, 71, 100
3, 142096, Note_off_c, 0, 71, 64
3, 142112, Note_on_c, 0, 68, 100
3, 142192, Note_off_c, 0, 68, 64
3, 142208, Note_on_c, 0, 64, 100
3, 142288, Note_off_c, 0, 64, 64
3, 142304, Note_on_c, 0, 74, 100
3, 142384, Note_off_c, 0, 74, 64
3, 142396, Note_on_c, 0, 72, 100
3, 142480, Note_off_c, 0, 72, 64
3, 142480, Note_on_c, 0, 74, 100
3, 142564, Note_off_c, 0, 74, 64
3, 142576, Note_on_c, 0, 80, 100
3, 142660, Note_off_c, 0, 80, 64
3, 142672, Note_on_c, 0, 74, 100
3, 142756, Note_off_c, 0, 74, 64
3, 142772, Note_on_c, 0, 71, 100
3, 142856, Note_off_c, 0, 71, 64
3, 142872, Note_on_c, 0, 68, 100
3, 142956, Note_off_c, 0, 68, 64
3, 142960, Note_on_c, 0, 64, 100
3, 143044, Note_off_c, 0, 64, 64
3, 143072, Note_on_c, 0, 72, 100
3, 143152, Note_off_c, 0, 72, 64
3, 143164, Note_on_c, 0, 71, 100
3, 143248, Note_off_c, 0, 71, 64
3, 143256, Note_on_c, 0, 72, 100
3, 143340, Note_off_c, 0, 72, 64
3, 143360, Note_on_c, 0, 81, 100
3, 143440, Note_off_c, 0, 81, 64
3, 143448, Note_on_c, 0, 78, 100
3, 143532, Note_off_c, 0, 78, 64
3, 143548, Note_on_c, 0, 72, 100
3, 143632, Note_off_c, 0, 72, 64
3, 143648, Note_on_c, 0, 69, 100
3, 143728, Note_off_c, 0, 69, 64
3, 143744, Note_on_c, 0, 63, 100
3, 143824, Note_off_c, 0, 63, 64
3, 143840, Note_on_c, 0, 72, 100
3, 143920, Note_off_c, 0, 72, 64
3, 143936, Note_on_c, 0, 71, 100
3, 144016, Note_off_c, 0, 71, 64
3, 144016, Note_on_c, 0, 72, 100
3, 144100, Note_off_c, 0, 72, 64
3, 144116, Note_on_c, 0, 81, 100
3, 144200, Note_off_c, 0, 81, 64
3, 144212, Note_on_c, 0, 78, 100
3, 144296, Note_off_c, 0, 78, 64
3, 144304, Note_on_c, 0, 72, 100
3, 144388, Note_off_c, 0, 72, 64
3, 144416, Note_on_c, 0, 69, 100
3, 144496, Note_off_c, 0, 69, 64
3, 144508, Note_on_c, 0, 63, 100
3, 144592, Note_off_c, 0, 63, 64
3, 144604, Note_on_c, 0, 71, 100
3, 144688, Note_off_c, 0, 71, 64
3, 144688, Note_on_c, 0, 69, 100
3, 144772, Note_off_c, 0, 69, 64
3, 144796, Note_on_c, 0, 71, 100
3, 144880, Note_off_c, 0, 71, 64
3, 144896, Note_on_c, 0, 81, 100
3, 144976, Note_off_c, 0, 81, 64
3, 144988, Note_on_c, 0, 77, 100
3, 145072, Note_off_c, 0, 77, 64
3, 145088, Note_on_c, 0, 74, 100
3, 145168, Note_off_c, 0, 74, 64
3, 145168, Note_on_c, 0, 71, 100
3, 145252, Note_off_c, 0, 71, 64
3, 145276, Note_on_c, 0, 64, 100
3, 145360, Note_off_c, 0, 64, 64
3, 145364, Note_on_c, 0, 71, 100
3, 145448, Note_off_c, 0, 71, 64
3, 145468, Note_on_c, 0, 69, 100
3, 145552, Note_off_c, 0, 69, 64
3, 145568, Note_on_c, 0, 71, 100
3, 145648, Note_off_c, 0, 71, 64
3, 145664, Note_on_c, 0, 81, 100
3, 145744, Note_off_c, 0, 81, 64
3, 145744, Note_on_c, 0, 77, 100
3, 145828, Note_off_c, 0, 77, 64
3, 145852, Note_on_c, 0, 74, 100
3, 145936, Note_off_c, 0, 74, 64
3, 145944, Note_on_c, 0, 71, 100
3, 146028, Note_off_c, 0, 71, 64
3, 146032, Note_on_c, 0, 64, 100
3, 146116, Note_off_c, 0, 64, 64
3, 146132, Note_on_c, 0, 71, 100
3, 146216, Note_off_c, 0, 71, 64
3, 146232, Note_on_c, 0, 69, 100
3, 146316, Note_off_c, 0, 69, 64
3, 146320, Note_on_c, 0, 71, 100
3, 146404, Note_off_c, 0, 71, 64
3, 146432, Note_on_c, 0, 80, 100
3, 146512, Note_off_c, 0, 80, 64
3, 146520, Note_on_c, 0, 74, 100
3, 146604, Note_off_c, 0, 74, 64
3, 146612, Note_on_c, 0, 71, 100
3, 146696, Note_off_c, 0, 71, 64
3, 146716, Note_on_c, 0, 68, 100
3, 146800, Note_off_c, 0, 68, 64
3, 146816, Note_on_c, 0, 64, 100
3, 146896, Note_off_c, 0, 64, 64
3, 146900, Note_on_c, 0, 71, 100
3, 146984, Note_off_c, 0, 71, 64
3, 146992, Note_on_c, 0, 69, 100
3, 147076, Note_off_c, 0, 69, 64
3, 147100, Note_on_c, 0, 71, 100
3, 147184, Note_off_c, 0, 71, 64
3, 147188, Note_on_c, 0, 80, 100
3, 147272, Note_off_c, 0, 80, 64
3, 147288, Note_on_c, 0, 74, 100
3, 147372, Note_off_c, 0, 74, 64
3, 147392, Note_on_c, 0, 71, 100
3, 147472, Note_off_c, 0, 71, 64
3, 147488, Note_on_c, 0, 64, 100
3, 147568, Note_off_c, 0, 64, 64
3, 147572, Note_on_c, 0, 80, 100
3, 147656, Note_off_c, 0, 80, 64
3, 147672, Note_on_c, 0, 81, 100
3, 147848, Note_off_c, 0, 81, 64
3, 147872, Note_on_c, 0, 77, 100
3, 147952, Note_off_c, 0, 77, 64
3, 147968, Note_on_c, 0, 76, 100
3, 148048, Note_off_c, 0, 76, 64
3, 148060, Note_on_c, 0, 77, 100
3, 148236, Note_off_c, 0, 77, 64
3, 149012, Note_on_c, 0, 84, 100
3, 149188, Note_off_c, 0, 84, 64
3, 149216, Note_on_c, 0, 83, 100
3, 149392, Note_off_c, 0, 83, 64
3, 149396, Note_on_c, 0, 76, 100
3, 149480, Note_off_c, 0, 76, 64
3, 149492, Note_on_c, 0, 74, 100
3, 149576, Note_off_c, 0, 74, 64
3, 149584, Note_on_c, 0, 76, 100
3, 149760, Note_off_c, 0, 76, 64
3, 150552, Note_on_c, 0, 83, 100
3, 150728, Note_off_c, 0, 83, 64
3, 150740, Note_on_c, 0, 81, 100
3, 150916, Note_off_c, 0, 81, 64
3, 150928, Note_on_c, 0, 74, 100
3, 151012, Note_off_c, 0, 74, 64
3, 151028, Note_on_c, 0, 73, 100
3, 151112, Note_off_c, 0, 73, 64
3, 151136, Note_on_c, 0, 74, 100
3, 151312, Note_off_c, 0, 74, 64
3, 152084, Note_on_c, 0, 81, 100
3, 152260, Note_off_c, 0, 81, 64
3, 152288, Note_on_c, 0, 80, 100
3, 152464, Note_off_c, 0, 80, 64
3, 152464, Note_on_c, 0, 74, 100
3, 152548, Note_off_c, 0, 74, 64
3, 152576, Note_on_c, 0, 72, 100
3, 152656, Note_off_c, 0, 72, 64
3, 152672, Note_on_c, 0, 74, 100
3, 152848, Note_off_c, 0, 74, 64
3, 152856, Note_on_c, 0, 71, 100
3, 152940, Note_off_c, 0, 71, 64
3, 152948, Note_on_c, 0, 69, 100
3, 153032, Note_off_c, 0, 69, 64
3, 153052, Note_on_c, 0, 71, 100
3, 153228, Note_off_c, 0, 71, 64
3, 153240, Note_on_c, 0, 68, 100
3, 153324, Note_off_c, 0, 68, 64
3, 153340, Note_on_c, 0, 66, 100
3, 153424, Note_off_c, 0, 66, 64
3, 153432, Note_on_c, 0, 68, 100
3, 153608, Note_off_c, 0, 68, 64
3, 153616, Note_on_c, 0, 76, 100
3, 153792, Note_off_c, 0, 76, 64
3, 153824, Note_on_c, 0, 69, 100
3, 154092, Note_off_c, 0, 69, 64
3, 154096, Note_on_c, 0, 71, 100
3, 154180, Note_off_c, 0, 71, 64
3, 154196, Note_on_c, 0, 71, 100
3, 154464, Note_off_c, 0, 71, 64
3, 154484, Note_on_c, 0, 69, 100
3, 154568, Note_off_c, 0, 69, 64
3, 154588, Note_on_c, 0, 69, 100
3, 154948, Note_off_c, 0, 69, 64
3, 155160, Note_on_c, 0, 57, 100
3, 155336, Note_off_c, 0, 57, 64
3, 155360, Note_on_c, 0, 60, 100
3, 155536, Note_off_c, 0, 60, 64
3, 155548, Note_on_c, 0, 64, 100
3, 155724, Note_off_c, 0, 64, 64
3, 155740, Note_on_c, 0, 60, 100
3, 155916, Note_off_c, 0, 60, 64
3, 155928, Note_on_c, 0, 57, 100
3, 156104, Note_off_c, 0, 57, 64
3, 156128, Note_on_c, 0, 60, 100
3, 156304, Note_off_c, 0, 60, 64
3, 156316, Note_on_c, 0, 64, 100
3, 156492, Note_off_c, 0, 64, 64
3, 156496, Note_on_c, 0, 60, 100
3, 156672, Note_off_c, 0, 60, 64
3, 156696, Note_on_c, 0, 57, 100
3, 156872, Note_off_c, 0, 57, 64
3, 156880, Note_on_c, 0, 64, 100
3, 157056, Note_off_c, 0, 64, 64
3, 157072, Note_on_c, 0, 64, 100
3, 157156, Note_off_c, 0, 64, 64
3, 157180, Note_on_c, 0, 64, 100
3, 157264, Note_off_c, 0, 64, 64
3, 157268, Note_on_c, 0, 64, 100
3, 157444, Note_off_c, 0, 64, 64
3, 157664, Note_on_c, 0, 76, 100
3, 157744, Note_off_c, 0, 76, 64
3, 157752, Note_on_c, 0, 75, 100
3, 157836, Note_off_c, 0, 75, 64
3, 157852, Note_on_c, 0, 76, 100
3, 157936, Note_off_c, 0, 76, 64
3, 157936, Note_on_c, 0, 78, 100
3, 158020, Note_off_c, 0, 78, 64
3, 158044, Note_on_c, 0, 76, 100
3, 158128, Note_off_c, 0, 76, 64
3, 158128, Note_on_c, 0, 79, 100
3, 158212, Note_off_c, 0, 79, 64
3, 158236, Note_on_c, 0, 78, 100
3, 158320, Note_off_c, 0, 78, 64
3, 158336, Note_on_c, 0, 81, 100
3, 158416, Note_off_c, 0, 81, 64
3, 158424, Note_on_c, 0, 79, 100
3, 158508, Note_off_c, 0, 79, 64
3, 158524, Note_on_c, 0, 78, 100
3, 158608, Note_off_c, 0, 78, 64
3, 158612, Note_on_c, 0, 79, 100
3, 158696, Note_off_c, 0, 79, 64
3, 158720, Note_on_c, 0, 81, 100
3, 158800, Note_off_c, 0, 81, 64
3, 158812, Note_on_c, 0, 79, 100
3, 158896, Note_off_c, 0, 79, 64
3, 158904, Note_on_c, 0, 83, 100
3, 158988, Note_off_c, 0, 83, 64
3, 158996, Note_on_c, 0, 81, 100
3, 159080, Note_off_c, 0, 81, 64
3, 159104, Note_on_c, 0, 84, 100
3, 159184, Note_off_c, 0, 84, 64
3, 159192, Note_on_c, 0, 83, 100
3, 159276, Note_off_c, 0, 83, 64
3, 159292, Note_on_c, 0, 81, 100
3, 159376, Note_off_c, 0, 81, 64
3, 159380, Note_on_c, 0, 83, 100
3, 159464, Note_off_c, 0, 83, 64
3, 159472, Note_on_c, 0, 84, 100
3, 159556, Note_off_c, 0, 84, 64
3, 159576, Note_on_c, 0, 83, 100
3, 159660, Note_off_c, 0, 83, 64
3, 159676, Note_on_c, 0, 84, 100
3, 159760, Note_off_c, 0, 84, 64
3, 159768, Note_on_c, 0, 83, 100
3, 159852, Note_off_c, 0, 83, 64
3, 159860, Note_on_c, 0, 81, 100
3, 159944, Note_off_c, 0, 81, 64
3, 159952, Note_on_c, 0, 79, 100
3, 160036, Note_off_c, 0, 79, 64
3, 160052, Note_on_c, 0, 81, 100
3, 160136, Note_off_c, 0, 81, 64
3, 160152, Note_on_c, 0, 79, 100
3, 160236, Note_off_c, 0, 79, 64
3, 160256, Note_on_c, 0, 78, 100
3, 160336, Note_off_c, 0, 78, 64
3, 160344, Note_on_c, 0, 76, 100
3, 160428, Note_off_c, 0, 76, 64
3, 160448, Note_on_c, 0, 79, 100
3, 160528, Note_off_c, 0, 79, 64
3, 160532, Note_on_c, 0, 78, 100
3, 160616, Note_off_c, 0, 78, 64
3, 160632, Note_on_c, 0, 76, 100
3, 160716, Note_off_c, 0, 76, 64
3, 160720, Note_on_c, 0, 75, 100
3, 160896, Note_off_c, 0, 75, 64
3, 160928, Note_on_c, 0, 71, 100
3, 161104, Note_off_c, 0, 71, 64
3, 161312, Note_on_c, 0, 79, 100
3, 161392, Note_off_c, 0, 79, 64
3, 161400, Note_on_c, 0, 78, 100
3, 161484, Note_off_c, 0, 78, 64
3, 161500, Note_on_c, 0, 79, 100
3, 161676, Note_off_c, 0, 79, 64
3, 161684, Note_on_c, 0, 74, 100
3, 161768, Note_off_c, 0, 74, 64
3, 161788, Note_on_c, 0, 72, 100
3, 161872, Note_off_c, 0, 72, 64
3, 161880, Note_on_c, 0, 74, 100
3, 162056, Note_off_c, 0, 74, 64
3, 162072, Note_on_c, 0, 79, 100
3, 162156, Note_off_c, 0, 79, 64
3, 162160, Note_on_c, 0, 78, 100
3, 162244, Note_off_c, 0, 78, 64
3, 162260, Note_on_c, 0, 79, 100
3, 162436, Note_off_c, 0, 79, 64
3, 162452, Note_on_c, 0, 71, 100
3, 162536, Note_off_c, 0, 71, 64
3, 162560, Note_on_c, 0, 69, 100
3, 162640, Note_off_c, 0, 69, 64
3, 162656, Note_on_c, 0, 71, 100
3, 162832, Note_off_c, 0, 71, 64
3, 162848, Note_on_c, 0, 79, 100
3, 162928, Note_off_c, 0, 79, 64
3, 162940, Note_on_c, 0, 78, 100
3, 163024, Note_off_c, 0, 78, 64
3, 163032, Note_on_c, 0, 79, 100
3, 163208, Note_off_c, 0, 79, 64
3, 163216, Note_on_c, 0, 67, 100
3, 163300, Note_off_c, 0, 67, 64
3, 163320, Note_on_c, 0, 69, 100
3, 163404, Note_off_c, 0, 69, 64
3, 163412, Note_on_c, 0, 71, 100
3, 163588, Note_off_c, 0, 71, 64
3, 163608, Note_on_c, 0, 73, 100
3, 163784, Note_off_c, 0, 73, 64
3, 163792, Note_on_c, 0, 74, 100
3, 163968, Note_off_c, 0, 74, 64
3, 164000, Note_on_c, 0, 62, 100
3, 164176, Note_off_c, 0, 62, 64
3, 164564, Note_on_c, 0, 78, 100
3, 164648, Note_off_c, 0, 78, 64
3, 164668, Note_on_c, 0, 76, 100
3, 164752, Note_off_c, 0, 76, 64
3, 164768, Note_on_c, 0, 78, 100
3, 164944, Note_off_c, 0, 78, 64
3, 165336, Note_on_c, 0, 78, 100
3, 165420, Note_off_c, 0, 78, 64
3, 165428, Note_on_c, 0, 76, 100
3, 165512, Note_off_c, 0, 76, 64
3, 165524, Note_on_c, 0, 78, 100
3, 165700, Note_off_c, 0, 78, 64
3, 166104, Note_on_c, 0, 77, 100
3, 166188, Note_off_c, 0, 77, 64
3, 166208, Note_on_c, 0, 76, 100
3, 166288, Note_off_c, 0, 76, 64
3, 166292, Note_on_c, 0, 77, 100
3, 166376, Note_off_c, 0, 77, 64
3, 166388, Note_on_c, 0, 86, 100
3, 166472, Note_off_c, 0, 86, 64
3, 166492, Note_on_c, 0, 83, 100
3, 166576, Note_off_c, 0, 83, 64
3, 166592, Note_on_c, 0, 77, 100
3, 166672, Note_off_c, 0, 77, 64
3, 166676, Note_on_c, 0, 74, 100
3, 166760, Note_off_c, 0, 74, 64
3, 166768, Note_on_c, 0, 67, 100
3, 166852, Note_off_c, 0, 67, 64
3, 166872, Note_on_c, 0, 77, 100
3, 166956, Note_off_c, 0, 77, 64
3, 166976, Note_on_c, 0, 76, 100
3, 167056, Note_off_c, 0, 76, 64
3, 167064, Note_on_c, 0, 77, 100
3, 167148, Note_off_c, 0, 77, 64
3, 167152, Note_on_c, 0, 86, 100
3, 167236, Note_off_c, 0, 86, 64
3, 167264, Note_on_c, 0, 83, 100
3, 167344, Note_off_c, 0, 83, 64
3, 167344, Note_on_c, 0, 77, 100
3, 167428, Note_off_c, 0, 77, 64
3, 167452, Note_on_c, 0, 74, 100
3, 167536, Note_off_c, 0, 74, 64
3, 167540, Note_on_c, 0, 67, 100
3, 167624, Note_off_c, 0, 67, 64
3, 167632, Note_on_c, 0, 76, 100
3, 167716, Note_off_c, 0, 76, 64
3, 167728, Note_on_c, 0, 77, 100
3, 167812, Note_off_c, 0, 77, 64
3, 167828, Note_on_c, 0, 76, 100
3, 168004, Note_off_c, 0, 76, 64
3, 168408, Note_on_c, 0, 76, 100
3, 168492, Note_off_c, 0, 76, 64
3, 168512, Note_on_c, 0, 77, 100
3, 168592, Note_off_c, 0, 77, 64
3, 168592, Note_on_c, 0, 76, 100
3, 168768, Note_off_c, 0, 76, 64
3, 169168, Note_on_c, 0, 76, 100
3, 169344, Note_off_c, 0, 76, 64
3, 169364, Note_on_c, 0, 76, 100
3, 169540, Note_off_c, 0, 76, 64
3, 169556, Note_on_c, 0, 76, 100
3, 169732, Note_off_c, 0, 76, 64
3, 169752, Note_on_c, 0, 76, 100
3, 169928, Note_off_c, 0, 76, 64
3, 169944, Note_on_c, 0, 76, 100
3, 170120, Note_off_c, 0, 76, 64
3, 170136, Note_on_c, 0, 76, 100
3, 170312, Note_off_c, 0, 76, 64
3, 170336, Note_on_c, 0, 76, 100
3, 170512, Note_off_c, 0, 76, 64
3, 170524, Note_on_c, 0, 76, 100
3, 170700, Note_off_c, 0, 76, 64
3, 170708, Note_on_c, 0, 81, 100
3, 170884, Note_off_c, 0, 81, 64
3, 170904, Note_on_c, 0, 81, 100
3, 171080, Note_off_c, 0, 81, 64
3, 171096, Note_on_c, 0, 81, 100
3, 171272, Note_off_c, 0, 81, 64
3, 171296, Note_on_c, 0, 81, 100
3, 171472, Note_off_c, 0, 81, 64
3, 171480, Note_on_c, 0, 81, 100
3, 171656, Note_off_c, 0, 81, 64
3, 171680, Note_on_c, 0, 81, 100
3, 171856, Note_off_c, 0, 81, 64
3, 171868, Note_on_c, 0, 81, 100
3, 172044, Note_off_c, 0, 81, 64
3, 172064, Note_on_c, 0, 81, 100
3, 172240, Note_off_c, 0, 81, 64
3, 172248, Note_on_c, 0, 80, 100
3, 172424, Note_off_c, 0, 80, 64
3, 172448, Note_on_c, 0, 80, 100
3, 172624, Note_off_c, 0, 80, 64
3, 172628, Note_on_c, 0, 80, 100
3, 172804, Note_off_c, 0, 80, 64
3, 172832, Note_on_c, 0, 80, 100
3, 173008, Note_off_c, 0, 80, 64
3, 173012, Note_on_c, 0, 80, 100
3, 173188, Note_off_c, 0, 80, 64
3, 173216, Note_on_c, 0, 80, 100
3, 173392, Note_off_c, 0, 80, 64
3, 173404, Note_on_c, 0, 80, 100
3, 173580, Note_off_c, 0, 80, 64
3, 173584, Note_on_c, 0, 80, 100
3, 173760, Note_off_c, 0, 80, 64
3, 173788, Note_on_c, 0, 79, 100
3, 173872, Note_off_c, 0, 79, 64
3, 173880, Note_on_c, 0, 78, 100
3, 173964, Note_off_c, 0, 78, 64
3, 173968, Note_on_c, 0, 79, 100
3, 174144, Note_off_c, 0, 79, 64
3, 174544, Note_on_c, 0, 79, 100
3, 174628, Note_off_c, 0, 79, 64
3, 174640, Note_on_c, 0, 78, 100
3, 174724, Note_off_c, 0, 78, 64
3, 174744, Note_on_c, 0, 79, 100
3, 174920, Note_off_c, 0, 79, 64
3, 175328, Note_on_c, 0, 79, 100
3, 175408, Note_off_c, 0, 79, 64
3, 175408, Note_on_c, 0, 78, 100
3, 175492, Note_off_c, 0, 78, 64
3, 175504, Note_on_c, 0, 79, 100
3, 175680, Note_off_c, 0, 79, 64
3, 176084, Note_on_c, 0, 79, 100
3, 176168, Note_off_c, 0, 79, 64
3, 176192, Note_on_c, 0, 78, 100
3, 176272, Note_off_c, 0, 78, 64
3, 176284, Note_on_c, 0, 79, 100
3, 176460, Note_off_c, 0, 79, 64
3, 176860, Note_on_c, 0, 79, 100
3, 176944, Note_off_c, 0, 79, 64
3, 176956, Note_on_c, 0, 78, 100
3, 177040, Note_off_c, 0, 78, 64
3, 177044, Note_on_c, 0, 79, 100
3, 177220, Note_off_c, 0, 79, 64
3, 177628, Note_on_c, 0, 79, 100
3, 177712, Note_off_c, 0, 79, 64
3, 177728, Note_on_c, 0, 78, 100
3, 177808, Note_off_c, 0, 78, 64
3, 177824, Note_on_c, 0, 79, 100
3, 178000, Note_off_c, 0, 79, 64
3, 178388, Note_on_c, 0, 79, 100
3, 178472, Note_off_c, 0, 79, 64
3, 178488, Note_on_c, 0, 78, 100
3, 178572, Note_off_c, 0, 78, 64
3, 178576, Note_on_c, 0, 79, 100
3, 178752, Note_off_c, 0, 79, 64
3, 179152, Note_on_c, 0, 79, 100
3, 179236, Note_off_c, 0, 79, 64
3, 179248, Note_on_c, 0, 78, 100
3, 179332, Note_off_c, 0, 78, 64
3, 179348, Note_on_c, 0, 79, 100
3, 179524, Note_off_c, 0, 79, 64
3, 179932, Note_on_c, 0, 78, 100
3, 180016, Note_off_c, 0, 78, 64
3, 180024, Note_on_c, 0, 79, 100
3, 180108, Note_off_c, 0, 79, 64
3, 180112, Note_on_c, 0, 78, 100
3, 180288, Note_off_c, 0, 78, 64
3, 180692, Note_on_c, 0, 78, 100
3, 180776, Note_off_c, 0, 78, 64
3, 180784, Note_on_c, 0, 79, 100
3, 180868, Note_off_c, 0, 79, 64
3, 180892, Note_on_c, 0, 78, 100
3, 181068, Note_off_c, 0, 78, 64
3, 181456, Note_on_c, 0, 79, 100
3, 181632, Note_off_c, 0, 79, 64
3, 181648, Note_on_c, 0, 75, 100
3, 181732, Note_off_c, 0, 75, 64
3, 181752, Note_on_c, 0, 74, 100
3, 181836, Note_off_c, 0, 74, 64
3, 181844, Note_on_c, 0, 75, 100
3, 182020, Note_off_c, 0, 75, 64
3, 182816, Note_on_c, 0, 82, 100
3, 182992, Note_off_c, 0, 82, 64
3, 182992, Note_on_c, 0, 81, 100
3, 183168, Note_off_c, 0, 81, 64
3, 183200, Note_on_c, 0, 74, 100
3, 183280, Note_off_c, 0, 74, 64
3, 183280, Note_on_c, 0, 73, 100
3, 183364, Note_off_c, 0, 73, 64
3, 183376, Note_on_c, 0, 74, 100
3, 183552, Note_off_c, 0, 74, 64
3, 184336, Note_on_c, 0, 81, 100
3, 184512, Note_off_c, 0, 81, 64
3, 184544, Note_on_c, 0, 79, 100
3, 184720, Note_off_c, 0, 79, 64
3, 184724, Note_on_c, 0, 72, 100
3, 184808, Note_off_c, 0, 72, 64
3, 184824, Note_on_c, 0, 71, 100
3, 184908, Note_off_c, 0, 71, 64
3, 184916, Note_on_c, 0, 72, 100
3, 185092, Note_off_c, 0, 72, 64
3, 185880, Note_on_c, 0, 79, 100
3, 186056, Note_off_c, 0, 79, 64
3, 186076, Note_on_c, 0, 78, 100
3, 186252, Note_off_c, 0, 78, 64
3, 186272, Note_on_c, 0, 81, 100
3, 186352, Note_off_c, 0, 81, 64
3, 186368, Note_on_c, 0, 79, 100
3, 186448, Note_off_c, 0, 79, 64
3, 186464, Note_on_c, 0, 81, 100
3, 186640, Note_off_c, 0, 81, 64
3, 187024, Note_on_c, 0, 84, 100
3, 187108, Note_off_c, 0, 84, 64
3, 187120, Note_on_c, 0, 82, 100
3, 187204, Note_off_c, 0, 82, 64
3, 187224, Note_on_c, 0, 84, 100
3, 187400, Note_off_c, 0, 84, 64
3, 187808, Note_on_c, 0, 87, 100
3, 187888, Note_off_c, 0, 87, 64
3, 187904, Note_on_c, 0, 86, 100
3, 187984, Note_off_c, 0, 86, 64
3, 187984, Note_on_c, 0, 87, 100
3, 188160, Note_off_c, 0, 87, 64
3, 188576, Note_on_c, 0, 86, 100
3, 188656, Note_off_c, 0, 86, 64
3, 188672, Note_on_c, 0, 84, 100
3, 188752, Note_off_c, 0, 84, 64
3, 188756, Note_on_c, 0, 86, 100
3, 188932, Note_off_c, 0, 86, 64
3, 189336, Note_on_c, 0, 84, 100
3, 189420, Note_off_c, 0, 84, 64
3, 189436, Note_on_c, 0, 82, 100
3, 189520, Note_off_c, 0, 82, 64
3, 189528, Note_on_c, 0, 84, 100
3, 189704, Note_off_c, 0, 84, 64
3, 190100, Note_on_c, 0, 81, 100
3, 190184, Note_off_c, 0, 81, 64
3, 190208, Note_on_c, 0, 79, 100
3, 190288, Note_off_c, 0, 79, 64
3, 190304, Note_on_c, 0, 78, 100
3, 190480, Note_off_c, 0, 78, 64
3, 190492, Note_on_c, 0, 74, 100
3, 190668, Note_off_c, 0, 74, 64
3, 190680, Note_on_c, 0, 75, 100
3, 190948, Note_off_c, 0, 75, 64
3, 190964, Note_on_c, 0, 74, 100
3, 191048, Note_off_c, 0, 74, 64
3, 191056, Note_on_c, 0, 72, 100
3, 191140, Note_off_c, 0, 72, 64
3, 191152, Note_on_c, 0, 70, 100
3, 191236, Note_off_c, 0, 70, 64
3, 191260, Note_on_c, 0, 69, 100
3, 191344, Note_off_c, 0, 69, 64
3, 191352, Note_on_c, 0, 67, 100
3, 191436, Note_off_c, 0, 67, 64
3, 191444, Note_on_c, 0, 74, 100
3, 191620, Note_off_c, 0, 74, 64
3, 191636, Note_on_c, 0, 72, 100
3, 191720, Note_off_c, 0, 72, 64
3, 191736, Note_on_c, 0, 70, 100
3, 191820, Note_off_c, 0, 70, 64
3, 191836, Note_on_c, 0, 69, 100
3, 192012, Note_off_c, 0, 69, 64
3, 192032, Note_on_c, 0, 67, 100
3, 192112, Note_off_c, 0, 67, 64
3, 192124, Note_on_c, 0, 66, 100
3, 192208, Note_off_c, 0, 66, 64
3, 192224, Note_on_c, 0, 67, 100
3, 192400, Note_off_c, 0, 67, 64
3, 192404, Note_on_c, 0, 62, 100
3, 192488, Note_off_c, 0, 62, 64
3, 192504, Note_on_c, 0, 60, 100
3, 192588, Note_off_c, 0, 60, 64
3, 192596, Note_on_c, 0, 62, 100
3, 192772, Note_off_c, 0, 62, 64
3, 192800, Note_on_c, 0, 67, 100
3, 192880, Note_off_c, 0, 67, 64
3, 192888, Note_on_c, 0, 66, 100
3, 192972, Note_off_c, 0, 66, 64
3, 192980, Note_on_c, 0, 67, 100
3, 193156, Note_off_c, 0, 67, 64
3, 193176, Note_on_c, 0, 59, 100
3, 193260, Note_off_c, 0, 59, 64
3, 193272, Note_on_c, 0, 57, 100
3, 193356, Note_off_c, 0, 57, 64
3, 193364, Note_on_c, 0, 59, 100
3, 193540, Note_off_c, 0, 59, 64
3, 193556, Note_on_c, 0, 67, 100
3, 193640, Note_off_c, 0, 67, 64
3, 193648, Note_on_c, 0, 66, 100
3, 193732, Note_off_c, 0, 66, 64
3, 193748, Note_on_c, 0, 67, 100
3, 193924, Note_off_c, 0, 67, 64
3, 193940, Note_on_c, 0, 55, 100
3, 194024, Note_off_c, 0, 55, 64
3, 194048, Note_on_c, 0, 57, 100
3, 194128, Note_off_c, 0, 57, 64
3, 194140, Note_on_c, 0, 59, 100
3, 194316, Note_off_c, 0, 59, 64
3, 194336, Note_on_c, 0, 61, 100
3, 194512, Note_off_c, 0, 61, 64
3, 194524, Note_on_c, 0, 62, 100
3, 194608, Note_off_c, 0, 62, 64
3, 194620, Note_on_c, 0, 61, 100
3, 194704, Note_off_c, 0, 61, 64
3, 194708, Note_on_c, 0, 62, 100
3, 194792, Note_off_c, 0, 62, 64
3, 194812, Note_on_c, 0, 64, 100
3, 194896, Note_off_c, 0, 64, 64
3, 194896, Note_on_c, 0, 62, 100
3, 194980, Note_off_c, 0, 62, 64
3, 195004, Note_on_c, 0, 66, 100
3, 195088, Note_off_c, 0, 66, 64
3, 195104, Note_on_c, 0, 62, 100
3, 195184, Note_off_c, 0, 62, 64
3, 195188, Note_on_c, 0, 67, 100
3, 195272, Note_off_c, 0, 67, 64
3, 195280, Note_on_c, 0, 62, 100
3, 195364, Note_off_c, 0, 62, 64
3, 195384, Note_on_c, 0, 61, 100
3, 195468, Note_off_c, 0, 61, 64
3, 195472, Note_on_c, 0, 62, 100
3, 195556, Note_off_c, 0, 62, 64
3, 195584, Note_on_c, 0, 64, 100
3, 195664, Note_off_c, 0, 64, 64
3, 195676, Note_on_c, 0, 62, 100
3, 195760, Note_off_c, 0, 62, 64
3, 195768, Note_on_c, 0, 69, 100
3, 195852, Note_off_c, 0, 69, 64
3, 195868, Note_on_c, 0, 62, 100
3, 195952, Note_off_c, 0, 62, 64
3, 195960, Note_on_c, 0, 71, 100
3, 196044, Note_off_c, 0, 71, 64
3, 196060, Note_on_c, 0, 62, 100
3, 196144, Note_off_c, 0, 62, 64
3, 196156, Note_on_c, 0, 61, 100
3, 196240, Note_off_c, 0, 61, 64
3, 196252, Note_on_c, 0, 62, 100
3, 196336, Note_off_c, 0, 62, 64
3, 196348, Note_on_c, 0, 64, 100
3, 196432, Note_off_c, 0, 64, 64
3, 196448, Note_on_c, 0, 62, 100
3, 196528, Note_off_c, 0, 62, 64
3, 196528, Note_on_c, 0, 72, 100
3, 196612, Note_off_c, 0, 72, 64
3, 196632, Note_on_c, 0, 62, 100
3, 196716, Note_off_c, 0, 62, 64
3, 196732, Note_on_c, 0, 74, 100
3, 196816, Note_off_c, 0, 74, 64
3, 196816, Note_on_c, 0, 71, 100
3, 196992, Note_off_c, 0, 71, 64
3, 197016, Note_on_c, 0, 69, 100
3, 197100, Note_off_c, 0, 69, 64
3, 197104, Note_on_c, 0, 67, 100
3, 197188, Note_off_c, 0, 67, 64
3, 197208, Note_on_c, 0, 69, 100
3, 197384, Note_off_c, 0, 69, 64
3, 197396, Note_on_c, 0, 67, 100
3, 197480, Note_off_c, 0, 67, 64
3, 197488, Note_on_c, 0, 66, 100
3, 197572, Note_off_c, 0, 66, 64
3, 197588, Note_on_c, 0, 67, 100
3, 197764, Note_off_c, 0, 67, 64
3, 197792, Note_on_c, 0, 66, 100
3, 197872, Note_off_c, 0, 66, 64
3, 197880, Note_on_c, 0, 64, 100
3, 197964, Note_off_c, 0, 64, 64
3, 197980, Note_on_c, 0, 62, 100
3, 198064, Note_off_c, 0, 62, 64
3, 198064, Note_on_c, 0, 67, 100
3, 198148, Note_off_c, 0, 67, 64
3, 198164, Note_on_c, 0, 62, 100
3, 198248, Note_off_c, 0, 62, 64
3, 198272, Note_on_c, 0, 67, 100
3, 198352, Note_off_c, 0, 67, 64
3, 198368, Note_on_c, 0, 64, 100
3, 198544, Note_off_c, 0, 64, 64
3, 198548, Note_on_c, 0, 62, 100
3, 198632, Note_off_c, 0, 62, 64
3, 198644, Note_on_c, 0, 60, 100
3, 198728, Note_off_c, 0, 60, 64
3, 198740, Note_on_c, 0, 59, 100
3, 198824, Note_off_c, 0, 59, 64
3, 198832, Note_on_c, 0, 67, 100
3, 198916, Note_off_c, 0, 67, 64
3, 198944, Note_on_c, 0, 59, 100
3, 199024, Note_off_c, 0, 59, 64
3, 199024, Note_on_c, 0, 67, 100
3, 199108, Note_off_c, 0, 67, 64
3, 199120, Note_on_c, 0, 60, 100
3, 199296, Note_off_c, 0, 60, 64
3, 199316, Note_on_c, 0, 59, 100
3, 199400, Note_off_c, 0, 59, 64
3, 199412, Note_on_c, 0, 57, 100
3, 199496, Note_off_c, 0, 57, 64
3, 199516, Note_on_c, 0, 55, 100
3, 199600, Note_off_c, 0, 55, 64
3, 199612, Note_on_c, 0, 67, 100
3, 199696, Note_off_c, 0, 67, 64
3, 199696, Note_on_c, 0, 57, 100
3, 199780, Note_off_c, 0, 57, 64
3, 199796, Note_on_c, 0, 67, 100
3, 199880, Note_off_c, 0, 67, 64
3, 199888, Note_on_c, 0, 59, 100
3, 199972, Note_off_c, 0, 59, 64
3, 199988, Note_on_c, 0, 67, 100
3, 200072, Note_off_c, 0, 67, 64
3, 200088, Note_on_c, 0, 61, 100
3, 200172, Note_off_c, 0, 61, 64
3, 200176, Note_on_c, 0, 67, 100
3, 200260, Note_off_c, 0, 67, 64
3, 200284, Note_on_c, 0, 62, 100
3, 200368, Note_off_c, 0, 62, 64
3, 200368, Note_on_c, 0, 66, 100
3, 200452, Note_off_c, 0, 66, 64
3, 200472, Note_on_c, 0, 62, 100
3, 200556, Note_off_c, 0, 62, 64
3, 200572, Note_on_c, 0, 67, 100
3, 200656, Note_off_c, 0, 67, 64
3, 200660, Note_on_c, 0, 62, 100
3, 200744, Note_off_c, 0, 62, 64
3, 200752, Note_on_c, 0, 69, 100
3, 200836, Note_off_c, 0, 69, 64
3, 200852, Note_on_c, 0, 62, 100
3, 200936, Note_off_c, 0, 62, 64
3, 200956, Note_on_c, 0, 71, 100
3, 201040, Note_off_c, 0, 71, 64
3, 201056, Note_on_c, 0, 62, 100
3, 201136, Note_off_c, 0, 62, 64
3, 201144, Note_on_c, 0, 72, 100
3, 201228, Note_off_c, 0, 72, 64
3, 201248, Note_on_c, 0, 62, 100
3, 201328, Note_off_c, 0, 62, 64
3, 201328, Note_on_c, 0, 74, 100
3, 201412, Note_off_c, 0, 74, 64
3, 201436, Note_on_c, 0, 71, 100
3, 201612, Note_off_c, 0, 71, 64
3, 201632, Note_on_c, 0, 69, 100
3, 201712, Note_off_c, 0, 69, 64
3, 201724, Note_on_c, 0, 67, 100
3, 201808, Note_off_c, 0, 67, 64
3, 201820, Note_on_c, 0, 62, 100
3, 201996, Note_off_c, 0, 62, 64
3, 202008, Note_on_c, 0, 66, 100
3, 202184, Note_off_c, 0, 66, 64
3, 202200, Note_on_c, 0, 67, 100
3, 202376, Note_off_c, 0, 67, 64
3, 203920, Note_on_c, 0, 71, 100
3, 204004, Note_off_c, 0, 71, 64
3, 204032, Note_on_c, 0, 69, 100
3, 204112, Note_off_c, 0, 69, 64
3, 204116, Note_on_c, 0, 71, 100
3, 204292, Note_off_c, 0, 71, 64
3, 204304, Note_on_c, 0, 74, 100
3, 204388, Note_off_c, 0, 74, 64
3, 204404, Note_on_c, 0, 72, 100
3, 204488, Note_off_c, 0, 72, 64
3, 204500, Note_on_c, 0, 74, 100
3, 204676, Note_off_c, 0, 74, 64
3, 204696, Note_on_c, 0, 79, 100
3, 204780, Note_off_c, 0, 79, 64
3, 204796, Note_on_c, 0, 78, 100
3, 204880, Note_off_c, 0, 78, 64
3, 204884, Note_on_c, 0, 79, 100
3, 205060, Note_off_c, 0, 79, 64
3, 205088, Note_on_c, 0, 83, 100
3, 205168, Note_off_c, 0, 83, 64
3, 205172, Note_on_c, 0, 81, 100
3, 205256, Note_off_c, 0, 81, 64
3, 205276, Note_on_c, 0, 83, 100
3, 205452, Note_off_c, 0, 83, 64
3, 205460, Note_on_c, 0, 81, 100
3, 205544, Note_off_c, 0, 81, 64
3, 205552, Note_on_c, 0, 79, 100
3, 205636, Note_off_c, 0, 79, 64
3, 205660, Note_on_c, 0, 78, 100
3, 205744, Note_off_c, 0, 78, 64
3, 205748, Note_on_c, 0, 76, 100
3, 205832, Note_off_c, 0, 76, 64
3, 205844, Note_on_c, 0, 74, 100
3, 205928, Note_off_c, 0, 74, 64
3, 205948, Note_on_c, 0, 72, 100
3, 206032, Note_off_c, 0, 72, 64
3, 206048, Note_on_c, 0, 71, 100
3, 206128, Note_off_c, 0, 71, 64
3, 206132, Note_on_c, 0, 74, 100
3, 206216, Note_off_c, 0, 74, 64
3, 206240, Note_on_c, 0, 72, 100
3, 206320, Note_off_c, 0, 72, 64
3, 206324, Note_on_c, 0, 71, 100
3, 206408, Note_off_c, 0, 71, 64
3, 206432, Note_on_c, 0, 69, 100
3, 206512, Note_off_c, 0, 69, 64
3, 206524, Note_on_c, 0, 67, 100
3, 206608, Note_off_c, 0, 67, 64
3, 206612, Note_on_c, 0, 66, 100
3, 206696, Note_off_c, 0, 66, 64
3, 206708, Note_on_c, 0, 64, 100
3, 206792, Note_off_c, 0, 64, 64
3, 206804, Note_on_c, 0, 62, 100
3, 206888, Note_off_c, 0, 62, 64
3, 206904, Note_on_c, 0, 67, 100
3, 206988, Note_off_c, 0, 67, 64
3, 206996, Note_on_c, 0, 66, 100
3, 207080, Note_off_c, 0, 66, 64
3, 207092, Note_on_c, 0, 64, 100
3, 207176, Note_off_c, 0, 64, 64
3, 207184, Note_on_c, 0, 62, 100
3, 207268, Note_off_c, 0, 62, 64
3, 207280, Note_on_c, 0, 60, 100
3, 207364, Note_off_c, 0, 60, 64
3, 207388, Note_on_c, 0, 59, 100
3, 207472, Note_off_c, 0, 59, 64
3, 207488, Note_on_c, 0, 57, 100
3, 207568, Note_off_c, 0, 57, 64
3, 207580, Note_on_c, 0, 59, 100
3, 207756, Note_off_c, 0, 59, 64
3, 207776, Note_on_c, 0, 57, 100
3, 207856, Note_off_c, 0, 57, 64
3, 207856, Note_on_c, 0, 55, 100
3, 207940, Note_off_c, 0, 55, 64
3, 207960, Note_on_c, 0, 62, 100
3, 208136, Note_off_c, 0, 62, 64
3, 208156, Note_on_c, 0, 62, 100
3, 208332, Note_off_c, 0, 62, 64
3, 208352, Note_on_c, 0, 55, 100
3, 209088, Note_off_c, 0, 55, 64
3, 209088, End_track
4, 0, Start_track
4, 0, Title_t, "Violin 2"
4, 0, Control_c, 1, 0, 0
4, 0, Program_c, 1, 48
4, 0, Control_c, 1, 7, 127
4, 0, Control_c, 1, 10, 34
4, 0, Control_c, 1, 91, 120
4, 0, Control_c, 1, 93, 83
4, 0, Pitch_bend_c, 1, 8192
4, 4, Control_c, 1, 1, 0
4, 8, Control_c, 1, 64, 0
4, 20, Note_on_c, 1, 67, 100
4, 104, Note_off_c, 1, 67, 64
4, 124, Note_on_c, 1, 66, 100
4, 208, Note_off_c, 1, 66, 64
4, 220, Note_on_c, 1, 67, 100
4, 396, Note_off_c, 1, 67, 64
4, 416, Note_on_c, 1, 62, 100
4, 496, Note_off_c, 1, 62, 64
4, 512, Note_on_c, 1, 60, 100
4, 592, Note_off_c, 1, 60, 64
4, 608, Note_on_c, 1, 62, 100
4, 784, Note_off_c, 1, 62, 64
4, 796, Note_on_c, 1, 67, 100
4, 880, Note_off_c, 1, 67, 64
4, 884, Note_on_c, 1, 66, 100
4, 968, Note_off_c, 1, 66, 64
4, 988, Note_on_c, 1, 67, 100
4, 1164, Note_off_c, 1, 67, 64
4, 1168, Note_on_c, 1, 59, 100
4, 1252, Note_off_c, 1, 59, 64
4, 1272, Note_on_c, 1, 57, 100
4, 1356, Note_off_c, 1, 57, 64
4, 1372, Note_on_c, 1, 59, 100
4, 1548, Note_off_c, 1, 59, 64
4, 1556, Note_on_c, 1, 67, 100
4, 1640, Note_off_c, 1, 67, 64
4, 1664, Note_on_c, 1, 66, 100
4, 1744, Note_off_c, 1, 66, 64
4, 1744, Note_on_c, 1, 67, 100
4, 1920, Note_off_c, 1, 67, 64
4, 1944, Note_on_c, 1, 55, 100
4, 2028, Note_off_c, 1, 55, 64
4, 2032, Note_on_c, 1, 57, 100
4, 2116, Note_off_c, 1, 57, 64
4, 2140, Note_on_c, 1, 59, 100
4, 2316, Note_off_c, 1, 59, 64
4, 2324, Note_on_c, 1, 61, 100
4, 2500, Note_off_c, 1, 61, 64
4, 2512, Note_on_c, 1, 62, 100
4, 2596, Note_off_c, 1, 62, 64
4, 2612, Note_on_c, 1, 61, 100
4, 2696, Note_off_c, 1, 61, 64
4, 2704, Note_on_c, 1, 62, 100
4, 2788, Note_off_c, 1, 62, 64
4, 2816, Note_on_c, 1, 64, 100
4, 2896, Note_off_c, 1, 64, 64
4, 2908, Note_on_c, 1, 62, 100
4, 2992, Note_off_c, 1, 62, 64
4, 2992, Note_on_c, 1, 66, 100
4, 3076, Note_off_c, 1, 66, 64
4, 3096, Note_on_c, 1, 62, 100
4, 3180, Note_off_c, 1, 62, 64
4, 3184, Note_on_c, 1, 67, 100
4, 3268, Note_off_c, 1, 67, 64
4, 3296, Note_on_c, 1, 62, 100
4, 3376, Note_off_c, 1, 62, 64
4, 3376, Note_on_c, 1, 61, 100
4, 3460, Note_off_c, 1, 61, 64
4, 3480, Note_on_c, 1, 62, 100
4, 3564, Note_off_c, 1, 62, 64
4, 3584, Note_on_c, 1, 64, 100
4, 3664, Note_off_c, 1, 64, 64
4, 3672, Note_on_c, 1, 62, 100
4, 3756, Note_off_c, 1, 62, 64
4, 3776, Note_on_c, 1, 69, 100
4, 3856, Note_off_c, 1, 69, 64
4, 3864, Note_on_c, 1, 62, 100
4, 3948, Note_off_c, 1, 62, 64
4, 3960, Note_on_c, 1, 71, 100
4, 4044, Note_off_c, 1, 71, 64
4, 4056, Note_on_c, 1, 62, 100
4, 4140, Note_off_c, 1, 62, 64
4, 4156, Note_on_c, 1, 61, 100
4, 4240, Note_off_c, 1, 61, 64
4, 4256, Note_on_c, 1, 62, 100
4, 4336, Note_off_c, 1, 62, 64
4, 4352, Note_on_c, 1, 64, 100
4, 4432, Note_off_c, 1, 64, 64
4, 4436, Note_on_c, 1, 62, 100
4, 4520, Note_off_c, 1, 62, 64
4, 4528, Note_on_c, 1, 72, 100
4, 4612, Note_off_c, 1, 72, 64
4, 4636, Note_on_c, 1, 62, 100
4, 4720, Note_off_c, 1, 62, 64
4, 4720, Note_on_c, 1, 74, 100
4, 4804, Note_off_c, 1, 74, 64
4, 4828, Note_on_c, 1, 71, 100
4, 5004, Note_off_c, 1, 71, 64
4, 5016, Note_on_c, 1, 69, 100
4, 5100, Note_off_c, 1, 69, 64
4, 5120, Note_on_c, 1, 67, 100
4, 5200, Note_off_c, 1, 67, 64
4, 5212, Note_on_c, 1, 69, 100
4, 5388, Note_off_c, 1, 69, 64
4, 5396, Note_on_c, 1, 67, 100
4, 5480, Note_off_c, 1, 67, 64
4, 5496, Note_on_c, 1, 66, 100
4, 5580, Note_off_c, 1, 66, 64
4, 5588, Note_on_c, 1, 67, 100
4, 5764, Note_off_c, 1, 67, 64
4, 5788, Note_on_c, 1, 66, 100
4, 5872, Note_off_c, 1, 66, 64
4, 5888, Note_on_c, 1, 64, 100
4, 5968, Note_off_c, 1, 64, 64
4, 5968, Note_on_c, 1, 62, 100
4, 6052, Note_off_c, 1, 62, 64
4, 6064, Note_on_c, 1, 67, 100
4, 6148, Note_off_c, 1, 67, 64
4, 6164, Note_on_c, 1, 62, 100
4, 6248, Note_off_c, 1, 62, 64
4, 6260, Note_on_c, 1, 67, 100
4, 6344, Note_off_c, 1, 67, 64
4, 6356, Note_on_c, 1, 64, 100
4, 6532, Note_off_c, 1, 64, 64
4, 6560, Note_on_c, 1, 62, 100
4, 6640, Note_off_c, 1, 62, 64
4, 6656, Note_on_c, 1, 60, 100
4, 6736, Note_off_c, 1, 60, 64
4, 6740, Note_on_c, 1, 59, 100
4, 6824, Note_off_c, 1, 59, 64
4, 6832, Note_on_c, 1, 67, 100
4, 6916, Note_off_c, 1, 67, 64
4, 6936, Note_on_c, 1, 59, 100
4, 7020, Note_off_c, 1, 59, 64
4, 7032, Note_on_c, 1, 67, 100
4, 7116, Note_off_c, 1, 67, 64
4, 7136, Note_on_c, 1, 60, 100
4, 7312, Note_off_c, 1, 60, 64
4, 7320, Note_on_c, 1, 59, 100
4, 7404, Note_off_c, 1, 59, 64
4, 7412, Note_on_c, 1, 57, 100
4, 7496, Note_off_c, 1, 57, 64
4, 7512, Note_on_c, 1, 55, 100
4, 7596, Note_off_c, 1, 55, 64
4, 7604, Note_on_c, 1, 67, 100
4, 7688, Note_off_c, 1, 67, 64
4, 7704, Note_on_c, 1, 57, 100
4, 7788, Note_off_c, 1, 57, 64
4, 7808, Note_on_c, 1, 67, 100
4, 7888, Note_off_c, 1, 67, 64
4, 7892, Note_on_c, 1, 59, 100
4, 7976, Note_off_c, 1, 59, 64
4, 7988, Note_on_c, 1, 67, 100
4, 8072, Note_off_c, 1, 67, 64
4, 8096, Note_on_c, 1, 61, 100
4, 8176, Note_off_c, 1, 61, 64
4, 8184, Note_on_c, 1, 67, 100
4, 8268, Note_off_c, 1, 67, 64
4, 8280, Note_on_c, 1, 62, 100
4, 8364, Note_off_c, 1, 62, 64
4, 8380, Note_on_c, 1, 66, 100
4, 8464, Note_off_c, 1, 66, 64
4, 8476, Note_on_c, 1, 62, 100
4, 8560, Note_off_c, 1, 62, 64
4, 8560, Note_on_c, 1, 67, 100
4, 8644, Note_off_c, 1, 67, 64
4, 8656, Note_on_c, 1, 62, 100
4, 8740, Note_off_c, 1, 62, 64
4, 8756, Note_on_c, 1, 69, 100
4, 8840, Note_off_c, 1, 69, 64
4, 8848, Note_on_c, 1, 62, 100
4, 8932, Note_off_c, 1, 62, 64
4, 8948, Note_on_c, 1, 71, 100
4, 9032, Note_off_c, 1, 71, 64
4, 9048, Note_on_c, 1, 62, 100
4, 9132, Note_off_c, 1, 62, 64
4, 9148, Note_on_c, 1, 72, 100
4, 9232, Note_off_c, 1, 72, 64
4, 9236, Note_on_c, 1, 62, 100
4, 9320, Note_off_c, 1, 62, 64
4, 9328, Note_on_c, 1, 74, 100
4, 9412, Note_off_c, 1, 74, 64
4, 9436, Note_on_c, 1, 71, 100
4, 9612, Note_off_c, 1, 71, 64
4, 9616, Note_on_c, 1, 69, 100
4, 9700, Note_off_c, 1, 69, 64
4, 9716, Note_on_c, 1, 67, 100
4, 9800, Note_off_c, 1, 67, 64
4, 9824, Note_on_c, 1, 62, 100
4, 10000, Note_off_c, 1, 62, 64
4, 10008, Note_on_c, 1, 66, 100
4, 10184, Note_off_c, 1, 66, 64
4, 10208, Note_on_c, 1, 67, 100
4, 10384, Note_off_c, 1, 67, 64
4, 10388, Note_on_c, 1, 66, 100
4, 10472, Note_off_c, 1, 66, 64
4, 10480, Note_on_c, 1, 64, 100
4, 10564, Note_off_c, 1, 64, 64
4, 10584, Note_on_c, 1, 62, 100
4, 10668, Note_off_c, 1, 62, 64
4, 10676, Note_on_c, 1, 60, 100
4, 10760, Note_off_c, 1, 60, 64
4, 10768, Note_on_c, 1, 59, 100
4, 10852, Note_off_c, 1, 59, 64
4, 10872, Note_on_c, 1, 57, 100
4, 10956, Note_off_c, 1, 57, 64
4, 10972, Note_on_c, 1, 59, 100
4, 11148, Note_off_c, 1, 59, 64
4, 11152, Note_on_c, 1, 57, 100
4, 11236, Note_off_c, 1, 57, 64
4, 11264, Note_on_c, 1, 55, 100
4, 11344, Note_off_c, 1, 55, 64
4, 11348, Note_on_c, 1, 62, 100
4, 11524, Note_off_c, 1, 62, 64
4, 11552, Note_on_c, 1, 62, 100
4, 11728, Note_off_c, 1, 62, 64
4, 11736, Note_on_c, 1, 55, 100
4, 12096, Note_off_c, 1, 55, 64
4, 12308, Note_on_c, 1, 71, 100
4, 12392, Note_off_c, 1, 71, 64
4, 12404, Note_on_c, 1, 71, 100
4, 12488, Note_off_c, 1, 71, 64
4, 12504, Note_on_c, 1, 71, 100
4, 12680, Note_off_c, 1, 71, 64
4, 12692, Note_on_c, 1, 67, 100
4, 12776, Note_off_c, 1, 67, 64
4, 12792, Note_on_c, 1, 66, 100
4, 12876, Note_off_c, 1, 66, 64
4, 12892, Note_on_c, 1, 67, 100
4, 13068, Note_off_c, 1, 67, 64
4, 14240, Note_on_c, 1, 74, 100
4, 14416, Note_off_c, 1, 74, 64
4, 14420, Note_on_c, 1, 79, 100
4, 14504, Note_off_c, 1, 79, 64
4, 14520, Note_on_c, 1, 83, 100
4, 14604, Note_off_c, 1, 83, 64
4, 14620, Note_on_c, 1, 81, 100
4, 14704, Note_off_c, 1, 81, 64
4, 14716, Note_on_c, 1, 79, 100
4, 14800, Note_off_c, 1, 79, 64
4, 14800, Note_on_c, 1, 78, 100
4, 15164, Note_off_c, 1, 78, 64
4, 15376, Note_on_c, 1, 76, 100
4, 15552, Note_off_c, 1, 76, 64
4, 15580, Note_on_c, 1, 78, 100
4, 15664, Note_off_c, 1, 78, 64
4, 15680, Note_on_c, 1, 81, 100
4, 15760, Note_off_c, 1, 81, 64
4, 15772, Note_on_c, 1, 74, 100
4, 15856, Note_off_c, 1, 74, 64
4, 15860, Note_on_c, 1, 76, 100
4, 15944, Note_off_c, 1, 76, 64
4, 15960, Note_on_c, 1, 78, 100
4, 16044, Note_off_c, 1, 78, 64
4, 16048, Note_on_c, 1, 79, 100
4, 16132, Note_off_c, 1, 79, 64
4, 16152, Note_on_c, 1, 81, 100
4, 16236, Note_off_c, 1, 81, 64
4, 16240, Note_on_c, 1, 79, 100
4, 16324, Note_off_c, 1, 79, 64
4, 16340, Note_on_c, 1, 78, 100
4, 16516, Note_off_c, 1, 78, 64
4, 16544, Note_on_c, 1, 86, 100
4, 16720, Note_off_c, 1, 86, 64
4, 16916, Note_on_c, 1, 85, 100
4, 17092, Note_off_c, 1, 85, 64
4, 17108, Note_on_c, 1, 86, 100
4, 17284, Note_off_c, 1, 86, 64
4, 17296, Note_on_c, 1, 76, 100
4, 17380, Note_off_c, 1, 76, 64
4, 17396, Note_on_c, 1, 74, 100
4, 17480, Note_off_c, 1, 74, 64
4, 17488, Note_on_c, 1, 76, 100
4, 17664, Note_off_c, 1, 76, 64
4, 17684, Note_on_c, 1, 74, 100
4, 17768, Note_off_c, 1, 74, 64
4, 17780, Note_on_c, 1, 73, 100
4, 17864, Note_off_c, 1, 73, 64
4, 17872, Note_on_c, 1, 74, 100
4, 18048, Note_off_c, 1, 74, 64
4, 18068, Note_on_c, 1, 73, 100
4, 18152, Note_off_c, 1, 73, 64
4, 18160, Note_on_c, 1, 71, 100
4, 18244, Note_off_c, 1, 71, 64
4, 18264, Note_on_c, 1, 69, 100
4, 18348, Note_off_c, 1, 69, 64
4, 18368, Note_on_c, 1, 74, 100
4, 18448, Note_off_c, 1, 74, 64
4, 18464, Note_on_c, 1, 69, 100
4, 18544, Note_off_c, 1, 69, 64
4, 18552, Note_on_c, 1, 74, 100
4, 18636, Note_off_c, 1, 74, 64
4, 18656, Note_on_c, 1, 71, 100
4, 18832, Note_off_c, 1, 71, 64
4, 18832, Note_on_c, 1, 69, 100
4, 18916, Note_off_c, 1, 69, 64
4, 18936, Note_on_c, 1, 67, 100
4, 19020, Note_off_c, 1, 67, 64
4, 19032, Note_on_c, 1, 66, 100
4, 19116, Note_off_c, 1, 66, 64
4, 19132, Note_on_c, 1, 74, 100
4, 19216, Note_off_c, 1, 74, 64
4, 19220, Note_on_c, 1, 66, 100
4, 19304, Note_off_c, 1, 66, 64
4, 19328, Note_on_c, 1, 74, 100
4, 19408, Note_off_c, 1, 74, 64
4, 19412, Note_on_c, 1, 67, 100
4, 19588, Note_off_c, 1, 67, 64
4, 19604, Note_on_c, 1, 66, 100
4, 19688, Note_off_c, 1, 66, 64
4, 19712, Note_on_c, 1, 64, 100
4, 19792, Note_off_c, 1, 64, 64
4, 19808, Note_on_c, 1, 62, 100
4, 19888, Note_off_c, 1, 62, 64
4, 19900, Note_on_c, 1, 74, 100
4, 19984, Note_off_c, 1, 74, 64
4, 19996, Note_on_c, 1, 64, 100
4, 20080, Note_off_c, 1, 64, 64
4, 20080, Note_on_c, 1, 74, 100
4, 20164, Note_off_c, 1, 74, 64
4, 20180, Note_on_c, 1, 66, 100
4, 20264, Note_off_c, 1, 66, 64
4, 20276, Note_on_c, 1, 74, 100
4, 20360, Note_off_c, 1, 74, 64
4, 20384, Note_on_c, 1, 68, 100
4, 20464, Note_off_c, 1, 68, 64
4, 20480, Note_on_c, 1, 74, 100
4, 20560, Note_off_c, 1, 74, 64
4, 20568, Note_on_c, 1, 69, 100
4, 20652, Note_off_c, 1, 69, 64
4, 20668, Note_on_c, 1, 73, 100
4, 20752, Note_off_c, 1, 73, 64
4, 20756, Note_on_c, 1, 69, 100
4, 20840, Note_off_c, 1, 69, 64
4, 20864, Note_on_c, 1, 74, 100
4, 20944, Note_off_c, 1, 74, 64
4, 20952, Note_on_c, 1, 69, 100
4, 21036, Note_off_c, 1, 69, 64
4, 21040, Note_on_c, 1, 76, 100
4, 21124, Note_off_c, 1, 76, 64
4, 21152, Note_on_c, 1, 69, 100
4, 21232, Note_off_c, 1, 69, 64
4, 21232, Note_on_c, 1, 78, 100
4, 21316, Note_off_c, 1, 78, 64
4, 21332, Note_on_c, 1, 69, 100
4, 21416, Note_off_c, 1, 69, 64
4, 21428, Note_on_c, 1, 79, 100
4, 21512, Note_off_c, 1, 79, 64
4, 21532, Note_on_c, 1, 69, 100
4, 21616, Note_off_c, 1, 69, 64
4, 21624, Note_on_c, 1, 81, 100
4, 21708, Note_off_c, 1, 81, 64
4, 21720, Note_on_c, 1, 78, 100
4, 21896, Note_off_c, 1, 78, 64
4, 21904, Note_on_c, 1, 76, 100
4, 21988, Note_off_c, 1, 76, 64
4, 22016, Note_on_c, 1, 74, 100
4, 22096, Note_off_c, 1, 74, 64
4, 22096, Note_on_c, 1, 69, 100
4, 22272, Note_off_c, 1, 69, 64
4, 22288, Note_on_c, 1, 73, 100
4, 22464, Note_off_c, 1, 73, 64
4, 22496, Note_on_c, 1, 74, 100
4, 22856, Note_off_c, 1, 74, 64
4, 23064, Note_on_c, 1, 74, 100
4, 23148, Note_off_c, 1, 74, 64
4, 23164, Note_on_c, 1, 72, 100
4, 23248, Note_off_c, 1, 72, 64
4, 23248, Note_on_c, 1, 74, 100
4, 23424, Note_off_c, 1, 74, 64
4, 23440, Note_on_c, 1, 71, 100
4, 23524, Note_off_c, 1, 71, 64
4, 23544, Note_on_c, 1, 69, 100
4, 23628, Note_off_c, 1, 69, 64
4, 23644, Note_on_c, 1, 71, 100
4, 23820, Note_off_c, 1, 71, 64
4, 24984, Note_on_c, 1, 71, 100
4, 25068, Note_off_c, 1, 71, 64
4, 25088, Note_on_c, 1, 72, 100
4, 25168, Note_off_c, 1, 72, 64
4, 25184, Note_on_c, 1, 74, 100
4, 25360, Note_off_c, 1, 74, 64
4, 25368, Note_on_c, 1, 76, 100
4, 25544, Note_off_c, 1, 76, 64
4, 25560, Note_on_c, 1, 69, 100
4, 25736, Note_off_c, 1, 69, 64
4, 25760, Note_on_c, 1, 81, 100
4, 25840, Note_off_c, 1, 81, 64
4, 25840, Note_on_c, 1, 79, 100
4, 25924, Note_off_c, 1, 79, 64
4, 25952, Note_on_c, 1, 81, 100
4, 26128, Note_off_c, 1, 81, 64
4, 26520, Note_on_c, 1, 81, 100
4, 26604, Note_off_c, 1, 81, 64
4, 26612, Note_on_c, 1, 79, 100
4, 26696, Note_off_c, 1, 79, 64
4, 26704, Note_on_c, 1, 81, 100
4, 26880, Note_off_c, 1, 81, 64
4, 27284, Note_on_c, 1, 81, 100
4, 27368, Note_off_c, 1, 81, 64
4, 27376, Note_on_c, 1, 79, 100
4, 27460, Note_off_c, 1, 79, 64
4, 27472, Note_on_c, 1, 81, 100
4, 27648, Note_off_c, 1, 81, 64
4, 28048, Note_on_c, 1, 74, 100
4, 28224, Note_off_c, 1, 74, 64
4, 28256, Note_on_c, 1, 78, 100
4, 28432, Note_off_c, 1, 78, 64
4, 28440, Note_on_c, 1, 81, 100
4, 28616, Note_off_c, 1, 81, 64
4, 28636, Note_on_c, 1, 78, 100
4, 28812, Note_off_c, 1, 78, 64
4, 28820, Note_on_c, 1, 74, 100
4, 28996, Note_off_c, 1, 74, 64
4, 29020, Note_on_c, 1, 78, 100
4, 29196, Note_off_c, 1, 78, 64
4, 29212, Note_on_c, 1, 81, 100
4, 29388, Note_off_c, 1, 81, 64
4, 29408, Note_on_c, 1, 78, 100
4, 29584, Note_off_c, 1, 78, 64
4, 29600, Note_on_c, 1, 69, 100
4, 29776, Note_off_c, 1, 69, 64
4, 29792, Note_on_c, 1, 74, 100
4, 29872, Note_off_c, 1, 74, 64
4, 29876, Note_on_c, 1, 78, 100
4, 29960, Note_off_c, 1, 78, 64
4, 29968, Note_on_c, 1, 76, 100
4, 30052, Note_off_c, 1, 76, 64
4, 30064, Note_on_c, 1, 74, 100
4, 30148, Note_off_c, 1, 74, 64
4, 30176, Note_on_c, 1, 73, 100
4, 30256, Note_off_c, 1, 73, 64
4, 30256, Note_on_c, 1, 76, 100
4, 30340, Note_off_c, 1, 76, 64
4, 30368, Note_on_c, 1, 69, 100
4, 30448, Note_off_c, 1, 69, 64
4, 30452, Note_on_c, 1, 71, 100
4, 30536, Note_off_c, 1, 71, 64
4, 30560, Note_on_c, 1, 73, 100
4, 30640, Note_off_c, 1, 73, 64
4, 30644, Note_on_c, 1, 74, 100
4, 30728, Note_off_c, 1, 74, 64
4, 30740, Note_on_c, 1, 76, 100
4, 30824, Note_off_c, 1, 76, 64
4, 30844, Note_on_c, 1, 78, 100
4, 30928, Note_off_c, 1, 78, 64
4, 30944, Note_on_c, 1, 79, 100
4, 31304, Note_off_c, 1, 79, 64
4, 31508, Note_on_c, 1, 79, 100
4, 31684, Note_off_c, 1, 79, 64
4, 31704, Note_on_c, 1, 78, 100
4, 32064, Note_off_c, 1, 78, 64
4, 32284, Note_on_c, 1, 78, 100
4, 32460, Note_off_c, 1, 78, 64
4, 32468, Note_on_c, 1, 78, 100
4, 32644, Note_off_c, 1, 78, 64
4, 32664, Note_on_c, 1, 78, 100
4, 32840, Note_off_c, 1, 78, 64
4, 32856, Note_on_c, 1, 78, 100
4, 33032, Note_off_c, 1, 78, 64
4, 33056, Note_on_c, 1, 76, 100
4, 33136, Note_off_c, 1, 76, 64
4, 33148, Note_on_c, 1, 78, 100
4, 33232, Note_off_c, 1, 78, 64
4, 33244, Note_on_c, 1, 76, 100
4, 33420, Note_off_c, 1, 76, 64
4, 33432, Note_on_c, 1, 76, 100
4, 33608, Note_off_c, 1, 76, 64
4, 33632, Note_on_c, 1, 76, 100
4, 33808, Note_off_c, 1, 76, 64
4, 33816, Note_on_c, 1, 74, 100
4, 33900, Note_off_c, 1, 74, 64
4, 33908, Note_on_c, 1, 76, 100
4, 33992, Note_off_c, 1, 76, 64
4, 34004, Note_on_c, 1, 74, 100
4, 34180, Note_off_c, 1, 74, 64
4, 34192, Note_on_c, 1, 71, 100
4, 34368, Note_off_c, 1, 71, 64
4, 34400, Note_on_c, 1, 69, 100
4, 34576, Note_off_c, 1, 69, 64
4, 34588, Note_on_c, 1, 69, 100
4, 34764, Note_off_c, 1, 69, 64
4, 34772, Note_on_c, 1, 69, 100
4, 35136, Note_off_c, 1, 69, 64
4, 35348, Note_on_c, 1, 74, 100
4, 35432, Note_off_c, 1, 74, 64
4, 35444, Note_on_c, 1, 73, 100
4, 35528, Note_off_c, 1, 73, 64
4, 35540, Note_on_c, 1, 74, 100
4, 35716, Note_off_c, 1, 74, 64
4, 36112, Note_on_c, 1, 74, 100
4, 36196, Note_off_c, 1, 74, 64
4, 36224, Note_on_c, 1, 73, 100
4, 36304, Note_off_c, 1, 73, 64
4, 36308, Note_on_c, 1, 74, 100
4, 36484, Note_off_c, 1, 74, 64
4, 36504, Note_on_c, 1, 74, 100
4, 36680, Note_off_c, 1, 74, 64
4, 36688, Note_on_c, 1, 74, 100
4, 36864, Note_off_c, 1, 74, 64
4, 36896, Note_on_c, 1, 74, 100
4, 37072, Note_off_c, 1, 74, 64
4, 37084, Note_on_c, 1, 74, 100
4, 37260, Note_off_c, 1, 74, 64
4, 37276, Note_on_c, 1, 74, 100
4, 37452, Note_off_c, 1, 74, 64
4, 37456, Note_on_c, 1, 74, 100
4, 37632, Note_off_c, 1, 74, 64
4, 37656, Note_on_c, 1, 74, 100
4, 37832, Note_off_c, 1, 74, 64
4, 37852, Note_on_c, 1, 74, 100
4, 38028, Note_off_c, 1, 74, 64
4, 38040, Note_on_c, 1, 74, 100
4, 38216, Note_off_c, 1, 74, 64
4, 38236, Note_on_c, 1, 74, 100
4, 38412, Note_off_c, 1, 74, 64
4, 38432, Note_on_c, 1, 69, 100
4, 38608, Note_off_c, 1, 69, 64
4, 38608, Note_on_c, 1, 67, 100
4, 38692, Note_off_c, 1, 67, 64
4, 38708, Note_on_c, 1, 66, 100
4, 38792, Note_off_c, 1, 66, 64
4, 38816, Note_on_c, 1, 67, 100
4, 38896, Note_off_c, 1, 67, 64
4, 38908, Note_on_c, 1, 69, 100
4, 38992, Note_off_c, 1, 69, 64
4, 38992, Note_on_c, 1, 67, 100
4, 39076, Note_off_c, 1, 67, 64
4, 39104, Note_on_c, 1, 71, 100
4, 39184, Note_off_c, 1, 71, 64
4, 39184, Note_on_c, 1, 67, 100
4, 39268, Note_off_c, 1, 67, 64
4, 39292, Note_on_c, 1, 72, 100
4, 39376, Note_off_c, 1, 72, 64
4, 39376, Note_on_c, 1, 67, 100
4, 39460, Note_off_c, 1, 67, 64
4, 39472, Note_on_c, 1, 66, 100
4, 39556, Note_off_c, 1, 66, 64
4, 39568, Note_on_c, 1, 67, 100
4, 39652, Note_off_c, 1, 67, 64
4, 39672, Note_on_c, 1, 69, 100
4, 39756, Note_off_c, 1, 69, 64
4, 39768, Note_on_c, 1, 67, 100
4, 39852, Note_off_c, 1, 67, 64
4, 39864, Note_on_c, 1, 74, 100
4, 39948, Note_off_c, 1, 74, 64
4, 39956, Note_on_c, 1, 67, 100
4, 40040, Note_off_c, 1, 67, 64
4, 40048, Note_on_c, 1, 76, 100
4, 40132, Note_off_c, 1, 76, 64
4, 40148, Note_on_c, 1, 71, 100
4, 40232, Note_off_c, 1, 71, 64
4, 40240, Note_on_c, 1, 69, 100
4, 40324, Note_off_c, 1, 69, 64
4, 40344, Note_on_c, 1, 71, 100
4, 40428, Note_off_c, 1, 71, 64
4, 40432, Note_on_c, 1, 72, 100
4, 40516, Note_off_c, 1, 72, 64
4, 40532, Note_on_c, 1, 71, 100
4, 40616, Note_off_c, 1, 71, 64
4, 40640, Note_on_c, 1, 62, 100
4, 40720, Note_off_c, 1, 62, 64
4, 40728, Note_on_c, 1, 72, 100
4, 40812, Note_off_c, 1, 72, 64
4, 40820, Note_on_c, 1, 64, 100
4, 40904, Note_off_c, 1, 64, 64
4, 40928, Note_on_c, 1, 71, 100
4, 41008, Note_off_c, 1, 71, 64
4, 41024, Note_on_c, 1, 69, 100
4, 41104, Note_off_c, 1, 69, 64
4, 41104, Note_on_c, 1, 71, 100
4, 41188, Note_off_c, 1, 71, 64
4, 41204, Note_on_c, 1, 72, 100
4, 41288, Note_off_c, 1, 72, 64
4, 41308, Note_on_c, 1, 71, 100
4, 41392, Note_off_c, 1, 71, 64
4, 41400, Note_on_c, 1, 65, 100
4, 41484, Note_off_c, 1, 65, 64
4, 41492, Note_on_c, 1, 72, 100
4, 41576, Note_off_c, 1, 72, 64
4, 41588, Note_on_c, 1, 64, 100
4, 41672, Note_off_c, 1, 64, 64
4, 41688, Note_on_c, 1, 62, 100
4, 41772, Note_off_c, 1, 62, 64
4, 41792, Note_on_c, 1, 60, 100
4, 41872, Note_off_c, 1, 60, 64
4, 41880, Note_on_c, 1, 62, 100
4, 41964, Note_off_c, 1, 62, 64
4, 41968, Note_on_c, 1, 64, 100
4, 42052, Note_off_c, 1, 64, 64
4, 42080, Note_on_c, 1, 62, 100
4, 42160, Note_off_c, 1, 62, 64
4, 42168, Note_on_c, 1, 72, 100
4, 42252, Note_off_c, 1, 72, 64
4, 42256, Note_on_c, 1, 62, 100
4, 42340, Note_off_c, 1, 62, 64
4, 42360, Note_on_c, 1, 71, 100
4, 42444, Note_off_c, 1, 71, 64
4, 42464, Note_on_c, 1, 72, 100
4, 42544, Note_off_c, 1, 72, 64
4, 42556, Note_on_c, 1, 67, 100
4, 42640, Note_off_c, 1, 67, 64
4, 42648, Note_on_c, 1, 69, 100
4, 42732, Note_off_c, 1, 69, 64
4, 42744, Note_on_c, 1, 71, 100
4, 42828, Note_off_c, 1, 71, 64
4, 42848, Note_on_c, 1, 72, 100
4, 43024, Note_off_c, 1, 72, 64
4, 43416, Note_on_c, 1, 81, 100
4, 43500, Note_off_c, 1, 81, 64
4, 43508, Note_on_c, 1, 83, 100
4, 43592, Note_off_c, 1, 83, 64
4, 43616, Note_on_c, 1, 81, 100
4, 43792, Note_off_c, 1, 81, 64
4, 43804, Note_on_c, 1, 81, 100
4, 43980, Note_off_c, 1, 81, 64
4, 43984, Note_on_c, 1, 81, 100
4, 44160, Note_off_c, 1, 81, 64
4, 44184, Note_on_c, 1, 79, 100
4, 44268, Note_off_c, 1, 79, 64
4, 44272, Note_on_c, 1, 81, 100
4, 44356, Note_off_c, 1, 81, 64
4, 44372, Note_on_c, 1, 79, 100
4, 44548, Note_off_c, 1, 79, 64
4, 44568, Note_on_c, 1, 79, 100
4, 44744, Note_off_c, 1, 79, 64
4, 44764, Note_on_c, 1, 79, 100
4, 44940, Note_off_c, 1, 79, 64
4, 44948, Note_on_c, 1, 77, 100
4, 45032, Note_off_c, 1, 77, 64
4, 45056, Note_on_c, 1, 76, 100
4, 45136, Note_off_c, 1, 76, 64
4, 45148, Note_on_c, 1, 77, 100
4, 45324, Note_off_c, 1, 77, 64
4, 45336, Note_on_c, 1, 69, 100
4, 45512, Note_off_c, 1, 69, 64
4, 45524, Note_on_c, 1, 71, 100
4, 45700, Note_off_c, 1, 71, 64
4, 45720, Note_on_c, 1, 71, 100
4, 45896, Note_off_c, 1, 71, 64
4, 45912, Note_on_c, 1, 71, 100
4, 45996, Note_off_c, 1, 71, 64
4, 46004, Note_on_c, 1, 69, 100
4, 46088, Note_off_c, 1, 69, 64
4, 46108, Note_on_c, 1, 71, 100
4, 46192, Note_off_c, 1, 71, 64
4, 46200, Note_on_c, 1, 72, 100
4, 46284, Note_off_c, 1, 72, 64
4, 46296, Note_on_c, 1, 74, 100
4, 46472, Note_off_c, 1, 74, 64
4, 46496, Note_on_c, 1, 67, 100
4, 46672, Note_on_c, 1, 67, 100
4, 46684, Note_off_c, 1, 67, 64
4, 46856, Note_off_c, 1, 67, 64
4, 46864, Note_on_c, 1, 67, 100
4, 47040, Note_off_c, 1, 67, 64
4, 47056, Note_on_c, 1, 67, 100
4, 47140, Note_off_c, 1, 67, 64
4, 47152, Note_on_c, 1, 65, 100
4, 47236, Note_off_c, 1, 65, 64
4, 47252, Note_on_c, 1, 67, 100
4, 47336, Note_off_c, 1, 67, 64
4, 47348, Note_on_c, 1, 69, 100
4, 47432, Note_off_c, 1, 69, 64
4, 47448, Note_on_c, 1, 67, 100
4, 47532, Note_off_c, 1, 67, 64
4, 47548, Note_on_c, 1, 72, 100
4, 47632, Note_off_c, 1, 72, 64
4, 47640, Note_on_c, 1, 71, 100
4, 47724, Note_off_c, 1, 71, 64
4, 47728, Note_on_c, 1, 74, 100
4, 47812, Note_off_c, 1, 74, 64
4, 47832, Note_on_c, 1, 72, 100
4, 47916, Note_off_c, 1, 72, 64
4, 47936, Note_on_c, 1, 71, 100
4, 48016, Note_off_c, 1, 71, 64
4, 48032, Note_on_c, 1, 72, 100
4, 48112, Note_off_c, 1, 72, 64
4, 48116, Note_on_c, 1, 74, 100
4, 48200, Note_off_c, 1, 74, 64
4, 48224, Note_on_c, 1, 72, 100
4, 48304, Note_off_c, 1, 72, 64
4, 48308, Note_on_c, 1, 76, 100
4, 48392, Note_off_c, 1, 76, 64
4, 48400, Note_on_c, 1, 74, 100
4, 48484, Note_off_c, 1, 74, 64
4, 48508, Note_on_c, 1, 77, 100
4, 48592, Note_off_c, 1, 77, 64
4, 48592, Note_on_c, 1, 76, 100
4, 48676, Note_off_c, 1, 76, 64
4, 48704, Note_on_c, 1, 74, 100
4, 48784, Note_off_c, 1, 74, 64
4, 48792, Note_on_c, 1, 76, 100
4, 48876, Note_off_c, 1, 76, 64
4, 48884, Note_on_c, 1, 77, 100
4, 48968, Note_off_c, 1, 77, 64
4, 48976, Note_on_c, 1, 76, 100
4, 49060, Note_off_c, 1, 76, 64
4, 49076, Note_on_c, 1, 77, 100
4, 49160, Note_off_c, 1, 77, 64
4, 49184, Note_on_c, 1, 76, 100
4, 49264, Note_off_c, 1, 76, 64
4, 49272, Note_on_c, 1, 74, 100
4, 49356, Note_off_c, 1, 74, 64
4, 49360, Note_on_c, 1, 72, 100
4, 49444, Note_off_c, 1, 72, 64
4, 49456, Note_on_c, 1, 74, 100
4, 49540, Note_off_c, 1, 74, 64
4, 49560, Note_on_c, 1, 72, 100
4, 49644, Note_off_c, 1, 72, 64
4, 49664, Note_on_c, 1, 71, 100
4, 49744, Note_off_c, 1, 71, 64
4, 49756, Note_on_c, 1, 72, 100
4, 49932, Note_off_c, 1, 72, 64
4, 49940, Note_on_c, 1, 69, 100
4, 50116, Note_off_c, 1, 69, 64
4, 50136, Note_on_c, 1, 67, 100
4, 50312, Note_off_c, 1, 67, 64
4, 50336, Note_on_c, 1, 62, 100
4, 50512, Note_off_c, 1, 62, 64
4, 50704, Note_on_c, 1, 55, 100
4, 50880, Note_off_c, 1, 55, 64
4, 50900, Note_on_c, 1, 59, 100
4, 51076, Note_off_c, 1, 59, 64
4, 51096, Note_on_c, 1, 62, 100
4, 51272, Note_off_c, 1, 62, 64
4, 51284, Note_on_c, 1, 59, 100
4, 51460, Note_off_c, 1, 59, 64
4, 51476, Note_on_c, 1, 55, 100
4, 51652, Note_off_c, 1, 55, 64
4, 51676, Note_on_c, 1, 59, 100
4, 51852, Note_off_c, 1, 59, 64
4, 51860, Note_on_c, 1, 62, 100
4, 52036, Note_off_c, 1, 62, 64
4, 52052, Note_on_c, 1, 59, 100
4, 52228, Note_off_c, 1, 59, 64
4, 52248, Note_on_c, 1, 55, 100
4, 52424, Note_off_c, 1, 55, 64
4, 52448, Note_on_c, 1, 62, 100
4, 52624, Note_off_c, 1, 62, 64
4, 52632, Note_on_c, 1, 62, 100
4, 52716, Note_off_c, 1, 62, 64
4, 52724, Note_on_c, 1, 62, 100
4, 52808, Note_off_c, 1, 62, 64
4, 52828, Note_on_c, 1, 62, 100
4, 53004, Note_off_c, 1, 62, 64
4, 53400, Note_on_c, 1, 69, 100
4, 53484, Note_off_c, 1, 69, 64
4, 53496, Note_on_c, 1, 67, 100
4, 53580, Note_off_c, 1, 67, 64
4, 53592, Note_on_c, 1, 69, 100
4, 53768, Note_off_c, 1, 69, 64
4, 54176, Note_on_c, 1, 69, 100
4, 54256, Note_off_c, 1, 69, 64
4, 54256, Note_on_c, 1, 67, 100
4, 54340, Note_off_c, 1, 67, 64
4, 54364, Note_on_c, 1, 69, 100
4, 54540, Note_off_c, 1, 69, 64
4, 54928, Note_on_c, 1, 69, 100
4, 55012, Note_off_c, 1, 69, 64
4, 55028, Note_on_c, 1, 67, 100
4, 55112, Note_off_c, 1, 67, 64
4, 55120, Note_on_c, 1, 69, 100
4, 55296, Note_off_c, 1, 69, 64
4, 55312, Note_on_c, 1, 67, 100
4, 55396, Note_off_c, 1, 67, 64
4, 55420, Note_on_c, 1, 66, 100
4, 55504, Note_off_c, 1, 66, 64
4, 55520, Note_on_c, 1, 67, 100
4, 55696, Note_off_c, 1, 67, 64
4, 55704, Note_on_c, 1, 67, 100
4, 55880, Note_off_c, 1, 67, 64
4, 55896, Note_on_c, 1, 66, 100
4, 56072, Note_off_c, 1, 66, 64
4, 56092, Note_on_c, 1, 67, 100
4, 56176, Note_off_c, 1, 67, 64
4, 56184, Note_on_c, 1, 69, 100
4, 56268, Note_off_c, 1, 69, 64
4, 56284, Note_on_c, 1, 67, 100
4, 56460, Note_off_c, 1, 67, 64
4, 56848, Note_on_c, 1, 62, 100
4, 57024, Note_off_c, 1, 62, 64
4, 57056, Note_on_c, 1, 59, 100
4, 57232, Note_off_c, 1, 59, 64
4, 57236, Note_on_c, 1, 55, 100
4, 57412, Note_off_c, 1, 55, 64
4, 58016, Note_on_c, 1, 71, 100
4, 58096, Note_off_c, 1, 71, 64
4, 58104, Note_on_c, 1, 69, 100
4, 58188, Note_off_c, 1, 69, 64
4, 58208, Note_on_c, 1, 71, 100
4, 58384, Note_off_c, 1, 71, 64
4, 58388, Note_on_c, 1, 74, 100
4, 58472, Note_off_c, 1, 74, 64
4, 58492, Note_on_c, 1, 72, 100
4, 58576, Note_off_c, 1, 72, 64
4, 58588, Note_on_c, 1, 74, 100
4, 58764, Note_off_c, 1, 74, 64
4, 58772, Note_on_c, 1, 71, 100
4, 58856, Note_off_c, 1, 71, 64
4, 58880, Note_on_c, 1, 69, 100
4, 58960, Note_off_c, 1, 69, 64
4, 58976, Note_on_c, 1, 71, 100
4, 59152, Note_off_c, 1, 71, 64
4, 59920, Note_on_c, 1, 79, 100
4, 60004, Note_off_c, 1, 79, 64
4, 60028, Note_on_c, 1, 78, 100
4, 60112, Note_off_c, 1, 78, 64
4, 60116, Note_on_c, 1, 79, 100
4, 60292, Note_off_c, 1, 79, 64
4, 60308, Note_on_c, 1, 67, 100
4, 60392, Note_off_c, 1, 67, 64
4, 60416, Note_on_c, 1, 69, 100
4, 60496, Note_off_c, 1, 69, 64
4, 60508, Note_on_c, 1, 71, 100
4, 60684, Note_off_c, 1, 71, 64
4, 60692, Note_on_c, 1, 73, 100
4, 60868, Note_off_c, 1, 73, 64
4, 60888, Note_on_c, 1, 69, 100
4, 60972, Note_off_c, 1, 69, 64
4, 60976, Note_on_c, 1, 67, 100
4, 61060, Note_off_c, 1, 67, 64
4, 61072, Note_on_c, 1, 69, 100
4, 61156, Note_off_c, 1, 69, 64
4, 61180, Note_on_c, 1, 71, 100
4, 61264, Note_off_c, 1, 71, 64
4, 61272, Note_on_c, 1, 69, 100
4, 61356, Note_off_c, 1, 69, 64
4, 61364, Note_on_c, 1, 72, 100
4, 61448, Note_off_c, 1, 72, 64
4, 61456, Note_on_c, 1, 71, 100
4, 61540, Note_off_c, 1, 71, 64
4, 61560, Note_on_c, 1, 74, 100
4, 61644, Note_off_c, 1, 74, 64
4, 61652, Note_on_c, 1, 69, 100
4, 61736, Note_off_c, 1, 69, 64
4, 61748, Note_on_c, 1, 67, 100
4, 61832, Note_off_c, 1, 67, 64
4, 61844, Note_on_c, 1, 69, 100
4, 61928, Note_off_c, 1, 69, 64
4, 61948, Note_on_c, 1, 71, 100
4, 62032, Note_off_c, 1, 71, 64
4, 62044, Note_on_c, 1, 69, 100
4, 62128, Note_off_c, 1, 69, 64
4, 62140, Note_on_c, 1, 78, 100
4, 62224, Note_off_c, 1, 78, 64
4, 62236, Note_on_c, 1, 71, 100
4, 62320, Note_off_c, 1, 71, 64
4, 62320, Note_on_c, 1, 79, 100
4, 62404, Note_off_c, 1, 79, 64
4, 62420, Note_on_c, 1, 69, 100
4, 62504, Note_off_c, 1, 69, 64
4, 62528, Note_on_c, 1, 67, 100
4, 62608, Note_off_c, 1, 67, 64
4, 62612, Note_on_c, 1, 69, 100
4, 62696, Note_off_c, 1, 69, 64
4, 62708, Note_on_c, 1, 71, 100
4, 62792, Note_off_c, 1, 71, 64
4, 62800, Note_on_c, 1, 69, 100
4, 62884, Note_off_c, 1, 69, 64
4, 62900, Note_on_c, 1, 79, 100
4, 62984, Note_off_c, 1, 79, 64
4, 62996, Note_on_c, 1, 78, 100
4, 63080, Note_off_c, 1, 78, 64
4, 63104, Note_on_c, 1, 81, 100
4, 63184, Note_off_c, 1, 81, 64
4, 63188, Note_on_c, 1, 83, 100
4, 63364, Note_off_c, 1, 83, 64
4, 63380, Note_on_c, 1, 81, 100
4, 63464, Note_off_c, 1, 81, 64
4, 63484, Note_on_c, 1, 79, 100
4, 63568, Note_off_c, 1, 79, 64
4, 63580, Note_on_c, 1, 81, 100
4, 63756, Note_off_c, 1, 81, 64
4, 63768, Note_on_c, 1, 79, 100
4, 63852, Note_off_c, 1, 79, 64
4, 63860, Note_on_c, 1, 78, 100
4, 63944, Note_off_c, 1, 78, 64
4, 63964, Note_on_c, 1, 79, 100
4, 64140, Note_off_c, 1, 79, 64
4, 64148, Note_on_c, 1, 78, 100
4, 64232, Note_off_c, 1, 78, 64
4, 64252, Note_on_c, 1, 76, 100
4, 64336, Note_off_c, 1, 76, 64
4, 64336, Note_on_c, 1, 74, 100
4, 64420, Note_off_c, 1, 74, 64
4, 64444, Note_on_c, 1, 79, 100
4, 64528, Note_off_c, 1, 79, 64
4, 64540, Note_on_c, 1, 74, 100
4, 64624, Note_off_c, 1, 74, 64
4, 64624, Note_on_c, 1, 79, 100
4, 64708, Note_off_c, 1, 79, 64
4, 64732, Note_on_c, 1, 76, 100
4, 64908, Note_off_c, 1, 76, 64
4, 64916, Note_on_c, 1, 74, 100
4, 65000, Note_off_c, 1, 74, 64
4, 65016, Note_on_c, 1, 72, 100
4, 65100, Note_off_c, 1, 72, 64
4, 65120, Note_on_c, 1, 71, 100
4, 65200, Note_off_c, 1, 71, 64
4, 65208, Note_on_c, 1, 79, 100
4, 65292, Note_off_c, 1, 79, 64
4, 65304, Note_on_c, 1, 71, 100
4, 65388, Note_off_c, 1, 71, 64
4, 65392, Note_on_c, 1, 79, 100
4, 65476, Note_off_c, 1, 79, 64
4, 65500, Note_on_c, 1, 72, 100
4, 65676, Note_off_c, 1, 72, 64
4, 65688, Note_on_c, 1, 71, 100
4, 65772, Note_off_c, 1, 71, 64
4, 65780, Note_on_c, 1, 69, 100
4, 65864, Note_off_c, 1, 69, 64
4, 65880, Note_on_c, 1, 67, 100
4, 66056, Note_off_c, 1, 67, 64
4, 66076, Note_on_c, 1, 69, 100
4, 66252, Note_off_c, 1, 69, 64
4, 66256, Note_on_c, 1, 71, 100
4, 66432, Note_off_c, 1, 71, 64
4, 66448, Note_on_c, 1, 73, 100
4, 66624, Note_off_c, 1, 73, 64
4, 66648, Note_on_c, 1, 74, 100
4, 66824, Note_off_c, 1, 74, 64
4, 66844, Note_on_c, 1, 62, 100
4, 66928, Note_off_c, 1, 62, 64
4, 66932, Note_on_c, 1, 64, 100
4, 67016, Note_off_c, 1, 64, 64
4, 67036, Note_on_c, 1, 66, 100
4, 67212, Note_off_c, 1, 66, 64
4, 67232, Note_on_c, 1, 67, 100
4, 67408, Note_off_c, 1, 67, 64
4, 67420, Note_on_c, 1, 69, 100
4, 67596, Note_off_c, 1, 69, 64
4, 67604, Note_on_c, 1, 78, 100
4, 67780, Note_off_c, 1, 78, 64
4, 67800, Note_on_c, 1, 79, 100
4, 67976, Note_off_c, 1, 79, 64
4, 67992, Note_on_c, 1, 76, 100
4, 68168, Note_off_c, 1, 76, 64
4, 68176, Note_on_c, 1, 74, 100
4, 68352, Note_off_c, 1, 74, 64
4, 68372, Note_on_c, 1, 78, 100
4, 68548, Note_off_c, 1, 78, 64
4, 68560, Note_on_c, 1, 79, 100
4, 68736, Note_off_c, 1, 79, 64
4, 68764, Note_on_c, 1, 78, 100
4, 68848, Note_off_c, 1, 78, 64
4, 68848, Note_on_c, 1, 76, 100
4, 68932, Note_off_c, 1, 76, 64
4, 68956, Note_on_c, 1, 74, 100
4, 69040, Note_off_c, 1, 74, 64
4, 69052, Note_on_c, 1, 72, 100
4, 69136, Note_off_c, 1, 72, 64
4, 69148, Note_on_c, 1, 71, 100
4, 69232, Note_off_c, 1, 71, 64
4, 69248, Note_on_c, 1, 69, 100
4, 69328, Note_off_c, 1, 69, 64
4, 69340, Note_on_c, 1, 71, 100
4, 69516, Note_off_c, 1, 71, 64
4, 69528, Note_on_c, 1, 69, 100
4, 69612, Note_off_c, 1, 69, 64
4, 69620, Note_on_c, 1, 67, 100
4, 69704, Note_off_c, 1, 67, 64
4, 69712, Note_on_c, 1, 74, 100
4, 69888, Note_off_c, 1, 74, 64
4, 69908, Note_on_c, 1, 62, 100
4, 70084, Note_off_c, 1, 62, 64
4, 70108, Note_on_c, 1, 67, 100
4, 70468, Note_off_c, 1, 67, 64
4, 70880, Note_on_c, 1, 74, 100
4, 70960, Note_off_c, 1, 74, 64
4, 70968, Note_on_c, 1, 72, 100
4, 71052, Note_off_c, 1, 72, 64
4, 71060, Note_on_c, 1, 74, 100
4, 71236, Note_off_c, 1, 74, 64
4, 71648, Note_on_c, 1, 74, 100
4, 71728, Note_off_c, 1, 74, 64
4, 71740, Note_on_c, 1, 72, 100
4, 71824, Note_off_c, 1, 72, 64
4, 71828, Note_on_c, 1, 74, 100
4, 72004, Note_off_c, 1, 74, 64
4, 72408, Note_on_c, 1, 72, 100
4, 72492, Note_off_c, 1, 72, 64
4, 72512, Note_on_c, 1, 71, 100
4, 72592, Note_off_c, 1, 71, 64
4, 72596, Note_on_c, 1, 72, 100
4, 72772, Note_off_c, 1, 72, 64
4, 73184, Note_on_c, 1, 72, 100
4, 73264, Note_off_c, 1, 72, 64
4, 73268, Note_on_c, 1, 71, 100
4, 73352, Note_off_c, 1, 71, 64
4, 73372, Note_on_c, 1, 72, 100
4, 73548, Note_off_c, 1, 72, 64
4, 73944, Note_on_c, 1, 69, 100
4, 74028, Note_off_c, 1, 69, 64
4, 74032, Note_on_c, 1, 67, 100
4, 74116, Note_off_c, 1, 67, 64
4, 74144, Note_on_c, 1, 69, 100
4, 74320, Note_off_c, 1, 69, 64
4, 74712, Note_on_c, 1, 69, 100
4, 74796, Note_off_c, 1, 69, 64
4, 74812, Note_on_c, 1, 67, 100
4, 74896, Note_off_c, 1, 67, 64
4, 74896, Note_on_c, 1, 69, 100
4, 75072, Note_off_c, 1, 69, 64
4, 75484, Note_on_c, 1, 67, 100
4, 75568, Note_off_c, 1, 67, 64
4, 75580, Note_on_c, 1, 66, 100
4, 75664, Note_off_c, 1, 66, 64
4, 75664, Note_on_c, 1, 67, 100
4, 75748, Note_off_c, 1, 67, 64
4, 75772, Note_on_c, 1, 69, 100
4, 75856, Note_off_c, 1, 69, 64
4, 75856, Note_on_c, 1, 71, 100
4, 75940, Note_off_c, 1, 71, 64
4, 75956, Note_on_c, 1, 69, 100
4, 76040, Note_off_c, 1, 69, 64
4, 76060, Note_on_c, 1, 67, 100
4, 76144, Note_off_c, 1, 67, 64
4, 76160, Note_on_c, 1, 69, 100
4, 76240, Note_off_c, 1, 69, 64
4, 76252, Note_on_c, 1, 66, 100
4, 76612, Note_off_c, 1, 66, 64
4, 76736, Note_on_c, 1, 74, 100
4, 76816, Note_off_c, 1, 74, 64
4, 76824, Note_on_c, 1, 69, 100
4, 76908, Note_off_c, 1, 69, 64
4, 76928, Note_on_c, 1, 71, 100
4, 77008, Note_off_c, 1, 71, 64
4, 77024, Note_on_c, 1, 72, 100
4, 77104, Note_off_c, 1, 72, 64
4, 77116, Note_on_c, 1, 71, 100
4, 77200, Note_off_c, 1, 71, 64
4, 77212, Note_on_c, 1, 72, 100
4, 77296, Note_off_c, 1, 72, 64
4, 77308, Note_on_c, 1, 81, 100
4, 77392, Note_off_c, 1, 81, 64
4, 77392, Note_on_c, 1, 78, 100
4, 77476, Note_off_c, 1, 78, 64
4, 77500, Note_on_c, 1, 75, 100
4, 77584, Note_off_c, 1, 75, 64
4, 77584, Note_on_c, 1, 72, 100
4, 77668, Note_off_c, 1, 72, 64
4, 77688, Note_on_c, 1, 69, 100
4, 77772, Note_off_c, 1, 69, 64
4, 77788, Note_on_c, 1, 72, 100
4, 77872, Note_off_c, 1, 72, 64
4, 77884, Note_on_c, 1, 71, 100
4, 77968, Note_off_c, 1, 71, 64
4, 77984, Note_on_c, 1, 72, 100
4, 78064, Note_off_c, 1, 72, 64
4, 78080, Note_on_c, 1, 81, 100
4, 78160, Note_off_c, 1, 81, 64
4, 78160, Note_on_c, 1, 78, 100
4, 78244, Note_off_c, 1, 78, 64
4, 78260, Note_on_c, 1, 75, 100
4, 78344, Note_off_c, 1, 75, 64
4, 78364, Note_on_c, 1, 72, 100
4, 78448, Note_off_c, 1, 72, 64
4, 78456, Note_on_c, 1, 69, 100
4, 78540, Note_off_c, 1, 69, 64
4, 78552, Note_on_c, 1, 71, 100
4, 78636, Note_off_c, 1, 71, 64
4, 78652, Note_on_c, 1, 69, 100
4, 78736, Note_off_c, 1, 69, 64
4, 78744, Note_on_c, 1, 71, 100
4, 78828, Note_off_c, 1, 71, 64
4, 78836, Note_on_c, 1, 81, 100
4, 78920, Note_off_c, 1, 81, 64
4, 78936, Note_on_c, 1, 78, 100
4, 79020, Note_off_c, 1, 78, 64
4, 79028, Note_on_c, 1, 75, 100
4, 79112, Note_off_c, 1, 75, 64
4, 79132, Note_on_c, 1, 71, 100
4, 79216, Note_off_c, 1, 71, 64
4, 79216, Note_on_c, 1, 66, 100
4, 79300, Note_off_c, 1, 66, 64
4, 79312, Note_on_c, 1, 71, 100
4, 79396, Note_off_c, 1, 71, 64
4, 79424, Note_on_c, 1, 69, 100
4, 79504, Note_off_c, 1, 69, 64
4, 79504, Note_on_c, 1, 71, 100
4, 79588, Note_off_c, 1, 71, 64
4, 79604, Note_on_c, 1, 81, 100
4, 79688, Note_off_c, 1, 81, 64
4, 79696, Note_on_c, 1, 78, 100
4, 79780, Note_off_c, 1, 78, 64
4, 79800, Note_on_c, 1, 75, 100
4, 79884, Note_off_c, 1, 75, 64
4, 79896, Note_on_c, 1, 71, 100
4, 79980, Note_off_c, 1, 71, 64
4, 79988, Note_on_c, 1, 66, 100
4, 80072, Note_off_c, 1, 66, 64
4, 80088, Note_on_c, 1, 69, 100
4, 80172, Note_off_c, 1, 69, 64
4, 80180, Note_on_c, 1, 67, 100
4, 80264, Note_off_c, 1, 67, 64
4, 80276, Note_on_c, 1, 69, 100
4, 80360, Note_off_c, 1, 69, 64
4, 80380, Note_on_c, 1, 78, 100
4, 80464, Note_off_c, 1, 78, 64
4, 80480, Note_on_c, 1, 75, 100
4, 80560, Note_off_c, 1, 75, 64
4, 80576, Note_on_c, 1, 71, 100
4, 80656, Note_off_c, 1, 71, 64
4, 80664, Note_on_c, 1, 69, 100
4, 80748, Note_off_c, 1, 69, 64
4, 80760, Note_on_c, 1, 66, 100
4, 80844, Note_off_c, 1, 66, 64
4, 80852, Note_on_c, 1, 69, 100
4, 80936, Note_off_c, 1, 69, 64
4, 80960, Note_on_c, 1, 67, 100
4, 81040, Note_off_c, 1, 67, 64
4, 81052, Note_on_c, 1, 69, 100
4, 81136, Note_off_c, 1, 69, 64
4, 81140, Note_on_c, 1, 78, 100
4, 81224, Note_off_c, 1, 78, 64
4, 81244, Note_on_c, 1, 75, 100
4, 81328, Note_off_c, 1, 75, 64
4, 81340, Note_on_c, 1, 71, 100
4, 81424, Note_off_c, 1, 71, 64
4, 81436, Note_on_c, 1, 69, 100
4, 81520, Note_off_c, 1, 69, 64
4, 81536, Note_on_c, 1, 66, 100
4, 81616, Note_off_c, 1, 66, 64
4, 81628, Note_on_c, 1, 67, 100
4, 81804, Note_off_c, 1, 67, 64
4, 81812, Note_on_c, 1, 67, 100
4, 81896, Note_off_c, 1, 67, 64
4, 81904, Note_on_c, 1, 66, 100
4, 81988, Note_off_c, 1, 66, 64
4, 82008, Note_on_c, 1, 67, 100
4, 82184, Note_off_c, 1, 67, 64
4, 83356, Note_on_c, 1, 64, 100
4, 83440, Note_off_c, 1, 64, 64
4, 83448, Note_on_c, 1, 66, 100
4, 83532, Note_off_c, 1, 66, 64
4, 83536, Note_on_c, 1, 67, 100
4, 83712, Note_off_c, 1, 67, 64
4, 83736, Note_on_c, 1, 69, 100
4, 83912, Note_off_c, 1, 69, 64
4, 83928, Note_on_c, 1, 71, 100
4, 84104, Note_off_c, 1, 71, 64
4, 84128, Note_on_c, 1, 69, 100
4, 84208, Note_off_c, 1, 69, 64
4, 84224, Note_on_c, 1, 67, 100
4, 84304, Note_off_c, 1, 67, 64
4, 84316, Note_on_c, 1, 69, 100
4, 84492, Note_off_c, 1, 69, 64
4, 84500, Note_on_c, 1, 75, 100
4, 84584, Note_off_c, 1, 75, 64
4, 84592, Note_on_c, 1, 73, 100
4, 84676, Note_off_c, 1, 73, 64
4, 84692, Note_on_c, 1, 75, 100
4, 84868, Note_off_c, 1, 75, 64
4, 86232, Note_on_c, 1, 79, 100
4, 86408, Note_off_c, 1, 79, 64
4, 86428, Note_on_c, 1, 78, 100
4, 86512, Note_off_c, 1, 78, 64
4, 86512, Note_on_c, 1, 76, 100
4, 86596, Note_off_c, 1, 76, 64
4, 86612, Note_on_c, 1, 78, 100
4, 86788, Note_off_c, 1, 78, 64
4, 86800, Note_on_c, 1, 76, 100
4, 86884, Note_off_c, 1, 76, 64
4, 86912, Note_on_c, 1, 75, 100
4, 86992, Note_off_c, 1, 75, 64
4, 87004, Note_on_c, 1, 84, 100
4, 87272, Note_off_c, 1, 84, 64
4, 87280, Note_on_c, 1, 83, 100
4, 87364, Note_off_c, 1, 83, 64
4, 87376, Note_on_c, 1, 81, 100
4, 87460, Note_off_c, 1, 81, 64
4, 87484, Note_on_c, 1, 79, 100
4, 87568, Note_off_c, 1, 79, 64
4, 87584, Note_on_c, 1, 78, 100
4, 87664, Note_off_c, 1, 78, 64
4, 87676, Note_on_c, 1, 76, 100
4, 87760, Note_off_c, 1, 76, 64
4, 87772, Note_on_c, 1, 83, 100
4, 87948, Note_off_c, 1, 83, 64
4, 87952, Note_on_c, 1, 81, 100
4, 88036, Note_off_c, 1, 81, 64
4, 88060, Note_on_c, 1, 79, 100
4, 88144, Note_off_c, 1, 79, 64
4, 88156, Note_on_c, 1, 78, 100
4, 88332, Note_off_c, 1, 78, 64
4, 88348, Note_on_c, 1, 76, 100
4, 88432, Note_off_c, 1, 76, 64
4, 88448, Note_on_c, 1, 75, 100
4, 88528, Note_off_c, 1, 75, 64
4, 88528, Note_on_c, 1, 76, 100
4, 88704, Note_off_c, 1, 76, 64
4, 88736, Note_on_c, 1, 71, 100
4, 88816, Note_off_c, 1, 71, 64
4, 88832, Note_on_c, 1, 69, 100
4, 88912, Note_off_c, 1, 69, 64
4, 88924, Note_on_c, 1, 71, 100
4, 89100, Note_off_c, 1, 71, 64
4, 89504, Note_on_c, 1, 71, 100
4, 89584, Note_off_c, 1, 71, 64
4, 89592, Note_on_c, 1, 69, 100
4, 89676, Note_off_c, 1, 69, 64
4, 89680, Note_on_c, 1, 71, 100
4, 89856, Note_off_c, 1, 71, 64
4, 90272, Note_on_c, 1, 71, 100
4, 90352, Note_off_c, 1, 71, 64
4, 90360, Note_on_c, 1, 69, 100
4, 90444, Note_off_c, 1, 69, 64
4, 90452, Note_on_c, 1, 71, 100
4, 90628, Note_off_c, 1, 71, 64
4, 91024, Note_on_c, 1, 71, 100
4, 91108, Note_off_c, 1, 71, 64
4, 91132, Note_on_c, 1, 69, 100
4, 91216, Note_off_c, 1, 69, 64
4, 91232, Note_on_c, 1, 67, 100
4, 91408, Note_off_c, 1, 67, 64
4, 91420, Note_on_c, 1, 68, 100
4, 91596, Note_off_c, 1, 68, 64
4, 91616, Note_on_c, 1, 69, 100
4, 91976, Note_off_c, 1, 69, 64
4, 92184, Note_on_c, 1, 71, 100
4, 92360, Note_off_c, 1, 71, 64
4, 92384, Note_on_c, 1, 73, 100
4, 92464, Note_off_c, 1, 73, 64
4, 92476, Note_on_c, 1, 76, 100
4, 92560, Note_off_c, 1, 76, 64
4, 92572, Note_on_c, 1, 69, 100
4, 92656, Note_off_c, 1, 69, 64
4, 92656, Note_on_c, 1, 71, 100
4, 92740, Note_off_c, 1, 71, 64
4, 92768, Note_on_c, 1, 73, 100
4, 92848, Note_off_c, 1, 73, 64
4, 92860, Note_on_c, 1, 74, 100
4, 92944, Note_off_c, 1, 74, 64
4, 92960, Note_on_c, 1, 76, 100
4, 93040, Note_off_c, 1, 76, 64
4, 93056, Note_on_c, 1, 74, 100
4, 93136, Note_off_c, 1, 74, 64
4, 93140, Note_on_c, 1, 73, 100
4, 93316, Note_off_c, 1, 73, 64
4, 93328, Note_on_c, 1, 81, 100
4, 93504, Note_off_c, 1, 81, 64
4, 93716, Note_on_c, 1, 80, 100
4, 93892, Note_off_c, 1, 80, 64
4, 93908, Note_on_c, 1, 81, 100
4, 94084, Note_off_c, 1, 81, 64
4, 94112, Note_on_c, 1, 76, 100
4, 94288, Note_off_c, 1, 76, 64
4, 94304, Note_on_c, 1, 69, 100
4, 94480, Note_off_c, 1, 69, 64
4, 94484, Note_on_c, 1, 73, 100
4, 94660, Note_off_c, 1, 73, 64
4, 94676, Note_on_c, 1, 74, 100
4, 94852, Note_off_c, 1, 74, 64
4, 94880, Note_on_c, 1, 81, 100
4, 94960, Note_off_c, 1, 81, 64
4, 94968, Note_on_c, 1, 79, 100
4, 95052, Note_off_c, 1, 79, 64
4, 95060, Note_on_c, 1, 81, 100
4, 95236, Note_off_c, 1, 81, 64
4, 95648, Note_on_c, 1, 81, 100
4, 95728, Note_off_c, 1, 81, 64
4, 95740, Note_on_c, 1, 79, 100
4, 95824, Note_off_c, 1, 79, 64
4, 95828, Note_on_c, 1, 81, 100
4, 96004, Note_off_c, 1, 81, 64
4, 96404, Note_on_c, 1, 81, 100
4, 96488, Note_off_c, 1, 81, 64
4, 96504, Note_on_c, 1, 79, 100
4, 96588, Note_off_c, 1, 79, 64
4, 96604, Note_on_c, 1, 81, 100
4, 96780, Note_off_c, 1, 81, 64
4, 97568, Note_on_c, 1, 74, 100
4, 97744, Note_off_c, 1, 74, 64
4, 97756, Note_on_c, 1, 71, 100
4, 97840, Note_off_c, 1, 71, 64
4, 97852, Note_on_c, 1, 74, 100
4, 97936, Note_off_c, 1, 74, 64
4, 97940, Note_on_c, 1, 67, 100
4, 98024, Note_off_c, 1, 67, 64
4, 98040, Note_on_c, 1, 69, 100
4, 98124, Note_off_c, 1, 69, 64
4, 98144, Note_on_c, 1, 71, 100
4, 98224, Note_off_c, 1, 71, 64
4, 98236, Note_on_c, 1, 72, 100
4, 98320, Note_off_c, 1, 72, 64
4, 98324, Note_on_c, 1, 74, 100
4, 98408, Note_off_c, 1, 74, 64
4, 98424, Note_on_c, 1, 72, 100
4, 98508, Note_off_c, 1, 72, 64
4, 98524, Note_on_c, 1, 71, 100
4, 98700, Note_off_c, 1, 71, 64
4, 98716, Note_on_c, 1, 74, 100
4, 98800, Note_off_c, 1, 74, 64
4, 98808, Note_on_c, 1, 72, 100
4, 98892, Note_off_c, 1, 72, 64
4, 98908, Note_on_c, 1, 74, 100
4, 99084, Note_off_c, 1, 74, 64
4, 99860, Note_on_c, 1, 71, 100
4, 99944, Note_off_c, 1, 71, 64
4, 99952, Note_on_c, 1, 72, 100
4, 100036, Note_off_c, 1, 72, 64
4, 100048, Note_on_c, 1, 74, 100
4, 100224, Note_off_c, 1, 74, 64
4, 100240, Note_on_c, 1, 71, 100
4, 100324, Note_off_c, 1, 71, 64
4, 100344, Note_on_c, 1, 72, 100
4, 100428, Note_off_c, 1, 72, 64
4, 100432, Note_on_c, 1, 71, 100
4, 100608, Note_off_c, 1, 71, 64
4, 101596, Note_on_c, 1, 76, 100
4, 101680, Note_off_c, 1, 76, 64
4, 101696, Note_on_c, 1, 74, 100
4, 101776, Note_off_c, 1, 74, 64
4, 101780, Note_on_c, 1, 76, 100
4, 101956, Note_off_c, 1, 76, 64
4, 102368, Note_on_c, 1, 76, 100
4, 102448, Note_off_c, 1, 76, 64
4, 102460, Note_on_c, 1, 74, 100
4, 102544, Note_off_c, 1, 74, 64
4, 102560, Note_on_c, 1, 76, 100
4, 102736, Note_off_c, 1, 76, 64
4, 103120, Note_on_c, 1, 61, 100
4, 103204, Note_off_c, 1, 61, 64
4, 103220, Note_on_c, 1, 59, 100
4, 103304, Note_off_c, 1, 59, 64
4, 103320, Note_on_c, 1, 61, 100
4, 103496, Note_off_c, 1, 61, 64
4, 103900, Note_on_c, 1, 61, 100
4, 103984, Note_off_c, 1, 61, 64
4, 103996, Note_on_c, 1, 59, 100
4, 104080, Note_off_c, 1, 59, 64
4, 104080, Note_on_c, 1, 61, 100
4, 104256, Note_off_c, 1, 61, 64
4, 104660, Note_on_c, 1, 79, 100
4, 104744, Note_off_c, 1, 79, 64
4, 104760, Note_on_c, 1, 78, 100
4, 104844, Note_off_c, 1, 78, 64
4, 104864, Note_on_c, 1, 79, 100
4, 105040, Note_off_c, 1, 79, 64
4, 105424, Note_on_c, 1, 73, 100
4, 105508, Note_off_c, 1, 73, 64
4, 105528, Note_on_c, 1, 71, 100
4, 105612, Note_off_c, 1, 71, 64
4, 105616, Note_on_c, 1, 73, 100
4, 105792, Note_off_c, 1, 73, 64
4, 106008, Note_on_c, 1, 78, 100
4, 106092, Note_off_c, 1, 78, 64
4, 106100, Note_on_c, 1, 76, 100
4, 106184, Note_off_c, 1, 76, 64
4, 106204, Note_on_c, 1, 78, 100
4, 106380, Note_off_c, 1, 78, 64
4, 106400, Note_on_c, 1, 74, 100
4, 106480, Note_off_c, 1, 74, 64
4, 106492, Note_on_c, 1, 73, 100
4, 106576, Note_off_c, 1, 73, 64
4, 106584, Note_on_c, 1, 74, 100
4, 106760, Note_off_c, 1, 74, 64
4, 106768, Note_on_c, 1, 78, 100
4, 106852, Note_off_c, 1, 78, 64
4, 106864, Note_on_c, 1, 76, 100
4, 106948, Note_off_c, 1, 76, 64
4, 106976, Note_on_c, 1, 78, 100
4, 107152, Note_off_c, 1, 78, 64
4, 107160, Note_on_c, 1, 71, 100
4, 107244, Note_off_c, 1, 71, 64
4, 107260, Note_on_c, 1, 70, 100
4, 107344, Note_off_c, 1, 70, 64
4, 107356, Note_on_c, 1, 71, 100
4, 107532, Note_off_c, 1, 71, 64
4, 107552, Note_on_c, 1, 78, 100
4, 107632, Note_off_c, 1, 78, 64
4, 107648, Note_on_c, 1, 76, 100
4, 107728, Note_off_c, 1, 76, 64
4, 107744, Note_on_c, 1, 78, 100
4, 107920, Note_off_c, 1, 78, 64
4, 107928, Note_on_c, 1, 71, 100
4, 108012, Note_off_c, 1, 71, 64
4, 108024, Note_on_c, 1, 73, 100
4, 108108, Note_off_c, 1, 73, 64
4, 108124, Note_on_c, 1, 74, 100
4, 108300, Note_off_c, 1, 74, 64
4, 108316, Note_on_c, 1, 76, 100
4, 108492, Note_off_c, 1, 76, 64
4, 108500, Note_on_c, 1, 78, 100
4, 108584, Note_off_c, 1, 78, 64
4, 108604, Note_on_c, 1, 76, 100
4, 108688, Note_off_c, 1, 76, 64
4, 108692, Note_on_c, 1, 78, 100
4, 108776, Note_off_c, 1, 78, 64
4, 108788, Note_on_c, 1, 79, 100
4, 108872, Note_off_c, 1, 79, 64
4, 108880, Note_on_c, 1, 78, 100
4, 108964, Note_off_c, 1, 78, 64
4, 108992, Note_on_c, 1, 76, 100
4, 109072, Note_off_c, 1, 76, 64
4, 109084, Note_on_c, 1, 74, 100
4, 109168, Note_off_c, 1, 74, 64
4, 109176, Note_on_c, 1, 73, 100
4, 109260, Note_off_c, 1, 73, 64
4, 109268, Note_on_c, 1, 74, 100
4, 109352, Note_off_c, 1, 74, 64
4, 109360, Note_on_c, 1, 76, 100
4, 109444, Note_off_c, 1, 76, 64
4, 109460, Note_on_c, 1, 74, 100
4, 109544, Note_off_c, 1, 74, 64
4, 109564, Note_on_c, 1, 76, 100
4, 109648, Note_off_c, 1, 76, 64
4, 109660, Note_on_c, 1, 76, 100
4, 109680, Note_off_c, 1, 76, 64
4, 109684, Note_on_c, 1, 78, 100
4, 109708, Note_off_c, 1, 78, 64
4, 109716, Note_on_c, 1, 76, 100
4, 109740, Note_off_c, 1, 76, 64
4, 109752, Note_on_c, 1, 78, 100
4, 109776, Note_off_c, 1, 78, 64
4, 109804, Note_on_c, 1, 76, 100
4, 109844, Note_off_c, 1, 76, 64
4, 109944, Note_on_c, 1, 74, 100
4, 109984, Note_off_c, 1, 74, 64
4, 109988, Note_on_c, 1, 76, 100
4, 110028, Note_off_c, 1, 76, 64
4, 110044, Note_on_c, 1, 78, 100
4, 110220, Note_off_c, 1, 78, 64
4, 110240, Note_on_c, 1, 83, 100
4, 110320, Note_off_c, 1, 83, 64
4, 110328, Note_on_c, 1, 82, 100
4, 110412, Note_off_c, 1, 82, 64
4, 110420, Note_on_c, 1, 83, 100
4, 110596, Note_off_c, 1, 83, 64
4, 110624, Note_on_c, 1, 78, 100
4, 110704, Note_off_c, 1, 78, 64
4, 110712, Note_on_c, 1, 76, 100
4, 110796, Note_off_c, 1, 76, 64
4, 110812, Note_on_c, 1, 74, 100
4, 110988, Note_off_c, 1, 74, 64
4, 110996, Note_on_c, 1, 73, 100
4, 111080, Note_off_c, 1, 73, 64
4, 111104, Note_on_c, 1, 71, 100
4, 111184, Note_off_c, 1, 71, 64
4, 111200, Note_on_c, 1, 73, 100
4, 111376, Note_off_c, 1, 73, 64
4, 111392, Note_on_c, 1, 71, 100
4, 111472, Note_off_c, 1, 71, 64
4, 111480, Note_on_c, 1, 70, 100
4, 111564, Note_off_c, 1, 70, 64
4, 111568, Note_on_c, 1, 79, 100
4, 111840, Note_off_c, 1, 79, 64
4, 111868, Note_on_c, 1, 78, 100
4, 111952, Note_off_c, 1, 78, 64
4, 111968, Note_on_c, 1, 76, 100
4, 112048, Note_off_c, 1, 76, 64
4, 112060, Note_on_c, 1, 74, 100
4, 112144, Note_off_c, 1, 74, 64
4, 112152, Note_on_c, 1, 73, 100
4, 112236, Note_off_c, 1, 73, 64
4, 112240, Note_on_c, 1, 71, 100
4, 112324, Note_off_c, 1, 71, 64
4, 112344, Note_on_c, 1, 66, 100
4, 112520, Note_off_c, 1, 66, 64
4, 112532, Note_on_c, 1, 71, 100
4, 112708, Note_off_c, 1, 71, 64
4, 112736, Note_on_c, 1, 71, 100
4, 112912, Note_off_c, 1, 71, 64
4, 112916, Note_on_c, 1, 70, 100
4, 113092, Note_off_c, 1, 70, 64
4, 113120, Note_on_c, 1, 71, 100
4, 113480, Note_off_c, 1, 71, 64
4, 114848, Note_on_c, 1, 71, 100
4, 114928, Note_off_c, 1, 71, 64
4, 114936, Note_on_c, 1, 70, 100
4, 115020, Note_off_c, 1, 70, 64
4, 115028, Note_on_c, 1, 71, 100
4, 115204, Note_off_c, 1, 71, 64
4, 115220, Note_on_c, 1, 74, 100
4, 115304, Note_off_c, 1, 74, 64
4, 115324, Note_on_c, 1, 73, 100
4, 115408, Note_off_c, 1, 73, 64
4, 115424, Note_on_c, 1, 71, 100
4, 115600, Note_off_c, 1, 71, 64
4, 115616, Note_on_c, 1, 74, 100
4, 115792, Note_off_c, 1, 74, 64
4, 115796, Note_on_c, 1, 74, 100
4, 115972, Note_off_c, 1, 74, 64
4, 115996, Note_on_c, 1, 73, 100
4, 116080, Note_off_c, 1, 73, 64
4, 116088, Note_on_c, 1, 74, 100
4, 116172, Note_off_c, 1, 74, 64
4, 116192, Note_on_c, 1, 73, 100
4, 116368, Note_off_c, 1, 73, 64
4, 116384, Note_on_c, 1, 73, 100
4, 116560, Note_off_c, 1, 73, 64
4, 116572, Note_on_c, 1, 73, 100
4, 116748, Note_off_c, 1, 73, 64
4, 116752, Note_on_c, 1, 71, 100
4, 116836, Note_off_c, 1, 71, 64
4, 116852, Note_on_c, 1, 73, 100
4, 116936, Note_off_c, 1, 73, 64
4, 116948, Note_on_c, 1, 71, 100
4, 117216, Note_off_c, 1, 71, 64
4, 117244, Note_on_c, 1, 73, 100
4, 117328, Note_off_c, 1, 73, 64
4, 117332, Note_on_c, 1, 70, 100
4, 117356, Note_off_c, 1, 70, 64
4, 117364, Note_on_c, 1, 71, 100
4, 117388, Note_off_c, 1, 71, 64
4, 117396, Note_on_c, 1, 70, 100
4, 117420, Note_off_c, 1, 70, 64
4, 117440, Note_on_c, 1, 71, 100
4, 117460, Note_off_c, 1, 71, 64
4, 117488, Note_on_c, 1, 70, 100
4, 117508, Note_off_c, 1, 70, 64
4, 117620, Note_on_c, 1, 71, 100
4, 117704, Note_off_c, 1, 71, 64
4, 117716, Note_on_c, 1, 71, 100
4, 118080, Note_off_c, 1, 71, 64
4, 118292, Note_on_c, 1, 67, 100
4, 118376, Note_off_c, 1, 67, 64
4, 118400, Note_on_c, 1, 66, 100
4, 118480, Note_off_c, 1, 66, 64
4, 118484, Note_on_c, 1, 67, 100
4, 118660, Note_off_c, 1, 67, 64
4, 118688, Note_on_c, 1, 62, 100
4, 118768, Note_off_c, 1, 62, 64
4, 118784, Note_on_c, 1, 60, 100
4, 118864, Note_off_c, 1, 60, 64
4, 118864, Note_on_c, 1, 62, 100
4, 119040, Note_off_c, 1, 62, 64
4, 119064, Note_on_c, 1, 67, 100
4, 119148, Note_off_c, 1, 67, 64
4, 119156, Note_on_c, 1, 66, 100
4, 119240, Note_off_c, 1, 66, 64
4, 119252, Note_on_c, 1, 67, 100
4, 119428, Note_off_c, 1, 67, 64
4, 119440, Note_on_c, 1, 59, 100
4, 119524, Note_off_c, 1, 59, 64
4, 119548, Note_on_c, 1, 57, 100
4, 119632, Note_off_c, 1, 57, 64
4, 119648, Note_on_c, 1, 59, 100
4, 119824, Note_off_c, 1, 59, 64
4, 119828, Note_on_c, 1, 67, 100
4, 119912, Note_off_c, 1, 67, 64
4, 119920, Note_on_c, 1, 66, 100
4, 120004, Note_off_c, 1, 66, 64
4, 120028, Note_on_c, 1, 67, 100
4, 120204, Note_off_c, 1, 67, 64
4, 120220, Note_on_c, 1, 55, 100
4, 120304, Note_off_c, 1, 55, 64
4, 120312, Note_on_c, 1, 57, 100
4, 120396, Note_off_c, 1, 57, 64
4, 120408, Note_on_c, 1, 59, 100
4, 120584, Note_off_c, 1, 59, 64
4, 120596, Note_on_c, 1, 61, 100
4, 120772, Note_off_c, 1, 61, 64
4, 120784, Note_on_c, 1, 62, 100
4, 121148, Note_off_c, 1, 62, 64
4, 121552, Note_on_c, 1, 62, 100
4, 121916, Note_off_c, 1, 62, 64
4, 121948, Note_on_c, 1, 66, 100
4, 122308, Note_off_c, 1, 66, 64
4, 122320, Note_on_c, 1, 69, 100
4, 122684, Note_off_c, 1, 69, 64
4, 122900, Note_on_c, 1, 69, 100
4, 123076, Note_off_c, 1, 69, 64
4, 123092, Note_on_c, 1, 66, 100
4, 123268, Note_off_c, 1, 66, 64
4, 123280, Note_on_c, 1, 69, 100
4, 123456, Note_off_c, 1, 69, 64
4, 123480, Note_on_c, 1, 74, 100
4, 123564, Note_off_c, 1, 74, 64
4, 123572, Note_on_c, 1, 78, 100
4, 123656, Note_off_c, 1, 78, 64
4, 123676, Note_on_c, 1, 76, 100
4, 123760, Note_off_c, 1, 76, 64
4, 123768, Note_on_c, 1, 74, 100
4, 123852, Note_off_c, 1, 74, 64
4, 123864, Note_on_c, 1, 73, 100
4, 123948, Note_off_c, 1, 73, 64
4, 123968, Note_on_c, 1, 74, 100
4, 124048, Note_off_c, 1, 74, 64
4, 124060, Note_on_c, 1, 76, 100
4, 124144, Note_off_c, 1, 76, 64
4, 124156, Note_on_c, 1, 74, 100
4, 124240, Note_off_c, 1, 74, 64
4, 124248, Note_on_c, 1, 73, 100
4, 124332, Note_off_c, 1, 73, 64
4, 124336, Note_on_c, 1, 71, 100
4, 124420, Note_off_c, 1, 71, 64
4, 124436, Note_on_c, 1, 69, 100
4, 124520, Note_off_c, 1, 69, 64
4, 124528, Note_on_c, 1, 67, 100
4, 124612, Note_off_c, 1, 67, 64
4, 124636, Note_on_c, 1, 66, 100
4, 124720, Note_off_c, 1, 66, 64
4, 124736, Note_on_c, 1, 64, 100
4, 124816, Note_off_c, 1, 64, 64
4, 124824, Note_on_c, 1, 66, 100
4, 124908, Note_off_c, 1, 66, 64
4, 124916, Note_on_c, 1, 67, 100
4, 125000, Note_off_c, 1, 67, 64
4, 125016, Note_on_c, 1, 66, 100
4, 125100, Note_off_c, 1, 66, 64
4, 125104, Note_on_c, 1, 69, 100
4, 125188, Note_off_c, 1, 69, 64
4, 125208, Note_on_c, 1, 64, 100
4, 125292, Note_off_c, 1, 64, 64
4, 125296, Note_on_c, 1, 67, 100
4, 125380, Note_off_c, 1, 67, 64
4, 125400, Note_on_c, 1, 66, 100
4, 125760, Note_off_c, 1, 66, 64
4, 125972, Note_on_c, 1, 66, 100
4, 126148, Note_off_c, 1, 66, 64
4, 126168, Note_on_c, 1, 67, 100
4, 126252, Note_off_c, 1, 67, 64
4, 126268, Note_on_c, 1, 66, 100
4, 126352, Note_off_c, 1, 66, 64
4, 126364, Note_on_c, 1, 67, 100
4, 126448, Note_off_c, 1, 67, 64
4, 126460, Note_on_c, 1, 69, 100
4, 126544, Note_off_c, 1, 69, 64
4, 126556, Note_on_c, 1, 67, 100
4, 126640, Note_off_c, 1, 67, 64
4, 126640, Note_on_c, 1, 71, 100
4, 126724, Note_off_c, 1, 71, 64
4, 126752, Note_on_c, 1, 66, 100
4, 126832, Note_off_c, 1, 66, 64
4, 126844, Note_on_c, 1, 69, 100
4, 126928, Note_off_c, 1, 69, 64
4, 126928, Note_on_c, 1, 67, 100
4, 127012, Note_off_c, 1, 67, 64
4, 127028, Note_on_c, 1, 69, 100
4, 127112, Note_off_c, 1, 69, 64
4, 127128, Note_on_c, 1, 71, 100
4, 127212, Note_off_c, 1, 71, 64
4, 127216, Note_on_c, 1, 69, 100
4, 127300, Note_off_c, 1, 69, 64
4, 127328, Note_on_c, 1, 67, 100
4, 127408, Note_off_c, 1, 67, 64
4, 127416, Note_on_c, 1, 66, 100
4, 127500, Note_off_c, 1, 66, 64
4, 127516, Note_on_c, 1, 64, 100
4, 127600, Note_off_c, 1, 64, 64
4, 127612, Note_on_c, 1, 63, 100
4, 127696, Note_off_c, 1, 63, 64
4, 127708, Note_on_c, 1, 64, 100
4, 127792, Note_off_c, 1, 64, 64
4, 127804, Note_on_c, 1, 63, 100
4, 127888, Note_off_c, 1, 63, 64
4, 127904, Note_on_c, 1, 64, 100
4, 127984, Note_off_c, 1, 64, 64
4, 127988, Note_on_c, 1, 66, 100
4, 128072, Note_off_c, 1, 66, 64
4, 128096, Note_on_c, 1, 64, 100
4, 128176, Note_off_c, 1, 64, 64
4, 128192, Note_on_c, 1, 67, 100
4, 128272, Note_off_c, 1, 67, 64
4, 128276, Note_on_c, 1, 63, 100
4, 128360, Note_off_c, 1, 63, 64
4, 128368, Note_on_c, 1, 66, 100
4, 128452, Note_off_c, 1, 66, 64
4, 128464, Note_on_c, 1, 64, 100
4, 128548, Note_off_c, 1, 64, 64
4, 128576, Note_on_c, 1, 66, 100
4, 128656, Note_off_c, 1, 66, 64
4, 128672, Note_on_c, 1, 67, 100
4, 128752, Note_off_c, 1, 67, 64
4, 128760, Note_on_c, 1, 66, 100
4, 128844, Note_off_c, 1, 66, 64
4, 128848, Note_on_c, 1, 64, 100
4, 128932, Note_off_c, 1, 64, 64
4, 128944, Note_on_c, 1, 62, 100
4, 129028, Note_off_c, 1, 62, 64
4, 129044, Note_on_c, 1, 60, 100
4, 129128, Note_off_c, 1, 60, 64
4, 129140, Note_on_c, 1, 59, 100
4, 129224, Note_off_c, 1, 59, 64
4, 129240, Note_on_c, 1, 60, 100
4, 129324, Note_off_c, 1, 60, 64
4, 129340, Note_on_c, 1, 59, 100
4, 129424, Note_off_c, 1, 59, 64
4, 129440, Note_on_c, 1, 57, 100
4, 129520, Note_off_c, 1, 57, 64
4, 129528, Note_on_c, 1, 60, 100
4, 129612, Note_off_c, 1, 60, 64
4, 129632, Note_on_c, 1, 59, 100
4, 129712, Note_off_c, 1, 59, 64
4, 129720, Note_on_c, 1, 62, 100
4, 129804, Note_off_c, 1, 62, 64
4, 129824, Note_on_c, 1, 60, 100
4, 129904, Note_off_c, 1, 60, 64
4, 129908, Note_on_c, 1, 59, 100
4, 129992, Note_off_c, 1, 59, 64
4, 130004, Note_on_c, 1, 57, 100
4, 130088, Note_off_c, 1, 57, 64
4, 130096, Note_on_c, 1, 59, 100
4, 130180, Note_off_c, 1, 59, 64
4, 130200, Note_on_c, 1, 60, 100
4, 130284, Note_off_c, 1, 60, 64
4, 130292, Note_on_c, 1, 62, 100
4, 130376, Note_off_c, 1, 62, 64
4, 130388, Note_on_c, 1, 64, 100
4, 130472, Note_off_c, 1, 64, 64
4, 130496, Note_on_c, 1, 66, 100
4, 130576, Note_off_c, 1, 66, 64
4, 130588, Note_on_c, 1, 67, 100
4, 130672, Note_off_c, 1, 67, 64
4, 130688, Note_on_c, 1, 69, 100
4, 130768, Note_off_c, 1, 69, 64
4, 130772, Note_on_c, 1, 62, 100
4, 131136, Note_off_c, 1, 62, 64
4, 131352, Note_on_c, 1, 67, 100
4, 131436, Note_off_c, 1, 67, 64
4, 131456, Note_on_c, 1, 69, 100
4, 131536, Note_off_c, 1, 69, 64
4, 131536, Note_on_c, 1, 71, 100
4, 131620, Note_off_c, 1, 71, 64
4, 131644, Note_on_c, 1, 72, 100
4, 131728, Note_off_c, 1, 72, 64
4, 131732, Note_on_c, 1, 74, 100
4, 131816, Note_off_c, 1, 74, 64
4, 131832, Note_on_c, 1, 76, 100
4, 131916, Note_off_c, 1, 76, 64
4, 131924, Note_on_c, 1, 74, 100
4, 132008, Note_off_c, 1, 74, 64
4, 132028, Note_on_c, 1, 72, 100
4, 132112, Note_off_c, 1, 72, 64
4, 132116, Note_on_c, 1, 71, 100
4, 132200, Note_off_c, 1, 71, 64
4, 132208, Note_on_c, 1, 69, 100
4, 132292, Note_off_c, 1, 69, 64
4, 132320, Note_on_c, 1, 67, 100
4, 132496, Note_off_c, 1, 67, 64
4, 132504, Note_on_c, 1, 71, 100
4, 132680, Note_off_c, 1, 71, 64
4, 132704, Note_on_c, 1, 76, 100
4, 132784, Note_off_c, 1, 76, 64
4, 132800, Note_on_c, 1, 79, 100
4, 132880, Note_off_c, 1, 79, 64
4, 132888, Note_on_c, 1, 78, 100
4, 132972, Note_off_c, 1, 78, 64
4, 132976, Note_on_c, 1, 76, 100
4, 133060, Note_off_c, 1, 76, 64
4, 133080, Note_on_c, 1, 74, 100
4, 133164, Note_off_c, 1, 74, 64
4, 133180, Note_on_c, 1, 69, 100
4, 133264, Note_off_c, 1, 69, 64
4, 133280, Note_on_c, 1, 74, 100
4, 133360, Note_off_c, 1, 74, 64
4, 133376, Note_on_c, 1, 69, 100
4, 133456, Note_off_c, 1, 69, 64
4, 133472, Note_on_c, 1, 74, 100
4, 133552, Note_off_c, 1, 74, 64
4, 133560, Note_on_c, 1, 69, 100
4, 133644, Note_off_c, 1, 69, 64
4, 133648, Note_on_c, 1, 74, 100
4, 133732, Note_off_c, 1, 74, 64
4, 133744, Note_on_c, 1, 69, 100
4, 133828, Note_off_c, 1, 69, 64
4, 133848, Note_on_c, 1, 74, 100
4, 133932, Note_off_c, 1, 74, 64
4, 133952, Note_on_c, 1, 71, 100
4, 134032, Note_off_c, 1, 71, 64
4, 134040, Note_on_c, 1, 74, 100
4, 134124, Note_off_c, 1, 74, 64
4, 134140, Note_on_c, 1, 71, 100
4, 134224, Note_off_c, 1, 71, 64
4, 134232, Note_on_c, 1, 74, 100
4, 134316, Note_off_c, 1, 74, 64
4, 134324, Note_on_c, 1, 71, 100
4, 134408, Note_off_c, 1, 71, 64
4, 134428, Note_on_c, 1, 74, 100
4, 134512, Note_off_c, 1, 74, 64
4, 134516, Note_on_c, 1, 71, 100
4, 134600, Note_off_c, 1, 71, 64
4, 134624, Note_on_c, 1, 72, 100
4, 134704, Note_off_c, 1, 72, 64
4, 134704, Note_on_c, 1, 67, 100
4, 134788, Note_off_c, 1, 67, 64
4, 134816, Note_on_c, 1, 72, 100
4, 134896, Note_off_c, 1, 72, 64
4, 134896, Note_on_c, 1, 67, 100
4, 134980, Note_off_c, 1, 67, 64
4, 135000, Note_on_c, 1, 72, 100
4, 135084, Note_off_c, 1, 72, 64
4, 135092, Note_on_c, 1, 67, 100
4, 135176, Note_off_c, 1, 67, 64
4, 135188, Note_on_c, 1, 72, 100
4, 135272, Note_off_c, 1, 72, 64
4, 135280, Note_on_c, 1, 67, 100
4, 135364, Note_off_c, 1, 67, 64
4, 135380, Note_on_c, 1, 73, 100
4, 135464, Note_off_c, 1, 73, 64
4, 135476, Note_on_c, 1, 70, 100
4, 135560, Note_off_c, 1, 70, 64
4, 135580, Note_on_c, 1, 73, 100
4, 135664, Note_off_c, 1, 73, 64
4, 135672, Note_on_c, 1, 70, 100
4, 135756, Note_off_c, 1, 70, 64
4, 135760, Note_on_c, 1, 73, 100
4, 135844, Note_off_c, 1, 73, 64
4, 135872, Note_on_c, 1, 70, 100
4, 135952, Note_off_c, 1, 70, 64
4, 135956, Note_on_c, 1, 73, 100
4, 136040, Note_off_c, 1, 73, 64
4, 136056, Note_on_c, 1, 70, 100
4, 136140, Note_off_c, 1, 70, 64
4, 136152, Note_on_c, 1, 71, 100
4, 136236, Note_off_c, 1, 71, 64
4, 136252, Note_on_c, 1, 66, 100
4, 136336, Note_off_c, 1, 66, 64
4, 136344, Note_on_c, 1, 71, 100
4, 136428, Note_off_c, 1, 71, 64
4, 136440, Note_on_c, 1, 66, 100
4, 136524, Note_off_c, 1, 66, 64
4, 136540, Note_on_c, 1, 71, 100
4, 136624, Note_off_c, 1, 71, 64
4, 136624, Note_on_c, 1, 66, 100
4, 136708, Note_off_c, 1, 66, 64
4, 136724, Note_on_c, 1, 71, 100
4, 136808, Note_off_c, 1, 71, 64
4, 136828, Note_on_c, 1, 66, 100
4, 136912, Note_off_c, 1, 66, 64
4, 136928, Note_on_c, 1, 71, 100
4, 137008, Note_off_c, 1, 71, 64
4, 137016, Note_on_c, 1, 68, 100
4, 137100, Note_off_c, 1, 68, 64
4, 137120, Note_on_c, 1, 71, 100
4, 137200, Note_off_c, 1, 71, 64
4, 137212, Note_on_c, 1, 68, 100
4, 137296, Note_off_c, 1, 68, 64
4, 137312, Note_on_c, 1, 71, 100
4, 137392, Note_off_c, 1, 71, 64
4, 137404, Note_on_c, 1, 68, 100
4, 137488, Note_off_c, 1, 68, 64
4, 137488, Note_on_c, 1, 71, 100
4, 137572, Note_off_c, 1, 71, 64
4, 137596, Note_on_c, 1, 68, 100
4, 137680, Note_off_c, 1, 68, 64
4, 137688, Note_on_c, 1, 69, 100
4, 137772, Note_off_c, 1, 69, 64
4, 137792, Note_on_c, 1, 64, 100
4, 137872, Note_off_c, 1, 64, 64
4, 137888, Note_on_c, 1, 69, 100
4, 137968, Note_off_c, 1, 69, 64
4, 137980, Note_on_c, 1, 64, 100
4, 138064, Note_off_c, 1, 64, 64
4, 138076, Note_on_c, 1, 69, 100
4, 138160, Note_off_c, 1, 69, 64
4, 138172, Note_on_c, 1, 64, 100
4, 138256, Note_off_c, 1, 64, 64
4, 138260, Note_on_c, 1, 69, 100
4, 138344, Note_off_c, 1, 69, 64
4, 138368, Note_on_c, 1, 64, 100
4, 138448, Note_off_c, 1, 64, 64
4, 138464, Note_on_c, 1, 65, 100
4, 138544, Note_off_c, 1, 65, 64
4, 138552, Note_on_c, 1, 64, 100
4, 138636, Note_off_c, 1, 64, 64
4, 138644, Note_on_c, 1, 65, 100
4, 138820, Note_off_c, 1, 65, 64
4, 139228, Note_on_c, 1, 65, 100
4, 139312, Note_off_c, 1, 65, 64
4, 139324, Note_on_c, 1, 64, 100
4, 139408, Note_off_c, 1, 64, 64
4, 139420, Note_on_c, 1, 65, 100
4, 139596, Note_off_c, 1, 65, 64
4, 140000, Note_on_c, 1, 69, 100
4, 140080, Note_off_c, 1, 69, 64
4, 140088, Note_on_c, 1, 67, 100
4, 140172, Note_off_c, 1, 67, 64
4, 140180, Note_on_c, 1, 69, 100
4, 140356, Note_off_c, 1, 69, 64
4, 140760, Note_on_c, 1, 69, 100
4, 140844, Note_off_c, 1, 69, 64
4, 140852, Note_on_c, 1, 67, 100
4, 140936, Note_off_c, 1, 67, 64
4, 140960, Note_on_c, 1, 69, 100
4, 141136, Note_off_c, 1, 69, 64
4, 141520, Note_on_c, 1, 71, 100
4, 141604, Note_off_c, 1, 71, 64
4, 141616, Note_on_c, 1, 69, 100
4, 141700, Note_off_c, 1, 69, 64
4, 141724, Note_on_c, 1, 71, 100
4, 141900, Note_off_c, 1, 71, 64
4, 142300, Note_on_c, 1, 71, 100
4, 142384, Note_off_c, 1, 71, 64
4, 142392, Note_on_c, 1, 69, 100
4, 142476, Note_off_c, 1, 69, 64
4, 142492, Note_on_c, 1, 71, 100
4, 142668, Note_off_c, 1, 71, 64
4, 143072, Note_on_c, 1, 78, 100
4, 143152, Note_off_c, 1, 78, 64
4, 143168, Note_on_c, 1, 76, 100
4, 143248, Note_off_c, 1, 76, 64
4, 143256, Note_on_c, 1, 78, 100
4, 143432, Note_off_c, 1, 78, 64
4, 143832, Note_on_c, 1, 78, 100
4, 143916, Note_off_c, 1, 78, 64
4, 143928, Note_on_c, 1, 76, 100
4, 144012, Note_off_c, 1, 76, 64
4, 144016, Note_on_c, 1, 78, 100
4, 144192, Note_off_c, 1, 78, 64
4, 144608, Note_on_c, 1, 76, 100
4, 144688, Note_off_c, 1, 76, 64
4, 144704, Note_on_c, 1, 77, 100
4, 144784, Note_off_c, 1, 77, 64
4, 144792, Note_on_c, 1, 76, 100
4, 144968, Note_off_c, 1, 76, 64
4, 145364, Note_on_c, 1, 76, 100
4, 145448, Note_off_c, 1, 76, 64
4, 145456, Note_on_c, 1, 77, 100
4, 145540, Note_off_c, 1, 77, 64
4, 145568, Note_on_c, 1, 76, 100
4, 145744, Note_off_c, 1, 76, 64
4, 146144, Note_on_c, 1, 80, 100
4, 146224, Note_off_c, 1, 80, 64
4, 146224, Note_on_c, 1, 78, 100
4, 146308, Note_off_c, 1, 78, 64
4, 146320, Note_on_c, 1, 80, 100
4, 146496, Note_off_c, 1, 80, 64
4, 146912, Note_on_c, 1, 80, 100
4, 146992, Note_off_c, 1, 80, 64
4, 146996, Note_on_c, 1, 78, 100
4, 147080, Note_off_c, 1, 78, 64
4, 147100, Note_on_c, 1, 80, 100
4, 147276, Note_off_c, 1, 80, 64
4, 147664, Note_on_c, 1, 81, 100
4, 147840, Note_off_c, 1, 81, 64
4, 148244, Note_on_c, 1, 72, 100
4, 148328, Note_off_c, 1, 72, 64
4, 148336, Note_on_c, 1, 71, 100
4, 148420, Note_off_c, 1, 71, 64
4, 148432, Note_on_c, 1, 72, 100
4, 148608, Note_off_c, 1, 72, 64
4, 149012, Note_on_c, 1, 77, 100
4, 149188, Note_off_c, 1, 77, 64
4, 149200, Note_on_c, 1, 77, 100
4, 149376, Note_off_c, 1, 77, 64
4, 149780, Note_on_c, 1, 71, 100
4, 149864, Note_off_c, 1, 71, 64
4, 149880, Note_on_c, 1, 69, 100
4, 149964, Note_off_c, 1, 69, 64
4, 149980, Note_on_c, 1, 71, 100
4, 150156, Note_off_c, 1, 71, 64
4, 150548, Note_on_c, 1, 76, 100
4, 150724, Note_off_c, 1, 76, 64
4, 150744, Note_on_c, 1, 76, 100
4, 150920, Note_off_c, 1, 76, 64
4, 151312, Note_on_c, 1, 69, 100
4, 151396, Note_off_c, 1, 69, 64
4, 151424, Note_on_c, 1, 68, 100
4, 151504, Note_off_c, 1, 68, 64
4, 151508, Note_on_c, 1, 69, 100
4, 151684, Note_off_c, 1, 69, 64
4, 152084, Note_on_c, 1, 74, 100
4, 152260, Note_off_c, 1, 74, 64
4, 152288, Note_on_c, 1, 74, 100
4, 152464, Note_off_c, 1, 74, 64
4, 152472, Note_on_c, 1, 71, 100
4, 152556, Note_off_c, 1, 71, 64
4, 152568, Note_on_c, 1, 69, 100
4, 152652, Note_off_c, 1, 69, 64
4, 152672, Note_on_c, 1, 71, 100
4, 152848, Note_off_c, 1, 71, 64
4, 152856, Note_on_c, 1, 68, 100
4, 152940, Note_off_c, 1, 68, 64
4, 152948, Note_on_c, 1, 66, 100
4, 153032, Note_off_c, 1, 66, 64
4, 153044, Note_on_c, 1, 68, 100
4, 153220, Note_off_c, 1, 68, 64
4, 153236, Note_on_c, 1, 62, 100
4, 153320, Note_off_c, 1, 62, 64
4, 153340, Note_on_c, 1, 60, 100
4, 153424, Note_off_c, 1, 60, 64
4, 153436, Note_on_c, 1, 62, 100
4, 153612, Note_off_c, 1, 62, 64
4, 153628, Note_on_c, 1, 71, 100
4, 153804, Note_off_c, 1, 71, 64
4, 153820, Note_on_c, 1, 76, 100
4, 153996, Note_off_c, 1, 76, 64
4, 154008, Note_on_c, 1, 69, 100
4, 154184, Note_off_c, 1, 69, 64
4, 154200, Note_on_c, 1, 68, 100
4, 154468, Note_off_c, 1, 68, 64
4, 154480, Note_on_c, 1, 69, 100
4, 154564, Note_off_c, 1, 69, 64
4, 154584, Note_on_c, 1, 69, 100
4, 154944, Note_off_c, 1, 69, 64
4, 155160, Note_on_c, 1, 57, 100
4, 155336, Note_off_c, 1, 57, 64
4, 155360, Note_on_c, 1, 60, 100
4, 155536, Note_off_c, 1, 60, 64
4, 155552, Note_on_c, 1, 64, 100
4, 155728, Note_off_c, 1, 64, 64
4, 155728, Note_on_c, 1, 60, 100
4, 155904, Note_off_c, 1, 60, 64
4, 155920, Note_on_c, 1, 57, 100
4, 156096, Note_off_c, 1, 57, 64
4, 156112, Note_on_c, 1, 60, 100
4, 156288, Note_off_c, 1, 60, 64
4, 156308, Note_on_c, 1, 64, 100
4, 156484, Note_off_c, 1, 64, 64
4, 156500, Note_on_c, 1, 60, 100
4, 156676, Note_off_c, 1, 60, 64
4, 156704, Note_on_c, 1, 57, 100
4, 156880, Note_off_c, 1, 57, 64
4, 156896, Note_on_c, 1, 64, 100
4, 157072, Note_off_c, 1, 64, 64
4, 157080, Note_on_c, 1, 64, 100
4, 157164, Note_off_c, 1, 64, 64
4, 157176, Note_on_c, 1, 64, 100
4, 157260, Note_off_c, 1, 64, 64
4, 157268, Note_on_c, 1, 64, 100
4, 157444, Note_off_c, 1, 64, 64
4, 157664, Note_on_c, 1, 71, 100
4, 157744, Note_off_c, 1, 71, 64
4, 157752, Note_on_c, 1, 69, 100
4, 157836, Note_off_c, 1, 69, 64
4, 157840, Note_on_c, 1, 71, 100
4, 157924, Note_off_c, 1, 71, 64
4, 157952, Note_on_c, 1, 72, 100
4, 158032, Note_off_c, 1, 72, 64
4, 158040, Note_on_c, 1, 71, 100
4, 158124, Note_off_c, 1, 71, 64
4, 158140, Note_on_c, 1, 76, 100
4, 158224, Note_off_c, 1, 76, 64
4, 158240, Note_on_c, 1, 75, 100
4, 158320, Note_off_c, 1, 75, 64
4, 158324, Note_on_c, 1, 78, 100
4, 158408, Note_off_c, 1, 78, 64
4, 158416, Note_on_c, 1, 76, 100
4, 158500, Note_off_c, 1, 76, 64
4, 158520, Note_on_c, 1, 75, 100
4, 158604, Note_off_c, 1, 75, 64
4, 158608, Note_on_c, 1, 76, 100
4, 158692, Note_off_c, 1, 76, 64
4, 158708, Note_on_c, 1, 78, 100
4, 158792, Note_off_c, 1, 78, 64
4, 158804, Note_on_c, 1, 76, 100
4, 158888, Note_off_c, 1, 76, 64
4, 158912, Note_on_c, 1, 79, 100
4, 158992, Note_off_c, 1, 79, 64
4, 158992, Note_on_c, 1, 78, 100
4, 159076, Note_off_c, 1, 78, 64
4, 159104, Note_on_c, 1, 81, 100
4, 159184, Note_off_c, 1, 81, 64
4, 159196, Note_on_c, 1, 79, 100
4, 159280, Note_off_c, 1, 79, 64
4, 159292, Note_on_c, 1, 78, 100
4, 159376, Note_off_c, 1, 78, 64
4, 159388, Note_on_c, 1, 79, 100
4, 159472, Note_off_c, 1, 79, 64
4, 159484, Note_on_c, 1, 81, 100
4, 159568, Note_off_c, 1, 81, 64
4, 159580, Note_on_c, 1, 79, 100
4, 159664, Note_off_c, 1, 79, 64
4, 159664, Note_on_c, 1, 81, 100
4, 159748, Note_off_c, 1, 81, 64
4, 159760, Note_on_c, 1, 79, 100
4, 159844, Note_off_c, 1, 79, 64
4, 159864, Note_on_c, 1, 78, 100
4, 159948, Note_off_c, 1, 78, 64
4, 159964, Note_on_c, 1, 76, 100
4, 160048, Note_off_c, 1, 76, 64
4, 160048, Note_on_c, 1, 78, 100
4, 160132, Note_off_c, 1, 78, 64
4, 160148, Note_on_c, 1, 76, 100
4, 160232, Note_off_c, 1, 76, 64
4, 160252, Note_on_c, 1, 75, 100
4, 160336, Note_off_c, 1, 75, 64
4, 160340, Note_on_c, 1, 76, 100
4, 160516, Note_off_c, 1, 76, 64
4, 160532, Note_on_c, 1, 72, 100
4, 160708, Note_off_c, 1, 72, 64
4, 160728, Note_on_c, 1, 71, 100
4, 160904, Note_off_c, 1, 71, 64
4, 160928, Note_on_c, 1, 66, 100
4, 161104, Note_off_c, 1, 66, 64
4, 161312, Note_on_c, 1, 79, 100
4, 161392, Note_off_c, 1, 79, 64
4, 161408, Note_on_c, 1, 78, 100
4, 161488, Note_off_c, 1, 78, 64
4, 161504, Note_on_c, 1, 79, 100
4, 161680, Note_off_c, 1, 79, 64
4, 161688, Note_on_c, 1, 74, 100
4, 161772, Note_off_c, 1, 74, 64
4, 161792, Note_on_c, 1, 72, 100
4, 161872, Note_off_c, 1, 72, 64
4, 161884, Note_on_c, 1, 74, 100
4, 162060, Note_off_c, 1, 74, 64
4, 162068, Note_on_c, 1, 79, 100
4, 162152, Note_off_c, 1, 79, 64
4, 162176, Note_on_c, 1, 78, 100
4, 162256, Note_off_c, 1, 78, 64
4, 162264, Note_on_c, 1, 79, 100
4, 162440, Note_off_c, 1, 79, 64
4, 162464, Note_on_c, 1, 71, 100
4, 162544, Note_off_c, 1, 71, 64
4, 162556, Note_on_c, 1, 69, 100
4, 162640, Note_off_c, 1, 69, 64
4, 162648, Note_on_c, 1, 71, 100
4, 162824, Note_off_c, 1, 71, 64
4, 162832, Note_on_c, 1, 79, 100
4, 162916, Note_off_c, 1, 79, 64
4, 162940, Note_on_c, 1, 78, 100
4, 163024, Note_off_c, 1, 78, 64
4, 163024, Note_on_c, 1, 79, 100
4, 163200, Note_off_c, 1, 79, 64
4, 163220, Note_on_c, 1, 67, 100
4, 163304, Note_off_c, 1, 67, 64
4, 163320, Note_on_c, 1, 69, 100
4, 163404, Note_off_c, 1, 69, 64
4, 163412, Note_on_c, 1, 71, 100
4, 163588, Note_off_c, 1, 71, 64
4, 163600, Note_on_c, 1, 73, 100
4, 163776, Note_off_c, 1, 73, 64
4, 163792, Note_on_c, 1, 74, 100
4, 163968, Note_off_c, 1, 74, 64
4, 163992, Note_on_c, 1, 62, 100
4, 164168, Note_off_c, 1, 62, 64
4, 164276, Note_on_c, 1, 74, 100
4, 164360, Note_off_c, 1, 74, 64
4, 164384, Note_on_c, 1, 69, 100
4, 164464, Note_off_c, 1, 69, 64
4, 164472, Note_on_c, 1, 71, 100
4, 164556, Note_off_c, 1, 71, 64
4, 164564, Note_on_c, 1, 72, 100
4, 164648, Note_off_c, 1, 72, 64
4, 164656, Note_on_c, 1, 71, 100
4, 164740, Note_off_c, 1, 71, 64
4, 164752, Note_on_c, 1, 72, 100
4, 164836, Note_off_c, 1, 72, 64
4, 164852, Note_on_c, 1, 81, 100
4, 164936, Note_off_c, 1, 81, 64
4, 164952, Note_on_c, 1, 78, 100
4, 165036, Note_off_c, 1, 78, 64
4, 165040, Note_on_c, 1, 72, 100
4, 165124, Note_off_c, 1, 72, 64
4, 165148, Note_on_c, 1, 69, 100
4, 165232, Note_off_c, 1, 69, 64
4, 165232, Note_on_c, 1, 62, 100
4, 165316, Note_off_c, 1, 62, 64
4, 165344, Note_on_c, 1, 72, 100
4, 165424, Note_off_c, 1, 72, 64
4, 165440, Note_on_c, 1, 71, 100
4, 165520, Note_off_c, 1, 71, 64
4, 165524, Note_on_c, 1, 72, 100
4, 165608, Note_off_c, 1, 72, 64
4, 165620, Note_on_c, 1, 81, 100
4, 165704, Note_off_c, 1, 81, 64
4, 165720, Note_on_c, 1, 78, 100
4, 165804, Note_off_c, 1, 78, 64
4, 165820, Note_on_c, 1, 72, 100
4, 165904, Note_off_c, 1, 72, 64
4, 165920, Note_on_c, 1, 69, 100
4, 166000, Note_off_c, 1, 69, 64
4, 166016, Note_on_c, 1, 62, 100
4, 166096, Note_off_c, 1, 62, 64
4, 166104, Note_on_c, 1, 71, 100
4, 166188, Note_off_c, 1, 71, 64
4, 166204, Note_on_c, 1, 69, 100
4, 166288, Note_off_c, 1, 69, 64
4, 166292, Note_on_c, 1, 71, 100
4, 166468, Note_off_c, 1, 71, 64
4, 166876, Note_on_c, 1, 71, 100
4, 166960, Note_off_c, 1, 71, 64
4, 166972, Note_on_c, 1, 69, 100
4, 167056, Note_off_c, 1, 69, 64
4, 167068, Note_on_c, 1, 71, 100
4, 167244, Note_off_c, 1, 71, 64
4, 167648, Note_on_c, 1, 71, 100
4, 167728, Note_off_c, 1, 71, 64
4, 167736, Note_on_c, 1, 69, 100
4, 167820, Note_off_c, 1, 69, 64
4, 167824, Note_on_c, 1, 71, 100
4, 168000, Note_off_c, 1, 71, 64
4, 168404, Note_on_c, 1, 71, 100
4, 168488, Note_off_c, 1, 71, 64
4, 168512, Note_on_c, 1, 69, 100
4, 168592, Note_off_c, 1, 69, 64
4, 168604, Note_on_c, 1, 71, 100
4, 168780, Note_off_c, 1, 71, 64
4, 169180, Note_on_c, 1, 69, 100
4, 169356, Note_off_c, 1, 69, 64
4, 169376, Note_on_c, 1, 69, 100
4, 169552, Note_off_c, 1, 69, 64
4, 169568, Note_on_c, 1, 69, 100
4, 169744, Note_on_c, 1, 69, 100
4, 169756, Note_off_c, 1, 69, 64
4, 169928, Note_off_c, 1, 69, 64
4, 169936, Note_on_c, 1, 69, 100
4, 170112, Note_off_c, 1, 69, 64
4, 170128, Note_on_c, 1, 69, 100
4, 170304, Note_off_c, 1, 69, 64
4, 170336, Note_on_c, 1, 69, 100
4, 170512, Note_off_c, 1, 69, 64
4, 170520, Note_on_c, 1, 69, 100
4, 170696, Note_off_c, 1, 69, 64
4, 170708, Note_on_c, 1, 72, 100
4, 170884, Note_off_c, 1, 72, 64
4, 170908, Note_on_c, 1, 72, 100
4, 171084, Note_off_c, 1, 72, 64
4, 171088, Note_on_c, 1, 72, 100
4, 171264, Note_off_c, 1, 72, 64
4, 171284, Note_on_c, 1, 72, 100
4, 171460, Note_off_c, 1, 72, 64
4, 171484, Note_on_c, 1, 72, 100
4, 171660, Note_off_c, 1, 72, 64
4, 171676, Note_on_c, 1, 72, 100
4, 171852, Note_off_c, 1, 72, 64
4, 171872, Note_on_c, 1, 72, 100
4, 172048, Note_on_c, 1, 72, 100
4, 172060, Note_off_c, 1, 72, 64
4, 172232, Note_off_c, 1, 72, 64
4, 172252, Note_on_c, 1, 74, 100
4, 172428, Note_off_c, 1, 74, 64
4, 172432, Note_on_c, 1, 74, 100
4, 172608, Note_off_c, 1, 74, 64
4, 172632, Note_on_c, 1, 74, 100
4, 172808, Note_off_c, 1, 74, 64
4, 172816, Note_on_c, 1, 74, 100
4, 172992, Note_off_c, 1, 74, 64
4, 173012, Note_on_c, 1, 74, 100
4, 173188, Note_off_c, 1, 74, 64
4, 173212, Note_on_c, 1, 74, 100
4, 173388, Note_off_c, 1, 74, 64
4, 173404, Note_on_c, 1, 74, 100
4, 173580, Note_off_c, 1, 74, 64
4, 173600, Note_on_c, 1, 74, 100
4, 173776, Note_off_c, 1, 74, 64
4, 173788, Note_on_c, 1, 76, 100
4, 173872, Note_off_c, 1, 76, 64
4, 173880, Note_on_c, 1, 74, 100
4, 173964, Note_off_c, 1, 74, 64
4, 173976, Note_on_c, 1, 76, 100
4, 174152, Note_off_c, 1, 76, 64
4, 174556, Note_on_c, 1, 76, 100
4, 174640, Note_off_c, 1, 76, 64
4, 174640, Note_on_c, 1, 74, 100
4, 174724, Note_off_c, 1, 74, 64
4, 174740, Note_on_c, 1, 76, 100
4, 174916, Note_off_c, 1, 76, 64
4, 175312, Note_on_c, 1, 74, 100
4, 175396, Note_off_c, 1, 74, 64
4, 175412, Note_on_c, 1, 72, 100
4, 175496, Note_off_c, 1, 72, 64
4, 175516, Note_on_c, 1, 74, 100
4, 175692, Note_off_c, 1, 74, 64
4, 176080, Note_on_c, 1, 74, 100
4, 176164, Note_off_c, 1, 74, 64
4, 176192, Note_on_c, 1, 72, 100
4, 176272, Note_off_c, 1, 72, 64
4, 176276, Note_on_c, 1, 74, 100
4, 176452, Note_off_c, 1, 74, 64
4, 176864, Note_on_c, 1, 76, 100
4, 176944, Note_off_c, 1, 76, 64
4, 176952, Note_on_c, 1, 75, 100
4, 177036, Note_off_c, 1, 75, 64
4, 177040, Note_on_c, 1, 76, 100
4, 177216, Note_off_c, 1, 76, 64
4, 177624, Note_on_c, 1, 76, 100
4, 177708, Note_off_c, 1, 76, 64
4, 177720, Note_on_c, 1, 75, 100
4, 177804, Note_off_c, 1, 75, 64
4, 177808, Note_on_c, 1, 76, 100
4, 177984, Note_off_c, 1, 76, 64
4, 178388, Note_on_c, 1, 74, 100
4, 178472, Note_off_c, 1, 74, 64
4, 178480, Note_on_c, 1, 72, 100
4, 178564, Note_off_c, 1, 72, 64
4, 178580, Note_on_c, 1, 74, 100
4, 178756, Note_off_c, 1, 74, 64
4, 179156, Note_on_c, 1, 74, 100
4, 179240, Note_off_c, 1, 74, 64
4, 179248, Note_on_c, 1, 72, 100
4, 179332, Note_off_c, 1, 72, 64
4, 179348, Note_on_c, 1, 74, 100
4, 179524, Note_off_c, 1, 74, 64
4, 179928, Note_on_c, 1, 72, 100
4, 180012, Note_off_c, 1, 72, 64
4, 180032, Note_on_c, 1, 71, 100
4, 180112, Note_off_c, 1, 71, 64
4, 180116, Note_on_c, 1, 72, 100
4, 180292, Note_off_c, 1, 72, 64
4, 180696, Note_on_c, 1, 72, 100
4, 180780, Note_off_c, 1, 72, 64
4, 180800, Note_on_c, 1, 71, 100
4, 180880, Note_off_c, 1, 71, 64
4, 180892, Note_on_c, 1, 72, 100
4, 181068, Note_off_c, 1, 72, 64
4, 181456, Note_on_c, 1, 70, 100
4, 181632, Note_off_c, 1, 70, 64
4, 182044, Note_on_c, 1, 70, 100
4, 182128, Note_off_c, 1, 70, 64
4, 182140, Note_on_c, 1, 69, 100
4, 182224, Note_off_c, 1, 69, 64
4, 182224, Note_on_c, 1, 70, 100
4, 182400, Note_off_c, 1, 70, 64
4, 182800, Note_on_c, 1, 75, 100
4, 182976, Note_off_c, 1, 75, 64
4, 183000, Note_on_c, 1, 75, 100
4, 183176, Note_off_c, 1, 75, 64
4, 183576, Note_on_c, 1, 69, 100
4, 183660, Note_off_c, 1, 69, 64
4, 183672, Note_on_c, 1, 67, 100
4, 183756, Note_off_c, 1, 67, 64
4, 183760, Note_on_c, 1, 69, 100
4, 183936, Note_off_c, 1, 69, 64
4, 184348, Note_on_c, 1, 74, 100
4, 184524, Note_off_c, 1, 74, 64
4, 184544, Note_on_c, 1, 74, 100
4, 184720, Note_off_c, 1, 74, 64
4, 185112, Note_on_c, 1, 67, 100
4, 185196, Note_off_c, 1, 67, 64
4, 185200, Note_on_c, 1, 66, 100
4, 185284, Note_off_c, 1, 66, 64
4, 185300, Note_on_c, 1, 67, 100
4, 185476, Note_off_c, 1, 67, 64
4, 185888, Note_on_c, 1, 72, 100
4, 186064, Note_on_c, 1, 72, 100
4, 186076, Note_off_c, 1, 72, 64
4, 186248, Note_off_c, 1, 72, 64
4, 186272, Note_on_c, 1, 78, 100
4, 186352, Note_off_c, 1, 78, 64
4, 186360, Note_on_c, 1, 79, 100
4, 186444, Note_off_c, 1, 79, 64
4, 186460, Note_on_c, 1, 78, 100
4, 186636, Note_off_c, 1, 78, 64
4, 187024, Note_on_c, 1, 81, 100
4, 187108, Note_off_c, 1, 81, 64
4, 187132, Note_on_c, 1, 79, 100
4, 187216, Note_off_c, 1, 79, 64
4, 187216, Note_on_c, 1, 78, 100
4, 187392, Note_off_c, 1, 78, 64
4, 187796, Note_on_c, 1, 84, 100
4, 187880, Note_off_c, 1, 84, 64
4, 187896, Note_on_c, 1, 82, 100
4, 187980, Note_off_c, 1, 82, 64
4, 187996, Note_on_c, 1, 81, 100
4, 188172, Note_off_c, 1, 81, 64
4, 188572, Note_on_c, 1, 82, 100
4, 188656, Note_off_c, 1, 82, 64
4, 188672, Note_on_c, 1, 84, 100
4, 188752, Note_off_c, 1, 84, 64
4, 188760, Note_on_c, 1, 82, 100
4, 188936, Note_off_c, 1, 82, 64
4, 189340, Note_on_c, 1, 81, 100
4, 189424, Note_off_c, 1, 81, 64
4, 189432, Note_on_c, 1, 79, 100
4, 189516, Note_off_c, 1, 79, 64
4, 189536, Note_on_c, 1, 81, 100
4, 189712, Note_off_c, 1, 81, 64
4, 190100, Note_on_c, 1, 75, 100
4, 190184, Note_off_c, 1, 75, 64
4, 190192, Note_on_c, 1, 74, 100
4, 190276, Note_off_c, 1, 74, 64
4, 190300, Note_on_c, 1, 72, 100
4, 190476, Note_off_c, 1, 72, 64
4, 190484, Note_on_c, 1, 74, 100
4, 190660, Note_off_c, 1, 74, 64
4, 190684, Note_on_c, 1, 75, 100
4, 190952, Note_off_c, 1, 75, 64
4, 190976, Note_on_c, 1, 74, 100
4, 191056, Note_off_c, 1, 74, 64
4, 191060, Note_on_c, 1, 72, 100
4, 191144, Note_off_c, 1, 72, 64
4, 191168, Note_on_c, 1, 70, 100
4, 191248, Note_off_c, 1, 70, 64
4, 191256, Note_on_c, 1, 69, 100
4, 191340, Note_off_c, 1, 69, 64
4, 191352, Note_on_c, 1, 67, 100
4, 191436, Note_off_c, 1, 67, 64
4, 191452, Note_on_c, 1, 74, 100
4, 191628, Note_off_c, 1, 74, 64
4, 191632, Note_on_c, 1, 72, 100
4, 191716, Note_off_c, 1, 72, 64
4, 191740, Note_on_c, 1, 70, 100
4, 191824, Note_off_c, 1, 70, 64
4, 191832, Note_on_c, 1, 69, 100
4, 192008, Note_off_c, 1, 69, 64
4, 192020, Note_on_c, 1, 67, 100
4, 192104, Note_off_c, 1, 67, 64
4, 192120, Note_on_c, 1, 66, 100
4, 192204, Note_off_c, 1, 66, 64
4, 192220, Note_on_c, 1, 67, 100
4, 192396, Note_off_c, 1, 67, 64
4, 192400, Note_on_c, 1, 62, 100
4, 192484, Note_off_c, 1, 62, 64
4, 192512, Note_on_c, 1, 60, 100
4, 192592, Note_off_c, 1, 60, 64
4, 192592, Note_on_c, 1, 62, 100
4, 192768, Note_off_c, 1, 62, 64
4, 192788, Note_on_c, 1, 67, 100
4, 192872, Note_off_c, 1, 67, 64
4, 192892, Note_on_c, 1, 66, 100
4, 192976, Note_off_c, 1, 66, 64
4, 192984, Note_on_c, 1, 67, 100
4, 193160, Note_off_c, 1, 67, 64
4, 193172, Note_on_c, 1, 59, 100
4, 193256, Note_off_c, 1, 59, 64
4, 193264, Note_on_c, 1, 57, 100
4, 193348, Note_off_c, 1, 57, 64
4, 193376, Note_on_c, 1, 59, 100
4, 193552, Note_off_c, 1, 59, 64
4, 193564, Note_on_c, 1, 67, 100
4, 193648, Note_off_c, 1, 67, 64
4, 193652, Note_on_c, 1, 66, 100
4, 193736, Note_off_c, 1, 66, 64
4, 193756, Note_on_c, 1, 67, 100
4, 193932, Note_off_c, 1, 67, 64
4, 193936, Note_on_c, 1, 55, 100
4, 194020, Note_off_c, 1, 55, 64
4, 194036, Note_on_c, 1, 57, 100
4, 194120, Note_off_c, 1, 57, 64
4, 194132, Note_on_c, 1, 59, 100
4, 194308, Note_off_c, 1, 59, 64
4, 194328, Note_on_c, 1, 61, 100
4, 194504, Note_off_c, 1, 61, 64
4, 194512, Note_on_c, 1, 62, 100
4, 194596, Note_off_c, 1, 62, 64
4, 194608, Note_on_c, 1, 61, 100
4, 194692, Note_off_c, 1, 61, 64
4, 194712, Note_on_c, 1, 62, 100
4, 194796, Note_off_c, 1, 62, 64
4, 194804, Note_on_c, 1, 64, 100
4, 194888, Note_off_c, 1, 64, 64
4, 194904, Note_on_c, 1, 62, 100
4, 194988, Note_off_c, 1, 62, 64
4, 195008, Note_on_c, 1, 66, 100
4, 195088, Note_off_c, 1, 66, 64
4, 195088, Note_on_c, 1, 62, 100
4, 195172, Note_off_c, 1, 62, 64
4, 195192, Note_on_c, 1, 67, 100
4, 195276, Note_off_c, 1, 67, 64
4, 195280, Note_on_c, 1, 62, 100
4, 195364, Note_off_c, 1, 62, 64
4, 195388, Note_on_c, 1, 61, 100
4, 195472, Note_off_c, 1, 61, 64
4, 195476, Note_on_c, 1, 62, 100
4, 195560, Note_off_c, 1, 62, 64
4, 195572, Note_on_c, 1, 64, 100
4, 195656, Note_off_c, 1, 64, 64
4, 195664, Note_on_c, 1, 62, 100
4, 195748, Note_off_c, 1, 62, 64
4, 195764, Note_on_c, 1, 69, 100
4, 195848, Note_off_c, 1, 69, 64
4, 195864, Note_on_c, 1, 62, 100
4, 195948, Note_off_c, 1, 62, 64
4, 195956, Note_on_c, 1, 71, 100
4, 196040, Note_off_c, 1, 71, 64
4, 196052, Note_on_c, 1, 62, 100
4, 196136, Note_off_c, 1, 62, 64
4, 196152, Note_on_c, 1, 61, 100
4, 196236, Note_off_c, 1, 61, 64
4, 196252, Note_on_c, 1, 62, 100
4, 196336, Note_off_c, 1, 62, 64
4, 196344, Note_on_c, 1, 64, 100
4, 196428, Note_off_c, 1, 64, 64
4, 196436, Note_on_c, 1, 62, 100
4, 196520, Note_off_c, 1, 62, 64
4, 196532, Note_on_c, 1, 72, 100
4, 196616, Note_off_c, 1, 72, 64
4, 196640, Note_on_c, 1, 62, 100
4, 196720, Note_off_c, 1, 62, 64
4, 196720, Note_on_c, 1, 74, 100
4, 196804, Note_off_c, 1, 74, 64
4, 196820, Note_on_c, 1, 71, 100
4, 196996, Note_off_c, 1, 71, 64
4, 197016, Note_on_c, 1, 69, 100
4, 197100, Note_off_c, 1, 69, 64
4, 197108, Note_on_c, 1, 67, 100
4, 197192, Note_off_c, 1, 67, 64
4, 197216, Note_on_c, 1, 69, 100
4, 197392, Note_off_c, 1, 69, 64
4, 197408, Note_on_c, 1, 67, 100
4, 197488, Note_off_c, 1, 67, 64
4, 197500, Note_on_c, 1, 66, 100
4, 197584, Note_off_c, 1, 66, 64
4, 197592, Note_on_c, 1, 67, 100
4, 197768, Note_off_c, 1, 67, 64
4, 197788, Note_on_c, 1, 66, 100
4, 197872, Note_off_c, 1, 66, 64
4, 197876, Note_on_c, 1, 64, 100
4, 197960, Note_off_c, 1, 64, 64
4, 197976, Note_on_c, 1, 62, 100
4, 198060, Note_off_c, 1, 62, 64
4, 198064, Note_on_c, 1, 67, 100
4, 198148, Note_off_c, 1, 67, 64
4, 198168, Note_on_c, 1, 62, 100
4, 198252, Note_off_c, 1, 62, 64
4, 198260, Note_on_c, 1, 67, 100
4, 198344, Note_off_c, 1, 67, 64
4, 198360, Note_on_c, 1, 64, 100
4, 198536, Note_off_c, 1, 64, 64
4, 198544, Note_on_c, 1, 62, 100
4, 198628, Note_off_c, 1, 62, 64
4, 198648, Note_on_c, 1, 60, 100
4, 198732, Note_off_c, 1, 60, 64
4, 198740, Note_on_c, 1, 59, 100
4, 198824, Note_off_c, 1, 59, 64
4, 198836, Note_on_c, 1, 67, 100
4, 198920, Note_off_c, 1, 67, 64
4, 198928, Note_on_c, 1, 59, 100
4, 199012, Note_off_c, 1, 59, 64
4, 199032, Note_on_c, 1, 67, 100
4, 199116, Note_off_c, 1, 67, 64
4, 199136, Note_on_c, 1, 60, 100
4, 199312, Note_off_c, 1, 60, 64
4, 199324, Note_on_c, 1, 59, 100
4, 199408, Note_off_c, 1, 59, 64
4, 199420, Note_on_c, 1, 57, 100
4, 199504, Note_off_c, 1, 57, 64
4, 199512, Note_on_c, 1, 55, 100
4, 199596, Note_off_c, 1, 55, 64
4, 199612, Note_on_c, 1, 67, 100
4, 199696, Note_off_c, 1, 67, 64
4, 199712, Note_on_c, 1, 57, 100
4, 199792, Note_off_c, 1, 57, 64
4, 199800, Note_on_c, 1, 67, 100
4, 199884, Note_off_c, 1, 67, 64
4, 199904, Note_on_c, 1, 59, 100
4, 199984, Note_off_c, 1, 59, 64
4, 199996, Note_on_c, 1, 67, 100
4, 200080, Note_off_c, 1, 67, 64
4, 200092, Note_on_c, 1, 61, 100
4, 200176, Note_off_c, 1, 61, 64
4, 200188, Note_on_c, 1, 67, 100
4, 200272, Note_off_c, 1, 67, 64
4, 200288, Note_on_c, 1, 62, 100
4, 200368, Note_off_c, 1, 62, 64
4, 200376, Note_on_c, 1, 66, 100
4, 200460, Note_off_c, 1, 66, 64
4, 200468, Note_on_c, 1, 62, 100
4, 200552, Note_off_c, 1, 62, 64
4, 200564, Note_on_c, 1, 67, 100
4, 200648, Note_off_c, 1, 67, 64
4, 200668, Note_on_c, 1, 62, 100
4, 200752, Note_off_c, 1, 62, 64
4, 200752, Note_on_c, 1, 69, 100
4, 200836, Note_off_c, 1, 69, 64
4, 200852, Note_on_c, 1, 62, 100
4, 200936, Note_off_c, 1, 62, 64
4, 200944, Note_on_c, 1, 71, 100
4, 201028, Note_off_c, 1, 71, 64
4, 201044, Note_on_c, 1, 62, 100
4, 201128, Note_off_c, 1, 62, 64
4, 201140, Note_on_c, 1, 72, 100
4, 201224, Note_off_c, 1, 72, 64
4, 201240, Note_on_c, 1, 62, 100
4, 201324, Note_off_c, 1, 62, 64
4, 201328, Note_on_c, 1, 74, 100
4, 201412, Note_off_c, 1, 74, 64
4, 201432, Note_on_c, 1, 71, 100
4, 201608, Note_off_c, 1, 71, 64
4, 201624, Note_on_c, 1, 69, 100
4, 201708, Note_off_c, 1, 69, 64
4, 201712, Note_on_c, 1, 67, 100
4, 201796, Note_off_c, 1, 67, 64
4, 201820, Note_on_c, 1, 62, 100
4, 201996, Note_off_c, 1, 62, 64
4, 202000, Note_on_c, 1, 66, 100
4, 202176, Note_off_c, 1, 66, 64
4, 202204, Note_on_c, 1, 67, 100
4, 202380, Note_off_c, 1, 67, 64
4, 203936, Note_on_c, 1, 67, 100
4, 204016, Note_off_c, 1, 67, 64
4, 204024, Note_on_c, 1, 66, 100
4, 204108, Note_off_c, 1, 66, 64
4, 204116, Note_on_c, 1, 67, 100
4, 204292, Note_off_c, 1, 67, 64
4, 204320, Note_on_c, 1, 71, 100
4, 204400, Note_off_c, 1, 71, 64
4, 204412, Note_on_c, 1, 69, 100
4, 204496, Note_off_c, 1, 69, 64
4, 204500, Note_on_c, 1, 71, 100
4, 204676, Note_off_c, 1, 71, 64
4, 204688, Note_on_c, 1, 74, 100
4, 204772, Note_off_c, 1, 74, 64
4, 204784, Note_on_c, 1, 72, 100
4, 204868, Note_off_c, 1, 72, 64
4, 204884, Note_on_c, 1, 74, 100
4, 205060, Note_off_c, 1, 74, 64
4, 205080, Note_on_c, 1, 79, 100
4, 205164, Note_off_c, 1, 79, 64
4, 205176, Note_on_c, 1, 78, 100
4, 205260, Note_off_c, 1, 78, 64
4, 205272, Note_on_c, 1, 79, 100
4, 205632, Note_off_c, 1, 79, 64
4, 205848, Note_on_c, 1, 74, 100
4, 206024, Note_off_c, 1, 74, 64
4, 206048, Note_on_c, 1, 79, 100
4, 206224, Note_off_c, 1, 79, 64
4, 206232, Note_on_c, 1, 78, 100
4, 206316, Note_off_c, 1, 78, 64
4, 206324, Note_on_c, 1, 76, 100
4, 206408, Note_off_c, 1, 76, 64
4, 206424, Note_on_c, 1, 74, 100
4, 206508, Note_off_c, 1, 74, 64
4, 206528, Note_on_c, 1, 72, 100
4, 206608, Note_off_c, 1, 72, 64
4, 206616, Note_on_c, 1, 71, 100
4, 206700, Note_off_c, 1, 71, 64
4, 206716, Note_on_c, 1, 69, 100
4, 206800, Note_off_c, 1, 69, 64
4, 206800, Note_on_c, 1, 67, 100
4, 206976, Note_off_c, 1, 67, 64
4, 207004, Note_on_c, 1, 66, 100
4, 207088, Note_off_c, 1, 66, 64
4, 207096, Note_on_c, 1, 64, 100
4, 207180, Note_off_c, 1, 64, 64
4, 207200, Note_on_c, 1, 62, 100
4, 207280, Note_off_c, 1, 62, 64
4, 207284, Note_on_c, 1, 60, 100
4, 207368, Note_off_c, 1, 60, 64
4, 207384, Note_on_c, 1, 59, 100
4, 207468, Note_off_c, 1, 59, 64
4, 207480, Note_on_c, 1, 57, 100
4, 207564, Note_off_c, 1, 57, 64
4, 207580, Note_on_c, 1, 59, 100
4, 207756, Note_off_c, 1, 59, 64
4, 207776, Note_on_c, 1, 57, 100
4, 207856, Note_off_c, 1, 57, 64
4, 207856, Note_on_c, 1, 55, 100
4, 207940, Note_off_c, 1, 55, 64
4, 207956, Note_on_c, 1, 62, 100
4, 208132, Note_off_c, 1, 62, 64
4, 208144, Note_on_c, 1, 62, 100
4, 208320, Note_off_c, 1, 62, 64
4, 208336, Note_on_c, 1, 55, 100
4, 209072, Note_off_c, 1, 55, 64
4, 209072, End_track
5, 0, Start_track
5, 0, Title_t, "Violin 3"
5, 0, Control_c, 2, 0, 0
5, 0, Program_c, 2, 63
5, 0, Control_c, 2, 7, 124
5, 0, Control_c, 2, 10, 44
5, 0, Control_c, 2, 91, 86
5, 0, Control_c, 2, 93, 70
5, 0, Pitch_bend_c, 2, 8192
5, 4, Control_c, 2, 1, 0
5, 8, Control_c, 2, 64, 0
5, 20, Note_on_c, 2, 67, 100
5, 104, Note_off_c, 2, 67, 64
5, 112, Note_on_c, 2, 66, 100
5, 196, Note_off_c, 2, 66, 64
5, 208, Note_on_c, 2, 67, 100
5, 384, Note_off_c, 2, 67, 64
5, 412, Note_on_c, 2, 62, 100
5, 496, Note_off_c, 2, 62, 64
5, 496, Note_on_c, 2, 60, 100
5, 580, Note_off_c, 2, 60, 64
5, 608, Note_on_c, 2, 62, 100
5, 784, Note_off_c, 2, 62, 64
5, 796, Note_on_c, 2, 67, 100
5, 880, Note_off_c, 2, 67, 64
5, 896, Note_on_c, 2, 66, 100
5, 976, Note_off_c, 2, 66, 64
5, 980, Note_on_c, 2, 67, 100
5, 1156, Note_off_c, 2, 67, 64
5, 1176, Note_on_c, 2, 59, 100
5, 1260, Note_off_c, 2, 59, 64
5, 1272, Note_on_c, 2, 57, 100
5, 1356, Note_off_c, 2, 57, 64
5, 1368, Note_on_c, 2, 59, 100
5, 1544, Note_off_c, 2, 59, 64
5, 1564, Note_on_c, 2, 67, 100
5, 1648, Note_off_c, 2, 67, 64
5, 1648, Note_on_c, 2, 66, 100
5, 1732, Note_off_c, 2, 66, 64
5, 1748, Note_on_c, 2, 67, 100
5, 1924, Note_off_c, 2, 67, 64
5, 1944, Note_on_c, 2, 55, 100
5, 2028, Note_off_c, 2, 55, 64
5, 2036, Note_on_c, 2, 57, 100
5, 2120, Note_off_c, 2, 57, 64
5, 2140, Note_on_c, 2, 59, 100
5, 2316, Note_off_c, 2, 59, 64
5, 2328, Note_on_c, 2, 61, 100
5, 2504, Note_off_c, 2, 61, 64
5, 2524, Note_on_c, 2, 62, 100
5, 2608, Note_off_c, 2, 62, 64
5, 2616, Note_on_c, 2, 61, 100
5, 2700, Note_off_c, 2, 61, 64
5, 2704, Note_on_c, 2, 62, 100
5, 2788, Note_off_c, 2, 62, 64
5, 2808, Note_on_c, 2, 64, 100
5, 2892, Note_off_c, 2, 64, 64
5, 2912, Note_on_c, 2, 62, 100
5, 2992, Note_off_c, 2, 62, 64
5, 3000, Note_on_c, 2, 66, 100
5, 3084, Note_off_c, 2, 66, 64
5, 3100, Note_on_c, 2, 62, 100
5, 3184, Note_off_c, 2, 62, 64
5, 3188, Note_on_c, 2, 67, 100
5, 3272, Note_off_c, 2, 67, 64
5, 3284, Note_on_c, 2, 62, 100
5, 3368, Note_off_c, 2, 62, 64
5, 3388, Note_on_c, 2, 61, 100
5, 3472, Note_off_c, 2, 61, 64
5, 3488, Note_on_c, 2, 62, 100
5, 3568, Note_off_c, 2, 62, 64
5, 3576, Note_on_c, 2, 64, 100
5, 3660, Note_off_c, 2, 64, 64
5, 3668, Note_on_c, 2, 62, 100
5, 3752, Note_off_c, 2, 62, 64
5, 3760, Note_on_c, 2, 69, 100
5, 3844, Note_off_c, 2, 69, 64
5, 3872, Note_on_c, 2, 62, 100
5, 3952, Note_off_c, 2, 62, 64
5, 3960, Note_on_c, 2, 71, 100
5, 4044, Note_off_c, 2, 71, 64
5, 4060, Note_on_c, 2, 62, 100
5, 4144, Note_off_c, 2, 62, 64
5, 4144, Note_on_c, 2, 61, 100
5, 4228, Note_off_c, 2, 61, 64
5, 4244, Note_on_c, 2, 62, 100
5, 4328, Note_off_c, 2, 62, 64
5, 4336, Note_on_c, 2, 64, 100
5, 4420, Note_off_c, 2, 64, 64
5, 4448, Note_on_c, 2, 62, 100
5, 4528, Note_off_c, 2, 62, 64
5, 4544, Note_on_c, 2, 72, 100
5, 4624, Note_off_c, 2, 72, 64
5, 4632, Note_on_c, 2, 62, 100
5, 4716, Note_off_c, 2, 62, 64
5, 4736, Note_on_c, 2, 74, 100
5, 4816, Note_off_c, 2, 74, 64
5, 4816, Note_on_c, 2, 71, 100
5, 4992, Note_off_c, 2, 71, 64
5, 5016, Note_on_c, 2, 69, 100
5, 5100, Note_off_c, 2, 69, 64
5, 5120, Note_on_c, 2, 67, 100
5, 5200, Note_off_c, 2, 67, 64
5, 5212, Note_on_c, 2, 69, 100
5, 5388, Note_off_c, 2, 69, 64
5, 5400, Note_on_c, 2, 67, 100
5, 5484, Note_off_c, 2, 67, 64
5, 5496, Note_on_c, 2, 66, 100
5, 5580, Note_off_c, 2, 66, 64
5, 5596, Note_on_c, 2, 67, 100
5, 5772, Note_off_c, 2, 67, 64
5, 5788, Note_on_c, 2, 66, 100
5, 5872, Note_off_c, 2, 66, 64
5, 5876, Note_on_c, 2, 64, 100
5, 5960, Note_off_c, 2, 64, 64
5, 5984, Note_on_c, 2, 62, 100
5, 6064, Note_off_c, 2, 62, 64
5, 6076, Note_on_c, 2, 67, 100
5, 6160, Note_off_c, 2, 67, 64
5, 6168, Note_on_c, 2, 62, 100
5, 6252, Note_off_c, 2, 62, 64
5, 6268, Note_on_c, 2, 67, 100
5, 6352, Note_off_c, 2, 67, 64
5, 6368, Note_on_c, 2, 64, 100
5, 6544, Note_off_c, 2, 64, 64
5, 6552, Note_on_c, 2, 62, 100
5, 6636, Note_off_c, 2, 62, 64
5, 6640, Note_on_c, 2, 60, 100
5, 6724, Note_off_c, 2, 60, 64
5, 6736, Note_on_c, 2, 59, 100
5, 6820, Note_off_c, 2, 59, 64
5, 6836, Note_on_c, 2, 67, 100
5, 6920, Note_off_c, 2, 67, 64
5, 6940, Note_on_c, 2, 59, 100
5, 7024, Note_off_c, 2, 59, 64
5, 7040, Note_on_c, 2, 67, 100
5, 7120, Note_off_c, 2, 67, 64
5, 7124, Note_on_c, 2, 60, 100
5, 7300, Note_off_c, 2, 60, 64
5, 7320, Note_on_c, 2, 59, 100
5, 7404, Note_off_c, 2, 59, 64
5, 7420, Note_on_c, 2, 57, 100
5, 7504, Note_off_c, 2, 57, 64
5, 7504, Note_on_c, 2, 55, 100
5, 7588, Note_off_c, 2, 55, 64
5, 7604, Note_on_c, 2, 67, 100
5, 7688, Note_off_c, 2, 67, 64
5, 7704, Note_on_c, 2, 57, 100
5, 7788, Note_off_c, 2, 57, 64
5, 7808, Note_on_c, 2, 67, 100
5, 7888, Note_off_c, 2, 67, 64
5, 7904, Note_on_c, 2, 59, 100
5, 7984, Note_off_c, 2, 59, 64
5, 7988, Note_on_c, 2, 67, 100
5, 8072, Note_off_c, 2, 67, 64
5, 8092, Note_on_c, 2, 61, 100
5, 8176, Note_off_c, 2, 61, 64
5, 8188, Note_on_c, 2, 67, 100
5, 8272, Note_off_c, 2, 67, 64
5, 8276, Note_on_c, 2, 62, 100
5, 8360, Note_off_c, 2, 62, 64
5, 8372, Note_on_c, 2, 66, 100
5, 8456, Note_off_c, 2, 66, 64
5, 8468, Note_on_c, 2, 62, 100
5, 8552, Note_off_c, 2, 62, 64
5, 8568, Note_on_c, 2, 67, 100
5, 8652, Note_off_c, 2, 67, 64
5, 8668, Note_on_c, 2, 62, 100
5, 8752, Note_off_c, 2, 62, 64
5, 8768, Note_on_c, 2, 69, 100
5, 8848, Note_off_c, 2, 69, 64
5, 8848, Note_on_c, 2, 62, 100
5, 8932, Note_off_c, 2, 62, 64
5, 8956, Note_on_c, 2, 71, 100
5, 9040, Note_off_c, 2, 71, 64
5, 9056, Note_on_c, 2, 62, 100
5, 9136, Note_off_c, 2, 62, 64
5, 9136, Note_on_c, 2, 72, 100
5, 9220, Note_off_c, 2, 72, 64
5, 9232, Note_on_c, 2, 62, 100
5, 9316, Note_off_c, 2, 62, 64
5, 9344, Note_on_c, 2, 74, 100
5, 9424, Note_off_c, 2, 74, 64
5, 9436, Note_on_c, 2, 71, 100
5, 9612, Note_off_c, 2, 71, 64
5, 9620, Note_on_c, 2, 69, 100
5, 9704, Note_off_c, 2, 69, 64
5, 9720, Note_on_c, 2, 67, 100
5, 9804, Note_off_c, 2, 67, 64
5, 9820, Note_on_c, 2, 62, 100
5, 9996, Note_off_c, 2, 62, 64
5, 10000, Note_on_c, 2, 66, 100
5, 10176, Note_off_c, 2, 66, 64
5, 10208, Note_on_c, 2, 67, 100
5, 10384, Note_off_c, 2, 67, 64
5, 10388, Note_on_c, 2, 66, 100
5, 10472, Note_off_c, 2, 66, 64
5, 10496, Note_on_c, 2, 64, 100
5, 10576, Note_off_c, 2, 64, 64
5, 10592, Note_on_c, 2, 62, 100
5, 10672, Note_off_c, 2, 62, 64
5, 10684, Note_on_c, 2, 60, 100
5, 10768, Note_off_c, 2, 60, 64
5, 10772, Note_on_c, 2, 59, 100
5, 10856, Note_off_c, 2, 59, 64
5, 10876, Note_on_c, 2, 57, 100
5, 10960, Note_off_c, 2, 57, 64
5, 10972, Note_on_c, 2, 59, 100
5, 11148, Note_off_c, 2, 59, 64
5, 11164, Note_on_c, 2, 57, 100
5, 11248, Note_off_c, 2, 57, 64
5, 11260, Note_on_c, 2, 55, 100
5, 11344, Note_off_c, 2, 55, 64
5, 11352, Note_on_c, 2, 62, 100
5, 11528, Note_off_c, 2, 62, 64
5, 11540, Note_on_c, 2, 62, 100
5, 11716, Note_off_c, 2, 62, 64
5, 11740, Note_on_c, 2, 55, 100
5, 12100, Note_off_c, 2, 55, 64
5, 12312, Note_on_c, 2, 74, 100
5, 12396, Note_off_c, 2, 74, 64
5, 12412, Note_on_c, 2, 72, 100
5, 12496, Note_off_c, 2, 72, 64
5, 12500, Note_on_c, 2, 74, 100
5, 12676, Note_off_c, 2, 74, 64
5, 12700, Note_on_c, 2, 71, 100
5, 12784, Note_off_c, 2, 71, 64
5, 12800, Note_on_c, 2, 69, 100
5, 12880, Note_off_c, 2, 69, 64
5, 12888, Note_on_c, 2, 71, 100
5, 13064, Note_off_c, 2, 71, 64
5, 14240, Note_on_c, 2, 74, 100
5, 14416, Note_off_c, 2, 74, 64
5, 14432, Note_on_c, 2, 79, 100
5, 14512, Note_off_c, 2, 79, 64
5, 14520, Note_on_c, 2, 83, 100
5, 14604, Note_off_c, 2, 83, 64
5, 14624, Note_on_c, 2, 81, 100
5, 14704, Note_off_c, 2, 81, 64
5, 14712, Note_on_c, 2, 79, 100
5, 14796, Note_off_c, 2, 79, 64
5, 14812, Note_on_c, 2, 78, 100
5, 15172, Note_off_c, 2, 78, 64
5, 15392, Note_on_c, 2, 73, 100
5, 15568, Note_off_c, 2, 73, 64
5, 15580, Note_on_c, 2, 74, 100
5, 15940, Note_off_c, 2, 74, 64
5, 16152, Note_on_c, 2, 76, 100
5, 16328, Note_off_c, 2, 76, 64
5, 16344, Note_on_c, 2, 78, 100
5, 16428, Note_off_c, 2, 78, 64
5, 16432, Note_on_c, 2, 81, 100
5, 16516, Note_off_c, 2, 81, 64
5, 16540, Note_on_c, 2, 74, 100
5, 16624, Note_off_c, 2, 74, 64
5, 16632, Note_on_c, 2, 76, 100
5, 16716, Note_off_c, 2, 76, 64
5, 16736, Note_on_c, 2, 78, 100
5, 16816, Note_off_c, 2, 78, 64
5, 16820, Note_on_c, 2, 79, 100
5, 16904, Note_off_c, 2, 79, 64
5, 16920, Note_on_c, 2, 81, 100
5, 17004, Note_off_c, 2, 81, 64
5, 17112, Note_on_c, 2, 78, 100
5, 17288, Note_off_c, 2, 78, 64
5, 17304, Note_on_c, 2, 76, 100
5, 17388, Note_off_c, 2, 76, 64
5, 17408, Note_on_c, 2, 74, 100
5, 17488, Note_off_c, 2, 74, 64
5, 17500, Note_on_c, 2, 76, 100
5, 17676, Note_off_c, 2, 76, 64
5, 17684, Note_on_c, 2, 74, 100
5, 17768, Note_off_c, 2, 74, 64
5, 17780, Note_on_c, 2, 73, 100
5, 17864, Note_off_c, 2, 73, 64
5, 17884, Note_on_c, 2, 74, 100
5, 18060, Note_off_c, 2, 74, 64
5, 18068, Note_on_c, 2, 73, 100
5, 18152, Note_off_c, 2, 73, 64
5, 18172, Note_on_c, 2, 71, 100
5, 18256, Note_off_c, 2, 71, 64
5, 18256, Note_on_c, 2, 69, 100
5, 18340, Note_off_c, 2, 69, 64
5, 18356, Note_on_c, 2, 74, 100
5, 18440, Note_off_c, 2, 74, 64
5, 18456, Note_on_c, 2, 69, 100
5, 18540, Note_off_c, 2, 69, 64
5, 18544, Note_on_c, 2, 74, 100
5, 18628, Note_off_c, 2, 74, 64
5, 18640, Note_on_c, 2, 71, 100
5, 18816, Note_off_c, 2, 71, 64
5, 18836, Note_on_c, 2, 69, 100
5, 18920, Note_off_c, 2, 69, 64
5, 18932, Note_on_c, 2, 67, 100
5, 19016, Note_off_c, 2, 67, 64
5, 19028, Note_on_c, 2, 66, 100
5, 19112, Note_off_c, 2, 66, 64
5, 19128, Note_on_c, 2, 74, 100
5, 19212, Note_off_c, 2, 74, 64
5, 19232, Note_on_c, 2, 66, 100
5, 19312, Note_off_c, 2, 66, 64
5, 19324, Note_on_c, 2, 74, 100
5, 19408, Note_off_c, 2, 74, 64
5, 19416, Note_on_c, 2, 67, 100
5, 19592, Note_off_c, 2, 67, 64
5, 19604, Note_on_c, 2, 66, 100
5, 19688, Note_off_c, 2, 66, 64
5, 19708, Note_on_c, 2, 64, 100
5, 19792, Note_off_c, 2, 64, 64
5, 19804, Note_on_c, 2, 62, 100
5, 19888, Note_off_c, 2, 62, 64
5, 19892, Note_on_c, 2, 74, 100
5, 19976, Note_off_c, 2, 74, 64
5, 19984, Note_on_c, 2, 64, 100
5, 20068, Note_off_c, 2, 64, 64
5, 20080, Note_on_c, 2, 74, 100
5, 20164, Note_off_c, 2, 74, 64
5, 20176, Note_on_c, 2, 66, 100
5, 20260, Note_off_c, 2, 66, 64
5, 20272, Note_on_c, 2, 74, 100
5, 20356, Note_off_c, 2, 74, 64
5, 20368, Note_on_c, 2, 68, 100
5, 20452, Note_off_c, 2, 68, 64
5, 20472, Note_on_c, 2, 74, 100
5, 20556, Note_off_c, 2, 74, 64
5, 20560, Note_on_c, 2, 69, 100
5, 20644, Note_off_c, 2, 69, 64
5, 20668, Note_on_c, 2, 73, 100
5, 20752, Note_off_c, 2, 73, 64
5, 20768, Note_on_c, 2, 69, 100
5, 20848, Note_off_c, 2, 69, 64
5, 20856, Note_on_c, 2, 74, 100
5, 20940, Note_off_c, 2, 74, 64
5, 20952, Note_on_c, 2, 69, 100
5, 21036, Note_off_c, 2, 69, 64
5, 21040, Note_on_c, 2, 76, 100
5, 21124, Note_off_c, 2, 76, 64
5, 21152, Note_on_c, 2, 69, 100
5, 21232, Note_off_c, 2, 69, 64
5, 21232, Note_on_c, 2, 78, 100
5, 21316, Note_off_c, 2, 78, 64
5, 21336, Note_on_c, 2, 69, 100
5, 21420, Note_off_c, 2, 69, 64
5, 21440, Note_on_c, 2, 79, 100
5, 21520, Note_off_c, 2, 79, 64
5, 21536, Note_on_c, 2, 69, 100
5, 21616, Note_off_c, 2, 69, 64
5, 21632, Note_on_c, 2, 81, 100
5, 21712, Note_off_c, 2, 81, 64
5, 21720, Note_on_c, 2, 78, 100
5, 21896, Note_off_c, 2, 78, 64
5, 21912, Note_on_c, 2, 76, 100
5, 21996, Note_off_c, 2, 76, 64
5, 22004, Note_on_c, 2, 74, 100
5, 22088, Note_off_c, 2, 74, 64
5, 22104, Note_on_c, 2, 69, 100
5, 22280, Note_off_c, 2, 69, 64
5, 22300, Note_on_c, 2, 73, 100
5, 22476, Note_off_c, 2, 73, 64
5, 22480, Note_on_c, 2, 74, 100
5, 22844, Note_off_c, 2, 74, 64
5, 23068, Note_on_c, 2, 67, 100
5, 23152, Note_off_c, 2, 67, 64
5, 23152, Note_on_c, 2, 69, 100
5, 23236, Note_off_c, 2, 69, 64
5, 23248, Note_on_c, 2, 71, 100
5, 23424, Note_off_c, 2, 71, 64
5, 23440, Note_on_c, 2, 67, 100
5, 23524, Note_off_c, 2, 67, 64
5, 23548, Note_on_c, 2, 66, 100
5, 23632, Note_off_c, 2, 66, 64
5, 23636, Note_on_c, 2, 67, 100
5, 23812, Note_off_c, 2, 67, 64
5, 24992, Note_on_c, 2, 71, 100
5, 25072, Note_off_c, 2, 71, 64
5, 25088, Note_on_c, 2, 72, 100
5, 25168, Note_off_c, 2, 72, 64
5, 25176, Note_on_c, 2, 74, 100
5, 25352, Note_off_c, 2, 74, 64
5, 25368, Note_on_c, 2, 76, 100
5, 25544, Note_off_c, 2, 76, 64
5, 25556, Note_on_c, 2, 69, 100
5, 25732, Note_off_c, 2, 69, 64
5, 25760, Note_on_c, 2, 78, 100
5, 25840, Note_off_c, 2, 78, 64
5, 25844, Note_on_c, 2, 76, 100
5, 25928, Note_off_c, 2, 76, 64
5, 25936, Note_on_c, 2, 74, 100
5, 26112, Note_off_c, 2, 74, 64
5, 26524, Note_on_c, 2, 78, 100
5, 26608, Note_off_c, 2, 78, 64
5, 26608, Note_on_c, 2, 76, 100
5, 26692, Note_off_c, 2, 76, 64
5, 26720, Note_on_c, 2, 74, 100
5, 26896, Note_off_c, 2, 74, 64
5, 27280, Note_on_c, 2, 78, 100
5, 27364, Note_off_c, 2, 78, 64
5, 27384, Note_on_c, 2, 76, 100
5, 27468, Note_off_c, 2, 76, 64
5, 27488, Note_on_c, 2, 74, 100
5, 27664, Note_off_c, 2, 74, 64
5, 28056, Note_on_c, 2, 74, 100
5, 28232, Note_off_c, 2, 74, 64
5, 28244, Note_on_c, 2, 78, 100
5, 28420, Note_off_c, 2, 78, 64
5, 28432, Note_on_c, 2, 81, 100
5, 28608, Note_off_c, 2, 81, 64
5, 28624, Note_on_c, 2, 78, 100
5, 28800, Note_off_c, 2, 78, 64
5, 28824, Note_on_c, 2, 74, 100
5, 29000, Note_off_c, 2, 74, 64
5, 29008, Note_on_c, 2, 78, 100
5, 29184, Note_off_c, 2, 78, 64
5, 29216, Note_on_c, 2, 81, 100
5, 29392, Note_off_c, 2, 81, 64
5, 29408, Note_on_c, 2, 78, 100
5, 29584, Note_off_c, 2, 78, 64
5, 29584, Note_on_c, 2, 69, 100
5, 29760, Note_off_c, 2, 69, 64
5, 29792, Note_on_c, 2, 74, 100
5, 29872, Note_off_c, 2, 74, 64
5, 29872, Note_on_c, 2, 78, 100
5, 29956, Note_off_c, 2, 78, 64
5, 29980, Note_on_c, 2, 76, 100
5, 30064, Note_off_c, 2, 76, 64
5, 30064, Note_on_c, 2, 74, 100
5, 30148, Note_off_c, 2, 74, 64
5, 30176, Note_on_c, 2, 73, 100
5, 30536, Note_off_c, 2, 73, 64
5, 30752, Note_on_c, 2, 69, 100
5, 30928, Note_off_c, 2, 69, 64
5, 30928, Note_on_c, 2, 67, 100
5, 31012, Note_off_c, 2, 67, 64
5, 31024, Note_on_c, 2, 71, 100
5, 31108, Note_off_c, 2, 71, 64
5, 31124, Note_on_c, 2, 64, 100
5, 31208, Note_off_c, 2, 64, 64
5, 31228, Note_on_c, 2, 66, 100
5, 31312, Note_off_c, 2, 66, 64
5, 31324, Note_on_c, 2, 67, 100
5, 31408, Note_off_c, 2, 67, 64
5, 31420, Note_on_c, 2, 69, 100
5, 31504, Note_off_c, 2, 69, 64
5, 31512, Note_on_c, 2, 71, 100
5, 31596, Note_off_c, 2, 71, 64
5, 31612, Note_on_c, 2, 73, 100
5, 31696, Note_off_c, 2, 73, 64
5, 31708, Note_on_c, 2, 74, 100
5, 32068, Note_off_c, 2, 74, 64
5, 32280, Note_on_c, 2, 74, 100
5, 32456, Note_off_c, 2, 74, 64
5, 32468, Note_on_c, 2, 73, 100
5, 32644, Note_off_c, 2, 73, 64
5, 32664, Note_on_c, 2, 74, 100
5, 32840, Note_off_c, 2, 74, 64
5, 32860, Note_on_c, 2, 74, 100
5, 33036, Note_off_c, 2, 74, 64
5, 33040, Note_on_c, 2, 71, 100
5, 33124, Note_off_c, 2, 71, 64
5, 33144, Note_on_c, 2, 73, 100
5, 33228, Note_off_c, 2, 73, 64
5, 33248, Note_on_c, 2, 71, 100
5, 33424, Note_off_c, 2, 71, 64
5, 33428, Note_on_c, 2, 73, 100
5, 33604, Note_off_c, 2, 73, 64
5, 33632, Note_on_c, 2, 73, 100
5, 33808, Note_off_c, 2, 73, 64
5, 33816, Note_on_c, 2, 69, 100
5, 33900, Note_off_c, 2, 69, 64
5, 33920, Note_on_c, 2, 71, 100
5, 34000, Note_off_c, 2, 71, 64
5, 34008, Note_on_c, 2, 69, 100
5, 34184, Note_off_c, 2, 69, 64
5, 34192, Note_on_c, 2, 67, 100
5, 34276, Note_off_c, 2, 67, 64
5, 34296, Note_on_c, 2, 66, 100
5, 34380, Note_off_c, 2, 66, 64
5, 34400, Note_on_c, 2, 64, 100
5, 34576, Note_off_c, 2, 64, 64
5, 34588, Note_on_c, 2, 64, 100
5, 34764, Note_off_c, 2, 64, 64
5, 34780, Note_on_c, 2, 66, 100
5, 35140, Note_off_c, 2, 66, 64
5, 35344, Note_on_c, 2, 74, 100
5, 35428, Note_off_c, 2, 74, 64
5, 35452, Note_on_c, 2, 73, 100
5, 35536, Note_off_c, 2, 73, 64
5, 35544, Note_on_c, 2, 74, 100
5, 35720, Note_off_c, 2, 74, 64
5, 36116, Note_on_c, 2, 74, 100
5, 36200, Note_off_c, 2, 74, 64
5, 36220, Note_on_c, 2, 73, 100
5, 36304, Note_off_c, 2, 73, 64
5, 36316, Note_on_c, 2, 74, 100
5, 36492, Note_off_c, 2, 74, 64
5, 36512, Note_on_c, 2, 69, 100
5, 36688, Note_off_c, 2, 69, 64
5, 36704, Note_on_c, 2, 69, 100
5, 36880, Note_off_c, 2, 69, 64
5, 36888, Note_on_c, 2, 71, 100
5, 37064, Note_off_c, 2, 71, 64
5, 37084, Note_on_c, 2, 69, 100
5, 37260, Note_off_c, 2, 69, 64
5, 37276, Note_on_c, 2, 69, 100
5, 37452, Note_off_c, 2, 69, 64
5, 37460, Note_on_c, 2, 69, 100
5, 37636, Note_off_c, 2, 69, 64
5, 37652, Note_on_c, 2, 71, 100
5, 37828, Note_off_c, 2, 71, 64
5, 37856, Note_on_c, 2, 62, 100
5, 38032, Note_on_c, 2, 62, 100
5, 38044, Note_off_c, 2, 62, 64
5, 38212, Note_off_c, 2, 62, 64
5, 38224, Note_on_c, 2, 62, 100
5, 38400, Note_off_c, 2, 62, 64
5, 38420, Note_on_c, 2, 74, 100
5, 38596, Note_off_c, 2, 74, 64
5, 38612, Note_on_c, 2, 74, 100
5, 38976, Note_off_c, 2, 74, 64
5, 39188, Note_on_c, 2, 67, 100
5, 39272, Note_off_c, 2, 67, 64
5, 39292, Note_on_c, 2, 66, 100
5, 39376, Note_off_c, 2, 66, 64
5, 39392, Note_on_c, 2, 67, 100
5, 39568, Note_off_c, 2, 67, 64
5, 39964, Note_on_c, 2, 67, 100
5, 40048, Note_off_c, 2, 67, 64
5, 40056, Note_on_c, 2, 66, 100
5, 40140, Note_off_c, 2, 66, 64
5, 40148, Note_on_c, 2, 67, 100
5, 40324, Note_off_c, 2, 67, 64
5, 40352, Note_on_c, 2, 62, 100
5, 40528, Note_on_c, 2, 62, 100
5, 40540, Note_off_c, 2, 62, 64
5, 40712, Note_off_c, 2, 62, 64
5, 40732, Note_on_c, 2, 64, 100
5, 40908, Note_off_c, 2, 64, 64
5, 40928, Note_on_c, 2, 62, 100
5, 41104, Note_off_c, 2, 62, 64
5, 41116, Note_on_c, 2, 62, 100
5, 41292, Note_off_c, 2, 62, 64
5, 41296, Note_on_c, 2, 62, 100
5, 41472, Note_off_c, 2, 62, 64
5, 41492, Note_on_c, 2, 64, 100
5, 41668, Note_off_c, 2, 64, 64
5, 41692, Note_on_c, 2, 55, 100
5, 41868, Note_off_c, 2, 55, 64
5, 41888, Note_on_c, 2, 55, 100
5, 42064, Note_off_c, 2, 55, 64
5, 42068, Note_on_c, 2, 55, 100
5, 42244, Note_off_c, 2, 55, 64
5, 42260, Note_on_c, 2, 55, 100
5, 42436, Note_off_c, 2, 55, 64
5, 42448, Note_on_c, 2, 55, 100
5, 42532, Note_off_c, 2, 55, 64
5, 42548, Note_on_c, 2, 67, 100
5, 42632, Note_off_c, 2, 67, 64
5, 42640, Note_on_c, 2, 69, 100
5, 42724, Note_off_c, 2, 69, 64
5, 42744, Note_on_c, 2, 71, 100
5, 42828, Note_off_c, 2, 71, 64
5, 42848, Note_on_c, 2, 72, 100
5, 43024, Note_off_c, 2, 72, 64
5, 43416, Note_on_c, 2, 76, 100
5, 43500, Note_off_c, 2, 76, 64
5, 43516, Note_on_c, 2, 77, 100
5, 43600, Note_off_c, 2, 77, 64
5, 43604, Note_on_c, 2, 76, 100
5, 43780, Note_off_c, 2, 76, 64
5, 43800, Note_on_c, 2, 77, 100
5, 43976, Note_off_c, 2, 77, 64
5, 43992, Note_on_c, 2, 77, 100
5, 44168, Note_off_c, 2, 77, 64
5, 44188, Note_on_c, 2, 74, 100
5, 44272, Note_off_c, 2, 74, 64
5, 44272, Note_on_c, 2, 76, 100
5, 44356, Note_off_c, 2, 76, 64
5, 44380, Note_on_c, 2, 74, 100
5, 44556, Note_off_c, 2, 74, 64
5, 44576, Note_on_c, 2, 76, 100
5, 44752, Note_off_c, 2, 76, 64
5, 44760, Note_on_c, 2, 76, 100
5, 44936, Note_off_c, 2, 76, 64
5, 44948, Note_on_c, 2, 72, 100
5, 45032, Note_off_c, 2, 72, 64
5, 45040, Note_on_c, 2, 74, 100
5, 45124, Note_off_c, 2, 74, 64
5, 45144, Note_on_c, 2, 72, 100
5, 45320, Note_off_c, 2, 72, 64
5, 45340, Note_on_c, 2, 74, 100
5, 45516, Note_off_c, 2, 74, 64
5, 45528, Note_on_c, 2, 67, 100
5, 45704, Note_off_c, 2, 67, 64
5, 45724, Note_on_c, 2, 67, 100
5, 45900, Note_off_c, 2, 67, 64
5, 45912, Note_on_c, 2, 67, 100
5, 46088, Note_off_c, 2, 67, 64
5, 46100, Note_on_c, 2, 67, 100
5, 46276, Note_off_c, 2, 67, 64
5, 46292, Note_on_c, 2, 62, 100
5, 46468, Note_off_c, 2, 62, 64
5, 46480, Note_on_c, 2, 60, 100
5, 46656, Note_off_c, 2, 60, 64
5, 46672, Note_on_c, 2, 62, 100
5, 46848, Note_off_c, 2, 62, 64
5, 46864, Note_on_c, 2, 62, 100
5, 47040, Note_off_c, 2, 62, 64
5, 47060, Note_on_c, 2, 64, 100
5, 47144, Note_off_c, 2, 64, 64
5, 47152, Note_on_c, 2, 62, 100
5, 47236, Note_off_c, 2, 62, 64
5, 47260, Note_on_c, 2, 64, 100
5, 47344, Note_off_c, 2, 64, 64
5, 47356, Note_on_c, 2, 65, 100
5, 47440, Note_off_c, 2, 65, 64
5, 47452, Note_on_c, 2, 64, 100
5, 47536, Note_off_c, 2, 64, 64
5, 47548, Note_on_c, 2, 67, 100
5, 47632, Note_off_c, 2, 67, 64
5, 47648, Note_on_c, 2, 65, 100
5, 47728, Note_off_c, 2, 65, 64
5, 47728, Note_on_c, 2, 69, 100
5, 47812, Note_off_c, 2, 69, 64
5, 47836, Note_on_c, 2, 67, 100
5, 47920, Note_off_c, 2, 67, 64
5, 47932, Note_on_c, 2, 65, 100
5, 48016, Note_off_c, 2, 65, 64
5, 48032, Note_on_c, 2, 67, 100
5, 48112, Note_off_c, 2, 67, 64
5, 48112, Note_on_c, 2, 69, 100
5, 48196, Note_off_c, 2, 69, 64
5, 48208, Note_on_c, 2, 67, 100
5, 48292, Note_off_c, 2, 67, 64
5, 48320, Note_on_c, 2, 72, 100
5, 48400, Note_off_c, 2, 72, 64
5, 48416, Note_on_c, 2, 67, 100
5, 48496, Note_off_c, 2, 67, 64
5, 48504, Note_on_c, 2, 74, 100
5, 48588, Note_off_c, 2, 74, 64
5, 48596, Note_on_c, 2, 67, 100
5, 48680, Note_off_c, 2, 67, 64
5, 48704, Note_on_c, 2, 72, 100
5, 48784, Note_off_c, 2, 72, 64
5, 48784, Note_on_c, 2, 67, 100
5, 48868, Note_off_c, 2, 67, 64
5, 48896, Note_on_c, 2, 71, 100
5, 48976, Note_off_c, 2, 71, 64
5, 48976, Note_on_c, 2, 67, 100
5, 49060, Note_off_c, 2, 67, 64
5, 49080, Note_on_c, 2, 72, 100
5, 49164, Note_off_c, 2, 72, 64
5, 49176, Note_on_c, 2, 67, 100
5, 49260, Note_off_c, 2, 67, 64
5, 49268, Note_on_c, 2, 71, 100
5, 49352, Note_off_c, 2, 71, 64
5, 49376, Note_on_c, 2, 67, 100
5, 49456, Note_off_c, 2, 67, 64
5, 49464, Note_on_c, 2, 69, 100
5, 49548, Note_off_c, 2, 69, 64
5, 49556, Note_on_c, 2, 67, 100
5, 49640, Note_off_c, 2, 67, 64
5, 49656, Note_on_c, 2, 65, 100
5, 49740, Note_off_c, 2, 65, 64
5, 49748, Note_on_c, 2, 67, 100
5, 49924, Note_off_c, 2, 67, 64
5, 49944, Note_on_c, 2, 62, 100
5, 50120, Note_off_c, 2, 62, 64
5, 50132, Note_on_c, 2, 62, 100
5, 50308, Note_off_c, 2, 62, 64
5, 50332, Note_on_c, 2, 59, 100
5, 50508, Note_off_c, 2, 59, 64
5, 50716, Note_on_c, 2, 55, 100
5, 50892, Note_off_c, 2, 55, 64
5, 50912, Note_on_c, 2, 59, 100
5, 51088, Note_off_c, 2, 59, 64
5, 51096, Note_on_c, 2, 62, 100
5, 51272, Note_off_c, 2, 62, 64
5, 51288, Note_on_c, 2, 59, 100
5, 51464, Note_off_c, 2, 59, 64
5, 51488, Note_on_c, 2, 55, 100
5, 51664, Note_off_c, 2, 55, 64
5, 51680, Note_on_c, 2, 59, 100
5, 51856, Note_off_c, 2, 59, 64
5, 51856, Note_on_c, 2, 62, 100
5, 52032, Note_off_c, 2, 62, 64
5, 52060, Note_on_c, 2, 59, 100
5, 52236, Note_off_c, 2, 59, 64
5, 52256, Note_on_c, 2, 55, 100
5, 52432, Note_off_c, 2, 55, 64
5, 52444, Note_on_c, 2, 62, 100
5, 52620, Note_off_c, 2, 62, 64
5, 52628, Note_on_c, 2, 62, 100
5, 52712, Note_off_c, 2, 62, 64
5, 52720, Note_on_c, 2, 62, 100
5, 52804, Note_off_c, 2, 62, 64
5, 52816, Note_on_c, 2, 62, 100
5, 52992, Note_off_c, 2, 62, 64
5, 53400, Note_on_c, 2, 66, 100
5, 53484, Note_off_c, 2, 66, 64
5, 53504, Note_on_c, 2, 64, 100
5, 53584, Note_off_c, 2, 64, 64
5, 53584, Note_on_c, 2, 66, 100
5, 53760, Note_off_c, 2, 66, 64
5, 54168, Note_on_c, 2, 66, 100
5, 54252, Note_off_c, 2, 66, 64
5, 54272, Note_on_c, 2, 64, 100
5, 54352, Note_off_c, 2, 64, 64
5, 54364, Note_on_c, 2, 66, 100
5, 54540, Note_off_c, 2, 66, 64
5, 54928, Note_on_c, 2, 66, 100
5, 55012, Note_off_c, 2, 66, 64
5, 55028, Note_on_c, 2, 67, 100
5, 55112, Note_off_c, 2, 67, 64
5, 55128, Note_on_c, 2, 66, 100
5, 55304, Note_off_c, 2, 66, 64
5, 55328, Note_on_c, 2, 62, 100
5, 55504, Note_off_c, 2, 62, 64
5, 55508, Note_on_c, 2, 62, 100
5, 55684, Note_off_c, 2, 62, 64
5, 55708, Note_on_c, 2, 62, 100
5, 55884, Note_off_c, 2, 62, 64
5, 55888, Note_on_c, 2, 60, 100
5, 56064, Note_off_c, 2, 60, 64
5, 56084, Note_on_c, 2, 62, 100
5, 56260, Note_off_c, 2, 62, 64
5, 56280, Note_on_c, 2, 62, 100
5, 56456, Note_off_c, 2, 62, 64
5, 56848, Note_on_c, 2, 62, 100
5, 57024, Note_off_c, 2, 62, 64
5, 57052, Note_on_c, 2, 59, 100
5, 57228, Note_off_c, 2, 59, 64
5, 57232, Note_on_c, 2, 55, 100
5, 57408, Note_off_c, 2, 55, 64
5, 58008, Note_on_c, 2, 67, 100
5, 58092, Note_off_c, 2, 67, 64
5, 58104, Note_on_c, 2, 66, 100
5, 58188, Note_off_c, 2, 66, 64
5, 58192, Note_on_c, 2, 67, 100
5, 58368, Note_off_c, 2, 67, 64
5, 58400, Note_on_c, 2, 71, 100
5, 58480, Note_off_c, 2, 71, 64
5, 58496, Note_on_c, 2, 69, 100
5, 58576, Note_off_c, 2, 69, 64
5, 58584, Note_on_c, 2, 71, 100
5, 58760, Note_off_c, 2, 71, 64
5, 58772, Note_on_c, 2, 67, 100
5, 58856, Note_off_c, 2, 67, 64
5, 58880, Note_on_c, 2, 66, 100
5, 58960, Note_off_c, 2, 66, 64
5, 58964, Note_on_c, 2, 67, 100
5, 59140, Note_off_c, 2, 67, 64
5, 59920, Note_on_c, 2, 79, 100
5, 60004, Note_off_c, 2, 79, 64
5, 60028, Note_on_c, 2, 78, 100
5, 60112, Note_off_c, 2, 78, 64
5, 60124, Note_on_c, 2, 79, 100
5, 60300, Note_off_c, 2, 79, 64
5, 60320, Note_on_c, 2, 67, 100
5, 60400, Note_off_c, 2, 67, 64
5, 60404, Note_on_c, 2, 69, 100
5, 60488, Note_off_c, 2, 69, 64
5, 60512, Note_on_c, 2, 71, 100
5, 60688, Note_off_c, 2, 71, 64
5, 60692, Note_on_c, 2, 73, 100
5, 60868, Note_off_c, 2, 73, 64
5, 60892, Note_on_c, 2, 66, 100
5, 60976, Note_off_c, 2, 66, 64
5, 60980, Note_on_c, 2, 64, 100
5, 61064, Note_off_c, 2, 64, 64
5, 61076, Note_on_c, 2, 66, 100
5, 61160, Note_off_c, 2, 66, 64
5, 61172, Note_on_c, 2, 67, 100
5, 61256, Note_off_c, 2, 67, 64
5, 61272, Note_on_c, 2, 66, 100
5, 61356, Note_off_c, 2, 66, 64
5, 61368, Note_on_c, 2, 69, 100
5, 61452, Note_off_c, 2, 69, 64
5, 61460, Note_on_c, 2, 67, 100
5, 61544, Note_off_c, 2, 67, 64
5, 61560, Note_on_c, 2, 71, 100
5, 61644, Note_off_c, 2, 71, 64
5, 61652, Note_on_c, 2, 66, 100
5, 61736, Note_off_c, 2, 66, 64
5, 61760, Note_on_c, 2, 64, 100
5, 61840, Note_off_c, 2, 64, 64
5, 61848, Note_on_c, 2, 66, 100
5, 61932, Note_off_c, 2, 66, 64
5, 61936, Note_on_c, 2, 67, 100
5, 62020, Note_off_c, 2, 67, 64
5, 62048, Note_on_c, 2, 62, 100
5, 62128, Note_off_c, 2, 62, 64
5, 62132, Note_on_c, 2, 67, 100
5, 62216, Note_off_c, 2, 67, 64
5, 62228, Note_on_c, 2, 64, 100
5, 62312, Note_off_c, 2, 64, 64
5, 62324, Note_on_c, 2, 66, 100
5, 62408, Note_off_c, 2, 66, 64
5, 62428, Note_on_c, 2, 64, 100
5, 62512, Note_off_c, 2, 64, 64
5, 62528, Note_on_c, 2, 66, 100
5, 62608, Note_off_c, 2, 66, 64
5, 62620, Note_on_c, 2, 67, 100
5, 62704, Note_off_c, 2, 67, 64
5, 62716, Note_on_c, 2, 66, 100
5, 62800, Note_off_c, 2, 66, 64
5, 62816, Note_on_c, 2, 69, 100
5, 62896, Note_off_c, 2, 69, 64
5, 62904, Note_on_c, 2, 74, 100
5, 62988, Note_off_c, 2, 74, 64
5, 63008, Note_on_c, 2, 78, 100
5, 63088, Note_off_c, 2, 78, 64
5, 63196, Note_on_c, 2, 83, 100
5, 63372, Note_off_c, 2, 83, 64
5, 63376, Note_on_c, 2, 81, 100
5, 63460, Note_off_c, 2, 81, 64
5, 63488, Note_on_c, 2, 79, 100
5, 63568, Note_off_c, 2, 79, 64
5, 63572, Note_on_c, 2, 81, 100
5, 63748, Note_off_c, 2, 81, 64
5, 63768, Note_on_c, 2, 79, 100
5, 63852, Note_off_c, 2, 79, 64
5, 63868, Note_on_c, 2, 78, 100
5, 63952, Note_off_c, 2, 78, 64
5, 63964, Note_on_c, 2, 79, 100
5, 64140, Note_off_c, 2, 79, 64
5, 64152, Note_on_c, 2, 78, 100
5, 64236, Note_off_c, 2, 78, 64
5, 64256, Note_on_c, 2, 76, 100
5, 64336, Note_off_c, 2, 76, 64
5, 64336, Note_on_c, 2, 74, 100
5, 64420, Note_off_c, 2, 74, 64
5, 64448, Note_on_c, 2, 79, 100
5, 64528, Note_off_c, 2, 79, 64
5, 64536, Note_on_c, 2, 74, 100
5, 64620, Note_off_c, 2, 74, 64
5, 64632, Note_on_c, 2, 79, 100
5, 64716, Note_off_c, 2, 79, 64
5, 64728, Note_on_c, 2, 76, 100
5, 64904, Note_off_c, 2, 76, 64
5, 64916, Note_on_c, 2, 74, 100
5, 65000, Note_off_c, 2, 74, 64
5, 65020, Note_on_c, 2, 72, 100
5, 65104, Note_off_c, 2, 72, 64
5, 65112, Note_on_c, 2, 71, 100
5, 65196, Note_off_c, 2, 71, 64
5, 65208, Note_on_c, 2, 79, 100
5, 65292, Note_off_c, 2, 79, 64
5, 65296, Note_on_c, 2, 71, 100
5, 65380, Note_off_c, 2, 71, 64
5, 65392, Note_on_c, 2, 79, 100
5, 65476, Note_off_c, 2, 79, 64
5, 65500, Note_on_c, 2, 72, 100
5, 65676, Note_off_c, 2, 72, 64
5, 65684, Note_on_c, 2, 71, 100
5, 65768, Note_off_c, 2, 71, 64
5, 65776, Note_on_c, 2, 69, 100
5, 65860, Note_off_c, 2, 69, 64
5, 65872, Note_on_c, 2, 67, 100
5, 65956, Note_off_c, 2, 67, 64
5, 65972, Note_on_c, 2, 79, 100
5, 66056, Note_off_c, 2, 79, 64
5, 66064, Note_on_c, 2, 69, 100
5, 66148, Note_off_c, 2, 69, 64
5, 66160, Note_on_c, 2, 79, 100
5, 66244, Note_off_c, 2, 79, 64
5, 66272, Note_on_c, 2, 71, 100
5, 66448, Note_off_c, 2, 71, 64
5, 66452, Note_on_c, 2, 73, 100
5, 66628, Note_off_c, 2, 73, 64
5, 66652, Note_on_c, 2, 74, 100
5, 66828, Note_off_c, 2, 74, 64
5, 66840, Note_on_c, 2, 62, 100
5, 66924, Note_off_c, 2, 62, 64
5, 66928, Note_on_c, 2, 64, 100
5, 67012, Note_off_c, 2, 64, 64
5, 67028, Note_on_c, 2, 66, 100
5, 67204, Note_off_c, 2, 66, 64
5, 67232, Note_on_c, 2, 67, 100
5, 67408, Note_off_c, 2, 67, 64
5, 67424, Note_on_c, 2, 69, 100
5, 67600, Note_off_c, 2, 69, 64
5, 67600, Note_on_c, 2, 74, 100
5, 67776, Note_off_c, 2, 74, 64
5, 67804, Note_on_c, 2, 74, 100
5, 67980, Note_off_c, 2, 74, 64
5, 67996, Note_on_c, 2, 72, 100
5, 68080, Note_off_c, 2, 72, 64
5, 68080, Note_on_c, 2, 71, 100
5, 68164, Note_off_c, 2, 71, 64
5, 68176, Note_on_c, 2, 69, 100
5, 68352, Note_off_c, 2, 69, 64
5, 68384, Note_on_c, 2, 78, 100
5, 68560, Note_off_c, 2, 78, 64
5, 68576, Note_on_c, 2, 79, 100
5, 68752, Note_off_c, 2, 79, 64
5, 68756, Note_on_c, 2, 78, 100
5, 68840, Note_off_c, 2, 78, 64
5, 68856, Note_on_c, 2, 76, 100
5, 68940, Note_off_c, 2, 76, 64
5, 68956, Note_on_c, 2, 74, 100
5, 69040, Note_off_c, 2, 74, 64
5, 69052, Note_on_c, 2, 72, 100
5, 69136, Note_off_c, 2, 72, 64
5, 69136, Note_on_c, 2, 71, 100
5, 69220, Note_off_c, 2, 71, 64
5, 69244, Note_on_c, 2, 69, 100
5, 69328, Note_off_c, 2, 69, 64
5, 69336, Note_on_c, 2, 71, 100
5, 69512, Note_off_c, 2, 71, 64
5, 69528, Note_on_c, 2, 69, 100
5, 69612, Note_off_c, 2, 69, 64
5, 69620, Note_on_c, 2, 67, 100
5, 69704, Note_off_c, 2, 67, 64
5, 69728, Note_on_c, 2, 74, 100
5, 69904, Note_off_c, 2, 74, 64
5, 69904, Note_on_c, 2, 62, 100
5, 70080, Note_off_c, 2, 62, 64
5, 70104, Note_on_c, 2, 67, 100
5, 70464, Note_off_c, 2, 67, 64
5, 70876, Note_on_c, 2, 71, 100
5, 70960, Note_off_c, 2, 71, 64
5, 70976, Note_on_c, 2, 69, 100
5, 71056, Note_off_c, 2, 69, 64
5, 71072, Note_on_c, 2, 71, 100
5, 71248, Note_off_c, 2, 71, 64
5, 71636, Note_on_c, 2, 71, 100
5, 71720, Note_off_c, 2, 71, 64
5, 71736, Note_on_c, 2, 69, 100
5, 71820, Note_off_c, 2, 69, 64
5, 71836, Note_on_c, 2, 71, 100
5, 72012, Note_off_c, 2, 71, 64
5, 72404, Note_on_c, 2, 67, 100
5, 72488, Note_off_c, 2, 67, 64
5, 72508, Note_on_c, 2, 66, 100
5, 72592, Note_off_c, 2, 66, 64
5, 72608, Note_on_c, 2, 67, 100
5, 72784, Note_off_c, 2, 67, 64
5, 73180, Note_on_c, 2, 67, 100
5, 73264, Note_off_c, 2, 67, 64
5, 73280, Note_on_c, 2, 66, 100
5, 73360, Note_off_c, 2, 66, 64
5, 73376, Note_on_c, 2, 67, 100
5, 73552, Note_off_c, 2, 67, 64
5, 73948, Note_on_c, 2, 60, 100
5, 74032, Note_off_c, 2, 60, 64
5, 74032, Note_on_c, 2, 59, 100
5, 74116, Note_off_c, 2, 59, 64
5, 74136, Note_on_c, 2, 60, 100
5, 74312, Note_off_c, 2, 60, 64
5, 74720, Note_on_c, 2, 60, 100
5, 74800, Note_off_c, 2, 60, 64
5, 74804, Note_on_c, 2, 59, 100
5, 74888, Note_off_c, 2, 59, 64
5, 74908, Note_on_c, 2, 60, 100
5, 75084, Note_off_c, 2, 60, 64
5, 75480, Note_on_c, 2, 59, 100
5, 75564, Note_off_c, 2, 59, 64
5, 75576, Note_on_c, 2, 57, 100
5, 75660, Note_off_c, 2, 57, 64
5, 75664, Note_on_c, 2, 59, 100
5, 75748, Note_off_c, 2, 59, 64
5, 75768, Note_on_c, 2, 61, 100
5, 75852, Note_off_c, 2, 61, 64
5, 75864, Note_on_c, 2, 62, 100
5, 75948, Note_off_c, 2, 62, 64
5, 75960, Note_on_c, 2, 61, 100
5, 76044, Note_off_c, 2, 61, 64
5, 76064, Note_on_c, 2, 62, 100
5, 76144, Note_off_c, 2, 62, 64
5, 76148, Note_on_c, 2, 64, 100
5, 76232, Note_off_c, 2, 64, 64
5, 76244, Note_on_c, 2, 66, 100
5, 76608, Note_off_c, 2, 66, 64
5, 77020, Note_on_c, 2, 69, 100
5, 77104, Note_off_c, 2, 69, 64
5, 77108, Note_on_c, 2, 67, 100
5, 77192, Note_off_c, 2, 67, 64
5, 77204, Note_on_c, 2, 69, 100
5, 77380, Note_off_c, 2, 69, 64
5, 77784, Note_on_c, 2, 66, 100
5, 77868, Note_off_c, 2, 66, 64
5, 77888, Note_on_c, 2, 64, 100
5, 77968, Note_off_c, 2, 64, 64
5, 77984, Note_on_c, 2, 66, 100
5, 78160, Note_off_c, 2, 66, 64
5, 78548, Note_on_c, 2, 66, 100
5, 78632, Note_off_c, 2, 66, 64
5, 78644, Note_on_c, 2, 64, 100
5, 78728, Note_off_c, 2, 64, 64
5, 78740, Note_on_c, 2, 66, 100
5, 78916, Note_off_c, 2, 66, 64
5, 79328, Note_on_c, 2, 66, 100
5, 79408, Note_off_c, 2, 66, 64
5, 79408, Note_on_c, 2, 64, 100
5, 79492, Note_off_c, 2, 64, 64
5, 79520, Note_on_c, 2, 66, 100
5, 79696, Note_off_c, 2, 66, 64
5, 80084, Note_on_c, 2, 72, 100
5, 80168, Note_off_c, 2, 72, 64
5, 80192, Note_on_c, 2, 71, 100
5, 80272, Note_off_c, 2, 71, 64
5, 80280, Note_on_c, 2, 72, 100
5, 80456, Note_off_c, 2, 72, 64
5, 80852, Note_on_c, 2, 75, 100
5, 80936, Note_off_c, 2, 75, 64
5, 80960, Note_on_c, 2, 73, 100
5, 81040, Note_off_c, 2, 73, 64
5, 81048, Note_on_c, 2, 75, 100
5, 81224, Note_off_c, 2, 75, 64
5, 81436, Note_on_c, 2, 71, 100
5, 81520, Note_off_c, 2, 71, 64
5, 81520, Note_on_c, 2, 69, 100
5, 81604, Note_off_c, 2, 69, 64
5, 81624, Note_on_c, 2, 71, 100
5, 81800, Note_off_c, 2, 71, 64
5, 81820, Note_on_c, 2, 64, 100
5, 81904, Note_off_c, 2, 64, 64
5, 81908, Note_on_c, 2, 63, 100
5, 81992, Note_off_c, 2, 63, 64
5, 82012, Note_on_c, 2, 64, 100
5, 82188, Note_off_c, 2, 64, 64
5, 83344, Note_on_c, 2, 64, 100
5, 83428, Note_off_c, 2, 64, 64
5, 83440, Note_on_c, 2, 66, 100
5, 83524, Note_off_c, 2, 66, 64
5, 83544, Note_on_c, 2, 67, 100
5, 83720, Note_off_c, 2, 67, 64
5, 83728, Note_on_c, 2, 69, 100
5, 83904, Note_off_c, 2, 69, 64
5, 83936, Note_on_c, 2, 71, 100
5, 84112, Note_off_c, 2, 71, 64
5, 84128, Note_on_c, 2, 66, 100
5, 84208, Note_off_c, 2, 66, 64
5, 84224, Note_on_c, 2, 64, 100
5, 84304, Note_off_c, 2, 64, 64
5, 84304, Note_on_c, 2, 66, 100
5, 84480, Note_off_c, 2, 66, 64
5, 84504, Note_on_c, 2, 69, 100
5, 84588, Note_off_c, 2, 69, 64
5, 84608, Note_on_c, 2, 67, 100
5, 84688, Note_off_c, 2, 67, 64
5, 84696, Note_on_c, 2, 69, 100
5, 84872, Note_off_c, 2, 69, 64
5, 85664, Note_on_c, 2, 63, 100
5, 85744, Note_off_c, 2, 63, 64
5, 85744, Note_on_c, 2, 61, 100
5, 85828, Note_off_c, 2, 61, 64
5, 85844, Note_on_c, 2, 63, 100
5, 86020, Note_off_c, 2, 63, 64
5, 86036, Note_on_c, 2, 83, 100
5, 86212, Note_off_c, 2, 83, 64
5, 86236, Note_on_c, 2, 79, 100
5, 86412, Note_off_c, 2, 79, 64
5, 86420, Note_on_c, 2, 78, 100
5, 86504, Note_off_c, 2, 78, 64
5, 86528, Note_on_c, 2, 76, 100
5, 86608, Note_off_c, 2, 76, 64
5, 86616, Note_on_c, 2, 78, 100
5, 86792, Note_off_c, 2, 78, 64
5, 86812, Note_on_c, 2, 76, 100
5, 86896, Note_off_c, 2, 76, 64
5, 86904, Note_on_c, 2, 75, 100
5, 86988, Note_off_c, 2, 75, 64
5, 87004, Note_on_c, 2, 84, 100
5, 87272, Note_off_c, 2, 84, 64
5, 87288, Note_on_c, 2, 83, 100
5, 87372, Note_off_c, 2, 83, 64
5, 87380, Note_on_c, 2, 81, 100
5, 87464, Note_off_c, 2, 81, 64
5, 87488, Note_on_c, 2, 79, 100
5, 87568, Note_off_c, 2, 79, 64
5, 87584, Note_on_c, 2, 78, 100
5, 87664, Note_off_c, 2, 78, 64
5, 87664, Note_on_c, 2, 76, 100
5, 87748, Note_off_c, 2, 76, 64
5, 87776, Note_on_c, 2, 83, 100
5, 87952, Note_off_c, 2, 83, 64
5, 87952, Note_on_c, 2, 81, 100
5, 88036, Note_off_c, 2, 81, 64
5, 88056, Note_on_c, 2, 79, 100
5, 88140, Note_off_c, 2, 79, 64
5, 88144, Note_on_c, 2, 78, 100
5, 88320, Note_off_c, 2, 78, 64
5, 88348, Note_on_c, 2, 76, 100
5, 88432, Note_off_c, 2, 76, 64
5, 88444, Note_on_c, 2, 75, 100
5, 88528, Note_off_c, 2, 75, 64
5, 88540, Note_on_c, 2, 76, 100
5, 88716, Note_off_c, 2, 76, 64
5, 88736, Note_on_c, 2, 67, 100
5, 88816, Note_off_c, 2, 67, 64
5, 88832, Note_on_c, 2, 66, 100
5, 88912, Note_off_c, 2, 66, 64
5, 88924, Note_on_c, 2, 64, 100
5, 89100, Note_off_c, 2, 64, 64
5, 89504, Note_on_c, 2, 67, 100
5, 89584, Note_off_c, 2, 67, 64
5, 89600, Note_on_c, 2, 66, 100
5, 89680, Note_off_c, 2, 66, 64
5, 89696, Note_on_c, 2, 64, 100
5, 89872, Note_off_c, 2, 64, 64
5, 90256, Note_on_c, 2, 67, 100
5, 90340, Note_off_c, 2, 67, 64
5, 90352, Note_on_c, 2, 66, 100
5, 90436, Note_off_c, 2, 66, 64
5, 90464, Note_on_c, 2, 64, 100
5, 90640, Note_off_c, 2, 64, 64
5, 91040, Note_on_c, 2, 67, 100
5, 91120, Note_off_c, 2, 67, 64
5, 91132, Note_on_c, 2, 69, 100
5, 91216, Note_off_c, 2, 69, 64
5, 91228, Note_on_c, 2, 71, 100
5, 91404, Note_off_c, 2, 71, 64
5, 91416, Note_on_c, 2, 71, 100
5, 91592, Note_off_c, 2, 71, 64
5, 91608, Note_on_c, 2, 73, 100
5, 91968, Note_off_c, 2, 73, 64
5, 92180, Note_on_c, 2, 68, 100
5, 92356, Note_off_c, 2, 68, 64
5, 92380, Note_on_c, 2, 64, 100
5, 92740, Note_off_c, 2, 64, 64
5, 92960, Note_on_c, 2, 71, 100
5, 93136, Note_off_c, 2, 71, 64
5, 93140, Note_on_c, 2, 73, 100
5, 93224, Note_off_c, 2, 73, 64
5, 93248, Note_on_c, 2, 76, 100
5, 93328, Note_off_c, 2, 76, 64
5, 93344, Note_on_c, 2, 69, 100
5, 93424, Note_off_c, 2, 69, 64
5, 93428, Note_on_c, 2, 71, 100
5, 93512, Note_off_c, 2, 71, 64
5, 93528, Note_on_c, 2, 73, 100
5, 93612, Note_off_c, 2, 73, 64
5, 93628, Note_on_c, 2, 74, 100
5, 93712, Note_off_c, 2, 74, 64
5, 93728, Note_on_c, 2, 76, 100
5, 93808, Note_off_c, 2, 76, 64
5, 93824, Note_on_c, 2, 74, 100
5, 93904, Note_off_c, 2, 74, 64
5, 93920, Note_on_c, 2, 73, 100
5, 94096, Note_off_c, 2, 73, 64
5, 94096, Note_on_c, 2, 81, 100
5, 94272, Note_off_c, 2, 81, 64
5, 94288, Note_on_c, 2, 76, 100
5, 94464, Note_off_c, 2, 76, 64
5, 94480, Note_on_c, 2, 73, 100
5, 94656, Note_off_c, 2, 73, 64
5, 94672, Note_on_c, 2, 69, 100
5, 94848, Note_off_c, 2, 69, 64
5, 94864, Note_on_c, 2, 78, 100
5, 94948, Note_off_c, 2, 78, 64
5, 94976, Note_on_c, 2, 76, 100
5, 95056, Note_off_c, 2, 76, 64
5, 95060, Note_on_c, 2, 74, 100
5, 95236, Note_off_c, 2, 74, 64
5, 95644, Note_on_c, 2, 78, 100
5, 95728, Note_off_c, 2, 78, 64
5, 95736, Note_on_c, 2, 76, 100
5, 95820, Note_off_c, 2, 76, 64
5, 95824, Note_on_c, 2, 74, 100
5, 96000, Note_off_c, 2, 74, 64
5, 96400, Note_on_c, 2, 78, 100
5, 96484, Note_off_c, 2, 78, 64
5, 96508, Note_on_c, 2, 76, 100
5, 96592, Note_off_c, 2, 76, 64
5, 96608, Note_on_c, 2, 74, 100
5, 96784, Note_off_c, 2, 74, 64
5, 97560, Note_on_c, 2, 74, 100
5, 97736, Note_off_c, 2, 74, 64
5, 97752, Note_on_c, 2, 71, 100
5, 97836, Note_off_c, 2, 71, 64
5, 97844, Note_on_c, 2, 74, 100
5, 97928, Note_off_c, 2, 74, 64
5, 97948, Note_on_c, 2, 67, 100
5, 98032, Note_off_c, 2, 67, 64
5, 98036, Note_on_c, 2, 69, 100
5, 98120, Note_off_c, 2, 69, 64
5, 98132, Note_on_c, 2, 71, 100
5, 98216, Note_off_c, 2, 71, 64
5, 98236, Note_on_c, 2, 72, 100
5, 98320, Note_off_c, 2, 72, 64
5, 98332, Note_on_c, 2, 74, 100
5, 98416, Note_off_c, 2, 74, 64
5, 98416, Note_on_c, 2, 72, 100
5, 98500, Note_off_c, 2, 72, 64
5, 98524, Note_on_c, 2, 71, 100
5, 98700, Note_off_c, 2, 71, 64
5, 98708, Note_on_c, 2, 71, 100
5, 98792, Note_off_c, 2, 71, 64
5, 98808, Note_on_c, 2, 69, 100
5, 98892, Note_off_c, 2, 69, 64
5, 98900, Note_on_c, 2, 67, 100
5, 99076, Note_off_c, 2, 67, 64
5, 99856, Note_on_c, 2, 71, 100
5, 99940, Note_off_c, 2, 71, 64
5, 99964, Note_on_c, 2, 69, 100
5, 100048, Note_off_c, 2, 69, 64
5, 100048, Note_on_c, 2, 67, 100
5, 100224, Note_off_c, 2, 67, 64
5, 100256, Note_on_c, 2, 71, 100
5, 100336, Note_off_c, 2, 71, 64
5, 100352, Note_on_c, 2, 69, 100
5, 100432, Note_off_c, 2, 69, 64
5, 100444, Note_on_c, 2, 67, 100
5, 100620, Note_off_c, 2, 67, 64
5, 101296, Note_on_c, 2, 62, 100
5, 101380, Note_off_c, 2, 62, 64
5, 101396, Note_on_c, 2, 64, 100
5, 101480, Note_off_c, 2, 64, 64
5, 101500, Note_on_c, 2, 66, 100
5, 101584, Note_off_c, 2, 66, 64
5, 101584, Note_on_c, 2, 67, 100
5, 101668, Note_off_c, 2, 67, 64
5, 101688, Note_on_c, 2, 66, 100
5, 101772, Note_off_c, 2, 66, 64
5, 101780, Note_on_c, 2, 67, 100
5, 101864, Note_off_c, 2, 67, 64
5, 101888, Note_on_c, 2, 76, 100
5, 101968, Note_off_c, 2, 76, 64
5, 101984, Note_on_c, 2, 73, 100
5, 102064, Note_off_c, 2, 73, 64
5, 102076, Note_on_c, 2, 70, 100
5, 102160, Note_off_c, 2, 70, 64
5, 102172, Note_on_c, 2, 67, 100
5, 102256, Note_off_c, 2, 67, 64
5, 102260, Note_on_c, 2, 64, 100
5, 102344, Note_off_c, 2, 64, 64
5, 102352, Note_on_c, 2, 67, 100
5, 102436, Note_off_c, 2, 67, 64
5, 102460, Note_on_c, 2, 66, 100
5, 102544, Note_off_c, 2, 66, 64
5, 102560, Note_on_c, 2, 67, 100
5, 102640, Note_off_c, 2, 67, 64
5, 102644, Note_on_c, 2, 76, 100
5, 102728, Note_off_c, 2, 76, 64
5, 102748, Note_on_c, 2, 73, 100
5, 102832, Note_off_c, 2, 73, 64
5, 102844, Note_on_c, 2, 70, 100
5, 102928, Note_off_c, 2, 70, 64
5, 102932, Note_on_c, 2, 67, 100
5, 103016, Note_off_c, 2, 67, 64
5, 103040, Note_on_c, 2, 64, 100
5, 103120, Note_off_c, 2, 64, 64
5, 103132, Note_on_c, 2, 66, 100
5, 103216, Note_off_c, 2, 66, 64
5, 103216, Note_on_c, 2, 64, 100
5, 103300, Note_off_c, 2, 64, 64
5, 103320, Note_on_c, 2, 66, 100
5, 103404, Note_off_c, 2, 66, 64
5, 103408, Note_on_c, 2, 76, 100
5, 103492, Note_off_c, 2, 76, 64
5, 103508, Note_on_c, 2, 73, 100
5, 103592, Note_off_c, 2, 73, 64
5, 103608, Note_on_c, 2, 70, 100
5, 103692, Note_off_c, 2, 70, 64
5, 103712, Note_on_c, 2, 66, 100
5, 103792, Note_off_c, 2, 66, 64
5, 103800, Note_on_c, 2, 61, 100
5, 103884, Note_off_c, 2, 61, 64
5, 103888, Note_on_c, 2, 66, 100
5, 103972, Note_off_c, 2, 66, 64
5, 103996, Note_on_c, 2, 64, 100
5, 104080, Note_off_c, 2, 64, 64
5, 104084, Note_on_c, 2, 66, 100
5, 104168, Note_off_c, 2, 66, 64
5, 104176, Note_on_c, 2, 76, 100
5, 104260, Note_off_c, 2, 76, 64
5, 104272, Note_on_c, 2, 73, 100
5, 104356, Note_off_c, 2, 73, 64
5, 104368, Note_on_c, 2, 70, 100
5, 104452, Note_off_c, 2, 70, 64
5, 104476, Note_on_c, 2, 66, 100
5, 104560, Note_off_c, 2, 66, 64
5, 104568, Note_on_c, 2, 61, 100
5, 104652, Note_off_c, 2, 61, 64
5, 104656, Note_on_c, 2, 64, 100
5, 104740, Note_off_c, 2, 64, 64
5, 104764, Note_on_c, 2, 62, 100
5, 104848, Note_off_c, 2, 62, 64
5, 104856, Note_on_c, 2, 64, 100
5, 104940, Note_off_c, 2, 64, 64
5, 104944, Note_on_c, 2, 73, 100
5, 105028, Note_off_c, 2, 73, 64
5, 105040, Note_on_c, 2, 70, 100
5, 105124, Note_off_c, 2, 70, 64
5, 105148, Note_on_c, 2, 66, 100
5, 105232, Note_off_c, 2, 66, 64
5, 105236, Note_on_c, 2, 64, 100
5, 105320, Note_off_c, 2, 64, 64
5, 105344, Note_on_c, 2, 61, 100
5, 105424, Note_off_c, 2, 61, 64
5, 105440, Note_on_c, 2, 64, 100
5, 105520, Note_off_c, 2, 64, 64
5, 105536, Note_on_c, 2, 62, 100
5, 105616, Note_off_c, 2, 62, 64
5, 105616, Note_on_c, 2, 64, 100
5, 105700, Note_off_c, 2, 64, 64
5, 105712, Note_on_c, 2, 73, 100
5, 105796, Note_off_c, 2, 73, 64
5, 105820, Note_on_c, 2, 70, 100
5, 105904, Note_off_c, 2, 70, 64
5, 105908, Note_on_c, 2, 66, 100
5, 105992, Note_off_c, 2, 66, 64
5, 106000, Note_on_c, 2, 64, 100
5, 106084, Note_off_c, 2, 64, 64
5, 106112, Note_on_c, 2, 61, 100
5, 106192, Note_off_c, 2, 61, 64
5, 106208, Note_on_c, 2, 62, 100
5, 106384, Note_off_c, 2, 62, 64
5, 106392, Note_on_c, 2, 71, 100
5, 106476, Note_off_c, 2, 71, 64
5, 106484, Note_on_c, 2, 70, 100
5, 106568, Note_off_c, 2, 70, 64
5, 106580, Note_on_c, 2, 71, 100
5, 106756, Note_off_c, 2, 71, 64
5, 106780, Note_on_c, 2, 74, 100
5, 106864, Note_off_c, 2, 74, 64
5, 106880, Note_on_c, 2, 73, 100
5, 106960, Note_off_c, 2, 73, 64
5, 106964, Note_on_c, 2, 74, 100
5, 107140, Note_off_c, 2, 74, 64
5, 107164, Note_on_c, 2, 66, 100
5, 107248, Note_off_c, 2, 66, 64
5, 107256, Note_on_c, 2, 64, 100
5, 107340, Note_off_c, 2, 64, 64
5, 107352, Note_on_c, 2, 66, 100
5, 107528, Note_off_c, 2, 66, 64
5, 107540, Note_on_c, 2, 74, 100
5, 107624, Note_off_c, 2, 74, 64
5, 107636, Note_on_c, 2, 73, 100
5, 107720, Note_off_c, 2, 73, 64
5, 107736, Note_on_c, 2, 74, 100
5, 107912, Note_off_c, 2, 74, 64
5, 107928, Note_on_c, 2, 71, 100
5, 108012, Note_off_c, 2, 71, 64
5, 108016, Note_on_c, 2, 73, 100
5, 108100, Note_off_c, 2, 73, 64
5, 108116, Note_on_c, 2, 74, 100
5, 108292, Note_off_c, 2, 74, 64
5, 108304, Note_on_c, 2, 76, 100
5, 108480, Note_off_c, 2, 76, 64
5, 108504, Note_on_c, 2, 78, 100
5, 108588, Note_off_c, 2, 78, 64
5, 108592, Note_on_c, 2, 76, 100
5, 108676, Note_off_c, 2, 76, 64
5, 108704, Note_on_c, 2, 78, 100
5, 108784, Note_off_c, 2, 78, 64
5, 108788, Note_on_c, 2, 79, 100
5, 108872, Note_off_c, 2, 79, 64
5, 108880, Note_on_c, 2, 78, 100
5, 108964, Note_off_c, 2, 78, 64
5, 108976, Note_on_c, 2, 76, 100
5, 109060, Note_off_c, 2, 76, 64
5, 109084, Note_on_c, 2, 74, 100
5, 109168, Note_off_c, 2, 74, 64
5, 109180, Note_on_c, 2, 73, 100
5, 109264, Note_off_c, 2, 73, 64
5, 109276, Note_on_c, 2, 74, 100
5, 109360, Note_off_c, 2, 74, 64
5, 109376, Note_on_c, 2, 76, 100
5, 109456, Note_off_c, 2, 76, 64
5, 109472, Note_on_c, 2, 74, 100
5, 109552, Note_off_c, 2, 74, 64
5, 109568, Note_on_c, 2, 76, 100
5, 109648, Note_on_c, 2, 76, 100
5, 109672, Note_off_c, 2, 76, 64
5, 109672, Note_off_c, 2, 76, 64
5, 109696, Note_on_c, 2, 78, 100
5, 109716, Note_off_c, 2, 78, 64
5, 109728, Note_on_c, 2, 76, 100
5, 109748, Note_off_c, 2, 76, 64
5, 109748, Note_on_c, 2, 78, 100
5, 109772, Note_off_c, 2, 78, 64
5, 109792, Note_on_c, 2, 76, 100
5, 109816, Note_off_c, 2, 76, 64
5, 109936, Note_on_c, 2, 74, 100
5, 109976, Note_off_c, 2, 74, 64
5, 109996, Note_on_c, 2, 76, 100
5, 110032, Note_off_c, 2, 76, 64
5, 110044, Note_on_c, 2, 78, 100
5, 110220, Note_off_c, 2, 78, 64
5, 110240, Note_on_c, 2, 83, 100
5, 110320, Note_off_c, 2, 83, 64
5, 110336, Note_on_c, 2, 82, 100
5, 110416, Note_off_c, 2, 82, 64
5, 110420, Note_on_c, 2, 83, 100
5, 110596, Note_off_c, 2, 83, 64
5, 110624, Note_on_c, 2, 78, 100
5, 110704, Note_off_c, 2, 78, 64
5, 110720, Note_on_c, 2, 76, 100
5, 110800, Note_off_c, 2, 76, 64
5, 110800, Note_on_c, 2, 74, 100
5, 110976, Note_off_c, 2, 74, 64
5, 111004, Note_on_c, 2, 73, 100
5, 111088, Note_off_c, 2, 73, 64
5, 111088, Note_on_c, 2, 71, 100
5, 111172, Note_off_c, 2, 71, 64
5, 111192, Note_on_c, 2, 73, 100
5, 111368, Note_off_c, 2, 73, 64
5, 111376, Note_on_c, 2, 71, 100
5, 111460, Note_off_c, 2, 71, 64
5, 111472, Note_on_c, 2, 70, 100
5, 111556, Note_off_c, 2, 70, 64
5, 111572, Note_on_c, 2, 79, 100
5, 111840, Note_off_c, 2, 79, 64
5, 111872, Note_on_c, 2, 78, 100
5, 111952, Note_off_c, 2, 78, 64
5, 111952, Note_on_c, 2, 76, 100
5, 112036, Note_off_c, 2, 76, 64
5, 112064, Note_on_c, 2, 74, 100
5, 112144, Note_off_c, 2, 74, 64
5, 112148, Note_on_c, 2, 73, 100
5, 112232, Note_off_c, 2, 73, 64
5, 112240, Note_on_c, 2, 71, 100
5, 112324, Note_off_c, 2, 71, 64
5, 112340, Note_on_c, 2, 62, 100
5, 112516, Note_off_c, 2, 62, 64
5, 112536, Note_on_c, 2, 67, 100
5, 112712, Note_off_c, 2, 67, 64
5, 112724, Note_on_c, 2, 66, 100
5, 112900, Note_off_c, 2, 66, 64
5, 112928, Note_on_c, 2, 66, 100
5, 113104, Note_off_c, 2, 66, 64
5, 113104, Note_on_c, 2, 62, 100
5, 113468, Note_off_c, 2, 62, 64
5, 114840, Note_on_c, 2, 66, 100
5, 114924, Note_off_c, 2, 66, 64
5, 114932, Note_on_c, 2, 64, 100
5, 115016, Note_off_c, 2, 64, 64
5, 115036, Note_on_c, 2, 66, 100
5, 115212, Note_off_c, 2, 66, 64
5, 115228, Note_on_c, 2, 71, 100
5, 115312, Note_off_c, 2, 71, 64
5, 115328, Note_on_c, 2, 70, 100
5, 115408, Note_off_c, 2, 70, 64
5, 115424, Note_on_c, 2, 71, 100
5, 115600, Note_off_c, 2, 71, 64
5, 115608, Note_on_c, 2, 71, 100
5, 115784, Note_off_c, 2, 71, 64
5, 115800, Note_on_c, 2, 71, 100
5, 115976, Note_off_c, 2, 71, 64
5, 115996, Note_on_c, 2, 67, 100
5, 116080, Note_off_c, 2, 67, 64
5, 116088, Note_on_c, 2, 69, 100
5, 116172, Note_off_c, 2, 69, 64
5, 116176, Note_on_c, 2, 67, 100
5, 116352, Note_off_c, 2, 67, 64
5, 116368, Note_on_c, 2, 66, 100
5, 116544, Note_off_c, 2, 66, 64
5, 116572, Note_on_c, 2, 66, 100
5, 116748, Note_off_c, 2, 66, 64
5, 116764, Note_on_c, 2, 66, 100
5, 116848, Note_off_c, 2, 66, 64
5, 116852, Note_on_c, 2, 67, 100
5, 116936, Note_off_c, 2, 67, 64
5, 116944, Note_on_c, 2, 66, 100
5, 117120, Note_off_c, 2, 66, 64
5, 117152, Note_on_c, 2, 67, 100
5, 117328, Note_off_c, 2, 67, 64
5, 117332, Note_on_c, 2, 66, 100
5, 117356, Note_off_c, 2, 66, 64
5, 117368, Note_on_c, 2, 67, 100
5, 117392, Note_off_c, 2, 67, 64
5, 117396, Note_on_c, 2, 66, 100
5, 117420, Note_off_c, 2, 66, 64
5, 117424, Note_on_c, 2, 67, 100
5, 117448, Note_off_c, 2, 67, 64
5, 117480, Note_on_c, 2, 66, 100
5, 117504, Note_off_c, 2, 66, 64
5, 117520, Note_on_c, 2, 66, 100
5, 117696, Note_off_c, 2, 66, 64
5, 117716, Note_on_c, 2, 66, 100
5, 118080, Note_off_c, 2, 66, 64
5, 130768, Note_on_c, 2, 55, 100
5, 131132, Note_off_c, 2, 55, 64
5, 131160, Note_on_c, 2, 59, 100
5, 131520, Note_off_c, 2, 59, 64
5, 131548, Note_on_c, 2, 62, 100
5, 131908, Note_off_c, 2, 62, 64
5, 132120, Note_on_c, 2, 62, 100
5, 132296, Note_off_c, 2, 62, 64
5, 132304, Note_on_c, 2, 59, 100
5, 132480, Note_off_c, 2, 59, 64
5, 132504, Note_on_c, 2, 62, 100
5, 132680, Note_off_c, 2, 62, 64
5, 132692, Note_on_c, 2, 67, 100
5, 132776, Note_off_c, 2, 67, 64
5, 132788, Note_on_c, 2, 71, 100
5, 132872, Note_off_c, 2, 71, 64
5, 132896, Note_on_c, 2, 69, 100
5, 132976, Note_off_c, 2, 69, 64
5, 132980, Note_on_c, 2, 67, 100
5, 133064, Note_off_c, 2, 67, 64
5, 133076, Note_on_c, 2, 74, 100
5, 133160, Note_off_c, 2, 74, 64
5, 133172, Note_on_c, 2, 66, 100
5, 133256, Note_off_c, 2, 66, 64
5, 133280, Note_on_c, 2, 69, 100
5, 133360, Note_off_c, 2, 69, 64
5, 133360, Note_on_c, 2, 66, 100
5, 133444, Note_off_c, 2, 66, 64
5, 133460, Note_on_c, 2, 69, 100
5, 133544, Note_off_c, 2, 69, 64
5, 133556, Note_on_c, 2, 66, 100
5, 133640, Note_off_c, 2, 66, 64
5, 133656, Note_on_c, 2, 69, 100
5, 133740, Note_off_c, 2, 69, 64
5, 133744, Note_on_c, 2, 66, 100
5, 133828, Note_off_c, 2, 66, 64
5, 133852, Note_on_c, 2, 71, 100
5, 133936, Note_off_c, 2, 71, 64
5, 133944, Note_on_c, 2, 67, 100
5, 134028, Note_off_c, 2, 67, 64
5, 134044, Note_on_c, 2, 71, 100
5, 134128, Note_off_c, 2, 71, 64
5, 134144, Note_on_c, 2, 67, 100
5, 134224, Note_off_c, 2, 67, 64
5, 134236, Note_on_c, 2, 71, 100
5, 134320, Note_off_c, 2, 71, 64
5, 134324, Note_on_c, 2, 67, 100
5, 134408, Note_off_c, 2, 67, 64
5, 134420, Note_on_c, 2, 71, 100
5, 134504, Note_off_c, 2, 71, 64
5, 134520, Note_on_c, 2, 67, 100
5, 134604, Note_off_c, 2, 67, 64
5, 134608, Note_on_c, 2, 67, 100
5, 134692, Note_off_c, 2, 67, 64
5, 134716, Note_on_c, 2, 64, 100
5, 134800, Note_off_c, 2, 64, 64
5, 134812, Note_on_c, 2, 67, 100
5, 134896, Note_off_c, 2, 67, 64
5, 134908, Note_on_c, 2, 64, 100
5, 134992, Note_off_c, 2, 64, 64
5, 134996, Note_on_c, 2, 67, 100
5, 135080, Note_off_c, 2, 67, 64
5, 135092, Note_on_c, 2, 64, 100
5, 135176, Note_off_c, 2, 64, 64
5, 135192, Note_on_c, 2, 67, 100
5, 135276, Note_off_c, 2, 67, 64
5, 135296, Note_on_c, 2, 64, 100
5, 135376, Note_off_c, 2, 64, 64
5, 135388, Note_on_c, 2, 70, 100
5, 135472, Note_off_c, 2, 70, 64
5, 135472, Note_on_c, 2, 66, 100
5, 135556, Note_off_c, 2, 66, 64
5, 135568, Note_on_c, 2, 70, 100
5, 135652, Note_off_c, 2, 70, 64
5, 135668, Note_on_c, 2, 66, 100
5, 135752, Note_off_c, 2, 66, 64
5, 135768, Note_on_c, 2, 70, 100
5, 135852, Note_off_c, 2, 70, 64
5, 135864, Note_on_c, 2, 66, 100
5, 135948, Note_off_c, 2, 66, 64
5, 135956, Note_on_c, 2, 70, 100
5, 136040, Note_off_c, 2, 70, 64
5, 136052, Note_on_c, 2, 66, 100
5, 136136, Note_off_c, 2, 66, 64
5, 136156, Note_on_c, 2, 66, 100
5, 136240, Note_off_c, 2, 66, 64
5, 136244, Note_on_c, 2, 63, 100
5, 136328, Note_off_c, 2, 63, 64
5, 136340, Note_on_c, 2, 66, 100
5, 136424, Note_off_c, 2, 66, 64
5, 136440, Note_on_c, 2, 63, 100
5, 136524, Note_off_c, 2, 63, 64
5, 136544, Note_on_c, 2, 66, 100
5, 136624, Note_off_c, 2, 66, 64
5, 136640, Note_on_c, 2, 63, 100
5, 136720, Note_off_c, 2, 63, 64
5, 136728, Note_on_c, 2, 66, 100
5, 136812, Note_off_c, 2, 66, 64
5, 136832, Note_on_c, 2, 63, 100
5, 136912, Note_off_c, 2, 63, 64
5, 136928, Note_on_c, 2, 68, 100
5, 137008, Note_off_c, 2, 68, 64
5, 137012, Note_on_c, 2, 64, 100
5, 137096, Note_off_c, 2, 64, 64
5, 137116, Note_on_c, 2, 68, 100
5, 137200, Note_off_c, 2, 68, 64
5, 137212, Note_on_c, 2, 64, 100
5, 137296, Note_off_c, 2, 64, 64
5, 137300, Note_on_c, 2, 68, 100
5, 137384, Note_off_c, 2, 68, 64
5, 137396, Note_on_c, 2, 64, 100
5, 137480, Note_off_c, 2, 64, 64
5, 137500, Note_on_c, 2, 68, 100
5, 137584, Note_off_c, 2, 68, 64
5, 137592, Note_on_c, 2, 64, 100
5, 137676, Note_off_c, 2, 64, 64
5, 137680, Note_on_c, 2, 64, 100
5, 137764, Note_off_c, 2, 64, 64
5, 137784, Note_on_c, 2, 60, 100
5, 137868, Note_off_c, 2, 60, 64
5, 137876, Note_on_c, 2, 64, 100
5, 137960, Note_off_c, 2, 64, 64
5, 137972, Note_on_c, 2, 60, 100
5, 138056, Note_off_c, 2, 60, 64
5, 138080, Note_on_c, 2, 64, 100
5, 138160, Note_off_c, 2, 64, 64
5, 138160, Note_on_c, 2, 60, 100
5, 138244, Note_off_c, 2, 60, 64
5, 138272, Note_on_c, 2, 64, 100
5, 138352, Note_off_c, 2, 64, 64
5, 138364, Note_on_c, 2, 60, 100
5, 138448, Note_off_c, 2, 60, 64
5, 138464, Note_on_c, 2, 62, 100
5, 138544, Note_off_c, 2, 62, 64
5, 138544, Note_on_c, 2, 60, 100
5, 138628, Note_off_c, 2, 60, 64
5, 138648, Note_on_c, 2, 62, 100
5, 138824, Note_off_c, 2, 62, 64
5, 139224, Note_on_c, 2, 62, 100
5, 139308, Note_off_c, 2, 62, 64
5, 139320, Note_on_c, 2, 60, 100
5, 139404, Note_off_c, 2, 60, 64
5, 139412, Note_on_c, 2, 62, 100
5, 139588, Note_off_c, 2, 62, 64
5, 139996, Note_on_c, 2, 66, 100
5, 140080, Note_off_c, 2, 66, 64
5, 140080, Note_on_c, 2, 64, 100
5, 140164, Note_off_c, 2, 64, 64
5, 140192, Note_on_c, 2, 66, 100
5, 140368, Note_off_c, 2, 66, 64
5, 140756, Note_on_c, 2, 66, 100
5, 140840, Note_off_c, 2, 66, 64
5, 140864, Note_on_c, 2, 64, 100
5, 140944, Note_off_c, 2, 64, 64
5, 140952, Note_on_c, 2, 66, 100
5, 141128, Note_off_c, 2, 66, 64
5, 141524, Note_on_c, 2, 68, 100
5, 141608, Note_off_c, 2, 68, 64
5, 141616, Note_on_c, 2, 66, 100
5, 141700, Note_off_c, 2, 66, 64
5, 141716, Note_on_c, 2, 68, 100
5, 141892, Note_off_c, 2, 68, 64
5, 142292, Note_on_c, 2, 68, 100
5, 142376, Note_off_c, 2, 68, 64
5, 142400, Note_on_c, 2, 66, 100
5, 142480, Note_off_c, 2, 66, 64
5, 142492, Note_on_c, 2, 68, 100
5, 142668, Note_off_c, 2, 68, 64
5, 143060, Note_on_c, 2, 69, 100
5, 143144, Note_off_c, 2, 69, 64
5, 143164, Note_on_c, 2, 68, 100
5, 143248, Note_off_c, 2, 68, 64
5, 143256, Note_on_c, 2, 69, 100
5, 143432, Note_off_c, 2, 69, 64
5, 143840, Note_on_c, 2, 69, 100
5, 143920, Note_off_c, 2, 69, 64
5, 143924, Note_on_c, 2, 68, 100
5, 144008, Note_off_c, 2, 68, 64
5, 144028, Note_on_c, 2, 69, 100
5, 144204, Note_off_c, 2, 69, 64
5, 144608, Note_on_c, 2, 74, 100
5, 144688, Note_off_c, 2, 74, 64
5, 144692, Note_on_c, 2, 72, 100
5, 144776, Note_off_c, 2, 72, 64
5, 144784, Note_on_c, 2, 74, 100
5, 144960, Note_off_c, 2, 74, 64
5, 145368, Note_on_c, 2, 74, 100
5, 145452, Note_off_c, 2, 74, 64
5, 145468, Note_on_c, 2, 72, 100
5, 145552, Note_off_c, 2, 72, 64
5, 145560, Note_on_c, 2, 74, 100
5, 145736, Note_off_c, 2, 74, 64
5, 146132, Note_on_c, 2, 74, 100
5, 146216, Note_off_c, 2, 74, 64
5, 146224, Note_on_c, 2, 72, 100
5, 146308, Note_off_c, 2, 72, 64
5, 146324, Note_on_c, 2, 74, 100
5, 146500, Note_off_c, 2, 74, 64
5, 146912, Note_on_c, 2, 74, 100
5, 146992, Note_off_c, 2, 74, 64
5, 146992, Note_on_c, 2, 72, 100
5, 147076, Note_off_c, 2, 72, 64
5, 147096, Note_on_c, 2, 74, 100
5, 147272, Note_off_c, 2, 74, 64
5, 147676, Note_on_c, 2, 72, 100
5, 147852, Note_off_c, 2, 72, 64
5, 148628, Note_on_c, 2, 69, 100
5, 148712, Note_off_c, 2, 69, 64
5, 148724, Note_on_c, 2, 68, 100
5, 148808, Note_off_c, 2, 68, 64
5, 148828, Note_on_c, 2, 69, 100
5, 149004, Note_off_c, 2, 69, 64
5, 149016, Note_on_c, 2, 72, 100
5, 149192, Note_off_c, 2, 72, 64
5, 149208, Note_on_c, 2, 74, 100
5, 149384, Note_off_c, 2, 74, 64
5, 150176, Note_on_c, 2, 67, 100
5, 150256, Note_off_c, 2, 67, 64
5, 150268, Note_on_c, 2, 66, 100
5, 150352, Note_off_c, 2, 66, 64
5, 150360, Note_on_c, 2, 67, 100
5, 150536, Note_off_c, 2, 67, 64
5, 150552, Note_on_c, 2, 71, 100
5, 150728, Note_off_c, 2, 71, 64
5, 150744, Note_on_c, 2, 72, 100
5, 150920, Note_off_c, 2, 72, 64
5, 151708, Note_on_c, 2, 65, 100
5, 151792, Note_off_c, 2, 65, 64
5, 151800, Note_on_c, 2, 64, 100
5, 151884, Note_off_c, 2, 64, 64
5, 151896, Note_on_c, 2, 65, 100
5, 152072, Note_off_c, 2, 65, 64
5, 152080, Note_on_c, 2, 69, 100
5, 152256, Note_off_c, 2, 69, 64
5, 152272, Note_on_c, 2, 71, 100
5, 152448, Note_off_c, 2, 71, 64
5, 152480, Note_on_c, 2, 68, 100
5, 152560, Note_off_c, 2, 68, 64
5, 152572, Note_on_c, 2, 66, 100
5, 152656, Note_off_c, 2, 66, 64
5, 152660, Note_on_c, 2, 68, 100
5, 152836, Note_off_c, 2, 68, 64
5, 152860, Note_on_c, 2, 62, 100
5, 152944, Note_off_c, 2, 62, 64
5, 152952, Note_on_c, 2, 60, 100
5, 153036, Note_off_c, 2, 60, 64
5, 153048, Note_on_c, 2, 62, 100
5, 153224, Note_off_c, 2, 62, 64
5, 153240, Note_on_c, 2, 59, 100
5, 153324, Note_off_c, 2, 59, 64
5, 153332, Note_on_c, 2, 57, 100
5, 153416, Note_off_c, 2, 57, 64
5, 153440, Note_on_c, 2, 59, 100
5, 153616, Note_off_c, 2, 59, 64
5, 153632, Note_on_c, 2, 67, 100
5, 153808, Note_off_c, 2, 67, 64
5, 153820, Note_on_c, 2, 64, 100
5, 153996, Note_off_c, 2, 64, 64
5, 154012, Note_on_c, 2, 65, 100
5, 154188, Note_off_c, 2, 65, 64
5, 154200, Note_on_c, 2, 64, 100
5, 154376, Note_off_c, 2, 64, 64
5, 154400, Note_on_c, 2, 64, 100
5, 154576, Note_on_c, 2, 64, 100
5, 154588, Note_off_c, 2, 64, 64
5, 154952, Note_off_c, 2, 64, 64
5, 155168, Note_on_c, 2, 57, 100
5, 155344, Note_off_c, 2, 57, 64
5, 155356, Note_on_c, 2, 60, 100
5, 155532, Note_off_c, 2, 60, 64
5, 155540, Note_on_c, 2, 64, 100
5, 155716, Note_off_c, 2, 64, 64
5, 155744, Note_on_c, 2, 60, 100
5, 155920, Note_off_c, 2, 60, 64
5, 155920, Note_on_c, 2, 57, 100
5, 156096, Note_off_c, 2, 57, 64
5, 156128, Note_on_c, 2, 60, 100
5, 156304, Note_off_c, 2, 60, 64
5, 156304, Note_on_c, 2, 64, 100
5, 156480, Note_off_c, 2, 64, 64
5, 156500, Note_on_c, 2, 60, 100
5, 156676, Note_off_c, 2, 60, 64
5, 156692, Note_on_c, 2, 57, 100
5, 156868, Note_off_c, 2, 57, 64
5, 156880, Note_on_c, 2, 64, 100
5, 157056, Note_off_c, 2, 64, 64
5, 157076, Note_on_c, 2, 64, 100
5, 157160, Note_off_c, 2, 64, 64
5, 157172, Note_on_c, 2, 64, 100
5, 157256, Note_off_c, 2, 64, 64
5, 157268, Note_on_c, 2, 64, 100
5, 157444, Note_off_c, 2, 64, 64
5, 157664, Note_on_c, 2, 67, 100
5, 157748, Note_off_c, 2, 67, 64
5, 157760, Note_on_c, 2, 66, 100
5, 157844, Note_off_c, 2, 66, 64
5, 157856, Note_on_c, 2, 67, 100
5, 157936, Note_off_c, 2, 67, 64
5, 157944, Note_on_c, 2, 69, 100
5, 158028, Note_off_c, 2, 69, 64
5, 158036, Note_on_c, 2, 67, 100
5, 158120, Note_off_c, 2, 67, 64
5, 158136, Note_on_c, 2, 71, 100
5, 158220, Note_off_c, 2, 71, 64
5, 158232, Note_on_c, 2, 69, 100
5, 158316, Note_off_c, 2, 69, 64
5, 158328, Note_on_c, 2, 72, 100
5, 158412, Note_off_c, 2, 72, 64
5, 158416, Note_on_c, 2, 71, 100
5, 158500, Note_off_c, 2, 71, 64
5, 158520, Note_on_c, 2, 69, 100
5, 158604, Note_off_c, 2, 69, 64
5, 158624, Note_on_c, 2, 71, 100
5, 158704, Note_off_c, 2, 71, 64
5, 158716, Note_on_c, 2, 72, 100
5, 158800, Note_off_c, 2, 72, 64
5, 158804, Note_on_c, 2, 71, 100
5, 158888, Note_off_c, 2, 71, 64
5, 158900, Note_on_c, 2, 76, 100
5, 158984, Note_off_c, 2, 76, 64
5, 158992, Note_on_c, 2, 71, 100
5, 159076, Note_off_c, 2, 71, 64
5, 159100, Note_on_c, 2, 78, 100
5, 159184, Note_off_c, 2, 78, 64
5, 159200, Note_on_c, 2, 71, 100
5, 159280, Note_off_c, 2, 71, 64
5, 159280, Note_on_c, 2, 76, 100
5, 159364, Note_off_c, 2, 76, 64
5, 159392, Note_on_c, 2, 71, 100
5, 159472, Note_off_c, 2, 71, 64
5, 159476, Note_on_c, 2, 75, 100
5, 159560, Note_off_c, 2, 75, 64
5, 159572, Note_on_c, 2, 71, 100
5, 159656, Note_off_c, 2, 71, 64
5, 159680, Note_on_c, 2, 76, 100
5, 159760, Note_off_c, 2, 76, 64
5, 159776, Note_on_c, 2, 71, 100
5, 159856, Note_off_c, 2, 71, 64
5, 159872, Note_on_c, 2, 76, 100
5, 159952, Note_off_c, 2, 76, 64
5, 159968, Note_on_c, 2, 71, 100
5, 160048, Note_off_c, 2, 71, 64
5, 160064, Note_on_c, 2, 72, 100
5, 160144, Note_off_c, 2, 72, 64
5, 160156, Note_on_c, 2, 71, 100
5, 160240, Note_off_c, 2, 71, 64
5, 160244, Note_on_c, 2, 69, 100
5, 160328, Note_off_c, 2, 69, 64
5, 160340, Note_on_c, 2, 71, 100
5, 160516, Note_off_c, 2, 71, 64
5, 160536, Note_on_c, 2, 66, 100
5, 160712, Note_off_c, 2, 66, 64
5, 160728, Note_on_c, 2, 66, 100
5, 160904, Note_off_c, 2, 66, 64
5, 160912, Note_on_c, 2, 63, 100
5, 161088, Note_off_c, 2, 63, 64
5, 161112, Note_on_c, 2, 63, 100
5, 161288, Note_off_c, 2, 63, 64
5, 161296, Note_on_c, 2, 79, 100
5, 161380, Note_off_c, 2, 79, 64
5, 161396, Note_on_c, 2, 78, 100
5, 161480, Note_off_c, 2, 78, 64
5, 161500, Note_on_c, 2, 79, 100
5, 161676, Note_off_c, 2, 79, 64
5, 161688, Note_on_c, 2, 74, 100
5, 161772, Note_off_c, 2, 74, 64
5, 161776, Note_on_c, 2, 72, 100
5, 161860, Note_off_c, 2, 72, 64
5, 161876, Note_on_c, 2, 74, 100
5, 162052, Note_off_c, 2, 74, 64
5, 162080, Note_on_c, 2, 79, 100
5, 162160, Note_off_c, 2, 79, 64
5, 162168, Note_on_c, 2, 78, 100
5, 162252, Note_off_c, 2, 78, 64
5, 162272, Note_on_c, 2, 79, 100
5, 162448, Note_off_c, 2, 79, 64
5, 162448, Note_on_c, 2, 71, 100
5, 162532, Note_off_c, 2, 71, 64
5, 162556, Note_on_c, 2, 69, 100
5, 162640, Note_off_c, 2, 69, 64
5, 162640, Note_on_c, 2, 71, 100
5, 162816, Note_off_c, 2, 71, 64
5, 162840, Note_on_c, 2, 79, 100
5, 162924, Note_off_c, 2, 79, 64
5, 162936, Note_on_c, 2, 78, 100
5, 163020, Note_off_c, 2, 78, 64
5, 163040, Note_on_c, 2, 79, 100
5, 163216, Note_off_c, 2, 79, 64
5, 163232, Note_on_c, 2, 67, 100
5, 163312, Note_off_c, 2, 67, 64
5, 163328, Note_on_c, 2, 69, 100
5, 163408, Note_off_c, 2, 69, 64
5, 163424, Note_on_c, 2, 71, 100
5, 163600, Note_off_c, 2, 71, 64
5, 163600, Note_on_c, 2, 73, 100
5, 163776, Note_off_c, 2, 73, 64
5, 163808, Note_on_c, 2, 74, 100
5, 163984, Note_off_c, 2, 74, 64
5, 163984, Note_on_c, 2, 62, 100
5, 164160, Note_off_c, 2, 62, 64
5, 164568, Note_on_c, 2, 69, 100
5, 164652, Note_off_c, 2, 69, 64
5, 164656, Note_on_c, 2, 68, 100
5, 164740, Note_off_c, 2, 68, 64
5, 164764, Note_on_c, 2, 69, 100
5, 164940, Note_off_c, 2, 69, 64
5, 165340, Note_on_c, 2, 69, 100
5, 165424, Note_off_c, 2, 69, 64
5, 165436, Note_on_c, 2, 68, 100
5, 165520, Note_off_c, 2, 68, 64
5, 165536, Note_on_c, 2, 69, 100
5, 165712, Note_off_c, 2, 69, 64
5, 166108, Note_on_c, 2, 74, 100
5, 166192, Note_off_c, 2, 74, 64
5, 166200, Note_on_c, 2, 72, 100
5, 166284, Note_off_c, 2, 72, 64
5, 166292, Note_on_c, 2, 74, 100
5, 166468, Note_off_c, 2, 74, 64
5, 166876, Note_on_c, 2, 74, 100
5, 166960, Note_off_c, 2, 74, 64
5, 166972, Note_on_c, 2, 72, 100
5, 167056, Note_off_c, 2, 72, 64
5, 167064, Note_on_c, 2, 74, 100
5, 167240, Note_off_c, 2, 74, 64
5, 167632, Note_on_c, 2, 74, 100
5, 167716, Note_off_c, 2, 74, 64
5, 167728, Note_on_c, 2, 72, 100
5, 167812, Note_off_c, 2, 72, 64
5, 167836, Note_on_c, 2, 74, 100
5, 167920, Note_off_c, 2, 74, 64
5, 167936, Note_on_c, 2, 83, 100
5, 168016, Note_off_c, 2, 83, 64
5, 168032, Note_on_c, 2, 80, 100
5, 168112, Note_off_c, 2, 80, 64
5, 168116, Note_on_c, 2, 74, 100
5, 168200, Note_off_c, 2, 74, 64
5, 168212, Note_on_c, 2, 71, 100
5, 168296, Note_off_c, 2, 71, 64
5, 168320, Note_on_c, 2, 64, 100
5, 168400, Note_off_c, 2, 64, 64
5, 168400, Note_on_c, 2, 74, 100
5, 168484, Note_off_c, 2, 74, 64
5, 168496, Note_on_c, 2, 72, 100
5, 168580, Note_off_c, 2, 72, 64
5, 168604, Note_on_c, 2, 74, 100
5, 168688, Note_off_c, 2, 74, 64
5, 168688, Note_on_c, 2, 83, 100
5, 168772, Note_off_c, 2, 83, 64
5, 168784, Note_on_c, 2, 80, 100
5, 168868, Note_off_c, 2, 80, 64
5, 168888, Note_on_c, 2, 74, 100
5, 168972, Note_off_c, 2, 74, 64
5, 168980, Note_on_c, 2, 71, 100
5, 169064, Note_off_c, 2, 71, 64
5, 169088, Note_on_c, 2, 64, 100
5, 169168, Note_off_c, 2, 64, 64
5, 169180, Note_on_c, 2, 73, 100
5, 169356, Note_off_c, 2, 73, 64
5, 169368, Note_on_c, 2, 73, 100
5, 169544, Note_off_c, 2, 73, 64
5, 169560, Note_on_c, 2, 73, 100
5, 169736, Note_off_c, 2, 73, 64
5, 169752, Note_on_c, 2, 73, 100
5, 169928, Note_off_c, 2, 73, 64
5, 169952, Note_on_c, 2, 73, 100
5, 170128, Note_off_c, 2, 73, 64
5, 170144, Note_on_c, 2, 73, 100
5, 170320, Note_off_c, 2, 73, 64
5, 170336, Note_on_c, 2, 73, 100
5, 170512, Note_on_c, 2, 73, 100
5, 170520, Note_off_c, 2, 73, 64
5, 170696, Note_off_c, 2, 73, 64
5, 170708, Note_on_c, 2, 69, 100
5, 170884, Note_off_c, 2, 69, 64
5, 170896, Note_on_c, 2, 69, 100
5, 171072, Note_off_c, 2, 69, 64
5, 171092, Note_on_c, 2, 69, 100
5, 171268, Note_off_c, 2, 69, 64
5, 171296, Note_on_c, 2, 69, 100
5, 171472, Note_off_c, 2, 69, 64
5, 171484, Note_on_c, 2, 69, 100
5, 171660, Note_off_c, 2, 69, 64
5, 171664, Note_on_c, 2, 69, 100
5, 171840, Note_off_c, 2, 69, 64
5, 171864, Note_on_c, 2, 69, 100
5, 172040, Note_off_c, 2, 69, 64
5, 172060, Note_on_c, 2, 69, 100
5, 172236, Note_off_c, 2, 69, 64
5, 172256, Note_on_c, 2, 71, 100
5, 172432, Note_off_c, 2, 71, 64
5, 172436, Note_on_c, 2, 71, 100
5, 172612, Note_off_c, 2, 71, 64
5, 172636, Note_on_c, 2, 71, 100
5, 172812, Note_off_c, 2, 71, 64
5, 172828, Note_on_c, 2, 71, 100
5, 173004, Note_off_c, 2, 71, 64
5, 173016, Note_on_c, 2, 71, 100
5, 173192, Note_off_c, 2, 71, 64
5, 173208, Note_on_c, 2, 71, 100
5, 173384, Note_off_c, 2, 71, 64
5, 173400, Note_on_c, 2, 71, 100
5, 173576, Note_off_c, 2, 71, 64
5, 173600, Note_on_c, 2, 71, 100
5, 173776, Note_off_c, 2, 71, 64
5, 173788, Note_on_c, 2, 70, 100
5, 173872, Note_off_c, 2, 70, 64
5, 173880, Note_on_c, 2, 69, 100
5, 173964, Note_off_c, 2, 69, 64
5, 173976, Note_on_c, 2, 70, 100
5, 174152, Note_off_c, 2, 70, 64
5, 174556, Note_on_c, 2, 70, 100
5, 174640, Note_off_c, 2, 70, 64
5, 174656, Note_on_c, 2, 69, 100
5, 174736, Note_off_c, 2, 69, 64
5, 174744, Note_on_c, 2, 70, 100
5, 174920, Note_off_c, 2, 70, 64
5, 175328, Note_on_c, 2, 70, 100
5, 175408, Note_off_c, 2, 70, 64
5, 175420, Note_on_c, 2, 69, 100
5, 175504, Note_off_c, 2, 69, 64
5, 175520, Note_on_c, 2, 70, 100
5, 175696, Note_off_c, 2, 70, 64
5, 176092, Note_on_c, 2, 70, 100
5, 176176, Note_off_c, 2, 70, 64
5, 176180, Note_on_c, 2, 69, 100
5, 176264, Note_off_c, 2, 69, 64
5, 176276, Note_on_c, 2, 70, 100
5, 176452, Note_off_c, 2, 70, 64
5, 176852, Note_on_c, 2, 73, 100
5, 176936, Note_off_c, 2, 73, 64
5, 176944, Note_on_c, 2, 70, 100
5, 177028, Note_off_c, 2, 70, 64
5, 177040, Note_on_c, 2, 73, 100
5, 177216, Note_off_c, 2, 73, 64
5, 177628, Note_on_c, 2, 73, 100
5, 177712, Note_off_c, 2, 73, 64
5, 177712, Note_on_c, 2, 70, 100
5, 177796, Note_off_c, 2, 70, 64
5, 177824, Note_on_c, 2, 73, 100
5, 178000, Note_off_c, 2, 73, 64
5, 178396, Note_on_c, 2, 70, 100
5, 178480, Note_off_c, 2, 70, 64
5, 178480, Note_on_c, 2, 69, 100
5, 178564, Note_off_c, 2, 69, 64
5, 178576, Note_on_c, 2, 70, 100
5, 178752, Note_off_c, 2, 70, 64
5, 179152, Note_on_c, 2, 70, 100
5, 179236, Note_off_c, 2, 70, 64
5, 179264, Note_on_c, 2, 69, 100
5, 179344, Note_off_c, 2, 69, 64
5, 179348, Note_on_c, 2, 70, 100
5, 179524, Note_off_c, 2, 70, 64
5, 179932, Note_on_c, 2, 69, 100
5, 180016, Note_off_c, 2, 69, 64
5, 180024, Note_on_c, 2, 67, 100
5, 180108, Note_off_c, 2, 67, 64
5, 180124, Note_on_c, 2, 69, 100
5, 180300, Note_off_c, 2, 69, 64
5, 180696, Note_on_c, 2, 69, 100
5, 180780, Note_off_c, 2, 69, 64
5, 180788, Note_on_c, 2, 67, 100
5, 180872, Note_off_c, 2, 67, 64
5, 180896, Note_on_c, 2, 69, 100
5, 181072, Note_off_c, 2, 69, 64
5, 181464, Note_on_c, 2, 67, 100
5, 181640, Note_off_c, 2, 67, 64
5, 182428, Note_on_c, 2, 67, 100
5, 182512, Note_off_c, 2, 67, 64
5, 182516, Note_on_c, 2, 66, 100
5, 182600, Note_off_c, 2, 66, 64
5, 182612, Note_on_c, 2, 67, 100
5, 182788, Note_off_c, 2, 67, 64
5, 182812, Note_on_c, 2, 70, 100
5, 182988, Note_off_c, 2, 70, 64
5, 183000, Note_on_c, 2, 72, 100
5, 183176, Note_off_c, 2, 72, 64
5, 183952, Note_on_c, 2, 65, 100
5, 184036, Note_off_c, 2, 65, 64
5, 184056, Note_on_c, 2, 64, 100
5, 184140, Note_off_c, 2, 64, 64
5, 184148, Note_on_c, 2, 65, 100
5, 184324, Note_off_c, 2, 65, 64
5, 184336, Note_on_c, 2, 69, 100
5, 184512, Note_off_c, 2, 69, 64
5, 184544, Note_on_c, 2, 70, 100
5, 184720, Note_off_c, 2, 70, 64
5, 185496, Note_on_c, 2, 63, 100
5, 185580, Note_off_c, 2, 63, 64
5, 185600, Note_on_c, 2, 62, 100
5, 185680, Note_off_c, 2, 62, 64
5, 185692, Note_on_c, 2, 63, 100
5, 185868, Note_off_c, 2, 63, 64
5, 185888, Note_on_c, 2, 67, 100
5, 186064, Note_off_c, 2, 67, 64
5, 186064, Note_on_c, 2, 62, 100
5, 186240, Note_off_c, 2, 62, 64
5, 186260, Note_on_c, 2, 72, 100
5, 186344, Note_off_c, 2, 72, 64
5, 186356, Note_on_c, 2, 70, 100
5, 186440, Note_off_c, 2, 70, 64
5, 186464, Note_on_c, 2, 72, 100
5, 186640, Note_off_c, 2, 72, 64
5, 187024, Note_on_c, 2, 78, 100
5, 187108, Note_off_c, 2, 78, 64
5, 187128, Note_on_c, 2, 76, 100
5, 187212, Note_off_c, 2, 76, 64
5, 187216, Note_on_c, 2, 74, 100
5, 187392, Note_off_c, 2, 74, 64
5, 187796, Note_on_c, 2, 81, 100
5, 187880, Note_off_c, 2, 81, 64
5, 187900, Note_on_c, 2, 79, 100
5, 187984, Note_off_c, 2, 79, 64
5, 187996, Note_on_c, 2, 78, 100
5, 188172, Note_off_c, 2, 78, 64
5, 188568, Note_on_c, 2, 79, 100
5, 188652, Note_off_c, 2, 79, 64
5, 188656, Note_on_c, 2, 78, 100
5, 188740, Note_off_c, 2, 78, 64
5, 188756, Note_on_c, 2, 79, 100
5, 188932, Note_off_c, 2, 79, 64
5, 189332, Note_on_c, 2, 78, 100
5, 189416, Note_off_c, 2, 78, 64
5, 189428, Note_on_c, 2, 76, 100
5, 189512, Note_off_c, 2, 76, 64
5, 189532, Note_on_c, 2, 74, 100
5, 189708, Note_off_c, 2, 74, 64
5, 190108, Note_on_c, 2, 72, 100
5, 190192, Note_off_c, 2, 72, 64
5, 190196, Note_on_c, 2, 70, 100
5, 190280, Note_off_c, 2, 70, 64
5, 190288, Note_on_c, 2, 69, 100
5, 190464, Note_off_c, 2, 69, 64
5, 190492, Note_on_c, 2, 74, 100
5, 190668, Note_off_c, 2, 74, 64
5, 190680, Note_on_c, 2, 75, 100
5, 190948, Note_off_c, 2, 75, 64
5, 190964, Note_on_c, 2, 74, 100
5, 191048, Note_off_c, 2, 74, 64
5, 191064, Note_on_c, 2, 72, 100
5, 191148, Note_off_c, 2, 72, 64
5, 191164, Note_on_c, 2, 70, 100
5, 191248, Note_off_c, 2, 70, 64
5, 191252, Note_on_c, 2, 69, 100
5, 191336, Note_off_c, 2, 69, 64
5, 191360, Note_on_c, 2, 67, 100
5, 191440, Note_off_c, 2, 67, 64
5, 191456, Note_on_c, 2, 74, 100
5, 191632, Note_off_c, 2, 74, 64
5, 191636, Note_on_c, 2, 72, 100
5, 191720, Note_off_c, 2, 72, 64
5, 191732, Note_on_c, 2, 70, 100
5, 191816, Note_off_c, 2, 70, 64
5, 191840, Note_on_c, 2, 69, 100
5, 192016, Note_off_c, 2, 69, 64
5, 192016, Note_on_c, 2, 67, 100
5, 192100, Note_off_c, 2, 67, 64
5, 192112, Note_on_c, 2, 66, 100
5, 192196, Note_off_c, 2, 66, 64
5, 192212, Note_on_c, 2, 67, 100
5, 192388, Note_off_c, 2, 67, 64
5, 192416, Note_on_c, 2, 62, 100
5, 192496, Note_off_c, 2, 62, 64
5, 192500, Note_on_c, 2, 60, 100
5, 192584, Note_off_c, 2, 60, 64
5, 192600, Note_on_c, 2, 62, 100
5, 192776, Note_off_c, 2, 62, 64
5, 192788, Note_on_c, 2, 67, 100
5, 192872, Note_off_c, 2, 67, 64
5, 192880, Note_on_c, 2, 66, 100
5, 192964, Note_off_c, 2, 66, 64
5, 192984, Note_on_c, 2, 67, 100
5, 193160, Note_off_c, 2, 67, 64
5, 193184, Note_on_c, 2, 59, 100
5, 193264, Note_off_c, 2, 59, 64
5, 193268, Note_on_c, 2, 57, 100
5, 193352, Note_off_c, 2, 57, 64
5, 193364, Note_on_c, 2, 59, 100
5, 193540, Note_off_c, 2, 59, 64
5, 193552, Note_on_c, 2, 67, 100
5, 193636, Note_off_c, 2, 67, 64
5, 193648, Note_on_c, 2, 66, 100
5, 193732, Note_off_c, 2, 66, 64
5, 193752, Note_on_c, 2, 67, 100
5, 193928, Note_off_c, 2, 67, 64
5, 193948, Note_on_c, 2, 55, 100
5, 194032, Note_off_c, 2, 55, 64
5, 194036, Note_on_c, 2, 57, 100
5, 194120, Note_off_c, 2, 57, 64
5, 194144, Note_on_c, 2, 59, 100
5, 194320, Note_off_c, 2, 59, 64
5, 194328, Note_on_c, 2, 61, 100
5, 194504, Note_off_c, 2, 61, 64
5, 194512, Note_on_c, 2, 62, 100
5, 194596, Note_off_c, 2, 62, 64
5, 194608, Note_on_c, 2, 61, 100
5, 194692, Note_off_c, 2, 61, 64
5, 194708, Note_on_c, 2, 62, 100
5, 194792, Note_off_c, 2, 62, 64
5, 194816, Note_on_c, 2, 64, 100
5, 194896, Note_off_c, 2, 64, 64
5, 194896, Note_on_c, 2, 62, 100
5, 194980, Note_off_c, 2, 62, 64
5, 195004, Note_on_c, 2, 66, 100
5, 195088, Note_off_c, 2, 66, 64
5, 195092, Note_on_c, 2, 62, 100
5, 195176, Note_off_c, 2, 62, 64
5, 195192, Note_on_c, 2, 67, 100
5, 195276, Note_off_c, 2, 67, 64
5, 195296, Note_on_c, 2, 62, 100
5, 195376, Note_off_c, 2, 62, 64
5, 195384, Note_on_c, 2, 61, 100
5, 195468, Note_off_c, 2, 61, 64
5, 195488, Note_on_c, 2, 62, 100
5, 195568, Note_off_c, 2, 62, 64
5, 195580, Note_on_c, 2, 64, 100
5, 195664, Note_off_c, 2, 64, 64
5, 195672, Note_on_c, 2, 62, 100
5, 195756, Note_off_c, 2, 62, 64
5, 195760, Note_on_c, 2, 69, 100
5, 195844, Note_off_c, 2, 69, 64
5, 195856, Note_on_c, 2, 62, 100
5, 195940, Note_off_c, 2, 62, 64
5, 195964, Note_on_c, 2, 71, 100
5, 196048, Note_off_c, 2, 71, 64
5, 196052, Note_on_c, 2, 62, 100
5, 196136, Note_off_c, 2, 62, 64
5, 196152, Note_on_c, 2, 61, 100
5, 196236, Note_off_c, 2, 61, 64
5, 196240, Note_on_c, 2, 62, 100
5, 196324, Note_off_c, 2, 62, 64
5, 196352, Note_on_c, 2, 64, 100
5, 196432, Note_off_c, 2, 64, 64
5, 196444, Note_on_c, 2, 62, 100
5, 196528, Note_off_c, 2, 62, 64
5, 196540, Note_on_c, 2, 72, 100
5, 196624, Note_off_c, 2, 72, 64
5, 196636, Note_on_c, 2, 62, 100
5, 196720, Note_off_c, 2, 62, 64
5, 196732, Note_on_c, 2, 74, 100
5, 196816, Note_off_c, 2, 74, 64
5, 196832, Note_on_c, 2, 71, 100
5, 197008, Note_off_c, 2, 71, 64
5, 197016, Note_on_c, 2, 69, 100
5, 197100, Note_off_c, 2, 69, 64
5, 197112, Note_on_c, 2, 67, 100
5, 197196, Note_off_c, 2, 67, 64
5, 197208, Note_on_c, 2, 69, 100
5, 197384, Note_off_c, 2, 69, 64
5, 197400, Note_on_c, 2, 67, 100
5, 197484, Note_off_c, 2, 67, 64
5, 197504, Note_on_c, 2, 66, 100
5, 197584, Note_off_c, 2, 66, 64
5, 197592, Note_on_c, 2, 67, 100
5, 197768, Note_off_c, 2, 67, 64
5, 197776, Note_on_c, 2, 66, 100
5, 197860, Note_off_c, 2, 66, 64
5, 197888, Note_on_c, 2, 64, 100
5, 197968, Note_off_c, 2, 64, 64
5, 197980, Note_on_c, 2, 62, 100
5, 198064, Note_off_c, 2, 62, 64
5, 198076, Note_on_c, 2, 67, 100
5, 198160, Note_off_c, 2, 67, 64
5, 198168, Note_on_c, 2, 62, 100
5, 198252, Note_off_c, 2, 62, 64
5, 198268, Note_on_c, 2, 67, 100
5, 198352, Note_off_c, 2, 67, 64
5, 198352, Note_on_c, 2, 64, 100
5, 198528, Note_off_c, 2, 64, 64
5, 198560, Note_on_c, 2, 62, 100
5, 198640, Note_off_c, 2, 62, 64
5, 198652, Note_on_c, 2, 60, 100
5, 198736, Note_off_c, 2, 60, 64
5, 198752, Note_on_c, 2, 59, 100
5, 198832, Note_off_c, 2, 59, 64
5, 198832, Note_on_c, 2, 67, 100
5, 198916, Note_off_c, 2, 67, 64
5, 198928, Note_on_c, 2, 59, 100
5, 199012, Note_off_c, 2, 59, 64
5, 199036, Note_on_c, 2, 67, 100
5, 199120, Note_off_c, 2, 67, 64
5, 199120, Note_on_c, 2, 60, 100
5, 199296, Note_off_c, 2, 60, 64
5, 199320, Note_on_c, 2, 59, 100
5, 199404, Note_off_c, 2, 59, 64
5, 199420, Note_on_c, 2, 57, 100
5, 199504, Note_off_c, 2, 57, 64
5, 199508, Note_on_c, 2, 55, 100
5, 199592, Note_off_c, 2, 55, 64
5, 199608, Note_on_c, 2, 67, 100
5, 199692, Note_off_c, 2, 67, 64
5, 199704, Note_on_c, 2, 57, 100
5, 199788, Note_off_c, 2, 57, 64
5, 199796, Note_on_c, 2, 67, 100
5, 199880, Note_off_c, 2, 67, 64
5, 199888, Note_on_c, 2, 59, 100
5, 199972, Note_off_c, 2, 59, 64
5, 199984, Note_on_c, 2, 67, 100
5, 200068, Note_off_c, 2, 67, 64
5, 200096, Note_on_c, 2, 61, 100
5, 200176, Note_off_c, 2, 61, 64
5, 200180, Note_on_c, 2, 67, 100
5, 200264, Note_off_c, 2, 67, 64
5, 200272, Note_on_c, 2, 62, 100
5, 200356, Note_off_c, 2, 62, 64
5, 200380, Note_on_c, 2, 66, 100
5, 200464, Note_off_c, 2, 66, 64
5, 200480, Note_on_c, 2, 62, 100
5, 200560, Note_off_c, 2, 62, 64
5, 200568, Note_on_c, 2, 67, 100
5, 200652, Note_off_c, 2, 67, 64
5, 200656, Note_on_c, 2, 62, 100
5, 200740, Note_off_c, 2, 62, 64
5, 200752, Note_on_c, 2, 69, 100
5, 200836, Note_off_c, 2, 69, 64
5, 200856, Note_on_c, 2, 62, 100
5, 200940, Note_off_c, 2, 62, 64
5, 200956, Note_on_c, 2, 71, 100
5, 201040, Note_off_c, 2, 71, 64
5, 201056, Note_on_c, 2, 62, 100
5, 201136, Note_off_c, 2, 62, 64
5, 201148, Note_on_c, 2, 72, 100
5, 201232, Note_off_c, 2, 72, 64
5, 201232, Note_on_c, 2, 62, 100
5, 201316, Note_off_c, 2, 62, 64
5, 201344, Note_on_c, 2, 74, 100
5, 201424, Note_off_c, 2, 74, 64
5, 201424, Note_on_c, 2, 71, 100
5, 201600, Note_off_c, 2, 71, 64
5, 201616, Note_on_c, 2, 69, 100
5, 201700, Note_off_c, 2, 69, 64
5, 201724, Note_on_c, 2, 67, 100
5, 201808, Note_off_c, 2, 67, 64
5, 201820, Note_on_c, 2, 62, 100
5, 201996, Note_off_c, 2, 62, 64
5, 202004, Note_on_c, 2, 66, 100
5, 202180, Note_off_c, 2, 66, 64
5, 202208, Note_on_c, 2, 67, 100
5, 202384, Note_off_c, 2, 67, 64
5, 203920, Note_on_c, 2, 62, 100
5, 204004, Note_off_c, 2, 62, 64
5, 204032, Note_on_c, 2, 60, 100
5, 204112, Note_off_c, 2, 60, 64
5, 204128, Note_on_c, 2, 62, 100
5, 204304, Note_off_c, 2, 62, 64
5, 204308, Note_on_c, 2, 67, 100
5, 204392, Note_off_c, 2, 67, 64
5, 204416, Note_on_c, 2, 66, 100
5, 204496, Note_off_c, 2, 66, 64
5, 204508, Note_on_c, 2, 67, 100
5, 204684, Note_off_c, 2, 67, 64
5, 204700, Note_on_c, 2, 71, 100
5, 204784, Note_off_c, 2, 71, 64
5, 204792, Note_on_c, 2, 69, 100
5, 204876, Note_off_c, 2, 69, 64
5, 204880, Note_on_c, 2, 71, 100
5, 205056, Note_off_c, 2, 71, 64
5, 205072, Note_on_c, 2, 74, 100
5, 205156, Note_off_c, 2, 74, 64
5, 205180, Note_on_c, 2, 72, 100
5, 205264, Note_off_c, 2, 72, 64
5, 205264, Note_on_c, 2, 74, 100
5, 205628, Note_off_c, 2, 74, 64
5, 205848, Note_on_c, 2, 67, 100
5, 206024, Note_off_c, 2, 67, 64
5, 206044, Note_on_c, 2, 71, 100
5, 206220, Note_off_c, 2, 71, 64
5, 206232, Note_on_c, 2, 69, 100
5, 206316, Note_off_c, 2, 69, 64
5, 206328, Note_on_c, 2, 67, 100
5, 206412, Note_off_c, 2, 67, 64
5, 206432, Note_on_c, 2, 66, 100
5, 206512, Note_off_c, 2, 66, 64
5, 206520, Note_on_c, 2, 64, 100
5, 206604, Note_off_c, 2, 64, 64
5, 206616, Note_on_c, 2, 62, 100
5, 206700, Note_off_c, 2, 62, 64
5, 206720, Note_on_c, 2, 60, 100
5, 206800, Note_off_c, 2, 60, 64
5, 206804, Note_on_c, 2, 59, 100
5, 206888, Note_off_c, 2, 59, 64
5, 206912, Note_on_c, 2, 67, 100
5, 206992, Note_off_c, 2, 67, 64
5, 207008, Note_on_c, 2, 66, 100
5, 207088, Note_off_c, 2, 66, 64
5, 207096, Note_on_c, 2, 64, 100
5, 207180, Note_off_c, 2, 64, 64
5, 207200, Note_on_c, 2, 62, 100
5, 207280, Note_off_c, 2, 62, 64
5, 207284, Note_on_c, 2, 60, 100
5, 207368, Note_off_c, 2, 60, 64
5, 207392, Note_on_c, 2, 59, 100
5, 207472, Note_off_c, 2, 59, 64
5, 207484, Note_on_c, 2, 57, 100
5, 207568, Note_off_c, 2, 57, 64
5, 207576, Note_on_c, 2, 59, 100
5, 207752, Note_off_c, 2, 59, 64
5, 207760, Note_on_c, 2, 57, 100
5, 207844, Note_off_c, 2, 57, 64
5, 207868, Note_on_c, 2, 55, 100
5, 207952, Note_off_c, 2, 55, 64
5, 207952, Note_on_c, 2, 62, 100
5, 208128, Note_off_c, 2, 62, 64
5, 208144, Note_on_c, 2, 62, 100
5, 208320, Note_off_c, 2, 62, 64
5, 208344, Note_on_c, 2, 55, 100
5, 209080, Note_off_c, 2, 55, 64
5, 209080, End_track
6, 0, Start_track
6, 0, Title_t, "Viola 1"
6, 0, Control_c, 3, 0, 0
6, 0, Program_c, 3, 53
6, 0, Control_c, 3, 7, 106
6, 0, Control_c, 3, 10, 54
6, 0, Control_c, 3, 91, 94
6, 0, Control_c, 3, 93, 79
6, 0, Pitch_bend_c, 3, 8192
6, 4, Control_c, 3, 1, 0
6, 8, Control_c, 3, 64, 0
6, 32, Note_on_c, 3, 55, 100
6, 208, Note_off_c, 3, 55, 64
6, 220, Note_on_c, 3, 59, 100
6, 396, Note_off_c, 3, 59, 64
6, 408, Note_on_c, 3, 62, 100
6, 584, Note_off_c, 3, 62, 64
6, 592, Note_on_c, 3, 59, 100
6, 768, Note_off_c, 3, 59, 64
6, 788, Note_on_c, 3, 55, 100
6, 964, Note_off_c, 3, 55, 64
6, 988, Note_on_c, 3, 59, 100
6, 1164, Note_off_c, 3, 59, 64
6, 1172, Note_on_c, 3, 62, 100
6, 1348, Note_off_c, 3, 62, 64
6, 1368, Note_on_c, 3, 59, 100
6, 1544, Note_off_c, 3, 59, 64
6, 1556, Note_on_c, 3, 55, 100
6, 1732, Note_off_c, 3, 55, 64
6, 1760, Note_on_c, 3, 59, 100
6, 1936, Note_off_c, 3, 59, 64
6, 1952, Note_on_c, 3, 62, 100
6, 2128, Note_off_c, 3, 62, 64
6, 2136, Note_on_c, 3, 67, 100
6, 2220, Note_off_c, 3, 67, 64
6, 2228, Note_on_c, 3, 71, 100
6, 2312, Note_off_c, 3, 71, 64
6, 2332, Note_on_c, 3, 69, 100
6, 2416, Note_off_c, 3, 69, 64
6, 2416, Note_on_c, 3, 67, 100
6, 2500, Note_off_c, 3, 67, 64
6, 2512, Note_on_c, 3, 66, 100
6, 2688, Note_off_c, 3, 66, 64
6, 2704, Note_on_c, 3, 62, 100
6, 2880, Note_off_c, 3, 62, 64
6, 3104, Note_on_c, 3, 71, 100
6, 3280, Note_off_c, 3, 71, 64
6, 3288, Note_on_c, 3, 66, 100
6, 3464, Note_off_c, 3, 66, 64
6, 3480, Note_on_c, 3, 62, 100
6, 3656, Note_off_c, 3, 62, 64
6, 3868, Note_on_c, 3, 67, 100
6, 4044, Note_off_c, 3, 67, 64
6, 4048, Note_on_c, 3, 66, 100
6, 4224, Note_off_c, 3, 66, 64
6, 4252, Note_on_c, 3, 62, 100
6, 4428, Note_off_c, 3, 62, 64
6, 4636, Note_on_c, 3, 69, 100
6, 4812, Note_off_c, 3, 69, 64
6, 4816, Note_on_c, 3, 62, 100
6, 4992, Note_off_c, 3, 62, 64
6, 5008, Note_on_c, 3, 60, 100
6, 5092, Note_off_c, 3, 60, 64
6, 5112, Note_on_c, 3, 59, 100
6, 5196, Note_off_c, 3, 59, 64
6, 5208, Note_on_c, 3, 60, 100
6, 5384, Note_off_c, 3, 60, 64
6, 5408, Note_on_c, 3, 59, 100
6, 5488, Note_off_c, 3, 59, 64
6, 5488, Note_on_c, 3, 57, 100
6, 5572, Note_off_c, 3, 57, 64
6, 5600, Note_on_c, 3, 55, 100
6, 5776, Note_off_c, 3, 55, 64
6, 5780, Note_on_c, 3, 67, 100
6, 5956, Note_off_c, 3, 67, 64
6, 5972, Note_on_c, 3, 67, 100
6, 6148, Note_off_c, 3, 67, 64
6, 6176, Note_on_c, 3, 55, 100
6, 6352, Note_off_c, 3, 55, 64
6, 6360, Note_on_c, 3, 55, 100
6, 6536, Note_off_c, 3, 55, 64
6, 6560, Note_on_c, 3, 67, 100
6, 6736, Note_on_c, 3, 67, 100
6, 6748, Note_off_c, 3, 67, 64
6, 6920, Note_off_c, 3, 67, 64
6, 6928, Note_on_c, 3, 55, 100
6, 7104, Note_off_c, 3, 55, 64
6, 7120, Note_on_c, 3, 55, 100
6, 7296, Note_off_c, 3, 55, 64
6, 7320, Note_on_c, 3, 67, 100
6, 7496, Note_off_c, 3, 67, 64
6, 7520, Note_on_c, 3, 67, 100
6, 7696, Note_off_c, 3, 67, 64
6, 7700, Note_on_c, 3, 55, 100
6, 7876, Note_off_c, 3, 55, 64
6, 7904, Note_on_c, 3, 55, 100
6, 8080, Note_off_c, 3, 55, 64
6, 8092, Note_on_c, 3, 67, 100
6, 8268, Note_off_c, 3, 67, 64
6, 8280, Note_on_c, 3, 67, 100
6, 8456, Note_off_c, 3, 67, 64
6, 8480, Note_on_c, 3, 67, 100
6, 8656, Note_off_c, 3, 67, 64
6, 8660, Note_on_c, 3, 69, 100
6, 8836, Note_off_c, 3, 69, 64
6, 8860, Note_on_c, 3, 71, 100
6, 9036, Note_off_c, 3, 71, 64
6, 9040, Note_on_c, 3, 72, 100
6, 9216, Note_off_c, 3, 72, 64
6, 9248, Note_on_c, 3, 74, 100
6, 9424, Note_off_c, 3, 74, 64
6, 9432, Note_on_c, 3, 71, 100
6, 9608, Note_off_c, 3, 71, 64
6, 9616, Note_on_c, 3, 69, 100
6, 9700, Note_off_c, 3, 69, 64
6, 9716, Note_on_c, 3, 67, 100
6, 9800, Note_off_c, 3, 67, 64
6, 9812, Note_on_c, 3, 62, 100
6, 9988, Note_off_c, 3, 62, 64
6, 10008, Note_on_c, 3, 66, 100
6, 10184, Note_off_c, 3, 66, 64
6, 10208, Note_on_c, 3, 67, 100
6, 10384, Note_off_c, 3, 67, 64
6, 10392, Note_on_c, 3, 67, 100
6, 10476, Note_off_c, 3, 67, 64
6, 10480, Note_on_c, 3, 64, 100
6, 10564, Note_off_c, 3, 64, 64
6, 10584, Note_on_c, 3, 62, 100
6, 10668, Note_off_c, 3, 62, 64
6, 10672, Note_on_c, 3, 60, 100
6, 10756, Note_off_c, 3, 60, 64
6, 10776, Note_on_c, 3, 59, 100
6, 10860, Note_off_c, 3, 59, 64
6, 10872, Note_on_c, 3, 57, 100
6, 10956, Note_off_c, 3, 57, 64
6, 10968, Note_on_c, 3, 59, 100
6, 11144, Note_off_c, 3, 59, 64
6, 11160, Note_on_c, 3, 57, 100
6, 11244, Note_off_c, 3, 57, 64
6, 11256, Note_on_c, 3, 55, 100
6, 11340, Note_off_c, 3, 55, 64
6, 11348, Note_on_c, 3, 62, 100
6, 11524, Note_off_c, 3, 62, 64
6, 11540, Note_on_c, 3, 50, 100
6, 11716, Note_off_c, 3, 50, 64
6, 11744, Note_on_c, 3, 55, 100
6, 11920, Note_off_c, 3, 55, 64
6, 11920, Note_on_c, 3, 62, 100
6, 12096, Note_off_c, 3, 62, 64
6, 12116, Note_on_c, 3, 67, 100
6, 12292, Note_off_c, 3, 67, 64
6, 13076, Note_on_c, 3, 71, 100
6, 13160, Note_off_c, 3, 71, 64
6, 13168, Note_on_c, 3, 69, 100
6, 13252, Note_off_c, 3, 69, 64
6, 13264, Note_on_c, 3, 71, 100
6, 13440, Note_off_c, 3, 71, 64
6, 13472, Note_on_c, 3, 67, 100
6, 13552, Note_off_c, 3, 67, 64
6, 13560, Note_on_c, 3, 66, 100
6, 13644, Note_off_c, 3, 66, 64
6, 13648, Note_on_c, 3, 67, 100
6, 13824, Note_off_c, 3, 67, 64
6, 14236, Note_on_c, 3, 71, 100
6, 14320, Note_off_c, 3, 71, 64
6, 14324, Note_on_c, 3, 72, 100
6, 14408, Note_off_c, 3, 72, 64
6, 14428, Note_on_c, 3, 74, 100
6, 14604, Note_off_c, 3, 74, 64
6, 14624, Note_on_c, 3, 76, 100
6, 14800, Note_off_c, 3, 76, 64
6, 14808, Note_on_c, 3, 69, 100
6, 14984, Note_off_c, 3, 69, 64
6, 15004, Note_on_c, 3, 74, 100
6, 15088, Note_off_c, 3, 74, 64
6, 15088, Note_on_c, 3, 73, 100
6, 15172, Note_off_c, 3, 73, 64
6, 15188, Note_on_c, 3, 74, 100
6, 15364, Note_off_c, 3, 74, 64
6, 15764, Note_on_c, 3, 74, 100
6, 15848, Note_off_c, 3, 74, 64
6, 15856, Note_on_c, 3, 73, 100
6, 15940, Note_off_c, 3, 73, 64
6, 15952, Note_on_c, 3, 74, 100
6, 16128, Note_off_c, 3, 74, 64
6, 16540, Note_on_c, 3, 74, 100
6, 16624, Note_off_c, 3, 74, 64
6, 16640, Note_on_c, 3, 73, 100
6, 16720, Note_off_c, 3, 73, 64
6, 16720, Note_on_c, 3, 74, 100
6, 16896, Note_off_c, 3, 74, 64
6, 16928, Note_on_c, 3, 69, 100
6, 17104, Note_off_c, 3, 69, 64
6, 17112, Note_on_c, 3, 69, 100
6, 17288, Note_off_c, 3, 69, 64
6, 17296, Note_on_c, 3, 67, 100
6, 17380, Note_off_c, 3, 67, 64
6, 17400, Note_on_c, 3, 66, 100
6, 17484, Note_off_c, 3, 66, 64
6, 17500, Note_on_c, 3, 67, 100
6, 17676, Note_off_c, 3, 67, 64
6, 17680, Note_on_c, 3, 66, 100
6, 17764, Note_off_c, 3, 66, 64
6, 17788, Note_on_c, 3, 64, 100
6, 17872, Note_off_c, 3, 64, 64
6, 17880, Note_on_c, 3, 62, 100
6, 18056, Note_off_c, 3, 62, 64
6, 18064, Note_on_c, 3, 74, 100
6, 18240, Note_off_c, 3, 74, 64
6, 18264, Note_on_c, 3, 74, 100
6, 18440, Note_off_c, 3, 74, 64
6, 18460, Note_on_c, 3, 62, 100
6, 18636, Note_off_c, 3, 62, 64
6, 18652, Note_on_c, 3, 62, 100
6, 18828, Note_off_c, 3, 62, 64
6, 18848, Note_on_c, 3, 74, 100
6, 19024, Note_off_c, 3, 74, 64
6, 19028, Note_on_c, 3, 74, 100
6, 19204, Note_off_c, 3, 74, 64
6, 19228, Note_on_c, 3, 62, 100
6, 19404, Note_off_c, 3, 62, 64
6, 19420, Note_on_c, 3, 62, 100
6, 19596, Note_off_c, 3, 62, 64
6, 19608, Note_on_c, 3, 74, 100
6, 19784, Note_off_c, 3, 74, 64
6, 19804, Note_on_c, 3, 74, 100
6, 19980, Note_off_c, 3, 74, 64
6, 19992, Note_on_c, 3, 62, 100
6, 20168, Note_off_c, 3, 62, 64
6, 20188, Note_on_c, 3, 62, 100
6, 20364, Note_off_c, 3, 62, 64
6, 20372, Note_on_c, 3, 74, 100
6, 20548, Note_off_c, 3, 74, 64
6, 20564, Note_on_c, 3, 73, 100
6, 20740, Note_off_c, 3, 73, 64
6, 20760, Note_on_c, 3, 71, 100
6, 20936, Note_off_c, 3, 71, 64
6, 20948, Note_on_c, 3, 69, 100
6, 21124, Note_off_c, 3, 69, 64
6, 21140, Note_on_c, 3, 62, 100
6, 21316, Note_off_c, 3, 62, 64
6, 21336, Note_on_c, 3, 61, 100
6, 21512, Note_off_c, 3, 61, 64
6, 21532, Note_on_c, 3, 64, 100
6, 21708, Note_off_c, 3, 64, 64
6, 21712, Note_on_c, 3, 62, 100
6, 21888, Note_off_c, 3, 62, 64
6, 21920, Note_on_c, 3, 64, 100
6, 22000, Note_off_c, 3, 64, 64
6, 22016, Note_on_c, 3, 66, 100
6, 22096, Note_off_c, 3, 66, 64
6, 22100, Note_on_c, 3, 64, 100
6, 22276, Note_off_c, 3, 64, 64
6, 22296, Note_on_c, 3, 69, 100
6, 22472, Note_off_c, 3, 69, 64
6, 22496, Note_on_c, 3, 66, 100
6, 22856, Note_off_c, 3, 66, 64
6, 23840, Note_on_c, 3, 71, 100
6, 23920, Note_off_c, 3, 71, 64
6, 23920, Note_on_c, 3, 69, 100
6, 24004, Note_off_c, 3, 69, 64
6, 24020, Note_on_c, 3, 71, 100
6, 24196, Note_off_c, 3, 71, 64
6, 24220, Note_on_c, 3, 67, 100
6, 24304, Note_off_c, 3, 67, 64
6, 24304, Note_on_c, 3, 66, 100
6, 24388, Note_off_c, 3, 66, 64
6, 24408, Note_on_c, 3, 67, 100
6, 24584, Note_off_c, 3, 67, 64
6, 24984, Note_on_c, 3, 62, 100
6, 25160, Note_off_c, 3, 62, 64
6, 25184, Note_on_c, 3, 67, 100
6, 25264, Note_off_c, 3, 67, 64
6, 25268, Note_on_c, 3, 71, 100
6, 25352, Note_off_c, 3, 71, 64
6, 25368, Note_on_c, 3, 69, 100
6, 25452, Note_off_c, 3, 69, 64
6, 25472, Note_on_c, 3, 67, 100
6, 25552, Note_off_c, 3, 67, 64
6, 25568, Note_on_c, 3, 66, 100
6, 25648, Note_off_c, 3, 66, 64
6, 25656, Note_on_c, 3, 69, 100
6, 25740, Note_off_c, 3, 69, 64
6, 25756, Note_on_c, 3, 62, 100
6, 25840, Note_off_c, 3, 62, 64
6, 25840, Note_on_c, 3, 64, 100
6, 25924, Note_off_c, 3, 64, 64
6, 25944, Note_on_c, 3, 66, 100
6, 26028, Note_off_c, 3, 66, 64
6, 26036, Note_on_c, 3, 67, 100
6, 26120, Note_off_c, 3, 67, 64
6, 26144, Note_on_c, 3, 69, 100
6, 26224, Note_off_c, 3, 69, 64
6, 26240, Note_on_c, 3, 67, 100
6, 26320, Note_off_c, 3, 67, 64
6, 26324, Note_on_c, 3, 66, 100
6, 26500, Note_off_c, 3, 66, 64
6, 26520, Note_on_c, 3, 74, 100
6, 26696, Note_off_c, 3, 74, 64
6, 26896, Note_on_c, 3, 73, 100
6, 27072, Note_off_c, 3, 73, 64
6, 27096, Note_on_c, 3, 74, 100
6, 27272, Note_off_c, 3, 74, 64
6, 27296, Note_on_c, 3, 69, 100
6, 27472, Note_off_c, 3, 69, 64
6, 27476, Note_on_c, 3, 62, 100
6, 27652, Note_off_c, 3, 62, 64
6, 27672, Note_on_c, 3, 74, 100
6, 27756, Note_off_c, 3, 74, 64
6, 27772, Note_on_c, 3, 73, 100
6, 27856, Note_off_c, 3, 73, 64
6, 27860, Note_on_c, 3, 74, 100
6, 28036, Note_off_c, 3, 74, 64
6, 28052, Note_on_c, 3, 69, 100
6, 28136, Note_off_c, 3, 69, 64
6, 28160, Note_on_c, 3, 67, 100
6, 28240, Note_off_c, 3, 67, 64
6, 28256, Note_on_c, 3, 69, 100
6, 28432, Note_off_c, 3, 69, 64
6, 28432, Note_on_c, 3, 74, 100
6, 28516, Note_off_c, 3, 74, 64
6, 28544, Note_on_c, 3, 73, 100
6, 28624, Note_off_c, 3, 73, 64
6, 28640, Note_on_c, 3, 74, 100
6, 28816, Note_off_c, 3, 74, 64
6, 28828, Note_on_c, 3, 66, 100
6, 28912, Note_off_c, 3, 66, 64
6, 28916, Note_on_c, 3, 64, 100
6, 29000, Note_off_c, 3, 64, 64
6, 29012, Note_on_c, 3, 66, 100
6, 29188, Note_off_c, 3, 66, 64
6, 29208, Note_on_c, 3, 74, 100
6, 29292, Note_off_c, 3, 74, 64
6, 29296, Note_on_c, 3, 73, 100
6, 29380, Note_off_c, 3, 73, 64
6, 29396, Note_on_c, 3, 74, 100
6, 29572, Note_off_c, 3, 74, 64
6, 29600, Note_on_c, 3, 62, 100
6, 29680, Note_off_c, 3, 62, 64
6, 29680, Note_on_c, 3, 64, 100
6, 29764, Note_off_c, 3, 64, 64
6, 29788, Note_on_c, 3, 66, 100
6, 29964, Note_off_c, 3, 66, 64
6, 29980, Note_on_c, 3, 68, 100
6, 30156, Note_off_c, 3, 68, 64
6, 30164, Note_on_c, 3, 69, 100
6, 30340, Note_off_c, 3, 69, 64
6, 30368, Note_on_c, 3, 73, 100
6, 30448, Note_off_c, 3, 73, 64
6, 30464, Note_on_c, 3, 71, 100
6, 30544, Note_off_c, 3, 71, 64
6, 30548, Note_on_c, 3, 69, 100
6, 30724, Note_off_c, 3, 69, 64
6, 31136, Note_on_c, 3, 71, 100
6, 31216, Note_off_c, 3, 71, 64
6, 31228, Note_on_c, 3, 69, 100
6, 31312, Note_off_c, 3, 69, 64
6, 31320, Note_on_c, 3, 71, 100
6, 31496, Note_off_c, 3, 71, 64
6, 31892, Note_on_c, 3, 71, 100
6, 31976, Note_off_c, 3, 71, 64
6, 31984, Note_on_c, 3, 69, 100
6, 32068, Note_off_c, 3, 69, 64
6, 32080, Note_on_c, 3, 71, 100
6, 32256, Note_off_c, 3, 71, 64
6, 32664, Note_on_c, 3, 74, 100
6, 32748, Note_off_c, 3, 74, 64
6, 32768, Note_on_c, 3, 73, 100
6, 32848, Note_off_c, 3, 73, 64
6, 32852, Note_on_c, 3, 74, 100
6, 33028, Note_off_c, 3, 74, 64
6, 33044, Note_on_c, 3, 74, 100
6, 33220, Note_off_c, 3, 74, 64
6, 33232, Note_on_c, 3, 74, 100
6, 33408, Note_off_c, 3, 74, 64
6, 33424, Note_on_c, 3, 73, 100
6, 33508, Note_off_c, 3, 73, 64
6, 33520, Note_on_c, 3, 71, 100
6, 33604, Note_off_c, 3, 71, 64
6, 33632, Note_on_c, 3, 73, 100
6, 33808, Note_off_c, 3, 73, 64
6, 33816, Note_on_c, 3, 74, 100
6, 33900, Note_off_c, 3, 74, 64
6, 33904, Note_on_c, 3, 69, 100
6, 33988, Note_off_c, 3, 69, 64
6, 34000, Note_on_c, 3, 62, 100
6, 34176, Note_off_c, 3, 62, 64
6, 34204, Note_on_c, 3, 64, 100
6, 34288, Note_off_c, 3, 64, 64
6, 34296, Note_on_c, 3, 66, 100
6, 34380, Note_off_c, 3, 66, 64
6, 34396, Note_on_c, 3, 67, 100
6, 34572, Note_off_c, 3, 67, 64
6, 34580, Note_on_c, 3, 67, 100
6, 34756, Note_off_c, 3, 67, 64
6, 34772, Note_on_c, 3, 66, 100
6, 34948, Note_off_c, 3, 66, 64
6, 34960, Note_on_c, 3, 66, 100
6, 35136, Note_off_c, 3, 66, 64
6, 35156, Note_on_c, 3, 66, 100
6, 35332, Note_off_c, 3, 66, 64
6, 35360, Note_on_c, 3, 67, 100
6, 35536, Note_off_c, 3, 67, 64
6, 35552, Note_on_c, 3, 69, 100
6, 35728, Note_on_c, 3, 69, 100
6, 35736, Note_off_c, 3, 69, 64
6, 35912, Note_off_c, 3, 69, 64
6, 35932, Note_on_c, 3, 69, 100
6, 36108, Note_off_c, 3, 69, 64
6, 36120, Note_on_c, 3, 71, 100
6, 36296, Note_off_c, 3, 71, 64
6, 36304, Note_on_c, 3, 62, 100
6, 36388, Note_off_c, 3, 62, 64
6, 36412, Note_on_c, 3, 61, 100
6, 36496, Note_off_c, 3, 61, 64
6, 36508, Note_on_c, 3, 62, 100
6, 36592, Note_off_c, 3, 62, 64
6, 36604, Note_on_c, 3, 64, 100
6, 36688, Note_off_c, 3, 64, 64
6, 36704, Note_on_c, 3, 62, 100
6, 36784, Note_off_c, 3, 62, 64
6, 36796, Note_on_c, 3, 66, 100
6, 36880, Note_off_c, 3, 66, 64
6, 36896, Note_on_c, 3, 62, 100
6, 36976, Note_off_c, 3, 62, 64
6, 36984, Note_on_c, 3, 67, 100
6, 37068, Note_off_c, 3, 67, 64
6, 37072, Note_on_c, 3, 62, 100
6, 37156, Note_off_c, 3, 62, 64
6, 37180, Note_on_c, 3, 61, 100
6, 37264, Note_off_c, 3, 61, 64
6, 37276, Note_on_c, 3, 62, 100
6, 37360, Note_off_c, 3, 62, 64
6, 37360, Note_on_c, 3, 64, 100
6, 37444, Note_off_c, 3, 64, 64
6, 37468, Note_on_c, 3, 62, 100
6, 37552, Note_off_c, 3, 62, 64
6, 37556, Note_on_c, 3, 69, 100
6, 37640, Note_off_c, 3, 69, 64
6, 37660, Note_on_c, 3, 62, 100
6, 37744, Note_off_c, 3, 62, 64
6, 37756, Note_on_c, 3, 71, 100
6, 37840, Note_off_c, 3, 71, 64
6, 37848, Note_on_c, 3, 72, 100
6, 37932, Note_off_c, 3, 72, 64
6, 37948, Note_on_c, 3, 71, 100
6, 38032, Note_off_c, 3, 71, 64
6, 38048, Note_on_c, 3, 72, 100
6, 38128, Note_off_c, 3, 72, 64
6, 38140, Note_on_c, 3, 74, 100
6, 38224, Note_off_c, 3, 74, 64
6, 38224, Note_on_c, 3, 72, 100
6, 38308, Note_off_c, 3, 72, 64
6, 38320, Note_on_c, 3, 71, 100
6, 38404, Note_off_c, 3, 71, 64
6, 38424, Note_on_c, 3, 72, 100
6, 38508, Note_off_c, 3, 72, 64
6, 38520, Note_on_c, 3, 69, 100
6, 38604, Note_off_c, 3, 69, 64
6, 38616, Note_on_c, 3, 71, 100
6, 38792, Note_off_c, 3, 71, 64
6, 38800, Note_on_c, 3, 71, 100
6, 38976, Note_off_c, 3, 71, 64
6, 39004, Note_on_c, 3, 71, 100
6, 39180, Note_off_c, 3, 71, 64
6, 39200, Note_on_c, 3, 72, 100
6, 39376, Note_off_c, 3, 72, 64
6, 39376, Note_on_c, 3, 74, 100
6, 39552, Note_off_c, 3, 74, 64
6, 39580, Note_on_c, 3, 74, 100
6, 39756, Note_off_c, 3, 74, 64
6, 39768, Note_on_c, 3, 74, 100
6, 39944, Note_off_c, 3, 74, 64
6, 39964, Note_on_c, 3, 76, 100
6, 40140, Note_off_c, 3, 76, 64
6, 40144, Note_on_c, 3, 74, 100
6, 40320, Note_off_c, 3, 74, 64
6, 40720, Note_on_c, 3, 55, 100
6, 40804, Note_off_c, 3, 55, 64
6, 40820, Note_on_c, 3, 54, 100
6, 40904, Note_off_c, 3, 54, 64
6, 40924, Note_on_c, 3, 55, 100
6, 41100, Note_off_c, 3, 55, 64
6, 41500, Note_on_c, 3, 55, 100
6, 41584, Note_off_c, 3, 55, 64
6, 41588, Note_on_c, 3, 54, 100
6, 41672, Note_off_c, 3, 54, 64
6, 41692, Note_on_c, 3, 55, 100
6, 41868, Note_off_c, 3, 55, 64
6, 41888, Note_on_c, 3, 55, 100
6, 42064, Note_off_c, 3, 55, 64
6, 42076, Note_on_c, 3, 55, 100
6, 42252, Note_off_c, 3, 55, 64
6, 42272, Note_on_c, 3, 60, 100
6, 42448, Note_off_c, 3, 60, 64
6, 42464, Note_on_c, 3, 55, 100
6, 42544, Note_off_c, 3, 55, 64
6, 42552, Note_on_c, 3, 59, 100
6, 42636, Note_off_c, 3, 59, 64
6, 42648, Note_on_c, 3, 60, 100
6, 42732, Note_off_c, 3, 60, 64
6, 42736, Note_on_c, 3, 62, 100
6, 42820, Note_off_c, 3, 62, 64
6, 42840, Note_on_c, 3, 64, 100
6, 42924, Note_off_c, 3, 64, 64
6, 42940, Note_on_c, 3, 62, 100
6, 43024, Note_off_c, 3, 62, 64
6, 43040, Note_on_c, 3, 64, 100
6, 43120, Note_off_c, 3, 64, 64
6, 43132, Note_on_c, 3, 65, 100
6, 43216, Note_off_c, 3, 65, 64
6, 43220, Note_on_c, 3, 67, 100
6, 43396, Note_off_c, 3, 67, 64
6, 43416, Note_on_c, 3, 67, 100
6, 43592, Note_off_c, 3, 67, 64
6, 43608, Note_on_c, 3, 67, 100
6, 43784, Note_off_c, 3, 67, 64
6, 43800, Note_on_c, 3, 65, 100
6, 43884, Note_off_c, 3, 65, 64
6, 43904, Note_on_c, 3, 64, 100
6, 43984, Note_off_c, 3, 64, 64
6, 43992, Note_on_c, 3, 65, 100
6, 44168, Note_off_c, 3, 65, 64
6, 44176, Note_on_c, 3, 65, 100
6, 44352, Note_off_c, 3, 65, 64
6, 44380, Note_on_c, 3, 65, 100
6, 44556, Note_off_c, 3, 65, 64
6, 44568, Note_on_c, 3, 64, 100
6, 44652, Note_off_c, 3, 64, 64
6, 44668, Note_on_c, 3, 62, 100
6, 44752, Note_off_c, 3, 62, 64
6, 44764, Note_on_c, 3, 64, 100
6, 44940, Note_off_c, 3, 64, 64
6, 44960, Note_on_c, 3, 64, 100
6, 45136, Note_off_c, 3, 64, 64
6, 45152, Note_on_c, 3, 64, 100
6, 45328, Note_off_c, 3, 64, 64
6, 45340, Note_on_c, 3, 62, 100
6, 45424, Note_off_c, 3, 62, 64
6, 45428, Note_on_c, 3, 60, 100
6, 45512, Note_off_c, 3, 60, 64
6, 45524, Note_on_c, 3, 59, 100
6, 45608, Note_off_c, 3, 59, 64
6, 45616, Note_on_c, 3, 55, 100
6, 45700, Note_off_c, 3, 55, 64
6, 45724, Note_on_c, 3, 59, 100
6, 45808, Note_off_c, 3, 59, 64
6, 45808, Note_on_c, 3, 60, 100
6, 45892, Note_off_c, 3, 60, 64
6, 45920, Note_on_c, 3, 62, 100
6, 46000, Note_off_c, 3, 62, 64
6, 46016, Note_on_c, 3, 64, 100
6, 46096, Note_off_c, 3, 64, 64
6, 46108, Note_on_c, 3, 65, 100
6, 46192, Note_off_c, 3, 65, 64
6, 46208, Note_on_c, 3, 67, 100
6, 46288, Note_off_c, 3, 67, 64
6, 46292, Note_on_c, 3, 69, 100
6, 46376, Note_off_c, 3, 69, 64
6, 46400, Note_on_c, 3, 71, 100
6, 46480, Note_off_c, 3, 71, 64
6, 46480, Note_on_c, 3, 72, 100
6, 46564, Note_off_c, 3, 72, 64
6, 46580, Note_on_c, 3, 74, 100
6, 46664, Note_off_c, 3, 74, 64
6, 46672, Note_on_c, 3, 71, 100
6, 46944, Note_off_c, 3, 71, 64
6, 46972, Note_on_c, 3, 72, 100
6, 47056, Note_off_c, 3, 72, 64
6, 47060, Note_on_c, 3, 72, 100
6, 47424, Note_off_c, 3, 72, 64
6, 47640, Note_on_c, 3, 60, 100
6, 47816, Note_off_c, 3, 60, 64
6, 47836, Note_on_c, 3, 64, 100
6, 48012, Note_off_c, 3, 64, 64
6, 48024, Note_on_c, 3, 67, 100
6, 48200, Note_off_c, 3, 67, 64
6, 48208, Note_on_c, 3, 64, 100
6, 48384, Note_off_c, 3, 64, 64
6, 48408, Note_on_c, 3, 60, 100
6, 48584, Note_off_c, 3, 60, 64
6, 48608, Note_on_c, 3, 64, 100
6, 48784, Note_off_c, 3, 64, 64
6, 48796, Note_on_c, 3, 67, 100
6, 48972, Note_off_c, 3, 67, 64
6, 48984, Note_on_c, 3, 64, 100
6, 49160, Note_off_c, 3, 64, 64
6, 49184, Note_on_c, 3, 60, 100
6, 49360, Note_off_c, 3, 60, 64
6, 49376, Note_on_c, 3, 67, 100
6, 49552, Note_off_c, 3, 67, 64
6, 49560, Note_on_c, 3, 67, 100
6, 49644, Note_off_c, 3, 67, 64
6, 49648, Note_on_c, 3, 67, 100
6, 49732, Note_off_c, 3, 67, 64
6, 49744, Note_on_c, 3, 67, 100
6, 49920, Note_off_c, 3, 67, 64
6, 50140, Note_on_c, 3, 67, 100
6, 50224, Note_off_c, 3, 67, 64
6, 50240, Note_on_c, 3, 66, 100
6, 50320, Note_off_c, 3, 66, 64
6, 50320, Note_on_c, 3, 67, 100
6, 50404, Note_off_c, 3, 67, 64
6, 50424, Note_on_c, 3, 69, 100
6, 50508, Note_off_c, 3, 69, 64
6, 50512, Note_on_c, 3, 67, 100
6, 50596, Note_off_c, 3, 67, 64
6, 50620, Note_on_c, 3, 71, 100
6, 50704, Note_off_c, 3, 71, 64
6, 50720, Note_on_c, 3, 67, 100
6, 50800, Note_off_c, 3, 67, 64
6, 50816, Note_on_c, 3, 72, 100
6, 50896, Note_off_c, 3, 72, 64
6, 50900, Note_on_c, 3, 71, 100
6, 50984, Note_off_c, 3, 71, 64
6, 51000, Note_on_c, 3, 69, 100
6, 51084, Note_off_c, 3, 69, 64
6, 51104, Note_on_c, 3, 71, 100
6, 51184, Note_off_c, 3, 71, 64
6, 51200, Note_on_c, 3, 72, 100
6, 51280, Note_off_c, 3, 72, 64
6, 51284, Note_on_c, 3, 71, 100
6, 51368, Note_off_c, 3, 71, 64
6, 51384, Note_on_c, 3, 74, 100
6, 51468, Note_off_c, 3, 74, 64
6, 51484, Note_on_c, 3, 72, 100
6, 51568, Note_off_c, 3, 72, 64
6, 51584, Note_on_c, 3, 76, 100
6, 51664, Note_off_c, 3, 76, 64
6, 51672, Note_on_c, 3, 74, 100
6, 51756, Note_off_c, 3, 74, 64
6, 51760, Note_on_c, 3, 72, 100
6, 51844, Note_off_c, 3, 72, 64
6, 51860, Note_on_c, 3, 74, 100
6, 51944, Note_off_c, 3, 74, 64
6, 51964, Note_on_c, 3, 76, 100
6, 52048, Note_off_c, 3, 76, 64
6, 52060, Note_on_c, 3, 74, 100
6, 52144, Note_off_c, 3, 74, 64
6, 52156, Note_on_c, 3, 76, 100
6, 52240, Note_off_c, 3, 76, 64
6, 52256, Note_on_c, 3, 74, 100
6, 52336, Note_off_c, 3, 74, 64
6, 52344, Note_on_c, 3, 72, 100
6, 52428, Note_off_c, 3, 72, 64
6, 52436, Note_on_c, 3, 71, 100
6, 52520, Note_off_c, 3, 71, 64
6, 52544, Note_on_c, 3, 72, 100
6, 52624, Note_off_c, 3, 72, 64
6, 52628, Note_on_c, 3, 71, 100
6, 52712, Note_off_c, 3, 71, 64
6, 52728, Note_on_c, 3, 69, 100
6, 52812, Note_off_c, 3, 69, 64
6, 52832, Note_on_c, 3, 67, 100
6, 52912, Note_off_c, 3, 67, 64
6, 52920, Note_on_c, 3, 71, 100
6, 53004, Note_off_c, 3, 71, 64
6, 53016, Note_on_c, 3, 69, 100
6, 53100, Note_off_c, 3, 69, 64
6, 53108, Note_on_c, 3, 67, 100
6, 53192, Note_off_c, 3, 67, 64
6, 53208, Note_on_c, 3, 66, 100
6, 53568, Note_off_c, 3, 66, 64
6, 53780, Note_on_c, 3, 64, 100
6, 53956, Note_off_c, 3, 64, 64
6, 53980, Note_on_c, 3, 66, 100
6, 54156, Note_off_c, 3, 66, 64
6, 54556, Note_on_c, 3, 67, 100
6, 54732, Note_off_c, 3, 67, 64
6, 54744, Note_on_c, 3, 69, 100
6, 54920, Note_off_c, 3, 69, 64
6, 55320, Note_on_c, 3, 66, 100
6, 55496, Note_off_c, 3, 66, 64
6, 55516, Note_on_c, 3, 62, 100
6, 55692, Note_off_c, 3, 62, 64
6, 55704, Note_on_c, 3, 62, 100
6, 55880, Note_off_c, 3, 62, 64
6, 55896, Note_on_c, 3, 69, 100
6, 56072, Note_off_c, 3, 69, 64
6, 56088, Note_on_c, 3, 62, 100
6, 56264, Note_off_c, 3, 62, 64
6, 56272, Note_on_c, 3, 67, 100
6, 56448, Note_off_c, 3, 67, 64
6, 56480, Note_on_c, 3, 74, 100
6, 56656, Note_off_c, 3, 74, 64
6, 56656, Note_on_c, 3, 71, 100
6, 56832, Note_off_c, 3, 71, 64
6, 56860, Note_on_c, 3, 67, 100
6, 57036, Note_off_c, 3, 67, 64
6, 57248, Note_on_c, 3, 67, 100
6, 57328, Note_off_c, 3, 67, 64
6, 57328, Note_on_c, 3, 66, 100
6, 57412, Note_off_c, 3, 66, 64
6, 57436, Note_on_c, 3, 67, 100
6, 57612, Note_off_c, 3, 67, 64
6, 57616, Note_on_c, 3, 71, 100
6, 57700, Note_off_c, 3, 71, 64
6, 57716, Note_on_c, 3, 69, 100
6, 57800, Note_off_c, 3, 69, 64
6, 57816, Note_on_c, 3, 71, 100
6, 57992, Note_off_c, 3, 71, 64
6, 59152, Note_on_c, 3, 67, 100
6, 59236, Note_off_c, 3, 67, 64
6, 59256, Note_on_c, 3, 66, 100
6, 59340, Note_off_c, 3, 66, 64
6, 59356, Note_on_c, 3, 67, 100
6, 59532, Note_off_c, 3, 67, 64
6, 59552, Note_on_c, 3, 59, 100
6, 59632, Note_off_c, 3, 59, 64
6, 59644, Note_on_c, 3, 57, 100
6, 59728, Note_off_c, 3, 57, 64
6, 59728, Note_on_c, 3, 59, 100
6, 59904, Note_off_c, 3, 59, 64
6, 59924, Note_on_c, 3, 67, 100
6, 60008, Note_off_c, 3, 67, 64
6, 60020, Note_on_c, 3, 66, 100
6, 60104, Note_off_c, 3, 66, 64
6, 60112, Note_on_c, 3, 67, 100
6, 60288, Note_off_c, 3, 67, 64
6, 60308, Note_on_c, 3, 55, 100
6, 60392, Note_off_c, 3, 55, 64
6, 60416, Note_on_c, 3, 57, 100
6, 60496, Note_off_c, 3, 57, 64
6, 60496, Note_on_c, 3, 59, 100
6, 60672, Note_off_c, 3, 59, 64
6, 60696, Note_on_c, 3, 61, 100
6, 60872, Note_off_c, 3, 61, 64
6, 60892, Note_on_c, 3, 62, 100
6, 61068, Note_off_c, 3, 62, 64
6, 61080, Note_on_c, 3, 74, 100
6, 61164, Note_off_c, 3, 74, 64
6, 61176, Note_on_c, 3, 73, 100
6, 61260, Note_off_c, 3, 73, 64
6, 61280, Note_on_c, 3, 74, 100
6, 61456, Note_off_c, 3, 74, 64
6, 61852, Note_on_c, 3, 62, 100
6, 61936, Note_off_c, 3, 62, 64
6, 61952, Note_on_c, 3, 61, 100
6, 62032, Note_off_c, 3, 61, 64
6, 62032, Note_on_c, 3, 62, 100
6, 62208, Note_off_c, 3, 62, 64
6, 62616, Note_on_c, 3, 69, 100
6, 62792, Note_off_c, 3, 69, 64
6, 62812, Note_on_c, 3, 66, 100
6, 62988, Note_off_c, 3, 66, 64
6, 62992, Note_on_c, 3, 62, 100
6, 63168, Note_off_c, 3, 62, 64
6, 63192, Note_on_c, 3, 67, 100
6, 63368, Note_off_c, 3, 67, 64
6, 63376, Note_on_c, 3, 69, 100
6, 63460, Note_off_c, 3, 69, 64
6, 63476, Note_on_c, 3, 71, 100
6, 63560, Note_off_c, 3, 71, 64
6, 63580, Note_on_c, 3, 72, 100
6, 63756, Note_off_c, 3, 72, 64
6, 63764, Note_on_c, 3, 71, 100
6, 63848, Note_off_c, 3, 71, 64
6, 63860, Note_on_c, 3, 69, 100
6, 63944, Note_off_c, 3, 69, 64
6, 63964, Note_on_c, 3, 67, 100
6, 64140, Note_off_c, 3, 67, 64
6, 64152, Note_on_c, 3, 55, 100
6, 64328, Note_off_c, 3, 55, 64
6, 64352, Note_on_c, 3, 55, 100
6, 64528, Note_off_c, 3, 55, 64
6, 64544, Note_on_c, 3, 67, 100
6, 64720, Note_off_c, 3, 67, 64
6, 64728, Note_on_c, 3, 67, 100
6, 64904, Note_off_c, 3, 67, 64
6, 64912, Note_on_c, 3, 55, 100
6, 65088, Note_off_c, 3, 55, 64
6, 65120, Note_on_c, 3, 55, 100
6, 65296, Note_off_c, 3, 55, 64
6, 65312, Note_on_c, 3, 67, 100
6, 65488, Note_off_c, 3, 67, 64
6, 65500, Note_on_c, 3, 67, 100
6, 65676, Note_off_c, 3, 67, 64
6, 65684, Note_on_c, 3, 55, 100
6, 65860, Note_off_c, 3, 55, 64
6, 65876, Note_on_c, 3, 55, 100
6, 66052, Note_off_c, 3, 55, 64
6, 66068, Note_on_c, 3, 64, 100
6, 66244, Note_off_c, 3, 64, 64
6, 66268, Note_on_c, 3, 62, 100
6, 66444, Note_off_c, 3, 62, 64
6, 66452, Note_on_c, 3, 64, 100
6, 66628, Note_off_c, 3, 64, 64
6, 66644, Note_on_c, 3, 66, 100
6, 66820, Note_off_c, 3, 66, 64
6, 66848, Note_on_c, 3, 64, 100
6, 66928, Note_off_c, 3, 64, 64
6, 66944, Note_on_c, 3, 66, 100
6, 67024, Note_on_c, 3, 66, 100
6, 67036, Note_off_c, 3, 66, 64
6, 67200, Note_off_c, 3, 66, 64
6, 67216, Note_on_c, 3, 67, 100
6, 67392, Note_off_c, 3, 67, 64
6, 67408, Note_on_c, 3, 69, 100
6, 67584, Note_off_c, 3, 69, 64
6, 67612, Note_on_c, 3, 69, 100
6, 67788, Note_off_c, 3, 69, 64
6, 67808, Note_on_c, 3, 67, 100
6, 67984, Note_off_c, 3, 67, 64
6, 67992, Note_on_c, 3, 69, 100
6, 68168, Note_off_c, 3, 69, 64
6, 68180, Note_on_c, 3, 69, 100
6, 68356, Note_off_c, 3, 69, 64
6, 68372, Note_on_c, 3, 69, 100
6, 68548, Note_off_c, 3, 69, 64
6, 68572, Note_on_c, 3, 67, 100
6, 68748, Note_off_c, 3, 67, 64
6, 68764, Note_on_c, 3, 66, 100
6, 68848, Note_off_c, 3, 66, 64
6, 68864, Note_on_c, 3, 64, 100
6, 68944, Note_off_c, 3, 64, 64
6, 68960, Note_on_c, 3, 62, 100
6, 69040, Note_off_c, 3, 62, 64
6, 69052, Note_on_c, 3, 60, 100
6, 69136, Note_off_c, 3, 60, 64
6, 69148, Note_on_c, 3, 59, 100
6, 69232, Note_off_c, 3, 59, 64
6, 69232, Note_on_c, 3, 57, 100
6, 69316, Note_off_c, 3, 57, 64
6, 69332, Note_on_c, 3, 59, 100
6, 69508, Note_off_c, 3, 59, 64
6, 69536, Note_on_c, 3, 57, 100
6, 69616, Note_off_c, 3, 57, 64
6, 69624, Note_on_c, 3, 55, 100
6, 69708, Note_off_c, 3, 55, 64
6, 69724, Note_on_c, 3, 62, 100
6, 69900, Note_off_c, 3, 62, 64
6, 69912, Note_on_c, 3, 50, 100
6, 70088, Note_off_c, 3, 50, 64
6, 70112, Note_on_c, 3, 67, 100
6, 70288, Note_off_c, 3, 67, 64
6, 70300, Note_on_c, 3, 66, 100
6, 70384, Note_off_c, 3, 66, 64
6, 70396, Note_on_c, 3, 64, 100
6, 70480, Note_off_c, 3, 64, 64
6, 70480, Note_on_c, 3, 62, 100
6, 70564, Note_off_c, 3, 62, 64
6, 70588, Note_on_c, 3, 60, 100
6, 70672, Note_off_c, 3, 60, 64
6, 70676, Note_on_c, 3, 59, 100
6, 70760, Note_off_c, 3, 59, 64
6, 70780, Note_on_c, 3, 57, 100
6, 70864, Note_off_c, 3, 57, 64
6, 70876, Note_on_c, 3, 55, 100
6, 71052, Note_off_c, 3, 55, 64
6, 71056, Note_on_c, 3, 55, 100
6, 71232, Note_off_c, 3, 55, 64
6, 71256, Note_on_c, 3, 55, 100
6, 71432, Note_off_c, 3, 55, 64
6, 71448, Note_on_c, 3, 55, 100
6, 71624, Note_off_c, 3, 55, 64
6, 71636, Note_on_c, 3, 55, 100
6, 71812, Note_off_c, 3, 55, 64
6, 71832, Note_on_c, 3, 55, 100
6, 72008, Note_off_c, 3, 55, 64
6, 72020, Note_on_c, 3, 55, 100
6, 72196, Note_off_c, 3, 55, 64
6, 72216, Note_on_c, 3, 55, 100
6, 72392, Note_off_c, 3, 55, 64
6, 72400, Note_on_c, 3, 55, 100
6, 72576, Note_off_c, 3, 55, 64
6, 72608, Note_on_c, 3, 55, 100
6, 72784, Note_off_c, 3, 55, 64
6, 72792, Note_on_c, 3, 55, 100
6, 72968, Note_off_c, 3, 55, 64
6, 72988, Note_on_c, 3, 55, 100
6, 73164, Note_off_c, 3, 55, 64
6, 73168, Note_on_c, 3, 55, 100
6, 73344, Note_off_c, 3, 55, 64
6, 73360, Note_on_c, 3, 55, 100
6, 73536, Note_off_c, 3, 55, 64
6, 73564, Note_on_c, 3, 55, 100
6, 73740, Note_off_c, 3, 55, 64
6, 73752, Note_on_c, 3, 55, 100
6, 73928, Note_off_c, 3, 55, 64
6, 73948, Note_on_c, 3, 55, 100
6, 74124, Note_off_c, 3, 55, 64
6, 74128, Note_on_c, 3, 55, 100
6, 74304, Note_off_c, 3, 55, 64
6, 74324, Note_on_c, 3, 55, 100
6, 74500, Note_off_c, 3, 55, 64
6, 74516, Note_on_c, 3, 55, 100
6, 74692, Note_off_c, 3, 55, 64
6, 74720, Note_on_c, 3, 55, 100
6, 74896, Note_off_c, 3, 55, 64
6, 74912, Note_on_c, 3, 55, 100
6, 75088, Note_off_c, 3, 55, 64
6, 75100, Note_on_c, 3, 55, 100
6, 75276, Note_off_c, 3, 55, 64
6, 75280, Note_on_c, 3, 55, 100
6, 75456, Note_off_c, 3, 55, 64
6, 75476, Note_on_c, 3, 55, 100
6, 75652, Note_off_c, 3, 55, 64
6, 75680, Note_on_c, 3, 55, 100
6, 75856, Note_off_c, 3, 55, 64
6, 75872, Note_on_c, 3, 55, 100
6, 76048, Note_off_c, 3, 55, 64
6, 76052, Note_on_c, 3, 57, 100
6, 76228, Note_off_c, 3, 57, 64
6, 76248, Note_on_c, 3, 57, 100
6, 76332, Note_off_c, 3, 57, 64
6, 76336, Note_on_c, 3, 74, 100
6, 76420, Note_off_c, 3, 74, 64
6, 76432, Note_on_c, 3, 73, 100
6, 76516, Note_off_c, 3, 73, 64
6, 76540, Note_on_c, 3, 71, 100
6, 76624, Note_off_c, 3, 71, 64
6, 76636, Note_on_c, 3, 69, 100
6, 76720, Note_off_c, 3, 69, 64
6, 76728, Note_on_c, 3, 67, 100
6, 76812, Note_off_c, 3, 67, 64
6, 76828, Note_on_c, 3, 66, 100
6, 76912, Note_off_c, 3, 66, 64
6, 76920, Note_on_c, 3, 64, 100
6, 77004, Note_off_c, 3, 64, 64
6, 77020, Note_on_c, 3, 63, 100
6, 77196, Note_off_c, 3, 63, 64
6, 77212, Note_on_c, 3, 63, 100
6, 77388, Note_off_c, 3, 63, 64
6, 77404, Note_on_c, 3, 63, 100
6, 77580, Note_off_c, 3, 63, 64
6, 77600, Note_on_c, 3, 63, 100
6, 77776, Note_off_c, 3, 63, 64
6, 77788, Note_on_c, 3, 66, 100
6, 77964, Note_off_c, 3, 66, 64
6, 77968, Note_on_c, 3, 66, 100
6, 78144, Note_off_c, 3, 66, 64
6, 78168, Note_on_c, 3, 66, 100
6, 78344, Note_off_c, 3, 66, 64
6, 78352, Note_on_c, 3, 66, 100
6, 78528, Note_off_c, 3, 66, 64
6, 78560, Note_on_c, 3, 69, 100
6, 78736, Note_off_c, 3, 69, 64
6, 78752, Note_on_c, 3, 69, 100
6, 78928, Note_off_c, 3, 69, 64
6, 78936, Note_on_c, 3, 69, 100
6, 79112, Note_off_c, 3, 69, 64
6, 79124, Note_on_c, 3, 69, 100
6, 79300, Note_off_c, 3, 69, 64
6, 79312, Note_on_c, 3, 69, 100
6, 79488, Note_off_c, 3, 69, 64
6, 79512, Note_on_c, 3, 69, 100
6, 79688, Note_off_c, 3, 69, 64
6, 79704, Note_on_c, 3, 69, 100
6, 79880, Note_off_c, 3, 69, 64
6, 79900, Note_on_c, 3, 69, 100
6, 80076, Note_off_c, 3, 69, 64
6, 80080, Note_on_c, 3, 63, 100
6, 80256, Note_off_c, 3, 63, 64
6, 80276, Note_on_c, 3, 63, 100
6, 80452, Note_off_c, 3, 63, 64
6, 80476, Note_on_c, 3, 63, 100
6, 80652, Note_off_c, 3, 63, 64
6, 80664, Note_on_c, 3, 63, 100
6, 80840, Note_off_c, 3, 63, 64
6, 80864, Note_on_c, 3, 59, 100
6, 81040, Note_off_c, 3, 59, 64
6, 81052, Note_on_c, 3, 59, 100
6, 81228, Note_off_c, 3, 59, 64
6, 81232, Note_on_c, 3, 59, 100
6, 81408, Note_off_c, 3, 59, 64
6, 81424, Note_on_c, 3, 59, 100
6, 81600, Note_off_c, 3, 59, 64
6, 81624, Note_on_c, 3, 59, 100
6, 81984, Note_off_c, 3, 59, 64
6, 82196, Note_on_c, 3, 67, 100
6, 82280, Note_off_c, 3, 67, 64
6, 82296, Note_on_c, 3, 66, 100
6, 82380, Note_off_c, 3, 66, 64
6, 82392, Note_on_c, 3, 67, 100
6, 82568, Note_off_c, 3, 67, 64
6, 82592, Note_on_c, 3, 64, 100
6, 82672, Note_off_c, 3, 64, 64
6, 82676, Note_on_c, 3, 63, 100
6, 82760, Note_off_c, 3, 63, 64
6, 82772, Note_on_c, 3, 64, 100
6, 82948, Note_off_c, 3, 64, 64
6, 83360, Note_on_c, 3, 52, 100
6, 83440, Note_off_c, 3, 52, 64
6, 83452, Note_on_c, 3, 54, 100
6, 83536, Note_off_c, 3, 54, 64
6, 83544, Note_on_c, 3, 55, 100
6, 83720, Note_off_c, 3, 55, 64
6, 83740, Note_on_c, 3, 57, 100
6, 83916, Note_off_c, 3, 57, 64
6, 83920, Note_on_c, 3, 59, 100
6, 84284, Note_off_c, 3, 59, 64
6, 84884, Note_on_c, 3, 69, 100
6, 84968, Note_off_c, 3, 69, 64
6, 84992, Note_on_c, 3, 67, 100
6, 85072, Note_off_c, 3, 67, 64
6, 85084, Note_on_c, 3, 69, 100
6, 85260, Note_off_c, 3, 69, 64
6, 85280, Note_on_c, 3, 72, 100
6, 85360, Note_off_c, 3, 72, 64
6, 85376, Note_on_c, 3, 71, 100
6, 85456, Note_off_c, 3, 71, 64
6, 85456, Note_on_c, 3, 72, 100
6, 85632, Note_off_c, 3, 72, 64
6, 85660, Note_on_c, 3, 63, 100
6, 85744, Note_off_c, 3, 63, 64
6, 85756, Note_on_c, 3, 61, 100
6, 85840, Note_off_c, 3, 61, 64
6, 85840, Note_on_c, 3, 63, 100
6, 86016, Note_off_c, 3, 63, 64
6, 86048, Note_on_c, 3, 71, 100
6, 86224, Note_off_c, 3, 71, 64
6, 86224, Note_on_c, 3, 67, 100
6, 86400, Note_off_c, 3, 67, 64
6, 86432, Note_on_c, 3, 66, 100
6, 86512, Note_off_c, 3, 66, 64
6, 86524, Note_on_c, 3, 64, 100
6, 86608, Note_off_c, 3, 64, 64
6, 86620, Note_on_c, 3, 66, 100
6, 86796, Note_off_c, 3, 66, 64
6, 86812, Note_on_c, 3, 64, 100
6, 86896, Note_off_c, 3, 64, 64
6, 86908, Note_on_c, 3, 63, 100
6, 86992, Note_off_c, 3, 63, 64
6, 87004, Note_on_c, 3, 72, 100
6, 87272, Note_off_c, 3, 72, 64
6, 87280, Note_on_c, 3, 71, 100
6, 87364, Note_off_c, 3, 71, 64
6, 87384, Note_on_c, 3, 69, 100
6, 87468, Note_off_c, 3, 69, 64
6, 87488, Note_on_c, 3, 67, 100
6, 87568, Note_off_c, 3, 67, 64
6, 87568, Note_on_c, 3, 66, 100
6, 87652, Note_off_c, 3, 66, 64
6, 87668, Note_on_c, 3, 64, 100
6, 87752, Note_off_c, 3, 64, 64
6, 87776, Note_on_c, 3, 66, 100
6, 87952, Note_off_c, 3, 66, 64
6, 87964, Note_on_c, 3, 71, 100
6, 88140, Note_off_c, 3, 71, 64
6, 88160, Note_on_c, 3, 69, 100
6, 88336, Note_off_c, 3, 69, 64
6, 88344, Note_on_c, 3, 67, 100
6, 88428, Note_off_c, 3, 67, 64
6, 88440, Note_on_c, 3, 66, 100
6, 88524, Note_off_c, 3, 66, 64
6, 88536, Note_on_c, 3, 67, 100
6, 88620, Note_off_c, 3, 67, 64
6, 88636, Note_on_c, 3, 71, 100
6, 88720, Note_off_c, 3, 71, 64
6, 88736, Note_on_c, 3, 64, 100
6, 88816, Note_off_c, 3, 64, 64
6, 88824, Note_on_c, 3, 66, 100
6, 88908, Note_off_c, 3, 66, 64
6, 88916, Note_on_c, 3, 67, 100
6, 89000, Note_off_c, 3, 67, 64
6, 89008, Note_on_c, 3, 69, 100
6, 89092, Note_off_c, 3, 69, 64
6, 89112, Note_on_c, 3, 71, 100
6, 89196, Note_off_c, 3, 71, 64
6, 89212, Note_on_c, 3, 69, 100
6, 89296, Note_off_c, 3, 69, 64
6, 89304, Note_on_c, 3, 67, 100
6, 89480, Note_off_c, 3, 67, 64
6, 89492, Note_on_c, 3, 76, 100
6, 89668, Note_off_c, 3, 76, 64
6, 89888, Note_on_c, 3, 75, 100
6, 90064, Note_off_c, 3, 75, 64
6, 90076, Note_on_c, 3, 76, 100
6, 90252, Note_off_c, 3, 76, 64
6, 90264, Note_on_c, 3, 71, 100
6, 90440, Note_off_c, 3, 71, 64
6, 90452, Note_on_c, 3, 64, 100
6, 90628, Note_off_c, 3, 64, 64
6, 90644, Note_on_c, 3, 66, 100
6, 90820, Note_off_c, 3, 66, 64
6, 90832, Note_on_c, 3, 67, 100
6, 91008, Note_off_c, 3, 67, 64
6, 91036, Note_on_c, 3, 64, 100
6, 91212, Note_off_c, 3, 64, 64
6, 91232, Note_on_c, 3, 59, 100
6, 91408, Note_off_c, 3, 59, 64
6, 91408, Note_on_c, 3, 64, 100
6, 91584, Note_off_c, 3, 64, 64
6, 91612, Note_on_c, 3, 69, 100
6, 91788, Note_off_c, 3, 69, 64
6, 91792, Note_on_c, 3, 69, 100
6, 91876, Note_off_c, 3, 69, 64
6, 91888, Note_on_c, 3, 68, 100
6, 91972, Note_off_c, 3, 68, 64
6, 91984, Note_on_c, 3, 69, 100
6, 92160, Note_off_c, 3, 69, 64
6, 92564, Note_on_c, 3, 69, 100
6, 92648, Note_off_c, 3, 69, 64
6, 92668, Note_on_c, 3, 68, 100
6, 92752, Note_off_c, 3, 68, 64
6, 92752, Note_on_c, 3, 69, 100
6, 92928, Note_off_c, 3, 69, 64
6, 93332, Note_on_c, 3, 69, 100
6, 93416, Note_off_c, 3, 69, 64
6, 93428, Note_on_c, 3, 68, 100
6, 93512, Note_off_c, 3, 68, 64
6, 93532, Note_on_c, 3, 69, 100
6, 93708, Note_off_c, 3, 69, 64
6, 94100, Note_on_c, 3, 69, 100
6, 94184, Note_off_c, 3, 69, 64
6, 94208, Note_on_c, 3, 71, 100
6, 94288, Note_off_c, 3, 71, 64
6, 94304, Note_on_c, 3, 73, 100
6, 94480, Note_off_c, 3, 73, 64
6, 94488, Note_on_c, 3, 76, 100
6, 94664, Note_off_c, 3, 76, 64
6, 94680, Note_on_c, 3, 69, 100
6, 95040, Note_off_c, 3, 69, 64
6, 95264, Note_on_c, 3, 74, 100
6, 95344, Note_off_c, 3, 74, 64
6, 95352, Note_on_c, 3, 73, 100
6, 95436, Note_off_c, 3, 73, 64
6, 95440, Note_on_c, 3, 74, 100
6, 95616, Note_off_c, 3, 74, 64
6, 96020, Note_on_c, 3, 74, 100
6, 96104, Note_off_c, 3, 74, 64
6, 96116, Note_on_c, 3, 73, 100
6, 96200, Note_off_c, 3, 73, 64
6, 96216, Note_on_c, 3, 74, 100
6, 96392, Note_off_c, 3, 74, 64
6, 96788, Note_on_c, 3, 74, 100
6, 96872, Note_off_c, 3, 74, 64
6, 96880, Note_on_c, 3, 73, 100
6, 96964, Note_off_c, 3, 73, 64
6, 96976, Note_on_c, 3, 74, 100
6, 97152, Note_off_c, 3, 74, 64
6, 98336, Note_on_c, 3, 69, 100
6, 98512, Note_off_c, 3, 69, 64
6, 98520, Note_on_c, 3, 59, 100
6, 98604, Note_off_c, 3, 59, 64
6, 98620, Note_on_c, 3, 62, 100
6, 98704, Note_off_c, 3, 62, 64
6, 98712, Note_on_c, 3, 55, 100
6, 98796, Note_off_c, 3, 55, 64
6, 98800, Note_on_c, 3, 57, 100
6, 98884, Note_off_c, 3, 57, 64
6, 98912, Note_on_c, 3, 59, 100
6, 98992, Note_off_c, 3, 59, 64
6, 98992, Note_on_c, 3, 60, 100
6, 99076, Note_off_c, 3, 60, 64
6, 99100, Note_on_c, 3, 62, 100
6, 99184, Note_off_c, 3, 62, 64
6, 99192, Note_on_c, 3, 60, 100
6, 99276, Note_off_c, 3, 60, 64
6, 99292, Note_on_c, 3, 59, 100
6, 99468, Note_off_c, 3, 59, 64
6, 99480, Note_on_c, 3, 67, 100
6, 99564, Note_off_c, 3, 67, 64
6, 99576, Note_on_c, 3, 66, 100
6, 99660, Note_off_c, 3, 66, 64
6, 99680, Note_on_c, 3, 67, 100
6, 99856, Note_off_c, 3, 67, 64
6, 100636, Note_on_c, 3, 71, 100
6, 100720, Note_off_c, 3, 71, 64
6, 100724, Note_on_c, 3, 69, 100
6, 100808, Note_off_c, 3, 69, 64
6, 100820, Note_on_c, 3, 71, 100
6, 100996, Note_off_c, 3, 71, 64
6, 101016, Note_on_c, 3, 67, 100
6, 101100, Note_off_c, 3, 67, 64
6, 101116, Note_on_c, 3, 66, 100
6, 101200, Note_off_c, 3, 66, 64
6, 101200, Note_on_c, 3, 67, 100
6, 101284, Note_off_c, 3, 67, 64
6, 101308, Note_on_c, 3, 69, 100
6, 101392, Note_off_c, 3, 69, 64
6, 101404, Note_on_c, 3, 67, 100
6, 101488, Note_off_c, 3, 67, 64
6, 101488, Note_on_c, 3, 66, 100
6, 101572, Note_off_c, 3, 66, 64
6, 101596, Note_on_c, 3, 64, 100
6, 101772, Note_off_c, 3, 64, 64
6, 101784, Note_on_c, 3, 64, 100
6, 101960, Note_off_c, 3, 64, 64
6, 101984, Note_on_c, 3, 64, 100
6, 102160, Note_off_c, 3, 64, 64
6, 102164, Note_on_c, 3, 64, 100
6, 102340, Note_off_c, 3, 64, 64
6, 102356, Note_on_c, 3, 64, 100
6, 102532, Note_off_c, 3, 64, 64
6, 102556, Note_on_c, 3, 64, 100
6, 102732, Note_off_c, 3, 64, 64
6, 102736, Note_on_c, 3, 64, 100
6, 102912, Note_off_c, 3, 64, 64
6, 102932, Note_on_c, 3, 64, 100
6, 103108, Note_off_c, 3, 64, 64
6, 103120, Note_on_c, 3, 64, 100
6, 103296, Note_off_c, 3, 64, 64
6, 103324, Note_on_c, 3, 64, 100
6, 103500, Note_off_c, 3, 64, 64
6, 103520, Note_on_c, 3, 64, 100
6, 103696, Note_off_c, 3, 64, 64
6, 103708, Note_on_c, 3, 64, 100
6, 103884, Note_off_c, 3, 64, 64
6, 103904, Note_on_c, 3, 64, 100
6, 104080, Note_off_c, 3, 64, 64
6, 104092, Note_on_c, 3, 64, 100
6, 104268, Note_off_c, 3, 64, 64
6, 104276, Note_on_c, 3, 64, 100
6, 104452, Note_off_c, 3, 64, 64
6, 104480, Note_on_c, 3, 64, 100
6, 104656, Note_off_c, 3, 64, 64
6, 104664, Note_on_c, 3, 58, 100
6, 104840, Note_off_c, 3, 58, 64
6, 104864, Note_on_c, 3, 58, 100
6, 105040, Note_on_c, 3, 58, 100
6, 105044, Note_off_c, 3, 58, 64
6, 105224, Note_off_c, 3, 58, 64
6, 105240, Note_on_c, 3, 58, 100
6, 105416, Note_off_c, 3, 58, 64
6, 105436, Note_on_c, 3, 54, 100
6, 105612, Note_off_c, 3, 54, 64
6, 105616, Note_on_c, 3, 54, 100
6, 105792, Note_off_c, 3, 54, 64
6, 105808, Note_on_c, 3, 54, 100
6, 105984, Note_off_c, 3, 54, 64
6, 106008, Note_on_c, 3, 54, 100
6, 106184, Note_off_c, 3, 54, 64
6, 106204, Note_on_c, 3, 59, 100
6, 106380, Note_off_c, 3, 59, 64
6, 106384, Note_on_c, 3, 74, 100
6, 106560, Note_off_c, 3, 74, 64
6, 106580, Note_on_c, 3, 71, 100
6, 106756, Note_off_c, 3, 71, 64
6, 106784, Note_on_c, 3, 66, 100
6, 106960, Note_off_c, 3, 66, 64
6, 106960, Note_on_c, 3, 71, 100
6, 107136, Note_off_c, 3, 71, 64
6, 107168, Note_on_c, 3, 74, 100
6, 107344, Note_off_c, 3, 74, 64
6, 107344, Note_on_c, 3, 71, 100
6, 107520, Note_off_c, 3, 71, 64
6, 107540, Note_on_c, 3, 66, 100
6, 107716, Note_off_c, 3, 66, 64
6, 107736, Note_on_c, 3, 71, 100
6, 107912, Note_off_c, 3, 71, 64
6, 107936, Note_on_c, 3, 74, 100
6, 108016, Note_off_c, 3, 74, 64
6, 108024, Note_on_c, 3, 73, 100
6, 108108, Note_off_c, 3, 73, 64
6, 108112, Note_on_c, 3, 71, 100
6, 108288, Note_off_c, 3, 71, 64
6, 108308, Note_on_c, 3, 69, 100
6, 108392, Note_off_c, 3, 69, 64
6, 108416, Note_on_c, 3, 67, 100
6, 108496, Note_off_c, 3, 67, 64
6, 108508, Note_on_c, 3, 66, 100
6, 108684, Note_off_c, 3, 66, 64
6, 108700, Note_on_c, 3, 64, 100
6, 108784, Note_off_c, 3, 64, 64
6, 108800, Note_on_c, 3, 62, 100
6, 108880, Note_off_c, 3, 62, 64
6, 108896, Note_on_c, 3, 61, 100
6, 109072, Note_off_c, 3, 61, 64
6, 109072, Note_on_c, 3, 70, 100
6, 109248, Note_off_c, 3, 70, 64
6, 109264, Note_on_c, 3, 71, 100
6, 109440, Note_off_c, 3, 71, 64
6, 109464, Note_on_c, 3, 59, 100
6, 109640, Note_off_c, 3, 59, 64
6, 109664, Note_on_c, 3, 59, 100
6, 109840, Note_off_c, 3, 59, 64
6, 109852, Note_on_c, 3, 71, 100
6, 110028, Note_off_c, 3, 71, 64
6, 110036, Note_on_c, 3, 71, 100
6, 110212, Note_off_c, 3, 71, 64
6, 110232, Note_on_c, 3, 59, 100
6, 110408, Note_off_c, 3, 59, 64
6, 110420, Note_on_c, 3, 59, 100
6, 110596, Note_off_c, 3, 59, 64
6, 110612, Note_on_c, 3, 71, 100
6, 110788, Note_off_c, 3, 71, 64
6, 110800, Note_on_c, 3, 66, 100
6, 110976, Note_off_c, 3, 66, 64
6, 111004, Note_on_c, 3, 64, 100
6, 111088, Note_off_c, 3, 64, 64
6, 111104, Note_on_c, 3, 62, 100
6, 111184, Note_off_c, 3, 62, 64
6, 111188, Note_on_c, 3, 64, 100
6, 111364, Note_off_c, 3, 64, 64
6, 111392, Note_on_c, 3, 62, 100
6, 111472, Note_off_c, 3, 62, 64
6, 111484, Note_on_c, 3, 61, 100
6, 111568, Note_off_c, 3, 61, 64
6, 111580, Note_on_c, 3, 67, 100
6, 111848, Note_off_c, 3, 67, 64
6, 111868, Note_on_c, 3, 66, 100
6, 111952, Note_off_c, 3, 66, 64
6, 111968, Note_on_c, 3, 64, 100
6, 112048, Note_off_c, 3, 64, 64
6, 112060, Note_on_c, 3, 62, 100
6, 112144, Note_off_c, 3, 62, 64
6, 112148, Note_on_c, 3, 61, 100
6, 112232, Note_off_c, 3, 61, 64
6, 112244, Note_on_c, 3, 59, 100
6, 112328, Note_off_c, 3, 59, 64
6, 112340, Note_on_c, 3, 71, 100
6, 112516, Note_off_c, 3, 71, 64
6, 112544, Note_on_c, 3, 71, 100
6, 112720, Note_off_c, 3, 71, 64
6, 112720, Note_on_c, 3, 66, 100
6, 112896, Note_off_c, 3, 66, 64
6, 112920, Note_on_c, 3, 66, 100
6, 113096, Note_off_c, 3, 66, 64
6, 113112, Note_on_c, 3, 66, 100
6, 113472, Note_off_c, 3, 66, 64
6, 114072, Note_on_c, 3, 66, 100
6, 114156, Note_off_c, 3, 66, 64
6, 114172, Note_on_c, 3, 64, 100
6, 114256, Note_off_c, 3, 64, 64
6, 114260, Note_on_c, 3, 66, 100
6, 114436, Note_off_c, 3, 66, 64
6, 114448, Note_on_c, 3, 71, 100
6, 114532, Note_off_c, 3, 71, 64
6, 114544, Note_on_c, 3, 70, 100
6, 114628, Note_off_c, 3, 70, 64
6, 114652, Note_on_c, 3, 71, 100
6, 114828, Note_off_c, 3, 71, 64
6, 115604, Note_on_c, 3, 71, 100
6, 115688, Note_off_c, 3, 71, 64
6, 115712, Note_on_c, 3, 70, 100
6, 115792, Note_off_c, 3, 70, 64
6, 115800, Note_on_c, 3, 71, 100
6, 115976, Note_off_c, 3, 71, 64
6, 115988, Note_on_c, 3, 71, 100
6, 116164, Note_off_c, 3, 71, 64
6, 116180, Note_on_c, 3, 71, 100
6, 116356, Note_off_c, 3, 71, 64
6, 116384, Note_on_c, 3, 70, 100
6, 116464, Note_off_c, 3, 70, 64
6, 116464, Note_on_c, 3, 68, 100
6, 116548, Note_off_c, 3, 68, 64
6, 116572, Note_on_c, 3, 70, 100
6, 116748, Note_off_c, 3, 70, 64
6, 116764, Note_on_c, 3, 71, 100
6, 116848, Note_off_c, 3, 71, 64
6, 116852, Note_on_c, 3, 64, 100
6, 116936, Note_off_c, 3, 64, 64
6, 116944, Note_on_c, 3, 59, 100
6, 117120, Note_off_c, 3, 59, 64
6, 117152, Note_on_c, 3, 67, 100
6, 117328, Note_off_c, 3, 67, 64
6, 117340, Note_on_c, 3, 61, 100
6, 117516, Note_off_c, 3, 61, 64
6, 117520, Note_on_c, 3, 66, 100
6, 117696, Note_off_c, 3, 66, 64
6, 117716, Note_on_c, 3, 62, 100
6, 118080, Note_off_c, 3, 62, 64
6, 118492, Note_on_c, 3, 55, 100
6, 118668, Note_off_c, 3, 55, 64
6, 118688, Note_on_c, 3, 54, 100
6, 118864, Note_off_c, 3, 54, 64
6, 118868, Note_on_c, 3, 55, 100
6, 119044, Note_off_c, 3, 55, 64
6, 119068, Note_on_c, 3, 57, 100
6, 119244, Note_off_c, 3, 57, 64
6, 119252, Note_on_c, 3, 59, 100
6, 119428, Note_off_c, 3, 59, 64
6, 119456, Note_on_c, 3, 60, 100
6, 119632, Note_off_c, 3, 60, 64
6, 119632, Note_on_c, 3, 59, 100
6, 119808, Note_off_c, 3, 59, 64
6, 119824, Note_on_c, 3, 57, 100
6, 120000, Note_off_c, 3, 57, 64
6, 120020, Note_on_c, 3, 55, 100
6, 120196, Note_off_c, 3, 55, 64
6, 120220, Note_on_c, 3, 54, 100
6, 120396, Note_off_c, 3, 54, 64
6, 120408, Note_on_c, 3, 52, 100
6, 120584, Note_off_c, 3, 52, 64
6, 120596, Note_on_c, 3, 57, 100
6, 120772, Note_off_c, 3, 57, 64
6, 120788, Note_on_c, 3, 62, 100
6, 120964, Note_off_c, 3, 62, 64
6, 120984, Note_on_c, 3, 50, 100
6, 121160, Note_off_c, 3, 50, 64
6, 121168, Note_on_c, 3, 54, 100
6, 121344, Note_off_c, 3, 54, 64
6, 121376, Note_on_c, 3, 57, 100
6, 121552, Note_off_c, 3, 57, 64
6, 121560, Note_on_c, 3, 62, 100
6, 121920, Note_off_c, 3, 62, 64
6, 127128, Note_on_c, 3, 67, 100
6, 127212, Note_off_c, 3, 67, 64
6, 127220, Note_on_c, 3, 66, 100
6, 127304, Note_off_c, 3, 66, 64
6, 127316, Note_on_c, 3, 67, 100
6, 127492, Note_off_c, 3, 67, 64
6, 128668, Note_on_c, 3, 64, 100
6, 128752, Note_off_c, 3, 64, 64
6, 128752, Note_on_c, 3, 63, 100
6, 128836, Note_off_c, 3, 63, 64
6, 128856, Note_on_c, 3, 64, 100
6, 129032, Note_off_c, 3, 64, 64
6, 130580, Note_on_c, 3, 67, 100
6, 130664, Note_off_c, 3, 67, 64
6, 130688, Note_on_c, 3, 66, 100
6, 130768, Note_off_c, 3, 66, 64
6, 130784, Note_on_c, 3, 67, 100
6, 130960, Note_off_c, 3, 67, 64
6, 130960, Note_on_c, 3, 62, 100
6, 131044, Note_off_c, 3, 62, 64
6, 131064, Note_on_c, 3, 60, 100
6, 131148, Note_off_c, 3, 60, 64
6, 131168, Note_on_c, 3, 62, 100
6, 131344, Note_off_c, 3, 62, 64
6, 131356, Note_on_c, 3, 67, 100
6, 131440, Note_off_c, 3, 67, 64
6, 131448, Note_on_c, 3, 66, 100
6, 131532, Note_off_c, 3, 66, 64
6, 131548, Note_on_c, 3, 67, 100
6, 131724, Note_off_c, 3, 67, 64
6, 131732, Note_on_c, 3, 59, 100
6, 131816, Note_off_c, 3, 59, 64
6, 131840, Note_on_c, 3, 57, 100
6, 131920, Note_off_c, 3, 57, 64
6, 131924, Note_on_c, 3, 59, 100
6, 132100, Note_off_c, 3, 59, 64
6, 132112, Note_on_c, 3, 67, 100
6, 132196, Note_off_c, 3, 67, 64
6, 132224, Note_on_c, 3, 66, 100
6, 132304, Note_off_c, 3, 66, 64
6, 132320, Note_on_c, 3, 67, 100
6, 132496, Note_off_c, 3, 67, 64
6, 132504, Note_on_c, 3, 55, 100
6, 132588, Note_off_c, 3, 55, 64
6, 132608, Note_on_c, 3, 57, 100
6, 132688, Note_off_c, 3, 57, 64
6, 132692, Note_on_c, 3, 59, 100
6, 132868, Note_off_c, 3, 59, 64
6, 132896, Note_on_c, 3, 61, 100
6, 133072, Note_off_c, 3, 61, 64
6, 133088, Note_on_c, 3, 62, 100
6, 133168, Note_off_c, 3, 62, 64
6, 133184, Note_on_c, 3, 72, 100
6, 133264, Note_off_c, 3, 72, 64
6, 133268, Note_on_c, 3, 62, 100
6, 133352, Note_off_c, 3, 62, 64
6, 133364, Note_on_c, 3, 72, 100
6, 133448, Note_off_c, 3, 72, 64
6, 133472, Note_on_c, 3, 62, 100
6, 133552, Note_off_c, 3, 62, 64
6, 133556, Note_on_c, 3, 72, 100
6, 133640, Note_off_c, 3, 72, 64
6, 133648, Note_on_c, 3, 62, 100
6, 133732, Note_off_c, 3, 62, 64
6, 133748, Note_on_c, 3, 72, 100
6, 133832, Note_off_c, 3, 72, 64
6, 133840, Note_on_c, 3, 62, 100
6, 133924, Note_off_c, 3, 62, 64
6, 133952, Note_on_c, 3, 71, 100
6, 134032, Note_off_c, 3, 71, 64
6, 134040, Note_on_c, 3, 62, 100
6, 134124, Note_off_c, 3, 62, 64
6, 134144, Note_on_c, 3, 71, 100
6, 134224, Note_off_c, 3, 71, 64
6, 134232, Note_on_c, 3, 62, 100
6, 134316, Note_off_c, 3, 62, 64
6, 134332, Note_on_c, 3, 71, 100
6, 134416, Note_off_c, 3, 71, 64
6, 134420, Note_on_c, 3, 62, 100
6, 134504, Note_off_c, 3, 62, 64
6, 134516, Note_on_c, 3, 71, 100
6, 134600, Note_off_c, 3, 71, 64
6, 134616, Note_on_c, 3, 64, 100
6, 134700, Note_off_c, 3, 64, 64
6, 134720, Note_on_c, 3, 70, 100
6, 134800, Note_off_c, 3, 70, 64
6, 134804, Note_on_c, 3, 64, 100
6, 134888, Note_off_c, 3, 64, 64
6, 134900, Note_on_c, 3, 70, 100
6, 134984, Note_off_c, 3, 70, 64
6, 135004, Note_on_c, 3, 64, 100
6, 135088, Note_off_c, 3, 64, 64
6, 135104, Note_on_c, 3, 70, 100
6, 135184, Note_off_c, 3, 70, 64
6, 135184, Note_on_c, 3, 64, 100
6, 135268, Note_off_c, 3, 64, 64
6, 135296, Note_on_c, 3, 70, 100
6, 135376, Note_off_c, 3, 70, 64
6, 135380, Note_on_c, 3, 66, 100
6, 135464, Note_off_c, 3, 66, 64
6, 135476, Note_on_c, 3, 70, 100
6, 135560, Note_off_c, 3, 70, 64
6, 135572, Note_on_c, 3, 66, 100
6, 135656, Note_off_c, 3, 66, 64
6, 135668, Note_on_c, 3, 70, 100
6, 135752, Note_off_c, 3, 70, 64
6, 135760, Note_on_c, 3, 66, 100
6, 135844, Note_off_c, 3, 66, 64
6, 135864, Note_on_c, 3, 70, 100
6, 135948, Note_off_c, 3, 70, 64
6, 135968, Note_on_c, 3, 66, 100
6, 136048, Note_off_c, 3, 66, 64
6, 136060, Note_on_c, 3, 70, 100
6, 136144, Note_off_c, 3, 70, 64
6, 136156, Note_on_c, 3, 66, 100
6, 136240, Note_off_c, 3, 66, 64
6, 136248, Note_on_c, 3, 69, 100
6, 136332, Note_off_c, 3, 69, 64
6, 136340, Note_on_c, 3, 66, 100
6, 136424, Note_off_c, 3, 66, 64
6, 136432, Note_on_c, 3, 69, 100
6, 136516, Note_off_c, 3, 69, 64
6, 136540, Note_on_c, 3, 66, 100
6, 136624, Note_off_c, 3, 66, 64
6, 136632, Note_on_c, 3, 69, 100
6, 136716, Note_off_c, 3, 69, 64
6, 136736, Note_on_c, 3, 66, 100
6, 136816, Note_off_c, 3, 66, 64
6, 136828, Note_on_c, 3, 69, 100
6, 136912, Note_off_c, 3, 69, 64
6, 136920, Note_on_c, 3, 64, 100
6, 137004, Note_off_c, 3, 64, 64
6, 137008, Note_on_c, 3, 68, 100
6, 137092, Note_off_c, 3, 68, 64
6, 137116, Note_on_c, 3, 64, 100
6, 137200, Note_off_c, 3, 64, 64
6, 137208, Note_on_c, 3, 68, 100
6, 137292, Note_off_c, 3, 68, 64
6, 137300, Note_on_c, 3, 64, 100
6, 137384, Note_off_c, 3, 64, 64
6, 137404, Note_on_c, 3, 68, 100
6, 137488, Note_off_c, 3, 68, 64
6, 137492, Note_on_c, 3, 64, 100
6, 137576, Note_off_c, 3, 64, 64
6, 137592, Note_on_c, 3, 68, 100
6, 137676, Note_off_c, 3, 68, 64
6, 137692, Note_on_c, 3, 64, 100
6, 137776, Note_off_c, 3, 64, 64
6, 137776, Note_on_c, 3, 69, 100
6, 137860, Note_off_c, 3, 69, 64
6, 137884, Note_on_c, 3, 64, 100
6, 137968, Note_off_c, 3, 64, 64
6, 137968, Note_on_c, 3, 69, 100
6, 138052, Note_off_c, 3, 69, 64
6, 138076, Note_on_c, 3, 64, 100
6, 138160, Note_off_c, 3, 64, 64
6, 138164, Note_on_c, 3, 69, 100
6, 138248, Note_off_c, 3, 69, 64
6, 138264, Note_on_c, 3, 64, 100
6, 138348, Note_off_c, 3, 64, 64
6, 138360, Note_on_c, 3, 69, 100
6, 138444, Note_off_c, 3, 69, 64
6, 138448, Note_on_c, 3, 62, 100
6, 138624, Note_off_c, 3, 62, 64
6, 138640, Note_on_c, 3, 62, 100
6, 138816, Note_off_c, 3, 62, 64
6, 138844, Note_on_c, 3, 62, 100
6, 139020, Note_off_c, 3, 62, 64
6, 139036, Note_on_c, 3, 62, 100
6, 139212, Note_off_c, 3, 62, 64
6, 139224, Note_on_c, 3, 62, 100
6, 139400, Note_off_c, 3, 62, 64
6, 139424, Note_on_c, 3, 62, 100
6, 139600, Note_off_c, 3, 62, 64
6, 139612, Note_on_c, 3, 62, 100
6, 139788, Note_off_c, 3, 62, 64
6, 139804, Note_on_c, 3, 62, 100
6, 139980, Note_off_c, 3, 62, 64
6, 139996, Note_on_c, 3, 63, 100
6, 140172, Note_off_c, 3, 63, 64
6, 140184, Note_on_c, 3, 63, 100
6, 140360, Note_off_c, 3, 63, 64
6, 140380, Note_on_c, 3, 63, 100
6, 140556, Note_off_c, 3, 63, 64
6, 140568, Note_on_c, 3, 63, 100
6, 140744, Note_off_c, 3, 63, 64
6, 140756, Note_on_c, 3, 63, 100
6, 140932, Note_off_c, 3, 63, 64
6, 140944, Note_on_c, 3, 63, 100
6, 141120, Note_off_c, 3, 63, 64
6, 141152, Note_on_c, 3, 63, 100
6, 141328, Note_off_c, 3, 63, 64
6, 141340, Note_on_c, 3, 63, 100
6, 141516, Note_off_c, 3, 63, 64
6, 141536, Note_on_c, 3, 64, 100
6, 141712, Note_off_c, 3, 64, 64
6, 141728, Note_on_c, 3, 64, 100
6, 141904, Note_off_c, 3, 64, 64
6, 141916, Note_on_c, 3, 64, 100
6, 142092, Note_off_c, 3, 64, 64
6, 142104, Note_on_c, 3, 64, 100
6, 142280, Note_off_c, 3, 64, 64
6, 142300, Note_on_c, 3, 64, 100
6, 142476, Note_off_c, 3, 64, 64
6, 142492, Note_on_c, 3, 64, 100
6, 142668, Note_off_c, 3, 64, 64
6, 142672, Note_on_c, 3, 64, 100
6, 142848, Note_off_c, 3, 64, 64
6, 142872, Note_on_c, 3, 64, 100
6, 143048, Note_off_c, 3, 64, 64
6, 143072, Note_on_c, 3, 63, 100
6, 143248, Note_off_c, 3, 63, 64
6, 143256, Note_on_c, 3, 63, 100
6, 143432, Note_off_c, 3, 63, 64
6, 143448, Note_on_c, 3, 63, 100
6, 143624, Note_off_c, 3, 63, 64
6, 143640, Note_on_c, 3, 63, 100
6, 143816, Note_off_c, 3, 63, 64
6, 143840, Note_on_c, 3, 63, 100
6, 144016, Note_off_c, 3, 63, 64
6, 144020, Note_on_c, 3, 63, 100
6, 144196, Note_off_c, 3, 63, 64
6, 144224, Note_on_c, 3, 63, 100
6, 144400, Note_off_c, 3, 63, 64
6, 144412, Note_on_c, 3, 63, 100
6, 144588, Note_off_c, 3, 63, 64
6, 144600, Note_on_c, 3, 64, 100
6, 144776, Note_off_c, 3, 64, 64
6, 144788, Note_on_c, 3, 64, 100
6, 144964, Note_off_c, 3, 64, 64
6, 144980, Note_on_c, 3, 64, 100
6, 145156, Note_off_c, 3, 64, 64
6, 145180, Note_on_c, 3, 64, 100
6, 145356, Note_off_c, 3, 64, 64
6, 145376, Note_on_c, 3, 64, 100
6, 145552, Note_off_c, 3, 64, 64
6, 145568, Note_on_c, 3, 64, 100
6, 145744, Note_off_c, 3, 64, 64
6, 145752, Note_on_c, 3, 64, 100
6, 145928, Note_off_c, 3, 64, 64
6, 145944, Note_on_c, 3, 64, 100
6, 146120, Note_off_c, 3, 64, 64
6, 146132, Note_on_c, 3, 64, 100
6, 146308, Note_off_c, 3, 64, 64
6, 146336, Note_on_c, 3, 64, 100
6, 146512, Note_off_c, 3, 64, 64
6, 146516, Note_on_c, 3, 64, 100
6, 146692, Note_off_c, 3, 64, 64
6, 146704, Note_on_c, 3, 64, 100
6, 146880, Note_off_c, 3, 64, 64
6, 146900, Note_on_c, 3, 64, 100
6, 147076, Note_off_c, 3, 64, 64
6, 147096, Note_on_c, 3, 64, 100
6, 147272, Note_off_c, 3, 64, 64
6, 147292, Note_on_c, 3, 64, 100
6, 147468, Note_off_c, 3, 64, 64
6, 147472, Note_on_c, 3, 64, 100
6, 147648, Note_off_c, 3, 64, 64
6, 147668, Note_on_c, 3, 64, 100
6, 147844, Note_off_c, 3, 64, 64
6, 147868, Note_on_c, 3, 69, 100
6, 147952, Note_off_c, 3, 69, 64
6, 147960, Note_on_c, 3, 68, 100
6, 148044, Note_off_c, 3, 68, 64
6, 148056, Note_on_c, 3, 69, 100
6, 148232, Note_off_c, 3, 69, 64
6, 149024, Note_on_c, 3, 69, 100
6, 149200, Note_off_c, 3, 69, 64
6, 149216, Note_on_c, 3, 71, 100
6, 149392, Note_off_c, 3, 71, 64
6, 149404, Note_on_c, 3, 67, 100
6, 149488, Note_off_c, 3, 67, 64
6, 149500, Note_on_c, 3, 66, 100
6, 149584, Note_off_c, 3, 66, 64
6, 149600, Note_on_c, 3, 67, 100
6, 149776, Note_off_c, 3, 67, 64
6, 150560, Note_on_c, 3, 67, 100
6, 150736, Note_off_c, 3, 67, 64
6, 150748, Note_on_c, 3, 67, 100
6, 150924, Note_off_c, 3, 67, 64
6, 150944, Note_on_c, 3, 65, 100
6, 151024, Note_off_c, 3, 65, 64
6, 151032, Note_on_c, 3, 64, 100
6, 151116, Note_off_c, 3, 64, 64
6, 151132, Note_on_c, 3, 65, 100
6, 151308, Note_off_c, 3, 65, 64
6, 152096, Note_on_c, 3, 69, 100
6, 152272, Note_off_c, 3, 69, 64
6, 152284, Note_on_c, 3, 64, 100
6, 152460, Note_off_c, 3, 64, 64
6, 152472, Note_on_c, 3, 68, 100
6, 152556, Note_off_c, 3, 68, 64
6, 152564, Note_on_c, 3, 69, 100
6, 152648, Note_off_c, 3, 69, 64
6, 152656, Note_on_c, 3, 68, 100
6, 152832, Note_off_c, 3, 68, 64
6, 152860, Note_on_c, 3, 71, 100
6, 152944, Note_off_c, 3, 71, 64
6, 152960, Note_on_c, 3, 72, 100
6, 153040, Note_off_c, 3, 72, 64
6, 153052, Note_on_c, 3, 71, 100
6, 153228, Note_off_c, 3, 71, 64
6, 153232, Note_on_c, 3, 74, 100
6, 153316, Note_off_c, 3, 74, 64
6, 153336, Note_on_c, 3, 76, 100
6, 153420, Note_off_c, 3, 76, 64
6, 153440, Note_on_c, 3, 74, 100
6, 153616, Note_off_c, 3, 74, 64
6, 153632, Note_on_c, 3, 67, 100
6, 153808, Note_off_c, 3, 67, 64
6, 153816, Note_on_c, 3, 69, 100
6, 153992, Note_off_c, 3, 69, 64
6, 154016, Note_on_c, 3, 65, 100
6, 154192, Note_off_c, 3, 65, 64
6, 154192, Note_on_c, 3, 59, 100
6, 154368, Note_off_c, 3, 59, 64
6, 154392, Note_on_c, 3, 59, 100
6, 154568, Note_off_c, 3, 59, 64
6, 154584, Note_on_c, 3, 69, 100
6, 154668, Note_off_c, 3, 69, 64
6, 154676, Note_on_c, 3, 68, 100
6, 154760, Note_off_c, 3, 68, 64
6, 154784, Note_on_c, 3, 69, 100
6, 154864, Note_off_c, 3, 69, 64
6, 154880, Note_on_c, 3, 71, 100
6, 154960, Note_off_c, 3, 71, 64
6, 154968, Note_on_c, 3, 69, 100
6, 155052, Note_off_c, 3, 69, 64
6, 155072, Note_on_c, 3, 72, 100
6, 155152, Note_off_c, 3, 72, 64
6, 155152, Note_on_c, 3, 71, 100
6, 155236, Note_off_c, 3, 71, 64
6, 155256, Note_on_c, 3, 74, 100
6, 155340, Note_off_c, 3, 74, 64
6, 155348, Note_on_c, 3, 72, 100
6, 155432, Note_off_c, 3, 72, 64
6, 155440, Note_on_c, 3, 71, 100
6, 155524, Note_off_c, 3, 71, 64
6, 155544, Note_on_c, 3, 72, 100
6, 155628, Note_off_c, 3, 72, 64
6, 155640, Note_on_c, 3, 74, 100
6, 155724, Note_off_c, 3, 74, 64
6, 155736, Note_on_c, 3, 72, 100
6, 155820, Note_off_c, 3, 72, 64
6, 155836, Note_on_c, 3, 76, 100
6, 155920, Note_off_c, 3, 76, 64
6, 155932, Note_on_c, 3, 74, 100
6, 156016, Note_off_c, 3, 74, 64
6, 156020, Note_on_c, 3, 77, 100
6, 156104, Note_off_c, 3, 77, 64
6, 156112, Note_on_c, 3, 76, 100
6, 156196, Note_off_c, 3, 76, 64
6, 156220, Note_on_c, 3, 74, 100
6, 156304, Note_off_c, 3, 74, 64
6, 156304, Note_on_c, 3, 76, 100
6, 156388, Note_off_c, 3, 76, 64
6, 156416, Note_on_c, 3, 77, 100
6, 156496, Note_off_c, 3, 77, 64
6, 156508, Note_on_c, 3, 76, 100
6, 156592, Note_off_c, 3, 76, 64
6, 156596, Note_on_c, 3, 77, 100
6, 156680, Note_off_c, 3, 77, 64
6, 156704, Note_on_c, 3, 76, 100
6, 156784, Note_off_c, 3, 76, 64
6, 156792, Note_on_c, 3, 74, 100
6, 156876, Note_off_c, 3, 74, 64
6, 156884, Note_on_c, 3, 72, 100
6, 156968, Note_off_c, 3, 72, 64
6, 156992, Note_on_c, 3, 74, 100
6, 157072, Note_off_c, 3, 74, 64
6, 157084, Note_on_c, 3, 72, 100
6, 157168, Note_off_c, 3, 72, 64
6, 157180, Note_on_c, 3, 71, 100
6, 157264, Note_off_c, 3, 71, 64
6, 157268, Note_on_c, 3, 69, 100
6, 157352, Note_off_c, 3, 69, 64
6, 157372, Note_on_c, 3, 72, 100
6, 157456, Note_off_c, 3, 72, 64
6, 157456, Note_on_c, 3, 71, 100
6, 157540, Note_off_c, 3, 71, 64
6, 157552, Note_on_c, 3, 69, 100
6, 157636, Note_off_c, 3, 69, 64
6, 157656, Note_on_c, 3, 67, 100
6, 157832, Note_off_c, 3, 67, 64
6, 157852, Note_on_c, 3, 64, 100
6, 158028, Note_off_c, 3, 64, 64
6, 158240, Note_on_c, 3, 64, 100
6, 158416, Note_off_c, 3, 64, 64
6, 158416, Note_on_c, 3, 67, 100
6, 158592, Note_off_c, 3, 67, 64
6, 158624, Note_on_c, 3, 71, 100
6, 158800, Note_off_c, 3, 71, 64
6, 158800, Note_on_c, 3, 67, 100
6, 158976, Note_off_c, 3, 67, 64
6, 158992, Note_on_c, 3, 64, 100
6, 159168, Note_off_c, 3, 64, 64
6, 159196, Note_on_c, 3, 67, 100
6, 159372, Note_off_c, 3, 67, 64
6, 159388, Note_on_c, 3, 71, 100
6, 159564, Note_off_c, 3, 71, 64
6, 159580, Note_on_c, 3, 67, 100
6, 159756, Note_off_c, 3, 67, 64
6, 159776, Note_on_c, 3, 64, 100
6, 159952, Note_off_c, 3, 64, 64
6, 159952, Note_on_c, 3, 71, 100
6, 160128, Note_off_c, 3, 71, 64
6, 160160, Note_on_c, 3, 71, 100
6, 160240, Note_off_c, 3, 71, 64
6, 160256, Note_on_c, 3, 71, 100
6, 160340, Note_on_c, 3, 71, 100
6, 160348, Note_off_c, 3, 71, 64
6, 160716, Note_off_c, 3, 71, 64
6, 160928, Note_on_c, 3, 59, 100
6, 161008, Note_off_c, 3, 59, 64
6, 161024, Note_on_c, 3, 57, 100
6, 161104, Note_off_c, 3, 57, 64
6, 161120, Note_on_c, 3, 59, 100
6, 161200, Note_off_c, 3, 59, 64
6, 161208, Note_on_c, 3, 60, 100
6, 161292, Note_off_c, 3, 60, 64
6, 161312, Note_on_c, 3, 59, 100
6, 161392, Note_off_c, 3, 59, 64
6, 161396, Note_on_c, 3, 57, 100
6, 161480, Note_off_c, 3, 57, 64
6, 161500, Note_on_c, 3, 55, 100
6, 161584, Note_off_c, 3, 55, 64
6, 161596, Note_on_c, 3, 54, 100
6, 161680, Note_off_c, 3, 54, 64
6, 161688, Note_on_c, 3, 55, 100
6, 161772, Note_off_c, 3, 55, 64
6, 161776, Note_on_c, 3, 57, 100
6, 161860, Note_off_c, 3, 57, 64
6, 161872, Note_on_c, 3, 55, 100
6, 161956, Note_off_c, 3, 55, 64
6, 161968, Note_on_c, 3, 59, 100
6, 162052, Note_off_c, 3, 59, 64
6, 162080, Note_on_c, 3, 57, 100
6, 162160, Note_off_c, 3, 57, 64
6, 162160, Note_on_c, 3, 60, 100
6, 162244, Note_off_c, 3, 60, 64
6, 162260, Note_on_c, 3, 59, 100
6, 162344, Note_off_c, 3, 59, 64
6, 162368, Note_on_c, 3, 57, 100
6, 162448, Note_off_c, 3, 57, 64
6, 162452, Note_on_c, 3, 59, 100
6, 162536, Note_off_c, 3, 59, 64
6, 162544, Note_on_c, 3, 60, 100
6, 162628, Note_off_c, 3, 60, 64
6, 162640, Note_on_c, 3, 59, 100
6, 162724, Note_off_c, 3, 59, 64
6, 162736, Note_on_c, 3, 62, 100
6, 162820, Note_off_c, 3, 62, 64
6, 162848, Note_on_c, 3, 60, 100
6, 162928, Note_off_c, 3, 60, 64
6, 162932, Note_on_c, 3, 64, 100
6, 163016, Note_off_c, 3, 64, 64
6, 163032, Note_on_c, 3, 62, 100
6, 163116, Note_off_c, 3, 62, 64
6, 163132, Note_on_c, 3, 64, 100
6, 163216, Note_off_c, 3, 64, 64
6, 163232, Note_on_c, 3, 62, 100
6, 163312, Note_off_c, 3, 62, 64
6, 163316, Note_on_c, 3, 60, 100
6, 163400, Note_off_c, 3, 60, 64
6, 163420, Note_on_c, 3, 59, 100
6, 163504, Note_off_c, 3, 59, 64
6, 163520, Note_on_c, 3, 67, 100
6, 163600, Note_off_c, 3, 67, 64
6, 163600, Note_on_c, 3, 66, 100
6, 163684, Note_off_c, 3, 66, 64
6, 163700, Note_on_c, 3, 64, 100
6, 163784, Note_off_c, 3, 64, 64
6, 163792, Note_on_c, 3, 62, 100
6, 163876, Note_off_c, 3, 62, 64
6, 163904, Note_on_c, 3, 74, 100
6, 163984, Note_off_c, 3, 74, 64
6, 164000, Note_on_c, 3, 73, 100
6, 164080, Note_off_c, 3, 73, 64
6, 164084, Note_on_c, 3, 71, 100
6, 164168, Note_off_c, 3, 71, 64
6, 164184, Note_on_c, 3, 69, 100
6, 164268, Note_off_c, 3, 69, 64
6, 164276, Note_on_c, 3, 71, 100
6, 164360, Note_off_c, 3, 71, 64
6, 164376, Note_on_c, 3, 69, 100
6, 164460, Note_off_c, 3, 69, 64
6, 164468, Note_on_c, 3, 67, 100
6, 164552, Note_off_c, 3, 67, 64
6, 164560, Note_on_c, 3, 69, 100
6, 164736, Note_off_c, 3, 69, 64
6, 164756, Note_on_c, 3, 69, 100
6, 164932, Note_off_c, 3, 69, 64
6, 164952, Note_on_c, 3, 69, 100
6, 165128, Note_off_c, 3, 69, 64
6, 165152, Note_on_c, 3, 69, 100
6, 165328, Note_off_c, 3, 69, 64
6, 165344, Note_on_c, 3, 69, 100
6, 165520, Note_off_c, 3, 69, 64
6, 165524, Note_on_c, 3, 69, 100
6, 165700, Note_off_c, 3, 69, 64
6, 165712, Note_on_c, 3, 69, 100
6, 165888, Note_off_c, 3, 69, 64
6, 165916, Note_on_c, 3, 69, 100
6, 166092, Note_off_c, 3, 69, 64
6, 166108, Note_on_c, 3, 71, 100
6, 166284, Note_off_c, 3, 71, 64
6, 166300, Note_on_c, 3, 71, 100
6, 166476, Note_off_c, 3, 71, 64
6, 166480, Note_on_c, 3, 71, 100
6, 166656, Note_off_c, 3, 71, 64
6, 166684, Note_on_c, 3, 71, 100
6, 166860, Note_off_c, 3, 71, 64
6, 166880, Note_on_c, 3, 71, 100
6, 167056, Note_off_c, 3, 71, 64
6, 167064, Note_on_c, 3, 71, 100
6, 167240, Note_off_c, 3, 71, 64
6, 167248, Note_on_c, 3, 71, 100
6, 167424, Note_off_c, 3, 71, 64
6, 167452, Note_on_c, 3, 71, 100
6, 167628, Note_off_c, 3, 71, 64
6, 167648, Note_on_c, 3, 71, 100
6, 167824, Note_off_c, 3, 71, 64
6, 167828, Note_on_c, 3, 71, 100
6, 168004, Note_off_c, 3, 71, 64
6, 168016, Note_on_c, 3, 71, 100
6, 168192, Note_off_c, 3, 71, 64
6, 168224, Note_on_c, 3, 71, 100
6, 168400, Note_off_c, 3, 71, 64
6, 168408, Note_on_c, 3, 71, 100
6, 168584, Note_off_c, 3, 71, 64
6, 168608, Note_on_c, 3, 71, 100
6, 168784, Note_off_c, 3, 71, 64
6, 168800, Note_on_c, 3, 71, 100
6, 168976, Note_off_c, 3, 71, 64
6, 168992, Note_on_c, 3, 71, 100
6, 169168, Note_off_c, 3, 71, 64
6, 169180, Note_on_c, 3, 67, 100
6, 169264, Note_off_c, 3, 67, 64
6, 169280, Note_on_c, 3, 66, 100
6, 169360, Note_off_c, 3, 66, 64
6, 169368, Note_on_c, 3, 67, 100
6, 169452, Note_off_c, 3, 67, 64
6, 169464, Note_on_c, 3, 76, 100
6, 169548, Note_off_c, 3, 76, 64
6, 169552, Note_on_c, 3, 73, 100
6, 169636, Note_off_c, 3, 73, 64
6, 169656, Note_on_c, 3, 67, 100
6, 169740, Note_off_c, 3, 67, 64
6, 169756, Note_on_c, 3, 64, 100
6, 169840, Note_off_c, 3, 64, 64
6, 169840, Note_on_c, 3, 57, 100
6, 169924, Note_off_c, 3, 57, 64
6, 169948, Note_on_c, 3, 67, 100
6, 170032, Note_off_c, 3, 67, 64
6, 170036, Note_on_c, 3, 66, 100
6, 170120, Note_off_c, 3, 66, 64
6, 170128, Note_on_c, 3, 67, 100
6, 170212, Note_off_c, 3, 67, 64
6, 170224, Note_on_c, 3, 76, 100
6, 170308, Note_off_c, 3, 76, 64
6, 170332, Note_on_c, 3, 73, 100
6, 170416, Note_off_c, 3, 73, 64
6, 170420, Note_on_c, 3, 67, 100
6, 170504, Note_off_c, 3, 67, 64
6, 170524, Note_on_c, 3, 64, 100
6, 170608, Note_off_c, 3, 64, 64
6, 170620, Note_on_c, 3, 57, 100
6, 170704, Note_off_c, 3, 57, 64
6, 170708, Note_on_c, 3, 69, 100
6, 170792, Note_off_c, 3, 69, 64
6, 170812, Note_on_c, 3, 67, 100
6, 170896, Note_off_c, 3, 67, 64
6, 170896, Note_on_c, 3, 69, 100
6, 171072, Note_off_c, 3, 69, 64
6, 171484, Note_on_c, 3, 69, 100
6, 171568, Note_off_c, 3, 69, 64
6, 171584, Note_on_c, 3, 67, 100
6, 171664, Note_off_c, 3, 67, 64
6, 171668, Note_on_c, 3, 69, 100
6, 171844, Note_off_c, 3, 69, 64
6, 172240, Note_on_c, 3, 74, 100
6, 172324, Note_off_c, 3, 74, 64
6, 172348, Note_on_c, 3, 72, 100
6, 172432, Note_off_c, 3, 72, 64
6, 172448, Note_on_c, 3, 74, 100
6, 172624, Note_off_c, 3, 74, 64
6, 173008, Note_on_c, 3, 74, 100
6, 173092, Note_off_c, 3, 74, 64
6, 173112, Note_on_c, 3, 72, 100
6, 173196, Note_off_c, 3, 72, 64
6, 173200, Note_on_c, 3, 74, 100
6, 173376, Note_off_c, 3, 74, 64
6, 174164, Note_on_c, 3, 70, 100
6, 174248, Note_off_c, 3, 70, 64
6, 174256, Note_on_c, 3, 72, 100
6, 174340, Note_off_c, 3, 72, 64
6, 174352, Note_on_c, 3, 70, 100
6, 174528, Note_off_c, 3, 70, 64
6, 174944, Note_on_c, 3, 70, 100
6, 175024, Note_off_c, 3, 70, 64
6, 175028, Note_on_c, 3, 72, 100
6, 175112, Note_off_c, 3, 72, 64
6, 175128, Note_on_c, 3, 70, 100
6, 175304, Note_off_c, 3, 70, 64
6, 175712, Note_on_c, 3, 70, 100
6, 175792, Note_off_c, 3, 70, 64
6, 175800, Note_on_c, 3, 72, 100
6, 175884, Note_off_c, 3, 72, 64
6, 175904, Note_on_c, 3, 70, 100
6, 176080, Note_off_c, 3, 70, 64
6, 176464, Note_on_c, 3, 70, 100
6, 176548, Note_off_c, 3, 70, 64
6, 176560, Note_on_c, 3, 72, 100
6, 176644, Note_off_c, 3, 72, 64
6, 176668, Note_on_c, 3, 70, 100
6, 176844, Note_off_c, 3, 70, 64
6, 177240, Note_on_c, 3, 70, 100
6, 177324, Note_off_c, 3, 70, 64
6, 177340, Note_on_c, 3, 72, 100
6, 177424, Note_off_c, 3, 72, 64
6, 177424, Note_on_c, 3, 70, 100
6, 177600, Note_off_c, 3, 70, 64
6, 178008, Note_on_c, 3, 70, 100
6, 178092, Note_off_c, 3, 70, 64
6, 178096, Note_on_c, 3, 72, 100
6, 178180, Note_off_c, 3, 72, 64
6, 178204, Note_on_c, 3, 70, 100
6, 178380, Note_off_c, 3, 70, 64
6, 178768, Note_on_c, 3, 70, 100
6, 178852, Note_off_c, 3, 70, 64
6, 178868, Note_on_c, 3, 72, 100
6, 178952, Note_off_c, 3, 72, 64
6, 178972, Note_on_c, 3, 70, 100
6, 179148, Note_off_c, 3, 70, 64
6, 179544, Note_on_c, 3, 70, 100
6, 179628, Note_off_c, 3, 70, 64
6, 179644, Note_on_c, 3, 72, 100
6, 179728, Note_off_c, 3, 72, 64
6, 179736, Note_on_c, 3, 70, 100
6, 179912, Note_off_c, 3, 70, 64
6, 180312, Note_on_c, 3, 69, 100
6, 180396, Note_off_c, 3, 69, 64
6, 180416, Note_on_c, 3, 70, 100
6, 180496, Note_off_c, 3, 70, 64
6, 180512, Note_on_c, 3, 69, 100
6, 180688, Note_off_c, 3, 69, 64
6, 181080, Note_on_c, 3, 69, 100
6, 181164, Note_off_c, 3, 69, 64
6, 181168, Note_on_c, 3, 70, 100
6, 181252, Note_off_c, 3, 70, 64
6, 181268, Note_on_c, 3, 69, 100
6, 181444, Note_off_c, 3, 69, 64
6, 181464, Note_on_c, 3, 70, 100
6, 181640, Note_off_c, 3, 70, 64
6, 181660, Note_on_c, 3, 67, 100
6, 181744, Note_off_c, 3, 67, 64
6, 181748, Note_on_c, 3, 66, 100
6, 181832, Note_off_c, 3, 66, 64
6, 181856, Note_on_c, 3, 67, 100
6, 182032, Note_off_c, 3, 67, 64
6, 182808, Note_on_c, 3, 67, 100
6, 182984, Note_off_c, 3, 67, 64
6, 183004, Note_on_c, 3, 69, 100
6, 183180, Note_off_c, 3, 69, 64
6, 183184, Note_on_c, 3, 65, 100
6, 183268, Note_off_c, 3, 65, 64
6, 183292, Note_on_c, 3, 64, 100
6, 183376, Note_off_c, 3, 64, 64
6, 183376, Note_on_c, 3, 65, 100
6, 183552, Note_off_c, 3, 65, 64
6, 184352, Note_on_c, 3, 65, 100
6, 184528, Note_off_c, 3, 65, 64
6, 184544, Note_on_c, 3, 67, 100
6, 184720, Note_off_c, 3, 67, 64
6, 184728, Note_on_c, 3, 63, 100
6, 184812, Note_off_c, 3, 63, 64
6, 184816, Note_on_c, 3, 62, 100
6, 184900, Note_off_c, 3, 62, 64
6, 184912, Note_on_c, 3, 63, 100
6, 185088, Note_off_c, 3, 63, 64
6, 185880, Note_on_c, 3, 67, 100
6, 186056, Note_off_c, 3, 67, 64
6, 186068, Note_on_c, 3, 69, 100
6, 186152, Note_off_c, 3, 69, 64
6, 186168, Note_on_c, 3, 66, 100
6, 186252, Note_off_c, 3, 66, 64
6, 186272, Note_on_c, 3, 62, 100
6, 186352, Note_off_c, 3, 62, 64
6, 186352, Note_on_c, 3, 64, 100
6, 186436, Note_off_c, 3, 64, 64
6, 186464, Note_on_c, 3, 66, 100
6, 186544, Note_off_c, 3, 66, 64
6, 186560, Note_on_c, 3, 67, 100
6, 186640, Note_off_c, 3, 67, 64
6, 186656, Note_on_c, 3, 69, 100
6, 186736, Note_off_c, 3, 69, 64
6, 186744, Note_on_c, 3, 70, 100
6, 186828, Note_off_c, 3, 70, 64
6, 186848, Note_on_c, 3, 72, 100
6, 187208, Note_off_c, 3, 72, 64
6, 187420, Note_on_c, 3, 69, 100
6, 187596, Note_off_c, 3, 69, 64
6, 187612, Note_on_c, 3, 66, 100
6, 187972, Note_off_c, 3, 66, 64
6, 188188, Note_on_c, 3, 69, 100
6, 188364, Note_off_c, 3, 69, 64
6, 188368, Note_on_c, 3, 62, 100
6, 188732, Note_off_c, 3, 62, 64
6, 188956, Note_on_c, 3, 72, 100
6, 189040, Note_off_c, 3, 72, 64
6, 189056, Note_on_c, 3, 70, 100
6, 189136, Note_off_c, 3, 70, 64
6, 189144, Note_on_c, 3, 72, 100
6, 189320, Note_off_c, 3, 72, 64
6, 189716, Note_on_c, 3, 69, 100
6, 189800, Note_off_c, 3, 69, 64
6, 189820, Note_on_c, 3, 67, 100
6, 189904, Note_off_c, 3, 67, 64
6, 189908, Note_on_c, 3, 66, 100
6, 190084, Note_off_c, 3, 66, 64
6, 190484, Note_on_c, 3, 74, 100
6, 190660, Note_off_c, 3, 74, 64
6, 190688, Note_on_c, 3, 75, 100
6, 190956, Note_off_c, 3, 75, 64
6, 190972, Note_on_c, 3, 74, 100
6, 191056, Note_off_c, 3, 74, 64
6, 191068, Note_on_c, 3, 72, 100
6, 191152, Note_off_c, 3, 72, 64
6, 191156, Note_on_c, 3, 70, 100
6, 191240, Note_off_c, 3, 70, 64
6, 191248, Note_on_c, 3, 69, 100
6, 191332, Note_off_c, 3, 69, 64
6, 191352, Note_on_c, 3, 67, 100
6, 191436, Note_off_c, 3, 67, 64
6, 191444, Note_on_c, 3, 69, 100
6, 191620, Note_off_c, 3, 69, 64
6, 191632, Note_on_c, 3, 62, 100
6, 191808, Note_off_c, 3, 62, 64
6, 191828, Note_on_c, 3, 60, 100
6, 192004, Note_off_c, 3, 60, 64
6, 192024, Note_on_c, 3, 59, 100
6, 192108, Note_off_c, 3, 59, 64
6, 192120, Note_on_c, 3, 57, 100
6, 192204, Note_off_c, 3, 57, 64
6, 192216, Note_on_c, 3, 59, 100
6, 192392, Note_off_c, 3, 59, 64
6, 192412, Note_on_c, 3, 62, 100
6, 192588, Note_off_c, 3, 62, 64
6, 192600, Note_on_c, 3, 59, 100
6, 192776, Note_off_c, 3, 59, 64
6, 192792, Note_on_c, 3, 55, 100
6, 192968, Note_off_c, 3, 55, 64
6, 192988, Note_on_c, 3, 59, 100
6, 193164, Note_off_c, 3, 59, 64
6, 193172, Note_on_c, 3, 62, 100
6, 193348, Note_off_c, 3, 62, 64
6, 193372, Note_on_c, 3, 59, 100
6, 193548, Note_off_c, 3, 59, 64
6, 193560, Note_on_c, 3, 55, 100
6, 193736, Note_off_c, 3, 55, 64
6, 193760, Note_on_c, 3, 59, 100
6, 193936, Note_off_c, 3, 59, 64
6, 193936, Note_on_c, 3, 62, 100
6, 194112, Note_off_c, 3, 62, 64
6, 194140, Note_on_c, 3, 67, 100
6, 194224, Note_off_c, 3, 67, 64
6, 194236, Note_on_c, 3, 71, 100
6, 194320, Note_off_c, 3, 71, 64
6, 194320, Note_on_c, 3, 69, 100
6, 194404, Note_off_c, 3, 69, 64
6, 194420, Note_on_c, 3, 67, 100
6, 194504, Note_off_c, 3, 67, 64
6, 194516, Note_on_c, 3, 66, 100
6, 194692, Note_off_c, 3, 66, 64
6, 194704, Note_on_c, 3, 62, 100
6, 194880, Note_off_c, 3, 62, 64
6, 195104, Note_on_c, 3, 71, 100
6, 195280, Note_off_c, 3, 71, 64
6, 195284, Note_on_c, 3, 66, 100
6, 195460, Note_off_c, 3, 66, 64
6, 195472, Note_on_c, 3, 62, 100
6, 195648, Note_off_c, 3, 62, 64
6, 195868, Note_on_c, 3, 69, 100
6, 196044, Note_off_c, 3, 69, 64
6, 196056, Note_on_c, 3, 66, 100
6, 196232, Note_off_c, 3, 66, 64
6, 196252, Note_on_c, 3, 62, 100
6, 196428, Note_off_c, 3, 62, 64
6, 196628, Note_on_c, 3, 69, 100
6, 196804, Note_off_c, 3, 69, 64
6, 196816, Note_on_c, 3, 62, 100
6, 196992, Note_off_c, 3, 62, 64
6, 197012, Note_on_c, 3, 60, 100
6, 197096, Note_off_c, 3, 60, 64
6, 197112, Note_on_c, 3, 59, 100
6, 197196, Note_off_c, 3, 59, 64
6, 197200, Note_on_c, 3, 60, 100
6, 197376, Note_off_c, 3, 60, 64
6, 197404, Note_on_c, 3, 59, 100
6, 197488, Note_off_c, 3, 59, 64
6, 197496, Note_on_c, 3, 57, 100
6, 197580, Note_off_c, 3, 57, 64
6, 197596, Note_on_c, 3, 55, 100
6, 197772, Note_off_c, 3, 55, 64
6, 197792, Note_on_c, 3, 67, 100
6, 197968, Note_off_c, 3, 67, 64
6, 197976, Note_on_c, 3, 67, 100
6, 198152, Note_off_c, 3, 67, 64
6, 198164, Note_on_c, 3, 55, 100
6, 198340, Note_off_c, 3, 55, 64
6, 198364, Note_on_c, 3, 55, 100
6, 198540, Note_off_c, 3, 55, 64
6, 198552, Note_on_c, 3, 67, 100
6, 198728, Note_off_c, 3, 67, 64
6, 198740, Note_on_c, 3, 67, 100
6, 198916, Note_off_c, 3, 67, 64
6, 198944, Note_on_c, 3, 55, 100
6, 199120, Note_off_c, 3, 55, 64
6, 199136, Note_on_c, 3, 55, 100
6, 199312, Note_off_c, 3, 55, 64
6, 199320, Note_on_c, 3, 67, 100
6, 199496, Note_off_c, 3, 67, 64
6, 199504, Note_on_c, 3, 67, 100
6, 199680, Note_off_c, 3, 67, 64
6, 199696, Note_on_c, 3, 55, 100
6, 199872, Note_off_c, 3, 55, 64
6, 199900, Note_on_c, 3, 55, 100
6, 200076, Note_off_c, 3, 55, 64
6, 200096, Note_on_c, 3, 67, 100
6, 200272, Note_off_c, 3, 67, 64
6, 200272, Note_on_c, 3, 66, 100
6, 200448, Note_off_c, 3, 66, 64
6, 200476, Note_on_c, 3, 67, 100
6, 200652, Note_off_c, 3, 67, 64
6, 200664, Note_on_c, 3, 69, 100
6, 200840, Note_off_c, 3, 69, 64
6, 200848, Note_on_c, 3, 71, 100
6, 201024, Note_off_c, 3, 71, 64
6, 201052, Note_on_c, 3, 72, 100
6, 201228, Note_off_c, 3, 72, 64
6, 201232, Note_on_c, 3, 74, 100
6, 201408, Note_off_c, 3, 74, 64
6, 201424, Note_on_c, 3, 71, 100
6, 201600, Note_off_c, 3, 71, 64
6, 201620, Note_on_c, 3, 69, 100
6, 201704, Note_off_c, 3, 69, 64
6, 201724, Note_on_c, 3, 67, 100
6, 201808, Note_off_c, 3, 67, 64
6, 201816, Note_on_c, 3, 62, 100
6, 201992, Note_off_c, 3, 62, 64
6, 202000, Note_on_c, 3, 66, 100
6, 202176, Note_off_c, 3, 66, 64
6, 202208, Note_on_c, 3, 67, 100
6, 202384, Note_off_c, 3, 67, 64
6, 203156, Note_on_c, 3, 62, 100
6, 203240, Note_off_c, 3, 62, 64
6, 203264, Note_on_c, 3, 60, 100
6, 203344, Note_off_c, 3, 60, 64
6, 203360, Note_on_c, 3, 62, 100
6, 203536, Note_off_c, 3, 62, 64
6, 203536, Note_on_c, 3, 67, 100
6, 203620, Note_off_c, 3, 67, 64
6, 203648, Note_on_c, 3, 66, 100
6, 203728, Note_off_c, 3, 66, 64
6, 203744, Note_on_c, 3, 67, 100
6, 203920, Note_off_c, 3, 67, 64
6, 205084, Note_on_c, 3, 62, 100
6, 205260, Note_off_c, 3, 62, 64
6, 205272, Note_on_c, 3, 67, 100
6, 205448, Note_off_c, 3, 67, 64
6, 205460, Note_on_c, 3, 66, 100
6, 205544, Note_off_c, 3, 66, 64
6, 205564, Note_on_c, 3, 64, 100
6, 205648, Note_off_c, 3, 64, 64
6, 205656, Note_on_c, 3, 62, 100
6, 205740, Note_off_c, 3, 62, 64
6, 205760, Note_on_c, 3, 60, 100
6, 205840, Note_off_c, 3, 60, 64
6, 205844, Note_on_c, 3, 59, 100
6, 205928, Note_off_c, 3, 59, 64
6, 205952, Note_on_c, 3, 57, 100
6, 206032, Note_off_c, 3, 57, 64
6, 206036, Note_on_c, 3, 55, 100
6, 206120, Note_off_c, 3, 55, 64
6, 206128, Note_on_c, 3, 59, 100
6, 206212, Note_off_c, 3, 59, 64
6, 206232, Note_on_c, 3, 60, 100
6, 206316, Note_off_c, 3, 60, 64
6, 206336, Note_on_c, 3, 62, 100
6, 206416, Note_off_c, 3, 62, 64
6, 206416, Note_on_c, 3, 64, 100
6, 206500, Note_off_c, 3, 64, 64
6, 206520, Note_on_c, 3, 66, 100
6, 206604, Note_off_c, 3, 66, 64
6, 206616, Note_on_c, 3, 67, 100
6, 206700, Note_off_c, 3, 67, 64
6, 206708, Note_on_c, 3, 69, 100
6, 206792, Note_off_c, 3, 69, 64
6, 206808, Note_on_c, 3, 71, 100
6, 206892, Note_off_c, 3, 71, 64
6, 206912, Note_on_c, 3, 67, 100
6, 206992, Note_off_c, 3, 67, 64
6, 206996, Note_on_c, 3, 66, 100
6, 207080, Note_off_c, 3, 66, 64
6, 207100, Note_on_c, 3, 64, 100
6, 207184, Note_off_c, 3, 64, 64
6, 207184, Note_on_c, 3, 62, 100
6, 207268, Note_off_c, 3, 62, 64
6, 207288, Note_on_c, 3, 60, 100
6, 207372, Note_off_c, 3, 60, 64
6, 207384, Note_on_c, 3, 59, 100
6, 207468, Note_off_c, 3, 59, 64
6, 207480, Note_on_c, 3, 57, 100
6, 207564, Note_off_c, 3, 57, 64
6, 207568, Note_on_c, 3, 59, 100
6, 207744, Note_off_c, 3, 59, 64
6, 207760, Note_on_c, 3, 57, 100
6, 207844, Note_off_c, 3, 57, 64
6, 207868, Note_on_c, 3, 55, 100
6, 207952, Note_off_c, 3, 55, 64
6, 207956, Note_on_c, 3, 62, 100
6, 208132, Note_off_c, 3, 62, 64
6, 208156, Note_on_c, 3, 50, 100
6, 208332, Note_off_c, 3, 50, 64
6, 208348, Note_on_c, 3, 55, 100
6, 209084, Note_off_c, 3, 55, 64
6, 209084, End_track
7, 0, Start_track
7, 0, Title_t, "Viola 2"
7, 0, Control_c, 4, 0, 0
7, 0, Program_c, 4, 68
7, 0, Control_c, 4, 7, 127
7, 0, Control_c, 4, 10, 104
7, 0, Control_c, 4, 91, 83
7, 0, Control_c, 4, 93, 75
7, 0, Pitch_bend_c, 4, 8192
7, 4, Control_c, 4, 1, 0
7, 8, Control_c, 4, 64, 0
7, 24, Note_on_c, 4, 55, 100
7, 200, Note_off_c, 4, 55, 64
7, 224, Note_on_c, 4, 59, 100
7, 400, Note_off_c, 4, 59, 64
7, 400, Note_on_c, 4, 62, 100
7, 576, Note_off_c, 4, 62, 64
7, 596, Note_on_c, 4, 59, 100
7, 772, Note_off_c, 4, 59, 64
7, 800, Note_on_c, 4, 55, 100
7, 976, Note_off_c, 4, 55, 64
7, 992, Note_on_c, 4, 59, 100
7, 1168, Note_off_c, 4, 59, 64
7, 1184, Note_on_c, 4, 62, 100
7, 1360, Note_off_c, 4, 62, 64
7, 1364, Note_on_c, 4, 59, 100
7, 1540, Note_off_c, 4, 59, 64
7, 1564, Note_on_c, 4, 55, 100
7, 1740, Note_off_c, 4, 55, 64
7, 1760, Note_on_c, 4, 59, 100
7, 1936, Note_off_c, 4, 59, 64
7, 1944, Note_on_c, 4, 62, 100
7, 2120, Note_off_c, 4, 62, 64
7, 2128, Note_on_c, 4, 67, 100
7, 2212, Note_off_c, 4, 67, 64
7, 2236, Note_on_c, 4, 71, 100
7, 2320, Note_off_c, 4, 71, 64
7, 2328, Note_on_c, 4, 69, 100
7, 2412, Note_off_c, 4, 69, 64
7, 2420, Note_on_c, 4, 67, 100
7, 2504, Note_off_c, 4, 67, 64
7, 2520, Note_on_c, 4, 66, 100
7, 2696, Note_off_c, 4, 66, 64
7, 2708, Note_on_c, 4, 62, 100
7, 2884, Note_off_c, 4, 62, 64
7, 3088, Note_on_c, 4, 71, 100
7, 3264, Note_off_c, 4, 71, 64
7, 3288, Note_on_c, 4, 66, 100
7, 3464, Note_off_c, 4, 66, 64
7, 3472, Note_on_c, 4, 62, 100
7, 3648, Note_off_c, 4, 62, 64
7, 3860, Note_on_c, 4, 67, 100
7, 4036, Note_off_c, 4, 67, 64
7, 4052, Note_on_c, 4, 66, 100
7, 4228, Note_off_c, 4, 66, 64
7, 4240, Note_on_c, 4, 62, 100
7, 4416, Note_off_c, 4, 62, 64
7, 4636, Note_on_c, 4, 69, 100
7, 4812, Note_off_c, 4, 69, 64
7, 4820, Note_on_c, 4, 62, 100
7, 4996, Note_off_c, 4, 62, 64
7, 5020, Note_on_c, 4, 60, 100
7, 5104, Note_off_c, 4, 60, 64
7, 5112, Note_on_c, 4, 59, 100
7, 5196, Note_off_c, 4, 59, 64
7, 5208, Note_on_c, 4, 60, 100
7, 5384, Note_off_c, 4, 60, 64
7, 5408, Note_on_c, 4, 59, 100
7, 5488, Note_off_c, 4, 59, 64
7, 5488, Note_on_c, 4, 57, 100
7, 5572, Note_off_c, 4, 57, 64
7, 5592, Note_on_c, 4, 55, 100
7, 5768, Note_off_c, 4, 55, 64
7, 5776, Note_on_c, 4, 67, 100
7, 5952, Note_off_c, 4, 67, 64
7, 5980, Note_on_c, 4, 67, 100
7, 6156, Note_off_c, 4, 67, 64
7, 6168, Note_on_c, 4, 55, 100
7, 6344, Note_off_c, 4, 55, 64
7, 6360, Note_on_c, 4, 55, 100
7, 6536, Note_off_c, 4, 55, 64
7, 6560, Note_on_c, 4, 67, 100
7, 6736, Note_off_c, 4, 67, 64
7, 6748, Note_on_c, 4, 67, 100
7, 6924, Note_off_c, 4, 67, 64
7, 6940, Note_on_c, 4, 55, 100
7, 7116, Note_off_c, 4, 55, 64
7, 7128, Note_on_c, 4, 55, 100
7, 7304, Note_off_c, 4, 55, 64
7, 7324, Note_on_c, 4, 67, 100
7, 7500, Note_off_c, 4, 67, 64
7, 7508, Note_on_c, 4, 67, 100
7, 7684, Note_off_c, 4, 67, 64
7, 7700, Note_on_c, 4, 55, 100
7, 7876, Note_off_c, 4, 55, 64
7, 7900, Note_on_c, 4, 55, 100
7, 8076, Note_off_c, 4, 55, 64
7, 8088, Note_on_c, 4, 67, 100
7, 8264, Note_off_c, 4, 67, 64
7, 8280, Note_on_c, 4, 67, 100
7, 8456, Note_off_c, 4, 67, 64
7, 8468, Note_on_c, 4, 67, 100
7, 8644, Note_off_c, 4, 67, 64
7, 8668, Note_on_c, 4, 69, 100
7, 8844, Note_off_c, 4, 69, 64
7, 8856, Note_on_c, 4, 71, 100
7, 9032, Note_off_c, 4, 71, 64
7, 9048, Note_on_c, 4, 72, 100
7, 9224, Note_off_c, 4, 72, 64
7, 9248, Note_on_c, 4, 74, 100
7, 9424, Note_off_c, 4, 74, 64
7, 9436, Note_on_c, 4, 71, 100
7, 9612, Note_off_c, 4, 71, 64
7, 9620, Note_on_c, 4, 69, 100
7, 9704, Note_off_c, 4, 69, 64
7, 9720, Note_on_c, 4, 67, 100
7, 9804, Note_off_c, 4, 67, 64
7, 9808, Note_on_c, 4, 62, 100
7, 9984, Note_off_c, 4, 62, 64
7, 10008, Note_on_c, 4, 66, 100
7, 10184, Note_off_c, 4, 66, 64
7, 10204, Note_on_c, 4, 67, 100
7, 10380, Note_off_c, 4, 67, 64
7, 10388, Note_on_c, 4, 67, 100
7, 10472, Note_off_c, 4, 67, 64
7, 10496, Note_on_c, 4, 64, 100
7, 10576, Note_off_c, 4, 64, 64
7, 10580, Note_on_c, 4, 62, 100
7, 10664, Note_off_c, 4, 62, 64
7, 10688, Note_on_c, 4, 60, 100
7, 10768, Note_off_c, 4, 60, 64
7, 10772, Note_on_c, 4, 59, 100
7, 10856, Note_off_c, 4, 59, 64
7, 10872, Note_on_c, 4, 57, 100
7, 10956, Note_off_c, 4, 57, 64
7, 10960, Note_on_c, 4, 59, 100
7, 11136, Note_off_c, 4, 59, 64
7, 11168, Note_on_c, 4, 57, 100
7, 11248, Note_off_c, 4, 57, 64
7, 11248, Note_on_c, 4, 55, 100
7, 11332, Note_off_c, 4, 55, 64
7, 11356, Note_on_c, 4, 62, 100
7, 11532, Note_off_c, 4, 62, 64
7, 11540, Note_on_c, 4, 50, 100
7, 11716, Note_off_c, 4, 50, 64
7, 11732, Note_on_c, 4, 55, 100
7, 11908, Note_off_c, 4, 55, 64
7, 11920, Note_on_c, 4, 62, 100
7, 12096, Note_off_c, 4, 62, 64
7, 12116, Note_on_c, 4, 67, 100
7, 12292, Note_off_c, 4, 67, 64
7, 13084, Note_on_c, 4, 67, 100
7, 13168, Note_off_c, 4, 67, 64
7, 13180, Note_on_c, 4, 66, 100
7, 13264, Note_off_c, 4, 66, 64
7, 13276, Note_on_c, 4, 67, 100
7, 13452, Note_off_c, 4, 67, 64
7, 13460, Note_on_c, 4, 62, 100
7, 13544, Note_off_c, 4, 62, 64
7, 13552, Note_on_c, 4, 60, 100
7, 13636, Note_off_c, 4, 60, 64
7, 13664, Note_on_c, 4, 62, 100
7, 13840, Note_off_c, 4, 62, 64
7, 14224, Note_on_c, 4, 71, 100
7, 14308, Note_off_c, 4, 71, 64
7, 14332, Note_on_c, 4, 72, 100
7, 14416, Note_off_c, 4, 72, 64
7, 14432, Note_on_c, 4, 74, 100
7, 14608, Note_off_c, 4, 74, 64
7, 14612, Note_on_c, 4, 76, 100
7, 14788, Note_off_c, 4, 76, 64
7, 14804, Note_on_c, 4, 69, 100
7, 14980, Note_off_c, 4, 69, 64
7, 15000, Note_on_c, 4, 69, 100
7, 15084, Note_off_c, 4, 69, 64
7, 15100, Note_on_c, 4, 67, 100
7, 15184, Note_off_c, 4, 67, 64
7, 15184, Note_on_c, 4, 69, 100
7, 15360, Note_off_c, 4, 69, 64
7, 15768, Note_on_c, 4, 69, 100
7, 15852, Note_off_c, 4, 69, 64
7, 15864, Note_on_c, 4, 67, 100
7, 15948, Note_off_c, 4, 67, 64
7, 15956, Note_on_c, 4, 69, 100
7, 16132, Note_off_c, 4, 69, 64
7, 16536, Note_on_c, 4, 69, 100
7, 16620, Note_off_c, 4, 69, 64
7, 16632, Note_on_c, 4, 67, 100
7, 16716, Note_off_c, 4, 67, 64
7, 16732, Note_on_c, 4, 69, 100
7, 16908, Note_off_c, 4, 69, 64
7, 16912, Note_on_c, 4, 69, 100
7, 17088, Note_off_c, 4, 69, 64
7, 17112, Note_on_c, 4, 69, 100
7, 17288, Note_off_c, 4, 69, 64
7, 17304, Note_on_c, 4, 67, 100
7, 17388, Note_off_c, 4, 67, 64
7, 17404, Note_on_c, 4, 66, 100
7, 17488, Note_off_c, 4, 66, 64
7, 17504, Note_on_c, 4, 67, 100
7, 17680, Note_off_c, 4, 67, 64
7, 17696, Note_on_c, 4, 66, 100
7, 17776, Note_off_c, 4, 66, 64
7, 17792, Note_on_c, 4, 64, 100
7, 17872, Note_off_c, 4, 64, 64
7, 17884, Note_on_c, 4, 62, 100
7, 18060, Note_off_c, 4, 62, 64
7, 18068, Note_on_c, 4, 74, 100
7, 18244, Note_off_c, 4, 74, 64
7, 18264, Note_on_c, 4, 74, 100
7, 18440, Note_off_c, 4, 74, 64
7, 18448, Note_on_c, 4, 62, 100
7, 18624, Note_off_c, 4, 62, 64
7, 18656, Note_on_c, 4, 62, 100
7, 18832, Note_off_c, 4, 62, 64
7, 18840, Note_on_c, 4, 74, 100
7, 19016, Note_off_c, 4, 74, 64
7, 19036, Note_on_c, 4, 74, 100
7, 19212, Note_off_c, 4, 74, 64
7, 19232, Note_on_c, 4, 62, 100
7, 19408, Note_on_c, 4, 62, 100
7, 19416, Note_off_c, 4, 62, 64
7, 19592, Note_off_c, 4, 62, 64
7, 19608, Note_on_c, 4, 74, 100
7, 19784, Note_off_c, 4, 74, 64
7, 19792, Note_on_c, 4, 74, 100
7, 19968, Note_off_c, 4, 74, 64
7, 19992, Note_on_c, 4, 62, 100
7, 20168, Note_off_c, 4, 62, 64
7, 20184, Note_on_c, 4, 62, 100
7, 20360, Note_off_c, 4, 62, 64
7, 20380, Note_on_c, 4, 74, 100
7, 20556, Note_off_c, 4, 74, 64
7, 20568, Note_on_c, 4, 73, 100
7, 20744, Note_off_c, 4, 73, 64
7, 20768, Note_on_c, 4, 71, 100
7, 20944, Note_off_c, 4, 71, 64
7, 20948, Note_on_c, 4, 69, 100
7, 21124, Note_off_c, 4, 69, 64
7, 21152, Note_on_c, 4, 62, 100
7, 21328, Note_off_c, 4, 62, 64
7, 21340, Note_on_c, 4, 61, 100
7, 21516, Note_off_c, 4, 61, 64
7, 21520, Note_on_c, 4, 64, 100
7, 21696, Note_off_c, 4, 64, 64
7, 21728, Note_on_c, 4, 62, 100
7, 21904, Note_off_c, 4, 62, 64
7, 21908, Note_on_c, 4, 64, 100
7, 21992, Note_off_c, 4, 64, 64
7, 22004, Note_on_c, 4, 66, 100
7, 22088, Note_off_c, 4, 66, 64
7, 22112, Note_on_c, 4, 64, 100
7, 22288, Note_off_c, 4, 64, 64
7, 22292, Note_on_c, 4, 69, 100
7, 22468, Note_off_c, 4, 69, 64
7, 22480, Note_on_c, 4, 66, 100
7, 22844, Note_off_c, 4, 66, 64
7, 23824, Note_on_c, 4, 67, 100
7, 23908, Note_off_c, 4, 67, 64
7, 23920, Note_on_c, 4, 66, 100
7, 24004, Note_off_c, 4, 66, 64
7, 24028, Note_on_c, 4, 67, 100
7, 24204, Note_off_c, 4, 67, 64
7, 24212, Note_on_c, 4, 62, 100
7, 24296, Note_off_c, 4, 62, 64
7, 24320, Note_on_c, 4, 60, 100
7, 24400, Note_off_c, 4, 60, 64
7, 24416, Note_on_c, 4, 62, 100
7, 24592, Note_off_c, 4, 62, 64
7, 24976, Note_on_c, 4, 62, 100
7, 25152, Note_off_c, 4, 62, 64
7, 25180, Note_on_c, 4, 67, 100
7, 25264, Note_off_c, 4, 67, 64
7, 25280, Note_on_c, 4, 71, 100
7, 25360, Note_off_c, 4, 71, 64
7, 25364, Note_on_c, 4, 69, 100
7, 25448, Note_off_c, 4, 69, 64
7, 25456, Note_on_c, 4, 67, 100
7, 25540, Note_off_c, 4, 67, 64
7, 25564, Note_on_c, 4, 66, 100
7, 25924, Note_off_c, 4, 66, 64
7, 26140, Note_on_c, 4, 64, 100
7, 26316, Note_off_c, 4, 64, 64
7, 26320, Note_on_c, 4, 66, 100
7, 26404, Note_off_c, 4, 66, 64
7, 26432, Note_on_c, 4, 69, 100
7, 26512, Note_off_c, 4, 69, 64
7, 26528, Note_on_c, 4, 62, 100
7, 26608, Note_off_c, 4, 62, 64
7, 26620, Note_on_c, 4, 64, 100
7, 26704, Note_off_c, 4, 64, 64
7, 26716, Note_on_c, 4, 66, 100
7, 26800, Note_off_c, 4, 66, 64
7, 26800, Note_on_c, 4, 67, 100
7, 26884, Note_off_c, 4, 67, 64
7, 26896, Note_on_c, 4, 69, 100
7, 26980, Note_off_c, 4, 69, 64
7, 27008, Note_on_c, 4, 67, 100
7, 27088, Note_off_c, 4, 67, 64
7, 27100, Note_on_c, 4, 66, 100
7, 27276, Note_off_c, 4, 66, 64
7, 27284, Note_on_c, 4, 74, 100
7, 27460, Note_off_c, 4, 74, 64
7, 27664, Note_on_c, 4, 74, 100
7, 27748, Note_off_c, 4, 74, 64
7, 27760, Note_on_c, 4, 73, 100
7, 27844, Note_off_c, 4, 73, 64
7, 27864, Note_on_c, 4, 74, 100
7, 28040, Note_off_c, 4, 74, 64
7, 28048, Note_on_c, 4, 69, 100
7, 28132, Note_off_c, 4, 69, 64
7, 28152, Note_on_c, 4, 67, 100
7, 28236, Note_off_c, 4, 67, 64
7, 28248, Note_on_c, 4, 69, 100
7, 28424, Note_off_c, 4, 69, 64
7, 28432, Note_on_c, 4, 74, 100
7, 28516, Note_off_c, 4, 74, 64
7, 28544, Note_on_c, 4, 73, 100
7, 28624, Note_off_c, 4, 73, 64
7, 28632, Note_on_c, 4, 74, 100
7, 28808, Note_off_c, 4, 74, 64
7, 28816, Note_on_c, 4, 66, 100
7, 28900, Note_off_c, 4, 66, 64
7, 28920, Note_on_c, 4, 64, 100
7, 29004, Note_off_c, 4, 64, 64
7, 29020, Note_on_c, 4, 66, 100
7, 29196, Note_off_c, 4, 66, 64
7, 29216, Note_on_c, 4, 74, 100
7, 29296, Note_off_c, 4, 74, 64
7, 29312, Note_on_c, 4, 73, 100
7, 29392, Note_off_c, 4, 73, 64
7, 29392, Note_on_c, 4, 74, 100
7, 29568, Note_off_c, 4, 74, 64
7, 29600, Note_on_c, 4, 62, 100
7, 29680, Note_off_c, 4, 62, 64
7, 29680, Note_on_c, 4, 64, 100
7, 29764, Note_off_c, 4, 64, 64
7, 29792, Note_on_c, 4, 66, 100
7, 29968, Note_off_c, 4, 66, 64
7, 29976, Note_on_c, 4, 68, 100
7, 30152, Note_off_c, 4, 68, 64
7, 30172, Note_on_c, 4, 69, 100
7, 30348, Note_off_c, 4, 69, 64
7, 30360, Note_on_c, 4, 69, 100
7, 30444, Note_off_c, 4, 69, 64
7, 30452, Note_on_c, 4, 68, 100
7, 30536, Note_off_c, 4, 68, 64
7, 30552, Note_on_c, 4, 69, 100
7, 30728, Note_off_c, 4, 69, 64
7, 31132, Note_on_c, 4, 67, 100
7, 31216, Note_off_c, 4, 67, 64
7, 31224, Note_on_c, 4, 66, 100
7, 31308, Note_off_c, 4, 66, 64
7, 31320, Note_on_c, 4, 64, 100
7, 31496, Note_off_c, 4, 64, 64
7, 31900, Note_on_c, 4, 66, 100
7, 31984, Note_off_c, 4, 66, 64
7, 31984, Note_on_c, 4, 64, 100
7, 32068, Note_off_c, 4, 64, 64
7, 32088, Note_on_c, 4, 66, 100
7, 32264, Note_off_c, 4, 66, 64
7, 32672, Note_on_c, 4, 71, 100
7, 32752, Note_off_c, 4, 71, 64
7, 32760, Note_on_c, 4, 73, 100
7, 32844, Note_off_c, 4, 73, 64
7, 32856, Note_on_c, 4, 71, 100
7, 33032, Note_off_c, 4, 71, 64
7, 33040, Note_on_c, 4, 71, 100
7, 33216, Note_off_c, 4, 71, 64
7, 33240, Note_on_c, 4, 71, 100
7, 33416, Note_off_c, 4, 71, 64
7, 33424, Note_on_c, 4, 69, 100
7, 33508, Note_off_c, 4, 69, 64
7, 33532, Note_on_c, 4, 71, 100
7, 33616, Note_off_c, 4, 71, 64
7, 33624, Note_on_c, 4, 69, 100
7, 33800, Note_off_c, 4, 69, 64
7, 33816, Note_on_c, 4, 69, 100
7, 33900, Note_off_c, 4, 69, 64
7, 33916, Note_on_c, 4, 67, 100
7, 34000, Note_off_c, 4, 67, 64
7, 34016, Note_on_c, 4, 69, 100
7, 34192, Note_off_c, 4, 69, 64
7, 34192, Note_on_c, 4, 64, 100
7, 34368, Note_off_c, 4, 64, 64
7, 34392, Note_on_c, 4, 64, 100
7, 34568, Note_off_c, 4, 64, 64
7, 34580, Note_on_c, 4, 64, 100
7, 34756, Note_off_c, 4, 64, 64
7, 34772, Note_on_c, 4, 62, 100
7, 34948, Note_off_c, 4, 62, 64
7, 34976, Note_on_c, 4, 62, 100
7, 35152, Note_off_c, 4, 62, 64
7, 35168, Note_on_c, 4, 62, 100
7, 35344, Note_off_c, 4, 62, 64
7, 35352, Note_on_c, 4, 62, 100
7, 35528, Note_off_c, 4, 62, 64
7, 35544, Note_on_c, 4, 62, 100
7, 35720, Note_off_c, 4, 62, 64
7, 35728, Note_on_c, 4, 62, 100
7, 35904, Note_off_c, 4, 62, 64
7, 35924, Note_on_c, 4, 62, 100
7, 36100, Note_off_c, 4, 62, 64
7, 36112, Note_on_c, 4, 62, 100
7, 36288, Note_off_c, 4, 62, 64
7, 36316, Note_on_c, 4, 62, 100
7, 36492, Note_off_c, 4, 62, 64
7, 36892, Note_on_c, 4, 62, 100
7, 36976, Note_off_c, 4, 62, 64
7, 36976, Note_on_c, 4, 61, 100
7, 37060, Note_off_c, 4, 61, 64
7, 37080, Note_on_c, 4, 62, 100
7, 37256, Note_off_c, 4, 62, 64
7, 37652, Note_on_c, 4, 62, 100
7, 37736, Note_off_c, 4, 62, 64
7, 37756, Note_on_c, 4, 61, 100
7, 37840, Note_off_c, 4, 61, 64
7, 37844, Note_on_c, 4, 62, 100
7, 38020, Note_off_c, 4, 62, 64
7, 38048, Note_on_c, 4, 62, 100
7, 38224, Note_off_c, 4, 62, 64
7, 38236, Note_on_c, 4, 62, 100
7, 38412, Note_off_c, 4, 62, 64
7, 38424, Note_on_c, 4, 66, 100
7, 38600, Note_off_c, 4, 66, 64
7, 38612, Note_on_c, 4, 62, 100
7, 38788, Note_off_c, 4, 62, 64
7, 38800, Note_on_c, 4, 67, 100
7, 38976, Note_off_c, 4, 67, 64
7, 39004, Note_on_c, 4, 67, 100
7, 39180, Note_off_c, 4, 67, 64
7, 39184, Note_on_c, 4, 67, 100
7, 39360, Note_off_c, 4, 67, 64
7, 39384, Note_on_c, 4, 67, 100
7, 39560, Note_off_c, 4, 67, 64
7, 39568, Note_on_c, 4, 67, 100
7, 39744, Note_off_c, 4, 67, 64
7, 39760, Note_on_c, 4, 67, 100
7, 39936, Note_off_c, 4, 67, 64
7, 39960, Note_on_c, 4, 67, 100
7, 40136, Note_off_c, 4, 67, 64
7, 40144, Note_on_c, 4, 55, 100
7, 40228, Note_off_c, 4, 55, 64
7, 40244, Note_on_c, 4, 54, 100
7, 40328, Note_off_c, 4, 54, 64
7, 40340, Note_on_c, 4, 55, 100
7, 40424, Note_off_c, 4, 55, 64
7, 40444, Note_on_c, 4, 57, 100
7, 40528, Note_off_c, 4, 57, 64
7, 40528, Note_on_c, 4, 55, 100
7, 40612, Note_off_c, 4, 55, 64
7, 40628, Note_on_c, 4, 59, 100
7, 40712, Note_off_c, 4, 59, 64
7, 40732, Note_on_c, 4, 55, 100
7, 40816, Note_off_c, 4, 55, 64
7, 40824, Note_on_c, 4, 60, 100
7, 40908, Note_off_c, 4, 60, 64
7, 40920, Note_on_c, 4, 55, 100
7, 41004, Note_off_c, 4, 55, 64
7, 41008, Note_on_c, 4, 54, 100
7, 41092, Note_off_c, 4, 54, 64
7, 41116, Note_on_c, 4, 55, 100
7, 41200, Note_off_c, 4, 55, 64
7, 41216, Note_on_c, 4, 57, 100
7, 41296, Note_off_c, 4, 57, 64
7, 41300, Note_on_c, 4, 55, 100
7, 41384, Note_off_c, 4, 55, 64
7, 41396, Note_on_c, 4, 62, 100
7, 41480, Note_off_c, 4, 62, 64
7, 41488, Note_on_c, 4, 55, 100
7, 41572, Note_off_c, 4, 55, 64
7, 41584, Note_on_c, 4, 64, 100
7, 41668, Note_off_c, 4, 64, 64
7, 41696, Note_on_c, 4, 65, 100
7, 41776, Note_off_c, 4, 65, 64
7, 41780, Note_on_c, 4, 64, 100
7, 41864, Note_off_c, 4, 64, 64
7, 41880, Note_on_c, 4, 65, 100
7, 41964, Note_off_c, 4, 65, 64
7, 41980, Note_on_c, 4, 67, 100
7, 42064, Note_off_c, 4, 67, 64
7, 42072, Note_on_c, 4, 65, 100
7, 42156, Note_off_c, 4, 65, 64
7, 42164, Note_on_c, 4, 64, 100
7, 42248, Note_off_c, 4, 64, 64
7, 42264, Note_on_c, 4, 65, 100
7, 42348, Note_off_c, 4, 65, 64
7, 42356, Note_on_c, 4, 62, 100
7, 42440, Note_off_c, 4, 62, 64
7, 42464, Note_on_c, 4, 64, 100
7, 42544, Note_off_c, 4, 64, 64
7, 42552, Note_on_c, 4, 59, 100
7, 42636, Note_off_c, 4, 59, 64
7, 42656, Note_on_c, 4, 60, 100
7, 42736, Note_off_c, 4, 60, 64
7, 42736, Note_on_c, 4, 62, 100
7, 42820, Note_off_c, 4, 62, 64
7, 42840, Note_on_c, 4, 64, 100
7, 42924, Note_off_c, 4, 64, 64
7, 42936, Note_on_c, 4, 62, 100
7, 43020, Note_off_c, 4, 62, 64
7, 43036, Note_on_c, 4, 64, 100
7, 43120, Note_off_c, 4, 64, 64
7, 43136, Note_on_c, 4, 65, 100
7, 43216, Note_off_c, 4, 65, 64
7, 43228, Note_on_c, 4, 67, 100
7, 43404, Note_off_c, 4, 67, 64
7, 43408, Note_on_c, 4, 64, 100
7, 43584, Note_off_c, 4, 64, 64
7, 43604, Note_on_c, 4, 64, 100
7, 43780, Note_off_c, 4, 64, 64
7, 43808, Note_on_c, 4, 62, 100
7, 43888, Note_off_c, 4, 62, 64
7, 43904, Note_on_c, 4, 64, 100
7, 43984, Note_off_c, 4, 64, 64
7, 43984, Note_on_c, 4, 62, 100
7, 44160, Note_off_c, 4, 62, 64
7, 44180, Note_on_c, 4, 62, 100
7, 44356, Note_off_c, 4, 62, 64
7, 44376, Note_on_c, 4, 62, 100
7, 44552, Note_off_c, 4, 62, 64
7, 44576, Note_on_c, 4, 60, 100
7, 44656, Note_off_c, 4, 60, 64
7, 44660, Note_on_c, 4, 62, 100
7, 44744, Note_off_c, 4, 62, 64
7, 44768, Note_on_c, 4, 60, 100
7, 44944, Note_off_c, 4, 60, 64
7, 44948, Note_on_c, 4, 60, 100
7, 45124, Note_off_c, 4, 60, 64
7, 45144, Note_on_c, 4, 60, 100
7, 45320, Note_off_c, 4, 60, 64
7, 45336, Note_on_c, 4, 62, 100
7, 45512, Note_off_c, 4, 62, 64
7, 45532, Note_on_c, 4, 62, 100
7, 45708, Note_off_c, 4, 62, 64
7, 45716, Note_on_c, 4, 62, 100
7, 45892, Note_off_c, 4, 62, 64
7, 45908, Note_on_c, 4, 62, 100
7, 46084, Note_off_c, 4, 62, 64
7, 46104, Note_on_c, 4, 62, 100
7, 46280, Note_off_c, 4, 62, 64
7, 46288, Note_on_c, 4, 62, 100
7, 46464, Note_off_c, 4, 62, 64
7, 46484, Note_on_c, 4, 64, 100
7, 46660, Note_off_c, 4, 64, 64
7, 46676, Note_on_c, 4, 65, 100
7, 46852, Note_off_c, 4, 65, 64
7, 46864, Note_on_c, 4, 65, 100
7, 47040, Note_off_c, 4, 65, 64
7, 47060, Note_on_c, 4, 64, 100
7, 47424, Note_off_c, 4, 64, 64
7, 47648, Note_on_c, 4, 60, 100
7, 47824, Note_off_c, 4, 60, 64
7, 47824, Note_on_c, 4, 64, 100
7, 48000, Note_off_c, 4, 64, 64
7, 48016, Note_on_c, 4, 67, 100
7, 48192, Note_off_c, 4, 67, 64
7, 48216, Note_on_c, 4, 64, 100
7, 48392, Note_off_c, 4, 64, 64
7, 48408, Note_on_c, 4, 60, 100
7, 48584, Note_off_c, 4, 60, 64
7, 48592, Note_on_c, 4, 64, 100
7, 48768, Note_off_c, 4, 64, 64
7, 48788, Note_on_c, 4, 67, 100
7, 48964, Note_off_c, 4, 67, 64
7, 48992, Note_on_c, 4, 64, 100
7, 49168, Note_off_c, 4, 64, 64
7, 49168, Note_on_c, 4, 60, 100
7, 49344, Note_off_c, 4, 60, 64
7, 49376, Note_on_c, 4, 67, 100
7, 49460, Note_off_c, 4, 67, 64
7, 49552, Note_on_c, 4, 67, 100
7, 49640, Note_off_c, 4, 67, 64
7, 49660, Note_on_c, 4, 67, 100
7, 49744, Note_off_c, 4, 67, 64
7, 49752, Note_on_c, 4, 67, 100
7, 49928, Note_off_c, 4, 67, 64
7, 50140, Note_on_c, 4, 67, 100
7, 50224, Note_off_c, 4, 67, 64
7, 50228, Note_on_c, 4, 66, 100
7, 50312, Note_off_c, 4, 66, 64
7, 50336, Note_on_c, 4, 67, 100
7, 50416, Note_off_c, 4, 67, 64
7, 50424, Note_on_c, 4, 69, 100
7, 50508, Note_off_c, 4, 69, 64
7, 50528, Note_on_c, 4, 67, 100
7, 50608, Note_off_c, 4, 67, 64
7, 50624, Note_on_c, 4, 71, 100
7, 50704, Note_off_c, 4, 71, 64
7, 50712, Note_on_c, 4, 67, 100
7, 50796, Note_off_c, 4, 67, 64
7, 50808, Note_on_c, 4, 72, 100
7, 50892, Note_off_c, 4, 72, 64
7, 50896, Note_on_c, 4, 71, 100
7, 50980, Note_off_c, 4, 71, 64
7, 51008, Note_on_c, 4, 69, 100
7, 51088, Note_off_c, 4, 69, 64
7, 51092, Note_on_c, 4, 71, 100
7, 51176, Note_off_c, 4, 71, 64
7, 51196, Note_on_c, 4, 72, 100
7, 51280, Note_off_c, 4, 72, 64
7, 51288, Note_on_c, 4, 71, 100
7, 51372, Note_off_c, 4, 71, 64
7, 51376, Note_on_c, 4, 74, 100
7, 51460, Note_off_c, 4, 74, 64
7, 51484, Note_on_c, 4, 72, 100
7, 51568, Note_off_c, 4, 72, 64
7, 51568, Note_on_c, 4, 76, 100
7, 51652, Note_off_c, 4, 76, 64
7, 51676, Note_on_c, 4, 74, 100
7, 51760, Note_off_c, 4, 74, 64
7, 51772, Note_on_c, 4, 72, 100
7, 51856, Note_off_c, 4, 72, 64
7, 51860, Note_on_c, 4, 74, 100
7, 51944, Note_off_c, 4, 74, 64
7, 51952, Note_on_c, 4, 76, 100
7, 52036, Note_off_c, 4, 76, 64
7, 52056, Note_on_c, 4, 74, 100
7, 52140, Note_off_c, 4, 74, 64
7, 52152, Note_on_c, 4, 76, 100
7, 52236, Note_off_c, 4, 76, 64
7, 52248, Note_on_c, 4, 74, 100
7, 52332, Note_off_c, 4, 74, 64
7, 52344, Note_on_c, 4, 72, 100
7, 52428, Note_off_c, 4, 72, 64
7, 52444, Note_on_c, 4, 71, 100
7, 52528, Note_off_c, 4, 71, 64
7, 52528, Note_on_c, 4, 72, 100
7, 52612, Note_off_c, 4, 72, 64
7, 52628, Note_on_c, 4, 71, 100
7, 52712, Note_off_c, 4, 71, 64
7, 52732, Note_on_c, 4, 69, 100
7, 52816, Note_off_c, 4, 69, 64
7, 52816, Note_on_c, 4, 67, 100
7, 52992, Note_off_c, 4, 67, 64
7, 53024, Note_on_c, 4, 64, 100
7, 53200, Note_off_c, 4, 64, 64
7, 53200, Note_on_c, 4, 62, 100
7, 53564, Note_off_c, 4, 62, 64
7, 53792, Note_on_c, 4, 61, 100
7, 53968, Note_off_c, 4, 61, 64
7, 53968, Note_on_c, 4, 62, 100
7, 54144, Note_off_c, 4, 62, 64
7, 54560, Note_on_c, 4, 64, 100
7, 54736, Note_off_c, 4, 64, 64
7, 54752, Note_on_c, 4, 66, 100
7, 54928, Note_off_c, 4, 66, 64
7, 55324, Note_on_c, 4, 57, 100
7, 55500, Note_off_c, 4, 57, 64
7, 55508, Note_on_c, 4, 59, 100
7, 55684, Note_off_c, 4, 59, 64
7, 55696, Note_on_c, 4, 59, 100
7, 55872, Note_off_c, 4, 59, 64
7, 55904, Note_on_c, 4, 57, 100
7, 56080, Note_off_c, 4, 57, 64
7, 56092, Note_on_c, 4, 59, 100
7, 56176, Note_off_c, 4, 59, 64
7, 56180, Note_on_c, 4, 60, 100
7, 56264, Note_off_c, 4, 60, 64
7, 56272, Note_on_c, 4, 59, 100
7, 56448, Note_off_c, 4, 59, 64
7, 56472, Note_on_c, 4, 71, 100
7, 56648, Note_off_c, 4, 71, 64
7, 56660, Note_on_c, 4, 67, 100
7, 56836, Note_off_c, 4, 67, 64
7, 56860, Note_on_c, 4, 62, 100
7, 57036, Note_off_c, 4, 62, 64
7, 57244, Note_on_c, 4, 62, 100
7, 57328, Note_off_c, 4, 62, 64
7, 57340, Note_on_c, 4, 60, 100
7, 57424, Note_off_c, 4, 60, 64
7, 57432, Note_on_c, 4, 62, 100
7, 57608, Note_off_c, 4, 62, 64
7, 57632, Note_on_c, 4, 67, 100
7, 57712, Note_off_c, 4, 67, 64
7, 57712, Note_on_c, 4, 66, 100
7, 57796, Note_off_c, 4, 66, 64
7, 57816, Note_on_c, 4, 67, 100
7, 57992, Note_off_c, 4, 67, 64
7, 59156, Note_on_c, 4, 62, 100
7, 59240, Note_off_c, 4, 62, 64
7, 59248, Note_on_c, 4, 60, 100
7, 59332, Note_off_c, 4, 60, 64
7, 59360, Note_on_c, 4, 62, 100
7, 59536, Note_off_c, 4, 62, 64
7, 59552, Note_on_c, 4, 55, 100
7, 59632, Note_off_c, 4, 55, 64
7, 59648, Note_on_c, 4, 54, 100
7, 59728, Note_off_c, 4, 54, 64
7, 59740, Note_on_c, 4, 55, 100
7, 59916, Note_off_c, 4, 55, 64
7, 59920, Note_on_c, 4, 67, 100
7, 60004, Note_off_c, 4, 67, 64
7, 60032, Note_on_c, 4, 66, 100
7, 60112, Note_off_c, 4, 66, 64
7, 60128, Note_on_c, 4, 67, 100
7, 60304, Note_off_c, 4, 67, 64
7, 60308, Note_on_c, 4, 55, 100
7, 60392, Note_off_c, 4, 55, 64
7, 60400, Note_on_c, 4, 57, 100
7, 60484, Note_off_c, 4, 57, 64
7, 60504, Note_on_c, 4, 59, 100
7, 60680, Note_off_c, 4, 59, 64
7, 60704, Note_on_c, 4, 61, 100
7, 60880, Note_off_c, 4, 61, 64
7, 60888, Note_on_c, 4, 62, 100
7, 61064, Note_off_c, 4, 62, 64
7, 61084, Note_on_c, 4, 69, 100
7, 61168, Note_off_c, 4, 69, 64
7, 61184, Note_on_c, 4, 67, 100
7, 61264, Note_off_c, 4, 67, 64
7, 61276, Note_on_c, 4, 69, 100
7, 61452, Note_off_c, 4, 69, 64
7, 61856, Note_on_c, 4, 57, 100
7, 61936, Note_off_c, 4, 57, 64
7, 61936, Note_on_c, 4, 55, 100
7, 62020, Note_off_c, 4, 55, 64
7, 62036, Note_on_c, 4, 57, 100
7, 62212, Note_off_c, 4, 57, 64
7, 62620, Note_on_c, 4, 62, 100
7, 62796, Note_off_c, 4, 62, 64
7, 62808, Note_on_c, 4, 57, 100
7, 62984, Note_off_c, 4, 57, 64
7, 62996, Note_on_c, 4, 54, 100
7, 63172, Note_off_c, 4, 54, 64
7, 63196, Note_on_c, 4, 62, 100
7, 63372, Note_off_c, 4, 62, 64
7, 63392, Note_on_c, 4, 64, 100
7, 63568, Note_on_c, 4, 64, 100
7, 63580, Note_off_c, 4, 64, 64
7, 63744, Note_off_c, 4, 64, 64
7, 63772, Note_on_c, 4, 62, 100
7, 63948, Note_off_c, 4, 62, 64
7, 63968, Note_on_c, 4, 67, 100
7, 64144, Note_off_c, 4, 67, 64
7, 64160, Note_on_c, 4, 55, 100
7, 64336, Note_off_c, 4, 55, 64
7, 64348, Note_on_c, 4, 55, 100
7, 64524, Note_off_c, 4, 55, 64
7, 64536, Note_on_c, 4, 67, 100
7, 64712, Note_off_c, 4, 67, 64
7, 64736, Note_on_c, 4, 67, 100
7, 64912, Note_off_c, 4, 67, 64
7, 64928, Note_on_c, 4, 55, 100
7, 65104, Note_off_c, 4, 55, 64
7, 65120, Note_on_c, 4, 55, 100
7, 65296, Note_off_c, 4, 55, 64
7, 65308, Note_on_c, 4, 67, 100
7, 65484, Note_off_c, 4, 67, 64
7, 65492, Note_on_c, 4, 67, 100
7, 65668, Note_off_c, 4, 67, 64
7, 65692, Note_on_c, 4, 55, 100
7, 65868, Note_off_c, 4, 55, 64
7, 65884, Note_on_c, 4, 55, 100
7, 66060, Note_off_c, 4, 55, 64
7, 66076, Note_on_c, 4, 64, 100
7, 66252, Note_off_c, 4, 64, 64
7, 66272, Note_on_c, 4, 62, 100
7, 66448, Note_off_c, 4, 62, 64
7, 66464, Note_on_c, 4, 64, 100
7, 66640, Note_off_c, 4, 64, 64
7, 66644, Note_on_c, 4, 66, 100
7, 66820, Note_off_c, 4, 66, 64
7, 66836, Note_on_c, 4, 62, 100
7, 66920, Note_off_c, 4, 62, 64
7, 66940, Note_on_c, 4, 64, 100
7, 67024, Note_off_c, 4, 64, 64
7, 67040, Note_on_c, 4, 66, 100
7, 67216, Note_off_c, 4, 66, 64
7, 67232, Note_on_c, 4, 67, 100
7, 67408, Note_off_c, 4, 67, 64
7, 67408, Note_on_c, 4, 69, 100
7, 67584, Note_off_c, 4, 69, 64
7, 67600, Note_on_c, 4, 66, 100
7, 67776, Note_off_c, 4, 66, 64
7, 67796, Note_on_c, 4, 62, 100
7, 67972, Note_off_c, 4, 62, 64
7, 68000, Note_on_c, 4, 64, 100
7, 68176, Note_off_c, 4, 64, 64
7, 68180, Note_on_c, 4, 66, 100
7, 68356, Note_off_c, 4, 66, 64
7, 68376, Note_on_c, 4, 62, 100
7, 68552, Note_off_c, 4, 62, 64
7, 68576, Note_on_c, 4, 67, 100
7, 68752, Note_off_c, 4, 67, 64
7, 68752, Note_on_c, 4, 66, 100
7, 68836, Note_off_c, 4, 66, 64
7, 68856, Note_on_c, 4, 64, 100
7, 68940, Note_off_c, 4, 64, 64
7, 68948, Note_on_c, 4, 62, 100
7, 69032, Note_off_c, 4, 62, 64
7, 69048, Note_on_c, 4, 60, 100
7, 69132, Note_off_c, 4, 60, 64
7, 69148, Note_on_c, 4, 59, 100
7, 69232, Note_off_c, 4, 59, 64
7, 69232, Note_on_c, 4, 57, 100
7, 69316, Note_off_c, 4, 57, 64
7, 69344, Note_on_c, 4, 59, 100
7, 69520, Note_off_c, 4, 59, 64
7, 69536, Note_on_c, 4, 57, 100
7, 69616, Note_off_c, 4, 57, 64
7, 69628, Note_on_c, 4, 55, 100
7, 69712, Note_off_c, 4, 55, 64
7, 69712, Note_on_c, 4, 62, 100
7, 69888, Note_off_c, 4, 62, 64
7, 69904, Note_on_c, 4, 50, 100
7, 70080, Note_off_c, 4, 50, 64
7, 70096, Note_on_c, 4, 67, 100
7, 70272, Note_off_c, 4, 67, 64
7, 70296, Note_on_c, 4, 66, 100
7, 70380, Note_off_c, 4, 66, 64
7, 70388, Note_on_c, 4, 64, 100
7, 70472, Note_off_c, 4, 64, 64
7, 70484, Note_on_c, 4, 62, 100
7, 70568, Note_off_c, 4, 62, 64
7, 70588, Note_on_c, 4, 60, 100
7, 70672, Note_off_c, 4, 60, 64
7, 70676, Note_on_c, 4, 59, 100
7, 70760, Note_off_c, 4, 59, 64
7, 70780, Note_on_c, 4, 57, 100
7, 70864, Note_off_c, 4, 57, 64
7, 70880, Note_on_c, 4, 55, 100
7, 71056, Note_on_c, 4, 55, 100
7, 71068, Note_off_c, 4, 55, 64
7, 71232, Note_off_c, 4, 55, 64
7, 71252, Note_on_c, 4, 55, 100
7, 71428, Note_off_c, 4, 55, 64
7, 71452, Note_on_c, 4, 55, 100
7, 71628, Note_off_c, 4, 55, 64
7, 71640, Note_on_c, 4, 55, 100
7, 71816, Note_off_c, 4, 55, 64
7, 71836, Note_on_c, 4, 55, 100
7, 72012, Note_off_c, 4, 55, 64
7, 72020, Note_on_c, 4, 55, 100
7, 72196, Note_off_c, 4, 55, 64
7, 72224, Note_on_c, 4, 55, 100
7, 72400, Note_on_c, 4, 55, 100
7, 72412, Note_off_c, 4, 55, 64
7, 72580, Note_off_c, 4, 55, 64
7, 72600, Note_on_c, 4, 55, 100
7, 72776, Note_off_c, 4, 55, 64
7, 72796, Note_on_c, 4, 55, 100
7, 72972, Note_off_c, 4, 55, 64
7, 72992, Note_on_c, 4, 55, 100
7, 73168, Note_off_c, 4, 55, 64
7, 73180, Note_on_c, 4, 55, 100
7, 73356, Note_off_c, 4, 55, 64
7, 73376, Note_on_c, 4, 55, 100
7, 73552, Note_off_c, 4, 55, 64
7, 73564, Note_on_c, 4, 55, 100
7, 73740, Note_off_c, 4, 55, 64
7, 73744, Note_on_c, 4, 55, 100
7, 73920, Note_off_c, 4, 55, 64
7, 73948, Note_on_c, 4, 55, 100
7, 74124, Note_off_c, 4, 55, 64
7, 74136, Note_on_c, 4, 55, 100
7, 74312, Note_off_c, 4, 55, 64
7, 74320, Note_on_c, 4, 55, 100
7, 74496, Note_off_c, 4, 55, 64
7, 74512, Note_on_c, 4, 55, 100
7, 74688, Note_off_c, 4, 55, 64
7, 74712, Note_on_c, 4, 55, 100
7, 74888, Note_off_c, 4, 55, 64
7, 74912, Note_on_c, 4, 55, 100
7, 75088, Note_off_c, 4, 55, 64
7, 75096, Note_on_c, 4, 55, 100
7, 75272, Note_off_c, 4, 55, 64
7, 75296, Note_on_c, 4, 55, 100
7, 75472, Note_off_c, 4, 55, 64
7, 75484, Note_on_c, 4, 55, 100
7, 75660, Note_off_c, 4, 55, 64
7, 75680, Note_on_c, 4, 55, 100
7, 75856, Note_off_c, 4, 55, 64
7, 75868, Note_on_c, 4, 55, 100
7, 76044, Note_off_c, 4, 55, 64
7, 76060, Note_on_c, 4, 57, 100
7, 76236, Note_off_c, 4, 57, 64
7, 76244, Note_on_c, 4, 57, 100
7, 76328, Note_off_c, 4, 57, 64
7, 76348, Note_on_c, 4, 74, 100
7, 76432, Note_off_c, 4, 74, 64
7, 76448, Note_on_c, 4, 73, 100
7, 76528, Note_off_c, 4, 73, 64
7, 76540, Note_on_c, 4, 71, 100
7, 76624, Note_off_c, 4, 71, 64
7, 76632, Note_on_c, 4, 69, 100
7, 76716, Note_off_c, 4, 69, 64
7, 76720, Note_on_c, 4, 67, 100
7, 76804, Note_off_c, 4, 67, 64
7, 76832, Note_on_c, 4, 66, 100
7, 76912, Note_off_c, 4, 66, 64
7, 76916, Note_on_c, 4, 64, 100
7, 77000, Note_off_c, 4, 64, 64
7, 77016, Note_on_c, 4, 63, 100
7, 77192, Note_off_c, 4, 63, 64
7, 77212, Note_on_c, 4, 63, 100
7, 77388, Note_off_c, 4, 63, 64
7, 77408, Note_on_c, 4, 63, 100
7, 77584, Note_on_c, 4, 63, 100
7, 77596, Note_off_c, 4, 63, 64
7, 77760, Note_off_c, 4, 63, 64
7, 77788, Note_on_c, 4, 66, 100
7, 77964, Note_off_c, 4, 66, 64
7, 77968, Note_on_c, 4, 66, 100
7, 78144, Note_off_c, 4, 66, 64
7, 78172, Note_on_c, 4, 66, 100
7, 78348, Note_off_c, 4, 66, 64
7, 78356, Note_on_c, 4, 66, 100
7, 78532, Note_off_c, 4, 66, 64
7, 78548, Note_on_c, 4, 69, 100
7, 78724, Note_off_c, 4, 69, 64
7, 78744, Note_on_c, 4, 69, 100
7, 78920, Note_off_c, 4, 69, 64
7, 78944, Note_on_c, 4, 69, 100
7, 79120, Note_off_c, 4, 69, 64
7, 79136, Note_on_c, 4, 69, 100
7, 79312, Note_off_c, 4, 69, 64
7, 79328, Note_on_c, 4, 69, 100
7, 79504, Note_off_c, 4, 69, 64
7, 79516, Note_on_c, 4, 69, 100
7, 79692, Note_off_c, 4, 69, 64
7, 79704, Note_on_c, 4, 69, 100
7, 79880, Note_off_c, 4, 69, 64
7, 79896, Note_on_c, 4, 69, 100
7, 80072, Note_off_c, 4, 69, 64
7, 80084, Note_on_c, 4, 63, 100
7, 80260, Note_off_c, 4, 63, 64
7, 80276, Note_on_c, 4, 63, 100
7, 80452, Note_off_c, 4, 63, 64
7, 80476, Note_on_c, 4, 63, 100
7, 80652, Note_off_c, 4, 63, 64
7, 80672, Note_on_c, 4, 63, 100
7, 80848, Note_off_c, 4, 63, 64
7, 80852, Note_on_c, 4, 59, 100
7, 81028, Note_off_c, 4, 59, 64
7, 81056, Note_on_c, 4, 59, 100
7, 81232, Note_on_c, 4, 59, 100
7, 81236, Note_off_c, 4, 59, 64
7, 81416, Note_off_c, 4, 59, 64
7, 81440, Note_on_c, 4, 59, 100
7, 81616, Note_off_c, 4, 59, 64
7, 81620, Note_on_c, 4, 59, 100
7, 81984, Note_off_c, 4, 59, 64
7, 82192, Note_on_c, 4, 64, 100
7, 82276, Note_off_c, 4, 64, 64
7, 82288, Note_on_c, 4, 63, 100
7, 82372, Note_off_c, 4, 63, 64
7, 82384, Note_on_c, 4, 64, 100
7, 82560, Note_off_c, 4, 64, 64
7, 82592, Note_on_c, 4, 59, 100
7, 82672, Note_off_c, 4, 59, 64
7, 82688, Note_on_c, 4, 57, 100
7, 82768, Note_off_c, 4, 57, 64
7, 82768, Note_on_c, 4, 59, 100
7, 82944, Note_off_c, 4, 59, 64
7, 83360, Note_on_c, 4, 52, 100
7, 83440, Note_off_c, 4, 52, 64
7, 83440, Note_on_c, 4, 54, 100
7, 83524, Note_off_c, 4, 54, 64
7, 83540, Note_on_c, 4, 55, 100
7, 83716, Note_off_c, 4, 55, 64
7, 83728, Note_on_c, 4, 57, 100
7, 83904, Note_off_c, 4, 57, 64
7, 83924, Note_on_c, 4, 59, 100
7, 84288, Note_off_c, 4, 59, 64
7, 84888, Note_on_c, 4, 69, 100
7, 84972, Note_off_c, 4, 69, 64
7, 84980, Note_on_c, 4, 67, 100
7, 85064, Note_off_c, 4, 67, 64
7, 85080, Note_on_c, 4, 69, 100
7, 85256, Note_off_c, 4, 69, 64
7, 85272, Note_on_c, 4, 72, 100
7, 85356, Note_off_c, 4, 72, 64
7, 85376, Note_on_c, 4, 71, 100
7, 85456, Note_off_c, 4, 71, 64
7, 85464, Note_on_c, 4, 72, 100
7, 85640, Note_off_c, 4, 72, 64
7, 85648, Note_on_c, 4, 63, 100
7, 85732, Note_off_c, 4, 63, 64
7, 85744, Note_on_c, 4, 61, 100
7, 85828, Note_off_c, 4, 61, 64
7, 85840, Note_on_c, 4, 63, 100
7, 86016, Note_off_c, 4, 63, 64
7, 86036, Note_on_c, 4, 71, 100
7, 86212, Note_off_c, 4, 71, 64
7, 86224, Note_on_c, 4, 67, 100
7, 86400, Note_off_c, 4, 67, 64
7, 86432, Note_on_c, 4, 66, 100
7, 86512, Note_off_c, 4, 66, 64
7, 86520, Note_on_c, 4, 64, 100
7, 86604, Note_off_c, 4, 64, 64
7, 86608, Note_on_c, 4, 66, 100
7, 86784, Note_off_c, 4, 66, 64
7, 86804, Note_on_c, 4, 64, 100
7, 86888, Note_off_c, 4, 64, 64
7, 86908, Note_on_c, 4, 63, 100
7, 86992, Note_off_c, 4, 63, 64
7, 87000, Note_on_c, 4, 72, 100
7, 87268, Note_off_c, 4, 72, 64
7, 87292, Note_on_c, 4, 71, 100
7, 87376, Note_off_c, 4, 71, 64
7, 87376, Note_on_c, 4, 69, 100
7, 87460, Note_off_c, 4, 69, 64
7, 87488, Note_on_c, 4, 67, 100
7, 87568, Note_off_c, 4, 67, 64
7, 87580, Note_on_c, 4, 66, 100
7, 87664, Note_off_c, 4, 66, 64
7, 87676, Note_on_c, 4, 64, 100
7, 87760, Note_off_c, 4, 64, 64
7, 87768, Note_on_c, 4, 66, 100
7, 87944, Note_off_c, 4, 66, 64
7, 87968, Note_on_c, 4, 71, 100
7, 88144, Note_off_c, 4, 71, 64
7, 88148, Note_on_c, 4, 69, 100
7, 88324, Note_off_c, 4, 69, 64
7, 88344, Note_on_c, 4, 67, 100
7, 88428, Note_off_c, 4, 67, 64
7, 88436, Note_on_c, 4, 66, 100
7, 88520, Note_off_c, 4, 66, 64
7, 88540, Note_on_c, 4, 67, 100
7, 88900, Note_off_c, 4, 67, 64
7, 89104, Note_on_c, 4, 78, 100
7, 89280, Note_off_c, 4, 78, 64
7, 89308, Note_on_c, 4, 67, 100
7, 89392, Note_off_c, 4, 67, 64
7, 89400, Note_on_c, 4, 71, 100
7, 89484, Note_off_c, 4, 71, 64
7, 89488, Note_on_c, 4, 64, 100
7, 89572, Note_off_c, 4, 64, 64
7, 89592, Note_on_c, 4, 66, 100
7, 89676, Note_off_c, 4, 66, 64
7, 89696, Note_on_c, 4, 67, 100
7, 89776, Note_off_c, 4, 67, 64
7, 89784, Note_on_c, 4, 69, 100
7, 89868, Note_off_c, 4, 69, 64
7, 89876, Note_on_c, 4, 71, 100
7, 89960, Note_off_c, 4, 71, 64
7, 89980, Note_on_c, 4, 69, 100
7, 90064, Note_off_c, 4, 69, 64
7, 90064, Note_on_c, 4, 67, 100
7, 90240, Note_off_c, 4, 67, 64
7, 90272, Note_on_c, 4, 76, 100
7, 90448, Note_off_c, 4, 76, 64
7, 90648, Note_on_c, 4, 75, 100
7, 90824, Note_off_c, 4, 75, 64
7, 90848, Note_on_c, 4, 76, 100
7, 91024, Note_off_c, 4, 76, 64
7, 91028, Note_on_c, 4, 71, 100
7, 91204, Note_off_c, 4, 71, 64
7, 91216, Note_on_c, 4, 64, 100
7, 91392, Note_off_c, 4, 64, 64
7, 91424, Note_on_c, 4, 68, 100
7, 91600, Note_off_c, 4, 68, 64
7, 91600, Note_on_c, 4, 61, 100
7, 91776, Note_off_c, 4, 61, 64
7, 91800, Note_on_c, 4, 64, 100
7, 91884, Note_off_c, 4, 64, 64
7, 91892, Note_on_c, 4, 62, 100
7, 91976, Note_off_c, 4, 62, 64
7, 91992, Note_on_c, 4, 64, 100
7, 92168, Note_off_c, 4, 64, 64
7, 92568, Note_on_c, 4, 64, 100
7, 92652, Note_off_c, 4, 64, 64
7, 92660, Note_on_c, 4, 62, 100
7, 92744, Note_off_c, 4, 62, 64
7, 92756, Note_on_c, 4, 64, 100
7, 92932, Note_off_c, 4, 64, 64
7, 93336, Note_on_c, 4, 64, 100
7, 93420, Note_off_c, 4, 64, 64
7, 93436, Note_on_c, 4, 62, 100
7, 93520, Note_off_c, 4, 62, 64
7, 93524, Note_on_c, 4, 64, 100
7, 93700, Note_off_c, 4, 64, 64
7, 94108, Note_on_c, 4, 64, 100
7, 94192, Note_off_c, 4, 64, 64
7, 94196, Note_on_c, 4, 66, 100
7, 94280, Note_off_c, 4, 66, 64
7, 94300, Note_on_c, 4, 67, 100
7, 94476, Note_off_c, 4, 67, 64
7, 94480, Note_on_c, 4, 64, 100
7, 94656, Note_off_c, 4, 64, 64
7, 94688, Note_on_c, 4, 66, 100
7, 95048, Note_off_c, 4, 66, 64
7, 95260, Note_on_c, 4, 66, 100
7, 95344, Note_off_c, 4, 66, 64
7, 95356, Note_on_c, 4, 67, 100
7, 95440, Note_off_c, 4, 67, 64
7, 95448, Note_on_c, 4, 69, 100
7, 95624, Note_off_c, 4, 69, 64
7, 96020, Note_on_c, 4, 66, 100
7, 96104, Note_off_c, 4, 66, 64
7, 96120, Note_on_c, 4, 67, 100
7, 96204, Note_off_c, 4, 67, 64
7, 96220, Note_on_c, 4, 69, 100
7, 96396, Note_off_c, 4, 69, 64
7, 96792, Note_on_c, 4, 66, 100
7, 96876, Note_off_c, 4, 66, 64
7, 96884, Note_on_c, 4, 67, 100
7, 96968, Note_off_c, 4, 67, 64
7, 96976, Note_on_c, 4, 69, 100
7, 97152, Note_off_c, 4, 69, 64
7, 98332, Note_on_c, 4, 54, 100
7, 98508, Note_off_c, 4, 54, 64
7, 98520, Note_on_c, 4, 55, 100
7, 98604, Note_off_c, 4, 55, 64
7, 98620, Note_on_c, 4, 62, 100
7, 98704, Note_off_c, 4, 62, 64
7, 98712, Note_on_c, 4, 55, 100
7, 98796, Note_off_c, 4, 55, 64
7, 98800, Note_on_c, 4, 57, 100
7, 98884, Note_off_c, 4, 57, 64
7, 98896, Note_on_c, 4, 59, 100
7, 98980, Note_off_c, 4, 59, 64
7, 99004, Note_on_c, 4, 60, 100
7, 99088, Note_off_c, 4, 60, 64
7, 99096, Note_on_c, 4, 62, 100
7, 99180, Note_off_c, 4, 62, 64
7, 99188, Note_on_c, 4, 60, 100
7, 99272, Note_off_c, 4, 60, 64
7, 99296, Note_on_c, 4, 59, 100
7, 99472, Note_off_c, 4, 59, 64
7, 99484, Note_on_c, 4, 62, 100
7, 99568, Note_off_c, 4, 62, 64
7, 99568, Note_on_c, 4, 60, 100
7, 99652, Note_off_c, 4, 60, 64
7, 99668, Note_on_c, 4, 62, 100
7, 99844, Note_off_c, 4, 62, 64
7, 100624, Note_on_c, 4, 67, 100
7, 100708, Note_off_c, 4, 67, 64
7, 100720, Note_on_c, 4, 66, 100
7, 100804, Note_off_c, 4, 66, 64
7, 100828, Note_on_c, 4, 67, 100
7, 101004, Note_off_c, 4, 67, 64
7, 101016, Note_on_c, 4, 59, 100
7, 101100, Note_off_c, 4, 59, 64
7, 101112, Note_on_c, 4, 60, 100
7, 101196, Note_off_c, 4, 60, 64
7, 101216, Note_on_c, 4, 62, 100
7, 101296, Note_off_c, 4, 62, 64
7, 101296, Note_on_c, 4, 69, 100
7, 101380, Note_off_c, 4, 69, 64
7, 101408, Note_on_c, 4, 67, 100
7, 101488, Note_off_c, 4, 67, 64
7, 101496, Note_on_c, 4, 66, 100
7, 101580, Note_off_c, 4, 66, 64
7, 101584, Note_on_c, 4, 64, 100
7, 101760, Note_off_c, 4, 64, 64
7, 101780, Note_on_c, 4, 64, 100
7, 101956, Note_off_c, 4, 64, 64
7, 101976, Note_on_c, 4, 64, 100
7, 102152, Note_off_c, 4, 64, 64
7, 102160, Note_on_c, 4, 64, 100
7, 102336, Note_off_c, 4, 64, 64
7, 102356, Note_on_c, 4, 64, 100
7, 102532, Note_off_c, 4, 64, 64
7, 102544, Note_on_c, 4, 64, 100
7, 102720, Note_off_c, 4, 64, 64
7, 102744, Note_on_c, 4, 64, 100
7, 102920, Note_off_c, 4, 64, 64
7, 102936, Note_on_c, 4, 64, 100
7, 103112, Note_off_c, 4, 64, 64
7, 103132, Note_on_c, 4, 64, 100
7, 103308, Note_off_c, 4, 64, 64
7, 103328, Note_on_c, 4, 64, 100
7, 103504, Note_off_c, 4, 64, 64
7, 103520, Note_on_c, 4, 64, 100
7, 103696, Note_off_c, 4, 64, 64
7, 103704, Note_on_c, 4, 64, 100
7, 103880, Note_off_c, 4, 64, 64
7, 103896, Note_on_c, 4, 64, 100
7, 104072, Note_off_c, 4, 64, 64
7, 104092, Note_on_c, 4, 64, 100
7, 104268, Note_off_c, 4, 64, 64
7, 104284, Note_on_c, 4, 64, 100
7, 104460, Note_off_c, 4, 64, 64
7, 104464, Note_on_c, 4, 64, 100
7, 104640, Note_off_c, 4, 64, 64
7, 104668, Note_on_c, 4, 58, 100
7, 104844, Note_off_c, 4, 58, 64
7, 104852, Note_on_c, 4, 58, 100
7, 105028, Note_off_c, 4, 58, 64
7, 105048, Note_on_c, 4, 58, 100
7, 105224, Note_off_c, 4, 58, 64
7, 105244, Note_on_c, 4, 58, 100
7, 105420, Note_off_c, 4, 58, 64
7, 105424, Note_on_c, 4, 54, 100
7, 105600, Note_off_c, 4, 54, 64
7, 105632, Note_on_c, 4, 54, 100
7, 105808, Note_off_c, 4, 54, 64
7, 105816, Note_on_c, 4, 54, 100
7, 105992, Note_off_c, 4, 54, 64
7, 106016, Note_on_c, 4, 54, 100
7, 106192, Note_off_c, 4, 54, 64
7, 106204, Note_on_c, 4, 59, 100
7, 106380, Note_off_c, 4, 59, 64
7, 106388, Note_on_c, 4, 71, 100
7, 106564, Note_off_c, 4, 71, 64
7, 106584, Note_on_c, 4, 66, 100
7, 106760, Note_off_c, 4, 66, 64
7, 106768, Note_on_c, 4, 62, 100
7, 106944, Note_off_c, 4, 62, 64
7, 106968, Note_on_c, 4, 66, 100
7, 107144, Note_off_c, 4, 66, 64
7, 107156, Note_on_c, 4, 71, 100
7, 107332, Note_off_c, 4, 71, 64
7, 107344, Note_on_c, 4, 66, 100
7, 107520, Note_off_c, 4, 66, 64
7, 107544, Note_on_c, 4, 62, 100
7, 107720, Note_off_c, 4, 62, 64
7, 107736, Note_on_c, 4, 71, 100
7, 107912, Note_off_c, 4, 71, 64
7, 107920, Note_on_c, 4, 74, 100
7, 108004, Note_off_c, 4, 74, 64
7, 108020, Note_on_c, 4, 73, 100
7, 108104, Note_off_c, 4, 73, 64
7, 108124, Note_on_c, 4, 71, 100
7, 108300, Note_off_c, 4, 71, 64
7, 108316, Note_on_c, 4, 69, 100
7, 108400, Note_off_c, 4, 69, 64
7, 108416, Note_on_c, 4, 67, 100
7, 108496, Note_off_c, 4, 67, 64
7, 108508, Note_on_c, 4, 66, 100
7, 108684, Note_off_c, 4, 66, 64
7, 108704, Note_on_c, 4, 64, 100
7, 108784, Note_off_c, 4, 64, 64
7, 108800, Note_on_c, 4, 62, 100
7, 108880, Note_off_c, 4, 62, 64
7, 108892, Note_on_c, 4, 61, 100
7, 109068, Note_off_c, 4, 61, 64
7, 109088, Note_on_c, 4, 70, 100
7, 109264, Note_off_c, 4, 70, 64
7, 109268, Note_on_c, 4, 71, 100
7, 109444, Note_off_c, 4, 71, 64
7, 109464, Note_on_c, 4, 59, 100
7, 109640, Note_off_c, 4, 59, 64
7, 109664, Note_on_c, 4, 59, 100
7, 109840, Note_off_c, 4, 59, 64
7, 109848, Note_on_c, 4, 71, 100
7, 110024, Note_off_c, 4, 71, 64
7, 110048, Note_on_c, 4, 71, 100
7, 110224, Note_off_c, 4, 71, 64
7, 110236, Note_on_c, 4, 59, 100
7, 110412, Note_off_c, 4, 59, 64
7, 110424, Note_on_c, 4, 59, 100
7, 110600, Note_off_c, 4, 59, 64
7, 110612, Note_on_c, 4, 71, 100
7, 110788, Note_off_c, 4, 71, 64
7, 110816, Note_on_c, 4, 66, 100
7, 110992, Note_off_c, 4, 66, 64
7, 110992, Note_on_c, 4, 64, 100
7, 111076, Note_off_c, 4, 64, 64
7, 111088, Note_on_c, 4, 62, 100
7, 111172, Note_off_c, 4, 62, 64
7, 111200, Note_on_c, 4, 64, 100
7, 111376, Note_off_c, 4, 64, 64
7, 111384, Note_on_c, 4, 62, 100
7, 111468, Note_off_c, 4, 62, 64
7, 111476, Note_on_c, 4, 61, 100
7, 111560, Note_off_c, 4, 61, 64
7, 111580, Note_on_c, 4, 67, 100
7, 111848, Note_off_c, 4, 67, 64
7, 111860, Note_on_c, 4, 66, 100
7, 111944, Note_off_c, 4, 66, 64
7, 111968, Note_on_c, 4, 64, 100
7, 112048, Note_off_c, 4, 64, 64
7, 112056, Note_on_c, 4, 62, 100
7, 112140, Note_off_c, 4, 62, 64
7, 112148, Note_on_c, 4, 61, 100
7, 112232, Note_off_c, 4, 61, 64
7, 112252, Note_on_c, 4, 59, 100
7, 112336, Note_off_c, 4, 59, 64
7, 112340, Note_on_c, 4, 66, 100
7, 112516, Note_off_c, 4, 66, 64
7, 112536, Note_on_c, 4, 64, 100
7, 112620, Note_off_c, 4, 64, 64
7, 112632, Note_on_c, 4, 62, 100
7, 112716, Note_off_c, 4, 62, 64
7, 112720, Note_on_c, 4, 61, 100
7, 112896, Note_off_c, 4, 61, 64
7, 112912, Note_on_c, 4, 61, 100
7, 113088, Note_off_c, 4, 61, 64
7, 113112, Note_on_c, 4, 62, 100
7, 113472, Note_off_c, 4, 62, 64
7, 114068, Note_on_c, 4, 62, 100
7, 114152, Note_off_c, 4, 62, 64
7, 114160, Note_on_c, 4, 61, 100
7, 114244, Note_off_c, 4, 61, 64
7, 114272, Note_on_c, 4, 62, 100
7, 114448, Note_off_c, 4, 62, 64
7, 114460, Note_on_c, 4, 66, 100
7, 114544, Note_off_c, 4, 66, 64
7, 114548, Note_on_c, 4, 64, 100
7, 114632, Note_off_c, 4, 64, 64
7, 114656, Note_on_c, 4, 66, 100
7, 114832, Note_off_c, 4, 66, 64
7, 115600, Note_on_c, 4, 62, 100
7, 115684, Note_off_c, 4, 62, 64
7, 115708, Note_on_c, 4, 64, 100
7, 115792, Note_off_c, 4, 64, 64
7, 115804, Note_on_c, 4, 62, 100
7, 115980, Note_off_c, 4, 62, 64
7, 115992, Note_on_c, 4, 67, 100
7, 116168, Note_off_c, 4, 67, 64
7, 116180, Note_on_c, 4, 67, 100
7, 116356, Note_off_c, 4, 67, 64
7, 116376, Note_on_c, 4, 66, 100
7, 116460, Note_off_c, 4, 66, 64
7, 116480, Note_on_c, 4, 68, 100
7, 116560, Note_off_c, 4, 68, 64
7, 116576, Note_on_c, 4, 66, 100
7, 116752, Note_off_c, 4, 66, 64
7, 116764, Note_on_c, 4, 66, 100
7, 116848, Note_off_c, 4, 66, 64
7, 116852, Note_on_c, 4, 61, 100
7, 116936, Note_off_c, 4, 61, 64
7, 116956, Note_on_c, 4, 66, 100
7, 117132, Note_off_c, 4, 66, 64
7, 117136, Note_on_c, 4, 59, 100
7, 117312, Note_off_c, 4, 59, 64
7, 117336, Note_on_c, 4, 66, 100
7, 117512, Note_off_c, 4, 66, 64
7, 117536, Note_on_c, 4, 61, 100
7, 117712, Note_off_c, 4, 61, 64
7, 117724, Note_on_c, 4, 62, 100
7, 118084, Note_off_c, 4, 62, 64
7, 118484, Note_on_c, 4, 55, 100
7, 118660, Note_off_c, 4, 55, 64
7, 118672, Note_on_c, 4, 54, 100
7, 118848, Note_off_c, 4, 54, 64
7, 118880, Note_on_c, 4, 55, 100
7, 119056, Note_off_c, 4, 55, 64
7, 119056, Note_on_c, 4, 57, 100
7, 119232, Note_off_c, 4, 57, 64
7, 119248, Note_on_c, 4, 59, 100
7, 119424, Note_off_c, 4, 59, 64
7, 119448, Note_on_c, 4, 60, 100
7, 119624, Note_off_c, 4, 60, 64
7, 119640, Note_on_c, 4, 59, 100
7, 119816, Note_off_c, 4, 59, 64
7, 119836, Note_on_c, 4, 57, 100
7, 120012, Note_off_c, 4, 57, 64
7, 120020, Note_on_c, 4, 55, 100
7, 120196, Note_off_c, 4, 55, 64
7, 120216, Note_on_c, 4, 54, 100
7, 120392, Note_off_c, 4, 54, 64
7, 120412, Note_on_c, 4, 52, 100
7, 120588, Note_off_c, 4, 52, 64
7, 120608, Note_on_c, 4, 57, 100
7, 120784, Note_off_c, 4, 57, 64
7, 120784, Note_on_c, 4, 62, 100
7, 120960, Note_off_c, 4, 62, 64
7, 120980, Note_on_c, 4, 50, 100
7, 121156, Note_off_c, 4, 50, 64
7, 121184, Note_on_c, 4, 54, 100
7, 121360, Note_off_c, 4, 54, 64
7, 121368, Note_on_c, 4, 57, 100
7, 121544, Note_off_c, 4, 57, 64
7, 121556, Note_on_c, 4, 62, 100
7, 121920, Note_off_c, 4, 62, 64
7, 127128, Note_on_c, 4, 59, 100
7, 127212, Note_off_c, 4, 59, 64
7, 127228, Note_on_c, 4, 60, 100
7, 127312, Note_off_c, 4, 60, 64
7, 127328, Note_on_c, 4, 62, 100
7, 127504, Note_off_c, 4, 62, 64
7, 128660, Note_on_c, 4, 55, 100
7, 128744, Note_off_c, 4, 55, 64
7, 128752, Note_on_c, 4, 57, 100
7, 128836, Note_off_c, 4, 57, 64
7, 128864, Note_on_c, 4, 59, 100
7, 129040, Note_off_c, 4, 59, 64
7, 130588, Note_on_c, 4, 67, 100
7, 130672, Note_off_c, 4, 67, 64
7, 130676, Note_on_c, 4, 66, 100
7, 130760, Note_off_c, 4, 66, 64
7, 130780, Note_on_c, 4, 67, 100
7, 130956, Note_off_c, 4, 67, 64
7, 130964, Note_on_c, 4, 59, 100
7, 131048, Note_off_c, 4, 59, 64
7, 131064, Note_on_c, 4, 57, 100
7, 131148, Note_off_c, 4, 57, 64
7, 131160, Note_on_c, 4, 59, 100
7, 131336, Note_off_c, 4, 59, 64
7, 131348, Note_on_c, 4, 67, 100
7, 131432, Note_off_c, 4, 67, 64
7, 131440, Note_on_c, 4, 66, 100
7, 131524, Note_off_c, 4, 66, 64
7, 131552, Note_on_c, 4, 67, 100
7, 131728, Note_off_c, 4, 67, 64
7, 131736, Note_on_c, 4, 55, 100
7, 131820, Note_off_c, 4, 55, 64
7, 131824, Note_on_c, 4, 54, 100
7, 131908, Note_off_c, 4, 54, 64
7, 131924, Note_on_c, 4, 55, 100
7, 132100, Note_off_c, 4, 55, 64
7, 132112, Note_on_c, 4, 67, 100
7, 132196, Note_off_c, 4, 67, 64
7, 132216, Note_on_c, 4, 66, 100
7, 132300, Note_off_c, 4, 66, 64
7, 132312, Note_on_c, 4, 67, 100
7, 132488, Note_off_c, 4, 67, 64
7, 132500, Note_on_c, 4, 55, 100
7, 132584, Note_off_c, 4, 55, 64
7, 132604, Note_on_c, 4, 57, 100
7, 132688, Note_off_c, 4, 57, 64
7, 132696, Note_on_c, 4, 59, 100
7, 132872, Note_off_c, 4, 59, 64
7, 132880, Note_on_c, 4, 61, 100
7, 133056, Note_off_c, 4, 61, 64
7, 133084, Note_on_c, 4, 62, 100
7, 133168, Note_off_c, 4, 62, 64
7, 133184, Note_on_c, 4, 69, 100
7, 133264, Note_off_c, 4, 69, 64
7, 133268, Note_on_c, 4, 66, 100
7, 133352, Note_off_c, 4, 66, 64
7, 133372, Note_on_c, 4, 69, 100
7, 133456, Note_off_c, 4, 69, 64
7, 133472, Note_on_c, 4, 66, 100
7, 133552, Note_off_c, 4, 66, 64
7, 133568, Note_on_c, 4, 69, 100
7, 133648, Note_off_c, 4, 69, 64
7, 133664, Note_on_c, 4, 66, 100
7, 133744, Note_off_c, 4, 66, 64
7, 133756, Note_on_c, 4, 69, 100
7, 133840, Note_off_c, 4, 69, 64
7, 133848, Note_on_c, 4, 59, 100
7, 133932, Note_off_c, 4, 59, 64
7, 133936, Note_on_c, 4, 67, 100
7, 134020, Note_off_c, 4, 67, 64
7, 134044, Note_on_c, 4, 59, 100
7, 134128, Note_off_c, 4, 59, 64
7, 134136, Note_on_c, 4, 67, 100
7, 134220, Note_off_c, 4, 67, 64
7, 134236, Note_on_c, 4, 59, 100
7, 134320, Note_off_c, 4, 59, 64
7, 134320, Note_on_c, 4, 67, 100
7, 134404, Note_off_c, 4, 67, 64
7, 134416, Note_on_c, 4, 59, 100
7, 134500, Note_off_c, 4, 59, 64
7, 134520, Note_on_c, 4, 67, 100
7, 134604, Note_off_c, 4, 67, 64
7, 134620, Note_on_c, 4, 60, 100
7, 134704, Note_off_c, 4, 60, 64
7, 134716, Note_on_c, 4, 67, 100
7, 134800, Note_off_c, 4, 67, 64
7, 134816, Note_on_c, 4, 60, 100
7, 134896, Note_off_c, 4, 60, 64
7, 134912, Note_on_c, 4, 67, 100
7, 134992, Note_off_c, 4, 67, 64
7, 135008, Note_on_c, 4, 60, 100
7, 135088, Note_off_c, 4, 60, 64
7, 135088, Note_on_c, 4, 67, 100
7, 135172, Note_off_c, 4, 67, 64
7, 135196, Note_on_c, 4, 60, 100
7, 135280, Note_off_c, 4, 60, 64
7, 135280, Note_on_c, 4, 67, 100
7, 135364, Note_off_c, 4, 67, 64
7, 135388, Note_on_c, 4, 61, 100
7, 135472, Note_off_c, 4, 61, 64
7, 135488, Note_on_c, 4, 66, 100
7, 135568, Note_off_c, 4, 66, 64
7, 135584, Note_on_c, 4, 61, 100
7, 135664, Note_off_c, 4, 61, 64
7, 135676, Note_on_c, 4, 66, 100
7, 135760, Note_off_c, 4, 66, 64
7, 135760, Note_on_c, 4, 61, 100
7, 135844, Note_off_c, 4, 61, 64
7, 135856, Note_on_c, 4, 66, 100
7, 135940, Note_off_c, 4, 66, 64
7, 135968, Note_on_c, 4, 61, 100
7, 136048, Note_off_c, 4, 61, 64
7, 136060, Note_on_c, 4, 66, 100
7, 136144, Note_off_c, 4, 66, 64
7, 136144, Note_on_c, 4, 63, 100
7, 136228, Note_off_c, 4, 63, 64
7, 136256, Note_on_c, 4, 66, 100
7, 136336, Note_off_c, 4, 66, 64
7, 136340, Note_on_c, 4, 63, 100
7, 136424, Note_off_c, 4, 63, 64
7, 136444, Note_on_c, 4, 66, 100
7, 136528, Note_off_c, 4, 66, 64
7, 136536, Note_on_c, 4, 63, 100
7, 136620, Note_off_c, 4, 63, 64
7, 136628, Note_on_c, 4, 66, 100
7, 136712, Note_off_c, 4, 66, 64
7, 136728, Note_on_c, 4, 63, 100
7, 136812, Note_off_c, 4, 63, 64
7, 136832, Note_on_c, 4, 66, 100
7, 136912, Note_off_c, 4, 66, 64
7, 136916, Note_on_c, 4, 59, 100
7, 137000, Note_off_c, 4, 59, 64
7, 137016, Note_on_c, 4, 64, 100
7, 137100, Note_off_c, 4, 64, 64
7, 137108, Note_on_c, 4, 59, 100
7, 137192, Note_off_c, 4, 59, 64
7, 137208, Note_on_c, 4, 64, 100
7, 137292, Note_off_c, 4, 64, 64
7, 137304, Note_on_c, 4, 59, 100
7, 137388, Note_off_c, 4, 59, 64
7, 137392, Note_on_c, 4, 64, 100
7, 137476, Note_off_c, 4, 64, 64
7, 137488, Note_on_c, 4, 59, 100
7, 137572, Note_off_c, 4, 59, 64
7, 137600, Note_on_c, 4, 64, 100
7, 137680, Note_off_c, 4, 64, 64
7, 137680, Note_on_c, 4, 60, 100
7, 137764, Note_off_c, 4, 60, 64
7, 137788, Note_on_c, 4, 64, 100
7, 137872, Note_off_c, 4, 64, 64
7, 137876, Note_on_c, 4, 60, 100
7, 137960, Note_off_c, 4, 60, 64
7, 137968, Note_on_c, 4, 64, 100
7, 138052, Note_off_c, 4, 64, 64
7, 138080, Note_on_c, 4, 60, 100
7, 138160, Note_off_c, 4, 60, 64
7, 138164, Note_on_c, 4, 64, 100
7, 138248, Note_off_c, 4, 64, 64
7, 138268, Note_on_c, 4, 60, 100
7, 138352, Note_off_c, 4, 60, 64
7, 138364, Note_on_c, 4, 64, 100
7, 138448, Note_off_c, 4, 64, 64
7, 138456, Note_on_c, 4, 62, 100
7, 138632, Note_off_c, 4, 62, 64
7, 138652, Note_on_c, 4, 62, 100
7, 138828, Note_off_c, 4, 62, 64
7, 138844, Note_on_c, 4, 62, 100
7, 139020, Note_off_c, 4, 62, 64
7, 139028, Note_on_c, 4, 62, 100
7, 139204, Note_off_c, 4, 62, 64
7, 139232, Note_on_c, 4, 62, 100
7, 139408, Note_off_c, 4, 62, 64
7, 139416, Note_on_c, 4, 62, 100
7, 139592, Note_off_c, 4, 62, 64
7, 139608, Note_on_c, 4, 62, 100
7, 139784, Note_off_c, 4, 62, 64
7, 139796, Note_on_c, 4, 62, 100
7, 139972, Note_off_c, 4, 62, 64
7, 139996, Note_on_c, 4, 63, 100
7, 140172, Note_off_c, 4, 63, 64
7, 140188, Note_on_c, 4, 63, 100
7, 140364, Note_off_c, 4, 63, 64
7, 140372, Note_on_c, 4, 63, 100
7, 140548, Note_off_c, 4, 63, 64
7, 140568, Note_on_c, 4, 63, 100
7, 140744, Note_off_c, 4, 63, 64
7, 140752, Note_on_c, 4, 63, 100
7, 140928, Note_off_c, 4, 63, 64
7, 140956, Note_on_c, 4, 63, 100
7, 141132, Note_off_c, 4, 63, 64
7, 141152, Note_on_c, 4, 63, 100
7, 141328, Note_off_c, 4, 63, 64
7, 141336, Note_on_c, 4, 63, 100
7, 141512, Note_off_c, 4, 63, 64
7, 141532, Note_on_c, 4, 64, 100
7, 141708, Note_off_c, 4, 64, 64
7, 141720, Note_on_c, 4, 64, 100
7, 141896, Note_off_c, 4, 64, 64
7, 141920, Note_on_c, 4, 64, 100
7, 142096, Note_off_c, 4, 64, 64
7, 142112, Note_on_c, 4, 64, 100
7, 142288, Note_off_c, 4, 64, 64
7, 142292, Note_on_c, 4, 64, 100
7, 142468, Note_off_c, 4, 64, 64
7, 142484, Note_on_c, 4, 64, 100
7, 142660, Note_off_c, 4, 64, 64
7, 142684, Note_on_c, 4, 64, 100
7, 142860, Note_off_c, 4, 64, 64
7, 142880, Note_on_c, 4, 64, 100
7, 143056, Note_off_c, 4, 64, 64
7, 143060, Note_on_c, 4, 63, 100
7, 143236, Note_off_c, 4, 63, 64
7, 143256, Note_on_c, 4, 63, 100
7, 143432, Note_off_c, 4, 63, 64
7, 143448, Note_on_c, 4, 63, 100
7, 143624, Note_off_c, 4, 63, 64
7, 143648, Note_on_c, 4, 63, 100
7, 143824, Note_on_c, 4, 63, 100
7, 143832, Note_off_c, 4, 63, 64
7, 144008, Note_off_c, 4, 63, 64
7, 144016, Note_on_c, 4, 63, 100
7, 144192, Note_off_c, 4, 63, 64
7, 144220, Note_on_c, 4, 63, 100
7, 144396, Note_off_c, 4, 63, 64
7, 144412, Note_on_c, 4, 63, 100
7, 144588, Note_off_c, 4, 63, 64
7, 144592, Note_on_c, 4, 64, 100
7, 144768, Note_off_c, 4, 64, 64
7, 144796, Note_on_c, 4, 64, 100
7, 144972, Note_off_c, 4, 64, 64
7, 144976, Note_on_c, 4, 64, 100
7, 145152, Note_off_c, 4, 64, 64
7, 145184, Note_on_c, 4, 64, 100
7, 145360, Note_off_c, 4, 64, 64
7, 145372, Note_on_c, 4, 64, 100
7, 145548, Note_off_c, 4, 64, 64
7, 145552, Note_on_c, 4, 64, 100
7, 145728, Note_off_c, 4, 64, 64
7, 145756, Note_on_c, 4, 64, 100
7, 145932, Note_off_c, 4, 64, 64
7, 145936, Note_on_c, 4, 64, 100
7, 146112, Note_off_c, 4, 64, 64
7, 146128, Note_on_c, 4, 64, 100
7, 146304, Note_off_c, 4, 64, 64
7, 146320, Note_on_c, 4, 64, 100
7, 146496, Note_off_c, 4, 64, 64
7, 146520, Note_on_c, 4, 64, 100
7, 146696, Note_off_c, 4, 64, 64
7, 146704, Note_on_c, 4, 64, 100
7, 146880, Note_off_c, 4, 64, 64
7, 146904, Note_on_c, 4, 64, 100
7, 147080, Note_off_c, 4, 64, 64
7, 147092, Note_on_c, 4, 64, 100
7, 147268, Note_off_c, 4, 64, 64
7, 147280, Note_on_c, 4, 64, 100
7, 147456, Note_off_c, 4, 64, 64
7, 147472, Note_on_c, 4, 64, 100
7, 147648, Note_off_c, 4, 64, 64
7, 147676, Note_on_c, 4, 64, 100
7, 147852, Note_off_c, 4, 64, 64
7, 148240, Note_on_c, 4, 57, 100
7, 148324, Note_off_c, 4, 57, 64
7, 148348, Note_on_c, 4, 56, 100
7, 148432, Note_off_c, 4, 56, 64
7, 148448, Note_on_c, 4, 57, 100
7, 148624, Note_off_c, 4, 57, 64
7, 148640, Note_on_c, 4, 53, 100
7, 148720, Note_off_c, 4, 53, 64
7, 148732, Note_on_c, 4, 52, 100
7, 148816, Note_off_c, 4, 52, 64
7, 148832, Note_on_c, 4, 53, 100
7, 149008, Note_off_c, 4, 53, 64
7, 149008, Note_on_c, 4, 69, 100
7, 149184, Note_off_c, 4, 69, 64
7, 149200, Note_on_c, 4, 62, 100
7, 149376, Note_off_c, 4, 62, 64
7, 149780, Note_on_c, 4, 55, 100
7, 149864, Note_off_c, 4, 55, 64
7, 149888, Note_on_c, 4, 54, 100
7, 149968, Note_off_c, 4, 54, 64
7, 149976, Note_on_c, 4, 55, 100
7, 150152, Note_off_c, 4, 55, 64
7, 150164, Note_on_c, 4, 52, 100
7, 150248, Note_off_c, 4, 52, 64
7, 150256, Note_on_c, 4, 50, 100
7, 150340, Note_off_c, 4, 50, 64
7, 150356, Note_on_c, 4, 52, 100
7, 150532, Note_off_c, 4, 52, 64
7, 150560, Note_on_c, 4, 67, 100
7, 150736, Note_off_c, 4, 67, 64
7, 150748, Note_on_c, 4, 60, 100
7, 150924, Note_off_c, 4, 60, 64
7, 151316, Note_on_c, 4, 53, 100
7, 151400, Note_off_c, 4, 53, 64
7, 151424, Note_on_c, 4, 52, 100
7, 151504, Note_off_c, 4, 52, 64
7, 151520, Note_on_c, 4, 53, 100
7, 151696, Note_off_c, 4, 53, 64
7, 151708, Note_on_c, 4, 50, 100
7, 151792, Note_off_c, 4, 50, 64
7, 151800, Note_on_c, 4, 49, 100
7, 151884, Note_off_c, 4, 49, 64
7, 151896, Note_on_c, 4, 50, 100
7, 152072, Note_off_c, 4, 50, 64
7, 152096, Note_on_c, 4, 65, 100
7, 152272, Note_off_c, 4, 65, 64
7, 152272, Note_on_c, 4, 59, 100
7, 152448, Note_off_c, 4, 59, 64
7, 152468, Note_on_c, 4, 62, 100
7, 152552, Note_off_c, 4, 62, 64
7, 152576, Note_on_c, 4, 64, 100
7, 152656, Note_off_c, 4, 64, 64
7, 152668, Note_on_c, 4, 62, 100
7, 152844, Note_off_c, 4, 62, 64
7, 152864, Note_on_c, 4, 68, 100
7, 152944, Note_off_c, 4, 68, 64
7, 152952, Note_on_c, 4, 69, 100
7, 153036, Note_off_c, 4, 69, 64
7, 153044, Note_on_c, 4, 68, 100
7, 153220, Note_off_c, 4, 68, 64
7, 153236, Note_on_c, 4, 71, 100
7, 153320, Note_off_c, 4, 71, 64
7, 153344, Note_on_c, 4, 72, 100
7, 153424, Note_off_c, 4, 72, 64
7, 153440, Note_on_c, 4, 71, 100
7, 153616, Note_off_c, 4, 71, 64
7, 153628, Note_on_c, 4, 64, 100
7, 153804, Note_off_c, 4, 64, 64
7, 153812, Note_on_c, 4, 64, 100
7, 153988, Note_off_c, 4, 64, 64
7, 154004, Note_on_c, 4, 62, 100
7, 154180, Note_off_c, 4, 62, 64
7, 154192, Note_on_c, 4, 62, 100
7, 154368, Note_off_c, 4, 62, 64
7, 154392, Note_on_c, 4, 62, 100
7, 154568, Note_off_c, 4, 62, 64
7, 154584, Note_on_c, 4, 60, 100
7, 154668, Note_off_c, 4, 60, 64
7, 154688, Note_on_c, 4, 62, 100
7, 154768, Note_off_c, 4, 62, 64
7, 154768, Note_on_c, 4, 64, 100
7, 154852, Note_off_c, 4, 64, 64
7, 154868, Note_on_c, 4, 65, 100
7, 154952, Note_off_c, 4, 65, 64
7, 154964, Note_on_c, 4, 64, 100
7, 155048, Note_off_c, 4, 64, 64
7, 155064, Note_on_c, 4, 69, 100
7, 155148, Note_off_c, 4, 69, 64
7, 155168, Note_on_c, 4, 68, 100
7, 155248, Note_off_c, 4, 68, 64
7, 155248, Note_on_c, 4, 71, 100
7, 155332, Note_off_c, 4, 71, 64
7, 155352, Note_on_c, 4, 69, 100
7, 155436, Note_off_c, 4, 69, 64
7, 155452, Note_on_c, 4, 68, 100
7, 155536, Note_off_c, 4, 68, 64
7, 155548, Note_on_c, 4, 69, 100
7, 155632, Note_off_c, 4, 69, 64
7, 155648, Note_on_c, 4, 71, 100
7, 155728, Note_off_c, 4, 71, 64
7, 155736, Note_on_c, 4, 69, 100
7, 155820, Note_off_c, 4, 69, 64
7, 155828, Note_on_c, 4, 72, 100
7, 155912, Note_off_c, 4, 72, 64
7, 155928, Note_on_c, 4, 71, 100
7, 156012, Note_off_c, 4, 71, 64
7, 156032, Note_on_c, 4, 74, 100
7, 156112, Note_off_c, 4, 74, 64
7, 156124, Note_on_c, 4, 72, 100
7, 156208, Note_off_c, 4, 72, 64
7, 156220, Note_on_c, 4, 71, 100
7, 156304, Note_off_c, 4, 71, 64
7, 156304, Note_on_c, 4, 72, 100
7, 156388, Note_off_c, 4, 72, 64
7, 156404, Note_on_c, 4, 74, 100
7, 156488, Note_off_c, 4, 74, 64
7, 156496, Note_on_c, 4, 72, 100
7, 156580, Note_off_c, 4, 72, 64
7, 156600, Note_on_c, 4, 74, 100
7, 156684, Note_off_c, 4, 74, 64
7, 156692, Note_on_c, 4, 72, 100
7, 156776, Note_off_c, 4, 72, 64
7, 156788, Note_on_c, 4, 71, 100
7, 156872, Note_off_c, 4, 71, 64
7, 156880, Note_on_c, 4, 69, 100
7, 156964, Note_off_c, 4, 69, 64
7, 156984, Note_on_c, 4, 71, 100
7, 157068, Note_off_c, 4, 71, 64
7, 157080, Note_on_c, 4, 69, 100
7, 157164, Note_off_c, 4, 69, 64
7, 157168, Note_on_c, 4, 68, 100
7, 157252, Note_off_c, 4, 68, 64
7, 157280, Note_on_c, 4, 69, 100
7, 157456, Note_off_c, 4, 69, 64
7, 157464, Note_on_c, 4, 66, 100
7, 157640, Note_off_c, 4, 66, 64
7, 157664, Note_on_c, 4, 64, 100
7, 157840, Note_off_c, 4, 64, 64
7, 157848, Note_on_c, 4, 59, 100
7, 158024, Note_off_c, 4, 59, 64
7, 158224, Note_on_c, 4, 64, 100
7, 158400, Note_off_c, 4, 64, 64
7, 158432, Note_on_c, 4, 67, 100
7, 158608, Note_off_c, 4, 67, 64
7, 158624, Note_on_c, 4, 71, 100
7, 158800, Note_off_c, 4, 71, 64
7, 158804, Note_on_c, 4, 67, 100
7, 158980, Note_off_c, 4, 67, 64
7, 159008, Note_on_c, 4, 64, 100
7, 159184, Note_off_c, 4, 64, 64
7, 159192, Note_on_c, 4, 67, 100
7, 159368, Note_off_c, 4, 67, 64
7, 159388, Note_on_c, 4, 71, 100
7, 159564, Note_off_c, 4, 71, 64
7, 159568, Note_on_c, 4, 67, 100
7, 159744, Note_off_c, 4, 67, 64
7, 159768, Note_on_c, 4, 64, 100
7, 159944, Note_off_c, 4, 64, 64
7, 159960, Note_on_c, 4, 71, 100
7, 160136, Note_off_c, 4, 71, 64
7, 160152, Note_on_c, 4, 71, 100
7, 160236, Note_off_c, 4, 71, 64
7, 160252, Note_on_c, 4, 71, 100
7, 160336, Note_off_c, 4, 71, 64
7, 160352, Note_on_c, 4, 71, 100
7, 160528, Note_off_c, 4, 71, 64
7, 160916, Note_on_c, 4, 59, 100
7, 161000, Note_off_c, 4, 59, 64
7, 161024, Note_on_c, 4, 57, 100
7, 161104, Note_off_c, 4, 57, 64
7, 161120, Note_on_c, 4, 59, 100
7, 161200, Note_off_c, 4, 59, 64
7, 161216, Note_on_c, 4, 60, 100
7, 161296, Note_off_c, 4, 60, 64
7, 161296, Note_on_c, 4, 59, 100
7, 161380, Note_off_c, 4, 59, 64
7, 161400, Note_on_c, 4, 57, 100
7, 161484, Note_off_c, 4, 57, 64
7, 161500, Note_on_c, 4, 55, 100
7, 161584, Note_off_c, 4, 55, 64
7, 161592, Note_on_c, 4, 54, 100
7, 161676, Note_off_c, 4, 54, 64
7, 161688, Note_on_c, 4, 55, 100
7, 161772, Note_off_c, 4, 55, 64
7, 161776, Note_on_c, 4, 57, 100
7, 161860, Note_off_c, 4, 57, 64
7, 161872, Note_on_c, 4, 55, 100
7, 161956, Note_off_c, 4, 55, 64
7, 161980, Note_on_c, 4, 59, 100
7, 162064, Note_off_c, 4, 59, 64
7, 162064, Note_on_c, 4, 57, 100
7, 162148, Note_off_c, 4, 57, 64
7, 162160, Note_on_c, 4, 60, 100
7, 162244, Note_off_c, 4, 60, 64
7, 162260, Note_on_c, 4, 59, 100
7, 162344, Note_off_c, 4, 59, 64
7, 162368, Note_on_c, 4, 57, 100
7, 162448, Note_off_c, 4, 57, 64
7, 162452, Note_on_c, 4, 59, 100
7, 162536, Note_off_c, 4, 59, 64
7, 162552, Note_on_c, 4, 60, 100
7, 162636, Note_off_c, 4, 60, 64
7, 162644, Note_on_c, 4, 59, 100
7, 162728, Note_off_c, 4, 59, 64
7, 162740, Note_on_c, 4, 62, 100
7, 162824, Note_off_c, 4, 62, 64
7, 162840, Note_on_c, 4, 60, 100
7, 162924, Note_off_c, 4, 60, 64
7, 162928, Note_on_c, 4, 64, 100
7, 163012, Note_off_c, 4, 64, 64
7, 163028, Note_on_c, 4, 62, 100
7, 163112, Note_off_c, 4, 62, 64
7, 163136, Note_on_c, 4, 64, 100
7, 163216, Note_off_c, 4, 64, 64
7, 163220, Note_on_c, 4, 62, 100
7, 163304, Note_off_c, 4, 62, 64
7, 163312, Note_on_c, 4, 60, 100
7, 163396, Note_off_c, 4, 60, 64
7, 163420, Note_on_c, 4, 59, 100
7, 163504, Note_off_c, 4, 59, 64
7, 163508, Note_on_c, 4, 67, 100
7, 163592, Note_off_c, 4, 67, 64
7, 163612, Note_on_c, 4, 66, 100
7, 163696, Note_off_c, 4, 66, 64
7, 163708, Note_on_c, 4, 64, 100
7, 163792, Note_off_c, 4, 64, 64
7, 163800, Note_on_c, 4, 62, 100
7, 163884, Note_off_c, 4, 62, 64
7, 163888, Note_on_c, 4, 74, 100
7, 163972, Note_off_c, 4, 74, 64
7, 163988, Note_on_c, 4, 73, 100
7, 164072, Note_off_c, 4, 73, 64
7, 164096, Note_on_c, 4, 71, 100
7, 164176, Note_off_c, 4, 71, 64
7, 164188, Note_on_c, 4, 69, 100
7, 164272, Note_off_c, 4, 69, 64
7, 164288, Note_on_c, 4, 71, 100
7, 164368, Note_off_c, 4, 71, 64
7, 164380, Note_on_c, 4, 69, 100
7, 164464, Note_off_c, 4, 69, 64
7, 164464, Note_on_c, 4, 67, 100
7, 164548, Note_off_c, 4, 67, 64
7, 164576, Note_on_c, 4, 66, 100
7, 164752, Note_off_c, 4, 66, 64
7, 164764, Note_on_c, 4, 66, 100
7, 164940, Note_off_c, 4, 66, 64
7, 164948, Note_on_c, 4, 66, 100
7, 165124, Note_off_c, 4, 66, 64
7, 165148, Note_on_c, 4, 66, 100
7, 165324, Note_off_c, 4, 66, 64
7, 165340, Note_on_c, 4, 66, 100
7, 165516, Note_off_c, 4, 66, 64
7, 165532, Note_on_c, 4, 66, 100
7, 165708, Note_off_c, 4, 66, 64
7, 165716, Note_on_c, 4, 66, 100
7, 165892, Note_off_c, 4, 66, 64
7, 165912, Note_on_c, 4, 66, 100
7, 166088, Note_off_c, 4, 66, 64
7, 166108, Note_on_c, 4, 67, 100
7, 166284, Note_off_c, 4, 67, 64
7, 166292, Note_on_c, 4, 62, 100
7, 166468, Note_off_c, 4, 62, 64
7, 166492, Note_on_c, 4, 62, 100
7, 166668, Note_off_c, 4, 62, 64
7, 166688, Note_on_c, 4, 62, 100
7, 166864, Note_on_c, 4, 62, 100
7, 166872, Note_off_c, 4, 62, 64
7, 167048, Note_off_c, 4, 62, 64
7, 167056, Note_on_c, 4, 62, 100
7, 167232, Note_off_c, 4, 62, 64
7, 167248, Note_on_c, 4, 62, 100
7, 167424, Note_off_c, 4, 62, 64
7, 167452, Note_on_c, 4, 62, 100
7, 167628, Note_off_c, 4, 62, 64
7, 167644, Note_on_c, 4, 64, 100
7, 167820, Note_off_c, 4, 64, 64
7, 167840, Note_on_c, 4, 64, 100
7, 168016, Note_on_c, 4, 64, 100
7, 168024, Note_off_c, 4, 64, 64
7, 168200, Note_off_c, 4, 64, 64
7, 168224, Note_on_c, 4, 64, 100
7, 168400, Note_off_c, 4, 64, 64
7, 168404, Note_on_c, 4, 64, 100
7, 168580, Note_off_c, 4, 64, 64
7, 168600, Note_on_c, 4, 64, 100
7, 168776, Note_off_c, 4, 64, 64
7, 168800, Note_on_c, 4, 64, 100
7, 168976, Note_off_c, 4, 64, 64
7, 168980, Note_on_c, 4, 64, 100
7, 169156, Note_off_c, 4, 64, 64
7, 169172, Note_on_c, 4, 73, 100
7, 169256, Note_off_c, 4, 73, 64
7, 169272, Note_on_c, 4, 71, 100
7, 169356, Note_off_c, 4, 71, 64
7, 169364, Note_on_c, 4, 73, 100
7, 169540, Note_off_c, 4, 73, 64
7, 169940, Note_on_c, 4, 73, 100
7, 170024, Note_off_c, 4, 73, 64
7, 170048, Note_on_c, 4, 71, 100
7, 170128, Note_off_c, 4, 71, 64
7, 170144, Note_on_c, 4, 73, 100
7, 170320, Note_off_c, 4, 73, 64
7, 170704, Note_on_c, 4, 63, 100
7, 170788, Note_off_c, 4, 63, 64
7, 170812, Note_on_c, 4, 62, 100
7, 170896, Note_off_c, 4, 62, 64
7, 170900, Note_on_c, 4, 63, 100
7, 170984, Note_off_c, 4, 63, 64
7, 171008, Note_on_c, 4, 72, 100
7, 171088, Note_off_c, 4, 72, 64
7, 171088, Note_on_c, 4, 69, 100
7, 171172, Note_off_c, 4, 69, 64
7, 171188, Note_on_c, 4, 66, 100
7, 171272, Note_off_c, 4, 66, 64
7, 171288, Note_on_c, 4, 63, 100
7, 171372, Note_off_c, 4, 63, 64
7, 171392, Note_on_c, 4, 60, 100
7, 171472, Note_off_c, 4, 60, 64
7, 171476, Note_on_c, 4, 63, 100
7, 171560, Note_off_c, 4, 63, 64
7, 171572, Note_on_c, 4, 62, 100
7, 171656, Note_off_c, 4, 62, 64
7, 171676, Note_on_c, 4, 63, 100
7, 171760, Note_off_c, 4, 63, 64
7, 171764, Note_on_c, 4, 72, 100
7, 171848, Note_off_c, 4, 72, 64
7, 171872, Note_on_c, 4, 69, 100
7, 171952, Note_off_c, 4, 69, 64
7, 171964, Note_on_c, 4, 66, 100
7, 172048, Note_off_c, 4, 66, 64
7, 172060, Note_on_c, 4, 63, 100
7, 172144, Note_off_c, 4, 63, 64
7, 172152, Note_on_c, 4, 60, 100
7, 172236, Note_off_c, 4, 60, 64
7, 172256, Note_on_c, 4, 59, 100
7, 172336, Note_off_c, 4, 59, 64
7, 172340, Note_on_c, 4, 57, 100
7, 172424, Note_off_c, 4, 57, 64
7, 172440, Note_on_c, 4, 59, 100
7, 172524, Note_off_c, 4, 59, 64
7, 172532, Note_on_c, 4, 68, 100
7, 172616, Note_off_c, 4, 68, 64
7, 172640, Note_on_c, 4, 65, 100
7, 172720, Note_off_c, 4, 65, 64
7, 172732, Note_on_c, 4, 62, 100
7, 172816, Note_off_c, 4, 62, 64
7, 172832, Note_on_c, 4, 59, 100
7, 172912, Note_off_c, 4, 59, 64
7, 172924, Note_on_c, 4, 53, 100
7, 173008, Note_off_c, 4, 53, 64
7, 173008, Note_on_c, 4, 59, 100
7, 173092, Note_off_c, 4, 59, 64
7, 173120, Note_on_c, 4, 57, 100
7, 173200, Note_off_c, 4, 57, 64
7, 173204, Note_on_c, 4, 59, 100
7, 173288, Note_off_c, 4, 59, 64
7, 173296, Note_on_c, 4, 68, 100
7, 173380, Note_off_c, 4, 68, 64
7, 173408, Note_on_c, 4, 65, 100
7, 173488, Note_off_c, 4, 65, 64
7, 173492, Note_on_c, 4, 62, 100
7, 173576, Note_off_c, 4, 62, 64
7, 173596, Note_on_c, 4, 59, 100
7, 173680, Note_off_c, 4, 59, 64
7, 173680, Note_on_c, 4, 53, 100
7, 173764, Note_off_c, 4, 53, 64
7, 174164, Note_on_c, 4, 67, 100
7, 174248, Note_off_c, 4, 67, 64
7, 174264, Note_on_c, 4, 69, 100
7, 174348, Note_off_c, 4, 69, 64
7, 174360, Note_on_c, 4, 67, 100
7, 174536, Note_off_c, 4, 67, 64
7, 174944, Note_on_c, 4, 67, 100
7, 175024, Note_off_c, 4, 67, 64
7, 175040, Note_on_c, 4, 69, 100
7, 175120, Note_off_c, 4, 69, 64
7, 175120, Note_on_c, 4, 67, 100
7, 175296, Note_off_c, 4, 67, 64
7, 175704, Note_on_c, 4, 67, 100
7, 175788, Note_off_c, 4, 67, 64
7, 175804, Note_on_c, 4, 69, 100
7, 175888, Note_off_c, 4, 69, 64
7, 175904, Note_on_c, 4, 67, 100
7, 176080, Note_off_c, 4, 67, 64
7, 176472, Note_on_c, 4, 67, 100
7, 176556, Note_off_c, 4, 67, 64
7, 176564, Note_on_c, 4, 69, 100
7, 176648, Note_off_c, 4, 69, 64
7, 176668, Note_on_c, 4, 67, 100
7, 176844, Note_off_c, 4, 67, 64
7, 177244, Note_on_c, 4, 67, 100
7, 177328, Note_off_c, 4, 67, 64
7, 177336, Note_on_c, 4, 69, 100
7, 177420, Note_off_c, 4, 69, 64
7, 177428, Note_on_c, 4, 67, 100
7, 177604, Note_off_c, 4, 67, 64
7, 178000, Note_on_c, 4, 67, 100
7, 178084, Note_off_c, 4, 67, 64
7, 178104, Note_on_c, 4, 69, 100
7, 178188, Note_off_c, 4, 69, 64
7, 178200, Note_on_c, 4, 67, 100
7, 178376, Note_off_c, 4, 67, 64
7, 178772, Note_on_c, 4, 67, 100
7, 178856, Note_off_c, 4, 67, 64
7, 178880, Note_on_c, 4, 69, 100
7, 178960, Note_off_c, 4, 69, 64
7, 178968, Note_on_c, 4, 67, 100
7, 179144, Note_off_c, 4, 67, 64
7, 179536, Note_on_c, 4, 67, 100
7, 179620, Note_off_c, 4, 67, 64
7, 179644, Note_on_c, 4, 69, 100
7, 179728, Note_off_c, 4, 69, 64
7, 179736, Note_on_c, 4, 67, 100
7, 179912, Note_off_c, 4, 67, 64
7, 180312, Note_on_c, 4, 66, 100
7, 180396, Note_off_c, 4, 66, 64
7, 180400, Note_on_c, 4, 67, 100
7, 180484, Note_off_c, 4, 67, 64
7, 180512, Note_on_c, 4, 66, 100
7, 180688, Note_off_c, 4, 66, 64
7, 181088, Note_on_c, 4, 66, 100
7, 181168, Note_off_c, 4, 66, 64
7, 181168, Note_on_c, 4, 67, 100
7, 181252, Note_off_c, 4, 67, 64
7, 181264, Note_on_c, 4, 62, 100
7, 181440, Note_off_c, 4, 62, 64
7, 181464, Note_on_c, 4, 62, 100
7, 181640, Note_off_c, 4, 62, 64
7, 182048, Note_on_c, 4, 55, 100
7, 182128, Note_off_c, 4, 55, 64
7, 182128, Note_on_c, 4, 54, 100
7, 182212, Note_off_c, 4, 54, 64
7, 182232, Note_on_c, 4, 55, 100
7, 182408, Note_off_c, 4, 55, 64
7, 182424, Note_on_c, 4, 51, 100
7, 182508, Note_off_c, 4, 51, 64
7, 182512, Note_on_c, 4, 50, 100
7, 182596, Note_off_c, 4, 50, 64
7, 182620, Note_on_c, 4, 51, 100
7, 182796, Note_off_c, 4, 51, 64
7, 182812, Note_on_c, 4, 67, 100
7, 182988, Note_off_c, 4, 67, 64
7, 183000, Note_on_c, 4, 60, 100
7, 183176, Note_off_c, 4, 60, 64
7, 183584, Note_on_c, 4, 53, 100
7, 183664, Note_off_c, 4, 53, 64
7, 183668, Note_on_c, 4, 52, 100
7, 183752, Note_off_c, 4, 52, 64
7, 183764, Note_on_c, 4, 53, 100
7, 183940, Note_off_c, 4, 53, 64
7, 183952, Note_on_c, 4, 50, 100
7, 184036, Note_off_c, 4, 50, 64
7, 184064, Note_on_c, 4, 48, 100
7, 184144, Note_off_c, 4, 48, 64
7, 184152, Note_on_c, 4, 50, 100
7, 184328, Note_off_c, 4, 50, 64
7, 184344, Note_on_c, 4, 65, 100
7, 184520, Note_off_c, 4, 65, 64
7, 184536, Note_on_c, 4, 58, 100
7, 184712, Note_off_c, 4, 58, 64
7, 185112, Note_on_c, 4, 51, 100
7, 185196, Note_off_c, 4, 51, 64
7, 185204, Note_on_c, 4, 50, 100
7, 185288, Note_off_c, 4, 50, 64
7, 185300, Note_on_c, 4, 51, 100
7, 185476, Note_off_c, 4, 51, 64
7, 185500, Note_on_c, 4, 48, 100
7, 185584, Note_off_c, 4, 48, 64
7, 185588, Note_on_c, 4, 50, 100
7, 185672, Note_off_c, 4, 50, 64
7, 185684, Note_on_c, 4, 48, 100
7, 185860, Note_off_c, 4, 48, 64
7, 185880, Note_on_c, 4, 63, 100
7, 186056, Note_off_c, 4, 63, 64
7, 186064, Note_on_c, 4, 57, 100
7, 186428, Note_off_c, 4, 57, 64
7, 186648, Note_on_c, 4, 62, 100
7, 186824, Note_off_c, 4, 62, 64
7, 186832, Note_on_c, 4, 57, 100
7, 186916, Note_off_c, 4, 57, 64
7, 186936, Note_on_c, 4, 60, 100
7, 187020, Note_off_c, 4, 60, 64
7, 187032, Note_on_c, 4, 54, 100
7, 187116, Note_off_c, 4, 54, 64
7, 187124, Note_on_c, 4, 55, 100
7, 187208, Note_off_c, 4, 55, 64
7, 187224, Note_on_c, 4, 57, 100
7, 187308, Note_off_c, 4, 57, 64
7, 187328, Note_on_c, 4, 58, 100
7, 187408, Note_off_c, 4, 58, 64
7, 187408, Note_on_c, 4, 60, 100
7, 187492, Note_off_c, 4, 60, 64
7, 187516, Note_on_c, 4, 62, 100
7, 187600, Note_off_c, 4, 62, 64
7, 187612, Note_on_c, 4, 63, 100
7, 187972, Note_off_c, 4, 63, 64
7, 188188, Note_on_c, 4, 57, 100
7, 188364, Note_off_c, 4, 57, 64
7, 188384, Note_on_c, 4, 58, 100
7, 188744, Note_off_c, 4, 58, 64
7, 188956, Note_on_c, 4, 69, 100
7, 189040, Note_off_c, 4, 69, 64
7, 189040, Note_on_c, 4, 67, 100
7, 189124, Note_off_c, 4, 67, 64
7, 189152, Note_on_c, 4, 69, 100
7, 189328, Note_off_c, 4, 69, 64
7, 189728, Note_on_c, 4, 66, 100
7, 189808, Note_off_c, 4, 66, 64
7, 189820, Note_on_c, 4, 64, 100
7, 189904, Note_off_c, 4, 64, 64
7, 189912, Note_on_c, 4, 62, 100
7, 190088, Note_off_c, 4, 62, 64
7, 190488, Note_on_c, 4, 74, 100
7, 190664, Note_off_c, 4, 74, 64
7, 190688, Note_on_c, 4, 75, 100
7, 190956, Note_off_c, 4, 75, 64
7, 190972, Note_on_c, 4, 74, 100
7, 191056, Note_off_c, 4, 74, 64
7, 191060, Note_on_c, 4, 72, 100
7, 191144, Note_off_c, 4, 72, 64
7, 191160, Note_on_c, 4, 70, 100
7, 191244, Note_off_c, 4, 70, 64
7, 191252, Note_on_c, 4, 69, 100
7, 191336, Note_off_c, 4, 69, 64
7, 191356, Note_on_c, 4, 67, 100
7, 191440, Note_off_c, 4, 67, 64
7, 191448, Note_on_c, 4, 69, 100
7, 191624, Note_off_c, 4, 69, 64
7, 191640, Note_on_c, 4, 62, 100
7, 191816, Note_off_c, 4, 62, 64
7, 191832, Note_on_c, 4, 60, 100
7, 192008, Note_off_c, 4, 60, 64
7, 192028, Note_on_c, 4, 59, 100
7, 192112, Note_off_c, 4, 59, 64
7, 192116, Note_on_c, 4, 57, 100
7, 192200, Note_off_c, 4, 57, 64
7, 192216, Note_on_c, 4, 59, 100
7, 192392, Note_off_c, 4, 59, 64
7, 192408, Note_on_c, 4, 62, 100
7, 192584, Note_off_c, 4, 62, 64
7, 192592, Note_on_c, 4, 59, 100
7, 192768, Note_off_c, 4, 59, 64
7, 192796, Note_on_c, 4, 55, 100
7, 192972, Note_off_c, 4, 55, 64
7, 192980, Note_on_c, 4, 59, 100
7, 193156, Note_off_c, 4, 59, 64
7, 193176, Note_on_c, 4, 62, 100
7, 193352, Note_off_c, 4, 62, 64
7, 193372, Note_on_c, 4, 59, 100
7, 193548, Note_off_c, 4, 59, 64
7, 193556, Note_on_c, 4, 55, 100
7, 193732, Note_off_c, 4, 55, 64
7, 193760, Note_on_c, 4, 59, 100
7, 193936, Note_off_c, 4, 59, 64
7, 193944, Note_on_c, 4, 62, 100
7, 194120, Note_off_c, 4, 62, 64
7, 194136, Note_on_c, 4, 67, 100
7, 194220, Note_off_c, 4, 67, 64
7, 194240, Note_on_c, 4, 71, 100
7, 194320, Note_off_c, 4, 71, 64
7, 194332, Note_on_c, 4, 69, 100
7, 194416, Note_off_c, 4, 69, 64
7, 194428, Note_on_c, 4, 67, 100
7, 194512, Note_off_c, 4, 67, 64
7, 194516, Note_on_c, 4, 66, 100
7, 194692, Note_off_c, 4, 66, 64
7, 194704, Note_on_c, 4, 62, 100
7, 194880, Note_off_c, 4, 62, 64
7, 195088, Note_on_c, 4, 71, 100
7, 195264, Note_off_c, 4, 71, 64
7, 195288, Note_on_c, 4, 66, 100
7, 195464, Note_off_c, 4, 66, 64
7, 195488, Note_on_c, 4, 62, 100
7, 195664, Note_off_c, 4, 62, 64
7, 195872, Note_on_c, 4, 69, 100
7, 196048, Note_off_c, 4, 69, 64
7, 196052, Note_on_c, 4, 66, 100
7, 196228, Note_off_c, 4, 66, 64
7, 196256, Note_on_c, 4, 62, 100
7, 196432, Note_off_c, 4, 62, 64
7, 196628, Note_on_c, 4, 69, 100
7, 196804, Note_off_c, 4, 69, 64
7, 196820, Note_on_c, 4, 62, 100
7, 196996, Note_off_c, 4, 62, 64
7, 197012, Note_on_c, 4, 60, 100
7, 197096, Note_off_c, 4, 60, 64
7, 197108, Note_on_c, 4, 59, 100
7, 197192, Note_off_c, 4, 59, 64
7, 197204, Note_on_c, 4, 60, 100
7, 197380, Note_off_c, 4, 60, 64
7, 197396, Note_on_c, 4, 59, 100
7, 197480, Note_off_c, 4, 59, 64
7, 197492, Note_on_c, 4, 57, 100
7, 197576, Note_off_c, 4, 57, 64
7, 197600, Note_on_c, 4, 55, 100
7, 197776, Note_off_c, 4, 55, 64
7, 197792, Note_on_c, 4, 67, 100
7, 197968, Note_off_c, 4, 67, 64
7, 197984, Note_on_c, 4, 67, 100
7, 198160, Note_off_c, 4, 67, 64
7, 198176, Note_on_c, 4, 55, 100
7, 198352, Note_off_c, 4, 55, 64
7, 198360, Note_on_c, 4, 55, 100
7, 198536, Note_off_c, 4, 55, 64
7, 198560, Note_on_c, 4, 67, 100
7, 198736, Note_on_c, 4, 67, 100
7, 198744, Note_off_c, 4, 67, 64
7, 198912, Note_off_c, 4, 67, 64
7, 198928, Note_on_c, 4, 55, 100
7, 199104, Note_off_c, 4, 55, 64
7, 199132, Note_on_c, 4, 55, 100
7, 199308, Note_off_c, 4, 55, 64
7, 199316, Note_on_c, 4, 67, 100
7, 199492, Note_off_c, 4, 67, 64
7, 199504, Note_on_c, 4, 67, 100
7, 199680, Note_off_c, 4, 67, 64
7, 199712, Note_on_c, 4, 55, 100
7, 199888, Note_on_c, 4, 55, 100
7, 199892, Note_off_c, 4, 55, 64
7, 200072, Note_off_c, 4, 55, 64
7, 200088, Note_on_c, 4, 67, 100
7, 200264, Note_off_c, 4, 67, 64
7, 200284, Note_on_c, 4, 66, 100
7, 200460, Note_off_c, 4, 66, 64
7, 200468, Note_on_c, 4, 67, 100
7, 200644, Note_off_c, 4, 67, 64
7, 200656, Note_on_c, 4, 69, 100
7, 200832, Note_off_c, 4, 69, 64
7, 200856, Note_on_c, 4, 71, 100
7, 201032, Note_off_c, 4, 71, 64
7, 201052, Note_on_c, 4, 72, 100
7, 201228, Note_off_c, 4, 72, 64
7, 201232, Note_on_c, 4, 74, 100
7, 201408, Note_off_c, 4, 74, 64
7, 201440, Note_on_c, 4, 71, 100
7, 201616, Note_off_c, 4, 71, 64
7, 201632, Note_on_c, 4, 69, 100
7, 201712, Note_off_c, 4, 69, 64
7, 201712, Note_on_c, 4, 67, 100
7, 201796, Note_off_c, 4, 67, 64
7, 201824, Note_on_c, 4, 62, 100
7, 202000, Note_off_c, 4, 62, 64
7, 202004, Note_on_c, 4, 66, 100
7, 202180, Note_off_c, 4, 66, 64
7, 202200, Note_on_c, 4, 67, 100
7, 202376, Note_off_c, 4, 67, 64
7, 203160, Note_on_c, 4, 59, 100
7, 203244, Note_off_c, 4, 59, 64
7, 203256, Note_on_c, 4, 57, 100
7, 203340, Note_off_c, 4, 57, 64
7, 203348, Note_on_c, 4, 59, 100
7, 203524, Note_off_c, 4, 59, 64
7, 203536, Note_on_c, 4, 62, 100
7, 203620, Note_off_c, 4, 62, 64
7, 203636, Note_on_c, 4, 60, 100
7, 203720, Note_off_c, 4, 60, 64
7, 203736, Note_on_c, 4, 62, 100
7, 203912, Note_off_c, 4, 62, 64
7, 205084, Note_on_c, 4, 62, 100
7, 205260, Note_off_c, 4, 62, 64
7, 205272, Note_on_c, 4, 67, 100
7, 205448, Note_off_c, 4, 67, 64
7, 205468, Note_on_c, 4, 66, 100
7, 205552, Note_off_c, 4, 66, 64
7, 205552, Note_on_c, 4, 64, 100
7, 205636, Note_off_c, 4, 64, 64
7, 205660, Note_on_c, 4, 62, 100
7, 205744, Note_off_c, 4, 62, 64
7, 205752, Note_on_c, 4, 60, 100
7, 205836, Note_off_c, 4, 60, 64
7, 205856, Note_on_c, 4, 59, 100
7, 205936, Note_off_c, 4, 59, 64
7, 205936, Note_on_c, 4, 57, 100
7, 206020, Note_off_c, 4, 57, 64
7, 206048, Note_on_c, 4, 55, 100
7, 206224, Note_off_c, 4, 55, 64
7, 206240, Note_on_c, 4, 60, 100
7, 206320, Note_off_c, 4, 60, 64
7, 206324, Note_on_c, 4, 62, 100
7, 206408, Note_off_c, 4, 62, 64
7, 206432, Note_on_c, 4, 64, 100
7, 206512, Note_off_c, 4, 64, 64
7, 206520, Note_on_c, 4, 66, 100
7, 206604, Note_off_c, 4, 66, 64
7, 206612, Note_on_c, 4, 67, 100
7, 206696, Note_off_c, 4, 67, 64
7, 206704, Note_on_c, 4, 69, 100
7, 206788, Note_off_c, 4, 69, 64
7, 206816, Note_on_c, 4, 71, 100
7, 206992, Note_off_c, 4, 71, 64
7, 207000, Note_on_c, 4, 66, 100
7, 207084, Note_off_c, 4, 66, 64
7, 207096, Note_on_c, 4, 64, 100
7, 207180, Note_off_c, 4, 64, 64
7, 207196, Note_on_c, 4, 62, 100
7, 207280, Note_off_c, 4, 62, 64
7, 207292, Note_on_c, 4, 60, 100
7, 207376, Note_off_c, 4, 60, 64
7, 207380, Note_on_c, 4, 59, 100
7, 207464, Note_off_c, 4, 59, 64
7, 207480, Note_on_c, 4, 57, 100
7, 207564, Note_off_c, 4, 57, 64
7, 207584, Note_on_c, 4, 59, 100
7, 207760, Note_off_c, 4, 59, 64
7, 207772, Note_on_c, 4, 57, 100
7, 207856, Note_off_c, 4, 57, 64
7, 207872, Note_on_c, 4, 55, 100
7, 207952, Note_off_c, 4, 55, 64
7, 207960, Note_on_c, 4, 62, 100
7, 208136, Note_off_c, 4, 62, 64
7, 208148, Note_on_c, 4, 50, 100
7, 208324, Note_off_c, 4, 50, 64
7, 208352, Note_on_c, 4, 55, 100
7, 209088, Note_off_c, 4, 55, 64
7, 209088, End_track
8, 0, Start_track
8, 0, Title_t, "Viola 3"
8, 0, Control_c, 5, 0, 0
8, 0, Program_c, 5, 68
8, 0, Control_c, 5, 7, 127
8, 0, Control_c, 5, 10, 94
8, 0, Control_c, 5, 91, 0
8, 0, Control_c, 5, 93, 0
8, 0, Pitch_bend_c, 5, 8192
8, 4, Control_c, 5, 1, 0
8, 8, Control_c, 5, 64, 0
8, 32, Note_on_c, 5, 43, 100
8, 208, Note_off_c, 5, 43, 64
8, 224, Note_on_c, 5, 47, 100
8, 400, Note_off_c, 5, 47, 64
8, 416, Note_on_c, 5, 50, 100
8, 592, Note_off_c, 5, 50, 64
8, 596, Note_on_c, 5, 47, 100
8, 772, Note_off_c, 5, 47, 64
8, 788, Note_on_c, 5, 43, 100
8, 964, Note_off_c, 5, 43, 64
8, 984, Note_on_c, 5, 47, 100
8, 1160, Note_off_c, 5, 47, 64
8, 1180, Note_on_c, 5, 50, 100
8, 1356, Note_off_c, 5, 50, 64
8, 1360, Note_on_c, 5, 47, 100
8, 1536, Note_off_c, 5, 47, 64
8, 1552, Note_on_c, 5, 43, 100
8, 1728, Note_off_c, 5, 43, 64
8, 1748, Note_on_c, 5, 47, 100
8, 1924, Note_off_c, 5, 47, 64
8, 1948, Note_on_c, 5, 50, 100
8, 2124, Note_off_c, 5, 50, 64
8, 2136, Note_on_c, 5, 55, 100
8, 2220, Note_off_c, 5, 55, 64
8, 2240, Note_on_c, 5, 59, 100
8, 2320, Note_off_c, 5, 59, 64
8, 2328, Note_on_c, 5, 57, 100
8, 2412, Note_off_c, 5, 57, 64
8, 2420, Note_on_c, 5, 55, 100
8, 2504, Note_off_c, 5, 55, 64
8, 2528, Note_on_c, 5, 54, 100
8, 2704, Note_off_c, 5, 54, 64
8, 2712, Note_on_c, 5, 50, 100
8, 2888, Note_off_c, 5, 50, 64
8, 3100, Note_on_c, 5, 59, 100
8, 3276, Note_off_c, 5, 59, 64
8, 3292, Note_on_c, 5, 55, 100
8, 3468, Note_off_c, 5, 55, 64
8, 3476, Note_on_c, 5, 50, 100
8, 3652, Note_off_c, 5, 50, 64
8, 3868, Note_on_c, 5, 55, 100
8, 4044, Note_off_c, 5, 55, 64
8, 4064, Note_on_c, 5, 54, 100
8, 4240, Note_off_c, 5, 54, 64
8, 4248, Note_on_c, 5, 50, 100
8, 4424, Note_off_c, 5, 50, 64
8, 4632, Note_on_c, 5, 57, 100
8, 4808, Note_off_c, 5, 57, 64
8, 4824, Note_on_c, 5, 50, 100
8, 5000, Note_off_c, 5, 50, 64
8, 5020, Note_on_c, 5, 48, 100
8, 5104, Note_off_c, 5, 48, 64
8, 5104, Note_on_c, 5, 47, 100
8, 5188, Note_off_c, 5, 47, 64
8, 5212, Note_on_c, 5, 48, 100
8, 5388, Note_off_c, 5, 48, 64
8, 5404, Note_on_c, 5, 47, 100
8, 5488, Note_off_c, 5, 47, 64
8, 5488, Note_on_c, 5, 45, 100
8, 5572, Note_off_c, 5, 45, 64
8, 5600, Note_on_c, 5, 43, 100
8, 5776, Note_off_c, 5, 43, 64
8, 5788, Note_on_c, 5, 55, 100
8, 5964, Note_off_c, 5, 55, 64
8, 5980, Note_on_c, 5, 55, 100
8, 6156, Note_off_c, 5, 55, 64
8, 6164, Note_on_c, 5, 43, 100
8, 6340, Note_off_c, 5, 43, 64
8, 6352, Note_on_c, 5, 43, 100
8, 6528, Note_off_c, 5, 43, 64
8, 6560, Note_on_c, 5, 55, 100
8, 6736, Note_off_c, 5, 55, 64
8, 6752, Note_on_c, 5, 55, 100
8, 6928, Note_off_c, 5, 55, 64
8, 6928, Note_on_c, 5, 43, 100
8, 7104, Note_off_c, 5, 43, 64
8, 7128, Note_on_c, 5, 43, 100
8, 7304, Note_off_c, 5, 43, 64
8, 7312, Note_on_c, 5, 55, 100
8, 7488, Note_off_c, 5, 55, 64
8, 7508, Note_on_c, 5, 55, 100
8, 7684, Note_off_c, 5, 55, 64
8, 7696, Note_on_c, 5, 43, 100
8, 7872, Note_off_c, 5, 43, 64
8, 7892, Note_on_c, 5, 43, 100
8, 8068, Note_off_c, 5, 43, 64
8, 8080, Note_on_c, 5, 55, 100
8, 8256, Note_off_c, 5, 55, 64
8, 8284, Note_on_c, 5, 55, 100
8, 8460, Note_off_c, 5, 55, 64
8, 8464, Note_on_c, 5, 55, 100
8, 8640, Note_off_c, 5, 55, 64
8, 8668, Note_on_c, 5, 57, 100
8, 8844, Note_off_c, 5, 57, 64
8, 8848, Note_on_c, 5, 59, 100
8, 9024, Note_off_c, 5, 59, 64
8, 9040, Note_on_c, 5, 60, 100
8, 9216, Note_off_c, 5, 60, 64
8, 9232, Note_on_c, 5, 62, 100
8, 9408, Note_off_c, 5, 62, 64
8, 9436, Note_on_c, 5, 59, 100
8, 9612, Note_off_c, 5, 59, 64
8, 9628, Note_on_c, 5, 57, 100
8, 9712, Note_off_c, 5, 57, 64
8, 9724, Note_on_c, 5, 55, 100
8, 9808, Note_off_c, 5, 55, 64
8, 9824, Note_on_c, 5, 50, 100
8, 10000, Note_off_c, 5, 50, 64
8, 10008, Note_on_c, 5, 54, 100
8, 10184, Note_off_c, 5, 54, 64
8, 10204, Note_on_c, 5, 55, 100
8, 10380, Note_off_c, 5, 55, 64
8, 10396, Note_on_c, 5, 55, 100
8, 10480, Note_off_c, 5, 55, 64
8, 10488, Note_on_c, 5, 52, 100
8, 10572, Note_off_c, 5, 52, 64
8, 10576, Note_on_c, 5, 50, 100
8, 10660, Note_off_c, 5, 50, 64
8, 10688, Note_on_c, 5, 48, 100
8, 10768, Note_off_c, 5, 48, 64
8, 10780, Note_on_c, 5, 47, 100
8, 10864, Note_off_c, 5, 47, 64
8, 10876, Note_on_c, 5, 45, 100
8, 10960, Note_off_c, 5, 45, 64
8, 10972, Note_on_c, 5, 47, 100
8, 11148, Note_off_c, 5, 47, 64
8, 11164, Note_on_c, 5, 45, 100
8, 11248, Note_off_c, 5, 45, 64
8, 11264, Note_on_c, 5, 43, 100
8, 11344, Note_off_c, 5, 43, 64
8, 11344, Note_on_c, 5, 50, 100
8, 11520, Note_off_c, 5, 50, 64
8, 11552, Note_on_c, 5, 38, 100
8, 11728, Note_off_c, 5, 38, 64
8, 11744, Note_on_c, 5, 43, 100
8, 11920, Note_off_c, 5, 43, 64
8, 11920, Note_on_c, 5, 50, 100
8, 12096, Note_off_c, 5, 50, 64
8, 12116, Note_on_c, 5, 55, 100
8, 12292, Note_off_c, 5, 55, 64
8, 13088, Note_on_c, 5, 50, 100
8, 13168, Note_off_c, 5, 50, 64
8, 13176, Note_on_c, 5, 48, 100
8, 13260, Note_off_c, 5, 48, 64
8, 13276, Note_on_c, 5, 50, 100
8, 13452, Note_off_c, 5, 50, 64
8, 13472, Note_on_c, 5, 47, 100
8, 13552, Note_off_c, 5, 47, 64
8, 13556, Note_on_c, 5, 45, 100
8, 13640, Note_off_c, 5, 45, 64
8, 13648, Note_on_c, 5, 47, 100
8, 13824, Note_off_c, 5, 47, 64
8, 14236, Note_on_c, 5, 71, 100
8, 14320, Note_off_c, 5, 71, 64
8, 14332, Note_on_c, 5, 72, 100
8, 14416, Note_off_c, 5, 72, 64
8, 14416, Note_on_c, 5, 74, 100
8, 14592, Note_off_c, 5, 74, 64
8, 14616, Note_on_c, 5, 76, 100
8, 14792, Note_off_c, 5, 76, 64
8, 14816, Note_on_c, 5, 69, 100
8, 14992, Note_off_c, 5, 69, 64
8, 15008, Note_on_c, 5, 66, 100
8, 15088, Note_off_c, 5, 66, 64
8, 15092, Note_on_c, 5, 64, 100
8, 15176, Note_off_c, 5, 64, 64
8, 15184, Note_on_c, 5, 62, 100
8, 15360, Note_off_c, 5, 62, 64
8, 15764, Note_on_c, 5, 66, 100
8, 15848, Note_off_c, 5, 66, 64
8, 15856, Note_on_c, 5, 64, 100
8, 15940, Note_off_c, 5, 64, 64
8, 15956, Note_on_c, 5, 62, 100
8, 16132, Note_off_c, 5, 62, 64
8, 16528, Note_on_c, 5, 66, 100
8, 16612, Note_off_c, 5, 66, 64
8, 16628, Note_on_c, 5, 64, 100
8, 16712, Note_off_c, 5, 64, 64
8, 16732, Note_on_c, 5, 62, 100
8, 16908, Note_off_c, 5, 62, 64
8, 16924, Note_on_c, 5, 69, 100
8, 17100, Note_off_c, 5, 69, 64
8, 17116, Note_on_c, 5, 69, 100
8, 17292, Note_off_c, 5, 69, 64
8, 17312, Note_on_c, 5, 67, 100
8, 17392, Note_off_c, 5, 67, 64
8, 17408, Note_on_c, 5, 66, 100
8, 17488, Note_off_c, 5, 66, 64
8, 17504, Note_on_c, 5, 67, 100
8, 17680, Note_off_c, 5, 67, 64
8, 17692, Note_on_c, 5, 66, 100
8, 17776, Note_off_c, 5, 66, 64
8, 17776, Note_on_c, 5, 64, 100
8, 17860, Note_off_c, 5, 64, 64
8, 17888, Note_on_c, 5, 62, 100
8, 18064, Note_off_c, 5, 62, 64
8, 18076, Note_on_c, 5, 74, 100
8, 18252, Note_off_c, 5, 74, 64
8, 18268, Note_on_c, 5, 74, 100
8, 18444, Note_off_c, 5, 74, 64
8, 18460, Note_on_c, 5, 62, 100
8, 18636, Note_off_c, 5, 62, 64
8, 18644, Note_on_c, 5, 62, 100
8, 18820, Note_off_c, 5, 62, 64
8, 18840, Note_on_c, 5, 74, 100
8, 19016, Note_off_c, 5, 74, 64
8, 19036, Note_on_c, 5, 74, 100
8, 19212, Note_off_c, 5, 74, 64
8, 19220, Note_on_c, 5, 62, 100
8, 19396, Note_off_c, 5, 62, 64
8, 19412, Note_on_c, 5, 62, 100
8, 19588, Note_off_c, 5, 62, 64
8, 19612, Note_on_c, 5, 74, 100
8, 19788, Note_off_c, 5, 74, 64
8, 19808, Note_on_c, 5, 74, 100
8, 19984, Note_off_c, 5, 74, 64
8, 19988, Note_on_c, 5, 62, 100
8, 20164, Note_off_c, 5, 62, 64
8, 20188, Note_on_c, 5, 62, 100
8, 20364, Note_off_c, 5, 62, 64
8, 20384, Note_on_c, 5, 74, 100
8, 20560, Note_off_c, 5, 74, 64
8, 20568, Note_on_c, 5, 73, 100
8, 20744, Note_off_c, 5, 73, 64
8, 20764, Note_on_c, 5, 71, 100
8, 20940, Note_off_c, 5, 71, 64
8, 20956, Note_on_c, 5, 69, 100
8, 21132, Note_off_c, 5, 69, 64
8, 21148, Note_on_c, 5, 62, 100
8, 21324, Note_off_c, 5, 62, 64
8, 21340, Note_on_c, 5, 61, 100
8, 21516, Note_off_c, 5, 61, 64
8, 21520, Note_on_c, 5, 64, 100
8, 21696, Note_off_c, 5, 64, 64
8, 21712, Note_on_c, 5, 62, 100
8, 21888, Note_off_c, 5, 62, 64
8, 21904, Note_on_c, 5, 64, 100
8, 21988, Note_off_c, 5, 64, 64
8, 22012, Note_on_c, 5, 66, 100
8, 22096, Note_off_c, 5, 66, 64
8, 22104, Note_on_c, 5, 64, 100
8, 22280, Note_off_c, 5, 64, 64
8, 22288, Note_on_c, 5, 69, 100
8, 22464, Note_off_c, 5, 69, 64
8, 22488, Note_on_c, 5, 66, 100
8, 22848, Note_off_c, 5, 66, 64
8, 23832, Note_on_c, 5, 62, 100
8, 23916, Note_off_c, 5, 62, 64
8, 23932, Note_on_c, 5, 60, 100
8, 24016, Note_off_c, 5, 60, 64
8, 24016, Note_on_c, 5, 62, 100
8, 24192, Note_off_c, 5, 62, 64
8, 24216, Note_on_c, 5, 59, 100
8, 24300, Note_off_c, 5, 59, 64
8, 24316, Note_on_c, 5, 57, 100
8, 24400, Note_off_c, 5, 57, 64
8, 24400, Note_on_c, 5, 59, 100
8, 24576, Note_off_c, 5, 59, 64
8, 24988, Note_on_c, 5, 62, 100
8, 25164, Note_off_c, 5, 62, 64
8, 25180, Note_on_c, 5, 67, 100
8, 25264, Note_off_c, 5, 67, 64
8, 25276, Note_on_c, 5, 71, 100
8, 25360, Note_off_c, 5, 71, 64
8, 25376, Note_on_c, 5, 69, 100
8, 25456, Note_off_c, 5, 69, 64
8, 25460, Note_on_c, 5, 67, 100
8, 25544, Note_off_c, 5, 67, 64
8, 25560, Note_on_c, 5, 66, 100
8, 25920, Note_off_c, 5, 66, 64
8, 26132, Note_on_c, 5, 61, 100
8, 26308, Note_off_c, 5, 61, 64
8, 26324, Note_on_c, 5, 62, 100
8, 26688, Note_off_c, 5, 62, 64
8, 26912, Note_on_c, 5, 64, 100
8, 27088, Note_off_c, 5, 64, 64
8, 27096, Note_on_c, 5, 66, 100
8, 27180, Note_off_c, 5, 66, 64
8, 27200, Note_on_c, 5, 69, 100
8, 27280, Note_off_c, 5, 69, 64
8, 27284, Note_on_c, 5, 62, 100
8, 27368, Note_off_c, 5, 62, 64
8, 27384, Note_on_c, 5, 64, 100
8, 27468, Note_off_c, 5, 64, 64
8, 27480, Note_on_c, 5, 66, 100
8, 27564, Note_off_c, 5, 66, 64
8, 27580, Note_on_c, 5, 67, 100
8, 27664, Note_off_c, 5, 67, 64
8, 27676, Note_on_c, 5, 69, 100
8, 27760, Note_off_c, 5, 69, 64
8, 27760, Note_on_c, 5, 67, 100
8, 27844, Note_off_c, 5, 67, 64
8, 27864, Note_on_c, 5, 66, 100
8, 28040, Note_off_c, 5, 66, 64
8, 28064, Note_on_c, 5, 69, 100
8, 28144, Note_off_c, 5, 69, 64
8, 28152, Note_on_c, 5, 67, 100
8, 28236, Note_off_c, 5, 67, 64
8, 28240, Note_on_c, 5, 69, 100
8, 28416, Note_off_c, 5, 69, 64
8, 28448, Note_on_c, 5, 74, 100
8, 28528, Note_off_c, 5, 74, 64
8, 28540, Note_on_c, 5, 73, 100
8, 28624, Note_off_c, 5, 73, 64
8, 28632, Note_on_c, 5, 74, 100
8, 28808, Note_off_c, 5, 74, 64
8, 28824, Note_on_c, 5, 66, 100
8, 28908, Note_off_c, 5, 66, 64
8, 28928, Note_on_c, 5, 64, 100
8, 29008, Note_off_c, 5, 64, 64
8, 29016, Note_on_c, 5, 66, 100
8, 29192, Note_off_c, 5, 66, 64
8, 29216, Note_on_c, 5, 74, 100
8, 29296, Note_off_c, 5, 74, 64
8, 29304, Note_on_c, 5, 73, 100
8, 29388, Note_off_c, 5, 73, 64
8, 29396, Note_on_c, 5, 74, 100
8, 29572, Note_off_c, 5, 74, 64
8, 29600, Note_on_c, 5, 62, 100
8, 29680, Note_off_c, 5, 62, 64
8, 29692, Note_on_c, 5, 64, 100
8, 29776, Note_off_c, 5, 64, 64
8, 29792, Note_on_c, 5, 66, 100
8, 29968, Note_off_c, 5, 66, 64
8, 29984, Note_on_c, 5, 68, 100
8, 30160, Note_off_c, 5, 68, 64
8, 30160, Note_on_c, 5, 69, 100
8, 30336, Note_off_c, 5, 69, 64
8, 30368, Note_on_c, 5, 64, 100
8, 30448, Note_off_c, 5, 64, 64
8, 30464, Note_on_c, 5, 62, 100
8, 30544, Note_off_c, 5, 62, 64
8, 30544, Note_on_c, 5, 64, 100
8, 30720, Note_off_c, 5, 64, 64
8, 31120, Note_on_c, 5, 64, 100
8, 31204, Note_off_c, 5, 64, 64
8, 31216, Note_on_c, 5, 63, 100
8, 31300, Note_off_c, 5, 63, 64
8, 31320, Note_on_c, 5, 64, 100
8, 31496, Note_off_c, 5, 64, 64
8, 31900, Note_on_c, 5, 62, 100
8, 31984, Note_off_c, 5, 62, 64
8, 31992, Note_on_c, 5, 61, 100
8, 32076, Note_off_c, 5, 61, 64
8, 32088, Note_on_c, 5, 59, 100
8, 32264, Note_off_c, 5, 59, 64
8, 32660, Note_on_c, 5, 66, 100
8, 32744, Note_off_c, 5, 66, 64
8, 32752, Note_on_c, 5, 67, 100
8, 32836, Note_off_c, 5, 67, 64
8, 32852, Note_on_c, 5, 66, 100
8, 33028, Note_off_c, 5, 66, 64
8, 33044, Note_on_c, 5, 67, 100
8, 33220, Note_off_c, 5, 67, 64
8, 33236, Note_on_c, 5, 67, 100
8, 33412, Note_off_c, 5, 67, 64
8, 33424, Note_on_c, 5, 64, 100
8, 33508, Note_off_c, 5, 64, 64
8, 33536, Note_on_c, 5, 66, 100
8, 33616, Note_off_c, 5, 66, 64
8, 33632, Note_on_c, 5, 64, 100
8, 33808, Note_off_c, 5, 64, 64
8, 33808, Note_on_c, 5, 66, 100
8, 33892, Note_off_c, 5, 66, 64
8, 33904, Note_on_c, 5, 67, 100
8, 33988, Note_off_c, 5, 67, 64
8, 34000, Note_on_c, 5, 66, 100
8, 34176, Note_off_c, 5, 66, 64
8, 34208, Note_on_c, 5, 59, 100
8, 34384, Note_off_c, 5, 59, 64
8, 34396, Note_on_c, 5, 61, 100
8, 34572, Note_off_c, 5, 61, 64
8, 34576, Note_on_c, 5, 61, 100
8, 34752, Note_off_c, 5, 61, 64
8, 34768, Note_on_c, 5, 57, 100
8, 34944, Note_off_c, 5, 57, 64
8, 34976, Note_on_c, 5, 57, 100
8, 35152, Note_off_c, 5, 57, 64
8, 35156, Note_on_c, 5, 57, 100
8, 35332, Note_off_c, 5, 57, 64
8, 35348, Note_on_c, 5, 59, 100
8, 35524, Note_off_c, 5, 59, 64
8, 35544, Note_on_c, 5, 54, 100
8, 35720, Note_off_c, 5, 54, 64
8, 35732, Note_on_c, 5, 54, 100
8, 35908, Note_off_c, 5, 54, 64
8, 35924, Note_on_c, 5, 54, 100
8, 36100, Note_off_c, 5, 54, 64
8, 36120, Note_on_c, 5, 55, 100
8, 36296, Note_off_c, 5, 55, 64
8, 36312, Note_on_c, 5, 57, 100
8, 36488, Note_off_c, 5, 57, 64
8, 36884, Note_on_c, 5, 62, 100
8, 36968, Note_off_c, 5, 62, 64
8, 36976, Note_on_c, 5, 61, 100
8, 37060, Note_off_c, 5, 61, 64
8, 37084, Note_on_c, 5, 62, 100
8, 37260, Note_off_c, 5, 62, 64
8, 37656, Note_on_c, 5, 62, 100
8, 37740, Note_off_c, 5, 62, 64
8, 37744, Note_on_c, 5, 61, 100
8, 37828, Note_off_c, 5, 61, 64
8, 37844, Note_on_c, 5, 62, 100
8, 38020, Note_off_c, 5, 62, 64
8, 38032, Note_on_c, 5, 57, 100
8, 38208, Note_off_c, 5, 57, 64
8, 38236, Note_on_c, 5, 57, 100
8, 38412, Note_off_c, 5, 57, 64
8, 38424, Note_on_c, 5, 62, 100
8, 38600, Note_off_c, 5, 62, 64
8, 38624, Note_on_c, 5, 62, 100
8, 38800, Note_on_c, 5, 62, 100
8, 38808, Note_off_c, 5, 62, 64
8, 38984, Note_off_c, 5, 62, 64
8, 39008, Note_on_c, 5, 62, 100
8, 39184, Note_off_c, 5, 62, 64
8, 39196, Note_on_c, 5, 64, 100
8, 39372, Note_off_c, 5, 64, 64
8, 39388, Note_on_c, 5, 59, 100
8, 39564, Note_off_c, 5, 59, 64
8, 39576, Note_on_c, 5, 59, 100
8, 39752, Note_off_c, 5, 59, 64
8, 39764, Note_on_c, 5, 59, 100
8, 39940, Note_off_c, 5, 59, 64
8, 39952, Note_on_c, 5, 60, 100
8, 40128, Note_off_c, 5, 60, 64
8, 40144, Note_on_c, 5, 62, 100
8, 40320, Note_off_c, 5, 62, 64
8, 40736, Note_on_c, 5, 55, 100
8, 40816, Note_off_c, 5, 55, 64
8, 40828, Note_on_c, 5, 54, 100
8, 40912, Note_off_c, 5, 54, 64
8, 40912, Note_on_c, 5, 55, 100
8, 41088, Note_off_c, 5, 55, 64
8, 41500, Note_on_c, 5, 55, 100
8, 41676, Note_off_c, 5, 55, 64
8, 41688, Note_on_c, 5, 55, 100
8, 41864, Note_off_c, 5, 55, 64
8, 41876, Note_on_c, 5, 50, 100
8, 42052, Note_off_c, 5, 50, 64
8, 42080, Note_on_c, 5, 50, 100
8, 42256, Note_off_c, 5, 50, 64
8, 42260, Note_on_c, 5, 55, 100
8, 42436, Note_off_c, 5, 55, 64
8, 42448, Note_on_c, 5, 55, 100
8, 42532, Note_off_c, 5, 55, 64
8, 42544, Note_on_c, 5, 59, 100
8, 42628, Note_off_c, 5, 59, 64
8, 42656, Note_on_c, 5, 60, 100
8, 42736, Note_off_c, 5, 60, 64
8, 42744, Note_on_c, 5, 62, 100
8, 42828, Note_off_c, 5, 62, 64
8, 42848, Note_on_c, 5, 64, 100
8, 42928, Note_off_c, 5, 64, 64
8, 42932, Note_on_c, 5, 62, 100
8, 43016, Note_off_c, 5, 62, 64
8, 43040, Note_on_c, 5, 64, 100
8, 43120, Note_off_c, 5, 64, 64
8, 43120, Note_on_c, 5, 65, 100
8, 43204, Note_off_c, 5, 65, 64
8, 43232, Note_on_c, 5, 67, 100
8, 43408, Note_off_c, 5, 67, 64
8, 43420, Note_on_c, 5, 60, 100
8, 43596, Note_off_c, 5, 60, 64
8, 43608, Note_on_c, 5, 60, 100
8, 43784, Note_off_c, 5, 60, 64
8, 43804, Note_on_c, 5, 57, 100
8, 43888, Note_off_c, 5, 57, 64
8, 43904, Note_on_c, 5, 59, 100
8, 43984, Note_off_c, 5, 59, 64
8, 44000, Note_on_c, 5, 57, 100
8, 44176, Note_off_c, 5, 57, 64
8, 44192, Note_on_c, 5, 59, 100
8, 44368, Note_off_c, 5, 59, 64
8, 44376, Note_on_c, 5, 59, 100
8, 44552, Note_off_c, 5, 59, 64
8, 44572, Note_on_c, 5, 55, 100
8, 44656, Note_off_c, 5, 55, 64
8, 44668, Note_on_c, 5, 57, 100
8, 44752, Note_off_c, 5, 57, 64
8, 44752, Note_on_c, 5, 55, 100
8, 44928, Note_off_c, 5, 55, 64
8, 44960, Note_on_c, 5, 57, 100
8, 45136, Note_off_c, 5, 57, 64
8, 45148, Note_on_c, 5, 57, 100
8, 45324, Note_off_c, 5, 57, 64
8, 45340, Note_on_c, 5, 57, 100
8, 45516, Note_off_c, 5, 57, 64
8, 45532, Note_on_c, 5, 50, 100
8, 45708, Note_off_c, 5, 50, 64
8, 45712, Note_on_c, 5, 55, 100
8, 45888, Note_off_c, 5, 55, 64
8, 45912, Note_on_c, 5, 55, 100
8, 46088, Note_off_c, 5, 55, 64
8, 46104, Note_on_c, 5, 55, 100
8, 46280, Note_off_c, 5, 55, 64
8, 46292, Note_on_c, 5, 55, 100
8, 46468, Note_off_c, 5, 55, 64
8, 46488, Note_on_c, 5, 55, 100
8, 46664, Note_off_c, 5, 55, 64
8, 46680, Note_on_c, 5, 55, 100
8, 46856, Note_off_c, 5, 55, 64
8, 46868, Note_on_c, 5, 55, 100
8, 47044, Note_off_c, 5, 55, 64
8, 47056, Note_on_c, 5, 55, 100
8, 47420, Note_off_c, 5, 55, 64
8, 47636, Note_on_c, 5, 60, 100
8, 47812, Note_off_c, 5, 60, 64
8, 47840, Note_on_c, 5, 64, 100
8, 48016, Note_off_c, 5, 64, 64
8, 48028, Note_on_c, 5, 67, 100
8, 48204, Note_off_c, 5, 67, 64
8, 48208, Note_on_c, 5, 64, 100
8, 48384, Note_off_c, 5, 64, 64
8, 48412, Note_on_c, 5, 60, 100
8, 48588, Note_off_c, 5, 60, 64
8, 48596, Note_on_c, 5, 64, 100
8, 48772, Note_off_c, 5, 64, 64
8, 48788, Note_on_c, 5, 67, 100
8, 48964, Note_off_c, 5, 67, 64
8, 48980, Note_on_c, 5, 64, 100
8, 49156, Note_off_c, 5, 64, 64
8, 49172, Note_on_c, 5, 60, 100
8, 49348, Note_off_c, 5, 60, 64
8, 49360, Note_on_c, 5, 67, 100
8, 49536, Note_off_c, 5, 67, 64
8, 49560, Note_on_c, 5, 67, 100
8, 49644, Note_off_c, 5, 67, 64
8, 49648, Note_on_c, 5, 67, 100
8, 49732, Note_off_c, 5, 67, 64
8, 49752, Note_on_c, 5, 67, 100
8, 49928, Note_off_c, 5, 67, 64
8, 50132, Note_on_c, 5, 59, 100
8, 50216, Note_off_c, 5, 59, 64
8, 50228, Note_on_c, 5, 57, 100
8, 50312, Note_off_c, 5, 57, 64
8, 50336, Note_on_c, 5, 59, 100
8, 50416, Note_off_c, 5, 59, 64
8, 50416, Note_on_c, 5, 60, 100
8, 50500, Note_off_c, 5, 60, 64
8, 50512, Note_on_c, 5, 59, 100
8, 50596, Note_off_c, 5, 59, 64
8, 50620, Note_on_c, 5, 62, 100
8, 50704, Note_off_c, 5, 62, 64
8, 50708, Note_on_c, 5, 60, 100
8, 50792, Note_off_c, 5, 60, 64
8, 50808, Note_on_c, 5, 64, 100
8, 50892, Note_off_c, 5, 64, 64
8, 50896, Note_on_c, 5, 62, 100
8, 50980, Note_off_c, 5, 62, 64
8, 50996, Note_on_c, 5, 60, 100
8, 51080, Note_off_c, 5, 60, 64
8, 51092, Note_on_c, 5, 62, 100
8, 51176, Note_off_c, 5, 62, 64
8, 51196, Note_on_c, 5, 64, 100
8, 51280, Note_off_c, 5, 64, 64
8, 51288, Note_on_c, 5, 62, 100
8, 51372, Note_off_c, 5, 62, 64
8, 51388, Note_on_c, 5, 65, 100
8, 51472, Note_off_c, 5, 65, 64
8, 51484, Note_on_c, 5, 62, 100
8, 51568, Note_off_c, 5, 62, 64
8, 51584, Note_on_c, 5, 67, 100
8, 51664, Note_off_c, 5, 67, 64
8, 51668, Note_on_c, 5, 62, 100
8, 51752, Note_off_c, 5, 62, 64
8, 51764, Note_on_c, 5, 67, 100
8, 51848, Note_off_c, 5, 67, 64
8, 51868, Note_on_c, 5, 62, 100
8, 51952, Note_off_c, 5, 62, 64
8, 51960, Note_on_c, 5, 66, 100
8, 52044, Note_off_c, 5, 66, 64
8, 52048, Note_on_c, 5, 62, 100
8, 52132, Note_off_c, 5, 62, 64
8, 52144, Note_on_c, 5, 67, 100
8, 52228, Note_off_c, 5, 67, 64
8, 52248, Note_on_c, 5, 62, 100
8, 52332, Note_off_c, 5, 62, 64
8, 52348, Note_on_c, 5, 66, 100
8, 52432, Note_off_c, 5, 66, 64
8, 52448, Note_on_c, 5, 62, 100
8, 52528, Note_off_c, 5, 62, 64
8, 52536, Note_on_c, 5, 64, 100
8, 52620, Note_off_c, 5, 64, 64
8, 52632, Note_on_c, 5, 62, 100
8, 52716, Note_off_c, 5, 62, 64
8, 52720, Note_on_c, 5, 60, 100
8, 52804, Note_off_c, 5, 60, 64
8, 52816, Note_on_c, 5, 62, 100
8, 52992, Note_off_c, 5, 62, 64
8, 53020, Note_on_c, 5, 57, 100
8, 53196, Note_off_c, 5, 57, 64
8, 53200, Note_on_c, 5, 57, 100
8, 53564, Note_off_c, 5, 57, 64
8, 53788, Note_on_c, 5, 55, 100
8, 53964, Note_off_c, 5, 55, 64
8, 53984, Note_on_c, 5, 57, 100
8, 54160, Note_off_c, 5, 57, 64
8, 54544, Note_on_c, 5, 59, 100
8, 54720, Note_off_c, 5, 59, 64
8, 54748, Note_on_c, 5, 60, 100
8, 54924, Note_off_c, 5, 60, 64
8, 55328, Note_on_c, 5, 62, 100
8, 55504, Note_off_c, 5, 62, 64
8, 55512, Note_on_c, 5, 55, 100
8, 55688, Note_off_c, 5, 55, 64
8, 55712, Note_on_c, 5, 55, 100
8, 55888, Note_off_c, 5, 55, 64
8, 55900, Note_on_c, 5, 48, 100
8, 56076, Note_off_c, 5, 48, 64
8, 56092, Note_on_c, 5, 57, 100
8, 56268, Note_off_c, 5, 57, 64
8, 56288, Note_on_c, 5, 50, 100
8, 56464, Note_off_c, 5, 50, 64
8, 56464, Note_on_c, 5, 67, 100
8, 56640, Note_off_c, 5, 67, 64
8, 56656, Note_on_c, 5, 62, 100
8, 56832, Note_off_c, 5, 62, 64
8, 56852, Note_on_c, 5, 59, 100
8, 57028, Note_off_c, 5, 59, 64
8, 57240, Note_on_c, 5, 59, 100
8, 57324, Note_off_c, 5, 59, 64
8, 57340, Note_on_c, 5, 57, 100
8, 57424, Note_off_c, 5, 57, 64
8, 57428, Note_on_c, 5, 59, 100
8, 57604, Note_off_c, 5, 59, 64
8, 57620, Note_on_c, 5, 62, 100
8, 57704, Note_off_c, 5, 62, 64
8, 57724, Note_on_c, 5, 60, 100
8, 57808, Note_off_c, 5, 60, 64
8, 57812, Note_on_c, 5, 62, 100
8, 57988, Note_off_c, 5, 62, 64
8, 59156, Note_on_c, 5, 59, 100
8, 59240, Note_off_c, 5, 59, 64
8, 59252, Note_on_c, 5, 57, 100
8, 59336, Note_off_c, 5, 57, 64
8, 59348, Note_on_c, 5, 59, 100
8, 59524, Note_off_c, 5, 59, 64
8, 59544, Note_on_c, 5, 50, 100
8, 59628, Note_off_c, 5, 50, 64
8, 59632, Note_on_c, 5, 48, 100
8, 59716, Note_off_c, 5, 48, 64
8, 59744, Note_on_c, 5, 50, 100
8, 59920, Note_off_c, 5, 50, 64
8, 59924, Note_on_c, 5, 67, 100
8, 60008, Note_off_c, 5, 67, 64
8, 60016, Note_on_c, 5, 66, 100
8, 60100, Note_off_c, 5, 66, 64
8, 60124, Note_on_c, 5, 67, 100
8, 60300, Note_off_c, 5, 67, 64
8, 60320, Note_on_c, 5, 55, 100
8, 60400, Note_off_c, 5, 55, 64
8, 60412, Note_on_c, 5, 57, 100
8, 60496, Note_off_c, 5, 57, 64
8, 60508, Note_on_c, 5, 59, 100
8, 60684, Note_off_c, 5, 59, 64
8, 60696, Note_on_c, 5, 61, 100
8, 60872, Note_off_c, 5, 61, 64
8, 60896, Note_on_c, 5, 62, 100
8, 61072, Note_off_c, 5, 62, 64
8, 61076, Note_on_c, 5, 66, 100
8, 61160, Note_off_c, 5, 66, 64
8, 61180, Note_on_c, 5, 64, 100
8, 61264, Note_off_c, 5, 64, 64
8, 61272, Note_on_c, 5, 66, 100
8, 61448, Note_off_c, 5, 66, 64
8, 61840, Note_on_c, 5, 54, 100
8, 61924, Note_off_c, 5, 54, 64
8, 61940, Note_on_c, 5, 52, 100
8, 62024, Note_off_c, 5, 52, 64
8, 62040, Note_on_c, 5, 54, 100
8, 62216, Note_off_c, 5, 54, 64
8, 62620, Note_on_c, 5, 62, 100
8, 62796, Note_off_c, 5, 62, 64
8, 62800, Note_on_c, 5, 57, 100
8, 62976, Note_off_c, 5, 57, 64
8, 62996, Note_on_c, 5, 54, 100
8, 63172, Note_off_c, 5, 54, 64
8, 63200, Note_on_c, 5, 50, 100
8, 63376, Note_off_c, 5, 50, 64
8, 63380, Note_on_c, 5, 54, 100
8, 63556, Note_off_c, 5, 54, 64
8, 63576, Note_on_c, 5, 60, 100
8, 63752, Note_off_c, 5, 60, 64
8, 63776, Note_on_c, 5, 60, 100
8, 63952, Note_off_c, 5, 60, 64
8, 63968, Note_on_c, 5, 59, 100
8, 64144, Note_off_c, 5, 59, 64
8, 64160, Note_on_c, 5, 55, 100
8, 64336, Note_on_c, 5, 55, 100
8, 64348, Note_off_c, 5, 55, 64
8, 64516, Note_off_c, 5, 55, 64
8, 64544, Note_on_c, 5, 67, 100
8, 64720, Note_off_c, 5, 67, 64
8, 64728, Note_on_c, 5, 67, 100
8, 64904, Note_off_c, 5, 67, 64
8, 64912, Note_on_c, 5, 55, 100
8, 65088, Note_off_c, 5, 55, 64
8, 65104, Note_on_c, 5, 55, 100
8, 65280, Note_off_c, 5, 55, 64
8, 65308, Note_on_c, 5, 67, 100
8, 65484, Note_off_c, 5, 67, 64
8, 65504, Note_on_c, 5, 67, 100
8, 65680, Note_off_c, 5, 67, 64
8, 65680, Note_on_c, 5, 55, 100
8, 65856, Note_off_c, 5, 55, 64
8, 65872, Note_on_c, 5, 55, 100
8, 66048, Note_off_c, 5, 55, 64
8, 66064, Note_on_c, 5, 64, 100
8, 66240, Note_off_c, 5, 64, 64
8, 66256, Note_on_c, 5, 62, 100
8, 66432, Note_off_c, 5, 62, 64
8, 66456, Note_on_c, 5, 64, 100
8, 66632, Note_off_c, 5, 64, 64
8, 66652, Note_on_c, 5, 66, 100
8, 66828, Note_off_c, 5, 66, 64
8, 66836, Note_on_c, 5, 62, 100
8, 66920, Note_off_c, 5, 62, 64
8, 66932, Note_on_c, 5, 64, 100
8, 67016, Note_off_c, 5, 64, 64
8, 67040, Note_on_c, 5, 66, 100
8, 67216, Note_off_c, 5, 66, 64
8, 67224, Note_on_c, 5, 67, 100
8, 67400, Note_off_c, 5, 67, 64
8, 67420, Note_on_c, 5, 69, 100
8, 67596, Note_off_c, 5, 69, 64
8, 67608, Note_on_c, 5, 57, 100
8, 67784, Note_off_c, 5, 57, 64
8, 67808, Note_on_c, 5, 59, 100
8, 67984, Note_off_c, 5, 59, 64
8, 67984, Note_on_c, 5, 60, 100
8, 68160, Note_off_c, 5, 60, 64
8, 68188, Note_on_c, 5, 60, 100
8, 68364, Note_off_c, 5, 60, 64
8, 68384, Note_on_c, 5, 60, 100
8, 68560, Note_off_c, 5, 60, 64
8, 68568, Note_on_c, 5, 59, 100
8, 68652, Note_off_c, 5, 59, 64
8, 68664, Note_on_c, 5, 67, 100
8, 68748, Note_off_c, 5, 67, 64
8, 68760, Note_on_c, 5, 66, 100
8, 68848, Note_off_c, 5, 66, 64
8, 68864, Note_on_c, 5, 64, 100
8, 68944, Note_off_c, 5, 64, 64
8, 68948, Note_on_c, 5, 62, 100
8, 69032, Note_off_c, 5, 62, 64
8, 69044, Note_on_c, 5, 60, 100
8, 69128, Note_off_c, 5, 60, 64
8, 69144, Note_on_c, 5, 59, 100
8, 69228, Note_off_c, 5, 59, 64
8, 69236, Note_on_c, 5, 57, 100
8, 69320, Note_off_c, 5, 57, 64
8, 69332, Note_on_c, 5, 59, 100
8, 69508, Note_off_c, 5, 59, 64
8, 69532, Note_on_c, 5, 57, 100
8, 69616, Note_off_c, 5, 57, 64
8, 69632, Note_on_c, 5, 55, 100
8, 69712, Note_off_c, 5, 55, 64
8, 69728, Note_on_c, 5, 62, 100
8, 69904, Note_off_c, 5, 62, 64
8, 69916, Note_on_c, 5, 50, 100
8, 70092, Note_off_c, 5, 50, 64
8, 70100, Note_on_c, 5, 67, 100
8, 70276, Note_off_c, 5, 67, 64
8, 70288, Note_on_c, 5, 66, 100
8, 70372, Note_off_c, 5, 66, 64
8, 70400, Note_on_c, 5, 64, 100
8, 70480, Note_off_c, 5, 64, 64
8, 70480, Note_on_c, 5, 62, 100
8, 70564, Note_off_c, 5, 62, 64
8, 70576, Note_on_c, 5, 60, 100
8, 70660, Note_off_c, 5, 60, 64
8, 70688, Note_on_c, 5, 59, 100
8, 70768, Note_off_c, 5, 59, 64
8, 70784, Note_on_c, 5, 57, 100
8, 70864, Note_off_c, 5, 57, 64
8, 70868, Note_on_c, 5, 55, 100
8, 71044, Note_off_c, 5, 55, 64
8, 71072, Note_on_c, 5, 55, 100
8, 71248, Note_off_c, 5, 55, 64
8, 71252, Note_on_c, 5, 55, 100
8, 71428, Note_off_c, 5, 55, 64
8, 71452, Note_on_c, 5, 55, 100
8, 71628, Note_off_c, 5, 55, 64
8, 71644, Note_on_c, 5, 55, 100
8, 71820, Note_off_c, 5, 55, 64
8, 71836, Note_on_c, 5, 55, 100
8, 72012, Note_off_c, 5, 55, 64
8, 72020, Note_on_c, 5, 55, 100
8, 72196, Note_off_c, 5, 55, 64
8, 72212, Note_on_c, 5, 55, 100
8, 72388, Note_off_c, 5, 55, 64
8, 72404, Note_on_c, 5, 55, 100
8, 72580, Note_off_c, 5, 55, 64
8, 72600, Note_on_c, 5, 55, 100
8, 72776, Note_off_c, 5, 55, 64
8, 72792, Note_on_c, 5, 55, 100
8, 72968, Note_off_c, 5, 55, 64
8, 72984, Note_on_c, 5, 55, 100
8, 73160, Note_off_c, 5, 55, 64
8, 73184, Note_on_c, 5, 55, 100
8, 73360, Note_off_c, 5, 55, 64
8, 73376, Note_on_c, 5, 55, 100
8, 73552, Note_off_c, 5, 55, 64
8, 73560, Note_on_c, 5, 55, 100
8, 73736, Note_off_c, 5, 55, 64
8, 73752, Note_on_c, 5, 55, 100
8, 73928, Note_off_c, 5, 55, 64
8, 73936, Note_on_c, 5, 55, 100
8, 74112, Note_off_c, 5, 55, 64
8, 74128, Note_on_c, 5, 55, 100
8, 74304, Note_off_c, 5, 55, 64
8, 74332, Note_on_c, 5, 55, 100
8, 74508, Note_off_c, 5, 55, 64
8, 74512, Note_on_c, 5, 55, 100
8, 74688, Note_off_c, 5, 55, 64
8, 74716, Note_on_c, 5, 55, 100
8, 74892, Note_off_c, 5, 55, 64
8, 74912, Note_on_c, 5, 55, 100
8, 75088, Note_off_c, 5, 55, 64
8, 75096, Note_on_c, 5, 55, 100
8, 75272, Note_off_c, 5, 55, 64
8, 75280, Note_on_c, 5, 55, 100
8, 75456, Note_off_c, 5, 55, 64
8, 75472, Note_on_c, 5, 55, 100
8, 75648, Note_off_c, 5, 55, 64
8, 75680, Note_on_c, 5, 55, 100
8, 75856, Note_off_c, 5, 55, 64
8, 75864, Note_on_c, 5, 55, 100
8, 76040, Note_off_c, 5, 55, 64
8, 76056, Note_on_c, 5, 57, 100
8, 76232, Note_off_c, 5, 57, 64
8, 76240, Note_on_c, 5, 57, 100
8, 76324, Note_off_c, 5, 57, 64
8, 76348, Note_on_c, 5, 74, 100
8, 76432, Note_off_c, 5, 74, 64
8, 76436, Note_on_c, 5, 73, 100
8, 76520, Note_off_c, 5, 73, 64
8, 76528, Note_on_c, 5, 71, 100
8, 76612, Note_off_c, 5, 71, 64
8, 76640, Note_on_c, 5, 69, 100
8, 76720, Note_off_c, 5, 69, 64
8, 76720, Note_on_c, 5, 67, 100
8, 76804, Note_off_c, 5, 67, 64
8, 76832, Note_on_c, 5, 66, 100
8, 76912, Note_off_c, 5, 66, 64
8, 76912, Note_on_c, 5, 64, 100
8, 76996, Note_off_c, 5, 64, 64
8, 77020, Note_on_c, 5, 63, 100
8, 77196, Note_off_c, 5, 63, 64
8, 77204, Note_on_c, 5, 63, 100
8, 77380, Note_off_c, 5, 63, 64
8, 77392, Note_on_c, 5, 63, 100
8, 77568, Note_off_c, 5, 63, 64
8, 77600, Note_on_c, 5, 63, 100
8, 77776, Note_off_c, 5, 63, 64
8, 77788, Note_on_c, 5, 66, 100
8, 77964, Note_off_c, 5, 66, 64
8, 77972, Note_on_c, 5, 66, 100
8, 78148, Note_off_c, 5, 66, 64
8, 78172, Note_on_c, 5, 66, 100
8, 78348, Note_off_c, 5, 66, 64
8, 78368, Note_on_c, 5, 66, 100
8, 78544, Note_off_c, 5, 66, 64
8, 78548, Note_on_c, 5, 69, 100
8, 78724, Note_off_c, 5, 69, 64
8, 78744, Note_on_c, 5, 69, 100
8, 78920, Note_off_c, 5, 69, 64
8, 78932, Note_on_c, 5, 69, 100
8, 79108, Note_off_c, 5, 69, 64
8, 79120, Note_on_c, 5, 69, 100
8, 79296, Note_off_c, 5, 69, 64
8, 79324, Note_on_c, 5, 69, 100
8, 79500, Note_off_c, 5, 69, 64
8, 79516, Note_on_c, 5, 69, 100
8, 79692, Note_off_c, 5, 69, 64
8, 79700, Note_on_c, 5, 69, 100
8, 79876, Note_off_c, 5, 69, 64
8, 79892, Note_on_c, 5, 69, 100
8, 80068, Note_off_c, 5, 69, 64
8, 80080, Note_on_c, 5, 63, 100
8, 80256, Note_off_c, 5, 63, 64
8, 80288, Note_on_c, 5, 63, 100
8, 80464, Note_off_c, 5, 63, 64
8, 80480, Note_on_c, 5, 63, 100
8, 80656, Note_off_c, 5, 63, 64
8, 80664, Note_on_c, 5, 63, 100
8, 80840, Note_off_c, 5, 63, 64
8, 80864, Note_on_c, 5, 59, 100
8, 81040, Note_off_c, 5, 59, 64
8, 81044, Note_on_c, 5, 59, 100
8, 81220, Note_off_c, 5, 59, 64
8, 81244, Note_on_c, 5, 59, 100
8, 81420, Note_off_c, 5, 59, 64
8, 81432, Note_on_c, 5, 59, 100
8, 81608, Note_off_c, 5, 59, 64
8, 81624, Note_on_c, 5, 59, 100
8, 81984, Note_off_c, 5, 59, 64
8, 82208, Note_on_c, 5, 59, 100
8, 82288, Note_off_c, 5, 59, 64
8, 82296, Note_on_c, 5, 57, 100
8, 82380, Note_off_c, 5, 57, 64
8, 82400, Note_on_c, 5, 59, 100
8, 82576, Note_off_c, 5, 59, 64
8, 82576, Note_on_c, 5, 55, 100
8, 82660, Note_off_c, 5, 55, 64
8, 82684, Note_on_c, 5, 54, 100
8, 82768, Note_off_c, 5, 54, 64
8, 82784, Note_on_c, 5, 55, 100
8, 82960, Note_off_c, 5, 55, 64
8, 83352, Note_on_c, 5, 52, 100
8, 83436, Note_off_c, 5, 52, 64
8, 83444, Note_on_c, 5, 54, 100
8, 83528, Note_off_c, 5, 54, 64
8, 83540, Note_on_c, 5, 55, 100
8, 83716, Note_off_c, 5, 55, 64
8, 83744, Note_on_c, 5, 57, 100
8, 83920, Note_off_c, 5, 57, 64
8, 83932, Note_on_c, 5, 59, 100
8, 84292, Note_off_c, 5, 59, 64
8, 84880, Note_on_c, 5, 63, 100
8, 84964, Note_off_c, 5, 63, 64
8, 84988, Note_on_c, 5, 64, 100
8, 85072, Note_off_c, 5, 64, 64
8, 85088, Note_on_c, 5, 63, 100
8, 85264, Note_off_c, 5, 63, 64
8, 85276, Note_on_c, 5, 63, 100
8, 85360, Note_off_c, 5, 63, 64
8, 85368, Note_on_c, 5, 64, 100
8, 85452, Note_off_c, 5, 64, 64
8, 85472, Note_on_c, 5, 63, 100
8, 85648, Note_on_c, 5, 63, 100
8, 85732, Note_off_c, 5, 63, 64
8, 85736, Note_off_c, 5, 63, 64
8, 85756, Note_on_c, 5, 61, 100
8, 85840, Note_off_c, 5, 61, 64
8, 85852, Note_on_c, 5, 63, 100
8, 86028, Note_off_c, 5, 63, 64
8, 86044, Note_on_c, 5, 71, 100
8, 86220, Note_off_c, 5, 71, 64
8, 86228, Note_on_c, 5, 67, 100
8, 86404, Note_off_c, 5, 67, 64
8, 86416, Note_on_c, 5, 66, 100
8, 86500, Note_off_c, 5, 66, 64
8, 86516, Note_on_c, 5, 64, 100
8, 86600, Note_off_c, 5, 64, 64
8, 86624, Note_on_c, 5, 66, 100
8, 86800, Note_off_c, 5, 66, 64
8, 86800, Note_on_c, 5, 64, 100
8, 86884, Note_off_c, 5, 64, 64
8, 86896, Note_on_c, 5, 63, 100
8, 86980, Note_off_c, 5, 63, 64
8, 87000, Note_on_c, 5, 72, 100
8, 87268, Note_off_c, 5, 72, 64
8, 87280, Note_on_c, 5, 71, 100
8, 87364, Note_off_c, 5, 71, 64
8, 87388, Note_on_c, 5, 69, 100
8, 87472, Note_off_c, 5, 69, 64
8, 87488, Note_on_c, 5, 67, 100
8, 87568, Note_off_c, 5, 67, 64
8, 87584, Note_on_c, 5, 66, 100
8, 87664, Note_off_c, 5, 66, 64
8, 87664, Note_on_c, 5, 64, 100
8, 87748, Note_off_c, 5, 64, 64
8, 87772, Note_on_c, 5, 66, 100
8, 87948, Note_off_c, 5, 66, 64
8, 87960, Note_on_c, 5, 71, 100
8, 88136, Note_off_c, 5, 71, 64
8, 88148, Note_on_c, 5, 69, 100
8, 88324, Note_off_c, 5, 69, 64
8, 88336, Note_on_c, 5, 67, 100
8, 88420, Note_off_c, 5, 67, 64
8, 88440, Note_on_c, 5, 66, 100
8, 88524, Note_off_c, 5, 66, 64
8, 88532, Note_on_c, 5, 67, 100
8, 88616, Note_off_c, 5, 67, 64
8, 88628, Note_on_c, 5, 71, 100
8, 88712, Note_off_c, 5, 71, 64
8, 88736, Note_on_c, 5, 64, 100
8, 88816, Note_off_c, 5, 64, 64
8, 88816, Note_on_c, 5, 66, 100
8, 88900, Note_off_c, 5, 66, 64
8, 88912, Note_on_c, 5, 67, 100
8, 88996, Note_off_c, 5, 67, 64
8, 89024, Note_on_c, 5, 69, 100
8, 89104, Note_off_c, 5, 69, 64
8, 89108, Note_on_c, 5, 63, 100
8, 89284, Note_off_c, 5, 63, 64
8, 89308, Note_on_c, 5, 59, 100
8, 89484, Note_off_c, 5, 59, 64
8, 89488, Note_on_c, 5, 67, 100
8, 89664, Note_off_c, 5, 67, 64
8, 89884, Note_on_c, 5, 66, 100
8, 90060, Note_off_c, 5, 66, 64
8, 90064, Note_on_c, 5, 67, 100
8, 90148, Note_off_c, 5, 67, 64
8, 90164, Note_on_c, 5, 71, 100
8, 90248, Note_off_c, 5, 71, 64
8, 90260, Note_on_c, 5, 64, 100
8, 90344, Note_off_c, 5, 64, 64
8, 90356, Note_on_c, 5, 66, 100
8, 90440, Note_off_c, 5, 66, 64
8, 90452, Note_on_c, 5, 67, 100
8, 90536, Note_off_c, 5, 67, 64
8, 90544, Note_on_c, 5, 69, 100
8, 90628, Note_off_c, 5, 69, 64
8, 90652, Note_on_c, 5, 71, 100
8, 90736, Note_off_c, 5, 71, 64
8, 90752, Note_on_c, 5, 69, 100
8, 90832, Note_off_c, 5, 69, 64
8, 90848, Note_on_c, 5, 67, 100
8, 91024, Note_off_c, 5, 67, 64
8, 91036, Note_on_c, 5, 76, 100
8, 91212, Note_off_c, 5, 76, 64
8, 91220, Note_on_c, 5, 67, 100
8, 91396, Note_off_c, 5, 67, 64
8, 91420, Note_on_c, 5, 71, 100
8, 91596, Note_off_c, 5, 71, 64
8, 91612, Note_on_c, 5, 64, 100
8, 91788, Note_off_c, 5, 64, 64
8, 91804, Note_on_c, 5, 61, 100
8, 91888, Note_off_c, 5, 61, 64
8, 91892, Note_on_c, 5, 59, 100
8, 91976, Note_off_c, 5, 59, 64
8, 91984, Note_on_c, 5, 57, 100
8, 92160, Note_off_c, 5, 57, 64
8, 92576, Note_on_c, 5, 61, 100
8, 92656, Note_off_c, 5, 61, 64
8, 92660, Note_on_c, 5, 59, 100
8, 92744, Note_off_c, 5, 59, 64
8, 92768, Note_on_c, 5, 57, 100
8, 92944, Note_off_c, 5, 57, 64
8, 93336, Note_on_c, 5, 61, 100
8, 93420, Note_off_c, 5, 61, 64
8, 93440, Note_on_c, 5, 59, 100
8, 93520, Note_off_c, 5, 59, 64
8, 93528, Note_on_c, 5, 57, 100
8, 93704, Note_off_c, 5, 57, 64
8, 94108, Note_on_c, 5, 61, 100
8, 94192, Note_off_c, 5, 61, 64
8, 94192, Note_on_c, 5, 62, 100
8, 94276, Note_off_c, 5, 62, 64
8, 94292, Note_on_c, 5, 64, 100
8, 94468, Note_off_c, 5, 64, 64
8, 94492, Note_on_c, 5, 57, 100
8, 94668, Note_off_c, 5, 57, 64
8, 94680, Note_on_c, 5, 64, 100
8, 95040, Note_off_c, 5, 64, 64
8, 95256, Note_on_c, 5, 62, 100
8, 95340, Note_off_c, 5, 62, 64
8, 95356, Note_on_c, 5, 64, 100
8, 95440, Note_off_c, 5, 64, 64
8, 95448, Note_on_c, 5, 66, 100
8, 95624, Note_off_c, 5, 66, 64
8, 96032, Note_on_c, 5, 62, 100
8, 96112, Note_off_c, 5, 62, 64
8, 96124, Note_on_c, 5, 64, 100
8, 96208, Note_off_c, 5, 64, 64
8, 96212, Note_on_c, 5, 66, 100
8, 96388, Note_off_c, 5, 66, 64
8, 96788, Note_on_c, 5, 62, 100
8, 96872, Note_off_c, 5, 62, 64
8, 96892, Note_on_c, 5, 64, 100
8, 96976, Note_off_c, 5, 64, 64
8, 96992, Note_on_c, 5, 66, 100
8, 97168, Note_off_c, 5, 66, 64
8, 98336, Note_on_c, 5, 50, 100
8, 98512, Note_off_c, 5, 50, 64
8, 98528, Note_on_c, 5, 50, 100
8, 98608, Note_off_c, 5, 50, 64
8, 98612, Note_on_c, 5, 62, 100
8, 98696, Note_off_c, 5, 62, 64
8, 98716, Note_on_c, 5, 55, 100
8, 98800, Note_off_c, 5, 55, 64
8, 98808, Note_on_c, 5, 57, 100
8, 98892, Note_off_c, 5, 57, 64
8, 98904, Note_on_c, 5, 59, 100
8, 98988, Note_off_c, 5, 59, 64
8, 98996, Note_on_c, 5, 60, 100
8, 99080, Note_off_c, 5, 60, 64
8, 99100, Note_on_c, 5, 62, 100
8, 99184, Note_off_c, 5, 62, 64
8, 99196, Note_on_c, 5, 60, 100
8, 99280, Note_off_c, 5, 60, 64
8, 99288, Note_on_c, 5, 59, 100
8, 99464, Note_off_c, 5, 59, 64
8, 99488, Note_on_c, 5, 59, 100
8, 99568, Note_off_c, 5, 59, 64
8, 99576, Note_on_c, 5, 57, 100
8, 99660, Note_off_c, 5, 57, 64
8, 99668, Note_on_c, 5, 55, 100
8, 99844, Note_off_c, 5, 55, 64
8, 100640, Note_on_c, 5, 59, 100
8, 100720, Note_off_c, 5, 59, 64
8, 100732, Note_on_c, 5, 60, 100
8, 100816, Note_off_c, 5, 60, 64
8, 100820, Note_on_c, 5, 62, 100
8, 100996, Note_off_c, 5, 62, 64
8, 101008, Note_on_c, 5, 55, 100
8, 101092, Note_off_c, 5, 55, 64
8, 101116, Note_on_c, 5, 57, 100
8, 101200, Note_off_c, 5, 57, 64
8, 101216, Note_on_c, 5, 59, 100
8, 101296, Note_off_c, 5, 59, 64
8, 101304, Note_on_c, 5, 69, 100
8, 101388, Note_off_c, 5, 69, 64
8, 101396, Note_on_c, 5, 67, 100
8, 101480, Note_off_c, 5, 67, 64
8, 101492, Note_on_c, 5, 66, 100
8, 101576, Note_off_c, 5, 66, 64
8, 101596, Note_on_c, 5, 64, 100
8, 101772, Note_off_c, 5, 64, 64
8, 101788, Note_on_c, 5, 64, 100
8, 101964, Note_off_c, 5, 64, 64
8, 101980, Note_on_c, 5, 64, 100
8, 102156, Note_off_c, 5, 64, 64
8, 102164, Note_on_c, 5, 64, 100
8, 102340, Note_off_c, 5, 64, 64
8, 102364, Note_on_c, 5, 64, 100
8, 102540, Note_off_c, 5, 64, 64
8, 102552, Note_on_c, 5, 64, 100
8, 102728, Note_off_c, 5, 64, 64
8, 102752, Note_on_c, 5, 64, 100
8, 102928, Note_off_c, 5, 64, 64
8, 102940, Note_on_c, 5, 64, 100
8, 103116, Note_off_c, 5, 64, 64
8, 103120, Note_on_c, 5, 64, 100
8, 103296, Note_off_c, 5, 64, 64
8, 103328, Note_on_c, 5, 64, 100
8, 103504, Note_off_c, 5, 64, 64
8, 103508, Note_on_c, 5, 64, 100
8, 103684, Note_off_c, 5, 64, 64
8, 103708, Note_on_c, 5, 64, 100
8, 103884, Note_off_c, 5, 64, 64
8, 103892, Note_on_c, 5, 64, 100
8, 104068, Note_off_c, 5, 64, 64
8, 104080, Note_on_c, 5, 64, 100
8, 104256, Note_off_c, 5, 64, 64
8, 104272, Note_on_c, 5, 64, 100
8, 104448, Note_off_c, 5, 64, 64
8, 104476, Note_on_c, 5, 64, 100
8, 104652, Note_off_c, 5, 64, 64
8, 104664, Note_on_c, 5, 58, 100
8, 104840, Note_off_c, 5, 58, 64
8, 104856, Note_on_c, 5, 58, 100
8, 105032, Note_off_c, 5, 58, 64
8, 105044, Note_on_c, 5, 58, 100
8, 105220, Note_off_c, 5, 58, 64
8, 105240, Note_on_c, 5, 58, 100
8, 105416, Note_off_c, 5, 58, 64
8, 105436, Note_on_c, 5, 54, 100
8, 105612, Note_off_c, 5, 54, 64
8, 105620, Note_on_c, 5, 54, 100
8, 105796, Note_off_c, 5, 54, 64
8, 105812, Note_on_c, 5, 54, 100
8, 105988, Note_off_c, 5, 54, 64
8, 106004, Note_on_c, 5, 54, 100
8, 106180, Note_off_c, 5, 54, 64
8, 106208, Note_on_c, 5, 59, 100
8, 106384, Note_off_c, 5, 59, 64
8, 106384, Note_on_c, 5, 66, 100
8, 106560, Note_off_c, 5, 66, 64
8, 106580, Note_on_c, 5, 62, 100
8, 106756, Note_off_c, 5, 62, 64
8, 106784, Note_on_c, 5, 59, 100
8, 106960, Note_off_c, 5, 59, 64
8, 106976, Note_on_c, 5, 62, 100
8, 107152, Note_off_c, 5, 62, 64
8, 107164, Note_on_c, 5, 66, 100
8, 107340, Note_off_c, 5, 66, 64
8, 107348, Note_on_c, 5, 62, 100
8, 107524, Note_off_c, 5, 62, 64
8, 107552, Note_on_c, 5, 59, 100
8, 107728, Note_off_c, 5, 59, 64
8, 107728, Note_on_c, 5, 71, 100
8, 107904, Note_off_c, 5, 71, 64
8, 107924, Note_on_c, 5, 74, 100
8, 108008, Note_off_c, 5, 74, 64
8, 108032, Note_on_c, 5, 73, 100
8, 108112, Note_off_c, 5, 73, 64
8, 108112, Note_on_c, 5, 71, 100
8, 108288, Note_off_c, 5, 71, 64
8, 108308, Note_on_c, 5, 69, 100
8, 108392, Note_off_c, 5, 69, 64
8, 108416, Note_on_c, 5, 67, 100
8, 108496, Note_off_c, 5, 67, 64
8, 108496, Note_on_c, 5, 66, 100
8, 108672, Note_off_c, 5, 66, 64
8, 108696, Note_on_c, 5, 64, 100
8, 108780, Note_off_c, 5, 64, 64
8, 108788, Note_on_c, 5, 62, 100
8, 108872, Note_off_c, 5, 62, 64
8, 108896, Note_on_c, 5, 61, 100
8, 109072, Note_off_c, 5, 61, 64
8, 109080, Note_on_c, 5, 70, 100
8, 109256, Note_off_c, 5, 70, 64
8, 109272, Note_on_c, 5, 71, 100
8, 109448, Note_off_c, 5, 71, 64
8, 109464, Note_on_c, 5, 59, 100
8, 109640, Note_off_c, 5, 59, 64
8, 109656, Note_on_c, 5, 59, 100
8, 109832, Note_off_c, 5, 59, 64
8, 109856, Note_on_c, 5, 71, 100
8, 110032, Note_off_c, 5, 71, 64
8, 110040, Note_on_c, 5, 71, 100
8, 110216, Note_off_c, 5, 71, 64
8, 110224, Note_on_c, 5, 59, 100
8, 110400, Note_off_c, 5, 59, 64
8, 110428, Note_on_c, 5, 59, 100
8, 110604, Note_off_c, 5, 59, 64
8, 110620, Note_on_c, 5, 71, 100
8, 110796, Note_off_c, 5, 71, 64
8, 110804, Note_on_c, 5, 66, 100
8, 110980, Note_off_c, 5, 66, 64
8, 110992, Note_on_c, 5, 64, 100
8, 111076, Note_off_c, 5, 64, 64
8, 111100, Note_on_c, 5, 62, 100
8, 111184, Note_off_c, 5, 62, 64
8, 111192, Note_on_c, 5, 64, 100
8, 111368, Note_off_c, 5, 64, 64
8, 111384, Note_on_c, 5, 62, 100
8, 111468, Note_off_c, 5, 62, 64
8, 111472, Note_on_c, 5, 61, 100
8, 111556, Note_off_c, 5, 61, 64
8, 111572, Note_on_c, 5, 67, 100
8, 111840, Note_off_c, 5, 67, 64
8, 111860, Note_on_c, 5, 66, 100
8, 111944, Note_off_c, 5, 66, 64
8, 111952, Note_on_c, 5, 64, 100
8, 112036, Note_off_c, 5, 64, 64
8, 112052, Note_on_c, 5, 62, 100
8, 112136, Note_off_c, 5, 62, 64
8, 112148, Note_on_c, 5, 61, 100
8, 112232, Note_off_c, 5, 61, 64
8, 112256, Note_on_c, 5, 59, 100
8, 112336, Note_off_c, 5, 59, 64
8, 112348, Note_on_c, 5, 62, 100
8, 112524, Note_off_c, 5, 62, 64
8, 112532, Note_on_c, 5, 61, 100
8, 112708, Note_off_c, 5, 61, 64
8, 112732, Note_on_c, 5, 61, 100
8, 112908, Note_off_c, 5, 61, 64
8, 112924, Note_on_c, 5, 54, 100
8, 113100, Note_off_c, 5, 54, 64
8, 113120, Note_on_c, 5, 54, 100
8, 113480, Note_off_c, 5, 54, 64
8, 114080, Note_on_c, 5, 59, 100
8, 114160, Note_off_c, 5, 59, 64
8, 114172, Note_on_c, 5, 58, 100
8, 114256, Note_off_c, 5, 58, 64
8, 114268, Note_on_c, 5, 59, 100
8, 114444, Note_off_c, 5, 59, 64
8, 114456, Note_on_c, 5, 62, 100
8, 114540, Note_off_c, 5, 62, 64
8, 114556, Note_on_c, 5, 61, 100
8, 114640, Note_off_c, 5, 61, 64
8, 114640, Note_on_c, 5, 62, 100
8, 114816, Note_off_c, 5, 62, 64
8, 115616, Note_on_c, 5, 59, 100
8, 115696, Note_off_c, 5, 59, 64
8, 115700, Note_on_c, 5, 61, 100
8, 115784, Note_off_c, 5, 61, 64
8, 115804, Note_on_c, 5, 59, 100
8, 115980, Note_off_c, 5, 59, 64
8, 115988, Note_on_c, 5, 64, 100
8, 116164, Note_off_c, 5, 64, 64
8, 116180, Note_on_c, 5, 64, 100
8, 116356, Note_off_c, 5, 64, 64
8, 116372, Note_on_c, 5, 61, 100
8, 116456, Note_off_c, 5, 61, 64
8, 116468, Note_on_c, 5, 62, 100
8, 116552, Note_off_c, 5, 62, 64
8, 116560, Note_on_c, 5, 61, 100
8, 116736, Note_off_c, 5, 61, 64
8, 116764, Note_on_c, 5, 62, 100
8, 116848, Note_off_c, 5, 62, 64
8, 116852, Note_on_c, 5, 64, 100
8, 116936, Note_off_c, 5, 64, 64
8, 116960, Note_on_c, 5, 62, 100
8, 117136, Note_off_c, 5, 62, 64
8, 117136, Note_on_c, 5, 64, 100
8, 117312, Note_off_c, 5, 64, 64
8, 117336, Note_on_c, 5, 64, 100
8, 117512, Note_off_c, 5, 64, 64
8, 117524, Note_on_c, 5, 58, 100
8, 117700, Note_off_c, 5, 58, 64
8, 117716, Note_on_c, 5, 54, 100
8, 118080, Note_off_c, 5, 54, 64
8, 118496, Note_on_c, 5, 55, 100
8, 118672, Note_off_c, 5, 55, 64
8, 118684, Note_on_c, 5, 54, 100
8, 118860, Note_off_c, 5, 54, 64
8, 118876, Note_on_c, 5, 55, 100
8, 119052, Note_off_c, 5, 55, 64
8, 119060, Note_on_c, 5, 57, 100
8, 119236, Note_off_c, 5, 57, 64
8, 119256, Note_on_c, 5, 59, 100
8, 119432, Note_off_c, 5, 59, 64
8, 119448, Note_on_c, 5, 60, 100
8, 119624, Note_off_c, 5, 60, 64
8, 119632, Note_on_c, 5, 59, 100
8, 119808, Note_off_c, 5, 59, 64
8, 119836, Note_on_c, 5, 57, 100
8, 120012, Note_off_c, 5, 57, 64
8, 120016, Note_on_c, 5, 55, 100
8, 120192, Note_off_c, 5, 55, 64
8, 120220, Note_on_c, 5, 54, 100
8, 120396, Note_off_c, 5, 54, 64
8, 120416, Note_on_c, 5, 52, 100
8, 120592, Note_off_c, 5, 52, 64
8, 120608, Note_on_c, 5, 57, 100
8, 120784, Note_off_c, 5, 57, 64
8, 120792, Note_on_c, 5, 62, 100
8, 120968, Note_off_c, 5, 62, 64
8, 120976, Note_on_c, 5, 50, 100
8, 121152, Note_off_c, 5, 50, 64
8, 121184, Note_on_c, 5, 54, 100
8, 121360, Note_off_c, 5, 54, 64
8, 121364, Note_on_c, 5, 57, 100
8, 121540, Note_off_c, 5, 57, 64
8, 121560, Note_on_c, 5, 62, 100
8, 121920, Note_off_c, 5, 62, 64
8, 127132, Note_on_c, 5, 55, 100
8, 127216, Note_off_c, 5, 55, 64
8, 127232, Note_on_c, 5, 57, 100
8, 127312, Note_off_c, 5, 57, 64
8, 127312, Note_on_c, 5, 59, 100
8, 127488, Note_off_c, 5, 59, 64
8, 129052, Note_on_c, 5, 52, 100
8, 129136, Note_off_c, 5, 52, 64
8, 129148, Note_on_c, 5, 54, 100
8, 129232, Note_off_c, 5, 54, 64
8, 129240, Note_on_c, 5, 55, 100
8, 129416, Note_off_c, 5, 55, 64
8, 130784, Note_on_c, 5, 55, 100
8, 131144, Note_off_c, 5, 55, 64
8, 131152, Note_on_c, 5, 59, 100
8, 131516, Note_off_c, 5, 59, 64
8, 131536, Note_on_c, 5, 62, 100
8, 131900, Note_off_c, 5, 62, 64
8, 131920, Note_on_c, 5, 62, 100
8, 132096, Note_off_c, 5, 62, 64
8, 132320, Note_on_c, 5, 59, 100
8, 132496, Note_off_c, 5, 59, 64
8, 132504, Note_on_c, 5, 62, 100
8, 132680, Note_off_c, 5, 62, 64
8, 132692, Note_on_c, 5, 67, 100
8, 132776, Note_off_c, 5, 67, 64
8, 132800, Note_on_c, 5, 71, 100
8, 132880, Note_off_c, 5, 71, 64
8, 132880, Note_on_c, 5, 69, 100
8, 132964, Note_off_c, 5, 69, 64
8, 132976, Note_on_c, 5, 67, 100
8, 133060, Note_off_c, 5, 67, 64
8, 133080, Note_on_c, 5, 69, 100
8, 133164, Note_off_c, 5, 69, 64
8, 133184, Note_on_c, 5, 66, 100
8, 133264, Note_off_c, 5, 66, 64
8, 133268, Note_on_c, 5, 57, 100
8, 133352, Note_off_c, 5, 57, 64
8, 133364, Note_on_c, 5, 66, 100
8, 133448, Note_off_c, 5, 66, 64
8, 133464, Note_on_c, 5, 57, 100
8, 133548, Note_off_c, 5, 57, 64
8, 133552, Note_on_c, 5, 66, 100
8, 133636, Note_off_c, 5, 66, 64
8, 133652, Note_on_c, 5, 57, 100
8, 133736, Note_off_c, 5, 57, 64
8, 133748, Note_on_c, 5, 66, 100
8, 133832, Note_off_c, 5, 66, 64
8, 133844, Note_on_c, 5, 55, 100
8, 133928, Note_off_c, 5, 55, 64
8, 133948, Note_on_c, 5, 62, 100
8, 134032, Note_off_c, 5, 62, 64
8, 134036, Note_on_c, 5, 55, 100
8, 134120, Note_off_c, 5, 55, 64
8, 134140, Note_on_c, 5, 62, 100
8, 134224, Note_off_c, 5, 62, 64
8, 134240, Note_on_c, 5, 55, 100
8, 134320, Note_off_c, 5, 55, 64
8, 134320, Note_on_c, 5, 62, 100
8, 134404, Note_off_c, 5, 62, 64
8, 134420, Note_on_c, 5, 55, 100
8, 134504, Note_off_c, 5, 55, 64
8, 134528, Note_on_c, 5, 62, 100
8, 134608, Note_off_c, 5, 62, 64
8, 134608, Note_on_c, 5, 55, 100
8, 134692, Note_off_c, 5, 55, 64
8, 134716, Note_on_c, 5, 64, 100
8, 134800, Note_off_c, 5, 64, 64
8, 134800, Note_on_c, 5, 55, 100
8, 134884, Note_off_c, 5, 55, 64
8, 134908, Note_on_c, 5, 64, 100
8, 134992, Note_off_c, 5, 64, 64
8, 134992, Note_on_c, 5, 55, 100
8, 135076, Note_off_c, 5, 55, 64
8, 135088, Note_on_c, 5, 64, 100
8, 135172, Note_off_c, 5, 64, 64
8, 135200, Note_on_c, 5, 55, 100
8, 135280, Note_off_c, 5, 55, 64
8, 135292, Note_on_c, 5, 64, 100
8, 135376, Note_off_c, 5, 64, 64
8, 135392, Note_on_c, 5, 58, 100
8, 135472, Note_off_c, 5, 58, 64
8, 135480, Note_on_c, 5, 61, 100
8, 135564, Note_off_c, 5, 61, 64
8, 135584, Note_on_c, 5, 58, 100
8, 135664, Note_off_c, 5, 58, 64
8, 135680, Note_on_c, 5, 61, 100
8, 135760, Note_off_c, 5, 61, 64
8, 135764, Note_on_c, 5, 58, 100
8, 135848, Note_off_c, 5, 58, 64
8, 135868, Note_on_c, 5, 61, 100
8, 135952, Note_off_c, 5, 61, 64
8, 135968, Note_on_c, 5, 58, 100
8, 136048, Note_off_c, 5, 58, 64
8, 136064, Note_on_c, 5, 61, 100
8, 136144, Note_off_c, 5, 61, 64
8, 136156, Note_on_c, 5, 58, 100
8, 136240, Note_off_c, 5, 58, 64
8, 136248, Note_on_c, 5, 63, 100
8, 136332, Note_off_c, 5, 63, 64
8, 136348, Note_on_c, 5, 58, 100
8, 136432, Note_off_c, 5, 58, 64
8, 136432, Note_on_c, 5, 63, 100
8, 136516, Note_off_c, 5, 63, 64
8, 136528, Note_on_c, 5, 58, 100
8, 136612, Note_off_c, 5, 58, 64
8, 136624, Note_on_c, 5, 63, 100
8, 136708, Note_off_c, 5, 63, 64
8, 136728, Note_on_c, 5, 58, 100
8, 136812, Note_off_c, 5, 58, 64
8, 136816, Note_on_c, 5, 63, 100
8, 136900, Note_off_c, 5, 63, 64
8, 136912, Note_on_c, 5, 56, 100
8, 136996, Note_off_c, 5, 56, 64
8, 137020, Note_on_c, 5, 59, 100
8, 137104, Note_off_c, 5, 59, 64
8, 137112, Note_on_c, 5, 56, 100
8, 137196, Note_off_c, 5, 56, 64
8, 137216, Note_on_c, 5, 59, 100
8, 137296, Note_off_c, 5, 59, 64
8, 137300, Note_on_c, 5, 56, 100
8, 137384, Note_off_c, 5, 56, 64
8, 137396, Note_on_c, 5, 59, 100
8, 137480, Note_off_c, 5, 59, 64
8, 137500, Note_on_c, 5, 56, 100
8, 137584, Note_off_c, 5, 56, 64
8, 137596, Note_on_c, 5, 59, 100
8, 137680, Note_off_c, 5, 59, 64
8, 137680, Note_on_c, 5, 57, 100
8, 137764, Note_off_c, 5, 57, 64
8, 137792, Note_on_c, 5, 60, 100
8, 137872, Note_off_c, 5, 60, 64
8, 137888, Note_on_c, 5, 57, 100
8, 137968, Note_off_c, 5, 57, 64
8, 137976, Note_on_c, 5, 60, 100
8, 138060, Note_off_c, 5, 60, 64
8, 138072, Note_on_c, 5, 57, 100
8, 138156, Note_off_c, 5, 57, 64
8, 138172, Note_on_c, 5, 60, 100
8, 138256, Note_off_c, 5, 60, 64
8, 138272, Note_on_c, 5, 57, 100
8, 138352, Note_off_c, 5, 57, 64
8, 138368, Note_on_c, 5, 60, 100
8, 138448, Note_off_c, 5, 60, 64
8, 138460, Note_on_c, 5, 62, 100
8, 138636, Note_off_c, 5, 62, 64
8, 138644, Note_on_c, 5, 62, 100
8, 138820, Note_off_c, 5, 62, 64
8, 138840, Note_on_c, 5, 62, 100
8, 139016, Note_off_c, 5, 62, 64
8, 139024, Note_on_c, 5, 62, 100
8, 139200, Note_off_c, 5, 62, 64
8, 139216, Note_on_c, 5, 62, 100
8, 139392, Note_off_c, 5, 62, 64
8, 139416, Note_on_c, 5, 62, 100
8, 139592, Note_off_c, 5, 62, 64
8, 139600, Note_on_c, 5, 62, 100
8, 139776, Note_off_c, 5, 62, 64
8, 139796, Note_on_c, 5, 62, 100
8, 139972, Note_off_c, 5, 62, 64
8, 139988, Note_on_c, 5, 63, 100
8, 140164, Note_off_c, 5, 63, 64
8, 140192, Note_on_c, 5, 63, 100
8, 140368, Note_off_c, 5, 63, 64
8, 140384, Note_on_c, 5, 63, 100
8, 140560, Note_off_c, 5, 63, 64
8, 140576, Note_on_c, 5, 63, 100
8, 140752, Note_off_c, 5, 63, 64
8, 140764, Note_on_c, 5, 63, 100
8, 140940, Note_off_c, 5, 63, 64
8, 140948, Note_on_c, 5, 63, 100
8, 141124, Note_off_c, 5, 63, 64
8, 141136, Note_on_c, 5, 63, 100
8, 141312, Note_off_c, 5, 63, 64
8, 141344, Note_on_c, 5, 63, 100
8, 141520, Note_off_c, 5, 63, 64
8, 141536, Note_on_c, 5, 64, 100
8, 141712, Note_off_c, 5, 64, 64
8, 141724, Note_on_c, 5, 64, 100
8, 141900, Note_off_c, 5, 64, 64
8, 141920, Note_on_c, 5, 64, 100
8, 142096, Note_off_c, 5, 64, 64
8, 142100, Note_on_c, 5, 64, 100
8, 142276, Note_off_c, 5, 64, 64
8, 142292, Note_on_c, 5, 64, 100
8, 142468, Note_off_c, 5, 64, 64
8, 142484, Note_on_c, 5, 64, 100
8, 142660, Note_off_c, 5, 64, 64
8, 142688, Note_on_c, 5, 64, 100
8, 142864, Note_off_c, 5, 64, 64
8, 142880, Note_on_c, 5, 64, 100
8, 143056, Note_off_c, 5, 64, 64
8, 143056, Note_on_c, 5, 63, 100
8, 143232, Note_off_c, 5, 63, 64
8, 143248, Note_on_c, 5, 63, 100
8, 143424, Note_off_c, 5, 63, 64
8, 143440, Note_on_c, 5, 63, 100
8, 143616, Note_off_c, 5, 63, 64
8, 143648, Note_on_c, 5, 63, 100
8, 143824, Note_off_c, 5, 63, 64
8, 143832, Note_on_c, 5, 63, 100
8, 144008, Note_off_c, 5, 63, 64
8, 144020, Note_on_c, 5, 63, 100
8, 144196, Note_off_c, 5, 63, 64
8, 144212, Note_on_c, 5, 63, 100
8, 144388, Note_off_c, 5, 63, 64
8, 144408, Note_on_c, 5, 63, 100
8, 144584, Note_off_c, 5, 63, 64
8, 144592, Note_on_c, 5, 64, 100
8, 144768, Note_off_c, 5, 64, 64
8, 144792, Note_on_c, 5, 64, 100
8, 144968, Note_off_c, 5, 64, 64
8, 144984, Note_on_c, 5, 64, 100
8, 145160, Note_off_c, 5, 64, 64
8, 145184, Note_on_c, 5, 64, 100
8, 145360, Note_off_c, 5, 64, 64
8, 145372, Note_on_c, 5, 64, 100
8, 145548, Note_off_c, 5, 64, 64
8, 145564, Note_on_c, 5, 64, 100
8, 145740, Note_off_c, 5, 64, 64
8, 145748, Note_on_c, 5, 64, 100
8, 145924, Note_off_c, 5, 64, 64
8, 145952, Note_on_c, 5, 64, 100
8, 146128, Note_off_c, 5, 64, 64
8, 146136, Note_on_c, 5, 64, 100
8, 146312, Note_off_c, 5, 64, 64
8, 146320, Note_on_c, 5, 64, 100
8, 146496, Note_off_c, 5, 64, 64
8, 146516, Note_on_c, 5, 64, 100
8, 146692, Note_off_c, 5, 64, 64
8, 146708, Note_on_c, 5, 64, 100
8, 146884, Note_off_c, 5, 64, 64
8, 146904, Note_on_c, 5, 64, 100
8, 147080, Note_off_c, 5, 64, 64
8, 147096, Note_on_c, 5, 64, 100
8, 147272, Note_off_c, 5, 64, 64
8, 147296, Note_on_c, 5, 64, 100
8, 147472, Note_off_c, 5, 64, 64
8, 147480, Note_on_c, 5, 64, 100
8, 147656, Note_off_c, 5, 64, 64
8, 147676, Note_on_c, 5, 60, 100
8, 147852, Note_off_c, 5, 60, 64
8, 149020, Note_on_c, 5, 60, 100
8, 149196, Note_off_c, 5, 60, 64
8, 149212, Note_on_c, 5, 67, 100
8, 149388, Note_off_c, 5, 67, 64
8, 150544, Note_on_c, 5, 59, 100
8, 150720, Note_off_c, 5, 59, 64
8, 150740, Note_on_c, 5, 65, 100
8, 150916, Note_off_c, 5, 65, 64
8, 152096, Note_on_c, 5, 57, 100
8, 152272, Note_off_c, 5, 57, 64
8, 152288, Note_on_c, 5, 64, 100
8, 152464, Note_off_c, 5, 64, 64
8, 152480, Note_on_c, 5, 59, 100
8, 152560, Note_off_c, 5, 59, 64
8, 152572, Note_on_c, 5, 60, 100
8, 152656, Note_off_c, 5, 60, 64
8, 152656, Note_on_c, 5, 59, 100
8, 152832, Note_off_c, 5, 59, 64
8, 152852, Note_on_c, 5, 62, 100
8, 152936, Note_off_c, 5, 62, 64
8, 152960, Note_on_c, 5, 64, 100
8, 153040, Note_off_c, 5, 64, 64
8, 153048, Note_on_c, 5, 62, 100
8, 153224, Note_off_c, 5, 62, 64
8, 153236, Note_on_c, 5, 68, 100
8, 153320, Note_off_c, 5, 68, 64
8, 153344, Note_on_c, 5, 69, 100
8, 153424, Note_off_c, 5, 69, 64
8, 153424, Note_on_c, 5, 68, 100
8, 153600, Note_off_c, 5, 68, 64
8, 153624, Note_on_c, 5, 59, 100
8, 153800, Note_off_c, 5, 59, 64
8, 153816, Note_on_c, 5, 57, 100
8, 153992, Note_off_c, 5, 57, 64
8, 154016, Note_on_c, 5, 57, 100
8, 154192, Note_off_c, 5, 57, 64
8, 154192, Note_on_c, 5, 64, 100
8, 154368, Note_off_c, 5, 64, 64
8, 154396, Note_on_c, 5, 64, 100
8, 154572, Note_off_c, 5, 64, 64
8, 154576, Note_on_c, 5, 64, 100
8, 154660, Note_off_c, 5, 64, 64
8, 154688, Note_on_c, 5, 59, 100
8, 154768, Note_off_c, 5, 59, 64
8, 154776, Note_on_c, 5, 60, 100
8, 154860, Note_off_c, 5, 60, 64
8, 154876, Note_on_c, 5, 62, 100
8, 154960, Note_off_c, 5, 62, 64
8, 154960, Note_on_c, 5, 60, 100
8, 155044, Note_off_c, 5, 60, 64
8, 155060, Note_on_c, 5, 64, 100
8, 155144, Note_off_c, 5, 64, 64
8, 155152, Note_on_c, 5, 62, 100
8, 155236, Note_off_c, 5, 62, 64
8, 155260, Note_on_c, 5, 65, 100
8, 155344, Note_off_c, 5, 65, 64
8, 155344, Note_on_c, 5, 64, 100
8, 155428, Note_off_c, 5, 64, 64
8, 155452, Note_on_c, 5, 62, 100
8, 155536, Note_off_c, 5, 62, 64
8, 155552, Note_on_c, 5, 64, 100
8, 155632, Note_off_c, 5, 64, 64
8, 155636, Note_on_c, 5, 65, 100
8, 155720, Note_off_c, 5, 65, 64
8, 155736, Note_on_c, 5, 64, 100
8, 155820, Note_off_c, 5, 64, 64
8, 155824, Note_on_c, 5, 69, 100
8, 155908, Note_off_c, 5, 69, 64
8, 155932, Note_on_c, 5, 64, 100
8, 156016, Note_off_c, 5, 64, 64
8, 156020, Note_on_c, 5, 71, 100
8, 156104, Note_off_c, 5, 71, 64
8, 156124, Note_on_c, 5, 64, 100
8, 156208, Note_off_c, 5, 64, 64
8, 156212, Note_on_c, 5, 69, 100
8, 156296, Note_off_c, 5, 69, 64
8, 156304, Note_on_c, 5, 64, 100
8, 156388, Note_off_c, 5, 64, 64
8, 156404, Note_on_c, 5, 68, 100
8, 156488, Note_off_c, 5, 68, 64
8, 156508, Note_on_c, 5, 64, 100
8, 156592, Note_off_c, 5, 64, 64
8, 156604, Note_on_c, 5, 69, 100
8, 156688, Note_off_c, 5, 69, 64
8, 156688, Note_on_c, 5, 64, 100
8, 156772, Note_off_c, 5, 64, 64
8, 156796, Note_on_c, 5, 68, 100
8, 156880, Note_off_c, 5, 68, 64
8, 156892, Note_on_c, 5, 64, 100
8, 156976, Note_off_c, 5, 64, 64
8, 156988, Note_on_c, 5, 65, 100
8, 157072, Note_off_c, 5, 65, 64
8, 157080, Note_on_c, 5, 64, 100
8, 157164, Note_off_c, 5, 64, 64
8, 157180, Note_on_c, 5, 62, 100
8, 157264, Note_off_c, 5, 62, 64
8, 157276, Note_on_c, 5, 64, 100
8, 157452, Note_off_c, 5, 64, 64
8, 157464, Note_on_c, 5, 59, 100
8, 157640, Note_off_c, 5, 59, 64
8, 157652, Note_on_c, 5, 59, 100
8, 157828, Note_off_c, 5, 59, 64
8, 157840, Note_on_c, 5, 55, 100
8, 158016, Note_off_c, 5, 55, 64
8, 158240, Note_on_c, 5, 64, 100
8, 158416, Note_off_c, 5, 64, 64
8, 158420, Note_on_c, 5, 67, 100
8, 158596, Note_off_c, 5, 67, 64
8, 158624, Note_on_c, 5, 71, 100
8, 158800, Note_off_c, 5, 71, 64
8, 158804, Note_on_c, 5, 67, 100
8, 158980, Note_off_c, 5, 67, 64
8, 159008, Note_on_c, 5, 64, 100
8, 159184, Note_off_c, 5, 64, 64
8, 159196, Note_on_c, 5, 67, 100
8, 159372, Note_off_c, 5, 67, 64
8, 159380, Note_on_c, 5, 71, 100
8, 159556, Note_off_c, 5, 71, 64
8, 159568, Note_on_c, 5, 67, 100
8, 159744, Note_off_c, 5, 67, 64
8, 159768, Note_on_c, 5, 64, 100
8, 159944, Note_off_c, 5, 64, 64
8, 159952, Note_on_c, 5, 71, 100
8, 160128, Note_off_c, 5, 71, 64
8, 160144, Note_on_c, 5, 71, 100
8, 160228, Note_off_c, 5, 71, 64
8, 160252, Note_on_c, 5, 71, 100
8, 160336, Note_off_c, 5, 71, 64
8, 160344, Note_on_c, 5, 71, 100
8, 160520, Note_off_c, 5, 71, 64
8, 160928, Note_on_c, 5, 59, 100
8, 161008, Note_off_c, 5, 59, 64
8, 161008, Note_on_c, 5, 57, 100
8, 161092, Note_off_c, 5, 57, 64
8, 161108, Note_on_c, 5, 59, 100
8, 161192, Note_off_c, 5, 59, 64
8, 161216, Note_on_c, 5, 60, 100
8, 161296, Note_off_c, 5, 60, 64
8, 161300, Note_on_c, 5, 59, 100
8, 161384, Note_off_c, 5, 59, 64
8, 161400, Note_on_c, 5, 57, 100
8, 161484, Note_off_c, 5, 57, 64
8, 161496, Note_on_c, 5, 55, 100
8, 161580, Note_off_c, 5, 55, 64
8, 161596, Note_on_c, 5, 54, 100
8, 161680, Note_off_c, 5, 54, 64
8, 161680, Note_on_c, 5, 55, 100
8, 161764, Note_off_c, 5, 55, 64
8, 161780, Note_on_c, 5, 57, 100
8, 161864, Note_off_c, 5, 57, 64
8, 161872, Note_on_c, 5, 55, 100
8, 161956, Note_off_c, 5, 55, 64
8, 161972, Note_on_c, 5, 59, 100
8, 162056, Note_off_c, 5, 59, 64
8, 162076, Note_on_c, 5, 57, 100
8, 162160, Note_off_c, 5, 57, 64
8, 162164, Note_on_c, 5, 60, 100
8, 162248, Note_off_c, 5, 60, 64
8, 162264, Note_on_c, 5, 59, 100
8, 162348, Note_off_c, 5, 59, 64
8, 162356, Note_on_c, 5, 57, 100
8, 162440, Note_off_c, 5, 57, 64
8, 162452, Note_on_c, 5, 59, 100
8, 162536, Note_off_c, 5, 59, 64
8, 162560, Note_on_c, 5, 60, 100
8, 162640, Note_off_c, 5, 60, 64
8, 162644, Note_on_c, 5, 59, 100
8, 162728, Note_off_c, 5, 59, 64
8, 162752, Note_on_c, 5, 62, 100
8, 162832, Note_off_c, 5, 62, 64
8, 162840, Note_on_c, 5, 60, 100
8, 162924, Note_off_c, 5, 60, 64
8, 162936, Note_on_c, 5, 64, 100
8, 163020, Note_off_c, 5, 64, 64
8, 163040, Note_on_c, 5, 62, 100
8, 163120, Note_off_c, 5, 62, 64
8, 163120, Note_on_c, 5, 64, 100
8, 163204, Note_off_c, 5, 64, 64
8, 163232, Note_on_c, 5, 62, 100
8, 163312, Note_off_c, 5, 62, 64
8, 163320, Note_on_c, 5, 60, 100
8, 163404, Note_off_c, 5, 60, 64
8, 163412, Note_on_c, 5, 59, 100
8, 163496, Note_off_c, 5, 59, 64
8, 163508, Note_on_c, 5, 67, 100
8, 163592, Note_off_c, 5, 67, 64
8, 163600, Note_on_c, 5, 66, 100
8, 163684, Note_off_c, 5, 66, 64
8, 163696, Note_on_c, 5, 64, 100
8, 163780, Note_off_c, 5, 64, 64
8, 163804, Note_on_c, 5, 62, 100
8, 163888, Note_off_c, 5, 62, 64
8, 163888, Note_on_c, 5, 74, 100
8, 163972, Note_off_c, 5, 74, 64
8, 163984, Note_on_c, 5, 73, 100
8, 164068, Note_off_c, 5, 73, 64
8, 164080, Note_on_c, 5, 71, 100
8, 164164, Note_off_c, 5, 71, 64
8, 164188, Note_on_c, 5, 69, 100
8, 164272, Note_off_c, 5, 69, 64
8, 164288, Note_on_c, 5, 71, 100
8, 164368, Note_off_c, 5, 71, 64
8, 164368, Note_on_c, 5, 69, 100
8, 164452, Note_off_c, 5, 69, 64
8, 164480, Note_on_c, 5, 67, 100
8, 164560, Note_off_c, 5, 67, 64
8, 164564, Note_on_c, 5, 66, 100
8, 164740, Note_off_c, 5, 66, 64
8, 164756, Note_on_c, 5, 62, 100
8, 164932, Note_off_c, 5, 62, 64
8, 164956, Note_on_c, 5, 62, 100
8, 165132, Note_off_c, 5, 62, 64
8, 165136, Note_on_c, 5, 62, 100
8, 165312, Note_off_c, 5, 62, 64
8, 165340, Note_on_c, 5, 62, 100
8, 165516, Note_off_c, 5, 62, 64
8, 165528, Note_on_c, 5, 62, 100
8, 165704, Note_off_c, 5, 62, 64
8, 165716, Note_on_c, 5, 62, 100
8, 165892, Note_off_c, 5, 62, 64
8, 165916, Note_on_c, 5, 62, 100
8, 166092, Note_off_c, 5, 62, 64
8, 166112, Note_on_c, 5, 62, 100
8, 166288, Note_off_c, 5, 62, 64
8, 166292, Note_on_c, 5, 55, 100
8, 166468, Note_off_c, 5, 55, 64
8, 166484, Note_on_c, 5, 55, 100
8, 166660, Note_off_c, 5, 55, 64
8, 166680, Note_on_c, 5, 55, 100
8, 166856, Note_off_c, 5, 55, 64
8, 166872, Note_on_c, 5, 55, 100
8, 167048, Note_off_c, 5, 55, 64
8, 167068, Note_on_c, 5, 55, 100
8, 167244, Note_off_c, 5, 55, 64
8, 167260, Note_on_c, 5, 55, 100
8, 167436, Note_off_c, 5, 55, 64
8, 167452, Note_on_c, 5, 55, 100
8, 167628, Note_off_c, 5, 55, 64
8, 167636, Note_on_c, 5, 59, 100
8, 167812, Note_off_c, 5, 59, 64
8, 167840, Note_on_c, 5, 56, 100
8, 168016, Note_off_c, 5, 56, 64
8, 168020, Note_on_c, 5, 56, 100
8, 168196, Note_off_c, 5, 56, 64
8, 168224, Note_on_c, 5, 56, 100
8, 168400, Note_off_c, 5, 56, 64
8, 168408, Note_on_c, 5, 56, 100
8, 168588, Note_off_c, 5, 56, 64
8, 168592, Note_on_c, 5, 56, 100
8, 168776, Note_off_c, 5, 56, 64
8, 168788, Note_on_c, 5, 56, 100
8, 168964, Note_off_c, 5, 56, 64
8, 168992, Note_on_c, 5, 56, 100
8, 169168, Note_off_c, 5, 56, 64
8, 169180, Note_on_c, 5, 64, 100
8, 169264, Note_off_c, 5, 64, 64
8, 169276, Note_on_c, 5, 62, 100
8, 169360, Note_off_c, 5, 62, 64
8, 169368, Note_on_c, 5, 64, 100
8, 169544, Note_off_c, 5, 64, 64
8, 169948, Note_on_c, 5, 64, 100
8, 170032, Note_off_c, 5, 64, 64
8, 170032, Note_on_c, 5, 62, 100
8, 170116, Note_off_c, 5, 62, 64
8, 170144, Note_on_c, 5, 64, 100
8, 170320, Note_off_c, 5, 64, 64
8, 170704, Note_on_c, 5, 72, 100
8, 170788, Note_off_c, 5, 72, 64
8, 170804, Note_on_c, 5, 71, 100
8, 170888, Note_off_c, 5, 71, 64
8, 170900, Note_on_c, 5, 72, 100
8, 171076, Note_off_c, 5, 72, 64
8, 171472, Note_on_c, 5, 72, 100
8, 171556, Note_off_c, 5, 72, 64
8, 171576, Note_on_c, 5, 71, 100
8, 171660, Note_off_c, 5, 71, 64
8, 171680, Note_on_c, 5, 72, 100
8, 171856, Note_off_c, 5, 72, 64
8, 172256, Note_on_c, 5, 65, 100
8, 172336, Note_off_c, 5, 65, 64
8, 172340, Note_on_c, 5, 67, 100
8, 172424, Note_off_c, 5, 67, 64
8, 172436, Note_on_c, 5, 65, 100
8, 172612, Note_off_c, 5, 65, 64
8, 173012, Note_on_c, 5, 65, 100
8, 173096, Note_off_c, 5, 65, 64
8, 173116, Note_on_c, 5, 67, 100
8, 173200, Note_off_c, 5, 67, 64
8, 173208, Note_on_c, 5, 65, 100
8, 173384, Note_off_c, 5, 65, 64
8, 173776, Note_on_c, 5, 52, 100
8, 173952, Note_off_c, 5, 52, 64
8, 174164, Note_on_c, 5, 64, 100
8, 174248, Note_off_c, 5, 64, 64
8, 174264, Note_on_c, 5, 66, 100
8, 174348, Note_off_c, 5, 66, 64
8, 174368, Note_on_c, 5, 64, 100
8, 174544, Note_off_c, 5, 64, 64
8, 174940, Note_on_c, 5, 64, 100
8, 175024, Note_off_c, 5, 64, 64
8, 175040, Note_on_c, 5, 66, 100
8, 175120, Note_off_c, 5, 66, 64
8, 175136, Note_on_c, 5, 64, 100
8, 175312, Note_off_c, 5, 64, 64
8, 175700, Note_on_c, 5, 62, 100
8, 175784, Note_off_c, 5, 62, 64
8, 175804, Note_on_c, 5, 63, 100
8, 175888, Note_off_c, 5, 63, 64
8, 175892, Note_on_c, 5, 62, 100
8, 176068, Note_off_c, 5, 62, 64
8, 176480, Note_on_c, 5, 62, 100
8, 176560, Note_off_c, 5, 62, 64
8, 176576, Note_on_c, 5, 63, 100
8, 176656, Note_off_c, 5, 63, 64
8, 176656, Note_on_c, 5, 62, 100
8, 176832, Note_off_c, 5, 62, 64
8, 177244, Note_on_c, 5, 64, 100
8, 177328, Note_off_c, 5, 64, 64
8, 177344, Note_on_c, 5, 62, 100
8, 177424, Note_off_c, 5, 62, 64
8, 177440, Note_on_c, 5, 64, 100
8, 177616, Note_off_c, 5, 64, 64
8, 178004, Note_on_c, 5, 64, 100
8, 178088, Note_off_c, 5, 64, 64
8, 178108, Note_on_c, 5, 62, 100
8, 178192, Note_off_c, 5, 62, 64
8, 178192, Note_on_c, 5, 64, 100
8, 178368, Note_off_c, 5, 64, 64
8, 178776, Note_on_c, 5, 62, 100
8, 178860, Note_off_c, 5, 62, 64
8, 178880, Note_on_c, 5, 63, 100
8, 178960, Note_off_c, 5, 63, 64
8, 178968, Note_on_c, 5, 62, 100
8, 179144, Note_off_c, 5, 62, 64
8, 179552, Note_on_c, 5, 62, 100
8, 179632, Note_off_c, 5, 62, 64
8, 179632, Note_on_c, 5, 63, 100
8, 179716, Note_off_c, 5, 63, 64
8, 179744, Note_on_c, 5, 62, 100
8, 179920, Note_off_c, 5, 62, 64
8, 180320, Note_on_c, 5, 60, 100
8, 180400, Note_off_c, 5, 60, 64
8, 180416, Note_on_c, 5, 62, 100
8, 180496, Note_off_c, 5, 62, 64
8, 180500, Note_on_c, 5, 60, 100
8, 180676, Note_off_c, 5, 60, 64
8, 181072, Note_on_c, 5, 60, 100
8, 181156, Note_off_c, 5, 60, 64
8, 181172, Note_on_c, 5, 62, 100
8, 181256, Note_off_c, 5, 62, 64
8, 181272, Note_on_c, 5, 60, 100
8, 181448, Note_off_c, 5, 60, 64
8, 181468, Note_on_c, 5, 62, 100
8, 181644, Note_off_c, 5, 62, 64
8, 182800, Note_on_c, 5, 58, 100
8, 182976, Note_off_c, 5, 58, 64
8, 183004, Note_on_c, 5, 65, 100
8, 183180, Note_off_c, 5, 65, 64
8, 184344, Note_on_c, 5, 57, 100
8, 184520, Note_off_c, 5, 57, 64
8, 184540, Note_on_c, 5, 63, 100
8, 184716, Note_off_c, 5, 63, 64
8, 185888, Note_on_c, 5, 55, 100
8, 186064, Note_off_c, 5, 55, 64
8, 186068, Note_on_c, 5, 62, 100
8, 186432, Note_off_c, 5, 62, 64
8, 186640, Note_on_c, 5, 66, 100
8, 186816, Note_off_c, 5, 66, 64
8, 186840, Note_on_c, 5, 66, 100
8, 187200, Note_off_c, 5, 66, 64
8, 187420, Note_on_c, 5, 66, 100
8, 187596, Note_off_c, 5, 66, 64
8, 187612, Note_on_c, 5, 69, 100
8, 187696, Note_off_c, 5, 69, 64
8, 187708, Note_on_c, 5, 60, 100
8, 187792, Note_off_c, 5, 60, 64
8, 187800, Note_on_c, 5, 57, 100
8, 187884, Note_off_c, 5, 57, 64
8, 187904, Note_on_c, 5, 58, 100
8, 187984, Note_off_c, 5, 58, 64
8, 187992, Note_on_c, 5, 60, 100
8, 188076, Note_off_c, 5, 60, 64
8, 188092, Note_on_c, 5, 62, 100
8, 188176, Note_off_c, 5, 62, 64
8, 188188, Note_on_c, 5, 64, 100
8, 188272, Note_off_c, 5, 64, 64
8, 188276, Note_on_c, 5, 66, 100
8, 188360, Note_off_c, 5, 66, 64
8, 188380, Note_on_c, 5, 67, 100
8, 188740, Note_off_c, 5, 67, 64
8, 188948, Note_on_c, 5, 66, 100
8, 189032, Note_off_c, 5, 66, 64
8, 189048, Note_on_c, 5, 64, 100
8, 189132, Note_off_c, 5, 64, 64
8, 189148, Note_on_c, 5, 62, 100
8, 189324, Note_off_c, 5, 62, 64
8, 189720, Note_on_c, 5, 60, 100
8, 189804, Note_off_c, 5, 60, 64
8, 189808, Note_on_c, 5, 58, 100
8, 189892, Note_off_c, 5, 58, 64
8, 189908, Note_on_c, 5, 57, 100
8, 190084, Note_off_c, 5, 57, 64
8, 190492, Note_on_c, 5, 74, 100
8, 190668, Note_off_c, 5, 74, 64
8, 190688, Note_on_c, 5, 75, 100
8, 190956, Note_off_c, 5, 75, 64
8, 190964, Note_on_c, 5, 74, 100
8, 191048, Note_off_c, 5, 74, 64
8, 191056, Note_on_c, 5, 72, 100
8, 191140, Note_off_c, 5, 72, 64
8, 191164, Note_on_c, 5, 70, 100
8, 191248, Note_off_c, 5, 70, 64
8, 191248, Note_on_c, 5, 69, 100
8, 191332, Note_off_c, 5, 69, 64
8, 191344, Note_on_c, 5, 67, 100
8, 191428, Note_off_c, 5, 67, 64
8, 191448, Note_on_c, 5, 69, 100
8, 191624, Note_off_c, 5, 69, 64
8, 191632, Note_on_c, 5, 62, 100
8, 191808, Note_off_c, 5, 62, 64
8, 191832, Note_on_c, 5, 60, 100
8, 192008, Note_off_c, 5, 60, 64
8, 192032, Note_on_c, 5, 59, 100
8, 192112, Note_off_c, 5, 59, 64
8, 192128, Note_on_c, 5, 57, 100
8, 192208, Note_off_c, 5, 57, 64
8, 192216, Note_on_c, 5, 59, 100
8, 192392, Note_off_c, 5, 59, 64
8, 192404, Note_on_c, 5, 62, 100
8, 192580, Note_off_c, 5, 62, 64
8, 192604, Note_on_c, 5, 59, 100
8, 192780, Note_off_c, 5, 59, 64
8, 192784, Note_on_c, 5, 55, 100
8, 192960, Note_off_c, 5, 55, 64
8, 192976, Note_on_c, 5, 59, 100
8, 193152, Note_off_c, 5, 59, 64
8, 193180, Note_on_c, 5, 62, 100
8, 193356, Note_off_c, 5, 62, 64
8, 193368, Note_on_c, 5, 59, 100
8, 193544, Note_off_c, 5, 59, 64
8, 193560, Note_on_c, 5, 55, 100
8, 193736, Note_off_c, 5, 55, 64
8, 193760, Note_on_c, 5, 59, 100
8, 193936, Note_off_c, 5, 59, 64
8, 193936, Note_on_c, 5, 62, 100
8, 194112, Note_off_c, 5, 62, 64
8, 194136, Note_on_c, 5, 67, 100
8, 194220, Note_off_c, 5, 67, 64
8, 194224, Note_on_c, 5, 71, 100
8, 194308, Note_off_c, 5, 71, 64
8, 194336, Note_on_c, 5, 69, 100
8, 194416, Note_off_c, 5, 69, 64
8, 194424, Note_on_c, 5, 67, 100
8, 194508, Note_off_c, 5, 67, 64
8, 194512, Note_on_c, 5, 66, 100
8, 194688, Note_off_c, 5, 66, 64
8, 194712, Note_on_c, 5, 62, 100
8, 194888, Note_off_c, 5, 62, 64
8, 195088, Note_on_c, 5, 71, 100
8, 195264, Note_off_c, 5, 71, 64
8, 195288, Note_on_c, 5, 66, 100
8, 195464, Note_off_c, 5, 66, 64
8, 195484, Note_on_c, 5, 62, 100
8, 195660, Note_off_c, 5, 62, 64
8, 195856, Note_on_c, 5, 69, 100
8, 196032, Note_off_c, 5, 69, 64
8, 196052, Note_on_c, 5, 66, 100
8, 196228, Note_off_c, 5, 66, 64
8, 196248, Note_on_c, 5, 62, 100
8, 196424, Note_off_c, 5, 62, 64
8, 196632, Note_on_c, 5, 69, 100
8, 196808, Note_off_c, 5, 69, 64
8, 196824, Note_on_c, 5, 62, 100
8, 197000, Note_off_c, 5, 62, 64
8, 197016, Note_on_c, 5, 60, 100
8, 197100, Note_off_c, 5, 60, 64
8, 197112, Note_on_c, 5, 59, 100
8, 197196, Note_off_c, 5, 59, 64
8, 197204, Note_on_c, 5, 60, 100
8, 197380, Note_off_c, 5, 60, 64
8, 197404, Note_on_c, 5, 59, 100
8, 197488, Note_off_c, 5, 59, 64
8, 197492, Note_on_c, 5, 57, 100
8, 197576, Note_off_c, 5, 57, 64
8, 197584, Note_on_c, 5, 55, 100
8, 197760, Note_off_c, 5, 55, 64
8, 197788, Note_on_c, 5, 67, 100
8, 197964, Note_off_c, 5, 67, 64
8, 197980, Note_on_c, 5, 67, 100
8, 198156, Note_off_c, 5, 67, 64
8, 198176, Note_on_c, 5, 55, 100
8, 198352, Note_off_c, 5, 55, 64
8, 198360, Note_on_c, 5, 55, 100
8, 198536, Note_off_c, 5, 55, 64
8, 198552, Note_on_c, 5, 67, 100
8, 198728, Note_off_c, 5, 67, 64
8, 198752, Note_on_c, 5, 67, 100
8, 198928, Note_off_c, 5, 67, 64
8, 198932, Note_on_c, 5, 55, 100
8, 199108, Note_off_c, 5, 55, 64
8, 199120, Note_on_c, 5, 55, 100
8, 199296, Note_off_c, 5, 55, 64
8, 199316, Note_on_c, 5, 67, 100
8, 199492, Note_off_c, 5, 67, 64
8, 199520, Note_on_c, 5, 67, 100
8, 199696, Note_off_c, 5, 67, 64
8, 199696, Note_on_c, 5, 55, 100
8, 199872, Note_off_c, 5, 55, 64
8, 199892, Note_on_c, 5, 55, 100
8, 200068, Note_off_c, 5, 55, 64
8, 200088, Note_on_c, 5, 67, 100
8, 200264, Note_off_c, 5, 67, 64
8, 200288, Note_on_c, 5, 66, 100
8, 200464, Note_off_c, 5, 66, 64
8, 200476, Note_on_c, 5, 67, 100
8, 200652, Note_off_c, 5, 67, 64
8, 200660, Note_on_c, 5, 69, 100
8, 200836, Note_off_c, 5, 69, 64
8, 200848, Note_on_c, 5, 71, 100
8, 201024, Note_off_c, 5, 71, 64
8, 201048, Note_on_c, 5, 72, 100
8, 201224, Note_off_c, 5, 72, 64
8, 201240, Note_on_c, 5, 74, 100
8, 201416, Note_off_c, 5, 74, 64
8, 201440, Note_on_c, 5, 71, 100
8, 201616, Note_off_c, 5, 71, 64
8, 201628, Note_on_c, 5, 69, 100
8, 201712, Note_off_c, 5, 69, 64
8, 201728, Note_on_c, 5, 67, 100
8, 201808, Note_off_c, 5, 67, 64
8, 201820, Note_on_c, 5, 62, 100
8, 201996, Note_off_c, 5, 62, 64
8, 202000, Note_on_c, 5, 66, 100
8, 202176, Note_off_c, 5, 66, 64
8, 202200, Note_on_c, 5, 67, 100
8, 202376, Note_off_c, 5, 67, 64
8, 203152, Note_on_c, 5, 55, 100
8, 203236, Note_off_c, 5, 55, 64
8, 203252, Note_on_c, 5, 54, 100
8, 203336, Note_off_c, 5, 54, 64
8, 203356, Note_on_c, 5, 55, 100
8, 203532, Note_off_c, 5, 55, 64
8, 203544, Note_on_c, 5, 59, 100
8, 203628, Note_off_c, 5, 59, 64
8, 203648, Note_on_c, 5, 57, 100
8, 203728, Note_off_c, 5, 57, 64
8, 203744, Note_on_c, 5, 59, 100
8, 203920, Note_off_c, 5, 59, 64
8, 205072, Note_on_c, 5, 62, 100
8, 205248, Note_off_c, 5, 62, 64
8, 205276, Note_on_c, 5, 67, 100
8, 205452, Note_off_c, 5, 67, 64
8, 205456, Note_on_c, 5, 66, 100
8, 205540, Note_off_c, 5, 66, 64
8, 205568, Note_on_c, 5, 64, 100
8, 205648, Note_off_c, 5, 64, 64
8, 205656, Note_on_c, 5, 62, 100
8, 205740, Note_off_c, 5, 62, 64
8, 205748, Note_on_c, 5, 60, 100
8, 205832, Note_off_c, 5, 60, 64
8, 205840, Note_on_c, 5, 59, 100
8, 205924, Note_off_c, 5, 59, 64
8, 205936, Note_on_c, 5, 57, 100
8, 206020, Note_off_c, 5, 57, 64
8, 206032, Note_on_c, 5, 55, 100
8, 206116, Note_off_c, 5, 55, 64
8, 206128, Note_on_c, 5, 50, 100
8, 206212, Note_off_c, 5, 50, 64
8, 206228, Note_on_c, 5, 52, 100
8, 206312, Note_off_c, 5, 52, 64
8, 206328, Note_on_c, 5, 54, 100
8, 206412, Note_off_c, 5, 54, 64
8, 206432, Note_on_c, 5, 55, 100
8, 206512, Note_off_c, 5, 55, 64
8, 206516, Note_on_c, 5, 57, 100
8, 206600, Note_off_c, 5, 57, 64
8, 206620, Note_on_c, 5, 59, 100
8, 206704, Note_off_c, 5, 59, 64
8, 206708, Note_on_c, 5, 60, 100
8, 206792, Note_off_c, 5, 60, 64
8, 206812, Note_on_c, 5, 62, 100
8, 206896, Note_off_c, 5, 62, 64
8, 206900, Note_on_c, 5, 67, 100
8, 206984, Note_off_c, 5, 67, 64
8, 207008, Note_on_c, 5, 66, 100
8, 207088, Note_off_c, 5, 66, 64
8, 207096, Note_on_c, 5, 64, 100
8, 207180, Note_off_c, 5, 64, 64
8, 207196, Note_on_c, 5, 62, 100
8, 207280, Note_off_c, 5, 62, 64
8, 207284, Note_on_c, 5, 60, 100
8, 207368, Note_off_c, 5, 60, 64
8, 207380, Note_on_c, 5, 59, 100
8, 207464, Note_off_c, 5, 59, 64
8, 207484, Note_on_c, 5, 57, 100
8, 207568, Note_off_c, 5, 57, 64
8, 207584, Note_on_c, 5, 59, 100
8, 207760, Note_off_c, 5, 59, 64
8, 207772, Note_on_c, 5, 57, 100
8, 207856, Note_off_c, 5, 57, 64
8, 207868, Note_on_c, 5, 55, 100
8, 207952, Note_off_c, 5, 55, 64
8, 207952, Note_on_c, 5, 62, 100
8, 208128, Note_off_c, 5, 62, 64
8, 208148, Note_on_c, 5, 50, 100
8, 208324, Note_off_c, 5, 50, 64
8, 208336, Note_on_c, 5, 55, 100
8, 209072, Note_off_c, 5, 55, 64
8, 209072, End_track
9, 0, Start_track
9, 0, Title_t, "Cello 1"
9, 0, Control_c, 6, 0, 0
9, 0, Program_c, 6, 33
9, 0, Control_c, 6, 7, 127
9, 0, Control_c, 6, 10, 84
9, 0, Control_c, 6, 91, 0
9, 0, Control_c, 6, 93, 0
9, 0, Pitch_bend_c, 6, 8192
9, 4, Control_c, 6, 1, 0
9, 8, Control_c, 6, 64, 0
9, 32, Note_on_c, 6, 43, 100
9, 208, Note_off_c, 6, 43, 64
9, 220, Note_on_c, 6, 43, 100
9, 396, Note_off_c, 6, 43, 64
9, 412, Note_on_c, 6, 55, 100
9, 588, Note_off_c, 6, 55, 64
9, 596, Note_on_c, 6, 55, 100
9, 772, Note_off_c, 6, 55, 64
9, 788, Note_on_c, 6, 43, 100
9, 964, Note_off_c, 6, 43, 64
9, 980, Note_on_c, 6, 43, 100
9, 1156, Note_off_c, 6, 43, 64
9, 1176, Note_on_c, 6, 55, 100
9, 1352, Note_off_c, 6, 55, 64
9, 1364, Note_on_c, 6, 55, 100
9, 1540, Note_off_c, 6, 55, 64
9, 1552, Note_on_c, 6, 43, 100
9, 1728, Note_off_c, 6, 43, 64
9, 1752, Note_on_c, 6, 43, 100
9, 1928, Note_off_c, 6, 43, 64
9, 1948, Note_on_c, 6, 55, 100
9, 2032, Note_off_c, 6, 55, 64
9, 2036, Note_on_c, 6, 54, 100
9, 2120, Note_off_c, 6, 54, 64
9, 2128, Note_on_c, 6, 52, 100
9, 2304, Note_off_c, 6, 52, 64
9, 2336, Note_on_c, 6, 57, 100
9, 2512, Note_off_c, 6, 57, 64
9, 2524, Note_on_c, 6, 50, 100
9, 2700, Note_off_c, 6, 50, 64
9, 2716, Note_on_c, 6, 62, 100
9, 2800, Note_off_c, 6, 62, 64
9, 2816, Note_on_c, 6, 61, 100
9, 2896, Note_off_c, 6, 61, 64
9, 2904, Note_on_c, 6, 62, 100
9, 3080, Note_off_c, 6, 62, 64
9, 3104, Note_on_c, 6, 50, 100
9, 3280, Note_off_c, 6, 50, 64
9, 3284, Note_on_c, 6, 50, 100
9, 3460, Note_off_c, 6, 50, 64
9, 3488, Note_on_c, 6, 62, 100
9, 3568, Note_off_c, 6, 62, 64
9, 3580, Note_on_c, 6, 61, 100
9, 3664, Note_off_c, 6, 61, 64
9, 3664, Note_on_c, 6, 62, 100
9, 3840, Note_off_c, 6, 62, 64
9, 3868, Note_on_c, 6, 50, 100
9, 4044, Note_off_c, 6, 50, 64
9, 4064, Note_on_c, 6, 50, 100
9, 4240, Note_off_c, 6, 50, 64
9, 4252, Note_on_c, 6, 62, 100
9, 4336, Note_off_c, 6, 62, 64
9, 4340, Note_on_c, 6, 61, 100
9, 4424, Note_off_c, 6, 61, 64
9, 4436, Note_on_c, 6, 62, 100
9, 4612, Note_off_c, 6, 62, 64
9, 4632, Note_on_c, 6, 50, 100
9, 4808, Note_off_c, 6, 50, 64
9, 4828, Note_on_c, 6, 55, 100
9, 5004, Note_off_c, 6, 55, 64
9, 5016, Note_on_c, 6, 52, 100
9, 5192, Note_off_c, 6, 52, 64
9, 5200, Note_on_c, 6, 48, 100
9, 5376, Note_off_c, 6, 48, 64
9, 5400, Note_on_c, 6, 50, 100
9, 5576, Note_off_c, 6, 50, 64
9, 5584, Note_on_c, 6, 52, 100
9, 5760, Note_off_c, 6, 52, 64
9, 5788, Note_on_c, 6, 50, 100
9, 5872, Note_off_c, 6, 50, 64
9, 5880, Note_on_c, 6, 48, 100
9, 5964, Note_off_c, 6, 48, 64
9, 5980, Note_on_c, 6, 47, 100
9, 6156, Note_off_c, 6, 47, 64
9, 6176, Note_on_c, 6, 45, 100
9, 6256, Note_off_c, 6, 45, 64
9, 6272, Note_on_c, 6, 43, 100
9, 6352, Note_off_c, 6, 43, 64
9, 6364, Note_on_c, 6, 48, 100
9, 6540, Note_off_c, 6, 48, 64
9, 6552, Note_on_c, 6, 47, 100
9, 6636, Note_off_c, 6, 47, 64
9, 6644, Note_on_c, 6, 45, 100
9, 6728, Note_off_c, 6, 45, 64
9, 6752, Note_on_c, 6, 43, 100
9, 6928, Note_off_c, 6, 43, 64
9, 6936, Note_on_c, 6, 55, 100
9, 7020, Note_off_c, 6, 55, 64
9, 7032, Note_on_c, 6, 54, 100
9, 7116, Note_off_c, 6, 54, 64
9, 7136, Note_on_c, 6, 52, 100
9, 7312, Note_off_c, 6, 52, 64
9, 7324, Note_on_c, 6, 50, 100
9, 7408, Note_off_c, 6, 50, 64
9, 7416, Note_on_c, 6, 48, 100
9, 7500, Note_off_c, 6, 48, 64
9, 7508, Note_on_c, 6, 47, 100
9, 7684, Note_off_c, 6, 47, 64
9, 7708, Note_on_c, 6, 49, 100
9, 7884, Note_off_c, 6, 49, 64
9, 7892, Note_on_c, 6, 50, 100
9, 8068, Note_off_c, 6, 50, 64
9, 8084, Note_on_c, 6, 38, 100
9, 8260, Note_off_c, 6, 38, 64
9, 8288, Note_on_c, 6, 38, 100
9, 8464, Note_off_c, 6, 38, 64
9, 8472, Note_on_c, 6, 50, 100
9, 8556, Note_off_c, 6, 50, 64
9, 8576, Note_on_c, 6, 52, 100
9, 8656, Note_off_c, 6, 52, 64
9, 8660, Note_on_c, 6, 54, 100
9, 8836, Note_off_c, 6, 54, 64
9, 8864, Note_on_c, 6, 55, 100
9, 9040, Note_off_c, 6, 55, 64
9, 9056, Note_on_c, 6, 57, 100
9, 9232, Note_off_c, 6, 57, 64
9, 9244, Note_on_c, 6, 54, 100
9, 9420, Note_off_c, 6, 54, 64
9, 9428, Note_on_c, 6, 55, 100
9, 9604, Note_off_c, 6, 55, 64
9, 9632, Note_on_c, 6, 60, 100
9, 9808, Note_off_c, 6, 60, 64
9, 9820, Note_on_c, 6, 62, 100
9, 9996, Note_off_c, 6, 62, 64
9, 10012, Note_on_c, 6, 50, 100
9, 10188, Note_off_c, 6, 50, 64
9, 10196, Note_on_c, 6, 55, 100
9, 10372, Note_off_c, 6, 55, 64
9, 10388, Note_on_c, 6, 54, 100
9, 10472, Note_off_c, 6, 54, 64
9, 10484, Note_on_c, 6, 52, 100
9, 10568, Note_off_c, 6, 52, 64
9, 10580, Note_on_c, 6, 50, 100
9, 10664, Note_off_c, 6, 50, 64
9, 10684, Note_on_c, 6, 48, 100
9, 10768, Note_off_c, 6, 48, 64
9, 10780, Note_on_c, 6, 47, 100
9, 10864, Note_off_c, 6, 47, 64
9, 10872, Note_on_c, 6, 45, 100
9, 10956, Note_off_c, 6, 45, 64
9, 10976, Note_on_c, 6, 47, 100
9, 11152, Note_off_c, 6, 47, 64
9, 11156, Note_on_c, 6, 45, 100
9, 11240, Note_off_c, 6, 45, 64
9, 11248, Note_on_c, 6, 43, 100
9, 11332, Note_off_c, 6, 43, 64
9, 11360, Note_on_c, 6, 50, 100
9, 11536, Note_off_c, 6, 50, 64
9, 11536, Note_on_c, 6, 38, 100
9, 11712, Note_off_c, 6, 38, 64
9, 11740, Note_on_c, 6, 43, 100
9, 12100, Note_off_c, 6, 43, 64
9, 12308, Note_on_c, 6, 50, 100
9, 12484, Note_off_c, 6, 50, 64
9, 12496, Note_on_c, 6, 43, 100
9, 12860, Note_off_c, 6, 43, 64
9, 13852, Note_on_c, 6, 62, 100
9, 13936, Note_off_c, 6, 62, 64
9, 13944, Note_on_c, 6, 60, 100
9, 14028, Note_off_c, 6, 60, 64
9, 14032, Note_on_c, 6, 59, 100
9, 14116, Note_off_c, 6, 59, 64
9, 14144, Note_on_c, 6, 60, 100
9, 14224, Note_off_c, 6, 60, 64
9, 14236, Note_on_c, 6, 59, 100
9, 14320, Note_off_c, 6, 59, 64
9, 14328, Note_on_c, 6, 57, 100
9, 14412, Note_off_c, 6, 57, 64
9, 14428, Note_on_c, 6, 55, 100
9, 14604, Note_off_c, 6, 55, 64
9, 14620, Note_on_c, 6, 49, 100
9, 14796, Note_off_c, 6, 49, 64
9, 14800, Note_on_c, 6, 50, 100
9, 15164, Note_off_c, 6, 50, 64
9, 15388, Note_on_c, 6, 57, 100
9, 15564, Note_off_c, 6, 57, 64
9, 15584, Note_on_c, 6, 62, 100
9, 15944, Note_off_c, 6, 62, 64
9, 16160, Note_on_c, 6, 57, 100
9, 16336, Note_off_c, 6, 57, 64
9, 16340, Note_on_c, 6, 50, 100
9, 16704, Note_off_c, 6, 50, 64
9, 16924, Note_on_c, 6, 45, 100
9, 17100, Note_off_c, 6, 45, 64
9, 17116, Note_on_c, 6, 38, 100
9, 17292, Note_off_c, 6, 38, 64
9, 17296, Note_on_c, 6, 47, 100
9, 17472, Note_off_c, 6, 47, 64
9, 17500, Note_on_c, 6, 43, 100
9, 17676, Note_off_c, 6, 43, 64
9, 17688, Note_on_c, 6, 45, 100
9, 17864, Note_off_c, 6, 45, 64
9, 17884, Note_on_c, 6, 47, 100
9, 18060, Note_off_c, 6, 47, 64
9, 18072, Note_on_c, 6, 45, 100
9, 18156, Note_off_c, 6, 45, 64
9, 18172, Note_on_c, 6, 43, 100
9, 18256, Note_off_c, 6, 43, 64
9, 18256, Note_on_c, 6, 42, 100
9, 18432, Note_off_c, 6, 42, 64
9, 18452, Note_on_c, 6, 40, 100
9, 18536, Note_off_c, 6, 40, 64
9, 18548, Note_on_c, 6, 38, 100
9, 18632, Note_off_c, 6, 38, 64
9, 18648, Note_on_c, 6, 43, 100
9, 18824, Note_off_c, 6, 43, 64
9, 18848, Note_on_c, 6, 42, 100
9, 18928, Note_off_c, 6, 42, 64
9, 18944, Note_on_c, 6, 40, 100
9, 19024, Note_off_c, 6, 40, 64
9, 19036, Note_on_c, 6, 38, 100
9, 19212, Note_off_c, 6, 38, 64
9, 19220, Note_on_c, 6, 62, 100
9, 19304, Note_off_c, 6, 62, 64
9, 19312, Note_on_c, 6, 61, 100
9, 19396, Note_off_c, 6, 61, 64
9, 19420, Note_on_c, 6, 59, 100
9, 19596, Note_off_c, 6, 59, 64
9, 19616, Note_on_c, 6, 57, 100
9, 19696, Note_off_c, 6, 57, 64
9, 19708, Note_on_c, 6, 55, 100
9, 19792, Note_off_c, 6, 55, 64
9, 19808, Note_on_c, 6, 54, 100
9, 19984, Note_off_c, 6, 54, 64
9, 20000, Note_on_c, 6, 56, 100
9, 20176, Note_off_c, 6, 56, 64
9, 20184, Note_on_c, 6, 57, 100
9, 20360, Note_off_c, 6, 57, 64
9, 20376, Note_on_c, 6, 45, 100
9, 20552, Note_off_c, 6, 45, 64
9, 20576, Note_on_c, 6, 45, 100
9, 20752, Note_off_c, 6, 45, 64
9, 20768, Note_on_c, 6, 57, 100
9, 20848, Note_off_c, 6, 57, 64
9, 20864, Note_on_c, 6, 59, 100
9, 20944, Note_off_c, 6, 59, 64
9, 20956, Note_on_c, 6, 61, 100
9, 21132, Note_off_c, 6, 61, 64
9, 21144, Note_on_c, 6, 62, 100
9, 21320, Note_off_c, 6, 62, 64
9, 21340, Note_on_c, 6, 64, 100
9, 21516, Note_off_c, 6, 64, 64
9, 21528, Note_on_c, 6, 61, 100
9, 21704, Note_off_c, 6, 61, 64
9, 21712, Note_on_c, 6, 62, 100
9, 21888, Note_off_c, 6, 62, 64
9, 21904, Note_on_c, 6, 55, 100
9, 22080, Note_off_c, 6, 55, 64
9, 22096, Note_on_c, 6, 57, 100
9, 22272, Note_off_c, 6, 57, 64
9, 22300, Note_on_c, 6, 45, 100
9, 22476, Note_off_c, 6, 45, 64
9, 22496, Note_on_c, 6, 50, 100
9, 22672, Note_off_c, 6, 50, 64
9, 22672, Note_on_c, 6, 62, 100
9, 22756, Note_off_c, 6, 62, 64
9, 22776, Note_on_c, 6, 60, 100
9, 22860, Note_off_c, 6, 60, 64
9, 22880, Note_on_c, 6, 59, 100
9, 22960, Note_off_c, 6, 59, 64
9, 22968, Note_on_c, 6, 60, 100
9, 23052, Note_off_c, 6, 60, 64
9, 23068, Note_on_c, 6, 59, 100
9, 23152, Note_off_c, 6, 59, 64
9, 23152, Note_on_c, 6, 57, 100
9, 23236, Note_off_c, 6, 57, 64
9, 23260, Note_on_c, 6, 55, 100
9, 23620, Note_off_c, 6, 55, 64
9, 24604, Note_on_c, 6, 55, 100
9, 24688, Note_off_c, 6, 55, 64
9, 24688, Note_on_c, 6, 54, 100
9, 24772, Note_off_c, 6, 54, 64
9, 24792, Note_on_c, 6, 55, 100
9, 24968, Note_off_c, 6, 55, 64
9, 24976, Note_on_c, 6, 43, 100
9, 25060, Note_off_c, 6, 43, 64
9, 25072, Note_on_c, 6, 45, 100
9, 25156, Note_off_c, 6, 45, 64
9, 25172, Note_on_c, 6, 47, 100
9, 25348, Note_off_c, 6, 47, 64
9, 25368, Note_on_c, 6, 49, 100
9, 25544, Note_off_c, 6, 49, 64
9, 25560, Note_on_c, 6, 50, 100
9, 25920, Note_off_c, 6, 50, 64
9, 26136, Note_on_c, 6, 57, 100
9, 26312, Note_off_c, 6, 57, 64
9, 26328, Note_on_c, 6, 62, 100
9, 26688, Note_off_c, 6, 62, 64
9, 26896, Note_on_c, 6, 57, 100
9, 27072, Note_off_c, 6, 57, 64
9, 27096, Note_on_c, 6, 50, 100
9, 27456, Note_off_c, 6, 50, 64
9, 27672, Note_on_c, 6, 45, 100
9, 27848, Note_off_c, 6, 45, 64
9, 27872, Note_on_c, 6, 38, 100
9, 28048, Note_off_c, 6, 38, 64
9, 28056, Note_on_c, 6, 50, 100
9, 28232, Note_off_c, 6, 50, 64
9, 28248, Note_on_c, 6, 50, 100
9, 28424, Note_off_c, 6, 50, 64
9, 28436, Note_on_c, 6, 38, 100
9, 28612, Note_off_c, 6, 38, 64
9, 28624, Note_on_c, 6, 38, 100
9, 28800, Note_off_c, 6, 38, 64
9, 28816, Note_on_c, 6, 50, 100
9, 28992, Note_off_c, 6, 50, 64
9, 29024, Note_on_c, 6, 50, 100
9, 29200, Note_off_c, 6, 50, 64
9, 29208, Note_on_c, 6, 38, 100
9, 29384, Note_off_c, 6, 38, 64
9, 29404, Note_on_c, 6, 38, 100
9, 29580, Note_off_c, 6, 38, 64
9, 29592, Note_on_c, 6, 50, 100
9, 29676, Note_off_c, 6, 50, 64
9, 29696, Note_on_c, 6, 49, 100
9, 29776, Note_off_c, 6, 49, 64
9, 29792, Note_on_c, 6, 47, 100
9, 29968, Note_off_c, 6, 47, 64
9, 29968, Note_on_c, 6, 52, 100
9, 30144, Note_off_c, 6, 52, 64
9, 30164, Note_on_c, 6, 45, 100
9, 30528, Note_off_c, 6, 45, 64
9, 30748, Note_on_c, 6, 45, 100
9, 30924, Note_off_c, 6, 45, 64
9, 30936, Note_on_c, 6, 52, 100
9, 31296, Note_off_c, 6, 52, 64
9, 31512, Note_on_c, 6, 52, 100
9, 31688, Note_off_c, 6, 52, 64
9, 31696, Note_on_c, 6, 47, 100
9, 32060, Note_off_c, 6, 47, 64
9, 32272, Note_on_c, 6, 47, 100
9, 32448, Note_off_c, 6, 47, 64
9, 32472, Note_on_c, 6, 54, 100
9, 32648, Note_off_c, 6, 54, 64
9, 32656, Note_on_c, 6, 59, 100
9, 32740, Note_off_c, 6, 59, 64
9, 32760, Note_on_c, 6, 57, 100
9, 32844, Note_off_c, 6, 57, 64
9, 32856, Note_on_c, 6, 59, 100
9, 33032, Note_off_c, 6, 59, 64
9, 33052, Note_on_c, 6, 52, 100
9, 33136, Note_off_c, 6, 52, 64
9, 33152, Note_on_c, 6, 50, 100
9, 33232, Note_off_c, 6, 50, 64
9, 33248, Note_on_c, 6, 52, 100
9, 33424, Note_off_c, 6, 52, 64
9, 33440, Note_on_c, 6, 57, 100
9, 33520, Note_off_c, 6, 57, 64
9, 33528, Note_on_c, 6, 55, 100
9, 33612, Note_off_c, 6, 55, 64
9, 33632, Note_on_c, 6, 57, 100
9, 33808, Note_off_c, 6, 57, 64
9, 33816, Note_on_c, 6, 50, 100
9, 33900, Note_off_c, 6, 50, 64
9, 33920, Note_on_c, 6, 49, 100
9, 34000, Note_off_c, 6, 49, 64
9, 34008, Note_on_c, 6, 50, 100
9, 34184, Note_off_c, 6, 50, 64
9, 34196, Note_on_c, 6, 55, 100
9, 34372, Note_off_c, 6, 55, 64
9, 34396, Note_on_c, 6, 57, 100
9, 34572, Note_off_c, 6, 57, 64
9, 34592, Note_on_c, 6, 45, 100
9, 34768, Note_off_c, 6, 45, 64
9, 34768, Note_on_c, 6, 50, 100
9, 34944, Note_off_c, 6, 50, 64
9, 34968, Note_on_c, 6, 62, 100
9, 35052, Note_off_c, 6, 62, 64
9, 35056, Note_on_c, 6, 61, 100
9, 35140, Note_off_c, 6, 61, 64
9, 35168, Note_on_c, 6, 62, 100
9, 35344, Note_off_c, 6, 62, 64
9, 35744, Note_on_c, 6, 62, 100
9, 35824, Note_off_c, 6, 62, 64
9, 35836, Note_on_c, 6, 61, 100
9, 35920, Note_off_c, 6, 61, 64
9, 35928, Note_on_c, 6, 62, 100
9, 36104, Note_off_c, 6, 62, 64
9, 36496, Note_on_c, 6, 50, 100
9, 36580, Note_off_c, 6, 50, 64
9, 36608, Note_on_c, 6, 49, 100
9, 36688, Note_off_c, 6, 49, 64
9, 36700, Note_on_c, 6, 50, 100
9, 36876, Note_off_c, 6, 50, 64
9, 37264, Note_on_c, 6, 50, 100
9, 37348, Note_off_c, 6, 50, 64
9, 37368, Note_on_c, 6, 49, 100
9, 37452, Note_off_c, 6, 49, 64
9, 37468, Note_on_c, 6, 50, 100
9, 37644, Note_off_c, 6, 50, 64
9, 38048, Note_on_c, 6, 62, 100
9, 38128, Note_off_c, 6, 62, 64
9, 38140, Note_on_c, 6, 61, 100
9, 38224, Note_off_c, 6, 61, 64
9, 38228, Note_on_c, 6, 62, 100
9, 38404, Note_off_c, 6, 62, 64
9, 38432, Note_on_c, 6, 50, 100
9, 38608, Note_off_c, 6, 50, 64
9, 38620, Note_on_c, 6, 43, 100
9, 38796, Note_off_c, 6, 43, 64
9, 38800, Note_on_c, 6, 55, 100
9, 38884, Note_off_c, 6, 55, 64
9, 38900, Note_on_c, 6, 54, 100
9, 38984, Note_off_c, 6, 54, 64
9, 39004, Note_on_c, 6, 55, 100
9, 39180, Note_off_c, 6, 55, 64
9, 39568, Note_on_c, 6, 55, 100
9, 39652, Note_off_c, 6, 55, 64
9, 39680, Note_on_c, 6, 54, 100
9, 39760, Note_off_c, 6, 54, 64
9, 39768, Note_on_c, 6, 55, 100
9, 39944, Note_off_c, 6, 55, 64
9, 40344, Note_on_c, 6, 43, 100
9, 40428, Note_off_c, 6, 43, 64
9, 40440, Note_on_c, 6, 42, 100
9, 40524, Note_off_c, 6, 42, 64
9, 40532, Note_on_c, 6, 43, 100
9, 40708, Note_off_c, 6, 43, 64
9, 41104, Note_on_c, 6, 43, 100
9, 41188, Note_off_c, 6, 43, 64
9, 41200, Note_on_c, 6, 42, 100
9, 41284, Note_off_c, 6, 42, 64
9, 41296, Note_on_c, 6, 43, 100
9, 41472, Note_off_c, 6, 43, 64
9, 41880, Note_on_c, 6, 55, 100
9, 41964, Note_off_c, 6, 55, 64
9, 41968, Note_on_c, 6, 53, 100
9, 42052, Note_off_c, 6, 53, 64
9, 42068, Note_on_c, 6, 55, 100
9, 42244, Note_off_c, 6, 55, 64
9, 42272, Note_on_c, 6, 43, 100
9, 42448, Note_off_c, 6, 43, 64
9, 42464, Note_on_c, 6, 48, 100
9, 42824, Note_off_c, 6, 48, 64
9, 42936, Note_on_c, 6, 47, 100
9, 43020, Note_off_c, 6, 47, 64
9, 43040, Note_on_c, 6, 48, 100
9, 43120, Note_off_c, 6, 48, 64
9, 43120, Note_on_c, 6, 50, 100
9, 43204, Note_off_c, 6, 50, 64
9, 43224, Note_on_c, 6, 52, 100
9, 43400, Note_off_c, 6, 52, 64
9, 43416, Note_on_c, 6, 57, 100
9, 43500, Note_off_c, 6, 57, 64
9, 43508, Note_on_c, 6, 55, 100
9, 43592, Note_off_c, 6, 55, 64
9, 43608, Note_on_c, 6, 57, 100
9, 43784, Note_off_c, 6, 57, 64
9, 43804, Note_on_c, 6, 50, 100
9, 43888, Note_off_c, 6, 50, 64
9, 43892, Note_on_c, 6, 48, 100
9, 43976, Note_off_c, 6, 48, 64
9, 43996, Note_on_c, 6, 50, 100
9, 44172, Note_off_c, 6, 50, 64
9, 44188, Note_on_c, 6, 55, 100
9, 44272, Note_off_c, 6, 55, 64
9, 44276, Note_on_c, 6, 53, 100
9, 44360, Note_off_c, 6, 53, 64
9, 44372, Note_on_c, 6, 55, 100
9, 44548, Note_off_c, 6, 55, 64
9, 44560, Note_on_c, 6, 48, 100
9, 44644, Note_off_c, 6, 48, 64
9, 44656, Note_on_c, 6, 47, 100
9, 44740, Note_off_c, 6, 47, 64
9, 44768, Note_on_c, 6, 48, 100
9, 44944, Note_off_c, 6, 48, 64
9, 44960, Note_on_c, 6, 53, 100
9, 45040, Note_off_c, 6, 53, 64
9, 45048, Note_on_c, 6, 52, 100
9, 45132, Note_off_c, 6, 52, 64
9, 45144, Note_on_c, 6, 53, 100
9, 45600, Note_off_c, 6, 53, 64
9, 45628, Note_on_c, 6, 55, 100
9, 45712, Note_off_c, 6, 55, 64
9, 45724, Note_on_c, 6, 53, 100
9, 45808, Note_off_c, 6, 53, 64
9, 45824, Note_on_c, 6, 52, 100
9, 45904, Note_off_c, 6, 52, 64
9, 45908, Note_on_c, 6, 50, 100
9, 45992, Note_off_c, 6, 50, 64
9, 46000, Note_on_c, 6, 48, 100
9, 46084, Note_off_c, 6, 48, 64
9, 46096, Note_on_c, 6, 47, 100
9, 46180, Note_off_c, 6, 47, 64
9, 46196, Note_on_c, 6, 45, 100
9, 46280, Note_off_c, 6, 45, 64
9, 46296, Note_on_c, 6, 43, 100
9, 46472, Note_off_c, 6, 43, 64
9, 46488, Note_on_c, 6, 48, 100
9, 46664, Note_off_c, 6, 48, 64
9, 46676, Note_on_c, 6, 55, 100
9, 46852, Note_off_c, 6, 55, 64
9, 46880, Note_on_c, 6, 43, 100
9, 47056, Note_off_c, 6, 43, 64
9, 47072, Note_on_c, 6, 48, 100
9, 47432, Note_off_c, 6, 48, 64
9, 47644, Note_on_c, 6, 60, 100
9, 47728, Note_off_c, 6, 60, 64
9, 47740, Note_on_c, 6, 59, 100
9, 47824, Note_off_c, 6, 59, 64
9, 47828, Note_on_c, 6, 60, 100
9, 48004, Note_off_c, 6, 60, 64
9, 48028, Note_on_c, 6, 55, 100
9, 48112, Note_off_c, 6, 55, 64
9, 48120, Note_on_c, 6, 53, 100
9, 48204, Note_off_c, 6, 53, 64
9, 48208, Note_on_c, 6, 55, 100
9, 48384, Note_off_c, 6, 55, 64
9, 48400, Note_on_c, 6, 60, 100
9, 48484, Note_off_c, 6, 60, 64
9, 48496, Note_on_c, 6, 59, 100
9, 48580, Note_off_c, 6, 59, 64
9, 48600, Note_on_c, 6, 60, 100
9, 48776, Note_off_c, 6, 60, 64
9, 48796, Note_on_c, 6, 52, 100
9, 48880, Note_off_c, 6, 52, 64
9, 48896, Note_on_c, 6, 50, 100
9, 48976, Note_off_c, 6, 50, 64
9, 48984, Note_on_c, 6, 52, 100
9, 49160, Note_off_c, 6, 52, 64
9, 49184, Note_on_c, 6, 60, 100
9, 49264, Note_off_c, 6, 60, 64
9, 49264, Note_on_c, 6, 59, 100
9, 49348, Note_off_c, 6, 59, 64
9, 49364, Note_on_c, 6, 60, 100
9, 49540, Note_off_c, 6, 60, 64
9, 49568, Note_on_c, 6, 48, 100
9, 49648, Note_off_c, 6, 48, 64
9, 49656, Note_on_c, 6, 50, 100
9, 49740, Note_off_c, 6, 50, 64
9, 49748, Note_on_c, 6, 52, 100
9, 49924, Note_off_c, 6, 52, 64
9, 49936, Note_on_c, 6, 54, 100
9, 50112, Note_off_c, 6, 54, 64
9, 50132, Note_on_c, 6, 55, 100
9, 50308, Note_off_c, 6, 55, 64
9, 50332, Note_on_c, 6, 43, 100
9, 50508, Note_off_c, 6, 43, 64
9, 50708, Note_on_c, 6, 55, 100
9, 50792, Note_off_c, 6, 55, 64
9, 50812, Note_on_c, 6, 54, 100
9, 50896, Note_off_c, 6, 54, 64
9, 50904, Note_on_c, 6, 55, 100
9, 51080, Note_off_c, 6, 55, 64
9, 51092, Note_on_c, 6, 50, 100
9, 51176, Note_off_c, 6, 50, 64
9, 51200, Note_on_c, 6, 48, 100
9, 51280, Note_off_c, 6, 48, 64
9, 51288, Note_on_c, 6, 50, 100
9, 51464, Note_off_c, 6, 50, 64
9, 51476, Note_on_c, 6, 55, 100
9, 51560, Note_off_c, 6, 55, 64
9, 51572, Note_on_c, 6, 54, 100
9, 51656, Note_off_c, 6, 54, 64
9, 51664, Note_on_c, 6, 55, 100
9, 51840, Note_off_c, 6, 55, 64
9, 51860, Note_on_c, 6, 47, 100
9, 51944, Note_off_c, 6, 47, 64
9, 51952, Note_on_c, 6, 45, 100
9, 52036, Note_off_c, 6, 45, 64
9, 52052, Note_on_c, 6, 47, 100
9, 52228, Note_off_c, 6, 47, 64
9, 52244, Note_on_c, 6, 55, 100
9, 52328, Note_off_c, 6, 55, 64
9, 52348, Note_on_c, 6, 54, 100
9, 52432, Note_off_c, 6, 54, 64
9, 52448, Note_on_c, 6, 55, 100
9, 52624, Note_off_c, 6, 55, 64
9, 52632, Note_on_c, 6, 43, 100
9, 52716, Note_off_c, 6, 43, 64
9, 52724, Note_on_c, 6, 45, 100
9, 52808, Note_off_c, 6, 45, 64
9, 52824, Note_on_c, 6, 47, 100
9, 53000, Note_off_c, 6, 47, 64
9, 53024, Note_on_c, 6, 49, 100
9, 53200, Note_off_c, 6, 49, 64
9, 53212, Note_on_c, 6, 50, 100
9, 53296, Note_off_c, 6, 50, 64
9, 53296, Note_on_c, 6, 49, 100
9, 53380, Note_off_c, 6, 49, 64
9, 53408, Note_on_c, 6, 50, 100
9, 53488, Note_off_c, 6, 50, 64
9, 53500, Note_on_c, 6, 52, 100
9, 53584, Note_off_c, 6, 52, 64
9, 53596, Note_on_c, 6, 50, 100
9, 53680, Note_off_c, 6, 50, 64
9, 53696, Note_on_c, 6, 54, 100
9, 53776, Note_off_c, 6, 54, 64
9, 53784, Note_on_c, 6, 50, 100
9, 53868, Note_off_c, 6, 50, 64
9, 53872, Note_on_c, 6, 55, 100
9, 53956, Note_off_c, 6, 55, 64
9, 53980, Note_on_c, 6, 50, 100
9, 54064, Note_off_c, 6, 50, 64
9, 54068, Note_on_c, 6, 49, 100
9, 54152, Note_off_c, 6, 49, 64
9, 54172, Note_on_c, 6, 50, 100
9, 54256, Note_off_c, 6, 50, 64
9, 54256, Note_on_c, 6, 52, 100
9, 54340, Note_off_c, 6, 52, 64
9, 54360, Note_on_c, 6, 50, 100
9, 54444, Note_off_c, 6, 50, 64
9, 54452, Note_on_c, 6, 57, 100
9, 54536, Note_off_c, 6, 57, 64
9, 54556, Note_on_c, 6, 50, 100
9, 54640, Note_off_c, 6, 50, 64
9, 54648, Note_on_c, 6, 59, 100
9, 54732, Note_off_c, 6, 59, 64
9, 54736, Note_on_c, 6, 50, 100
9, 54820, Note_off_c, 6, 50, 64
9, 54840, Note_on_c, 6, 49, 100
9, 54924, Note_off_c, 6, 49, 64
9, 54928, Note_on_c, 6, 50, 100
9, 55012, Note_off_c, 6, 50, 64
9, 55024, Note_on_c, 6, 52, 100
9, 55108, Note_off_c, 6, 52, 64
9, 55128, Note_on_c, 6, 50, 100
9, 55212, Note_off_c, 6, 50, 64
9, 55228, Note_on_c, 6, 60, 100
9, 55312, Note_off_c, 6, 60, 64
9, 55328, Note_on_c, 6, 50, 100
9, 55408, Note_off_c, 6, 50, 64
9, 55416, Note_on_c, 6, 62, 100
9, 55500, Note_off_c, 6, 62, 64
9, 55504, Note_on_c, 6, 59, 100
9, 55680, Note_off_c, 6, 59, 64
9, 55708, Note_on_c, 6, 57, 100
9, 55792, Note_off_c, 6, 57, 64
9, 55792, Note_on_c, 6, 55, 100
9, 55876, Note_off_c, 6, 55, 64
9, 55904, Note_on_c, 6, 57, 100
9, 56080, Note_off_c, 6, 57, 64
9, 56092, Note_on_c, 6, 55, 100
9, 56176, Note_off_c, 6, 55, 64
9, 56188, Note_on_c, 6, 54, 100
9, 56272, Note_off_c, 6, 54, 64
9, 56272, Note_on_c, 6, 55, 100
9, 56448, Note_off_c, 6, 55, 64
9, 56480, Note_on_c, 6, 59, 100
9, 56560, Note_off_c, 6, 59, 64
9, 56564, Note_on_c, 6, 57, 100
9, 56648, Note_off_c, 6, 57, 64
9, 56672, Note_on_c, 6, 59, 100
9, 56848, Note_off_c, 6, 59, 64
9, 56864, Note_on_c, 6, 62, 100
9, 56944, Note_off_c, 6, 62, 64
9, 56956, Note_on_c, 6, 60, 100
9, 57040, Note_off_c, 6, 60, 64
9, 57040, Note_on_c, 6, 62, 100
9, 57216, Note_off_c, 6, 62, 64
9, 58396, Note_on_c, 6, 55, 100
9, 58572, Note_off_c, 6, 55, 64
9, 58588, Note_on_c, 6, 55, 100
9, 58764, Note_off_c, 6, 55, 64
9, 58772, Note_on_c, 6, 43, 100
9, 58948, Note_off_c, 6, 43, 64
9, 58964, Note_on_c, 6, 43, 100
9, 59140, Note_off_c, 6, 43, 64
9, 59152, Note_on_c, 6, 55, 100
9, 59328, Note_off_c, 6, 55, 64
9, 59348, Note_on_c, 6, 55, 100
9, 59524, Note_off_c, 6, 55, 64
9, 59544, Note_on_c, 6, 43, 100
9, 59720, Note_off_c, 6, 43, 64
9, 59740, Note_on_c, 6, 43, 100
9, 59916, Note_off_c, 6, 43, 64
9, 59928, Note_on_c, 6, 55, 100
9, 60012, Note_off_c, 6, 55, 64
9, 60028, Note_on_c, 6, 54, 100
9, 60112, Note_off_c, 6, 54, 64
9, 60112, Note_on_c, 6, 55, 100
9, 60288, Note_off_c, 6, 55, 64
9, 60308, Note_on_c, 6, 43, 100
9, 60392, Note_off_c, 6, 43, 64
9, 60412, Note_on_c, 6, 45, 100
9, 60496, Note_off_c, 6, 45, 64
9, 60504, Note_on_c, 6, 47, 100
9, 60680, Note_off_c, 6, 47, 64
9, 60688, Note_on_c, 6, 49, 100
9, 60864, Note_off_c, 6, 49, 64
9, 60880, Note_on_c, 6, 50, 100
9, 61056, Note_off_c, 6, 50, 64
9, 61076, Note_on_c, 6, 38, 100
9, 61252, Note_off_c, 6, 38, 64
9, 61272, Note_on_c, 6, 38, 100
9, 61448, Note_off_c, 6, 38, 64
9, 61464, Note_on_c, 6, 62, 100
9, 61548, Note_off_c, 6, 62, 64
9, 61568, Note_on_c, 6, 61, 100
9, 61648, Note_off_c, 6, 61, 64
9, 61660, Note_on_c, 6, 62, 100
9, 61836, Note_off_c, 6, 62, 64
9, 61844, Note_on_c, 6, 50, 100
9, 62020, Note_off_c, 6, 50, 64
9, 62032, Note_on_c, 6, 38, 100
9, 62208, Note_off_c, 6, 38, 64
9, 62224, Note_on_c, 6, 50, 100
9, 62308, Note_off_c, 6, 50, 64
9, 62332, Note_on_c, 6, 49, 100
9, 62416, Note_off_c, 6, 49, 64
9, 62420, Note_on_c, 6, 50, 100
9, 62596, Note_off_c, 6, 50, 64
9, 62608, Note_on_c, 6, 38, 100
9, 62784, Note_off_c, 6, 38, 64
9, 62816, Note_on_c, 6, 38, 100
9, 62992, Note_off_c, 6, 38, 64
9, 63004, Note_on_c, 6, 54, 100
9, 63180, Note_off_c, 6, 54, 64
9, 63192, Note_on_c, 6, 55, 100
9, 63368, Note_off_c, 6, 55, 64
9, 63384, Note_on_c, 6, 52, 100
9, 63560, Note_off_c, 6, 52, 64
9, 63572, Note_on_c, 6, 48, 100
9, 63748, Note_off_c, 6, 48, 64
9, 63772, Note_on_c, 6, 50, 100
9, 63948, Note_off_c, 6, 50, 64
9, 63964, Note_on_c, 6, 52, 100
9, 64140, Note_off_c, 6, 52, 64
9, 64144, Note_on_c, 6, 50, 100
9, 64228, Note_off_c, 6, 50, 64
9, 64256, Note_on_c, 6, 48, 100
9, 64336, Note_off_c, 6, 48, 64
9, 64352, Note_on_c, 6, 47, 100
9, 64528, Note_off_c, 6, 47, 64
9, 64544, Note_on_c, 6, 45, 100
9, 64624, Note_off_c, 6, 45, 64
9, 64640, Note_on_c, 6, 43, 100
9, 64720, Note_off_c, 6, 43, 64
9, 64724, Note_on_c, 6, 48, 100
9, 64900, Note_off_c, 6, 48, 64
9, 64920, Note_on_c, 6, 47, 100
9, 65004, Note_off_c, 6, 47, 64
9, 65024, Note_on_c, 6, 45, 100
9, 65104, Note_off_c, 6, 45, 64
9, 65112, Note_on_c, 6, 43, 100
9, 65288, Note_off_c, 6, 43, 64
9, 65300, Note_on_c, 6, 55, 100
9, 65384, Note_off_c, 6, 55, 64
9, 65400, Note_on_c, 6, 54, 100
9, 65484, Note_off_c, 6, 54, 64
9, 65488, Note_on_c, 6, 52, 100
9, 65664, Note_off_c, 6, 52, 64
9, 65688, Note_on_c, 6, 50, 100
9, 65772, Note_off_c, 6, 50, 64
9, 65776, Note_on_c, 6, 48, 100
9, 65860, Note_off_c, 6, 48, 64
9, 65880, Note_on_c, 6, 47, 100
9, 66056, Note_off_c, 6, 47, 64
9, 66072, Note_on_c, 6, 49, 100
9, 66248, Note_off_c, 6, 49, 64
9, 66268, Note_on_c, 6, 50, 100
9, 66444, Note_off_c, 6, 50, 64
9, 66460, Note_on_c, 6, 38, 100
9, 66636, Note_off_c, 6, 38, 64
9, 66652, Note_on_c, 6, 38, 100
9, 66828, Note_off_c, 6, 38, 64
9, 66832, Note_on_c, 6, 50, 100
9, 66916, Note_off_c, 6, 50, 64
9, 66944, Note_on_c, 6, 52, 100
9, 67024, Note_off_c, 6, 52, 64
9, 67032, Note_on_c, 6, 54, 100
9, 67208, Note_off_c, 6, 54, 64
9, 67224, Note_on_c, 6, 55, 100
9, 67400, Note_off_c, 6, 55, 64
9, 67416, Note_on_c, 6, 57, 100
9, 67592, Note_off_c, 6, 57, 64
9, 67600, Note_on_c, 6, 50, 100
9, 67776, Note_off_c, 6, 50, 64
9, 67804, Note_on_c, 6, 55, 100
9, 67980, Note_off_c, 6, 55, 64
9, 67996, Note_on_c, 6, 48, 100
9, 68172, Note_off_c, 6, 48, 64
9, 68188, Note_on_c, 6, 50, 100
9, 68364, Note_off_c, 6, 50, 64
9, 68380, Note_on_c, 6, 38, 100
9, 68556, Note_off_c, 6, 38, 64
9, 68564, Note_on_c, 6, 40, 100
9, 68928, Note_off_c, 6, 40, 64
9, 69152, Note_on_c, 6, 42, 100
9, 69328, Note_off_c, 6, 42, 64
9, 69332, Note_on_c, 6, 43, 100
9, 69508, Note_off_c, 6, 43, 64
9, 69532, Note_on_c, 6, 36, 100
9, 69708, Note_off_c, 6, 36, 64
9, 69716, Note_on_c, 6, 38, 100
9, 69892, Note_off_c, 6, 38, 64
9, 69916, Note_on_c, 6, 50, 100
9, 70092, Note_off_c, 6, 50, 64
9, 70100, Note_on_c, 6, 55, 100
9, 70276, Note_off_c, 6, 55, 64
9, 70304, Note_on_c, 6, 54, 100
9, 70384, Note_off_c, 6, 54, 64
9, 70384, Note_on_c, 6, 52, 100
9, 70468, Note_off_c, 6, 52, 64
9, 70492, Note_on_c, 6, 50, 100
9, 70576, Note_off_c, 6, 50, 64
9, 70576, Note_on_c, 6, 48, 100
9, 70660, Note_off_c, 6, 48, 64
9, 70680, Note_on_c, 6, 47, 100
9, 70764, Note_off_c, 6, 47, 64
9, 70768, Note_on_c, 6, 45, 100
9, 70852, Note_off_c, 6, 45, 64
9, 70880, Note_on_c, 6, 43, 100
9, 71240, Note_off_c, 6, 43, 64
9, 71648, Note_on_c, 6, 43, 100
9, 72008, Note_off_c, 6, 43, 64
9, 72408, Note_on_c, 6, 43, 100
9, 72768, Note_off_c, 6, 43, 64
9, 73176, Note_on_c, 6, 43, 100
9, 73536, Note_off_c, 6, 43, 64
9, 73952, Note_on_c, 6, 43, 100
9, 74312, Note_off_c, 6, 43, 64
9, 74716, Note_on_c, 6, 43, 100
9, 75076, Note_off_c, 6, 43, 64
9, 75488, Note_on_c, 6, 55, 100
9, 75664, Note_off_c, 6, 55, 64
9, 75680, Note_on_c, 6, 54, 100
9, 75856, Note_off_c, 6, 54, 64
9, 75864, Note_on_c, 6, 52, 100
9, 76040, Note_off_c, 6, 52, 64
9, 76060, Note_on_c, 6, 57, 100
9, 76236, Note_off_c, 6, 57, 64
9, 76248, Note_on_c, 6, 50, 100
9, 76424, Note_off_c, 6, 50, 64
9, 76432, Note_on_c, 6, 49, 100
9, 76516, Note_off_c, 6, 49, 64
9, 76528, Note_on_c, 6, 47, 100
9, 76612, Note_off_c, 6, 47, 64
9, 76636, Note_on_c, 6, 45, 100
9, 76720, Note_off_c, 6, 45, 64
9, 76720, Note_on_c, 6, 43, 100
9, 76804, Note_off_c, 6, 43, 64
9, 76828, Note_on_c, 6, 42, 100
9, 76912, Note_off_c, 6, 42, 64
9, 76928, Note_on_c, 6, 40, 100
9, 77008, Note_off_c, 6, 40, 64
9, 77024, Note_on_c, 6, 39, 100
9, 77384, Note_off_c, 6, 39, 64
9, 77776, Note_on_c, 6, 42, 100
9, 78140, Note_off_c, 6, 42, 64
9, 78548, Note_on_c, 6, 45, 100
9, 78912, Note_off_c, 6, 45, 64
9, 79324, Note_on_c, 6, 57, 100
9, 79684, Note_off_c, 6, 57, 64
9, 80080, Note_on_c, 6, 51, 100
9, 80444, Note_off_c, 6, 51, 64
9, 80848, Note_on_c, 6, 47, 100
9, 81212, Note_off_c, 6, 47, 64
9, 81620, Note_on_c, 6, 52, 100
9, 81984, Note_off_c, 6, 52, 64
9, 82972, Note_on_c, 6, 55, 100
9, 83056, Note_off_c, 6, 55, 64
9, 83060, Note_on_c, 6, 54, 100
9, 83144, Note_off_c, 6, 54, 64
9, 83164, Note_on_c, 6, 52, 100
9, 83340, Note_off_c, 6, 52, 64
9, 83356, Note_on_c, 6, 40, 100
9, 83440, Note_off_c, 6, 40, 64
9, 83456, Note_on_c, 6, 42, 100
9, 83536, Note_off_c, 6, 42, 64
9, 83548, Note_on_c, 6, 43, 100
9, 83724, Note_off_c, 6, 43, 64
9, 83732, Note_on_c, 6, 45, 100
9, 83908, Note_off_c, 6, 45, 64
9, 83928, Note_on_c, 6, 47, 100
9, 84012, Note_off_c, 6, 47, 64
9, 84016, Note_on_c, 6, 46, 100
9, 84100, Note_off_c, 6, 46, 64
9, 84116, Note_on_c, 6, 47, 100
9, 84200, Note_off_c, 6, 47, 64
9, 84216, Note_on_c, 6, 49, 100
9, 84300, Note_off_c, 6, 49, 64
9, 84320, Note_on_c, 6, 47, 100
9, 84400, Note_off_c, 6, 47, 64
9, 84408, Note_on_c, 6, 51, 100
9, 84492, Note_off_c, 6, 51, 64
9, 84496, Note_on_c, 6, 47, 100
9, 84580, Note_off_c, 6, 47, 64
9, 84600, Note_on_c, 6, 52, 100
9, 84684, Note_off_c, 6, 52, 64
9, 84692, Note_on_c, 6, 47, 100
9, 84776, Note_off_c, 6, 47, 64
9, 84796, Note_on_c, 6, 46, 100
9, 84880, Note_off_c, 6, 46, 64
9, 84884, Note_on_c, 6, 47, 100
9, 84968, Note_off_c, 6, 47, 64
9, 84988, Note_on_c, 6, 49, 100
9, 85072, Note_off_c, 6, 49, 64
9, 85072, Note_on_c, 6, 47, 100
9, 85156, Note_off_c, 6, 47, 64
9, 85180, Note_on_c, 6, 54, 100
9, 85264, Note_off_c, 6, 54, 64
9, 85264, Note_on_c, 6, 47, 100
9, 85348, Note_off_c, 6, 47, 64
9, 85376, Note_on_c, 6, 55, 100
9, 85456, Note_off_c, 6, 55, 64
9, 85460, Note_on_c, 6, 47, 100
9, 85544, Note_off_c, 6, 47, 64
9, 85556, Note_on_c, 6, 46, 100
9, 85640, Note_off_c, 6, 46, 64
9, 85664, Note_on_c, 6, 47, 100
9, 85744, Note_off_c, 6, 47, 64
9, 85760, Note_on_c, 6, 49, 100
9, 85840, Note_off_c, 6, 49, 64
9, 85856, Note_on_c, 6, 47, 100
9, 85936, Note_off_c, 6, 47, 64
9, 85940, Note_on_c, 6, 57, 100
9, 86024, Note_off_c, 6, 57, 64
9, 86044, Note_on_c, 6, 47, 100
9, 86128, Note_off_c, 6, 47, 64
9, 86144, Note_on_c, 6, 59, 100
9, 86224, Note_off_c, 6, 59, 64
9, 86224, Note_on_c, 6, 55, 100
9, 86400, Note_off_c, 6, 55, 64
9, 86416, Note_on_c, 6, 54, 100
9, 86500, Note_off_c, 6, 54, 64
9, 86516, Note_on_c, 6, 52, 100
9, 86600, Note_off_c, 6, 52, 64
9, 86616, Note_on_c, 6, 54, 100
9, 86792, Note_off_c, 6, 54, 64
9, 86816, Note_on_c, 6, 52, 100
9, 86896, Note_off_c, 6, 52, 64
9, 86912, Note_on_c, 6, 51, 100
9, 86992, Note_off_c, 6, 51, 64
9, 87004, Note_on_c, 6, 60, 100
9, 87272, Note_off_c, 6, 60, 64
9, 87284, Note_on_c, 6, 59, 100
9, 87368, Note_off_c, 6, 59, 64
9, 87392, Note_on_c, 6, 57, 100
9, 87472, Note_off_c, 6, 57, 64
9, 87472, Note_on_c, 6, 55, 100
9, 87556, Note_off_c, 6, 55, 64
9, 87584, Note_on_c, 6, 54, 100
9, 87664, Note_off_c, 6, 54, 64
9, 87664, Note_on_c, 6, 52, 100
9, 87748, Note_off_c, 6, 52, 64
9, 87772, Note_on_c, 6, 51, 100
9, 87948, Note_off_c, 6, 51, 64
9, 87952, Note_on_c, 6, 52, 100
9, 88128, Note_off_c, 6, 52, 64
9, 88148, Note_on_c, 6, 45, 100
9, 88324, Note_off_c, 6, 45, 64
9, 88344, Note_on_c, 6, 47, 100
9, 88520, Note_off_c, 6, 47, 64
9, 88536, Note_on_c, 6, 40, 100
9, 88896, Note_off_c, 6, 40, 64
9, 89108, Note_on_c, 6, 47, 100
9, 89284, Note_off_c, 6, 47, 64
9, 89312, Note_on_c, 6, 52, 100
9, 89672, Note_off_c, 6, 52, 64
9, 89872, Note_on_c, 6, 59, 100
9, 90048, Note_off_c, 6, 59, 64
9, 90068, Note_on_c, 6, 64, 100
9, 90432, Note_off_c, 6, 64, 64
9, 90656, Note_on_c, 6, 59, 100
9, 90832, Note_off_c, 6, 59, 64
9, 90840, Note_on_c, 6, 52, 100
9, 90924, Note_off_c, 6, 52, 64
9, 90944, Note_on_c, 6, 54, 100
9, 91024, Note_off_c, 6, 54, 64
9, 91040, Note_on_c, 6, 55, 100
9, 91120, Note_off_c, 6, 55, 64
9, 91136, Note_on_c, 6, 54, 100
9, 91216, Note_off_c, 6, 54, 64
9, 91216, Note_on_c, 6, 52, 100
9, 91300, Note_off_c, 6, 52, 64
9, 91316, Note_on_c, 6, 50, 100
9, 91400, Note_off_c, 6, 50, 64
9, 91416, Note_on_c, 6, 49, 100
9, 91500, Note_off_c, 6, 49, 64
9, 91520, Note_on_c, 6, 47, 100
9, 91600, Note_off_c, 6, 47, 64
9, 91608, Note_on_c, 6, 45, 100
9, 91968, Note_off_c, 6, 45, 64
9, 92176, Note_on_c, 6, 40, 100
9, 92352, Note_off_c, 6, 40, 64
9, 92384, Note_on_c, 6, 45, 100
9, 92744, Note_off_c, 6, 45, 64
9, 92948, Note_on_c, 6, 52, 100
9, 93124, Note_off_c, 6, 52, 64
9, 93140, Note_on_c, 6, 57, 100
9, 93504, Note_off_c, 6, 57, 64
9, 93712, Note_on_c, 6, 52, 100
9, 93888, Note_off_c, 6, 52, 64
9, 93916, Note_on_c, 6, 45, 100
9, 94000, Note_off_c, 6, 45, 64
9, 94016, Note_on_c, 6, 47, 100
9, 94096, Note_off_c, 6, 47, 64
9, 94108, Note_on_c, 6, 49, 100
9, 94192, Note_off_c, 6, 49, 64
9, 94192, Note_on_c, 6, 47, 100
9, 94276, Note_off_c, 6, 47, 64
9, 94296, Note_on_c, 6, 45, 100
9, 94380, Note_off_c, 6, 45, 64
9, 94400, Note_on_c, 6, 43, 100
9, 94480, Note_off_c, 6, 43, 64
9, 94496, Note_on_c, 6, 42, 100
9, 94576, Note_off_c, 6, 42, 64
9, 94588, Note_on_c, 6, 40, 100
9, 94672, Note_off_c, 6, 40, 64
9, 94684, Note_on_c, 6, 38, 100
9, 94768, Note_off_c, 6, 38, 64
9, 94768, Note_on_c, 6, 57, 100
9, 94852, Note_off_c, 6, 57, 64
9, 94880, Note_on_c, 6, 50, 100
9, 94960, Note_off_c, 6, 50, 64
9, 94960, Note_on_c, 6, 52, 100
9, 95044, Note_off_c, 6, 52, 64
9, 95060, Note_on_c, 6, 54, 100
9, 95144, Note_off_c, 6, 54, 64
9, 95156, Note_on_c, 6, 55, 100
9, 95240, Note_off_c, 6, 55, 64
9, 95264, Note_on_c, 6, 57, 100
9, 95344, Note_off_c, 6, 57, 64
9, 95348, Note_on_c, 6, 55, 100
9, 95432, Note_off_c, 6, 55, 64
9, 95448, Note_on_c, 6, 54, 100
9, 95624, Note_off_c, 6, 54, 64
9, 95640, Note_on_c, 6, 62, 100
9, 95816, Note_off_c, 6, 62, 64
9, 96016, Note_on_c, 6, 57, 100
9, 96192, Note_off_c, 6, 57, 64
9, 96216, Note_on_c, 6, 62, 100
9, 96392, Note_off_c, 6, 62, 64
9, 96404, Note_on_c, 6, 57, 100
9, 96580, Note_off_c, 6, 57, 64
9, 96596, Note_on_c, 6, 50, 100
9, 96772, Note_off_c, 6, 50, 64
9, 96792, Note_on_c, 6, 45, 100
9, 96968, Note_off_c, 6, 45, 64
9, 96980, Note_on_c, 6, 38, 100
9, 97064, Note_off_c, 6, 38, 64
9, 97088, Note_on_c, 6, 59, 100
9, 97168, Note_off_c, 6, 59, 64
9, 97180, Note_on_c, 6, 57, 100
9, 97264, Note_off_c, 6, 57, 64
9, 97264, Note_on_c, 6, 55, 100
9, 97348, Note_off_c, 6, 55, 64
9, 97372, Note_on_c, 6, 54, 100
9, 97456, Note_off_c, 6, 54, 64
9, 97460, Note_on_c, 6, 52, 100
9, 97544, Note_off_c, 6, 52, 64
9, 97556, Note_on_c, 6, 50, 100
9, 97640, Note_off_c, 6, 50, 64
9, 97652, Note_on_c, 6, 48, 100
9, 97736, Note_off_c, 6, 48, 64
9, 97744, Note_on_c, 6, 50, 100
9, 97920, Note_off_c, 6, 50, 64
9, 97944, Note_on_c, 6, 55, 100
9, 98028, Note_off_c, 6, 55, 64
9, 98048, Note_on_c, 6, 54, 100
9, 98128, Note_off_c, 6, 54, 64
9, 98136, Note_on_c, 6, 55, 100
9, 98312, Note_off_c, 6, 55, 64
9, 98328, Note_on_c, 6, 50, 100
9, 98504, Note_off_c, 6, 50, 64
9, 98524, Note_on_c, 6, 43, 100
9, 98884, Note_off_c, 6, 43, 64
9, 99100, Note_on_c, 6, 54, 100
9, 99276, Note_off_c, 6, 54, 64
9, 99280, Note_on_c, 6, 55, 100
9, 99364, Note_off_c, 6, 55, 64
9, 99376, Note_on_c, 6, 50, 100
9, 99460, Note_off_c, 6, 50, 64
9, 99480, Note_on_c, 6, 43, 100
9, 99564, Note_off_c, 6, 43, 64
9, 99572, Note_on_c, 6, 45, 100
9, 99656, Note_off_c, 6, 45, 64
9, 99676, Note_on_c, 6, 47, 100
9, 99760, Note_off_c, 6, 47, 64
9, 99776, Note_on_c, 6, 48, 100
9, 99856, Note_off_c, 6, 48, 64
9, 99856, Note_on_c, 6, 50, 100
9, 99940, Note_off_c, 6, 50, 64
9, 99960, Note_on_c, 6, 48, 100
9, 100044, Note_off_c, 6, 48, 64
9, 100060, Note_on_c, 6, 47, 100
9, 100144, Note_off_c, 6, 47, 64
9, 100156, Note_on_c, 6, 50, 100
9, 100240, Note_off_c, 6, 50, 64
9, 100240, Note_on_c, 6, 43, 100
9, 100324, Note_off_c, 6, 43, 64
9, 100340, Note_on_c, 6, 45, 100
9, 100424, Note_off_c, 6, 45, 64
9, 100436, Note_on_c, 6, 47, 100
9, 100520, Note_off_c, 6, 47, 64
9, 100540, Note_on_c, 6, 48, 100
9, 100624, Note_off_c, 6, 48, 64
9, 100624, Note_on_c, 6, 50, 100
9, 100708, Note_off_c, 6, 50, 64
9, 100736, Note_on_c, 6, 48, 100
9, 100816, Note_off_c, 6, 48, 64
9, 100832, Note_on_c, 6, 47, 100
9, 100912, Note_off_c, 6, 47, 64
9, 100920, Note_on_c, 6, 48, 100
9, 101004, Note_off_c, 6, 48, 64
9, 101008, Note_on_c, 6, 50, 100
9, 101092, Note_off_c, 6, 50, 64
9, 101104, Note_on_c, 6, 48, 100
9, 101188, Note_off_c, 6, 48, 64
9, 101208, Note_on_c, 6, 47, 100
9, 101292, Note_off_c, 6, 47, 64
9, 101296, Note_on_c, 6, 45, 100
9, 101380, Note_off_c, 6, 45, 64
9, 101404, Note_on_c, 6, 43, 100
9, 101488, Note_off_c, 6, 43, 64
9, 101496, Note_on_c, 6, 42, 100
9, 101580, Note_off_c, 6, 42, 64
9, 101600, Note_on_c, 6, 40, 100
9, 101960, Note_off_c, 6, 40, 64
9, 102368, Note_on_c, 6, 40, 100
9, 102728, Note_off_c, 6, 40, 64
9, 103120, Note_on_c, 6, 52, 100
9, 103484, Note_off_c, 6, 52, 64
9, 103900, Note_on_c, 6, 52, 100
9, 104260, Note_off_c, 6, 52, 64
9, 104660, Note_on_c, 6, 46, 100
9, 105024, Note_off_c, 6, 46, 64
9, 105440, Note_on_c, 6, 42, 100
9, 105800, Note_off_c, 6, 42, 64
9, 106208, Note_on_c, 6, 47, 100
9, 106384, Note_off_c, 6, 47, 64
9, 106400, Note_on_c, 6, 59, 100
9, 106576, Note_off_c, 6, 59, 64
9, 106592, Note_on_c, 6, 59, 100
9, 106768, Note_off_c, 6, 59, 64
9, 106776, Note_on_c, 6, 47, 100
9, 106952, Note_off_c, 6, 47, 64
9, 106976, Note_on_c, 6, 47, 100
9, 107152, Note_off_c, 6, 47, 64
9, 107168, Note_on_c, 6, 59, 100
9, 107344, Note_on_c, 6, 59, 100
9, 107348, Note_off_c, 6, 59, 64
9, 107528, Note_off_c, 6, 59, 64
9, 107544, Note_on_c, 6, 47, 100
9, 107720, Note_off_c, 6, 47, 64
9, 107744, Note_on_c, 6, 47, 100
9, 107920, Note_off_c, 6, 47, 64
9, 107936, Note_on_c, 6, 59, 100
9, 108016, Note_off_c, 6, 59, 64
9, 108024, Note_on_c, 6, 57, 100
9, 108108, Note_off_c, 6, 57, 64
9, 108112, Note_on_c, 6, 55, 100
9, 108288, Note_off_c, 6, 55, 64
9, 108316, Note_on_c, 6, 54, 100
9, 108400, Note_off_c, 6, 54, 64
9, 108404, Note_on_c, 6, 52, 100
9, 108488, Note_off_c, 6, 52, 64
9, 108500, Note_on_c, 6, 50, 100
9, 108676, Note_off_c, 6, 50, 64
9, 108688, Note_on_c, 6, 49, 100
9, 108772, Note_off_c, 6, 49, 64
9, 108788, Note_on_c, 6, 47, 100
9, 108872, Note_off_c, 6, 47, 64
9, 108892, Note_on_c, 6, 46, 100
9, 109068, Note_off_c, 6, 46, 64
9, 109088, Note_on_c, 6, 42, 100
9, 109264, Note_off_c, 6, 42, 64
9, 109268, Note_on_c, 6, 47, 100
9, 109444, Note_off_c, 6, 47, 64
9, 109456, Note_on_c, 6, 59, 100
9, 109540, Note_off_c, 6, 59, 64
9, 109560, Note_on_c, 6, 57, 100
9, 109644, Note_off_c, 6, 57, 64
9, 109648, Note_on_c, 6, 55, 100
9, 109824, Note_off_c, 6, 55, 64
9, 109856, Note_on_c, 6, 54, 100
9, 109936, Note_off_c, 6, 54, 64
9, 109952, Note_on_c, 6, 52, 100
9, 110032, Note_off_c, 6, 52, 64
9, 110036, Note_on_c, 6, 50, 100
9, 110120, Note_off_c, 6, 50, 64
9, 110136, Note_on_c, 6, 49, 100
9, 110220, Note_off_c, 6, 49, 64
9, 110236, Note_on_c, 6, 50, 100
9, 110320, Note_off_c, 6, 50, 64
9, 110328, Note_on_c, 6, 52, 100
9, 110412, Note_off_c, 6, 52, 64
9, 110416, Note_on_c, 6, 50, 100
9, 110500, Note_off_c, 6, 50, 64
9, 110528, Note_on_c, 6, 52, 100
9, 110608, Note_off_c, 6, 52, 64
9, 110620, Note_on_c, 6, 50, 100
9, 110704, Note_off_c, 6, 50, 64
9, 110708, Note_on_c, 6, 49, 100
9, 110792, Note_off_c, 6, 49, 64
9, 110808, Note_on_c, 6, 47, 100
9, 110984, Note_off_c, 6, 47, 64
9, 110996, Note_on_c, 6, 55, 100
9, 111172, Note_off_c, 6, 55, 64
9, 111188, Note_on_c, 6, 52, 100
9, 111364, Note_off_c, 6, 52, 64
9, 111384, Note_on_c, 6, 54, 100
9, 111560, Note_off_c, 6, 54, 64
9, 111584, Note_on_c, 6, 55, 100
9, 111852, Note_off_c, 6, 55, 64
9, 111864, Note_on_c, 6, 54, 100
9, 111948, Note_off_c, 6, 54, 64
9, 111956, Note_on_c, 6, 52, 100
9, 112040, Note_off_c, 6, 52, 64
9, 112048, Note_on_c, 6, 50, 100
9, 112132, Note_off_c, 6, 50, 64
9, 112160, Note_on_c, 6, 49, 100
9, 112240, Note_off_c, 6, 49, 64
9, 112252, Note_on_c, 6, 47, 100
9, 112336, Note_off_c, 6, 47, 64
9, 112344, Note_on_c, 6, 50, 100
9, 112520, Note_off_c, 6, 50, 64
9, 112536, Note_on_c, 6, 52, 100
9, 112712, Note_off_c, 6, 52, 64
9, 112720, Note_on_c, 6, 54, 100
9, 112896, Note_off_c, 6, 54, 64
9, 112920, Note_on_c, 6, 42, 100
9, 113096, Note_off_c, 6, 42, 64
9, 113120, Note_on_c, 6, 47, 100
9, 113296, Note_off_c, 6, 47, 64
9, 113296, Note_on_c, 6, 59, 100
9, 113380, Note_off_c, 6, 59, 64
9, 113396, Note_on_c, 6, 58, 100
9, 113480, Note_off_c, 6, 58, 64
9, 113488, Note_on_c, 6, 59, 100
9, 113664, Note_off_c, 6, 59, 64
9, 113684, Note_on_c, 6, 62, 100
9, 113768, Note_off_c, 6, 62, 64
9, 113776, Note_on_c, 6, 61, 100
9, 113860, Note_off_c, 6, 61, 64
9, 113880, Note_on_c, 6, 62, 100
9, 114056, Note_off_c, 6, 62, 64
9, 115232, Note_on_c, 6, 47, 100
9, 115312, Note_off_c, 6, 47, 64
9, 115316, Note_on_c, 6, 49, 100
9, 115400, Note_off_c, 6, 49, 64
9, 115416, Note_on_c, 6, 50, 100
9, 115592, Note_off_c, 6, 50, 64
9, 115616, Note_on_c, 6, 55, 100
9, 115696, Note_off_c, 6, 55, 64
9, 115712, Note_on_c, 6, 54, 100
9, 115792, Note_off_c, 6, 54, 64
9, 115800, Note_on_c, 6, 55, 100
9, 115976, Note_off_c, 6, 55, 64
9, 116000, Note_on_c, 6, 49, 100
9, 116080, Note_off_c, 6, 49, 64
9, 116088, Note_on_c, 6, 47, 100
9, 116172, Note_off_c, 6, 47, 64
9, 116192, Note_on_c, 6, 49, 100
9, 116368, Note_off_c, 6, 49, 64
9, 116380, Note_on_c, 6, 54, 100
9, 116464, Note_off_c, 6, 54, 64
9, 116472, Note_on_c, 6, 52, 100
9, 116556, Note_off_c, 6, 52, 64
9, 116572, Note_on_c, 6, 54, 100
9, 116748, Note_off_c, 6, 54, 64
9, 116764, Note_on_c, 6, 47, 100
9, 116848, Note_off_c, 6, 47, 64
9, 116864, Note_on_c, 6, 46, 100
9, 116944, Note_off_c, 6, 46, 64
9, 116948, Note_on_c, 6, 47, 100
9, 117124, Note_off_c, 6, 47, 64
9, 117148, Note_on_c, 6, 52, 100
9, 117324, Note_off_c, 6, 52, 64
9, 117328, Note_on_c, 6, 54, 100
9, 117504, Note_off_c, 6, 54, 64
9, 117520, Note_on_c, 6, 42, 100
9, 117696, Note_off_c, 6, 42, 64
9, 117720, Note_on_c, 6, 47, 100
9, 117896, Note_off_c, 6, 47, 64
9, 117916, Note_on_c, 6, 48, 100
9, 118092, Note_off_c, 6, 48, 64
9, 118100, Note_on_c, 6, 47, 100
9, 118276, Note_off_c, 6, 47, 64
9, 118292, Note_on_c, 6, 45, 100
9, 118468, Note_off_c, 6, 45, 64
9, 118484, Note_on_c, 6, 43, 100
9, 118848, Note_off_c, 6, 43, 64
9, 121564, Note_on_c, 6, 50, 100
9, 121740, Note_off_c, 6, 50, 64
9, 121748, Note_on_c, 6, 49, 100
9, 121924, Note_off_c, 6, 49, 64
9, 121936, Note_on_c, 6, 50, 100
9, 122112, Note_off_c, 6, 50, 64
9, 122136, Note_on_c, 6, 52, 100
9, 122312, Note_off_c, 6, 52, 64
9, 122328, Note_on_c, 6, 54, 100
9, 122504, Note_off_c, 6, 54, 64
9, 122516, Note_on_c, 6, 55, 100
9, 122692, Note_off_c, 6, 55, 64
9, 122704, Note_on_c, 6, 54, 100
9, 122880, Note_off_c, 6, 54, 64
9, 122900, Note_on_c, 6, 52, 100
9, 123076, Note_off_c, 6, 52, 64
9, 123104, Note_on_c, 6, 50, 100
9, 123280, Note_off_c, 6, 50, 64
9, 123296, Note_on_c, 6, 49, 100
9, 123472, Note_off_c, 6, 49, 64
9, 123472, Note_on_c, 6, 47, 100
9, 123648, Note_off_c, 6, 47, 64
9, 123664, Note_on_c, 6, 52, 100
9, 123840, Note_off_c, 6, 52, 64
9, 123872, Note_on_c, 6, 45, 100
9, 124232, Note_off_c, 6, 45, 64
9, 124444, Note_on_c, 6, 45, 100
9, 124620, Note_off_c, 6, 45, 64
9, 124640, Note_on_c, 6, 50, 100
9, 124816, Note_off_c, 6, 50, 64
9, 124824, Note_on_c, 6, 38, 100
9, 125000, Note_off_c, 6, 38, 64
9, 125016, Note_on_c, 6, 42, 100
9, 125192, Note_off_c, 6, 42, 64
9, 125212, Note_on_c, 6, 45, 100
9, 125388, Note_off_c, 6, 45, 64
9, 125408, Note_on_c, 6, 50, 100
9, 125768, Note_off_c, 6, 50, 64
9, 125980, Note_on_c, 6, 50, 100
9, 126156, Note_off_c, 6, 50, 64
9, 126176, Note_on_c, 6, 55, 100
9, 126352, Note_off_c, 6, 55, 64
9, 126360, Note_on_c, 6, 43, 100
9, 126536, Note_off_c, 6, 43, 64
9, 126552, Note_on_c, 6, 47, 100
9, 126728, Note_off_c, 6, 47, 64
9, 126752, Note_on_c, 6, 50, 100
9, 126928, Note_off_c, 6, 50, 64
9, 126928, Note_on_c, 6, 55, 100
9, 127292, Note_off_c, 6, 55, 64
9, 127512, Note_on_c, 6, 47, 100
9, 127688, Note_off_c, 6, 47, 64
9, 127696, Note_on_c, 6, 52, 100
9, 127872, Note_off_c, 6, 52, 64
9, 127896, Note_on_c, 6, 40, 100
9, 128072, Note_off_c, 6, 40, 64
9, 128096, Note_on_c, 6, 43, 100
9, 128272, Note_off_c, 6, 43, 64
9, 128276, Note_on_c, 6, 47, 100
9, 128452, Note_off_c, 6, 47, 64
9, 128464, Note_on_c, 6, 52, 100
9, 128828, Note_off_c, 6, 52, 64
9, 129040, Note_on_c, 6, 43, 100
9, 129216, Note_off_c, 6, 43, 64
9, 129232, Note_on_c, 6, 48, 100
9, 129408, Note_off_c, 6, 48, 64
9, 129428, Note_on_c, 6, 50, 100
9, 129604, Note_off_c, 6, 50, 64
9, 129616, Note_on_c, 6, 43, 100
9, 129792, Note_off_c, 6, 43, 64
9, 129824, Note_on_c, 6, 48, 100
9, 130000, Note_off_c, 6, 48, 64
9, 130000, Note_on_c, 6, 50, 100
9, 130176, Note_off_c, 6, 50, 64
9, 130196, Note_on_c, 6, 48, 100
9, 130372, Note_off_c, 6, 48, 64
9, 130400, Note_on_c, 6, 47, 100
9, 130576, Note_off_c, 6, 47, 64
9, 130584, Note_on_c, 6, 45, 100
9, 130760, Note_off_c, 6, 45, 64
9, 130784, Note_on_c, 6, 43, 100
9, 130960, Note_off_c, 6, 43, 64
9, 130960, Note_on_c, 6, 55, 100
9, 131136, Note_off_c, 6, 55, 64
9, 131156, Note_on_c, 6, 55, 100
9, 131332, Note_off_c, 6, 55, 64
9, 131348, Note_on_c, 6, 43, 100
9, 131524, Note_off_c, 6, 43, 64
9, 131544, Note_on_c, 6, 43, 100
9, 131720, Note_off_c, 6, 43, 64
9, 131732, Note_on_c, 6, 55, 100
9, 131908, Note_off_c, 6, 55, 64
9, 131924, Note_on_c, 6, 55, 100
9, 132100, Note_off_c, 6, 55, 64
9, 132124, Note_on_c, 6, 43, 100
9, 132300, Note_off_c, 6, 43, 64
9, 132308, Note_on_c, 6, 43, 100
9, 132484, Note_off_c, 6, 43, 64
9, 132500, Note_on_c, 6, 55, 100
9, 132584, Note_off_c, 6, 55, 64
9, 132604, Note_on_c, 6, 54, 100
9, 132688, Note_off_c, 6, 54, 64
9, 132688, Note_on_c, 6, 52, 100
9, 132864, Note_off_c, 6, 52, 64
9, 132884, Note_on_c, 6, 57, 100
9, 133060, Note_off_c, 6, 57, 64
9, 133072, Note_on_c, 6, 62, 100
9, 133248, Note_off_c, 6, 62, 64
9, 133268, Note_on_c, 6, 60, 100
9, 133444, Note_off_c, 6, 60, 64
9, 133468, Note_on_c, 6, 59, 100
9, 133644, Note_off_c, 6, 59, 64
9, 133660, Note_on_c, 6, 57, 100
9, 133836, Note_off_c, 6, 57, 64
9, 133844, Note_on_c, 6, 55, 100
9, 134020, Note_off_c, 6, 55, 64
9, 134048, Note_on_c, 6, 53, 100
9, 134224, Note_off_c, 6, 53, 64
9, 134236, Note_on_c, 6, 52, 100
9, 134412, Note_off_c, 6, 52, 64
9, 134416, Note_on_c, 6, 50, 100
9, 134592, Note_off_c, 6, 50, 64
9, 134624, Note_on_c, 6, 60, 100
9, 134800, Note_off_c, 6, 60, 64
9, 134816, Note_on_c, 6, 58, 100
9, 134992, Note_off_c, 6, 58, 64
9, 135004, Note_on_c, 6, 57, 100
9, 135180, Note_off_c, 6, 57, 64
9, 135188, Note_on_c, 6, 55, 100
9, 135364, Note_off_c, 6, 55, 64
9, 135392, Note_on_c, 6, 54, 100
9, 135568, Note_off_c, 6, 54, 64
9, 135576, Note_on_c, 6, 52, 100
9, 135752, Note_off_c, 6, 52, 64
9, 135764, Note_on_c, 6, 50, 100
9, 135940, Note_off_c, 6, 50, 64
9, 135964, Note_on_c, 6, 49, 100
9, 136140, Note_off_c, 6, 49, 64
9, 136160, Note_on_c, 6, 59, 100
9, 136336, Note_off_c, 6, 59, 64
9, 136336, Note_on_c, 6, 57, 100
9, 136512, Note_off_c, 6, 57, 64
9, 136528, Note_on_c, 6, 55, 100
9, 136704, Note_off_c, 6, 55, 64
9, 136724, Note_on_c, 6, 54, 100
9, 136900, Note_off_c, 6, 54, 64
9, 136912, Note_on_c, 6, 52, 100
9, 137088, Note_off_c, 6, 52, 64
9, 137112, Note_on_c, 6, 50, 100
9, 137288, Note_off_c, 6, 50, 64
9, 137312, Note_on_c, 6, 48, 100
9, 137488, Note_off_c, 6, 48, 64
9, 137492, Note_on_c, 6, 47, 100
9, 137668, Note_off_c, 6, 47, 64
9, 137680, Note_on_c, 6, 45, 100
9, 137856, Note_off_c, 6, 45, 64
9, 137880, Note_on_c, 6, 43, 100
9, 138056, Note_off_c, 6, 43, 64
9, 138064, Note_on_c, 6, 41, 100
9, 138240, Note_off_c, 6, 41, 64
9, 138272, Note_on_c, 6, 40, 100
9, 138448, Note_off_c, 6, 40, 64
9, 138456, Note_on_c, 6, 38, 100
9, 138816, Note_off_c, 6, 38, 64
9, 140000, Note_on_c, 6, 39, 100
9, 140360, Note_off_c, 6, 39, 64
9, 141520, Note_on_c, 6, 40, 100
9, 141884, Note_off_c, 6, 40, 64
9, 143060, Note_on_c, 6, 40, 100
9, 143424, Note_off_c, 6, 40, 64
9, 144604, Note_on_c, 6, 40, 100
9, 144964, Note_off_c, 6, 40, 64
9, 146136, Note_on_c, 6, 40, 100
9, 146496, Note_off_c, 6, 40, 64
9, 147672, Note_on_c, 6, 45, 100
9, 148032, Note_off_c, 6, 45, 64
9, 149012, Note_on_c, 6, 57, 100
9, 149188, Note_off_c, 6, 57, 64
9, 149212, Note_on_c, 6, 43, 100
9, 149388, Note_off_c, 6, 43, 64
9, 150560, Note_on_c, 6, 55, 100
9, 150736, Note_off_c, 6, 55, 64
9, 150752, Note_on_c, 6, 41, 100
9, 150928, Note_off_c, 6, 41, 64
9, 152084, Note_on_c, 6, 53, 100
9, 152260, Note_off_c, 6, 53, 64
9, 152284, Note_on_c, 6, 40, 100
9, 152460, Note_off_c, 6, 40, 64
9, 152476, Note_on_c, 6, 52, 100
9, 152652, Note_off_c, 6, 52, 64
9, 152664, Note_on_c, 6, 52, 100
9, 152840, Note_off_c, 6, 52, 64
9, 152848, Note_on_c, 6, 40, 100
9, 153024, Note_off_c, 6, 40, 64
9, 153040, Note_on_c, 6, 40, 100
9, 153216, Note_off_c, 6, 40, 64
9, 153244, Note_on_c, 6, 52, 100
9, 153420, Note_off_c, 6, 52, 64
9, 153440, Note_on_c, 6, 52, 100
9, 153616, Note_off_c, 6, 52, 64
9, 153620, Note_on_c, 6, 50, 100
9, 153796, Note_off_c, 6, 50, 64
9, 153808, Note_on_c, 6, 48, 100
9, 153984, Note_off_c, 6, 48, 64
9, 154000, Note_on_c, 6, 50, 100
9, 154176, Note_off_c, 6, 50, 64
9, 154192, Note_on_c, 6, 52, 100
9, 154368, Note_off_c, 6, 52, 64
9, 154384, Note_on_c, 6, 40, 100
9, 154560, Note_off_c, 6, 40, 64
9, 154576, Note_on_c, 6, 45, 100
9, 154940, Note_off_c, 6, 45, 64
9, 155164, Note_on_c, 6, 57, 100
9, 155248, Note_off_c, 6, 57, 64
9, 155248, Note_on_c, 6, 56, 100
9, 155332, Note_off_c, 6, 56, 64
9, 155356, Note_on_c, 6, 57, 100
9, 155532, Note_off_c, 6, 57, 64
9, 155548, Note_on_c, 6, 52, 100
9, 155632, Note_off_c, 6, 52, 64
9, 155632, Note_on_c, 6, 50, 100
9, 155716, Note_off_c, 6, 50, 64
9, 155732, Note_on_c, 6, 52, 100
9, 155908, Note_off_c, 6, 52, 64
9, 155932, Note_on_c, 6, 57, 100
9, 156016, Note_off_c, 6, 57, 64
9, 156028, Note_on_c, 6, 56, 100
9, 156112, Note_off_c, 6, 56, 64
9, 156128, Note_on_c, 6, 57, 100
9, 156304, Note_off_c, 6, 57, 64
9, 156304, Note_on_c, 6, 48, 100
9, 156388, Note_off_c, 6, 48, 64
9, 156404, Note_on_c, 6, 47, 100
9, 156488, Note_off_c, 6, 47, 64
9, 156504, Note_on_c, 6, 48, 100
9, 156680, Note_off_c, 6, 48, 64
9, 156692, Note_on_c, 6, 57, 100
9, 156776, Note_off_c, 6, 57, 64
9, 156792, Note_on_c, 6, 56, 100
9, 156876, Note_off_c, 6, 56, 64
9, 156892, Note_on_c, 6, 57, 100
9, 157068, Note_off_c, 6, 57, 64
9, 157084, Note_on_c, 6, 45, 100
9, 157168, Note_off_c, 6, 45, 64
9, 157172, Note_on_c, 6, 47, 100
9, 157256, Note_off_c, 6, 47, 64
9, 157276, Note_on_c, 6, 49, 100
9, 157452, Note_off_c, 6, 49, 64
9, 157464, Note_on_c, 6, 51, 100
9, 157640, Note_off_c, 6, 51, 64
9, 157656, Note_on_c, 6, 52, 100
9, 157832, Note_off_c, 6, 52, 64
9, 157844, Note_on_c, 6, 40, 100
9, 158020, Note_off_c, 6, 40, 64
9, 158236, Note_on_c, 6, 52, 100
9, 158320, Note_off_c, 6, 52, 64
9, 158336, Note_on_c, 6, 51, 100
9, 158416, Note_off_c, 6, 51, 64
9, 158420, Note_on_c, 6, 52, 100
9, 158596, Note_off_c, 6, 52, 64
9, 158616, Note_on_c, 6, 47, 100
9, 158700, Note_off_c, 6, 47, 64
9, 158720, Note_on_c, 6, 45, 100
9, 158800, Note_off_c, 6, 45, 64
9, 158816, Note_on_c, 6, 47, 100
9, 158992, Note_off_c, 6, 47, 64
9, 158992, Note_on_c, 6, 52, 100
9, 159076, Note_off_c, 6, 52, 64
9, 159092, Note_on_c, 6, 51, 100
9, 159176, Note_off_c, 6, 51, 64
9, 159192, Note_on_c, 6, 52, 100
9, 159368, Note_off_c, 6, 52, 64
9, 159384, Note_on_c, 6, 43, 100
9, 159468, Note_off_c, 6, 43, 64
9, 159472, Note_on_c, 6, 42, 100
9, 159556, Note_off_c, 6, 42, 64
9, 159572, Note_on_c, 6, 43, 100
9, 159748, Note_off_c, 6, 43, 64
9, 159772, Note_on_c, 6, 52, 100
9, 159856, Note_off_c, 6, 52, 64
9, 159860, Note_on_c, 6, 51, 100
9, 159944, Note_off_c, 6, 51, 64
9, 159964, Note_on_c, 6, 52, 100
9, 160140, Note_off_c, 6, 52, 64
9, 160148, Note_on_c, 6, 40, 100
9, 160232, Note_off_c, 6, 40, 64
9, 160252, Note_on_c, 6, 42, 100
9, 160336, Note_off_c, 6, 42, 64
9, 160336, Note_on_c, 6, 43, 100
9, 160512, Note_off_c, 6, 43, 64
9, 160532, Note_on_c, 6, 45, 100
9, 160708, Note_off_c, 6, 45, 64
9, 160728, Note_on_c, 6, 47, 100
9, 160812, Note_off_c, 6, 47, 64
9, 160820, Note_on_c, 6, 45, 100
9, 160904, Note_off_c, 6, 45, 64
9, 160924, Note_on_c, 6, 47, 100
9, 161008, Note_off_c, 6, 47, 64
9, 161016, Note_on_c, 6, 48, 100
9, 161100, Note_off_c, 6, 48, 64
9, 161112, Note_on_c, 6, 47, 100
9, 161196, Note_off_c, 6, 47, 64
9, 161204, Note_on_c, 6, 48, 100
9, 161288, Note_off_c, 6, 48, 64
9, 161312, Note_on_c, 6, 47, 100
9, 161392, Note_off_c, 6, 47, 64
9, 161396, Note_on_c, 6, 45, 100
9, 161480, Note_off_c, 6, 45, 64
9, 161504, Note_on_c, 6, 43, 100
9, 161864, Note_off_c, 6, 43, 64
9, 162072, Note_on_c, 6, 50, 100
9, 162248, Note_off_c, 6, 50, 64
9, 162272, Note_on_c, 6, 55, 100
9, 162352, Note_off_c, 6, 55, 64
9, 162352, Note_on_c, 6, 54, 100
9, 162436, Note_off_c, 6, 54, 64
9, 162448, Note_on_c, 6, 55, 100
9, 162532, Note_off_c, 6, 55, 64
9, 162556, Note_on_c, 6, 57, 100
9, 162640, Note_off_c, 6, 57, 64
9, 162648, Note_on_c, 6, 55, 100
9, 162732, Note_off_c, 6, 55, 64
9, 162740, Note_on_c, 6, 59, 100
9, 162824, Note_off_c, 6, 59, 64
9, 162832, Note_on_c, 6, 57, 100
9, 162916, Note_off_c, 6, 57, 64
9, 162928, Note_on_c, 6, 60, 100
9, 163012, Note_off_c, 6, 60, 64
9, 163028, Note_on_c, 6, 59, 100
9, 163112, Note_off_c, 6, 59, 64
9, 163128, Note_on_c, 6, 60, 100
9, 163212, Note_off_c, 6, 60, 64
9, 163220, Note_on_c, 6, 59, 100
9, 163304, Note_off_c, 6, 59, 64
9, 163316, Note_on_c, 6, 57, 100
9, 163400, Note_off_c, 6, 57, 64
9, 163412, Note_on_c, 6, 55, 100
9, 163496, Note_off_c, 6, 55, 64
9, 163504, Note_on_c, 6, 59, 100
9, 163588, Note_off_c, 6, 59, 64
9, 163600, Note_on_c, 6, 57, 100
9, 163684, Note_off_c, 6, 57, 64
9, 163704, Note_on_c, 6, 55, 100
9, 163788, Note_off_c, 6, 55, 64
9, 163800, Note_on_c, 6, 54, 100
9, 163884, Note_off_c, 6, 54, 64
9, 163904, Note_on_c, 6, 59, 100
9, 163984, Note_off_c, 6, 59, 64
9, 163992, Note_on_c, 6, 57, 100
9, 164076, Note_off_c, 6, 57, 64
9, 164092, Note_on_c, 6, 55, 100
9, 164176, Note_off_c, 6, 55, 64
9, 164176, Note_on_c, 6, 54, 100
9, 164260, Note_off_c, 6, 54, 64
9, 164276, Note_on_c, 6, 55, 100
9, 164360, Note_off_c, 6, 55, 64
9, 164380, Note_on_c, 6, 54, 100
9, 164464, Note_off_c, 6, 54, 64
9, 164480, Note_on_c, 6, 52, 100
9, 164560, Note_off_c, 6, 52, 64
9, 164572, Note_on_c, 6, 50, 100
9, 164932, Note_off_c, 6, 50, 64
9, 165344, Note_on_c, 6, 50, 100
9, 165704, Note_off_c, 6, 50, 64
9, 166104, Note_on_c, 6, 43, 100
9, 166464, Note_off_c, 6, 43, 64
9, 166868, Note_on_c, 6, 43, 100
9, 167232, Note_off_c, 6, 43, 64
9, 167636, Note_on_c, 6, 44, 100
9, 168000, Note_off_c, 6, 44, 64
9, 168412, Note_on_c, 6, 44, 100
9, 168772, Note_off_c, 6, 44, 64
9, 169184, Note_on_c, 6, 45, 100
9, 169544, Note_off_c, 6, 45, 64
9, 169952, Note_on_c, 6, 45, 100
9, 170312, Note_off_c, 6, 45, 64
9, 170704, Note_on_c, 6, 42, 100
9, 171068, Note_off_c, 6, 42, 64
9, 171472, Note_on_c, 6, 42, 100
9, 171836, Note_off_c, 6, 42, 64
9, 172248, Note_on_c, 6, 41, 100
9, 172608, Note_off_c, 6, 41, 64
9, 173008, Note_on_c, 6, 41, 100
9, 173372, Note_off_c, 6, 41, 64
9, 173792, Note_on_c, 6, 37, 100
9, 173872, Note_off_c, 6, 37, 64
9, 173876, Note_on_c, 6, 38, 100
9, 173960, Note_off_c, 6, 38, 64
9, 173980, Note_on_c, 6, 37, 100
9, 174064, Note_off_c, 6, 37, 64
9, 174080, Note_on_c, 6, 58, 100
9, 174160, Note_off_c, 6, 58, 64
9, 174164, Note_on_c, 6, 55, 100
9, 174248, Note_off_c, 6, 55, 64
9, 174272, Note_on_c, 6, 52, 100
9, 174352, Note_off_c, 6, 52, 64
9, 174352, Note_on_c, 6, 49, 100
9, 174436, Note_off_c, 6, 49, 64
9, 174464, Note_on_c, 6, 43, 100
9, 174544, Note_off_c, 6, 43, 64
9, 174560, Note_on_c, 6, 37, 100
9, 174640, Note_off_c, 6, 37, 64
9, 174644, Note_on_c, 6, 38, 100
9, 174728, Note_off_c, 6, 38, 64
9, 174752, Note_on_c, 6, 37, 100
9, 174832, Note_off_c, 6, 37, 64
9, 174840, Note_on_c, 6, 58, 100
9, 174924, Note_off_c, 6, 58, 64
9, 174928, Note_on_c, 6, 55, 100
9, 175012, Note_off_c, 6, 55, 64
9, 175036, Note_on_c, 6, 52, 100
9, 175120, Note_off_c, 6, 52, 64
9, 175124, Note_on_c, 6, 49, 100
9, 175208, Note_off_c, 6, 49, 64
9, 175216, Note_on_c, 6, 43, 100
9, 175300, Note_off_c, 6, 43, 64
9, 175324, Note_on_c, 6, 38, 100
9, 175408, Note_off_c, 6, 38, 64
9, 175416, Note_on_c, 6, 39, 100
9, 175500, Note_off_c, 6, 39, 64
9, 175512, Note_on_c, 6, 38, 100
9, 175596, Note_off_c, 6, 38, 64
9, 175604, Note_on_c, 6, 58, 100
9, 175688, Note_off_c, 6, 58, 64
9, 175696, Note_on_c, 6, 55, 100
9, 175780, Note_off_c, 6, 55, 64
9, 175792, Note_on_c, 6, 50, 100
9, 175876, Note_off_c, 6, 50, 64
9, 175904, Note_on_c, 6, 46, 100
9, 175984, Note_off_c, 6, 46, 64
9, 175984, Note_on_c, 6, 43, 100
9, 176068, Note_off_c, 6, 43, 64
9, 176080, Note_on_c, 6, 38, 100
9, 176164, Note_off_c, 6, 38, 64
9, 176176, Note_on_c, 6, 39, 100
9, 176260, Note_off_c, 6, 39, 64
9, 176284, Note_on_c, 6, 38, 100
9, 176368, Note_off_c, 6, 38, 64
9, 176376, Note_on_c, 6, 58, 100
9, 176460, Note_off_c, 6, 58, 64
9, 176476, Note_on_c, 6, 55, 100
9, 176560, Note_off_c, 6, 55, 64
9, 176572, Note_on_c, 6, 50, 100
9, 176656, Note_off_c, 6, 50, 64
9, 176664, Note_on_c, 6, 46, 100
9, 176748, Note_off_c, 6, 46, 64
9, 176752, Note_on_c, 6, 43, 100
9, 176836, Note_off_c, 6, 43, 64
9, 176856, Note_on_c, 6, 38, 100
9, 176940, Note_off_c, 6, 38, 64
9, 176944, Note_on_c, 6, 39, 100
9, 177028, Note_off_c, 6, 39, 64
9, 177056, Note_on_c, 6, 38, 100
9, 177136, Note_off_c, 6, 38, 64
9, 177140, Note_on_c, 6, 61, 100
9, 177224, Note_off_c, 6, 61, 64
9, 177232, Note_on_c, 6, 58, 100
9, 177316, Note_off_c, 6, 58, 64
9, 177340, Note_on_c, 6, 55, 100
9, 177424, Note_off_c, 6, 55, 64
9, 177424, Note_on_c, 6, 52, 100
9, 177508, Note_off_c, 6, 52, 64
9, 177532, Note_on_c, 6, 49, 100
9, 177616, Note_off_c, 6, 49, 64
9, 177620, Note_on_c, 6, 38, 100
9, 177704, Note_off_c, 6, 38, 64
9, 177712, Note_on_c, 6, 39, 100
9, 177796, Note_off_c, 6, 39, 64
9, 177824, Note_on_c, 6, 38, 100
9, 177904, Note_off_c, 6, 38, 64
9, 177920, Note_on_c, 6, 61, 100
9, 178000, Note_off_c, 6, 61, 64
9, 178008, Note_on_c, 6, 58, 100
9, 178092, Note_off_c, 6, 58, 64
9, 178108, Note_on_c, 6, 55, 100
9, 178192, Note_off_c, 6, 55, 64
9, 178204, Note_on_c, 6, 52, 100
9, 178288, Note_off_c, 6, 52, 64
9, 178304, Note_on_c, 6, 49, 100
9, 178384, Note_off_c, 6, 49, 64
9, 178392, Note_on_c, 6, 38, 100
9, 178476, Note_off_c, 6, 38, 64
9, 178484, Note_on_c, 6, 39, 100
9, 178568, Note_off_c, 6, 39, 64
9, 178592, Note_on_c, 6, 38, 100
9, 178672, Note_off_c, 6, 38, 64
9, 178680, Note_on_c, 6, 62, 100
9, 178764, Note_off_c, 6, 62, 64
9, 178768, Note_on_c, 6, 58, 100
9, 178852, Note_off_c, 6, 58, 64
9, 178872, Note_on_c, 6, 55, 100
9, 178956, Note_off_c, 6, 55, 64
9, 178972, Note_on_c, 6, 50, 100
9, 179056, Note_off_c, 6, 50, 64
9, 179072, Note_on_c, 6, 46, 100
9, 179152, Note_off_c, 6, 46, 64
9, 179168, Note_on_c, 6, 38, 100
9, 179248, Note_off_c, 6, 38, 64
9, 179260, Note_on_c, 6, 39, 100
9, 179344, Note_off_c, 6, 39, 64
9, 179352, Note_on_c, 6, 38, 100
9, 179436, Note_off_c, 6, 38, 64
9, 179452, Note_on_c, 6, 62, 100
9, 179536, Note_off_c, 6, 62, 64
9, 179544, Note_on_c, 6, 58, 100
9, 179628, Note_off_c, 6, 58, 64
9, 179640, Note_on_c, 6, 55, 100
9, 179724, Note_off_c, 6, 55, 64
9, 179744, Note_on_c, 6, 50, 100
9, 179824, Note_off_c, 6, 50, 64
9, 179824, Note_on_c, 6, 46, 100
9, 179908, Note_off_c, 6, 46, 64
9, 179924, Note_on_c, 6, 38, 100
9, 180008, Note_off_c, 6, 38, 64
9, 180024, Note_on_c, 6, 39, 100
9, 180108, Note_off_c, 6, 39, 64
9, 180124, Note_on_c, 6, 38, 100
9, 180208, Note_off_c, 6, 38, 64
9, 180212, Note_on_c, 6, 63, 100
9, 180296, Note_off_c, 6, 63, 64
9, 180316, Note_on_c, 6, 60, 100
9, 180400, Note_off_c, 6, 60, 64
9, 180412, Note_on_c, 6, 57, 100
9, 180496, Note_off_c, 6, 57, 64
9, 180508, Note_on_c, 6, 54, 100
9, 180592, Note_off_c, 6, 54, 64
9, 180600, Note_on_c, 6, 50, 100
9, 180684, Note_off_c, 6, 50, 64
9, 180700, Note_on_c, 6, 38, 100
9, 180784, Note_off_c, 6, 38, 64
9, 180800, Note_on_c, 6, 39, 100
9, 180880, Note_off_c, 6, 39, 64
9, 180888, Note_on_c, 6, 38, 100
9, 180972, Note_off_c, 6, 38, 64
9, 180992, Note_on_c, 6, 63, 100
9, 181072, Note_off_c, 6, 63, 64
9, 181076, Note_on_c, 6, 60, 100
9, 181160, Note_off_c, 6, 60, 64
9, 181168, Note_on_c, 6, 57, 100
9, 181252, Note_off_c, 6, 57, 64
9, 181280, Note_on_c, 6, 54, 100
9, 181360, Note_off_c, 6, 54, 64
9, 181372, Note_on_c, 6, 50, 100
9, 181456, Note_off_c, 6, 50, 64
9, 181464, Note_on_c, 6, 43, 100
9, 181640, Note_off_c, 6, 43, 64
9, 182800, Note_on_c, 6, 55, 100
9, 182976, Note_off_c, 6, 55, 64
9, 182992, Note_on_c, 6, 41, 100
9, 183168, Note_off_c, 6, 41, 64
9, 184336, Note_on_c, 6, 53, 100
9, 184512, Note_off_c, 6, 53, 64
9, 184532, Note_on_c, 6, 39, 100
9, 184708, Note_off_c, 6, 39, 64
9, 185872, Note_on_c, 6, 51, 100
9, 186048, Note_off_c, 6, 51, 64
9, 186080, Note_on_c, 6, 38, 100
9, 186440, Note_off_c, 6, 38, 64
9, 186648, Note_on_c, 6, 50, 100
9, 186824, Note_off_c, 6, 50, 64
9, 186832, Note_on_c, 6, 38, 100
9, 187196, Note_off_c, 6, 38, 64
9, 187412, Note_on_c, 6, 50, 100
9, 187588, Note_off_c, 6, 50, 64
9, 187608, Note_on_c, 6, 36, 100
9, 187968, Note_off_c, 6, 36, 64
9, 188180, Note_on_c, 6, 48, 100
9, 188356, Note_off_c, 6, 48, 64
9, 188384, Note_on_c, 6, 46, 100
9, 188464, Note_off_c, 6, 46, 64
9, 188476, Note_on_c, 6, 50, 100
9, 188560, Note_off_c, 6, 50, 64
9, 188564, Note_on_c, 6, 43, 100
9, 188648, Note_off_c, 6, 43, 64
9, 188664, Note_on_c, 6, 45, 100
9, 188748, Note_off_c, 6, 45, 64
9, 188760, Note_on_c, 6, 46, 100
9, 188844, Note_off_c, 6, 46, 64
9, 188848, Note_on_c, 6, 48, 100
9, 188932, Note_off_c, 6, 48, 64
9, 188948, Note_on_c, 6, 50, 100
9, 189032, Note_off_c, 6, 50, 64
9, 189040, Note_on_c, 6, 52, 100
9, 189124, Note_off_c, 6, 52, 64
9, 189152, Note_on_c, 6, 54, 100
9, 189232, Note_off_c, 6, 54, 64
9, 189240, Note_on_c, 6, 57, 100
9, 189324, Note_off_c, 6, 57, 64
9, 189340, Note_on_c, 6, 50, 100
9, 189424, Note_off_c, 6, 50, 64
9, 189436, Note_on_c, 6, 52, 100
9, 189520, Note_off_c, 6, 52, 64
9, 189520, Note_on_c, 6, 54, 100
9, 189604, Note_off_c, 6, 54, 64
9, 189628, Note_on_c, 6, 55, 100
9, 189712, Note_off_c, 6, 55, 64
9, 189720, Note_on_c, 6, 57, 100
9, 189804, Note_off_c, 6, 57, 64
9, 189820, Note_on_c, 6, 58, 100
9, 189904, Note_off_c, 6, 58, 64
9, 189912, Note_on_c, 6, 60, 100
9, 189996, Note_off_c, 6, 60, 64
9, 190000, Note_on_c, 6, 57, 100
9, 190084, Note_off_c, 6, 57, 64
9, 190104, Note_on_c, 6, 54, 100
9, 190188, Note_off_c, 6, 54, 64
9, 190192, Note_on_c, 6, 55, 100
9, 190276, Note_off_c, 6, 55, 64
9, 190300, Note_on_c, 6, 57, 100
9, 190384, Note_off_c, 6, 57, 64
9, 190392, Note_on_c, 6, 58, 100
9, 190476, Note_off_c, 6, 58, 64
9, 190488, Note_on_c, 6, 60, 100
9, 190572, Note_off_c, 6, 60, 64
9, 190580, Note_on_c, 6, 62, 100
9, 190664, Note_off_c, 6, 62, 64
9, 190676, Note_on_c, 6, 63, 100
9, 190944, Note_off_c, 6, 63, 64
9, 190960, Note_on_c, 6, 62, 100
9, 191044, Note_off_c, 6, 62, 64
9, 191060, Note_on_c, 6, 60, 100
9, 191144, Note_off_c, 6, 60, 64
9, 191168, Note_on_c, 6, 58, 100
9, 191248, Note_off_c, 6, 58, 64
9, 191248, Note_on_c, 6, 57, 100
9, 191332, Note_off_c, 6, 57, 64
9, 191360, Note_on_c, 6, 55, 100
9, 191440, Note_off_c, 6, 55, 64
9, 191452, Note_on_c, 6, 54, 100
9, 191628, Note_off_c, 6, 54, 64
9, 191640, Note_on_c, 6, 55, 100
9, 191816, Note_off_c, 6, 55, 64
9, 191836, Note_on_c, 6, 62, 100
9, 192012, Note_off_c, 6, 62, 64
9, 192024, Note_on_c, 6, 50, 100
9, 192200, Note_off_c, 6, 50, 64
9, 192212, Note_on_c, 6, 43, 100
9, 192388, Note_off_c, 6, 43, 64
9, 192408, Note_on_c, 6, 55, 100
9, 192584, Note_off_c, 6, 55, 64
9, 192596, Note_on_c, 6, 55, 100
9, 192772, Note_off_c, 6, 55, 64
9, 192792, Note_on_c, 6, 43, 100
9, 192968, Note_off_c, 6, 43, 64
9, 192980, Note_on_c, 6, 43, 100
9, 193156, Note_off_c, 6, 43, 64
9, 193176, Note_on_c, 6, 55, 100
9, 193352, Note_off_c, 6, 55, 64
9, 193368, Note_on_c, 6, 55, 100
9, 193552, Note_off_c, 6, 55, 64
9, 193568, Note_on_c, 6, 43, 100
9, 193744, Note_off_c, 6, 43, 64
9, 193748, Note_on_c, 6, 43, 100
9, 193924, Note_off_c, 6, 43, 64
9, 193948, Note_on_c, 6, 55, 100
9, 194032, Note_off_c, 6, 55, 64
9, 194032, Note_on_c, 6, 54, 100
9, 194116, Note_off_c, 6, 54, 64
9, 194136, Note_on_c, 6, 52, 100
9, 194312, Note_off_c, 6, 52, 64
9, 194320, Note_on_c, 6, 57, 100
9, 194496, Note_off_c, 6, 57, 64
9, 194520, Note_on_c, 6, 50, 100
9, 194696, Note_off_c, 6, 50, 64
9, 194712, Note_on_c, 6, 62, 100
9, 194796, Note_off_c, 6, 62, 64
9, 194800, Note_on_c, 6, 61, 100
9, 194884, Note_off_c, 6, 61, 64
9, 194904, Note_on_c, 6, 62, 100
9, 195080, Note_off_c, 6, 62, 64
9, 195092, Note_on_c, 6, 50, 100
9, 195268, Note_off_c, 6, 50, 64
9, 195280, Note_on_c, 6, 50, 100
9, 195456, Note_off_c, 6, 50, 64
9, 195484, Note_on_c, 6, 62, 100
9, 195568, Note_off_c, 6, 62, 64
9, 195576, Note_on_c, 6, 61, 100
9, 195660, Note_off_c, 6, 61, 64
9, 195676, Note_on_c, 6, 62, 100
9, 195852, Note_off_c, 6, 62, 64
9, 195868, Note_on_c, 6, 50, 100
9, 196044, Note_off_c, 6, 50, 64
9, 196060, Note_on_c, 6, 50, 100
9, 196236, Note_off_c, 6, 50, 64
9, 196244, Note_on_c, 6, 62, 100
9, 196328, Note_off_c, 6, 62, 64
9, 196352, Note_on_c, 6, 61, 100
9, 196432, Note_off_c, 6, 61, 64
9, 196440, Note_on_c, 6, 62, 100
9, 196616, Note_off_c, 6, 62, 64
9, 196640, Note_on_c, 6, 54, 100
9, 196816, Note_off_c, 6, 54, 64
9, 196828, Note_on_c, 6, 55, 100
9, 197004, Note_off_c, 6, 55, 64
9, 197008, Note_on_c, 6, 52, 100
9, 197184, Note_off_c, 6, 52, 64
9, 197212, Note_on_c, 6, 48, 100
9, 197388, Note_off_c, 6, 48, 64
9, 197392, Note_on_c, 6, 50, 100
9, 197568, Note_off_c, 6, 50, 64
9, 197600, Note_on_c, 6, 52, 100
9, 197776, Note_off_c, 6, 52, 64
9, 197784, Note_on_c, 6, 50, 100
9, 197868, Note_off_c, 6, 50, 64
9, 197888, Note_on_c, 6, 48, 100
9, 197968, Note_off_c, 6, 48, 64
9, 197972, Note_on_c, 6, 47, 100
9, 198148, Note_off_c, 6, 47, 64
9, 198160, Note_on_c, 6, 45, 100
9, 198244, Note_off_c, 6, 45, 64
9, 198264, Note_on_c, 6, 43, 100
9, 198348, Note_off_c, 6, 43, 64
9, 198352, Note_on_c, 6, 48, 100
9, 198528, Note_off_c, 6, 48, 64
9, 198560, Note_on_c, 6, 47, 100
9, 198640, Note_off_c, 6, 47, 64
9, 198656, Note_on_c, 6, 45, 100
9, 198736, Note_off_c, 6, 45, 64
9, 198736, Note_on_c, 6, 43, 100
9, 198912, Note_off_c, 6, 43, 64
9, 198940, Note_on_c, 6, 55, 100
9, 199024, Note_off_c, 6, 55, 64
9, 199036, Note_on_c, 6, 54, 100
9, 199120, Note_off_c, 6, 54, 64
9, 199132, Note_on_c, 6, 52, 100
9, 199308, Note_off_c, 6, 52, 64
9, 199316, Note_on_c, 6, 50, 100
9, 199400, Note_off_c, 6, 50, 64
9, 199424, Note_on_c, 6, 48, 100
9, 199504, Note_off_c, 6, 48, 64
9, 199516, Note_on_c, 6, 47, 100
9, 199692, Note_off_c, 6, 47, 64
9, 199704, Note_on_c, 6, 49, 100
9, 199880, Note_off_c, 6, 49, 64
9, 199904, Note_on_c, 6, 50, 100
9, 200080, Note_off_c, 6, 50, 64
9, 200096, Note_on_c, 6, 38, 100
9, 200272, Note_off_c, 6, 38, 64
9, 200288, Note_on_c, 6, 38, 100
9, 200464, Note_off_c, 6, 38, 64
9, 200480, Note_on_c, 6, 50, 100
9, 200560, Note_off_c, 6, 50, 64
9, 200564, Note_on_c, 6, 52, 100
9, 200648, Note_off_c, 6, 52, 64
9, 200656, Note_on_c, 6, 54, 100
9, 200832, Note_off_c, 6, 54, 64
9, 200852, Note_on_c, 6, 55, 100
9, 201028, Note_off_c, 6, 55, 64
9, 201040, Note_on_c, 6, 57, 100
9, 201216, Note_off_c, 6, 57, 64
9, 201248, Note_on_c, 6, 54, 100
9, 201424, Note_off_c, 6, 54, 64
9, 201436, Note_on_c, 6, 55, 100
9, 201612, Note_off_c, 6, 55, 64
9, 201624, Note_on_c, 6, 60, 100
9, 201800, Note_off_c, 6, 60, 64
9, 201824, Note_on_c, 6, 62, 100
9, 202000, Note_off_c, 6, 62, 64
9, 202008, Note_on_c, 6, 50, 100
9, 202184, Note_off_c, 6, 50, 64
9, 202200, Note_on_c, 6, 55, 100
9, 202376, Note_off_c, 6, 55, 64
9, 202392, Note_on_c, 6, 55, 100
9, 202476, Note_off_c, 6, 55, 64
9, 202484, Note_on_c, 6, 54, 100
9, 202568, Note_off_c, 6, 54, 64
9, 202580, Note_on_c, 6, 55, 100
9, 202756, Note_off_c, 6, 55, 64
9, 202784, Note_on_c, 6, 59, 100
9, 202864, Note_off_c, 6, 59, 64
9, 202880, Note_on_c, 6, 57, 100
9, 202960, Note_off_c, 6, 57, 64
9, 202964, Note_on_c, 6, 59, 100
9, 203140, Note_off_c, 6, 59, 64
9, 206624, Note_on_c, 6, 50, 100
9, 206800, Note_off_c, 6, 50, 64
9, 206804, Note_on_c, 6, 55, 100
9, 206980, Note_off_c, 6, 55, 64
9, 207000, Note_on_c, 6, 54, 100
9, 207084, Note_off_c, 6, 54, 64
9, 207088, Note_on_c, 6, 52, 100
9, 207172, Note_off_c, 6, 52, 64
9, 207192, Note_on_c, 6, 50, 100
9, 207276, Note_off_c, 6, 50, 64
9, 207284, Note_on_c, 6, 48, 100
9, 207368, Note_off_c, 6, 48, 64
9, 207384, Note_on_c, 6, 47, 100
9, 207468, Note_off_c, 6, 47, 64
9, 207480, Note_on_c, 6, 45, 100
9, 207564, Note_off_c, 6, 45, 64
9, 207580, Note_on_c, 6, 47, 100
9, 207756, Note_off_c, 6, 47, 64
9, 207776, Note_on_c, 6, 45, 100
9, 207856, Note_off_c, 6, 45, 64
9, 207860, Note_on_c, 6, 43, 100
9, 207944, Note_off_c, 6, 43, 64
9, 207956, Note_on_c, 6, 50, 100
9, 208132, Note_off_c, 6, 50, 64
9, 208144, Note_on_c, 6, 38, 100
9, 208320, Note_off_c, 6, 38, 64
9, 208348, Note_on_c, 6, 43, 100
9, 209084, Note_off_c, 6, 43, 64
9, 209084, End_track
10, 0, Start_track
10, 0, Title_t, "Cello 2"
10, 0, Control_c, 7, 0, 0
10, 0, Program_c, 7, 48
10, 0, Control_c, 7, 7, 127
10, 0, Control_c, 7, 10, 74
10, 0, Control_c, 7, 91, 0
10, 0, Control_c, 7, 93, 0
10, 0, Pitch_bend_c, 7, 8192
10, 4, Control_c, 7, 1, 0
10, 8, Control_c, 7, 64, 0
10, 32, Note_on_c, 7, 43, 100
10, 208, Note_off_c, 7, 43, 64
10, 216, Note_on_c, 7, 43, 100
10, 400, Note_off_c, 7, 43, 64
10, 400, Note_on_c, 7, 55, 100
10, 576, Note_off_c, 7, 55, 64
10, 592, Note_on_c, 7, 55, 100
10, 768, Note_off_c, 7, 55, 64
10, 788, Note_on_c, 7, 43, 100
10, 964, Note_off_c, 7, 43, 64
10, 992, Note_on_c, 7, 43, 100
10, 1168, Note_off_c, 7, 43, 64
10, 1184, Note_on_c, 7, 55, 100
10, 1360, Note_off_c, 7, 55, 64
10, 1364, Note_on_c, 7, 55, 100
10, 1540, Note_off_c, 7, 55, 64
10, 1568, Note_on_c, 7, 43, 100
10, 1744, Note_off_c, 7, 43, 64
10, 1760, Note_on_c, 7, 43, 100
10, 1936, Note_off_c, 7, 43, 64
10, 1940, Note_on_c, 7, 55, 100
10, 2024, Note_off_c, 7, 55, 64
10, 2048, Note_on_c, 7, 54, 100
10, 2128, Note_off_c, 7, 54, 64
10, 2136, Note_on_c, 7, 52, 100
10, 2312, Note_off_c, 7, 52, 64
10, 2320, Note_on_c, 7, 57, 100
10, 2496, Note_off_c, 7, 57, 64
10, 2512, Note_on_c, 7, 50, 100
10, 2688, Note_off_c, 7, 50, 64
10, 2708, Note_on_c, 7, 62, 100
10, 2792, Note_off_c, 7, 62, 64
10, 2804, Note_on_c, 7, 61, 100
10, 2888, Note_off_c, 7, 61, 64
10, 2904, Note_on_c, 7, 62, 100
10, 3080, Note_off_c, 7, 62, 64
10, 3096, Note_on_c, 7, 50, 100
10, 3272, Note_off_c, 7, 50, 64
10, 3288, Note_on_c, 7, 50, 100
10, 3464, Note_off_c, 7, 50, 64
10, 3476, Note_on_c, 7, 62, 100
10, 3560, Note_off_c, 7, 62, 64
10, 3584, Note_on_c, 7, 61, 100
10, 3664, Note_off_c, 7, 61, 64
10, 3664, Note_on_c, 7, 62, 100
10, 3840, Note_off_c, 7, 62, 64
10, 3872, Note_on_c, 7, 50, 100
10, 4048, Note_off_c, 7, 50, 64
10, 4052, Note_on_c, 7, 50, 100
10, 4228, Note_off_c, 7, 50, 64
10, 4256, Note_on_c, 7, 62, 100
10, 4336, Note_off_c, 7, 62, 64
10, 4344, Note_on_c, 7, 61, 100
10, 4428, Note_off_c, 7, 61, 64
10, 4432, Note_on_c, 7, 62, 100
10, 4608, Note_off_c, 7, 62, 64
10, 4636, Note_on_c, 7, 50, 100
10, 4812, Note_off_c, 7, 50, 64
10, 4820, Note_on_c, 7, 55, 100
10, 4996, Note_off_c, 7, 55, 64
10, 5016, Note_on_c, 7, 52, 100
10, 5192, Note_off_c, 7, 52, 64
10, 5200, Note_on_c, 7, 48, 100
10, 5376, Note_off_c, 7, 48, 64
10, 5396, Note_on_c, 7, 50, 100
10, 5572, Note_off_c, 7, 50, 64
10, 5600, Note_on_c, 7, 52, 100
10, 5776, Note_off_c, 7, 52, 64
10, 5776, Note_on_c, 7, 50, 100
10, 5860, Note_off_c, 7, 50, 64
10, 5880, Note_on_c, 7, 48, 100
10, 5964, Note_off_c, 7, 48, 64
10, 5984, Note_on_c, 7, 47, 100
10, 6160, Note_off_c, 7, 47, 64
10, 6168, Note_on_c, 7, 45, 100
10, 6252, Note_off_c, 7, 45, 64
10, 6268, Note_on_c, 7, 43, 100
10, 6352, Note_off_c, 7, 43, 64
10, 6368, Note_on_c, 7, 48, 100
10, 6544, Note_off_c, 7, 48, 64
10, 6560, Note_on_c, 7, 47, 100
10, 6640, Note_off_c, 7, 47, 64
10, 6644, Note_on_c, 7, 45, 100
10, 6728, Note_off_c, 7, 45, 64
10, 6748, Note_on_c, 7, 43, 100
10, 6924, Note_off_c, 7, 43, 64
10, 6944, Note_on_c, 7, 55, 100
10, 7024, Note_off_c, 7, 55, 64
10, 7040, Note_on_c, 7, 54, 100
10, 7120, Note_off_c, 7, 54, 64
10, 7132, Note_on_c, 7, 52, 100
10, 7308, Note_off_c, 7, 52, 64
10, 7316, Note_on_c, 7, 50, 100
10, 7400, Note_off_c, 7, 50, 64
10, 7416, Note_on_c, 7, 48, 100
10, 7500, Note_off_c, 7, 48, 64
10, 7504, Note_on_c, 7, 47, 100
10, 7680, Note_off_c, 7, 47, 64
10, 7696, Note_on_c, 7, 49, 100
10, 7872, Note_off_c, 7, 49, 64
10, 7900, Note_on_c, 7, 50, 100
10, 8076, Note_off_c, 7, 50, 64
10, 8084, Note_on_c, 7, 38, 100
10, 8260, Note_off_c, 7, 38, 64
10, 8288, Note_on_c, 7, 38, 100
10, 8464, Note_off_c, 7, 38, 64
10, 8476, Note_on_c, 7, 50, 100
10, 8560, Note_off_c, 7, 50, 64
10, 8568, Note_on_c, 7, 52, 100
10, 8652, Note_off_c, 7, 52, 64
10, 8664, Note_on_c, 7, 54, 100
10, 8840, Note_off_c, 7, 54, 64
10, 8852, Note_on_c, 7, 55, 100
10, 9028, Note_off_c, 7, 55, 64
10, 9052, Note_on_c, 7, 57, 100
10, 9228, Note_off_c, 7, 57, 64
10, 9248, Note_on_c, 7, 54, 100
10, 9424, Note_off_c, 7, 54, 64
10, 9424, Note_on_c, 7, 55, 100
10, 9600, Note_off_c, 7, 55, 64
10, 9620, Note_on_c, 7, 60, 100
10, 9796, Note_off_c, 7, 60, 64
10, 9816, Note_on_c, 7, 62, 100
10, 9992, Note_off_c, 7, 62, 64
10, 10000, Note_on_c, 7, 50, 100
10, 10176, Note_off_c, 7, 50, 64
10, 10204, Note_on_c, 7, 55, 100
10, 10380, Note_off_c, 7, 55, 64
10, 10396, Note_on_c, 7, 54, 100
10, 10480, Note_off_c, 7, 54, 64
10, 10488, Note_on_c, 7, 52, 100
10, 10572, Note_off_c, 7, 52, 64
10, 10584, Note_on_c, 7, 50, 100
10, 10668, Note_off_c, 7, 50, 64
10, 10688, Note_on_c, 7, 48, 100
10, 10768, Note_off_c, 7, 48, 64
10, 10772, Note_on_c, 7, 47, 100
10, 10856, Note_off_c, 7, 47, 64
10, 10872, Note_on_c, 7, 45, 100
10, 10956, Note_off_c, 7, 45, 64
10, 10972, Note_on_c, 7, 47, 100
10, 11148, Note_off_c, 7, 47, 64
10, 11152, Note_on_c, 7, 45, 100
10, 11236, Note_off_c, 7, 45, 64
10, 11256, Note_on_c, 7, 43, 100
10, 11340, Note_off_c, 7, 43, 64
10, 11348, Note_on_c, 7, 50, 100
10, 11524, Note_off_c, 7, 50, 64
10, 11540, Note_on_c, 7, 38, 100
10, 11716, Note_off_c, 7, 38, 64
10, 11728, Note_on_c, 7, 43, 100
10, 12092, Note_off_c, 7, 43, 64
10, 12312, Note_on_c, 7, 50, 100
10, 12488, Note_off_c, 7, 50, 64
10, 12508, Note_on_c, 7, 43, 100
10, 12868, Note_off_c, 7, 43, 64
10, 13856, Note_on_c, 7, 59, 100
10, 13936, Note_off_c, 7, 59, 64
10, 13948, Note_on_c, 7, 57, 100
10, 14032, Note_off_c, 7, 57, 64
10, 14036, Note_on_c, 7, 55, 100
10, 14212, Note_off_c, 7, 55, 64
10, 14228, Note_on_c, 7, 50, 100
10, 14404, Note_off_c, 7, 50, 64
10, 14432, Note_on_c, 7, 47, 100
10, 14608, Note_off_c, 7, 47, 64
10, 14620, Note_on_c, 7, 49, 100
10, 14796, Note_off_c, 7, 49, 64
10, 14800, Note_on_c, 7, 50, 100
10, 15164, Note_off_c, 7, 50, 64
10, 15388, Note_on_c, 7, 57, 100
10, 15564, Note_off_c, 7, 57, 64
10, 15572, Note_on_c, 7, 62, 100
10, 15936, Note_off_c, 7, 62, 64
10, 16156, Note_on_c, 7, 57, 100
10, 16332, Note_off_c, 7, 57, 64
10, 16348, Note_on_c, 7, 50, 100
10, 16708, Note_off_c, 7, 50, 64
10, 16920, Note_on_c, 7, 45, 100
10, 17096, Note_off_c, 7, 45, 64
10, 17104, Note_on_c, 7, 38, 100
10, 17280, Note_off_c, 7, 38, 64
10, 17296, Note_on_c, 7, 47, 100
10, 17472, Note_off_c, 7, 47, 64
10, 17492, Note_on_c, 7, 43, 100
10, 17668, Note_off_c, 7, 43, 64
10, 17680, Note_on_c, 7, 45, 100
10, 17856, Note_off_c, 7, 45, 64
10, 17872, Note_on_c, 7, 47, 100
10, 18048, Note_off_c, 7, 47, 64
10, 18064, Note_on_c, 7, 45, 100
10, 18148, Note_off_c, 7, 45, 64
10, 18176, Note_on_c, 7, 43, 100
10, 18256, Note_off_c, 7, 43, 64
10, 18268, Note_on_c, 7, 42, 100
10, 18444, Note_off_c, 7, 42, 64
10, 18456, Note_on_c, 7, 40, 100
10, 18540, Note_off_c, 7, 40, 64
10, 18560, Note_on_c, 7, 38, 100
10, 18640, Note_off_c, 7, 38, 64
10, 18644, Note_on_c, 7, 43, 100
10, 18820, Note_off_c, 7, 43, 64
10, 18836, Note_on_c, 7, 42, 100
10, 18920, Note_off_c, 7, 42, 64
10, 18940, Note_on_c, 7, 40, 100
10, 19024, Note_off_c, 7, 40, 64
10, 19036, Note_on_c, 7, 38, 100
10, 19212, Note_off_c, 7, 38, 64
10, 19224, Note_on_c, 7, 62, 100
10, 19308, Note_off_c, 7, 62, 64
10, 19312, Note_on_c, 7, 61, 100
10, 19396, Note_off_c, 7, 61, 64
10, 19420, Note_on_c, 7, 59, 100
10, 19596, Note_off_c, 7, 59, 64
10, 19608, Note_on_c, 7, 57, 100
10, 19692, Note_off_c, 7, 57, 64
10, 19696, Note_on_c, 7, 55, 100
10, 19780, Note_off_c, 7, 55, 64
10, 19792, Note_on_c, 7, 54, 100
10, 19968, Note_off_c, 7, 54, 64
10, 19996, Note_on_c, 7, 56, 100
10, 20172, Note_off_c, 7, 56, 64
10, 20192, Note_on_c, 7, 57, 100
10, 20368, Note_off_c, 7, 57, 64
10, 20368, Note_on_c, 7, 45, 100
10, 20544, Note_off_c, 7, 45, 64
10, 20572, Note_on_c, 7, 45, 100
10, 20748, Note_off_c, 7, 45, 64
10, 20756, Note_on_c, 7, 57, 100
10, 20840, Note_off_c, 7, 57, 64
10, 20864, Note_on_c, 7, 59, 100
10, 20944, Note_off_c, 7, 59, 64
10, 20948, Note_on_c, 7, 61, 100
10, 21124, Note_off_c, 7, 61, 64
10, 21152, Note_on_c, 7, 62, 100
10, 21328, Note_off_c, 7, 62, 64
10, 21340, Note_on_c, 7, 64, 100
10, 21516, Note_off_c, 7, 64, 64
10, 21532, Note_on_c, 7, 61, 100
10, 21708, Note_off_c, 7, 61, 64
10, 21716, Note_on_c, 7, 62, 100
10, 21892, Note_off_c, 7, 62, 64
10, 21920, Note_on_c, 7, 55, 100
10, 22096, Note_off_c, 7, 55, 64
10, 22112, Note_on_c, 7, 57, 100
10, 22288, Note_off_c, 7, 57, 64
10, 22304, Note_on_c, 7, 45, 100
10, 22480, Note_off_c, 7, 45, 64
10, 22496, Note_on_c, 7, 50, 100
10, 22672, Note_off_c, 7, 50, 64
10, 22684, Note_on_c, 7, 62, 100
10, 22768, Note_off_c, 7, 62, 64
10, 22776, Note_on_c, 7, 60, 100
10, 22860, Note_off_c, 7, 60, 64
10, 22864, Note_on_c, 7, 59, 100
10, 22948, Note_off_c, 7, 59, 64
10, 22968, Note_on_c, 7, 60, 100
10, 23052, Note_off_c, 7, 60, 64
10, 23064, Note_on_c, 7, 59, 100
10, 23148, Note_off_c, 7, 59, 64
10, 23156, Note_on_c, 7, 57, 100
10, 23240, Note_off_c, 7, 57, 64
10, 23260, Note_on_c, 7, 55, 100
10, 23620, Note_off_c, 7, 55, 64
10, 24592, Note_on_c, 7, 62, 100
10, 24676, Note_off_c, 7, 62, 64
10, 24692, Note_on_c, 7, 60, 100
10, 24776, Note_off_c, 7, 60, 64
10, 24796, Note_on_c, 7, 59, 100
10, 24880, Note_off_c, 7, 59, 64
10, 24880, Note_on_c, 7, 60, 100
10, 24964, Note_off_c, 7, 60, 64
10, 24984, Note_on_c, 7, 59, 100
10, 25068, Note_off_c, 7, 59, 64
10, 25076, Note_on_c, 7, 57, 100
10, 25160, Note_off_c, 7, 57, 64
10, 25168, Note_on_c, 7, 55, 100
10, 25344, Note_off_c, 7, 55, 64
10, 25376, Note_on_c, 7, 49, 100
10, 25552, Note_off_c, 7, 49, 64
10, 25568, Note_on_c, 7, 50, 100
10, 25928, Note_off_c, 7, 50, 64
10, 26140, Note_on_c, 7, 57, 100
10, 26316, Note_off_c, 7, 57, 64
10, 26328, Note_on_c, 7, 62, 100
10, 26688, Note_off_c, 7, 62, 64
10, 26908, Note_on_c, 7, 57, 100
10, 27084, Note_off_c, 7, 57, 64
10, 27104, Note_on_c, 7, 50, 100
10, 27464, Note_off_c, 7, 50, 64
10, 27672, Note_on_c, 7, 45, 100
10, 27848, Note_off_c, 7, 45, 64
10, 27864, Note_on_c, 7, 38, 100
10, 28040, Note_off_c, 7, 38, 64
10, 28052, Note_on_c, 7, 50, 100
10, 28228, Note_off_c, 7, 50, 64
10, 28252, Note_on_c, 7, 50, 100
10, 28428, Note_off_c, 7, 50, 64
10, 28432, Note_on_c, 7, 38, 100
10, 28608, Note_off_c, 7, 38, 64
10, 28628, Note_on_c, 7, 38, 100
10, 28804, Note_off_c, 7, 38, 64
10, 28820, Note_on_c, 7, 50, 100
10, 28996, Note_off_c, 7, 50, 64
10, 29008, Note_on_c, 7, 50, 100
10, 29184, Note_off_c, 7, 50, 64
10, 29204, Note_on_c, 7, 38, 100
10, 29380, Note_off_c, 7, 38, 64
10, 29408, Note_on_c, 7, 38, 100
10, 29584, Note_off_c, 7, 38, 64
10, 29584, Note_on_c, 7, 50, 100
10, 29668, Note_off_c, 7, 50, 64
10, 29692, Note_on_c, 7, 49, 100
10, 29776, Note_off_c, 7, 49, 64
10, 29792, Note_on_c, 7, 47, 100
10, 29968, Note_off_c, 7, 47, 64
10, 29972, Note_on_c, 7, 52, 100
10, 30148, Note_off_c, 7, 52, 64
10, 30160, Note_on_c, 7, 45, 100
10, 30524, Note_off_c, 7, 45, 64
10, 30748, Note_on_c, 7, 45, 100
10, 30924, Note_off_c, 7, 45, 64
10, 30936, Note_on_c, 7, 52, 100
10, 31296, Note_off_c, 7, 52, 64
10, 31504, Note_on_c, 7, 52, 100
10, 31680, Note_off_c, 7, 52, 64
10, 31704, Note_on_c, 7, 47, 100
10, 32064, Note_off_c, 7, 47, 64
10, 32276, Note_on_c, 7, 47, 100
10, 32452, Note_off_c, 7, 47, 64
10, 32464, Note_on_c, 7, 54, 100
10, 32640, Note_off_c, 7, 54, 64
10, 32668, Note_on_c, 7, 59, 100
10, 32752, Note_off_c, 7, 59, 64
10, 32756, Note_on_c, 7, 57, 100
10, 32840, Note_off_c, 7, 57, 64
10, 32848, Note_on_c, 7, 59, 100
10, 33024, Note_off_c, 7, 59, 64
10, 33044, Note_on_c, 7, 52, 100
10, 33128, Note_off_c, 7, 52, 64
10, 33136, Note_on_c, 7, 50, 100
10, 33220, Note_off_c, 7, 50, 64
10, 33236, Note_on_c, 7, 52, 100
10, 33412, Note_off_c, 7, 52, 64
10, 33432, Note_on_c, 7, 57, 100
10, 33516, Note_off_c, 7, 57, 64
10, 33524, Note_on_c, 7, 55, 100
10, 33608, Note_off_c, 7, 55, 64
10, 33624, Note_on_c, 7, 57, 100
10, 33800, Note_off_c, 7, 57, 64
10, 33812, Note_on_c, 7, 50, 100
10, 33896, Note_off_c, 7, 50, 64
10, 33904, Note_on_c, 7, 49, 100
10, 33988, Note_off_c, 7, 49, 64
10, 34012, Note_on_c, 7, 50, 100
10, 34188, Note_off_c, 7, 50, 64
10, 34204, Note_on_c, 7, 55, 100
10, 34380, Note_off_c, 7, 55, 64
10, 34388, Note_on_c, 7, 57, 100
10, 34564, Note_off_c, 7, 57, 64
10, 34592, Note_on_c, 7, 45, 100
10, 34768, Note_off_c, 7, 45, 64
10, 34768, Note_on_c, 7, 50, 100
10, 34944, Note_off_c, 7, 50, 64
10, 34968, Note_on_c, 7, 62, 100
10, 35052, Note_off_c, 7, 62, 64
10, 35060, Note_on_c, 7, 61, 100
10, 35144, Note_off_c, 7, 61, 64
10, 35168, Note_on_c, 7, 62, 100
10, 35344, Note_off_c, 7, 62, 64
10, 35736, Note_on_c, 7, 62, 100
10, 35820, Note_off_c, 7, 62, 64
10, 35824, Note_on_c, 7, 61, 100
10, 35908, Note_off_c, 7, 61, 64
10, 35920, Note_on_c, 7, 62, 100
10, 36096, Note_off_c, 7, 62, 64
10, 36500, Note_on_c, 7, 50, 100
10, 36584, Note_off_c, 7, 50, 64
10, 36608, Note_on_c, 7, 49, 100
10, 36688, Note_off_c, 7, 49, 64
10, 36700, Note_on_c, 7, 50, 100
10, 36876, Note_off_c, 7, 50, 64
10, 37268, Note_on_c, 7, 50, 100
10, 37352, Note_off_c, 7, 50, 64
10, 37364, Note_on_c, 7, 49, 100
10, 37448, Note_off_c, 7, 49, 64
10, 37456, Note_on_c, 7, 50, 100
10, 37632, Note_off_c, 7, 50, 64
10, 38032, Note_on_c, 7, 62, 100
10, 38116, Note_off_c, 7, 62, 64
10, 38140, Note_on_c, 7, 61, 100
10, 38224, Note_off_c, 7, 61, 64
10, 38240, Note_on_c, 7, 62, 100
10, 38416, Note_off_c, 7, 62, 64
10, 38428, Note_on_c, 7, 50, 100
10, 38604, Note_off_c, 7, 50, 64
10, 38608, Note_on_c, 7, 43, 100
10, 38784, Note_off_c, 7, 43, 64
10, 38816, Note_on_c, 7, 55, 100
10, 38896, Note_off_c, 7, 55, 64
10, 38896, Note_on_c, 7, 54, 100
10, 38980, Note_off_c, 7, 54, 64
10, 39000, Note_on_c, 7, 55, 100
10, 39176, Note_off_c, 7, 55, 64
10, 39572, Note_on_c, 7, 55, 100
10, 39656, Note_off_c, 7, 55, 64
10, 39676, Note_on_c, 7, 54, 100
10, 39760, Note_off_c, 7, 54, 64
10, 39768, Note_on_c, 7, 55, 100
10, 39944, Note_off_c, 7, 55, 64
10, 40340, Note_on_c, 7, 43, 100
10, 40424, Note_off_c, 7, 43, 64
10, 40440, Note_on_c, 7, 42, 100
10, 40524, Note_off_c, 7, 42, 64
10, 40544, Note_on_c, 7, 43, 100
10, 40720, Note_off_c, 7, 43, 64
10, 41104, Note_on_c, 7, 43, 100
10, 41188, Note_off_c, 7, 43, 64
10, 41200, Note_on_c, 7, 42, 100
10, 41284, Note_off_c, 7, 42, 64
10, 41312, Note_on_c, 7, 43, 100
10, 41488, Note_off_c, 7, 43, 64
10, 41888, Note_on_c, 7, 55, 100
10, 41968, Note_off_c, 7, 55, 64
10, 41984, Note_on_c, 7, 53, 100
10, 42064, Note_off_c, 7, 53, 64
10, 42068, Note_on_c, 7, 55, 100
10, 42244, Note_off_c, 7, 55, 64
10, 42268, Note_on_c, 7, 43, 100
10, 42444, Note_off_c, 7, 43, 64
10, 42448, Note_on_c, 7, 48, 100
10, 42812, Note_off_c, 7, 48, 64
10, 42936, Note_on_c, 7, 47, 100
10, 43020, Note_off_c, 7, 47, 64
10, 43032, Note_on_c, 7, 48, 100
10, 43116, Note_off_c, 7, 48, 64
10, 43120, Note_on_c, 7, 50, 100
10, 43204, Note_off_c, 7, 50, 64
10, 43228, Note_on_c, 7, 52, 100
10, 43404, Note_off_c, 7, 52, 64
10, 43420, Note_on_c, 7, 57, 100
10, 43504, Note_off_c, 7, 57, 64
10, 43504, Note_on_c, 7, 55, 100
10, 43588, Note_off_c, 7, 55, 64
10, 43600, Note_on_c, 7, 57, 100
10, 43776, Note_off_c, 7, 57, 64
10, 43808, Note_on_c, 7, 50, 100
10, 43888, Note_off_c, 7, 50, 64
10, 43892, Note_on_c, 7, 48, 100
10, 43976, Note_off_c, 7, 48, 64
10, 43988, Note_on_c, 7, 50, 100
10, 44164, Note_off_c, 7, 50, 64
10, 44176, Note_on_c, 7, 55, 100
10, 44260, Note_off_c, 7, 55, 64
10, 44288, Note_on_c, 7, 53, 100
10, 44368, Note_off_c, 7, 53, 64
10, 44376, Note_on_c, 7, 55, 100
10, 44552, Note_off_c, 7, 55, 64
10, 44568, Note_on_c, 7, 48, 100
10, 44652, Note_off_c, 7, 48, 64
10, 44660, Note_on_c, 7, 47, 100
10, 44744, Note_off_c, 7, 47, 64
10, 44764, Note_on_c, 7, 48, 100
10, 44940, Note_off_c, 7, 48, 64
10, 44952, Note_on_c, 7, 53, 100
10, 45036, Note_off_c, 7, 53, 64
10, 45040, Note_on_c, 7, 52, 100
10, 45124, Note_off_c, 7, 52, 64
10, 45148, Note_on_c, 7, 53, 100
10, 45604, Note_off_c, 7, 53, 64
10, 45616, Note_on_c, 7, 55, 100
10, 45700, Note_off_c, 7, 55, 64
10, 45724, Note_on_c, 7, 53, 100
10, 45808, Note_off_c, 7, 53, 64
10, 45824, Note_on_c, 7, 52, 100
10, 45904, Note_off_c, 7, 52, 64
10, 45908, Note_on_c, 7, 50, 100
10, 45992, Note_off_c, 7, 50, 64
10, 46000, Note_on_c, 7, 48, 100
10, 46084, Note_off_c, 7, 48, 64
10, 46112, Note_on_c, 7, 47, 100
10, 46192, Note_off_c, 7, 47, 64
10, 46208, Note_on_c, 7, 45, 100
10, 46288, Note_off_c, 7, 45, 64
10, 46300, Note_on_c, 7, 43, 100
10, 46476, Note_off_c, 7, 43, 64
10, 46496, Note_on_c, 7, 48, 100
10, 46672, Note_off_c, 7, 48, 64
10, 46688, Note_on_c, 7, 55, 100
10, 46864, Note_off_c, 7, 55, 64
10, 46872, Note_on_c, 7, 43, 100
10, 47048, Note_off_c, 7, 43, 64
10, 47056, Note_on_c, 7, 48, 100
10, 47420, Note_off_c, 7, 48, 64
10, 47640, Note_on_c, 7, 60, 100
10, 47724, Note_off_c, 7, 60, 64
10, 47736, Note_on_c, 7, 59, 100
10, 47820, Note_off_c, 7, 59, 64
10, 47840, Note_on_c, 7, 60, 100
10, 48016, Note_off_c, 7, 60, 64
10, 48028, Note_on_c, 7, 55, 100
10, 48112, Note_off_c, 7, 55, 64
10, 48128, Note_on_c, 7, 53, 100
10, 48208, Note_off_c, 7, 53, 64
10, 48212, Note_on_c, 7, 55, 100
10, 48388, Note_off_c, 7, 55, 64
10, 48412, Note_on_c, 7, 60, 100
10, 48496, Note_off_c, 7, 60, 64
10, 48496, Note_on_c, 7, 59, 100
10, 48580, Note_off_c, 7, 59, 64
10, 48596, Note_on_c, 7, 60, 100
10, 48772, Note_off_c, 7, 60, 64
10, 48800, Note_on_c, 7, 52, 100
10, 48880, Note_off_c, 7, 52, 64
10, 48880, Note_on_c, 7, 50, 100
10, 48964, Note_off_c, 7, 50, 64
10, 48984, Note_on_c, 7, 52, 100
10, 49160, Note_off_c, 7, 52, 64
10, 49184, Note_on_c, 7, 60, 100
10, 49264, Note_off_c, 7, 60, 64
10, 49272, Note_on_c, 7, 59, 100
10, 49356, Note_off_c, 7, 59, 64
10, 49360, Note_on_c, 7, 60, 100
10, 49536, Note_off_c, 7, 60, 64
10, 49564, Note_on_c, 7, 48, 100
10, 49648, Note_off_c, 7, 48, 64
10, 49652, Note_on_c, 7, 50, 100
10, 49736, Note_off_c, 7, 50, 64
10, 49744, Note_on_c, 7, 52, 100
10, 49920, Note_off_c, 7, 52, 64
10, 49940, Note_on_c, 7, 54, 100
10, 50116, Note_off_c, 7, 54, 64
10, 50144, Note_on_c, 7, 55, 100
10, 50320, Note_off_c, 7, 55, 64
10, 50328, Note_on_c, 7, 43, 100
10, 50504, Note_off_c, 7, 43, 64
10, 50712, Note_on_c, 7, 55, 100
10, 50796, Note_off_c, 7, 55, 64
10, 50816, Note_on_c, 7, 54, 100
10, 50896, Note_off_c, 7, 54, 64
10, 50912, Note_on_c, 7, 55, 100
10, 51088, Note_off_c, 7, 55, 64
10, 51092, Note_on_c, 7, 50, 100
10, 51176, Note_off_c, 7, 50, 64
10, 51196, Note_on_c, 7, 48, 100
10, 51280, Note_off_c, 7, 48, 64
10, 51296, Note_on_c, 7, 50, 100
10, 51472, Note_off_c, 7, 50, 64
10, 51480, Note_on_c, 7, 55, 100
10, 51564, Note_off_c, 7, 55, 64
10, 51576, Note_on_c, 7, 54, 100
10, 51660, Note_off_c, 7, 54, 64
10, 51680, Note_on_c, 7, 55, 100
10, 51856, Note_off_c, 7, 55, 64
10, 51856, Note_on_c, 7, 47, 100
10, 51940, Note_off_c, 7, 47, 64
10, 51964, Note_on_c, 7, 45, 100
10, 52048, Note_off_c, 7, 45, 64
10, 52060, Note_on_c, 7, 47, 100
10, 52236, Note_off_c, 7, 47, 64
10, 52244, Note_on_c, 7, 55, 100
10, 52328, Note_off_c, 7, 55, 64
10, 52352, Note_on_c, 7, 54, 100
10, 52432, Note_off_c, 7, 54, 64
10, 52440, Note_on_c, 7, 55, 100
10, 52616, Note_off_c, 7, 55, 64
10, 52636, Note_on_c, 7, 43, 100
10, 52720, Note_off_c, 7, 43, 64
10, 52724, Note_on_c, 7, 45, 100
10, 52808, Note_off_c, 7, 45, 64
10, 52816, Note_on_c, 7, 47, 100
10, 52992, Note_off_c, 7, 47, 64
10, 53012, Note_on_c, 7, 49, 100
10, 53188, Note_off_c, 7, 49, 64
10, 53216, Note_on_c, 7, 50, 100
10, 53296, Note_off_c, 7, 50, 64
10, 53300, Note_on_c, 7, 49, 100
10, 53384, Note_off_c, 7, 49, 64
10, 53392, Note_on_c, 7, 50, 100
10, 53476, Note_off_c, 7, 50, 64
10, 53496, Note_on_c, 7, 52, 100
10, 53580, Note_off_c, 7, 52, 64
10, 53600, Note_on_c, 7, 50, 100
10, 53680, Note_off_c, 7, 50, 64
10, 53684, Note_on_c, 7, 54, 100
10, 53768, Note_off_c, 7, 54, 64
10, 53776, Note_on_c, 7, 50, 100
10, 53860, Note_off_c, 7, 50, 64
10, 53872, Note_on_c, 7, 55, 100
10, 53956, Note_off_c, 7, 55, 64
10, 53984, Note_on_c, 7, 50, 100
10, 54064, Note_off_c, 7, 50, 64
10, 54076, Note_on_c, 7, 49, 100
10, 54160, Note_off_c, 7, 49, 64
10, 54168, Note_on_c, 7, 50, 100
10, 54252, Note_off_c, 7, 50, 64
10, 54264, Note_on_c, 7, 52, 100
10, 54348, Note_off_c, 7, 52, 64
10, 54368, Note_on_c, 7, 50, 100
10, 54448, Note_off_c, 7, 50, 64
10, 54448, Note_on_c, 7, 57, 100
10, 54532, Note_off_c, 7, 57, 64
10, 54552, Note_on_c, 7, 50, 100
10, 54636, Note_off_c, 7, 50, 64
10, 54644, Note_on_c, 7, 59, 100
10, 54728, Note_off_c, 7, 59, 64
10, 54740, Note_on_c, 7, 50, 100
10, 54824, Note_off_c, 7, 50, 64
10, 54832, Note_on_c, 7, 49, 100
10, 54916, Note_off_c, 7, 49, 64
10, 54944, Note_on_c, 7, 50, 100
10, 55024, Note_off_c, 7, 50, 64
10, 55024, Note_on_c, 7, 52, 100
10, 55108, Note_off_c, 7, 52, 64
10, 55124, Note_on_c, 7, 50, 100
10, 55208, Note_off_c, 7, 50, 64
10, 55232, Note_on_c, 7, 60, 100
10, 55312, Note_off_c, 7, 60, 64
10, 55320, Note_on_c, 7, 50, 100
10, 55404, Note_off_c, 7, 50, 64
10, 55408, Note_on_c, 7, 62, 100
10, 55492, Note_off_c, 7, 62, 64
10, 55512, Note_on_c, 7, 59, 100
10, 55688, Note_off_c, 7, 59, 64
10, 55704, Note_on_c, 7, 57, 100
10, 55788, Note_off_c, 7, 57, 64
10, 55808, Note_on_c, 7, 55, 100
10, 55888, Note_off_c, 7, 55, 64
10, 55896, Note_on_c, 7, 57, 100
10, 56072, Note_off_c, 7, 57, 64
10, 56080, Note_on_c, 7, 55, 100
10, 56164, Note_off_c, 7, 55, 64
10, 56180, Note_on_c, 7, 54, 100
10, 56264, Note_off_c, 7, 54, 64
10, 56276, Note_on_c, 7, 55, 100
10, 56452, Note_off_c, 7, 55, 64
10, 56464, Note_on_c, 7, 59, 100
10, 56548, Note_off_c, 7, 59, 64
10, 56576, Note_on_c, 7, 57, 100
10, 56656, Note_off_c, 7, 57, 64
10, 56664, Note_on_c, 7, 59, 100
10, 56840, Note_off_c, 7, 59, 64
10, 56848, Note_on_c, 7, 62, 100
10, 56932, Note_off_c, 7, 62, 64
10, 56956, Note_on_c, 7, 60, 100
10, 57040, Note_off_c, 7, 60, 64
10, 57052, Note_on_c, 7, 62, 100
10, 57228, Note_off_c, 7, 62, 64
10, 58396, Note_on_c, 7, 55, 100
10, 58572, Note_off_c, 7, 55, 64
10, 58592, Note_on_c, 7, 55, 100
10, 58768, Note_off_c, 7, 55, 64
10, 58776, Note_on_c, 7, 43, 100
10, 58952, Note_off_c, 7, 43, 64
10, 58960, Note_on_c, 7, 43, 100
10, 59136, Note_off_c, 7, 43, 64
10, 59168, Note_on_c, 7, 55, 100
10, 59344, Note_off_c, 7, 55, 64
10, 59356, Note_on_c, 7, 55, 100
10, 59532, Note_off_c, 7, 55, 64
10, 59544, Note_on_c, 7, 43, 100
10, 59720, Note_off_c, 7, 43, 64
10, 59736, Note_on_c, 7, 43, 100
10, 59912, Note_off_c, 7, 43, 64
10, 59924, Note_on_c, 7, 55, 100
10, 60008, Note_off_c, 7, 55, 64
10, 60032, Note_on_c, 7, 54, 100
10, 60112, Note_off_c, 7, 54, 64
10, 60112, Note_on_c, 7, 55, 100
10, 60288, Note_off_c, 7, 55, 64
10, 60312, Note_on_c, 7, 43, 100
10, 60396, Note_off_c, 7, 43, 64
10, 60408, Note_on_c, 7, 45, 100
10, 60492, Note_off_c, 7, 45, 64
10, 60496, Note_on_c, 7, 47, 100
10, 60672, Note_off_c, 7, 47, 64
10, 60688, Note_on_c, 7, 49, 100
10, 60864, Note_off_c, 7, 49, 64
10, 60888, Note_on_c, 7, 50, 100
10, 61064, Note_off_c, 7, 50, 64
10, 61084, Note_on_c, 7, 38, 100
10, 61260, Note_off_c, 7, 38, 64
10, 61272, Note_on_c, 7, 38, 100
10, 61448, Note_off_c, 7, 38, 64
10, 61456, Note_on_c, 7, 62, 100
10, 61540, Note_off_c, 7, 62, 64
10, 61560, Note_on_c, 7, 61, 100
10, 61644, Note_off_c, 7, 61, 64
10, 61652, Note_on_c, 7, 62, 100
10, 61828, Note_off_c, 7, 62, 64
10, 61856, Note_on_c, 7, 50, 100
10, 62032, Note_off_c, 7, 50, 64
10, 62032, Note_on_c, 7, 38, 100
10, 62208, Note_off_c, 7, 38, 64
10, 62232, Note_on_c, 7, 50, 100
10, 62316, Note_off_c, 7, 50, 64
10, 62332, Note_on_c, 7, 49, 100
10, 62416, Note_off_c, 7, 49, 64
10, 62424, Note_on_c, 7, 50, 100
10, 62600, Note_off_c, 7, 50, 64
10, 62620, Note_on_c, 7, 38, 100
10, 62796, Note_off_c, 7, 38, 64
10, 62816, Note_on_c, 7, 38, 100
10, 62992, Note_off_c, 7, 38, 64
10, 63008, Note_on_c, 7, 54, 100
10, 63184, Note_off_c, 7, 54, 64
10, 63200, Note_on_c, 7, 55, 100
10, 63376, Note_off_c, 7, 55, 64
10, 63388, Note_on_c, 7, 52, 100
10, 63564, Note_off_c, 7, 52, 64
10, 63568, Note_on_c, 7, 48, 100
10, 63744, Note_off_c, 7, 48, 64
10, 63772, Note_on_c, 7, 50, 100
10, 63948, Note_off_c, 7, 50, 64
10, 63960, Note_on_c, 7, 52, 100
10, 64136, Note_off_c, 7, 52, 64
10, 64160, Note_on_c, 7, 50, 100
10, 64240, Note_off_c, 7, 50, 64
10, 64256, Note_on_c, 7, 48, 100
10, 64336, Note_off_c, 7, 48, 64
10, 64340, Note_on_c, 7, 47, 100
10, 64516, Note_off_c, 7, 47, 64
10, 64544, Note_on_c, 7, 45, 100
10, 64624, Note_off_c, 7, 45, 64
10, 64636, Note_on_c, 7, 43, 100
10, 64720, Note_off_c, 7, 43, 64
10, 64724, Note_on_c, 7, 48, 100
10, 64900, Note_off_c, 7, 48, 64
10, 64928, Note_on_c, 7, 47, 100
10, 65008, Note_off_c, 7, 47, 64
10, 65020, Note_on_c, 7, 45, 100
10, 65104, Note_off_c, 7, 45, 64
10, 65108, Note_on_c, 7, 43, 100
10, 65284, Note_off_c, 7, 43, 64
10, 65308, Note_on_c, 7, 55, 100
10, 65392, Note_off_c, 7, 55, 64
10, 65392, Note_on_c, 7, 54, 100
10, 65476, Note_off_c, 7, 54, 64
10, 65500, Note_on_c, 7, 52, 100
10, 65676, Note_off_c, 7, 52, 64
10, 65692, Note_on_c, 7, 50, 100
10, 65776, Note_off_c, 7, 50, 64
10, 65788, Note_on_c, 7, 48, 100
10, 65872, Note_off_c, 7, 48, 64
10, 65884, Note_on_c, 7, 47, 100
10, 66060, Note_off_c, 7, 47, 64
10, 66068, Note_on_c, 7, 49, 100
10, 66244, Note_off_c, 7, 49, 64
10, 66256, Note_on_c, 7, 50, 100
10, 66432, Note_off_c, 7, 50, 64
10, 66456, Note_on_c, 7, 38, 100
10, 66632, Note_off_c, 7, 38, 64
10, 66644, Note_on_c, 7, 38, 100
10, 66820, Note_off_c, 7, 38, 64
10, 66836, Note_on_c, 7, 50, 100
10, 66920, Note_off_c, 7, 50, 64
10, 66932, Note_on_c, 7, 52, 100
10, 67016, Note_off_c, 7, 52, 64
10, 67040, Note_on_c, 7, 54, 100
10, 67216, Note_off_c, 7, 54, 64
10, 67216, Note_on_c, 7, 55, 100
10, 67392, Note_off_c, 7, 55, 64
10, 67424, Note_on_c, 7, 57, 100
10, 67600, Note_off_c, 7, 57, 64
10, 67600, Note_on_c, 7, 50, 100
10, 67776, Note_off_c, 7, 50, 64
10, 67808, Note_on_c, 7, 55, 100
10, 67984, Note_off_c, 7, 55, 64
10, 67988, Note_on_c, 7, 48, 100
10, 68164, Note_off_c, 7, 48, 64
10, 68176, Note_on_c, 7, 50, 100
10, 68352, Note_off_c, 7, 50, 64
10, 68380, Note_on_c, 7, 38, 100
10, 68556, Note_off_c, 7, 38, 64
10, 68568, Note_on_c, 7, 40, 100
10, 68928, Note_off_c, 7, 40, 64
10, 69140, Note_on_c, 7, 42, 100
10, 69316, Note_off_c, 7, 42, 64
10, 69328, Note_on_c, 7, 43, 100
10, 69504, Note_off_c, 7, 43, 64
10, 69524, Note_on_c, 7, 36, 100
10, 69700, Note_off_c, 7, 36, 64
10, 69716, Note_on_c, 7, 38, 100
10, 69892, Note_off_c, 7, 38, 64
10, 69904, Note_on_c, 7, 50, 100
10, 70080, Note_off_c, 7, 50, 64
10, 70104, Note_on_c, 7, 55, 100
10, 70280, Note_off_c, 7, 55, 64
10, 70292, Note_on_c, 7, 54, 100
10, 70376, Note_off_c, 7, 54, 64
10, 70396, Note_on_c, 7, 52, 100
10, 70480, Note_off_c, 7, 52, 64
10, 70480, Note_on_c, 7, 50, 100
10, 70564, Note_off_c, 7, 50, 64
10, 70592, Note_on_c, 7, 48, 100
10, 70672, Note_off_c, 7, 48, 64
10, 70672, Note_on_c, 7, 47, 100
10, 70756, Note_off_c, 7, 47, 64
10, 70780, Note_on_c, 7, 45, 100
10, 70864, Note_off_c, 7, 45, 64
10, 70864, Note_on_c, 7, 43, 100
10, 71228, Note_off_c, 7, 43, 64
10, 71640, Note_on_c, 7, 43, 100
10, 72000, Note_off_c, 7, 43, 64
10, 72400, Note_on_c, 7, 43, 100
10, 72764, Note_off_c, 7, 43, 64
10, 73180, Note_on_c, 7, 43, 100
10, 73540, Note_off_c, 7, 43, 64
10, 73936, Note_on_c, 7, 43, 100
10, 74300, Note_off_c, 7, 43, 64
10, 74720, Note_on_c, 7, 43, 100
10, 75080, Note_off_c, 7, 43, 64
10, 75476, Note_on_c, 7, 55, 100
10, 75652, Note_off_c, 7, 55, 64
10, 75680, Note_on_c, 7, 54, 100
10, 75856, Note_off_c, 7, 54, 64
10, 75860, Note_on_c, 7, 52, 100
10, 76036, Note_off_c, 7, 52, 64
10, 76048, Note_on_c, 7, 57, 100
10, 76224, Note_off_c, 7, 57, 64
10, 76252, Note_on_c, 7, 50, 100
10, 76428, Note_off_c, 7, 50, 64
10, 76436, Note_on_c, 7, 49, 100
10, 76520, Note_off_c, 7, 49, 64
10, 76532, Note_on_c, 7, 47, 100
10, 76616, Note_off_c, 7, 47, 64
10, 76624, Note_on_c, 7, 45, 100
10, 76708, Note_off_c, 7, 45, 64
10, 76720, Note_on_c, 7, 43, 100
10, 76804, Note_off_c, 7, 43, 64
10, 76828, Note_on_c, 7, 42, 100
10, 76912, Note_off_c, 7, 42, 64
10, 76924, Note_on_c, 7, 40, 100
10, 77008, Note_off_c, 7, 40, 64
10, 77012, Note_on_c, 7, 39, 100
10, 77376, Note_off_c, 7, 39, 64
10, 77792, Note_on_c, 7, 42, 100
10, 78152, Note_off_c, 7, 42, 64
10, 78556, Note_on_c, 7, 45, 100
10, 78916, Note_off_c, 7, 45, 64
10, 79312, Note_on_c, 7, 57, 100
10, 79676, Note_off_c, 7, 57, 64
10, 80088, Note_on_c, 7, 51, 100
10, 80448, Note_off_c, 7, 51, 64
10, 80852, Note_on_c, 7, 47, 100
10, 81216, Note_off_c, 7, 47, 64
10, 81616, Note_on_c, 7, 52, 100
10, 81980, Note_off_c, 7, 52, 64
10, 82960, Note_on_c, 7, 55, 100
10, 83044, Note_off_c, 7, 55, 64
10, 83060, Note_on_c, 7, 54, 100
10, 83144, Note_off_c, 7, 54, 64
10, 83156, Note_on_c, 7, 52, 100
10, 83332, Note_off_c, 7, 52, 64
10, 83352, Note_on_c, 7, 40, 100
10, 83436, Note_off_c, 7, 40, 64
10, 83440, Note_on_c, 7, 42, 100
10, 83524, Note_off_c, 7, 42, 64
10, 83548, Note_on_c, 7, 43, 100
10, 83724, Note_off_c, 7, 43, 64
10, 83740, Note_on_c, 7, 45, 100
10, 83916, Note_off_c, 7, 45, 64
10, 83920, Note_on_c, 7, 47, 100
10, 84004, Note_off_c, 7, 47, 64
10, 84032, Note_on_c, 7, 46, 100
10, 84112, Note_off_c, 7, 46, 64
10, 84120, Note_on_c, 7, 47, 100
10, 84204, Note_off_c, 7, 47, 64
10, 84216, Note_on_c, 7, 49, 100
10, 84300, Note_off_c, 7, 49, 64
10, 84316, Note_on_c, 7, 47, 100
10, 84400, Note_off_c, 7, 47, 64
10, 84400, Note_on_c, 7, 51, 100
10, 84484, Note_off_c, 7, 51, 64
10, 84496, Note_on_c, 7, 47, 100
10, 84580, Note_off_c, 7, 47, 64
10, 84592, Note_on_c, 7, 52, 100
10, 84676, Note_off_c, 7, 52, 64
10, 84700, Note_on_c, 7, 47, 100
10, 84784, Note_off_c, 7, 47, 64
10, 84792, Note_on_c, 7, 46, 100
10, 84876, Note_off_c, 7, 46, 64
10, 84880, Note_on_c, 7, 47, 100
10, 84964, Note_off_c, 7, 47, 64
10, 84992, Note_on_c, 7, 49, 100
10, 85072, Note_off_c, 7, 49, 64
10, 85072, Note_on_c, 7, 47, 100
10, 85156, Note_off_c, 7, 47, 64
10, 85168, Note_on_c, 7, 54, 100
10, 85252, Note_off_c, 7, 54, 64
10, 85276, Note_on_c, 7, 47, 100
10, 85360, Note_off_c, 7, 47, 64
10, 85368, Note_on_c, 7, 55, 100
10, 85452, Note_off_c, 7, 55, 64
10, 85468, Note_on_c, 7, 47, 100
10, 85552, Note_off_c, 7, 47, 64
10, 85568, Note_on_c, 7, 46, 100
10, 85648, Note_off_c, 7, 46, 64
10, 85648, Note_on_c, 7, 47, 100
10, 85732, Note_off_c, 7, 47, 64
10, 85748, Note_on_c, 7, 49, 100
10, 85832, Note_off_c, 7, 49, 64
10, 85856, Note_on_c, 7, 47, 100
10, 85936, Note_off_c, 7, 47, 64
10, 85944, Note_on_c, 7, 57, 100
10, 86028, Note_off_c, 7, 57, 64
10, 86044, Note_on_c, 7, 47, 100
10, 86128, Note_off_c, 7, 47, 64
10, 86128, Note_on_c, 7, 59, 100
10, 86212, Note_off_c, 7, 59, 64
10, 86228, Note_on_c, 7, 55, 100
10, 86404, Note_off_c, 7, 55, 64
10, 86416, Note_on_c, 7, 54, 100
10, 86500, Note_off_c, 7, 54, 64
10, 86512, Note_on_c, 7, 52, 100
10, 86596, Note_off_c, 7, 52, 64
10, 86616, Note_on_c, 7, 54, 100
10, 86792, Note_off_c, 7, 54, 64
10, 86804, Note_on_c, 7, 52, 100
10, 86888, Note_off_c, 7, 52, 64
10, 86908, Note_on_c, 7, 51, 100
10, 86992, Note_off_c, 7, 51, 64
10, 86996, Note_on_c, 7, 60, 100
10, 87264, Note_off_c, 7, 60, 64
10, 87284, Note_on_c, 7, 59, 100
10, 87368, Note_off_c, 7, 59, 64
10, 87384, Note_on_c, 7, 57, 100
10, 87468, Note_off_c, 7, 57, 64
10, 87488, Note_on_c, 7, 55, 100
10, 87568, Note_off_c, 7, 55, 64
10, 87584, Note_on_c, 7, 54, 100
10, 87664, Note_off_c, 7, 54, 64
10, 87668, Note_on_c, 7, 52, 100
10, 87752, Note_off_c, 7, 52, 64
10, 87768, Note_on_c, 7, 51, 100
10, 87944, Note_off_c, 7, 51, 64
10, 87952, Note_on_c, 7, 52, 100
10, 88128, Note_off_c, 7, 52, 64
10, 88156, Note_on_c, 7, 45, 100
10, 88332, Note_off_c, 7, 45, 64
10, 88352, Note_on_c, 7, 47, 100
10, 88528, Note_off_c, 7, 47, 64
10, 88532, Note_on_c, 7, 40, 100
10, 88896, Note_off_c, 7, 40, 64
10, 89116, Note_on_c, 7, 47, 100
10, 89292, Note_off_c, 7, 47, 64
10, 89312, Note_on_c, 7, 52, 100
10, 89672, Note_off_c, 7, 52, 64
10, 89880, Note_on_c, 7, 59, 100
10, 90056, Note_off_c, 7, 59, 64
10, 90072, Note_on_c, 7, 64, 100
10, 90432, Note_off_c, 7, 64, 64
10, 90652, Note_on_c, 7, 59, 100
10, 90828, Note_off_c, 7, 59, 64
10, 90836, Note_on_c, 7, 52, 100
10, 90920, Note_off_c, 7, 52, 64
10, 90936, Note_on_c, 7, 54, 100
10, 91020, Note_off_c, 7, 54, 64
10, 91036, Note_on_c, 7, 55, 100
10, 91120, Note_off_c, 7, 55, 64
10, 91128, Note_on_c, 7, 54, 100
10, 91212, Note_off_c, 7, 54, 64
10, 91228, Note_on_c, 7, 52, 100
10, 91312, Note_off_c, 7, 52, 64
10, 91320, Note_on_c, 7, 50, 100
10, 91404, Note_off_c, 7, 50, 64
10, 91408, Note_on_c, 7, 49, 100
10, 91492, Note_off_c, 7, 49, 64
10, 91520, Note_on_c, 7, 47, 100
10, 91600, Note_off_c, 7, 47, 64
10, 91608, Note_on_c, 7, 45, 100
10, 91968, Note_off_c, 7, 45, 64
10, 92188, Note_on_c, 7, 40, 100
10, 92364, Note_off_c, 7, 40, 64
10, 92372, Note_on_c, 7, 45, 100
10, 92736, Note_off_c, 7, 45, 64
10, 92956, Note_on_c, 7, 52, 100
10, 93132, Note_off_c, 7, 52, 64
10, 93152, Note_on_c, 7, 57, 100
10, 93512, Note_off_c, 7, 57, 64
10, 93716, Note_on_c, 7, 52, 100
10, 93892, Note_off_c, 7, 52, 64
10, 93920, Note_on_c, 7, 45, 100
10, 94000, Note_off_c, 7, 45, 64
10, 94008, Note_on_c, 7, 47, 100
10, 94092, Note_off_c, 7, 47, 64
10, 94104, Note_on_c, 7, 49, 100
10, 94188, Note_off_c, 7, 49, 64
10, 94208, Note_on_c, 7, 47, 100
10, 94288, Note_off_c, 7, 47, 64
10, 94288, Note_on_c, 7, 45, 100
10, 94372, Note_off_c, 7, 45, 64
10, 94392, Note_on_c, 7, 43, 100
10, 94476, Note_off_c, 7, 43, 64
10, 94488, Note_on_c, 7, 42, 100
10, 94572, Note_off_c, 7, 42, 64
10, 94584, Note_on_c, 7, 40, 100
10, 94668, Note_off_c, 7, 40, 64
10, 94684, Note_on_c, 7, 38, 100
10, 95044, Note_off_c, 7, 38, 64
10, 95260, Note_on_c, 7, 57, 100
10, 95436, Note_off_c, 7, 57, 64
10, 95456, Note_on_c, 7, 50, 100
10, 95536, Note_off_c, 7, 50, 64
10, 95548, Note_on_c, 7, 57, 100
10, 95632, Note_off_c, 7, 57, 64
10, 95648, Note_on_c, 7, 50, 100
10, 95728, Note_off_c, 7, 50, 64
10, 95728, Note_on_c, 7, 52, 100
10, 95812, Note_off_c, 7, 52, 64
10, 95840, Note_on_c, 7, 54, 100
10, 95920, Note_off_c, 7, 54, 64
10, 95928, Note_on_c, 7, 55, 100
10, 96012, Note_off_c, 7, 55, 64
10, 96028, Note_on_c, 7, 57, 100
10, 96112, Note_off_c, 7, 57, 64
10, 96128, Note_on_c, 7, 55, 100
10, 96208, Note_off_c, 7, 55, 64
10, 96216, Note_on_c, 7, 54, 100
10, 96392, Note_off_c, 7, 54, 64
10, 96416, Note_on_c, 7, 62, 100
10, 96592, Note_off_c, 7, 62, 64
10, 96796, Note_on_c, 7, 57, 100
10, 96972, Note_off_c, 7, 57, 64
10, 96992, Note_on_c, 7, 62, 100
10, 97072, Note_off_c, 7, 62, 64
10, 97084, Note_on_c, 7, 64, 100
10, 97168, Note_off_c, 7, 64, 64
10, 97176, Note_on_c, 7, 62, 100
10, 97260, Note_off_c, 7, 62, 64
10, 97276, Note_on_c, 7, 60, 100
10, 97360, Note_off_c, 7, 60, 64
10, 97376, Note_on_c, 7, 59, 100
10, 97456, Note_off_c, 7, 59, 64
10, 97464, Note_on_c, 7, 57, 100
10, 97548, Note_off_c, 7, 57, 64
10, 97564, Note_on_c, 7, 55, 100
10, 97648, Note_off_c, 7, 55, 64
10, 97656, Note_on_c, 7, 54, 100
10, 97740, Note_off_c, 7, 54, 64
10, 97756, Note_on_c, 7, 55, 100
10, 97932, Note_off_c, 7, 55, 64
10, 97948, Note_on_c, 7, 50, 100
10, 98032, Note_off_c, 7, 50, 64
10, 98040, Note_on_c, 7, 48, 100
10, 98124, Note_off_c, 7, 48, 64
10, 98128, Note_on_c, 7, 50, 100
10, 98304, Note_off_c, 7, 50, 64
10, 98332, Note_on_c, 7, 38, 100
10, 98508, Note_off_c, 7, 38, 64
10, 98516, Note_on_c, 7, 43, 100
10, 98880, Note_off_c, 7, 43, 64
10, 99100, Note_on_c, 7, 54, 100
10, 99276, Note_off_c, 7, 54, 64
10, 99280, Note_on_c, 7, 55, 100
10, 99364, Note_off_c, 7, 55, 64
10, 99380, Note_on_c, 7, 50, 100
10, 99464, Note_off_c, 7, 50, 64
10, 99484, Note_on_c, 7, 43, 100
10, 99568, Note_off_c, 7, 43, 64
10, 99572, Note_on_c, 7, 45, 100
10, 99656, Note_off_c, 7, 45, 64
10, 99680, Note_on_c, 7, 47, 100
10, 99760, Note_off_c, 7, 47, 64
10, 99776, Note_on_c, 7, 48, 100
10, 99856, Note_off_c, 7, 48, 64
10, 99860, Note_on_c, 7, 50, 100
10, 99944, Note_off_c, 7, 50, 64
10, 99956, Note_on_c, 7, 48, 100
10, 100040, Note_off_c, 7, 48, 64
10, 100048, Note_on_c, 7, 47, 100
10, 100132, Note_off_c, 7, 47, 64
10, 100144, Note_on_c, 7, 50, 100
10, 100228, Note_off_c, 7, 50, 64
10, 100256, Note_on_c, 7, 43, 100
10, 100336, Note_off_c, 7, 43, 64
10, 100352, Note_on_c, 7, 45, 100
10, 100432, Note_off_c, 7, 45, 64
10, 100448, Note_on_c, 7, 47, 100
10, 100528, Note_off_c, 7, 47, 64
10, 100540, Note_on_c, 7, 48, 100
10, 100624, Note_off_c, 7, 48, 64
10, 100632, Note_on_c, 7, 50, 100
10, 100716, Note_off_c, 7, 50, 64
10, 100728, Note_on_c, 7, 48, 100
10, 100812, Note_off_c, 7, 48, 64
10, 100824, Note_on_c, 7, 47, 100
10, 100908, Note_off_c, 7, 47, 64
10, 100912, Note_on_c, 7, 48, 100
10, 100996, Note_off_c, 7, 48, 64
10, 101020, Note_on_c, 7, 50, 100
10, 101104, Note_off_c, 7, 50, 64
10, 101112, Note_on_c, 7, 48, 100
10, 101196, Note_off_c, 7, 48, 64
10, 101208, Note_on_c, 7, 47, 100
10, 101292, Note_off_c, 7, 47, 64
10, 101300, Note_on_c, 7, 45, 100
10, 101384, Note_off_c, 7, 45, 64
10, 101392, Note_on_c, 7, 43, 100
10, 101476, Note_off_c, 7, 43, 64
10, 101504, Note_on_c, 7, 42, 100
10, 101584, Note_off_c, 7, 42, 64
10, 101596, Note_on_c, 7, 40, 100
10, 101956, Note_off_c, 7, 40, 64
10, 102356, Note_on_c, 7, 40, 100
10, 102720, Note_off_c, 7, 40, 64
10, 103136, Note_on_c, 7, 52, 100
10, 103496, Note_off_c, 7, 52, 64
10, 103900, Note_on_c, 7, 52, 100
10, 104260, Note_off_c, 7, 52, 64
10, 104672, Note_on_c, 7, 46, 100
10, 105032, Note_off_c, 7, 46, 64
10, 105440, Note_on_c, 7, 42, 100
10, 105800, Note_off_c, 7, 42, 64
10, 106196, Note_on_c, 7, 47, 100
10, 106372, Note_off_c, 7, 47, 64
10, 106384, Note_on_c, 7, 59, 100
10, 106560, Note_off_c, 7, 59, 64
10, 106576, Note_on_c, 7, 59, 100
10, 106752, Note_off_c, 7, 59, 64
10, 106768, Note_on_c, 7, 47, 100
10, 106944, Note_off_c, 7, 47, 64
10, 106960, Note_on_c, 7, 47, 100
10, 107136, Note_off_c, 7, 47, 64
10, 107152, Note_on_c, 7, 59, 100
10, 107328, Note_off_c, 7, 59, 64
10, 107360, Note_on_c, 7, 59, 100
10, 107536, Note_off_c, 7, 59, 64
10, 107536, Note_on_c, 7, 47, 100
10, 107712, Note_off_c, 7, 47, 64
10, 107736, Note_on_c, 7, 47, 100
10, 107912, Note_off_c, 7, 47, 64
10, 107932, Note_on_c, 7, 59, 100
10, 108016, Note_off_c, 7, 59, 64
10, 108016, Note_on_c, 7, 57, 100
10, 108100, Note_off_c, 7, 57, 64
10, 108128, Note_on_c, 7, 55, 100
10, 108304, Note_off_c, 7, 55, 64
10, 108312, Note_on_c, 7, 54, 100
10, 108396, Note_off_c, 7, 54, 64
10, 108400, Note_on_c, 7, 52, 100
10, 108484, Note_off_c, 7, 52, 64
10, 108508, Note_on_c, 7, 50, 100
10, 108684, Note_off_c, 7, 50, 64
10, 108704, Note_on_c, 7, 49, 100
10, 108784, Note_off_c, 7, 49, 64
10, 108784, Note_on_c, 7, 47, 100
10, 108868, Note_off_c, 7, 47, 64
10, 108880, Note_on_c, 7, 46, 100
10, 109056, Note_off_c, 7, 46, 64
10, 109088, Note_on_c, 7, 42, 100
10, 109264, Note_off_c, 7, 42, 64
10, 109264, Note_on_c, 7, 47, 100
10, 109440, Note_off_c, 7, 47, 64
10, 109468, Note_on_c, 7, 59, 100
10, 109552, Note_off_c, 7, 59, 64
10, 109560, Note_on_c, 7, 57, 100
10, 109644, Note_off_c, 7, 57, 64
10, 109664, Note_on_c, 7, 55, 100
10, 109840, Note_off_c, 7, 55, 64
10, 109848, Note_on_c, 7, 54, 100
10, 109932, Note_off_c, 7, 54, 64
10, 109940, Note_on_c, 7, 52, 100
10, 110024, Note_off_c, 7, 52, 64
10, 110048, Note_on_c, 7, 50, 100
10, 110128, Note_off_c, 7, 50, 64
10, 110132, Note_on_c, 7, 49, 100
10, 110216, Note_off_c, 7, 49, 64
10, 110228, Note_on_c, 7, 50, 100
10, 110312, Note_off_c, 7, 50, 64
10, 110332, Note_on_c, 7, 52, 100
10, 110416, Note_off_c, 7, 52, 64
10, 110424, Note_on_c, 7, 50, 100
10, 110508, Note_off_c, 7, 50, 64
10, 110524, Note_on_c, 7, 52, 100
10, 110608, Note_off_c, 7, 52, 64
10, 110608, Note_on_c, 7, 50, 100
10, 110692, Note_off_c, 7, 50, 64
10, 110716, Note_on_c, 7, 49, 100
10, 110800, Note_off_c, 7, 49, 64
10, 110812, Note_on_c, 7, 47, 100
10, 110988, Note_off_c, 7, 47, 64
10, 110996, Note_on_c, 7, 55, 100
10, 111172, Note_off_c, 7, 55, 64
10, 111192, Note_on_c, 7, 52, 100
10, 111368, Note_off_c, 7, 52, 64
10, 111384, Note_on_c, 7, 54, 100
10, 111560, Note_off_c, 7, 54, 64
10, 111580, Note_on_c, 7, 55, 100
10, 111848, Note_off_c, 7, 55, 64
10, 111860, Note_on_c, 7, 54, 100
10, 111944, Note_off_c, 7, 54, 64
10, 111956, Note_on_c, 7, 52, 100
10, 112040, Note_off_c, 7, 52, 64
10, 112056, Note_on_c, 7, 50, 100
10, 112140, Note_off_c, 7, 50, 64
10, 112144, Note_on_c, 7, 49, 100
10, 112228, Note_off_c, 7, 49, 64
10, 112240, Note_on_c, 7, 47, 100
10, 112324, Note_off_c, 7, 47, 64
10, 112344, Note_on_c, 7, 50, 100
10, 112520, Note_off_c, 7, 50, 64
10, 112536, Note_on_c, 7, 52, 100
10, 112712, Note_off_c, 7, 52, 64
10, 112728, Note_on_c, 7, 54, 100
10, 112904, Note_off_c, 7, 54, 64
10, 112916, Note_on_c, 7, 42, 100
10, 113092, Note_off_c, 7, 42, 64
10, 113108, Note_on_c, 7, 47, 100
10, 113284, Note_off_c, 7, 47, 64
10, 113304, Note_on_c, 7, 54, 100
10, 113388, Note_off_c, 7, 54, 64
10, 113392, Note_on_c, 7, 52, 100
10, 113476, Note_off_c, 7, 52, 64
10, 113496, Note_on_c, 7, 54, 100
10, 113672, Note_off_c, 7, 54, 64
10, 113688, Note_on_c, 7, 59, 100
10, 113772, Note_off_c, 7, 59, 64
10, 113780, Note_on_c, 7, 58, 100
10, 113864, Note_off_c, 7, 58, 64
10, 113876, Note_on_c, 7, 59, 100
10, 114052, Note_off_c, 7, 59, 64
10, 115220, Note_on_c, 7, 47, 100
10, 115304, Note_off_c, 7, 47, 64
10, 115316, Note_on_c, 7, 49, 100
10, 115400, Note_off_c, 7, 49, 64
10, 115408, Note_on_c, 7, 50, 100
10, 115584, Note_off_c, 7, 50, 64
10, 115612, Note_on_c, 7, 55, 100
10, 115696, Note_off_c, 7, 55, 64
10, 115696, Note_on_c, 7, 54, 100
10, 115780, Note_off_c, 7, 54, 64
10, 115800, Note_on_c, 7, 55, 100
10, 115976, Note_off_c, 7, 55, 64
10, 115988, Note_on_c, 7, 49, 100
10, 116072, Note_off_c, 7, 49, 64
10, 116092, Note_on_c, 7, 47, 100
10, 116176, Note_off_c, 7, 47, 64
10, 116192, Note_on_c, 7, 49, 100
10, 116368, Note_off_c, 7, 49, 64
10, 116376, Note_on_c, 7, 54, 100
10, 116460, Note_off_c, 7, 54, 64
10, 116468, Note_on_c, 7, 52, 100
10, 116552, Note_off_c, 7, 52, 64
10, 116564, Note_on_c, 7, 54, 100
10, 116740, Note_off_c, 7, 54, 64
10, 116768, Note_on_c, 7, 47, 100
10, 116848, Note_off_c, 7, 47, 64
10, 116864, Note_on_c, 7, 46, 100
10, 116944, Note_off_c, 7, 46, 64
10, 116944, Note_on_c, 7, 47, 100
10, 117120, Note_off_c, 7, 47, 64
10, 117144, Note_on_c, 7, 52, 100
10, 117320, Note_off_c, 7, 52, 64
10, 117344, Note_on_c, 7, 54, 100
10, 117520, Note_off_c, 7, 54, 64
10, 117528, Note_on_c, 7, 42, 100
10, 117704, Note_off_c, 7, 42, 64
10, 117720, Note_on_c, 7, 47, 100
10, 117896, Note_off_c, 7, 47, 64
10, 117920, Note_on_c, 7, 48, 100
10, 118096, Note_off_c, 7, 48, 64
10, 118108, Note_on_c, 7, 47, 100
10, 118284, Note_off_c, 7, 47, 64
10, 118288, Note_on_c, 7, 45, 100
10, 118464, Note_off_c, 7, 45, 64
10, 118484, Note_on_c, 7, 43, 100
10, 118848, Note_off_c, 7, 43, 64
10, 121556, Note_on_c, 7, 50, 100
10, 121732, Note_off_c, 7, 50, 64
10, 121744, Note_on_c, 7, 49, 100
10, 121920, Note_off_c, 7, 49, 64
10, 121952, Note_on_c, 7, 50, 100
10, 122128, Note_off_c, 7, 50, 64
10, 122144, Note_on_c, 7, 52, 100
10, 122320, Note_off_c, 7, 52, 64
10, 122328, Note_on_c, 7, 54, 100
10, 122504, Note_off_c, 7, 54, 64
10, 122524, Note_on_c, 7, 55, 100
10, 122700, Note_off_c, 7, 55, 64
10, 122708, Note_on_c, 7, 54, 100
10, 122884, Note_off_c, 7, 54, 64
10, 122900, Note_on_c, 7, 52, 100
10, 123076, Note_off_c, 7, 52, 64
10, 123088, Note_on_c, 7, 50, 100
10, 123264, Note_off_c, 7, 50, 64
10, 123292, Note_on_c, 7, 49, 100
10, 123468, Note_off_c, 7, 49, 64
10, 123472, Note_on_c, 7, 47, 100
10, 123648, Note_off_c, 7, 47, 64
10, 123664, Note_on_c, 7, 52, 100
10, 123840, Note_off_c, 7, 52, 64
10, 123868, Note_on_c, 7, 45, 100
10, 124228, Note_off_c, 7, 45, 64
10, 124448, Note_on_c, 7, 45, 100
10, 124624, Note_off_c, 7, 45, 64
10, 124628, Note_on_c, 7, 50, 100
10, 124804, Note_off_c, 7, 50, 64
10, 124828, Note_on_c, 7, 38, 100
10, 125004, Note_off_c, 7, 38, 64
10, 125024, Note_on_c, 7, 42, 100
10, 125200, Note_off_c, 7, 42, 64
10, 125212, Note_on_c, 7, 45, 100
10, 125388, Note_off_c, 7, 45, 64
10, 125392, Note_on_c, 7, 50, 100
10, 125756, Note_off_c, 7, 50, 64
10, 125980, Note_on_c, 7, 50, 100
10, 126156, Note_off_c, 7, 50, 64
10, 126168, Note_on_c, 7, 55, 100
10, 126344, Note_off_c, 7, 55, 64
10, 126368, Note_on_c, 7, 43, 100
10, 126544, Note_off_c, 7, 43, 64
10, 126560, Note_on_c, 7, 47, 100
10, 126736, Note_off_c, 7, 47, 64
10, 126748, Note_on_c, 7, 50, 100
10, 126924, Note_off_c, 7, 50, 64
10, 126944, Note_on_c, 7, 55, 100
10, 127304, Note_off_c, 7, 55, 64
10, 127512, Note_on_c, 7, 47, 100
10, 127688, Note_off_c, 7, 47, 64
10, 127708, Note_on_c, 7, 52, 100
10, 127884, Note_off_c, 7, 52, 64
10, 127896, Note_on_c, 7, 40, 100
10, 128072, Note_off_c, 7, 40, 64
10, 128092, Note_on_c, 7, 43, 100
10, 128268, Note_off_c, 7, 43, 64
10, 128280, Note_on_c, 7, 47, 100
10, 128456, Note_off_c, 7, 47, 64
10, 128468, Note_on_c, 7, 52, 100
10, 128832, Note_off_c, 7, 52, 64
10, 129052, Note_on_c, 7, 43, 100
10, 129228, Note_off_c, 7, 43, 64
10, 129240, Note_on_c, 7, 48, 100
10, 129416, Note_off_c, 7, 48, 64
10, 129432, Note_on_c, 7, 50, 100
10, 129608, Note_off_c, 7, 50, 64
10, 129616, Note_on_c, 7, 43, 100
10, 129792, Note_off_c, 7, 43, 64
10, 129820, Note_on_c, 7, 48, 100
10, 129996, Note_off_c, 7, 48, 64
10, 130016, Note_on_c, 7, 50, 100
10, 130192, Note_off_c, 7, 50, 64
10, 130200, Note_on_c, 7, 48, 100
10, 130376, Note_off_c, 7, 48, 64
10, 130400, Note_on_c, 7, 47, 100
10, 130576, Note_off_c, 7, 47, 64
10, 130580, Note_on_c, 7, 45, 100
10, 130756, Note_off_c, 7, 45, 64
10, 130784, Note_on_c, 7, 43, 100
10, 130960, Note_off_c, 7, 43, 64
10, 130968, Note_on_c, 7, 55, 100
10, 131144, Note_off_c, 7, 55, 64
10, 131152, Note_on_c, 7, 55, 100
10, 131328, Note_off_c, 7, 55, 64
10, 131360, Note_on_c, 7, 43, 100
10, 131536, Note_off_c, 7, 43, 64
10, 131548, Note_on_c, 7, 43, 100
10, 131724, Note_off_c, 7, 43, 64
10, 131728, Note_on_c, 7, 55, 100
10, 131904, Note_off_c, 7, 55, 64
10, 131936, Note_on_c, 7, 55, 100
10, 132112, Note_off_c, 7, 55, 64
10, 132116, Note_on_c, 7, 43, 100
10, 132292, Note_off_c, 7, 43, 64
10, 132308, Note_on_c, 7, 43, 100
10, 132484, Note_off_c, 7, 43, 64
10, 132512, Note_on_c, 7, 55, 100
10, 132592, Note_off_c, 7, 55, 64
10, 132592, Note_on_c, 7, 54, 100
10, 132676, Note_off_c, 7, 54, 64
10, 132700, Note_on_c, 7, 52, 100
10, 132876, Note_off_c, 7, 52, 64
10, 132884, Note_on_c, 7, 57, 100
10, 133060, Note_off_c, 7, 57, 64
10, 133072, Note_on_c, 7, 62, 100
10, 133248, Note_off_c, 7, 62, 64
10, 133276, Note_on_c, 7, 60, 100
10, 133452, Note_off_c, 7, 60, 64
10, 133460, Note_on_c, 7, 59, 100
10, 133636, Note_off_c, 7, 59, 64
10, 133656, Note_on_c, 7, 57, 100
10, 133832, Note_off_c, 7, 57, 64
10, 133840, Note_on_c, 7, 55, 100
10, 134016, Note_off_c, 7, 55, 64
10, 134036, Note_on_c, 7, 53, 100
10, 134212, Note_off_c, 7, 53, 64
10, 134240, Note_on_c, 7, 52, 100
10, 134416, Note_off_c, 7, 52, 64
10, 134416, Note_on_c, 7, 50, 100
10, 134592, Note_off_c, 7, 50, 64
10, 134616, Note_on_c, 7, 60, 100
10, 134792, Note_off_c, 7, 60, 64
10, 134800, Note_on_c, 7, 58, 100
10, 134976, Note_off_c, 7, 58, 64
10, 135008, Note_on_c, 7, 57, 100
10, 135184, Note_off_c, 7, 57, 64
10, 135200, Note_on_c, 7, 55, 100
10, 135376, Note_off_c, 7, 55, 64
10, 135392, Note_on_c, 7, 54, 100
10, 135568, Note_off_c, 7, 54, 64
10, 135572, Note_on_c, 7, 52, 100
10, 135748, Note_off_c, 7, 52, 64
10, 135768, Note_on_c, 7, 50, 100
10, 135944, Note_off_c, 7, 50, 64
10, 135968, Note_on_c, 7, 49, 100
10, 136144, Note_off_c, 7, 49, 64
10, 136148, Note_on_c, 7, 59, 100
10, 136324, Note_off_c, 7, 59, 64
10, 136336, Note_on_c, 7, 57, 100
10, 136512, Note_off_c, 7, 57, 64
10, 136528, Note_on_c, 7, 55, 100
10, 136704, Note_off_c, 7, 55, 64
10, 136724, Note_on_c, 7, 54, 100
10, 136900, Note_off_c, 7, 54, 64
10, 136912, Note_on_c, 7, 52, 100
10, 137088, Note_off_c, 7, 52, 64
10, 137116, Note_on_c, 7, 50, 100
10, 137292, Note_off_c, 7, 50, 64
10, 137308, Note_on_c, 7, 48, 100
10, 137484, Note_off_c, 7, 48, 64
10, 137488, Note_on_c, 7, 47, 100
10, 137664, Note_off_c, 7, 47, 64
10, 137688, Note_on_c, 7, 45, 100
10, 137864, Note_off_c, 7, 45, 64
10, 137876, Note_on_c, 7, 43, 100
10, 138052, Note_off_c, 7, 43, 64
10, 138080, Note_on_c, 7, 41, 100
10, 138256, Note_off_c, 7, 41, 64
10, 138272, Note_on_c, 7, 40, 100
10, 138448, Note_off_c, 7, 40, 64
10, 138460, Note_on_c, 7, 38, 100
10, 138820, Note_off_c, 7, 38, 64
10, 139984, Note_on_c, 7, 39, 100
10, 140348, Note_off_c, 7, 39, 64
10, 141528, Note_on_c, 7, 40, 100
10, 141888, Note_off_c, 7, 40, 64
10, 143056, Note_on_c, 7, 40, 100
10, 143420, Note_off_c, 7, 40, 64
10, 144600, Note_on_c, 7, 40, 100
10, 144960, Note_off_c, 7, 40, 64
10, 146140, Note_on_c, 7, 40, 100
10, 146500, Note_off_c, 7, 40, 64
10, 147672, Note_on_c, 7, 45, 100
10, 148032, Note_off_c, 7, 45, 64
10, 149024, Note_on_c, 7, 57, 100
10, 149200, Note_off_c, 7, 57, 64
10, 149204, Note_on_c, 7, 43, 100
10, 149380, Note_off_c, 7, 43, 64
10, 150552, Note_on_c, 7, 55, 100
10, 150728, Note_off_c, 7, 55, 64
10, 150752, Note_on_c, 7, 41, 100
10, 150928, Note_off_c, 7, 41, 64
10, 152096, Note_on_c, 7, 53, 100
10, 152272, Note_off_c, 7, 53, 64
10, 152284, Note_on_c, 7, 40, 100
10, 152460, Note_off_c, 7, 40, 64
10, 152468, Note_on_c, 7, 52, 100
10, 152644, Note_off_c, 7, 52, 64
10, 152660, Note_on_c, 7, 52, 100
10, 152836, Note_off_c, 7, 52, 64
10, 152856, Note_on_c, 7, 40, 100
10, 153032, Note_off_c, 7, 40, 64
10, 153056, Note_on_c, 7, 40, 100
10, 153232, Note_off_c, 7, 40, 64
10, 153244, Note_on_c, 7, 52, 100
10, 153420, Note_off_c, 7, 52, 64
10, 153436, Note_on_c, 7, 52, 100
10, 153612, Note_off_c, 7, 52, 64
10, 153616, Note_on_c, 7, 50, 100
10, 153792, Note_off_c, 7, 50, 64
10, 153816, Note_on_c, 7, 48, 100
10, 153992, Note_off_c, 7, 48, 64
10, 154000, Note_on_c, 7, 50, 100
10, 154176, Note_off_c, 7, 50, 64
10, 154192, Note_on_c, 7, 52, 100
10, 154368, Note_off_c, 7, 52, 64
10, 154396, Note_on_c, 7, 40, 100
10, 154572, Note_off_c, 7, 40, 64
10, 154588, Note_on_c, 7, 45, 100
10, 154948, Note_off_c, 7, 45, 64
10, 155168, Note_on_c, 7, 57, 100
10, 155248, Note_off_c, 7, 57, 64
10, 155252, Note_on_c, 7, 56, 100
10, 155336, Note_off_c, 7, 56, 64
10, 155344, Note_on_c, 7, 57, 100
10, 155520, Note_off_c, 7, 57, 64
10, 155536, Note_on_c, 7, 52, 100
10, 155620, Note_off_c, 7, 52, 64
10, 155636, Note_on_c, 7, 50, 100
10, 155720, Note_off_c, 7, 50, 64
10, 155732, Note_on_c, 7, 52, 100
10, 155908, Note_off_c, 7, 52, 64
10, 155928, Note_on_c, 7, 57, 100
10, 156012, Note_off_c, 7, 57, 64
10, 156028, Note_on_c, 7, 56, 100
10, 156112, Note_off_c, 7, 56, 64
10, 156124, Note_on_c, 7, 57, 100
10, 156300, Note_off_c, 7, 57, 64
10, 156320, Note_on_c, 7, 48, 100
10, 156400, Note_off_c, 7, 48, 64
10, 156400, Note_on_c, 7, 47, 100
10, 156484, Note_off_c, 7, 47, 64
10, 156504, Note_on_c, 7, 48, 100
10, 156680, Note_off_c, 7, 48, 64
10, 156688, Note_on_c, 7, 57, 100
10, 156772, Note_off_c, 7, 57, 64
10, 156792, Note_on_c, 7, 56, 100
10, 156876, Note_off_c, 7, 56, 64
10, 156880, Note_on_c, 7, 57, 100
10, 157056, Note_off_c, 7, 57, 64
10, 157088, Note_on_c, 7, 45, 100
10, 157168, Note_off_c, 7, 45, 64
10, 157176, Note_on_c, 7, 47, 100
10, 157260, Note_off_c, 7, 47, 64
10, 157264, Note_on_c, 7, 49, 100
10, 157440, Note_off_c, 7, 49, 64
10, 157456, Note_on_c, 7, 51, 100
10, 157632, Note_off_c, 7, 51, 64
10, 157652, Note_on_c, 7, 52, 100
10, 157828, Note_off_c, 7, 52, 64
10, 157844, Note_on_c, 7, 40, 100
10, 158020, Note_off_c, 7, 40, 64
10, 158228, Note_on_c, 7, 52, 100
10, 158312, Note_off_c, 7, 52, 64
10, 158324, Note_on_c, 7, 51, 100
10, 158408, Note_off_c, 7, 51, 64
10, 158432, Note_on_c, 7, 52, 100
10, 158608, Note_off_c, 7, 52, 64
10, 158624, Note_on_c, 7, 47, 100
10, 158704, Note_off_c, 7, 47, 64
10, 158720, Note_on_c, 7, 45, 100
10, 158800, Note_off_c, 7, 45, 64
10, 158808, Note_on_c, 7, 47, 100
10, 158984, Note_off_c, 7, 47, 64
10, 158992, Note_on_c, 7, 52, 100
10, 159076, Note_off_c, 7, 52, 64
10, 159096, Note_on_c, 7, 51, 100
10, 159180, Note_off_c, 7, 51, 64
10, 159200, Note_on_c, 7, 52, 100
10, 159376, Note_off_c, 7, 52, 64
10, 159376, Note_on_c, 7, 43, 100
10, 159460, Note_off_c, 7, 43, 64
10, 159488, Note_on_c, 7, 42, 100
10, 159568, Note_off_c, 7, 42, 64
10, 159584, Note_on_c, 7, 43, 100
10, 159760, Note_off_c, 7, 43, 64
10, 159776, Note_on_c, 7, 52, 100
10, 159856, Note_off_c, 7, 52, 64
10, 159868, Note_on_c, 7, 51, 100
10, 159952, Note_off_c, 7, 51, 64
10, 159964, Note_on_c, 7, 52, 100
10, 160140, Note_off_c, 7, 52, 64
10, 160144, Note_on_c, 7, 40, 100
10, 160228, Note_off_c, 7, 40, 64
10, 160256, Note_on_c, 7, 42, 100
10, 160336, Note_off_c, 7, 42, 64
10, 160352, Note_on_c, 7, 43, 100
10, 160528, Note_off_c, 7, 43, 64
10, 160532, Note_on_c, 7, 45, 100
10, 160708, Note_off_c, 7, 45, 64
10, 160736, Note_on_c, 7, 47, 100
10, 160816, Note_off_c, 7, 47, 64
10, 160816, Note_on_c, 7, 45, 100
10, 160900, Note_off_c, 7, 45, 64
10, 160928, Note_on_c, 7, 47, 100
10, 161008, Note_off_c, 7, 47, 64
10, 161020, Note_on_c, 7, 48, 100
10, 161104, Note_off_c, 7, 48, 64
10, 161112, Note_on_c, 7, 47, 100
10, 161196, Note_off_c, 7, 47, 64
10, 161212, Note_on_c, 7, 48, 100
10, 161296, Note_off_c, 7, 48, 64
10, 161312, Note_on_c, 7, 47, 100
10, 161392, Note_off_c, 7, 47, 64
10, 161392, Note_on_c, 7, 45, 100
10, 161476, Note_off_c, 7, 45, 64
10, 161488, Note_on_c, 7, 43, 100
10, 161852, Note_off_c, 7, 43, 64
10, 162064, Note_on_c, 7, 50, 100
10, 162240, Note_off_c, 7, 50, 64
10, 162272, Note_on_c, 7, 55, 100
10, 162352, Note_off_c, 7, 55, 64
10, 162352, Note_on_c, 7, 54, 100
10, 162436, Note_off_c, 7, 54, 64
10, 162448, Note_on_c, 7, 55, 100
10, 162532, Note_off_c, 7, 55, 64
10, 162552, Note_on_c, 7, 57, 100
10, 162636, Note_off_c, 7, 57, 64
10, 162656, Note_on_c, 7, 55, 100
10, 162736, Note_off_c, 7, 55, 64
10, 162744, Note_on_c, 7, 59, 100
10, 162828, Note_off_c, 7, 59, 64
10, 162840, Note_on_c, 7, 57, 100
10, 162924, Note_off_c, 7, 57, 64
10, 162932, Note_on_c, 7, 60, 100
10, 163016, Note_off_c, 7, 60, 64
10, 163024, Note_on_c, 7, 59, 100
10, 163108, Note_off_c, 7, 59, 64
10, 163128, Note_on_c, 7, 60, 100
10, 163212, Note_off_c, 7, 60, 64
10, 163216, Note_on_c, 7, 59, 100
10, 163300, Note_off_c, 7, 59, 64
10, 163324, Note_on_c, 7, 57, 100
10, 163408, Note_off_c, 7, 57, 64
10, 163408, Note_on_c, 7, 55, 100
10, 163492, Note_off_c, 7, 55, 64
10, 163520, Note_on_c, 7, 59, 100
10, 163600, Note_off_c, 7, 59, 64
10, 163612, Note_on_c, 7, 57, 100
10, 163696, Note_off_c, 7, 57, 64
10, 163712, Note_on_c, 7, 55, 100
10, 163792, Note_off_c, 7, 55, 64
10, 163792, Note_on_c, 7, 54, 100
10, 163876, Note_off_c, 7, 54, 64
10, 163900, Note_on_c, 7, 59, 100
10, 163984, Note_off_c, 7, 59, 64
10, 164000, Note_on_c, 7, 57, 100
10, 164080, Note_off_c, 7, 57, 64
10, 164080, Note_on_c, 7, 55, 100
10, 164164, Note_off_c, 7, 55, 64
10, 164180, Note_on_c, 7, 54, 100
10, 164264, Note_off_c, 7, 54, 64
10, 164276, Note_on_c, 7, 55, 100
10, 164360, Note_off_c, 7, 55, 64
10, 164372, Note_on_c, 7, 54, 100
10, 164456, Note_off_c, 7, 54, 64
10, 164476, Note_on_c, 7, 52, 100
10, 164560, Note_off_c, 7, 52, 64
10, 164576, Note_on_c, 7, 50, 100
10, 164936, Note_off_c, 7, 50, 64
10, 165336, Note_on_c, 7, 50, 100
10, 165696, Note_off_c, 7, 50, 64
10, 166104, Note_on_c, 7, 43, 100
10, 166464, Note_off_c, 7, 43, 64
10, 166880, Note_on_c, 7, 43, 100
10, 167240, Note_off_c, 7, 43, 64
10, 167648, Note_on_c, 7, 44, 100
10, 168008, Note_off_c, 7, 44, 64
10, 168412, Note_on_c, 7, 44, 100
10, 168772, Note_off_c, 7, 44, 64
10, 169180, Note_on_c, 7, 45, 100
10, 169540, Note_off_c, 7, 45, 64
10, 169936, Note_on_c, 7, 45, 100
10, 170300, Note_off_c, 7, 45, 64
10, 170712, Note_on_c, 7, 42, 100
10, 171072, Note_off_c, 7, 42, 64
10, 171480, Note_on_c, 7, 42, 100
10, 171840, Note_off_c, 7, 42, 64
10, 172248, Note_on_c, 7, 41, 100
10, 172608, Note_off_c, 7, 41, 64
10, 173020, Note_on_c, 7, 41, 100
10, 173380, Note_off_c, 7, 41, 64
10, 173780, Note_on_c, 7, 37, 100
10, 173864, Note_off_c, 7, 37, 64
10, 173876, Note_on_c, 7, 38, 100
10, 173960, Note_off_c, 7, 38, 64
10, 173968, Note_on_c, 7, 37, 100
10, 174052, Note_off_c, 7, 37, 64
10, 174072, Note_on_c, 7, 58, 100
10, 174156, Note_off_c, 7, 58, 64
10, 174160, Note_on_c, 7, 55, 100
10, 174244, Note_off_c, 7, 55, 64
10, 174260, Note_on_c, 7, 52, 100
10, 174344, Note_off_c, 7, 52, 64
10, 174364, Note_on_c, 7, 49, 100
10, 174448, Note_off_c, 7, 49, 64
10, 174456, Note_on_c, 7, 43, 100
10, 174540, Note_off_c, 7, 43, 64
10, 174556, Note_on_c, 7, 37, 100
10, 174640, Note_off_c, 7, 37, 64
10, 174648, Note_on_c, 7, 38, 100
10, 174732, Note_off_c, 7, 38, 64
10, 174736, Note_on_c, 7, 37, 100
10, 174820, Note_off_c, 7, 37, 64
10, 174844, Note_on_c, 7, 58, 100
10, 174928, Note_off_c, 7, 58, 64
10, 174944, Note_on_c, 7, 55, 100
10, 175024, Note_off_c, 7, 55, 64
10, 175036, Note_on_c, 7, 52, 100
10, 175120, Note_off_c, 7, 52, 64
10, 175132, Note_on_c, 7, 49, 100
10, 175216, Note_off_c, 7, 49, 64
10, 175228, Note_on_c, 7, 43, 100
10, 175312, Note_off_c, 7, 43, 64
10, 175316, Note_on_c, 7, 38, 100
10, 175400, Note_off_c, 7, 38, 64
10, 175408, Note_on_c, 7, 39, 100
10, 175492, Note_off_c, 7, 39, 64
10, 175504, Note_on_c, 7, 38, 100
10, 175588, Note_off_c, 7, 38, 64
10, 175608, Note_on_c, 7, 58, 100
10, 175692, Note_off_c, 7, 58, 64
10, 175696, Note_on_c, 7, 55, 100
10, 175780, Note_off_c, 7, 55, 64
10, 175804, Note_on_c, 7, 50, 100
10, 175888, Note_off_c, 7, 50, 64
10, 175896, Note_on_c, 7, 46, 100
10, 175980, Note_off_c, 7, 46, 64
10, 175996, Note_on_c, 7, 43, 100
10, 176080, Note_off_c, 7, 43, 64
10, 176096, Note_on_c, 7, 38, 100
10, 176176, Note_off_c, 7, 38, 64
10, 176188, Note_on_c, 7, 39, 100
10, 176272, Note_off_c, 7, 39, 64
10, 176280, Note_on_c, 7, 38, 100
10, 176364, Note_off_c, 7, 38, 64
10, 176384, Note_on_c, 7, 58, 100
10, 176464, Note_off_c, 7, 58, 64
10, 176472, Note_on_c, 7, 55, 100
10, 176556, Note_off_c, 7, 55, 64
10, 176564, Note_on_c, 7, 50, 100
10, 176648, Note_off_c, 7, 50, 64
10, 176660, Note_on_c, 7, 46, 100
10, 176744, Note_off_c, 7, 46, 64
10, 176756, Note_on_c, 7, 43, 100
10, 176840, Note_off_c, 7, 43, 64
10, 176864, Note_on_c, 7, 38, 100
10, 176944, Note_off_c, 7, 38, 64
10, 176944, Note_on_c, 7, 39, 100
10, 177028, Note_off_c, 7, 39, 64
10, 177056, Note_on_c, 7, 38, 100
10, 177136, Note_off_c, 7, 38, 64
10, 177144, Note_on_c, 7, 61, 100
10, 177228, Note_off_c, 7, 61, 64
10, 177232, Note_on_c, 7, 58, 100
10, 177316, Note_off_c, 7, 58, 64
10, 177336, Note_on_c, 7, 55, 100
10, 177420, Note_off_c, 7, 55, 64
10, 177440, Note_on_c, 7, 52, 100
10, 177520, Note_off_c, 7, 52, 64
10, 177520, Note_on_c, 7, 49, 100
10, 177604, Note_off_c, 7, 49, 64
10, 177616, Note_on_c, 7, 38, 100
10, 177700, Note_off_c, 7, 38, 64
10, 177728, Note_on_c, 7, 39, 100
10, 177808, Note_off_c, 7, 39, 64
10, 177820, Note_on_c, 7, 38, 100
10, 177904, Note_off_c, 7, 38, 64
10, 177908, Note_on_c, 7, 61, 100
10, 177992, Note_off_c, 7, 61, 64
10, 178000, Note_on_c, 7, 58, 100
10, 178084, Note_off_c, 7, 58, 64
10, 178112, Note_on_c, 7, 55, 100
10, 178192, Note_off_c, 7, 55, 64
10, 178208, Note_on_c, 7, 52, 100
10, 178288, Note_off_c, 7, 52, 64
10, 178288, Note_on_c, 7, 49, 100
10, 178372, Note_off_c, 7, 49, 64
10, 178400, Note_on_c, 7, 38, 100
10, 178480, Note_off_c, 7, 38, 64
10, 178488, Note_on_c, 7, 39, 100
10, 178572, Note_off_c, 7, 39, 64
10, 178588, Note_on_c, 7, 38, 100
10, 178672, Note_off_c, 7, 38, 64
10, 178684, Note_on_c, 7, 62, 100
10, 178768, Note_off_c, 7, 62, 64
10, 178772, Note_on_c, 7, 58, 100
10, 178856, Note_off_c, 7, 58, 64
10, 178880, Note_on_c, 7, 55, 100
10, 178960, Note_off_c, 7, 55, 64
10, 178968, Note_on_c, 7, 50, 100
10, 179052, Note_off_c, 7, 50, 64
10, 179072, Note_on_c, 7, 46, 100
10, 179152, Note_off_c, 7, 46, 64
10, 179168, Note_on_c, 7, 38, 100
10, 179248, Note_off_c, 7, 38, 64
10, 179248, Note_on_c, 7, 39, 100
10, 179332, Note_off_c, 7, 39, 64
10, 179356, Note_on_c, 7, 38, 100
10, 179440, Note_off_c, 7, 38, 64
10, 179448, Note_on_c, 7, 62, 100
10, 179532, Note_off_c, 7, 62, 64
10, 179540, Note_on_c, 7, 58, 100
10, 179624, Note_off_c, 7, 58, 64
10, 179632, Note_on_c, 7, 55, 100
10, 179716, Note_off_c, 7, 55, 64
10, 179736, Note_on_c, 7, 50, 100
10, 179820, Note_off_c, 7, 50, 64
10, 179832, Note_on_c, 7, 46, 100
10, 179916, Note_off_c, 7, 46, 64
10, 179932, Note_on_c, 7, 38, 100
10, 180016, Note_off_c, 7, 38, 64
10, 180016, Note_on_c, 7, 39, 100
10, 180100, Note_off_c, 7, 39, 64
10, 180116, Note_on_c, 7, 38, 100
10, 180200, Note_off_c, 7, 38, 64
10, 180220, Note_on_c, 7, 63, 100
10, 180304, Note_off_c, 7, 63, 64
10, 180308, Note_on_c, 7, 60, 100
10, 180392, Note_off_c, 7, 60, 64
10, 180400, Note_on_c, 7, 57, 100
10, 180484, Note_off_c, 7, 57, 64
10, 180512, Note_on_c, 7, 54, 100
10, 180592, Note_off_c, 7, 54, 64
10, 180608, Note_on_c, 7, 50, 100
10, 180688, Note_off_c, 7, 50, 64
10, 180700, Note_on_c, 7, 38, 100
10, 180784, Note_off_c, 7, 38, 64
10, 180792, Note_on_c, 7, 39, 100
10, 180876, Note_off_c, 7, 39, 64
10, 180888, Note_on_c, 7, 38, 100
10, 180972, Note_off_c, 7, 38, 64
10, 180992, Note_on_c, 7, 63, 100
10, 181072, Note_off_c, 7, 63, 64
10, 181088, Note_on_c, 7, 60, 100
10, 181168, Note_off_c, 7, 60, 64
10, 181176, Note_on_c, 7, 57, 100
10, 181260, Note_off_c, 7, 57, 64
10, 181268, Note_on_c, 7, 54, 100
10, 181352, Note_off_c, 7, 54, 64
10, 181364, Note_on_c, 7, 50, 100
10, 181448, Note_off_c, 7, 50, 64
10, 181456, Note_on_c, 7, 43, 100
10, 181632, Note_off_c, 7, 43, 64
10, 182816, Note_on_c, 7, 55, 100
10, 182992, Note_off_c, 7, 55, 64
10, 183000, Note_on_c, 7, 41, 100
10, 183176, Note_off_c, 7, 41, 64
10, 184340, Note_on_c, 7, 53, 100
10, 184516, Note_off_c, 7, 53, 64
10, 184540, Note_on_c, 7, 39, 100
10, 184716, Note_off_c, 7, 39, 64
10, 185888, Note_on_c, 7, 51, 100
10, 186064, Note_off_c, 7, 51, 64
10, 186064, Note_on_c, 7, 38, 100
10, 186428, Note_off_c, 7, 38, 64
10, 186652, Note_on_c, 7, 50, 100
10, 186828, Note_off_c, 7, 50, 64
10, 186836, Note_on_c, 7, 38, 100
10, 187200, Note_off_c, 7, 38, 64
10, 187420, Note_on_c, 7, 50, 100
10, 187596, Note_off_c, 7, 50, 64
10, 187608, Note_on_c, 7, 36, 100
10, 187968, Note_off_c, 7, 36, 64
10, 188184, Note_on_c, 7, 48, 100
10, 188360, Note_off_c, 7, 48, 64
10, 188384, Note_on_c, 7, 46, 100
10, 188464, Note_off_c, 7, 46, 64
10, 188476, Note_on_c, 7, 50, 100
10, 188560, Note_off_c, 7, 50, 64
10, 188568, Note_on_c, 7, 43, 100
10, 188652, Note_off_c, 7, 43, 64
10, 188664, Note_on_c, 7, 45, 100
10, 188748, Note_off_c, 7, 45, 64
10, 188756, Note_on_c, 7, 46, 100
10, 188840, Note_off_c, 7, 46, 64
10, 188848, Note_on_c, 7, 48, 100
10, 188932, Note_off_c, 7, 48, 64
10, 188960, Note_on_c, 7, 50, 100
10, 189040, Note_off_c, 7, 50, 64
10, 189048, Note_on_c, 7, 52, 100
10, 189132, Note_off_c, 7, 52, 64
10, 189148, Note_on_c, 7, 54, 100
10, 189232, Note_off_c, 7, 54, 64
10, 189248, Note_on_c, 7, 57, 100
10, 189328, Note_off_c, 7, 57, 64
10, 189332, Note_on_c, 7, 50, 100
10, 189416, Note_off_c, 7, 50, 64
10, 189432, Note_on_c, 7, 52, 100
10, 189516, Note_off_c, 7, 52, 64
10, 189536, Note_on_c, 7, 54, 100
10, 189616, Note_off_c, 7, 54, 64
10, 189620, Note_on_c, 7, 55, 100
10, 189704, Note_off_c, 7, 55, 64
10, 189728, Note_on_c, 7, 57, 100
10, 189808, Note_off_c, 7, 57, 64
10, 189824, Note_on_c, 7, 58, 100
10, 189904, Note_off_c, 7, 58, 64
10, 189920, Note_on_c, 7, 60, 100
10, 190000, Note_off_c, 7, 60, 64
10, 190008, Note_on_c, 7, 57, 100
10, 190092, Note_off_c, 7, 57, 64
10, 190108, Note_on_c, 7, 54, 100
10, 190192, Note_off_c, 7, 54, 64
10, 190196, Note_on_c, 7, 55, 100
10, 190280, Note_off_c, 7, 55, 64
10, 190292, Note_on_c, 7, 57, 100
10, 190376, Note_off_c, 7, 57, 64
10, 190384, Note_on_c, 7, 58, 100
10, 190468, Note_off_c, 7, 58, 64
10, 190496, Note_on_c, 7, 60, 100
10, 190576, Note_off_c, 7, 60, 64
10, 190584, Note_on_c, 7, 62, 100
10, 190668, Note_off_c, 7, 62, 64
10, 190680, Note_on_c, 7, 63, 100
10, 190948, Note_off_c, 7, 63, 64
10, 190960, Note_on_c, 7, 62, 100
10, 191044, Note_off_c, 7, 62, 64
10, 191056, Note_on_c, 7, 60, 100
10, 191140, Note_off_c, 7, 60, 64
10, 191164, Note_on_c, 7, 58, 100
10, 191248, Note_off_c, 7, 58, 64
10, 191264, Note_on_c, 7, 57, 100
10, 191344, Note_off_c, 7, 57, 64
10, 191344, Note_on_c, 7, 55, 100
10, 191428, Note_off_c, 7, 55, 64
10, 191440, Note_on_c, 7, 54, 100
10, 191616, Note_off_c, 7, 54, 64
10, 191640, Note_on_c, 7, 55, 100
10, 191816, Note_off_c, 7, 55, 64
10, 191824, Note_on_c, 7, 62, 100
10, 192000, Note_off_c, 7, 62, 64
10, 192024, Note_on_c, 7, 50, 100
10, 192200, Note_off_c, 7, 50, 64
10, 192208, Note_on_c, 7, 43, 100
10, 192384, Note_off_c, 7, 43, 64
10, 192400, Note_on_c, 7, 55, 100
10, 192576, Note_off_c, 7, 55, 64
10, 192596, Note_on_c, 7, 55, 100
10, 192772, Note_off_c, 7, 55, 64
10, 192784, Note_on_c, 7, 43, 100
10, 192960, Note_off_c, 7, 43, 64
10, 192980, Note_on_c, 7, 43, 100
10, 193156, Note_off_c, 7, 43, 64
10, 193176, Note_on_c, 7, 55, 100
10, 193352, Note_off_c, 7, 55, 64
10, 193372, Note_on_c, 7, 55, 100
10, 193548, Note_off_c, 7, 55, 64
10, 193564, Note_on_c, 7, 43, 100
10, 193740, Note_off_c, 7, 43, 64
10, 193752, Note_on_c, 7, 43, 100
10, 193928, Note_off_c, 7, 43, 64
10, 193948, Note_on_c, 7, 55, 100
10, 194032, Note_off_c, 7, 55, 64
10, 194040, Note_on_c, 7, 54, 100
10, 194124, Note_off_c, 7, 54, 64
10, 194136, Note_on_c, 7, 52, 100
10, 194312, Note_off_c, 7, 52, 64
10, 194328, Note_on_c, 7, 57, 100
10, 194504, Note_off_c, 7, 57, 64
10, 194516, Note_on_c, 7, 50, 100
10, 194692, Note_off_c, 7, 50, 64
10, 194704, Note_on_c, 7, 62, 100
10, 194788, Note_off_c, 7, 62, 64
10, 194800, Note_on_c, 7, 61, 100
10, 194884, Note_off_c, 7, 61, 64
10, 194908, Note_on_c, 7, 62, 100
10, 195084, Note_off_c, 7, 62, 64
10, 195100, Note_on_c, 7, 50, 100
10, 195276, Note_off_c, 7, 50, 64
10, 195292, Note_on_c, 7, 50, 100
10, 195468, Note_off_c, 7, 50, 64
10, 195484, Note_on_c, 7, 62, 100
10, 195568, Note_off_c, 7, 62, 64
10, 195576, Note_on_c, 7, 61, 100
10, 195660, Note_off_c, 7, 61, 64
10, 195680, Note_on_c, 7, 62, 100
10, 195856, Note_off_c, 7, 62, 64
10, 195860, Note_on_c, 7, 50, 100
10, 196036, Note_off_c, 7, 50, 64
10, 196060, Note_on_c, 7, 50, 100
10, 196236, Note_off_c, 7, 50, 64
10, 196248, Note_on_c, 7, 62, 100
10, 196332, Note_off_c, 7, 62, 64
10, 196344, Note_on_c, 7, 61, 100
10, 196428, Note_off_c, 7, 61, 64
10, 196444, Note_on_c, 7, 62, 100
10, 196620, Note_off_c, 7, 62, 64
10, 196640, Note_on_c, 7, 54, 100
10, 196816, Note_off_c, 7, 54, 64
10, 196820, Note_on_c, 7, 55, 100
10, 196996, Note_off_c, 7, 55, 64
10, 197016, Note_on_c, 7, 52, 100
10, 197192, Note_off_c, 7, 52, 64
10, 197216, Note_on_c, 7, 48, 100
10, 197392, Note_off_c, 7, 48, 64
10, 197408, Note_on_c, 7, 50, 100
10, 197584, Note_off_c, 7, 50, 64
10, 197596, Note_on_c, 7, 52, 100
10, 197772, Note_off_c, 7, 52, 64
10, 197788, Note_on_c, 7, 50, 100
10, 197872, Note_off_c, 7, 50, 64
10, 197872, Note_on_c, 7, 48, 100
10, 197956, Note_off_c, 7, 48, 64
10, 197976, Note_on_c, 7, 47, 100
10, 198152, Note_off_c, 7, 47, 64
10, 198160, Note_on_c, 7, 45, 100
10, 198244, Note_off_c, 7, 45, 64
10, 198260, Note_on_c, 7, 43, 100
10, 198344, Note_off_c, 7, 43, 64
10, 198368, Note_on_c, 7, 48, 100
10, 198544, Note_off_c, 7, 48, 64
10, 198544, Note_on_c, 7, 47, 100
10, 198628, Note_off_c, 7, 47, 64
10, 198648, Note_on_c, 7, 45, 100
10, 198732, Note_off_c, 7, 45, 64
10, 198748, Note_on_c, 7, 43, 100
10, 198924, Note_off_c, 7, 43, 64
10, 198944, Note_on_c, 7, 55, 100
10, 199024, Note_off_c, 7, 55, 64
10, 199040, Note_on_c, 7, 54, 100
10, 199120, Note_off_c, 7, 54, 64
10, 199132, Note_on_c, 7, 52, 100
10, 199308, Note_off_c, 7, 52, 64
10, 199324, Note_on_c, 7, 50, 100
10, 199408, Note_off_c, 7, 50, 64
10, 199424, Note_on_c, 7, 48, 100
10, 199504, Note_off_c, 7, 48, 64
10, 199520, Note_on_c, 7, 47, 100
10, 199696, Note_off_c, 7, 47, 64
10, 199704, Note_on_c, 7, 49, 100
10, 199880, Note_off_c, 7, 49, 64
10, 199904, Note_on_c, 7, 50, 100
10, 200080, Note_off_c, 7, 50, 64
10, 200084, Note_on_c, 7, 38, 100
10, 200260, Note_off_c, 7, 38, 64
10, 200288, Note_on_c, 7, 38, 100
10, 200464, Note_off_c, 7, 38, 64
10, 200480, Note_on_c, 7, 50, 100
10, 200560, Note_off_c, 7, 50, 64
10, 200576, Note_on_c, 7, 52, 100
10, 200656, Note_off_c, 7, 52, 64
10, 200660, Note_on_c, 7, 54, 100
10, 200836, Note_off_c, 7, 54, 64
10, 200848, Note_on_c, 7, 55, 100
10, 201024, Note_off_c, 7, 55, 64
10, 201044, Note_on_c, 7, 57, 100
10, 201220, Note_off_c, 7, 57, 64
10, 201236, Note_on_c, 7, 54, 100
10, 201412, Note_off_c, 7, 54, 64
10, 201440, Note_on_c, 7, 55, 100
10, 201616, Note_off_c, 7, 55, 64
10, 201624, Note_on_c, 7, 60, 100
10, 201800, Note_off_c, 7, 60, 64
10, 201824, Note_on_c, 7, 62, 100
10, 202000, Note_off_c, 7, 62, 64
10, 202012, Note_on_c, 7, 50, 100
10, 202188, Note_off_c, 7, 50, 64
10, 202204, Note_on_c, 7, 55, 100
10, 202380, Note_off_c, 7, 55, 64
10, 202400, Note_on_c, 7, 50, 100
10, 202480, Note_off_c, 7, 50, 64
10, 202492, Note_on_c, 7, 48, 100
10, 202576, Note_off_c, 7, 48, 64
10, 202584, Note_on_c, 7, 50, 100
10, 202760, Note_off_c, 7, 50, 64
10, 202772, Note_on_c, 7, 55, 100
10, 202856, Note_off_c, 7, 55, 64
10, 202868, Note_on_c, 7, 54, 100
10, 202952, Note_off_c, 7, 54, 64
10, 202972, Note_on_c, 7, 55, 100
10, 203148, Note_off_c, 7, 55, 64
10, 206624, Note_on_c, 7, 50, 100
10, 206800, Note_off_c, 7, 50, 64
10, 206808, Note_on_c, 7, 55, 100
10, 206984, Note_off_c, 7, 55, 64
10, 207000, Note_on_c, 7, 54, 100
10, 207084, Note_off_c, 7, 54, 64
10, 207088, Note_on_c, 7, 52, 100
10, 207172, Note_off_c, 7, 52, 64
10, 207192, Note_on_c, 7, 50, 100
10, 207276, Note_off_c, 7, 50, 64
10, 207280, Note_on_c, 7, 48, 100
10, 207364, Note_off_c, 7, 48, 64
10, 207388, Note_on_c, 7, 47, 100
10, 207472, Note_off_c, 7, 47, 64
10, 207488, Note_on_c, 7, 45, 100
10, 207568, Note_off_c, 7, 45, 64
10, 207572, Note_on_c, 7, 47, 100
10, 207748, Note_off_c, 7, 47, 64
10, 207760, Note_on_c, 7, 45, 100
10, 207844, Note_off_c, 7, 45, 64
10, 207856, Note_on_c, 7, 43, 100
10, 207940, Note_off_c, 7, 43, 64
10, 207956, Note_on_c, 7, 50, 100
10, 208132, Note_off_c, 7, 50, 64
10, 208152, Note_on_c, 7, 38, 100
10, 208328, Note_off_c, 7, 38, 64
10, 208352, Note_on_c, 7, 43, 100
10, 209088, Note_off_c, 7, 43, 64
10, 209088, End_track
11, 0, Start_track
11, 0, Title_t, "Cello 3"
11, 0, Control_c, 8, 0, 0
11, 0, Program_c, 8, 61
11, 0, Control_c, 8, 7, 127
11, 0, Control_c, 8, 10, 127
11, 0, Control_c, 8, 91, 120
11, 0, Control_c, 8, 93, 96
11, 0, Pitch_bend_c, 8, 8192
11, 4, Control_c, 8, 1, 0
11, 8, Control_c, 8, 64, 0
11, 24, Note_on_c, 8, 31, 100
11, 200, Note_off_c, 8, 31, 64
11, 224, Note_on_c, 8, 31, 100
11, 400, Note_off_c, 8, 31, 64
11, 408, Note_on_c, 8, 43, 100
11, 584, Note_off_c, 8, 43, 64
11, 600, Note_on_c, 8, 43, 100
11, 776, Note_off_c, 8, 43, 64
11, 800, Note_on_c, 8, 31, 100
11, 976, Note_off_c, 8, 31, 64
11, 992, Note_on_c, 8, 31, 100
11, 1168, Note_off_c, 8, 31, 64
11, 1168, Note_on_c, 8, 43, 100
11, 1344, Note_off_c, 8, 43, 64
11, 1376, Note_on_c, 8, 43, 100
11, 1552, Note_off_c, 8, 43, 64
11, 1560, Note_on_c, 8, 31, 100
11, 1736, Note_off_c, 8, 31, 64
11, 1760, Note_on_c, 8, 31, 100
11, 1936, Note_off_c, 8, 31, 64
11, 1952, Note_on_c, 8, 43, 100
11, 2032, Note_off_c, 8, 43, 64
11, 2048, Note_on_c, 8, 42, 100
11, 2128, Note_off_c, 8, 42, 64
11, 2132, Note_on_c, 8, 40, 100
11, 2308, Note_off_c, 8, 40, 64
11, 2332, Note_on_c, 8, 45, 100
11, 2508, Note_off_c, 8, 45, 64
11, 2520, Note_on_c, 8, 38, 100
11, 2696, Note_off_c, 8, 38, 64
11, 2712, Note_on_c, 8, 50, 100
11, 2796, Note_off_c, 8, 50, 64
11, 2804, Note_on_c, 8, 49, 100
11, 2888, Note_off_c, 8, 49, 64
11, 2900, Note_on_c, 8, 50, 100
11, 3076, Note_off_c, 8, 50, 64
11, 3100, Note_on_c, 8, 38, 100
11, 3276, Note_off_c, 8, 38, 64
11, 3280, Note_on_c, 8, 38, 100
11, 3456, Note_off_c, 8, 38, 64
11, 3484, Note_on_c, 8, 50, 100
11, 3568, Note_off_c, 8, 50, 64
11, 3576, Note_on_c, 8, 49, 100
11, 3660, Note_off_c, 8, 49, 64
11, 3676, Note_on_c, 8, 50, 100
11, 3852, Note_off_c, 8, 50, 64
11, 3872, Note_on_c, 8, 38, 100
11, 4048, Note_off_c, 8, 38, 64
11, 4064, Note_on_c, 8, 38, 100
11, 4240, Note_off_c, 8, 38, 64
11, 4240, Note_on_c, 8, 50, 100
11, 4324, Note_off_c, 8, 50, 64
11, 4352, Note_on_c, 8, 49, 100
11, 4432, Note_off_c, 8, 49, 64
11, 4448, Note_on_c, 8, 50, 100
11, 4624, Note_off_c, 8, 50, 64
11, 4624, Note_on_c, 8, 38, 100
11, 4800, Note_off_c, 8, 38, 64
11, 4828, Note_on_c, 8, 43, 100
11, 5004, Note_off_c, 8, 43, 64
11, 5020, Note_on_c, 8, 40, 100
11, 5196, Note_off_c, 8, 40, 64
11, 5200, Note_on_c, 8, 36, 100
11, 5376, Note_off_c, 8, 36, 64
11, 5392, Note_on_c, 8, 38, 100
11, 5568, Note_off_c, 8, 38, 64
11, 5596, Note_on_c, 8, 40, 100
11, 5772, Note_off_c, 8, 40, 64
11, 5776, Note_on_c, 8, 38, 100
11, 5860, Note_off_c, 8, 38, 64
11, 5888, Note_on_c, 8, 36, 100
11, 5968, Note_off_c, 8, 36, 64
11, 5984, Note_on_c, 8, 35, 100
11, 6160, Note_off_c, 8, 35, 64
11, 6172, Note_on_c, 8, 33, 100
11, 6256, Note_off_c, 8, 33, 64
11, 6260, Note_on_c, 8, 31, 100
11, 6344, Note_off_c, 8, 31, 64
11, 6360, Note_on_c, 8, 36, 100
11, 6536, Note_off_c, 8, 36, 64
11, 6560, Note_on_c, 8, 35, 100
11, 6640, Note_off_c, 8, 35, 64
11, 6644, Note_on_c, 8, 33, 100
11, 6728, Note_off_c, 8, 33, 64
11, 6744, Note_on_c, 8, 31, 100
11, 6920, Note_off_c, 8, 31, 64
11, 6936, Note_on_c, 8, 43, 100
11, 7020, Note_off_c, 8, 43, 64
11, 7024, Note_on_c, 8, 42, 100
11, 7108, Note_off_c, 8, 42, 64
11, 7136, Note_on_c, 8, 40, 100
11, 7312, Note_off_c, 8, 40, 64
11, 7320, Note_on_c, 8, 38, 100
11, 7404, Note_off_c, 8, 38, 64
11, 7412, Note_on_c, 8, 36, 100
11, 7496, Note_off_c, 8, 36, 64
11, 7520, Note_on_c, 8, 35, 100
11, 7696, Note_off_c, 8, 35, 64
11, 7708, Note_on_c, 8, 37, 100
11, 7884, Note_off_c, 8, 37, 64
11, 7888, Note_on_c, 8, 38, 100
11, 8064, Note_off_c, 8, 38, 64
11, 8084, Note_on_c, 8, 26, 100
11, 8260, Note_off_c, 8, 26, 64
11, 8276, Note_on_c, 8, 26, 100
11, 8452, Note_off_c, 8, 26, 64
11, 8480, Note_on_c, 8, 38, 100
11, 8560, Note_off_c, 8, 38, 64
11, 8564, Note_on_c, 8, 40, 100
11, 8648, Note_off_c, 8, 40, 64
11, 8672, Note_on_c, 8, 42, 100
11, 8848, Note_off_c, 8, 42, 64
11, 8864, Note_on_c, 8, 43, 100
11, 9040, Note_off_c, 8, 43, 64
11, 9056, Note_on_c, 8, 45, 100
11, 9232, Note_off_c, 8, 45, 64
11, 9236, Note_on_c, 8, 42, 100
11, 9412, Note_off_c, 8, 42, 64
11, 9432, Note_on_c, 8, 43, 100
11, 9608, Note_off_c, 8, 43, 64
11, 9632, Note_on_c, 8, 48, 100
11, 9808, Note_off_c, 8, 48, 64
11, 9812, Note_on_c, 8, 50, 100
11, 9988, Note_off_c, 8, 50, 64
11, 10016, Note_on_c, 8, 38, 100
11, 10192, Note_off_c, 8, 38, 64
11, 10200, Note_on_c, 8, 43, 100
11, 10376, Note_off_c, 8, 43, 64
11, 10384, Note_on_c, 8, 42, 100
11, 10468, Note_off_c, 8, 42, 64
11, 10492, Note_on_c, 8, 40, 100
11, 10576, Note_off_c, 8, 40, 64
11, 10584, Note_on_c, 8, 38, 100
11, 10668, Note_off_c, 8, 38, 64
11, 10688, Note_on_c, 8, 36, 100
11, 10768, Note_off_c, 8, 36, 64
11, 10780, Note_on_c, 8, 35, 100
11, 10864, Note_off_c, 8, 35, 64
11, 10864, Note_on_c, 8, 33, 100
11, 10948, Note_off_c, 8, 33, 64
11, 10964, Note_on_c, 8, 35, 100
11, 11140, Note_off_c, 8, 35, 64
11, 11168, Note_on_c, 8, 33, 100
11, 11248, Note_off_c, 8, 33, 64
11, 11260, Note_on_c, 8, 31, 100
11, 11344, Note_off_c, 8, 31, 64
11, 11344, Note_on_c, 8, 38, 100
11, 11520, Note_off_c, 8, 38, 64
11, 11536, Note_on_c, 8, 26, 100
11, 11712, Note_off_c, 8, 26, 64
11, 11728, Note_on_c, 8, 31, 100
11, 12092, Note_off_c, 8, 31, 64
11, 12312, Note_on_c, 8, 38, 100
11, 12488, Note_off_c, 8, 38, 64
11, 12500, Note_on_c, 8, 31, 100
11, 12864, Note_off_c, 8, 31, 64
11, 13852, Note_on_c, 8, 38, 100
11, 13936, Note_off_c, 8, 38, 64
11, 13948, Note_on_c, 8, 36, 100
11, 14032, Note_off_c, 8, 36, 64
11, 14236, Note_on_c, 8, 31, 100
11, 14320, Note_off_c, 8, 31, 64
11, 14324, Note_on_c, 8, 33, 100
11, 14408, Note_off_c, 8, 33, 64
11, 14424, Note_on_c, 8, 35, 100
11, 14600, Note_off_c, 8, 35, 64
11, 14608, Note_on_c, 8, 37, 100
11, 14784, Note_off_c, 8, 37, 64
11, 14816, Note_on_c, 8, 38, 100
11, 15176, Note_off_c, 8, 38, 64
11, 15384, Note_on_c, 8, 45, 100
11, 15560, Note_off_c, 8, 45, 64
11, 15584, Note_on_c, 8, 50, 100
11, 15944, Note_off_c, 8, 50, 64
11, 16148, Note_on_c, 8, 45, 100
11, 16324, Note_off_c, 8, 45, 64
11, 16336, Note_on_c, 8, 38, 100
11, 16700, Note_off_c, 8, 38, 64
11, 16924, Note_on_c, 8, 33, 100
11, 17100, Note_off_c, 8, 33, 64
11, 17104, Note_on_c, 8, 26, 100
11, 17280, Note_off_c, 8, 26, 64
11, 17300, Note_on_c, 8, 35, 100
11, 17476, Note_off_c, 8, 35, 64
11, 17504, Note_on_c, 8, 31, 100
11, 17680, Note_off_c, 8, 31, 64
11, 17684, Note_on_c, 8, 33, 100
11, 17860, Note_off_c, 8, 33, 64
11, 17880, Note_on_c, 8, 35, 100
11, 18056, Note_off_c, 8, 35, 64
11, 18076, Note_on_c, 8, 33, 100
11, 18160, Note_off_c, 8, 33, 64
11, 18176, Note_on_c, 8, 31, 100
11, 18256, Note_off_c, 8, 31, 64
11, 18268, Note_on_c, 8, 30, 100
11, 18444, Note_off_c, 8, 30, 64
11, 18452, Note_on_c, 8, 28, 100
11, 18536, Note_off_c, 8, 28, 64
11, 18548, Note_on_c, 8, 26, 100
11, 18632, Note_off_c, 8, 26, 64
11, 18656, Note_on_c, 8, 31, 100
11, 18832, Note_off_c, 8, 31, 64
11, 18832, Note_on_c, 8, 30, 100
11, 18916, Note_off_c, 8, 30, 64
11, 18928, Note_on_c, 8, 28, 100
11, 19012, Note_off_c, 8, 28, 64
11, 19028, Note_on_c, 8, 26, 100
11, 19204, Note_off_c, 8, 26, 64
11, 19228, Note_on_c, 8, 50, 100
11, 19312, Note_off_c, 8, 50, 64
11, 19316, Note_on_c, 8, 49, 100
11, 19400, Note_off_c, 8, 49, 64
11, 19420, Note_on_c, 8, 47, 100
11, 19596, Note_off_c, 8, 47, 64
11, 19600, Note_on_c, 8, 45, 100
11, 19684, Note_off_c, 8, 45, 64
11, 19712, Note_on_c, 8, 43, 100
11, 19792, Note_off_c, 8, 43, 64
11, 19804, Note_on_c, 8, 42, 100
11, 19980, Note_off_c, 8, 42, 64
11, 19988, Note_on_c, 8, 44, 100
11, 20164, Note_off_c, 8, 44, 64
11, 20188, Note_on_c, 8, 45, 100
11, 20364, Note_off_c, 8, 45, 64
11, 20372, Note_on_c, 8, 33, 100
11, 20548, Note_off_c, 8, 33, 64
11, 20564, Note_on_c, 8, 33, 100
11, 20740, Note_off_c, 8, 33, 64
11, 20764, Note_on_c, 8, 45, 100
11, 20848, Note_off_c, 8, 45, 64
11, 20856, Note_on_c, 8, 47, 100
11, 20940, Note_off_c, 8, 47, 64
11, 20960, Note_on_c, 8, 49, 100
11, 21136, Note_off_c, 8, 49, 64
11, 21144, Note_on_c, 8, 50, 100
11, 21320, Note_off_c, 8, 50, 64
11, 21332, Note_on_c, 8, 52, 100
11, 21508, Note_off_c, 8, 52, 64
11, 21528, Note_on_c, 8, 49, 100
11, 21704, Note_off_c, 8, 49, 64
11, 21712, Note_on_c, 8, 50, 100
11, 21888, Note_off_c, 8, 50, 64
11, 21904, Note_on_c, 8, 43, 100
11, 22080, Note_off_c, 8, 43, 64
11, 22100, Note_on_c, 8, 45, 100
11, 22276, Note_off_c, 8, 45, 64
11, 22296, Note_on_c, 8, 33, 100
11, 22472, Note_off_c, 8, 33, 64
11, 22480, Note_on_c, 8, 38, 100
11, 22656, Note_off_c, 8, 38, 64
11, 22684, Note_on_c, 8, 38, 100
11, 22768, Note_off_c, 8, 38, 64
11, 22776, Note_on_c, 8, 48, 100
11, 22860, Note_off_c, 8, 48, 64
11, 22864, Note_on_c, 8, 47, 100
11, 22948, Note_off_c, 8, 47, 64
11, 22968, Note_on_c, 8, 48, 100
11, 23052, Note_off_c, 8, 48, 64
11, 23060, Note_on_c, 8, 47, 100
11, 23144, Note_off_c, 8, 47, 64
11, 23164, Note_on_c, 8, 45, 100
11, 23248, Note_off_c, 8, 45, 64
11, 23252, Note_on_c, 8, 43, 100
11, 23616, Note_off_c, 8, 43, 64
11, 24596, Note_on_c, 8, 59, 100
11, 24680, Note_off_c, 8, 59, 64
11, 24688, Note_on_c, 8, 57, 100
11, 24772, Note_off_c, 8, 57, 64
11, 24800, Note_on_c, 8, 55, 100
11, 24976, Note_off_c, 8, 55, 64
11, 24980, Note_on_c, 8, 31, 100
11, 25064, Note_off_c, 8, 31, 64
11, 25084, Note_on_c, 8, 33, 100
11, 25168, Note_off_c, 8, 33, 64
11, 25184, Note_on_c, 8, 35, 100
11, 25360, Note_off_c, 8, 35, 64
11, 25376, Note_on_c, 8, 37, 100
11, 25552, Note_off_c, 8, 37, 64
11, 25560, Note_on_c, 8, 38, 100
11, 25920, Note_off_c, 8, 38, 64
11, 26140, Note_on_c, 8, 45, 100
11, 26316, Note_off_c, 8, 45, 64
11, 26336, Note_on_c, 8, 38, 100
11, 26696, Note_off_c, 8, 38, 64
11, 26908, Note_on_c, 8, 45, 100
11, 27084, Note_off_c, 8, 45, 64
11, 27092, Note_on_c, 8, 38, 100
11, 27456, Note_off_c, 8, 38, 64
11, 27672, Note_on_c, 8, 33, 100
11, 27848, Note_off_c, 8, 33, 64
11, 27856, Note_on_c, 8, 26, 100
11, 28032, Note_off_c, 8, 26, 64
11, 28052, Note_on_c, 8, 38, 100
11, 28228, Note_off_c, 8, 38, 64
11, 28248, Note_on_c, 8, 38, 100
11, 28424, Note_off_c, 8, 38, 64
11, 28436, Note_on_c, 8, 26, 100
11, 28612, Note_off_c, 8, 26, 64
11, 28640, Note_on_c, 8, 26, 100
11, 28816, Note_off_c, 8, 26, 64
11, 28824, Note_on_c, 8, 38, 100
11, 29000, Note_off_c, 8, 38, 64
11, 29020, Note_on_c, 8, 38, 100
11, 29196, Note_off_c, 8, 38, 64
11, 29212, Note_on_c, 8, 26, 100
11, 29388, Note_off_c, 8, 26, 64
11, 29404, Note_on_c, 8, 26, 100
11, 29580, Note_off_c, 8, 26, 64
11, 29584, Note_on_c, 8, 38, 100
11, 29668, Note_off_c, 8, 38, 64
11, 29684, Note_on_c, 8, 37, 100
11, 29768, Note_off_c, 8, 37, 64
11, 29784, Note_on_c, 8, 35, 100
11, 29960, Note_off_c, 8, 35, 64
11, 29976, Note_on_c, 8, 40, 100
11, 30152, Note_off_c, 8, 40, 64
11, 30164, Note_on_c, 8, 33, 100
11, 30528, Note_off_c, 8, 33, 64
11, 30748, Note_on_c, 8, 33, 100
11, 30924, Note_off_c, 8, 33, 64
11, 30944, Note_on_c, 8, 40, 100
11, 31304, Note_off_c, 8, 40, 64
11, 31520, Note_on_c, 8, 40, 100
11, 31696, Note_off_c, 8, 40, 64
11, 31712, Note_on_c, 8, 35, 100
11, 32072, Note_off_c, 8, 35, 64
11, 32284, Note_on_c, 8, 35, 100
11, 32460, Note_off_c, 8, 35, 64
11, 32468, Note_on_c, 8, 42, 100
11, 32644, Note_off_c, 8, 42, 64
11, 32660, Note_on_c, 8, 47, 100
11, 32744, Note_off_c, 8, 47, 64
11, 32760, Note_on_c, 8, 45, 100
11, 32844, Note_off_c, 8, 45, 64
11, 32860, Note_on_c, 8, 47, 100
11, 33036, Note_off_c, 8, 47, 64
11, 33048, Note_on_c, 8, 40, 100
11, 33132, Note_off_c, 8, 40, 64
11, 33136, Note_on_c, 8, 38, 100
11, 33220, Note_off_c, 8, 38, 64
11, 33248, Note_on_c, 8, 40, 100
11, 33424, Note_off_c, 8, 40, 64
11, 33436, Note_on_c, 8, 45, 100
11, 33520, Note_off_c, 8, 45, 64
11, 33536, Note_on_c, 8, 43, 100
11, 33616, Note_off_c, 8, 43, 64
11, 33628, Note_on_c, 8, 45, 100
11, 33804, Note_off_c, 8, 45, 64
11, 33820, Note_on_c, 8, 38, 100
11, 33904, Note_off_c, 8, 38, 64
11, 33908, Note_on_c, 8, 37, 100
11, 33992, Note_off_c, 8, 37, 64
11, 34012, Note_on_c, 8, 38, 100
11, 34188, Note_off_c, 8, 38, 64
11, 34208, Note_on_c, 8, 43, 100
11, 34384, Note_off_c, 8, 43, 64
11, 34396, Note_on_c, 8, 45, 100
11, 34572, Note_off_c, 8, 45, 64
11, 34580, Note_on_c, 8, 33, 100
11, 34756, Note_off_c, 8, 33, 64
11, 34784, Note_on_c, 8, 38, 100
11, 34960, Note_off_c, 8, 38, 64
11, 34972, Note_on_c, 8, 50, 100
11, 35056, Note_off_c, 8, 50, 64
11, 35056, Note_on_c, 8, 49, 100
11, 35140, Note_off_c, 8, 49, 64
11, 35152, Note_on_c, 8, 50, 100
11, 35328, Note_off_c, 8, 50, 64
11, 35732, Note_on_c, 8, 50, 100
11, 35816, Note_off_c, 8, 50, 64
11, 35840, Note_on_c, 8, 49, 100
11, 35920, Note_off_c, 8, 49, 64
11, 35920, Note_on_c, 8, 50, 100
11, 36096, Note_off_c, 8, 50, 64
11, 36500, Note_on_c, 8, 38, 100
11, 36584, Note_off_c, 8, 38, 64
11, 36604, Note_on_c, 8, 37, 100
11, 36688, Note_off_c, 8, 37, 64
11, 36700, Note_on_c, 8, 38, 100
11, 36876, Note_off_c, 8, 38, 64
11, 37280, Note_on_c, 8, 38, 100
11, 37360, Note_off_c, 8, 38, 64
11, 37368, Note_on_c, 8, 37, 100
11, 37452, Note_off_c, 8, 37, 64
11, 37456, Note_on_c, 8, 38, 100
11, 37632, Note_off_c, 8, 38, 64
11, 38032, Note_on_c, 8, 38, 100
11, 38116, Note_off_c, 8, 38, 64
11, 38140, Note_on_c, 8, 37, 100
11, 38224, Note_off_c, 8, 37, 64
11, 38236, Note_on_c, 8, 38, 100
11, 38412, Note_off_c, 8, 38, 64
11, 38428, Note_on_c, 8, 38, 100
11, 38604, Note_off_c, 8, 38, 64
11, 38616, Note_on_c, 8, 31, 100
11, 38792, Note_off_c, 8, 31, 64
11, 38800, Note_on_c, 8, 43, 100
11, 38884, Note_off_c, 8, 43, 64
11, 38908, Note_on_c, 8, 42, 100
11, 38992, Note_off_c, 8, 42, 64
11, 38996, Note_on_c, 8, 43, 100
11, 39172, Note_off_c, 8, 43, 64
11, 39584, Note_on_c, 8, 43, 100
11, 39664, Note_off_c, 8, 43, 64
11, 39664, Note_on_c, 8, 42, 100
11, 39748, Note_off_c, 8, 42, 64
11, 39760, Note_on_c, 8, 43, 100
11, 39936, Note_off_c, 8, 43, 64
11, 40336, Note_on_c, 8, 31, 100
11, 40420, Note_off_c, 8, 31, 64
11, 40444, Note_on_c, 8, 30, 100
11, 40528, Note_off_c, 8, 30, 64
11, 40540, Note_on_c, 8, 31, 100
11, 40716, Note_off_c, 8, 31, 64
11, 41112, Note_on_c, 8, 31, 100
11, 41196, Note_off_c, 8, 31, 64
11, 41212, Note_on_c, 8, 30, 100
11, 41296, Note_off_c, 8, 30, 64
11, 41304, Note_on_c, 8, 31, 100
11, 41480, Note_off_c, 8, 31, 64
11, 41884, Note_on_c, 8, 43, 100
11, 41968, Note_off_c, 8, 43, 64
11, 41980, Note_on_c, 8, 41, 100
11, 42064, Note_off_c, 8, 41, 64
11, 42064, Note_on_c, 8, 43, 100
11, 42240, Note_off_c, 8, 43, 64
11, 42260, Note_on_c, 8, 31, 100
11, 42436, Note_off_c, 8, 31, 64
11, 42456, Note_on_c, 8, 36, 100
11, 42816, Note_off_c, 8, 36, 64
11, 42936, Note_on_c, 8, 35, 100
11, 43020, Note_off_c, 8, 35, 64
11, 43028, Note_on_c, 8, 36, 100
11, 43112, Note_off_c, 8, 36, 64
11, 43136, Note_on_c, 8, 38, 100
11, 43216, Note_off_c, 8, 38, 64
11, 43224, Note_on_c, 8, 40, 100
11, 43400, Note_off_c, 8, 40, 64
11, 43420, Note_on_c, 8, 45, 100
11, 43504, Note_off_c, 8, 45, 64
11, 43512, Note_on_c, 8, 43, 100
11, 43596, Note_off_c, 8, 43, 64
11, 43608, Note_on_c, 8, 45, 100
11, 43784, Note_off_c, 8, 45, 64
11, 43804, Note_on_c, 8, 38, 100
11, 43888, Note_off_c, 8, 38, 64
11, 43892, Note_on_c, 8, 36, 100
11, 43976, Note_off_c, 8, 36, 64
11, 44000, Note_on_c, 8, 38, 100
11, 44176, Note_off_c, 8, 38, 64
11, 44180, Note_on_c, 8, 43, 100
11, 44264, Note_off_c, 8, 43, 64
11, 44276, Note_on_c, 8, 41, 100
11, 44360, Note_off_c, 8, 41, 64
11, 44368, Note_on_c, 8, 43, 100
11, 44544, Note_off_c, 8, 43, 64
11, 44576, Note_on_c, 8, 36, 100
11, 44656, Note_off_c, 8, 36, 64
11, 44656, Note_on_c, 8, 35, 100
11, 44740, Note_off_c, 8, 35, 64
11, 44760, Note_on_c, 8, 36, 100
11, 44936, Note_off_c, 8, 36, 64
11, 44960, Note_on_c, 8, 41, 100
11, 45040, Note_off_c, 8, 41, 64
11, 45040, Note_on_c, 8, 40, 100
11, 45124, Note_off_c, 8, 40, 64
11, 45140, Note_on_c, 8, 41, 100
11, 45600, Note_off_c, 8, 41, 64
11, 45624, Note_on_c, 8, 43, 100
11, 45708, Note_off_c, 8, 43, 64
11, 45728, Note_on_c, 8, 41, 100
11, 45808, Note_off_c, 8, 41, 64
11, 45820, Note_on_c, 8, 40, 100
11, 45904, Note_off_c, 8, 40, 64
11, 45904, Note_on_c, 8, 38, 100
11, 45988, Note_off_c, 8, 38, 64
11, 46000, Note_on_c, 8, 36, 100
11, 46084, Note_off_c, 8, 36, 64
11, 46100, Note_on_c, 8, 35, 100
11, 46184, Note_off_c, 8, 35, 64
11, 46196, Note_on_c, 8, 33, 100
11, 46280, Note_off_c, 8, 33, 64
11, 46296, Note_on_c, 8, 31, 100
11, 46472, Note_off_c, 8, 31, 64
11, 46484, Note_on_c, 8, 36, 100
11, 46660, Note_off_c, 8, 36, 64
11, 46688, Note_on_c, 8, 43, 100
11, 46864, Note_off_c, 8, 43, 64
11, 46872, Note_on_c, 8, 31, 100
11, 47048, Note_off_c, 8, 31, 64
11, 47072, Note_on_c, 8, 36, 100
11, 47432, Note_off_c, 8, 36, 64
11, 47632, Note_on_c, 8, 48, 100
11, 47716, Note_off_c, 8, 48, 64
11, 47728, Note_on_c, 8, 47, 100
11, 47812, Note_off_c, 8, 47, 64
11, 47840, Note_on_c, 8, 48, 100
11, 48016, Note_off_c, 8, 48, 64
11, 48032, Note_on_c, 8, 43, 100
11, 48112, Note_off_c, 8, 43, 64
11, 48124, Note_on_c, 8, 41, 100
11, 48208, Note_off_c, 8, 41, 64
11, 48220, Note_on_c, 8, 43, 100
11, 48396, Note_off_c, 8, 43, 64
11, 48400, Note_on_c, 8, 48, 100
11, 48484, Note_off_c, 8, 48, 64
11, 48500, Note_on_c, 8, 47, 100
11, 48584, Note_off_c, 8, 47, 64
11, 48596, Note_on_c, 8, 48, 100
11, 48772, Note_off_c, 8, 48, 64
11, 48792, Note_on_c, 8, 40, 100
11, 48876, Note_off_c, 8, 40, 64
11, 48892, Note_on_c, 8, 38, 100
11, 48976, Note_off_c, 8, 38, 64
11, 48992, Note_on_c, 8, 40, 100
11, 49168, Note_off_c, 8, 40, 64
11, 49184, Note_on_c, 8, 48, 100
11, 49264, Note_off_c, 8, 48, 64
11, 49272, Note_on_c, 8, 47, 100
11, 49356, Note_off_c, 8, 47, 64
11, 49376, Note_on_c, 8, 48, 100
11, 49552, Note_off_c, 8, 48, 64
11, 49556, Note_on_c, 8, 36, 100
11, 49640, Note_off_c, 8, 36, 64
11, 49656, Note_on_c, 8, 38, 100
11, 49740, Note_off_c, 8, 38, 64
11, 49744, Note_on_c, 8, 40, 100
11, 49920, Note_off_c, 8, 40, 64
11, 49948, Note_on_c, 8, 42, 100
11, 50124, Note_off_c, 8, 42, 64
11, 50128, Note_on_c, 8, 43, 100
11, 50304, Note_off_c, 8, 43, 64
11, 50328, Note_on_c, 8, 31, 100
11, 50504, Note_off_c, 8, 31, 64
11, 50716, Note_on_c, 8, 43, 100
11, 50800, Note_off_c, 8, 43, 64
11, 50812, Note_on_c, 8, 42, 100
11, 50896, Note_off_c, 8, 42, 64
11, 50904, Note_on_c, 8, 43, 100
11, 51080, Note_off_c, 8, 43, 64
11, 51096, Note_on_c, 8, 38, 100
11, 51180, Note_off_c, 8, 38, 64
11, 51196, Note_on_c, 8, 36, 100
11, 51280, Note_off_c, 8, 36, 64
11, 51296, Note_on_c, 8, 38, 100
11, 51472, Note_off_c, 8, 38, 64
11, 51472, Note_on_c, 8, 43, 100
11, 51556, Note_off_c, 8, 43, 64
11, 51568, Note_on_c, 8, 42, 100
11, 51652, Note_off_c, 8, 42, 64
11, 51668, Note_on_c, 8, 43, 100
11, 51844, Note_off_c, 8, 43, 64
11, 51868, Note_on_c, 8, 35, 100
11, 51952, Note_off_c, 8, 35, 64
11, 51956, Note_on_c, 8, 33, 100
11, 52040, Note_off_c, 8, 33, 64
11, 52064, Note_on_c, 8, 35, 100
11, 52240, Note_off_c, 8, 35, 64
11, 52248, Note_on_c, 8, 43, 100
11, 52332, Note_off_c, 8, 43, 64
11, 52352, Note_on_c, 8, 42, 100
11, 52432, Note_off_c, 8, 42, 64
11, 52448, Note_on_c, 8, 43, 100
11, 52624, Note_off_c, 8, 43, 64
11, 52632, Note_on_c, 8, 31, 100
11, 52716, Note_off_c, 8, 31, 64
11, 52728, Note_on_c, 8, 33, 100
11, 52812, Note_off_c, 8, 33, 64
11, 52820, Note_on_c, 8, 35, 100
11, 52996, Note_off_c, 8, 35, 64
11, 53016, Note_on_c, 8, 37, 100
11, 53192, Note_off_c, 8, 37, 64
11, 53216, Note_on_c, 8, 38, 100
11, 53392, Note_off_c, 8, 38, 64
11, 53400, Note_on_c, 8, 38, 100
11, 53576, Note_off_c, 8, 38, 64
11, 53596, Note_on_c, 8, 38, 100
11, 53772, Note_off_c, 8, 38, 64
11, 53784, Note_on_c, 8, 38, 100
11, 53960, Note_off_c, 8, 38, 64
11, 53968, Note_on_c, 8, 38, 100
11, 54152, Note_off_c, 8, 38, 64
11, 54160, Note_on_c, 8, 38, 100
11, 54336, Note_off_c, 8, 38, 64
11, 54360, Note_on_c, 8, 38, 100
11, 54536, Note_off_c, 8, 38, 64
11, 54560, Note_on_c, 8, 38, 100
11, 54736, Note_off_c, 8, 38, 64
11, 54744, Note_on_c, 8, 38, 100
11, 54920, Note_off_c, 8, 38, 64
11, 54936, Note_on_c, 8, 38, 100
11, 55112, Note_off_c, 8, 38, 64
11, 55132, Note_on_c, 8, 38, 100
11, 55308, Note_off_c, 8, 38, 64
11, 55316, Note_on_c, 8, 38, 100
11, 55492, Note_off_c, 8, 38, 64
11, 55504, Note_on_c, 8, 47, 100
11, 55680, Note_off_c, 8, 47, 64
11, 55712, Note_on_c, 8, 45, 100
11, 55792, Note_off_c, 8, 45, 64
11, 55808, Note_on_c, 8, 43, 100
11, 55888, Note_off_c, 8, 43, 64
11, 55888, Note_on_c, 8, 45, 100
11, 56064, Note_off_c, 8, 45, 64
11, 56084, Note_on_c, 8, 43, 100
11, 56168, Note_off_c, 8, 43, 64
11, 56188, Note_on_c, 8, 42, 100
11, 56272, Note_off_c, 8, 42, 64
11, 56284, Note_on_c, 8, 43, 100
11, 56464, Note_off_c, 8, 43, 64
11, 56472, Note_on_c, 8, 43, 100
11, 56648, Note_off_c, 8, 43, 64
11, 56672, Note_on_c, 8, 43, 100
11, 56848, Note_off_c, 8, 43, 64
11, 56860, Note_on_c, 8, 43, 100
11, 57036, Note_off_c, 8, 43, 64
11, 57052, Note_on_c, 8, 43, 100
11, 57228, Note_off_c, 8, 43, 64
11, 57248, Note_on_c, 8, 43, 100
11, 57424, Note_off_c, 8, 43, 64
11, 57428, Note_on_c, 8, 43, 100
11, 57604, Note_off_c, 8, 43, 64
11, 57628, Note_on_c, 8, 43, 100
11, 57804, Note_off_c, 8, 43, 64
11, 57808, Note_on_c, 8, 43, 100
11, 57984, Note_off_c, 8, 43, 64
11, 58008, Note_on_c, 8, 43, 100
11, 58184, Note_off_c, 8, 43, 64
11, 58200, Note_on_c, 8, 43, 100
11, 58384, Note_off_c, 8, 43, 64
11, 58400, Note_on_c, 8, 43, 100
11, 58576, Note_off_c, 8, 43, 64
11, 58584, Note_on_c, 8, 43, 100
11, 58760, Note_off_c, 8, 43, 64
11, 58772, Note_on_c, 8, 31, 100
11, 58948, Note_off_c, 8, 31, 64
11, 58960, Note_on_c, 8, 31, 100
11, 59136, Note_off_c, 8, 31, 64
11, 59160, Note_on_c, 8, 43, 100
11, 59336, Note_off_c, 8, 43, 64
11, 59352, Note_on_c, 8, 43, 100
11, 59528, Note_off_c, 8, 43, 64
11, 59540, Note_on_c, 8, 31, 100
11, 59716, Note_off_c, 8, 31, 64
11, 59740, Note_on_c, 8, 31, 100
11, 59916, Note_off_c, 8, 31, 64
11, 59920, Note_on_c, 8, 43, 100
11, 60004, Note_off_c, 8, 43, 64
11, 60020, Note_on_c, 8, 42, 100
11, 60104, Note_off_c, 8, 42, 64
11, 60112, Note_on_c, 8, 43, 100
11, 60288, Note_off_c, 8, 43, 64
11, 60316, Note_on_c, 8, 31, 100
11, 60400, Note_off_c, 8, 31, 64
11, 60400, Note_on_c, 8, 33, 100
11, 60484, Note_off_c, 8, 33, 64
11, 60504, Note_on_c, 8, 35, 100
11, 60680, Note_off_c, 8, 35, 64
11, 60700, Note_on_c, 8, 37, 100
11, 60876, Note_off_c, 8, 37, 64
11, 60880, Note_on_c, 8, 38, 100
11, 61056, Note_off_c, 8, 38, 64
11, 61084, Note_on_c, 8, 26, 100
11, 61260, Note_off_c, 8, 26, 64
11, 61280, Note_on_c, 8, 26, 100
11, 61456, Note_off_c, 8, 26, 64
11, 61468, Note_on_c, 8, 38, 100
11, 61552, Note_off_c, 8, 38, 64
11, 61564, Note_on_c, 8, 49, 100
11, 61648, Note_off_c, 8, 49, 64
11, 61656, Note_on_c, 8, 50, 100
11, 61832, Note_off_c, 8, 50, 64
11, 61856, Note_on_c, 8, 38, 100
11, 62032, Note_off_c, 8, 38, 64
11, 62044, Note_on_c, 8, 26, 100
11, 62220, Note_off_c, 8, 26, 64
11, 62236, Note_on_c, 8, 38, 100
11, 62320, Note_off_c, 8, 38, 64
11, 62320, Note_on_c, 8, 37, 100
11, 62404, Note_off_c, 8, 37, 64
11, 62416, Note_on_c, 8, 38, 100
11, 62592, Note_off_c, 8, 38, 64
11, 62624, Note_on_c, 8, 26, 100
11, 62800, Note_off_c, 8, 26, 64
11, 62816, Note_on_c, 8, 26, 100
11, 62992, Note_off_c, 8, 26, 64
11, 63008, Note_on_c, 8, 42, 100
11, 63184, Note_off_c, 8, 42, 64
11, 63192, Note_on_c, 8, 43, 100
11, 63368, Note_off_c, 8, 43, 64
11, 63380, Note_on_c, 8, 40, 100
11, 63556, Note_off_c, 8, 40, 64
11, 63584, Note_on_c, 8, 36, 100
11, 63760, Note_off_c, 8, 36, 64
11, 63760, Note_on_c, 8, 38, 100
11, 63936, Note_off_c, 8, 38, 64
11, 63968, Note_on_c, 8, 40, 100
11, 64144, Note_off_c, 8, 40, 64
11, 64148, Note_on_c, 8, 38, 100
11, 64232, Note_off_c, 8, 38, 64
11, 64240, Note_on_c, 8, 36, 100
11, 64324, Note_off_c, 8, 36, 64
11, 64340, Note_on_c, 8, 35, 100
11, 64516, Note_off_c, 8, 35, 64
11, 64536, Note_on_c, 8, 33, 100
11, 64620, Note_off_c, 8, 33, 64
11, 64636, Note_on_c, 8, 31, 100
11, 64720, Note_off_c, 8, 31, 64
11, 64724, Note_on_c, 8, 36, 100
11, 64900, Note_off_c, 8, 36, 64
11, 64920, Note_on_c, 8, 35, 100
11, 65004, Note_off_c, 8, 35, 64
11, 65012, Note_on_c, 8, 33, 100
11, 65096, Note_off_c, 8, 33, 64
11, 65108, Note_on_c, 8, 31, 100
11, 65284, Note_off_c, 8, 31, 64
11, 65300, Note_on_c, 8, 43, 100
11, 65384, Note_off_c, 8, 43, 64
11, 65404, Note_on_c, 8, 42, 100
11, 65488, Note_off_c, 8, 42, 64
11, 65504, Note_on_c, 8, 40, 100
11, 65680, Note_off_c, 8, 40, 64
11, 65680, Note_on_c, 8, 38, 100
11, 65764, Note_off_c, 8, 38, 64
11, 65776, Note_on_c, 8, 36, 100
11, 65860, Note_off_c, 8, 36, 64
11, 65876, Note_on_c, 8, 35, 100
11, 66052, Note_off_c, 8, 35, 64
11, 66080, Note_on_c, 8, 37, 100
11, 66256, Note_off_c, 8, 37, 64
11, 66272, Note_on_c, 8, 38, 100
11, 66448, Note_off_c, 8, 38, 64
11, 66452, Note_on_c, 8, 26, 100
11, 66628, Note_off_c, 8, 26, 64
11, 66648, Note_on_c, 8, 26, 100
11, 66824, Note_off_c, 8, 26, 64
11, 66848, Note_on_c, 8, 38, 100
11, 66928, Note_off_c, 8, 38, 64
11, 66936, Note_on_c, 8, 40, 100
11, 67020, Note_off_c, 8, 40, 64
11, 67024, Note_on_c, 8, 42, 100
11, 67200, Note_off_c, 8, 42, 64
11, 67224, Note_on_c, 8, 43, 100
11, 67400, Note_off_c, 8, 43, 64
11, 67424, Note_on_c, 8, 45, 100
11, 67600, Note_off_c, 8, 45, 64
11, 67612, Note_on_c, 8, 38, 100
11, 67788, Note_off_c, 8, 38, 64
11, 67796, Note_on_c, 8, 43, 100
11, 67972, Note_off_c, 8, 43, 64
11, 67984, Note_on_c, 8, 36, 100
11, 68160, Note_off_c, 8, 36, 64
11, 68184, Note_on_c, 8, 38, 100
11, 68360, Note_off_c, 8, 38, 64
11, 68384, Note_on_c, 8, 26, 100
11, 68560, Note_off_c, 8, 26, 64
11, 68572, Note_on_c, 8, 28, 100
11, 68932, Note_off_c, 8, 28, 64
11, 69152, Note_on_c, 8, 30, 100
11, 69328, Note_off_c, 8, 30, 64
11, 69332, Note_on_c, 8, 31, 100
11, 69508, Note_off_c, 8, 31, 64
11, 69524, Note_on_c, 8, 24, 100
11, 69700, Note_off_c, 8, 24, 64
11, 69712, Note_on_c, 8, 26, 100
11, 69888, Note_off_c, 8, 26, 64
11, 69908, Note_on_c, 8, 38, 100
11, 70084, Note_off_c, 8, 38, 64
11, 70108, Note_on_c, 8, 43, 100
11, 70284, Note_off_c, 8, 43, 64
11, 70296, Note_on_c, 8, 42, 100
11, 70380, Note_off_c, 8, 42, 64
11, 70384, Note_on_c, 8, 40, 100
11, 70468, Note_off_c, 8, 40, 64
11, 70488, Note_on_c, 8, 38, 100
11, 70572, Note_off_c, 8, 38, 64
11, 70580, Note_on_c, 8, 36, 100
11, 70664, Note_off_c, 8, 36, 64
11, 70688, Note_on_c, 8, 35, 100
11, 70768, Note_off_c, 8, 35, 64
11, 70772, Note_on_c, 8, 33, 100
11, 70856, Note_off_c, 8, 33, 64
11, 70880, Note_on_c, 8, 31, 100
11, 71240, Note_off_c, 8, 31, 64
11, 71636, Note_on_c, 8, 31, 100
11, 72000, Note_off_c, 8, 31, 64
11, 72404, Note_on_c, 8, 31, 100
11, 72768, Note_off_c, 8, 31, 64
11, 73180, Note_on_c, 8, 31, 100
11, 73540, Note_off_c, 8, 31, 64
11, 73936, Note_on_c, 8, 31, 100
11, 74300, Note_off_c, 8, 31, 64
11, 74720, Note_on_c, 8, 31, 100
11, 75080, Note_off_c, 8, 31, 64
11, 75488, Note_on_c, 8, 43, 100
11, 75664, Note_off_c, 8, 43, 64
11, 75676, Note_on_c, 8, 42, 100
11, 75852, Note_off_c, 8, 42, 64
11, 75860, Note_on_c, 8, 40, 100
11, 76036, Note_off_c, 8, 40, 64
11, 76048, Note_on_c, 8, 45, 100
11, 76224, Note_off_c, 8, 45, 64
11, 76248, Note_on_c, 8, 38, 100
11, 76424, Note_off_c, 8, 38, 64
11, 76448, Note_on_c, 8, 37, 100
11, 76528, Note_off_c, 8, 37, 64
11, 76536, Note_on_c, 8, 35, 100
11, 76620, Note_off_c, 8, 35, 64
11, 76640, Note_on_c, 8, 33, 100
11, 76720, Note_off_c, 8, 33, 64
11, 76720, Note_on_c, 8, 31, 100
11, 76804, Note_off_c, 8, 31, 64
11, 76824, Note_on_c, 8, 30, 100
11, 76908, Note_off_c, 8, 30, 64
11, 76928, Note_on_c, 8, 28, 100
11, 77008, Note_off_c, 8, 28, 64
11, 77012, Note_on_c, 8, 27, 100
11, 77376, Note_off_c, 8, 27, 64
11, 77792, Note_on_c, 8, 30, 100
11, 78152, Note_off_c, 8, 30, 64
11, 78548, Note_on_c, 8, 33, 100
11, 78912, Note_off_c, 8, 33, 64
11, 79320, Note_on_c, 8, 45, 100
11, 79680, Note_off_c, 8, 45, 64
11, 80080, Note_on_c, 8, 39, 100
11, 80444, Note_off_c, 8, 39, 64
11, 80864, Note_on_c, 8, 35, 100
11, 81224, Note_off_c, 8, 35, 64
11, 81628, Note_on_c, 8, 40, 100
11, 81988, Note_off_c, 8, 40, 64
11, 82960, Note_on_c, 8, 43, 100
11, 83044, Note_off_c, 8, 43, 64
11, 83068, Note_on_c, 8, 42, 100
11, 83152, Note_off_c, 8, 42, 64
11, 83164, Note_on_c, 8, 40, 100
11, 83340, Note_off_c, 8, 40, 64
11, 83352, Note_on_c, 8, 28, 100
11, 83436, Note_off_c, 8, 28, 64
11, 83452, Note_on_c, 8, 30, 100
11, 83536, Note_off_c, 8, 30, 64
11, 83544, Note_on_c, 8, 31, 100
11, 83720, Note_off_c, 8, 31, 64
11, 83732, Note_on_c, 8, 33, 100
11, 83908, Note_off_c, 8, 33, 64
11, 83936, Note_on_c, 8, 35, 100
11, 84016, Note_off_c, 8, 35, 64
11, 84032, Note_on_c, 8, 34, 100
11, 84112, Note_off_c, 8, 34, 64
11, 84128, Note_on_c, 8, 35, 100
11, 84208, Note_off_c, 8, 35, 64
11, 84220, Note_on_c, 8, 37, 100
11, 84304, Note_off_c, 8, 37, 64
11, 84316, Note_on_c, 8, 35, 100
11, 84400, Note_off_c, 8, 35, 64
11, 84416, Note_on_c, 8, 39, 100
11, 84496, Note_off_c, 8, 39, 64
11, 84500, Note_on_c, 8, 35, 100
11, 84584, Note_off_c, 8, 35, 64
11, 84592, Note_on_c, 8, 40, 100
11, 84676, Note_off_c, 8, 40, 64
11, 84688, Note_on_c, 8, 35, 100
11, 84772, Note_off_c, 8, 35, 64
11, 84784, Note_on_c, 8, 34, 100
11, 84868, Note_off_c, 8, 34, 64
11, 84884, Note_on_c, 8, 35, 100
11, 84968, Note_off_c, 8, 35, 64
11, 84976, Note_on_c, 8, 37, 100
11, 85060, Note_off_c, 8, 37, 64
11, 85088, Note_on_c, 8, 35, 100
11, 85168, Note_off_c, 8, 35, 64
11, 85172, Note_on_c, 8, 42, 100
11, 85256, Note_off_c, 8, 42, 64
11, 85276, Note_on_c, 8, 35, 100
11, 85360, Note_off_c, 8, 35, 64
11, 85368, Note_on_c, 8, 43, 100
11, 85452, Note_off_c, 8, 43, 64
11, 85460, Note_on_c, 8, 35, 100
11, 85544, Note_off_c, 8, 35, 64
11, 85556, Note_on_c, 8, 34, 100
11, 85640, Note_off_c, 8, 34, 64
11, 85648, Note_on_c, 8, 35, 100
11, 85732, Note_off_c, 8, 35, 64
11, 85744, Note_on_c, 8, 37, 100
11, 85828, Note_off_c, 8, 37, 64
11, 85840, Note_on_c, 8, 35, 100
11, 85924, Note_off_c, 8, 35, 64
11, 85944, Note_on_c, 8, 45, 100
11, 86028, Note_off_c, 8, 45, 64
11, 86048, Note_on_c, 8, 35, 100
11, 86128, Note_off_c, 8, 35, 64
11, 86144, Note_on_c, 8, 47, 100
11, 86224, Note_off_c, 8, 47, 64
11, 86236, Note_on_c, 8, 43, 100
11, 86412, Note_off_c, 8, 43, 64
11, 86420, Note_on_c, 8, 42, 100
11, 86504, Note_off_c, 8, 42, 64
11, 86520, Note_on_c, 8, 40, 100
11, 86604, Note_off_c, 8, 40, 64
11, 86612, Note_on_c, 8, 42, 100
11, 86788, Note_off_c, 8, 42, 64
11, 86812, Note_on_c, 8, 40, 100
11, 86896, Note_off_c, 8, 40, 64
11, 86908, Note_on_c, 8, 39, 100
11, 86992, Note_off_c, 8, 39, 64
11, 86996, Note_on_c, 8, 48, 100
11, 87264, Note_off_c, 8, 48, 64
11, 87288, Note_on_c, 8, 47, 100
11, 87372, Note_off_c, 8, 47, 64
11, 87376, Note_on_c, 8, 45, 100
11, 87460, Note_off_c, 8, 45, 64
11, 87476, Note_on_c, 8, 43, 100
11, 87560, Note_off_c, 8, 43, 64
11, 87572, Note_on_c, 8, 42, 100
11, 87656, Note_off_c, 8, 42, 64
11, 87676, Note_on_c, 8, 40, 100
11, 87760, Note_off_c, 8, 40, 64
11, 87764, Note_on_c, 8, 39, 100
11, 87940, Note_off_c, 8, 39, 64
11, 87960, Note_on_c, 8, 40, 100
11, 88136, Note_off_c, 8, 40, 64
11, 88144, Note_on_c, 8, 33, 100
11, 88320, Note_off_c, 8, 33, 64
11, 88352, Note_on_c, 8, 35, 100
11, 88528, Note_off_c, 8, 35, 64
11, 88544, Note_on_c, 8, 28, 100
11, 88904, Note_off_c, 8, 28, 64
11, 89112, Note_on_c, 8, 35, 100
11, 89288, Note_off_c, 8, 35, 64
11, 89304, Note_on_c, 8, 40, 100
11, 89664, Note_off_c, 8, 40, 64
11, 89880, Note_on_c, 8, 47, 100
11, 90056, Note_off_c, 8, 47, 64
11, 90064, Note_on_c, 8, 52, 100
11, 90428, Note_off_c, 8, 52, 64
11, 90656, Note_on_c, 8, 47, 100
11, 90832, Note_off_c, 8, 47, 64
11, 90840, Note_on_c, 8, 40, 100
11, 90924, Note_off_c, 8, 40, 64
11, 90940, Note_on_c, 8, 42, 100
11, 91024, Note_off_c, 8, 42, 64
11, 91024, Note_on_c, 8, 43, 100
11, 91108, Note_off_c, 8, 43, 64
11, 91124, Note_on_c, 8, 42, 100
11, 91208, Note_off_c, 8, 42, 64
11, 91232, Note_on_c, 8, 40, 100
11, 91312, Note_off_c, 8, 40, 64
11, 91324, Note_on_c, 8, 38, 100
11, 91408, Note_off_c, 8, 38, 64
11, 91420, Note_on_c, 8, 37, 100
11, 91504, Note_off_c, 8, 37, 64
11, 91516, Note_on_c, 8, 35, 100
11, 91600, Note_off_c, 8, 35, 64
11, 91608, Note_on_c, 8, 33, 100
11, 91968, Note_off_c, 8, 33, 64
11, 92176, Note_on_c, 8, 28, 100
11, 92352, Note_off_c, 8, 28, 64
11, 92368, Note_on_c, 8, 33, 100
11, 92732, Note_off_c, 8, 33, 64
11, 92952, Note_on_c, 8, 40, 100
11, 93128, Note_off_c, 8, 40, 64
11, 93144, Note_on_c, 8, 45, 100
11, 93504, Note_off_c, 8, 45, 64
11, 93716, Note_on_c, 8, 40, 100
11, 93892, Note_off_c, 8, 40, 64
11, 93912, Note_on_c, 8, 33, 100
11, 93996, Note_off_c, 8, 33, 64
11, 94008, Note_on_c, 8, 35, 100
11, 94092, Note_off_c, 8, 35, 64
11, 94104, Note_on_c, 8, 37, 100
11, 94188, Note_off_c, 8, 37, 64
11, 94196, Note_on_c, 8, 35, 100
11, 94280, Note_off_c, 8, 35, 64
11, 94292, Note_on_c, 8, 33, 100
11, 94376, Note_off_c, 8, 33, 64
11, 94396, Note_on_c, 8, 31, 100
11, 94480, Note_off_c, 8, 31, 64
11, 94480, Note_on_c, 8, 30, 100
11, 94564, Note_off_c, 8, 30, 64
11, 94576, Note_on_c, 8, 28, 100
11, 94660, Note_off_c, 8, 28, 64
11, 94688, Note_on_c, 8, 26, 100
11, 95048, Note_off_c, 8, 26, 64
11, 95260, Note_on_c, 8, 45, 100
11, 95436, Note_off_c, 8, 45, 64
11, 95448, Note_on_c, 8, 38, 100
11, 95808, Note_off_c, 8, 38, 64
11, 96024, Note_on_c, 8, 45, 100
11, 96200, Note_off_c, 8, 45, 64
11, 96224, Note_on_c, 8, 38, 100
11, 96584, Note_off_c, 8, 38, 64
11, 96796, Note_on_c, 8, 45, 100
11, 96972, Note_off_c, 8, 45, 64
11, 96992, Note_on_c, 8, 50, 100
11, 97352, Note_off_c, 8, 50, 64
11, 97560, Note_on_c, 8, 26, 100
11, 97736, Note_off_c, 8, 26, 64
11, 97752, Note_on_c, 8, 31, 100
11, 98112, Note_off_c, 8, 31, 64
11, 98328, Note_on_c, 8, 26, 100
11, 98504, Note_off_c, 8, 26, 64
11, 98516, Note_on_c, 8, 31, 100
11, 98880, Note_off_c, 8, 31, 64
11, 99100, Note_on_c, 8, 42, 100
11, 99276, Note_off_c, 8, 42, 64
11, 99280, Note_on_c, 8, 43, 100
11, 99364, Note_off_c, 8, 43, 64
11, 99376, Note_on_c, 8, 38, 100
11, 99460, Note_off_c, 8, 38, 64
11, 99484, Note_on_c, 8, 31, 100
11, 99568, Note_off_c, 8, 31, 64
11, 99568, Note_on_c, 8, 33, 100
11, 99652, Note_off_c, 8, 33, 64
11, 99676, Note_on_c, 8, 35, 100
11, 99760, Note_off_c, 8, 35, 64
11, 99768, Note_on_c, 8, 36, 100
11, 99852, Note_off_c, 8, 36, 64
11, 99864, Note_on_c, 8, 38, 100
11, 99948, Note_off_c, 8, 38, 64
11, 99956, Note_on_c, 8, 36, 100
11, 100040, Note_off_c, 8, 36, 64
11, 100060, Note_on_c, 8, 35, 100
11, 100144, Note_off_c, 8, 35, 64
11, 100152, Note_on_c, 8, 38, 100
11, 100236, Note_off_c, 8, 38, 64
11, 100256, Note_on_c, 8, 31, 100
11, 100336, Note_off_c, 8, 31, 64
11, 100340, Note_on_c, 8, 33, 100
11, 100424, Note_off_c, 8, 33, 64
11, 100440, Note_on_c, 8, 35, 100
11, 100524, Note_off_c, 8, 35, 64
11, 100532, Note_on_c, 8, 36, 100
11, 100616, Note_off_c, 8, 36, 64
11, 100636, Note_on_c, 8, 38, 100
11, 100720, Note_off_c, 8, 38, 64
11, 100732, Note_on_c, 8, 36, 100
11, 100816, Note_off_c, 8, 36, 64
11, 100832, Note_on_c, 8, 35, 100
11, 100912, Note_off_c, 8, 35, 64
11, 100928, Note_on_c, 8, 36, 100
11, 101008, Note_off_c, 8, 36, 64
11, 101020, Note_on_c, 8, 38, 100
11, 101104, Note_off_c, 8, 38, 64
11, 101104, Note_on_c, 8, 36, 100
11, 101188, Note_off_c, 8, 36, 64
11, 101204, Note_on_c, 8, 35, 100
11, 101288, Note_off_c, 8, 35, 64
11, 101312, Note_on_c, 8, 33, 100
11, 101392, Note_off_c, 8, 33, 64
11, 101400, Note_on_c, 8, 31, 100
11, 101484, Note_off_c, 8, 31, 64
11, 101496, Note_on_c, 8, 30, 100
11, 101580, Note_off_c, 8, 30, 64
11, 101588, Note_on_c, 8, 28, 100
11, 101952, Note_off_c, 8, 28, 64
11, 102360, Note_on_c, 8, 28, 100
11, 102720, Note_off_c, 8, 28, 64
11, 103132, Note_on_c, 8, 40, 100
11, 103492, Note_off_c, 8, 40, 64
11, 103892, Note_on_c, 8, 40, 100
11, 104256, Note_off_c, 8, 40, 64
11, 104664, Note_on_c, 8, 34, 100
11, 105024, Note_off_c, 8, 34, 64
11, 105432, Note_on_c, 8, 30, 100
11, 105792, Note_off_c, 8, 30, 64
11, 106204, Note_on_c, 8, 35, 100
11, 106380, Note_off_c, 8, 35, 64
11, 106388, Note_on_c, 8, 47, 100
11, 106564, Note_off_c, 8, 47, 64
11, 106584, Note_on_c, 8, 47, 100
11, 106760, Note_off_c, 8, 47, 64
11, 106772, Note_on_c, 8, 35, 100
11, 106948, Note_off_c, 8, 35, 64
11, 106960, Note_on_c, 8, 35, 100
11, 107136, Note_off_c, 8, 35, 64
11, 107156, Note_on_c, 8, 47, 100
11, 107332, Note_off_c, 8, 47, 64
11, 107348, Note_on_c, 8, 47, 100
11, 107524, Note_off_c, 8, 47, 64
11, 107536, Note_on_c, 8, 35, 100
11, 107712, Note_off_c, 8, 35, 64
11, 107740, Note_on_c, 8, 35, 100
11, 107916, Note_off_c, 8, 35, 64
11, 107924, Note_on_c, 8, 47, 100
11, 108008, Note_off_c, 8, 47, 64
11, 108016, Note_on_c, 8, 45, 100
11, 108100, Note_off_c, 8, 45, 64
11, 108124, Note_on_c, 8, 43, 100
11, 108300, Note_off_c, 8, 43, 64
11, 108308, Note_on_c, 8, 42, 100
11, 108392, Note_off_c, 8, 42, 64
11, 108404, Note_on_c, 8, 40, 100
11, 108488, Note_off_c, 8, 40, 64
11, 108500, Note_on_c, 8, 38, 100
11, 108676, Note_off_c, 8, 38, 64
11, 108688, Note_on_c, 8, 37, 100
11, 108772, Note_off_c, 8, 37, 64
11, 108788, Note_on_c, 8, 35, 100
11, 108872, Note_off_c, 8, 35, 64
11, 108892, Note_on_c, 8, 34, 100
11, 109068, Note_off_c, 8, 34, 64
11, 109076, Note_on_c, 8, 30, 100
11, 109252, Note_off_c, 8, 30, 64
11, 109280, Note_on_c, 8, 35, 100
11, 109456, Note_off_c, 8, 35, 64
11, 109472, Note_on_c, 8, 47, 100
11, 109552, Note_off_c, 8, 47, 64
11, 109564, Note_on_c, 8, 45, 100
11, 109648, Note_off_c, 8, 45, 64
11, 109652, Note_on_c, 8, 43, 100
11, 109828, Note_off_c, 8, 43, 64
11, 109856, Note_on_c, 8, 42, 100
11, 109936, Note_off_c, 8, 42, 64
11, 109944, Note_on_c, 8, 40, 100
11, 110028, Note_off_c, 8, 40, 64
11, 110036, Note_on_c, 8, 38, 100
11, 110120, Note_off_c, 8, 38, 64
11, 110136, Note_on_c, 8, 37, 100
11, 110220, Note_off_c, 8, 37, 64
11, 110240, Note_on_c, 8, 38, 100
11, 110320, Note_off_c, 8, 38, 64
11, 110328, Note_on_c, 8, 40, 100
11, 110412, Note_off_c, 8, 40, 64
11, 110428, Note_on_c, 8, 38, 100
11, 110512, Note_off_c, 8, 38, 64
11, 110516, Note_on_c, 8, 40, 100
11, 110600, Note_off_c, 8, 40, 64
11, 110612, Note_on_c, 8, 38, 100
11, 110696, Note_off_c, 8, 38, 64
11, 110720, Note_on_c, 8, 37, 100
11, 110800, Note_off_c, 8, 37, 64
11, 110808, Note_on_c, 8, 35, 100
11, 110984, Note_off_c, 8, 35, 64
11, 111004, Note_on_c, 8, 43, 100
11, 111180, Note_off_c, 8, 43, 64
11, 111184, Note_on_c, 8, 40, 100
11, 111360, Note_off_c, 8, 40, 64
11, 111392, Note_on_c, 8, 42, 100
11, 111568, Note_off_c, 8, 42, 64
11, 111580, Note_on_c, 8, 43, 100
11, 111848, Note_off_c, 8, 43, 64
11, 111872, Note_on_c, 8, 42, 100
11, 111952, Note_off_c, 8, 42, 64
11, 111960, Note_on_c, 8, 40, 100
11, 112044, Note_off_c, 8, 40, 64
11, 112056, Note_on_c, 8, 38, 100
11, 112140, Note_off_c, 8, 38, 64
11, 112148, Note_on_c, 8, 37, 100
11, 112232, Note_off_c, 8, 37, 64
11, 112240, Note_on_c, 8, 35, 100
11, 112324, Note_off_c, 8, 35, 64
11, 112352, Note_on_c, 8, 38, 100
11, 112528, Note_off_c, 8, 38, 64
11, 112540, Note_on_c, 8, 40, 100
11, 112716, Note_off_c, 8, 40, 64
11, 112724, Note_on_c, 8, 42, 100
11, 112900, Note_off_c, 8, 42, 64
11, 112924, Note_on_c, 8, 30, 100
11, 113100, Note_off_c, 8, 30, 64
11, 113120, Note_on_c, 8, 47, 100
11, 113296, Note_off_c, 8, 47, 64
11, 113304, Note_on_c, 8, 50, 100
11, 113388, Note_off_c, 8, 50, 64
11, 113400, Note_on_c, 8, 49, 100
11, 113484, Note_off_c, 8, 49, 64
11, 113496, Note_on_c, 8, 35, 100
11, 113672, Note_off_c, 8, 35, 64
11, 113684, Note_on_c, 8, 35, 100
11, 113860, Note_off_c, 8, 35, 64
11, 113884, Note_on_c, 8, 35, 100
11, 114060, Note_off_c, 8, 35, 64
11, 114072, Note_on_c, 8, 35, 100
11, 114248, Note_off_c, 8, 35, 64
11, 114260, Note_on_c, 8, 35, 100
11, 114436, Note_off_c, 8, 35, 64
11, 114456, Note_on_c, 8, 35, 100
11, 114632, Note_off_c, 8, 35, 64
11, 114652, Note_on_c, 8, 35, 100
11, 114828, Note_off_c, 8, 35, 64
11, 114840, Note_on_c, 8, 35, 100
11, 115016, Note_off_c, 8, 35, 64
11, 115036, Note_on_c, 8, 35, 100
11, 115212, Note_off_c, 8, 35, 64
11, 115216, Note_on_c, 8, 35, 100
11, 115300, Note_off_c, 8, 35, 64
11, 115316, Note_on_c, 8, 37, 100
11, 115400, Note_off_c, 8, 37, 64
11, 115408, Note_on_c, 8, 38, 100
11, 115584, Note_off_c, 8, 38, 64
11, 115612, Note_on_c, 8, 43, 100
11, 115696, Note_off_c, 8, 43, 64
11, 115696, Note_on_c, 8, 42, 100
11, 115780, Note_off_c, 8, 42, 64
11, 115808, Note_on_c, 8, 43, 100
11, 115984, Note_off_c, 8, 43, 64
11, 115988, Note_on_c, 8, 37, 100
11, 116072, Note_off_c, 8, 37, 64
11, 116084, Note_on_c, 8, 35, 100
11, 116168, Note_off_c, 8, 35, 64
11, 116192, Note_on_c, 8, 37, 100
11, 116368, Note_off_c, 8, 37, 64
11, 116380, Note_on_c, 8, 42, 100
11, 116464, Note_off_c, 8, 42, 64
11, 116468, Note_on_c, 8, 40, 100
11, 116552, Note_off_c, 8, 40, 64
11, 116560, Note_on_c, 8, 42, 100
11, 116736, Note_off_c, 8, 42, 64
11, 116760, Note_on_c, 8, 35, 100
11, 116844, Note_off_c, 8, 35, 64
11, 116848, Note_on_c, 8, 34, 100
11, 116932, Note_off_c, 8, 34, 64
11, 116960, Note_on_c, 8, 35, 100
11, 117136, Note_off_c, 8, 35, 64
11, 117144, Note_on_c, 8, 40, 100
11, 117320, Note_off_c, 8, 40, 64
11, 117332, Note_on_c, 8, 42, 100
11, 117508, Note_off_c, 8, 42, 64
11, 117532, Note_on_c, 8, 30, 100
11, 117708, Note_off_c, 8, 30, 64
11, 117712, Note_on_c, 8, 35, 100
11, 117888, Note_off_c, 8, 35, 64
11, 117912, Note_on_c, 8, 36, 100
11, 118088, Note_off_c, 8, 36, 64
11, 118096, Note_on_c, 8, 35, 100
11, 118272, Note_off_c, 8, 35, 64
11, 118300, Note_on_c, 8, 33, 100
11, 118476, Note_off_c, 8, 33, 64
11, 118488, Note_on_c, 8, 31, 100
11, 118848, Note_off_c, 8, 31, 64
11, 121552, Note_on_c, 8, 38, 100
11, 121728, Note_off_c, 8, 38, 64
11, 121752, Note_on_c, 8, 37, 100
11, 121928, Note_off_c, 8, 37, 64
11, 121944, Note_on_c, 8, 38, 100
11, 122120, Note_off_c, 8, 38, 64
11, 122140, Note_on_c, 8, 40, 100
11, 122316, Note_off_c, 8, 40, 64
11, 122324, Note_on_c, 8, 42, 100
11, 122500, Note_off_c, 8, 42, 64
11, 122512, Note_on_c, 8, 43, 100
11, 122688, Note_off_c, 8, 43, 64
11, 122708, Note_on_c, 8, 42, 100
11, 122884, Note_off_c, 8, 42, 64
11, 122896, Note_on_c, 8, 40, 100
11, 123072, Note_off_c, 8, 40, 64
11, 123088, Note_on_c, 8, 38, 100
11, 123264, Note_off_c, 8, 38, 64
11, 123296, Note_on_c, 8, 37, 100
11, 123472, Note_off_c, 8, 37, 64
11, 123472, Note_on_c, 8, 35, 100
11, 123648, Note_off_c, 8, 35, 64
11, 123664, Note_on_c, 8, 40, 100
11, 123840, Note_off_c, 8, 40, 64
11, 123868, Note_on_c, 8, 33, 100
11, 124228, Note_off_c, 8, 33, 64
11, 124448, Note_on_c, 8, 33, 100
11, 124624, Note_off_c, 8, 33, 64
11, 124640, Note_on_c, 8, 38, 100
11, 124816, Note_off_c, 8, 38, 64
11, 124820, Note_on_c, 8, 26, 100
11, 124996, Note_off_c, 8, 26, 64
11, 125024, Note_on_c, 8, 30, 100
11, 125200, Note_off_c, 8, 30, 64
11, 125216, Note_on_c, 8, 33, 100
11, 125392, Note_off_c, 8, 33, 64
11, 125400, Note_on_c, 8, 38, 100
11, 125760, Note_off_c, 8, 38, 64
11, 125968, Note_on_c, 8, 38, 100
11, 126144, Note_off_c, 8, 38, 64
11, 126172, Note_on_c, 8, 43, 100
11, 126348, Note_off_c, 8, 43, 64
11, 126356, Note_on_c, 8, 31, 100
11, 126532, Note_off_c, 8, 31, 64
11, 126560, Note_on_c, 8, 35, 100
11, 126736, Note_off_c, 8, 35, 64
11, 126748, Note_on_c, 8, 38, 100
11, 126924, Note_off_c, 8, 38, 64
11, 126932, Note_on_c, 8, 43, 100
11, 127296, Note_off_c, 8, 43, 64
11, 127504, Note_on_c, 8, 35, 100
11, 127680, Note_off_c, 8, 35, 64
11, 127704, Note_on_c, 8, 40, 100
11, 127880, Note_off_c, 8, 40, 64
11, 127892, Note_on_c, 8, 28, 100
11, 128068, Note_off_c, 8, 28, 64
11, 128092, Note_on_c, 8, 31, 100
11, 128268, Note_off_c, 8, 31, 64
11, 128272, Note_on_c, 8, 35, 100
11, 128448, Note_off_c, 8, 35, 64
11, 128476, Note_on_c, 8, 40, 100
11, 128836, Note_off_c, 8, 40, 64
11, 129040, Note_on_c, 8, 31, 100
11, 129216, Note_off_c, 8, 31, 64
11, 129240, Note_on_c, 8, 36, 100
11, 129416, Note_off_c, 8, 36, 64
11, 129436, Note_on_c, 8, 38, 100
11, 129612, Note_off_c, 8, 38, 64
11, 129616, Note_on_c, 8, 31, 100
11, 129792, Note_off_c, 8, 31, 64
11, 129820, Note_on_c, 8, 36, 100
11, 129996, Note_off_c, 8, 36, 64
11, 130012, Note_on_c, 8, 38, 100
11, 130188, Note_off_c, 8, 38, 64
11, 130192, Note_on_c, 8, 36, 100
11, 130368, Note_off_c, 8, 36, 64
11, 130396, Note_on_c, 8, 35, 100
11, 130572, Note_off_c, 8, 35, 64
11, 130584, Note_on_c, 8, 33, 100
11, 130760, Note_off_c, 8, 33, 64
11, 130780, Note_on_c, 8, 31, 100
11, 130956, Note_off_c, 8, 31, 64
11, 130968, Note_on_c, 8, 43, 100
11, 131144, Note_off_c, 8, 43, 64
11, 131168, Note_on_c, 8, 43, 100
11, 131344, Note_off_c, 8, 43, 64
11, 131348, Note_on_c, 8, 31, 100
11, 131524, Note_off_c, 8, 31, 64
11, 131548, Note_on_c, 8, 31, 100
11, 131724, Note_off_c, 8, 31, 64
11, 131732, Note_on_c, 8, 43, 100
11, 131908, Note_off_c, 8, 43, 64
11, 131928, Note_on_c, 8, 43, 100
11, 132104, Note_off_c, 8, 43, 64
11, 132116, Note_on_c, 8, 31, 100
11, 132292, Note_off_c, 8, 31, 64
11, 132308, Note_on_c, 8, 31, 100
11, 132484, Note_off_c, 8, 31, 64
11, 132504, Note_on_c, 8, 43, 100
11, 132588, Note_off_c, 8, 43, 64
11, 132600, Note_on_c, 8, 42, 100
11, 132684, Note_off_c, 8, 42, 64
11, 132692, Note_on_c, 8, 40, 100
11, 132868, Note_off_c, 8, 40, 64
11, 132880, Note_on_c, 8, 45, 100
11, 133056, Note_off_c, 8, 45, 64
11, 133076, Note_on_c, 8, 50, 100
11, 133252, Note_off_c, 8, 50, 64
11, 133280, Note_on_c, 8, 48, 100
11, 133456, Note_off_c, 8, 48, 64
11, 133464, Note_on_c, 8, 47, 100
11, 133640, Note_off_c, 8, 47, 64
11, 133648, Note_on_c, 8, 45, 100
11, 133824, Note_off_c, 8, 45, 64
11, 133848, Note_on_c, 8, 43, 100
11, 134024, Note_off_c, 8, 43, 64
11, 134032, Note_on_c, 8, 41, 100
11, 134208, Note_off_c, 8, 41, 64
11, 134228, Note_on_c, 8, 40, 100
11, 134404, Note_off_c, 8, 40, 64
11, 134428, Note_on_c, 8, 38, 100
11, 134604, Note_off_c, 8, 38, 64
11, 134612, Note_on_c, 8, 48, 100
11, 134788, Note_off_c, 8, 48, 64
11, 134804, Note_on_c, 8, 46, 100
11, 134980, Note_off_c, 8, 46, 64
11, 135004, Note_on_c, 8, 45, 100
11, 135180, Note_off_c, 8, 45, 64
11, 135200, Note_on_c, 8, 43, 100
11, 135376, Note_off_c, 8, 43, 64
11, 135376, Note_on_c, 8, 42, 100
11, 135552, Note_off_c, 8, 42, 64
11, 135584, Note_on_c, 8, 40, 100
11, 135760, Note_off_c, 8, 40, 64
11, 135772, Note_on_c, 8, 38, 100
11, 135948, Note_off_c, 8, 38, 64
11, 135960, Note_on_c, 8, 37, 100
11, 136136, Note_off_c, 8, 37, 64
11, 136156, Note_on_c, 8, 47, 100
11, 136332, Note_off_c, 8, 47, 64
11, 136352, Note_on_c, 8, 45, 100
11, 136528, Note_off_c, 8, 45, 64
11, 136544, Note_on_c, 8, 43, 100
11, 136720, Note_off_c, 8, 43, 64
11, 136736, Note_on_c, 8, 42, 100
11, 136912, Note_off_c, 8, 42, 64
11, 136928, Note_on_c, 8, 40, 100
11, 137104, Note_off_c, 8, 40, 64
11, 137108, Note_on_c, 8, 38, 100
11, 137284, Note_off_c, 8, 38, 64
11, 137300, Note_on_c, 8, 36, 100
11, 137476, Note_off_c, 8, 36, 64
11, 137500, Note_on_c, 8, 35, 100
11, 137676, Note_off_c, 8, 35, 64
11, 137688, Note_on_c, 8, 33, 100
11, 137864, Note_off_c, 8, 33, 64
11, 137888, Note_on_c, 8, 31, 100
11, 138064, Note_off_c, 8, 31, 64
11, 138080, Note_on_c, 8, 29, 100
11, 138256, Note_off_c, 8, 29, 64
11, 138256, Note_on_c, 8, 28, 100
11, 138432, Note_off_c, 8, 28, 64
11, 138464, Note_on_c, 8, 26, 100
11, 138824, Note_off_c, 8, 26, 64
11, 139988, Note_on_c, 8, 27, 100
11, 140352, Note_off_c, 8, 27, 64
11, 141532, Note_on_c, 8, 28, 100
11, 141892, Note_off_c, 8, 28, 64
11, 143060, Note_on_c, 8, 28, 100
11, 143424, Note_off_c, 8, 28, 64
11, 144600, Note_on_c, 8, 28, 100
11, 144960, Note_off_c, 8, 28, 64
11, 146136, Note_on_c, 8, 28, 100
11, 146496, Note_off_c, 8, 28, 64
11, 147672, Note_on_c, 8, 33, 100
11, 147848, Note_off_c, 8, 33, 64
11, 147856, Note_on_c, 8, 45, 100
11, 148032, Note_off_c, 8, 45, 64
11, 148056, Note_on_c, 8, 45, 100
11, 148232, Note_off_c, 8, 45, 64
11, 148244, Note_on_c, 8, 33, 100
11, 148420, Note_off_c, 8, 33, 64
11, 148448, Note_on_c, 8, 33, 100
11, 148624, Note_off_c, 8, 33, 64
11, 148632, Note_on_c, 8, 45, 100
11, 148808, Note_off_c, 8, 45, 64
11, 148816, Note_on_c, 8, 45, 100
11, 148992, Note_off_c, 8, 45, 64
11, 149016, Note_on_c, 8, 33, 100
11, 149192, Note_off_c, 8, 33, 64
11, 149208, Note_on_c, 8, 31, 100
11, 149384, Note_off_c, 8, 31, 64
11, 149404, Note_on_c, 8, 43, 100
11, 149580, Note_off_c, 8, 43, 64
11, 149596, Note_on_c, 8, 43, 100
11, 149772, Note_off_c, 8, 43, 64
11, 149784, Note_on_c, 8, 31, 100
11, 149960, Note_off_c, 8, 31, 64
11, 149984, Note_on_c, 8, 31, 100
11, 150160, Note_off_c, 8, 31, 64
11, 150172, Note_on_c, 8, 43, 100
11, 150348, Note_off_c, 8, 43, 64
11, 150356, Note_on_c, 8, 43, 100
11, 150532, Note_off_c, 8, 43, 64
11, 150556, Note_on_c, 8, 31, 100
11, 150732, Note_off_c, 8, 31, 64
11, 150748, Note_on_c, 8, 29, 100
11, 150924, Note_off_c, 8, 29, 64
11, 150944, Note_on_c, 8, 41, 100
11, 151120, Note_off_c, 8, 41, 64
11, 151124, Note_on_c, 8, 41, 100
11, 151300, Note_off_c, 8, 41, 64
11, 151320, Note_on_c, 8, 29, 100
11, 151496, Note_off_c, 8, 29, 64
11, 151520, Note_on_c, 8, 29, 100
11, 151696, Note_off_c, 8, 29, 64
11, 151704, Note_on_c, 8, 41, 100
11, 151880, Note_off_c, 8, 41, 64
11, 151888, Note_on_c, 8, 41, 100
11, 152064, Note_off_c, 8, 41, 64
11, 152084, Note_on_c, 8, 29, 100
11, 152260, Note_off_c, 8, 29, 64
11, 152276, Note_on_c, 8, 28, 100
11, 152452, Note_off_c, 8, 28, 64
11, 152468, Note_on_c, 8, 40, 100
11, 152644, Note_off_c, 8, 40, 64
11, 152664, Note_on_c, 8, 40, 100
11, 152840, Note_off_c, 8, 40, 64
11, 152864, Note_on_c, 8, 28, 100
11, 153040, Note_off_c, 8, 28, 64
11, 153048, Note_on_c, 8, 28, 100
11, 153224, Note_off_c, 8, 28, 64
11, 153244, Note_on_c, 8, 40, 100
11, 153420, Note_off_c, 8, 40, 64
11, 153424, Note_on_c, 8, 40, 100
11, 153600, Note_off_c, 8, 40, 64
11, 153624, Note_on_c, 8, 38, 100
11, 153800, Note_off_c, 8, 38, 64
11, 153812, Note_on_c, 8, 36, 100
11, 153988, Note_off_c, 8, 36, 64
11, 154000, Note_on_c, 8, 38, 100
11, 154176, Note_off_c, 8, 38, 64
11, 154204, Note_on_c, 8, 40, 100
11, 154380, Note_off_c, 8, 40, 64
11, 154384, Note_on_c, 8, 28, 100
11, 154560, Note_off_c, 8, 28, 64
11, 154588, Note_on_c, 8, 33, 100
11, 154948, Note_off_c, 8, 33, 64
11, 155156, Note_on_c, 8, 45, 100
11, 155240, Note_off_c, 8, 45, 64
11, 155252, Note_on_c, 8, 44, 100
11, 155336, Note_off_c, 8, 44, 64
11, 155344, Note_on_c, 8, 45, 100
11, 155520, Note_off_c, 8, 45, 64
11, 155540, Note_on_c, 8, 40, 100
11, 155624, Note_off_c, 8, 40, 64
11, 155648, Note_on_c, 8, 38, 100
11, 155728, Note_off_c, 8, 38, 64
11, 155736, Note_on_c, 8, 40, 100
11, 155912, Note_off_c, 8, 40, 64
11, 155920, Note_on_c, 8, 45, 100
11, 156004, Note_off_c, 8, 45, 64
11, 156032, Note_on_c, 8, 44, 100
11, 156112, Note_off_c, 8, 44, 64
11, 156112, Note_on_c, 8, 45, 100
11, 156288, Note_off_c, 8, 45, 64
11, 156308, Note_on_c, 8, 36, 100
11, 156392, Note_off_c, 8, 36, 64
11, 156408, Note_on_c, 8, 35, 100
11, 156492, Note_off_c, 8, 35, 64
11, 156500, Note_on_c, 8, 36, 100
11, 156676, Note_off_c, 8, 36, 64
11, 156696, Note_on_c, 8, 45, 100
11, 156780, Note_off_c, 8, 45, 64
11, 156792, Note_on_c, 8, 44, 100
11, 156876, Note_off_c, 8, 44, 64
11, 156888, Note_on_c, 8, 45, 100
11, 157064, Note_off_c, 8, 45, 64
11, 157072, Note_on_c, 8, 33, 100
11, 157156, Note_off_c, 8, 33, 64
11, 157172, Note_on_c, 8, 35, 100
11, 157256, Note_off_c, 8, 35, 64
11, 157280, Note_on_c, 8, 37, 100
11, 157456, Note_off_c, 8, 37, 64
11, 157460, Note_on_c, 8, 39, 100
11, 157636, Note_off_c, 8, 39, 64
11, 157656, Note_on_c, 8, 40, 100
11, 157832, Note_off_c, 8, 40, 64
11, 157848, Note_on_c, 8, 28, 100
11, 158024, Note_off_c, 8, 28, 64
11, 158228, Note_on_c, 8, 40, 100
11, 158312, Note_off_c, 8, 40, 64
11, 158332, Note_on_c, 8, 39, 100
11, 158416, Note_off_c, 8, 39, 64
11, 158432, Note_on_c, 8, 40, 100
11, 158608, Note_off_c, 8, 40, 64
11, 158624, Note_on_c, 8, 35, 100
11, 158704, Note_off_c, 8, 35, 64
11, 158716, Note_on_c, 8, 33, 100
11, 158800, Note_off_c, 8, 33, 64
11, 158816, Note_on_c, 8, 35, 100
11, 158992, Note_off_c, 8, 35, 64
11, 159008, Note_on_c, 8, 40, 100
11, 159088, Note_off_c, 8, 40, 64
11, 159096, Note_on_c, 8, 39, 100
11, 159180, Note_off_c, 8, 39, 64
11, 159192, Note_on_c, 8, 40, 100
11, 159368, Note_off_c, 8, 40, 64
11, 159384, Note_on_c, 8, 31, 100
11, 159468, Note_off_c, 8, 31, 64
11, 159472, Note_on_c, 8, 30, 100
11, 159556, Note_off_c, 8, 30, 64
11, 159584, Note_on_c, 8, 31, 100
11, 159760, Note_off_c, 8, 31, 64
11, 159760, Note_on_c, 8, 40, 100
11, 159844, Note_off_c, 8, 40, 64
11, 159856, Note_on_c, 8, 39, 100
11, 159940, Note_off_c, 8, 39, 64
11, 159960, Note_on_c, 8, 40, 100
11, 160136, Note_off_c, 8, 40, 64
11, 160144, Note_on_c, 8, 28, 100
11, 160228, Note_off_c, 8, 28, 64
11, 160256, Note_on_c, 8, 30, 100
11, 160336, Note_off_c, 8, 30, 64
11, 160344, Note_on_c, 8, 31, 100
11, 160520, Note_off_c, 8, 31, 64
11, 160544, Note_on_c, 8, 33, 100
11, 160720, Note_off_c, 8, 33, 64
11, 160732, Note_on_c, 8, 35, 100
11, 160816, Note_off_c, 8, 35, 64
11, 160816, Note_on_c, 8, 33, 100
11, 160900, Note_off_c, 8, 33, 64
11, 160924, Note_on_c, 8, 35, 100
11, 161008, Note_off_c, 8, 35, 64
11, 161012, Note_on_c, 8, 36, 100
11, 161096, Note_off_c, 8, 36, 64
11, 161120, Note_on_c, 8, 35, 100
11, 161200, Note_off_c, 8, 35, 64
11, 161216, Note_on_c, 8, 36, 100
11, 161296, Note_off_c, 8, 36, 64
11, 161304, Note_on_c, 8, 35, 100
11, 161388, Note_off_c, 8, 35, 64
11, 161400, Note_on_c, 8, 33, 100
11, 161484, Note_off_c, 8, 33, 64
11, 161500, Note_on_c, 8, 31, 100
11, 161860, Note_off_c, 8, 31, 64
11, 162072, Note_on_c, 8, 38, 100
11, 162248, Note_off_c, 8, 38, 64
11, 162264, Note_on_c, 8, 43, 100
11, 162348, Note_off_c, 8, 43, 64
11, 162360, Note_on_c, 8, 42, 100
11, 162444, Note_off_c, 8, 42, 64
11, 162452, Note_on_c, 8, 43, 100
11, 162536, Note_off_c, 8, 43, 64
11, 162544, Note_on_c, 8, 45, 100
11, 162628, Note_off_c, 8, 45, 64
11, 162648, Note_on_c, 8, 43, 100
11, 162732, Note_off_c, 8, 43, 64
11, 162752, Note_on_c, 8, 47, 100
11, 162832, Note_off_c, 8, 47, 64
11, 162836, Note_on_c, 8, 45, 100
11, 162920, Note_off_c, 8, 45, 64
11, 162944, Note_on_c, 8, 36, 100
11, 163024, Note_off_c, 8, 36, 64
11, 163036, Note_on_c, 8, 47, 100
11, 163120, Note_off_c, 8, 47, 64
11, 163120, Note_on_c, 8, 48, 100
11, 163204, Note_off_c, 8, 48, 64
11, 163216, Note_on_c, 8, 47, 100
11, 163300, Note_off_c, 8, 47, 64
11, 163312, Note_on_c, 8, 45, 100
11, 163396, Note_off_c, 8, 45, 64
11, 163424, Note_on_c, 8, 43, 100
11, 163504, Note_off_c, 8, 43, 64
11, 163520, Note_on_c, 8, 47, 100
11, 163600, Note_off_c, 8, 47, 64
11, 163608, Note_on_c, 8, 45, 100
11, 163692, Note_off_c, 8, 45, 64
11, 163696, Note_on_c, 8, 43, 100
11, 163780, Note_off_c, 8, 43, 64
11, 163800, Note_on_c, 8, 42, 100
11, 163884, Note_off_c, 8, 42, 64
11, 163900, Note_on_c, 8, 47, 100
11, 163984, Note_off_c, 8, 47, 64
11, 163992, Note_on_c, 8, 45, 100
11, 164076, Note_off_c, 8, 45, 64
11, 164092, Note_on_c, 8, 43, 100
11, 164176, Note_off_c, 8, 43, 64
11, 164192, Note_on_c, 8, 42, 100
11, 164272, Note_off_c, 8, 42, 64
11, 164272, Note_on_c, 8, 43, 100
11, 164356, Note_off_c, 8, 43, 64
11, 164384, Note_on_c, 8, 42, 100
11, 164464, Note_off_c, 8, 42, 64
11, 164472, Note_on_c, 8, 40, 100
11, 164556, Note_off_c, 8, 40, 64
11, 164568, Note_on_c, 8, 38, 100
11, 164928, Note_off_c, 8, 38, 64
11, 165344, Note_on_c, 8, 38, 100
11, 165704, Note_off_c, 8, 38, 64
11, 166112, Note_on_c, 8, 31, 100
11, 166472, Note_off_c, 8, 31, 64
11, 166868, Note_on_c, 8, 31, 100
11, 167232, Note_off_c, 8, 31, 64
11, 167644, Note_on_c, 8, 32, 100
11, 168004, Note_off_c, 8, 32, 64
11, 168400, Note_on_c, 8, 32, 100
11, 168764, Note_off_c, 8, 32, 64
11, 169168, Note_on_c, 8, 33, 100
11, 169532, Note_off_c, 8, 33, 64
11, 169952, Note_on_c, 8, 33, 100
11, 170312, Note_off_c, 8, 33, 64
11, 170716, Note_on_c, 8, 30, 100
11, 171076, Note_off_c, 8, 30, 64
11, 171480, Note_on_c, 8, 30, 100
11, 171840, Note_off_c, 8, 30, 64
11, 172240, Note_on_c, 8, 29, 100
11, 172604, Note_off_c, 8, 29, 64
11, 173012, Note_on_c, 8, 29, 100
11, 173376, Note_off_c, 8, 29, 64
11, 173776, Note_on_c, 8, 25, 100
11, 173952, Note_off_c, 8, 25, 64
11, 173972, Note_on_c, 8, 25, 100
11, 174148, Note_off_c, 8, 25, 64
11, 174172, Note_on_c, 8, 25, 100
11, 174348, Note_off_c, 8, 25, 64
11, 174360, Note_on_c, 8, 25, 100
11, 174536, Note_off_c, 8, 25, 64
11, 174556, Note_on_c, 8, 25, 100
11, 174732, Note_off_c, 8, 25, 64
11, 174736, Note_on_c, 8, 25, 100
11, 174912, Note_off_c, 8, 25, 64
11, 174940, Note_on_c, 8, 25, 100
11, 175116, Note_off_c, 8, 25, 64
11, 175132, Note_on_c, 8, 25, 100
11, 175308, Note_off_c, 8, 25, 64
11, 175324, Note_on_c, 8, 26, 100
11, 175500, Note_off_c, 8, 26, 64
11, 175516, Note_on_c, 8, 26, 100
11, 175692, Note_off_c, 8, 26, 64
11, 175712, Note_on_c, 8, 26, 100
11, 175888, Note_off_c, 8, 26, 64
11, 175900, Note_on_c, 8, 26, 100
11, 176076, Note_off_c, 8, 26, 64
11, 176080, Note_on_c, 8, 26, 100
11, 176256, Note_off_c, 8, 26, 64
11, 176280, Note_on_c, 8, 26, 100
11, 176456, Note_off_c, 8, 26, 64
11, 176480, Note_on_c, 8, 26, 100
11, 176656, Note_off_c, 8, 26, 64
11, 176672, Note_on_c, 8, 26, 100
11, 176848, Note_off_c, 8, 26, 64
11, 176864, Note_on_c, 8, 26, 100
11, 177040, Note_off_c, 8, 26, 64
11, 177056, Note_on_c, 8, 26, 100
11, 177232, Note_off_c, 8, 26, 64
11, 177240, Note_on_c, 8, 26, 100
11, 177416, Note_off_c, 8, 26, 64
11, 177432, Note_on_c, 8, 26, 100
11, 177608, Note_off_c, 8, 26, 64
11, 177632, Note_on_c, 8, 26, 100
11, 177808, Note_off_c, 8, 26, 64
11, 177820, Note_on_c, 8, 26, 100
11, 177996, Note_off_c, 8, 26, 64
11, 178008, Note_on_c, 8, 26, 100
11, 178184, Note_off_c, 8, 26, 64
11, 178196, Note_on_c, 8, 26, 100
11, 178372, Note_off_c, 8, 26, 64
11, 178396, Note_on_c, 8, 26, 100
11, 178572, Note_off_c, 8, 26, 64
11, 178588, Note_on_c, 8, 26, 100
11, 178764, Note_off_c, 8, 26, 64
11, 178772, Note_on_c, 8, 26, 100
11, 178948, Note_off_c, 8, 26, 64
11, 178960, Note_on_c, 8, 26, 100
11, 179136, Note_off_c, 8, 26, 64
11, 179164, Note_on_c, 8, 26, 100
11, 179340, Note_off_c, 8, 26, 64
11, 179352, Note_on_c, 8, 26, 100
11, 179528, Note_off_c, 8, 26, 64
11, 179540, Note_on_c, 8, 26, 100
11, 179716, Note_off_c, 8, 26, 64
11, 179736, Note_on_c, 8, 26, 100
11, 179912, Note_off_c, 8, 26, 64
11, 179928, Note_on_c, 8, 26, 100
11, 180104, Note_off_c, 8, 26, 64
11, 180128, Note_on_c, 8, 26, 100
11, 180304, Note_off_c, 8, 26, 64
11, 180312, Note_on_c, 8, 26, 100
11, 180488, Note_off_c, 8, 26, 64
11, 180504, Note_on_c, 8, 26, 100
11, 180688, Note_off_c, 8, 26, 64
11, 180696, Note_on_c, 8, 26, 100
11, 180872, Note_off_c, 8, 26, 64
11, 180896, Note_on_c, 8, 26, 100
11, 181072, Note_on_c, 8, 26, 100
11, 181076, Note_off_c, 8, 26, 64
11, 181256, Note_off_c, 8, 26, 64
11, 181264, Note_on_c, 8, 26, 100
11, 181440, Note_off_c, 8, 26, 64
11, 181468, Note_on_c, 8, 31, 100
11, 181644, Note_off_c, 8, 31, 64
11, 181664, Note_on_c, 8, 43, 100
11, 181840, Note_off_c, 8, 43, 64
11, 181856, Note_on_c, 8, 43, 100
11, 182032, Note_off_c, 8, 43, 64
11, 182036, Note_on_c, 8, 31, 100
11, 182212, Note_off_c, 8, 31, 64
11, 182232, Note_on_c, 8, 31, 100
11, 182408, Note_off_c, 8, 31, 64
11, 182424, Note_on_c, 8, 43, 100
11, 182600, Note_off_c, 8, 43, 64
11, 182616, Note_on_c, 8, 43, 100
11, 182792, Note_off_c, 8, 43, 64
11, 182808, Note_on_c, 8, 31, 100
11, 182984, Note_off_c, 8, 31, 64
11, 183004, Note_on_c, 8, 29, 100
11, 183180, Note_off_c, 8, 29, 64
11, 183184, Note_on_c, 8, 41, 100
11, 183360, Note_off_c, 8, 41, 64
11, 183388, Note_on_c, 8, 41, 100
11, 183564, Note_off_c, 8, 41, 64
11, 183572, Note_on_c, 8, 29, 100
11, 183748, Note_off_c, 8, 29, 64
11, 183768, Note_on_c, 8, 29, 100
11, 183944, Note_off_c, 8, 29, 64
11, 183956, Note_on_c, 8, 41, 100
11, 184132, Note_off_c, 8, 41, 64
11, 184160, Note_on_c, 8, 41, 100
11, 184336, Note_off_c, 8, 41, 64
11, 184340, Note_on_c, 8, 29, 100
11, 184516, Note_off_c, 8, 29, 64
11, 184532, Note_on_c, 8, 27, 100
11, 184708, Note_off_c, 8, 27, 64
11, 184728, Note_on_c, 8, 39, 100
11, 184904, Note_off_c, 8, 39, 64
11, 184924, Note_on_c, 8, 39, 100
11, 185100, Note_off_c, 8, 39, 64
11, 185108, Note_on_c, 8, 27, 100
11, 185284, Note_off_c, 8, 27, 64
11, 185312, Note_on_c, 8, 27, 100
11, 185488, Note_off_c, 8, 27, 64
11, 185500, Note_on_c, 8, 39, 100
11, 185676, Note_off_c, 8, 39, 64
11, 185684, Note_on_c, 8, 39, 100
11, 185860, Note_off_c, 8, 39, 64
11, 185884, Note_on_c, 8, 27, 100
11, 186060, Note_off_c, 8, 27, 64
11, 186076, Note_on_c, 8, 26, 100
11, 186252, Note_off_c, 8, 26, 64
11, 186644, Note_on_c, 8, 38, 100
11, 186820, Note_off_c, 8, 38, 64
11, 186832, Note_on_c, 8, 26, 100
11, 187196, Note_off_c, 8, 26, 64
11, 187408, Note_on_c, 8, 38, 100
11, 187584, Note_off_c, 8, 38, 64
11, 187604, Note_on_c, 8, 24, 100
11, 187968, Note_off_c, 8, 24, 64
11, 188180, Note_on_c, 8, 36, 100
11, 188356, Note_off_c, 8, 36, 64
11, 188384, Note_on_c, 8, 34, 100
11, 188464, Note_off_c, 8, 34, 64
11, 188476, Note_on_c, 8, 38, 100
11, 188560, Note_off_c, 8, 38, 64
11, 188564, Note_on_c, 8, 31, 100
11, 188648, Note_off_c, 8, 31, 64
11, 188664, Note_on_c, 8, 33, 100
11, 188748, Note_off_c, 8, 33, 64
11, 188752, Note_on_c, 8, 34, 100
11, 188836, Note_off_c, 8, 34, 64
11, 188860, Note_on_c, 8, 36, 100
11, 188944, Note_off_c, 8, 36, 64
11, 188960, Note_on_c, 8, 38, 100
11, 189040, Note_off_c, 8, 38, 64
11, 189048, Note_on_c, 8, 40, 100
11, 189132, Note_off_c, 8, 40, 64
11, 189144, Note_on_c, 8, 42, 100
11, 189228, Note_off_c, 8, 42, 64
11, 189232, Note_on_c, 8, 45, 100
11, 189316, Note_off_c, 8, 45, 64
11, 189332, Note_on_c, 8, 38, 100
11, 189416, Note_off_c, 8, 38, 64
11, 189432, Note_on_c, 8, 40, 100
11, 189516, Note_off_c, 8, 40, 64
11, 189524, Note_on_c, 8, 42, 100
11, 189608, Note_off_c, 8, 42, 64
11, 189628, Note_on_c, 8, 43, 100
11, 189712, Note_off_c, 8, 43, 64
11, 189720, Note_on_c, 8, 45, 100
11, 189804, Note_off_c, 8, 45, 64
11, 189808, Note_on_c, 8, 46, 100
11, 189892, Note_off_c, 8, 46, 64
11, 189904, Note_on_c, 8, 48, 100
11, 189988, Note_off_c, 8, 48, 64
11, 190012, Note_on_c, 8, 45, 100
11, 190096, Note_off_c, 8, 45, 64
11, 190104, Note_on_c, 8, 42, 100
11, 190188, Note_off_c, 8, 42, 64
11, 190192, Note_on_c, 8, 43, 100
11, 190276, Note_off_c, 8, 43, 64
11, 190300, Note_on_c, 8, 45, 100
11, 190384, Note_off_c, 8, 45, 64
11, 190392, Note_on_c, 8, 46, 100
11, 190476, Note_off_c, 8, 46, 64
11, 190488, Note_on_c, 8, 48, 100
11, 190572, Note_off_c, 8, 48, 64
11, 190584, Note_on_c, 8, 50, 100
11, 190668, Note_off_c, 8, 50, 64
11, 190672, Note_on_c, 8, 51, 100
11, 190944, Note_off_c, 8, 51, 64
11, 190972, Note_on_c, 8, 50, 100
11, 191056, Note_off_c, 8, 50, 64
11, 191072, Note_on_c, 8, 48, 100
11, 191152, Note_off_c, 8, 48, 64
11, 191152, Note_on_c, 8, 46, 100
11, 191236, Note_off_c, 8, 46, 64
11, 191260, Note_on_c, 8, 45, 100
11, 191344, Note_off_c, 8, 45, 64
11, 191360, Note_on_c, 8, 43, 100
11, 191440, Note_off_c, 8, 43, 64
11, 191452, Note_on_c, 8, 42, 100
11, 191628, Note_off_c, 8, 42, 64
11, 191640, Note_on_c, 8, 43, 100
11, 191816, Note_off_c, 8, 43, 64
11, 191832, Note_on_c, 8, 38, 100
11, 192008, Note_off_c, 8, 38, 64
11, 192024, Note_on_c, 8, 26, 100
11, 192200, Note_off_c, 8, 26, 64
11, 192224, Note_on_c, 8, 31, 100
11, 192400, Note_off_c, 8, 31, 64
11, 192416, Note_on_c, 8, 43, 100
11, 192592, Note_on_c, 8, 43, 100
11, 192596, Note_off_c, 8, 43, 64
11, 192776, Note_off_c, 8, 43, 64
11, 192796, Note_on_c, 8, 31, 100
11, 192972, Note_off_c, 8, 31, 64
11, 192976, Note_on_c, 8, 31, 100
11, 193152, Note_off_c, 8, 31, 64
11, 193168, Note_on_c, 8, 43, 100
11, 193344, Note_off_c, 8, 43, 64
11, 193360, Note_on_c, 8, 43, 100
11, 193536, Note_off_c, 8, 43, 64
11, 193564, Note_on_c, 8, 31, 100
11, 193740, Note_off_c, 8, 31, 64
11, 193752, Note_on_c, 8, 31, 100
11, 193928, Note_off_c, 8, 31, 64
11, 193940, Note_on_c, 8, 43, 100
11, 194024, Note_off_c, 8, 43, 64
11, 194032, Note_on_c, 8, 42, 100
11, 194116, Note_off_c, 8, 42, 64
11, 194136, Note_on_c, 8, 40, 100
11, 194312, Note_off_c, 8, 40, 64
11, 194336, Note_on_c, 8, 45, 100
11, 194512, Note_off_c, 8, 45, 64
11, 194528, Note_on_c, 8, 38, 100
11, 194704, Note_off_c, 8, 38, 64
11, 194712, Note_on_c, 8, 50, 100
11, 194796, Note_off_c, 8, 50, 64
11, 194808, Note_on_c, 8, 49, 100
11, 194892, Note_off_c, 8, 49, 64
11, 194912, Note_on_c, 8, 50, 100
11, 195088, Note_off_c, 8, 50, 64
11, 195100, Note_on_c, 8, 38, 100
11, 195276, Note_off_c, 8, 38, 64
11, 195288, Note_on_c, 8, 38, 100
11, 195464, Note_off_c, 8, 38, 64
11, 195476, Note_on_c, 8, 50, 100
11, 195560, Note_off_c, 8, 50, 64
11, 195580, Note_on_c, 8, 49, 100
11, 195664, Note_off_c, 8, 49, 64
11, 195672, Note_on_c, 8, 50, 100
11, 195848, Note_off_c, 8, 50, 64
11, 195872, Note_on_c, 8, 38, 100
11, 196048, Note_off_c, 8, 38, 64
11, 196056, Note_on_c, 8, 38, 100
11, 196232, Note_off_c, 8, 38, 64
11, 196248, Note_on_c, 8, 50, 100
11, 196332, Note_off_c, 8, 50, 64
11, 196340, Note_on_c, 8, 49, 100
11, 196424, Note_off_c, 8, 49, 64
11, 196440, Note_on_c, 8, 50, 100
11, 196616, Note_off_c, 8, 50, 64
11, 196628, Note_on_c, 8, 42, 100
11, 196804, Note_off_c, 8, 42, 64
11, 196832, Note_on_c, 8, 43, 100
11, 197008, Note_off_c, 8, 43, 64
11, 197024, Note_on_c, 8, 40, 100
11, 197200, Note_off_c, 8, 40, 64
11, 197212, Note_on_c, 8, 36, 100
11, 197388, Note_off_c, 8, 36, 64
11, 197408, Note_on_c, 8, 38, 100
11, 197584, Note_off_c, 8, 38, 64
11, 197588, Note_on_c, 8, 40, 100
11, 197764, Note_off_c, 8, 40, 64
11, 197780, Note_on_c, 8, 38, 100
11, 197864, Note_off_c, 8, 38, 64
11, 197872, Note_on_c, 8, 36, 100
11, 197956, Note_off_c, 8, 36, 64
11, 197968, Note_on_c, 8, 35, 100
11, 198144, Note_off_c, 8, 35, 64
11, 198176, Note_on_c, 8, 33, 100
11, 198256, Note_off_c, 8, 33, 64
11, 198256, Note_on_c, 8, 31, 100
11, 198340, Note_off_c, 8, 31, 64
11, 198356, Note_on_c, 8, 36, 100
11, 198532, Note_off_c, 8, 36, 64
11, 198548, Note_on_c, 8, 35, 100
11, 198632, Note_off_c, 8, 35, 64
11, 198640, Note_on_c, 8, 33, 100
11, 198724, Note_off_c, 8, 33, 64
11, 198744, Note_on_c, 8, 31, 100
11, 198920, Note_off_c, 8, 31, 64
11, 198936, Note_on_c, 8, 43, 100
11, 199020, Note_off_c, 8, 43, 64
11, 199036, Note_on_c, 8, 42, 100
11, 199120, Note_off_c, 8, 42, 64
11, 199136, Note_on_c, 8, 40, 100
11, 199312, Note_off_c, 8, 40, 64
11, 199312, Note_on_c, 8, 38, 100
11, 199396, Note_off_c, 8, 38, 64
11, 199412, Note_on_c, 8, 36, 100
11, 199496, Note_off_c, 8, 36, 64
11, 199508, Note_on_c, 8, 35, 100
11, 199684, Note_off_c, 8, 35, 64
11, 199712, Note_on_c, 8, 37, 100
11, 199888, Note_off_c, 8, 37, 64
11, 199888, Note_on_c, 8, 38, 100
11, 200064, Note_off_c, 8, 38, 64
11, 200080, Note_on_c, 8, 26, 100
11, 200256, Note_off_c, 8, 26, 64
11, 200276, Note_on_c, 8, 26, 100
11, 200452, Note_off_c, 8, 26, 64
11, 200472, Note_on_c, 8, 38, 100
11, 200556, Note_off_c, 8, 38, 64
11, 200572, Note_on_c, 8, 40, 100
11, 200656, Note_off_c, 8, 40, 64
11, 200668, Note_on_c, 8, 42, 100
11, 200844, Note_off_c, 8, 42, 64
11, 200852, Note_on_c, 8, 43, 100
11, 201028, Note_off_c, 8, 43, 64
11, 201044, Note_on_c, 8, 45, 100
11, 201220, Note_off_c, 8, 45, 64
11, 201236, Note_on_c, 8, 42, 100
11, 201412, Note_off_c, 8, 42, 64
11, 201432, Note_on_c, 8, 43, 100
11, 201608, Note_off_c, 8, 43, 64
11, 201624, Note_on_c, 8, 36, 100
11, 201800, Note_off_c, 8, 36, 64
11, 201812, Note_on_c, 8, 38, 100
11, 201988, Note_off_c, 8, 38, 64
11, 202000, Note_on_c, 8, 38, 100
11, 202176, Note_off_c, 8, 38, 64
11, 202196, Note_on_c, 8, 43, 100
11, 202372, Note_off_c, 8, 43, 64
11, 202392, Note_on_c, 8, 31, 100
11, 202568, Note_off_c, 8, 31, 64
11, 202576, Note_on_c, 8, 31, 100
11, 202752, Note_off_c, 8, 31, 64
11, 202784, Note_on_c, 8, 31, 100
11, 202960, Note_on_c, 8, 31, 100
11, 202964, Note_off_c, 8, 31, 64
11, 203136, Note_off_c, 8, 31, 64
11, 203168, Note_on_c, 8, 31, 100
11, 203344, Note_off_c, 8, 31, 64
11, 203348, Note_on_c, 8, 31, 100
11, 203524, Note_off_c, 8, 31, 64
11, 203536, Note_on_c, 8, 31, 100
11, 203712, Note_off_c, 8, 31, 64
11, 203728, Note_on_c, 8, 31, 100
11, 203904, Note_off_c, 8, 31, 64
11, 203924, Note_on_c, 8, 31, 100
11, 204100, Note_off_c, 8, 31, 64
11, 204128, Note_on_c, 8, 31, 100
11, 204304, Note_off_c, 8, 31, 64
11, 204316, Note_on_c, 8, 31, 100
11, 204492, Note_off_c, 8, 31, 64
11, 204512, Note_on_c, 8, 31, 100
11, 204688, Note_on_c, 8, 31, 100
11, 204692, Note_off_c, 8, 31, 64
11, 204868, Note_off_c, 8, 31, 64
11, 204884, Note_on_c, 8, 31, 100
11, 205060, Note_off_c, 8, 31, 64
11, 205076, Note_on_c, 8, 31, 100
11, 205252, Note_off_c, 8, 31, 64
11, 205272, Note_on_c, 8, 31, 100
11, 205448, Note_off_c, 8, 31, 64
11, 205468, Note_on_c, 8, 31, 100
11, 205644, Note_off_c, 8, 31, 64
11, 205660, Note_on_c, 8, 31, 100
11, 205836, Note_off_c, 8, 31, 64
11, 205840, Note_on_c, 8, 31, 100
11, 206016, Note_off_c, 8, 31, 64
11, 206040, Note_on_c, 8, 31, 100
11, 206216, Note_off_c, 8, 31, 64
11, 206228, Note_on_c, 8, 31, 100
11, 206404, Note_off_c, 8, 31, 64
11, 206432, Note_on_c, 8, 31, 100
11, 206608, Note_off_c, 8, 31, 64
11, 206616, Note_on_c, 8, 38, 100
11, 206792, Note_off_c, 8, 38, 64
11, 206808, Note_on_c, 8, 43, 100
11, 206984, Note_off_c, 8, 43, 64
11, 207008, Note_on_c, 8, 42, 100
11, 207088, Note_off_c, 8, 42, 64
11, 207092, Note_on_c, 8, 40, 100
11, 207176, Note_off_c, 8, 40, 64
11, 207192, Note_on_c, 8, 38, 100
11, 207276, Note_off_c, 8, 38, 64
11, 207284, Note_on_c, 8, 36, 100
11, 207368, Note_off_c, 8, 36, 64
11, 207380, Note_on_c, 8, 35, 100
11, 207464, Note_off_c, 8, 35, 64
11, 207484, Note_on_c, 8, 33, 100
11, 207568, Note_off_c, 8, 33, 64
11, 207572, Note_on_c, 8, 35, 100
11, 207748, Note_off_c, 8, 35, 64
11, 207768, Note_on_c, 8, 33, 100
11, 207852, Note_off_c, 8, 33, 64
11, 207864, Note_on_c, 8, 31, 100
11, 207948, Note_off_c, 8, 31, 64
11, 207960, Note_on_c, 8, 38, 100
11, 208136, Note_off_c, 8, 38, 64
11, 208152, Note_on_c, 8, 26, 100
11, 208328, Note_off_c, 8, 26, 64
11, 208352, Note_on_c, 8, 31, 100
11, 209088, Note_off_c, 8, 31, 64
11, 209088, End_track
0, 0, End_of_file
