0, 0, Header, 1, 9, 480
1, 0, Start_track
1, 0, Text_t, "Seq-1"
1, 0, SMPTE_offset, 96, 0, 0, 0, 0
1, 0, Time_signature, 3, 2, 24, 8
1, 0, Tempo, 600000
1, 1440, Tempo, 315789
1, 1440, End_track
2, 0, Start_track
2, 0, Text_t, "(C) & (P) 1993"
2, 0, End_track
3, 0, Start_track
3, 0, Text_t, "Romeo Music Intl."
3, 0, End_track
4, 0, Start_track
4, 0, Text_t, "ALL RIGHTS RESERVED"
4, 0, End_track
5, 0, Start_track
5, 0, Text_t, "1-617-254-9109"
5, 0, End_track
6, 0, Start_track
6, 0, Text_t, "High Strings"
6, 0, Program_c, 0, 48
6, 2340, Note_on_c, 0, 69, 69
6, 2392, Note_off_c, 0, 69, 90
6, 2400, Note_on_c, 0, 81, 69
6, 2400, Note_on_c, 0, 78, 69
6, 2813, Note_off_c, 0, 81, 90
6, 2813, Note_off_c, 0, 78, 90
6, 2880, Note_on_c, 0, 78, 69
6, 2880, Note_on_c, 0, 81, 69
6, 3293, Note_off_c, 0, 78, 90
6, 3293, Note_off_c, 0, 81, 90
6, 3780, Note_on_c, 0, 69, 69
6, 3832, Note_off_c, 0, 69, 90
6, 3840, Note_on_c, 0, 78, 69
6, 3840, Note_on_c, 0, 74, 69
6, 4253, Note_off_c, 0, 78, 90
6, 4253, Note_off_c, 0, 74, 90
6, 4320, Note_on_c, 0, 74, 69
6, 4320, Note_on_c, 0, 78, 69
6, 4733, Note_off_c, 0, 74, 90
6, 4733, Note_off_c, 0, 78, 90
6, 8100, Note_on_c, 0, 69, 69
6, 8152, Note_off_c, 0, 69, 90
6, 8160, Note_on_c, 0, 81, 69
6, 8160, Note_on_c, 0, 79, 69
6, 8573, Note_off_c, 0, 81, 90
6, 8573, Note_off_c, 0, 79, 90
6, 8640, Note_on_c, 0, 79, 69
6, 8640, Note_on_c, 0, 81, 69
6, 9053, Note_off_c, 0, 79, 90
6, 9053, Note_off_c, 0, 81, 90
6, 9540, Note_on_c, 0, 69, 69
6, 9592, Note_off_c, 0, 69, 90
6, 9600, Note_on_c, 0, 79, 69
6, 9600, Note_on_c, 0, 73, 69
6, 10013, Note_off_c, 0, 79, 90
6, 10013, Note_off_c, 0, 73, 90
6, 10080, Note_on_c, 0, 73, 69
6, 10080, Note_on_c, 0, 79, 69
6, 10493, Note_off_c, 0, 73, 90
6, 10493, Note_off_c, 0, 79, 90
6, 13860, Note_on_c, 0, 69, 69
6, 13912, Note_off_c, 0, 69, 90
6, 13920, Note_on_c, 0, 83, 69
6, 13920, Note_on_c, 0, 79, 69
6, 14333, Note_off_c, 0, 83, 90
6, 14333, Note_off_c, 0, 79, 90
6, 14400, Note_on_c, 0, 79, 69
6, 14400, Note_on_c, 0, 83, 69
6, 14813, Note_off_c, 0, 79, 90
6, 14813, Note_off_c, 0, 83, 90
6, 15300, Note_on_c, 0, 73, 69
6, 15352, Note_off_c, 0, 73, 90
6, 15360, Note_on_c, 0, 79, 69
6, 15360, Note_on_c, 0, 73, 69
6, 15773, Note_off_c, 0, 79, 90
6, 15773, Note_off_c, 0, 73, 90
6, 15840, Note_on_c, 0, 73, 69
6, 15840, Note_on_c, 0, 79, 69
6, 16253, Note_off_c, 0, 73, 90
6, 16253, Note_off_c, 0, 79, 90
6, 19620, Note_on_c, 0, 74, 69
6, 19672, Note_off_c, 0, 74, 90
6, 19680, Note_on_c, 0, 83, 69
6, 19680, Note_on_c, 0, 78, 69
6, 19680, Note_on_c, 0, 74, 69
6, 20093, Note_off_c, 0, 83, 90
6, 20093, Note_off_c, 0, 74, 90
6, 20093, Note_off_c, 0, 78, 90
6, 20160, Note_on_c, 0, 74, 69
6, 20160, Note_on_c, 0, 78, 69
6, 20160, Note_on_c, 0, 83, 69
6, 20573, Note_off_c, 0, 74, 90
6, 20573, Note_off_c, 0, 83, 90
6, 20573, Note_off_c, 0, 78, 90
6, 21060, Note_on_c, 0, 74, 69
6, 21112, Note_off_c, 0, 74, 90
6, 21120, Note_on_c, 0, 78, 69
6, 21120, Note_on_c, 0, 74, 69
6, 21533, Note_off_c, 0, 78, 90
6, 21533, Note_off_c, 0, 74, 90
6, 21600, Note_on_c, 0, 74, 69
6, 21600, Note_on_c, 0, 78, 69
6, 22013, Note_off_c, 0, 74, 90
6, 22013, Note_off_c, 0, 78, 90
6, 25380, Note_on_c, 0, 74, 69
6, 25432, Note_off_c, 0, 74, 90
6, 25440, Note_on_c, 0, 86, 69
6, 25440, Note_on_c, 0, 81, 69
6, 25853, Note_off_c, 0, 86, 90
6, 25853, Note_off_c, 0, 81, 90
6, 25920, Note_on_c, 0, 81, 69
6, 25920, Note_on_c, 0, 86, 69
6, 26333, Note_off_c, 0, 81, 90
6, 26333, Note_off_c, 0, 86, 90
6, 26820, Note_on_c, 0, 74, 69
6, 26872, Note_off_c, 0, 74, 90
6, 26880, Note_on_c, 0, 81, 69
6, 26880, Note_on_c, 0, 78, 69
6, 27293, Note_off_c, 0, 81, 90
6, 27293, Note_off_c, 0, 78, 90
6, 27360, Note_on_c, 0, 78, 69
6, 27360, Note_on_c, 0, 81, 69
6, 27773, Note_off_c, 0, 78, 90
6, 27773, Note_off_c, 0, 81, 90
6, 31140, Note_on_c, 0, 74, 69
6, 31192, Note_off_c, 0, 74, 90
6, 31200, Note_on_c, 0, 86, 69
6, 31200, Note_on_c, 0, 83, 69
6, 31613, Note_off_c, 0, 86, 90
6, 31613, Note_off_c, 0, 83, 90
6, 31680, Note_on_c, 0, 83, 69
6, 31680, Note_on_c, 0, 86, 69
6, 32093, Note_off_c, 0, 83, 90
6, 32093, Note_off_c, 0, 86, 90
6, 32580, Note_on_c, 0, 74, 69
6, 32632, Note_off_c, 0, 74, 90
6, 32640, Note_on_c, 0, 83, 69
6, 32640, Note_on_c, 0, 76, 69
6, 33053, Note_off_c, 0, 83, 90
6, 33053, Note_off_c, 0, 76, 90
6, 33120, Note_on_c, 0, 76, 69
6, 33120, Note_on_c, 0, 83, 69
6, 33533, Note_off_c, 0, 76, 90
6, 33533, Note_off_c, 0, 83, 90
6, 34080, Note_on_c, 0, 76, 69
6, 34493, Note_off_c, 0, 76, 90
6, 34560, Note_on_c, 0, 76, 69
6, 34973, Note_off_c, 0, 76, 90
6, 35040, Note_on_c, 0, 79, 69
6, 35453, Note_off_c, 0, 79, 90
6, 35520, Note_on_c, 0, 83, 69
6, 35726, Note_off_c, 0, 83, 90
6, 36000, Note_on_c, 0, 83, 69
6, 37651, Note_off_c, 0, 83, 90
6, 37920, Note_on_c, 0, 80, 69
6, 38333, Note_off_c, 0, 80, 90
6, 38400, Note_on_c, 0, 81, 69
6, 38813, Note_off_c, 0, 81, 90
6, 38880, Note_on_c, 0, 90, 69
6, 40531, Note_off_c, 0, 90, 90
6, 40800, Note_on_c, 0, 86, 69
6, 41213, Note_off_c, 0, 86, 90
6, 41280, Note_on_c, 0, 78, 69
6, 41693, Note_off_c, 0, 78, 90
6, 41760, Note_on_c, 0, 78, 69
6, 42586, Note_off_c, 0, 78, 90
6, 42720, Note_on_c, 0, 76, 69
6, 43133, Note_off_c, 0, 76, 90
6, 43200, Note_on_c, 0, 83, 69
6, 44026, Note_off_c, 0, 83, 90
6, 44160, Note_on_c, 0, 81, 69
6, 44573, Note_off_c, 0, 81, 90
6, 44640, Note_on_c, 0, 74, 69
6, 45053, Note_off_c, 0, 74, 90
6, 45360, Note_on_c, 0, 69, 69
6, 45360, Note_on_c, 0, 74, 69
6, 45566, Note_off_c, 0, 69, 90
6, 45566, Note_off_c, 0, 74, 90
6, 45600, Note_on_c, 0, 74, 69
6, 45600, Note_on_c, 0, 69, 69
6, 46013, Note_off_c, 0, 74, 90
6, 46013, Note_off_c, 0, 69, 90
6, 46560, Note_on_c, 0, 86, 55
6, 46766, Note_off_c, 0, 86, 90
6, 47040, Note_on_c, 0, 85, 55
6, 47246, Note_off_c, 0, 85, 90
6, 47520, Note_on_c, 0, 85, 55
6, 47726, Note_off_c, 0, 85, 90
6, 48000, Note_on_c, 0, 83, 55
6, 48206, Note_off_c, 0, 83, 90
6, 48480, Note_on_c, 0, 83, 55
6, 48686, Note_off_c, 0, 83, 90
6, 49440, Note_on_c, 0, 83, 55
6, 49646, Note_off_c, 0, 83, 90
6, 49920, Note_on_c, 0, 82, 55
6, 50126, Note_off_c, 0, 82, 90
6, 50400, Note_on_c, 0, 82, 55
6, 50606, Note_off_c, 0, 82, 90
6, 50880, Note_on_c, 0, 83, 55
6, 51086, Note_off_c, 0, 83, 90
6, 51360, Note_on_c, 0, 83, 55
6, 51566, Note_off_c, 0, 83, 90
6, 52320, Note_on_c, 0, 76, 55
6, 52526, Note_off_c, 0, 76, 90
6, 52800, Note_on_c, 0, 76, 55
6, 53006, Note_off_c, 0, 76, 90
6, 53280, Note_on_c, 0, 78, 55
6, 54106, Note_off_c, 0, 78, 90
6, 54240, Note_on_c, 0, 76, 55
6, 54653, Note_off_c, 0, 76, 90
6, 55200, Note_on_c, 0, 76, 55
6, 55406, Note_off_c, 0, 76, 90
6, 55680, Note_on_c, 0, 76, 55
6, 55886, Note_off_c, 0, 76, 90
6, 56160, Note_on_c, 0, 83, 55
6, 56986, Note_off_c, 0, 83, 90
6, 57120, Note_on_c, 0, 81, 55
6, 57533, Note_off_c, 0, 81, 90
6, 58080, Note_on_c, 0, 86, 55
6, 58286, Note_off_c, 0, 86, 90
6, 58560, Note_on_c, 0, 85, 55
6, 58766, Note_off_c, 0, 85, 90
6, 59040, Note_on_c, 0, 85, 55
6, 59246, Note_off_c, 0, 85, 90
6, 59520, Note_on_c, 0, 83, 55
6, 59726, Note_off_c, 0, 83, 90
6, 60000, Note_on_c, 0, 83, 55
6, 60206, Note_off_c, 0, 83, 90
6, 60960, Note_on_c, 0, 83, 55
6, 61166, Note_off_c, 0, 83, 90
6, 61440, Note_on_c, 0, 82, 55
6, 61440, Note_on_c, 0, 85, 55
6, 61646, Note_off_c, 0, 82, 90
6, 61646, Note_off_c, 0, 85, 90
6, 61920, Note_on_c, 0, 85, 55
6, 61920, Note_on_c, 0, 88, 55
6, 62126, Note_off_c, 0, 85, 90
6, 62126, Note_off_c, 0, 88, 90
6, 62400, Note_on_c, 0, 83, 55
6, 62400, Note_on_c, 0, 86, 55
6, 62606, Note_off_c, 0, 83, 90
6, 62606, Note_off_c, 0, 86, 90
6, 62880, Note_on_c, 0, 83, 55
6, 62880, Note_on_c, 0, 86, 55
6, 63086, Note_off_c, 0, 83, 90
6, 63086, Note_off_c, 0, 86, 90
6, 63840, Note_on_c, 0, 80, 55
6, 64046, Note_off_c, 0, 80, 90
6, 64320, Note_on_c, 0, 83, 55
6, 64526, Note_off_c, 0, 83, 90
6, 64800, Note_on_c, 0, 83, 55
6, 65626, Note_off_c, 0, 83, 90
6, 65760, Note_on_c, 0, 81, 55
6, 66173, Note_off_c, 0, 81, 90
6, 66240, Note_on_c, 0, 80, 55
6, 66859, Note_off_c, 0, 80, 90
6, 66960, Note_on_c, 0, 78, 55
6, 67166, Note_off_c, 0, 78, 90
6, 67200, Note_on_c, 0, 74, 55
6, 67406, Note_off_c, 0, 74, 90
6, 67440, Note_on_c, 0, 71, 55
6, 67646, Note_off_c, 0, 71, 90
6, 67680, Note_on_c, 0, 74, 55
6, 67680, Note_on_c, 0, 78, 55
6, 67886, Note_off_c, 0, 74, 90
6, 67886, Note_off_c, 0, 78, 90
6, 67920, Note_on_c, 0, 74, 55
6, 67920, Note_on_c, 0, 78, 55
6, 68126, Note_off_c, 0, 74, 90
6, 68126, Note_off_c, 0, 78, 90
6, 68160, Note_on_c, 0, 74, 55
6, 68160, Note_on_c, 0, 78, 55
6, 68573, Note_off_c, 0, 74, 90
6, 68573, Note_off_c, 0, 78, 90
6, 68640, Note_on_c, 0, 76, 55
6, 68640, Note_on_c, 0, 74, 55
6, 69053, Note_off_c, 0, 76, 90
6, 69053, Note_off_c, 0, 74, 90
6, 69120, Note_on_c, 0, 69, 55
6, 69533, Note_off_c, 0, 69, 90
6, 69600, Note_on_c, 0, 78, 55
6, 69600, Note_on_c, 0, 86, 55
6, 69806, Note_off_c, 0, 78, 90
6, 69806, Note_off_c, 0, 86, 90
6, 70080, Note_on_c, 0, 76, 55
6, 70080, Note_on_c, 0, 85, 55
6, 70286, Note_off_c, 0, 76, 90
6, 70286, Note_off_c, 0, 85, 90
6, 70560, Note_on_c, 0, 85, 55
6, 70766, Note_off_c, 0, 85, 90
6, 71040, Note_on_c, 0, 83, 55
6, 71246, Note_off_c, 0, 83, 90
6, 71520, Note_on_c, 0, 83, 55
6, 71726, Note_off_c, 0, 83, 90
6, 72480, Note_on_c, 0, 83, 55
6, 72686, Note_off_c, 0, 83, 90
6, 72960, Note_on_c, 0, 82, 55
6, 73166, Note_off_c, 0, 82, 90
6, 73440, Note_on_c, 0, 82, 55
6, 73646, Note_off_c, 0, 82, 90
6, 73920, Note_on_c, 0, 83, 55
6, 74126, Note_off_c, 0, 83, 90
6, 74400, Note_on_c, 0, 83, 55
6, 74606, Note_off_c, 0, 83, 90
6, 75360, Note_on_c, 0, 76, 55
6, 75566, Note_off_c, 0, 76, 90
6, 75840, Note_on_c, 0, 76, 55
6, 76046, Note_off_c, 0, 76, 90
6, 76320, Note_on_c, 0, 78, 55
6, 77146, Note_off_c, 0, 78, 90
6, 77280, Note_on_c, 0, 76, 55
6, 77693, Note_off_c, 0, 76, 90
6, 78240, Note_on_c, 0, 76, 55
6, 78446, Note_off_c, 0, 76, 90
6, 78720, Note_on_c, 0, 76, 55
6, 78926, Note_off_c, 0, 76, 90
6, 79200, Note_on_c, 0, 83, 55
6, 80026, Note_off_c, 0, 83, 90
6, 80160, Note_on_c, 0, 81, 55
6, 80573, Note_off_c, 0, 81, 90
6, 81120, Note_on_c, 0, 86, 55
6, 81326, Note_off_c, 0, 86, 90
6, 81600, Note_on_c, 0, 85, 55
6, 81806, Note_off_c, 0, 85, 90
6, 82080, Note_on_c, 0, 85, 55
6, 82286, Note_off_c, 0, 85, 90
6, 82560, Note_on_c, 0, 83, 55
6, 82766, Note_off_c, 0, 83, 90
6, 83040, Note_on_c, 0, 83, 55
6, 83246, Note_off_c, 0, 83, 90
6, 84000, Note_on_c, 0, 83, 55
6, 84206, Note_off_c, 0, 83, 90
6, 84480, Note_on_c, 0, 82, 55
6, 84480, Note_on_c, 0, 85, 55
6, 84686, Note_off_c, 0, 82, 90
6, 84686, Note_off_c, 0, 85, 90
6, 84960, Note_on_c, 0, 85, 55
6, 84960, Note_on_c, 0, 88, 55
6, 85166, Note_off_c, 0, 85, 90
6, 85166, Note_off_c, 0, 88, 90
6, 85440, Note_on_c, 0, 83, 55
6, 85440, Note_on_c, 0, 86, 55
6, 85646, Note_off_c, 0, 83, 90
6, 85646, Note_off_c, 0, 86, 90
6, 85920, Note_on_c, 0, 83, 55
6, 85920, Note_on_c, 0, 86, 55
6, 86126, Note_off_c, 0, 83, 90
6, 86126, Note_off_c, 0, 86, 90
6, 86880, Note_on_c, 0, 80, 55
6, 87086, Note_off_c, 0, 80, 90
6, 87360, Note_on_c, 0, 83, 55
6, 87566, Note_off_c, 0, 83, 90
6, 87840, Note_on_c, 0, 83, 55
6, 88666, Note_off_c, 0, 83, 90
6, 88800, Note_on_c, 0, 81, 55
6, 89213, Note_off_c, 0, 81, 90
6, 89280, Note_on_c, 0, 80, 55
6, 89899, Note_off_c, 0, 80, 90
6, 90000, Note_on_c, 0, 78, 55
6, 90206, Note_off_c, 0, 78, 90
6, 90240, Note_on_c, 0, 74, 55
6, 90446, Note_off_c, 0, 74, 90
6, 90480, Note_on_c, 0, 71, 55
6, 90686, Note_off_c, 0, 71, 90
6, 90720, Note_on_c, 0, 74, 55
6, 90720, Note_on_c, 0, 78, 55
6, 90926, Note_off_c, 0, 74, 90
6, 90926, Note_off_c, 0, 78, 90
6, 90960, Note_on_c, 0, 74, 55
6, 90960, Note_on_c, 0, 78, 55
6, 91166, Note_off_c, 0, 74, 90
6, 91166, Note_off_c, 0, 78, 90
6, 91200, Note_on_c, 0, 74, 55
6, 91200, Note_on_c, 0, 78, 55
6, 91613, Note_off_c, 0, 74, 90
6, 91613, Note_off_c, 0, 78, 90
6, 91680, Note_on_c, 0, 76, 55
6, 91680, Note_on_c, 0, 74, 55
6, 92093, Note_off_c, 0, 76, 90
6, 92093, Note_off_c, 0, 74, 90
6, 92160, Note_on_c, 0, 69, 55
6, 92573, Note_off_c, 0, 69, 90
6, 93600, Note_on_c, 0, 81, 55
6, 96490, Note_off_c, 0, 81, 90
6, 100260, Note_on_c, 0, 69, 69
6, 100312, Note_off_c, 0, 69, 90
6, 100320, Note_on_c, 0, 81, 69
6, 100320, Note_on_c, 0, 78, 69
6, 100733, Note_off_c, 0, 81, 90
6, 100733, Note_off_c, 0, 78, 90
6, 100800, Note_on_c, 0, 78, 69
6, 100800, Note_on_c, 0, 81, 69
6, 101213, Note_off_c, 0, 78, 90
6, 101213, Note_off_c, 0, 81, 90
6, 101700, Note_on_c, 0, 69, 69
6, 101752, Note_off_c, 0, 69, 90
6, 101760, Note_on_c, 0, 78, 69
6, 101760, Note_on_c, 0, 74, 69
6, 102173, Note_off_c, 0, 78, 90
6, 102173, Note_off_c, 0, 74, 90
6, 102240, Note_on_c, 0, 74, 69
6, 102240, Note_on_c, 0, 78, 69
6, 102653, Note_off_c, 0, 74, 90
6, 102653, Note_off_c, 0, 78, 90
6, 106020, Note_on_c, 0, 69, 69
6, 106072, Note_off_c, 0, 69, 90
6, 106080, Note_on_c, 0, 81, 69
6, 106080, Note_on_c, 0, 79, 69
6, 106493, Note_off_c, 0, 81, 90
6, 106493, Note_off_c, 0, 79, 90
6, 106560, Note_on_c, 0, 79, 69
6, 106560, Note_on_c, 0, 81, 69
6, 106973, Note_off_c, 0, 79, 90
6, 106973, Note_off_c, 0, 81, 90
6, 107460, Note_on_c, 0, 69, 69
6, 107512, Note_off_c, 0, 69, 90
6, 107520, Note_on_c, 0, 79, 69
6, 107520, Note_on_c, 0, 73, 69
6, 107933, Note_off_c, 0, 79, 90
6, 107933, Note_off_c, 0, 73, 90
6, 108000, Note_on_c, 0, 73, 69
6, 108000, Note_on_c, 0, 79, 69
6, 108413, Note_off_c, 0, 73, 90
6, 108413, Note_off_c, 0, 79, 90
6, 111780, Note_on_c, 0, 69, 69
6, 111832, Note_off_c, 0, 69, 90
6, 111840, Note_on_c, 0, 83, 69
6, 111840, Note_on_c, 0, 79, 69
6, 112253, Note_off_c, 0, 83, 90
6, 112253, Note_off_c, 0, 79, 90
6, 112320, Note_on_c, 0, 79, 69
6, 112320, Note_on_c, 0, 83, 69
6, 112733, Note_off_c, 0, 79, 90
6, 112733, Note_off_c, 0, 83, 90
6, 113220, Note_on_c, 0, 73, 69
6, 113272, Note_off_c, 0, 73, 90
6, 113280, Note_on_c, 0, 79, 69
6, 113280, Note_on_c, 0, 73, 69
6, 113693, Note_off_c, 0, 79, 90
6, 113693, Note_off_c, 0, 73, 90
6, 113760, Note_on_c, 0, 73, 69
6, 113760, Note_on_c, 0, 79, 69
6, 114173, Note_off_c, 0, 73, 90
6, 114173, Note_off_c, 0, 79, 90
6, 117540, Note_on_c, 0, 74, 69
6, 117592, Note_off_c, 0, 74, 90
6, 117600, Note_on_c, 0, 83, 69
6, 117600, Note_on_c, 0, 78, 69
6, 117600, Note_on_c, 0, 74, 69
6, 118013, Note_off_c, 0, 83, 90
6, 118013, Note_off_c, 0, 74, 90
6, 118013, Note_off_c, 0, 78, 90
6, 118080, Note_on_c, 0, 74, 69
6, 118080, Note_on_c, 0, 78, 69
6, 118080, Note_on_c, 0, 83, 69
6, 118493, Note_off_c, 0, 74, 90
6, 118493, Note_off_c, 0, 83, 90
6, 118493, Note_off_c, 0, 78, 90
6, 118980, Note_on_c, 0, 74, 69
6, 119032, Note_off_c, 0, 74, 90
6, 119040, Note_on_c, 0, 78, 69
6, 119040, Note_on_c, 0, 74, 69
6, 119453, Note_off_c, 0, 78, 90
6, 119453, Note_off_c, 0, 74, 90
6, 119520, Note_on_c, 0, 74, 69
6, 119520, Note_on_c, 0, 78, 69
6, 119933, Note_off_c, 0, 74, 90
6, 119933, Note_off_c, 0, 78, 90
6, 123300, Note_on_c, 0, 74, 69
6, 123352, Note_off_c, 0, 74, 90
6, 123360, Note_on_c, 0, 86, 69
6, 123360, Note_on_c, 0, 81, 69
6, 123773, Note_off_c, 0, 86, 90
6, 123773, Note_off_c, 0, 81, 90
6, 123840, Note_on_c, 0, 81, 69
6, 123840, Note_on_c, 0, 86, 69
6, 124253, Note_off_c, 0, 81, 90
6, 124253, Note_off_c, 0, 86, 90
6, 124740, Note_on_c, 0, 74, 69
6, 124792, Note_off_c, 0, 74, 90
6, 124800, Note_on_c, 0, 81, 69
6, 124800, Note_on_c, 0, 78, 69
6, 125213, Note_off_c, 0, 81, 90
6, 125213, Note_off_c, 0, 78, 90
6, 125280, Note_on_c, 0, 78, 69
6, 125280, Note_on_c, 0, 81, 69
6, 125693, Note_off_c, 0, 78, 90
6, 125693, Note_off_c, 0, 81, 90
6, 129060, Note_on_c, 0, 74, 69
6, 129112, Note_off_c, 0, 74, 90
6, 129120, Note_on_c, 0, 86, 69
6, 129120, Note_on_c, 0, 83, 69
6, 129533, Note_off_c, 0, 86, 90
6, 129533, Note_off_c, 0, 83, 90
6, 129600, Note_on_c, 0, 83, 69
6, 129600, Note_on_c, 0, 86, 69
6, 130013, Note_off_c, 0, 83, 90
6, 130013, Note_off_c, 0, 86, 90
6, 130500, Note_on_c, 0, 74, 69
6, 130552, Note_off_c, 0, 74, 90
6, 130560, Note_on_c, 0, 83, 69
6, 130560, Note_on_c, 0, 76, 69
6, 130973, Note_off_c, 0, 83, 90
6, 130973, Note_off_c, 0, 76, 90
6, 131040, Note_on_c, 0, 76, 69
6, 131040, Note_on_c, 0, 83, 69
6, 131453, Note_off_c, 0, 76, 90
6, 131453, Note_off_c, 0, 83, 90
6, 132000, Note_on_c, 0, 76, 69
6, 132413, Note_off_c, 0, 76, 90
6, 132480, Note_on_c, 0, 76, 69
6, 132893, Note_off_c, 0, 76, 90
6, 132960, Note_on_c, 0, 79, 69
6, 133373, Note_off_c, 0, 79, 90
6, 133440, Note_on_c, 0, 83, 69
6, 133646, Note_off_c, 0, 83, 90
6, 133920, Note_on_c, 0, 83, 69
6, 135571, Note_off_c, 0, 83, 90
6, 135840, Note_on_c, 0, 80, 69
6, 136253, Note_off_c, 0, 80, 90
6, 136320, Note_on_c, 0, 81, 69
6, 136733, Note_off_c, 0, 81, 90
6, 136800, Note_on_c, 0, 90, 69
6, 138451, Note_off_c, 0, 90, 90
6, 138720, Note_on_c, 0, 86, 69
6, 139133, Note_off_c, 0, 86, 90
6, 139200, Note_on_c, 0, 78, 69
6, 139613, Note_off_c, 0, 78, 90
6, 139680, Note_on_c, 0, 78, 69
6, 140506, Note_off_c, 0, 78, 90
6, 140640, Note_on_c, 0, 76, 69
6, 141053, Note_off_c, 0, 76, 90
6, 141120, Note_on_c, 0, 83, 69
6, 141946, Note_off_c, 0, 83, 90
6, 142080, Note_on_c, 0, 81, 69
6, 142493, Note_off_c, 0, 81, 90
6, 143280, Note_on_c, 0, 69, 69
6, 143280, Note_on_c, 0, 74, 69
6, 143486, Note_off_c, 0, 69, 90
6, 143486, Note_off_c, 0, 74, 90
6, 143520, Note_on_c, 0, 74, 69
6, 143520, Note_on_c, 0, 69, 69
6, 143933, Note_off_c, 0, 74, 90
6, 143933, Note_off_c, 0, 69, 90
6, 143933, End_track
7, 0, Start_track
7, 0, Text_t, "Low Strings"
7, 0, Program_c, 1, 48
7, 0, Note_on_c, 1, 62, 90
7, 480, Note_off_c, 1, 62, 90
7, 480, Note_on_c, 1, 66, 90
7, 960, Note_off_c, 1, 66, 90
7, 960, Note_on_c, 1, 69, 90
7, 1440, Note_off_c, 1, 69, 90
7, 1440, Note_on_c, 1, 69, 90
7, 4800, Note_off_c, 1, 69, 90
7, 5280, Note_on_c, 1, 62, 90
7, 5760, Note_off_c, 1, 62, 90
7, 5760, Note_on_c, 1, 62, 90
7, 6240, Note_off_c, 1, 62, 90
7, 6240, Note_on_c, 1, 66, 90
7, 6720, Note_off_c, 1, 66, 90
7, 6720, Note_on_c, 1, 69, 90
7, 7200, Note_off_c, 1, 69, 90
7, 7200, Note_on_c, 1, 69, 90
7, 7200, Note_on_c, 1, 67, 90
7, 10560, Note_off_c, 1, 69, 90
7, 10560, Note_off_c, 1, 67, 90
7, 11040, Note_on_c, 1, 61, 90
7, 11520, Note_off_c, 1, 61, 90
7, 11520, Note_on_c, 1, 61, 90
7, 12000, Note_off_c, 1, 61, 90
7, 12000, Note_on_c, 1, 64, 90
7, 12480, Note_off_c, 1, 64, 90
7, 12480, Note_on_c, 1, 71, 90
7, 12960, Note_off_c, 1, 71, 90
7, 12960, Note_on_c, 1, 71, 90
7, 16320, Note_off_c, 1, 71, 90
7, 16800, Note_on_c, 1, 61, 90
7, 17280, Note_off_c, 1, 61, 90
7, 17280, Note_on_c, 1, 61, 90
7, 17760, Note_off_c, 1, 61, 90
7, 17760, Note_on_c, 1, 64, 90
7, 18240, Note_off_c, 1, 64, 90
7, 18240, Note_on_c, 1, 71, 90
7, 18720, Note_off_c, 1, 71, 90
7, 18720, Note_on_c, 1, 71, 90
7, 21600, Note_off_c, 1, 71, 90
7, 21600, Note_on_c, 1, 69, 90
7, 22080, Note_off_c, 1, 69, 90
7, 22560, Note_on_c, 1, 62, 90
7, 23040, Note_off_c, 1, 62, 90
7, 23040, Note_on_c, 1, 62, 90
7, 23520, Note_off_c, 1, 62, 90
7, 23520, Note_on_c, 1, 66, 90
7, 24000, Note_off_c, 1, 66, 90
7, 24000, Note_on_c, 1, 69, 90
7, 24480, Note_off_c, 1, 69, 90
7, 24480, Note_on_c, 1, 74, 90
7, 27840, Note_off_c, 1, 74, 90
7, 28320, Note_on_c, 1, 62, 90
7, 28800, Note_off_c, 1, 62, 90
7, 28800, Note_on_c, 1, 62, 90
7, 29280, Note_off_c, 1, 62, 90
7, 29280, Note_on_c, 1, 66, 90
7, 29760, Note_off_c, 1, 66, 90
7, 29760, Note_on_c, 1, 69, 90
7, 30240, Note_off_c, 1, 69, 90
7, 30240, Note_on_c, 1, 74, 90
7, 32640, Note_off_c, 1, 74, 90
7, 32640, Note_on_c, 1, 74, 90
7, 33600, Note_off_c, 1, 74, 90
7, 34080, Note_on_c, 1, 64, 90
7, 34560, Note_off_c, 1, 64, 90
7, 34560, Note_on_c, 1, 64, 90
7, 35040, Note_off_c, 1, 64, 90
7, 35040, Note_on_c, 1, 67, 90
7, 35520, Note_off_c, 1, 67, 90
7, 35520, Note_on_c, 1, 71, 90
7, 36000, Note_off_c, 1, 71, 90
7, 36000, Note_on_c, 1, 71, 90
7, 37920, Note_off_c, 1, 71, 90
7, 37920, Note_on_c, 1, 68, 90
7, 38400, Note_off_c, 1, 68, 90
7, 38400, Note_on_c, 1, 69, 90
7, 38880, Note_off_c, 1, 69, 90
7, 38880, Note_on_c, 1, 78, 90
7, 40800, Note_off_c, 1, 78, 90
7, 40800, Note_on_c, 1, 74, 90
7, 41280, Note_off_c, 1, 74, 90
7, 41760, Note_on_c, 1, 71, 90
7, 43200, Note_off_c, 1, 71, 90
7, 43200, Note_on_c, 1, 73, 90
7, 44640, Note_off_c, 1, 73, 90
7, 44640, Note_on_c, 1, 74, 90
7, 45120, Note_off_c, 1, 74, 90
7, 45360, Note_on_c, 1, 66, 90
7, 45600, Note_off_c, 1, 66, 90
7, 45600, Note_on_c, 1, 66, 90
7, 46080, Note_off_c, 1, 66, 90
7, 46560, Note_on_c, 1, 78, 72
7, 46800, Note_off_c, 1, 78, 90
7, 47040, Note_on_c, 1, 76, 72
7, 47280, Note_off_c, 1, 76, 90
7, 47520, Note_on_c, 1, 76, 72
7, 47760, Note_off_c, 1, 76, 90
7, 48000, Note_on_c, 1, 74, 72
7, 48240, Note_off_c, 1, 74, 90
7, 48480, Note_on_c, 1, 74, 72
7, 48720, Note_off_c, 1, 74, 90
7, 49440, Note_on_c, 1, 74, 72
7, 49680, Note_off_c, 1, 74, 90
7, 49920, Note_on_c, 1, 73, 72
7, 50160, Note_off_c, 1, 73, 90
7, 50400, Note_on_c, 1, 73, 72
7, 50640, Note_off_c, 1, 73, 90
7, 50880, Note_on_c, 1, 74, 72
7, 51120, Note_off_c, 1, 74, 90
7, 51360, Note_on_c, 1, 74, 72
7, 51600, Note_off_c, 1, 74, 90
7, 56160, Note_on_c, 1, 71, 72
7, 57120, Note_off_c, 1, 71, 90
7, 57120, Note_on_c, 1, 69, 72
7, 57600, Note_off_c, 1, 69, 90
7, 58080, Note_on_c, 1, 78, 72
7, 58320, Note_off_c, 1, 78, 90
7, 58560, Note_on_c, 1, 76, 72
7, 58800, Note_off_c, 1, 76, 90
7, 59040, Note_on_c, 1, 76, 72
7, 59280, Note_off_c, 1, 76, 90
7, 59520, Note_on_c, 1, 74, 72
7, 59760, Note_off_c, 1, 74, 90
7, 60000, Note_on_c, 1, 74, 72
7, 60240, Note_off_c, 1, 74, 90
7, 60960, Note_on_c, 1, 74, 72
7, 61200, Note_off_c, 1, 74, 90
7, 61440, Note_on_c, 1, 73, 72
7, 61680, Note_off_c, 1, 73, 90
7, 61920, Note_on_c, 1, 76, 72
7, 62160, Note_off_c, 1, 76, 90
7, 62400, Note_on_c, 1, 74, 72
7, 62640, Note_off_c, 1, 74, 90
7, 62880, Note_on_c, 1, 74, 72
7, 63120, Note_off_c, 1, 74, 90
7, 63840, Note_on_c, 1, 68, 72
7, 64080, Note_off_c, 1, 68, 90
7, 64320, Note_on_c, 1, 71, 72
7, 64560, Note_off_c, 1, 71, 90
7, 64800, Note_on_c, 1, 71, 72
7, 65760, Note_off_c, 1, 71, 90
7, 65760, Note_on_c, 1, 69, 72
7, 66240, Note_off_c, 1, 69, 90
7, 66240, Note_on_c, 1, 68, 72
7, 66960, Note_off_c, 1, 68, 90
7, 67680, Note_on_c, 1, 68, 72
7, 67680, Note_on_c, 1, 71, 72
7, 67920, Note_off_c, 1, 68, 90
7, 67920, Note_off_c, 1, 71, 90
7, 67920, Note_on_c, 1, 68, 72
7, 67920, Note_on_c, 1, 71, 72
7, 68160, Note_off_c, 1, 68, 90
7, 68160, Note_off_c, 1, 71, 90
7, 68160, Note_on_c, 1, 68, 72
7, 68160, Note_on_c, 1, 71, 72
7, 68640, Note_off_c, 1, 68, 90
7, 68640, Note_off_c, 1, 71, 90
7, 68640, Note_on_c, 1, 71, 72
7, 68640, Note_on_c, 1, 68, 72
7, 69120, Note_off_c, 1, 71, 90
7, 69120, Note_off_c, 1, 68, 90
7, 69120, Note_on_c, 1, 61, 72
7, 69120, Note_on_c, 1, 64, 72
7, 69600, Note_off_c, 1, 61, 90
7, 69600, Note_off_c, 1, 64, 90
7, 69600, Note_on_c, 1, 78, 72
7, 69840, Note_off_c, 1, 78, 90
7, 70080, Note_on_c, 1, 76, 72
7, 70320, Note_off_c, 1, 76, 90
7, 70560, Note_on_c, 1, 76, 72
7, 70800, Note_off_c, 1, 76, 90
7, 71040, Note_on_c, 1, 74, 72
7, 71280, Note_off_c, 1, 74, 90
7, 71520, Note_on_c, 1, 74, 72
7, 71760, Note_off_c, 1, 74, 90
7, 72480, Note_on_c, 1, 74, 72
7, 72720, Note_off_c, 1, 74, 90
7, 72960, Note_on_c, 1, 73, 72
7, 73200, Note_off_c, 1, 73, 90
7, 73440, Note_on_c, 1, 73, 72
7, 73680, Note_off_c, 1, 73, 90
7, 73920, Note_on_c, 1, 74, 72
7, 74160, Note_off_c, 1, 74, 90
7, 74400, Note_on_c, 1, 74, 72
7, 74640, Note_off_c, 1, 74, 90
7, 79200, Note_on_c, 1, 71, 72
7, 80160, Note_off_c, 1, 71, 90
7, 80160, Note_on_c, 1, 69, 72
7, 80640, Note_off_c, 1, 69, 90
7, 81120, Note_on_c, 1, 78, 72
7, 81360, Note_off_c, 1, 78, 90
7, 81600, Note_on_c, 1, 76, 72
7, 81840, Note_off_c, 1, 76, 90
7, 82080, Note_on_c, 1, 76, 72
7, 82320, Note_off_c, 1, 76, 90
7, 82560, Note_on_c, 1, 74, 72
7, 82800, Note_off_c, 1, 74, 90
7, 83040, Note_on_c, 1, 74, 72
7, 83280, Note_off_c, 1, 74, 90
7, 84000, Note_on_c, 1, 74, 72
7, 84240, Note_off_c, 1, 74, 90
7, 84480, Note_on_c, 1, 73, 72
7, 84720, Note_off_c, 1, 73, 90
7, 84960, Note_on_c, 1, 76, 72
7, 85200, Note_off_c, 1, 76, 90
7, 85440, Note_on_c, 1, 74, 72
7, 85680, Note_off_c, 1, 74, 90
7, 85920, Note_on_c, 1, 74, 72
7, 86160, Note_off_c, 1, 74, 90
7, 86880, Note_on_c, 1, 68, 72
7, 87120, Note_off_c, 1, 68, 90
7, 87360, Note_on_c, 1, 71, 72
7, 87600, Note_off_c, 1, 71, 90
7, 87840, Note_on_c, 1, 71, 72
7, 88800, Note_off_c, 1, 71, 90
7, 88800, Note_on_c, 1, 69, 72
7, 89280, Note_off_c, 1, 69, 90
7, 89280, Note_on_c, 1, 68, 72
7, 90000, Note_off_c, 1, 68, 90
7, 90720, Note_on_c, 1, 68, 72
7, 90720, Note_on_c, 1, 71, 72
7, 90960, Note_off_c, 1, 68, 90
7, 90960, Note_off_c, 1, 71, 90
7, 90960, Note_on_c, 1, 68, 72
7, 90960, Note_on_c, 1, 71, 72
7, 91200, Note_off_c, 1, 68, 90
7, 91200, Note_off_c, 1, 71, 90
7, 91200, Note_on_c, 1, 68, 72
7, 91200, Note_on_c, 1, 71, 72
7, 91680, Note_off_c, 1, 68, 90
7, 91680, Note_off_c, 1, 71, 90
7, 91680, Note_on_c, 1, 71, 72
7, 91680, Note_on_c, 1, 68, 72
7, 92160, Note_off_c, 1, 71, 90
7, 92160, Note_off_c, 1, 68, 90
7, 92160, Note_on_c, 1, 61, 72
7, 92160, Note_on_c, 1, 64, 72
7, 92640, Note_off_c, 1, 61, 90
7, 92640, Note_off_c, 1, 64, 90
7, 97920, Note_on_c, 1, 62, 90
7, 98400, Note_off_c, 1, 62, 90
7, 98400, Note_on_c, 1, 66, 90
7, 98880, Note_off_c, 1, 66, 90
7, 98880, Note_on_c, 1, 69, 90
7, 99360, Note_off_c, 1, 69, 90
7, 99360, Note_on_c, 1, 69, 90
7, 102720, Note_off_c, 1, 69, 90
7, 103200, Note_on_c, 1, 62, 90
7, 103680, Note_off_c, 1, 62, 90
7, 103680, Note_on_c, 1, 62, 90
7, 104160, Note_off_c, 1, 62, 90
7, 104160, Note_on_c, 1, 66, 90
7, 104640, Note_off_c, 1, 66, 90
7, 104640, Note_on_c, 1, 69, 90
7, 105120, Note_off_c, 1, 69, 90
7, 105120, Note_on_c, 1, 69, 90
7, 105120, Note_on_c, 1, 67, 90
7, 108480, Note_off_c, 1, 69, 90
7, 108480, Note_off_c, 1, 67, 90
7, 108960, Note_on_c, 1, 61, 90
7, 109440, Note_off_c, 1, 61, 90
7, 109440, Note_on_c, 1, 61, 90
7, 109920, Note_off_c, 1, 61, 90
7, 109920, Note_on_c, 1, 64, 90
7, 110400, Note_off_c, 1, 64, 90
7, 110400, Note_on_c, 1, 71, 90
7, 110880, Note_off_c, 1, 71, 90
7, 110880, Note_on_c, 1, 71, 90
7, 114240, Note_off_c, 1, 71, 90
7, 114720, Note_on_c, 1, 61, 90
7, 115200, Note_off_c, 1, 61, 90
7, 115200, Note_on_c, 1, 61, 90
7, 115680, Note_off_c, 1, 61, 90
7, 115680, Note_on_c, 1, 64, 90
7, 116160, Note_off_c, 1, 64, 90
7, 116160, Note_on_c, 1, 71, 90
7, 116640, Note_off_c, 1, 71, 90
7, 116640, Note_on_c, 1, 71, 90
7, 119520, Note_off_c, 1, 71, 90
7, 119520, Note_on_c, 1, 69, 90
7, 120000, Note_off_c, 1, 69, 90
7, 120480, Note_on_c, 1, 62, 90
7, 120960, Note_off_c, 1, 62, 90
7, 120960, Note_on_c, 1, 62, 90
7, 121440, Note_off_c, 1, 62, 90
7, 121440, Note_on_c, 1, 66, 90
7, 121920, Note_off_c, 1, 66, 90
7, 121920, Note_on_c, 1, 69, 90
7, 122400, Note_off_c, 1, 69, 90
7, 122400, Note_on_c, 1, 74, 90
7, 125760, Note_off_c, 1, 74, 90
7, 126240, Note_on_c, 1, 62, 90
7, 126720, Note_off_c, 1, 62, 90
7, 126720, Note_on_c, 1, 62, 90
7, 127200, Note_off_c, 1, 62, 90
7, 127200, Note_on_c, 1, 66, 90
7, 127680, Note_off_c, 1, 66, 90
7, 127680, Note_on_c, 1, 69, 90
7, 128160, Note_off_c, 1, 69, 90
7, 128160, Note_on_c, 1, 74, 90
7, 130560, Note_off_c, 1, 74, 90
7, 130560, Note_on_c, 1, 74, 90
7, 131520, Note_off_c, 1, 74, 90
7, 132000, Note_on_c, 1, 64, 90
7, 132480, Note_off_c, 1, 64, 90
7, 132480, Note_on_c, 1, 64, 90
7, 132960, Note_off_c, 1, 64, 90
7, 132960, Note_on_c, 1, 67, 90
7, 133440, Note_off_c, 1, 67, 90
7, 133440, Note_on_c, 1, 71, 90
7, 133920, Note_off_c, 1, 71, 90
7, 133920, Note_on_c, 1, 71, 90
7, 135840, Note_off_c, 1, 71, 90
7, 135840, Note_on_c, 1, 68, 90
7, 136320, Note_off_c, 1, 68, 90
7, 136320, Note_on_c, 1, 69, 90
7, 136800, Note_off_c, 1, 69, 90
7, 136800, Note_on_c, 1, 78, 90
7, 138720, Note_off_c, 1, 78, 90
7, 138720, Note_on_c, 1, 74, 90
7, 139200, Note_off_c, 1, 74, 90
7, 139680, Note_on_c, 1, 71, 90
7, 141120, Note_off_c, 1, 71, 90
7, 141120, Note_on_c, 1, 73, 90
7, 142560, Note_off_c, 1, 73, 90
7, 142560, Note_on_c, 1, 74, 90
7, 143040, Note_off_c, 1, 74, 90
7, 143280, Note_on_c, 1, 66, 90
7, 143520, Note_off_c, 1, 66, 90
7, 143520, Note_on_c, 1, 66, 90
7, 144000, Note_off_c, 1, 66, 90
7, 144000, End_track
8, 0, Start_track
8, 0, Text_t, "Piano RH"
8, 0, Program_c, 2, 0
8, 1920, Note_on_c, 2, 57, 73
8, 1920, Note_on_c, 2, 62, 73
8, 1920, Note_on_c, 2, 66, 73
8, 2400, Note_off_c, 2, 57, 90
8, 2400, Note_off_c, 2, 66, 90
8, 2400, Note_off_c, 2, 62, 90
8, 2400, Note_on_c, 2, 66, 73
8, 2400, Note_on_c, 2, 62, 73
8, 2400, Note_on_c, 2, 57, 73
8, 2880, Note_off_c, 2, 66, 90
8, 2880, Note_off_c, 2, 57, 90
8, 2880, Note_off_c, 2, 62, 90
8, 3360, Note_on_c, 2, 57, 73
8, 3360, Note_on_c, 2, 62, 73
8, 3360, Note_on_c, 2, 66, 73
8, 3840, Note_off_c, 2, 57, 90
8, 3840, Note_off_c, 2, 66, 90
8, 3840, Note_off_c, 2, 62, 90
8, 3840, Note_on_c, 2, 66, 73
8, 3840, Note_on_c, 2, 62, 73
8, 3840, Note_on_c, 2, 57, 73
8, 4320, Note_off_c, 2, 66, 90
8, 4320, Note_off_c, 2, 57, 90
8, 4320, Note_off_c, 2, 62, 90
8, 4800, Note_on_c, 2, 54, 73
8, 4800, Note_on_c, 2, 57, 73
8, 4800, Note_on_c, 2, 62, 73
8, 5280, Note_off_c, 2, 54, 90
8, 5280, Note_off_c, 2, 62, 90
8, 5280, Note_off_c, 2, 57, 90
8, 5280, Note_on_c, 2, 57, 73
8, 5280, Note_on_c, 2, 54, 73
8, 5760, Note_off_c, 2, 57, 90
8, 5760, Note_off_c, 2, 54, 90
8, 6240, Note_on_c, 2, 57, 73
8, 6240, Note_on_c, 2, 62, 73
8, 6720, Note_off_c, 2, 57, 90
8, 6720, Note_off_c, 2, 62, 90
8, 6720, Note_on_c, 2, 66, 73
8, 6720, Note_on_c, 2, 62, 73
8, 6720, Note_on_c, 2, 57, 73
8, 7200, Note_off_c, 2, 66, 90
8, 7200, Note_off_c, 2, 57, 90
8, 7200, Note_off_c, 2, 62, 90
8, 7680, Note_on_c, 2, 57, 73
8, 7680, Note_on_c, 2, 61, 73
8, 7680, Note_on_c, 2, 67, 73
8, 8160, Note_off_c, 2, 57, 90
8, 8160, Note_off_c, 2, 67, 90
8, 8160, Note_off_c, 2, 61, 90
8, 8160, Note_on_c, 2, 67, 73
8, 8160, Note_on_c, 2, 61, 73
8, 8160, Note_on_c, 2, 57, 73
8, 8640, Note_off_c, 2, 67, 90
8, 8640, Note_off_c, 2, 57, 90
8, 8640, Note_off_c, 2, 61, 90
8, 9120, Note_on_c, 2, 57, 73
8, 9120, Note_on_c, 2, 61, 73
8, 9120, Note_on_c, 2, 67, 73
8, 9600, Note_off_c, 2, 57, 90
8, 9600, Note_off_c, 2, 67, 90
8, 9600, Note_off_c, 2, 61, 90
8, 9600, Note_on_c, 2, 67, 73
8, 9600, Note_on_c, 2, 61, 73
8, 9600, Note_on_c, 2, 57, 73
8, 10080, Note_off_c, 2, 67, 90
8, 10080, Note_off_c, 2, 57, 90
8, 10080, Note_off_c, 2, 61, 90
8, 10560, Note_on_c, 2, 55, 73
8, 10560, Note_on_c, 2, 57, 73
8, 10560, Note_on_c, 2, 61, 73
8, 11040, Note_off_c, 2, 55, 90
8, 11040, Note_off_c, 2, 61, 90
8, 11040, Note_off_c, 2, 57, 90
8, 11040, Note_on_c, 2, 57, 73
8, 11040, Note_on_c, 2, 55, 73
8, 11520, Note_off_c, 2, 57, 90
8, 11520, Note_off_c, 2, 55, 90
8, 12000, Note_on_c, 2, 55, 73
8, 12000, Note_on_c, 2, 57, 73
8, 12000, Note_on_c, 2, 61, 73
8, 12480, Note_off_c, 2, 55, 90
8, 12480, Note_off_c, 2, 61, 90
8, 12480, Note_off_c, 2, 57, 90
8, 12480, Note_on_c, 2, 61, 73
8, 12480, Note_on_c, 2, 57, 73
8, 12480, Note_on_c, 2, 55, 73
8, 12960, Note_off_c, 2, 61, 90
8, 12960, Note_off_c, 2, 55, 90
8, 12960, Note_off_c, 2, 57, 90
8, 13440, Note_on_c, 2, 57, 73
8, 13440, Note_on_c, 2, 61, 73
8, 13440, Note_on_c, 2, 67, 73
8, 13920, Note_off_c, 2, 57, 90
8, 13920, Note_off_c, 2, 67, 90
8, 13920, Note_off_c, 2, 61, 90
8, 13920, Note_on_c, 2, 67, 73
8, 13920, Note_on_c, 2, 61, 73
8, 13920, Note_on_c, 2, 57, 73
8, 14400, Note_off_c, 2, 67, 90
8, 14400, Note_off_c, 2, 57, 90
8, 14400, Note_off_c, 2, 61, 90
8, 14880, Note_on_c, 2, 57, 73
8, 14880, Note_on_c, 2, 61, 73
8, 14880, Note_on_c, 2, 67, 73
8, 15360, Note_off_c, 2, 57, 90
8, 15360, Note_off_c, 2, 67, 90
8, 15360, Note_off_c, 2, 61, 90
8, 15360, Note_on_c, 2, 67, 73
8, 15360, Note_on_c, 2, 61, 73
8, 15360, Note_on_c, 2, 57, 73
8, 15840, Note_off_c, 2, 67, 90
8, 15840, Note_off_c, 2, 57, 90
8, 15840, Note_off_c, 2, 61, 90
8, 16320, Note_on_c, 2, 55, 73
8, 16320, Note_on_c, 2, 57, 73
8, 16320, Note_on_c, 2, 61, 73
8, 16800, Note_off_c, 2, 55, 90
8, 16800, Note_off_c, 2, 61, 90
8, 16800, Note_off_c, 2, 57, 90
8, 16800, Note_on_c, 2, 57, 73
8, 16800, Note_on_c, 2, 55, 73
8, 17280, Note_off_c, 2, 57, 90
8, 17280, Note_off_c, 2, 55, 90
8, 17760, Note_on_c, 2, 55, 73
8, 17760, Note_on_c, 2, 57, 73
8, 17760, Note_on_c, 2, 61, 73
8, 18240, Note_off_c, 2, 55, 90
8, 18240, Note_off_c, 2, 61, 90
8, 18240, Note_off_c, 2, 57, 90
8, 18240, Note_on_c, 2, 61, 73
8, 18240, Note_on_c, 2, 57, 73
8, 18240, Note_on_c, 2, 55, 73
8, 18720, Note_off_c, 2, 61, 90
8, 18720, Note_off_c, 2, 55, 90
8, 18720, Note_off_c, 2, 57, 90
8, 19200, Note_on_c, 2, 57, 73
8, 19200, Note_on_c, 2, 62, 73
8, 19200, Note_on_c, 2, 66, 73
8, 19680, Note_off_c, 2, 57, 90
8, 19680, Note_off_c, 2, 66, 90
8, 19680, Note_off_c, 2, 62, 90
8, 19680, Note_on_c, 2, 66, 73
8, 19680, Note_on_c, 2, 62, 73
8, 19680, Note_on_c, 2, 57, 73
8, 20160, Note_off_c, 2, 66, 90
8, 20160, Note_off_c, 2, 57, 90
8, 20160, Note_off_c, 2, 62, 90
8, 20640, Note_on_c, 2, 57, 73
8, 20640, Note_on_c, 2, 62, 73
8, 20640, Note_on_c, 2, 66, 73
8, 21120, Note_off_c, 2, 57, 90
8, 21120, Note_off_c, 2, 66, 90
8, 21120, Note_off_c, 2, 62, 90
8, 21120, Note_on_c, 2, 66, 73
8, 21120, Note_on_c, 2, 62, 73
8, 21120, Note_on_c, 2, 57, 73
8, 21600, Note_off_c, 2, 66, 90
8, 21600, Note_off_c, 2, 57, 90
8, 21600, Note_off_c, 2, 62, 90
8, 22080, Note_on_c, 2, 54, 73
8, 22080, Note_on_c, 2, 57, 73
8, 22080, Note_on_c, 2, 62, 73
8, 22560, Note_off_c, 2, 54, 90
8, 22560, Note_off_c, 2, 62, 90
8, 22560, Note_off_c, 2, 57, 90
8, 22560, Note_on_c, 2, 57, 73
8, 22560, Note_on_c, 2, 54, 73
8, 23040, Note_off_c, 2, 57, 90
8, 23040, Note_off_c, 2, 54, 90
8, 23520, Note_on_c, 2, 57, 73
8, 23520, Note_on_c, 2, 62, 73
8, 24000, Note_off_c, 2, 57, 90
8, 24000, Note_off_c, 2, 62, 90
8, 24000, Note_on_c, 2, 66, 73
8, 24000, Note_on_c, 2, 62, 73
8, 24000, Note_on_c, 2, 57, 73
8, 24480, Note_off_c, 2, 66, 90
8, 24480, Note_off_c, 2, 57, 90
8, 24480, Note_off_c, 2, 62, 90
8, 24960, Note_on_c, 2, 57, 73
8, 24960, Note_on_c, 2, 62, 73
8, 25440, Note_off_c, 2, 57, 90
8, 25440, Note_off_c, 2, 62, 90
8, 25440, Note_on_c, 2, 62, 73
8, 25440, Note_on_c, 2, 57, 73
8, 25920, Note_off_c, 2, 62, 90
8, 25920, Note_off_c, 2, 57, 90
8, 26400, Note_on_c, 2, 57, 73
8, 26400, Note_on_c, 2, 62, 73
8, 26880, Note_off_c, 2, 57, 90
8, 26880, Note_off_c, 2, 62, 90
8, 26880, Note_on_c, 2, 62, 73
8, 26880, Note_on_c, 2, 57, 73
8, 27360, Note_off_c, 2, 62, 90
8, 27360, Note_off_c, 2, 57, 90
8, 27840, Note_on_c, 2, 57, 73
8, 27840, Note_on_c, 2, 62, 73
8, 28320, Note_off_c, 2, 57, 90
8, 28320, Note_off_c, 2, 62, 90
8, 28320, Note_on_c, 2, 57, 73
8, 28320, Note_on_c, 2, 54, 73
8, 28800, Note_off_c, 2, 57, 90
8, 28800, Note_off_c, 2, 54, 90
8, 29280, Note_on_c, 2, 57, 73
8, 29280, Note_on_c, 2, 62, 73
8, 29760, Note_off_c, 2, 57, 90
8, 29760, Note_off_c, 2, 62, 90
8, 29760, Note_on_c, 2, 62, 73
8, 29760, Note_on_c, 2, 57, 73
8, 30240, Note_off_c, 2, 62, 90
8, 30240, Note_off_c, 2, 57, 90
8, 30720, Note_on_c, 2, 59, 73
8, 30720, Note_on_c, 2, 62, 73
8, 30720, Note_on_c, 2, 64, 73
8, 31200, Note_off_c, 2, 59, 90
8, 31200, Note_off_c, 2, 64, 90
8, 31200, Note_off_c, 2, 62, 90
8, 31200, Note_on_c, 2, 64, 73
8, 31200, Note_on_c, 2, 62, 73
8, 31200, Note_on_c, 2, 59, 73
8, 31680, Note_off_c, 2, 64, 90
8, 31680, Note_off_c, 2, 59, 90
8, 31680, Note_off_c, 2, 62, 90
8, 32160, Note_on_c, 2, 59, 73
8, 32160, Note_on_c, 2, 62, 73
8, 32160, Note_on_c, 2, 64, 73
8, 32640, Note_off_c, 2, 59, 90
8, 32640, Note_off_c, 2, 64, 90
8, 32640, Note_off_c, 2, 62, 90
8, 32640, Note_on_c, 2, 64, 73
8, 32640, Note_on_c, 2, 62, 73
8, 32640, Note_on_c, 2, 59, 73
8, 33120, Note_off_c, 2, 64, 90
8, 33120, Note_off_c, 2, 59, 90
8, 33120, Note_off_c, 2, 62, 90
8, 33600, Note_on_c, 2, 59, 73
8, 33600, Note_on_c, 2, 62, 73
8, 33600, Note_on_c, 2, 64, 73
8, 34080, Note_off_c, 2, 59, 90
8, 34080, Note_off_c, 2, 64, 90
8, 34080, Note_off_c, 2, 62, 90
8, 36480, Note_on_c, 2, 57, 73
8, 36480, Note_on_c, 2, 61, 73
8, 36480, Note_on_c, 2, 67, 73
8, 36960, Note_off_c, 2, 57, 90
8, 36960, Note_off_c, 2, 67, 90
8, 36960, Note_off_c, 2, 61, 90
8, 36960, Note_on_c, 2, 67, 73
8, 36960, Note_on_c, 2, 61, 73
8, 36960, Note_on_c, 2, 57, 73
8, 37440, Note_off_c, 2, 67, 90
8, 37440, Note_off_c, 2, 57, 90
8, 37440, Note_off_c, 2, 61, 90
8, 37920, Note_on_c, 2, 57, 73
8, 37920, Note_on_c, 2, 61, 73
8, 37920, Note_on_c, 2, 64, 73
8, 37920, Note_on_c, 2, 67, 73
8, 38400, Note_off_c, 2, 57, 90
8, 38400, Note_off_c, 2, 67, 90
8, 38400, Note_off_c, 2, 64, 90
8, 38400, Note_off_c, 2, 61, 90
8, 38400, Note_on_c, 2, 67, 73
8, 38400, Note_on_c, 2, 64, 73
8, 38400, Note_on_c, 2, 61, 73
8, 38400, Note_on_c, 2, 57, 73
8, 38880, Note_off_c, 2, 67, 90
8, 38880, Note_off_c, 2, 57, 90
8, 38880, Note_off_c, 2, 61, 90
8, 38880, Note_off_c, 2, 64, 90
8, 39360, Note_on_c, 2, 57, 73
8, 39360, Note_on_c, 2, 62, 73
8, 39360, Note_on_c, 2, 66, 73
8, 39840, Note_off_c, 2, 57, 90
8, 39840, Note_off_c, 2, 66, 90
8, 39840, Note_off_c, 2, 62, 90
8, 39840, Note_on_c, 2, 66, 73
8, 39840, Note_on_c, 2, 62, 73
8, 39840, Note_on_c, 2, 57, 73
8, 40320, Note_off_c, 2, 66, 90
8, 40320, Note_off_c, 2, 57, 90
8, 40320, Note_off_c, 2, 62, 90
8, 40800, Note_on_c, 2, 57, 73
8, 40800, Note_on_c, 2, 62, 73
8, 41280, Note_off_c, 2, 57, 90
8, 41280, Note_off_c, 2, 62, 90
8, 41280, Note_on_c, 2, 62, 73
8, 41280, Note_on_c, 2, 57, 73
8, 41760, Note_off_c, 2, 62, 90
8, 41760, Note_off_c, 2, 57, 90
8, 41760, Note_on_c, 2, 64, 73
8, 41760, Note_on_c, 2, 62, 73
8, 41760, Note_on_c, 2, 59, 73
8, 43200, Note_off_c, 2, 64, 90
8, 43200, Note_off_c, 2, 59, 90
8, 43200, Note_off_c, 2, 62, 90
8, 43200, Note_on_c, 2, 55, 73
8, 43200, Note_on_c, 2, 52, 73
8, 44640, Note_off_c, 2, 55, 90
8, 44640, Note_off_c, 2, 52, 90
8, 44640, Note_on_c, 2, 54, 73
8, 45120, Note_off_c, 2, 54, 90
8, 45600, Note_on_c, 2, 57, 73
8, 46080, Note_off_c, 2, 57, 90
8, 48000, Note_on_c, 2, 56, 58
8, 48000, Note_on_c, 2, 62, 58
8, 48000, Note_on_c, 2, 64, 58
8, 48480, Note_off_c, 2, 56, 90
8, 48480, Note_off_c, 2, 64, 90
8, 48480, Note_off_c, 2, 62, 90
8, 48480, Note_on_c, 2, 64, 58
8, 48480, Note_on_c, 2, 62, 58
8, 48480, Note_on_c, 2, 56, 58
8, 48960, Note_off_c, 2, 64, 90
8, 48960, Note_off_c, 2, 56, 90
8, 48960, Note_off_c, 2, 62, 90
8, 49440, Note_on_c, 2, 56, 58
8, 49440, Note_on_c, 2, 62, 58
8, 49440, Note_on_c, 2, 64, 58
8, 49920, Note_off_c, 2, 56, 90
8, 49920, Note_off_c, 2, 64, 90
8, 49920, Note_off_c, 2, 62, 90
8, 49920, Note_on_c, 2, 64, 58
8, 49920, Note_on_c, 2, 61, 58
8, 49920, Note_on_c, 2, 55, 58
8, 50400, Note_off_c, 2, 64, 90
8, 50400, Note_off_c, 2, 55, 90
8, 50400, Note_off_c, 2, 61, 90
8, 50880, Note_on_c, 2, 56, 58
8, 50880, Note_on_c, 2, 62, 58
8, 50880, Note_on_c, 2, 64, 58
8, 51360, Note_off_c, 2, 56, 90
8, 51360, Note_off_c, 2, 64, 90
8, 51360, Note_off_c, 2, 62, 90
8, 51360, Note_on_c, 2, 64, 58
8, 51360, Note_on_c, 2, 62, 58
8, 51360, Note_on_c, 2, 56, 58
8, 51840, Note_off_c, 2, 64, 90
8, 51840, Note_off_c, 2, 56, 90
8, 51840, Note_off_c, 2, 62, 90
8, 52320, Note_on_c, 2, 52, 58
8, 52320, Note_on_c, 2, 56, 58
8, 52320, Note_on_c, 2, 62, 58
8, 52800, Note_off_c, 2, 52, 90
8, 52800, Note_off_c, 2, 62, 90
8, 52800, Note_off_c, 2, 56, 90
8, 52800, Note_on_c, 2, 62, 58
8, 52800, Note_on_c, 2, 56, 58
8, 52800, Note_on_c, 2, 52, 58
8, 53280, Note_off_c, 2, 62, 90
8, 53280, Note_off_c, 2, 52, 90
8, 53280, Note_off_c, 2, 56, 90
8, 53760, Note_on_c, 2, 52, 58
8, 53760, Note_on_c, 2, 57, 58
8, 53760, Note_on_c, 2, 61, 58
8, 54240, Note_off_c, 2, 52, 90
8, 54240, Note_off_c, 2, 61, 90
8, 54240, Note_off_c, 2, 57, 90
8, 54240, Note_on_c, 2, 61, 58
8, 54240, Note_on_c, 2, 57, 58
8, 54240, Note_on_c, 2, 52, 58
8, 54720, Note_off_c, 2, 61, 90
8, 54720, Note_off_c, 2, 52, 90
8, 54720, Note_off_c, 2, 57, 90
8, 55200, Note_on_c, 2, 52, 58
8, 55200, Note_on_c, 2, 57, 58
8, 55200, Note_on_c, 2, 61, 58
8, 55680, Note_off_c, 2, 52, 90
8, 55680, Note_off_c, 2, 61, 90
8, 55680, Note_off_c, 2, 57, 90
8, 55680, Note_on_c, 2, 61, 58
8, 55680, Note_on_c, 2, 57, 58
8, 55680, Note_on_c, 2, 52, 58
8, 56160, Note_off_c, 2, 61, 90
8, 56160, Note_off_c, 2, 52, 90
8, 56160, Note_off_c, 2, 57, 90
8, 56640, Note_on_c, 2, 52, 58
8, 56640, Note_on_c, 2, 57, 58
8, 56640, Note_on_c, 2, 61, 58
8, 57120, Note_off_c, 2, 52, 90
8, 57120, Note_off_c, 2, 61, 90
8, 57120, Note_off_c, 2, 57, 90
8, 57120, Note_on_c, 2, 61, 58
8, 57120, Note_on_c, 2, 57, 58
8, 57120, Note_on_c, 2, 52, 58
8, 57600, Note_off_c, 2, 61, 90
8, 57600, Note_off_c, 2, 52, 90
8, 57600, Note_off_c, 2, 57, 90
8, 58080, Note_on_c, 2, 54, 58
8, 58080, Note_on_c, 2, 57, 58
8, 58080, Note_on_c, 2, 62, 58
8, 58560, Note_off_c, 2, 54, 90
8, 58560, Note_off_c, 2, 62, 90
8, 58560, Note_off_c, 2, 57, 90
8, 58560, Note_on_c, 2, 61, 58
8, 58560, Note_on_c, 2, 57, 58
8, 58560, Note_on_c, 2, 52, 58
8, 59040, Note_off_c, 2, 61, 90
8, 59040, Note_off_c, 2, 52, 90
8, 59040, Note_off_c, 2, 57, 90
8, 59520, Note_on_c, 2, 52, 58
8, 59520, Note_on_c, 2, 56, 58
8, 59520, Note_on_c, 2, 62, 58
8, 60000, Note_off_c, 2, 52, 90
8, 60000, Note_off_c, 2, 62, 90
8, 60000, Note_off_c, 2, 56, 90
8, 60000, Note_on_c, 2, 62, 58
8, 60000, Note_on_c, 2, 56, 58
8, 60000, Note_on_c, 2, 52, 58
8, 60480, Note_off_c, 2, 62, 90
8, 60480, Note_off_c, 2, 52, 90
8, 60480, Note_off_c, 2, 56, 90
8, 60960, Note_on_c, 2, 52, 58
8, 60960, Note_on_c, 2, 56, 58
8, 60960, Note_on_c, 2, 62, 58
8, 61440, Note_off_c, 2, 52, 90
8, 61440, Note_off_c, 2, 62, 90
8, 61440, Note_off_c, 2, 56, 90
8, 61440, Note_on_c, 2, 61, 58
8, 61440, Note_on_c, 2, 55, 58
8, 61440, Note_on_c, 2, 52, 58
8, 61920, Note_off_c, 2, 61, 90
8, 61920, Note_off_c, 2, 52, 90
8, 61920, Note_off_c, 2, 55, 90
8, 62400, Note_on_c, 2, 52, 58
8, 62400, Note_on_c, 2, 56, 58
8, 62400, Note_on_c, 2, 62, 58
8, 62880, Note_off_c, 2, 52, 90
8, 62880, Note_off_c, 2, 62, 90
8, 62880, Note_off_c, 2, 56, 90
8, 62880, Note_on_c, 2, 62, 58
8, 62880, Note_on_c, 2, 56, 58
8, 62880, Note_on_c, 2, 52, 58
8, 63360, Note_off_c, 2, 62, 90
8, 63360, Note_off_c, 2, 52, 90
8, 63360, Note_off_c, 2, 56, 90
8, 63840, Note_on_c, 2, 52, 58
8, 63840, Note_on_c, 2, 59, 58
8, 63840, Note_on_c, 2, 62, 58
8, 64320, Note_off_c, 2, 52, 90
8, 64320, Note_off_c, 2, 62, 90
8, 64320, Note_off_c, 2, 59, 90
8, 64320, Note_on_c, 2, 62, 58
8, 64320, Note_on_c, 2, 59, 58
8, 64320, Note_on_c, 2, 56, 58
8, 64320, Note_on_c, 2, 53, 58
8, 64800, Note_off_c, 2, 62, 90
8, 64800, Note_off_c, 2, 53, 90
8, 64800, Note_off_c, 2, 56, 90
8, 64800, Note_off_c, 2, 59, 90
8, 64800, Note_on_c, 2, 59, 58
8, 65760, Note_off_c, 2, 59, 90
8, 65760, Note_on_c, 2, 57, 58
8, 66240, Note_off_c, 2, 57, 90
8, 66240, Note_on_c, 2, 54, 58
8, 66240, Note_on_c, 2, 59, 58
8, 67200, Note_off_c, 2, 54, 90
8, 67200, Note_off_c, 2, 59, 90
8, 67680, Note_on_c, 2, 52, 58
8, 68160, Note_off_c, 2, 52, 90
8, 68160, Note_on_c, 2, 56, 58
8, 68640, Note_off_c, 2, 56, 90
8, 68640, Note_on_c, 2, 52, 58
8, 69120, Note_off_c, 2, 52, 90
8, 69120, Note_on_c, 2, 57, 58
8, 69600, Note_off_c, 2, 57, 90
8, 71040, Note_on_c, 2, 56, 73
8, 71040, Note_on_c, 2, 62, 73
8, 71040, Note_on_c, 2, 64, 73
8, 71520, Note_off_c, 2, 56, 90
8, 71520, Note_off_c, 2, 64, 90
8, 71520, Note_off_c, 2, 62, 90
8, 71520, Note_on_c, 2, 64, 73
8, 71520, Note_on_c, 2, 62, 73
8, 71520, Note_on_c, 2, 56, 73
8, 72000, Note_off_c, 2, 64, 90
8, 72000, Note_off_c, 2, 56, 90
8, 72000, Note_off_c, 2, 62, 90
8, 72480, Note_on_c, 2, 56, 73
8, 72480, Note_on_c, 2, 62, 73
8, 72480, Note_on_c, 2, 64, 73
8, 72960, Note_off_c, 2, 56, 90
8, 72960, Note_off_c, 2, 64, 90
8, 72960, Note_off_c, 2, 62, 90
8, 72960, Note_on_c, 2, 64, 73
8, 72960, Note_on_c, 2, 61, 73
8, 72960, Note_on_c, 2, 55, 73
8, 73440, Note_off_c, 2, 64, 90
8, 73440, Note_off_c, 2, 55, 90
8, 73440, Note_off_c, 2, 61, 90
8, 73920, Note_on_c, 2, 56, 73
8, 73920, Note_on_c, 2, 62, 73
8, 73920, Note_on_c, 2, 64, 73
8, 74400, Note_off_c, 2, 56, 90
8, 74400, Note_off_c, 2, 64, 90
8, 74400, Note_off_c, 2, 62, 90
8, 74400, Note_on_c, 2, 64, 73
8, 74400, Note_on_c, 2, 62, 73
8, 74400, Note_on_c, 2, 56, 73
8, 74880, Note_off_c, 2, 64, 90
8, 74880, Note_off_c, 2, 56, 90
8, 74880, Note_off_c, 2, 62, 90
8, 75360, Note_on_c, 2, 52, 73
8, 75360, Note_on_c, 2, 56, 73
8, 75360, Note_on_c, 2, 62, 73
8, 75840, Note_off_c, 2, 52, 90
8, 75840, Note_off_c, 2, 62, 90
8, 75840, Note_off_c, 2, 56, 90
8, 75840, Note_on_c, 2, 62, 73
8, 75840, Note_on_c, 2, 56, 73
8, 75840, Note_on_c, 2, 52, 73
8, 76320, Note_off_c, 2, 62, 90
8, 76320, Note_off_c, 2, 52, 90
8, 76320, Note_off_c, 2, 56, 90
8, 76800, Note_on_c, 2, 52, 73
8, 76800, Note_on_c, 2, 57, 73
8, 76800, Note_on_c, 2, 61, 73
8, 77280, Note_off_c, 2, 52, 90
8, 77280, Note_off_c, 2, 61, 90
8, 77280, Note_off_c, 2, 57, 90
8, 77280, Note_on_c, 2, 61, 73
8, 77280, Note_on_c, 2, 57, 73
8, 77280, Note_on_c, 2, 52, 73
8, 77760, Note_off_c, 2, 61, 90
8, 77760, Note_off_c, 2, 52, 90
8, 77760, Note_off_c, 2, 57, 90
8, 78240, Note_on_c, 2, 52, 73
8, 78240, Note_on_c, 2, 57, 73
8, 78240, Note_on_c, 2, 61, 73
8, 78720, Note_off_c, 2, 52, 90
8, 78720, Note_off_c, 2, 61, 90
8, 78720, Note_off_c, 2, 57, 90
8, 78720, Note_on_c, 2, 61, 73
8, 78720, Note_on_c, 2, 57, 73
8, 78720, Note_on_c, 2, 52, 73
8, 79200, Note_off_c, 2, 61, 90
8, 79200, Note_off_c, 2, 52, 90
8, 79200, Note_off_c, 2, 57, 90
8, 79680, Note_on_c, 2, 52, 73
8, 79680, Note_on_c, 2, 57, 73
8, 79680, Note_on_c, 2, 61, 73
8, 80160, Note_off_c, 2, 52, 90
8, 80160, Note_off_c, 2, 61, 90
8, 80160, Note_off_c, 2, 57, 90
8, 80160, Note_on_c, 2, 61, 73
8, 80160, Note_on_c, 2, 57, 73
8, 80160, Note_on_c, 2, 52, 73
8, 80640, Note_off_c, 2, 61, 90
8, 80640, Note_off_c, 2, 52, 90
8, 80640, Note_off_c, 2, 57, 90
8, 81120, Note_on_c, 2, 54, 73
8, 81120, Note_on_c, 2, 57, 73
8, 81120, Note_on_c, 2, 62, 73
8, 81600, Note_off_c, 2, 54, 90
8, 81600, Note_off_c, 2, 62, 90
8, 81600, Note_off_c, 2, 57, 90
8, 81600, Note_on_c, 2, 61, 73
8, 81600, Note_on_c, 2, 57, 73
8, 81600, Note_on_c, 2, 52, 73
8, 82080, Note_off_c, 2, 61, 90
8, 82080, Note_off_c, 2, 52, 90
8, 82080, Note_off_c, 2, 57, 90
8, 82560, Note_on_c, 2, 52, 73
8, 82560, Note_on_c, 2, 56, 73
8, 82560, Note_on_c, 2, 62, 73
8, 83040, Note_off_c, 2, 52, 90
8, 83040, Note_off_c, 2, 62, 90
8, 83040, Note_off_c, 2, 56, 90
8, 83040, Note_on_c, 2, 62, 73
8, 83040, Note_on_c, 2, 56, 73
8, 83040, Note_on_c, 2, 52, 73
8, 83520, Note_off_c, 2, 62, 90
8, 83520, Note_off_c, 2, 52, 90
8, 83520, Note_off_c, 2, 56, 90
8, 84000, Note_on_c, 2, 52, 73
8, 84000, Note_on_c, 2, 56, 73
8, 84000, Note_on_c, 2, 62, 73
8, 84480, Note_off_c, 2, 52, 90
8, 84480, Note_off_c, 2, 62, 90
8, 84480, Note_off_c, 2, 56, 90
8, 84480, Note_on_c, 2, 61, 73
8, 84480, Note_on_c, 2, 55, 73
8, 84480, Note_on_c, 2, 52, 73
8, 84960, Note_off_c, 2, 61, 90
8, 84960, Note_off_c, 2, 52, 90
8, 84960, Note_off_c, 2, 55, 90
8, 85440, Note_on_c, 2, 52, 73
8, 85440, Note_on_c, 2, 56, 73
8, 85440, Note_on_c, 2, 62, 73
8, 85920, Note_off_c, 2, 52, 90
8, 85920, Note_off_c, 2, 62, 90
8, 85920, Note_off_c, 2, 56, 90
8, 85920, Note_on_c, 2, 62, 73
8, 85920, Note_on_c, 2, 56, 73
8, 85920, Note_on_c, 2, 52, 73
8, 86400, Note_off_c, 2, 62, 90
8, 86400, Note_off_c, 2, 52, 90
8, 86400, Note_off_c, 2, 56, 90
8, 86880, Note_on_c, 2, 52, 73
8, 86880, Note_on_c, 2, 59, 73
8, 86880, Note_on_c, 2, 62, 73
8, 87360, Note_off_c, 2, 52, 90
8, 87360, Note_off_c, 2, 62, 90
8, 87360, Note_off_c, 2, 59, 90
8, 87360, Note_on_c, 2, 62, 73
8, 87360, Note_on_c, 2, 59, 73
8, 87360, Note_on_c, 2, 56, 73
8, 87360, Note_on_c, 2, 53, 73
8, 87840, Note_off_c, 2, 62, 90
8, 87840, Note_off_c, 2, 53, 90
8, 87840, Note_off_c, 2, 56, 90
8, 87840, Note_off_c, 2, 59, 90
8, 87840, Note_on_c, 2, 59, 73
8, 88800, Note_off_c, 2, 59, 90
8, 88800, Note_on_c, 2, 57, 73
8, 89280, Note_off_c, 2, 57, 90
8, 89280, Note_on_c, 2, 54, 73
8, 89280, Note_on_c, 2, 59, 73
8, 90240, Note_off_c, 2, 54, 90
8, 90240, Note_off_c, 2, 59, 90
8, 90720, Note_on_c, 2, 52, 73
8, 91200, Note_off_c, 2, 52, 90
8, 91200, Note_on_c, 2, 56, 73
8, 91680, Note_off_c, 2, 56, 90
8, 91680, Note_on_c, 2, 52, 73
8, 92160, Note_off_c, 2, 52, 90
8, 92160, Note_on_c, 2, 57, 73
8, 92640, Note_off_c, 2, 57, 90
8, 93600, Note_on_c, 2, 67, 73
8, 93600, Note_on_c, 2, 64, 73
8, 95040, Note_off_c, 2, 67, 90
8, 95040, Note_off_c, 2, 64, 90
8, 95040, Note_on_c, 2, 64, 73
8, 95040, Note_on_c, 2, 57, 73
8, 96480, Note_off_c, 2, 64, 90
8, 96480, Note_off_c, 2, 57, 90
8, 96480, Note_on_c, 2, 64, 73
8, 96480, Note_on_c, 2, 67, 73
8, 97920, Note_off_c, 2, 64, 90
8, 97920, Note_off_c, 2, 67, 90
8, 99840, Note_on_c, 2, 57, 73
8, 99840, Note_on_c, 2, 62, 73
8, 99840, Note_on_c, 2, 66, 73
8, 100320, Note_off_c, 2, 57, 90
8, 100320, Note_off_c, 2, 66, 90
8, 100320, Note_off_c, 2, 62, 90
8, 100320, Note_on_c, 2, 66, 73
8, 100320, Note_on_c, 2, 62, 73
8, 100320, Note_on_c, 2, 57, 73
8, 100800, Note_off_c, 2, 66, 90
8, 100800, Note_off_c, 2, 57, 90
8, 100800, Note_off_c, 2, 62, 90
8, 101280, Note_on_c, 2, 57, 73
8, 101280, Note_on_c, 2, 62, 73
8, 101280, Note_on_c, 2, 66, 73
8, 101760, Note_off_c, 2, 57, 90
8, 101760, Note_off_c, 2, 66, 90
8, 101760, Note_off_c, 2, 62, 90
8, 101760, Note_on_c, 2, 66, 73
8, 101760, Note_on_c, 2, 62, 73
8, 101760, Note_on_c, 2, 57, 73
8, 102240, Note_off_c, 2, 66, 90
8, 102240, Note_off_c, 2, 57, 90
8, 102240, Note_off_c, 2, 62, 90
8, 102720, Note_on_c, 2, 54, 73
8, 102720, Note_on_c, 2, 57, 73
8, 102720, Note_on_c, 2, 62, 73
8, 103200, Note_off_c, 2, 54, 90
8, 103200, Note_off_c, 2, 62, 90
8, 103200, Note_off_c, 2, 57, 90
8, 103200, Note_on_c, 2, 57, 73
8, 103200, Note_on_c, 2, 54, 73
8, 103680, Note_off_c, 2, 57, 90
8, 103680, Note_off_c, 2, 54, 90
8, 104160, Note_on_c, 2, 57, 73
8, 104160, Note_on_c, 2, 62, 73
8, 104640, Note_off_c, 2, 57, 90
8, 104640, Note_off_c, 2, 62, 90
8, 104640, Note_on_c, 2, 66, 73
8, 104640, Note_on_c, 2, 62, 73
8, 104640, Note_on_c, 2, 57, 73
8, 105120, Note_off_c, 2, 66, 90
8, 105120, Note_off_c, 2, 57, 90
8, 105120, Note_off_c, 2, 62, 90
8, 105600, Note_on_c, 2, 57, 73
8, 105600, Note_on_c, 2, 61, 73
8, 105600, Note_on_c, 2, 67, 73
8, 106080, Note_off_c, 2, 57, 90
8, 106080, Note_off_c, 2, 67, 90
8, 106080, Note_off_c, 2, 61, 90
8, 106080, Note_on_c, 2, 67, 73
8, 106080, Note_on_c, 2, 61, 73
8, 106080, Note_on_c, 2, 57, 73
8, 106560, Note_off_c, 2, 67, 90
8, 106560, Note_off_c, 2, 57, 90
8, 106560, Note_off_c, 2, 61, 90
8, 107040, Note_on_c, 2, 57, 73
8, 107040, Note_on_c, 2, 61, 73
8, 107040, Note_on_c, 2, 67, 73
8, 107520, Note_off_c, 2, 57, 90
8, 107520, Note_off_c, 2, 67, 90
8, 107520, Note_off_c, 2, 61, 90
8, 107520, Note_on_c, 2, 67, 73
8, 107520, Note_on_c, 2, 61, 73
8, 107520, Note_on_c, 2, 57, 73
8, 108000, Note_off_c, 2, 67, 90
8, 108000, Note_off_c, 2, 57, 90
8, 108000, Note_off_c, 2, 61, 90
8, 108480, Note_on_c, 2, 55, 73
8, 108480, Note_on_c, 2, 57, 73
8, 108480, Note_on_c, 2, 61, 73
8, 108960, Note_off_c, 2, 55, 90
8, 108960, Note_off_c, 2, 61, 90
8, 108960, Note_off_c, 2, 57, 90
8, 108960, Note_on_c, 2, 57, 73
8, 108960, Note_on_c, 2, 55, 73
8, 109440, Note_off_c, 2, 57, 90
8, 109440, Note_off_c, 2, 55, 90
8, 109920, Note_on_c, 2, 55, 73
8, 109920, Note_on_c, 2, 57, 73
8, 109920, Note_on_c, 2, 61, 73
8, 110400, Note_off_c, 2, 55, 90
8, 110400, Note_off_c, 2, 61, 90
8, 110400, Note_off_c, 2, 57, 90
8, 110400, Note_on_c, 2, 61, 73
8, 110400, Note_on_c, 2, 57, 73
8, 110400, Note_on_c, 2, 55, 73
8, 110880, Note_off_c, 2, 61, 90
8, 110880, Note_off_c, 2, 55, 90
8, 110880, Note_off_c, 2, 57, 90
8, 111360, Note_on_c, 2, 57, 73
8, 111360, Note_on_c, 2, 61, 73
8, 111360, Note_on_c, 2, 67, 73
8, 111840, Note_off_c, 2, 57, 90
8, 111840, Note_off_c, 2, 67, 90
8, 111840, Note_off_c, 2, 61, 90
8, 111840, Note_on_c, 2, 67, 73
8, 111840, Note_on_c, 2, 61, 73
8, 111840, Note_on_c, 2, 57, 73
8, 112320, Note_off_c, 2, 67, 90
8, 112320, Note_off_c, 2, 57, 90
8, 112320, Note_off_c, 2, 61, 90
8, 112800, Note_on_c, 2, 57, 73
8, 112800, Note_on_c, 2, 61, 73
8, 112800, Note_on_c, 2, 67, 73
8, 113280, Note_off_c, 2, 57, 90
8, 113280, Note_off_c, 2, 67, 90
8, 113280, Note_off_c, 2, 61, 90
8, 113280, Note_on_c, 2, 67, 73
8, 113280, Note_on_c, 2, 61, 73
8, 113280, Note_on_c, 2, 57, 73
8, 113760, Note_off_c, 2, 67, 90
8, 113760, Note_off_c, 2, 57, 90
8, 113760, Note_off_c, 2, 61, 90
8, 114240, Note_on_c, 2, 55, 73
8, 114240, Note_on_c, 2, 57, 73
8, 114240, Note_on_c, 2, 61, 73
8, 114720, Note_off_c, 2, 55, 90
8, 114720, Note_off_c, 2, 61, 90
8, 114720, Note_off_c, 2, 57, 90
8, 114720, Note_on_c, 2, 57, 73
8, 114720, Note_on_c, 2, 55, 73
8, 115200, Note_off_c, 2, 57, 90
8, 115200, Note_off_c, 2, 55, 90
8, 115680, Note_on_c, 2, 55, 73
8, 115680, Note_on_c, 2, 57, 73
8, 115680, Note_on_c, 2, 61, 73
8, 116160, Note_off_c, 2, 55, 90
8, 116160, Note_off_c, 2, 61, 90
8, 116160, Note_off_c, 2, 57, 90
8, 116160, Note_on_c, 2, 61, 73
8, 116160, Note_on_c, 2, 57, 73
8, 116160, Note_on_c, 2, 55, 73
8, 116640, Note_off_c, 2, 61, 90
8, 116640, Note_off_c, 2, 55, 90
8, 116640, Note_off_c, 2, 57, 90
8, 117120, Note_on_c, 2, 57, 73
8, 117120, Note_on_c, 2, 62, 73
8, 117120, Note_on_c, 2, 66, 73
8, 117600, Note_off_c, 2, 57, 90
8, 117600, Note_off_c, 2, 66, 90
8, 117600, Note_off_c, 2, 62, 90
8, 117600, Note_on_c, 2, 66, 73
8, 117600, Note_on_c, 2, 62, 73
8, 117600, Note_on_c, 2, 57, 73
8, 118080, Note_off_c, 2, 66, 90
8, 118080, Note_off_c, 2, 57, 90
8, 118080, Note_off_c, 2, 62, 90
8, 118560, Note_on_c, 2, 57, 73
8, 118560, Note_on_c, 2, 62, 73
8, 118560, Note_on_c, 2, 66, 73
8, 119040, Note_off_c, 2, 57, 90
8, 119040, Note_off_c, 2, 66, 90
8, 119040, Note_off_c, 2, 62, 90
8, 119040, Note_on_c, 2, 66, 73
8, 119040, Note_on_c, 2, 62, 73
8, 119040, Note_on_c, 2, 57, 73
8, 119520, Note_off_c, 2, 66, 90
8, 119520, Note_off_c, 2, 57, 90
8, 119520, Note_off_c, 2, 62, 90
8, 120000, Note_on_c, 2, 54, 73
8, 120000, Note_on_c, 2, 57, 73
8, 120000, Note_on_c, 2, 62, 73
8, 120480, Note_off_c, 2, 54, 90
8, 120480, Note_off_c, 2, 62, 90
8, 120480, Note_off_c, 2, 57, 90
8, 120480, Note_on_c, 2, 57, 73
8, 120480, Note_on_c, 2, 54, 73
8, 120960, Note_off_c, 2, 57, 90
8, 120960, Note_off_c, 2, 54, 90
8, 121440, Note_on_c, 2, 57, 73
8, 121440, Note_on_c, 2, 62, 73
8, 121920, Note_off_c, 2, 57, 90
8, 121920, Note_off_c, 2, 62, 90
8, 121920, Note_on_c, 2, 66, 73
8, 121920, Note_on_c, 2, 62, 73
8, 121920, Note_on_c, 2, 57, 73
8, 122400, Note_off_c, 2, 66, 90
8, 122400, Note_off_c, 2, 57, 90
8, 122400, Note_off_c, 2, 62, 90
8, 122880, Note_on_c, 2, 57, 73
8, 122880, Note_on_c, 2, 62, 73
8, 123360, Note_off_c, 2, 57, 90
8, 123360, Note_off_c, 2, 62, 90
8, 123360, Note_on_c, 2, 62, 73
8, 123360, Note_on_c, 2, 57, 73
8, 123840, Note_off_c, 2, 62, 90
8, 123840, Note_off_c, 2, 57, 90
8, 124320, Note_on_c, 2, 57, 73
8, 124320, Note_on_c, 2, 62, 73
8, 124800, Note_off_c, 2, 57, 90
8, 124800, Note_off_c, 2, 62, 90
8, 124800, Note_on_c, 2, 62, 73
8, 124800, Note_on_c, 2, 57, 73
8, 125280, Note_off_c, 2, 62, 90
8, 125280, Note_off_c, 2, 57, 90
8, 125760, Note_on_c, 2, 57, 73
8, 125760, Note_on_c, 2, 62, 73
8, 126240, Note_off_c, 2, 57, 90
8, 126240, Note_off_c, 2, 62, 90
8, 126240, Note_on_c, 2, 57, 73
8, 126240, Note_on_c, 2, 54, 73
8, 126720, Note_off_c, 2, 57, 90
8, 126720, Note_off_c, 2, 54, 90
8, 127200, Note_on_c, 2, 57, 73
8, 127200, Note_on_c, 2, 62, 73
8, 127680, Note_off_c, 2, 57, 90
8, 127680, Note_off_c, 2, 62, 90
8, 127680, Note_on_c, 2, 62, 73
8, 127680, Note_on_c, 2, 57, 73
8, 128160, Note_off_c, 2, 62, 90
8, 128160, Note_off_c, 2, 57, 90
8, 128640, Note_on_c, 2, 59, 73
8, 128640, Note_on_c, 2, 62, 73
8, 128640, Note_on_c, 2, 64, 73
8, 129120, Note_off_c, 2, 59, 90
8, 129120, Note_off_c, 2, 64, 90
8, 129120, Note_off_c, 2, 62, 90
8, 129120, Note_on_c, 2, 64, 73
8, 129120, Note_on_c, 2, 62, 73
8, 129120, Note_on_c, 2, 59, 73
8, 129600, Note_off_c, 2, 64, 90
8, 129600, Note_off_c, 2, 59, 90
8, 129600, Note_off_c, 2, 62, 90
8, 130080, Note_on_c, 2, 59, 73
8, 130080, Note_on_c, 2, 62, 73
8, 130080, Note_on_c, 2, 64, 73
8, 130560, Note_off_c, 2, 59, 90
8, 130560, Note_off_c, 2, 64, 90
8, 130560, Note_off_c, 2, 62, 90
8, 130560, Note_on_c, 2, 64, 73
8, 130560, Note_on_c, 2, 62, 73
8, 130560, Note_on_c, 2, 59, 73
8, 131040, Note_off_c, 2, 64, 90
8, 131040, Note_off_c, 2, 59, 90
8, 131040, Note_off_c, 2, 62, 90
8, 131520, Note_on_c, 2, 59, 73
8, 131520, Note_on_c, 2, 62, 73
8, 131520, Note_on_c, 2, 64, 73
8, 132000, Note_off_c, 2, 59, 90
8, 132000, Note_off_c, 2, 64, 90
8, 132000, Note_off_c, 2, 62, 90
8, 134400, Note_on_c, 2, 57, 73
8, 134400, Note_on_c, 2, 61, 73
8, 134400, Note_on_c, 2, 67, 73
8, 134880, Note_off_c, 2, 57, 90
8, 134880, Note_off_c, 2, 67, 90
8, 134880, Note_off_c, 2, 61, 90
8, 134880, Note_on_c, 2, 67, 73
8, 134880, Note_on_c, 2, 61, 73
8, 134880, Note_on_c, 2, 57, 73
8, 135360, Note_off_c, 2, 67, 90
8, 135360, Note_off_c, 2, 57, 90
8, 135360, Note_off_c, 2, 61, 90
8, 135840, Note_on_c, 2, 57, 73
8, 135840, Note_on_c, 2, 61, 73
8, 135840, Note_on_c, 2, 64, 73
8, 135840, Note_on_c, 2, 67, 73
8, 136320, Note_off_c, 2, 57, 90
8, 136320, Note_off_c, 2, 67, 90
8, 136320, Note_off_c, 2, 64, 90
8, 136320, Note_off_c, 2, 61, 90
8, 136320, Note_on_c, 2, 67, 73
8, 136320, Note_on_c, 2, 64, 73
8, 136320, Note_on_c, 2, 61, 73
8, 136320, Note_on_c, 2, 57, 73
8, 136800, Note_off_c, 2, 67, 90
8, 136800, Note_off_c, 2, 57, 90
8, 136800, Note_off_c, 2, 61, 90
8, 136800, Note_off_c, 2, 64, 90
8, 137280, Note_on_c, 2, 57, 73
8, 137280, Note_on_c, 2, 62, 73
8, 137280, Note_on_c, 2, 66, 73
8, 137760, Note_off_c, 2, 57, 90
8, 137760, Note_off_c, 2, 66, 90
8, 137760, Note_off_c, 2, 62, 90
8, 137760, Note_on_c, 2, 66, 73
8, 137760, Note_on_c, 2, 62, 73
8, 137760, Note_on_c, 2, 57, 73
8, 138240, Note_off_c, 2, 66, 90
8, 138240, Note_off_c, 2, 57, 90
8, 138240, Note_off_c, 2, 62, 90
8, 138720, Note_on_c, 2, 57, 73
8, 138720, Note_on_c, 2, 62, 73
8, 139200, Note_off_c, 2, 57, 90
8, 139200, Note_off_c, 2, 62, 90
8, 139200, Note_on_c, 2, 62, 73
8, 139200, Note_on_c, 2, 57, 73
8, 139680, Note_off_c, 2, 62, 90
8, 139680, Note_off_c, 2, 57, 90
8, 139680, Note_on_c, 2, 64, 73
8, 139680, Note_on_c, 2, 62, 73
8, 139680, Note_on_c, 2, 59, 73
8, 141120, Note_off_c, 2, 64, 90
8, 141120, Note_off_c, 2, 59, 90
8, 141120, Note_off_c, 2, 62, 90
8, 141120, Note_on_c, 2, 55, 73
8, 141120, Note_on_c, 2, 52, 73
8, 142560, Note_off_c, 2, 55, 90
8, 142560, Note_off_c, 2, 52, 90
8, 142560, Note_on_c, 2, 54, 73
8, 143040, Note_off_c, 2, 54, 90
8, 143520, Note_on_c, 2, 57, 73
8, 144000, Note_off_c, 2, 57, 90
8, 144000, End_track
9, 0, Start_track
9, 0, Text_t, "Piano LH"
9, 0, Program_c, 3, 0
9, 1440, Note_on_c, 3, 50, 92
9, 1440, Note_on_c, 3, 38, 92
9, 1920, Note_off_c, 3, 50, 90
9, 1920, Note_off_c, 3, 38, 90
9, 2880, Note_on_c, 3, 50, 92
9, 2880, Note_on_c, 3, 38, 92
9, 3360, Note_off_c, 3, 50, 90
9, 3360, Note_off_c, 3, 38, 90
9, 4320, Note_on_c, 3, 50, 92
9, 4320, Note_on_c, 3, 38, 92
9, 4800, Note_off_c, 3, 50, 90
9, 4800, Note_off_c, 3, 38, 90
9, 5760, Note_on_c, 3, 50, 92
9, 5760, Note_on_c, 3, 38, 92
9, 6240, Note_off_c, 3, 50, 90
9, 6240, Note_off_c, 3, 38, 90
9, 7200, Note_on_c, 3, 52, 92
9, 7200, Note_on_c, 3, 40, 92
9, 7680, Note_off_c, 3, 52, 90
9, 7680, Note_off_c, 3, 40, 90
9, 8640, Note_on_c, 3, 52, 92
9, 8640, Note_on_c, 3, 40, 92
9, 9120, Note_off_c, 3, 52, 90
9, 9120, Note_off_c, 3, 40, 90
9, 10080, Note_on_c, 3, 52, 92
9, 10080, Note_on_c, 3, 40, 92
9, 10560, Note_off_c, 3, 52, 90
9, 10560, Note_off_c, 3, 40, 90
9, 11520, Note_on_c, 3, 52, 92
9, 11520, Note_on_c, 3, 40, 92
9, 12000, Note_off_c, 3, 52, 90
9, 12000, Note_off_c, 3, 40, 90
9, 12960, Note_on_c, 3, 45, 92
9, 12960, Note_on_c, 3, 33, 92
9, 13440, Note_off_c, 3, 45, 90
9, 13440, Note_off_c, 3, 33, 90
9, 14400, Note_on_c, 3, 45, 92
9, 14400, Note_on_c, 3, 33, 92
9, 14880, Note_off_c, 3, 45, 90
9, 14880, Note_off_c, 3, 33, 90
9, 15840, Note_on_c, 3, 45, 92
9, 15840, Note_on_c, 3, 33, 92
9, 16320, Note_off_c, 3, 45, 90
9, 16320, Note_off_c, 3, 33, 90
9, 17280, Note_on_c, 3, 45, 92
9, 17280, Note_on_c, 3, 33, 92
9, 17760, Note_off_c, 3, 45, 90
9, 17760, Note_off_c, 3, 33, 90
9, 18720, Note_on_c, 3, 50, 92
9, 18720, Note_on_c, 3, 38, 92
9, 19200, Note_off_c, 3, 50, 90
9, 19200, Note_off_c, 3, 38, 90
9, 20160, Note_on_c, 3, 50, 92
9, 20160, Note_on_c, 3, 38, 92
9, 20640, Note_off_c, 3, 50, 90
9, 20640, Note_off_c, 3, 38, 90
9, 21600, Note_on_c, 3, 50, 92
9, 21600, Note_on_c, 3, 38, 92
9, 22080, Note_off_c, 3, 50, 90
9, 22080, Note_off_c, 3, 38, 90
9, 23040, Note_on_c, 3, 50, 92
9, 23040, Note_on_c, 3, 38, 92
9, 23520, Note_off_c, 3, 50, 90
9, 23520, Note_off_c, 3, 38, 90
9, 24480, Note_on_c, 3, 54, 92
9, 24480, Note_on_c, 3, 42, 92
9, 24960, Note_off_c, 3, 54, 90
9, 24960, Note_off_c, 3, 42, 90
9, 25920, Note_on_c, 3, 54, 92
9, 25920, Note_on_c, 3, 42, 92
9, 26400, Note_off_c, 3, 54, 90
9, 26400, Note_off_c, 3, 42, 90
9, 27360, Note_on_c, 3, 54, 92
9, 27360, Note_on_c, 3, 42, 92
9, 27840, Note_off_c, 3, 54, 90
9, 27840, Note_off_c, 3, 42, 90
9, 28800, Note_on_c, 3, 54, 92
9, 28800, Note_on_c, 3, 42, 92
9, 29280, Note_off_c, 3, 54, 90
9, 29280, Note_off_c, 3, 42, 90
9, 30240, Note_on_c, 3, 55, 92
9, 30240, Note_on_c, 3, 43, 92
9, 30720, Note_off_c, 3, 55, 90
9, 30720, Note_off_c, 3, 43, 90
9, 31680, Note_on_c, 3, 55, 92
9, 31680, Note_on_c, 3, 43, 92
9, 32160, Note_off_c, 3, 55, 90
9, 32160, Note_off_c, 3, 43, 90
9, 33120, Note_on_c, 3, 55, 92
9, 33120, Note_on_c, 3, 43, 92
9, 33600, Note_off_c, 3, 55, 90
9, 33600, Note_off_c, 3, 43, 90
9, 34080, Note_on_c, 3, 52, 92
9, 34080, Note_on_c, 3, 40, 92
9, 34560, Note_off_c, 3, 52, 90
9, 34560, Note_off_c, 3, 40, 90
9, 34560, Note_on_c, 3, 52, 92
9, 34560, Note_on_c, 3, 40, 92
9, 35040, Note_off_c, 3, 52, 90
9, 35040, Note_off_c, 3, 40, 90
9, 35040, Note_on_c, 3, 55, 92
9, 35040, Note_on_c, 3, 43, 92
9, 35520, Note_off_c, 3, 55, 90
9, 35520, Note_off_c, 3, 43, 90
9, 35520, Note_on_c, 3, 59, 92
9, 35520, Note_on_c, 3, 47, 92
9, 35760, Note_off_c, 3, 59, 90
9, 35760, Note_off_c, 3, 47, 90
9, 36000, Note_on_c, 3, 52, 92
9, 36000, Note_on_c, 3, 40, 92
9, 36480, Note_off_c, 3, 52, 90
9, 36480, Note_off_c, 3, 40, 90
9, 37440, Note_on_c, 3, 45, 92
9, 37440, Note_on_c, 3, 33, 92
9, 37920, Note_off_c, 3, 45, 90
9, 37920, Note_off_c, 3, 33, 90
9, 38880, Note_on_c, 3, 50, 92
9, 38880, Note_on_c, 3, 38, 92
9, 39360, Note_off_c, 3, 50, 90
9, 39360, Note_off_c, 3, 38, 90
9, 40320, Note_on_c, 3, 54, 92
9, 40320, Note_on_c, 3, 42, 92
9, 40800, Note_off_c, 3, 54, 90
9, 40800, Note_off_c, 3, 42, 90
9, 41760, Note_on_c, 3, 55, 92
9, 41760, Note_on_c, 3, 43, 92
9, 43200, Note_off_c, 3, 55, 90
9, 43200, Note_off_c, 3, 43, 90
9, 43200, Note_on_c, 3, 45, 92
9, 43200, Note_on_c, 3, 33, 92
9, 44640, Note_off_c, 3, 45, 90
9, 44640, Note_off_c, 3, 33, 90
9, 44640, Note_on_c, 3, 50, 92
9, 44640, Note_on_c, 3, 38, 92
9, 45120, Note_off_c, 3, 50, 90
9, 45120, Note_off_c, 3, 38, 90
9, 45600, Note_on_c, 3, 50, 92
9, 45600, Note_on_c, 3, 38, 92
9, 46080, Note_off_c, 3, 50, 90
9, 46080, Note_off_c, 3, 38, 90
9, 47520, Note_on_c, 3, 52, 74
9, 47520, Note_on_c, 3, 40, 74
9, 48000, Note_off_c, 3, 52, 90
9, 48000, Note_off_c, 3, 40, 90
9, 48960, Note_on_c, 3, 52, 74
9, 48960, Note_on_c, 3, 40, 74
9, 49440, Note_off_c, 3, 52, 90
9, 49440, Note_off_c, 3, 40, 90
9, 50400, Note_on_c, 3, 52, 74
9, 50400, Note_on_c, 3, 40, 74
9, 50880, Note_off_c, 3, 52, 90
9, 50880, Note_off_c, 3, 40, 90
9, 51840, Note_on_c, 3, 40, 74
9, 51840, Note_on_c, 3, 28, 74
9, 52320, Note_off_c, 3, 40, 90
9, 52320, Note_off_c, 3, 28, 90
9, 53280, Note_on_c, 3, 45, 74
9, 53280, Note_on_c, 3, 33, 74
9, 53760, Note_off_c, 3, 45, 90
9, 53760, Note_off_c, 3, 33, 90
9, 54720, Note_on_c, 3, 45, 74
9, 54720, Note_on_c, 3, 33, 74
9, 55200, Note_off_c, 3, 45, 90
9, 55200, Note_off_c, 3, 33, 90
9, 56160, Note_on_c, 3, 45, 74
9, 56160, Note_on_c, 3, 33, 74
9, 56640, Note_off_c, 3, 45, 90
9, 56640, Note_off_c, 3, 33, 90
9, 57600, Note_on_c, 3, 45, 74
9, 57600, Note_on_c, 3, 33, 74
9, 58080, Note_off_c, 3, 45, 90
9, 58080, Note_off_c, 3, 33, 90
9, 59040, Note_on_c, 3, 40, 74
9, 59040, Note_on_c, 3, 28, 74
9, 59520, Note_off_c, 3, 40, 90
9, 59520, Note_off_c, 3, 28, 90
9, 60480, Note_on_c, 3, 40, 74
9, 60480, Note_on_c, 3, 28, 74
9, 60960, Note_off_c, 3, 40, 90
9, 60960, Note_off_c, 3, 28, 90
9, 61920, Note_on_c, 3, 40, 74
9, 61920, Note_on_c, 3, 28, 74
9, 62400, Note_off_c, 3, 40, 90
9, 62400, Note_off_c, 3, 28, 90
9, 63360, Note_on_c, 3, 40, 74
9, 63360, Note_on_c, 3, 28, 74
9, 63840, Note_off_c, 3, 40, 90
9, 63840, Note_off_c, 3, 28, 90
9, 64800, Note_on_c, 3, 42, 74
9, 64800, Note_on_c, 3, 30, 74
9, 66240, Note_off_c, 3, 42, 90
9, 66240, Note_off_c, 3, 30, 90
9, 66240, Note_on_c, 3, 38, 74
9, 66240, Note_on_c, 3, 26, 74
9, 67200, Note_off_c, 3, 38, 90
9, 67200, Note_off_c, 3, 26, 90
9, 67680, Note_on_c, 3, 40, 74
9, 67680, Note_on_c, 3, 28, 74
9, 68160, Note_off_c, 3, 40, 90
9, 68160, Note_off_c, 3, 28, 90
9, 68160, Note_on_c, 3, 44, 74
9, 68160, Note_on_c, 3, 32, 74
9, 68640, Note_off_c, 3, 44, 90
9, 68640, Note_off_c, 3, 32, 90
9, 68640, Note_on_c, 3, 40, 74
9, 68640, Note_on_c, 3, 28, 74
9, 69120, Note_off_c, 3, 40, 90
9, 69120, Note_off_c, 3, 28, 90
9, 69120, Note_on_c, 3, 45, 74
9, 69120, Note_on_c, 3, 33, 74
9, 69600, Note_off_c, 3, 45, 90
9, 69600, Note_off_c, 3, 33, 90
9, 70560, Note_on_c, 3, 52, 92
9, 70560, Note_on_c, 3, 40, 92
9, 71040, Note_off_c, 3, 52, 90
9, 71040, Note_off_c, 3, 40, 90
9, 72000, Note_on_c, 3, 52, 92
9, 72000, Note_on_c, 3, 40, 92
9, 72480, Note_off_c, 3, 52, 90
9, 72480, Note_off_c, 3, 40, 90
9, 73440, Note_on_c, 3, 52, 92
9, 73440, Note_on_c, 3, 40, 92
9, 73920, Note_off_c, 3, 52, 90
9, 73920, Note_off_c, 3, 40, 90
9, 74880, Note_on_c, 3, 40, 92
9, 74880, Note_on_c, 3, 28, 92
9, 75360, Note_off_c, 3, 40, 90
9, 75360, Note_off_c, 3, 28, 90
9, 76320, Note_on_c, 3, 45, 92
9, 76320, Note_on_c, 3, 33, 92
9, 76800, Note_off_c, 3, 45, 90
9, 76800, Note_off_c, 3, 33, 90
9, 77760, Note_on_c, 3, 45, 92
9, 77760, Note_on_c, 3, 33, 92
9, 78240, Note_off_c, 3, 45, 90
9, 78240, Note_off_c, 3, 33, 90
9, 79200, Note_on_c, 3, 45, 92
9, 79200, Note_on_c, 3, 33, 92
9, 79680, Note_off_c, 3, 45, 90
9, 79680, Note_off_c, 3, 33, 90
9, 80640, Note_on_c, 3, 45, 92
9, 80640, Note_on_c, 3, 33, 92
9, 81120, Note_off_c, 3, 45, 90
9, 81120, Note_off_c, 3, 33, 90
9, 82080, Note_on_c, 3, 40, 92
9, 82080, Note_on_c, 3, 28, 92
9, 82560, Note_off_c, 3, 40, 90
9, 82560, Note_off_c, 3, 28, 90
9, 83520, Note_on_c, 3, 40, 92
9, 83520, Note_on_c, 3, 28, 92
9, 84000, Note_off_c, 3, 40, 90
9, 84000, Note_off_c, 3, 28, 90
9, 84960, Note_on_c, 3, 40, 92
9, 84960, Note_on_c, 3, 28, 92
9, 85440, Note_off_c, 3, 40, 90
9, 85440, Note_off_c, 3, 28, 90
9, 86400, Note_on_c, 3, 40, 92
9, 86400, Note_on_c, 3, 28, 92
9, 86880, Note_off_c, 3, 40, 90
9, 86880, Note_off_c, 3, 28, 90
9, 87840, Note_on_c, 3, 61, 92
9, 87840, Note_on_c, 3, 54, 92
9, 87840, Note_on_c, 3, 49, 92
9, 87840, Note_on_c, 3, 42, 92
9, 89280, Note_off_c, 3, 61, 90
9, 89280, Note_off_c, 3, 42, 90
9, 89280, Note_off_c, 3, 49, 90
9, 89280, Note_off_c, 3, 54, 90
9, 89280, Note_on_c, 3, 50, 92
9, 89280, Note_on_c, 3, 38, 92
9, 90240, Note_off_c, 3, 50, 90
9, 90240, Note_off_c, 3, 38, 90
9, 90720, Note_on_c, 3, 40, 92
9, 90720, Note_on_c, 3, 28, 92
9, 91200, Note_off_c, 3, 40, 90
9, 91200, Note_off_c, 3, 28, 90
9, 91200, Note_on_c, 3, 44, 92
9, 91200, Note_on_c, 3, 32, 92
9, 91680, Note_off_c, 3, 44, 90
9, 91680, Note_off_c, 3, 32, 90
9, 91680, Note_on_c, 3, 40, 92
9, 91680, Note_on_c, 3, 28, 92
9, 92160, Note_off_c, 3, 40, 90
9, 92160, Note_off_c, 3, 28, 90
9, 92160, Note_on_c, 3, 45, 92
9, 92160, Note_on_c, 3, 33, 92
9, 92640, Note_off_c, 3, 45, 90
9, 92640, Note_off_c, 3, 33, 90
9, 99360, Note_on_c, 3, 50, 92
9, 99360, Note_on_c, 3, 38, 92
9, 99840, Note_off_c, 3, 50, 90
9, 99840, Note_off_c, 3, 38, 90
9, 100800, Note_on_c, 3, 50, 92
9, 100800, Note_on_c, 3, 38, 92
9, 101280, Note_off_c, 3, 50, 90
9, 101280, Note_off_c, 3, 38, 90
9, 102240, Note_on_c, 3, 50, 92
9, 102240, Note_on_c, 3, 38, 92
9, 102720, Note_off_c, 3, 50, 90
9, 102720, Note_off_c, 3, 38, 90
9, 103680, Note_on_c, 3, 50, 92
9, 103680, Note_on_c, 3, 38, 92
9, 104160, Note_off_c, 3, 50, 90
9, 104160, Note_off_c, 3, 38, 90
9, 105120, Note_on_c, 3, 52, 92
9, 105120, Note_on_c, 3, 40, 92
9, 105600, Note_off_c, 3, 52, 90
9, 105600, Note_off_c, 3, 40, 90
9, 106560, Note_on_c, 3, 52, 92
9, 106560, Note_on_c, 3, 40, 92
9, 107040, Note_off_c, 3, 52, 90
9, 107040, Note_off_c, 3, 40, 90
9, 108000, Note_on_c, 3, 52, 92
9, 108000, Note_on_c, 3, 40, 92
9, 108480, Note_off_c, 3, 52, 90
9, 108480, Note_off_c, 3, 40, 90
9, 109440, Note_on_c, 3, 52, 92
9, 109440, Note_on_c, 3, 40, 92
9, 109920, Note_off_c, 3, 52, 90
9, 109920, Note_off_c, 3, 40, 90
9, 110880, Note_on_c, 3, 45, 92
9, 110880, Note_on_c, 3, 33, 92
9, 111360, Note_off_c, 3, 45, 90
9, 111360, Note_off_c, 3, 33, 90
9, 112320, Note_on_c, 3, 45, 92
9, 112320, Note_on_c, 3, 33, 92
9, 112800, Note_off_c, 3, 45, 90
9, 112800, Note_off_c, 3, 33, 90
9, 113760, Note_on_c, 3, 45, 92
9, 113760, Note_on_c, 3, 33, 92
9, 114240, Note_off_c, 3, 45, 90
9, 114240, Note_off_c, 3, 33, 90
9, 115200, Note_on_c, 3, 45, 92
9, 115200, Note_on_c, 3, 33, 92
9, 115680, Note_off_c, 3, 45, 90
9, 115680, Note_off_c, 3, 33, 90
9, 116640, Note_on_c, 3, 50, 92
9, 116640, Note_on_c, 3, 38, 92
9, 117120, Note_off_c, 3, 50, 90
9, 117120, Note_off_c, 3, 38, 90
9, 118080, Note_on_c, 3, 50, 92
9, 118080, Note_on_c, 3, 38, 92
9, 118560, Note_off_c, 3, 50, 90
9, 118560, Note_off_c, 3, 38, 90
9, 119520, Note_on_c, 3, 50, 92
9, 119520, Note_on_c, 3, 38, 92
9, 120000, Note_off_c, 3, 50, 90
9, 120000, Note_off_c, 3, 38, 90
9, 120960, Note_on_c, 3, 50, 92
9, 120960, Note_on_c, 3, 38, 92
9, 121440, Note_off_c, 3, 50, 90
9, 121440, Note_off_c, 3, 38, 90
9, 122400, Note_on_c, 3, 54, 92
9, 122400, Note_on_c, 3, 42, 92
9, 122880, Note_off_c, 3, 54, 90
9, 122880, Note_off_c, 3, 42, 90
9, 123840, Note_on_c, 3, 54, 92
9, 123840, Note_on_c, 3, 42, 92
9, 124320, Note_off_c, 3, 54, 90
9, 124320, Note_off_c, 3, 42, 90
9, 125280, Note_on_c, 3, 54, 92
9, 125280, Note_on_c, 3, 42, 92
9, 125760, Note_off_c, 3, 54, 90
9, 125760, Note_off_c, 3, 42, 90
9, 126720, Note_on_c, 3, 54, 92
9, 126720, Note_on_c, 3, 42, 92
9, 127200, Note_off_c, 3, 54, 90
9, 127200, Note_off_c, 3, 42, 90
9, 128160, Note_on_c, 3, 55, 92
9, 128160, Note_on_c, 3, 43, 92
9, 128640, Note_off_c, 3, 55, 90
9, 128640, Note_off_c, 3, 43, 90
9, 129600, Note_on_c, 3, 55, 92
9, 129600, Note_on_c, 3, 43, 92
9, 130080, Note_off_c, 3, 55, 90
9, 130080, Note_off_c, 3, 43, 90
9, 131040, Note_on_c, 3, 55, 92
9, 131040, Note_on_c, 3, 43, 92
9, 131520, Note_off_c, 3, 55, 90
9, 131520, Note_off_c, 3, 43, 90
9, 132000, Note_on_c, 3, 52, 92
9, 132000, Note_on_c, 3, 40, 92
9, 132480, Note_off_c, 3, 52, 90
9, 132480, Note_off_c, 3, 40, 90
9, 132480, Note_on_c, 3, 52, 92
9, 132480, Note_on_c, 3, 40, 92
9, 132960, Note_off_c, 3, 52, 90
9, 132960, Note_off_c, 3, 40, 90
9, 132960, Note_on_c, 3, 55, 92
9, 132960, Note_on_c, 3, 43, 92
9, 133440, Note_off_c, 3, 55, 90
9, 133440, Note_off_c, 3, 43, 90
9, 133440, Note_on_c, 3, 59, 92
9, 133440, Note_on_c, 3, 47, 92
9, 133680, Note_off_c, 3, 59, 90
9, 133680, Note_off_c, 3, 47, 90
9, 133920, Note_on_c, 3, 52, 92
9, 133920, Note_on_c, 3, 40, 92
9, 134400, Note_off_c, 3, 52, 90
9, 134400, Note_off_c, 3, 40, 90
9, 135360, Note_on_c, 3, 45, 92
9, 135360, Note_on_c, 3, 33, 92
9, 135840, Note_off_c, 3, 45, 90
9, 135840, Note_off_c, 3, 33, 90
9, 136800, Note_on_c, 3, 50, 92
9, 136800, Note_on_c, 3, 38, 92
9, 137280, Note_off_c, 3, 50, 90
9, 137280, Note_off_c, 3, 38, 90
9, 138240, Note_on_c, 3, 54, 92
9, 138240, Note_on_c, 3, 42, 92
9, 138720, Note_off_c, 3, 54, 90
9, 138720, Note_off_c, 3, 42, 90
9, 139680, Note_on_c, 3, 55, 92
9, 139680, Note_on_c, 3, 43, 92
9, 141120, Note_off_c, 3, 55, 90
9, 141120, Note_off_c, 3, 43, 90
9, 141120, Note_on_c, 3, 45, 92
9, 141120, Note_on_c, 3, 33, 92
9, 142560, Note_off_c, 3, 45, 90
9, 142560, Note_off_c, 3, 33, 90
9, 142560, Note_on_c, 3, 50, 92
9, 142560, Note_on_c, 3, 26, 92
9, 142560, Note_on_c, 3, 74, 69
9, 142560, Note_on_c, 3, 38, 92
9, 143040, Note_off_c, 3, 50, 90
9, 143040, Note_off_c, 3, 38, 90
9, 143040, Note_off_c, 3, 74, 90
9, 143040, Note_off_c, 3, 26, 90
9, 143280, Note_on_c, 3, 38, 97
9, 143280, Note_on_c, 3, 26, 97
9, 143520, Note_off_c, 3, 38, 90
9, 143520, Note_off_c, 3, 26, 90
9, 143520, Note_on_c, 3, 26, 92
9, 143520, Note_on_c, 3, 50, 92
9, 143520, Note_on_c, 3, 38, 92
9, 144000, Note_off_c, 3, 26, 90
9, 144000, Note_off_c, 3, 38, 90
9, 144000, Note_off_c, 3, 50, 90
9, 144000, End_track
0, 0, End_of_file
