0, 0, Header, 1, 16, 120
1, 0, Start_track
1, 0, Sequencer_specific, 3, 0, 0, 65
1, 0, Time_signature, 2, 2, 24, 8
1, 0, Key_signature, 0, "major"
1, 0, Tempo, 379746
1, 0, Marker_t, "Brahms Sonata No.1 for Violin and Piano in G major Op78"
1, 0, Marker_t, "Vivace ma non troppo"
1, 0, Marker_t, "Recorded by Dr. Chew"
1, 0, Marker_t, "Creative Labs Inc. (c) 1992"
1, 0, Marker_t, ""
1, 0, End_track
2, 0, Start_track
2, 0, MIDI_port, 0
2, 0, Title_t, "Bass                "
2, 0, Program_c, 5, 43
2, 0, Control_c, 5, 7, 110
2, 0, Control_c, 5, 10, 97
2, 240, Control_c, 5, 121, 0
2, 240, Control_c, 5, 0, 0
2, 240, Program_c, 5, 43
2, 480, Control_c, 5, 91, 100
2, 480, Control_c, 5, 93, 30
2, 480, Note_on_c, 5, 43, 73
2, 508, Note_on_c, 5, 43, 0
2, 720, Note_on_c, 5, 57, 76
2, 748, Note_on_c, 5, 57, 0
2, 780, Note_on_c, 5, 59, 71
2, 808, Note_on_c, 5, 59, 0
2, 840, Note_on_c, 5, 60, 77
2, 868, Note_on_c, 5, 60, 0
2, 960, Note_on_c, 5, 50, 63
2, 960, Note_on_c, 5, 43, 70
2, 988, Note_on_c, 5, 43, 0
2, 988, Note_on_c, 5, 50, 0
2, 1200, Note_on_c, 5, 52, 71
2, 1228, Note_on_c, 5, 52, 0
2, 1260, Note_on_c, 5, 54, 63
2, 1288, Note_on_c, 5, 54, 0
2, 1320, Note_on_c, 5, 55, 74
2, 1348, Note_on_c, 5, 55, 0
2, 1380, Note_on_c, 5, 43, 75
2, 1408, Note_on_c, 5, 43, 0
2, 1500, Note_on_c, 5, 43, 75
2, 1528, Note_on_c, 5, 43, 0
2, 1620, Note_on_c, 5, 43, 74
2, 1648, Note_on_c, 5, 43, 0
2, 1740, Note_on_c, 5, 43, 76
2, 1768, Note_on_c, 5, 43, 0
2, 1860, Note_on_c, 5, 43, 77
2, 1888, Note_on_c, 5, 43, 0
2, 1980, Note_on_c, 5, 43, 74
2, 2008, Note_on_c, 5, 43, 0
2, 2100, Note_on_c, 5, 43, 79
2, 2128, Note_on_c, 5, 43, 0
2, 2220, Note_on_c, 5, 43, 77
2, 2248, Note_on_c, 5, 43, 0
2, 2400, Note_on_c, 5, 59, 79
2, 2400, Note_on_c, 5, 50, 72
2, 2400, Note_on_c, 5, 43, 70
2, 2428, Note_on_c, 5, 43, 0
2, 2428, Note_on_c, 5, 50, 0
2, 2428, Note_on_c, 5, 59, 0
2, 2640, Note_on_c, 5, 57, 76
2, 2668, Note_on_c, 5, 57, 0
2, 2700, Note_on_c, 5, 59, 66
2, 2728, Note_on_c, 5, 59, 0
2, 2760, Note_on_c, 5, 60, 74
2, 2788, Note_on_c, 5, 60, 0
2, 2880, Note_on_c, 5, 43, 77
2, 2908, Note_on_c, 5, 43, 0
2, 3120, Note_on_c, 5, 52, 74
2, 3148, Note_on_c, 5, 52, 0
2, 3180, Note_on_c, 5, 54, 71
2, 3208, Note_on_c, 5, 54, 0
2, 3240, Note_on_c, 5, 55, 73
2, 3268, Note_on_c, 5, 55, 0
2, 3300, Note_on_c, 5, 43, 74
2, 3328, Note_on_c, 5, 43, 0
2, 3420, Note_on_c, 5, 43, 73
2, 3448, Note_on_c, 5, 43, 0
2, 3540, Note_on_c, 5, 43, 79
2, 3568, Note_on_c, 5, 43, 0
2, 3660, Note_on_c, 5, 43, 75
2, 3688, Note_on_c, 5, 43, 0
2, 3780, Note_on_c, 5, 43, 75
2, 3808, Note_on_c, 5, 43, 0
2, 3900, Note_on_c, 5, 43, 75
2, 3928, Note_on_c, 5, 43, 0
2, 4020, Note_on_c, 5, 43, 76
2, 4048, Note_on_c, 5, 43, 0
2, 4140, Note_on_c, 5, 43, 79
2, 4168, Note_on_c, 5, 43, 0
2, 4200, Note_on_c, 5, 43, 84
2, 4228, Note_on_c, 5, 43, 0
2, 4320, Note_on_c, 5, 43, 73
2, 4348, Note_on_c, 5, 43, 0
2, 4560, Note_on_c, 5, 57, 76
2, 4588, Note_on_c, 5, 57, 0
2, 4620, Note_on_c, 5, 59, 71
2, 4648, Note_on_c, 5, 59, 0
2, 4680, Note_on_c, 5, 60, 77
2, 4708, Note_on_c, 5, 60, 0
2, 4800, Note_on_c, 5, 50, 63
2, 4800, Note_on_c, 5, 43, 70
2, 4828, Note_on_c, 5, 43, 0
2, 4828, Note_on_c, 5, 50, 0
2, 5040, Note_on_c, 5, 52, 71
2, 5068, Note_on_c, 5, 52, 0
2, 5100, Note_on_c, 5, 54, 63
2, 5128, Note_on_c, 5, 54, 0
2, 5160, Note_on_c, 5, 55, 74
2, 5188, Note_on_c, 5, 55, 0
2, 5220, Note_on_c, 5, 43, 75
2, 5248, Note_on_c, 5, 43, 0
2, 5340, Note_on_c, 5, 43, 75
2, 5368, Note_on_c, 5, 43, 0
2, 5460, Note_on_c, 5, 43, 74
2, 5488, Note_on_c, 5, 43, 0
2, 5580, Note_on_c, 5, 43, 76
2, 5608, Note_on_c, 5, 43, 0
2, 5700, Note_on_c, 5, 43, 77
2, 5728, Note_on_c, 5, 43, 0
2, 5820, Note_on_c, 5, 43, 74
2, 5848, Note_on_c, 5, 43, 0
2, 5940, Note_on_c, 5, 43, 79
2, 5968, Note_on_c, 5, 43, 0
2, 6060, Note_on_c, 5, 43, 77
2, 6088, Note_on_c, 5, 43, 0
2, 6240, Note_on_c, 5, 59, 79
2, 6240, Note_on_c, 5, 50, 72
2, 6240, Note_on_c, 5, 43, 70
2, 6268, Note_on_c, 5, 43, 0
2, 6268, Note_on_c, 5, 50, 0
2, 6268, Note_on_c, 5, 59, 0
2, 6480, Note_on_c, 5, 57, 76
2, 6508, Note_on_c, 5, 57, 0
2, 6540, Note_on_c, 5, 59, 66
2, 6568, Note_on_c, 5, 59, 0
2, 6600, Note_on_c, 5, 60, 74
2, 6628, Note_on_c, 5, 60, 0
2, 6720, Note_on_c, 5, 43, 77
2, 6748, Note_on_c, 5, 43, 0
2, 6960, Note_on_c, 5, 52, 74
2, 6988, Note_on_c, 5, 52, 0
2, 7020, Note_on_c, 5, 54, 71
2, 7048, Note_on_c, 5, 54, 0
2, 7080, Note_on_c, 5, 55, 73
2, 7108, Note_on_c, 5, 55, 0
2, 7140, Note_on_c, 5, 43, 74
2, 7168, Note_on_c, 5, 43, 0
2, 7260, Note_on_c, 5, 43, 73
2, 7288, Note_on_c, 5, 43, 0
2, 7380, Note_on_c, 5, 43, 79
2, 7408, Note_on_c, 5, 43, 0
2, 7500, Note_on_c, 5, 43, 75
2, 7528, Note_on_c, 5, 43, 0
2, 7620, Note_on_c, 5, 43, 75
2, 7648, Note_on_c, 5, 43, 0
2, 7740, Note_on_c, 5, 43, 75
2, 7768, Note_on_c, 5, 43, 0
2, 7860, Note_on_c, 5, 43, 76
2, 7888, Note_on_c, 5, 43, 0
2, 7980, Note_on_c, 5, 43, 79
2, 8008, Note_on_c, 5, 43, 0
2, 8040, Note_on_c, 5, 43, 84
2, 8068, Note_on_c, 5, 43, 0
2, 8160, Control_c, 5, 1, 0
2, 8160, End_track
3, 0, Start_track
3, 0, MIDI_port, 0
3, 0, Title_t, "Cello               "
3, 0, Program_c, 2, 42
3, 0, Control_c, 2, 7, 110
3, 0, Control_c, 2, 10, 10
3, 240, Control_c, 2, 121, 0
3, 240, Control_c, 2, 0, 0
3, 240, Program_c, 2, 42
3, 480, Control_c, 2, 91, 90
3, 480, Note_on_c, 2, 43, 71
3, 480, Note_on_c, 2, 59, 62
3, 480, Note_on_c, 2, 50, 69
3, 508, Note_on_c, 2, 50, 0
3, 508, Note_on_c, 2, 59, 0
3, 508, Note_on_c, 2, 43, 0
3, 720, Note_on_c, 2, 57, 66
3, 748, Note_on_c, 2, 57, 0
3, 780, Note_on_c, 2, 59, 61
3, 808, Note_on_c, 2, 59, 0
3, 840, Note_on_c, 2, 60, 67
3, 868, Note_on_c, 2, 60, 0
3, 960, Note_on_c, 2, 59, 61
3, 960, Note_on_c, 2, 43, 64
3, 960, Note_on_c, 2, 50, 63
3, 988, Note_on_c, 2, 50, 0
3, 988, Note_on_c, 2, 43, 0
3, 988, Note_on_c, 2, 59, 0
3, 1200, Note_on_c, 2, 52, 71
3, 1228, Note_on_c, 2, 52, 0
3, 1260, Note_on_c, 2, 54, 63
3, 1288, Note_on_c, 2, 54, 0
3, 1320, Note_on_c, 2, 55, 74
3, 1348, Note_on_c, 2, 55, 0
3, 1380, Note_on_c, 2, 38, 69
3, 1380, Note_on_c, 2, 43, 65
3, 1408, Note_on_c, 2, 43, 0
3, 1408, Note_on_c, 2, 38, 0
3, 1500, Note_on_c, 2, 38, 62
3, 1500, Note_on_c, 2, 43, 55
3, 1528, Note_on_c, 2, 43, 0
3, 1528, Note_on_c, 2, 38, 0
3, 1620, Note_on_c, 2, 38, 61
3, 1620, Note_on_c, 2, 43, 64
3, 1648, Note_on_c, 2, 43, 0
3, 1648, Note_on_c, 2, 38, 0
3, 1740, Note_on_c, 2, 38, 57
3, 1740, Note_on_c, 2, 43, 66
3, 1768, Note_on_c, 2, 43, 0
3, 1768, Note_on_c, 2, 38, 0
3, 1860, Note_on_c, 2, 38, 59
3, 1860, Note_on_c, 2, 43, 57
3, 1888, Note_on_c, 2, 43, 0
3, 1888, Note_on_c, 2, 38, 0
3, 1980, Note_on_c, 2, 38, 59
3, 1980, Note_on_c, 2, 43, 64
3, 2008, Note_on_c, 2, 43, 0
3, 2008, Note_on_c, 2, 38, 0
3, 2100, Note_on_c, 2, 38, 64
3, 2100, Note_on_c, 2, 43, 69
3, 2128, Note_on_c, 2, 43, 0
3, 2128, Note_on_c, 2, 38, 0
3, 2220, Note_on_c, 2, 43, 67
3, 2220, Note_on_c, 2, 38, 58
3, 2248, Note_on_c, 2, 38, 0
3, 2248, Note_on_c, 2, 43, 0
3, 2400, Note_on_c, 2, 59, 69
3, 2400, Note_on_c, 2, 50, 72
3, 2400, Note_on_c, 2, 43, 70
3, 2428, Note_on_c, 2, 43, 0
3, 2428, Note_on_c, 2, 50, 0
3, 2428, Note_on_c, 2, 59, 0
3, 2640, Note_on_c, 2, 57, 76
3, 2668, Note_on_c, 2, 57, 0
3, 2700, Note_on_c, 2, 59, 66
3, 2728, Note_on_c, 2, 59, 0
3, 2760, Note_on_c, 2, 60, 74
3, 2788, Note_on_c, 2, 60, 0
3, 2880, Note_on_c, 2, 59, 71
3, 2880, Note_on_c, 2, 43, 67
3, 2908, Note_on_c, 2, 43, 0
3, 2908, Note_on_c, 2, 59, 0
3, 3120, Note_on_c, 2, 52, 74
3, 3148, Note_on_c, 2, 52, 0
3, 3180, Note_on_c, 2, 54, 71
3, 3208, Note_on_c, 2, 54, 0
3, 3240, Note_on_c, 2, 55, 73
3, 3268, Note_on_c, 2, 55, 0
3, 3300, Note_on_c, 2, 38, 69
3, 3300, Note_on_c, 2, 43, 64
3, 3328, Note_on_c, 2, 43, 0
3, 3328, Note_on_c, 2, 38, 0
3, 3420, Note_on_c, 2, 38, 67
3, 3420, Note_on_c, 2, 43, 63
3, 3448, Note_on_c, 2, 43, 0
3, 3448, Note_on_c, 2, 38, 0
3, 3540, Note_on_c, 2, 38, 66
3, 3540, Note_on_c, 2, 43, 69
3, 3568, Note_on_c, 2, 43, 0
3, 3568, Note_on_c, 2, 38, 0
3, 3660, Note_on_c, 2, 38, 71
3, 3660, Note_on_c, 2, 43, 65
3, 3688, Note_on_c, 2, 43, 0
3, 3688, Note_on_c, 2, 38, 0
3, 3780, Note_on_c, 2, 38, 63
3, 3780, Note_on_c, 2, 43, 65
3, 3808, Note_on_c, 2, 43, 0
3, 3808, Note_on_c, 2, 38, 0
3, 3900, Note_on_c, 2, 38, 70
3, 3900, Note_on_c, 2, 43, 75
3, 3928, Note_on_c, 2, 43, 0
3, 3928, Note_on_c, 2, 38, 0
3, 4020, Note_on_c, 2, 43, 76
3, 4020, Note_on_c, 2, 38, 70
3, 4048, Note_on_c, 2, 38, 0
3, 4048, Note_on_c, 2, 43, 0
3, 4140, Note_on_c, 2, 36, 82
3, 4140, Note_on_c, 2, 43, 79
3, 4168, Note_on_c, 2, 43, 0
3, 4168, Note_on_c, 2, 36, 0
3, 4200, Note_on_c, 2, 43, 74
3, 4200, Note_on_c, 2, 38, 74
3, 4228, Note_on_c, 2, 38, 0
3, 4228, Note_on_c, 2, 43, 0
3, 4320, Note_on_c, 2, 43, 71
3, 4320, Note_on_c, 2, 59, 62
3, 4320, Note_on_c, 2, 50, 69
3, 4348, Note_on_c, 2, 50, 0
3, 4348, Note_on_c, 2, 59, 0
3, 4348, Note_on_c, 2, 43, 0
3, 4560, Note_on_c, 2, 57, 66
3, 4588, Note_on_c, 2, 57, 0
3, 4620, Note_on_c, 2, 59, 61
3, 4648, Note_on_c, 2, 59, 0
3, 4680, Note_on_c, 2, 60, 67
3, 4708, Note_on_c, 2, 60, 0
3, 4800, Note_on_c, 2, 59, 61
3, 4800, Note_on_c, 2, 43, 64
3, 4800, Note_on_c, 2, 50, 63
3, 4828, Note_on_c, 2, 50, 0
3, 4828, Note_on_c, 2, 43, 0
3, 4828, Note_on_c, 2, 59, 0
3, 5040, Note_on_c, 2, 52, 71
3, 5068, Note_on_c, 2, 52, 0
3, 5100, Note_on_c, 2, 54, 63
3, 5128, Note_on_c, 2, 54, 0
3, 5160, Note_on_c, 2, 55, 74
3, 5188, Note_on_c, 2, 55, 0
3, 5220, Note_on_c, 2, 38, 69
3, 5220, Note_on_c, 2, 43, 65
3, 5248, Note_on_c, 2, 43, 0
3, 5248, Note_on_c, 2, 38, 0
3, 5340, Note_on_c, 2, 38, 62
3, 5340, Note_on_c, 2, 43, 55
3, 5368, Note_on_c, 2, 43, 0
3, 5368, Note_on_c, 2, 38, 0
3, 5460, Note_on_c, 2, 38, 61
3, 5460, Note_on_c, 2, 43, 64
3, 5488, Note_on_c, 2, 43, 0
3, 5488, Note_on_c, 2, 38, 0
3, 5580, Note_on_c, 2, 38, 57
3, 5580, Note_on_c, 2, 43, 66
3, 5608, Note_on_c, 2, 43, 0
3, 5608, Note_on_c, 2, 38, 0
3, 5700, Note_on_c, 2, 38, 59
3, 5700, Note_on_c, 2, 43, 57
3, 5728, Note_on_c, 2, 43, 0
3, 5728, Note_on_c, 2, 38, 0
3, 5820, Note_on_c, 2, 38, 59
3, 5820, Note_on_c, 2, 43, 64
3, 5848, Note_on_c, 2, 43, 0
3, 5848, Note_on_c, 2, 38, 0
3, 5940, Note_on_c, 2, 38, 64
3, 5940, Note_on_c, 2, 43, 69
3, 5968, Note_on_c, 2, 43, 0
3, 5968, Note_on_c, 2, 38, 0
3, 6060, Note_on_c, 2, 43, 67
3, 6060, Note_on_c, 2, 38, 58
3, 6088, Note_on_c, 2, 38, 0
3, 6088, Note_on_c, 2, 43, 0
3, 6240, Note_on_c, 2, 59, 69
3, 6240, Note_on_c, 2, 50, 72
3, 6240, Note_on_c, 2, 43, 70
3, 6268, Note_on_c, 2, 43, 0
3, 6268, Note_on_c, 2, 50, 0
3, 6268, Note_on_c, 2, 59, 0
3, 6480, Note_on_c, 2, 57, 76
3, 6508, Note_on_c, 2, 57, 0
3, 6540, Note_on_c, 2, 59, 66
3, 6568, Note_on_c, 2, 59, 0
3, 6600, Note_on_c, 2, 60, 74
3, 6628, Note_on_c, 2, 60, 0
3, 6720, Note_on_c, 2, 59, 71
3, 6720, Note_on_c, 2, 43, 67
3, 6748, Note_on_c, 2, 43, 0
3, 6748, Note_on_c, 2, 59, 0
3, 6960, Note_on_c, 2, 52, 74
3, 6988, Note_on_c, 2, 52, 0
3, 7020, Note_on_c, 2, 54, 71
3, 7048, Note_on_c, 2, 54, 0
3, 7080, Note_on_c, 2, 55, 73
3, 7108, Note_on_c, 2, 55, 0
3, 7140, Note_on_c, 2, 38, 69
3, 7140, Note_on_c, 2, 43, 64
3, 7168, Note_on_c, 2, 43, 0
3, 7168, Note_on_c, 2, 38, 0
3, 7260, Note_on_c, 2, 38, 67
3, 7260, Note_on_c, 2, 43, 63
3, 7288, Note_on_c, 2, 43, 0
3, 7288, Note_on_c, 2, 38, 0
3, 7380, Note_on_c, 2, 38, 66
3, 7380, Note_on_c, 2, 43, 69
3, 7408, Note_on_c, 2, 43, 0
3, 7408, Note_on_c, 2, 38, 0
3, 7500, Note_on_c, 2, 38, 71
3, 7500, Note_on_c, 2, 43, 65
3, 7528, Note_on_c, 2, 43, 0
3, 7528, Note_on_c, 2, 38, 0
3, 7620, Note_on_c, 2, 38, 63
3, 7620, Note_on_c, 2, 43, 65
3, 7648, Note_on_c, 2, 43, 0
3, 7648, Note_on_c, 2, 38, 0
3, 7740, Note_on_c, 2, 38, 70
3, 7740, Note_on_c, 2, 43, 75
3, 7768, Note_on_c, 2, 43, 0
3, 7768, Note_on_c, 2, 38, 0
3, 7860, Note_on_c, 2, 43, 76
3, 7860, Note_on_c, 2, 38, 70
3, 7888, Note_on_c, 2, 38, 0
3, 7888, Note_on_c, 2, 43, 0
3, 7980, Note_on_c, 2, 36, 82
3, 7980, Note_on_c, 2, 43, 79
3, 8008, Note_on_c, 2, 43, 0
3, 8008, Note_on_c, 2, 36, 0
3, 8040, Note_on_c, 2, 43, 74
3, 8040, Note_on_c, 2, 38, 74
3, 8068, Note_on_c, 2, 38, 0
3, 8068, Note_on_c, 2, 43, 0
3, 8160, Control_c, 2, 64, 0
3, 8160, End_track
4, 0, Start_track
4, 0, MIDI_port, 0
4, 0, Title_t, "Clarinet"
4, 0, Program_c, 3, 71
4, 0, Control_c, 3, 7, 90
4, 0, Control_c, 3, 10, 98
4, 240, Control_c, 3, 121, 0
4, 240, Control_c, 3, 0, 0
4, 240, Program_c, 3, 71
4, 240, Control_c, 3, 91, 80
4, 480, Control_c, 3, 93, 10
4, 480, Note_on_c, 3, 74, 75
4, 480, Note_on_c, 3, 67, 69
4, 508, Note_on_c, 3, 67, 0
4, 508, Note_on_c, 3, 74, 0
4, 720, Note_on_c, 3, 72, 82
4, 720, Note_on_c, 3, 76, 83
4, 748, Note_on_c, 3, 76, 0
4, 748, Note_on_c, 3, 72, 0
4, 780, Note_on_c, 3, 71, 78
4, 780, Note_on_c, 3, 74, 76
4, 808, Note_on_c, 3, 74, 0
4, 808, Note_on_c, 3, 71, 0
4, 840, Note_on_c, 3, 69, 97
4, 840, Note_on_c, 3, 72, 97
4, 868, Note_on_c, 3, 72, 0
4, 868, Note_on_c, 3, 69, 0
4, 960, Note_on_c, 3, 67, 92
4, 960, Note_on_c, 3, 71, 89
4, 988, Note_on_c, 3, 71, 0
4, 988, Note_on_c, 3, 67, 0
4, 1200, Note_on_c, 3, 61, 78
4, 1200, Note_on_c, 3, 71, 78
4, 1228, Note_on_c, 3, 71, 0
4, 1228, Note_on_c, 3, 61, 0
4, 1260, Note_on_c, 3, 60, 84
4, 1260, Note_on_c, 3, 69, 85
4, 1288, Note_on_c, 3, 69, 0
4, 1288, Note_on_c, 3, 60, 0
4, 1320, Note_on_c, 3, 59, 88
4, 1320, Note_on_c, 3, 67, 93
4, 1348, Note_on_c, 3, 67, 0
4, 1348, Note_on_c, 3, 59, 0
4, 2400, Note_on_c, 3, 74, 96
4, 2400, Note_on_c, 3, 67, 100
4, 2428, Note_on_c, 3, 67, 0
4, 2428, Note_on_c, 3, 74, 0
4, 2640, Note_on_c, 3, 72, 85
4, 2640, Note_on_c, 3, 76, 85
4, 2668, Note_on_c, 3, 76, 0
4, 2668, Note_on_c, 3, 72, 0
4, 2700, Note_on_c, 3, 71, 90
4, 2700, Note_on_c, 3, 74, 89
4, 2728, Note_on_c, 3, 74, 0
4, 2728, Note_on_c, 3, 71, 0
4, 2760, Note_on_c, 3, 69, 103
4, 2760, Note_on_c, 3, 72, 103
4, 2788, Note_on_c, 3, 72, 0
4, 2788, Note_on_c, 3, 69, 0
4, 2880, Note_on_c, 3, 67, 99
4, 2880, Note_on_c, 3, 71, 104
4, 2908, Note_on_c, 3, 71, 0
4, 2908, Note_on_c, 3, 67, 0
4, 3120, Note_on_c, 3, 61, 81
4, 3120, Note_on_c, 3, 71, 85
4, 3148, Note_on_c, 3, 71, 0
4, 3148, Note_on_c, 3, 61, 0
4, 3180, Note_on_c, 3, 60, 81
4, 3180, Note_on_c, 3, 69, 86
4, 3208, Note_on_c, 3, 69, 0
4, 3208, Note_on_c, 3, 60, 0
4, 3240, Note_on_c, 3, 59, 86
4, 3240, Note_on_c, 3, 67, 95
4, 3268, Note_on_c, 3, 67, 0
4, 3268, Note_on_c, 3, 59, 0
4, 4320, Note_on_c, 3, 74, 75
4, 4320, Note_on_c, 3, 67, 69
4, 4348, Note_on_c, 3, 67, 0
4, 4348, Note_on_c, 3, 74, 0
4, 4560, Note_on_c, 3, 72, 82
4, 4560, Note_on_c, 3, 76, 83
4, 4588, Note_on_c, 3, 76, 0
4, 4588, Note_on_c, 3, 72, 0
4, 4620, Note_on_c, 3, 71, 78
4, 4620, Note_on_c, 3, 74, 76
4, 4648, Note_on_c, 3, 74, 0
4, 4648, Note_on_c, 3, 71, 0
4, 4680, Note_on_c, 3, 69, 97
4, 4680, Note_on_c, 3, 72, 97
4, 4708, Note_on_c, 3, 72, 0
4, 4708, Note_on_c, 3, 69, 0
4, 4800, Note_on_c, 3, 67, 92
4, 4800, Note_on_c, 3, 71, 89
4, 4828, Note_on_c, 3, 71, 0
4, 4828, Note_on_c, 3, 67, 0
4, 5040, Note_on_c, 3, 61, 78
4, 5040, Note_on_c, 3, 71, 78
4, 5068, Note_on_c, 3, 71, 0
4, 5068, Note_on_c, 3, 61, 0
4, 5100, Note_on_c, 3, 60, 84
4, 5100, Note_on_c, 3, 69, 85
4, 5128, Note_on_c, 3, 69, 0
4, 5128, Note_on_c, 3, 60, 0
4, 5160, Note_on_c, 3, 59, 88
4, 5160, Note_on_c, 3, 67, 93
4, 5188, Note_on_c, 3, 67, 0
4, 5188, Note_on_c, 3, 59, 0
4, 6240, Note_on_c, 3, 74, 96
4, 6240, Note_on_c, 3, 67, 100
4, 6268, Note_on_c, 3, 67, 0
4, 6268, Note_on_c, 3, 74, 0
4, 6480, Note_on_c, 3, 72, 85
4, 6480, Note_on_c, 3, 76, 85
4, 6508, Note_on_c, 3, 76, 0
4, 6508, Note_on_c, 3, 72, 0
4, 6540, Note_on_c, 3, 71, 90
4, 6540, Note_on_c, 3, 74, 89
4, 6568, Note_on_c, 3, 74, 0
4, 6568, Note_on_c, 3, 71, 0
4, 6600, Note_on_c, 3, 69, 103
4, 6600, Note_on_c, 3, 72, 103
4, 6628, Note_on_c, 3, 72, 0
4, 6628, Note_on_c, 3, 69, 0
4, 6720, Note_on_c, 3, 67, 99
4, 6720, Note_on_c, 3, 71, 104
4, 6748, Note_on_c, 3, 71, 0
4, 6748, Note_on_c, 3, 67, 0
4, 6960, Note_on_c, 3, 61, 81
4, 6960, Note_on_c, 3, 71, 85
4, 6988, Note_on_c, 3, 71, 0
4, 6988, Note_on_c, 3, 61, 0
4, 7020, Note_on_c, 3, 60, 81
4, 7020, Note_on_c, 3, 69, 86
4, 7048, Note_on_c, 3, 69, 0
4, 7048, Note_on_c, 3, 60, 0
4, 7080, Note_on_c, 3, 59, 86
4, 7080, Note_on_c, 3, 67, 95
4, 7108, Note_on_c, 3, 67, 0
4, 7108, Note_on_c, 3, 59, 0
4, 8160, Control_c, 3, 91, 0
4, 8160, End_track
5, 0, Start_track
5, 0, MIDI_port, 0
5, 0, Title_t, "English Horn"
5, 0, Program_c, 4, 69
5, 0, Control_c, 4, 7, 110
5, 0, Control_c, 4, 10, 126
5, 240, Control_c, 4, 121, 0
5, 240, Control_c, 4, 0, 0
5, 240, Program_c, 4, 69
5, 240, Control_c, 4, 93, 89
5, 480, Control_c, 4, 91, 100
5, 480, Note_on_c, 4, 79, 92
5, 508, Note_on_c, 4, 79, 0
5, 960, Note_on_c, 4, 74, 107
5, 988, Note_on_c, 4, 74, 0
5, 1380, Note_on_c, 4, 71, 74
5, 1440, Note_on_c, 4, 69, 79
5, 1440, Note_on_c, 4, 66, 79
5, 1440, Note_on_c, 4, 71, 0
5, 1560, Note_on_c, 4, 67, 77
5, 1560, Note_on_c, 4, 64, 73
5, 1560, Note_on_c, 4, 66, 0
5, 1588, Note_on_c, 4, 69, 0
5, 1650, Note_on_c, 4, 67, 0
5, 1650, Note_on_c, 4, 64, 0
5, 1680, Note_on_c, 4, 66, 93
5, 1680, Note_on_c, 4, 62, 83
5, 1800, Note_on_c, 4, 69, 93
5, 1800, Note_on_c, 4, 66, 93
5, 1800, Note_on_c, 4, 62, 0
5, 1800, Note_on_c, 4, 66, 0
5, 1880, Note_on_c, 4, 69, 0
5, 1880, Note_on_c, 4, 66, 0
5, 1920, Note_on_c, 4, 71, 89
5, 1920, Note_on_c, 4, 67, 89
5, 2040, Note_on_c, 4, 67, 82
5, 2040, Note_on_c, 4, 64, 83
5, 2040, Note_on_c, 4, 67, 0
5, 2047, Note_on_c, 4, 71, 0
5, 2130, Note_on_c, 4, 67, 0
5, 2130, Note_on_c, 4, 64, 0
5, 2160, Note_on_c, 4, 69, 99
5, 2160, Note_on_c, 4, 66, 93
5, 2188, Note_on_c, 4, 69, 0
5, 2190, Note_on_c, 4, 66, 0
5, 2220, Note_on_c, 4, 67, 88
5, 2220, Note_on_c, 4, 64, 88
5, 2248, Note_on_c, 4, 67, 0
5, 2250, Note_on_c, 4, 64, 0
5, 2280, Note_on_c, 4, 69, 94
5, 2280, Note_on_c, 4, 66, 93
5, 2308, Note_on_c, 4, 69, 0
5, 2310, Note_on_c, 4, 74, 92
5, 2310, Note_on_c, 4, 66, 0
5, 2338, Note_on_c, 4, 74, 0
5, 2340, Note_on_c, 4, 76, 95
5, 2368, Note_on_c, 4, 76, 0
5, 2370, Note_on_c, 4, 78, 99
5, 2398, Note_on_c, 4, 78, 0
5, 2400, Note_on_c, 4, 79, 103
5, 2445, Note_on_c, 4, 79, 0
5, 2880, Note_on_c, 4, 74, 114
5, 2908, Note_on_c, 4, 74, 0
5, 3300, Note_on_c, 4, 71, 83
5, 3358, Note_on_c, 4, 71, 0
5, 3360, Note_on_c, 4, 66, 86
5, 3360, Note_on_c, 4, 69, 86
5, 3480, Note_on_c, 4, 64, 89
5, 3480, Note_on_c, 4, 67, 89
5, 3480, Note_on_c, 4, 69, 0
5, 3480, Note_on_c, 4, 66, 0
5, 3570, Note_on_c, 4, 64, 0
5, 3570, Note_on_c, 4, 67, 0
5, 3600, Note_on_c, 4, 62, 93
5, 3600, Note_on_c, 4, 66, 93
5, 3720, Note_on_c, 4, 66, 86
5, 3720, Note_on_c, 4, 69, 100
5, 3720, Note_on_c, 4, 66, 0
5, 3720, Note_on_c, 4, 62, 0
5, 3810, Note_on_c, 4, 66, 0
5, 3810, Note_on_c, 4, 69, 0
5, 3840, Note_on_c, 4, 67, 94
5, 3840, Note_on_c, 4, 71, 94
5, 3930, Note_on_c, 4, 71, 0
5, 3930, Note_on_c, 4, 67, 0
5, 3960, Note_on_c, 4, 66, 91
5, 3960, Note_on_c, 4, 69, 91
5, 4050, Note_on_c, 4, 69, 0
5, 4050, Note_on_c, 4, 66, 0
5, 4080, Note_on_c, 4, 67, 106
5, 4140, Note_on_c, 4, 64, 105
5, 4140, Note_on_c, 4, 67, 0
5, 4200, Note_on_c, 4, 67, 106
5, 4200, Note_on_c, 4, 64, 0
5, 4230, Note_on_c, 4, 74, 109
5, 4258, Note_on_c, 4, 74, 0
5, 4260, Note_on_c, 4, 76, 109
5, 4260, Note_on_c, 4, 67, 0
5, 4288, Note_on_c, 4, 76, 0
5, 4290, Note_on_c, 4, 78, 109
5, 4318, Note_on_c, 4, 78, 0
5, 4320, Note_on_c, 4, 79, 92
5, 4348, Note_on_c, 4, 79, 0
5, 4800, Note_on_c, 4, 74, 107
5, 4828, Note_on_c, 4, 74, 0
5, 5220, Note_on_c, 4, 71, 74
5, 5280, Note_on_c, 4, 69, 79
5, 5280, Note_on_c, 4, 71, 0
5, 5400, Note_on_c, 4, 67, 77
5, 5428, Note_on_c, 4, 69, 0
5, 5518, Note_on_c, 4, 67, 0
5, 5520, Note_on_c, 4, 66, 85
5, 5640, Note_on_c, 4, 69, 93
5, 5647, Note_on_c, 4, 66, 0
5, 5758, Note_on_c, 4, 69, 0
5, 5760, Note_on_c, 4, 71, 89
5, 5880, Note_on_c, 4, 67, 82
5, 5887, Note_on_c, 4, 71, 0
5, 5998, Note_on_c, 4, 67, 0
5, 6000, Note_on_c, 4, 69, 99
5, 6028, Note_on_c, 4, 69, 0
5, 6060, Note_on_c, 4, 67, 88
5, 6088, Note_on_c, 4, 67, 0
5, 6120, Note_on_c, 4, 69, 94
5, 6148, Note_on_c, 4, 69, 0
5, 6150, Note_on_c, 4, 74, 86
5, 6178, Note_on_c, 4, 74, 0
5, 6180, Note_on_c, 4, 76, 92
5, 6208, Note_on_c, 4, 76, 0
5, 6210, Note_on_c, 4, 78, 99
5, 6238, Note_on_c, 4, 78, 0
5, 6240, Note_on_c, 4, 79, 103
5, 6285, Note_on_c, 4, 79, 0
5, 6720, Note_on_c, 4, 74, 114
5, 6748, Note_on_c, 4, 74, 0
5, 7140, Note_on_c, 4, 71, 83
5, 7198, Note_on_c, 4, 71, 0
5, 7200, Note_on_c, 4, 69, 86
5, 7320, Note_on_c, 4, 67, 89
5, 7348, Note_on_c, 4, 69, 0
5, 7438, Note_on_c, 4, 67, 0
5, 7440, Note_on_c, 4, 66, 93
5, 7560, Note_on_c, 4, 69, 100
5, 7588, Note_on_c, 4, 66, 0
5, 7680, Note_on_c, 4, 71, 94
5, 7708, Note_on_c, 4, 69, 0
5, 7800, Note_on_c, 4, 69, 91
5, 7815, Note_on_c, 4, 71, 0
5, 7920, Note_on_c, 4, 67, 101
5, 7927, Note_on_c, 4, 69, 0
5, 7948, Note_on_c, 4, 67, 0
5, 8040, Note_on_c, 4, 67, 109
5, 8068, Note_on_c, 4, 67, 0
5, 8160, Control_c, 4, 93, 0
5, 8160, End_track
6, 0, Start_track
6, 0, MIDI_port, 0
6, 0, Title_t, "SynthStrings1"
6, 0, Program_c, 6, 50
6, 0, Control_c, 6, 7, 110
6, 0, Control_c, 6, 10, 10
6, 480, Control_c, 6, 121, 0
6, 480, Control_c, 6, 0, 0
6, 480, Program_c, 6, 50
6, 480, Control_c, 6, 91, 70
6, 480, Control_c, 6, 93, 10
6, 480, Note_on_c, 6, 91, 104
6, 480, Note_on_c, 6, 83, 108
6, 508, Note_on_c, 6, 83, 0
6, 508, Note_on_c, 6, 91, 0
6, 540, Note_on_c, 6, 91, 102
6, 568, Note_on_c, 6, 91, 0
6, 570, Note_on_c, 6, 90, 98
6, 598, Note_on_c, 6, 90, 0
6, 600, Note_on_c, 6, 91, 124
6, 628, Note_on_c, 6, 91, 0
6, 660, Note_on_c, 6, 91, 105
6, 688, Note_on_c, 6, 91, 0
6, 720, Note_on_c, 6, 88, 99
6, 748, Note_on_c, 6, 88, 0
6, 780, Note_on_c, 6, 86, 110
6, 808, Note_on_c, 6, 86, 0
6, 840, Note_on_c, 6, 84, 127
6, 898, Note_on_c, 6, 84, 0
6, 900, Note_on_c, 6, 88, 111
6, 928, Note_on_c, 6, 88, 0
6, 960, Note_on_c, 6, 86, 111
6, 988, Note_on_c, 6, 86, 0
6, 1020, Note_on_c, 6, 86, 113
6, 1048, Note_on_c, 6, 86, 0
6, 1050, Note_on_c, 6, 85, 102
6, 1078, Note_on_c, 6, 85, 0
6, 1080, Note_on_c, 6, 86, 127
6, 1108, Note_on_c, 6, 86, 0
6, 1140, Note_on_c, 6, 86, 126
6, 1168, Note_on_c, 6, 86, 0
6, 1200, Note_on_c, 6, 83, 119
6, 1228, Note_on_c, 6, 83, 0
6, 1260, Note_on_c, 6, 81, 127
6, 1288, Note_on_c, 6, 81, 0
6, 1320, Note_on_c, 6, 79, 107
6, 1348, Note_on_c, 6, 79, 0
6, 1380, Note_on_c, 6, 83, 119
6, 1408, Note_on_c, 6, 83, 0
6, 1410, Note_on_c, 6, 86, 101
6, 1438, Note_on_c, 6, 86, 0
6, 1440, Note_on_c, 6, 81, 116
6, 1468, Note_on_c, 6, 81, 0
6, 1500, Note_on_c, 6, 81, 116
6, 1528, Note_on_c, 6, 81, 0
6, 1530, Note_on_c, 6, 86, 98
6, 1558, Note_on_c, 6, 86, 0
6, 1560, Note_on_c, 6, 79, 102
6, 1588, Note_on_c, 6, 79, 0
6, 1620, Note_on_c, 6, 79, 104
6, 1648, Note_on_c, 6, 79, 0
6, 1650, Note_on_c, 6, 86, 105
6, 1678, Note_on_c, 6, 86, 0
6, 1680, Note_on_c, 6, 78, 125
6, 1708, Note_on_c, 6, 78, 0
6, 1740, Note_on_c, 6, 78, 104
6, 1768, Note_on_c, 6, 78, 0
6, 1770, Note_on_c, 6, 86, 95
6, 1800, Note_on_c, 6, 81, 127
6, 1800, Note_on_c, 6, 86, 0
6, 1828, Note_on_c, 6, 81, 0
6, 1860, Note_on_c, 6, 81, 113
6, 1888, Note_on_c, 6, 81, 0
6, 1890, Note_on_c, 6, 86, 99
6, 1918, Note_on_c, 6, 86, 0
6, 1920, Note_on_c, 6, 83, 123
6, 1948, Note_on_c, 6, 83, 0
6, 1980, Note_on_c, 6, 83, 95
6, 2008, Note_on_c, 6, 83, 0
6, 2010, Note_on_c, 6, 86, 87
6, 2038, Note_on_c, 6, 86, 0
6, 2040, Note_on_c, 6, 79, 108
6, 2068, Note_on_c, 6, 79, 0
6, 2100, Note_on_c, 6, 79, 95
6, 2128, Note_on_c, 6, 79, 0
6, 2130, Note_on_c, 6, 86, 107
6, 2158, Note_on_c, 6, 86, 0
6, 2160, Note_on_c, 6, 78, 119
6, 2188, Note_on_c, 6, 78, 0
6, 2220, Note_on_c, 6, 76, 102
6, 2248, Note_on_c, 6, 76, 0
6, 2280, Note_on_c, 6, 78, 115
6, 2308, Note_on_c, 6, 78, 0
6, 2310, Note_on_c, 6, 86, 107
6, 2338, Note_on_c, 6, 86, 0
6, 2340, Note_on_c, 6, 88, 99
6, 2368, Note_on_c, 6, 88, 0
6, 2370, Note_on_c, 6, 90, 104
6, 2398, Note_on_c, 6, 90, 0
6, 2400, Note_on_c, 6, 91, 114
6, 2428, Note_on_c, 6, 91, 0
6, 2460, Note_on_c, 6, 91, 127
6, 2488, Note_on_c, 6, 91, 0
6, 2490, Note_on_c, 6, 90, 120
6, 2518, Note_on_c, 6, 90, 0
6, 2520, Note_on_c, 6, 91, 119
6, 2548, Note_on_c, 6, 91, 0
6, 2580, Note_on_c, 6, 91, 127
6, 2608, Note_on_c, 6, 91, 0
6, 2640, Note_on_c, 6, 88, 116
6, 2668, Note_on_c, 6, 88, 0
6, 2700, Note_on_c, 6, 86, 119
6, 2728, Note_on_c, 6, 86, 0
6, 2760, Note_on_c, 6, 84, 126
6, 2818, Note_on_c, 6, 84, 0
6, 2820, Note_on_c, 6, 88, 121
6, 2848, Note_on_c, 6, 88, 0
6, 2880, Note_on_c, 6, 86, 121
6, 2908, Note_on_c, 6, 86, 0
6, 2940, Note_on_c, 6, 86, 117
6, 2968, Note_on_c, 6, 86, 0
6, 2970, Note_on_c, 6, 85, 121
6, 2998, Note_on_c, 6, 85, 0
6, 3000, Note_on_c, 6, 86, 115
6, 3028, Note_on_c, 6, 86, 0
6, 3060, Note_on_c, 6, 86, 111
6, 3088, Note_on_c, 6, 86, 0
6, 3120, Note_on_c, 6, 83, 119
6, 3148, Note_on_c, 6, 83, 0
6, 3180, Note_on_c, 6, 81, 112
6, 3208, Note_on_c, 6, 81, 0
6, 3240, Note_on_c, 6, 79, 110
6, 3268, Note_on_c, 6, 79, 0
6, 3300, Note_on_c, 6, 83, 120
6, 3328, Note_on_c, 6, 83, 0
6, 3330, Note_on_c, 6, 86, 94
6, 3358, Note_on_c, 6, 86, 0
6, 3360, Note_on_c, 6, 81, 118
6, 3388, Note_on_c, 6, 81, 0
6, 3420, Note_on_c, 6, 81, 115
6, 3448, Note_on_c, 6, 81, 0
6, 3450, Note_on_c, 6, 86, 94
6, 3478, Note_on_c, 6, 86, 0
6, 3480, Note_on_c, 6, 79, 98
6, 3508, Note_on_c, 6, 79, 0
6, 3540, Note_on_c, 6, 79, 102
6, 3568, Note_on_c, 6, 79, 0
6, 3570, Note_on_c, 6, 86, 92
6, 3598, Note_on_c, 6, 86, 0
6, 3600, Note_on_c, 6, 78, 122
6, 3628, Note_on_c, 6, 78, 0
6, 3660, Note_on_c, 6, 78, 110
6, 3688, Note_on_c, 6, 78, 0
6, 3690, Note_on_c, 6, 86, 98
6, 3718, Note_on_c, 6, 86, 0
6, 3720, Note_on_c, 6, 81, 127
6, 3748, Note_on_c, 6, 81, 0
6, 3780, Note_on_c, 6, 81, 115
6, 3808, Note_on_c, 6, 81, 0
6, 3810, Note_on_c, 6, 86, 102
6, 3838, Note_on_c, 6, 86, 0
6, 3840, Note_on_c, 6, 83, 118
6, 3868, Note_on_c, 6, 83, 0
6, 3900, Note_on_c, 6, 83, 124
6, 3928, Note_on_c, 6, 83, 0
6, 3930, Note_on_c, 6, 86, 106
6, 3958, Note_on_c, 6, 86, 0
6, 3960, Note_on_c, 6, 81, 123
6, 3988, Note_on_c, 6, 81, 0
6, 4020, Note_on_c, 6, 81, 124
6, 4048, Note_on_c, 6, 81, 0
6, 4050, Note_on_c, 6, 86, 103
6, 4078, Note_on_c, 6, 86, 0
6, 4080, Note_on_c, 6, 79, 118
6, 4110, Note_on_c, 6, 79, 0
6, 4140, Note_on_c, 6, 76, 118
6, 4170, Note_on_c, 6, 76, 0
6, 4200, Note_on_c, 6, 79, 127
6, 4260, Note_on_c, 6, 79, 0
6, 4260, End_track
7, 0, Start_track
7, 0, MIDI_port, 0
7, 0, Title_t, "Flute               "
7, 0, Program_c, 7, 73
7, 0, Control_c, 7, 7, 90
7, 0, Control_c, 7, 10, 10
7, 4230, Control_c, 7, 121, 0
7, 4230, Control_c, 7, 0, 0
7, 4230, Program_c, 7, 73
7, 4230, Control_c, 7, 93, 10
7, 4230, Control_c, 7, 91, 100
7, 4230, Note_on_c, 7, 86, 113
7, 4258, Note_on_c, 7, 86, 0
7, 4260, Note_on_c, 7, 88, 113
7, 4288, Note_on_c, 7, 88, 0
7, 4290, Note_on_c, 7, 90, 122
7, 4318, Note_on_c, 7, 90, 0
7, 4320, Note_on_c, 7, 91, 99
7, 4320, Note_on_c, 7, 83, 103
7, 4321, Note_on_c, 7, 83, 0
7, 4321, Note_on_c, 7, 91, 0
7, 4380, Note_on_c, 7, 91, 97
7, 4408, Note_on_c, 7, 91, 0
7, 4410, Note_on_c, 7, 90, 93
7, 4438, Note_on_c, 7, 90, 0
7, 4440, Note_on_c, 7, 91, 119
7, 4468, Note_on_c, 7, 91, 0
7, 4500, Note_on_c, 7, 91, 100
7, 4528, Note_on_c, 7, 91, 0
7, 4560, Note_on_c, 7, 88, 94
7, 4588, Note_on_c, 7, 88, 0
7, 4620, Note_on_c, 7, 86, 105
7, 4648, Note_on_c, 7, 86, 0
7, 4680, Note_on_c, 7, 84, 124
7, 4738, Note_on_c, 7, 84, 0
7, 4740, Note_on_c, 7, 88, 106
7, 4768, Note_on_c, 7, 88, 0
7, 4800, Note_on_c, 7, 86, 106
7, 4828, Note_on_c, 7, 86, 0
7, 4860, Note_on_c, 7, 86, 108
7, 4888, Note_on_c, 7, 86, 0
7, 4890, Note_on_c, 7, 85, 97
7, 4918, Note_on_c, 7, 85, 0
7, 4920, Note_on_c, 7, 86, 126
7, 4948, Note_on_c, 7, 86, 0
7, 4980, Note_on_c, 7, 86, 121
7, 5008, Note_on_c, 7, 86, 0
7, 5040, Note_on_c, 7, 83, 114
7, 5068, Note_on_c, 7, 83, 0
7, 5100, Note_on_c, 7, 81, 126
7, 5128, Note_on_c, 7, 81, 0
7, 5160, Note_on_c, 7, 79, 102
7, 5188, Note_on_c, 7, 79, 0
7, 5220, Note_on_c, 7, 83, 114
7, 5248, Note_on_c, 7, 83, 0
7, 5250, Note_on_c, 7, 86, 96
7, 5278, Note_on_c, 7, 86, 0
7, 5280, Note_on_c, 7, 81, 111
7, 5308, Note_on_c, 7, 81, 0
7, 5340, Note_on_c, 7, 81, 111
7, 5368, Note_on_c, 7, 81, 0
7, 5370, Note_on_c, 7, 86, 93
7, 5398, Note_on_c, 7, 86, 0
7, 5400, Note_on_c, 7, 79, 97
7, 5428, Note_on_c, 7, 79, 0
7, 5460, Note_on_c, 7, 79, 99
7, 5488, Note_on_c, 7, 79, 0
7, 5490, Note_on_c, 7, 86, 100
7, 5518, Note_on_c, 7, 86, 0
7, 5520, Note_on_c, 7, 78, 120
7, 5548, Note_on_c, 7, 78, 0
7, 5580, Note_on_c, 7, 78, 99
7, 5608, Note_on_c, 7, 78, 0
7, 5610, Note_on_c, 7, 86, 90
7, 5640, Note_on_c, 7, 81, 125
7, 5640, Note_on_c, 7, 86, 0
7, 5668, Note_on_c, 7, 81, 0
7, 5700, Note_on_c, 7, 81, 108
7, 5728, Note_on_c, 7, 81, 0
7, 5730, Note_on_c, 7, 86, 94
7, 5758, Note_on_c, 7, 86, 0
7, 5760, Note_on_c, 7, 83, 118
7, 5788, Note_on_c, 7, 83, 0
7, 5820, Note_on_c, 7, 83, 90
7, 5848, Note_on_c, 7, 83, 0
7, 5850, Note_on_c, 7, 86, 82
7, 5878, Note_on_c, 7, 86, 0
7, 5880, Note_on_c, 7, 79, 103
7, 5908, Note_on_c, 7, 79, 0
7, 5940, Note_on_c, 7, 79, 90
7, 5968, Note_on_c, 7, 79, 0
7, 5970, Note_on_c, 7, 86, 102
7, 5998, Note_on_c, 7, 86, 0
7, 6000, Note_on_c, 7, 78, 114
7, 6028, Note_on_c, 7, 78, 0
7, 6060, Note_on_c, 7, 76, 97
7, 6088, Note_on_c, 7, 76, 0
7, 6120, Note_on_c, 7, 78, 110
7, 6148, Note_on_c, 7, 78, 0
7, 6150, Note_on_c, 7, 86, 102
7, 6178, Note_on_c, 7, 86, 0
7, 6180, Note_on_c, 7, 88, 94
7, 6208, Note_on_c, 7, 88, 0
7, 6210, Note_on_c, 7, 90, 99
7, 6238, Note_on_c, 7, 90, 0
7, 6240, Note_on_c, 7, 91, 109
7, 6268, Note_on_c, 7, 91, 0
7, 6300, Note_on_c, 7, 91, 124
7, 6328, Note_on_c, 7, 91, 0
7, 6330, Note_on_c, 7, 90, 115
7, 6358, Note_on_c, 7, 90, 0
7, 6360, Note_on_c, 7, 91, 114
7, 6388, Note_on_c, 7, 91, 0
7, 6420, Note_on_c, 7, 91, 122
7, 6448, Note_on_c, 7, 91, 0
7, 6480, Note_on_c, 7, 88, 111
7, 6508, Note_on_c, 7, 88, 0
7, 6540, Note_on_c, 7, 86, 114
7, 6568, Note_on_c, 7, 86, 0
7, 6600, Note_on_c, 7, 84, 121
7, 6658, Note_on_c, 7, 84, 0
7, 6660, Note_on_c, 7, 88, 116
7, 6688, Note_on_c, 7, 88, 0
7, 6720, Note_on_c, 7, 86, 116
7, 6748, Note_on_c, 7, 86, 0
7, 6780, Note_on_c, 7, 86, 112
7, 6808, Note_on_c, 7, 86, 0
7, 6810, Note_on_c, 7, 85, 116
7, 6838, Note_on_c, 7, 85, 0
7, 6840, Note_on_c, 7, 86, 110
7, 6868, Note_on_c, 7, 86, 0
7, 6900, Note_on_c, 7, 86, 106
7, 6928, Note_on_c, 7, 86, 0
7, 6960, Note_on_c, 7, 83, 114
7, 6988, Note_on_c, 7, 83, 0
7, 7020, Note_on_c, 7, 81, 107
7, 7048, Note_on_c, 7, 81, 0
7, 7080, Note_on_c, 7, 79, 105
7, 7108, Note_on_c, 7, 79, 0
7, 7140, Note_on_c, 7, 83, 115
7, 7168, Note_on_c, 7, 83, 0
7, 7170, Note_on_c, 7, 86, 89
7, 7198, Note_on_c, 7, 86, 0
7, 7200, Note_on_c, 7, 81, 113
7, 7228, Note_on_c, 7, 81, 0
7, 7260, Note_on_c, 7, 81, 110
7, 7288, Note_on_c, 7, 81, 0
7, 7290, Note_on_c, 7, 86, 89
7, 7318, Note_on_c, 7, 86, 0
7, 7320, Note_on_c, 7, 79, 93
7, 7348, Note_on_c, 7, 79, 0
7, 7380, Note_on_c, 7, 79, 97
7, 7408, Note_on_c, 7, 79, 0
7, 7410, Note_on_c, 7, 86, 87
7, 7438, Note_on_c, 7, 86, 0
7, 7440, Note_on_c, 7, 78, 117
7, 7468, Note_on_c, 7, 78, 0
7, 7500, Note_on_c, 7, 78, 105
7, 7528, Note_on_c, 7, 78, 0
7, 7530, Note_on_c, 7, 86, 93
7, 7558, Note_on_c, 7, 86, 0
7, 7560, Note_on_c, 7, 81, 122
7, 7588, Note_on_c, 7, 81, 0
7, 7620, Note_on_c, 7, 81, 110
7, 7648, Note_on_c, 7, 81, 0
7, 7650, Note_on_c, 7, 86, 97
7, 7678, Note_on_c, 7, 86, 0
7, 7680, Note_on_c, 7, 83, 113
7, 7708, Note_on_c, 7, 83, 0
7, 7740, Note_on_c, 7, 83, 119
7, 7768, Note_on_c, 7, 83, 0
7, 7770, Note_on_c, 7, 86, 101
7, 7798, Note_on_c, 7, 86, 0
7, 7800, Note_on_c, 7, 81, 118
7, 7828, Note_on_c, 7, 81, 0
7, 7860, Note_on_c, 7, 81, 119
7, 7888, Note_on_c, 7, 81, 0
7, 7890, Note_on_c, 7, 86, 98
7, 7918, Note_on_c, 7, 86, 0
7, 7920, Note_on_c, 7, 79, 113
7, 7948, Note_on_c, 7, 79, 0
7, 7980, Note_on_c, 7, 76, 113
7, 8008, Note_on_c, 7, 76, 0
7, 8040, Note_on_c, 7, 79, 122
7, 8068, Note_on_c, 7, 79, 0
7, 8068, End_track
8, 0, Start_track
8, 0, MIDI_port, 0
8, 0, Title_t, "Synthstrings1"
8, 0, Program_c, 1, 50
8, 0, Control_c, 1, 7, 110
8, 0, Control_c, 1, 10, 10
8, 480, Control_c, 1, 121, 0
8, 480, Control_c, 1, 0, 0
8, 480, Program_c, 1, 50
8, 480, Control_c, 1, 91, 60
8, 480, Control_c, 1, 93, 10
8, 480, Note_on_c, 1, 62, 97
8, 480, Note_on_c, 1, 55, 94
8, 508, Note_on_c, 1, 55, 0
8, 508, Note_on_c, 1, 62, 0
8, 720, Note_on_c, 1, 72, 98
8, 748, Note_on_c, 1, 72, 0
8, 780, Note_on_c, 1, 71, 97
8, 808, Note_on_c, 1, 71, 0
8, 840, Note_on_c, 1, 69, 110
8, 898, Note_on_c, 1, 69, 0
8, 900, Note_on_c, 1, 72, 100
8, 928, Note_on_c, 1, 72, 0
8, 960, Note_on_c, 1, 67, 108
8, 988, Note_on_c, 1, 67, 0
8, 1200, Note_on_c, 1, 61, 90
8, 1228, Note_on_c, 1, 61, 0
8, 1260, Note_on_c, 1, 60, 89
8, 1288, Note_on_c, 1, 60, 0
8, 1320, Note_on_c, 1, 59, 86
8, 1348, Note_on_c, 1, 59, 0
8, 1380, Note_on_c, 1, 67, 88
8, 1408, Note_on_c, 1, 67, 0
8, 1410, Note_on_c, 1, 71, 88
8, 1438, Note_on_c, 1, 71, 0
8, 1440, Note_on_c, 1, 66, 93
8, 1468, Note_on_c, 1, 66, 0
8, 1500, Note_on_c, 1, 66, 83
8, 1528, Note_on_c, 1, 66, 0
8, 1530, Note_on_c, 1, 69, 88
8, 1558, Note_on_c, 1, 69, 0
8, 1560, Note_on_c, 1, 64, 94
8, 1588, Note_on_c, 1, 64, 0
8, 1620, Note_on_c, 1, 64, 89
8, 1648, Note_on_c, 1, 64, 0
8, 1650, Note_on_c, 1, 67, 83
8, 1678, Note_on_c, 1, 67, 0
8, 1680, Note_on_c, 1, 62, 86
8, 1708, Note_on_c, 1, 62, 0
8, 1740, Note_on_c, 1, 62, 82
8, 1768, Note_on_c, 1, 62, 0
8, 1770, Note_on_c, 1, 66, 84
8, 1798, Note_on_c, 1, 66, 0
8, 1800, Note_on_c, 1, 66, 92
8, 1828, Note_on_c, 1, 66, 0
8, 1860, Note_on_c, 1, 66, 93
8, 1888, Note_on_c, 1, 66, 0
8, 1890, Note_on_c, 1, 69, 95
8, 1918, Note_on_c, 1, 69, 0
8, 1920, Note_on_c, 1, 67, 101
8, 1948, Note_on_c, 1, 67, 0
8, 1980, Note_on_c, 1, 67, 98
8, 2008, Note_on_c, 1, 67, 0
8, 2010, Note_on_c, 1, 71, 88
8, 2038, Note_on_c, 1, 71, 0
8, 2040, Note_on_c, 1, 64, 97
8, 2068, Note_on_c, 1, 64, 0
8, 2100, Note_on_c, 1, 64, 87
8, 2128, Note_on_c, 1, 64, 0
8, 2130, Note_on_c, 1, 67, 93
8, 2158, Note_on_c, 1, 67, 0
8, 2160, Note_on_c, 1, 66, 101
8, 2188, Note_on_c, 1, 66, 0
8, 2220, Note_on_c, 1, 64, 83
8, 2248, Note_on_c, 1, 64, 0
8, 2280, Note_on_c, 1, 66, 100
8, 2308, Note_on_c, 1, 66, 0
8, 2400, Note_on_c, 1, 55, 111
8, 2400, Note_on_c, 1, 62, 106
8, 2428, Note_on_c, 1, 62, 0
8, 2428, Note_on_c, 1, 55, 0
8, 2640, Note_on_c, 1, 72, 106
8, 2668, Note_on_c, 1, 72, 0
8, 2700, Note_on_c, 1, 71, 98
8, 2728, Note_on_c, 1, 71, 0
8, 2760, Note_on_c, 1, 69, 103
8, 2818, Note_on_c, 1, 69, 0
8, 2820, Note_on_c, 1, 72, 103
8, 2848, Note_on_c, 1, 72, 0
8, 2880, Note_on_c, 1, 67, 115
8, 2880, Note_on_c, 1, 74, 115
8, 2908, Note_on_c, 1, 74, 0
8, 2908, Note_on_c, 1, 67, 0
8, 3120, Note_on_c, 1, 61, 103
8, 3148, Note_on_c, 1, 61, 0
8, 3180, Note_on_c, 1, 60, 101
8, 3208, Note_on_c, 1, 60, 0
8, 3240, Note_on_c, 1, 59, 102
8, 3268, Note_on_c, 1, 59, 0
8, 3300, Note_on_c, 1, 67, 96
8, 3328, Note_on_c, 1, 67, 0
8, 3330, Note_on_c, 1, 71, 101
8, 3358, Note_on_c, 1, 71, 0
8, 3360, Note_on_c, 1, 66, 106
8, 3388, Note_on_c, 1, 66, 0
8, 3420, Note_on_c, 1, 66, 93
8, 3448, Note_on_c, 1, 66, 0
8, 3450, Note_on_c, 1, 69, 98
8, 3478, Note_on_c, 1, 69, 0
8, 3480, Note_on_c, 1, 64, 104
8, 3508, Note_on_c, 1, 64, 0
8, 3540, Note_on_c, 1, 64, 94
8, 3568, Note_on_c, 1, 64, 0
8, 3570, Note_on_c, 1, 67, 95
8, 3598, Note_on_c, 1, 67, 0
8, 3600, Note_on_c, 1, 62, 97
8, 3630, Note_on_c, 1, 62, 0
8, 3660, Note_on_c, 1, 62, 94
8, 3688, Note_on_c, 1, 62, 0
8, 3690, Note_on_c, 1, 66, 96
8, 3718, Note_on_c, 1, 66, 0
8, 3720, Note_on_c, 1, 66, 106
8, 3748, Note_on_c, 1, 66, 0
8, 3780, Note_on_c, 1, 66, 113
8, 3808, Note_on_c, 1, 66, 0
8, 3810, Note_on_c, 1, 69, 108
8, 3838, Note_on_c, 1, 69, 0
8, 3840, Note_on_c, 1, 67, 108
8, 3868, Note_on_c, 1, 67, 0
8, 3900, Note_on_c, 1, 67, 115
8, 3928, Note_on_c, 1, 67, 0
8, 3930, Note_on_c, 1, 71, 86
8, 3958, Note_on_c, 1, 71, 0
8, 3960, Note_on_c, 1, 66, 125
8, 3988, Note_on_c, 1, 66, 0
8, 4020, Note_on_c, 1, 66, 115
8, 4048, Note_on_c, 1, 66, 0
8, 4050, Note_on_c, 1, 69, 99
8, 4078, Note_on_c, 1, 69, 0
8, 4080, Note_on_c, 1, 67, 115
8, 4108, Note_on_c, 1, 67, 0
8, 4140, Note_on_c, 1, 64, 102
8, 4168, Note_on_c, 1, 64, 0
8, 4200, Note_on_c, 1, 67, 111
8, 4228, Note_on_c, 1, 67, 0
8, 4320, Note_on_c, 1, 62, 97
8, 4348, Note_on_c, 1, 62, 0
8, 4560, Note_on_c, 1, 72, 98
8, 4588, Note_on_c, 1, 72, 0
8, 4620, Note_on_c, 1, 71, 97
8, 4648, Note_on_c, 1, 71, 0
8, 4680, Note_on_c, 1, 69, 110
8, 4738, Note_on_c, 1, 69, 0
8, 4740, Note_on_c, 1, 72, 100
8, 4768, Note_on_c, 1, 72, 0
8, 4800, Note_on_c, 1, 67, 108
8, 4828, Note_on_c, 1, 67, 0
8, 5040, Note_on_c, 1, 61, 90
8, 5068, Note_on_c, 1, 61, 0
8, 5100, Note_on_c, 1, 60, 89
8, 5128, Note_on_c, 1, 60, 0
8, 5160, Note_on_c, 1, 59, 86
8, 5188, Note_on_c, 1, 59, 0
8, 5220, Note_on_c, 1, 67, 88
8, 5248, Note_on_c, 1, 67, 0
8, 5250, Note_on_c, 1, 71, 88
8, 5278, Note_on_c, 1, 71, 0
8, 5280, Note_on_c, 1, 66, 93
8, 5308, Note_on_c, 1, 66, 0
8, 5340, Note_on_c, 1, 66, 83
8, 5368, Note_on_c, 1, 66, 0
8, 5370, Note_on_c, 1, 69, 88
8, 5398, Note_on_c, 1, 69, 0
8, 5400, Note_on_c, 1, 64, 94
8, 5428, Note_on_c, 1, 64, 0
8, 5460, Note_on_c, 1, 64, 89
8, 5488, Note_on_c, 1, 64, 0
8, 5490, Note_on_c, 1, 67, 83
8, 5518, Note_on_c, 1, 67, 0
8, 5520, Note_on_c, 1, 62, 86
8, 5548, Note_on_c, 1, 62, 0
8, 5580, Note_on_c, 1, 62, 82
8, 5608, Note_on_c, 1, 62, 0
8, 5610, Note_on_c, 1, 66, 84
8, 5638, Note_on_c, 1, 66, 0
8, 5640, Note_on_c, 1, 66, 92
8, 5668, Note_on_c, 1, 66, 0
8, 5700, Note_on_c, 1, 66, 93
8, 5728, Note_on_c, 1, 66, 0
8, 5730, Note_on_c, 1, 69, 95
8, 5758, Note_on_c, 1, 69, 0
8, 5760, Note_on_c, 1, 67, 101
8, 5788, Note_on_c, 1, 67, 0
8, 5820, Note_on_c, 1, 67, 98
8, 5848, Note_on_c, 1, 67, 0
8, 5850, Note_on_c, 1, 71, 88
8, 5878, Note_on_c, 1, 71, 0
8, 5880, Note_on_c, 1, 64, 97
8, 5908, Note_on_c, 1, 64, 0
8, 5940, Note_on_c, 1, 64, 87
8, 5968, Note_on_c, 1, 64, 0
8, 5970, Note_on_c, 1, 67, 93
8, 5998, Note_on_c, 1, 67, 0
8, 6000, Note_on_c, 1, 66, 101
8, 6028, Note_on_c, 1, 66, 0
8, 6060, Note_on_c, 1, 64, 83
8, 6088, Note_on_c, 1, 64, 0
8, 6120, Note_on_c, 1, 66, 100
8, 6148, Note_on_c, 1, 66, 0
8, 6240, Note_on_c, 1, 55, 111
8, 6240, Note_on_c, 1, 62, 106
8, 6268, Note_on_c, 1, 62, 0
8, 6268, Note_on_c, 1, 55, 0
8, 6480, Note_on_c, 1, 72, 106
8, 6508, Note_on_c, 1, 72, 0
8, 6540, Note_on_c, 1, 71, 98
8, 6568, Note_on_c, 1, 71, 0
8, 6600, Note_on_c, 1, 69, 103
8, 6658, Note_on_c, 1, 69, 0
8, 6660, Note_on_c, 1, 72, 103
8, 6688, Note_on_c, 1, 72, 0
8, 6720, Note_on_c, 1, 67, 115
8, 6720, Note_on_c, 1, 74, 115
8, 6748, Note_on_c, 1, 74, 0
8, 6748, Note_on_c, 1, 67, 0
8, 6960, Note_on_c, 1, 61, 103
8, 6988, Note_on_c, 1, 61, 0
8, 7020, Note_on_c, 1, 60, 101
8, 7048, Note_on_c, 1, 60, 0
8, 7080, Note_on_c, 1, 59, 102
8, 7108, Note_on_c, 1, 59, 0
8, 7140, Note_on_c, 1, 67, 96
8, 7168, Note_on_c, 1, 67, 0
8, 7170, Note_on_c, 1, 71, 101
8, 7198, Note_on_c, 1, 71, 0
8, 7200, Note_on_c, 1, 66, 106
8, 7228, Note_on_c, 1, 66, 0
8, 7260, Note_on_c, 1, 66, 93
8, 7288, Note_on_c, 1, 66, 0
8, 7290, Note_on_c, 1, 69, 98
8, 7318, Note_on_c, 1, 69, 0
8, 7320, Note_on_c, 1, 64, 104
8, 7348, Note_on_c, 1, 64, 0
8, 7380, Note_on_c, 1, 64, 94
8, 7408, Note_on_c, 1, 64, 0
8, 7410, Note_on_c, 1, 67, 95
8, 7438, Note_on_c, 1, 67, 0
8, 7440, Note_on_c, 1, 62, 97
8, 7470, Note_on_c, 1, 62, 0
8, 7500, Note_on_c, 1, 62, 94
8, 7528, Note_on_c, 1, 62, 0
8, 7530, Note_on_c, 1, 66, 96
8, 7558, Note_on_c, 1, 66, 0
8, 7560, Note_on_c, 1, 66, 106
8, 7588, Note_on_c, 1, 66, 0
8, 7620, Note_on_c, 1, 66, 113
8, 7648, Note_on_c, 1, 66, 0
8, 7650, Note_on_c, 1, 69, 108
8, 7678, Note_on_c, 1, 69, 0
8, 7680, Note_on_c, 1, 67, 108
8, 7708, Note_on_c, 1, 67, 0
8, 7740, Note_on_c, 1, 67, 115
8, 7768, Note_on_c, 1, 67, 0
8, 7770, Note_on_c, 1, 71, 86
8, 7798, Note_on_c, 1, 71, 0
8, 7800, Note_on_c, 1, 66, 125
8, 7828, Note_on_c, 1, 66, 0
8, 7860, Note_on_c, 1, 66, 115
8, 7888, Note_on_c, 1, 66, 0
8, 7890, Note_on_c, 1, 69, 99
8, 7918, Note_on_c, 1, 69, 0
8, 7920, Note_on_c, 1, 67, 115
8, 7948, Note_on_c, 1, 67, 0
8, 7980, Note_on_c, 1, 64, 102
8, 7980, Note_on_c, 1, 57, 97
8, 8008, Note_on_c, 1, 64, 0
8, 8010, Note_on_c, 1, 57, 0
8, 8040, Note_on_c, 1, 59, 108
8, 8040, Note_on_c, 1, 67, 111
8, 8068, Note_on_c, 1, 67, 0
8, 8068, Note_on_c, 1, 59, 0
8, 8068, End_track
9, 0, Start_track
9, 0, MIDI_port, 0
9, 0, Title_t, "SynthStrings"
9, 0, Program_c, 0, 50
9, 0, Control_c, 0, 7, 110
9, 0, Control_c, 0, 10, 127
9, 480, Control_c, 0, 121, 0
9, 480, Control_c, 0, 0, 0
9, 480, Program_c, 0, 50
9, 480, Control_c, 0, 91, 60
9, 480, Control_c, 0, 93, 10
9, 480, Note_on_c, 0, 79, 104
9, 480, Note_on_c, 0, 71, 108
9, 508, Note_on_c, 0, 71, 0
9, 508, Note_on_c, 0, 79, 0
9, 540, Note_on_c, 0, 79, 102
9, 568, Note_on_c, 0, 79, 0
9, 570, Note_on_c, 0, 78, 98
9, 598, Note_on_c, 0, 78, 0
9, 600, Note_on_c, 0, 79, 124
9, 628, Note_on_c, 0, 79, 0
9, 660, Note_on_c, 0, 79, 105
9, 688, Note_on_c, 0, 79, 0
9, 720, Note_on_c, 0, 76, 99
9, 748, Note_on_c, 0, 76, 0
9, 780, Note_on_c, 0, 74, 110
9, 808, Note_on_c, 0, 74, 0
9, 840, Note_on_c, 0, 72, 127
9, 898, Note_on_c, 0, 72, 0
9, 900, Note_on_c, 0, 76, 111
9, 928, Note_on_c, 0, 76, 0
9, 960, Note_on_c, 0, 74, 111
9, 988, Note_on_c, 0, 74, 0
9, 1020, Note_on_c, 0, 74, 113
9, 1048, Note_on_c, 0, 74, 0
9, 1050, Note_on_c, 0, 73, 102
9, 1078, Note_on_c, 0, 73, 0
9, 1080, Note_on_c, 0, 74, 127
9, 1108, Note_on_c, 0, 74, 0
9, 1140, Note_on_c, 0, 74, 126
9, 1168, Note_on_c, 0, 74, 0
9, 1200, Note_on_c, 0, 71, 119
9, 1228, Note_on_c, 0, 71, 0
9, 1260, Note_on_c, 0, 69, 127
9, 1288, Note_on_c, 0, 69, 0
9, 1320, Note_on_c, 0, 67, 107
9, 1348, Note_on_c, 0, 67, 0
9, 1380, Note_on_c, 0, 71, 119
9, 1408, Note_on_c, 0, 71, 0
9, 1410, Note_on_c, 0, 74, 101
9, 1438, Note_on_c, 0, 74, 0
9, 1440, Note_on_c, 0, 69, 116
9, 1468, Note_on_c, 0, 69, 0
9, 1500, Note_on_c, 0, 69, 116
9, 1528, Note_on_c, 0, 69, 0
9, 1530, Note_on_c, 0, 74, 98
9, 1558, Note_on_c, 0, 74, 0
9, 1560, Note_on_c, 0, 67, 102
9, 1588, Note_on_c, 0, 67, 0
9, 1620, Note_on_c, 0, 67, 104
9, 1648, Note_on_c, 0, 67, 0
9, 1650, Note_on_c, 0, 74, 105
9, 1678, Note_on_c, 0, 74, 0
9, 1680, Note_on_c, 0, 66, 125
9, 1708, Note_on_c, 0, 66, 0
9, 1740, Note_on_c, 0, 66, 104
9, 1768, Note_on_c, 0, 66, 0
9, 1770, Note_on_c, 0, 74, 95
9, 1800, Note_on_c, 0, 69, 127
9, 1800, Note_on_c, 0, 74, 0
9, 1828, Note_on_c, 0, 69, 0
9, 1860, Note_on_c, 0, 69, 113
9, 1888, Note_on_c, 0, 69, 0
9, 1890, Note_on_c, 0, 74, 99
9, 1918, Note_on_c, 0, 74, 0
9, 1920, Note_on_c, 0, 71, 123
9, 1948, Note_on_c, 0, 71, 0
9, 1980, Note_on_c, 0, 71, 95
9, 2008, Note_on_c, 0, 71, 0
9, 2010, Note_on_c, 0, 74, 87
9, 2038, Note_on_c, 0, 74, 0
9, 2040, Note_on_c, 0, 67, 108
9, 2068, Note_on_c, 0, 67, 0
9, 2100, Note_on_c, 0, 67, 95
9, 2128, Note_on_c, 0, 67, 0
9, 2130, Note_on_c, 0, 74, 107
9, 2158, Note_on_c, 0, 74, 0
9, 2160, Note_on_c, 0, 66, 119
9, 2188, Note_on_c, 0, 66, 0
9, 2220, Note_on_c, 0, 64, 102
9, 2248, Note_on_c, 0, 64, 0
9, 2280, Note_on_c, 0, 66, 115
9, 2308, Note_on_c, 0, 66, 0
9, 2310, Note_on_c, 0, 74, 107
9, 2338, Note_on_c, 0, 74, 0
9, 2340, Note_on_c, 0, 76, 99
9, 2368, Note_on_c, 0, 76, 0
9, 2370, Note_on_c, 0, 78, 104
9, 2398, Note_on_c, 0, 78, 0
9, 2400, Note_on_c, 0, 79, 114
9, 2428, Note_on_c, 0, 79, 0
9, 2460, Note_on_c, 0, 79, 127
9, 2488, Note_on_c, 0, 79, 0
9, 2490, Note_on_c, 0, 78, 120
9, 2518, Note_on_c, 0, 78, 0
9, 2520, Note_on_c, 0, 79, 119
9, 2548, Note_on_c, 0, 79, 0
9, 2580, Note_on_c, 0, 79, 127
9, 2608, Note_on_c, 0, 79, 0
9, 2640, Note_on_c, 0, 76, 116
9, 2668, Note_on_c, 0, 76, 0
9, 2700, Note_on_c, 0, 74, 119
9, 2728, Note_on_c, 0, 74, 0
9, 2760, Note_on_c, 0, 72, 126
9, 2818, Note_on_c, 0, 72, 0
9, 2820, Note_on_c, 0, 76, 121
9, 2848, Note_on_c, 0, 76, 0
9, 2880, Note_on_c, 0, 74, 121
9, 2908, Note_on_c, 0, 74, 0
9, 2940, Note_on_c, 0, 74, 117
9, 2968, Note_on_c, 0, 74, 0
9, 2970, Note_on_c, 0, 73, 121
9, 2998, Note_on_c, 0, 73, 0
9, 3000, Note_on_c, 0, 74, 115
9, 3028, Note_on_c, 0, 74, 0
9, 3060, Note_on_c, 0, 74, 111
9, 3088, Note_on_c, 0, 74, 0
9, 3120, Note_on_c, 0, 71, 119
9, 3148, Note_on_c, 0, 71, 0
9, 3180, Note_on_c, 0, 69, 112
9, 3208, Note_on_c, 0, 69, 0
9, 3240, Note_on_c, 0, 67, 110
9, 3268, Note_on_c, 0, 67, 0
9, 3300, Note_on_c, 0, 71, 120
9, 3328, Note_on_c, 0, 71, 0
9, 3330, Note_on_c, 0, 74, 94
9, 3358, Note_on_c, 0, 74, 0
9, 3360, Note_on_c, 0, 69, 118
9, 3388, Note_on_c, 0, 69, 0
9, 3420, Note_on_c, 0, 69, 115
9, 3448, Note_on_c, 0, 69, 0
9, 3450, Note_on_c, 0, 74, 94
9, 3478, Note_on_c, 0, 74, 0
9, 3480, Note_on_c, 0, 67, 98
9, 3508, Note_on_c, 0, 67, 0
9, 3540, Note_on_c, 0, 67, 102
9, 3568, Note_on_c, 0, 67, 0
9, 3570, Note_on_c, 0, 74, 92
9, 3598, Note_on_c, 0, 74, 0
9, 3600, Note_on_c, 0, 66, 122
9, 3628, Note_on_c, 0, 66, 0
9, 3660, Note_on_c, 0, 66, 110
9, 3688, Note_on_c, 0, 66, 0
9, 3690, Note_on_c, 0, 74, 98
9, 3718, Note_on_c, 0, 74, 0
9, 3720, Note_on_c, 0, 69, 127
9, 3748, Note_on_c, 0, 69, 0
9, 3780, Note_on_c, 0, 69, 115
9, 3808, Note_on_c, 0, 69, 0
9, 3810, Note_on_c, 0, 74, 102
9, 3838, Note_on_c, 0, 74, 0
9, 3840, Note_on_c, 0, 71, 118
9, 3868, Note_on_c, 0, 71, 0
9, 3900, Note_on_c, 0, 71, 124
9, 3928, Note_on_c, 0, 71, 0
9, 3930, Note_on_c, 0, 74, 106
9, 3958, Note_on_c, 0, 74, 0
9, 3960, Note_on_c, 0, 69, 123
9, 3988, Note_on_c, 0, 69, 0
9, 4020, Note_on_c, 0, 69, 124
9, 4048, Note_on_c, 0, 69, 0
9, 4050, Note_on_c, 0, 74, 103
9, 4078, Note_on_c, 0, 74, 0
9, 4080, Note_on_c, 0, 67, 118
9, 4108, Note_on_c, 0, 67, 0
9, 4140, Note_on_c, 0, 64, 118
9, 4168, Note_on_c, 0, 64, 0
9, 4200, Note_on_c, 0, 67, 127
9, 4228, Note_on_c, 0, 67, 0
9, 4320, Note_on_c, 0, 79, 104
9, 4320, Note_on_c, 0, 71, 108
9, 4348, Note_on_c, 0, 71, 0
9, 4348, Note_on_c, 0, 79, 0
9, 4380, Note_on_c, 0, 79, 102
9, 4408, Note_on_c, 0, 79, 0
9, 4410, Note_on_c, 0, 78, 98
9, 4438, Note_on_c, 0, 78, 0
9, 4440, Note_on_c, 0, 79, 124
9, 4468, Note_on_c, 0, 79, 0
9, 4500, Note_on_c, 0, 79, 105
9, 4528, Note_on_c, 0, 79, 0
9, 4560, Note_on_c, 0, 76, 99
9, 4588, Note_on_c, 0, 76, 0
9, 4620, Note_on_c, 0, 74, 110
9, 4648, Note_on_c, 0, 74, 0
9, 4680, Note_on_c, 0, 72, 127
9, 4738, Note_on_c, 0, 72, 0
9, 4740, Note_on_c, 0, 76, 111
9, 4768, Note_on_c, 0, 76, 0
9, 4800, Note_on_c, 0, 74, 111
9, 4828, Note_on_c, 0, 74, 0
9, 4860, Note_on_c, 0, 74, 113
9, 4888, Note_on_c, 0, 74, 0
9, 4890, Note_on_c, 0, 73, 102
9, 4918, Note_on_c, 0, 73, 0
9, 4920, Note_on_c, 0, 74, 127
9, 4948, Note_on_c, 0, 74, 0
9, 4980, Note_on_c, 0, 74, 126
9, 5008, Note_on_c, 0, 74, 0
9, 5040, Note_on_c, 0, 71, 119
9, 5068, Note_on_c, 0, 71, 0
9, 5100, Note_on_c, 0, 69, 127
9, 5128, Note_on_c, 0, 69, 0
9, 5160, Note_on_c, 0, 67, 107
9, 5188, Note_on_c, 0, 67, 0
9, 5220, Note_on_c, 0, 71, 119
9, 5248, Note_on_c, 0, 71, 0
9, 5250, Note_on_c, 0, 74, 101
9, 5278, Note_on_c, 0, 74, 0
9, 5280, Note_on_c, 0, 69, 116
9, 5308, Note_on_c, 0, 69, 0
9, 5340, Note_on_c, 0, 69, 116
9, 5368, Note_on_c, 0, 69, 0
9, 5370, Note_on_c, 0, 74, 98
9, 5398, Note_on_c, 0, 74, 0
9, 5400, Note_on_c, 0, 67, 102
9, 5428, Note_on_c, 0, 67, 0
9, 5460, Note_on_c, 0, 67, 104
9, 5488, Note_on_c, 0, 67, 0
9, 5490, Note_on_c, 0, 74, 105
9, 5518, Note_on_c, 0, 74, 0
9, 5520, Note_on_c, 0, 66, 125
9, 5548, Note_on_c, 0, 66, 0
9, 5580, Note_on_c, 0, 66, 104
9, 5608, Note_on_c, 0, 66, 0
9, 5610, Note_on_c, 0, 74, 95
9, 5640, Note_on_c, 0, 69, 127
9, 5640, Note_on_c, 0, 74, 0
9, 5668, Note_on_c, 0, 69, 0
9, 5700, Note_on_c, 0, 69, 113
9, 5728, Note_on_c, 0, 69, 0
9, 5730, Note_on_c, 0, 74, 99
9, 5758, Note_on_c, 0, 74, 0
9, 5760, Note_on_c, 0, 71, 123
9, 5788, Note_on_c, 0, 71, 0
9, 5820, Note_on_c, 0, 71, 95
9, 5848, Note_on_c, 0, 71, 0
9, 5850, Note_on_c, 0, 74, 87
9, 5878, Note_on_c, 0, 74, 0
9, 5880, Note_on_c, 0, 67, 108
9, 5908, Note_on_c, 0, 67, 0
9, 5940, Note_on_c, 0, 67, 95
9, 5968, Note_on_c, 0, 67, 0
9, 5970, Note_on_c, 0, 74, 107
9, 5998, Note_on_c, 0, 74, 0
9, 6000, Note_on_c, 0, 66, 119
9, 6028, Note_on_c, 0, 66, 0
9, 6060, Note_on_c, 0, 64, 102
9, 6088, Note_on_c, 0, 64, 0
9, 6120, Note_on_c, 0, 66, 115
9, 6148, Note_on_c, 0, 66, 0
9, 6150, Note_on_c, 0, 74, 107
9, 6178, Note_on_c, 0, 74, 0
9, 6180, Note_on_c, 0, 76, 99
9, 6208, Note_on_c, 0, 76, 0
9, 6210, Note_on_c, 0, 78, 104
9, 6238, Note_on_c, 0, 78, 0
9, 6240, Note_on_c, 0, 79, 114
9, 6268, Note_on_c, 0, 79, 0
9, 6300, Note_on_c, 0, 79, 127
9, 6328, Note_on_c, 0, 79, 0
9, 6330, Note_on_c, 0, 78, 120
9, 6358, Note_on_c, 0, 78, 0
9, 6360, Note_on_c, 0, 79, 119
9, 6388, Note_on_c, 0, 79, 0
9, 6420, Note_on_c, 0, 79, 127
9, 6448, Note_on_c, 0, 79, 0
9, 6480, Note_on_c, 0, 76, 116
9, 6508, Note_on_c, 0, 76, 0
9, 6540, Note_on_c, 0, 74, 119
9, 6568, Note_on_c, 0, 74, 0
9, 6600, Note_on_c, 0, 72, 126
9, 6658, Note_on_c, 0, 72, 0
9, 6660, Note_on_c, 0, 76, 121
9, 6688, Note_on_c, 0, 76, 0
9, 6720, Note_on_c, 0, 74, 121
9, 6748, Note_on_c, 0, 74, 0
9, 6780, Note_on_c, 0, 74, 117
9, 6808, Note_on_c, 0, 74, 0
9, 6810, Note_on_c, 0, 73, 121
9, 6838, Note_on_c, 0, 73, 0
9, 6840, Note_on_c, 0, 74, 115
9, 6868, Note_on_c, 0, 74, 0
9, 6900, Note_on_c, 0, 74, 111
9, 6928, Note_on_c, 0, 74, 0
9, 6960, Note_on_c, 0, 71, 119
9, 6988, Note_on_c, 0, 71, 0
9, 7020, Note_on_c, 0, 69, 112
9, 7048, Note_on_c, 0, 69, 0
9, 7080, Note_on_c, 0, 67, 110
9, 7108, Note_on_c, 0, 67, 0
9, 7140, Note_on_c, 0, 71, 120
9, 7168, Note_on_c, 0, 71, 0
9, 7170, Note_on_c, 0, 74, 94
9, 7198, Note_on_c, 0, 74, 0
9, 7200, Note_on_c, 0, 69, 118
9, 7228, Note_on_c, 0, 69, 0
9, 7260, Note_on_c, 0, 69, 115
9, 7288, Note_on_c, 0, 69, 0
9, 7290, Note_on_c, 0, 74, 94
9, 7318, Note_on_c, 0, 74, 0
9, 7320, Note_on_c, 0, 67, 98
9, 7348, Note_on_c, 0, 67, 0
9, 7380, Note_on_c, 0, 67, 102
9, 7408, Note_on_c, 0, 67, 0
9, 7410, Note_on_c, 0, 74, 92
9, 7438, Note_on_c, 0, 74, 0
9, 7440, Note_on_c, 0, 66, 122
9, 7468, Note_on_c, 0, 66, 0
9, 7500, Note_on_c, 0, 66, 110
9, 7528, Note_on_c, 0, 66, 0
9, 7530, Note_on_c, 0, 74, 98
9, 7558, Note_on_c, 0, 74, 0
9, 7560, Note_on_c, 0, 69, 127
9, 7588, Note_on_c, 0, 69, 0
9, 7620, Note_on_c, 0, 69, 115
9, 7648, Note_on_c, 0, 69, 0
9, 7650, Note_on_c, 0, 74, 102
9, 7678, Note_on_c, 0, 74, 0
9, 7680, Note_on_c, 0, 71, 118
9, 7708, Note_on_c, 0, 71, 0
9, 7740, Note_on_c, 0, 71, 124
9, 7768, Note_on_c, 0, 71, 0
9, 7770, Note_on_c, 0, 74, 106
9, 7798, Note_on_c, 0, 74, 0
9, 7800, Note_on_c, 0, 69, 123
9, 7828, Note_on_c, 0, 69, 0
9, 7860, Note_on_c, 0, 69, 124
9, 7888, Note_on_c, 0, 69, 0
9, 7890, Note_on_c, 0, 74, 103
9, 7918, Note_on_c, 0, 74, 0
9, 7920, Note_on_c, 0, 67, 118
9, 7948, Note_on_c, 0, 67, 0
9, 7980, Note_on_c, 0, 64, 118
9, 8008, Note_on_c, 0, 64, 0
9, 8040, Note_on_c, 0, 67, 127
9, 8068, Note_on_c, 0, 67, 0
9, 8068, End_track
10, 0, Start_track
10, 0, MIDI_port, 0
10, 0, Title_t, "Timpani"
10, 0, Program_c, 8, 47
10, 0, Control_c, 8, 7, 100
10, 0, Control_c, 8, 10, 100
10, 480, Control_c, 8, 121, 0
10, 480, Control_c, 8, 0, 0
10, 480, Program_c, 8, 47
10, 480, Control_c, 8, 91, 30
10, 480, Note_on_c, 8, 43, 110
10, 570, Note_on_c, 8, 43, 0
10, 960, Note_on_c, 8, 43, 120
10, 1050, Note_on_c, 8, 43, 0
10, 1500, Note_on_c, 8, 43, 110
10, 1500, Note_on_c, 8, 50, 110
10, 1560, Note_on_c, 8, 50, 0
10, 1560, Note_on_c, 8, 43, 0
10, 1620, Note_on_c, 8, 43, 110
10, 1620, Note_on_c, 8, 50, 110
10, 1680, Note_on_c, 8, 50, 0
10, 1680, Note_on_c, 8, 43, 0
10, 1740, Note_on_c, 8, 43, 110
10, 1740, Note_on_c, 8, 50, 110
10, 1800, Note_on_c, 8, 50, 0
10, 1800, Note_on_c, 8, 43, 0
10, 1860, Note_on_c, 8, 43, 110
10, 1860, Note_on_c, 8, 50, 110
10, 1920, Note_on_c, 8, 50, 0
10, 1920, Note_on_c, 8, 43, 0
10, 1980, Note_on_c, 8, 43, 110
10, 1980, Note_on_c, 8, 50, 110
10, 2040, Note_on_c, 8, 50, 0
10, 2040, Note_on_c, 8, 43, 0
10, 2100, Note_on_c, 8, 43, 110
10, 2100, Note_on_c, 8, 50, 110
10, 2160, Note_on_c, 8, 50, 0
10, 2160, Note_on_c, 8, 43, 0
10, 2220, Note_on_c, 8, 43, 110
10, 2280, Note_on_c, 8, 50, 110
10, 2280, Note_on_c, 8, 43, 110
10, 2280, Note_on_c, 8, 43, 0
10, 2340, Note_on_c, 8, 43, 0
10, 2340, Note_on_c, 8, 50, 0
10, 2400, Note_on_c, 8, 43, 110
10, 2490, Note_on_c, 8, 43, 0
10, 2880, Note_on_c, 8, 43, 120
10, 2970, Note_on_c, 8, 43, 0
10, 3420, Note_on_c, 8, 43, 110
10, 3420, Note_on_c, 8, 50, 110
10, 3480, Note_on_c, 8, 50, 0
10, 3480, Note_on_c, 8, 43, 0
10, 3540, Note_on_c, 8, 43, 110
10, 3540, Note_on_c, 8, 50, 110
10, 3600, Note_on_c, 8, 50, 0
10, 3600, Note_on_c, 8, 43, 0
10, 3660, Note_on_c, 8, 43, 110
10, 3660, Note_on_c, 8, 50, 110
10, 3720, Note_on_c, 8, 50, 0
10, 3720, Note_on_c, 8, 43, 0
10, 3780, Note_on_c, 8, 43, 110
10, 3780, Note_on_c, 8, 50, 110
10, 3840, Note_on_c, 8, 50, 0
10, 3840, Note_on_c, 8, 43, 0
10, 3900, Note_on_c, 8, 43, 110
10, 3900, Note_on_c, 8, 50, 110
10, 3960, Note_on_c, 8, 50, 0
10, 3960, Note_on_c, 8, 43, 0
10, 4020, Note_on_c, 8, 43, 110
10, 4020, Note_on_c, 8, 50, 110
10, 4080, Note_on_c, 8, 50, 0
10, 4080, Note_on_c, 8, 43, 0
10, 4140, Note_on_c, 8, 43, 110
10, 4200, Note_on_c, 8, 50, 110
10, 4200, Note_on_c, 8, 43, 110
10, 4200, Note_on_c, 8, 43, 0
10, 4260, Note_on_c, 8, 43, 0
10, 4260, Note_on_c, 8, 50, 0
10, 4320, Note_on_c, 8, 43, 110
10, 4410, Note_on_c, 8, 43, 0
10, 4800, Note_on_c, 8, 43, 120
10, 4890, Note_on_c, 8, 43, 0
10, 5340, Note_on_c, 8, 43, 110
10, 5340, Note_on_c, 8, 50, 110
10, 5400, Note_on_c, 8, 50, 0
10, 5400, Note_on_c, 8, 43, 0
10, 5460, Note_on_c, 8, 43, 110
10, 5460, Note_on_c, 8, 50, 110
10, 5520, Note_on_c, 8, 50, 0
10, 5520, Note_on_c, 8, 43, 0
10, 5580, Note_on_c, 8, 43, 110
10, 5580, Note_on_c, 8, 50, 110
10, 5640, Note_on_c, 8, 50, 0
10, 5640, Note_on_c, 8, 43, 0
10, 5700, Note_on_c, 8, 43, 110
10, 5700, Note_on_c, 8, 50, 110
10, 5760, Note_on_c, 8, 50, 0
10, 5760, Note_on_c, 8, 43, 0
10, 5820, Note_on_c, 8, 43, 110
10, 5820, Note_on_c, 8, 50, 110
10, 5880, Note_on_c, 8, 50, 0
10, 5880, Note_on_c, 8, 43, 0
10, 5940, Note_on_c, 8, 43, 110
10, 5940, Note_on_c, 8, 50, 110
10, 6000, Note_on_c, 8, 50, 0
10, 6000, Note_on_c, 8, 43, 0
10, 6060, Note_on_c, 8, 43, 110
10, 6120, Note_on_c, 8, 50, 110
10, 6120, Note_on_c, 8, 43, 110
10, 6120, Note_on_c, 8, 43, 0
10, 6180, Note_on_c, 8, 43, 0
10, 6180, Note_on_c, 8, 50, 0
10, 6240, Note_on_c, 8, 43, 110
10, 6330, Note_on_c, 8, 43, 0
10, 6720, Note_on_c, 8, 43, 120
10, 6810, Note_on_c, 8, 43, 0
10, 7260, Note_on_c, 8, 43, 110
10, 7260, Note_on_c, 8, 50, 110
10, 7320, Note_on_c, 8, 50, 0
10, 7320, Note_on_c, 8, 43, 0
10, 7380, Note_on_c, 8, 43, 110
10, 7380, Note_on_c, 8, 50, 110
10, 7440, Note_on_c, 8, 50, 0
10, 7440, Note_on_c, 8, 43, 0
10, 7500, Note_on_c, 8, 43, 110
10, 7500, Note_on_c, 8, 50, 110
10, 7560, Note_on_c, 8, 50, 0
10, 7560, Note_on_c, 8, 43, 0
10, 7620, Note_on_c, 8, 43, 110
10, 7620, Note_on_c, 8, 50, 110
10, 7680, Note_on_c, 8, 50, 0
10, 7680, Note_on_c, 8, 43, 0
10, 7740, Note_on_c, 8, 43, 110
10, 7740, Note_on_c, 8, 50, 110
10, 7800, Note_on_c, 8, 50, 0
10, 7800, Note_on_c, 8, 43, 0
10, 7860, Note_on_c, 8, 43, 110
10, 7860, Note_on_c, 8, 50, 110
10, 7920, Note_on_c, 8, 50, 0
10, 7920, Note_on_c, 8, 43, 0
10, 7980, Note_on_c, 8, 43, 110
10, 8040, Note_on_c, 8, 50, 110
10, 8040, Note_on_c, 8, 43, 110
10, 8040, Note_on_c, 8, 43, 0
10, 8100, Note_on_c, 8, 43, 0
10, 8100, Note_on_c, 8, 50, 0
10, 8100, End_track
11, 0, Start_track
11, 0, MIDI_port, 0
11, 0, Title_t, "Creative Labs Inc.(c)  1994   "
11, 0, End_track
12, 0, Start_track
12, 0, MIDI_port, 0
12, 0, Title_t, "Recorded by Dr. Chew"
12, 0, End_track
13, 0, Start_track
13, 0, MIDI_port, 0
13, 0, Title_t, "Trepak Dance        "
13, 0, End_track
14, 0, Start_track
14, 0, MIDI_port, 0
14, 0, Title_t, "by Tchaikovsky      "
14, 0, End_track
15, 0, Start_track
15, 0, MIDI_port, 0
15, 0, Title_t, "fr Nutcracker       "
15, 0, End_track
16, 0, Start_track
16, 0, MIDI_port, 0
16, 0, Title_t, "Drum"
16, 0, Program_c, 9, 0
16, 0, Control_c, 9, 7, 110
16, 0, Control_c, 9, 10, 64
16, 480, Note_on_c, 9, 49, 120
16, 480, Note_on_c, 9, 54, 110
16, 480, Note_on_c, 9, 54, 110
16, 495, Note_on_c, 9, 54, 0
16, 495, Note_on_c, 9, 54, 0
16, 510, Note_on_c, 9, 54, 120
16, 510, Note_on_c, 9, 54, 120
16, 525, Note_on_c, 9, 54, 0
16, 525, Note_on_c, 9, 54, 0
16, 540, Note_on_c, 9, 54, 120
16, 540, Note_on_c, 9, 54, 120
16, 555, Note_on_c, 9, 54, 0
16, 555, Note_on_c, 9, 54, 0
16, 570, Note_on_c, 9, 54, 120
16, 585, Note_on_c, 9, 54, 0
16, 600, Note_on_c, 9, 54, 120
16, 600, Note_on_c, 9, 49, 0
16, 615, Note_on_c, 9, 54, 0
16, 630, Note_on_c, 9, 54, 120
16, 645, Note_on_c, 9, 54, 0
16, 660, Note_on_c, 9, 54, 120
16, 675, Note_on_c, 9, 54, 0
16, 690, Note_on_c, 9, 54, 120
16, 705, Note_on_c, 9, 54, 0
16, 960, Note_on_c, 9, 49, 120
16, 960, Note_on_c, 9, 54, 110
16, 960, Note_on_c, 9, 54, 110
16, 975, Note_on_c, 9, 54, 0
16, 975, Note_on_c, 9, 54, 0
16, 990, Note_on_c, 9, 54, 120
16, 990, Note_on_c, 9, 54, 120
16, 1005, Note_on_c, 9, 54, 0
16, 1005, Note_on_c, 9, 54, 0
16, 1020, Note_on_c, 9, 54, 120
16, 1020, Note_on_c, 9, 54, 120
16, 1035, Note_on_c, 9, 54, 0
16, 1035, Note_on_c, 9, 54, 0
16, 1050, Note_on_c, 9, 54, 120
16, 1050, Note_on_c, 9, 54, 120
16, 1065, Note_on_c, 9, 54, 0
16, 1065, Note_on_c, 9, 54, 0
16, 1080, Note_on_c, 9, 54, 120
16, 1080, Note_on_c, 9, 49, 0
16, 1095, Note_on_c, 9, 54, 0
16, 1110, Note_on_c, 9, 54, 120
16, 1125, Note_on_c, 9, 54, 0
16, 1140, Note_on_c, 9, 54, 120
16, 1155, Note_on_c, 9, 54, 0
16, 1170, Note_on_c, 9, 54, 120
16, 1185, Note_on_c, 9, 54, 0
16, 1440, Note_on_c, 9, 54, 120
16, 1470, Note_on_c, 9, 54, 0
16, 1560, Note_on_c, 9, 54, 120
16, 1590, Note_on_c, 9, 54, 0
16, 1680, Note_on_c, 9, 54, 120
16, 1710, Note_on_c, 9, 54, 0
16, 1800, Note_on_c, 9, 54, 120
16, 1830, Note_on_c, 9, 54, 0
16, 1920, Note_on_c, 9, 54, 120
16, 1950, Note_on_c, 9, 54, 0
16, 2040, Note_on_c, 9, 54, 120
16, 2070, Note_on_c, 9, 54, 0
16, 2160, Note_on_c, 9, 49, 120
16, 2160, Note_on_c, 9, 54, 120
16, 2190, Note_on_c, 9, 54, 0
16, 2190, Note_on_c, 9, 49, 0
16, 2280, Note_on_c, 9, 49, 120
16, 2280, Note_on_c, 9, 54, 120
16, 2310, Note_on_c, 9, 54, 0
16, 2310, Note_on_c, 9, 49, 0
16, 2400, Note_on_c, 9, 49, 120
16, 2400, Note_on_c, 9, 54, 110
16, 2400, Note_on_c, 9, 54, 110
16, 2415, Note_on_c, 9, 54, 0
16, 2415, Note_on_c, 9, 54, 0
16, 2430, Note_on_c, 9, 54, 120
16, 2430, Note_on_c, 9, 54, 120
16, 2445, Note_on_c, 9, 54, 0
16, 2445, Note_on_c, 9, 54, 0
16, 2460, Note_on_c, 9, 54, 120
16, 2460, Note_on_c, 9, 54, 120
16, 2475, Note_on_c, 9, 54, 0
16, 2475, Note_on_c, 9, 54, 0
16, 2490, Note_on_c, 9, 54, 120
16, 2505, Note_on_c, 9, 54, 0
16, 2520, Note_on_c, 9, 54, 120
16, 2520, Note_on_c, 9, 49, 0
16, 2535, Note_on_c, 9, 54, 0
16, 2550, Note_on_c, 9, 54, 120
16, 2565, Note_on_c, 9, 54, 0
16, 2580, Note_on_c, 9, 54, 120
16, 2595, Note_on_c, 9, 54, 0
16, 2610, Note_on_c, 9, 54, 120
16, 2625, Note_on_c, 9, 54, 0
16, 2880, Note_on_c, 9, 49, 120
16, 2880, Note_on_c, 9, 54, 110
16, 2880, Note_on_c, 9, 54, 110
16, 2895, Note_on_c, 9, 54, 0
16, 2895, Note_on_c, 9, 54, 0
16, 2910, Note_on_c, 9, 54, 120
16, 2910, Note_on_c, 9, 54, 120
16, 2925, Note_on_c, 9, 54, 0
16, 2925, Note_on_c, 9, 54, 0
16, 2940, Note_on_c, 9, 54, 120
16, 2940, Note_on_c, 9, 54, 120
16, 2955, Note_on_c, 9, 54, 0
16, 2955, Note_on_c, 9, 54, 0
16, 2970, Note_on_c, 9, 54, 120
16, 2970, Note_on_c, 9, 54, 120
16, 2985, Note_on_c, 9, 54, 0
16, 2985, Note_on_c, 9, 54, 0
16, 3000, Note_on_c, 9, 54, 120
16, 3000, Note_on_c, 9, 49, 0
16, 3015, Note_on_c, 9, 54, 0
16, 3030, Note_on_c, 9, 54, 120
16, 3045, Note_on_c, 9, 54, 0
16, 3060, Note_on_c, 9, 54, 120
16, 3075, Note_on_c, 9, 54, 0
16, 3090, Note_on_c, 9, 54, 120
16, 3105, Note_on_c, 9, 54, 0
16, 3360, Note_on_c, 9, 54, 120
16, 3390, Note_on_c, 9, 54, 0
16, 3480, Note_on_c, 9, 54, 120
16, 3510, Note_on_c, 9, 54, 0
16, 3600, Note_on_c, 9, 54, 120
16, 3630, Note_on_c, 9, 54, 0
16, 3720, Note_on_c, 9, 54, 120
16, 3750, Note_on_c, 9, 54, 0
16, 3840, Note_on_c, 9, 54, 120
16, 3870, Note_on_c, 9, 54, 0
16, 3960, Note_on_c, 9, 54, 120
16, 3990, Note_on_c, 9, 54, 0
16, 4080, Note_on_c, 9, 49, 120
16, 4080, Note_on_c, 9, 54, 120
16, 4110, Note_on_c, 9, 54, 0
16, 4110, Note_on_c, 9, 49, 0
16, 4200, Note_on_c, 9, 49, 120
16, 4200, Note_on_c, 9, 54, 120
16, 4230, Note_on_c, 9, 54, 0
16, 4230, Note_on_c, 9, 49, 0
16, 4320, Note_on_c, 9, 49, 120
16, 4320, Note_on_c, 9, 54, 110
16, 4320, Note_on_c, 9, 54, 110
16, 4335, Note_on_c, 9, 54, 0
16, 4335, Note_on_c, 9, 54, 0
16, 4350, Note_on_c, 9, 54, 120
16, 4350, Note_on_c, 9, 54, 120
16, 4365, Note_on_c, 9, 54, 0
16, 4365, Note_on_c, 9, 54, 0
16, 4380, Note_on_c, 9, 54, 120
16, 4380, Note_on_c, 9, 54, 120
16, 4395, Note_on_c, 9, 54, 0
16, 4395, Note_on_c, 9, 54, 0
16, 4410, Note_on_c, 9, 54, 120
16, 4425, Note_on_c, 9, 54, 0
16, 4440, Note_on_c, 9, 54, 120
16, 4440, Note_on_c, 9, 49, 0
16, 4455, Note_on_c, 9, 54, 0
16, 4470, Note_on_c, 9, 54, 120
16, 4485, Note_on_c, 9, 54, 0
16, 4500, Note_on_c, 9, 54, 120
16, 4515, Note_on_c, 9, 54, 0
16, 4530, Note_on_c, 9, 54, 120
16, 4545, Note_on_c, 9, 54, 0
16, 4800, Note_on_c, 9, 49, 120
16, 4800, Note_on_c, 9, 54, 110
16, 4800, Note_on_c, 9, 54, 110
16, 4815, Note_on_c, 9, 54, 0
16, 4815, Note_on_c, 9, 54, 0
16, 4830, Note_on_c, 9, 54, 120
16, 4830, Note_on_c, 9, 54, 120
16, 4845, Note_on_c, 9, 54, 0
16, 4845, Note_on_c, 9, 54, 0
16, 4860, Note_on_c, 9, 54, 120
16, 4860, Note_on_c, 9, 54, 120
16, 4875, Note_on_c, 9, 54, 0
16, 4875, Note_on_c, 9, 54, 0
16, 4890, Note_on_c, 9, 54, 120
16, 4890, Note_on_c, 9, 54, 120
16, 4905, Note_on_c, 9, 54, 0
16, 4905, Note_on_c, 9, 54, 0
16, 4920, Note_on_c, 9, 54, 120
16, 4920, Note_on_c, 9, 49, 0
16, 4935, Note_on_c, 9, 54, 0
16, 4950, Note_on_c, 9, 54, 120
16, 4965, Note_on_c, 9, 54, 0
16, 4980, Note_on_c, 9, 54, 120
16, 4995, Note_on_c, 9, 54, 0
16, 5010, Note_on_c, 9, 54, 120
16, 5025, Note_on_c, 9, 54, 0
16, 5280, Note_on_c, 9, 54, 120
16, 5310, Note_on_c, 9, 54, 0
16, 5400, Note_on_c, 9, 54, 120
16, 5430, Note_on_c, 9, 54, 0
16, 5520, Note_on_c, 9, 54, 120
16, 5550, Note_on_c, 9, 54, 0
16, 5640, Note_on_c, 9, 54, 120
16, 5670, Note_on_c, 9, 54, 0
16, 5760, Note_on_c, 9, 54, 120
16, 5790, Note_on_c, 9, 54, 0
16, 5880, Note_on_c, 9, 54, 120
16, 5910, Note_on_c, 9, 54, 0
16, 6000, Note_on_c, 9, 49, 120
16, 6000, Note_on_c, 9, 54, 120
16, 6030, Note_on_c, 9, 54, 0
16, 6030, Note_on_c, 9, 49, 0
16, 6120, Note_on_c, 9, 49, 120
16, 6120, Note_on_c, 9, 54, 120
16, 6150, Note_on_c, 9, 54, 0
16, 6150, Note_on_c, 9, 49, 0
16, 6240, Note_on_c, 9, 49, 120
16, 6240, Note_on_c, 9, 54, 110
16, 6240, Note_on_c, 9, 54, 110
16, 6255, Note_on_c, 9, 54, 0
16, 6255, Note_on_c, 9, 54, 0
16, 6270, Note_on_c, 9, 54, 120
16, 6270, Note_on_c, 9, 54, 120
16, 6285, Note_on_c, 9, 54, 0
16, 6285, Note_on_c, 9, 54, 0
16, 6300, Note_on_c, 9, 54, 120
16, 6300, Note_on_c, 9, 54, 120
16, 6315, Note_on_c, 9, 54, 0
16, 6315, Note_on_c, 9, 54, 0
16, 6330, Note_on_c, 9, 54, 120
16, 6345, Note_on_c, 9, 54, 0
16, 6360, Note_on_c, 9, 54, 120
16, 6360, Note_on_c, 9, 49, 0
16, 6375, Note_on_c, 9, 54, 0
16, 6390, Note_on_c, 9, 54, 120
16, 6405, Note_on_c, 9, 54, 0
16, 6420, Note_on_c, 9, 54, 120
16, 6435, Note_on_c, 9, 54, 0
16, 6450, Note_on_c, 9, 54, 120
16, 6465, Note_on_c, 9, 54, 0
16, 6720, Note_on_c, 9, 49, 120
16, 6720, Note_on_c, 9, 54, 110
16, 6720, Note_on_c, 9, 54, 110
16, 6735, Note_on_c, 9, 54, 0
16, 6735, Note_on_c, 9, 54, 0
16, 6750, Note_on_c, 9, 54, 120
16, 6750, Note_on_c, 9, 54, 120
16, 6765, Note_on_c, 9, 54, 0
16, 6765, Note_on_c, 9, 54, 0
16, 6780, Note_on_c, 9, 54, 120
16, 6780, Note_on_c, 9, 54, 120
16, 6795, Note_on_c, 9, 54, 0
16, 6795, Note_on_c, 9, 54, 0
16, 6810, Note_on_c, 9, 54, 120
16, 6810, Note_on_c, 9, 54, 120
16, 6825, Note_on_c, 9, 54, 0
16, 6825, Note_on_c, 9, 54, 0
16, 6840, Note_on_c, 9, 54, 120
16, 6840, Note_on_c, 9, 49, 0
16, 6855, Note_on_c, 9, 54, 0
16, 6870, Note_on_c, 9, 54, 120
16, 6885, Note_on_c, 9, 54, 0
16, 6900, Note_on_c, 9, 54, 120
16, 6915, Note_on_c, 9, 54, 0
16, 6930, Note_on_c, 9, 54, 120
16, 6945, Note_on_c, 9, 54, 0
16, 7200, Note_on_c, 9, 54, 120
16, 7230, Note_on_c, 9, 54, 0
16, 7320, Note_on_c, 9, 54, 120
16, 7350, Note_on_c, 9, 54, 0
16, 7440, Note_on_c, 9, 54, 120
16, 7470, Note_on_c, 9, 54, 0
16, 7560, Note_on_c, 9, 54, 120
16, 7590, Note_on_c, 9, 54, 0
16, 7680, Note_on_c, 9, 54, 120
16, 7710, Note_on_c, 9, 54, 0
16, 7800, Note_on_c, 9, 54, 120
16, 7830, Note_on_c, 9, 54, 0
16, 7920, Note_on_c, 9, 49, 120
16, 7920, Note_on_c, 9, 54, 120
16, 7950, Note_on_c, 9, 54, 0
16, 7950, Note_on_c, 9, 49, 0
16, 8040, Note_on_c, 9, 49, 120
16, 8040, Note_on_c, 9, 54, 120
16, 8070, Note_on_c, 9, 54, 0
16, 8070, Note_on_c, 9, 49, 0
16, 8070, End_track
0, 0, End_of_file
