0, 0, Header, 1, 16, 120
1, 0, Start_track
1, 0, Title_t, "Chinese Dance"
1, 0, Instrument_name_t, "Peter I. Tchaikovsky"
1, 0, Key_signature, -2, "major"
1, 0, Tempo, 500000
1, 0, Time_signature, 4, 2, 24, 8
1, 0, End_track
2, 0, Start_track
2, 0, Title_t, "from Nutcracker Suite"
2, 0, Instrument_name_t, "Full Orchestral Score"
2, 0, End_track
3, 0, Start_track
3, 0, Title_t, "Flute 1"
3, 0, Control_c, 1, 10, 54
3, 0, Control_c, 1, 7, 100
3, 0, Program_c, 1, 73
3, 840, Note_on_c, 1, 82, 60
3, 856, Note_on_c, 1, 82, 0
3, 857, Note_on_c, 1, 84, 60
3, 873, Note_on_c, 1, 84, 0
3, 874, Note_on_c, 1, 86, 60
3, 890, Note_on_c, 1, 86, 0
3, 891, Note_on_c, 1, 87, 60
3, 907, Note_on_c, 1, 87, 0
3, 908, Note_on_c, 1, 89, 60
3, 924, Note_on_c, 1, 89, 0
3, 925, Note_on_c, 1, 91, 60
3, 941, Note_on_c, 1, 91, 0
3, 942, Note_on_c, 1, 93, 60
3, 959, Note_on_c, 1, 93, 0
3, 960, Note_on_c, 1, 94, 60
3, 1079, Note_on_c, 1, 94, 0
3, 1080, Note_on_c, 1, 93, 60
3, 1139, Note_on_c, 1, 93, 0
3, 1140, Note_on_c, 1, 91, 60
3, 1199, Note_on_c, 1, 91, 0
3, 1200, Note_on_c, 1, 89, 60
3, 1214, Note_on_c, 1, 89, 0
3, 1215, Note_on_c, 1, 87, 60
3, 1229, Note_on_c, 1, 87, 0
3, 1230, Note_on_c, 1, 89, 60
3, 1244, Note_on_c, 1, 89, 0
3, 1245, Note_on_c, 1, 87, 60
3, 1259, Note_on_c, 1, 87, 0
3, 1260, Note_on_c, 1, 89, 60
3, 1274, Note_on_c, 1, 89, 0
3, 1275, Note_on_c, 1, 87, 60
3, 1289, Note_on_c, 1, 87, 0
3, 1290, Note_on_c, 1, 89, 60
3, 1304, Note_on_c, 1, 89, 0
3, 1305, Note_on_c, 1, 87, 60
3, 1319, Note_on_c, 1, 87, 0
3, 1320, Note_on_c, 1, 89, 60
3, 1334, Note_on_c, 1, 89, 0
3, 1335, Note_on_c, 1, 87, 60
3, 1349, Note_on_c, 1, 87, 0
3, 1350, Note_on_c, 1, 89, 60
3, 1364, Note_on_c, 1, 89, 0
3, 1365, Note_on_c, 1, 87, 60
3, 1379, Note_on_c, 1, 87, 0
3, 1380, Note_on_c, 1, 89, 60
3, 1394, Note_on_c, 1, 89, 0
3, 1395, Note_on_c, 1, 87, 60
3, 1409, Note_on_c, 1, 87, 0
3, 1410, Note_on_c, 1, 89, 60
3, 1424, Note_on_c, 1, 89, 0
3, 1425, Note_on_c, 1, 87, 60
3, 1439, Note_on_c, 1, 87, 0
3, 1440, Note_on_c, 1, 91, 60
3, 1469, Note_on_c, 1, 91, 0
3, 1560, Note_on_c, 1, 89, 60
3, 1678, Note_on_c, 1, 89, 0
3, 1704, Note_on_c, 1, 86, 60
3, 1726, Note_on_c, 1, 86, 0
3, 1728, Note_on_c, 1, 82, 60
3, 1750, Note_on_c, 1, 82, 0
3, 1752, Note_on_c, 1, 77, 60
3, 1774, Note_on_c, 1, 77, 0
3, 1776, Note_on_c, 1, 74, 60
3, 1798, Note_on_c, 1, 74, 0
3, 1800, Note_on_c, 1, 70, 60
3, 1858, Note_on_c, 1, 70, 0
3, 2760, Note_on_c, 1, 82, 60
3, 2776, Note_on_c, 1, 82, 0
3, 2777, Note_on_c, 1, 84, 60
3, 2793, Note_on_c, 1, 84, 0
3, 2794, Note_on_c, 1, 86, 60
3, 2810, Note_on_c, 1, 86, 0
3, 2811, Note_on_c, 1, 87, 60
3, 2827, Note_on_c, 1, 87, 0
3, 2828, Note_on_c, 1, 89, 60
3, 2844, Note_on_c, 1, 89, 0
3, 2845, Note_on_c, 1, 91, 60
3, 2861, Note_on_c, 1, 91, 0
3, 2862, Note_on_c, 1, 93, 60
3, 2879, Note_on_c, 1, 93, 0
3, 2880, Note_on_c, 1, 94, 60
3, 2999, Note_on_c, 1, 94, 0
3, 3000, Note_on_c, 1, 93, 60
3, 3059, Note_on_c, 1, 93, 0
3, 3060, Note_on_c, 1, 91, 60
3, 3119, Note_on_c, 1, 91, 0
3, 3120, Note_on_c, 1, 89, 60
3, 3134, Note_on_c, 1, 89, 0
3, 3135, Note_on_c, 1, 87, 60
3, 3149, Note_on_c, 1, 87, 0
3, 3150, Note_on_c, 1, 89, 60
3, 3164, Note_on_c, 1, 89, 0
3, 3165, Note_on_c, 1, 87, 60
3, 3179, Note_on_c, 1, 87, 0
3, 3180, Note_on_c, 1, 89, 60
3, 3194, Note_on_c, 1, 89, 0
3, 3195, Note_on_c, 1, 87, 60
3, 3209, Note_on_c, 1, 87, 0
3, 3210, Note_on_c, 1, 89, 60
3, 3224, Note_on_c, 1, 89, 0
3, 3225, Note_on_c, 1, 87, 60
3, 3239, Note_on_c, 1, 87, 0
3, 3240, Note_on_c, 1, 89, 60
3, 3254, Note_on_c, 1, 89, 0
3, 3255, Note_on_c, 1, 87, 60
3, 3269, Note_on_c, 1, 87, 0
3, 3270, Note_on_c, 1, 89, 60
3, 3284, Note_on_c, 1, 89, 0
3, 3285, Note_on_c, 1, 87, 60
3, 3299, Note_on_c, 1, 87, 0
3, 3300, Note_on_c, 1, 89, 60
3, 3314, Note_on_c, 1, 89, 0
3, 3315, Note_on_c, 1, 87, 60
3, 3329, Note_on_c, 1, 87, 0
3, 3330, Note_on_c, 1, 89, 60
3, 3344, Note_on_c, 1, 89, 0
3, 3345, Note_on_c, 1, 87, 60
3, 3359, Note_on_c, 1, 87, 0
3, 3360, Note_on_c, 1, 91, 60
3, 3389, Note_on_c, 1, 91, 0
3, 3480, Note_on_c, 1, 89, 60
3, 3623, Note_on_c, 1, 89, 0
3, 3624, Note_on_c, 1, 86, 60
3, 3647, Note_on_c, 1, 86, 0
3, 3648, Note_on_c, 1, 82, 60
3, 3671, Note_on_c, 1, 82, 0
3, 3672, Note_on_c, 1, 77, 60
3, 3695, Note_on_c, 1, 77, 0
3, 3696, Note_on_c, 1, 74, 60
3, 3719, Note_on_c, 1, 74, 0
3, 3720, Note_on_c, 1, 70, 60
3, 3779, Note_on_c, 1, 70, 0
3, 4680, Note_on_c, 1, 91, 60
3, 4699, Note_on_c, 1, 91, 0
3, 4700, Note_on_c, 1, 89, 60
3, 4719, Note_on_c, 1, 89, 0
3, 4720, Note_on_c, 1, 87, 60
3, 4739, Note_on_c, 1, 87, 0
3, 4740, Note_on_c, 1, 86, 60
3, 4759, Note_on_c, 1, 86, 0
3, 4760, Note_on_c, 1, 84, 60
3, 4779, Note_on_c, 1, 84, 0
3, 4780, Note_on_c, 1, 82, 60
3, 4799, Note_on_c, 1, 82, 0
3, 4800, Note_on_c, 1, 81, 60
3, 4919, Note_on_c, 1, 81, 0
3, 4920, Note_on_c, 1, 79, 60
3, 4979, Note_on_c, 1, 79, 0
3, 4980, Note_on_c, 1, 81, 60
3, 5039, Note_on_c, 1, 81, 0
3, 5040, Note_on_c, 1, 77, 60
3, 5052, Note_on_c, 1, 77, 0
3, 5053, Note_on_c, 1, 79, 60
3, 5065, Note_on_c, 1, 79, 0
3, 5066, Note_on_c, 1, 77, 60
3, 5078, Note_on_c, 1, 77, 0
3, 5079, Note_on_c, 1, 79, 60
3, 5091, Note_on_c, 1, 79, 0
3, 5092, Note_on_c, 1, 77, 60
3, 5104, Note_on_c, 1, 77, 0
3, 5105, Note_on_c, 1, 79, 60
3, 5117, Note_on_c, 1, 79, 0
3, 5118, Note_on_c, 1, 77, 60
3, 5131, Note_on_c, 1, 77, 0
3, 5132, Note_on_c, 1, 76, 60
3, 5145, Note_on_c, 1, 76, 0
3, 5146, Note_on_c, 1, 77, 60
3, 5159, Note_on_c, 1, 77, 0
3, 5160, Note_on_c, 1, 79, 60
3, 5219, Note_on_c, 1, 79, 0
3, 5220, Note_on_c, 1, 81, 60
3, 5279, Note_on_c, 1, 81, 0
3, 5280, Note_on_c, 1, 82, 60
3, 5339, Note_on_c, 1, 82, 0
3, 5400, Note_on_c, 1, 70, 60
3, 5543, Note_on_c, 1, 70, 0
3, 5544, Note_on_c, 1, 74, 60
3, 5567, Note_on_c, 1, 74, 0
3, 5568, Note_on_c, 1, 77, 60
3, 5591, Note_on_c, 1, 77, 0
3, 5592, Note_on_c, 1, 82, 60
3, 5615, Note_on_c, 1, 82, 0
3, 5616, Note_on_c, 1, 86, 60
3, 5639, Note_on_c, 1, 86, 0
3, 5640, Note_on_c, 1, 89, 60
3, 5699, Note_on_c, 1, 89, 0
3, 6600, Note_on_c, 1, 91, 60
3, 6618, Note_on_c, 1, 91, 0
3, 6619, Note_on_c, 1, 89, 60
3, 6638, Note_on_c, 1, 89, 0
3, 6639, Note_on_c, 1, 87, 60
3, 6658, Note_on_c, 1, 87, 0
3, 6659, Note_on_c, 1, 86, 60
3, 6678, Note_on_c, 1, 86, 0
3, 6679, Note_on_c, 1, 84, 60
3, 6698, Note_on_c, 1, 84, 0
3, 6699, Note_on_c, 1, 82, 60
3, 6718, Note_on_c, 1, 82, 0
3, 6720, Note_on_c, 1, 81, 60
3, 6838, Note_on_c, 1, 81, 0
3, 6840, Note_on_c, 1, 79, 60
3, 6898, Note_on_c, 1, 79, 0
3, 6900, Note_on_c, 1, 81, 60
3, 6959, Note_on_c, 1, 81, 0
3, 6960, Note_on_c, 1, 77, 60
3, 6972, Note_on_c, 1, 77, 0
3, 6973, Note_on_c, 1, 79, 60
3, 6985, Note_on_c, 1, 79, 0
3, 6986, Note_on_c, 1, 77, 60
3, 6998, Note_on_c, 1, 77, 0
3, 6999, Note_on_c, 1, 79, 60
3, 7011, Note_on_c, 1, 79, 0
3, 7012, Note_on_c, 1, 77, 60
3, 7024, Note_on_c, 1, 77, 0
3, 7025, Note_on_c, 1, 79, 60
3, 7037, Note_on_c, 1, 79, 0
3, 7038, Note_on_c, 1, 77, 60
3, 7051, Note_on_c, 1, 77, 0
3, 7052, Note_on_c, 1, 76, 60
3, 7065, Note_on_c, 1, 76, 0
3, 7066, Note_on_c, 1, 77, 60
3, 7079, Note_on_c, 1, 77, 0
3, 7080, Note_on_c, 1, 79, 60
3, 7139, Note_on_c, 1, 79, 0
3, 7140, Note_on_c, 1, 81, 60
3, 7199, Note_on_c, 1, 81, 0
3, 7200, Note_on_c, 1, 82, 60
3, 7259, Note_on_c, 1, 82, 0
3, 7320, Note_on_c, 1, 70, 60
3, 7463, Note_on_c, 1, 70, 0
3, 7464, Note_on_c, 1, 74, 60
3, 7487, Note_on_c, 1, 74, 0
3, 7488, Note_on_c, 1, 77, 60
3, 7511, Note_on_c, 1, 77, 0
3, 7512, Note_on_c, 1, 82, 60
3, 7535, Note_on_c, 1, 82, 0
3, 7536, Note_on_c, 1, 86, 60
3, 7559, Note_on_c, 1, 86, 0
3, 7560, Note_on_c, 1, 89, 60
3, 7619, Note_on_c, 1, 89, 0
3, 8520, Note_on_c, 1, 82, 60
3, 8535, Note_on_c, 1, 82, 0
3, 8537, Note_on_c, 1, 84, 60
3, 8553, Note_on_c, 1, 84, 0
3, 8554, Note_on_c, 1, 86, 60
3, 8569, Note_on_c, 1, 86, 0
3, 8571, Note_on_c, 1, 87, 60
3, 8586, Note_on_c, 1, 87, 0
3, 8588, Note_on_c, 1, 89, 60
3, 8603, Note_on_c, 1, 89, 0
3, 8605, Note_on_c, 1, 91, 60
3, 8620, Note_on_c, 1, 91, 0
3, 8622, Note_on_c, 1, 93, 60
3, 8638, Note_on_c, 1, 93, 0
3, 8640, Note_on_c, 1, 94, 60
3, 8758, Note_on_c, 1, 94, 0
3, 8760, Note_on_c, 1, 93, 60
3, 8818, Note_on_c, 1, 93, 0
3, 8820, Note_on_c, 1, 91, 60
3, 8879, Note_on_c, 1, 91, 0
3, 8880, Note_on_c, 1, 89, 60
3, 8893, Note_on_c, 1, 89, 0
3, 8894, Note_on_c, 1, 87, 60
3, 8908, Note_on_c, 1, 87, 0
3, 8909, Note_on_c, 1, 89, 60
3, 8923, Note_on_c, 1, 89, 0
3, 8924, Note_on_c, 1, 87, 60
3, 8938, Note_on_c, 1, 87, 0
3, 8939, Note_on_c, 1, 89, 60
3, 8953, Note_on_c, 1, 89, 0
3, 8954, Note_on_c, 1, 87, 60
3, 8968, Note_on_c, 1, 87, 0
3, 8969, Note_on_c, 1, 89, 60
3, 8983, Note_on_c, 1, 89, 0
3, 8984, Note_on_c, 1, 87, 60
3, 8998, Note_on_c, 1, 87, 0
3, 9000, Note_on_c, 1, 89, 60
3, 9013, Note_on_c, 1, 89, 0
3, 9014, Note_on_c, 1, 87, 60
3, 9028, Note_on_c, 1, 87, 0
3, 9029, Note_on_c, 1, 89, 60
3, 9043, Note_on_c, 1, 89, 0
3, 9044, Note_on_c, 1, 87, 60
3, 9058, Note_on_c, 1, 87, 0
3, 9059, Note_on_c, 1, 89, 60
3, 9073, Note_on_c, 1, 89, 0
3, 9074, Note_on_c, 1, 87, 60
3, 9088, Note_on_c, 1, 87, 0
3, 9089, Note_on_c, 1, 89, 60
3, 9103, Note_on_c, 1, 89, 0
3, 9104, Note_on_c, 1, 87, 60
3, 9118, Note_on_c, 1, 87, 0
3, 9120, Note_on_c, 1, 91, 60
3, 9148, Note_on_c, 1, 91, 0
3, 9240, Note_on_c, 1, 89, 60
3, 9383, Note_on_c, 1, 89, 0
3, 9384, Note_on_c, 1, 86, 60
3, 9407, Note_on_c, 1, 86, 0
3, 9408, Note_on_c, 1, 82, 60
3, 9431, Note_on_c, 1, 82, 0
3, 9432, Note_on_c, 1, 77, 60
3, 9455, Note_on_c, 1, 77, 0
3, 9456, Note_on_c, 1, 74, 60
3, 9479, Note_on_c, 1, 74, 0
3, 9480, Note_on_c, 1, 70, 60
3, 9539, Note_on_c, 1, 70, 0
3, 10440, Note_on_c, 1, 82, 60
3, 10456, Note_on_c, 1, 82, 0
3, 10457, Note_on_c, 1, 84, 60
3, 10473, Note_on_c, 1, 84, 0
3, 10474, Note_on_c, 1, 86, 60
3, 10490, Note_on_c, 1, 86, 0
3, 10491, Note_on_c, 1, 87, 60
3, 10507, Note_on_c, 1, 87, 0
3, 10508, Note_on_c, 1, 89, 60
3, 10524, Note_on_c, 1, 89, 0
3, 10525, Note_on_c, 1, 91, 60
3, 10541, Note_on_c, 1, 91, 0
3, 10542, Note_on_c, 1, 93, 60
3, 10559, Note_on_c, 1, 93, 0
3, 10560, Note_on_c, 1, 94, 60
3, 10679, Note_on_c, 1, 94, 0
3, 10680, Note_on_c, 1, 93, 60
3, 10738, Note_on_c, 1, 93, 0
3, 10740, Note_on_c, 1, 91, 60
3, 10798, Note_on_c, 1, 91, 0
3, 10800, Note_on_c, 1, 89, 60
3, 10813, Note_on_c, 1, 89, 0
3, 10815, Note_on_c, 1, 87, 60
3, 10828, Note_on_c, 1, 87, 0
3, 10830, Note_on_c, 1, 89, 60
3, 10843, Note_on_c, 1, 89, 0
3, 10845, Note_on_c, 1, 87, 60
3, 10858, Note_on_c, 1, 87, 0
3, 10860, Note_on_c, 1, 89, 60
3, 10873, Note_on_c, 1, 89, 0
3, 10875, Note_on_c, 1, 87, 60
3, 10888, Note_on_c, 1, 87, 0
3, 10890, Note_on_c, 1, 89, 60
3, 10903, Note_on_c, 1, 89, 0
3, 10905, Note_on_c, 1, 87, 60
3, 10918, Note_on_c, 1, 87, 0
3, 10920, Note_on_c, 1, 89, 60
3, 10933, Note_on_c, 1, 89, 0
3, 10935, Note_on_c, 1, 87, 60
3, 10948, Note_on_c, 1, 87, 0
3, 10950, Note_on_c, 1, 89, 60
3, 10963, Note_on_c, 1, 89, 0
3, 10965, Note_on_c, 1, 87, 60
3, 10978, Note_on_c, 1, 87, 0
3, 10980, Note_on_c, 1, 89, 60
3, 10993, Note_on_c, 1, 89, 0
3, 10994, Note_on_c, 1, 87, 60
3, 11008, Note_on_c, 1, 87, 0
3, 11009, Note_on_c, 1, 89, 60
3, 11023, Note_on_c, 1, 89, 0
3, 11025, Note_on_c, 1, 87, 60
3, 11038, Note_on_c, 1, 87, 0
3, 11040, Note_on_c, 1, 91, 60
3, 11068, Note_on_c, 1, 91, 0
3, 11160, Note_on_c, 1, 89, 60
3, 11302, Note_on_c, 1, 89, 0
3, 11303, Note_on_c, 1, 86, 60
3, 11326, Note_on_c, 1, 86, 0
3, 11327, Note_on_c, 1, 82, 60
3, 11350, Note_on_c, 1, 82, 0
3, 11351, Note_on_c, 1, 77, 60
3, 11374, Note_on_c, 1, 77, 0
3, 11375, Note_on_c, 1, 74, 60
3, 11398, Note_on_c, 1, 74, 0
3, 11400, Note_on_c, 1, 70, 60
3, 11458, Note_on_c, 1, 70, 0
3, 12360, Note_on_c, 1, 77, 60
3, 12399, Note_on_c, 1, 77, 0
3, 12400, Note_on_c, 1, 89, 60
3, 12439, Note_on_c, 1, 89, 0
3, 12440, Note_on_c, 1, 89, 60
3, 12459, Note_on_c, 1, 89, 0
3, 12480, Note_on_c, 1, 89, 60
3, 12519, Note_on_c, 1, 89, 0
3, 12520, Note_on_c, 1, 77, 60
3, 12559, Note_on_c, 1, 77, 0
3, 12560, Note_on_c, 1, 77, 60
3, 12579, Note_on_c, 1, 77, 0
3, 12600, Note_on_c, 1, 65, 60
3, 12639, Note_on_c, 1, 65, 0
3, 12640, Note_on_c, 1, 77, 60
3, 12679, Note_on_c, 1, 77, 0
3, 12680, Note_on_c, 1, 77, 60
3, 12699, Note_on_c, 1, 77, 0
3, 12720, Note_on_c, 1, 77, 60
3, 12759, Note_on_c, 1, 77, 0
3, 12760, Note_on_c, 1, 89, 60
3, 12799, Note_on_c, 1, 89, 0
3, 12800, Note_on_c, 1, 89, 60
3, 12819, Note_on_c, 1, 89, 0
3, 12840, Note_on_c, 1, 77, 60
3, 12879, Note_on_c, 1, 77, 0
3, 12880, Note_on_c, 1, 89, 60
3, 12919, Note_on_c, 1, 89, 0
3, 12920, Note_on_c, 1, 89, 60
3, 12939, Note_on_c, 1, 89, 0
3, 12960, Note_on_c, 1, 89, 60
3, 12999, Note_on_c, 1, 89, 0
3, 13000, Note_on_c, 1, 77, 60
3, 13038, Note_on_c, 1, 77, 0
3, 13040, Note_on_c, 1, 77, 60
3, 13058, Note_on_c, 1, 77, 0
3, 13080, Note_on_c, 1, 65, 60
3, 13118, Note_on_c, 1, 65, 0
3, 13120, Note_on_c, 1, 77, 60
3, 13158, Note_on_c, 1, 77, 0
3, 13160, Note_on_c, 1, 77, 60
3, 13178, Note_on_c, 1, 77, 0
3, 13200, Note_on_c, 1, 77, 60
3, 13238, Note_on_c, 1, 77, 0
3, 13240, Note_on_c, 1, 89, 60
3, 13278, Note_on_c, 1, 89, 0
3, 13280, Note_on_c, 1, 89, 60
3, 13298, Note_on_c, 1, 89, 0
3, 13320, Note_on_c, 1, 77, 60
3, 13358, Note_on_c, 1, 77, 0
3, 13360, Note_on_c, 1, 89, 60
3, 13399, Note_on_c, 1, 89, 0
3, 13400, Note_on_c, 1, 89, 60
3, 13419, Note_on_c, 1, 89, 0
3, 13440, Note_on_c, 1, 89, 60
3, 13478, Note_on_c, 1, 89, 0
3, 13480, Note_on_c, 1, 77, 60
3, 13519, Note_on_c, 1, 77, 0
3, 13520, Note_on_c, 1, 77, 60
3, 13539, Note_on_c, 1, 77, 0
3, 13560, Note_on_c, 1, 65, 60
3, 13598, Note_on_c, 1, 65, 0
3, 13600, Note_on_c, 1, 77, 60
3, 13639, Note_on_c, 1, 77, 0
3, 13640, Note_on_c, 1, 77, 60
3, 13659, Note_on_c, 1, 77, 0
3, 13680, Note_on_c, 1, 77, 60
3, 13718, Note_on_c, 1, 77, 0
3, 13720, Note_on_c, 1, 89, 60
3, 13759, Note_on_c, 1, 89, 0
3, 13760, Note_on_c, 1, 89, 60
3, 13779, Note_on_c, 1, 89, 0
3, 13800, Note_on_c, 1, 77, 60
3, 13839, Note_on_c, 1, 77, 0
3, 13840, Note_on_c, 1, 89, 60
3, 13879, Note_on_c, 1, 89, 0
3, 13880, Note_on_c, 1, 89, 60
3, 13899, Note_on_c, 1, 89, 0
3, 13920, Note_on_c, 1, 89, 60
3, 13959, Note_on_c, 1, 89, 0
3, 13960, Note_on_c, 1, 77, 60
3, 13999, Note_on_c, 1, 77, 0
3, 14000, Note_on_c, 1, 77, 60
3, 14019, Note_on_c, 1, 77, 0
3, 14040, Note_on_c, 1, 65, 60
3, 14079, Note_on_c, 1, 65, 0
3, 14080, Note_on_c, 1, 77, 60
3, 14119, Note_on_c, 1, 77, 0
3, 14120, Note_on_c, 1, 77, 60
3, 14139, Note_on_c, 1, 77, 0
3, 14160, Note_on_c, 1, 77, 60
3, 14199, Note_on_c, 1, 77, 0
3, 14200, Note_on_c, 1, 89, 60
3, 14239, Note_on_c, 1, 89, 0
3, 14240, Note_on_c, 1, 89, 60
3, 14259, Note_on_c, 1, 89, 0
3, 14280, Note_on_c, 1, 77, 60
3, 14319, Note_on_c, 1, 77, 0
3, 14320, Note_on_c, 1, 89, 60
3, 14359, Note_on_c, 1, 89, 0
3, 14360, Note_on_c, 1, 89, 60
3, 14379, Note_on_c, 1, 89, 0
3, 14400, Note_on_c, 1, 89, 60
3, 14439, Note_on_c, 1, 89, 0
3, 14440, Note_on_c, 1, 77, 60
3, 14479, Note_on_c, 1, 77, 0
3, 14480, Note_on_c, 1, 77, 60
3, 14499, Note_on_c, 1, 77, 0
3, 14520, Note_on_c, 1, 65, 60
3, 14559, Note_on_c, 1, 65, 0
3, 14560, Note_on_c, 1, 77, 60
3, 14599, Note_on_c, 1, 77, 0
3, 14600, Note_on_c, 1, 77, 60
3, 14619, Note_on_c, 1, 77, 0
3, 14640, Note_on_c, 1, 77, 60
3, 14679, Note_on_c, 1, 77, 0
3, 14680, Note_on_c, 1, 89, 60
3, 14719, Note_on_c, 1, 89, 0
3, 14720, Note_on_c, 1, 89, 60
3, 14739, Note_on_c, 1, 89, 0
3, 14760, Note_on_c, 1, 77, 60
3, 14799, Note_on_c, 1, 77, 0
3, 14800, Note_on_c, 1, 89, 60
3, 14839, Note_on_c, 1, 89, 0
3, 14840, Note_on_c, 1, 89, 60
3, 14859, Note_on_c, 1, 89, 0
3, 14880, Note_on_c, 1, 89, 60
3, 14919, Note_on_c, 1, 89, 0
3, 14920, Note_on_c, 1, 77, 60
3, 14959, Note_on_c, 1, 77, 0
3, 14960, Note_on_c, 1, 77, 60
3, 14979, Note_on_c, 1, 77, 0
3, 15000, Note_on_c, 1, 65, 60
3, 15039, Note_on_c, 1, 65, 0
3, 15040, Note_on_c, 1, 77, 60
3, 15079, Note_on_c, 1, 77, 0
3, 15080, Note_on_c, 1, 77, 60
3, 15099, Note_on_c, 1, 77, 0
3, 15180, Note_on_c, 1, 89, 60
3, 15235, Note_on_c, 1, 89, 0
3, 15235, End_track
4, 0, Start_track
4, 0, Title_t, "Flute 2"
4, 8520, Note_on_c, 1, 82, 60
4, 8535, Note_on_c, 1, 82, 0
4, 8537, Note_on_c, 1, 84, 60
4, 8552, Note_on_c, 1, 84, 0
4, 8554, Note_on_c, 1, 86, 60
4, 8569, Note_on_c, 1, 86, 0
4, 8570, Note_on_c, 1, 87, 60
4, 8586, Note_on_c, 1, 87, 0
4, 8587, Note_on_c, 1, 89, 60
4, 8603, Note_on_c, 1, 89, 0
4, 8605, Note_on_c, 1, 91, 60
4, 8620, Note_on_c, 1, 91, 0
4, 8621, Note_on_c, 1, 93, 60
4, 8638, Note_on_c, 1, 93, 0
4, 8640, Note_on_c, 1, 94, 60
4, 8758, Note_on_c, 1, 94, 0
4, 8760, Note_on_c, 1, 93, 60
4, 8818, Note_on_c, 1, 93, 0
4, 8820, Note_on_c, 1, 91, 60
4, 8879, Note_on_c, 1, 91, 0
4, 8880, Note_on_c, 1, 89, 60
4, 8893, Note_on_c, 1, 89, 0
4, 8894, Note_on_c, 1, 87, 60
4, 8908, Note_on_c, 1, 87, 0
4, 8909, Note_on_c, 1, 89, 60
4, 8923, Note_on_c, 1, 89, 0
4, 8924, Note_on_c, 1, 87, 60
4, 8938, Note_on_c, 1, 87, 0
4, 8939, Note_on_c, 1, 89, 60
4, 8953, Note_on_c, 1, 89, 0
4, 8954, Note_on_c, 1, 87, 60
4, 8968, Note_on_c, 1, 87, 0
4, 8969, Note_on_c, 1, 89, 60
4, 8983, Note_on_c, 1, 89, 0
4, 8984, Note_on_c, 1, 87, 60
4, 8998, Note_on_c, 1, 87, 0
4, 9000, Note_on_c, 1, 89, 60
4, 9013, Note_on_c, 1, 89, 0
4, 9014, Note_on_c, 1, 87, 60
4, 9028, Note_on_c, 1, 87, 0
4, 9029, Note_on_c, 1, 89, 60
4, 9043, Note_on_c, 1, 89, 0
4, 9044, Note_on_c, 1, 87, 60
4, 9058, Note_on_c, 1, 87, 0
4, 9059, Note_on_c, 1, 89, 60
4, 9073, Note_on_c, 1, 89, 0
4, 9074, Note_on_c, 1, 87, 60
4, 9088, Note_on_c, 1, 87, 0
4, 9089, Note_on_c, 1, 89, 60
4, 9103, Note_on_c, 1, 89, 0
4, 9104, Note_on_c, 1, 87, 60
4, 9118, Note_on_c, 1, 87, 0
4, 9120, Note_on_c, 1, 91, 60
4, 9148, Note_on_c, 1, 91, 0
4, 9240, Note_on_c, 1, 89, 60
4, 9382, Note_on_c, 1, 89, 0
4, 9383, Note_on_c, 1, 86, 60
4, 9406, Note_on_c, 1, 86, 0
4, 9407, Note_on_c, 1, 82, 60
4, 9430, Note_on_c, 1, 82, 0
4, 9431, Note_on_c, 1, 77, 60
4, 9454, Note_on_c, 1, 77, 0
4, 9455, Note_on_c, 1, 74, 60
4, 9478, Note_on_c, 1, 74, 0
4, 9480, Note_on_c, 1, 70, 60
4, 9539, Note_on_c, 1, 70, 0
4, 10440, Note_on_c, 1, 82, 60
4, 10456, Note_on_c, 1, 82, 0
4, 10456, Note_on_c, 1, 84, 60
4, 10472, Note_on_c, 1, 84, 0
4, 10473, Note_on_c, 1, 86, 60
4, 10489, Note_on_c, 1, 86, 0
4, 10490, Note_on_c, 1, 87, 60
4, 10506, Note_on_c, 1, 87, 0
4, 10507, Note_on_c, 1, 89, 60
4, 10523, Note_on_c, 1, 89, 0
4, 10524, Note_on_c, 1, 91, 60
4, 10540, Note_on_c, 1, 91, 0
4, 10541, Note_on_c, 1, 93, 60
4, 10558, Note_on_c, 1, 93, 0
4, 10560, Note_on_c, 1, 94, 60
4, 10678, Note_on_c, 1, 94, 0
4, 10680, Note_on_c, 1, 93, 60
4, 10739, Note_on_c, 1, 93, 0
4, 10740, Note_on_c, 1, 91, 60
4, 10799, Note_on_c, 1, 91, 0
4, 10800, Note_on_c, 1, 89, 60
4, 10813, Note_on_c, 1, 89, 0
4, 10815, Note_on_c, 1, 87, 60
4, 10828, Note_on_c, 1, 87, 0
4, 10830, Note_on_c, 1, 89, 60
4, 10843, Note_on_c, 1, 89, 0
4, 10845, Note_on_c, 1, 87, 60
4, 10858, Note_on_c, 1, 87, 0
4, 10860, Note_on_c, 1, 89, 60
4, 10873, Note_on_c, 1, 89, 0
4, 10875, Note_on_c, 1, 87, 60
4, 10888, Note_on_c, 1, 87, 0
4, 10890, Note_on_c, 1, 89, 60
4, 10903, Note_on_c, 1, 89, 0
4, 10905, Note_on_c, 1, 87, 60
4, 10918, Note_on_c, 1, 87, 0
4, 10920, Note_on_c, 1, 89, 60
4, 10933, Note_on_c, 1, 89, 0
4, 10935, Note_on_c, 1, 87, 60
4, 10948, Note_on_c, 1, 87, 0
4, 10950, Note_on_c, 1, 89, 60
4, 10963, Note_on_c, 1, 89, 0
4, 10965, Note_on_c, 1, 87, 60
4, 10979, Note_on_c, 1, 87, 0
4, 10980, Note_on_c, 1, 89, 60
4, 10994, Note_on_c, 1, 89, 0
4, 10995, Note_on_c, 1, 87, 60
4, 11008, Note_on_c, 1, 87, 0
4, 11010, Note_on_c, 1, 89, 60
4, 11023, Note_on_c, 1, 89, 0
4, 11025, Note_on_c, 1, 87, 60
4, 11039, Note_on_c, 1, 87, 0
4, 11040, Note_on_c, 1, 91, 60
4, 11068, Note_on_c, 1, 91, 0
4, 11160, Note_on_c, 1, 89, 60
4, 11302, Note_on_c, 1, 89, 0
4, 11303, Note_on_c, 1, 86, 60
4, 11326, Note_on_c, 1, 86, 0
4, 11327, Note_on_c, 1, 82, 60
4, 11350, Note_on_c, 1, 82, 0
4, 11351, Note_on_c, 1, 77, 60
4, 11374, Note_on_c, 1, 77, 0
4, 11375, Note_on_c, 1, 74, 60
4, 11398, Note_on_c, 1, 74, 0
4, 11400, Note_on_c, 1, 70, 60
4, 11458, Note_on_c, 1, 70, 0
4, 12360, Note_on_c, 1, 65, 60
4, 12399, Note_on_c, 1, 65, 0
4, 12400, Note_on_c, 1, 77, 60
4, 12439, Note_on_c, 1, 77, 0
4, 12440, Note_on_c, 1, 77, 60
4, 12459, Note_on_c, 1, 77, 0
4, 12480, Note_on_c, 1, 77, 60
4, 12519, Note_on_c, 1, 77, 0
4, 12520, Note_on_c, 1, 89, 60
4, 12559, Note_on_c, 1, 89, 0
4, 12560, Note_on_c, 1, 89, 60
4, 12579, Note_on_c, 1, 89, 0
4, 12600, Note_on_c, 1, 77, 60
4, 12639, Note_on_c, 1, 77, 0
4, 12640, Note_on_c, 1, 89, 60
4, 12679, Note_on_c, 1, 89, 0
4, 12680, Note_on_c, 1, 89, 60
4, 12699, Note_on_c, 1, 89, 0
4, 12720, Note_on_c, 1, 89, 60
4, 12759, Note_on_c, 1, 89, 0
4, 12760, Note_on_c, 1, 77, 60
4, 12799, Note_on_c, 1, 77, 0
4, 12800, Note_on_c, 1, 77, 60
4, 12819, Note_on_c, 1, 77, 0
4, 12840, Note_on_c, 1, 65, 60
4, 12879, Note_on_c, 1, 65, 0
4, 12880, Note_on_c, 1, 77, 60
4, 12919, Note_on_c, 1, 77, 0
4, 12920, Note_on_c, 1, 77, 60
4, 12939, Note_on_c, 1, 77, 0
4, 12960, Note_on_c, 1, 77, 60
4, 12998, Note_on_c, 1, 77, 0
4, 13000, Note_on_c, 1, 89, 60
4, 13038, Note_on_c, 1, 89, 0
4, 13040, Note_on_c, 1, 89, 60
4, 13058, Note_on_c, 1, 89, 0
4, 13080, Note_on_c, 1, 77, 60
4, 13118, Note_on_c, 1, 77, 0
4, 13120, Note_on_c, 1, 89, 60
4, 13158, Note_on_c, 1, 89, 0
4, 13160, Note_on_c, 1, 89, 60
4, 13178, Note_on_c, 1, 89, 0
4, 13200, Note_on_c, 1, 89, 60
4, 13238, Note_on_c, 1, 89, 0
4, 13240, Note_on_c, 1, 77, 60
4, 13279, Note_on_c, 1, 77, 0
4, 13280, Note_on_c, 1, 77, 60
4, 13299, Note_on_c, 1, 77, 0
4, 13320, Note_on_c, 1, 65, 60
4, 13358, Note_on_c, 1, 65, 0
4, 13360, Note_on_c, 1, 77, 60
4, 13399, Note_on_c, 1, 77, 0
4, 13400, Note_on_c, 1, 77, 60
4, 13419, Note_on_c, 1, 77, 0
4, 13440, Note_on_c, 1, 77, 60
4, 13478, Note_on_c, 1, 77, 0
4, 13480, Note_on_c, 1, 89, 60
4, 13519, Note_on_c, 1, 89, 0
4, 13520, Note_on_c, 1, 89, 60
4, 13539, Note_on_c, 1, 89, 0
4, 13560, Note_on_c, 1, 77, 60
4, 13598, Note_on_c, 1, 77, 0
4, 13600, Note_on_c, 1, 89, 60
4, 13639, Note_on_c, 1, 89, 0
4, 13640, Note_on_c, 1, 89, 60
4, 13659, Note_on_c, 1, 89, 0
4, 13680, Note_on_c, 1, 89, 60
4, 13718, Note_on_c, 1, 89, 0
4, 13720, Note_on_c, 1, 77, 60
4, 13759, Note_on_c, 1, 77, 0
4, 13760, Note_on_c, 1, 77, 60
4, 13779, Note_on_c, 1, 77, 0
4, 13800, Note_on_c, 1, 65, 60
4, 13839, Note_on_c, 1, 65, 0
4, 13840, Note_on_c, 1, 77, 60
4, 13879, Note_on_c, 1, 77, 0
4, 13880, Note_on_c, 1, 77, 60
4, 13899, Note_on_c, 1, 77, 0
4, 13920, Note_on_c, 1, 77, 60
4, 13959, Note_on_c, 1, 77, 0
4, 13960, Note_on_c, 1, 89, 60
4, 13999, Note_on_c, 1, 89, 0
4, 14000, Note_on_c, 1, 89, 60
4, 14019, Note_on_c, 1, 89, 0
4, 14040, Note_on_c, 1, 77, 60
4, 14079, Note_on_c, 1, 77, 0
4, 14080, Note_on_c, 1, 89, 60
4, 14119, Note_on_c, 1, 89, 0
4, 14120, Note_on_c, 1, 89, 60
4, 14139, Note_on_c, 1, 89, 0
4, 14160, Note_on_c, 1, 89, 60
4, 14199, Note_on_c, 1, 89, 0
4, 14200, Note_on_c, 1, 77, 60
4, 14239, Note_on_c, 1, 77, 0
4, 14240, Note_on_c, 1, 77, 60
4, 14259, Note_on_c, 1, 77, 0
4, 14280, Note_on_c, 1, 65, 60
4, 14319, Note_on_c, 1, 65, 0
4, 14320, Note_on_c, 1, 77, 60
4, 14359, Note_on_c, 1, 77, 0
4, 14360, Note_on_c, 1, 77, 60
4, 14379, Note_on_c, 1, 77, 0
4, 14400, Note_on_c, 1, 77, 60
4, 14439, Note_on_c, 1, 77, 0
4, 14440, Note_on_c, 1, 89, 60
4, 14479, Note_on_c, 1, 89, 0
4, 14480, Note_on_c, 1, 89, 60
4, 14499, Note_on_c, 1, 89, 0
4, 14520, Note_on_c, 1, 77, 60
4, 14559, Note_on_c, 1, 77, 0
4, 14560, Note_on_c, 1, 89, 60
4, 14599, Note_on_c, 1, 89, 0
4, 14600, Note_on_c, 1, 89, 60
4, 14619, Note_on_c, 1, 89, 0
4, 14640, Note_on_c, 1, 89, 60
4, 14679, Note_on_c, 1, 89, 0
4, 14680, Note_on_c, 1, 77, 60
4, 14719, Note_on_c, 1, 77, 0
4, 14720, Note_on_c, 1, 77, 60
4, 14739, Note_on_c, 1, 77, 0
4, 14760, Note_on_c, 1, 65, 60
4, 14799, Note_on_c, 1, 65, 0
4, 14800, Note_on_c, 1, 77, 60
4, 14839, Note_on_c, 1, 77, 0
4, 14840, Note_on_c, 1, 77, 60
4, 14859, Note_on_c, 1, 77, 0
4, 14880, Note_on_c, 1, 77, 60
4, 14919, Note_on_c, 1, 77, 0
4, 14920, Note_on_c, 1, 89, 60
4, 14959, Note_on_c, 1, 89, 0
4, 14960, Note_on_c, 1, 89, 60
4, 14979, Note_on_c, 1, 89, 0
4, 15000, Note_on_c, 1, 77, 60
4, 15039, Note_on_c, 1, 77, 0
4, 15040, Note_on_c, 1, 89, 60
4, 15079, Note_on_c, 1, 89, 0
4, 15080, Note_on_c, 1, 89, 60
4, 15099, Note_on_c, 1, 89, 0
4, 15180, Note_on_c, 1, 86, 60
4, 15235, Note_on_c, 1, 86, 0
4, 15235, End_track
5, 0, Start_track
5, 0, Title_t, "Piccolo"
5, 0, Control_c, 2, 10, 54
5, 0, Control_c, 2, 7, 100
5, 0, Program_c, 2, 74
5, 4680, Note_on_c, 2, 91, 60
5, 4699, Note_on_c, 2, 91, 0
5, 4700, Note_on_c, 2, 89, 60
5, 4719, Note_on_c, 2, 89, 0
5, 4720, Note_on_c, 2, 87, 60
5, 4739, Note_on_c, 2, 87, 0
5, 4740, Note_on_c, 2, 86, 60
5, 4759, Note_on_c, 2, 86, 0
5, 4760, Note_on_c, 2, 84, 60
5, 4779, Note_on_c, 2, 84, 0
5, 4780, Note_on_c, 2, 82, 60
5, 4799, Note_on_c, 2, 82, 0
5, 4800, Note_on_c, 2, 81, 60
5, 4919, Note_on_c, 2, 81, 0
5, 4920, Note_on_c, 2, 79, 60
5, 4979, Note_on_c, 2, 79, 0
5, 4980, Note_on_c, 2, 81, 60
5, 5039, Note_on_c, 2, 81, 0
5, 5040, Note_on_c, 2, 77, 60
5, 5052, Note_on_c, 2, 77, 0
5, 5053, Note_on_c, 2, 79, 60
5, 5065, Note_on_c, 2, 79, 0
5, 5066, Note_on_c, 2, 77, 60
5, 5078, Note_on_c, 2, 77, 0
5, 5079, Note_on_c, 2, 79, 60
5, 5091, Note_on_c, 2, 79, 0
5, 5092, Note_on_c, 2, 77, 60
5, 5104, Note_on_c, 2, 77, 0
5, 5105, Note_on_c, 2, 79, 60
5, 5117, Note_on_c, 2, 79, 0
5, 5118, Note_on_c, 2, 77, 60
5, 5131, Note_on_c, 2, 77, 0
5, 5132, Note_on_c, 2, 76, 60
5, 5145, Note_on_c, 2, 76, 0
5, 5146, Note_on_c, 2, 77, 60
5, 5159, Note_on_c, 2, 77, 0
5, 5160, Note_on_c, 2, 79, 60
5, 5219, Note_on_c, 2, 79, 0
5, 5220, Note_on_c, 2, 81, 60
5, 5279, Note_on_c, 2, 81, 0
5, 5280, Note_on_c, 2, 82, 60
5, 5339, Note_on_c, 2, 82, 0
5, 5400, Note_on_c, 2, 70, 60
5, 5543, Note_on_c, 2, 70, 0
5, 5544, Note_on_c, 2, 74, 60
5, 5567, Note_on_c, 2, 74, 0
5, 5568, Note_on_c, 2, 77, 60
5, 5591, Note_on_c, 2, 77, 0
5, 5592, Note_on_c, 2, 82, 60
5, 5615, Note_on_c, 2, 82, 0
5, 5616, Note_on_c, 2, 86, 60
5, 5639, Note_on_c, 2, 86, 0
5, 5640, Note_on_c, 2, 89, 60
5, 5699, Note_on_c, 2, 89, 0
5, 6600, Note_on_c, 2, 91, 60
5, 6618, Note_on_c, 2, 91, 0
5, 6619, Note_on_c, 2, 89, 60
5, 6638, Note_on_c, 2, 89, 0
5, 6639, Note_on_c, 2, 87, 60
5, 6658, Note_on_c, 2, 87, 0
5, 6659, Note_on_c, 2, 86, 60
5, 6678, Note_on_c, 2, 86, 0
5, 6679, Note_on_c, 2, 84, 60
5, 6698, Note_on_c, 2, 84, 0
5, 6699, Note_on_c, 2, 82, 60
5, 6718, Note_on_c, 2, 82, 0
5, 6720, Note_on_c, 2, 81, 60
5, 6838, Note_on_c, 2, 81, 0
5, 6840, Note_on_c, 2, 79, 60
5, 6899, Note_on_c, 2, 79, 0
5, 6900, Note_on_c, 2, 81, 60
5, 6959, Note_on_c, 2, 81, 0
5, 6960, Note_on_c, 2, 77, 60
5, 6972, Note_on_c, 2, 77, 0
5, 6973, Note_on_c, 2, 79, 60
5, 6985, Note_on_c, 2, 79, 0
5, 6986, Note_on_c, 2, 77, 60
5, 6998, Note_on_c, 2, 77, 0
5, 6999, Note_on_c, 2, 79, 60
5, 7011, Note_on_c, 2, 79, 0
5, 7012, Note_on_c, 2, 77, 60
5, 7024, Note_on_c, 2, 77, 0
5, 7025, Note_on_c, 2, 79, 60
5, 7037, Note_on_c, 2, 79, 0
5, 7038, Note_on_c, 2, 77, 60
5, 7051, Note_on_c, 2, 77, 0
5, 7052, Note_on_c, 2, 76, 60
5, 7065, Note_on_c, 2, 76, 0
5, 7066, Note_on_c, 2, 77, 60
5, 7079, Note_on_c, 2, 77, 0
5, 7080, Note_on_c, 2, 79, 60
5, 7139, Note_on_c, 2, 79, 0
5, 7140, Note_on_c, 2, 81, 60
5, 7199, Note_on_c, 2, 81, 0
5, 7200, Note_on_c, 2, 82, 60
5, 7259, Note_on_c, 2, 82, 0
5, 7320, Note_on_c, 2, 70, 60
5, 7463, Note_on_c, 2, 70, 0
5, 7464, Note_on_c, 2, 74, 60
5, 7487, Note_on_c, 2, 74, 0
5, 7488, Note_on_c, 2, 77, 60
5, 7511, Note_on_c, 2, 77, 0
5, 7512, Note_on_c, 2, 82, 60
5, 7535, Note_on_c, 2, 82, 0
5, 7536, Note_on_c, 2, 86, 60
5, 7559, Note_on_c, 2, 86, 0
5, 7560, Note_on_c, 2, 89, 60
5, 7619, Note_on_c, 2, 89, 0
5, 12480, Note_on_c, 2, 77, 60
5, 12519, Note_on_c, 2, 77, 0
5, 12520, Note_on_c, 2, 89, 60
5, 12559, Note_on_c, 2, 89, 0
5, 12560, Note_on_c, 2, 89, 60
5, 12579, Note_on_c, 2, 89, 0
5, 12720, Note_on_c, 2, 77, 60
5, 12759, Note_on_c, 2, 77, 0
5, 12760, Note_on_c, 2, 89, 60
5, 12799, Note_on_c, 2, 89, 0
5, 12800, Note_on_c, 2, 89, 60
5, 12819, Note_on_c, 2, 89, 0
5, 12960, Note_on_c, 2, 77, 60
5, 12998, Note_on_c, 2, 77, 0
5, 13000, Note_on_c, 2, 89, 60
5, 13038, Note_on_c, 2, 89, 0
5, 13040, Note_on_c, 2, 89, 60
5, 13058, Note_on_c, 2, 89, 0
5, 13200, Note_on_c, 2, 77, 60
5, 13238, Note_on_c, 2, 77, 0
5, 13240, Note_on_c, 2, 89, 60
5, 13279, Note_on_c, 2, 89, 0
5, 13280, Note_on_c, 2, 89, 60
5, 13299, Note_on_c, 2, 89, 0
5, 13440, Note_on_c, 2, 77, 60
5, 13478, Note_on_c, 2, 77, 0
5, 13480, Note_on_c, 2, 89, 60
5, 13519, Note_on_c, 2, 89, 0
5, 13520, Note_on_c, 2, 89, 60
5, 13539, Note_on_c, 2, 89, 0
5, 13680, Note_on_c, 2, 77, 60
5, 13719, Note_on_c, 2, 77, 0
5, 13720, Note_on_c, 2, 89, 60
5, 13759, Note_on_c, 2, 89, 0
5, 13760, Note_on_c, 2, 89, 60
5, 13779, Note_on_c, 2, 89, 0
5, 13920, Note_on_c, 2, 77, 60
5, 13959, Note_on_c, 2, 77, 0
5, 13960, Note_on_c, 2, 89, 60
5, 13999, Note_on_c, 2, 89, 0
5, 14000, Note_on_c, 2, 89, 60
5, 14019, Note_on_c, 2, 89, 0
5, 14160, Note_on_c, 2, 77, 60
5, 14199, Note_on_c, 2, 77, 0
5, 14200, Note_on_c, 2, 89, 60
5, 14239, Note_on_c, 2, 89, 0
5, 14240, Note_on_c, 2, 89, 60
5, 14259, Note_on_c, 2, 89, 0
5, 14400, Note_on_c, 2, 77, 60
5, 14439, Note_on_c, 2, 77, 0
5, 14440, Note_on_c, 2, 89, 60
5, 14479, Note_on_c, 2, 89, 0
5, 14480, Note_on_c, 2, 89, 60
5, 14499, Note_on_c, 2, 89, 0
5, 14640, Note_on_c, 2, 77, 60
5, 14679, Note_on_c, 2, 77, 0
5, 14680, Note_on_c, 2, 89, 60
5, 14719, Note_on_c, 2, 89, 0
5, 14720, Note_on_c, 2, 89, 60
5, 14739, Note_on_c, 2, 89, 0
5, 14880, Note_on_c, 2, 77, 60
5, 14919, Note_on_c, 2, 77, 0
5, 14920, Note_on_c, 2, 89, 60
5, 14959, Note_on_c, 2, 89, 0
5, 14960, Note_on_c, 2, 89, 60
5, 14979, Note_on_c, 2, 89, 0
5, 15180, Note_on_c, 2, 77, 60
5, 15235, Note_on_c, 2, 77, 0
5, 15235, End_track
6, 0, Start_track
6, 0, Title_t, "Clarinet 1"
6, 0, Control_c, 3, 10, 54
6, 0, Program_c, 3, 82
6, 0, Control_c, 3, 7, 63
6, 8640, Note_on_c, 3, 58, 60
6, 8669, Note_on_c, 3, 58, 0
6, 8670, Note_on_c, 3, 62, 60
6, 8699, Note_on_c, 3, 62, 0
6, 8700, Note_on_c, 3, 65, 60
6, 8729, Note_on_c, 3, 65, 0
6, 8730, Note_on_c, 3, 70, 60
6, 8759, Note_on_c, 3, 70, 0
6, 8760, Note_on_c, 3, 74, 60
6, 8789, Note_on_c, 3, 74, 0
6, 8790, Note_on_c, 3, 70, 60
6, 8819, Note_on_c, 3, 70, 0
6, 8820, Note_on_c, 3, 65, 60
6, 8849, Note_on_c, 3, 65, 0
6, 8850, Note_on_c, 3, 62, 60
6, 8879, Note_on_c, 3, 62, 0
6, 8880, Note_on_c, 3, 58, 60
6, 8909, Note_on_c, 3, 58, 0
6, 8910, Note_on_c, 3, 62, 60
6, 8939, Note_on_c, 3, 62, 0
6, 8940, Note_on_c, 3, 65, 60
6, 8969, Note_on_c, 3, 65, 0
6, 8970, Note_on_c, 3, 70, 60
6, 8999, Note_on_c, 3, 70, 0
6, 9000, Note_on_c, 3, 74, 60
6, 9029, Note_on_c, 3, 74, 0
6, 9030, Note_on_c, 3, 70, 60
6, 9059, Note_on_c, 3, 70, 0
6, 9060, Note_on_c, 3, 65, 60
6, 9089, Note_on_c, 3, 65, 0
6, 9090, Note_on_c, 3, 62, 60
6, 9119, Note_on_c, 3, 62, 0
6, 9120, Note_on_c, 3, 58, 60
6, 9149, Note_on_c, 3, 58, 0
6, 9150, Note_on_c, 3, 62, 60
6, 9179, Note_on_c, 3, 62, 0
6, 9180, Note_on_c, 3, 65, 60
6, 9209, Note_on_c, 3, 65, 0
6, 9210, Note_on_c, 3, 70, 60
6, 9239, Note_on_c, 3, 70, 0
6, 9240, Note_on_c, 3, 74, 60
6, 9269, Note_on_c, 3, 74, 0
6, 9270, Note_on_c, 3, 70, 60
6, 9299, Note_on_c, 3, 70, 0
6, 9300, Note_on_c, 3, 65, 60
6, 9328, Note_on_c, 3, 65, 0
6, 9330, Note_on_c, 3, 62, 60
6, 9358, Note_on_c, 3, 62, 0
6, 9360, Note_on_c, 3, 58, 60
6, 9388, Note_on_c, 3, 58, 0
6, 9390, Note_on_c, 3, 62, 60
6, 9418, Note_on_c, 3, 62, 0
6, 9420, Note_on_c, 3, 65, 60
6, 9448, Note_on_c, 3, 65, 0
6, 9450, Note_on_c, 3, 70, 60
6, 9478, Note_on_c, 3, 70, 0
6, 9480, Note_on_c, 3, 74, 60
6, 9508, Note_on_c, 3, 74, 0
6, 9510, Note_on_c, 3, 70, 60
6, 9538, Note_on_c, 3, 70, 0
6, 9540, Note_on_c, 3, 65, 60
6, 9568, Note_on_c, 3, 65, 0
6, 9570, Note_on_c, 3, 62, 60
6, 9598, Note_on_c, 3, 62, 0
6, 9600, Note_on_c, 3, 60, 60
6, 9628, Note_on_c, 3, 60, 0
6, 9630, Note_on_c, 3, 65, 60
6, 9659, Note_on_c, 3, 65, 0
6, 9660, Note_on_c, 3, 69, 60
6, 9689, Note_on_c, 3, 69, 0
6, 9690, Note_on_c, 3, 72, 60
6, 9719, Note_on_c, 3, 72, 0
6, 9720, Note_on_c, 3, 77, 60
6, 9748, Note_on_c, 3, 77, 0
6, 9750, Note_on_c, 3, 72, 60
6, 9779, Note_on_c, 3, 72, 0
6, 9780, Note_on_c, 3, 69, 60
6, 9809, Note_on_c, 3, 69, 0
6, 9810, Note_on_c, 3, 65, 60
6, 9839, Note_on_c, 3, 65, 0
6, 9840, Note_on_c, 3, 60, 60
6, 9868, Note_on_c, 3, 60, 0
6, 9870, Note_on_c, 3, 65, 60
6, 9899, Note_on_c, 3, 65, 0
6, 9900, Note_on_c, 3, 69, 60
6, 9929, Note_on_c, 3, 69, 0
6, 9930, Note_on_c, 3, 72, 60
6, 9959, Note_on_c, 3, 72, 0
6, 9960, Note_on_c, 3, 77, 60
6, 9988, Note_on_c, 3, 77, 0
6, 9990, Note_on_c, 3, 72, 60
6, 10019, Note_on_c, 3, 72, 0
6, 10020, Note_on_c, 3, 69, 60
6, 10049, Note_on_c, 3, 69, 0
6, 10050, Note_on_c, 3, 65, 60
6, 10079, Note_on_c, 3, 65, 0
6, 10080, Note_on_c, 3, 58, 60
6, 10109, Note_on_c, 3, 58, 0
6, 10110, Note_on_c, 3, 62, 60
6, 10139, Note_on_c, 3, 62, 0
6, 10140, Note_on_c, 3, 65, 60
6, 10169, Note_on_c, 3, 65, 0
6, 10170, Note_on_c, 3, 70, 60
6, 10199, Note_on_c, 3, 70, 0
6, 10200, Note_on_c, 3, 74, 60
6, 10229, Note_on_c, 3, 74, 0
6, 10230, Note_on_c, 3, 70, 60
6, 10259, Note_on_c, 3, 70, 0
6, 10260, Note_on_c, 3, 65, 60
6, 10289, Note_on_c, 3, 65, 0
6, 10290, Note_on_c, 3, 62, 60
6, 10319, Note_on_c, 3, 62, 0
6, 10320, Note_on_c, 3, 58, 60
6, 10349, Note_on_c, 3, 58, 0
6, 10350, Note_on_c, 3, 62, 60
6, 10379, Note_on_c, 3, 62, 0
6, 10380, Note_on_c, 3, 65, 60
6, 10409, Note_on_c, 3, 65, 0
6, 10410, Note_on_c, 3, 70, 60
6, 10439, Note_on_c, 3, 70, 0
6, 10440, Note_on_c, 3, 74, 60
6, 10469, Note_on_c, 3, 74, 0
6, 10470, Note_on_c, 3, 70, 60
6, 10499, Note_on_c, 3, 70, 0
6, 10500, Note_on_c, 3, 65, 60
6, 10529, Note_on_c, 3, 65, 0
6, 10530, Note_on_c, 3, 62, 60
6, 10559, Note_on_c, 3, 62, 0
6, 10560, Note_on_c, 3, 58, 60
6, 10589, Note_on_c, 3, 58, 0
6, 10590, Note_on_c, 3, 62, 60
6, 10619, Note_on_c, 3, 62, 0
6, 10620, Note_on_c, 3, 65, 60
6, 10649, Note_on_c, 3, 65, 0
6, 10650, Note_on_c, 3, 70, 60
6, 10679, Note_on_c, 3, 70, 0
6, 10680, Note_on_c, 3, 74, 60
6, 10709, Note_on_c, 3, 74, 0
6, 10710, Note_on_c, 3, 70, 60
6, 10739, Note_on_c, 3, 70, 0
6, 10740, Note_on_c, 3, 65, 60
6, 10769, Note_on_c, 3, 65, 0
6, 10770, Note_on_c, 3, 62, 60
6, 10799, Note_on_c, 3, 62, 0
6, 10800, Note_on_c, 3, 58, 60
6, 10829, Note_on_c, 3, 58, 0
6, 10830, Note_on_c, 3, 62, 60
6, 10859, Note_on_c, 3, 62, 0
6, 10860, Note_on_c, 3, 65, 60
6, 10889, Note_on_c, 3, 65, 0
6, 10890, Note_on_c, 3, 70, 60
6, 10919, Note_on_c, 3, 70, 0
6, 10920, Note_on_c, 3, 74, 60
6, 10949, Note_on_c, 3, 74, 0
6, 10950, Note_on_c, 3, 70, 60
6, 10979, Note_on_c, 3, 70, 0
6, 10980, Note_on_c, 3, 65, 60
6, 11009, Note_on_c, 3, 65, 0
6, 11010, Note_on_c, 3, 62, 60
6, 11039, Note_on_c, 3, 62, 0
6, 11040, Note_on_c, 3, 58, 60
6, 11069, Note_on_c, 3, 58, 0
6, 11070, Note_on_c, 3, 62, 60
6, 11099, Note_on_c, 3, 62, 0
6, 11100, Note_on_c, 3, 65, 60
6, 11129, Note_on_c, 3, 65, 0
6, 11130, Note_on_c, 3, 70, 60
6, 11159, Note_on_c, 3, 70, 0
6, 11160, Note_on_c, 3, 74, 60
6, 11189, Note_on_c, 3, 74, 0
6, 11190, Note_on_c, 3, 70, 60
6, 11219, Note_on_c, 3, 70, 0
6, 11220, Note_on_c, 3, 65, 60
6, 11249, Note_on_c, 3, 65, 0
6, 11250, Note_on_c, 3, 62, 60
6, 11279, Note_on_c, 3, 62, 0
6, 11280, Note_on_c, 3, 58, 60
6, 11309, Note_on_c, 3, 58, 0
6, 11310, Note_on_c, 3, 62, 60
6, 11339, Note_on_c, 3, 62, 0
6, 11340, Note_on_c, 3, 65, 60
6, 11369, Note_on_c, 3, 65, 0
6, 11370, Note_on_c, 3, 70, 60
6, 11399, Note_on_c, 3, 70, 0
6, 11400, Note_on_c, 3, 74, 60
6, 11429, Note_on_c, 3, 74, 0
6, 11430, Note_on_c, 3, 70, 60
6, 11459, Note_on_c, 3, 70, 0
6, 11460, Note_on_c, 3, 65, 60
6, 11489, Note_on_c, 3, 65, 0
6, 11490, Note_on_c, 3, 62, 60
6, 11519, Note_on_c, 3, 62, 0
6, 11520, Note_on_c, 3, 60, 60
6, 11549, Note_on_c, 3, 60, 0
6, 11550, Note_on_c, 3, 65, 60
6, 11579, Note_on_c, 3, 65, 0
6, 11580, Note_on_c, 3, 69, 60
6, 11608, Note_on_c, 3, 69, 0
6, 11610, Note_on_c, 3, 72, 60
6, 11639, Note_on_c, 3, 72, 0
6, 11640, Note_on_c, 3, 77, 60
6, 11669, Note_on_c, 3, 77, 0
6, 11670, Note_on_c, 3, 72, 60
6, 11698, Note_on_c, 3, 72, 0
6, 11700, Note_on_c, 3, 69, 60
6, 11728, Note_on_c, 3, 69, 0
6, 11730, Note_on_c, 3, 65, 60
6, 11758, Note_on_c, 3, 65, 0
6, 11760, Note_on_c, 3, 60, 60
6, 11788, Note_on_c, 3, 60, 0
6, 11790, Note_on_c, 3, 65, 60
6, 11818, Note_on_c, 3, 65, 0
6, 11820, Note_on_c, 3, 69, 60
6, 11848, Note_on_c, 3, 69, 0
6, 11850, Note_on_c, 3, 72, 60
6, 11879, Note_on_c, 3, 72, 0
6, 11880, Note_on_c, 3, 77, 60
6, 11908, Note_on_c, 3, 77, 0
6, 11910, Note_on_c, 3, 72, 60
6, 11939, Note_on_c, 3, 72, 0
6, 11940, Note_on_c, 3, 69, 60
6, 11968, Note_on_c, 3, 69, 0
6, 11970, Note_on_c, 3, 65, 60
6, 11998, Note_on_c, 3, 65, 0
6, 12000, Note_on_c, 3, 58, 60
6, 12028, Note_on_c, 3, 58, 0
6, 12030, Note_on_c, 3, 62, 60
6, 12059, Note_on_c, 3, 62, 0
6, 12060, Note_on_c, 3, 65, 60
6, 12089, Note_on_c, 3, 65, 0
6, 12090, Note_on_c, 3, 70, 60
6, 12119, Note_on_c, 3, 70, 0
6, 12120, Note_on_c, 3, 74, 60
6, 12148, Note_on_c, 3, 74, 0
6, 12150, Note_on_c, 3, 70, 60
6, 12179, Note_on_c, 3, 70, 0
6, 12180, Note_on_c, 3, 65, 60
6, 12209, Note_on_c, 3, 65, 0
6, 12210, Note_on_c, 3, 62, 60
6, 12239, Note_on_c, 3, 62, 0
6, 12240, Note_on_c, 3, 58, 60
6, 12268, Note_on_c, 3, 58, 0
6, 12270, Note_on_c, 3, 62, 60
6, 12299, Note_on_c, 3, 62, 0
6, 12300, Note_on_c, 3, 65, 60
6, 12329, Note_on_c, 3, 65, 0
6, 12330, Note_on_c, 3, 70, 60
6, 12359, Note_on_c, 3, 70, 0
6, 12360, Note_on_c, 3, 74, 60
6, 12388, Note_on_c, 3, 74, 0
6, 12390, Note_on_c, 3, 70, 60
6, 12419, Note_on_c, 3, 70, 0
6, 12420, Note_on_c, 3, 65, 60
6, 12449, Note_on_c, 3, 65, 0
6, 12450, Note_on_c, 3, 62, 60
6, 12479, Note_on_c, 3, 62, 0
6, 12480, Note_on_c, 3, 60, 60
6, 12509, Note_on_c, 3, 60, 0
6, 12510, Note_on_c, 3, 65, 60
6, 12539, Note_on_c, 3, 65, 0
6, 12540, Note_on_c, 3, 69, 60
6, 12569, Note_on_c, 3, 69, 0
6, 12570, Note_on_c, 3, 72, 60
6, 12599, Note_on_c, 3, 72, 0
6, 12600, Note_on_c, 3, 77, 60
6, 12629, Note_on_c, 3, 77, 0
6, 12630, Note_on_c, 3, 72, 60
6, 12659, Note_on_c, 3, 72, 0
6, 12660, Note_on_c, 3, 69, 60
6, 12689, Note_on_c, 3, 69, 0
6, 12690, Note_on_c, 3, 65, 60
6, 12719, Note_on_c, 3, 65, 0
6, 12720, Note_on_c, 3, 60, 60
6, 12749, Note_on_c, 3, 60, 0
6, 12750, Note_on_c, 3, 65, 60
6, 12779, Note_on_c, 3, 65, 0
6, 12780, Note_on_c, 3, 69, 60
6, 12809, Note_on_c, 3, 69, 0
6, 12810, Note_on_c, 3, 72, 60
6, 12839, Note_on_c, 3, 72, 0
6, 12840, Note_on_c, 3, 77, 60
6, 12869, Note_on_c, 3, 77, 0
6, 12870, Note_on_c, 3, 72, 60
6, 12899, Note_on_c, 3, 72, 0
6, 12900, Note_on_c, 3, 69, 60
6, 12929, Note_on_c, 3, 69, 0
6, 12930, Note_on_c, 3, 65, 60
6, 12959, Note_on_c, 3, 65, 0
6, 12960, Note_on_c, 3, 58, 60
6, 12989, Note_on_c, 3, 58, 0
6, 12990, Note_on_c, 3, 62, 60
6, 13019, Note_on_c, 3, 62, 0
6, 13020, Note_on_c, 3, 65, 60
6, 13049, Note_on_c, 3, 65, 0
6, 13050, Note_on_c, 3, 70, 60
6, 13079, Note_on_c, 3, 70, 0
6, 13080, Note_on_c, 3, 74, 60
6, 13109, Note_on_c, 3, 74, 0
6, 13110, Note_on_c, 3, 70, 60
6, 13139, Note_on_c, 3, 70, 0
6, 13140, Note_on_c, 3, 65, 60
6, 13169, Note_on_c, 3, 65, 0
6, 13170, Note_on_c, 3, 62, 60
6, 13199, Note_on_c, 3, 62, 0
6, 13200, Note_on_c, 3, 58, 60
6, 13229, Note_on_c, 3, 58, 0
6, 13230, Note_on_c, 3, 62, 60
6, 13259, Note_on_c, 3, 62, 0
6, 13260, Note_on_c, 3, 65, 60
6, 13289, Note_on_c, 3, 65, 0
6, 13290, Note_on_c, 3, 70, 60
6, 13319, Note_on_c, 3, 70, 0
6, 13320, Note_on_c, 3, 74, 60
6, 13349, Note_on_c, 3, 74, 0
6, 13350, Note_on_c, 3, 70, 60
6, 13379, Note_on_c, 3, 70, 0
6, 13380, Note_on_c, 3, 65, 60
6, 13409, Note_on_c, 3, 65, 0
6, 13410, Note_on_c, 3, 62, 60
6, 13439, Note_on_c, 3, 62, 0
6, 13440, Note_on_c, 3, 58, 60
6, 13469, Note_on_c, 3, 58, 0
6, 13470, Note_on_c, 3, 62, 60
6, 13499, Note_on_c, 3, 62, 0
6, 13500, Note_on_c, 3, 65, 60
6, 13529, Note_on_c, 3, 65, 0
6, 13530, Note_on_c, 3, 70, 60
6, 13559, Note_on_c, 3, 70, 0
6, 13560, Note_on_c, 3, 74, 60
6, 13589, Note_on_c, 3, 74, 0
6, 13590, Note_on_c, 3, 70, 60
6, 13619, Note_on_c, 3, 70, 0
6, 13620, Note_on_c, 3, 65, 60
6, 13649, Note_on_c, 3, 65, 0
6, 13650, Note_on_c, 3, 62, 60
6, 13679, Note_on_c, 3, 62, 0
6, 13680, Note_on_c, 3, 58, 60
6, 13709, Note_on_c, 3, 58, 0
6, 13710, Note_on_c, 3, 62, 60
6, 13739, Note_on_c, 3, 62, 0
6, 13740, Note_on_c, 3, 65, 60
6, 13769, Note_on_c, 3, 65, 0
6, 13770, Note_on_c, 3, 70, 60
6, 13799, Note_on_c, 3, 70, 0
6, 13800, Note_on_c, 3, 74, 60
6, 13829, Note_on_c, 3, 74, 0
6, 13830, Note_on_c, 3, 70, 60
6, 13859, Note_on_c, 3, 70, 0
6, 13860, Note_on_c, 3, 65, 60
6, 13889, Note_on_c, 3, 65, 0
6, 13890, Note_on_c, 3, 62, 60
6, 13919, Note_on_c, 3, 62, 0
6, 13920, Note_on_c, 3, 58, 60
6, 13948, Note_on_c, 3, 58, 0
6, 13950, Note_on_c, 3, 62, 60
6, 13978, Note_on_c, 3, 62, 0
6, 13980, Note_on_c, 3, 65, 60
6, 14008, Note_on_c, 3, 65, 0
6, 14010, Note_on_c, 3, 70, 60
6, 14038, Note_on_c, 3, 70, 0
6, 14040, Note_on_c, 3, 74, 60
6, 14068, Note_on_c, 3, 74, 0
6, 14070, Note_on_c, 3, 70, 60
6, 14098, Note_on_c, 3, 70, 0
6, 14100, Note_on_c, 3, 65, 60
6, 14128, Note_on_c, 3, 65, 0
6, 14130, Note_on_c, 3, 62, 60
6, 14158, Note_on_c, 3, 62, 0
6, 14160, Note_on_c, 3, 58, 60
6, 14188, Note_on_c, 3, 58, 0
6, 14190, Note_on_c, 3, 62, 60
6, 14218, Note_on_c, 3, 62, 0
6, 14220, Note_on_c, 3, 65, 60
6, 14248, Note_on_c, 3, 65, 0
6, 14250, Note_on_c, 3, 70, 60
6, 14279, Note_on_c, 3, 70, 0
6, 14280, Note_on_c, 3, 74, 60
6, 14308, Note_on_c, 3, 74, 0
6, 14310, Note_on_c, 3, 70, 60
6, 14339, Note_on_c, 3, 70, 0
6, 14340, Note_on_c, 3, 65, 60
6, 14369, Note_on_c, 3, 65, 0
6, 14370, Note_on_c, 3, 62, 60
6, 14399, Note_on_c, 3, 62, 0
6, 14400, Note_on_c, 3, 58, 60
6, 14428, Note_on_c, 3, 58, 0
6, 14430, Note_on_c, 3, 62, 60
6, 14459, Note_on_c, 3, 62, 0
6, 14460, Note_on_c, 3, 65, 60
6, 14489, Note_on_c, 3, 65, 0
6, 14490, Note_on_c, 3, 70, 60
6, 14519, Note_on_c, 3, 70, 0
6, 14520, Note_on_c, 3, 74, 60
6, 14548, Note_on_c, 3, 74, 0
6, 14550, Note_on_c, 3, 70, 60
6, 14579, Note_on_c, 3, 70, 0
6, 14580, Note_on_c, 3, 65, 60
6, 14609, Note_on_c, 3, 65, 0
6, 14610, Note_on_c, 3, 62, 60
6, 14639, Note_on_c, 3, 62, 0
6, 14640, Note_on_c, 3, 58, 60
6, 14668, Note_on_c, 3, 58, 0
6, 14670, Note_on_c, 3, 62, 60
6, 14699, Note_on_c, 3, 62, 0
6, 14700, Note_on_c, 3, 65, 60
6, 14729, Note_on_c, 3, 65, 0
6, 14730, Note_on_c, 3, 70, 60
6, 14759, Note_on_c, 3, 70, 0
6, 14760, Note_on_c, 3, 74, 60
6, 14789, Note_on_c, 3, 74, 0
6, 14790, Note_on_c, 3, 70, 60
6, 14819, Note_on_c, 3, 70, 0
6, 14820, Note_on_c, 3, 65, 60
6, 14849, Note_on_c, 3, 65, 0
6, 14850, Note_on_c, 3, 62, 60
6, 14879, Note_on_c, 3, 62, 0
6, 14880, Note_on_c, 3, 58, 60
6, 14909, Note_on_c, 3, 58, 0
6, 14910, Note_on_c, 3, 62, 60
6, 14939, Note_on_c, 3, 62, 0
6, 14940, Note_on_c, 3, 65, 60
6, 14969, Note_on_c, 3, 65, 0
6, 14970, Note_on_c, 3, 70, 60
6, 14999, Note_on_c, 3, 70, 0
6, 15000, Note_on_c, 3, 74, 60
6, 15029, Note_on_c, 3, 74, 0
6, 15030, Note_on_c, 3, 70, 60
6, 15059, Note_on_c, 3, 70, 0
6, 15060, Note_on_c, 3, 65, 60
6, 15089, Note_on_c, 3, 65, 0
6, 15090, Note_on_c, 3, 62, 60
6, 15119, Note_on_c, 3, 62, 0
6, 15180, Note_on_c, 3, 77, 60
6, 15235, Note_on_c, 3, 77, 0
6, 15235, End_track
7, 0, Start_track
7, 0, Title_t, "Clarinet 2"
7, 8640, Note_on_c, 3, 50, 60
7, 8669, Note_on_c, 3, 50, 0
7, 8670, Note_on_c, 3, 53, 60
7, 8699, Note_on_c, 3, 53, 0
7, 8700, Note_on_c, 3, 57, 60
7, 8729, Note_on_c, 3, 57, 0
7, 8730, Note_on_c, 3, 62, 60
7, 8759, Note_on_c, 3, 62, 0
7, 8760, Note_on_c, 3, 65, 60
7, 8789, Note_on_c, 3, 65, 0
7, 8790, Note_on_c, 3, 62, 60
7, 8818, Note_on_c, 3, 62, 0
7, 8820, Note_on_c, 3, 57, 60
7, 8848, Note_on_c, 3, 57, 0
7, 8850, Note_on_c, 3, 53, 60
7, 8878, Note_on_c, 3, 53, 0
7, 8880, Note_on_c, 3, 50, 60
7, 8909, Note_on_c, 3, 50, 0
7, 8910, Note_on_c, 3, 53, 60
7, 8938, Note_on_c, 3, 53, 0
7, 8940, Note_on_c, 3, 57, 60
7, 8968, Note_on_c, 3, 57, 0
7, 8970, Note_on_c, 3, 62, 60
7, 8998, Note_on_c, 3, 62, 0
7, 9000, Note_on_c, 3, 65, 60
7, 9028, Note_on_c, 3, 65, 0
7, 9030, Note_on_c, 3, 62, 60
7, 9058, Note_on_c, 3, 62, 0
7, 9060, Note_on_c, 3, 57, 60
7, 9088, Note_on_c, 3, 57, 0
7, 9090, Note_on_c, 3, 53, 60
7, 9119, Note_on_c, 3, 53, 0
7, 9120, Note_on_c, 3, 50, 60
7, 9148, Note_on_c, 3, 50, 0
7, 9150, Note_on_c, 3, 53, 60
7, 9178, Note_on_c, 3, 53, 0
7, 9180, Note_on_c, 3, 57, 60
7, 9209, Note_on_c, 3, 57, 0
7, 9210, Note_on_c, 3, 62, 60
7, 9239, Note_on_c, 3, 62, 0
7, 9240, Note_on_c, 3, 65, 60
7, 9268, Note_on_c, 3, 65, 0
7, 9270, Note_on_c, 3, 62, 60
7, 9299, Note_on_c, 3, 62, 0
7, 9300, Note_on_c, 3, 57, 60
7, 9329, Note_on_c, 3, 57, 0
7, 9330, Note_on_c, 3, 53, 60
7, 9359, Note_on_c, 3, 53, 0
7, 9360, Note_on_c, 3, 50, 60
7, 9388, Note_on_c, 3, 50, 0
7, 9390, Note_on_c, 3, 53, 60
7, 9419, Note_on_c, 3, 53, 0
7, 9420, Note_on_c, 3, 57, 60
7, 9449, Note_on_c, 3, 57, 0
7, 9450, Note_on_c, 3, 62, 60
7, 9479, Note_on_c, 3, 62, 0
7, 9480, Note_on_c, 3, 65, 60
7, 9508, Note_on_c, 3, 65, 0
7, 9510, Note_on_c, 3, 62, 60
7, 9539, Note_on_c, 3, 62, 0
7, 9540, Note_on_c, 3, 57, 60
7, 9569, Note_on_c, 3, 57, 0
7, 9570, Note_on_c, 3, 53, 60
7, 9599, Note_on_c, 3, 53, 0
7, 9600, Note_on_c, 3, 51, 60
7, 9628, Note_on_c, 3, 51, 0
7, 9630, Note_on_c, 3, 57, 60
7, 9659, Note_on_c, 3, 57, 0
7, 9660, Note_on_c, 3, 60, 60
7, 9689, Note_on_c, 3, 60, 0
7, 9690, Note_on_c, 3, 63, 60
7, 9719, Note_on_c, 3, 63, 0
7, 9720, Note_on_c, 3, 69, 60
7, 9749, Note_on_c, 3, 69, 0
7, 9750, Note_on_c, 3, 63, 60
7, 9779, Note_on_c, 3, 63, 0
7, 9780, Note_on_c, 3, 60, 60
7, 9809, Note_on_c, 3, 60, 0
7, 9810, Note_on_c, 3, 57, 60
7, 9839, Note_on_c, 3, 57, 0
7, 9840, Note_on_c, 3, 51, 60
7, 9869, Note_on_c, 3, 51, 0
7, 9870, Note_on_c, 3, 57, 60
7, 9899, Note_on_c, 3, 57, 0
7, 9900, Note_on_c, 3, 60, 60
7, 9929, Note_on_c, 3, 60, 0
7, 9930, Note_on_c, 3, 63, 60
7, 9959, Note_on_c, 3, 63, 0
7, 9960, Note_on_c, 3, 69, 60
7, 9989, Note_on_c, 3, 69, 0
7, 9990, Note_on_c, 3, 63, 60
7, 10019, Note_on_c, 3, 63, 0
7, 10020, Note_on_c, 3, 60, 60
7, 10049, Note_on_c, 3, 60, 0
7, 10050, Note_on_c, 3, 57, 60
7, 10079, Note_on_c, 3, 57, 0
7, 10080, Note_on_c, 3, 50, 60
7, 10109, Note_on_c, 3, 50, 0
7, 10110, Note_on_c, 3, 53, 60
7, 10139, Note_on_c, 3, 53, 0
7, 10140, Note_on_c, 3, 57, 60
7, 10169, Note_on_c, 3, 57, 0
7, 10170, Note_on_c, 3, 62, 60
7, 10199, Note_on_c, 3, 62, 0
7, 10200, Note_on_c, 3, 65, 60
7, 10229, Note_on_c, 3, 65, 0
7, 10230, Note_on_c, 3, 62, 60
7, 10259, Note_on_c, 3, 62, 0
7, 10260, Note_on_c, 3, 57, 60
7, 10289, Note_on_c, 3, 57, 0
7, 10290, Note_on_c, 3, 53, 60
7, 10319, Note_on_c, 3, 53, 0
7, 10320, Note_on_c, 3, 50, 60
7, 10349, Note_on_c, 3, 50, 0
7, 10350, Note_on_c, 3, 53, 60
7, 10379, Note_on_c, 3, 53, 0
7, 10380, Note_on_c, 3, 57, 60
7, 10409, Note_on_c, 3, 57, 0
7, 10410, Note_on_c, 3, 62, 60
7, 10439, Note_on_c, 3, 62, 0
7, 10440, Note_on_c, 3, 65, 60
7, 10469, Note_on_c, 3, 65, 0
7, 10470, Note_on_c, 3, 62, 60
7, 10499, Note_on_c, 3, 62, 0
7, 10500, Note_on_c, 3, 57, 60
7, 10529, Note_on_c, 3, 57, 0
7, 10530, Note_on_c, 3, 53, 60
7, 10559, Note_on_c, 3, 53, 0
7, 10560, Note_on_c, 3, 50, 60
7, 10589, Note_on_c, 3, 50, 0
7, 10590, Note_on_c, 3, 53, 60
7, 10619, Note_on_c, 3, 53, 0
7, 10620, Note_on_c, 3, 57, 60
7, 10649, Note_on_c, 3, 57, 0
7, 10650, Note_on_c, 3, 62, 60
7, 10679, Note_on_c, 3, 62, 0
7, 10680, Note_on_c, 3, 65, 60
7, 10709, Note_on_c, 3, 65, 0
7, 10710, Note_on_c, 3, 62, 60
7, 10739, Note_on_c, 3, 62, 0
7, 10740, Note_on_c, 3, 57, 60
7, 10769, Note_on_c, 3, 57, 0
7, 10770, Note_on_c, 3, 53, 60
7, 10799, Note_on_c, 3, 53, 0
7, 10800, Note_on_c, 3, 50, 60
7, 10829, Note_on_c, 3, 50, 0
7, 10830, Note_on_c, 3, 53, 60
7, 10859, Note_on_c, 3, 53, 0
7, 10860, Note_on_c, 3, 57, 60
7, 10889, Note_on_c, 3, 57, 0
7, 10890, Note_on_c, 3, 62, 60
7, 10919, Note_on_c, 3, 62, 0
7, 10920, Note_on_c, 3, 65, 60
7, 10949, Note_on_c, 3, 65, 0
7, 10950, Note_on_c, 3, 62, 60
7, 10979, Note_on_c, 3, 62, 0
7, 10980, Note_on_c, 3, 57, 60
7, 11009, Note_on_c, 3, 57, 0
7, 11010, Note_on_c, 3, 53, 60
7, 11039, Note_on_c, 3, 53, 0
7, 11040, Note_on_c, 3, 50, 60
7, 11069, Note_on_c, 3, 50, 0
7, 11070, Note_on_c, 3, 53, 60
7, 11098, Note_on_c, 3, 53, 0
7, 11100, Note_on_c, 3, 57, 60
7, 11128, Note_on_c, 3, 57, 0
7, 11130, Note_on_c, 3, 62, 60
7, 11159, Note_on_c, 3, 62, 0
7, 11160, Note_on_c, 3, 65, 60
7, 11189, Note_on_c, 3, 65, 0
7, 11190, Note_on_c, 3, 62, 60
7, 11218, Note_on_c, 3, 62, 0
7, 11220, Note_on_c, 3, 57, 60
7, 11248, Note_on_c, 3, 57, 0
7, 11250, Note_on_c, 3, 53, 60
7, 11278, Note_on_c, 3, 53, 0
7, 11280, Note_on_c, 3, 50, 60
7, 11308, Note_on_c, 3, 50, 0
7, 11310, Note_on_c, 3, 53, 60
7, 11338, Note_on_c, 3, 53, 0
7, 11340, Note_on_c, 3, 57, 60
7, 11368, Note_on_c, 3, 57, 0
7, 11370, Note_on_c, 3, 62, 60
7, 11399, Note_on_c, 3, 62, 0
7, 11400, Note_on_c, 3, 65, 60
7, 11428, Note_on_c, 3, 65, 0
7, 11430, Note_on_c, 3, 62, 60
7, 11459, Note_on_c, 3, 62, 0
7, 11460, Note_on_c, 3, 57, 60
7, 11489, Note_on_c, 3, 57, 0
7, 11490, Note_on_c, 3, 53, 60
7, 11519, Note_on_c, 3, 53, 0
7, 11520, Note_on_c, 3, 51, 60
7, 11548, Note_on_c, 3, 51, 0
7, 11550, Note_on_c, 3, 57, 60
7, 11579, Note_on_c, 3, 57, 0
7, 11580, Note_on_c, 3, 60, 60
7, 11609, Note_on_c, 3, 60, 0
7, 11610, Note_on_c, 3, 63, 60
7, 11639, Note_on_c, 3, 63, 0
7, 11640, Note_on_c, 3, 69, 60
7, 11668, Note_on_c, 3, 69, 0
7, 11670, Note_on_c, 3, 63, 60
7, 11699, Note_on_c, 3, 63, 0
7, 11700, Note_on_c, 3, 60, 60
7, 11729, Note_on_c, 3, 60, 0
7, 11730, Note_on_c, 3, 57, 60
7, 11759, Note_on_c, 3, 57, 0
7, 11760, Note_on_c, 3, 51, 60
7, 11788, Note_on_c, 3, 51, 0
7, 11790, Note_on_c, 3, 57, 60
7, 11819, Note_on_c, 3, 57, 0
7, 11820, Note_on_c, 3, 60, 60
7, 11849, Note_on_c, 3, 60, 0
7, 11850, Note_on_c, 3, 63, 60
7, 11879, Note_on_c, 3, 63, 0
7, 11880, Note_on_c, 3, 69, 60
7, 11908, Note_on_c, 3, 69, 0
7, 11910, Note_on_c, 3, 63, 60
7, 11939, Note_on_c, 3, 63, 0
7, 11940, Note_on_c, 3, 60, 60
7, 11969, Note_on_c, 3, 60, 0
7, 11970, Note_on_c, 3, 57, 60
7, 11999, Note_on_c, 3, 57, 0
7, 12000, Note_on_c, 3, 50, 60
7, 12029, Note_on_c, 3, 50, 0
7, 12030, Note_on_c, 3, 53, 60
7, 12059, Note_on_c, 3, 53, 0
7, 12060, Note_on_c, 3, 57, 60
7, 12089, Note_on_c, 3, 57, 0
7, 12090, Note_on_c, 3, 62, 60
7, 12119, Note_on_c, 3, 62, 0
7, 12120, Note_on_c, 3, 65, 60
7, 12149, Note_on_c, 3, 65, 0
7, 12150, Note_on_c, 3, 62, 60
7, 12179, Note_on_c, 3, 62, 0
7, 12180, Note_on_c, 3, 57, 60
7, 12209, Note_on_c, 3, 57, 0
7, 12210, Note_on_c, 3, 53, 60
7, 12239, Note_on_c, 3, 53, 0
7, 12240, Note_on_c, 3, 50, 60
7, 12269, Note_on_c, 3, 50, 0
7, 12270, Note_on_c, 3, 53, 60
7, 12299, Note_on_c, 3, 53, 0
7, 12300, Note_on_c, 3, 57, 60
7, 12329, Note_on_c, 3, 57, 0
7, 12330, Note_on_c, 3, 62, 60
7, 12359, Note_on_c, 3, 62, 0
7, 12360, Note_on_c, 3, 65, 60
7, 12389, Note_on_c, 3, 65, 0
7, 12390, Note_on_c, 3, 62, 60
7, 12419, Note_on_c, 3, 62, 0
7, 12420, Note_on_c, 3, 57, 60
7, 12449, Note_on_c, 3, 57, 0
7, 12450, Note_on_c, 3, 53, 60
7, 12479, Note_on_c, 3, 53, 0
7, 12480, Note_on_c, 3, 51, 60
7, 12509, Note_on_c, 3, 51, 0
7, 12510, Note_on_c, 3, 57, 60
7, 12539, Note_on_c, 3, 57, 0
7, 12540, Note_on_c, 3, 60, 60
7, 12569, Note_on_c, 3, 60, 0
7, 12570, Note_on_c, 3, 63, 60
7, 12599, Note_on_c, 3, 63, 0
7, 12600, Note_on_c, 3, 69, 60
7, 12629, Note_on_c, 3, 69, 0
7, 12630, Note_on_c, 3, 63, 60
7, 12659, Note_on_c, 3, 63, 0
7, 12660, Note_on_c, 3, 60, 60
7, 12689, Note_on_c, 3, 60, 0
7, 12690, Note_on_c, 3, 57, 60
7, 12719, Note_on_c, 3, 57, 0
7, 12720, Note_on_c, 3, 51, 60
7, 12749, Note_on_c, 3, 51, 0
7, 12750, Note_on_c, 3, 57, 60
7, 12779, Note_on_c, 3, 57, 0
7, 12780, Note_on_c, 3, 60, 60
7, 12809, Note_on_c, 3, 60, 0
7, 12810, Note_on_c, 3, 63, 60
7, 12839, Note_on_c, 3, 63, 0
7, 12840, Note_on_c, 3, 69, 60
7, 12869, Note_on_c, 3, 69, 0
7, 12870, Note_on_c, 3, 63, 60
7, 12899, Note_on_c, 3, 63, 0
7, 12900, Note_on_c, 3, 60, 60
7, 12929, Note_on_c, 3, 60, 0
7, 12930, Note_on_c, 3, 57, 60
7, 12959, Note_on_c, 3, 57, 0
7, 12960, Note_on_c, 3, 50, 60
7, 12989, Note_on_c, 3, 50, 0
7, 12990, Note_on_c, 3, 53, 60
7, 13019, Note_on_c, 3, 53, 0
7, 13020, Note_on_c, 3, 57, 60
7, 13049, Note_on_c, 3, 57, 0
7, 13050, Note_on_c, 3, 62, 60
7, 13079, Note_on_c, 3, 62, 0
7, 13080, Note_on_c, 3, 65, 60
7, 13109, Note_on_c, 3, 65, 0
7, 13110, Note_on_c, 3, 62, 60
7, 13139, Note_on_c, 3, 62, 0
7, 13140, Note_on_c, 3, 57, 60
7, 13169, Note_on_c, 3, 57, 0
7, 13170, Note_on_c, 3, 53, 60
7, 13199, Note_on_c, 3, 53, 0
7, 13200, Note_on_c, 3, 50, 60
7, 13229, Note_on_c, 3, 50, 0
7, 13230, Note_on_c, 3, 53, 60
7, 13259, Note_on_c, 3, 53, 0
7, 13260, Note_on_c, 3, 57, 60
7, 13289, Note_on_c, 3, 57, 0
7, 13290, Note_on_c, 3, 62, 60
7, 13319, Note_on_c, 3, 62, 0
7, 13320, Note_on_c, 3, 65, 60
7, 13349, Note_on_c, 3, 65, 0
7, 13350, Note_on_c, 3, 62, 60
7, 13378, Note_on_c, 3, 62, 0
7, 13380, Note_on_c, 3, 57, 60
7, 13408, Note_on_c, 3, 57, 0
7, 13410, Note_on_c, 3, 53, 60
7, 13439, Note_on_c, 3, 53, 0
7, 13440, Note_on_c, 3, 50, 60
7, 13469, Note_on_c, 3, 50, 0
7, 13470, Note_on_c, 3, 53, 60
7, 13498, Note_on_c, 3, 53, 0
7, 13500, Note_on_c, 3, 57, 60
7, 13528, Note_on_c, 3, 57, 0
7, 13530, Note_on_c, 3, 62, 60
7, 13558, Note_on_c, 3, 62, 0
7, 13560, Note_on_c, 3, 65, 60
7, 13588, Note_on_c, 3, 65, 0
7, 13590, Note_on_c, 3, 62, 60
7, 13618, Note_on_c, 3, 62, 0
7, 13620, Note_on_c, 3, 57, 60
7, 13648, Note_on_c, 3, 57, 0
7, 13650, Note_on_c, 3, 53, 60
7, 13679, Note_on_c, 3, 53, 0
7, 13680, Note_on_c, 3, 50, 60
7, 13708, Note_on_c, 3, 50, 0
7, 13710, Note_on_c, 3, 53, 60
7, 13739, Note_on_c, 3, 53, 0
7, 13740, Note_on_c, 3, 57, 60
7, 13769, Note_on_c, 3, 57, 0
7, 13770, Note_on_c, 3, 62, 60
7, 13799, Note_on_c, 3, 62, 0
7, 13800, Note_on_c, 3, 65, 60
7, 13828, Note_on_c, 3, 65, 0
7, 13830, Note_on_c, 3, 62, 60
7, 13859, Note_on_c, 3, 62, 0
7, 13860, Note_on_c, 3, 57, 60
7, 13889, Note_on_c, 3, 57, 0
7, 13890, Note_on_c, 3, 53, 60
7, 13919, Note_on_c, 3, 53, 0
7, 13920, Note_on_c, 3, 50, 60
7, 13948, Note_on_c, 3, 50, 0
7, 13950, Note_on_c, 3, 53, 60
7, 13979, Note_on_c, 3, 53, 0
7, 13980, Note_on_c, 3, 57, 60
7, 14009, Note_on_c, 3, 57, 0
7, 14010, Note_on_c, 3, 62, 60
7, 14039, Note_on_c, 3, 62, 0
7, 14040, Note_on_c, 3, 65, 60
7, 14068, Note_on_c, 3, 65, 0
7, 14070, Note_on_c, 3, 62, 60
7, 14099, Note_on_c, 3, 62, 0
7, 14100, Note_on_c, 3, 57, 60
7, 14129, Note_on_c, 3, 57, 0
7, 14130, Note_on_c, 3, 53, 60
7, 14159, Note_on_c, 3, 53, 0
7, 14160, Note_on_c, 3, 50, 60
7, 14189, Note_on_c, 3, 50, 0
7, 14190, Note_on_c, 3, 53, 60
7, 14219, Note_on_c, 3, 53, 0
7, 14220, Note_on_c, 3, 57, 60
7, 14249, Note_on_c, 3, 57, 0
7, 14250, Note_on_c, 3, 62, 60
7, 14279, Note_on_c, 3, 62, 0
7, 14280, Note_on_c, 3, 65, 60
7, 14309, Note_on_c, 3, 65, 0
7, 14310, Note_on_c, 3, 62, 60
7, 14339, Note_on_c, 3, 62, 0
7, 14340, Note_on_c, 3, 57, 60
7, 14369, Note_on_c, 3, 57, 0
7, 14370, Note_on_c, 3, 53, 60
7, 14399, Note_on_c, 3, 53, 0
7, 14400, Note_on_c, 3, 50, 60
7, 14429, Note_on_c, 3, 50, 0
7, 14430, Note_on_c, 3, 53, 60
7, 14459, Note_on_c, 3, 53, 0
7, 14460, Note_on_c, 3, 57, 60
7, 14489, Note_on_c, 3, 57, 0
7, 14490, Note_on_c, 3, 62, 60
7, 14519, Note_on_c, 3, 62, 0
7, 14520, Note_on_c, 3, 65, 60
7, 14549, Note_on_c, 3, 65, 0
7, 14550, Note_on_c, 3, 62, 60
7, 14579, Note_on_c, 3, 62, 0
7, 14580, Note_on_c, 3, 57, 60
7, 14609, Note_on_c, 3, 57, 0
7, 14610, Note_on_c, 3, 53, 60
7, 14639, Note_on_c, 3, 53, 0
7, 14640, Note_on_c, 3, 50, 60
7, 14669, Note_on_c, 3, 50, 0
7, 14670, Note_on_c, 3, 53, 60
7, 14699, Note_on_c, 3, 53, 0
7, 14700, Note_on_c, 3, 57, 60
7, 14729, Note_on_c, 3, 57, 0
7, 14730, Note_on_c, 3, 62, 60
7, 14759, Note_on_c, 3, 62, 0
7, 14760, Note_on_c, 3, 65, 60
7, 14789, Note_on_c, 3, 65, 0
7, 14790, Note_on_c, 3, 62, 60
7, 14819, Note_on_c, 3, 62, 0
7, 14820, Note_on_c, 3, 57, 60
7, 14849, Note_on_c, 3, 57, 0
7, 14850, Note_on_c, 3, 53, 60
7, 14879, Note_on_c, 3, 53, 0
7, 14880, Note_on_c, 3, 50, 60
7, 14909, Note_on_c, 3, 50, 0
7, 14910, Note_on_c, 3, 53, 60
7, 14939, Note_on_c, 3, 53, 0
7, 14940, Note_on_c, 3, 57, 60
7, 14969, Note_on_c, 3, 57, 0
7, 14970, Note_on_c, 3, 62, 60
7, 14999, Note_on_c, 3, 62, 0
7, 15000, Note_on_c, 3, 65, 60
7, 15029, Note_on_c, 3, 65, 0
7, 15030, Note_on_c, 3, 62, 60
7, 15059, Note_on_c, 3, 62, 0
7, 15060, Note_on_c, 3, 57, 60
7, 15089, Note_on_c, 3, 57, 0
7, 15090, Note_on_c, 3, 53, 60
7, 15119, Note_on_c, 3, 53, 0
7, 15180, Note_on_c, 3, 74, 60
7, 15235, Note_on_c, 3, 74, 0
7, 15235, End_track
8, 0, Start_track
8, 0, Title_t, "Bass Clarinet"
8, 8640, Note_on_c, 3, 58, 60
8, 8669, Note_on_c, 3, 58, 0
8, 8700, Note_on_c, 3, 65, 60
8, 8729, Note_on_c, 3, 65, 0
8, 8760, Note_on_c, 3, 58, 60
8, 8789, Note_on_c, 3, 58, 0
8, 8820, Note_on_c, 3, 65, 60
8, 8849, Note_on_c, 3, 65, 0
8, 8880, Note_on_c, 3, 58, 60
8, 8909, Note_on_c, 3, 58, 0
8, 8940, Note_on_c, 3, 65, 60
8, 8969, Note_on_c, 3, 65, 0
8, 9000, Note_on_c, 3, 58, 60
8, 9029, Note_on_c, 3, 58, 0
8, 9060, Note_on_c, 3, 65, 60
8, 9089, Note_on_c, 3, 65, 0
8, 9120, Note_on_c, 3, 58, 60
8, 9149, Note_on_c, 3, 58, 0
8, 9180, Note_on_c, 3, 65, 60
8, 9209, Note_on_c, 3, 65, 0
8, 9240, Note_on_c, 3, 58, 60
8, 9269, Note_on_c, 3, 58, 0
8, 9300, Note_on_c, 3, 65, 60
8, 9329, Note_on_c, 3, 65, 0
8, 9360, Note_on_c, 3, 58, 60
8, 9389, Note_on_c, 3, 58, 0
8, 9420, Note_on_c, 3, 65, 60
8, 9449, Note_on_c, 3, 65, 0
8, 9480, Note_on_c, 3, 58, 60
8, 9509, Note_on_c, 3, 58, 0
8, 9540, Note_on_c, 3, 65, 60
8, 9569, Note_on_c, 3, 65, 0
8, 9600, Note_on_c, 3, 57, 60
8, 9629, Note_on_c, 3, 57, 0
8, 9660, Note_on_c, 3, 63, 60
8, 9688, Note_on_c, 3, 63, 0
8, 9720, Note_on_c, 3, 57, 60
8, 9749, Note_on_c, 3, 57, 0
8, 9780, Note_on_c, 3, 63, 60
8, 9808, Note_on_c, 3, 63, 0
8, 9840, Note_on_c, 3, 57, 60
8, 9868, Note_on_c, 3, 57, 0
8, 9900, Note_on_c, 3, 63, 60
8, 9928, Note_on_c, 3, 63, 0
8, 9960, Note_on_c, 3, 57, 60
8, 9988, Note_on_c, 3, 57, 0
8, 10020, Note_on_c, 3, 63, 60
8, 10048, Note_on_c, 3, 63, 0
8, 10080, Note_on_c, 3, 58, 60
8, 10108, Note_on_c, 3, 58, 0
8, 10140, Note_on_c, 3, 65, 60
8, 10169, Note_on_c, 3, 65, 0
8, 10200, Note_on_c, 3, 58, 60
8, 10228, Note_on_c, 3, 58, 0
8, 10260, Note_on_c, 3, 65, 60
8, 10289, Note_on_c, 3, 65, 0
8, 10320, Note_on_c, 3, 58, 60
8, 10348, Note_on_c, 3, 58, 0
8, 10380, Note_on_c, 3, 65, 60
8, 10409, Note_on_c, 3, 65, 0
8, 10440, Note_on_c, 3, 58, 60
8, 10469, Note_on_c, 3, 58, 0
8, 10500, Note_on_c, 3, 65, 60
8, 10529, Note_on_c, 3, 65, 0
8, 10560, Note_on_c, 3, 58, 60
8, 10588, Note_on_c, 3, 58, 0
8, 10620, Note_on_c, 3, 65, 60
8, 10649, Note_on_c, 3, 65, 0
8, 10680, Note_on_c, 3, 58, 60
8, 10709, Note_on_c, 3, 58, 0
8, 10740, Note_on_c, 3, 65, 60
8, 10769, Note_on_c, 3, 65, 0
8, 10800, Note_on_c, 3, 58, 60
8, 10829, Note_on_c, 3, 58, 0
8, 10860, Note_on_c, 3, 65, 60
8, 10889, Note_on_c, 3, 65, 0
8, 10920, Note_on_c, 3, 58, 60
8, 10949, Note_on_c, 3, 58, 0
8, 10980, Note_on_c, 3, 65, 60
8, 11009, Note_on_c, 3, 65, 0
8, 11040, Note_on_c, 3, 58, 60
8, 11069, Note_on_c, 3, 58, 0
8, 11100, Note_on_c, 3, 65, 60
8, 11129, Note_on_c, 3, 65, 0
8, 11160, Note_on_c, 3, 58, 60
8, 11189, Note_on_c, 3, 58, 0
8, 11220, Note_on_c, 3, 65, 60
8, 11249, Note_on_c, 3, 65, 0
8, 11280, Note_on_c, 3, 58, 60
8, 11309, Note_on_c, 3, 58, 0
8, 11340, Note_on_c, 3, 65, 60
8, 11369, Note_on_c, 3, 65, 0
8, 11400, Note_on_c, 3, 58, 60
8, 11429, Note_on_c, 3, 58, 0
8, 11460, Note_on_c, 3, 65, 60
8, 11489, Note_on_c, 3, 65, 0
8, 11520, Note_on_c, 3, 57, 60
8, 11549, Note_on_c, 3, 57, 0
8, 11580, Note_on_c, 3, 63, 60
8, 11609, Note_on_c, 3, 63, 0
8, 11640, Note_on_c, 3, 57, 60
8, 11669, Note_on_c, 3, 57, 0
8, 11700, Note_on_c, 3, 63, 60
8, 11729, Note_on_c, 3, 63, 0
8, 11760, Note_on_c, 3, 57, 60
8, 11789, Note_on_c, 3, 57, 0
8, 11820, Note_on_c, 3, 63, 60
8, 11849, Note_on_c, 3, 63, 0
8, 11880, Note_on_c, 3, 57, 60
8, 11909, Note_on_c, 3, 57, 0
8, 11940, Note_on_c, 3, 63, 60
8, 11969, Note_on_c, 3, 63, 0
8, 12000, Note_on_c, 3, 58, 60
8, 12028, Note_on_c, 3, 58, 0
8, 12060, Note_on_c, 3, 65, 60
8, 12088, Note_on_c, 3, 65, 0
8, 12120, Note_on_c, 3, 58, 60
8, 12148, Note_on_c, 3, 58, 0
8, 12180, Note_on_c, 3, 65, 60
8, 12208, Note_on_c, 3, 65, 0
8, 12240, Note_on_c, 3, 58, 60
8, 12268, Note_on_c, 3, 58, 0
8, 12300, Note_on_c, 3, 65, 60
8, 12329, Note_on_c, 3, 65, 0
8, 12360, Note_on_c, 3, 58, 60
8, 12388, Note_on_c, 3, 58, 0
8, 12420, Note_on_c, 3, 65, 60
8, 12449, Note_on_c, 3, 65, 0
8, 12480, Note_on_c, 3, 57, 60
8, 12508, Note_on_c, 3, 57, 0
8, 12540, Note_on_c, 3, 63, 60
8, 12569, Note_on_c, 3, 63, 0
8, 12600, Note_on_c, 3, 57, 60
8, 12628, Note_on_c, 3, 57, 0
8, 12660, Note_on_c, 3, 63, 60
8, 12689, Note_on_c, 3, 63, 0
8, 12720, Note_on_c, 3, 57, 60
8, 12748, Note_on_c, 3, 57, 0
8, 12780, Note_on_c, 3, 63, 60
8, 12809, Note_on_c, 3, 63, 0
8, 12840, Note_on_c, 3, 57, 60
8, 12869, Note_on_c, 3, 57, 0
8, 12900, Note_on_c, 3, 63, 60
8, 12929, Note_on_c, 3, 63, 0
8, 12960, Note_on_c, 3, 58, 60
8, 12989, Note_on_c, 3, 58, 0
8, 13020, Note_on_c, 3, 65, 60
8, 13049, Note_on_c, 3, 65, 0
8, 13080, Note_on_c, 3, 58, 60
8, 13109, Note_on_c, 3, 58, 0
8, 13140, Note_on_c, 3, 65, 60
8, 13169, Note_on_c, 3, 65, 0
8, 13200, Note_on_c, 3, 58, 60
8, 13229, Note_on_c, 3, 58, 0
8, 13260, Note_on_c, 3, 65, 60
8, 13289, Note_on_c, 3, 65, 0
8, 13320, Note_on_c, 3, 58, 60
8, 13349, Note_on_c, 3, 58, 0
8, 13380, Note_on_c, 3, 65, 60
8, 13409, Note_on_c, 3, 65, 0
8, 13440, Note_on_c, 3, 58, 60
8, 13469, Note_on_c, 3, 58, 0
8, 13500, Note_on_c, 3, 65, 60
8, 13529, Note_on_c, 3, 65, 0
8, 13560, Note_on_c, 3, 58, 60
8, 13589, Note_on_c, 3, 58, 0
8, 13620, Note_on_c, 3, 65, 60
8, 13649, Note_on_c, 3, 65, 0
8, 13680, Note_on_c, 3, 58, 60
8, 13709, Note_on_c, 3, 58, 0
8, 13740, Note_on_c, 3, 65, 60
8, 13769, Note_on_c, 3, 65, 0
8, 13800, Note_on_c, 3, 58, 60
8, 13829, Note_on_c, 3, 58, 0
8, 13860, Note_on_c, 3, 65, 60
8, 13889, Note_on_c, 3, 65, 0
8, 13920, Note_on_c, 3, 58, 60
8, 13949, Note_on_c, 3, 58, 0
8, 13980, Note_on_c, 3, 65, 60
8, 14009, Note_on_c, 3, 65, 0
8, 14040, Note_on_c, 3, 58, 60
8, 14069, Note_on_c, 3, 58, 0
8, 14100, Note_on_c, 3, 65, 60
8, 14129, Note_on_c, 3, 65, 0
8, 14160, Note_on_c, 3, 58, 60
8, 14189, Note_on_c, 3, 58, 0
8, 14220, Note_on_c, 3, 65, 60
8, 14248, Note_on_c, 3, 65, 0
8, 14280, Note_on_c, 3, 58, 60
8, 14309, Note_on_c, 3, 58, 0
8, 14340, Note_on_c, 3, 65, 60
8, 14368, Note_on_c, 3, 65, 0
8, 14400, Note_on_c, 3, 58, 60
8, 14428, Note_on_c, 3, 58, 0
8, 14460, Note_on_c, 3, 65, 60
8, 14488, Note_on_c, 3, 65, 0
8, 14520, Note_on_c, 3, 58, 60
8, 14548, Note_on_c, 3, 58, 0
8, 14580, Note_on_c, 3, 65, 60
8, 14608, Note_on_c, 3, 65, 0
8, 14640, Note_on_c, 3, 58, 60
8, 14668, Note_on_c, 3, 58, 0
8, 14700, Note_on_c, 3, 65, 60
8, 14729, Note_on_c, 3, 65, 0
8, 14760, Note_on_c, 3, 58, 60
8, 14788, Note_on_c, 3, 58, 0
8, 14820, Note_on_c, 3, 65, 60
8, 14849, Note_on_c, 3, 65, 0
8, 14880, Note_on_c, 3, 58, 60
8, 14908, Note_on_c, 3, 58, 0
8, 14940, Note_on_c, 3, 65, 60
8, 14969, Note_on_c, 3, 65, 0
8, 15000, Note_on_c, 3, 58, 60
8, 15029, Note_on_c, 3, 58, 0
8, 15060, Note_on_c, 3, 65, 60
8, 15089, Note_on_c, 3, 65, 0
8, 15180, Note_on_c, 3, 62, 60
8, 15235, Note_on_c, 3, 62, 0
8, 15235, End_track
9, 0, Start_track
9, 0, Title_t, "Bassoon 1"
9, 0, Control_c, 4, 10, 54
9, 0, Program_c, 4, 86
9, 0, Control_c, 4, 7, 40
9, 0, Note_on_c, 4, 41, 60
9, 28, Note_on_c, 4, 41, 0
9, 60, Note_on_c, 4, 34, 60
9, 90, Note_on_c, 4, 34, 0
9, 120, Note_on_c, 4, 41, 60
9, 150, Note_on_c, 4, 41, 0
9, 180, Note_on_c, 4, 34, 60
9, 210, Note_on_c, 4, 34, 0
9, 240, Note_on_c, 4, 41, 60
9, 270, Note_on_c, 4, 41, 0
9, 300, Note_on_c, 4, 34, 60
9, 330, Note_on_c, 4, 34, 0
9, 360, Note_on_c, 4, 41, 60
9, 389, Note_on_c, 4, 41, 0
9, 420, Note_on_c, 4, 34, 60
9, 450, Note_on_c, 4, 34, 0
9, 480, Note_on_c, 4, 41, 60
9, 509, Note_on_c, 4, 41, 0
9, 540, Note_on_c, 4, 34, 60
9, 569, Note_on_c, 4, 34, 0
9, 600, Note_on_c, 4, 41, 60
9, 629, Note_on_c, 4, 41, 0
9, 660, Note_on_c, 4, 34, 60
9, 690, Note_on_c, 4, 34, 0
9, 720, Note_on_c, 4, 41, 60
9, 749, Note_on_c, 4, 41, 0
9, 780, Note_on_c, 4, 34, 60
9, 810, Note_on_c, 4, 34, 0
9, 840, Note_on_c, 4, 41, 60
9, 869, Note_on_c, 4, 41, 0
9, 900, Note_on_c, 4, 34, 60
9, 930, Note_on_c, 4, 34, 0
9, 960, Note_on_c, 4, 41, 60
9, 989, Note_on_c, 4, 41, 0
9, 1020, Note_on_c, 4, 34, 60
9, 1050, Note_on_c, 4, 34, 0
9, 1080, Note_on_c, 4, 41, 60
9, 1109, Note_on_c, 4, 41, 0
9, 1140, Note_on_c, 4, 34, 60
9, 1170, Note_on_c, 4, 34, 0
9, 1200, Note_on_c, 4, 41, 60
9, 1230, Note_on_c, 4, 41, 0
9, 1260, Note_on_c, 4, 34, 60
9, 1290, Note_on_c, 4, 34, 0
9, 1320, Note_on_c, 4, 41, 60
9, 1350, Note_on_c, 4, 41, 0
9, 1380, Note_on_c, 4, 34, 60
9, 1410, Note_on_c, 4, 34, 0
9, 1440, Note_on_c, 4, 41, 60
9, 1470, Note_on_c, 4, 41, 0
9, 1500, Note_on_c, 4, 34, 60
9, 1530, Note_on_c, 4, 34, 0
9, 1560, Note_on_c, 4, 41, 60
9, 1590, Note_on_c, 4, 41, 0
9, 1620, Note_on_c, 4, 34, 60
9, 1650, Note_on_c, 4, 34, 0
9, 1680, Note_on_c, 4, 41, 60
9, 1710, Note_on_c, 4, 41, 0
9, 1740, Note_on_c, 4, 34, 60
9, 1770, Note_on_c, 4, 34, 0
9, 1800, Note_on_c, 4, 41, 60
9, 1830, Note_on_c, 4, 41, 0
9, 1860, Note_on_c, 4, 34, 60
9, 1890, Note_on_c, 4, 34, 0
9, 1920, Note_on_c, 4, 41, 60
9, 1950, Note_on_c, 4, 41, 0
9, 1980, Note_on_c, 4, 34, 60
9, 2010, Note_on_c, 4, 34, 0
9, 2040, Note_on_c, 4, 41, 60
9, 2070, Note_on_c, 4, 41, 0
9, 2100, Note_on_c, 4, 34, 60
9, 2130, Note_on_c, 4, 34, 0
9, 2160, Note_on_c, 4, 41, 60
9, 2190, Note_on_c, 4, 41, 0
9, 2220, Note_on_c, 4, 34, 60
9, 2250, Note_on_c, 4, 34, 0
9, 2280, Note_on_c, 4, 41, 60
9, 2310, Note_on_c, 4, 41, 0
9, 2340, Note_on_c, 4, 34, 60
9, 2370, Note_on_c, 4, 34, 0
9, 2400, Note_on_c, 4, 41, 60
9, 2430, Note_on_c, 4, 41, 0
9, 2460, Note_on_c, 4, 34, 60
9, 2490, Note_on_c, 4, 34, 0
9, 2520, Note_on_c, 4, 41, 60
9, 2550, Note_on_c, 4, 41, 0
9, 2580, Note_on_c, 4, 34, 60
9, 2610, Note_on_c, 4, 34, 0
9, 2640, Note_on_c, 4, 41, 60
9, 2669, Note_on_c, 4, 41, 0
9, 2700, Note_on_c, 4, 34, 60
9, 2729, Note_on_c, 4, 34, 0
9, 2760, Note_on_c, 4, 41, 60
9, 2789, Note_on_c, 4, 41, 0
9, 2820, Note_on_c, 4, 34, 60
9, 2849, Note_on_c, 4, 34, 0
9, 2880, Note_on_c, 4, 41, 60
9, 2909, Note_on_c, 4, 41, 0
9, 2940, Note_on_c, 4, 34, 60
9, 2969, Note_on_c, 4, 34, 0
9, 3000, Note_on_c, 4, 41, 60
9, 3029, Note_on_c, 4, 41, 0
9, 3060, Note_on_c, 4, 34, 60
9, 3090, Note_on_c, 4, 34, 0
9, 3120, Note_on_c, 4, 41, 60
9, 3149, Note_on_c, 4, 41, 0
9, 3180, Note_on_c, 4, 34, 60
9, 3210, Note_on_c, 4, 34, 0
9, 3240, Note_on_c, 4, 41, 60
9, 3269, Note_on_c, 4, 41, 0
9, 3300, Note_on_c, 4, 34, 60
9, 3330, Note_on_c, 4, 34, 0
9, 3360, Note_on_c, 4, 41, 60
9, 3389, Note_on_c, 4, 41, 0
9, 3420, Note_on_c, 4, 34, 60
9, 3450, Note_on_c, 4, 34, 0
9, 3480, Note_on_c, 4, 41, 60
9, 3510, Note_on_c, 4, 41, 0
9, 3540, Note_on_c, 4, 34, 60
9, 3570, Note_on_c, 4, 34, 0
9, 3600, Note_on_c, 4, 41, 60
9, 3630, Note_on_c, 4, 41, 0
9, 3660, Note_on_c, 4, 34, 60
9, 3690, Note_on_c, 4, 34, 0
9, 3720, Note_on_c, 4, 41, 60
9, 3750, Note_on_c, 4, 41, 0
9, 3780, Note_on_c, 4, 34, 60
9, 3810, Note_on_c, 4, 34, 0
9, 3840, Note_on_c, 4, 41, 60
9, 3870, Note_on_c, 4, 41, 0
9, 3900, Note_on_c, 4, 34, 60
9, 3930, Note_on_c, 4, 34, 0
9, 3960, Note_on_c, 4, 41, 60
9, 3990, Note_on_c, 4, 41, 0
9, 4020, Note_on_c, 4, 34, 60
9, 4050, Note_on_c, 4, 34, 0
9, 4080, Note_on_c, 4, 41, 60
9, 4110, Note_on_c, 4, 41, 0
9, 4140, Note_on_c, 4, 34, 60
9, 4170, Note_on_c, 4, 34, 0
9, 4200, Note_on_c, 4, 41, 60
9, 4230, Note_on_c, 4, 41, 0
9, 4260, Note_on_c, 4, 34, 60
9, 4290, Note_on_c, 4, 34, 0
9, 4320, Note_on_c, 4, 41, 60
9, 4350, Note_on_c, 4, 41, 0
9, 4380, Note_on_c, 4, 34, 60
9, 4410, Note_on_c, 4, 34, 0
9, 4440, Note_on_c, 4, 41, 60
9, 4470, Note_on_c, 4, 41, 0
9, 4500, Note_on_c, 4, 34, 60
9, 4530, Note_on_c, 4, 34, 0
9, 4560, Note_on_c, 4, 41, 60
9, 4590, Note_on_c, 4, 41, 0
9, 4620, Note_on_c, 4, 34, 60
9, 4650, Note_on_c, 4, 34, 0
9, 4680, Note_on_c, 4, 41, 60
9, 4710, Note_on_c, 4, 41, 0
9, 4740, Note_on_c, 4, 34, 60
9, 4770, Note_on_c, 4, 34, 0
9, 4800, Note_on_c, 4, 41, 60
9, 4830, Note_on_c, 4, 41, 0
9, 4860, Note_on_c, 4, 34, 60
9, 4890, Note_on_c, 4, 34, 0
9, 4920, Note_on_c, 4, 41, 60
9, 4950, Note_on_c, 4, 41, 0
9, 4980, Note_on_c, 4, 34, 60
9, 5009, Note_on_c, 4, 34, 0
9, 5040, Note_on_c, 4, 41, 60
9, 5069, Note_on_c, 4, 41, 0
9, 5100, Note_on_c, 4, 34, 60
9, 5129, Note_on_c, 4, 34, 0
9, 5160, Note_on_c, 4, 41, 60
9, 5189, Note_on_c, 4, 41, 0
9, 5220, Note_on_c, 4, 34, 60
9, 5250, Note_on_c, 4, 34, 0
9, 5280, Note_on_c, 4, 41, 60
9, 5309, Note_on_c, 4, 41, 0
9, 5340, Note_on_c, 4, 34, 60
9, 5370, Note_on_c, 4, 34, 0
9, 5400, Note_on_c, 4, 41, 60
9, 5429, Note_on_c, 4, 41, 0
9, 5460, Note_on_c, 4, 34, 60
9, 5490, Note_on_c, 4, 34, 0
9, 5520, Note_on_c, 4, 41, 60
9, 5549, Note_on_c, 4, 41, 0
9, 5580, Note_on_c, 4, 34, 60
9, 5610, Note_on_c, 4, 34, 0
9, 5640, Note_on_c, 4, 41, 60
9, 5669, Note_on_c, 4, 41, 0
9, 5700, Note_on_c, 4, 34, 60
9, 5730, Note_on_c, 4, 34, 0
9, 5760, Note_on_c, 4, 41, 60
9, 5790, Note_on_c, 4, 41, 0
9, 5820, Note_on_c, 4, 34, 60
9, 5850, Note_on_c, 4, 34, 0
9, 5880, Note_on_c, 4, 41, 60
9, 5910, Note_on_c, 4, 41, 0
9, 5940, Note_on_c, 4, 34, 60
9, 5970, Note_on_c, 4, 34, 0
9, 6000, Note_on_c, 4, 41, 60
9, 6030, Note_on_c, 4, 41, 0
9, 6060, Note_on_c, 4, 34, 60
9, 6090, Note_on_c, 4, 34, 0
9, 6120, Note_on_c, 4, 41, 60
9, 6150, Note_on_c, 4, 41, 0
9, 6180, Note_on_c, 4, 34, 60
9, 6210, Note_on_c, 4, 34, 0
9, 6240, Note_on_c, 4, 41, 60
9, 6270, Note_on_c, 4, 41, 0
9, 6300, Note_on_c, 4, 34, 60
9, 6330, Note_on_c, 4, 34, 0
9, 6360, Note_on_c, 4, 41, 60
9, 6390, Note_on_c, 4, 41, 0
9, 6420, Note_on_c, 4, 34, 60
9, 6450, Note_on_c, 4, 34, 0
9, 6480, Note_on_c, 4, 41, 60
9, 6510, Note_on_c, 4, 41, 0
9, 6540, Note_on_c, 4, 34, 60
9, 6570, Note_on_c, 4, 34, 0
9, 6600, Note_on_c, 4, 41, 60
9, 6630, Note_on_c, 4, 41, 0
9, 6660, Note_on_c, 4, 34, 60
9, 6690, Note_on_c, 4, 34, 0
9, 6720, Note_on_c, 4, 41, 60
9, 6750, Note_on_c, 4, 41, 0
9, 6780, Note_on_c, 4, 34, 60
9, 6810, Note_on_c, 4, 34, 0
9, 6840, Note_on_c, 4, 41, 60
9, 6870, Note_on_c, 4, 41, 0
9, 6900, Note_on_c, 4, 34, 60
9, 6930, Note_on_c, 4, 34, 0
9, 6960, Note_on_c, 4, 41, 60
9, 6990, Note_on_c, 4, 41, 0
9, 7020, Note_on_c, 4, 34, 60
9, 7050, Note_on_c, 4, 34, 0
9, 7080, Note_on_c, 4, 41, 60
9, 7110, Note_on_c, 4, 41, 0
9, 7140, Note_on_c, 4, 34, 60
9, 7170, Note_on_c, 4, 34, 0
9, 7200, Note_on_c, 4, 41, 60
9, 7229, Note_on_c, 4, 41, 0
9, 7260, Note_on_c, 4, 34, 60
9, 7289, Note_on_c, 4, 34, 0
9, 7320, Note_on_c, 4, 41, 60
9, 7349, Note_on_c, 4, 41, 0
9, 7380, Note_on_c, 4, 34, 60
9, 7409, Note_on_c, 4, 34, 0
9, 7440, Note_on_c, 4, 41, 60
9, 7469, Note_on_c, 4, 41, 0
9, 7500, Note_on_c, 4, 34, 60
9, 7530, Note_on_c, 4, 34, 0
9, 7560, Note_on_c, 4, 41, 60
9, 7589, Note_on_c, 4, 41, 0
9, 7620, Note_on_c, 4, 34, 60
9, 7650, Note_on_c, 4, 34, 0
9, 7680, Note_on_c, 4, 41, 60
9, 7709, Note_on_c, 4, 41, 0
9, 7740, Note_on_c, 4, 34, 60
9, 7770, Note_on_c, 4, 34, 0
9, 7800, Note_on_c, 4, 41, 60
9, 7829, Note_on_c, 4, 41, 0
9, 7860, Note_on_c, 4, 34, 60
9, 7890, Note_on_c, 4, 34, 0
9, 7920, Note_on_c, 4, 41, 60
9, 7949, Note_on_c, 4, 41, 0
9, 7980, Note_on_c, 4, 34, 60
9, 8010, Note_on_c, 4, 34, 0
9, 8040, Note_on_c, 4, 41, 60
9, 8070, Note_on_c, 4, 41, 0
9, 8100, Note_on_c, 4, 34, 60
9, 8130, Note_on_c, 4, 34, 0
9, 8160, Note_on_c, 4, 41, 60
9, 8190, Note_on_c, 4, 41, 0
9, 8220, Note_on_c, 4, 34, 60
9, 8250, Note_on_c, 4, 34, 0
9, 8280, Note_on_c, 4, 41, 60
9, 8310, Note_on_c, 4, 41, 0
9, 8340, Note_on_c, 4, 34, 60
9, 8370, Note_on_c, 4, 34, 0
9, 8400, Note_on_c, 4, 41, 60
9, 8430, Note_on_c, 4, 41, 0
9, 8460, Note_on_c, 4, 34, 60
9, 8490, Note_on_c, 4, 34, 0
9, 8520, Note_on_c, 4, 41, 60
9, 8550, Note_on_c, 4, 41, 0
9, 8580, Note_on_c, 4, 34, 60
9, 8610, Note_on_c, 4, 34, 0
9, 8640, Note_on_c, 4, 41, 60
9, 8670, Note_on_c, 4, 41, 0
9, 8700, Note_on_c, 4, 34, 60
9, 8730, Note_on_c, 4, 34, 0
9, 8760, Note_on_c, 4, 41, 60
9, 8790, Note_on_c, 4, 41, 0
9, 8820, Note_on_c, 4, 34, 60
9, 8850, Note_on_c, 4, 34, 0
9, 8880, Note_on_c, 4, 41, 60
9, 8910, Note_on_c, 4, 41, 0
9, 8940, Note_on_c, 4, 34, 60
9, 8970, Note_on_c, 4, 34, 0
9, 9000, Note_on_c, 4, 41, 60
9, 9030, Note_on_c, 4, 41, 0
9, 9060, Note_on_c, 4, 34, 60
9, 9090, Note_on_c, 4, 34, 0
9, 9120, Note_on_c, 4, 41, 60
9, 9150, Note_on_c, 4, 41, 0
9, 9180, Note_on_c, 4, 34, 60
9, 9210, Note_on_c, 4, 34, 0
9, 9240, Note_on_c, 4, 41, 60
9, 9270, Note_on_c, 4, 41, 0
9, 9300, Note_on_c, 4, 34, 60
9, 9330, Note_on_c, 4, 34, 0
9, 9360, Note_on_c, 4, 41, 60
9, 9390, Note_on_c, 4, 41, 0
9, 9420, Note_on_c, 4, 34, 60
9, 9449, Note_on_c, 4, 34, 0
9, 9480, Note_on_c, 4, 41, 60
9, 9509, Note_on_c, 4, 41, 0
9, 9540, Note_on_c, 4, 34, 60
9, 9570, Note_on_c, 4, 34, 0
9, 9600, Note_on_c, 4, 41, 60
9, 9629, Note_on_c, 4, 41, 0
9, 9660, Note_on_c, 4, 34, 60
9, 9690, Note_on_c, 4, 34, 0
9, 9720, Note_on_c, 4, 41, 60
9, 9749, Note_on_c, 4, 41, 0
9, 9780, Note_on_c, 4, 34, 60
9, 9809, Note_on_c, 4, 34, 0
9, 9840, Note_on_c, 4, 41, 60
9, 9869, Note_on_c, 4, 41, 0
9, 9900, Note_on_c, 4, 34, 60
9, 9930, Note_on_c, 4, 34, 0
9, 9960, Note_on_c, 4, 41, 60
9, 9989, Note_on_c, 4, 41, 0
9, 10020, Note_on_c, 4, 34, 60
9, 10050, Note_on_c, 4, 34, 0
9, 10080, Note_on_c, 4, 41, 60
9, 10109, Note_on_c, 4, 41, 0
9, 10140, Note_on_c, 4, 34, 60
9, 10170, Note_on_c, 4, 34, 0
9, 10200, Note_on_c, 4, 41, 60
9, 10230, Note_on_c, 4, 41, 0
9, 10260, Note_on_c, 4, 34, 60
9, 10290, Note_on_c, 4, 34, 0
9, 10320, Note_on_c, 4, 41, 60
9, 10350, Note_on_c, 4, 41, 0
9, 10380, Note_on_c, 4, 34, 60
9, 10410, Note_on_c, 4, 34, 0
9, 10440, Note_on_c, 4, 41, 60
9, 10470, Note_on_c, 4, 41, 0
9, 10500, Note_on_c, 4, 34, 60
9, 10530, Note_on_c, 4, 34, 0
9, 10560, Note_on_c, 4, 41, 60
9, 10590, Note_on_c, 4, 41, 0
9, 10620, Note_on_c, 4, 34, 60
9, 10650, Note_on_c, 4, 34, 0
9, 10680, Note_on_c, 4, 41, 60
9, 10710, Note_on_c, 4, 41, 0
9, 10740, Note_on_c, 4, 34, 60
9, 10770, Note_on_c, 4, 34, 0
9, 10800, Note_on_c, 4, 41, 60
9, 10830, Note_on_c, 4, 41, 0
9, 10860, Note_on_c, 4, 34, 60
9, 10890, Note_on_c, 4, 34, 0
9, 10920, Note_on_c, 4, 41, 60
9, 10950, Note_on_c, 4, 41, 0
9, 10980, Note_on_c, 4, 34, 60
9, 11010, Note_on_c, 4, 34, 0
9, 11040, Note_on_c, 4, 41, 60
9, 11070, Note_on_c, 4, 41, 0
9, 11100, Note_on_c, 4, 34, 60
9, 11130, Note_on_c, 4, 34, 0
9, 11160, Note_on_c, 4, 41, 60
9, 11190, Note_on_c, 4, 41, 0
9, 11220, Note_on_c, 4, 34, 60
9, 11250, Note_on_c, 4, 34, 0
9, 11280, Note_on_c, 4, 41, 60
9, 11310, Note_on_c, 4, 41, 0
9, 11340, Note_on_c, 4, 34, 60
9, 11370, Note_on_c, 4, 34, 0
9, 11400, Note_on_c, 4, 41, 60
9, 11430, Note_on_c, 4, 41, 0
9, 11460, Note_on_c, 4, 34, 60
9, 11490, Note_on_c, 4, 34, 0
9, 11520, Note_on_c, 4, 41, 60
9, 11550, Note_on_c, 4, 41, 0
9, 11580, Note_on_c, 4, 34, 60
9, 11610, Note_on_c, 4, 34, 0
9, 11640, Note_on_c, 4, 41, 60
9, 11670, Note_on_c, 4, 41, 0
9, 11700, Note_on_c, 4, 34, 60
9, 11730, Note_on_c, 4, 34, 0
9, 11760, Note_on_c, 4, 41, 60
9, 11789, Note_on_c, 4, 41, 0
9, 11820, Note_on_c, 4, 34, 60
9, 11849, Note_on_c, 4, 34, 0
9, 11880, Note_on_c, 4, 41, 60
9, 11909, Note_on_c, 4, 41, 0
9, 11940, Note_on_c, 4, 34, 60
9, 11969, Note_on_c, 4, 34, 0
9, 12000, Note_on_c, 4, 41, 60
9, 12029, Note_on_c, 4, 41, 0
9, 12060, Note_on_c, 4, 34, 60
9, 12090, Note_on_c, 4, 34, 0
9, 12120, Note_on_c, 4, 41, 60
9, 12149, Note_on_c, 4, 41, 0
9, 12180, Note_on_c, 4, 34, 60
9, 12210, Note_on_c, 4, 34, 0
9, 12240, Note_on_c, 4, 41, 60
9, 12269, Note_on_c, 4, 41, 0
9, 12300, Note_on_c, 4, 34, 60
9, 12330, Note_on_c, 4, 34, 0
9, 12360, Note_on_c, 4, 41, 60
9, 12390, Note_on_c, 4, 41, 0
9, 12420, Note_on_c, 4, 34, 60
9, 12450, Note_on_c, 4, 34, 0
9, 12480, Note_on_c, 4, 41, 60
9, 12510, Note_on_c, 4, 41, 0
9, 12540, Note_on_c, 4, 34, 60
9, 12570, Note_on_c, 4, 34, 0
9, 12600, Note_on_c, 4, 41, 60
9, 12630, Note_on_c, 4, 41, 0
9, 12660, Note_on_c, 4, 34, 60
9, 12690, Note_on_c, 4, 34, 0
9, 12720, Note_on_c, 4, 41, 60
9, 12750, Note_on_c, 4, 41, 0
9, 12780, Note_on_c, 4, 34, 60
9, 12810, Note_on_c, 4, 34, 0
9, 12840, Note_on_c, 4, 41, 60
9, 12870, Note_on_c, 4, 41, 0
9, 12900, Note_on_c, 4, 34, 60
9, 12930, Note_on_c, 4, 34, 0
9, 12960, Note_on_c, 4, 41, 60
9, 12990, Note_on_c, 4, 41, 0
9, 13020, Note_on_c, 4, 34, 60
9, 13050, Note_on_c, 4, 34, 0
9, 13080, Note_on_c, 4, 41, 60
9, 13110, Note_on_c, 4, 41, 0
9, 13140, Note_on_c, 4, 34, 60
9, 13170, Note_on_c, 4, 34, 0
9, 13200, Note_on_c, 4, 41, 60
9, 13230, Note_on_c, 4, 41, 0
9, 13260, Note_on_c, 4, 34, 60
9, 13290, Note_on_c, 4, 34, 0
9, 13320, Note_on_c, 4, 41, 60
9, 13350, Note_on_c, 4, 41, 0
9, 13380, Note_on_c, 4, 34, 60
9, 13410, Note_on_c, 4, 34, 0
9, 13440, Note_on_c, 4, 41, 60
9, 13470, Note_on_c, 4, 41, 0
9, 13500, Note_on_c, 4, 34, 60
9, 13530, Note_on_c, 4, 34, 0
9, 13560, Note_on_c, 4, 41, 60
9, 13590, Note_on_c, 4, 41, 0
9, 13620, Note_on_c, 4, 34, 60
9, 13650, Note_on_c, 4, 34, 0
9, 13680, Note_on_c, 4, 41, 60
9, 13710, Note_on_c, 4, 41, 0
9, 13740, Note_on_c, 4, 34, 60
9, 13770, Note_on_c, 4, 34, 0
9, 13800, Note_on_c, 4, 41, 60
9, 13830, Note_on_c, 4, 41, 0
9, 13860, Note_on_c, 4, 34, 60
9, 13890, Note_on_c, 4, 34, 0
9, 13920, Note_on_c, 4, 41, 60
9, 13950, Note_on_c, 4, 41, 0
9, 13980, Note_on_c, 4, 34, 60
9, 14009, Note_on_c, 4, 34, 0
9, 14040, Note_on_c, 4, 41, 60
9, 14069, Note_on_c, 4, 41, 0
9, 14100, Note_on_c, 4, 34, 60
9, 14129, Note_on_c, 4, 34, 0
9, 14160, Note_on_c, 4, 41, 60
9, 14189, Note_on_c, 4, 41, 0
9, 14220, Note_on_c, 4, 34, 60
9, 14249, Note_on_c, 4, 34, 0
9, 14280, Note_on_c, 4, 41, 60
9, 14309, Note_on_c, 4, 41, 0
9, 14340, Note_on_c, 4, 34, 60
9, 14370, Note_on_c, 4, 34, 0
9, 14400, Note_on_c, 4, 41, 60
9, 14429, Note_on_c, 4, 41, 0
9, 14460, Note_on_c, 4, 34, 60
9, 14490, Note_on_c, 4, 34, 0
9, 14520, Note_on_c, 4, 41, 60
9, 14549, Note_on_c, 4, 41, 0
9, 14580, Note_on_c, 4, 34, 60
9, 14610, Note_on_c, 4, 34, 0
9, 14640, Note_on_c, 4, 41, 60
9, 14669, Note_on_c, 4, 41, 0
9, 14700, Note_on_c, 4, 34, 60
9, 14730, Note_on_c, 4, 34, 0
9, 14760, Note_on_c, 4, 41, 60
9, 14790, Note_on_c, 4, 41, 0
9, 14820, Note_on_c, 4, 34, 60
9, 14850, Note_on_c, 4, 34, 0
9, 14880, Note_on_c, 4, 41, 60
9, 14910, Note_on_c, 4, 41, 0
9, 14940, Note_on_c, 4, 34, 60
9, 14970, Note_on_c, 4, 34, 0
9, 15000, Note_on_c, 4, 41, 60
9, 15030, Note_on_c, 4, 41, 0
9, 15060, Note_on_c, 4, 34, 60
9, 15090, Note_on_c, 4, 34, 0
9, 15180, Note_on_c, 4, 65, 60
9, 15299, Note_on_c, 4, 65, 0
9, 15299, End_track
10, 0, Start_track
10, 0, Title_t, "Bassoon 2"
10, 0, Note_on_c, 4, 38, 60
10, 28, Note_on_c, 4, 38, 0
10, 60, Note_on_c, 4, 38, 60
10, 90, Note_on_c, 4, 38, 0
10, 120, Note_on_c, 4, 38, 60
10, 149, Note_on_c, 4, 38, 0
10, 180, Note_on_c, 4, 38, 60
10, 210, Note_on_c, 4, 38, 0
10, 240, Note_on_c, 4, 38, 60
10, 269, Note_on_c, 4, 38, 0
10, 300, Note_on_c, 4, 38, 60
10, 330, Note_on_c, 4, 38, 0
10, 360, Note_on_c, 4, 38, 60
10, 389, Note_on_c, 4, 38, 0
10, 420, Note_on_c, 4, 38, 60
10, 450, Note_on_c, 4, 38, 0
10, 480, Note_on_c, 4, 38, 60
10, 510, Note_on_c, 4, 38, 0
10, 540, Note_on_c, 4, 38, 60
10, 570, Note_on_c, 4, 38, 0
10, 600, Note_on_c, 4, 38, 60
10, 630, Note_on_c, 4, 38, 0
10, 660, Note_on_c, 4, 38, 60
10, 690, Note_on_c, 4, 38, 0
10, 720, Note_on_c, 4, 38, 60
10, 750, Note_on_c, 4, 38, 0
10, 780, Note_on_c, 4, 38, 60
10, 810, Note_on_c, 4, 38, 0
10, 840, Note_on_c, 4, 38, 60
10, 870, Note_on_c, 4, 38, 0
10, 900, Note_on_c, 4, 38, 60
10, 930, Note_on_c, 4, 38, 0
10, 960, Note_on_c, 4, 38, 60
10, 990, Note_on_c, 4, 38, 0
10, 1020, Note_on_c, 4, 38, 60
10, 1050, Note_on_c, 4, 38, 0
10, 1080, Note_on_c, 4, 38, 60
10, 1110, Note_on_c, 4, 38, 0
10, 1140, Note_on_c, 4, 38, 60
10, 1170, Note_on_c, 4, 38, 0
10, 1200, Note_on_c, 4, 38, 60
10, 1230, Note_on_c, 4, 38, 0
10, 1260, Note_on_c, 4, 38, 60
10, 1290, Note_on_c, 4, 38, 0
10, 1320, Note_on_c, 4, 38, 60
10, 1350, Note_on_c, 4, 38, 0
10, 1380, Note_on_c, 4, 38, 60
10, 1410, Note_on_c, 4, 38, 0
10, 1440, Note_on_c, 4, 38, 60
10, 1470, Note_on_c, 4, 38, 0
10, 1500, Note_on_c, 4, 38, 60
10, 1530, Note_on_c, 4, 38, 0
10, 1560, Note_on_c, 4, 38, 60
10, 1590, Note_on_c, 4, 38, 0
10, 1620, Note_on_c, 4, 38, 60
10, 1650, Note_on_c, 4, 38, 0
10, 1680, Note_on_c, 4, 38, 60
10, 1710, Note_on_c, 4, 38, 0
10, 1740, Note_on_c, 4, 38, 60
10, 1770, Note_on_c, 4, 38, 0
10, 1800, Note_on_c, 4, 38, 60
10, 1830, Note_on_c, 4, 38, 0
10, 1860, Note_on_c, 4, 38, 60
10, 1890, Note_on_c, 4, 38, 0
10, 1920, Note_on_c, 4, 39, 60
10, 1950, Note_on_c, 4, 39, 0
10, 1980, Note_on_c, 4, 36, 60
10, 2010, Note_on_c, 4, 36, 0
10, 2040, Note_on_c, 4, 39, 60
10, 2070, Note_on_c, 4, 39, 0
10, 2100, Note_on_c, 4, 36, 60
10, 2129, Note_on_c, 4, 36, 0
10, 2160, Note_on_c, 4, 39, 60
10, 2189, Note_on_c, 4, 39, 0
10, 2220, Note_on_c, 4, 36, 60
10, 2249, Note_on_c, 4, 36, 0
10, 2280, Note_on_c, 4, 39, 60
10, 2309, Note_on_c, 4, 39, 0
10, 2340, Note_on_c, 4, 36, 60
10, 2370, Note_on_c, 4, 36, 0
10, 2400, Note_on_c, 4, 38, 60
10, 2429, Note_on_c, 4, 38, 0
10, 2460, Note_on_c, 4, 38, 60
10, 2490, Note_on_c, 4, 38, 0
10, 2520, Note_on_c, 4, 38, 60
10, 2549, Note_on_c, 4, 38, 0
10, 2580, Note_on_c, 4, 38, 60
10, 2610, Note_on_c, 4, 38, 0
10, 2640, Note_on_c, 4, 38, 60
10, 2669, Note_on_c, 4, 38, 0
10, 2700, Note_on_c, 4, 38, 60
10, 2730, Note_on_c, 4, 38, 0
10, 2760, Note_on_c, 4, 38, 60
10, 2790, Note_on_c, 4, 38, 0
10, 2820, Note_on_c, 4, 38, 60
10, 2850, Note_on_c, 4, 38, 0
10, 2880, Note_on_c, 4, 38, 60
10, 2910, Note_on_c, 4, 38, 0
10, 2940, Note_on_c, 4, 38, 60
10, 2970, Note_on_c, 4, 38, 0
10, 3000, Note_on_c, 4, 38, 60
10, 3030, Note_on_c, 4, 38, 0
10, 3060, Note_on_c, 4, 38, 60
10, 3090, Note_on_c, 4, 38, 0
10, 3120, Note_on_c, 4, 38, 60
10, 3150, Note_on_c, 4, 38, 0
10, 3180, Note_on_c, 4, 38, 60
10, 3210, Note_on_c, 4, 38, 0
10, 3240, Note_on_c, 4, 38, 60
10, 3270, Note_on_c, 4, 38, 0
10, 3300, Note_on_c, 4, 38, 60
10, 3330, Note_on_c, 4, 38, 0
10, 3360, Note_on_c, 4, 38, 60
10, 3390, Note_on_c, 4, 38, 0
10, 3420, Note_on_c, 4, 38, 60
10, 3450, Note_on_c, 4, 38, 0
10, 3480, Note_on_c, 4, 38, 60
10, 3510, Note_on_c, 4, 38, 0
10, 3540, Note_on_c, 4, 38, 60
10, 3570, Note_on_c, 4, 38, 0
10, 3600, Note_on_c, 4, 38, 60
10, 3630, Note_on_c, 4, 38, 0
10, 3660, Note_on_c, 4, 38, 60
10, 3690, Note_on_c, 4, 38, 0
10, 3720, Note_on_c, 4, 38, 60
10, 3750, Note_on_c, 4, 38, 0
10, 3780, Note_on_c, 4, 38, 60
10, 3810, Note_on_c, 4, 38, 0
10, 3840, Note_on_c, 4, 39, 60
10, 3870, Note_on_c, 4, 39, 0
10, 3900, Note_on_c, 4, 36, 60
10, 3930, Note_on_c, 4, 36, 0
10, 3960, Note_on_c, 4, 39, 60
10, 3990, Note_on_c, 4, 39, 0
10, 4020, Note_on_c, 4, 36, 60
10, 4050, Note_on_c, 4, 36, 0
10, 4080, Note_on_c, 4, 39, 60
10, 4110, Note_on_c, 4, 39, 0
10, 4140, Note_on_c, 4, 36, 60
10, 4170, Note_on_c, 4, 36, 0
10, 4200, Note_on_c, 4, 39, 60
10, 4230, Note_on_c, 4, 39, 0
10, 4260, Note_on_c, 4, 36, 60
10, 4290, Note_on_c, 4, 36, 0
10, 4320, Note_on_c, 4, 38, 60
10, 4349, Note_on_c, 4, 38, 0
10, 4380, Note_on_c, 4, 38, 60
10, 4410, Note_on_c, 4, 38, 0
10, 4440, Note_on_c, 4, 38, 60
10, 4469, Note_on_c, 4, 38, 0
10, 4500, Note_on_c, 4, 38, 60
10, 4529, Note_on_c, 4, 38, 0
10, 4560, Note_on_c, 4, 38, 60
10, 4589, Note_on_c, 4, 38, 0
10, 4620, Note_on_c, 4, 38, 60
10, 4649, Note_on_c, 4, 38, 0
10, 4680, Note_on_c, 4, 38, 60
10, 4709, Note_on_c, 4, 38, 0
10, 4740, Note_on_c, 4, 38, 60
10, 4770, Note_on_c, 4, 38, 0
10, 4800, Note_on_c, 4, 39, 60
10, 4829, Note_on_c, 4, 39, 0
10, 4860, Note_on_c, 4, 36, 60
10, 4890, Note_on_c, 4, 36, 0
10, 4920, Note_on_c, 4, 39, 60
10, 4949, Note_on_c, 4, 39, 0
10, 4980, Note_on_c, 4, 36, 60
10, 5010, Note_on_c, 4, 36, 0
10, 5040, Note_on_c, 4, 39, 60
10, 5069, Note_on_c, 4, 39, 0
10, 5100, Note_on_c, 4, 36, 60
10, 5130, Note_on_c, 4, 36, 0
10, 5160, Note_on_c, 4, 39, 60
10, 5190, Note_on_c, 4, 39, 0
10, 5220, Note_on_c, 4, 36, 60
10, 5250, Note_on_c, 4, 36, 0
10, 5280, Note_on_c, 4, 38, 60
10, 5310, Note_on_c, 4, 38, 0
10, 5340, Note_on_c, 4, 38, 60
10, 5370, Note_on_c, 4, 38, 0
10, 5400, Note_on_c, 4, 38, 60
10, 5430, Note_on_c, 4, 38, 0
10, 5460, Note_on_c, 4, 38, 60
10, 5490, Note_on_c, 4, 38, 0
10, 5520, Note_on_c, 4, 38, 60
10, 5550, Note_on_c, 4, 38, 0
10, 5580, Note_on_c, 4, 38, 60
10, 5610, Note_on_c, 4, 38, 0
10, 5640, Note_on_c, 4, 38, 60
10, 5670, Note_on_c, 4, 38, 0
10, 5700, Note_on_c, 4, 38, 60
10, 5730, Note_on_c, 4, 38, 0
10, 5760, Note_on_c, 4, 39, 60
10, 5790, Note_on_c, 4, 39, 0
10, 5820, Note_on_c, 4, 36, 60
10, 5850, Note_on_c, 4, 36, 0
10, 5880, Note_on_c, 4, 39, 60
10, 5910, Note_on_c, 4, 39, 0
10, 5940, Note_on_c, 4, 36, 60
10, 5970, Note_on_c, 4, 36, 0
10, 6000, Note_on_c, 4, 39, 60
10, 6030, Note_on_c, 4, 39, 0
10, 6060, Note_on_c, 4, 36, 60
10, 6090, Note_on_c, 4, 36, 0
10, 6120, Note_on_c, 4, 39, 60
10, 6150, Note_on_c, 4, 39, 0
10, 6180, Note_on_c, 4, 36, 60
10, 6210, Note_on_c, 4, 36, 0
10, 6240, Note_on_c, 4, 38, 60
10, 6270, Note_on_c, 4, 38, 0
10, 6300, Note_on_c, 4, 38, 60
10, 6330, Note_on_c, 4, 38, 0
10, 6360, Note_on_c, 4, 38, 60
10, 6390, Note_on_c, 4, 38, 0
10, 6420, Note_on_c, 4, 38, 60
10, 6450, Note_on_c, 4, 38, 0
10, 6480, Note_on_c, 4, 38, 60
10, 6510, Note_on_c, 4, 38, 0
10, 6540, Note_on_c, 4, 38, 60
10, 6570, Note_on_c, 4, 38, 0
10, 6600, Note_on_c, 4, 38, 60
10, 6630, Note_on_c, 4, 38, 0
10, 6660, Note_on_c, 4, 38, 60
10, 6689, Note_on_c, 4, 38, 0
10, 6720, Note_on_c, 4, 39, 60
10, 6749, Note_on_c, 4, 39, 0
10, 6780, Note_on_c, 4, 36, 60
10, 6809, Note_on_c, 4, 36, 0
10, 6840, Note_on_c, 4, 39, 60
10, 6869, Note_on_c, 4, 39, 0
10, 6900, Note_on_c, 4, 36, 60
10, 6929, Note_on_c, 4, 36, 0
10, 6960, Note_on_c, 4, 39, 60
10, 6989, Note_on_c, 4, 39, 0
10, 7020, Note_on_c, 4, 36, 60
10, 7050, Note_on_c, 4, 36, 0
10, 7080, Note_on_c, 4, 39, 60
10, 7109, Note_on_c, 4, 39, 0
10, 7140, Note_on_c, 4, 36, 60
10, 7170, Note_on_c, 4, 36, 0
10, 7200, Note_on_c, 4, 38, 60
10, 7229, Note_on_c, 4, 38, 0
10, 7260, Note_on_c, 4, 38, 60
10, 7290, Note_on_c, 4, 38, 0
10, 7320, Note_on_c, 4, 38, 60
10, 7349, Note_on_c, 4, 38, 0
10, 7380, Note_on_c, 4, 38, 60
10, 7410, Note_on_c, 4, 38, 0
10, 7440, Note_on_c, 4, 38, 60
10, 7470, Note_on_c, 4, 38, 0
10, 7500, Note_on_c, 4, 38, 60
10, 7530, Note_on_c, 4, 38, 0
10, 7560, Note_on_c, 4, 38, 60
10, 7590, Note_on_c, 4, 38, 0
10, 7620, Note_on_c, 4, 38, 60
10, 7650, Note_on_c, 4, 38, 0
10, 7680, Note_on_c, 4, 39, 60
10, 7710, Note_on_c, 4, 39, 0
10, 7740, Note_on_c, 4, 36, 60
10, 7770, Note_on_c, 4, 36, 0
10, 7800, Note_on_c, 4, 39, 60
10, 7830, Note_on_c, 4, 39, 0
10, 7860, Note_on_c, 4, 36, 60
10, 7890, Note_on_c, 4, 36, 0
10, 7920, Note_on_c, 4, 39, 60
10, 7950, Note_on_c, 4, 39, 0
10, 7980, Note_on_c, 4, 36, 60
10, 8010, Note_on_c, 4, 36, 0
10, 8040, Note_on_c, 4, 39, 60
10, 8070, Note_on_c, 4, 39, 0
10, 8100, Note_on_c, 4, 36, 60
10, 8130, Note_on_c, 4, 36, 0
10, 8160, Note_on_c, 4, 38, 60
10, 8190, Note_on_c, 4, 38, 0
10, 8220, Note_on_c, 4, 38, 60
10, 8250, Note_on_c, 4, 38, 0
10, 8280, Note_on_c, 4, 38, 60
10, 8310, Note_on_c, 4, 38, 0
10, 8340, Note_on_c, 4, 38, 60
10, 8370, Note_on_c, 4, 38, 0
10, 8400, Note_on_c, 4, 38, 60
10, 8430, Note_on_c, 4, 38, 0
10, 8460, Note_on_c, 4, 38, 60
10, 8490, Note_on_c, 4, 38, 0
10, 8520, Note_on_c, 4, 38, 60
10, 8550, Note_on_c, 4, 38, 0
10, 8580, Note_on_c, 4, 38, 60
10, 8610, Note_on_c, 4, 38, 0
10, 8640, Note_on_c, 4, 38, 60
10, 8670, Note_on_c, 4, 38, 0
10, 8700, Note_on_c, 4, 38, 60
10, 8730, Note_on_c, 4, 38, 0
10, 8760, Note_on_c, 4, 38, 60
10, 8790, Note_on_c, 4, 38, 0
10, 8820, Note_on_c, 4, 38, 60
10, 8850, Note_on_c, 4, 38, 0
10, 8880, Note_on_c, 4, 38, 60
10, 8909, Note_on_c, 4, 38, 0
10, 8940, Note_on_c, 4, 38, 60
10, 8969, Note_on_c, 4, 38, 0
10, 9000, Note_on_c, 4, 38, 60
10, 9029, Note_on_c, 4, 38, 0
10, 9060, Note_on_c, 4, 38, 60
10, 9089, Note_on_c, 4, 38, 0
10, 9120, Note_on_c, 4, 38, 60
10, 9149, Note_on_c, 4, 38, 0
10, 9180, Note_on_c, 4, 38, 60
10, 9209, Note_on_c, 4, 38, 0
10, 9240, Note_on_c, 4, 38, 60
10, 9269, Note_on_c, 4, 38, 0
10, 9300, Note_on_c, 4, 38, 60
10, 9330, Note_on_c, 4, 38, 0
10, 9360, Note_on_c, 4, 38, 60
10, 9389, Note_on_c, 4, 38, 0
10, 9420, Note_on_c, 4, 38, 60
10, 9450, Note_on_c, 4, 38, 0
10, 9480, Note_on_c, 4, 38, 60
10, 9509, Note_on_c, 4, 38, 0
10, 9540, Note_on_c, 4, 38, 60
10, 9570, Note_on_c, 4, 38, 0
10, 9600, Note_on_c, 4, 39, 60
10, 9630, Note_on_c, 4, 39, 0
10, 9660, Note_on_c, 4, 36, 60
10, 9690, Note_on_c, 4, 36, 0
10, 9720, Note_on_c, 4, 39, 60
10, 9750, Note_on_c, 4, 39, 0
10, 9780, Note_on_c, 4, 36, 60
10, 9810, Note_on_c, 4, 36, 0
10, 9840, Note_on_c, 4, 39, 60
10, 9870, Note_on_c, 4, 39, 0
10, 9900, Note_on_c, 4, 36, 60
10, 9930, Note_on_c, 4, 36, 0
10, 9960, Note_on_c, 4, 39, 60
10, 9990, Note_on_c, 4, 39, 0
10, 10020, Note_on_c, 4, 36, 60
10, 10050, Note_on_c, 4, 36, 0
10, 10080, Note_on_c, 4, 38, 60
10, 10110, Note_on_c, 4, 38, 0
10, 10140, Note_on_c, 4, 38, 60
10, 10170, Note_on_c, 4, 38, 0
10, 10200, Note_on_c, 4, 38, 60
10, 10230, Note_on_c, 4, 38, 0
10, 10260, Note_on_c, 4, 38, 60
10, 10290, Note_on_c, 4, 38, 0
10, 10320, Note_on_c, 4, 38, 60
10, 10350, Note_on_c, 4, 38, 0
10, 10380, Note_on_c, 4, 38, 60
10, 10410, Note_on_c, 4, 38, 0
10, 10440, Note_on_c, 4, 38, 60
10, 10470, Note_on_c, 4, 38, 0
10, 10500, Note_on_c, 4, 38, 60
10, 10530, Note_on_c, 4, 38, 0
10, 10560, Note_on_c, 4, 38, 60
10, 10590, Note_on_c, 4, 38, 0
10, 10620, Note_on_c, 4, 38, 60
10, 10650, Note_on_c, 4, 38, 0
10, 10680, Note_on_c, 4, 38, 60
10, 10710, Note_on_c, 4, 38, 0
10, 10740, Note_on_c, 4, 38, 60
10, 10770, Note_on_c, 4, 38, 0
10, 10800, Note_on_c, 4, 38, 60
10, 10830, Note_on_c, 4, 38, 0
10, 10860, Note_on_c, 4, 38, 60
10, 10890, Note_on_c, 4, 38, 0
10, 10920, Note_on_c, 4, 38, 60
10, 10950, Note_on_c, 4, 38, 0
10, 10980, Note_on_c, 4, 38, 60
10, 11010, Note_on_c, 4, 38, 0
10, 11040, Note_on_c, 4, 38, 60
10, 11070, Note_on_c, 4, 38, 0
10, 11100, Note_on_c, 4, 38, 60
10, 11130, Note_on_c, 4, 38, 0
10, 11160, Note_on_c, 4, 38, 60
10, 11190, Note_on_c, 4, 38, 0
10, 11220, Note_on_c, 4, 38, 60
10, 11249, Note_on_c, 4, 38, 0
10, 11280, Note_on_c, 4, 38, 60
10, 11309, Note_on_c, 4, 38, 0
10, 11340, Note_on_c, 4, 38, 60
10, 11369, Note_on_c, 4, 38, 0
10, 11400, Note_on_c, 4, 38, 60
10, 11429, Note_on_c, 4, 38, 0
10, 11460, Note_on_c, 4, 38, 60
10, 11490, Note_on_c, 4, 38, 0
10, 11520, Note_on_c, 4, 39, 60
10, 11549, Note_on_c, 4, 39, 0
10, 11580, Note_on_c, 4, 36, 60
10, 11610, Note_on_c, 4, 36, 0
10, 11640, Note_on_c, 4, 39, 60
10, 11669, Note_on_c, 4, 39, 0
10, 11700, Note_on_c, 4, 36, 60
10, 11730, Note_on_c, 4, 36, 0
10, 11760, Note_on_c, 4, 39, 60
10, 11789, Note_on_c, 4, 39, 0
10, 11820, Note_on_c, 4, 36, 60
10, 11850, Note_on_c, 4, 36, 0
10, 11880, Note_on_c, 4, 39, 60
10, 11910, Note_on_c, 4, 39, 0
10, 11940, Note_on_c, 4, 36, 60
10, 11970, Note_on_c, 4, 36, 0
10, 12000, Note_on_c, 4, 38, 60
10, 12030, Note_on_c, 4, 38, 0
10, 12060, Note_on_c, 4, 38, 60
10, 12090, Note_on_c, 4, 38, 0
10, 12120, Note_on_c, 4, 38, 60
10, 12150, Note_on_c, 4, 38, 0
10, 12180, Note_on_c, 4, 38, 60
10, 12210, Note_on_c, 4, 38, 0
10, 12240, Note_on_c, 4, 38, 60
10, 12270, Note_on_c, 4, 38, 0
10, 12300, Note_on_c, 4, 38, 60
10, 12330, Note_on_c, 4, 38, 0
10, 12360, Note_on_c, 4, 38, 60
10, 12390, Note_on_c, 4, 38, 0
10, 12420, Note_on_c, 4, 38, 60
10, 12450, Note_on_c, 4, 38, 0
10, 12480, Note_on_c, 4, 39, 60
10, 12510, Note_on_c, 4, 39, 0
10, 12540, Note_on_c, 4, 36, 60
10, 12570, Note_on_c, 4, 36, 0
10, 12600, Note_on_c, 4, 39, 60
10, 12630, Note_on_c, 4, 39, 0
10, 12660, Note_on_c, 4, 36, 60
10, 12690, Note_on_c, 4, 36, 0
10, 12720, Note_on_c, 4, 39, 60
10, 12750, Note_on_c, 4, 39, 0
10, 12780, Note_on_c, 4, 36, 60
10, 12810, Note_on_c, 4, 36, 0
10, 12840, Note_on_c, 4, 39, 60
10, 12870, Note_on_c, 4, 39, 0
10, 12900, Note_on_c, 4, 36, 60
10, 12930, Note_on_c, 4, 36, 0
10, 12960, Note_on_c, 4, 38, 60
10, 12990, Note_on_c, 4, 38, 0
10, 13020, Note_on_c, 4, 38, 60
10, 13050, Note_on_c, 4, 38, 0
10, 13080, Note_on_c, 4, 38, 60
10, 13110, Note_on_c, 4, 38, 0
10, 13140, Note_on_c, 4, 38, 60
10, 13170, Note_on_c, 4, 38, 0
10, 13200, Note_on_c, 4, 39, 60
10, 13230, Note_on_c, 4, 39, 0
10, 13260, Note_on_c, 4, 36, 60
10, 13290, Note_on_c, 4, 36, 0
10, 13320, Note_on_c, 4, 39, 60
10, 13350, Note_on_c, 4, 39, 0
10, 13380, Note_on_c, 4, 36, 60
10, 13410, Note_on_c, 4, 36, 0
10, 13440, Note_on_c, 4, 38, 60
10, 13469, Note_on_c, 4, 38, 0
10, 13500, Note_on_c, 4, 38, 60
10, 13529, Note_on_c, 4, 38, 0
10, 13560, Note_on_c, 4, 38, 60
10, 13589, Note_on_c, 4, 38, 0
10, 13620, Note_on_c, 4, 38, 60
10, 13649, Note_on_c, 4, 38, 0
10, 13680, Note_on_c, 4, 39, 60
10, 13709, Note_on_c, 4, 39, 0
10, 13740, Note_on_c, 4, 36, 60
10, 13770, Note_on_c, 4, 36, 0
10, 13800, Note_on_c, 4, 39, 60
10, 13829, Note_on_c, 4, 39, 0
10, 13860, Note_on_c, 4, 36, 60
10, 13890, Note_on_c, 4, 36, 0
10, 13920, Note_on_c, 4, 38, 60
10, 13949, Note_on_c, 4, 38, 0
10, 13980, Note_on_c, 4, 38, 60
10, 14010, Note_on_c, 4, 38, 0
10, 14040, Note_on_c, 4, 38, 60
10, 14069, Note_on_c, 4, 38, 0
10, 14100, Note_on_c, 4, 38, 60
10, 14130, Note_on_c, 4, 38, 0
10, 14160, Note_on_c, 4, 39, 60
10, 14190, Note_on_c, 4, 39, 0
10, 14220, Note_on_c, 4, 36, 60
10, 14250, Note_on_c, 4, 36, 0
10, 14280, Note_on_c, 4, 39, 60
10, 14310, Note_on_c, 4, 39, 0
10, 14340, Note_on_c, 4, 36, 60
10, 14370, Note_on_c, 4, 36, 0
10, 14400, Note_on_c, 4, 38, 60
10, 14430, Note_on_c, 4, 38, 0
10, 14460, Note_on_c, 4, 38, 60
10, 14490, Note_on_c, 4, 38, 0
10, 14520, Note_on_c, 4, 38, 60
10, 14550, Note_on_c, 4, 38, 0
10, 14580, Note_on_c, 4, 38, 60
10, 14610, Note_on_c, 4, 38, 0
10, 14640, Note_on_c, 4, 38, 60
10, 14670, Note_on_c, 4, 38, 0
10, 14700, Note_on_c, 4, 38, 60
10, 14730, Note_on_c, 4, 38, 0
10, 14760, Note_on_c, 4, 38, 60
10, 14790, Note_on_c, 4, 38, 0
10, 14820, Note_on_c, 4, 38, 60
10, 14850, Note_on_c, 4, 38, 0
10, 14880, Note_on_c, 4, 38, 60
10, 14910, Note_on_c, 4, 38, 0
10, 14940, Note_on_c, 4, 38, 60
10, 14970, Note_on_c, 4, 38, 0
10, 15000, Note_on_c, 4, 38, 60
10, 15030, Note_on_c, 4, 38, 0
10, 15060, Note_on_c, 4, 38, 60
10, 15090, Note_on_c, 4, 38, 0
10, 15180, Note_on_c, 4, 62, 60
10, 15299, Note_on_c, 4, 62, 0
10, 15299, End_track
11, 0, Start_track
11, 0, Title_t, "Glockenspiel"
11, 0, Control_c, 5, 10, 18
11, 0, Control_c, 5, 7, 127
11, 0, Program_c, 5, 101
11, 8520, Note_on_c, 5, 70, 80
11, 8579, Note_on_c, 5, 70, 0
11, 8640, Note_on_c, 5, 82, 80
11, 8698, Note_on_c, 5, 82, 0
11, 8760, Note_on_c, 5, 81, 80
11, 8818, Note_on_c, 5, 81, 0
11, 8820, Note_on_c, 5, 79, 80
11, 8878, Note_on_c, 5, 79, 0
11, 8880, Note_on_c, 5, 77, 80
11, 8938, Note_on_c, 5, 77, 0
11, 9120, Note_on_c, 5, 79, 80
11, 9178, Note_on_c, 5, 79, 0
11, 9240, Note_on_c, 5, 77, 80
11, 9298, Note_on_c, 5, 77, 0
11, 10440, Note_on_c, 5, 70, 80
11, 10499, Note_on_c, 5, 70, 0
11, 10560, Note_on_c, 5, 82, 80
11, 10619, Note_on_c, 5, 82, 0
11, 10680, Note_on_c, 5, 81, 80
11, 10739, Note_on_c, 5, 81, 0
11, 10740, Note_on_c, 5, 79, 80
11, 10799, Note_on_c, 5, 79, 0
11, 10800, Note_on_c, 5, 77, 80
11, 10859, Note_on_c, 5, 77, 0
11, 11040, Note_on_c, 5, 79, 80
11, 11098, Note_on_c, 5, 79, 0
11, 11160, Note_on_c, 5, 77, 80
11, 11218, Note_on_c, 5, 77, 0
11, 12360, Note_on_c, 5, 82, 80
11, 12419, Note_on_c, 5, 82, 0
11, 12480, Note_on_c, 5, 84, 80
11, 12539, Note_on_c, 5, 84, 0
11, 12600, Note_on_c, 5, 81, 80
11, 12659, Note_on_c, 5, 81, 0
11, 12720, Note_on_c, 5, 77, 80
11, 12779, Note_on_c, 5, 77, 0
11, 12840, Note_on_c, 5, 84, 80
11, 12899, Note_on_c, 5, 84, 0
11, 12960, Note_on_c, 5, 86, 80
11, 13019, Note_on_c, 5, 86, 0
11, 13080, Note_on_c, 5, 82, 80
11, 13139, Note_on_c, 5, 82, 0
11, 13200, Note_on_c, 5, 77, 80
11, 13258, Note_on_c, 5, 77, 0
11, 13320, Note_on_c, 5, 84, 80
11, 13378, Note_on_c, 5, 84, 0
11, 13440, Note_on_c, 5, 86, 80
11, 13498, Note_on_c, 5, 86, 0
11, 13560, Note_on_c, 5, 82, 80
11, 13618, Note_on_c, 5, 82, 0
11, 13680, Note_on_c, 5, 77, 80
11, 13738, Note_on_c, 5, 77, 0
11, 13800, Note_on_c, 5, 84, 80
11, 13858, Note_on_c, 5, 84, 0
11, 13920, Note_on_c, 5, 86, 80
11, 13978, Note_on_c, 5, 86, 0
11, 14040, Note_on_c, 5, 82, 80
11, 14099, Note_on_c, 5, 82, 0
11, 14160, Note_on_c, 5, 77, 80
11, 14219, Note_on_c, 5, 77, 0
11, 14280, Note_on_c, 5, 84, 80
11, 14339, Note_on_c, 5, 84, 0
11, 14400, Note_on_c, 5, 86, 80
11, 14459, Note_on_c, 5, 86, 0
11, 14520, Note_on_c, 5, 82, 80
11, 14579, Note_on_c, 5, 82, 0
11, 14640, Note_on_c, 5, 86, 80
11, 14699, Note_on_c, 5, 86, 0
11, 14760, Note_on_c, 5, 82, 80
11, 14819, Note_on_c, 5, 82, 0
11, 14880, Note_on_c, 5, 86, 80
11, 14939, Note_on_c, 5, 86, 0
11, 15000, Note_on_c, 5, 82, 80
11, 15059, Note_on_c, 5, 82, 0
11, 15059, End_track
12, 0, Start_track
12, 0, Title_t, "Violin 1"
12, 0, Control_c, 6, 10, 91
12, 0, Program_c, 6, 51
12, 0, Control_c, 6, 7, 127
12, 1860, Note_on_c, 6, 82, 40
12, 1949, Note_on_c, 6, 82, 0
12, 1980, Note_on_c, 6, 84, 40
12, 2068, Note_on_c, 6, 84, 0
12, 2100, Note_on_c, 6, 81, 40
12, 2188, Note_on_c, 6, 81, 0
12, 2220, Note_on_c, 6, 77, 40
12, 2308, Note_on_c, 6, 77, 0
12, 2340, Note_on_c, 6, 84, 40
12, 2428, Note_on_c, 6, 84, 0
12, 2460, Note_on_c, 6, 86, 40
12, 2549, Note_on_c, 6, 86, 0
12, 2580, Note_on_c, 6, 82, 40
12, 2669, Note_on_c, 6, 82, 0
12, 2700, Note_on_c, 6, 77, 40
12, 2789, Note_on_c, 6, 77, 0
12, 3780, Note_on_c, 6, 82, 40
12, 3869, Note_on_c, 6, 82, 0
12, 3900, Note_on_c, 6, 84, 40
12, 3989, Note_on_c, 6, 84, 0
12, 4020, Note_on_c, 6, 81, 40
12, 4109, Note_on_c, 6, 81, 0
12, 4140, Note_on_c, 6, 77, 40
12, 4229, Note_on_c, 6, 77, 0
12, 4260, Note_on_c, 6, 84, 40
12, 4348, Note_on_c, 6, 84, 0
12, 4380, Note_on_c, 6, 86, 40
12, 4468, Note_on_c, 6, 86, 0
12, 4500, Note_on_c, 6, 82, 40
12, 4588, Note_on_c, 6, 82, 0
12, 4620, Note_on_c, 6, 77, 40
12, 4708, Note_on_c, 6, 77, 0
12, 5700, Note_on_c, 6, 77, 40
12, 5789, Note_on_c, 6, 77, 0
12, 5820, Note_on_c, 6, 79, 40
12, 5909, Note_on_c, 6, 79, 0
12, 5940, Note_on_c, 6, 80, 40
12, 6029, Note_on_c, 6, 80, 0
12, 6060, Note_on_c, 6, 81, 40
12, 6149, Note_on_c, 6, 81, 0
12, 6180, Note_on_c, 6, 86, 40
12, 6269, Note_on_c, 6, 86, 0
12, 6300, Note_on_c, 6, 84, 40
12, 6389, Note_on_c, 6, 84, 0
12, 6420, Note_on_c, 6, 82, 40
12, 6508, Note_on_c, 6, 82, 0
12, 6540, Note_on_c, 6, 77, 40
12, 6628, Note_on_c, 6, 77, 0
12, 7620, Note_on_c, 6, 77, 40
12, 7709, Note_on_c, 6, 77, 0
12, 7740, Note_on_c, 6, 79, 40
12, 7829, Note_on_c, 6, 79, 0
12, 7860, Note_on_c, 6, 80, 40
12, 7949, Note_on_c, 6, 80, 0
12, 7980, Note_on_c, 6, 81, 40
12, 8069, Note_on_c, 6, 81, 0
12, 8100, Note_on_c, 6, 86, 40
12, 8189, Note_on_c, 6, 86, 0
12, 8220, Note_on_c, 6, 84, 40
12, 8309, Note_on_c, 6, 84, 0
12, 8340, Note_on_c, 6, 82, 40
12, 8429, Note_on_c, 6, 82, 0
12, 8460, Note_on_c, 6, 77, 40
12, 8549, Note_on_c, 6, 77, 0
12, 9540, Note_on_c, 6, 82, 40
12, 9629, Note_on_c, 6, 82, 0
12, 9660, Note_on_c, 6, 84, 40
12, 9749, Note_on_c, 6, 84, 0
12, 9780, Note_on_c, 6, 81, 40
12, 9869, Note_on_c, 6, 81, 0
12, 9900, Note_on_c, 6, 77, 40
12, 9989, Note_on_c, 6, 77, 0
12, 10020, Note_on_c, 6, 84, 40
12, 10109, Note_on_c, 6, 84, 0
12, 10140, Note_on_c, 6, 86, 40
12, 10229, Note_on_c, 6, 86, 0
12, 10260, Note_on_c, 6, 82, 40
12, 10349, Note_on_c, 6, 82, 0
12, 10380, Note_on_c, 6, 77, 40
12, 10469, Note_on_c, 6, 77, 0
12, 11460, Note_on_c, 6, 82, 40
12, 11549, Note_on_c, 6, 82, 0
12, 11580, Note_on_c, 6, 84, 40
12, 11669, Note_on_c, 6, 84, 0
12, 11700, Note_on_c, 6, 81, 40
12, 11789, Note_on_c, 6, 81, 0
12, 11820, Note_on_c, 6, 77, 40
12, 11909, Note_on_c, 6, 77, 0
12, 11940, Note_on_c, 6, 81, 40
12, 12029, Note_on_c, 6, 81, 0
12, 12060, Note_on_c, 6, 86, 40
12, 12149, Note_on_c, 6, 86, 0
12, 12180, Note_on_c, 6, 82, 40
12, 12269, Note_on_c, 6, 82, 0
12, 12300, Note_on_c, 6, 77, 40
12, 12389, Note_on_c, 6, 77, 0
12, 12420, Note_on_c, 6, 82, 40
12, 12509, Note_on_c, 6, 82, 0
12, 12540, Note_on_c, 6, 84, 40
12, 12629, Note_on_c, 6, 84, 0
12, 12660, Note_on_c, 6, 81, 40
12, 12749, Note_on_c, 6, 81, 0
12, 12780, Note_on_c, 6, 77, 40
12, 12869, Note_on_c, 6, 77, 0
12, 12900, Note_on_c, 6, 81, 40
12, 12989, Note_on_c, 6, 81, 0
12, 13020, Note_on_c, 6, 86, 40
12, 13109, Note_on_c, 6, 86, 0
12, 13140, Note_on_c, 6, 82, 40
12, 13229, Note_on_c, 6, 82, 0
12, 13260, Note_on_c, 6, 77, 40
12, 13348, Note_on_c, 6, 77, 0
12, 13380, Note_on_c, 6, 84, 40
12, 13468, Note_on_c, 6, 84, 0
12, 13500, Note_on_c, 6, 86, 40
12, 13588, Note_on_c, 6, 86, 0
12, 13620, Note_on_c, 6, 82, 40
12, 13709, Note_on_c, 6, 82, 0
12, 13740, Note_on_c, 6, 77, 40
12, 13829, Note_on_c, 6, 77, 0
12, 13860, Note_on_c, 6, 84, 40
12, 13949, Note_on_c, 6, 84, 0
12, 13980, Note_on_c, 6, 86, 40
12, 14069, Note_on_c, 6, 86, 0
12, 14100, Note_on_c, 6, 82, 40
12, 14189, Note_on_c, 6, 82, 0
12, 14220, Note_on_c, 6, 77, 40
12, 14309, Note_on_c, 6, 77, 0
12, 14340, Note_on_c, 6, 84, 40
12, 14429, Note_on_c, 6, 84, 0
12, 14460, Note_on_c, 6, 86, 40
12, 14549, Note_on_c, 6, 86, 0
12, 14580, Note_on_c, 6, 82, 40
12, 14669, Note_on_c, 6, 82, 0
12, 14700, Note_on_c, 6, 86, 40
12, 14789, Note_on_c, 6, 86, 0
12, 14820, Note_on_c, 6, 82, 40
12, 14909, Note_on_c, 6, 82, 0
12, 14940, Note_on_c, 6, 86, 40
12, 15029, Note_on_c, 6, 86, 0
12, 15060, Note_on_c, 6, 82, 40
12, 15149, Note_on_c, 6, 82, 0
12, 15149, End_track
13, 0, Start_track
13, 0, Title_t, "Violin 2"
13, 1860, Note_on_c, 6, 70, 40
13, 1949, Note_on_c, 6, 70, 0
13, 1980, Note_on_c, 6, 72, 40
13, 2069, Note_on_c, 6, 72, 0
13, 2100, Note_on_c, 6, 69, 40
13, 2189, Note_on_c, 6, 69, 0
13, 2220, Note_on_c, 6, 65, 40
13, 2309, Note_on_c, 6, 65, 0
13, 2340, Note_on_c, 6, 72, 40
13, 2429, Note_on_c, 6, 72, 0
13, 2460, Note_on_c, 6, 74, 40
13, 2549, Note_on_c, 6, 74, 0
13, 2580, Note_on_c, 6, 70, 40
13, 2669, Note_on_c, 6, 70, 0
13, 2700, Note_on_c, 6, 65, 40
13, 2789, Note_on_c, 6, 65, 0
13, 3780, Note_on_c, 6, 70, 40
13, 3869, Note_on_c, 6, 70, 0
13, 3900, Note_on_c, 6, 72, 40
13, 3989, Note_on_c, 6, 72, 0
13, 4020, Note_on_c, 6, 69, 40
13, 4109, Note_on_c, 6, 69, 0
13, 4140, Note_on_c, 6, 65, 40
13, 4229, Note_on_c, 6, 65, 0
13, 4260, Note_on_c, 6, 72, 40
13, 4349, Note_on_c, 6, 72, 0
13, 4380, Note_on_c, 6, 74, 40
13, 4469, Note_on_c, 6, 74, 0
13, 4500, Note_on_c, 6, 70, 40
13, 4589, Note_on_c, 6, 70, 0
13, 4620, Note_on_c, 6, 65, 40
13, 4709, Note_on_c, 6, 65, 0
13, 5700, Note_on_c, 6, 65, 40
13, 5788, Note_on_c, 6, 65, 0
13, 5820, Note_on_c, 6, 67, 40
13, 5908, Note_on_c, 6, 67, 0
13, 5940, Note_on_c, 6, 68, 40
13, 6029, Note_on_c, 6, 68, 0
13, 6060, Note_on_c, 6, 69, 40
13, 6149, Note_on_c, 6, 69, 0
13, 6180, Note_on_c, 6, 74, 40
13, 6269, Note_on_c, 6, 74, 0
13, 6300, Note_on_c, 6, 72, 40
13, 6389, Note_on_c, 6, 72, 0
13, 6420, Note_on_c, 6, 70, 40
13, 6509, Note_on_c, 6, 70, 0
13, 6540, Note_on_c, 6, 65, 40
13, 6629, Note_on_c, 6, 65, 0
13, 7620, Note_on_c, 6, 65, 40
13, 7709, Note_on_c, 6, 65, 0
13, 7740, Note_on_c, 6, 67, 40
13, 7829, Note_on_c, 6, 67, 0
13, 7860, Note_on_c, 6, 68, 40
13, 7948, Note_on_c, 6, 68, 0
13, 7980, Note_on_c, 6, 69, 40
13, 8068, Note_on_c, 6, 69, 0
13, 8100, Note_on_c, 6, 74, 40
13, 8188, Note_on_c, 6, 74, 0
13, 8220, Note_on_c, 6, 72, 40
13, 8309, Note_on_c, 6, 72, 0
13, 8340, Note_on_c, 6, 70, 40
13, 8429, Note_on_c, 6, 70, 0
13, 8460, Note_on_c, 6, 65, 40
13, 8549, Note_on_c, 6, 65, 0
13, 9540, Note_on_c, 6, 70, 40
13, 9629, Note_on_c, 6, 70, 0
13, 9660, Note_on_c, 6, 72, 40
13, 9749, Note_on_c, 6, 72, 0
13, 9780, Note_on_c, 6, 69, 40
13, 9869, Note_on_c, 6, 69, 0
13, 9900, Note_on_c, 6, 65, 40
13, 9989, Note_on_c, 6, 65, 0
13, 10020, Note_on_c, 6, 72, 40
13, 10109, Note_on_c, 6, 72, 0
13, 10140, Note_on_c, 6, 74, 40
13, 10228, Note_on_c, 6, 74, 0
13, 10260, Note_on_c, 6, 70, 40
13, 10348, Note_on_c, 6, 70, 0
13, 10380, Note_on_c, 6, 65, 40
13, 10468, Note_on_c, 6, 65, 0
13, 11460, Note_on_c, 6, 70, 40
13, 11549, Note_on_c, 6, 70, 0
13, 11580, Note_on_c, 6, 72, 40
13, 11669, Note_on_c, 6, 72, 0
13, 11700, Note_on_c, 6, 69, 40
13, 11789, Note_on_c, 6, 69, 0
13, 11820, Note_on_c, 6, 65, 40
13, 11909, Note_on_c, 6, 65, 0
13, 11940, Note_on_c, 6, 69, 40
13, 12029, Note_on_c, 6, 69, 0
13, 12060, Note_on_c, 6, 74, 40
13, 12149, Note_on_c, 6, 74, 0
13, 12180, Note_on_c, 6, 70, 40
13, 12269, Note_on_c, 6, 70, 0
13, 12300, Note_on_c, 6, 65, 40
13, 12389, Note_on_c, 6, 65, 0
13, 12420, Note_on_c, 6, 70, 40
13, 12508, Note_on_c, 6, 70, 0
13, 12540, Note_on_c, 6, 72, 40
13, 12628, Note_on_c, 6, 72, 0
13, 12660, Note_on_c, 6, 69, 40
13, 12748, Note_on_c, 6, 69, 0
13, 12780, Note_on_c, 6, 65, 40
13, 12869, Note_on_c, 6, 65, 0
13, 12900, Note_on_c, 6, 69, 40
13, 12989, Note_on_c, 6, 69, 0
13, 13020, Note_on_c, 6, 74, 40
13, 13109, Note_on_c, 6, 74, 0
13, 13140, Note_on_c, 6, 70, 40
13, 13229, Note_on_c, 6, 70, 0
13, 13260, Note_on_c, 6, 65, 40
13, 13349, Note_on_c, 6, 65, 0
13, 13380, Note_on_c, 6, 72, 40
13, 13469, Note_on_c, 6, 72, 0
13, 13500, Note_on_c, 6, 74, 40
13, 13589, Note_on_c, 6, 74, 0
13, 13620, Note_on_c, 6, 70, 40
13, 13709, Note_on_c, 6, 70, 0
13, 13740, Note_on_c, 6, 65, 40
13, 13829, Note_on_c, 6, 65, 0
13, 13860, Note_on_c, 6, 72, 40
13, 13949, Note_on_c, 6, 72, 0
13, 13980, Note_on_c, 6, 74, 40
13, 14069, Note_on_c, 6, 74, 0
13, 14100, Note_on_c, 6, 70, 40
13, 14189, Note_on_c, 6, 70, 0
13, 14220, Note_on_c, 6, 65, 40
13, 14309, Note_on_c, 6, 65, 0
13, 14340, Note_on_c, 6, 72, 40
13, 14429, Note_on_c, 6, 72, 0
13, 14460, Note_on_c, 6, 74, 40
13, 14549, Note_on_c, 6, 74, 0
13, 14580, Note_on_c, 6, 70, 40
13, 14669, Note_on_c, 6, 70, 0
13, 14700, Note_on_c, 6, 74, 40
13, 14788, Note_on_c, 6, 74, 0
13, 14820, Note_on_c, 6, 70, 40
13, 14908, Note_on_c, 6, 70, 0
13, 14940, Note_on_c, 6, 74, 40
13, 15028, Note_on_c, 6, 74, 0
13, 15060, Note_on_c, 6, 70, 40
13, 15148, Note_on_c, 6, 70, 0
13, 15148, End_track
14, 0, Start_track
14, 0, Title_t, "Viola"
14, 0, Control_c, 7, 7, 127
14, 0, Control_c, 7, 10, 38
14, 0, Program_c, 7, 51
14, 1800, Note_on_c, 7, 70, 40
14, 1889, Note_on_c, 7, 70, 0
14, 1920, Note_on_c, 7, 72, 40
14, 2009, Note_on_c, 7, 72, 0
14, 2040, Note_on_c, 7, 69, 40
14, 2129, Note_on_c, 7, 69, 0
14, 2160, Note_on_c, 7, 65, 40
14, 2249, Note_on_c, 7, 65, 0
14, 2280, Note_on_c, 7, 72, 40
14, 2369, Note_on_c, 7, 72, 0
14, 2400, Note_on_c, 7, 74, 40
14, 2489, Note_on_c, 7, 74, 0
14, 2520, Note_on_c, 7, 70, 40
14, 2608, Note_on_c, 7, 70, 0
14, 2640, Note_on_c, 7, 65, 40
14, 2728, Note_on_c, 7, 65, 0
14, 3720, Note_on_c, 7, 70, 40
14, 3809, Note_on_c, 7, 70, 0
14, 3840, Note_on_c, 7, 72, 40
14, 3929, Note_on_c, 7, 72, 0
14, 3960, Note_on_c, 7, 69, 40
14, 4049, Note_on_c, 7, 69, 0
14, 4080, Note_on_c, 7, 65, 40
14, 4169, Note_on_c, 7, 65, 0
14, 4200, Note_on_c, 7, 72, 40
14, 4289, Note_on_c, 7, 72, 0
14, 4320, Note_on_c, 7, 74, 40
14, 4409, Note_on_c, 7, 74, 0
14, 4440, Note_on_c, 7, 70, 40
14, 4529, Note_on_c, 7, 70, 0
14, 4560, Note_on_c, 7, 65, 40
14, 4649, Note_on_c, 7, 65, 0
14, 5640, Note_on_c, 7, 65, 40
14, 5729, Note_on_c, 7, 65, 0
14, 5760, Note_on_c, 7, 67, 40
14, 5849, Note_on_c, 7, 67, 0
14, 5880, Note_on_c, 7, 68, 40
14, 5969, Note_on_c, 7, 68, 0
14, 6000, Note_on_c, 7, 69, 40
14, 6089, Note_on_c, 7, 69, 0
14, 6120, Note_on_c, 7, 74, 40
14, 6209, Note_on_c, 7, 74, 0
14, 6240, Note_on_c, 7, 72, 40
14, 6329, Note_on_c, 7, 72, 0
14, 6360, Note_on_c, 7, 70, 40
14, 6449, Note_on_c, 7, 70, 0
14, 6480, Note_on_c, 7, 65, 40
14, 6569, Note_on_c, 7, 65, 0
14, 7560, Note_on_c, 7, 65, 40
14, 7648, Note_on_c, 7, 65, 0
14, 7680, Note_on_c, 7, 67, 40
14, 7769, Note_on_c, 7, 67, 0
14, 7800, Note_on_c, 7, 68, 40
14, 7889, Note_on_c, 7, 68, 0
14, 7920, Note_on_c, 7, 69, 40
14, 8009, Note_on_c, 7, 69, 0
14, 8040, Note_on_c, 7, 74, 40
14, 8129, Note_on_c, 7, 74, 0
14, 8160, Note_on_c, 7, 72, 40
14, 8249, Note_on_c, 7, 72, 0
14, 8280, Note_on_c, 7, 70, 40
14, 8369, Note_on_c, 7, 70, 0
14, 8400, Note_on_c, 7, 65, 40
14, 8489, Note_on_c, 7, 65, 0
14, 9480, Note_on_c, 7, 70, 40
14, 9568, Note_on_c, 7, 70, 0
14, 9600, Note_on_c, 7, 72, 40
14, 9688, Note_on_c, 7, 72, 0
14, 9720, Note_on_c, 7, 69, 40
14, 9808, Note_on_c, 7, 69, 0
14, 9840, Note_on_c, 7, 65, 40
14, 9928, Note_on_c, 7, 65, 0
14, 9960, Note_on_c, 7, 72, 40
14, 10048, Note_on_c, 7, 72, 0
14, 10080, Note_on_c, 7, 74, 40
14, 10169, Note_on_c, 7, 74, 0
14, 10200, Note_on_c, 7, 70, 40
14, 10289, Note_on_c, 7, 70, 0
14, 10320, Note_on_c, 7, 65, 40
14, 10409, Note_on_c, 7, 65, 0
14, 11400, Note_on_c, 7, 70, 40
14, 11489, Note_on_c, 7, 70, 0
14, 11520, Note_on_c, 7, 72, 40
14, 11608, Note_on_c, 7, 72, 0
14, 11640, Note_on_c, 7, 69, 40
14, 11728, Note_on_c, 7, 69, 0
14, 11760, Note_on_c, 7, 65, 40
14, 11848, Note_on_c, 7, 65, 0
14, 11880, Note_on_c, 7, 69, 40
14, 11968, Note_on_c, 7, 69, 0
14, 12000, Note_on_c, 7, 74, 40
14, 12088, Note_on_c, 7, 74, 0
14, 12120, Note_on_c, 7, 70, 40
14, 12208, Note_on_c, 7, 70, 0
14, 12240, Note_on_c, 7, 65, 40
14, 12328, Note_on_c, 7, 65, 0
14, 12360, Note_on_c, 7, 70, 40
14, 12449, Note_on_c, 7, 70, 0
14, 12480, Note_on_c, 7, 72, 40
14, 12569, Note_on_c, 7, 72, 0
14, 12600, Note_on_c, 7, 69, 40
14, 12689, Note_on_c, 7, 69, 0
14, 12720, Note_on_c, 7, 65, 40
14, 12809, Note_on_c, 7, 65, 0
14, 12840, Note_on_c, 7, 69, 40
14, 12929, Note_on_c, 7, 69, 0
14, 12960, Note_on_c, 7, 74, 40
14, 13049, Note_on_c, 7, 74, 0
14, 13080, Note_on_c, 7, 70, 40
14, 13169, Note_on_c, 7, 70, 0
14, 13200, Note_on_c, 7, 65, 40
14, 13289, Note_on_c, 7, 65, 0
14, 13320, Note_on_c, 7, 72, 40
14, 13409, Note_on_c, 7, 72, 0
14, 13440, Note_on_c, 7, 74, 40
14, 13529, Note_on_c, 7, 74, 0
14, 13560, Note_on_c, 7, 70, 40
14, 13649, Note_on_c, 7, 70, 0
14, 13680, Note_on_c, 7, 65, 40
14, 13769, Note_on_c, 7, 65, 0
14, 13800, Note_on_c, 7, 72, 40
14, 13888, Note_on_c, 7, 72, 0
14, 13920, Note_on_c, 7, 74, 40
14, 14008, Note_on_c, 7, 74, 0
14, 14040, Note_on_c, 7, 70, 40
14, 14128, Note_on_c, 7, 70, 0
14, 14160, Note_on_c, 7, 65, 40
14, 14248, Note_on_c, 7, 65, 0
14, 14280, Note_on_c, 7, 72, 40
14, 14368, Note_on_c, 7, 72, 0
14, 14400, Note_on_c, 7, 74, 40
14, 14488, Note_on_c, 7, 74, 0
14, 14520, Note_on_c, 7, 70, 40
14, 14609, Note_on_c, 7, 70, 0
14, 14640, Note_on_c, 7, 74, 40
14, 14729, Note_on_c, 7, 74, 0
14, 14760, Note_on_c, 7, 70, 40
14, 14849, Note_on_c, 7, 70, 0
14, 14880, Note_on_c, 7, 74, 40
14, 14969, Note_on_c, 7, 74, 0
14, 15000, Note_on_c, 7, 70, 40
14, 15089, Note_on_c, 7, 70, 0
14, 15089, End_track
15, 0, Start_track
15, 0, Title_t, "Cello"
15, 1800, Note_on_c, 7, 58, 80
15, 1889, Note_on_c, 7, 58, 0
15, 1920, Note_on_c, 7, 60, 80
15, 2009, Note_on_c, 7, 60, 0
15, 2040, Note_on_c, 7, 57, 80
15, 2129, Note_on_c, 7, 57, 0
15, 2160, Note_on_c, 7, 53, 80
15, 2249, Note_on_c, 7, 53, 0
15, 2280, Note_on_c, 7, 60, 80
15, 2369, Note_on_c, 7, 60, 0
15, 2400, Note_on_c, 7, 62, 80
15, 2489, Note_on_c, 7, 62, 0
15, 2520, Note_on_c, 7, 58, 80
15, 2609, Note_on_c, 7, 58, 0
15, 2640, Note_on_c, 7, 53, 80
15, 2729, Note_on_c, 7, 53, 0
15, 3720, Note_on_c, 7, 58, 80
15, 3809, Note_on_c, 7, 58, 0
15, 3840, Note_on_c, 7, 60, 80
15, 3929, Note_on_c, 7, 60, 0
15, 3960, Note_on_c, 7, 57, 80
15, 4049, Note_on_c, 7, 57, 0
15, 4080, Note_on_c, 7, 53, 80
15, 4169, Note_on_c, 7, 53, 0
15, 4200, Note_on_c, 7, 60, 80
15, 4289, Note_on_c, 7, 60, 0
15, 4320, Note_on_c, 7, 62, 80
15, 4409, Note_on_c, 7, 62, 0
15, 4440, Note_on_c, 7, 58, 80
15, 4529, Note_on_c, 7, 58, 0
15, 4560, Note_on_c, 7, 53, 80
15, 4649, Note_on_c, 7, 53, 0
15, 5640, Note_on_c, 7, 53, 80
15, 5728, Note_on_c, 7, 53, 0
15, 5760, Note_on_c, 7, 55, 80
15, 5848, Note_on_c, 7, 55, 0
15, 5880, Note_on_c, 7, 56, 80
15, 5968, Note_on_c, 7, 56, 0
15, 6000, Note_on_c, 7, 57, 80
15, 6089, Note_on_c, 7, 57, 0
15, 6120, Note_on_c, 7, 62, 80
15, 6209, Note_on_c, 7, 62, 0
15, 6240, Note_on_c, 7, 60, 80
15, 6329, Note_on_c, 7, 60, 0
15, 6360, Note_on_c, 7, 58, 80
15, 6449, Note_on_c, 7, 58, 0
15, 6480, Note_on_c, 7, 53, 80
15, 6569, Note_on_c, 7, 53, 0
15, 7560, Note_on_c, 7, 53, 80
15, 7648, Note_on_c, 7, 53, 0
15, 7680, Note_on_c, 7, 55, 80
15, 7768, Note_on_c, 7, 55, 0
15, 7800, Note_on_c, 7, 56, 80
15, 7888, Note_on_c, 7, 56, 0
15, 7920, Note_on_c, 7, 57, 80
15, 8008, Note_on_c, 7, 57, 0
15, 8040, Note_on_c, 7, 62, 80
15, 8128, Note_on_c, 7, 62, 0
15, 8160, Note_on_c, 7, 60, 80
15, 8248, Note_on_c, 7, 60, 0
15, 8280, Note_on_c, 7, 58, 80
15, 8369, Note_on_c, 7, 58, 0
15, 8400, Note_on_c, 7, 53, 80
15, 8489, Note_on_c, 7, 53, 0
15, 9480, Note_on_c, 7, 58, 80
15, 9569, Note_on_c, 7, 58, 0
15, 9600, Note_on_c, 7, 60, 80
15, 9689, Note_on_c, 7, 60, 0
15, 9720, Note_on_c, 7, 57, 80
15, 9808, Note_on_c, 7, 57, 0
15, 9840, Note_on_c, 7, 53, 80
15, 9928, Note_on_c, 7, 53, 0
15, 9960, Note_on_c, 7, 60, 80
15, 10048, Note_on_c, 7, 60, 0
15, 10080, Note_on_c, 7, 62, 80
15, 10168, Note_on_c, 7, 62, 0
15, 10200, Note_on_c, 7, 58, 80
15, 10288, Note_on_c, 7, 58, 0
15, 10320, Note_on_c, 7, 53, 80
15, 10408, Note_on_c, 7, 53, 0
15, 11400, Note_on_c, 7, 58, 80
15, 11489, Note_on_c, 7, 58, 0
15, 11520, Note_on_c, 7, 60, 80
15, 11609, Note_on_c, 7, 60, 0
15, 11640, Note_on_c, 7, 57, 80
15, 11729, Note_on_c, 7, 57, 0
15, 11760, Note_on_c, 7, 53, 80
15, 11849, Note_on_c, 7, 53, 0
15, 11880, Note_on_c, 7, 57, 80
15, 11969, Note_on_c, 7, 57, 0
15, 12000, Note_on_c, 7, 62, 80
15, 12088, Note_on_c, 7, 62, 0
15, 12120, Note_on_c, 7, 58, 80
15, 12208, Note_on_c, 7, 58, 0
15, 12240, Note_on_c, 7, 53, 80
15, 12328, Note_on_c, 7, 53, 0
15, 12360, Note_on_c, 7, 58, 80
15, 12448, Note_on_c, 7, 58, 0
15, 12480, Note_on_c, 7, 60, 80
15, 12568, Note_on_c, 7, 60, 0
15, 12600, Note_on_c, 7, 57, 80
15, 12688, Note_on_c, 7, 57, 0
15, 12720, Note_on_c, 7, 53, 80
15, 12809, Note_on_c, 7, 53, 0
15, 12840, Note_on_c, 7, 57, 80
15, 12929, Note_on_c, 7, 57, 0
15, 12960, Note_on_c, 7, 62, 80
15, 13049, Note_on_c, 7, 62, 0
15, 13080, Note_on_c, 7, 58, 80
15, 13169, Note_on_c, 7, 58, 0
15, 13200, Note_on_c, 7, 53, 80
15, 13289, Note_on_c, 7, 53, 0
15, 13320, Note_on_c, 7, 60, 80
15, 13409, Note_on_c, 7, 60, 0
15, 13440, Note_on_c, 7, 62, 80
15, 13529, Note_on_c, 7, 62, 0
15, 13560, Note_on_c, 7, 58, 80
15, 13649, Note_on_c, 7, 58, 0
15, 13680, Note_on_c, 7, 53, 80
15, 13769, Note_on_c, 7, 53, 0
15, 13800, Note_on_c, 7, 60, 80
15, 13889, Note_on_c, 7, 60, 0
15, 13920, Note_on_c, 7, 62, 80
15, 14009, Note_on_c, 7, 62, 0
15, 14040, Note_on_c, 7, 58, 80
15, 14129, Note_on_c, 7, 58, 0
15, 14160, Note_on_c, 7, 53, 80
15, 14249, Note_on_c, 7, 53, 0
15, 14280, Note_on_c, 7, 60, 80
15, 14368, Note_on_c, 7, 60, 0
15, 14400, Note_on_c, 7, 62, 80
15, 14488, Note_on_c, 7, 62, 0
15, 14520, Note_on_c, 7, 58, 80
15, 14608, Note_on_c, 7, 58, 0
15, 14640, Note_on_c, 7, 62, 80
15, 14728, Note_on_c, 7, 62, 0
15, 14760, Note_on_c, 7, 58, 80
15, 14848, Note_on_c, 7, 58, 0
15, 14880, Note_on_c, 7, 62, 80
15, 14968, Note_on_c, 7, 62, 0
15, 15000, Note_on_c, 7, 58, 80
15, 15089, Note_on_c, 7, 58, 0
15, 15240, Note_on_c, 7, 58, 80
15, 15329, Note_on_c, 7, 58, 0
15, 15329, End_track
16, 0, Start_track
16, 0, Title_t, "Contra Bass"
16, 0, Control_c, 8, 10, 0
16, 0, Control_c, 8, 7, 100
16, 0, Program_c, 8, 51
16, 0, Note_on_c, 8, 46, 30
16, 57, Note_on_c, 8, 46, 0
16, 240, Note_on_c, 8, 46, 30
16, 298, Note_on_c, 8, 46, 0
16, 480, Note_on_c, 8, 46, 30
16, 538, Note_on_c, 8, 46, 0
16, 720, Note_on_c, 8, 46, 30
16, 778, Note_on_c, 8, 46, 0
16, 960, Note_on_c, 8, 46, 30
16, 1018, Note_on_c, 8, 46, 0
16, 1200, Note_on_c, 8, 46, 30
16, 1259, Note_on_c, 8, 46, 0
16, 1440, Note_on_c, 8, 46, 30
16, 1499, Note_on_c, 8, 46, 0
16, 1680, Note_on_c, 8, 46, 30
16, 1739, Note_on_c, 8, 46, 0
16, 1920, Note_on_c, 8, 46, 30
16, 1979, Note_on_c, 8, 46, 0
16, 2160, Note_on_c, 8, 46, 30
16, 2219, Note_on_c, 8, 46, 0
16, 2400, Note_on_c, 8, 46, 30
16, 2458, Note_on_c, 8, 46, 0
16, 2640, Note_on_c, 8, 46, 30
16, 2698, Note_on_c, 8, 46, 0
16, 2880, Note_on_c, 8, 46, 30
16, 2938, Note_on_c, 8, 46, 0
16, 3120, Note_on_c, 8, 46, 30
16, 3179, Note_on_c, 8, 46, 0
16, 3360, Note_on_c, 8, 46, 30
16, 3419, Note_on_c, 8, 46, 0
16, 3600, Note_on_c, 8, 46, 30
16, 3659, Note_on_c, 8, 46, 0
16, 3840, Note_on_c, 8, 46, 30
16, 3899, Note_on_c, 8, 46, 0
16, 4080, Note_on_c, 8, 46, 30
16, 4139, Note_on_c, 8, 46, 0
16, 4320, Note_on_c, 8, 46, 30
16, 4379, Note_on_c, 8, 46, 0
16, 4560, Note_on_c, 8, 46, 30
16, 4619, Note_on_c, 8, 46, 0
16, 4800, Note_on_c, 8, 46, 30
16, 4858, Note_on_c, 8, 46, 0
16, 5040, Note_on_c, 8, 46, 30
16, 5098, Note_on_c, 8, 46, 0
16, 5280, Note_on_c, 8, 46, 30
16, 5338, Note_on_c, 8, 46, 0
16, 5520, Note_on_c, 8, 46, 30
16, 5579, Note_on_c, 8, 46, 0
16, 5760, Note_on_c, 8, 46, 30
16, 5819, Note_on_c, 8, 46, 0
16, 6000, Note_on_c, 8, 46, 30
16, 6059, Note_on_c, 8, 46, 0
16, 6240, Note_on_c, 8, 46, 30
16, 6299, Note_on_c, 8, 46, 0
16, 6480, Note_on_c, 8, 46, 30
16, 6539, Note_on_c, 8, 46, 0
16, 6720, Note_on_c, 8, 46, 30
16, 6779, Note_on_c, 8, 46, 0
16, 6960, Note_on_c, 8, 46, 30
16, 7019, Note_on_c, 8, 46, 0
16, 7200, Note_on_c, 8, 46, 30
16, 7258, Note_on_c, 8, 46, 0
16, 7440, Note_on_c, 8, 46, 30
16, 7498, Note_on_c, 8, 46, 0
16, 7680, Note_on_c, 8, 46, 30
16, 7738, Note_on_c, 8, 46, 0
16, 7920, Note_on_c, 8, 46, 30
16, 7979, Note_on_c, 8, 46, 0
16, 8160, Note_on_c, 8, 46, 30
16, 8219, Note_on_c, 8, 46, 0
16, 8400, Note_on_c, 8, 46, 30
16, 8459, Note_on_c, 8, 46, 0
16, 8640, Note_on_c, 8, 46, 30
16, 8699, Note_on_c, 8, 46, 0
16, 8880, Note_on_c, 8, 46, 30
16, 8939, Note_on_c, 8, 46, 0
16, 9120, Note_on_c, 8, 46, 30
16, 9179, Note_on_c, 8, 46, 0
16, 9360, Note_on_c, 8, 46, 30
16, 9418, Note_on_c, 8, 46, 0
16, 9600, Note_on_c, 8, 46, 30
16, 9658, Note_on_c, 8, 46, 0
16, 9840, Note_on_c, 8, 46, 30
16, 9898, Note_on_c, 8, 46, 0
16, 10080, Note_on_c, 8, 46, 30
16, 10139, Note_on_c, 8, 46, 0
16, 10320, Note_on_c, 8, 46, 30
16, 10379, Note_on_c, 8, 46, 0
16, 10560, Note_on_c, 8, 46, 30
16, 10619, Note_on_c, 8, 46, 0
16, 10800, Note_on_c, 8, 46, 30
16, 10859, Note_on_c, 8, 46, 0
16, 11040, Note_on_c, 8, 46, 30
16, 11099, Note_on_c, 8, 46, 0
16, 11280, Note_on_c, 8, 46, 30
16, 11339, Note_on_c, 8, 46, 0
16, 11520, Note_on_c, 8, 46, 30
16, 11579, Note_on_c, 8, 46, 0
16, 11760, Note_on_c, 8, 46, 30
16, 11818, Note_on_c, 8, 46, 0
16, 12000, Note_on_c, 8, 46, 30
16, 12058, Note_on_c, 8, 46, 0
16, 12240, Note_on_c, 8, 46, 30
16, 12299, Note_on_c, 8, 46, 0
16, 12480, Note_on_c, 8, 46, 30
16, 12539, Note_on_c, 8, 46, 0
16, 12720, Note_on_c, 8, 46, 30
16, 12779, Note_on_c, 8, 46, 0
16, 12960, Note_on_c, 8, 46, 30
16, 13019, Note_on_c, 8, 46, 0
16, 13200, Note_on_c, 8, 46, 30
16, 13259, Note_on_c, 8, 46, 0
16, 13440, Note_on_c, 8, 46, 30
16, 13499, Note_on_c, 8, 46, 0
16, 13680, Note_on_c, 8, 46, 30
16, 13739, Note_on_c, 8, 46, 0
16, 13920, Note_on_c, 8, 46, 30
16, 13978, Note_on_c, 8, 46, 0
16, 14160, Note_on_c, 8, 46, 30
16, 14218, Note_on_c, 8, 46, 0
16, 14400, Note_on_c, 8, 46, 30
16, 14458, Note_on_c, 8, 46, 0
16, 14640, Note_on_c, 8, 46, 30
16, 14699, Note_on_c, 8, 46, 0
16, 14880, Note_on_c, 8, 46, 30
16, 14939, Note_on_c, 8, 46, 0
16, 15120, Note_on_c, 8, 46, 30
16, 15179, Note_on_c, 8, 46, 0
16, 15240, Note_on_c, 8, 46, 30
16, 15299, Note_on_c, 8, 46, 0
16, 15299, End_track
0, 0, End_of_file
