0, 0, Header, 1, 30, 120
1, 0, Start_track
1, 0, Time_signature, 4, 2, 24, 8
1, 0, Key_signature, 4, "major"
1, 0, Tempo, 659340
1, 0, Marker_t, "Allegro"
1, 1800, Tempo, 666666
1, 1920, Marker_t, "Antonio Vivaldi's Four Seasons"
1, 3360, Tempo, 659340
1, 4800, Tempo, 674157
1, 4920, Tempo, 666666
1, 6600, Tempo, 659340
1, 8640, Marker_t, "Spring; Allegro"
1, 12480, Marker_t, "Opus 8, No. 1"
1, 12840, Tempo, 666666
1, 12960, Tempo, 674157
1, 13080, Tempo, 674157
1, 13200, Tempo, 681818
1, 13440, Tempo, 659340
1, 14760, Tempo, 666666
1, 14780, Tempo, 681818
1, 14790, Tempo, 681818
1, 14940, Tempo, 674157
1, 16320, Marker_t, "This Midi File Copyright (C) 1996 by Neil B. Sheldon Sr."
1, 19440, Tempo, 740740
1, 19560, Tempo, 779220
1, 19580, Tempo, 659340
1, 28350, Tempo, 681818
1, 31680, Tempo, 659340
1, 34320, Tempo, 666666
1, 34800, Tempo, 674157
1, 35040, Tempo, 681818
1, 35670, Tempo, 714285
1, 35760, Tempo, 659340
1, 39360, Time_signature, 6, 2, 24, 8
1, 39600, Tempo, 1090909
1, 39600, End_track
2, 0, Start_track
2, 0, MIDI_port, 0
2, 0, Title_t, "Violin Solo"
2, 0, Program_c, 0, 40
2, 0, Control_c, 0, 7, 105
2, 0, Control_c, 0, 10, 64
2, 0, Control_c, 0, 93, 0
2, 0, Control_c, 0, 91, 120
2, 1, Text_t, "Non Registered Parameter Numbers"
2, 1, Text_t, "For Roland SC-55 Vibrato"
2, 1, Text_t, "Set up NRPN for Vibrate Rate"
2, 2, Control_c, 0, 99, 1
2, 3, Control_c, 0, 98, 8
2, 4, Text_t, "Data Entry Command"
2, 4, Control_c, 0, 6, 68
2, 5, Text_t, "Set up NRPN for Vibrate Delay"
2, 6, Control_c, 0, 99, 1
2, 7, Control_c, 0, 98, 10
2, 8, Text_t, "Data Entry Command"
2, 8, Control_c, 0, 6, 14
2, 9, Text_t, "Set up NRPN for Vibrate Depth"
2, 10, Control_c, 0, 99, 1
2, 11, Control_c, 0, 98, 9
2, 12, Text_t, "Data Entry Command; Vibrato ON"
2, 12, Control_c, 0, 6, 64
2, 13, Pitch_bend_c, 0, 8192
2, 420, Note_on_c, 0, 76, 84
2, 470, Note_on_c, 0, 76, 0
2, 480, Note_on_c, 0, 80, 84
2, 535, Note_on_c, 0, 80, 0
2, 540, Note_on_c, 0, 80, 84
2, 595, Note_on_c, 0, 80, 0
2, 600, Note_on_c, 0, 80, 84
2, 655, Note_on_c, 0, 80, 0
2, 660, Note_on_c, 0, 78, 84
2, 690, Note_on_c, 0, 78, 0
2, 690, Note_on_c, 0, 76, 84
2, 720, Note_on_c, 0, 76, 0
2, 720, Control_c, 0, 6, 70
2, 720, Note_on_c, 0, 83, 84
2, 890, Note_on_c, 0, 83, 0
2, 899, Control_c, 0, 6, 64
2, 900, Note_on_c, 0, 83, 84
2, 930, Note_on_c, 0, 83, 0
2, 930, Note_on_c, 0, 81, 84
2, 955, Note_on_c, 0, 81, 0
2, 960, Note_on_c, 0, 80, 84
2, 1015, Note_on_c, 0, 80, 0
2, 1020, Note_on_c, 0, 80, 84
2, 1075, Note_on_c, 0, 80, 0
2, 1080, Note_on_c, 0, 80, 84
2, 1135, Note_on_c, 0, 80, 0
2, 1140, Note_on_c, 0, 78, 84
2, 1170, Note_on_c, 0, 78, 0
2, 1170, Note_on_c, 0, 76, 84
2, 1200, Note_on_c, 0, 76, 0
2, 1200, Control_c, 0, 6, 70
2, 1200, Note_on_c, 0, 83, 84
2, 1370, Note_on_c, 0, 83, 0
2, 1379, Control_c, 0, 6, 64
2, 1380, Note_on_c, 0, 83, 84
2, 1410, Note_on_c, 0, 83, 0
2, 1410, Note_on_c, 0, 81, 84
2, 1435, Note_on_c, 0, 81, 0
2, 1440, Note_on_c, 0, 80, 84
2, 1495, Note_on_c, 0, 80, 0
2, 1500, Note_on_c, 0, 81, 84
2, 1530, Note_on_c, 0, 81, 0
2, 1530, Note_on_c, 0, 83, 84
2, 1555, Note_on_c, 0, 83, 0
2, 1560, Note_on_c, 0, 81, 84
2, 1615, Note_on_c, 0, 81, 0
2, 1620, Note_on_c, 0, 80, 84
2, 1675, Note_on_c, 0, 80, 0
2, 1680, Note_on_c, 0, 78, 84
2, 1735, Note_on_c, 0, 78, 0
2, 1740, Note_on_c, 0, 75, 84
2, 1795, Note_on_c, 0, 75, 0
2, 1800, Note_on_c, 0, 71, 84
2, 1855, Note_on_c, 0, 71, 0
2, 1860, Note_on_c, 0, 76, 65
2, 1910, Note_on_c, 0, 76, 0
2, 1920, Note_on_c, 0, 80, 65
2, 1975, Note_on_c, 0, 80, 0
2, 1980, Note_on_c, 0, 80, 65
2, 2035, Note_on_c, 0, 80, 0
2, 2040, Note_on_c, 0, 80, 65
2, 2095, Note_on_c, 0, 80, 0
2, 2100, Note_on_c, 0, 78, 65
2, 2130, Note_on_c, 0, 78, 0
2, 2130, Note_on_c, 0, 76, 65
2, 2155, Note_on_c, 0, 76, 0
2, 2160, Control_c, 0, 6, 70
2, 2160, Note_on_c, 0, 83, 65
2, 2330, Note_on_c, 0, 83, 0
2, 2339, Control_c, 0, 6, 64
2, 2340, Note_on_c, 0, 83, 65
2, 2365, Note_on_c, 0, 83, 0
2, 2370, Note_on_c, 0, 81, 65
2, 2395, Note_on_c, 0, 81, 0
2, 2400, Note_on_c, 0, 80, 65
2, 2455, Note_on_c, 0, 80, 0
2, 2460, Note_on_c, 0, 80, 65
2, 2515, Note_on_c, 0, 80, 0
2, 2520, Note_on_c, 0, 80, 65
2, 2575, Note_on_c, 0, 80, 0
2, 2580, Note_on_c, 0, 78, 65
2, 2610, Note_on_c, 0, 78, 0
2, 2610, Note_on_c, 0, 76, 65
2, 2635, Note_on_c, 0, 76, 0
2, 2640, Control_c, 0, 6, 70
2, 2640, Note_on_c, 0, 83, 65
2, 2810, Note_on_c, 0, 83, 0
2, 2819, Control_c, 0, 6, 64
2, 2820, Note_on_c, 0, 83, 65
2, 2850, Note_on_c, 0, 83, 0
2, 2850, Note_on_c, 0, 81, 65
2, 2875, Note_on_c, 0, 81, 0
2, 2880, Note_on_c, 0, 80, 65
2, 2930, Note_on_c, 0, 80, 0
2, 2940, Note_on_c, 0, 81, 65
2, 2965, Note_on_c, 0, 81, 0
2, 2970, Note_on_c, 0, 83, 65
2, 2995, Note_on_c, 0, 83, 0
2, 3000, Note_on_c, 0, 81, 65
2, 3055, Note_on_c, 0, 81, 0
2, 3060, Note_on_c, 0, 80, 65
2, 3115, Note_on_c, 0, 80, 0
2, 3120, Control_c, 0, 6, 70
2, 3120, Note_on_c, 0, 78, 65
2, 3235, Note_on_c, 0, 78, 0
2, 3299, Control_c, 0, 6, 64
2, 3300, Note_on_c, 0, 76, 84
2, 3350, Note_on_c, 0, 76, 0
2, 3360, Note_on_c, 0, 83, 84
2, 3415, Note_on_c, 0, 83, 0
2, 3420, Note_on_c, 0, 81, 84
2, 3450, Note_on_c, 0, 80, 84
2, 3455, Note_on_c, 0, 81, 0
2, 3475, Note_on_c, 0, 80, 0
2, 3480, Note_on_c, 0, 81, 84
2, 3530, Note_on_c, 0, 81, 0
2, 3540, Note_on_c, 0, 83, 84
2, 3595, Note_on_c, 0, 83, 0
2, 3600, Note_on_c, 0, 85, 84
2, 3655, Note_on_c, 0, 85, 0
2, 3660, Control_c, 0, 6, 70
2, 3660, Note_on_c, 0, 83, 84
2, 3775, Note_on_c, 0, 83, 0
2, 3779, Control_c, 0, 6, 64
2, 3780, Note_on_c, 0, 76, 84
2, 3830, Note_on_c, 0, 76, 0
2, 3840, Note_on_c, 0, 83, 84
2, 3895, Note_on_c, 0, 83, 0
2, 3900, Note_on_c, 0, 81, 84
2, 3930, Note_on_c, 0, 80, 84
2, 3935, Note_on_c, 0, 81, 0
2, 3955, Note_on_c, 0, 80, 0
2, 3960, Note_on_c, 0, 81, 84
2, 4010, Note_on_c, 0, 81, 0
2, 4020, Note_on_c, 0, 83, 84
2, 4075, Note_on_c, 0, 83, 0
2, 4080, Note_on_c, 0, 85, 84
2, 4135, Note_on_c, 0, 85, 0
2, 4140, Control_c, 0, 6, 70
2, 4140, Note_on_c, 0, 83, 84
2, 4255, Note_on_c, 0, 83, 0
2, 4259, Control_c, 0, 6, 64
2, 4260, Note_on_c, 0, 76, 84
2, 4315, Note_on_c, 0, 76, 0
2, 4320, Note_on_c, 0, 85, 84
2, 4375, Note_on_c, 0, 85, 0
2, 4380, Control_c, 0, 6, 70
2, 4380, Note_on_c, 0, 83, 84
2, 4495, Note_on_c, 0, 83, 0
2, 4499, Control_c, 0, 6, 64
2, 4500, Note_on_c, 0, 81, 84
2, 4555, Note_on_c, 0, 81, 0
2, 4560, Note_on_c, 0, 80, 84
2, 4615, Note_on_c, 0, 80, 0
2, 4620, Note_on_c, 0, 78, 84
2, 4650, Note_on_c, 0, 78, 0
2, 4650, Note_on_c, 0, 76, 84
2, 4679, Note_on_c, 0, 76, 0
2, 4679, Pitch_bend_c, 0, 16383
2, 4680, Note_on_c, 0, 78, 84
2, 4695, Pitch_bend_c, 0, 8192
2, 4710, Pitch_bend_c, 0, 16383
2, 4725, Pitch_bend_c, 0, 8192
2, 4740, Pitch_bend_c, 0, 16383
2, 4755, Pitch_bend_c, 0, 8192
2, 4770, Pitch_bend_c, 0, 16383
2, 4785, Pitch_bend_c, 0, 8192
2, 4800, Note_on_c, 0, 78, 0
2, 4800, Control_c, 0, 6, 70
2, 4800, Note_on_c, 0, 76, 84
2, 4915, Note_on_c, 0, 76, 0
2, 4979, Control_c, 0, 6, 64
2, 4980, Note_on_c, 0, 76, 65
2, 5030, Note_on_c, 0, 76, 0
2, 5040, Note_on_c, 0, 83, 65
2, 5095, Note_on_c, 0, 83, 0
2, 5100, Note_on_c, 0, 81, 65
2, 5130, Note_on_c, 0, 80, 65
2, 5135, Note_on_c, 0, 81, 0
2, 5155, Note_on_c, 0, 80, 0
2, 5160, Note_on_c, 0, 81, 65
2, 5210, Note_on_c, 0, 81, 0
2, 5220, Note_on_c, 0, 83, 65
2, 5275, Note_on_c, 0, 83, 0
2, 5280, Note_on_c, 0, 85, 65
2, 5335, Note_on_c, 0, 85, 0
2, 5340, Control_c, 0, 6, 70
2, 5340, Note_on_c, 0, 83, 65
2, 5455, Note_on_c, 0, 83, 0
2, 5459, Control_c, 0, 6, 64
2, 5460, Note_on_c, 0, 76, 65
2, 5510, Note_on_c, 0, 76, 0
2, 5520, Note_on_c, 0, 83, 65
2, 5575, Note_on_c, 0, 83, 0
2, 5580, Note_on_c, 0, 81, 65
2, 5610, Note_on_c, 0, 80, 65
2, 5615, Note_on_c, 0, 81, 0
2, 5635, Note_on_c, 0, 80, 0
2, 5640, Note_on_c, 0, 81, 65
2, 5690, Note_on_c, 0, 81, 0
2, 5700, Note_on_c, 0, 83, 65
2, 5755, Note_on_c, 0, 83, 0
2, 5760, Note_on_c, 0, 85, 65
2, 5815, Note_on_c, 0, 85, 0
2, 5820, Control_c, 0, 6, 70
2, 5820, Note_on_c, 0, 83, 65
2, 5935, Note_on_c, 0, 83, 0
2, 5939, Control_c, 0, 6, 64
2, 5940, Note_on_c, 0, 76, 65
2, 5990, Note_on_c, 0, 76, 0
2, 6000, Note_on_c, 0, 85, 65
2, 6055, Note_on_c, 0, 85, 0
2, 6060, Control_c, 0, 6, 70
2, 6060, Note_on_c, 0, 83, 65
2, 6175, Note_on_c, 0, 83, 0
2, 6179, Control_c, 0, 6, 64
2, 6180, Note_on_c, 0, 81, 65
2, 6230, Note_on_c, 0, 81, 0
2, 6240, Note_on_c, 0, 80, 65
2, 6290, Note_on_c, 0, 80, 0
2, 6300, Note_on_c, 0, 78, 65
2, 6330, Note_on_c, 0, 78, 0
2, 6330, Note_on_c, 0, 76, 65
2, 6359, Note_on_c, 0, 76, 0
2, 6359, Pitch_bend_c, 0, 16383
2, 6360, Note_on_c, 0, 78, 65
2, 6375, Pitch_bend_c, 0, 8192
2, 6390, Pitch_bend_c, 0, 16383
2, 6405, Pitch_bend_c, 0, 8192
2, 6420, Pitch_bend_c, 0, 16383
2, 6435, Pitch_bend_c, 0, 8192
2, 6450, Pitch_bend_c, 0, 16383
2, 6465, Pitch_bend_c, 0, 8192
2, 6479, Note_on_c, 0, 78, 0
2, 6479, Pitch_bend_c, 0, 16383
2, 6480, Note_on_c, 0, 83, 65
2, 6495, Pitch_bend_c, 0, 8192
2, 6510, Pitch_bend_c, 0, 16383
2, 6525, Pitch_bend_c, 0, 8192
2, 6540, Pitch_bend_c, 0, 16383
2, 6555, Pitch_bend_c, 0, 8192
2, 6570, Pitch_bend_c, 0, 16383
2, 6585, Note_on_c, 0, 83, 0
2, 6585, Pitch_bend_c, 0, 8192
2, 6599, Pitch_bend_c, 0, 16383
2, 6600, Note_on_c, 0, 83, 65
2, 6615, Pitch_bend_c, 0, 8192
2, 6630, Pitch_bend_c, 0, 16383
2, 6645, Pitch_bend_c, 0, 8192
2, 6660, Pitch_bend_c, 0, 16383
2, 6675, Pitch_bend_c, 0, 8192
2, 6690, Pitch_bend_c, 0, 16383
2, 6705, Note_on_c, 0, 83, 0
2, 6705, Pitch_bend_c, 0, 8192
2, 6719, Pitch_bend_c, 0, 16383
2, 6720, Note_on_c, 0, 83, 65
2, 6735, Pitch_bend_c, 0, 8192
2, 6750, Pitch_bend_c, 0, 16383
2, 6765, Pitch_bend_c, 0, 8192
2, 6780, Pitch_bend_c, 0, 16383
2, 6795, Pitch_bend_c, 0, 8192
2, 6810, Pitch_bend_c, 0, 16383
2, 6825, Note_on_c, 0, 83, 0
2, 6825, Pitch_bend_c, 0, 8192
2, 6839, Pitch_bend_c, 0, 16383
2, 6840, Note_on_c, 0, 83, 65
2, 6855, Pitch_bend_c, 0, 8192
2, 6870, Pitch_bend_c, 0, 16383
2, 6885, Pitch_bend_c, 0, 8192
2, 6900, Pitch_bend_c, 0, 16383
2, 6915, Pitch_bend_c, 0, 8192
2, 6930, Pitch_bend_c, 0, 16383
2, 6945, Note_on_c, 0, 83, 0
2, 6945, Pitch_bend_c, 0, 8192
2, 6959, Pitch_bend_c, 0, 16383
2, 6960, Note_on_c, 0, 83, 65
2, 6975, Pitch_bend_c, 0, 8192
2, 6990, Pitch_bend_c, 0, 16383
2, 7005, Pitch_bend_c, 0, 8192
2, 7020, Pitch_bend_c, 0, 16383
2, 7035, Pitch_bend_c, 0, 8192
2, 7050, Pitch_bend_c, 0, 16383
2, 7065, Note_on_c, 0, 83, 0
2, 7065, Pitch_bend_c, 0, 8192
2, 7079, Pitch_bend_c, 0, 16383
2, 7080, Note_on_c, 0, 83, 65
2, 7095, Pitch_bend_c, 0, 16383
2, 7110, Pitch_bend_c, 0, 8192
2, 7125, Pitch_bend_c, 0, 16383
2, 7140, Pitch_bend_c, 0, 8192
2, 7155, Pitch_bend_c, 0, 16383
2, 7170, Pitch_bend_c, 0, 8192
2, 7185, Note_on_c, 0, 83, 0
2, 7185, Pitch_bend_c, 0, 16383
2, 7199, Pitch_bend_c, 0, 8192
2, 7200, Note_on_c, 0, 83, 65
2, 7250, Note_on_c, 0, 83, 0
2, 7260, Note_on_c, 0, 83, 65
2, 7310, Note_on_c, 0, 83, 0
2, 7320, Note_on_c, 0, 83, 65
2, 7370, Note_on_c, 0, 83, 0
2, 7380, Note_on_c, 0, 83, 65
2, 7430, Note_on_c, 0, 83, 0
2, 7440, Note_on_c, 0, 83, 65
2, 7490, Note_on_c, 0, 83, 0
2, 7500, Note_on_c, 0, 83, 65
2, 7550, Note_on_c, 0, 83, 0
2, 7560, Note_on_c, 0, 83, 65
2, 7610, Note_on_c, 0, 83, 0
2, 7620, Note_on_c, 0, 83, 65
2, 7670, Note_on_c, 0, 83, 0
2, 7680, Note_on_c, 0, 83, 65
2, 7730, Note_on_c, 0, 83, 0
2, 7740, Note_on_c, 0, 83, 65
2, 7790, Note_on_c, 0, 83, 0
2, 7800, Note_on_c, 0, 83, 65
2, 7850, Note_on_c, 0, 83, 0
2, 7860, Note_on_c, 0, 83, 65
2, 7910, Note_on_c, 0, 83, 0
2, 7920, Note_on_c, 0, 83, 65
2, 7970, Note_on_c, 0, 83, 0
2, 7980, Note_on_c, 0, 83, 65
2, 8030, Note_on_c, 0, 83, 0
2, 8040, Note_on_c, 0, 83, 65
2, 8090, Note_on_c, 0, 83, 0
2, 8100, Note_on_c, 0, 85, 65
2, 8130, Note_on_c, 0, 87, 65
2, 8135, Note_on_c, 0, 85, 0
2, 8160, Note_on_c, 0, 88, 65
2, 8165, Note_on_c, 0, 87, 0
2, 8190, Note_on_c, 0, 87, 65
2, 8195, Note_on_c, 0, 88, 0
2, 8220, Note_on_c, 0, 85, 65
2, 8225, Note_on_c, 0, 87, 0
2, 8250, Note_on_c, 0, 83, 65
2, 8255, Note_on_c, 0, 85, 0
2, 8280, Note_on_c, 0, 81, 65
2, 8285, Note_on_c, 0, 83, 0
2, 8310, Note_on_c, 0, 80, 65
2, 8315, Note_on_c, 0, 81, 0
2, 8340, Note_on_c, 0, 78, 65
2, 8345, Note_on_c, 0, 80, 0
2, 8370, Note_on_c, 0, 76, 65
2, 8375, Note_on_c, 0, 78, 0
2, 8405, Note_on_c, 0, 76, 0
2, 9300, Note_on_c, 0, 88, 65
2, 9350, Note_on_c, 0, 88, 0
2, 9360, Note_on_c, 0, 88, 65
2, 9410, Note_on_c, 0, 88, 0
2, 9420, Note_on_c, 0, 88, 65
2, 9470, Note_on_c, 0, 88, 0
2, 9480, Note_on_c, 0, 88, 65
2, 9530, Note_on_c, 0, 88, 0
2, 9540, Note_on_c, 0, 88, 65
2, 9590, Note_on_c, 0, 88, 0
2, 9599, Pitch_bend_c, 0, 16383
2, 9600, Note_on_c, 0, 76, 65
2, 9615, Pitch_bend_c, 0, 8192
2, 9630, Pitch_bend_c, 0, 16383
2, 9645, Pitch_bend_c, 0, 8192
2, 9660, Pitch_bend_c, 0, 16383
2, 9675, Pitch_bend_c, 0, 8192
2, 9690, Pitch_bend_c, 0, 16383
2, 9705, Pitch_bend_c, 0, 8192
2, 9720, Pitch_bend_c, 0, 16383
2, 9735, Pitch_bend_c, 0, 8192
2, 9750, Pitch_bend_c, 0, 16383
2, 9765, Pitch_bend_c, 0, 8192
2, 9780, Note_on_c, 0, 76, 0
2, 9780, Note_on_c, 0, 88, 65
2, 9830, Note_on_c, 0, 88, 0
2, 9840, Note_on_c, 0, 88, 65
2, 9890, Note_on_c, 0, 88, 0
2, 9900, Note_on_c, 0, 88, 65
2, 9950, Note_on_c, 0, 88, 0
2, 9960, Note_on_c, 0, 88, 65
2, 10010, Note_on_c, 0, 88, 0
2, 10020, Note_on_c, 0, 88, 65
2, 10070, Note_on_c, 0, 88, 0
2, 10079, Pitch_bend_c, 0, 16383
2, 10080, Note_on_c, 0, 76, 65
2, 10095, Pitch_bend_c, 0, 8192
2, 10110, Pitch_bend_c, 0, 16383
2, 10125, Pitch_bend_c, 0, 8192
2, 10140, Pitch_bend_c, 0, 16383
2, 10155, Pitch_bend_c, 0, 8192
2, 10170, Pitch_bend_c, 0, 16383
2, 10185, Pitch_bend_c, 0, 8192
2, 10200, Note_on_c, 0, 76, 0
2, 10320, Control_c, 0, 6, 70
2, 10320, Note_on_c, 0, 83, 65
2, 10469, Control_c, 0, 6, 64
2, 10470, Note_on_c, 0, 88, 65
2, 10475, Note_on_c, 0, 83, 0
2, 10500, Note_on_c, 0, 88, 0
2, 10500, Note_on_c, 0, 83, 65
2, 10530, Note_on_c, 0, 85, 65
2, 10535, Note_on_c, 0, 83, 0
2, 10560, Note_on_c, 0, 85, 0
2, 10560, Control_c, 0, 6, 70
2, 10560, Note_on_c, 0, 83, 65
2, 10709, Control_c, 0, 6, 64
2, 10710, Note_on_c, 0, 88, 65
2, 10715, Note_on_c, 0, 83, 0
2, 10740, Note_on_c, 0, 88, 0
2, 10740, Note_on_c, 0, 83, 65
2, 10770, Note_on_c, 0, 85, 65
2, 10775, Note_on_c, 0, 83, 0
2, 10800, Note_on_c, 0, 85, 0
2, 10800, Note_on_c, 0, 83, 65
2, 10830, Note_on_c, 0, 88, 65
2, 10835, Note_on_c, 0, 83, 0
2, 10860, Note_on_c, 0, 88, 0
2, 10860, Note_on_c, 0, 83, 65
2, 10890, Note_on_c, 0, 85, 65
2, 10895, Note_on_c, 0, 83, 0
2, 10920, Note_on_c, 0, 85, 0
2, 10920, Note_on_c, 0, 83, 65
2, 10950, Note_on_c, 0, 88, 65
2, 10955, Note_on_c, 0, 83, 0
2, 10980, Note_on_c, 0, 88, 0
2, 10980, Note_on_c, 0, 83, 65
2, 11010, Note_on_c, 0, 85, 65
2, 11015, Note_on_c, 0, 83, 0
2, 11040, Note_on_c, 0, 85, 0
2, 11040, Note_on_c, 0, 83, 65
2, 11070, Note_on_c, 0, 88, 65
2, 11075, Note_on_c, 0, 83, 0
2, 11100, Note_on_c, 0, 88, 0
2, 11100, Note_on_c, 0, 83, 65
2, 11130, Note_on_c, 0, 85, 65
2, 11135, Note_on_c, 0, 83, 0
2, 11160, Note_on_c, 0, 85, 0
2, 11160, Note_on_c, 0, 83, 65
2, 11190, Note_on_c, 0, 88, 65
2, 11195, Note_on_c, 0, 83, 0
2, 11220, Note_on_c, 0, 88, 0
2, 11220, Note_on_c, 0, 83, 65
2, 11250, Note_on_c, 0, 85, 65
2, 11255, Note_on_c, 0, 83, 0
2, 11280, Note_on_c, 0, 85, 0
2, 11280, Note_on_c, 0, 83, 65
2, 11330, Note_on_c, 0, 83, 0
2, 11340, Note_on_c, 0, 76, 65
2, 11395, Note_on_c, 0, 76, 0
2, 11399, Pitch_bend_c, 0, 12288
2, 11400, Note_on_c, 0, 80, 65
2, 11415, Pitch_bend_c, 0, 8192
2, 11430, Pitch_bend_c, 0, 12288
2, 11445, Pitch_bend_c, 0, 8192
2, 11460, Pitch_bend_c, 0, 12288
2, 11475, Pitch_bend_c, 0, 8192
2, 11490, Pitch_bend_c, 0, 12288
2, 11505, Note_on_c, 0, 80, 0
2, 11505, Pitch_bend_c, 0, 8192
2, 11639, Pitch_bend_c, 0, 12288
2, 11640, Note_on_c, 0, 80, 65
2, 11655, Pitch_bend_c, 0, 8192
2, 11670, Pitch_bend_c, 0, 12288
2, 11685, Pitch_bend_c, 0, 8192
2, 11700, Pitch_bend_c, 0, 12288
2, 11715, Pitch_bend_c, 0, 8192
2, 11730, Pitch_bend_c, 0, 12288
2, 11745, Note_on_c, 0, 80, 0
2, 11745, Pitch_bend_c, 0, 8192
2, 11879, Pitch_bend_c, 0, 12288
2, 11880, Note_on_c, 0, 80, 65
2, 11895, Pitch_bend_c, 0, 8192
2, 11910, Pitch_bend_c, 0, 12288
2, 11925, Pitch_bend_c, 0, 8192
2, 11940, Pitch_bend_c, 0, 12288
2, 11955, Pitch_bend_c, 0, 8192
2, 11970, Pitch_bend_c, 0, 12288
2, 11985, Note_on_c, 0, 80, 0
2, 11985, Pitch_bend_c, 0, 8192
2, 12119, Pitch_bend_c, 0, 12288
2, 12120, Note_on_c, 0, 80, 65
2, 12135, Pitch_bend_c, 0, 8192
2, 12150, Pitch_bend_c, 0, 12288
2, 12165, Pitch_bend_c, 0, 8192
2, 12180, Pitch_bend_c, 0, 12288
2, 12195, Pitch_bend_c, 0, 8192
2, 12210, Pitch_bend_c, 0, 12288
2, 12225, Pitch_bend_c, 0, 8192
2, 12239, Note_on_c, 0, 80, 0
2, 12240, Control_c, 0, 6, 70
2, 12240, Note_on_c, 0, 88, 65
2, 12350, Note_on_c, 0, 88, 0
2, 12360, Note_on_c, 0, 88, 65
2, 12470, Note_on_c, 0, 88, 0
2, 12478, Control_c, 0, 6, 64
2, 12479, Pitch_bend_c, 0, 16383
2, 12480, Note_on_c, 0, 88, 65
2, 12495, Pitch_bend_c, 0, 8192
2, 12510, Pitch_bend_c, 0, 16383
2, 12525, Pitch_bend_c, 0, 8192
2, 12540, Pitch_bend_c, 0, 16383
2, 12555, Pitch_bend_c, 0, 8192
2, 12570, Pitch_bend_c, 0, 16383
2, 12585, Pitch_bend_c, 0, 8192
2, 12600, Pitch_bend_c, 0, 16383
2, 12615, Pitch_bend_c, 0, 8192
2, 12630, Pitch_bend_c, 0, 16383
2, 12645, Pitch_bend_c, 0, 8192
2, 12660, Pitch_bend_c, 0, 16383
2, 12675, Pitch_bend_c, 0, 8192
2, 12690, Pitch_bend_c, 0, 16383
2, 12719, Note_on_c, 0, 88, 0
2, 12719, Pitch_bend_c, 0, 8192
2, 12720, Control_c, 0, 6, 70
2, 12720, Note_on_c, 0, 88, 65
2, 12830, Note_on_c, 0, 88, 0
2, 12840, Note_on_c, 0, 88, 65
2, 12950, Note_on_c, 0, 88, 0
2, 12958, Control_c, 0, 6, 64
2, 12959, Pitch_bend_c, 0, 16383
2, 12960, Note_on_c, 0, 88, 65
2, 12975, Pitch_bend_c, 0, 8192
2, 12990, Pitch_bend_c, 0, 16383
2, 13005, Pitch_bend_c, 0, 8192
2, 13020, Pitch_bend_c, 0, 16383
2, 13035, Pitch_bend_c, 0, 8192
2, 13050, Pitch_bend_c, 0, 16383
2, 13065, Pitch_bend_c, 0, 8192
2, 13080, Pitch_bend_c, 0, 16383
2, 13095, Pitch_bend_c, 0, 8192
2, 13110, Pitch_bend_c, 0, 16383
2, 13125, Pitch_bend_c, 0, 8192
2, 13140, Pitch_bend_c, 0, 16383
2, 13155, Pitch_bend_c, 0, 8192
2, 13170, Pitch_bend_c, 0, 16383
2, 13199, Note_on_c, 0, 88, 0
2, 13200, Pitch_bend_c, 0, 8192
2, 13380, Note_on_c, 0, 76, 84
2, 13430, Note_on_c, 0, 76, 0
2, 13440, Note_on_c, 0, 83, 84
2, 13495, Note_on_c, 0, 83, 0
2, 13500, Note_on_c, 0, 81, 84
2, 13530, Note_on_c, 0, 81, 0
2, 13530, Note_on_c, 0, 80, 84
2, 13560, Note_on_c, 0, 80, 0
2, 13560, Note_on_c, 0, 81, 84
2, 13615, Note_on_c, 0, 81, 0
2, 13620, Note_on_c, 0, 83, 84
2, 13675, Note_on_c, 0, 83, 0
2, 13680, Note_on_c, 0, 85, 84
2, 13735, Note_on_c, 0, 85, 0
2, 13740, Control_c, 0, 6, 70
2, 13740, Note_on_c, 0, 83, 84
2, 13855, Note_on_c, 0, 83, 0
2, 13859, Control_c, 0, 6, 64
2, 13860, Note_on_c, 0, 76, 84
2, 13910, Note_on_c, 0, 76, 0
2, 13920, Note_on_c, 0, 83, 84
2, 13975, Note_on_c, 0, 83, 0
2, 13980, Note_on_c, 0, 81, 84
2, 14005, Note_on_c, 0, 81, 0
2, 14010, Note_on_c, 0, 80, 84
2, 14040, Note_on_c, 0, 80, 0
2, 14040, Note_on_c, 0, 81, 84
2, 14095, Note_on_c, 0, 81, 0
2, 14100, Note_on_c, 0, 83, 84
2, 14150, Note_on_c, 0, 83, 0
2, 14160, Note_on_c, 0, 85, 84
2, 14215, Note_on_c, 0, 85, 0
2, 14220, Control_c, 0, 6, 70
2, 14220, Note_on_c, 0, 83, 84
2, 14335, Note_on_c, 0, 83, 0
2, 14339, Control_c, 0, 6, 64
2, 14340, Note_on_c, 0, 76, 84
2, 14395, Note_on_c, 0, 76, 0
2, 14400, Note_on_c, 0, 85, 84
2, 14455, Note_on_c, 0, 85, 0
2, 14460, Control_c, 0, 6, 70
2, 14460, Note_on_c, 0, 83, 84
2, 14575, Note_on_c, 0, 83, 0
2, 14579, Control_c, 0, 6, 64
2, 14580, Note_on_c, 0, 81, 84
2, 14630, Note_on_c, 0, 81, 0
2, 14640, Note_on_c, 0, 80, 84
2, 14695, Note_on_c, 0, 80, 0
2, 14700, Note_on_c, 0, 78, 84
2, 14725, Note_on_c, 0, 78, 0
2, 14730, Note_on_c, 0, 76, 84
2, 14755, Note_on_c, 0, 76, 0
2, 14759, Pitch_bend_c, 0, 16383
2, 14760, Note_on_c, 0, 78, 84
2, 14775, Pitch_bend_c, 0, 8192
2, 14790, Pitch_bend_c, 0, 16383
2, 14805, Pitch_bend_c, 0, 8192
2, 14820, Pitch_bend_c, 0, 16383
2, 14835, Pitch_bend_c, 0, 8192
2, 14850, Pitch_bend_c, 0, 16383
2, 14865, Pitch_bend_c, 0, 8192
2, 14879, Note_on_c, 0, 78, 0
2, 14880, Note_on_c, 0, 76, 84
2, 14930, Note_on_c, 0, 76, 0
2, 14940, Note_on_c, 0, 68, 84
2, 14970, Note_on_c, 0, 69, 84
2, 14975, Note_on_c, 0, 68, 0
2, 15000, Note_on_c, 0, 69, 0
2, 15000, Note_on_c, 0, 71, 84
2, 15030, Note_on_c, 0, 69, 84
2, 15035, Note_on_c, 0, 71, 0
2, 15060, Note_on_c, 0, 69, 0
2, 15060, Note_on_c, 0, 71, 84
2, 15090, Note_on_c, 0, 69, 84
2, 15095, Note_on_c, 0, 71, 0
2, 15120, Note_on_c, 0, 69, 0
2, 15120, Note_on_c, 0, 68, 84
2, 15150, Note_on_c, 0, 69, 84
2, 15155, Note_on_c, 0, 68, 0
2, 15180, Note_on_c, 0, 69, 0
2, 15180, Note_on_c, 0, 68, 84
2, 15210, Note_on_c, 0, 69, 84
2, 15215, Note_on_c, 0, 68, 0
2, 15240, Note_on_c, 0, 69, 0
2, 15240, Note_on_c, 0, 71, 84
2, 15270, Note_on_c, 0, 69, 84
2, 15275, Note_on_c, 0, 71, 0
2, 15300, Note_on_c, 0, 69, 0
2, 15300, Note_on_c, 0, 71, 84
2, 15330, Note_on_c, 0, 69, 84
2, 15335, Note_on_c, 0, 71, 0
2, 15360, Note_on_c, 0, 69, 0
2, 15360, Note_on_c, 0, 68, 84
2, 15390, Note_on_c, 0, 69, 84
2, 15395, Note_on_c, 0, 68, 0
2, 15420, Note_on_c, 0, 69, 0
2, 15420, Note_on_c, 0, 68, 84
2, 15450, Note_on_c, 0, 69, 84
2, 15455, Note_on_c, 0, 68, 0
2, 15480, Note_on_c, 0, 69, 0
2, 15480, Note_on_c, 0, 71, 84
2, 15510, Note_on_c, 0, 69, 84
2, 15515, Note_on_c, 0, 71, 0
2, 15540, Note_on_c, 0, 69, 0
2, 15540, Note_on_c, 0, 71, 84
2, 15570, Note_on_c, 0, 69, 84
2, 15575, Note_on_c, 0, 71, 0
2, 15600, Note_on_c, 0, 69, 0
2, 15600, Note_on_c, 0, 68, 84
2, 15630, Note_on_c, 0, 69, 84
2, 15635, Note_on_c, 0, 68, 0
2, 15660, Note_on_c, 0, 69, 0
2, 15660, Note_on_c, 0, 68, 84
2, 15690, Note_on_c, 0, 69, 84
2, 15695, Note_on_c, 0, 68, 0
2, 15720, Note_on_c, 0, 69, 0
2, 15720, Note_on_c, 0, 71, 84
2, 15750, Note_on_c, 0, 73, 84
2, 15755, Note_on_c, 0, 71, 0
2, 15780, Note_on_c, 0, 73, 0
2, 15780, Note_on_c, 0, 71, 84
2, 15810, Note_on_c, 0, 73, 84
2, 15815, Note_on_c, 0, 71, 0
2, 15840, Note_on_c, 0, 73, 0
2, 15840, Note_on_c, 0, 75, 84
2, 15870, Note_on_c, 0, 76, 84
2, 15875, Note_on_c, 0, 75, 0
2, 15900, Note_on_c, 0, 76, 0
2, 15900, Note_on_c, 0, 75, 84
2, 15930, Note_on_c, 0, 76, 84
2, 15935, Note_on_c, 0, 75, 0
2, 15960, Note_on_c, 0, 76, 0
2, 15960, Note_on_c, 0, 78, 84
2, 15990, Note_on_c, 0, 76, 84
2, 15995, Note_on_c, 0, 78, 0
2, 16020, Note_on_c, 0, 76, 0
2, 16020, Note_on_c, 0, 78, 84
2, 16050, Note_on_c, 0, 76, 84
2, 16055, Note_on_c, 0, 78, 0
2, 16080, Note_on_c, 0, 76, 0
2, 16080, Note_on_c, 0, 75, 84
2, 16110, Note_on_c, 0, 76, 84
2, 16115, Note_on_c, 0, 75, 0
2, 16140, Note_on_c, 0, 76, 0
2, 16140, Note_on_c, 0, 75, 84
2, 16170, Note_on_c, 0, 76, 84
2, 16175, Note_on_c, 0, 75, 0
2, 16200, Note_on_c, 0, 76, 0
2, 16200, Note_on_c, 0, 78, 84
2, 16230, Note_on_c, 0, 76, 84
2, 16235, Note_on_c, 0, 78, 0
2, 16260, Note_on_c, 0, 76, 0
2, 16260, Note_on_c, 0, 78, 84
2, 16290, Note_on_c, 0, 76, 84
2, 16295, Note_on_c, 0, 78, 0
2, 16320, Note_on_c, 0, 76, 0
2, 16320, Note_on_c, 0, 75, 84
2, 16350, Note_on_c, 0, 76, 84
2, 16355, Note_on_c, 0, 75, 0
2, 16380, Note_on_c, 0, 76, 0
2, 16380, Note_on_c, 0, 75, 84
2, 16410, Note_on_c, 0, 76, 84
2, 16415, Note_on_c, 0, 75, 0
2, 16440, Note_on_c, 0, 76, 0
2, 16440, Note_on_c, 0, 78, 84
2, 16470, Note_on_c, 0, 80, 84
2, 16475, Note_on_c, 0, 78, 0
2, 16500, Note_on_c, 0, 80, 0
2, 16500, Note_on_c, 0, 78, 84
2, 16530, Note_on_c, 0, 80, 84
2, 16535, Note_on_c, 0, 78, 0
2, 16560, Note_on_c, 0, 80, 0
2, 16560, Note_on_c, 0, 81, 84
2, 16590, Note_on_c, 0, 80, 84
2, 16595, Note_on_c, 0, 81, 0
2, 16620, Note_on_c, 0, 80, 0
2, 16620, Note_on_c, 0, 81, 84
2, 16650, Note_on_c, 0, 80, 84
2, 16655, Note_on_c, 0, 81, 0
2, 16680, Note_on_c, 0, 80, 0
2, 16680, Note_on_c, 0, 78, 84
2, 16710, Note_on_c, 0, 81, 84
2, 16715, Note_on_c, 0, 78, 0
2, 16740, Note_on_c, 0, 81, 0
2, 16740, Note_on_c, 0, 80, 84
2, 16770, Note_on_c, 0, 78, 84
2, 16775, Note_on_c, 0, 80, 0
2, 16800, Note_on_c, 0, 78, 0
2, 16800, Note_on_c, 0, 80, 84
2, 16855, Note_on_c, 0, 80, 0
2, 16860, Note_on_c, 0, 78, 84
2, 16890, Note_on_c, 0, 76, 84
2, 16895, Note_on_c, 0, 78, 0
2, 16920, Note_on_c, 0, 76, 0
2, 16920, Note_on_c, 0, 75, 84
2, 16950, Note_on_c, 0, 73, 84
2, 16955, Note_on_c, 0, 75, 0
2, 16980, Note_on_c, 0, 73, 0
2, 16980, Note_on_c, 0, 71, 84
2, 17010, Note_on_c, 0, 69, 84
2, 17015, Note_on_c, 0, 71, 0
2, 17040, Note_on_c, 0, 69, 0
2, 17040, Note_on_c, 0, 68, 84
2, 17070, Note_on_c, 0, 69, 84
2, 17075, Note_on_c, 0, 68, 0
2, 17100, Note_on_c, 0, 69, 0
2, 17100, Note_on_c, 0, 68, 84
2, 17130, Note_on_c, 0, 69, 84
2, 17135, Note_on_c, 0, 68, 0
2, 17160, Note_on_c, 0, 69, 0
2, 17160, Note_on_c, 0, 71, 84
2, 17190, Note_on_c, 0, 69, 84
2, 17195, Note_on_c, 0, 71, 0
2, 17220, Note_on_c, 0, 69, 0
2, 17220, Note_on_c, 0, 71, 84
2, 17250, Note_on_c, 0, 69, 84
2, 17255, Note_on_c, 0, 71, 0
2, 17280, Note_on_c, 0, 69, 0
2, 17280, Note_on_c, 0, 68, 84
2, 17310, Note_on_c, 0, 69, 84
2, 17315, Note_on_c, 0, 68, 0
2, 17340, Note_on_c, 0, 69, 0
2, 17340, Note_on_c, 0, 68, 84
2, 17370, Note_on_c, 0, 69, 84
2, 17375, Note_on_c, 0, 68, 0
2, 17400, Note_on_c, 0, 69, 0
2, 17400, Note_on_c, 0, 71, 84
2, 17430, Note_on_c, 0, 69, 84
2, 17435, Note_on_c, 0, 71, 0
2, 17460, Note_on_c, 0, 69, 0
2, 17460, Note_on_c, 0, 71, 84
2, 17490, Note_on_c, 0, 69, 84
2, 17495, Note_on_c, 0, 71, 0
2, 17520, Note_on_c, 0, 69, 0
2, 17520, Note_on_c, 0, 68, 84
2, 17550, Note_on_c, 0, 69, 84
2, 17555, Note_on_c, 0, 68, 0
2, 17580, Note_on_c, 0, 69, 0
2, 17580, Note_on_c, 0, 68, 84
2, 17610, Note_on_c, 0, 69, 84
2, 17615, Note_on_c, 0, 68, 0
2, 17640, Note_on_c, 0, 69, 0
2, 17640, Note_on_c, 0, 71, 84
2, 17670, Note_on_c, 0, 69, 84
2, 17675, Note_on_c, 0, 71, 0
2, 17700, Note_on_c, 0, 69, 0
2, 17700, Note_on_c, 0, 71, 84
2, 17730, Note_on_c, 0, 69, 84
2, 17735, Note_on_c, 0, 71, 0
2, 17760, Note_on_c, 0, 69, 0
2, 17760, Control_c, 0, 6, 70
2, 17760, Note_on_c, 0, 68, 84
2, 17875, Note_on_c, 0, 68, 0
2, 17940, Note_on_c, 0, 80, 84
2, 17995, Note_on_c, 0, 80, 0
2, 18000, Note_on_c, 0, 81, 84
2, 18235, Note_on_c, 0, 81, 0
2, 18240, Note_on_c, 0, 80, 84
2, 18475, Note_on_c, 0, 80, 0
2, 18480, Note_on_c, 0, 78, 84
2, 18715, Note_on_c, 0, 78, 0
2, 18720, Note_on_c, 0, 80, 84
2, 18955, Note_on_c, 0, 80, 0
2, 18960, Note_on_c, 0, 81, 84
2, 19195, Note_on_c, 0, 81, 0
2, 19200, Note_on_c, 0, 80, 84
2, 19435, Note_on_c, 0, 80, 0
2, 19440, Note_on_c, 0, 78, 84
2, 19555, Note_on_c, 0, 78, 0
2, 19619, Control_c, 0, 6, 64
2, 19620, Note_on_c, 0, 71, 84
2, 19670, Note_on_c, 0, 71, 0
2, 19680, Note_on_c, 0, 78, 84
2, 19735, Note_on_c, 0, 78, 0
2, 19740, Note_on_c, 0, 76, 84
2, 19770, Note_on_c, 0, 76, 0
2, 19770, Note_on_c, 0, 75, 84
2, 19795, Note_on_c, 0, 75, 0
2, 19800, Note_on_c, 0, 76, 84
2, 19855, Note_on_c, 0, 76, 0
2, 19860, Note_on_c, 0, 78, 84
2, 19915, Note_on_c, 0, 78, 0
2, 19920, Note_on_c, 0, 80, 84
2, 19975, Note_on_c, 0, 80, 0
2, 19980, Control_c, 0, 6, 70
2, 19980, Note_on_c, 0, 78, 84
2, 20095, Note_on_c, 0, 78, 0
2, 20099, Control_c, 0, 6, 64
2, 20100, Note_on_c, 0, 71, 84
2, 20150, Note_on_c, 0, 71, 0
2, 20160, Note_on_c, 0, 78, 84
2, 20215, Note_on_c, 0, 78, 0
2, 20220, Note_on_c, 0, 76, 84
2, 20250, Note_on_c, 0, 76, 0
2, 20250, Note_on_c, 0, 75, 84
2, 20280, Note_on_c, 0, 75, 0
2, 20280, Note_on_c, 0, 76, 84
2, 20335, Note_on_c, 0, 76, 0
2, 20340, Note_on_c, 0, 78, 84
2, 20395, Note_on_c, 0, 78, 0
2, 20400, Note_on_c, 0, 80, 84
2, 20455, Note_on_c, 0, 80, 0
2, 20460, Control_c, 0, 6, 70
2, 20460, Note_on_c, 0, 78, 84
2, 20575, Note_on_c, 0, 78, 0
2, 20579, Control_c, 0, 6, 64
2, 20580, Note_on_c, 0, 71, 84
2, 20630, Note_on_c, 0, 71, 0
2, 20640, Note_on_c, 0, 80, 84
2, 20690, Note_on_c, 0, 80, 0
2, 20700, Control_c, 0, 6, 70
2, 20700, Note_on_c, 0, 78, 84
2, 20815, Note_on_c, 0, 78, 0
2, 20819, Control_c, 0, 6, 64
2, 20820, Note_on_c, 0, 76, 84
2, 20870, Note_on_c, 0, 76, 0
2, 20880, Note_on_c, 0, 75, 84
2, 20930, Note_on_c, 0, 75, 0
2, 20940, Note_on_c, 0, 73, 84
2, 20965, Note_on_c, 0, 73, 0
2, 20970, Note_on_c, 0, 71, 84
2, 20995, Note_on_c, 0, 71, 0
2, 21000, Control_c, 0, 6, 70
2, 21000, Note_on_c, 0, 73, 84
2, 21115, Note_on_c, 0, 73, 0
2, 21119, Control_c, 0, 6, 64
2, 21120, Note_on_c, 0, 71, 84
2, 21145, Note_on_c, 0, 71, 0
2, 21150, Note_on_c, 0, 59, 84
2, 21163, Note_on_c, 0, 59, 0
2, 21165, Note_on_c, 0, 59, 84
2, 21178, Note_on_c, 0, 59, 0
2, 21180, Note_on_c, 0, 59, 84
2, 21193, Note_on_c, 0, 59, 0
2, 21195, Note_on_c, 0, 59, 84
2, 21208, Note_on_c, 0, 59, 0
2, 21210, Note_on_c, 0, 59, 84
2, 21223, Note_on_c, 0, 59, 0
2, 21225, Note_on_c, 0, 59, 84
2, 21238, Note_on_c, 0, 59, 0
2, 21240, Note_on_c, 0, 59, 84
2, 21253, Note_on_c, 0, 59, 0
2, 21255, Note_on_c, 0, 59, 84
2, 21268, Note_on_c, 0, 59, 0
2, 21270, Note_on_c, 0, 59, 84
2, 21283, Note_on_c, 0, 59, 0
2, 21285, Note_on_c, 0, 59, 84
2, 21298, Note_on_c, 0, 59, 0
2, 21300, Note_on_c, 0, 59, 84
2, 21313, Note_on_c, 0, 59, 0
2, 21315, Note_on_c, 0, 59, 84
2, 21328, Note_on_c, 0, 59, 0
2, 21330, Note_on_c, 0, 59, 84
2, 21343, Note_on_c, 0, 59, 0
2, 21345, Note_on_c, 0, 59, 84
2, 21358, Note_on_c, 0, 59, 0
2, 21360, Note_on_c, 0, 59, 84
2, 21373, Note_on_c, 0, 59, 0
2, 21375, Note_on_c, 0, 59, 84
2, 21388, Note_on_c, 0, 59, 0
2, 21390, Note_on_c, 0, 59, 84
2, 21403, Note_on_c, 0, 59, 0
2, 21405, Note_on_c, 0, 59, 84
2, 21418, Note_on_c, 0, 59, 0
2, 21420, Note_on_c, 0, 59, 84
2, 21433, Note_on_c, 0, 59, 0
2, 21435, Note_on_c, 0, 59, 84
2, 21448, Note_on_c, 0, 59, 0
2, 21450, Note_on_c, 0, 59, 84
2, 21463, Note_on_c, 0, 59, 0
2, 21465, Note_on_c, 0, 59, 84
2, 21478, Note_on_c, 0, 59, 0
2, 21480, Note_on_c, 0, 59, 84
2, 21493, Note_on_c, 0, 59, 0
2, 21495, Note_on_c, 0, 59, 84
2, 21508, Note_on_c, 0, 59, 0
2, 21510, Note_on_c, 0, 59, 84
2, 21523, Note_on_c, 0, 59, 0
2, 21525, Note_on_c, 0, 59, 84
2, 21538, Note_on_c, 0, 59, 0
2, 21540, Note_on_c, 0, 59, 84
2, 21553, Note_on_c, 0, 59, 0
2, 21555, Note_on_c, 0, 59, 84
2, 21568, Note_on_c, 0, 59, 0
2, 21570, Note_on_c, 0, 59, 84
2, 21583, Note_on_c, 0, 59, 0
2, 21585, Note_on_c, 0, 59, 84
2, 21598, Note_on_c, 0, 59, 0
2, 21600, Note_on_c, 0, 71, 84
2, 21613, Note_on_c, 0, 71, 0
2, 21615, Note_on_c, 0, 73, 84
2, 21630, Note_on_c, 0, 75, 84
2, 21635, Note_on_c, 0, 73, 0
2, 21645, Note_on_c, 0, 76, 84
2, 21650, Note_on_c, 0, 75, 0
2, 21660, Note_on_c, 0, 78, 84
2, 21665, Note_on_c, 0, 76, 0
2, 21675, Note_on_c, 0, 80, 84
2, 21680, Note_on_c, 0, 78, 0
2, 21690, Note_on_c, 0, 81, 84
2, 21695, Note_on_c, 0, 80, 0
2, 21705, Note_on_c, 0, 83, 84
2, 21710, Note_on_c, 0, 81, 0
2, 21725, Note_on_c, 0, 83, 0
2, 21840, Note_on_c, 0, 71, 84
2, 21855, Note_on_c, 0, 73, 84
2, 21860, Note_on_c, 0, 71, 0
2, 21870, Note_on_c, 0, 75, 84
2, 21875, Note_on_c, 0, 73, 0
2, 21885, Note_on_c, 0, 76, 84
2, 21890, Note_on_c, 0, 75, 0
2, 21900, Note_on_c, 0, 78, 84
2, 21905, Note_on_c, 0, 76, 0
2, 21915, Note_on_c, 0, 80, 84
2, 21920, Note_on_c, 0, 78, 0
2, 21930, Note_on_c, 0, 81, 84
2, 21935, Note_on_c, 0, 80, 0
2, 21945, Note_on_c, 0, 83, 84
2, 21950, Note_on_c, 0, 81, 0
2, 21965, Note_on_c, 0, 83, 0
2, 22080, Note_on_c, 0, 59, 84
2, 22093, Note_on_c, 0, 59, 0
2, 22095, Note_on_c, 0, 59, 84
2, 22108, Note_on_c, 0, 59, 0
2, 22110, Note_on_c, 0, 59, 84
2, 22123, Note_on_c, 0, 59, 0
2, 22125, Note_on_c, 0, 59, 84
2, 22138, Note_on_c, 0, 59, 0
2, 22140, Note_on_c, 0, 59, 84
2, 22153, Note_on_c, 0, 59, 0
2, 22155, Note_on_c, 0, 59, 84
2, 22168, Note_on_c, 0, 59, 0
2, 22170, Note_on_c, 0, 59, 84
2, 22183, Note_on_c, 0, 59, 0
2, 22185, Note_on_c, 0, 59, 84
2, 22198, Note_on_c, 0, 59, 0
2, 22200, Note_on_c, 0, 59, 84
2, 22213, Note_on_c, 0, 59, 0
2, 22215, Note_on_c, 0, 59, 84
2, 22228, Note_on_c, 0, 59, 0
2, 22230, Note_on_c, 0, 59, 84
2, 22243, Note_on_c, 0, 59, 0
2, 22245, Note_on_c, 0, 59, 84
2, 22258, Note_on_c, 0, 59, 0
2, 22260, Note_on_c, 0, 59, 84
2, 22273, Note_on_c, 0, 59, 0
2, 22275, Note_on_c, 0, 59, 84
2, 22288, Note_on_c, 0, 59, 0
2, 22290, Note_on_c, 0, 59, 84
2, 22303, Note_on_c, 0, 59, 0
2, 22305, Note_on_c, 0, 59, 84
2, 22318, Note_on_c, 0, 59, 0
2, 22320, Note_on_c, 0, 57, 84
2, 22333, Note_on_c, 0, 57, 0
2, 22335, Note_on_c, 0, 57, 84
2, 22348, Note_on_c, 0, 57, 0
2, 22350, Note_on_c, 0, 57, 84
2, 22363, Note_on_c, 0, 57, 0
2, 22365, Note_on_c, 0, 57, 84
2, 22378, Note_on_c, 0, 57, 0
2, 22380, Note_on_c, 0, 57, 84
2, 22393, Note_on_c, 0, 57, 0
2, 22395, Note_on_c, 0, 57, 84
2, 22408, Note_on_c, 0, 57, 0
2, 22410, Note_on_c, 0, 57, 84
2, 22423, Note_on_c, 0, 57, 0
2, 22425, Note_on_c, 0, 57, 84
2, 22438, Note_on_c, 0, 57, 0
2, 22440, Note_on_c, 0, 57, 84
2, 22453, Note_on_c, 0, 57, 0
2, 22455, Note_on_c, 0, 57, 84
2, 22468, Note_on_c, 0, 57, 0
2, 22470, Note_on_c, 0, 57, 84
2, 22483, Note_on_c, 0, 57, 0
2, 22485, Note_on_c, 0, 57, 84
2, 22498, Note_on_c, 0, 57, 0
2, 22500, Note_on_c, 0, 57, 84
2, 22513, Note_on_c, 0, 57, 0
2, 22515, Note_on_c, 0, 57, 84
2, 22528, Note_on_c, 0, 57, 0
2, 22530, Note_on_c, 0, 57, 84
2, 22543, Note_on_c, 0, 57, 0
2, 22545, Note_on_c, 0, 57, 84
2, 22558, Note_on_c, 0, 57, 0
2, 22560, Note_on_c, 0, 83, 90
2, 22580, Note_on_c, 0, 83, 0
2, 22580, Note_on_c, 0, 80, 84
2, 22600, Note_on_c, 0, 80, 0
2, 22600, Note_on_c, 0, 83, 90
2, 22620, Note_on_c, 0, 83, 0
2, 22620, Note_on_c, 0, 88, 89
2, 22640, Note_on_c, 0, 88, 0
2, 22640, Note_on_c, 0, 83, 90
2, 22660, Note_on_c, 0, 83, 0
2, 22660, Note_on_c, 0, 88, 84
2, 22680, Note_on_c, 0, 88, 0
2, 22680, Note_on_c, 0, 83, 90
2, 22700, Note_on_c, 0, 83, 0
2, 22700, Note_on_c, 0, 80, 84
2, 22720, Note_on_c, 0, 80, 0
2, 22720, Note_on_c, 0, 83, 90
2, 22740, Note_on_c, 0, 83, 0
2, 22740, Note_on_c, 0, 88, 89
2, 22760, Note_on_c, 0, 88, 0
2, 22760, Note_on_c, 0, 83, 90
2, 22780, Note_on_c, 0, 83, 0
2, 22780, Note_on_c, 0, 88, 84
2, 22800, Note_on_c, 0, 88, 0
2, 22800, Note_on_c, 0, 83, 90
2, 22820, Note_on_c, 0, 83, 0
2, 22820, Note_on_c, 0, 80, 84
2, 22840, Note_on_c, 0, 80, 0
2, 22840, Note_on_c, 0, 83, 90
2, 22860, Note_on_c, 0, 83, 0
2, 22860, Note_on_c, 0, 87, 89
2, 22880, Note_on_c, 0, 87, 0
2, 22880, Note_on_c, 0, 83, 90
2, 22900, Note_on_c, 0, 83, 0
2, 22900, Note_on_c, 0, 87, 84
2, 22920, Note_on_c, 0, 87, 0
2, 22920, Note_on_c, 0, 83, 90
2, 22940, Note_on_c, 0, 83, 0
2, 22940, Note_on_c, 0, 80, 84
2, 22960, Note_on_c, 0, 80, 0
2, 22960, Note_on_c, 0, 83, 90
2, 22980, Note_on_c, 0, 83, 0
2, 22980, Note_on_c, 0, 87, 89
2, 23000, Note_on_c, 0, 87, 0
2, 23000, Note_on_c, 0, 83, 90
2, 23020, Note_on_c, 0, 83, 0
2, 23020, Note_on_c, 0, 87, 84
2, 23040, Note_on_c, 0, 87, 0
2, 23040, Control_c, 0, 6, 70
2, 23040, Note_on_c, 0, 85, 84
2, 23155, Note_on_c, 0, 85, 0
2, 23279, Control_c, 0, 6, 64
2, 23280, Note_on_c, 0, 85, 84
2, 23300, Note_on_c, 0, 85, 0
2, 23300, Note_on_c, 0, 82, 90
2, 23320, Note_on_c, 0, 82, 0
2, 23320, Note_on_c, 0, 85, 84
2, 23340, Note_on_c, 0, 85, 0
2, 23340, Note_on_c, 0, 90, 89
2, 23360, Note_on_c, 0, 90, 0
2, 23360, Note_on_c, 0, 85, 84
2, 23380, Note_on_c, 0, 85, 0
2, 23380, Note_on_c, 0, 90, 84
2, 23400, Note_on_c, 0, 90, 0
2, 23400, Note_on_c, 0, 85, 84
2, 23420, Note_on_c, 0, 85, 0
2, 23420, Note_on_c, 0, 82, 90
2, 23440, Note_on_c, 0, 82, 0
2, 23440, Note_on_c, 0, 85, 84
2, 23460, Note_on_c, 0, 85, 0
2, 23460, Note_on_c, 0, 90, 89
2, 23480, Note_on_c, 0, 90, 0
2, 23480, Note_on_c, 0, 85, 84
2, 23500, Note_on_c, 0, 85, 0
2, 23500, Note_on_c, 0, 90, 84
2, 23520, Note_on_c, 0, 90, 0
2, 23520, Note_on_c, 0, 85, 84
2, 23540, Note_on_c, 0, 85, 0
2, 23540, Note_on_c, 0, 82, 90
2, 23560, Note_on_c, 0, 82, 0
2, 23560, Note_on_c, 0, 85, 84
2, 23580, Note_on_c, 0, 85, 0
2, 23580, Note_on_c, 0, 88, 89
2, 23600, Note_on_c, 0, 88, 0
2, 23600, Note_on_c, 0, 85, 84
2, 23620, Note_on_c, 0, 85, 0
2, 23620, Note_on_c, 0, 88, 84
2, 23640, Note_on_c, 0, 88, 0
2, 23640, Note_on_c, 0, 85, 84
2, 23660, Note_on_c, 0, 85, 0
2, 23660, Note_on_c, 0, 82, 90
2, 23680, Note_on_c, 0, 82, 0
2, 23680, Note_on_c, 0, 85, 84
2, 23700, Note_on_c, 0, 85, 0
2, 23700, Note_on_c, 0, 88, 89
2, 23720, Note_on_c, 0, 88, 0
2, 23720, Note_on_c, 0, 85, 84
2, 23740, Note_on_c, 0, 85, 0
2, 23740, Note_on_c, 0, 88, 84
2, 23760, Note_on_c, 0, 88, 0
2, 23760, Control_c, 0, 6, 70
2, 23760, Note_on_c, 0, 87, 84
2, 23875, Note_on_c, 0, 87, 0
2, 23999, Control_c, 0, 6, 64
2, 24000, Note_on_c, 0, 87, 84
2, 24020, Note_on_c, 0, 87, 0
2, 24020, Note_on_c, 0, 84, 90
2, 24040, Note_on_c, 0, 84, 0
2, 24040, Note_on_c, 0, 87, 84
2, 24060, Note_on_c, 0, 87, 0
2, 24060, Note_on_c, 0, 92, 89
2, 24080, Note_on_c, 0, 92, 0
2, 24080, Note_on_c, 0, 87, 84
2, 24100, Note_on_c, 0, 87, 0
2, 24100, Note_on_c, 0, 92, 84
2, 24120, Note_on_c, 0, 92, 0
2, 24120, Note_on_c, 0, 87, 84
2, 24140, Note_on_c, 0, 87, 0
2, 24140, Note_on_c, 0, 84, 90
2, 24160, Note_on_c, 0, 84, 0
2, 24160, Note_on_c, 0, 87, 84
2, 24180, Note_on_c, 0, 87, 0
2, 24180, Note_on_c, 0, 92, 89
2, 24200, Note_on_c, 0, 92, 0
2, 24200, Note_on_c, 0, 87, 84
2, 24220, Note_on_c, 0, 87, 0
2, 24220, Note_on_c, 0, 92, 84
2, 24240, Note_on_c, 0, 92, 0
2, 24240, Note_on_c, 0, 87, 84
2, 24260, Note_on_c, 0, 87, 0
2, 24260, Note_on_c, 0, 84, 90
2, 24280, Note_on_c, 0, 84, 0
2, 24280, Note_on_c, 0, 87, 84
2, 24300, Note_on_c, 0, 87, 0
2, 24300, Note_on_c, 0, 90, 89
2, 24320, Note_on_c, 0, 90, 0
2, 24320, Note_on_c, 0, 87, 84
2, 24340, Note_on_c, 0, 87, 0
2, 24340, Note_on_c, 0, 90, 84
2, 24360, Note_on_c, 0, 90, 0
2, 24360, Note_on_c, 0, 87, 84
2, 24380, Note_on_c, 0, 87, 0
2, 24380, Note_on_c, 0, 84, 90
2, 24400, Note_on_c, 0, 84, 0
2, 24400, Note_on_c, 0, 87, 84
2, 24420, Note_on_c, 0, 87, 0
2, 24420, Note_on_c, 0, 90, 89
2, 24440, Note_on_c, 0, 90, 0
2, 24440, Note_on_c, 0, 87, 84
2, 24460, Note_on_c, 0, 87, 0
2, 24460, Note_on_c, 0, 90, 84
2, 24480, Note_on_c, 0, 90, 0
2, 24480, Control_c, 0, 6, 70
2, 24480, Note_on_c, 0, 88, 84
2, 24595, Note_on_c, 0, 88, 0
2, 24719, Control_c, 0, 6, 64
2, 24720, Note_on_c, 0, 88, 84
2, 24740, Note_on_c, 0, 88, 0
2, 24740, Note_on_c, 0, 85, 90
2, 24760, Note_on_c, 0, 85, 0
2, 24760, Note_on_c, 0, 88, 84
2, 24780, Note_on_c, 0, 88, 0
2, 24780, Note_on_c, 0, 92, 89
2, 24800, Note_on_c, 0, 92, 0
2, 24800, Note_on_c, 0, 88, 84
2, 24820, Note_on_c, 0, 88, 0
2, 24820, Note_on_c, 0, 92, 84
2, 24840, Note_on_c, 0, 92, 0
2, 24840, Note_on_c, 0, 88, 84
2, 24860, Note_on_c, 0, 88, 0
2, 24860, Note_on_c, 0, 85, 90
2, 24880, Note_on_c, 0, 85, 0
2, 24880, Note_on_c, 0, 88, 84
2, 24900, Note_on_c, 0, 88, 0
2, 24900, Note_on_c, 0, 92, 89
2, 24920, Note_on_c, 0, 92, 0
2, 24920, Note_on_c, 0, 88, 84
2, 24940, Note_on_c, 0, 88, 0
2, 24940, Note_on_c, 0, 92, 84
2, 24960, Note_on_c, 0, 92, 0
2, 24960, Note_on_c, 0, 87, 84
2, 24980, Note_on_c, 0, 87, 0
2, 24980, Note_on_c, 0, 83, 90
2, 25000, Note_on_c, 0, 83, 0
2, 25000, Note_on_c, 0, 87, 84
2, 25020, Note_on_c, 0, 87, 0
2, 25020, Note_on_c, 0, 92, 89
2, 25040, Note_on_c, 0, 92, 0
2, 25040, Note_on_c, 0, 87, 84
2, 25060, Note_on_c, 0, 87, 0
2, 25060, Note_on_c, 0, 92, 84
2, 25080, Note_on_c, 0, 92, 0
2, 25080, Note_on_c, 0, 87, 84
2, 25100, Note_on_c, 0, 87, 0
2, 25100, Note_on_c, 0, 83, 90
2, 25120, Note_on_c, 0, 83, 0
2, 25120, Note_on_c, 0, 87, 84
2, 25140, Note_on_c, 0, 87, 0
2, 25140, Note_on_c, 0, 92, 89
2, 25160, Note_on_c, 0, 92, 0
2, 25160, Note_on_c, 0, 87, 84
2, 25180, Note_on_c, 0, 87, 0
2, 25180, Note_on_c, 0, 92, 84
2, 25200, Note_on_c, 0, 92, 0
2, 25200, Note_on_c, 0, 85, 84
2, 25220, Note_on_c, 0, 85, 0
2, 25220, Note_on_c, 0, 81, 90
2, 25240, Note_on_c, 0, 81, 0
2, 25240, Note_on_c, 0, 85, 84
2, 25260, Note_on_c, 0, 85, 0
2, 25260, Note_on_c, 0, 90, 89
2, 25280, Note_on_c, 0, 90, 0
2, 25280, Note_on_c, 0, 85, 84
2, 25300, Note_on_c, 0, 85, 0
2, 25300, Note_on_c, 0, 90, 84
2, 25320, Note_on_c, 0, 90, 0
2, 25320, Note_on_c, 0, 85, 84
2, 25340, Note_on_c, 0, 85, 0
2, 25340, Note_on_c, 0, 81, 90
2, 25360, Note_on_c, 0, 81, 0
2, 25360, Note_on_c, 0, 85, 84
2, 25380, Note_on_c, 0, 85, 0
2, 25380, Note_on_c, 0, 90, 89
2, 25400, Note_on_c, 0, 90, 0
2, 25400, Note_on_c, 0, 85, 84
2, 25420, Note_on_c, 0, 85, 0
2, 25420, Note_on_c, 0, 90, 84
2, 25440, Note_on_c, 0, 90, 0
2, 25440, Note_on_c, 0, 83, 90
2, 25460, Note_on_c, 0, 83, 0
2, 25460, Note_on_c, 0, 80, 84
2, 25480, Note_on_c, 0, 80, 0
2, 25480, Note_on_c, 0, 83, 90
2, 25500, Note_on_c, 0, 83, 0
2, 25500, Note_on_c, 0, 88, 89
2, 25520, Note_on_c, 0, 88, 0
2, 25520, Note_on_c, 0, 83, 90
2, 25540, Note_on_c, 0, 83, 0
2, 25540, Note_on_c, 0, 88, 84
2, 25560, Note_on_c, 0, 88, 0
2, 25560, Note_on_c, 0, 83, 90
2, 25580, Note_on_c, 0, 83, 0
2, 25580, Note_on_c, 0, 80, 84
2, 25600, Note_on_c, 0, 80, 0
2, 25600, Note_on_c, 0, 83, 90
2, 25620, Note_on_c, 0, 83, 0
2, 25620, Note_on_c, 0, 88, 89
2, 25640, Note_on_c, 0, 88, 0
2, 25640, Note_on_c, 0, 83, 90
2, 25660, Note_on_c, 0, 83, 0
2, 25660, Note_on_c, 0, 88, 84
2, 25680, Note_on_c, 0, 88, 0
2, 25680, Note_on_c, 0, 81, 90
2, 25700, Note_on_c, 0, 81, 0
2, 25700, Note_on_c, 0, 78, 84
2, 25720, Note_on_c, 0, 78, 0
2, 25720, Note_on_c, 0, 81, 90
2, 25740, Note_on_c, 0, 81, 0
2, 25740, Note_on_c, 0, 87, 89
2, 25760, Note_on_c, 0, 87, 0
2, 25760, Note_on_c, 0, 81, 90
2, 25780, Note_on_c, 0, 81, 0
2, 25780, Note_on_c, 0, 87, 84
2, 25800, Note_on_c, 0, 87, 0
2, 25800, Note_on_c, 0, 81, 90
2, 25820, Note_on_c, 0, 81, 0
2, 25820, Note_on_c, 0, 78, 84
2, 25840, Note_on_c, 0, 78, 0
2, 25840, Note_on_c, 0, 81, 90
2, 25860, Note_on_c, 0, 81, 0
2, 25860, Note_on_c, 0, 87, 89
2, 25880, Note_on_c, 0, 87, 0
2, 25880, Note_on_c, 0, 81, 90
2, 25900, Note_on_c, 0, 81, 0
2, 25900, Note_on_c, 0, 87, 84
2, 25920, Note_on_c, 0, 87, 0
2, 25920, Note_on_c, 0, 80, 90
2, 25940, Note_on_c, 0, 80, 0
2, 25940, Note_on_c, 0, 78, 84
2, 25960, Note_on_c, 0, 78, 0
2, 25960, Note_on_c, 0, 80, 90
2, 25980, Note_on_c, 0, 80, 0
2, 25980, Note_on_c, 0, 85, 89
2, 26000, Note_on_c, 0, 85, 0
2, 26000, Note_on_c, 0, 80, 90
2, 26020, Note_on_c, 0, 80, 0
2, 26020, Note_on_c, 0, 85, 84
2, 26040, Note_on_c, 0, 85, 0
2, 26040, Note_on_c, 0, 80, 90
2, 26060, Note_on_c, 0, 80, 0
2, 26060, Note_on_c, 0, 78, 84
2, 26080, Note_on_c, 0, 78, 0
2, 26080, Note_on_c, 0, 80, 90
2, 26100, Note_on_c, 0, 80, 0
2, 26100, Note_on_c, 0, 85, 89
2, 26120, Note_on_c, 0, 85, 0
2, 26120, Note_on_c, 0, 80, 90
2, 26140, Note_on_c, 0, 80, 0
2, 26140, Note_on_c, 0, 85, 84
2, 26160, Note_on_c, 0, 85, 0
2, 26160, Note_on_c, 0, 80, 90
2, 26180, Note_on_c, 0, 80, 0
2, 26180, Note_on_c, 0, 75, 84
2, 26200, Note_on_c, 0, 75, 0
2, 26200, Note_on_c, 0, 80, 90
2, 26220, Note_on_c, 0, 80, 0
2, 26220, Note_on_c, 0, 85, 89
2, 26240, Note_on_c, 0, 85, 0
2, 26240, Note_on_c, 0, 80, 90
2, 26260, Note_on_c, 0, 80, 0
2, 26260, Note_on_c, 0, 85, 84
2, 26280, Note_on_c, 0, 85, 0
2, 26280, Note_on_c, 0, 80, 90
2, 26300, Note_on_c, 0, 80, 0
2, 26300, Note_on_c, 0, 75, 84
2, 26320, Note_on_c, 0, 75, 0
2, 26320, Note_on_c, 0, 80, 90
2, 26340, Note_on_c, 0, 80, 0
2, 26340, Note_on_c, 0, 85, 89
2, 26360, Note_on_c, 0, 85, 0
2, 26360, Note_on_c, 0, 80, 90
2, 26380, Note_on_c, 0, 80, 0
2, 26380, Note_on_c, 0, 85, 84
2, 26400, Note_on_c, 0, 85, 0
2, 26400, Note_on_c, 0, 80, 90
2, 26420, Note_on_c, 0, 80, 0
2, 26420, Note_on_c, 0, 75, 84
2, 26440, Note_on_c, 0, 75, 0
2, 26440, Note_on_c, 0, 80, 90
2, 26460, Note_on_c, 0, 80, 0
2, 26460, Note_on_c, 0, 84, 89
2, 26480, Note_on_c, 0, 84, 0
2, 26480, Note_on_c, 0, 80, 90
2, 26500, Note_on_c, 0, 80, 0
2, 26500, Note_on_c, 0, 84, 84
2, 26520, Note_on_c, 0, 84, 0
2, 26520, Note_on_c, 0, 80, 90
2, 26540, Note_on_c, 0, 80, 0
2, 26540, Note_on_c, 0, 75, 84
2, 26560, Note_on_c, 0, 75, 0
2, 26560, Note_on_c, 0, 80, 90
2, 26580, Note_on_c, 0, 80, 0
2, 26580, Note_on_c, 0, 84, 89
2, 26600, Note_on_c, 0, 84, 0
2, 26600, Note_on_c, 0, 78, 84
2, 26620, Note_on_c, 0, 78, 0
2, 26620, Note_on_c, 0, 84, 84
2, 26640, Note_on_c, 0, 84, 0
2, 26640, Control_c, 0, 6, 70
2, 26640, Note_on_c, 0, 85, 84
2, 26755, Note_on_c, 0, 85, 0
2, 26819, Control_c, 0, 6, 64
2, 26820, Note_on_c, 0, 73, 84
2, 26870, Note_on_c, 0, 73, 0
2, 26880, Note_on_c, 0, 80, 84
2, 26935, Note_on_c, 0, 80, 0
2, 26940, Note_on_c, 0, 78, 84
2, 26970, Note_on_c, 0, 78, 0
2, 26970, Note_on_c, 0, 76, 84
2, 27000, Note_on_c, 0, 76, 0
2, 27000, Note_on_c, 0, 78, 84
2, 27055, Note_on_c, 0, 78, 0
2, 27060, Note_on_c, 0, 80, 84
2, 27115, Note_on_c, 0, 80, 0
2, 27120, Note_on_c, 0, 81, 84
2, 27175, Note_on_c, 0, 81, 0
2, 27180, Control_c, 0, 6, 70
2, 27180, Note_on_c, 0, 80, 84
2, 27295, Note_on_c, 0, 80, 0
2, 27299, Control_c, 0, 6, 64
2, 27300, Note_on_c, 0, 73, 84
2, 27355, Note_on_c, 0, 73, 0
2, 27360, Note_on_c, 0, 80, 84
2, 27415, Note_on_c, 0, 80, 0
2, 27420, Note_on_c, 0, 78, 84
2, 27450, Note_on_c, 0, 78, 0
2, 27450, Note_on_c, 0, 76, 84
2, 27480, Note_on_c, 0, 76, 0
2, 27480, Note_on_c, 0, 78, 84
2, 27535, Note_on_c, 0, 78, 0
2, 27540, Note_on_c, 0, 80, 84
2, 27595, Note_on_c, 0, 80, 0
2, 27600, Note_on_c, 0, 81, 84
2, 27655, Note_on_c, 0, 81, 0
2, 27660, Control_c, 0, 6, 70
2, 27660, Note_on_c, 0, 80, 84
2, 27775, Note_on_c, 0, 80, 0
2, 27779, Control_c, 0, 6, 64
2, 27780, Note_on_c, 0, 73, 84
2, 27835, Note_on_c, 0, 73, 0
2, 27840, Note_on_c, 0, 81, 84
2, 27895, Note_on_c, 0, 81, 0
2, 27900, Control_c, 0, 6, 70
2, 27900, Note_on_c, 0, 80, 84
2, 28000, Note_on_c, 0, 80, 0
2, 28019, Control_c, 0, 6, 64
2, 28020, Note_on_c, 0, 78, 84
2, 28070, Note_on_c, 0, 78, 0
2, 28080, Note_on_c, 0, 76, 84
2, 28130, Note_on_c, 0, 76, 0
2, 28140, Note_on_c, 0, 75, 84
2, 28165, Note_on_c, 0, 75, 0
2, 28170, Note_on_c, 0, 73, 84
2, 28195, Note_on_c, 0, 73, 0
2, 28199, Pitch_bend_c, 0, 12288
2, 28200, Note_on_c, 0, 75, 84
2, 28215, Pitch_bend_c, 0, 8192
2, 28230, Pitch_bend_c, 0, 12288
2, 28245, Pitch_bend_c, 0, 8192
2, 28260, Pitch_bend_c, 0, 12288
2, 28275, Pitch_bend_c, 0, 8192
2, 28290, Pitch_bend_c, 0, 12288
2, 28305, Pitch_bend_c, 0, 8192
2, 28320, Note_on_c, 0, 75, 0
2, 28320, Note_on_c, 0, 73, 84
2, 28370, Note_on_c, 0, 73, 0
2, 28380, Note_on_c, 0, 80, 84
2, 28430, Note_on_c, 0, 80, 0
2, 28440, Note_on_c, 0, 80, 84
2, 28490, Note_on_c, 0, 80, 0
2, 28500, Note_on_c, 0, 80, 84
2, 28550, Note_on_c, 0, 80, 0
2, 28560, Note_on_c, 0, 80, 84
2, 28610, Note_on_c, 0, 80, 0
2, 28620, Note_on_c, 0, 80, 84
2, 28670, Note_on_c, 0, 80, 0
2, 28680, Note_on_c, 0, 80, 84
2, 28730, Note_on_c, 0, 80, 0
2, 28740, Note_on_c, 0, 80, 84
2, 28790, Note_on_c, 0, 80, 0
2, 28800, Note_on_c, 0, 81, 84
2, 28850, Note_on_c, 0, 81, 0
2, 28860, Note_on_c, 0, 81, 84
2, 28910, Note_on_c, 0, 81, 0
2, 28920, Note_on_c, 0, 82, 84
2, 28970, Note_on_c, 0, 82, 0
2, 28980, Note_on_c, 0, 82, 84
2, 29030, Note_on_c, 0, 82, 0
2, 29040, Note_on_c, 0, 83, 84
2, 29090, Note_on_c, 0, 83, 0
2, 29100, Note_on_c, 0, 83, 84
2, 29150, Note_on_c, 0, 83, 0
2, 29160, Note_on_c, 0, 84, 84
2, 29210, Note_on_c, 0, 84, 0
2, 29220, Note_on_c, 0, 84, 84
2, 29270, Note_on_c, 0, 84, 0
2, 29279, Pitch_bend_c, 0, 8192
2, 29280, Note_on_c, 0, 85, 84
2, 29295, Pitch_bend_c, 0, 16383
2, 29310, Pitch_bend_c, 0, 8192
2, 29325, Pitch_bend_c, 0, 16383
2, 29340, Pitch_bend_c, 0, 8192
2, 29355, Pitch_bend_c, 0, 16383
2, 29370, Pitch_bend_c, 0, 8192
2, 29385, Pitch_bend_c, 0, 16383
2, 29400, Pitch_bend_c, 0, 8192
2, 29415, Pitch_bend_c, 0, 16383
2, 29430, Pitch_bend_c, 0, 8192
2, 29445, Pitch_bend_c, 0, 16383
2, 29460, Pitch_bend_c, 0, 8192
2, 29475, Pitch_bend_c, 0, 16383
2, 29490, Pitch_bend_c, 0, 8192
2, 29505, Pitch_bend_c, 0, 16383
2, 29520, Pitch_bend_c, 0, 8192
2, 29535, Pitch_bend_c, 0, 16383
2, 29550, Pitch_bend_c, 0, 8192
2, 29565, Pitch_bend_c, 0, 16383
2, 29580, Pitch_bend_c, 0, 8192
2, 29595, Pitch_bend_c, 0, 16383
2, 29610, Pitch_bend_c, 0, 8192
2, 29625, Pitch_bend_c, 0, 16383
2, 29640, Pitch_bend_c, 0, 8192
2, 29655, Pitch_bend_c, 0, 16383
2, 29670, Pitch_bend_c, 0, 8192
2, 29685, Pitch_bend_c, 0, 16383
2, 29700, Pitch_bend_c, 0, 8192
2, 29715, Pitch_bend_c, 0, 16383
2, 29730, Pitch_bend_c, 0, 8192
2, 29745, Pitch_bend_c, 0, 16383
2, 29760, Pitch_bend_c, 0, 8192
2, 29775, Pitch_bend_c, 0, 16383
2, 29790, Pitch_bend_c, 0, 8192
2, 29805, Pitch_bend_c, 0, 16383
2, 29820, Pitch_bend_c, 0, 8192
2, 29835, Pitch_bend_c, 0, 16383
2, 29850, Pitch_bend_c, 0, 8192
2, 29865, Pitch_bend_c, 0, 16383
2, 29880, Pitch_bend_c, 0, 8192
2, 29895, Pitch_bend_c, 0, 16383
2, 29910, Pitch_bend_c, 0, 8192
2, 29925, Pitch_bend_c, 0, 16383
2, 29940, Pitch_bend_c, 0, 8192
2, 29955, Pitch_bend_c, 0, 16383
2, 29970, Pitch_bend_c, 0, 8192
2, 29985, Pitch_bend_c, 0, 16383
2, 30000, Pitch_bend_c, 0, 8192
2, 30015, Pitch_bend_c, 0, 16383
2, 30030, Pitch_bend_c, 0, 8192
2, 30045, Pitch_bend_c, 0, 16383
2, 30060, Pitch_bend_c, 0, 8192
2, 30075, Pitch_bend_c, 0, 16383
2, 30090, Pitch_bend_c, 0, 8192
2, 30105, Pitch_bend_c, 0, 16383
2, 30120, Pitch_bend_c, 0, 8192
2, 30135, Pitch_bend_c, 0, 16383
2, 30150, Pitch_bend_c, 0, 8192
2, 30165, Pitch_bend_c, 0, 16383
2, 30180, Pitch_bend_c, 0, 8192
2, 30195, Pitch_bend_c, 0, 16383
2, 30210, Pitch_bend_c, 0, 8192
2, 30225, Pitch_bend_c, 0, 16383
2, 30239, Pitch_bend_c, 0, 8192
2, 30240, Note_on_c, 0, 85, 0
2, 30240, Note_on_c, 0, 85, 84
2, 30270, Note_on_c, 0, 87, 84
2, 30275, Note_on_c, 0, 85, 0
2, 30300, Note_on_c, 0, 87, 0
2, 30300, Note_on_c, 0, 85, 84
2, 30330, Note_on_c, 0, 87, 84
2, 30335, Note_on_c, 0, 85, 0
2, 30360, Note_on_c, 0, 87, 0
2, 30360, Control_c, 0, 6, 70
2, 30360, Note_on_c, 0, 85, 84
2, 30509, Control_c, 0, 6, 64
2, 30510, Note_on_c, 0, 87, 84
2, 30515, Note_on_c, 0, 85, 0
2, 30540, Note_on_c, 0, 87, 0
2, 30540, Note_on_c, 0, 85, 84
2, 30570, Note_on_c, 0, 87, 84
2, 30575, Note_on_c, 0, 85, 0
2, 30600, Note_on_c, 0, 87, 0
2, 30600, Control_c, 0, 6, 70
2, 30600, Note_on_c, 0, 85, 84
2, 30749, Control_c, 0, 6, 64
2, 30750, Note_on_c, 0, 87, 84
2, 30755, Note_on_c, 0, 85, 0
2, 30780, Note_on_c, 0, 87, 0
2, 30780, Note_on_c, 0, 85, 84
2, 30810, Note_on_c, 0, 87, 84
2, 30815, Note_on_c, 0, 85, 0
2, 30840, Note_on_c, 0, 87, 0
2, 30840, Note_on_c, 0, 85, 84
2, 30870, Note_on_c, 0, 87, 84
2, 30875, Note_on_c, 0, 85, 0
2, 30900, Note_on_c, 0, 87, 0
2, 30900, Note_on_c, 0, 85, 84
2, 30930, Note_on_c, 0, 87, 84
2, 30935, Note_on_c, 0, 85, 0
2, 30959, Note_on_c, 0, 87, 0
2, 30959, Pitch_bend_c, 0, 8192
2, 30960, Note_on_c, 0, 85, 84
2, 30975, Pitch_bend_c, 0, 16383
2, 30990, Pitch_bend_c, 0, 8192
2, 31005, Pitch_bend_c, 0, 16383
2, 31020, Pitch_bend_c, 0, 8192
2, 31035, Pitch_bend_c, 0, 16383
2, 31050, Pitch_bend_c, 0, 8192
2, 31065, Pitch_bend_c, 0, 16383
2, 31080, Pitch_bend_c, 0, 8192
2, 31095, Pitch_bend_c, 0, 16383
2, 31110, Pitch_bend_c, 0, 8192
2, 31125, Pitch_bend_c, 0, 16383
2, 31140, Pitch_bend_c, 0, 8192
2, 31155, Pitch_bend_c, 0, 16383
2, 31170, Pitch_bend_c, 0, 8192
2, 31185, Pitch_bend_c, 0, 16383
2, 31200, Pitch_bend_c, 0, 8192
2, 31215, Pitch_bend_c, 0, 16383
2, 31230, Pitch_bend_c, 0, 8192
2, 31245, Pitch_bend_c, 0, 16383
2, 31260, Pitch_bend_c, 0, 8192
2, 31275, Pitch_bend_c, 0, 16383
2, 31290, Pitch_bend_c, 0, 8192
2, 31305, Pitch_bend_c, 0, 16383
2, 31320, Pitch_bend_c, 0, 8192
2, 31335, Pitch_bend_c, 0, 16383
2, 31350, Pitch_bend_c, 0, 8192
2, 31365, Pitch_bend_c, 0, 16383
2, 31380, Pitch_bend_c, 0, 8192
2, 31395, Pitch_bend_c, 0, 16383
2, 31410, Pitch_bend_c, 0, 8192
2, 31425, Pitch_bend_c, 0, 16383
2, 31440, Pitch_bend_c, 0, 8192
2, 31455, Pitch_bend_c, 0, 16383
2, 31470, Pitch_bend_c, 0, 8192
2, 31485, Pitch_bend_c, 0, 16383
2, 31500, Pitch_bend_c, 0, 8192
2, 31515, Pitch_bend_c, 0, 16383
2, 31530, Pitch_bend_c, 0, 8192
2, 31545, Pitch_bend_c, 0, 16383
2, 31560, Pitch_bend_c, 0, 8192
2, 31575, Pitch_bend_c, 0, 16383
2, 31590, Pitch_bend_c, 0, 8192
2, 31605, Pitch_bend_c, 0, 16383
2, 31620, Pitch_bend_c, 0, 8192
2, 31635, Pitch_bend_c, 0, 16383
2, 31650, Pitch_bend_c, 0, 8192
2, 31665, Pitch_bend_c, 0, 16383
2, 31679, Pitch_bend_c, 0, 8192
2, 31680, Note_on_c, 0, 85, 0
2, 31680, Note_on_c, 0, 80, 84
2, 31730, Note_on_c, 0, 80, 0
2, 31740, Note_on_c, 0, 80, 84
2, 31790, Note_on_c, 0, 80, 0
2, 31800, Note_on_c, 0, 80, 84
2, 31850, Note_on_c, 0, 80, 0
2, 31860, Note_on_c, 0, 78, 84
2, 31885, Note_on_c, 0, 78, 0
2, 31890, Note_on_c, 0, 80, 84
2, 31915, Note_on_c, 0, 80, 0
2, 31920, Control_c, 0, 6, 70
2, 31920, Note_on_c, 0, 81, 84
2, 32070, Note_on_c, 0, 81, 0
2, 32099, Control_c, 0, 6, 64
2, 32100, Note_on_c, 0, 81, 84
2, 32125, Note_on_c, 0, 81, 0
2, 32130, Note_on_c, 0, 80, 84
2, 32155, Note_on_c, 0, 80, 0
2, 32160, Note_on_c, 0, 78, 84
2, 32210, Note_on_c, 0, 78, 0
2, 32220, Note_on_c, 0, 78, 84
2, 32270, Note_on_c, 0, 78, 0
2, 32280, Note_on_c, 0, 78, 84
2, 32330, Note_on_c, 0, 78, 0
2, 32340, Note_on_c, 0, 76, 84
2, 32365, Note_on_c, 0, 76, 0
2, 32370, Note_on_c, 0, 78, 84
2, 32395, Note_on_c, 0, 78, 0
2, 32400, Control_c, 0, 6, 70
2, 32400, Note_on_c, 0, 80, 84
2, 32550, Note_on_c, 0, 80, 0
2, 32579, Control_c, 0, 6, 64
2, 32580, Note_on_c, 0, 80, 84
2, 32605, Note_on_c, 0, 80, 0
2, 32610, Note_on_c, 0, 81, 84
2, 32635, Note_on_c, 0, 81, 0
2, 32640, Note_on_c, 0, 83, 84
2, 32690, Note_on_c, 0, 83, 0
2, 32700, Note_on_c, 0, 83, 84
2, 32750, Note_on_c, 0, 83, 0
2, 32760, Note_on_c, 0, 83, 84
2, 32810, Note_on_c, 0, 83, 0
2, 32820, Note_on_c, 0, 83, 84
2, 32845, Note_on_c, 0, 83, 0
2, 32850, Note_on_c, 0, 81, 84
2, 32875, Note_on_c, 0, 81, 0
2, 32880, Note_on_c, 0, 80, 84
2, 32930, Note_on_c, 0, 80, 0
2, 32940, Note_on_c, 0, 80, 84
2, 32990, Note_on_c, 0, 80, 0
2, 33000, Note_on_c, 0, 80, 84
2, 33050, Note_on_c, 0, 80, 0
2, 33060, Note_on_c, 0, 80, 84
2, 33085, Note_on_c, 0, 80, 0
2, 33090, Note_on_c, 0, 81, 84
2, 33115, Note_on_c, 0, 81, 0
2, 33120, Note_on_c, 0, 83, 84
2, 33170, Note_on_c, 0, 83, 0
2, 33180, Note_on_c, 0, 83, 84
2, 33230, Note_on_c, 0, 83, 0
2, 33240, Note_on_c, 0, 83, 84
2, 33290, Note_on_c, 0, 83, 0
2, 33300, Note_on_c, 0, 83, 84
2, 33325, Note_on_c, 0, 83, 0
2, 33330, Note_on_c, 0, 81, 84
2, 33355, Note_on_c, 0, 81, 0
2, 33360, Note_on_c, 0, 80, 84
2, 33410, Note_on_c, 0, 80, 0
2, 33420, Note_on_c, 0, 80, 84
2, 33470, Note_on_c, 0, 80, 0
2, 33480, Note_on_c, 0, 80, 84
2, 33530, Note_on_c, 0, 80, 0
2, 33540, Note_on_c, 0, 80, 84
2, 33565, Note_on_c, 0, 80, 0
2, 33570, Note_on_c, 0, 81, 84
2, 33595, Note_on_c, 0, 81, 0
2, 33600, Note_on_c, 0, 83, 84
2, 33650, Note_on_c, 0, 83, 0
2, 33660, Note_on_c, 0, 83, 84
2, 33710, Note_on_c, 0, 83, 0
2, 33720, Note_on_c, 0, 83, 84
2, 33770, Note_on_c, 0, 83, 0
2, 33780, Note_on_c, 0, 85, 84
2, 33805, Note_on_c, 0, 85, 0
2, 33810, Note_on_c, 0, 80, 84
2, 33835, Note_on_c, 0, 80, 0
2, 33840, Note_on_c, 0, 78, 84
2, 33870, Note_on_c, 0, 71, 84
2, 33875, Note_on_c, 0, 78, 0
2, 33900, Note_on_c, 0, 71, 0
2, 33900, Note_on_c, 0, 73, 84
2, 33930, Note_on_c, 0, 71, 84
2, 33935, Note_on_c, 0, 73, 0
2, 33960, Note_on_c, 0, 71, 0
2, 33960, Note_on_c, 0, 75, 89
2, 33990, Note_on_c, 0, 73, 84
2, 33995, Note_on_c, 0, 75, 0
2, 34020, Note_on_c, 0, 73, 0
2, 34020, Note_on_c, 0, 76, 84
2, 34050, Note_on_c, 0, 73, 84
2, 34055, Note_on_c, 0, 76, 0
2, 34080, Note_on_c, 0, 73, 0
2, 34080, Note_on_c, 0, 78, 89
2, 34110, Note_on_c, 0, 76, 84
2, 34115, Note_on_c, 0, 78, 0
2, 34140, Note_on_c, 0, 76, 0
2, 34140, Note_on_c, 0, 78, 84
2, 34170, Note_on_c, 0, 76, 84
2, 34175, Note_on_c, 0, 78, 0
2, 34200, Note_on_c, 0, 76, 0
2, 34200, Note_on_c, 0, 81, 89
2, 34230, Note_on_c, 0, 80, 84
2, 34235, Note_on_c, 0, 81, 0
2, 34260, Note_on_c, 0, 80, 0
2, 34260, Note_on_c, 0, 83, 89
2, 34290, Note_on_c, 0, 81, 84
2, 34295, Note_on_c, 0, 83, 0
2, 34320, Note_on_c, 0, 81, 0
2, 34320, Note_on_c, 0, 71, 89
2, 34350, Note_on_c, 0, 69, 84
2, 34355, Note_on_c, 0, 71, 0
2, 34380, Note_on_c, 0, 69, 0
2, 34380, Note_on_c, 0, 73, 84
2, 34410, Note_on_c, 0, 71, 84
2, 34415, Note_on_c, 0, 73, 0
2, 34440, Note_on_c, 0, 71, 0
2, 34440, Note_on_c, 0, 75, 89
2, 34470, Note_on_c, 0, 73, 84
2, 34475, Note_on_c, 0, 75, 0
2, 34500, Note_on_c, 0, 73, 0
2, 34500, Note_on_c, 0, 76, 84
2, 34530, Note_on_c, 0, 73, 84
2, 34535, Note_on_c, 0, 76, 0
2, 34560, Note_on_c, 0, 73, 0
2, 34560, Note_on_c, 0, 78, 89
2, 34590, Note_on_c, 0, 76, 84
2, 34595, Note_on_c, 0, 78, 0
2, 34620, Note_on_c, 0, 76, 0
2, 34620, Note_on_c, 0, 80, 84
2, 34650, Note_on_c, 0, 78, 84
2, 34655, Note_on_c, 0, 80, 0
2, 34680, Note_on_c, 0, 78, 0
2, 34680, Note_on_c, 0, 81, 89
2, 34710, Note_on_c, 0, 80, 84
2, 34715, Note_on_c, 0, 81, 0
2, 34740, Note_on_c, 0, 80, 0
2, 34740, Note_on_c, 0, 83, 89
2, 34770, Note_on_c, 0, 81, 84
2, 34775, Note_on_c, 0, 83, 0
2, 34800, Note_on_c, 0, 81, 0
2, 34800, Note_on_c, 0, 80, 89
2, 34830, Note_on_c, 0, 76, 84
2, 34835, Note_on_c, 0, 80, 0
2, 34860, Note_on_c, 0, 76, 0
2, 34860, Note_on_c, 0, 80, 84
2, 34890, Note_on_c, 0, 76, 84
2, 34895, Note_on_c, 0, 80, 0
2, 34920, Note_on_c, 0, 76, 0
2, 34920, Note_on_c, 0, 80, 89
2, 34950, Note_on_c, 0, 76, 84
2, 34955, Note_on_c, 0, 80, 0
2, 34980, Note_on_c, 0, 76, 0
2, 34980, Note_on_c, 0, 80, 84
2, 35010, Note_on_c, 0, 76, 84
2, 35015, Note_on_c, 0, 80, 0
2, 35040, Note_on_c, 0, 76, 0
2, 35040, Note_on_c, 0, 81, 94
2, 35070, Note_on_c, 0, 76, 84
2, 35075, Note_on_c, 0, 81, 0
2, 35100, Note_on_c, 0, 76, 0
2, 35100, Note_on_c, 0, 78, 84
2, 35130, Note_on_c, 0, 76, 84
2, 35135, Note_on_c, 0, 78, 0
2, 35160, Note_on_c, 0, 76, 0
2, 35160, Note_on_c, 0, 81, 89
2, 35190, Note_on_c, 0, 76, 84
2, 35195, Note_on_c, 0, 81, 0
2, 35220, Note_on_c, 0, 76, 0
2, 35220, Note_on_c, 0, 78, 84
2, 35250, Note_on_c, 0, 76, 84
2, 35255, Note_on_c, 0, 78, 0
2, 35280, Note_on_c, 0, 76, 0
2, 35280, Note_on_c, 0, 83, 89
2, 35310, Note_on_c, 0, 76, 84
2, 35315, Note_on_c, 0, 83, 0
2, 35340, Note_on_c, 0, 76, 0
2, 35340, Note_on_c, 0, 78, 84
2, 35370, Note_on_c, 0, 76, 84
2, 35375, Note_on_c, 0, 78, 0
2, 35400, Note_on_c, 0, 76, 0
2, 35400, Note_on_c, 0, 83, 89
2, 35430, Note_on_c, 0, 76, 84
2, 35435, Note_on_c, 0, 83, 0
2, 35460, Note_on_c, 0, 76, 0
2, 35460, Note_on_c, 0, 78, 84
2, 35490, Note_on_c, 0, 76, 84
2, 35495, Note_on_c, 0, 78, 0
2, 35520, Note_on_c, 0, 76, 0
2, 35520, Note_on_c, 0, 85, 84
2, 35575, Note_on_c, 0, 85, 0
2, 35580, Note_on_c, 0, 87, 89
2, 35635, Note_on_c, 0, 87, 0
2, 35640, Control_c, 0, 6, 70
2, 35640, Note_on_c, 0, 88, 94
2, 35755, Note_on_c, 0, 88, 0
2, 35759, Control_c, 0, 6, 64
2, 35760, Note_on_c, 0, 88, 89
2, 35790, Note_on_c, 0, 83, 84
2, 35795, Note_on_c, 0, 88, 0
2, 35820, Note_on_c, 0, 83, 0
2, 35820, Note_on_c, 0, 88, 84
2, 35850, Note_on_c, 0, 83, 84
2, 35855, Note_on_c, 0, 88, 0
2, 35880, Note_on_c, 0, 83, 0
2, 35880, Note_on_c, 0, 85, 89
2, 35910, Note_on_c, 0, 83, 84
2, 35915, Note_on_c, 0, 85, 0
2, 35940, Note_on_c, 0, 83, 0
2, 35940, Note_on_c, 0, 88, 94
2, 35970, Note_on_c, 0, 83, 84
2, 35975, Note_on_c, 0, 88, 0
2, 36000, Note_on_c, 0, 83, 0
2, 36000, Note_on_c, 0, 85, 84
2, 36030, Note_on_c, 0, 83, 84
2, 36035, Note_on_c, 0, 85, 0
2, 36060, Note_on_c, 0, 83, 0
2, 36060, Note_on_c, 0, 88, 89
2, 36090, Note_on_c, 0, 83, 84
2, 36095, Note_on_c, 0, 88, 0
2, 36120, Note_on_c, 0, 83, 0
2, 36120, Note_on_c, 0, 85, 84
2, 36150, Note_on_c, 0, 83, 84
2, 36155, Note_on_c, 0, 85, 0
2, 36180, Note_on_c, 0, 83, 0
2, 36180, Note_on_c, 0, 88, 84
2, 36210, Note_on_c, 0, 83, 84
2, 36215, Note_on_c, 0, 88, 0
2, 36240, Note_on_c, 0, 83, 0
2, 36240, Note_on_c, 0, 88, 84
2, 36295, Note_on_c, 0, 88, 0
2, 36300, Note_on_c, 0, 76, 84
2, 36355, Note_on_c, 0, 76, 0
2, 36360, Pitch_bend_c, 0, 16383
2, 36360, Note_on_c, 0, 78, 84
2, 36375, Pitch_bend_c, 0, 8192
2, 36390, Pitch_bend_c, 0, 16383
2, 36405, Pitch_bend_c, 0, 8192
2, 36420, Pitch_bend_c, 0, 16383
2, 36435, Pitch_bend_c, 0, 8192
2, 36450, Pitch_bend_c, 0, 16383
2, 36465, Pitch_bend_c, 0, 8192
2, 36480, Note_on_c, 0, 78, 0
2, 36480, Note_on_c, 0, 76, 84
2, 36565, Note_on_c, 0, 76, 0
2, 36570, Note_on_c, 0, 80, 84
2, 36600, Note_on_c, 0, 80, 0
2, 36600, Note_on_c, 0, 81, 84
2, 36655, Note_on_c, 0, 81, 0
2, 36660, Note_on_c, 0, 83, 84
2, 36715, Note_on_c, 0, 83, 0
2, 36720, Note_on_c, 0, 85, 84
2, 36775, Note_on_c, 0, 85, 0
2, 36780, Control_c, 0, 6, 70
2, 36780, Note_on_c, 0, 83, 84
2, 36895, Note_on_c, 0, 83, 0
2, 36899, Control_c, 0, 6, 64
2, 36900, Note_on_c, 0, 76, 84
2, 36950, Note_on_c, 0, 76, 0
2, 36960, Note_on_c, 0, 83, 84
2, 37015, Note_on_c, 0, 83, 0
2, 37020, Note_on_c, 0, 81, 84
2, 37050, Note_on_c, 0, 81, 0
2, 37050, Note_on_c, 0, 80, 84
2, 37080, Note_on_c, 0, 80, 0
2, 37080, Note_on_c, 0, 81, 84
2, 37135, Note_on_c, 0, 81, 0
2, 37140, Note_on_c, 0, 83, 84
2, 37195, Note_on_c, 0, 83, 0
2, 37200, Note_on_c, 0, 85, 84
2, 37255, Note_on_c, 0, 85, 0
2, 37260, Control_c, 0, 6, 70
2, 37260, Note_on_c, 0, 83, 84
2, 37375, Note_on_c, 0, 83, 0
2, 37379, Control_c, 0, 6, 64
2, 37380, Note_on_c, 0, 76, 84
2, 37435, Note_on_c, 0, 76, 0
2, 37440, Note_on_c, 0, 85, 84
2, 37495, Note_on_c, 0, 85, 0
2, 37500, Control_c, 0, 6, 70
2, 37500, Note_on_c, 0, 83, 84
2, 37615, Note_on_c, 0, 83, 0
2, 37619, Control_c, 0, 6, 64
2, 37620, Note_on_c, 0, 81, 84
2, 37675, Note_on_c, 0, 81, 0
2, 37680, Note_on_c, 0, 80, 84
2, 37735, Note_on_c, 0, 80, 0
2, 37740, Note_on_c, 0, 78, 84
2, 37770, Note_on_c, 0, 78, 0
2, 37770, Note_on_c, 0, 76, 84
2, 37799, Pitch_bend_c, 0, 16383
2, 37800, Note_on_c, 0, 76, 0
2, 37800, Note_on_c, 0, 78, 84
2, 37815, Pitch_bend_c, 0, 8192
2, 37830, Pitch_bend_c, 0, 16383
2, 37845, Pitch_bend_c, 0, 8192
2, 37860, Pitch_bend_c, 0, 16383
2, 37875, Pitch_bend_c, 0, 8192
2, 37890, Pitch_bend_c, 0, 16383
2, 37905, Pitch_bend_c, 0, 8192
2, 37920, Note_on_c, 0, 78, 0
2, 37920, Control_c, 0, 6, 70
2, 37920, Note_on_c, 0, 76, 84
2, 38035, Note_on_c, 0, 76, 0
2, 38099, Control_c, 0, 6, 64
2, 38100, Note_on_c, 0, 76, 84
2, 38155, Note_on_c, 0, 76, 0
2, 38160, Note_on_c, 0, 83, 84
2, 38215, Note_on_c, 0, 83, 0
2, 38220, Note_on_c, 0, 81, 84
2, 38250, Note_on_c, 0, 81, 0
2, 38250, Note_on_c, 0, 80, 84
2, 38280, Note_on_c, 0, 80, 0
2, 38280, Note_on_c, 0, 81, 84
2, 38335, Note_on_c, 0, 81, 0
2, 38340, Note_on_c, 0, 83, 84
2, 38395, Note_on_c, 0, 83, 0
2, 38400, Note_on_c, 0, 85, 84
2, 38455, Note_on_c, 0, 85, 0
2, 38460, Control_c, 0, 6, 70
2, 38460, Note_on_c, 0, 83, 84
2, 38575, Note_on_c, 0, 83, 0
2, 38579, Control_c, 0, 6, 64
2, 38580, Note_on_c, 0, 76, 84
2, 38635, Note_on_c, 0, 76, 0
2, 38640, Note_on_c, 0, 83, 84
2, 38695, Note_on_c, 0, 83, 0
2, 38700, Note_on_c, 0, 81, 84
2, 38730, Note_on_c, 0, 81, 0
2, 38730, Note_on_c, 0, 80, 84
2, 38760, Note_on_c, 0, 80, 0
2, 38760, Note_on_c, 0, 81, 84
2, 38815, Note_on_c, 0, 81, 0
2, 38820, Note_on_c, 0, 83, 84
2, 38875, Note_on_c, 0, 83, 0
2, 38880, Note_on_c, 0, 85, 84
2, 38935, Note_on_c, 0, 85, 0
2, 38940, Control_c, 0, 6, 70
2, 38940, Note_on_c, 0, 83, 84
2, 39055, Note_on_c, 0, 83, 0
2, 39059, Control_c, 0, 6, 64
2, 39060, Note_on_c, 0, 76, 84
2, 39115, Note_on_c, 0, 76, 0
2, 39120, Note_on_c, 0, 85, 84
2, 39175, Note_on_c, 0, 85, 0
2, 39180, Control_c, 0, 6, 70
2, 39180, Note_on_c, 0, 83, 84
2, 39295, Note_on_c, 0, 83, 0
2, 39299, Control_c, 0, 6, 64
2, 39300, Note_on_c, 0, 81, 84
2, 39355, Note_on_c, 0, 81, 0
2, 39360, Note_on_c, 0, 80, 84
2, 39415, Note_on_c, 0, 80, 0
2, 39420, Note_on_c, 0, 78, 84
2, 39450, Note_on_c, 0, 78, 0
2, 39450, Note_on_c, 0, 76, 84
2, 39479, Note_on_c, 0, 76, 0
2, 39479, Pitch_bend_c, 0, 16383
2, 39480, Note_on_c, 0, 78, 84
2, 39495, Pitch_bend_c, 0, 8192
2, 39510, Pitch_bend_c, 0, 16383
2, 39525, Pitch_bend_c, 0, 8192
2, 39540, Pitch_bend_c, 0, 16383
2, 39555, Pitch_bend_c, 0, 8192
2, 39570, Pitch_bend_c, 0, 16383
2, 39585, Pitch_bend_c, 0, 8192
2, 39600, Note_on_c, 0, 78, 0
2, 39600, Control_c, 0, 6, 70
2, 39600, Note_on_c, 0, 76, 84
2, 39835, Note_on_c, 0, 76, 0
2, 39836, Control_c, 0, 6, 64
2, 40080, Program_c, 0, 0
2, 40080, Control_c, 0, 7, 100
2, 40080, Control_c, 0, 10, 64
2, 40080, Control_c, 0, 93, 0
2, 40080, Control_c, 0, 91, 40
2, 40081, Text_t, "Non Registered Parameter Numbers"
2, 40081, Text_t, "For Roland SC-55 Vibrato"
2, 40081, Text_t, "Set up NRPN for Vibrate Rate"
2, 40082, Control_c, 0, 99, 1
2, 40083, Control_c, 0, 98, 8
2, 40084, Text_t, "Data Entry Command"
2, 40084, Control_c, 0, 6, 64
2, 40085, Text_t, "Set up NRPN for Vibrate Delay"
2, 40086, Control_c, 0, 99, 1
2, 40087, Control_c, 0, 98, 10
2, 40088, Text_t, "Data Entry Command"
2, 40088, Control_c, 0, 6, 64
2, 40089, Text_t, "Set up NRPN for Vibrate Depth"
2, 40090, Control_c, 0, 99, 1
2, 40091, Control_c, 0, 98, 9
2, 40092, Text_t, "Data Entry Command; Vibrato ON"
2, 40092, Control_c, 0, 6, 64
2, 40093, Pitch_bend_c, 0, 8192
2, 40093, End_track
3, 0, Start_track
3, 0, MIDI_port, 0
3, 0, Title_t, "Violin II"
3, 0, Program_c, 1, 40
3, 0, Control_c, 1, 7, 93
3, 0, Control_c, 1, 10, 16
3, 0, Control_c, 1, 93, 0
3, 0, Control_c, 1, 91, 120
3, 1, Text_t, "Non Registered Parameter Numbers"
3, 1, Text_t, "For Roland SC-55 Vibrato"
3, 1, Text_t, "Set up NRPN for Vibrate Rate"
3, 2, Control_c, 1, 99, 1
3, 3, Control_c, 1, 98, 8
3, 4, Text_t, "Data Entry Command"
3, 4, Control_c, 1, 6, 66
3, 5, Text_t, "Set up NRPN for Vibrate Delay"
3, 6, Control_c, 1, 99, 1
3, 7, Control_c, 1, 98, 10
3, 8, Text_t, "Data Entry Command"
3, 8, Control_c, 1, 6, 14
3, 9, Text_t, "Set up NRPN for Vibrate Depth"
3, 10, Control_c, 1, 99, 1
3, 11, Control_c, 1, 98, 9
3, 12, Text_t, "Data Entry Command; Vibrato ON"
3, 13, Control_c, 1, 6, 70
3, 14, Pitch_bend_c, 1, 8192
3, 420, Note_on_c, 1, 76, 84
3, 480, Note_on_c, 1, 76, 0
3, 480, Note_on_c, 1, 80, 84
3, 535, Note_on_c, 1, 80, 0
3, 540, Note_on_c, 1, 80, 84
3, 595, Note_on_c, 1, 80, 0
3, 600, Note_on_c, 1, 80, 84
3, 655, Note_on_c, 1, 80, 0
3, 660, Note_on_c, 1, 78, 84
3, 690, Note_on_c, 1, 76, 84
3, 695, Note_on_c, 1, 78, 0
3, 720, Note_on_c, 1, 76, 0
3, 720, Note_on_c, 1, 83, 84
3, 895, Note_on_c, 1, 83, 0
3, 900, Note_on_c, 1, 83, 84
3, 930, Note_on_c, 1, 83, 0
3, 930, Note_on_c, 1, 81, 84
3, 960, Note_on_c, 1, 81, 0
3, 960, Note_on_c, 1, 80, 84
3, 1015, Note_on_c, 1, 80, 0
3, 1020, Note_on_c, 1, 80, 84
3, 1075, Note_on_c, 1, 80, 0
3, 1080, Note_on_c, 1, 80, 84
3, 1135, Note_on_c, 1, 80, 0
3, 1140, Note_on_c, 1, 78, 84
3, 1170, Note_on_c, 1, 76, 84
3, 1175, Note_on_c, 1, 78, 0
3, 1200, Note_on_c, 1, 76, 0
3, 1200, Note_on_c, 1, 83, 84
3, 1375, Note_on_c, 1, 83, 0
3, 1380, Note_on_c, 1, 83, 84
3, 1410, Note_on_c, 1, 81, 84
3, 1415, Note_on_c, 1, 83, 0
3, 1440, Note_on_c, 1, 81, 0
3, 1440, Note_on_c, 1, 80, 84
3, 1495, Note_on_c, 1, 80, 0
3, 1500, Note_on_c, 1, 81, 84
3, 1530, Note_on_c, 1, 81, 0
3, 1530, Note_on_c, 1, 83, 84
3, 1560, Note_on_c, 1, 83, 0
3, 1560, Note_on_c, 1, 81, 84
3, 1615, Note_on_c, 1, 81, 0
3, 1620, Note_on_c, 1, 80, 84
3, 1675, Note_on_c, 1, 80, 0
3, 1680, Note_on_c, 1, 78, 84
3, 1735, Note_on_c, 1, 78, 0
3, 1740, Note_on_c, 1, 75, 84
3, 1795, Note_on_c, 1, 75, 0
3, 1800, Note_on_c, 1, 71, 84
3, 1855, Note_on_c, 1, 71, 0
3, 1860, Note_on_c, 1, 76, 65
3, 1915, Note_on_c, 1, 76, 0
3, 1920, Note_on_c, 1, 80, 65
3, 1975, Note_on_c, 1, 80, 0
3, 1980, Note_on_c, 1, 80, 65
3, 2035, Note_on_c, 1, 80, 0
3, 2040, Note_on_c, 1, 80, 65
3, 2095, Note_on_c, 1, 80, 0
3, 2100, Note_on_c, 1, 78, 65
3, 2130, Note_on_c, 1, 78, 0
3, 2130, Note_on_c, 1, 76, 65
3, 2160, Note_on_c, 1, 76, 0
3, 2160, Note_on_c, 1, 83, 65
3, 2335, Note_on_c, 1, 83, 0
3, 2340, Note_on_c, 1, 83, 65
3, 2370, Note_on_c, 1, 83, 0
3, 2370, Note_on_c, 1, 81, 65
3, 2400, Note_on_c, 1, 81, 0
3, 2400, Note_on_c, 1, 80, 65
3, 2455, Note_on_c, 1, 80, 0
3, 2460, Note_on_c, 1, 80, 65
3, 2515, Note_on_c, 1, 80, 0
3, 2520, Note_on_c, 1, 80, 65
3, 2575, Note_on_c, 1, 80, 0
3, 2580, Note_on_c, 1, 78, 65
3, 2610, Note_on_c, 1, 78, 0
3, 2610, Note_on_c, 1, 76, 65
3, 2640, Note_on_c, 1, 76, 0
3, 2640, Note_on_c, 1, 83, 65
3, 2815, Note_on_c, 1, 83, 0
3, 2820, Note_on_c, 1, 83, 65
3, 2850, Note_on_c, 1, 83, 0
3, 2850, Note_on_c, 1, 81, 65
3, 2880, Note_on_c, 1, 81, 0
3, 2880, Note_on_c, 1, 80, 65
3, 2935, Note_on_c, 1, 80, 0
3, 2940, Note_on_c, 1, 81, 65
3, 2970, Note_on_c, 1, 81, 0
3, 2970, Note_on_c, 1, 83, 65
3, 3000, Note_on_c, 1, 83, 0
3, 3000, Note_on_c, 1, 81, 65
3, 3055, Note_on_c, 1, 81, 0
3, 3060, Note_on_c, 1, 80, 65
3, 3115, Note_on_c, 1, 80, 0
3, 3120, Note_on_c, 1, 78, 65
3, 3235, Note_on_c, 1, 78, 0
3, 3300, Note_on_c, 1, 76, 84
3, 3355, Note_on_c, 1, 76, 0
3, 3360, Note_on_c, 1, 83, 84
3, 3415, Note_on_c, 1, 83, 0
3, 3420, Note_on_c, 1, 81, 84
3, 3450, Note_on_c, 1, 80, 84
3, 3455, Note_on_c, 1, 81, 0
3, 3480, Note_on_c, 1, 80, 0
3, 3480, Note_on_c, 1, 81, 84
3, 3535, Note_on_c, 1, 81, 0
3, 3540, Note_on_c, 1, 83, 84
3, 3595, Note_on_c, 1, 83, 0
3, 3600, Note_on_c, 1, 85, 84
3, 3655, Note_on_c, 1, 85, 0
3, 3660, Note_on_c, 1, 83, 84
3, 3775, Note_on_c, 1, 83, 0
3, 3780, Note_on_c, 1, 76, 84
3, 3835, Note_on_c, 1, 76, 0
3, 3840, Note_on_c, 1, 83, 84
3, 3895, Note_on_c, 1, 83, 0
3, 3900, Note_on_c, 1, 81, 84
3, 3930, Note_on_c, 1, 80, 84
3, 3935, Note_on_c, 1, 81, 0
3, 3960, Note_on_c, 1, 80, 0
3, 3960, Note_on_c, 1, 81, 84
3, 4015, Note_on_c, 1, 81, 0
3, 4020, Note_on_c, 1, 83, 84
3, 4075, Note_on_c, 1, 83, 0
3, 4080, Note_on_c, 1, 85, 84
3, 4135, Note_on_c, 1, 85, 0
3, 4140, Note_on_c, 1, 83, 84
3, 4255, Note_on_c, 1, 83, 0
3, 4260, Note_on_c, 1, 76, 84
3, 4315, Note_on_c, 1, 76, 0
3, 4320, Note_on_c, 1, 85, 84
3, 4375, Note_on_c, 1, 85, 0
3, 4380, Note_on_c, 1, 83, 84
3, 4495, Note_on_c, 1, 83, 0
3, 4500, Note_on_c, 1, 81, 84
3, 4555, Note_on_c, 1, 81, 0
3, 4560, Note_on_c, 1, 80, 84
3, 4615, Note_on_c, 1, 80, 0
3, 4620, Note_on_c, 1, 78, 84
3, 4650, Note_on_c, 1, 78, 0
3, 4650, Note_on_c, 1, 76, 84
3, 4679, Note_on_c, 1, 76, 0
3, 4679, Pitch_bend_c, 1, 16383
3, 4680, Note_on_c, 1, 78, 84
3, 4695, Pitch_bend_c, 1, 8192
3, 4710, Pitch_bend_c, 1, 16383
3, 4725, Pitch_bend_c, 1, 8192
3, 4740, Pitch_bend_c, 1, 16383
3, 4755, Pitch_bend_c, 1, 8192
3, 4770, Pitch_bend_c, 1, 16383
3, 4785, Pitch_bend_c, 1, 8192
3, 4800, Note_on_c, 1, 78, 0
3, 4800, Note_on_c, 1, 76, 84
3, 4915, Note_on_c, 1, 76, 0
3, 4980, Note_on_c, 1, 76, 65
3, 5035, Note_on_c, 1, 76, 0
3, 5040, Note_on_c, 1, 83, 65
3, 5095, Note_on_c, 1, 83, 0
3, 5100, Note_on_c, 1, 81, 65
3, 5130, Note_on_c, 1, 80, 65
3, 5135, Note_on_c, 1, 81, 0
3, 5160, Note_on_c, 1, 80, 0
3, 5160, Note_on_c, 1, 81, 65
3, 5215, Note_on_c, 1, 81, 0
3, 5220, Note_on_c, 1, 83, 65
3, 5275, Note_on_c, 1, 83, 0
3, 5280, Note_on_c, 1, 85, 65
3, 5335, Note_on_c, 1, 85, 0
3, 5340, Note_on_c, 1, 83, 65
3, 5455, Note_on_c, 1, 83, 0
3, 5460, Note_on_c, 1, 76, 65
3, 5515, Note_on_c, 1, 76, 0
3, 5520, Note_on_c, 1, 83, 65
3, 5575, Note_on_c, 1, 83, 0
3, 5580, Note_on_c, 1, 81, 65
3, 5610, Note_on_c, 1, 80, 65
3, 5615, Note_on_c, 1, 81, 0
3, 5640, Note_on_c, 1, 80, 0
3, 5640, Note_on_c, 1, 81, 65
3, 5695, Note_on_c, 1, 81, 0
3, 5700, Note_on_c, 1, 83, 65
3, 5755, Note_on_c, 1, 83, 0
3, 5760, Note_on_c, 1, 85, 65
3, 5815, Note_on_c, 1, 85, 0
3, 5820, Note_on_c, 1, 83, 65
3, 5935, Note_on_c, 1, 83, 0
3, 5940, Note_on_c, 1, 76, 65
3, 5995, Note_on_c, 1, 76, 0
3, 6000, Note_on_c, 1, 85, 65
3, 6055, Note_on_c, 1, 85, 0
3, 6060, Note_on_c, 1, 83, 65
3, 6175, Note_on_c, 1, 83, 0
3, 6180, Note_on_c, 1, 81, 65
3, 6235, Note_on_c, 1, 81, 0
3, 6240, Note_on_c, 1, 80, 65
3, 6295, Note_on_c, 1, 80, 0
3, 6300, Note_on_c, 1, 78, 65
3, 6330, Note_on_c, 1, 78, 0
3, 6330, Note_on_c, 1, 76, 65
3, 6359, Note_on_c, 1, 76, 0
3, 6359, Pitch_bend_c, 1, 16383
3, 6360, Note_on_c, 1, 78, 65
3, 6375, Pitch_bend_c, 1, 8192
3, 6390, Pitch_bend_c, 1, 16383
3, 6405, Pitch_bend_c, 1, 8192
3, 6420, Pitch_bend_c, 1, 16383
3, 6435, Pitch_bend_c, 1, 8192
3, 6450, Pitch_bend_c, 1, 16383
3, 6465, Pitch_bend_c, 1, 8192
3, 6480, Note_on_c, 1, 78, 0
3, 6480, Note_on_c, 1, 76, 65
3, 6595, Note_on_c, 1, 76, 0
3, 7440, Note_on_c, 1, 83, 65
3, 7555, Note_on_c, 1, 83, 0
3, 7560, Note_on_c, 1, 83, 65
3, 7675, Note_on_c, 1, 83, 0
3, 7680, Note_on_c, 1, 83, 65
3, 7795, Note_on_c, 1, 83, 0
3, 7800, Note_on_c, 1, 83, 65
3, 7915, Note_on_c, 1, 83, 0
3, 7920, Note_on_c, 1, 83, 65
3, 8035, Note_on_c, 1, 83, 0
3, 8040, Note_on_c, 1, 83, 65
3, 8155, Note_on_c, 1, 83, 0
3, 8160, Note_on_c, 1, 83, 65
3, 8205, Note_on_c, 1, 83, 0
3, 8220, Note_on_c, 1, 83, 65
3, 8265, Note_on_c, 1, 83, 0
3, 8280, Note_on_c, 1, 83, 65
3, 8325, Note_on_c, 1, 83, 0
3, 8340, Note_on_c, 1, 83, 65
3, 8385, Note_on_c, 1, 83, 0
3, 8400, Note_on_c, 1, 83, 65
3, 8445, Note_on_c, 1, 83, 0
3, 8460, Note_on_c, 1, 83, 65
3, 8505, Note_on_c, 1, 83, 0
3, 8520, Note_on_c, 1, 83, 65
3, 8565, Note_on_c, 1, 83, 0
3, 8580, Note_on_c, 1, 83, 65
3, 8625, Note_on_c, 1, 83, 0
3, 8640, Note_on_c, 1, 83, 65
3, 8685, Note_on_c, 1, 83, 0
3, 8700, Note_on_c, 1, 83, 65
3, 8745, Note_on_c, 1, 83, 0
3, 8760, Note_on_c, 1, 83, 65
3, 8805, Note_on_c, 1, 83, 0
3, 8820, Note_on_c, 1, 83, 65
3, 8865, Note_on_c, 1, 83, 0
3, 8880, Note_on_c, 1, 83, 65
3, 8925, Note_on_c, 1, 83, 0
3, 8940, Note_on_c, 1, 83, 65
3, 8985, Note_on_c, 1, 83, 0
3, 9000, Note_on_c, 1, 83, 65
3, 9045, Note_on_c, 1, 83, 0
3, 9060, Note_on_c, 1, 85, 65
3, 9090, Note_on_c, 1, 87, 65
3, 9095, Note_on_c, 1, 85, 0
3, 9120, Note_on_c, 1, 88, 65
3, 9125, Note_on_c, 1, 87, 0
3, 9150, Note_on_c, 1, 87, 65
3, 9155, Note_on_c, 1, 88, 0
3, 9180, Note_on_c, 1, 85, 65
3, 9185, Note_on_c, 1, 87, 0
3, 9210, Note_on_c, 1, 83, 65
3, 9215, Note_on_c, 1, 85, 0
3, 9240, Note_on_c, 1, 81, 65
3, 9245, Note_on_c, 1, 83, 0
3, 9270, Note_on_c, 1, 80, 65
3, 9275, Note_on_c, 1, 81, 0
3, 9300, Note_on_c, 1, 78, 65
3, 9305, Note_on_c, 1, 80, 0
3, 9330, Note_on_c, 1, 76, 65
3, 9335, Note_on_c, 1, 78, 0
3, 9365, Note_on_c, 1, 76, 0
3, 9540, Note_on_c, 1, 88, 65
3, 9595, Note_on_c, 1, 88, 0
3, 9600, Note_on_c, 1, 88, 65
3, 9645, Note_on_c, 1, 88, 0
3, 9660, Note_on_c, 1, 88, 65
3, 9705, Note_on_c, 1, 88, 0
3, 9720, Note_on_c, 1, 88, 65
3, 9765, Note_on_c, 1, 88, 0
3, 9780, Note_on_c, 1, 88, 65
3, 9825, Note_on_c, 1, 88, 0
3, 9839, Pitch_bend_c, 1, 16383
3, 9840, Note_on_c, 1, 76, 65
3, 9855, Pitch_bend_c, 1, 8192
3, 9870, Pitch_bend_c, 1, 16383
3, 9885, Pitch_bend_c, 1, 8192
3, 9900, Pitch_bend_c, 1, 16383
3, 9915, Pitch_bend_c, 1, 8192
3, 9930, Pitch_bend_c, 1, 16383
3, 9945, Pitch_bend_c, 1, 8192
3, 9960, Pitch_bend_c, 1, 16383
3, 9975, Pitch_bend_c, 1, 8192
3, 9990, Pitch_bend_c, 1, 16383
3, 10005, Pitch_bend_c, 1, 8192
3, 10020, Note_on_c, 1, 76, 0
3, 10020, Note_on_c, 1, 88, 65
3, 10075, Note_on_c, 1, 88, 0
3, 10080, Note_on_c, 1, 88, 65
3, 10125, Note_on_c, 1, 88, 0
3, 10140, Note_on_c, 1, 88, 65
3, 10185, Note_on_c, 1, 88, 0
3, 10200, Note_on_c, 1, 88, 65
3, 10245, Note_on_c, 1, 88, 0
3, 10260, Note_on_c, 1, 88, 65
3, 10305, Note_on_c, 1, 88, 0
3, 10319, Pitch_bend_c, 1, 16383
3, 10320, Note_on_c, 1, 76, 65
3, 10335, Pitch_bend_c, 1, 8192
3, 10350, Pitch_bend_c, 1, 16383
3, 10365, Pitch_bend_c, 1, 8192
3, 10380, Pitch_bend_c, 1, 16383
3, 10395, Pitch_bend_c, 1, 8192
3, 10410, Pitch_bend_c, 1, 16383
3, 10425, Pitch_bend_c, 1, 8192
3, 10440, Pitch_bend_c, 1, 16383
3, 10455, Pitch_bend_c, 1, 8192
3, 10470, Pitch_bend_c, 1, 16383
3, 10485, Pitch_bend_c, 1, 8192
3, 10500, Pitch_bend_c, 1, 16383
3, 10515, Pitch_bend_c, 1, 8192
3, 10530, Pitch_bend_c, 1, 16383
3, 10545, Pitch_bend_c, 1, 8192
3, 10559, Note_on_c, 1, 76, 0
3, 10679, Pitch_bend_c, 1, 12288
3, 10680, Note_on_c, 1, 80, 65
3, 10695, Pitch_bend_c, 1, 8192
3, 10710, Pitch_bend_c, 1, 12288
3, 10725, Pitch_bend_c, 1, 8192
3, 10740, Pitch_bend_c, 1, 12288
3, 10755, Pitch_bend_c, 1, 8192
3, 10770, Pitch_bend_c, 1, 12288
3, 10785, Note_on_c, 1, 80, 0
3, 10919, Pitch_bend_c, 1, 8192
3, 10920, Note_on_c, 1, 80, 65
3, 10935, Pitch_bend_c, 1, 12288
3, 10950, Pitch_bend_c, 1, 8192
3, 10965, Pitch_bend_c, 1, 12288
3, 10980, Pitch_bend_c, 1, 8192
3, 10995, Pitch_bend_c, 1, 12288
3, 11010, Pitch_bend_c, 1, 8192
3, 11025, Note_on_c, 1, 80, 0
3, 11159, Pitch_bend_c, 1, 12288
3, 11160, Note_on_c, 1, 80, 65
3, 11175, Pitch_bend_c, 1, 8192
3, 11190, Pitch_bend_c, 1, 12288
3, 11205, Pitch_bend_c, 1, 8192
3, 11220, Pitch_bend_c, 1, 12288
3, 11235, Pitch_bend_c, 1, 8192
3, 11250, Pitch_bend_c, 1, 12288
3, 11265, Note_on_c, 1, 80, 0
3, 11265, Pitch_bend_c, 1, 8192
3, 11280, Note_on_c, 1, 83, 65
3, 11430, Note_on_c, 1, 88, 65
3, 11435, Note_on_c, 1, 83, 0
3, 11460, Note_on_c, 1, 88, 0
3, 11460, Note_on_c, 1, 83, 65
3, 11490, Note_on_c, 1, 85, 65
3, 11495, Note_on_c, 1, 83, 0
3, 11520, Note_on_c, 1, 85, 0
3, 11520, Note_on_c, 1, 83, 65
3, 11670, Note_on_c, 1, 88, 65
3, 11675, Note_on_c, 1, 83, 0
3, 11700, Note_on_c, 1, 88, 0
3, 11700, Note_on_c, 1, 83, 65
3, 11730, Note_on_c, 1, 85, 65
3, 11735, Note_on_c, 1, 83, 0
3, 11760, Note_on_c, 1, 85, 0
3, 11760, Note_on_c, 1, 83, 65
3, 11790, Note_on_c, 1, 88, 65
3, 11795, Note_on_c, 1, 83, 0
3, 11820, Note_on_c, 1, 88, 0
3, 11820, Note_on_c, 1, 83, 65
3, 11850, Note_on_c, 1, 85, 65
3, 11855, Note_on_c, 1, 83, 0
3, 11880, Note_on_c, 1, 85, 0
3, 11880, Note_on_c, 1, 83, 65
3, 11910, Note_on_c, 1, 88, 65
3, 11915, Note_on_c, 1, 83, 0
3, 11940, Note_on_c, 1, 88, 0
3, 11940, Note_on_c, 1, 83, 65
3, 11970, Note_on_c, 1, 85, 65
3, 11975, Note_on_c, 1, 83, 0
3, 12000, Note_on_c, 1, 85, 0
3, 12000, Note_on_c, 1, 83, 65
3, 12030, Note_on_c, 1, 88, 65
3, 12035, Note_on_c, 1, 83, 0
3, 12060, Note_on_c, 1, 88, 0
3, 12060, Note_on_c, 1, 83, 65
3, 12090, Note_on_c, 1, 85, 65
3, 12095, Note_on_c, 1, 83, 0
3, 12120, Note_on_c, 1, 85, 0
3, 12120, Note_on_c, 1, 83, 65
3, 12150, Note_on_c, 1, 88, 65
3, 12155, Note_on_c, 1, 83, 0
3, 12180, Note_on_c, 1, 88, 0
3, 12180, Note_on_c, 1, 83, 65
3, 12210, Note_on_c, 1, 85, 65
3, 12215, Note_on_c, 1, 83, 0
3, 12240, Note_on_c, 1, 85, 0
3, 12240, Note_on_c, 1, 83, 65
3, 12300, Note_on_c, 1, 76, 60
3, 12305, Note_on_c, 1, 83, 0
3, 12355, Note_on_c, 1, 76, 0
3, 12480, Note_on_c, 1, 88, 65
3, 12595, Note_on_c, 1, 88, 0
3, 12600, Note_on_c, 1, 88, 65
3, 12715, Note_on_c, 1, 88, 0
3, 12719, Pitch_bend_c, 1, 16383
3, 12720, Note_on_c, 1, 88, 65
3, 12735, Pitch_bend_c, 1, 8192
3, 12750, Pitch_bend_c, 1, 16383
3, 12765, Pitch_bend_c, 1, 8192
3, 12780, Pitch_bend_c, 1, 16383
3, 12795, Pitch_bend_c, 1, 8192
3, 12810, Pitch_bend_c, 1, 16383
3, 12825, Pitch_bend_c, 1, 8192
3, 12840, Pitch_bend_c, 1, 16383
3, 12855, Pitch_bend_c, 1, 8192
3, 12870, Pitch_bend_c, 1, 16383
3, 12885, Pitch_bend_c, 1, 8192
3, 12900, Pitch_bend_c, 1, 16383
3, 12915, Pitch_bend_c, 1, 8192
3, 12930, Pitch_bend_c, 1, 16383
3, 12945, Pitch_bend_c, 1, 8192
3, 12955, Note_on_c, 1, 88, 0
3, 12960, Note_on_c, 1, 88, 65
3, 13075, Note_on_c, 1, 88, 0
3, 13080, Note_on_c, 1, 88, 65
3, 13195, Note_on_c, 1, 88, 0
3, 13199, Pitch_bend_c, 1, 16383
3, 13200, Note_on_c, 1, 88, 65
3, 13215, Pitch_bend_c, 1, 8192
3, 13230, Pitch_bend_c, 1, 16383
3, 13245, Pitch_bend_c, 1, 8192
3, 13260, Pitch_bend_c, 1, 16383
3, 13275, Pitch_bend_c, 1, 8192
3, 13290, Pitch_bend_c, 1, 16383
3, 13305, Pitch_bend_c, 1, 8192
3, 13320, Note_on_c, 1, 88, 0
3, 13380, Note_on_c, 1, 76, 84
3, 13435, Note_on_c, 1, 76, 0
3, 13440, Note_on_c, 1, 83, 84
3, 13495, Note_on_c, 1, 83, 0
3, 13500, Note_on_c, 1, 81, 84
3, 13530, Note_on_c, 1, 80, 84
3, 13535, Note_on_c, 1, 81, 0
3, 13560, Note_on_c, 1, 80, 0
3, 13560, Note_on_c, 1, 81, 84
3, 13615, Note_on_c, 1, 81, 0
3, 13620, Note_on_c, 1, 83, 84
3, 13675, Note_on_c, 1, 83, 0
3, 13680, Note_on_c, 1, 85, 84
3, 13735, Note_on_c, 1, 85, 0
3, 13740, Note_on_c, 1, 83, 84
3, 13855, Note_on_c, 1, 83, 0
3, 13860, Note_on_c, 1, 76, 84
3, 13915, Note_on_c, 1, 76, 0
3, 13920, Note_on_c, 1, 83, 84
3, 13975, Note_on_c, 1, 83, 0
3, 13980, Note_on_c, 1, 81, 84
3, 14010, Note_on_c, 1, 80, 84
3, 14015, Note_on_c, 1, 81, 0
3, 14040, Note_on_c, 1, 80, 0
3, 14040, Note_on_c, 1, 81, 84
3, 14095, Note_on_c, 1, 81, 0
3, 14100, Note_on_c, 1, 83, 84
3, 14155, Note_on_c, 1, 83, 0
3, 14160, Note_on_c, 1, 85, 84
3, 14215, Note_on_c, 1, 85, 0
3, 14220, Note_on_c, 1, 83, 84
3, 14335, Note_on_c, 1, 83, 0
3, 14340, Note_on_c, 1, 76, 84
3, 14395, Note_on_c, 1, 76, 0
3, 14400, Note_on_c, 1, 85, 84
3, 14455, Note_on_c, 1, 85, 0
3, 14460, Note_on_c, 1, 83, 84
3, 14575, Note_on_c, 1, 83, 0
3, 14580, Note_on_c, 1, 81, 84
3, 14635, Note_on_c, 1, 81, 0
3, 14640, Note_on_c, 1, 80, 84
3, 14695, Note_on_c, 1, 80, 0
3, 14700, Note_on_c, 1, 78, 84
3, 14730, Note_on_c, 1, 76, 84
3, 14735, Note_on_c, 1, 78, 0
3, 14759, Note_on_c, 1, 76, 0
3, 14759, Pitch_bend_c, 1, 16383
3, 14760, Note_on_c, 1, 78, 84
3, 14775, Pitch_bend_c, 1, 8192
3, 14790, Pitch_bend_c, 1, 16383
3, 14805, Pitch_bend_c, 1, 8192
3, 14820, Pitch_bend_c, 1, 16383
3, 14835, Pitch_bend_c, 1, 8192
3, 14850, Pitch_bend_c, 1, 16383
3, 14865, Pitch_bend_c, 1, 8192
3, 14880, Note_on_c, 1, 78, 0
3, 14880, Note_on_c, 1, 76, 84
3, 14935, Note_on_c, 1, 76, 0
3, 14940, Note_on_c, 1, 68, 80
3, 14970, Note_on_c, 1, 69, 80
3, 14975, Note_on_c, 1, 68, 0
3, 15000, Note_on_c, 1, 69, 0
3, 15000, Note_on_c, 1, 71, 80
3, 15030, Note_on_c, 1, 69, 80
3, 15035, Note_on_c, 1, 71, 0
3, 15060, Note_on_c, 1, 69, 0
3, 15060, Note_on_c, 1, 71, 80
3, 15090, Note_on_c, 1, 69, 80
3, 15095, Note_on_c, 1, 71, 0
3, 15120, Note_on_c, 1, 69, 0
3, 15120, Note_on_c, 1, 68, 80
3, 15150, Note_on_c, 1, 69, 80
3, 15155, Note_on_c, 1, 68, 0
3, 15180, Note_on_c, 1, 69, 0
3, 15180, Note_on_c, 1, 68, 80
3, 15210, Note_on_c, 1, 69, 80
3, 15215, Note_on_c, 1, 68, 0
3, 15240, Note_on_c, 1, 69, 0
3, 15240, Note_on_c, 1, 71, 80
3, 15270, Note_on_c, 1, 69, 80
3, 15275, Note_on_c, 1, 71, 0
3, 15300, Note_on_c, 1, 69, 0
3, 15300, Note_on_c, 1, 71, 80
3, 15330, Note_on_c, 1, 69, 80
3, 15335, Note_on_c, 1, 71, 0
3, 15360, Note_on_c, 1, 69, 0
3, 15360, Note_on_c, 1, 68, 80
3, 15390, Note_on_c, 1, 69, 80
3, 15395, Note_on_c, 1, 68, 0
3, 15420, Note_on_c, 1, 69, 0
3, 15420, Note_on_c, 1, 68, 80
3, 15450, Note_on_c, 1, 69, 80
3, 15455, Note_on_c, 1, 68, 0
3, 15480, Note_on_c, 1, 69, 0
3, 15480, Note_on_c, 1, 71, 80
3, 15510, Note_on_c, 1, 69, 80
3, 15515, Note_on_c, 1, 71, 0
3, 15540, Note_on_c, 1, 69, 0
3, 15540, Note_on_c, 1, 71, 80
3, 15570, Note_on_c, 1, 69, 80
3, 15575, Note_on_c, 1, 71, 0
3, 15600, Note_on_c, 1, 69, 0
3, 15600, Note_on_c, 1, 68, 80
3, 15630, Note_on_c, 1, 69, 80
3, 15635, Note_on_c, 1, 68, 0
3, 15660, Note_on_c, 1, 69, 0
3, 15660, Note_on_c, 1, 68, 80
3, 15690, Note_on_c, 1, 69, 80
3, 15695, Note_on_c, 1, 68, 0
3, 15720, Note_on_c, 1, 69, 0
3, 15720, Note_on_c, 1, 71, 80
3, 15750, Note_on_c, 1, 73, 80
3, 15755, Note_on_c, 1, 71, 0
3, 15780, Note_on_c, 1, 73, 0
3, 15780, Note_on_c, 1, 71, 80
3, 15810, Note_on_c, 1, 73, 80
3, 15815, Note_on_c, 1, 71, 0
3, 15840, Note_on_c, 1, 73, 0
3, 15840, Note_on_c, 1, 75, 80
3, 15870, Note_on_c, 1, 76, 80
3, 15875, Note_on_c, 1, 75, 0
3, 15900, Note_on_c, 1, 76, 0
3, 15900, Note_on_c, 1, 75, 80
3, 15930, Note_on_c, 1, 76, 80
3, 15935, Note_on_c, 1, 75, 0
3, 15960, Note_on_c, 1, 76, 0
3, 15960, Note_on_c, 1, 78, 80
3, 15990, Note_on_c, 1, 76, 80
3, 15995, Note_on_c, 1, 78, 0
3, 16020, Note_on_c, 1, 76, 0
3, 16020, Note_on_c, 1, 78, 80
3, 16050, Note_on_c, 1, 76, 80
3, 16055, Note_on_c, 1, 78, 0
3, 16080, Note_on_c, 1, 76, 0
3, 16080, Note_on_c, 1, 75, 80
3, 16110, Note_on_c, 1, 76, 80
3, 16115, Note_on_c, 1, 75, 0
3, 16140, Note_on_c, 1, 76, 0
3, 16140, Note_on_c, 1, 75, 80
3, 16170, Note_on_c, 1, 76, 80
3, 16175, Note_on_c, 1, 75, 0
3, 16200, Note_on_c, 1, 76, 0
3, 16200, Note_on_c, 1, 78, 80
3, 16230, Note_on_c, 1, 76, 80
3, 16235, Note_on_c, 1, 78, 0
3, 16260, Note_on_c, 1, 76, 0
3, 16260, Note_on_c, 1, 78, 80
3, 16290, Note_on_c, 1, 76, 80
3, 16295, Note_on_c, 1, 78, 0
3, 16320, Note_on_c, 1, 76, 0
3, 16320, Note_on_c, 1, 75, 80
3, 16350, Note_on_c, 1, 76, 80
3, 16355, Note_on_c, 1, 75, 0
3, 16380, Note_on_c, 1, 76, 0
3, 16380, Note_on_c, 1, 75, 80
3, 16410, Note_on_c, 1, 76, 80
3, 16415, Note_on_c, 1, 75, 0
3, 16440, Note_on_c, 1, 76, 0
3, 16440, Note_on_c, 1, 78, 80
3, 16470, Note_on_c, 1, 80, 80
3, 16475, Note_on_c, 1, 78, 0
3, 16500, Note_on_c, 1, 80, 0
3, 16500, Note_on_c, 1, 78, 80
3, 16530, Note_on_c, 1, 80, 80
3, 16535, Note_on_c, 1, 78, 0
3, 16560, Note_on_c, 1, 80, 0
3, 16560, Note_on_c, 1, 81, 80
3, 16590, Note_on_c, 1, 80, 80
3, 16595, Note_on_c, 1, 81, 0
3, 16620, Note_on_c, 1, 80, 0
3, 16620, Note_on_c, 1, 81, 80
3, 16650, Note_on_c, 1, 80, 80
3, 16655, Note_on_c, 1, 81, 0
3, 16680, Note_on_c, 1, 80, 0
3, 16680, Note_on_c, 1, 78, 80
3, 16710, Note_on_c, 1, 81, 80
3, 16715, Note_on_c, 1, 78, 0
3, 16740, Note_on_c, 1, 81, 0
3, 16740, Note_on_c, 1, 80, 80
3, 16770, Note_on_c, 1, 78, 80
3, 16775, Note_on_c, 1, 80, 0
3, 16800, Note_on_c, 1, 78, 0
3, 16800, Note_on_c, 1, 80, 80
3, 16855, Note_on_c, 1, 80, 0
3, 16860, Note_on_c, 1, 78, 80
3, 16890, Note_on_c, 1, 76, 80
3, 16895, Note_on_c, 1, 78, 0
3, 16920, Note_on_c, 1, 76, 0
3, 16920, Note_on_c, 1, 75, 80
3, 16950, Note_on_c, 1, 73, 80
3, 16955, Note_on_c, 1, 75, 0
3, 16980, Note_on_c, 1, 73, 0
3, 16980, Note_on_c, 1, 71, 80
3, 17010, Note_on_c, 1, 69, 80
3, 17015, Note_on_c, 1, 71, 0
3, 17040, Note_on_c, 1, 69, 0
3, 17040, Note_on_c, 1, 68, 80
3, 17070, Note_on_c, 1, 69, 80
3, 17075, Note_on_c, 1, 68, 0
3, 17100, Note_on_c, 1, 69, 0
3, 17100, Note_on_c, 1, 68, 80
3, 17130, Note_on_c, 1, 69, 80
3, 17135, Note_on_c, 1, 68, 0
3, 17160, Note_on_c, 1, 69, 0
3, 17160, Note_on_c, 1, 71, 80
3, 17190, Note_on_c, 1, 69, 80
3, 17195, Note_on_c, 1, 71, 0
3, 17220, Note_on_c, 1, 69, 0
3, 17220, Note_on_c, 1, 71, 80
3, 17250, Note_on_c, 1, 69, 80
3, 17255, Note_on_c, 1, 71, 0
3, 17280, Note_on_c, 1, 69, 0
3, 17280, Note_on_c, 1, 68, 80
3, 17310, Note_on_c, 1, 69, 80
3, 17315, Note_on_c, 1, 68, 0
3, 17340, Note_on_c, 1, 69, 0
3, 17340, Note_on_c, 1, 68, 80
3, 17370, Note_on_c, 1, 69, 80
3, 17375, Note_on_c, 1, 68, 0
3, 17400, Note_on_c, 1, 69, 0
3, 17400, Note_on_c, 1, 71, 80
3, 17430, Note_on_c, 1, 69, 80
3, 17435, Note_on_c, 1, 71, 0
3, 17460, Note_on_c, 1, 69, 0
3, 17460, Note_on_c, 1, 71, 80
3, 17490, Note_on_c, 1, 69, 80
3, 17495, Note_on_c, 1, 71, 0
3, 17520, Note_on_c, 1, 69, 0
3, 17520, Note_on_c, 1, 68, 80
3, 17550, Note_on_c, 1, 69, 80
3, 17555, Note_on_c, 1, 68, 0
3, 17580, Note_on_c, 1, 69, 0
3, 17580, Note_on_c, 1, 68, 80
3, 17610, Note_on_c, 1, 69, 80
3, 17615, Note_on_c, 1, 68, 0
3, 17640, Note_on_c, 1, 69, 0
3, 17640, Note_on_c, 1, 71, 80
3, 17670, Note_on_c, 1, 69, 81
3, 17675, Note_on_c, 1, 71, 0
3, 17700, Note_on_c, 1, 69, 0
3, 17700, Note_on_c, 1, 71, 82
3, 17730, Note_on_c, 1, 69, 83
3, 17735, Note_on_c, 1, 71, 0
3, 17760, Note_on_c, 1, 69, 0
3, 17760, Note_on_c, 1, 68, 84
3, 17875, Note_on_c, 1, 68, 0
3, 17940, Note_on_c, 1, 80, 84
3, 17995, Note_on_c, 1, 80, 0
3, 18000, Note_on_c, 1, 81, 84
3, 18235, Note_on_c, 1, 81, 0
3, 18240, Note_on_c, 1, 80, 84
3, 18475, Note_on_c, 1, 80, 0
3, 18480, Note_on_c, 1, 78, 84
3, 18715, Note_on_c, 1, 78, 0
3, 18720, Note_on_c, 1, 80, 84
3, 18955, Note_on_c, 1, 80, 0
3, 18960, Note_on_c, 1, 81, 84
3, 19195, Note_on_c, 1, 81, 0
3, 19200, Note_on_c, 1, 80, 84
3, 19435, Note_on_c, 1, 80, 0
3, 19440, Note_on_c, 1, 78, 84
3, 19555, Note_on_c, 1, 78, 0
3, 19620, Note_on_c, 1, 75, 84
3, 19675, Note_on_c, 1, 75, 0
3, 19680, Note_on_c, 1, 78, 84
3, 19735, Note_on_c, 1, 78, 0
3, 19740, Note_on_c, 1, 76, 84
3, 19770, Note_on_c, 1, 75, 84
3, 19775, Note_on_c, 1, 76, 0
3, 19800, Note_on_c, 1, 75, 0
3, 19800, Note_on_c, 1, 76, 84
3, 19855, Note_on_c, 1, 76, 0
3, 19860, Note_on_c, 1, 78, 84
3, 19915, Note_on_c, 1, 78, 0
3, 19920, Note_on_c, 1, 80, 84
3, 19975, Note_on_c, 1, 80, 0
3, 19980, Note_on_c, 1, 78, 84
3, 20095, Note_on_c, 1, 78, 0
3, 20100, Note_on_c, 1, 71, 84
3, 20155, Note_on_c, 1, 71, 0
3, 20160, Note_on_c, 1, 78, 84
3, 20215, Note_on_c, 1, 78, 0
3, 20220, Note_on_c, 1, 76, 84
3, 20250, Note_on_c, 1, 75, 84
3, 20255, Note_on_c, 1, 76, 0
3, 20280, Note_on_c, 1, 75, 0
3, 20280, Note_on_c, 1, 76, 84
3, 20335, Note_on_c, 1, 76, 0
3, 20340, Note_on_c, 1, 78, 84
3, 20395, Note_on_c, 1, 78, 0
3, 20400, Note_on_c, 1, 80, 84
3, 20455, Note_on_c, 1, 80, 0
3, 20460, Note_on_c, 1, 78, 84
3, 20575, Note_on_c, 1, 78, 0
3, 20580, Note_on_c, 1, 71, 84
3, 20635, Note_on_c, 1, 71, 0
3, 20640, Note_on_c, 1, 80, 84
3, 20695, Note_on_c, 1, 80, 0
3, 20700, Note_on_c, 1, 78, 84
3, 20815, Note_on_c, 1, 78, 0
3, 20820, Note_on_c, 1, 76, 84
3, 20875, Note_on_c, 1, 76, 0
3, 20880, Note_on_c, 1, 75, 84
3, 20935, Note_on_c, 1, 75, 0
3, 20940, Note_on_c, 1, 73, 84
3, 20970, Note_on_c, 1, 71, 84
3, 20975, Note_on_c, 1, 73, 0
3, 21000, Note_on_c, 1, 71, 0
3, 21000, Note_on_c, 1, 73, 84
3, 21115, Note_on_c, 1, 73, 0
3, 21120, Note_on_c, 1, 71, 84
3, 21150, Note_on_c, 1, 71, 0
3, 21150, Note_on_c, 1, 59, 84
3, 21163, Note_on_c, 1, 59, 0
3, 21165, Note_on_c, 1, 59, 84
3, 21178, Note_on_c, 1, 59, 0
3, 21180, Note_on_c, 1, 59, 84
3, 21193, Note_on_c, 1, 59, 0
3, 21195, Note_on_c, 1, 59, 84
3, 21208, Note_on_c, 1, 59, 0
3, 21210, Note_on_c, 1, 59, 84
3, 21223, Note_on_c, 1, 59, 0
3, 21225, Note_on_c, 1, 59, 84
3, 21238, Note_on_c, 1, 59, 0
3, 21240, Note_on_c, 1, 59, 84
3, 21253, Note_on_c, 1, 59, 0
3, 21255, Note_on_c, 1, 59, 84
3, 21268, Note_on_c, 1, 59, 0
3, 21270, Note_on_c, 1, 59, 84
3, 21283, Note_on_c, 1, 59, 0
3, 21285, Note_on_c, 1, 59, 84
3, 21298, Note_on_c, 1, 59, 0
3, 21300, Note_on_c, 1, 59, 84
3, 21313, Note_on_c, 1, 59, 0
3, 21315, Note_on_c, 1, 59, 84
3, 21328, Note_on_c, 1, 59, 0
3, 21330, Note_on_c, 1, 59, 84
3, 21343, Note_on_c, 1, 59, 0
3, 21345, Note_on_c, 1, 59, 84
3, 21358, Note_on_c, 1, 59, 0
3, 21360, Note_on_c, 1, 59, 84
3, 21373, Note_on_c, 1, 59, 0
3, 21375, Note_on_c, 1, 59, 84
3, 21388, Note_on_c, 1, 59, 0
3, 21390, Note_on_c, 1, 59, 84
3, 21403, Note_on_c, 1, 59, 0
3, 21405, Note_on_c, 1, 59, 84
3, 21418, Note_on_c, 1, 59, 0
3, 21420, Note_on_c, 1, 59, 84
3, 21433, Note_on_c, 1, 59, 0
3, 21435, Note_on_c, 1, 59, 84
3, 21448, Note_on_c, 1, 59, 0
3, 21450, Note_on_c, 1, 59, 84
3, 21463, Note_on_c, 1, 59, 0
3, 21465, Note_on_c, 1, 59, 84
3, 21478, Note_on_c, 1, 59, 0
3, 21480, Note_on_c, 1, 59, 84
3, 21493, Note_on_c, 1, 59, 0
3, 21495, Note_on_c, 1, 59, 84
3, 21508, Note_on_c, 1, 59, 0
3, 21510, Note_on_c, 1, 59, 84
3, 21523, Note_on_c, 1, 59, 0
3, 21525, Note_on_c, 1, 59, 84
3, 21538, Note_on_c, 1, 59, 0
3, 21540, Note_on_c, 1, 59, 84
3, 21553, Note_on_c, 1, 59, 0
3, 21555, Note_on_c, 1, 59, 84
3, 21568, Note_on_c, 1, 59, 0
3, 21570, Note_on_c, 1, 59, 84
3, 21583, Note_on_c, 1, 59, 0
3, 21585, Note_on_c, 1, 59, 84
3, 21598, Note_on_c, 1, 59, 0
3, 21600, Note_on_c, 1, 71, 84
3, 21615, Note_on_c, 1, 73, 84
3, 21620, Note_on_c, 1, 71, 0
3, 21630, Note_on_c, 1, 75, 84
3, 21635, Note_on_c, 1, 73, 0
3, 21645, Note_on_c, 1, 76, 84
3, 21650, Note_on_c, 1, 75, 0
3, 21660, Note_on_c, 1, 78, 84
3, 21665, Note_on_c, 1, 76, 0
3, 21675, Note_on_c, 1, 80, 84
3, 21680, Note_on_c, 1, 78, 0
3, 21690, Note_on_c, 1, 81, 84
3, 21695, Note_on_c, 1, 80, 0
3, 21705, Note_on_c, 1, 83, 84
3, 21710, Note_on_c, 1, 81, 0
3, 21725, Note_on_c, 1, 83, 0
3, 21840, Note_on_c, 1, 71, 84
3, 21855, Note_on_c, 1, 73, 84
3, 21860, Note_on_c, 1, 71, 0
3, 21870, Note_on_c, 1, 75, 84
3, 21875, Note_on_c, 1, 73, 0
3, 21885, Note_on_c, 1, 76, 84
3, 21890, Note_on_c, 1, 75, 0
3, 21900, Note_on_c, 1, 78, 84
3, 21905, Note_on_c, 1, 76, 0
3, 21915, Note_on_c, 1, 80, 84
3, 21920, Note_on_c, 1, 78, 0
3, 21930, Note_on_c, 1, 81, 84
3, 21935, Note_on_c, 1, 80, 0
3, 21945, Note_on_c, 1, 83, 84
3, 21950, Note_on_c, 1, 81, 0
3, 21965, Note_on_c, 1, 83, 0
3, 22080, Note_on_c, 1, 59, 84
3, 22093, Note_on_c, 1, 59, 0
3, 22095, Note_on_c, 1, 59, 84
3, 22108, Note_on_c, 1, 59, 0
3, 22110, Note_on_c, 1, 59, 84
3, 22123, Note_on_c, 1, 59, 0
3, 22125, Note_on_c, 1, 59, 84
3, 22138, Note_on_c, 1, 59, 0
3, 22140, Note_on_c, 1, 59, 84
3, 22153, Note_on_c, 1, 59, 0
3, 22155, Note_on_c, 1, 59, 84
3, 22168, Note_on_c, 1, 59, 0
3, 22170, Note_on_c, 1, 59, 84
3, 22183, Note_on_c, 1, 59, 0
3, 22185, Note_on_c, 1, 59, 84
3, 22198, Note_on_c, 1, 59, 0
3, 22200, Note_on_c, 1, 59, 84
3, 22213, Note_on_c, 1, 59, 0
3, 22215, Note_on_c, 1, 59, 84
3, 22228, Note_on_c, 1, 59, 0
3, 22230, Note_on_c, 1, 59, 84
3, 22243, Note_on_c, 1, 59, 0
3, 22245, Note_on_c, 1, 59, 84
3, 22258, Note_on_c, 1, 59, 0
3, 22260, Note_on_c, 1, 59, 84
3, 22273, Note_on_c, 1, 59, 0
3, 22275, Note_on_c, 1, 59, 84
3, 22288, Note_on_c, 1, 59, 0
3, 22290, Note_on_c, 1, 59, 84
3, 22303, Note_on_c, 1, 59, 0
3, 22305, Note_on_c, 1, 59, 84
3, 22318, Note_on_c, 1, 59, 0
3, 22320, Note_on_c, 1, 57, 84
3, 22333, Note_on_c, 1, 57, 0
3, 22335, Note_on_c, 1, 57, 84
3, 22348, Note_on_c, 1, 57, 0
3, 22350, Note_on_c, 1, 57, 84
3, 22363, Note_on_c, 1, 57, 0
3, 22365, Note_on_c, 1, 57, 84
3, 22378, Note_on_c, 1, 57, 0
3, 22380, Note_on_c, 1, 57, 84
3, 22393, Note_on_c, 1, 57, 0
3, 22395, Note_on_c, 1, 57, 84
3, 22408, Note_on_c, 1, 57, 0
3, 22410, Note_on_c, 1, 57, 84
3, 22423, Note_on_c, 1, 57, 0
3, 22425, Note_on_c, 1, 57, 84
3, 22438, Note_on_c, 1, 57, 0
3, 22440, Note_on_c, 1, 57, 84
3, 22453, Note_on_c, 1, 57, 0
3, 22455, Note_on_c, 1, 57, 84
3, 22468, Note_on_c, 1, 57, 0
3, 22470, Note_on_c, 1, 57, 84
3, 22483, Note_on_c, 1, 57, 0
3, 22485, Note_on_c, 1, 57, 84
3, 22498, Note_on_c, 1, 57, 0
3, 22500, Note_on_c, 1, 57, 84
3, 22513, Note_on_c, 1, 57, 0
3, 22515, Note_on_c, 1, 57, 84
3, 22528, Note_on_c, 1, 57, 0
3, 22530, Note_on_c, 1, 57, 84
3, 22543, Note_on_c, 1, 57, 0
3, 22545, Note_on_c, 1, 57, 84
3, 22558, Note_on_c, 1, 57, 0
3, 22560, Note_on_c, 1, 56, 84
3, 22675, Note_on_c, 1, 56, 0
3, 23040, Note_on_c, 1, 57, 84
3, 23053, Note_on_c, 1, 57, 0
3, 23055, Note_on_c, 1, 57, 84
3, 23068, Note_on_c, 1, 57, 0
3, 23070, Note_on_c, 1, 57, 84
3, 23083, Note_on_c, 1, 57, 0
3, 23085, Note_on_c, 1, 57, 84
3, 23098, Note_on_c, 1, 57, 0
3, 23100, Note_on_c, 1, 57, 84
3, 23113, Note_on_c, 1, 57, 0
3, 23115, Note_on_c, 1, 57, 84
3, 23128, Note_on_c, 1, 57, 0
3, 23130, Note_on_c, 1, 57, 84
3, 23143, Note_on_c, 1, 57, 0
3, 23145, Note_on_c, 1, 57, 84
3, 23158, Note_on_c, 1, 57, 0
3, 23160, Note_on_c, 1, 57, 84
3, 23173, Note_on_c, 1, 57, 0
3, 23175, Note_on_c, 1, 57, 84
3, 23188, Note_on_c, 1, 57, 0
3, 23190, Note_on_c, 1, 57, 84
3, 23203, Note_on_c, 1, 57, 0
3, 23205, Note_on_c, 1, 57, 84
3, 23218, Note_on_c, 1, 57, 0
3, 23220, Note_on_c, 1, 57, 84
3, 23233, Note_on_c, 1, 57, 0
3, 23235, Note_on_c, 1, 57, 84
3, 23248, Note_on_c, 1, 57, 0
3, 23250, Note_on_c, 1, 57, 84
3, 23263, Note_on_c, 1, 57, 0
3, 23265, Note_on_c, 1, 57, 84
3, 23278, Note_on_c, 1, 57, 0
3, 23280, Note_on_c, 1, 58, 84
3, 23395, Note_on_c, 1, 58, 0
3, 23760, Note_on_c, 1, 59, 84
3, 23773, Note_on_c, 1, 59, 0
3, 23775, Note_on_c, 1, 59, 84
3, 23788, Note_on_c, 1, 59, 0
3, 23790, Note_on_c, 1, 59, 84
3, 23803, Note_on_c, 1, 59, 0
3, 23805, Note_on_c, 1, 59, 84
3, 23818, Note_on_c, 1, 59, 0
3, 23820, Note_on_c, 1, 59, 84
3, 23833, Note_on_c, 1, 59, 0
3, 23835, Note_on_c, 1, 59, 84
3, 23848, Note_on_c, 1, 59, 0
3, 23850, Note_on_c, 1, 59, 84
3, 23863, Note_on_c, 1, 59, 0
3, 23865, Note_on_c, 1, 59, 84
3, 23878, Note_on_c, 1, 59, 0
3, 23880, Note_on_c, 1, 59, 84
3, 23893, Note_on_c, 1, 59, 0
3, 23895, Note_on_c, 1, 59, 84
3, 23908, Note_on_c, 1, 59, 0
3, 23910, Note_on_c, 1, 59, 84
3, 23923, Note_on_c, 1, 59, 0
3, 23925, Note_on_c, 1, 59, 84
3, 23938, Note_on_c, 1, 59, 0
3, 23940, Note_on_c, 1, 59, 84
3, 23953, Note_on_c, 1, 59, 0
3, 23955, Note_on_c, 1, 59, 84
3, 23968, Note_on_c, 1, 59, 0
3, 23970, Note_on_c, 1, 59, 84
3, 23983, Note_on_c, 1, 59, 0
3, 23985, Note_on_c, 1, 59, 84
3, 23998, Note_on_c, 1, 59, 0
3, 24000, Note_on_c, 1, 60, 84
3, 24115, Note_on_c, 1, 60, 0
3, 24480, Note_on_c, 1, 61, 84
3, 24493, Note_on_c, 1, 61, 0
3, 24495, Note_on_c, 1, 61, 84
3, 24508, Note_on_c, 1, 61, 0
3, 24510, Note_on_c, 1, 61, 84
3, 24523, Note_on_c, 1, 61, 0
3, 24525, Note_on_c, 1, 61, 84
3, 24538, Note_on_c, 1, 61, 0
3, 24540, Note_on_c, 1, 61, 84
3, 24553, Note_on_c, 1, 61, 0
3, 24555, Note_on_c, 1, 61, 84
3, 24568, Note_on_c, 1, 61, 0
3, 24570, Note_on_c, 1, 61, 84
3, 24583, Note_on_c, 1, 61, 0
3, 24585, Note_on_c, 1, 61, 84
3, 24598, Note_on_c, 1, 61, 0
3, 24600, Note_on_c, 1, 61, 84
3, 24613, Note_on_c, 1, 61, 0
3, 24615, Note_on_c, 1, 61, 84
3, 24628, Note_on_c, 1, 61, 0
3, 24630, Note_on_c, 1, 61, 84
3, 24643, Note_on_c, 1, 61, 0
3, 24645, Note_on_c, 1, 61, 84
3, 24658, Note_on_c, 1, 61, 0
3, 24660, Note_on_c, 1, 61, 84
3, 24673, Note_on_c, 1, 61, 0
3, 24675, Note_on_c, 1, 61, 84
3, 24688, Note_on_c, 1, 61, 0
3, 24690, Note_on_c, 1, 61, 84
3, 24703, Note_on_c, 1, 61, 0
3, 24705, Note_on_c, 1, 61, 84
3, 24718, Note_on_c, 1, 61, 0
3, 24720, Note_on_c, 1, 61, 84
3, 24835, Note_on_c, 1, 61, 0
3, 24960, Note_on_c, 1, 59, 84
3, 24973, Note_on_c, 1, 59, 0
3, 24975, Note_on_c, 1, 59, 84
3, 24988, Note_on_c, 1, 59, 0
3, 24990, Note_on_c, 1, 59, 84
3, 25003, Note_on_c, 1, 59, 0
3, 25005, Note_on_c, 1, 59, 84
3, 25018, Note_on_c, 1, 59, 0
3, 25020, Note_on_c, 1, 59, 84
3, 25033, Note_on_c, 1, 59, 0
3, 25035, Note_on_c, 1, 59, 84
3, 25048, Note_on_c, 1, 59, 0
3, 25050, Note_on_c, 1, 59, 84
3, 25063, Note_on_c, 1, 59, 0
3, 25065, Note_on_c, 1, 59, 84
3, 25078, Note_on_c, 1, 59, 0
3, 25080, Note_on_c, 1, 59, 84
3, 25093, Note_on_c, 1, 59, 0
3, 25095, Note_on_c, 1, 59, 84
3, 25108, Note_on_c, 1, 59, 0
3, 25110, Note_on_c, 1, 59, 84
3, 25123, Note_on_c, 1, 59, 0
3, 25125, Note_on_c, 1, 59, 84
3, 25138, Note_on_c, 1, 59, 0
3, 25140, Note_on_c, 1, 59, 84
3, 25153, Note_on_c, 1, 59, 0
3, 25155, Note_on_c, 1, 59, 84
3, 25168, Note_on_c, 1, 59, 0
3, 25170, Note_on_c, 1, 59, 84
3, 25183, Note_on_c, 1, 59, 0
3, 25185, Note_on_c, 1, 59, 84
3, 25198, Note_on_c, 1, 59, 0
3, 25200, Note_on_c, 1, 57, 84
3, 25315, Note_on_c, 1, 57, 0
3, 25440, Note_on_c, 1, 68, 84
3, 25453, Note_on_c, 1, 68, 0
3, 25455, Note_on_c, 1, 68, 84
3, 25468, Note_on_c, 1, 68, 0
3, 25470, Note_on_c, 1, 68, 84
3, 25483, Note_on_c, 1, 68, 0
3, 25485, Note_on_c, 1, 68, 84
3, 25498, Note_on_c, 1, 68, 0
3, 25500, Note_on_c, 1, 68, 84
3, 25513, Note_on_c, 1, 68, 0
3, 25515, Note_on_c, 1, 68, 84
3, 25528, Note_on_c, 1, 68, 0
3, 25530, Note_on_c, 1, 68, 84
3, 25543, Note_on_c, 1, 68, 0
3, 25545, Note_on_c, 1, 68, 84
3, 25558, Note_on_c, 1, 68, 0
3, 25560, Note_on_c, 1, 68, 84
3, 25573, Note_on_c, 1, 68, 0
3, 25575, Note_on_c, 1, 68, 84
3, 25588, Note_on_c, 1, 68, 0
3, 25590, Note_on_c, 1, 68, 84
3, 25603, Note_on_c, 1, 68, 0
3, 25605, Note_on_c, 1, 68, 84
3, 25618, Note_on_c, 1, 68, 0
3, 25620, Note_on_c, 1, 68, 84
3, 25633, Note_on_c, 1, 68, 0
3, 25635, Note_on_c, 1, 68, 84
3, 25648, Note_on_c, 1, 68, 0
3, 25650, Note_on_c, 1, 68, 84
3, 25663, Note_on_c, 1, 68, 0
3, 25665, Note_on_c, 1, 68, 84
3, 25678, Note_on_c, 1, 68, 0
3, 25680, Note_on_c, 1, 66, 84
3, 25795, Note_on_c, 1, 66, 0
3, 25920, Note_on_c, 1, 64, 84
3, 25933, Note_on_c, 1, 64, 0
3, 25935, Note_on_c, 1, 64, 84
3, 25948, Note_on_c, 1, 64, 0
3, 25950, Note_on_c, 1, 64, 84
3, 25963, Note_on_c, 1, 64, 0
3, 25965, Note_on_c, 1, 64, 84
3, 25978, Note_on_c, 1, 64, 0
3, 25980, Note_on_c, 1, 64, 84
3, 25993, Note_on_c, 1, 64, 0
3, 25995, Note_on_c, 1, 64, 84
3, 26008, Note_on_c, 1, 64, 0
3, 26010, Note_on_c, 1, 64, 84
3, 26023, Note_on_c, 1, 64, 0
3, 26025, Note_on_c, 1, 64, 84
3, 26038, Note_on_c, 1, 64, 0
3, 26040, Note_on_c, 1, 61, 84
3, 26053, Note_on_c, 1, 61, 0
3, 26055, Note_on_c, 1, 61, 84
3, 26068, Note_on_c, 1, 61, 0
3, 26070, Note_on_c, 1, 61, 84
3, 26083, Note_on_c, 1, 61, 0
3, 26085, Note_on_c, 1, 61, 84
3, 26098, Note_on_c, 1, 61, 0
3, 26100, Note_on_c, 1, 61, 84
3, 26113, Note_on_c, 1, 61, 0
3, 26115, Note_on_c, 1, 61, 84
3, 26128, Note_on_c, 1, 61, 0
3, 26130, Note_on_c, 1, 61, 84
3, 26143, Note_on_c, 1, 61, 0
3, 26145, Note_on_c, 1, 61, 84
3, 26158, Note_on_c, 1, 61, 0
3, 26160, Note_on_c, 1, 56, 84
3, 26173, Note_on_c, 1, 56, 0
3, 26175, Note_on_c, 1, 56, 84
3, 26188, Note_on_c, 1, 56, 0
3, 26190, Note_on_c, 1, 56, 84
3, 26203, Note_on_c, 1, 56, 0
3, 26205, Note_on_c, 1, 56, 84
3, 26218, Note_on_c, 1, 56, 0
3, 26220, Note_on_c, 1, 56, 84
3, 26233, Note_on_c, 1, 56, 0
3, 26235, Note_on_c, 1, 56, 84
3, 26248, Note_on_c, 1, 56, 0
3, 26250, Note_on_c, 1, 56, 84
3, 26263, Note_on_c, 1, 56, 0
3, 26265, Note_on_c, 1, 56, 84
3, 26278, Note_on_c, 1, 56, 0
3, 26280, Note_on_c, 1, 56, 84
3, 26293, Note_on_c, 1, 56, 0
3, 26295, Note_on_c, 1, 56, 84
3, 26308, Note_on_c, 1, 56, 0
3, 26310, Note_on_c, 1, 56, 84
3, 26323, Note_on_c, 1, 56, 0
3, 26325, Note_on_c, 1, 56, 84
3, 26338, Note_on_c, 1, 56, 0
3, 26340, Note_on_c, 1, 56, 84
3, 26353, Note_on_c, 1, 56, 0
3, 26355, Note_on_c, 1, 56, 84
3, 26368, Note_on_c, 1, 56, 0
3, 26370, Note_on_c, 1, 56, 84
3, 26383, Note_on_c, 1, 56, 0
3, 26385, Note_on_c, 1, 56, 84
3, 26398, Note_on_c, 1, 56, 0
3, 26400, Note_on_c, 1, 56, 84
3, 26413, Note_on_c, 1, 56, 0
3, 26415, Note_on_c, 1, 56, 84
3, 26428, Note_on_c, 1, 56, 0
3, 26430, Note_on_c, 1, 56, 84
3, 26443, Note_on_c, 1, 56, 0
3, 26445, Note_on_c, 1, 56, 84
3, 26458, Note_on_c, 1, 56, 0
3, 26460, Note_on_c, 1, 56, 84
3, 26473, Note_on_c, 1, 56, 0
3, 26475, Note_on_c, 1, 56, 84
3, 26488, Note_on_c, 1, 56, 0
3, 26490, Note_on_c, 1, 56, 84
3, 26503, Note_on_c, 1, 56, 0
3, 26505, Note_on_c, 1, 56, 84
3, 26518, Note_on_c, 1, 56, 0
3, 26520, Note_on_c, 1, 56, 84
3, 26533, Note_on_c, 1, 56, 0
3, 26535, Note_on_c, 1, 56, 84
3, 26548, Note_on_c, 1, 56, 0
3, 26550, Note_on_c, 1, 56, 84
3, 26563, Note_on_c, 1, 56, 0
3, 26565, Note_on_c, 1, 56, 84
3, 26578, Note_on_c, 1, 56, 0
3, 26580, Note_on_c, 1, 56, 84
3, 26593, Note_on_c, 1, 56, 0
3, 26595, Note_on_c, 1, 56, 84
3, 26608, Note_on_c, 1, 56, 0
3, 26610, Note_on_c, 1, 56, 84
3, 26623, Note_on_c, 1, 56, 0
3, 26625, Note_on_c, 1, 56, 84
3, 26638, Note_on_c, 1, 56, 0
3, 26640, Note_on_c, 1, 61, 84
3, 26755, Note_on_c, 1, 61, 0
3, 26820, Note_on_c, 1, 73, 84
3, 26875, Note_on_c, 1, 73, 0
3, 26880, Note_on_c, 1, 80, 84
3, 26935, Note_on_c, 1, 80, 0
3, 26940, Note_on_c, 1, 78, 84
3, 26970, Note_on_c, 1, 76, 84
3, 26975, Note_on_c, 1, 78, 0
3, 27000, Note_on_c, 1, 76, 0
3, 27000, Note_on_c, 1, 78, 84
3, 27055, Note_on_c, 1, 78, 0
3, 27060, Note_on_c, 1, 80, 84
3, 27115, Note_on_c, 1, 80, 0
3, 27120, Note_on_c, 1, 81, 84
3, 27175, Note_on_c, 1, 81, 0
3, 27180, Note_on_c, 1, 80, 84
3, 27295, Note_on_c, 1, 80, 0
3, 27300, Note_on_c, 1, 73, 84
3, 27355, Note_on_c, 1, 73, 0
3, 27360, Note_on_c, 1, 80, 84
3, 27415, Note_on_c, 1, 80, 0
3, 27420, Note_on_c, 1, 78, 84
3, 27450, Note_on_c, 1, 76, 84
3, 27455, Note_on_c, 1, 78, 0
3, 27480, Note_on_c, 1, 76, 0
3, 27480, Note_on_c, 1, 78, 84
3, 27535, Note_on_c, 1, 78, 0
3, 27540, Note_on_c, 1, 80, 84
3, 27595, Note_on_c, 1, 80, 0
3, 27600, Note_on_c, 1, 81, 84
3, 27655, Note_on_c, 1, 81, 0
3, 27660, Note_on_c, 1, 80, 84
3, 27775, Note_on_c, 1, 80, 0
3, 27780, Note_on_c, 1, 73, 84
3, 27835, Note_on_c, 1, 73, 0
3, 27840, Note_on_c, 1, 81, 84
3, 27895, Note_on_c, 1, 81, 0
3, 27900, Note_on_c, 1, 80, 84
3, 28015, Note_on_c, 1, 80, 0
3, 28020, Note_on_c, 1, 78, 84
3, 28075, Note_on_c, 1, 78, 0
3, 28080, Note_on_c, 1, 76, 84
3, 28135, Note_on_c, 1, 76, 0
3, 28140, Note_on_c, 1, 75, 84
3, 28170, Note_on_c, 1, 73, 84
3, 28175, Note_on_c, 1, 75, 0
3, 28199, Note_on_c, 1, 73, 0
3, 28199, Pitch_bend_c, 1, 12288
3, 28200, Note_on_c, 1, 75, 84
3, 28215, Pitch_bend_c, 1, 8192
3, 28230, Pitch_bend_c, 1, 12288
3, 28245, Pitch_bend_c, 1, 8192
3, 28260, Pitch_bend_c, 1, 12288
3, 28275, Pitch_bend_c, 1, 8192
3, 28290, Pitch_bend_c, 1, 12288
3, 28305, Pitch_bend_c, 1, 8192
3, 28320, Note_on_c, 1, 75, 0
3, 28320, Note_on_c, 1, 73, 84
3, 28435, Note_on_c, 1, 73, 0
3, 29340, Note_on_c, 1, 73, 84
3, 29385, Note_on_c, 1, 73, 0
3, 29400, Note_on_c, 1, 73, 84
3, 29445, Note_on_c, 1, 73, 0
3, 29460, Note_on_c, 1, 73, 84
3, 29505, Note_on_c, 1, 73, 0
3, 29520, Note_on_c, 1, 73, 84
3, 29565, Note_on_c, 1, 73, 0
3, 29580, Note_on_c, 1, 73, 84
3, 29625, Note_on_c, 1, 73, 0
3, 29640, Note_on_c, 1, 73, 84
3, 29685, Note_on_c, 1, 73, 0
3, 29700, Note_on_c, 1, 75, 84
3, 29745, Note_on_c, 1, 75, 0
3, 29760, Note_on_c, 1, 76, 84
3, 29805, Note_on_c, 1, 76, 0
3, 29820, Note_on_c, 1, 76, 84
3, 29865, Note_on_c, 1, 76, 0
3, 29880, Note_on_c, 1, 77, 84
3, 29925, Note_on_c, 1, 77, 0
3, 29940, Note_on_c, 1, 77, 84
3, 29985, Note_on_c, 1, 77, 0
3, 30000, Note_on_c, 1, 78, 84
3, 30045, Note_on_c, 1, 78, 0
3, 30060, Note_on_c, 1, 78, 84
3, 30105, Note_on_c, 1, 78, 0
3, 30120, Note_on_c, 1, 79, 84
3, 30165, Note_on_c, 1, 79, 0
3, 30180, Note_on_c, 1, 79, 84
3, 30225, Note_on_c, 1, 79, 0
3, 30240, Note_on_c, 1, 80, 84
3, 30390, Note_on_c, 1, 81, 84
3, 30395, Note_on_c, 1, 80, 0
3, 30420, Note_on_c, 1, 81, 0
3, 30420, Note_on_c, 1, 80, 84
3, 30450, Note_on_c, 1, 81, 84
3, 30455, Note_on_c, 1, 80, 0
3, 30480, Note_on_c, 1, 81, 0
3, 30480, Note_on_c, 1, 80, 84
3, 30630, Note_on_c, 1, 81, 84
3, 30635, Note_on_c, 1, 80, 0
3, 30660, Note_on_c, 1, 81, 0
3, 30660, Note_on_c, 1, 80, 84
3, 30690, Note_on_c, 1, 81, 84
3, 30695, Note_on_c, 1, 80, 0
3, 30719, Note_on_c, 1, 81, 0
3, 30719, Pitch_bend_c, 1, 12288
3, 30720, Note_on_c, 1, 80, 84
3, 30735, Pitch_bend_c, 1, 8192
3, 30750, Pitch_bend_c, 1, 12288
3, 30765, Pitch_bend_c, 1, 8192
3, 30780, Pitch_bend_c, 1, 12288
3, 30795, Pitch_bend_c, 1, 8192
3, 30810, Pitch_bend_c, 1, 12288
3, 30825, Pitch_bend_c, 1, 8192
3, 30840, Pitch_bend_c, 1, 12288
3, 30855, Pitch_bend_c, 1, 8192
3, 30870, Pitch_bend_c, 1, 12288
3, 30885, Pitch_bend_c, 1, 8192
3, 30900, Pitch_bend_c, 1, 12288
3, 30915, Pitch_bend_c, 1, 8192
3, 30930, Pitch_bend_c, 1, 12288
3, 30945, Pitch_bend_c, 1, 8192
3, 30960, Note_on_c, 1, 80, 0
3, 30960, Note_on_c, 1, 80, 84
3, 30990, Note_on_c, 1, 81, 84
3, 30995, Note_on_c, 1, 80, 0
3, 31020, Note_on_c, 1, 81, 0
3, 31020, Note_on_c, 1, 80, 84
3, 31050, Note_on_c, 1, 81, 84
3, 31055, Note_on_c, 1, 80, 0
3, 31080, Note_on_c, 1, 81, 0
3, 31080, Note_on_c, 1, 80, 84
3, 31110, Note_on_c, 1, 81, 84
3, 31115, Note_on_c, 1, 80, 0
3, 31140, Note_on_c, 1, 81, 0
3, 31140, Note_on_c, 1, 80, 84
3, 31170, Note_on_c, 1, 81, 84
3, 31175, Note_on_c, 1, 80, 0
3, 31199, Note_on_c, 1, 81, 0
3, 31199, Pitch_bend_c, 1, 12288
3, 31200, Note_on_c, 1, 80, 84
3, 31215, Pitch_bend_c, 1, 8192
3, 31230, Pitch_bend_c, 1, 12288
3, 31245, Pitch_bend_c, 1, 8192
3, 31260, Pitch_bend_c, 1, 12288
3, 31275, Pitch_bend_c, 1, 8192
3, 31290, Pitch_bend_c, 1, 12288
3, 31305, Pitch_bend_c, 1, 8192
3, 31320, Pitch_bend_c, 1, 12288
3, 31335, Pitch_bend_c, 1, 8192
3, 31350, Pitch_bend_c, 1, 12288
3, 31365, Pitch_bend_c, 1, 8192
3, 31380, Pitch_bend_c, 1, 12288
3, 31395, Pitch_bend_c, 1, 8192
3, 31410, Pitch_bend_c, 1, 12288
3, 31425, Pitch_bend_c, 1, 8192
3, 31440, Note_on_c, 1, 80, 0
3, 31440, Note_on_c, 1, 81, 84
3, 31455, Note_on_c, 1, 80, 84
3, 31460, Note_on_c, 1, 81, 0
3, 31470, Note_on_c, 1, 81, 84
3, 31475, Note_on_c, 1, 80, 0
3, 31485, Note_on_c, 1, 80, 84
3, 31490, Note_on_c, 1, 81, 0
3, 31500, Note_on_c, 1, 81, 84
3, 31505, Note_on_c, 1, 80, 0
3, 31515, Note_on_c, 1, 80, 84
3, 31520, Note_on_c, 1, 81, 0
3, 31530, Note_on_c, 1, 81, 84
3, 31535, Note_on_c, 1, 80, 0
3, 31545, Note_on_c, 1, 80, 84
3, 31550, Note_on_c, 1, 81, 0
3, 31560, Note_on_c, 1, 81, 84
3, 31565, Note_on_c, 1, 80, 0
3, 31575, Note_on_c, 1, 80, 84
3, 31580, Note_on_c, 1, 81, 0
3, 31590, Note_on_c, 1, 81, 84
3, 31595, Note_on_c, 1, 80, 0
3, 31605, Note_on_c, 1, 80, 84
3, 31610, Note_on_c, 1, 81, 0
3, 31620, Note_on_c, 1, 81, 84
3, 31625, Note_on_c, 1, 80, 0
3, 31635, Note_on_c, 1, 80, 84
3, 31640, Note_on_c, 1, 81, 0
3, 31650, Note_on_c, 1, 81, 84
3, 31655, Note_on_c, 1, 80, 0
3, 31665, Note_on_c, 1, 80, 84
3, 31670, Note_on_c, 1, 81, 0
3, 31680, Note_on_c, 1, 80, 0
3, 31680, Note_on_c, 1, 80, 84
3, 31735, Note_on_c, 1, 80, 0
3, 31740, Note_on_c, 1, 80, 84
3, 31795, Note_on_c, 1, 80, 0
3, 31800, Note_on_c, 1, 80, 84
3, 31855, Note_on_c, 1, 80, 0
3, 31860, Note_on_c, 1, 78, 84
3, 31890, Note_on_c, 1, 80, 84
3, 31895, Note_on_c, 1, 78, 0
3, 31920, Note_on_c, 1, 80, 0
3, 31920, Note_on_c, 1, 81, 84
3, 32095, Note_on_c, 1, 81, 0
3, 32100, Note_on_c, 1, 81, 84
3, 32130, Note_on_c, 1, 80, 84
3, 32135, Note_on_c, 1, 81, 0
3, 32160, Note_on_c, 1, 80, 0
3, 32160, Note_on_c, 1, 78, 84
3, 32215, Note_on_c, 1, 78, 0
3, 32220, Note_on_c, 1, 78, 84
3, 32275, Note_on_c, 1, 78, 0
3, 32280, Note_on_c, 1, 78, 84
3, 32335, Note_on_c, 1, 78, 0
3, 32340, Note_on_c, 1, 76, 84
3, 32370, Note_on_c, 1, 78, 84
3, 32375, Note_on_c, 1, 76, 0
3, 32400, Note_on_c, 1, 78, 0
3, 32400, Note_on_c, 1, 80, 84
3, 32575, Note_on_c, 1, 80, 0
3, 32580, Note_on_c, 1, 80, 84
3, 32610, Note_on_c, 1, 81, 84
3, 32615, Note_on_c, 1, 80, 0
3, 32640, Note_on_c, 1, 81, 0
3, 32640, Note_on_c, 1, 83, 84
3, 32695, Note_on_c, 1, 83, 0
3, 32700, Note_on_c, 1, 83, 84
3, 32755, Note_on_c, 1, 83, 0
3, 32760, Note_on_c, 1, 83, 84
3, 32815, Note_on_c, 1, 83, 0
3, 32820, Note_on_c, 1, 83, 84
3, 32850, Note_on_c, 1, 81, 84
3, 32855, Note_on_c, 1, 83, 0
3, 32880, Note_on_c, 1, 81, 0
3, 32880, Note_on_c, 1, 80, 84
3, 32935, Note_on_c, 1, 80, 0
3, 32940, Note_on_c, 1, 80, 84
3, 32995, Note_on_c, 1, 80, 0
3, 33000, Note_on_c, 1, 80, 84
3, 33055, Note_on_c, 1, 80, 0
3, 33060, Note_on_c, 1, 80, 84
3, 33090, Note_on_c, 1, 81, 84
3, 33095, Note_on_c, 1, 80, 0
3, 33120, Note_on_c, 1, 81, 0
3, 33120, Note_on_c, 1, 83, 84
3, 33175, Note_on_c, 1, 83, 0
3, 33180, Note_on_c, 1, 83, 84
3, 33235, Note_on_c, 1, 83, 0
3, 33240, Note_on_c, 1, 83, 84
3, 33295, Note_on_c, 1, 83, 0
3, 33300, Note_on_c, 1, 83, 84
3, 33330, Note_on_c, 1, 81, 84
3, 33335, Note_on_c, 1, 83, 0
3, 33360, Note_on_c, 1, 81, 0
3, 33360, Note_on_c, 1, 80, 84
3, 33415, Note_on_c, 1, 80, 0
3, 33420, Note_on_c, 1, 80, 84
3, 33475, Note_on_c, 1, 80, 0
3, 33480, Note_on_c, 1, 80, 84
3, 33535, Note_on_c, 1, 80, 0
3, 33540, Note_on_c, 1, 80, 84
3, 33570, Note_on_c, 1, 81, 84
3, 33575, Note_on_c, 1, 80, 0
3, 33600, Note_on_c, 1, 81, 0
3, 33600, Note_on_c, 1, 83, 84
3, 33655, Note_on_c, 1, 83, 0
3, 33660, Note_on_c, 1, 83, 84
3, 33715, Note_on_c, 1, 83, 0
3, 33720, Note_on_c, 1, 83, 84
3, 33775, Note_on_c, 1, 83, 0
3, 33780, Note_on_c, 1, 81, 84
3, 33810, Note_on_c, 1, 80, 84
3, 33815, Note_on_c, 1, 81, 0
3, 33840, Note_on_c, 1, 80, 0
3, 33840, Note_on_c, 1, 78, 84
3, 33955, Note_on_c, 1, 78, 0
3, 36480, Note_on_c, 1, 83, 84
3, 36535, Note_on_c, 1, 83, 0
3, 36540, Note_on_c, 1, 81, 84
3, 36570, Note_on_c, 1, 80, 84
3, 36575, Note_on_c, 1, 81, 0
3, 36600, Note_on_c, 1, 80, 0
3, 36600, Note_on_c, 1, 81, 84
3, 36655, Note_on_c, 1, 81, 0
3, 36660, Note_on_c, 1, 83, 84
3, 36715, Note_on_c, 1, 83, 0
3, 36720, Note_on_c, 1, 85, 84
3, 36775, Note_on_c, 1, 85, 0
3, 36780, Note_on_c, 1, 83, 84
3, 36895, Note_on_c, 1, 83, 0
3, 36900, Note_on_c, 1, 76, 84
3, 36955, Note_on_c, 1, 76, 0
3, 36960, Note_on_c, 1, 83, 84
3, 37015, Note_on_c, 1, 83, 0
3, 37020, Note_on_c, 1, 81, 84
3, 37050, Note_on_c, 1, 80, 84
3, 37055, Note_on_c, 1, 81, 0
3, 37080, Note_on_c, 1, 80, 0
3, 37080, Note_on_c, 1, 81, 84
3, 37135, Note_on_c, 1, 81, 0
3, 37140, Note_on_c, 1, 83, 84
3, 37195, Note_on_c, 1, 83, 0
3, 37200, Note_on_c, 1, 85, 84
3, 37255, Note_on_c, 1, 85, 0
3, 37260, Note_on_c, 1, 83, 84
3, 37375, Note_on_c, 1, 83, 0
3, 37380, Note_on_c, 1, 76, 84
3, 37435, Note_on_c, 1, 76, 0
3, 37440, Note_on_c, 1, 85, 84
3, 37495, Note_on_c, 1, 85, 0
3, 37500, Note_on_c, 1, 83, 84
3, 37615, Note_on_c, 1, 83, 0
3, 37620, Note_on_c, 1, 81, 84
3, 37675, Note_on_c, 1, 81, 0
3, 37680, Note_on_c, 1, 80, 84
3, 37735, Note_on_c, 1, 80, 0
3, 37740, Note_on_c, 1, 78, 84
3, 37770, Note_on_c, 1, 76, 84
3, 37775, Note_on_c, 1, 78, 0
3, 37799, Note_on_c, 1, 76, 0
3, 37799, Pitch_bend_c, 1, 16383
3, 37800, Note_on_c, 1, 78, 84
3, 37815, Pitch_bend_c, 1, 8192
3, 37830, Pitch_bend_c, 1, 16383
3, 37845, Pitch_bend_c, 1, 8192
3, 37860, Pitch_bend_c, 1, 16383
3, 37875, Pitch_bend_c, 1, 8192
3, 37890, Pitch_bend_c, 1, 16383
3, 37905, Pitch_bend_c, 1, 8192
3, 37920, Note_on_c, 1, 78, 0
3, 37920, Note_on_c, 1, 76, 84
3, 38035, Note_on_c, 1, 76, 0
3, 38100, Note_on_c, 1, 76, 84
3, 38155, Note_on_c, 1, 76, 0
3, 38160, Note_on_c, 1, 83, 84
3, 38215, Note_on_c, 1, 83, 0
3, 38220, Note_on_c, 1, 81, 84
3, 38250, Note_on_c, 1, 80, 84
3, 38255, Note_on_c, 1, 81, 0
3, 38280, Note_on_c, 1, 80, 0
3, 38280, Note_on_c, 1, 81, 84
3, 38335, Note_on_c, 1, 81, 0
3, 38340, Note_on_c, 1, 83, 84
3, 38395, Note_on_c, 1, 83, 0
3, 38400, Note_on_c, 1, 85, 84
3, 38455, Note_on_c, 1, 85, 0
3, 38460, Note_on_c, 1, 83, 84
3, 38575, Note_on_c, 1, 83, 0
3, 38580, Note_on_c, 1, 76, 84
3, 38635, Note_on_c, 1, 76, 0
3, 38640, Note_on_c, 1, 83, 84
3, 38695, Note_on_c, 1, 83, 0
3, 38700, Note_on_c, 1, 81, 84
3, 38730, Note_on_c, 1, 80, 84
3, 38735, Note_on_c, 1, 81, 0
3, 38760, Note_on_c, 1, 81, 84
3, 38761, Note_on_c, 1, 80, 0
3, 38815, Note_on_c, 1, 81, 0
3, 38820, Note_on_c, 1, 83, 84
3, 38875, Note_on_c, 1, 83, 0
3, 38880, Note_on_c, 1, 85, 84
3, 38935, Note_on_c, 1, 85, 0
3, 38940, Note_on_c, 1, 83, 84
3, 39055, Note_on_c, 1, 83, 0
3, 39060, Note_on_c, 1, 76, 84
3, 39115, Note_on_c, 1, 76, 0
3, 39120, Note_on_c, 1, 85, 84
3, 39175, Note_on_c, 1, 85, 0
3, 39180, Note_on_c, 1, 83, 84
3, 39295, Note_on_c, 1, 83, 0
3, 39300, Note_on_c, 1, 81, 84
3, 39355, Note_on_c, 1, 81, 0
3, 39360, Note_on_c, 1, 80, 84
3, 39415, Note_on_c, 1, 80, 0
3, 39420, Note_on_c, 1, 78, 84
3, 39450, Note_on_c, 1, 76, 84
3, 39455, Note_on_c, 1, 78, 0
3, 39479, Note_on_c, 1, 76, 0
3, 39479, Pitch_bend_c, 1, 16383
3, 39480, Note_on_c, 1, 78, 84
3, 39495, Pitch_bend_c, 1, 8192
3, 39510, Pitch_bend_c, 1, 16383
3, 39525, Pitch_bend_c, 1, 8192
3, 39540, Pitch_bend_c, 1, 16383
3, 39555, Pitch_bend_c, 1, 8192
3, 39570, Pitch_bend_c, 1, 16383
3, 39585, Pitch_bend_c, 1, 8192
3, 39600, Note_on_c, 1, 78, 0
3, 39600, Note_on_c, 1, 76, 84
3, 39835, Note_on_c, 1, 76, 0
3, 40080, Program_c, 1, 0
3, 40080, Control_c, 1, 7, 100
3, 40080, Control_c, 1, 10, 64
3, 40080, Control_c, 1, 93, 0
3, 40080, Control_c, 1, 91, 40
3, 40081, Text_t, "Non Registered Parameter Numbers"
3, 40081, Text_t, "For Roland SC-55 Vibrato"
3, 40081, Text_t, "Set up NRPN for Vibrate Rate"
3, 40082, Control_c, 1, 99, 1
3, 40083, Control_c, 1, 98, 8
3, 40084, Text_t, "Data Entry Command"
3, 40084, Control_c, 1, 6, 64
3, 40085, Text_t, "Set up NRPN for Vibrate Delay"
3, 40086, Control_c, 1, 99, 1
3, 40087, Control_c, 1, 98, 10
3, 40088, Text_t, "Data Entry Command"
3, 40088, Control_c, 1, 6, 64
3, 40089, Text_t, "Set up NRPN for Vibrate Depth"
3, 40090, Control_c, 1, 99, 1
3, 40091, Control_c, 1, 98, 9
3, 40092, Text_t, "Data Entry Command; Vibrato ON"
3, 40093, Control_c, 1, 6, 64
3, 40094, Pitch_bend_c, 1, 8192
3, 40094, End_track
4, 0, Start_track
4, 0, MIDI_port, 0
4, 0, Title_t, "Violin III"
4, 0, Program_c, 2, 40
4, 0, Control_c, 2, 7, 93
4, 0, Control_c, 2, 10, 110
4, 0, Control_c, 2, 93, 0
4, 0, Control_c, 2, 91, 120
4, 1, Text_t, "Non Registered Parameter Numbers"
4, 1, Text_t, "For Roland SC-55 Vibrato"
4, 1, Text_t, "Set up NRPN for Vibrate Rate"
4, 2, Control_c, 2, 99, 1
4, 3, Control_c, 2, 98, 8
4, 4, Text_t, "Data Entry Command"
4, 4, Control_c, 2, 6, 67
4, 5, Text_t, "Set up NRPN for Vibrate Delay"
4, 6, Control_c, 2, 99, 1
4, 7, Control_c, 2, 98, 10
4, 8, Text_t, "Data Entry Command"
4, 8, Control_c, 2, 6, 14
4, 9, Text_t, "Set up NRPN for Vibrate Depth"
4, 10, Control_c, 2, 99, 1
4, 11, Control_c, 2, 98, 9
4, 12, Text_t, "Data Entry Command; Vibrato ON"
4, 12, Control_c, 2, 6, 64
4, 13, Pitch_bend_c, 2, 8192
4, 420, Note_on_c, 2, 71, 84
4, 480, Note_on_c, 2, 71, 0
4, 480, Note_on_c, 2, 71, 84
4, 540, Note_on_c, 2, 71, 0
4, 540, Note_on_c, 2, 71, 84
4, 600, Note_on_c, 2, 71, 0
4, 600, Note_on_c, 2, 71, 84
4, 660, Note_on_c, 2, 71, 0
4, 660, Note_on_c, 2, 71, 84
4, 720, Note_on_c, 2, 71, 0
4, 720, Control_c, 2, 6, 70
4, 720, Note_on_c, 2, 80, 84
4, 895, Note_on_c, 2, 80, 0
4, 896, Control_c, 2, 6, 64
4, 900, Note_on_c, 2, 80, 84
4, 930, Note_on_c, 2, 78, 84
4, 935, Note_on_c, 2, 80, 0
4, 955, Note_on_c, 2, 78, 0
4, 960, Note_on_c, 2, 76, 84
4, 1015, Note_on_c, 2, 76, 0
4, 1020, Note_on_c, 2, 76, 84
4, 1075, Note_on_c, 2, 76, 0
4, 1080, Note_on_c, 2, 76, 84
4, 1135, Note_on_c, 2, 76, 0
4, 1140, Note_on_c, 2, 76, 84
4, 1195, Note_on_c, 2, 76, 0
4, 1200, Control_c, 2, 6, 70
4, 1200, Note_on_c, 2, 80, 84
4, 1375, Note_on_c, 2, 80, 0
4, 1376, Control_c, 2, 6, 64
4, 1380, Note_on_c, 2, 80, 84
4, 1410, Note_on_c, 2, 78, 84
4, 1415, Note_on_c, 2, 80, 0
4, 1435, Note_on_c, 2, 78, 0
4, 1440, Note_on_c, 2, 76, 84
4, 1500, Note_on_c, 2, 76, 0
4, 1500, Note_on_c, 2, 78, 84
4, 1525, Note_on_c, 2, 78, 0
4, 1530, Note_on_c, 2, 80, 84
4, 1555, Note_on_c, 2, 80, 0
4, 1560, Note_on_c, 2, 78, 84
4, 1620, Note_on_c, 2, 78, 0
4, 1620, Note_on_c, 2, 76, 84
4, 1675, Note_on_c, 2, 76, 0
4, 1680, Control_c, 2, 6, 70
4, 1680, Note_on_c, 2, 75, 84
4, 1800, Note_on_c, 2, 75, 0
4, 1800, Control_c, 2, 6, 64
4, 1860, Note_on_c, 2, 71, 65
4, 1915, Note_on_c, 2, 71, 0
4, 1920, Note_on_c, 2, 71, 65
4, 1975, Note_on_c, 2, 71, 0
4, 1980, Note_on_c, 2, 71, 65
4, 2035, Note_on_c, 2, 71, 0
4, 2040, Note_on_c, 2, 71, 65
4, 2095, Note_on_c, 2, 71, 0
4, 2100, Note_on_c, 2, 71, 65
4, 2155, Note_on_c, 2, 71, 0
4, 2160, Control_c, 2, 6, 70
4, 2160, Note_on_c, 2, 80, 65
4, 2335, Note_on_c, 2, 80, 0
4, 2336, Control_c, 2, 6, 64
4, 2340, Note_on_c, 2, 80, 65
4, 2370, Note_on_c, 2, 78, 65
4, 2375, Note_on_c, 2, 80, 0
4, 2395, Note_on_c, 2, 78, 0
4, 2400, Note_on_c, 2, 76, 65
4, 2455, Note_on_c, 2, 76, 0
4, 2460, Note_on_c, 2, 76, 65
4, 2515, Note_on_c, 2, 76, 0
4, 2520, Note_on_c, 2, 76, 65
4, 2575, Note_on_c, 2, 76, 0
4, 2580, Note_on_c, 2, 76, 65
4, 2635, Note_on_c, 2, 76, 0
4, 2640, Control_c, 2, 6, 70
4, 2640, Note_on_c, 2, 80, 65
4, 2815, Note_on_c, 2, 80, 0
4, 2816, Control_c, 2, 6, 64
4, 2820, Note_on_c, 2, 80, 65
4, 2850, Note_on_c, 2, 78, 65
4, 2855, Note_on_c, 2, 80, 0
4, 2875, Note_on_c, 2, 78, 0
4, 2880, Note_on_c, 2, 76, 65
4, 2935, Note_on_c, 2, 76, 0
4, 2940, Note_on_c, 2, 78, 65
4, 2970, Note_on_c, 2, 80, 65
4, 2975, Note_on_c, 2, 78, 0
4, 2995, Note_on_c, 2, 80, 0
4, 3000, Note_on_c, 2, 78, 65
4, 3055, Note_on_c, 2, 78, 0
4, 3060, Note_on_c, 2, 76, 65
4, 3115, Note_on_c, 2, 76, 0
4, 3120, Control_c, 2, 6, 70
4, 3120, Note_on_c, 2, 75, 65
4, 3240, Note_on_c, 2, 75, 0
4, 3240, Control_c, 2, 6, 64
4, 3300, Note_on_c, 2, 80, 84
4, 3355, Note_on_c, 2, 80, 0
4, 3360, Note_on_c, 2, 80, 84
4, 3415, Note_on_c, 2, 80, 0
4, 3420, Note_on_c, 2, 78, 84
4, 3450, Note_on_c, 2, 76, 84
4, 3455, Note_on_c, 2, 78, 0
4, 3475, Note_on_c, 2, 76, 0
4, 3480, Note_on_c, 2, 78, 84
4, 3535, Note_on_c, 2, 78, 0
4, 3540, Note_on_c, 2, 80, 84
4, 3595, Note_on_c, 2, 80, 0
4, 3600, Note_on_c, 2, 81, 84
4, 3655, Note_on_c, 2, 81, 0
4, 3660, Control_c, 2, 6, 70
4, 3660, Note_on_c, 2, 80, 84
4, 3779, Control_c, 2, 6, 64
4, 3780, Note_on_c, 2, 80, 0
4, 3780, Note_on_c, 2, 80, 84
4, 3835, Note_on_c, 2, 80, 0
4, 3840, Note_on_c, 2, 80, 84
4, 3895, Note_on_c, 2, 80, 0
4, 3900, Note_on_c, 2, 78, 84
4, 3930, Note_on_c, 2, 76, 84
4, 3935, Note_on_c, 2, 78, 0
4, 3955, Note_on_c, 2, 76, 0
4, 3960, Note_on_c, 2, 78, 84
4, 4015, Note_on_c, 2, 78, 0
4, 4020, Note_on_c, 2, 80, 84
4, 4075, Note_on_c, 2, 80, 0
4, 4080, Note_on_c, 2, 81, 84
4, 4135, Note_on_c, 2, 81, 0
4, 4140, Control_c, 2, 6, 70
4, 4140, Note_on_c, 2, 80, 84
4, 4259, Control_c, 2, 6, 64
4, 4260, Note_on_c, 2, 80, 0
4, 4260, Note_on_c, 2, 80, 84
4, 4315, Note_on_c, 2, 80, 0
4, 4320, Note_on_c, 2, 85, 84
4, 4375, Note_on_c, 2, 85, 0
4, 4380, Control_c, 2, 6, 70
4, 4380, Note_on_c, 2, 83, 84
4, 4499, Control_c, 2, 6, 64
4, 4500, Note_on_c, 2, 83, 0
4, 4500, Note_on_c, 2, 81, 84
4, 4555, Note_on_c, 2, 81, 0
4, 4560, Control_c, 2, 6, 70
4, 4560, Note_on_c, 2, 80, 84
4, 4680, Note_on_c, 2, 80, 0
4, 4680, Note_on_c, 2, 75, 84
4, 4800, Note_on_c, 2, 75, 0
4, 4800, Note_on_c, 2, 76, 84
4, 4920, Note_on_c, 2, 76, 0
4, 4920, Control_c, 2, 6, 64
4, 4980, Note_on_c, 2, 80, 65
4, 5035, Note_on_c, 2, 80, 0
4, 5040, Note_on_c, 2, 80, 65
4, 5095, Note_on_c, 2, 80, 0
4, 5100, Note_on_c, 2, 78, 65
4, 5130, Note_on_c, 2, 76, 65
4, 5135, Note_on_c, 2, 78, 0
4, 5155, Note_on_c, 2, 76, 0
4, 5160, Note_on_c, 2, 78, 65
4, 5215, Note_on_c, 2, 78, 0
4, 5220, Note_on_c, 2, 80, 65
4, 5275, Note_on_c, 2, 80, 0
4, 5280, Note_on_c, 2, 81, 65
4, 5335, Note_on_c, 2, 81, 0
4, 5340, Control_c, 2, 6, 70
4, 5340, Note_on_c, 2, 80, 65
4, 5459, Control_c, 2, 6, 64
4, 5460, Note_on_c, 2, 80, 0
4, 5460, Note_on_c, 2, 80, 65
4, 5515, Note_on_c, 2, 80, 0
4, 5520, Note_on_c, 2, 80, 65
4, 5575, Note_on_c, 2, 80, 0
4, 5580, Note_on_c, 2, 78, 65
4, 5610, Note_on_c, 2, 76, 65
4, 5615, Note_on_c, 2, 78, 0
4, 5635, Note_on_c, 2, 76, 0
4, 5640, Note_on_c, 2, 78, 65
4, 5695, Note_on_c, 2, 78, 0
4, 5700, Note_on_c, 2, 80, 65
4, 5755, Note_on_c, 2, 80, 0
4, 5760, Note_on_c, 2, 81, 65
4, 5815, Note_on_c, 2, 81, 0
4, 5820, Control_c, 2, 6, 70
4, 5820, Note_on_c, 2, 80, 65
4, 5939, Control_c, 2, 6, 64
4, 5940, Note_on_c, 2, 80, 0
4, 5940, Note_on_c, 2, 80, 65
4, 5995, Note_on_c, 2, 80, 0
4, 6000, Note_on_c, 2, 81, 65
4, 6055, Note_on_c, 2, 81, 0
4, 6060, Control_c, 2, 6, 70
4, 6060, Note_on_c, 2, 80, 65
4, 6179, Control_c, 2, 6, 64
4, 6180, Note_on_c, 2, 80, 0
4, 6180, Note_on_c, 2, 78, 65
4, 6235, Note_on_c, 2, 78, 0
4, 6240, Control_c, 2, 6, 70
4, 6240, Note_on_c, 2, 76, 65
4, 6360, Note_on_c, 2, 76, 0
4, 6360, Note_on_c, 2, 75, 65
4, 6480, Note_on_c, 2, 75, 0
4, 6480, Note_on_c, 2, 76, 65
4, 6600, Note_on_c, 2, 76, 0
4, 6600, Control_c, 2, 6, 64
4, 6750, Note_on_c, 2, 81, 65
4, 6780, Note_on_c, 2, 81, 0
4, 6780, Note_on_c, 2, 80, 65
4, 6810, Note_on_c, 2, 80, 0
4, 6810, Note_on_c, 2, 81, 65
4, 6840, Note_on_c, 2, 81, 0
4, 6840, Control_c, 2, 6, 70
4, 6840, Note_on_c, 2, 80, 65
4, 6955, Note_on_c, 2, 80, 0
4, 6956, Control_c, 2, 6, 64
4, 6990, Note_on_c, 2, 81, 65
4, 7020, Note_on_c, 2, 81, 0
4, 7020, Note_on_c, 2, 80, 65
4, 7050, Note_on_c, 2, 80, 0
4, 7050, Note_on_c, 2, 81, 65
4, 7080, Note_on_c, 2, 81, 0
4, 7080, Control_c, 2, 6, 70
4, 7080, Note_on_c, 2, 80, 65
4, 7195, Note_on_c, 2, 80, 0
4, 7196, Control_c, 2, 6, 64
4, 7260, Note_on_c, 2, 83, 65
4, 7275, Note_on_c, 2, 81, 65
4, 7280, Note_on_c, 2, 83, 0
4, 7290, Note_on_c, 2, 80, 65
4, 7295, Note_on_c, 2, 81, 0
4, 7305, Note_on_c, 2, 78, 65
4, 7310, Note_on_c, 2, 80, 0
4, 7320, Control_c, 2, 6, 70
4, 7320, Note_on_c, 2, 76, 65
4, 7325, Note_on_c, 2, 78, 0
4, 7435, Note_on_c, 2, 76, 0
4, 7436, Control_c, 2, 6, 64
4, 7500, Note_on_c, 2, 83, 65
4, 7515, Note_on_c, 2, 81, 65
4, 7520, Note_on_c, 2, 83, 0
4, 7530, Note_on_c, 2, 80, 65
4, 7535, Note_on_c, 2, 81, 0
4, 7545, Note_on_c, 2, 78, 65
4, 7550, Note_on_c, 2, 80, 0
4, 7560, Control_c, 2, 6, 70
4, 7560, Note_on_c, 2, 76, 65
4, 7565, Note_on_c, 2, 78, 0
4, 7675, Note_on_c, 2, 76, 0
4, 7676, Control_c, 2, 6, 64
4, 7710, Note_on_c, 2, 81, 65
4, 7740, Note_on_c, 2, 81, 0
4, 7740, Note_on_c, 2, 80, 65
4, 7770, Note_on_c, 2, 80, 0
4, 7770, Note_on_c, 2, 81, 65
4, 7800, Note_on_c, 2, 81, 0
4, 7800, Control_c, 2, 6, 70
4, 7800, Note_on_c, 2, 80, 65
4, 7915, Note_on_c, 2, 80, 0
4, 7916, Control_c, 2, 6, 64
4, 7950, Note_on_c, 2, 81, 65
4, 7980, Note_on_c, 2, 81, 0
4, 7980, Note_on_c, 2, 80, 65
4, 8010, Note_on_c, 2, 80, 0
4, 8010, Note_on_c, 2, 81, 65
4, 8040, Note_on_c, 2, 81, 0
4, 8040, Control_c, 2, 6, 70
4, 8040, Note_on_c, 2, 80, 65
4, 8155, Note_on_c, 2, 80, 0
4, 8156, Control_c, 2, 6, 64
4, 8460, Note_on_c, 2, 83, 65
4, 8475, Note_on_c, 2, 81, 65
4, 8480, Note_on_c, 2, 83, 0
4, 8490, Note_on_c, 2, 80, 65
4, 8495, Note_on_c, 2, 81, 0
4, 8505, Note_on_c, 2, 78, 65
4, 8510, Note_on_c, 2, 80, 0
4, 8520, Control_c, 2, 6, 70
4, 8520, Note_on_c, 2, 76, 65
4, 8525, Note_on_c, 2, 78, 0
4, 8635, Note_on_c, 2, 76, 0
4, 8636, Control_c, 2, 6, 64
4, 8700, Note_on_c, 2, 83, 65
4, 8715, Note_on_c, 2, 81, 65
4, 8720, Note_on_c, 2, 83, 0
4, 8730, Note_on_c, 2, 80, 65
4, 8735, Note_on_c, 2, 81, 0
4, 8745, Note_on_c, 2, 78, 65
4, 8750, Note_on_c, 2, 80, 0
4, 8760, Control_c, 2, 6, 70
4, 8760, Note_on_c, 2, 76, 65
4, 8765, Note_on_c, 2, 78, 0
4, 8875, Note_on_c, 2, 76, 0
4, 8876, Control_c, 2, 6, 64
4, 8940, Note_on_c, 2, 83, 65
4, 8955, Note_on_c, 2, 81, 65
4, 8960, Note_on_c, 2, 83, 0
4, 8970, Note_on_c, 2, 80, 65
4, 8975, Note_on_c, 2, 81, 0
4, 8985, Note_on_c, 2, 78, 65
4, 8990, Note_on_c, 2, 80, 0
4, 9000, Control_c, 2, 6, 70
4, 9000, Note_on_c, 2, 76, 65
4, 9005, Note_on_c, 2, 78, 0
4, 9115, Note_on_c, 2, 76, 0
4, 9116, Control_c, 2, 6, 64
4, 9360, Note_on_c, 2, 80, 65
4, 9450, Note_on_c, 2, 80, 0
4, 9450, Note_on_c, 2, 81, 65
4, 9480, Note_on_c, 2, 80, 65
4, 9485, Note_on_c, 2, 81, 0
4, 9570, Note_on_c, 2, 80, 0
4, 9570, Note_on_c, 2, 81, 65
4, 9600, Note_on_c, 2, 80, 65
4, 9605, Note_on_c, 2, 81, 0
4, 9690, Note_on_c, 2, 80, 0
4, 9690, Note_on_c, 2, 81, 65
4, 9720, Note_on_c, 2, 80, 65
4, 9725, Note_on_c, 2, 81, 0
4, 9810, Note_on_c, 2, 80, 0
4, 9810, Note_on_c, 2, 81, 65
4, 9840, Note_on_c, 2, 80, 65
4, 9845, Note_on_c, 2, 81, 0
4, 9870, Note_on_c, 2, 80, 0
4, 9870, Note_on_c, 2, 81, 65
4, 9900, Note_on_c, 2, 80, 65
4, 9905, Note_on_c, 2, 81, 0
4, 9930, Note_on_c, 2, 80, 0
4, 9930, Note_on_c, 2, 81, 65
4, 9960, Note_on_c, 2, 80, 65
4, 9965, Note_on_c, 2, 81, 0
4, 9990, Note_on_c, 2, 80, 0
4, 9990, Note_on_c, 2, 81, 65
4, 10020, Note_on_c, 2, 80, 65
4, 10025, Note_on_c, 2, 81, 0
4, 10050, Note_on_c, 2, 80, 0
4, 10050, Note_on_c, 2, 81, 65
4, 10079, Note_on_c, 2, 81, 0
4, 10079, Pitch_bend_c, 2, 12288
4, 10080, Note_on_c, 2, 80, 65
4, 10095, Pitch_bend_c, 2, 8192
4, 10110, Pitch_bend_c, 2, 12288
4, 10125, Pitch_bend_c, 2, 8192
4, 10140, Pitch_bend_c, 2, 12288
4, 10155, Pitch_bend_c, 2, 8192
4, 10170, Pitch_bend_c, 2, 12288
4, 10185, Pitch_bend_c, 2, 8192
4, 10200, Pitch_bend_c, 2, 12288
4, 10215, Pitch_bend_c, 2, 8192
4, 10230, Pitch_bend_c, 2, 12288
4, 10245, Pitch_bend_c, 2, 8192
4, 10260, Pitch_bend_c, 2, 12288
4, 10275, Pitch_bend_c, 2, 8192
4, 10290, Pitch_bend_c, 2, 12288
4, 10305, Pitch_bend_c, 2, 8192
4, 10320, Pitch_bend_c, 2, 12288
4, 10335, Pitch_bend_c, 2, 8192
4, 10350, Pitch_bend_c, 2, 12288
4, 10365, Pitch_bend_c, 2, 8192
4, 10380, Pitch_bend_c, 2, 12288
4, 10395, Pitch_bend_c, 2, 8192
4, 10410, Pitch_bend_c, 2, 12288
4, 10425, Pitch_bend_c, 2, 8192
4, 10440, Note_on_c, 2, 80, 0
4, 10559, Pitch_bend_c, 2, 12288
4, 10560, Note_on_c, 2, 80, 65
4, 10575, Pitch_bend_c, 2, 8192
4, 10590, Pitch_bend_c, 2, 12288
4, 10605, Pitch_bend_c, 2, 8192
4, 10620, Pitch_bend_c, 2, 12288
4, 10635, Pitch_bend_c, 2, 8192
4, 10650, Pitch_bend_c, 2, 12288
4, 10665, Note_on_c, 2, 80, 0
4, 10665, Pitch_bend_c, 2, 8192
4, 10799, Pitch_bend_c, 2, 12288
4, 10800, Note_on_c, 2, 80, 65
4, 10815, Pitch_bend_c, 2, 8192
4, 10830, Pitch_bend_c, 2, 12288
4, 10845, Pitch_bend_c, 2, 8192
4, 10860, Pitch_bend_c, 2, 12288
4, 10875, Pitch_bend_c, 2, 8192
4, 10890, Pitch_bend_c, 2, 12288
4, 10905, Note_on_c, 2, 80, 0
4, 11040, Note_on_c, 2, 80, 65
4, 11055, Pitch_bend_c, 2, 8192
4, 11070, Pitch_bend_c, 2, 12288
4, 11085, Pitch_bend_c, 2, 8192
4, 11100, Pitch_bend_c, 2, 12288
4, 11115, Pitch_bend_c, 2, 8192
4, 11130, Pitch_bend_c, 2, 12288
4, 11145, Note_on_c, 2, 80, 0
4, 11280, Note_on_c, 2, 80, 65
4, 11295, Pitch_bend_c, 2, 8192
4, 11310, Pitch_bend_c, 2, 12288
4, 11325, Pitch_bend_c, 2, 8192
4, 11340, Pitch_bend_c, 2, 8601
4, 11355, Pitch_bend_c, 2, 8192
4, 11370, Pitch_bend_c, 2, 12288
4, 11385, Note_on_c, 2, 80, 0
4, 11520, Note_on_c, 2, 80, 65
4, 11535, Pitch_bend_c, 2, 8192
4, 11550, Pitch_bend_c, 2, 12288
4, 11565, Pitch_bend_c, 2, 8192
4, 11580, Pitch_bend_c, 2, 12288
4, 11595, Pitch_bend_c, 2, 8192
4, 11610, Pitch_bend_c, 2, 12288
4, 11625, Note_on_c, 2, 80, 0
4, 11760, Note_on_c, 2, 80, 65
4, 11775, Pitch_bend_c, 2, 8192
4, 11790, Pitch_bend_c, 2, 12288
4, 11805, Pitch_bend_c, 2, 8192
4, 11820, Pitch_bend_c, 2, 12288
4, 11835, Pitch_bend_c, 2, 8192
4, 11850, Pitch_bend_c, 2, 12288
4, 11865, Note_on_c, 2, 80, 0
4, 12000, Note_on_c, 2, 80, 65
4, 12015, Pitch_bend_c, 2, 8192
4, 12030, Pitch_bend_c, 2, 12288
4, 12045, Pitch_bend_c, 2, 8192
4, 12060, Pitch_bend_c, 2, 12288
4, 12075, Pitch_bend_c, 2, 8192
4, 12090, Pitch_bend_c, 2, 12288
4, 12105, Note_on_c, 2, 80, 0
4, 12105, Pitch_bend_c, 2, 8192
4, 12240, Control_c, 2, 6, 70
4, 12240, Note_on_c, 2, 76, 65
4, 12389, Control_c, 2, 6, 64
4, 12390, Note_on_c, 2, 83, 65
4, 12420, Note_on_c, 2, 83, 0
4, 12420, Note_on_c, 2, 76, 65
4, 12450, Note_on_c, 2, 78, 65
4, 12455, Note_on_c, 2, 76, 0
4, 12475, Note_on_c, 2, 76, 0
4, 12480, Note_on_c, 2, 78, 0
4, 12480, Control_c, 2, 6, 70
4, 12480, Note_on_c, 2, 76, 65
4, 12629, Control_c, 2, 6, 64
4, 12630, Note_on_c, 2, 83, 65
4, 12660, Note_on_c, 2, 83, 0
4, 12660, Note_on_c, 2, 76, 65
4, 12690, Note_on_c, 2, 78, 65
4, 12695, Note_on_c, 2, 76, 0
4, 12715, Note_on_c, 2, 76, 0
4, 12720, Note_on_c, 2, 78, 0
4, 12720, Note_on_c, 2, 76, 65
4, 12750, Note_on_c, 2, 83, 65
4, 12755, Note_on_c, 2, 76, 0
4, 12780, Note_on_c, 2, 83, 0
4, 12780, Note_on_c, 2, 76, 65
4, 12810, Note_on_c, 2, 78, 65
4, 12815, Note_on_c, 2, 76, 0
4, 12840, Note_on_c, 2, 78, 0
4, 12840, Note_on_c, 2, 76, 65
4, 12870, Note_on_c, 2, 83, 65
4, 12875, Note_on_c, 2, 76, 0
4, 12900, Note_on_c, 2, 83, 0
4, 12900, Note_on_c, 2, 76, 65
4, 12930, Note_on_c, 2, 78, 65
4, 12935, Note_on_c, 2, 76, 0
4, 12960, Note_on_c, 2, 78, 0
4, 12960, Note_on_c, 2, 76, 65
4, 12990, Note_on_c, 2, 83, 65
4, 12995, Note_on_c, 2, 76, 0
4, 13020, Note_on_c, 2, 83, 0
4, 13020, Note_on_c, 2, 76, 65
4, 13050, Note_on_c, 2, 78, 65
4, 13055, Note_on_c, 2, 76, 0
4, 13080, Note_on_c, 2, 78, 0
4, 13080, Note_on_c, 2, 76, 65
4, 13110, Note_on_c, 2, 83, 65
4, 13115, Note_on_c, 2, 76, 0
4, 13140, Note_on_c, 2, 83, 0
4, 13140, Note_on_c, 2, 76, 65
4, 13170, Note_on_c, 2, 78, 65
4, 13175, Note_on_c, 2, 76, 0
4, 13200, Note_on_c, 2, 78, 0
4, 13200, Control_c, 2, 6, 70
4, 13200, Note_on_c, 2, 76, 65
4, 13315, Note_on_c, 2, 76, 0
4, 13316, Control_c, 2, 6, 64
4, 13380, Note_on_c, 2, 76, 84
4, 13435, Note_on_c, 2, 76, 0
4, 13440, Note_on_c, 2, 80, 84
4, 13495, Note_on_c, 2, 80, 0
4, 13500, Note_on_c, 2, 78, 84
4, 13530, Note_on_c, 2, 76, 84
4, 13535, Note_on_c, 2, 78, 0
4, 13555, Note_on_c, 2, 76, 0
4, 13560, Note_on_c, 2, 78, 84
4, 13615, Note_on_c, 2, 78, 0
4, 13620, Note_on_c, 2, 80, 84
4, 13675, Note_on_c, 2, 80, 0
4, 13680, Note_on_c, 2, 81, 84
4, 13735, Note_on_c, 2, 81, 0
4, 13740, Control_c, 2, 6, 70
4, 13740, Note_on_c, 2, 80, 84
4, 13855, Note_on_c, 2, 80, 0
4, 13859, Control_c, 2, 6, 64
4, 13860, Note_on_c, 2, 80, 84
4, 13915, Note_on_c, 2, 80, 0
4, 13920, Note_on_c, 2, 80, 84
4, 13975, Note_on_c, 2, 80, 0
4, 13980, Note_on_c, 2, 78, 84
4, 14010, Note_on_c, 2, 76, 84
4, 14015, Note_on_c, 2, 78, 0
4, 14035, Note_on_c, 2, 76, 0
4, 14040, Note_on_c, 2, 78, 84
4, 14095, Note_on_c, 2, 78, 0
4, 14100, Note_on_c, 2, 80, 84
4, 14155, Note_on_c, 2, 80, 0
4, 14160, Note_on_c, 2, 81, 84
4, 14215, Note_on_c, 2, 81, 0
4, 14220, Control_c, 2, 6, 70
4, 14220, Note_on_c, 2, 80, 84
4, 14335, Note_on_c, 2, 80, 0
4, 14339, Control_c, 2, 6, 64
4, 14340, Note_on_c, 2, 80, 84
4, 14395, Note_on_c, 2, 80, 0
4, 14400, Note_on_c, 2, 81, 84
4, 14455, Note_on_c, 2, 81, 0
4, 14460, Control_c, 2, 6, 70
4, 14460, Note_on_c, 2, 80, 84
4, 14575, Note_on_c, 2, 80, 0
4, 14579, Control_c, 2, 6, 64
4, 14580, Note_on_c, 2, 78, 84
4, 14635, Note_on_c, 2, 78, 0
4, 14640, Control_c, 2, 6, 70
4, 14640, Note_on_c, 2, 76, 84
4, 14755, Note_on_c, 2, 76, 0
4, 14760, Note_on_c, 2, 75, 84
4, 14875, Note_on_c, 2, 75, 0
4, 14879, Control_c, 2, 6, 64
4, 14880, Note_on_c, 2, 76, 84
4, 14935, Note_on_c, 2, 76, 0
4, 14940, Note_on_c, 2, 64, 84
4, 14970, Note_on_c, 2, 66, 84
4, 14975, Note_on_c, 2, 64, 0
4, 15000, Note_on_c, 2, 66, 0
4, 15000, Note_on_c, 2, 68, 84
4, 15030, Note_on_c, 2, 66, 84
4, 15035, Note_on_c, 2, 68, 0
4, 15060, Note_on_c, 2, 66, 0
4, 15060, Note_on_c, 2, 68, 84
4, 15090, Note_on_c, 2, 66, 84
4, 15095, Note_on_c, 2, 68, 0
4, 15120, Note_on_c, 2, 66, 0
4, 15120, Note_on_c, 2, 64, 84
4, 15150, Note_on_c, 2, 66, 84
4, 15155, Note_on_c, 2, 64, 0
4, 15180, Note_on_c, 2, 66, 0
4, 15180, Note_on_c, 2, 64, 84
4, 15210, Note_on_c, 2, 66, 84
4, 15215, Note_on_c, 2, 64, 0
4, 15240, Note_on_c, 2, 66, 0
4, 15240, Note_on_c, 2, 68, 84
4, 15270, Note_on_c, 2, 66, 84
4, 15275, Note_on_c, 2, 68, 0
4, 15300, Note_on_c, 2, 66, 0
4, 15300, Note_on_c, 2, 68, 84
4, 15330, Note_on_c, 2, 66, 84
4, 15335, Note_on_c, 2, 68, 0
4, 15360, Note_on_c, 2, 66, 0
4, 15360, Note_on_c, 2, 64, 84
4, 15390, Note_on_c, 2, 66, 84
4, 15395, Note_on_c, 2, 64, 0
4, 15420, Note_on_c, 2, 66, 0
4, 15420, Note_on_c, 2, 64, 84
4, 15450, Note_on_c, 2, 66, 84
4, 15455, Note_on_c, 2, 64, 0
4, 15480, Note_on_c, 2, 66, 0
4, 15480, Note_on_c, 2, 68, 84
4, 15510, Note_on_c, 2, 66, 84
4, 15515, Note_on_c, 2, 68, 0
4, 15540, Note_on_c, 2, 66, 0
4, 15540, Note_on_c, 2, 68, 84
4, 15570, Note_on_c, 2, 66, 84
4, 15575, Note_on_c, 2, 68, 0
4, 15600, Note_on_c, 2, 66, 0
4, 15600, Note_on_c, 2, 64, 84
4, 15630, Note_on_c, 2, 66, 84
4, 15635, Note_on_c, 2, 64, 0
4, 15660, Note_on_c, 2, 66, 0
4, 15660, Note_on_c, 2, 64, 84
4, 15690, Note_on_c, 2, 66, 84
4, 15695, Note_on_c, 2, 64, 0
4, 15720, Note_on_c, 2, 66, 0
4, 15720, Note_on_c, 2, 68, 84
4, 15750, Note_on_c, 2, 69, 84
4, 15755, Note_on_c, 2, 68, 0
4, 15780, Note_on_c, 2, 69, 0
4, 15780, Note_on_c, 2, 68, 84
4, 15810, Note_on_c, 2, 69, 84
4, 15815, Note_on_c, 2, 68, 0
4, 15840, Note_on_c, 2, 69, 0
4, 15840, Note_on_c, 2, 71, 84
4, 15870, Note_on_c, 2, 73, 84
4, 15875, Note_on_c, 2, 71, 0
4, 15900, Note_on_c, 2, 73, 0
4, 15900, Note_on_c, 2, 71, 84
4, 15930, Note_on_c, 2, 73, 84
4, 15935, Note_on_c, 2, 71, 0
4, 15960, Note_on_c, 2, 73, 0
4, 15960, Note_on_c, 2, 75, 84
4, 15990, Note_on_c, 2, 73, 84
4, 15995, Note_on_c, 2, 75, 0
4, 16020, Note_on_c, 2, 73, 0
4, 16020, Note_on_c, 2, 75, 84
4, 16050, Note_on_c, 2, 73, 84
4, 16055, Note_on_c, 2, 75, 0
4, 16080, Note_on_c, 2, 73, 0
4, 16080, Note_on_c, 2, 71, 84
4, 16110, Note_on_c, 2, 73, 84
4, 16115, Note_on_c, 2, 71, 0
4, 16140, Note_on_c, 2, 73, 0
4, 16140, Note_on_c, 2, 71, 84
4, 16170, Note_on_c, 2, 73, 84
4, 16175, Note_on_c, 2, 71, 0
4, 16200, Note_on_c, 2, 73, 0
4, 16200, Note_on_c, 2, 75, 84
4, 16230, Note_on_c, 2, 73, 84
4, 16235, Note_on_c, 2, 75, 0
4, 16260, Note_on_c, 2, 73, 0
4, 16260, Note_on_c, 2, 75, 84
4, 16290, Note_on_c, 2, 73, 84
4, 16295, Note_on_c, 2, 75, 0
4, 16320, Note_on_c, 2, 73, 0
4, 16320, Note_on_c, 2, 71, 84
4, 16350, Note_on_c, 2, 73, 84
4, 16355, Note_on_c, 2, 71, 0
4, 16380, Note_on_c, 2, 73, 0
4, 16380, Note_on_c, 2, 71, 84
4, 16410, Note_on_c, 2, 73, 84
4, 16415, Note_on_c, 2, 71, 0
4, 16440, Note_on_c, 2, 73, 0
4, 16440, Note_on_c, 2, 75, 84
4, 16470, Note_on_c, 2, 76, 84
4, 16475, Note_on_c, 2, 75, 0
4, 16500, Note_on_c, 2, 76, 0
4, 16500, Note_on_c, 2, 75, 84
4, 16530, Note_on_c, 2, 76, 84
4, 16535, Note_on_c, 2, 75, 0
4, 16560, Note_on_c, 2, 76, 0
4, 16560, Note_on_c, 2, 78, 84
4, 16590, Note_on_c, 2, 76, 84
4, 16595, Note_on_c, 2, 78, 0
4, 16620, Note_on_c, 2, 76, 0
4, 16620, Note_on_c, 2, 78, 84
4, 16650, Note_on_c, 2, 76, 84
4, 16655, Note_on_c, 2, 78, 0
4, 16680, Note_on_c, 2, 76, 0
4, 16680, Note_on_c, 2, 75, 84
4, 16710, Note_on_c, 2, 78, 84
4, 16715, Note_on_c, 2, 75, 0
4, 16740, Note_on_c, 2, 78, 0
4, 16740, Note_on_c, 2, 76, 84
4, 16770, Note_on_c, 2, 75, 84
4, 16775, Note_on_c, 2, 76, 0
4, 16800, Note_on_c, 2, 75, 0
4, 16800, Note_on_c, 2, 76, 84
4, 16855, Note_on_c, 2, 76, 0
4, 16860, Note_on_c, 2, 75, 84
4, 16890, Note_on_c, 2, 75, 0
4, 16890, Note_on_c, 2, 73, 84
4, 16920, Note_on_c, 2, 71, 84
4, 16925, Note_on_c, 2, 73, 0
4, 16950, Note_on_c, 2, 71, 0
4, 16950, Note_on_c, 2, 69, 84
4, 16980, Note_on_c, 2, 68, 84
4, 16985, Note_on_c, 2, 69, 0
4, 17010, Note_on_c, 2, 68, 0
4, 17010, Note_on_c, 2, 66, 84
4, 17040, Note_on_c, 2, 64, 84
4, 17045, Note_on_c, 2, 66, 0
4, 17070, Note_on_c, 2, 64, 0
4, 17070, Note_on_c, 2, 66, 84
4, 17100, Note_on_c, 2, 64, 84
4, 17105, Note_on_c, 2, 66, 0
4, 17130, Note_on_c, 2, 64, 0
4, 17130, Note_on_c, 2, 66, 84
4, 17160, Note_on_c, 2, 68, 84
4, 17165, Note_on_c, 2, 66, 0
4, 17190, Note_on_c, 2, 68, 0
4, 17190, Note_on_c, 2, 66, 84
4, 17220, Note_on_c, 2, 68, 84
4, 17225, Note_on_c, 2, 66, 0
4, 17250, Note_on_c, 2, 68, 0
4, 17250, Note_on_c, 2, 66, 84
4, 17280, Note_on_c, 2, 64, 84
4, 17285, Note_on_c, 2, 66, 0
4, 17310, Note_on_c, 2, 64, 0
4, 17310, Note_on_c, 2, 66, 84
4, 17340, Note_on_c, 2, 64, 84
4, 17345, Note_on_c, 2, 66, 0
4, 17370, Note_on_c, 2, 64, 0
4, 17370, Note_on_c, 2, 66, 84
4, 17400, Note_on_c, 2, 68, 84
4, 17405, Note_on_c, 2, 66, 0
4, 17430, Note_on_c, 2, 68, 0
4, 17430, Note_on_c, 2, 66, 84
4, 17460, Note_on_c, 2, 68, 84
4, 17465, Note_on_c, 2, 66, 0
4, 17490, Note_on_c, 2, 68, 0
4, 17490, Note_on_c, 2, 66, 84
4, 17520, Note_on_c, 2, 64, 84
4, 17525, Note_on_c, 2, 66, 0
4, 17550, Note_on_c, 2, 64, 0
4, 17550, Note_on_c, 2, 66, 84
4, 17580, Note_on_c, 2, 64, 84
4, 17585, Note_on_c, 2, 66, 0
4, 17610, Note_on_c, 2, 64, 0
4, 17610, Note_on_c, 2, 66, 84
4, 17640, Note_on_c, 2, 68, 84
4, 17645, Note_on_c, 2, 66, 0
4, 17670, Note_on_c, 2, 68, 0
4, 17670, Note_on_c, 2, 66, 84
4, 17700, Note_on_c, 2, 68, 84
4, 17705, Note_on_c, 2, 66, 0
4, 17730, Note_on_c, 2, 68, 0
4, 17730, Note_on_c, 2, 66, 84
4, 17760, Control_c, 2, 6, 70
4, 17760, Note_on_c, 2, 64, 84
4, 17765, Note_on_c, 2, 66, 0
4, 17875, Note_on_c, 2, 64, 0
4, 17880, Control_c, 2, 6, 64
4, 17940, Note_on_c, 2, 76, 84
4, 17995, Note_on_c, 2, 76, 0
4, 18000, Control_c, 2, 6, 70
4, 18000, Note_on_c, 2, 78, 84
4, 18235, Note_on_c, 2, 78, 0
4, 18240, Note_on_c, 2, 76, 84
4, 18475, Note_on_c, 2, 76, 0
4, 18480, Note_on_c, 2, 75, 84
4, 18715, Note_on_c, 2, 75, 0
4, 18720, Note_on_c, 2, 76, 84
4, 18955, Note_on_c, 2, 76, 0
4, 18960, Note_on_c, 2, 78, 84
4, 19195, Note_on_c, 2, 78, 0
4, 19200, Note_on_c, 2, 76, 84
4, 19435, Note_on_c, 2, 76, 0
4, 19440, Note_on_c, 2, 75, 84
4, 19555, Note_on_c, 2, 75, 0
4, 19560, Control_c, 2, 6, 64
4, 19620, Note_on_c, 2, 75, 84
4, 19675, Note_on_c, 2, 75, 0
4, 19680, Note_on_c, 2, 75, 84
4, 19735, Note_on_c, 2, 75, 0
4, 19740, Note_on_c, 2, 73, 84
4, 19770, Note_on_c, 2, 71, 84
4, 19775, Note_on_c, 2, 73, 0
4, 19795, Note_on_c, 2, 71, 0
4, 19800, Note_on_c, 2, 73, 84
4, 19855, Note_on_c, 2, 73, 0
4, 19860, Note_on_c, 2, 75, 84
4, 19915, Note_on_c, 2, 75, 0
4, 19920, Note_on_c, 2, 76, 84
4, 19975, Note_on_c, 2, 76, 0
4, 19980, Control_c, 2, 6, 70
4, 19980, Note_on_c, 2, 75, 84
4, 20095, Note_on_c, 2, 75, 0
4, 20099, Control_c, 2, 6, 64
4, 20100, Note_on_c, 2, 75, 84
4, 20155, Note_on_c, 2, 75, 0
4, 20160, Note_on_c, 2, 75, 84
4, 20215, Note_on_c, 2, 75, 0
4, 20220, Note_on_c, 2, 73, 84
4, 20250, Note_on_c, 2, 71, 84
4, 20255, Note_on_c, 2, 73, 0
4, 20275, Note_on_c, 2, 71, 0
4, 20280, Note_on_c, 2, 73, 84
4, 20335, Note_on_c, 2, 73, 0
4, 20340, Note_on_c, 2, 75, 84
4, 20395, Note_on_c, 2, 75, 0
4, 20400, Note_on_c, 2, 76, 84
4, 20455, Note_on_c, 2, 76, 0
4, 20460, Control_c, 2, 6, 70
4, 20460, Note_on_c, 2, 75, 84
4, 20575, Note_on_c, 2, 75, 0
4, 20579, Control_c, 2, 6, 64
4, 20580, Note_on_c, 2, 75, 84
4, 20635, Note_on_c, 2, 75, 0
4, 20640, Note_on_c, 2, 76, 84
4, 20695, Note_on_c, 2, 76, 0
4, 20700, Control_c, 2, 6, 70
4, 20700, Note_on_c, 2, 75, 84
4, 20815, Note_on_c, 2, 75, 0
4, 20819, Control_c, 2, 6, 64
4, 20820, Note_on_c, 2, 73, 84
4, 20875, Note_on_c, 2, 73, 0
4, 20880, Control_c, 2, 6, 70
4, 20880, Note_on_c, 2, 71, 84
4, 20995, Note_on_c, 2, 71, 0
4, 21000, Note_on_c, 2, 70, 84
4, 21115, Note_on_c, 2, 70, 0
4, 21116, Control_c, 2, 6, 64
4, 21120, Note_on_c, 2, 71, 84
4, 21145, Note_on_c, 2, 71, 0
4, 21150, Note_on_c, 2, 59, 84
4, 21163, Note_on_c, 2, 59, 0
4, 21165, Note_on_c, 2, 59, 84
4, 21178, Note_on_c, 2, 59, 0
4, 21180, Note_on_c, 2, 59, 84
4, 21193, Note_on_c, 2, 59, 0
4, 21195, Note_on_c, 2, 59, 84
4, 21208, Note_on_c, 2, 59, 0
4, 21210, Note_on_c, 2, 59, 84
4, 21223, Note_on_c, 2, 59, 0
4, 21225, Note_on_c, 2, 59, 84
4, 21238, Note_on_c, 2, 59, 0
4, 21240, Note_on_c, 2, 59, 84
4, 21253, Note_on_c, 2, 59, 0
4, 21255, Note_on_c, 2, 59, 84
4, 21268, Note_on_c, 2, 59, 0
4, 21270, Note_on_c, 2, 59, 84
4, 21283, Note_on_c, 2, 59, 0
4, 21285, Note_on_c, 2, 59, 84
4, 21298, Note_on_c, 2, 59, 0
4, 21300, Note_on_c, 2, 59, 84
4, 21313, Note_on_c, 2, 59, 0
4, 21315, Note_on_c, 2, 59, 84
4, 21328, Note_on_c, 2, 59, 0
4, 21330, Note_on_c, 2, 59, 84
4, 21343, Note_on_c, 2, 59, 0
4, 21345, Note_on_c, 2, 59, 84
4, 21358, Note_on_c, 2, 59, 0
4, 21360, Note_on_c, 2, 59, 84
4, 21373, Note_on_c, 2, 59, 0
4, 21375, Note_on_c, 2, 59, 84
4, 21388, Note_on_c, 2, 59, 0
4, 21390, Note_on_c, 2, 59, 84
4, 21403, Note_on_c, 2, 59, 0
4, 21405, Note_on_c, 2, 59, 84
4, 21418, Note_on_c, 2, 59, 0
4, 21420, Note_on_c, 2, 59, 84
4, 21433, Note_on_c, 2, 59, 0
4, 21435, Note_on_c, 2, 59, 84
4, 21448, Note_on_c, 2, 59, 0
4, 21450, Note_on_c, 2, 59, 84
4, 21463, Note_on_c, 2, 59, 0
4, 21465, Note_on_c, 2, 59, 84
4, 21478, Note_on_c, 2, 59, 0
4, 21480, Note_on_c, 2, 59, 84
4, 21493, Note_on_c, 2, 59, 0
4, 21495, Note_on_c, 2, 59, 84
4, 21508, Note_on_c, 2, 59, 0
4, 21510, Note_on_c, 2, 59, 84
4, 21523, Note_on_c, 2, 59, 0
4, 21525, Note_on_c, 2, 59, 84
4, 21538, Note_on_c, 2, 59, 0
4, 21540, Note_on_c, 2, 59, 84
4, 21553, Note_on_c, 2, 59, 0
4, 21555, Note_on_c, 2, 59, 84
4, 21568, Note_on_c, 2, 59, 0
4, 21570, Note_on_c, 2, 59, 84
4, 21583, Note_on_c, 2, 59, 0
4, 21585, Note_on_c, 2, 59, 84
4, 21598, Note_on_c, 2, 59, 0
4, 21600, Note_on_c, 2, 71, 84
4, 21613, Note_on_c, 2, 71, 0
4, 21615, Note_on_c, 2, 73, 84
4, 21628, Note_on_c, 2, 73, 0
4, 21630, Note_on_c, 2, 75, 84
4, 21643, Note_on_c, 2, 75, 0
4, 21645, Note_on_c, 2, 76, 84
4, 21658, Note_on_c, 2, 76, 0
4, 21660, Note_on_c, 2, 78, 84
4, 21673, Note_on_c, 2, 78, 0
4, 21675, Note_on_c, 2, 80, 84
4, 21688, Note_on_c, 2, 80, 0
4, 21690, Note_on_c, 2, 81, 84
4, 21703, Note_on_c, 2, 81, 0
4, 21705, Note_on_c, 2, 83, 84
4, 21718, Note_on_c, 2, 83, 0
4, 21840, Note_on_c, 2, 71, 84
4, 21853, Note_on_c, 2, 71, 0
4, 21855, Note_on_c, 2, 73, 84
4, 21868, Note_on_c, 2, 73, 0
4, 21870, Note_on_c, 2, 75, 84
4, 21883, Note_on_c, 2, 75, 0
4, 21885, Note_on_c, 2, 76, 84
4, 21898, Note_on_c, 2, 76, 0
4, 21900, Note_on_c, 2, 78, 84
4, 21913, Note_on_c, 2, 78, 0
4, 21915, Note_on_c, 2, 80, 84
4, 21928, Note_on_c, 2, 80, 0
4, 21930, Note_on_c, 2, 81, 84
4, 21943, Note_on_c, 2, 81, 0
4, 21945, Note_on_c, 2, 83, 84
4, 21958, Note_on_c, 2, 83, 0
4, 22080, Note_on_c, 2, 59, 84
4, 22093, Note_on_c, 2, 59, 0
4, 22095, Note_on_c, 2, 59, 84
4, 22108, Note_on_c, 2, 59, 0
4, 22110, Note_on_c, 2, 59, 84
4, 22123, Note_on_c, 2, 59, 0
4, 22125, Note_on_c, 2, 59, 84
4, 22138, Note_on_c, 2, 59, 0
4, 22140, Note_on_c, 2, 59, 84
4, 22153, Note_on_c, 2, 59, 0
4, 22155, Note_on_c, 2, 59, 84
4, 22168, Note_on_c, 2, 59, 0
4, 22170, Note_on_c, 2, 59, 84
4, 22183, Note_on_c, 2, 59, 0
4, 22185, Note_on_c, 2, 59, 84
4, 22198, Note_on_c, 2, 59, 0
4, 22200, Note_on_c, 2, 59, 84
4, 22213, Note_on_c, 2, 59, 0
4, 22215, Note_on_c, 2, 59, 84
4, 22228, Note_on_c, 2, 59, 0
4, 22230, Note_on_c, 2, 59, 84
4, 22243, Note_on_c, 2, 59, 0
4, 22245, Note_on_c, 2, 59, 84
4, 22258, Note_on_c, 2, 59, 0
4, 22260, Note_on_c, 2, 59, 84
4, 22273, Note_on_c, 2, 59, 0
4, 22275, Note_on_c, 2, 59, 84
4, 22288, Note_on_c, 2, 59, 0
4, 22290, Note_on_c, 2, 59, 84
4, 22303, Note_on_c, 2, 59, 0
4, 22305, Note_on_c, 2, 59, 84
4, 22318, Note_on_c, 2, 59, 0
4, 22320, Note_on_c, 2, 57, 84
4, 22333, Note_on_c, 2, 57, 0
4, 22335, Note_on_c, 2, 57, 84
4, 22348, Note_on_c, 2, 57, 0
4, 22350, Note_on_c, 2, 57, 84
4, 22363, Note_on_c, 2, 57, 0
4, 22365, Note_on_c, 2, 57, 84
4, 22378, Note_on_c, 2, 57, 0
4, 22380, Note_on_c, 2, 57, 84
4, 22393, Note_on_c, 2, 57, 0
4, 22395, Note_on_c, 2, 57, 84
4, 22408, Note_on_c, 2, 57, 0
4, 22410, Note_on_c, 2, 57, 84
4, 22423, Note_on_c, 2, 57, 0
4, 22425, Note_on_c, 2, 57, 84
4, 22438, Note_on_c, 2, 57, 0
4, 22440, Note_on_c, 2, 57, 84
4, 22453, Note_on_c, 2, 57, 0
4, 22455, Note_on_c, 2, 57, 84
4, 22468, Note_on_c, 2, 57, 0
4, 22470, Note_on_c, 2, 57, 84
4, 22483, Note_on_c, 2, 57, 0
4, 22485, Note_on_c, 2, 57, 84
4, 22498, Note_on_c, 2, 57, 0
4, 22500, Note_on_c, 2, 57, 84
4, 22513, Note_on_c, 2, 57, 0
4, 22515, Note_on_c, 2, 57, 84
4, 22528, Note_on_c, 2, 57, 0
4, 22530, Note_on_c, 2, 57, 84
4, 22543, Note_on_c, 2, 57, 0
4, 22545, Note_on_c, 2, 57, 84
4, 22558, Note_on_c, 2, 57, 0
4, 22560, Control_c, 2, 6, 70
4, 22560, Note_on_c, 2, 56, 84
4, 22675, Note_on_c, 2, 56, 0
4, 22676, Control_c, 2, 6, 64
4, 23040, Note_on_c, 2, 57, 84
4, 23053, Note_on_c, 2, 57, 0
4, 23055, Note_on_c, 2, 57, 84
4, 23068, Note_on_c, 2, 57, 0
4, 23070, Note_on_c, 2, 57, 84
4, 23083, Note_on_c, 2, 57, 0
4, 23085, Note_on_c, 2, 57, 84
4, 23098, Note_on_c, 2, 57, 0
4, 23100, Note_on_c, 2, 57, 84
4, 23113, Note_on_c, 2, 57, 0
4, 23115, Note_on_c, 2, 57, 84
4, 23128, Note_on_c, 2, 57, 0
4, 23130, Note_on_c, 2, 57, 84
4, 23143, Note_on_c, 2, 57, 0
4, 23145, Note_on_c, 2, 57, 84
4, 23158, Note_on_c, 2, 57, 0
4, 23160, Note_on_c, 2, 57, 84
4, 23173, Note_on_c, 2, 57, 0
4, 23175, Note_on_c, 2, 57, 84
4, 23188, Note_on_c, 2, 57, 0
4, 23190, Note_on_c, 2, 57, 84
4, 23203, Note_on_c, 2, 57, 0
4, 23205, Note_on_c, 2, 57, 84
4, 23218, Note_on_c, 2, 57, 0
4, 23220, Note_on_c, 2, 57, 84
4, 23233, Note_on_c, 2, 57, 0
4, 23235, Note_on_c, 2, 57, 84
4, 23248, Note_on_c, 2, 57, 0
4, 23250, Note_on_c, 2, 57, 84
4, 23263, Note_on_c, 2, 57, 0
4, 23265, Note_on_c, 2, 57, 84
4, 23278, Note_on_c, 2, 57, 0
4, 23280, Control_c, 2, 6, 70
4, 23280, Note_on_c, 2, 58, 84
4, 23395, Note_on_c, 2, 58, 0
4, 23396, Control_c, 2, 6, 64
4, 23760, Note_on_c, 2, 59, 84
4, 23773, Note_on_c, 2, 59, 0
4, 23775, Note_on_c, 2, 59, 84
4, 23788, Note_on_c, 2, 59, 0
4, 23790, Note_on_c, 2, 59, 84
4, 23803, Note_on_c, 2, 59, 0
4, 23805, Note_on_c, 2, 59, 84
4, 23818, Note_on_c, 2, 59, 0
4, 23820, Note_on_c, 2, 59, 84
4, 23833, Note_on_c, 2, 59, 0
4, 23835, Note_on_c, 2, 59, 84
4, 23848, Note_on_c, 2, 59, 0
4, 23850, Note_on_c, 2, 59, 84
4, 23863, Note_on_c, 2, 59, 0
4, 23865, Note_on_c, 2, 59, 84
4, 23878, Note_on_c, 2, 59, 0
4, 23880, Note_on_c, 2, 59, 84
4, 23893, Note_on_c, 2, 59, 0
4, 23895, Note_on_c, 2, 59, 84
4, 23908, Note_on_c, 2, 59, 0
4, 23910, Note_on_c, 2, 59, 84
4, 23923, Note_on_c, 2, 59, 0
4, 23925, Note_on_c, 2, 59, 84
4, 23938, Note_on_c, 2, 59, 0
4, 23940, Note_on_c, 2, 59, 84
4, 23953, Note_on_c, 2, 59, 0
4, 23955, Note_on_c, 2, 59, 84
4, 23968, Note_on_c, 2, 59, 0
4, 23970, Note_on_c, 2, 59, 84
4, 23983, Note_on_c, 2, 59, 0
4, 23985, Note_on_c, 2, 59, 84
4, 23998, Note_on_c, 2, 59, 0
4, 24000, Control_c, 2, 6, 70
4, 24000, Note_on_c, 2, 60, 84
4, 24115, Note_on_c, 2, 60, 0
4, 24116, Control_c, 2, 6, 64
4, 24480, Note_on_c, 2, 61, 84
4, 24493, Note_on_c, 2, 61, 0
4, 24495, Note_on_c, 2, 61, 84
4, 24508, Note_on_c, 2, 61, 0
4, 24510, Note_on_c, 2, 61, 84
4, 24523, Note_on_c, 2, 61, 0
4, 24525, Note_on_c, 2, 61, 84
4, 24538, Note_on_c, 2, 61, 0
4, 24540, Note_on_c, 2, 61, 84
4, 24553, Note_on_c, 2, 61, 0
4, 24555, Note_on_c, 2, 61, 84
4, 24568, Note_on_c, 2, 61, 0
4, 24570, Note_on_c, 2, 61, 84
4, 24583, Note_on_c, 2, 61, 0
4, 24585, Note_on_c, 2, 61, 84
4, 24598, Note_on_c, 2, 61, 0
4, 24600, Note_on_c, 2, 61, 84
4, 24613, Note_on_c, 2, 61, 0
4, 24615, Note_on_c, 2, 61, 84
4, 24628, Note_on_c, 2, 61, 0
4, 24630, Note_on_c, 2, 61, 84
4, 24643, Note_on_c, 2, 61, 0
4, 24645, Note_on_c, 2, 61, 84
4, 24658, Note_on_c, 2, 61, 0
4, 24660, Note_on_c, 2, 61, 84
4, 24673, Note_on_c, 2, 61, 0
4, 24675, Note_on_c, 2, 61, 84
4, 24688, Note_on_c, 2, 61, 0
4, 24690, Note_on_c, 2, 61, 84
4, 24703, Note_on_c, 2, 61, 0
4, 24705, Note_on_c, 2, 61, 84
4, 24718, Note_on_c, 2, 61, 0
4, 24720, Control_c, 2, 6, 70
4, 24720, Note_on_c, 2, 61, 84
4, 24835, Note_on_c, 2, 61, 0
4, 24836, Control_c, 2, 6, 64
4, 24960, Note_on_c, 2, 59, 84
4, 24973, Note_on_c, 2, 59, 0
4, 24975, Note_on_c, 2, 59, 84
4, 24988, Note_on_c, 2, 59, 0
4, 24990, Note_on_c, 2, 59, 84
4, 25003, Note_on_c, 2, 59, 0
4, 25005, Note_on_c, 2, 59, 84
4, 25018, Note_on_c, 2, 59, 0
4, 25020, Note_on_c, 2, 59, 84
4, 25033, Note_on_c, 2, 59, 0
4, 25035, Note_on_c, 2, 59, 84
4, 25048, Note_on_c, 2, 59, 0
4, 25050, Note_on_c, 2, 59, 84
4, 25063, Note_on_c, 2, 59, 0
4, 25065, Note_on_c, 2, 59, 84
4, 25078, Note_on_c, 2, 59, 0
4, 25080, Note_on_c, 2, 59, 84
4, 25093, Note_on_c, 2, 59, 0
4, 25095, Note_on_c, 2, 59, 84
4, 25108, Note_on_c, 2, 59, 0
4, 25110, Note_on_c, 2, 59, 84
4, 25123, Note_on_c, 2, 59, 0
4, 25125, Note_on_c, 2, 59, 84
4, 25138, Note_on_c, 2, 59, 0
4, 25140, Note_on_c, 2, 59, 84
4, 25153, Note_on_c, 2, 59, 0
4, 25155, Note_on_c, 2, 59, 84
4, 25168, Note_on_c, 2, 59, 0
4, 25170, Note_on_c, 2, 59, 84
4, 25183, Note_on_c, 2, 59, 0
4, 25185, Note_on_c, 2, 59, 84
4, 25198, Note_on_c, 2, 59, 0
4, 25200, Control_c, 2, 6, 70
4, 25200, Note_on_c, 2, 57, 84
4, 25315, Note_on_c, 2, 57, 0
4, 25316, Control_c, 2, 6, 64
4, 25440, Note_on_c, 2, 68, 84
4, 25453, Note_on_c, 2, 68, 0
4, 25455, Note_on_c, 2, 68, 84
4, 25468, Note_on_c, 2, 68, 0
4, 25470, Note_on_c, 2, 68, 84
4, 25483, Note_on_c, 2, 68, 0
4, 25485, Note_on_c, 2, 68, 84
4, 25498, Note_on_c, 2, 68, 0
4, 25500, Note_on_c, 2, 68, 84
4, 25513, Note_on_c, 2, 68, 0
4, 25515, Note_on_c, 2, 68, 84
4, 25528, Note_on_c, 2, 68, 0
4, 25530, Note_on_c, 2, 68, 84
4, 25543, Note_on_c, 2, 68, 0
4, 25545, Note_on_c, 2, 68, 84
4, 25558, Note_on_c, 2, 68, 0
4, 25560, Note_on_c, 2, 68, 84
4, 25573, Note_on_c, 2, 68, 0
4, 25575, Note_on_c, 2, 68, 84
4, 25588, Note_on_c, 2, 68, 0
4, 25590, Note_on_c, 2, 68, 84
4, 25603, Note_on_c, 2, 68, 0
4, 25605, Note_on_c, 2, 68, 84
4, 25618, Note_on_c, 2, 68, 0
4, 25620, Note_on_c, 2, 68, 84
4, 25633, Note_on_c, 2, 68, 0
4, 25635, Note_on_c, 2, 68, 84
4, 25648, Note_on_c, 2, 68, 0
4, 25650, Note_on_c, 2, 68, 84
4, 25663, Note_on_c, 2, 68, 0
4, 25665, Note_on_c, 2, 68, 84
4, 25678, Note_on_c, 2, 68, 0
4, 25680, Control_c, 2, 6, 70
4, 25680, Note_on_c, 2, 66, 84
4, 25795, Note_on_c, 2, 66, 0
4, 25796, Control_c, 2, 6, 64
4, 25920, Note_on_c, 2, 64, 84
4, 25933, Note_on_c, 2, 64, 0
4, 25935, Note_on_c, 2, 64, 84
4, 25948, Note_on_c, 2, 64, 0
4, 25950, Note_on_c, 2, 64, 84
4, 25963, Note_on_c, 2, 64, 0
4, 25965, Note_on_c, 2, 64, 84
4, 25978, Note_on_c, 2, 64, 0
4, 25980, Note_on_c, 2, 64, 84
4, 25993, Note_on_c, 2, 64, 0
4, 25995, Note_on_c, 2, 64, 84
4, 26008, Note_on_c, 2, 64, 0
4, 26010, Note_on_c, 2, 64, 84
4, 26023, Note_on_c, 2, 64, 0
4, 26025, Note_on_c, 2, 64, 84
4, 26038, Note_on_c, 2, 64, 0
4, 26040, Note_on_c, 2, 61, 84
4, 26053, Note_on_c, 2, 61, 0
4, 26055, Note_on_c, 2, 61, 84
4, 26068, Note_on_c, 2, 61, 0
4, 26070, Note_on_c, 2, 61, 84
4, 26083, Note_on_c, 2, 61, 0
4, 26085, Note_on_c, 2, 61, 84
4, 26098, Note_on_c, 2, 61, 0
4, 26100, Note_on_c, 2, 61, 84
4, 26113, Note_on_c, 2, 61, 0
4, 26115, Note_on_c, 2, 61, 84
4, 26128, Note_on_c, 2, 61, 0
4, 26130, Note_on_c, 2, 61, 84
4, 26143, Note_on_c, 2, 61, 0
4, 26145, Note_on_c, 2, 61, 84
4, 26158, Note_on_c, 2, 61, 0
4, 26160, Note_on_c, 2, 56, 84
4, 26173, Note_on_c, 2, 56, 0
4, 26175, Note_on_c, 2, 56, 84
4, 26188, Note_on_c, 2, 56, 0
4, 26190, Note_on_c, 2, 56, 84
4, 26203, Note_on_c, 2, 56, 0
4, 26205, Note_on_c, 2, 56, 84
4, 26218, Note_on_c, 2, 56, 0
4, 26220, Note_on_c, 2, 56, 84
4, 26233, Note_on_c, 2, 56, 0
4, 26235, Note_on_c, 2, 56, 84
4, 26248, Note_on_c, 2, 56, 0
4, 26250, Note_on_c, 2, 56, 84
4, 26263, Note_on_c, 2, 56, 0
4, 26265, Note_on_c, 2, 56, 84
4, 26278, Note_on_c, 2, 56, 0
4, 26280, Note_on_c, 2, 56, 84
4, 26293, Note_on_c, 2, 56, 0
4, 26295, Note_on_c, 2, 56, 84
4, 26308, Note_on_c, 2, 56, 0
4, 26310, Note_on_c, 2, 56, 84
4, 26323, Note_on_c, 2, 56, 0
4, 26325, Note_on_c, 2, 56, 84
4, 26338, Note_on_c, 2, 56, 0
4, 26340, Note_on_c, 2, 56, 84
4, 26353, Note_on_c, 2, 56, 0
4, 26355, Note_on_c, 2, 56, 84
4, 26368, Note_on_c, 2, 56, 0
4, 26370, Note_on_c, 2, 56, 84
4, 26383, Note_on_c, 2, 56, 0
4, 26385, Note_on_c, 2, 56, 84
4, 26398, Note_on_c, 2, 56, 0
4, 26400, Note_on_c, 2, 56, 84
4, 26413, Note_on_c, 2, 56, 0
4, 26415, Note_on_c, 2, 56, 84
4, 26428, Note_on_c, 2, 56, 0
4, 26430, Note_on_c, 2, 56, 84
4, 26443, Note_on_c, 2, 56, 0
4, 26445, Note_on_c, 2, 56, 84
4, 26458, Note_on_c, 2, 56, 0
4, 26460, Note_on_c, 2, 56, 84
4, 26473, Note_on_c, 2, 56, 0
4, 26475, Note_on_c, 2, 56, 84
4, 26488, Note_on_c, 2, 56, 0
4, 26490, Note_on_c, 2, 56, 84
4, 26503, Note_on_c, 2, 56, 0
4, 26505, Note_on_c, 2, 56, 84
4, 26518, Note_on_c, 2, 56, 0
4, 26520, Note_on_c, 2, 56, 84
4, 26533, Note_on_c, 2, 56, 0
4, 26535, Note_on_c, 2, 56, 84
4, 26548, Note_on_c, 2, 56, 0
4, 26550, Note_on_c, 2, 56, 84
4, 26563, Note_on_c, 2, 56, 0
4, 26565, Note_on_c, 2, 56, 84
4, 26578, Note_on_c, 2, 56, 0
4, 26580, Note_on_c, 2, 56, 84
4, 26593, Note_on_c, 2, 56, 0
4, 26595, Note_on_c, 2, 56, 84
4, 26608, Note_on_c, 2, 56, 0
4, 26610, Note_on_c, 2, 56, 84
4, 26623, Note_on_c, 2, 56, 0
4, 26625, Note_on_c, 2, 56, 84
4, 26638, Note_on_c, 2, 56, 0
4, 26640, Control_c, 2, 6, 70
4, 26640, Note_on_c, 2, 61, 84
4, 26755, Note_on_c, 2, 61, 0
4, 26756, Control_c, 2, 6, 64
4, 26820, Note_on_c, 2, 68, 84
4, 26875, Note_on_c, 2, 68, 0
4, 26880, Note_on_c, 2, 76, 84
4, 26935, Note_on_c, 2, 76, 0
4, 26940, Note_on_c, 2, 75, 84
4, 26970, Note_on_c, 2, 73, 84
4, 26975, Note_on_c, 2, 75, 0
4, 26995, Note_on_c, 2, 73, 0
4, 27000, Note_on_c, 2, 75, 84
4, 27055, Note_on_c, 2, 75, 0
4, 27060, Note_on_c, 2, 76, 84
4, 27115, Note_on_c, 2, 76, 0
4, 27120, Note_on_c, 2, 78, 84
4, 27175, Note_on_c, 2, 78, 0
4, 27180, Control_c, 2, 6, 70
4, 27180, Note_on_c, 2, 76, 84
4, 27295, Note_on_c, 2, 76, 0
4, 27296, Control_c, 2, 6, 64
4, 27300, Note_on_c, 2, 76, 84
4, 27355, Note_on_c, 2, 76, 0
4, 27360, Note_on_c, 2, 76, 84
4, 27415, Note_on_c, 2, 76, 0
4, 27420, Note_on_c, 2, 75, 84
4, 27450, Note_on_c, 2, 73, 84
4, 27455, Note_on_c, 2, 75, 0
4, 27475, Note_on_c, 2, 73, 0
4, 27480, Note_on_c, 2, 75, 84
4, 27535, Note_on_c, 2, 75, 0
4, 27540, Note_on_c, 2, 76, 84
4, 27595, Note_on_c, 2, 76, 0
4, 27600, Note_on_c, 2, 78, 84
4, 27655, Note_on_c, 2, 78, 0
4, 27660, Control_c, 2, 6, 70
4, 27660, Note_on_c, 2, 76, 84
4, 27775, Note_on_c, 2, 76, 0
4, 27776, Control_c, 2, 6, 64
4, 27780, Note_on_c, 2, 76, 84
4, 27835, Note_on_c, 2, 76, 0
4, 27840, Note_on_c, 2, 78, 84
4, 27895, Note_on_c, 2, 78, 0
4, 27900, Control_c, 2, 6, 70
4, 27900, Note_on_c, 2, 76, 84
4, 28015, Note_on_c, 2, 76, 0
4, 28016, Control_c, 2, 6, 64
4, 28020, Note_on_c, 2, 75, 84
4, 28075, Note_on_c, 2, 75, 0
4, 28080, Control_c, 2, 6, 70
4, 28080, Note_on_c, 2, 73, 84
4, 28195, Note_on_c, 2, 73, 0
4, 28200, Note_on_c, 2, 72, 84
4, 28315, Note_on_c, 2, 72, 0
4, 28320, Note_on_c, 2, 73, 84
4, 28435, Note_on_c, 2, 73, 0
4, 30240, Note_on_c, 2, 76, 84
4, 30389, Control_c, 2, 6, 64
4, 30390, Note_on_c, 2, 78, 84
4, 30420, Note_on_c, 2, 78, 0
4, 30420, Note_on_c, 2, 76, 84
4, 30450, Note_on_c, 2, 78, 84
4, 30455, Note_on_c, 2, 76, 0
4, 30475, Note_on_c, 2, 76, 0
4, 30480, Note_on_c, 2, 78, 0
4, 30480, Control_c, 2, 6, 70
4, 30480, Note_on_c, 2, 76, 84
4, 30629, Control_c, 2, 6, 64
4, 30630, Note_on_c, 2, 78, 84
4, 30660, Note_on_c, 2, 78, 0
4, 30660, Note_on_c, 2, 76, 84
4, 30690, Note_on_c, 2, 78, 84
4, 30695, Note_on_c, 2, 76, 0
4, 30715, Note_on_c, 2, 76, 0
4, 30719, Note_on_c, 2, 78, 0
4, 30719, Pitch_bend_c, 2, 16383
4, 30720, Note_on_c, 2, 76, 84
4, 30735, Pitch_bend_c, 2, 8192
4, 30750, Pitch_bend_c, 2, 16383
4, 30765, Pitch_bend_c, 2, 8192
4, 30780, Pitch_bend_c, 2, 16383
4, 30795, Pitch_bend_c, 2, 8192
4, 30810, Pitch_bend_c, 2, 16383
4, 30825, Pitch_bend_c, 2, 8192
4, 30840, Pitch_bend_c, 2, 16383
4, 30855, Pitch_bend_c, 2, 8192
4, 30870, Pitch_bend_c, 2, 16383
4, 30885, Pitch_bend_c, 2, 8192
4, 30900, Pitch_bend_c, 2, 16383
4, 30915, Pitch_bend_c, 2, 8192
4, 30930, Pitch_bend_c, 2, 16383
4, 30945, Pitch_bend_c, 2, 8192
4, 30960, Note_on_c, 2, 76, 0
4, 30960, Note_on_c, 2, 76, 84
4, 30990, Note_on_c, 2, 78, 84
4, 30995, Note_on_c, 2, 76, 0
4, 31020, Note_on_c, 2, 78, 0
4, 31020, Note_on_c, 2, 76, 84
4, 31050, Note_on_c, 2, 78, 84
4, 31055, Note_on_c, 2, 76, 0
4, 31080, Note_on_c, 2, 78, 0
4, 31080, Note_on_c, 2, 76, 84
4, 31110, Note_on_c, 2, 78, 84
4, 31115, Note_on_c, 2, 76, 0
4, 31140, Note_on_c, 2, 78, 0
4, 31140, Note_on_c, 2, 76, 84
4, 31170, Note_on_c, 2, 78, 84
4, 31175, Note_on_c, 2, 76, 0
4, 31199, Note_on_c, 2, 78, 0
4, 31199, Pitch_bend_c, 2, 16383
4, 31200, Note_on_c, 2, 76, 84
4, 31215, Pitch_bend_c, 2, 8192
4, 31230, Pitch_bend_c, 2, 16383
4, 31245, Pitch_bend_c, 2, 8192
4, 31260, Pitch_bend_c, 2, 16383
4, 31275, Pitch_bend_c, 2, 8192
4, 31290, Pitch_bend_c, 2, 16383
4, 31305, Pitch_bend_c, 2, 8192
4, 31320, Pitch_bend_c, 2, 16383
4, 31335, Pitch_bend_c, 2, 8192
4, 31350, Pitch_bend_c, 2, 16383
4, 31365, Pitch_bend_c, 2, 8192
4, 31380, Pitch_bend_c, 2, 16383
4, 31395, Pitch_bend_c, 2, 8192
4, 31410, Pitch_bend_c, 2, 16383
4, 31425, Pitch_bend_c, 2, 8192
4, 31440, Note_on_c, 2, 76, 0
4, 31440, Note_on_c, 2, 76, 84
4, 31455, Note_on_c, 2, 78, 84
4, 31460, Note_on_c, 2, 76, 0
4, 31470, Note_on_c, 2, 76, 84
4, 31475, Note_on_c, 2, 78, 0
4, 31485, Note_on_c, 2, 78, 84
4, 31490, Note_on_c, 2, 76, 0
4, 31500, Note_on_c, 2, 76, 84
4, 31505, Note_on_c, 2, 78, 0
4, 31515, Note_on_c, 2, 78, 84
4, 31520, Note_on_c, 2, 76, 0
4, 31530, Note_on_c, 2, 76, 84
4, 31535, Note_on_c, 2, 78, 0
4, 31545, Note_on_c, 2, 78, 84
4, 31550, Note_on_c, 2, 76, 0
4, 31560, Note_on_c, 2, 76, 84
4, 31565, Note_on_c, 2, 78, 0
4, 31575, Note_on_c, 2, 78, 84
4, 31580, Note_on_c, 2, 76, 0
4, 31590, Note_on_c, 2, 76, 84
4, 31595, Note_on_c, 2, 78, 0
4, 31605, Note_on_c, 2, 78, 84
4, 31610, Note_on_c, 2, 76, 0
4, 31620, Note_on_c, 2, 76, 84
4, 31625, Note_on_c, 2, 78, 0
4, 31635, Note_on_c, 2, 78, 84
4, 31640, Note_on_c, 2, 76, 0
4, 31650, Note_on_c, 2, 76, 84
4, 31655, Note_on_c, 2, 78, 0
4, 31665, Note_on_c, 2, 78, 84
4, 31670, Note_on_c, 2, 76, 0
4, 31680, Note_on_c, 2, 76, 84
4, 31685, Note_on_c, 2, 78, 0
4, 31730, Note_on_c, 2, 76, 0
4, 31740, Note_on_c, 2, 76, 84
4, 31790, Note_on_c, 2, 76, 0
4, 31800, Note_on_c, 2, 76, 84
4, 31850, Note_on_c, 2, 76, 0
4, 31860, Note_on_c, 2, 75, 84
4, 31885, Note_on_c, 2, 75, 0
4, 31890, Note_on_c, 2, 76, 84
4, 31915, Note_on_c, 2, 76, 0
4, 31920, Control_c, 2, 6, 70
4, 31920, Note_on_c, 2, 78, 84
4, 32070, Note_on_c, 2, 78, 0
4, 32096, Control_c, 2, 6, 64
4, 32100, Note_on_c, 2, 78, 84
4, 32125, Note_on_c, 2, 78, 0
4, 32130, Note_on_c, 2, 76, 84
4, 32155, Note_on_c, 2, 76, 0
4, 32160, Note_on_c, 2, 75, 84
4, 32210, Note_on_c, 2, 75, 0
4, 32220, Note_on_c, 2, 75, 84
4, 32270, Note_on_c, 2, 75, 0
4, 32280, Note_on_c, 2, 75, 84
4, 32330, Note_on_c, 2, 75, 0
4, 32340, Note_on_c, 2, 73, 84
4, 32365, Note_on_c, 2, 73, 0
4, 32370, Note_on_c, 2, 75, 84
4, 32395, Note_on_c, 2, 75, 0
4, 32400, Control_c, 2, 6, 70
4, 32400, Note_on_c, 2, 76, 84
4, 32575, Note_on_c, 2, 76, 0
4, 32576, Control_c, 2, 6, 64
4, 32580, Note_on_c, 2, 76, 84
4, 32610, Note_on_c, 2, 78, 84
4, 32615, Note_on_c, 2, 76, 0
4, 32635, Note_on_c, 2, 78, 0
4, 32640, Note_on_c, 2, 80, 84
4, 32695, Note_on_c, 2, 80, 0
4, 32700, Note_on_c, 2, 80, 84
4, 32755, Note_on_c, 2, 80, 0
4, 32760, Note_on_c, 2, 80, 84
4, 32815, Note_on_c, 2, 80, 0
4, 32820, Note_on_c, 2, 80, 84
4, 32850, Note_on_c, 2, 78, 84
4, 32855, Note_on_c, 2, 80, 0
4, 32875, Note_on_c, 2, 78, 0
4, 32880, Note_on_c, 2, 76, 84
4, 32935, Note_on_c, 2, 76, 0
4, 32940, Note_on_c, 2, 76, 84
4, 32995, Note_on_c, 2, 76, 0
4, 33000, Note_on_c, 2, 76, 84
4, 33055, Note_on_c, 2, 76, 0
4, 33060, Note_on_c, 2, 76, 84
4, 33090, Note_on_c, 2, 78, 84
4, 33095, Note_on_c, 2, 76, 0
4, 33115, Note_on_c, 2, 78, 0
4, 33120, Note_on_c, 2, 80, 84
4, 33175, Note_on_c, 2, 80, 0
4, 33180, Note_on_c, 2, 80, 84
4, 33235, Note_on_c, 2, 80, 0
4, 33240, Note_on_c, 2, 80, 84
4, 33295, Note_on_c, 2, 80, 0
4, 33300, Note_on_c, 2, 80, 84
4, 33330, Note_on_c, 2, 78, 84
4, 33335, Note_on_c, 2, 80, 0
4, 33355, Note_on_c, 2, 78, 0
4, 33360, Note_on_c, 2, 76, 84
4, 33415, Note_on_c, 2, 76, 0
4, 33420, Note_on_c, 2, 76, 84
4, 33475, Note_on_c, 2, 76, 0
4, 33480, Note_on_c, 2, 76, 84
4, 33535, Note_on_c, 2, 76, 0
4, 33540, Note_on_c, 2, 76, 84
4, 33570, Note_on_c, 2, 78, 84
4, 33575, Note_on_c, 2, 76, 0
4, 33595, Note_on_c, 2, 78, 0
4, 33600, Note_on_c, 2, 80, 84
4, 33655, Note_on_c, 2, 80, 0
4, 33660, Note_on_c, 2, 80, 84
4, 33715, Note_on_c, 2, 80, 0
4, 33720, Note_on_c, 2, 80, 84
4, 33775, Note_on_c, 2, 80, 0
4, 33780, Note_on_c, 2, 78, 84
4, 33810, Note_on_c, 2, 76, 84
4, 33815, Note_on_c, 2, 78, 0
4, 33835, Note_on_c, 2, 76, 0
4, 33840, Control_c, 2, 6, 70
4, 33840, Note_on_c, 2, 75, 84
4, 33955, Note_on_c, 2, 75, 0
4, 33956, Control_c, 2, 6, 64
4, 36480, Note_on_c, 2, 80, 84
4, 36535, Note_on_c, 2, 80, 0
4, 36540, Note_on_c, 2, 78, 84
4, 36570, Note_on_c, 2, 76, 84
4, 36575, Note_on_c, 2, 78, 0
4, 36595, Note_on_c, 2, 76, 0
4, 36600, Note_on_c, 2, 78, 84
4, 36655, Note_on_c, 2, 78, 0
4, 36660, Note_on_c, 2, 80, 84
4, 36715, Note_on_c, 2, 80, 0
4, 36720, Note_on_c, 2, 81, 84
4, 36775, Note_on_c, 2, 81, 0
4, 36780, Control_c, 2, 6, 70
4, 36780, Note_on_c, 2, 80, 84
4, 36895, Note_on_c, 2, 80, 0
4, 36896, Control_c, 2, 6, 64
4, 36900, Note_on_c, 2, 80, 84
4, 36955, Note_on_c, 2, 80, 0
4, 36960, Note_on_c, 2, 80, 84
4, 37015, Note_on_c, 2, 80, 0
4, 37020, Note_on_c, 2, 78, 84
4, 37050, Note_on_c, 2, 76, 84
4, 37055, Note_on_c, 2, 78, 0
4, 37075, Note_on_c, 2, 76, 0
4, 37080, Note_on_c, 2, 78, 84
4, 37135, Note_on_c, 2, 78, 0
4, 37140, Note_on_c, 2, 80, 84
4, 37195, Note_on_c, 2, 80, 0
4, 37200, Note_on_c, 2, 81, 84
4, 37255, Note_on_c, 2, 81, 0
4, 37260, Control_c, 2, 6, 70
4, 37260, Note_on_c, 2, 80, 84
4, 37375, Note_on_c, 2, 80, 0
4, 37376, Control_c, 2, 6, 64
4, 37380, Note_on_c, 2, 80, 84
4, 37435, Note_on_c, 2, 80, 0
4, 37440, Note_on_c, 2, 81, 84
4, 37495, Note_on_c, 2, 81, 0
4, 37500, Control_c, 2, 6, 70
4, 37500, Note_on_c, 2, 80, 84
4, 37615, Note_on_c, 2, 80, 0
4, 37616, Control_c, 2, 6, 64
4, 37620, Note_on_c, 2, 78, 84
4, 37675, Note_on_c, 2, 78, 0
4, 37680, Control_c, 2, 6, 70
4, 37680, Note_on_c, 2, 76, 84
4, 37795, Note_on_c, 2, 76, 0
4, 37800, Note_on_c, 2, 75, 84
4, 37915, Note_on_c, 2, 75, 0
4, 37920, Note_on_c, 2, 76, 84
4, 38035, Note_on_c, 2, 76, 0
4, 38040, Control_c, 2, 6, 64
4, 38100, Note_on_c, 2, 80, 84
4, 38155, Note_on_c, 2, 80, 0
4, 38160, Note_on_c, 2, 80, 84
4, 38215, Note_on_c, 2, 80, 0
4, 38220, Note_on_c, 2, 78, 84
4, 38250, Note_on_c, 2, 76, 84
4, 38255, Note_on_c, 2, 78, 0
4, 38275, Note_on_c, 2, 76, 0
4, 38280, Note_on_c, 2, 78, 84
4, 38335, Note_on_c, 2, 78, 0
4, 38340, Note_on_c, 2, 80, 84
4, 38395, Note_on_c, 2, 80, 0
4, 38400, Note_on_c, 2, 81, 84
4, 38455, Note_on_c, 2, 81, 0
4, 38460, Control_c, 2, 6, 70
4, 38460, Note_on_c, 2, 80, 84
4, 38575, Note_on_c, 2, 80, 0
4, 38576, Control_c, 2, 6, 64
4, 38580, Note_on_c, 2, 76, 84
4, 38635, Note_on_c, 2, 76, 0
4, 38640, Note_on_c, 2, 80, 84
4, 38695, Note_on_c, 2, 80, 0
4, 38700, Note_on_c, 2, 78, 84
4, 38730, Note_on_c, 2, 76, 84
4, 38735, Note_on_c, 2, 78, 0
4, 38755, Note_on_c, 2, 76, 0
4, 38760, Note_on_c, 2, 78, 84
4, 38815, Note_on_c, 2, 78, 0
4, 38820, Note_on_c, 2, 80, 84
4, 38875, Note_on_c, 2, 80, 0
4, 38880, Note_on_c, 2, 81, 84
4, 38935, Note_on_c, 2, 81, 0
4, 38940, Control_c, 2, 6, 70
4, 38940, Note_on_c, 2, 80, 84
4, 39055, Note_on_c, 2, 80, 0
4, 39056, Control_c, 2, 6, 64
4, 39060, Note_on_c, 2, 80, 84
4, 39115, Note_on_c, 2, 80, 0
4, 39120, Note_on_c, 2, 81, 84
4, 39175, Note_on_c, 2, 81, 0
4, 39180, Control_c, 2, 6, 70
4, 39180, Note_on_c, 2, 80, 84
4, 39295, Note_on_c, 2, 80, 0
4, 39296, Control_c, 2, 6, 64
4, 39300, Note_on_c, 2, 78, 84
4, 39355, Note_on_c, 2, 78, 0
4, 39360, Control_c, 2, 6, 70
4, 39360, Note_on_c, 2, 76, 84
4, 39475, Note_on_c, 2, 76, 0
4, 39480, Note_on_c, 2, 75, 84
4, 39595, Note_on_c, 2, 75, 0
4, 39600, Note_on_c, 2, 76, 84
4, 39835, Note_on_c, 2, 76, 0
4, 39836, Control_c, 2, 6, 64
4, 40080, Program_c, 2, 0
4, 40080, Control_c, 2, 7, 100
4, 40080, Control_c, 2, 10, 64
4, 40080, Control_c, 2, 93, 0
4, 40080, Control_c, 2, 91, 40
4, 40081, Text_t, "Non Registered Parameter Numbers"
4, 40081, Text_t, "For Roland SC-55 Vibrato"
4, 40081, Text_t, "Set up NRPN for Vibrate Rate"
4, 40082, Control_c, 2, 99, 1
4, 40083, Control_c, 2, 98, 8
4, 40084, Text_t, "Data Entry Command"
4, 40084, Control_c, 2, 6, 64
4, 40085, Text_t, "Set up NRPN for Vibrate Delay"
4, 40086, Control_c, 2, 99, 1
4, 40087, Control_c, 2, 98, 10
4, 40088, Text_t, "Data Entry Command"
4, 40088, Control_c, 2, 6, 64
4, 40089, Text_t, "Set up NRPN for Vibrate Depth"
4, 40090, Control_c, 2, 99, 1
4, 40091, Control_c, 2, 98, 9
4, 40092, Text_t, "Data Entry Command; Vibrato ON"
4, 40092, Control_c, 2, 6, 64
4, 40093, Pitch_bend_c, 2, 8192
4, 40093, End_track
5, 0, Start_track
5, 0, MIDI_port, 0
5, 0, Title_t, "Viola"
5, 0, Program_c, 3, 41
5, 0, Control_c, 3, 7, 50
5, 0, Control_c, 3, 10, 127
5, 0, Control_c, 3, 93, 0
5, 0, Control_c, 3, 91, 120
5, 1, Text_t, "Non Registered Parameter Numbers"
5, 1, Text_t, "For Roland SC-55 Vibrato"
5, 1, Text_t, "Set up NRPN for Vibrate Rate"
5, 2, Control_c, 3, 99, 1
5, 3, Control_c, 3, 98, 8
5, 4, Text_t, "Data Entry Command"
5, 4, Control_c, 3, 6, 64
5, 5, Text_t, "Set up NRPN for Vibrate Delay"
5, 6, Control_c, 3, 99, 1
5, 7, Control_c, 3, 98, 10
5, 8, Text_t, "Data Entry Command"
5, 8, Control_c, 3, 6, 14
5, 9, Text_t, "Set up NRPN for Vibrate Depth"
5, 10, Control_c, 3, 99, 1
5, 11, Control_c, 3, 98, 9
5, 12, Text_t, "Data Entry Command; Vibrato ON"
5, 12, Control_c, 3, 6, 64
5, 420, Program_c, 3, 40
5, 420, Note_on_c, 3, 68, 84
5, 480, Note_on_c, 3, 68, 0
5, 480, Note_on_c, 3, 71, 84
5, 535, Note_on_c, 3, 71, 0
5, 540, Note_on_c, 3, 71, 84
5, 595, Note_on_c, 3, 71, 0
5, 600, Note_on_c, 3, 71, 84
5, 655, Note_on_c, 3, 71, 0
5, 660, Note_on_c, 3, 71, 84
5, 715, Note_on_c, 3, 71, 0
5, 720, Note_on_c, 3, 64, 84
5, 720, Control_c, 3, 6, 70
5, 895, Note_on_c, 3, 64, 0
5, 896, Control_c, 3, 6, 64
5, 900, Note_on_c, 3, 68, 84
5, 930, Note_on_c, 3, 69, 84
5, 935, Note_on_c, 3, 68, 0
5, 955, Note_on_c, 3, 69, 0
5, 960, Note_on_c, 3, 71, 84
5, 1015, Note_on_c, 3, 71, 0
5, 1020, Note_on_c, 3, 71, 84
5, 1075, Note_on_c, 3, 71, 0
5, 1080, Note_on_c, 3, 71, 84
5, 1135, Note_on_c, 3, 71, 0
5, 1140, Note_on_c, 3, 71, 84
5, 1195, Note_on_c, 3, 71, 0
5, 1200, Note_on_c, 3, 64, 84
5, 1200, Control_c, 3, 6, 70
5, 1375, Note_on_c, 3, 64, 0
5, 1376, Control_c, 3, 6, 64
5, 1380, Note_on_c, 3, 68, 84
5, 1410, Note_on_c, 3, 69, 84
5, 1415, Note_on_c, 3, 68, 0
5, 1435, Note_on_c, 3, 69, 0
5, 1440, Note_on_c, 3, 71, 84
5, 1495, Note_on_c, 3, 71, 0
5, 1500, Note_on_c, 3, 71, 84
5, 1555, Note_on_c, 3, 71, 0
5, 1560, Note_on_c, 3, 73, 84
5, 1615, Note_on_c, 3, 73, 0
5, 1620, Note_on_c, 3, 73, 84
5, 1675, Note_on_c, 3, 73, 0
5, 1680, Control_c, 3, 6, 70
5, 1680, Note_on_c, 3, 66, 84
5, 1795, Note_on_c, 3, 66, 0
5, 1796, Control_c, 3, 6, 64
5, 1860, Note_on_c, 3, 68, 65
5, 1915, Note_on_c, 3, 68, 0
5, 1920, Note_on_c, 3, 71, 65
5, 1975, Note_on_c, 3, 71, 0
5, 1980, Note_on_c, 3, 71, 65
5, 2035, Note_on_c, 3, 71, 0
5, 2040, Note_on_c, 3, 71, 65
5, 2095, Note_on_c, 3, 71, 0
5, 2100, Note_on_c, 3, 71, 65
5, 2155, Note_on_c, 3, 71, 0
5, 2160, Control_c, 3, 6, 70
5, 2160, Note_on_c, 3, 64, 65
5, 2335, Note_on_c, 3, 64, 0
5, 2336, Control_c, 3, 6, 64
5, 2340, Note_on_c, 3, 68, 65
5, 2370, Note_on_c, 3, 69, 65
5, 2375, Note_on_c, 3, 68, 0
5, 2395, Note_on_c, 3, 69, 0
5, 2400, Note_on_c, 3, 71, 65
5, 2455, Note_on_c, 3, 71, 0
5, 2460, Note_on_c, 3, 71, 65
5, 2515, Note_on_c, 3, 71, 0
5, 2520, Note_on_c, 3, 71, 65
5, 2575, Note_on_c, 3, 71, 0
5, 2580, Note_on_c, 3, 71, 65
5, 2635, Note_on_c, 3, 71, 0
5, 2640, Control_c, 3, 6, 70
5, 2640, Note_on_c, 3, 64, 65
5, 2815, Note_on_c, 3, 64, 0
5, 2816, Control_c, 3, 6, 64
5, 2820, Note_on_c, 3, 68, 65
5, 2850, Note_on_c, 3, 69, 65
5, 2855, Note_on_c, 3, 68, 0
5, 2875, Note_on_c, 3, 69, 0
5, 2880, Note_on_c, 3, 71, 65
5, 2935, Note_on_c, 3, 71, 0
5, 2940, Note_on_c, 3, 71, 65
5, 2995, Note_on_c, 3, 71, 0
5, 3000, Note_on_c, 3, 73, 65
5, 3055, Note_on_c, 3, 73, 0
5, 3060, Note_on_c, 3, 73, 65
5, 3115, Note_on_c, 3, 73, 0
5, 3120, Control_c, 3, 6, 70
5, 3120, Note_on_c, 3, 66, 65
5, 3235, Note_on_c, 3, 66, 0
5, 3236, Control_c, 3, 6, 64
5, 3300, Note_on_c, 3, 68, 84
5, 3355, Note_on_c, 3, 68, 0
5, 3360, Control_c, 3, 6, 70
5, 3360, Note_on_c, 3, 64, 84
5, 3475, Note_on_c, 3, 64, 0
5, 3480, Note_on_c, 3, 64, 84
5, 3595, Note_on_c, 3, 64, 0
5, 3596, Control_c, 3, 6, 64
5, 3600, Note_on_c, 3, 69, 84
5, 3655, Note_on_c, 3, 69, 0
5, 3660, Control_c, 3, 6, 70
5, 3660, Note_on_c, 3, 64, 84
5, 3775, Note_on_c, 3, 64, 0
5, 3779, Control_c, 3, 6, 64
5, 3780, Note_on_c, 3, 64, 84
5, 3835, Note_on_c, 3, 64, 0
5, 3840, Control_c, 3, 6, 70
5, 3840, Note_on_c, 3, 64, 84
5, 3955, Note_on_c, 3, 64, 0
5, 3960, Note_on_c, 3, 64, 84
5, 4075, Note_on_c, 3, 64, 0
5, 4076, Control_c, 3, 6, 64
5, 4080, Note_on_c, 3, 69, 84
5, 4135, Note_on_c, 3, 69, 0
5, 4140, Control_c, 3, 6, 70
5, 4140, Note_on_c, 3, 64, 84
5, 4255, Note_on_c, 3, 64, 0
5, 4259, Control_c, 3, 6, 64
5, 4260, Note_on_c, 3, 64, 84
5, 4315, Note_on_c, 3, 64, 0
5, 4320, Note_on_c, 3, 69, 84
5, 4375, Note_on_c, 3, 69, 0
5, 4380, Control_c, 3, 6, 70
5, 4380, Note_on_c, 3, 64, 84
5, 4495, Note_on_c, 3, 64, 0
5, 4499, Control_c, 3, 6, 64
5, 4500, Note_on_c, 3, 75, 84
5, 4555, Note_on_c, 3, 75, 0
5, 4560, Control_c, 3, 6, 70
5, 4560, Note_on_c, 3, 71, 84
5, 4675, Note_on_c, 3, 71, 0
5, 4680, Note_on_c, 3, 71, 84
5, 4795, Note_on_c, 3, 71, 0
5, 4800, Note_on_c, 3, 68, 84
5, 4915, Note_on_c, 3, 68, 0
5, 4916, Control_c, 3, 6, 64
5, 4980, Note_on_c, 3, 71, 65
5, 5035, Note_on_c, 3, 71, 0
5, 5040, Control_c, 3, 6, 70
5, 5040, Note_on_c, 3, 64, 65
5, 5155, Note_on_c, 3, 64, 0
5, 5160, Note_on_c, 3, 64, 65
5, 5275, Note_on_c, 3, 64, 0
5, 5276, Control_c, 3, 6, 64
5, 5280, Note_on_c, 3, 69, 65
5, 5335, Note_on_c, 3, 69, 0
5, 5340, Control_c, 3, 6, 70
5, 5340, Note_on_c, 3, 64, 65
5, 5455, Note_on_c, 3, 64, 0
5, 5456, Control_c, 3, 6, 64
5, 5460, Note_on_c, 3, 71, 65
5, 5515, Note_on_c, 3, 71, 0
5, 5520, Control_c, 3, 6, 70
5, 5520, Note_on_c, 3, 64, 65
5, 5635, Note_on_c, 3, 64, 0
5, 5640, Note_on_c, 3, 64, 65
5, 5755, Note_on_c, 3, 64, 0
5, 5756, Control_c, 3, 6, 64
5, 5760, Note_on_c, 3, 69, 65
5, 5815, Note_on_c, 3, 69, 0
5, 5820, Control_c, 3, 6, 70
5, 5820, Note_on_c, 3, 64, 65
5, 5935, Note_on_c, 3, 64, 0
5, 5936, Control_c, 3, 6, 64
5, 5940, Note_on_c, 3, 64, 65
5, 5995, Note_on_c, 3, 64, 0
5, 6000, Note_on_c, 3, 69, 65
5, 6055, Note_on_c, 3, 69, 0
5, 6060, Control_c, 3, 6, 70
5, 6060, Note_on_c, 3, 64, 65
5, 6175, Note_on_c, 3, 64, 0
5, 6176, Control_c, 3, 6, 64
5, 6180, Note_on_c, 3, 75, 65
5, 6235, Note_on_c, 3, 75, 0
5, 6240, Control_c, 3, 6, 70
5, 6240, Note_on_c, 3, 71, 65
5, 6355, Note_on_c, 3, 71, 0
5, 6360, Note_on_c, 3, 71, 65
5, 6475, Note_on_c, 3, 71, 0
5, 6480, Note_on_c, 3, 68, 65
5, 6595, Note_on_c, 3, 68, 0
5, 6596, Control_c, 3, 6, 64
5, 13380, Note_on_c, 3, 71, 84
5, 13435, Note_on_c, 3, 71, 0
5, 13440, Control_c, 3, 6, 70
5, 13440, Note_on_c, 3, 64, 84
5, 13555, Note_on_c, 3, 64, 0
5, 13560, Note_on_c, 3, 64, 84
5, 13675, Note_on_c, 3, 64, 0
5, 13676, Control_c, 3, 6, 64
5, 13680, Note_on_c, 3, 69, 84
5, 13735, Note_on_c, 3, 69, 0
5, 13740, Control_c, 3, 6, 70
5, 13740, Note_on_c, 3, 64, 84
5, 13855, Note_on_c, 3, 64, 0
5, 13856, Control_c, 3, 6, 70
5, 13860, Note_on_c, 3, 71, 84
5, 13915, Note_on_c, 3, 71, 0
5, 13920, Control_c, 3, 6, 70
5, 13920, Note_on_c, 3, 64, 84
5, 14035, Note_on_c, 3, 64, 0
5, 14040, Note_on_c, 3, 64, 84
5, 14155, Note_on_c, 3, 64, 0
5, 14156, Control_c, 3, 6, 64
5, 14160, Note_on_c, 3, 69, 84
5, 14215, Note_on_c, 3, 69, 0
5, 14220, Control_c, 3, 6, 70
5, 14220, Note_on_c, 3, 64, 84
5, 14335, Note_on_c, 3, 64, 0
5, 14336, Control_c, 3, 6, 64
5, 14340, Note_on_c, 3, 71, 84
5, 14395, Note_on_c, 3, 71, 0
5, 14400, Control_c, 3, 6, 70
5, 14400, Note_on_c, 3, 64, 84
5, 14515, Note_on_c, 3, 64, 0
5, 14516, Control_c, 3, 6, 64
5, 14520, Note_on_c, 3, 68, 84
5, 14575, Note_on_c, 3, 68, 0
5, 14580, Note_on_c, 3, 71, 84
5, 14635, Note_on_c, 3, 71, 0
5, 14640, Control_c, 3, 6, 70
5, 14640, Note_on_c, 3, 71, 84
5, 14755, Note_on_c, 3, 71, 0
5, 14760, Note_on_c, 3, 71, 84
5, 14875, Note_on_c, 3, 71, 0
5, 14876, Control_c, 3, 6, 64
5, 14880, Note_on_c, 3, 68, 84
5, 14935, Note_on_c, 3, 68, 0
5, 14940, Program_c, 3, 41
5, 14940, Note_on_c, 3, 59, 84
5, 14995, Note_on_c, 3, 59, 0
5, 15000, Note_on_c, 3, 59, 84
5, 15055, Note_on_c, 3, 59, 0
5, 15060, Note_on_c, 3, 59, 84
5, 15115, Note_on_c, 3, 59, 0
5, 15120, Note_on_c, 3, 59, 84
5, 15175, Note_on_c, 3, 59, 0
5, 15180, Note_on_c, 3, 59, 84
5, 15235, Note_on_c, 3, 59, 0
5, 15240, Note_on_c, 3, 59, 84
5, 15295, Note_on_c, 3, 59, 0
5, 15300, Note_on_c, 3, 59, 84
5, 15355, Note_on_c, 3, 59, 0
5, 15360, Note_on_c, 3, 59, 84
5, 15415, Note_on_c, 3, 59, 0
5, 15420, Note_on_c, 3, 59, 84
5, 15475, Note_on_c, 3, 59, 0
5, 15480, Note_on_c, 3, 59, 84
5, 15535, Note_on_c, 3, 59, 0
5, 15540, Note_on_c, 3, 59, 84
5, 15595, Note_on_c, 3, 59, 0
5, 15600, Note_on_c, 3, 59, 84
5, 15655, Note_on_c, 3, 59, 0
5, 15660, Note_on_c, 3, 59, 84
5, 15715, Note_on_c, 3, 59, 0
5, 15720, Note_on_c, 3, 59, 84
5, 15775, Note_on_c, 3, 59, 0
5, 15780, Note_on_c, 3, 59, 84
5, 15835, Note_on_c, 3, 59, 0
5, 15840, Note_on_c, 3, 59, 84
5, 15895, Note_on_c, 3, 59, 0
5, 15900, Program_c, 3, 40
5, 15900, Note_on_c, 3, 66, 84
5, 15955, Note_on_c, 3, 66, 0
5, 15960, Note_on_c, 3, 66, 84
5, 16015, Note_on_c, 3, 66, 0
5, 16020, Note_on_c, 3, 66, 84
5, 16075, Note_on_c, 3, 66, 0
5, 16080, Note_on_c, 3, 66, 84
5, 16135, Note_on_c, 3, 66, 0
5, 16140, Note_on_c, 3, 66, 84
5, 16195, Note_on_c, 3, 66, 0
5, 16200, Note_on_c, 3, 66, 84
5, 16255, Note_on_c, 3, 66, 0
5, 16260, Note_on_c, 3, 66, 84
5, 16315, Note_on_c, 3, 66, 0
5, 16320, Note_on_c, 3, 66, 84
5, 16375, Note_on_c, 3, 66, 0
5, 16380, Note_on_c, 3, 66, 84
5, 16435, Note_on_c, 3, 66, 0
5, 16440, Note_on_c, 3, 66, 84
5, 16495, Note_on_c, 3, 66, 0
5, 16500, Note_on_c, 3, 66, 84
5, 16555, Note_on_c, 3, 66, 0
5, 16560, Note_on_c, 3, 63, 84
5, 16615, Note_on_c, 3, 63, 0
5, 16620, Note_on_c, 3, 63, 84
5, 16675, Note_on_c, 3, 63, 0
5, 16680, Note_on_c, 3, 63, 84
5, 16735, Note_on_c, 3, 63, 0
5, 16740, Note_on_c, 3, 63, 84
5, 16795, Note_on_c, 3, 63, 0
5, 16800, Program_c, 3, 41
5, 16800, Note_on_c, 3, 59, 84
5, 16855, Note_on_c, 3, 59, 0
5, 16860, Note_on_c, 3, 59, 84
5, 16915, Note_on_c, 3, 59, 0
5, 16920, Note_on_c, 3, 59, 84
5, 16975, Note_on_c, 3, 59, 0
5, 16980, Note_on_c, 3, 59, 84
5, 17035, Note_on_c, 3, 59, 0
5, 17040, Note_on_c, 3, 59, 84
5, 17095, Note_on_c, 3, 59, 0
5, 17100, Note_on_c, 3, 59, 84
5, 17155, Note_on_c, 3, 59, 0
5, 17160, Note_on_c, 3, 59, 84
5, 17215, Note_on_c, 3, 59, 0
5, 17220, Note_on_c, 3, 59, 84
5, 17275, Note_on_c, 3, 59, 0
5, 17280, Note_on_c, 3, 59, 84
5, 17335, Note_on_c, 3, 59, 0
5, 17340, Note_on_c, 3, 59, 84
5, 17395, Note_on_c, 3, 59, 0
5, 17400, Note_on_c, 3, 59, 84
5, 17455, Note_on_c, 3, 59, 0
5, 17460, Note_on_c, 3, 59, 84
5, 17515, Note_on_c, 3, 59, 0
5, 17520, Note_on_c, 3, 59, 84
5, 17575, Note_on_c, 3, 59, 0
5, 17580, Note_on_c, 3, 59, 84
5, 17635, Note_on_c, 3, 59, 0
5, 17640, Note_on_c, 3, 59, 84
5, 17695, Note_on_c, 3, 59, 0
5, 17700, Note_on_c, 3, 59, 84
5, 17755, Note_on_c, 3, 59, 0
5, 17760, Control_c, 3, 6, 70
5, 17760, Note_on_c, 3, 59, 84
5, 19195, Note_on_c, 3, 59, 0
5, 19200, Note_on_c, 3, 59, 84
5, 19435, Note_on_c, 3, 59, 0
5, 19440, Note_on_c, 3, 59, 84
5, 19555, Note_on_c, 3, 59, 0
5, 19556, Control_c, 3, 6, 64
5, 19620, Program_c, 3, 40
5, 19620, Note_on_c, 3, 66, 84
5, 19675, Note_on_c, 3, 66, 0
5, 19680, Program_c, 3, 41
5, 19680, Control_c, 3, 6, 70
5, 19680, Note_on_c, 3, 59, 84
5, 19795, Note_on_c, 3, 59, 0
5, 19800, Note_on_c, 3, 59, 84
5, 19915, Note_on_c, 3, 59, 0
5, 19920, Note_on_c, 3, 59, 84
5, 20035, Note_on_c, 3, 59, 0
5, 20040, Note_on_c, 3, 59, 84
5, 20155, Note_on_c, 3, 59, 0
5, 20160, Note_on_c, 3, 59, 84
5, 20275, Note_on_c, 3, 59, 0
5, 20280, Note_on_c, 3, 59, 84
5, 20395, Note_on_c, 3, 59, 0
5, 20396, Control_c, 3, 6, 64
5, 20400, Program_c, 3, 40
5, 20400, Note_on_c, 3, 64, 84
5, 20455, Note_on_c, 3, 64, 0
5, 20460, Program_c, 3, 41
5, 20460, Control_c, 3, 6, 70
5, 20460, Note_on_c, 3, 59, 84
5, 20575, Note_on_c, 3, 59, 0
5, 20576, Control_c, 3, 6, 64
5, 20580, Program_c, 3, 40
5, 20580, Note_on_c, 3, 66, 84
5, 20635, Note_on_c, 3, 66, 0
5, 20640, Note_on_c, 3, 64, 84
5, 20695, Note_on_c, 3, 64, 0
5, 20700, Program_c, 3, 41
5, 20700, Note_on_c, 3, 59, 84
5, 20755, Note_on_c, 3, 59, 0
5, 20760, Program_c, 3, 40
5, 20760, Note_on_c, 3, 63, 84
5, 20815, Note_on_c, 3, 63, 0
5, 20820, Note_on_c, 3, 70, 84
5, 20875, Note_on_c, 3, 70, 0
5, 20880, Control_c, 3, 6, 70
5, 20880, Note_on_c, 3, 66, 84
5, 20995, Note_on_c, 3, 66, 0
5, 21000, Note_on_c, 3, 66, 84
5, 21115, Note_on_c, 3, 66, 0
5, 21116, Control_c, 3, 6, 70
5, 21120, Note_on_c, 3, 63, 84
5, 21150, Note_on_c, 3, 63, 0
5, 21150, Program_c, 3, 41
5, 21150, Note_on_c, 3, 59, 84
5, 21162, Note_on_c, 3, 59, 0
5, 21165, Note_on_c, 3, 59, 84
5, 21177, Note_on_c, 3, 59, 0
5, 21180, Note_on_c, 3, 59, 84
5, 21192, Note_on_c, 3, 59, 0
5, 21195, Note_on_c, 3, 59, 84
5, 21207, Note_on_c, 3, 59, 0
5, 21210, Note_on_c, 3, 59, 84
5, 21222, Note_on_c, 3, 59, 0
5, 21225, Note_on_c, 3, 59, 84
5, 21237, Note_on_c, 3, 59, 0
5, 21240, Note_on_c, 3, 59, 84
5, 21252, Note_on_c, 3, 59, 0
5, 21255, Note_on_c, 3, 59, 84
5, 21267, Note_on_c, 3, 59, 0
5, 21270, Note_on_c, 3, 59, 84
5, 21282, Note_on_c, 3, 59, 0
5, 21285, Note_on_c, 3, 59, 84
5, 21297, Note_on_c, 3, 59, 0
5, 21300, Note_on_c, 3, 59, 84
5, 21312, Note_on_c, 3, 59, 0
5, 21315, Note_on_c, 3, 59, 84
5, 21327, Note_on_c, 3, 59, 0
5, 21330, Note_on_c, 3, 59, 84
5, 21342, Note_on_c, 3, 59, 0
5, 21345, Note_on_c, 3, 59, 84
5, 21357, Note_on_c, 3, 59, 0
5, 21360, Note_on_c, 3, 59, 84
5, 21372, Note_on_c, 3, 59, 0
5, 21375, Note_on_c, 3, 59, 84
5, 21387, Note_on_c, 3, 59, 0
5, 21390, Note_on_c, 3, 59, 84
5, 21402, Note_on_c, 3, 59, 0
5, 21405, Note_on_c, 3, 59, 84
5, 21417, Note_on_c, 3, 59, 0
5, 21420, Note_on_c, 3, 59, 84
5, 21432, Note_on_c, 3, 59, 0
5, 21435, Note_on_c, 3, 59, 84
5, 21447, Note_on_c, 3, 59, 0
5, 21450, Note_on_c, 3, 59, 84
5, 21462, Note_on_c, 3, 59, 0
5, 21465, Note_on_c, 3, 59, 84
5, 21477, Note_on_c, 3, 59, 0
5, 21480, Note_on_c, 3, 59, 84
5, 21492, Note_on_c, 3, 59, 0
5, 21495, Note_on_c, 3, 59, 84
5, 21507, Note_on_c, 3, 59, 0
5, 21510, Note_on_c, 3, 59, 84
5, 21522, Note_on_c, 3, 59, 0
5, 21525, Note_on_c, 3, 59, 84
5, 21537, Note_on_c, 3, 59, 0
5, 21540, Note_on_c, 3, 59, 84
5, 21552, Note_on_c, 3, 59, 0
5, 21555, Note_on_c, 3, 59, 84
5, 21567, Note_on_c, 3, 59, 0
5, 21570, Note_on_c, 3, 59, 84
5, 21582, Note_on_c, 3, 59, 0
5, 21585, Note_on_c, 3, 59, 84
5, 21597, Note_on_c, 3, 59, 0
5, 21600, Note_on_c, 3, 59, 84
5, 21655, Note_on_c, 3, 59, 0
5, 21720, Note_on_c, 3, 59, 84
5, 21775, Note_on_c, 3, 59, 0
5, 21840, Note_on_c, 3, 59, 84
5, 21895, Note_on_c, 3, 59, 0
5, 21960, Note_on_c, 3, 59, 84
5, 22015, Note_on_c, 3, 59, 0
5, 22080, Note_on_c, 3, 59, 84
5, 22092, Note_on_c, 3, 59, 0
5, 22095, Note_on_c, 3, 59, 84
5, 22107, Note_on_c, 3, 59, 0
5, 22110, Note_on_c, 3, 59, 84
5, 22122, Note_on_c, 3, 59, 0
5, 22125, Note_on_c, 3, 59, 84
5, 22137, Note_on_c, 3, 59, 0
5, 22140, Note_on_c, 3, 59, 84
5, 22152, Note_on_c, 3, 59, 0
5, 22155, Note_on_c, 3, 59, 84
5, 22167, Note_on_c, 3, 59, 0
5, 22170, Note_on_c, 3, 59, 84
5, 22182, Note_on_c, 3, 59, 0
5, 22185, Note_on_c, 3, 59, 84
5, 22197, Note_on_c, 3, 59, 0
5, 22200, Note_on_c, 3, 59, 84
5, 22212, Note_on_c, 3, 59, 0
5, 22215, Note_on_c, 3, 59, 84
5, 22227, Note_on_c, 3, 59, 0
5, 22230, Note_on_c, 3, 59, 84
5, 22242, Note_on_c, 3, 59, 0
5, 22245, Note_on_c, 3, 59, 84
5, 22257, Note_on_c, 3, 59, 0
5, 22260, Note_on_c, 3, 59, 84
5, 22272, Note_on_c, 3, 59, 0
5, 22275, Note_on_c, 3, 59, 84
5, 22287, Note_on_c, 3, 59, 0
5, 22290, Note_on_c, 3, 59, 84
5, 22302, Note_on_c, 3, 59, 0
5, 22305, Note_on_c, 3, 59, 84
5, 22317, Note_on_c, 3, 59, 0
5, 22320, Note_on_c, 3, 57, 84
5, 22332, Note_on_c, 3, 57, 0
5, 22335, Note_on_c, 3, 57, 84
5, 22347, Note_on_c, 3, 57, 0
5, 22350, Note_on_c, 3, 57, 84
5, 22362, Note_on_c, 3, 57, 0
5, 22365, Note_on_c, 3, 57, 84
5, 22377, Note_on_c, 3, 57, 0
5, 22380, Note_on_c, 3, 57, 84
5, 22392, Note_on_c, 3, 57, 0
5, 22395, Note_on_c, 3, 57, 84
5, 22407, Note_on_c, 3, 57, 0
5, 22410, Note_on_c, 3, 57, 84
5, 22422, Note_on_c, 3, 57, 0
5, 22425, Note_on_c, 3, 57, 84
5, 22437, Note_on_c, 3, 57, 0
5, 22440, Note_on_c, 3, 57, 84
5, 22452, Note_on_c, 3, 57, 0
5, 22455, Note_on_c, 3, 57, 84
5, 22467, Note_on_c, 3, 57, 0
5, 22470, Note_on_c, 3, 57, 84
5, 22482, Note_on_c, 3, 57, 0
5, 22485, Note_on_c, 3, 57, 84
5, 22497, Note_on_c, 3, 57, 0
5, 22500, Note_on_c, 3, 57, 84
5, 22512, Note_on_c, 3, 57, 0
5, 22515, Note_on_c, 3, 57, 84
5, 22527, Note_on_c, 3, 57, 0
5, 22530, Note_on_c, 3, 57, 84
5, 22542, Note_on_c, 3, 57, 0
5, 22545, Note_on_c, 3, 57, 84
5, 22557, Note_on_c, 3, 57, 0
5, 22560, Control_c, 3, 6, 70
5, 22560, Note_on_c, 3, 56, 84
5, 22675, Note_on_c, 3, 56, 0
5, 22676, Control_c, 3, 6, 64
5, 23040, Note_on_c, 3, 57, 84
5, 23052, Note_on_c, 3, 57, 0
5, 23055, Note_on_c, 3, 57, 84
5, 23067, Note_on_c, 3, 57, 0
5, 23070, Note_on_c, 3, 57, 84
5, 23082, Note_on_c, 3, 57, 0
5, 23085, Note_on_c, 3, 57, 84
5, 23097, Note_on_c, 3, 57, 0
5, 23100, Note_on_c, 3, 57, 84
5, 23112, Note_on_c, 3, 57, 0
5, 23115, Note_on_c, 3, 57, 84
5, 23127, Note_on_c, 3, 57, 0
5, 23130, Note_on_c, 3, 57, 84
5, 23142, Note_on_c, 3, 57, 0
5, 23145, Note_on_c, 3, 57, 84
5, 23157, Note_on_c, 3, 57, 0
5, 23160, Note_on_c, 3, 57, 84
5, 23172, Note_on_c, 3, 57, 0
5, 23175, Note_on_c, 3, 57, 84
5, 23187, Note_on_c, 3, 57, 0
5, 23190, Note_on_c, 3, 57, 84
5, 23202, Note_on_c, 3, 57, 0
5, 23205, Note_on_c, 3, 57, 84
5, 23217, Note_on_c, 3, 57, 0
5, 23220, Note_on_c, 3, 57, 84
5, 23232, Note_on_c, 3, 57, 0
5, 23235, Note_on_c, 3, 57, 84
5, 23247, Note_on_c, 3, 57, 0
5, 23250, Note_on_c, 3, 57, 84
5, 23262, Note_on_c, 3, 57, 0
5, 23265, Note_on_c, 3, 57, 84
5, 23277, Note_on_c, 3, 57, 0
5, 23280, Control_c, 3, 6, 70
5, 23280, Note_on_c, 3, 58, 84
5, 23395, Note_on_c, 3, 58, 0
5, 23396, Control_c, 3, 6, 64
5, 23760, Note_on_c, 3, 59, 84
5, 23772, Note_on_c, 3, 59, 0
5, 23775, Note_on_c, 3, 59, 84
5, 23787, Note_on_c, 3, 59, 0
5, 23790, Note_on_c, 3, 59, 84
5, 23802, Note_on_c, 3, 59, 0
5, 23805, Note_on_c, 3, 59, 84
5, 23817, Note_on_c, 3, 59, 0
5, 23820, Note_on_c, 3, 59, 84
5, 23832, Note_on_c, 3, 59, 0
5, 23835, Note_on_c, 3, 59, 84
5, 23847, Note_on_c, 3, 59, 0
5, 23850, Note_on_c, 3, 59, 84
5, 23862, Note_on_c, 3, 59, 0
5, 23865, Note_on_c, 3, 59, 84
5, 23877, Note_on_c, 3, 59, 0
5, 23880, Note_on_c, 3, 59, 84
5, 23892, Note_on_c, 3, 59, 0
5, 23895, Note_on_c, 3, 59, 84
5, 23907, Note_on_c, 3, 59, 0
5, 23910, Note_on_c, 3, 59, 84
5, 23922, Note_on_c, 3, 59, 0
5, 23925, Note_on_c, 3, 59, 84
5, 23937, Note_on_c, 3, 59, 0
5, 23940, Note_on_c, 3, 59, 84
5, 23952, Note_on_c, 3, 59, 0
5, 23955, Note_on_c, 3, 59, 84
5, 23967, Note_on_c, 3, 59, 0
5, 23970, Note_on_c, 3, 59, 84
5, 23982, Note_on_c, 3, 59, 0
5, 23985, Note_on_c, 3, 59, 84
5, 23997, Note_on_c, 3, 59, 0
5, 24000, Control_c, 3, 6, 70
5, 24000, Note_on_c, 3, 60, 84
5, 24115, Note_on_c, 3, 60, 0
5, 24116, Control_c, 3, 6, 64
5, 24480, Program_c, 3, 40
5, 24480, Note_on_c, 3, 61, 84
5, 24492, Note_on_c, 3, 61, 0
5, 24495, Note_on_c, 3, 61, 84
5, 24507, Note_on_c, 3, 61, 0
5, 24510, Note_on_c, 3, 61, 84
5, 24522, Note_on_c, 3, 61, 0
5, 24525, Note_on_c, 3, 61, 84
5, 24537, Note_on_c, 3, 61, 0
5, 24540, Note_on_c, 3, 61, 84
5, 24552, Note_on_c, 3, 61, 0
5, 24555, Note_on_c, 3, 61, 84
5, 24567, Note_on_c, 3, 61, 0
5, 24570, Note_on_c, 3, 61, 84
5, 24582, Note_on_c, 3, 61, 0
5, 24585, Note_on_c, 3, 61, 84
5, 24597, Note_on_c, 3, 61, 0
5, 24600, Note_on_c, 3, 61, 84
5, 24612, Note_on_c, 3, 61, 0
5, 24615, Note_on_c, 3, 61, 84
5, 24627, Note_on_c, 3, 61, 0
5, 24630, Note_on_c, 3, 61, 84
5, 24642, Note_on_c, 3, 61, 0
5, 24645, Note_on_c, 3, 61, 84
5, 24657, Note_on_c, 3, 61, 0
5, 24660, Note_on_c, 3, 61, 84
5, 24672, Note_on_c, 3, 61, 0
5, 24675, Note_on_c, 3, 61, 84
5, 24687, Note_on_c, 3, 61, 0
5, 24690, Note_on_c, 3, 61, 84
5, 24702, Note_on_c, 3, 61, 0
5, 24705, Note_on_c, 3, 61, 84
5, 24717, Note_on_c, 3, 61, 0
5, 24720, Control_c, 3, 6, 70
5, 24720, Note_on_c, 3, 61, 84
5, 24835, Note_on_c, 3, 61, 0
5, 24836, Control_c, 3, 6, 64
5, 24960, Program_c, 3, 41
5, 24960, Note_on_c, 3, 59, 84
5, 24972, Note_on_c, 3, 59, 0
5, 24975, Note_on_c, 3, 59, 84
5, 24987, Note_on_c, 3, 59, 0
5, 24990, Note_on_c, 3, 59, 84
5, 25002, Note_on_c, 3, 59, 0
5, 25005, Note_on_c, 3, 59, 84
5, 25017, Note_on_c, 3, 59, 0
5, 25020, Note_on_c, 3, 59, 84
5, 25032, Note_on_c, 3, 59, 0
5, 25035, Note_on_c, 3, 59, 84
5, 25047, Note_on_c, 3, 59, 0
5, 25050, Note_on_c, 3, 59, 84
5, 25062, Note_on_c, 3, 59, 0
5, 25065, Note_on_c, 3, 59, 84
5, 25077, Note_on_c, 3, 59, 0
5, 25080, Note_on_c, 3, 59, 84
5, 25092, Note_on_c, 3, 59, 0
5, 25095, Note_on_c, 3, 59, 84
5, 25107, Note_on_c, 3, 59, 0
5, 25110, Note_on_c, 3, 59, 84
5, 25122, Note_on_c, 3, 59, 0
5, 25125, Note_on_c, 3, 59, 84
5, 25137, Note_on_c, 3, 59, 0
5, 25140, Note_on_c, 3, 59, 84
5, 25152, Note_on_c, 3, 59, 0
5, 25155, Note_on_c, 3, 59, 84
5, 25167, Note_on_c, 3, 59, 0
5, 25170, Note_on_c, 3, 59, 84
5, 25182, Note_on_c, 3, 59, 0
5, 25185, Note_on_c, 3, 59, 84
5, 25197, Note_on_c, 3, 59, 0
5, 25200, Control_c, 3, 6, 70
5, 25200, Note_on_c, 3, 57, 84
5, 25315, Note_on_c, 3, 57, 0
5, 25316, Control_c, 3, 6, 64
5, 25440, Program_c, 3, 40
5, 25440, Note_on_c, 3, 68, 84
5, 25452, Note_on_c, 3, 68, 0
5, 25455, Note_on_c, 3, 68, 84
5, 25467, Note_on_c, 3, 68, 0
5, 25470, Note_on_c, 3, 68, 84
5, 25482, Note_on_c, 3, 68, 0
5, 25485, Note_on_c, 3, 68, 84
5, 25497, Note_on_c, 3, 68, 0
5, 25500, Note_on_c, 3, 68, 84
5, 25512, Note_on_c, 3, 68, 0
5, 25515, Note_on_c, 3, 68, 84
5, 25527, Note_on_c, 3, 68, 0
5, 25530, Note_on_c, 3, 68, 84
5, 25542, Note_on_c, 3, 68, 0
5, 25545, Note_on_c, 3, 68, 84
5, 25557, Note_on_c, 3, 68, 0
5, 25560, Note_on_c, 3, 68, 84
5, 25572, Note_on_c, 3, 68, 0
5, 25575, Note_on_c, 3, 68, 84
5, 25587, Note_on_c, 3, 68, 0
5, 25590, Note_on_c, 3, 68, 84
5, 25602, Note_on_c, 3, 68, 0
5, 25605, Note_on_c, 3, 68, 84
5, 25617, Note_on_c, 3, 68, 0
5, 25620, Note_on_c, 3, 68, 84
5, 25632, Note_on_c, 3, 68, 0
5, 25635, Note_on_c, 3, 68, 84
5, 25647, Note_on_c, 3, 68, 0
5, 25650, Note_on_c, 3, 68, 84
5, 25662, Note_on_c, 3, 68, 0
5, 25665, Note_on_c, 3, 68, 84
5, 25677, Note_on_c, 3, 68, 0
5, 25680, Control_c, 3, 6, 70
5, 25680, Note_on_c, 3, 66, 84
5, 25795, Note_on_c, 3, 66, 0
5, 25796, Control_c, 3, 6, 64
5, 25920, Note_on_c, 3, 64, 84
5, 25932, Note_on_c, 3, 64, 0
5, 25935, Note_on_c, 3, 64, 84
5, 25947, Note_on_c, 3, 64, 0
5, 25950, Note_on_c, 3, 64, 84
5, 25962, Note_on_c, 3, 64, 0
5, 25965, Note_on_c, 3, 64, 84
5, 25977, Note_on_c, 3, 64, 0
5, 25980, Note_on_c, 3, 64, 84
5, 25992, Note_on_c, 3, 64, 0
5, 25995, Note_on_c, 3, 64, 84
5, 26007, Note_on_c, 3, 64, 0
5, 26010, Note_on_c, 3, 64, 84
5, 26022, Note_on_c, 3, 64, 0
5, 26025, Note_on_c, 3, 64, 84
5, 26037, Note_on_c, 3, 64, 0
5, 26040, Note_on_c, 3, 61, 84
5, 26052, Note_on_c, 3, 61, 0
5, 26055, Note_on_c, 3, 61, 84
5, 26067, Note_on_c, 3, 61, 0
5, 26070, Note_on_c, 3, 61, 84
5, 26082, Note_on_c, 3, 61, 0
5, 26085, Note_on_c, 3, 61, 84
5, 26097, Note_on_c, 3, 61, 0
5, 26100, Note_on_c, 3, 61, 84
5, 26112, Note_on_c, 3, 61, 0
5, 26115, Note_on_c, 3, 61, 84
5, 26127, Note_on_c, 3, 61, 0
5, 26130, Note_on_c, 3, 61, 84
5, 26142, Note_on_c, 3, 61, 0
5, 26145, Note_on_c, 3, 61, 84
5, 26157, Note_on_c, 3, 61, 0
5, 26160, Program_c, 3, 41
5, 26160, Note_on_c, 3, 56, 84
5, 26172, Note_on_c, 3, 56, 0
5, 26175, Note_on_c, 3, 56, 84
5, 26187, Note_on_c, 3, 56, 0
5, 26190, Note_on_c, 3, 56, 84
5, 26202, Note_on_c, 3, 56, 0
5, 26205, Note_on_c, 3, 56, 84
5, 26217, Note_on_c, 3, 56, 0
5, 26220, Note_on_c, 3, 56, 84
5, 26232, Note_on_c, 3, 56, 0
5, 26235, Note_on_c, 3, 56, 84
5, 26247, Note_on_c, 3, 56, 0
5, 26250, Note_on_c, 3, 56, 84
5, 26262, Note_on_c, 3, 56, 0
5, 26265, Note_on_c, 3, 56, 84
5, 26277, Note_on_c, 3, 56, 0
5, 26280, Note_on_c, 3, 56, 84
5, 26292, Note_on_c, 3, 56, 0
5, 26295, Note_on_c, 3, 56, 84
5, 26307, Note_on_c, 3, 56, 0
5, 26310, Note_on_c, 3, 56, 84
5, 26322, Note_on_c, 3, 56, 0
5, 26325, Note_on_c, 3, 56, 84
5, 26337, Note_on_c, 3, 56, 0
5, 26340, Note_on_c, 3, 56, 84
5, 26352, Note_on_c, 3, 56, 0
5, 26355, Note_on_c, 3, 56, 84
5, 26367, Note_on_c, 3, 56, 0
5, 26370, Note_on_c, 3, 56, 84
5, 26382, Note_on_c, 3, 56, 0
5, 26385, Note_on_c, 3, 56, 84
5, 26397, Note_on_c, 3, 56, 0
5, 26400, Note_on_c, 3, 56, 84
5, 26412, Note_on_c, 3, 56, 0
5, 26415, Note_on_c, 3, 56, 84
5, 26427, Note_on_c, 3, 56, 0
5, 26430, Note_on_c, 3, 56, 84
5, 26442, Note_on_c, 3, 56, 0
5, 26445, Note_on_c, 3, 56, 84
5, 26457, Note_on_c, 3, 56, 0
5, 26460, Note_on_c, 3, 56, 84
5, 26472, Note_on_c, 3, 56, 0
5, 26475, Note_on_c, 3, 56, 84
5, 26487, Note_on_c, 3, 56, 0
5, 26490, Note_on_c, 3, 56, 84
5, 26502, Note_on_c, 3, 56, 0
5, 26505, Note_on_c, 3, 56, 84
5, 26517, Note_on_c, 3, 56, 0
5, 26520, Note_on_c, 3, 56, 84
5, 26532, Note_on_c, 3, 56, 0
5, 26535, Note_on_c, 3, 56, 84
5, 26547, Note_on_c, 3, 56, 0
5, 26550, Note_on_c, 3, 56, 84
5, 26562, Note_on_c, 3, 56, 0
5, 26565, Note_on_c, 3, 56, 84
5, 26577, Note_on_c, 3, 56, 0
5, 26580, Note_on_c, 3, 56, 84
5, 26592, Note_on_c, 3, 56, 0
5, 26595, Note_on_c, 3, 56, 84
5, 26607, Note_on_c, 3, 56, 0
5, 26610, Note_on_c, 3, 56, 84
5, 26622, Note_on_c, 3, 56, 0
5, 26625, Note_on_c, 3, 56, 84
5, 26637, Note_on_c, 3, 56, 0
5, 26640, Program_c, 3, 40
5, 26640, Control_c, 3, 6, 70
5, 26640, Note_on_c, 3, 61, 84
5, 26755, Note_on_c, 3, 61, 0
5, 26756, Control_c, 3, 6, 64
5, 26820, Note_on_c, 3, 68, 84
5, 26875, Note_on_c, 3, 68, 0
5, 26880, Control_c, 3, 6, 70
5, 26880, Note_on_c, 3, 61, 84
5, 26995, Note_on_c, 3, 61, 0
5, 27000, Note_on_c, 3, 61, 84
5, 27115, Note_on_c, 3, 61, 0
5, 27116, Control_c, 3, 6, 64
5, 27120, Note_on_c, 3, 66, 84
5, 27175, Note_on_c, 3, 66, 0
5, 27180, Control_c, 3, 6, 70
5, 27180, Note_on_c, 3, 61, 84
5, 27295, Note_on_c, 3, 61, 0
5, 27296, Control_c, 3, 6, 64
5, 27300, Note_on_c, 3, 68, 84
5, 27355, Note_on_c, 3, 68, 0
5, 27360, Control_c, 3, 6, 70
5, 27360, Note_on_c, 3, 61, 84
5, 27475, Note_on_c, 3, 61, 0
5, 27480, Note_on_c, 3, 61, 84
5, 27595, Note_on_c, 3, 61, 0
5, 27596, Control_c, 3, 6, 64
5, 27600, Note_on_c, 3, 66, 84
5, 27655, Note_on_c, 3, 66, 0
5, 27660, Control_c, 3, 6, 70
5, 27660, Note_on_c, 3, 61, 84
5, 27775, Note_on_c, 3, 61, 0
5, 27776, Control_c, 3, 6, 64
5, 27780, Note_on_c, 3, 68, 84
5, 27835, Note_on_c, 3, 68, 0
5, 27840, Note_on_c, 3, 66, 84
5, 27895, Note_on_c, 3, 66, 0
5, 27900, Note_on_c, 3, 61, 84
5, 27955, Note_on_c, 3, 61, 0
5, 27960, Note_on_c, 3, 66, 84
5, 28015, Note_on_c, 3, 66, 0
5, 28020, Note_on_c, 3, 72, 84
5, 28075, Note_on_c, 3, 72, 0
5, 28080, Control_c, 3, 6, 70
5, 28080, Note_on_c, 3, 68, 84
5, 28195, Note_on_c, 3, 68, 0
5, 28200, Note_on_c, 3, 68, 84
5, 28315, Note_on_c, 3, 68, 0
5, 28320, Note_on_c, 3, 64, 84
5, 28435, Note_on_c, 3, 64, 0
5, 28436, Control_c, 3, 6, 64
5, 31680, Note_on_c, 3, 64, 84
5, 31735, Note_on_c, 3, 64, 0
5, 31740, Note_on_c, 3, 64, 84
5, 31795, Note_on_c, 3, 64, 0
5, 31800, Note_on_c, 3, 64, 84
5, 31855, Note_on_c, 3, 64, 0
5, 31860, Note_on_c, 3, 64, 84
5, 31915, Note_on_c, 3, 64, 0
5, 31920, Note_on_c, 3, 61, 84
5, 31975, Note_on_c, 3, 61, 0
5, 31980, Note_on_c, 3, 61, 84
5, 32035, Note_on_c, 3, 61, 0
5, 32040, Note_on_c, 3, 66, 84
5, 32095, Note_on_c, 3, 66, 0
5, 32100, Note_on_c, 3, 69, 84
5, 32155, Note_on_c, 3, 69, 0
5, 32160, Note_on_c, 3, 69, 84
5, 32215, Note_on_c, 3, 69, 0
5, 32220, Note_on_c, 3, 69, 84
5, 32275, Note_on_c, 3, 69, 0
5, 32280, Note_on_c, 3, 66, 84
5, 32335, Note_on_c, 3, 66, 0
5, 32340, Note_on_c, 3, 63, 84
5, 32395, Note_on_c, 3, 63, 0
5, 32400, Program_c, 3, 41
5, 32400, Note_on_c, 3, 59, 84
5, 32455, Note_on_c, 3, 59, 0
5, 32460, Note_on_c, 3, 59, 84
5, 32515, Note_on_c, 3, 59, 0
5, 32520, Note_on_c, 3, 59, 84
5, 32575, Note_on_c, 3, 59, 0
5, 32580, Note_on_c, 3, 59, 84
5, 32635, Note_on_c, 3, 59, 0
5, 32640, Note_on_c, 3, 59, 84
5, 32695, Note_on_c, 3, 59, 0
5, 32700, Note_on_c, 3, 59, 84
5, 32755, Note_on_c, 3, 59, 0
5, 32760, Note_on_c, 3, 59, 84
5, 32815, Note_on_c, 3, 59, 0
5, 32820, Note_on_c, 3, 59, 84
5, 32875, Note_on_c, 3, 59, 0
5, 32880, Note_on_c, 3, 59, 84
5, 32935, Note_on_c, 3, 59, 0
5, 32940, Note_on_c, 3, 59, 84
5, 32995, Note_on_c, 3, 59, 0
5, 33000, Note_on_c, 3, 59, 84
5, 33055, Note_on_c, 3, 59, 0
5, 33060, Note_on_c, 3, 59, 84
5, 33115, Note_on_c, 3, 59, 0
5, 33120, Note_on_c, 3, 59, 84
5, 33175, Note_on_c, 3, 59, 0
5, 33180, Note_on_c, 3, 59, 84
5, 33235, Note_on_c, 3, 59, 0
5, 33240, Note_on_c, 3, 59, 84
5, 33295, Note_on_c, 3, 59, 0
5, 33300, Note_on_c, 3, 59, 84
5, 33355, Note_on_c, 3, 59, 0
5, 33360, Note_on_c, 3, 59, 84
5, 33415, Note_on_c, 3, 59, 0
5, 33420, Note_on_c, 3, 59, 84
5, 33475, Note_on_c, 3, 59, 0
5, 33480, Note_on_c, 3, 59, 84
5, 33535, Note_on_c, 3, 59, 0
5, 33540, Note_on_c, 3, 59, 84
5, 33595, Note_on_c, 3, 59, 0
5, 33600, Note_on_c, 3, 59, 84
5, 33655, Note_on_c, 3, 59, 0
5, 33660, Note_on_c, 3, 59, 84
5, 33715, Note_on_c, 3, 59, 0
5, 33720, Note_on_c, 3, 59, 84
5, 33775, Note_on_c, 3, 59, 0
5, 33780, Note_on_c, 3, 59, 84
5, 33835, Note_on_c, 3, 59, 0
5, 33840, Control_c, 3, 6, 70
5, 33840, Note_on_c, 3, 59, 84
5, 33955, Note_on_c, 3, 59, 0
5, 36480, Program_c, 3, 40
5, 36480, Note_on_c, 3, 64, 84
5, 36595, Note_on_c, 3, 64, 0
5, 36600, Note_on_c, 3, 64, 84
5, 36715, Note_on_c, 3, 64, 0
5, 36716, Control_c, 3, 6, 64
5, 36720, Note_on_c, 3, 69, 84
5, 36775, Note_on_c, 3, 69, 0
5, 36780, Control_c, 3, 6, 70
5, 36780, Note_on_c, 3, 64, 84
5, 36836, Control_c, 3, 6, 64
5, 36895, Note_on_c, 3, 64, 0
5, 36900, Note_on_c, 3, 71, 84
5, 36955, Note_on_c, 3, 71, 0
5, 36960, Control_c, 3, 6, 70
5, 36960, Note_on_c, 3, 64, 84
5, 37075, Note_on_c, 3, 64, 0
5, 37080, Note_on_c, 3, 64, 84
5, 37195, Note_on_c, 3, 64, 0
5, 37196, Control_c, 3, 6, 64
5, 37200, Note_on_c, 3, 69, 84
5, 37255, Note_on_c, 3, 69, 0
5, 37260, Control_c, 3, 6, 70
5, 37260, Note_on_c, 3, 64, 84
5, 37375, Note_on_c, 3, 64, 0
5, 37380, Control_c, 3, 6, 64
5, 37380, Note_on_c, 3, 71, 84
5, 37435, Note_on_c, 3, 71, 0
5, 37440, Note_on_c, 3, 69, 84
5, 37495, Note_on_c, 3, 69, 0
5, 37500, Note_on_c, 3, 64, 84
5, 37555, Note_on_c, 3, 64, 0
5, 37560, Note_on_c, 3, 68, 84
5, 37615, Note_on_c, 3, 68, 0
5, 37620, Note_on_c, 3, 75, 84
5, 37675, Note_on_c, 3, 75, 0
5, 37680, Control_c, 3, 6, 70
5, 37680, Note_on_c, 3, 71, 84
5, 37795, Note_on_c, 3, 71, 0
5, 37800, Note_on_c, 3, 71, 84
5, 37915, Note_on_c, 3, 71, 0
5, 37920, Note_on_c, 3, 68, 84
5, 38035, Note_on_c, 3, 68, 0
5, 38036, Control_c, 3, 6, 64
5, 38100, Note_on_c, 3, 71, 84
5, 38155, Note_on_c, 3, 71, 0
5, 38160, Control_c, 3, 6, 70
5, 38160, Note_on_c, 3, 64, 84
5, 38275, Note_on_c, 3, 64, 0
5, 38280, Note_on_c, 3, 64, 84
5, 38395, Note_on_c, 3, 64, 0
5, 38396, Control_c, 3, 6, 64
5, 38400, Note_on_c, 3, 69, 84
5, 38455, Note_on_c, 3, 69, 0
5, 38460, Control_c, 3, 6, 70
5, 38460, Note_on_c, 3, 68, 84
5, 38575, Note_on_c, 3, 68, 0
5, 38576, Control_c, 3, 6, 64
5, 38580, Note_on_c, 3, 71, 84
5, 38635, Note_on_c, 3, 71, 0
5, 38640, Control_c, 3, 6, 70
5, 38640, Note_on_c, 3, 64, 84
5, 38755, Note_on_c, 3, 64, 0
5, 38760, Note_on_c, 3, 64, 84
5, 38875, Note_on_c, 3, 64, 0
5, 38876, Control_c, 3, 6, 64
5, 38880, Note_on_c, 3, 69, 84
5, 38935, Note_on_c, 3, 69, 0
5, 38940, Control_c, 3, 6, 70
5, 38940, Note_on_c, 3, 64, 84
5, 39055, Note_on_c, 3, 64, 0
5, 39056, Control_c, 3, 6, 64
5, 39060, Note_on_c, 3, 71, 84
5, 39115, Note_on_c, 3, 71, 0
5, 39120, Note_on_c, 3, 69, 84
5, 39175, Note_on_c, 3, 69, 0
5, 39180, Note_on_c, 3, 64, 84
5, 39235, Note_on_c, 3, 64, 0
5, 39240, Note_on_c, 3, 68, 84
5, 39295, Note_on_c, 3, 68, 0
5, 39300, Note_on_c, 3, 75, 84
5, 39355, Note_on_c, 3, 75, 0
5, 39360, Control_c, 3, 6, 70
5, 39360, Note_on_c, 3, 71, 84
5, 39475, Note_on_c, 3, 71, 0
5, 39480, Note_on_c, 3, 71, 84
5, 39595, Note_on_c, 3, 71, 0
5, 39600, Note_on_c, 3, 68, 84
5, 39835, Note_on_c, 3, 68, 0
5, 39836, Control_c, 3, 6, 64
5, 40080, Program_c, 3, 0
5, 40080, Control_c, 3, 7, 100
5, 40080, Control_c, 3, 10, 64
5, 40080, Control_c, 3, 93, 0
5, 40080, Control_c, 3, 91, 40
5, 40081, Text_t, "Non Registered Parameter Numbers"
5, 40081, Text_t, "For Roland SC-55 Vibrato"
5, 40081, Text_t, "Set up NRPN for Vibrate Rate"
5, 40082, Control_c, 3, 99, 1
5, 40083, Control_c, 3, 98, 8
5, 40084, Text_t, "Data Entry Command"
5, 40084, Control_c, 3, 6, 64
5, 40085, Text_t, "Set up NRPN for Vibrate Delay"
5, 40086, Control_c, 3, 99, 1
5, 40087, Control_c, 3, 98, 10
5, 40088, Text_t, "Data Entry Command"
5, 40088, Control_c, 3, 6, 64
5, 40089, Text_t, "Set up NRPN for Vibrate Depth"
5, 40090, Control_c, 3, 99, 1
5, 40091, Control_c, 3, 98, 9
5, 40092, Text_t, "Data Entry Command; Vibrato ON"
5, 40092, Control_c, 3, 6, 64
5, 40092, End_track
6, 0, Start_track
6, 0, MIDI_port, 0
6, 0, Title_t, "Cello"
6, 0, Program_c, 4, 42
6, 0, Control_c, 4, 7, 50
6, 0, Control_c, 4, 10, 0
6, 0, Control_c, 4, 93, 0
6, 0, Control_c, 4, 91, 120
6, 1, Text_t, "Non Registered Parameter Numbers"
6, 1, Text_t, "For Roland SC-55 Vibrato"
6, 1, Text_t, "Set up NRPN for Vibrate Rate"
6, 2, Control_c, 4, 99, 1
6, 3, Control_c, 4, 98, 8
6, 4, Text_t, "Data Entry Command"
6, 4, Control_c, 4, 6, 68
6, 5, Text_t, "Set up NRPN for Vibrate Delay"
6, 6, Control_c, 4, 99, 1
6, 7, Control_c, 4, 98, 10
6, 8, Text_t, "Data Entry Command"
6, 8, Control_c, 4, 6, 14
6, 9, Text_t, "Set up NRPN for Vibrate Depth"
6, 10, Control_c, 4, 99, 1
6, 11, Control_c, 4, 98, 9
6, 12, Text_t, "Data Entry Command; Vibrato ON"
6, 12, Control_c, 4, 6, 70
6, 420, Note_on_c, 4, 52, 84
6, 480, Note_on_c, 4, 52, 0
6, 480, Note_on_c, 4, 52, 84
6, 595, Note_on_c, 4, 52, 0
6, 600, Note_on_c, 4, 52, 84
6, 715, Note_on_c, 4, 52, 0
6, 720, Note_on_c, 4, 52, 84
6, 835, Note_on_c, 4, 52, 0
6, 840, Note_on_c, 4, 52, 84
6, 955, Note_on_c, 4, 52, 0
6, 960, Note_on_c, 4, 52, 84
6, 1075, Note_on_c, 4, 52, 0
6, 1080, Note_on_c, 4, 52, 84
6, 1195, Note_on_c, 4, 52, 0
6, 1200, Note_on_c, 4, 52, 84
6, 1315, Note_on_c, 4, 52, 0
6, 1320, Note_on_c, 4, 52, 84
6, 1435, Note_on_c, 4, 52, 0
6, 1440, Note_on_c, 4, 52, 84
6, 1495, Note_on_c, 4, 52, 0
6, 1500, Note_on_c, 4, 52, 84
6, 1555, Note_on_c, 4, 52, 0
6, 1560, Note_on_c, 4, 45, 84
6, 1615, Note_on_c, 4, 45, 0
6, 1620, Note_on_c, 4, 46, 84
6, 1675, Note_on_c, 4, 46, 0
6, 1680, Note_on_c, 4, 47, 84
6, 1795, Note_on_c, 4, 47, 0
6, 1860, Note_on_c, 4, 52, 65
6, 1915, Note_on_c, 4, 52, 0
6, 1920, Note_on_c, 4, 52, 65
6, 2035, Note_on_c, 4, 52, 0
6, 2040, Note_on_c, 4, 52, 65
6, 2155, Note_on_c, 4, 52, 0
6, 2160, Note_on_c, 4, 52, 65
6, 2275, Note_on_c, 4, 52, 0
6, 2280, Note_on_c, 4, 52, 65
6, 2395, Note_on_c, 4, 52, 0
6, 2400, Note_on_c, 4, 52, 65
6, 2515, Note_on_c, 4, 52, 0
6, 2520, Note_on_c, 4, 52, 65
6, 2635, Note_on_c, 4, 52, 0
6, 2640, Note_on_c, 4, 52, 65
6, 2755, Note_on_c, 4, 52, 0
6, 2760, Note_on_c, 4, 52, 65
6, 2875, Note_on_c, 4, 52, 0
6, 2880, Note_on_c, 4, 52, 65
6, 2935, Note_on_c, 4, 52, 0
6, 2940, Note_on_c, 4, 52, 65
6, 2995, Note_on_c, 4, 52, 0
6, 3000, Note_on_c, 4, 45, 65
6, 3055, Note_on_c, 4, 45, 0
6, 3060, Note_on_c, 4, 46, 65
6, 3115, Note_on_c, 4, 46, 0
6, 3120, Note_on_c, 4, 47, 65
6, 3235, Note_on_c, 4, 47, 0
6, 3300, Note_on_c, 4, 52, 84
6, 3355, Note_on_c, 4, 52, 0
6, 3360, Note_on_c, 4, 52, 84
6, 3475, Note_on_c, 4, 52, 0
6, 3480, Note_on_c, 4, 52, 84
6, 3595, Note_on_c, 4, 52, 0
6, 3600, Note_on_c, 4, 52, 84
6, 3715, Note_on_c, 4, 52, 0
6, 3720, Note_on_c, 4, 52, 84
6, 3835, Note_on_c, 4, 52, 0
6, 3840, Note_on_c, 4, 52, 84
6, 3955, Note_on_c, 4, 52, 0
6, 3960, Note_on_c, 4, 52, 84
6, 4075, Note_on_c, 4, 52, 0
6, 4080, Note_on_c, 4, 52, 84
6, 4195, Note_on_c, 4, 52, 0
6, 4200, Note_on_c, 4, 52, 84
6, 4315, Note_on_c, 4, 52, 0
6, 4320, Note_on_c, 4, 52, 84
6, 4435, Note_on_c, 4, 52, 0
6, 4440, Note_on_c, 4, 52, 84
6, 4495, Note_on_c, 4, 52, 0
6, 4500, Note_on_c, 4, 47, 84
6, 4555, Note_on_c, 4, 47, 0
6, 4560, Note_on_c, 4, 52, 84
6, 4615, Note_on_c, 4, 52, 0
6, 4620, Note_on_c, 4, 40, 84
6, 4675, Note_on_c, 4, 40, 0
6, 4680, Note_on_c, 4, 59, 84
6, 4735, Note_on_c, 4, 59, 0
6, 4740, Note_on_c, 4, 47, 84
6, 4795, Note_on_c, 4, 47, 0
6, 4800, Note_on_c, 4, 40, 84
6, 4915, Note_on_c, 4, 40, 0
6, 4980, Note_on_c, 4, 52, 65
6, 5035, Note_on_c, 4, 52, 0
6, 5040, Note_on_c, 4, 52, 65
6, 5155, Note_on_c, 4, 52, 0
6, 5160, Note_on_c, 4, 52, 65
6, 5275, Note_on_c, 4, 52, 0
6, 5280, Note_on_c, 4, 52, 65
6, 5395, Note_on_c, 4, 52, 0
6, 5400, Note_on_c, 4, 52, 65
6, 5515, Note_on_c, 4, 52, 0
6, 5520, Note_on_c, 4, 52, 65
6, 5635, Note_on_c, 4, 52, 0
6, 5640, Note_on_c, 4, 52, 65
6, 5755, Note_on_c, 4, 52, 0
6, 5760, Note_on_c, 4, 52, 65
6, 5875, Note_on_c, 4, 52, 0
6, 5880, Note_on_c, 4, 52, 65
6, 5995, Note_on_c, 4, 52, 0
6, 6000, Note_on_c, 4, 52, 65
6, 6115, Note_on_c, 4, 52, 0
6, 6120, Note_on_c, 4, 52, 65
6, 6235, Note_on_c, 4, 52, 0
6, 6240, Note_on_c, 4, 52, 65
6, 6295, Note_on_c, 4, 52, 0
6, 6300, Note_on_c, 4, 40, 65
6, 6355, Note_on_c, 4, 40, 0
6, 6360, Note_on_c, 4, 59, 65
6, 6415, Note_on_c, 4, 59, 0
6, 6420, Note_on_c, 4, 47, 65
6, 6475, Note_on_c, 4, 47, 0
6, 6480, Note_on_c, 4, 40, 65
6, 6595, Note_on_c, 4, 40, 0
6, 13380, Note_on_c, 4, 52, 84
6, 13435, Note_on_c, 4, 52, 0
6, 13440, Note_on_c, 4, 52, 84
6, 13555, Note_on_c, 4, 52, 0
6, 13560, Note_on_c, 4, 52, 84
6, 13675, Note_on_c, 4, 52, 0
6, 13680, Note_on_c, 4, 52, 84
6, 13795, Note_on_c, 4, 52, 0
6, 13800, Note_on_c, 4, 52, 84
6, 13915, Note_on_c, 4, 52, 0
6, 13920, Note_on_c, 4, 52, 84
6, 14035, Note_on_c, 4, 52, 0
6, 14040, Note_on_c, 4, 52, 84
6, 14155, Note_on_c, 4, 52, 0
6, 14160, Note_on_c, 4, 52, 84
6, 14275, Note_on_c, 4, 52, 0
6, 14280, Note_on_c, 4, 52, 84
6, 14395, Note_on_c, 4, 52, 0
6, 14400, Note_on_c, 4, 52, 84
6, 14515, Note_on_c, 4, 52, 0
6, 14520, Note_on_c, 4, 52, 84
6, 14575, Note_on_c, 4, 52, 0
6, 14580, Note_on_c, 4, 47, 84
6, 14635, Note_on_c, 4, 47, 0
6, 14640, Note_on_c, 4, 52, 84
6, 14695, Note_on_c, 4, 52, 0
6, 14700, Note_on_c, 4, 40, 84
6, 14755, Note_on_c, 4, 40, 0
6, 14760, Note_on_c, 4, 59, 84
6, 14815, Note_on_c, 4, 59, 0
6, 14820, Note_on_c, 4, 47, 84
6, 14875, Note_on_c, 4, 47, 0
6, 14880, Note_on_c, 4, 52, 84
6, 14935, Note_on_c, 4, 52, 0
6, 14940, Note_on_c, 4, 52, 84
6, 14995, Note_on_c, 4, 52, 0
6, 15000, Note_on_c, 4, 52, 84
6, 15055, Note_on_c, 4, 52, 0
6, 15060, Note_on_c, 4, 52, 84
6, 15115, Note_on_c, 4, 52, 0
6, 15120, Note_on_c, 4, 52, 84
6, 15175, Note_on_c, 4, 52, 0
6, 15180, Note_on_c, 4, 52, 84
6, 15235, Note_on_c, 4, 52, 0
6, 15240, Note_on_c, 4, 52, 84
6, 15295, Note_on_c, 4, 52, 0
6, 15300, Note_on_c, 4, 52, 84
6, 15355, Note_on_c, 4, 52, 0
6, 15360, Note_on_c, 4, 52, 84
6, 15415, Note_on_c, 4, 52, 0
6, 15420, Note_on_c, 4, 52, 84
6, 15475, Note_on_c, 4, 52, 0
6, 15480, Note_on_c, 4, 52, 84
6, 15535, Note_on_c, 4, 52, 0
6, 15540, Note_on_c, 4, 52, 84
6, 15595, Note_on_c, 4, 52, 0
6, 15600, Note_on_c, 4, 52, 84
6, 15655, Note_on_c, 4, 52, 0
6, 15660, Note_on_c, 4, 52, 84
6, 15715, Note_on_c, 4, 52, 0
6, 15720, Note_on_c, 4, 52, 84
6, 15775, Note_on_c, 4, 52, 0
6, 15780, Note_on_c, 4, 52, 84
6, 15835, Note_on_c, 4, 52, 0
6, 15840, Note_on_c, 4, 47, 84
6, 15895, Note_on_c, 4, 47, 0
6, 15900, Note_on_c, 4, 47, 84
6, 15955, Note_on_c, 4, 47, 0
6, 15960, Note_on_c, 4, 47, 84
6, 16015, Note_on_c, 4, 47, 0
6, 16020, Note_on_c, 4, 47, 84
6, 16075, Note_on_c, 4, 47, 0
6, 16080, Note_on_c, 4, 47, 84
6, 16135, Note_on_c, 4, 47, 0
6, 16140, Note_on_c, 4, 47, 84
6, 16195, Note_on_c, 4, 47, 0
6, 16200, Note_on_c, 4, 47, 84
6, 16255, Note_on_c, 4, 47, 0
6, 16260, Note_on_c, 4, 47, 84
6, 16315, Note_on_c, 4, 47, 0
6, 16320, Note_on_c, 4, 47, 84
6, 16375, Note_on_c, 4, 47, 0
6, 16380, Note_on_c, 4, 47, 84
6, 16435, Note_on_c, 4, 47, 0
6, 16440, Note_on_c, 4, 47, 84
6, 16495, Note_on_c, 4, 47, 0
6, 16500, Note_on_c, 4, 47, 84
6, 16555, Note_on_c, 4, 47, 0
6, 16560, Note_on_c, 4, 47, 84
6, 16615, Note_on_c, 4, 47, 0
6, 16620, Note_on_c, 4, 47, 84
6, 16675, Note_on_c, 4, 47, 0
6, 16680, Note_on_c, 4, 47, 84
6, 16735, Note_on_c, 4, 47, 0
6, 16740, Note_on_c, 4, 47, 84
6, 16795, Note_on_c, 4, 47, 0
6, 16800, Note_on_c, 4, 52, 84
6, 16855, Note_on_c, 4, 52, 0
6, 16860, Note_on_c, 4, 52, 84
6, 16915, Note_on_c, 4, 52, 0
6, 16920, Note_on_c, 4, 52, 84
6, 16975, Note_on_c, 4, 52, 0
6, 16980, Note_on_c, 4, 52, 84
6, 17035, Note_on_c, 4, 52, 0
6, 17040, Note_on_c, 4, 52, 84
6, 17095, Note_on_c, 4, 52, 0
6, 17100, Note_on_c, 4, 52, 84
6, 17155, Note_on_c, 4, 52, 0
6, 17160, Note_on_c, 4, 52, 84
6, 17215, Note_on_c, 4, 52, 0
6, 17220, Note_on_c, 4, 52, 84
6, 17275, Note_on_c, 4, 52, 0
6, 17280, Note_on_c, 4, 52, 84
6, 17335, Note_on_c, 4, 52, 0
6, 17340, Note_on_c, 4, 52, 84
6, 17395, Note_on_c, 4, 52, 0
6, 17400, Note_on_c, 4, 52, 84
6, 17455, Note_on_c, 4, 52, 0
6, 17460, Note_on_c, 4, 52, 84
6, 17515, Note_on_c, 4, 52, 0
6, 17520, Note_on_c, 4, 52, 84
6, 17575, Note_on_c, 4, 52, 0
6, 17580, Note_on_c, 4, 52, 84
6, 17635, Note_on_c, 4, 52, 0
6, 17640, Note_on_c, 4, 52, 84
6, 17695, Note_on_c, 4, 52, 0
6, 17700, Note_on_c, 4, 52, 84
6, 17755, Note_on_c, 4, 52, 0
6, 17760, Note_on_c, 4, 52, 84
6, 17790, Note_on_c, 4, 47, 84
6, 17795, Note_on_c, 4, 52, 0
6, 17820, Note_on_c, 4, 47, 0
6, 17820, Note_on_c, 4, 52, 84
6, 17850, Note_on_c, 4, 47, 84
6, 17855, Note_on_c, 4, 52, 0
6, 17880, Note_on_c, 4, 47, 0
6, 17880, Note_on_c, 4, 52, 84
6, 17910, Note_on_c, 4, 47, 84
6, 17915, Note_on_c, 4, 52, 0
6, 17940, Note_on_c, 4, 47, 0
6, 17940, Note_on_c, 4, 52, 84
6, 17970, Note_on_c, 4, 47, 84
6, 17975, Note_on_c, 4, 52, 0
6, 18000, Note_on_c, 4, 47, 0
6, 18000, Note_on_c, 4, 51, 84
6, 18030, Note_on_c, 4, 47, 84
6, 18035, Note_on_c, 4, 51, 0
6, 18060, Note_on_c, 4, 47, 0
6, 18060, Note_on_c, 4, 51, 84
6, 18090, Note_on_c, 4, 47, 84
6, 18095, Note_on_c, 4, 51, 0
6, 18120, Note_on_c, 4, 47, 0
6, 18120, Note_on_c, 4, 51, 84
6, 18150, Note_on_c, 4, 47, 84
6, 18155, Note_on_c, 4, 51, 0
6, 18180, Note_on_c, 4, 47, 0
6, 18180, Note_on_c, 4, 51, 84
6, 18210, Note_on_c, 4, 47, 84
6, 18215, Note_on_c, 4, 51, 0
6, 18240, Note_on_c, 4, 47, 0
6, 18240, Note_on_c, 4, 52, 84
6, 18270, Note_on_c, 4, 47, 84
6, 18275, Note_on_c, 4, 52, 0
6, 18300, Note_on_c, 4, 47, 0
6, 18300, Note_on_c, 4, 52, 84
6, 18330, Note_on_c, 4, 47, 84
6, 18335, Note_on_c, 4, 52, 0
6, 18360, Note_on_c, 4, 47, 0
6, 18360, Note_on_c, 4, 52, 84
6, 18390, Note_on_c, 4, 47, 84
6, 18395, Note_on_c, 4, 52, 0
6, 18420, Note_on_c, 4, 47, 0
6, 18420, Note_on_c, 4, 52, 84
6, 18450, Note_on_c, 4, 47, 84
6, 18455, Note_on_c, 4, 52, 0
6, 18480, Note_on_c, 4, 47, 0
6, 18480, Note_on_c, 4, 54, 84
6, 18510, Note_on_c, 4, 47, 84
6, 18515, Note_on_c, 4, 54, 0
6, 18540, Note_on_c, 4, 47, 0
6, 18540, Note_on_c, 4, 54, 84
6, 18570, Note_on_c, 4, 47, 84
6, 18575, Note_on_c, 4, 54, 0
6, 18600, Note_on_c, 4, 47, 0
6, 18600, Note_on_c, 4, 54, 84
6, 18630, Note_on_c, 4, 47, 84
6, 18635, Note_on_c, 4, 54, 0
6, 18660, Note_on_c, 4, 47, 0
6, 18660, Note_on_c, 4, 54, 84
6, 18690, Note_on_c, 4, 47, 84
6, 18695, Note_on_c, 4, 54, 0
6, 18720, Note_on_c, 4, 47, 0
6, 18720, Note_on_c, 4, 52, 84
6, 18750, Note_on_c, 4, 47, 84
6, 18755, Note_on_c, 4, 52, 0
6, 18780, Note_on_c, 4, 47, 0
6, 18780, Note_on_c, 4, 52, 84
6, 18810, Note_on_c, 4, 47, 84
6, 18815, Note_on_c, 4, 52, 0
6, 18840, Note_on_c, 4, 47, 0
6, 18840, Note_on_c, 4, 52, 84
6, 18870, Note_on_c, 4, 47, 84
6, 18875, Note_on_c, 4, 52, 0
6, 18900, Note_on_c, 4, 47, 0
6, 18900, Note_on_c, 4, 52, 84
6, 18930, Note_on_c, 4, 47, 84
6, 18935, Note_on_c, 4, 52, 0
6, 18960, Note_on_c, 4, 47, 0
6, 18960, Note_on_c, 4, 51, 84
6, 18990, Note_on_c, 4, 47, 84
6, 18995, Note_on_c, 4, 51, 0
6, 19020, Note_on_c, 4, 47, 0
6, 19020, Note_on_c, 4, 51, 84
6, 19050, Note_on_c, 4, 47, 84
6, 19055, Note_on_c, 4, 51, 0
6, 19080, Note_on_c, 4, 47, 0
6, 19080, Note_on_c, 4, 51, 84
6, 19110, Note_on_c, 4, 47, 84
6, 19115, Note_on_c, 4, 51, 0
6, 19140, Note_on_c, 4, 47, 0
6, 19140, Note_on_c, 4, 51, 84
6, 19170, Note_on_c, 4, 47, 84
6, 19175, Note_on_c, 4, 51, 0
6, 19200, Note_on_c, 4, 47, 0
6, 19200, Note_on_c, 4, 52, 84
6, 19230, Note_on_c, 4, 47, 84
6, 19235, Note_on_c, 4, 52, 0
6, 19260, Note_on_c, 4, 47, 0
6, 19260, Note_on_c, 4, 52, 84
6, 19290, Note_on_c, 4, 47, 84
6, 19295, Note_on_c, 4, 52, 0
6, 19320, Note_on_c, 4, 47, 0
6, 19320, Note_on_c, 4, 52, 84
6, 19350, Note_on_c, 4, 47, 84
6, 19355, Note_on_c, 4, 52, 0
6, 19380, Note_on_c, 4, 47, 0
6, 19380, Note_on_c, 4, 52, 84
6, 19410, Note_on_c, 4, 47, 84
6, 19415, Note_on_c, 4, 52, 0
6, 19440, Note_on_c, 4, 47, 0
6, 19440, Note_on_c, 4, 47, 84
6, 19555, Note_on_c, 4, 47, 0
6, 19620, Note_on_c, 4, 47, 84
6, 19675, Note_on_c, 4, 47, 0
6, 19680, Note_on_c, 4, 47, 84
6, 19795, Note_on_c, 4, 47, 0
6, 19800, Note_on_c, 4, 47, 84
6, 19915, Note_on_c, 4, 47, 0
6, 19920, Note_on_c, 4, 47, 84
6, 20035, Note_on_c, 4, 47, 0
6, 20040, Note_on_c, 4, 47, 84
6, 20155, Note_on_c, 4, 47, 0
6, 20160, Note_on_c, 4, 47, 84
6, 20275, Note_on_c, 4, 47, 0
6, 20280, Note_on_c, 4, 47, 84
6, 20395, Note_on_c, 4, 47, 0
6, 20400, Note_on_c, 4, 47, 84
6, 20515, Note_on_c, 4, 47, 0
6, 20520, Note_on_c, 4, 47, 84
6, 20635, Note_on_c, 4, 47, 0
6, 20640, Note_on_c, 4, 47, 84
6, 20755, Note_on_c, 4, 47, 0
6, 20760, Note_on_c, 4, 47, 84
6, 20815, Note_on_c, 4, 47, 0
6, 20820, Note_on_c, 4, 54, 84
6, 20875, Note_on_c, 4, 54, 0
6, 20880, Note_on_c, 4, 59, 84
6, 20935, Note_on_c, 4, 59, 0
6, 20940, Note_on_c, 4, 47, 84
6, 20995, Note_on_c, 4, 47, 0
6, 21000, Note_on_c, 4, 54, 84
6, 21055, Note_on_c, 4, 54, 0
6, 21060, Note_on_c, 4, 42, 84
6, 21115, Note_on_c, 4, 42, 0
6, 21120, Note_on_c, 4, 47, 84
6, 21132, Note_on_c, 4, 47, 0
6, 21135, Note_on_c, 4, 47, 84
6, 21147, Note_on_c, 4, 47, 0
6, 21150, Note_on_c, 4, 47, 84
6, 21162, Note_on_c, 4, 47, 0
6, 21165, Note_on_c, 4, 47, 84
6, 21177, Note_on_c, 4, 47, 0
6, 21180, Note_on_c, 4, 47, 84
6, 21192, Note_on_c, 4, 47, 0
6, 21195, Note_on_c, 4, 47, 84
6, 21207, Note_on_c, 4, 47, 0
6, 21210, Note_on_c, 4, 47, 84
6, 21222, Note_on_c, 4, 47, 0
6, 21225, Note_on_c, 4, 47, 84
6, 21237, Note_on_c, 4, 47, 0
6, 21240, Note_on_c, 4, 47, 84
6, 21252, Note_on_c, 4, 47, 0
6, 21255, Note_on_c, 4, 47, 84
6, 21267, Note_on_c, 4, 47, 0
6, 21270, Note_on_c, 4, 47, 84
6, 21282, Note_on_c, 4, 47, 0
6, 21285, Note_on_c, 4, 47, 84
6, 21297, Note_on_c, 4, 47, 0
6, 21300, Note_on_c, 4, 47, 84
6, 21312, Note_on_c, 4, 47, 0
6, 21315, Note_on_c, 4, 47, 84
6, 21327, Note_on_c, 4, 47, 0
6, 21330, Note_on_c, 4, 47, 84
6, 21342, Note_on_c, 4, 47, 0
6, 21345, Note_on_c, 4, 47, 84
6, 21357, Note_on_c, 4, 47, 0
6, 21360, Note_on_c, 4, 47, 84
6, 21372, Note_on_c, 4, 47, 0
6, 21375, Note_on_c, 4, 47, 84
6, 21387, Note_on_c, 4, 47, 0
6, 21390, Note_on_c, 4, 47, 84
6, 21402, Note_on_c, 4, 47, 0
6, 21405, Note_on_c, 4, 47, 84
6, 21417, Note_on_c, 4, 47, 0
6, 21420, Note_on_c, 4, 47, 84
6, 21432, Note_on_c, 4, 47, 0
6, 21435, Note_on_c, 4, 47, 84
6, 21447, Note_on_c, 4, 47, 0
6, 21450, Note_on_c, 4, 47, 84
6, 21462, Note_on_c, 4, 47, 0
6, 21465, Note_on_c, 4, 47, 84
6, 21477, Note_on_c, 4, 47, 0
6, 21480, Note_on_c, 4, 47, 84
6, 21492, Note_on_c, 4, 47, 0
6, 21495, Note_on_c, 4, 47, 84
6, 21507, Note_on_c, 4, 47, 0
6, 21510, Note_on_c, 4, 47, 84
6, 21522, Note_on_c, 4, 47, 0
6, 21525, Note_on_c, 4, 47, 84
6, 21537, Note_on_c, 4, 47, 0
6, 21540, Note_on_c, 4, 47, 84
6, 21552, Note_on_c, 4, 47, 0
6, 21555, Note_on_c, 4, 47, 84
6, 21567, Note_on_c, 4, 47, 0
6, 21570, Note_on_c, 4, 47, 84
6, 21582, Note_on_c, 4, 47, 0
6, 21585, Note_on_c, 4, 47, 84
6, 21597, Note_on_c, 4, 47, 0
6, 21600, Note_on_c, 4, 47, 84
6, 21655, Note_on_c, 4, 47, 0
6, 21720, Note_on_c, 4, 47, 84
6, 21775, Note_on_c, 4, 47, 0
6, 21840, Note_on_c, 4, 47, 84
6, 21895, Note_on_c, 4, 47, 0
6, 21960, Note_on_c, 4, 47, 84
6, 22015, Note_on_c, 4, 47, 0
6, 22080, Note_on_c, 4, 47, 84
6, 22092, Note_on_c, 4, 47, 0
6, 22095, Note_on_c, 4, 47, 84
6, 22107, Note_on_c, 4, 47, 0
6, 22110, Note_on_c, 4, 47, 84
6, 22122, Note_on_c, 4, 47, 0
6, 22125, Note_on_c, 4, 47, 84
6, 22137, Note_on_c, 4, 47, 0
6, 22140, Note_on_c, 4, 47, 84
6, 22152, Note_on_c, 4, 47, 0
6, 22155, Note_on_c, 4, 47, 84
6, 22167, Note_on_c, 4, 47, 0
6, 22170, Note_on_c, 4, 47, 84
6, 22182, Note_on_c, 4, 47, 0
6, 22185, Note_on_c, 4, 47, 84
6, 22197, Note_on_c, 4, 47, 0
6, 22200, Note_on_c, 4, 47, 84
6, 22212, Note_on_c, 4, 47, 0
6, 22215, Note_on_c, 4, 47, 84
6, 22227, Note_on_c, 4, 47, 0
6, 22230, Note_on_c, 4, 47, 84
6, 22242, Note_on_c, 4, 47, 0
6, 22245, Note_on_c, 4, 47, 84
6, 22257, Note_on_c, 4, 47, 0
6, 22260, Note_on_c, 4, 47, 84
6, 22272, Note_on_c, 4, 47, 0
6, 22275, Note_on_c, 4, 47, 84
6, 22287, Note_on_c, 4, 47, 0
6, 22290, Note_on_c, 4, 47, 84
6, 22302, Note_on_c, 4, 47, 0
6, 22305, Note_on_c, 4, 47, 84
6, 22317, Note_on_c, 4, 47, 0
6, 22320, Note_on_c, 4, 45, 84
6, 22332, Note_on_c, 4, 45, 0
6, 22335, Note_on_c, 4, 45, 84
6, 22347, Note_on_c, 4, 45, 0
6, 22350, Note_on_c, 4, 45, 84
6, 22362, Note_on_c, 4, 45, 0
6, 22365, Note_on_c, 4, 45, 84
6, 22377, Note_on_c, 4, 45, 0
6, 22380, Note_on_c, 4, 45, 84
6, 22392, Note_on_c, 4, 45, 0
6, 22395, Note_on_c, 4, 45, 84
6, 22407, Note_on_c, 4, 45, 0
6, 22410, Note_on_c, 4, 45, 84
6, 22422, Note_on_c, 4, 45, 0
6, 22425, Note_on_c, 4, 45, 84
6, 22437, Note_on_c, 4, 45, 0
6, 22440, Note_on_c, 4, 45, 84
6, 22452, Note_on_c, 4, 45, 0
6, 22455, Note_on_c, 4, 45, 84
6, 22467, Note_on_c, 4, 45, 0
6, 22470, Note_on_c, 4, 45, 84
6, 22482, Note_on_c, 4, 45, 0
6, 22485, Note_on_c, 4, 45, 84
6, 22497, Note_on_c, 4, 45, 0
6, 22500, Note_on_c, 4, 45, 84
6, 22512, Note_on_c, 4, 45, 0
6, 22515, Note_on_c, 4, 45, 84
6, 22527, Note_on_c, 4, 45, 0
6, 22530, Note_on_c, 4, 45, 84
6, 22542, Note_on_c, 4, 45, 0
6, 22545, Note_on_c, 4, 45, 84
6, 22557, Note_on_c, 4, 45, 0
6, 22560, Note_on_c, 4, 44, 84
6, 22675, Note_on_c, 4, 44, 0
6, 23040, Note_on_c, 4, 45, 84
6, 23052, Note_on_c, 4, 45, 0
6, 23055, Note_on_c, 4, 45, 84
6, 23067, Note_on_c, 4, 45, 0
6, 23070, Note_on_c, 4, 45, 84
6, 23082, Note_on_c, 4, 45, 0
6, 23085, Note_on_c, 4, 45, 84
6, 23097, Note_on_c, 4, 45, 0
6, 23100, Note_on_c, 4, 45, 84
6, 23112, Note_on_c, 4, 45, 0
6, 23115, Note_on_c, 4, 45, 84
6, 23127, Note_on_c, 4, 45, 0
6, 23130, Note_on_c, 4, 45, 84
6, 23142, Note_on_c, 4, 45, 0
6, 23145, Note_on_c, 4, 45, 84
6, 23157, Note_on_c, 4, 45, 0
6, 23160, Note_on_c, 4, 45, 84
6, 23172, Note_on_c, 4, 45, 0
6, 23175, Note_on_c, 4, 45, 84
6, 23187, Note_on_c, 4, 45, 0
6, 23190, Note_on_c, 4, 45, 84
6, 23202, Note_on_c, 4, 45, 0
6, 23205, Note_on_c, 4, 45, 84
6, 23217, Note_on_c, 4, 45, 0
6, 23220, Note_on_c, 4, 45, 84
6, 23232, Note_on_c, 4, 45, 0
6, 23235, Note_on_c, 4, 45, 84
6, 23247, Note_on_c, 4, 45, 0
6, 23250, Note_on_c, 4, 45, 84
6, 23262, Note_on_c, 4, 45, 0
6, 23265, Note_on_c, 4, 45, 84
6, 23277, Note_on_c, 4, 45, 0
6, 23280, Note_on_c, 4, 46, 84
6, 23395, Note_on_c, 4, 46, 0
6, 23760, Note_on_c, 4, 47, 84
6, 23772, Note_on_c, 4, 47, 0
6, 23775, Note_on_c, 4, 47, 84
6, 23787, Note_on_c, 4, 47, 0
6, 23790, Note_on_c, 4, 47, 84
6, 23802, Note_on_c, 4, 47, 0
6, 23805, Note_on_c, 4, 47, 84
6, 23817, Note_on_c, 4, 47, 0
6, 23820, Note_on_c, 4, 47, 84
6, 23832, Note_on_c, 4, 47, 0
6, 23835, Note_on_c, 4, 47, 84
6, 23847, Note_on_c, 4, 47, 0
6, 23850, Note_on_c, 4, 47, 84
6, 23862, Note_on_c, 4, 47, 0
6, 23865, Note_on_c, 4, 47, 84
6, 23877, Note_on_c, 4, 47, 0
6, 23880, Note_on_c, 4, 47, 84
6, 23892, Note_on_c, 4, 47, 0
6, 23895, Note_on_c, 4, 47, 84
6, 23907, Note_on_c, 4, 47, 0
6, 23910, Note_on_c, 4, 47, 84
6, 23922, Note_on_c, 4, 47, 0
6, 23925, Note_on_c, 4, 47, 84
6, 23937, Note_on_c, 4, 47, 0
6, 23940, Note_on_c, 4, 47, 84
6, 23952, Note_on_c, 4, 47, 0
6, 23955, Note_on_c, 4, 47, 84
6, 23967, Note_on_c, 4, 47, 0
6, 23970, Note_on_c, 4, 47, 84
6, 23982, Note_on_c, 4, 47, 0
6, 23985, Note_on_c, 4, 47, 84
6, 23997, Note_on_c, 4, 47, 0
6, 24000, Note_on_c, 4, 48, 84
6, 24115, Note_on_c, 4, 48, 0
6, 24480, Note_on_c, 4, 49, 84
6, 24492, Note_on_c, 4, 49, 0
6, 24495, Note_on_c, 4, 49, 84
6, 24507, Note_on_c, 4, 49, 0
6, 24510, Note_on_c, 4, 49, 84
6, 24522, Note_on_c, 4, 49, 0
6, 24525, Note_on_c, 4, 49, 84
6, 24537, Note_on_c, 4, 49, 0
6, 24540, Note_on_c, 4, 49, 84
6, 24552, Note_on_c, 4, 49, 0
6, 24555, Note_on_c, 4, 49, 84
6, 24567, Note_on_c, 4, 49, 0
6, 24570, Note_on_c, 4, 49, 84
6, 24582, Note_on_c, 4, 49, 0
6, 24585, Note_on_c, 4, 49, 84
6, 24597, Note_on_c, 4, 49, 0
6, 24600, Note_on_c, 4, 49, 84
6, 24612, Note_on_c, 4, 49, 0
6, 24615, Note_on_c, 4, 49, 84
6, 24627, Note_on_c, 4, 49, 0
6, 24630, Note_on_c, 4, 49, 84
6, 24642, Note_on_c, 4, 49, 0
6, 24645, Note_on_c, 4, 49, 84
6, 24657, Note_on_c, 4, 49, 0
6, 24660, Note_on_c, 4, 49, 84
6, 24672, Note_on_c, 4, 49, 0
6, 24675, Note_on_c, 4, 49, 84
6, 24687, Note_on_c, 4, 49, 0
6, 24690, Note_on_c, 4, 49, 84
6, 24702, Note_on_c, 4, 49, 0
6, 24705, Note_on_c, 4, 49, 84
6, 24717, Note_on_c, 4, 49, 0
6, 24720, Note_on_c, 4, 49, 84
6, 24835, Note_on_c, 4, 49, 0
6, 24960, Note_on_c, 4, 47, 84
6, 24972, Note_on_c, 4, 47, 0
6, 24975, Note_on_c, 4, 47, 84
6, 24987, Note_on_c, 4, 47, 0
6, 24990, Note_on_c, 4, 47, 84
6, 25002, Note_on_c, 4, 47, 0
6, 25005, Note_on_c, 4, 47, 84
6, 25017, Note_on_c, 4, 47, 0
6, 25020, Note_on_c, 4, 47, 84
6, 25032, Note_on_c, 4, 47, 0
6, 25035, Note_on_c, 4, 47, 84
6, 25047, Note_on_c, 4, 47, 0
6, 25050, Note_on_c, 4, 47, 84
6, 25062, Note_on_c, 4, 47, 0
6, 25065, Note_on_c, 4, 47, 84
6, 25077, Note_on_c, 4, 47, 0
6, 25080, Note_on_c, 4, 47, 84
6, 25092, Note_on_c, 4, 47, 0
6, 25095, Note_on_c, 4, 47, 84
6, 25107, Note_on_c, 4, 47, 0
6, 25110, Note_on_c, 4, 47, 84
6, 25122, Note_on_c, 4, 47, 0
6, 25125, Note_on_c, 4, 47, 84
6, 25137, Note_on_c, 4, 47, 0
6, 25140, Note_on_c, 4, 47, 84
6, 25152, Note_on_c, 4, 47, 0
6, 25155, Note_on_c, 4, 47, 84
6, 25167, Note_on_c, 4, 47, 0
6, 25170, Note_on_c, 4, 47, 84
6, 25182, Note_on_c, 4, 47, 0
6, 25185, Note_on_c, 4, 47, 84
6, 25197, Note_on_c, 4, 47, 0
6, 25200, Note_on_c, 4, 45, 84
6, 25315, Note_on_c, 4, 45, 0
6, 25440, Note_on_c, 4, 56, 84
6, 25452, Note_on_c, 4, 56, 0
6, 25455, Note_on_c, 4, 56, 84
6, 25467, Note_on_c, 4, 56, 0
6, 25470, Note_on_c, 4, 56, 84
6, 25482, Note_on_c, 4, 56, 0
6, 25485, Note_on_c, 4, 56, 84
6, 25497, Note_on_c, 4, 56, 0
6, 25500, Note_on_c, 4, 56, 84
6, 25512, Note_on_c, 4, 56, 0
6, 25515, Note_on_c, 4, 56, 84
6, 25527, Note_on_c, 4, 56, 0
6, 25530, Note_on_c, 4, 56, 84
6, 25542, Note_on_c, 4, 56, 0
6, 25545, Note_on_c, 4, 56, 84
6, 25557, Note_on_c, 4, 56, 0
6, 25560, Note_on_c, 4, 56, 84
6, 25572, Note_on_c, 4, 56, 0
6, 25575, Note_on_c, 4, 56, 84
6, 25587, Note_on_c, 4, 56, 0
6, 25590, Note_on_c, 4, 56, 84
6, 25602, Note_on_c, 4, 56, 0
6, 25605, Note_on_c, 4, 56, 84
6, 25617, Note_on_c, 4, 56, 0
6, 25620, Note_on_c, 4, 56, 84
6, 25632, Note_on_c, 4, 56, 0
6, 25635, Note_on_c, 4, 56, 84
6, 25647, Note_on_c, 4, 56, 0
6, 25650, Note_on_c, 4, 56, 84
6, 25662, Note_on_c, 4, 56, 0
6, 25665, Note_on_c, 4, 56, 84
6, 25677, Note_on_c, 4, 56, 0
6, 25680, Note_on_c, 4, 54, 84
6, 25795, Note_on_c, 4, 54, 0
6, 25920, Note_on_c, 4, 52, 84
6, 25932, Note_on_c, 4, 52, 0
6, 25935, Note_on_c, 4, 52, 84
6, 25947, Note_on_c, 4, 52, 0
6, 25950, Note_on_c, 4, 52, 84
6, 25962, Note_on_c, 4, 52, 0
6, 25965, Note_on_c, 4, 52, 84
6, 25977, Note_on_c, 4, 52, 0
6, 25980, Note_on_c, 4, 52, 84
6, 25992, Note_on_c, 4, 52, 0
6, 25995, Note_on_c, 4, 52, 84
6, 26007, Note_on_c, 4, 52, 0
6, 26010, Note_on_c, 4, 52, 84
6, 26022, Note_on_c, 4, 52, 0
6, 26025, Note_on_c, 4, 52, 84
6, 26037, Note_on_c, 4, 52, 0
6, 26040, Note_on_c, 4, 49, 84
6, 26052, Note_on_c, 4, 49, 0
6, 26055, Note_on_c, 4, 49, 84
6, 26067, Note_on_c, 4, 49, 0
6, 26070, Note_on_c, 4, 49, 84
6, 26082, Note_on_c, 4, 49, 0
6, 26085, Note_on_c, 4, 49, 84
6, 26097, Note_on_c, 4, 49, 0
6, 26100, Note_on_c, 4, 49, 84
6, 26112, Note_on_c, 4, 49, 0
6, 26115, Note_on_c, 4, 49, 84
6, 26127, Note_on_c, 4, 49, 0
6, 26130, Note_on_c, 4, 49, 84
6, 26142, Note_on_c, 4, 49, 0
6, 26145, Note_on_c, 4, 49, 84
6, 26157, Note_on_c, 4, 49, 0
6, 26160, Note_on_c, 4, 44, 84
6, 26172, Note_on_c, 4, 44, 0
6, 26175, Note_on_c, 4, 44, 84
6, 26187, Note_on_c, 4, 44, 0
6, 26190, Note_on_c, 4, 44, 84
6, 26202, Note_on_c, 4, 44, 0
6, 26205, Note_on_c, 4, 44, 84
6, 26217, Note_on_c, 4, 44, 0
6, 26220, Note_on_c, 4, 44, 84
6, 26232, Note_on_c, 4, 44, 0
6, 26235, Note_on_c, 4, 44, 84
6, 26247, Note_on_c, 4, 44, 0
6, 26250, Note_on_c, 4, 44, 84
6, 26262, Note_on_c, 4, 44, 0
6, 26265, Note_on_c, 4, 44, 84
6, 26277, Note_on_c, 4, 44, 0
6, 26280, Note_on_c, 4, 44, 84
6, 26292, Note_on_c, 4, 44, 0
6, 26295, Note_on_c, 4, 44, 84
6, 26307, Note_on_c, 4, 44, 0
6, 26310, Note_on_c, 4, 44, 84
6, 26322, Note_on_c, 4, 44, 0
6, 26325, Note_on_c, 4, 44, 84
6, 26337, Note_on_c, 4, 44, 0
6, 26340, Note_on_c, 4, 44, 84
6, 26352, Note_on_c, 4, 44, 0
6, 26355, Note_on_c, 4, 44, 84
6, 26367, Note_on_c, 4, 44, 0
6, 26370, Note_on_c, 4, 44, 84
6, 26382, Note_on_c, 4, 44, 0
6, 26385, Note_on_c, 4, 44, 84
6, 26397, Note_on_c, 4, 44, 0
6, 26400, Note_on_c, 4, 44, 84
6, 26412, Note_on_c, 4, 44, 0
6, 26415, Note_on_c, 4, 44, 84
6, 26427, Note_on_c, 4, 44, 0
6, 26430, Note_on_c, 4, 44, 84
6, 26442, Note_on_c, 4, 44, 0
6, 26445, Note_on_c, 4, 44, 84
6, 26457, Note_on_c, 4, 44, 0
6, 26460, Note_on_c, 4, 44, 84
6, 26472, Note_on_c, 4, 44, 0
6, 26475, Note_on_c, 4, 44, 84
6, 26487, Note_on_c, 4, 44, 0
6, 26490, Note_on_c, 4, 44, 84
6, 26502, Note_on_c, 4, 44, 0
6, 26505, Note_on_c, 4, 44, 84
6, 26517, Note_on_c, 4, 44, 0
6, 26520, Note_on_c, 4, 44, 84
6, 26532, Note_on_c, 4, 44, 0
6, 26535, Note_on_c, 4, 44, 84
6, 26547, Note_on_c, 4, 44, 0
6, 26550, Note_on_c, 4, 44, 84
6, 26562, Note_on_c, 4, 44, 0
6, 26565, Note_on_c, 4, 44, 84
6, 26577, Note_on_c, 4, 44, 0
6, 26580, Note_on_c, 4, 44, 84
6, 26592, Note_on_c, 4, 44, 0
6, 26595, Note_on_c, 4, 44, 84
6, 26607, Note_on_c, 4, 44, 0
6, 26610, Note_on_c, 4, 44, 84
6, 26622, Note_on_c, 4, 44, 0
6, 26625, Note_on_c, 4, 44, 84
6, 26637, Note_on_c, 4, 44, 0
6, 26640, Note_on_c, 4, 49, 84
6, 26755, Note_on_c, 4, 49, 0
6, 26820, Note_on_c, 4, 49, 84
6, 26875, Note_on_c, 4, 49, 0
6, 26880, Note_on_c, 4, 49, 84
6, 26995, Note_on_c, 4, 49, 0
6, 27000, Note_on_c, 4, 49, 84
6, 27115, Note_on_c, 4, 49, 0
6, 27120, Note_on_c, 4, 49, 84
6, 27235, Note_on_c, 4, 49, 0
6, 27240, Note_on_c, 4, 49, 84
6, 27355, Note_on_c, 4, 49, 0
6, 27360, Note_on_c, 4, 49, 84
6, 27475, Note_on_c, 4, 49, 0
6, 27480, Note_on_c, 4, 49, 84
6, 27595, Note_on_c, 4, 49, 0
6, 27600, Note_on_c, 4, 49, 84
6, 27715, Note_on_c, 4, 49, 0
6, 27720, Note_on_c, 4, 49, 84
6, 27835, Note_on_c, 4, 49, 0
6, 27840, Note_on_c, 4, 49, 84
6, 27955, Note_on_c, 4, 49, 0
6, 27960, Note_on_c, 4, 49, 84
6, 28015, Note_on_c, 4, 49, 0
6, 28020, Note_on_c, 4, 56, 84
6, 28075, Note_on_c, 4, 56, 0
6, 28080, Note_on_c, 4, 61, 84
6, 28135, Note_on_c, 4, 61, 0
6, 28140, Note_on_c, 4, 49, 84
6, 28195, Note_on_c, 4, 49, 0
6, 28200, Note_on_c, 4, 56, 84
6, 28255, Note_on_c, 4, 56, 0
6, 28260, Note_on_c, 4, 44, 84
6, 28315, Note_on_c, 4, 44, 0
6, 28320, Note_on_c, 4, 49, 84
6, 31675, Note_on_c, 4, 49, 0
6, 31680, Note_on_c, 4, 49, 84
6, 31735, Note_on_c, 4, 49, 0
6, 31740, Note_on_c, 4, 49, 84
6, 31795, Note_on_c, 4, 49, 0
6, 31800, Note_on_c, 4, 49, 84
6, 31855, Note_on_c, 4, 49, 0
6, 31860, Note_on_c, 4, 49, 84
6, 31915, Note_on_c, 4, 49, 0
6, 31920, Note_on_c, 4, 54, 84
6, 31975, Note_on_c, 4, 54, 0
6, 31980, Note_on_c, 4, 54, 84
6, 32035, Note_on_c, 4, 54, 0
6, 32040, Note_on_c, 4, 54, 84
6, 32095, Note_on_c, 4, 54, 0
6, 32100, Note_on_c, 4, 54, 84
6, 32155, Note_on_c, 4, 54, 0
6, 32160, Note_on_c, 4, 47, 84
6, 32215, Note_on_c, 4, 47, 0
6, 32220, Note_on_c, 4, 47, 84
6, 32275, Note_on_c, 4, 47, 0
6, 32280, Note_on_c, 4, 47, 84
6, 32335, Note_on_c, 4, 47, 0
6, 32340, Note_on_c, 4, 47, 84
6, 32395, Note_on_c, 4, 47, 0
6, 32400, Note_on_c, 4, 52, 84
6, 32455, Note_on_c, 4, 52, 0
6, 32460, Note_on_c, 4, 52, 84
6, 32515, Note_on_c, 4, 52, 0
6, 32520, Note_on_c, 4, 52, 84
6, 32575, Note_on_c, 4, 52, 0
6, 32580, Note_on_c, 4, 47, 84
6, 32635, Note_on_c, 4, 47, 0
6, 32640, Note_on_c, 4, 52, 84
6, 32695, Note_on_c, 4, 52, 0
6, 32700, Note_on_c, 4, 52, 84
6, 32755, Note_on_c, 4, 52, 0
6, 32760, Note_on_c, 4, 52, 84
6, 32815, Note_on_c, 4, 52, 0
6, 32820, Note_on_c, 4, 47, 84
6, 32875, Note_on_c, 4, 47, 0
6, 32880, Note_on_c, 4, 52, 84
6, 32935, Note_on_c, 4, 52, 0
6, 32940, Note_on_c, 4, 52, 84
6, 32995, Note_on_c, 4, 52, 0
6, 33000, Note_on_c, 4, 52, 84
6, 33055, Note_on_c, 4, 52, 0
6, 33060, Note_on_c, 4, 47, 84
6, 33115, Note_on_c, 4, 47, 0
6, 33120, Note_on_c, 4, 52, 84
6, 33175, Note_on_c, 4, 52, 0
6, 33180, Note_on_c, 4, 52, 84
6, 33235, Note_on_c, 4, 52, 0
6, 33240, Note_on_c, 4, 52, 84
6, 33295, Note_on_c, 4, 52, 0
6, 33300, Note_on_c, 4, 47, 84
6, 33355, Note_on_c, 4, 47, 0
6, 33360, Note_on_c, 4, 52, 84
6, 33415, Note_on_c, 4, 52, 0
6, 33420, Note_on_c, 4, 52, 84
6, 33475, Note_on_c, 4, 52, 0
6, 33480, Note_on_c, 4, 52, 84
6, 33535, Note_on_c, 4, 52, 0
6, 33540, Note_on_c, 4, 47, 84
6, 33595, Note_on_c, 4, 47, 0
6, 33600, Note_on_c, 4, 52, 84
6, 33655, Note_on_c, 4, 52, 0
6, 33660, Note_on_c, 4, 52, 84
6, 33715, Note_on_c, 4, 52, 0
6, 33720, Note_on_c, 4, 52, 84
6, 33775, Note_on_c, 4, 52, 0
6, 33780, Note_on_c, 4, 47, 84
6, 33835, Note_on_c, 4, 47, 0
6, 33840, Note_on_c, 4, 47, 84
6, 34795, Note_on_c, 4, 47, 0
6, 34800, Note_on_c, 4, 52, 84
6, 34915, Note_on_c, 4, 52, 0
6, 34920, Note_on_c, 4, 52, 84
6, 35035, Note_on_c, 4, 52, 0
6, 35040, Note_on_c, 4, 54, 84
6, 35155, Note_on_c, 4, 54, 0
6, 35160, Note_on_c, 4, 54, 84
6, 35275, Note_on_c, 4, 54, 0
6, 35280, Note_on_c, 4, 56, 84
6, 35395, Note_on_c, 4, 56, 0
6, 35400, Note_on_c, 4, 56, 84
6, 35515, Note_on_c, 4, 56, 0
6, 35520, Note_on_c, 4, 57, 84
6, 35635, Note_on_c, 4, 57, 0
6, 35640, Note_on_c, 4, 56, 84
6, 35695, Note_on_c, 4, 56, 0
6, 35700, Note_on_c, 4, 54, 84
6, 35755, Note_on_c, 4, 54, 0
6, 35760, Note_on_c, 4, 52, 84
6, 35875, Note_on_c, 4, 52, 0
6, 36000, Note_on_c, 4, 52, 84
6, 36115, Note_on_c, 4, 52, 0
6, 36240, Note_on_c, 4, 52, 84
6, 36355, Note_on_c, 4, 52, 0
6, 36360, Note_on_c, 4, 47, 84
6, 36475, Note_on_c, 4, 47, 0
6, 36480, Note_on_c, 4, 52, 84
6, 36595, Note_on_c, 4, 52, 0
6, 36600, Note_on_c, 4, 52, 84
6, 36715, Note_on_c, 4, 52, 0
6, 36720, Note_on_c, 4, 52, 84
6, 36835, Note_on_c, 4, 52, 0
6, 36840, Note_on_c, 4, 52, 84
6, 36955, Note_on_c, 4, 52, 0
6, 36960, Note_on_c, 4, 52, 84
6, 37075, Note_on_c, 4, 52, 0
6, 37080, Note_on_c, 4, 52, 84
6, 37195, Note_on_c, 4, 52, 0
6, 37200, Note_on_c, 4, 52, 84
6, 37315, Note_on_c, 4, 52, 0
6, 37320, Note_on_c, 4, 52, 84
6, 37435, Note_on_c, 4, 52, 0
6, 37440, Note_on_c, 4, 52, 84
6, 37555, Note_on_c, 4, 52, 0
6, 37560, Note_on_c, 4, 52, 84
6, 37615, Note_on_c, 4, 52, 0
6, 37620, Note_on_c, 4, 51, 84
6, 37675, Note_on_c, 4, 51, 0
6, 37680, Note_on_c, 4, 52, 84
6, 37735, Note_on_c, 4, 52, 0
6, 37740, Note_on_c, 4, 40, 84
6, 37795, Note_on_c, 4, 40, 0
6, 37800, Note_on_c, 4, 59, 84
6, 37855, Note_on_c, 4, 59, 0
6, 37860, Note_on_c, 4, 47, 84
6, 37915, Note_on_c, 4, 47, 0
6, 37920, Note_on_c, 4, 40, 84
6, 38035, Note_on_c, 4, 40, 0
6, 38100, Note_on_c, 4, 52, 84
6, 38155, Note_on_c, 4, 52, 0
6, 38160, Note_on_c, 4, 52, 84
6, 38275, Note_on_c, 4, 52, 0
6, 38280, Note_on_c, 4, 52, 84
6, 38395, Note_on_c, 4, 52, 0
6, 38400, Note_on_c, 4, 52, 84
6, 38515, Note_on_c, 4, 52, 0
6, 38520, Note_on_c, 4, 52, 84
6, 38635, Note_on_c, 4, 52, 0
6, 38640, Note_on_c, 4, 52, 84
6, 38755, Note_on_c, 4, 52, 0
6, 38760, Note_on_c, 4, 52, 84
6, 38875, Note_on_c, 4, 52, 0
6, 38880, Note_on_c, 4, 52, 84
6, 38995, Note_on_c, 4, 52, 0
6, 39000, Note_on_c, 4, 52, 84
6, 39115, Note_on_c, 4, 52, 0
6, 39120, Note_on_c, 4, 52, 84
6, 39235, Note_on_c, 4, 52, 0
6, 39240, Note_on_c, 4, 52, 84
6, 39295, Note_on_c, 4, 52, 0
6, 39300, Note_on_c, 4, 47, 84
6, 39355, Note_on_c, 4, 47, 0
6, 39360, Note_on_c, 4, 52, 84
6, 39415, Note_on_c, 4, 52, 0
6, 39420, Note_on_c, 4, 40, 84
6, 39475, Note_on_c, 4, 40, 0
6, 39480, Note_on_c, 4, 59, 84
6, 39535, Note_on_c, 4, 59, 0
6, 39540, Note_on_c, 4, 47, 84
6, 39595, Note_on_c, 4, 47, 0
6, 39600, Note_on_c, 4, 40, 84
6, 39835, Note_on_c, 4, 40, 0
6, 40080, Program_c, 4, 0
6, 40080, Control_c, 4, 7, 100
6, 40080, Control_c, 4, 10, 64
6, 40080, Control_c, 4, 93, 0
6, 40080, Control_c, 4, 91, 40
6, 40081, Text_t, "Non Registered Parameter Numbers"
6, 40081, Text_t, "For Roland SC-55 Vibrato"
6, 40081, Text_t, "Set up NRPN for Vibrate Rate"
6, 40082, Control_c, 4, 99, 1
6, 40083, Control_c, 4, 98, 8
6, 40084, Text_t, "Data Entry Command"
6, 40084, Control_c, 4, 6, 64
6, 40085, Text_t, "Set up NRPN for Vibrate Delay"
6, 40086, Control_c, 4, 99, 1
6, 40087, Control_c, 4, 98, 10
6, 40088, Text_t, "Data Entry Command"
6, 40088, Control_c, 4, 6, 64
6, 40089, Text_t, "Set up NRPN for Vibrate Depth"
6, 40090, Control_c, 4, 99, 1
6, 40091, Control_c, 4, 98, 9
6, 40092, Text_t, "Data Entry Command; Vibrato ON"
6, 40092, Control_c, 4, 6, 64
6, 40092, End_track
7, 0, Start_track
7, 0, MIDI_port, 0
7, 0, Title_t, "Contrabass"
7, 0, Program_c, 5, 43
7, 0, Control_c, 5, 7, 40
7, 0, Control_c, 5, 10, 104
7, 0, Control_c, 5, 93, 0
7, 0, Control_c, 5, 91, 120
7, 1, Text_t, "Non Registered Parameter Numbers"
7, 1, Text_t, "For Roland SC-55 Vibrato"
7, 1, Text_t, "Set up NRPN for Vibrate Rate"
7, 2, Control_c, 5, 99, 1
7, 3, Control_c, 5, 98, 8
7, 4, Text_t, "Data Entry Command"
7, 4, Control_c, 5, 6, 68
7, 5, Text_t, "Set up NRPN for Vibrate Delay"
7, 6, Control_c, 5, 99, 1
7, 7, Control_c, 5, 98, 10
7, 8, Text_t, "Data Entry Command"
7, 8, Control_c, 5, 6, 14
7, 9, Text_t, "Set up NRPN for Vibrate Depth"
7, 10, Control_c, 5, 99, 1
7, 11, Control_c, 5, 98, 9
7, 12, Text_t, "Data Entry Command; Vibrato ON"
7, 12, Control_c, 5, 6, 72
7, 420, Note_on_c, 5, 40, 84
7, 480, Note_on_c, 5, 40, 0
7, 480, Note_on_c, 5, 40, 84
7, 595, Note_on_c, 5, 40, 0
7, 600, Note_on_c, 5, 40, 84
7, 715, Note_on_c, 5, 40, 0
7, 720, Note_on_c, 5, 40, 84
7, 835, Note_on_c, 5, 40, 0
7, 840, Note_on_c, 5, 40, 84
7, 955, Note_on_c, 5, 40, 0
7, 960, Note_on_c, 5, 40, 84
7, 1075, Note_on_c, 5, 40, 0
7, 1080, Note_on_c, 5, 40, 84
7, 1195, Note_on_c, 5, 40, 0
7, 1200, Note_on_c, 5, 40, 84
7, 1315, Note_on_c, 5, 40, 0
7, 1320, Note_on_c, 5, 40, 84
7, 1435, Note_on_c, 5, 40, 0
7, 1440, Note_on_c, 5, 40, 84
7, 1495, Note_on_c, 5, 40, 0
7, 1500, Note_on_c, 5, 40, 84
7, 1555, Note_on_c, 5, 40, 0
7, 1560, Note_on_c, 5, 33, 84
7, 1615, Note_on_c, 5, 33, 0
7, 1620, Note_on_c, 5, 34, 84
7, 1675, Note_on_c, 5, 34, 0
7, 1680, Note_on_c, 5, 35, 84
7, 1795, Note_on_c, 5, 35, 0
7, 1860, Note_on_c, 5, 40, 65
7, 1915, Note_on_c, 5, 40, 0
7, 1920, Note_on_c, 5, 40, 65
7, 2035, Note_on_c, 5, 40, 0
7, 2040, Note_on_c, 5, 40, 65
7, 2155, Note_on_c, 5, 40, 0
7, 2160, Note_on_c, 5, 40, 65
7, 2275, Note_on_c, 5, 40, 0
7, 2280, Note_on_c, 5, 40, 65
7, 2395, Note_on_c, 5, 40, 0
7, 2400, Note_on_c, 5, 40, 65
7, 2515, Note_on_c, 5, 40, 0
7, 2520, Note_on_c, 5, 40, 65
7, 2635, Note_on_c, 5, 40, 0
7, 2640, Note_on_c, 5, 40, 65
7, 2755, Note_on_c, 5, 40, 0
7, 2760, Note_on_c, 5, 40, 65
7, 2875, Note_on_c, 5, 40, 0
7, 2880, Note_on_c, 5, 40, 65
7, 2935, Note_on_c, 5, 40, 0
7, 2940, Note_on_c, 5, 40, 65
7, 2995, Note_on_c, 5, 40, 0
7, 3000, Note_on_c, 5, 33, 65
7, 3055, Note_on_c, 5, 33, 0
7, 3060, Note_on_c, 5, 34, 65
7, 3115, Note_on_c, 5, 34, 0
7, 3120, Note_on_c, 5, 35, 65
7, 3235, Note_on_c, 5, 35, 0
7, 3300, Note_on_c, 5, 40, 84
7, 3355, Note_on_c, 5, 40, 0
7, 3360, Note_on_c, 5, 40, 84
7, 3475, Note_on_c, 5, 40, 0
7, 3480, Note_on_c, 5, 40, 84
7, 3595, Note_on_c, 5, 40, 0
7, 3600, Note_on_c, 5, 40, 84
7, 3715, Note_on_c, 5, 40, 0
7, 3720, Note_on_c, 5, 40, 84
7, 3835, Note_on_c, 5, 40, 0
7, 3840, Note_on_c, 5, 40, 84
7, 3955, Note_on_c, 5, 40, 0
7, 3960, Note_on_c, 5, 40, 84
7, 4075, Note_on_c, 5, 40, 0
7, 4080, Note_on_c, 5, 40, 84
7, 4195, Note_on_c, 5, 40, 0
7, 4200, Note_on_c, 5, 40, 84
7, 4315, Note_on_c, 5, 40, 0
7, 4320, Note_on_c, 5, 40, 84
7, 4435, Note_on_c, 5, 40, 0
7, 4440, Note_on_c, 5, 40, 84
7, 4495, Note_on_c, 5, 40, 0
7, 4500, Note_on_c, 5, 35, 84
7, 4555, Note_on_c, 5, 35, 0
7, 4560, Note_on_c, 5, 40, 84
7, 4615, Note_on_c, 5, 40, 0
7, 4620, Note_on_c, 5, 28, 84
7, 4675, Note_on_c, 5, 28, 0
7, 4680, Note_on_c, 5, 47, 84
7, 4735, Note_on_c, 5, 47, 0
7, 4740, Note_on_c, 5, 35, 84
7, 4795, Note_on_c, 5, 35, 0
7, 4800, Note_on_c, 5, 28, 84
7, 4915, Note_on_c, 5, 28, 0
7, 4980, Note_on_c, 5, 40, 65
7, 5035, Note_on_c, 5, 40, 0
7, 5040, Note_on_c, 5, 40, 65
7, 5155, Note_on_c, 5, 40, 0
7, 5160, Note_on_c, 5, 40, 65
7, 5275, Note_on_c, 5, 40, 0
7, 5280, Note_on_c, 5, 40, 65
7, 5395, Note_on_c, 5, 40, 0
7, 5400, Note_on_c, 5, 40, 65
7, 5515, Note_on_c, 5, 40, 0
7, 5520, Note_on_c, 5, 40, 65
7, 5635, Note_on_c, 5, 40, 0
7, 5640, Note_on_c, 5, 40, 65
7, 5755, Note_on_c, 5, 40, 0
7, 5760, Note_on_c, 5, 40, 65
7, 5875, Note_on_c, 5, 40, 0
7, 5880, Note_on_c, 5, 40, 65
7, 5995, Note_on_c, 5, 40, 0
7, 6000, Note_on_c, 5, 40, 65
7, 6115, Note_on_c, 5, 40, 0
7, 6120, Note_on_c, 5, 40, 65
7, 6235, Note_on_c, 5, 40, 0
7, 6240, Note_on_c, 5, 40, 65
7, 6295, Note_on_c, 5, 40, 0
7, 6300, Note_on_c, 5, 28, 65
7, 6355, Note_on_c, 5, 28, 0
7, 6360, Note_on_c, 5, 47, 65
7, 6415, Note_on_c, 5, 47, 0
7, 6420, Note_on_c, 5, 35, 65
7, 6475, Note_on_c, 5, 35, 0
7, 6480, Note_on_c, 5, 28, 65
7, 6595, Note_on_c, 5, 28, 0
7, 13380, Note_on_c, 5, 40, 84
7, 13435, Note_on_c, 5, 40, 0
7, 13440, Note_on_c, 5, 40, 84
7, 13555, Note_on_c, 5, 40, 0
7, 13560, Note_on_c, 5, 40, 84
7, 13675, Note_on_c, 5, 40, 0
7, 13680, Note_on_c, 5, 40, 84
7, 13795, Note_on_c, 5, 40, 0
7, 13800, Note_on_c, 5, 40, 84
7, 13915, Note_on_c, 5, 40, 0
7, 13920, Note_on_c, 5, 40, 84
7, 14035, Note_on_c, 5, 40, 0
7, 14040, Note_on_c, 5, 40, 84
7, 14155, Note_on_c, 5, 40, 0
7, 14160, Note_on_c, 5, 40, 84
7, 14275, Note_on_c, 5, 40, 0
7, 14280, Note_on_c, 5, 40, 84
7, 14395, Note_on_c, 5, 40, 0
7, 14400, Note_on_c, 5, 40, 84
7, 14515, Note_on_c, 5, 40, 0
7, 14520, Note_on_c, 5, 40, 84
7, 14575, Note_on_c, 5, 40, 0
7, 14580, Note_on_c, 5, 35, 84
7, 14635, Note_on_c, 5, 35, 0
7, 14640, Note_on_c, 5, 40, 84
7, 14695, Note_on_c, 5, 40, 0
7, 14700, Note_on_c, 5, 28, 84
7, 14755, Note_on_c, 5, 28, 0
7, 14760, Note_on_c, 5, 47, 84
7, 14815, Note_on_c, 5, 47, 0
7, 14820, Note_on_c, 5, 35, 84
7, 14875, Note_on_c, 5, 35, 0
7, 14880, Note_on_c, 5, 40, 84
7, 14935, Note_on_c, 5, 40, 0
7, 14940, Note_on_c, 5, 40, 84
7, 14995, Note_on_c, 5, 40, 0
7, 15000, Note_on_c, 5, 40, 84
7, 15055, Note_on_c, 5, 40, 0
7, 15060, Note_on_c, 5, 40, 84
7, 15115, Note_on_c, 5, 40, 0
7, 15120, Note_on_c, 5, 40, 84
7, 15175, Note_on_c, 5, 40, 0
7, 15180, Note_on_c, 5, 40, 84
7, 15235, Note_on_c, 5, 40, 0
7, 15240, Note_on_c, 5, 40, 84
7, 15295, Note_on_c, 5, 40, 0
7, 15300, Note_on_c, 5, 40, 84
7, 15355, Note_on_c, 5, 40, 0
7, 15360, Note_on_c, 5, 40, 84
7, 15415, Note_on_c, 5, 40, 0
7, 15420, Note_on_c, 5, 40, 84
7, 15475, Note_on_c, 5, 40, 0
7, 15480, Note_on_c, 5, 40, 84
7, 15535, Note_on_c, 5, 40, 0
7, 15540, Note_on_c, 5, 40, 84
7, 15595, Note_on_c, 5, 40, 0
7, 15600, Note_on_c, 5, 40, 84
7, 15655, Note_on_c, 5, 40, 0
7, 15660, Note_on_c, 5, 40, 84
7, 15715, Note_on_c, 5, 40, 0
7, 15720, Note_on_c, 5, 40, 84
7, 15775, Note_on_c, 5, 40, 0
7, 15780, Note_on_c, 5, 40, 84
7, 15835, Note_on_c, 5, 40, 0
7, 15840, Note_on_c, 5, 35, 84
7, 15895, Note_on_c, 5, 35, 0
7, 15900, Note_on_c, 5, 35, 84
7, 15955, Note_on_c, 5, 35, 0
7, 15960, Note_on_c, 5, 35, 84
7, 16015, Note_on_c, 5, 35, 0
7, 16020, Note_on_c, 5, 35, 84
7, 16075, Note_on_c, 5, 35, 0
7, 16080, Note_on_c, 5, 35, 84
7, 16135, Note_on_c, 5, 35, 0
7, 16140, Note_on_c, 5, 35, 84
7, 16195, Note_on_c, 5, 35, 0
7, 16200, Note_on_c, 5, 35, 84
7, 16255, Note_on_c, 5, 35, 0
7, 16260, Note_on_c, 5, 35, 84
7, 16315, Note_on_c, 5, 35, 0
7, 16320, Note_on_c, 5, 35, 84
7, 16375, Note_on_c, 5, 35, 0
7, 16380, Note_on_c, 5, 35, 84
7, 16435, Note_on_c, 5, 35, 0
7, 16440, Note_on_c, 5, 35, 84
7, 16495, Note_on_c, 5, 35, 0
7, 16500, Note_on_c, 5, 35, 84
7, 16555, Note_on_c, 5, 35, 0
7, 16560, Note_on_c, 5, 35, 84
7, 16615, Note_on_c, 5, 35, 0
7, 16620, Note_on_c, 5, 35, 84
7, 16675, Note_on_c, 5, 35, 0
7, 16680, Note_on_c, 5, 35, 84
7, 16735, Note_on_c, 5, 35, 0
7, 16740, Note_on_c, 5, 35, 84
7, 16795, Note_on_c, 5, 35, 0
7, 16800, Note_on_c, 5, 40, 84
7, 16855, Note_on_c, 5, 40, 0
7, 16860, Note_on_c, 5, 40, 84
7, 16915, Note_on_c, 5, 40, 0
7, 16920, Note_on_c, 5, 40, 84
7, 16975, Note_on_c, 5, 40, 0
7, 16980, Note_on_c, 5, 40, 84
7, 17035, Note_on_c, 5, 40, 0
7, 17040, Note_on_c, 5, 40, 84
7, 17095, Note_on_c, 5, 40, 0
7, 17100, Note_on_c, 5, 40, 84
7, 17155, Note_on_c, 5, 40, 0
7, 17160, Note_on_c, 5, 40, 84
7, 17215, Note_on_c, 5, 40, 0
7, 17220, Note_on_c, 5, 40, 84
7, 17275, Note_on_c, 5, 40, 0
7, 17280, Note_on_c, 5, 40, 84
7, 17335, Note_on_c, 5, 40, 0
7, 17340, Note_on_c, 5, 40, 84
7, 17395, Note_on_c, 5, 40, 0
7, 17400, Note_on_c, 5, 40, 84
7, 17455, Note_on_c, 5, 40, 0
7, 17460, Note_on_c, 5, 40, 84
7, 17515, Note_on_c, 5, 40, 0
7, 17520, Note_on_c, 5, 40, 84
7, 17575, Note_on_c, 5, 40, 0
7, 17580, Note_on_c, 5, 40, 84
7, 17635, Note_on_c, 5, 40, 0
7, 17640, Note_on_c, 5, 40, 84
7, 17695, Note_on_c, 5, 40, 0
7, 17700, Note_on_c, 5, 40, 84
7, 17755, Note_on_c, 5, 40, 0
7, 17760, Note_on_c, 5, 40, 84
7, 17790, Note_on_c, 5, 35, 84
7, 17795, Note_on_c, 5, 40, 0
7, 17820, Note_on_c, 5, 35, 0
7, 17820, Note_on_c, 5, 40, 84
7, 17850, Note_on_c, 5, 35, 84
7, 17855, Note_on_c, 5, 40, 0
7, 17880, Note_on_c, 5, 35, 0
7, 17880, Note_on_c, 5, 40, 84
7, 17910, Note_on_c, 5, 35, 84
7, 17915, Note_on_c, 5, 40, 0
7, 17940, Note_on_c, 5, 35, 0
7, 17940, Note_on_c, 5, 40, 84
7, 17970, Note_on_c, 5, 35, 84
7, 17975, Note_on_c, 5, 40, 0
7, 18000, Note_on_c, 5, 35, 0
7, 18000, Note_on_c, 5, 39, 84
7, 18030, Note_on_c, 5, 35, 84
7, 18035, Note_on_c, 5, 39, 0
7, 18060, Note_on_c, 5, 35, 0
7, 18060, Note_on_c, 5, 39, 84
7, 18090, Note_on_c, 5, 35, 84
7, 18095, Note_on_c, 5, 39, 0
7, 18120, Note_on_c, 5, 35, 0
7, 18120, Note_on_c, 5, 39, 84
7, 18150, Note_on_c, 5, 35, 84
7, 18155, Note_on_c, 5, 39, 0
7, 18180, Note_on_c, 5, 35, 0
7, 18180, Note_on_c, 5, 39, 84
7, 18210, Note_on_c, 5, 35, 84
7, 18215, Note_on_c, 5, 39, 0
7, 18240, Note_on_c, 5, 35, 0
7, 18240, Note_on_c, 5, 40, 84
7, 18270, Note_on_c, 5, 35, 84
7, 18275, Note_on_c, 5, 40, 0
7, 18300, Note_on_c, 5, 35, 0
7, 18300, Note_on_c, 5, 40, 84
7, 18330, Note_on_c, 5, 35, 84
7, 18335, Note_on_c, 5, 40, 0
7, 18360, Note_on_c, 5, 35, 0
7, 18360, Note_on_c, 5, 40, 84
7, 18390, Note_on_c, 5, 35, 84
7, 18395, Note_on_c, 5, 40, 0
7, 18420, Note_on_c, 5, 35, 0
7, 18420, Note_on_c, 5, 40, 84
7, 18450, Note_on_c, 5, 35, 84
7, 18455, Note_on_c, 5, 40, 0
7, 18480, Note_on_c, 5, 35, 0
7, 18480, Note_on_c, 5, 42, 84
7, 18510, Note_on_c, 5, 35, 84
7, 18515, Note_on_c, 5, 42, 0
7, 18540, Note_on_c, 5, 35, 0
7, 18540, Note_on_c, 5, 42, 84
7, 18570, Note_on_c, 5, 35, 84
7, 18575, Note_on_c, 5, 42, 0
7, 18600, Note_on_c, 5, 35, 0
7, 18600, Note_on_c, 5, 42, 84
7, 18630, Note_on_c, 5, 35, 84
7, 18635, Note_on_c, 5, 42, 0
7, 18660, Note_on_c, 5, 35, 0
7, 18660, Note_on_c, 5, 42, 84
7, 18690, Note_on_c, 5, 35, 84
7, 18695, Note_on_c, 5, 42, 0
7, 18720, Note_on_c, 5, 35, 0
7, 18720, Note_on_c, 5, 40, 84
7, 18750, Note_on_c, 5, 35, 84
7, 18755, Note_on_c, 5, 40, 0
7, 18780, Note_on_c, 5, 35, 0
7, 18780, Note_on_c, 5, 40, 84
7, 18810, Note_on_c, 5, 35, 84
7, 18815, Note_on_c, 5, 40, 0
7, 18840, Note_on_c, 5, 35, 0
7, 18840, Note_on_c, 5, 40, 84
7, 18870, Note_on_c, 5, 35, 84
7, 18875, Note_on_c, 5, 40, 0
7, 18900, Note_on_c, 5, 35, 0
7, 18900, Note_on_c, 5, 40, 84
7, 18930, Note_on_c, 5, 35, 84
7, 18935, Note_on_c, 5, 40, 0
7, 18960, Note_on_c, 5, 35, 0
7, 18960, Note_on_c, 5, 39, 84
7, 18990, Note_on_c, 5, 35, 84
7, 18995, Note_on_c, 5, 39, 0
7, 19020, Note_on_c, 5, 35, 0
7, 19020, Note_on_c, 5, 39, 84
7, 19050, Note_on_c, 5, 35, 84
7, 19055, Note_on_c, 5, 39, 0
7, 19080, Note_on_c, 5, 35, 0
7, 19080, Note_on_c, 5, 39, 84
7, 19110, Note_on_c, 5, 35, 84
7, 19115, Note_on_c, 5, 39, 0
7, 19140, Note_on_c, 5, 35, 0
7, 19140, Note_on_c, 5, 39, 84
7, 19170, Note_on_c, 5, 35, 84
7, 19175, Note_on_c, 5, 39, 0
7, 19200, Note_on_c, 5, 35, 0
7, 19200, Note_on_c, 5, 40, 84
7, 19230, Note_on_c, 5, 35, 84
7, 19235, Note_on_c, 5, 40, 0
7, 19260, Note_on_c, 5, 35, 0
7, 19260, Note_on_c, 5, 40, 84
7, 19290, Note_on_c, 5, 35, 84
7, 19295, Note_on_c, 5, 40, 0
7, 19320, Note_on_c, 5, 35, 0
7, 19320, Note_on_c, 5, 40, 84
7, 19350, Note_on_c, 5, 35, 84
7, 19355, Note_on_c, 5, 40, 0
7, 19380, Note_on_c, 5, 35, 0
7, 19380, Note_on_c, 5, 40, 84
7, 19410, Note_on_c, 5, 35, 84
7, 19415, Note_on_c, 5, 40, 0
7, 19440, Note_on_c, 5, 35, 0
7, 19440, Note_on_c, 5, 35, 84
7, 19555, Note_on_c, 5, 35, 0
7, 19620, Note_on_c, 5, 35, 84
7, 19675, Note_on_c, 5, 35, 0
7, 19680, Note_on_c, 5, 35, 84
7, 19795, Note_on_c, 5, 35, 0
7, 19800, Note_on_c, 5, 35, 84
7, 19915, Note_on_c, 5, 35, 0
7, 19920, Note_on_c, 5, 35, 84
7, 20035, Note_on_c, 5, 35, 0
7, 20040, Note_on_c, 5, 35, 84
7, 20155, Note_on_c, 5, 35, 0
7, 20160, Note_on_c, 5, 35, 84
7, 20275, Note_on_c, 5, 35, 0
7, 20280, Note_on_c, 5, 35, 84
7, 20395, Note_on_c, 5, 35, 0
7, 20400, Note_on_c, 5, 35, 84
7, 20515, Note_on_c, 5, 35, 0
7, 20520, Note_on_c, 5, 35, 84
7, 20635, Note_on_c, 5, 35, 0
7, 20640, Note_on_c, 5, 35, 84
7, 20755, Note_on_c, 5, 35, 0
7, 20760, Note_on_c, 5, 35, 84
7, 20815, Note_on_c, 5, 35, 0
7, 20820, Note_on_c, 5, 42, 84
7, 20875, Note_on_c, 5, 42, 0
7, 20880, Note_on_c, 5, 47, 84
7, 20935, Note_on_c, 5, 47, 0
7, 20940, Note_on_c, 5, 35, 84
7, 20995, Note_on_c, 5, 35, 0
7, 21000, Note_on_c, 5, 42, 84
7, 21055, Note_on_c, 5, 42, 0
7, 21060, Note_on_c, 5, 30, 84
7, 21115, Note_on_c, 5, 30, 0
7, 21120, Note_on_c, 5, 35, 84
7, 21132, Note_on_c, 5, 35, 0
7, 21135, Note_on_c, 5, 35, 84
7, 21147, Note_on_c, 5, 35, 0
7, 21150, Note_on_c, 5, 35, 84
7, 21162, Note_on_c, 5, 35, 0
7, 21165, Note_on_c, 5, 35, 84
7, 21177, Note_on_c, 5, 35, 0
7, 21180, Note_on_c, 5, 35, 84
7, 21192, Note_on_c, 5, 35, 0
7, 21195, Note_on_c, 5, 35, 84
7, 21207, Note_on_c, 5, 35, 0
7, 21210, Note_on_c, 5, 35, 84
7, 21222, Note_on_c, 5, 35, 0
7, 21225, Note_on_c, 5, 35, 84
7, 21237, Note_on_c, 5, 35, 0
7, 21240, Note_on_c, 5, 35, 84
7, 21252, Note_on_c, 5, 35, 0
7, 21255, Note_on_c, 5, 35, 84
7, 21267, Note_on_c, 5, 35, 0
7, 21270, Note_on_c, 5, 35, 84
7, 21282, Note_on_c, 5, 35, 0
7, 21285, Note_on_c, 5, 35, 84
7, 21297, Note_on_c, 5, 35, 0
7, 21300, Note_on_c, 5, 35, 84
7, 21312, Note_on_c, 5, 35, 0
7, 21315, Note_on_c, 5, 35, 84
7, 21327, Note_on_c, 5, 35, 0
7, 21330, Note_on_c, 5, 35, 84
7, 21342, Note_on_c, 5, 35, 0
7, 21345, Note_on_c, 5, 35, 84
7, 21357, Note_on_c, 5, 35, 0
7, 21360, Note_on_c, 5, 35, 84
7, 21372, Note_on_c, 5, 35, 0
7, 21375, Note_on_c, 5, 35, 84
7, 21387, Note_on_c, 5, 35, 0
7, 21390, Note_on_c, 5, 35, 84
7, 21402, Note_on_c, 5, 35, 0
7, 21405, Note_on_c, 5, 35, 84
7, 21417, Note_on_c, 5, 35, 0
7, 21420, Note_on_c, 5, 35, 84
7, 21432, Note_on_c, 5, 35, 0
7, 21435, Note_on_c, 5, 35, 84
7, 21447, Note_on_c, 5, 35, 0
7, 21450, Note_on_c, 5, 35, 84
7, 21462, Note_on_c, 5, 35, 0
7, 21465, Note_on_c, 5, 35, 84
7, 21477, Note_on_c, 5, 35, 0
7, 21480, Note_on_c, 5, 35, 84
7, 21492, Note_on_c, 5, 35, 0
7, 21495, Note_on_c, 5, 35, 84
7, 21507, Note_on_c, 5, 35, 0
7, 21510, Note_on_c, 5, 35, 84
7, 21522, Note_on_c, 5, 35, 0
7, 21525, Note_on_c, 5, 35, 84
7, 21537, Note_on_c, 5, 35, 0
7, 21540, Note_on_c, 5, 35, 84
7, 21552, Note_on_c, 5, 35, 0
7, 21555, Note_on_c, 5, 35, 84
7, 21567, Note_on_c, 5, 35, 0
7, 21570, Note_on_c, 5, 35, 84
7, 21582, Note_on_c, 5, 35, 0
7, 21585, Note_on_c, 5, 35, 84
7, 21597, Note_on_c, 5, 35, 0
7, 21600, Note_on_c, 5, 35, 84
7, 21655, Note_on_c, 5, 35, 0
7, 21720, Note_on_c, 5, 35, 84
7, 21775, Note_on_c, 5, 35, 0
7, 21840, Note_on_c, 5, 35, 84
7, 21895, Note_on_c, 5, 35, 0
7, 21960, Note_on_c, 5, 35, 84
7, 22015, Note_on_c, 5, 35, 0
7, 22080, Note_on_c, 5, 35, 84
7, 22092, Note_on_c, 5, 35, 0
7, 22095, Note_on_c, 5, 35, 84
7, 22107, Note_on_c, 5, 35, 0
7, 22110, Note_on_c, 5, 35, 84
7, 22122, Note_on_c, 5, 35, 0
7, 22125, Note_on_c, 5, 35, 84
7, 22137, Note_on_c, 5, 35, 0
7, 22140, Note_on_c, 5, 35, 84
7, 22152, Note_on_c, 5, 35, 0
7, 22155, Note_on_c, 5, 35, 84
7, 22167, Note_on_c, 5, 35, 0
7, 22170, Note_on_c, 5, 35, 84
7, 22182, Note_on_c, 5, 35, 0
7, 22185, Note_on_c, 5, 35, 84
7, 22197, Note_on_c, 5, 35, 0
7, 22200, Note_on_c, 5, 35, 84
7, 22212, Note_on_c, 5, 35, 0
7, 22215, Note_on_c, 5, 35, 84
7, 22227, Note_on_c, 5, 35, 0
7, 22230, Note_on_c, 5, 35, 84
7, 22242, Note_on_c, 5, 35, 0
7, 22245, Note_on_c, 5, 35, 84
7, 22257, Note_on_c, 5, 35, 0
7, 22260, Note_on_c, 5, 35, 84
7, 22272, Note_on_c, 5, 35, 0
7, 22275, Note_on_c, 5, 35, 84
7, 22287, Note_on_c, 5, 35, 0
7, 22290, Note_on_c, 5, 35, 84
7, 22302, Note_on_c, 5, 35, 0
7, 22305, Note_on_c, 5, 35, 84
7, 22317, Note_on_c, 5, 35, 0
7, 22320, Note_on_c, 5, 33, 84
7, 22332, Note_on_c, 5, 33, 0
7, 22335, Note_on_c, 5, 33, 84
7, 22347, Note_on_c, 5, 33, 0
7, 22350, Note_on_c, 5, 33, 84
7, 22362, Note_on_c, 5, 33, 0
7, 22365, Note_on_c, 5, 33, 84
7, 22377, Note_on_c, 5, 33, 0
7, 22380, Note_on_c, 5, 33, 84
7, 22392, Note_on_c, 5, 33, 0
7, 22395, Note_on_c, 5, 33, 84
7, 22407, Note_on_c, 5, 33, 0
7, 22410, Note_on_c, 5, 33, 84
7, 22422, Note_on_c, 5, 33, 0
7, 22425, Note_on_c, 5, 33, 84
7, 22437, Note_on_c, 5, 33, 0
7, 22440, Note_on_c, 5, 33, 84
7, 22452, Note_on_c, 5, 33, 0
7, 22455, Note_on_c, 5, 33, 84
7, 22467, Note_on_c, 5, 33, 0
7, 22470, Note_on_c, 5, 33, 84
7, 22482, Note_on_c, 5, 33, 0
7, 22485, Note_on_c, 5, 33, 84
7, 22497, Note_on_c, 5, 33, 0
7, 22500, Note_on_c, 5, 33, 84
7, 22512, Note_on_c, 5, 33, 0
7, 22515, Note_on_c, 5, 33, 84
7, 22527, Note_on_c, 5, 33, 0
7, 22530, Note_on_c, 5, 33, 84
7, 22542, Note_on_c, 5, 33, 0
7, 22545, Note_on_c, 5, 33, 84
7, 22557, Note_on_c, 5, 33, 0
7, 22560, Note_on_c, 5, 32, 84
7, 22675, Note_on_c, 5, 32, 0
7, 23040, Note_on_c, 5, 33, 84
7, 23052, Note_on_c, 5, 33, 0
7, 23055, Note_on_c, 5, 33, 84
7, 23067, Note_on_c, 5, 33, 0
7, 23070, Note_on_c, 5, 33, 84
7, 23082, Note_on_c, 5, 33, 0
7, 23085, Note_on_c, 5, 33, 84
7, 23097, Note_on_c, 5, 33, 0
7, 23100, Note_on_c, 5, 33, 84
7, 23112, Note_on_c, 5, 33, 0
7, 23115, Note_on_c, 5, 33, 84
7, 23127, Note_on_c, 5, 33, 0
7, 23130, Note_on_c, 5, 33, 84
7, 23142, Note_on_c, 5, 33, 0
7, 23145, Note_on_c, 5, 33, 84
7, 23157, Note_on_c, 5, 33, 0
7, 23160, Note_on_c, 5, 33, 84
7, 23172, Note_on_c, 5, 33, 0
7, 23175, Note_on_c, 5, 33, 84
7, 23187, Note_on_c, 5, 33, 0
7, 23190, Note_on_c, 5, 33, 84
7, 23202, Note_on_c, 5, 33, 0
7, 23205, Note_on_c, 5, 33, 84
7, 23217, Note_on_c, 5, 33, 0
7, 23220, Note_on_c, 5, 33, 84
7, 23232, Note_on_c, 5, 33, 0
7, 23235, Note_on_c, 5, 33, 84
7, 23247, Note_on_c, 5, 33, 0
7, 23250, Note_on_c, 5, 33, 84
7, 23262, Note_on_c, 5, 33, 0
7, 23265, Note_on_c, 5, 33, 84
7, 23277, Note_on_c, 5, 33, 0
7, 23280, Note_on_c, 5, 34, 84
7, 23395, Note_on_c, 5, 34, 0
7, 23760, Note_on_c, 5, 35, 84
7, 23772, Note_on_c, 5, 35, 0
7, 23775, Note_on_c, 5, 35, 84
7, 23787, Note_on_c, 5, 35, 0
7, 23790, Note_on_c, 5, 35, 84
7, 23802, Note_on_c, 5, 35, 0
7, 23805, Note_on_c, 5, 35, 84
7, 23817, Note_on_c, 5, 35, 0
7, 23820, Note_on_c, 5, 35, 84
7, 23832, Note_on_c, 5, 35, 0
7, 23835, Note_on_c, 5, 35, 84
7, 23847, Note_on_c, 5, 35, 0
7, 23850, Note_on_c, 5, 35, 84
7, 23862, Note_on_c, 5, 35, 0
7, 23865, Note_on_c, 5, 35, 84
7, 23877, Note_on_c, 5, 35, 0
7, 23880, Note_on_c, 5, 35, 84
7, 23892, Note_on_c, 5, 35, 0
7, 23895, Note_on_c, 5, 35, 84
7, 23907, Note_on_c, 5, 35, 0
7, 23910, Note_on_c, 5, 35, 84
7, 23922, Note_on_c, 5, 35, 0
7, 23925, Note_on_c, 5, 35, 84
7, 23937, Note_on_c, 5, 35, 0
7, 23940, Note_on_c, 5, 35, 84
7, 23952, Note_on_c, 5, 35, 0
7, 23955, Note_on_c, 5, 35, 84
7, 23967, Note_on_c, 5, 35, 0
7, 23970, Note_on_c, 5, 35, 84
7, 23982, Note_on_c, 5, 35, 0
7, 23985, Note_on_c, 5, 35, 84
7, 23997, Note_on_c, 5, 35, 0
7, 24000, Note_on_c, 5, 36, 84
7, 24115, Note_on_c, 5, 36, 0
7, 24480, Note_on_c, 5, 37, 84
7, 24492, Note_on_c, 5, 37, 0
7, 24495, Note_on_c, 5, 37, 84
7, 24507, Note_on_c, 5, 37, 0
7, 24510, Note_on_c, 5, 37, 84
7, 24522, Note_on_c, 5, 37, 0
7, 24525, Note_on_c, 5, 37, 84
7, 24537, Note_on_c, 5, 37, 0
7, 24540, Note_on_c, 5, 37, 84
7, 24552, Note_on_c, 5, 37, 0
7, 24555, Note_on_c, 5, 37, 84
7, 24567, Note_on_c, 5, 37, 0
7, 24570, Note_on_c, 5, 37, 84
7, 24582, Note_on_c, 5, 37, 0
7, 24585, Note_on_c, 5, 37, 84
7, 24597, Note_on_c, 5, 37, 0
7, 24600, Note_on_c, 5, 37, 84
7, 24612, Note_on_c, 5, 37, 0
7, 24615, Note_on_c, 5, 37, 84
7, 24627, Note_on_c, 5, 37, 0
7, 24630, Note_on_c, 5, 37, 84
7, 24642, Note_on_c, 5, 37, 0
7, 24645, Note_on_c, 5, 37, 84
7, 24657, Note_on_c, 5, 37, 0
7, 24660, Note_on_c, 5, 37, 84
7, 24672, Note_on_c, 5, 37, 0
7, 24675, Note_on_c, 5, 37, 84
7, 24687, Note_on_c, 5, 37, 0
7, 24690, Note_on_c, 5, 37, 84
7, 24702, Note_on_c, 5, 37, 0
7, 24705, Note_on_c, 5, 37, 84
7, 24717, Note_on_c, 5, 37, 0
7, 24720, Note_on_c, 5, 37, 84
7, 24835, Note_on_c, 5, 37, 0
7, 24960, Note_on_c, 5, 35, 84
7, 24972, Note_on_c, 5, 35, 0
7, 24975, Note_on_c, 5, 35, 84
7, 24987, Note_on_c, 5, 35, 0
7, 24990, Note_on_c, 5, 35, 84
7, 25002, Note_on_c, 5, 35, 0
7, 25005, Note_on_c, 5, 35, 84
7, 25017, Note_on_c, 5, 35, 0
7, 25020, Note_on_c, 5, 35, 84
7, 25032, Note_on_c, 5, 35, 0
7, 25035, Note_on_c, 5, 35, 84
7, 25047, Note_on_c, 5, 35, 0
7, 25050, Note_on_c, 5, 35, 84
7, 25062, Note_on_c, 5, 35, 0
7, 25065, Note_on_c, 5, 35, 84
7, 25077, Note_on_c, 5, 35, 0
7, 25080, Note_on_c, 5, 35, 84
7, 25092, Note_on_c, 5, 35, 0
7, 25095, Note_on_c, 5, 35, 84
7, 25107, Note_on_c, 5, 35, 0
7, 25110, Note_on_c, 5, 35, 84
7, 25122, Note_on_c, 5, 35, 0
7, 25125, Note_on_c, 5, 35, 84
7, 25137, Note_on_c, 5, 35, 0
7, 25140, Note_on_c, 5, 35, 84
7, 25152, Note_on_c, 5, 35, 0
7, 25155, Note_on_c, 5, 35, 84
7, 25167, Note_on_c, 5, 35, 0
7, 25170, Note_on_c, 5, 35, 84
7, 25182, Note_on_c, 5, 35, 0
7, 25185, Note_on_c, 5, 35, 84
7, 25197, Note_on_c, 5, 35, 0
7, 25200, Note_on_c, 5, 33, 84
7, 25315, Note_on_c, 5, 33, 0
7, 25440, Note_on_c, 5, 44, 84
7, 25452, Note_on_c, 5, 44, 0
7, 25455, Note_on_c, 5, 44, 84
7, 25467, Note_on_c, 5, 44, 0
7, 25470, Note_on_c, 5, 44, 84
7, 25482, Note_on_c, 5, 44, 0
7, 25485, Note_on_c, 5, 44, 84
7, 25497, Note_on_c, 5, 44, 0
7, 25500, Note_on_c, 5, 44, 84
7, 25512, Note_on_c, 5, 44, 0
7, 25515, Note_on_c, 5, 44, 84
7, 25527, Note_on_c, 5, 44, 0
7, 25530, Note_on_c, 5, 44, 84
7, 25542, Note_on_c, 5, 44, 0
7, 25545, Note_on_c, 5, 44, 84
7, 25557, Note_on_c, 5, 44, 0
7, 25560, Note_on_c, 5, 44, 84
7, 25572, Note_on_c, 5, 44, 0
7, 25575, Note_on_c, 5, 44, 84
7, 25587, Note_on_c, 5, 44, 0
7, 25590, Note_on_c, 5, 44, 84
7, 25602, Note_on_c, 5, 44, 0
7, 25605, Note_on_c, 5, 44, 84
7, 25617, Note_on_c, 5, 44, 0
7, 25620, Note_on_c, 5, 44, 84
7, 25632, Note_on_c, 5, 44, 0
7, 25635, Note_on_c, 5, 44, 84
7, 25647, Note_on_c, 5, 44, 0
7, 25650, Note_on_c, 5, 44, 84
7, 25662, Note_on_c, 5, 44, 0
7, 25665, Note_on_c, 5, 44, 84
7, 25677, Note_on_c, 5, 44, 0
7, 25680, Note_on_c, 5, 42, 84
7, 25795, Note_on_c, 5, 42, 0
7, 25920, Note_on_c, 5, 40, 84
7, 25932, Note_on_c, 5, 40, 0
7, 25935, Note_on_c, 5, 40, 84
7, 25947, Note_on_c, 5, 40, 0
7, 25950, Note_on_c, 5, 40, 84
7, 25962, Note_on_c, 5, 40, 0
7, 25965, Note_on_c, 5, 40, 84
7, 25977, Note_on_c, 5, 40, 0
7, 25980, Note_on_c, 5, 40, 84
7, 25992, Note_on_c, 5, 40, 0
7, 25995, Note_on_c, 5, 40, 84
7, 26007, Note_on_c, 5, 40, 0
7, 26010, Note_on_c, 5, 40, 84
7, 26022, Note_on_c, 5, 40, 0
7, 26025, Note_on_c, 5, 40, 84
7, 26037, Note_on_c, 5, 40, 0
7, 26040, Note_on_c, 5, 37, 84
7, 26052, Note_on_c, 5, 37, 0
7, 26055, Note_on_c, 5, 37, 84
7, 26067, Note_on_c, 5, 37, 0
7, 26070, Note_on_c, 5, 37, 84
7, 26082, Note_on_c, 5, 37, 0
7, 26085, Note_on_c, 5, 37, 84
7, 26097, Note_on_c, 5, 37, 0
7, 26100, Note_on_c, 5, 37, 84
7, 26112, Note_on_c, 5, 37, 0
7, 26115, Note_on_c, 5, 37, 84
7, 26127, Note_on_c, 5, 37, 0
7, 26130, Note_on_c, 5, 37, 84
7, 26142, Note_on_c, 5, 37, 0
7, 26145, Note_on_c, 5, 37, 84
7, 26157, Note_on_c, 5, 37, 0
7, 26160, Note_on_c, 5, 32, 84
7, 26172, Note_on_c, 5, 32, 0
7, 26175, Note_on_c, 5, 32, 84
7, 26187, Note_on_c, 5, 32, 0
7, 26190, Note_on_c, 5, 32, 84
7, 26202, Note_on_c, 5, 32, 0
7, 26205, Note_on_c, 5, 32, 84
7, 26217, Note_on_c, 5, 32, 0
7, 26220, Note_on_c, 5, 32, 84
7, 26232, Note_on_c, 5, 32, 0
7, 26235, Note_on_c, 5, 32, 84
7, 26247, Note_on_c, 5, 32, 0
7, 26250, Note_on_c, 5, 32, 84
7, 26262, Note_on_c, 5, 32, 0
7, 26265, Note_on_c, 5, 32, 84
7, 26277, Note_on_c, 5, 32, 0
7, 26280, Note_on_c, 5, 32, 84
7, 26292, Note_on_c, 5, 32, 0
7, 26295, Note_on_c, 5, 32, 84
7, 26307, Note_on_c, 5, 32, 0
7, 26310, Note_on_c, 5, 32, 84
7, 26322, Note_on_c, 5, 32, 0
7, 26325, Note_on_c, 5, 32, 84
7, 26337, Note_on_c, 5, 32, 0
7, 26340, Note_on_c, 5, 32, 84
7, 26352, Note_on_c, 5, 32, 0
7, 26355, Note_on_c, 5, 32, 84
7, 26367, Note_on_c, 5, 32, 0
7, 26370, Note_on_c, 5, 32, 84
7, 26382, Note_on_c, 5, 32, 0
7, 26385, Note_on_c, 5, 32, 84
7, 26397, Note_on_c, 5, 32, 0
7, 26400, Note_on_c, 5, 32, 84
7, 26412, Note_on_c, 5, 32, 0
7, 26415, Note_on_c, 5, 32, 84
7, 26427, Note_on_c, 5, 32, 0
7, 26430, Note_on_c, 5, 32, 84
7, 26442, Note_on_c, 5, 32, 0
7, 26445, Note_on_c, 5, 32, 84
7, 26457, Note_on_c, 5, 32, 0
7, 26460, Note_on_c, 5, 32, 84
7, 26472, Note_on_c, 5, 32, 0
7, 26475, Note_on_c, 5, 32, 84
7, 26487, Note_on_c, 5, 32, 0
7, 26490, Note_on_c, 5, 32, 84
7, 26502, Note_on_c, 5, 32, 0
7, 26505, Note_on_c, 5, 32, 84
7, 26517, Note_on_c, 5, 32, 0
7, 26520, Note_on_c, 5, 32, 84
7, 26532, Note_on_c, 5, 32, 0
7, 26535, Note_on_c, 5, 32, 84
7, 26547, Note_on_c, 5, 32, 0
7, 26550, Note_on_c, 5, 32, 84
7, 26562, Note_on_c, 5, 32, 0
7, 26565, Note_on_c, 5, 32, 84
7, 26577, Note_on_c, 5, 32, 0
7, 26580, Note_on_c, 5, 32, 84
7, 26592, Note_on_c, 5, 32, 0
7, 26595, Note_on_c, 5, 32, 84
7, 26607, Note_on_c, 5, 32, 0
7, 26610, Note_on_c, 5, 32, 84
7, 26622, Note_on_c, 5, 32, 0
7, 26625, Note_on_c, 5, 32, 84
7, 26637, Note_on_c, 5, 32, 0
7, 26640, Note_on_c, 5, 37, 84
7, 26755, Note_on_c, 5, 37, 0
7, 26820, Note_on_c, 5, 37, 84
7, 26875, Note_on_c, 5, 37, 0
7, 26880, Note_on_c, 5, 37, 84
7, 26995, Note_on_c, 5, 37, 0
7, 27000, Note_on_c, 5, 37, 84
7, 27115, Note_on_c, 5, 37, 0
7, 27120, Note_on_c, 5, 37, 84
7, 27235, Note_on_c, 5, 37, 0
7, 27240, Note_on_c, 5, 37, 84
7, 27355, Note_on_c, 5, 37, 0
7, 27360, Note_on_c, 5, 37, 84
7, 27475, Note_on_c, 5, 37, 0
7, 27480, Note_on_c, 5, 37, 84
7, 27595, Note_on_c, 5, 37, 0
7, 27600, Note_on_c, 5, 37, 84
7, 27715, Note_on_c, 5, 37, 0
7, 27720, Note_on_c, 5, 37, 84
7, 27835, Note_on_c, 5, 37, 0
7, 27840, Note_on_c, 5, 37, 84
7, 27955, Note_on_c, 5, 37, 0
7, 27960, Note_on_c, 5, 37, 84
7, 28015, Note_on_c, 5, 37, 0
7, 28020, Note_on_c, 5, 44, 84
7, 28075, Note_on_c, 5, 44, 0
7, 28080, Note_on_c, 5, 49, 84
7, 28135, Note_on_c, 5, 49, 0
7, 28140, Note_on_c, 5, 37, 84
7, 28195, Note_on_c, 5, 37, 0
7, 28200, Note_on_c, 5, 44, 84
7, 28255, Note_on_c, 5, 44, 0
7, 28260, Note_on_c, 5, 32, 84
7, 28315, Note_on_c, 5, 32, 0
7, 28320, Note_on_c, 5, 37, 84
7, 31675, Note_on_c, 5, 37, 0
7, 31680, Note_on_c, 5, 37, 84
7, 31735, Note_on_c, 5, 37, 0
7, 31740, Note_on_c, 5, 37, 84
7, 31795, Note_on_c, 5, 37, 0
7, 31800, Note_on_c, 5, 37, 84
7, 31855, Note_on_c, 5, 37, 0
7, 31860, Note_on_c, 5, 37, 84
7, 31915, Note_on_c, 5, 37, 0
7, 31920, Note_on_c, 5, 42, 84
7, 31975, Note_on_c, 5, 42, 0
7, 31980, Note_on_c, 5, 42, 84
7, 32035, Note_on_c, 5, 42, 0
7, 32040, Note_on_c, 5, 42, 84
7, 32095, Note_on_c, 5, 42, 0
7, 32100, Note_on_c, 5, 42, 84
7, 32155, Note_on_c, 5, 42, 0
7, 32160, Note_on_c, 5, 35, 84
7, 32215, Note_on_c, 5, 35, 0
7, 32220, Note_on_c, 5, 35, 84
7, 32275, Note_on_c, 5, 35, 0
7, 32280, Note_on_c, 5, 35, 84
7, 32335, Note_on_c, 5, 35, 0
7, 32340, Note_on_c, 5, 35, 84
7, 32395, Note_on_c, 5, 35, 0
7, 32400, Note_on_c, 5, 40, 84
7, 32455, Note_on_c, 5, 40, 0
7, 32460, Note_on_c, 5, 40, 84
7, 32515, Note_on_c, 5, 40, 0
7, 32520, Note_on_c, 5, 40, 84
7, 32575, Note_on_c, 5, 40, 0
7, 32580, Note_on_c, 5, 35, 84
7, 32635, Note_on_c, 5, 35, 0
7, 32640, Note_on_c, 5, 40, 84
7, 32695, Note_on_c, 5, 40, 0
7, 32700, Note_on_c, 5, 40, 84
7, 32755, Note_on_c, 5, 40, 0
7, 32760, Note_on_c, 5, 40, 84
7, 32815, Note_on_c, 5, 40, 0
7, 32820, Note_on_c, 5, 35, 84
7, 32875, Note_on_c, 5, 35, 0
7, 32880, Note_on_c, 5, 40, 84
7, 32935, Note_on_c, 5, 40, 0
7, 32940, Note_on_c, 5, 40, 84
7, 32995, Note_on_c, 5, 40, 0
7, 33000, Note_on_c, 5, 40, 84
7, 33055, Note_on_c, 5, 40, 0
7, 33060, Note_on_c, 5, 35, 84
7, 33115, Note_on_c, 5, 35, 0
7, 33120, Note_on_c, 5, 40, 84
7, 33175, Note_on_c, 5, 40, 0
7, 33180, Note_on_c, 5, 40, 84
7, 33235, Note_on_c, 5, 40, 0
7, 33240, Note_on_c, 5, 40, 84
7, 33295, Note_on_c, 5, 40, 0
7, 33300, Note_on_c, 5, 35, 84
7, 33355, Note_on_c, 5, 35, 0
7, 33360, Note_on_c, 5, 40, 84
7, 33415, Note_on_c, 5, 40, 0
7, 33420, Note_on_c, 5, 40, 84
7, 33475, Note_on_c, 5, 40, 0
7, 33480, Note_on_c, 5, 40, 84
7, 33535, Note_on_c, 5, 40, 0
7, 33540, Note_on_c, 5, 35, 84
7, 33595, Note_on_c, 5, 35, 0
7, 33600, Note_on_c, 5, 40, 84
7, 33655, Note_on_c, 5, 40, 0
7, 33660, Note_on_c, 5, 40, 84
7, 33715, Note_on_c, 5, 40, 0
7, 33720, Note_on_c, 5, 40, 84
7, 33775, Note_on_c, 5, 40, 0
7, 33780, Note_on_c, 5, 35, 84
7, 33835, Note_on_c, 5, 35, 0
7, 33840, Note_on_c, 5, 35, 84
7, 34795, Note_on_c, 5, 35, 0
7, 34800, Note_on_c, 5, 40, 84
7, 34915, Note_on_c, 5, 40, 0
7, 34920, Note_on_c, 5, 40, 84
7, 35035, Note_on_c, 5, 40, 0
7, 35040, Note_on_c, 5, 42, 84
7, 35155, Note_on_c, 5, 42, 0
7, 35160, Note_on_c, 5, 42, 84
7, 35275, Note_on_c, 5, 42, 0
7, 35280, Note_on_c, 5, 44, 84
7, 35395, Note_on_c, 5, 44, 0
7, 35400, Note_on_c, 5, 44, 84
7, 35515, Note_on_c, 5, 44, 0
7, 35520, Note_on_c, 5, 45, 84
7, 35635, Note_on_c, 5, 45, 0
7, 35640, Note_on_c, 5, 44, 84
7, 35695, Note_on_c, 5, 44, 0
7, 35700, Note_on_c, 5, 42, 84
7, 35755, Note_on_c, 5, 42, 0
7, 35760, Note_on_c, 5, 40, 84
7, 35875, Note_on_c, 5, 40, 0
7, 36000, Note_on_c, 5, 40, 84
7, 36115, Note_on_c, 5, 40, 0
7, 36240, Note_on_c, 5, 40, 84
7, 36355, Note_on_c, 5, 40, 0
7, 36360, Note_on_c, 5, 35, 84
7, 36475, Note_on_c, 5, 35, 0
7, 36480, Note_on_c, 5, 40, 84
7, 36595, Note_on_c, 5, 40, 0
7, 36600, Note_on_c, 5, 40, 84
7, 36715, Note_on_c, 5, 40, 0
7, 36720, Note_on_c, 5, 40, 84
7, 36835, Note_on_c, 5, 40, 0
7, 36840, Note_on_c, 5, 40, 84
7, 36955, Note_on_c, 5, 40, 0
7, 36960, Note_on_c, 5, 40, 84
7, 37075, Note_on_c, 5, 40, 0
7, 37080, Note_on_c, 5, 40, 84
7, 37195, Note_on_c, 5, 40, 0
7, 37200, Note_on_c, 5, 40, 84
7, 37315, Note_on_c, 5, 40, 0
7, 37320, Note_on_c, 5, 40, 84
7, 37435, Note_on_c, 5, 40, 0
7, 37440, Note_on_c, 5, 40, 84
7, 37555, Note_on_c, 5, 40, 0
7, 37560, Note_on_c, 5, 40, 84
7, 37615, Note_on_c, 5, 40, 0
7, 37620, Note_on_c, 5, 39, 84
7, 37675, Note_on_c, 5, 39, 0
7, 37680, Note_on_c, 5, 40, 84
7, 37735, Note_on_c, 5, 40, 0
7, 37740, Note_on_c, 5, 28, 84
7, 37795, Note_on_c, 5, 28, 0
7, 37800, Note_on_c, 5, 47, 84
7, 37855, Note_on_c, 5, 47, 0
7, 37860, Note_on_c, 5, 35, 84
7, 37915, Note_on_c, 5, 35, 0
7, 37920, Note_on_c, 5, 28, 84
7, 38035, Note_on_c, 5, 28, 0
7, 38100, Note_on_c, 5, 40, 84
7, 38155, Note_on_c, 5, 40, 0
7, 38160, Note_on_c, 5, 40, 84
7, 38275, Note_on_c, 5, 40, 0
7, 38280, Note_on_c, 5, 40, 84
7, 38395, Note_on_c, 5, 40, 0
7, 38400, Note_on_c, 5, 40, 84
7, 38515, Note_on_c, 5, 40, 0
7, 38520, Note_on_c, 5, 40, 84
7, 38635, Note_on_c, 5, 40, 0
7, 38640, Note_on_c, 5, 40, 84
7, 38755, Note_on_c, 5, 40, 0
7, 38760, Note_on_c, 5, 40, 84
7, 38875, Note_on_c, 5, 40, 0
7, 38880, Note_on_c, 5, 40, 84
7, 38995, Note_on_c, 5, 40, 0
7, 39000, Note_on_c, 5, 40, 84
7, 39115, Note_on_c, 5, 40, 0
7, 39120, Note_on_c, 5, 40, 84
7, 39235, Note_on_c, 5, 40, 0
7, 39240, Note_on_c, 5, 40, 84
7, 39295, Note_on_c, 5, 40, 0
7, 39300, Note_on_c, 5, 35, 84
7, 39355, Note_on_c, 5, 35, 0
7, 39360, Note_on_c, 5, 40, 84
7, 39415, Note_on_c, 5, 40, 0
7, 39420, Note_on_c, 5, 28, 84
7, 39475, Note_on_c, 5, 28, 0
7, 39480, Note_on_c, 5, 47, 84
7, 39535, Note_on_c, 5, 47, 0
7, 39540, Note_on_c, 5, 35, 84
7, 39595, Note_on_c, 5, 35, 0
7, 39600, Note_on_c, 5, 28, 84
7, 39835, Note_on_c, 5, 28, 0
7, 40080, Program_c, 5, 0
7, 40080, Control_c, 5, 7, 100
7, 40080, Control_c, 5, 10, 64
7, 40080, Control_c, 5, 93, 0
7, 40080, Control_c, 5, 91, 40
7, 40081, Text_t, "Non Registered Parameter Numbers"
7, 40081, Text_t, "For Roland SC-55 Vibrato"
7, 40081, Text_t, "Set up NRPN for Vibrate Rate"
7, 40082, Control_c, 5, 99, 1
7, 40083, Control_c, 5, 98, 8
7, 40084, Text_t, "Data Entry Command"
7, 40084, Control_c, 5, 6, 64
7, 40085, Text_t, "Set up NRPN for Vibrate Delay"
7, 40086, Control_c, 5, 99, 1
7, 40087, Control_c, 5, 98, 10
7, 40088, Text_t, "Data Entry Command"
7, 40088, Control_c, 5, 6, 64
7, 40089, Text_t, "Set up NRPN for Vibrate Depth"
7, 40090, Control_c, 5, 99, 1
7, 40091, Control_c, 5, 98, 9
7, 40092, Text_t, "Data Entry Command; Vibrato ON"
7, 40092, Control_c, 5, 6, 64
7, 40092, End_track
8, 0, Start_track
8, 0, MIDI_port, 0
8, 0, Title_t, "Orchestra"
8, 0, Program_c, 6, 48
8, 0, Control_c, 6, 7, 70
8, 0, Control_c, 6, 10, 32
8, 0, Control_c, 6, 93, 0
8, 0, Control_c, 6, 91, 120
8, 1, Text_t, "Non Registered Parameter Numbers"
8, 1, Text_t, "For Roland SC-55 Vibrato"
8, 1, Text_t, "Set up NRPN for Vibrate Rate"
8, 2, Control_c, 6, 99, 1
8, 3, Control_c, 6, 98, 8
8, 4, Text_t, "Data Entry Command"
8, 4, Control_c, 6, 6, 68
8, 5, Text_t, "Set up NRPN for Vibrate Delay"
8, 6, Control_c, 6, 99, 1
8, 7, Control_c, 6, 98, 10
8, 8, Text_t, "Data Entry Command"
8, 8, Control_c, 6, 6, 14
8, 9, Text_t, "Set up NRPN for Vibrate Depth"
8, 10, Control_c, 6, 99, 1
8, 11, Control_c, 6, 98, 9
8, 12, Text_t, "Data Entry Command; Vibrato ON"
8, 12, Control_c, 6, 6, 64
8, 420, Note_on_c, 6, 80, 84
8, 480, Note_on_c, 6, 80, 0
8, 480, Note_on_c, 6, 83, 84
8, 720, Note_on_c, 6, 83, 0
8, 720, Note_on_c, 6, 76, 84
8, 895, Note_on_c, 6, 76, 0
8, 900, Note_on_c, 6, 80, 84
8, 930, Note_on_c, 6, 81, 84
8, 935, Note_on_c, 6, 80, 0
8, 955, Note_on_c, 6, 81, 0
8, 960, Note_on_c, 6, 83, 84
8, 1200, Note_on_c, 6, 83, 0
8, 1200, Note_on_c, 6, 76, 84
8, 1375, Note_on_c, 6, 76, 0
8, 1380, Note_on_c, 6, 80, 84
8, 1410, Note_on_c, 6, 81, 84
8, 1415, Note_on_c, 6, 80, 0
8, 1435, Note_on_c, 6, 81, 0
8, 1440, Note_on_c, 6, 83, 84
8, 1495, Note_on_c, 6, 83, 0
8, 1500, Note_on_c, 6, 83, 84
8, 1555, Note_on_c, 6, 83, 0
8, 1560, Note_on_c, 6, 85, 84
8, 1615, Note_on_c, 6, 85, 0
8, 1620, Note_on_c, 6, 85, 84
8, 1675, Note_on_c, 6, 85, 0
8, 1680, Note_on_c, 6, 78, 84
8, 1795, Note_on_c, 6, 78, 0
8, 1860, Note_on_c, 6, 80, 65
8, 1915, Note_on_c, 6, 80, 0
8, 1920, Note_on_c, 6, 83, 65
8, 2160, Note_on_c, 6, 83, 0
8, 2160, Note_on_c, 6, 76, 65
8, 2335, Note_on_c, 6, 76, 0
8, 2340, Note_on_c, 6, 80, 65
8, 2370, Note_on_c, 6, 81, 65
8, 2375, Note_on_c, 6, 80, 0
8, 2395, Note_on_c, 6, 81, 0
8, 2400, Note_on_c, 6, 83, 65
8, 2640, Note_on_c, 6, 83, 0
8, 2640, Note_on_c, 6, 76, 65
8, 2815, Note_on_c, 6, 76, 0
8, 2820, Note_on_c, 6, 80, 65
8, 2850, Note_on_c, 6, 81, 65
8, 2855, Note_on_c, 6, 80, 0
8, 2875, Note_on_c, 6, 81, 0
8, 2880, Note_on_c, 6, 83, 65
8, 2935, Note_on_c, 6, 83, 0
8, 2940, Note_on_c, 6, 83, 65
8, 2995, Note_on_c, 6, 83, 0
8, 3000, Note_on_c, 6, 85, 65
8, 3055, Note_on_c, 6, 85, 0
8, 3060, Note_on_c, 6, 85, 65
8, 3115, Note_on_c, 6, 85, 0
8, 3120, Note_on_c, 6, 78, 65
8, 3235, Note_on_c, 6, 78, 0
8, 3300, Note_on_c, 6, 80, 84
8, 3355, Note_on_c, 6, 80, 0
8, 3360, Note_on_c, 6, 76, 84
8, 3600, Note_on_c, 6, 76, 0
8, 3600, Note_on_c, 6, 81, 84
8, 3655, Note_on_c, 6, 81, 0
8, 3660, Note_on_c, 6, 76, 84
8, 3775, Note_on_c, 6, 76, 0
8, 3780, Note_on_c, 6, 76, 84
8, 3835, Note_on_c, 6, 76, 0
8, 3840, Note_on_c, 6, 76, 84
8, 4075, Note_on_c, 6, 76, 0
8, 4080, Note_on_c, 6, 81, 84
8, 4135, Note_on_c, 6, 81, 0
8, 4140, Note_on_c, 6, 76, 84
8, 4255, Note_on_c, 6, 76, 0
8, 4260, Note_on_c, 6, 76, 84
8, 4315, Note_on_c, 6, 76, 0
8, 4320, Note_on_c, 6, 81, 84
8, 4375, Note_on_c, 6, 81, 0
8, 4380, Note_on_c, 6, 76, 84
8, 4495, Note_on_c, 6, 76, 0
8, 4500, Note_on_c, 6, 87, 84
8, 4555, Note_on_c, 6, 87, 0
8, 4560, Note_on_c, 6, 83, 84
8, 4800, Note_on_c, 6, 83, 0
8, 4800, Note_on_c, 6, 80, 84
8, 4915, Note_on_c, 6, 80, 0
8, 4980, Note_on_c, 6, 83, 65
8, 5035, Note_on_c, 6, 83, 0
8, 5040, Note_on_c, 6, 76, 65
8, 5280, Note_on_c, 6, 76, 0
8, 5280, Note_on_c, 6, 81, 65
8, 5335, Note_on_c, 6, 81, 0
8, 5340, Note_on_c, 6, 76, 65
8, 5455, Note_on_c, 6, 76, 0
8, 5460, Note_on_c, 6, 83, 65
8, 5515, Note_on_c, 6, 83, 0
8, 5520, Note_on_c, 6, 76, 65
8, 5760, Note_on_c, 6, 76, 0
8, 5760, Note_on_c, 6, 81, 65
8, 5815, Note_on_c, 6, 81, 0
8, 5820, Note_on_c, 6, 76, 65
8, 5935, Note_on_c, 6, 76, 0
8, 5940, Note_on_c, 6, 76, 65
8, 5995, Note_on_c, 6, 76, 0
8, 6000, Note_on_c, 6, 81, 65
8, 6055, Note_on_c, 6, 81, 0
8, 6060, Note_on_c, 6, 76, 65
8, 6175, Note_on_c, 6, 76, 0
8, 6180, Note_on_c, 6, 87, 65
8, 6235, Note_on_c, 6, 87, 0
8, 6240, Note_on_c, 6, 83, 65
8, 6480, Note_on_c, 6, 83, 0
8, 6480, Note_on_c, 6, 80, 65
8, 6595, Note_on_c, 6, 80, 0
8, 13380, Note_on_c, 6, 83, 84
8, 13435, Note_on_c, 6, 83, 0
8, 13440, Note_on_c, 6, 76, 84
8, 13680, Note_on_c, 6, 76, 0
8, 13680, Note_on_c, 6, 81, 84
8, 13735, Note_on_c, 6, 81, 0
8, 13740, Note_on_c, 6, 76, 84
8, 13855, Note_on_c, 6, 76, 0
8, 13860, Note_on_c, 6, 83, 84
8, 13915, Note_on_c, 6, 83, 0
8, 13920, Note_on_c, 6, 76, 84
8, 14160, Note_on_c, 6, 76, 0
8, 14160, Note_on_c, 6, 81, 84
8, 14215, Note_on_c, 6, 81, 0
8, 14220, Note_on_c, 6, 76, 84
8, 14335, Note_on_c, 6, 76, 0
8, 14340, Note_on_c, 6, 83, 84
8, 14395, Note_on_c, 6, 83, 0
8, 14400, Note_on_c, 6, 76, 84
8, 14515, Note_on_c, 6, 76, 0
8, 14520, Note_on_c, 6, 80, 84
8, 14575, Note_on_c, 6, 80, 0
8, 14580, Note_on_c, 6, 83, 84
8, 14635, Note_on_c, 6, 83, 0
8, 14640, Note_on_c, 6, 83, 84
8, 14880, Note_on_c, 6, 83, 0
8, 14880, Note_on_c, 6, 80, 84
8, 14935, Note_on_c, 6, 80, 0
8, 14940, Note_on_c, 6, 71, 84
8, 15840, Note_on_c, 6, 71, 0
8, 15840, Note_on_c, 6, 71, 84
8, 15895, Note_on_c, 6, 71, 0
8, 15900, Note_on_c, 6, 78, 84
8, 16560, Note_on_c, 6, 78, 0
8, 16560, Note_on_c, 6, 75, 84
8, 16800, Note_on_c, 6, 75, 0
8, 16800, Note_on_c, 6, 71, 84
8, 17760, Note_on_c, 6, 71, 0
8, 17760, Note_on_c, 6, 71, 84
8, 19195, Note_on_c, 6, 71, 0
8, 19200, Note_on_c, 6, 71, 84
8, 19435, Note_on_c, 6, 71, 0
8, 19440, Note_on_c, 6, 71, 84
8, 19555, Note_on_c, 6, 71, 0
8, 19620, Note_on_c, 6, 78, 84
8, 19675, Note_on_c, 6, 78, 0
8, 19680, Note_on_c, 6, 71, 84
8, 20160, Note_on_c, 6, 71, 0
8, 20160, Note_on_c, 6, 71, 84
8, 20400, Note_on_c, 6, 71, 0
8, 20400, Note_on_c, 6, 76, 84
8, 20455, Note_on_c, 6, 76, 0
8, 20460, Note_on_c, 6, 71, 84
8, 20575, Note_on_c, 6, 71, 0
8, 20580, Note_on_c, 6, 78, 84
8, 20635, Note_on_c, 6, 78, 0
8, 20640, Note_on_c, 6, 76, 84
8, 20695, Note_on_c, 6, 76, 0
8, 20700, Note_on_c, 6, 71, 84
8, 20755, Note_on_c, 6, 71, 0
8, 20760, Note_on_c, 6, 75, 84
8, 20815, Note_on_c, 6, 75, 0
8, 20820, Note_on_c, 6, 82, 84
8, 20875, Note_on_c, 6, 82, 0
8, 20880, Note_on_c, 6, 78, 84
8, 21120, Note_on_c, 6, 78, 0
8, 21120, Note_on_c, 6, 71, 84
8, 21600, Note_on_c, 6, 71, 0
8, 21600, Note_on_c, 6, 71, 84
8, 21655, Note_on_c, 6, 71, 0
8, 21720, Note_on_c, 6, 71, 84
8, 21775, Note_on_c, 6, 71, 0
8, 21840, Note_on_c, 6, 71, 84
8, 21895, Note_on_c, 6, 71, 0
8, 21960, Note_on_c, 6, 71, 84
8, 22015, Note_on_c, 6, 71, 0
8, 22080, Note_on_c, 6, 71, 84
8, 22320, Note_on_c, 6, 71, 0
8, 22320, Note_on_c, 6, 69, 84
8, 22560, Note_on_c, 6, 69, 0
8, 22560, Note_on_c, 6, 68, 84
8, 22675, Note_on_c, 6, 68, 0
8, 23040, Note_on_c, 6, 69, 84
8, 23280, Note_on_c, 6, 69, 0
8, 23280, Note_on_c, 6, 70, 84
8, 23395, Note_on_c, 6, 70, 0
8, 23760, Note_on_c, 6, 71, 84
8, 24000, Note_on_c, 6, 71, 0
8, 24000, Note_on_c, 6, 72, 84
8, 24115, Note_on_c, 6, 72, 0
8, 24480, Note_on_c, 6, 73, 84
8, 24720, Note_on_c, 6, 73, 0
8, 24720, Note_on_c, 6, 73, 84
8, 24835, Note_on_c, 6, 73, 0
8, 24960, Note_on_c, 6, 71, 84
8, 25200, Note_on_c, 6, 71, 0
8, 25200, Note_on_c, 6, 69, 84
8, 25315, Note_on_c, 6, 69, 0
8, 25440, Note_on_c, 6, 80, 84
8, 25680, Note_on_c, 6, 80, 0
8, 25680, Note_on_c, 6, 78, 84
8, 25795, Note_on_c, 6, 78, 0
8, 25920, Note_on_c, 6, 76, 84
8, 26040, Note_on_c, 6, 76, 0
8, 26040, Note_on_c, 6, 73, 84
8, 26160, Note_on_c, 6, 73, 0
8, 26160, Note_on_c, 6, 68, 84
8, 26640, Note_on_c, 6, 68, 0
8, 26640, Note_on_c, 6, 73, 84
8, 26755, Note_on_c, 6, 73, 0
8, 26820, Note_on_c, 6, 80, 84
8, 26875, Note_on_c, 6, 80, 0
8, 26880, Note_on_c, 6, 73, 84
8, 27120, Note_on_c, 6, 73, 0
8, 27120, Note_on_c, 6, 78, 84
8, 27175, Note_on_c, 6, 78, 0
8, 27180, Note_on_c, 6, 73, 84
8, 27295, Note_on_c, 6, 73, 0
8, 27300, Note_on_c, 6, 80, 84
8, 27355, Note_on_c, 6, 80, 0
8, 27360, Note_on_c, 6, 73, 84
8, 27600, Note_on_c, 6, 73, 0
8, 27600, Note_on_c, 6, 78, 84
8, 27655, Note_on_c, 6, 78, 0
8, 27660, Note_on_c, 6, 73, 84
8, 27775, Note_on_c, 6, 73, 0
8, 27780, Note_on_c, 6, 80, 84
8, 27835, Note_on_c, 6, 80, 0
8, 27840, Note_on_c, 6, 78, 84
8, 27895, Note_on_c, 6, 78, 0
8, 27900, Note_on_c, 6, 73, 84
8, 27955, Note_on_c, 6, 73, 0
8, 27960, Note_on_c, 6, 78, 84
8, 28015, Note_on_c, 6, 78, 0
8, 28020, Note_on_c, 6, 84, 84
8, 28075, Note_on_c, 6, 84, 0
8, 28080, Note_on_c, 6, 80, 84
8, 28320, Note_on_c, 6, 80, 0
8, 28320, Note_on_c, 6, 76, 84
8, 28435, Note_on_c, 6, 76, 0
8, 31680, Note_on_c, 6, 76, 84
8, 31735, Note_on_c, 6, 76, 0
8, 31740, Note_on_c, 6, 76, 84
8, 31795, Note_on_c, 6, 76, 0
8, 31800, Note_on_c, 6, 76, 84
8, 31855, Note_on_c, 6, 76, 0
8, 31860, Note_on_c, 6, 76, 84
8, 31915, Note_on_c, 6, 76, 0
8, 31920, Note_on_c, 6, 73, 84
8, 31975, Note_on_c, 6, 73, 0
8, 31980, Note_on_c, 6, 73, 84
8, 32035, Note_on_c, 6, 73, 0
8, 32040, Note_on_c, 6, 78, 84
8, 32095, Note_on_c, 6, 78, 0
8, 32100, Note_on_c, 6, 81, 84
8, 32155, Note_on_c, 6, 81, 0
8, 32160, Note_on_c, 6, 81, 84
8, 32215, Note_on_c, 6, 81, 0
8, 32220, Note_on_c, 6, 81, 84
8, 32275, Note_on_c, 6, 81, 0
8, 32280, Note_on_c, 6, 78, 84
8, 32335, Note_on_c, 6, 78, 0
8, 32340, Note_on_c, 6, 75, 84
8, 32395, Note_on_c, 6, 75, 0
8, 32400, Note_on_c, 6, 71, 84
8, 32455, Note_on_c, 6, 71, 0
8, 32460, Note_on_c, 6, 71, 84
8, 32515, Note_on_c, 6, 71, 0
8, 32520, Note_on_c, 6, 71, 84
8, 32575, Note_on_c, 6, 71, 0
8, 32580, Note_on_c, 6, 71, 84
8, 32635, Note_on_c, 6, 71, 0
8, 32640, Note_on_c, 6, 71, 84
8, 32695, Note_on_c, 6, 71, 0
8, 32700, Note_on_c, 6, 71, 84
8, 32755, Note_on_c, 6, 71, 0
8, 32760, Note_on_c, 6, 71, 84
8, 32815, Note_on_c, 6, 71, 0
8, 32820, Note_on_c, 6, 71, 84
8, 32875, Note_on_c, 6, 71, 0
8, 32880, Note_on_c, 6, 71, 84
8, 32935, Note_on_c, 6, 71, 0
8, 32940, Note_on_c, 6, 71, 84
8, 32995, Note_on_c, 6, 71, 0
8, 33000, Note_on_c, 6, 71, 84
8, 33055, Note_on_c, 6, 71, 0
8, 33060, Note_on_c, 6, 71, 84
8, 33115, Note_on_c, 6, 71, 0
8, 33120, Note_on_c, 6, 71, 84
8, 33175, Note_on_c, 6, 71, 0
8, 33180, Note_on_c, 6, 71, 84
8, 33235, Note_on_c, 6, 71, 0
8, 33240, Note_on_c, 6, 71, 84
8, 33295, Note_on_c, 6, 71, 0
8, 33300, Note_on_c, 6, 71, 84
8, 33355, Note_on_c, 6, 71, 0
8, 33360, Note_on_c, 6, 71, 84
8, 33415, Note_on_c, 6, 71, 0
8, 33420, Note_on_c, 6, 71, 84
8, 33475, Note_on_c, 6, 71, 0
8, 33480, Note_on_c, 6, 71, 84
8, 33535, Note_on_c, 6, 71, 0
8, 33540, Note_on_c, 6, 71, 84
8, 33595, Note_on_c, 6, 71, 0
8, 33600, Note_on_c, 6, 71, 84
8, 33655, Note_on_c, 6, 71, 0
8, 33660, Note_on_c, 6, 71, 84
8, 33715, Note_on_c, 6, 71, 0
8, 33720, Note_on_c, 6, 71, 84
8, 33775, Note_on_c, 6, 71, 0
8, 33780, Note_on_c, 6, 71, 84
8, 33835, Note_on_c, 6, 71, 0
8, 33840, Note_on_c, 6, 71, 84
8, 33955, Note_on_c, 6, 71, 0
8, 36480, Note_on_c, 6, 76, 84
8, 36720, Note_on_c, 6, 76, 0
8, 36720, Note_on_c, 6, 81, 84
8, 36775, Note_on_c, 6, 81, 0
8, 36780, Note_on_c, 6, 76, 84
8, 36895, Note_on_c, 6, 76, 0
8, 36900, Note_on_c, 6, 83, 84
8, 36955, Note_on_c, 6, 83, 0
8, 36960, Note_on_c, 6, 76, 84
8, 37200, Note_on_c, 6, 76, 0
8, 37200, Note_on_c, 6, 81, 84
8, 37255, Note_on_c, 6, 81, 0
8, 37260, Note_on_c, 6, 76, 84
8, 37375, Note_on_c, 6, 76, 0
8, 37380, Note_on_c, 6, 83, 84
8, 37435, Note_on_c, 6, 83, 0
8, 37440, Note_on_c, 6, 81, 84
8, 37495, Note_on_c, 6, 81, 0
8, 37500, Note_on_c, 6, 76, 84
8, 37555, Note_on_c, 6, 76, 0
8, 37560, Note_on_c, 6, 80, 84
8, 37615, Note_on_c, 6, 80, 0
8, 37620, Note_on_c, 6, 87, 84
8, 37675, Note_on_c, 6, 87, 0
8, 37680, Note_on_c, 6, 83, 84
8, 37920, Note_on_c, 6, 83, 0
8, 37920, Note_on_c, 6, 80, 84
8, 38035, Note_on_c, 6, 80, 0
8, 38100, Note_on_c, 6, 83, 84
8, 38155, Note_on_c, 6, 83, 0
8, 38160, Note_on_c, 6, 76, 84
8, 38400, Note_on_c, 6, 76, 0
8, 38400, Note_on_c, 6, 81, 84
8, 38455, Note_on_c, 6, 81, 0
8, 38460, Note_on_c, 6, 80, 84
8, 38575, Note_on_c, 6, 80, 0
8, 38580, Note_on_c, 6, 83, 84
8, 38635, Note_on_c, 6, 83, 0
8, 38640, Note_on_c, 6, 76, 84
8, 38880, Note_on_c, 6, 76, 0
8, 38880, Note_on_c, 6, 81, 84
8, 38935, Note_on_c, 6, 81, 0
8, 38940, Note_on_c, 6, 76, 84
8, 39055, Note_on_c, 6, 76, 0
8, 39060, Note_on_c, 6, 83, 84
8, 39115, Note_on_c, 6, 83, 0
8, 39120, Note_on_c, 6, 81, 84
8, 39175, Note_on_c, 6, 81, 0
8, 39180, Note_on_c, 6, 76, 84
8, 39235, Note_on_c, 6, 76, 0
8, 39240, Note_on_c, 6, 80, 84
8, 39295, Note_on_c, 6, 80, 0
8, 39300, Note_on_c, 6, 87, 84
8, 39355, Note_on_c, 6, 87, 0
8, 39360, Note_on_c, 6, 83, 84
8, 39475, Note_on_c, 6, 83, 0
8, 39480, Note_on_c, 6, 83, 84
8, 39595, Note_on_c, 6, 83, 0
8, 39600, Note_on_c, 6, 80, 84
8, 39835, Note_on_c, 6, 80, 0
8, 40080, Program_c, 6, 0
8, 40080, Control_c, 6, 7, 100
8, 40080, Control_c, 6, 10, 64
8, 40080, Control_c, 6, 93, 0
8, 40080, Control_c, 6, 91, 40
8, 40081, Text_t, "Non Registered Parameter Numbers"
8, 40081, Text_t, "For Roland SC-55 Vibrato"
8, 40081, Text_t, "Set up NRPN for Vibrate Rate"
8, 40082, Control_c, 6, 99, 1
8, 40083, Control_c, 6, 98, 8
8, 40084, Text_t, "Data Entry Command"
8, 40084, Control_c, 6, 6, 64
8, 40085, Text_t, "Set up NRPN for Vibrate Delay"
8, 40086, Control_c, 6, 99, 1
8, 40087, Control_c, 6, 98, 10
8, 40088, Text_t, "Data Entry Command"
8, 40088, Control_c, 6, 6, 64
8, 40089, Text_t, "Set up NRPN for Vibrate Depth"
8, 40090, Control_c, 6, 99, 1
8, 40091, Control_c, 6, 98, 9
8, 40092, Text_t, "Data Entry Command; Vibrato ON"
8, 40092, Control_c, 6, 6, 64
8, 40092, End_track
9, 0, Start_track
9, 0, MIDI_port, 0
9, 0, Program_c, 7, 48
9, 0, Control_c, 7, 7, 70
9, 0, Control_c, 7, 10, 96
9, 0, Control_c, 7, 93, 0
9, 0, Control_c, 7, 91, 120
9, 1, Text_t, "Non Registered Parameter Numbers"
9, 1, Text_t, "For Roland SC-55 Vibrato"
9, 1, Text_t, "Set up NRPN for Vibrate Rate"
9, 2, Control_c, 7, 99, 1
9, 3, Control_c, 7, 98, 8
9, 4, Text_t, "Data Entry Command"
9, 4, Control_c, 7, 6, 68
9, 5, Text_t, "Set up NRPN for Vibrate Delay"
9, 6, Control_c, 7, 99, 1
9, 7, Control_c, 7, 98, 10
9, 8, Text_t, "Data Entry Command"
9, 8, Control_c, 7, 6, 14
9, 9, Text_t, "Set up NRPN for Vibrate Depth"
9, 10, Control_c, 7, 99, 1
9, 11, Control_c, 7, 98, 9
9, 12, Text_t, "Data Entry Command; Vibrato ON"
9, 12, Control_c, 7, 6, 64
9, 420, Note_on_c, 7, 76, 84
9, 480, Note_on_c, 7, 76, 0
9, 480, Note_on_c, 7, 76, 84
9, 1440, Note_on_c, 7, 76, 0
9, 1440, Note_on_c, 7, 76, 84
9, 1495, Note_on_c, 7, 76, 0
9, 1500, Note_on_c, 7, 76, 84
9, 1555, Note_on_c, 7, 76, 0
9, 1560, Note_on_c, 7, 69, 84
9, 1615, Note_on_c, 7, 69, 0
9, 1620, Note_on_c, 7, 70, 84
9, 1675, Note_on_c, 7, 70, 0
9, 1680, Note_on_c, 7, 71, 84
9, 1795, Note_on_c, 7, 71, 0
9, 1860, Note_on_c, 7, 76, 65
9, 1915, Note_on_c, 7, 76, 0
9, 1920, Note_on_c, 7, 76, 65
9, 2880, Note_on_c, 7, 76, 0
9, 2880, Note_on_c, 7, 76, 65
9, 2935, Note_on_c, 7, 76, 0
9, 2940, Note_on_c, 7, 76, 65
9, 2995, Note_on_c, 7, 76, 0
9, 3000, Note_on_c, 7, 69, 65
9, 3055, Note_on_c, 7, 69, 0
9, 3060, Note_on_c, 7, 70, 65
9, 3115, Note_on_c, 7, 70, 0
9, 3120, Note_on_c, 7, 71, 65
9, 3235, Note_on_c, 7, 71, 0
9, 3300, Note_on_c, 7, 76, 84
9, 3355, Note_on_c, 7, 76, 0
9, 3360, Note_on_c, 7, 76, 84
9, 3840, Note_on_c, 7, 76, 0
9, 3840, Note_on_c, 7, 76, 84
9, 4320, Note_on_c, 7, 76, 0
9, 4320, Note_on_c, 7, 76, 84
9, 4435, Note_on_c, 7, 76, 0
9, 4440, Note_on_c, 7, 76, 84
9, 4495, Note_on_c, 7, 76, 0
9, 4500, Note_on_c, 7, 71, 84
9, 4555, Note_on_c, 7, 71, 0
9, 4560, Note_on_c, 7, 76, 84
9, 4615, Note_on_c, 7, 76, 0
9, 4620, Note_on_c, 7, 64, 84
9, 4675, Note_on_c, 7, 64, 0
9, 4680, Note_on_c, 7, 83, 84
9, 4735, Note_on_c, 7, 83, 0
9, 4740, Note_on_c, 7, 71, 84
9, 4795, Note_on_c, 7, 71, 0
9, 4800, Note_on_c, 7, 64, 84
9, 4915, Note_on_c, 7, 64, 0
9, 4980, Note_on_c, 7, 76, 65
9, 5035, Note_on_c, 7, 76, 0
9, 5040, Note_on_c, 7, 76, 65
9, 5520, Note_on_c, 7, 76, 0
9, 5520, Note_on_c, 7, 76, 65
9, 6000, Note_on_c, 7, 76, 0
9, 6000, Note_on_c, 7, 76, 65
9, 6240, Note_on_c, 7, 76, 0
9, 6240, Note_on_c, 7, 76, 65
9, 6295, Note_on_c, 7, 76, 0
9, 6300, Note_on_c, 7, 64, 65
9, 6355, Note_on_c, 7, 64, 0
9, 6360, Note_on_c, 7, 83, 65
9, 6415, Note_on_c, 7, 83, 0
9, 6420, Note_on_c, 7, 71, 65
9, 6475, Note_on_c, 7, 71, 0
9, 6480, Note_on_c, 7, 64, 65
9, 6595, Note_on_c, 7, 64, 0
9, 13380, Note_on_c, 7, 76, 84
9, 13435, Note_on_c, 7, 76, 0
9, 13440, Note_on_c, 7, 76, 84
9, 13920, Note_on_c, 7, 76, 0
9, 13920, Note_on_c, 7, 76, 84
9, 14400, Note_on_c, 7, 76, 0
9, 14400, Note_on_c, 7, 76, 84
9, 14515, Note_on_c, 7, 76, 0
9, 14520, Note_on_c, 7, 76, 84
9, 14575, Note_on_c, 7, 76, 0
9, 14580, Note_on_c, 7, 71, 84
9, 14635, Note_on_c, 7, 71, 0
9, 14640, Note_on_c, 7, 76, 84
9, 14695, Note_on_c, 7, 76, 0
9, 14700, Note_on_c, 7, 64, 84
9, 14755, Note_on_c, 7, 64, 0
9, 14760, Note_on_c, 7, 83, 84
9, 14815, Note_on_c, 7, 83, 0
9, 14820, Note_on_c, 7, 71, 84
9, 14875, Note_on_c, 7, 71, 0
9, 14880, Note_on_c, 7, 76, 84
9, 15840, Note_on_c, 7, 76, 0
9, 15840, Note_on_c, 7, 71, 84
9, 16800, Note_on_c, 7, 71, 0
9, 16800, Note_on_c, 7, 76, 84
9, 17760, Note_on_c, 7, 76, 0
9, 17760, Note_on_c, 7, 76, 84
9, 17790, Note_on_c, 7, 71, 84
9, 17795, Note_on_c, 7, 76, 0
9, 17820, Note_on_c, 7, 71, 0
9, 17820, Note_on_c, 7, 76, 84
9, 17850, Note_on_c, 7, 71, 84
9, 17855, Note_on_c, 7, 76, 0
9, 17880, Note_on_c, 7, 71, 0
9, 17880, Note_on_c, 7, 76, 84
9, 17910, Note_on_c, 7, 71, 84
9, 17915, Note_on_c, 7, 76, 0
9, 17940, Note_on_c, 7, 71, 0
9, 17940, Note_on_c, 7, 76, 84
9, 17970, Note_on_c, 7, 71, 84
9, 17975, Note_on_c, 7, 76, 0
9, 18000, Note_on_c, 7, 71, 0
9, 18000, Note_on_c, 7, 75, 84
9, 18030, Note_on_c, 7, 71, 84
9, 18035, Note_on_c, 7, 75, 0
9, 18060, Note_on_c, 7, 71, 0
9, 18060, Note_on_c, 7, 75, 84
9, 18090, Note_on_c, 7, 71, 84
9, 18095, Note_on_c, 7, 75, 0
9, 18120, Note_on_c, 7, 71, 0
9, 18120, Note_on_c, 7, 75, 84
9, 18150, Note_on_c, 7, 71, 84
9, 18155, Note_on_c, 7, 75, 0
9, 18180, Note_on_c, 7, 71, 0
9, 18180, Note_on_c, 7, 75, 84
9, 18210, Note_on_c, 7, 71, 84
9, 18215, Note_on_c, 7, 75, 0
9, 18240, Note_on_c, 7, 71, 0
9, 18240, Note_on_c, 7, 76, 84
9, 18270, Note_on_c, 7, 71, 84
9, 18275, Note_on_c, 7, 76, 0
9, 18300, Note_on_c, 7, 71, 0
9, 18300, Note_on_c, 7, 76, 84
9, 18330, Note_on_c, 7, 71, 84
9, 18335, Note_on_c, 7, 76, 0
9, 18360, Note_on_c, 7, 71, 0
9, 18360, Note_on_c, 7, 76, 84
9, 18390, Note_on_c, 7, 71, 84
9, 18395, Note_on_c, 7, 76, 0
9, 18420, Note_on_c, 7, 71, 0
9, 18420, Note_on_c, 7, 76, 84
9, 18450, Note_on_c, 7, 71, 84
9, 18455, Note_on_c, 7, 76, 0
9, 18480, Note_on_c, 7, 71, 0
9, 18480, Note_on_c, 7, 78, 84
9, 18510, Note_on_c, 7, 71, 84
9, 18515, Note_on_c, 7, 78, 0
9, 18540, Note_on_c, 7, 71, 0
9, 18540, Note_on_c, 7, 78, 84
9, 18570, Note_on_c, 7, 71, 84
9, 18575, Note_on_c, 7, 78, 0
9, 18600, Note_on_c, 7, 71, 0
9, 18600, Note_on_c, 7, 78, 84
9, 18630, Note_on_c, 7, 71, 84
9, 18635, Note_on_c, 7, 78, 0
9, 18660, Note_on_c, 7, 71, 0
9, 18660, Note_on_c, 7, 78, 84
9, 18690, Note_on_c, 7, 71, 84
9, 18695, Note_on_c, 7, 78, 0
9, 18720, Note_on_c, 7, 71, 0
9, 18720, Note_on_c, 7, 76, 84
9, 18750, Note_on_c, 7, 71, 84
9, 18755, Note_on_c, 7, 76, 0
9, 18780, Note_on_c, 7, 71, 0
9, 18780, Note_on_c, 7, 76, 84
9, 18810, Note_on_c, 7, 71, 84
9, 18815, Note_on_c, 7, 76, 0
9, 18840, Note_on_c, 7, 71, 0
9, 18840, Note_on_c, 7, 76, 84
9, 18870, Note_on_c, 7, 71, 84
9, 18875, Note_on_c, 7, 76, 0
9, 18900, Note_on_c, 7, 71, 0
9, 18900, Note_on_c, 7, 76, 84
9, 18930, Note_on_c, 7, 71, 84
9, 18935, Note_on_c, 7, 76, 0
9, 18960, Note_on_c, 7, 71, 0
9, 18960, Note_on_c, 7, 75, 84
9, 18990, Note_on_c, 7, 71, 84
9, 18995, Note_on_c, 7, 75, 0
9, 19020, Note_on_c, 7, 71, 0
9, 19020, Note_on_c, 7, 75, 84
9, 19050, Note_on_c, 7, 71, 84
9, 19055, Note_on_c, 7, 75, 0
9, 19080, Note_on_c, 7, 71, 0
9, 19080, Note_on_c, 7, 75, 84
9, 19110, Note_on_c, 7, 71, 84
9, 19115, Note_on_c, 7, 75, 0
9, 19140, Note_on_c, 7, 71, 0
9, 19140, Note_on_c, 7, 75, 84
9, 19170, Note_on_c, 7, 71, 84
9, 19175, Note_on_c, 7, 75, 0
9, 19200, Note_on_c, 7, 71, 0
9, 19200, Note_on_c, 7, 76, 84
9, 19230, Note_on_c, 7, 71, 84
9, 19235, Note_on_c, 7, 76, 0
9, 19260, Note_on_c, 7, 71, 0
9, 19260, Note_on_c, 7, 76, 84
9, 19290, Note_on_c, 7, 71, 84
9, 19295, Note_on_c, 7, 76, 0
9, 19320, Note_on_c, 7, 71, 0
9, 19320, Note_on_c, 7, 76, 84
9, 19350, Note_on_c, 7, 71, 84
9, 19355, Note_on_c, 7, 76, 0
9, 19380, Note_on_c, 7, 71, 0
9, 19380, Note_on_c, 7, 76, 84
9, 19410, Note_on_c, 7, 71, 84
9, 19415, Note_on_c, 7, 76, 0
9, 19440, Note_on_c, 7, 71, 0
9, 19440, Note_on_c, 7, 71, 84
9, 19555, Note_on_c, 7, 71, 0
9, 19620, Note_on_c, 7, 71, 84
9, 19675, Note_on_c, 7, 71, 0
9, 19680, Note_on_c, 7, 71, 84
9, 20160, Note_on_c, 7, 71, 0
9, 20160, Note_on_c, 7, 71, 84
9, 20640, Note_on_c, 7, 71, 0
9, 20640, Note_on_c, 7, 71, 84
9, 20755, Note_on_c, 7, 71, 0
9, 20760, Note_on_c, 7, 71, 84
9, 20815, Note_on_c, 7, 71, 0
9, 20820, Note_on_c, 7, 78, 84
9, 20875, Note_on_c, 7, 78, 0
9, 20880, Note_on_c, 7, 83, 84
9, 20935, Note_on_c, 7, 83, 0
9, 20940, Note_on_c, 7, 71, 84
9, 20995, Note_on_c, 7, 71, 0
9, 21000, Note_on_c, 7, 78, 84
9, 21055, Note_on_c, 7, 78, 0
9, 21060, Note_on_c, 7, 66, 84
9, 21115, Note_on_c, 7, 66, 0
9, 21120, Note_on_c, 7, 71, 84
9, 21600, Note_on_c, 7, 71, 0
9, 21600, Note_on_c, 7, 71, 84
9, 21655, Note_on_c, 7, 71, 0
9, 21720, Note_on_c, 7, 71, 84
9, 21775, Note_on_c, 7, 71, 0
9, 21840, Note_on_c, 7, 71, 84
9, 21895, Note_on_c, 7, 71, 0
9, 21960, Note_on_c, 7, 71, 84
9, 22015, Note_on_c, 7, 71, 0
9, 22080, Note_on_c, 7, 71, 84
9, 22320, Note_on_c, 7, 71, 0
9, 22320, Note_on_c, 7, 69, 84
9, 22560, Note_on_c, 7, 69, 0
9, 22560, Note_on_c, 7, 68, 84
9, 22675, Note_on_c, 7, 68, 0
9, 23040, Note_on_c, 7, 69, 84
9, 23280, Note_on_c, 7, 69, 0
9, 23280, Note_on_c, 7, 70, 84
9, 23395, Note_on_c, 7, 70, 0
9, 23760, Note_on_c, 7, 71, 84
9, 24000, Note_on_c, 7, 71, 0
9, 24000, Note_on_c, 7, 72, 84
9, 24115, Note_on_c, 7, 72, 0
9, 24480, Note_on_c, 7, 73, 84
9, 24720, Note_on_c, 7, 73, 0
9, 24720, Note_on_c, 7, 73, 84
9, 24835, Note_on_c, 7, 73, 0
9, 24960, Note_on_c, 7, 71, 84
9, 25200, Note_on_c, 7, 71, 0
9, 25200, Note_on_c, 7, 69, 84
9, 25315, Note_on_c, 7, 69, 0
9, 25440, Note_on_c, 7, 80, 84
9, 25680, Note_on_c, 7, 80, 0
9, 25680, Note_on_c, 7, 78, 84
9, 25795, Note_on_c, 7, 78, 0
9, 25920, Note_on_c, 7, 76, 84
9, 26040, Note_on_c, 7, 76, 0
9, 26040, Note_on_c, 7, 73, 84
9, 26160, Note_on_c, 7, 73, 0
9, 26160, Note_on_c, 7, 68, 84
9, 26640, Note_on_c, 7, 68, 0
9, 26640, Note_on_c, 7, 73, 84
9, 26755, Note_on_c, 7, 73, 0
9, 26820, Note_on_c, 7, 73, 84
9, 26875, Note_on_c, 7, 73, 0
9, 26880, Note_on_c, 7, 73, 84
9, 27360, Note_on_c, 7, 73, 0
9, 27360, Note_on_c, 7, 73, 84
9, 27840, Note_on_c, 7, 73, 0
9, 27840, Note_on_c, 7, 73, 84
9, 27955, Note_on_c, 7, 73, 0
9, 27960, Note_on_c, 7, 73, 84
9, 28015, Note_on_c, 7, 73, 0
9, 28020, Note_on_c, 7, 80, 74
9, 28075, Note_on_c, 7, 80, 0
9, 28080, Note_on_c, 7, 85, 74
9, 28135, Note_on_c, 7, 85, 0
9, 28140, Note_on_c, 7, 73, 84
9, 28195, Note_on_c, 7, 73, 0
9, 28200, Note_on_c, 7, 80, 84
9, 28255, Note_on_c, 7, 80, 0
9, 28260, Note_on_c, 7, 68, 84
9, 28315, Note_on_c, 7, 68, 0
9, 28320, Note_on_c, 7, 73, 84
9, 31675, Note_on_c, 7, 73, 0
9, 31680, Note_on_c, 7, 73, 84
9, 31735, Note_on_c, 7, 73, 0
9, 31740, Note_on_c, 7, 73, 84
9, 31795, Note_on_c, 7, 73, 0
9, 31800, Note_on_c, 7, 73, 84
9, 31855, Note_on_c, 7, 73, 0
9, 31860, Note_on_c, 7, 73, 84
9, 31915, Note_on_c, 7, 73, 0
9, 31920, Note_on_c, 7, 78, 84
9, 31975, Note_on_c, 7, 78, 0
9, 31980, Note_on_c, 7, 78, 84
9, 32035, Note_on_c, 7, 78, 0
9, 32040, Note_on_c, 7, 78, 84
9, 32095, Note_on_c, 7, 78, 0
9, 32100, Note_on_c, 7, 78, 84
9, 32155, Note_on_c, 7, 78, 0
9, 32160, Note_on_c, 7, 71, 84
9, 32215, Note_on_c, 7, 71, 0
9, 32220, Note_on_c, 7, 71, 84
9, 32275, Note_on_c, 7, 71, 0
9, 32280, Note_on_c, 7, 71, 84
9, 32335, Note_on_c, 7, 71, 0
9, 32340, Note_on_c, 7, 71, 84
9, 32395, Note_on_c, 7, 71, 0
9, 32400, Note_on_c, 7, 76, 84
9, 32455, Note_on_c, 7, 76, 0
9, 32460, Note_on_c, 7, 76, 84
9, 32515, Note_on_c, 7, 76, 0
9, 32520, Note_on_c, 7, 76, 84
9, 32575, Note_on_c, 7, 76, 0
9, 32580, Note_on_c, 7, 71, 84
9, 32635, Note_on_c, 7, 71, 0
9, 32640, Note_on_c, 7, 76, 84
9, 32695, Note_on_c, 7, 76, 0
9, 32700, Note_on_c, 7, 76, 84
9, 32755, Note_on_c, 7, 76, 0
9, 32760, Note_on_c, 7, 76, 84
9, 32815, Note_on_c, 7, 76, 0
9, 32820, Note_on_c, 7, 71, 84
9, 32875, Note_on_c, 7, 71, 0
9, 32880, Note_on_c, 7, 76, 84
9, 32935, Note_on_c, 7, 76, 0
9, 32940, Note_on_c, 7, 76, 84
9, 32995, Note_on_c, 7, 76, 0
9, 33000, Note_on_c, 7, 76, 84
9, 33055, Note_on_c, 7, 76, 0
9, 33060, Note_on_c, 7, 71, 84
9, 33115, Note_on_c, 7, 71, 0
9, 33120, Note_on_c, 7, 76, 84
9, 33175, Note_on_c, 7, 76, 0
9, 33180, Note_on_c, 7, 76, 84
9, 33235, Note_on_c, 7, 76, 0
9, 33240, Note_on_c, 7, 76, 84
9, 33295, Note_on_c, 7, 76, 0
9, 33300, Note_on_c, 7, 71, 84
9, 33355, Note_on_c, 7, 71, 0
9, 33360, Note_on_c, 7, 76, 84
9, 33415, Note_on_c, 7, 76, 0
9, 33420, Note_on_c, 7, 76, 84
9, 33475, Note_on_c, 7, 76, 0
9, 33480, Note_on_c, 7, 76, 84
9, 33535, Note_on_c, 7, 76, 0
9, 33540, Note_on_c, 7, 71, 84
9, 33595, Note_on_c, 7, 71, 0
9, 33600, Note_on_c, 7, 76, 84
9, 33655, Note_on_c, 7, 76, 0
9, 33660, Note_on_c, 7, 76, 84
9, 33715, Note_on_c, 7, 76, 0
9, 33720, Note_on_c, 7, 76, 84
9, 33775, Note_on_c, 7, 76, 0
9, 33780, Note_on_c, 7, 71, 84
9, 33835, Note_on_c, 7, 71, 0
9, 33840, Note_on_c, 7, 71, 84
9, 34795, Note_on_c, 7, 71, 0
9, 34800, Note_on_c, 7, 76, 84
9, 34915, Note_on_c, 7, 76, 0
9, 34920, Note_on_c, 7, 76, 84
9, 35035, Note_on_c, 7, 76, 0
9, 35040, Note_on_c, 7, 78, 84
9, 35155, Note_on_c, 7, 78, 0
9, 35160, Note_on_c, 7, 78, 84
9, 35275, Note_on_c, 7, 78, 0
9, 35280, Note_on_c, 7, 80, 84
9, 35395, Note_on_c, 7, 80, 0
9, 35400, Note_on_c, 7, 80, 84
9, 35515, Note_on_c, 7, 80, 0
9, 35520, Note_on_c, 7, 81, 84
9, 35635, Note_on_c, 7, 81, 0
9, 35640, Note_on_c, 7, 80, 84
9, 35695, Note_on_c, 7, 80, 0
9, 35700, Note_on_c, 7, 78, 84
9, 35755, Note_on_c, 7, 78, 0
9, 35760, Note_on_c, 7, 76, 84
9, 35875, Note_on_c, 7, 76, 0
9, 36000, Note_on_c, 7, 76, 84
9, 36115, Note_on_c, 7, 76, 0
9, 36240, Note_on_c, 7, 76, 84
9, 36355, Note_on_c, 7, 76, 0
9, 36360, Note_on_c, 7, 71, 84
9, 36475, Note_on_c, 7, 71, 0
9, 36480, Note_on_c, 7, 76, 84
9, 36960, Note_on_c, 7, 76, 0
9, 36960, Note_on_c, 7, 76, 84
9, 37440, Note_on_c, 7, 76, 0
9, 37440, Note_on_c, 7, 76, 84
9, 37555, Note_on_c, 7, 76, 0
9, 37560, Note_on_c, 7, 76, 84
9, 37615, Note_on_c, 7, 76, 0
9, 37620, Note_on_c, 7, 75, 84
9, 37675, Note_on_c, 7, 75, 0
9, 37680, Note_on_c, 7, 76, 84
9, 37735, Note_on_c, 7, 76, 0
9, 37740, Note_on_c, 7, 64, 84
9, 37795, Note_on_c, 7, 64, 0
9, 37800, Note_on_c, 7, 83, 84
9, 37855, Note_on_c, 7, 83, 0
9, 37860, Note_on_c, 7, 71, 84
9, 37915, Note_on_c, 7, 71, 0
9, 37920, Note_on_c, 7, 64, 84
9, 38035, Note_on_c, 7, 64, 0
9, 38100, Note_on_c, 7, 76, 84
9, 38155, Note_on_c, 7, 76, 0
9, 38160, Note_on_c, 7, 76, 84
9, 38640, Note_on_c, 7, 76, 0
9, 38640, Note_on_c, 7, 76, 84
9, 39120, Note_on_c, 7, 76, 0
9, 39120, Note_on_c, 7, 76, 84
9, 39235, Note_on_c, 7, 76, 0
9, 39240, Note_on_c, 7, 76, 84
9, 39295, Note_on_c, 7, 76, 0
9, 39300, Note_on_c, 7, 71, 84
9, 39355, Note_on_c, 7, 71, 0
9, 39360, Note_on_c, 7, 76, 84
9, 39415, Note_on_c, 7, 76, 0
9, 39420, Note_on_c, 7, 64, 84
9, 39475, Note_on_c, 7, 64, 0
9, 39480, Note_on_c, 7, 83, 84
9, 39535, Note_on_c, 7, 83, 0
9, 39540, Note_on_c, 7, 71, 84
9, 39595, Note_on_c, 7, 71, 0
9, 39600, Note_on_c, 7, 64, 84
9, 39835, Note_on_c, 7, 64, 0
9, 40080, Program_c, 7, 0
9, 40080, Control_c, 7, 7, 100
9, 40080, Control_c, 7, 10, 64
9, 40080, Control_c, 7, 93, 0
9, 40080, Control_c, 7, 91, 40
9, 40081, Text_t, "Non Registered Parameter Numbers"
9, 40081, Text_t, "For Roland SC-55 Vibrato"
9, 40081, Text_t, "Set up NRPN for Vibrate Rate"
9, 40082, Control_c, 7, 99, 1
9, 40083, Control_c, 7, 98, 8
9, 40084, Text_t, "Data Entry Command"
9, 40084, Control_c, 7, 6, 64
9, 40085, Text_t, "Set up NRPN for Vibrate Delay"
9, 40086, Control_c, 7, 99, 1
9, 40087, Control_c, 7, 98, 10
9, 40088, Text_t, "Data Entry Command"
9, 40088, Control_c, 7, 6, 64
9, 40089, Text_t, "Set up NRPN for Vibrate Depth"
9, 40090, Control_c, 7, 99, 1
9, 40091, Control_c, 7, 98, 9
9, 40092, Text_t, "Data Entry Command; Vibrato ON"
9, 40092, Control_c, 7, 6, 64
9, 40092, End_track
10, 0, Start_track
10, 0, MIDI_port, 0
10, 0, Title_t, "+=+=+=+=+=+="
10, 0, End_track
11, 0, Start_track
11, 0, MIDI_port, 0
11, 0, Title_t, "Antonio"
11, 0, End_track
12, 0, Start_track
12, 0, MIDI_port, 0
12, 0, Title_t, "Vivaldi's"
12, 0, End_track
13, 0, Start_track
13, 0, MIDI_port, 0
13, 0, Title_t, "Four Seasons"
13, 0, End_track
14, 0, Start_track
14, 0, MIDI_port, 0
14, 0, Title_t, "Spring"
14, 0, End_track
15, 0, Start_track
15, 0, MIDI_port, 0
15, 0, Title_t, "Opus 8, No. 1"
15, 0, End_track
16, 0, Start_track
16, 0, MIDI_port, 0
16, 0, Title_t, "Allegro  (a)"
16, 0, End_track
17, 0, Start_track
17, 0, MIDI_port, 0
17, 0, Title_t, "+=+=+=+=+=+="
17, 0, End_track
18, 0, Start_track
18, 0, MIDI_port, 0
18, 0, Title_t, "This Midi File"
18, 0, End_track
19, 0, Start_track
19, 0, MIDI_port, 0
19, 0, Title_t, "(C) Copyright 1996"
19, 0, End_track
20, 0, Start_track
20, 0, MIDI_port, 0
20, 0, Title_t, "by Neil B. Sheldon Sr"
20, 0, End_track
21, 0, Start_track
21, 0, MIDI_port, 0
21, 0, Title_t, "neil@netzone.com"
21, 0, End_track
22, 0, Start_track
22, 0, MIDI_port, 0
22, 0, Title_t, "may be freely"
22, 0, End_track
23, 0, Start_track
23, 0, MIDI_port, 0
23, 0, Title_t, "distributed"
23, 0, End_track
24, 0, Start_track
24, 0, MIDI_port, 0
24, 0, Title_t, "for "
24, 0, End_track
25, 0, Start_track
25, 0, MIDI_port, 0
25, 0, Title_t, "non-commercial"
25, 0, End_track
26, 0, Start_track
26, 0, MIDI_port, 0
26, 0, Title_t, "non-monetary "
26, 0, End_track
27, 0, Start_track
27, 0, MIDI_port, 0
27, 0, Title_t, "use only"
27, 0, End_track
28, 0, Start_track
28, 0, MIDI_port, 0
28, 0, Title_t, "+=+=+=+=+=+="
28, 0, End_track
29, 0, Start_track
29, 0, MIDI_port, 0
29, 0, Title_t, "For Roland SC-55"
29, 0, End_track
30, 0, Start_track
30, 0, MIDI_port, 0
30, 0, Title_t, "+=+=+=+=+=+="
30, 0, End_track
0, 0, End_of_file
