0, 0, Header, 1, 32, 120
1, 0, Start_track
1, 0, Time_signature, 3, 2, 24, 8
1, 0, Key_signature, 4, "major"
1, 0, Tempo, 1200000
1, 0, Marker_t, "Largo e pianissimo sempere"
1, 4680, Marker_t, "From Four Seasons, Spring Op. 8, No. 1"
1, 10800, Marker_t, "by Antonio Vivaldi"
1, 13680, Marker_t, "This Midi File Copyright (C) 1996 by Neil B. Sheldon Sr."
1, 14040, Marker_t, "may be freely distributed for non-commercial, non-monetary use only"
1, 14040, End_track
2, 0, Start_track
2, 0, MIDI_port, 1
2, 0, Title_t, "Violin Solo"
2, 0, Program_c, 0, 40
2, 0, Control_c, 0, 7, 120
2, 0, Control_c, 0, 10, 64
2, 0, Control_c, 0, 93, 0
2, 0, Control_c, 0, 91, 120
2, 1, Text_t, "Non Registered Parameter Numbers"
2, 1, Text_t, "For Roland SC-55 Vibrato"
2, 1, Text_t, "Set up NRPN for Vibrate Rate"
2, 2, Control_c, 0, 99, 1
2, 3, Control_c, 0, 98, 8
2, 4, Text_t, "Data Entry Command"
2, 4, Control_c, 0, 6, 68
2, 5, Text_t, "Set up NRPN for Vibrate Delay"
2, 6, Control_c, 0, 99, 1
2, 7, Control_c, 0, 98, 10
2, 8, Text_t, "Data Entry Command"
2, 8, Control_c, 0, 6, 14
2, 9, Text_t, "Set up NRPN for Vibrate Depth"
2, 10, Control_c, 0, 99, 1
2, 11, Control_c, 0, 98, 9
2, 12, Text_t, "Data Entry Command; Vibrato ON"
2, 12, Control_c, 0, 6, 71
2, 13, Pitch_bend_c, 0, 8192
2, 14, Control_c, 0, 11, 65
2, 720, Note_on_c, 0, 80, 81
2, 722, Control_c, 0, 11, 66
2, 723, Control_c, 0, 11, 67
2, 724, Control_c, 0, 11, 71
2, 725, Control_c, 0, 11, 73
2, 726, Control_c, 0, 11, 75
2, 728, Control_c, 0, 11, 78
2, 730, Control_c, 0, 11, 79
2, 731, Control_c, 0, 11, 81
2, 732, Control_c, 0, 11, 87
2, 734, Control_c, 0, 11, 93
2, 735, Control_c, 0, 11, 95
2, 737, Control_c, 0, 11, 101
2, 738, Control_c, 0, 11, 103
2, 740, Control_c, 0, 11, 105
2, 741, Control_c, 0, 11, 107
2, 742, Control_c, 0, 11, 108
2, 744, Control_c, 0, 11, 110
2, 746, Control_c, 0, 11, 116
2, 747, Control_c, 0, 11, 117
2, 750, Control_c, 0, 11, 119
2, 751, Control_c, 0, 11, 122
2, 753, Control_c, 0, 11, 123
2, 754, Control_c, 0, 11, 124
2, 755, Control_c, 0, 11, 126
2, 756, Control_c, 0, 11, 127
2, 758, Control_c, 0, 11, 127
2, 810, Control_c, 0, 11, 127
2, 840, Note_on_c, 0, 76, 81
2, 840, Control_c, 0, 11, 65
2, 841, Control_c, 0, 11, 67
2, 842, Control_c, 0, 11, 74
2, 843, Control_c, 0, 11, 80
2, 844, Control_c, 0, 11, 82
2, 845, Note_on_c, 0, 80, 0
2, 845, Control_c, 0, 11, 88
2, 846, Control_c, 0, 11, 96
2, 847, Control_c, 0, 11, 98
2, 848, Control_c, 0, 11, 99
2, 849, Control_c, 0, 11, 101
2, 850, Control_c, 0, 11, 103
2, 851, Control_c, 0, 11, 104
2, 852, Control_c, 0, 11, 106
2, 854, Control_c, 0, 11, 107
2, 855, Control_c, 0, 11, 108
2, 856, Control_c, 0, 11, 109
2, 857, Control_c, 0, 11, 110
2, 858, Control_c, 0, 11, 111
2, 861, Control_c, 0, 11, 113
2, 863, Control_c, 0, 11, 114
2, 864, Control_c, 0, 11, 115
2, 866, Control_c, 0, 11, 116
2, 867, Control_c, 0, 11, 118
2, 868, Control_c, 0, 11, 119
2, 869, Control_c, 0, 11, 120
2, 871, Control_c, 0, 11, 121
2, 873, Control_c, 0, 11, 122
2, 876, Control_c, 0, 11, 123
2, 884, Control_c, 0, 11, 121
2, 886, Control_c, 0, 11, 120
2, 892, Control_c, 0, 11, 119
2, 902, Control_c, 0, 11, 117
2, 917, Control_c, 0, 11, 115
2, 918, Control_c, 0, 11, 114
2, 937, Control_c, 0, 11, 112
2, 948, Control_c, 0, 11, 110
2, 953, Control_c, 0, 11, 109
2, 954, Control_c, 0, 11, 108
2, 955, Control_c, 0, 11, 107
2, 960, Note_on_c, 0, 76, 0
2, 960, Control_c, 0, 11, 65
2, 960, Note_on_c, 0, 73, 81
2, 962, Control_c, 0, 11, 68
2, 963, Control_c, 0, 11, 69
2, 964, Control_c, 0, 11, 71
2, 965, Control_c, 0, 11, 72
2, 966, Control_c, 0, 11, 74
2, 967, Control_c, 0, 11, 76
2, 968, Control_c, 0, 11, 78
2, 970, Control_c, 0, 11, 79
2, 971, Control_c, 0, 11, 81
2, 972, Control_c, 0, 11, 82
2, 973, Control_c, 0, 11, 83
2, 974, Control_c, 0, 11, 86
2, 975, Control_c, 0, 11, 87
2, 976, Control_c, 0, 11, 89
2, 978, Control_c, 0, 11, 90
2, 981, Control_c, 0, 11, 96
2, 982, Control_c, 0, 11, 97
2, 983, Control_c, 0, 11, 98
2, 984, Control_c, 0, 11, 100
2, 986, Control_c, 0, 11, 102
2, 987, Control_c, 0, 11, 104
2, 988, Control_c, 0, 11, 105
2, 991, Control_c, 0, 11, 107
2, 993, Control_c, 0, 11, 108
2, 994, Control_c, 0, 11, 110
2, 1001, Control_c, 0, 11, 111
2, 1002, Control_c, 0, 11, 112
2, 1003, Control_c, 0, 11, 113
2, 1004, Control_c, 0, 11, 114
2, 1005, Control_c, 0, 11, 115
2, 1006, Control_c, 0, 11, 116
2, 1008, Control_c, 0, 11, 117
2, 1010, Control_c, 0, 11, 118
2, 1011, Control_c, 0, 11, 119
2, 1013, Control_c, 0, 11, 120
2, 1014, Control_c, 0, 11, 121
2, 1015, Control_c, 0, 11, 122
2, 1016, Control_c, 0, 11, 123
2, 1017, Control_c, 0, 11, 124
2, 1020, Control_c, 0, 11, 125
2, 1022, Control_c, 0, 11, 127
2, 1080, Note_on_c, 0, 73, 0
2, 1080, Note_on_c, 0, 80, 81
2, 1080, Control_c, 0, 11, 68
2, 1081, Control_c, 0, 11, 73
2, 1082, Control_c, 0, 11, 80
2, 1083, Control_c, 0, 11, 93
2, 1084, Control_c, 0, 11, 98
2, 1085, Control_c, 0, 11, 103
2, 1086, Control_c, 0, 11, 108
2, 1087, Control_c, 0, 11, 112
2, 1088, Control_c, 0, 11, 113
2, 1090, Control_c, 0, 11, 114
2, 1091, Control_c, 0, 11, 117
2, 1092, Control_c, 0, 11, 119
2, 1093, Control_c, 0, 11, 120
2, 1094, Control_c, 0, 11, 122
2, 1095, Control_c, 0, 11, 123
2, 1096, Control_c, 0, 11, 124
2, 1097, Control_c, 0, 11, 126
2, 1100, Control_c, 0, 11, 127
2, 1140, Note_on_c, 0, 78, 81
2, 1140, Control_c, 0, 11, 73
2, 1141, Control_c, 0, 11, 82
2, 1142, Control_c, 0, 11, 95
2, 1143, Control_c, 0, 11, 99
2, 1144, Control_c, 0, 11, 109
2, 1145, Note_on_c, 0, 80, 0
2, 1145, Control_c, 0, 11, 114
2, 1146, Control_c, 0, 11, 117
2, 1147, Control_c, 0, 11, 121
2, 1148, Control_c, 0, 11, 122
2, 1150, Control_c, 0, 11, 124
2, 1152, Control_c, 0, 11, 125
2, 1154, Control_c, 0, 11, 126
2, 1155, Control_c, 0, 11, 127
2, 1200, Note_on_c, 0, 80, 81
2, 1200, Control_c, 0, 11, 66
2, 1201, Control_c, 0, 11, 67
2, 1202, Control_c, 0, 11, 69
2, 1203, Control_c, 0, 11, 71
2, 1204, Control_c, 0, 11, 75
2, 1205, Note_on_c, 0, 78, 0
2, 1205, Control_c, 0, 11, 77
2, 1206, Control_c, 0, 11, 82
2, 1207, Control_c, 0, 11, 86
2, 1208, Control_c, 0, 11, 90
2, 1210, Control_c, 0, 11, 93
2, 1211, Control_c, 0, 11, 97
2, 1212, Control_c, 0, 11, 99
2, 1213, Control_c, 0, 11, 102
2, 1214, Control_c, 0, 11, 103
2, 1215, Control_c, 0, 11, 106
2, 1216, Control_c, 0, 11, 107
2, 1217, Control_c, 0, 11, 109
2, 1218, Control_c, 0, 11, 111
2, 1220, Control_c, 0, 11, 113
2, 1221, Control_c, 0, 11, 114
2, 1222, Control_c, 0, 11, 115
2, 1223, Control_c, 0, 11, 116
2, 1224, Control_c, 0, 11, 117
2, 1225, Control_c, 0, 11, 118
2, 1227, Control_c, 0, 11, 120
2, 1228, Control_c, 0, 11, 121
2, 1231, Control_c, 0, 11, 122
2, 1232, Control_c, 0, 11, 123
2, 1235, Control_c, 0, 11, 124
2, 1236, Control_c, 0, 11, 125
2, 1238, Control_c, 0, 11, 126
2, 1240, Control_c, 0, 11, 127
2, 1315, Control_c, 0, 11, 126
2, 1321, Control_c, 0, 11, 123
2, 1327, Control_c, 0, 11, 122
2, 1330, Control_c, 0, 11, 121
2, 1341, Control_c, 0, 11, 119
2, 1346, Control_c, 0, 11, 119
2, 1364, Control_c, 0, 11, 117
2, 1370, Control_c, 0, 11, 118
2, 1385, Control_c, 0, 11, 121
2, 1394, Control_c, 0, 11, 120
2, 1410, Note_on_c, 0, 80, 0
2, 1413, Control_c, 0, 11, 119
2, 1416, Control_c, 0, 11, 118
2, 1418, Control_c, 0, 11, 117
2, 1440, Control_c, 0, 11, 70
2, 1440, Note_on_c, 0, 72, 81
2, 1442, Control_c, 0, 11, 74
2, 1443, Control_c, 0, 11, 87
2, 1444, Control_c, 0, 11, 92
2, 1445, Control_c, 0, 11, 95
2, 1446, Control_c, 0, 11, 97
2, 1447, Control_c, 0, 11, 103
2, 1448, Control_c, 0, 11, 109
2, 1450, Control_c, 0, 11, 111
2, 1451, Control_c, 0, 11, 112
2, 1452, Control_c, 0, 11, 113
2, 1453, Control_c, 0, 11, 114
2, 1454, Control_c, 0, 11, 115
2, 1455, Control_c, 0, 11, 116
2, 1456, Control_c, 0, 11, 117
2, 1457, Control_c, 0, 11, 118
2, 1458, Control_c, 0, 11, 119
2, 1461, Control_c, 0, 11, 120
2, 1462, Control_c, 0, 11, 121
2, 1464, Control_c, 0, 11, 122
2, 1466, Control_c, 0, 11, 123
2, 1470, Control_c, 0, 11, 124
2, 1472, Control_c, 0, 11, 125
2, 1474, Control_c, 0, 11, 126
2, 1533, Control_c, 0, 11, 125
2, 1536, Control_c, 0, 11, 124
2, 1540, Control_c, 0, 11, 123
2, 1543, Control_c, 0, 11, 122
2, 1545, Control_c, 0, 11, 121
2, 1546, Control_c, 0, 11, 120
2, 1548, Control_c, 0, 11, 119
2, 1550, Control_c, 0, 11, 117
2, 1551, Control_c, 0, 11, 116
2, 1552, Control_c, 0, 11, 115
2, 1553, Control_c, 0, 11, 113
2, 1554, Control_c, 0, 11, 112
2, 1555, Control_c, 0, 11, 110
2, 1556, Control_c, 0, 11, 109
2, 1557, Control_c, 0, 11, 104
2, 1560, Note_on_c, 0, 75, 81
2, 1560, Control_c, 0, 11, 68
2, 1561, Control_c, 0, 11, 70
2, 1562, Control_c, 0, 11, 73
2, 1563, Control_c, 0, 11, 77
2, 1564, Control_c, 0, 11, 84
2, 1565, Note_on_c, 0, 72, 0
2, 1565, Control_c, 0, 11, 86
2, 1566, Control_c, 0, 11, 90
2, 1567, Control_c, 0, 11, 92
2, 1568, Control_c, 0, 11, 95
2, 1570, Control_c, 0, 11, 99
2, 1571, Control_c, 0, 11, 100
2, 1572, Control_c, 0, 11, 103
2, 1573, Control_c, 0, 11, 104
2, 1574, Control_c, 0, 11, 107
2, 1575, Control_c, 0, 11, 109
2, 1576, Control_c, 0, 11, 111
2, 1577, Control_c, 0, 11, 112
2, 1578, Control_c, 0, 11, 114
2, 1580, Control_c, 0, 11, 116
2, 1582, Control_c, 0, 11, 120
2, 1584, Control_c, 0, 11, 121
2, 1585, Control_c, 0, 11, 122
2, 1587, Control_c, 0, 11, 123
2, 1588, Control_c, 0, 11, 124
2, 1590, Control_c, 0, 11, 125
2, 1593, Control_c, 0, 11, 126
2, 1597, Control_c, 0, 11, 127
2, 1665, Control_c, 0, 11, 126
2, 1666, Control_c, 0, 11, 125
2, 1667, Control_c, 0, 11, 124
2, 1671, Control_c, 0, 11, 123
2, 1673, Control_c, 0, 11, 121
2, 1674, Control_c, 0, 11, 120
2, 1676, Control_c, 0, 11, 117
2, 1677, Control_c, 0, 11, 113
2, 1678, Control_c, 0, 11, 110
2, 1680, Note_on_c, 0, 75, 0
2, 1680, Note_on_c, 0, 80, 81
2, 1680, Control_c, 0, 11, 67
2, 1681, Control_c, 0, 11, 68
2, 1682, Control_c, 0, 11, 72
2, 1683, Control_c, 0, 11, 77
2, 1684, Control_c, 0, 11, 80
2, 1685, Control_c, 0, 11, 82
2, 1686, Control_c, 0, 11, 86
2, 1687, Control_c, 0, 11, 89
2, 1688, Control_c, 0, 11, 93
2, 1690, Control_c, 0, 11, 95
2, 1691, Control_c, 0, 11, 98
2, 1692, Control_c, 0, 11, 102
2, 1693, Control_c, 0, 11, 104
2, 1694, Control_c, 0, 11, 108
2, 1695, Control_c, 0, 11, 110
2, 1696, Control_c, 0, 11, 111
2, 1697, Control_c, 0, 11, 112
2, 1698, Control_c, 0, 11, 114
2, 1700, Control_c, 0, 11, 115
2, 1701, Control_c, 0, 11, 117
2, 1702, Control_c, 0, 11, 118
2, 1703, Control_c, 0, 11, 119
2, 1704, Control_c, 0, 11, 120
2, 1706, Control_c, 0, 11, 122
2, 1708, Control_c, 0, 11, 123
2, 1710, Control_c, 0, 11, 124
2, 1713, Control_c, 0, 11, 125
2, 1714, Control_c, 0, 11, 126
2, 1716, Control_c, 0, 11, 127
2, 1784, Control_c, 0, 11, 127
2, 1785, Control_c, 0, 11, 126
2, 1786, Control_c, 0, 11, 125
2, 1787, Control_c, 0, 11, 123
2, 1788, Control_c, 0, 11, 121
2, 1790, Control_c, 0, 11, 119
2, 1791, Control_c, 0, 11, 118
2, 1792, Control_c, 0, 11, 117
2, 1793, Control_c, 0, 11, 115
2, 1794, Control_c, 0, 11, 113
2, 1795, Control_c, 0, 11, 111
2, 1796, Control_c, 0, 11, 99
2, 1800, Note_on_c, 0, 80, 0
2, 1800, Control_c, 0, 11, 66
2, 1800, Note_on_c, 0, 84, 81
2, 1801, Control_c, 0, 11, 70
2, 1803, Control_c, 0, 11, 81
2, 1804, Control_c, 0, 11, 87
2, 1805, Control_c, 0, 11, 91
2, 1806, Control_c, 0, 11, 99
2, 1807, Control_c, 0, 11, 100
2, 1808, Control_c, 0, 11, 104
2, 1810, Control_c, 0, 11, 106
2, 1811, Control_c, 0, 11, 109
2, 1812, Control_c, 0, 11, 110
2, 1813, Control_c, 0, 11, 111
2, 1814, Control_c, 0, 11, 113
2, 1815, Control_c, 0, 11, 115
2, 1816, Control_c, 0, 11, 116
2, 1817, Control_c, 0, 11, 118
2, 1818, Control_c, 0, 11, 119
2, 1820, Control_c, 0, 11, 120
2, 1821, Control_c, 0, 11, 121
2, 1823, Control_c, 0, 11, 122
2, 1824, Control_c, 0, 11, 123
2, 1825, Control_c, 0, 11, 124
2, 1826, Control_c, 0, 11, 125
2, 1827, Control_c, 0, 11, 126
2, 1831, Control_c, 0, 11, 127
2, 1860, Note_on_c, 0, 82, 81
2, 1860, Control_c, 0, 11, 67
2, 1861, Control_c, 0, 11, 69
2, 1862, Control_c, 0, 11, 72
2, 1863, Control_c, 0, 11, 80
2, 1864, Control_c, 0, 11, 86
2, 1865, Note_on_c, 0, 84, 0
2, 1865, Control_c, 0, 11, 92
2, 1866, Control_c, 0, 11, 94
2, 1867, Control_c, 0, 11, 100
2, 1868, Control_c, 0, 11, 105
2, 1870, Control_c, 0, 11, 110
2, 1871, Control_c, 0, 11, 113
2, 1872, Control_c, 0, 11, 119
2, 1873, Control_c, 0, 11, 121
2, 1874, Control_c, 0, 11, 123
2, 1875, Control_c, 0, 11, 125
2, 1876, Control_c, 0, 11, 127
2, 1920, Note_on_c, 0, 80, 81
2, 1920, Control_c, 0, 11, 65
2, 1921, Control_c, 0, 11, 66
2, 1922, Control_c, 0, 11, 70
2, 1923, Control_c, 0, 11, 76
2, 1924, Control_c, 0, 11, 79
2, 1925, Note_on_c, 0, 82, 0
2, 1925, Control_c, 0, 11, 81
2, 1926, Control_c, 0, 11, 85
2, 1927, Control_c, 0, 11, 86
2, 1928, Control_c, 0, 11, 88
2, 1930, Control_c, 0, 11, 90
2, 1931, Control_c, 0, 11, 92
2, 1932, Control_c, 0, 11, 94
2, 1933, Control_c, 0, 11, 96
2, 1934, Control_c, 0, 11, 98
2, 1935, Control_c, 0, 11, 100
2, 1936, Control_c, 0, 11, 102
2, 1937, Control_c, 0, 11, 103
2, 1938, Control_c, 0, 11, 105
2, 1940, Control_c, 0, 11, 108
2, 1941, Control_c, 0, 11, 109
2, 1942, Control_c, 0, 11, 111
2, 1943, Control_c, 0, 11, 113
2, 1944, Control_c, 0, 11, 115
2, 1945, Control_c, 0, 11, 116
2, 1946, Control_c, 0, 11, 117
2, 1947, Control_c, 0, 11, 119
2, 1950, Control_c, 0, 11, 121
2, 1951, Control_c, 0, 11, 123
2, 1952, Control_c, 0, 11, 124
2, 1955, Control_c, 0, 11, 125
2, 1956, Control_c, 0, 11, 126
2, 2041, Control_c, 0, 11, 125
2, 2056, Control_c, 0, 11, 124
2, 2065, Control_c, 0, 11, 123
2, 2068, Control_c, 0, 11, 122
2, 2077, Control_c, 0, 11, 121
2, 2082, Control_c, 0, 11, 120
2, 2090, Control_c, 0, 11, 119
2, 2096, Control_c, 0, 11, 118
2, 2105, Control_c, 0, 11, 117
2, 2112, Control_c, 0, 11, 116
2, 2122, Control_c, 0, 11, 114
2, 2130, Control_c, 0, 11, 113
2, 2146, Control_c, 0, 11, 112
2, 2147, Control_c, 0, 11, 110
2, 2150, Control_c, 0, 11, 108
2, 2152, Control_c, 0, 11, 103
2, 2153, Control_c, 0, 11, 100
2, 2155, Control_c, 0, 11, 93
2, 2160, Note_on_c, 0, 80, 0
2, 2160, Control_c, 0, 11, 97
2, 2160, Note_on_c, 0, 78, 81
2, 2162, Control_c, 0, 11, 98
2, 2163, Control_c, 0, 11, 99
2, 2164, Control_c, 0, 11, 102
2, 2165, Control_c, 0, 11, 105
2, 2167, Control_c, 0, 11, 107
2, 2168, Control_c, 0, 11, 109
2, 2170, Control_c, 0, 11, 111
2, 2171, Control_c, 0, 11, 112
2, 2172, Control_c, 0, 11, 113
2, 2173, Control_c, 0, 11, 114
2, 2174, Control_c, 0, 11, 116
2, 2176, Control_c, 0, 11, 117
2, 2177, Control_c, 0, 11, 118
2, 2178, Control_c, 0, 11, 119
2, 2181, Control_c, 0, 11, 120
2, 2182, Control_c, 0, 11, 121
2, 2183, Control_c, 0, 11, 122
2, 2185, Control_c, 0, 11, 123
2, 2187, Control_c, 0, 11, 125
2, 2190, Control_c, 0, 11, 126
2, 2191, Control_c, 0, 11, 127
2, 2280, Note_on_c, 0, 80, 81
2, 2280, Control_c, 0, 11, 96
2, 2281, Control_c, 0, 11, 99
2, 2282, Control_c, 0, 11, 100
2, 2283, Control_c, 0, 11, 103
2, 2284, Control_c, 0, 11, 104
2, 2285, Note_on_c, 0, 78, 0
2, 2285, Control_c, 0, 11, 107
2, 2286, Control_c, 0, 11, 108
2, 2287, Control_c, 0, 11, 110
2, 2288, Control_c, 0, 11, 112
2, 2290, Control_c, 0, 11, 114
2, 2291, Control_c, 0, 11, 115
2, 2292, Control_c, 0, 11, 116
2, 2293, Control_c, 0, 11, 117
2, 2294, Control_c, 0, 11, 118
2, 2297, Control_c, 0, 11, 120
2, 2298, Control_c, 0, 11, 121
2, 2300, Control_c, 0, 11, 122
2, 2303, Control_c, 0, 11, 123
2, 2304, Control_c, 0, 11, 124
2, 2307, Control_c, 0, 11, 125
2, 2313, Control_c, 0, 11, 126
2, 2315, Control_c, 0, 11, 127
2, 2400, Control_c, 0, 11, 97
2, 2400, Note_on_c, 0, 75, 81
2, 2402, Control_c, 0, 11, 98
2, 2403, Control_c, 0, 11, 100
2, 2404, Control_c, 0, 11, 102
2, 2405, Note_on_c, 0, 80, 0
2, 2405, Control_c, 0, 11, 103
2, 2406, Control_c, 0, 11, 105
2, 2407, Control_c, 0, 11, 106
2, 2408, Control_c, 0, 11, 108
2, 2410, Control_c, 0, 11, 109
2, 2412, Control_c, 0, 11, 112
2, 2413, Control_c, 0, 11, 113
2, 2414, Control_c, 0, 11, 114
2, 2416, Control_c, 0, 11, 115
2, 2417, Control_c, 0, 11, 116
2, 2418, Control_c, 0, 11, 118
2, 2422, Control_c, 0, 11, 120
2, 2425, Control_c, 0, 11, 122
2, 2427, Control_c, 0, 11, 123
2, 2428, Control_c, 0, 11, 124
2, 2430, Control_c, 0, 11, 125
2, 2432, Control_c, 0, 11, 126
2, 2520, Note_on_c, 0, 76, 81
2, 2520, Control_c, 0, 11, 65
2, 2522, Control_c, 0, 11, 66
2, 2523, Control_c, 0, 11, 67
2, 2524, Control_c, 0, 11, 68
2, 2525, Note_on_c, 0, 75, 0
2, 2525, Control_c, 0, 11, 69
2, 2527, Control_c, 0, 11, 71
2, 2528, Control_c, 0, 11, 72
2, 2530, Control_c, 0, 11, 74
2, 2531, Control_c, 0, 11, 76
2, 2532, Control_c, 0, 11, 78
2, 2533, Control_c, 0, 11, 80
2, 2534, Control_c, 0, 11, 81
2, 2535, Control_c, 0, 11, 83
2, 2536, Control_c, 0, 11, 84
2, 2537, Control_c, 0, 11, 86
2, 2540, Control_c, 0, 11, 92
2, 2542, Control_c, 0, 11, 94
2, 2543, Control_c, 0, 11, 96
2, 2545, Control_c, 0, 11, 102
2, 2547, Control_c, 0, 11, 103
2, 2548, Control_c, 0, 11, 105
2, 2551, Control_c, 0, 11, 107
2, 2553, Control_c, 0, 11, 113
2, 2555, Control_c, 0, 11, 115
2, 2557, Control_c, 0, 11, 117
2, 2560, Control_c, 0, 11, 123
2, 2562, Control_c, 0, 11, 124
2, 2568, Control_c, 0, 11, 127
2, 2640, Control_c, 0, 11, 126
2, 2643, Control_c, 0, 11, 125
2, 2645, Control_c, 0, 11, 124
2, 2647, Control_c, 0, 11, 123
2, 2656, Control_c, 0, 11, 122
2, 2657, Control_c, 0, 11, 121
2, 2658, Control_c, 0, 11, 119
2, 2665, Control_c, 0, 11, 117
2, 2667, Control_c, 0, 11, 113
2, 2668, Control_c, 0, 11, 111
2, 2670, Control_c, 0, 11, 109
2, 2671, Control_c, 0, 11, 107
2, 2672, Control_c, 0, 11, 104
2, 2673, Control_c, 0, 11, 103
2, 2674, Control_c, 0, 11, 101
2, 2676, Control_c, 0, 11, 99
2, 2677, Control_c, 0, 11, 97
2, 2678, Control_c, 0, 11, 95
2, 2680, Control_c, 0, 11, 94
2, 2681, Control_c, 0, 11, 91
2, 2700, Note_on_c, 0, 75, 81
2, 2700, Control_c, 0, 11, 72
2, 2701, Control_c, 0, 11, 75
2, 2702, Control_c, 0, 11, 80
2, 2703, Control_c, 0, 11, 84
2, 2704, Control_c, 0, 11, 88
2, 2705, Note_on_c, 0, 76, 0
2, 2705, Control_c, 0, 11, 91
2, 2706, Control_c, 0, 11, 94
2, 2707, Control_c, 0, 11, 98
2, 2708, Control_c, 0, 11, 100
2, 2710, Control_c, 0, 11, 102
2, 2711, Control_c, 0, 11, 104
2, 2712, Control_c, 0, 11, 106
2, 2713, Control_c, 0, 11, 111
2, 2714, Control_c, 0, 11, 113
2, 2715, Control_c, 0, 11, 115
2, 2716, Control_c, 0, 11, 117
2, 2717, Control_c, 0, 11, 118
2, 2718, Control_c, 0, 11, 120
2, 2720, Control_c, 0, 11, 120
2, 2722, Control_c, 0, 11, 123
2, 2723, Control_c, 0, 11, 124
2, 2724, Control_c, 0, 11, 125
2, 2725, Control_c, 0, 11, 126
2, 2726, Control_c, 0, 11, 127
2, 2760, Note_on_c, 0, 73, 81
2, 2760, Control_c, 0, 11, 67
2, 2761, Control_c, 0, 11, 72
2, 2762, Control_c, 0, 11, 86
2, 2763, Control_c, 0, 11, 94
2, 2764, Control_c, 0, 11, 101
2, 2765, Note_on_c, 0, 75, 0
2, 2765, Control_c, 0, 11, 111
2, 2766, Control_c, 0, 11, 114
2, 2767, Control_c, 0, 11, 117
2, 2768, Control_c, 0, 11, 119
2, 2770, Control_c, 0, 11, 120
2, 2771, Control_c, 0, 11, 121
2, 2772, Control_c, 0, 11, 122
2, 2773, Control_c, 0, 11, 123
2, 2774, Control_c, 0, 11, 124
2, 2776, Control_c, 0, 11, 126
2, 2778, Control_c, 0, 11, 127
2, 2875, Note_on_c, 0, 73, 0
2, 2880, Note_on_c, 0, 80, 81
2, 2880, Control_c, 0, 11, 65
2, 2881, Control_c, 0, 11, 69
2, 2882, Control_c, 0, 11, 82
2, 2883, Control_c, 0, 11, 88
2, 2884, Control_c, 0, 11, 94
2, 2885, Control_c, 0, 11, 98
2, 2886, Control_c, 0, 11, 102
2, 2887, Control_c, 0, 11, 105
2, 2888, Control_c, 0, 11, 109
2, 2890, Control_c, 0, 11, 112
2, 2891, Control_c, 0, 11, 116
2, 2892, Control_c, 0, 11, 118
2, 2893, Control_c, 0, 11, 120
2, 2894, Control_c, 0, 11, 121
2, 2895, Control_c, 0, 11, 123
2, 2896, Control_c, 0, 11, 125
2, 2897, Control_c, 0, 11, 126
2, 2900, Control_c, 0, 11, 127
2, 3000, Note_on_c, 0, 76, 81
2, 3000, Control_c, 0, 11, 71
2, 3001, Control_c, 0, 11, 78
2, 3002, Control_c, 0, 11, 83
2, 3003, Control_c, 0, 11, 91
2, 3004, Control_c, 0, 11, 93
2, 3005, Note_on_c, 0, 80, 0
2, 3005, Control_c, 0, 11, 97
2, 3006, Control_c, 0, 11, 101
2, 3007, Control_c, 0, 11, 104
2, 3008, Control_c, 0, 11, 106
2, 3011, Control_c, 0, 11, 114
2, 3012, Control_c, 0, 11, 116
2, 3013, Control_c, 0, 11, 118
2, 3015, Control_c, 0, 11, 121
2, 3016, Control_c, 0, 11, 123
2, 3018, Control_c, 0, 11, 125
2, 3022, Control_c, 0, 11, 126
2, 3120, Note_on_c, 0, 73, 81
2, 3120, Control_c, 0, 11, 66
2, 3122, Control_c, 0, 11, 69
2, 3123, Control_c, 0, 11, 71
2, 3124, Control_c, 0, 11, 73
2, 3125, Note_on_c, 0, 76, 0
2, 3125, Control_c, 0, 11, 76
2, 3126, Control_c, 0, 11, 79
2, 3127, Control_c, 0, 11, 83
2, 3128, Control_c, 0, 11, 86
2, 3130, Control_c, 0, 11, 90
2, 3131, Control_c, 0, 11, 92
2, 3132, Control_c, 0, 11, 96
2, 3133, Control_c, 0, 11, 97
2, 3134, Control_c, 0, 11, 98
2, 3135, Control_c, 0, 11, 99
2, 3136, Control_c, 0, 11, 102
2, 3137, Control_c, 0, 11, 103
2, 3138, Control_c, 0, 11, 104
2, 3140, Control_c, 0, 11, 105
2, 3141, Control_c, 0, 11, 107
2, 3142, Control_c, 0, 11, 108
2, 3143, Control_c, 0, 11, 109
2, 3145, Control_c, 0, 11, 111
2, 3146, Control_c, 0, 11, 112
2, 3147, Control_c, 0, 11, 113
2, 3148, Control_c, 0, 11, 114
2, 3150, Control_c, 0, 11, 115
2, 3151, Control_c, 0, 11, 116
2, 3152, Control_c, 0, 11, 117
2, 3153, Control_c, 0, 11, 118
2, 3154, Control_c, 0, 11, 120
2, 3155, Control_c, 0, 11, 121
2, 3156, Control_c, 0, 11, 122
2, 3157, Control_c, 0, 11, 123
2, 3158, Control_c, 0, 11, 124
2, 3160, Control_c, 0, 11, 125
2, 3161, Control_c, 0, 11, 126
2, 3162, Control_c, 0, 11, 127
2, 3240, Note_on_c, 0, 81, 81
2, 3240, Control_c, 0, 11, 65
2, 3241, Control_c, 0, 11, 67
2, 3242, Control_c, 0, 11, 69
2, 3243, Control_c, 0, 11, 72
2, 3244, Control_c, 0, 11, 74
2, 3245, Note_on_c, 0, 73, 0
2, 3245, Control_c, 0, 11, 77
2, 3246, Control_c, 0, 11, 79
2, 3247, Control_c, 0, 11, 81
2, 3248, Control_c, 0, 11, 84
2, 3250, Control_c, 0, 11, 86
2, 3251, Control_c, 0, 11, 88
2, 3252, Control_c, 0, 11, 90
2, 3253, Control_c, 0, 11, 92
2, 3254, Control_c, 0, 11, 94
2, 3255, Control_c, 0, 11, 95
2, 3256, Control_c, 0, 11, 96
2, 3257, Control_c, 0, 11, 99
2, 3258, Control_c, 0, 11, 101
2, 3260, Control_c, 0, 11, 102
2, 3261, Control_c, 0, 11, 104
2, 3263, Control_c, 0, 11, 106
2, 3264, Control_c, 0, 11, 108
2, 3265, Control_c, 0, 11, 109
2, 3266, Control_c, 0, 11, 111
2, 3267, Control_c, 0, 11, 112
2, 3268, Control_c, 0, 11, 113
2, 3270, Control_c, 0, 11, 114
2, 3271, Control_c, 0, 11, 115
2, 3272, Control_c, 0, 11, 116
2, 3273, Control_c, 0, 11, 117
2, 3274, Control_c, 0, 11, 119
2, 3276, Control_c, 0, 11, 120
2, 3277, Control_c, 0, 11, 121
2, 3280, Control_c, 0, 11, 122
2, 3281, Control_c, 0, 11, 123
2, 3282, Control_c, 0, 11, 124
2, 3284, Control_c, 0, 11, 125
2, 3285, Control_c, 0, 11, 126
2, 3288, Control_c, 0, 11, 127
2, 3601, Control_c, 0, 11, 126
2, 3602, Control_c, 0, 11, 125
2, 3604, Control_c, 0, 11, 124
2, 3605, Control_c, 0, 11, 123
2, 3613, Control_c, 0, 11, 122
2, 3628, Control_c, 0, 11, 121
2, 3631, Control_c, 0, 11, 120
2, 3642, Control_c, 0, 11, 119
2, 3650, Control_c, 0, 11, 118
2, 3652, Control_c, 0, 11, 117
2, 3662, Control_c, 0, 11, 116
2, 3676, Control_c, 0, 11, 115
2, 3681, Control_c, 0, 11, 114
2, 3695, Control_c, 0, 11, 113
2, 3700, Control_c, 0, 11, 112
2, 3703, Control_c, 0, 11, 111
2, 3706, Control_c, 0, 11, 109
2, 3708, Control_c, 0, 11, 108
2, 3710, Control_c, 0, 11, 106
2, 3712, Control_c, 0, 11, 104
2, 3714, Control_c, 0, 11, 102
2, 3715, Note_on_c, 0, 81, 0
2, 3715, Control_c, 0, 11, 97
2, 3716, Control_c, 0, 11, 99
2, 3720, Note_on_c, 0, 78, 81
2, 3720, Control_c, 0, 11, 65
2, 3721, Control_c, 0, 11, 67
2, 3722, Control_c, 0, 11, 69
2, 3723, Control_c, 0, 11, 70
2, 3724, Control_c, 0, 11, 72
2, 3726, Control_c, 0, 11, 74
2, 3728, Control_c, 0, 11, 77
2, 3730, Control_c, 0, 11, 78
2, 3731, Control_c, 0, 11, 80
2, 3732, Control_c, 0, 11, 82
2, 3733, Control_c, 0, 11, 84
2, 3734, Control_c, 0, 11, 86
2, 3735, Control_c, 0, 11, 89
2, 3737, Control_c, 0, 11, 91
2, 3738, Control_c, 0, 11, 92
2, 3740, Control_c, 0, 11, 93
2, 3741, Control_c, 0, 11, 95
2, 3742, Control_c, 0, 11, 96
2, 3743, Control_c, 0, 11, 97
2, 3744, Control_c, 0, 11, 99
2, 3745, Control_c, 0, 11, 100
2, 3746, Control_c, 0, 11, 102
2, 3747, Control_c, 0, 11, 104
2, 3748, Control_c, 0, 11, 105
2, 3750, Control_c, 0, 11, 106
2, 3751, Control_c, 0, 11, 108
2, 3752, Control_c, 0, 11, 109
2, 3753, Control_c, 0, 11, 111
2, 3754, Control_c, 0, 11, 113
2, 3755, Control_c, 0, 11, 115
2, 3756, Control_c, 0, 11, 116
2, 3757, Control_c, 0, 11, 117
2, 3758, Control_c, 0, 11, 118
2, 3760, Control_c, 0, 11, 120
2, 3761, Control_c, 0, 11, 121
2, 3762, Control_c, 0, 11, 122
2, 3763, Control_c, 0, 11, 123
2, 3764, Control_c, 0, 11, 124
2, 3765, Control_c, 0, 11, 125
2, 3766, Control_c, 0, 11, 126
2, 3768, Control_c, 0, 11, 127
2, 3840, Note_on_c, 0, 75, 81
2, 3840, Control_c, 0, 11, 66
2, 3841, Control_c, 0, 11, 69
2, 3842, Control_c, 0, 11, 78
2, 3843, Control_c, 0, 11, 82
2, 3844, Control_c, 0, 11, 89
2, 3845, Note_on_c, 0, 78, 0
2, 3845, Control_c, 0, 11, 91
2, 3846, Control_c, 0, 11, 95
2, 3847, Control_c, 0, 11, 99
2, 3848, Control_c, 0, 11, 101
2, 3850, Control_c, 0, 11, 107
2, 3851, Control_c, 0, 11, 113
2, 3852, Control_c, 0, 11, 115
2, 3853, Control_c, 0, 11, 118
2, 3854, Control_c, 0, 11, 119
2, 3855, Control_c, 0, 11, 121
2, 3856, Control_c, 0, 11, 123
2, 3857, Control_c, 0, 11, 125
2, 3858, Control_c, 0, 11, 126
2, 3861, Control_c, 0, 11, 127
2, 3960, Note_on_c, 0, 80, 81
2, 3960, Control_c, 0, 11, 65
2, 3961, Control_c, 0, 11, 69
2, 3962, Control_c, 0, 11, 71
2, 3963, Control_c, 0, 11, 73
2, 3964, Control_c, 0, 11, 74
2, 3965, Note_on_c, 0, 75, 0
2, 3965, Control_c, 0, 11, 76
2, 3966, Control_c, 0, 11, 77
2, 3967, Control_c, 0, 11, 79
2, 3968, Control_c, 0, 11, 81
2, 3970, Control_c, 0, 11, 82
2, 3971, Control_c, 0, 11, 83
2, 3972, Control_c, 0, 11, 85
2, 3973, Control_c, 0, 11, 86
2, 3974, Control_c, 0, 11, 88
2, 3975, Control_c, 0, 11, 89
2, 3976, Control_c, 0, 11, 90
2, 3977, Control_c, 0, 11, 91
2, 3978, Control_c, 0, 11, 93
2, 3981, Control_c, 0, 11, 95
2, 3982, Control_c, 0, 11, 97
2, 3983, Control_c, 0, 11, 98
2, 3984, Control_c, 0, 11, 99
2, 3986, Control_c, 0, 11, 101
2, 3987, Control_c, 0, 11, 103
2, 3990, Control_c, 0, 11, 104
2, 3992, Control_c, 0, 11, 106
2, 3993, Control_c, 0, 11, 108
2, 3994, Control_c, 0, 11, 109
2, 3995, Control_c, 0, 11, 110
2, 3996, Control_c, 0, 11, 111
2, 3997, Control_c, 0, 11, 112
2, 4004, Control_c, 0, 11, 114
2, 4005, Control_c, 0, 11, 116
2, 4006, Control_c, 0, 11, 117
2, 4008, Control_c, 0, 11, 118
2, 4011, Control_c, 0, 11, 119
2, 4012, Control_c, 0, 11, 120
2, 4013, Control_c, 0, 11, 121
2, 4015, Control_c, 0, 11, 122
2, 4020, Control_c, 0, 11, 123
2, 4021, Control_c, 0, 11, 124
2, 4023, Control_c, 0, 11, 125
2, 4024, Control_c, 0, 11, 126
2, 4031, Control_c, 0, 11, 127
2, 4321, Control_c, 0, 11, 126
2, 4322, Control_c, 0, 11, 125
2, 4325, Control_c, 0, 11, 124
2, 4328, Control_c, 0, 11, 123
2, 4347, Control_c, 0, 11, 122
2, 4372, Control_c, 0, 11, 120
2, 4387, Control_c, 0, 11, 119
2, 4400, Control_c, 0, 11, 118
2, 4403, Control_c, 0, 11, 117
2, 4418, Control_c, 0, 11, 116
2, 4421, Control_c, 0, 11, 115
2, 4425, Control_c, 0, 11, 111
2, 4426, Control_c, 0, 11, 109
2, 4427, Control_c, 0, 11, 108
2, 4428, Control_c, 0, 11, 106
2, 4430, Control_c, 0, 11, 102
2, 4431, Control_c, 0, 11, 100
2, 4432, Control_c, 0, 11, 94
2, 4433, Control_c, 0, 11, 89
2, 4434, Control_c, 0, 11, 88
2, 4435, Note_on_c, 0, 80, 0
2, 4440, Note_on_c, 0, 76, 81
2, 4440, Control_c, 0, 11, 71
2, 4441, Control_c, 0, 11, 74
2, 4442, Control_c, 0, 11, 78
2, 4443, Control_c, 0, 11, 80
2, 4444, Control_c, 0, 11, 85
2, 4445, Control_c, 0, 11, 87
2, 4446, Control_c, 0, 11, 90
2, 4447, Control_c, 0, 11, 92
2, 4448, Control_c, 0, 11, 94
2, 4450, Control_c, 0, 11, 96
2, 4451, Control_c, 0, 11, 97
2, 4452, Control_c, 0, 11, 100
2, 4453, Control_c, 0, 11, 102
2, 4454, Control_c, 0, 11, 104
2, 4455, Control_c, 0, 11, 105
2, 4456, Control_c, 0, 11, 107
2, 4457, Control_c, 0, 11, 108
2, 4458, Control_c, 0, 11, 110
2, 4460, Control_c, 0, 11, 111
2, 4461, Control_c, 0, 11, 113
2, 4462, Control_c, 0, 11, 115
2, 4464, Control_c, 0, 11, 117
2, 4466, Control_c, 0, 11, 119
2, 4467, Control_c, 0, 11, 120
2, 4468, Control_c, 0, 11, 121
2, 4470, Control_c, 0, 11, 122
2, 4471, Control_c, 0, 11, 123
2, 4472, Control_c, 0, 11, 124
2, 4474, Control_c, 0, 11, 125
2, 4477, Control_c, 0, 11, 126
2, 4481, Control_c, 0, 11, 127
2, 4560, Note_on_c, 0, 73, 81
2, 4560, Control_c, 0, 11, 65
2, 4561, Control_c, 0, 11, 66
2, 4562, Control_c, 0, 11, 67
2, 4563, Control_c, 0, 11, 69
2, 4564, Control_c, 0, 11, 74
2, 4565, Note_on_c, 0, 76, 0
2, 4565, Control_c, 0, 11, 78
2, 4566, Control_c, 0, 11, 81
2, 4567, Control_c, 0, 11, 83
2, 4568, Control_c, 0, 11, 85
2, 4570, Control_c, 0, 11, 88
2, 4571, Control_c, 0, 11, 91
2, 4572, Control_c, 0, 11, 93
2, 4573, Control_c, 0, 11, 95
2, 4574, Control_c, 0, 11, 96
2, 4575, Control_c, 0, 11, 97
2, 4576, Control_c, 0, 11, 98
2, 4577, Control_c, 0, 11, 100
2, 4578, Control_c, 0, 11, 101
2, 4580, Control_c, 0, 11, 102
2, 4582, Control_c, 0, 11, 105
2, 4583, Control_c, 0, 11, 106
2, 4584, Control_c, 0, 11, 107
2, 4585, Control_c, 0, 11, 109
2, 4586, Control_c, 0, 11, 111
2, 4587, Control_c, 0, 11, 112
2, 4588, Control_c, 0, 11, 113
2, 4591, Control_c, 0, 11, 114
2, 4592, Control_c, 0, 11, 115
2, 4593, Control_c, 0, 11, 117
2, 4594, Control_c, 0, 11, 118
2, 4595, Control_c, 0, 11, 119
2, 4597, Control_c, 0, 11, 120
2, 4598, Control_c, 0, 11, 121
2, 4600, Control_c, 0, 11, 122
2, 4601, Control_c, 0, 11, 123
2, 4602, Control_c, 0, 11, 124
2, 4605, Control_c, 0, 11, 126
2, 4606, Control_c, 0, 11, 127
2, 4680, Note_on_c, 0, 78, 81
2, 4680, Control_c, 0, 11, 65
2, 4681, Control_c, 0, 11, 66
2, 4682, Control_c, 0, 11, 67
2, 4683, Control_c, 0, 11, 71
2, 4684, Control_c, 0, 11, 74
2, 4685, Note_on_c, 0, 73, 0
2, 4685, Control_c, 0, 11, 79
2, 4686, Control_c, 0, 11, 83
2, 4687, Control_c, 0, 11, 87
2, 4688, Control_c, 0, 11, 90
2, 4690, Control_c, 0, 11, 94
2, 4691, Control_c, 0, 11, 97
2, 4692, Control_c, 0, 11, 100
2, 4693, Control_c, 0, 11, 103
2, 4694, Control_c, 0, 11, 108
2, 4695, Control_c, 0, 11, 110
2, 4696, Control_c, 0, 11, 112
2, 4697, Control_c, 0, 11, 114
2, 4698, Control_c, 0, 11, 116
2, 4700, Control_c, 0, 11, 118
2, 4701, Control_c, 0, 11, 121
2, 4703, Control_c, 0, 11, 122
2, 4704, Control_c, 0, 11, 123
2, 4705, Control_c, 0, 11, 124
2, 4706, Control_c, 0, 11, 125
2, 4707, Control_c, 0, 11, 126
2, 4710, Control_c, 0, 11, 127
2, 5108, Control_c, 0, 11, 126
2, 5122, Control_c, 0, 11, 125
2, 5126, Control_c, 0, 11, 124
2, 5130, Control_c, 0, 11, 123
2, 5133, Control_c, 0, 11, 122
2, 5138, Control_c, 0, 11, 121
2, 5142, Control_c, 0, 11, 120
2, 5145, Control_c, 0, 11, 118
2, 5148, Control_c, 0, 11, 116
2, 5151, Control_c, 0, 11, 115
2, 5152, Control_c, 0, 11, 114
2, 5153, Control_c, 0, 11, 112
2, 5155, Note_on_c, 0, 78, 0
2, 5155, Control_c, 0, 11, 110
2, 5157, Control_c, 0, 11, 108
2, 5158, Control_c, 0, 11, 104
2, 5160, Control_c, 0, 11, 66
2, 5160, Note_on_c, 0, 72, 81
2, 5162, Control_c, 0, 11, 74
2, 5163, Control_c, 0, 11, 92
2, 5164, Control_c, 0, 11, 100
2, 5165, Control_c, 0, 11, 104
2, 5166, Control_c, 0, 11, 106
2, 5167, Control_c, 0, 11, 111
2, 5168, Control_c, 0, 11, 113
2, 5170, Control_c, 0, 11, 115
2, 5171, Control_c, 0, 11, 117
2, 5172, Control_c, 0, 11, 119
2, 5173, Control_c, 0, 11, 120
2, 5174, Control_c, 0, 11, 122
2, 5175, Control_c, 0, 11, 123
2, 5176, Control_c, 0, 11, 125
2, 5177, Control_c, 0, 11, 126
2, 5280, Note_on_c, 0, 68, 81
2, 5280, Control_c, 0, 11, 64
2, 5281, Control_c, 0, 11, 65
2, 5282, Control_c, 0, 11, 68
2, 5283, Control_c, 0, 11, 72
2, 5284, Control_c, 0, 11, 77
2, 5285, Note_on_c, 0, 72, 0
2, 5285, Control_c, 0, 11, 83
2, 5286, Control_c, 0, 11, 89
2, 5287, Control_c, 0, 11, 95
2, 5288, Control_c, 0, 11, 98
2, 5290, Control_c, 0, 11, 102
2, 5291, Control_c, 0, 11, 105
2, 5292, Control_c, 0, 11, 107
2, 5293, Control_c, 0, 11, 111
2, 5294, Control_c, 0, 11, 113
2, 5295, Control_c, 0, 11, 115
2, 5296, Control_c, 0, 11, 116
2, 5297, Control_c, 0, 11, 119
2, 5298, Control_c, 0, 11, 120
2, 5300, Control_c, 0, 11, 122
2, 5301, Control_c, 0, 11, 123
2, 5302, Control_c, 0, 11, 124
2, 5303, Control_c, 0, 11, 125
2, 5304, Control_c, 0, 11, 127
2, 5400, Note_on_c, 0, 76, 81
2, 5400, Control_c, 0, 11, 66
2, 5401, Control_c, 0, 11, 72
2, 5402, Control_c, 0, 11, 78
2, 5403, Control_c, 0, 11, 86
2, 5404, Control_c, 0, 11, 92
2, 5405, Note_on_c, 0, 68, 0
2, 5405, Control_c, 0, 11, 98
2, 5406, Control_c, 0, 11, 102
2, 5407, Control_c, 0, 11, 107
2, 5408, Control_c, 0, 11, 108
2, 5410, Control_c, 0, 11, 112
2, 5411, Control_c, 0, 11, 114
2, 5412, Control_c, 0, 11, 117
2, 5414, Control_c, 0, 11, 120
2, 5415, Control_c, 0, 11, 121
2, 5416, Control_c, 0, 11, 122
2, 5417, Control_c, 0, 11, 124
2, 5418, Control_c, 0, 11, 126
2, 5420, Control_c, 0, 11, 127
2, 5520, Control_c, 0, 11, 97
2, 5520, Note_on_c, 0, 73, 81
2, 5522, Control_c, 0, 11, 101
2, 5523, Control_c, 0, 11, 105
2, 5524, Control_c, 0, 11, 109
2, 5525, Note_on_c, 0, 76, 0
2, 5525, Control_c, 0, 11, 113
2, 5526, Control_c, 0, 11, 117
2, 5527, Control_c, 0, 11, 118
2, 5528, Control_c, 0, 11, 119
2, 5530, Control_c, 0, 11, 122
2, 5532, Control_c, 0, 11, 123
2, 5534, Control_c, 0, 11, 124
2, 5535, Control_c, 0, 11, 125
2, 5537, Control_c, 0, 11, 126
2, 5640, Note_on_c, 0, 73, 0
2, 5640, Note_on_c, 0, 85, 81
2, 5640, Control_c, 0, 11, 68
2, 5641, Control_c, 0, 11, 80
2, 5642, Control_c, 0, 11, 93
2, 5643, Control_c, 0, 11, 100
2, 5644, Control_c, 0, 11, 107
2, 5645, Control_c, 0, 11, 112
2, 5646, Control_c, 0, 11, 115
2, 5647, Control_c, 0, 11, 116
2, 5648, Control_c, 0, 11, 119
2, 5650, Control_c, 0, 11, 120
2, 5651, Control_c, 0, 11, 121
2, 5653, Control_c, 0, 11, 123
2, 5654, Control_c, 0, 11, 124
2, 5655, Control_c, 0, 11, 125
2, 5657, Control_c, 0, 11, 126
2, 5660, Control_c, 0, 11, 127
2, 5760, Note_on_c, 0, 78, 81
2, 5760, Control_c, 0, 11, 67
2, 5761, Control_c, 0, 11, 73
2, 5762, Control_c, 0, 11, 91
2, 5763, Control_c, 0, 11, 100
2, 5764, Control_c, 0, 11, 107
2, 5765, Note_on_c, 0, 85, 0
2, 5765, Control_c, 0, 11, 111
2, 5766, Control_c, 0, 11, 115
2, 5767, Control_c, 0, 11, 119
2, 5768, Control_c, 0, 11, 120
2, 5770, Control_c, 0, 11, 122
2, 5772, Control_c, 0, 11, 123
2, 5773, Control_c, 0, 11, 125
2, 5774, Control_c, 0, 11, 126
2, 5775, Control_c, 0, 11, 127
2, 5880, Note_on_c, 0, 75, 81
2, 5880, Control_c, 0, 11, 66
2, 5881, Control_c, 0, 11, 83
2, 5882, Control_c, 0, 11, 101
2, 5883, Control_c, 0, 11, 107
2, 5884, Control_c, 0, 11, 109
2, 5885, Note_on_c, 0, 78, 0
2, 5885, Control_c, 0, 11, 112
2, 5886, Control_c, 0, 11, 114
2, 5887, Control_c, 0, 11, 115
2, 5890, Control_c, 0, 11, 117
2, 5891, Control_c, 0, 11, 118
2, 5892, Control_c, 0, 11, 119
2, 5893, Control_c, 0, 11, 120
2, 5895, Control_c, 0, 11, 121
2, 5902, Control_c, 0, 11, 123
2, 5903, Control_c, 0, 11, 126
2, 6000, Note_on_c, 0, 80, 81
2, 6000, Control_c, 0, 11, 72
2, 6001, Control_c, 0, 11, 79
2, 6002, Control_c, 0, 11, 97
2, 6003, Control_c, 0, 11, 101
2, 6004, Control_c, 0, 11, 108
2, 6005, Note_on_c, 0, 75, 0
2, 6005, Control_c, 0, 11, 112
2, 6006, Control_c, 0, 11, 115
2, 6008, Control_c, 0, 11, 119
2, 6010, Control_c, 0, 11, 121
2, 6011, Control_c, 0, 11, 123
2, 6012, Control_c, 0, 11, 124
2, 6014, Control_c, 0, 11, 125
2, 6015, Control_c, 0, 11, 126
2, 6017, Control_c, 0, 11, 127
2, 6120, Note_on_c, 0, 82, 81
2, 6120, Control_c, 0, 11, 65
2, 6121, Control_c, 0, 11, 69
2, 6122, Control_c, 0, 11, 79
2, 6123, Control_c, 0, 11, 95
2, 6124, Control_c, 0, 11, 106
2, 6125, Note_on_c, 0, 80, 0
2, 6125, Control_c, 0, 11, 111
2, 6126, Control_c, 0, 11, 117
2, 6127, Control_c, 0, 11, 120
2, 6128, Control_c, 0, 11, 123
2, 6130, Control_c, 0, 11, 124
2, 6131, Control_c, 0, 11, 125
2, 6133, Control_c, 0, 11, 127
2, 6238, Note_on_c, 0, 82, 0
2, 6239, Pitch_bend_c, 0, 16383
2, 6240, Note_on_c, 0, 78, 91
2, 6240, Control_c, 0, 11, 65
2, 6241, Control_c, 0, 11, 68
2, 6242, Control_c, 0, 11, 70
2, 6243, Control_c, 0, 11, 74
2, 6244, Control_c, 0, 11, 75
2, 6245, Control_c, 0, 11, 77
2, 6246, Control_c, 0, 11, 79
2, 6247, Control_c, 0, 11, 82
2, 6248, Control_c, 0, 11, 83
2, 6250, Pitch_bend_c, 0, 8192
2, 6250, Control_c, 0, 11, 86
2, 6251, Control_c, 0, 11, 88
2, 6252, Control_c, 0, 11, 90
2, 6253, Control_c, 0, 11, 92
2, 6254, Control_c, 0, 11, 94
2, 6255, Control_c, 0, 11, 96
2, 6256, Control_c, 0, 11, 97
2, 6257, Control_c, 0, 11, 99
2, 6258, Control_c, 0, 11, 100
2, 6260, Pitch_bend_c, 0, 16383
2, 6260, Control_c, 0, 11, 102
2, 6261, Control_c, 0, 11, 104
2, 6262, Control_c, 0, 11, 105
2, 6263, Control_c, 0, 11, 107
2, 6265, Control_c, 0, 11, 109
2, 6267, Control_c, 0, 11, 111
2, 6268, Control_c, 0, 11, 113
2, 6270, Pitch_bend_c, 0, 8192
2, 6270, Control_c, 0, 11, 115
2, 6271, Control_c, 0, 11, 116
2, 6272, Control_c, 0, 11, 117
2, 6274, Control_c, 0, 11, 123
2, 6276, Control_c, 0, 11, 125
2, 6277, Control_c, 0, 11, 126
2, 6278, Control_c, 0, 11, 127
2, 6280, Pitch_bend_c, 0, 16383
2, 6290, Pitch_bend_c, 0, 8192
2, 6300, Pitch_bend_c, 0, 16383
2, 6310, Pitch_bend_c, 0, 8192
2, 6320, Pitch_bend_c, 0, 16383
2, 6330, Pitch_bend_c, 0, 8192
2, 6340, Pitch_bend_c, 0, 16383
2, 6350, Pitch_bend_c, 0, 8192
2, 6360, Pitch_bend_c, 0, 16383
2, 6370, Pitch_bend_c, 0, 8192
2, 6380, Pitch_bend_c, 0, 16383
2, 6390, Pitch_bend_c, 0, 8192
2, 6400, Pitch_bend_c, 0, 16383
2, 6410, Pitch_bend_c, 0, 8192
2, 6420, Pitch_bend_c, 0, 16383
2, 6430, Pitch_bend_c, 0, 8192
2, 6435, Control_c, 0, 11, 127
2, 6436, Control_c, 0, 11, 126
2, 6440, Pitch_bend_c, 0, 16383
2, 6443, Control_c, 0, 11, 125
2, 6446, Control_c, 0, 11, 124
2, 6450, Pitch_bend_c, 0, 8192
2, 6450, Control_c, 0, 11, 123
2, 6453, Control_c, 0, 11, 122
2, 6455, Control_c, 0, 11, 121
2, 6457, Control_c, 0, 11, 120
2, 6460, Pitch_bend_c, 0, 16383
2, 6464, Control_c, 0, 11, 119
2, 6466, Control_c, 0, 11, 118
2, 6467, Control_c, 0, 11, 116
2, 6470, Pitch_bend_c, 0, 8192
2, 6474, Control_c, 0, 11, 108
2, 6476, Control_c, 0, 11, 94
2, 6477, Control_c, 0, 11, 86
2, 6480, Note_on_c, 0, 78, 0
2, 6480, Note_on_c, 0, 80, 81
2, 6480, Control_c, 0, 11, 65
2, 6481, Control_c, 0, 11, 71
2, 6482, Control_c, 0, 11, 79
2, 6483, Control_c, 0, 11, 96
2, 6484, Control_c, 0, 11, 101
2, 6485, Control_c, 0, 11, 105
2, 6486, Control_c, 0, 11, 108
2, 6487, Control_c, 0, 11, 111
2, 6488, Control_c, 0, 11, 114
2, 6490, Control_c, 0, 11, 116
2, 6491, Control_c, 0, 11, 119
2, 6492, Control_c, 0, 11, 121
2, 6493, Control_c, 0, 11, 123
2, 6494, Control_c, 0, 11, 124
2, 6496, Control_c, 0, 11, 125
2, 6497, Control_c, 0, 11, 127
2, 6722, Control_c, 0, 11, 126
2, 6800, Control_c, 0, 11, 125
2, 6803, Control_c, 0, 11, 124
2, 6814, Control_c, 0, 11, 123
2, 6816, Control_c, 0, 11, 122
2, 6818, Control_c, 0, 11, 121
2, 6821, Control_c, 0, 11, 120
2, 6823, Control_c, 0, 11, 119
2, 6826, Control_c, 0, 11, 113
2, 6828, Control_c, 0, 11, 109
2, 6830, Control_c, 0, 11, 107
2, 6831, Control_c, 0, 11, 101
2, 6832, Control_c, 0, 11, 98
2, 6833, Control_c, 0, 11, 96
2, 6835, Control_c, 0, 11, 86
2, 6837, Control_c, 0, 11, 79
2, 6838, Control_c, 0, 11, 80
2, 6840, Note_on_c, 0, 80, 0
2, 7200, Note_on_c, 0, 80, 81
2, 7200, Control_c, 0, 11, 66
2, 7201, Control_c, 0, 11, 73
2, 7202, Control_c, 0, 11, 90
2, 7203, Control_c, 0, 11, 96
2, 7204, Control_c, 0, 11, 101
2, 7205, Control_c, 0, 11, 104
2, 7206, Control_c, 0, 11, 109
2, 7207, Control_c, 0, 11, 115
2, 7208, Control_c, 0, 11, 118
2, 7210, Control_c, 0, 11, 119
2, 7211, Control_c, 0, 11, 120
2, 7212, Control_c, 0, 11, 122
2, 7213, Control_c, 0, 11, 123
2, 7215, Control_c, 0, 11, 124
2, 7216, Control_c, 0, 11, 125
2, 7220, Control_c, 0, 11, 126
2, 7222, Control_c, 0, 11, 127
2, 7278, Control_c, 0, 11, 123
2, 7280, Control_c, 0, 11, 121
2, 7282, Control_c, 0, 11, 119
2, 7284, Control_c, 0, 11, 117
2, 7286, Control_c, 0, 11, 116
2, 7288, Control_c, 0, 11, 115
2, 7292, Control_c, 0, 11, 114
2, 7294, Control_c, 0, 11, 113
2, 7301, Control_c, 0, 11, 111
2, 7307, Control_c, 0, 11, 110
2, 7308, Control_c, 0, 11, 109
2, 7311, Control_c, 0, 11, 108
2, 7312, Control_c, 0, 11, 107
2, 7313, Control_c, 0, 11, 105
2, 7315, Control_c, 0, 11, 104
2, 7320, Note_on_c, 0, 76, 81
2, 7325, Note_on_c, 0, 80, 0
2, 7325, Control_c, 0, 11, 105
2, 7341, Control_c, 0, 11, 106
2, 7347, Control_c, 0, 11, 107
2, 7350, Control_c, 0, 11, 108
2, 7352, Control_c, 0, 11, 109
2, 7355, Control_c, 0, 11, 110
2, 7357, Control_c, 0, 11, 111
2, 7358, Control_c, 0, 11, 112
2, 7361, Control_c, 0, 11, 113
2, 7363, Control_c, 0, 11, 114
2, 7364, Control_c, 0, 11, 115
2, 7365, Control_c, 0, 11, 116
2, 7367, Control_c, 0, 11, 117
2, 7375, Control_c, 0, 11, 118
2, 7376, Control_c, 0, 11, 119
2, 7381, Control_c, 0, 11, 120
2, 7385, Control_c, 0, 11, 121
2, 7404, Control_c, 0, 11, 120
2, 7414, Control_c, 0, 11, 119
2, 7416, Control_c, 0, 11, 118
2, 7418, Control_c, 0, 11, 117
2, 7420, Control_c, 0, 11, 116
2, 7422, Control_c, 0, 11, 114
2, 7424, Control_c, 0, 11, 113
2, 7425, Control_c, 0, 11, 112
2, 7427, Control_c, 0, 11, 110
2, 7430, Control_c, 0, 11, 108
2, 7431, Control_c, 0, 11, 106
2, 7432, Control_c, 0, 11, 104
2, 7433, Control_c, 0, 11, 103
2, 7440, Note_on_c, 0, 73, 81
2, 7440, Control_c, 0, 11, 65
2, 7441, Control_c, 0, 11, 68
2, 7442, Control_c, 0, 11, 78
2, 7443, Control_c, 0, 11, 82
2, 7444, Control_c, 0, 11, 88
2, 7445, Note_on_c, 0, 76, 0
2, 7445, Control_c, 0, 11, 92
2, 7446, Control_c, 0, 11, 98
2, 7447, Control_c, 0, 11, 101
2, 7448, Control_c, 0, 11, 104
2, 7450, Control_c, 0, 11, 106
2, 7451, Control_c, 0, 11, 109
2, 7452, Control_c, 0, 11, 111
2, 7453, Control_c, 0, 11, 112
2, 7454, Control_c, 0, 11, 114
2, 7455, Control_c, 0, 11, 116
2, 7456, Control_c, 0, 11, 117
2, 7457, Control_c, 0, 11, 118
2, 7458, Control_c, 0, 11, 119
2, 7461, Control_c, 0, 11, 120
2, 7462, Control_c, 0, 11, 122
2, 7464, Control_c, 0, 11, 124
2, 7465, Control_c, 0, 11, 125
2, 7468, Control_c, 0, 11, 126
2, 7472, Control_c, 0, 11, 127
2, 7560, Note_on_c, 0, 73, 0
2, 7560, Note_on_c, 0, 80, 81
2, 7560, Control_c, 0, 11, 81
2, 7561, Control_c, 0, 11, 91
2, 7562, Control_c, 0, 11, 98
2, 7563, Control_c, 0, 11, 106
2, 7564, Control_c, 0, 11, 109
2, 7565, Control_c, 0, 11, 114
2, 7566, Control_c, 0, 11, 115
2, 7567, Control_c, 0, 11, 118
2, 7568, Control_c, 0, 11, 119
2, 7570, Control_c, 0, 11, 120
2, 7571, Control_c, 0, 11, 121
2, 7572, Control_c, 0, 11, 123
2, 7573, Control_c, 0, 11, 124
2, 7575, Control_c, 0, 11, 125
2, 7577, Control_c, 0, 11, 126
2, 7578, Control_c, 0, 11, 127
2, 7620, Note_on_c, 0, 78, 81
2, 7620, Control_c, 0, 11, 68
2, 7621, Control_c, 0, 11, 72
2, 7622, Control_c, 0, 11, 77
2, 7623, Control_c, 0, 11, 83
2, 7624, Control_c, 0, 11, 89
2, 7625, Note_on_c, 0, 80, 0
2, 7625, Control_c, 0, 11, 95
2, 7626, Control_c, 0, 11, 98
2, 7627, Control_c, 0, 11, 103
2, 7628, Control_c, 0, 11, 109
2, 7630, Control_c, 0, 11, 113
2, 7631, Control_c, 0, 11, 115
2, 7632, Control_c, 0, 11, 117
2, 7633, Control_c, 0, 11, 120
2, 7634, Control_c, 0, 11, 121
2, 7635, Control_c, 0, 11, 123
2, 7636, Control_c, 0, 11, 124
2, 7637, Control_c, 0, 11, 126
2, 7680, Note_on_c, 0, 80, 81
2, 7680, Control_c, 0, 11, 65
2, 7681, Control_c, 0, 11, 75
2, 7682, Control_c, 0, 11, 89
2, 7683, Control_c, 0, 11, 103
2, 7684, Control_c, 0, 11, 111
2, 7685, Note_on_c, 0, 78, 0
2, 7685, Control_c, 0, 11, 114
2, 7686, Control_c, 0, 11, 116
2, 7687, Control_c, 0, 11, 118
2, 7690, Control_c, 0, 11, 119
2, 7691, Control_c, 0, 11, 121
2, 7693, Control_c, 0, 11, 122
2, 7694, Control_c, 0, 11, 124
2, 7695, Control_c, 0, 11, 125
2, 7696, Control_c, 0, 11, 126
2, 7697, Control_c, 0, 11, 127
2, 7870, Control_c, 0, 11, 127
2, 7881, Control_c, 0, 11, 126
2, 7886, Control_c, 0, 11, 125
2, 7888, Control_c, 0, 11, 124
2, 7891, Control_c, 0, 11, 123
2, 7893, Control_c, 0, 11, 121
2, 7896, Control_c, 0, 11, 120
2, 7897, Control_c, 0, 11, 119
2, 7898, Control_c, 0, 11, 118
2, 7901, Control_c, 0, 11, 117
2, 7902, Control_c, 0, 11, 116
2, 7903, Control_c, 0, 11, 115
2, 7904, Control_c, 0, 11, 114
2, 7905, Control_c, 0, 11, 113
2, 7906, Control_c, 0, 11, 112
2, 7907, Control_c, 0, 11, 111
2, 7910, Control_c, 0, 11, 109
2, 7912, Control_c, 0, 11, 108
2, 7914, Control_c, 0, 11, 106
2, 7916, Control_c, 0, 11, 98
2, 7917, Control_c, 0, 11, 95
2, 7920, Note_on_c, 0, 80, 0
2, 7920, Note_on_c, 0, 72, 81
2, 7920, Control_c, 0, 11, 69
2, 7921, Control_c, 0, 11, 78
2, 7922, Control_c, 0, 11, 81
2, 7923, Control_c, 0, 11, 89
2, 7924, Control_c, 0, 11, 95
2, 7925, Control_c, 0, 11, 99
2, 7926, Control_c, 0, 11, 103
2, 7927, Control_c, 0, 11, 107
2, 7928, Control_c, 0, 11, 109
2, 7930, Control_c, 0, 11, 111
2, 7931, Control_c, 0, 11, 117
2, 7932, Control_c, 0, 11, 119
2, 7933, Control_c, 0, 11, 121
2, 7934, Control_c, 0, 11, 122
2, 7935, Control_c, 0, 11, 123
2, 7937, Control_c, 0, 11, 124
2, 7940, Control_c, 0, 11, 125
2, 7943, Control_c, 0, 11, 126
2, 7944, Control_c, 0, 11, 127
2, 8040, Control_c, 0, 11, 67
2, 8040, Note_on_c, 0, 75, 81
2, 8042, Control_c, 0, 11, 93
2, 8043, Control_c, 0, 11, 100
2, 8044, Control_c, 0, 11, 109
2, 8045, Note_on_c, 0, 72, 0
2, 8046, Control_c, 0, 11, 113
2, 8047, Control_c, 0, 11, 115
2, 8048, Control_c, 0, 11, 117
2, 8051, Control_c, 0, 11, 119
2, 8052, Control_c, 0, 11, 125
2, 8053, Control_c, 0, 11, 127
2, 8160, Note_on_c, 0, 80, 81
2, 8160, Control_c, 0, 11, 70
2, 8161, Control_c, 0, 11, 79
2, 8162, Control_c, 0, 11, 89
2, 8163, Control_c, 0, 11, 96
2, 8164, Control_c, 0, 11, 100
2, 8165, Note_on_c, 0, 75, 0
2, 8165, Control_c, 0, 11, 103
2, 8166, Control_c, 0, 11, 107
2, 8167, Control_c, 0, 11, 110
2, 8168, Control_c, 0, 11, 113
2, 8170, Control_c, 0, 11, 115
2, 8171, Control_c, 0, 11, 118
2, 8172, Control_c, 0, 11, 119
2, 8173, Control_c, 0, 11, 121
2, 8174, Control_c, 0, 11, 122
2, 8176, Control_c, 0, 11, 124
2, 8180, Control_c, 0, 11, 125
2, 8181, Control_c, 0, 11, 126
2, 8182, Control_c, 0, 11, 127
2, 8280, Note_on_c, 0, 76, 81
2, 8280, Control_c, 0, 11, 68
2, 8281, Control_c, 0, 11, 82
2, 8282, Control_c, 0, 11, 90
2, 8283, Control_c, 0, 11, 96
2, 8284, Control_c, 0, 11, 104
2, 8285, Note_on_c, 0, 80, 0
2, 8285, Control_c, 0, 11, 109
2, 8286, Control_c, 0, 11, 119
2, 8287, Control_c, 0, 11, 121
2, 8288, Control_c, 0, 11, 122
2, 8290, Control_c, 0, 11, 124
2, 8291, Control_c, 0, 11, 126
2, 8292, Control_c, 0, 11, 127
2, 8460, Note_on_c, 0, 75, 81
2, 8460, Control_c, 0, 11, 65
2, 8461, Control_c, 0, 11, 85
2, 8462, Control_c, 0, 11, 95
2, 8463, Control_c, 0, 11, 104
2, 8464, Control_c, 0, 11, 107
2, 8465, Note_on_c, 0, 76, 0
2, 8465, Control_c, 0, 11, 116
2, 8466, Control_c, 0, 11, 119
2, 8467, Control_c, 0, 11, 121
2, 8468, Control_c, 0, 11, 124
2, 8470, Control_c, 0, 11, 125
2, 8471, Control_c, 0, 11, 127
2, 8520, Control_c, 0, 11, 77
2, 8520, Note_on_c, 0, 73, 81
2, 8522, Control_c, 0, 11, 85
2, 8523, Control_c, 0, 11, 100
2, 8524, Control_c, 0, 11, 102
2, 8525, Note_on_c, 0, 75, 0
2, 8525, Control_c, 0, 11, 109
2, 8526, Control_c, 0, 11, 113
2, 8527, Control_c, 0, 11, 118
2, 8528, Control_c, 0, 11, 120
2, 8530, Control_c, 0, 11, 123
2, 8531, Control_c, 0, 11, 124
2, 8532, Control_c, 0, 11, 125
2, 8534, Control_c, 0, 11, 126
2, 8535, Control_c, 0, 11, 127
2, 8640, Note_on_c, 0, 73, 0
2, 8640, Note_on_c, 0, 80, 81
2, 8640, Control_c, 0, 11, 65
2, 8641, Control_c, 0, 11, 66
2, 8642, Control_c, 0, 11, 68
2, 8643, Control_c, 0, 11, 71
2, 8644, Control_c, 0, 11, 73
2, 8645, Control_c, 0, 11, 75
2, 8646, Control_c, 0, 11, 76
2, 8647, Control_c, 0, 11, 78
2, 8650, Control_c, 0, 11, 79
2, 8651, Control_c, 0, 11, 80
2, 8652, Control_c, 0, 11, 82
2, 8653, Control_c, 0, 11, 83
2, 8654, Control_c, 0, 11, 84
2, 8655, Control_c, 0, 11, 86
2, 8656, Control_c, 0, 11, 87
2, 8657, Control_c, 0, 11, 89
2, 8658, Control_c, 0, 11, 90
2, 8660, Control_c, 0, 11, 92
2, 8661, Control_c, 0, 11, 93
2, 8662, Control_c, 0, 11, 94
2, 8663, Control_c, 0, 11, 95
2, 8665, Control_c, 0, 11, 98
2, 8667, Control_c, 0, 11, 99
2, 8668, Control_c, 0, 11, 100
2, 8670, Control_c, 0, 11, 101
2, 8671, Control_c, 0, 11, 102
2, 8672, Control_c, 0, 11, 103
2, 8674, Control_c, 0, 11, 105
2, 8675, Control_c, 0, 11, 106
2, 8676, Control_c, 0, 11, 107
2, 8678, Control_c, 0, 11, 108
2, 8681, Control_c, 0, 11, 110
2, 8682, Control_c, 0, 11, 111
2, 8683, Control_c, 0, 11, 112
2, 8684, Control_c, 0, 11, 113
2, 8685, Control_c, 0, 11, 114
2, 8686, Control_c, 0, 11, 115
2, 8687, Control_c, 0, 11, 116
2, 8688, Control_c, 0, 11, 117
2, 8690, Control_c, 0, 11, 118
2, 8691, Control_c, 0, 11, 119
2, 8692, Control_c, 0, 11, 120
2, 8693, Control_c, 0, 11, 121
2, 8695, Control_c, 0, 11, 122
2, 8696, Control_c, 0, 11, 123
2, 8697, Control_c, 0, 11, 124
2, 8698, Control_c, 0, 11, 125
2, 8701, Control_c, 0, 11, 126
2, 8702, Control_c, 0, 11, 127
2, 8760, Note_on_c, 0, 76, 81
2, 8760, Control_c, 0, 11, 64
2, 8761, Control_c, 0, 11, 66
2, 8762, Control_c, 0, 11, 68
2, 8763, Control_c, 0, 11, 70
2, 8764, Control_c, 0, 11, 71
2, 8765, Note_on_c, 0, 80, 0
2, 8765, Control_c, 0, 11, 72
2, 8766, Control_c, 0, 11, 73
2, 8767, Control_c, 0, 11, 76
2, 8770, Control_c, 0, 11, 77
2, 8771, Control_c, 0, 11, 79
2, 8772, Control_c, 0, 11, 82
2, 8773, Control_c, 0, 11, 83
2, 8774, Control_c, 0, 11, 85
2, 8776, Control_c, 0, 11, 89
2, 8777, Control_c, 0, 11, 90
2, 8778, Control_c, 0, 11, 92
2, 8781, Control_c, 0, 11, 95
2, 8783, Control_c, 0, 11, 98
2, 8784, Control_c, 0, 11, 100
2, 8785, Control_c, 0, 11, 101
2, 8786, Control_c, 0, 11, 102
2, 8787, Control_c, 0, 11, 104
2, 8788, Control_c, 0, 11, 106
2, 8790, Control_c, 0, 11, 107
2, 8791, Control_c, 0, 11, 108
2, 8792, Control_c, 0, 11, 110
2, 8793, Control_c, 0, 11, 111
2, 8794, Control_c, 0, 11, 113
2, 8795, Control_c, 0, 11, 114
2, 8796, Control_c, 0, 11, 116
2, 8797, Control_c, 0, 11, 117
2, 8798, Control_c, 0, 11, 118
2, 8800, Control_c, 0, 11, 119
2, 8801, Control_c, 0, 11, 120
2, 8802, Control_c, 0, 11, 121
2, 8803, Control_c, 0, 11, 123
2, 8805, Control_c, 0, 11, 124
2, 8806, Control_c, 0, 11, 125
2, 8807, Control_c, 0, 11, 126
2, 8880, Note_on_c, 0, 73, 81
2, 8880, Control_c, 0, 11, 64
2, 8881, Control_c, 0, 11, 65
2, 8882, Control_c, 0, 11, 67
2, 8883, Control_c, 0, 11, 70
2, 8884, Control_c, 0, 11, 73
2, 8885, Note_on_c, 0, 76, 0
2, 8885, Control_c, 0, 11, 76
2, 8886, Control_c, 0, 11, 79
2, 8887, Control_c, 0, 11, 81
2, 8888, Control_c, 0, 11, 83
2, 8890, Control_c, 0, 11, 85
2, 8891, Control_c, 0, 11, 88
2, 8892, Control_c, 0, 11, 89
2, 8893, Control_c, 0, 11, 92
2, 8894, Control_c, 0, 11, 93
2, 8895, Control_c, 0, 11, 94
2, 8896, Control_c, 0, 11, 96
2, 8897, Control_c, 0, 11, 98
2, 8898, Control_c, 0, 11, 100
2, 8900, Control_c, 0, 11, 101
2, 8901, Control_c, 0, 11, 103
2, 8902, Control_c, 0, 11, 105
2, 8903, Control_c, 0, 11, 106
2, 8904, Control_c, 0, 11, 108
2, 8905, Control_c, 0, 11, 110
2, 8906, Control_c, 0, 11, 111
2, 8907, Control_c, 0, 11, 112
2, 8908, Control_c, 0, 11, 114
2, 8910, Control_c, 0, 11, 115
2, 8911, Control_c, 0, 11, 117
2, 8912, Control_c, 0, 11, 119
2, 8913, Control_c, 0, 11, 121
2, 8914, Control_c, 0, 11, 122
2, 8915, Control_c, 0, 11, 123
2, 8917, Control_c, 0, 11, 125
2, 8918, Control_c, 0, 11, 126
2, 8921, Control_c, 0, 11, 127
2, 9000, Note_on_c, 0, 81, 81
2, 9000, Control_c, 0, 11, 65
2, 9001, Control_c, 0, 11, 66
2, 9002, Control_c, 0, 11, 67
2, 9003, Control_c, 0, 11, 68
2, 9004, Control_c, 0, 11, 69
2, 9005, Note_on_c, 0, 73, 0
2, 9005, Control_c, 0, 11, 71
2, 9006, Control_c, 0, 11, 74
2, 9007, Control_c, 0, 11, 75
2, 9008, Control_c, 0, 11, 77
2, 9010, Control_c, 0, 11, 78
2, 9011, Control_c, 0, 11, 80
2, 9012, Control_c, 0, 11, 81
2, 9013, Control_c, 0, 11, 84
2, 9014, Control_c, 0, 11, 85
2, 9015, Control_c, 0, 11, 86
2, 9016, Control_c, 0, 11, 88
2, 9017, Control_c, 0, 11, 90
2, 9020, Control_c, 0, 11, 93
2, 9022, Control_c, 0, 11, 95
2, 9024, Control_c, 0, 11, 101
2, 9025, Control_c, 0, 11, 103
2, 9026, Control_c, 0, 11, 105
2, 9028, Control_c, 0, 11, 106
2, 9030, Control_c, 0, 11, 107
2, 9031, Control_c, 0, 11, 109
2, 9033, Control_c, 0, 11, 111
2, 9035, Control_c, 0, 11, 113
2, 9037, Control_c, 0, 11, 115
2, 9040, Control_c, 0, 11, 117
2, 9042, Control_c, 0, 11, 119
2, 9043, Control_c, 0, 11, 120
2, 9044, Control_c, 0, 11, 121
2, 9046, Control_c, 0, 11, 122
2, 9047, Control_c, 0, 11, 123
2, 9050, Control_c, 0, 11, 124
2, 9056, Control_c, 0, 11, 125
2, 9057, Control_c, 0, 11, 127
2, 9060, Note_on_c, 0, 80, 81
2, 9060, Control_c, 0, 11, 65
2, 9061, Control_c, 0, 11, 68
2, 9062, Control_c, 0, 11, 73
2, 9063, Control_c, 0, 11, 79
2, 9064, Control_c, 0, 11, 84
2, 9065, Note_on_c, 0, 81, 0
2, 9065, Control_c, 0, 11, 90
2, 9066, Control_c, 0, 11, 95
2, 9067, Control_c, 0, 11, 100
2, 9068, Control_c, 0, 11, 104
2, 9070, Control_c, 0, 11, 107
2, 9071, Control_c, 0, 11, 110
2, 9072, Control_c, 0, 11, 113
2, 9073, Control_c, 0, 11, 115
2, 9074, Control_c, 0, 11, 117
2, 9075, Control_c, 0, 11, 119
2, 9076, Control_c, 0, 11, 120
2, 9077, Control_c, 0, 11, 122
2, 9078, Control_c, 0, 11, 127
2, 9120, Note_on_c, 0, 81, 81
2, 9120, Control_c, 0, 11, 66
2, 9121, Control_c, 0, 11, 67
2, 9122, Control_c, 0, 11, 69
2, 9123, Control_c, 0, 11, 70
2, 9124, Control_c, 0, 11, 71
2, 9125, Note_on_c, 0, 80, 0
2, 9125, Control_c, 0, 11, 74
2, 9126, Control_c, 0, 11, 76
2, 9127, Control_c, 0, 11, 82
2, 9128, Control_c, 0, 11, 83
2, 9130, Control_c, 0, 11, 85
2, 9131, Control_c, 0, 11, 87
2, 9132, Control_c, 0, 11, 89
2, 9134, Control_c, 0, 11, 90
2, 9135, Control_c, 0, 11, 91
2, 9136, Control_c, 0, 11, 93
2, 9137, Control_c, 0, 11, 94
2, 9138, Control_c, 0, 11, 96
2, 9140, Control_c, 0, 11, 97
2, 9141, Control_c, 0, 11, 98
2, 9143, Control_c, 0, 11, 101
2, 9145, Control_c, 0, 11, 103
2, 9147, Control_c, 0, 11, 104
2, 9148, Control_c, 0, 11, 105
2, 9150, Control_c, 0, 11, 106
2, 9152, Control_c, 0, 11, 109
2, 9153, Control_c, 0, 11, 110
2, 9154, Control_c, 0, 11, 111
2, 9156, Control_c, 0, 11, 113
2, 9158, Control_c, 0, 11, 115
2, 9160, Control_c, 0, 11, 117
2, 9162, Control_c, 0, 11, 120
2, 9163, Control_c, 0, 11, 121
2, 9164, Control_c, 0, 11, 122
2, 9165, Control_c, 0, 11, 123
2, 9166, Control_c, 0, 11, 125
2, 9168, Control_c, 0, 11, 126
2, 9414, Control_c, 0, 11, 126
2, 9426, Control_c, 0, 11, 125
2, 9433, Control_c, 0, 11, 124
2, 9436, Control_c, 0, 11, 123
2, 9438, Control_c, 0, 11, 122
2, 9446, Control_c, 0, 11, 121
2, 9453, Control_c, 0, 11, 120
2, 9454, Control_c, 0, 11, 119
2, 9456, Control_c, 0, 11, 118
2, 9458, Control_c, 0, 11, 117
2, 9465, Control_c, 0, 11, 115
2, 9466, Control_c, 0, 11, 114
2, 9467, Control_c, 0, 11, 113
2, 9468, Control_c, 0, 11, 111
2, 9471, Control_c, 0, 11, 109
2, 9472, Control_c, 0, 11, 107
2, 9473, Control_c, 0, 11, 105
2, 9474, Control_c, 0, 11, 103
2, 9475, Control_c, 0, 11, 99
2, 9476, Control_c, 0, 11, 91
2, 9480, Note_on_c, 0, 81, 0
2, 9480, Control_c, 0, 11, 65
2, 9480, Note_on_c, 0, 78, 81
2, 9483, Control_c, 0, 11, 66
2, 9484, Control_c, 0, 11, 68
2, 9486, Control_c, 0, 11, 74
2, 9487, Control_c, 0, 11, 76
2, 9488, Control_c, 0, 11, 79
2, 9490, Control_c, 0, 11, 81
2, 9492, Control_c, 0, 11, 83
2, 9493, Control_c, 0, 11, 85
2, 9494, Control_c, 0, 11, 91
2, 9501, Control_c, 0, 11, 99
2, 9502, Control_c, 0, 11, 101
2, 9503, Control_c, 0, 11, 102
2, 9504, Control_c, 0, 11, 104
2, 9506, Control_c, 0, 11, 110
2, 9508, Control_c, 0, 11, 116
2, 9511, Control_c, 0, 11, 118
2, 9512, Control_c, 0, 11, 120
2, 9514, Control_c, 0, 11, 122
2, 9516, Control_c, 0, 11, 123
2, 9518, Control_c, 0, 11, 124
2, 9520, Control_c, 0, 11, 125
2, 9521, Control_c, 0, 11, 126
2, 9600, Control_c, 0, 11, 66
2, 9600, Note_on_c, 0, 75, 81
2, 9602, Control_c, 0, 11, 69
2, 9603, Control_c, 0, 11, 70
2, 9604, Control_c, 0, 11, 73
2, 9605, Note_on_c, 0, 78, 0
2, 9605, Control_c, 0, 11, 76
2, 9606, Control_c, 0, 11, 83
2, 9607, Control_c, 0, 11, 87
2, 9608, Control_c, 0, 11, 90
2, 9610, Control_c, 0, 11, 92
2, 9611, Control_c, 0, 11, 100
2, 9612, Control_c, 0, 11, 103
2, 9613, Control_c, 0, 11, 105
2, 9614, Control_c, 0, 11, 107
2, 9615, Control_c, 0, 11, 110
2, 9616, Control_c, 0, 11, 111
2, 9618, Control_c, 0, 11, 117
2, 9620, Control_c, 0, 11, 119
2, 9621, Control_c, 0, 11, 121
2, 9623, Control_c, 0, 11, 122
2, 9627, Control_c, 0, 11, 124
2, 9628, Control_c, 0, 11, 125
2, 9630, Control_c, 0, 11, 126
2, 9720, Control_c, 0, 11, 67
2, 9720, Note_on_c, 0, 84, 81
2, 9722, Control_c, 0, 11, 69
2, 9723, Control_c, 0, 11, 71
2, 9724, Control_c, 0, 11, 74
2, 9725, Note_on_c, 0, 75, 0
2, 9725, Control_c, 0, 11, 77
2, 9727, Control_c, 0, 11, 83
2, 9728, Control_c, 0, 11, 89
2, 9730, Control_c, 0, 11, 95
2, 9731, Control_c, 0, 11, 99
2, 9732, Control_c, 0, 11, 101
2, 9733, Control_c, 0, 11, 103
2, 9734, Control_c, 0, 11, 104
2, 9735, Control_c, 0, 11, 106
2, 9736, Control_c, 0, 11, 112
2, 9738, Control_c, 0, 11, 114
2, 9740, Control_c, 0, 11, 116
2, 9741, Control_c, 0, 11, 118
2, 9743, Control_c, 0, 11, 119
2, 9744, Control_c, 0, 11, 120
2, 9746, Control_c, 0, 11, 122
2, 9747, Control_c, 0, 11, 124
2, 9750, Control_c, 0, 11, 126
2, 9751, Control_c, 0, 11, 127
2, 9780, Note_on_c, 0, 82, 81
2, 9780, Control_c, 0, 11, 65
2, 9781, Control_c, 0, 11, 67
2, 9782, Control_c, 0, 11, 68
2, 9783, Control_c, 0, 11, 71
2, 9784, Control_c, 0, 11, 75
2, 9785, Note_on_c, 0, 84, 0
2, 9785, Control_c, 0, 11, 80
2, 9786, Control_c, 0, 11, 85
2, 9787, Control_c, 0, 11, 90
2, 9788, Control_c, 0, 11, 97
2, 9790, Control_c, 0, 11, 103
2, 9791, Control_c, 0, 11, 108
2, 9792, Control_c, 0, 11, 114
2, 9793, Control_c, 0, 11, 123
2, 9794, Control_c, 0, 11, 124
2, 9795, Control_c, 0, 11, 125
2, 9796, Control_c, 0, 11, 127
2, 9840, Note_on_c, 0, 84, 81
2, 9840, Control_c, 0, 11, 65
2, 9841, Control_c, 0, 11, 67
2, 9843, Control_c, 0, 11, 70
2, 9844, Control_c, 0, 11, 71
2, 9845, Note_on_c, 0, 82, 0
2, 9845, Control_c, 0, 11, 73
2, 9846, Control_c, 0, 11, 74
2, 9847, Control_c, 0, 11, 76
2, 9850, Control_c, 0, 11, 78
2, 9851, Control_c, 0, 11, 79
2, 9852, Control_c, 0, 11, 81
2, 9854, Control_c, 0, 11, 83
2, 9855, Control_c, 0, 11, 85
2, 9856, Control_c, 0, 11, 86
2, 9857, Control_c, 0, 11, 88
2, 9858, Control_c, 0, 11, 89
2, 9860, Control_c, 0, 11, 91
2, 9861, Control_c, 0, 11, 93
2, 9862, Control_c, 0, 11, 94
2, 9863, Control_c, 0, 11, 96
2, 9864, Control_c, 0, 11, 97
2, 9865, Control_c, 0, 11, 98
2, 9867, Control_c, 0, 11, 104
2, 9868, Control_c, 0, 11, 105
2, 9870, Control_c, 0, 11, 111
2, 9872, Control_c, 0, 11, 113
2, 9873, Control_c, 0, 11, 114
2, 9874, Control_c, 0, 11, 116
2, 9875, Control_c, 0, 11, 117
2, 9876, Control_c, 0, 11, 118
2, 9877, Control_c, 0, 11, 119
2, 9878, Control_c, 0, 11, 120
2, 9880, Control_c, 0, 11, 121
2, 9881, Control_c, 0, 11, 122
2, 9882, Control_c, 0, 11, 123
2, 9884, Control_c, 0, 11, 125
2, 9885, Control_c, 0, 11, 126
2, 9887, Control_c, 0, 11, 127
2, 10016, Control_c, 0, 11, 126
2, 10026, Control_c, 0, 11, 125
2, 10033, Control_c, 0, 11, 124
2, 10037, Control_c, 0, 11, 123
2, 10044, Control_c, 0, 11, 122
2, 10045, Control_c, 0, 11, 121
2, 10052, Control_c, 0, 11, 120
2, 10054, Control_c, 0, 11, 119
2, 10056, Control_c, 0, 11, 118
2, 10057, Control_c, 0, 11, 116
2, 10064, Control_c, 0, 11, 113
2, 10065, Control_c, 0, 11, 111
2, 10066, Control_c, 0, 11, 109
2, 10068, Control_c, 0, 11, 105
2, 10070, Control_c, 0, 11, 104
2, 10071, Control_c, 0, 11, 102
2, 10073, Control_c, 0, 11, 92
2, 10074, Control_c, 0, 11, 83
2, 10080, Note_on_c, 0, 84, 0
2, 10080, Note_on_c, 0, 80, 81
2, 10080, Control_c, 0, 11, 65
2, 10081, Control_c, 0, 11, 68
2, 10082, Control_c, 0, 11, 71
2, 10083, Control_c, 0, 11, 74
2, 10084, Control_c, 0, 11, 78
2, 10085, Control_c, 0, 11, 79
2, 10086, Control_c, 0, 11, 81
2, 10087, Control_c, 0, 11, 83
2, 10088, Control_c, 0, 11, 87
2, 10090, Control_c, 0, 11, 88
2, 10091, Control_c, 0, 11, 90
2, 10092, Control_c, 0, 11, 92
2, 10093, Control_c, 0, 11, 95
2, 10094, Control_c, 0, 11, 96
2, 10095, Control_c, 0, 11, 99
2, 10096, Control_c, 0, 11, 101
2, 10097, Control_c, 0, 11, 103
2, 10098, Control_c, 0, 11, 106
2, 10100, Control_c, 0, 11, 107
2, 10101, Control_c, 0, 11, 109
2, 10102, Control_c, 0, 11, 111
2, 10103, Control_c, 0, 11, 112
2, 10104, Control_c, 0, 11, 113
2, 10105, Control_c, 0, 11, 114
2, 10106, Control_c, 0, 11, 115
2, 10107, Control_c, 0, 11, 117
2, 10108, Control_c, 0, 11, 118
2, 10110, Control_c, 0, 11, 119
2, 10111, Control_c, 0, 11, 121
2, 10112, Control_c, 0, 11, 122
2, 10114, Control_c, 0, 11, 123
2, 10115, Control_c, 0, 11, 125
2, 10118, Control_c, 0, 11, 126
2, 10120, Control_c, 0, 11, 127
2, 10200, Note_on_c, 0, 80, 0
2, 10200, Note_on_c, 0, 84, 81
2, 10200, Control_c, 0, 11, 66
2, 10201, Control_c, 0, 11, 67
2, 10202, Control_c, 0, 11, 73
2, 10203, Control_c, 0, 11, 75
2, 10204, Control_c, 0, 11, 84
2, 10205, Control_c, 0, 11, 86
2, 10206, Control_c, 0, 11, 88
2, 10207, Control_c, 0, 11, 96
2, 10208, Control_c, 0, 11, 98
2, 10211, Control_c, 0, 11, 104
2, 10212, Control_c, 0, 11, 106
2, 10213, Control_c, 0, 11, 108
2, 10215, Control_c, 0, 11, 110
2, 10216, Control_c, 0, 11, 112
2, 10217, Control_c, 0, 11, 113
2, 10218, Control_c, 0, 11, 115
2, 10220, Control_c, 0, 11, 116
2, 10222, Control_c, 0, 11, 118
2, 10225, Control_c, 0, 11, 120
2, 10227, Control_c, 0, 11, 122
2, 10228, Control_c, 0, 11, 123
2, 10230, Control_c, 0, 11, 124
2, 10231, Control_c, 0, 11, 126
2, 10320, Note_on_c, 0, 84, 0
2, 10320, Control_c, 0, 11, 66
2, 10320, Note_on_c, 0, 80, 81
2, 10322, Control_c, 0, 11, 67
2, 10323, Control_c, 0, 11, 77
2, 10324, Control_c, 0, 11, 82
2, 10325, Control_c, 0, 11, 84
2, 10326, Control_c, 0, 11, 86
2, 10327, Control_c, 0, 11, 88
2, 10328, Control_c, 0, 11, 94
2, 10330, Control_c, 0, 11, 96
2, 10331, Control_c, 0, 11, 98
2, 10332, Control_c, 0, 11, 100
2, 10333, Control_c, 0, 11, 106
2, 10334, Control_c, 0, 11, 112
2, 10335, Control_c, 0, 11, 114
2, 10336, Control_c, 0, 11, 117
2, 10338, Control_c, 0, 11, 120
2, 10340, Control_c, 0, 11, 121
2, 10341, Control_c, 0, 11, 123
2, 10342, Control_c, 0, 11, 126
2, 10343, Control_c, 0, 11, 127
2, 10440, Note_on_c, 0, 80, 0
2, 10440, Control_c, 0, 11, 65
2, 10440, Note_on_c, 0, 85, 81
2, 10442, Control_c, 0, 11, 67
2, 10444, Control_c, 0, 11, 69
2, 10445, Control_c, 0, 11, 71
2, 10446, Control_c, 0, 11, 73
2, 10447, Control_c, 0, 11, 74
2, 10450, Control_c, 0, 11, 76
2, 10451, Control_c, 0, 11, 77
2, 10453, Control_c, 0, 11, 79
2, 10455, Control_c, 0, 11, 80
2, 10457, Control_c, 0, 11, 86
2, 10460, Control_c, 0, 11, 87
2, 10461, Control_c, 0, 11, 89
2, 10463, Control_c, 0, 11, 91
2, 10465, Control_c, 0, 11, 93
2, 10467, Control_c, 0, 11, 95
2, 10468, Control_c, 0, 11, 97
2, 10471, Control_c, 0, 11, 100
2, 10473, Control_c, 0, 11, 101
2, 10475, Control_c, 0, 11, 107
2, 10477, Control_c, 0, 11, 109
2, 10480, Control_c, 0, 11, 111
2, 10481, Control_c, 0, 11, 112
2, 10482, Control_c, 0, 11, 113
2, 10483, Control_c, 0, 11, 114
2, 10485, Control_c, 0, 11, 116
2, 10487, Control_c, 0, 11, 118
2, 10490, Control_c, 0, 11, 120
2, 10491, Control_c, 0, 11, 121
2, 10493, Control_c, 0, 11, 123
2, 10495, Control_c, 0, 11, 124
2, 10496, Control_c, 0, 11, 125
2, 10497, Control_c, 0, 11, 127
2, 10560, Note_on_c, 0, 85, 0
2, 10560, Note_on_c, 0, 73, 81
2, 10561, Control_c, 0, 11, 65
2, 10562, Control_c, 0, 11, 67
2, 10563, Control_c, 0, 11, 69
2, 10564, Control_c, 0, 11, 70
2, 10565, Control_c, 0, 11, 73
2, 10566, Control_c, 0, 11, 75
2, 10567, Control_c, 0, 11, 83
2, 10568, Control_c, 0, 11, 84
2, 10570, Control_c, 0, 11, 85
2, 10571, Control_c, 0, 11, 87
2, 10572, Control_c, 0, 11, 89
2, 10573, Control_c, 0, 11, 91
2, 10574, Control_c, 0, 11, 92
2, 10575, Control_c, 0, 11, 93
2, 10577, Control_c, 0, 11, 95
2, 10578, Control_c, 0, 11, 97
2, 10580, Control_c, 0, 11, 98
2, 10581, Control_c, 0, 11, 100
2, 10582, Control_c, 0, 11, 101
2, 10583, Control_c, 0, 11, 102
2, 10584, Control_c, 0, 11, 104
2, 10586, Control_c, 0, 11, 106
2, 10587, Control_c, 0, 11, 108
2, 10588, Control_c, 0, 11, 109
2, 10590, Control_c, 0, 11, 110
2, 10591, Control_c, 0, 11, 111
2, 10592, Control_c, 0, 11, 112
2, 10593, Control_c, 0, 11, 113
2, 10594, Control_c, 0, 11, 114
2, 10596, Control_c, 0, 11, 115
2, 10597, Control_c, 0, 11, 117
2, 10604, Control_c, 0, 11, 118
2, 10606, Control_c, 0, 11, 124
2, 10608, Control_c, 0, 11, 126
2, 10611, Control_c, 0, 11, 127
2, 10680, Note_on_c, 0, 73, 0
2, 10800, Note_on_c, 0, 73, 81
2, 10800, Control_c, 0, 11, 64
2, 10801, Control_c, 0, 11, 65
2, 10802, Control_c, 0, 11, 67
2, 10803, Control_c, 0, 11, 69
2, 10804, Control_c, 0, 11, 71
2, 10805, Control_c, 0, 11, 73
2, 10806, Control_c, 0, 11, 75
2, 10807, Control_c, 0, 11, 76
2, 10808, Control_c, 0, 11, 78
2, 10810, Control_c, 0, 11, 79
2, 10811, Control_c, 0, 11, 81
2, 10812, Control_c, 0, 11, 83
2, 10813, Control_c, 0, 11, 86
2, 10814, Control_c, 0, 11, 87
2, 10815, Control_c, 0, 11, 89
2, 10816, Control_c, 0, 11, 90
2, 10817, Control_c, 0, 11, 92
2, 10818, Control_c, 0, 11, 93
2, 10820, Control_c, 0, 11, 94
2, 10821, Control_c, 0, 11, 95
2, 10822, Control_c, 0, 11, 97
2, 10823, Control_c, 0, 11, 99
2, 10825, Control_c, 0, 11, 101
2, 10826, Control_c, 0, 11, 102
2, 10828, Control_c, 0, 11, 104
2, 10830, Control_c, 0, 11, 106
2, 10831, Control_c, 0, 11, 108
2, 10833, Control_c, 0, 11, 110
2, 10834, Control_c, 0, 11, 112
2, 10836, Control_c, 0, 11, 114
2, 10838, Control_c, 0, 11, 120
2, 10841, Control_c, 0, 11, 126
2, 10842, Control_c, 0, 11, 127
2, 10920, Control_c, 0, 11, 66
2, 10920, Note_on_c, 0, 78, 81
2, 10922, Control_c, 0, 11, 68
2, 10923, Control_c, 0, 11, 69
2, 10924, Control_c, 0, 11, 72
2, 10925, Note_on_c, 0, 73, 0
2, 10925, Control_c, 0, 11, 74
2, 10926, Control_c, 0, 11, 75
2, 10927, Control_c, 0, 11, 77
2, 10928, Control_c, 0, 11, 80
2, 10930, Control_c, 0, 11, 81
2, 10931, Control_c, 0, 11, 84
2, 10932, Control_c, 0, 11, 85
2, 10934, Control_c, 0, 11, 87
2, 10935, Control_c, 0, 11, 89
2, 10936, Control_c, 0, 11, 91
2, 10937, Control_c, 0, 11, 92
2, 10940, Control_c, 0, 11, 94
2, 10941, Control_c, 0, 11, 96
2, 10942, Control_c, 0, 11, 98
2, 10944, Control_c, 0, 11, 100
2, 10945, Control_c, 0, 11, 101
2, 10946, Control_c, 0, 11, 104
2, 10947, Control_c, 0, 11, 105
2, 10948, Control_c, 0, 11, 107
2, 10950, Control_c, 0, 11, 108
2, 10951, Control_c, 0, 11, 110
2, 10952, Control_c, 0, 11, 112
2, 10953, Control_c, 0, 11, 113
2, 10954, Control_c, 0, 11, 114
2, 10955, Control_c, 0, 11, 116
2, 10956, Control_c, 0, 11, 117
2, 10957, Control_c, 0, 11, 119
2, 10960, Control_c, 0, 11, 122
2, 10961, Control_c, 0, 11, 123
2, 10962, Control_c, 0, 11, 124
2, 10963, Control_c, 0, 11, 125
2, 11040, Control_c, 0, 11, 66
2, 11040, Note_on_c, 0, 81, 81
2, 11042, Control_c, 0, 11, 68
2, 11043, Control_c, 0, 11, 71
2, 11044, Control_c, 0, 11, 75
2, 11045, Note_on_c, 0, 78, 0
2, 11045, Control_c, 0, 11, 82
2, 11046, Control_c, 0, 11, 87
2, 11047, Control_c, 0, 11, 91
2, 11048, Control_c, 0, 11, 94
2, 11050, Control_c, 0, 11, 97
2, 11051, Control_c, 0, 11, 99
2, 11052, Control_c, 0, 11, 103
2, 11053, Control_c, 0, 11, 104
2, 11054, Control_c, 0, 11, 107
2, 11055, Control_c, 0, 11, 108
2, 11056, Control_c, 0, 11, 111
2, 11057, Control_c, 0, 11, 112
2, 11058, Control_c, 0, 11, 114
2, 11060, Control_c, 0, 11, 115
2, 11061, Control_c, 0, 11, 116
2, 11063, Control_c, 0, 11, 122
2, 11064, Control_c, 0, 11, 124
2, 11065, Control_c, 0, 11, 125
2, 11160, Note_on_c, 0, 72, 81
2, 11160, Control_c, 0, 11, 66
2, 11161, Control_c, 0, 11, 67
2, 11162, Control_c, 0, 11, 73
2, 11163, Control_c, 0, 11, 75
2, 11164, Control_c, 0, 11, 77
2, 11165, Note_on_c, 0, 81, 0
2, 11165, Control_c, 0, 11, 80
2, 11166, Control_c, 0, 11, 81
2, 11167, Control_c, 0, 11, 82
2, 11168, Control_c, 0, 11, 84
2, 11170, Control_c, 0, 11, 86
2, 11172, Control_c, 0, 11, 88
2, 11173, Control_c, 0, 11, 90
2, 11174, Control_c, 0, 11, 91
2, 11175, Control_c, 0, 11, 93
2, 11177, Control_c, 0, 11, 95
2, 11180, Control_c, 0, 11, 97
2, 11181, Control_c, 0, 11, 99
2, 11183, Control_c, 0, 11, 101
2, 11184, Control_c, 0, 11, 102
2, 11185, Control_c, 0, 11, 103
2, 11186, Control_c, 0, 11, 104
2, 11187, Control_c, 0, 11, 106
2, 11188, Control_c, 0, 11, 107
2, 11191, Control_c, 0, 11, 109
2, 11192, Control_c, 0, 11, 110
2, 11193, Control_c, 0, 11, 113
2, 11194, Control_c, 0, 11, 114
2, 11195, Control_c, 0, 11, 116
2, 11197, Control_c, 0, 11, 118
2, 11198, Control_c, 0, 11, 119
2, 11200, Control_c, 0, 11, 121
2, 11202, Control_c, 0, 11, 122
2, 11203, Control_c, 0, 11, 124
2, 11210, Control_c, 0, 11, 127
2, 11280, Note_on_c, 0, 68, 81
2, 11280, Control_c, 0, 11, 65
2, 11281, Control_c, 0, 11, 69
2, 11282, Control_c, 0, 11, 83
2, 11283, Control_c, 0, 11, 87
2, 11284, Control_c, 0, 11, 91
2, 11285, Note_on_c, 0, 72, 0
2, 11285, Control_c, 0, 11, 93
2, 11286, Control_c, 0, 11, 98
2, 11287, Control_c, 0, 11, 100
2, 11288, Control_c, 0, 11, 103
2, 11290, Control_c, 0, 11, 106
2, 11291, Control_c, 0, 11, 107
2, 11292, Control_c, 0, 11, 110
2, 11293, Control_c, 0, 11, 111
2, 11294, Control_c, 0, 11, 112
2, 11295, Control_c, 0, 11, 114
2, 11296, Control_c, 0, 11, 115
2, 11297, Control_c, 0, 11, 117
2, 11298, Control_c, 0, 11, 118
2, 11300, Control_c, 0, 11, 120
2, 11301, Control_c, 0, 11, 121
2, 11303, Control_c, 0, 11, 122
2, 11304, Control_c, 0, 11, 123
2, 11305, Control_c, 0, 11, 125
2, 11306, Control_c, 0, 11, 126
2, 11307, Control_c, 0, 11, 127
2, 11400, Note_on_c, 0, 78, 81
2, 11400, Control_c, 0, 11, 69
2, 11401, Control_c, 0, 11, 74
2, 11402, Control_c, 0, 11, 86
2, 11403, Control_c, 0, 11, 92
2, 11404, Control_c, 0, 11, 96
2, 11405, Note_on_c, 0, 68, 0
2, 11405, Control_c, 0, 11, 98
2, 11406, Control_c, 0, 11, 103
2, 11407, Control_c, 0, 11, 104
2, 11408, Control_c, 0, 11, 108
2, 11410, Control_c, 0, 11, 110
2, 11411, Control_c, 0, 11, 113
2, 11412, Control_c, 0, 11, 114
2, 11413, Control_c, 0, 11, 117
2, 11414, Control_c, 0, 11, 118
2, 11415, Control_c, 0, 11, 119
2, 11416, Control_c, 0, 11, 121
2, 11417, Control_c, 0, 11, 122
2, 11418, Control_c, 0, 11, 123
2, 11421, Control_c, 0, 11, 124
2, 11422, Control_c, 0, 11, 125
2, 11423, Control_c, 0, 11, 126
2, 11520, Note_on_c, 0, 76, 81
2, 11520, Control_c, 0, 11, 68
2, 11521, Control_c, 0, 11, 76
2, 11522, Control_c, 0, 11, 80
2, 11523, Control_c, 0, 11, 90
2, 11524, Control_c, 0, 11, 95
2, 11525, Note_on_c, 0, 78, 0
2, 11525, Control_c, 0, 11, 99
2, 11526, Control_c, 0, 11, 103
2, 11527, Control_c, 0, 11, 105
2, 11528, Control_c, 0, 11, 108
2, 11530, Control_c, 0, 11, 110
2, 11531, Control_c, 0, 11, 111
2, 11532, Control_c, 0, 11, 113
2, 11533, Control_c, 0, 11, 114
2, 11534, Control_c, 0, 11, 117
2, 11535, Control_c, 0, 11, 119
2, 11536, Control_c, 0, 11, 121
2, 11537, Control_c, 0, 11, 122
2, 11538, Control_c, 0, 11, 123
2, 11540, Control_c, 0, 11, 124
2, 11541, Control_c, 0, 11, 125
2, 11542, Control_c, 0, 11, 126
2, 11638, Note_on_c, 0, 76, 0
2, 11639, Pitch_bend_c, 0, 12288
2, 11640, Control_c, 0, 11, 71
2, 11640, Note_on_c, 0, 75, 91
2, 11642, Control_c, 0, 11, 76
2, 11643, Control_c, 0, 11, 84
2, 11644, Control_c, 0, 11, 86
2, 11645, Control_c, 0, 11, 88
2, 11646, Control_c, 0, 11, 90
2, 11647, Control_c, 0, 11, 94
2, 11648, Control_c, 0, 11, 96
2, 11650, Pitch_bend_c, 0, 8192
2, 11650, Control_c, 0, 11, 100
2, 11651, Control_c, 0, 11, 102
2, 11652, Control_c, 0, 11, 104
2, 11653, Control_c, 0, 11, 105
2, 11654, Control_c, 0, 11, 109
2, 11655, Control_c, 0, 11, 110
2, 11656, Control_c, 0, 11, 112
2, 11657, Control_c, 0, 11, 113
2, 11660, Pitch_bend_c, 0, 12288
2, 11660, Control_c, 0, 11, 114
2, 11662, Control_c, 0, 11, 116
2, 11663, Control_c, 0, 11, 117
2, 11664, Control_c, 0, 11, 119
2, 11666, Control_c, 0, 11, 120
2, 11667, Control_c, 0, 11, 121
2, 11670, Pitch_bend_c, 0, 8192
2, 11670, Control_c, 0, 11, 122
2, 11672, Control_c, 0, 11, 123
2, 11673, Control_c, 0, 11, 124
2, 11674, Control_c, 0, 11, 125
2, 11676, Control_c, 0, 11, 126
2, 11680, Pitch_bend_c, 0, 12288
2, 11690, Pitch_bend_c, 0, 8192
2, 11700, Pitch_bend_c, 0, 12288
2, 11710, Pitch_bend_c, 0, 8192
2, 11720, Pitch_bend_c, 0, 12288
2, 11730, Pitch_bend_c, 0, 8192
2, 11740, Pitch_bend_c, 0, 12288
2, 11750, Pitch_bend_c, 0, 8192
2, 11760, Pitch_bend_c, 0, 12288
2, 11770, Pitch_bend_c, 0, 8192
2, 11780, Pitch_bend_c, 0, 12288
2, 11790, Pitch_bend_c, 0, 8192
2, 11800, Pitch_bend_c, 0, 12288
2, 11810, Pitch_bend_c, 0, 8192
2, 11820, Pitch_bend_c, 0, 12288
2, 11830, Pitch_bend_c, 0, 8192
2, 11834, Control_c, 0, 11, 126
2, 11840, Pitch_bend_c, 0, 12288
2, 11850, Pitch_bend_c, 0, 8192
2, 11860, Pitch_bend_c, 0, 12288
2, 11860, Control_c, 0, 11, 125
2, 11863, Control_c, 0, 11, 124
2, 11865, Control_c, 0, 11, 122
2, 11866, Control_c, 0, 11, 120
2, 11867, Control_c, 0, 11, 119
2, 11868, Control_c, 0, 11, 116
2, 11870, Pitch_bend_c, 0, 8192
2, 11870, Control_c, 0, 11, 114
2, 11880, Note_on_c, 0, 75, 0
2, 11880, Note_on_c, 0, 73, 81
2, 11880, Control_c, 0, 11, 66
2, 11881, Control_c, 0, 11, 69
2, 11882, Control_c, 0, 11, 79
2, 11883, Control_c, 0, 11, 84
2, 11884, Control_c, 0, 11, 87
2, 11885, Control_c, 0, 11, 90
2, 11886, Control_c, 0, 11, 91
2, 11887, Control_c, 0, 11, 97
2, 11888, Control_c, 0, 11, 98
2, 11890, Control_c, 0, 11, 102
2, 11891, Control_c, 0, 11, 103
2, 11892, Control_c, 0, 11, 107
2, 11893, Control_c, 0, 11, 108
2, 11894, Control_c, 0, 11, 110
2, 11895, Control_c, 0, 11, 112
2, 11896, Control_c, 0, 11, 113
2, 11897, Control_c, 0, 11, 114
2, 11898, Control_c, 0, 11, 116
2, 11900, Control_c, 0, 11, 117
2, 11901, Control_c, 0, 11, 119
2, 11902, Control_c, 0, 11, 121
2, 11904, Control_c, 0, 11, 122
2, 11905, Control_c, 0, 11, 123
2, 11906, Control_c, 0, 11, 125
2, 11910, Control_c, 0, 11, 127
2, 12090, Control_c, 0, 11, 127
2, 12093, Control_c, 0, 11, 126
2, 12097, Control_c, 0, 11, 125
2, 12101, Control_c, 0, 11, 124
2, 12103, Control_c, 0, 11, 123
2, 12104, Control_c, 0, 11, 122
2, 12106, Control_c, 0, 11, 121
2, 12108, Control_c, 0, 11, 120
2, 12111, Control_c, 0, 11, 118
2, 12112, Control_c, 0, 11, 116
2, 12113, Control_c, 0, 11, 114
2, 12114, Control_c, 0, 11, 113
2, 12115, Control_c, 0, 11, 112
2, 12116, Control_c, 0, 11, 110
2, 12117, Control_c, 0, 11, 108
2, 12118, Control_c, 0, 11, 102
2, 12120, Note_on_c, 0, 73, 0
2, 12120, Control_c, 0, 11, 99
2, 12121, Control_c, 0, 11, 97
2, 12122, Control_c, 0, 11, 95
2, 12123, Control_c, 0, 11, 94
2, 12124, Control_c, 0, 11, 82
2, 12125, Control_c, 0, 11, 81
2, 12240, Note_on_c, 0, 73, 81
2, 12240, Control_c, 0, 11, 70
2, 12241, Control_c, 0, 11, 71
2, 12242, Control_c, 0, 11, 74
2, 12243, Control_c, 0, 11, 77
2, 12244, Control_c, 0, 11, 83
2, 12246, Control_c, 0, 11, 89
2, 12247, Control_c, 0, 11, 90
2, 12248, Control_c, 0, 11, 92
2, 12250, Control_c, 0, 11, 94
2, 12252, Control_c, 0, 11, 102
2, 12254, Control_c, 0, 11, 110
2, 12255, Control_c, 0, 11, 116
2, 12256, Control_c, 0, 11, 118
2, 12257, Control_c, 0, 11, 119
2, 12258, Control_c, 0, 11, 120
2, 12260, Control_c, 0, 11, 123
2, 12261, Control_c, 0, 11, 124
2, 12262, Control_c, 0, 11, 125
2, 12264, Control_c, 0, 11, 127
2, 12358, Control_c, 0, 11, 65
2, 12360, Note_on_c, 0, 78, 81
2, 12360, Control_c, 0, 11, 72
2, 12361, Control_c, 0, 11, 76
2, 12362, Control_c, 0, 11, 78
2, 12363, Control_c, 0, 11, 82
2, 12364, Control_c, 0, 11, 84
2, 12365, Note_on_c, 0, 73, 0
2, 12365, Control_c, 0, 11, 89
2, 12367, Control_c, 0, 11, 91
2, 12370, Control_c, 0, 11, 97
2, 12372, Control_c, 0, 11, 99
2, 12373, Control_c, 0, 11, 101
2, 12374, Control_c, 0, 11, 102
2, 12375, Control_c, 0, 11, 103
2, 12376, Control_c, 0, 11, 105
2, 12377, Control_c, 0, 11, 106
2, 12380, Control_c, 0, 11, 107
2, 12381, Control_c, 0, 11, 109
2, 12382, Control_c, 0, 11, 110
2, 12383, Control_c, 0, 11, 111
2, 12384, Control_c, 0, 11, 112
2, 12386, Control_c, 0, 11, 118
2, 12388, Control_c, 0, 11, 124
2, 12391, Control_c, 0, 11, 127
2, 12480, Note_on_c, 0, 81, 81
2, 12480, Control_c, 0, 11, 64
2, 12481, Control_c, 0, 11, 65
2, 12482, Control_c, 0, 11, 69
2, 12483, Control_c, 0, 11, 71
2, 12484, Control_c, 0, 11, 77
2, 12485, Note_on_c, 0, 78, 0
2, 12485, Control_c, 0, 11, 83
2, 12486, Control_c, 0, 11, 85
2, 12488, Control_c, 0, 11, 87
2, 12490, Control_c, 0, 11, 95
2, 12492, Control_c, 0, 11, 103
2, 12493, Control_c, 0, 11, 105
2, 12495, Control_c, 0, 11, 107
2, 12496, Control_c, 0, 11, 109
2, 12497, Control_c, 0, 11, 115
2, 12500, Control_c, 0, 11, 116
2, 12501, Control_c, 0, 11, 118
2, 12502, Control_c, 0, 11, 119
2, 12504, Control_c, 0, 11, 121
2, 12506, Control_c, 0, 11, 124
2, 12508, Control_c, 0, 11, 126
2, 12600, Note_on_c, 0, 81, 0
2, 12600, Note_on_c, 0, 72, 81
2, 12600, Control_c, 0, 11, 64
2, 12601, Control_c, 0, 11, 66
2, 12602, Control_c, 0, 11, 68
2, 12603, Control_c, 0, 11, 70
2, 12604, Control_c, 0, 11, 72
2, 12606, Control_c, 0, 11, 79
2, 12608, Control_c, 0, 11, 85
2, 12611, Control_c, 0, 11, 93
2, 12612, Control_c, 0, 11, 99
2, 12613, Control_c, 0, 11, 101
2, 12615, Control_c, 0, 11, 103
2, 12616, Control_c, 0, 11, 105
2, 12618, Control_c, 0, 11, 107
2, 12621, Control_c, 0, 11, 109
2, 12623, Control_c, 0, 11, 111
2, 12630, Control_c, 0, 11, 117
2, 12632, Control_c, 0, 11, 120
2, 12634, Control_c, 0, 11, 121
2, 12635, Control_c, 0, 11, 122
2, 12636, Control_c, 0, 11, 124
2, 12643, Control_c, 0, 11, 126
2, 12644, Control_c, 0, 11, 127
2, 12720, Note_on_c, 0, 68, 81
2, 12720, Control_c, 0, 11, 65
2, 12721, Control_c, 0, 11, 67
2, 12722, Control_c, 0, 11, 73
2, 12723, Control_c, 0, 11, 81
2, 12724, Control_c, 0, 11, 87
2, 12725, Note_on_c, 0, 72, 0
2, 12725, Control_c, 0, 11, 97
2, 12726, Control_c, 0, 11, 103
2, 12728, Control_c, 0, 11, 111
2, 12730, Control_c, 0, 11, 112
2, 12731, Control_c, 0, 11, 114
2, 12732, Control_c, 0, 11, 115
2, 12733, Control_c, 0, 11, 116
2, 12735, Control_c, 0, 11, 117
2, 12737, Control_c, 0, 11, 118
2, 12738, Control_c, 0, 11, 120
2, 12745, Control_c, 0, 11, 122
2, 12746, Control_c, 0, 11, 124
2, 12747, Control_c, 0, 11, 125
2, 12750, Control_c, 0, 11, 126
2, 12840, Note_on_c, 0, 78, 81
2, 12840, Control_c, 0, 11, 65
2, 12841, Control_c, 0, 11, 66
2, 12842, Control_c, 0, 11, 70
2, 12843, Control_c, 0, 11, 72
2, 12844, Control_c, 0, 11, 78
2, 12845, Note_on_c, 0, 68, 0
2, 12845, Control_c, 0, 11, 80
2, 12846, Control_c, 0, 11, 86
2, 12848, Control_c, 0, 11, 90
2, 12850, Control_c, 0, 11, 91
2, 12851, Control_c, 0, 11, 99
2, 12853, Control_c, 0, 11, 105
2, 12854, Control_c, 0, 11, 111
2, 12855, Control_c, 0, 11, 115
2, 12856, Control_c, 0, 11, 117
2, 12857, Control_c, 0, 11, 118
2, 12858, Control_c, 0, 11, 121
2, 12860, Control_c, 0, 11, 122
2, 12861, Control_c, 0, 11, 124
2, 12862, Control_c, 0, 11, 125
2, 12863, Control_c, 0, 11, 126
2, 12864, Control_c, 0, 11, 127
2, 12960, Note_on_c, 0, 76, 81
2, 12960, Control_c, 0, 11, 65
2, 12961, Control_c, 0, 11, 68
2, 12963, Control_c, 0, 11, 74
2, 12965, Note_on_c, 0, 78, 0
2, 12965, Control_c, 0, 11, 80
2, 12966, Control_c, 0, 11, 86
2, 12967, Control_c, 0, 11, 90
2, 12968, Control_c, 0, 11, 92
2, 12970, Control_c, 0, 11, 104
2, 12971, Control_c, 0, 11, 114
2, 12972, Control_c, 0, 11, 119
2, 12973, Control_c, 0, 11, 122
2, 12974, Control_c, 0, 11, 123
2, 12975, Control_c, 0, 11, 124
2, 12976, Control_c, 0, 11, 125
2, 13078, Note_on_c, 0, 76, 0
2, 13079, Pitch_bend_c, 0, 12288
2, 13080, Note_on_c, 0, 75, 91
2, 13080, Control_c, 0, 11, 70
2, 13081, Control_c, 0, 11, 72
2, 13082, Control_c, 0, 11, 74
2, 13083, Control_c, 0, 11, 76
2, 13084, Control_c, 0, 11, 85
2, 13085, Control_c, 0, 11, 88
2, 13086, Control_c, 0, 11, 91
2, 13087, Control_c, 0, 11, 94
2, 13088, Control_c, 0, 11, 97
2, 13090, Pitch_bend_c, 0, 8192
2, 13090, Control_c, 0, 11, 101
2, 13091, Control_c, 0, 11, 102
2, 13092, Control_c, 0, 11, 104
2, 13093, Control_c, 0, 11, 110
2, 13094, Control_c, 0, 11, 112
2, 13095, Control_c, 0, 11, 115
2, 13096, Control_c, 0, 11, 116
2, 13097, Control_c, 0, 11, 119
2, 13098, Control_c, 0, 11, 120
2, 13100, Pitch_bend_c, 0, 12288
2, 13100, Control_c, 0, 11, 122
2, 13101, Control_c, 0, 11, 123
2, 13102, Control_c, 0, 11, 125
2, 13104, Control_c, 0, 11, 126
2, 13105, Control_c, 0, 11, 127
2, 13110, Pitch_bend_c, 0, 8192
2, 13120, Pitch_bend_c, 0, 12288
2, 13130, Pitch_bend_c, 0, 8192
2, 13140, Pitch_bend_c, 0, 12288
2, 13150, Pitch_bend_c, 0, 8192
2, 13160, Pitch_bend_c, 0, 12288
2, 13170, Pitch_bend_c, 0, 8192
2, 13180, Pitch_bend_c, 0, 12288
2, 13190, Pitch_bend_c, 0, 8192
2, 13200, Pitch_bend_c, 0, 12288
2, 13210, Pitch_bend_c, 0, 8192
2, 13220, Pitch_bend_c, 0, 12288
2, 13230, Pitch_bend_c, 0, 8192
2, 13240, Pitch_bend_c, 0, 12288
2, 13250, Pitch_bend_c, 0, 8192
2, 13260, Pitch_bend_c, 0, 12288
2, 13270, Pitch_bend_c, 0, 8192
2, 13280, Pitch_bend_c, 0, 12288
2, 13290, Pitch_bend_c, 0, 8192
2, 13291, Control_c, 0, 11, 127
2, 13300, Pitch_bend_c, 0, 12288
2, 13304, Control_c, 0, 11, 126
2, 13306, Control_c, 0, 11, 125
2, 13307, Control_c, 0, 11, 124
2, 13308, Control_c, 0, 11, 123
2, 13310, Pitch_bend_c, 0, 8192
2, 13310, Control_c, 0, 11, 121
2, 13312, Control_c, 0, 11, 115
2, 13313, Control_c, 0, 11, 113
2, 13314, Control_c, 0, 11, 110
2, 13315, Control_c, 0, 11, 109
2, 13316, Control_c, 0, 11, 108
2, 13317, Control_c, 0, 11, 105
2, 13320, Note_on_c, 0, 75, 0
2, 13320, Note_on_c, 0, 73, 81
2, 13320, Control_c, 0, 11, 65
2, 13321, Control_c, 0, 11, 67
2, 13322, Control_c, 0, 11, 72
2, 13323, Control_c, 0, 11, 85
2, 13324, Control_c, 0, 11, 88
2, 13325, Control_c, 0, 11, 91
2, 13326, Control_c, 0, 11, 94
2, 13327, Control_c, 0, 11, 96
2, 13328, Control_c, 0, 11, 98
2, 13330, Control_c, 0, 11, 101
2, 13331, Control_c, 0, 11, 103
2, 13332, Control_c, 0, 11, 104
2, 13333, Control_c, 0, 11, 110
2, 13334, Control_c, 0, 11, 112
2, 13335, Control_c, 0, 11, 114
2, 13336, Control_c, 0, 11, 116
2, 13337, Control_c, 0, 11, 117
2, 13338, Control_c, 0, 11, 119
2, 13340, Control_c, 0, 11, 121
2, 13341, Control_c, 0, 11, 123
2, 13342, Control_c, 0, 11, 124
2, 13343, Control_c, 0, 11, 125
2, 13344, Control_c, 0, 11, 126
2, 13345, Control_c, 0, 11, 127
2, 13617, Control_c, 0, 11, 126
2, 13621, Control_c, 0, 11, 125
2, 13630, Control_c, 0, 11, 124
2, 13633, Control_c, 0, 11, 123
2, 13635, Control_c, 0, 11, 122
2, 13637, Control_c, 0, 11, 121
2, 13638, Control_c, 0, 11, 120
2, 13641, Control_c, 0, 11, 119
2, 13642, Control_c, 0, 11, 118
2, 13648, Control_c, 0, 11, 116
2, 13651, Control_c, 0, 11, 115
2, 13652, Control_c, 0, 11, 114
2, 13658, Control_c, 0, 11, 112
2, 13661, Control_c, 0, 11, 109
2, 13663, Control_c, 0, 11, 107
2, 13672, Control_c, 0, 11, 99
2, 13674, Control_c, 0, 11, 96
2, 13675, Control_c, 0, 11, 94
2, 13677, Control_c, 0, 11, 92
2, 13678, Control_c, 0, 11, 91
2, 13680, Note_on_c, 0, 73, 0
2, 14760, Control_c, 0, 11, 127
2, 14761, Program_c, 0, 0
2, 14762, Control_c, 0, 7, 100
2, 14763, Control_c, 0, 10, 64
2, 14764, Control_c, 0, 91, 40
2, 14765, Control_c, 0, 93, 0
2, 14766, Control_c, 0, 99, 1
2, 14767, Control_c, 0, 98, 8
2, 14768, Control_c, 0, 6, 64
2, 14769, Control_c, 0, 99, 1
2, 14770, Control_c, 0, 98, 10
2, 14771, Control_c, 0, 6, 64
2, 14772, Control_c, 0, 99, 1
2, 14773, Control_c, 0, 98, 9
2, 14774, Control_c, 0, 6, 64
2, 14775, Pitch_bend_c, 0, 8192
2, 14775, End_track
3, 0, Start_track
3, 0, MIDI_port, 1
3, 0, Title_t, "Violin II"
3, 0, Program_c, 1, 40
3, 0, Control_c, 1, 7, 70
3, 0, Control_c, 1, 10, 90
3, 0, Control_c, 1, 93, 0
3, 0, Control_c, 1, 91, 120
3, 1, Text_t, "Non Registered Parameter Numbers"
3, 1, Text_t, "For Roland SC-55 Vibrato"
3, 1, Text_t, "Set up NRPN for Vibrate Rate"
3, 2, Control_c, 1, 99, 1
3, 3, Control_c, 1, 98, 8
3, 4, Text_t, "Data Entry Command"
3, 4, Control_c, 1, 6, 68
3, 5, Text_t, "Set up NRPN for Vibrate Delay"
3, 6, Control_c, 1, 99, 1
3, 7, Control_c, 1, 98, 10
3, 8, Text_t, "Data Entry Command"
3, 8, Control_c, 1, 6, 14
3, 9, Text_t, "Set up NRPN for Vibrate Depth"
3, 10, Control_c, 1, 99, 1
3, 11, Control_c, 1, 98, 9
3, 12, Text_t, "Data Entry Command; Vibrato ON"
3, 12, Control_c, 1, 6, 70
3, 13, Pitch_bend_c, 1, 8192
3, 360, Note_on_c, 1, 68, 64
3, 405, Note_on_c, 1, 68, 0
3, 405, Note_on_c, 1, 69, 64
3, 420, Note_on_c, 1, 69, 0
3, 420, Note_on_c, 1, 68, 64
3, 465, Note_on_c, 1, 68, 0
3, 465, Note_on_c, 1, 69, 64
3, 480, Note_on_c, 1, 69, 0
3, 480, Note_on_c, 1, 68, 64
3, 525, Note_on_c, 1, 68, 0
3, 525, Note_on_c, 1, 69, 64
3, 540, Note_on_c, 1, 69, 0
3, 540, Note_on_c, 1, 68, 64
3, 585, Note_on_c, 1, 68, 0
3, 585, Note_on_c, 1, 69, 64
3, 600, Note_on_c, 1, 69, 0
3, 600, Note_on_c, 1, 68, 64
3, 645, Note_on_c, 1, 68, 0
3, 645, Note_on_c, 1, 73, 64
3, 660, Note_on_c, 1, 73, 0
3, 660, Note_on_c, 1, 71, 64
3, 705, Note_on_c, 1, 71, 0
3, 705, Note_on_c, 1, 69, 64
3, 720, Note_on_c, 1, 69, 0
3, 720, Note_on_c, 1, 68, 64
3, 765, Note_on_c, 1, 68, 0
3, 765, Note_on_c, 1, 69, 64
3, 780, Note_on_c, 1, 69, 0
3, 780, Note_on_c, 1, 68, 64
3, 825, Note_on_c, 1, 68, 0
3, 825, Note_on_c, 1, 69, 64
3, 840, Note_on_c, 1, 69, 0
3, 840, Note_on_c, 1, 68, 64
3, 885, Note_on_c, 1, 68, 0
3, 885, Note_on_c, 1, 69, 64
3, 900, Note_on_c, 1, 69, 0
3, 900, Note_on_c, 1, 68, 64
3, 945, Note_on_c, 1, 68, 0
3, 945, Note_on_c, 1, 69, 64
3, 960, Note_on_c, 1, 69, 0
3, 960, Note_on_c, 1, 68, 64
3, 1005, Note_on_c, 1, 68, 0
3, 1005, Note_on_c, 1, 73, 64
3, 1020, Note_on_c, 1, 73, 0
3, 1020, Note_on_c, 1, 71, 64
3, 1065, Note_on_c, 1, 71, 0
3, 1065, Note_on_c, 1, 69, 64
3, 1080, Note_on_c, 1, 69, 0
3, 1080, Note_on_c, 1, 68, 64
3, 1125, Note_on_c, 1, 68, 0
3, 1125, Note_on_c, 1, 69, 64
3, 1140, Note_on_c, 1, 69, 0
3, 1140, Note_on_c, 1, 68, 64
3, 1185, Note_on_c, 1, 68, 0
3, 1185, Note_on_c, 1, 69, 64
3, 1200, Note_on_c, 1, 69, 0
3, 1200, Note_on_c, 1, 68, 64
3, 1245, Note_on_c, 1, 68, 0
3, 1245, Note_on_c, 1, 69, 64
3, 1260, Note_on_c, 1, 69, 0
3, 1260, Note_on_c, 1, 68, 64
3, 1305, Note_on_c, 1, 68, 0
3, 1305, Note_on_c, 1, 69, 64
3, 1320, Note_on_c, 1, 69, 0
3, 1320, Note_on_c, 1, 68, 64
3, 1365, Note_on_c, 1, 68, 0
3, 1365, Note_on_c, 1, 69, 64
3, 1380, Note_on_c, 1, 69, 0
3, 1380, Note_on_c, 1, 72, 64
3, 1425, Note_on_c, 1, 72, 0
3, 1425, Note_on_c, 1, 73, 64
3, 1440, Note_on_c, 1, 73, 0
3, 1440, Note_on_c, 1, 75, 64
3, 1485, Note_on_c, 1, 75, 0
3, 1485, Note_on_c, 1, 76, 64
3, 1500, Note_on_c, 1, 76, 0
3, 1500, Note_on_c, 1, 75, 64
3, 1545, Note_on_c, 1, 75, 0
3, 1545, Note_on_c, 1, 76, 64
3, 1560, Note_on_c, 1, 76, 0
3, 1560, Note_on_c, 1, 75, 64
3, 1605, Note_on_c, 1, 75, 0
3, 1605, Note_on_c, 1, 76, 64
3, 1620, Note_on_c, 1, 76, 0
3, 1620, Note_on_c, 1, 75, 64
3, 1665, Note_on_c, 1, 75, 0
3, 1665, Note_on_c, 1, 76, 64
3, 1680, Note_on_c, 1, 76, 0
3, 1680, Note_on_c, 1, 75, 64
3, 1725, Note_on_c, 1, 75, 0
3, 1725, Note_on_c, 1, 80, 64
3, 1740, Note_on_c, 1, 80, 0
3, 1740, Note_on_c, 1, 78, 64
3, 1785, Note_on_c, 1, 78, 0
3, 1785, Note_on_c, 1, 76, 64
3, 1800, Note_on_c, 1, 76, 0
3, 1800, Note_on_c, 1, 75, 64
3, 1845, Note_on_c, 1, 75, 0
3, 1845, Note_on_c, 1, 76, 64
3, 1860, Note_on_c, 1, 76, 0
3, 1860, Note_on_c, 1, 75, 64
3, 1905, Note_on_c, 1, 75, 0
3, 1905, Note_on_c, 1, 76, 64
3, 1920, Note_on_c, 1, 76, 0
3, 1920, Note_on_c, 1, 75, 64
3, 1965, Note_on_c, 1, 75, 0
3, 1965, Note_on_c, 1, 76, 64
3, 1980, Note_on_c, 1, 76, 0
3, 1980, Note_on_c, 1, 75, 64
3, 2025, Note_on_c, 1, 75, 0
3, 2025, Note_on_c, 1, 76, 64
3, 2040, Note_on_c, 1, 76, 0
3, 2040, Note_on_c, 1, 75, 64
3, 2085, Note_on_c, 1, 75, 0
3, 2085, Note_on_c, 1, 80, 64
3, 2100, Note_on_c, 1, 80, 0
3, 2100, Note_on_c, 1, 78, 64
3, 2145, Note_on_c, 1, 78, 0
3, 2145, Note_on_c, 1, 76, 64
3, 2160, Note_on_c, 1, 76, 0
3, 2160, Note_on_c, 1, 75, 64
3, 2205, Note_on_c, 1, 75, 0
3, 2205, Note_on_c, 1, 76, 64
3, 2220, Note_on_c, 1, 76, 0
3, 2220, Note_on_c, 1, 75, 64
3, 2265, Note_on_c, 1, 75, 0
3, 2265, Note_on_c, 1, 76, 64
3, 2280, Note_on_c, 1, 76, 0
3, 2280, Note_on_c, 1, 75, 64
3, 2325, Note_on_c, 1, 75, 0
3, 2325, Note_on_c, 1, 76, 64
3, 2340, Note_on_c, 1, 76, 0
3, 2340, Note_on_c, 1, 75, 64
3, 2385, Note_on_c, 1, 75, 0
3, 2385, Note_on_c, 1, 76, 64
3, 2400, Note_on_c, 1, 76, 0
3, 2400, Note_on_c, 1, 75, 64
3, 2445, Note_on_c, 1, 75, 0
3, 2445, Note_on_c, 1, 76, 64
3, 2460, Note_on_c, 1, 76, 0
3, 2460, Note_on_c, 1, 78, 64
3, 2505, Note_on_c, 1, 78, 0
3, 2505, Note_on_c, 1, 75, 64
3, 2520, Note_on_c, 1, 75, 0
3, 2520, Note_on_c, 1, 76, 64
3, 2565, Note_on_c, 1, 76, 0
3, 2565, Note_on_c, 1, 78, 64
3, 2580, Note_on_c, 1, 78, 0
3, 2580, Note_on_c, 1, 76, 64
3, 2625, Note_on_c, 1, 76, 0
3, 2625, Note_on_c, 1, 78, 64
3, 2640, Note_on_c, 1, 78, 0
3, 2640, Note_on_c, 1, 76, 64
3, 2685, Note_on_c, 1, 76, 0
3, 2685, Note_on_c, 1, 78, 64
3, 2700, Note_on_c, 1, 78, 0
3, 2700, Note_on_c, 1, 76, 64
3, 2745, Note_on_c, 1, 76, 0
3, 2745, Note_on_c, 1, 78, 64
3, 2760, Note_on_c, 1, 78, 0
3, 2760, Note_on_c, 1, 76, 64
3, 2805, Note_on_c, 1, 76, 0
3, 2805, Note_on_c, 1, 78, 64
3, 2820, Note_on_c, 1, 78, 0
3, 2820, Note_on_c, 1, 76, 64
3, 2865, Note_on_c, 1, 76, 0
3, 2865, Note_on_c, 1, 78, 64
3, 2880, Note_on_c, 1, 78, 0
3, 2880, Note_on_c, 1, 64, 64
3, 2925, Note_on_c, 1, 64, 0
3, 2925, Note_on_c, 1, 66, 64
3, 2940, Note_on_c, 1, 66, 0
3, 2940, Note_on_c, 1, 64, 64
3, 2985, Note_on_c, 1, 64, 0
3, 2985, Note_on_c, 1, 66, 64
3, 3000, Note_on_c, 1, 66, 0
3, 3000, Note_on_c, 1, 64, 64
3, 3045, Note_on_c, 1, 64, 0
3, 3045, Note_on_c, 1, 66, 64
3, 3060, Note_on_c, 1, 66, 0
3, 3060, Note_on_c, 1, 64, 64
3, 3105, Note_on_c, 1, 64, 0
3, 3105, Note_on_c, 1, 66, 64
3, 3120, Note_on_c, 1, 66, 0
3, 3120, Note_on_c, 1, 64, 64
3, 3165, Note_on_c, 1, 64, 0
3, 3165, Note_on_c, 1, 66, 64
3, 3180, Note_on_c, 1, 66, 0
3, 3180, Note_on_c, 1, 64, 64
3, 3225, Note_on_c, 1, 64, 0
3, 3225, Note_on_c, 1, 66, 64
3, 3240, Note_on_c, 1, 66, 0
3, 3240, Note_on_c, 1, 76, 64
3, 3285, Note_on_c, 1, 76, 0
3, 3285, Note_on_c, 1, 78, 64
3, 3300, Note_on_c, 1, 78, 0
3, 3300, Note_on_c, 1, 76, 64
3, 3345, Note_on_c, 1, 76, 0
3, 3345, Note_on_c, 1, 78, 64
3, 3360, Note_on_c, 1, 78, 0
3, 3360, Note_on_c, 1, 76, 64
3, 3405, Note_on_c, 1, 76, 0
3, 3405, Note_on_c, 1, 78, 64
3, 3420, Note_on_c, 1, 78, 0
3, 3420, Note_on_c, 1, 76, 64
3, 3465, Note_on_c, 1, 76, 0
3, 3465, Note_on_c, 1, 78, 64
3, 3480, Note_on_c, 1, 78, 0
3, 3480, Note_on_c, 1, 76, 64
3, 3525, Note_on_c, 1, 76, 0
3, 3525, Note_on_c, 1, 78, 64
3, 3540, Note_on_c, 1, 78, 0
3, 3540, Note_on_c, 1, 76, 64
3, 3585, Note_on_c, 1, 76, 0
3, 3585, Note_on_c, 1, 78, 64
3, 3600, Note_on_c, 1, 78, 0
3, 3600, Note_on_c, 1, 75, 64
3, 3645, Note_on_c, 1, 75, 0
3, 3645, Note_on_c, 1, 76, 64
3, 3660, Note_on_c, 1, 76, 0
3, 3660, Note_on_c, 1, 75, 64
3, 3705, Note_on_c, 1, 75, 0
3, 3705, Note_on_c, 1, 76, 64
3, 3720, Note_on_c, 1, 76, 0
3, 3720, Note_on_c, 1, 75, 64
3, 3765, Note_on_c, 1, 75, 0
3, 3765, Note_on_c, 1, 76, 64
3, 3780, Note_on_c, 1, 76, 0
3, 3780, Note_on_c, 1, 75, 64
3, 3825, Note_on_c, 1, 75, 0
3, 3825, Note_on_c, 1, 76, 64
3, 3840, Note_on_c, 1, 76, 0
3, 3840, Note_on_c, 1, 75, 64
3, 3885, Note_on_c, 1, 75, 0
3, 3885, Note_on_c, 1, 76, 64
3, 3900, Note_on_c, 1, 76, 0
3, 3900, Note_on_c, 1, 75, 64
3, 3945, Note_on_c, 1, 75, 0
3, 3945, Note_on_c, 1, 76, 64
3, 3960, Note_on_c, 1, 76, 0
3, 3960, Note_on_c, 1, 75, 64
3, 4005, Note_on_c, 1, 75, 0
3, 4005, Note_on_c, 1, 76, 64
3, 4020, Note_on_c, 1, 76, 0
3, 4020, Note_on_c, 1, 75, 64
3, 4065, Note_on_c, 1, 75, 0
3, 4065, Note_on_c, 1, 76, 64
3, 4080, Note_on_c, 1, 76, 0
3, 4080, Note_on_c, 1, 75, 64
3, 4125, Note_on_c, 1, 75, 0
3, 4125, Note_on_c, 1, 76, 64
3, 4140, Note_on_c, 1, 76, 0
3, 4140, Note_on_c, 1, 75, 64
3, 4185, Note_on_c, 1, 75, 0
3, 4185, Note_on_c, 1, 76, 64
3, 4200, Note_on_c, 1, 76, 0
3, 4200, Note_on_c, 1, 75, 64
3, 4245, Note_on_c, 1, 75, 0
3, 4245, Note_on_c, 1, 76, 64
3, 4260, Note_on_c, 1, 76, 0
3, 4260, Note_on_c, 1, 75, 64
3, 4305, Note_on_c, 1, 75, 0
3, 4305, Note_on_c, 1, 76, 64
3, 4320, Note_on_c, 1, 76, 0
3, 4320, Note_on_c, 1, 73, 64
3, 4365, Note_on_c, 1, 73, 0
3, 4365, Note_on_c, 1, 75, 64
3, 4380, Note_on_c, 1, 75, 0
3, 4380, Note_on_c, 1, 73, 64
3, 4425, Note_on_c, 1, 73, 0
3, 4425, Note_on_c, 1, 75, 64
3, 4440, Note_on_c, 1, 75, 0
3, 4440, Note_on_c, 1, 73, 64
3, 4485, Note_on_c, 1, 73, 0
3, 4485, Note_on_c, 1, 75, 64
3, 4500, Note_on_c, 1, 75, 0
3, 4500, Note_on_c, 1, 73, 64
3, 4545, Note_on_c, 1, 73, 0
3, 4545, Note_on_c, 1, 75, 64
3, 4560, Note_on_c, 1, 75, 0
3, 4560, Note_on_c, 1, 73, 64
3, 4605, Note_on_c, 1, 73, 0
3, 4605, Note_on_c, 1, 75, 64
3, 4620, Note_on_c, 1, 75, 0
3, 4620, Note_on_c, 1, 73, 64
3, 4665, Note_on_c, 1, 73, 0
3, 4665, Note_on_c, 1, 75, 64
3, 4680, Note_on_c, 1, 75, 0
3, 4680, Note_on_c, 1, 73, 64
3, 4725, Note_on_c, 1, 73, 0
3, 4725, Note_on_c, 1, 75, 64
3, 4740, Note_on_c, 1, 75, 0
3, 4740, Note_on_c, 1, 73, 64
3, 4785, Note_on_c, 1, 73, 0
3, 4785, Note_on_c, 1, 75, 64
3, 4800, Note_on_c, 1, 75, 0
3, 4800, Note_on_c, 1, 73, 64
3, 4845, Note_on_c, 1, 73, 0
3, 4845, Note_on_c, 1, 75, 64
3, 4860, Note_on_c, 1, 75, 0
3, 4860, Note_on_c, 1, 73, 64
3, 4905, Note_on_c, 1, 73, 0
3, 4905, Note_on_c, 1, 75, 64
3, 4920, Note_on_c, 1, 75, 0
3, 4920, Note_on_c, 1, 73, 64
3, 4965, Note_on_c, 1, 73, 0
3, 4965, Note_on_c, 1, 75, 64
3, 4980, Note_on_c, 1, 75, 0
3, 4980, Note_on_c, 1, 73, 64
3, 5025, Note_on_c, 1, 73, 0
3, 5025, Note_on_c, 1, 75, 64
3, 5040, Note_on_c, 1, 75, 0
3, 5040, Note_on_c, 1, 72, 64
3, 5085, Note_on_c, 1, 72, 0
3, 5085, Note_on_c, 1, 73, 64
3, 5100, Note_on_c, 1, 73, 0
3, 5100, Note_on_c, 1, 72, 64
3, 5145, Note_on_c, 1, 72, 0
3, 5145, Note_on_c, 1, 73, 64
3, 5160, Note_on_c, 1, 73, 0
3, 5160, Note_on_c, 1, 72, 64
3, 5205, Note_on_c, 1, 72, 0
3, 5205, Note_on_c, 1, 73, 64
3, 5220, Note_on_c, 1, 73, 0
3, 5220, Note_on_c, 1, 72, 64
3, 5265, Note_on_c, 1, 72, 0
3, 5265, Note_on_c, 1, 73, 64
3, 5280, Note_on_c, 1, 73, 0
3, 5280, Note_on_c, 1, 72, 64
3, 5325, Note_on_c, 1, 72, 0
3, 5325, Note_on_c, 1, 73, 64
3, 5340, Note_on_c, 1, 73, 0
3, 5340, Note_on_c, 1, 72, 64
3, 5385, Note_on_c, 1, 72, 0
3, 5385, Note_on_c, 1, 75, 64
3, 5400, Note_on_c, 1, 75, 0
3, 5400, Note_on_c, 1, 76, 64
3, 5445, Note_on_c, 1, 76, 0
3, 5445, Note_on_c, 1, 78, 64
3, 5460, Note_on_c, 1, 78, 0
3, 5460, Note_on_c, 1, 76, 64
3, 5505, Note_on_c, 1, 76, 0
3, 5505, Note_on_c, 1, 78, 64
3, 5520, Note_on_c, 1, 78, 0
3, 5520, Note_on_c, 1, 76, 64
3, 5565, Note_on_c, 1, 76, 0
3, 5565, Note_on_c, 1, 78, 64
3, 5580, Note_on_c, 1, 78, 0
3, 5580, Note_on_c, 1, 76, 64
3, 5625, Note_on_c, 1, 76, 0
3, 5625, Note_on_c, 1, 78, 64
3, 5640, Note_on_c, 1, 78, 0
3, 5640, Note_on_c, 1, 76, 64
3, 5685, Note_on_c, 1, 76, 0
3, 5685, Note_on_c, 1, 78, 64
3, 5700, Note_on_c, 1, 78, 0
3, 5700, Note_on_c, 1, 76, 64
3, 5745, Note_on_c, 1, 76, 0
3, 5745, Note_on_c, 1, 78, 64
3, 5760, Note_on_c, 1, 78, 0
3, 5760, Note_on_c, 1, 75, 64
3, 5805, Note_on_c, 1, 75, 0
3, 5805, Note_on_c, 1, 76, 64
3, 5820, Note_on_c, 1, 76, 0
3, 5820, Note_on_c, 1, 75, 64
3, 5865, Note_on_c, 1, 75, 0
3, 5865, Note_on_c, 1, 76, 64
3, 5880, Note_on_c, 1, 76, 0
3, 5880, Note_on_c, 1, 75, 64
3, 5925, Note_on_c, 1, 75, 0
3, 5925, Note_on_c, 1, 76, 64
3, 5940, Note_on_c, 1, 76, 0
3, 5940, Note_on_c, 1, 75, 64
3, 5985, Note_on_c, 1, 75, 0
3, 5985, Note_on_c, 1, 76, 64
3, 6000, Note_on_c, 1, 76, 0
3, 6000, Note_on_c, 1, 75, 64
3, 6045, Note_on_c, 1, 75, 0
3, 6045, Note_on_c, 1, 76, 64
3, 6060, Note_on_c, 1, 76, 0
3, 6060, Note_on_c, 1, 75, 64
3, 6105, Note_on_c, 1, 75, 0
3, 6105, Note_on_c, 1, 76, 64
3, 6120, Note_on_c, 1, 76, 0
3, 6120, Note_on_c, 1, 75, 64
3, 6165, Note_on_c, 1, 75, 0
3, 6165, Note_on_c, 1, 76, 64
3, 6180, Note_on_c, 1, 76, 0
3, 6180, Note_on_c, 1, 75, 64
3, 6225, Note_on_c, 1, 75, 0
3, 6225, Note_on_c, 1, 76, 64
3, 6240, Note_on_c, 1, 76, 0
3, 6240, Note_on_c, 1, 75, 64
3, 6285, Note_on_c, 1, 75, 0
3, 6285, Note_on_c, 1, 76, 64
3, 6300, Note_on_c, 1, 76, 0
3, 6300, Note_on_c, 1, 75, 64
3, 6345, Note_on_c, 1, 75, 0
3, 6345, Note_on_c, 1, 76, 64
3, 6360, Note_on_c, 1, 76, 0
3, 6360, Note_on_c, 1, 75, 64
3, 6405, Note_on_c, 1, 75, 0
3, 6405, Note_on_c, 1, 76, 64
3, 6420, Note_on_c, 1, 76, 0
3, 6420, Note_on_c, 1, 75, 64
3, 6465, Note_on_c, 1, 75, 0
3, 6465, Note_on_c, 1, 73, 64
3, 6480, Note_on_c, 1, 73, 0
3, 6480, Note_on_c, 1, 71, 64
3, 6525, Note_on_c, 1, 71, 0
3, 6525, Note_on_c, 1, 73, 64
3, 6540, Note_on_c, 1, 73, 0
3, 6540, Note_on_c, 1, 71, 64
3, 6585, Note_on_c, 1, 71, 0
3, 6585, Note_on_c, 1, 73, 64
3, 6600, Note_on_c, 1, 73, 0
3, 6600, Note_on_c, 1, 71, 64
3, 6645, Note_on_c, 1, 71, 0
3, 6645, Note_on_c, 1, 73, 64
3, 6660, Note_on_c, 1, 73, 0
3, 6660, Note_on_c, 1, 71, 64
3, 6705, Note_on_c, 1, 71, 0
3, 6705, Note_on_c, 1, 73, 64
3, 6720, Note_on_c, 1, 73, 0
3, 6720, Note_on_c, 1, 71, 64
3, 6765, Note_on_c, 1, 71, 0
3, 6765, Note_on_c, 1, 76, 64
3, 6780, Note_on_c, 1, 76, 0
3, 6780, Note_on_c, 1, 75, 64
3, 6825, Note_on_c, 1, 75, 0
3, 6825, Note_on_c, 1, 73, 64
3, 6840, Note_on_c, 1, 73, 0
3, 6840, Note_on_c, 1, 71, 64
3, 6885, Note_on_c, 1, 71, 0
3, 6885, Note_on_c, 1, 73, 64
3, 6900, Note_on_c, 1, 73, 0
3, 6900, Note_on_c, 1, 71, 64
3, 6945, Note_on_c, 1, 71, 0
3, 6945, Note_on_c, 1, 73, 64
3, 6960, Note_on_c, 1, 73, 0
3, 6960, Note_on_c, 1, 71, 64
3, 7005, Note_on_c, 1, 71, 0
3, 7005, Note_on_c, 1, 73, 64
3, 7020, Note_on_c, 1, 73, 0
3, 7020, Note_on_c, 1, 71, 64
3, 7065, Note_on_c, 1, 71, 0
3, 7065, Note_on_c, 1, 73, 64
3, 7080, Note_on_c, 1, 73, 0
3, 7080, Note_on_c, 1, 71, 64
3, 7125, Note_on_c, 1, 71, 0
3, 7125, Note_on_c, 1, 73, 64
3, 7140, Note_on_c, 1, 73, 0
3, 7140, Note_on_c, 1, 71, 64
3, 7185, Note_on_c, 1, 71, 0
3, 7185, Note_on_c, 1, 69, 64
3, 7200, Note_on_c, 1, 69, 0
3, 7200, Note_on_c, 1, 68, 64
3, 7245, Note_on_c, 1, 68, 0
3, 7245, Note_on_c, 1, 69, 64
3, 7260, Note_on_c, 1, 69, 0
3, 7260, Note_on_c, 1, 68, 64
3, 7305, Note_on_c, 1, 68, 0
3, 7305, Note_on_c, 1, 69, 64
3, 7320, Note_on_c, 1, 69, 0
3, 7320, Note_on_c, 1, 68, 64
3, 7365, Note_on_c, 1, 68, 0
3, 7365, Note_on_c, 1, 69, 64
3, 7380, Note_on_c, 1, 69, 0
3, 7380, Note_on_c, 1, 68, 64
3, 7425, Note_on_c, 1, 68, 0
3, 7425, Note_on_c, 1, 69, 64
3, 7440, Note_on_c, 1, 69, 0
3, 7440, Note_on_c, 1, 68, 64
3, 7485, Note_on_c, 1, 68, 0
3, 7485, Note_on_c, 1, 73, 64
3, 7500, Note_on_c, 1, 73, 0
3, 7500, Note_on_c, 1, 71, 64
3, 7545, Note_on_c, 1, 71, 0
3, 7545, Note_on_c, 1, 69, 64
3, 7560, Note_on_c, 1, 69, 0
3, 7560, Note_on_c, 1, 68, 64
3, 7605, Note_on_c, 1, 68, 0
3, 7605, Note_on_c, 1, 69, 64
3, 7620, Note_on_c, 1, 69, 0
3, 7620, Note_on_c, 1, 68, 64
3, 7665, Note_on_c, 1, 68, 0
3, 7665, Note_on_c, 1, 69, 64
3, 7680, Note_on_c, 1, 69, 0
3, 7680, Note_on_c, 1, 68, 64
3, 7725, Note_on_c, 1, 68, 0
3, 7725, Note_on_c, 1, 69, 64
3, 7740, Note_on_c, 1, 69, 0
3, 7740, Note_on_c, 1, 68, 64
3, 7785, Note_on_c, 1, 68, 0
3, 7785, Note_on_c, 1, 69, 64
3, 7800, Note_on_c, 1, 69, 0
3, 7800, Note_on_c, 1, 68, 64
3, 7845, Note_on_c, 1, 68, 0
3, 7845, Note_on_c, 1, 69, 64
3, 7860, Note_on_c, 1, 69, 0
3, 7860, Note_on_c, 1, 72, 64
3, 7905, Note_on_c, 1, 72, 0
3, 7905, Note_on_c, 1, 73, 64
3, 7920, Note_on_c, 1, 73, 0
3, 7920, Note_on_c, 1, 75, 64
3, 7965, Note_on_c, 1, 75, 0
3, 7965, Note_on_c, 1, 76, 64
3, 7980, Note_on_c, 1, 76, 0
3, 7980, Note_on_c, 1, 75, 64
3, 8025, Note_on_c, 1, 75, 0
3, 8025, Note_on_c, 1, 76, 64
3, 8040, Note_on_c, 1, 76, 0
3, 8040, Note_on_c, 1, 75, 64
3, 8085, Note_on_c, 1, 75, 0
3, 8085, Note_on_c, 1, 76, 64
3, 8100, Note_on_c, 1, 76, 0
3, 8100, Note_on_c, 1, 75, 64
3, 8145, Note_on_c, 1, 75, 0
3, 8145, Note_on_c, 1, 76, 64
3, 8160, Note_on_c, 1, 76, 0
3, 8160, Note_on_c, 1, 75, 64
3, 8205, Note_on_c, 1, 75, 0
3, 8205, Note_on_c, 1, 76, 64
3, 8220, Note_on_c, 1, 76, 0
3, 8220, Note_on_c, 1, 78, 64
3, 8265, Note_on_c, 1, 78, 0
3, 8265, Note_on_c, 1, 75, 64
3, 8280, Note_on_c, 1, 75, 0
3, 8280, Note_on_c, 1, 76, 64
3, 8325, Note_on_c, 1, 76, 0
3, 8325, Note_on_c, 1, 78, 64
3, 8340, Note_on_c, 1, 78, 0
3, 8340, Note_on_c, 1, 76, 64
3, 8385, Note_on_c, 1, 76, 0
3, 8385, Note_on_c, 1, 78, 64
3, 8400, Note_on_c, 1, 78, 0
3, 8400, Note_on_c, 1, 76, 64
3, 8445, Note_on_c, 1, 76, 0
3, 8445, Note_on_c, 1, 78, 64
3, 8460, Note_on_c, 1, 78, 0
3, 8460, Note_on_c, 1, 76, 64
3, 8505, Note_on_c, 1, 76, 0
3, 8505, Note_on_c, 1, 78, 64
3, 8520, Note_on_c, 1, 78, 0
3, 8520, Note_on_c, 1, 76, 64
3, 8565, Note_on_c, 1, 76, 0
3, 8565, Note_on_c, 1, 78, 64
3, 8580, Note_on_c, 1, 78, 0
3, 8580, Note_on_c, 1, 76, 64
3, 8625, Note_on_c, 1, 76, 0
3, 8625, Note_on_c, 1, 78, 64
3, 8640, Note_on_c, 1, 78, 0
3, 8640, Note_on_c, 1, 76, 64
3, 8685, Note_on_c, 1, 76, 0
3, 8685, Note_on_c, 1, 78, 64
3, 8700, Note_on_c, 1, 78, 0
3, 8700, Note_on_c, 1, 76, 64
3, 8745, Note_on_c, 1, 76, 0
3, 8745, Note_on_c, 1, 78, 64
3, 8760, Note_on_c, 1, 78, 0
3, 8760, Note_on_c, 1, 76, 64
3, 8805, Note_on_c, 1, 76, 0
3, 8805, Note_on_c, 1, 78, 64
3, 8820, Note_on_c, 1, 78, 0
3, 8820, Note_on_c, 1, 76, 64
3, 8865, Note_on_c, 1, 76, 0
3, 8865, Note_on_c, 1, 78, 64
3, 8880, Note_on_c, 1, 78, 0
3, 8880, Note_on_c, 1, 76, 64
3, 8925, Note_on_c, 1, 76, 0
3, 8925, Note_on_c, 1, 78, 64
3, 8940, Note_on_c, 1, 78, 0
3, 8940, Note_on_c, 1, 76, 64
3, 8985, Note_on_c, 1, 76, 0
3, 8985, Note_on_c, 1, 75, 64
3, 9000, Note_on_c, 1, 75, 0
3, 9000, Note_on_c, 1, 73, 64
3, 9045, Note_on_c, 1, 73, 0
3, 9045, Note_on_c, 1, 75, 64
3, 9060, Note_on_c, 1, 75, 0
3, 9060, Note_on_c, 1, 73, 64
3, 9105, Note_on_c, 1, 73, 0
3, 9105, Note_on_c, 1, 75, 64
3, 9120, Note_on_c, 1, 75, 0
3, 9120, Note_on_c, 1, 73, 64
3, 9165, Note_on_c, 1, 73, 0
3, 9165, Note_on_c, 1, 75, 64
3, 9180, Note_on_c, 1, 75, 0
3, 9180, Note_on_c, 1, 73, 64
3, 9225, Note_on_c, 1, 73, 0
3, 9225, Note_on_c, 1, 75, 64
3, 9240, Note_on_c, 1, 75, 0
3, 9240, Note_on_c, 1, 73, 64
3, 9285, Note_on_c, 1, 73, 0
3, 9285, Note_on_c, 1, 75, 64
3, 9300, Note_on_c, 1, 75, 0
3, 9300, Note_on_c, 1, 76, 64
3, 9345, Note_on_c, 1, 76, 0
3, 9345, Note_on_c, 1, 73, 64
3, 9360, Note_on_c, 1, 73, 0
3, 9360, Note_on_c, 1, 78, 64
3, 9405, Note_on_c, 1, 78, 0
3, 9405, Note_on_c, 1, 80, 64
3, 9420, Note_on_c, 1, 80, 0
3, 9420, Note_on_c, 1, 78, 64
3, 9465, Note_on_c, 1, 78, 0
3, 9465, Note_on_c, 1, 80, 64
3, 9480, Note_on_c, 1, 80, 0
3, 9480, Note_on_c, 1, 78, 64
3, 9525, Note_on_c, 1, 78, 0
3, 9525, Note_on_c, 1, 80, 64
3, 9540, Note_on_c, 1, 80, 0
3, 9540, Note_on_c, 1, 78, 64
3, 9585, Note_on_c, 1, 78, 0
3, 9585, Note_on_c, 1, 80, 64
3, 9600, Note_on_c, 1, 80, 0
3, 9600, Note_on_c, 1, 78, 64
3, 9645, Note_on_c, 1, 78, 0
3, 9645, Note_on_c, 1, 80, 64
3, 9660, Note_on_c, 1, 80, 0
3, 9660, Note_on_c, 1, 78, 64
3, 9705, Note_on_c, 1, 78, 0
3, 9705, Note_on_c, 1, 76, 64
3, 9720, Note_on_c, 1, 76, 0
3, 9720, Note_on_c, 1, 75, 64
3, 9765, Note_on_c, 1, 75, 0
3, 9765, Note_on_c, 1, 76, 64
3, 9780, Note_on_c, 1, 76, 0
3, 9780, Note_on_c, 1, 75, 64
3, 9825, Note_on_c, 1, 75, 0
3, 9825, Note_on_c, 1, 76, 64
3, 9840, Note_on_c, 1, 76, 0
3, 9840, Note_on_c, 1, 75, 64
3, 9885, Note_on_c, 1, 75, 0
3, 9885, Note_on_c, 1, 76, 64
3, 9900, Note_on_c, 1, 76, 0
3, 9900, Note_on_c, 1, 75, 64
3, 9945, Note_on_c, 1, 75, 0
3, 9945, Note_on_c, 1, 76, 64
3, 9960, Note_on_c, 1, 76, 0
3, 9960, Note_on_c, 1, 75, 64
3, 10005, Note_on_c, 1, 75, 0
3, 10005, Note_on_c, 1, 76, 64
3, 10020, Note_on_c, 1, 76, 0
3, 10020, Note_on_c, 1, 78, 64
3, 10065, Note_on_c, 1, 78, 0
3, 10065, Note_on_c, 1, 75, 64
3, 10080, Note_on_c, 1, 75, 0
3, 10080, Note_on_c, 1, 80, 64
3, 10125, Note_on_c, 1, 80, 0
3, 10125, Note_on_c, 1, 81, 64
3, 10140, Note_on_c, 1, 81, 0
3, 10140, Note_on_c, 1, 80, 64
3, 10185, Note_on_c, 1, 80, 0
3, 10185, Note_on_c, 1, 81, 64
3, 10200, Note_on_c, 1, 81, 0
3, 10200, Note_on_c, 1, 80, 64
3, 10245, Note_on_c, 1, 80, 0
3, 10245, Note_on_c, 1, 81, 64
3, 10260, Note_on_c, 1, 81, 0
3, 10260, Note_on_c, 1, 80, 64
3, 10305, Note_on_c, 1, 80, 0
3, 10305, Note_on_c, 1, 81, 64
3, 10320, Note_on_c, 1, 81, 0
3, 10320, Note_on_c, 1, 80, 64
3, 10365, Note_on_c, 1, 80, 0
3, 10365, Note_on_c, 1, 81, 64
3, 10380, Note_on_c, 1, 81, 0
3, 10380, Note_on_c, 1, 80, 64
3, 10425, Note_on_c, 1, 80, 0
3, 10425, Note_on_c, 1, 81, 64
3, 10440, Note_on_c, 1, 81, 0
3, 10440, Note_on_c, 1, 80, 64
3, 10485, Note_on_c, 1, 80, 0
3, 10485, Note_on_c, 1, 81, 64
3, 10500, Note_on_c, 1, 81, 0
3, 10500, Note_on_c, 1, 80, 64
3, 10545, Note_on_c, 1, 80, 0
3, 10545, Note_on_c, 1, 81, 64
3, 10560, Note_on_c, 1, 81, 0
3, 10560, Note_on_c, 1, 80, 64
3, 10605, Note_on_c, 1, 80, 0
3, 10605, Note_on_c, 1, 81, 64
3, 10620, Note_on_c, 1, 81, 0
3, 10620, Note_on_c, 1, 80, 64
3, 10665, Note_on_c, 1, 80, 0
3, 10665, Note_on_c, 1, 81, 64
3, 10680, Note_on_c, 1, 81, 0
3, 10680, Note_on_c, 1, 80, 64
3, 10725, Note_on_c, 1, 80, 0
3, 10725, Note_on_c, 1, 81, 64
3, 10740, Note_on_c, 1, 81, 0
3, 10740, Note_on_c, 1, 80, 64
3, 10785, Note_on_c, 1, 80, 0
3, 10785, Note_on_c, 1, 81, 64
3, 10800, Note_on_c, 1, 81, 0
3, 10800, Note_on_c, 1, 69, 64
3, 10845, Note_on_c, 1, 69, 0
3, 10845, Note_on_c, 1, 71, 64
3, 10860, Note_on_c, 1, 71, 0
3, 10860, Note_on_c, 1, 69, 64
3, 10905, Note_on_c, 1, 69, 0
3, 10905, Note_on_c, 1, 71, 64
3, 10920, Note_on_c, 1, 71, 0
3, 10920, Note_on_c, 1, 69, 64
3, 10965, Note_on_c, 1, 69, 0
3, 10965, Note_on_c, 1, 71, 64
3, 10980, Note_on_c, 1, 71, 0
3, 10980, Note_on_c, 1, 69, 64
3, 11025, Note_on_c, 1, 69, 0
3, 11025, Note_on_c, 1, 71, 64
3, 11040, Note_on_c, 1, 71, 0
3, 11040, Note_on_c, 1, 69, 64
3, 11085, Note_on_c, 1, 69, 0
3, 11085, Note_on_c, 1, 71, 64
3, 11100, Note_on_c, 1, 71, 0
3, 11100, Note_on_c, 1, 69, 64
3, 11145, Note_on_c, 1, 69, 0
3, 11145, Note_on_c, 1, 73, 64
3, 11160, Note_on_c, 1, 73, 0
3, 11160, Note_on_c, 1, 75, 64
3, 11205, Note_on_c, 1, 75, 0
3, 11205, Note_on_c, 1, 76, 64
3, 11220, Note_on_c, 1, 76, 0
3, 11220, Note_on_c, 1, 75, 64
3, 11265, Note_on_c, 1, 75, 0
3, 11265, Note_on_c, 1, 76, 64
3, 11280, Note_on_c, 1, 76, 0
3, 11280, Note_on_c, 1, 75, 64
3, 11325, Note_on_c, 1, 75, 0
3, 11325, Note_on_c, 1, 76, 64
3, 11340, Note_on_c, 1, 76, 0
3, 11340, Note_on_c, 1, 75, 64
3, 11385, Note_on_c, 1, 75, 0
3, 11385, Note_on_c, 1, 76, 64
3, 11400, Note_on_c, 1, 76, 0
3, 11400, Note_on_c, 1, 75, 64
3, 11445, Note_on_c, 1, 75, 0
3, 11445, Note_on_c, 1, 76, 64
3, 11460, Note_on_c, 1, 76, 0
3, 11460, Note_on_c, 1, 75, 64
3, 11505, Note_on_c, 1, 75, 0
3, 11505, Note_on_c, 1, 76, 64
3, 11520, Note_on_c, 1, 76, 0
3, 11520, Note_on_c, 1, 73, 64
3, 11565, Note_on_c, 1, 73, 0
3, 11565, Note_on_c, 1, 75, 64
3, 11580, Note_on_c, 1, 75, 0
3, 11580, Note_on_c, 1, 73, 64
3, 11625, Note_on_c, 1, 73, 0
3, 11625, Note_on_c, 1, 75, 64
3, 11640, Note_on_c, 1, 75, 0
3, 11640, Note_on_c, 1, 72, 64
3, 11685, Note_on_c, 1, 72, 0
3, 11685, Note_on_c, 1, 73, 64
3, 11700, Note_on_c, 1, 73, 0
3, 11700, Note_on_c, 1, 72, 64
3, 11745, Note_on_c, 1, 72, 0
3, 11745, Note_on_c, 1, 73, 64
3, 11760, Note_on_c, 1, 73, 0
3, 11760, Note_on_c, 1, 72, 64
3, 11805, Note_on_c, 1, 72, 0
3, 11805, Note_on_c, 1, 73, 64
3, 11820, Note_on_c, 1, 73, 0
3, 11820, Note_on_c, 1, 72, 64
3, 11865, Note_on_c, 1, 72, 0
3, 11865, Note_on_c, 1, 75, 64
3, 11880, Note_on_c, 1, 75, 0
3, 11880, Note_on_c, 1, 76, 64
3, 11925, Note_on_c, 1, 76, 0
3, 11925, Note_on_c, 1, 78, 64
3, 11940, Note_on_c, 1, 78, 0
3, 11940, Note_on_c, 1, 76, 64
3, 11985, Note_on_c, 1, 76, 0
3, 11985, Note_on_c, 1, 78, 64
3, 12000, Note_on_c, 1, 78, 0
3, 12000, Note_on_c, 1, 76, 64
3, 12045, Note_on_c, 1, 76, 0
3, 12045, Note_on_c, 1, 78, 64
3, 12060, Note_on_c, 1, 78, 0
3, 12060, Note_on_c, 1, 76, 64
3, 12105, Note_on_c, 1, 76, 0
3, 12105, Note_on_c, 1, 78, 64
3, 12120, Note_on_c, 1, 78, 0
3, 12120, Note_on_c, 1, 76, 64
3, 12165, Note_on_c, 1, 76, 0
3, 12165, Note_on_c, 1, 78, 64
3, 12180, Note_on_c, 1, 78, 0
3, 12180, Note_on_c, 1, 76, 64
3, 12225, Note_on_c, 1, 76, 0
3, 12225, Note_on_c, 1, 78, 64
3, 12240, Note_on_c, 1, 78, 0
3, 12240, Note_on_c, 1, 69, 64
3, 12285, Note_on_c, 1, 69, 0
3, 12285, Note_on_c, 1, 71, 64
3, 12300, Note_on_c, 1, 71, 0
3, 12300, Note_on_c, 1, 69, 64
3, 12345, Note_on_c, 1, 69, 0
3, 12345, Note_on_c, 1, 71, 64
3, 12360, Note_on_c, 1, 71, 0
3, 12360, Note_on_c, 1, 69, 64
3, 12405, Note_on_c, 1, 69, 0
3, 12405, Note_on_c, 1, 71, 64
3, 12420, Note_on_c, 1, 71, 0
3, 12420, Note_on_c, 1, 69, 64
3, 12465, Note_on_c, 1, 69, 0
3, 12465, Note_on_c, 1, 71, 64
3, 12480, Note_on_c, 1, 71, 0
3, 12480, Note_on_c, 1, 69, 64
3, 12525, Note_on_c, 1, 69, 0
3, 12525, Note_on_c, 1, 71, 64
3, 12540, Note_on_c, 1, 71, 0
3, 12540, Note_on_c, 1, 69, 64
3, 12585, Note_on_c, 1, 69, 0
3, 12585, Note_on_c, 1, 73, 64
3, 12600, Note_on_c, 1, 73, 0
3, 12600, Note_on_c, 1, 75, 64
3, 12645, Note_on_c, 1, 75, 0
3, 12645, Note_on_c, 1, 76, 64
3, 12660, Note_on_c, 1, 76, 0
3, 12660, Note_on_c, 1, 75, 64
3, 12705, Note_on_c, 1, 75, 0
3, 12705, Note_on_c, 1, 76, 64
3, 12720, Note_on_c, 1, 76, 0
3, 12720, Note_on_c, 1, 75, 64
3, 12765, Note_on_c, 1, 75, 0
3, 12765, Note_on_c, 1, 76, 64
3, 12780, Note_on_c, 1, 76, 0
3, 12780, Note_on_c, 1, 75, 64
3, 12825, Note_on_c, 1, 75, 0
3, 12825, Note_on_c, 1, 76, 64
3, 12840, Note_on_c, 1, 76, 0
3, 12840, Note_on_c, 1, 75, 64
3, 12885, Note_on_c, 1, 75, 0
3, 12885, Note_on_c, 1, 76, 64
3, 12900, Note_on_c, 1, 76, 0
3, 12900, Note_on_c, 1, 75, 64
3, 12945, Note_on_c, 1, 75, 0
3, 12945, Note_on_c, 1, 76, 64
3, 12960, Note_on_c, 1, 76, 0
3, 12960, Note_on_c, 1, 73, 64
3, 13005, Note_on_c, 1, 73, 0
3, 13005, Note_on_c, 1, 75, 64
3, 13020, Note_on_c, 1, 75, 0
3, 13020, Note_on_c, 1, 73, 64
3, 13065, Note_on_c, 1, 73, 0
3, 13065, Note_on_c, 1, 75, 64
3, 13080, Note_on_c, 1, 75, 0
3, 13080, Note_on_c, 1, 72, 64
3, 13125, Note_on_c, 1, 72, 0
3, 13125, Note_on_c, 1, 73, 64
3, 13140, Note_on_c, 1, 73, 0
3, 13140, Note_on_c, 1, 72, 64
3, 13185, Note_on_c, 1, 72, 0
3, 13185, Note_on_c, 1, 73, 64
3, 13200, Note_on_c, 1, 73, 0
3, 13200, Note_on_c, 1, 72, 64
3, 13245, Note_on_c, 1, 72, 0
3, 13245, Note_on_c, 1, 73, 64
3, 13260, Note_on_c, 1, 73, 0
3, 13260, Note_on_c, 1, 72, 64
3, 13305, Note_on_c, 1, 72, 0
3, 13305, Note_on_c, 1, 75, 64
3, 13320, Note_on_c, 1, 75, 0
3, 13320, Note_on_c, 1, 76, 64
3, 13365, Note_on_c, 1, 76, 0
3, 13365, Note_on_c, 1, 78, 64
3, 13380, Note_on_c, 1, 78, 0
3, 13380, Note_on_c, 1, 76, 64
3, 13425, Note_on_c, 1, 76, 0
3, 13425, Note_on_c, 1, 78, 64
3, 13440, Note_on_c, 1, 78, 0
3, 13440, Note_on_c, 1, 76, 64
3, 13485, Note_on_c, 1, 76, 0
3, 13485, Note_on_c, 1, 78, 64
3, 13500, Note_on_c, 1, 78, 0
3, 13500, Note_on_c, 1, 76, 64
3, 13545, Note_on_c, 1, 76, 0
3, 13545, Note_on_c, 1, 78, 64
3, 13560, Note_on_c, 1, 78, 0
3, 13560, Note_on_c, 1, 76, 64
3, 13605, Note_on_c, 1, 76, 0
3, 13605, Note_on_c, 1, 78, 64
3, 13620, Note_on_c, 1, 78, 0
3, 13620, Note_on_c, 1, 76, 64
3, 13665, Note_on_c, 1, 76, 0
3, 13665, Note_on_c, 1, 78, 64
3, 13680, Note_on_c, 1, 78, 0
3, 13680, Note_on_c, 1, 64, 64
3, 13725, Note_on_c, 1, 64, 0
3, 13725, Note_on_c, 1, 66, 64
3, 13740, Note_on_c, 1, 66, 0
3, 13740, Note_on_c, 1, 64, 64
3, 13785, Note_on_c, 1, 64, 0
3, 13785, Note_on_c, 1, 66, 64
3, 13800, Note_on_c, 1, 66, 0
3, 13800, Note_on_c, 1, 64, 64
3, 13845, Note_on_c, 1, 64, 0
3, 13845, Note_on_c, 1, 66, 64
3, 13860, Note_on_c, 1, 66, 0
3, 13860, Note_on_c, 1, 64, 64
3, 13905, Note_on_c, 1, 64, 0
3, 13905, Note_on_c, 1, 66, 64
3, 13920, Note_on_c, 1, 66, 0
3, 13920, Note_on_c, 1, 64, 64
3, 13965, Note_on_c, 1, 64, 0
3, 13965, Note_on_c, 1, 66, 64
3, 13980, Note_on_c, 1, 66, 0
3, 13980, Note_on_c, 1, 64, 64
3, 14025, Note_on_c, 1, 64, 0
3, 14025, Note_on_c, 1, 66, 64
3, 14040, Note_on_c, 1, 66, 0
3, 14040, Note_on_c, 1, 64, 64
3, 14415, Note_on_c, 1, 64, 0
3, 14761, Program_c, 1, 0
3, 14762, Control_c, 1, 7, 100
3, 14763, Control_c, 1, 10, 64
3, 14764, Control_c, 1, 93, 0
3, 14765, Control_c, 1, 91, 40
3, 14766, Control_c, 1, 99, 1
3, 14767, Control_c, 1, 98, 8
3, 14768, Control_c, 1, 6, 64
3, 14769, Control_c, 1, 99, 1
3, 14770, Control_c, 1, 98, 10
3, 14771, Control_c, 1, 6, 64
3, 14772, Control_c, 1, 99, 1
3, 14773, Control_c, 1, 98, 9
3, 14774, Control_c, 1, 6, 64
3, 14775, Pitch_bend_c, 1, 8192
3, 14775, End_track
4, 0, Start_track
4, 0, MIDI_port, 1
4, 0, Title_t, "   Orchestra"
4, 0, Program_c, 5, 48
4, 0, Control_c, 5, 7, 60
4, 0, Control_c, 5, 10, 20
4, 0, Control_c, 5, 93, 0
4, 0, Control_c, 5, 91, 120
4, 360, Note_on_c, 5, 68, 64
4, 405, Note_on_c, 5, 68, 0
4, 405, Note_on_c, 5, 69, 64
4, 420, Note_on_c, 5, 69, 0
4, 420, Note_on_c, 5, 68, 64
4, 465, Note_on_c, 5, 68, 0
4, 465, Note_on_c, 5, 69, 64
4, 480, Note_on_c, 5, 69, 0
4, 480, Note_on_c, 5, 68, 64
4, 525, Note_on_c, 5, 68, 0
4, 525, Note_on_c, 5, 69, 64
4, 540, Note_on_c, 5, 69, 0
4, 540, Note_on_c, 5, 68, 64
4, 585, Note_on_c, 5, 68, 0
4, 585, Note_on_c, 5, 69, 64
4, 600, Note_on_c, 5, 69, 0
4, 600, Note_on_c, 5, 68, 64
4, 645, Note_on_c, 5, 68, 0
4, 645, Note_on_c, 5, 73, 64
4, 660, Note_on_c, 5, 73, 0
4, 660, Note_on_c, 5, 71, 64
4, 705, Note_on_c, 5, 71, 0
4, 705, Note_on_c, 5, 69, 64
4, 720, Note_on_c, 5, 69, 0
4, 720, Note_on_c, 5, 68, 64
4, 765, Note_on_c, 5, 68, 0
4, 765, Note_on_c, 5, 69, 64
4, 780, Note_on_c, 5, 69, 0
4, 780, Note_on_c, 5, 68, 64
4, 825, Note_on_c, 5, 68, 0
4, 825, Note_on_c, 5, 69, 64
4, 840, Note_on_c, 5, 69, 0
4, 840, Note_on_c, 5, 68, 64
4, 885, Note_on_c, 5, 68, 0
4, 885, Note_on_c, 5, 69, 64
4, 900, Note_on_c, 5, 69, 0
4, 900, Note_on_c, 5, 68, 64
4, 945, Note_on_c, 5, 68, 0
4, 945, Note_on_c, 5, 69, 64
4, 960, Note_on_c, 5, 69, 0
4, 960, Note_on_c, 5, 68, 64
4, 1005, Note_on_c, 5, 68, 0
4, 1005, Note_on_c, 5, 73, 64
4, 1020, Note_on_c, 5, 73, 0
4, 1020, Note_on_c, 5, 71, 64
4, 1065, Note_on_c, 5, 71, 0
4, 1065, Note_on_c, 5, 69, 64
4, 1080, Note_on_c, 5, 69, 0
4, 1080, Note_on_c, 5, 68, 64
4, 1125, Note_on_c, 5, 68, 0
4, 1125, Note_on_c, 5, 69, 64
4, 1140, Note_on_c, 5, 69, 0
4, 1140, Note_on_c, 5, 68, 64
4, 1185, Note_on_c, 5, 68, 0
4, 1185, Note_on_c, 5, 69, 64
4, 1200, Note_on_c, 5, 69, 0
4, 1200, Note_on_c, 5, 68, 64
4, 1245, Note_on_c, 5, 68, 0
4, 1245, Note_on_c, 5, 69, 64
4, 1260, Note_on_c, 5, 69, 0
4, 1260, Note_on_c, 5, 68, 64
4, 1305, Note_on_c, 5, 68, 0
4, 1305, Note_on_c, 5, 69, 64
4, 1320, Note_on_c, 5, 69, 0
4, 1320, Note_on_c, 5, 68, 64
4, 1365, Note_on_c, 5, 68, 0
4, 1365, Note_on_c, 5, 69, 64
4, 1380, Note_on_c, 5, 69, 0
4, 1380, Note_on_c, 5, 72, 64
4, 1425, Note_on_c, 5, 72, 0
4, 1425, Note_on_c, 5, 73, 64
4, 1440, Note_on_c, 5, 73, 0
4, 1440, Note_on_c, 5, 75, 64
4, 1485, Note_on_c, 5, 75, 0
4, 1485, Note_on_c, 5, 76, 64
4, 1500, Note_on_c, 5, 76, 0
4, 1500, Note_on_c, 5, 75, 64
4, 1545, Note_on_c, 5, 75, 0
4, 1545, Note_on_c, 5, 76, 64
4, 1560, Note_on_c, 5, 76, 0
4, 1560, Note_on_c, 5, 75, 64
4, 1605, Note_on_c, 5, 75, 0
4, 1605, Note_on_c, 5, 76, 64
4, 1620, Note_on_c, 5, 76, 0
4, 1620, Note_on_c, 5, 75, 64
4, 1665, Note_on_c, 5, 75, 0
4, 1665, Note_on_c, 5, 76, 64
4, 1680, Note_on_c, 5, 76, 0
4, 1680, Note_on_c, 5, 75, 64
4, 1725, Note_on_c, 5, 75, 0
4, 1725, Note_on_c, 5, 80, 64
4, 1740, Note_on_c, 5, 80, 0
4, 1740, Note_on_c, 5, 78, 64
4, 1785, Note_on_c, 5, 78, 0
4, 1785, Note_on_c, 5, 76, 64
4, 1800, Note_on_c, 5, 76, 0
4, 1800, Note_on_c, 5, 75, 64
4, 1845, Note_on_c, 5, 75, 0
4, 1845, Note_on_c, 5, 76, 64
4, 1860, Note_on_c, 5, 76, 0
4, 1860, Note_on_c, 5, 75, 64
4, 1905, Note_on_c, 5, 75, 0
4, 1905, Note_on_c, 5, 76, 64
4, 1920, Note_on_c, 5, 76, 0
4, 1920, Note_on_c, 5, 75, 64
4, 1965, Note_on_c, 5, 75, 0
4, 1965, Note_on_c, 5, 76, 64
4, 1980, Note_on_c, 5, 76, 0
4, 1980, Note_on_c, 5, 75, 64
4, 2025, Note_on_c, 5, 75, 0
4, 2025, Note_on_c, 5, 76, 64
4, 2040, Note_on_c, 5, 76, 0
4, 2040, Note_on_c, 5, 75, 64
4, 2085, Note_on_c, 5, 75, 0
4, 2085, Note_on_c, 5, 80, 64
4, 2100, Note_on_c, 5, 80, 0
4, 2100, Note_on_c, 5, 78, 64
4, 2145, Note_on_c, 5, 78, 0
4, 2145, Note_on_c, 5, 76, 64
4, 2160, Note_on_c, 5, 76, 0
4, 2160, Note_on_c, 5, 75, 64
4, 2205, Note_on_c, 5, 75, 0
4, 2205, Note_on_c, 5, 76, 64
4, 2220, Note_on_c, 5, 76, 0
4, 2220, Note_on_c, 5, 75, 64
4, 2265, Note_on_c, 5, 75, 0
4, 2265, Note_on_c, 5, 76, 64
4, 2280, Note_on_c, 5, 76, 0
4, 2280, Note_on_c, 5, 75, 64
4, 2325, Note_on_c, 5, 75, 0
4, 2325, Note_on_c, 5, 76, 64
4, 2340, Note_on_c, 5, 76, 0
4, 2340, Note_on_c, 5, 75, 64
4, 2385, Note_on_c, 5, 75, 0
4, 2385, Note_on_c, 5, 76, 64
4, 2400, Note_on_c, 5, 76, 0
4, 2400, Note_on_c, 5, 75, 64
4, 2445, Note_on_c, 5, 75, 0
4, 2445, Note_on_c, 5, 76, 64
4, 2460, Note_on_c, 5, 76, 0
4, 2460, Note_on_c, 5, 78, 64
4, 2505, Note_on_c, 5, 78, 0
4, 2505, Note_on_c, 5, 75, 64
4, 2520, Note_on_c, 5, 75, 0
4, 2520, Note_on_c, 5, 76, 64
4, 2565, Note_on_c, 5, 76, 0
4, 2565, Note_on_c, 5, 78, 64
4, 2580, Note_on_c, 5, 78, 0
4, 2580, Note_on_c, 5, 76, 64
4, 2625, Note_on_c, 5, 76, 0
4, 2625, Note_on_c, 5, 78, 64
4, 2640, Note_on_c, 5, 78, 0
4, 2640, Note_on_c, 5, 76, 64
4, 2685, Note_on_c, 5, 76, 0
4, 2685, Note_on_c, 5, 78, 64
4, 2700, Note_on_c, 5, 78, 0
4, 2700, Note_on_c, 5, 76, 64
4, 2745, Note_on_c, 5, 76, 0
4, 2745, Note_on_c, 5, 78, 64
4, 2760, Note_on_c, 5, 78, 0
4, 2760, Note_on_c, 5, 76, 64
4, 2805, Note_on_c, 5, 76, 0
4, 2805, Note_on_c, 5, 78, 64
4, 2820, Note_on_c, 5, 78, 0
4, 2820, Note_on_c, 5, 76, 64
4, 2865, Note_on_c, 5, 76, 0
4, 2865, Note_on_c, 5, 78, 64
4, 2880, Note_on_c, 5, 78, 0
4, 2880, Note_on_c, 5, 64, 64
4, 2925, Note_on_c, 5, 64, 0
4, 2925, Note_on_c, 5, 66, 64
4, 2940, Note_on_c, 5, 66, 0
4, 2940, Note_on_c, 5, 64, 64
4, 2985, Note_on_c, 5, 64, 0
4, 2985, Note_on_c, 5, 66, 64
4, 3000, Note_on_c, 5, 66, 0
4, 3000, Note_on_c, 5, 64, 64
4, 3045, Note_on_c, 5, 64, 0
4, 3045, Note_on_c, 5, 66, 64
4, 3060, Note_on_c, 5, 66, 0
4, 3060, Note_on_c, 5, 64, 64
4, 3105, Note_on_c, 5, 64, 0
4, 3105, Note_on_c, 5, 66, 64
4, 3120, Note_on_c, 5, 66, 0
4, 3120, Note_on_c, 5, 64, 64
4, 3165, Note_on_c, 5, 64, 0
4, 3165, Note_on_c, 5, 66, 64
4, 3180, Note_on_c, 5, 66, 0
4, 3180, Note_on_c, 5, 64, 64
4, 3225, Note_on_c, 5, 64, 0
4, 3225, Note_on_c, 5, 66, 64
4, 3240, Note_on_c, 5, 66, 0
4, 3240, Note_on_c, 5, 76, 64
4, 3285, Note_on_c, 5, 76, 0
4, 3285, Note_on_c, 5, 78, 64
4, 3300, Note_on_c, 5, 78, 0
4, 3300, Note_on_c, 5, 76, 64
4, 3345, Note_on_c, 5, 76, 0
4, 3345, Note_on_c, 5, 78, 64
4, 3360, Note_on_c, 5, 78, 0
4, 3360, Note_on_c, 5, 76, 64
4, 3405, Note_on_c, 5, 76, 0
4, 3405, Note_on_c, 5, 78, 64
4, 3420, Note_on_c, 5, 78, 0
4, 3420, Note_on_c, 5, 76, 64
4, 3465, Note_on_c, 5, 76, 0
4, 3465, Note_on_c, 5, 78, 64
4, 3480, Note_on_c, 5, 78, 0
4, 3480, Note_on_c, 5, 76, 64
4, 3525, Note_on_c, 5, 76, 0
4, 3525, Note_on_c, 5, 78, 64
4, 3540, Note_on_c, 5, 78, 0
4, 3540, Note_on_c, 5, 76, 64
4, 3585, Note_on_c, 5, 76, 0
4, 3585, Note_on_c, 5, 78, 64
4, 3600, Note_on_c, 5, 78, 0
4, 3600, Note_on_c, 5, 75, 64
4, 3645, Note_on_c, 5, 75, 0
4, 3645, Note_on_c, 5, 76, 64
4, 3660, Note_on_c, 5, 76, 0
4, 3660, Note_on_c, 5, 75, 64
4, 3705, Note_on_c, 5, 75, 0
4, 3705, Note_on_c, 5, 76, 64
4, 3720, Note_on_c, 5, 76, 0
4, 3720, Note_on_c, 5, 75, 64
4, 3765, Note_on_c, 5, 75, 0
4, 3765, Note_on_c, 5, 76, 64
4, 3780, Note_on_c, 5, 76, 0
4, 3780, Note_on_c, 5, 75, 64
4, 3825, Note_on_c, 5, 75, 0
4, 3825, Note_on_c, 5, 76, 64
4, 3840, Note_on_c, 5, 76, 0
4, 3840, Note_on_c, 5, 75, 64
4, 3885, Note_on_c, 5, 75, 0
4, 3885, Note_on_c, 5, 76, 64
4, 3900, Note_on_c, 5, 76, 0
4, 3900, Note_on_c, 5, 75, 64
4, 3945, Note_on_c, 5, 75, 0
4, 3945, Note_on_c, 5, 76, 64
4, 3960, Note_on_c, 5, 76, 0
4, 3960, Note_on_c, 5, 75, 64
4, 4005, Note_on_c, 5, 75, 0
4, 4005, Note_on_c, 5, 76, 64
4, 4020, Note_on_c, 5, 76, 0
4, 4020, Note_on_c, 5, 75, 64
4, 4065, Note_on_c, 5, 75, 0
4, 4065, Note_on_c, 5, 76, 64
4, 4080, Note_on_c, 5, 76, 0
4, 4080, Note_on_c, 5, 75, 64
4, 4125, Note_on_c, 5, 75, 0
4, 4125, Note_on_c, 5, 76, 64
4, 4140, Note_on_c, 5, 76, 0
4, 4140, Note_on_c, 5, 75, 64
4, 4185, Note_on_c, 5, 75, 0
4, 4185, Note_on_c, 5, 76, 64
4, 4200, Note_on_c, 5, 76, 0
4, 4200, Note_on_c, 5, 75, 64
4, 4245, Note_on_c, 5, 75, 0
4, 4245, Note_on_c, 5, 76, 64
4, 4260, Note_on_c, 5, 76, 0
4, 4260, Note_on_c, 5, 75, 64
4, 4305, Note_on_c, 5, 75, 0
4, 4305, Note_on_c, 5, 76, 64
4, 4320, Note_on_c, 5, 76, 0
4, 4320, Note_on_c, 5, 73, 64
4, 4365, Note_on_c, 5, 73, 0
4, 4365, Note_on_c, 5, 75, 64
4, 4380, Note_on_c, 5, 75, 0
4, 4380, Note_on_c, 5, 73, 64
4, 4425, Note_on_c, 5, 73, 0
4, 4425, Note_on_c, 5, 75, 64
4, 4440, Note_on_c, 5, 75, 0
4, 4440, Note_on_c, 5, 73, 64
4, 4485, Note_on_c, 5, 73, 0
4, 4485, Note_on_c, 5, 75, 64
4, 4500, Note_on_c, 5, 75, 0
4, 4500, Note_on_c, 5, 73, 64
4, 4545, Note_on_c, 5, 73, 0
4, 4545, Note_on_c, 5, 75, 64
4, 4560, Note_on_c, 5, 75, 0
4, 4560, Note_on_c, 5, 73, 64
4, 4605, Note_on_c, 5, 73, 0
4, 4605, Note_on_c, 5, 75, 64
4, 4620, Note_on_c, 5, 75, 0
4, 4620, Note_on_c, 5, 73, 64
4, 4665, Note_on_c, 5, 73, 0
4, 4665, Note_on_c, 5, 75, 64
4, 4680, Note_on_c, 5, 75, 0
4, 4680, Note_on_c, 5, 73, 64
4, 4725, Note_on_c, 5, 73, 0
4, 4725, Note_on_c, 5, 75, 64
4, 4740, Note_on_c, 5, 75, 0
4, 4740, Note_on_c, 5, 73, 64
4, 4785, Note_on_c, 5, 73, 0
4, 4785, Note_on_c, 5, 75, 64
4, 4800, Note_on_c, 5, 75, 0
4, 4800, Note_on_c, 5, 73, 64
4, 4845, Note_on_c, 5, 73, 0
4, 4845, Note_on_c, 5, 75, 64
4, 4860, Note_on_c, 5, 75, 0
4, 4860, Note_on_c, 5, 73, 64
4, 4905, Note_on_c, 5, 73, 0
4, 4905, Note_on_c, 5, 75, 64
4, 4920, Note_on_c, 5, 75, 0
4, 4920, Note_on_c, 5, 73, 64
4, 4965, Note_on_c, 5, 73, 0
4, 4965, Note_on_c, 5, 75, 64
4, 4980, Note_on_c, 5, 75, 0
4, 4980, Note_on_c, 5, 73, 64
4, 5025, Note_on_c, 5, 73, 0
4, 5025, Note_on_c, 5, 75, 64
4, 5040, Note_on_c, 5, 75, 0
4, 5040, Note_on_c, 5, 72, 64
4, 5085, Note_on_c, 5, 72, 0
4, 5085, Note_on_c, 5, 73, 64
4, 5100, Note_on_c, 5, 73, 0
4, 5100, Note_on_c, 5, 72, 64
4, 5145, Note_on_c, 5, 72, 0
4, 5145, Note_on_c, 5, 73, 64
4, 5160, Note_on_c, 5, 73, 0
4, 5160, Note_on_c, 5, 72, 64
4, 5205, Note_on_c, 5, 72, 0
4, 5205, Note_on_c, 5, 73, 64
4, 5220, Note_on_c, 5, 73, 0
4, 5220, Note_on_c, 5, 72, 64
4, 5265, Note_on_c, 5, 72, 0
4, 5265, Note_on_c, 5, 73, 64
4, 5280, Note_on_c, 5, 73, 0
4, 5280, Note_on_c, 5, 72, 64
4, 5325, Note_on_c, 5, 72, 0
4, 5325, Note_on_c, 5, 73, 64
4, 5340, Note_on_c, 5, 73, 0
4, 5340, Note_on_c, 5, 72, 64
4, 5385, Note_on_c, 5, 72, 0
4, 5385, Note_on_c, 5, 75, 64
4, 5400, Note_on_c, 5, 75, 0
4, 5400, Note_on_c, 5, 76, 64
4, 5445, Note_on_c, 5, 76, 0
4, 5445, Note_on_c, 5, 78, 64
4, 5460, Note_on_c, 5, 78, 0
4, 5460, Note_on_c, 5, 76, 64
4, 5505, Note_on_c, 5, 76, 0
4, 5505, Note_on_c, 5, 78, 64
4, 5520, Note_on_c, 5, 78, 0
4, 5520, Note_on_c, 5, 76, 64
4, 5565, Note_on_c, 5, 76, 0
4, 5565, Note_on_c, 5, 78, 64
4, 5580, Note_on_c, 5, 78, 0
4, 5580, Note_on_c, 5, 76, 64
4, 5625, Note_on_c, 5, 76, 0
4, 5625, Note_on_c, 5, 78, 64
4, 5640, Note_on_c, 5, 78, 0
4, 5640, Note_on_c, 5, 76, 64
4, 5685, Note_on_c, 5, 76, 0
4, 5685, Note_on_c, 5, 78, 64
4, 5700, Note_on_c, 5, 78, 0
4, 5700, Note_on_c, 5, 76, 64
4, 5745, Note_on_c, 5, 76, 0
4, 5745, Note_on_c, 5, 78, 64
4, 5760, Note_on_c, 5, 78, 0
4, 5760, Note_on_c, 5, 75, 64
4, 5805, Note_on_c, 5, 75, 0
4, 5805, Note_on_c, 5, 76, 64
4, 5820, Note_on_c, 5, 76, 0
4, 5820, Note_on_c, 5, 75, 64
4, 5865, Note_on_c, 5, 75, 0
4, 5865, Note_on_c, 5, 76, 64
4, 5880, Note_on_c, 5, 76, 0
4, 5880, Note_on_c, 5, 75, 64
4, 5925, Note_on_c, 5, 75, 0
4, 5925, Note_on_c, 5, 76, 64
4, 5940, Note_on_c, 5, 76, 0
4, 5940, Note_on_c, 5, 75, 64
4, 5985, Note_on_c, 5, 75, 0
4, 5985, Note_on_c, 5, 76, 64
4, 6000, Note_on_c, 5, 76, 0
4, 6000, Note_on_c, 5, 75, 64
4, 6045, Note_on_c, 5, 75, 0
4, 6045, Note_on_c, 5, 76, 64
4, 6060, Note_on_c, 5, 76, 0
4, 6060, Note_on_c, 5, 75, 64
4, 6105, Note_on_c, 5, 75, 0
4, 6105, Note_on_c, 5, 76, 64
4, 6120, Note_on_c, 5, 76, 0
4, 6120, Note_on_c, 5, 75, 64
4, 6165, Note_on_c, 5, 75, 0
4, 6165, Note_on_c, 5, 76, 64
4, 6180, Note_on_c, 5, 76, 0
4, 6180, Note_on_c, 5, 75, 64
4, 6225, Note_on_c, 5, 75, 0
4, 6225, Note_on_c, 5, 76, 64
4, 6240, Note_on_c, 5, 76, 0
4, 6240, Note_on_c, 5, 75, 64
4, 6285, Note_on_c, 5, 75, 0
4, 6285, Note_on_c, 5, 76, 64
4, 6300, Note_on_c, 5, 76, 0
4, 6300, Note_on_c, 5, 75, 64
4, 6345, Note_on_c, 5, 75, 0
4, 6345, Note_on_c, 5, 76, 64
4, 6360, Note_on_c, 5, 76, 0
4, 6360, Note_on_c, 5, 75, 64
4, 6405, Note_on_c, 5, 75, 0
4, 6405, Note_on_c, 5, 76, 64
4, 6420, Note_on_c, 5, 76, 0
4, 6420, Note_on_c, 5, 75, 64
4, 6465, Note_on_c, 5, 75, 0
4, 6465, Note_on_c, 5, 73, 64
4, 6480, Note_on_c, 5, 73, 0
4, 6480, Note_on_c, 5, 71, 64
4, 6525, Note_on_c, 5, 71, 0
4, 6525, Note_on_c, 5, 73, 64
4, 6540, Note_on_c, 5, 73, 0
4, 6540, Note_on_c, 5, 71, 64
4, 6585, Note_on_c, 5, 71, 0
4, 6585, Note_on_c, 5, 73, 64
4, 6600, Note_on_c, 5, 73, 0
4, 6600, Note_on_c, 5, 71, 64
4, 6645, Note_on_c, 5, 71, 0
4, 6645, Note_on_c, 5, 73, 64
4, 6660, Note_on_c, 5, 73, 0
4, 6660, Note_on_c, 5, 71, 64
4, 6705, Note_on_c, 5, 71, 0
4, 6705, Note_on_c, 5, 73, 64
4, 6720, Note_on_c, 5, 73, 0
4, 6720, Note_on_c, 5, 71, 64
4, 6765, Note_on_c, 5, 71, 0
4, 6765, Note_on_c, 5, 76, 64
4, 6780, Note_on_c, 5, 76, 0
4, 6780, Note_on_c, 5, 75, 64
4, 6825, Note_on_c, 5, 75, 0
4, 6825, Note_on_c, 5, 73, 64
4, 6840, Note_on_c, 5, 73, 0
4, 6840, Note_on_c, 5, 71, 64
4, 6885, Note_on_c, 5, 71, 0
4, 6885, Note_on_c, 5, 73, 64
4, 6900, Note_on_c, 5, 73, 0
4, 6900, Note_on_c, 5, 71, 64
4, 6945, Note_on_c, 5, 71, 0
4, 6945, Note_on_c, 5, 73, 64
4, 6960, Note_on_c, 5, 73, 0
4, 6960, Note_on_c, 5, 71, 64
4, 7005, Note_on_c, 5, 71, 0
4, 7005, Note_on_c, 5, 73, 64
4, 7020, Note_on_c, 5, 73, 0
4, 7020, Note_on_c, 5, 71, 64
4, 7065, Note_on_c, 5, 71, 0
4, 7065, Note_on_c, 5, 73, 64
4, 7080, Note_on_c, 5, 73, 0
4, 7080, Note_on_c, 5, 71, 64
4, 7125, Note_on_c, 5, 71, 0
4, 7125, Note_on_c, 5, 73, 64
4, 7140, Note_on_c, 5, 73, 0
4, 7140, Note_on_c, 5, 71, 64
4, 7185, Note_on_c, 5, 71, 0
4, 7185, Note_on_c, 5, 69, 64
4, 7200, Note_on_c, 5, 69, 0
4, 7200, Note_on_c, 5, 68, 64
4, 7245, Note_on_c, 5, 68, 0
4, 7245, Note_on_c, 5, 69, 64
4, 7260, Note_on_c, 5, 69, 0
4, 7260, Note_on_c, 5, 68, 64
4, 7305, Note_on_c, 5, 68, 0
4, 7305, Note_on_c, 5, 69, 64
4, 7320, Note_on_c, 5, 69, 0
4, 7320, Note_on_c, 5, 68, 64
4, 7365, Note_on_c, 5, 68, 0
4, 7365, Note_on_c, 5, 69, 64
4, 7380, Note_on_c, 5, 69, 0
4, 7380, Note_on_c, 5, 68, 64
4, 7425, Note_on_c, 5, 68, 0
4, 7425, Note_on_c, 5, 69, 64
4, 7440, Note_on_c, 5, 69, 0
4, 7440, Note_on_c, 5, 68, 64
4, 7485, Note_on_c, 5, 68, 0
4, 7485, Note_on_c, 5, 73, 64
4, 7500, Note_on_c, 5, 73, 0
4, 7500, Note_on_c, 5, 71, 64
4, 7545, Note_on_c, 5, 71, 0
4, 7545, Note_on_c, 5, 69, 64
4, 7560, Note_on_c, 5, 69, 0
4, 7560, Note_on_c, 5, 68, 64
4, 7605, Note_on_c, 5, 68, 0
4, 7605, Note_on_c, 5, 69, 64
4, 7620, Note_on_c, 5, 69, 0
4, 7620, Note_on_c, 5, 68, 64
4, 7665, Note_on_c, 5, 68, 0
4, 7665, Note_on_c, 5, 69, 64
4, 7680, Note_on_c, 5, 69, 0
4, 7680, Note_on_c, 5, 68, 64
4, 7725, Note_on_c, 5, 68, 0
4, 7725, Note_on_c, 5, 69, 64
4, 7740, Note_on_c, 5, 69, 0
4, 7740, Note_on_c, 5, 68, 64
4, 7785, Note_on_c, 5, 68, 0
4, 7785, Note_on_c, 5, 69, 64
4, 7800, Note_on_c, 5, 69, 0
4, 7800, Note_on_c, 5, 68, 64
4, 7845, Note_on_c, 5, 68, 0
4, 7845, Note_on_c, 5, 69, 64
4, 7860, Note_on_c, 5, 69, 0
4, 7860, Note_on_c, 5, 72, 64
4, 7905, Note_on_c, 5, 72, 0
4, 7905, Note_on_c, 5, 73, 64
4, 7920, Note_on_c, 5, 73, 0
4, 7920, Note_on_c, 5, 75, 64
4, 7965, Note_on_c, 5, 75, 0
4, 7965, Note_on_c, 5, 76, 64
4, 7980, Note_on_c, 5, 76, 0
4, 7980, Note_on_c, 5, 75, 64
4, 8025, Note_on_c, 5, 75, 0
4, 8025, Note_on_c, 5, 76, 64
4, 8040, Note_on_c, 5, 76, 0
4, 8040, Note_on_c, 5, 75, 64
4, 8085, Note_on_c, 5, 75, 0
4, 8085, Note_on_c, 5, 76, 64
4, 8100, Note_on_c, 5, 76, 0
4, 8100, Note_on_c, 5, 75, 64
4, 8145, Note_on_c, 5, 75, 0
4, 8145, Note_on_c, 5, 76, 64
4, 8160, Note_on_c, 5, 76, 0
4, 8160, Note_on_c, 5, 75, 64
4, 8205, Note_on_c, 5, 75, 0
4, 8205, Note_on_c, 5, 76, 64
4, 8220, Note_on_c, 5, 76, 0
4, 8220, Note_on_c, 5, 78, 64
4, 8265, Note_on_c, 5, 78, 0
4, 8265, Note_on_c, 5, 75, 64
4, 8280, Note_on_c, 5, 75, 0
4, 8280, Note_on_c, 5, 76, 64
4, 8325, Note_on_c, 5, 76, 0
4, 8325, Note_on_c, 5, 78, 64
4, 8340, Note_on_c, 5, 78, 0
4, 8340, Note_on_c, 5, 76, 64
4, 8385, Note_on_c, 5, 76, 0
4, 8385, Note_on_c, 5, 78, 64
4, 8400, Note_on_c, 5, 78, 0
4, 8400, Note_on_c, 5, 76, 64
4, 8445, Note_on_c, 5, 76, 0
4, 8445, Note_on_c, 5, 78, 64
4, 8460, Note_on_c, 5, 78, 0
4, 8460, Note_on_c, 5, 76, 64
4, 8505, Note_on_c, 5, 76, 0
4, 8505, Note_on_c, 5, 78, 64
4, 8520, Note_on_c, 5, 78, 0
4, 8520, Note_on_c, 5, 76, 64
4, 8565, Note_on_c, 5, 76, 0
4, 8565, Note_on_c, 5, 78, 64
4, 8580, Note_on_c, 5, 78, 0
4, 8580, Note_on_c, 5, 76, 64
4, 8625, Note_on_c, 5, 76, 0
4, 8625, Note_on_c, 5, 78, 64
4, 8640, Note_on_c, 5, 78, 0
4, 8640, Note_on_c, 5, 76, 64
4, 8685, Note_on_c, 5, 76, 0
4, 8685, Note_on_c, 5, 78, 64
4, 8700, Note_on_c, 5, 78, 0
4, 8700, Note_on_c, 5, 76, 64
4, 8745, Note_on_c, 5, 76, 0
4, 8745, Note_on_c, 5, 78, 64
4, 8760, Note_on_c, 5, 78, 0
4, 8760, Note_on_c, 5, 76, 64
4, 8805, Note_on_c, 5, 76, 0
4, 8805, Note_on_c, 5, 78, 64
4, 8820, Note_on_c, 5, 78, 0
4, 8820, Note_on_c, 5, 76, 64
4, 8865, Note_on_c, 5, 76, 0
4, 8865, Note_on_c, 5, 78, 64
4, 8880, Note_on_c, 5, 78, 0
4, 8880, Note_on_c, 5, 76, 64
4, 8925, Note_on_c, 5, 76, 0
4, 8925, Note_on_c, 5, 78, 64
4, 8940, Note_on_c, 5, 78, 0
4, 8940, Note_on_c, 5, 76, 64
4, 8985, Note_on_c, 5, 76, 0
4, 8985, Note_on_c, 5, 75, 64
4, 9000, Note_on_c, 5, 75, 0
4, 9000, Note_on_c, 5, 73, 64
4, 9045, Note_on_c, 5, 73, 0
4, 9045, Note_on_c, 5, 75, 64
4, 9060, Note_on_c, 5, 75, 0
4, 9060, Note_on_c, 5, 73, 64
4, 9105, Note_on_c, 5, 73, 0
4, 9105, Note_on_c, 5, 75, 64
4, 9120, Note_on_c, 5, 75, 0
4, 9120, Note_on_c, 5, 73, 64
4, 9165, Note_on_c, 5, 73, 0
4, 9165, Note_on_c, 5, 75, 64
4, 9180, Note_on_c, 5, 75, 0
4, 9180, Note_on_c, 5, 73, 64
4, 9225, Note_on_c, 5, 73, 0
4, 9225, Note_on_c, 5, 75, 64
4, 9240, Note_on_c, 5, 75, 0
4, 9240, Note_on_c, 5, 73, 64
4, 9285, Note_on_c, 5, 73, 0
4, 9285, Note_on_c, 5, 75, 64
4, 9300, Note_on_c, 5, 75, 0
4, 9300, Note_on_c, 5, 76, 64
4, 9345, Note_on_c, 5, 76, 0
4, 9345, Note_on_c, 5, 73, 64
4, 9360, Note_on_c, 5, 73, 0
4, 9360, Note_on_c, 5, 78, 64
4, 9405, Note_on_c, 5, 78, 0
4, 9405, Note_on_c, 5, 80, 64
4, 9420, Note_on_c, 5, 80, 0
4, 9420, Note_on_c, 5, 78, 64
4, 9465, Note_on_c, 5, 78, 0
4, 9465, Note_on_c, 5, 80, 64
4, 9480, Note_on_c, 5, 80, 0
4, 9480, Note_on_c, 5, 78, 64
4, 9525, Note_on_c, 5, 78, 0
4, 9525, Note_on_c, 5, 80, 64
4, 9540, Note_on_c, 5, 80, 0
4, 9540, Note_on_c, 5, 78, 64
4, 9585, Note_on_c, 5, 78, 0
4, 9585, Note_on_c, 5, 80, 64
4, 9600, Note_on_c, 5, 80, 0
4, 9600, Note_on_c, 5, 78, 64
4, 9645, Note_on_c, 5, 78, 0
4, 9645, Note_on_c, 5, 80, 64
4, 9660, Note_on_c, 5, 80, 0
4, 9660, Note_on_c, 5, 78, 64
4, 9705, Note_on_c, 5, 78, 0
4, 9705, Note_on_c, 5, 76, 64
4, 9720, Note_on_c, 5, 76, 0
4, 9720, Note_on_c, 5, 75, 64
4, 9765, Note_on_c, 5, 75, 0
4, 9765, Note_on_c, 5, 76, 64
4, 9780, Note_on_c, 5, 76, 0
4, 9780, Note_on_c, 5, 75, 64
4, 9825, Note_on_c, 5, 75, 0
4, 9825, Note_on_c, 5, 76, 64
4, 9840, Note_on_c, 5, 76, 0
4, 9840, Note_on_c, 5, 75, 64
4, 9885, Note_on_c, 5, 75, 0
4, 9885, Note_on_c, 5, 76, 64
4, 9900, Note_on_c, 5, 76, 0
4, 9900, Note_on_c, 5, 75, 64
4, 9945, Note_on_c, 5, 75, 0
4, 9945, Note_on_c, 5, 76, 64
4, 9960, Note_on_c, 5, 76, 0
4, 9960, Note_on_c, 5, 75, 64
4, 10005, Note_on_c, 5, 75, 0
4, 10005, Note_on_c, 5, 76, 64
4, 10020, Note_on_c, 5, 76, 0
4, 10020, Note_on_c, 5, 78, 64
4, 10065, Note_on_c, 5, 78, 0
4, 10065, Note_on_c, 5, 75, 64
4, 10080, Note_on_c, 5, 75, 0
4, 10080, Note_on_c, 5, 80, 64
4, 10125, Note_on_c, 5, 80, 0
4, 10125, Note_on_c, 5, 81, 64
4, 10140, Note_on_c, 5, 81, 0
4, 10140, Note_on_c, 5, 80, 64
4, 10185, Note_on_c, 5, 80, 0
4, 10185, Note_on_c, 5, 81, 64
4, 10200, Note_on_c, 5, 81, 0
4, 10200, Note_on_c, 5, 80, 64
4, 10245, Note_on_c, 5, 80, 0
4, 10245, Note_on_c, 5, 81, 64
4, 10260, Note_on_c, 5, 81, 0
4, 10260, Note_on_c, 5, 80, 64
4, 10305, Note_on_c, 5, 80, 0
4, 10305, Note_on_c, 5, 81, 64
4, 10320, Note_on_c, 5, 81, 0
4, 10320, Note_on_c, 5, 80, 64
4, 10365, Note_on_c, 5, 80, 0
4, 10365, Note_on_c, 5, 81, 64
4, 10380, Note_on_c, 5, 81, 0
4, 10380, Note_on_c, 5, 80, 64
4, 10425, Note_on_c, 5, 80, 0
4, 10425, Note_on_c, 5, 81, 64
4, 10440, Note_on_c, 5, 81, 0
4, 10440, Note_on_c, 5, 80, 64
4, 10485, Note_on_c, 5, 80, 0
4, 10485, Note_on_c, 5, 81, 64
4, 10500, Note_on_c, 5, 81, 0
4, 10500, Note_on_c, 5, 80, 64
4, 10545, Note_on_c, 5, 80, 0
4, 10545, Note_on_c, 5, 81, 64
4, 10560, Note_on_c, 5, 81, 0
4, 10560, Note_on_c, 5, 80, 64
4, 10605, Note_on_c, 5, 80, 0
4, 10605, Note_on_c, 5, 81, 64
4, 10620, Note_on_c, 5, 81, 0
4, 10620, Note_on_c, 5, 80, 64
4, 10665, Note_on_c, 5, 80, 0
4, 10665, Note_on_c, 5, 81, 64
4, 10680, Note_on_c, 5, 81, 0
4, 10680, Note_on_c, 5, 80, 64
4, 10725, Note_on_c, 5, 80, 0
4, 10725, Note_on_c, 5, 81, 64
4, 10740, Note_on_c, 5, 81, 0
4, 10740, Note_on_c, 5, 80, 64
4, 10785, Note_on_c, 5, 80, 0
4, 10785, Note_on_c, 5, 81, 64
4, 10800, Note_on_c, 5, 81, 0
4, 10800, Note_on_c, 5, 69, 64
4, 10845, Note_on_c, 5, 69, 0
4, 10845, Note_on_c, 5, 71, 64
4, 10860, Note_on_c, 5, 71, 0
4, 10860, Note_on_c, 5, 69, 64
4, 10905, Note_on_c, 5, 69, 0
4, 10905, Note_on_c, 5, 71, 64
4, 10920, Note_on_c, 5, 71, 0
4, 10920, Note_on_c, 5, 69, 64
4, 10965, Note_on_c, 5, 69, 0
4, 10965, Note_on_c, 5, 71, 64
4, 10980, Note_on_c, 5, 71, 0
4, 10980, Note_on_c, 5, 69, 64
4, 11025, Note_on_c, 5, 69, 0
4, 11025, Note_on_c, 5, 71, 64
4, 11040, Note_on_c, 5, 71, 0
4, 11040, Note_on_c, 5, 69, 64
4, 11085, Note_on_c, 5, 69, 0
4, 11085, Note_on_c, 5, 71, 64
4, 11100, Note_on_c, 5, 71, 0
4, 11100, Note_on_c, 5, 69, 64
4, 11145, Note_on_c, 5, 69, 0
4, 11145, Note_on_c, 5, 73, 64
4, 11160, Note_on_c, 5, 73, 0
4, 11160, Note_on_c, 5, 75, 64
4, 11205, Note_on_c, 5, 75, 0
4, 11205, Note_on_c, 5, 76, 64
4, 11220, Note_on_c, 5, 76, 0
4, 11220, Note_on_c, 5, 75, 64
4, 11265, Note_on_c, 5, 75, 0
4, 11265, Note_on_c, 5, 76, 64
4, 11280, Note_on_c, 5, 76, 0
4, 11280, Note_on_c, 5, 75, 64
4, 11325, Note_on_c, 5, 75, 0
4, 11325, Note_on_c, 5, 76, 64
4, 11340, Note_on_c, 5, 76, 0
4, 11340, Note_on_c, 5, 75, 64
4, 11385, Note_on_c, 5, 75, 0
4, 11385, Note_on_c, 5, 76, 64
4, 11400, Note_on_c, 5, 76, 0
4, 11400, Note_on_c, 5, 75, 64
4, 11445, Note_on_c, 5, 75, 0
4, 11445, Note_on_c, 5, 76, 64
4, 11460, Note_on_c, 5, 76, 0
4, 11460, Note_on_c, 5, 75, 64
4, 11505, Note_on_c, 5, 75, 0
4, 11505, Note_on_c, 5, 76, 64
4, 11520, Note_on_c, 5, 76, 0
4, 11520, Note_on_c, 5, 73, 64
4, 11565, Note_on_c, 5, 73, 0
4, 11565, Note_on_c, 5, 75, 64
4, 11580, Note_on_c, 5, 75, 0
4, 11580, Note_on_c, 5, 73, 64
4, 11625, Note_on_c, 5, 73, 0
4, 11625, Note_on_c, 5, 75, 64
4, 11640, Note_on_c, 5, 75, 0
4, 11640, Note_on_c, 5, 72, 64
4, 11685, Note_on_c, 5, 72, 0
4, 11685, Note_on_c, 5, 73, 64
4, 11700, Note_on_c, 5, 73, 0
4, 11700, Note_on_c, 5, 72, 64
4, 11745, Note_on_c, 5, 72, 0
4, 11745, Note_on_c, 5, 73, 64
4, 11760, Note_on_c, 5, 73, 0
4, 11760, Note_on_c, 5, 72, 64
4, 11805, Note_on_c, 5, 72, 0
4, 11805, Note_on_c, 5, 73, 64
4, 11820, Note_on_c, 5, 73, 0
4, 11820, Note_on_c, 5, 72, 64
4, 11865, Note_on_c, 5, 72, 0
4, 11865, Note_on_c, 5, 75, 64
4, 11880, Note_on_c, 5, 75, 0
4, 11880, Note_on_c, 5, 76, 64
4, 11925, Note_on_c, 5, 76, 0
4, 11925, Note_on_c, 5, 78, 64
4, 11940, Note_on_c, 5, 78, 0
4, 11940, Note_on_c, 5, 76, 64
4, 11985, Note_on_c, 5, 76, 0
4, 11985, Note_on_c, 5, 78, 64
4, 12000, Note_on_c, 5, 78, 0
4, 12000, Note_on_c, 5, 76, 64
4, 12045, Note_on_c, 5, 76, 0
4, 12045, Note_on_c, 5, 78, 64
4, 12060, Note_on_c, 5, 78, 0
4, 12060, Note_on_c, 5, 76, 64
4, 12105, Note_on_c, 5, 76, 0
4, 12105, Note_on_c, 5, 78, 64
4, 12120, Note_on_c, 5, 78, 0
4, 12120, Note_on_c, 5, 76, 64
4, 12165, Note_on_c, 5, 76, 0
4, 12165, Note_on_c, 5, 78, 64
4, 12180, Note_on_c, 5, 78, 0
4, 12180, Note_on_c, 5, 76, 64
4, 12225, Note_on_c, 5, 76, 0
4, 12225, Note_on_c, 5, 78, 64
4, 12240, Note_on_c, 5, 78, 0
4, 12240, Note_on_c, 5, 69, 64
4, 12285, Note_on_c, 5, 69, 0
4, 12285, Note_on_c, 5, 71, 64
4, 12300, Note_on_c, 5, 71, 0
4, 12300, Note_on_c, 5, 69, 64
4, 12345, Note_on_c, 5, 69, 0
4, 12345, Note_on_c, 5, 71, 64
4, 12360, Note_on_c, 5, 71, 0
4, 12360, Note_on_c, 5, 69, 64
4, 12405, Note_on_c, 5, 69, 0
4, 12405, Note_on_c, 5, 71, 64
4, 12420, Note_on_c, 5, 71, 0
4, 12420, Note_on_c, 5, 69, 64
4, 12465, Note_on_c, 5, 69, 0
4, 12465, Note_on_c, 5, 71, 64
4, 12480, Note_on_c, 5, 71, 0
4, 12480, Note_on_c, 5, 69, 64
4, 12525, Note_on_c, 5, 69, 0
4, 12525, Note_on_c, 5, 71, 64
4, 12540, Note_on_c, 5, 71, 0
4, 12540, Note_on_c, 5, 69, 64
4, 12585, Note_on_c, 5, 69, 0
4, 12585, Note_on_c, 5, 73, 64
4, 12600, Note_on_c, 5, 73, 0
4, 12600, Note_on_c, 5, 75, 64
4, 12645, Note_on_c, 5, 75, 0
4, 12645, Note_on_c, 5, 76, 64
4, 12660, Note_on_c, 5, 76, 0
4, 12660, Note_on_c, 5, 75, 64
4, 12705, Note_on_c, 5, 75, 0
4, 12705, Note_on_c, 5, 76, 64
4, 12720, Note_on_c, 5, 76, 0
4, 12720, Note_on_c, 5, 75, 64
4, 12765, Note_on_c, 5, 75, 0
4, 12765, Note_on_c, 5, 76, 64
4, 12780, Note_on_c, 5, 76, 0
4, 12780, Note_on_c, 5, 75, 64
4, 12825, Note_on_c, 5, 75, 0
4, 12825, Note_on_c, 5, 76, 64
4, 12840, Note_on_c, 5, 76, 0
4, 12840, Note_on_c, 5, 75, 64
4, 12885, Note_on_c, 5, 75, 0
4, 12885, Note_on_c, 5, 76, 64
4, 12900, Note_on_c, 5, 76, 0
4, 12900, Note_on_c, 5, 75, 64
4, 12945, Note_on_c, 5, 75, 0
4, 12945, Note_on_c, 5, 76, 64
4, 12960, Note_on_c, 5, 76, 0
4, 12960, Note_on_c, 5, 73, 64
4, 13005, Note_on_c, 5, 73, 0
4, 13005, Note_on_c, 5, 75, 64
4, 13020, Note_on_c, 5, 75, 0
4, 13020, Note_on_c, 5, 73, 64
4, 13065, Note_on_c, 5, 73, 0
4, 13065, Note_on_c, 5, 75, 64
4, 13080, Note_on_c, 5, 75, 0
4, 13080, Note_on_c, 5, 72, 64
4, 13125, Note_on_c, 5, 72, 0
4, 13125, Note_on_c, 5, 73, 64
4, 13140, Note_on_c, 5, 73, 0
4, 13140, Note_on_c, 5, 72, 64
4, 13185, Note_on_c, 5, 72, 0
4, 13185, Note_on_c, 5, 73, 64
4, 13200, Note_on_c, 5, 73, 0
4, 13200, Note_on_c, 5, 72, 64
4, 13245, Note_on_c, 5, 72, 0
4, 13245, Note_on_c, 5, 73, 64
4, 13260, Note_on_c, 5, 73, 0
4, 13260, Note_on_c, 5, 72, 64
4, 13305, Note_on_c, 5, 72, 0
4, 13305, Note_on_c, 5, 75, 64
4, 13320, Note_on_c, 5, 75, 0
4, 13320, Note_on_c, 5, 76, 64
4, 13365, Note_on_c, 5, 76, 0
4, 13365, Note_on_c, 5, 78, 64
4, 13380, Note_on_c, 5, 78, 0
4, 13380, Note_on_c, 5, 76, 64
4, 13425, Note_on_c, 5, 76, 0
4, 13425, Note_on_c, 5, 78, 64
4, 13440, Note_on_c, 5, 78, 0
4, 13440, Note_on_c, 5, 76, 64
4, 13485, Note_on_c, 5, 76, 0
4, 13485, Note_on_c, 5, 78, 64
4, 13500, Note_on_c, 5, 78, 0
4, 13500, Note_on_c, 5, 76, 64
4, 13545, Note_on_c, 5, 76, 0
4, 13545, Note_on_c, 5, 78, 64
4, 13560, Note_on_c, 5, 78, 0
4, 13560, Note_on_c, 5, 76, 64
4, 13605, Note_on_c, 5, 76, 0
4, 13605, Note_on_c, 5, 78, 64
4, 13620, Note_on_c, 5, 78, 0
4, 13620, Note_on_c, 5, 76, 64
4, 13665, Note_on_c, 5, 76, 0
4, 13665, Note_on_c, 5, 78, 64
4, 13680, Note_on_c, 5, 78, 0
4, 13680, Note_on_c, 5, 64, 64
4, 13725, Note_on_c, 5, 64, 0
4, 13725, Note_on_c, 5, 66, 64
4, 13740, Note_on_c, 5, 66, 0
4, 13740, Note_on_c, 5, 64, 64
4, 13785, Note_on_c, 5, 64, 0
4, 13785, Note_on_c, 5, 66, 64
4, 13800, Note_on_c, 5, 66, 0
4, 13800, Note_on_c, 5, 64, 64
4, 13845, Note_on_c, 5, 64, 0
4, 13845, Note_on_c, 5, 66, 64
4, 13860, Note_on_c, 5, 66, 0
4, 13860, Note_on_c, 5, 64, 64
4, 13905, Note_on_c, 5, 64, 0
4, 13905, Note_on_c, 5, 66, 64
4, 13920, Note_on_c, 5, 66, 0
4, 13920, Note_on_c, 5, 64, 64
4, 13965, Note_on_c, 5, 64, 0
4, 13965, Note_on_c, 5, 66, 64
4, 13980, Note_on_c, 5, 66, 0
4, 13980, Note_on_c, 5, 64, 64
4, 14025, Note_on_c, 5, 64, 0
4, 14025, Note_on_c, 5, 66, 64
4, 14040, Note_on_c, 5, 66, 0
4, 14040, Note_on_c, 5, 64, 64
4, 14415, Note_on_c, 5, 64, 0
4, 14760, Program_c, 5, 0
4, 14760, Control_c, 5, 7, 100
4, 14760, Control_c, 5, 10, 64
4, 14760, Control_c, 5, 93, 0
4, 14760, Control_c, 5, 91, 40
4, 14760, End_track
5, 0, Start_track
5, 0, MIDI_port, 1
5, 0, Title_t, "   Orchestra"
5, 0, Program_c, 6, 48
5, 0, Control_c, 6, 7, 60
5, 0, Control_c, 6, 10, 40
5, 0, Control_c, 6, 93, 0
5, 0, Control_c, 6, 91, 120
5, 360, Note_on_c, 6, 68, 64
5, 405, Note_on_c, 6, 68, 0
5, 405, Note_on_c, 6, 69, 64
5, 420, Note_on_c, 6, 69, 0
5, 420, Note_on_c, 6, 68, 64
5, 465, Note_on_c, 6, 68, 0
5, 465, Note_on_c, 6, 69, 64
5, 480, Note_on_c, 6, 69, 0
5, 480, Note_on_c, 6, 68, 64
5, 525, Note_on_c, 6, 68, 0
5, 525, Note_on_c, 6, 69, 64
5, 540, Note_on_c, 6, 69, 0
5, 540, Note_on_c, 6, 68, 64
5, 585, Note_on_c, 6, 68, 0
5, 585, Note_on_c, 6, 69, 64
5, 600, Note_on_c, 6, 69, 0
5, 600, Note_on_c, 6, 68, 64
5, 645, Note_on_c, 6, 68, 0
5, 645, Note_on_c, 6, 73, 64
5, 660, Note_on_c, 6, 73, 0
5, 660, Note_on_c, 6, 71, 64
5, 705, Note_on_c, 6, 71, 0
5, 705, Note_on_c, 6, 69, 64
5, 720, Note_on_c, 6, 69, 0
5, 720, Note_on_c, 6, 68, 64
5, 765, Note_on_c, 6, 68, 0
5, 765, Note_on_c, 6, 69, 64
5, 780, Note_on_c, 6, 69, 0
5, 780, Note_on_c, 6, 68, 64
5, 825, Note_on_c, 6, 68, 0
5, 825, Note_on_c, 6, 69, 64
5, 840, Note_on_c, 6, 69, 0
5, 840, Note_on_c, 6, 68, 64
5, 885, Note_on_c, 6, 68, 0
5, 885, Note_on_c, 6, 69, 64
5, 900, Note_on_c, 6, 69, 0
5, 900, Note_on_c, 6, 68, 64
5, 945, Note_on_c, 6, 68, 0
5, 945, Note_on_c, 6, 69, 64
5, 960, Note_on_c, 6, 69, 0
5, 960, Note_on_c, 6, 68, 64
5, 1005, Note_on_c, 6, 68, 0
5, 1005, Note_on_c, 6, 73, 64
5, 1020, Note_on_c, 6, 73, 0
5, 1020, Note_on_c, 6, 71, 64
5, 1065, Note_on_c, 6, 71, 0
5, 1065, Note_on_c, 6, 69, 64
5, 1080, Note_on_c, 6, 69, 0
5, 1080, Note_on_c, 6, 68, 64
5, 1125, Note_on_c, 6, 68, 0
5, 1125, Note_on_c, 6, 69, 64
5, 1140, Note_on_c, 6, 69, 0
5, 1140, Note_on_c, 6, 68, 64
5, 1185, Note_on_c, 6, 68, 0
5, 1185, Note_on_c, 6, 69, 64
5, 1200, Note_on_c, 6, 69, 0
5, 1200, Note_on_c, 6, 68, 64
5, 1245, Note_on_c, 6, 68, 0
5, 1245, Note_on_c, 6, 69, 64
5, 1260, Note_on_c, 6, 69, 0
5, 1260, Note_on_c, 6, 68, 64
5, 1305, Note_on_c, 6, 68, 0
5, 1305, Note_on_c, 6, 69, 64
5, 1320, Note_on_c, 6, 69, 0
5, 1320, Note_on_c, 6, 68, 64
5, 1365, Note_on_c, 6, 68, 0
5, 1365, Note_on_c, 6, 69, 64
5, 1380, Note_on_c, 6, 69, 0
5, 1380, Note_on_c, 6, 72, 64
5, 1425, Note_on_c, 6, 72, 0
5, 1425, Note_on_c, 6, 73, 64
5, 1440, Note_on_c, 6, 73, 0
5, 1440, Note_on_c, 6, 75, 64
5, 1485, Note_on_c, 6, 75, 0
5, 1485, Note_on_c, 6, 76, 64
5, 1500, Note_on_c, 6, 76, 0
5, 1500, Note_on_c, 6, 75, 64
5, 1545, Note_on_c, 6, 75, 0
5, 1545, Note_on_c, 6, 76, 64
5, 1560, Note_on_c, 6, 76, 0
5, 1560, Note_on_c, 6, 75, 64
5, 1605, Note_on_c, 6, 75, 0
5, 1605, Note_on_c, 6, 76, 64
5, 1620, Note_on_c, 6, 76, 0
5, 1620, Note_on_c, 6, 75, 64
5, 1665, Note_on_c, 6, 75, 0
5, 1665, Note_on_c, 6, 76, 64
5, 1680, Note_on_c, 6, 76, 0
5, 1680, Note_on_c, 6, 75, 64
5, 1725, Note_on_c, 6, 75, 0
5, 1725, Note_on_c, 6, 80, 64
5, 1740, Note_on_c, 6, 80, 0
5, 1740, Note_on_c, 6, 78, 64
5, 1785, Note_on_c, 6, 78, 0
5, 1785, Note_on_c, 6, 76, 64
5, 1800, Note_on_c, 6, 76, 0
5, 1800, Note_on_c, 6, 75, 64
5, 1845, Note_on_c, 6, 75, 0
5, 1845, Note_on_c, 6, 76, 64
5, 1860, Note_on_c, 6, 76, 0
5, 1860, Note_on_c, 6, 75, 64
5, 1905, Note_on_c, 6, 75, 0
5, 1905, Note_on_c, 6, 76, 64
5, 1920, Note_on_c, 6, 76, 0
5, 1920, Note_on_c, 6, 75, 64
5, 1965, Note_on_c, 6, 75, 0
5, 1965, Note_on_c, 6, 76, 64
5, 1980, Note_on_c, 6, 76, 0
5, 1980, Note_on_c, 6, 75, 64
5, 2025, Note_on_c, 6, 75, 0
5, 2025, Note_on_c, 6, 76, 64
5, 2040, Note_on_c, 6, 76, 0
5, 2040, Note_on_c, 6, 75, 64
5, 2085, Note_on_c, 6, 75, 0
5, 2085, Note_on_c, 6, 80, 64
5, 2100, Note_on_c, 6, 80, 0
5, 2100, Note_on_c, 6, 78, 64
5, 2145, Note_on_c, 6, 78, 0
5, 2145, Note_on_c, 6, 76, 64
5, 2160, Note_on_c, 6, 76, 0
5, 2160, Note_on_c, 6, 75, 64
5, 2205, Note_on_c, 6, 75, 0
5, 2205, Note_on_c, 6, 76, 64
5, 2220, Note_on_c, 6, 76, 0
5, 2220, Note_on_c, 6, 75, 64
5, 2265, Note_on_c, 6, 75, 0
5, 2265, Note_on_c, 6, 76, 64
5, 2280, Note_on_c, 6, 76, 0
5, 2280, Note_on_c, 6, 75, 64
5, 2325, Note_on_c, 6, 75, 0
5, 2325, Note_on_c, 6, 76, 64
5, 2340, Note_on_c, 6, 76, 0
5, 2340, Note_on_c, 6, 75, 64
5, 2385, Note_on_c, 6, 75, 0
5, 2385, Note_on_c, 6, 76, 64
5, 2400, Note_on_c, 6, 76, 0
5, 2400, Note_on_c, 6, 75, 64
5, 2445, Note_on_c, 6, 75, 0
5, 2445, Note_on_c, 6, 76, 64
5, 2460, Note_on_c, 6, 76, 0
5, 2460, Note_on_c, 6, 78, 64
5, 2505, Note_on_c, 6, 78, 0
5, 2505, Note_on_c, 6, 75, 64
5, 2520, Note_on_c, 6, 75, 0
5, 2520, Note_on_c, 6, 76, 64
5, 2565, Note_on_c, 6, 76, 0
5, 2565, Note_on_c, 6, 78, 64
5, 2580, Note_on_c, 6, 78, 0
5, 2580, Note_on_c, 6, 76, 64
5, 2625, Note_on_c, 6, 76, 0
5, 2625, Note_on_c, 6, 78, 64
5, 2640, Note_on_c, 6, 78, 0
5, 2640, Note_on_c, 6, 76, 64
5, 2685, Note_on_c, 6, 76, 0
5, 2685, Note_on_c, 6, 78, 64
5, 2700, Note_on_c, 6, 78, 0
5, 2700, Note_on_c, 6, 76, 64
5, 2745, Note_on_c, 6, 76, 0
5, 2745, Note_on_c, 6, 78, 64
5, 2760, Note_on_c, 6, 78, 0
5, 2760, Note_on_c, 6, 76, 64
5, 2805, Note_on_c, 6, 76, 0
5, 2805, Note_on_c, 6, 78, 64
5, 2820, Note_on_c, 6, 78, 0
5, 2820, Note_on_c, 6, 76, 64
5, 2865, Note_on_c, 6, 76, 0
5, 2865, Note_on_c, 6, 78, 64
5, 2880, Note_on_c, 6, 78, 0
5, 2880, Note_on_c, 6, 64, 64
5, 2925, Note_on_c, 6, 64, 0
5, 2925, Note_on_c, 6, 66, 64
5, 2940, Note_on_c, 6, 66, 0
5, 2940, Note_on_c, 6, 64, 64
5, 2985, Note_on_c, 6, 64, 0
5, 2985, Note_on_c, 6, 66, 64
5, 3000, Note_on_c, 6, 66, 0
5, 3000, Note_on_c, 6, 64, 64
5, 3045, Note_on_c, 6, 64, 0
5, 3045, Note_on_c, 6, 66, 64
5, 3060, Note_on_c, 6, 66, 0
5, 3060, Note_on_c, 6, 64, 64
5, 3105, Note_on_c, 6, 64, 0
5, 3105, Note_on_c, 6, 66, 64
5, 3120, Note_on_c, 6, 66, 0
5, 3120, Note_on_c, 6, 64, 64
5, 3165, Note_on_c, 6, 64, 0
5, 3165, Note_on_c, 6, 66, 64
5, 3180, Note_on_c, 6, 66, 0
5, 3180, Note_on_c, 6, 64, 64
5, 3225, Note_on_c, 6, 64, 0
5, 3225, Note_on_c, 6, 66, 64
5, 3240, Note_on_c, 6, 66, 0
5, 3240, Note_on_c, 6, 76, 64
5, 3285, Note_on_c, 6, 76, 0
5, 3285, Note_on_c, 6, 78, 64
5, 3300, Note_on_c, 6, 78, 0
5, 3300, Note_on_c, 6, 76, 64
5, 3345, Note_on_c, 6, 76, 0
5, 3345, Note_on_c, 6, 78, 64
5, 3360, Note_on_c, 6, 78, 0
5, 3360, Note_on_c, 6, 76, 64
5, 3405, Note_on_c, 6, 76, 0
5, 3405, Note_on_c, 6, 78, 64
5, 3420, Note_on_c, 6, 78, 0
5, 3420, Note_on_c, 6, 76, 64
5, 3465, Note_on_c, 6, 76, 0
5, 3465, Note_on_c, 6, 78, 64
5, 3480, Note_on_c, 6, 78, 0
5, 3480, Note_on_c, 6, 76, 64
5, 3525, Note_on_c, 6, 76, 0
5, 3525, Note_on_c, 6, 78, 64
5, 3540, Note_on_c, 6, 78, 0
5, 3540, Note_on_c, 6, 76, 64
5, 3585, Note_on_c, 6, 76, 0
5, 3585, Note_on_c, 6, 78, 64
5, 3600, Note_on_c, 6, 78, 0
5, 3600, Note_on_c, 6, 75, 64
5, 3645, Note_on_c, 6, 75, 0
5, 3645, Note_on_c, 6, 76, 64
5, 3660, Note_on_c, 6, 76, 0
5, 3660, Note_on_c, 6, 75, 64
5, 3705, Note_on_c, 6, 75, 0
5, 3705, Note_on_c, 6, 76, 64
5, 3720, Note_on_c, 6, 76, 0
5, 3720, Note_on_c, 6, 75, 64
5, 3765, Note_on_c, 6, 75, 0
5, 3765, Note_on_c, 6, 76, 64
5, 3780, Note_on_c, 6, 76, 0
5, 3780, Note_on_c, 6, 75, 64
5, 3825, Note_on_c, 6, 75, 0
5, 3825, Note_on_c, 6, 76, 64
5, 3840, Note_on_c, 6, 76, 0
5, 3840, Note_on_c, 6, 75, 64
5, 3885, Note_on_c, 6, 75, 0
5, 3885, Note_on_c, 6, 76, 64
5, 3900, Note_on_c, 6, 76, 0
5, 3900, Note_on_c, 6, 75, 64
5, 3945, Note_on_c, 6, 75, 0
5, 3945, Note_on_c, 6, 76, 64
5, 3960, Note_on_c, 6, 76, 0
5, 3960, Note_on_c, 6, 75, 64
5, 4005, Note_on_c, 6, 75, 0
5, 4005, Note_on_c, 6, 76, 64
5, 4020, Note_on_c, 6, 76, 0
5, 4020, Note_on_c, 6, 75, 64
5, 4065, Note_on_c, 6, 75, 0
5, 4065, Note_on_c, 6, 76, 64
5, 4080, Note_on_c, 6, 76, 0
5, 4080, Note_on_c, 6, 75, 64
5, 4125, Note_on_c, 6, 75, 0
5, 4125, Note_on_c, 6, 76, 64
5, 4140, Note_on_c, 6, 76, 0
5, 4140, Note_on_c, 6, 75, 64
5, 4185, Note_on_c, 6, 75, 0
5, 4185, Note_on_c, 6, 76, 64
5, 4200, Note_on_c, 6, 76, 0
5, 4200, Note_on_c, 6, 75, 64
5, 4245, Note_on_c, 6, 75, 0
5, 4245, Note_on_c, 6, 76, 64
5, 4260, Note_on_c, 6, 76, 0
5, 4260, Note_on_c, 6, 75, 64
5, 4305, Note_on_c, 6, 75, 0
5, 4305, Note_on_c, 6, 76, 64
5, 4320, Note_on_c, 6, 76, 0
5, 4320, Note_on_c, 6, 73, 64
5, 4365, Note_on_c, 6, 73, 0
5, 4365, Note_on_c, 6, 75, 64
5, 4380, Note_on_c, 6, 75, 0
5, 4380, Note_on_c, 6, 73, 64
5, 4425, Note_on_c, 6, 73, 0
5, 4425, Note_on_c, 6, 75, 64
5, 4440, Note_on_c, 6, 75, 0
5, 4440, Note_on_c, 6, 73, 64
5, 4485, Note_on_c, 6, 73, 0
5, 4485, Note_on_c, 6, 75, 64
5, 4500, Note_on_c, 6, 75, 0
5, 4500, Note_on_c, 6, 73, 64
5, 4545, Note_on_c, 6, 73, 0
5, 4545, Note_on_c, 6, 75, 64
5, 4560, Note_on_c, 6, 75, 0
5, 4560, Note_on_c, 6, 73, 64
5, 4605, Note_on_c, 6, 73, 0
5, 4605, Note_on_c, 6, 75, 64
5, 4620, Note_on_c, 6, 75, 0
5, 4620, Note_on_c, 6, 73, 64
5, 4665, Note_on_c, 6, 73, 0
5, 4665, Note_on_c, 6, 75, 64
5, 4680, Note_on_c, 6, 75, 0
5, 4680, Note_on_c, 6, 73, 64
5, 4725, Note_on_c, 6, 73, 0
5, 4725, Note_on_c, 6, 75, 64
5, 4740, Note_on_c, 6, 75, 0
5, 4740, Note_on_c, 6, 73, 64
5, 4785, Note_on_c, 6, 73, 0
5, 4785, Note_on_c, 6, 75, 64
5, 4800, Note_on_c, 6, 75, 0
5, 4800, Note_on_c, 6, 73, 64
5, 4845, Note_on_c, 6, 73, 0
5, 4845, Note_on_c, 6, 75, 64
5, 4860, Note_on_c, 6, 75, 0
5, 4860, Note_on_c, 6, 73, 64
5, 4905, Note_on_c, 6, 73, 0
5, 4905, Note_on_c, 6, 75, 64
5, 4920, Note_on_c, 6, 75, 0
5, 4920, Note_on_c, 6, 73, 64
5, 4965, Note_on_c, 6, 73, 0
5, 4965, Note_on_c, 6, 75, 64
5, 4980, Note_on_c, 6, 75, 0
5, 4980, Note_on_c, 6, 73, 64
5, 5025, Note_on_c, 6, 73, 0
5, 5025, Note_on_c, 6, 75, 64
5, 5040, Note_on_c, 6, 75, 0
5, 5040, Note_on_c, 6, 72, 64
5, 5085, Note_on_c, 6, 72, 0
5, 5085, Note_on_c, 6, 73, 64
5, 5100, Note_on_c, 6, 73, 0
5, 5100, Note_on_c, 6, 72, 64
5, 5145, Note_on_c, 6, 72, 0
5, 5145, Note_on_c, 6, 73, 64
5, 5160, Note_on_c, 6, 73, 0
5, 5160, Note_on_c, 6, 72, 64
5, 5205, Note_on_c, 6, 72, 0
5, 5205, Note_on_c, 6, 73, 64
5, 5220, Note_on_c, 6, 73, 0
5, 5220, Note_on_c, 6, 72, 64
5, 5265, Note_on_c, 6, 72, 0
5, 5265, Note_on_c, 6, 73, 64
5, 5280, Note_on_c, 6, 73, 0
5, 5280, Note_on_c, 6, 72, 64
5, 5325, Note_on_c, 6, 72, 0
5, 5325, Note_on_c, 6, 73, 64
5, 5340, Note_on_c, 6, 73, 0
5, 5340, Note_on_c, 6, 72, 64
5, 5385, Note_on_c, 6, 72, 0
5, 5385, Note_on_c, 6, 75, 64
5, 5400, Note_on_c, 6, 75, 0
5, 5400, Note_on_c, 6, 76, 64
5, 5445, Note_on_c, 6, 76, 0
5, 5445, Note_on_c, 6, 78, 64
5, 5460, Note_on_c, 6, 78, 0
5, 5460, Note_on_c, 6, 76, 64
5, 5505, Note_on_c, 6, 76, 0
5, 5505, Note_on_c, 6, 78, 64
5, 5520, Note_on_c, 6, 78, 0
5, 5520, Note_on_c, 6, 76, 64
5, 5565, Note_on_c, 6, 76, 0
5, 5565, Note_on_c, 6, 78, 64
5, 5580, Note_on_c, 6, 78, 0
5, 5580, Note_on_c, 6, 76, 64
5, 5625, Note_on_c, 6, 76, 0
5, 5625, Note_on_c, 6, 78, 64
5, 5640, Note_on_c, 6, 78, 0
5, 5640, Note_on_c, 6, 76, 64
5, 5685, Note_on_c, 6, 76, 0
5, 5685, Note_on_c, 6, 78, 64
5, 5700, Note_on_c, 6, 78, 0
5, 5700, Note_on_c, 6, 76, 64
5, 5745, Note_on_c, 6, 76, 0
5, 5745, Note_on_c, 6, 78, 64
5, 5760, Note_on_c, 6, 78, 0
5, 5760, Note_on_c, 6, 75, 64
5, 5805, Note_on_c, 6, 75, 0
5, 5805, Note_on_c, 6, 76, 64
5, 5820, Note_on_c, 6, 76, 0
5, 5820, Note_on_c, 6, 75, 64
5, 5865, Note_on_c, 6, 75, 0
5, 5865, Note_on_c, 6, 76, 64
5, 5880, Note_on_c, 6, 76, 0
5, 5880, Note_on_c, 6, 75, 64
5, 5925, Note_on_c, 6, 75, 0
5, 5925, Note_on_c, 6, 76, 64
5, 5940, Note_on_c, 6, 76, 0
5, 5940, Note_on_c, 6, 75, 64
5, 5985, Note_on_c, 6, 75, 0
5, 5985, Note_on_c, 6, 76, 64
5, 6000, Note_on_c, 6, 76, 0
5, 6000, Note_on_c, 6, 75, 64
5, 6045, Note_on_c, 6, 75, 0
5, 6045, Note_on_c, 6, 76, 64
5, 6060, Note_on_c, 6, 76, 0
5, 6060, Note_on_c, 6, 75, 64
5, 6105, Note_on_c, 6, 75, 0
5, 6105, Note_on_c, 6, 76, 64
5, 6120, Note_on_c, 6, 76, 0
5, 6120, Note_on_c, 6, 75, 64
5, 6165, Note_on_c, 6, 75, 0
5, 6165, Note_on_c, 6, 76, 64
5, 6180, Note_on_c, 6, 76, 0
5, 6180, Note_on_c, 6, 75, 64
5, 6225, Note_on_c, 6, 75, 0
5, 6225, Note_on_c, 6, 76, 64
5, 6240, Note_on_c, 6, 76, 0
5, 6240, Note_on_c, 6, 75, 64
5, 6285, Note_on_c, 6, 75, 0
5, 6285, Note_on_c, 6, 76, 64
5, 6300, Note_on_c, 6, 76, 0
5, 6300, Note_on_c, 6, 75, 64
5, 6345, Note_on_c, 6, 75, 0
5, 6345, Note_on_c, 6, 76, 64
5, 6360, Note_on_c, 6, 76, 0
5, 6360, Note_on_c, 6, 75, 64
5, 6405, Note_on_c, 6, 75, 0
5, 6405, Note_on_c, 6, 76, 64
5, 6420, Note_on_c, 6, 76, 0
5, 6420, Note_on_c, 6, 75, 64
5, 6465, Note_on_c, 6, 75, 0
5, 6465, Note_on_c, 6, 73, 64
5, 6480, Note_on_c, 6, 73, 0
5, 6480, Note_on_c, 6, 71, 64
5, 6525, Note_on_c, 6, 71, 0
5, 6525, Note_on_c, 6, 73, 64
5, 6540, Note_on_c, 6, 73, 0
5, 6540, Note_on_c, 6, 71, 64
5, 6585, Note_on_c, 6, 71, 0
5, 6585, Note_on_c, 6, 73, 64
5, 6600, Note_on_c, 6, 73, 0
5, 6600, Note_on_c, 6, 71, 64
5, 6645, Note_on_c, 6, 71, 0
5, 6645, Note_on_c, 6, 73, 64
5, 6660, Note_on_c, 6, 73, 0
5, 6660, Note_on_c, 6, 71, 64
5, 6705, Note_on_c, 6, 71, 0
5, 6705, Note_on_c, 6, 73, 64
5, 6720, Note_on_c, 6, 73, 0
5, 6720, Note_on_c, 6, 71, 64
5, 6765, Note_on_c, 6, 71, 0
5, 6765, Note_on_c, 6, 76, 64
5, 6780, Note_on_c, 6, 76, 0
5, 6780, Note_on_c, 6, 75, 64
5, 6825, Note_on_c, 6, 75, 0
5, 6825, Note_on_c, 6, 73, 64
5, 6840, Note_on_c, 6, 73, 0
5, 6840, Note_on_c, 6, 71, 64
5, 6885, Note_on_c, 6, 71, 0
5, 6885, Note_on_c, 6, 73, 64
5, 6900, Note_on_c, 6, 73, 0
5, 6900, Note_on_c, 6, 71, 64
5, 6945, Note_on_c, 6, 71, 0
5, 6945, Note_on_c, 6, 73, 64
5, 6960, Note_on_c, 6, 73, 0
5, 6960, Note_on_c, 6, 71, 64
5, 7005, Note_on_c, 6, 71, 0
5, 7005, Note_on_c, 6, 73, 64
5, 7020, Note_on_c, 6, 73, 0
5, 7020, Note_on_c, 6, 71, 64
5, 7065, Note_on_c, 6, 71, 0
5, 7065, Note_on_c, 6, 73, 64
5, 7080, Note_on_c, 6, 73, 0
5, 7080, Note_on_c, 6, 71, 64
5, 7125, Note_on_c, 6, 71, 0
5, 7125, Note_on_c, 6, 73, 64
5, 7140, Note_on_c, 6, 73, 0
5, 7140, Note_on_c, 6, 71, 64
5, 7185, Note_on_c, 6, 71, 0
5, 7185, Note_on_c, 6, 69, 64
5, 7200, Note_on_c, 6, 69, 0
5, 7200, Note_on_c, 6, 68, 64
5, 7245, Note_on_c, 6, 68, 0
5, 7245, Note_on_c, 6, 69, 64
5, 7260, Note_on_c, 6, 69, 0
5, 7260, Note_on_c, 6, 68, 64
5, 7305, Note_on_c, 6, 68, 0
5, 7305, Note_on_c, 6, 69, 64
5, 7320, Note_on_c, 6, 69, 0
5, 7320, Note_on_c, 6, 68, 64
5, 7365, Note_on_c, 6, 68, 0
5, 7365, Note_on_c, 6, 69, 64
5, 7380, Note_on_c, 6, 69, 0
5, 7380, Note_on_c, 6, 68, 64
5, 7425, Note_on_c, 6, 68, 0
5, 7425, Note_on_c, 6, 69, 64
5, 7440, Note_on_c, 6, 69, 0
5, 7440, Note_on_c, 6, 68, 64
5, 7485, Note_on_c, 6, 68, 0
5, 7485, Note_on_c, 6, 73, 64
5, 7500, Note_on_c, 6, 73, 0
5, 7500, Note_on_c, 6, 71, 64
5, 7545, Note_on_c, 6, 71, 0
5, 7545, Note_on_c, 6, 69, 64
5, 7560, Note_on_c, 6, 69, 0
5, 7560, Note_on_c, 6, 68, 64
5, 7605, Note_on_c, 6, 68, 0
5, 7605, Note_on_c, 6, 69, 64
5, 7620, Note_on_c, 6, 69, 0
5, 7620, Note_on_c, 6, 68, 64
5, 7665, Note_on_c, 6, 68, 0
5, 7665, Note_on_c, 6, 69, 64
5, 7680, Note_on_c, 6, 69, 0
5, 7680, Note_on_c, 6, 68, 64
5, 7725, Note_on_c, 6, 68, 0
5, 7725, Note_on_c, 6, 69, 64
5, 7740, Note_on_c, 6, 69, 0
5, 7740, Note_on_c, 6, 68, 64
5, 7785, Note_on_c, 6, 68, 0
5, 7785, Note_on_c, 6, 69, 64
5, 7800, Note_on_c, 6, 69, 0
5, 7800, Note_on_c, 6, 68, 64
5, 7845, Note_on_c, 6, 68, 0
5, 7845, Note_on_c, 6, 69, 64
5, 7860, Note_on_c, 6, 69, 0
5, 7860, Note_on_c, 6, 72, 64
5, 7905, Note_on_c, 6, 72, 0
5, 7905, Note_on_c, 6, 73, 64
5, 7920, Note_on_c, 6, 73, 0
5, 7920, Note_on_c, 6, 75, 64
5, 7965, Note_on_c, 6, 75, 0
5, 7965, Note_on_c, 6, 76, 64
5, 7980, Note_on_c, 6, 76, 0
5, 7980, Note_on_c, 6, 75, 64
5, 8025, Note_on_c, 6, 75, 0
5, 8025, Note_on_c, 6, 76, 64
5, 8040, Note_on_c, 6, 76, 0
5, 8040, Note_on_c, 6, 75, 64
5, 8085, Note_on_c, 6, 75, 0
5, 8085, Note_on_c, 6, 76, 64
5, 8100, Note_on_c, 6, 76, 0
5, 8100, Note_on_c, 6, 75, 64
5, 8145, Note_on_c, 6, 75, 0
5, 8145, Note_on_c, 6, 76, 64
5, 8160, Note_on_c, 6, 76, 0
5, 8160, Note_on_c, 6, 75, 64
5, 8205, Note_on_c, 6, 75, 0
5, 8205, Note_on_c, 6, 76, 64
5, 8220, Note_on_c, 6, 76, 0
5, 8220, Note_on_c, 6, 78, 64
5, 8265, Note_on_c, 6, 78, 0
5, 8265, Note_on_c, 6, 75, 64
5, 8280, Note_on_c, 6, 75, 0
5, 8280, Note_on_c, 6, 76, 64
5, 8325, Note_on_c, 6, 76, 0
5, 8325, Note_on_c, 6, 78, 64
5, 8340, Note_on_c, 6, 78, 0
5, 8340, Note_on_c, 6, 76, 64
5, 8385, Note_on_c, 6, 76, 0
5, 8385, Note_on_c, 6, 78, 64
5, 8400, Note_on_c, 6, 78, 0
5, 8400, Note_on_c, 6, 76, 64
5, 8445, Note_on_c, 6, 76, 0
5, 8445, Note_on_c, 6, 78, 64
5, 8460, Note_on_c, 6, 78, 0
5, 8460, Note_on_c, 6, 76, 64
5, 8505, Note_on_c, 6, 76, 0
5, 8505, Note_on_c, 6, 78, 64
5, 8520, Note_on_c, 6, 78, 0
5, 8520, Note_on_c, 6, 76, 64
5, 8565, Note_on_c, 6, 76, 0
5, 8565, Note_on_c, 6, 78, 64
5, 8580, Note_on_c, 6, 78, 0
5, 8580, Note_on_c, 6, 76, 64
5, 8625, Note_on_c, 6, 76, 0
5, 8625, Note_on_c, 6, 78, 64
5, 8640, Note_on_c, 6, 78, 0
5, 8640, Note_on_c, 6, 76, 64
5, 8685, Note_on_c, 6, 76, 0
5, 8685, Note_on_c, 6, 78, 64
5, 8700, Note_on_c, 6, 78, 0
5, 8700, Note_on_c, 6, 76, 64
5, 8745, Note_on_c, 6, 76, 0
5, 8745, Note_on_c, 6, 78, 64
5, 8760, Note_on_c, 6, 78, 0
5, 8760, Note_on_c, 6, 76, 64
5, 8805, Note_on_c, 6, 76, 0
5, 8805, Note_on_c, 6, 78, 64
5, 8820, Note_on_c, 6, 78, 0
5, 8820, Note_on_c, 6, 76, 64
5, 8865, Note_on_c, 6, 76, 0
5, 8865, Note_on_c, 6, 78, 64
5, 8880, Note_on_c, 6, 78, 0
5, 8880, Note_on_c, 6, 76, 64
5, 8925, Note_on_c, 6, 76, 0
5, 8925, Note_on_c, 6, 78, 64
5, 8940, Note_on_c, 6, 78, 0
5, 8940, Note_on_c, 6, 76, 64
5, 8985, Note_on_c, 6, 76, 0
5, 8985, Note_on_c, 6, 75, 64
5, 9000, Note_on_c, 6, 75, 0
5, 9000, Note_on_c, 6, 73, 64
5, 9045, Note_on_c, 6, 73, 0
5, 9045, Note_on_c, 6, 75, 64
5, 9060, Note_on_c, 6, 75, 0
5, 9060, Note_on_c, 6, 73, 64
5, 9105, Note_on_c, 6, 73, 0
5, 9105, Note_on_c, 6, 75, 64
5, 9120, Note_on_c, 6, 75, 0
5, 9120, Note_on_c, 6, 73, 64
5, 9165, Note_on_c, 6, 73, 0
5, 9165, Note_on_c, 6, 75, 64
5, 9180, Note_on_c, 6, 75, 0
5, 9180, Note_on_c, 6, 73, 64
5, 9225, Note_on_c, 6, 73, 0
5, 9225, Note_on_c, 6, 75, 64
5, 9240, Note_on_c, 6, 75, 0
5, 9240, Note_on_c, 6, 73, 64
5, 9285, Note_on_c, 6, 73, 0
5, 9285, Note_on_c, 6, 75, 64
5, 9300, Note_on_c, 6, 75, 0
5, 9300, Note_on_c, 6, 76, 64
5, 9345, Note_on_c, 6, 76, 0
5, 9345, Note_on_c, 6, 73, 64
5, 9360, Note_on_c, 6, 73, 0
5, 9360, Note_on_c, 6, 78, 64
5, 9405, Note_on_c, 6, 78, 0
5, 9405, Note_on_c, 6, 80, 64
5, 9420, Note_on_c, 6, 80, 0
5, 9420, Note_on_c, 6, 78, 64
5, 9465, Note_on_c, 6, 78, 0
5, 9465, Note_on_c, 6, 80, 64
5, 9480, Note_on_c, 6, 80, 0
5, 9480, Note_on_c, 6, 78, 64
5, 9525, Note_on_c, 6, 78, 0
5, 9525, Note_on_c, 6, 80, 64
5, 9540, Note_on_c, 6, 80, 0
5, 9540, Note_on_c, 6, 78, 64
5, 9585, Note_on_c, 6, 78, 0
5, 9585, Note_on_c, 6, 80, 64
5, 9600, Note_on_c, 6, 80, 0
5, 9600, Note_on_c, 6, 78, 64
5, 9645, Note_on_c, 6, 78, 0
5, 9645, Note_on_c, 6, 80, 64
5, 9660, Note_on_c, 6, 80, 0
5, 9660, Note_on_c, 6, 78, 64
5, 9705, Note_on_c, 6, 78, 0
5, 9705, Note_on_c, 6, 76, 64
5, 9720, Note_on_c, 6, 76, 0
5, 9720, Note_on_c, 6, 75, 64
5, 9765, Note_on_c, 6, 75, 0
5, 9765, Note_on_c, 6, 76, 64
5, 9780, Note_on_c, 6, 76, 0
5, 9780, Note_on_c, 6, 75, 64
5, 9825, Note_on_c, 6, 75, 0
5, 9825, Note_on_c, 6, 76, 64
5, 9840, Note_on_c, 6, 76, 0
5, 9840, Note_on_c, 6, 75, 64
5, 9885, Note_on_c, 6, 75, 0
5, 9885, Note_on_c, 6, 76, 64
5, 9900, Note_on_c, 6, 76, 0
5, 9900, Note_on_c, 6, 75, 64
5, 9945, Note_on_c, 6, 75, 0
5, 9945, Note_on_c, 6, 76, 64
5, 9960, Note_on_c, 6, 76, 0
5, 9960, Note_on_c, 6, 75, 64
5, 10005, Note_on_c, 6, 75, 0
5, 10005, Note_on_c, 6, 76, 64
5, 10020, Note_on_c, 6, 76, 0
5, 10020, Note_on_c, 6, 78, 64
5, 10065, Note_on_c, 6, 78, 0
5, 10065, Note_on_c, 6, 75, 64
5, 10080, Note_on_c, 6, 75, 0
5, 10080, Note_on_c, 6, 80, 64
5, 10125, Note_on_c, 6, 80, 0
5, 10125, Note_on_c, 6, 81, 64
5, 10140, Note_on_c, 6, 81, 0
5, 10140, Note_on_c, 6, 80, 64
5, 10185, Note_on_c, 6, 80, 0
5, 10185, Note_on_c, 6, 81, 64
5, 10200, Note_on_c, 6, 81, 0
5, 10200, Note_on_c, 6, 80, 64
5, 10245, Note_on_c, 6, 80, 0
5, 10245, Note_on_c, 6, 81, 64
5, 10260, Note_on_c, 6, 81, 0
5, 10260, Note_on_c, 6, 80, 64
5, 10305, Note_on_c, 6, 80, 0
5, 10305, Note_on_c, 6, 81, 64
5, 10320, Note_on_c, 6, 81, 0
5, 10320, Note_on_c, 6, 80, 64
5, 10365, Note_on_c, 6, 80, 0
5, 10365, Note_on_c, 6, 81, 64
5, 10380, Note_on_c, 6, 81, 0
5, 10380, Note_on_c, 6, 80, 64
5, 10425, Note_on_c, 6, 80, 0
5, 10425, Note_on_c, 6, 81, 64
5, 10440, Note_on_c, 6, 81, 0
5, 10440, Note_on_c, 6, 80, 64
5, 10485, Note_on_c, 6, 80, 0
5, 10485, Note_on_c, 6, 81, 64
5, 10500, Note_on_c, 6, 81, 0
5, 10500, Note_on_c, 6, 80, 64
5, 10545, Note_on_c, 6, 80, 0
5, 10545, Note_on_c, 6, 81, 64
5, 10560, Note_on_c, 6, 81, 0
5, 10560, Note_on_c, 6, 80, 64
5, 10605, Note_on_c, 6, 80, 0
5, 10605, Note_on_c, 6, 81, 64
5, 10620, Note_on_c, 6, 81, 0
5, 10620, Note_on_c, 6, 80, 64
5, 10665, Note_on_c, 6, 80, 0
5, 10665, Note_on_c, 6, 81, 64
5, 10680, Note_on_c, 6, 81, 0
5, 10680, Note_on_c, 6, 80, 64
5, 10725, Note_on_c, 6, 80, 0
5, 10725, Note_on_c, 6, 81, 64
5, 10740, Note_on_c, 6, 81, 0
5, 10740, Note_on_c, 6, 80, 64
5, 10785, Note_on_c, 6, 80, 0
5, 10785, Note_on_c, 6, 81, 64
5, 10800, Note_on_c, 6, 81, 0
5, 10800, Note_on_c, 6, 69, 64
5, 10845, Note_on_c, 6, 69, 0
5, 10845, Note_on_c, 6, 71, 64
5, 10860, Note_on_c, 6, 71, 0
5, 10860, Note_on_c, 6, 69, 64
5, 10905, Note_on_c, 6, 69, 0
5, 10905, Note_on_c, 6, 71, 64
5, 10920, Note_on_c, 6, 71, 0
5, 10920, Note_on_c, 6, 69, 64
5, 10965, Note_on_c, 6, 69, 0
5, 10965, Note_on_c, 6, 71, 64
5, 10980, Note_on_c, 6, 71, 0
5, 10980, Note_on_c, 6, 69, 64
5, 11025, Note_on_c, 6, 69, 0
5, 11025, Note_on_c, 6, 71, 64
5, 11040, Note_on_c, 6, 71, 0
5, 11040, Note_on_c, 6, 69, 64
5, 11085, Note_on_c, 6, 69, 0
5, 11085, Note_on_c, 6, 71, 64
5, 11100, Note_on_c, 6, 71, 0
5, 11100, Note_on_c, 6, 69, 64
5, 11145, Note_on_c, 6, 69, 0
5, 11145, Note_on_c, 6, 73, 64
5, 11160, Note_on_c, 6, 73, 0
5, 11160, Note_on_c, 6, 75, 64
5, 11205, Note_on_c, 6, 75, 0
5, 11205, Note_on_c, 6, 76, 64
5, 11220, Note_on_c, 6, 76, 0
5, 11220, Note_on_c, 6, 75, 64
5, 11265, Note_on_c, 6, 75, 0
5, 11265, Note_on_c, 6, 76, 64
5, 11280, Note_on_c, 6, 76, 0
5, 11280, Note_on_c, 6, 75, 64
5, 11325, Note_on_c, 6, 75, 0
5, 11325, Note_on_c, 6, 76, 64
5, 11340, Note_on_c, 6, 76, 0
5, 11340, Note_on_c, 6, 75, 64
5, 11385, Note_on_c, 6, 75, 0
5, 11385, Note_on_c, 6, 76, 64
5, 11400, Note_on_c, 6, 76, 0
5, 11400, Note_on_c, 6, 75, 64
5, 11445, Note_on_c, 6, 75, 0
5, 11445, Note_on_c, 6, 76, 64
5, 11460, Note_on_c, 6, 76, 0
5, 11460, Note_on_c, 6, 75, 64
5, 11505, Note_on_c, 6, 75, 0
5, 11505, Note_on_c, 6, 76, 64
5, 11520, Note_on_c, 6, 76, 0
5, 11520, Note_on_c, 6, 73, 64
5, 11565, Note_on_c, 6, 73, 0
5, 11565, Note_on_c, 6, 75, 64
5, 11580, Note_on_c, 6, 75, 0
5, 11580, Note_on_c, 6, 73, 64
5, 11625, Note_on_c, 6, 73, 0
5, 11625, Note_on_c, 6, 75, 64
5, 11640, Note_on_c, 6, 75, 0
5, 11640, Note_on_c, 6, 72, 64
5, 11685, Note_on_c, 6, 72, 0
5, 11685, Note_on_c, 6, 73, 64
5, 11700, Note_on_c, 6, 73, 0
5, 11700, Note_on_c, 6, 72, 64
5, 11745, Note_on_c, 6, 72, 0
5, 11745, Note_on_c, 6, 73, 64
5, 11760, Note_on_c, 6, 73, 0
5, 11760, Note_on_c, 6, 72, 64
5, 11805, Note_on_c, 6, 72, 0
5, 11805, Note_on_c, 6, 73, 64
5, 11820, Note_on_c, 6, 73, 0
5, 11820, Note_on_c, 6, 72, 64
5, 11865, Note_on_c, 6, 72, 0
5, 11865, Note_on_c, 6, 75, 64
5, 11880, Note_on_c, 6, 75, 0
5, 11880, Note_on_c, 6, 76, 64
5, 11925, Note_on_c, 6, 76, 0
5, 11925, Note_on_c, 6, 78, 64
5, 11940, Note_on_c, 6, 78, 0
5, 11940, Note_on_c, 6, 76, 64
5, 11985, Note_on_c, 6, 76, 0
5, 11985, Note_on_c, 6, 78, 64
5, 12000, Note_on_c, 6, 78, 0
5, 12000, Note_on_c, 6, 76, 64
5, 12045, Note_on_c, 6, 76, 0
5, 12045, Note_on_c, 6, 78, 64
5, 12060, Note_on_c, 6, 78, 0
5, 12060, Note_on_c, 6, 76, 64
5, 12105, Note_on_c, 6, 76, 0
5, 12105, Note_on_c, 6, 78, 64
5, 12120, Note_on_c, 6, 78, 0
5, 12120, Note_on_c, 6, 76, 64
5, 12165, Note_on_c, 6, 76, 0
5, 12165, Note_on_c, 6, 78, 64
5, 12180, Note_on_c, 6, 78, 0
5, 12180, Note_on_c, 6, 76, 64
5, 12225, Note_on_c, 6, 76, 0
5, 12225, Note_on_c, 6, 78, 64
5, 12240, Note_on_c, 6, 78, 0
5, 12240, Note_on_c, 6, 69, 64
5, 12285, Note_on_c, 6, 69, 0
5, 12285, Note_on_c, 6, 71, 64
5, 12300, Note_on_c, 6, 71, 0
5, 12300, Note_on_c, 6, 69, 64
5, 12345, Note_on_c, 6, 69, 0
5, 12345, Note_on_c, 6, 71, 64
5, 12360, Note_on_c, 6, 71, 0
5, 12360, Note_on_c, 6, 69, 64
5, 12405, Note_on_c, 6, 69, 0
5, 12405, Note_on_c, 6, 71, 64
5, 12420, Note_on_c, 6, 71, 0
5, 12420, Note_on_c, 6, 69, 64
5, 12465, Note_on_c, 6, 69, 0
5, 12465, Note_on_c, 6, 71, 64
5, 12480, Note_on_c, 6, 71, 0
5, 12480, Note_on_c, 6, 69, 64
5, 12525, Note_on_c, 6, 69, 0
5, 12525, Note_on_c, 6, 71, 64
5, 12540, Note_on_c, 6, 71, 0
5, 12540, Note_on_c, 6, 69, 64
5, 12585, Note_on_c, 6, 69, 0
5, 12585, Note_on_c, 6, 73, 64
5, 12600, Note_on_c, 6, 73, 0
5, 12600, Note_on_c, 6, 75, 64
5, 12645, Note_on_c, 6, 75, 0
5, 12645, Note_on_c, 6, 76, 64
5, 12660, Note_on_c, 6, 76, 0
5, 12660, Note_on_c, 6, 75, 64
5, 12705, Note_on_c, 6, 75, 0
5, 12705, Note_on_c, 6, 76, 64
5, 12720, Note_on_c, 6, 76, 0
5, 12720, Note_on_c, 6, 75, 64
5, 12765, Note_on_c, 6, 75, 0
5, 12765, Note_on_c, 6, 76, 64
5, 12780, Note_on_c, 6, 76, 0
5, 12780, Note_on_c, 6, 75, 64
5, 12825, Note_on_c, 6, 75, 0
5, 12825, Note_on_c, 6, 76, 64
5, 12840, Note_on_c, 6, 76, 0
5, 12840, Note_on_c, 6, 75, 64
5, 12885, Note_on_c, 6, 75, 0
5, 12885, Note_on_c, 6, 76, 64
5, 12900, Note_on_c, 6, 76, 0
5, 12900, Note_on_c, 6, 75, 64
5, 12945, Note_on_c, 6, 75, 0
5, 12945, Note_on_c, 6, 76, 64
5, 12960, Note_on_c, 6, 76, 0
5, 12960, Note_on_c, 6, 73, 64
5, 13005, Note_on_c, 6, 73, 0
5, 13005, Note_on_c, 6, 75, 64
5, 13020, Note_on_c, 6, 75, 0
5, 13020, Note_on_c, 6, 73, 64
5, 13065, Note_on_c, 6, 73, 0
5, 13065, Note_on_c, 6, 75, 64
5, 13080, Note_on_c, 6, 75, 0
5, 13080, Note_on_c, 6, 72, 64
5, 13125, Note_on_c, 6, 72, 0
5, 13125, Note_on_c, 6, 73, 64
5, 13140, Note_on_c, 6, 73, 0
5, 13140, Note_on_c, 6, 72, 64
5, 13185, Note_on_c, 6, 72, 0
5, 13185, Note_on_c, 6, 73, 64
5, 13200, Note_on_c, 6, 73, 0
5, 13200, Note_on_c, 6, 72, 64
5, 13245, Note_on_c, 6, 72, 0
5, 13245, Note_on_c, 6, 73, 64
5, 13260, Note_on_c, 6, 73, 0
5, 13260, Note_on_c, 6, 72, 64
5, 13305, Note_on_c, 6, 72, 0
5, 13305, Note_on_c, 6, 75, 64
5, 13320, Note_on_c, 6, 75, 0
5, 13320, Note_on_c, 6, 76, 64
5, 13365, Note_on_c, 6, 76, 0
5, 13365, Note_on_c, 6, 78, 64
5, 13380, Note_on_c, 6, 78, 0
5, 13380, Note_on_c, 6, 76, 64
5, 13425, Note_on_c, 6, 76, 0
5, 13425, Note_on_c, 6, 78, 64
5, 13440, Note_on_c, 6, 78, 0
5, 13440, Note_on_c, 6, 76, 64
5, 13485, Note_on_c, 6, 76, 0
5, 13485, Note_on_c, 6, 78, 64
5, 13500, Note_on_c, 6, 78, 0
5, 13500, Note_on_c, 6, 76, 64
5, 13545, Note_on_c, 6, 76, 0
5, 13545, Note_on_c, 6, 78, 64
5, 13560, Note_on_c, 6, 78, 0
5, 13560, Note_on_c, 6, 76, 64
5, 13605, Note_on_c, 6, 76, 0
5, 13605, Note_on_c, 6, 78, 64
5, 13620, Note_on_c, 6, 78, 0
5, 13620, Note_on_c, 6, 76, 64
5, 13665, Note_on_c, 6, 76, 0
5, 13665, Note_on_c, 6, 78, 64
5, 13680, Note_on_c, 6, 78, 0
5, 13680, Note_on_c, 6, 64, 64
5, 13725, Note_on_c, 6, 64, 0
5, 13725, Note_on_c, 6, 66, 64
5, 13740, Note_on_c, 6, 66, 0
5, 13740, Note_on_c, 6, 64, 64
5, 13785, Note_on_c, 6, 64, 0
5, 13785, Note_on_c, 6, 66, 64
5, 13800, Note_on_c, 6, 66, 0
5, 13800, Note_on_c, 6, 64, 64
5, 13845, Note_on_c, 6, 64, 0
5, 13845, Note_on_c, 6, 66, 64
5, 13860, Note_on_c, 6, 66, 0
5, 13860, Note_on_c, 6, 64, 64
5, 13905, Note_on_c, 6, 64, 0
5, 13905, Note_on_c, 6, 66, 64
5, 13920, Note_on_c, 6, 66, 0
5, 13920, Note_on_c, 6, 64, 64
5, 13965, Note_on_c, 6, 64, 0
5, 13965, Note_on_c, 6, 66, 64
5, 13980, Note_on_c, 6, 66, 0
5, 13980, Note_on_c, 6, 64, 64
5, 14025, Note_on_c, 6, 64, 0
5, 14025, Note_on_c, 6, 66, 64
5, 14040, Note_on_c, 6, 66, 0
5, 14040, Note_on_c, 6, 64, 64
5, 14415, Note_on_c, 6, 64, 0
5, 14760, Program_c, 6, 0
5, 14760, Control_c, 6, 7, 100
5, 14760, Control_c, 6, 10, 64
5, 14760, Control_c, 6, 93, 0
5, 14760, Control_c, 6, 91, 40
5, 14760, End_track
6, 0, Start_track
6, 0, MIDI_port, 1
6, 0, Title_t, "Violin III"
6, 0, Program_c, 2, 40
6, 0, Control_c, 2, 7, 70
6, 0, Control_c, 2, 10, 30
6, 0, Control_c, 2, 93, 0
6, 0, Control_c, 2, 91, 120
6, 1, Text_t, "Non Registered Parameter Numbers"
6, 1, Text_t, "For Roland SC-55 Vibrato"
6, 1, Text_t, "Set up NRPN for Vibrate Rate"
6, 2, Control_c, 2, 99, 1
6, 3, Control_c, 2, 98, 8
6, 4, Text_t, "Data Entry Command"
6, 4, Control_c, 2, 6, 68
6, 5, Text_t, "Set up NRPN for Vibrate Delay"
6, 6, Control_c, 2, 99, 1
6, 7, Control_c, 2, 98, 10
6, 8, Text_t, "Data Entry Command"
6, 8, Control_c, 2, 6, 14
6, 9, Text_t, "Set up NRPN for Vibrate Depth"
6, 10, Control_c, 2, 99, 1
6, 11, Control_c, 2, 98, 9
6, 12, Text_t, "Data Entry Command; Vibrato ON"
6, 12, Control_c, 2, 6, 70
6, 13, Pitch_bend_c, 2, 8192
6, 360, Note_on_c, 2, 64, 64
6, 405, Note_on_c, 2, 64, 0
6, 405, Note_on_c, 2, 66, 64
6, 420, Note_on_c, 2, 66, 0
6, 420, Note_on_c, 2, 64, 64
6, 465, Note_on_c, 2, 64, 0
6, 465, Note_on_c, 2, 66, 64
6, 480, Note_on_c, 2, 66, 0
6, 480, Note_on_c, 2, 64, 64
6, 525, Note_on_c, 2, 64, 0
6, 525, Note_on_c, 2, 66, 64
6, 540, Note_on_c, 2, 66, 0
6, 540, Note_on_c, 2, 64, 64
6, 585, Note_on_c, 2, 64, 0
6, 585, Note_on_c, 2, 66, 64
6, 600, Note_on_c, 2, 66, 0
6, 600, Note_on_c, 2, 64, 64
6, 645, Note_on_c, 2, 64, 0
6, 645, Note_on_c, 2, 69, 64
6, 660, Note_on_c, 2, 69, 0
6, 660, Note_on_c, 2, 68, 64
6, 705, Note_on_c, 2, 68, 0
6, 705, Note_on_c, 2, 66, 64
6, 720, Note_on_c, 2, 66, 0
6, 720, Note_on_c, 2, 64, 64
6, 765, Note_on_c, 2, 64, 0
6, 765, Note_on_c, 2, 66, 64
6, 780, Note_on_c, 2, 66, 0
6, 780, Note_on_c, 2, 64, 64
6, 825, Note_on_c, 2, 64, 0
6, 825, Note_on_c, 2, 66, 64
6, 840, Note_on_c, 2, 66, 0
6, 840, Note_on_c, 2, 64, 64
6, 885, Note_on_c, 2, 64, 0
6, 885, Note_on_c, 2, 66, 64
6, 900, Note_on_c, 2, 66, 0
6, 900, Note_on_c, 2, 64, 64
6, 945, Note_on_c, 2, 64, 0
6, 945, Note_on_c, 2, 66, 64
6, 960, Note_on_c, 2, 66, 0
6, 960, Note_on_c, 2, 64, 64
6, 1005, Note_on_c, 2, 64, 0
6, 1005, Note_on_c, 2, 69, 64
6, 1020, Note_on_c, 2, 69, 0
6, 1020, Note_on_c, 2, 68, 64
6, 1065, Note_on_c, 2, 68, 0
6, 1065, Note_on_c, 2, 66, 64
6, 1080, Note_on_c, 2, 66, 0
6, 1080, Note_on_c, 2, 64, 64
6, 1125, Note_on_c, 2, 64, 0
6, 1125, Note_on_c, 2, 66, 64
6, 1140, Note_on_c, 2, 66, 0
6, 1140, Note_on_c, 2, 64, 64
6, 1185, Note_on_c, 2, 64, 0
6, 1185, Note_on_c, 2, 66, 64
6, 1200, Note_on_c, 2, 66, 0
6, 1200, Note_on_c, 2, 64, 64
6, 1245, Note_on_c, 2, 64, 0
6, 1245, Note_on_c, 2, 66, 64
6, 1260, Note_on_c, 2, 66, 0
6, 1260, Note_on_c, 2, 64, 64
6, 1305, Note_on_c, 2, 64, 0
6, 1305, Note_on_c, 2, 66, 64
6, 1320, Note_on_c, 2, 66, 0
6, 1320, Note_on_c, 2, 64, 64
6, 1365, Note_on_c, 2, 64, 0
6, 1365, Note_on_c, 2, 66, 64
6, 1380, Note_on_c, 2, 66, 0
6, 1380, Note_on_c, 2, 68, 64
6, 1425, Note_on_c, 2, 68, 0
6, 1425, Note_on_c, 2, 69, 64
6, 1440, Note_on_c, 2, 69, 0
6, 1440, Note_on_c, 2, 72, 64
6, 1485, Note_on_c, 2, 72, 0
6, 1485, Note_on_c, 2, 73, 64
6, 1500, Note_on_c, 2, 73, 0
6, 1500, Note_on_c, 2, 72, 64
6, 1545, Note_on_c, 2, 72, 0
6, 1545, Note_on_c, 2, 73, 64
6, 1560, Note_on_c, 2, 73, 0
6, 1560, Note_on_c, 2, 72, 64
6, 1605, Note_on_c, 2, 72, 0
6, 1605, Note_on_c, 2, 73, 64
6, 1620, Note_on_c, 2, 73, 0
6, 1620, Note_on_c, 2, 72, 64
6, 1665, Note_on_c, 2, 72, 0
6, 1665, Note_on_c, 2, 73, 64
6, 1680, Note_on_c, 2, 73, 0
6, 1680, Note_on_c, 2, 72, 64
6, 1725, Note_on_c, 2, 72, 0
6, 1725, Note_on_c, 2, 76, 64
6, 1740, Note_on_c, 2, 76, 0
6, 1740, Note_on_c, 2, 75, 64
6, 1785, Note_on_c, 2, 75, 0
6, 1785, Note_on_c, 2, 73, 64
6, 1800, Note_on_c, 2, 73, 0
6, 1800, Note_on_c, 2, 72, 64
6, 1845, Note_on_c, 2, 72, 0
6, 1845, Note_on_c, 2, 73, 64
6, 1860, Note_on_c, 2, 73, 0
6, 1860, Note_on_c, 2, 72, 64
6, 1905, Note_on_c, 2, 72, 0
6, 1905, Note_on_c, 2, 73, 64
6, 1920, Note_on_c, 2, 73, 0
6, 1920, Note_on_c, 2, 72, 64
6, 1965, Note_on_c, 2, 72, 0
6, 1965, Note_on_c, 2, 73, 64
6, 1980, Note_on_c, 2, 73, 0
6, 1980, Note_on_c, 2, 72, 64
6, 2025, Note_on_c, 2, 72, 0
6, 2025, Note_on_c, 2, 73, 64
6, 2040, Note_on_c, 2, 73, 0
6, 2040, Note_on_c, 2, 72, 64
6, 2085, Note_on_c, 2, 72, 0
6, 2085, Note_on_c, 2, 76, 64
6, 2100, Note_on_c, 2, 76, 0
6, 2100, Note_on_c, 2, 75, 64
6, 2145, Note_on_c, 2, 75, 0
6, 2145, Note_on_c, 2, 73, 64
6, 2160, Note_on_c, 2, 73, 0
6, 2160, Note_on_c, 2, 72, 64
6, 2205, Note_on_c, 2, 72, 0
6, 2205, Note_on_c, 2, 73, 64
6, 2220, Note_on_c, 2, 73, 0
6, 2220, Note_on_c, 2, 72, 64
6, 2265, Note_on_c, 2, 72, 0
6, 2265, Note_on_c, 2, 73, 64
6, 2280, Note_on_c, 2, 73, 0
6, 2280, Note_on_c, 2, 72, 64
6, 2325, Note_on_c, 2, 72, 0
6, 2325, Note_on_c, 2, 73, 64
6, 2340, Note_on_c, 2, 73, 0
6, 2340, Note_on_c, 2, 72, 64
6, 2385, Note_on_c, 2, 72, 0
6, 2385, Note_on_c, 2, 73, 64
6, 2400, Note_on_c, 2, 73, 0
6, 2400, Note_on_c, 2, 72, 64
6, 2445, Note_on_c, 2, 72, 0
6, 2445, Note_on_c, 2, 73, 64
6, 2460, Note_on_c, 2, 73, 0
6, 2460, Note_on_c, 2, 75, 64
6, 2505, Note_on_c, 2, 75, 0
6, 2505, Note_on_c, 2, 72, 64
6, 2520, Note_on_c, 2, 72, 0
6, 2520, Note_on_c, 2, 73, 64
6, 2565, Note_on_c, 2, 73, 0
6, 2565, Note_on_c, 2, 75, 64
6, 2580, Note_on_c, 2, 75, 0
6, 2580, Note_on_c, 2, 73, 64
6, 2625, Note_on_c, 2, 73, 0
6, 2625, Note_on_c, 2, 75, 64
6, 2640, Note_on_c, 2, 75, 0
6, 2640, Note_on_c, 2, 73, 64
6, 2685, Note_on_c, 2, 73, 0
6, 2685, Note_on_c, 2, 75, 64
6, 2700, Note_on_c, 2, 75, 0
6, 2700, Note_on_c, 2, 73, 64
6, 2745, Note_on_c, 2, 73, 0
6, 2745, Note_on_c, 2, 75, 64
6, 2760, Note_on_c, 2, 75, 0
6, 2760, Note_on_c, 2, 73, 64
6, 2805, Note_on_c, 2, 73, 0
6, 2805, Note_on_c, 2, 75, 64
6, 2820, Note_on_c, 2, 75, 0
6, 2820, Note_on_c, 2, 73, 64
6, 2865, Note_on_c, 2, 73, 0
6, 2865, Note_on_c, 2, 75, 64
6, 2880, Note_on_c, 2, 75, 0
6, 2880, Note_on_c, 2, 61, 64
6, 2925, Note_on_c, 2, 61, 0
6, 2925, Note_on_c, 2, 63, 64
6, 2940, Note_on_c, 2, 63, 0
6, 2940, Note_on_c, 2, 61, 64
6, 2985, Note_on_c, 2, 61, 0
6, 2985, Note_on_c, 2, 63, 64
6, 3000, Note_on_c, 2, 63, 0
6, 3000, Note_on_c, 2, 61, 64
6, 3045, Note_on_c, 2, 61, 0
6, 3045, Note_on_c, 2, 63, 64
6, 3060, Note_on_c, 2, 63, 0
6, 3060, Note_on_c, 2, 61, 64
6, 3105, Note_on_c, 2, 61, 0
6, 3105, Note_on_c, 2, 63, 64
6, 3120, Note_on_c, 2, 63, 0
6, 3120, Note_on_c, 2, 61, 64
6, 3165, Note_on_c, 2, 61, 0
6, 3165, Note_on_c, 2, 63, 64
6, 3180, Note_on_c, 2, 63, 0
6, 3180, Note_on_c, 2, 61, 64
6, 3225, Note_on_c, 2, 61, 0
6, 3225, Note_on_c, 2, 63, 64
6, 3240, Note_on_c, 2, 63, 0
6, 3240, Note_on_c, 2, 73, 64
6, 3285, Note_on_c, 2, 73, 0
6, 3285, Note_on_c, 2, 75, 64
6, 3300, Note_on_c, 2, 75, 0
6, 3300, Note_on_c, 2, 73, 64
6, 3345, Note_on_c, 2, 73, 0
6, 3345, Note_on_c, 2, 75, 64
6, 3360, Note_on_c, 2, 75, 0
6, 3360, Note_on_c, 2, 73, 64
6, 3405, Note_on_c, 2, 73, 0
6, 3405, Note_on_c, 2, 75, 64
6, 3420, Note_on_c, 2, 75, 0
6, 3420, Note_on_c, 2, 73, 64
6, 3465, Note_on_c, 2, 73, 0
6, 3465, Note_on_c, 2, 75, 64
6, 3480, Note_on_c, 2, 75, 0
6, 3480, Note_on_c, 2, 73, 64
6, 3525, Note_on_c, 2, 73, 0
6, 3525, Note_on_c, 2, 75, 64
6, 3540, Note_on_c, 2, 75, 0
6, 3540, Note_on_c, 2, 73, 64
6, 3585, Note_on_c, 2, 73, 0
6, 3585, Note_on_c, 2, 75, 64
6, 3600, Note_on_c, 2, 75, 0
6, 3600, Note_on_c, 2, 66, 64
6, 3655, Note_on_c, 2, 66, 0
6, 3660, Note_on_c, 2, 66, 64
6, 3715, Note_on_c, 2, 66, 0
6, 3720, Note_on_c, 2, 78, 64
6, 3765, Note_on_c, 2, 78, 0
6, 3765, Note_on_c, 2, 80, 64
6, 3780, Note_on_c, 2, 80, 0
6, 3780, Note_on_c, 2, 78, 64
6, 3825, Note_on_c, 2, 78, 0
6, 3825, Note_on_c, 2, 80, 64
6, 3840, Note_on_c, 2, 80, 0
6, 3840, Note_on_c, 2, 78, 64
6, 3885, Note_on_c, 2, 78, 0
6, 3885, Note_on_c, 2, 80, 64
6, 3900, Note_on_c, 2, 80, 0
6, 3900, Note_on_c, 2, 78, 64
6, 3945, Note_on_c, 2, 78, 0
6, 3945, Note_on_c, 2, 80, 64
6, 3960, Note_on_c, 2, 80, 0
6, 3960, Note_on_c, 2, 71, 64
6, 4005, Note_on_c, 2, 71, 0
6, 4005, Note_on_c, 2, 73, 64
6, 4020, Note_on_c, 2, 73, 0
6, 4020, Note_on_c, 2, 71, 64
6, 4065, Note_on_c, 2, 71, 0
6, 4065, Note_on_c, 2, 73, 64
6, 4080, Note_on_c, 2, 73, 0
6, 4080, Note_on_c, 2, 71, 64
6, 4125, Note_on_c, 2, 71, 0
6, 4125, Note_on_c, 2, 73, 64
6, 4140, Note_on_c, 2, 73, 0
6, 4140, Note_on_c, 2, 71, 64
6, 4185, Note_on_c, 2, 71, 0
6, 4185, Note_on_c, 2, 73, 64
6, 4200, Note_on_c, 2, 73, 0
6, 4200, Note_on_c, 2, 71, 64
6, 4245, Note_on_c, 2, 71, 0
6, 4245, Note_on_c, 2, 73, 64
6, 4260, Note_on_c, 2, 73, 0
6, 4260, Note_on_c, 2, 71, 64
6, 4305, Note_on_c, 2, 71, 0
6, 4305, Note_on_c, 2, 73, 64
6, 4320, Note_on_c, 2, 73, 0
6, 4320, Note_on_c, 2, 66, 64
6, 4375, Note_on_c, 2, 66, 0
6, 4380, Note_on_c, 2, 66, 64
6, 4435, Note_on_c, 2, 66, 0
6, 4440, Note_on_c, 2, 76, 64
6, 4485, Note_on_c, 2, 76, 0
6, 4485, Note_on_c, 2, 78, 64
6, 4500, Note_on_c, 2, 78, 0
6, 4500, Note_on_c, 2, 76, 64
6, 4545, Note_on_c, 2, 76, 0
6, 4545, Note_on_c, 2, 78, 64
6, 4560, Note_on_c, 2, 78, 0
6, 4560, Note_on_c, 2, 76, 64
6, 4605, Note_on_c, 2, 76, 0
6, 4605, Note_on_c, 2, 78, 64
6, 4620, Note_on_c, 2, 78, 0
6, 4620, Note_on_c, 2, 76, 64
6, 4665, Note_on_c, 2, 76, 0
6, 4665, Note_on_c, 2, 78, 64
6, 4680, Note_on_c, 2, 78, 0
6, 4680, Note_on_c, 2, 69, 64
6, 4725, Note_on_c, 2, 69, 0
6, 4725, Note_on_c, 2, 71, 64
6, 4740, Note_on_c, 2, 71, 0
6, 4740, Note_on_c, 2, 69, 64
6, 4785, Note_on_c, 2, 69, 0
6, 4785, Note_on_c, 2, 71, 64
6, 4800, Note_on_c, 2, 71, 0
6, 4800, Note_on_c, 2, 69, 64
6, 4845, Note_on_c, 2, 69, 0
6, 4845, Note_on_c, 2, 71, 64
6, 4860, Note_on_c, 2, 71, 0
6, 4860, Note_on_c, 2, 69, 64
6, 4905, Note_on_c, 2, 69, 0
6, 4905, Note_on_c, 2, 71, 64
6, 4920, Note_on_c, 2, 71, 0
6, 4920, Note_on_c, 2, 69, 64
6, 4965, Note_on_c, 2, 69, 0
6, 4965, Note_on_c, 2, 71, 64
6, 4980, Note_on_c, 2, 71, 0
6, 4980, Note_on_c, 2, 69, 64
6, 5025, Note_on_c, 2, 69, 0
6, 5025, Note_on_c, 2, 71, 64
6, 5040, Note_on_c, 2, 71, 0
6, 5040, Note_on_c, 2, 63, 64
6, 5095, Note_on_c, 2, 63, 0
6, 5100, Note_on_c, 2, 63, 64
6, 5155, Note_on_c, 2, 63, 0
6, 5160, Note_on_c, 2, 75, 64
6, 5205, Note_on_c, 2, 75, 0
6, 5205, Note_on_c, 2, 76, 64
6, 5220, Note_on_c, 2, 76, 0
6, 5220, Note_on_c, 2, 75, 64
6, 5265, Note_on_c, 2, 75, 0
6, 5265, Note_on_c, 2, 76, 64
6, 5280, Note_on_c, 2, 76, 0
6, 5280, Note_on_c, 2, 75, 64
6, 5325, Note_on_c, 2, 75, 0
6, 5325, Note_on_c, 2, 76, 64
6, 5340, Note_on_c, 2, 76, 0
6, 5340, Note_on_c, 2, 75, 64
6, 5385, Note_on_c, 2, 75, 0
6, 5385, Note_on_c, 2, 66, 64
6, 5400, Note_on_c, 2, 66, 0
6, 5400, Note_on_c, 2, 68, 64
6, 5445, Note_on_c, 2, 68, 0
6, 5445, Note_on_c, 2, 69, 64
6, 5460, Note_on_c, 2, 69, 0
6, 5460, Note_on_c, 2, 68, 64
6, 5505, Note_on_c, 2, 68, 0
6, 5505, Note_on_c, 2, 69, 64
6, 5520, Note_on_c, 2, 69, 0
6, 5520, Note_on_c, 2, 68, 64
6, 5565, Note_on_c, 2, 68, 0
6, 5565, Note_on_c, 2, 69, 64
6, 5580, Note_on_c, 2, 69, 0
6, 5580, Note_on_c, 2, 68, 64
6, 5625, Note_on_c, 2, 68, 0
6, 5625, Note_on_c, 2, 69, 64
6, 5640, Note_on_c, 2, 69, 0
6, 5640, Note_on_c, 2, 68, 64
6, 5685, Note_on_c, 2, 68, 0
6, 5685, Note_on_c, 2, 69, 64
6, 5700, Note_on_c, 2, 69, 0
6, 5700, Note_on_c, 2, 68, 64
6, 5745, Note_on_c, 2, 68, 0
6, 5745, Note_on_c, 2, 69, 64
6, 5760, Note_on_c, 2, 69, 0
6, 5760, Note_on_c, 2, 70, 64
6, 5815, Note_on_c, 2, 70, 0
6, 5820, Note_on_c, 2, 70, 64
6, 5875, Note_on_c, 2, 70, 0
6, 5880, Note_on_c, 2, 70, 64
6, 5935, Note_on_c, 2, 70, 0
6, 5940, Note_on_c, 2, 70, 64
6, 5995, Note_on_c, 2, 70, 0
6, 6000, Note_on_c, 2, 71, 64
6, 6045, Note_on_c, 2, 71, 0
6, 6045, Note_on_c, 2, 73, 64
6, 6060, Note_on_c, 2, 73, 0
6, 6060, Note_on_c, 2, 71, 64
6, 6105, Note_on_c, 2, 71, 0
6, 6105, Note_on_c, 2, 73, 64
6, 6120, Note_on_c, 2, 73, 0
6, 6120, Note_on_c, 2, 70, 64
6, 6180, Note_on_c, 2, 70, 0
6, 6180, Note_on_c, 2, 70, 64
6, 6240, Note_on_c, 2, 70, 0
6, 6240, Note_on_c, 2, 70, 64
6, 6300, Note_on_c, 2, 70, 0
6, 6300, Note_on_c, 2, 70, 64
6, 6360, Note_on_c, 2, 70, 0
6, 6360, Note_on_c, 2, 70, 64
6, 6420, Note_on_c, 2, 70, 0
6, 6420, Note_on_c, 2, 70, 64
6, 6480, Note_on_c, 2, 70, 0
6, 6480, Note_on_c, 2, 68, 64
6, 6525, Note_on_c, 2, 68, 0
6, 6525, Note_on_c, 2, 70, 64
6, 6540, Note_on_c, 2, 70, 0
6, 6540, Note_on_c, 2, 68, 64
6, 6585, Note_on_c, 2, 68, 0
6, 6585, Note_on_c, 2, 70, 64
6, 6600, Note_on_c, 2, 70, 0
6, 6600, Note_on_c, 2, 68, 64
6, 6645, Note_on_c, 2, 68, 0
6, 6645, Note_on_c, 2, 70, 64
6, 6660, Note_on_c, 2, 70, 0
6, 6660, Note_on_c, 2, 68, 64
6, 6705, Note_on_c, 2, 68, 0
6, 6705, Note_on_c, 2, 70, 64
6, 6720, Note_on_c, 2, 70, 0
6, 6720, Note_on_c, 2, 68, 64
6, 6765, Note_on_c, 2, 68, 0
6, 6765, Note_on_c, 2, 73, 64
6, 6780, Note_on_c, 2, 73, 0
6, 6780, Note_on_c, 2, 71, 64
6, 6825, Note_on_c, 2, 71, 0
6, 6825, Note_on_c, 2, 70, 64
6, 6840, Note_on_c, 2, 70, 0
6, 6840, Note_on_c, 2, 68, 64
6, 6885, Note_on_c, 2, 68, 0
6, 6885, Note_on_c, 2, 70, 64
6, 6900, Note_on_c, 2, 70, 0
6, 6900, Note_on_c, 2, 68, 64
6, 6945, Note_on_c, 2, 68, 0
6, 6945, Note_on_c, 2, 70, 64
6, 6960, Note_on_c, 2, 70, 0
6, 6960, Note_on_c, 2, 68, 64
6, 7005, Note_on_c, 2, 68, 0
6, 7005, Note_on_c, 2, 70, 64
6, 7020, Note_on_c, 2, 70, 0
6, 7020, Note_on_c, 2, 68, 64
6, 7065, Note_on_c, 2, 68, 0
6, 7065, Note_on_c, 2, 70, 64
6, 7080, Note_on_c, 2, 70, 0
6, 7080, Note_on_c, 2, 68, 64
6, 7125, Note_on_c, 2, 68, 0
6, 7125, Note_on_c, 2, 69, 64
6, 7140, Note_on_c, 2, 69, 0
6, 7140, Note_on_c, 2, 68, 64
6, 7185, Note_on_c, 2, 68, 0
6, 7185, Note_on_c, 2, 66, 64
6, 7200, Note_on_c, 2, 66, 0
6, 7200, Note_on_c, 2, 64, 64
6, 7245, Note_on_c, 2, 64, 0
6, 7245, Note_on_c, 2, 66, 64
6, 7260, Note_on_c, 2, 66, 0
6, 7260, Note_on_c, 2, 64, 64
6, 7305, Note_on_c, 2, 64, 0
6, 7305, Note_on_c, 2, 66, 64
6, 7320, Note_on_c, 2, 66, 0
6, 7320, Note_on_c, 2, 64, 64
6, 7365, Note_on_c, 2, 64, 0
6, 7365, Note_on_c, 2, 66, 64
6, 7380, Note_on_c, 2, 66, 0
6, 7380, Note_on_c, 2, 64, 64
6, 7425, Note_on_c, 2, 64, 0
6, 7425, Note_on_c, 2, 66, 64
6, 7440, Note_on_c, 2, 66, 0
6, 7440, Note_on_c, 2, 64, 64
6, 7485, Note_on_c, 2, 64, 0
6, 7485, Note_on_c, 2, 69, 64
6, 7500, Note_on_c, 2, 69, 0
6, 7500, Note_on_c, 2, 68, 64
6, 7545, Note_on_c, 2, 68, 0
6, 7545, Note_on_c, 2, 66, 64
6, 7560, Note_on_c, 2, 66, 0
6, 7560, Note_on_c, 2, 64, 64
6, 7605, Note_on_c, 2, 64, 0
6, 7605, Note_on_c, 2, 66, 64
6, 7620, Note_on_c, 2, 66, 0
6, 7620, Note_on_c, 2, 64, 64
6, 7665, Note_on_c, 2, 64, 0
6, 7665, Note_on_c, 2, 66, 64
6, 7680, Note_on_c, 2, 66, 0
6, 7680, Note_on_c, 2, 64, 64
6, 7725, Note_on_c, 2, 64, 0
6, 7725, Note_on_c, 2, 66, 64
6, 7740, Note_on_c, 2, 66, 0
6, 7740, Note_on_c, 2, 64, 64
6, 7785, Note_on_c, 2, 64, 0
6, 7785, Note_on_c, 2, 66, 64
6, 7800, Note_on_c, 2, 66, 0
6, 7800, Note_on_c, 2, 64, 64
6, 7845, Note_on_c, 2, 64, 0
6, 7845, Note_on_c, 2, 66, 64
6, 7860, Note_on_c, 2, 66, 0
6, 7860, Note_on_c, 2, 68, 64
6, 7905, Note_on_c, 2, 68, 0
6, 7905, Note_on_c, 2, 69, 64
6, 7920, Note_on_c, 2, 69, 0
6, 7920, Note_on_c, 2, 72, 64
6, 7965, Note_on_c, 2, 72, 0
6, 7965, Note_on_c, 2, 73, 64
6, 7980, Note_on_c, 2, 73, 0
6, 7980, Note_on_c, 2, 72, 64
6, 8025, Note_on_c, 2, 72, 0
6, 8025, Note_on_c, 2, 73, 64
6, 8040, Note_on_c, 2, 73, 0
6, 8040, Note_on_c, 2, 72, 64
6, 8085, Note_on_c, 2, 72, 0
6, 8085, Note_on_c, 2, 73, 64
6, 8100, Note_on_c, 2, 73, 0
6, 8100, Note_on_c, 2, 72, 64
6, 8145, Note_on_c, 2, 72, 0
6, 8145, Note_on_c, 2, 73, 64
6, 8160, Note_on_c, 2, 73, 0
6, 8160, Note_on_c, 2, 72, 64
6, 8205, Note_on_c, 2, 72, 0
6, 8205, Note_on_c, 2, 73, 64
6, 8220, Note_on_c, 2, 73, 0
6, 8220, Note_on_c, 2, 75, 64
6, 8265, Note_on_c, 2, 75, 0
6, 8265, Note_on_c, 2, 72, 64
6, 8280, Note_on_c, 2, 72, 0
6, 8280, Note_on_c, 2, 73, 64
6, 8325, Note_on_c, 2, 73, 0
6, 8325, Note_on_c, 2, 75, 64
6, 8340, Note_on_c, 2, 75, 0
6, 8340, Note_on_c, 2, 73, 64
6, 8385, Note_on_c, 2, 73, 0
6, 8385, Note_on_c, 2, 75, 64
6, 8400, Note_on_c, 2, 75, 0
6, 8400, Note_on_c, 2, 73, 64
6, 8445, Note_on_c, 2, 73, 0
6, 8445, Note_on_c, 2, 75, 64
6, 8460, Note_on_c, 2, 75, 0
6, 8460, Note_on_c, 2, 73, 64
6, 8505, Note_on_c, 2, 73, 0
6, 8505, Note_on_c, 2, 75, 64
6, 8520, Note_on_c, 2, 75, 0
6, 8520, Note_on_c, 2, 73, 64
6, 8565, Note_on_c, 2, 73, 0
6, 8565, Note_on_c, 2, 75, 64
6, 8580, Note_on_c, 2, 75, 0
6, 8580, Note_on_c, 2, 73, 64
6, 8625, Note_on_c, 2, 73, 0
6, 8625, Note_on_c, 2, 75, 64
6, 8640, Note_on_c, 2, 75, 0
6, 8640, Note_on_c, 2, 73, 64
6, 8685, Note_on_c, 2, 73, 0
6, 8685, Note_on_c, 2, 75, 64
6, 8700, Note_on_c, 2, 75, 0
6, 8700, Note_on_c, 2, 73, 64
6, 8745, Note_on_c, 2, 73, 0
6, 8745, Note_on_c, 2, 75, 64
6, 8760, Note_on_c, 2, 75, 0
6, 8760, Note_on_c, 2, 73, 64
6, 8805, Note_on_c, 2, 73, 0
6, 8805, Note_on_c, 2, 75, 64
6, 8820, Note_on_c, 2, 75, 0
6, 8820, Note_on_c, 2, 73, 64
6, 8865, Note_on_c, 2, 73, 0
6, 8865, Note_on_c, 2, 75, 64
6, 8880, Note_on_c, 2, 75, 0
6, 8880, Note_on_c, 2, 73, 64
6, 8925, Note_on_c, 2, 73, 0
6, 8925, Note_on_c, 2, 75, 64
6, 8940, Note_on_c, 2, 75, 0
6, 8940, Note_on_c, 2, 73, 64
6, 8985, Note_on_c, 2, 73, 0
6, 8985, Note_on_c, 2, 71, 64
6, 9000, Note_on_c, 2, 71, 0
6, 9000, Note_on_c, 2, 69, 64
6, 9045, Note_on_c, 2, 69, 0
6, 9045, Note_on_c, 2, 71, 64
6, 9060, Note_on_c, 2, 71, 0
6, 9060, Note_on_c, 2, 69, 64
6, 9105, Note_on_c, 2, 69, 0
6, 9105, Note_on_c, 2, 71, 64
6, 9120, Note_on_c, 2, 71, 0
6, 9120, Note_on_c, 2, 69, 64
6, 9165, Note_on_c, 2, 69, 0
6, 9165, Note_on_c, 2, 71, 64
6, 9180, Note_on_c, 2, 71, 0
6, 9180, Note_on_c, 2, 69, 64
6, 9225, Note_on_c, 2, 69, 0
6, 9225, Note_on_c, 2, 71, 64
6, 9240, Note_on_c, 2, 71, 0
6, 9240, Note_on_c, 2, 69, 64
6, 9285, Note_on_c, 2, 69, 0
6, 9285, Note_on_c, 2, 71, 64
6, 9300, Note_on_c, 2, 71, 0
6, 9300, Note_on_c, 2, 73, 64
6, 9345, Note_on_c, 2, 73, 0
6, 9345, Note_on_c, 2, 69, 64
6, 9360, Note_on_c, 2, 69, 0
6, 9360, Note_on_c, 2, 75, 64
6, 9405, Note_on_c, 2, 75, 0
6, 9405, Note_on_c, 2, 76, 64
6, 9420, Note_on_c, 2, 76, 0
6, 9420, Note_on_c, 2, 75, 64
6, 9465, Note_on_c, 2, 75, 0
6, 9465, Note_on_c, 2, 76, 64
6, 9480, Note_on_c, 2, 76, 0
6, 9480, Note_on_c, 2, 75, 64
6, 9525, Note_on_c, 2, 75, 0
6, 9525, Note_on_c, 2, 76, 64
6, 9540, Note_on_c, 2, 76, 0
6, 9540, Note_on_c, 2, 75, 64
6, 9585, Note_on_c, 2, 75, 0
6, 9585, Note_on_c, 2, 76, 64
6, 9600, Note_on_c, 2, 76, 0
6, 9600, Note_on_c, 2, 75, 64
6, 9645, Note_on_c, 2, 75, 0
6, 9645, Note_on_c, 2, 76, 64
6, 9660, Note_on_c, 2, 76, 0
6, 9660, Note_on_c, 2, 75, 64
6, 9705, Note_on_c, 2, 75, 0
6, 9705, Note_on_c, 2, 73, 64
6, 9720, Note_on_c, 2, 73, 0
6, 9720, Note_on_c, 2, 72, 64
6, 9765, Note_on_c, 2, 72, 0
6, 9765, Note_on_c, 2, 73, 64
6, 9780, Note_on_c, 2, 73, 0
6, 9780, Note_on_c, 2, 72, 64
6, 9825, Note_on_c, 2, 72, 0
6, 9825, Note_on_c, 2, 73, 64
6, 9840, Note_on_c, 2, 73, 0
6, 9840, Note_on_c, 2, 72, 64
6, 9885, Note_on_c, 2, 72, 0
6, 9885, Note_on_c, 2, 73, 64
6, 9900, Note_on_c, 2, 73, 0
6, 9900, Note_on_c, 2, 72, 64
6, 9945, Note_on_c, 2, 72, 0
6, 9945, Note_on_c, 2, 73, 64
6, 9960, Note_on_c, 2, 73, 0
6, 9960, Note_on_c, 2, 72, 64
6, 10005, Note_on_c, 2, 72, 0
6, 10005, Note_on_c, 2, 73, 64
6, 10020, Note_on_c, 2, 73, 0
6, 10020, Note_on_c, 2, 75, 64
6, 10065, Note_on_c, 2, 75, 0
6, 10065, Note_on_c, 2, 72, 64
6, 10080, Note_on_c, 2, 72, 0
6, 10080, Note_on_c, 2, 75, 64
6, 10135, Note_on_c, 2, 75, 0
6, 10140, Note_on_c, 2, 75, 64
6, 10195, Note_on_c, 2, 75, 0
6, 10200, Note_on_c, 2, 75, 64
6, 10255, Note_on_c, 2, 75, 0
6, 10260, Note_on_c, 2, 75, 64
6, 10315, Note_on_c, 2, 75, 0
6, 10320, Note_on_c, 2, 75, 64
6, 10375, Note_on_c, 2, 75, 0
6, 10380, Note_on_c, 2, 75, 64
6, 10435, Note_on_c, 2, 75, 0
6, 10440, Note_on_c, 2, 76, 64
6, 10485, Note_on_c, 2, 76, 0
6, 10485, Note_on_c, 2, 78, 64
6, 10500, Note_on_c, 2, 78, 0
6, 10500, Note_on_c, 2, 76, 64
6, 10545, Note_on_c, 2, 76, 0
6, 10545, Note_on_c, 2, 78, 64
6, 10560, Note_on_c, 2, 78, 0
6, 10560, Note_on_c, 2, 76, 64
6, 10605, Note_on_c, 2, 76, 0
6, 10605, Note_on_c, 2, 78, 64
6, 10620, Note_on_c, 2, 78, 0
6, 10620, Note_on_c, 2, 76, 64
6, 10665, Note_on_c, 2, 76, 0
6, 10665, Note_on_c, 2, 78, 64
6, 10680, Note_on_c, 2, 78, 0
6, 10680, Note_on_c, 2, 76, 64
6, 10725, Note_on_c, 2, 76, 0
6, 10725, Note_on_c, 2, 78, 64
6, 10740, Note_on_c, 2, 78, 0
6, 10740, Note_on_c, 2, 76, 64
6, 10785, Note_on_c, 2, 76, 0
6, 10785, Note_on_c, 2, 78, 64
6, 10800, Note_on_c, 2, 78, 0
6, 10800, Note_on_c, 2, 66, 64
6, 10845, Note_on_c, 2, 66, 0
6, 10845, Note_on_c, 2, 68, 64
6, 10860, Note_on_c, 2, 68, 0
6, 10860, Note_on_c, 2, 66, 64
6, 10905, Note_on_c, 2, 66, 0
6, 10905, Note_on_c, 2, 68, 64
6, 10920, Note_on_c, 2, 68, 0
6, 10920, Note_on_c, 2, 66, 64
6, 10965, Note_on_c, 2, 66, 0
6, 10965, Note_on_c, 2, 68, 64
6, 10980, Note_on_c, 2, 68, 0
6, 10980, Note_on_c, 2, 66, 64
6, 11025, Note_on_c, 2, 66, 0
6, 11025, Note_on_c, 2, 68, 64
6, 11040, Note_on_c, 2, 68, 0
6, 11040, Note_on_c, 2, 66, 64
6, 11085, Note_on_c, 2, 66, 0
6, 11085, Note_on_c, 2, 68, 64
6, 11100, Note_on_c, 2, 68, 0
6, 11100, Note_on_c, 2, 66, 64
6, 11145, Note_on_c, 2, 66, 0
6, 11145, Note_on_c, 2, 68, 64
6, 11160, Note_on_c, 2, 68, 0
6, 11160, Note_on_c, 2, 66, 64
6, 11205, Note_on_c, 2, 66, 0
6, 11205, Note_on_c, 2, 68, 64
6, 11220, Note_on_c, 2, 68, 0
6, 11220, Note_on_c, 2, 66, 64
6, 11265, Note_on_c, 2, 66, 0
6, 11265, Note_on_c, 2, 68, 64
6, 11280, Note_on_c, 2, 68, 0
6, 11280, Note_on_c, 2, 66, 64
6, 11325, Note_on_c, 2, 66, 0
6, 11325, Note_on_c, 2, 68, 64
6, 11340, Note_on_c, 2, 68, 0
6, 11340, Note_on_c, 2, 66, 64
6, 11385, Note_on_c, 2, 66, 0
6, 11385, Note_on_c, 2, 68, 64
6, 11400, Note_on_c, 2, 68, 0
6, 11400, Note_on_c, 2, 66, 64
6, 11445, Note_on_c, 2, 66, 0
6, 11445, Note_on_c, 2, 68, 64
6, 11460, Note_on_c, 2, 68, 0
6, 11460, Note_on_c, 2, 66, 64
6, 11505, Note_on_c, 2, 66, 0
6, 11505, Note_on_c, 2, 69, 64
6, 11520, Note_on_c, 2, 69, 0
6, 11520, Note_on_c, 2, 68, 64
6, 11580, Note_on_c, 2, 68, 0
6, 11580, Note_on_c, 2, 68, 64
6, 11640, Note_on_c, 2, 68, 0
6, 11640, Note_on_c, 2, 68, 64
6, 11700, Note_on_c, 2, 68, 0
6, 11700, Note_on_c, 2, 68, 64
6, 11760, Note_on_c, 2, 68, 0
6, 11760, Note_on_c, 2, 68, 64
6, 11820, Note_on_c, 2, 68, 0
6, 11820, Note_on_c, 2, 72, 64
6, 11880, Note_on_c, 2, 72, 0
6, 11880, Note_on_c, 2, 73, 64
6, 11925, Note_on_c, 2, 73, 0
6, 11925, Note_on_c, 2, 75, 64
6, 11940, Note_on_c, 2, 75, 0
6, 11940, Note_on_c, 2, 73, 64
6, 11985, Note_on_c, 2, 73, 0
6, 11985, Note_on_c, 2, 75, 64
6, 12000, Note_on_c, 2, 75, 0
6, 12000, Note_on_c, 2, 73, 64
6, 12045, Note_on_c, 2, 73, 0
6, 12045, Note_on_c, 2, 75, 64
6, 12060, Note_on_c, 2, 75, 0
6, 12060, Note_on_c, 2, 73, 64
6, 12105, Note_on_c, 2, 73, 0
6, 12105, Note_on_c, 2, 75, 64
6, 12120, Note_on_c, 2, 75, 0
6, 12120, Note_on_c, 2, 73, 64
6, 12165, Note_on_c, 2, 73, 0
6, 12165, Note_on_c, 2, 75, 64
6, 12180, Note_on_c, 2, 75, 0
6, 12180, Note_on_c, 2, 73, 64
6, 12225, Note_on_c, 2, 73, 0
6, 12225, Note_on_c, 2, 75, 64
6, 12240, Note_on_c, 2, 75, 0
6, 12240, Note_on_c, 2, 66, 64
6, 12285, Note_on_c, 2, 66, 0
6, 12285, Note_on_c, 2, 68, 64
6, 12300, Note_on_c, 2, 68, 0
6, 12300, Note_on_c, 2, 66, 64
6, 12345, Note_on_c, 2, 66, 0
6, 12345, Note_on_c, 2, 68, 64
6, 12360, Note_on_c, 2, 68, 0
6, 12360, Note_on_c, 2, 66, 64
6, 12405, Note_on_c, 2, 66, 0
6, 12405, Note_on_c, 2, 68, 64
6, 12420, Note_on_c, 2, 68, 0
6, 12420, Note_on_c, 2, 66, 64
6, 12465, Note_on_c, 2, 66, 0
6, 12465, Note_on_c, 2, 68, 64
6, 12480, Note_on_c, 2, 68, 0
6, 12480, Note_on_c, 2, 66, 64
6, 12525, Note_on_c, 2, 66, 0
6, 12525, Note_on_c, 2, 68, 64
6, 12540, Note_on_c, 2, 68, 0
6, 12540, Note_on_c, 2, 66, 64
6, 12585, Note_on_c, 2, 66, 0
6, 12585, Note_on_c, 2, 68, 64
6, 12600, Note_on_c, 2, 68, 0
6, 12600, Note_on_c, 2, 66, 64
6, 12645, Note_on_c, 2, 66, 0
6, 12645, Note_on_c, 2, 68, 64
6, 12660, Note_on_c, 2, 68, 0
6, 12660, Note_on_c, 2, 66, 64
6, 12705, Note_on_c, 2, 66, 0
6, 12705, Note_on_c, 2, 68, 64
6, 12720, Note_on_c, 2, 68, 0
6, 12720, Note_on_c, 2, 66, 64
6, 12765, Note_on_c, 2, 66, 0
6, 12765, Note_on_c, 2, 68, 64
6, 12780, Note_on_c, 2, 68, 0
6, 12780, Note_on_c, 2, 66, 64
6, 12825, Note_on_c, 2, 66, 0
6, 12825, Note_on_c, 2, 68, 64
6, 12840, Note_on_c, 2, 68, 0
6, 12840, Note_on_c, 2, 66, 64
6, 12885, Note_on_c, 2, 66, 0
6, 12885, Note_on_c, 2, 68, 64
6, 12900, Note_on_c, 2, 68, 0
6, 12900, Note_on_c, 2, 66, 64
6, 12945, Note_on_c, 2, 66, 0
6, 12945, Note_on_c, 2, 69, 64
6, 12960, Note_on_c, 2, 69, 0
6, 12960, Note_on_c, 2, 68, 64
6, 13020, Note_on_c, 2, 68, 0
6, 13020, Note_on_c, 2, 68, 64
6, 13080, Note_on_c, 2, 68, 0
6, 13080, Note_on_c, 2, 68, 64
6, 13140, Note_on_c, 2, 68, 0
6, 13140, Note_on_c, 2, 68, 64
6, 13200, Note_on_c, 2, 68, 0
6, 13200, Note_on_c, 2, 68, 64
6, 13260, Note_on_c, 2, 68, 0
6, 13260, Note_on_c, 2, 72, 64
6, 13320, Note_on_c, 2, 72, 0
6, 13320, Note_on_c, 2, 73, 64
6, 13365, Note_on_c, 2, 73, 0
6, 13365, Note_on_c, 2, 75, 64
6, 13380, Note_on_c, 2, 75, 0
6, 13380, Note_on_c, 2, 73, 64
6, 13425, Note_on_c, 2, 73, 0
6, 13425, Note_on_c, 2, 75, 64
6, 13440, Note_on_c, 2, 75, 0
6, 13440, Note_on_c, 2, 73, 64
6, 13485, Note_on_c, 2, 73, 0
6, 13485, Note_on_c, 2, 75, 64
6, 13500, Note_on_c, 2, 75, 0
6, 13500, Note_on_c, 2, 73, 64
6, 13545, Note_on_c, 2, 73, 0
6, 13545, Note_on_c, 2, 75, 64
6, 13560, Note_on_c, 2, 75, 0
6, 13560, Note_on_c, 2, 73, 64
6, 13605, Note_on_c, 2, 73, 0
6, 13605, Note_on_c, 2, 75, 64
6, 13620, Note_on_c, 2, 75, 0
6, 13620, Note_on_c, 2, 73, 64
6, 13665, Note_on_c, 2, 73, 0
6, 13665, Note_on_c, 2, 75, 64
6, 13680, Note_on_c, 2, 75, 0
6, 13680, Note_on_c, 2, 61, 64
6, 13725, Note_on_c, 2, 61, 0
6, 13725, Note_on_c, 2, 63, 64
6, 13740, Note_on_c, 2, 63, 0
6, 13740, Note_on_c, 2, 61, 64
6, 13785, Note_on_c, 2, 61, 0
6, 13785, Note_on_c, 2, 63, 64
6, 13800, Note_on_c, 2, 63, 0
6, 13800, Note_on_c, 2, 61, 64
6, 13845, Note_on_c, 2, 61, 0
6, 13845, Note_on_c, 2, 63, 64
6, 13860, Note_on_c, 2, 63, 0
6, 13860, Note_on_c, 2, 61, 64
6, 13905, Note_on_c, 2, 61, 0
6, 13905, Note_on_c, 2, 63, 64
6, 13920, Note_on_c, 2, 63, 0
6, 13920, Note_on_c, 2, 61, 64
6, 13965, Note_on_c, 2, 61, 0
6, 13965, Note_on_c, 2, 63, 64
6, 13980, Note_on_c, 2, 63, 0
6, 13980, Note_on_c, 2, 61, 64
6, 14025, Note_on_c, 2, 61, 0
6, 14025, Note_on_c, 2, 63, 64
6, 14040, Note_on_c, 2, 63, 0
6, 14040, Note_on_c, 2, 61, 64
6, 14415, Note_on_c, 2, 61, 0
6, 14761, Program_c, 2, 0
6, 14762, Control_c, 2, 7, 100
6, 14763, Control_c, 2, 10, 64
6, 14764, Control_c, 2, 93, 0
6, 14765, Control_c, 2, 91, 40
6, 14766, Control_c, 2, 99, 1
6, 14767, Control_c, 2, 98, 8
6, 14768, Control_c, 2, 6, 64
6, 14769, Control_c, 2, 99, 1
6, 14770, Control_c, 2, 98, 10
6, 14771, Control_c, 2, 6, 64
6, 14772, Control_c, 2, 99, 1
6, 14773, Control_c, 2, 98, 9
6, 14774, Control_c, 2, 6, 64
6, 14775, Pitch_bend_c, 2, 8192
6, 14775, End_track
7, 0, Start_track
7, 0, MIDI_port, 1
7, 0, Title_t, "   Orchestra"
7, 0, Program_c, 7, 48
7, 0, Control_c, 7, 7, 60
7, 0, Control_c, 7, 10, 80
7, 0, Control_c, 7, 93, 0
7, 0, Control_c, 7, 91, 120
7, 360, Note_on_c, 7, 64, 64
7, 405, Note_on_c, 7, 64, 0
7, 405, Note_on_c, 7, 66, 64
7, 420, Note_on_c, 7, 66, 0
7, 420, Note_on_c, 7, 64, 64
7, 465, Note_on_c, 7, 64, 0
7, 465, Note_on_c, 7, 66, 64
7, 480, Note_on_c, 7, 66, 0
7, 480, Note_on_c, 7, 64, 64
7, 525, Note_on_c, 7, 64, 0
7, 525, Note_on_c, 7, 66, 64
7, 540, Note_on_c, 7, 66, 0
7, 540, Note_on_c, 7, 64, 64
7, 585, Note_on_c, 7, 64, 0
7, 585, Note_on_c, 7, 66, 64
7, 600, Note_on_c, 7, 66, 0
7, 600, Note_on_c, 7, 64, 64
7, 645, Note_on_c, 7, 64, 0
7, 645, Note_on_c, 7, 69, 64
7, 660, Note_on_c, 7, 69, 0
7, 660, Note_on_c, 7, 68, 64
7, 705, Note_on_c, 7, 68, 0
7, 705, Note_on_c, 7, 66, 64
7, 720, Note_on_c, 7, 66, 0
7, 720, Note_on_c, 7, 64, 64
7, 765, Note_on_c, 7, 64, 0
7, 765, Note_on_c, 7, 66, 64
7, 780, Note_on_c, 7, 66, 0
7, 780, Note_on_c, 7, 64, 64
7, 825, Note_on_c, 7, 64, 0
7, 825, Note_on_c, 7, 66, 64
7, 840, Note_on_c, 7, 66, 0
7, 840, Note_on_c, 7, 64, 64
7, 885, Note_on_c, 7, 64, 0
7, 885, Note_on_c, 7, 66, 64
7, 900, Note_on_c, 7, 66, 0
7, 900, Note_on_c, 7, 64, 64
7, 945, Note_on_c, 7, 64, 0
7, 945, Note_on_c, 7, 66, 64
7, 960, Note_on_c, 7, 66, 0
7, 960, Note_on_c, 7, 64, 64
7, 1005, Note_on_c, 7, 64, 0
7, 1005, Note_on_c, 7, 69, 64
7, 1020, Note_on_c, 7, 69, 0
7, 1020, Note_on_c, 7, 68, 64
7, 1065, Note_on_c, 7, 68, 0
7, 1065, Note_on_c, 7, 66, 64
7, 1080, Note_on_c, 7, 66, 0
7, 1080, Note_on_c, 7, 64, 64
7, 1125, Note_on_c, 7, 64, 0
7, 1125, Note_on_c, 7, 66, 64
7, 1140, Note_on_c, 7, 66, 0
7, 1140, Note_on_c, 7, 64, 64
7, 1185, Note_on_c, 7, 64, 0
7, 1185, Note_on_c, 7, 66, 64
7, 1200, Note_on_c, 7, 66, 0
7, 1200, Note_on_c, 7, 64, 64
7, 1245, Note_on_c, 7, 64, 0
7, 1245, Note_on_c, 7, 66, 64
7, 1260, Note_on_c, 7, 66, 0
7, 1260, Note_on_c, 7, 64, 64
7, 1305, Note_on_c, 7, 64, 0
7, 1305, Note_on_c, 7, 66, 64
7, 1320, Note_on_c, 7, 66, 0
7, 1320, Note_on_c, 7, 64, 64
7, 1365, Note_on_c, 7, 64, 0
7, 1365, Note_on_c, 7, 66, 64
7, 1380, Note_on_c, 7, 66, 0
7, 1380, Note_on_c, 7, 68, 64
7, 1425, Note_on_c, 7, 68, 0
7, 1425, Note_on_c, 7, 69, 64
7, 1440, Note_on_c, 7, 69, 0
7, 1440, Note_on_c, 7, 72, 64
7, 1485, Note_on_c, 7, 72, 0
7, 1485, Note_on_c, 7, 73, 64
7, 1500, Note_on_c, 7, 73, 0
7, 1500, Note_on_c, 7, 72, 64
7, 1545, Note_on_c, 7, 72, 0
7, 1545, Note_on_c, 7, 73, 64
7, 1560, Note_on_c, 7, 73, 0
7, 1560, Note_on_c, 7, 72, 64
7, 1605, Note_on_c, 7, 72, 0
7, 1605, Note_on_c, 7, 73, 64
7, 1620, Note_on_c, 7, 73, 0
7, 1620, Note_on_c, 7, 72, 64
7, 1665, Note_on_c, 7, 72, 0
7, 1665, Note_on_c, 7, 73, 64
7, 1680, Note_on_c, 7, 73, 0
7, 1680, Note_on_c, 7, 72, 64
7, 1725, Note_on_c, 7, 72, 0
7, 1725, Note_on_c, 7, 76, 64
7, 1740, Note_on_c, 7, 76, 0
7, 1740, Note_on_c, 7, 75, 64
7, 1785, Note_on_c, 7, 75, 0
7, 1785, Note_on_c, 7, 73, 64
7, 1800, Note_on_c, 7, 73, 0
7, 1800, Note_on_c, 7, 72, 64
7, 1845, Note_on_c, 7, 72, 0
7, 1845, Note_on_c, 7, 73, 64
7, 1860, Note_on_c, 7, 73, 0
7, 1860, Note_on_c, 7, 72, 64
7, 1905, Note_on_c, 7, 72, 0
7, 1905, Note_on_c, 7, 73, 64
7, 1920, Note_on_c, 7, 73, 0
7, 1920, Note_on_c, 7, 72, 64
7, 1965, Note_on_c, 7, 72, 0
7, 1965, Note_on_c, 7, 73, 64
7, 1980, Note_on_c, 7, 73, 0
7, 1980, Note_on_c, 7, 72, 64
7, 2025, Note_on_c, 7, 72, 0
7, 2025, Note_on_c, 7, 73, 64
7, 2040, Note_on_c, 7, 73, 0
7, 2040, Note_on_c, 7, 72, 64
7, 2085, Note_on_c, 7, 72, 0
7, 2085, Note_on_c, 7, 76, 64
7, 2100, Note_on_c, 7, 76, 0
7, 2100, Note_on_c, 7, 75, 64
7, 2145, Note_on_c, 7, 75, 0
7, 2145, Note_on_c, 7, 73, 64
7, 2160, Note_on_c, 7, 73, 0
7, 2160, Note_on_c, 7, 72, 64
7, 2205, Note_on_c, 7, 72, 0
7, 2205, Note_on_c, 7, 73, 64
7, 2220, Note_on_c, 7, 73, 0
7, 2220, Note_on_c, 7, 72, 64
7, 2265, Note_on_c, 7, 72, 0
7, 2265, Note_on_c, 7, 73, 64
7, 2280, Note_on_c, 7, 73, 0
7, 2280, Note_on_c, 7, 72, 64
7, 2325, Note_on_c, 7, 72, 0
7, 2325, Note_on_c, 7, 73, 64
7, 2340, Note_on_c, 7, 73, 0
7, 2340, Note_on_c, 7, 72, 64
7, 2385, Note_on_c, 7, 72, 0
7, 2385, Note_on_c, 7, 73, 64
7, 2400, Note_on_c, 7, 73, 0
7, 2400, Note_on_c, 7, 72, 64
7, 2445, Note_on_c, 7, 72, 0
7, 2445, Note_on_c, 7, 73, 64
7, 2460, Note_on_c, 7, 73, 0
7, 2460, Note_on_c, 7, 75, 64
7, 2505, Note_on_c, 7, 75, 0
7, 2505, Note_on_c, 7, 72, 64
7, 2520, Note_on_c, 7, 72, 0
7, 2520, Note_on_c, 7, 73, 64
7, 2565, Note_on_c, 7, 73, 0
7, 2565, Note_on_c, 7, 75, 64
7, 2580, Note_on_c, 7, 75, 0
7, 2580, Note_on_c, 7, 73, 64
7, 2625, Note_on_c, 7, 73, 0
7, 2625, Note_on_c, 7, 75, 64
7, 2640, Note_on_c, 7, 75, 0
7, 2640, Note_on_c, 7, 73, 64
7, 2685, Note_on_c, 7, 73, 0
7, 2685, Note_on_c, 7, 75, 64
7, 2700, Note_on_c, 7, 75, 0
7, 2700, Note_on_c, 7, 73, 64
7, 2745, Note_on_c, 7, 73, 0
7, 2745, Note_on_c, 7, 75, 64
7, 2760, Note_on_c, 7, 75, 0
7, 2760, Note_on_c, 7, 73, 64
7, 2805, Note_on_c, 7, 73, 0
7, 2805, Note_on_c, 7, 75, 64
7, 2820, Note_on_c, 7, 75, 0
7, 2820, Note_on_c, 7, 73, 64
7, 2865, Note_on_c, 7, 73, 0
7, 2865, Note_on_c, 7, 75, 64
7, 2880, Note_on_c, 7, 75, 0
7, 2880, Note_on_c, 7, 61, 64
7, 2925, Note_on_c, 7, 61, 0
7, 2925, Note_on_c, 7, 63, 64
7, 2940, Note_on_c, 7, 63, 0
7, 2940, Note_on_c, 7, 61, 64
7, 2985, Note_on_c, 7, 61, 0
7, 2985, Note_on_c, 7, 63, 64
7, 3000, Note_on_c, 7, 63, 0
7, 3000, Note_on_c, 7, 61, 64
7, 3045, Note_on_c, 7, 61, 0
7, 3045, Note_on_c, 7, 63, 64
7, 3060, Note_on_c, 7, 63, 0
7, 3060, Note_on_c, 7, 61, 64
7, 3105, Note_on_c, 7, 61, 0
7, 3105, Note_on_c, 7, 63, 64
7, 3120, Note_on_c, 7, 63, 0
7, 3120, Note_on_c, 7, 61, 64
7, 3165, Note_on_c, 7, 61, 0
7, 3165, Note_on_c, 7, 63, 64
7, 3180, Note_on_c, 7, 63, 0
7, 3180, Note_on_c, 7, 61, 64
7, 3225, Note_on_c, 7, 61, 0
7, 3225, Note_on_c, 7, 63, 64
7, 3240, Note_on_c, 7, 63, 0
7, 3240, Note_on_c, 7, 73, 64
7, 3285, Note_on_c, 7, 73, 0
7, 3285, Note_on_c, 7, 75, 64
7, 3300, Note_on_c, 7, 75, 0
7, 3300, Note_on_c, 7, 73, 64
7, 3345, Note_on_c, 7, 73, 0
7, 3345, Note_on_c, 7, 75, 64
7, 3360, Note_on_c, 7, 75, 0
7, 3360, Note_on_c, 7, 73, 64
7, 3405, Note_on_c, 7, 73, 0
7, 3405, Note_on_c, 7, 75, 64
7, 3420, Note_on_c, 7, 75, 0
7, 3420, Note_on_c, 7, 73, 64
7, 3465, Note_on_c, 7, 73, 0
7, 3465, Note_on_c, 7, 75, 64
7, 3480, Note_on_c, 7, 75, 0
7, 3480, Note_on_c, 7, 73, 64
7, 3525, Note_on_c, 7, 73, 0
7, 3525, Note_on_c, 7, 75, 64
7, 3540, Note_on_c, 7, 75, 0
7, 3540, Note_on_c, 7, 73, 64
7, 3585, Note_on_c, 7, 73, 0
7, 3585, Note_on_c, 7, 75, 64
7, 3600, Note_on_c, 7, 75, 0
7, 3600, Note_on_c, 7, 66, 64
7, 3655, Note_on_c, 7, 66, 0
7, 3660, Note_on_c, 7, 66, 64
7, 3715, Note_on_c, 7, 66, 0
7, 3720, Note_on_c, 7, 78, 64
7, 3765, Note_on_c, 7, 78, 0
7, 3765, Note_on_c, 7, 80, 64
7, 3780, Note_on_c, 7, 80, 0
7, 3780, Note_on_c, 7, 78, 64
7, 3825, Note_on_c, 7, 78, 0
7, 3825, Note_on_c, 7, 80, 64
7, 3840, Note_on_c, 7, 80, 0
7, 3840, Note_on_c, 7, 78, 64
7, 3885, Note_on_c, 7, 78, 0
7, 3885, Note_on_c, 7, 80, 64
7, 3900, Note_on_c, 7, 80, 0
7, 3900, Note_on_c, 7, 78, 64
7, 3945, Note_on_c, 7, 78, 0
7, 3945, Note_on_c, 7, 80, 64
7, 3960, Note_on_c, 7, 80, 0
7, 3960, Note_on_c, 7, 71, 64
7, 4005, Note_on_c, 7, 71, 0
7, 4005, Note_on_c, 7, 73, 64
7, 4020, Note_on_c, 7, 73, 0
7, 4020, Note_on_c, 7, 71, 64
7, 4065, Note_on_c, 7, 71, 0
7, 4065, Note_on_c, 7, 73, 64
7, 4080, Note_on_c, 7, 73, 0
7, 4080, Note_on_c, 7, 71, 64
7, 4125, Note_on_c, 7, 71, 0
7, 4125, Note_on_c, 7, 73, 64
7, 4140, Note_on_c, 7, 73, 0
7, 4140, Note_on_c, 7, 71, 64
7, 4185, Note_on_c, 7, 71, 0
7, 4185, Note_on_c, 7, 73, 64
7, 4200, Note_on_c, 7, 73, 0
7, 4200, Note_on_c, 7, 71, 64
7, 4245, Note_on_c, 7, 71, 0
7, 4245, Note_on_c, 7, 73, 64
7, 4260, Note_on_c, 7, 73, 0
7, 4260, Note_on_c, 7, 71, 64
7, 4305, Note_on_c, 7, 71, 0
7, 4305, Note_on_c, 7, 73, 64
7, 4320, Note_on_c, 7, 73, 0
7, 4320, Note_on_c, 7, 66, 64
7, 4375, Note_on_c, 7, 66, 0
7, 4380, Note_on_c, 7, 66, 64
7, 4435, Note_on_c, 7, 66, 0
7, 4440, Note_on_c, 7, 76, 64
7, 4485, Note_on_c, 7, 76, 0
7, 4485, Note_on_c, 7, 78, 64
7, 4500, Note_on_c, 7, 78, 0
7, 4500, Note_on_c, 7, 76, 64
7, 4545, Note_on_c, 7, 76, 0
7, 4545, Note_on_c, 7, 78, 64
7, 4560, Note_on_c, 7, 78, 0
7, 4560, Note_on_c, 7, 76, 64
7, 4605, Note_on_c, 7, 76, 0
7, 4605, Note_on_c, 7, 78, 64
7, 4620, Note_on_c, 7, 78, 0
7, 4620, Note_on_c, 7, 76, 64
7, 4665, Note_on_c, 7, 76, 0
7, 4665, Note_on_c, 7, 78, 64
7, 4680, Note_on_c, 7, 78, 0
7, 4680, Note_on_c, 7, 69, 64
7, 4725, Note_on_c, 7, 69, 0
7, 4725, Note_on_c, 7, 71, 64
7, 4740, Note_on_c, 7, 71, 0
7, 4740, Note_on_c, 7, 69, 64
7, 4785, Note_on_c, 7, 69, 0
7, 4785, Note_on_c, 7, 71, 64
7, 4800, Note_on_c, 7, 71, 0
7, 4800, Note_on_c, 7, 69, 64
7, 4845, Note_on_c, 7, 69, 0
7, 4845, Note_on_c, 7, 71, 64
7, 4860, Note_on_c, 7, 71, 0
7, 4860, Note_on_c, 7, 69, 64
7, 4905, Note_on_c, 7, 69, 0
7, 4905, Note_on_c, 7, 71, 64
7, 4920, Note_on_c, 7, 71, 0
7, 4920, Note_on_c, 7, 69, 64
7, 4965, Note_on_c, 7, 69, 0
7, 4965, Note_on_c, 7, 71, 64
7, 4980, Note_on_c, 7, 71, 0
7, 4980, Note_on_c, 7, 69, 64
7, 5025, Note_on_c, 7, 69, 0
7, 5025, Note_on_c, 7, 71, 64
7, 5040, Note_on_c, 7, 71, 0
7, 5040, Note_on_c, 7, 63, 64
7, 5095, Note_on_c, 7, 63, 0
7, 5100, Note_on_c, 7, 63, 64
7, 5155, Note_on_c, 7, 63, 0
7, 5160, Note_on_c, 7, 75, 64
7, 5205, Note_on_c, 7, 75, 0
7, 5205, Note_on_c, 7, 76, 64
7, 5220, Note_on_c, 7, 76, 0
7, 5220, Note_on_c, 7, 75, 64
7, 5265, Note_on_c, 7, 75, 0
7, 5265, Note_on_c, 7, 76, 64
7, 5280, Note_on_c, 7, 76, 0
7, 5280, Note_on_c, 7, 75, 64
7, 5325, Note_on_c, 7, 75, 0
7, 5325, Note_on_c, 7, 76, 64
7, 5340, Note_on_c, 7, 76, 0
7, 5340, Note_on_c, 7, 75, 64
7, 5385, Note_on_c, 7, 75, 0
7, 5385, Note_on_c, 7, 66, 64
7, 5400, Note_on_c, 7, 66, 0
7, 5400, Note_on_c, 7, 68, 64
7, 5445, Note_on_c, 7, 68, 0
7, 5445, Note_on_c, 7, 69, 64
7, 5460, Note_on_c, 7, 69, 0
7, 5460, Note_on_c, 7, 68, 64
7, 5505, Note_on_c, 7, 68, 0
7, 5505, Note_on_c, 7, 69, 64
7, 5520, Note_on_c, 7, 69, 0
7, 5520, Note_on_c, 7, 68, 64
7, 5565, Note_on_c, 7, 68, 0
7, 5565, Note_on_c, 7, 69, 64
7, 5580, Note_on_c, 7, 69, 0
7, 5580, Note_on_c, 7, 68, 64
7, 5625, Note_on_c, 7, 68, 0
7, 5625, Note_on_c, 7, 69, 64
7, 5640, Note_on_c, 7, 69, 0
7, 5640, Note_on_c, 7, 68, 64
7, 5685, Note_on_c, 7, 68, 0
7, 5685, Note_on_c, 7, 69, 64
7, 5700, Note_on_c, 7, 69, 0
7, 5700, Note_on_c, 7, 68, 64
7, 5745, Note_on_c, 7, 68, 0
7, 5745, Note_on_c, 7, 69, 64
7, 5760, Note_on_c, 7, 69, 0
7, 5760, Note_on_c, 7, 70, 64
7, 5815, Note_on_c, 7, 70, 0
7, 5820, Note_on_c, 7, 70, 64
7, 5875, Note_on_c, 7, 70, 0
7, 5880, Note_on_c, 7, 70, 64
7, 5935, Note_on_c, 7, 70, 0
7, 5940, Note_on_c, 7, 70, 64
7, 5995, Note_on_c, 7, 70, 0
7, 6000, Note_on_c, 7, 71, 64
7, 6045, Note_on_c, 7, 71, 0
7, 6045, Note_on_c, 7, 73, 64
7, 6060, Note_on_c, 7, 73, 0
7, 6060, Note_on_c, 7, 71, 64
7, 6105, Note_on_c, 7, 71, 0
7, 6105, Note_on_c, 7, 73, 64
7, 6120, Note_on_c, 7, 73, 0
7, 6120, Note_on_c, 7, 70, 64
7, 6180, Note_on_c, 7, 70, 0
7, 6180, Note_on_c, 7, 70, 64
7, 6240, Note_on_c, 7, 70, 0
7, 6240, Note_on_c, 7, 70, 64
7, 6300, Note_on_c, 7, 70, 0
7, 6300, Note_on_c, 7, 70, 64
7, 6360, Note_on_c, 7, 70, 0
7, 6360, Note_on_c, 7, 70, 64
7, 6420, Note_on_c, 7, 70, 0
7, 6420, Note_on_c, 7, 70, 64
7, 6480, Note_on_c, 7, 70, 0
7, 6480, Note_on_c, 7, 68, 64
7, 6525, Note_on_c, 7, 68, 0
7, 6525, Note_on_c, 7, 70, 64
7, 6540, Note_on_c, 7, 70, 0
7, 6540, Note_on_c, 7, 68, 64
7, 6585, Note_on_c, 7, 68, 0
7, 6585, Note_on_c, 7, 70, 64
7, 6600, Note_on_c, 7, 70, 0
7, 6600, Note_on_c, 7, 68, 64
7, 6645, Note_on_c, 7, 68, 0
7, 6645, Note_on_c, 7, 70, 64
7, 6660, Note_on_c, 7, 70, 0
7, 6660, Note_on_c, 7, 68, 64
7, 6705, Note_on_c, 7, 68, 0
7, 6705, Note_on_c, 7, 70, 64
7, 6720, Note_on_c, 7, 70, 0
7, 6720, Note_on_c, 7, 68, 64
7, 6765, Note_on_c, 7, 68, 0
7, 6765, Note_on_c, 7, 73, 64
7, 6780, Note_on_c, 7, 73, 0
7, 6780, Note_on_c, 7, 71, 64
7, 6825, Note_on_c, 7, 71, 0
7, 6825, Note_on_c, 7, 70, 64
7, 6840, Note_on_c, 7, 70, 0
7, 6840, Note_on_c, 7, 68, 64
7, 6885, Note_on_c, 7, 68, 0
7, 6885, Note_on_c, 7, 70, 64
7, 6900, Note_on_c, 7, 70, 0
7, 6900, Note_on_c, 7, 68, 64
7, 6945, Note_on_c, 7, 68, 0
7, 6945, Note_on_c, 7, 70, 64
7, 6960, Note_on_c, 7, 70, 0
7, 6960, Note_on_c, 7, 68, 64
7, 7005, Note_on_c, 7, 68, 0
7, 7005, Note_on_c, 7, 70, 64
7, 7020, Note_on_c, 7, 70, 0
7, 7020, Note_on_c, 7, 68, 64
7, 7065, Note_on_c, 7, 68, 0
7, 7065, Note_on_c, 7, 70, 64
7, 7080, Note_on_c, 7, 70, 0
7, 7080, Note_on_c, 7, 68, 64
7, 7125, Note_on_c, 7, 68, 0
7, 7125, Note_on_c, 7, 69, 64
7, 7140, Note_on_c, 7, 69, 0
7, 7140, Note_on_c, 7, 68, 64
7, 7185, Note_on_c, 7, 68, 0
7, 7185, Note_on_c, 7, 66, 64
7, 7200, Note_on_c, 7, 66, 0
7, 7200, Note_on_c, 7, 64, 64
7, 7245, Note_on_c, 7, 64, 0
7, 7245, Note_on_c, 7, 66, 64
7, 7260, Note_on_c, 7, 66, 0
7, 7260, Note_on_c, 7, 64, 64
7, 7305, Note_on_c, 7, 64, 0
7, 7305, Note_on_c, 7, 66, 64
7, 7320, Note_on_c, 7, 66, 0
7, 7320, Note_on_c, 7, 64, 64
7, 7365, Note_on_c, 7, 64, 0
7, 7365, Note_on_c, 7, 66, 64
7, 7380, Note_on_c, 7, 66, 0
7, 7380, Note_on_c, 7, 64, 64
7, 7425, Note_on_c, 7, 64, 0
7, 7425, Note_on_c, 7, 66, 64
7, 7440, Note_on_c, 7, 66, 0
7, 7440, Note_on_c, 7, 64, 64
7, 7485, Note_on_c, 7, 64, 0
7, 7485, Note_on_c, 7, 69, 64
7, 7500, Note_on_c, 7, 69, 0
7, 7500, Note_on_c, 7, 68, 64
7, 7545, Note_on_c, 7, 68, 0
7, 7545, Note_on_c, 7, 66, 64
7, 7560, Note_on_c, 7, 66, 0
7, 7560, Note_on_c, 7, 64, 64
7, 7605, Note_on_c, 7, 64, 0
7, 7605, Note_on_c, 7, 66, 64
7, 7620, Note_on_c, 7, 66, 0
7, 7620, Note_on_c, 7, 64, 64
7, 7665, Note_on_c, 7, 64, 0
7, 7665, Note_on_c, 7, 66, 64
7, 7680, Note_on_c, 7, 66, 0
7, 7680, Note_on_c, 7, 64, 64
7, 7725, Note_on_c, 7, 64, 0
7, 7725, Note_on_c, 7, 66, 64
7, 7740, Note_on_c, 7, 66, 0
7, 7740, Note_on_c, 7, 64, 64
7, 7785, Note_on_c, 7, 64, 0
7, 7785, Note_on_c, 7, 66, 64
7, 7800, Note_on_c, 7, 66, 0
7, 7800, Note_on_c, 7, 64, 64
7, 7845, Note_on_c, 7, 64, 0
7, 7845, Note_on_c, 7, 66, 64
7, 7860, Note_on_c, 7, 66, 0
7, 7860, Note_on_c, 7, 68, 64
7, 7905, Note_on_c, 7, 68, 0
7, 7905, Note_on_c, 7, 69, 64
7, 7920, Note_on_c, 7, 69, 0
7, 7920, Note_on_c, 7, 72, 64
7, 7965, Note_on_c, 7, 72, 0
7, 7965, Note_on_c, 7, 73, 64
7, 7980, Note_on_c, 7, 73, 0
7, 7980, Note_on_c, 7, 72, 64
7, 8025, Note_on_c, 7, 72, 0
7, 8025, Note_on_c, 7, 73, 64
7, 8040, Note_on_c, 7, 73, 0
7, 8040, Note_on_c, 7, 72, 64
7, 8085, Note_on_c, 7, 72, 0
7, 8085, Note_on_c, 7, 73, 64
7, 8100, Note_on_c, 7, 73, 0
7, 8100, Note_on_c, 7, 72, 64
7, 8145, Note_on_c, 7, 72, 0
7, 8145, Note_on_c, 7, 73, 64
7, 8160, Note_on_c, 7, 73, 0
7, 8160, Note_on_c, 7, 72, 64
7, 8205, Note_on_c, 7, 72, 0
7, 8205, Note_on_c, 7, 73, 64
7, 8220, Note_on_c, 7, 73, 0
7, 8220, Note_on_c, 7, 75, 64
7, 8265, Note_on_c, 7, 75, 0
7, 8265, Note_on_c, 7, 72, 64
7, 8280, Note_on_c, 7, 72, 0
7, 8280, Note_on_c, 7, 73, 64
7, 8325, Note_on_c, 7, 73, 0
7, 8325, Note_on_c, 7, 75, 64
7, 8340, Note_on_c, 7, 75, 0
7, 8340, Note_on_c, 7, 73, 64
7, 8385, Note_on_c, 7, 73, 0
7, 8385, Note_on_c, 7, 75, 64
7, 8400, Note_on_c, 7, 75, 0
7, 8400, Note_on_c, 7, 73, 64
7, 8445, Note_on_c, 7, 73, 0
7, 8445, Note_on_c, 7, 75, 64
7, 8460, Note_on_c, 7, 75, 0
7, 8460, Note_on_c, 7, 73, 64
7, 8505, Note_on_c, 7, 73, 0
7, 8505, Note_on_c, 7, 75, 64
7, 8520, Note_on_c, 7, 75, 0
7, 8520, Note_on_c, 7, 73, 64
7, 8565, Note_on_c, 7, 73, 0
7, 8565, Note_on_c, 7, 75, 64
7, 8580, Note_on_c, 7, 75, 0
7, 8580, Note_on_c, 7, 73, 64
7, 8625, Note_on_c, 7, 73, 0
7, 8625, Note_on_c, 7, 75, 64
7, 8640, Note_on_c, 7, 75, 0
7, 8640, Note_on_c, 7, 73, 64
7, 8685, Note_on_c, 7, 73, 0
7, 8685, Note_on_c, 7, 75, 64
7, 8700, Note_on_c, 7, 75, 0
7, 8700, Note_on_c, 7, 73, 64
7, 8745, Note_on_c, 7, 73, 0
7, 8745, Note_on_c, 7, 75, 64
7, 8760, Note_on_c, 7, 75, 0
7, 8760, Note_on_c, 7, 73, 64
7, 8805, Note_on_c, 7, 73, 0
7, 8805, Note_on_c, 7, 75, 64
7, 8820, Note_on_c, 7, 75, 0
7, 8820, Note_on_c, 7, 73, 64
7, 8865, Note_on_c, 7, 73, 0
7, 8865, Note_on_c, 7, 75, 64
7, 8880, Note_on_c, 7, 75, 0
7, 8880, Note_on_c, 7, 73, 64
7, 8925, Note_on_c, 7, 73, 0
7, 8925, Note_on_c, 7, 75, 64
7, 8940, Note_on_c, 7, 75, 0
7, 8940, Note_on_c, 7, 73, 64
7, 8985, Note_on_c, 7, 73, 0
7, 8985, Note_on_c, 7, 71, 64
7, 9000, Note_on_c, 7, 71, 0
7, 9000, Note_on_c, 7, 69, 64
7, 9045, Note_on_c, 7, 69, 0
7, 9045, Note_on_c, 7, 71, 64
7, 9060, Note_on_c, 7, 71, 0
7, 9060, Note_on_c, 7, 69, 64
7, 9105, Note_on_c, 7, 69, 0
7, 9105, Note_on_c, 7, 71, 64
7, 9120, Note_on_c, 7, 71, 0
7, 9120, Note_on_c, 7, 69, 64
7, 9165, Note_on_c, 7, 69, 0
7, 9165, Note_on_c, 7, 71, 64
7, 9180, Note_on_c, 7, 71, 0
7, 9180, Note_on_c, 7, 69, 64
7, 9225, Note_on_c, 7, 69, 0
7, 9225, Note_on_c, 7, 71, 64
7, 9240, Note_on_c, 7, 71, 0
7, 9240, Note_on_c, 7, 69, 64
7, 9285, Note_on_c, 7, 69, 0
7, 9285, Note_on_c, 7, 71, 64
7, 9300, Note_on_c, 7, 71, 0
7, 9300, Note_on_c, 7, 73, 64
7, 9345, Note_on_c, 7, 73, 0
7, 9345, Note_on_c, 7, 69, 64
7, 9360, Note_on_c, 7, 69, 0
7, 9360, Note_on_c, 7, 75, 64
7, 9405, Note_on_c, 7, 75, 0
7, 9405, Note_on_c, 7, 76, 64
7, 9420, Note_on_c, 7, 76, 0
7, 9420, Note_on_c, 7, 75, 64
7, 9465, Note_on_c, 7, 75, 0
7, 9465, Note_on_c, 7, 76, 64
7, 9480, Note_on_c, 7, 76, 0
7, 9480, Note_on_c, 7, 75, 64
7, 9525, Note_on_c, 7, 75, 0
7, 9525, Note_on_c, 7, 76, 64
7, 9540, Note_on_c, 7, 76, 0
7, 9540, Note_on_c, 7, 75, 64
7, 9585, Note_on_c, 7, 75, 0
7, 9585, Note_on_c, 7, 76, 64
7, 9600, Note_on_c, 7, 76, 0
7, 9600, Note_on_c, 7, 75, 64
7, 9645, Note_on_c, 7, 75, 0
7, 9645, Note_on_c, 7, 76, 64
7, 9660, Note_on_c, 7, 76, 0
7, 9660, Note_on_c, 7, 75, 64
7, 9705, Note_on_c, 7, 75, 0
7, 9705, Note_on_c, 7, 73, 64
7, 9720, Note_on_c, 7, 73, 0
7, 9720, Note_on_c, 7, 72, 64
7, 9765, Note_on_c, 7, 72, 0
7, 9765, Note_on_c, 7, 73, 64
7, 9780, Note_on_c, 7, 73, 0
7, 9780, Note_on_c, 7, 72, 64
7, 9825, Note_on_c, 7, 72, 0
7, 9825, Note_on_c, 7, 73, 64
7, 9840, Note_on_c, 7, 73, 0
7, 9840, Note_on_c, 7, 72, 64
7, 9885, Note_on_c, 7, 72, 0
7, 9885, Note_on_c, 7, 73, 64
7, 9900, Note_on_c, 7, 73, 0
7, 9900, Note_on_c, 7, 72, 64
7, 9945, Note_on_c, 7, 72, 0
7, 9945, Note_on_c, 7, 73, 64
7, 9960, Note_on_c, 7, 73, 0
7, 9960, Note_on_c, 7, 72, 64
7, 10005, Note_on_c, 7, 72, 0
7, 10005, Note_on_c, 7, 73, 64
7, 10020, Note_on_c, 7, 73, 0
7, 10020, Note_on_c, 7, 75, 64
7, 10065, Note_on_c, 7, 75, 0
7, 10065, Note_on_c, 7, 72, 64
7, 10080, Note_on_c, 7, 72, 0
7, 10080, Note_on_c, 7, 75, 64
7, 10135, Note_on_c, 7, 75, 0
7, 10140, Note_on_c, 7, 75, 64
7, 10195, Note_on_c, 7, 75, 0
7, 10200, Note_on_c, 7, 75, 64
7, 10255, Note_on_c, 7, 75, 0
7, 10260, Note_on_c, 7, 75, 64
7, 10315, Note_on_c, 7, 75, 0
7, 10320, Note_on_c, 7, 75, 64
7, 10375, Note_on_c, 7, 75, 0
7, 10380, Note_on_c, 7, 75, 64
7, 10435, Note_on_c, 7, 75, 0
7, 10440, Note_on_c, 7, 76, 64
7, 10485, Note_on_c, 7, 76, 0
7, 10485, Note_on_c, 7, 78, 64
7, 10500, Note_on_c, 7, 78, 0
7, 10500, Note_on_c, 7, 76, 64
7, 10545, Note_on_c, 7, 76, 0
7, 10545, Note_on_c, 7, 78, 64
7, 10560, Note_on_c, 7, 78, 0
7, 10560, Note_on_c, 7, 76, 64
7, 10605, Note_on_c, 7, 76, 0
7, 10605, Note_on_c, 7, 78, 64
7, 10620, Note_on_c, 7, 78, 0
7, 10620, Note_on_c, 7, 76, 64
7, 10665, Note_on_c, 7, 76, 0
7, 10665, Note_on_c, 7, 78, 64
7, 10680, Note_on_c, 7, 78, 0
7, 10680, Note_on_c, 7, 76, 64
7, 10725, Note_on_c, 7, 76, 0
7, 10725, Note_on_c, 7, 78, 64
7, 10740, Note_on_c, 7, 78, 0
7, 10740, Note_on_c, 7, 76, 64
7, 10785, Note_on_c, 7, 76, 0
7, 10785, Note_on_c, 7, 78, 64
7, 10800, Note_on_c, 7, 78, 0
7, 10800, Note_on_c, 7, 66, 64
7, 10845, Note_on_c, 7, 66, 0
7, 10845, Note_on_c, 7, 68, 64
7, 10860, Note_on_c, 7, 68, 0
7, 10860, Note_on_c, 7, 66, 64
7, 10905, Note_on_c, 7, 66, 0
7, 10905, Note_on_c, 7, 68, 64
7, 10920, Note_on_c, 7, 68, 0
7, 10920, Note_on_c, 7, 66, 64
7, 10965, Note_on_c, 7, 66, 0
7, 10965, Note_on_c, 7, 68, 64
7, 10980, Note_on_c, 7, 68, 0
7, 10980, Note_on_c, 7, 66, 64
7, 11025, Note_on_c, 7, 66, 0
7, 11025, Note_on_c, 7, 68, 64
7, 11040, Note_on_c, 7, 68, 0
7, 11040, Note_on_c, 7, 66, 64
7, 11085, Note_on_c, 7, 66, 0
7, 11085, Note_on_c, 7, 68, 64
7, 11100, Note_on_c, 7, 68, 0
7, 11100, Note_on_c, 7, 66, 64
7, 11145, Note_on_c, 7, 66, 0
7, 11145, Note_on_c, 7, 68, 64
7, 11160, Note_on_c, 7, 68, 0
7, 11160, Note_on_c, 7, 66, 64
7, 11205, Note_on_c, 7, 66, 0
7, 11205, Note_on_c, 7, 68, 64
7, 11220, Note_on_c, 7, 68, 0
7, 11220, Note_on_c, 7, 66, 64
7, 11265, Note_on_c, 7, 66, 0
7, 11265, Note_on_c, 7, 68, 64
7, 11280, Note_on_c, 7, 68, 0
7, 11280, Note_on_c, 7, 66, 64
7, 11325, Note_on_c, 7, 66, 0
7, 11325, Note_on_c, 7, 68, 64
7, 11340, Note_on_c, 7, 68, 0
7, 11340, Note_on_c, 7, 66, 64
7, 11385, Note_on_c, 7, 66, 0
7, 11385, Note_on_c, 7, 68, 64
7, 11400, Note_on_c, 7, 68, 0
7, 11400, Note_on_c, 7, 66, 64
7, 11445, Note_on_c, 7, 66, 0
7, 11445, Note_on_c, 7, 68, 64
7, 11460, Note_on_c, 7, 68, 0
7, 11460, Note_on_c, 7, 66, 64
7, 11505, Note_on_c, 7, 66, 0
7, 11505, Note_on_c, 7, 69, 64
7, 11520, Note_on_c, 7, 69, 0
7, 11520, Note_on_c, 7, 68, 64
7, 11580, Note_on_c, 7, 68, 0
7, 11580, Note_on_c, 7, 68, 64
7, 11640, Note_on_c, 7, 68, 0
7, 11640, Note_on_c, 7, 68, 64
7, 11700, Note_on_c, 7, 68, 0
7, 11700, Note_on_c, 7, 68, 64
7, 11760, Note_on_c, 7, 68, 0
7, 11760, Note_on_c, 7, 68, 64
7, 11820, Note_on_c, 7, 68, 0
7, 11820, Note_on_c, 7, 72, 64
7, 11880, Note_on_c, 7, 72, 0
7, 11880, Note_on_c, 7, 73, 64
7, 11925, Note_on_c, 7, 73, 0
7, 11925, Note_on_c, 7, 75, 64
7, 11940, Note_on_c, 7, 75, 0
7, 11940, Note_on_c, 7, 73, 64
7, 11985, Note_on_c, 7, 73, 0
7, 11985, Note_on_c, 7, 75, 64
7, 12000, Note_on_c, 7, 75, 0
7, 12000, Note_on_c, 7, 73, 64
7, 12045, Note_on_c, 7, 73, 0
7, 12045, Note_on_c, 7, 75, 64
7, 12060, Note_on_c, 7, 75, 0
7, 12060, Note_on_c, 7, 73, 64
7, 12105, Note_on_c, 7, 73, 0
7, 12105, Note_on_c, 7, 75, 64
7, 12120, Note_on_c, 7, 75, 0
7, 12120, Note_on_c, 7, 73, 64
7, 12165, Note_on_c, 7, 73, 0
7, 12165, Note_on_c, 7, 75, 64
7, 12180, Note_on_c, 7, 75, 0
7, 12180, Note_on_c, 7, 73, 64
7, 12225, Note_on_c, 7, 73, 0
7, 12225, Note_on_c, 7, 75, 64
7, 12240, Note_on_c, 7, 75, 0
7, 12240, Note_on_c, 7, 66, 64
7, 12285, Note_on_c, 7, 66, 0
7, 12285, Note_on_c, 7, 68, 64
7, 12300, Note_on_c, 7, 68, 0
7, 12300, Note_on_c, 7, 66, 64
7, 12345, Note_on_c, 7, 66, 0
7, 12345, Note_on_c, 7, 68, 64
7, 12360, Note_on_c, 7, 68, 0
7, 12360, Note_on_c, 7, 66, 64
7, 12405, Note_on_c, 7, 66, 0
7, 12405, Note_on_c, 7, 68, 64
7, 12420, Note_on_c, 7, 68, 0
7, 12420, Note_on_c, 7, 66, 64
7, 12465, Note_on_c, 7, 66, 0
7, 12465, Note_on_c, 7, 68, 64
7, 12480, Note_on_c, 7, 68, 0
7, 12480, Note_on_c, 7, 66, 64
7, 12525, Note_on_c, 7, 66, 0
7, 12525, Note_on_c, 7, 68, 64
7, 12540, Note_on_c, 7, 68, 0
7, 12540, Note_on_c, 7, 66, 64
7, 12585, Note_on_c, 7, 66, 0
7, 12585, Note_on_c, 7, 68, 64
7, 12600, Note_on_c, 7, 68, 0
7, 12600, Note_on_c, 7, 66, 64
7, 12645, Note_on_c, 7, 66, 0
7, 12645, Note_on_c, 7, 68, 64
7, 12660, Note_on_c, 7, 68, 0
7, 12660, Note_on_c, 7, 66, 64
7, 12705, Note_on_c, 7, 66, 0
7, 12705, Note_on_c, 7, 68, 64
7, 12720, Note_on_c, 7, 68, 0
7, 12720, Note_on_c, 7, 66, 64
7, 12765, Note_on_c, 7, 66, 0
7, 12765, Note_on_c, 7, 68, 64
7, 12780, Note_on_c, 7, 68, 0
7, 12780, Note_on_c, 7, 66, 64
7, 12825, Note_on_c, 7, 66, 0
7, 12825, Note_on_c, 7, 68, 64
7, 12840, Note_on_c, 7, 68, 0
7, 12840, Note_on_c, 7, 66, 64
7, 12885, Note_on_c, 7, 66, 0
7, 12885, Note_on_c, 7, 68, 64
7, 12900, Note_on_c, 7, 68, 0
7, 12900, Note_on_c, 7, 66, 64
7, 12945, Note_on_c, 7, 66, 0
7, 12945, Note_on_c, 7, 69, 64
7, 12960, Note_on_c, 7, 69, 0
7, 12960, Note_on_c, 7, 68, 64
7, 13020, Note_on_c, 7, 68, 0
7, 13020, Note_on_c, 7, 68, 64
7, 13080, Note_on_c, 7, 68, 0
7, 13080, Note_on_c, 7, 68, 64
7, 13140, Note_on_c, 7, 68, 0
7, 13140, Note_on_c, 7, 68, 64
7, 13200, Note_on_c, 7, 68, 0
7, 13200, Note_on_c, 7, 68, 64
7, 13260, Note_on_c, 7, 68, 0
7, 13260, Note_on_c, 7, 72, 64
7, 13320, Note_on_c, 7, 72, 0
7, 13320, Note_on_c, 7, 73, 64
7, 13365, Note_on_c, 7, 73, 0
7, 13365, Note_on_c, 7, 75, 64
7, 13380, Note_on_c, 7, 75, 0
7, 13380, Note_on_c, 7, 73, 64
7, 13425, Note_on_c, 7, 73, 0
7, 13425, Note_on_c, 7, 75, 64
7, 13440, Note_on_c, 7, 75, 0
7, 13440, Note_on_c, 7, 73, 64
7, 13485, Note_on_c, 7, 73, 0
7, 13485, Note_on_c, 7, 75, 64
7, 13500, Note_on_c, 7, 75, 0
7, 13500, Note_on_c, 7, 73, 64
7, 13545, Note_on_c, 7, 73, 0
7, 13545, Note_on_c, 7, 75, 64
7, 13560, Note_on_c, 7, 75, 0
7, 13560, Note_on_c, 7, 73, 64
7, 13605, Note_on_c, 7, 73, 0
7, 13605, Note_on_c, 7, 75, 64
7, 13620, Note_on_c, 7, 75, 0
7, 13620, Note_on_c, 7, 73, 64
7, 13665, Note_on_c, 7, 73, 0
7, 13665, Note_on_c, 7, 75, 64
7, 13680, Note_on_c, 7, 75, 0
7, 13680, Note_on_c, 7, 61, 64
7, 13725, Note_on_c, 7, 61, 0
7, 13725, Note_on_c, 7, 63, 64
7, 13740, Note_on_c, 7, 63, 0
7, 13740, Note_on_c, 7, 61, 64
7, 13785, Note_on_c, 7, 61, 0
7, 13785, Note_on_c, 7, 63, 64
7, 13800, Note_on_c, 7, 63, 0
7, 13800, Note_on_c, 7, 61, 64
7, 13845, Note_on_c, 7, 61, 0
7, 13845, Note_on_c, 7, 63, 64
7, 13860, Note_on_c, 7, 63, 0
7, 13860, Note_on_c, 7, 61, 64
7, 13905, Note_on_c, 7, 61, 0
7, 13905, Note_on_c, 7, 63, 64
7, 13920, Note_on_c, 7, 63, 0
7, 13920, Note_on_c, 7, 61, 64
7, 13965, Note_on_c, 7, 61, 0
7, 13965, Note_on_c, 7, 63, 64
7, 13980, Note_on_c, 7, 63, 0
7, 13980, Note_on_c, 7, 61, 64
7, 14025, Note_on_c, 7, 61, 0
7, 14025, Note_on_c, 7, 63, 64
7, 14040, Note_on_c, 7, 63, 0
7, 14040, Note_on_c, 7, 61, 64
7, 14415, Note_on_c, 7, 61, 0
7, 14760, Program_c, 7, 0
7, 14760, Control_c, 7, 7, 100
7, 14760, Control_c, 7, 10, 64
7, 14760, Control_c, 7, 93, 0
7, 14760, Control_c, 7, 91, 40
7, 14760, End_track
8, 0, Start_track
8, 0, MIDI_port, 1
8, 0, Title_t, "   Orchestra"
8, 0, Program_c, 8, 48
8, 0, Control_c, 8, 7, 60
8, 0, Control_c, 8, 10, 100
8, 0, Control_c, 8, 93, 0
8, 0, Control_c, 8, 91, 120
8, 360, Note_on_c, 8, 64, 64
8, 405, Note_on_c, 8, 64, 0
8, 405, Note_on_c, 8, 66, 64
8, 420, Note_on_c, 8, 66, 0
8, 420, Note_on_c, 8, 64, 64
8, 465, Note_on_c, 8, 64, 0
8, 465, Note_on_c, 8, 66, 64
8, 480, Note_on_c, 8, 66, 0
8, 480, Note_on_c, 8, 64, 64
8, 525, Note_on_c, 8, 64, 0
8, 525, Note_on_c, 8, 66, 64
8, 540, Note_on_c, 8, 66, 0
8, 540, Note_on_c, 8, 64, 64
8, 585, Note_on_c, 8, 64, 0
8, 585, Note_on_c, 8, 66, 64
8, 600, Note_on_c, 8, 66, 0
8, 600, Note_on_c, 8, 64, 64
8, 645, Note_on_c, 8, 64, 0
8, 645, Note_on_c, 8, 69, 64
8, 660, Note_on_c, 8, 69, 0
8, 660, Note_on_c, 8, 68, 64
8, 705, Note_on_c, 8, 68, 0
8, 705, Note_on_c, 8, 66, 64
8, 720, Note_on_c, 8, 66, 0
8, 720, Note_on_c, 8, 64, 64
8, 765, Note_on_c, 8, 64, 0
8, 765, Note_on_c, 8, 66, 64
8, 780, Note_on_c, 8, 66, 0
8, 780, Note_on_c, 8, 64, 64
8, 825, Note_on_c, 8, 64, 0
8, 825, Note_on_c, 8, 66, 64
8, 840, Note_on_c, 8, 66, 0
8, 840, Note_on_c, 8, 64, 64
8, 885, Note_on_c, 8, 64, 0
8, 885, Note_on_c, 8, 66, 64
8, 900, Note_on_c, 8, 66, 0
8, 900, Note_on_c, 8, 64, 64
8, 945, Note_on_c, 8, 64, 0
8, 945, Note_on_c, 8, 66, 64
8, 960, Note_on_c, 8, 66, 0
8, 960, Note_on_c, 8, 64, 64
8, 1005, Note_on_c, 8, 64, 0
8, 1005, Note_on_c, 8, 69, 64
8, 1020, Note_on_c, 8, 69, 0
8, 1020, Note_on_c, 8, 68, 64
8, 1065, Note_on_c, 8, 68, 0
8, 1065, Note_on_c, 8, 66, 64
8, 1080, Note_on_c, 8, 66, 0
8, 1080, Note_on_c, 8, 64, 64
8, 1125, Note_on_c, 8, 64, 0
8, 1125, Note_on_c, 8, 66, 64
8, 1140, Note_on_c, 8, 66, 0
8, 1140, Note_on_c, 8, 64, 64
8, 1185, Note_on_c, 8, 64, 0
8, 1185, Note_on_c, 8, 66, 64
8, 1200, Note_on_c, 8, 66, 0
8, 1200, Note_on_c, 8, 64, 64
8, 1245, Note_on_c, 8, 64, 0
8, 1245, Note_on_c, 8, 66, 64
8, 1260, Note_on_c, 8, 66, 0
8, 1260, Note_on_c, 8, 64, 64
8, 1305, Note_on_c, 8, 64, 0
8, 1305, Note_on_c, 8, 66, 64
8, 1320, Note_on_c, 8, 66, 0
8, 1320, Note_on_c, 8, 64, 64
8, 1365, Note_on_c, 8, 64, 0
8, 1365, Note_on_c, 8, 66, 64
8, 1380, Note_on_c, 8, 66, 0
8, 1380, Note_on_c, 8, 68, 64
8, 1425, Note_on_c, 8, 68, 0
8, 1425, Note_on_c, 8, 69, 64
8, 1440, Note_on_c, 8, 69, 0
8, 1440, Note_on_c, 8, 72, 64
8, 1485, Note_on_c, 8, 72, 0
8, 1485, Note_on_c, 8, 73, 64
8, 1500, Note_on_c, 8, 73, 0
8, 1500, Note_on_c, 8, 72, 64
8, 1545, Note_on_c, 8, 72, 0
8, 1545, Note_on_c, 8, 73, 64
8, 1560, Note_on_c, 8, 73, 0
8, 1560, Note_on_c, 8, 72, 64
8, 1605, Note_on_c, 8, 72, 0
8, 1605, Note_on_c, 8, 73, 64
8, 1620, Note_on_c, 8, 73, 0
8, 1620, Note_on_c, 8, 72, 64
8, 1665, Note_on_c, 8, 72, 0
8, 1665, Note_on_c, 8, 73, 64
8, 1680, Note_on_c, 8, 73, 0
8, 1680, Note_on_c, 8, 72, 64
8, 1725, Note_on_c, 8, 72, 0
8, 1725, Note_on_c, 8, 76, 64
8, 1740, Note_on_c, 8, 76, 0
8, 1740, Note_on_c, 8, 75, 64
8, 1785, Note_on_c, 8, 75, 0
8, 1785, Note_on_c, 8, 73, 64
8, 1800, Note_on_c, 8, 73, 0
8, 1800, Note_on_c, 8, 72, 64
8, 1845, Note_on_c, 8, 72, 0
8, 1845, Note_on_c, 8, 73, 64
8, 1860, Note_on_c, 8, 73, 0
8, 1860, Note_on_c, 8, 72, 64
8, 1905, Note_on_c, 8, 72, 0
8, 1905, Note_on_c, 8, 73, 64
8, 1920, Note_on_c, 8, 73, 0
8, 1920, Note_on_c, 8, 72, 64
8, 1965, Note_on_c, 8, 72, 0
8, 1965, Note_on_c, 8, 73, 64
8, 1980, Note_on_c, 8, 73, 0
8, 1980, Note_on_c, 8, 72, 64
8, 2025, Note_on_c, 8, 72, 0
8, 2025, Note_on_c, 8, 73, 64
8, 2040, Note_on_c, 8, 73, 0
8, 2040, Note_on_c, 8, 72, 64
8, 2085, Note_on_c, 8, 72, 0
8, 2085, Note_on_c, 8, 76, 64
8, 2100, Note_on_c, 8, 76, 0
8, 2100, Note_on_c, 8, 75, 64
8, 2145, Note_on_c, 8, 75, 0
8, 2145, Note_on_c, 8, 73, 64
8, 2160, Note_on_c, 8, 73, 0
8, 2160, Note_on_c, 8, 72, 64
8, 2205, Note_on_c, 8, 72, 0
8, 2205, Note_on_c, 8, 73, 64
8, 2220, Note_on_c, 8, 73, 0
8, 2220, Note_on_c, 8, 72, 64
8, 2265, Note_on_c, 8, 72, 0
8, 2265, Note_on_c, 8, 73, 64
8, 2280, Note_on_c, 8, 73, 0
8, 2280, Note_on_c, 8, 72, 64
8, 2325, Note_on_c, 8, 72, 0
8, 2325, Note_on_c, 8, 73, 64
8, 2340, Note_on_c, 8, 73, 0
8, 2340, Note_on_c, 8, 72, 64
8, 2385, Note_on_c, 8, 72, 0
8, 2385, Note_on_c, 8, 73, 64
8, 2400, Note_on_c, 8, 73, 0
8, 2400, Note_on_c, 8, 72, 64
8, 2445, Note_on_c, 8, 72, 0
8, 2445, Note_on_c, 8, 73, 64
8, 2460, Note_on_c, 8, 73, 0
8, 2460, Note_on_c, 8, 75, 64
8, 2505, Note_on_c, 8, 75, 0
8, 2505, Note_on_c, 8, 72, 64
8, 2520, Note_on_c, 8, 72, 0
8, 2520, Note_on_c, 8, 73, 64
8, 2565, Note_on_c, 8, 73, 0
8, 2565, Note_on_c, 8, 75, 64
8, 2580, Note_on_c, 8, 75, 0
8, 2580, Note_on_c, 8, 73, 64
8, 2625, Note_on_c, 8, 73, 0
8, 2625, Note_on_c, 8, 75, 64
8, 2640, Note_on_c, 8, 75, 0
8, 2640, Note_on_c, 8, 73, 64
8, 2685, Note_on_c, 8, 73, 0
8, 2685, Note_on_c, 8, 75, 64
8, 2700, Note_on_c, 8, 75, 0
8, 2700, Note_on_c, 8, 73, 64
8, 2745, Note_on_c, 8, 73, 0
8, 2745, Note_on_c, 8, 75, 64
8, 2760, Note_on_c, 8, 75, 0
8, 2760, Note_on_c, 8, 73, 64
8, 2805, Note_on_c, 8, 73, 0
8, 2805, Note_on_c, 8, 75, 64
8, 2820, Note_on_c, 8, 75, 0
8, 2820, Note_on_c, 8, 73, 64
8, 2865, Note_on_c, 8, 73, 0
8, 2865, Note_on_c, 8, 75, 64
8, 2880, Note_on_c, 8, 75, 0
8, 2880, Note_on_c, 8, 61, 64
8, 2925, Note_on_c, 8, 61, 0
8, 2925, Note_on_c, 8, 63, 64
8, 2940, Note_on_c, 8, 63, 0
8, 2940, Note_on_c, 8, 61, 64
8, 2985, Note_on_c, 8, 61, 0
8, 2985, Note_on_c, 8, 63, 64
8, 3000, Note_on_c, 8, 63, 0
8, 3000, Note_on_c, 8, 61, 64
8, 3045, Note_on_c, 8, 61, 0
8, 3045, Note_on_c, 8, 63, 64
8, 3060, Note_on_c, 8, 63, 0
8, 3060, Note_on_c, 8, 61, 64
8, 3105, Note_on_c, 8, 61, 0
8, 3105, Note_on_c, 8, 63, 64
8, 3120, Note_on_c, 8, 63, 0
8, 3120, Note_on_c, 8, 61, 64
8, 3165, Note_on_c, 8, 61, 0
8, 3165, Note_on_c, 8, 63, 64
8, 3180, Note_on_c, 8, 63, 0
8, 3180, Note_on_c, 8, 61, 64
8, 3225, Note_on_c, 8, 61, 0
8, 3225, Note_on_c, 8, 63, 64
8, 3240, Note_on_c, 8, 63, 0
8, 3240, Note_on_c, 8, 73, 64
8, 3285, Note_on_c, 8, 73, 0
8, 3285, Note_on_c, 8, 75, 64
8, 3300, Note_on_c, 8, 75, 0
8, 3300, Note_on_c, 8, 73, 64
8, 3345, Note_on_c, 8, 73, 0
8, 3345, Note_on_c, 8, 75, 64
8, 3360, Note_on_c, 8, 75, 0
8, 3360, Note_on_c, 8, 73, 64
8, 3405, Note_on_c, 8, 73, 0
8, 3405, Note_on_c, 8, 75, 64
8, 3420, Note_on_c, 8, 75, 0
8, 3420, Note_on_c, 8, 73, 64
8, 3465, Note_on_c, 8, 73, 0
8, 3465, Note_on_c, 8, 75, 64
8, 3480, Note_on_c, 8, 75, 0
8, 3480, Note_on_c, 8, 73, 64
8, 3525, Note_on_c, 8, 73, 0
8, 3525, Note_on_c, 8, 75, 64
8, 3540, Note_on_c, 8, 75, 0
8, 3540, Note_on_c, 8, 73, 64
8, 3585, Note_on_c, 8, 73, 0
8, 3585, Note_on_c, 8, 75, 64
8, 3600, Note_on_c, 8, 75, 0
8, 3600, Note_on_c, 8, 66, 64
8, 3655, Note_on_c, 8, 66, 0
8, 3660, Note_on_c, 8, 66, 64
8, 3715, Note_on_c, 8, 66, 0
8, 3720, Note_on_c, 8, 78, 64
8, 3765, Note_on_c, 8, 78, 0
8, 3765, Note_on_c, 8, 80, 64
8, 3780, Note_on_c, 8, 80, 0
8, 3780, Note_on_c, 8, 78, 64
8, 3825, Note_on_c, 8, 78, 0
8, 3825, Note_on_c, 8, 80, 64
8, 3840, Note_on_c, 8, 80, 0
8, 3840, Note_on_c, 8, 78, 64
8, 3885, Note_on_c, 8, 78, 0
8, 3885, Note_on_c, 8, 80, 64
8, 3900, Note_on_c, 8, 80, 0
8, 3900, Note_on_c, 8, 78, 64
8, 3945, Note_on_c, 8, 78, 0
8, 3945, Note_on_c, 8, 80, 64
8, 3960, Note_on_c, 8, 80, 0
8, 3960, Note_on_c, 8, 71, 64
8, 4005, Note_on_c, 8, 71, 0
8, 4005, Note_on_c, 8, 73, 64
8, 4020, Note_on_c, 8, 73, 0
8, 4020, Note_on_c, 8, 71, 64
8, 4065, Note_on_c, 8, 71, 0
8, 4065, Note_on_c, 8, 73, 64
8, 4080, Note_on_c, 8, 73, 0
8, 4080, Note_on_c, 8, 71, 64
8, 4125, Note_on_c, 8, 71, 0
8, 4125, Note_on_c, 8, 73, 64
8, 4140, Note_on_c, 8, 73, 0
8, 4140, Note_on_c, 8, 71, 64
8, 4185, Note_on_c, 8, 71, 0
8, 4185, Note_on_c, 8, 73, 64
8, 4200, Note_on_c, 8, 73, 0
8, 4200, Note_on_c, 8, 71, 64
8, 4245, Note_on_c, 8, 71, 0
8, 4245, Note_on_c, 8, 73, 64
8, 4260, Note_on_c, 8, 73, 0
8, 4260, Note_on_c, 8, 71, 64
8, 4305, Note_on_c, 8, 71, 0
8, 4305, Note_on_c, 8, 73, 64
8, 4320, Note_on_c, 8, 73, 0
8, 4320, Note_on_c, 8, 66, 64
8, 4375, Note_on_c, 8, 66, 0
8, 4380, Note_on_c, 8, 66, 64
8, 4435, Note_on_c, 8, 66, 0
8, 4440, Note_on_c, 8, 76, 64
8, 4485, Note_on_c, 8, 76, 0
8, 4485, Note_on_c, 8, 78, 64
8, 4500, Note_on_c, 8, 78, 0
8, 4500, Note_on_c, 8, 76, 64
8, 4545, Note_on_c, 8, 76, 0
8, 4545, Note_on_c, 8, 78, 64
8, 4560, Note_on_c, 8, 78, 0
8, 4560, Note_on_c, 8, 76, 64
8, 4605, Note_on_c, 8, 76, 0
8, 4605, Note_on_c, 8, 78, 64
8, 4620, Note_on_c, 8, 78, 0
8, 4620, Note_on_c, 8, 76, 64
8, 4665, Note_on_c, 8, 76, 0
8, 4665, Note_on_c, 8, 78, 64
8, 4680, Note_on_c, 8, 78, 0
8, 4680, Note_on_c, 8, 69, 64
8, 4725, Note_on_c, 8, 69, 0
8, 4725, Note_on_c, 8, 71, 64
8, 4740, Note_on_c, 8, 71, 0
8, 4740, Note_on_c, 8, 69, 64
8, 4785, Note_on_c, 8, 69, 0
8, 4785, Note_on_c, 8, 71, 64
8, 4800, Note_on_c, 8, 71, 0
8, 4800, Note_on_c, 8, 69, 64
8, 4845, Note_on_c, 8, 69, 0
8, 4845, Note_on_c, 8, 71, 64
8, 4860, Note_on_c, 8, 71, 0
8, 4860, Note_on_c, 8, 69, 64
8, 4905, Note_on_c, 8, 69, 0
8, 4905, Note_on_c, 8, 71, 64
8, 4920, Note_on_c, 8, 71, 0
8, 4920, Note_on_c, 8, 69, 64
8, 4965, Note_on_c, 8, 69, 0
8, 4965, Note_on_c, 8, 71, 64
8, 4980, Note_on_c, 8, 71, 0
8, 4980, Note_on_c, 8, 69, 64
8, 5025, Note_on_c, 8, 69, 0
8, 5025, Note_on_c, 8, 71, 64
8, 5040, Note_on_c, 8, 71, 0
8, 5040, Note_on_c, 8, 63, 64
8, 5095, Note_on_c, 8, 63, 0
8, 5100, Note_on_c, 8, 63, 64
8, 5155, Note_on_c, 8, 63, 0
8, 5160, Note_on_c, 8, 75, 64
8, 5205, Note_on_c, 8, 75, 0
8, 5205, Note_on_c, 8, 76, 64
8, 5220, Note_on_c, 8, 76, 0
8, 5220, Note_on_c, 8, 75, 64
8, 5265, Note_on_c, 8, 75, 0
8, 5265, Note_on_c, 8, 76, 64
8, 5280, Note_on_c, 8, 76, 0
8, 5280, Note_on_c, 8, 75, 64
8, 5325, Note_on_c, 8, 75, 0
8, 5325, Note_on_c, 8, 76, 64
8, 5340, Note_on_c, 8, 76, 0
8, 5340, Note_on_c, 8, 75, 64
8, 5385, Note_on_c, 8, 75, 0
8, 5385, Note_on_c, 8, 66, 64
8, 5400, Note_on_c, 8, 66, 0
8, 5400, Note_on_c, 8, 68, 64
8, 5445, Note_on_c, 8, 68, 0
8, 5445, Note_on_c, 8, 69, 64
8, 5460, Note_on_c, 8, 69, 0
8, 5460, Note_on_c, 8, 68, 64
8, 5505, Note_on_c, 8, 68, 0
8, 5505, Note_on_c, 8, 69, 64
8, 5520, Note_on_c, 8, 69, 0
8, 5520, Note_on_c, 8, 68, 64
8, 5565, Note_on_c, 8, 68, 0
8, 5565, Note_on_c, 8, 69, 64
8, 5580, Note_on_c, 8, 69, 0
8, 5580, Note_on_c, 8, 68, 64
8, 5625, Note_on_c, 8, 68, 0
8, 5625, Note_on_c, 8, 69, 64
8, 5640, Note_on_c, 8, 69, 0
8, 5640, Note_on_c, 8, 68, 64
8, 5685, Note_on_c, 8, 68, 0
8, 5685, Note_on_c, 8, 69, 64
8, 5700, Note_on_c, 8, 69, 0
8, 5700, Note_on_c, 8, 68, 64
8, 5745, Note_on_c, 8, 68, 0
8, 5745, Note_on_c, 8, 69, 64
8, 5760, Note_on_c, 8, 69, 0
8, 5760, Note_on_c, 8, 70, 64
8, 5815, Note_on_c, 8, 70, 0
8, 5820, Note_on_c, 8, 70, 64
8, 5875, Note_on_c, 8, 70, 0
8, 5880, Note_on_c, 8, 70, 64
8, 5935, Note_on_c, 8, 70, 0
8, 5940, Note_on_c, 8, 70, 64
8, 5995, Note_on_c, 8, 70, 0
8, 6000, Note_on_c, 8, 71, 64
8, 6045, Note_on_c, 8, 71, 0
8, 6045, Note_on_c, 8, 73, 64
8, 6060, Note_on_c, 8, 73, 0
8, 6060, Note_on_c, 8, 71, 64
8, 6105, Note_on_c, 8, 71, 0
8, 6105, Note_on_c, 8, 73, 64
8, 6120, Note_on_c, 8, 73, 0
8, 6120, Note_on_c, 8, 70, 64
8, 6180, Note_on_c, 8, 70, 0
8, 6180, Note_on_c, 8, 70, 64
8, 6240, Note_on_c, 8, 70, 0
8, 6240, Note_on_c, 8, 70, 64
8, 6300, Note_on_c, 8, 70, 0
8, 6300, Note_on_c, 8, 70, 64
8, 6360, Note_on_c, 8, 70, 0
8, 6360, Note_on_c, 8, 70, 64
8, 6420, Note_on_c, 8, 70, 0
8, 6420, Note_on_c, 8, 70, 64
8, 6480, Note_on_c, 8, 70, 0
8, 6480, Note_on_c, 8, 68, 64
8, 6525, Note_on_c, 8, 68, 0
8, 6525, Note_on_c, 8, 70, 64
8, 6540, Note_on_c, 8, 70, 0
8, 6540, Note_on_c, 8, 68, 64
8, 6585, Note_on_c, 8, 68, 0
8, 6585, Note_on_c, 8, 70, 64
8, 6600, Note_on_c, 8, 70, 0
8, 6600, Note_on_c, 8, 68, 64
8, 6645, Note_on_c, 8, 68, 0
8, 6645, Note_on_c, 8, 70, 64
8, 6660, Note_on_c, 8, 70, 0
8, 6660, Note_on_c, 8, 68, 64
8, 6705, Note_on_c, 8, 68, 0
8, 6705, Note_on_c, 8, 70, 64
8, 6720, Note_on_c, 8, 70, 0
8, 6720, Note_on_c, 8, 68, 64
8, 6765, Note_on_c, 8, 68, 0
8, 6765, Note_on_c, 8, 73, 64
8, 6780, Note_on_c, 8, 73, 0
8, 6780, Note_on_c, 8, 71, 64
8, 6825, Note_on_c, 8, 71, 0
8, 6825, Note_on_c, 8, 70, 64
8, 6840, Note_on_c, 8, 70, 0
8, 6840, Note_on_c, 8, 68, 64
8, 6885, Note_on_c, 8, 68, 0
8, 6885, Note_on_c, 8, 70, 64
8, 6900, Note_on_c, 8, 70, 0
8, 6900, Note_on_c, 8, 68, 64
8, 6945, Note_on_c, 8, 68, 0
8, 6945, Note_on_c, 8, 70, 64
8, 6960, Note_on_c, 8, 70, 0
8, 6960, Note_on_c, 8, 68, 64
8, 7005, Note_on_c, 8, 68, 0
8, 7005, Note_on_c, 8, 70, 64
8, 7020, Note_on_c, 8, 70, 0
8, 7020, Note_on_c, 8, 68, 64
8, 7065, Note_on_c, 8, 68, 0
8, 7065, Note_on_c, 8, 70, 64
8, 7080, Note_on_c, 8, 70, 0
8, 7080, Note_on_c, 8, 68, 64
8, 7125, Note_on_c, 8, 68, 0
8, 7125, Note_on_c, 8, 69, 64
8, 7140, Note_on_c, 8, 69, 0
8, 7140, Note_on_c, 8, 68, 64
8, 7185, Note_on_c, 8, 68, 0
8, 7185, Note_on_c, 8, 66, 64
8, 7200, Note_on_c, 8, 66, 0
8, 7200, Note_on_c, 8, 64, 64
8, 7245, Note_on_c, 8, 64, 0
8, 7245, Note_on_c, 8, 66, 64
8, 7260, Note_on_c, 8, 66, 0
8, 7260, Note_on_c, 8, 64, 64
8, 7305, Note_on_c, 8, 64, 0
8, 7305, Note_on_c, 8, 66, 64
8, 7320, Note_on_c, 8, 66, 0
8, 7320, Note_on_c, 8, 64, 64
8, 7365, Note_on_c, 8, 64, 0
8, 7365, Note_on_c, 8, 66, 64
8, 7380, Note_on_c, 8, 66, 0
8, 7380, Note_on_c, 8, 64, 64
8, 7425, Note_on_c, 8, 64, 0
8, 7425, Note_on_c, 8, 66, 64
8, 7440, Note_on_c, 8, 66, 0
8, 7440, Note_on_c, 8, 64, 64
8, 7485, Note_on_c, 8, 64, 0
8, 7485, Note_on_c, 8, 69, 64
8, 7500, Note_on_c, 8, 69, 0
8, 7500, Note_on_c, 8, 68, 64
8, 7545, Note_on_c, 8, 68, 0
8, 7545, Note_on_c, 8, 66, 64
8, 7560, Note_on_c, 8, 66, 0
8, 7560, Note_on_c, 8, 64, 64
8, 7605, Note_on_c, 8, 64, 0
8, 7605, Note_on_c, 8, 66, 64
8, 7620, Note_on_c, 8, 66, 0
8, 7620, Note_on_c, 8, 64, 64
8, 7665, Note_on_c, 8, 64, 0
8, 7665, Note_on_c, 8, 66, 64
8, 7680, Note_on_c, 8, 66, 0
8, 7680, Note_on_c, 8, 64, 64
8, 7725, Note_on_c, 8, 64, 0
8, 7725, Note_on_c, 8, 66, 64
8, 7740, Note_on_c, 8, 66, 0
8, 7740, Note_on_c, 8, 64, 64
8, 7785, Note_on_c, 8, 64, 0
8, 7785, Note_on_c, 8, 66, 64
8, 7800, Note_on_c, 8, 66, 0
8, 7800, Note_on_c, 8, 64, 64
8, 7845, Note_on_c, 8, 64, 0
8, 7845, Note_on_c, 8, 66, 64
8, 7860, Note_on_c, 8, 66, 0
8, 7860, Note_on_c, 8, 68, 64
8, 7905, Note_on_c, 8, 68, 0
8, 7905, Note_on_c, 8, 69, 64
8, 7920, Note_on_c, 8, 69, 0
8, 7920, Note_on_c, 8, 72, 64
8, 7965, Note_on_c, 8, 72, 0
8, 7965, Note_on_c, 8, 73, 64
8, 7980, Note_on_c, 8, 73, 0
8, 7980, Note_on_c, 8, 72, 64
8, 8025, Note_on_c, 8, 72, 0
8, 8025, Note_on_c, 8, 73, 64
8, 8040, Note_on_c, 8, 73, 0
8, 8040, Note_on_c, 8, 72, 64
8, 8085, Note_on_c, 8, 72, 0
8, 8085, Note_on_c, 8, 73, 64
8, 8100, Note_on_c, 8, 73, 0
8, 8100, Note_on_c, 8, 72, 64
8, 8145, Note_on_c, 8, 72, 0
8, 8145, Note_on_c, 8, 73, 64
8, 8160, Note_on_c, 8, 73, 0
8, 8160, Note_on_c, 8, 72, 64
8, 8205, Note_on_c, 8, 72, 0
8, 8205, Note_on_c, 8, 73, 64
8, 8220, Note_on_c, 8, 73, 0
8, 8220, Note_on_c, 8, 75, 64
8, 8265, Note_on_c, 8, 75, 0
8, 8265, Note_on_c, 8, 72, 64
8, 8280, Note_on_c, 8, 72, 0
8, 8280, Note_on_c, 8, 73, 64
8, 8325, Note_on_c, 8, 73, 0
8, 8325, Note_on_c, 8, 75, 64
8, 8340, Note_on_c, 8, 75, 0
8, 8340, Note_on_c, 8, 73, 64
8, 8385, Note_on_c, 8, 73, 0
8, 8385, Note_on_c, 8, 75, 64
8, 8400, Note_on_c, 8, 75, 0
8, 8400, Note_on_c, 8, 73, 64
8, 8445, Note_on_c, 8, 73, 0
8, 8445, Note_on_c, 8, 75, 64
8, 8460, Note_on_c, 8, 75, 0
8, 8460, Note_on_c, 8, 73, 64
8, 8505, Note_on_c, 8, 73, 0
8, 8505, Note_on_c, 8, 75, 64
8, 8520, Note_on_c, 8, 75, 0
8, 8520, Note_on_c, 8, 73, 64
8, 8565, Note_on_c, 8, 73, 0
8, 8565, Note_on_c, 8, 75, 64
8, 8580, Note_on_c, 8, 75, 0
8, 8580, Note_on_c, 8, 73, 64
8, 8625, Note_on_c, 8, 73, 0
8, 8625, Note_on_c, 8, 75, 64
8, 8640, Note_on_c, 8, 75, 0
8, 8640, Note_on_c, 8, 73, 64
8, 8685, Note_on_c, 8, 73, 0
8, 8685, Note_on_c, 8, 75, 64
8, 8700, Note_on_c, 8, 75, 0
8, 8700, Note_on_c, 8, 73, 64
8, 8745, Note_on_c, 8, 73, 0
8, 8745, Note_on_c, 8, 75, 64
8, 8760, Note_on_c, 8, 75, 0
8, 8760, Note_on_c, 8, 73, 64
8, 8805, Note_on_c, 8, 73, 0
8, 8805, Note_on_c, 8, 75, 64
8, 8820, Note_on_c, 8, 75, 0
8, 8820, Note_on_c, 8, 73, 64
8, 8865, Note_on_c, 8, 73, 0
8, 8865, Note_on_c, 8, 75, 64
8, 8880, Note_on_c, 8, 75, 0
8, 8880, Note_on_c, 8, 73, 64
8, 8925, Note_on_c, 8, 73, 0
8, 8925, Note_on_c, 8, 75, 64
8, 8940, Note_on_c, 8, 75, 0
8, 8940, Note_on_c, 8, 73, 64
8, 8985, Note_on_c, 8, 73, 0
8, 8985, Note_on_c, 8, 71, 64
8, 9000, Note_on_c, 8, 71, 0
8, 9000, Note_on_c, 8, 69, 64
8, 9045, Note_on_c, 8, 69, 0
8, 9045, Note_on_c, 8, 71, 64
8, 9060, Note_on_c, 8, 71, 0
8, 9060, Note_on_c, 8, 69, 64
8, 9105, Note_on_c, 8, 69, 0
8, 9105, Note_on_c, 8, 71, 64
8, 9120, Note_on_c, 8, 71, 0
8, 9120, Note_on_c, 8, 69, 64
8, 9165, Note_on_c, 8, 69, 0
8, 9165, Note_on_c, 8, 71, 64
8, 9180, Note_on_c, 8, 71, 0
8, 9180, Note_on_c, 8, 69, 64
8, 9225, Note_on_c, 8, 69, 0
8, 9225, Note_on_c, 8, 71, 64
8, 9240, Note_on_c, 8, 71, 0
8, 9240, Note_on_c, 8, 69, 64
8, 9285, Note_on_c, 8, 69, 0
8, 9285, Note_on_c, 8, 71, 64
8, 9300, Note_on_c, 8, 71, 0
8, 9300, Note_on_c, 8, 73, 64
8, 9345, Note_on_c, 8, 73, 0
8, 9345, Note_on_c, 8, 69, 64
8, 9360, Note_on_c, 8, 69, 0
8, 9360, Note_on_c, 8, 75, 64
8, 9405, Note_on_c, 8, 75, 0
8, 9405, Note_on_c, 8, 76, 64
8, 9420, Note_on_c, 8, 76, 0
8, 9420, Note_on_c, 8, 75, 64
8, 9465, Note_on_c, 8, 75, 0
8, 9465, Note_on_c, 8, 76, 64
8, 9480, Note_on_c, 8, 76, 0
8, 9480, Note_on_c, 8, 75, 64
8, 9525, Note_on_c, 8, 75, 0
8, 9525, Note_on_c, 8, 76, 64
8, 9540, Note_on_c, 8, 76, 0
8, 9540, Note_on_c, 8, 75, 64
8, 9585, Note_on_c, 8, 75, 0
8, 9585, Note_on_c, 8, 76, 64
8, 9600, Note_on_c, 8, 76, 0
8, 9600, Note_on_c, 8, 75, 64
8, 9645, Note_on_c, 8, 75, 0
8, 9645, Note_on_c, 8, 76, 64
8, 9660, Note_on_c, 8, 76, 0
8, 9660, Note_on_c, 8, 75, 64
8, 9705, Note_on_c, 8, 75, 0
8, 9705, Note_on_c, 8, 73, 64
8, 9720, Note_on_c, 8, 73, 0
8, 9720, Note_on_c, 8, 72, 64
8, 9765, Note_on_c, 8, 72, 0
8, 9765, Note_on_c, 8, 73, 64
8, 9780, Note_on_c, 8, 73, 0
8, 9780, Note_on_c, 8, 72, 64
8, 9825, Note_on_c, 8, 72, 0
8, 9825, Note_on_c, 8, 73, 64
8, 9840, Note_on_c, 8, 73, 0
8, 9840, Note_on_c, 8, 72, 64
8, 9885, Note_on_c, 8, 72, 0
8, 9885, Note_on_c, 8, 73, 64
8, 9900, Note_on_c, 8, 73, 0
8, 9900, Note_on_c, 8, 72, 64
8, 9945, Note_on_c, 8, 72, 0
8, 9945, Note_on_c, 8, 73, 64
8, 9960, Note_on_c, 8, 73, 0
8, 9960, Note_on_c, 8, 72, 64
8, 10005, Note_on_c, 8, 72, 0
8, 10005, Note_on_c, 8, 73, 64
8, 10020, Note_on_c, 8, 73, 0
8, 10020, Note_on_c, 8, 75, 64
8, 10065, Note_on_c, 8, 75, 0
8, 10065, Note_on_c, 8, 72, 64
8, 10080, Note_on_c, 8, 72, 0
8, 10080, Note_on_c, 8, 75, 64
8, 10135, Note_on_c, 8, 75, 0
8, 10140, Note_on_c, 8, 75, 64
8, 10195, Note_on_c, 8, 75, 0
8, 10200, Note_on_c, 8, 75, 64
8, 10255, Note_on_c, 8, 75, 0
8, 10260, Note_on_c, 8, 75, 64
8, 10315, Note_on_c, 8, 75, 0
8, 10320, Note_on_c, 8, 75, 64
8, 10375, Note_on_c, 8, 75, 0
8, 10380, Note_on_c, 8, 75, 64
8, 10435, Note_on_c, 8, 75, 0
8, 10440, Note_on_c, 8, 76, 64
8, 10485, Note_on_c, 8, 76, 0
8, 10485, Note_on_c, 8, 78, 64
8, 10500, Note_on_c, 8, 78, 0
8, 10500, Note_on_c, 8, 76, 64
8, 10545, Note_on_c, 8, 76, 0
8, 10545, Note_on_c, 8, 78, 64
8, 10560, Note_on_c, 8, 78, 0
8, 10560, Note_on_c, 8, 76, 64
8, 10605, Note_on_c, 8, 76, 0
8, 10605, Note_on_c, 8, 78, 64
8, 10620, Note_on_c, 8, 78, 0
8, 10620, Note_on_c, 8, 76, 64
8, 10665, Note_on_c, 8, 76, 0
8, 10665, Note_on_c, 8, 78, 64
8, 10680, Note_on_c, 8, 78, 0
8, 10680, Note_on_c, 8, 76, 64
8, 10725, Note_on_c, 8, 76, 0
8, 10725, Note_on_c, 8, 78, 64
8, 10740, Note_on_c, 8, 78, 0
8, 10740, Note_on_c, 8, 76, 64
8, 10785, Note_on_c, 8, 76, 0
8, 10785, Note_on_c, 8, 78, 64
8, 10800, Note_on_c, 8, 78, 0
8, 10800, Note_on_c, 8, 66, 64
8, 10845, Note_on_c, 8, 66, 0
8, 10845, Note_on_c, 8, 68, 64
8, 10860, Note_on_c, 8, 68, 0
8, 10860, Note_on_c, 8, 66, 64
8, 10905, Note_on_c, 8, 66, 0
8, 10905, Note_on_c, 8, 68, 64
8, 10920, Note_on_c, 8, 68, 0
8, 10920, Note_on_c, 8, 66, 64
8, 10965, Note_on_c, 8, 66, 0
8, 10965, Note_on_c, 8, 68, 64
8, 10980, Note_on_c, 8, 68, 0
8, 10980, Note_on_c, 8, 66, 64
8, 11025, Note_on_c, 8, 66, 0
8, 11025, Note_on_c, 8, 68, 64
8, 11040, Note_on_c, 8, 68, 0
8, 11040, Note_on_c, 8, 66, 64
8, 11085, Note_on_c, 8, 66, 0
8, 11085, Note_on_c, 8, 68, 64
8, 11100, Note_on_c, 8, 68, 0
8, 11100, Note_on_c, 8, 66, 64
8, 11145, Note_on_c, 8, 66, 0
8, 11145, Note_on_c, 8, 68, 64
8, 11160, Note_on_c, 8, 68, 0
8, 11160, Note_on_c, 8, 66, 64
8, 11205, Note_on_c, 8, 66, 0
8, 11205, Note_on_c, 8, 68, 64
8, 11220, Note_on_c, 8, 68, 0
8, 11220, Note_on_c, 8, 66, 64
8, 11265, Note_on_c, 8, 66, 0
8, 11265, Note_on_c, 8, 68, 64
8, 11280, Note_on_c, 8, 68, 0
8, 11280, Note_on_c, 8, 66, 64
8, 11325, Note_on_c, 8, 66, 0
8, 11325, Note_on_c, 8, 68, 64
8, 11340, Note_on_c, 8, 68, 0
8, 11340, Note_on_c, 8, 66, 64
8, 11385, Note_on_c, 8, 66, 0
8, 11385, Note_on_c, 8, 68, 64
8, 11400, Note_on_c, 8, 68, 0
8, 11400, Note_on_c, 8, 66, 64
8, 11445, Note_on_c, 8, 66, 0
8, 11445, Note_on_c, 8, 68, 64
8, 11460, Note_on_c, 8, 68, 0
8, 11460, Note_on_c, 8, 66, 64
8, 11505, Note_on_c, 8, 66, 0
8, 11505, Note_on_c, 8, 69, 64
8, 11520, Note_on_c, 8, 69, 0
8, 11520, Note_on_c, 8, 68, 64
8, 11580, Note_on_c, 8, 68, 0
8, 11580, Note_on_c, 8, 68, 64
8, 11640, Note_on_c, 8, 68, 0
8, 11640, Note_on_c, 8, 68, 64
8, 11700, Note_on_c, 8, 68, 0
8, 11700, Note_on_c, 8, 68, 64
8, 11760, Note_on_c, 8, 68, 0
8, 11760, Note_on_c, 8, 68, 64
8, 11820, Note_on_c, 8, 68, 0
8, 11820, Note_on_c, 8, 72, 64
8, 11880, Note_on_c, 8, 72, 0
8, 11880, Note_on_c, 8, 73, 64
8, 11925, Note_on_c, 8, 73, 0
8, 11925, Note_on_c, 8, 75, 64
8, 11940, Note_on_c, 8, 75, 0
8, 11940, Note_on_c, 8, 73, 64
8, 11985, Note_on_c, 8, 73, 0
8, 11985, Note_on_c, 8, 75, 64
8, 12000, Note_on_c, 8, 75, 0
8, 12000, Note_on_c, 8, 73, 64
8, 12045, Note_on_c, 8, 73, 0
8, 12045, Note_on_c, 8, 75, 64
8, 12060, Note_on_c, 8, 75, 0
8, 12060, Note_on_c, 8, 73, 64
8, 12105, Note_on_c, 8, 73, 0
8, 12105, Note_on_c, 8, 75, 64
8, 12120, Note_on_c, 8, 75, 0
8, 12120, Note_on_c, 8, 73, 64
8, 12165, Note_on_c, 8, 73, 0
8, 12165, Note_on_c, 8, 75, 64
8, 12180, Note_on_c, 8, 75, 0
8, 12180, Note_on_c, 8, 73, 64
8, 12225, Note_on_c, 8, 73, 0
8, 12225, Note_on_c, 8, 75, 64
8, 12240, Note_on_c, 8, 75, 0
8, 12240, Note_on_c, 8, 66, 64
8, 12285, Note_on_c, 8, 66, 0
8, 12285, Note_on_c, 8, 68, 64
8, 12300, Note_on_c, 8, 68, 0
8, 12300, Note_on_c, 8, 66, 64
8, 12345, Note_on_c, 8, 66, 0
8, 12345, Note_on_c, 8, 68, 64
8, 12360, Note_on_c, 8, 68, 0
8, 12360, Note_on_c, 8, 66, 64
8, 12405, Note_on_c, 8, 66, 0
8, 12405, Note_on_c, 8, 68, 64
8, 12420, Note_on_c, 8, 68, 0
8, 12420, Note_on_c, 8, 66, 64
8, 12465, Note_on_c, 8, 66, 0
8, 12465, Note_on_c, 8, 68, 64
8, 12480, Note_on_c, 8, 68, 0
8, 12480, Note_on_c, 8, 66, 64
8, 12525, Note_on_c, 8, 66, 0
8, 12525, Note_on_c, 8, 68, 64
8, 12540, Note_on_c, 8, 68, 0
8, 12540, Note_on_c, 8, 66, 64
8, 12585, Note_on_c, 8, 66, 0
8, 12585, Note_on_c, 8, 68, 64
8, 12600, Note_on_c, 8, 68, 0
8, 12600, Note_on_c, 8, 66, 64
8, 12645, Note_on_c, 8, 66, 0
8, 12645, Note_on_c, 8, 68, 64
8, 12660, Note_on_c, 8, 68, 0
8, 12660, Note_on_c, 8, 66, 64
8, 12705, Note_on_c, 8, 66, 0
8, 12705, Note_on_c, 8, 68, 64
8, 12720, Note_on_c, 8, 68, 0
8, 12720, Note_on_c, 8, 66, 64
8, 12765, Note_on_c, 8, 66, 0
8, 12765, Note_on_c, 8, 68, 64
8, 12780, Note_on_c, 8, 68, 0
8, 12780, Note_on_c, 8, 66, 64
8, 12825, Note_on_c, 8, 66, 0
8, 12825, Note_on_c, 8, 68, 64
8, 12840, Note_on_c, 8, 68, 0
8, 12840, Note_on_c, 8, 66, 64
8, 12885, Note_on_c, 8, 66, 0
8, 12885, Note_on_c, 8, 68, 64
8, 12900, Note_on_c, 8, 68, 0
8, 12900, Note_on_c, 8, 66, 64
8, 12945, Note_on_c, 8, 66, 0
8, 12945, Note_on_c, 8, 69, 64
8, 12960, Note_on_c, 8, 69, 0
8, 12960, Note_on_c, 8, 68, 64
8, 13020, Note_on_c, 8, 68, 0
8, 13020, Note_on_c, 8, 68, 64
8, 13080, Note_on_c, 8, 68, 0
8, 13080, Note_on_c, 8, 68, 64
8, 13140, Note_on_c, 8, 68, 0
8, 13140, Note_on_c, 8, 68, 64
8, 13200, Note_on_c, 8, 68, 0
8, 13200, Note_on_c, 8, 68, 64
8, 13260, Note_on_c, 8, 68, 0
8, 13260, Note_on_c, 8, 72, 64
8, 13320, Note_on_c, 8, 72, 0
8, 13320, Note_on_c, 8, 73, 64
8, 13365, Note_on_c, 8, 73, 0
8, 13365, Note_on_c, 8, 75, 64
8, 13380, Note_on_c, 8, 75, 0
8, 13380, Note_on_c, 8, 73, 64
8, 13425, Note_on_c, 8, 73, 0
8, 13425, Note_on_c, 8, 75, 64
8, 13440, Note_on_c, 8, 75, 0
8, 13440, Note_on_c, 8, 73, 64
8, 13485, Note_on_c, 8, 73, 0
8, 13485, Note_on_c, 8, 75, 64
8, 13500, Note_on_c, 8, 75, 0
8, 13500, Note_on_c, 8, 73, 64
8, 13545, Note_on_c, 8, 73, 0
8, 13545, Note_on_c, 8, 75, 64
8, 13560, Note_on_c, 8, 75, 0
8, 13560, Note_on_c, 8, 73, 64
8, 13605, Note_on_c, 8, 73, 0
8, 13605, Note_on_c, 8, 75, 64
8, 13620, Note_on_c, 8, 75, 0
8, 13620, Note_on_c, 8, 73, 64
8, 13665, Note_on_c, 8, 73, 0
8, 13665, Note_on_c, 8, 75, 64
8, 13680, Note_on_c, 8, 75, 0
8, 13680, Note_on_c, 8, 61, 64
8, 13725, Note_on_c, 8, 61, 0
8, 13725, Note_on_c, 8, 63, 64
8, 13740, Note_on_c, 8, 63, 0
8, 13740, Note_on_c, 8, 61, 64
8, 13785, Note_on_c, 8, 61, 0
8, 13785, Note_on_c, 8, 63, 64
8, 13800, Note_on_c, 8, 63, 0
8, 13800, Note_on_c, 8, 61, 64
8, 13845, Note_on_c, 8, 61, 0
8, 13845, Note_on_c, 8, 63, 64
8, 13860, Note_on_c, 8, 63, 0
8, 13860, Note_on_c, 8, 61, 64
8, 13905, Note_on_c, 8, 61, 0
8, 13905, Note_on_c, 8, 63, 64
8, 13920, Note_on_c, 8, 63, 0
8, 13920, Note_on_c, 8, 61, 64
8, 13965, Note_on_c, 8, 61, 0
8, 13965, Note_on_c, 8, 63, 64
8, 13980, Note_on_c, 8, 63, 0
8, 13980, Note_on_c, 8, 61, 64
8, 14025, Note_on_c, 8, 61, 0
8, 14025, Note_on_c, 8, 63, 64
8, 14040, Note_on_c, 8, 63, 0
8, 14040, Note_on_c, 8, 61, 64
8, 14415, Note_on_c, 8, 61, 0
8, 14760, Program_c, 8, 0
8, 14760, Control_c, 8, 7, 100
8, 14760, Control_c, 8, 10, 64
8, 14760, Control_c, 8, 93, 0
8, 14760, Control_c, 8, 91, 40
8, 14760, End_track
9, 0, Start_track
9, 0, MIDI_port, 1
9, 0, Title_t, "Viola"
9, 0, Program_c, 3, 41
9, 0, Control_c, 3, 7, 60
9, 0, Control_c, 3, 10, 127
9, 0, Control_c, 3, 93, 0
9, 0, Control_c, 3, 91, 120
9, 1, Text_t, "Non Registered Parameter Numbers"
9, 1, Text_t, "For Roland SC-55 Vibrato"
9, 1, Text_t, "Set up NRPN for Vibrate Rate"
9, 2, Control_c, 3, 99, 1
9, 3, Control_c, 3, 98, 8
9, 4, Text_t, "Data Entry Command"
9, 4, Control_c, 3, 6, 68
9, 5, Text_t, "Set up NRPN for Vibrate Delay"
9, 6, Control_c, 3, 99, 1
9, 7, Control_c, 3, 98, 10
9, 8, Text_t, "Data Entry Command"
9, 8, Control_c, 3, 6, 14
9, 9, Text_t, "Set up NRPN for Vibrate Depth"
9, 10, Control_c, 3, 99, 1
9, 11, Control_c, 3, 98, 9
9, 12, Text_t, "Data Entry Command; Vibrato ON"
9, 12, Control_c, 3, 6, 70
9, 13, Pitch_bend_c, 3, 8192
9, 420, Note_on_c, 3, 61, 64
9, 475, Note_on_c, 3, 61, 0
9, 480, Note_on_c, 3, 61, 64
9, 595, Note_on_c, 3, 61, 0
9, 780, Note_on_c, 3, 61, 64
9, 835, Note_on_c, 3, 61, 0
9, 840, Note_on_c, 3, 61, 64
9, 955, Note_on_c, 3, 61, 0
9, 1140, Note_on_c, 3, 61, 64
9, 1195, Note_on_c, 3, 61, 0
9, 1200, Note_on_c, 3, 61, 64
9, 1315, Note_on_c, 3, 61, 0
9, 1500, Note_on_c, 3, 56, 64
9, 1555, Note_on_c, 3, 56, 0
9, 1560, Note_on_c, 3, 56, 64
9, 1675, Note_on_c, 3, 56, 0
9, 1860, Note_on_c, 3, 56, 64
9, 1915, Note_on_c, 3, 56, 0
9, 1920, Note_on_c, 3, 56, 64
9, 2035, Note_on_c, 3, 56, 0
9, 2220, Note_on_c, 3, 56, 64
9, 2275, Note_on_c, 3, 56, 0
9, 2280, Note_on_c, 3, 56, 64
9, 2395, Note_on_c, 3, 56, 0
9, 2580, Note_on_c, 3, 61, 64
9, 2635, Note_on_c, 3, 61, 0
9, 2640, Note_on_c, 3, 61, 64
9, 2755, Note_on_c, 3, 61, 0
9, 2940, Note_on_c, 3, 61, 64
9, 2995, Note_on_c, 3, 61, 0
9, 3000, Note_on_c, 3, 61, 64
9, 3115, Note_on_c, 3, 61, 0
9, 3300, Note_on_c, 3, 61, 64
9, 3355, Note_on_c, 3, 61, 0
9, 3360, Note_on_c, 3, 61, 64
9, 3475, Note_on_c, 3, 61, 0
9, 3660, Note_on_c, 3, 59, 64
9, 3715, Note_on_c, 3, 59, 0
9, 3720, Note_on_c, 3, 59, 64
9, 3835, Note_on_c, 3, 59, 0
9, 4020, Note_on_c, 3, 64, 64
9, 4075, Note_on_c, 3, 64, 0
9, 4080, Note_on_c, 3, 64, 64
9, 4195, Note_on_c, 3, 64, 0
9, 4380, Note_on_c, 3, 57, 64
9, 4435, Note_on_c, 3, 57, 0
9, 4440, Note_on_c, 3, 57, 64
9, 4555, Note_on_c, 3, 57, 0
9, 4740, Note_on_c, 3, 63, 64
9, 4795, Note_on_c, 3, 63, 0
9, 4800, Note_on_c, 3, 63, 64
9, 4915, Note_on_c, 3, 63, 0
9, 5100, Note_on_c, 3, 56, 64
9, 5155, Note_on_c, 3, 56, 0
9, 5160, Note_on_c, 3, 56, 64
9, 5275, Note_on_c, 3, 56, 0
9, 5460, Note_on_c, 3, 61, 64
9, 5515, Note_on_c, 3, 61, 0
9, 5520, Note_on_c, 3, 61, 64
9, 5635, Note_on_c, 3, 61, 0
9, 5820, Note_on_c, 3, 61, 64
9, 5875, Note_on_c, 3, 61, 0
9, 5880, Note_on_c, 3, 61, 64
9, 5995, Note_on_c, 3, 61, 0
9, 6180, Note_on_c, 3, 63, 64
9, 6235, Note_on_c, 3, 63, 0
9, 6240, Note_on_c, 3, 63, 64
9, 6355, Note_on_c, 3, 63, 0
9, 6540, Note_on_c, 3, 56, 64
9, 6595, Note_on_c, 3, 56, 0
9, 6600, Note_on_c, 3, 56, 64
9, 6715, Note_on_c, 3, 56, 0
9, 6900, Note_on_c, 3, 56, 64
9, 6955, Note_on_c, 3, 56, 0
9, 6960, Note_on_c, 3, 56, 64
9, 7075, Note_on_c, 3, 56, 0
9, 7260, Note_on_c, 3, 61, 64
9, 7315, Note_on_c, 3, 61, 0
9, 7320, Note_on_c, 3, 61, 64
9, 7435, Note_on_c, 3, 61, 0
9, 7620, Note_on_c, 3, 61, 64
9, 7675, Note_on_c, 3, 61, 0
9, 7680, Note_on_c, 3, 61, 64
9, 7795, Note_on_c, 3, 61, 0
9, 7980, Note_on_c, 3, 56, 64
9, 8035, Note_on_c, 3, 56, 0
9, 8040, Note_on_c, 3, 56, 64
9, 8155, Note_on_c, 3, 56, 0
9, 8340, Note_on_c, 3, 61, 64
9, 8395, Note_on_c, 3, 61, 0
9, 8400, Note_on_c, 3, 61, 64
9, 8515, Note_on_c, 3, 61, 0
9, 8700, Note_on_c, 3, 61, 64
9, 8755, Note_on_c, 3, 61, 0
9, 8760, Note_on_c, 3, 61, 64
9, 8875, Note_on_c, 3, 61, 0
9, 9060, Note_on_c, 3, 66, 64
9, 9115, Note_on_c, 3, 66, 0
9, 9120, Note_on_c, 3, 66, 64
9, 9235, Note_on_c, 3, 66, 0
9, 9420, Note_on_c, 3, 63, 64
9, 9475, Note_on_c, 3, 63, 0
9, 9480, Note_on_c, 3, 63, 64
9, 9595, Note_on_c, 3, 63, 0
9, 9780, Note_on_c, 3, 68, 64
9, 9835, Note_on_c, 3, 68, 0
9, 9840, Note_on_c, 3, 68, 64
9, 9955, Note_on_c, 3, 68, 0
9, 10140, Note_on_c, 3, 66, 64
9, 10195, Note_on_c, 3, 66, 0
9, 10200, Note_on_c, 3, 66, 64
9, 10315, Note_on_c, 3, 66, 0
9, 10500, Note_on_c, 3, 61, 64
9, 10555, Note_on_c, 3, 61, 0
9, 10560, Note_on_c, 3, 61, 64
9, 10675, Note_on_c, 3, 61, 0
9, 10860, Note_on_c, 3, 66, 64
9, 10915, Note_on_c, 3, 66, 0
9, 10920, Note_on_c, 3, 66, 64
9, 11035, Note_on_c, 3, 66, 0
9, 11220, Note_on_c, 3, 56, 64
9, 11275, Note_on_c, 3, 56, 0
9, 11280, Note_on_c, 3, 56, 64
9, 11395, Note_on_c, 3, 56, 0
9, 11580, Note_on_c, 3, 56, 64
9, 11635, Note_on_c, 3, 56, 0
9, 11640, Note_on_c, 3, 56, 64
9, 11755, Note_on_c, 3, 56, 0
9, 11940, Note_on_c, 3, 61, 64
9, 11995, Note_on_c, 3, 61, 0
9, 12000, Note_on_c, 3, 61, 64
9, 12115, Note_on_c, 3, 61, 0
9, 12300, Note_on_c, 3, 57, 64
9, 12355, Note_on_c, 3, 57, 0
9, 12360, Note_on_c, 3, 57, 64
9, 12475, Note_on_c, 3, 57, 0
9, 12660, Note_on_c, 3, 56, 64
9, 12715, Note_on_c, 3, 56, 0
9, 12720, Note_on_c, 3, 56, 64
9, 12835, Note_on_c, 3, 56, 0
9, 13020, Note_on_c, 3, 56, 64
9, 13075, Note_on_c, 3, 56, 0
9, 13080, Note_on_c, 3, 56, 64
9, 13195, Note_on_c, 3, 56, 0
9, 13380, Note_on_c, 3, 61, 64
9, 13435, Note_on_c, 3, 61, 0
9, 13440, Note_on_c, 3, 61, 64
9, 13555, Note_on_c, 3, 61, 0
9, 13740, Note_on_c, 3, 61, 64
9, 13795, Note_on_c, 3, 61, 0
9, 13800, Note_on_c, 3, 61, 64
9, 13915, Note_on_c, 3, 61, 0
9, 14040, Note_on_c, 3, 61, 64
9, 14415, Note_on_c, 3, 61, 0
9, 14761, Program_c, 3, 0
9, 14762, Control_c, 3, 7, 100
9, 14763, Control_c, 3, 10, 64
9, 14764, Control_c, 3, 93, 0
9, 14765, Control_c, 3, 91, 40
9, 14766, Control_c, 3, 99, 1
9, 14767, Control_c, 3, 98, 8
9, 14768, Control_c, 3, 6, 64
9, 14769, Control_c, 3, 99, 1
9, 14770, Control_c, 3, 98, 10
9, 14771, Control_c, 3, 6, 64
9, 14772, Control_c, 3, 99, 1
9, 14773, Control_c, 3, 98, 9
9, 14774, Control_c, 3, 6, 64
9, 14775, Pitch_bend_c, 3, 8192
9, 14775, End_track
10, 0, Start_track
10, 0, MIDI_port, 1
10, 0, Title_t, "Cello"
10, 0, Program_c, 4, 42
10, 0, Control_c, 4, 7, 60
10, 0, Control_c, 4, 10, 0
10, 0, Control_c, 4, 93, 0
10, 0, Control_c, 4, 91, 120
10, 1, Text_t, "Non Registered Parameter Numbers"
10, 1, Text_t, "For Roland SC-55 Vibrato"
10, 1, Text_t, "Set up NRPN for Vibrate Rate"
10, 2, Control_c, 4, 99, 1
10, 3, Control_c, 4, 98, 8
10, 4, Text_t, "Data Entry Command"
10, 4, Control_c, 4, 6, 68
10, 5, Text_t, "Set up NRPN for Vibrate Delay"
10, 6, Control_c, 4, 99, 1
10, 7, Control_c, 4, 98, 10
10, 8, Text_t, "Data Entry Command"
10, 8, Control_c, 4, 6, 14
10, 9, Text_t, "Set up NRPN for Vibrate Depth"
10, 10, Control_c, 4, 99, 1
10, 11, Control_c, 4, 98, 9
10, 12, Text_t, "Data Entry Command; Vibrato ON"
10, 12, Control_c, 4, 6, 70
10, 13, Pitch_bend_c, 4, 8192
10, 420, Note_on_c, 4, 49, 64
10, 475, Note_on_c, 4, 49, 0
10, 480, Note_on_c, 4, 49, 64
10, 595, Note_on_c, 4, 49, 0
10, 780, Note_on_c, 4, 49, 64
10, 835, Note_on_c, 4, 49, 0
10, 840, Note_on_c, 4, 49, 64
10, 955, Note_on_c, 4, 49, 0
10, 1140, Note_on_c, 4, 49, 64
10, 1195, Note_on_c, 4, 49, 0
10, 1200, Note_on_c, 4, 49, 64
10, 1315, Note_on_c, 4, 49, 0
10, 1500, Note_on_c, 4, 44, 64
10, 1555, Note_on_c, 4, 44, 0
10, 1560, Note_on_c, 4, 44, 64
10, 1675, Note_on_c, 4, 44, 0
10, 1860, Note_on_c, 4, 44, 64
10, 1915, Note_on_c, 4, 44, 0
10, 1920, Note_on_c, 4, 44, 64
10, 2035, Note_on_c, 4, 44, 0
10, 2220, Note_on_c, 4, 44, 64
10, 2275, Note_on_c, 4, 44, 0
10, 2280, Note_on_c, 4, 44, 64
10, 2395, Note_on_c, 4, 44, 0
10, 2580, Note_on_c, 4, 49, 64
10, 2635, Note_on_c, 4, 49, 0
10, 2640, Note_on_c, 4, 49, 64
10, 2755, Note_on_c, 4, 49, 0
10, 2940, Note_on_c, 4, 49, 64
10, 2995, Note_on_c, 4, 49, 0
10, 3000, Note_on_c, 4, 49, 64
10, 3115, Note_on_c, 4, 49, 0
10, 3300, Note_on_c, 4, 49, 64
10, 3355, Note_on_c, 4, 49, 0
10, 3360, Note_on_c, 4, 49, 64
10, 3475, Note_on_c, 4, 49, 0
10, 3660, Note_on_c, 4, 47, 64
10, 3715, Note_on_c, 4, 47, 0
10, 3720, Note_on_c, 4, 47, 64
10, 3835, Note_on_c, 4, 47, 0
10, 4020, Note_on_c, 4, 52, 64
10, 4075, Note_on_c, 4, 52, 0
10, 4080, Note_on_c, 4, 52, 64
10, 4195, Note_on_c, 4, 52, 0
10, 4380, Note_on_c, 4, 45, 64
10, 4435, Note_on_c, 4, 45, 0
10, 4440, Note_on_c, 4, 45, 64
10, 4555, Note_on_c, 4, 45, 0
10, 4740, Note_on_c, 4, 51, 64
10, 4795, Note_on_c, 4, 51, 0
10, 4800, Note_on_c, 4, 51, 64
10, 4915, Note_on_c, 4, 51, 0
10, 5100, Note_on_c, 4, 44, 64
10, 5155, Note_on_c, 4, 44, 0
10, 5160, Note_on_c, 4, 44, 64
10, 5275, Note_on_c, 4, 44, 0
10, 5460, Note_on_c, 4, 49, 64
10, 5515, Note_on_c, 4, 49, 0
10, 5520, Note_on_c, 4, 49, 64
10, 5635, Note_on_c, 4, 49, 0
10, 5820, Note_on_c, 4, 49, 64
10, 5875, Note_on_c, 4, 49, 0
10, 5880, Note_on_c, 4, 49, 64
10, 5995, Note_on_c, 4, 49, 0
10, 6180, Note_on_c, 4, 51, 64
10, 6235, Note_on_c, 4, 51, 0
10, 6240, Note_on_c, 4, 51, 64
10, 6355, Note_on_c, 4, 51, 0
10, 6540, Note_on_c, 4, 44, 64
10, 6595, Note_on_c, 4, 44, 0
10, 6600, Note_on_c, 4, 44, 64
10, 6715, Note_on_c, 4, 44, 0
10, 6900, Note_on_c, 4, 44, 64
10, 6955, Note_on_c, 4, 44, 0
10, 6960, Note_on_c, 4, 44, 64
10, 7075, Note_on_c, 4, 44, 0
10, 7260, Note_on_c, 4, 49, 64
10, 7315, Note_on_c, 4, 49, 0
10, 7320, Note_on_c, 4, 49, 64
10, 7435, Note_on_c, 4, 49, 0
10, 7620, Note_on_c, 4, 49, 64
10, 7675, Note_on_c, 4, 49, 0
10, 7680, Note_on_c, 4, 49, 64
10, 7795, Note_on_c, 4, 49, 0
10, 7980, Note_on_c, 4, 44, 64
10, 8035, Note_on_c, 4, 44, 0
10, 8040, Note_on_c, 4, 44, 64
10, 8155, Note_on_c, 4, 44, 0
10, 8340, Note_on_c, 4, 49, 64
10, 8395, Note_on_c, 4, 49, 0
10, 8400, Note_on_c, 4, 49, 64
10, 8515, Note_on_c, 4, 49, 0
10, 8700, Note_on_c, 4, 49, 64
10, 8755, Note_on_c, 4, 49, 0
10, 8760, Note_on_c, 4, 49, 64
10, 8875, Note_on_c, 4, 49, 0
10, 9060, Note_on_c, 4, 54, 64
10, 9115, Note_on_c, 4, 54, 0
10, 9120, Note_on_c, 4, 54, 64
10, 9235, Note_on_c, 4, 54, 0
10, 9420, Note_on_c, 4, 51, 64
10, 9475, Note_on_c, 4, 51, 0
10, 9480, Note_on_c, 4, 51, 64
10, 9595, Note_on_c, 4, 51, 0
10, 9780, Note_on_c, 4, 56, 64
10, 9835, Note_on_c, 4, 56, 0
10, 9840, Note_on_c, 4, 56, 64
10, 9955, Note_on_c, 4, 56, 0
10, 10140, Note_on_c, 4, 54, 64
10, 10195, Note_on_c, 4, 54, 0
10, 10200, Note_on_c, 4, 54, 64
10, 10315, Note_on_c, 4, 54, 0
10, 10500, Note_on_c, 4, 49, 64
10, 10555, Note_on_c, 4, 49, 0
10, 10560, Note_on_c, 4, 49, 64
10, 10675, Note_on_c, 4, 49, 0
10, 10860, Note_on_c, 4, 54, 64
10, 10915, Note_on_c, 4, 54, 0
10, 10920, Note_on_c, 4, 54, 64
10, 11035, Note_on_c, 4, 54, 0
10, 11220, Note_on_c, 4, 44, 64
10, 11275, Note_on_c, 4, 44, 0
10, 11280, Note_on_c, 4, 44, 64
10, 11395, Note_on_c, 4, 44, 0
10, 11580, Note_on_c, 4, 44, 64
10, 11635, Note_on_c, 4, 44, 0
10, 11640, Note_on_c, 4, 44, 64
10, 11755, Note_on_c, 4, 44, 0
10, 11940, Note_on_c, 4, 49, 64
10, 11995, Note_on_c, 4, 49, 0
10, 12000, Note_on_c, 4, 49, 64
10, 12115, Note_on_c, 4, 49, 0
10, 12300, Note_on_c, 4, 45, 64
10, 12355, Note_on_c, 4, 45, 0
10, 12360, Note_on_c, 4, 45, 64
10, 12475, Note_on_c, 4, 45, 0
10, 12660, Note_on_c, 4, 44, 64
10, 12715, Note_on_c, 4, 44, 0
10, 12720, Note_on_c, 4, 44, 64
10, 12835, Note_on_c, 4, 44, 0
10, 13020, Note_on_c, 4, 44, 64
10, 13075, Note_on_c, 4, 44, 0
10, 13080, Note_on_c, 4, 44, 64
10, 13195, Note_on_c, 4, 44, 0
10, 13380, Note_on_c, 4, 49, 64
10, 13435, Note_on_c, 4, 49, 0
10, 13440, Note_on_c, 4, 49, 64
10, 13555, Note_on_c, 4, 49, 0
10, 13740, Note_on_c, 4, 49, 64
10, 13795, Note_on_c, 4, 49, 0
10, 13800, Note_on_c, 4, 49, 64
10, 13915, Note_on_c, 4, 49, 0
10, 14040, Note_on_c, 4, 49, 64
10, 14415, Note_on_c, 4, 49, 0
10, 14761, Program_c, 4, 0
10, 14762, Control_c, 4, 7, 100
10, 14763, Control_c, 4, 10, 64
10, 14764, Control_c, 4, 93, 0
10, 14765, Control_c, 4, 91, 40
10, 14766, Control_c, 4, 99, 1
10, 14767, Control_c, 4, 98, 8
10, 14768, Control_c, 4, 6, 64
10, 14769, Control_c, 4, 99, 1
10, 14770, Control_c, 4, 98, 10
10, 14771, Control_c, 4, 6, 64
10, 14772, Control_c, 4, 99, 1
10, 14773, Control_c, 4, 98, 9
10, 14774, Control_c, 4, 6, 64
10, 14775, Pitch_bend_c, 4, 8192
10, 14775, End_track
11, 0, Start_track
11, 0, MIDI_port, 1
11, 0, Title_t, "Contrabass"
11, 0, Program_c, 10, 43
11, 0, Control_c, 10, 7, 55
11, 0, Control_c, 10, 10, 64
11, 0, Control_c, 10, 93, 0
11, 0, Control_c, 10, 91, 120
11, 1, Text_t, "Non Registered Parameter Numbers"
11, 1, Text_t, "For Roland SC-55 Vibrato"
11, 1, Text_t, "Set up NRPN for Vibrate Rate"
11, 2, Control_c, 10, 99, 1
11, 3, Control_c, 10, 98, 8
11, 4, Text_t, "Data Entry Command"
11, 4, Control_c, 10, 6, 68
11, 5, Text_t, "Set up NRPN for Vibrate Delay"
11, 6, Control_c, 10, 99, 1
11, 7, Control_c, 10, 98, 10
11, 8, Text_t, "Data Entry Command"
11, 8, Control_c, 10, 6, 14
11, 9, Text_t, "Set up NRPN for Vibrate Depth"
11, 10, Control_c, 10, 99, 1
11, 11, Control_c, 10, 98, 9
11, 12, Text_t, "Data Entry Command; Vibrato ON"
11, 12, Control_c, 10, 6, 70
11, 13, Pitch_bend_c, 10, 8192
11, 420, Note_on_c, 10, 37, 64
11, 475, Note_on_c, 10, 37, 0
11, 480, Note_on_c, 10, 37, 64
11, 595, Note_on_c, 10, 37, 0
11, 780, Note_on_c, 10, 37, 64
11, 835, Note_on_c, 10, 37, 0
11, 840, Note_on_c, 10, 37, 64
11, 955, Note_on_c, 10, 37, 0
11, 1140, Note_on_c, 10, 37, 64
11, 1195, Note_on_c, 10, 37, 0
11, 1200, Note_on_c, 10, 37, 64
11, 1315, Note_on_c, 10, 37, 0
11, 1500, Note_on_c, 10, 32, 64
11, 1555, Note_on_c, 10, 32, 0
11, 1560, Note_on_c, 10, 32, 64
11, 1675, Note_on_c, 10, 32, 0
11, 1860, Note_on_c, 10, 32, 64
11, 1915, Note_on_c, 10, 32, 0
11, 1920, Note_on_c, 10, 32, 64
11, 2035, Note_on_c, 10, 32, 0
11, 2220, Note_on_c, 10, 32, 64
11, 2275, Note_on_c, 10, 32, 0
11, 2280, Note_on_c, 10, 32, 64
11, 2395, Note_on_c, 10, 32, 0
11, 2580, Note_on_c, 10, 37, 64
11, 2635, Note_on_c, 10, 37, 0
11, 2640, Note_on_c, 10, 37, 64
11, 2755, Note_on_c, 10, 37, 0
11, 2940, Note_on_c, 10, 37, 64
11, 2995, Note_on_c, 10, 37, 0
11, 3000, Note_on_c, 10, 37, 64
11, 3115, Note_on_c, 10, 37, 0
11, 3300, Note_on_c, 10, 37, 64
11, 3355, Note_on_c, 10, 37, 0
11, 3360, Note_on_c, 10, 37, 64
11, 3475, Note_on_c, 10, 37, 0
11, 3660, Note_on_c, 10, 35, 64
11, 3715, Note_on_c, 10, 35, 0
11, 3720, Note_on_c, 10, 35, 64
11, 3835, Note_on_c, 10, 35, 0
11, 4020, Note_on_c, 10, 40, 64
11, 4075, Note_on_c, 10, 40, 0
11, 4080, Note_on_c, 10, 40, 64
11, 4195, Note_on_c, 10, 40, 0
11, 4380, Note_on_c, 10, 33, 64
11, 4435, Note_on_c, 10, 33, 0
11, 4440, Note_on_c, 10, 33, 64
11, 4555, Note_on_c, 10, 33, 0
11, 4740, Note_on_c, 10, 39, 64
11, 4795, Note_on_c, 10, 39, 0
11, 4800, Note_on_c, 10, 39, 64
11, 4915, Note_on_c, 10, 39, 0
11, 5100, Note_on_c, 10, 32, 64
11, 5155, Note_on_c, 10, 32, 0
11, 5160, Note_on_c, 10, 32, 64
11, 5275, Note_on_c, 10, 32, 0
11, 5460, Note_on_c, 10, 37, 64
11, 5515, Note_on_c, 10, 37, 0
11, 5520, Note_on_c, 10, 37, 64
11, 5635, Note_on_c, 10, 37, 0
11, 5820, Note_on_c, 10, 37, 64
11, 5875, Note_on_c, 10, 37, 0
11, 5880, Note_on_c, 10, 37, 64
11, 5995, Note_on_c, 10, 37, 0
11, 6180, Note_on_c, 10, 39, 64
11, 6235, Note_on_c, 10, 39, 0
11, 6240, Note_on_c, 10, 39, 64
11, 6355, Note_on_c, 10, 39, 0
11, 6540, Note_on_c, 10, 32, 64
11, 6595, Note_on_c, 10, 32, 0
11, 6600, Note_on_c, 10, 32, 64
11, 6715, Note_on_c, 10, 32, 0
11, 6900, Note_on_c, 10, 32, 64
11, 6955, Note_on_c, 10, 32, 0
11, 6960, Note_on_c, 10, 32, 64
11, 7075, Note_on_c, 10, 32, 0
11, 7260, Note_on_c, 10, 37, 64
11, 7315, Note_on_c, 10, 37, 0
11, 7320, Note_on_c, 10, 37, 64
11, 7435, Note_on_c, 10, 37, 0
11, 7620, Note_on_c, 10, 37, 64
11, 7675, Note_on_c, 10, 37, 0
11, 7680, Note_on_c, 10, 37, 64
11, 7795, Note_on_c, 10, 37, 0
11, 7980, Note_on_c, 10, 32, 64
11, 8035, Note_on_c, 10, 32, 0
11, 8040, Note_on_c, 10, 32, 64
11, 8155, Note_on_c, 10, 32, 0
11, 8340, Note_on_c, 10, 37, 64
11, 8395, Note_on_c, 10, 37, 0
11, 8400, Note_on_c, 10, 37, 64
11, 8515, Note_on_c, 10, 37, 0
11, 8700, Note_on_c, 10, 37, 64
11, 8755, Note_on_c, 10, 37, 0
11, 8760, Note_on_c, 10, 37, 64
11, 8875, Note_on_c, 10, 37, 0
11, 9060, Note_on_c, 10, 42, 64
11, 9115, Note_on_c, 10, 42, 0
11, 9120, Note_on_c, 10, 42, 64
11, 9235, Note_on_c, 10, 42, 0
11, 9420, Note_on_c, 10, 39, 64
11, 9475, Note_on_c, 10, 39, 0
11, 9480, Note_on_c, 10, 39, 64
11, 9595, Note_on_c, 10, 39, 0
11, 9780, Note_on_c, 10, 44, 64
11, 9835, Note_on_c, 10, 44, 0
11, 9840, Note_on_c, 10, 44, 64
11, 9955, Note_on_c, 10, 44, 0
11, 10140, Note_on_c, 10, 42, 64
11, 10195, Note_on_c, 10, 42, 0
11, 10200, Note_on_c, 10, 42, 64
11, 10315, Note_on_c, 10, 42, 0
11, 10500, Note_on_c, 10, 37, 64
11, 10555, Note_on_c, 10, 37, 0
11, 10560, Note_on_c, 10, 37, 64
11, 10675, Note_on_c, 10, 37, 0
11, 10860, Note_on_c, 10, 42, 64
11, 10915, Note_on_c, 10, 42, 0
11, 10920, Note_on_c, 10, 42, 64
11, 11035, Note_on_c, 10, 42, 0
11, 11220, Note_on_c, 10, 32, 64
11, 11275, Note_on_c, 10, 32, 0
11, 11280, Note_on_c, 10, 32, 64
11, 11395, Note_on_c, 10, 32, 0
11, 11580, Note_on_c, 10, 32, 64
11, 11635, Note_on_c, 10, 32, 0
11, 11640, Note_on_c, 10, 32, 64
11, 11755, Note_on_c, 10, 32, 0
11, 11940, Note_on_c, 10, 37, 64
11, 11995, Note_on_c, 10, 37, 0
11, 12000, Note_on_c, 10, 37, 64
11, 12115, Note_on_c, 10, 37, 0
11, 12300, Note_on_c, 10, 33, 64
11, 12355, Note_on_c, 10, 33, 0
11, 12360, Note_on_c, 10, 33, 64
11, 12475, Note_on_c, 10, 33, 0
11, 12660, Note_on_c, 10, 32, 64
11, 12715, Note_on_c, 10, 32, 0
11, 12720, Note_on_c, 10, 32, 64
11, 12835, Note_on_c, 10, 32, 0
11, 13020, Note_on_c, 10, 32, 64
11, 13075, Note_on_c, 10, 32, 0
11, 13080, Note_on_c, 10, 32, 64
11, 13195, Note_on_c, 10, 32, 0
11, 13380, Note_on_c, 10, 37, 64
11, 13435, Note_on_c, 10, 37, 0
11, 13440, Note_on_c, 10, 37, 64
11, 13555, Note_on_c, 10, 37, 0
11, 13740, Note_on_c, 10, 37, 64
11, 13795, Note_on_c, 10, 37, 0
11, 13800, Note_on_c, 10, 37, 64
11, 13915, Note_on_c, 10, 37, 0
11, 14040, Note_on_c, 10, 37, 64
11, 14415, Note_on_c, 10, 37, 0
11, 14761, Program_c, 10, 0
11, 14762, Control_c, 10, 7, 100
11, 14763, Control_c, 10, 10, 64
11, 14764, Control_c, 10, 93, 0
11, 14765, Control_c, 10, 91, 40
11, 14766, Control_c, 10, 99, 1
11, 14767, Control_c, 10, 98, 8
11, 14768, Control_c, 10, 6, 64
11, 14769, Control_c, 10, 99, 1
11, 14770, Control_c, 10, 98, 10
11, 14771, Control_c, 10, 6, 64
11, 14772, Control_c, 10, 99, 1
11, 14773, Control_c, 10, 98, 9
11, 14774, Control_c, 10, 6, 64
11, 14775, Pitch_bend_c, 10, 8192
11, 14775, End_track
12, 0, Start_track
12, 0, MIDI_port, 0
12, 0, Title_t, "+=+=+=+=+=+="
12, 0, End_track
13, 0, Start_track
13, 0, MIDI_port, 0
13, 0, Title_t, "Antonio"
13, 0, End_track
14, 0, Start_track
14, 0, MIDI_port, 0
14, 0, Title_t, "Vivaldi's"
14, 0, End_track
15, 0, Start_track
15, 0, MIDI_port, 0
15, 0, Title_t, "Four Seasons"
15, 0, End_track
16, 0, Start_track
16, 0, MIDI_port, 0
16, 0, Title_t, "Spring"
16, 0, End_track
17, 0, Start_track
17, 0, MIDI_port, 0
17, 0, Title_t, "Opus 8, No.1"
17, 0, End_track
18, 0, Start_track
18, 0, MIDI_port, 0
18, 0, Title_t, "Largo"
18, 0, End_track
19, 0, Start_track
19, 0, MIDI_port, 0
19, 0, Title_t, "+=+=+=+=+=+="
19, 0, End_track
20, 0, Start_track
20, 0, MIDI_port, 0
20, 0, Title_t, "This Midi File"
20, 0, End_track
21, 0, Start_track
21, 0, MIDI_port, 0
21, 0, Title_t, "(C) Copyright 1996"
21, 0, End_track
22, 0, Start_track
22, 0, MIDI_port, 0
22, 0, Title_t, "by Neil B. Sheldon Sr."
22, 0, End_track
23, 0, Start_track
23, 0, MIDI_port, 0
23, 0, Title_t, "neil@netzone.com"
23, 0, End_track
24, 0, Start_track
24, 0, MIDI_port, 0
24, 0, Title_t, "may be freely"
24, 0, End_track
25, 0, Start_track
25, 0, MIDI_port, 0
25, 0, Title_t, "distributed"
25, 0, End_track
26, 0, Start_track
26, 0, MIDI_port, 0
26, 0, Title_t, "for"
26, 0, End_track
27, 0, Start_track
27, 0, MIDI_port, 0
27, 0, Title_t, "non-commercial"
27, 0, End_track
28, 0, Start_track
28, 0, MIDI_port, 0
28, 0, Title_t, "non-monetary"
28, 0, End_track
29, 0, Start_track
29, 0, MIDI_port, 0
29, 0, Title_t, "use only."
29, 0, End_track
30, 0, Start_track
30, 0, MIDI_port, 0
30, 0, Title_t, "+=+=+=+=+=+="
30, 0, End_track
31, 0, Start_track
31, 0, MIDI_port, 0
31, 0, Title_t, "For Roland SC-55"
31, 0, End_track
32, 0, Start_track
32, 0, MIDI_port, 0
32, 0, Title_t, "+=+=+=+=+=+="
32, 0, End_track
0, 0, End_of_file
