0, 0, Header, 1, 26, 120
1, 0, Start_track
1, 0, Sequencer_specific, 3, 0, 0, 65
1, 0, Time_signature, 3, 2, 24, 8
1, 0, Key_signature, -5, "major"
1, 0, Tempo, 697674
1, 1562, Tempo, 731707
1, 1800, Tempo, 789473
1, 2160, Tempo, 697674
1, 5640, Tempo, 731707
1, 5642, Tempo, 714285
1, 5646, Tempo, 697674
1, 5650, Tempo, 681818
1, 5656, Tempo, 674157
1, 5658, Tempo, 666666
1, 5664, Tempo, 659340
1, 5668, Tempo, 652173
1, 5678, Tempo, 645161
1, 5682, Tempo, 638297
1, 5692, Tempo, 625000
1, 5706, Tempo, 618556
1, 5708, Tempo, 612244
1, 5714, Tempo, 606060
1, 5718, Tempo, 600000
1, 5726, Tempo, 618556
1, 5732, Tempo, 625000
1, 5738, Tempo, 631578
1, 5742, Tempo, 645161
1, 5744, Tempo, 652173
1, 5748, Tempo, 666666
1, 5750, Tempo, 674157
1, 5754, Tempo, 681818
1, 5758, Tempo, 689655
1, 5760, Tempo, 697674
1, 10082, Tempo, 714285
1, 11882, Tempo, 681818
1, 12240, Tempo, 659340
1, 12600, Tempo, 631578
1, 12960, Tempo, 618556
1, 13320, Tempo, 594059
1, 13678, Tempo, 582524
1, 13920, Tempo, 594059
1, 14042, Tempo, 652173
1, 14160, Tempo, 731707
1, 14168, Tempo, 740740
1, 14174, Tempo, 750000
1, 14182, Tempo, 769230
1, 14188, Tempo, 779220
1, 14190, Tempo, 789473
1, 14194, Tempo, 810810
1, 14198, Tempo, 821917
1, 14200, Tempo, 833333
1, 14206, Tempo, 857142
1, 14214, Tempo, 869565
1, 14216, Tempo, 882352
1, 14224, Tempo, 909090
1, 14238, Tempo, 937500
1, 14244, Tempo, 952380
1, 14246, Tempo, 967741
1, 14252, Tempo, 983606
1, 14256, Tempo, 1000000
1, 14268, Tempo, 1034482
1, 14278, Tempo, 1052631
1, 14280, Tempo, 1034482
1, 14280, End_track
2, 0, Start_track
2, 0, MIDI_port, 0
2, 0, Title_t, "Corni"
2, 0, Program_c, 4, 61
2, 0, Control_c, 4, 7, 127
2, 0, Control_c, 4, 10, 80
2, 541, Control_c, 4, 121, 0
2, 541, Control_c, 4, 7, 127
2, 541, Control_c, 4, 91, 110
2, 541, Control_c, 4, 93, 90
2, 541, Note_on_c, 4, 77, 119
2, 599, Note_on_c, 4, 73, 111
2, 610, Note_on_c, 4, 77, 0
2, 658, Note_on_c, 4, 72, 107
2, 671, Note_on_c, 4, 73, 0
2, 719, Note_on_c, 4, 70, 111
2, 722, Note_on_c, 4, 72, 0
2, 730, Control_c, 4, 11, 100
2, 740, Control_c, 4, 11, 102
2, 760, Control_c, 4, 11, 103
2, 770, Control_c, 4, 11, 104
2, 780, Control_c, 4, 11, 106
2, 790, Control_c, 4, 11, 112
2, 800, Control_c, 4, 11, 113
2, 808, Note_on_c, 4, 70, 0
2, 810, Control_c, 4, 11, 114
2, 820, Control_c, 4, 11, 116
2, 830, Control_c, 4, 11, 122
2, 840, Note_on_c, 4, 70, 123
2, 840, Note_on_c, 4, 82, 123
2, 840, Control_c, 4, 11, 124
2, 850, Control_c, 4, 11, 126
2, 860, Control_c, 4, 11, 127
2, 899, Note_on_c, 4, 77, 107
2, 899, Note_on_c, 4, 70, 0
2, 929, Note_on_c, 4, 82, 0
2, 960, Note_on_c, 4, 73, 100
2, 969, Note_on_c, 4, 77, 0
2, 1020, Note_on_c, 4, 72, 96
2, 1028, Note_on_c, 4, 73, 0
2, 1079, Note_on_c, 4, 72, 0
2, 1080, Note_on_c, 4, 70, 109
2, 1080, Control_c, 4, 11, 104
2, 1100, Control_c, 4, 11, 101
2, 1110, Control_c, 4, 11, 103
2, 1120, Control_c, 4, 11, 105
2, 1130, Control_c, 4, 11, 107
2, 1140, Control_c, 4, 11, 108
2, 1150, Control_c, 4, 11, 110
2, 1160, Control_c, 4, 11, 112
2, 1170, Control_c, 4, 11, 115
2, 1180, Control_c, 4, 11, 118
2, 1181, Note_on_c, 4, 70, 0
2, 1190, Control_c, 4, 11, 121
2, 1200, Note_on_c, 4, 70, 127
2, 1200, Note_on_c, 4, 82, 127
2, 1200, Control_c, 4, 11, 126
2, 1210, Control_c, 4, 11, 127
2, 1259, Note_on_c, 4, 70, 0
2, 1260, Note_on_c, 4, 77, 118
2, 1289, Note_on_c, 4, 82, 0
2, 1320, Note_on_c, 4, 73, 113
2, 1324, Note_on_c, 4, 77, 0
2, 1380, Note_on_c, 4, 72, 107
2, 1386, Note_on_c, 4, 73, 0
2, 1438, Note_on_c, 4, 72, 0
2, 1440, Note_on_c, 4, 70, 106
2, 1440, Control_c, 4, 11, 108
2, 1450, Control_c, 4, 11, 109
2, 1460, Control_c, 4, 11, 111
2, 1470, Control_c, 4, 11, 112
2, 1480, Control_c, 4, 11, 113
2, 1490, Control_c, 4, 11, 117
2, 1500, Control_c, 4, 11, 118
2, 1510, Control_c, 4, 11, 119
2, 1520, Control_c, 4, 11, 120
2, 1530, Control_c, 4, 11, 121
2, 1540, Control_c, 4, 11, 123
2, 1542, Note_on_c, 4, 70, 0
2, 1560, Note_on_c, 4, 70, 123
2, 1560, Control_c, 4, 11, 127
2, 1590, Control_c, 4, 11, 114
2, 1600, Control_c, 4, 11, 115
2, 1610, Control_c, 4, 11, 116
2, 1620, Control_c, 4, 11, 117
2, 1630, Control_c, 4, 11, 118
2, 1640, Control_c, 4, 11, 120
2, 1650, Control_c, 4, 11, 122
2, 1660, Control_c, 4, 11, 124
2, 1670, Control_c, 4, 11, 126
2, 1679, Note_on_c, 4, 70, 0
2, 1680, Note_on_c, 4, 68, 113
2, 1680, Control_c, 4, 11, 127
2, 1710, Control_c, 4, 11, 112
2, 1720, Control_c, 4, 11, 113
2, 1730, Control_c, 4, 11, 115
2, 1740, Control_c, 4, 11, 116
2, 1750, Control_c, 4, 11, 117
2, 1760, Control_c, 4, 11, 120
2, 1770, Control_c, 4, 11, 121
2, 1790, Control_c, 4, 11, 125
2, 1800, Note_on_c, 4, 66, 114
2, 1800, Control_c, 4, 11, 126
2, 1804, Note_on_c, 4, 68, 0
2, 1830, Control_c, 4, 11, 112
2, 1850, Control_c, 4, 11, 114
2, 1870, Control_c, 4, 11, 116
2, 1890, Control_c, 4, 11, 118
2, 1900, Control_c, 4, 11, 122
2, 1910, Control_c, 4, 11, 124
2, 1919, Note_on_c, 4, 66, 0
2, 1920, Note_on_c, 4, 67, 101
2, 1920, Control_c, 4, 11, 127
2, 1950, Control_c, 4, 11, 116
2, 1960, Control_c, 4, 11, 117
2, 1980, Control_c, 4, 11, 120
2, 1990, Control_c, 4, 11, 122
2, 2000, Control_c, 4, 11, 123
2, 2010, Control_c, 4, 11, 125
2, 2020, Control_c, 4, 11, 127
2, 2030, Control_c, 4, 11, 116
2, 2039, Note_on_c, 4, 67, 0
2, 2040, Note_on_c, 4, 63, 108
2, 2060, Control_c, 4, 11, 118
2, 2070, Control_c, 4, 11, 119
2, 2080, Control_c, 4, 11, 120
2, 2100, Control_c, 4, 11, 123
2, 2110, Control_c, 4, 11, 124
2, 2120, Control_c, 4, 11, 125
2, 2130, Control_c, 4, 11, 126
2, 2150, Control_c, 4, 11, 127
2, 2159, Note_on_c, 4, 63, 0
2, 2160, Note_on_c, 4, 68, 115
2, 2160, Note_on_c, 4, 68, 115
2, 2190, Control_c, 4, 11, 115
2, 2200, Control_c, 4, 11, 117
2, 2220, Control_c, 4, 11, 119
2, 2230, Control_c, 4, 11, 120
2, 2240, Control_c, 4, 11, 121
2, 2250, Control_c, 4, 11, 123
2, 2260, Control_c, 4, 11, 125
2, 2263, Note_on_c, 4, 68, 0
2, 2263, Note_on_c, 4, 68, 0
2, 2270, Control_c, 4, 11, 126
2, 2280, Control_c, 4, 11, 127
2, 2620, Control_c, 4, 11, 83
2, 2630, Control_c, 4, 11, 84
2, 2638, Note_on_c, 4, 68, 52
2, 2640, Control_c, 4, 11, 86
2, 2650, Control_c, 4, 11, 87
2, 2660, Control_c, 4, 11, 88
2, 2670, Control_c, 4, 11, 90
2, 2690, Control_c, 4, 11, 93
2, 2700, Control_c, 4, 11, 95
2, 2710, Control_c, 4, 11, 96
2, 2720, Control_c, 4, 11, 98
2, 2730, Control_c, 4, 11, 101
2, 2740, Control_c, 4, 11, 102
2, 2750, Control_c, 4, 11, 103
2, 2760, Control_c, 4, 11, 104
2, 2770, Control_c, 4, 11, 106
2, 2790, Control_c, 4, 11, 107
2, 2800, Control_c, 4, 11, 108
2, 2810, Control_c, 4, 11, 110
2, 2820, Control_c, 4, 11, 111
2, 2830, Control_c, 4, 11, 112
2, 2840, Control_c, 4, 11, 114
2, 2870, Control_c, 4, 11, 115
2, 2880, Control_c, 4, 11, 116
2, 2890, Control_c, 4, 11, 117
2, 2900, Control_c, 4, 11, 118
2, 2930, Control_c, 4, 11, 119
2, 2940, Control_c, 4, 11, 120
2, 2970, Control_c, 4, 11, 122
2, 3000, Control_c, 4, 11, 123
2, 3010, Control_c, 4, 11, 124
2, 3040, Control_c, 4, 11, 125
2, 3050, Control_c, 4, 11, 126
2, 3290, Control_c, 4, 11, 125
2, 3360, Control_c, 4, 11, 124
2, 3410, Control_c, 4, 11, 123
2, 3420, Control_c, 4, 11, 122
2, 3440, Control_c, 4, 11, 120
2, 3450, Control_c, 4, 11, 118
2, 3460, Control_c, 4, 11, 110
2, 3470, Control_c, 4, 11, 106
2, 3480, Control_c, 4, 11, 103
2, 3490, Control_c, 4, 11, 99
2, 3500, Control_c, 4, 11, 96
2, 3510, Control_c, 4, 11, 95
2, 3520, Control_c, 4, 11, 92
2, 3530, Control_c, 4, 11, 90
2, 3540, Control_c, 4, 11, 88
2, 3550, Control_c, 4, 11, 86
2, 3560, Control_c, 4, 11, 84
2, 3570, Control_c, 4, 11, 80
2, 3598, Note_on_c, 4, 70, 57
2, 3610, Control_c, 4, 11, 108
2, 3616, Note_on_c, 4, 68, 0
2, 3620, Control_c, 4, 11, 109
2, 3630, Control_c, 4, 11, 110
2, 3640, Control_c, 4, 11, 111
2, 3650, Control_c, 4, 11, 112
2, 3660, Control_c, 4, 11, 113
2, 3670, Control_c, 4, 11, 114
2, 3680, Control_c, 4, 11, 116
2, 3690, Control_c, 4, 11, 119
2, 3700, Control_c, 4, 11, 120
2, 3710, Control_c, 4, 11, 122
2, 3720, Control_c, 4, 11, 123
2, 3730, Control_c, 4, 11, 125
2, 3740, Control_c, 4, 11, 126
2, 3780, Control_c, 4, 11, 125
2, 3800, Control_c, 4, 11, 124
2, 3810, Control_c, 4, 11, 123
2, 3820, Control_c, 4, 11, 122
2, 3830, Control_c, 4, 11, 120
2, 3850, Control_c, 4, 11, 119
2, 3860, Control_c, 4, 11, 118
2, 3870, Control_c, 4, 11, 116
2, 3900, Control_c, 4, 11, 113
2, 3910, Control_c, 4, 11, 112
2, 3930, Control_c, 4, 11, 110
2, 3940, Control_c, 4, 11, 109
2, 3950, Control_c, 4, 11, 108
2, 3970, Control_c, 4, 11, 106
2, 3980, Control_c, 4, 11, 105
2, 3990, Control_c, 4, 11, 104
2, 4010, Control_c, 4, 11, 102
2, 4020, Control_c, 4, 11, 100
2, 4040, Control_c, 4, 11, 99
2, 4050, Control_c, 4, 11, 97
2, 4060, Control_c, 4, 11, 95
2, 4070, Control_c, 4, 11, 94
2, 4090, Control_c, 4, 11, 92
2, 4100, Control_c, 4, 11, 90
2, 4110, Control_c, 4, 11, 88
2, 4130, Control_c, 4, 11, 85
2, 4140, Control_c, 4, 11, 84
2, 4150, Control_c, 4, 11, 82
2, 4170, Control_c, 4, 11, 80
2, 4180, Control_c, 4, 11, 78
2, 4200, Control_c, 4, 11, 77
2, 4210, Control_c, 4, 11, 75
2, 4220, Control_c, 4, 11, 74
2, 4230, Control_c, 4, 11, 72
2, 4250, Control_c, 4, 11, 70
2, 4260, Control_c, 4, 11, 69
2, 4270, Control_c, 4, 11, 68
2, 4290, Control_c, 4, 11, 67
2, 4300, Control_c, 4, 11, 66
2, 4320, Note_on_c, 4, 72, 68
2, 4320, Note_on_c, 4, 70, 0
2, 4340, Control_c, 4, 11, 64
2, 4350, Control_c, 4, 11, 68
2, 4360, Control_c, 4, 11, 72
2, 4370, Control_c, 4, 11, 96
2, 4380, Control_c, 4, 11, 104
2, 4390, Control_c, 4, 11, 107
2, 4400, Control_c, 4, 11, 109
2, 4410, Control_c, 4, 11, 112
2, 4420, Control_c, 4, 11, 116
2, 4430, Control_c, 4, 11, 119
2, 4440, Control_c, 4, 11, 121
2, 4450, Control_c, 4, 11, 125
2, 4460, Control_c, 4, 11, 126
2, 4530, Control_c, 4, 11, 125
2, 4540, Control_c, 4, 11, 124
2, 4550, Control_c, 4, 11, 123
2, 4570, Control_c, 4, 11, 121
2, 4580, Control_c, 4, 11, 120
2, 4590, Control_c, 4, 11, 118
2, 4610, Control_c, 4, 11, 117
2, 4620, Control_c, 4, 11, 116
2, 4640, Control_c, 4, 11, 114
2, 4660, Control_c, 4, 11, 112
2, 4680, Control_c, 4, 11, 111
2, 4690, Control_c, 4, 11, 110
2, 4700, Control_c, 4, 11, 109
2, 4720, Control_c, 4, 11, 108
2, 4730, Control_c, 4, 11, 107
2, 4740, Control_c, 4, 11, 106
2, 4750, Control_c, 4, 11, 105
2, 4760, Control_c, 4, 11, 104
2, 4770, Control_c, 4, 11, 103
2, 4780, Control_c, 4, 11, 102
2, 4790, Control_c, 4, 11, 101
2, 4800, Control_c, 4, 11, 100
2, 4810, Control_c, 4, 11, 99
2, 4820, Control_c, 4, 11, 98
2, 4830, Control_c, 4, 11, 97
2, 4840, Control_c, 4, 11, 96
2, 4860, Control_c, 4, 11, 95
2, 4870, Control_c, 4, 11, 94
2, 4880, Control_c, 4, 11, 93
2, 4890, Control_c, 4, 11, 92
2, 4900, Control_c, 4, 11, 90
2, 4910, Control_c, 4, 11, 89
2, 4930, Control_c, 4, 11, 88
2, 4940, Control_c, 4, 11, 86
2, 4950, Control_c, 4, 11, 85
2, 4960, Control_c, 4, 11, 84
2, 4970, Control_c, 4, 11, 83
2, 4980, Control_c, 4, 11, 82
2, 4990, Control_c, 4, 11, 81
2, 5000, Control_c, 4, 11, 80
2, 5020, Control_c, 4, 11, 78
2, 5030, Control_c, 4, 11, 77
2, 5040, Note_on_c, 4, 73, 74
2, 5040, Control_c, 4, 11, 76
2, 5040, Note_on_c, 4, 72, 0
2, 5060, Control_c, 4, 11, 74
2, 5070, Control_c, 4, 11, 73
2, 5080, Control_c, 4, 11, 72
2, 5090, Control_c, 4, 11, 71
2, 5100, Control_c, 4, 11, 70
2, 5110, Control_c, 4, 11, 68
2, 5140, Control_c, 4, 11, 63
2, 5258, Note_on_c, 4, 73, 0
2, 5276, Note_on_c, 4, 73, 78
2, 5400, Note_on_c, 4, 72, 84
2, 5404, Note_on_c, 4, 73, 0
2, 5757, Note_on_c, 4, 72, 0
2, 5760, Note_on_c, 4, 73, 90
2, 6088, Note_on_c, 4, 73, 0
2, 6120, Note_on_c, 4, 73, 88
2, 6479, Note_on_c, 4, 73, 0
2, 6480, Note_on_c, 4, 75, 91
2, 6840, Note_on_c, 4, 78, 93
2, 6846, Note_on_c, 4, 75, 0
2, 7167, Note_on_c, 4, 78, 0
2, 7200, Note_on_c, 4, 77, 86
2, 7320, Note_on_c, 4, 74, 78
2, 7320, Note_on_c, 4, 77, 0
2, 7440, Note_on_c, 4, 75, 86
2, 7440, Note_on_c, 4, 74, 0
2, 7558, Note_on_c, 4, 72, 76
2, 7565, Note_on_c, 4, 75, 0
2, 7680, Note_on_c, 4, 73, 81
2, 7687, Note_on_c, 4, 72, 0
2, 7799, Note_on_c, 4, 73, 0
2, 7800, Note_on_c, 4, 73, 79
2, 7894, Note_on_c, 4, 73, 0
2, 7915, Note_on_c, 4, 73, 79
2, 8280, Note_on_c, 4, 75, 77
2, 8285, Note_on_c, 4, 73, 0
2, 8480, Note_on_c, 4, 75, 0
2, 8520, Note_on_c, 4, 75, 75
2, 8640, Note_on_c, 4, 73, 82
2, 8648, Note_on_c, 4, 75, 0
2, 8765, Note_on_c, 4, 73, 0
2, 9003, Note_on_c, 4, 68, 57
2, 10052, Note_on_c, 4, 68, 0
2, 10120, Note_on_c, 4, 70, 60
2, 10802, Note_on_c, 4, 72, 66
2, 10809, Note_on_c, 4, 70, 0
2, 11491, Note_on_c, 4, 72, 0
2, 11521, Note_on_c, 4, 73, 72
2, 11880, Note_on_c, 4, 71, 73
2, 11880, Note_on_c, 4, 73, 0
2, 11999, Note_on_c, 4, 71, 0
2, 12000, Note_on_c, 4, 72, 66
2, 12089, Note_on_c, 4, 72, 0
2, 12240, Note_on_c, 4, 73, 72
2, 12329, Note_on_c, 4, 73, 0
2, 12360, Note_on_c, 4, 73, 70
2, 12449, Note_on_c, 4, 73, 0
2, 12600, Note_on_c, 4, 74, 74
2, 12719, Note_on_c, 4, 74, 0
2, 12720, Note_on_c, 4, 75, 78
2, 12820, Note_on_c, 4, 75, 0
2, 12960, Note_on_c, 4, 76, 72
2, 13079, Note_on_c, 4, 76, 0
2, 13080, Note_on_c, 4, 77, 81
2, 13173, Note_on_c, 4, 77, 0
2, 13173, End_track
3, 0, Start_track
3, 0, MIDI_port, 0
3, 0, Title_t, "Trombone"
3, 0, Program_c, 6, 63
3, 0, Control_c, 6, 7, 127
3, 0, Control_c, 6, 10, 40
3, 541, Note_on_c, 6, 65, 109
3, 541, Control_c, 6, 121, 0
3, 541, Control_c, 6, 7, 127
3, 541, Control_c, 6, 91, 110
3, 541, Control_c, 6, 93, 90
3, 599, Note_on_c, 6, 61, 101
3, 610, Note_on_c, 6, 65, 0
3, 658, Note_on_c, 6, 60, 97
3, 671, Note_on_c, 6, 61, 0
3, 711, Control_c, 6, 11, 108
3, 719, Note_on_c, 6, 58, 101
3, 721, Control_c, 6, 11, 109
3, 722, Note_on_c, 6, 60, 0
3, 741, Control_c, 6, 11, 111
3, 751, Control_c, 6, 11, 113
3, 761, Control_c, 6, 11, 114
3, 771, Control_c, 6, 11, 116
3, 781, Control_c, 6, 11, 118
3, 791, Control_c, 6, 11, 120
3, 801, Control_c, 6, 11, 122
3, 811, Control_c, 6, 11, 124
3, 819, Note_on_c, 6, 58, 0
3, 821, Control_c, 6, 11, 126
3, 831, Control_c, 6, 11, 127
3, 840, Note_on_c, 6, 44, 114
3, 840, Control_c, 6, 121, 0
3, 840, Control_c, 6, 7, 120
3, 840, Control_c, 6, 91, 100
3, 840, Control_c, 6, 93, 20
3, 900, Note_on_c, 6, 65, 105
3, 929, Note_on_c, 6, 44, 0
3, 960, Note_on_c, 6, 61, 101
3, 960, Note_on_c, 6, 65, 0
3, 1019, Note_on_c, 6, 61, 0
3, 1020, Note_on_c, 6, 60, 97
3, 1071, Control_c, 6, 11, 108
3, 1079, Note_on_c, 6, 60, 0
3, 1080, Note_on_c, 6, 58, 101
3, 1081, Control_c, 6, 11, 109
3, 1091, Control_c, 6, 11, 110
3, 1101, Control_c, 6, 11, 112
3, 1111, Control_c, 6, 11, 114
3, 1121, Control_c, 6, 11, 115
3, 1131, Control_c, 6, 11, 118
3, 1141, Control_c, 6, 11, 120
3, 1161, Control_c, 6, 11, 122
3, 1171, Control_c, 6, 11, 123
3, 1180, Note_on_c, 6, 58, 0
3, 1181, Control_c, 6, 11, 126
3, 1200, Note_on_c, 6, 43, 110
3, 1260, Note_on_c, 6, 65, 110
3, 1289, Note_on_c, 6, 43, 0
3, 1319, Note_on_c, 6, 65, 0
3, 1320, Note_on_c, 6, 61, 105
3, 1379, Note_on_c, 6, 61, 0
3, 1380, Note_on_c, 6, 60, 100
3, 1439, Note_on_c, 6, 60, 0
3, 1440, Note_on_c, 6, 58, 116
3, 1441, Control_c, 6, 11, 108
3, 1451, Control_c, 6, 11, 109
3, 1461, Control_c, 6, 11, 110
3, 1481, Control_c, 6, 11, 113
3, 1491, Control_c, 6, 11, 115
3, 1501, Control_c, 6, 11, 116
3, 1511, Control_c, 6, 11, 118
3, 1521, Control_c, 6, 11, 120
3, 1531, Control_c, 6, 11, 123
3, 1541, Control_c, 6, 11, 124
3, 1551, Control_c, 6, 11, 126
3, 1559, Note_on_c, 6, 58, 0
3, 1560, Note_on_c, 6, 70, 108
3, 1561, Control_c, 6, 11, 105
3, 1571, Control_c, 6, 11, 108
3, 1591, Control_c, 6, 11, 109
3, 1601, Control_c, 6, 11, 110
3, 1611, Control_c, 6, 11, 112
3, 1631, Control_c, 6, 11, 114
3, 1651, Control_c, 6, 11, 116
3, 1661, Control_c, 6, 11, 117
3, 1671, Control_c, 6, 11, 118
3, 1679, Note_on_c, 6, 70, 0
3, 1680, Note_on_c, 6, 68, 114
3, 1691, Control_c, 6, 11, 106
3, 1701, Control_c, 6, 11, 108
3, 1711, Control_c, 6, 11, 111
3, 1721, Control_c, 6, 11, 114
3, 1731, Control_c, 6, 11, 116
3, 1741, Control_c, 6, 11, 117
3, 1751, Control_c, 6, 11, 118
3, 1761, Control_c, 6, 11, 122
3, 1781, Control_c, 6, 11, 127
3, 1791, Control_c, 6, 11, 107
3, 1799, Note_on_c, 6, 68, 0
3, 1800, Note_on_c, 6, 70, 112
3, 1801, Control_c, 6, 11, 108
3, 1811, Control_c, 6, 11, 110
3, 1821, Control_c, 6, 11, 112
3, 1831, Control_c, 6, 11, 116
3, 1841, Control_c, 6, 11, 117
3, 1851, Control_c, 6, 11, 119
3, 1861, Control_c, 6, 11, 121
3, 1871, Control_c, 6, 11, 123
3, 1881, Control_c, 6, 11, 124
3, 1891, Control_c, 6, 11, 125
3, 1901, Control_c, 6, 11, 126
3, 1919, Note_on_c, 6, 70, 0
3, 1920, Note_on_c, 6, 70, 110
3, 1921, Control_c, 6, 11, 107
3, 1931, Control_c, 6, 11, 108
3, 1941, Control_c, 6, 11, 113
3, 1951, Control_c, 6, 11, 115
3, 1961, Control_c, 6, 11, 116
3, 1971, Control_c, 6, 11, 118
3, 1981, Control_c, 6, 11, 121
3, 1991, Control_c, 6, 11, 122
3, 2001, Control_c, 6, 11, 124
3, 2021, Control_c, 6, 11, 126
3, 2031, Control_c, 6, 11, 108
3, 2039, Note_on_c, 6, 70, 0
3, 2040, Note_on_c, 6, 72, 118
3, 2051, Control_c, 6, 11, 109
3, 2061, Control_c, 6, 11, 110
3, 2071, Control_c, 6, 11, 112
3, 2091, Control_c, 6, 11, 114
3, 2101, Control_c, 6, 11, 120
3, 2111, Control_c, 6, 11, 122
3, 2121, Control_c, 6, 11, 124
3, 2131, Control_c, 6, 11, 126
3, 2141, Control_c, 6, 11, 100
3, 2159, Note_on_c, 6, 72, 0
3, 2160, Note_on_c, 6, 73, 124
3, 2161, Control_c, 6, 11, 102
3, 2181, Control_c, 6, 11, 105
3, 2191, Control_c, 6, 11, 110
3, 2201, Control_c, 6, 11, 111
3, 2211, Control_c, 6, 11, 116
3, 2221, Control_c, 6, 11, 118
3, 2231, Control_c, 6, 11, 122
3, 2241, Control_c, 6, 11, 124
3, 2251, Control_c, 6, 11, 126
3, 2251, Control_c, 6, 121, 0
3, 2279, Note_on_c, 6, 73, 0
3, 2279, End_track
4, 0, Start_track
4, 0, MIDI_port, 0
4, 0, Title_t, "Violin1"
4, 0, Program_c, 2, 48
4, 0, Control_c, 2, 7, 127
4, 0, Control_c, 2, 10, 110
4, 839, Control_c, 2, 121, 0
4, 839, Control_c, 2, 7, 127
4, 839, Control_c, 2, 91, 110
4, 839, Control_c, 2, 93, 60
4, 839, Note_on_c, 2, 73, 101
4, 840, Note_on_c, 2, 82, 101
4, 928, Note_on_c, 2, 73, 0
4, 929, Note_on_c, 2, 82, 0
4, 1199, Note_on_c, 2, 82, 108
4, 1199, Note_on_c, 2, 73, 108
4, 1213, Control_c, 2, 2, 1
4, 1219, Control_c, 2, 2, 7
4, 1222, Control_c, 2, 2, 12
4, 1224, Control_c, 2, 2, 17
4, 1228, Control_c, 2, 2, 22
4, 1230, Control_c, 2, 2, 31
4, 1234, Control_c, 2, 2, 36
4, 1239, Control_c, 2, 2, 42
4, 1256, Control_c, 2, 2, 32
4, 1260, Control_c, 2, 2, 21
4, 1262, Control_c, 2, 2, 11
4, 1265, Control_c, 2, 2, 0
4, 1288, Note_on_c, 2, 73, 0
4, 1288, Note_on_c, 2, 82, 0
4, 1561, Note_on_c, 2, 82, 122
4, 1679, Note_on_c, 2, 80, 120
4, 1680, Note_on_c, 2, 82, 0
4, 1798, Note_on_c, 2, 80, 0
4, 1799, Note_on_c, 2, 82, 117
4, 1918, Note_on_c, 2, 82, 0
4, 1921, Note_on_c, 2, 82, 117
4, 2039, Note_on_c, 2, 84, 118
4, 2040, Note_on_c, 2, 82, 0
4, 2158, Note_on_c, 2, 84, 0
4, 2159, Note_on_c, 2, 85, 123
4, 2278, Note_on_c, 2, 85, 0
4, 2698, Note_on_c, 2, 68, 122
4, 2758, Note_on_c, 2, 65, 114
4, 2765, Note_on_c, 2, 68, 0
4, 2818, Note_on_c, 2, 63, 107
4, 2829, Note_on_c, 2, 65, 0
4, 2878, Note_on_c, 2, 61, 112
4, 2885, Note_on_c, 2, 63, 0
4, 2996, Note_on_c, 2, 77, 127
4, 2997, Note_on_c, 2, 61, 0
4, 3010, Control_c, 2, 11, 102
4, 3020, Control_c, 2, 11, 103
4, 3030, Control_c, 2, 11, 104
4, 3040, Control_c, 2, 11, 105
4, 3050, Control_c, 2, 11, 106
4, 3070, Control_c, 2, 11, 107
4, 3080, Control_c, 2, 11, 111
4, 3090, Control_c, 2, 11, 112
4, 3100, Control_c, 2, 11, 113
4, 3110, Control_c, 2, 11, 116
4, 3120, Control_c, 2, 11, 121
4, 3130, Control_c, 2, 11, 123
4, 3140, Control_c, 2, 11, 124
4, 3150, Control_c, 2, 11, 127
4, 3175, Note_on_c, 2, 77, 0
4, 3177, Note_on_c, 2, 75, 126
4, 3237, Note_on_c, 2, 78, 127
4, 3250, Control_c, 2, 11, 99
4, 3254, Note_on_c, 2, 75, 0
4, 3270, Control_c, 2, 11, 101
4, 3280, Control_c, 2, 11, 103
4, 3290, Control_c, 2, 11, 105
4, 3300, Control_c, 2, 11, 106
4, 3320, Control_c, 2, 11, 109
4, 3330, Control_c, 2, 11, 110
4, 3340, Control_c, 2, 11, 113
4, 3360, Control_c, 2, 11, 115
4, 3370, Control_c, 2, 11, 121
4, 3380, Control_c, 2, 11, 123
4, 3390, Control_c, 2, 11, 125
4, 3400, Control_c, 2, 11, 126
4, 3410, Control_c, 2, 11, 127
4, 3420, Note_on_c, 2, 77, 120
4, 3420, Note_on_c, 2, 78, 0
4, 3481, Note_on_c, 2, 77, 0
4, 3482, Note_on_c, 2, 72, 108
4, 3544, Note_on_c, 2, 73, 106
4, 3556, Note_on_c, 2, 72, 0
4, 3600, Note_on_c, 2, 70, 114
4, 3603, Note_on_c, 2, 73, 0
4, 3717, Note_on_c, 2, 75, 124
4, 3726, Note_on_c, 2, 70, 0
4, 3747, Control_c, 2, 11, 107
4, 3757, Control_c, 2, 11, 110
4, 3767, Control_c, 2, 11, 112
4, 3777, Control_c, 2, 11, 114
4, 3797, Control_c, 2, 11, 117
4, 3807, Control_c, 2, 11, 119
4, 3817, Control_c, 2, 11, 120
4, 3827, Control_c, 2, 11, 122
4, 3837, Control_c, 2, 11, 123
4, 3847, Control_c, 2, 11, 124
4, 3857, Control_c, 2, 11, 126
4, 3867, Control_c, 2, 11, 127
4, 3895, Note_on_c, 2, 77, 107
4, 3903, Note_on_c, 2, 75, 0
4, 3954, Note_on_c, 2, 77, 0
4, 3958, Note_on_c, 2, 70, 126
4, 3987, Control_c, 2, 11, 102
4, 3997, Control_c, 2, 11, 103
4, 4007, Control_c, 2, 11, 106
4, 4017, Control_c, 2, 11, 108
4, 4027, Control_c, 2, 11, 110
4, 4037, Control_c, 2, 11, 114
4, 4047, Control_c, 2, 11, 118
4, 4057, Control_c, 2, 11, 120
4, 4067, Control_c, 2, 11, 122
4, 4077, Control_c, 2, 11, 126
4, 4140, Note_on_c, 2, 75, 121
4, 4153, Note_on_c, 2, 70, 0
4, 4200, Note_on_c, 2, 72, 110
4, 4215, Note_on_c, 2, 75, 0
4, 4260, Note_on_c, 2, 70, 106
4, 4265, Note_on_c, 2, 72, 0
4, 4320, Note_on_c, 2, 68, 110
4, 4324, Note_on_c, 2, 70, 0
4, 4442, Note_on_c, 2, 75, 127
4, 4445, Note_on_c, 2, 68, 0
4, 4450, Control_c, 2, 11, 98
4, 4460, Control_c, 2, 11, 99
4, 4470, Control_c, 2, 11, 100
4, 4480, Control_c, 2, 11, 101
4, 4490, Control_c, 2, 11, 102
4, 4500, Control_c, 2, 11, 104
4, 4510, Control_c, 2, 11, 106
4, 4520, Control_c, 2, 11, 109
4, 4530, Control_c, 2, 11, 115
4, 4540, Control_c, 2, 11, 118
4, 4550, Control_c, 2, 11, 119
4, 4557, Control_c, 2, 11, 126
4, 4607, Note_on_c, 2, 77, 105
4, 4616, Note_on_c, 2, 75, 0
4, 4677, Note_on_c, 2, 77, 0
4, 4680, Note_on_c, 2, 80, 123
4, 4697, Control_c, 2, 11, 108
4, 4717, Control_c, 2, 11, 111
4, 4727, Control_c, 2, 11, 113
4, 4737, Control_c, 2, 11, 115
4, 4747, Control_c, 2, 11, 116
4, 4757, Control_c, 2, 11, 119
4, 4767, Control_c, 2, 11, 122
4, 4777, Control_c, 2, 11, 126
4, 4797, Control_c, 2, 11, 127
4, 4860, Note_on_c, 2, 75, 105
4, 4864, Note_on_c, 2, 80, 0
4, 4919, Note_on_c, 2, 75, 0
4, 4920, Note_on_c, 2, 75, 107
4, 4980, Note_on_c, 2, 77, 111
4, 4988, Note_on_c, 2, 75, 0
4, 5040, Note_on_c, 2, 80, 127
4, 5056, Note_on_c, 2, 77, 0
4, 5057, Control_c, 2, 11, 104
4, 5067, Control_c, 2, 11, 109
4, 5077, Control_c, 2, 11, 114
4, 5097, Control_c, 2, 11, 117
4, 5107, Control_c, 2, 11, 119
4, 5117, Control_c, 2, 11, 121
4, 5127, Control_c, 2, 11, 122
4, 5137, Control_c, 2, 11, 124
4, 5147, Control_c, 2, 11, 126
4, 5157, Control_c, 2, 11, 127
4, 5212, Note_on_c, 2, 77, 115
4, 5224, Note_on_c, 2, 80, 0
4, 5280, Note_on_c, 2, 82, 125
4, 5284, Note_on_c, 2, 77, 0
4, 5340, Note_on_c, 2, 80, 123
4, 5346, Note_on_c, 2, 82, 0
4, 5401, Note_on_c, 2, 75, 123
4, 5417, Control_c, 2, 11, 108
4, 5417, Note_on_c, 2, 80, 0
4, 5427, Control_c, 2, 11, 109
4, 5437, Control_c, 2, 11, 112
4, 5447, Control_c, 2, 11, 114
4, 5457, Control_c, 2, 11, 115
4, 5467, Control_c, 2, 11, 117
4, 5477, Control_c, 2, 11, 118
4, 5487, Control_c, 2, 11, 120
4, 5497, Control_c, 2, 11, 121
4, 5507, Control_c, 2, 11, 123
4, 5517, Control_c, 2, 11, 125
4, 5527, Control_c, 2, 11, 127
4, 5550, Note_on_c, 2, 72, 120
4, 5550, Note_on_c, 2, 75, 0
4, 5596, Note_on_c, 2, 70, 114
4, 5602, Note_on_c, 2, 72, 0
4, 5637, Note_on_c, 2, 68, 114
4, 5641, Note_on_c, 2, 70, 0
4, 5678, Note_on_c, 2, 66, 110
4, 5686, Note_on_c, 2, 68, 0
4, 5718, Note_on_c, 2, 63, 106
4, 5720, Note_on_c, 2, 66, 0
4, 5759, Note_on_c, 2, 63, 0
4, 5760, Note_on_c, 2, 61, 119
4, 5878, Note_on_c, 2, 77, 126
4, 5879, Note_on_c, 2, 61, 0
4, 5890, Control_c, 2, 11, 112
4, 5900, Control_c, 2, 11, 113
4, 5910, Control_c, 2, 11, 114
4, 5930, Control_c, 2, 11, 115
4, 5940, Control_c, 2, 11, 116
4, 5950, Control_c, 2, 11, 118
4, 5970, Control_c, 2, 11, 120
4, 5980, Control_c, 2, 11, 123
4, 5990, Control_c, 2, 11, 124
4, 6064, Note_on_c, 2, 77, 0
4, 6066, Note_on_c, 2, 75, 119
4, 6118, Note_on_c, 2, 78, 127
4, 6119, Note_on_c, 2, 75, 0
4, 6130, Control_c, 2, 11, 98
4, 6140, Control_c, 2, 11, 101
4, 6150, Control_c, 2, 11, 103
4, 6160, Control_c, 2, 11, 107
4, 6170, Control_c, 2, 11, 111
4, 6180, Control_c, 2, 11, 114
4, 6190, Control_c, 2, 11, 116
4, 6200, Control_c, 2, 11, 119
4, 6210, Control_c, 2, 11, 123
4, 6220, Control_c, 2, 11, 126
4, 6240, Control_c, 2, 11, 127
4, 6297, Note_on_c, 2, 78, 0
4, 6300, Note_on_c, 2, 77, 118
4, 6359, Note_on_c, 2, 77, 0
4, 6361, Note_on_c, 2, 72, 119
4, 6416, Note_on_c, 2, 73, 113
4, 6420, Note_on_c, 2, 72, 0
4, 6480, Note_on_c, 2, 70, 119
4, 6482, Note_on_c, 2, 73, 0
4, 6598, Note_on_c, 2, 75, 127
4, 6599, Note_on_c, 2, 70, 0
4, 6620, Control_c, 2, 11, 112
4, 6630, Control_c, 2, 11, 113
4, 6650, Control_c, 2, 11, 114
4, 6660, Control_c, 2, 11, 116
4, 6680, Control_c, 2, 11, 118
4, 6690, Control_c, 2, 11, 120
4, 6710, Control_c, 2, 11, 124
4, 6763, Note_on_c, 2, 77, 113
4, 6766, Note_on_c, 2, 75, 0
4, 6835, Note_on_c, 2, 80, 127
4, 6842, Note_on_c, 2, 77, 0
4, 6850, Control_c, 2, 11, 96
4, 6860, Control_c, 2, 11, 101
4, 6870, Control_c, 2, 11, 104
4, 6880, Control_c, 2, 11, 107
4, 6890, Control_c, 2, 11, 111
4, 6900, Control_c, 2, 11, 116
4, 6910, Control_c, 2, 11, 120
4, 6920, Control_c, 2, 11, 122
4, 6930, Control_c, 2, 11, 124
4, 6940, Control_c, 2, 11, 126
4, 6950, Control_c, 2, 11, 127
4, 7020, Note_on_c, 2, 78, 107
4, 7037, Note_on_c, 2, 80, 0
4, 7078, Note_on_c, 2, 77, 115
4, 7084, Note_on_c, 2, 78, 0
4, 7130, Note_on_c, 2, 78, 113
4, 7139, Note_on_c, 2, 77, 0
4, 7198, Note_on_c, 2, 77, 105
4, 7206, Note_on_c, 2, 78, 0
4, 7257, Note_on_c, 2, 77, 0
4, 7258, Note_on_c, 2, 72, 101
4, 7316, Note_on_c, 2, 77, 97
4, 7320, Note_on_c, 2, 72, 0
4, 7378, Note_on_c, 2, 74, 94
4, 7389, Note_on_c, 2, 77, 0
4, 7437, Note_on_c, 2, 75, 103
4, 7437, Note_on_c, 2, 74, 0
4, 7496, Note_on_c, 2, 75, 0
4, 7499, Note_on_c, 2, 70, 99
4, 7557, Note_on_c, 2, 75, 99
4, 7558, Note_on_c, 2, 70, 0
4, 7620, Note_on_c, 2, 72, 98
4, 7629, Note_on_c, 2, 75, 0
4, 7677, Note_on_c, 2, 73, 110
4, 7690, Note_on_c, 2, 72, 0
4, 7739, Note_on_c, 2, 65, 107
4, 7766, Note_on_c, 2, 73, 0
4, 7797, Note_on_c, 2, 70, 101
4, 7798, Note_on_c, 2, 65, 0
4, 7859, Note_on_c, 2, 72, 83
4, 7860, Note_on_c, 2, 70, 0
4, 7917, Note_on_c, 2, 68, 89
4, 7923, Note_on_c, 2, 72, 0
4, 7979, Note_on_c, 2, 70, 94
4, 7985, Note_on_c, 2, 68, 0
4, 8037, Note_on_c, 2, 70, 0
4, 8039, Note_on_c, 2, 72, 96
4, 8099, Note_on_c, 2, 73, 98
4, 8109, Note_on_c, 2, 72, 0
4, 8159, Note_on_c, 2, 75, 105
4, 8175, Note_on_c, 2, 73, 0
4, 8219, Note_on_c, 2, 77, 119
4, 8228, Note_on_c, 2, 75, 0
4, 8279, Note_on_c, 2, 75, 124
4, 8286, Note_on_c, 2, 77, 0
4, 8338, Note_on_c, 2, 75, 0
4, 8340, Note_on_c, 2, 77, 125
4, 8399, Note_on_c, 2, 77, 0
4, 8400, Note_on_c, 2, 70, 119
4, 8440, Control_c, 2, 11, 106
4, 8450, Control_c, 2, 11, 108
4, 8460, Control_c, 2, 11, 110
4, 8470, Control_c, 2, 11, 111
4, 8480, Control_c, 2, 11, 112
4, 8490, Control_c, 2, 11, 114
4, 8500, Control_c, 2, 11, 119
4, 8510, Control_c, 2, 11, 121
4, 8520, Control_c, 2, 11, 123
4, 8530, Control_c, 2, 11, 125
4, 8540, Control_c, 2, 11, 126
4, 8560, Control_c, 2, 11, 127
4, 8580, Note_on_c, 2, 72, 94
4, 8607, Note_on_c, 2, 70, 0
4, 8640, Note_on_c, 2, 73, 102
4, 8650, Control_c, 2, 11, 96
4, 8654, Note_on_c, 2, 72, 0
4, 8660, Control_c, 2, 11, 101
4, 8670, Control_c, 2, 11, 103
4, 8680, Control_c, 2, 11, 105
4, 8690, Control_c, 2, 11, 107
4, 8700, Control_c, 2, 11, 109
4, 8710, Control_c, 2, 11, 111
4, 8720, Control_c, 2, 11, 113
4, 8729, Note_on_c, 2, 73, 0
4, 8730, Control_c, 2, 11, 115
4, 8740, Control_c, 2, 11, 119
4, 8750, Control_c, 2, 11, 123
4, 8760, Note_on_c, 2, 65, 50
4, 8760, Note_on_c, 2, 73, 50
4, 8760, Control_c, 2, 11, 125
4, 8849, Note_on_c, 2, 73, 0
4, 8849, Note_on_c, 2, 65, 0
4, 8880, Note_on_c, 2, 68, 55
4, 8883, Note_on_c, 2, 77, 55
4, 8939, Note_on_c, 2, 68, 0
4, 8942, Note_on_c, 2, 77, 0
4, 9118, Note_on_c, 2, 65, 51
4, 9120, Note_on_c, 2, 73, 51
4, 9207, Note_on_c, 2, 65, 0
4, 9209, Note_on_c, 2, 73, 0
4, 9240, Note_on_c, 2, 68, 59
4, 9240, Note_on_c, 2, 77, 59
4, 9288, Note_on_c, 2, 77, 0
4, 9289, Note_on_c, 2, 68, 0
4, 9478, Note_on_c, 2, 65, 64
4, 9479, Note_on_c, 2, 73, 64
4, 9537, Note_on_c, 2, 65, 0
4, 9538, Note_on_c, 2, 73, 0
4, 9599, Note_on_c, 2, 77, 70
4, 9601, Note_on_c, 2, 68, 71
4, 9658, Note_on_c, 2, 77, 0
4, 9660, Note_on_c, 2, 68, 0
4, 9840, Note_on_c, 2, 65, 63
4, 9842, Note_on_c, 2, 73, 64
4, 9899, Note_on_c, 2, 65, 0
4, 9901, Note_on_c, 2, 73, 0
4, 9958, Note_on_c, 2, 68, 73
4, 9959, Note_on_c, 2, 77, 73
4, 10047, Note_on_c, 2, 68, 0
4, 10048, Note_on_c, 2, 77, 0
4, 10201, Note_on_c, 2, 75, 82
4, 10202, Note_on_c, 2, 66, 67
4, 10261, Note_on_c, 2, 66, 0
4, 10262, Note_on_c, 2, 75, 0
4, 10320, Note_on_c, 2, 70, 78
4, 10320, Note_on_c, 2, 78, 74
4, 10385, Note_on_c, 2, 70, 0
4, 10394, Note_on_c, 2, 78, 0
4, 10557, Note_on_c, 2, 66, 78
4, 10560, Note_on_c, 2, 75, 82
4, 10608, Note_on_c, 2, 66, 0
4, 10623, Note_on_c, 2, 75, 0
4, 10680, Note_on_c, 2, 78, 75
4, 10680, Note_on_c, 2, 70, 79
4, 10751, Note_on_c, 2, 70, 0
4, 10759, Note_on_c, 2, 78, 0
4, 10920, Note_on_c, 2, 68, 75
4, 10920, Note_on_c, 2, 75, 81
4, 10979, Note_on_c, 2, 75, 0
4, 10979, Note_on_c, 2, 68, 0
4, 11040, Note_on_c, 2, 72, 82
4, 11040, Note_on_c, 2, 80, 76
4, 11099, Note_on_c, 2, 80, 0
4, 11099, Note_on_c, 2, 72, 0
4, 11280, Note_on_c, 2, 68, 77
4, 11280, Note_on_c, 2, 75, 77
4, 11339, Note_on_c, 2, 75, 0
4, 11339, Note_on_c, 2, 68, 0
4, 11400, Note_on_c, 2, 80, 71
4, 11400, Note_on_c, 2, 72, 78
4, 11459, Note_on_c, 2, 72, 0
4, 11459, Note_on_c, 2, 80, 0
4, 11640, Note_on_c, 2, 77, 81
4, 11640, Note_on_c, 2, 68, 69
4, 11699, Note_on_c, 2, 68, 0
4, 11729, Note_on_c, 2, 77, 0
4, 11760, Note_on_c, 2, 73, 89
4, 11760, Note_on_c, 2, 80, 89
4, 11819, Note_on_c, 2, 80, 0
4, 11819, Note_on_c, 2, 73, 0
4, 11880, Note_on_c, 2, 71, 100
4, 11880, Note_on_c, 2, 80, 100
4, 11890, Control_c, 2, 11, 98
4, 11910, Control_c, 2, 11, 100
4, 11920, Control_c, 2, 11, 104
4, 11930, Control_c, 2, 11, 107
4, 11940, Control_c, 2, 11, 110
4, 11950, Control_c, 2, 11, 114
4, 11960, Control_c, 2, 11, 118
4, 11970, Control_c, 2, 11, 122
4, 11980, Control_c, 2, 11, 124
4, 11990, Control_c, 2, 11, 127
4, 11999, Note_on_c, 2, 80, 0
4, 11999, Note_on_c, 2, 71, 0
4, 12000, Note_on_c, 2, 80, 110
4, 12000, Note_on_c, 2, 72, 110
4, 12020, Control_c, 2, 11, 102
4, 12030, Control_c, 2, 11, 106
4, 12040, Control_c, 2, 11, 108
4, 12050, Control_c, 2, 11, 110
4, 12060, Control_c, 2, 11, 112
4, 12070, Control_c, 2, 11, 115
4, 12080, Control_c, 2, 11, 119
4, 12089, Note_on_c, 2, 72, 0
4, 12089, Note_on_c, 2, 80, 0
4, 12090, Control_c, 2, 11, 121
4, 12100, Control_c, 2, 11, 123
4, 12110, Control_c, 2, 11, 125
4, 12120, Control_c, 2, 11, 127
4, 12240, Note_on_c, 2, 80, 115
4, 12260, Control_c, 2, 11, 104
4, 12270, Control_c, 2, 11, 105
4, 12280, Control_c, 2, 11, 107
4, 12300, Control_c, 2, 11, 109
4, 12310, Control_c, 2, 11, 111
4, 12320, Control_c, 2, 11, 114
4, 12329, Note_on_c, 2, 80, 0
4, 12330, Control_c, 2, 11, 116
4, 12340, Control_c, 2, 11, 125
4, 12350, Control_c, 2, 11, 126
4, 12360, Note_on_c, 2, 80, 124
4, 12360, Control_c, 2, 11, 127
4, 12400, Control_c, 2, 11, 105
4, 12410, Control_c, 2, 11, 109
4, 12420, Control_c, 2, 11, 110
4, 12430, Control_c, 2, 11, 118
4, 12440, Control_c, 2, 11, 123
4, 12450, Control_c, 2, 11, 125
4, 12470, Control_c, 2, 11, 127
4, 12479, Note_on_c, 2, 80, 0
4, 12600, Note_on_c, 2, 82, 112
4, 12620, Control_c, 2, 11, 106
4, 12630, Control_c, 2, 11, 108
4, 12640, Control_c, 2, 11, 111
4, 12650, Control_c, 2, 11, 113
4, 12660, Control_c, 2, 11, 114
4, 12670, Control_c, 2, 11, 115
4, 12680, Control_c, 2, 11, 118
4, 12689, Note_on_c, 2, 82, 0
4, 12690, Control_c, 2, 11, 120
4, 12700, Control_c, 2, 11, 121
4, 12710, Control_c, 2, 11, 123
4, 12720, Note_on_c, 2, 82, 122
4, 12720, Control_c, 2, 11, 127
4, 12750, Control_c, 2, 11, 101
4, 12760, Control_c, 2, 11, 103
4, 12770, Control_c, 2, 11, 105
4, 12780, Control_c, 2, 11, 109
4, 12790, Control_c, 2, 11, 111
4, 12800, Control_c, 2, 11, 114
4, 12809, Note_on_c, 2, 82, 0
4, 12810, Control_c, 2, 11, 119
4, 12820, Control_c, 2, 11, 122
4, 12830, Control_c, 2, 11, 123
4, 12840, Control_c, 2, 11, 125
4, 12960, Note_on_c, 2, 84, 114
4, 12960, Note_on_c, 2, 76, 114
4, 12960, Control_c, 2, 11, 99
4, 12970, Control_c, 2, 11, 101
4, 12980, Control_c, 2, 11, 102
4, 12990, Control_c, 2, 11, 103
4, 13000, Control_c, 2, 11, 106
4, 13010, Control_c, 2, 11, 109
4, 13019, Note_on_c, 2, 84, 0
4, 13020, Control_c, 2, 11, 111
4, 13030, Control_c, 2, 11, 113
4, 13040, Control_c, 2, 11, 117
4, 13049, Note_on_c, 2, 76, 0
4, 13050, Control_c, 2, 11, 119
4, 13060, Control_c, 2, 11, 122
4, 13070, Control_c, 2, 11, 124
4, 13080, Note_on_c, 2, 84, 127
4, 13080, Note_on_c, 2, 77, 127
4, 13080, Control_c, 2, 11, 127
4, 13100, Control_c, 2, 11, 97
4, 13120, Control_c, 2, 11, 99
4, 13130, Control_c, 2, 11, 102
4, 13140, Control_c, 2, 11, 103
4, 13150, Control_c, 2, 11, 107
4, 13160, Control_c, 2, 11, 113
4, 13169, Note_on_c, 2, 77, 0
4, 13169, Note_on_c, 2, 84, 0
4, 13170, Control_c, 2, 11, 122
4, 13180, Control_c, 2, 11, 124
4, 13190, Control_c, 2, 11, 126
4, 13200, Control_c, 2, 11, 127
4, 13200, End_track
5, 0, Start_track
5, 0, MIDI_port, 0
5, 0, Title_t, "Violin2"
5, 0, Program_c, 3, 40
5, 0, Control_c, 3, 7, 127
5, 0, Control_c, 3, 10, 20
5, 839, Control_c, 3, 121, 0
5, 839, Control_c, 3, 91, 100
5, 839, Control_c, 3, 93, 20
5, 839, Control_c, 3, 7, 127
5, 839, Note_on_c, 3, 77, 108
5, 839, Note_on_c, 3, 70, 108
5, 839, Note_on_c, 3, 61, 108
5, 928, Note_on_c, 3, 61, 0
5, 928, Note_on_c, 3, 70, 0
5, 928, Note_on_c, 3, 77, 0
5, 1199, Note_on_c, 3, 77, 110
5, 1199, Note_on_c, 3, 70, 110
5, 1199, Note_on_c, 3, 61, 110
5, 1318, Note_on_c, 3, 61, 0
5, 1318, Note_on_c, 3, 70, 0
5, 1318, Note_on_c, 3, 77, 0
5, 1561, Note_on_c, 3, 75, 120
5, 1680, Note_on_c, 3, 75, 0
5, 1681, Note_on_c, 3, 77, 105
5, 1800, Note_on_c, 3, 77, 0
5, 1801, Note_on_c, 3, 77, 107
5, 1919, Note_on_c, 3, 73, 107
5, 1920, Note_on_c, 3, 77, 0
5, 2038, Note_on_c, 3, 73, 0
5, 2039, Note_on_c, 3, 72, 115
5, 2158, Note_on_c, 3, 72, 0
5, 2159, Note_on_c, 3, 80, 125
5, 2278, Note_on_c, 3, 80, 0
5, 2278, End_track
6, 0, Start_track
6, 0, MIDI_port, 0
6, 0, Title_t, "Viola"
6, 0, Program_c, 2, 48
6, 0, Control_c, 2, 7, 110
6, 0, Control_c, 2, 10, 66
6, 840, Control_c, 2, 121, 0
6, 840, Control_c, 2, 91, 110
6, 840, Control_c, 2, 93, 30
6, 840, Note_on_c, 2, 61, 121
6, 840, Note_on_c, 2, 70, 121
6, 899, Note_on_c, 2, 70, 0
6, 899, Note_on_c, 2, 61, 0
6, 1199, Note_on_c, 2, 70, 121
6, 1199, Note_on_c, 2, 61, 121
6, 1258, Note_on_c, 2, 61, 0
6, 1258, Note_on_c, 2, 70, 0
6, 1559, Note_on_c, 2, 63, 127
6, 1559, Note_on_c, 2, 60, 127
6, 1678, Note_on_c, 2, 60, 0
6, 1678, Note_on_c, 2, 63, 0
6, 1679, Note_on_c, 2, 65, 125
6, 1679, Note_on_c, 2, 61, 125
6, 1798, Note_on_c, 2, 61, 0
6, 1798, Note_on_c, 2, 65, 0
6, 1799, Note_on_c, 2, 58, 127
6, 1799, Note_on_c, 2, 66, 127
6, 1918, Note_on_c, 2, 66, 0
6, 1918, Note_on_c, 2, 58, 0
6, 1920, Note_on_c, 2, 67, 125
6, 1920, Note_on_c, 2, 58, 125
6, 2039, Note_on_c, 2, 58, 0
6, 2039, Note_on_c, 2, 67, 0
6, 2040, Note_on_c, 2, 60, 125
6, 2040, Note_on_c, 2, 68, 125
6, 2159, Note_on_c, 2, 68, 0
6, 2159, Note_on_c, 2, 60, 0
6, 2160, Note_on_c, 2, 56, 127
6, 2160, Note_on_c, 2, 73, 127
6, 2160, Note_on_c, 2, 49, 127
6, 2161, Note_on_c, 2, 65, 127
6, 2279, Note_on_c, 2, 49, 0
6, 2279, Note_on_c, 2, 56, 0
6, 2279, Note_on_c, 2, 73, 0
6, 2280, Note_on_c, 2, 65, 0
6, 2520, Note_on_c, 2, 49, 115
6, 2609, Note_on_c, 2, 49, 0
6, 3240, Note_on_c, 2, 49, 99
6, 3299, Note_on_c, 2, 49, 0
6, 3600, Note_on_c, 2, 49, 95
6, 3689, Note_on_c, 2, 49, 0
6, 3960, Note_on_c, 2, 49, 92
6, 4049, Note_on_c, 2, 49, 0
6, 4319, Note_on_c, 2, 49, 100
6, 4438, Note_on_c, 2, 49, 0
6, 4680, Note_on_c, 2, 49, 98
6, 4769, Note_on_c, 2, 49, 0
6, 5040, Note_on_c, 2, 49, 96
6, 5159, Note_on_c, 2, 49, 0
6, 5280, Note_on_c, 2, 53, 98
6, 5339, Note_on_c, 2, 53, 0
6, 5400, Note_on_c, 2, 56, 99
6, 5519, Note_on_c, 2, 56, 0
6, 5760, Note_on_c, 2, 49, 98
6, 5879, Note_on_c, 2, 49, 0
6, 6121, Note_on_c, 2, 53, 100
6, 6210, Note_on_c, 2, 53, 0
6, 6480, Note_on_c, 2, 54, 103
6, 6599, Note_on_c, 2, 54, 0
6, 6840, Note_on_c, 2, 51, 99
6, 6929, Note_on_c, 2, 51, 0
6, 7200, Note_on_c, 2, 53, 100
6, 7319, Note_on_c, 2, 53, 0
6, 7439, Note_on_c, 2, 51, 100
6, 7558, Note_on_c, 2, 51, 0
6, 7679, Note_on_c, 2, 49, 99
6, 7798, Note_on_c, 2, 49, 0
6, 8159, Note_on_c, 2, 56, 100
6, 8278, Note_on_c, 2, 56, 0
6, 8280, Note_on_c, 2, 51, 100
6, 8399, Note_on_c, 2, 51, 0
6, 8759, Note_on_c, 2, 56, 100
6, 8878, Note_on_c, 2, 56, 0
6, 8879, Note_on_c, 2, 61, 107
6, 8998, Note_on_c, 2, 61, 0
6, 9120, Note_on_c, 2, 56, 99
6, 9179, Note_on_c, 2, 56, 0
6, 9240, Note_on_c, 2, 61, 100
6, 9299, Note_on_c, 2, 61, 0
6, 9480, Note_on_c, 2, 56, 99
6, 9539, Note_on_c, 2, 56, 0
6, 9600, Note_on_c, 2, 61, 100
6, 9659, Note_on_c, 2, 61, 0
6, 9839, Note_on_c, 2, 56, 100
6, 9898, Note_on_c, 2, 56, 0
6, 9959, Note_on_c, 2, 61, 97
6, 10018, Note_on_c, 2, 61, 0
6, 10199, Note_on_c, 2, 58, 99
6, 10258, Note_on_c, 2, 58, 0
6, 10320, Note_on_c, 2, 63, 101
6, 10379, Note_on_c, 2, 63, 0
6, 10561, Note_on_c, 2, 58, 103
6, 10620, Note_on_c, 2, 58, 0
6, 10679, Note_on_c, 2, 63, 100
6, 10738, Note_on_c, 2, 63, 0
6, 10920, Note_on_c, 2, 60, 100
6, 10979, Note_on_c, 2, 60, 0
6, 11040, Note_on_c, 2, 63, 101
6, 11129, Note_on_c, 2, 63, 0
6, 11281, Note_on_c, 2, 60, 100
6, 11340, Note_on_c, 2, 60, 0
6, 11400, Note_on_c, 2, 63, 100
6, 11459, Note_on_c, 2, 63, 0
6, 11640, Note_on_c, 2, 61, 107
6, 11699, Note_on_c, 2, 61, 0
6, 11759, Note_on_c, 2, 65, 103
6, 11818, Note_on_c, 2, 65, 0
6, 11879, Note_on_c, 2, 65, 107
6, 11968, Note_on_c, 2, 65, 0
6, 11999, Note_on_c, 2, 66, 101
6, 12088, Note_on_c, 2, 66, 0
6, 12240, Note_on_c, 2, 66, 100
6, 12329, Note_on_c, 2, 66, 0
6, 12360, Note_on_c, 2, 65, 101
6, 12449, Note_on_c, 2, 65, 0
6, 12600, Note_on_c, 2, 65, 100
6, 12689, Note_on_c, 2, 65, 0
6, 12720, Note_on_c, 2, 63, 98
6, 12809, Note_on_c, 2, 63, 0
6, 12960, Note_on_c, 2, 60, 99
6, 12960, Note_on_c, 2, 67, 95
6, 13049, Note_on_c, 2, 67, 0
6, 13049, Note_on_c, 2, 60, 0
6, 13080, Note_on_c, 2, 60, 95
6, 13080, Note_on_c, 2, 65, 99
6, 13169, Note_on_c, 2, 65, 0
6, 13169, Note_on_c, 2, 60, 0
6, 13169, End_track
7, 0, Start_track
7, 0, MIDI_port, 0
7, 0, Title_t, "bass"
7, 0, Program_c, 5, 42
7, 0, Control_c, 5, 7, 127
7, 0, Control_c, 5, 10, 110
7, 840, Control_c, 5, 121, 0
7, 840, Control_c, 5, 91, 100
7, 840, Control_c, 5, 93, 30
7, 840, Control_c, 5, 7, 127
7, 840, Note_on_c, 5, 56, 97
7, 929, Note_on_c, 5, 56, 0
7, 1200, Note_on_c, 5, 55, 97
7, 1289, Note_on_c, 5, 55, 0
7, 1560, Note_on_c, 5, 54, 115
7, 1679, Note_on_c, 5, 54, 0
7, 1680, Note_on_c, 5, 53, 107
7, 1799, Note_on_c, 5, 53, 0
7, 1800, Note_on_c, 5, 52, 107
7, 1919, Note_on_c, 5, 52, 0
7, 1920, Note_on_c, 5, 51, 97
7, 2039, Note_on_c, 5, 51, 0
7, 2040, Note_on_c, 5, 56, 115
7, 2159, Note_on_c, 5, 56, 0
7, 2160, Note_on_c, 5, 49, 121
7, 2279, Note_on_c, 5, 49, 0
7, 2520, Note_on_c, 5, 49, 83
7, 2639, Note_on_c, 5, 49, 0
7, 2880, Note_on_c, 5, 49, 86
7, 2999, Note_on_c, 5, 49, 0
7, 3240, Note_on_c, 5, 49, 85
7, 3359, Note_on_c, 5, 49, 0
7, 3600, Note_on_c, 5, 49, 86
7, 3689, Note_on_c, 5, 49, 0
7, 3960, Note_on_c, 5, 49, 89
7, 4079, Note_on_c, 5, 49, 0
7, 4320, Note_on_c, 5, 49, 86
7, 4439, Note_on_c, 5, 49, 0
7, 4680, Note_on_c, 5, 49, 89
7, 4799, Note_on_c, 5, 49, 0
7, 5040, Note_on_c, 5, 49, 89
7, 5159, Note_on_c, 5, 49, 0
7, 5280, Note_on_c, 5, 53, 88
7, 5399, Note_on_c, 5, 53, 0
7, 5400, Note_on_c, 5, 56, 86
7, 5519, Note_on_c, 5, 56, 0
7, 5520, Note_on_c, 5, 44, 92
7, 5639, Note_on_c, 5, 44, 0
7, 5761, Note_on_c, 5, 49, 86
7, 5880, Note_on_c, 5, 49, 0
7, 6120, Note_on_c, 5, 53, 92
7, 6239, Note_on_c, 5, 53, 0
7, 6480, Note_on_c, 5, 54, 87
7, 6569, Note_on_c, 5, 54, 0
7, 6840, Note_on_c, 5, 51, 93
7, 6929, Note_on_c, 5, 51, 0
7, 7200, Note_on_c, 5, 53, 90
7, 7289, Note_on_c, 5, 53, 0
7, 7320, Note_on_c, 5, 58, 89
7, 7409, Note_on_c, 5, 58, 0
7, 7440, Note_on_c, 5, 51, 89
7, 7529, Note_on_c, 5, 51, 0
7, 7560, Note_on_c, 5, 56, 89
7, 7649, Note_on_c, 5, 56, 0
7, 7680, Note_on_c, 5, 49, 90
7, 7769, Note_on_c, 5, 49, 0
7, 7800, Note_on_c, 5, 43, 89
7, 7859, Note_on_c, 5, 43, 0
7, 7920, Note_on_c, 5, 44, 88
7, 7979, Note_on_c, 5, 44, 0
7, 8160, Note_on_c, 5, 56, 89
7, 8219, Note_on_c, 5, 56, 0
7, 8280, Note_on_c, 5, 51, 89
7, 8339, Note_on_c, 5, 51, 0
7, 8520, Note_on_c, 5, 56, 89
7, 8609, Note_on_c, 5, 56, 0
7, 8640, Note_on_c, 5, 49, 90
7, 8699, Note_on_c, 5, 49, 0
7, 9000, Note_on_c, 5, 49, 80
7, 9119, Note_on_c, 5, 49, 0
7, 9360, Note_on_c, 5, 49, 81
7, 9449, Note_on_c, 5, 49, 0
7, 9720, Note_on_c, 5, 49, 85
7, 9809, Note_on_c, 5, 49, 0
7, 10080, Note_on_c, 5, 49, 85
7, 10169, Note_on_c, 5, 49, 0
7, 10440, Note_on_c, 5, 49, 85
7, 10559, Note_on_c, 5, 49, 0
7, 10800, Note_on_c, 5, 49, 87
7, 10889, Note_on_c, 5, 49, 0
7, 11160, Note_on_c, 5, 49, 88
7, 11249, Note_on_c, 5, 49, 0
7, 11520, Note_on_c, 5, 49, 89
7, 11609, Note_on_c, 5, 49, 0
7, 11880, Note_on_c, 5, 50, 90
7, 11969, Note_on_c, 5, 50, 0
7, 12000, Note_on_c, 5, 51, 95
7, 12089, Note_on_c, 5, 51, 0
7, 12240, Note_on_c, 5, 52, 88
7, 12299, Note_on_c, 5, 52, 0
7, 12360, Note_on_c, 5, 53, 89
7, 12419, Note_on_c, 5, 53, 0
7, 12600, Note_on_c, 5, 53, 93
7, 12659, Note_on_c, 5, 53, 0
7, 12720, Note_on_c, 5, 54, 97
7, 12809, Note_on_c, 5, 54, 0
7, 12960, Note_on_c, 5, 55, 89
7, 13019, Note_on_c, 5, 55, 0
7, 13080, Note_on_c, 5, 56, 97
7, 13169, Note_on_c, 5, 56, 0
7, 13169, End_track
8, 0, Start_track
8, 0, MIDI_port, 0
8, 0, Title_t, "Flute"
8, 0, Program_c, 7, 73
8, 0, Control_c, 7, 7, 127
8, 0, Control_c, 7, 10, 30
8, 840, Control_c, 7, 121, 0
8, 840, Control_c, 7, 91, 60
8, 840, Control_c, 7, 93, 30
8, 840, Control_c, 7, 7, 127
8, 840, Note_on_c, 7, 94, 97
8, 840, Note_on_c, 7, 89, 93
8, 929, Note_on_c, 7, 89, 0
8, 929, Note_on_c, 7, 94, 0
8, 1200, Note_on_c, 7, 77, 90
8, 1200, Note_on_c, 7, 82, 89
8, 1289, Note_on_c, 7, 82, 0
8, 1289, Note_on_c, 7, 77, 0
8, 1560, Note_on_c, 7, 82, 97
8, 1680, Note_on_c, 7, 80, 89
8, 1709, Note_on_c, 7, 82, 0
8, 1799, Note_on_c, 7, 80, 0
8, 1800, Note_on_c, 7, 82, 97
8, 1919, Note_on_c, 7, 82, 0
8, 1920, Note_on_c, 7, 82, 89
8, 2039, Note_on_c, 7, 82, 0
8, 2040, Note_on_c, 7, 84, 91
8, 2159, Note_on_c, 7, 84, 0
8, 2160, Note_on_c, 7, 85, 97
8, 2279, Note_on_c, 7, 85, 0
8, 2640, Note_on_c, 7, 80, 84
8, 3569, Note_on_c, 7, 80, 0
8, 3600, Note_on_c, 7, 82, 83
8, 4319, Note_on_c, 7, 82, 0
8, 4320, Note_on_c, 7, 84, 89
8, 5039, Note_on_c, 7, 84, 0
8, 5040, Note_on_c, 7, 85, 89
8, 5249, Note_on_c, 7, 85, 0
8, 5280, Note_on_c, 7, 85, 85
8, 5399, Note_on_c, 7, 85, 0
8, 5400, Note_on_c, 7, 84, 90
8, 5729, Note_on_c, 7, 84, 0
8, 5761, Note_on_c, 7, 85, 86
8, 6090, Note_on_c, 7, 85, 0
8, 6120, Note_on_c, 7, 85, 86
8, 6419, Note_on_c, 7, 85, 0
8, 6480, Note_on_c, 7, 87, 85
8, 6839, Note_on_c, 7, 87, 0
8, 6840, Note_on_c, 7, 90, 90
8, 7169, Note_on_c, 7, 90, 0
8, 7200, Note_on_c, 7, 89, 93
8, 7319, Note_on_c, 7, 89, 0
8, 7320, Note_on_c, 7, 86, 90
8, 7439, Note_on_c, 7, 86, 0
8, 7440, Note_on_c, 7, 87, 89
8, 7559, Note_on_c, 7, 87, 0
8, 7560, Note_on_c, 7, 84, 88
8, 7679, Note_on_c, 7, 84, 0
8, 7680, Note_on_c, 7, 85, 90
8, 7799, Note_on_c, 7, 85, 0
8, 7800, Note_on_c, 7, 82, 89
8, 7919, Note_on_c, 7, 82, 0
8, 7920, Note_on_c, 7, 80, 88
8, 8159, Note_on_c, 7, 80, 0
8, 8160, Note_on_c, 7, 85, 91
8, 8160, Note_on_c, 7, 80, 85
8, 8279, Note_on_c, 7, 80, 0
8, 8279, Note_on_c, 7, 85, 0
8, 8280, Note_on_c, 7, 87, 86
8, 8280, Note_on_c, 7, 82, 90
8, 8519, Note_on_c, 7, 82, 0
8, 8519, Note_on_c, 7, 87, 0
8, 8520, Note_on_c, 7, 89, 89
8, 8520, Note_on_c, 7, 84, 89
8, 8639, Note_on_c, 7, 84, 0
8, 8639, Note_on_c, 7, 89, 0
8, 8640, Note_on_c, 7, 85, 88
8, 8759, Note_on_c, 7, 85, 0
8, 8759, End_track
9, 0, Start_track
9, 0, MIDI_port, 0
9, 0, Title_t, "Oboe"
9, 0, Program_c, 1, 71
9, 0, Control_c, 1, 7, 127
9, 0, Control_c, 1, 10, 64
9, 840, Control_c, 1, 121, 0
9, 840, Control_c, 1, 91, 60
9, 840, Control_c, 1, 7, 127
9, 840, Note_on_c, 1, 65, 97
9, 840, Note_on_c, 1, 73, 101
9, 865, Control_c, 1, 2, 1
9, 898, Control_c, 1, 2, 0
9, 929, Note_on_c, 1, 73, 0
9, 929, Note_on_c, 1, 65, 0
9, 1200, Note_on_c, 1, 65, 90
9, 1200, Note_on_c, 1, 73, 97
9, 1212, Control_c, 1, 2, 6
9, 1216, Control_c, 1, 2, 14
9, 1218, Control_c, 1, 2, 22
9, 1221, Control_c, 1, 2, 29
9, 1227, Control_c, 1, 2, 34
9, 1239, Control_c, 1, 2, 27
9, 1241, Control_c, 1, 2, 19
9, 1245, Control_c, 1, 2, 7
9, 1248, Control_c, 1, 2, 0
9, 1289, Note_on_c, 1, 73, 0
9, 1289, Note_on_c, 1, 65, 0
9, 1560, Note_on_c, 1, 60, 87
9, 1560, Note_on_c, 1, 63, 93
9, 1679, Note_on_c, 1, 63, 0
9, 1679, Note_on_c, 1, 60, 0
9, 1680, Note_on_c, 1, 65, 90
9, 1680, Note_on_c, 1, 61, 90
9, 1799, Note_on_c, 1, 61, 0
9, 1799, Note_on_c, 1, 65, 0
9, 1800, Note_on_c, 1, 61, 87
9, 1800, Note_on_c, 1, 66, 97
9, 1919, Note_on_c, 1, 66, 0
9, 1919, Note_on_c, 1, 61, 0
9, 1920, Note_on_c, 1, 61, 54
9, 1920, Note_on_c, 1, 67, 89
9, 2039, Note_on_c, 1, 67, 0
9, 2039, Note_on_c, 1, 61, 0
9, 2040, Note_on_c, 1, 68, 91
9, 2040, Note_on_c, 1, 63, 97
9, 2159, Note_on_c, 1, 63, 0
9, 2159, Note_on_c, 1, 68, 0
9, 2160, Note_on_c, 1, 61, 85
9, 2160, Note_on_c, 1, 68, 89
9, 2279, Note_on_c, 1, 68, 0
9, 2279, Note_on_c, 1, 61, 0
9, 2640, Note_on_c, 1, 61, 71
9, 3569, Note_on_c, 1, 61, 0
9, 3600, Note_on_c, 1, 61, 82
9, 4319, Note_on_c, 1, 61, 0
9, 4320, Note_on_c, 1, 63, 88
9, 4979, Note_on_c, 1, 63, 0
9, 5040, Note_on_c, 1, 65, 88
9, 5279, Note_on_c, 1, 65, 0
9, 5280, Note_on_c, 1, 65, 85
9, 5399, Note_on_c, 1, 65, 0
9, 5400, Note_on_c, 1, 63, 88
9, 5639, Note_on_c, 1, 63, 0
9, 5760, Note_on_c, 1, 65, 86
9, 6119, Note_on_c, 1, 65, 0
9, 6120, Note_on_c, 1, 61, 87
9, 6479, Note_on_c, 1, 61, 0
9, 6480, Note_on_c, 1, 70, 90
9, 6839, Note_on_c, 1, 70, 0
9, 6840, Note_on_c, 1, 70, 85
9, 7169, Note_on_c, 1, 70, 0
9, 7200, Note_on_c, 1, 69, 90
9, 7319, Note_on_c, 1, 69, 0
9, 7320, Note_on_c, 1, 68, 89
9, 7439, Note_on_c, 1, 68, 0
9, 7440, Note_on_c, 1, 67, 91
9, 7559, Note_on_c, 1, 67, 0
9, 7560, Note_on_c, 1, 66, 90
9, 7679, Note_on_c, 1, 66, 0
9, 7680, Note_on_c, 1, 65, 88
9, 7889, Note_on_c, 1, 65, 0
9, 7920, Note_on_c, 1, 65, 87
9, 8099, Note_on_c, 1, 65, 0
9, 8160, Note_on_c, 1, 65, 89
9, 8280, Note_on_c, 1, 67, 84
9, 8309, Note_on_c, 1, 65, 0
9, 8519, Note_on_c, 1, 67, 0
9, 8520, Note_on_c, 1, 66, 85
9, 8639, Note_on_c, 1, 66, 0
9, 8640, Note_on_c, 1, 65, 85
9, 8789, Note_on_c, 1, 65, 0
9, 8789, End_track
10, 0, Start_track
10, 0, MIDI_port, 0
10, 0, Title_t, "Cello"
10, 0, Program_c, 2, 48
10, 0, Control_c, 2, 7, 127
10, 0, Control_c, 2, 10, 110
10, 840, Control_c, 2, 121, 0
10, 840, Control_c, 2, 91, 110
10, 840, Control_c, 2, 93, 60
10, 840, Control_c, 2, 7, 127
10, 840, Note_on_c, 2, 68, 77
10, 929, Note_on_c, 2, 68, 0
10, 1200, Note_on_c, 2, 67, 77
10, 1289, Note_on_c, 2, 67, 0
10, 1550, Control_c, 2, 11, 99
10, 1560, Note_on_c, 2, 66, 69
10, 1570, Control_c, 2, 11, 101
10, 1590, Control_c, 2, 11, 103
10, 1610, Control_c, 2, 11, 105
10, 1630, Control_c, 2, 11, 109
10, 1640, Control_c, 2, 11, 111
10, 1650, Control_c, 2, 11, 114
10, 1660, Control_c, 2, 11, 117
10, 1670, Control_c, 2, 11, 123
10, 1679, Note_on_c, 2, 66, 0
10, 1680, Note_on_c, 2, 65, 71
10, 1680, Control_c, 2, 11, 125
10, 1700, Control_c, 2, 11, 99
10, 1710, Control_c, 2, 11, 101
10, 1720, Control_c, 2, 11, 105
10, 1730, Control_c, 2, 11, 109
10, 1740, Control_c, 2, 11, 112
10, 1750, Control_c, 2, 11, 117
10, 1760, Control_c, 2, 11, 120
10, 1770, Control_c, 2, 11, 122
10, 1780, Control_c, 2, 11, 123
10, 1790, Control_c, 2, 11, 125
10, 1799, Note_on_c, 2, 65, 0
10, 1800, Note_on_c, 2, 64, 77
10, 1800, Control_c, 2, 11, 127
10, 1820, Control_c, 2, 11, 99
10, 1830, Control_c, 2, 11, 101
10, 1840, Control_c, 2, 11, 105
10, 1850, Control_c, 2, 11, 107
10, 1860, Control_c, 2, 11, 111
10, 1870, Control_c, 2, 11, 112
10, 1880, Control_c, 2, 11, 117
10, 1890, Control_c, 2, 11, 122
10, 1900, Control_c, 2, 11, 123
10, 1910, Control_c, 2, 11, 126
10, 1919, Note_on_c, 2, 64, 0
10, 1920, Note_on_c, 2, 63, 77
10, 1920, Control_c, 2, 11, 127
10, 1940, Control_c, 2, 11, 98
10, 1950, Control_c, 2, 11, 100
10, 1960, Control_c, 2, 11, 106
10, 1970, Control_c, 2, 11, 112
10, 1980, Control_c, 2, 11, 114
10, 1990, Control_c, 2, 11, 118
10, 2000, Control_c, 2, 11, 121
10, 2010, Control_c, 2, 11, 124
10, 2020, Control_c, 2, 11, 125
10, 2030, Control_c, 2, 11, 127
10, 2039, Note_on_c, 2, 63, 0
10, 2040, Note_on_c, 2, 68, 73
10, 2060, Control_c, 2, 11, 98
10, 2070, Control_c, 2, 11, 99
10, 2080, Control_c, 2, 11, 100
10, 2090, Control_c, 2, 11, 102
10, 2100, Control_c, 2, 11, 104
10, 2110, Control_c, 2, 11, 106
10, 2120, Control_c, 2, 11, 111
10, 2130, Control_c, 2, 11, 119
10, 2140, Control_c, 2, 11, 122
10, 2150, Control_c, 2, 11, 124
10, 2159, Note_on_c, 2, 68, 0
10, 2160, Note_on_c, 2, 61, 81
10, 2160, Control_c, 2, 11, 126
10, 2170, Control_c, 2, 11, 98
10, 2180, Control_c, 2, 11, 101
10, 2190, Control_c, 2, 11, 104
10, 2200, Control_c, 2, 11, 106
10, 2220, Control_c, 2, 11, 111
10, 2230, Control_c, 2, 11, 114
10, 2240, Control_c, 2, 11, 119
10, 2250, Control_c, 2, 11, 120
10, 2260, Control_c, 2, 11, 123
10, 2270, Control_c, 2, 11, 126
10, 2279, Note_on_c, 2, 61, 0
10, 2698, Note_on_c, 2, 56, 125
10, 2758, Note_on_c, 2, 53, 123
10, 2775, Note_on_c, 2, 56, 0
10, 2818, Note_on_c, 2, 51, 118
10, 2829, Note_on_c, 2, 53, 0
10, 2878, Note_on_c, 2, 49, 118
10, 2896, Note_on_c, 2, 51, 0
10, 2990, Control_c, 2, 11, 100
10, 2996, Note_on_c, 2, 65, 127
10, 2997, Note_on_c, 2, 49, 0
10, 3000, Control_c, 2, 11, 106
10, 3010, Control_c, 2, 11, 107
10, 3020, Control_c, 2, 11, 110
10, 3030, Control_c, 2, 11, 113
10, 3040, Control_c, 2, 11, 114
10, 3050, Control_c, 2, 11, 116
10, 3060, Control_c, 2, 11, 117
10, 3070, Control_c, 2, 11, 120
10, 3080, Control_c, 2, 11, 122
10, 3100, Control_c, 2, 11, 124
10, 3110, Control_c, 2, 11, 126
10, 3172, Note_on_c, 2, 65, 0
10, 3180, Note_on_c, 2, 63, 124
10, 3238, Note_on_c, 2, 66, 127
10, 3250, Control_c, 2, 11, 96
10, 3257, Note_on_c, 2, 63, 0
10, 3260, Control_c, 2, 11, 97
10, 3270, Control_c, 2, 11, 99
10, 3280, Control_c, 2, 11, 102
10, 3290, Control_c, 2, 11, 104
10, 3300, Control_c, 2, 11, 106
10, 3310, Control_c, 2, 11, 111
10, 3320, Control_c, 2, 11, 113
10, 3330, Control_c, 2, 11, 115
10, 3340, Control_c, 2, 11, 118
10, 3350, Control_c, 2, 11, 120
10, 3360, Control_c, 2, 11, 122
10, 3370, Control_c, 2, 11, 123
10, 3380, Control_c, 2, 11, 124
10, 3390, Control_c, 2, 11, 126
10, 3410, Control_c, 2, 11, 127
10, 3420, Note_on_c, 2, 65, 120
10, 3421, Note_on_c, 2, 66, 0
10, 3481, Note_on_c, 2, 65, 0
10, 3482, Note_on_c, 2, 60, 108
10, 3544, Note_on_c, 2, 61, 106
10, 3556, Note_on_c, 2, 60, 0
10, 3600, Note_on_c, 2, 58, 104
10, 3617, Note_on_c, 2, 61, 0
10, 3717, Note_on_c, 2, 63, 124
10, 3720, Control_c, 2, 11, 98
10, 3726, Note_on_c, 2, 58, 0
10, 3730, Control_c, 2, 11, 101
10, 3740, Control_c, 2, 11, 105
10, 3750, Control_c, 2, 11, 108
10, 3760, Control_c, 2, 11, 113
10, 3770, Control_c, 2, 11, 116
10, 3780, Control_c, 2, 11, 118
10, 3790, Control_c, 2, 11, 121
10, 3800, Control_c, 2, 11, 123
10, 3810, Control_c, 2, 11, 125
10, 3820, Control_c, 2, 11, 126
10, 3830, Control_c, 2, 11, 127
10, 3895, Note_on_c, 2, 65, 119
10, 3903, Note_on_c, 2, 63, 0
10, 3958, Note_on_c, 2, 58, 117
10, 3970, Control_c, 2, 11, 98
10, 3983, Note_on_c, 2, 65, 0
10, 3990, Control_c, 2, 11, 100
10, 4000, Control_c, 2, 11, 102
10, 4010, Control_c, 2, 11, 104
10, 4030, Control_c, 2, 11, 106
10, 4040, Control_c, 2, 11, 108
10, 4050, Control_c, 2, 11, 110
10, 4060, Control_c, 2, 11, 112
10, 4070, Control_c, 2, 11, 114
10, 4080, Control_c, 2, 11, 117
10, 4090, Control_c, 2, 11, 120
10, 4100, Control_c, 2, 11, 121
10, 4110, Control_c, 2, 11, 122
10, 4120, Control_c, 2, 11, 124
10, 4130, Control_c, 2, 11, 126
10, 4140, Note_on_c, 2, 63, 121
10, 4140, Control_c, 2, 11, 127
10, 4153, Note_on_c, 2, 58, 0
10, 4200, Note_on_c, 2, 60, 110
10, 4215, Note_on_c, 2, 63, 0
10, 4260, Note_on_c, 2, 58, 106
10, 4265, Note_on_c, 2, 60, 0
10, 4320, Note_on_c, 2, 56, 115
10, 4324, Note_on_c, 2, 58, 0
10, 4440, Control_c, 2, 11, 96
10, 4442, Note_on_c, 2, 63, 124
10, 4445, Note_on_c, 2, 56, 0
10, 4460, Control_c, 2, 11, 100
10, 4470, Control_c, 2, 11, 105
10, 4480, Control_c, 2, 11, 110
10, 4490, Control_c, 2, 11, 113
10, 4500, Control_c, 2, 11, 117
10, 4510, Control_c, 2, 11, 122
10, 4520, Control_c, 2, 11, 124
10, 4530, Control_c, 2, 11, 125
10, 4540, Control_c, 2, 11, 126
10, 4550, Control_c, 2, 11, 127
10, 4607, Note_on_c, 2, 65, 112
10, 4616, Note_on_c, 2, 63, 0
10, 4677, Note_on_c, 2, 65, 0
10, 4680, Note_on_c, 2, 68, 123
10, 4700, Control_c, 2, 11, 97
10, 4710, Control_c, 2, 11, 103
10, 4720, Control_c, 2, 11, 107
10, 4730, Control_c, 2, 11, 110
10, 4740, Control_c, 2, 11, 113
10, 4750, Control_c, 2, 11, 116
10, 4760, Control_c, 2, 11, 119
10, 4770, Control_c, 2, 11, 121
10, 4780, Control_c, 2, 11, 124
10, 4790, Control_c, 2, 11, 127
10, 4860, Note_on_c, 2, 63, 109
10, 4864, Note_on_c, 2, 68, 0
10, 4919, Note_on_c, 2, 63, 0
10, 4920, Note_on_c, 2, 63, 112
10, 4980, Note_on_c, 2, 65, 116
10, 4988, Note_on_c, 2, 63, 0
10, 5040, Note_on_c, 2, 68, 126
10, 5040, Control_c, 2, 11, 108
10, 5050, Control_c, 2, 11, 109
10, 5056, Note_on_c, 2, 65, 0
10, 5060, Control_c, 2, 11, 110
10, 5070, Control_c, 2, 11, 111
10, 5090, Control_c, 2, 11, 112
10, 5100, Control_c, 2, 11, 113
10, 5110, Control_c, 2, 11, 114
10, 5130, Control_c, 2, 11, 116
10, 5140, Control_c, 2, 11, 118
10, 5150, Control_c, 2, 11, 120
10, 5160, Control_c, 2, 11, 121
10, 5170, Control_c, 2, 11, 123
10, 5180, Control_c, 2, 11, 127
10, 5212, Note_on_c, 2, 65, 115
10, 5224, Note_on_c, 2, 68, 0
10, 5280, Note_on_c, 2, 70, 127
10, 5284, Note_on_c, 2, 65, 0
10, 5340, Note_on_c, 2, 68, 123
10, 5346, Note_on_c, 2, 70, 0
10, 5400, Control_c, 2, 11, 96
10, 5401, Note_on_c, 2, 63, 123
10, 5410, Control_c, 2, 11, 97
10, 5417, Note_on_c, 2, 68, 0
10, 5420, Control_c, 2, 11, 99
10, 5430, Control_c, 2, 11, 103
10, 5440, Control_c, 2, 11, 107
10, 5450, Control_c, 2, 11, 109
10, 5460, Control_c, 2, 11, 112
10, 5470, Control_c, 2, 11, 115
10, 5480, Control_c, 2, 11, 119
10, 5490, Control_c, 2, 11, 122
10, 5500, Control_c, 2, 11, 124
10, 5510, Control_c, 2, 11, 126
10, 5520, Control_c, 2, 11, 127
10, 5550, Note_on_c, 2, 60, 120
10, 5550, Note_on_c, 2, 63, 0
10, 5596, Note_on_c, 2, 58, 114
10, 5602, Note_on_c, 2, 60, 0
10, 5637, Note_on_c, 2, 56, 113
10, 5657, Note_on_c, 2, 58, 0
10, 5678, Note_on_c, 2, 54, 110
10, 5686, Note_on_c, 2, 56, 0
10, 5718, Note_on_c, 2, 51, 108
10, 5720, Note_on_c, 2, 54, 0
10, 5759, Note_on_c, 2, 51, 0
10, 5760, Note_on_c, 2, 49, 114
10, 5878, Note_on_c, 2, 65, 126
10, 5879, Note_on_c, 2, 49, 0
10, 5890, Control_c, 2, 11, 97
10, 5900, Control_c, 2, 11, 102
10, 5910, Control_c, 2, 11, 105
10, 5920, Control_c, 2, 11, 106
10, 5930, Control_c, 2, 11, 109
10, 5940, Control_c, 2, 11, 111
10, 5950, Control_c, 2, 11, 113
10, 5960, Control_c, 2, 11, 114
10, 5970, Control_c, 2, 11, 116
10, 5980, Control_c, 2, 11, 119
10, 5990, Control_c, 2, 11, 122
10, 6000, Control_c, 2, 11, 124
10, 6010, Control_c, 2, 11, 126
10, 6066, Note_on_c, 2, 63, 111
10, 6087, Note_on_c, 2, 65, 0
10, 6118, Note_on_c, 2, 66, 126
10, 6127, Note_on_c, 2, 63, 0
10, 6130, Control_c, 2, 11, 96
10, 6140, Control_c, 2, 11, 97
10, 6150, Control_c, 2, 11, 98
10, 6160, Control_c, 2, 11, 100
10, 6170, Control_c, 2, 11, 103
10, 6180, Control_c, 2, 11, 105
10, 6190, Control_c, 2, 11, 108
10, 6200, Control_c, 2, 11, 112
10, 6210, Control_c, 2, 11, 115
10, 6220, Control_c, 2, 11, 117
10, 6230, Control_c, 2, 11, 122
10, 6240, Control_c, 2, 11, 126
10, 6300, Note_on_c, 2, 65, 107
10, 6324, Note_on_c, 2, 66, 0
10, 6361, Note_on_c, 2, 60, 119
10, 6367, Note_on_c, 2, 65, 0
10, 6416, Note_on_c, 2, 61, 113
10, 6426, Note_on_c, 2, 60, 0
10, 6480, Note_on_c, 2, 58, 119
10, 6482, Note_on_c, 2, 61, 0
10, 6599, Note_on_c, 2, 58, 0
10, 6600, Note_on_c, 2, 63, 127
10, 6600, Control_c, 2, 11, 96
10, 6610, Control_c, 2, 11, 98
10, 6620, Control_c, 2, 11, 100
10, 6630, Control_c, 2, 11, 101
10, 6640, Control_c, 2, 11, 102
10, 6650, Control_c, 2, 11, 104
10, 6660, Control_c, 2, 11, 108
10, 6670, Control_c, 2, 11, 110
10, 6680, Control_c, 2, 11, 112
10, 6690, Control_c, 2, 11, 115
10, 6700, Control_c, 2, 11, 118
10, 6710, Control_c, 2, 11, 122
10, 6720, Control_c, 2, 11, 124
10, 6763, Note_on_c, 2, 65, 119
10, 6779, Note_on_c, 2, 63, 0
10, 6840, Note_on_c, 2, 68, 125
10, 6840, Control_c, 2, 11, 97
10, 6842, Note_on_c, 2, 65, 0
10, 6850, Control_c, 2, 11, 101
10, 6860, Control_c, 2, 11, 104
10, 6870, Control_c, 2, 11, 106
10, 6880, Control_c, 2, 11, 109
10, 6890, Control_c, 2, 11, 111
10, 6900, Control_c, 2, 11, 113
10, 6910, Control_c, 2, 11, 114
10, 6920, Control_c, 2, 11, 116
10, 6930, Control_c, 2, 11, 119
10, 6940, Control_c, 2, 11, 120
10, 6960, Control_c, 2, 11, 123
10, 6970, Control_c, 2, 11, 124
10, 6980, Control_c, 2, 11, 126
10, 7000, Control_c, 2, 11, 127
10, 7020, Note_on_c, 2, 66, 107
10, 7042, Note_on_c, 2, 68, 0
10, 7078, Note_on_c, 2, 65, 115
10, 7084, Note_on_c, 2, 66, 0
10, 7130, Note_on_c, 2, 66, 113
10, 7139, Note_on_c, 2, 65, 0
10, 7200, Note_on_c, 2, 65, 104
10, 7206, Note_on_c, 2, 66, 0
10, 7260, Note_on_c, 2, 60, 93
10, 7264, Note_on_c, 2, 65, 0
10, 7320, Note_on_c, 2, 65, 91
10, 7322, Note_on_c, 2, 60, 0
10, 7380, Note_on_c, 2, 62, 87
10, 7393, Note_on_c, 2, 65, 0
10, 7440, Note_on_c, 2, 63, 91
10, 7449, Note_on_c, 2, 62, 0
10, 7500, Note_on_c, 2, 58, 85
10, 7513, Note_on_c, 2, 63, 0
10, 7560, Note_on_c, 2, 63, 85
10, 7573, Note_on_c, 2, 58, 0
10, 7620, Note_on_c, 2, 60, 84
10, 7632, Note_on_c, 2, 63, 0
10, 7680, Note_on_c, 2, 61, 97
10, 7690, Note_on_c, 2, 60, 0
10, 7740, Note_on_c, 2, 53, 79
10, 7769, Note_on_c, 2, 61, 0
10, 7800, Note_on_c, 2, 58, 80
10, 7811, Note_on_c, 2, 53, 0
10, 7860, Note_on_c, 2, 60, 87
10, 7863, Note_on_c, 2, 58, 0
10, 7920, Note_on_c, 2, 56, 89
10, 7924, Note_on_c, 2, 60, 0
10, 7980, Note_on_c, 2, 58, 96
10, 7988, Note_on_c, 2, 56, 0
10, 8038, Note_on_c, 2, 58, 0
10, 8040, Note_on_c, 2, 60, 100
10, 8100, Note_on_c, 2, 61, 104
10, 8110, Note_on_c, 2, 60, 0
10, 8160, Note_on_c, 2, 63, 115
10, 8176, Note_on_c, 2, 61, 0
10, 8220, Note_on_c, 2, 65, 118
10, 8229, Note_on_c, 2, 63, 0
10, 8280, Note_on_c, 2, 63, 125
10, 8287, Note_on_c, 2, 65, 0
10, 8339, Note_on_c, 2, 63, 0
10, 8340, Note_on_c, 2, 65, 120
10, 8396, Note_on_c, 2, 58, 115
10, 8399, Note_on_c, 2, 65, 0
10, 8410, Control_c, 2, 11, 99
10, 8420, Control_c, 2, 11, 102
10, 8430, Control_c, 2, 11, 104
10, 8440, Control_c, 2, 11, 105
10, 8450, Control_c, 2, 11, 106
10, 8460, Control_c, 2, 11, 109
10, 8480, Control_c, 2, 11, 110
10, 8490, Control_c, 2, 11, 113
10, 8500, Control_c, 2, 11, 114
10, 8510, Control_c, 2, 11, 116
10, 8520, Control_c, 2, 11, 117
10, 8530, Control_c, 2, 11, 119
10, 8540, Control_c, 2, 11, 121
10, 8550, Control_c, 2, 11, 124
10, 8560, Control_c, 2, 11, 126
10, 8570, Control_c, 2, 11, 127
10, 8580, Note_on_c, 2, 60, 88
10, 8583, Note_on_c, 2, 58, 0
10, 8640, Note_on_c, 2, 61, 89
10, 8647, Note_on_c, 2, 60, 0
10, 8650, Control_c, 2, 11, 94
10, 8660, Control_c, 2, 11, 100
10, 8670, Control_c, 2, 11, 104
10, 8680, Control_c, 2, 11, 106
10, 8690, Control_c, 2, 11, 109
10, 8700, Control_c, 2, 11, 112
10, 8710, Control_c, 2, 11, 114
10, 8720, Control_c, 2, 11, 126
10, 8729, Note_on_c, 2, 61, 0
10, 8760, Note_on_c, 2, 53, 31
10, 8760, Note_on_c, 2, 61, 31
10, 8849, Note_on_c, 2, 61, 0
10, 8849, Note_on_c, 2, 53, 0
10, 8880, Note_on_c, 2, 56, 33
10, 8883, Note_on_c, 2, 65, 33
10, 8969, Note_on_c, 2, 56, 0
10, 8972, Note_on_c, 2, 65, 0
10, 9118, Note_on_c, 2, 53, 36
10, 9120, Note_on_c, 2, 61, 35
10, 9207, Note_on_c, 2, 53, 0
10, 9209, Note_on_c, 2, 61, 0
10, 9240, Note_on_c, 2, 56, 41
10, 9240, Note_on_c, 2, 65, 41
10, 9329, Note_on_c, 2, 65, 0
10, 9329, Note_on_c, 2, 56, 0
10, 9478, Note_on_c, 2, 53, 51
10, 9479, Note_on_c, 2, 61, 51
10, 9567, Note_on_c, 2, 53, 0
10, 9568, Note_on_c, 2, 61, 0
10, 9599, Note_on_c, 2, 65, 60
10, 9601, Note_on_c, 2, 56, 60
10, 9688, Note_on_c, 2, 65, 0
10, 9690, Note_on_c, 2, 56, 0
10, 9840, Note_on_c, 2, 53, 65
10, 9842, Note_on_c, 2, 61, 65
10, 9929, Note_on_c, 2, 53, 0
10, 9931, Note_on_c, 2, 61, 0
10, 9958, Note_on_c, 2, 56, 63
10, 9959, Note_on_c, 2, 65, 63
10, 10047, Note_on_c, 2, 56, 0
10, 10048, Note_on_c, 2, 65, 0
10, 10208, Note_on_c, 2, 63, 67
10, 10208, Note_on_c, 2, 54, 69
10, 10297, Note_on_c, 2, 54, 0
10, 10297, Note_on_c, 2, 63, 0
10, 10325, Note_on_c, 2, 66, 73
10, 10325, Note_on_c, 2, 58, 73
10, 10414, Note_on_c, 2, 58, 0
10, 10414, Note_on_c, 2, 66, 0
10, 10568, Note_on_c, 2, 63, 70
10, 10568, Note_on_c, 2, 54, 70
10, 10657, Note_on_c, 2, 54, 0
10, 10657, Note_on_c, 2, 63, 0
10, 10685, Note_on_c, 2, 66, 72
10, 10685, Note_on_c, 2, 58, 72
10, 10756, Note_on_c, 2, 58, 0
10, 10764, Note_on_c, 2, 66, 0
10, 10920, Note_on_c, 2, 56, 73
10, 10920, Note_on_c, 2, 63, 73
10, 11009, Note_on_c, 2, 63, 0
10, 11009, Note_on_c, 2, 56, 0
10, 11040, Note_on_c, 2, 60, 67
10, 11040, Note_on_c, 2, 68, 67
10, 11129, Note_on_c, 2, 68, 0
10, 11129, Note_on_c, 2, 60, 0
10, 11280, Note_on_c, 2, 56, 71
10, 11280, Note_on_c, 2, 63, 71
10, 11369, Note_on_c, 2, 63, 0
10, 11369, Note_on_c, 2, 56, 0
10, 11400, Note_on_c, 2, 68, 67
10, 11400, Note_on_c, 2, 60, 67
10, 11489, Note_on_c, 2, 60, 0
10, 11489, Note_on_c, 2, 68, 0
10, 11640, Note_on_c, 2, 65, 73
10, 11640, Note_on_c, 2, 56, 73
10, 11729, Note_on_c, 2, 56, 0
10, 11729, Note_on_c, 2, 65, 0
10, 11760, Note_on_c, 2, 61, 76
10, 11760, Note_on_c, 2, 68, 76
10, 11849, Note_on_c, 2, 68, 0
10, 11849, Note_on_c, 2, 61, 0
10, 11880, Note_on_c, 2, 59, 65
10, 11880, Note_on_c, 2, 68, 65
10, 11880, Control_c, 2, 11, 96
10, 11890, Control_c, 2, 11, 98
10, 11900, Control_c, 2, 11, 99
10, 11910, Control_c, 2, 11, 100
10, 11920, Control_c, 2, 11, 102
10, 11930, Control_c, 2, 11, 104
10, 11940, Control_c, 2, 11, 107
10, 11950, Control_c, 2, 11, 109
10, 11960, Control_c, 2, 11, 111
10, 11970, Control_c, 2, 11, 116
10, 11980, Control_c, 2, 11, 120
10, 11990, Control_c, 2, 11, 122
10, 11999, Note_on_c, 2, 68, 0
10, 11999, Note_on_c, 2, 59, 0
10, 12000, Note_on_c, 2, 68, 74
10, 12000, Note_on_c, 2, 60, 74
10, 12000, Control_c, 2, 11, 124
10, 12010, Control_c, 2, 11, 126
10, 12020, Control_c, 2, 11, 104
10, 12030, Control_c, 2, 11, 108
10, 12040, Control_c, 2, 11, 110
10, 12050, Control_c, 2, 11, 112
10, 12060, Control_c, 2, 11, 114
10, 12070, Control_c, 2, 11, 116
10, 12080, Control_c, 2, 11, 119
10, 12089, Note_on_c, 2, 60, 0
10, 12089, Note_on_c, 2, 68, 0
10, 12090, Control_c, 2, 11, 123
10, 12100, Control_c, 2, 11, 126
10, 12110, Control_c, 2, 11, 127
10, 12240, Note_on_c, 2, 61, 78
10, 12240, Note_on_c, 2, 68, 78
10, 12250, Control_c, 2, 11, 101
10, 12260, Control_c, 2, 11, 103
10, 12270, Control_c, 2, 11, 104
10, 12280, Control_c, 2, 11, 106
10, 12290, Control_c, 2, 11, 109
10, 12300, Control_c, 2, 11, 114
10, 12310, Control_c, 2, 11, 116
10, 12320, Control_c, 2, 11, 120
10, 12329, Note_on_c, 2, 68, 0
10, 12329, Note_on_c, 2, 61, 0
10, 12330, Control_c, 2, 11, 123
10, 12340, Control_c, 2, 11, 125
10, 12350, Control_c, 2, 11, 96
10, 12360, Note_on_c, 2, 68, 84
10, 12360, Note_on_c, 2, 61, 84
10, 12360, Control_c, 2, 11, 97
10, 12370, Control_c, 2, 11, 101
10, 12380, Control_c, 2, 11, 103
10, 12390, Control_c, 2, 11, 104
10, 12400, Control_c, 2, 11, 105
10, 12410, Control_c, 2, 11, 107
10, 12430, Control_c, 2, 11, 109
10, 12440, Control_c, 2, 11, 111
10, 12449, Note_on_c, 2, 61, 0
10, 12449, Note_on_c, 2, 68, 0
10, 12450, Control_c, 2, 11, 113
10, 12460, Control_c, 2, 11, 124
10, 12600, Note_on_c, 2, 62, 105
10, 12600, Note_on_c, 2, 70, 105
10, 12610, Control_c, 2, 11, 100
10, 12620, Control_c, 2, 11, 103
10, 12630, Control_c, 2, 11, 105
10, 12640, Control_c, 2, 11, 106
10, 12650, Control_c, 2, 11, 108
10, 12660, Control_c, 2, 11, 110
10, 12670, Control_c, 2, 11, 111
10, 12680, Control_c, 2, 11, 114
10, 12689, Note_on_c, 2, 70, 0
10, 12690, Control_c, 2, 11, 118
10, 12700, Control_c, 2, 11, 123
10, 12710, Control_c, 2, 11, 124
10, 12719, Note_on_c, 2, 62, 0
10, 12720, Note_on_c, 2, 63, 116
10, 12720, Note_on_c, 2, 70, 116
10, 12720, Control_c, 2, 11, 125
10, 12730, Control_c, 2, 11, 96
10, 12740, Control_c, 2, 11, 98
10, 12760, Control_c, 2, 11, 101
10, 12770, Control_c, 2, 11, 104
10, 12780, Control_c, 2, 11, 106
10, 12790, Control_c, 2, 11, 108
10, 12800, Control_c, 2, 11, 110
10, 12809, Note_on_c, 2, 70, 0
10, 12809, Note_on_c, 2, 63, 0
10, 12810, Control_c, 2, 11, 114
10, 12820, Control_c, 2, 11, 119
10, 12830, Control_c, 2, 11, 123
10, 12840, Control_c, 2, 11, 126
10, 12950, Control_c, 2, 11, 98
10, 12960, Note_on_c, 2, 72, 118
10, 12960, Note_on_c, 2, 64, 118
10, 12970, Control_c, 2, 11, 100
10, 12980, Control_c, 2, 11, 102
10, 12990, Control_c, 2, 11, 106
10, 13000, Control_c, 2, 11, 110
10, 13010, Control_c, 2, 11, 111
10, 13020, Control_c, 2, 11, 113
10, 13030, Control_c, 2, 11, 115
10, 13040, Control_c, 2, 11, 117
10, 13049, Note_on_c, 2, 64, 0
10, 13049, Note_on_c, 2, 72, 0
10, 13050, Control_c, 2, 11, 120
10, 13060, Control_c, 2, 11, 124
10, 13070, Control_c, 2, 11, 98
10, 13080, Note_on_c, 2, 72, 126
10, 13080, Note_on_c, 2, 65, 126
10, 13080, Control_c, 2, 11, 100
10, 13100, Control_c, 2, 11, 104
10, 13110, Control_c, 2, 11, 106
10, 13120, Control_c, 2, 11, 108
10, 13130, Control_c, 2, 11, 111
10, 13140, Control_c, 2, 11, 114
10, 13150, Control_c, 2, 11, 119
10, 13160, Control_c, 2, 11, 120
10, 13169, Note_on_c, 2, 65, 0
10, 13169, Note_on_c, 2, 72, 0
10, 13170, Control_c, 2, 11, 122
10, 13180, Control_c, 2, 11, 125
10, 13190, Control_c, 2, 11, 127
10, 13200, Control_c, 2, 11, 126
10, 13200, End_track
11, 0, Start_track
11, 0, MIDI_port, 0
11, 0, Title_t, "Piano"
11, 0, Program_c, 0, 0
11, 0, Control_c, 0, 7, 110
11, 0, Control_c, 0, 10, 64
11, 2150, Note_on_c, 0, 44, 118
11, 2155, Note_on_c, 0, 49, 118
11, 2158, Note_on_c, 0, 53, 117
11, 2164, Control_c, 0, 121, 0
11, 2164, Control_c, 0, 91, 80
11, 2164, Control_c, 0, 7, 100
11, 2164, Note_on_c, 0, 37, 117
11, 2164, Note_on_c, 0, 61, 117
11, 2165, Note_on_c, 0, 56, 117
11, 2165, Note_on_c, 0, 44, 0
11, 2166, Control_c, 0, 64, 127
11, 2169, Note_on_c, 0, 49, 0
11, 2176, Note_on_c, 0, 53, 0
11, 2181, Note_on_c, 0, 56, 0
11, 2182, Note_on_c, 0, 61, 0
11, 2182, Note_on_c, 0, 37, 0
11, 2255, Note_on_c, 0, 53, 88
11, 2260, Note_on_c, 0, 56, 90
11, 2269, Note_on_c, 0, 61, 101
11, 2270, Note_on_c, 0, 53, 0
11, 2275, Note_on_c, 0, 65, 105
11, 2276, Note_on_c, 0, 56, 0
11, 2278, Note_on_c, 0, 61, 0
11, 2283, Note_on_c, 0, 85, 117
11, 2284, Note_on_c, 0, 73, 118
11, 2284, Note_on_c, 0, 77, 118
11, 2284, Note_on_c, 0, 80, 118
11, 2285, Note_on_c, 0, 68, 118
11, 2287, Note_on_c, 0, 65, 0
11, 2296, Note_on_c, 0, 68, 0
11, 2307, Note_on_c, 0, 73, 0
11, 2314, Note_on_c, 0, 77, 0
11, 2318, Note_on_c, 0, 80, 0
11, 2326, Note_on_c, 0, 85, 0
11, 2377, Note_on_c, 0, 61, 77
11, 2383, Note_on_c, 0, 65, 90
11, 2386, Note_on_c, 0, 77, 94
11, 2387, Note_on_c, 0, 68, 94
11, 2390, Note_on_c, 0, 80, 102
11, 2393, Note_on_c, 0, 65, 0
11, 2394, Note_on_c, 0, 73, 105
11, 2395, Note_on_c, 0, 85, 105
11, 2397, Note_on_c, 0, 61, 0
11, 2401, Note_on_c, 0, 68, 0
11, 2402, Note_on_c, 0, 89, 115
11, 2407, Note_on_c, 0, 73, 0
11, 2424, Note_on_c, 0, 77, 0
11, 2426, Note_on_c, 0, 80, 0
11, 2429, Note_on_c, 0, 85, 0
11, 2430, Note_on_c, 0, 89, 0
11, 2509, Note_on_c, 0, 37, 113
11, 2511, Note_on_c, 0, 53, 114
11, 2513, Control_c, 0, 64, 0
11, 2514, Note_on_c, 0, 44, 115
11, 2517, Note_on_c, 0, 49, 119
11, 2518, Note_on_c, 0, 56, 117
11, 2522, Note_on_c, 0, 61, 123
11, 2524, Control_c, 0, 64, 127
11, 2525, Note_on_c, 0, 37, 0
11, 2530, Note_on_c, 0, 53, 0
11, 2531, Note_on_c, 0, 49, 0
11, 2533, Note_on_c, 0, 44, 0
11, 2537, Note_on_c, 0, 56, 0
11, 2544, Note_on_c, 0, 61, 0
11, 2614, Note_on_c, 0, 53, 85
11, 2615, Note_on_c, 0, 56, 85
11, 2620, Note_on_c, 0, 61, 87
11, 2623, Note_on_c, 0, 73, 89
11, 2624, Note_on_c, 0, 65, 89
11, 2625, Note_on_c, 0, 53, 0
11, 2627, Note_on_c, 0, 77, 91
11, 2629, Note_on_c, 0, 56, 0
11, 2631, Note_on_c, 0, 61, 0
11, 2635, Note_on_c, 0, 80, 98
11, 2636, Note_on_c, 0, 68, 102
11, 2639, Note_on_c, 0, 65, 0
11, 2640, Note_on_c, 0, 73, 0
11, 2643, Note_on_c, 0, 85, 107
11, 2646, Note_on_c, 0, 77, 0
11, 2649, Note_on_c, 0, 80, 0
11, 2652, Note_on_c, 0, 68, 0
11, 2677, Note_on_c, 0, 85, 0
11, 2731, Note_on_c, 0, 61, 96
11, 2733, Note_on_c, 0, 77, 96
11, 2739, Note_on_c, 0, 65, 99
11, 2741, Note_on_c, 0, 80, 100
11, 2742, Note_on_c, 0, 68, 101
11, 2746, Note_on_c, 0, 73, 104
11, 2746, Note_on_c, 0, 85, 104
11, 2748, Note_on_c, 0, 61, 0
11, 2751, Note_on_c, 0, 77, 0
11, 2754, Note_on_c, 0, 89, 116
11, 2754, Note_on_c, 0, 68, 0
11, 2758, Note_on_c, 0, 80, 0
11, 2758, Note_on_c, 0, 65, 0
11, 2760, Note_on_c, 0, 73, 0
11, 2760, Note_on_c, 0, 85, 0
11, 2791, Note_on_c, 0, 89, 0
11, 2861, Note_on_c, 0, 37, 98
11, 2863, Note_on_c, 0, 53, 94
11, 2864, Control_c, 0, 64, 0
11, 2869, Note_on_c, 0, 44, 85
11, 2871, Note_on_c, 0, 56, 107
11, 2875, Control_c, 0, 64, 127
11, 2877, Note_on_c, 0, 49, 91
11, 2878, Note_on_c, 0, 37, 0
11, 2879, Note_on_c, 0, 61, 116
11, 2881, Note_on_c, 0, 53, 0
11, 2885, Note_on_c, 0, 44, 0
11, 2887, Note_on_c, 0, 56, 0
11, 2891, Note_on_c, 0, 49, 0
11, 2899, Note_on_c, 0, 61, 0
11, 2960, Note_on_c, 0, 53, 79
11, 2964, Note_on_c, 0, 56, 81
11, 2970, Note_on_c, 0, 53, 0
11, 2971, Note_on_c, 0, 61, 83
11, 2974, Note_on_c, 0, 73, 86
11, 2977, Note_on_c, 0, 56, 0
11, 2978, Note_on_c, 0, 65, 87
11, 2982, Note_on_c, 0, 77, 89
11, 2983, Note_on_c, 0, 61, 0
11, 2989, Note_on_c, 0, 73, 0
11, 2990, Note_on_c, 0, 80, 94
11, 2992, Note_on_c, 0, 68, 95
11, 2992, Note_on_c, 0, 65, 0
11, 2997, Note_on_c, 0, 85, 97
11, 2998, Note_on_c, 0, 77, 0
11, 3004, Note_on_c, 0, 68, 0
11, 3004, Note_on_c, 0, 80, 0
11, 3042, Note_on_c, 0, 85, 0
11, 3081, Note_on_c, 0, 61, 88
11, 3087, Note_on_c, 0, 77, 86
11, 3091, Note_on_c, 0, 65, 86
11, 3094, Note_on_c, 0, 68, 89
11, 3094, Note_on_c, 0, 80, 89
11, 3094, Note_on_c, 0, 61, 0
11, 3101, Note_on_c, 0, 73, 92
11, 3103, Note_on_c, 0, 77, 0
11, 3105, Note_on_c, 0, 85, 94
11, 3106, Note_on_c, 0, 68, 0
11, 3107, Note_on_c, 0, 65, 0
11, 3111, Note_on_c, 0, 80, 0
11, 3114, Note_on_c, 0, 89, 106
11, 3114, Note_on_c, 0, 73, 0
11, 3121, Note_on_c, 0, 85, 0
11, 3137, Note_on_c, 0, 89, 0
11, 3221, Note_on_c, 0, 37, 94
11, 3223, Note_on_c, 0, 53, 95
11, 3225, Control_c, 0, 64, 0
11, 3228, Note_on_c, 0, 44, 96
11, 3231, Note_on_c, 0, 56, 97
11, 3235, Control_c, 0, 64, 127
11, 3238, Note_on_c, 0, 49, 110
11, 3239, Note_on_c, 0, 37, 0
11, 3240, Note_on_c, 0, 61, 110
11, 3241, Note_on_c, 0, 53, 0
11, 3248, Note_on_c, 0, 44, 0
11, 3249, Note_on_c, 0, 56, 0
11, 3254, Note_on_c, 0, 49, 0
11, 3262, Note_on_c, 0, 61, 0
11, 3330, Note_on_c, 0, 53, 81
11, 3335, Note_on_c, 0, 56, 83
11, 3337, Note_on_c, 0, 73, 83
11, 3343, Note_on_c, 0, 61, 85
11, 3344, Note_on_c, 0, 53, 0
11, 3347, Note_on_c, 0, 77, 88
11, 3348, Note_on_c, 0, 56, 0
11, 3349, Note_on_c, 0, 65, 89
11, 3353, Note_on_c, 0, 68, 93
11, 3353, Note_on_c, 0, 61, 0
11, 3355, Note_on_c, 0, 80, 94
11, 3360, Note_on_c, 0, 85, 99
11, 3366, Note_on_c, 0, 73, 0
11, 3376, Note_on_c, 0, 77, 0
11, 3378, Note_on_c, 0, 65, 0
11, 3384, Note_on_c, 0, 80, 0
11, 3394, Note_on_c, 0, 68, 0
11, 3400, Note_on_c, 0, 85, 0
11, 3454, Note_on_c, 0, 61, 86
11, 3462, Note_on_c, 0, 77, 90
11, 3466, Note_on_c, 0, 65, 92
11, 3469, Note_on_c, 0, 68, 94
11, 3470, Note_on_c, 0, 80, 95
11, 3473, Note_on_c, 0, 61, 0
11, 3475, Note_on_c, 0, 85, 106
11, 3477, Note_on_c, 0, 73, 109
11, 3486, Note_on_c, 0, 89, 120
11, 3491, Note_on_c, 0, 77, 0
11, 3495, Note_on_c, 0, 85, 0
11, 3495, Note_on_c, 0, 65, 0
11, 3498, Note_on_c, 0, 68, 0
11, 3499, Note_on_c, 0, 80, 0
11, 3506, Note_on_c, 0, 73, 0
11, 3515, Note_on_c, 0, 89, 0
11, 3594, Note_on_c, 0, 37, 106
11, 3595, Note_on_c, 0, 49, 106
11, 3599, Note_on_c, 0, 54, 109
11, 3602, Note_on_c, 0, 58, 109
11, 3603, Control_c, 0, 64, 0
11, 3606, Note_on_c, 0, 63, 113
11, 3616, Control_c, 0, 64, 127
11, 3630, Note_on_c, 0, 54, 0
11, 3631, Note_on_c, 0, 58, 0
11, 3635, Note_on_c, 0, 63, 0
11, 3635, Note_on_c, 0, 37, 0
11, 3642, Note_on_c, 0, 49, 0
11, 3715, Note_on_c, 0, 54, 111
11, 3715, Note_on_c, 0, 58, 111
11, 3715, Note_on_c, 0, 75, 111
11, 3718, Note_on_c, 0, 63, 113
11, 3720, Note_on_c, 0, 66, 114
11, 3723, Note_on_c, 0, 78, 115
11, 3729, Note_on_c, 0, 82, 119
11, 3729, Note_on_c, 0, 87, 119
11, 3740, Note_on_c, 0, 54, 0
11, 3744, Note_on_c, 0, 66, 0
11, 3746, Note_on_c, 0, 58, 0
11, 3746, Note_on_c, 0, 63, 0
11, 3747, Note_on_c, 0, 78, 0
11, 3751, Note_on_c, 0, 75, 0
11, 3760, Note_on_c, 0, 82, 0
11, 3765, Note_on_c, 0, 87, 0
11, 3829, Note_on_c, 0, 63, 97
11, 3835, Note_on_c, 0, 66, 99
11, 3838, Note_on_c, 0, 75, 102
11, 3840, Note_on_c, 0, 78, 103
11, 3840, Note_on_c, 0, 70, 103
11, 3843, Note_on_c, 0, 82, 105
11, 3846, Note_on_c, 0, 87, 109
11, 3849, Note_on_c, 0, 90, 110
11, 3858, Note_on_c, 0, 63, 0
11, 3862, Note_on_c, 0, 70, 0
11, 3863, Note_on_c, 0, 66, 0
11, 3870, Note_on_c, 0, 78, 0
11, 3873, Note_on_c, 0, 82, 0
11, 3875, Note_on_c, 0, 87, 0
11, 3876, Note_on_c, 0, 90, 0
11, 3883, Note_on_c, 0, 75, 0
11, 3948, Note_on_c, 0, 37, 109
11, 3952, Note_on_c, 0, 49, 111
11, 3954, Note_on_c, 0, 54, 117
11, 3958, Note_on_c, 0, 58, 122
11, 3961, Control_c, 0, 64, 0
11, 3961, Control_c, 0, 64, 127
11, 3961, Note_on_c, 0, 63, 122
11, 3983, Note_on_c, 0, 54, 0
11, 3984, Note_on_c, 0, 37, 0
11, 3985, Note_on_c, 0, 63, 0
11, 3987, Note_on_c, 0, 58, 0
11, 3997, Note_on_c, 0, 49, 0
11, 4076, Note_on_c, 0, 63, 110
11, 4077, Note_on_c, 0, 58, 110
11, 4077, Note_on_c, 0, 75, 110
11, 4079, Note_on_c, 0, 78, 112
11, 4080, Note_on_c, 0, 70, 114
11, 4080, Note_on_c, 0, 66, 114
11, 4080, Note_on_c, 0, 82, 114
11, 4086, Note_on_c, 0, 87, 125
11, 4104, Note_on_c, 0, 78, 0
11, 4106, Note_on_c, 0, 58, 0
11, 4108, Note_on_c, 0, 82, 0
11, 4110, Note_on_c, 0, 75, 0
11, 4115, Note_on_c, 0, 87, 0
11, 4118, Note_on_c, 0, 63, 0
11, 4120, Note_on_c, 0, 66, 0
11, 4128, Note_on_c, 0, 70, 0
11, 4193, Note_on_c, 0, 63, 104
11, 4194, Note_on_c, 0, 78, 106
11, 4198, Note_on_c, 0, 66, 114
11, 4203, Note_on_c, 0, 82, 117
11, 4204, Note_on_c, 0, 75, 119
11, 4206, Note_on_c, 0, 70, 120
11, 4207, Note_on_c, 0, 87, 120
11, 4208, Note_on_c, 0, 90, 123
11, 4219, Note_on_c, 0, 78, 0
11, 4221, Note_on_c, 0, 82, 0
11, 4233, Note_on_c, 0, 75, 0
11, 4236, Note_on_c, 0, 87, 0
11, 4237, Note_on_c, 0, 90, 0
11, 4253, Note_on_c, 0, 70, 0
11, 4253, Note_on_c, 0, 66, 0
11, 4257, Note_on_c, 0, 63, 0
11, 4314, Note_on_c, 0, 37, 118
11, 4316, Note_on_c, 0, 49, 117
11, 4319, Note_on_c, 0, 51, 105
11, 4321, Control_c, 0, 64, 0
11, 4321, Control_c, 0, 64, 127
11, 4321, Note_on_c, 0, 56, 111
11, 4325, Note_on_c, 0, 60, 117
11, 4329, Note_on_c, 0, 63, 125
11, 4347, Note_on_c, 0, 51, 0
11, 4348, Note_on_c, 0, 56, 0
11, 4353, Note_on_c, 0, 37, 0
11, 4356, Note_on_c, 0, 60, 0
11, 4360, Note_on_c, 0, 63, 0
11, 4367, Note_on_c, 0, 49, 0
11, 4439, Note_on_c, 0, 68, 49
11, 4440, Note_on_c, 0, 56, 126
11, 4442, Note_on_c, 0, 75, 108
11, 4444, Note_on_c, 0, 80, 117
11, 4446, Note_on_c, 0, 84, 118
11, 4449, Note_on_c, 0, 87, 126
11, 4468, Note_on_c, 0, 68, 0
11, 4469, Note_on_c, 0, 56, 0
11, 4481, Note_on_c, 0, 80, 0
11, 4481, Note_on_c, 0, 75, 0
11, 4485, Note_on_c, 0, 84, 0
11, 4489, Note_on_c, 0, 87, 0
11, 4556, Note_on_c, 0, 80, 116
11, 4557, Note_on_c, 0, 84, 118
11, 4558, Note_on_c, 0, 63, 118
11, 4560, Note_on_c, 0, 87, 122
11, 4563, Note_on_c, 0, 68, 121
11, 4566, Note_on_c, 0, 72, 124
11, 4566, Note_on_c, 0, 92, 125
11, 4567, Note_on_c, 0, 75, 127
11, 4587, Note_on_c, 0, 75, 0
11, 4587, Note_on_c, 0, 92, 0
11, 4591, Note_on_c, 0, 87, 0
11, 4593, Note_on_c, 0, 80, 0
11, 4593, Note_on_c, 0, 84, 0
11, 4595, Note_on_c, 0, 72, 0
11, 4601, Note_on_c, 0, 68, 0
11, 4606, Note_on_c, 0, 63, 0
11, 4678, Note_on_c, 0, 37, 126
11, 4680, Note_on_c, 0, 49, 114
11, 4681, Note_on_c, 0, 56, 111
11, 4681, Note_on_c, 0, 53, 113
11, 4685, Note_on_c, 0, 60, 114
11, 4686, Control_c, 0, 64, 0
11, 4689, Note_on_c, 0, 63, 126
11, 4700, Control_c, 0, 64, 127
11, 4700, Note_on_c, 0, 53, 0
11, 4708, Note_on_c, 0, 56, 0
11, 4716, Note_on_c, 0, 60, 0
11, 4717, Note_on_c, 0, 37, 0
11, 4720, Note_on_c, 0, 63, 0
11, 4731, Note_on_c, 0, 49, 0
11, 4797, Note_on_c, 0, 68, 49
11, 4799, Note_on_c, 0, 56, 125
11, 4801, Note_on_c, 0, 75, 101
11, 4804, Note_on_c, 0, 80, 109
11, 4807, Note_on_c, 0, 84, 126
11, 4809, Note_on_c, 0, 87, 125
11, 4826, Note_on_c, 0, 68, 0
11, 4828, Note_on_c, 0, 56, 0
11, 4840, Note_on_c, 0, 75, 0
11, 4841, Note_on_c, 0, 80, 0
11, 4846, Note_on_c, 0, 84, 0
11, 4849, Note_on_c, 0, 87, 0
11, 4911, Note_on_c, 0, 80, 94
11, 4917, Note_on_c, 0, 84, 109
11, 4918, Note_on_c, 0, 63, 111
11, 4923, Note_on_c, 0, 68, 113
11, 4924, Note_on_c, 0, 87, 114
11, 4926, Note_on_c, 0, 72, 115
11, 4927, Note_on_c, 0, 92, 119
11, 4928, Note_on_c, 0, 75, 126
11, 4948, Note_on_c, 0, 75, 0
11, 4948, Note_on_c, 0, 92, 0
11, 4948, Note_on_c, 0, 80, 0
11, 4953, Note_on_c, 0, 84, 0
11, 4955, Note_on_c, 0, 87, 0
11, 4955, Note_on_c, 0, 72, 0
11, 4961, Note_on_c, 0, 68, 0
11, 4966, Note_on_c, 0, 63, 0
11, 5034, Note_on_c, 0, 53, 109
11, 5040, Note_on_c, 0, 56, 111
11, 5041, Note_on_c, 0, 37, 111
11, 5042, Note_on_c, 0, 49, 113
11, 5043, Control_c, 0, 64, 0
11, 5043, Note_on_c, 0, 61, 113
11, 5049, Note_on_c, 0, 65, 123
11, 5057, Control_c, 0, 64, 127
11, 5063, Note_on_c, 0, 53, 0
11, 5069, Note_on_c, 0, 61, 0
11, 5069, Note_on_c, 0, 56, 0
11, 5070, Note_on_c, 0, 37, 0
11, 5077, Note_on_c, 0, 65, 0
11, 5081, Note_on_c, 0, 49, 0
11, 5157, Note_on_c, 0, 53, 100
11, 5158, Note_on_c, 0, 56, 101
11, 5160, Note_on_c, 0, 61, 102
11, 5163, Note_on_c, 0, 65, 103
11, 5171, Note_on_c, 0, 77, 109
11, 5173, Note_on_c, 0, 80, 109
11, 5174, Note_on_c, 0, 85, 112
11, 5175, Note_on_c, 0, 89, 125
11, 5186, Note_on_c, 0, 61, 0
11, 5186, Note_on_c, 0, 53, 0
11, 5188, Note_on_c, 0, 65, 0
11, 5192, Note_on_c, 0, 56, 0
11, 5196, Note_on_c, 0, 77, 0
11, 5200, Note_on_c, 0, 85, 0
11, 5201, Note_on_c, 0, 89, 0
11, 5201, Note_on_c, 0, 80, 0
11, 5266, Note_on_c, 0, 61, 89
11, 5274, Note_on_c, 0, 77, 98
11, 5278, Note_on_c, 0, 65, 102
11, 5280, Note_on_c, 0, 68, 103
11, 5281, Note_on_c, 0, 80, 103
11, 5284, Note_on_c, 0, 85, 105
11, 5287, Note_on_c, 0, 73, 109
11, 5289, Note_on_c, 0, 89, 112
11, 5290, Note_on_c, 0, 92, 124
11, 5296, Note_on_c, 0, 77, 0
11, 5302, Note_on_c, 0, 80, 0
11, 5304, Note_on_c, 0, 65, 0
11, 5307, Note_on_c, 0, 85, 0
11, 5312, Note_on_c, 0, 68, 0
11, 5316, Note_on_c, 0, 61, 0
11, 5316, Note_on_c, 0, 73, 0
11, 5318, Note_on_c, 0, 89, 0
11, 5319, Note_on_c, 0, 92, 0
11, 5394, Note_on_c, 0, 56, 109
11, 5395, Note_on_c, 0, 44, 110
11, 5405, Control_c, 0, 64, 0
11, 5405, Note_on_c, 0, 51, 127
11, 5406, Note_on_c, 0, 60, 118
11, 5406, Note_on_c, 0, 63, 118
11, 5417, Control_c, 0, 64, 127
11, 5417, Note_on_c, 0, 56, 0
11, 5425, Note_on_c, 0, 44, 0
11, 5427, Note_on_c, 0, 60, 0
11, 5427, Note_on_c, 0, 51, 0
11, 5433, Note_on_c, 0, 63, 0
11, 5507, Note_on_c, 0, 60, 108
11, 5511, Note_on_c, 0, 63, 109
11, 5514, Note_on_c, 0, 75, 111
11, 5516, Note_on_c, 0, 68, 112
11, 5516, Note_on_c, 0, 80, 112
11, 5519, Note_on_c, 0, 72, 112
11, 5519, Note_on_c, 0, 84, 112
11, 5521, Note_on_c, 0, 87, 113
11, 5536, Note_on_c, 0, 60, 0
11, 5543, Note_on_c, 0, 80, 0
11, 5546, Note_on_c, 0, 87, 0
11, 5546, Note_on_c, 0, 84, 0
11, 5547, Note_on_c, 0, 68, 0
11, 5548, Note_on_c, 0, 72, 0
11, 5556, Note_on_c, 0, 75, 0
11, 5557, Note_on_c, 0, 63, 0
11, 5617, Note_on_c, 0, 56, 101
11, 5624, Note_on_c, 0, 60, 101
11, 5626, Note_on_c, 0, 63, 103
11, 5630, Note_on_c, 0, 68, 105
11, 5630, Note_on_c, 0, 72, 105
11, 5633, Note_on_c, 0, 75, 110
11, 5637, Note_on_c, 0, 80, 113
11, 5640, Note_on_c, 0, 84, 117
11, 5645, Note_on_c, 0, 56, 0
11, 5654, Note_on_c, 0, 60, 0
11, 5659, Note_on_c, 0, 68, 0
11, 5659, Note_on_c, 0, 80, 0
11, 5662, Note_on_c, 0, 63, 0
11, 5665, Note_on_c, 0, 75, 0
11, 5667, Note_on_c, 0, 72, 0
11, 5669, Note_on_c, 0, 84, 0
11, 5752, Note_on_c, 0, 53, 109
11, 5759, Note_on_c, 0, 37, 112
11, 5759, Note_on_c, 0, 49, 112
11, 5761, Note_on_c, 0, 56, 114
11, 5764, Control_c, 0, 64, 0
11, 5771, Note_on_c, 0, 61, 126
11, 5778, Note_on_c, 0, 53, 0
11, 5779, Control_c, 0, 64, 127
11, 5790, Note_on_c, 0, 56, 0
11, 5790, Note_on_c, 0, 37, 0
11, 5799, Note_on_c, 0, 61, 0
11, 5802, Note_on_c, 0, 49, 0
11, 5849, Note_on_c, 0, 53, 93
11, 5857, Note_on_c, 0, 56, 95
11, 5864, Note_on_c, 0, 61, 98
11, 5866, Note_on_c, 0, 73, 99
11, 5868, Note_on_c, 0, 65, 99
11, 5874, Note_on_c, 0, 77, 102
11, 5878, Note_on_c, 0, 53, 0
11, 5881, Note_on_c, 0, 80, 110
11, 5882, Note_on_c, 0, 85, 125
11, 5884, Note_on_c, 0, 68, 125
11, 5886, Note_on_c, 0, 56, 0
11, 5893, Note_on_c, 0, 61, 0
11, 5897, Note_on_c, 0, 65, 0
11, 5901, Note_on_c, 0, 77, 0
11, 5908, Note_on_c, 0, 73, 0
11, 5912, Note_on_c, 0, 80, 0
11, 5919, Note_on_c, 0, 68, 0
11, 5919, Note_on_c, 0, 85, 0
11, 5972, Note_on_c, 0, 61, 94
11, 5977, Note_on_c, 0, 77, 95
11, 5979, Note_on_c, 0, 65, 96
11, 5982, Note_on_c, 0, 73, 107
11, 5983, Note_on_c, 0, 80, 100
11, 5984, Note_on_c, 0, 68, 101
11, 5989, Note_on_c, 0, 85, 105
11, 5996, Note_on_c, 0, 77, 0
11, 5997, Note_on_c, 0, 89, 127
11, 6000, Note_on_c, 0, 80, 0
11, 6001, Note_on_c, 0, 61, 0
11, 6002, Note_on_c, 0, 73, 0
11, 6005, Note_on_c, 0, 85, 0
11, 6007, Note_on_c, 0, 68, 0
11, 6008, Note_on_c, 0, 65, 0
11, 6022, Note_on_c, 0, 89, 0
11, 6106, Note_on_c, 0, 53, 109
11, 6113, Note_on_c, 0, 49, 113
11, 6114, Note_on_c, 0, 37, 113
11, 6117, Control_c, 0, 64, 0
11, 6117, Note_on_c, 0, 56, 117
11, 6121, Note_on_c, 0, 61, 124
11, 6130, Control_c, 0, 64, 127
11, 6135, Note_on_c, 0, 53, 0
11, 6146, Note_on_c, 0, 56, 0
11, 6147, Note_on_c, 0, 37, 0
11, 6156, Note_on_c, 0, 61, 0
11, 6160, Note_on_c, 0, 49, 0
11, 6227, Note_on_c, 0, 53, 95
11, 6227, Note_on_c, 0, 73, 95
11, 6228, Note_on_c, 0, 56, 96
11, 6232, Note_on_c, 0, 61, 103
11, 6235, Note_on_c, 0, 77, 106
11, 6241, Note_on_c, 0, 65, 112
11, 6242, Note_on_c, 0, 80, 113
11, 6247, Note_on_c, 0, 85, 117
11, 6256, Note_on_c, 0, 77, 0
11, 6256, Note_on_c, 0, 53, 0
11, 6257, Note_on_c, 0, 56, 0
11, 6259, Note_on_c, 0, 73, 0
11, 6259, Note_on_c, 0, 80, 0
11, 6261, Note_on_c, 0, 61, 0
11, 6270, Note_on_c, 0, 65, 0
11, 6275, Note_on_c, 0, 85, 0
11, 6339, Note_on_c, 0, 61, 99
11, 6340, Note_on_c, 0, 65, 101
11, 6341, Note_on_c, 0, 77, 101
11, 6349, Note_on_c, 0, 80, 105
11, 6350, Note_on_c, 0, 68, 105
11, 6353, Note_on_c, 0, 73, 114
11, 6355, Note_on_c, 0, 85, 109
11, 6361, Note_on_c, 0, 77, 0
11, 6363, Note_on_c, 0, 89, 127
11, 6367, Note_on_c, 0, 80, 0
11, 6368, Note_on_c, 0, 61, 0
11, 6371, Note_on_c, 0, 85, 0
11, 6371, Note_on_c, 0, 73, 0
11, 6377, Note_on_c, 0, 65, 0
11, 6389, Note_on_c, 0, 68, 0
11, 6392, Note_on_c, 0, 89, 0
11, 6468, Note_on_c, 0, 58, 111
11, 6472, Note_on_c, 0, 42, 114
11, 6476, Note_on_c, 0, 54, 116
11, 6479, Note_on_c, 0, 61, 116
11, 6481, Control_c, 0, 64, 0
11, 6484, Note_on_c, 0, 63, 127
11, 6489, Note_on_c, 0, 58, 0
11, 6494, Control_c, 0, 64, 127
11, 6499, Note_on_c, 0, 42, 0
11, 6505, Note_on_c, 0, 61, 0
11, 6512, Note_on_c, 0, 63, 0
11, 6513, Note_on_c, 0, 54, 0
11, 6600, Note_on_c, 0, 61, 105
11, 6600, Note_on_c, 0, 58, 105
11, 6604, Note_on_c, 0, 85, 105
11, 6605, Note_on_c, 0, 78, 106
11, 6606, Note_on_c, 0, 80, 108
11, 6608, Note_on_c, 0, 87, 127
11, 6610, Note_on_c, 0, 66, 110
11, 6618, Note_on_c, 0, 70, 125
11, 6628, Note_on_c, 0, 78, 0
11, 6628, Note_on_c, 0, 58, 0
11, 6635, Note_on_c, 0, 80, 0
11, 6637, Note_on_c, 0, 85, 0
11, 6640, Note_on_c, 0, 87, 0
11, 6647, Note_on_c, 0, 61, 0
11, 6649, Note_on_c, 0, 66, 0
11, 6653, Note_on_c, 0, 70, 0
11, 6705, Note_on_c, 0, 63, 104
11, 6705, Note_on_c, 0, 66, 104
11, 6709, Note_on_c, 0, 80, 105
11, 6713, Note_on_c, 0, 70, 106
11, 6714, Note_on_c, 0, 82, 107
11, 6719, Note_on_c, 0, 85, 109
11, 6727, Note_on_c, 0, 75, 124
11, 6728, Note_on_c, 0, 87, 124
11, 6730, Note_on_c, 0, 90, 125
11, 6744, Note_on_c, 0, 82, 0
11, 6747, Note_on_c, 0, 80, 0
11, 6752, Note_on_c, 0, 75, 0
11, 6752, Note_on_c, 0, 85, 0
11, 6757, Note_on_c, 0, 90, 0
11, 6759, Note_on_c, 0, 70, 0
11, 6759, Note_on_c, 0, 87, 0
11, 6760, Note_on_c, 0, 63, 0
11, 6763, Note_on_c, 0, 66, 0
11, 6834, Note_on_c, 0, 58, 108
11, 6839, Note_on_c, 0, 60, 110
11, 6842, Note_on_c, 0, 39, 114
11, 6842, Note_on_c, 0, 51, 114
11, 6844, Note_on_c, 0, 66, 126
11, 6846, Control_c, 0, 64, 0
11, 6861, Control_c, 0, 64, 127
11, 6870, Note_on_c, 0, 60, 0
11, 6870, Note_on_c, 0, 58, 0
11, 6875, Note_on_c, 0, 39, 0
11, 6877, Note_on_c, 0, 66, 0
11, 6885, Note_on_c, 0, 51, 0
11, 6953, Note_on_c, 0, 66, 117
11, 6958, Note_on_c, 0, 70, 124
11, 6961, Note_on_c, 0, 78, 117
11, 6965, Note_on_c, 0, 82, 118
11, 6971, Note_on_c, 0, 84, 124
11, 6994, Note_on_c, 0, 82, 0
11, 6998, Note_on_c, 0, 78, 0
11, 7001, Note_on_c, 0, 66, 0
11, 7012, Note_on_c, 0, 70, 0
11, 7030, Note_on_c, 0, 84, 0
11, 7066, Note_on_c, 0, 63, 109
11, 7070, Note_on_c, 0, 70, 112
11, 7075, Note_on_c, 0, 78, 116
11, 7078, Note_on_c, 0, 82, 118
11, 7079, Note_on_c, 0, 75, 124
11, 7084, Note_on_c, 0, 84, 124
11, 7084, Note_on_c, 0, 90, 124
11, 7104, Note_on_c, 0, 78, 0
11, 7116, Note_on_c, 0, 75, 0
11, 7122, Note_on_c, 0, 82, 0
11, 7134, Note_on_c, 0, 84, 0
11, 7140, Note_on_c, 0, 70, 0
11, 7143, Note_on_c, 0, 90, 0
11, 7143, Note_on_c, 0, 63, 0
11, 7178, Note_on_c, 0, 53, 64
11, 7182, Note_on_c, 0, 60, 69
11, 7189, Note_on_c, 0, 77, 73
11, 7194, Note_on_c, 0, 53, 0
11, 7196, Note_on_c, 0, 81, 75
11, 7197, Note_on_c, 0, 60, 0
11, 7201, Note_on_c, 0, 84, 78
11, 7204, Note_on_c, 0, 69, 81
11, 7205, Note_on_c, 0, 89, 84
11, 7212, Control_c, 0, 64, 0
11, 7218, Note_on_c, 0, 77, 0
11, 7219, Control_c, 0, 64, 127
11, 7225, Note_on_c, 0, 81, 0
11, 7230, Note_on_c, 0, 84, 0
11, 7233, Note_on_c, 0, 69, 0
11, 7264, Note_on_c, 0, 89, 0
11, 7286, Note_on_c, 0, 58, 63
11, 7291, Note_on_c, 0, 65, 64
11, 7297, Note_on_c, 0, 68, 68
11, 7298, Note_on_c, 0, 76, 69
11, 7299, Note_on_c, 0, 58, 0
11, 7305, Note_on_c, 0, 65, 0
11, 7306, Note_on_c, 0, 80, 73
11, 7307, Note_on_c, 0, 82, 73
11, 7307, Note_on_c, 0, 74, 73
11, 7308, Note_on_c, 0, 68, 0
11, 7310, Note_on_c, 0, 86, 75
11, 7316, Note_on_c, 0, 89, 77
11, 7318, Note_on_c, 0, 76, 0
11, 7327, Note_on_c, 0, 80, 0
11, 7333, Note_on_c, 0, 74, 0
11, 7334, Note_on_c, 0, 82, 0
11, 7340, Note_on_c, 0, 86, 0
11, 7349, Note_on_c, 0, 89, 0
11, 7407, Note_on_c, 0, 51, 68
11, 7414, Note_on_c, 0, 58, 66
11, 7417, Control_c, 0, 64, 0
11, 7421, Note_on_c, 0, 75, 71
11, 7424, Note_on_c, 0, 63, 74
11, 7427, Note_on_c, 0, 79, 76
11, 7430, Control_c, 0, 64, 127
11, 7433, Note_on_c, 0, 82, 82
11, 7434, Note_on_c, 0, 67, 82
11, 7436, Note_on_c, 0, 87, 84
11, 7450, Note_on_c, 0, 75, 0
11, 7453, Note_on_c, 0, 63, 0
11, 7456, Note_on_c, 0, 79, 0
11, 7462, Note_on_c, 0, 82, 0
11, 7463, Note_on_c, 0, 67, 0
11, 7466, Note_on_c, 0, 51, 0
11, 7473, Note_on_c, 0, 58, 0
11, 7490, Note_on_c, 0, 87, 0
11, 7535, Note_on_c, 0, 56, 57
11, 7538, Note_on_c, 0, 60, 58
11, 7547, Note_on_c, 0, 63, 65
11, 7548, Note_on_c, 0, 78, 66
11, 7551, Note_on_c, 0, 68, 68
11, 7554, Note_on_c, 0, 80, 68
11, 7558, Note_on_c, 0, 84, 83
11, 7563, Note_on_c, 0, 87, 84
11, 7564, Control_c, 0, 64, 0
11, 7567, Note_on_c, 0, 60, 0
11, 7576, Control_c, 0, 64, 127
11, 7576, Note_on_c, 0, 63, 0
11, 7577, Note_on_c, 0, 78, 0
11, 7580, Note_on_c, 0, 68, 0
11, 7587, Note_on_c, 0, 84, 0
11, 7594, Note_on_c, 0, 56, 0
11, 7605, Note_on_c, 0, 80, 0
11, 7614, Note_on_c, 0, 87, 0
11, 7656, Note_on_c, 0, 49, 50
11, 7660, Note_on_c, 0, 56, 53
11, 7665, Note_on_c, 0, 73, 53
11, 7670, Note_on_c, 0, 77, 63
11, 7672, Note_on_c, 0, 61, 63
11, 7678, Note_on_c, 0, 65, 72
11, 7678, Note_on_c, 0, 80, 72
11, 7679, Note_on_c, 0, 85, 72
11, 7682, Control_c, 0, 64, 0
11, 7689, Note_on_c, 0, 56, 0
11, 7694, Note_on_c, 0, 73, 0
11, 7696, Control_c, 0, 64, 127
11, 7699, Note_on_c, 0, 77, 0
11, 7701, Note_on_c, 0, 61, 0
11, 7707, Note_on_c, 0, 80, 0
11, 7707, Note_on_c, 0, 65, 0
11, 7715, Note_on_c, 0, 49, 0
11, 7726, Note_on_c, 0, 85, 0
11, 7768, Note_on_c, 0, 43, 62
11, 7778, Note_on_c, 0, 49, 67
11, 7787, Note_on_c, 0, 53, 72
11, 7790, Note_on_c, 0, 70, 73
11, 7795, Note_on_c, 0, 73, 75
11, 7796, Note_on_c, 0, 58, 77
11, 7800, Note_on_c, 0, 77, 80
11, 7804, Note_on_c, 0, 82, 80
11, 7807, Note_on_c, 0, 49, 0
11, 7810, Control_c, 0, 64, 0
11, 7816, Note_on_c, 0, 53, 0
11, 7819, Note_on_c, 0, 70, 0
11, 7823, Control_c, 0, 64, 127
11, 7824, Note_on_c, 0, 73, 0
11, 7825, Note_on_c, 0, 58, 0
11, 7827, Note_on_c, 0, 43, 0
11, 7829, Note_on_c, 0, 77, 0
11, 7854, Note_on_c, 0, 82, 0
11, 7910, Note_on_c, 0, 53, 79
11, 7911, Note_on_c, 0, 44, 79
11, 7913, Note_on_c, 0, 49, 79
11, 7914, Note_on_c, 0, 68, 79
11, 7917, Note_on_c, 0, 61, 79
11, 7919, Note_on_c, 0, 77, 80
11, 7919, Note_on_c, 0, 73, 80
11, 7919, Note_on_c, 0, 56, 80
11, 7923, Note_on_c, 0, 80, 94
11, 7939, Note_on_c, 0, 53, 0
11, 7942, Note_on_c, 0, 49, 0
11, 7943, Note_on_c, 0, 68, 0
11, 7946, Note_on_c, 0, 61, 0
11, 7948, Note_on_c, 0, 73, 0
11, 7948, Note_on_c, 0, 56, 0
11, 7948, Note_on_c, 0, 77, 0
11, 7970, Note_on_c, 0, 80, 0
11, 7970, Note_on_c, 0, 44, 0
11, 8030, Note_on_c, 0, 49, 94
11, 8030, Note_on_c, 0, 53, 94
11, 8032, Note_on_c, 0, 65, 85
11, 8032, Note_on_c, 0, 61, 85
11, 8034, Note_on_c, 0, 56, 86
11, 8037, Note_on_c, 0, 68, 87
11, 8038, Note_on_c, 0, 73, 88
11, 8044, Note_on_c, 0, 77, 103
11, 8055, Control_c, 0, 64, 0
11, 8061, Note_on_c, 0, 65, 0
11, 8063, Note_on_c, 0, 56, 0
11, 8065, Note_on_c, 0, 61, 0
11, 8066, Note_on_c, 0, 68, 0
11, 8072, Control_c, 0, 64, 127
11, 8086, Note_on_c, 0, 77, 0
11, 8089, Note_on_c, 0, 53, 0
11, 8091, Note_on_c, 0, 49, 0
11, 8097, Note_on_c, 0, 73, 0
11, 8148, Note_on_c, 0, 53, 98
11, 8152, Note_on_c, 0, 61, 101
11, 8154, Note_on_c, 0, 56, 102
11, 8155, Note_on_c, 0, 65, 105
11, 8158, Note_on_c, 0, 68, 114
11, 8162, Note_on_c, 0, 73, 114
11, 8178, Control_c, 0, 64, 0
11, 8183, Note_on_c, 0, 56, 0
11, 8192, Control_c, 0, 64, 127
11, 8193, Note_on_c, 0, 65, 0
11, 8193, Note_on_c, 0, 61, 0
11, 8205, Note_on_c, 0, 68, 0
11, 8210, Note_on_c, 0, 73, 0
11, 8215, Note_on_c, 0, 53, 0
11, 8269, Note_on_c, 0, 51, 91
11, 8272, Note_on_c, 0, 63, 93
11, 8276, Note_on_c, 0, 67, 95
11, 8278, Note_on_c, 0, 55, 97
11, 8279, Control_c, 0, 64, 0
11, 8282, Note_on_c, 0, 70, 100
11, 8287, Note_on_c, 0, 58, 111
11, 8297, Control_c, 0, 64, 127
11, 8301, Note_on_c, 0, 63, 0
11, 8312, Note_on_c, 0, 67, 0
11, 8318, Note_on_c, 0, 58, 0
11, 8321, Note_on_c, 0, 55, 0
11, 8327, Note_on_c, 0, 51, 0
11, 8331, Note_on_c, 0, 70, 0
11, 8382, Note_on_c, 0, 39, 97
11, 8386, Note_on_c, 0, 55, 100
11, 8386, Note_on_c, 0, 46, 100
11, 8393, Note_on_c, 0, 58, 105
11, 8397, Note_on_c, 0, 51, 114
11, 8398, Note_on_c, 0, 63, 115
11, 8402, Note_on_c, 0, 67, 115
11, 8404, Control_c, 0, 64, 0
11, 8415, Note_on_c, 0, 46, 0
11, 8418, Control_c, 0, 64, 127
11, 8422, Note_on_c, 0, 58, 0
11, 8445, Note_on_c, 0, 55, 0
11, 8456, Note_on_c, 0, 51, 0
11, 8457, Note_on_c, 0, 63, 0
11, 8460, Note_on_c, 0, 39, 0
11, 8491, Note_on_c, 0, 67, 0
11, 8505, Note_on_c, 0, 54, 97
11, 8508, Note_on_c, 0, 44, 100
11, 8515, Note_on_c, 0, 60, 111
11, 8518, Note_on_c, 0, 51, 114
11, 8518, Note_on_c, 0, 63, 115
11, 8521, Note_on_c, 0, 66, 115
11, 8525, Control_c, 0, 64, 0
11, 8534, Note_on_c, 0, 54, 0
11, 8541, Control_c, 0, 64, 127
11, 8547, Note_on_c, 0, 63, 0
11, 8567, Note_on_c, 0, 51, 0
11, 8567, Note_on_c, 0, 44, 0
11, 8574, Note_on_c, 0, 60, 0
11, 8593, Note_on_c, 0, 66, 0
11, 8627, Note_on_c, 0, 37, 87
11, 8630, Note_on_c, 0, 53, 89
11, 8635, Note_on_c, 0, 44, 92
11, 8637, Note_on_c, 0, 56, 108
11, 8637, Note_on_c, 0, 61, 108
11, 8641, Note_on_c, 0, 49, 108
11, 8646, Note_on_c, 0, 65, 119
11, 8647, Control_c, 0, 64, 0
11, 8647, Control_c, 0, 64, 127
11, 8647, Control_c, 0, 64, 0
11, 8647, Control_c, 0, 121, 0
11, 8689, Note_on_c, 0, 53, 0
11, 8724, Note_on_c, 0, 44, 0
11, 8726, Note_on_c, 0, 61, 0
11, 8726, Note_on_c, 0, 56, 0
11, 8730, Note_on_c, 0, 49, 0
11, 8783, Note_on_c, 0, 65, 0
11, 8786, Note_on_c, 0, 37, 0
11, 8786, End_track
12, 0, Start_track
12, 0, MIDI_port, 0
12, 0, Title_t, "Piano"
12, 0, Program_c, 0, 0
12, 0, Control_c, 0, 7, 110
12, 0, Control_c, 0, 10, 64
12, 9167, Control_c, 0, 121, 0
12, 9167, Control_c, 0, 91, 50
12, 9167, Control_c, 0, 7, 100
12, 9167, Control_c, 0, 64, 0
12, 9167, Control_c, 0, 64, 127
12, 9189, Note_on_c, 0, 80, 119
12, 9189, Note_on_c, 0, 68, 119
12, 9189, Note_on_c, 0, 61, 119
12, 9189, Note_on_c, 0, 53, 119
12, 9197, Note_on_c, 0, 80, 0
12, 9198, Note_on_c, 0, 68, 0
12, 9198, Note_on_c, 0, 61, 0
12, 9200, Note_on_c, 0, 53, 0
12, 9208, Note_on_c, 0, 61, 122
12, 9208, Note_on_c, 0, 80, 122
12, 9208, Note_on_c, 0, 73, 122
12, 9208, Note_on_c, 0, 68, 122
12, 9208, Note_on_c, 0, 56, 122
12, 9208, Note_on_c, 0, 53, 122
12, 9217, Note_on_c, 0, 56, 0
12, 9219, Note_on_c, 0, 68, 0
12, 9229, Note_on_c, 0, 61, 0
12, 9237, Note_on_c, 0, 80, 0
12, 9237, Note_on_c, 0, 53, 0
12, 9237, Note_on_c, 0, 73, 0
12, 9245, Note_on_c, 0, 77, 107
12, 9245, Note_on_c, 0, 68, 107
12, 9245, Note_on_c, 0, 61, 107
12, 9245, Note_on_c, 0, 53, 107
12, 9253, Note_on_c, 0, 61, 0
12, 9254, Note_on_c, 0, 77, 0
12, 9255, Note_on_c, 0, 68, 0
12, 9258, Note_on_c, 0, 53, 0
12, 9264, Note_on_c, 0, 73, 112
12, 9264, Note_on_c, 0, 68, 112
12, 9264, Note_on_c, 0, 77, 112
12, 9264, Note_on_c, 0, 53, 112
12, 9264, Note_on_c, 0, 61, 112
12, 9264, Note_on_c, 0, 56, 112
12, 9277, Note_on_c, 0, 56, 0
12, 9279, Note_on_c, 0, 68, 0
12, 9288, Note_on_c, 0, 61, 0
12, 9290, Note_on_c, 0, 53, 0
12, 9293, Note_on_c, 0, 77, 0
12, 9293, Note_on_c, 0, 73, 0
12, 9303, Note_on_c, 0, 51, 121
12, 9303, Note_on_c, 0, 68, 121
12, 9303, Note_on_c, 0, 75, 121
12, 9304, Control_c, 0, 64, 0
12, 9304, Control_c, 0, 64, 127
12, 9309, Note_on_c, 0, 75, 0
12, 9313, Note_on_c, 0, 68, 0
12, 9315, Note_on_c, 0, 51, 0
12, 9323, Note_on_c, 0, 75, 123
12, 9323, Note_on_c, 0, 61, 123
12, 9323, Note_on_c, 0, 56, 123
12, 9323, Note_on_c, 0, 51, 123
12, 9323, Note_on_c, 0, 68, 123
12, 9344, Note_on_c, 0, 68, 0
12, 9348, Note_on_c, 0, 51, 0
12, 9349, Note_on_c, 0, 56, 0
12, 9352, Note_on_c, 0, 61, 0
12, 9352, Note_on_c, 0, 75, 0
12, 9360, Note_on_c, 0, 49, 124
12, 9360, Note_on_c, 0, 56, 124
12, 9361, Note_on_c, 0, 65, 124
12, 9361, Note_on_c, 0, 73, 124
12, 9369, Note_on_c, 0, 65, 0
12, 9369, Note_on_c, 0, 49, 0
12, 9370, Note_on_c, 0, 73, 0
12, 9371, Note_on_c, 0, 56, 0
12, 9379, Control_c, 0, 64, 0
12, 9380, Note_on_c, 0, 73, 127
12, 9380, Note_on_c, 0, 61, 127
12, 9380, Note_on_c, 0, 68, 127
12, 9380, Note_on_c, 0, 65, 127
12, 9381, Note_on_c, 0, 49, 127
12, 9381, Note_on_c, 0, 56, 127
12, 9422, Control_c, 0, 64, 127
12, 9434, Note_on_c, 0, 49, 0
12, 9434, Note_on_c, 0, 65, 0
12, 9435, Note_on_c, 0, 68, 0
12, 9441, Note_on_c, 0, 73, 0
12, 9441, Note_on_c, 0, 56, 0
12, 9447, Note_on_c, 0, 61, 0
12, 9490, Note_on_c, 0, 80, 127
12, 9490, Note_on_c, 0, 85, 127
12, 9490, Note_on_c, 0, 61, 127
12, 9490, Note_on_c, 0, 65, 127
12, 9491, Note_on_c, 0, 89, 127
12, 9492, Note_on_c, 0, 53, 127
12, 9492, Note_on_c, 0, 56, 127
12, 9492, Note_on_c, 0, 77, 127
12, 9498, Control_c, 0, 64, 0
12, 9559, Control_c, 0, 64, 127
12, 9577, Note_on_c, 0, 53, 0
12, 9581, Note_on_c, 0, 77, 0
12, 9594, Note_on_c, 0, 65, 0
12, 9596, Note_on_c, 0, 85, 0
12, 9610, Note_on_c, 0, 89, 0
12, 9611, Note_on_c, 0, 56, 0
12, 9613, Note_on_c, 0, 80, 0
12, 9620, Note_on_c, 0, 61, 0
12, 9662, Control_c, 0, 64, 0
12, 9674, Note_on_c, 0, 87, 120
12, 9675, Note_on_c, 0, 75, 120
12, 9675, Note_on_c, 0, 51, 120
12, 9675, Note_on_c, 0, 63, 120
12, 9676, Control_c, 0, 64, 127
12, 9691, Note_on_c, 0, 75, 0
12, 9695, Note_on_c, 0, 87, 0
12, 9696, Note_on_c, 0, 51, 0
12, 9697, Note_on_c, 0, 63, 0
12, 9734, Note_on_c, 0, 90, 127
12, 9734, Note_on_c, 0, 80, 127
12, 9734, Note_on_c, 0, 78, 127
12, 9735, Note_on_c, 0, 85, 127
12, 9735, Note_on_c, 0, 66, 127
12, 9735, Note_on_c, 0, 56, 127
12, 9735, Note_on_c, 0, 61, 127
12, 9736, Control_c, 0, 64, 0
12, 9736, Note_on_c, 0, 54, 127
12, 9798, Control_c, 0, 64, 127
12, 9820, Note_on_c, 0, 78, 0
12, 9838, Note_on_c, 0, 85, 0
12, 9839, Note_on_c, 0, 80, 0
12, 9844, Note_on_c, 0, 54, 0
12, 9853, Note_on_c, 0, 90, 0
12, 9869, Note_on_c, 0, 66, 0
12, 9882, Note_on_c, 0, 61, 0
12, 9882, Note_on_c, 0, 56, 0
12, 9885, Control_c, 0, 64, 0
12, 9898, Control_c, 0, 64, 127
12, 9901, Note_on_c, 0, 77, 127
12, 9901, Note_on_c, 0, 65, 100
12, 9901, Note_on_c, 0, 53, 88
12, 9901, Note_on_c, 0, 89, 127
12, 9916, Note_on_c, 0, 53, 0
12, 9930, Note_on_c, 0, 77, 0
12, 9930, Note_on_c, 0, 65, 0
12, 9930, Note_on_c, 0, 89, 0
12, 9934, Control_c, 0, 64, 0
12, 9941, Note_on_c, 0, 72, 121
12, 9941, Note_on_c, 0, 84, 121
12, 9941, Note_on_c, 0, 60, 121
12, 9941, Note_on_c, 0, 48, 121
12, 9953, Control_c, 0, 64, 127
12, 9957, Note_on_c, 0, 48, 0
12, 9970, Note_on_c, 0, 72, 0
12, 9970, Note_on_c, 0, 84, 0
12, 9970, Note_on_c, 0, 60, 0
12, 9974, Note_on_c, 0, 73, 108
12, 9974, Note_on_c, 0, 85, 108
12, 9976, Note_on_c, 0, 49, 108
12, 9976, Note_on_c, 0, 61, 108
12, 9985, Note_on_c, 0, 49, 0
12, 10003, Note_on_c, 0, 73, 0
12, 10003, Note_on_c, 0, 85, 0
12, 10005, Note_on_c, 0, 61, 0
12, 10006, Note_on_c, 0, 51, 110
12, 10006, Note_on_c, 0, 63, 110
12, 10006, Note_on_c, 0, 75, 110
12, 10008, Note_on_c, 0, 87, 110
12, 10019, Note_on_c, 0, 51, 0
12, 10034, Note_on_c, 0, 73, 112
12, 10034, Note_on_c, 0, 85, 112
12, 10035, Note_on_c, 0, 61, 112
12, 10035, Note_on_c, 0, 63, 0
12, 10035, Note_on_c, 0, 75, 0
12, 10036, Note_on_c, 0, 49, 112
12, 10037, Note_on_c, 0, 87, 0
12, 10044, Note_on_c, 0, 49, 0
12, 10060, Note_on_c, 0, 48, 121
12, 10061, Note_on_c, 0, 60, 122
12, 10061, Note_on_c, 0, 84, 122
12, 10061, Note_on_c, 0, 72, 122
12, 10063, Note_on_c, 0, 73, 0
12, 10063, Note_on_c, 0, 85, 0
12, 10064, Note_on_c, 0, 61, 0
12, 10070, Note_on_c, 0, 48, 0
12, 10087, Note_on_c, 0, 61, 115
12, 10087, Note_on_c, 0, 49, 115
12, 10088, Note_on_c, 0, 85, 115
12, 10089, Note_on_c, 0, 73, 115
12, 10090, Note_on_c, 0, 72, 0
12, 10090, Note_on_c, 0, 60, 0
12, 10090, Note_on_c, 0, 84, 0
12, 10096, Note_on_c, 0, 49, 0
12, 10116, Note_on_c, 0, 61, 0
12, 10117, Note_on_c, 0, 85, 0
12, 10118, Note_on_c, 0, 73, 0
12, 10122, Control_c, 0, 64, 0
12, 10123, Note_on_c, 0, 46, 121
12, 10125, Note_on_c, 0, 82, 122
12, 10125, Note_on_c, 0, 70, 122
12, 10125, Note_on_c, 0, 58, 122
12, 10144, Control_c, 0, 64, 127
12, 10154, Note_on_c, 0, 70, 0
12, 10155, Note_on_c, 0, 46, 0
12, 10157, Note_on_c, 0, 82, 0
12, 10163, Note_on_c, 0, 58, 0
12, 10230, Note_on_c, 0, 87, 125
12, 10230, Note_on_c, 0, 63, 126
12, 10230, Note_on_c, 0, 82, 125
12, 10230, Note_on_c, 0, 78, 125
12, 10230, Note_on_c, 0, 75, 125
12, 10231, Note_on_c, 0, 51, 125
12, 10232, Note_on_c, 0, 54, 126
12, 10232, Note_on_c, 0, 58, 126
12, 10235, Control_c, 0, 64, 0
12, 10306, Control_c, 0, 64, 127
12, 10319, Note_on_c, 0, 51, 0
12, 10321, Note_on_c, 0, 78, 0
12, 10323, Note_on_c, 0, 75, 0
12, 10326, Note_on_c, 0, 82, 0
12, 10333, Note_on_c, 0, 87, 0
12, 10350, Note_on_c, 0, 54, 0
12, 10357, Note_on_c, 0, 63, 0
12, 10388, Note_on_c, 0, 58, 0
12, 10394, Note_on_c, 0, 53, 125
12, 10395, Note_on_c, 0, 65, 125
12, 10395, Note_on_c, 0, 89, 125
12, 10395, Note_on_c, 0, 77, 125
12, 10410, Note_on_c, 0, 53, 0
12, 10424, Note_on_c, 0, 65, 0
12, 10424, Note_on_c, 0, 89, 0
12, 10424, Note_on_c, 0, 77, 0
12, 10459, Note_on_c, 0, 70, 119
12, 10459, Note_on_c, 0, 82, 119
12, 10459, Note_on_c, 0, 78, 120
12, 10459, Note_on_c, 0, 58, 120
12, 10459, Note_on_c, 0, 54, 120
12, 10459, Note_on_c, 0, 51, 120
12, 10459, Note_on_c, 0, 46, 120
12, 10459, Note_on_c, 0, 75, 120
12, 10463, Control_c, 0, 64, 0
12, 10518, Control_c, 0, 64, 127
12, 10555, Note_on_c, 0, 75, 0
12, 10555, Note_on_c, 0, 78, 0
12, 10565, Note_on_c, 0, 46, 0
12, 10569, Note_on_c, 0, 70, 0
12, 10581, Note_on_c, 0, 51, 0
12, 10582, Note_on_c, 0, 82, 0
12, 10588, Note_on_c, 0, 54, 0
12, 10590, Note_on_c, 0, 58, 0
12, 10639, Note_on_c, 0, 87, 115
12, 10639, Note_on_c, 0, 75, 115
12, 10639, Note_on_c, 0, 63, 115
12, 10639, Note_on_c, 0, 51, 115
12, 10640, Control_c, 0, 64, 0
12, 10640, Control_c, 0, 64, 127
12, 10647, Note_on_c, 0, 63, 0
12, 10648, Note_on_c, 0, 51, 0
12, 10650, Note_on_c, 0, 75, 0
12, 10655, Note_on_c, 0, 87, 0
12, 10659, Note_on_c, 0, 63, 121
12, 10659, Note_on_c, 0, 87, 121
12, 10659, Note_on_c, 0, 82, 121
12, 10659, Note_on_c, 0, 75, 121
12, 10659, Note_on_c, 0, 58, 121
12, 10659, Note_on_c, 0, 51, 121
12, 10683, Note_on_c, 0, 63, 0
12, 10687, Note_on_c, 0, 58, 0
12, 10688, Note_on_c, 0, 75, 0
12, 10688, Note_on_c, 0, 87, 0
12, 10688, Note_on_c, 0, 51, 0
12, 10688, Note_on_c, 0, 82, 0
12, 10695, Note_on_c, 0, 84, 116
12, 10695, Note_on_c, 0, 72, 116
12, 10695, Note_on_c, 0, 60, 116
12, 10695, Note_on_c, 0, 48, 116
12, 10704, Note_on_c, 0, 72, 0
12, 10704, Note_on_c, 0, 84, 0
12, 10705, Note_on_c, 0, 60, 0
12, 10709, Note_on_c, 0, 48, 0
12, 10710, Note_on_c, 0, 84, 121
12, 10710, Note_on_c, 0, 78, 121
12, 10710, Note_on_c, 0, 72, 121
12, 10710, Note_on_c, 0, 60, 121
12, 10710, Note_on_c, 0, 54, 121
12, 10710, Note_on_c, 0, 48, 121
12, 10734, Note_on_c, 0, 54, 0
12, 10736, Note_on_c, 0, 60, 0
12, 10739, Control_c, 0, 64, 0
12, 10739, Control_c, 0, 64, 127
12, 10739, Note_on_c, 0, 72, 0
12, 10739, Note_on_c, 0, 84, 0
12, 10739, Note_on_c, 0, 48, 0
12, 10739, Note_on_c, 0, 78, 0
12, 10745, Note_on_c, 0, 46, 119
12, 10745, Note_on_c, 0, 58, 119
12, 10745, Note_on_c, 0, 70, 119
12, 10745, Note_on_c, 0, 82, 119
12, 10753, Note_on_c, 0, 58, 0
12, 10753, Note_on_c, 0, 46, 0
12, 10758, Note_on_c, 0, 70, 0
12, 10758, Note_on_c, 0, 82, 0
12, 10760, Note_on_c, 0, 82, 124
12, 10760, Note_on_c, 0, 75, 124
12, 10760, Note_on_c, 0, 70, 124
12, 10760, Note_on_c, 0, 58, 124
12, 10760, Note_on_c, 0, 46, 124
12, 10760, Note_on_c, 0, 51, 124
12, 10789, Note_on_c, 0, 51, 0
12, 10789, Note_on_c, 0, 75, 0
12, 10789, Note_on_c, 0, 70, 0
12, 10789, Note_on_c, 0, 82, 0
12, 10789, Note_on_c, 0, 46, 0
12, 10789, Note_on_c, 0, 58, 0
12, 10799, Note_on_c, 0, 44, 122
12, 10799, Note_on_c, 0, 80, 122
12, 10799, Note_on_c, 0, 68, 122
12, 10799, Note_on_c, 0, 56, 122
12, 10807, Note_on_c, 0, 56, 0
12, 10807, Note_on_c, 0, 44, 0
12, 10809, Note_on_c, 0, 68, 0
12, 10809, Note_on_c, 0, 80, 0
12, 10815, Note_on_c, 0, 44, 127
12, 10815, Note_on_c, 0, 51, 127
12, 10815, Note_on_c, 0, 54, 127
12, 10815, Note_on_c, 0, 56, 127
12, 10815, Note_on_c, 0, 68, 127
12, 10815, Note_on_c, 0, 75, 127
12, 10815, Note_on_c, 0, 80, 127
12, 10857, Note_on_c, 0, 75, 0
12, 10857, Note_on_c, 0, 68, 0
12, 10863, Control_c, 0, 64, 0
12, 10863, Control_c, 0, 64, 127
12, 10867, Note_on_c, 0, 80, 0
12, 10874, Note_on_c, 0, 44, 0
12, 10877, Note_on_c, 0, 54, 0
12, 10878, Note_on_c, 0, 51, 0
12, 10878, Note_on_c, 0, 56, 0
12, 10929, Note_on_c, 0, 84, 127
12, 10929, Note_on_c, 0, 87, 127
12, 10929, Note_on_c, 0, 80, 127
12, 10929, Note_on_c, 0, 75, 127
12, 10929, Note_on_c, 0, 63, 127
12, 10929, Note_on_c, 0, 60, 127
12, 10929, Note_on_c, 0, 56, 127
12, 10929, Note_on_c, 0, 51, 127
12, 10984, Control_c, 0, 64, 127
12, 10992, Note_on_c, 0, 75, 0
12, 10998, Note_on_c, 0, 80, 0
12, 11007, Note_on_c, 0, 84, 0
12, 11007, Note_on_c, 0, 87, 0
12, 11052, Note_on_c, 0, 63, 0
12, 11078, Note_on_c, 0, 51, 0
12, 11078, Note_on_c, 0, 56, 0
12, 11103, Note_on_c, 0, 60, 0
12, 11106, Control_c, 0, 64, 0
12, 11113, Note_on_c, 0, 89, 126
12, 11113, Note_on_c, 0, 77, 126
12, 11113, Note_on_c, 0, 65, 126
12, 11113, Note_on_c, 0, 53, 126
12, 11124, Control_c, 0, 64, 127
12, 11141, Note_on_c, 0, 53, 0
12, 11142, Note_on_c, 0, 89, 0
12, 11142, Note_on_c, 0, 77, 0
12, 11142, Note_on_c, 0, 65, 0
12, 11172, Control_c, 0, 64, 0
12, 11175, Note_on_c, 0, 92, 126
12, 11175, Note_on_c, 0, 56, 116
12, 11175, Note_on_c, 0, 87, 121
12, 11175, Note_on_c, 0, 84, 127
12, 11175, Note_on_c, 0, 80, 112
12, 11175, Note_on_c, 0, 68, 110
12, 11175, Note_on_c, 0, 61, 112
12, 11176, Note_on_c, 0, 65, 106
12, 11234, Control_c, 0, 64, 127
12, 11294, Note_on_c, 0, 68, 0
12, 11295, Note_on_c, 0, 65, 0
12, 11311, Note_on_c, 0, 56, 0
12, 11324, Note_on_c, 0, 87, 0
12, 11324, Note_on_c, 0, 84, 0
12, 11324, Note_on_c, 0, 80, 0
12, 11324, Note_on_c, 0, 61, 0
12, 11324, Note_on_c, 0, 92, 0
12, 11339, Note_on_c, 0, 75, 117
12, 11339, Note_on_c, 0, 87, 117
12, 11339, Note_on_c, 0, 63, 117
12, 11339, Note_on_c, 0, 51, 117
12, 11351, Note_on_c, 0, 75, 0
12, 11368, Note_on_c, 0, 87, 0
12, 11368, Note_on_c, 0, 63, 0
12, 11368, Note_on_c, 0, 51, 0
12, 11370, Note_on_c, 0, 50, 101
12, 11370, Note_on_c, 0, 62, 67
12, 11371, Note_on_c, 0, 74, 108
12, 11371, Note_on_c, 0, 86, 115
12, 11381, Note_on_c, 0, 74, 0
12, 11399, Note_on_c, 0, 50, 0
12, 11399, Note_on_c, 0, 62, 0
12, 11400, Note_on_c, 0, 86, 0
12, 11408, Control_c, 0, 64, 0
12, 11410, Note_on_c, 0, 75, 121
12, 11410, Note_on_c, 0, 63, 121
12, 11410, Note_on_c, 0, 51, 121
12, 11411, Note_on_c, 0, 87, 121
12, 11422, Control_c, 0, 64, 127
12, 11422, Control_c, 0, 64, 0
12, 11425, Control_c, 0, 64, 127
12, 11425, Control_c, 0, 64, 0
12, 11426, Control_c, 0, 64, 127
12, 11430, Note_on_c, 0, 75, 0
12, 11439, Note_on_c, 0, 63, 0
12, 11439, Note_on_c, 0, 51, 0
12, 11440, Note_on_c, 0, 87, 0
12, 11447, Note_on_c, 0, 53, 88
12, 11447, Note_on_c, 0, 89, 112
12, 11447, Note_on_c, 0, 65, 85
12, 11447, Note_on_c, 0, 77, 81
12, 11457, Note_on_c, 0, 77, 0
12, 11476, Note_on_c, 0, 53, 0
12, 11476, Note_on_c, 0, 89, 0
12, 11476, Note_on_c, 0, 65, 0
12, 11480, Note_on_c, 0, 78, 104
12, 11481, Note_on_c, 0, 90, 110
12, 11481, Note_on_c, 0, 54, 99
12, 11482, Note_on_c, 0, 66, 101
12, 11490, Note_on_c, 0, 78, 0
12, 11510, Note_on_c, 0, 90, 0
12, 11510, Note_on_c, 0, 54, 0
12, 11511, Note_on_c, 0, 66, 0
12, 11530, Control_c, 0, 64, 0
12, 11530, Note_on_c, 0, 65, 103
12, 11530, Note_on_c, 0, 68, 107
12, 11530, Note_on_c, 0, 92, 127
12, 11530, Note_on_c, 0, 89, 114
12, 11530, Note_on_c, 0, 61, 112
12, 11530, Note_on_c, 0, 56, 112
12, 11531, Note_on_c, 0, 80, 108
12, 11531, Note_on_c, 0, 85, 111
12, 11612, Control_c, 0, 64, 127
12, 11645, Note_on_c, 0, 85, 0
12, 11645, Note_on_c, 0, 89, 0
12, 11646, Note_on_c, 0, 92, 0
12, 11655, Note_on_c, 0, 56, 0
12, 11657, Note_on_c, 0, 68, 0
12, 11659, Note_on_c, 0, 65, 0
12, 11659, Note_on_c, 0, 61, 0
12, 11660, Note_on_c, 0, 80, 0
12, 11706, Note_on_c, 0, 89, 127
12, 11708, Note_on_c, 0, 53, 110
12, 11709, Note_on_c, 0, 65, 115
12, 11709, Note_on_c, 0, 77, 127
12, 11721, Note_on_c, 0, 65, 0
12, 11722, Note_on_c, 0, 77, 0
12, 11731, Note_on_c, 0, 53, 0
12, 11735, Note_on_c, 0, 89, 0
12, 11763, Control_c, 0, 64, 0
12, 11767, Note_on_c, 0, 58, 127
12, 11767, Note_on_c, 0, 70, 127
12, 11768, Note_on_c, 0, 82, 127
12, 11768, Note_on_c, 0, 94, 127
12, 11769, Control_c, 0, 64, 127
12, 11770, Control_c, 0, 64, 0
12, 11770, Control_c, 0, 64, 127
12, 11781, Note_on_c, 0, 70, 0
12, 11783, Note_on_c, 0, 82, 0
12, 11791, Note_on_c, 0, 58, 0
12, 11797, Note_on_c, 0, 94, 0
12, 11816, Note_on_c, 0, 68, 122
12, 11816, Note_on_c, 0, 80, 122
12, 11817, Note_on_c, 0, 92, 123
12, 11818, Note_on_c, 0, 56, 123
12, 11827, Note_on_c, 0, 68, 0
12, 11829, Note_on_c, 0, 80, 0
12, 11844, Note_on_c, 0, 56, 0
12, 11846, Note_on_c, 0, 92, 0
12, 11876, Control_c, 0, 64, 0
12, 11880, Note_on_c, 0, 56, 127
12, 11880, Note_on_c, 0, 68, 127
12, 11881, Note_on_c, 0, 80, 127
12, 11881, Note_on_c, 0, 92, 127
12, 11925, Control_c, 0, 64, 127
12, 11926, Control_c, 0, 64, 0
12, 11927, Control_c, 0, 64, 127
12, 11927, Control_c, 0, 64, 0
12, 11928, Control_c, 0, 64, 127
12, 12004, Note_on_c, 0, 92, 0
12, 12020, Note_on_c, 0, 80, 0
12, 12023, Note_on_c, 0, 68, 0
12, 12060, Control_c, 0, 64, 0
12, 12061, Note_on_c, 0, 56, 0
12, 12067, Note_on_c, 0, 87, 124
12, 12067, Note_on_c, 0, 75, 124
12, 12070, Note_on_c, 0, 51, 120
12, 12070, Note_on_c, 0, 63, 110
12, 12074, Control_c, 0, 64, 127
12, 12082, Note_on_c, 0, 75, 0
12, 12084, Note_on_c, 0, 63, 0
12, 12096, Note_on_c, 0, 87, 0
12, 12099, Note_on_c, 0, 51, 0
12, 12122, Control_c, 0, 64, 0
12, 12127, Note_on_c, 0, 70, 127
12, 12127, Note_on_c, 0, 82, 127
12, 12128, Note_on_c, 0, 94, 127
12, 12129, Note_on_c, 0, 58, 127
12, 12143, Control_c, 0, 64, 127
12, 12145, Note_on_c, 0, 70, 0
12, 12155, Note_on_c, 0, 58, 0
12, 12157, Note_on_c, 0, 94, 0
12, 12159, Note_on_c, 0, 82, 0
12, 12178, Note_on_c, 0, 68, 123
12, 12180, Note_on_c, 0, 56, 123
12, 12181, Note_on_c, 0, 80, 123
12, 12182, Note_on_c, 0, 92, 123
12, 12192, Note_on_c, 0, 68, 0
12, 12193, Note_on_c, 0, 80, 0
12, 12204, Note_on_c, 0, 56, 0
12, 12211, Note_on_c, 0, 92, 0
12, 12234, Control_c, 0, 64, 0
12, 12237, Note_on_c, 0, 56, 127
12, 12237, Note_on_c, 0, 68, 127
12, 12238, Note_on_c, 0, 80, 127
12, 12239, Note_on_c, 0, 92, 127
12, 12356, Control_c, 0, 64, 127
12, 12356, Control_c, 0, 64, 0
12, 12356, Control_c, 0, 64, 127
12, 12356, Control_c, 0, 64, 0
12, 12360, Control_c, 0, 64, 127
12, 12378, Note_on_c, 0, 92, 0
12, 12385, Note_on_c, 0, 56, 0
12, 12386, Note_on_c, 0, 68, 0
12, 12394, Note_on_c, 0, 80, 0
12, 12432, Control_c, 0, 64, 0
12, 12433, Note_on_c, 0, 65, 121
12, 12433, Note_on_c, 0, 89, 127
12, 12435, Note_on_c, 0, 53, 110
12, 12435, Note_on_c, 0, 77, 127
12, 12439, Control_c, 0, 64, 127
12, 12439, Control_c, 0, 64, 0
12, 12439, Control_c, 0, 64, 127
12, 12439, Control_c, 0, 64, 0
12, 12440, Control_c, 0, 64, 127
12, 12446, Note_on_c, 0, 65, 0
12, 12448, Note_on_c, 0, 77, 0
12, 12448, Note_on_c, 0, 53, 0
12, 12462, Note_on_c, 0, 89, 0
12, 12491, Note_on_c, 0, 95, 127
12, 12492, Note_on_c, 0, 83, 127
12, 12495, Note_on_c, 0, 59, 100
12, 12495, Note_on_c, 0, 71, 127
12, 12509, Note_on_c, 0, 71, 0
12, 12510, Note_on_c, 0, 59, 0
12, 12514, Note_on_c, 0, 83, 0
12, 12520, Note_on_c, 0, 95, 0
12, 12541, Note_on_c, 0, 70, 124
12, 12543, Note_on_c, 0, 82, 124
12, 12543, Note_on_c, 0, 94, 124
12, 12544, Note_on_c, 0, 58, 124
12, 12553, Note_on_c, 0, 58, 0
12, 12554, Note_on_c, 0, 70, 0
12, 12556, Note_on_c, 0, 82, 0
12, 12572, Note_on_c, 0, 94, 0
12, 12597, Control_c, 0, 64, 0
12, 12599, Note_on_c, 0, 70, 127
12, 12599, Note_on_c, 0, 82, 127
12, 12600, Note_on_c, 0, 94, 127
12, 12601, Note_on_c, 0, 58, 127
12, 12728, Control_c, 0, 64, 127
12, 12739, Note_on_c, 0, 94, 0
12, 12743, Note_on_c, 0, 70, 0
12, 12751, Note_on_c, 0, 82, 0
12, 12780, Note_on_c, 0, 90, 124
12, 12780, Note_on_c, 0, 78, 116
12, 12780, Note_on_c, 0, 66, 110
12, 12780, Note_on_c, 0, 54, 120
12, 12781, Note_on_c, 0, 58, 0
12, 12782, Control_c, 0, 64, 0
12, 12795, Control_c, 0, 64, 127
12, 12795, Control_c, 0, 64, 0
12, 12796, Control_c, 0, 64, 127
12, 12809, Note_on_c, 0, 66, 0
12, 12809, Note_on_c, 0, 90, 0
12, 12809, Note_on_c, 0, 78, 0
12, 12809, Note_on_c, 0, 54, 0
12, 12842, Control_c, 0, 64, 0
12, 12846, Note_on_c, 0, 97, 127
12, 12847, Note_on_c, 0, 73, 127
12, 12847, Note_on_c, 0, 85, 127
12, 12849, Note_on_c, 0, 61, 125
12, 12852, Control_c, 0, 64, 127
12, 12853, Control_c, 0, 64, 0
12, 12854, Control_c, 0, 64, 127
12, 12862, Note_on_c, 0, 85, 0
12, 12870, Note_on_c, 0, 61, 0
12, 12873, Note_on_c, 0, 73, 0
12, 12875, Note_on_c, 0, 97, 0
12, 12886, Control_c, 0, 64, 0
12, 12900, Note_on_c, 0, 60, 127
12, 12901, Note_on_c, 0, 72, 127
12, 12901, Note_on_c, 0, 84, 127
12, 12902, Note_on_c, 0, 96, 127
12, 12903, Control_c, 0, 64, 127
12, 12904, Control_c, 0, 64, 0
12, 12907, Control_c, 0, 64, 127
12, 12919, Note_on_c, 0, 72, 0
12, 12919, Note_on_c, 0, 60, 0
12, 12921, Note_on_c, 0, 84, 0
12, 12931, Note_on_c, 0, 96, 0
12, 12965, Note_on_c, 0, 60, 125
12, 12965, Note_on_c, 0, 72, 125
12, 12966, Note_on_c, 0, 84, 125
12, 12966, Note_on_c, 0, 96, 125
12, 12994, Control_c, 0, 64, 127
12, 12994, Control_c, 0, 64, 0
12, 12994, Control_c, 0, 64, 127
12, 13060, Note_on_c, 0, 96, 0
12, 13062, Note_on_c, 0, 72, 0
12, 13074, Note_on_c, 0, 84, 0
12, 13074, Note_on_c, 0, 60, 0
12, 13139, Note_on_c, 0, 68, 123
12, 13140, Note_on_c, 0, 80, 123
12, 13140, Note_on_c, 0, 92, 123
12, 13141, Note_on_c, 0, 56, 123
12, 13153, Note_on_c, 0, 56, 0
12, 13168, Note_on_c, 0, 68, 0
12, 13169, Note_on_c, 0, 92, 0
12, 13169, Note_on_c, 0, 80, 0
12, 13188, Note_on_c, 0, 61, 121
12, 13189, Note_on_c, 0, 97, 121
12, 13189, Note_on_c, 0, 85, 122
12, 13189, Note_on_c, 0, 73, 121
12, 13201, Note_on_c, 0, 61, 0
12, 13218, Note_on_c, 0, 97, 0
12, 13218, Note_on_c, 0, 85, 0
12, 13218, Note_on_c, 0, 73, 0
12, 13230, Control_c, 0, 64, 0
12, 13230, Note_on_c, 0, 72, 125
12, 13230, Note_on_c, 0, 84, 125
12, 13232, Note_on_c, 0, 96, 125
12, 13232, Note_on_c, 0, 60, 125
12, 13235, Control_c, 0, 64, 127
12, 13236, Control_c, 0, 64, 0
12, 13236, Control_c, 0, 64, 127
12, 13248, Note_on_c, 0, 60, 0
12, 13259, Note_on_c, 0, 72, 0
12, 13259, Note_on_c, 0, 84, 0
12, 13261, Note_on_c, 0, 96, 0
12, 13275, Note_on_c, 0, 56, 112
12, 13276, Note_on_c, 0, 68, 112
12, 13276, Note_on_c, 0, 80, 112
12, 13277, Note_on_c, 0, 92, 112
12, 13291, Note_on_c, 0, 56, 0
12, 13305, Note_on_c, 0, 68, 0
12, 13305, Note_on_c, 0, 80, 0
12, 13306, Note_on_c, 0, 92, 0
12, 13313, Note_on_c, 0, 91, 103
12, 13315, Note_on_c, 0, 67, 103
12, 13315, Note_on_c, 0, 55, 103
12, 13315, Note_on_c, 0, 79, 103
12, 13330, Note_on_c, 0, 55, 0
12, 13342, Note_on_c, 0, 91, 0
12, 13344, Note_on_c, 0, 67, 0
12, 13344, Note_on_c, 0, 79, 0
12, 13359, Note_on_c, 0, 53, 124
12, 13359, Note_on_c, 0, 80, 98
12, 13359, Note_on_c, 0, 84, 107
12, 13359, Note_on_c, 0, 89, 126
12, 13359, Note_on_c, 0, 77, 115
12, 13359, Note_on_c, 0, 65, 124
12, 13359, Note_on_c, 0, 60, 124
12, 13361, Control_c, 0, 64, 0
12, 13379, Control_c, 0, 64, 127
12, 13381, Note_on_c, 0, 60, 0
12, 13385, Note_on_c, 0, 84, 0
12, 13388, Note_on_c, 0, 53, 0
12, 13388, Note_on_c, 0, 89, 0
12, 13388, Note_on_c, 0, 77, 0
12, 13388, Note_on_c, 0, 65, 0
12, 13389, Note_on_c, 0, 80, 0
12, 13400, Note_on_c, 0, 73, 112
12, 13401, Note_on_c, 0, 61, 112
12, 13402, Note_on_c, 0, 85, 112
12, 13402, Note_on_c, 0, 49, 112
12, 13410, Note_on_c, 0, 73, 0
12, 13411, Note_on_c, 0, 49, 0
12, 13412, Note_on_c, 0, 61, 0
12, 13431, Note_on_c, 0, 85, 0
12, 13437, Note_on_c, 0, 48, 124
12, 13437, Note_on_c, 0, 60, 124
12, 13438, Note_on_c, 0, 72, 125
12, 13438, Note_on_c, 0, 84, 125
12, 13451, Note_on_c, 0, 60, 0
12, 13451, Note_on_c, 0, 48, 0
12, 13452, Note_on_c, 0, 72, 0
12, 13467, Note_on_c, 0, 84, 0
12, 13478, Note_on_c, 0, 71, 115
12, 13478, Note_on_c, 0, 77, 112
12, 13478, Note_on_c, 0, 80, 96
12, 13478, Note_on_c, 0, 47, 117
12, 13478, Note_on_c, 0, 53, 117
12, 13478, Note_on_c, 0, 59, 117
12, 13478, Note_on_c, 0, 56, 117
12, 13479, Note_on_c, 0, 83, 119
12, 13483, Control_c, 0, 64, 0
12, 13496, Note_on_c, 0, 47, 0
12, 13497, Control_c, 0, 64, 127
12, 13497, Control_c, 0, 64, 0
12, 13497, Control_c, 0, 64, 127
12, 13501, Note_on_c, 0, 71, 0
12, 13505, Note_on_c, 0, 83, 0
12, 13506, Note_on_c, 0, 77, 0
12, 13506, Note_on_c, 0, 80, 0
12, 13507, Note_on_c, 0, 59, 0
12, 13507, Note_on_c, 0, 53, 0
12, 13514, Note_on_c, 0, 48, 127
12, 13515, Note_on_c, 0, 60, 127
12, 13516, Note_on_c, 0, 84, 127
12, 13516, Note_on_c, 0, 72, 127
12, 13516, Note_on_c, 0, 56, 0
12, 13524, Note_on_c, 0, 60, 0
12, 13525, Note_on_c, 0, 72, 0
12, 13528, Note_on_c, 0, 48, 0
12, 13545, Note_on_c, 0, 84, 0
12, 13557, Note_on_c, 0, 68, 115
12, 13558, Note_on_c, 0, 80, 112
12, 13559, Note_on_c, 0, 44, 104
12, 13559, Note_on_c, 0, 56, 98
12, 13570, Note_on_c, 0, 68, 0
12, 13573, Note_on_c, 0, 56, 0
12, 13573, Note_on_c, 0, 44, 0
12, 13587, Note_on_c, 0, 80, 0
12, 13599, Note_on_c, 0, 67, 118
12, 13599, Note_on_c, 0, 72, 118
12, 13599, Note_on_c, 0, 79, 118
12, 13602, Control_c, 0, 64, 0
12, 13602, Note_on_c, 0, 43, 119
12, 13603, Note_on_c, 0, 48, 120
12, 13603, Note_on_c, 0, 55, 120
12, 13617, Control_c, 0, 64, 127
12, 13617, Control_c, 0, 64, 0
12, 13618, Control_c, 0, 64, 127
12, 13621, Note_on_c, 0, 43, 0
12, 13622, Note_on_c, 0, 67, 0
12, 13623, Note_on_c, 0, 79, 0
12, 13624, Note_on_c, 0, 55, 0
12, 13636, Note_on_c, 0, 72, 0
12, 13638, Note_on_c, 0, 80, 110
12, 13638, Note_on_c, 0, 68, 113
12, 13639, Note_on_c, 0, 44, 90
12, 13640, Note_on_c, 0, 56, 112
12, 13640, Note_on_c, 0, 48, 0
12, 13648, Note_on_c, 0, 68, 0
12, 13650, Note_on_c, 0, 44, 0
12, 13651, Note_on_c, 0, 56, 0
12, 13667, Note_on_c, 0, 80, 0
12, 13673, Note_on_c, 0, 77, 114
12, 13673, Note_on_c, 0, 65, 107
12, 13673, Note_on_c, 0, 53, 93
12, 13673, Note_on_c, 0, 41, 105
12, 13683, Note_on_c, 0, 53, 0
12, 13685, Note_on_c, 0, 65, 0
12, 13686, Note_on_c, 0, 41, 0
12, 13702, Note_on_c, 0, 77, 0
12, 13720, Note_on_c, 0, 44, 120
12, 13720, Note_on_c, 0, 41, 120
12, 13720, Note_on_c, 0, 73, 120
12, 13720, Note_on_c, 0, 68, 120
12, 13721, Note_on_c, 0, 61, 120
12, 13721, Note_on_c, 0, 65, 120
12, 13724, Note_on_c, 0, 37, 120
12, 13724, Note_on_c, 0, 49, 120
12, 13728, Control_c, 0, 64, 0
12, 13744, Control_c, 0, 64, 127
12, 13744, Control_c, 0, 64, 0
12, 13745, Control_c, 0, 64, 127
12, 13748, Note_on_c, 0, 44, 0
12, 13752, Note_on_c, 0, 41, 0
12, 13755, Note_on_c, 0, 37, 0
12, 13756, Note_on_c, 0, 49, 0
12, 13756, Note_on_c, 0, 61, 0
12, 13757, Note_on_c, 0, 73, 0
12, 13762, Note_on_c, 0, 60, 120
12, 13763, Note_on_c, 0, 72, 120
12, 13763, Note_on_c, 0, 36, 120
12, 13763, Note_on_c, 0, 68, 0
12, 13765, Note_on_c, 0, 48, 122
12, 13765, Note_on_c, 0, 65, 0
12, 13779, Note_on_c, 0, 48, 0
12, 13781, Note_on_c, 0, 60, 0
12, 13782, Note_on_c, 0, 36, 0
12, 13792, Note_on_c, 0, 72, 0
12, 13797, Note_on_c, 0, 35, 124
12, 13797, Note_on_c, 0, 47, 124
12, 13797, Note_on_c, 0, 59, 124
12, 13798, Note_on_c, 0, 71, 124
12, 13808, Note_on_c, 0, 59, 0
12, 13808, Note_on_c, 0, 35, 0
12, 13811, Note_on_c, 0, 47, 0
12, 13827, Note_on_c, 0, 71, 0
12, 13833, Control_c, 0, 64, 0
12, 13833, Note_on_c, 0, 48, 124
12, 13833, Note_on_c, 0, 60, 124
12, 13834, Note_on_c, 0, 72, 124
12, 13835, Note_on_c, 0, 36, 124
12, 13840, Control_c, 0, 64, 127
12, 13840, Control_c, 0, 64, 0
12, 13840, Control_c, 0, 64, 127
12, 13847, Note_on_c, 0, 36, 0
12, 13848, Note_on_c, 0, 48, 0
12, 13848, Note_on_c, 0, 60, 0
12, 13863, Note_on_c, 0, 72, 0
12, 13875, Note_on_c, 0, 68, 114
12, 13875, Note_on_c, 0, 56, 114
12, 13875, Note_on_c, 0, 44, 114
12, 13876, Note_on_c, 0, 32, 114
12, 13876, Note_on_c, 0, 34, 114
12, 13884, Note_on_c, 0, 34, 0
12, 13887, Note_on_c, 0, 44, 0
12, 13891, Note_on_c, 0, 56, 0
12, 13893, Note_on_c, 0, 32, 0
12, 13904, Note_on_c, 0, 68, 0
12, 13910, Note_on_c, 0, 31, 93
12, 13910, Note_on_c, 0, 43, 93
12, 13911, Note_on_c, 0, 55, 117
12, 13911, Note_on_c, 0, 67, 108
12, 13924, Note_on_c, 0, 43, 0
12, 13926, Note_on_c, 0, 31, 0
12, 13927, Note_on_c, 0, 55, 0
12, 13940, Note_on_c, 0, 67, 0
12, 13948, Note_on_c, 0, 41, 127
12, 13950, Note_on_c, 0, 29, 122
12, 13950, Note_on_c, 0, 53, 122
12, 13951, Note_on_c, 0, 65, 121
12, 13954, Control_c, 0, 64, 0
12, 13965, Control_c, 0, 64, 127
12, 13970, Note_on_c, 0, 29, 0
12, 13974, Note_on_c, 0, 53, 0
12, 13975, Note_on_c, 0, 41, 0
12, 13980, Note_on_c, 0, 65, 0
12, 13988, Note_on_c, 0, 37, 114
12, 13989, Note_on_c, 0, 49, 114
12, 13990, Note_on_c, 0, 61, 114
12, 14003, Note_on_c, 0, 49, 0
12, 14004, Note_on_c, 0, 37, 0
12, 14019, Note_on_c, 0, 61, 0
12, 14024, Note_on_c, 0, 48, 125
12, 14025, Note_on_c, 0, 60, 125
12, 14026, Note_on_c, 0, 36, 125
12, 14039, Note_on_c, 0, 48, 0
12, 14040, Note_on_c, 0, 36, 0
12, 14054, Note_on_c, 0, 60, 0
12, 14063, Note_on_c, 0, 59, 126
12, 14065, Note_on_c, 0, 35, 126
12, 14066, Control_c, 0, 64, 0
12, 14067, Note_on_c, 0, 47, 126
12, 14080, Control_c, 0, 64, 127
12, 14088, Note_on_c, 0, 47, 0
12, 14091, Note_on_c, 0, 59, 0
12, 14093, Note_on_c, 0, 35, 0
12, 14105, Note_on_c, 0, 48, 125
12, 14106, Note_on_c, 0, 60, 125
12, 14107, Note_on_c, 0, 36, 125
12, 14127, Note_on_c, 0, 36, 0
12, 14134, Note_on_c, 0, 48, 0
12, 14135, Note_on_c, 0, 60, 0
12, 14154, Note_on_c, 0, 32, 114
12, 14154, Note_on_c, 0, 44, 114
12, 14154, Note_on_c, 0, 56, 114
12, 14156, Control_c, 0, 64, 0
12, 14175, Control_c, 0, 64, 127
12, 14175, Control_c, 0, 64, 0
12, 14177, Control_c, 0, 64, 127
12, 14181, Note_on_c, 0, 32, 0
12, 14183, Note_on_c, 0, 56, 0
12, 14183, Note_on_c, 0, 44, 0
12, 14204, Note_on_c, 0, 31, 115
12, 14204, Note_on_c, 0, 43, 115
12, 14205, Note_on_c, 0, 55, 115
12, 14219, Note_on_c, 0, 43, 0
12, 14220, Note_on_c, 0, 31, 0
12, 14234, Note_on_c, 0, 55, 0
12, 14261, Note_on_c, 0, 53, 119
12, 14261, Note_on_c, 0, 56, 23
12, 14262, Note_on_c, 0, 29, 127
12, 14262, Note_on_c, 0, 41, 127
12, 14262, Note_on_c, 0, 65, 34
12, 14267, Control_c, 0, 64, 0
12, 14267, Control_c, 0, 64, 127
12, 14267, Control_c, 0, 64, 0
12, 14410, Note_on_c, 0, 56, 0
12, 14410, Note_on_c, 0, 53, 0
12, 14411, Note_on_c, 0, 41, 0
12, 14411, Note_on_c, 0, 29, 0
12, 14411, Note_on_c, 0, 65, 0
12, 14411, End_track
13, 0, Start_track
13, 0, MIDI_port, 0
13, 0, Title_t, "Corni"
13, 0, Program_c, 14, 61
13, 0, Control_c, 14, 7, 127
13, 0, Control_c, 14, 10, 40
13, 541, Control_c, 14, 121, 0
13, 541, Note_on_c, 14, 77, 119
13, 599, Note_on_c, 14, 73, 111
13, 610, Note_on_c, 14, 77, 0
13, 658, Note_on_c, 14, 72, 107
13, 671, Note_on_c, 14, 73, 0
13, 719, Note_on_c, 14, 70, 111
13, 722, Note_on_c, 14, 72, 0
13, 730, Control_c, 14, 11, 100
13, 740, Control_c, 14, 11, 102
13, 760, Control_c, 14, 11, 103
13, 770, Control_c, 14, 11, 104
13, 780, Control_c, 14, 11, 106
13, 790, Control_c, 14, 11, 112
13, 800, Control_c, 14, 11, 113
13, 808, Note_on_c, 14, 70, 0
13, 810, Control_c, 14, 11, 114
13, 820, Control_c, 14, 11, 116
13, 830, Control_c, 14, 11, 122
13, 840, Note_on_c, 14, 70, 123
13, 840, Note_on_c, 14, 82, 123
13, 840, Control_c, 14, 11, 124
13, 850, Control_c, 14, 11, 126
13, 860, Control_c, 14, 11, 127
13, 899, Note_on_c, 14, 77, 107
13, 899, Note_on_c, 14, 70, 0
13, 929, Note_on_c, 14, 82, 0
13, 960, Note_on_c, 14, 73, 100
13, 969, Note_on_c, 14, 77, 0
13, 1020, Note_on_c, 14, 72, 96
13, 1028, Note_on_c, 14, 73, 0
13, 1079, Note_on_c, 14, 72, 0
13, 1080, Note_on_c, 14, 70, 109
13, 1080, Control_c, 14, 11, 104
13, 1100, Control_c, 14, 11, 101
13, 1110, Control_c, 14, 11, 103
13, 1120, Control_c, 14, 11, 105
13, 1130, Control_c, 14, 11, 107
13, 1140, Control_c, 14, 11, 108
13, 1150, Control_c, 14, 11, 110
13, 1160, Control_c, 14, 11, 112
13, 1170, Control_c, 14, 11, 115
13, 1180, Control_c, 14, 11, 118
13, 1181, Note_on_c, 14, 70, 0
13, 1190, Control_c, 14, 11, 121
13, 1200, Note_on_c, 14, 70, 127
13, 1200, Note_on_c, 14, 82, 127
13, 1200, Control_c, 14, 11, 126
13, 1210, Control_c, 14, 11, 127
13, 1259, Note_on_c, 14, 70, 0
13, 1260, Note_on_c, 14, 77, 118
13, 1289, Note_on_c, 14, 82, 0
13, 1320, Note_on_c, 14, 73, 113
13, 1324, Note_on_c, 14, 77, 0
13, 1380, Note_on_c, 14, 72, 107
13, 1386, Note_on_c, 14, 73, 0
13, 1438, Note_on_c, 14, 72, 0
13, 1440, Note_on_c, 14, 70, 106
13, 1440, Control_c, 14, 11, 108
13, 1450, Control_c, 14, 11, 109
13, 1460, Control_c, 14, 11, 111
13, 1470, Control_c, 14, 11, 112
13, 1480, Control_c, 14, 11, 113
13, 1490, Control_c, 14, 11, 117
13, 1500, Control_c, 14, 11, 118
13, 1510, Control_c, 14, 11, 119
13, 1520, Control_c, 14, 11, 120
13, 1530, Control_c, 14, 11, 121
13, 1540, Control_c, 14, 11, 123
13, 1542, Note_on_c, 14, 70, 0
13, 1560, Note_on_c, 14, 82, 123
13, 1560, Note_on_c, 14, 70, 123
13, 1560, Control_c, 14, 11, 127
13, 1590, Control_c, 14, 11, 114
13, 1600, Control_c, 14, 11, 115
13, 1610, Control_c, 14, 11, 116
13, 1620, Control_c, 14, 11, 117
13, 1630, Control_c, 14, 11, 118
13, 1640, Control_c, 14, 11, 120
13, 1650, Control_c, 14, 11, 122
13, 1660, Control_c, 14, 11, 124
13, 1670, Control_c, 14, 11, 126
13, 1679, Note_on_c, 14, 70, 0
13, 1679, Note_on_c, 14, 82, 0
13, 1680, Note_on_c, 14, 68, 113
13, 1680, Note_on_c, 14, 80, 113
13, 1680, Control_c, 14, 11, 127
13, 1710, Control_c, 14, 11, 112
13, 1720, Control_c, 14, 11, 113
13, 1730, Control_c, 14, 11, 115
13, 1740, Control_c, 14, 11, 116
13, 1750, Control_c, 14, 11, 117
13, 1760, Control_c, 14, 11, 120
13, 1770, Control_c, 14, 11, 121
13, 1790, Control_c, 14, 11, 125
13, 1799, Note_on_c, 14, 68, 0
13, 1800, Note_on_c, 14, 66, 114
13, 1800, Note_on_c, 14, 78, 114
13, 1800, Control_c, 14, 11, 126
13, 1804, Note_on_c, 14, 80, 0
13, 1830, Control_c, 14, 11, 112
13, 1850, Control_c, 14, 11, 114
13, 1870, Control_c, 14, 11, 116
13, 1890, Control_c, 14, 11, 118
13, 1900, Control_c, 14, 11, 122
13, 1910, Control_c, 14, 11, 124
13, 1919, Note_on_c, 14, 66, 0
13, 1920, Note_on_c, 14, 67, 101
13, 1920, Note_on_c, 14, 79, 101
13, 1920, Control_c, 14, 11, 127
13, 1928, Note_on_c, 14, 78, 0
13, 1950, Control_c, 14, 11, 116
13, 1960, Control_c, 14, 11, 117
13, 1980, Control_c, 14, 11, 120
13, 1990, Control_c, 14, 11, 122
13, 2000, Control_c, 14, 11, 123
13, 2010, Control_c, 14, 11, 125
13, 2020, Control_c, 14, 11, 127
13, 2030, Control_c, 14, 11, 116
13, 2039, Note_on_c, 14, 79, 0
13, 2039, Note_on_c, 14, 67, 0
13, 2040, Note_on_c, 14, 63, 108
13, 2040, Note_on_c, 14, 75, 108
13, 2060, Control_c, 14, 11, 118
13, 2070, Control_c, 14, 11, 119
13, 2080, Control_c, 14, 11, 120
13, 2100, Control_c, 14, 11, 123
13, 2110, Control_c, 14, 11, 124
13, 2120, Control_c, 14, 11, 125
13, 2130, Control_c, 14, 11, 126
13, 2150, Control_c, 14, 11, 127
13, 2157, Note_on_c, 14, 75, 0
13, 2159, Note_on_c, 14, 63, 0
13, 2190, Control_c, 14, 11, 115
13, 2200, Control_c, 14, 11, 117
13, 2220, Control_c, 14, 11, 119
13, 2230, Control_c, 14, 11, 120
13, 2240, Control_c, 14, 11, 121
13, 2250, Control_c, 14, 11, 123
13, 2260, Control_c, 14, 11, 125
13, 2270, Control_c, 14, 11, 126
13, 2280, Control_c, 14, 11, 127
13, 8280, Note_on_c, 14, 75, 99
13, 8480, Note_on_c, 14, 75, 0
13, 8520, Note_on_c, 14, 75, 94
13, 8640, Note_on_c, 14, 73, 103
13, 8648, Note_on_c, 14, 75, 0
13, 8765, Note_on_c, 14, 73, 0
13, 9003, Note_on_c, 14, 68, 91
13, 10052, Note_on_c, 14, 68, 0
13, 10110, Note_on_c, 14, 70, 86
13, 10799, Note_on_c, 14, 70, 0
13, 10802, Note_on_c, 14, 72, 91
13, 11491, Note_on_c, 14, 72, 0
13, 11521, Note_on_c, 14, 73, 96
13, 11880, Note_on_c, 14, 71, 93
13, 11880, Note_on_c, 14, 73, 0
13, 11999, Note_on_c, 14, 71, 0
13, 12000, Note_on_c, 14, 72, 89
13, 12089, Note_on_c, 14, 72, 0
13, 12240, Note_on_c, 14, 73, 97
13, 12329, Note_on_c, 14, 73, 0
13, 12360, Note_on_c, 14, 73, 93
13, 12449, Note_on_c, 14, 73, 0
13, 12600, Note_on_c, 14, 74, 96
13, 12719, Note_on_c, 14, 74, 0
13, 12720, Note_on_c, 14, 75, 94
13, 12820, Note_on_c, 14, 75, 0
13, 12960, Note_on_c, 14, 76, 93
13, 13079, Note_on_c, 14, 76, 0
13, 13080, Note_on_c, 14, 77, 97
13, 13173, Note_on_c, 14, 77, 0
13, 13173, End_track
14, 0, Start_track
14, 0, MIDI_port, 0
14, 0, Title_t, "Trombone"
14, 0, Program_c, 14, 61
14, 0, Control_c, 14, 7, 127
14, 0, Control_c, 14, 10, 40
14, 541, Note_on_c, 14, 65, 109
14, 541, Control_c, 14, 121, 0
14, 599, Note_on_c, 14, 61, 101
14, 610, Note_on_c, 14, 65, 0
14, 658, Note_on_c, 14, 60, 97
14, 671, Note_on_c, 14, 61, 0
14, 711, Control_c, 14, 11, 108
14, 719, Note_on_c, 14, 58, 101
14, 721, Control_c, 14, 11, 109
14, 722, Note_on_c, 14, 60, 0
14, 741, Control_c, 14, 11, 111
14, 751, Control_c, 14, 11, 113
14, 761, Control_c, 14, 11, 114
14, 771, Control_c, 14, 11, 116
14, 781, Control_c, 14, 11, 118
14, 791, Control_c, 14, 11, 120
14, 801, Control_c, 14, 11, 122
14, 811, Control_c, 14, 11, 124
14, 819, Note_on_c, 14, 58, 0
14, 821, Control_c, 14, 11, 126
14, 831, Control_c, 14, 11, 127
14, 840, Note_on_c, 14, 44, 114
14, 840, Control_c, 14, 121, 0
14, 840, Control_c, 14, 7, 120
14, 840, Control_c, 14, 91, 100
14, 840, Control_c, 14, 93, 20
14, 900, Note_on_c, 14, 65, 105
14, 929, Note_on_c, 14, 44, 0
14, 960, Note_on_c, 14, 61, 101
14, 960, Note_on_c, 14, 65, 0
14, 1019, Note_on_c, 14, 61, 0
14, 1020, Note_on_c, 14, 60, 97
14, 1071, Control_c, 14, 11, 108
14, 1079, Note_on_c, 14, 60, 0
14, 1080, Note_on_c, 14, 58, 101
14, 1081, Control_c, 14, 11, 109
14, 1091, Control_c, 14, 11, 110
14, 1101, Control_c, 14, 11, 112
14, 1111, Control_c, 14, 11, 114
14, 1121, Control_c, 14, 11, 115
14, 1131, Control_c, 14, 11, 118
14, 1141, Control_c, 14, 11, 120
14, 1161, Control_c, 14, 11, 122
14, 1171, Control_c, 14, 11, 123
14, 1180, Note_on_c, 14, 58, 0
14, 1181, Control_c, 14, 11, 126
14, 1200, Note_on_c, 14, 43, 110
14, 1260, Note_on_c, 14, 65, 110
14, 1289, Note_on_c, 14, 43, 0
14, 1319, Note_on_c, 14, 65, 0
14, 1320, Note_on_c, 14, 61, 105
14, 1379, Note_on_c, 14, 61, 0
14, 1380, Note_on_c, 14, 60, 100
14, 1439, Note_on_c, 14, 60, 0
14, 1440, Note_on_c, 14, 58, 116
14, 1441, Control_c, 14, 11, 108
14, 1451, Control_c, 14, 11, 109
14, 1461, Control_c, 14, 11, 110
14, 1481, Control_c, 14, 11, 113
14, 1491, Control_c, 14, 11, 115
14, 1501, Control_c, 14, 11, 116
14, 1511, Control_c, 14, 11, 118
14, 1521, Control_c, 14, 11, 120
14, 1531, Control_c, 14, 11, 123
14, 1541, Control_c, 14, 11, 124
14, 1551, Control_c, 14, 11, 126
14, 1559, Note_on_c, 14, 58, 0
14, 1560, Note_on_c, 14, 42, 116
14, 1560, Note_on_c, 14, 70, 108
14, 1561, Control_c, 14, 11, 105
14, 1571, Control_c, 14, 11, 108
14, 1591, Control_c, 14, 11, 109
14, 1601, Control_c, 14, 11, 110
14, 1611, Control_c, 14, 11, 112
14, 1631, Control_c, 14, 11, 114
14, 1651, Control_c, 14, 11, 116
14, 1661, Control_c, 14, 11, 117
14, 1671, Control_c, 14, 11, 118
14, 1679, Note_on_c, 14, 70, 0
14, 1679, Note_on_c, 14, 42, 0
14, 1680, Note_on_c, 14, 41, 114
14, 1680, Note_on_c, 14, 68, 114
14, 1691, Control_c, 14, 11, 106
14, 1701, Control_c, 14, 11, 108
14, 1711, Control_c, 14, 11, 111
14, 1721, Control_c, 14, 11, 114
14, 1731, Control_c, 14, 11, 116
14, 1741, Control_c, 14, 11, 117
14, 1751, Control_c, 14, 11, 118
14, 1761, Control_c, 14, 11, 122
14, 1781, Control_c, 14, 11, 127
14, 1791, Control_c, 14, 11, 107
14, 1799, Note_on_c, 14, 68, 0
14, 1799, Note_on_c, 14, 41, 0
14, 1800, Note_on_c, 14, 40, 112
14, 1800, Note_on_c, 14, 70, 112
14, 1801, Control_c, 14, 11, 108
14, 1811, Control_c, 14, 11, 110
14, 1821, Control_c, 14, 11, 112
14, 1831, Control_c, 14, 11, 116
14, 1841, Control_c, 14, 11, 117
14, 1851, Control_c, 14, 11, 119
14, 1861, Control_c, 14, 11, 121
14, 1871, Control_c, 14, 11, 123
14, 1881, Control_c, 14, 11, 124
14, 1891, Control_c, 14, 11, 125
14, 1901, Control_c, 14, 11, 126
14, 1919, Note_on_c, 14, 70, 0
14, 1919, Note_on_c, 14, 40, 0
14, 1920, Note_on_c, 14, 39, 110
14, 1920, Note_on_c, 14, 70, 110
14, 1921, Control_c, 14, 11, 107
14, 1931, Control_c, 14, 11, 108
14, 1941, Control_c, 14, 11, 113
14, 1951, Control_c, 14, 11, 115
14, 1961, Control_c, 14, 11, 116
14, 1971, Control_c, 14, 11, 118
14, 1981, Control_c, 14, 11, 121
14, 1991, Control_c, 14, 11, 122
14, 2001, Control_c, 14, 11, 124
14, 2021, Control_c, 14, 11, 126
14, 2031, Control_c, 14, 11, 108
14, 2039, Note_on_c, 14, 70, 0
14, 2039, Note_on_c, 14, 39, 0
14, 2040, Note_on_c, 14, 44, 118
14, 2040, Note_on_c, 14, 72, 118
14, 2051, Control_c, 14, 11, 109
14, 2061, Control_c, 14, 11, 110
14, 2071, Control_c, 14, 11, 112
14, 2091, Control_c, 14, 11, 114
14, 2101, Control_c, 14, 11, 120
14, 2111, Control_c, 14, 11, 122
14, 2121, Control_c, 14, 11, 124
14, 2131, Control_c, 14, 11, 126
14, 2141, Control_c, 14, 11, 100
14, 2159, Note_on_c, 14, 72, 0
14, 2159, Note_on_c, 14, 44, 0
14, 2160, Note_on_c, 14, 49, 124
14, 2160, Note_on_c, 14, 73, 124
14, 2161, Control_c, 14, 11, 102
14, 2181, Control_c, 14, 11, 105
14, 2191, Control_c, 14, 11, 110
14, 2201, Control_c, 14, 11, 111
14, 2211, Control_c, 14, 11, 116
14, 2221, Control_c, 14, 11, 118
14, 2231, Control_c, 14, 11, 122
14, 2241, Control_c, 14, 11, 124
14, 2251, Control_c, 14, 11, 126
14, 2251, Control_c, 14, 121, 0
14, 2279, Note_on_c, 14, 73, 0
14, 2279, Note_on_c, 14, 49, 0
14, 2279, End_track
15, 0, Start_track
15, 0, MIDI_port, 0
15, 0, Title_t, "Violin1"
15, 0, Program_c, 14, 61
15, 0, Control_c, 14, 7, 127
15, 0, Control_c, 14, 10, 40
15, 839, Control_c, 14, 121, 0
15, 839, Control_c, 14, 7, 90
15, 839, Control_c, 14, 91, 110
15, 839, Control_c, 14, 93, 60
15, 839, Note_on_c, 14, 73, 101
15, 840, Note_on_c, 14, 82, 101
15, 928, Note_on_c, 14, 73, 0
15, 929, Note_on_c, 14, 82, 0
15, 1199, Note_on_c, 14, 82, 108
15, 1199, Note_on_c, 14, 73, 108
15, 1213, Control_c, 14, 2, 1
15, 1219, Control_c, 14, 2, 7
15, 1222, Control_c, 14, 2, 12
15, 1224, Control_c, 14, 2, 17
15, 1228, Control_c, 14, 2, 22
15, 1230, Control_c, 14, 2, 31
15, 1234, Control_c, 14, 2, 36
15, 1239, Control_c, 14, 2, 42
15, 1256, Control_c, 14, 2, 32
15, 1260, Control_c, 14, 2, 21
15, 1262, Control_c, 14, 2, 11
15, 1265, Control_c, 14, 2, 0
15, 1288, Note_on_c, 14, 73, 0
15, 1288, Note_on_c, 14, 82, 0
15, 1561, Note_on_c, 14, 82, 122
15, 1561, Note_on_c, 14, 72, 122
15, 1679, Note_on_c, 14, 73, 120
15, 1679, Note_on_c, 14, 80, 120
15, 1680, Note_on_c, 14, 72, 0
15, 1680, Note_on_c, 14, 82, 0
15, 1798, Note_on_c, 14, 73, 0
15, 1798, Note_on_c, 14, 80, 0
15, 1799, Note_on_c, 14, 82, 117
15, 1800, Note_on_c, 14, 73, 117
15, 1918, Note_on_c, 14, 82, 0
15, 1919, Note_on_c, 14, 75, 117
15, 1919, Note_on_c, 14, 73, 0
15, 1921, Note_on_c, 14, 82, 117
15, 2038, Note_on_c, 14, 75, 0
15, 2039, Note_on_c, 14, 84, 118
15, 2039, Note_on_c, 14, 75, 118
15, 2040, Note_on_c, 14, 82, 0
15, 2128, Note_on_c, 14, 75, 0
15, 2158, Note_on_c, 14, 84, 0
15, 2159, Note_on_c, 14, 77, 123
15, 2159, Note_on_c, 14, 85, 123
15, 2278, Note_on_c, 14, 85, 0
15, 2278, Note_on_c, 14, 77, 0
15, 2698, Note_on_c, 14, 68, 122
15, 2758, Note_on_c, 14, 65, 125
15, 2765, Note_on_c, 14, 68, 0
15, 2818, Note_on_c, 14, 63, 123
15, 2829, Note_on_c, 14, 65, 0
15, 2878, Note_on_c, 14, 61, 123
15, 2885, Note_on_c, 14, 63, 0
15, 2996, Note_on_c, 14, 77, 127
15, 2997, Note_on_c, 14, 61, 0
15, 3010, Control_c, 14, 11, 102
15, 3020, Control_c, 14, 11, 103
15, 3030, Control_c, 14, 11, 104
15, 3040, Control_c, 14, 11, 105
15, 3050, Control_c, 14, 11, 106
15, 3070, Control_c, 14, 11, 107
15, 3080, Control_c, 14, 11, 111
15, 3090, Control_c, 14, 11, 112
15, 3100, Control_c, 14, 11, 113
15, 3110, Control_c, 14, 11, 116
15, 3120, Control_c, 14, 11, 121
15, 3130, Control_c, 14, 11, 123
15, 3140, Control_c, 14, 11, 124
15, 3150, Control_c, 14, 11, 127
15, 3175, Note_on_c, 14, 77, 0
15, 3177, Note_on_c, 14, 75, 126
15, 3237, Note_on_c, 14, 78, 127
15, 3250, Control_c, 14, 11, 99
15, 3254, Note_on_c, 14, 75, 0
15, 3270, Control_c, 14, 11, 101
15, 3280, Control_c, 14, 11, 103
15, 3290, Control_c, 14, 11, 105
15, 3300, Control_c, 14, 11, 106
15, 3320, Control_c, 14, 11, 109
15, 3330, Control_c, 14, 11, 110
15, 3340, Control_c, 14, 11, 113
15, 3360, Control_c, 14, 11, 115
15, 3370, Control_c, 14, 11, 121
15, 3380, Control_c, 14, 11, 123
15, 3390, Control_c, 14, 11, 125
15, 3400, Control_c, 14, 11, 126
15, 3410, Control_c, 14, 11, 127
15, 3420, Note_on_c, 14, 77, 125
15, 3420, Note_on_c, 14, 78, 0
15, 3481, Note_on_c, 14, 77, 0
15, 3482, Note_on_c, 14, 72, 122
15, 3544, Note_on_c, 14, 73, 120
15, 3556, Note_on_c, 14, 72, 0
15, 3600, Note_on_c, 14, 70, 122
15, 3603, Note_on_c, 14, 73, 0
15, 3717, Note_on_c, 14, 75, 124
15, 3726, Note_on_c, 14, 70, 0
15, 3747, Control_c, 14, 11, 107
15, 3757, Control_c, 14, 11, 110
15, 3767, Control_c, 14, 11, 112
15, 3777, Control_c, 14, 11, 114
15, 3797, Control_c, 14, 11, 117
15, 3807, Control_c, 14, 11, 119
15, 3817, Control_c, 14, 11, 120
15, 3827, Control_c, 14, 11, 122
15, 3837, Control_c, 14, 11, 123
15, 3847, Control_c, 14, 11, 124
15, 3857, Control_c, 14, 11, 126
15, 3867, Control_c, 14, 11, 127
15, 3895, Note_on_c, 14, 77, 121
15, 3903, Note_on_c, 14, 75, 0
15, 3954, Note_on_c, 14, 77, 0
15, 3958, Note_on_c, 14, 70, 126
15, 3987, Control_c, 14, 11, 102
15, 3997, Control_c, 14, 11, 103
15, 4007, Control_c, 14, 11, 106
15, 4017, Control_c, 14, 11, 108
15, 4027, Control_c, 14, 11, 110
15, 4037, Control_c, 14, 11, 114
15, 4047, Control_c, 14, 11, 118
15, 4057, Control_c, 14, 11, 120
15, 4067, Control_c, 14, 11, 122
15, 4077, Control_c, 14, 11, 126
15, 4140, Note_on_c, 14, 75, 121
15, 4153, Note_on_c, 14, 70, 0
15, 4200, Note_on_c, 14, 72, 120
15, 4215, Note_on_c, 14, 75, 0
15, 4260, Note_on_c, 14, 70, 119
15, 4265, Note_on_c, 14, 72, 0
15, 4320, Note_on_c, 14, 68, 123
15, 4324, Note_on_c, 14, 70, 0
15, 4442, Note_on_c, 14, 75, 127
15, 4445, Note_on_c, 14, 68, 0
15, 4450, Control_c, 14, 11, 98
15, 4460, Control_c, 14, 11, 99
15, 4470, Control_c, 14, 11, 100
15, 4480, Control_c, 14, 11, 101
15, 4490, Control_c, 14, 11, 102
15, 4500, Control_c, 14, 11, 104
15, 4510, Control_c, 14, 11, 106
15, 4520, Control_c, 14, 11, 109
15, 4530, Control_c, 14, 11, 115
15, 4540, Control_c, 14, 11, 118
15, 4550, Control_c, 14, 11, 119
15, 4557, Control_c, 14, 11, 126
15, 4607, Note_on_c, 14, 77, 122
15, 4616, Note_on_c, 14, 75, 0
15, 4677, Note_on_c, 14, 77, 0
15, 4680, Note_on_c, 14, 80, 123
15, 4697, Control_c, 14, 11, 108
15, 4717, Control_c, 14, 11, 111
15, 4727, Control_c, 14, 11, 113
15, 4737, Control_c, 14, 11, 115
15, 4747, Control_c, 14, 11, 116
15, 4757, Control_c, 14, 11, 119
15, 4767, Control_c, 14, 11, 122
15, 4777, Control_c, 14, 11, 126
15, 4797, Control_c, 14, 11, 127
15, 4860, Note_on_c, 14, 75, 118
15, 4864, Note_on_c, 14, 80, 0
15, 4919, Note_on_c, 14, 75, 0
15, 4920, Note_on_c, 14, 75, 119
15, 4980, Note_on_c, 14, 77, 122
15, 4988, Note_on_c, 14, 75, 0
15, 5040, Note_on_c, 14, 80, 124
15, 5056, Note_on_c, 14, 77, 0
15, 5057, Control_c, 14, 11, 104
15, 5067, Control_c, 14, 11, 109
15, 5077, Control_c, 14, 11, 114
15, 5097, Control_c, 14, 11, 117
15, 5107, Control_c, 14, 11, 119
15, 5117, Control_c, 14, 11, 121
15, 5127, Control_c, 14, 11, 122
15, 5137, Control_c, 14, 11, 124
15, 5147, Control_c, 14, 11, 126
15, 5157, Control_c, 14, 11, 127
15, 5212, Note_on_c, 14, 77, 119
15, 5224, Note_on_c, 14, 80, 0
15, 5280, Note_on_c, 14, 82, 125
15, 5284, Note_on_c, 14, 77, 0
15, 5340, Note_on_c, 14, 80, 123
15, 5346, Note_on_c, 14, 82, 0
15, 5401, Note_on_c, 14, 75, 123
15, 5417, Control_c, 14, 11, 108
15, 5417, Note_on_c, 14, 80, 0
15, 5427, Control_c, 14, 11, 109
15, 5437, Control_c, 14, 11, 112
15, 5447, Control_c, 14, 11, 114
15, 5457, Control_c, 14, 11, 115
15, 5467, Control_c, 14, 11, 117
15, 5477, Control_c, 14, 11, 118
15, 5487, Control_c, 14, 11, 120
15, 5497, Control_c, 14, 11, 121
15, 5507, Control_c, 14, 11, 123
15, 5517, Control_c, 14, 11, 125
15, 5527, Control_c, 14, 11, 127
15, 5550, Note_on_c, 14, 72, 124
15, 5550, Note_on_c, 14, 75, 0
15, 5596, Note_on_c, 14, 70, 120
15, 5602, Note_on_c, 14, 72, 0
15, 5637, Note_on_c, 14, 68, 119
15, 5641, Note_on_c, 14, 70, 0
15, 5678, Note_on_c, 14, 66, 118
15, 5686, Note_on_c, 14, 68, 0
15, 5718, Note_on_c, 14, 63, 119
15, 5720, Note_on_c, 14, 66, 0
15, 5759, Note_on_c, 14, 63, 0
15, 5760, Note_on_c, 14, 61, 121
15, 5878, Note_on_c, 14, 77, 126
15, 5879, Note_on_c, 14, 61, 0
15, 5890, Control_c, 14, 11, 112
15, 5900, Control_c, 14, 11, 113
15, 5910, Control_c, 14, 11, 114
15, 5930, Control_c, 14, 11, 115
15, 5940, Control_c, 14, 11, 116
15, 5950, Control_c, 14, 11, 118
15, 5970, Control_c, 14, 11, 120
15, 5980, Control_c, 14, 11, 123
15, 5990, Control_c, 14, 11, 124
15, 6064, Note_on_c, 14, 77, 0
15, 6066, Note_on_c, 14, 75, 124
15, 6118, Note_on_c, 14, 78, 127
15, 6119, Note_on_c, 14, 75, 0
15, 6130, Control_c, 14, 11, 98
15, 6140, Control_c, 14, 11, 101
15, 6150, Control_c, 14, 11, 103
15, 6160, Control_c, 14, 11, 107
15, 6170, Control_c, 14, 11, 111
15, 6180, Control_c, 14, 11, 114
15, 6190, Control_c, 14, 11, 116
15, 6200, Control_c, 14, 11, 119
15, 6210, Control_c, 14, 11, 123
15, 6220, Control_c, 14, 11, 126
15, 6240, Control_c, 14, 11, 127
15, 6297, Note_on_c, 14, 78, 0
15, 6300, Note_on_c, 14, 77, 121
15, 6359, Note_on_c, 14, 77, 0
15, 6361, Note_on_c, 14, 72, 120
15, 6416, Note_on_c, 14, 73, 121
15, 6420, Note_on_c, 14, 72, 0
15, 6480, Note_on_c, 14, 70, 124
15, 6482, Note_on_c, 14, 73, 0
15, 6598, Note_on_c, 14, 75, 127
15, 6599, Note_on_c, 14, 70, 0
15, 6620, Control_c, 14, 11, 112
15, 6630, Control_c, 14, 11, 113
15, 6650, Control_c, 14, 11, 114
15, 6660, Control_c, 14, 11, 116
15, 6680, Control_c, 14, 11, 118
15, 6690, Control_c, 14, 11, 120
15, 6710, Control_c, 14, 11, 124
15, 6763, Note_on_c, 14, 77, 124
15, 6766, Note_on_c, 14, 75, 0
15, 6835, Note_on_c, 14, 80, 127
15, 6842, Note_on_c, 14, 77, 0
15, 6850, Control_c, 14, 11, 96
15, 6860, Control_c, 14, 11, 101
15, 6870, Control_c, 14, 11, 104
15, 6880, Control_c, 14, 11, 107
15, 6890, Control_c, 14, 11, 111
15, 6900, Control_c, 14, 11, 116
15, 6910, Control_c, 14, 11, 120
15, 6920, Control_c, 14, 11, 122
15, 6930, Control_c, 14, 11, 124
15, 6940, Control_c, 14, 11, 126
15, 6950, Control_c, 14, 11, 127
15, 7020, Note_on_c, 14, 78, 116
15, 7037, Note_on_c, 14, 80, 0
15, 7078, Note_on_c, 14, 77, 124
15, 7084, Note_on_c, 14, 78, 0
15, 7130, Note_on_c, 14, 78, 123
15, 7139, Note_on_c, 14, 77, 0
15, 7198, Note_on_c, 14, 77, 114
15, 7206, Note_on_c, 14, 78, 0
15, 7257, Note_on_c, 14, 77, 0
15, 7258, Note_on_c, 14, 72, 118
15, 7316, Note_on_c, 14, 77, 117
15, 7320, Note_on_c, 14, 72, 0
15, 7378, Note_on_c, 14, 74, 115
15, 7389, Note_on_c, 14, 77, 0
15, 7437, Note_on_c, 14, 75, 117
15, 7437, Note_on_c, 14, 74, 0
15, 7496, Note_on_c, 14, 75, 0
15, 7499, Note_on_c, 14, 70, 116
15, 7557, Note_on_c, 14, 75, 111
15, 7558, Note_on_c, 14, 70, 0
15, 7620, Note_on_c, 14, 72, 116
15, 7629, Note_on_c, 14, 75, 0
15, 7677, Note_on_c, 14, 73, 119
15, 7690, Note_on_c, 14, 72, 0
15, 7739, Note_on_c, 14, 65, 120
15, 7766, Note_on_c, 14, 73, 0
15, 7797, Note_on_c, 14, 70, 110
15, 7798, Note_on_c, 14, 65, 0
15, 7859, Note_on_c, 14, 72, 112
15, 7860, Note_on_c, 14, 70, 0
15, 7917, Note_on_c, 14, 68, 117
15, 7923, Note_on_c, 14, 72, 0
15, 7979, Note_on_c, 14, 70, 123
15, 7985, Note_on_c, 14, 68, 0
15, 8037, Note_on_c, 14, 70, 0
15, 8039, Note_on_c, 14, 72, 119
15, 8099, Note_on_c, 14, 73, 121
15, 8109, Note_on_c, 14, 72, 0
15, 8159, Note_on_c, 14, 75, 117
15, 8175, Note_on_c, 14, 73, 0
15, 8219, Note_on_c, 14, 77, 119
15, 8228, Note_on_c, 14, 75, 0
15, 8279, Note_on_c, 14, 75, 124
15, 8286, Note_on_c, 14, 77, 0
15, 8338, Note_on_c, 14, 75, 0
15, 8340, Note_on_c, 14, 77, 125
15, 8399, Note_on_c, 14, 77, 0
15, 8400, Note_on_c, 14, 70, 119
15, 8440, Control_c, 14, 11, 106
15, 8450, Control_c, 14, 11, 108
15, 8460, Control_c, 14, 11, 110
15, 8470, Control_c, 14, 11, 111
15, 8480, Control_c, 14, 11, 112
15, 8490, Control_c, 14, 11, 114
15, 8500, Control_c, 14, 11, 119
15, 8510, Control_c, 14, 11, 121
15, 8520, Control_c, 14, 11, 123
15, 8530, Control_c, 14, 11, 125
15, 8540, Control_c, 14, 11, 126
15, 8560, Control_c, 14, 11, 127
15, 8580, Note_on_c, 14, 72, 115
15, 8607, Note_on_c, 14, 70, 0
15, 8640, Note_on_c, 14, 73, 120
15, 8650, Control_c, 14, 11, 96
15, 8654, Note_on_c, 14, 72, 0
15, 8660, Control_c, 14, 11, 101
15, 8670, Control_c, 14, 11, 103
15, 8680, Control_c, 14, 11, 105
15, 8690, Control_c, 14, 11, 107
15, 8700, Control_c, 14, 11, 109
15, 8710, Control_c, 14, 11, 111
15, 8720, Control_c, 14, 11, 113
15, 8729, Note_on_c, 14, 73, 0
15, 8730, Control_c, 14, 11, 115
15, 8740, Control_c, 14, 11, 119
15, 8750, Control_c, 14, 11, 123
15, 8760, Note_on_c, 14, 65, 91
15, 8760, Note_on_c, 14, 73, 91
15, 8760, Control_c, 14, 11, 125
15, 8849, Note_on_c, 14, 73, 0
15, 8849, Note_on_c, 14, 65, 0
15, 8880, Note_on_c, 14, 68, 98
15, 8883, Note_on_c, 14, 77, 99
15, 8939, Note_on_c, 14, 68, 0
15, 8942, Note_on_c, 14, 77, 0
15, 9118, Note_on_c, 14, 65, 92
15, 9120, Note_on_c, 14, 73, 92
15, 9207, Note_on_c, 14, 65, 0
15, 9209, Note_on_c, 14, 73, 0
15, 9240, Note_on_c, 14, 68, 93
15, 9240, Note_on_c, 14, 77, 93
15, 9288, Note_on_c, 14, 77, 0
15, 9289, Note_on_c, 14, 68, 0
15, 9478, Note_on_c, 14, 65, 94
15, 9479, Note_on_c, 14, 73, 94
15, 9537, Note_on_c, 14, 65, 0
15, 9538, Note_on_c, 14, 73, 0
15, 9599, Note_on_c, 14, 77, 99
15, 9601, Note_on_c, 14, 68, 99
15, 9658, Note_on_c, 14, 77, 0
15, 9660, Note_on_c, 14, 68, 0
15, 9840, Note_on_c, 14, 65, 96
15, 9842, Note_on_c, 14, 73, 96
15, 9899, Note_on_c, 14, 65, 0
15, 9901, Note_on_c, 14, 73, 0
15, 9958, Note_on_c, 14, 68, 100
15, 9959, Note_on_c, 14, 77, 100
15, 10047, Note_on_c, 14, 68, 0
15, 10048, Note_on_c, 14, 77, 0
15, 10201, Note_on_c, 14, 75, 100
15, 10202, Note_on_c, 14, 66, 100
15, 10261, Note_on_c, 14, 66, 0
15, 10262, Note_on_c, 14, 75, 0
15, 10320, Note_on_c, 14, 70, 100
15, 10320, Note_on_c, 14, 78, 100
15, 10385, Note_on_c, 14, 70, 0
15, 10394, Note_on_c, 14, 78, 0
15, 10557, Note_on_c, 14, 66, 97
15, 10560, Note_on_c, 14, 75, 97
15, 10608, Note_on_c, 14, 66, 0
15, 10623, Note_on_c, 14, 75, 0
15, 10680, Note_on_c, 14, 78, 96
15, 10680, Note_on_c, 14, 70, 96
15, 10751, Note_on_c, 14, 70, 0
15, 10759, Note_on_c, 14, 78, 0
15, 10920, Note_on_c, 14, 68, 102
15, 10920, Note_on_c, 14, 75, 102
15, 10979, Note_on_c, 14, 75, 0
15, 10979, Note_on_c, 14, 68, 0
15, 11040, Note_on_c, 14, 72, 110
15, 11040, Note_on_c, 14, 80, 110
15, 11099, Note_on_c, 14, 80, 0
15, 11099, Note_on_c, 14, 72, 0
15, 11280, Note_on_c, 14, 68, 105
15, 11280, Note_on_c, 14, 75, 105
15, 11339, Note_on_c, 14, 75, 0
15, 11339, Note_on_c, 14, 68, 0
15, 11400, Note_on_c, 14, 80, 103
15, 11400, Note_on_c, 14, 72, 103
15, 11459, Note_on_c, 14, 72, 0
15, 11459, Note_on_c, 14, 80, 0
15, 11640, Note_on_c, 14, 77, 103
15, 11640, Note_on_c, 14, 68, 103
15, 11699, Note_on_c, 14, 68, 0
15, 11729, Note_on_c, 14, 77, 0
15, 11760, Note_on_c, 14, 73, 111
15, 11760, Note_on_c, 14, 80, 111
15, 11819, Note_on_c, 14, 80, 0
15, 11819, Note_on_c, 14, 73, 0
15, 11880, Note_on_c, 14, 71, 106
15, 11880, Note_on_c, 14, 80, 106
15, 11890, Control_c, 14, 11, 98
15, 11910, Control_c, 14, 11, 100
15, 11920, Control_c, 14, 11, 104
15, 11930, Control_c, 14, 11, 107
15, 11940, Control_c, 14, 11, 110
15, 11950, Control_c, 14, 11, 114
15, 11960, Control_c, 14, 11, 118
15, 11970, Control_c, 14, 11, 122
15, 11980, Control_c, 14, 11, 124
15, 11990, Control_c, 14, 11, 127
15, 11999, Note_on_c, 14, 80, 0
15, 11999, Note_on_c, 14, 71, 0
15, 12000, Note_on_c, 14, 80, 110
15, 12000, Note_on_c, 14, 72, 110
15, 12020, Control_c, 14, 11, 102
15, 12030, Control_c, 14, 11, 106
15, 12040, Control_c, 14, 11, 108
15, 12050, Control_c, 14, 11, 110
15, 12060, Control_c, 14, 11, 112
15, 12070, Control_c, 14, 11, 115
15, 12080, Control_c, 14, 11, 119
15, 12089, Note_on_c, 14, 72, 0
15, 12089, Note_on_c, 14, 80, 0
15, 12090, Control_c, 14, 11, 121
15, 12100, Control_c, 14, 11, 123
15, 12110, Control_c, 14, 11, 125
15, 12120, Control_c, 14, 11, 127
15, 12240, Note_on_c, 14, 73, 115
15, 12240, Note_on_c, 14, 80, 115
15, 12260, Control_c, 14, 11, 104
15, 12270, Control_c, 14, 11, 105
15, 12280, Control_c, 14, 11, 107
15, 12300, Control_c, 14, 11, 109
15, 12310, Control_c, 14, 11, 111
15, 12320, Control_c, 14, 11, 114
15, 12329, Note_on_c, 14, 80, 0
15, 12329, Note_on_c, 14, 73, 0
15, 12330, Control_c, 14, 11, 116
15, 12340, Control_c, 14, 11, 125
15, 12350, Control_c, 14, 11, 126
15, 12360, Note_on_c, 14, 80, 124
15, 12360, Note_on_c, 14, 73, 124
15, 12360, Control_c, 14, 11, 127
15, 12400, Control_c, 14, 11, 105
15, 12410, Control_c, 14, 11, 109
15, 12420, Control_c, 14, 11, 110
15, 12430, Control_c, 14, 11, 118
15, 12440, Control_c, 14, 11, 123
15, 12450, Control_c, 14, 11, 125
15, 12470, Control_c, 14, 11, 127
15, 12479, Note_on_c, 14, 73, 0
15, 12479, Note_on_c, 14, 80, 0
15, 12600, Note_on_c, 14, 74, 112
15, 12600, Note_on_c, 14, 82, 112
15, 12620, Control_c, 14, 11, 106
15, 12630, Control_c, 14, 11, 108
15, 12640, Control_c, 14, 11, 111
15, 12650, Control_c, 14, 11, 113
15, 12660, Control_c, 14, 11, 114
15, 12670, Control_c, 14, 11, 115
15, 12680, Control_c, 14, 11, 118
15, 12689, Note_on_c, 14, 82, 0
15, 12690, Control_c, 14, 11, 120
15, 12700, Control_c, 14, 11, 121
15, 12710, Control_c, 14, 11, 123
15, 12719, Note_on_c, 14, 74, 0
15, 12720, Note_on_c, 14, 75, 122
15, 12720, Note_on_c, 14, 82, 122
15, 12720, Control_c, 14, 11, 127
15, 12750, Control_c, 14, 11, 101
15, 12760, Control_c, 14, 11, 103
15, 12770, Control_c, 14, 11, 105
15, 12780, Control_c, 14, 11, 109
15, 12790, Control_c, 14, 11, 111
15, 12800, Control_c, 14, 11, 114
15, 12809, Note_on_c, 14, 82, 0
15, 12809, Note_on_c, 14, 75, 0
15, 12810, Control_c, 14, 11, 119
15, 12820, Control_c, 14, 11, 122
15, 12830, Control_c, 14, 11, 123
15, 12840, Control_c, 14, 11, 125
15, 12960, Note_on_c, 14, 84, 114
15, 12960, Note_on_c, 14, 76, 114
15, 12960, Control_c, 14, 11, 99
15, 12970, Control_c, 14, 11, 101
15, 12980, Control_c, 14, 11, 102
15, 12990, Control_c, 14, 11, 103
15, 13000, Control_c, 14, 11, 106
15, 13010, Control_c, 14, 11, 109
15, 13019, Note_on_c, 14, 84, 0
15, 13020, Control_c, 14, 11, 111
15, 13030, Control_c, 14, 11, 113
15, 13040, Control_c, 14, 11, 117
15, 13049, Note_on_c, 14, 76, 0
15, 13050, Control_c, 14, 11, 119
15, 13060, Control_c, 14, 11, 122
15, 13070, Control_c, 14, 11, 124
15, 13080, Note_on_c, 14, 84, 127
15, 13080, Note_on_c, 14, 77, 127
15, 13080, Control_c, 14, 11, 127
15, 13100, Control_c, 14, 11, 97
15, 13120, Control_c, 14, 11, 99
15, 13130, Control_c, 14, 11, 102
15, 13140, Control_c, 14, 11, 103
15, 13150, Control_c, 14, 11, 107
15, 13160, Control_c, 14, 11, 113
15, 13169, Note_on_c, 14, 77, 0
15, 13169, Note_on_c, 14, 84, 0
15, 13170, Control_c, 14, 11, 122
15, 13180, Control_c, 14, 11, 124
15, 13190, Control_c, 14, 11, 126
15, 13200, Control_c, 14, 11, 127
15, 13200, End_track
16, 0, Start_track
16, 0, MIDI_port, 0
16, 0, Title_t, "Cello"
16, 0, Program_c, 13, 48
16, 0, Control_c, 13, 7, 127
16, 0, Control_c, 13, 10, 110
16, 840, Control_c, 13, 121, 0
16, 840, Control_c, 13, 91, 110
16, 840, Control_c, 13, 93, 60
16, 840, Control_c, 13, 7, 90
16, 840, Note_on_c, 13, 68, 77
16, 929, Note_on_c, 13, 68, 0
16, 1200, Note_on_c, 13, 67, 77
16, 1289, Note_on_c, 13, 67, 0
16, 1550, Control_c, 13, 11, 99
16, 1560, Note_on_c, 13, 66, 69
16, 1570, Control_c, 13, 11, 101
16, 1590, Control_c, 13, 11, 103
16, 1610, Control_c, 13, 11, 105
16, 1630, Control_c, 13, 11, 109
16, 1640, Control_c, 13, 11, 111
16, 1650, Control_c, 13, 11, 114
16, 1660, Control_c, 13, 11, 117
16, 1670, Control_c, 13, 11, 123
16, 1679, Note_on_c, 13, 66, 0
16, 1680, Note_on_c, 13, 65, 71
16, 1680, Control_c, 13, 11, 125
16, 1700, Control_c, 13, 11, 99
16, 1710, Control_c, 13, 11, 101
16, 1720, Control_c, 13, 11, 105
16, 1730, Control_c, 13, 11, 109
16, 1740, Control_c, 13, 11, 112
16, 1750, Control_c, 13, 11, 117
16, 1760, Control_c, 13, 11, 120
16, 1770, Control_c, 13, 11, 122
16, 1780, Control_c, 13, 11, 123
16, 1790, Control_c, 13, 11, 125
16, 1799, Note_on_c, 13, 65, 0
16, 1800, Note_on_c, 13, 64, 77
16, 1800, Control_c, 13, 11, 127
16, 1820, Control_c, 13, 11, 99
16, 1830, Control_c, 13, 11, 101
16, 1840, Control_c, 13, 11, 105
16, 1850, Control_c, 13, 11, 107
16, 1860, Control_c, 13, 11, 111
16, 1870, Control_c, 13, 11, 112
16, 1880, Control_c, 13, 11, 117
16, 1890, Control_c, 13, 11, 122
16, 1900, Control_c, 13, 11, 123
16, 1910, Control_c, 13, 11, 126
16, 1919, Note_on_c, 13, 64, 0
16, 1920, Note_on_c, 13, 63, 77
16, 1920, Control_c, 13, 11, 127
16, 1940, Control_c, 13, 11, 98
16, 1950, Control_c, 13, 11, 100
16, 1960, Control_c, 13, 11, 106
16, 1970, Control_c, 13, 11, 112
16, 1980, Control_c, 13, 11, 114
16, 1990, Control_c, 13, 11, 118
16, 2000, Control_c, 13, 11, 121
16, 2010, Control_c, 13, 11, 124
16, 2020, Control_c, 13, 11, 125
16, 2030, Control_c, 13, 11, 127
16, 2039, Note_on_c, 13, 63, 0
16, 2040, Note_on_c, 13, 68, 73
16, 2060, Control_c, 13, 11, 98
16, 2070, Control_c, 13, 11, 99
16, 2080, Control_c, 13, 11, 100
16, 2090, Control_c, 13, 11, 102
16, 2100, Control_c, 13, 11, 104
16, 2110, Control_c, 13, 11, 106
16, 2120, Control_c, 13, 11, 111
16, 2130, Control_c, 13, 11, 119
16, 2140, Control_c, 13, 11, 122
16, 2150, Control_c, 13, 11, 124
16, 2159, Note_on_c, 13, 68, 0
16, 2160, Note_on_c, 13, 61, 81
16, 2160, Control_c, 13, 11, 126
16, 2170, Control_c, 13, 11, 98
16, 2180, Control_c, 13, 11, 101
16, 2190, Control_c, 13, 11, 104
16, 2200, Control_c, 13, 11, 106
16, 2220, Control_c, 13, 11, 111
16, 2230, Control_c, 13, 11, 114
16, 2240, Control_c, 13, 11, 119
16, 2250, Control_c, 13, 11, 120
16, 2260, Control_c, 13, 11, 123
16, 2270, Control_c, 13, 11, 126
16, 2279, Note_on_c, 13, 61, 0
16, 2698, Note_on_c, 13, 56, 125
16, 2758, Note_on_c, 13, 53, 123
16, 2775, Note_on_c, 13, 56, 0
16, 2818, Note_on_c, 13, 51, 118
16, 2829, Note_on_c, 13, 53, 0
16, 2878, Note_on_c, 13, 49, 118
16, 2896, Note_on_c, 13, 51, 0
16, 2990, Control_c, 13, 11, 100
16, 2996, Note_on_c, 13, 65, 127
16, 2997, Note_on_c, 13, 49, 0
16, 3000, Control_c, 13, 11, 106
16, 3010, Control_c, 13, 11, 107
16, 3020, Control_c, 13, 11, 110
16, 3030, Control_c, 13, 11, 113
16, 3040, Control_c, 13, 11, 114
16, 3050, Control_c, 13, 11, 116
16, 3060, Control_c, 13, 11, 117
16, 3070, Control_c, 13, 11, 120
16, 3080, Control_c, 13, 11, 122
16, 3100, Control_c, 13, 11, 124
16, 3110, Control_c, 13, 11, 126
16, 3172, Note_on_c, 13, 65, 0
16, 3180, Note_on_c, 13, 63, 124
16, 3238, Note_on_c, 13, 66, 127
16, 3250, Control_c, 13, 11, 96
16, 3257, Note_on_c, 13, 63, 0
16, 3260, Control_c, 13, 11, 97
16, 3270, Control_c, 13, 11, 99
16, 3280, Control_c, 13, 11, 102
16, 3290, Control_c, 13, 11, 104
16, 3300, Control_c, 13, 11, 106
16, 3310, Control_c, 13, 11, 111
16, 3320, Control_c, 13, 11, 113
16, 3330, Control_c, 13, 11, 115
16, 3340, Control_c, 13, 11, 118
16, 3350, Control_c, 13, 11, 120
16, 3360, Control_c, 13, 11, 122
16, 3370, Control_c, 13, 11, 123
16, 3380, Control_c, 13, 11, 124
16, 3390, Control_c, 13, 11, 126
16, 3410, Control_c, 13, 11, 127
16, 3420, Note_on_c, 13, 65, 120
16, 3421, Note_on_c, 13, 66, 0
16, 3481, Note_on_c, 13, 65, 0
16, 3482, Note_on_c, 13, 60, 108
16, 3544, Note_on_c, 13, 61, 106
16, 3556, Note_on_c, 13, 60, 0
16, 3600, Note_on_c, 13, 58, 104
16, 3617, Note_on_c, 13, 61, 0
16, 3717, Note_on_c, 13, 63, 124
16, 3720, Control_c, 13, 11, 98
16, 3726, Note_on_c, 13, 58, 0
16, 3730, Control_c, 13, 11, 101
16, 3740, Control_c, 13, 11, 105
16, 3750, Control_c, 13, 11, 108
16, 3760, Control_c, 13, 11, 113
16, 3770, Control_c, 13, 11, 116
16, 3780, Control_c, 13, 11, 118
16, 3790, Control_c, 13, 11, 121
16, 3800, Control_c, 13, 11, 123
16, 3810, Control_c, 13, 11, 125
16, 3820, Control_c, 13, 11, 126
16, 3830, Control_c, 13, 11, 127
16, 3895, Note_on_c, 13, 65, 119
16, 3903, Note_on_c, 13, 63, 0
16, 3958, Note_on_c, 13, 58, 117
16, 3970, Control_c, 13, 11, 98
16, 3983, Note_on_c, 13, 65, 0
16, 3990, Control_c, 13, 11, 100
16, 4000, Control_c, 13, 11, 102
16, 4010, Control_c, 13, 11, 104
16, 4030, Control_c, 13, 11, 106
16, 4040, Control_c, 13, 11, 108
16, 4050, Control_c, 13, 11, 110
16, 4060, Control_c, 13, 11, 112
16, 4070, Control_c, 13, 11, 114
16, 4080, Control_c, 13, 11, 117
16, 4090, Control_c, 13, 11, 120
16, 4100, Control_c, 13, 11, 121
16, 4110, Control_c, 13, 11, 122
16, 4120, Control_c, 13, 11, 124
16, 4130, Control_c, 13, 11, 126
16, 4140, Note_on_c, 13, 63, 121
16, 4140, Control_c, 13, 11, 127
16, 4153, Note_on_c, 13, 58, 0
16, 4200, Note_on_c, 13, 60, 110
16, 4215, Note_on_c, 13, 63, 0
16, 4260, Note_on_c, 13, 58, 106
16, 4265, Note_on_c, 13, 60, 0
16, 4320, Note_on_c, 13, 56, 115
16, 4324, Note_on_c, 13, 58, 0
16, 4440, Control_c, 13, 11, 96
16, 4442, Note_on_c, 13, 63, 124
16, 4445, Note_on_c, 13, 56, 0
16, 4460, Control_c, 13, 11, 100
16, 4470, Control_c, 13, 11, 105
16, 4480, Control_c, 13, 11, 110
16, 4490, Control_c, 13, 11, 113
16, 4500, Control_c, 13, 11, 117
16, 4510, Control_c, 13, 11, 122
16, 4520, Control_c, 13, 11, 124
16, 4530, Control_c, 13, 11, 125
16, 4540, Control_c, 13, 11, 126
16, 4550, Control_c, 13, 11, 127
16, 4607, Note_on_c, 13, 65, 112
16, 4616, Note_on_c, 13, 63, 0
16, 4677, Note_on_c, 13, 65, 0
16, 4680, Note_on_c, 13, 68, 123
16, 4700, Control_c, 13, 11, 97
16, 4710, Control_c, 13, 11, 103
16, 4720, Control_c, 13, 11, 107
16, 4730, Control_c, 13, 11, 110
16, 4740, Control_c, 13, 11, 113
16, 4750, Control_c, 13, 11, 116
16, 4760, Control_c, 13, 11, 119
16, 4770, Control_c, 13, 11, 121
16, 4780, Control_c, 13, 11, 124
16, 4790, Control_c, 13, 11, 127
16, 4860, Note_on_c, 13, 63, 109
16, 4864, Note_on_c, 13, 68, 0
16, 4919, Note_on_c, 13, 63, 0
16, 4920, Note_on_c, 13, 63, 112
16, 4980, Note_on_c, 13, 65, 116
16, 4988, Note_on_c, 13, 63, 0
16, 5040, Note_on_c, 13, 68, 126
16, 5040, Control_c, 13, 11, 108
16, 5050, Control_c, 13, 11, 109
16, 5056, Note_on_c, 13, 65, 0
16, 5060, Control_c, 13, 11, 110
16, 5070, Control_c, 13, 11, 111
16, 5090, Control_c, 13, 11, 112
16, 5100, Control_c, 13, 11, 113
16, 5110, Control_c, 13, 11, 114
16, 5130, Control_c, 13, 11, 116
16, 5140, Control_c, 13, 11, 118
16, 5150, Control_c, 13, 11, 120
16, 5160, Control_c, 13, 11, 121
16, 5170, Control_c, 13, 11, 123
16, 5180, Control_c, 13, 11, 127
16, 5212, Note_on_c, 13, 65, 115
16, 5224, Note_on_c, 13, 68, 0
16, 5280, Note_on_c, 13, 70, 127
16, 5284, Note_on_c, 13, 65, 0
16, 5340, Note_on_c, 13, 68, 123
16, 5346, Note_on_c, 13, 70, 0
16, 5400, Control_c, 13, 11, 96
16, 5401, Note_on_c, 13, 63, 123
16, 5410, Control_c, 13, 11, 97
16, 5417, Note_on_c, 13, 68, 0
16, 5420, Control_c, 13, 11, 99
16, 5430, Control_c, 13, 11, 103
16, 5440, Control_c, 13, 11, 107
16, 5450, Control_c, 13, 11, 109
16, 5460, Control_c, 13, 11, 112
16, 5470, Control_c, 13, 11, 115
16, 5480, Control_c, 13, 11, 119
16, 5490, Control_c, 13, 11, 122
16, 5500, Control_c, 13, 11, 124
16, 5510, Control_c, 13, 11, 126
16, 5520, Control_c, 13, 11, 127
16, 5550, Note_on_c, 13, 60, 120
16, 5550, Note_on_c, 13, 63, 0
16, 5596, Note_on_c, 13, 58, 114
16, 5602, Note_on_c, 13, 60, 0
16, 5637, Note_on_c, 13, 56, 113
16, 5657, Note_on_c, 13, 58, 0
16, 5678, Note_on_c, 13, 54, 110
16, 5686, Note_on_c, 13, 56, 0
16, 5718, Note_on_c, 13, 51, 108
16, 5720, Note_on_c, 13, 54, 0
16, 5759, Note_on_c, 13, 51, 0
16, 5760, Note_on_c, 13, 49, 114
16, 5878, Note_on_c, 13, 65, 126
16, 5879, Note_on_c, 13, 49, 0
16, 5890, Control_c, 13, 11, 97
16, 5900, Control_c, 13, 11, 102
16, 5910, Control_c, 13, 11, 105
16, 5920, Control_c, 13, 11, 106
16, 5930, Control_c, 13, 11, 109
16, 5940, Control_c, 13, 11, 111
16, 5950, Control_c, 13, 11, 113
16, 5960, Control_c, 13, 11, 114
16, 5970, Control_c, 13, 11, 116
16, 5980, Control_c, 13, 11, 119
16, 5990, Control_c, 13, 11, 122
16, 6000, Control_c, 13, 11, 124
16, 6010, Control_c, 13, 11, 126
16, 6066, Note_on_c, 13, 63, 111
16, 6087, Note_on_c, 13, 65, 0
16, 6118, Note_on_c, 13, 66, 126
16, 6127, Note_on_c, 13, 63, 0
16, 6130, Control_c, 13, 11, 96
16, 6140, Control_c, 13, 11, 97
16, 6150, Control_c, 13, 11, 98
16, 6160, Control_c, 13, 11, 100
16, 6170, Control_c, 13, 11, 103
16, 6180, Control_c, 13, 11, 105
16, 6190, Control_c, 13, 11, 108
16, 6200, Control_c, 13, 11, 112
16, 6210, Control_c, 13, 11, 115
16, 6220, Control_c, 13, 11, 117
16, 6230, Control_c, 13, 11, 122
16, 6240, Control_c, 13, 11, 126
16, 6300, Note_on_c, 13, 65, 107
16, 6324, Note_on_c, 13, 66, 0
16, 6361, Note_on_c, 13, 60, 119
16, 6367, Note_on_c, 13, 65, 0
16, 6416, Note_on_c, 13, 61, 113
16, 6426, Note_on_c, 13, 60, 0
16, 6480, Note_on_c, 13, 58, 119
16, 6482, Note_on_c, 13, 61, 0
16, 6599, Note_on_c, 13, 58, 0
16, 6600, Note_on_c, 13, 63, 127
16, 6600, Control_c, 13, 11, 96
16, 6610, Control_c, 13, 11, 98
16, 6620, Control_c, 13, 11, 100
16, 6630, Control_c, 13, 11, 101
16, 6640, Control_c, 13, 11, 102
16, 6650, Control_c, 13, 11, 104
16, 6660, Control_c, 13, 11, 108
16, 6670, Control_c, 13, 11, 110
16, 6680, Control_c, 13, 11, 112
16, 6690, Control_c, 13, 11, 115
16, 6700, Control_c, 13, 11, 118
16, 6710, Control_c, 13, 11, 122
16, 6720, Control_c, 13, 11, 124
16, 6763, Note_on_c, 13, 65, 119
16, 6779, Note_on_c, 13, 63, 0
16, 6840, Note_on_c, 13, 68, 125
16, 6840, Control_c, 13, 11, 97
16, 6842, Note_on_c, 13, 65, 0
16, 6850, Control_c, 13, 11, 101
16, 6860, Control_c, 13, 11, 104
16, 6870, Control_c, 13, 11, 106
16, 6880, Control_c, 13, 11, 109
16, 6890, Control_c, 13, 11, 111
16, 6900, Control_c, 13, 11, 113
16, 6910, Control_c, 13, 11, 114
16, 6920, Control_c, 13, 11, 116
16, 6930, Control_c, 13, 11, 119
16, 6940, Control_c, 13, 11, 120
16, 6960, Control_c, 13, 11, 123
16, 6970, Control_c, 13, 11, 124
16, 6980, Control_c, 13, 11, 126
16, 7000, Control_c, 13, 11, 127
16, 7020, Note_on_c, 13, 66, 107
16, 7042, Note_on_c, 13, 68, 0
16, 7078, Note_on_c, 13, 65, 115
16, 7084, Note_on_c, 13, 66, 0
16, 7130, Note_on_c, 13, 66, 113
16, 7139, Note_on_c, 13, 65, 0
16, 7200, Note_on_c, 13, 65, 104
16, 7206, Note_on_c, 13, 66, 0
16, 7260, Note_on_c, 13, 60, 93
16, 7264, Note_on_c, 13, 65, 0
16, 7320, Note_on_c, 13, 65, 91
16, 7322, Note_on_c, 13, 60, 0
16, 7380, Note_on_c, 13, 62, 87
16, 7393, Note_on_c, 13, 65, 0
16, 7440, Note_on_c, 13, 63, 91
16, 7449, Note_on_c, 13, 62, 0
16, 7500, Note_on_c, 13, 58, 85
16, 7513, Note_on_c, 13, 63, 0
16, 7560, Note_on_c, 13, 63, 85
16, 7573, Note_on_c, 13, 58, 0
16, 7620, Note_on_c, 13, 60, 84
16, 7632, Note_on_c, 13, 63, 0
16, 7680, Note_on_c, 13, 61, 97
16, 7690, Note_on_c, 13, 60, 0
16, 7740, Note_on_c, 13, 53, 79
16, 7769, Note_on_c, 13, 61, 0
16, 7800, Note_on_c, 13, 58, 80
16, 7811, Note_on_c, 13, 53, 0
16, 7860, Note_on_c, 13, 60, 87
16, 7863, Note_on_c, 13, 58, 0
16, 7920, Note_on_c, 13, 56, 89
16, 7924, Note_on_c, 13, 60, 0
16, 7980, Note_on_c, 13, 58, 96
16, 7988, Note_on_c, 13, 56, 0
16, 8038, Note_on_c, 13, 58, 0
16, 8040, Note_on_c, 13, 60, 100
16, 8100, Note_on_c, 13, 61, 104
16, 8110, Note_on_c, 13, 60, 0
16, 8160, Note_on_c, 13, 63, 115
16, 8176, Note_on_c, 13, 61, 0
16, 8220, Note_on_c, 13, 65, 118
16, 8229, Note_on_c, 13, 63, 0
16, 8280, Note_on_c, 13, 63, 125
16, 8287, Note_on_c, 13, 65, 0
16, 8339, Note_on_c, 13, 63, 0
16, 8340, Note_on_c, 13, 65, 120
16, 8396, Note_on_c, 13, 58, 115
16, 8399, Note_on_c, 13, 65, 0
16, 8410, Control_c, 13, 11, 99
16, 8420, Control_c, 13, 11, 102
16, 8430, Control_c, 13, 11, 104
16, 8440, Control_c, 13, 11, 105
16, 8450, Control_c, 13, 11, 106
16, 8460, Control_c, 13, 11, 109
16, 8480, Control_c, 13, 11, 110
16, 8490, Control_c, 13, 11, 113
16, 8500, Control_c, 13, 11, 114
16, 8510, Control_c, 13, 11, 116
16, 8520, Control_c, 13, 11, 117
16, 8530, Control_c, 13, 11, 119
16, 8540, Control_c, 13, 11, 121
16, 8550, Control_c, 13, 11, 124
16, 8560, Control_c, 13, 11, 126
16, 8570, Control_c, 13, 11, 127
16, 8580, Note_on_c, 13, 60, 88
16, 8583, Note_on_c, 13, 58, 0
16, 8640, Note_on_c, 13, 61, 89
16, 8647, Note_on_c, 13, 60, 0
16, 8650, Control_c, 13, 11, 94
16, 8660, Control_c, 13, 11, 100
16, 8670, Control_c, 13, 11, 104
16, 8680, Control_c, 13, 11, 106
16, 8690, Control_c, 13, 11, 109
16, 8700, Control_c, 13, 11, 112
16, 8710, Control_c, 13, 11, 114
16, 8720, Control_c, 13, 11, 126
16, 8729, Note_on_c, 13, 61, 0
16, 8760, Note_on_c, 13, 53, 31
16, 8760, Note_on_c, 13, 61, 31
16, 8849, Note_on_c, 13, 61, 0
16, 8849, Note_on_c, 13, 53, 0
16, 8880, Note_on_c, 13, 56, 33
16, 8883, Note_on_c, 13, 65, 33
16, 8969, Note_on_c, 13, 56, 0
16, 8972, Note_on_c, 13, 65, 0
16, 9118, Note_on_c, 13, 53, 36
16, 9120, Note_on_c, 13, 61, 35
16, 9207, Note_on_c, 13, 53, 0
16, 9209, Note_on_c, 13, 61, 0
16, 9240, Note_on_c, 13, 56, 41
16, 9240, Note_on_c, 13, 65, 41
16, 9329, Note_on_c, 13, 65, 0
16, 9329, Note_on_c, 13, 56, 0
16, 9478, Note_on_c, 13, 53, 51
16, 9479, Note_on_c, 13, 61, 51
16, 9567, Note_on_c, 13, 53, 0
16, 9568, Note_on_c, 13, 61, 0
16, 9599, Note_on_c, 13, 65, 60
16, 9601, Note_on_c, 13, 56, 60
16, 9688, Note_on_c, 13, 65, 0
16, 9690, Note_on_c, 13, 56, 0
16, 9840, Note_on_c, 13, 53, 65
16, 9842, Note_on_c, 13, 61, 65
16, 9929, Note_on_c, 13, 53, 0
16, 9931, Note_on_c, 13, 61, 0
16, 9958, Note_on_c, 13, 56, 63
16, 9959, Note_on_c, 13, 65, 63
16, 10047, Note_on_c, 13, 56, 0
16, 10048, Note_on_c, 13, 65, 0
16, 10208, Note_on_c, 13, 63, 67
16, 10208, Note_on_c, 13, 54, 69
16, 10297, Note_on_c, 13, 54, 0
16, 10297, Note_on_c, 13, 63, 0
16, 10325, Note_on_c, 13, 66, 73
16, 10325, Note_on_c, 13, 58, 73
16, 10414, Note_on_c, 13, 58, 0
16, 10414, Note_on_c, 13, 66, 0
16, 10568, Note_on_c, 13, 63, 70
16, 10568, Note_on_c, 13, 54, 70
16, 10657, Note_on_c, 13, 54, 0
16, 10657, Note_on_c, 13, 63, 0
16, 10685, Note_on_c, 13, 66, 72
16, 10685, Note_on_c, 13, 58, 72
16, 10756, Note_on_c, 13, 58, 0
16, 10764, Note_on_c, 13, 66, 0
16, 10920, Note_on_c, 13, 56, 73
16, 10920, Note_on_c, 13, 63, 73
16, 11009, Note_on_c, 13, 63, 0
16, 11009, Note_on_c, 13, 56, 0
16, 11040, Note_on_c, 13, 60, 67
16, 11040, Note_on_c, 13, 68, 67
16, 11129, Note_on_c, 13, 68, 0
16, 11129, Note_on_c, 13, 60, 0
16, 11280, Note_on_c, 13, 56, 71
16, 11280, Note_on_c, 13, 63, 71
16, 11369, Note_on_c, 13, 63, 0
16, 11369, Note_on_c, 13, 56, 0
16, 11400, Note_on_c, 13, 68, 67
16, 11400, Note_on_c, 13, 60, 67
16, 11489, Note_on_c, 13, 60, 0
16, 11489, Note_on_c, 13, 68, 0
16, 11640, Note_on_c, 13, 65, 73
16, 11640, Note_on_c, 13, 56, 73
16, 11729, Note_on_c, 13, 56, 0
16, 11729, Note_on_c, 13, 65, 0
16, 11760, Note_on_c, 13, 61, 76
16, 11760, Note_on_c, 13, 68, 76
16, 11849, Note_on_c, 13, 68, 0
16, 11849, Note_on_c, 13, 61, 0
16, 11880, Note_on_c, 13, 59, 65
16, 11880, Note_on_c, 13, 68, 65
16, 11880, Control_c, 13, 11, 96
16, 11890, Control_c, 13, 11, 98
16, 11900, Control_c, 13, 11, 99
16, 11910, Control_c, 13, 11, 100
16, 11920, Control_c, 13, 11, 102
16, 11930, Control_c, 13, 11, 104
16, 11940, Control_c, 13, 11, 107
16, 11950, Control_c, 13, 11, 109
16, 11960, Control_c, 13, 11, 111
16, 11970, Control_c, 13, 11, 116
16, 11980, Control_c, 13, 11, 120
16, 11990, Control_c, 13, 11, 122
16, 11999, Note_on_c, 13, 68, 0
16, 11999, Note_on_c, 13, 59, 0
16, 12000, Note_on_c, 13, 68, 74
16, 12000, Note_on_c, 13, 60, 74
16, 12000, Control_c, 13, 11, 124
16, 12010, Control_c, 13, 11, 126
16, 12020, Control_c, 13, 11, 104
16, 12030, Control_c, 13, 11, 108
16, 12040, Control_c, 13, 11, 110
16, 12050, Control_c, 13, 11, 112
16, 12060, Control_c, 13, 11, 114
16, 12070, Control_c, 13, 11, 116
16, 12080, Control_c, 13, 11, 119
16, 12089, Note_on_c, 13, 60, 0
16, 12089, Note_on_c, 13, 68, 0
16, 12090, Control_c, 13, 11, 123
16, 12100, Control_c, 13, 11, 126
16, 12110, Control_c, 13, 11, 127
16, 12240, Note_on_c, 13, 61, 78
16, 12240, Note_on_c, 13, 68, 78
16, 12250, Control_c, 13, 11, 101
16, 12260, Control_c, 13, 11, 103
16, 12270, Control_c, 13, 11, 104
16, 12280, Control_c, 13, 11, 106
16, 12290, Control_c, 13, 11, 109
16, 12300, Control_c, 13, 11, 114
16, 12310, Control_c, 13, 11, 116
16, 12320, Control_c, 13, 11, 120
16, 12329, Note_on_c, 13, 68, 0
16, 12329, Note_on_c, 13, 61, 0
16, 12330, Control_c, 13, 11, 123
16, 12340, Control_c, 13, 11, 125
16, 12350, Control_c, 13, 11, 96
16, 12360, Note_on_c, 13, 68, 84
16, 12360, Note_on_c, 13, 61, 84
16, 12360, Control_c, 13, 11, 97
16, 12370, Control_c, 13, 11, 101
16, 12380, Control_c, 13, 11, 103
16, 12390, Control_c, 13, 11, 104
16, 12400, Control_c, 13, 11, 105
16, 12410, Control_c, 13, 11, 107
16, 12430, Control_c, 13, 11, 109
16, 12440, Control_c, 13, 11, 111
16, 12449, Note_on_c, 13, 61, 0
16, 12449, Note_on_c, 13, 68, 0
16, 12450, Control_c, 13, 11, 113
16, 12460, Control_c, 13, 11, 124
16, 12600, Note_on_c, 13, 62, 105
16, 12600, Note_on_c, 13, 70, 105
16, 12610, Control_c, 13, 11, 100
16, 12620, Control_c, 13, 11, 103
16, 12630, Control_c, 13, 11, 105
16, 12640, Control_c, 13, 11, 106
16, 12650, Control_c, 13, 11, 108
16, 12660, Control_c, 13, 11, 110
16, 12670, Control_c, 13, 11, 111
16, 12680, Control_c, 13, 11, 114
16, 12689, Note_on_c, 13, 70, 0
16, 12690, Control_c, 13, 11, 118
16, 12700, Control_c, 13, 11, 123
16, 12710, Control_c, 13, 11, 124
16, 12719, Note_on_c, 13, 62, 0
16, 12720, Note_on_c, 13, 63, 116
16, 12720, Note_on_c, 13, 70, 116
16, 12720, Control_c, 13, 11, 125
16, 12730, Control_c, 13, 11, 96
16, 12740, Control_c, 13, 11, 98
16, 12760, Control_c, 13, 11, 101
16, 12770, Control_c, 13, 11, 104
16, 12780, Control_c, 13, 11, 106
16, 12790, Control_c, 13, 11, 108
16, 12800, Control_c, 13, 11, 110
16, 12809, Note_on_c, 13, 70, 0
16, 12809, Note_on_c, 13, 63, 0
16, 12810, Control_c, 13, 11, 114
16, 12820, Control_c, 13, 11, 119
16, 12830, Control_c, 13, 11, 123
16, 12840, Control_c, 13, 11, 126
16, 12950, Control_c, 13, 11, 98
16, 12960, Note_on_c, 13, 72, 118
16, 12960, Note_on_c, 13, 64, 118
16, 12970, Control_c, 13, 11, 100
16, 12980, Control_c, 13, 11, 102
16, 12990, Control_c, 13, 11, 106
16, 13000, Control_c, 13, 11, 110
16, 13010, Control_c, 13, 11, 111
16, 13020, Control_c, 13, 11, 113
16, 13030, Control_c, 13, 11, 115
16, 13040, Control_c, 13, 11, 117
16, 13049, Note_on_c, 13, 64, 0
16, 13049, Note_on_c, 13, 72, 0
16, 13050, Control_c, 13, 11, 120
16, 13060, Control_c, 13, 11, 124
16, 13070, Control_c, 13, 11, 98
16, 13080, Note_on_c, 13, 72, 126
16, 13080, Note_on_c, 13, 65, 126
16, 13080, Control_c, 13, 11, 100
16, 13100, Control_c, 13, 11, 104
16, 13110, Control_c, 13, 11, 106
16, 13120, Control_c, 13, 11, 108
16, 13130, Control_c, 13, 11, 111
16, 13140, Control_c, 13, 11, 114
16, 13150, Control_c, 13, 11, 119
16, 13160, Control_c, 13, 11, 120
16, 13169, Note_on_c, 13, 65, 0
16, 13169, Note_on_c, 13, 72, 0
16, 13170, Control_c, 13, 11, 122
16, 13180, Control_c, 13, 11, 125
16, 13190, Control_c, 13, 11, 127
16, 13200, Control_c, 13, 11, 126
16, 13200, End_track
17, 0, Start_track
17, 0, MIDI_port, 0
17, 0, Title_t, "Piano"
17, 0, Program_c, 12, 0
17, 0, Control_c, 12, 7, 90
17, 0, Control_c, 12, 10, 64
17, 2150, Note_on_c, 12, 44, 114
17, 2155, Note_on_c, 12, 49, 118
17, 2158, Note_on_c, 12, 53, 120
17, 2164, Control_c, 12, 121, 0
17, 2164, Control_c, 12, 91, 50
17, 2164, Control_c, 12, 7, 90
17, 2164, Note_on_c, 12, 37, 125
17, 2164, Note_on_c, 12, 61, 127
17, 2165, Note_on_c, 12, 56, 125
17, 2165, Note_on_c, 12, 44, 0
17, 2166, Control_c, 12, 64, 127
17, 2169, Note_on_c, 12, 49, 0
17, 2176, Note_on_c, 12, 53, 0
17, 2181, Note_on_c, 12, 56, 0
17, 2182, Note_on_c, 12, 61, 0
17, 2182, Note_on_c, 12, 37, 0
17, 2255, Note_on_c, 12, 53, 88
17, 2260, Note_on_c, 12, 56, 90
17, 2269, Note_on_c, 12, 61, 101
17, 2270, Note_on_c, 12, 53, 0
17, 2275, Note_on_c, 12, 65, 105
17, 2276, Note_on_c, 12, 56, 0
17, 2278, Note_on_c, 12, 61, 0
17, 2283, Note_on_c, 12, 85, 117
17, 2284, Note_on_c, 12, 73, 118
17, 2284, Note_on_c, 12, 77, 118
17, 2284, Note_on_c, 12, 80, 118
17, 2285, Note_on_c, 12, 68, 118
17, 2287, Note_on_c, 12, 65, 0
17, 2296, Note_on_c, 12, 68, 0
17, 2307, Note_on_c, 12, 73, 0
17, 2314, Note_on_c, 12, 77, 0
17, 2318, Note_on_c, 12, 80, 0
17, 2326, Note_on_c, 12, 85, 0
17, 2377, Note_on_c, 12, 61, 77
17, 2383, Note_on_c, 12, 65, 90
17, 2386, Note_on_c, 12, 77, 94
17, 2387, Note_on_c, 12, 68, 94
17, 2390, Note_on_c, 12, 80, 102
17, 2393, Note_on_c, 12, 65, 0
17, 2394, Note_on_c, 12, 73, 105
17, 2395, Note_on_c, 12, 85, 105
17, 2397, Note_on_c, 12, 61, 0
17, 2401, Note_on_c, 12, 68, 0
17, 2402, Note_on_c, 12, 89, 115
17, 2407, Note_on_c, 12, 73, 0
17, 2424, Note_on_c, 12, 77, 0
17, 2426, Note_on_c, 12, 80, 0
17, 2429, Note_on_c, 12, 85, 0
17, 2430, Note_on_c, 12, 89, 0
17, 2509, Note_on_c, 12, 37, 113
17, 2511, Note_on_c, 12, 53, 114
17, 2513, Control_c, 12, 64, 0
17, 2514, Note_on_c, 12, 44, 115
17, 2517, Note_on_c, 12, 49, 119
17, 2518, Note_on_c, 12, 56, 117
17, 2522, Note_on_c, 12, 61, 123
17, 2524, Control_c, 12, 64, 127
17, 2525, Note_on_c, 12, 37, 0
17, 2530, Note_on_c, 12, 53, 0
17, 2531, Note_on_c, 12, 49, 0
17, 2533, Note_on_c, 12, 44, 0
17, 2537, Note_on_c, 12, 56, 0
17, 2544, Note_on_c, 12, 61, 0
17, 2614, Note_on_c, 12, 53, 85
17, 2615, Note_on_c, 12, 56, 85
17, 2620, Note_on_c, 12, 61, 87
17, 2623, Note_on_c, 12, 73, 89
17, 2624, Note_on_c, 12, 65, 89
17, 2625, Note_on_c, 12, 53, 0
17, 2627, Note_on_c, 12, 77, 91
17, 2629, Note_on_c, 12, 56, 0
17, 2631, Note_on_c, 12, 61, 0
17, 2635, Note_on_c, 12, 80, 98
17, 2636, Note_on_c, 12, 68, 102
17, 2639, Note_on_c, 12, 65, 0
17, 2640, Note_on_c, 12, 73, 0
17, 2643, Note_on_c, 12, 85, 107
17, 2646, Note_on_c, 12, 77, 0
17, 2649, Note_on_c, 12, 80, 0
17, 2652, Note_on_c, 12, 68, 0
17, 2677, Note_on_c, 12, 85, 0
17, 2731, Note_on_c, 12, 61, 96
17, 2733, Note_on_c, 12, 77, 96
17, 2739, Note_on_c, 12, 65, 99
17, 2741, Note_on_c, 12, 80, 100
17, 2742, Note_on_c, 12, 68, 101
17, 2746, Note_on_c, 12, 73, 104
17, 2746, Note_on_c, 12, 85, 104
17, 2748, Note_on_c, 12, 61, 0
17, 2751, Note_on_c, 12, 77, 0
17, 2754, Note_on_c, 12, 89, 116
17, 2754, Note_on_c, 12, 68, 0
17, 2758, Note_on_c, 12, 80, 0
17, 2758, Note_on_c, 12, 65, 0
17, 2760, Note_on_c, 12, 73, 0
17, 2760, Note_on_c, 12, 85, 0
17, 2791, Note_on_c, 12, 89, 0
17, 2861, Note_on_c, 12, 37, 98
17, 2863, Note_on_c, 12, 53, 94
17, 2864, Control_c, 12, 64, 0
17, 2869, Note_on_c, 12, 44, 85
17, 2871, Note_on_c, 12, 56, 107
17, 2875, Control_c, 12, 64, 127
17, 2877, Note_on_c, 12, 49, 91
17, 2878, Note_on_c, 12, 37, 0
17, 2879, Note_on_c, 12, 61, 116
17, 2881, Note_on_c, 12, 53, 0
17, 2885, Note_on_c, 12, 44, 0
17, 2887, Note_on_c, 12, 56, 0
17, 2891, Note_on_c, 12, 49, 0
17, 2899, Note_on_c, 12, 61, 0
17, 2960, Note_on_c, 12, 53, 79
17, 2964, Note_on_c, 12, 56, 81
17, 2970, Note_on_c, 12, 53, 0
17, 2971, Note_on_c, 12, 61, 83
17, 2974, Note_on_c, 12, 73, 86
17, 2977, Note_on_c, 12, 56, 0
17, 2978, Note_on_c, 12, 65, 87
17, 2982, Note_on_c, 12, 77, 89
17, 2983, Note_on_c, 12, 61, 0
17, 2989, Note_on_c, 12, 73, 0
17, 2990, Note_on_c, 12, 80, 94
17, 2992, Note_on_c, 12, 68, 95
17, 2992, Note_on_c, 12, 65, 0
17, 2997, Note_on_c, 12, 85, 97
17, 2998, Note_on_c, 12, 77, 0
17, 3004, Note_on_c, 12, 68, 0
17, 3004, Note_on_c, 12, 80, 0
17, 3042, Note_on_c, 12, 85, 0
17, 3081, Note_on_c, 12, 61, 88
17, 3087, Note_on_c, 12, 77, 86
17, 3091, Note_on_c, 12, 65, 86
17, 3094, Note_on_c, 12, 68, 89
17, 3094, Note_on_c, 12, 80, 89
17, 3094, Note_on_c, 12, 61, 0
17, 3101, Note_on_c, 12, 73, 92
17, 3103, Note_on_c, 12, 77, 0
17, 3105, Note_on_c, 12, 85, 94
17, 3106, Note_on_c, 12, 68, 0
17, 3107, Note_on_c, 12, 65, 0
17, 3111, Note_on_c, 12, 80, 0
17, 3114, Note_on_c, 12, 89, 106
17, 3114, Note_on_c, 12, 73, 0
17, 3121, Note_on_c, 12, 85, 0
17, 3137, Note_on_c, 12, 89, 0
17, 3221, Note_on_c, 12, 37, 94
17, 3223, Note_on_c, 12, 53, 95
17, 3225, Control_c, 12, 64, 0
17, 3228, Note_on_c, 12, 44, 96
17, 3231, Note_on_c, 12, 56, 97
17, 3235, Control_c, 12, 64, 127
17, 3238, Note_on_c, 12, 49, 110
17, 3239, Note_on_c, 12, 37, 0
17, 3240, Note_on_c, 12, 61, 110
17, 3241, Note_on_c, 12, 53, 0
17, 3248, Note_on_c, 12, 44, 0
17, 3249, Note_on_c, 12, 56, 0
17, 3254, Note_on_c, 12, 49, 0
17, 3262, Note_on_c, 12, 61, 0
17, 3330, Note_on_c, 12, 53, 81
17, 3335, Note_on_c, 12, 56, 83
17, 3337, Note_on_c, 12, 73, 83
17, 3343, Note_on_c, 12, 61, 85
17, 3344, Note_on_c, 12, 53, 0
17, 3347, Note_on_c, 12, 77, 88
17, 3348, Note_on_c, 12, 56, 0
17, 3349, Note_on_c, 12, 65, 89
17, 3353, Note_on_c, 12, 68, 93
17, 3353, Note_on_c, 12, 61, 0
17, 3355, Note_on_c, 12, 80, 94
17, 3360, Note_on_c, 12, 85, 99
17, 3366, Note_on_c, 12, 73, 0
17, 3376, Note_on_c, 12, 77, 0
17, 3378, Note_on_c, 12, 65, 0
17, 3384, Note_on_c, 12, 80, 0
17, 3394, Note_on_c, 12, 68, 0
17, 3400, Note_on_c, 12, 85, 0
17, 3454, Note_on_c, 12, 61, 86
17, 3462, Note_on_c, 12, 77, 90
17, 3466, Note_on_c, 12, 65, 92
17, 3469, Note_on_c, 12, 68, 94
17, 3470, Note_on_c, 12, 80, 95
17, 3473, Note_on_c, 12, 61, 0
17, 3475, Note_on_c, 12, 85, 106
17, 3477, Note_on_c, 12, 73, 109
17, 3486, Note_on_c, 12, 89, 120
17, 3491, Note_on_c, 12, 77, 0
17, 3495, Note_on_c, 12, 85, 0
17, 3495, Note_on_c, 12, 65, 0
17, 3498, Note_on_c, 12, 68, 0
17, 3499, Note_on_c, 12, 80, 0
17, 3506, Note_on_c, 12, 73, 0
17, 3515, Note_on_c, 12, 89, 0
17, 3594, Note_on_c, 12, 37, 106
17, 3595, Note_on_c, 12, 49, 106
17, 3599, Note_on_c, 12, 54, 109
17, 3602, Note_on_c, 12, 58, 109
17, 3603, Control_c, 12, 64, 0
17, 3606, Note_on_c, 12, 63, 113
17, 3616, Control_c, 12, 64, 127
17, 3630, Note_on_c, 12, 54, 0
17, 3631, Note_on_c, 12, 58, 0
17, 3635, Note_on_c, 12, 63, 0
17, 3635, Note_on_c, 12, 37, 0
17, 3642, Note_on_c, 12, 49, 0
17, 3715, Note_on_c, 12, 54, 111
17, 3715, Note_on_c, 12, 58, 111
17, 3715, Note_on_c, 12, 75, 111
17, 3718, Note_on_c, 12, 63, 113
17, 3720, Note_on_c, 12, 66, 114
17, 3723, Note_on_c, 12, 78, 115
17, 3729, Note_on_c, 12, 82, 119
17, 3729, Note_on_c, 12, 87, 119
17, 3740, Note_on_c, 12, 54, 0
17, 3744, Note_on_c, 12, 66, 0
17, 3746, Note_on_c, 12, 58, 0
17, 3746, Note_on_c, 12, 63, 0
17, 3747, Note_on_c, 12, 78, 0
17, 3751, Note_on_c, 12, 75, 0
17, 3760, Note_on_c, 12, 82, 0
17, 3765, Note_on_c, 12, 87, 0
17, 3829, Note_on_c, 12, 63, 97
17, 3835, Note_on_c, 12, 66, 99
17, 3838, Note_on_c, 12, 75, 102
17, 3840, Note_on_c, 12, 78, 103
17, 3840, Note_on_c, 12, 70, 103
17, 3843, Note_on_c, 12, 82, 105
17, 3846, Note_on_c, 12, 87, 109
17, 3849, Note_on_c, 12, 90, 110
17, 3858, Note_on_c, 12, 63, 0
17, 3862, Note_on_c, 12, 70, 0
17, 3863, Note_on_c, 12, 66, 0
17, 3870, Note_on_c, 12, 78, 0
17, 3873, Note_on_c, 12, 82, 0
17, 3875, Note_on_c, 12, 87, 0
17, 3876, Note_on_c, 12, 90, 0
17, 3883, Note_on_c, 12, 75, 0
17, 3948, Note_on_c, 12, 37, 109
17, 3952, Note_on_c, 12, 49, 111
17, 3954, Note_on_c, 12, 54, 117
17, 3958, Note_on_c, 12, 58, 122
17, 3961, Control_c, 12, 64, 0
17, 3961, Control_c, 12, 64, 127
17, 3961, Note_on_c, 12, 63, 122
17, 3983, Note_on_c, 12, 54, 0
17, 3984, Note_on_c, 12, 37, 0
17, 3985, Note_on_c, 12, 63, 0
17, 3987, Note_on_c, 12, 58, 0
17, 3997, Note_on_c, 12, 49, 0
17, 4076, Note_on_c, 12, 63, 110
17, 4077, Note_on_c, 12, 58, 110
17, 4077, Note_on_c, 12, 75, 110
17, 4079, Note_on_c, 12, 78, 112
17, 4080, Note_on_c, 12, 70, 114
17, 4080, Note_on_c, 12, 66, 114
17, 4080, Note_on_c, 12, 82, 114
17, 4086, Note_on_c, 12, 87, 125
17, 4104, Note_on_c, 12, 78, 0
17, 4106, Note_on_c, 12, 58, 0
17, 4108, Note_on_c, 12, 82, 0
17, 4110, Note_on_c, 12, 75, 0
17, 4115, Note_on_c, 12, 87, 0
17, 4118, Note_on_c, 12, 63, 0
17, 4120, Note_on_c, 12, 66, 0
17, 4128, Note_on_c, 12, 70, 0
17, 4193, Note_on_c, 12, 63, 104
17, 4194, Note_on_c, 12, 78, 106
17, 4198, Note_on_c, 12, 66, 114
17, 4203, Note_on_c, 12, 82, 117
17, 4204, Note_on_c, 12, 75, 119
17, 4206, Note_on_c, 12, 70, 120
17, 4207, Note_on_c, 12, 87, 120
17, 4208, Note_on_c, 12, 90, 123
17, 4219, Note_on_c, 12, 78, 0
17, 4221, Note_on_c, 12, 82, 0
17, 4233, Note_on_c, 12, 75, 0
17, 4236, Note_on_c, 12, 87, 0
17, 4237, Note_on_c, 12, 90, 0
17, 4253, Note_on_c, 12, 70, 0
17, 4253, Note_on_c, 12, 66, 0
17, 4257, Note_on_c, 12, 63, 0
17, 4314, Note_on_c, 12, 37, 118
17, 4316, Note_on_c, 12, 49, 117
17, 4319, Note_on_c, 12, 51, 105
17, 4321, Control_c, 12, 64, 0
17, 4321, Control_c, 12, 64, 127
17, 4321, Note_on_c, 12, 56, 111
17, 4325, Note_on_c, 12, 60, 117
17, 4329, Note_on_c, 12, 63, 125
17, 4347, Note_on_c, 12, 51, 0
17, 4348, Note_on_c, 12, 56, 0
17, 4353, Note_on_c, 12, 37, 0
17, 4356, Note_on_c, 12, 60, 0
17, 4360, Note_on_c, 12, 63, 0
17, 4367, Note_on_c, 12, 49, 0
17, 4439, Note_on_c, 12, 68, 49
17, 4440, Note_on_c, 12, 56, 126
17, 4442, Note_on_c, 12, 75, 108
17, 4444, Note_on_c, 12, 80, 117
17, 4446, Note_on_c, 12, 84, 118
17, 4449, Note_on_c, 12, 87, 126
17, 4468, Note_on_c, 12, 68, 0
17, 4469, Note_on_c, 12, 56, 0
17, 4481, Note_on_c, 12, 80, 0
17, 4481, Note_on_c, 12, 75, 0
17, 4485, Note_on_c, 12, 84, 0
17, 4489, Note_on_c, 12, 87, 0
17, 4556, Note_on_c, 12, 80, 116
17, 4557, Note_on_c, 12, 84, 118
17, 4558, Note_on_c, 12, 63, 118
17, 4560, Note_on_c, 12, 87, 122
17, 4563, Note_on_c, 12, 68, 121
17, 4566, Note_on_c, 12, 72, 124
17, 4566, Note_on_c, 12, 92, 125
17, 4567, Note_on_c, 12, 75, 127
17, 4587, Note_on_c, 12, 75, 0
17, 4587, Note_on_c, 12, 92, 0
17, 4591, Note_on_c, 12, 87, 0
17, 4593, Note_on_c, 12, 80, 0
17, 4593, Note_on_c, 12, 84, 0
17, 4595, Note_on_c, 12, 72, 0
17, 4601, Note_on_c, 12, 68, 0
17, 4606, Note_on_c, 12, 63, 0
17, 4678, Note_on_c, 12, 37, 126
17, 4680, Note_on_c, 12, 49, 114
17, 4681, Note_on_c, 12, 56, 111
17, 4681, Note_on_c, 12, 53, 113
17, 4685, Note_on_c, 12, 60, 114
17, 4686, Control_c, 12, 64, 0
17, 4689, Note_on_c, 12, 63, 126
17, 4700, Control_c, 12, 64, 127
17, 4700, Note_on_c, 12, 53, 0
17, 4708, Note_on_c, 12, 56, 0
17, 4716, Note_on_c, 12, 60, 0
17, 4717, Note_on_c, 12, 37, 0
17, 4720, Note_on_c, 12, 63, 0
17, 4731, Note_on_c, 12, 49, 0
17, 4797, Note_on_c, 12, 68, 49
17, 4799, Note_on_c, 12, 56, 125
17, 4801, Note_on_c, 12, 75, 101
17, 4804, Note_on_c, 12, 80, 109
17, 4807, Note_on_c, 12, 84, 126
17, 4809, Note_on_c, 12, 87, 125
17, 4826, Note_on_c, 12, 68, 0
17, 4828, Note_on_c, 12, 56, 0
17, 4840, Note_on_c, 12, 75, 0
17, 4841, Note_on_c, 12, 80, 0
17, 4846, Note_on_c, 12, 84, 0
17, 4849, Note_on_c, 12, 87, 0
17, 4911, Note_on_c, 12, 80, 94
17, 4917, Note_on_c, 12, 84, 109
17, 4918, Note_on_c, 12, 63, 111
17, 4923, Note_on_c, 12, 68, 113
17, 4924, Note_on_c, 12, 87, 114
17, 4926, Note_on_c, 12, 72, 115
17, 4927, Note_on_c, 12, 92, 119
17, 4928, Note_on_c, 12, 75, 126
17, 4948, Note_on_c, 12, 75, 0
17, 4948, Note_on_c, 12, 92, 0
17, 4948, Note_on_c, 12, 80, 0
17, 4953, Note_on_c, 12, 84, 0
17, 4955, Note_on_c, 12, 87, 0
17, 4955, Note_on_c, 12, 72, 0
17, 4961, Note_on_c, 12, 68, 0
17, 4966, Note_on_c, 12, 63, 0
17, 5034, Note_on_c, 12, 53, 109
17, 5040, Note_on_c, 12, 56, 111
17, 5041, Note_on_c, 12, 37, 111
17, 5042, Note_on_c, 12, 49, 113
17, 5043, Control_c, 12, 64, 0
17, 5043, Note_on_c, 12, 61, 113
17, 5049, Note_on_c, 12, 65, 123
17, 5057, Control_c, 12, 64, 127
17, 5063, Note_on_c, 12, 53, 0
17, 5069, Note_on_c, 12, 61, 0
17, 5069, Note_on_c, 12, 56, 0
17, 5070, Note_on_c, 12, 37, 0
17, 5077, Note_on_c, 12, 65, 0
17, 5081, Note_on_c, 12, 49, 0
17, 5157, Note_on_c, 12, 53, 100
17, 5158, Note_on_c, 12, 56, 101
17, 5160, Note_on_c, 12, 61, 102
17, 5163, Note_on_c, 12, 65, 103
17, 5171, Note_on_c, 12, 77, 109
17, 5173, Note_on_c, 12, 80, 109
17, 5174, Note_on_c, 12, 85, 112
17, 5175, Note_on_c, 12, 89, 125
17, 5186, Note_on_c, 12, 61, 0
17, 5186, Note_on_c, 12, 53, 0
17, 5188, Note_on_c, 12, 65, 0
17, 5192, Note_on_c, 12, 56, 0
17, 5196, Note_on_c, 12, 77, 0
17, 5200, Note_on_c, 12, 85, 0
17, 5201, Note_on_c, 12, 89, 0
17, 5201, Note_on_c, 12, 80, 0
17, 5266, Note_on_c, 12, 61, 89
17, 5274, Note_on_c, 12, 77, 98
17, 5278, Note_on_c, 12, 65, 102
17, 5280, Note_on_c, 12, 68, 103
17, 5281, Note_on_c, 12, 80, 103
17, 5284, Note_on_c, 12, 85, 105
17, 5287, Note_on_c, 12, 73, 109
17, 5289, Note_on_c, 12, 89, 112
17, 5290, Note_on_c, 12, 92, 124
17, 5296, Note_on_c, 12, 77, 0
17, 5302, Note_on_c, 12, 80, 0
17, 5304, Note_on_c, 12, 65, 0
17, 5307, Note_on_c, 12, 85, 0
17, 5312, Note_on_c, 12, 68, 0
17, 5316, Note_on_c, 12, 61, 0
17, 5316, Note_on_c, 12, 73, 0
17, 5318, Note_on_c, 12, 89, 0
17, 5319, Note_on_c, 12, 92, 0
17, 5394, Note_on_c, 12, 56, 109
17, 5395, Note_on_c, 12, 44, 110
17, 5405, Control_c, 12, 64, 0
17, 5405, Note_on_c, 12, 51, 127
17, 5406, Note_on_c, 12, 60, 118
17, 5406, Note_on_c, 12, 63, 118
17, 5417, Control_c, 12, 64, 127
17, 5417, Note_on_c, 12, 56, 0
17, 5425, Note_on_c, 12, 44, 0
17, 5427, Note_on_c, 12, 60, 0
17, 5427, Note_on_c, 12, 51, 0
17, 5433, Note_on_c, 12, 63, 0
17, 5507, Note_on_c, 12, 60, 108
17, 5511, Note_on_c, 12, 63, 109
17, 5514, Note_on_c, 12, 75, 111
17, 5516, Note_on_c, 12, 68, 112
17, 5516, Note_on_c, 12, 80, 112
17, 5519, Note_on_c, 12, 72, 112
17, 5519, Note_on_c, 12, 84, 112
17, 5521, Note_on_c, 12, 87, 113
17, 5536, Note_on_c, 12, 60, 0
17, 5543, Note_on_c, 12, 80, 0
17, 5546, Note_on_c, 12, 87, 0
17, 5546, Note_on_c, 12, 84, 0
17, 5547, Note_on_c, 12, 68, 0
17, 5548, Note_on_c, 12, 72, 0
17, 5556, Note_on_c, 12, 75, 0
17, 5557, Note_on_c, 12, 63, 0
17, 5617, Note_on_c, 12, 56, 101
17, 5624, Note_on_c, 12, 60, 101
17, 5626, Note_on_c, 12, 63, 103
17, 5630, Note_on_c, 12, 68, 105
17, 5630, Note_on_c, 12, 72, 105
17, 5633, Note_on_c, 12, 75, 110
17, 5637, Note_on_c, 12, 80, 113
17, 5640, Note_on_c, 12, 84, 117
17, 5645, Note_on_c, 12, 56, 0
17, 5654, Note_on_c, 12, 60, 0
17, 5659, Note_on_c, 12, 68, 0
17, 5659, Note_on_c, 12, 80, 0
17, 5662, Note_on_c, 12, 63, 0
17, 5665, Note_on_c, 12, 75, 0
17, 5667, Note_on_c, 12, 72, 0
17, 5669, Note_on_c, 12, 84, 0
17, 5752, Note_on_c, 12, 53, 109
17, 5759, Note_on_c, 12, 37, 112
17, 5759, Note_on_c, 12, 49, 112
17, 5761, Note_on_c, 12, 56, 114
17, 5764, Control_c, 12, 64, 0
17, 5771, Note_on_c, 12, 61, 126
17, 5778, Note_on_c, 12, 53, 0
17, 5779, Control_c, 12, 64, 127
17, 5790, Note_on_c, 12, 56, 0
17, 5790, Note_on_c, 12, 37, 0
17, 5799, Note_on_c, 12, 61, 0
17, 5802, Note_on_c, 12, 49, 0
17, 5849, Note_on_c, 12, 53, 93
17, 5857, Note_on_c, 12, 56, 95
17, 5864, Note_on_c, 12, 61, 98
17, 5866, Note_on_c, 12, 73, 99
17, 5868, Note_on_c, 12, 65, 99
17, 5874, Note_on_c, 12, 77, 102
17, 5878, Note_on_c, 12, 53, 0
17, 5881, Note_on_c, 12, 80, 110
17, 5882, Note_on_c, 12, 85, 125
17, 5884, Note_on_c, 12, 68, 125
17, 5886, Note_on_c, 12, 56, 0
17, 5893, Note_on_c, 12, 61, 0
17, 5897, Note_on_c, 12, 65, 0
17, 5901, Note_on_c, 12, 77, 0
17, 5908, Note_on_c, 12, 73, 0
17, 5912, Note_on_c, 12, 80, 0
17, 5919, Note_on_c, 12, 68, 0
17, 5919, Note_on_c, 12, 85, 0
17, 5972, Note_on_c, 12, 61, 94
17, 5977, Note_on_c, 12, 77, 95
17, 5979, Note_on_c, 12, 65, 96
17, 5982, Note_on_c, 12, 73, 107
17, 5983, Note_on_c, 12, 80, 100
17, 5984, Note_on_c, 12, 68, 101
17, 5989, Note_on_c, 12, 85, 105
17, 5996, Note_on_c, 12, 77, 0
17, 5997, Note_on_c, 12, 89, 127
17, 6000, Note_on_c, 12, 80, 0
17, 6001, Note_on_c, 12, 61, 0
17, 6002, Note_on_c, 12, 73, 0
17, 6005, Note_on_c, 12, 85, 0
17, 6007, Note_on_c, 12, 68, 0
17, 6008, Note_on_c, 12, 65, 0
17, 6022, Note_on_c, 12, 89, 0
17, 6106, Note_on_c, 12, 53, 109
17, 6113, Note_on_c, 12, 49, 113
17, 6114, Note_on_c, 12, 37, 113
17, 6117, Control_c, 12, 64, 0
17, 6117, Note_on_c, 12, 56, 117
17, 6121, Note_on_c, 12, 61, 124
17, 6130, Control_c, 12, 64, 127
17, 6135, Note_on_c, 12, 53, 0
17, 6146, Note_on_c, 12, 56, 0
17, 6147, Note_on_c, 12, 37, 0
17, 6156, Note_on_c, 12, 61, 0
17, 6160, Note_on_c, 12, 49, 0
17, 6227, Note_on_c, 12, 53, 95
17, 6227, Note_on_c, 12, 73, 95
17, 6228, Note_on_c, 12, 56, 96
17, 6232, Note_on_c, 12, 61, 103
17, 6235, Note_on_c, 12, 77, 106
17, 6241, Note_on_c, 12, 65, 112
17, 6242, Note_on_c, 12, 80, 113
17, 6247, Note_on_c, 12, 85, 117
17, 6256, Note_on_c, 12, 77, 0
17, 6256, Note_on_c, 12, 53, 0
17, 6257, Note_on_c, 12, 56, 0
17, 6259, Note_on_c, 12, 73, 0
17, 6259, Note_on_c, 12, 80, 0
17, 6261, Note_on_c, 12, 61, 0
17, 6270, Note_on_c, 12, 65, 0
17, 6275, Note_on_c, 12, 85, 0
17, 6339, Note_on_c, 12, 61, 99
17, 6340, Note_on_c, 12, 65, 101
17, 6341, Note_on_c, 12, 77, 101
17, 6349, Note_on_c, 12, 80, 105
17, 6350, Note_on_c, 12, 68, 105
17, 6353, Note_on_c, 12, 73, 114
17, 6355, Note_on_c, 12, 85, 109
17, 6361, Note_on_c, 12, 77, 0
17, 6363, Note_on_c, 12, 89, 127
17, 6367, Note_on_c, 12, 80, 0
17, 6368, Note_on_c, 12, 61, 0
17, 6371, Note_on_c, 12, 85, 0
17, 6371, Note_on_c, 12, 73, 0
17, 6377, Note_on_c, 12, 65, 0
17, 6389, Note_on_c, 12, 68, 0
17, 6392, Note_on_c, 12, 89, 0
17, 6468, Note_on_c, 12, 58, 111
17, 6472, Note_on_c, 12, 42, 114
17, 6476, Note_on_c, 12, 54, 116
17, 6479, Note_on_c, 12, 61, 116
17, 6481, Control_c, 12, 64, 0
17, 6484, Note_on_c, 12, 63, 127
17, 6489, Note_on_c, 12, 58, 0
17, 6494, Control_c, 12, 64, 127
17, 6499, Note_on_c, 12, 42, 0
17, 6505, Note_on_c, 12, 61, 0
17, 6512, Note_on_c, 12, 63, 0
17, 6513, Note_on_c, 12, 54, 0
17, 6597, Note_on_c, 12, 78, 106
17, 6600, Note_on_c, 12, 61, 105
17, 6600, Note_on_c, 12, 58, 105
17, 6606, Note_on_c, 12, 80, 108
17, 6608, Note_on_c, 12, 87, 127
17, 6610, Note_on_c, 12, 66, 110
17, 6618, Note_on_c, 12, 70, 125
17, 6620, Note_on_c, 12, 78, 0
17, 6628, Note_on_c, 12, 58, 0
17, 6635, Note_on_c, 12, 80, 0
17, 6640, Note_on_c, 12, 87, 0
17, 6647, Note_on_c, 12, 61, 0
17, 6649, Note_on_c, 12, 66, 0
17, 6653, Note_on_c, 12, 70, 0
17, 6705, Note_on_c, 12, 63, 104
17, 6705, Note_on_c, 12, 66, 104
17, 6709, Note_on_c, 12, 80, 105
17, 6713, Note_on_c, 12, 70, 106
17, 6714, Note_on_c, 12, 82, 107
17, 6719, Note_on_c, 12, 85, 109
17, 6727, Note_on_c, 12, 75, 124
17, 6728, Note_on_c, 12, 87, 124
17, 6730, Note_on_c, 12, 90, 125
17, 6744, Note_on_c, 12, 82, 0
17, 6747, Note_on_c, 12, 80, 0
17, 6752, Note_on_c, 12, 75, 0
17, 6752, Note_on_c, 12, 85, 0
17, 6757, Note_on_c, 12, 90, 0
17, 6759, Note_on_c, 12, 70, 0
17, 6759, Note_on_c, 12, 87, 0
17, 6760, Note_on_c, 12, 63, 0
17, 6763, Note_on_c, 12, 66, 0
17, 6834, Note_on_c, 12, 58, 108
17, 6839, Note_on_c, 12, 60, 110
17, 6842, Note_on_c, 12, 39, 114
17, 6842, Note_on_c, 12, 51, 114
17, 6844, Note_on_c, 12, 66, 126
17, 6846, Control_c, 12, 64, 0
17, 6861, Control_c, 12, 64, 127
17, 6870, Note_on_c, 12, 60, 0
17, 6870, Note_on_c, 12, 58, 0
17, 6875, Note_on_c, 12, 39, 0
17, 6877, Note_on_c, 12, 66, 0
17, 6885, Note_on_c, 12, 51, 0
17, 6953, Note_on_c, 12, 66, 117
17, 6958, Note_on_c, 12, 70, 124
17, 6961, Note_on_c, 12, 78, 117
17, 6965, Note_on_c, 12, 82, 118
17, 6971, Note_on_c, 12, 84, 124
17, 6994, Note_on_c, 12, 82, 0
17, 6998, Note_on_c, 12, 78, 0
17, 7001, Note_on_c, 12, 66, 0
17, 7012, Note_on_c, 12, 70, 0
17, 7030, Note_on_c, 12, 84, 0
17, 7066, Note_on_c, 12, 63, 109
17, 7070, Note_on_c, 12, 70, 112
17, 7075, Note_on_c, 12, 78, 116
17, 7078, Note_on_c, 12, 82, 118
17, 7079, Note_on_c, 12, 75, 124
17, 7084, Note_on_c, 12, 84, 124
17, 7084, Note_on_c, 12, 90, 124
17, 7104, Note_on_c, 12, 78, 0
17, 7116, Note_on_c, 12, 75, 0
17, 7122, Note_on_c, 12, 82, 0
17, 7134, Note_on_c, 12, 84, 0
17, 7140, Note_on_c, 12, 70, 0
17, 7143, Note_on_c, 12, 90, 0
17, 7143, Note_on_c, 12, 63, 0
17, 7178, Note_on_c, 12, 53, 64
17, 7182, Note_on_c, 12, 60, 69
17, 7189, Note_on_c, 12, 77, 73
17, 7194, Note_on_c, 12, 53, 0
17, 7196, Note_on_c, 12, 81, 75
17, 7197, Note_on_c, 12, 60, 0
17, 7201, Note_on_c, 12, 84, 78
17, 7204, Note_on_c, 12, 69, 81
17, 7205, Note_on_c, 12, 89, 84
17, 7212, Control_c, 12, 64, 0
17, 7218, Note_on_c, 12, 77, 0
17, 7219, Control_c, 12, 64, 127
17, 7225, Note_on_c, 12, 81, 0
17, 7230, Note_on_c, 12, 84, 0
17, 7233, Note_on_c, 12, 69, 0
17, 7264, Note_on_c, 12, 89, 0
17, 7286, Note_on_c, 12, 58, 63
17, 7291, Note_on_c, 12, 65, 64
17, 7297, Note_on_c, 12, 68, 68
17, 7298, Note_on_c, 12, 76, 69
17, 7299, Note_on_c, 12, 58, 0
17, 7305, Note_on_c, 12, 65, 0
17, 7306, Note_on_c, 12, 80, 73
17, 7307, Note_on_c, 12, 82, 73
17, 7307, Note_on_c, 12, 74, 73
17, 7308, Note_on_c, 12, 68, 0
17, 7310, Note_on_c, 12, 86, 75
17, 7316, Note_on_c, 12, 89, 77
17, 7318, Note_on_c, 12, 76, 0
17, 7327, Note_on_c, 12, 80, 0
17, 7333, Note_on_c, 12, 74, 0
17, 7334, Note_on_c, 12, 82, 0
17, 7340, Note_on_c, 12, 86, 0
17, 7349, Note_on_c, 12, 89, 0
17, 7407, Note_on_c, 12, 51, 68
17, 7414, Note_on_c, 12, 58, 66
17, 7417, Control_c, 12, 64, 0
17, 7421, Note_on_c, 12, 75, 71
17, 7424, Note_on_c, 12, 63, 74
17, 7427, Note_on_c, 12, 79, 76
17, 7430, Control_c, 12, 64, 127
17, 7433, Note_on_c, 12, 82, 82
17, 7434, Note_on_c, 12, 67, 82
17, 7436, Note_on_c, 12, 87, 84
17, 7450, Note_on_c, 12, 75, 0
17, 7453, Note_on_c, 12, 63, 0
17, 7456, Note_on_c, 12, 79, 0
17, 7462, Note_on_c, 12, 82, 0
17, 7463, Note_on_c, 12, 67, 0
17, 7466, Note_on_c, 12, 51, 0
17, 7473, Note_on_c, 12, 58, 0
17, 7490, Note_on_c, 12, 87, 0
17, 7535, Note_on_c, 12, 56, 57
17, 7538, Note_on_c, 12, 60, 58
17, 7547, Note_on_c, 12, 63, 65
17, 7548, Note_on_c, 12, 78, 66
17, 7551, Note_on_c, 12, 68, 68
17, 7554, Note_on_c, 12, 80, 68
17, 7558, Note_on_c, 12, 84, 83
17, 7563, Note_on_c, 12, 87, 84
17, 7564, Control_c, 12, 64, 0
17, 7567, Note_on_c, 12, 60, 0
17, 7576, Control_c, 12, 64, 127
17, 7576, Note_on_c, 12, 63, 0
17, 7577, Note_on_c, 12, 78, 0
17, 7580, Note_on_c, 12, 68, 0
17, 7587, Note_on_c, 12, 84, 0
17, 7594, Note_on_c, 12, 56, 0
17, 7605, Note_on_c, 12, 80, 0
17, 7614, Note_on_c, 12, 87, 0
17, 7656, Note_on_c, 12, 49, 50
17, 7660, Note_on_c, 12, 56, 53
17, 7665, Note_on_c, 12, 73, 53
17, 7670, Note_on_c, 12, 77, 63
17, 7672, Note_on_c, 12, 61, 63
17, 7678, Note_on_c, 12, 65, 72
17, 7678, Note_on_c, 12, 80, 72
17, 7679, Note_on_c, 12, 85, 72
17, 7682, Control_c, 12, 64, 0
17, 7689, Note_on_c, 12, 56, 0
17, 7694, Note_on_c, 12, 73, 0
17, 7696, Control_c, 12, 64, 127
17, 7699, Note_on_c, 12, 77, 0
17, 7701, Note_on_c, 12, 61, 0
17, 7707, Note_on_c, 12, 80, 0
17, 7707, Note_on_c, 12, 65, 0
17, 7715, Note_on_c, 12, 49, 0
17, 7726, Note_on_c, 12, 85, 0
17, 7768, Note_on_c, 12, 43, 62
17, 7778, Note_on_c, 12, 49, 67
17, 7787, Note_on_c, 12, 53, 72
17, 7790, Note_on_c, 12, 70, 73
17, 7795, Note_on_c, 12, 73, 75
17, 7796, Note_on_c, 12, 58, 77
17, 7800, Note_on_c, 12, 77, 80
17, 7804, Note_on_c, 12, 82, 80
17, 7807, Note_on_c, 12, 49, 0
17, 7810, Control_c, 12, 64, 0
17, 7816, Note_on_c, 12, 53, 0
17, 7819, Note_on_c, 12, 70, 0
17, 7823, Control_c, 12, 64, 127
17, 7824, Note_on_c, 12, 73, 0
17, 7825, Note_on_c, 12, 58, 0
17, 7827, Note_on_c, 12, 43, 0
17, 7829, Note_on_c, 12, 77, 0
17, 7854, Note_on_c, 12, 82, 0
17, 7910, Note_on_c, 12, 53, 79
17, 7911, Note_on_c, 12, 44, 79
17, 7913, Note_on_c, 12, 49, 79
17, 7914, Note_on_c, 12, 68, 79
17, 7917, Note_on_c, 12, 61, 79
17, 7919, Note_on_c, 12, 77, 80
17, 7919, Note_on_c, 12, 73, 80
17, 7919, Note_on_c, 12, 56, 80
17, 7923, Note_on_c, 12, 80, 94
17, 7939, Note_on_c, 12, 53, 0
17, 7942, Note_on_c, 12, 49, 0
17, 7943, Note_on_c, 12, 68, 0
17, 7946, Note_on_c, 12, 61, 0
17, 7948, Note_on_c, 12, 73, 0
17, 7948, Note_on_c, 12, 56, 0
17, 7948, Note_on_c, 12, 77, 0
17, 7970, Note_on_c, 12, 80, 0
17, 7970, Note_on_c, 12, 44, 0
17, 8030, Note_on_c, 12, 49, 94
17, 8030, Note_on_c, 12, 53, 94
17, 8032, Note_on_c, 12, 65, 85
17, 8032, Note_on_c, 12, 61, 85
17, 8034, Note_on_c, 12, 56, 86
17, 8037, Note_on_c, 12, 68, 87
17, 8038, Note_on_c, 12, 73, 88
17, 8044, Note_on_c, 12, 77, 103
17, 8055, Control_c, 12, 64, 0
17, 8061, Note_on_c, 12, 65, 0
17, 8063, Note_on_c, 12, 56, 0
17, 8065, Note_on_c, 12, 61, 0
17, 8066, Note_on_c, 12, 68, 0
17, 8072, Control_c, 12, 64, 127
17, 8086, Note_on_c, 12, 77, 0
17, 8089, Note_on_c, 12, 53, 0
17, 8091, Note_on_c, 12, 49, 0
17, 8097, Note_on_c, 12, 73, 0
17, 8148, Note_on_c, 12, 53, 98
17, 8152, Note_on_c, 12, 61, 101
17, 8154, Note_on_c, 12, 56, 102
17, 8155, Note_on_c, 12, 65, 105
17, 8158, Note_on_c, 12, 68, 114
17, 8162, Note_on_c, 12, 73, 114
17, 8178, Control_c, 12, 64, 0
17, 8183, Note_on_c, 12, 56, 0
17, 8192, Control_c, 12, 64, 127
17, 8193, Note_on_c, 12, 65, 0
17, 8193, Note_on_c, 12, 61, 0
17, 8205, Note_on_c, 12, 68, 0
17, 8210, Note_on_c, 12, 73, 0
17, 8215, Note_on_c, 12, 53, 0
17, 8269, Note_on_c, 12, 51, 91
17, 8272, Note_on_c, 12, 63, 93
17, 8276, Note_on_c, 12, 67, 95
17, 8278, Note_on_c, 12, 55, 97
17, 8279, Control_c, 12, 64, 0
17, 8282, Note_on_c, 12, 70, 100
17, 8287, Note_on_c, 12, 58, 111
17, 8297, Control_c, 12, 64, 127
17, 8301, Note_on_c, 12, 63, 0
17, 8312, Note_on_c, 12, 67, 0
17, 8318, Note_on_c, 12, 58, 0
17, 8321, Note_on_c, 12, 55, 0
17, 8327, Note_on_c, 12, 51, 0
17, 8331, Note_on_c, 12, 70, 0
17, 8382, Note_on_c, 12, 39, 97
17, 8386, Note_on_c, 12, 55, 100
17, 8386, Note_on_c, 12, 46, 100
17, 8393, Note_on_c, 12, 58, 105
17, 8397, Note_on_c, 12, 51, 114
17, 8398, Note_on_c, 12, 63, 115
17, 8402, Note_on_c, 12, 67, 115
17, 8404, Control_c, 12, 64, 0
17, 8415, Note_on_c, 12, 46, 0
17, 8418, Control_c, 12, 64, 127
17, 8422, Note_on_c, 12, 58, 0
17, 8445, Note_on_c, 12, 55, 0
17, 8456, Note_on_c, 12, 51, 0
17, 8457, Note_on_c, 12, 63, 0
17, 8460, Note_on_c, 12, 39, 0
17, 8491, Note_on_c, 12, 67, 0
17, 8505, Note_on_c, 12, 54, 97
17, 8508, Note_on_c, 12, 44, 100
17, 8515, Note_on_c, 12, 60, 111
17, 8518, Note_on_c, 12, 51, 114
17, 8518, Note_on_c, 12, 63, 115
17, 8521, Note_on_c, 12, 66, 115
17, 8525, Control_c, 12, 64, 0
17, 8534, Note_on_c, 12, 54, 0
17, 8541, Control_c, 12, 64, 127
17, 8547, Note_on_c, 12, 63, 0
17, 8567, Note_on_c, 12, 51, 0
17, 8567, Note_on_c, 12, 44, 0
17, 8574, Note_on_c, 12, 60, 0
17, 8593, Note_on_c, 12, 66, 0
17, 8627, Note_on_c, 12, 37, 87
17, 8630, Note_on_c, 12, 53, 89
17, 8635, Note_on_c, 12, 44, 92
17, 8637, Note_on_c, 12, 56, 108
17, 8637, Note_on_c, 12, 61, 108
17, 8641, Note_on_c, 12, 49, 108
17, 8646, Note_on_c, 12, 65, 119
17, 8647, Control_c, 12, 64, 0
17, 8647, Control_c, 12, 64, 127
17, 8647, Control_c, 12, 64, 0
17, 8647, Control_c, 12, 121, 0
17, 8689, Note_on_c, 12, 53, 0
17, 8724, Note_on_c, 12, 44, 0
17, 8726, Note_on_c, 12, 61, 0
17, 8726, Note_on_c, 12, 56, 0
17, 8730, Note_on_c, 12, 49, 0
17, 8783, Note_on_c, 12, 65, 0
17, 8786, Note_on_c, 12, 37, 0
17, 8786, End_track
18, 0, Start_track
18, 0, MIDI_port, 0
18, 0, Title_t, "Piano"
18, 0, Program_c, 12, 0
18, 0, Control_c, 12, 7, 90
18, 0, Control_c, 12, 10, 64
18, 9167, Control_c, 12, 121, 0
18, 9167, Control_c, 12, 91, 30
18, 9167, Control_c, 12, 93, 5
18, 9167, Control_c, 12, 7, 90
18, 9167, Control_c, 12, 64, 0
18, 9167, Control_c, 12, 64, 127
18, 9189, Note_on_c, 12, 80, 119
18, 9189, Note_on_c, 12, 68, 119
18, 9189, Note_on_c, 12, 61, 119
18, 9189, Note_on_c, 12, 53, 119
18, 9197, Note_on_c, 12, 80, 0
18, 9198, Note_on_c, 12, 68, 0
18, 9198, Note_on_c, 12, 61, 0
18, 9200, Note_on_c, 12, 53, 0
18, 9208, Note_on_c, 12, 61, 122
18, 9208, Note_on_c, 12, 80, 122
18, 9208, Note_on_c, 12, 73, 122
18, 9208, Note_on_c, 12, 68, 122
18, 9208, Note_on_c, 12, 56, 122
18, 9208, Note_on_c, 12, 53, 122
18, 9217, Note_on_c, 12, 56, 0
18, 9219, Note_on_c, 12, 68, 0
18, 9229, Note_on_c, 12, 61, 0
18, 9237, Note_on_c, 12, 80, 0
18, 9237, Note_on_c, 12, 53, 0
18, 9237, Note_on_c, 12, 73, 0
18, 9245, Note_on_c, 12, 77, 107
18, 9245, Note_on_c, 12, 68, 107
18, 9245, Note_on_c, 12, 61, 107
18, 9245, Note_on_c, 12, 53, 107
18, 9253, Note_on_c, 12, 61, 0
18, 9254, Note_on_c, 12, 77, 0
18, 9255, Note_on_c, 12, 68, 0
18, 9258, Note_on_c, 12, 53, 0
18, 9264, Note_on_c, 12, 73, 112
18, 9264, Note_on_c, 12, 68, 112
18, 9264, Note_on_c, 12, 77, 112
18, 9264, Note_on_c, 12, 53, 112
18, 9264, Note_on_c, 12, 61, 112
18, 9264, Note_on_c, 12, 56, 112
18, 9277, Note_on_c, 12, 56, 0
18, 9279, Note_on_c, 12, 68, 0
18, 9288, Note_on_c, 12, 61, 0
18, 9290, Note_on_c, 12, 53, 0
18, 9293, Note_on_c, 12, 77, 0
18, 9293, Note_on_c, 12, 73, 0
18, 9303, Note_on_c, 12, 51, 121
18, 9303, Note_on_c, 12, 68, 121
18, 9303, Note_on_c, 12, 75, 121
18, 9304, Control_c, 12, 64, 0
18, 9304, Control_c, 12, 64, 127
18, 9309, Note_on_c, 12, 75, 0
18, 9313, Note_on_c, 12, 68, 0
18, 9315, Note_on_c, 12, 51, 0
18, 9323, Note_on_c, 12, 75, 123
18, 9323, Note_on_c, 12, 61, 123
18, 9323, Note_on_c, 12, 56, 123
18, 9323, Note_on_c, 12, 51, 123
18, 9323, Note_on_c, 12, 68, 123
18, 9344, Note_on_c, 12, 68, 0
18, 9348, Note_on_c, 12, 51, 0
18, 9349, Note_on_c, 12, 56, 0
18, 9352, Note_on_c, 12, 61, 0
18, 9352, Note_on_c, 12, 75, 0
18, 9360, Note_on_c, 12, 49, 124
18, 9360, Note_on_c, 12, 56, 124
18, 9361, Note_on_c, 12, 65, 124
18, 9361, Note_on_c, 12, 73, 124
18, 9369, Note_on_c, 12, 65, 0
18, 9369, Note_on_c, 12, 49, 0
18, 9370, Note_on_c, 12, 73, 0
18, 9371, Note_on_c, 12, 56, 0
18, 9379, Control_c, 12, 64, 0
18, 9380, Note_on_c, 12, 73, 127
18, 9380, Note_on_c, 12, 61, 127
18, 9380, Note_on_c, 12, 68, 127
18, 9380, Note_on_c, 12, 65, 127
18, 9381, Note_on_c, 12, 49, 127
18, 9381, Note_on_c, 12, 56, 127
18, 9422, Control_c, 12, 64, 127
18, 9434, Note_on_c, 12, 49, 0
18, 9434, Note_on_c, 12, 65, 0
18, 9435, Note_on_c, 12, 68, 0
18, 9441, Note_on_c, 12, 73, 0
18, 9441, Note_on_c, 12, 56, 0
18, 9447, Note_on_c, 12, 61, 0
18, 9490, Note_on_c, 12, 80, 127
18, 9490, Note_on_c, 12, 85, 127
18, 9490, Note_on_c, 12, 61, 127
18, 9490, Note_on_c, 12, 65, 127
18, 9491, Note_on_c, 12, 89, 127
18, 9492, Note_on_c, 12, 53, 127
18, 9492, Note_on_c, 12, 56, 127
18, 9492, Note_on_c, 12, 77, 127
18, 9498, Control_c, 12, 64, 0
18, 9559, Control_c, 12, 64, 127
18, 9577, Note_on_c, 12, 53, 0
18, 9581, Note_on_c, 12, 77, 0
18, 9594, Note_on_c, 12, 65, 0
18, 9596, Note_on_c, 12, 85, 0
18, 9610, Note_on_c, 12, 89, 0
18, 9611, Note_on_c, 12, 56, 0
18, 9613, Note_on_c, 12, 80, 0
18, 9620, Note_on_c, 12, 61, 0
18, 9662, Control_c, 12, 64, 0
18, 9674, Note_on_c, 12, 87, 120
18, 9675, Note_on_c, 12, 75, 120
18, 9675, Note_on_c, 12, 51, 120
18, 9675, Note_on_c, 12, 63, 120
18, 9676, Control_c, 12, 64, 127
18, 9691, Note_on_c, 12, 75, 0
18, 9695, Note_on_c, 12, 87, 0
18, 9696, Note_on_c, 12, 51, 0
18, 9697, Note_on_c, 12, 63, 0
18, 9734, Note_on_c, 12, 90, 127
18, 9734, Note_on_c, 12, 80, 127
18, 9734, Note_on_c, 12, 78, 127
18, 9735, Note_on_c, 12, 85, 127
18, 9735, Note_on_c, 12, 66, 127
18, 9735, Note_on_c, 12, 56, 127
18, 9735, Note_on_c, 12, 61, 127
18, 9736, Control_c, 12, 64, 0
18, 9736, Note_on_c, 12, 54, 127
18, 9798, Control_c, 12, 64, 127
18, 9820, Note_on_c, 12, 78, 0
18, 9838, Note_on_c, 12, 85, 0
18, 9839, Note_on_c, 12, 80, 0
18, 9844, Note_on_c, 12, 54, 0
18, 9853, Note_on_c, 12, 90, 0
18, 9869, Note_on_c, 12, 66, 0
18, 9882, Note_on_c, 12, 61, 0
18, 9882, Note_on_c, 12, 56, 0
18, 9885, Control_c, 12, 64, 0
18, 9898, Control_c, 12, 64, 127
18, 9901, Note_on_c, 12, 77, 127
18, 9901, Note_on_c, 12, 65, 100
18, 9901, Note_on_c, 12, 53, 88
18, 9901, Note_on_c, 12, 89, 127
18, 9916, Note_on_c, 12, 53, 0
18, 9930, Note_on_c, 12, 77, 0
18, 9930, Note_on_c, 12, 65, 0
18, 9930, Note_on_c, 12, 89, 0
18, 9934, Control_c, 12, 64, 0
18, 9941, Note_on_c, 12, 72, 121
18, 9941, Note_on_c, 12, 84, 121
18, 9941, Note_on_c, 12, 60, 121
18, 9941, Note_on_c, 12, 48, 121
18, 9953, Control_c, 12, 64, 127
18, 9957, Note_on_c, 12, 48, 0
18, 9970, Note_on_c, 12, 72, 0
18, 9970, Note_on_c, 12, 84, 0
18, 9970, Note_on_c, 12, 60, 0
18, 9974, Note_on_c, 12, 73, 108
18, 9974, Note_on_c, 12, 85, 108
18, 9976, Note_on_c, 12, 49, 108
18, 9976, Note_on_c, 12, 61, 108
18, 9985, Note_on_c, 12, 49, 0
18, 10003, Note_on_c, 12, 73, 0
18, 10003, Note_on_c, 12, 85, 0
18, 10005, Note_on_c, 12, 61, 0
18, 10006, Note_on_c, 12, 51, 110
18, 10006, Note_on_c, 12, 63, 110
18, 10006, Note_on_c, 12, 75, 110
18, 10008, Note_on_c, 12, 87, 110
18, 10019, Note_on_c, 12, 51, 0
18, 10034, Note_on_c, 12, 73, 112
18, 10034, Note_on_c, 12, 85, 112
18, 10035, Note_on_c, 12, 61, 112
18, 10035, Note_on_c, 12, 63, 0
18, 10035, Note_on_c, 12, 75, 0
18, 10036, Note_on_c, 12, 49, 112
18, 10037, Note_on_c, 12, 87, 0
18, 10044, Note_on_c, 12, 49, 0
18, 10060, Note_on_c, 12, 48, 121
18, 10061, Note_on_c, 12, 60, 122
18, 10061, Note_on_c, 12, 84, 122
18, 10061, Note_on_c, 12, 72, 122
18, 10063, Note_on_c, 12, 73, 0
18, 10063, Note_on_c, 12, 85, 0
18, 10064, Note_on_c, 12, 61, 0
18, 10070, Note_on_c, 12, 48, 0
18, 10087, Note_on_c, 12, 61, 115
18, 10087, Note_on_c, 12, 49, 115
18, 10088, Note_on_c, 12, 85, 115
18, 10089, Note_on_c, 12, 73, 115
18, 10090, Note_on_c, 12, 72, 0
18, 10090, Note_on_c, 12, 60, 0
18, 10090, Note_on_c, 12, 84, 0
18, 10096, Note_on_c, 12, 49, 0
18, 10116, Note_on_c, 12, 61, 0
18, 10117, Note_on_c, 12, 85, 0
18, 10118, Note_on_c, 12, 73, 0
18, 10122, Control_c, 12, 64, 0
18, 10123, Note_on_c, 12, 46, 121
18, 10125, Note_on_c, 12, 82, 122
18, 10125, Note_on_c, 12, 70, 122
18, 10125, Note_on_c, 12, 58, 122
18, 10144, Control_c, 12, 64, 127
18, 10154, Note_on_c, 12, 70, 0
18, 10155, Note_on_c, 12, 46, 0
18, 10157, Note_on_c, 12, 82, 0
18, 10163, Note_on_c, 12, 58, 0
18, 10230, Note_on_c, 12, 87, 125
18, 10230, Note_on_c, 12, 63, 126
18, 10230, Note_on_c, 12, 82, 125
18, 10230, Note_on_c, 12, 78, 125
18, 10230, Note_on_c, 12, 75, 125
18, 10231, Note_on_c, 12, 51, 125
18, 10232, Note_on_c, 12, 54, 126
18, 10232, Note_on_c, 12, 58, 126
18, 10235, Control_c, 12, 64, 0
18, 10306, Control_c, 12, 64, 127
18, 10319, Note_on_c, 12, 51, 0
18, 10321, Note_on_c, 12, 78, 0
18, 10323, Note_on_c, 12, 75, 0
18, 10326, Note_on_c, 12, 82, 0
18, 10333, Note_on_c, 12, 87, 0
18, 10350, Note_on_c, 12, 54, 0
18, 10357, Note_on_c, 12, 63, 0
18, 10388, Note_on_c, 12, 58, 0
18, 10394, Note_on_c, 12, 53, 125
18, 10395, Note_on_c, 12, 65, 125
18, 10395, Note_on_c, 12, 89, 125
18, 10395, Note_on_c, 12, 77, 125
18, 10410, Note_on_c, 12, 53, 0
18, 10424, Note_on_c, 12, 65, 0
18, 10424, Note_on_c, 12, 89, 0
18, 10424, Note_on_c, 12, 77, 0
18, 10459, Note_on_c, 12, 70, 119
18, 10459, Note_on_c, 12, 82, 119
18, 10459, Note_on_c, 12, 78, 120
18, 10459, Note_on_c, 12, 58, 120
18, 10459, Note_on_c, 12, 54, 120
18, 10459, Note_on_c, 12, 51, 120
18, 10459, Note_on_c, 12, 46, 120
18, 10459, Note_on_c, 12, 75, 120
18, 10463, Control_c, 12, 64, 0
18, 10518, Control_c, 12, 64, 127
18, 10555, Note_on_c, 12, 75, 0
18, 10555, Note_on_c, 12, 78, 0
18, 10565, Note_on_c, 12, 46, 0
18, 10569, Note_on_c, 12, 70, 0
18, 10581, Note_on_c, 12, 51, 0
18, 10582, Note_on_c, 12, 82, 0
18, 10588, Note_on_c, 12, 54, 0
18, 10590, Note_on_c, 12, 58, 0
18, 10639, Note_on_c, 12, 87, 115
18, 10639, Note_on_c, 12, 75, 115
18, 10639, Note_on_c, 12, 63, 115
18, 10639, Note_on_c, 12, 51, 115
18, 10640, Control_c, 12, 64, 0
18, 10640, Control_c, 12, 64, 127
18, 10647, Note_on_c, 12, 63, 0
18, 10648, Note_on_c, 12, 51, 0
18, 10650, Note_on_c, 12, 75, 0
18, 10655, Note_on_c, 12, 87, 0
18, 10659, Note_on_c, 12, 63, 121
18, 10659, Note_on_c, 12, 87, 121
18, 10659, Note_on_c, 12, 82, 121
18, 10659, Note_on_c, 12, 75, 121
18, 10659, Note_on_c, 12, 58, 121
18, 10659, Note_on_c, 12, 51, 121
18, 10683, Note_on_c, 12, 63, 0
18, 10687, Note_on_c, 12, 58, 0
18, 10688, Note_on_c, 12, 75, 0
18, 10688, Note_on_c, 12, 87, 0
18, 10688, Note_on_c, 12, 51, 0
18, 10688, Note_on_c, 12, 82, 0
18, 10695, Note_on_c, 12, 84, 116
18, 10695, Note_on_c, 12, 72, 116
18, 10695, Note_on_c, 12, 60, 116
18, 10695, Note_on_c, 12, 48, 116
18, 10704, Note_on_c, 12, 72, 0
18, 10704, Note_on_c, 12, 84, 0
18, 10705, Note_on_c, 12, 60, 0
18, 10709, Note_on_c, 12, 48, 0
18, 10710, Note_on_c, 12, 84, 121
18, 10710, Note_on_c, 12, 78, 121
18, 10710, Note_on_c, 12, 72, 121
18, 10710, Note_on_c, 12, 60, 121
18, 10710, Note_on_c, 12, 54, 121
18, 10710, Note_on_c, 12, 48, 121
18, 10734, Note_on_c, 12, 54, 0
18, 10736, Note_on_c, 12, 60, 0
18, 10739, Control_c, 12, 64, 0
18, 10739, Control_c, 12, 64, 127
18, 10739, Note_on_c, 12, 72, 0
18, 10739, Note_on_c, 12, 84, 0
18, 10739, Note_on_c, 12, 48, 0
18, 10739, Note_on_c, 12, 78, 0
18, 10745, Note_on_c, 12, 46, 119
18, 10745, Note_on_c, 12, 58, 119
18, 10745, Note_on_c, 12, 70, 119
18, 10745, Note_on_c, 12, 82, 119
18, 10753, Note_on_c, 12, 58, 0
18, 10753, Note_on_c, 12, 46, 0
18, 10758, Note_on_c, 12, 70, 0
18, 10758, Note_on_c, 12, 82, 0
18, 10760, Note_on_c, 12, 82, 124
18, 10760, Note_on_c, 12, 75, 124
18, 10760, Note_on_c, 12, 70, 124
18, 10760, Note_on_c, 12, 58, 124
18, 10760, Note_on_c, 12, 46, 124
18, 10760, Note_on_c, 12, 51, 124
18, 10789, Note_on_c, 12, 51, 0
18, 10789, Note_on_c, 12, 75, 0
18, 10789, Note_on_c, 12, 70, 0
18, 10789, Note_on_c, 12, 82, 0
18, 10789, Note_on_c, 12, 46, 0
18, 10789, Note_on_c, 12, 58, 0
18, 10799, Note_on_c, 12, 44, 122
18, 10799, Note_on_c, 12, 80, 122
18, 10799, Note_on_c, 12, 68, 122
18, 10799, Note_on_c, 12, 56, 122
18, 10807, Note_on_c, 12, 56, 0
18, 10807, Note_on_c, 12, 44, 0
18, 10809, Note_on_c, 12, 68, 0
18, 10809, Note_on_c, 12, 80, 0
18, 10815, Note_on_c, 12, 44, 127
18, 10815, Note_on_c, 12, 51, 127
18, 10815, Note_on_c, 12, 54, 127
18, 10815, Note_on_c, 12, 56, 127
18, 10815, Note_on_c, 12, 68, 127
18, 10815, Note_on_c, 12, 75, 127
18, 10815, Note_on_c, 12, 80, 127
18, 10857, Note_on_c, 12, 75, 0
18, 10857, Note_on_c, 12, 68, 0
18, 10863, Control_c, 12, 64, 0
18, 10863, Control_c, 12, 64, 127
18, 10867, Note_on_c, 12, 80, 0
18, 10874, Note_on_c, 12, 44, 0
18, 10877, Note_on_c, 12, 54, 0
18, 10878, Note_on_c, 12, 51, 0
18, 10878, Note_on_c, 12, 56, 0
18, 10929, Note_on_c, 12, 84, 127
18, 10929, Note_on_c, 12, 87, 127
18, 10929, Note_on_c, 12, 80, 127
18, 10929, Note_on_c, 12, 75, 127
18, 10929, Note_on_c, 12, 63, 127
18, 10929, Note_on_c, 12, 60, 127
18, 10929, Note_on_c, 12, 56, 127
18, 10929, Note_on_c, 12, 51, 127
18, 10984, Control_c, 12, 64, 127
18, 10992, Note_on_c, 12, 75, 0
18, 10998, Note_on_c, 12, 80, 0
18, 11007, Note_on_c, 12, 84, 0
18, 11007, Note_on_c, 12, 87, 0
18, 11052, Note_on_c, 12, 63, 0
18, 11078, Note_on_c, 12, 51, 0
18, 11078, Note_on_c, 12, 56, 0
18, 11103, Note_on_c, 12, 60, 0
18, 11106, Control_c, 12, 64, 0
18, 11113, Note_on_c, 12, 89, 126
18, 11113, Note_on_c, 12, 77, 126
18, 11113, Note_on_c, 12, 65, 126
18, 11113, Note_on_c, 12, 53, 126
18, 11124, Control_c, 12, 64, 127
18, 11141, Note_on_c, 12, 53, 0
18, 11142, Note_on_c, 12, 89, 0
18, 11142, Note_on_c, 12, 77, 0
18, 11142, Note_on_c, 12, 65, 0
18, 11172, Control_c, 12, 64, 0
18, 11175, Note_on_c, 12, 92, 126
18, 11175, Note_on_c, 12, 56, 116
18, 11175, Note_on_c, 12, 87, 121
18, 11175, Note_on_c, 12, 84, 127
18, 11175, Note_on_c, 12, 80, 112
18, 11175, Note_on_c, 12, 68, 110
18, 11175, Note_on_c, 12, 61, 112
18, 11176, Note_on_c, 12, 65, 106
18, 11234, Control_c, 12, 64, 127
18, 11294, Note_on_c, 12, 68, 0
18, 11295, Note_on_c, 12, 65, 0
18, 11311, Note_on_c, 12, 56, 0
18, 11324, Note_on_c, 12, 87, 0
18, 11324, Note_on_c, 12, 84, 0
18, 11324, Note_on_c, 12, 80, 0
18, 11324, Note_on_c, 12, 61, 0
18, 11324, Note_on_c, 12, 92, 0
18, 11339, Note_on_c, 12, 75, 117
18, 11339, Note_on_c, 12, 87, 117
18, 11339, Note_on_c, 12, 63, 117
18, 11339, Note_on_c, 12, 51, 117
18, 11351, Note_on_c, 12, 75, 0
18, 11368, Note_on_c, 12, 87, 0
18, 11368, Note_on_c, 12, 63, 0
18, 11368, Note_on_c, 12, 51, 0
18, 11370, Note_on_c, 12, 50, 101
18, 11370, Note_on_c, 12, 62, 67
18, 11371, Note_on_c, 12, 74, 108
18, 11371, Note_on_c, 12, 86, 115
18, 11381, Note_on_c, 12, 74, 0
18, 11399, Note_on_c, 12, 50, 0
18, 11399, Note_on_c, 12, 62, 0
18, 11400, Note_on_c, 12, 86, 0
18, 11408, Control_c, 12, 64, 0
18, 11410, Note_on_c, 12, 75, 121
18, 11410, Note_on_c, 12, 63, 121
18, 11410, Note_on_c, 12, 51, 121
18, 11411, Note_on_c, 12, 87, 121
18, 11422, Control_c, 12, 64, 127
18, 11422, Control_c, 12, 64, 0
18, 11425, Control_c, 12, 64, 127
18, 11425, Control_c, 12, 64, 0
18, 11426, Control_c, 12, 64, 127
18, 11430, Note_on_c, 12, 75, 0
18, 11439, Note_on_c, 12, 63, 0
18, 11439, Note_on_c, 12, 51, 0
18, 11440, Note_on_c, 12, 87, 0
18, 11447, Note_on_c, 12, 53, 88
18, 11447, Note_on_c, 12, 89, 112
18, 11447, Note_on_c, 12, 65, 85
18, 11447, Note_on_c, 12, 77, 81
18, 11457, Note_on_c, 12, 77, 0
18, 11476, Note_on_c, 12, 53, 0
18, 11476, Note_on_c, 12, 89, 0
18, 11476, Note_on_c, 12, 65, 0
18, 11480, Note_on_c, 12, 78, 104
18, 11481, Note_on_c, 12, 90, 110
18, 11481, Note_on_c, 12, 54, 99
18, 11482, Note_on_c, 12, 66, 101
18, 11490, Note_on_c, 12, 78, 0
18, 11510, Note_on_c, 12, 90, 0
18, 11510, Note_on_c, 12, 54, 0
18, 11511, Note_on_c, 12, 66, 0
18, 11530, Control_c, 12, 64, 0
18, 11530, Note_on_c, 12, 65, 103
18, 11530, Note_on_c, 12, 68, 107
18, 11530, Note_on_c, 12, 92, 127
18, 11530, Note_on_c, 12, 89, 114
18, 11530, Note_on_c, 12, 61, 112
18, 11530, Note_on_c, 12, 56, 112
18, 11531, Note_on_c, 12, 80, 108
18, 11531, Note_on_c, 12, 85, 111
18, 11612, Control_c, 12, 64, 127
18, 11645, Note_on_c, 12, 85, 0
18, 11645, Note_on_c, 12, 89, 0
18, 11646, Note_on_c, 12, 92, 0
18, 11655, Note_on_c, 12, 56, 0
18, 11657, Note_on_c, 12, 68, 0
18, 11659, Note_on_c, 12, 65, 0
18, 11659, Note_on_c, 12, 61, 0
18, 11660, Note_on_c, 12, 80, 0
18, 11706, Note_on_c, 12, 89, 127
18, 11708, Note_on_c, 12, 53, 110
18, 11709, Note_on_c, 12, 65, 115
18, 11709, Note_on_c, 12, 77, 127
18, 11721, Note_on_c, 12, 65, 0
18, 11722, Note_on_c, 12, 77, 0
18, 11731, Note_on_c, 12, 53, 0
18, 11735, Note_on_c, 12, 89, 0
18, 11763, Control_c, 12, 64, 0
18, 11767, Note_on_c, 12, 58, 127
18, 11767, Note_on_c, 12, 70, 127
18, 11768, Note_on_c, 12, 82, 127
18, 11768, Note_on_c, 12, 94, 127
18, 11769, Control_c, 12, 64, 127
18, 11770, Control_c, 12, 64, 0
18, 11770, Control_c, 12, 64, 127
18, 11781, Note_on_c, 12, 70, 0
18, 11783, Note_on_c, 12, 82, 0
18, 11791, Note_on_c, 12, 58, 0
18, 11797, Note_on_c, 12, 94, 0
18, 11816, Note_on_c, 12, 68, 122
18, 11816, Note_on_c, 12, 80, 122
18, 11817, Note_on_c, 12, 92, 123
18, 11818, Note_on_c, 12, 56, 123
18, 11827, Note_on_c, 12, 68, 0
18, 11829, Note_on_c, 12, 80, 0
18, 11844, Note_on_c, 12, 56, 0
18, 11846, Note_on_c, 12, 92, 0
18, 11876, Control_c, 12, 64, 0
18, 11880, Note_on_c, 12, 56, 127
18, 11880, Note_on_c, 12, 68, 127
18, 11881, Note_on_c, 12, 80, 127
18, 11881, Note_on_c, 12, 92, 127
18, 11925, Control_c, 12, 64, 127
18, 11926, Control_c, 12, 64, 0
18, 11927, Control_c, 12, 64, 127
18, 11927, Control_c, 12, 64, 0
18, 11928, Control_c, 12, 64, 127
18, 12004, Note_on_c, 12, 92, 0
18, 12020, Note_on_c, 12, 80, 0
18, 12023, Note_on_c, 12, 68, 0
18, 12060, Control_c, 12, 64, 0
18, 12061, Note_on_c, 12, 56, 0
18, 12067, Note_on_c, 12, 87, 124
18, 12067, Note_on_c, 12, 75, 124
18, 12070, Note_on_c, 12, 51, 120
18, 12070, Note_on_c, 12, 63, 110
18, 12074, Control_c, 12, 64, 127
18, 12082, Note_on_c, 12, 75, 0
18, 12084, Note_on_c, 12, 63, 0
18, 12096, Note_on_c, 12, 87, 0
18, 12099, Note_on_c, 12, 51, 0
18, 12122, Control_c, 12, 64, 0
18, 12127, Note_on_c, 12, 70, 127
18, 12127, Note_on_c, 12, 82, 127
18, 12128, Note_on_c, 12, 94, 127
18, 12129, Note_on_c, 12, 58, 127
18, 12143, Control_c, 12, 64, 127
18, 12145, Note_on_c, 12, 70, 0
18, 12155, Note_on_c, 12, 58, 0
18, 12157, Note_on_c, 12, 94, 0
18, 12159, Note_on_c, 12, 82, 0
18, 12178, Note_on_c, 12, 68, 123
18, 12180, Note_on_c, 12, 56, 123
18, 12181, Note_on_c, 12, 80, 123
18, 12182, Note_on_c, 12, 92, 123
18, 12192, Note_on_c, 12, 68, 0
18, 12193, Note_on_c, 12, 80, 0
18, 12204, Note_on_c, 12, 56, 0
18, 12211, Note_on_c, 12, 92, 0
18, 12234, Control_c, 12, 64, 0
18, 12237, Note_on_c, 12, 56, 127
18, 12237, Note_on_c, 12, 68, 127
18, 12238, Note_on_c, 12, 80, 127
18, 12239, Note_on_c, 12, 92, 127
18, 12356, Control_c, 12, 64, 127
18, 12356, Control_c, 12, 64, 0
18, 12356, Control_c, 12, 64, 127
18, 12356, Control_c, 12, 64, 0
18, 12360, Control_c, 12, 64, 127
18, 12378, Note_on_c, 12, 92, 0
18, 12385, Note_on_c, 12, 56, 0
18, 12386, Note_on_c, 12, 68, 0
18, 12394, Note_on_c, 12, 80, 0
18, 12432, Control_c, 12, 64, 0
18, 12433, Note_on_c, 12, 65, 121
18, 12433, Note_on_c, 12, 89, 127
18, 12435, Note_on_c, 12, 53, 110
18, 12435, Note_on_c, 12, 77, 127
18, 12439, Control_c, 12, 64, 127
18, 12439, Control_c, 12, 64, 0
18, 12439, Control_c, 12, 64, 127
18, 12439, Control_c, 12, 64, 0
18, 12440, Control_c, 12, 64, 127
18, 12446, Note_on_c, 12, 65, 0
18, 12448, Note_on_c, 12, 77, 0
18, 12448, Note_on_c, 12, 53, 0
18, 12462, Note_on_c, 12, 89, 0
18, 12491, Note_on_c, 12, 95, 127
18, 12492, Note_on_c, 12, 83, 127
18, 12495, Note_on_c, 12, 59, 100
18, 12495, Note_on_c, 12, 71, 127
18, 12509, Note_on_c, 12, 71, 0
18, 12510, Note_on_c, 12, 59, 0
18, 12514, Note_on_c, 12, 83, 0
18, 12520, Note_on_c, 12, 95, 0
18, 12541, Note_on_c, 12, 70, 124
18, 12543, Note_on_c, 12, 82, 124
18, 12543, Note_on_c, 12, 94, 124
18, 12544, Note_on_c, 12, 58, 124
18, 12553, Note_on_c, 12, 58, 0
18, 12554, Note_on_c, 12, 70, 0
18, 12556, Note_on_c, 12, 82, 0
18, 12572, Note_on_c, 12, 94, 0
18, 12597, Control_c, 12, 64, 0
18, 12599, Note_on_c, 12, 70, 127
18, 12599, Note_on_c, 12, 82, 127
18, 12600, Note_on_c, 12, 94, 127
18, 12601, Note_on_c, 12, 58, 127
18, 12728, Control_c, 12, 64, 127
18, 12739, Note_on_c, 12, 94, 0
18, 12743, Note_on_c, 12, 70, 0
18, 12751, Note_on_c, 12, 82, 0
18, 12780, Note_on_c, 12, 90, 124
18, 12780, Note_on_c, 12, 78, 116
18, 12780, Note_on_c, 12, 66, 110
18, 12780, Note_on_c, 12, 54, 120
18, 12781, Note_on_c, 12, 58, 0
18, 12782, Control_c, 12, 64, 0
18, 12795, Control_c, 12, 64, 127
18, 12795, Control_c, 12, 64, 0
18, 12796, Control_c, 12, 64, 127
18, 12809, Note_on_c, 12, 66, 0
18, 12809, Note_on_c, 12, 90, 0
18, 12809, Note_on_c, 12, 78, 0
18, 12809, Note_on_c, 12, 54, 0
18, 12842, Control_c, 12, 64, 0
18, 12846, Note_on_c, 12, 97, 127
18, 12847, Note_on_c, 12, 73, 127
18, 12847, Note_on_c, 12, 85, 127
18, 12849, Note_on_c, 12, 61, 125
18, 12852, Control_c, 12, 64, 127
18, 12853, Control_c, 12, 64, 0
18, 12854, Control_c, 12, 64, 127
18, 12862, Note_on_c, 12, 85, 0
18, 12870, Note_on_c, 12, 61, 0
18, 12873, Note_on_c, 12, 73, 0
18, 12875, Note_on_c, 12, 97, 0
18, 12886, Control_c, 12, 64, 0
18, 12900, Note_on_c, 12, 60, 127
18, 12901, Note_on_c, 12, 72, 127
18, 12901, Note_on_c, 12, 84, 127
18, 12902, Note_on_c, 12, 96, 127
18, 12903, Control_c, 12, 64, 127
18, 12904, Control_c, 12, 64, 0
18, 12907, Control_c, 12, 64, 127
18, 12919, Note_on_c, 12, 72, 0
18, 12919, Note_on_c, 12, 60, 0
18, 12921, Note_on_c, 12, 84, 0
18, 12931, Note_on_c, 12, 96, 0
18, 12965, Note_on_c, 12, 60, 125
18, 12965, Note_on_c, 12, 72, 125
18, 12966, Note_on_c, 12, 84, 125
18, 12966, Note_on_c, 12, 96, 125
18, 12994, Control_c, 12, 64, 127
18, 12994, Control_c, 12, 64, 0
18, 12994, Control_c, 12, 64, 127
18, 13060, Note_on_c, 12, 96, 0
18, 13062, Note_on_c, 12, 72, 0
18, 13074, Note_on_c, 12, 84, 0
18, 13074, Note_on_c, 12, 60, 0
18, 13139, Note_on_c, 12, 68, 123
18, 13140, Note_on_c, 12, 80, 123
18, 13140, Note_on_c, 12, 92, 123
18, 13141, Note_on_c, 12, 56, 123
18, 13153, Note_on_c, 12, 56, 0
18, 13168, Note_on_c, 12, 68, 0
18, 13169, Note_on_c, 12, 92, 0
18, 13169, Note_on_c, 12, 80, 0
18, 13188, Note_on_c, 12, 61, 121
18, 13189, Note_on_c, 12, 97, 121
18, 13189, Note_on_c, 12, 85, 122
18, 13189, Note_on_c, 12, 73, 121
18, 13201, Note_on_c, 12, 61, 0
18, 13218, Note_on_c, 12, 97, 0
18, 13218, Note_on_c, 12, 85, 0
18, 13218, Note_on_c, 12, 73, 0
18, 13230, Control_c, 12, 64, 0
18, 13230, Note_on_c, 12, 72, 125
18, 13230, Note_on_c, 12, 84, 125
18, 13232, Note_on_c, 12, 96, 125
18, 13232, Note_on_c, 12, 60, 125
18, 13235, Control_c, 12, 64, 127
18, 13236, Control_c, 12, 64, 0
18, 13236, Control_c, 12, 64, 127
18, 13248, Note_on_c, 12, 60, 0
18, 13259, Note_on_c, 12, 72, 0
18, 13259, Note_on_c, 12, 84, 0
18, 13261, Note_on_c, 12, 96, 0
18, 13275, Note_on_c, 12, 56, 112
18, 13276, Note_on_c, 12, 68, 112
18, 13276, Note_on_c, 12, 80, 112
18, 13277, Note_on_c, 12, 92, 112
18, 13291, Note_on_c, 12, 56, 0
18, 13305, Note_on_c, 12, 68, 0
18, 13305, Note_on_c, 12, 80, 0
18, 13306, Note_on_c, 12, 92, 0
18, 13313, Note_on_c, 12, 91, 103
18, 13315, Note_on_c, 12, 67, 103
18, 13315, Note_on_c, 12, 55, 103
18, 13315, Note_on_c, 12, 79, 103
18, 13330, Note_on_c, 12, 55, 0
18, 13342, Note_on_c, 12, 91, 0
18, 13344, Note_on_c, 12, 67, 0
18, 13344, Note_on_c, 12, 79, 0
18, 13359, Note_on_c, 12, 53, 124
18, 13359, Note_on_c, 12, 80, 98
18, 13359, Note_on_c, 12, 84, 107
18, 13359, Note_on_c, 12, 89, 126
18, 13359, Note_on_c, 12, 77, 115
18, 13359, Note_on_c, 12, 65, 124
18, 13359, Note_on_c, 12, 60, 124
18, 13361, Control_c, 12, 64, 0
18, 13379, Control_c, 12, 64, 127
18, 13381, Note_on_c, 12, 60, 0
18, 13385, Note_on_c, 12, 84, 0
18, 13388, Note_on_c, 12, 53, 0
18, 13388, Note_on_c, 12, 89, 0
18, 13388, Note_on_c, 12, 77, 0
18, 13388, Note_on_c, 12, 65, 0
18, 13389, Note_on_c, 12, 80, 0
18, 13400, Note_on_c, 12, 73, 112
18, 13401, Note_on_c, 12, 61, 112
18, 13402, Note_on_c, 12, 85, 112
18, 13402, Note_on_c, 12, 49, 112
18, 13410, Note_on_c, 12, 73, 0
18, 13411, Note_on_c, 12, 49, 0
18, 13412, Note_on_c, 12, 61, 0
18, 13431, Note_on_c, 12, 85, 0
18, 13437, Note_on_c, 12, 48, 124
18, 13437, Note_on_c, 12, 60, 124
18, 13438, Note_on_c, 12, 72, 125
18, 13438, Note_on_c, 12, 84, 125
18, 13451, Note_on_c, 12, 60, 0
18, 13451, Note_on_c, 12, 48, 0
18, 13452, Note_on_c, 12, 72, 0
18, 13467, Note_on_c, 12, 84, 0
18, 13478, Note_on_c, 12, 71, 115
18, 13478, Note_on_c, 12, 77, 112
18, 13478, Note_on_c, 12, 80, 96
18, 13478, Note_on_c, 12, 47, 117
18, 13478, Note_on_c, 12, 53, 117
18, 13478, Note_on_c, 12, 59, 117
18, 13478, Note_on_c, 12, 56, 117
18, 13479, Note_on_c, 12, 83, 119
18, 13483, Control_c, 12, 64, 0
18, 13496, Note_on_c, 12, 47, 0
18, 13497, Control_c, 12, 64, 127
18, 13497, Control_c, 12, 64, 0
18, 13497, Control_c, 12, 64, 127
18, 13501, Note_on_c, 12, 71, 0
18, 13505, Note_on_c, 12, 83, 0
18, 13506, Note_on_c, 12, 77, 0
18, 13506, Note_on_c, 12, 80, 0
18, 13507, Note_on_c, 12, 59, 0
18, 13507, Note_on_c, 12, 53, 0
18, 13514, Note_on_c, 12, 48, 127
18, 13515, Note_on_c, 12, 60, 127
18, 13516, Note_on_c, 12, 84, 127
18, 13516, Note_on_c, 12, 72, 127
18, 13516, Note_on_c, 12, 56, 0
18, 13524, Note_on_c, 12, 60, 0
18, 13525, Note_on_c, 12, 72, 0
18, 13528, Note_on_c, 12, 48, 0
18, 13545, Note_on_c, 12, 84, 0
18, 13557, Note_on_c, 12, 68, 115
18, 13558, Note_on_c, 12, 80, 112
18, 13559, Note_on_c, 12, 44, 104
18, 13559, Note_on_c, 12, 56, 98
18, 13570, Note_on_c, 12, 68, 0
18, 13573, Note_on_c, 12, 56, 0
18, 13573, Note_on_c, 12, 44, 0
18, 13587, Note_on_c, 12, 80, 0
18, 13599, Note_on_c, 12, 67, 118
18, 13599, Note_on_c, 12, 72, 118
18, 13599, Note_on_c, 12, 79, 118
18, 13602, Control_c, 12, 64, 0
18, 13602, Note_on_c, 12, 43, 119
18, 13603, Note_on_c, 12, 48, 120
18, 13603, Note_on_c, 12, 55, 120
18, 13617, Control_c, 12, 64, 127
18, 13617, Control_c, 12, 64, 0
18, 13618, Control_c, 12, 64, 127
18, 13621, Note_on_c, 12, 43, 0
18, 13622, Note_on_c, 12, 67, 0
18, 13623, Note_on_c, 12, 79, 0
18, 13624, Note_on_c, 12, 55, 0
18, 13636, Note_on_c, 12, 72, 0
18, 13638, Note_on_c, 12, 80, 110
18, 13638, Note_on_c, 12, 68, 113
18, 13639, Note_on_c, 12, 44, 90
18, 13640, Note_on_c, 12, 56, 112
18, 13640, Note_on_c, 12, 48, 0
18, 13648, Note_on_c, 12, 68, 0
18, 13650, Note_on_c, 12, 44, 0
18, 13651, Note_on_c, 12, 56, 0
18, 13667, Note_on_c, 12, 80, 0
18, 13673, Note_on_c, 12, 77, 114
18, 13673, Note_on_c, 12, 65, 107
18, 13673, Note_on_c, 12, 53, 93
18, 13673, Note_on_c, 12, 41, 105
18, 13683, Note_on_c, 12, 53, 0
18, 13685, Note_on_c, 12, 65, 0
18, 13686, Note_on_c, 12, 41, 0
18, 13702, Note_on_c, 12, 77, 0
18, 13720, Note_on_c, 12, 44, 120
18, 13720, Note_on_c, 12, 41, 120
18, 13720, Note_on_c, 12, 73, 120
18, 13720, Note_on_c, 12, 68, 120
18, 13721, Note_on_c, 12, 61, 120
18, 13721, Note_on_c, 12, 65, 120
18, 13724, Note_on_c, 12, 37, 120
18, 13724, Note_on_c, 12, 49, 120
18, 13728, Control_c, 12, 64, 0
18, 13744, Control_c, 12, 64, 127
18, 13744, Control_c, 12, 64, 0
18, 13745, Control_c, 12, 64, 127
18, 13748, Note_on_c, 12, 44, 0
18, 13752, Note_on_c, 12, 41, 0
18, 13755, Note_on_c, 12, 37, 0
18, 13756, Note_on_c, 12, 49, 0
18, 13756, Note_on_c, 12, 61, 0
18, 13757, Note_on_c, 12, 73, 0
18, 13762, Note_on_c, 12, 60, 120
18, 13763, Note_on_c, 12, 72, 120
18, 13763, Note_on_c, 12, 36, 120
18, 13763, Note_on_c, 12, 68, 0
18, 13765, Note_on_c, 12, 48, 122
18, 13765, Note_on_c, 12, 65, 0
18, 13779, Note_on_c, 12, 48, 0
18, 13781, Note_on_c, 12, 60, 0
18, 13782, Note_on_c, 12, 36, 0
18, 13792, Note_on_c, 12, 72, 0
18, 13797, Note_on_c, 12, 35, 124
18, 13797, Note_on_c, 12, 47, 124
18, 13797, Note_on_c, 12, 59, 124
18, 13798, Note_on_c, 12, 71, 124
18, 13808, Note_on_c, 12, 59, 0
18, 13808, Note_on_c, 12, 35, 0
18, 13811, Note_on_c, 12, 47, 0
18, 13827, Note_on_c, 12, 71, 0
18, 13833, Control_c, 12, 64, 0
18, 13833, Note_on_c, 12, 48, 124
18, 13833, Note_on_c, 12, 60, 124
18, 13834, Note_on_c, 12, 72, 124
18, 13835, Note_on_c, 12, 36, 124
18, 13840, Control_c, 12, 64, 127
18, 13840, Control_c, 12, 64, 0
18, 13840, Control_c, 12, 64, 127
18, 13847, Note_on_c, 12, 36, 0
18, 13848, Note_on_c, 12, 48, 0
18, 13848, Note_on_c, 12, 60, 0
18, 13863, Note_on_c, 12, 72, 0
18, 13875, Note_on_c, 12, 68, 114
18, 13875, Note_on_c, 12, 56, 114
18, 13875, Note_on_c, 12, 44, 114
18, 13876, Note_on_c, 12, 32, 114
18, 13876, Note_on_c, 12, 34, 114
18, 13884, Note_on_c, 12, 34, 0
18, 13887, Note_on_c, 12, 44, 0
18, 13891, Note_on_c, 12, 56, 0
18, 13893, Note_on_c, 12, 32, 0
18, 13904, Note_on_c, 12, 68, 0
18, 13910, Note_on_c, 12, 31, 93
18, 13910, Note_on_c, 12, 43, 93
18, 13911, Note_on_c, 12, 55, 117
18, 13911, Note_on_c, 12, 67, 108
18, 13924, Note_on_c, 12, 43, 0
18, 13926, Note_on_c, 12, 31, 0
18, 13927, Note_on_c, 12, 55, 0
18, 13940, Note_on_c, 12, 67, 0
18, 13948, Note_on_c, 12, 41, 127
18, 13950, Note_on_c, 12, 29, 122
18, 13950, Note_on_c, 12, 53, 122
18, 13951, Note_on_c, 12, 65, 121
18, 13954, Control_c, 12, 64, 0
18, 13965, Control_c, 12, 64, 127
18, 13970, Note_on_c, 12, 29, 0
18, 13974, Note_on_c, 12, 53, 0
18, 13975, Note_on_c, 12, 41, 0
18, 13980, Note_on_c, 12, 65, 0
18, 13988, Note_on_c, 12, 37, 114
18, 13989, Note_on_c, 12, 49, 114
18, 13990, Note_on_c, 12, 61, 114
18, 14003, Note_on_c, 12, 49, 0
18, 14004, Note_on_c, 12, 37, 0
18, 14019, Note_on_c, 12, 61, 0
18, 14024, Note_on_c, 12, 48, 125
18, 14025, Note_on_c, 12, 60, 125
18, 14026, Note_on_c, 12, 36, 125
18, 14039, Note_on_c, 12, 48, 0
18, 14040, Note_on_c, 12, 36, 0
18, 14054, Note_on_c, 12, 60, 0
18, 14063, Note_on_c, 12, 59, 126
18, 14065, Note_on_c, 12, 35, 126
18, 14066, Control_c, 12, 64, 0
18, 14067, Note_on_c, 12, 47, 126
18, 14080, Control_c, 12, 64, 127
18, 14088, Note_on_c, 12, 47, 0
18, 14091, Note_on_c, 12, 59, 0
18, 14093, Note_on_c, 12, 35, 0
18, 14105, Note_on_c, 12, 48, 125
18, 14106, Note_on_c, 12, 60, 125
18, 14107, Note_on_c, 12, 36, 125
18, 14127, Note_on_c, 12, 36, 0
18, 14134, Note_on_c, 12, 48, 0
18, 14135, Note_on_c, 12, 60, 0
18, 14154, Note_on_c, 12, 32, 114
18, 14154, Note_on_c, 12, 44, 114
18, 14154, Note_on_c, 12, 56, 114
18, 14156, Control_c, 12, 64, 0
18, 14175, Control_c, 12, 64, 127
18, 14175, Control_c, 12, 64, 0
18, 14177, Control_c, 12, 64, 127
18, 14181, Note_on_c, 12, 32, 0
18, 14183, Note_on_c, 12, 56, 0
18, 14183, Note_on_c, 12, 44, 0
18, 14204, Note_on_c, 12, 31, 115
18, 14204, Note_on_c, 12, 43, 115
18, 14205, Note_on_c, 12, 55, 115
18, 14219, Note_on_c, 12, 43, 0
18, 14220, Note_on_c, 12, 31, 0
18, 14234, Note_on_c, 12, 55, 0
18, 14261, Note_on_c, 12, 53, 119
18, 14261, Note_on_c, 12, 56, 23
18, 14262, Note_on_c, 12, 29, 127
18, 14262, Note_on_c, 12, 41, 127
18, 14262, Note_on_c, 12, 65, 34
18, 14267, Control_c, 12, 64, 0
18, 14267, Control_c, 12, 121, 0
18, 14410, Note_on_c, 12, 56, 0
18, 14410, Note_on_c, 12, 53, 0
18, 14411, Note_on_c, 12, 41, 0
18, 14411, Note_on_c, 12, 29, 0
18, 14411, Note_on_c, 12, 65, 0
18, 14411, End_track
19, 0, Start_track
19, 0, MIDI_port, 0
19, 0, Title_t, "Creative Labs Inc."
19, 0, End_track
20, 0, Start_track
20, 0, MIDI_port, 0
20, 0, Title_t, "(c) 1994"
20, 0, End_track
21, 0, Start_track
21, 0, MIDI_port, 0
21, 0, Title_t, "Produced by Dr. Chew"
21, 0, End_track
22, 0, Start_track
22, 0, MIDI_port, 0
22, 0, Title_t, "Tchaikovsky "
22, 0, End_track
23, 0, Start_track
23, 0, MIDI_port, 0
23, 0, Title_t, "Piano Concerto "
23, 0, End_track
24, 0, Start_track
24, 0, MIDI_port, 0
24, 0, Title_t, "no1. Ist mvt."
24, 0, End_track
25, 0, Start_track
25, 0, MIDI_port, 0
25, 0, End_track
26, 0, Start_track
26, 0, MIDI_port, 0
26, 0, End_track
0, 0, End_of_file
