0, 0, Header, 1, 32, 120
1, 0, Start_track
1, 0, Time_signature, 12, 3, 12, 8
1, 0, Key_signature, 4, "major"
1, 0, Tempo, 425532
1, 0, Marker_t, "Allegro (III)"
1, 2880, Tempo, 419580
1, 4260, Tempo, 416667
1, 4320, Marker_t, "From Antonio Vivaldi's Four Seasons Spring"
1, 4860, Tempo, 413793
1, 9000, Tempo, 422535
1, 9360, Tempo, 428571
1, 10800, Tempo, 422535
1, 11520, Tempo, 419580
1, 12240, Tempo, 416667
1, 12600, Tempo, 413793
1, 14400, Tempo, 416667
1, 14760, Tempo, 419580
1, 15480, Tempo, 416667
1, 15660, Tempo, 413793
1, 18000, Tempo, 416667
1, 18000, Marker_t, "Op. 8, No. 1"
1, 19440, Tempo, 419580
1, 20880, Tempo, 413793
1, 23040, Marker_t, "This Midi File Copyright (C) 1996 by Neil B. Sheldon Sr."
1, 26280, Tempo, 416667
1, 27000, Tempo, 419580
1, 27720, Tempo, 422535
1, 34920, Tempo, 419580
1, 39600, Marker_t, "May be freely distributed for non-commercial / non-monetary purposes only."
1, 42120, Tempo, 413793
1, 43200, Key_signature, 1, "major"
1, 44280, Tempo, 416667
1, 45000, Tempo, 419580
1, 48960, Tempo, 416667
1, 49680, Tempo, 413793
1, 51660, Tempo, 416667
1, 52380, Tempo, 419580
1, 56160, Key_signature, 4, "major"
1, 56160, Tempo, 417827
1, 56340, Tempo, 416667
1, 56520, Tempo, 414938
1, 56700, Tempo, 413793
1, 64080, Tempo, 500000
1, 64080, End_track
2, 0, Start_track
2, 0, MIDI_port, 1
2, 0, Title_t, "Violin Solo"
2, 0, Program_c, 0, 40
2, 0, Control_c, 0, 7, 115
2, 0, Control_c, 0, 10, 64
2, 0, Program_c, 0, 40
2, 0, Control_c, 0, 7, 115
2, 0, Control_c, 0, 10, 64
2, 0, Control_c, 0, 93, 0
2, 0, Control_c, 0, 91, 120
2, 1, Text_t, "Non Registered Parameter Numbers"
2, 1, Text_t, "For Roland SC-55 Vibrato"
2, 1, Text_t, "Set up NRPN for Vibrate Rate"
2, 2, Control_c, 0, 99, 1
2, 3, Control_c, 0, 98, 8
2, 4, Text_t, "Data Entry Command"
2, 4, Control_c, 0, 6, 68
2, 5, Text_t, "Set up NRPN for Vibrate Delay"
2, 6, Control_c, 0, 99, 1
2, 7, Control_c, 0, 98, 10
2, 8, Text_t, "Data Entry Command"
2, 8, Control_c, 0, 6, 14
2, 9, Text_t, "Set up NRPN for Vibrate Depth"
2, 10, Control_c, 0, 99, 1
2, 11, Control_c, 0, 98, 9
2, 12, Text_t, "Data Entry Command; Vibrato ON"
2, 12, Control_c, 0, 6, 71
2, 13, Control_c, 0, 11, 127
2, 14, Pitch_bend_c, 0, 8192
2, 720, Note_on_c, 0, 80, 81
2, 810, Note_on_c, 0, 80, 0
2, 810, Note_on_c, 0, 81, 81
2, 840, Note_on_c, 0, 81, 0
2, 840, Note_on_c, 0, 80, 81
2, 900, Note_on_c, 0, 80, 0
2, 900, Note_on_c, 0, 80, 81
2, 1020, Note_on_c, 0, 80, 0
2, 1020, Note_on_c, 0, 81, 81
2, 1080, Note_on_c, 0, 81, 0
2, 1080, Note_on_c, 0, 81, 81
2, 1260, Note_on_c, 0, 81, 0
2, 1260, Note_on_c, 0, 83, 81
2, 1380, Note_on_c, 0, 83, 0
2, 1380, Note_on_c, 0, 81, 81
2, 1440, Note_on_c, 0, 81, 0
2, 1440, Note_on_c, 0, 80, 81
2, 1530, Note_on_c, 0, 80, 0
2, 1530, Note_on_c, 0, 81, 81
2, 1560, Note_on_c, 0, 81, 0
2, 1560, Note_on_c, 0, 80, 81
2, 1620, Note_on_c, 0, 80, 0
2, 1620, Note_on_c, 0, 80, 81
2, 1740, Note_on_c, 0, 80, 0
2, 1740, Note_on_c, 0, 81, 81
2, 1800, Note_on_c, 0, 81, 0
2, 1800, Note_on_c, 0, 81, 81
2, 1980, Note_on_c, 0, 81, 0
2, 1980, Note_on_c, 0, 83, 81
2, 2100, Note_on_c, 0, 83, 0
2, 2100, Note_on_c, 0, 81, 81
2, 2160, Note_on_c, 0, 81, 0
2, 2160, Note_on_c, 0, 80, 81
2, 2250, Note_on_c, 0, 80, 0
2, 2250, Note_on_c, 0, 81, 81
2, 2280, Note_on_c, 0, 81, 0
2, 2280, Note_on_c, 0, 83, 81
2, 2340, Note_on_c, 0, 83, 0
2, 2340, Note_on_c, 0, 83, 81
2, 2430, Note_on_c, 0, 83, 0
2, 2430, Note_on_c, 0, 81, 81
2, 2460, Note_on_c, 0, 81, 0
2, 2460, Note_on_c, 0, 80, 81
2, 2518, Note_on_c, 0, 80, 0
2, 2519, Pitch_bend_c, 0, 12288
2, 2520, Note_on_c, 0, 80, 81
2, 2535, Pitch_bend_c, 0, 8192
2, 2550, Pitch_bend_c, 0, 12288
2, 2565, Pitch_bend_c, 0, 8192
2, 2580, Pitch_bend_c, 0, 12288
2, 2595, Pitch_bend_c, 0, 8192
2, 2610, Pitch_bend_c, 0, 12288
2, 2625, Pitch_bend_c, 0, 8192
2, 2640, Pitch_bend_c, 0, 12288
2, 2655, Pitch_bend_c, 0, 8192
2, 2670, Pitch_bend_c, 0, 12288
2, 2685, Pitch_bend_c, 0, 8192
2, 2698, Note_on_c, 0, 80, 0
2, 2699, Pitch_bend_c, 0, 16383
2, 2700, Note_on_c, 0, 78, 81
2, 2715, Pitch_bend_c, 0, 8192
2, 2730, Pitch_bend_c, 0, 16383
2, 2745, Pitch_bend_c, 0, 8192
2, 2760, Pitch_bend_c, 0, 16383
2, 2775, Pitch_bend_c, 0, 8192
2, 2790, Pitch_bend_c, 0, 16383
2, 2805, Pitch_bend_c, 0, 8192
2, 2820, Pitch_bend_c, 0, 16383
2, 2835, Pitch_bend_c, 0, 8192
2, 2850, Pitch_bend_c, 0, 16383
2, 2865, Pitch_bend_c, 0, 8192
2, 2880, Note_on_c, 0, 78, 0
2, 2880, Note_on_c, 0, 80, 47
2, 2970, Note_on_c, 0, 80, 0
2, 2970, Note_on_c, 0, 81, 47
2, 3000, Note_on_c, 0, 81, 0
2, 3000, Note_on_c, 0, 80, 47
2, 3060, Note_on_c, 0, 80, 0
2, 3060, Note_on_c, 0, 80, 47
2, 3180, Note_on_c, 0, 80, 0
2, 3180, Note_on_c, 0, 81, 47
2, 3240, Note_on_c, 0, 81, 0
2, 3240, Note_on_c, 0, 81, 47
2, 3420, Note_on_c, 0, 81, 0
2, 3420, Note_on_c, 0, 83, 47
2, 3540, Note_on_c, 0, 83, 0
2, 3540, Note_on_c, 0, 81, 47
2, 3600, Note_on_c, 0, 81, 0
2, 3600, Note_on_c, 0, 80, 47
2, 3690, Note_on_c, 0, 80, 0
2, 3690, Note_on_c, 0, 81, 47
2, 3720, Note_on_c, 0, 81, 0
2, 3720, Note_on_c, 0, 80, 47
2, 3780, Note_on_c, 0, 80, 0
2, 3780, Note_on_c, 0, 80, 47
2, 3900, Note_on_c, 0, 80, 0
2, 3900, Note_on_c, 0, 81, 47
2, 3960, Note_on_c, 0, 81, 0
2, 3960, Note_on_c, 0, 81, 47
2, 4140, Note_on_c, 0, 81, 0
2, 4140, Note_on_c, 0, 83, 47
2, 4260, Note_on_c, 0, 83, 0
2, 4260, Note_on_c, 0, 81, 47
2, 4320, Note_on_c, 0, 81, 0
2, 4320, Note_on_c, 0, 80, 47
2, 4410, Note_on_c, 0, 80, 0
2, 4410, Note_on_c, 0, 81, 47
2, 4440, Note_on_c, 0, 81, 0
2, 4440, Note_on_c, 0, 83, 47
2, 4500, Note_on_c, 0, 83, 0
2, 4500, Note_on_c, 0, 83, 47
2, 4590, Note_on_c, 0, 83, 0
2, 4590, Note_on_c, 0, 81, 47
2, 4620, Note_on_c, 0, 81, 0
2, 4620, Note_on_c, 0, 80, 47
2, 4680, Note_on_c, 0, 80, 0
2, 4680, Note_on_c, 0, 80, 47
2, 4860, Note_on_c, 0, 80, 0
2, 4860, Note_on_c, 0, 83, 81
2, 4980, Note_on_c, 0, 83, 0
2, 4980, Note_on_c, 0, 78, 81
2, 5040, Note_on_c, 0, 78, 0
2, 5040, Note_on_c, 0, 75, 81
2, 5130, Note_on_c, 0, 75, 0
2, 5130, Note_on_c, 0, 73, 81
2, 5160, Note_on_c, 0, 73, 0
2, 5160, Note_on_c, 0, 71, 81
2, 5220, Note_on_c, 0, 71, 0
2, 5220, Note_on_c, 0, 83, 81
2, 5310, Note_on_c, 0, 83, 0
2, 5310, Note_on_c, 0, 81, 81
2, 5340, Note_on_c, 0, 81, 0
2, 5340, Note_on_c, 0, 80, 81
2, 5398, Note_on_c, 0, 80, 0
2, 5399, Pitch_bend_c, 0, 12288
2, 5400, Note_on_c, 0, 80, 81
2, 5415, Pitch_bend_c, 0, 8192
2, 5430, Pitch_bend_c, 0, 12288
2, 5445, Pitch_bend_c, 0, 8192
2, 5460, Pitch_bend_c, 0, 12288
2, 5475, Pitch_bend_c, 0, 8192
2, 5490, Pitch_bend_c, 0, 12288
2, 5505, Pitch_bend_c, 0, 8192
2, 5520, Note_on_c, 0, 80, 0
2, 5520, Note_on_c, 0, 78, 81
2, 5580, Note_on_c, 0, 78, 0
2, 5580, Note_on_c, 0, 83, 81
2, 5700, Note_on_c, 0, 83, 0
2, 5760, Note_on_c, 0, 83, 81
2, 5880, Note_on_c, 0, 83, 0
2, 5940, Note_on_c, 0, 83, 81
2, 6060, Note_on_c, 0, 83, 0
2, 6120, Note_on_c, 0, 83, 81
2, 6240, Note_on_c, 0, 83, 0
2, 6300, Note_on_c, 0, 75, 81
2, 6390, Note_on_c, 0, 76, 81
2, 6395, Note_on_c, 0, 75, 0
2, 6420, Note_on_c, 0, 78, 81
2, 6425, Note_on_c, 0, 76, 0
2, 6480, Note_on_c, 0, 78, 0
2, 6480, Note_on_c, 0, 78, 81
2, 6570, Note_on_c, 0, 80, 81
2, 6575, Note_on_c, 0, 78, 0
2, 6600, Note_on_c, 0, 81, 81
2, 6605, Note_on_c, 0, 80, 0
2, 6660, Note_on_c, 0, 81, 0
2, 6660, Note_on_c, 0, 81, 81
2, 6750, Note_on_c, 0, 80, 81
2, 6755, Note_on_c, 0, 81, 0
2, 6780, Note_on_c, 0, 78, 81
2, 6785, Note_on_c, 0, 80, 0
2, 6840, Note_on_c, 0, 78, 0
2, 6840, Note_on_c, 0, 78, 81
2, 6930, Note_on_c, 0, 76, 81
2, 6935, Note_on_c, 0, 78, 0
2, 6960, Note_on_c, 0, 75, 81
2, 6965, Note_on_c, 0, 76, 0
2, 7020, Note_on_c, 0, 75, 0
2, 7020, Note_on_c, 0, 75, 81
2, 7110, Note_on_c, 0, 76, 81
2, 7115, Note_on_c, 0, 75, 0
2, 7140, Note_on_c, 0, 78, 81
2, 7145, Note_on_c, 0, 76, 0
2, 7200, Note_on_c, 0, 78, 0
2, 7200, Note_on_c, 0, 78, 81
2, 7290, Note_on_c, 0, 80, 81
2, 7295, Note_on_c, 0, 78, 0
2, 7320, Note_on_c, 0, 81, 81
2, 7325, Note_on_c, 0, 80, 0
2, 7380, Note_on_c, 0, 81, 0
2, 7380, Note_on_c, 0, 81, 81
2, 7470, Note_on_c, 0, 80, 81
2, 7475, Note_on_c, 0, 81, 0
2, 7500, Note_on_c, 0, 78, 81
2, 7505, Note_on_c, 0, 80, 0
2, 7560, Note_on_c, 0, 78, 0
2, 7560, Note_on_c, 0, 80, 81
2, 7650, Note_on_c, 0, 81, 81
2, 7655, Note_on_c, 0, 80, 0
2, 7680, Note_on_c, 0, 80, 81
2, 7685, Note_on_c, 0, 81, 0
2, 7740, Note_on_c, 0, 80, 0
2, 7740, Note_on_c, 0, 85, 81
2, 7920, Note_on_c, 0, 83, 81
2, 7925, Note_on_c, 0, 85, 0
2, 8100, Note_on_c, 0, 81, 81
2, 8105, Note_on_c, 0, 83, 0
2, 8280, Note_on_c, 0, 81, 0
2, 8280, Note_on_c, 0, 80, 81
2, 8370, Note_on_c, 0, 81, 81
2, 8375, Note_on_c, 0, 80, 0
2, 8400, Note_on_c, 0, 80, 81
2, 8405, Note_on_c, 0, 81, 0
2, 8460, Note_on_c, 0, 80, 0
2, 8460, Note_on_c, 0, 85, 81
2, 8640, Note_on_c, 0, 83, 81
2, 8645, Note_on_c, 0, 85, 0
2, 8820, Note_on_c, 0, 81, 81
2, 8825, Note_on_c, 0, 83, 0
2, 9000, Note_on_c, 0, 81, 0
2, 9000, Note_on_c, 0, 80, 81
2, 9060, Note_on_c, 0, 80, 0
2, 9060, Note_on_c, 0, 76, 81
2, 9120, Note_on_c, 0, 76, 0
2, 9120, Note_on_c, 0, 78, 81
2, 9180, Note_on_c, 0, 78, 0
2, 9180, Note_on_c, 0, 80, 81
2, 9240, Note_on_c, 0, 80, 0
2, 9240, Note_on_c, 0, 78, 81
2, 9300, Note_on_c, 0, 78, 0
2, 9300, Note_on_c, 0, 76, 81
2, 9360, Note_on_c, 0, 76, 0
2, 9360, Note_on_c, 0, 83, 81
2, 9420, Note_on_c, 0, 83, 0
2, 9420, Note_on_c, 0, 85, 81
2, 9480, Note_on_c, 0, 85, 0
2, 9480, Note_on_c, 0, 83, 81
2, 9540, Note_on_c, 0, 83, 0
2, 9540, Note_on_c, 0, 88, 81
2, 9600, Note_on_c, 0, 88, 0
2, 9600, Note_on_c, 0, 87, 81
2, 9660, Note_on_c, 0, 87, 0
2, 9660, Note_on_c, 0, 85, 81
2, 9720, Note_on_c, 0, 85, 0
2, 9720, Note_on_c, 0, 83, 81
2, 9780, Note_on_c, 0, 83, 0
2, 9780, Note_on_c, 0, 80, 81
2, 9840, Note_on_c, 0, 80, 0
2, 9840, Note_on_c, 0, 78, 81
2, 9900, Note_on_c, 0, 78, 0
2, 9900, Note_on_c, 0, 76, 81
2, 10080, Note_on_c, 0, 76, 0
2, 10080, Note_on_c, 0, 83, 47
2, 10140, Note_on_c, 0, 83, 0
2, 10140, Note_on_c, 0, 85, 47
2, 10200, Note_on_c, 0, 85, 0
2, 10200, Note_on_c, 0, 83, 47
2, 10260, Note_on_c, 0, 83, 0
2, 10260, Note_on_c, 0, 88, 47
2, 10320, Note_on_c, 0, 88, 0
2, 10320, Note_on_c, 0, 87, 47
2, 10380, Note_on_c, 0, 87, 0
2, 10380, Note_on_c, 0, 85, 47
2, 10440, Note_on_c, 0, 85, 0
2, 10440, Note_on_c, 0, 83, 47
2, 10500, Note_on_c, 0, 83, 0
2, 10500, Note_on_c, 0, 80, 47
2, 10560, Note_on_c, 0, 80, 0
2, 10560, Note_on_c, 0, 78, 47
2, 10620, Note_on_c, 0, 78, 0
2, 10620, Note_on_c, 0, 76, 47
2, 10800, Note_on_c, 0, 76, 0
2, 10800, Note_on_c, 0, 83, 81
2, 10830, Note_on_c, 0, 81, 81
2, 10835, Note_on_c, 0, 83, 0
2, 10860, Note_on_c, 0, 80, 81
2, 10865, Note_on_c, 0, 81, 0
2, 10890, Note_on_c, 0, 78, 81
2, 10895, Note_on_c, 0, 80, 0
2, 10920, Note_on_c, 0, 76, 81
2, 10925, Note_on_c, 0, 78, 0
2, 10980, Note_on_c, 0, 76, 0
2, 10980, Note_on_c, 0, 86, 81
2, 11032, Note_on_c, 0, 86, 0
2, 11040, Note_on_c, 0, 85, 81
2, 11092, Note_on_c, 0, 85, 0
2, 11100, Note_on_c, 0, 83, 81
2, 11152, Note_on_c, 0, 83, 0
2, 11160, Note_on_c, 0, 85, 81
2, 11212, Note_on_c, 0, 85, 0
2, 11220, Note_on_c, 0, 88, 81
2, 11272, Note_on_c, 0, 88, 0
2, 11280, Note_on_c, 0, 86, 81
2, 11332, Note_on_c, 0, 86, 0
2, 11340, Note_on_c, 0, 85, 81
2, 11392, Note_on_c, 0, 85, 0
2, 11400, Note_on_c, 0, 83, 81
2, 11452, Note_on_c, 0, 83, 0
2, 11460, Note_on_c, 0, 81, 81
2, 11512, Note_on_c, 0, 81, 0
2, 11520, Note_on_c, 0, 85, 81
2, 11550, Note_on_c, 0, 83, 81
2, 11555, Note_on_c, 0, 85, 0
2, 11580, Note_on_c, 0, 82, 81
2, 11585, Note_on_c, 0, 83, 0
2, 11610, Note_on_c, 0, 80, 81
2, 11615, Note_on_c, 0, 82, 0
2, 11640, Note_on_c, 0, 78, 81
2, 11645, Note_on_c, 0, 80, 0
2, 11700, Note_on_c, 0, 78, 0
2, 11700, Note_on_c, 0, 88, 81
2, 11752, Note_on_c, 0, 88, 0
2, 11760, Note_on_c, 0, 87, 81
2, 11812, Note_on_c, 0, 87, 0
2, 11820, Note_on_c, 0, 85, 81
2, 11872, Note_on_c, 0, 85, 0
2, 11880, Note_on_c, 0, 87, 81
2, 11932, Note_on_c, 0, 87, 0
2, 11940, Note_on_c, 0, 90, 81
2, 11992, Note_on_c, 0, 90, 0
2, 12000, Note_on_c, 0, 88, 81
2, 12052, Note_on_c, 0, 88, 0
2, 12060, Note_on_c, 0, 87, 81
2, 12112, Note_on_c, 0, 87, 0
2, 12120, Note_on_c, 0, 85, 81
2, 12172, Note_on_c, 0, 85, 0
2, 12180, Note_on_c, 0, 83, 81
2, 12232, Note_on_c, 0, 83, 0
2, 12240, Note_on_c, 0, 87, 81
2, 12270, Note_on_c, 0, 85, 81
2, 12275, Note_on_c, 0, 87, 0
2, 12300, Note_on_c, 0, 83, 81
2, 12305, Note_on_c, 0, 85, 0
2, 12330, Note_on_c, 0, 81, 81
2, 12335, Note_on_c, 0, 83, 0
2, 12360, Note_on_c, 0, 80, 81
2, 12365, Note_on_c, 0, 81, 0
2, 12420, Note_on_c, 0, 80, 0
2, 12420, Note_on_c, 0, 90, 81
2, 12472, Note_on_c, 0, 90, 0
2, 12480, Note_on_c, 0, 88, 81
2, 12532, Note_on_c, 0, 88, 0
2, 12540, Note_on_c, 0, 87, 81
2, 12592, Note_on_c, 0, 87, 0
2, 12600, Note_on_c, 0, 88, 81
2, 12660, Note_on_c, 0, 88, 0
2, 12660, Note_on_c, 0, 92, 81
2, 12690, Note_on_c, 0, 90, 81
2, 12695, Note_on_c, 0, 92, 0
2, 12720, Note_on_c, 0, 88, 81
2, 12725, Note_on_c, 0, 90, 0
2, 12780, Note_on_c, 0, 88, 0
2, 12780, Note_on_c, 0, 92, 81
2, 12832, Note_on_c, 0, 92, 0
2, 12840, Note_on_c, 0, 90, 81
2, 12892, Note_on_c, 0, 90, 0
2, 12900, Note_on_c, 0, 88, 81
2, 12952, Note_on_c, 0, 88, 0
2, 12960, Note_on_c, 0, 87, 81
2, 13020, Note_on_c, 0, 87, 0
2, 13020, Note_on_c, 0, 90, 81
2, 13050, Note_on_c, 0, 88, 81
2, 13055, Note_on_c, 0, 90, 0
2, 13080, Note_on_c, 0, 87, 81
2, 13085, Note_on_c, 0, 88, 0
2, 13140, Note_on_c, 0, 87, 0
2, 13140, Note_on_c, 0, 90, 81
2, 13192, Note_on_c, 0, 90, 0
2, 13200, Note_on_c, 0, 88, 81
2, 13252, Note_on_c, 0, 88, 0
2, 13260, Note_on_c, 0, 87, 81
2, 13312, Note_on_c, 0, 87, 0
2, 13320, Note_on_c, 0, 85, 81
2, 13380, Note_on_c, 0, 85, 0
2, 13380, Note_on_c, 0, 88, 81
2, 13410, Note_on_c, 0, 87, 81
2, 13415, Note_on_c, 0, 88, 0
2, 13440, Note_on_c, 0, 85, 81
2, 13445, Note_on_c, 0, 87, 0
2, 13500, Note_on_c, 0, 85, 0
2, 13500, Note_on_c, 0, 88, 81
2, 13552, Note_on_c, 0, 88, 0
2, 13560, Note_on_c, 0, 87, 81
2, 13612, Note_on_c, 0, 87, 0
2, 13620, Note_on_c, 0, 85, 81
2, 13672, Note_on_c, 0, 85, 0
2, 13680, Note_on_c, 0, 83, 81
2, 13740, Note_on_c, 0, 83, 0
2, 13740, Note_on_c, 0, 87, 81
2, 13770, Note_on_c, 0, 85, 81
2, 13775, Note_on_c, 0, 87, 0
2, 13800, Note_on_c, 0, 83, 81
2, 13805, Note_on_c, 0, 85, 0
2, 13860, Note_on_c, 0, 83, 0
2, 13860, Note_on_c, 0, 87, 81
2, 13912, Note_on_c, 0, 87, 0
2, 13920, Note_on_c, 0, 85, 81
2, 13972, Note_on_c, 0, 85, 0
2, 13980, Note_on_c, 0, 83, 81
2, 14032, Note_on_c, 0, 83, 0
2, 14040, Note_on_c, 0, 81, 81
2, 14100, Note_on_c, 0, 81, 0
2, 14100, Note_on_c, 0, 85, 81
2, 14130, Note_on_c, 0, 85, 0
2, 14130, Note_on_c, 0, 83, 81
2, 14160, Note_on_c, 0, 81, 81
2, 14165, Note_on_c, 0, 83, 0
2, 14220, Note_on_c, 0, 81, 0
2, 14220, Note_on_c, 0, 85, 81
2, 14272, Note_on_c, 0, 85, 0
2, 14280, Note_on_c, 0, 83, 81
2, 14332, Note_on_c, 0, 83, 0
2, 14340, Note_on_c, 0, 81, 81
2, 14392, Note_on_c, 0, 81, 0
2, 14400, Note_on_c, 0, 80, 81
2, 14430, Note_on_c, 0, 84, 81
2, 14435, Note_on_c, 0, 80, 0
2, 14460, Note_on_c, 0, 85, 81
2, 14465, Note_on_c, 0, 84, 0
2, 14700, Note_on_c, 0, 85, 0
2, 14700, Note_on_c, 0, 81, 81
2, 14760, Note_on_c, 0, 81, 0
2, 14760, Note_on_c, 0, 80, 81
2, 14790, Note_on_c, 0, 84, 81
2, 14795, Note_on_c, 0, 80, 0
2, 14820, Note_on_c, 0, 85, 81
2, 14825, Note_on_c, 0, 84, 0
2, 15060, Note_on_c, 0, 85, 0
2, 15060, Note_on_c, 0, 81, 81
2, 15120, Note_on_c, 0, 80, 81
2, 15125, Note_on_c, 0, 81, 0
2, 15180, Note_on_c, 0, 85, 81
2, 15185, Note_on_c, 0, 80, 0
2, 15240, Note_on_c, 0, 83, 81
2, 15245, Note_on_c, 0, 85, 0
2, 15300, Note_on_c, 0, 81, 81
2, 15305, Note_on_c, 0, 83, 0
2, 15360, Note_on_c, 0, 80, 81
2, 15365, Note_on_c, 0, 81, 0
2, 15420, Note_on_c, 0, 80, 0
2, 15420, Note_on_c, 0, 78, 81
2, 15480, Note_on_c, 0, 78, 0
2, 15480, Note_on_c, 0, 76, 81
2, 15540, Note_on_c, 0, 76, 0
2, 15540, Note_on_c, 0, 80, 81
2, 15600, Note_on_c, 0, 80, 0
2, 15600, Note_on_c, 0, 85, 81
2, 15660, Note_on_c, 0, 85, 0
2, 15660, Note_on_c, 0, 75, 81
2, 15720, Note_on_c, 0, 75, 0
2, 15720, Note_on_c, 0, 80, 81
2, 15780, Note_on_c, 0, 80, 0
2, 15780, Note_on_c, 0, 84, 81
2, 15840, Note_on_c, 0, 84, 0
2, 15840, Note_on_c, 0, 85, 81
2, 15840, Note_on_c, 0, 76, 81
2, 15930, Note_on_c, 0, 76, 0
2, 15930, Note_on_c, 0, 78, 81
2, 15960, Note_on_c, 0, 78, 0
2, 15960, Note_on_c, 0, 76, 81
2, 16020, Note_on_c, 0, 76, 0
2, 16020, Note_on_c, 0, 85, 0
2, 16020, Note_on_c, 0, 76, 81
2, 16140, Note_on_c, 0, 76, 0
2, 16140, Note_on_c, 0, 78, 81
2, 16200, Note_on_c, 0, 78, 0
2, 16200, Note_on_c, 0, 78, 81
2, 16380, Note_on_c, 0, 78, 0
2, 16380, Note_on_c, 0, 80, 81
2, 16500, Note_on_c, 0, 80, 0
2, 16500, Note_on_c, 0, 78, 81
2, 16560, Note_on_c, 0, 78, 0
2, 16560, Note_on_c, 0, 76, 81
2, 16650, Note_on_c, 0, 76, 0
2, 16650, Note_on_c, 0, 78, 81
2, 16680, Note_on_c, 0, 78, 0
2, 16680, Note_on_c, 0, 76, 81
2, 16740, Note_on_c, 0, 76, 0
2, 16740, Note_on_c, 0, 76, 81
2, 16860, Note_on_c, 0, 76, 0
2, 16860, Note_on_c, 0, 78, 81
2, 16920, Note_on_c, 0, 78, 0
2, 16920, Note_on_c, 0, 78, 81
2, 17100, Note_on_c, 0, 78, 0
2, 17100, Note_on_c, 0, 80, 81
2, 17220, Note_on_c, 0, 80, 0
2, 17220, Note_on_c, 0, 78, 81
2, 17280, Note_on_c, 0, 78, 0
2, 17280, Note_on_c, 0, 76, 81
2, 17370, Note_on_c, 0, 76, 0
2, 17370, Note_on_c, 0, 78, 81
2, 17400, Note_on_c, 0, 78, 0
2, 17400, Note_on_c, 0, 80, 81
2, 17460, Note_on_c, 0, 80, 0
2, 17460, Note_on_c, 0, 80, 81
2, 17550, Note_on_c, 0, 80, 0
2, 17550, Note_on_c, 0, 78, 81
2, 17580, Note_on_c, 0, 78, 0
2, 17580, Note_on_c, 0, 76, 81
2, 17638, Note_on_c, 0, 76, 0
2, 17639, Pitch_bend_c, 0, 16383
2, 17640, Note_on_c, 0, 76, 81
2, 17655, Pitch_bend_c, 0, 8192
2, 17670, Pitch_bend_c, 0, 16383
2, 17685, Pitch_bend_c, 0, 8192
2, 17700, Pitch_bend_c, 0, 16383
2, 17715, Pitch_bend_c, 0, 8192
2, 17730, Pitch_bend_c, 0, 16383
2, 17745, Pitch_bend_c, 0, 8192
2, 17760, Pitch_bend_c, 0, 16383
2, 17775, Pitch_bend_c, 0, 8192
2, 17790, Pitch_bend_c, 0, 16383
2, 17805, Pitch_bend_c, 0, 8192
2, 17820, Note_on_c, 0, 76, 0
2, 17820, Note_on_c, 0, 75, 81
2, 18000, Note_on_c, 0, 75, 0
2, 18000, Note_on_c, 0, 80, 81
2, 18180, Note_on_c, 0, 80, 0
2, 18180, Note_on_c, 0, 81, 81
2, 18360, Note_on_c, 0, 81, 0
2, 18360, Note_on_c, 0, 78, 81
2, 18540, Note_on_c, 0, 78, 0
2, 18540, Note_on_c, 0, 80, 81
2, 18720, Note_on_c, 0, 80, 0
2, 18720, Note_on_c, 0, 76, 81
2, 18900, Note_on_c, 0, 76, 0
2, 18900, Note_on_c, 0, 78, 81
2, 19080, Note_on_c, 0, 78, 0
2, 19080, Note_on_c, 0, 75, 81
2, 19440, Note_on_c, 0, 75, 0
2, 19440, Note_on_c, 0, 80, 47
2, 19620, Note_on_c, 0, 81, 47
2, 19625, Note_on_c, 0, 80, 0
2, 19800, Note_on_c, 0, 81, 0
2, 19800, Note_on_c, 0, 78, 47
2, 19980, Note_on_c, 0, 80, 47
2, 19985, Note_on_c, 0, 78, 0
2, 20160, Note_on_c, 0, 80, 0
2, 20160, Note_on_c, 0, 76, 47
2, 20340, Note_on_c, 0, 78, 47
2, 20345, Note_on_c, 0, 76, 0
2, 20520, Note_on_c, 0, 78, 0
2, 20520, Note_on_c, 0, 75, 47
2, 20880, Note_on_c, 0, 75, 0
2, 20880, Note_on_c, 0, 80, 81
2, 20940, Note_on_c, 0, 81, 81
2, 20945, Note_on_c, 0, 80, 0
2, 21000, Note_on_c, 0, 83, 81
2, 21005, Note_on_c, 0, 81, 0
2, 21060, Note_on_c, 0, 83, 0
2, 21060, Note_on_c, 0, 83, 81
2, 21120, Note_on_c, 0, 81, 81
2, 21125, Note_on_c, 0, 83, 0
2, 21180, Note_on_c, 0, 80, 81
2, 21185, Note_on_c, 0, 81, 0
2, 21240, Note_on_c, 0, 80, 0
2, 21240, Note_on_c, 0, 81, 81
2, 21600, Note_on_c, 0, 81, 0
2, 21600, Note_on_c, 0, 78, 81
2, 21660, Note_on_c, 0, 80, 81
2, 21665, Note_on_c, 0, 78, 0
2, 21720, Note_on_c, 0, 81, 81
2, 21725, Note_on_c, 0, 80, 0
2, 21780, Note_on_c, 0, 81, 0
2, 21780, Note_on_c, 0, 81, 81
2, 21840, Note_on_c, 0, 80, 81
2, 21845, Note_on_c, 0, 81, 0
2, 21900, Note_on_c, 0, 78, 81
2, 21905, Note_on_c, 0, 80, 0
2, 21960, Note_on_c, 0, 78, 0
2, 21960, Note_on_c, 0, 80, 81
2, 22320, Note_on_c, 0, 80, 0
2, 22320, Note_on_c, 0, 83, 81
2, 22500, Note_on_c, 0, 81, 81
2, 22505, Note_on_c, 0, 83, 0
2, 22680, Note_on_c, 0, 81, 0
2, 22680, Note_on_c, 0, 80, 81
2, 22740, Note_on_c, 0, 80, 0
2, 22740, Note_on_c, 0, 78, 81
2, 22800, Note_on_c, 0, 78, 0
2, 22800, Note_on_c, 0, 76, 81
2, 22980, Note_on_c, 0, 76, 0
2, 22980, Note_on_c, 0, 80, 81
2, 23035, Note_on_c, 0, 80, 0
2, 23040, Note_on_c, 0, 83, 81
2, 23220, Note_on_c, 0, 81, 81
2, 23225, Note_on_c, 0, 83, 0
2, 23400, Note_on_c, 0, 80, 81
2, 23405, Note_on_c, 0, 81, 0
2, 23460, Note_on_c, 0, 78, 81
2, 23465, Note_on_c, 0, 80, 0
2, 23520, Note_on_c, 0, 76, 81
2, 23525, Note_on_c, 0, 78, 0
2, 23700, Note_on_c, 0, 80, 81
2, 23705, Note_on_c, 0, 76, 0
2, 23755, Note_on_c, 0, 80, 0
2, 23760, Note_on_c, 0, 85, 81
2, 23820, Note_on_c, 0, 83, 81
2, 23825, Note_on_c, 0, 85, 0
2, 23880, Note_on_c, 0, 82, 81
2, 23885, Note_on_c, 0, 83, 0
2, 23940, Note_on_c, 0, 82, 0
2, 23940, Note_on_c, 0, 85, 81
2, 24000, Note_on_c, 0, 83, 81
2, 24005, Note_on_c, 0, 85, 0
2, 24060, Note_on_c, 0, 82, 81
2, 24065, Note_on_c, 0, 83, 0
2, 24120, Note_on_c, 0, 82, 0
2, 24120, Note_on_c, 0, 83, 81
2, 24660, Note_on_c, 0, 83, 0
2, 24660, Note_on_c, 0, 82, 81
2, 24840, Note_on_c, 0, 82, 0
2, 24840, Note_on_c, 0, 83, 81
2, 24900, Note_on_c, 0, 83, 0
2, 24900, Note_on_c, 0, 87, 81
2, 24930, Note_on_c, 0, 85, 81
2, 24935, Note_on_c, 0, 87, 0
2, 24960, Note_on_c, 0, 83, 81
2, 24965, Note_on_c, 0, 85, 0
2, 25020, Note_on_c, 0, 83, 0
2, 25020, Note_on_c, 0, 78, 81
2, 25072, Note_on_c, 0, 78, 0
2, 25080, Note_on_c, 0, 83, 81
2, 25132, Note_on_c, 0, 83, 0
2, 25140, Note_on_c, 0, 78, 81
2, 25192, Note_on_c, 0, 78, 0
2, 25200, Note_on_c, 0, 75, 81
2, 25260, Note_on_c, 0, 75, 0
2, 25260, Note_on_c, 0, 87, 81
2, 25290, Note_on_c, 0, 85, 81
2, 25295, Note_on_c, 0, 87, 0
2, 25320, Note_on_c, 0, 83, 81
2, 25325, Note_on_c, 0, 85, 0
2, 25380, Note_on_c, 0, 83, 0
2, 25380, Note_on_c, 0, 78, 81
2, 25432, Note_on_c, 0, 78, 0
2, 25440, Note_on_c, 0, 83, 81
2, 25492, Note_on_c, 0, 83, 0
2, 25500, Note_on_c, 0, 78, 81
2, 25552, Note_on_c, 0, 78, 0
2, 25560, Note_on_c, 0, 75, 81
2, 25620, Note_on_c, 0, 78, 81
2, 25624, Note_on_c, 0, 75, 0
2, 25650, Note_on_c, 0, 76, 81
2, 25655, Note_on_c, 0, 78, 0
2, 25680, Note_on_c, 0, 75, 81
2, 25685, Note_on_c, 0, 76, 0
2, 25740, Note_on_c, 0, 75, 0
2, 25740, Note_on_c, 0, 71, 81
2, 25792, Note_on_c, 0, 71, 0
2, 25800, Note_on_c, 0, 75, 81
2, 25852, Note_on_c, 0, 75, 0
2, 25860, Note_on_c, 0, 78, 81
2, 25912, Note_on_c, 0, 78, 0
2, 25920, Note_on_c, 0, 83, 81
2, 25980, Note_on_c, 0, 83, 0
2, 25980, Note_on_c, 0, 71, 81
2, 26010, Note_on_c, 0, 73, 81
2, 26015, Note_on_c, 0, 71, 0
2, 26040, Note_on_c, 0, 75, 81
2, 26045, Note_on_c, 0, 73, 0
2, 26070, Note_on_c, 0, 76, 81
2, 26075, Note_on_c, 0, 75, 0
2, 26100, Note_on_c, 0, 78, 81
2, 26105, Note_on_c, 0, 76, 0
2, 26152, Note_on_c, 0, 78, 0
2, 26160, Note_on_c, 0, 80, 81
2, 26212, Note_on_c, 0, 80, 0
2, 26220, Note_on_c, 0, 81, 81
2, 26272, Note_on_c, 0, 81, 0
2, 26280, Note_on_c, 0, 71, 81
2, 26280, Note_on_c, 0, 81, 81
2, 26340, Note_on_c, 0, 80, 81
2, 26345, Note_on_c, 0, 81, 0
2, 26400, Note_on_c, 0, 78, 81
2, 26405, Note_on_c, 0, 80, 0
2, 26460, Note_on_c, 0, 78, 0
2, 26460, Note_on_c, 0, 81, 81
2, 26520, Note_on_c, 0, 80, 81
2, 26525, Note_on_c, 0, 81, 0
2, 26580, Note_on_c, 0, 78, 81
2, 26585, Note_on_c, 0, 80, 0
2, 26640, Note_on_c, 0, 78, 0
2, 26640, Note_on_c, 0, 71, 0
2, 26640, Note_on_c, 0, 80, 81
2, 26640, Note_on_c, 0, 71, 81
2, 26700, Note_on_c, 0, 80, 0
2, 26700, Note_on_c, 0, 64, 81
2, 26730, Note_on_c, 0, 66, 81
2, 26735, Note_on_c, 0, 64, 0
2, 26760, Note_on_c, 0, 71, 0
2, 26760, Note_on_c, 0, 68, 81
2, 26765, Note_on_c, 0, 66, 0
2, 26790, Note_on_c, 0, 69, 81
2, 26795, Note_on_c, 0, 68, 0
2, 26820, Note_on_c, 0, 71, 81
2, 26825, Note_on_c, 0, 69, 0
2, 26880, Note_on_c, 0, 73, 81
2, 26885, Note_on_c, 0, 71, 0
2, 26940, Note_on_c, 0, 74, 81
2, 26945, Note_on_c, 0, 73, 0
2, 27000, Note_on_c, 0, 74, 0
2, 27000, Note_on_c, 0, 74, 81
2, 27000, Note_on_c, 0, 64, 81
2, 27060, Note_on_c, 0, 73, 81
2, 27065, Note_on_c, 0, 74, 0
2, 27120, Note_on_c, 0, 71, 81
2, 27125, Note_on_c, 0, 73, 0
2, 27180, Note_on_c, 0, 71, 0
2, 27180, Note_on_c, 0, 74, 81
2, 27240, Note_on_c, 0, 73, 81
2, 27245, Note_on_c, 0, 74, 0
2, 27300, Note_on_c, 0, 71, 81
2, 27305, Note_on_c, 0, 73, 0
2, 27360, Note_on_c, 0, 71, 0
2, 27360, Note_on_c, 0, 64, 0
2, 27360, Note_on_c, 0, 73, 81
2, 27360, Note_on_c, 0, 64, 81
2, 27420, Note_on_c, 0, 73, 0
2, 27420, Note_on_c, 0, 69, 81
2, 27450, Note_on_c, 0, 71, 81
2, 27455, Note_on_c, 0, 69, 0
2, 27480, Note_on_c, 0, 64, 0
2, 27480, Note_on_c, 0, 73, 81
2, 27485, Note_on_c, 0, 71, 0
2, 27510, Note_on_c, 0, 74, 81
2, 27515, Note_on_c, 0, 73, 0
2, 27540, Note_on_c, 0, 76, 81
2, 27545, Note_on_c, 0, 74, 0
2, 27600, Note_on_c, 0, 78, 81
2, 27605, Note_on_c, 0, 76, 0
2, 27660, Note_on_c, 0, 79, 81
2, 27665, Note_on_c, 0, 78, 0
2, 27720, Note_on_c, 0, 79, 0
2, 27720, Note_on_c, 0, 79, 81
2, 27720, Note_on_c, 0, 69, 81
2, 27780, Note_on_c, 0, 78, 81
2, 27785, Note_on_c, 0, 79, 0
2, 27840, Note_on_c, 0, 76, 81
2, 27845, Note_on_c, 0, 78, 0
2, 27900, Note_on_c, 0, 76, 0
2, 27900, Note_on_c, 0, 79, 81
2, 27960, Note_on_c, 0, 78, 81
2, 27965, Note_on_c, 0, 79, 0
2, 28020, Note_on_c, 0, 76, 81
2, 28025, Note_on_c, 0, 78, 0
2, 28080, Note_on_c, 0, 76, 0
2, 28080, Note_on_c, 0, 69, 0
2, 28080, Note_on_c, 0, 78, 81
2, 28080, Note_on_c, 0, 69, 81
2, 28140, Note_on_c, 0, 78, 0
2, 28140, Note_on_c, 0, 71, 81
2, 28170, Note_on_c, 0, 73, 81
2, 28175, Note_on_c, 0, 71, 0
2, 28200, Note_on_c, 0, 69, 0
2, 28200, Note_on_c, 0, 74, 81
2, 28205, Note_on_c, 0, 73, 0
2, 28230, Note_on_c, 0, 76, 81
2, 28235, Note_on_c, 0, 74, 0
2, 28260, Note_on_c, 0, 78, 81
2, 28265, Note_on_c, 0, 76, 0
2, 28320, Note_on_c, 0, 80, 81
2, 28325, Note_on_c, 0, 78, 0
2, 28380, Note_on_c, 0, 81, 81
2, 28385, Note_on_c, 0, 80, 0
2, 28440, Note_on_c, 0, 81, 0
2, 28440, Note_on_c, 0, 81, 81
2, 28440, Note_on_c, 0, 71, 81
2, 28500, Note_on_c, 0, 80, 81
2, 28505, Note_on_c, 0, 81, 0
2, 28560, Note_on_c, 0, 78, 81
2, 28565, Note_on_c, 0, 80, 0
2, 28620, Note_on_c, 0, 78, 0
2, 28620, Note_on_c, 0, 81, 81
2, 28680, Note_on_c, 0, 80, 81
2, 28685, Note_on_c, 0, 81, 0
2, 28740, Note_on_c, 0, 78, 81
2, 28745, Note_on_c, 0, 80, 0
2, 28800, Note_on_c, 0, 78, 0
2, 28800, Note_on_c, 0, 71, 0
2, 28800, Note_on_c, 0, 80, 81
2, 28800, Note_on_c, 0, 71, 81
2, 28980, Note_on_c, 0, 71, 0
2, 28980, Note_on_c, 0, 83, 81
2, 28980, Note_on_c, 0, 71, 81
2, 28985, Note_on_c, 0, 80, 0
2, 29160, Note_on_c, 0, 71, 0
2, 29160, Note_on_c, 0, 71, 81
2, 29160, Note_on_c, 0, 81, 81
2, 29165, Note_on_c, 0, 83, 0
2, 29340, Note_on_c, 0, 80, 81
2, 29345, Note_on_c, 0, 81, 0
2, 29520, Note_on_c, 0, 78, 81
2, 29525, Note_on_c, 0, 80, 0
2, 29700, Note_on_c, 0, 83, 81
2, 29705, Note_on_c, 0, 78, 0
2, 29880, Note_on_c, 0, 81, 81
2, 29885, Note_on_c, 0, 83, 0
2, 30060, Note_on_c, 0, 80, 81
2, 30065, Note_on_c, 0, 81, 0
2, 30240, Note_on_c, 0, 78, 81
2, 30245, Note_on_c, 0, 80, 0
2, 30420, Note_on_c, 0, 83, 81
2, 30425, Note_on_c, 0, 78, 0
2, 30600, Note_on_c, 0, 81, 81
2, 30605, Note_on_c, 0, 83, 0
2, 30780, Note_on_c, 0, 80, 81
2, 30785, Note_on_c, 0, 81, 0
2, 30960, Note_on_c, 0, 80, 0
2, 30960, Note_on_c, 0, 80, 81
2, 31020, Note_on_c, 0, 78, 81
2, 31025, Note_on_c, 0, 80, 0
2, 31080, Note_on_c, 0, 76, 81
2, 31085, Note_on_c, 0, 78, 0
2, 31140, Note_on_c, 0, 76, 0
2, 31140, Note_on_c, 0, 71, 0
2, 31140, Note_on_c, 0, 88, 81
2, 31320, Note_on_c, 0, 87, 81
2, 31325, Note_on_c, 0, 88, 0
2, 31500, Note_on_c, 0, 85, 81
2, 31505, Note_on_c, 0, 87, 0
2, 31680, Note_on_c, 0, 85, 0
2, 31680, Note_on_c, 0, 83, 81
2, 31860, Note_on_c, 0, 83, 0
2, 31860, Note_on_c, 0, 76, 81
2, 31860, Note_on_c, 0, 88, 81
2, 32040, Note_on_c, 0, 88, 0
2, 32040, Note_on_c, 0, 87, 81
2, 32220, Note_on_c, 0, 87, 0
2, 32220, Note_on_c, 0, 85, 81
2, 32400, Note_on_c, 0, 85, 0
2, 32400, Note_on_c, 0, 83, 81
2, 32580, Note_on_c, 0, 83, 0
2, 32580, Note_on_c, 0, 76, 0
2, 32580, Note_on_c, 0, 81, 81
2, 32580, Note_on_c, 0, 85, 81
2, 32760, Note_on_c, 0, 81, 0
2, 32760, Note_on_c, 0, 83, 81
2, 32760, Note_on_c, 0, 80, 81
2, 32765, Note_on_c, 0, 85, 0
2, 32940, Note_on_c, 0, 83, 0
2, 32940, Note_on_c, 0, 83, 81
2, 32940, Note_on_c, 0, 78, 81
2, 32945, Note_on_c, 0, 80, 0
2, 33120, Note_on_c, 0, 78, 0
2, 33120, Note_on_c, 0, 83, 0
2, 33120, Note_on_c, 0, 83, 81
2, 33120, Note_on_c, 0, 80, 81
2, 33180, Note_on_c, 0, 80, 0
2, 33180, Note_on_c, 0, 78, 81
2, 33240, Note_on_c, 0, 78, 0
2, 33240, Note_on_c, 0, 76, 81
2, 33300, Note_on_c, 0, 76, 0
2, 33300, Note_on_c, 0, 83, 0
2, 33300, Note_on_c, 0, 88, 81
2, 33300, Note_on_c, 0, 76, 81
2, 33480, Note_on_c, 0, 87, 81
2, 33485, Note_on_c, 0, 88, 0
2, 33660, Note_on_c, 0, 85, 81
2, 33665, Note_on_c, 0, 87, 0
2, 33840, Note_on_c, 0, 85, 0
2, 33840, Note_on_c, 0, 83, 81
2, 34020, Note_on_c, 0, 83, 0
2, 34020, Note_on_c, 0, 76, 0
2, 34020, Note_on_c, 0, 85, 81
2, 34020, Note_on_c, 0, 81, 81
2, 34200, Note_on_c, 0, 81, 0
2, 34200, Note_on_c, 0, 85, 0
2, 34200, Note_on_c, 0, 83, 81
2, 34200, Note_on_c, 0, 80, 81
2, 34380, Note_on_c, 0, 80, 0
2, 34380, Note_on_c, 0, 83, 0
2, 34380, Note_on_c, 0, 83, 81
2, 34380, Note_on_c, 0, 78, 81
2, 34560, Note_on_c, 0, 78, 0
2, 34560, Note_on_c, 0, 83, 0
2, 34560, Note_on_c, 0, 83, 81
2, 34560, Note_on_c, 0, 80, 81
2, 34620, Note_on_c, 0, 80, 0
2, 34620, Note_on_c, 0, 78, 81
2, 34680, Note_on_c, 0, 78, 0
2, 34680, Note_on_c, 0, 76, 81
2, 34740, Note_on_c, 0, 76, 0
2, 34740, Note_on_c, 0, 83, 0
2, 34740, Note_on_c, 0, 83, 81
2, 34740, Note_on_c, 0, 80, 71
2, 34800, Note_on_c, 0, 80, 0
2, 34800, Note_on_c, 0, 78, 61
2, 34860, Note_on_c, 0, 78, 0
2, 34860, Note_on_c, 0, 76, 52
2, 34920, Note_on_c, 0, 76, 0
2, 34920, Note_on_c, 0, 83, 0
2, 34920, Note_on_c, 0, 83, 52
2, 34980, Note_on_c, 0, 83, 0
2, 34980, Note_on_c, 0, 80, 52
2, 35040, Note_on_c, 0, 80, 0
2, 35040, Note_on_c, 0, 83, 52
2, 35100, Note_on_c, 0, 83, 0
2, 35100, Note_on_c, 0, 83, 52
2, 35130, Note_on_c, 0, 85, 52
2, 35135, Note_on_c, 0, 83, 0
2, 35160, Note_on_c, 0, 87, 52
2, 35165, Note_on_c, 0, 85, 0
2, 35220, Note_on_c, 0, 87, 0
2, 35220, Note_on_c, 0, 88, 62
2, 35280, Note_on_c, 0, 88, 0
2, 35280, Note_on_c, 0, 83, 52
2, 35340, Note_on_c, 0, 83, 0
2, 35340, Note_on_c, 0, 80, 52
2, 35400, Note_on_c, 0, 80, 0
2, 35400, Note_on_c, 0, 83, 52
2, 35460, Note_on_c, 0, 83, 0
2, 35460, Note_on_c, 0, 83, 52
2, 35490, Note_on_c, 0, 85, 52
2, 35495, Note_on_c, 0, 83, 0
2, 35520, Note_on_c, 0, 87, 52
2, 35525, Note_on_c, 0, 85, 0
2, 35579, Note_on_c, 0, 87, 0
2, 35580, Note_on_c, 0, 88, 62
2, 35640, Note_on_c, 0, 88, 0
2, 35640, Note_on_c, 0, 81, 52
2, 35700, Note_on_c, 0, 81, 0
2, 35700, Note_on_c, 0, 78, 52
2, 35760, Note_on_c, 0, 78, 0
2, 35760, Note_on_c, 0, 81, 52
2, 35820, Note_on_c, 0, 81, 0
2, 35820, Note_on_c, 0, 81, 52
2, 35850, Note_on_c, 0, 83, 52
2, 35855, Note_on_c, 0, 81, 0
2, 35880, Note_on_c, 0, 85, 52
2, 35885, Note_on_c, 0, 83, 0
2, 35939, Note_on_c, 0, 85, 0
2, 35940, Note_on_c, 0, 87, 62
2, 36000, Note_on_c, 0, 87, 0
2, 36000, Note_on_c, 0, 81, 52
2, 36060, Note_on_c, 0, 81, 0
2, 36060, Note_on_c, 0, 78, 52
2, 36120, Note_on_c, 0, 78, 0
2, 36120, Note_on_c, 0, 81, 52
2, 36180, Note_on_c, 0, 81, 0
2, 36180, Note_on_c, 0, 81, 52
2, 36210, Note_on_c, 0, 83, 52
2, 36215, Note_on_c, 0, 81, 0
2, 36240, Note_on_c, 0, 85, 52
2, 36245, Note_on_c, 0, 83, 0
2, 36299, Note_on_c, 0, 85, 0
2, 36300, Note_on_c, 0, 87, 62
2, 36360, Note_on_c, 0, 87, 0
2, 36360, Note_on_c, 0, 80, 52
2, 36420, Note_on_c, 0, 80, 0
2, 36420, Note_on_c, 0, 76, 52
2, 36480, Note_on_c, 0, 76, 0
2, 36480, Note_on_c, 0, 80, 52
2, 36540, Note_on_c, 0, 80, 0
2, 36540, Note_on_c, 0, 80, 52
2, 36570, Note_on_c, 0, 81, 52
2, 36575, Note_on_c, 0, 80, 0
2, 36600, Note_on_c, 0, 83, 52
2, 36605, Note_on_c, 0, 81, 0
2, 36659, Note_on_c, 0, 83, 0
2, 36660, Note_on_c, 0, 85, 62
2, 36720, Note_on_c, 0, 85, 0
2, 36720, Note_on_c, 0, 80, 52
2, 36780, Note_on_c, 0, 80, 0
2, 36780, Note_on_c, 0, 76, 52
2, 36840, Note_on_c, 0, 76, 0
2, 36840, Note_on_c, 0, 80, 52
2, 36900, Note_on_c, 0, 80, 0
2, 36900, Note_on_c, 0, 80, 52
2, 36930, Note_on_c, 0, 81, 52
2, 36935, Note_on_c, 0, 80, 0
2, 36960, Note_on_c, 0, 83, 52
2, 36965, Note_on_c, 0, 81, 0
2, 37019, Note_on_c, 0, 83, 0
2, 37020, Note_on_c, 0, 85, 52
2, 37080, Note_on_c, 0, 85, 0
2, 37080, Note_on_c, 0, 78, 52
2, 37140, Note_on_c, 0, 78, 0
2, 37140, Note_on_c, 0, 75, 52
2, 37200, Note_on_c, 0, 75, 0
2, 37200, Note_on_c, 0, 78, 52
2, 37260, Note_on_c, 0, 78, 0
2, 37260, Note_on_c, 0, 78, 52
2, 37290, Note_on_c, 0, 80, 52
2, 37295, Note_on_c, 0, 78, 0
2, 37320, Note_on_c, 0, 81, 52
2, 37325, Note_on_c, 0, 80, 0
2, 37379, Note_on_c, 0, 81, 0
2, 37380, Note_on_c, 0, 83, 52
2, 37440, Note_on_c, 0, 83, 0
2, 37440, Note_on_c, 0, 78, 52
2, 37500, Note_on_c, 0, 78, 0
2, 37500, Note_on_c, 0, 75, 52
2, 37560, Note_on_c, 0, 75, 0
2, 37560, Note_on_c, 0, 78, 52
2, 37620, Note_on_c, 0, 78, 0
2, 37620, Note_on_c, 0, 78, 52
2, 37650, Note_on_c, 0, 80, 52
2, 37655, Note_on_c, 0, 78, 0
2, 37680, Note_on_c, 0, 81, 52
2, 37685, Note_on_c, 0, 80, 0
2, 37739, Note_on_c, 0, 81, 0
2, 37740, Note_on_c, 0, 83, 52
2, 37800, Note_on_c, 0, 83, 0
2, 37800, Note_on_c, 0, 80, 52
2, 37860, Note_on_c, 0, 80, 0
2, 37860, Note_on_c, 0, 76, 52
2, 37920, Note_on_c, 0, 76, 0
2, 37920, Note_on_c, 0, 83, 52
2, 37980, Note_on_c, 0, 83, 0
2, 37980, Note_on_c, 0, 83, 52
2, 38010, Note_on_c, 0, 85, 52
2, 38015, Note_on_c, 0, 83, 0
2, 38040, Note_on_c, 0, 87, 52
2, 38045, Note_on_c, 0, 85, 0
2, 38099, Note_on_c, 0, 87, 0
2, 38100, Note_on_c, 0, 88, 52
2, 38160, Note_on_c, 0, 88, 0
2, 38160, Note_on_c, 0, 83, 52
2, 38220, Note_on_c, 0, 83, 0
2, 38220, Note_on_c, 0, 80, 52
2, 38280, Note_on_c, 0, 80, 0
2, 38280, Note_on_c, 0, 83, 52
2, 38340, Note_on_c, 0, 83, 0
2, 38340, Note_on_c, 0, 83, 52
2, 38370, Note_on_c, 0, 85, 52
2, 38375, Note_on_c, 0, 83, 0
2, 38400, Note_on_c, 0, 87, 52
2, 38405, Note_on_c, 0, 85, 0
2, 38459, Note_on_c, 0, 87, 0
2, 38460, Note_on_c, 0, 88, 52
2, 38520, Note_on_c, 0, 88, 0
2, 38520, Note_on_c, 0, 82, 52
2, 38580, Note_on_c, 0, 82, 0
2, 38580, Note_on_c, 0, 76, 52
2, 38640, Note_on_c, 0, 76, 0
2, 38640, Note_on_c, 0, 82, 52
2, 38700, Note_on_c, 0, 82, 0
2, 38700, Note_on_c, 0, 82, 52
2, 38730, Note_on_c, 0, 83, 52
2, 38735, Note_on_c, 0, 82, 0
2, 38760, Note_on_c, 0, 85, 52
2, 38765, Note_on_c, 0, 83, 0
2, 38819, Note_on_c, 0, 85, 0
2, 38820, Note_on_c, 0, 83, 52
2, 38880, Note_on_c, 0, 83, 0
2, 38880, Note_on_c, 0, 82, 52
2, 38940, Note_on_c, 0, 82, 0
2, 38940, Note_on_c, 0, 76, 52
2, 39000, Note_on_c, 0, 76, 0
2, 39000, Note_on_c, 0, 82, 52
2, 39060, Note_on_c, 0, 82, 0
2, 39060, Note_on_c, 0, 82, 52
2, 39090, Note_on_c, 0, 83, 52
2, 39095, Note_on_c, 0, 82, 0
2, 39120, Note_on_c, 0, 85, 52
2, 39125, Note_on_c, 0, 83, 0
2, 39179, Note_on_c, 0, 85, 0
2, 39180, Note_on_c, 0, 76, 52
2, 39240, Note_on_c, 0, 76, 0
2, 39240, Note_on_c, 0, 75, 52
2, 39300, Note_on_c, 0, 75, 0
2, 39300, Note_on_c, 0, 71, 52
2, 39360, Note_on_c, 0, 71, 0
2, 39360, Note_on_c, 0, 78, 52
2, 39420, Note_on_c, 0, 78, 0
2, 39420, Note_on_c, 0, 78, 52
2, 39450, Note_on_c, 0, 80, 52
2, 39455, Note_on_c, 0, 78, 0
2, 39480, Note_on_c, 0, 82, 52
2, 39485, Note_on_c, 0, 80, 0
2, 39539, Note_on_c, 0, 82, 0
2, 39540, Note_on_c, 0, 83, 52
2, 39600, Note_on_c, 0, 83, 0
2, 39600, Note_on_c, 0, 78, 52
2, 39660, Note_on_c, 0, 78, 0
2, 39660, Note_on_c, 0, 75, 52
2, 39720, Note_on_c, 0, 75, 0
2, 39720, Note_on_c, 0, 78, 52
2, 39780, Note_on_c, 0, 78, 0
2, 39780, Note_on_c, 0, 78, 52
2, 39810, Note_on_c, 0, 80, 52
2, 39815, Note_on_c, 0, 78, 0
2, 39840, Note_on_c, 0, 82, 52
2, 39845, Note_on_c, 0, 80, 0
2, 39899, Note_on_c, 0, 82, 0
2, 39900, Note_on_c, 0, 83, 52
2, 39960, Note_on_c, 0, 83, 0
2, 39960, Note_on_c, 0, 78, 52
2, 40020, Note_on_c, 0, 78, 0
2, 40020, Note_on_c, 0, 73, 52
2, 40080, Note_on_c, 0, 73, 0
2, 40080, Note_on_c, 0, 78, 52
2, 40140, Note_on_c, 0, 78, 0
2, 40140, Note_on_c, 0, 78, 52
2, 40170, Note_on_c, 0, 80, 52
2, 40175, Note_on_c, 0, 78, 0
2, 40200, Note_on_c, 0, 82, 52
2, 40205, Note_on_c, 0, 80, 0
2, 40259, Note_on_c, 0, 82, 0
2, 40260, Note_on_c, 0, 83, 52
2, 40320, Note_on_c, 0, 83, 0
2, 40320, Note_on_c, 0, 78, 52
2, 40380, Note_on_c, 0, 78, 0
2, 40380, Note_on_c, 0, 73, 52
2, 40440, Note_on_c, 0, 73, 0
2, 40440, Note_on_c, 0, 78, 52
2, 40500, Note_on_c, 0, 78, 0
2, 40500, Note_on_c, 0, 78, 52
2, 40530, Note_on_c, 0, 80, 52
2, 40535, Note_on_c, 0, 78, 0
2, 40560, Note_on_c, 0, 82, 52
2, 40565, Note_on_c, 0, 80, 0
2, 40619, Note_on_c, 0, 82, 0
2, 40620, Note_on_c, 0, 83, 52
2, 40680, Note_on_c, 0, 83, 0
2, 40680, Note_on_c, 0, 78, 52
2, 40740, Note_on_c, 0, 78, 0
2, 40740, Note_on_c, 0, 73, 52
2, 40800, Note_on_c, 0, 73, 0
2, 40800, Note_on_c, 0, 78, 52
2, 40860, Note_on_c, 0, 78, 0
2, 40860, Note_on_c, 0, 78, 52
2, 40890, Note_on_c, 0, 80, 52
2, 40895, Note_on_c, 0, 78, 0
2, 40920, Note_on_c, 0, 82, 52
2, 40925, Note_on_c, 0, 80, 0
2, 40979, Note_on_c, 0, 82, 0
2, 40980, Note_on_c, 0, 80, 52
2, 41040, Note_on_c, 0, 80, 0
2, 41040, Note_on_c, 0, 78, 52
2, 41100, Note_on_c, 0, 78, 0
2, 41100, Note_on_c, 0, 73, 52
2, 41160, Note_on_c, 0, 73, 0
2, 41160, Note_on_c, 0, 78, 52
2, 41220, Note_on_c, 0, 78, 0
2, 41220, Note_on_c, 0, 78, 52
2, 41250, Note_on_c, 0, 80, 52
2, 41255, Note_on_c, 0, 78, 0
2, 41280, Note_on_c, 0, 82, 52
2, 41285, Note_on_c, 0, 80, 0
2, 41339, Note_on_c, 0, 82, 0
2, 41340, Note_on_c, 0, 78, 52
2, 41400, Note_on_c, 0, 78, 0
2, 41400, Note_on_c, 0, 83, 52
2, 41460, Note_on_c, 0, 83, 0
2, 41460, Note_on_c, 0, 82, 52
2, 41490, Note_on_c, 0, 80, 52
2, 41495, Note_on_c, 0, 82, 0
2, 41520, Note_on_c, 0, 78, 52
2, 41525, Note_on_c, 0, 80, 0
2, 41550, Note_on_c, 0, 76, 52
2, 41555, Note_on_c, 0, 78, 0
2, 41580, Note_on_c, 0, 76, 0
2, 41580, Note_on_c, 0, 75, 52
2, 41640, Note_on_c, 0, 75, 0
2, 41640, Note_on_c, 0, 78, 52
2, 41700, Note_on_c, 0, 78, 0
2, 41700, Note_on_c, 0, 75, 52
2, 41760, Note_on_c, 0, 75, 0
2, 41760, Note_on_c, 0, 68, 52
2, 41812, Note_on_c, 0, 68, 0
2, 41820, Note_on_c, 0, 66, 52
2, 41872, Note_on_c, 0, 66, 0
2, 41880, Note_on_c, 0, 63, 52
2, 41932, Note_on_c, 0, 63, 0
2, 41940, Note_on_c, 0, 59, 52
2, 42060, Note_on_c, 0, 59, 0
2, 42120, Note_on_c, 0, 80, 81
2, 42210, Note_on_c, 0, 80, 0
2, 42210, Note_on_c, 0, 81, 81
2, 42240, Note_on_c, 0, 81, 0
2, 42240, Note_on_c, 0, 80, 81
2, 42300, Note_on_c, 0, 80, 0
2, 42300, Note_on_c, 0, 80, 81
2, 42420, Note_on_c, 0, 80, 0
2, 42420, Note_on_c, 0, 81, 81
2, 42480, Note_on_c, 0, 81, 0
2, 42480, Note_on_c, 0, 81, 81
2, 42660, Note_on_c, 0, 83, 81
2, 42665, Note_on_c, 0, 81, 0
2, 42780, Note_on_c, 0, 83, 0
2, 42780, Note_on_c, 0, 81, 81
2, 42840, Note_on_c, 0, 81, 0
2, 42840, Note_on_c, 0, 80, 81
2, 42930, Note_on_c, 0, 80, 0
2, 42930, Note_on_c, 0, 81, 81
2, 42960, Note_on_c, 0, 81, 0
2, 42960, Note_on_c, 0, 80, 81
2, 43020, Note_on_c, 0, 80, 0
2, 43020, Note_on_c, 0, 80, 81
2, 43140, Note_on_c, 0, 80, 0
2, 43140, Note_on_c, 0, 81, 81
2, 43200, Note_on_c, 0, 81, 0
2, 43200, Note_on_c, 0, 81, 81
2, 43380, Note_on_c, 0, 83, 81
2, 43385, Note_on_c, 0, 81, 0
2, 43500, Note_on_c, 0, 83, 0
2, 43500, Note_on_c, 0, 81, 81
2, 43560, Note_on_c, 0, 81, 0
2, 43560, Note_on_c, 0, 80, 81
2, 43650, Note_on_c, 0, 80, 0
2, 43650, Note_on_c, 0, 81, 81
2, 43680, Note_on_c, 0, 81, 0
2, 43680, Note_on_c, 0, 83, 81
2, 43740, Note_on_c, 0, 83, 0
2, 43740, Note_on_c, 0, 83, 81
2, 43830, Note_on_c, 0, 83, 0
2, 43830, Note_on_c, 0, 81, 81
2, 43860, Note_on_c, 0, 81, 0
2, 43860, Note_on_c, 0, 80, 81
2, 43918, Note_on_c, 0, 80, 0
2, 43919, Pitch_bend_c, 0, 12288
2, 43920, Note_on_c, 0, 80, 81
2, 43935, Pitch_bend_c, 0, 8192
2, 43950, Pitch_bend_c, 0, 12288
2, 43965, Pitch_bend_c, 0, 8192
2, 43980, Pitch_bend_c, 0, 12288
2, 43995, Pitch_bend_c, 0, 8192
2, 44010, Pitch_bend_c, 0, 12288
2, 44025, Pitch_bend_c, 0, 8192
2, 44040, Pitch_bend_c, 0, 12288
2, 44055, Pitch_bend_c, 0, 8192
2, 44070, Pitch_bend_c, 0, 12288
2, 44085, Pitch_bend_c, 0, 8192
2, 44100, Note_on_c, 0, 80, 0
2, 44100, Note_on_c, 0, 78, 81
2, 44280, Note_on_c, 0, 78, 0
2, 44280, Note_on_c, 0, 79, 81
2, 44370, Note_on_c, 0, 79, 0
2, 44370, Note_on_c, 0, 81, 81
2, 44400, Note_on_c, 0, 81, 0
2, 44400, Note_on_c, 0, 79, 81
2, 44460, Note_on_c, 0, 79, 0
2, 44460, Note_on_c, 0, 79, 81
2, 44580, Note_on_c, 0, 79, 0
2, 44580, Note_on_c, 0, 81, 81
2, 44639, Note_on_c, 0, 81, 0
2, 44640, Note_on_c, 0, 79, 81
2, 44820, Note_on_c, 0, 78, 81
2, 44825, Note_on_c, 0, 79, 0
2, 45000, Note_on_c, 0, 78, 0
2, 45000, Note_on_c, 0, 78, 81
2, 45090, Note_on_c, 0, 78, 0
2, 45090, Note_on_c, 0, 79, 81
2, 45120, Note_on_c, 0, 79, 0
2, 45120, Note_on_c, 0, 78, 81
2, 45180, Note_on_c, 0, 78, 0
2, 45180, Note_on_c, 0, 78, 81
2, 45300, Note_on_c, 0, 78, 0
2, 45300, Note_on_c, 0, 79, 81
2, 45360, Note_on_c, 0, 79, 0
2, 45360, Note_on_c, 0, 78, 81
2, 45540, Note_on_c, 0, 76, 81
2, 45545, Note_on_c, 0, 78, 0
2, 45720, Note_on_c, 0, 76, 0
2, 45720, Note_on_c, 0, 76, 81
2, 45810, Note_on_c, 0, 76, 0
2, 45810, Note_on_c, 0, 78, 81
2, 45840, Note_on_c, 0, 78, 0
2, 45840, Note_on_c, 0, 76, 81
2, 45900, Note_on_c, 0, 76, 0
2, 45900, Note_on_c, 0, 76, 81
2, 46020, Note_on_c, 0, 76, 0
2, 46020, Note_on_c, 0, 78, 81
2, 46080, Note_on_c, 0, 78, 0
2, 46080, Note_on_c, 0, 76, 81
2, 46260, Note_on_c, 0, 75, 81
2, 46265, Note_on_c, 0, 76, 0
2, 46440, Note_on_c, 0, 75, 0
2, 46440, Note_on_c, 0, 80, 81
2, 46800, Note_on_c, 0, 80, 0
2, 46800, Note_on_c, 0, 81, 81
2, 47160, Note_on_c, 0, 81, 0
2, 47160, Note_on_c, 0, 78, 81
2, 47520, Note_on_c, 0, 78, 0
2, 47520, Note_on_c, 0, 79, 81
2, 47880, Note_on_c, 0, 79, 0
2, 47880, Note_on_c, 0, 76, 81
2, 48240, Note_on_c, 0, 76, 0
2, 48240, Note_on_c, 0, 77, 81
2, 48420, Note_on_c, 0, 77, 0
2, 48420, Note_on_c, 0, 80, 81
2, 48600, Note_on_c, 0, 80, 0
2, 48600, Note_on_c, 0, 81, 81
2, 48960, Note_on_c, 0, 81, 0
2, 48960, Note_on_c, 0, 79, 81
2, 49020, Note_on_c, 0, 79, 0
2, 49020, Note_on_c, 0, 78, 81
2, 49080, Note_on_c, 0, 76, 81
2, 49085, Note_on_c, 0, 78, 0
2, 49140, Note_on_c, 0, 76, 0
2, 49140, Note_on_c, 0, 83, 81
2, 49320, Note_on_c, 0, 83, 0
2, 49320, Note_on_c, 0, 78, 81
2, 49380, Note_on_c, 0, 79, 81
2, 49385, Note_on_c, 0, 78, 0
2, 49440, Note_on_c, 0, 81, 81
2, 49445, Note_on_c, 0, 79, 0
2, 49500, Note_on_c, 0, 81, 0
2, 49500, Note_on_c, 0, 83, 81
2, 49680, Note_on_c, 0, 83, 0
2, 49680, Note_on_c, 0, 76, 81
2, 49740, Note_on_c, 0, 78, 81
2, 49745, Note_on_c, 0, 76, 0
2, 49800, Note_on_c, 0, 78, 0
2, 49800, Note_on_c, 0, 79, 81
2, 49860, Note_on_c, 0, 79, 0
2, 49860, Note_on_c, 0, 81, 81
2, 50040, Note_on_c, 0, 81, 0
2, 50040, Note_on_c, 0, 75, 81
2, 50100, Note_on_c, 0, 72, 81
2, 50105, Note_on_c, 0, 75, 0
2, 50160, Note_on_c, 0, 71, 81
2, 50165, Note_on_c, 0, 72, 0
2, 50220, Note_on_c, 0, 71, 0
2, 50220, Note_on_c, 0, 81, 81
2, 50400, Note_on_c, 0, 81, 0
2, 50400, Note_on_c, 0, 79, 81
2, 50460, Note_on_c, 0, 79, 0
2, 50460, Note_on_c, 0, 78, 81
2, 50520, Note_on_c, 0, 76, 81
2, 50525, Note_on_c, 0, 78, 0
2, 50580, Note_on_c, 0, 76, 0
2, 50580, Note_on_c, 0, 84, 81
2, 50940, Note_on_c, 0, 84, 0
2, 50940, Note_on_c, 0, 83, 81
2, 51300, Note_on_c, 0, 83, 0
2, 51300, Note_on_c, 0, 81, 81
2, 51660, Note_on_c, 0, 81, 0
2, 51660, Note_on_c, 0, 71, 81
2, 51720, Note_on_c, 0, 72, 81
2, 51725, Note_on_c, 0, 71, 0
2, 51780, Note_on_c, 0, 73, 81
2, 51785, Note_on_c, 0, 72, 0
2, 51840, Note_on_c, 0, 73, 0
2, 51840, Note_on_c, 0, 74, 81
2, 51900, Note_on_c, 0, 75, 81
2, 51905, Note_on_c, 0, 74, 0
2, 51960, Note_on_c, 0, 76, 81
2, 51965, Note_on_c, 0, 75, 0
2, 52020, Note_on_c, 0, 78, 81
2, 52025, Note_on_c, 0, 76, 0
2, 52080, Note_on_c, 0, 79, 81
2, 52085, Note_on_c, 0, 78, 0
2, 52140, Note_on_c, 0, 81, 81
2, 52145, Note_on_c, 0, 79, 0
2, 52200, Note_on_c, 0, 81, 0
2, 52200, Note_on_c, 0, 71, 81
2, 52380, Note_on_c, 0, 71, 0
2, 52380, Note_on_c, 0, 71, 81
2, 52440, Note_on_c, 0, 72, 81
2, 52445, Note_on_c, 0, 71, 0
2, 52500, Note_on_c, 0, 73, 81
2, 52505, Note_on_c, 0, 72, 0
2, 52560, Note_on_c, 0, 73, 0
2, 52560, Note_on_c, 0, 74, 81
2, 52620, Note_on_c, 0, 75, 81
2, 52625, Note_on_c, 0, 74, 0
2, 52680, Note_on_c, 0, 76, 81
2, 52685, Note_on_c, 0, 75, 0
2, 52740, Note_on_c, 0, 76, 0
2, 52740, Note_on_c, 0, 78, 81
2, 52800, Note_on_c, 0, 79, 81
2, 52805, Note_on_c, 0, 78, 0
2, 52860, Note_on_c, 0, 81, 81
2, 52865, Note_on_c, 0, 79, 0
2, 52920, Note_on_c, 0, 81, 0
2, 52920, Note_on_c, 0, 71, 81
2, 53100, Note_on_c, 0, 71, 0
2, 53100, Note_on_c, 0, 83, 81
2, 53160, Note_on_c, 0, 81, 81
2, 53165, Note_on_c, 0, 83, 0
2, 53220, Note_on_c, 0, 79, 81
2, 53225, Note_on_c, 0, 81, 0
2, 53280, Note_on_c, 0, 79, 0
2, 53280, Note_on_c, 0, 77, 81
2, 53460, Note_on_c, 0, 81, 81
2, 53465, Note_on_c, 0, 77, 0
2, 53520, Note_on_c, 0, 79, 81
2, 53525, Note_on_c, 0, 81, 0
2, 53580, Note_on_c, 0, 77, 81
2, 53585, Note_on_c, 0, 79, 0
2, 53640, Note_on_c, 0, 77, 0
2, 53640, Note_on_c, 0, 76, 81
2, 53820, Note_on_c, 0, 76, 0
2, 53820, Note_on_c, 0, 79, 81
2, 53880, Note_on_c, 0, 79, 0
2, 53880, Note_on_c, 0, 77, 81
2, 53940, Note_on_c, 0, 77, 0
2, 53940, Note_on_c, 0, 76, 81
2, 54000, Note_on_c, 0, 76, 0
2, 54000, Note_on_c, 0, 87, 81
2, 54180, Note_on_c, 0, 87, 0
2, 54180, Note_on_c, 0, 88, 81
2, 54240, Note_on_c, 0, 88, 0
2, 54240, Note_on_c, 0, 87, 81
2, 54300, Note_on_c, 0, 87, 0
2, 54300, Note_on_c, 0, 84, 81
2, 54360, Note_on_c, 0, 84, 0
2, 54360, Note_on_c, 0, 83, 81
2, 54540, Note_on_c, 0, 82, 81
2, 54545, Note_on_c, 0, 83, 0
2, 54720, Note_on_c, 0, 82, 0
2, 54720, Note_on_c, 0, 71, 81
2, 54780, Note_on_c, 0, 83, 81
2, 54785, Note_on_c, 0, 71, 0
2, 54840, Note_on_c, 0, 81, 81
2, 54845, Note_on_c, 0, 83, 0
2, 54900, Note_on_c, 0, 81, 0
2, 54900, Note_on_c, 0, 71, 81
2, 54960, Note_on_c, 0, 81, 81
2, 54965, Note_on_c, 0, 71, 0
2, 55020, Note_on_c, 0, 79, 81
2, 55025, Note_on_c, 0, 81, 0
2, 55080, Note_on_c, 0, 79, 0
2, 55080, Note_on_c, 0, 71, 81
2, 55140, Note_on_c, 0, 79, 81
2, 55145, Note_on_c, 0, 71, 0
2, 55200, Note_on_c, 0, 78, 81
2, 55205, Note_on_c, 0, 79, 0
2, 55260, Note_on_c, 0, 78, 0
2, 55260, Note_on_c, 0, 71, 81
2, 55320, Note_on_c, 0, 78, 81
2, 55325, Note_on_c, 0, 71, 0
2, 55380, Note_on_c, 0, 76, 81
2, 55385, Note_on_c, 0, 78, 0
2, 55440, Note_on_c, 0, 76, 0
2, 55440, Note_on_c, 0, 71, 81
2, 55500, Note_on_c, 0, 83, 81
2, 55505, Note_on_c, 0, 71, 0
2, 55560, Note_on_c, 0, 81, 81
2, 55565, Note_on_c, 0, 83, 0
2, 55620, Note_on_c, 0, 81, 0
2, 55620, Note_on_c, 0, 71, 81
2, 55680, Note_on_c, 0, 81, 81
2, 55685, Note_on_c, 0, 71, 0
2, 55740, Note_on_c, 0, 79, 81
2, 55745, Note_on_c, 0, 81, 0
2, 55800, Note_on_c, 0, 79, 0
2, 55800, Note_on_c, 0, 71, 81
2, 55860, Note_on_c, 0, 79, 81
2, 55865, Note_on_c, 0, 71, 0
2, 55920, Note_on_c, 0, 78, 81
2, 55925, Note_on_c, 0, 79, 0
2, 55980, Note_on_c, 0, 78, 0
2, 55980, Note_on_c, 0, 71, 81
2, 56040, Note_on_c, 0, 78, 81
2, 56045, Note_on_c, 0, 71, 0
2, 56100, Note_on_c, 0, 76, 81
2, 56105, Note_on_c, 0, 78, 0
2, 56160, Note_on_c, 0, 76, 0
2, 56160, Note_on_c, 0, 71, 81
2, 56190, Note_on_c, 0, 69, 81
2, 56195, Note_on_c, 0, 71, 0
2, 56220, Note_on_c, 0, 71, 81
2, 56225, Note_on_c, 0, 69, 0
2, 56280, Note_on_c, 0, 72, 81
2, 56285, Note_on_c, 0, 71, 0
2, 56340, Note_on_c, 0, 72, 0
2, 56340, Note_on_c, 0, 74, 81
2, 56370, Note_on_c, 0, 72, 81
2, 56375, Note_on_c, 0, 74, 0
2, 56400, Note_on_c, 0, 74, 81
2, 56405, Note_on_c, 0, 72, 0
2, 56460, Note_on_c, 0, 76, 81
2, 56465, Note_on_c, 0, 74, 0
2, 56520, Note_on_c, 0, 76, 0
2, 56520, Note_on_c, 0, 78, 81
2, 56550, Note_on_c, 0, 76, 81
2, 56555, Note_on_c, 0, 78, 0
2, 56580, Note_on_c, 0, 78, 81
2, 56585, Note_on_c, 0, 76, 0
2, 56640, Note_on_c, 0, 79, 81
2, 56645, Note_on_c, 0, 78, 0
2, 56700, Note_on_c, 0, 79, 0
2, 56700, Note_on_c, 0, 81, 81
2, 56730, Note_on_c, 0, 79, 81
2, 56735, Note_on_c, 0, 81, 0
2, 56760, Note_on_c, 0, 81, 81
2, 56765, Note_on_c, 0, 79, 0
2, 56820, Note_on_c, 0, 78, 81
2, 56825, Note_on_c, 0, 81, 0
2, 56880, Note_on_c, 0, 78, 0
2, 56880, Note_on_c, 0, 79, 81
2, 56940, Note_on_c, 0, 79, 0
2, 56940, Note_on_c, 0, 78, 81
2, 57000, Note_on_c, 0, 78, 0
2, 57000, Note_on_c, 0, 76, 81
2, 57058, Note_on_c, 0, 76, 0
2, 57059, Pitch_bend_c, 0, 12288
2, 57060, Note_on_c, 0, 78, 81
2, 57075, Pitch_bend_c, 0, 8192
2, 57090, Pitch_bend_c, 0, 12288
2, 57105, Pitch_bend_c, 0, 8192
2, 57120, Pitch_bend_c, 0, 12288
2, 57135, Pitch_bend_c, 0, 8192
2, 57150, Pitch_bend_c, 0, 12288
2, 57165, Pitch_bend_c, 0, 8192
2, 57180, Pitch_bend_c, 0, 12288
2, 57195, Pitch_bend_c, 0, 8192
2, 57210, Pitch_bend_c, 0, 12288
2, 57225, Pitch_bend_c, 0, 8192
2, 57240, Note_on_c, 0, 78, 0
2, 57240, Note_on_c, 0, 80, 81
2, 57330, Note_on_c, 0, 80, 0
2, 57330, Note_on_c, 0, 81, 81
2, 57360, Note_on_c, 0, 81, 0
2, 57360, Note_on_c, 0, 80, 81
2, 57420, Note_on_c, 0, 80, 0
2, 57420, Note_on_c, 0, 80, 81
2, 57540, Note_on_c, 0, 80, 0
2, 57540, Note_on_c, 0, 81, 81
2, 57600, Note_on_c, 0, 81, 0
2, 57600, Note_on_c, 0, 81, 81
2, 57780, Note_on_c, 0, 83, 81
2, 57785, Note_on_c, 0, 81, 0
2, 57900, Note_on_c, 0, 83, 0
2, 57900, Note_on_c, 0, 81, 81
2, 57960, Note_on_c, 0, 81, 0
2, 57960, Note_on_c, 0, 80, 81
2, 58050, Note_on_c, 0, 80, 0
2, 58050, Note_on_c, 0, 81, 81
2, 58080, Note_on_c, 0, 81, 0
2, 58080, Note_on_c, 0, 80, 81
2, 58140, Note_on_c, 0, 80, 0
2, 58140, Note_on_c, 0, 80, 81
2, 58260, Note_on_c, 0, 80, 0
2, 58260, Note_on_c, 0, 81, 81
2, 58320, Note_on_c, 0, 81, 0
2, 58320, Note_on_c, 0, 81, 81
2, 58500, Note_on_c, 0, 83, 81
2, 58505, Note_on_c, 0, 81, 0
2, 58620, Note_on_c, 0, 83, 0
2, 58620, Note_on_c, 0, 81, 81
2, 58680, Note_on_c, 0, 81, 0
2, 58680, Note_on_c, 0, 80, 81
2, 58770, Note_on_c, 0, 80, 0
2, 58770, Note_on_c, 0, 81, 81
2, 58800, Note_on_c, 0, 81, 0
2, 58800, Note_on_c, 0, 83, 81
2, 58860, Note_on_c, 0, 83, 0
2, 58860, Note_on_c, 0, 83, 81
2, 58950, Note_on_c, 0, 83, 0
2, 58950, Note_on_c, 0, 81, 81
2, 58980, Note_on_c, 0, 81, 0
2, 58980, Note_on_c, 0, 80, 81
2, 59040, Note_on_c, 0, 80, 0
2, 59040, Note_on_c, 0, 78, 81
2, 59130, Note_on_c, 0, 78, 0
2, 59130, Note_on_c, 0, 76, 81
2, 59160, Note_on_c, 0, 76, 0
2, 59160, Note_on_c, 0, 75, 81
2, 59220, Note_on_c, 0, 75, 0
2, 59220, Note_on_c, 0, 75, 81
2, 59310, Note_on_c, 0, 75, 0
2, 59310, Note_on_c, 0, 76, 81
2, 59340, Note_on_c, 0, 76, 0
2, 59340, Note_on_c, 0, 78, 81
2, 59400, Note_on_c, 0, 78, 0
2, 59400, Note_on_c, 0, 78, 81
2, 59490, Note_on_c, 0, 78, 0
2, 59490, Note_on_c, 0, 80, 81
2, 59520, Note_on_c, 0, 80, 0
2, 59520, Note_on_c, 0, 81, 81
2, 59580, Note_on_c, 0, 81, 0
2, 59580, Note_on_c, 0, 81, 81
2, 59670, Note_on_c, 0, 81, 0
2, 59670, Note_on_c, 0, 80, 81
2, 59700, Note_on_c, 0, 80, 0
2, 59700, Note_on_c, 0, 78, 81
2, 59760, Note_on_c, 0, 78, 0
2, 59760, Note_on_c, 0, 78, 81
2, 59850, Note_on_c, 0, 78, 0
2, 59850, Note_on_c, 0, 76, 81
2, 59880, Note_on_c, 0, 76, 0
2, 59880, Note_on_c, 0, 75, 81
2, 59940, Note_on_c, 0, 75, 0
2, 59940, Note_on_c, 0, 75, 81
2, 60030, Note_on_c, 0, 75, 0
2, 60030, Note_on_c, 0, 76, 81
2, 60060, Note_on_c, 0, 76, 0
2, 60060, Note_on_c, 0, 78, 81
2, 60120, Note_on_c, 0, 78, 0
2, 60120, Note_on_c, 0, 78, 81
2, 60210, Note_on_c, 0, 78, 0
2, 60210, Note_on_c, 0, 80, 81
2, 60240, Note_on_c, 0, 80, 0
2, 60240, Note_on_c, 0, 81, 81
2, 60300, Note_on_c, 0, 81, 0
2, 60300, Note_on_c, 0, 81, 81
2, 60390, Note_on_c, 0, 81, 0
2, 60390, Note_on_c, 0, 80, 81
2, 60420, Note_on_c, 0, 80, 0
2, 60420, Note_on_c, 0, 78, 81
2, 60480, Note_on_c, 0, 78, 0
2, 60480, Note_on_c, 0, 80, 81
2, 60660, Note_on_c, 0, 80, 0
2, 60660, Note_on_c, 0, 85, 81
2, 60840, Note_on_c, 0, 83, 81
2, 60845, Note_on_c, 0, 85, 0
2, 61020, Note_on_c, 0, 81, 81
2, 61025, Note_on_c, 0, 83, 0
2, 61200, Note_on_c, 0, 81, 0
2, 61200, Note_on_c, 0, 80, 81
2, 61290, Note_on_c, 0, 80, 0
2, 61290, Note_on_c, 0, 81, 81
2, 61320, Note_on_c, 0, 81, 0
2, 61320, Note_on_c, 0, 80, 81
2, 61380, Note_on_c, 0, 80, 0
2, 61380, Note_on_c, 0, 85, 81
2, 61560, Note_on_c, 0, 83, 81
2, 61565, Note_on_c, 0, 85, 0
2, 61740, Note_on_c, 0, 81, 81
2, 61745, Note_on_c, 0, 83, 0
2, 61920, Note_on_c, 0, 81, 0
2, 61920, Note_on_c, 0, 80, 81
2, 62010, Note_on_c, 0, 80, 0
2, 62010, Note_on_c, 0, 78, 81
2, 62040, Note_on_c, 0, 78, 0
2, 62040, Note_on_c, 0, 76, 81
2, 62098, Note_on_c, 0, 76, 0
2, 62099, Pitch_bend_c, 0, 16383
2, 62100, Note_on_c, 0, 78, 81
2, 62115, Pitch_bend_c, 0, 8192
2, 62130, Pitch_bend_c, 0, 16383
2, 62145, Pitch_bend_c, 0, 8192
2, 62160, Pitch_bend_c, 0, 16383
2, 62175, Pitch_bend_c, 0, 8192
2, 62190, Pitch_bend_c, 0, 16383
2, 62205, Pitch_bend_c, 0, 8192
2, 62220, Pitch_bend_c, 0, 16383
2, 62235, Pitch_bend_c, 0, 8192
2, 62250, Pitch_bend_c, 0, 16383
2, 62265, Pitch_bend_c, 0, 8192
2, 62280, Note_on_c, 0, 78, 0
2, 62280, Note_on_c, 0, 76, 61
2, 62460, Note_on_c, 0, 76, 0
2, 62460, Note_on_c, 0, 85, 47
2, 62640, Note_on_c, 0, 83, 47
2, 62645, Note_on_c, 0, 85, 0
2, 62820, Note_on_c, 0, 81, 47
2, 62825, Note_on_c, 0, 83, 0
2, 63000, Note_on_c, 0, 81, 0
2, 63000, Note_on_c, 0, 80, 47
2, 63090, Note_on_c, 0, 80, 0
2, 63090, Note_on_c, 0, 81, 47
2, 63120, Note_on_c, 0, 81, 0
2, 63120, Note_on_c, 0, 80, 47
2, 63180, Note_on_c, 0, 80, 0
2, 63180, Note_on_c, 0, 85, 47
2, 63360, Note_on_c, 0, 83, 47
2, 63365, Note_on_c, 0, 85, 0
2, 63540, Note_on_c, 0, 81, 47
2, 63545, Note_on_c, 0, 83, 0
2, 63720, Note_on_c, 0, 81, 0
2, 63720, Note_on_c, 0, 80, 47
2, 63810, Note_on_c, 0, 80, 0
2, 63810, Note_on_c, 0, 78, 47
2, 63840, Note_on_c, 0, 78, 0
2, 63840, Note_on_c, 0, 76, 47
2, 63898, Note_on_c, 0, 76, 0
2, 63899, Pitch_bend_c, 0, 16383
2, 63900, Note_on_c, 0, 78, 47
2, 63915, Pitch_bend_c, 0, 8192
2, 63930, Pitch_bend_c, 0, 16383
2, 63945, Pitch_bend_c, 0, 8192
2, 63960, Pitch_bend_c, 0, 16383
2, 63975, Pitch_bend_c, 0, 8192
2, 63990, Pitch_bend_c, 0, 16383
2, 64005, Pitch_bend_c, 0, 8192
2, 64020, Pitch_bend_c, 0, 16383
2, 64035, Pitch_bend_c, 0, 8192
2, 64050, Pitch_bend_c, 0, 16383
2, 64065, Pitch_bend_c, 0, 8192
2, 64080, Note_on_c, 0, 78, 0
2, 64080, Note_on_c, 0, 76, 47
2, 64800, Note_on_c, 0, 76, 0
2, 65160, Control_c, 0, 11, 127
2, 65161, Program_c, 0, 0
2, 65162, Control_c, 0, 7, 100
2, 65163, Control_c, 0, 10, 64
2, 65164, Control_c, 0, 91, 40
2, 65165, Control_c, 0, 93, 0
2, 65166, Control_c, 0, 99, 1
2, 65167, Control_c, 0, 98, 8
2, 65168, Control_c, 0, 6, 64
2, 65169, Control_c, 0, 99, 1
2, 65170, Control_c, 0, 98, 10
2, 65171, Control_c, 0, 6, 64
2, 65172, Control_c, 0, 99, 1
2, 65173, Control_c, 0, 98, 9
2, 65174, Control_c, 0, 6, 64
2, 65175, Pitch_bend_c, 0, 8192
2, 65175, End_track
3, 0, Start_track
3, 0, MIDI_port, 1
3, 0, Title_t, "Violin I"
3, 0, Program_c, 1, 40
3, 0, Control_c, 1, 7, 95
3, 0, Control_c, 1, 10, 111
3, 0, Program_c, 1, 40
3, 0, Control_c, 1, 7, 95
3, 0, Control_c, 1, 10, 111
3, 0, Control_c, 1, 93, 0
3, 0, Control_c, 1, 91, 120
3, 1, Text_t, "Non Registered Parameter Numbers"
3, 1, Text_t, "For Roland SC-55 Vibrato"
3, 1, Text_t, "Set up NRPN for Vibrate Rate"
3, 2, Control_c, 1, 99, 1
3, 3, Control_c, 1, 98, 8
3, 4, Text_t, "Data Entry Command"
3, 4, Control_c, 1, 6, 68
3, 5, Text_t, "Set up NRPN for Vibrate Delay"
3, 6, Control_c, 1, 99, 1
3, 7, Control_c, 1, 98, 10
3, 8, Text_t, "Data Entry Command"
3, 8, Control_c, 1, 6, 14
3, 9, Text_t, "Set up NRPN for Vibrate Depth"
3, 10, Control_c, 1, 99, 1
3, 11, Control_c, 1, 98, 9
3, 12, Text_t, "Data Entry Command; Vibrato ON"
3, 12, Control_c, 1, 6, 70
3, 13, Control_c, 1, 11, 127
3, 14, Pitch_bend_c, 1, 8192
3, 720, Note_on_c, 1, 80, 81
3, 810, Note_on_c, 1, 80, 0
3, 810, Note_on_c, 1, 81, 81
3, 840, Note_on_c, 1, 81, 0
3, 840, Note_on_c, 1, 80, 81
3, 900, Note_on_c, 1, 80, 0
3, 900, Note_on_c, 1, 80, 81
3, 1020, Note_on_c, 1, 80, 0
3, 1020, Note_on_c, 1, 81, 81
3, 1080, Note_on_c, 1, 81, 0
3, 1080, Note_on_c, 1, 81, 81
3, 1260, Note_on_c, 1, 83, 81
3, 1265, Note_on_c, 1, 81, 0
3, 1380, Note_on_c, 1, 83, 0
3, 1380, Note_on_c, 1, 81, 81
3, 1440, Note_on_c, 1, 81, 0
3, 1440, Note_on_c, 1, 80, 81
3, 1530, Note_on_c, 1, 80, 0
3, 1530, Note_on_c, 1, 81, 81
3, 1560, Note_on_c, 1, 81, 0
3, 1560, Note_on_c, 1, 80, 81
3, 1620, Note_on_c, 1, 80, 0
3, 1620, Note_on_c, 1, 80, 81
3, 1740, Note_on_c, 1, 80, 0
3, 1740, Note_on_c, 1, 81, 81
3, 1800, Note_on_c, 1, 81, 0
3, 1800, Note_on_c, 1, 81, 81
3, 1980, Note_on_c, 1, 83, 81
3, 1985, Note_on_c, 1, 81, 0
3, 2100, Note_on_c, 1, 83, 0
3, 2100, Note_on_c, 1, 81, 81
3, 2160, Note_on_c, 1, 81, 0
3, 2160, Note_on_c, 1, 80, 81
3, 2250, Note_on_c, 1, 80, 0
3, 2250, Note_on_c, 1, 81, 81
3, 2280, Note_on_c, 1, 81, 0
3, 2280, Note_on_c, 1, 83, 81
3, 2340, Note_on_c, 1, 83, 0
3, 2340, Note_on_c, 1, 83, 81
3, 2430, Note_on_c, 1, 83, 0
3, 2430, Note_on_c, 1, 81, 81
3, 2460, Note_on_c, 1, 81, 0
3, 2460, Note_on_c, 1, 80, 81
3, 2520, Note_on_c, 1, 80, 0
3, 2520, Note_on_c, 1, 80, 81
3, 2700, Note_on_c, 1, 80, 0
3, 2700, Note_on_c, 1, 78, 81
3, 2880, Note_on_c, 1, 78, 0
3, 2880, Note_on_c, 1, 80, 47
3, 2970, Note_on_c, 1, 80, 0
3, 2970, Note_on_c, 1, 81, 47
3, 3000, Note_on_c, 1, 81, 0
3, 3000, Note_on_c, 1, 80, 47
3, 3060, Note_on_c, 1, 80, 0
3, 3060, Note_on_c, 1, 80, 47
3, 3180, Note_on_c, 1, 80, 0
3, 3180, Note_on_c, 1, 81, 47
3, 3240, Note_on_c, 1, 81, 0
3, 3240, Note_on_c, 1, 81, 47
3, 3420, Note_on_c, 1, 83, 47
3, 3425, Note_on_c, 1, 81, 0
3, 3540, Note_on_c, 1, 83, 0
3, 3540, Note_on_c, 1, 81, 47
3, 3600, Note_on_c, 1, 81, 0
3, 3600, Note_on_c, 1, 80, 47
3, 3690, Note_on_c, 1, 80, 0
3, 3690, Note_on_c, 1, 81, 47
3, 3720, Note_on_c, 1, 81, 0
3, 3720, Note_on_c, 1, 80, 47
3, 3780, Note_on_c, 1, 80, 0
3, 3780, Note_on_c, 1, 80, 47
3, 3900, Note_on_c, 1, 80, 0
3, 3900, Note_on_c, 1, 81, 47
3, 3960, Note_on_c, 1, 81, 0
3, 3960, Note_on_c, 1, 81, 47
3, 4140, Note_on_c, 1, 83, 47
3, 4145, Note_on_c, 1, 81, 0
3, 4260, Note_on_c, 1, 83, 0
3, 4260, Note_on_c, 1, 81, 47
3, 4320, Note_on_c, 1, 81, 0
3, 4320, Note_on_c, 1, 80, 47
3, 4410, Note_on_c, 1, 80, 0
3, 4410, Note_on_c, 1, 81, 47
3, 4440, Note_on_c, 1, 81, 0
3, 4440, Note_on_c, 1, 83, 47
3, 4500, Note_on_c, 1, 83, 0
3, 4500, Note_on_c, 1, 83, 47
3, 4590, Note_on_c, 1, 83, 0
3, 4590, Note_on_c, 1, 81, 47
3, 4620, Note_on_c, 1, 81, 0
3, 4620, Note_on_c, 1, 80, 47
3, 4680, Note_on_c, 1, 80, 0
3, 4680, Note_on_c, 1, 80, 47
3, 4860, Note_on_c, 1, 80, 0
3, 4860, Note_on_c, 1, 83, 81
3, 4980, Note_on_c, 1, 83, 0
3, 4980, Note_on_c, 1, 78, 81
3, 5040, Note_on_c, 1, 78, 0
3, 5040, Note_on_c, 1, 75, 81
3, 5130, Note_on_c, 1, 75, 0
3, 5130, Note_on_c, 1, 73, 81
3, 5160, Note_on_c, 1, 73, 0
3, 5160, Note_on_c, 1, 71, 81
3, 5220, Note_on_c, 1, 71, 0
3, 5220, Note_on_c, 1, 83, 81
3, 5310, Note_on_c, 1, 83, 0
3, 5310, Note_on_c, 1, 81, 81
3, 5340, Note_on_c, 1, 81, 0
3, 5340, Note_on_c, 1, 80, 81
3, 5398, Note_on_c, 1, 80, 0
3, 5399, Pitch_bend_c, 1, 12288
3, 5400, Note_on_c, 1, 80, 81
3, 5415, Pitch_bend_c, 1, 8192
3, 5430, Pitch_bend_c, 1, 12288
3, 5445, Pitch_bend_c, 1, 8192
3, 5460, Pitch_bend_c, 1, 12288
3, 5475, Pitch_bend_c, 1, 8192
3, 5490, Pitch_bend_c, 1, 12288
3, 5505, Pitch_bend_c, 1, 8192
3, 5520, Note_on_c, 1, 80, 0
3, 5520, Note_on_c, 1, 78, 81
3, 5580, Note_on_c, 1, 78, 0
3, 5580, Note_on_c, 1, 83, 81
3, 5700, Note_on_c, 1, 83, 0
3, 5760, Note_on_c, 1, 83, 81
3, 5880, Note_on_c, 1, 83, 0
3, 5940, Note_on_c, 1, 83, 81
3, 6060, Note_on_c, 1, 83, 0
3, 6120, Note_on_c, 1, 83, 81
3, 6240, Note_on_c, 1, 83, 0
3, 6300, Note_on_c, 1, 75, 81
3, 6390, Note_on_c, 1, 76, 81
3, 6395, Note_on_c, 1, 75, 0
3, 6420, Note_on_c, 1, 78, 81
3, 6425, Note_on_c, 1, 76, 0
3, 6480, Note_on_c, 1, 78, 0
3, 6480, Note_on_c, 1, 78, 81
3, 6570, Note_on_c, 1, 80, 81
3, 6575, Note_on_c, 1, 78, 0
3, 6600, Note_on_c, 1, 81, 81
3, 6605, Note_on_c, 1, 80, 0
3, 6660, Note_on_c, 1, 81, 0
3, 6660, Note_on_c, 1, 81, 81
3, 6750, Note_on_c, 1, 80, 81
3, 6755, Note_on_c, 1, 81, 0
3, 6780, Note_on_c, 1, 78, 81
3, 6785, Note_on_c, 1, 80, 0
3, 6840, Note_on_c, 1, 78, 0
3, 6840, Note_on_c, 1, 78, 81
3, 6930, Note_on_c, 1, 76, 81
3, 6935, Note_on_c, 1, 78, 0
3, 6960, Note_on_c, 1, 75, 81
3, 6965, Note_on_c, 1, 76, 0
3, 7020, Note_on_c, 1, 75, 0
3, 7020, Note_on_c, 1, 75, 81
3, 7110, Note_on_c, 1, 76, 81
3, 7115, Note_on_c, 1, 75, 0
3, 7140, Note_on_c, 1, 78, 81
3, 7145, Note_on_c, 1, 76, 0
3, 7200, Note_on_c, 1, 78, 0
3, 7200, Note_on_c, 1, 78, 81
3, 7290, Note_on_c, 1, 80, 81
3, 7295, Note_on_c, 1, 78, 0
3, 7320, Note_on_c, 1, 81, 81
3, 7325, Note_on_c, 1, 80, 0
3, 7380, Note_on_c, 1, 81, 0
3, 7380, Note_on_c, 1, 81, 81
3, 7470, Note_on_c, 1, 80, 81
3, 7475, Note_on_c, 1, 81, 0
3, 7500, Note_on_c, 1, 78, 81
3, 7505, Note_on_c, 1, 80, 0
3, 7560, Note_on_c, 1, 78, 0
3, 7560, Note_on_c, 1, 80, 81
3, 7650, Note_on_c, 1, 81, 81
3, 7655, Note_on_c, 1, 80, 0
3, 7680, Note_on_c, 1, 80, 81
3, 7685, Note_on_c, 1, 81, 0
3, 7740, Note_on_c, 1, 80, 0
3, 7740, Note_on_c, 1, 85, 81
3, 7920, Note_on_c, 1, 83, 81
3, 7925, Note_on_c, 1, 85, 0
3, 8100, Note_on_c, 1, 81, 81
3, 8105, Note_on_c, 1, 83, 0
3, 8280, Note_on_c, 1, 81, 0
3, 8280, Note_on_c, 1, 80, 81
3, 8370, Note_on_c, 1, 80, 0
3, 8370, Note_on_c, 1, 81, 81
3, 8400, Note_on_c, 1, 81, 0
3, 8400, Note_on_c, 1, 80, 81
3, 8460, Note_on_c, 1, 80, 0
3, 8460, Note_on_c, 1, 85, 81
3, 8640, Note_on_c, 1, 83, 81
3, 8645, Note_on_c, 1, 85, 0
3, 8820, Note_on_c, 1, 81, 81
3, 8825, Note_on_c, 1, 83, 0
3, 9000, Note_on_c, 1, 81, 0
3, 9000, Note_on_c, 1, 80, 81
3, 9180, Note_on_c, 1, 80, 0
3, 15840, Note_on_c, 1, 76, 81
3, 15930, Note_on_c, 1, 76, 0
3, 15930, Note_on_c, 1, 78, 81
3, 15960, Note_on_c, 1, 78, 0
3, 15960, Note_on_c, 1, 76, 81
3, 16020, Note_on_c, 1, 76, 0
3, 16020, Note_on_c, 1, 76, 81
3, 16140, Note_on_c, 1, 76, 0
3, 16140, Note_on_c, 1, 78, 81
3, 16200, Note_on_c, 1, 78, 0
3, 16200, Note_on_c, 1, 78, 81
3, 16380, Note_on_c, 1, 78, 0
3, 16380, Note_on_c, 1, 80, 81
3, 16500, Note_on_c, 1, 80, 0
3, 16500, Note_on_c, 1, 78, 81
3, 16560, Note_on_c, 1, 78, 0
3, 16560, Note_on_c, 1, 76, 81
3, 16650, Note_on_c, 1, 76, 0
3, 16650, Note_on_c, 1, 78, 81
3, 16680, Note_on_c, 1, 78, 0
3, 16680, Note_on_c, 1, 76, 81
3, 16740, Note_on_c, 1, 76, 0
3, 16740, Note_on_c, 1, 76, 81
3, 16860, Note_on_c, 1, 76, 0
3, 16860, Note_on_c, 1, 78, 81
3, 16920, Note_on_c, 1, 78, 0
3, 16920, Note_on_c, 1, 78, 81
3, 17100, Note_on_c, 1, 80, 81
3, 17105, Note_on_c, 1, 78, 0
3, 17220, Note_on_c, 1, 80, 0
3, 17220, Note_on_c, 1, 78, 81
3, 17280, Note_on_c, 1, 78, 0
3, 17280, Note_on_c, 1, 76, 81
3, 17370, Note_on_c, 1, 76, 0
3, 17370, Note_on_c, 1, 78, 81
3, 17400, Note_on_c, 1, 78, 0
3, 17400, Note_on_c, 1, 80, 81
3, 17460, Note_on_c, 1, 80, 0
3, 17460, Note_on_c, 1, 80, 81
3, 17550, Note_on_c, 1, 80, 0
3, 17550, Note_on_c, 1, 78, 81
3, 17580, Note_on_c, 1, 78, 0
3, 17580, Note_on_c, 1, 76, 81
3, 17638, Note_on_c, 1, 76, 0
3, 17639, Pitch_bend_c, 1, 16383
3, 17640, Note_on_c, 1, 76, 81
3, 17655, Pitch_bend_c, 1, 8192
3, 17670, Pitch_bend_c, 1, 16383
3, 17685, Pitch_bend_c, 1, 8192
3, 17700, Pitch_bend_c, 1, 16383
3, 17715, Pitch_bend_c, 1, 8192
3, 17730, Pitch_bend_c, 1, 16383
3, 17745, Pitch_bend_c, 1, 8192
3, 17760, Pitch_bend_c, 1, 16383
3, 17775, Pitch_bend_c, 1, 8192
3, 17790, Pitch_bend_c, 1, 16383
3, 17805, Pitch_bend_c, 1, 8192
3, 17820, Note_on_c, 1, 76, 0
3, 17820, Note_on_c, 1, 75, 81
3, 18000, Note_on_c, 1, 75, 0
3, 18000, Note_on_c, 1, 80, 81
3, 18180, Note_on_c, 1, 81, 81
3, 18185, Note_on_c, 1, 80, 0
3, 18360, Note_on_c, 1, 81, 0
3, 18360, Note_on_c, 1, 78, 81
3, 18540, Note_on_c, 1, 80, 81
3, 18545, Note_on_c, 1, 78, 0
3, 18720, Note_on_c, 1, 80, 0
3, 18720, Note_on_c, 1, 76, 81
3, 18900, Note_on_c, 1, 78, 81
3, 18905, Note_on_c, 1, 76, 0
3, 19080, Note_on_c, 1, 78, 0
3, 19080, Note_on_c, 1, 75, 81
3, 19440, Note_on_c, 1, 75, 0
3, 19440, Note_on_c, 1, 80, 47
3, 19620, Note_on_c, 1, 81, 47
3, 19625, Note_on_c, 1, 80, 0
3, 19800, Note_on_c, 1, 81, 0
3, 19800, Note_on_c, 1, 78, 47
3, 19980, Note_on_c, 1, 80, 47
3, 19985, Note_on_c, 1, 78, 0
3, 20160, Note_on_c, 1, 80, 0
3, 20160, Note_on_c, 1, 76, 47
3, 20340, Note_on_c, 1, 78, 47
3, 20345, Note_on_c, 1, 76, 0
3, 20520, Note_on_c, 1, 78, 0
3, 20520, Note_on_c, 1, 75, 47
3, 20880, Note_on_c, 1, 75, 0
3, 20880, Note_on_c, 1, 80, 81
3, 20940, Note_on_c, 1, 81, 81
3, 20945, Note_on_c, 1, 80, 0
3, 21000, Note_on_c, 1, 83, 81
3, 21005, Note_on_c, 1, 81, 0
3, 21060, Note_on_c, 1, 83, 0
3, 21060, Note_on_c, 1, 83, 81
3, 21120, Note_on_c, 1, 81, 81
3, 21125, Note_on_c, 1, 83, 0
3, 21180, Note_on_c, 1, 80, 81
3, 21185, Note_on_c, 1, 81, 0
3, 21240, Note_on_c, 1, 80, 0
3, 21240, Note_on_c, 1, 81, 81
3, 21600, Note_on_c, 1, 81, 0
3, 21600, Note_on_c, 1, 78, 81
3, 21660, Note_on_c, 1, 80, 81
3, 21665, Note_on_c, 1, 78, 0
3, 21720, Note_on_c, 1, 81, 81
3, 21725, Note_on_c, 1, 80, 0
3, 21780, Note_on_c, 1, 81, 0
3, 21780, Note_on_c, 1, 81, 81
3, 21840, Note_on_c, 1, 80, 81
3, 21845, Note_on_c, 1, 81, 0
3, 21900, Note_on_c, 1, 78, 81
3, 21905, Note_on_c, 1, 80, 0
3, 21960, Note_on_c, 1, 78, 0
3, 21960, Note_on_c, 1, 80, 81
3, 22320, Note_on_c, 1, 80, 0
3, 22320, Note_on_c, 1, 83, 81
3, 22500, Note_on_c, 1, 81, 81
3, 22505, Note_on_c, 1, 83, 0
3, 22680, Note_on_c, 1, 81, 0
3, 22680, Note_on_c, 1, 80, 81
3, 22740, Note_on_c, 1, 80, 0
3, 22740, Note_on_c, 1, 78, 81
3, 22800, Note_on_c, 1, 78, 0
3, 22800, Note_on_c, 1, 76, 81
3, 22980, Note_on_c, 1, 80, 81
3, 22985, Note_on_c, 1, 76, 0
3, 23040, Note_on_c, 1, 80, 0
3, 23040, Note_on_c, 1, 83, 81
3, 23220, Note_on_c, 1, 81, 81
3, 23225, Note_on_c, 1, 83, 0
3, 23400, Note_on_c, 1, 81, 0
3, 23400, Note_on_c, 1, 80, 81
3, 23460, Note_on_c, 1, 78, 81
3, 23465, Note_on_c, 1, 80, 0
3, 23520, Note_on_c, 1, 76, 81
3, 23525, Note_on_c, 1, 78, 0
3, 23700, Note_on_c, 1, 80, 81
3, 23705, Note_on_c, 1, 76, 0
3, 23760, Note_on_c, 1, 80, 0
3, 23760, Note_on_c, 1, 85, 81
3, 23820, Note_on_c, 1, 83, 81
3, 23825, Note_on_c, 1, 85, 0
3, 23880, Note_on_c, 1, 82, 81
3, 23885, Note_on_c, 1, 83, 0
3, 23940, Note_on_c, 1, 82, 0
3, 23940, Note_on_c, 1, 85, 81
3, 24000, Note_on_c, 1, 83, 81
3, 24005, Note_on_c, 1, 85, 0
3, 24060, Note_on_c, 1, 82, 81
3, 24065, Note_on_c, 1, 83, 0
3, 24120, Note_on_c, 1, 82, 0
3, 24120, Note_on_c, 1, 83, 81
3, 24660, Note_on_c, 1, 83, 0
3, 24660, Note_on_c, 1, 82, 81
3, 24840, Note_on_c, 1, 82, 0
3, 24840, Note_on_c, 1, 83, 81
3, 25020, Note_on_c, 1, 83, 0
3, 26280, Note_on_c, 1, 78, 81
3, 26340, Note_on_c, 1, 76, 81
3, 26345, Note_on_c, 1, 78, 0
3, 26400, Note_on_c, 1, 75, 81
3, 26405, Note_on_c, 1, 76, 0
3, 26460, Note_on_c, 1, 75, 0
3, 26460, Note_on_c, 1, 78, 81
3, 26520, Note_on_c, 1, 76, 81
3, 26525, Note_on_c, 1, 78, 0
3, 26580, Note_on_c, 1, 75, 81
3, 26585, Note_on_c, 1, 76, 0
3, 26640, Note_on_c, 1, 75, 0
3, 26640, Note_on_c, 1, 76, 81
3, 26820, Note_on_c, 1, 76, 0
3, 27000, Note_on_c, 1, 71, 81
3, 27060, Note_on_c, 1, 69, 81
3, 27065, Note_on_c, 1, 71, 0
3, 27120, Note_on_c, 1, 68, 81
3, 27125, Note_on_c, 1, 69, 0
3, 27180, Note_on_c, 1, 68, 0
3, 27180, Note_on_c, 1, 71, 81
3, 27240, Note_on_c, 1, 69, 81
3, 27245, Note_on_c, 1, 71, 0
3, 27300, Note_on_c, 1, 68, 81
3, 27305, Note_on_c, 1, 69, 0
3, 27360, Note_on_c, 1, 68, 0
3, 27360, Note_on_c, 1, 69, 81
3, 27540, Note_on_c, 1, 69, 0
3, 27720, Note_on_c, 1, 76, 81
3, 27780, Note_on_c, 1, 74, 81
3, 27785, Note_on_c, 1, 76, 0
3, 27840, Note_on_c, 1, 73, 81
3, 27845, Note_on_c, 1, 74, 0
3, 27900, Note_on_c, 1, 73, 0
3, 27900, Note_on_c, 1, 76, 81
3, 27960, Note_on_c, 1, 74, 81
3, 27965, Note_on_c, 1, 76, 0
3, 28020, Note_on_c, 1, 73, 81
3, 28025, Note_on_c, 1, 74, 0
3, 28080, Note_on_c, 1, 73, 0
3, 28080, Note_on_c, 1, 74, 81
3, 28260, Note_on_c, 1, 74, 0
3, 28440, Note_on_c, 1, 78, 81
3, 28500, Note_on_c, 1, 76, 81
3, 28505, Note_on_c, 1, 78, 0
3, 28560, Note_on_c, 1, 75, 81
3, 28565, Note_on_c, 1, 76, 0
3, 28620, Note_on_c, 1, 75, 0
3, 28620, Note_on_c, 1, 78, 81
3, 28680, Note_on_c, 1, 76, 81
3, 28685, Note_on_c, 1, 78, 0
3, 28740, Note_on_c, 1, 75, 81
3, 28745, Note_on_c, 1, 76, 0
3, 28800, Note_on_c, 1, 75, 0
3, 28800, Note_on_c, 1, 76, 81
3, 28980, Note_on_c, 1, 80, 81
3, 28985, Note_on_c, 1, 76, 0
3, 29160, Note_on_c, 1, 78, 81
3, 29165, Note_on_c, 1, 80, 0
3, 29340, Note_on_c, 1, 76, 81
3, 29345, Note_on_c, 1, 78, 0
3, 29520, Note_on_c, 1, 76, 0
3, 29520, Note_on_c, 1, 75, 81
3, 29700, Note_on_c, 1, 80, 81
3, 29705, Note_on_c, 1, 75, 0
3, 29880, Note_on_c, 1, 78, 81
3, 29885, Note_on_c, 1, 80, 0
3, 30060, Note_on_c, 1, 76, 81
3, 30065, Note_on_c, 1, 78, 0
3, 30240, Note_on_c, 1, 76, 0
3, 30240, Note_on_c, 1, 75, 81
3, 30420, Note_on_c, 1, 80, 81
3, 30425, Note_on_c, 1, 75, 0
3, 30600, Note_on_c, 1, 78, 81
3, 30605, Note_on_c, 1, 80, 0
3, 30780, Note_on_c, 1, 76, 81
3, 30785, Note_on_c, 1, 78, 0
3, 30960, Note_on_c, 1, 76, 0
3, 30960, Note_on_c, 1, 76, 81
3, 31140, Note_on_c, 1, 85, 81
3, 31145, Note_on_c, 1, 76, 0
3, 31320, Note_on_c, 1, 83, 81
3, 31325, Note_on_c, 1, 85, 0
3, 31500, Note_on_c, 1, 81, 81
3, 31505, Note_on_c, 1, 83, 0
3, 31680, Note_on_c, 1, 81, 0
3, 31680, Note_on_c, 1, 80, 81
3, 31860, Note_on_c, 1, 85, 81
3, 31865, Note_on_c, 1, 80, 0
3, 32040, Note_on_c, 1, 83, 81
3, 32045, Note_on_c, 1, 85, 0
3, 32220, Note_on_c, 1, 81, 81
3, 32225, Note_on_c, 1, 83, 0
3, 32400, Note_on_c, 1, 81, 0
3, 32400, Note_on_c, 1, 80, 81
3, 32585, Note_on_c, 1, 80, 0
3, 33300, Note_on_c, 1, 85, 81
3, 33480, Note_on_c, 1, 83, 81
3, 33485, Note_on_c, 1, 85, 0
3, 33660, Note_on_c, 1, 81, 81
3, 33665, Note_on_c, 1, 83, 0
3, 33840, Note_on_c, 1, 81, 0
3, 33840, Note_on_c, 1, 80, 81
3, 34020, Note_on_c, 1, 80, 0
3, 34920, Note_on_c, 1, 83, 47
3, 34975, Note_on_c, 1, 83, 0
3, 34980, Note_on_c, 1, 83, 47
3, 35035, Note_on_c, 1, 83, 0
3, 35040, Note_on_c, 1, 83, 47
3, 35095, Note_on_c, 1, 83, 0
3, 35100, Note_on_c, 1, 83, 47
3, 35155, Note_on_c, 1, 83, 0
3, 35160, Note_on_c, 1, 83, 47
3, 35215, Note_on_c, 1, 83, 0
3, 35220, Note_on_c, 1, 83, 47
3, 35275, Note_on_c, 1, 83, 0
3, 35280, Note_on_c, 1, 83, 47
3, 35335, Note_on_c, 1, 83, 0
3, 35340, Note_on_c, 1, 83, 47
3, 35395, Note_on_c, 1, 83, 0
3, 35400, Note_on_c, 1, 83, 47
3, 35455, Note_on_c, 1, 83, 0
3, 35460, Note_on_c, 1, 83, 47
3, 35515, Note_on_c, 1, 83, 0
3, 35520, Note_on_c, 1, 83, 47
3, 35575, Note_on_c, 1, 83, 0
3, 35580, Note_on_c, 1, 83, 47
3, 35635, Note_on_c, 1, 83, 0
3, 35640, Note_on_c, 1, 81, 47
3, 35695, Note_on_c, 1, 81, 0
3, 35700, Note_on_c, 1, 81, 47
3, 35755, Note_on_c, 1, 81, 0
3, 35760, Note_on_c, 1, 81, 47
3, 35815, Note_on_c, 1, 81, 0
3, 35820, Note_on_c, 1, 81, 47
3, 35875, Note_on_c, 1, 81, 0
3, 35880, Note_on_c, 1, 81, 47
3, 35935, Note_on_c, 1, 81, 0
3, 35940, Note_on_c, 1, 81, 47
3, 35995, Note_on_c, 1, 81, 0
3, 36000, Note_on_c, 1, 81, 47
3, 36055, Note_on_c, 1, 81, 0
3, 36060, Note_on_c, 1, 81, 47
3, 36115, Note_on_c, 1, 81, 0
3, 36120, Note_on_c, 1, 81, 47
3, 36175, Note_on_c, 1, 81, 0
3, 36180, Note_on_c, 1, 81, 47
3, 36235, Note_on_c, 1, 81, 0
3, 36240, Note_on_c, 1, 81, 47
3, 36295, Note_on_c, 1, 81, 0
3, 36300, Note_on_c, 1, 81, 47
3, 36355, Note_on_c, 1, 81, 0
3, 36360, Note_on_c, 1, 80, 47
3, 36415, Note_on_c, 1, 80, 0
3, 36420, Note_on_c, 1, 80, 47
3, 36475, Note_on_c, 1, 80, 0
3, 36480, Note_on_c, 1, 80, 47
3, 36535, Note_on_c, 1, 80, 0
3, 36540, Note_on_c, 1, 80, 47
3, 36595, Note_on_c, 1, 80, 0
3, 36600, Note_on_c, 1, 80, 47
3, 36655, Note_on_c, 1, 80, 0
3, 36660, Note_on_c, 1, 80, 47
3, 36715, Note_on_c, 1, 80, 0
3, 36720, Note_on_c, 1, 80, 47
3, 36775, Note_on_c, 1, 80, 0
3, 36780, Note_on_c, 1, 80, 47
3, 36835, Note_on_c, 1, 80, 0
3, 36840, Note_on_c, 1, 80, 47
3, 36895, Note_on_c, 1, 80, 0
3, 36900, Note_on_c, 1, 80, 47
3, 36955, Note_on_c, 1, 80, 0
3, 36960, Note_on_c, 1, 80, 47
3, 37015, Note_on_c, 1, 80, 0
3, 37020, Note_on_c, 1, 80, 47
3, 37075, Note_on_c, 1, 80, 0
3, 37080, Note_on_c, 1, 78, 47
3, 37135, Note_on_c, 1, 78, 0
3, 37140, Note_on_c, 1, 78, 47
3, 37195, Note_on_c, 1, 78, 0
3, 37200, Note_on_c, 1, 78, 47
3, 37255, Note_on_c, 1, 78, 0
3, 37260, Note_on_c, 1, 78, 47
3, 37315, Note_on_c, 1, 78, 0
3, 37320, Note_on_c, 1, 78, 47
3, 37375, Note_on_c, 1, 78, 0
3, 37380, Note_on_c, 1, 78, 47
3, 37435, Note_on_c, 1, 78, 0
3, 37440, Note_on_c, 1, 78, 47
3, 37495, Note_on_c, 1, 78, 0
3, 37500, Note_on_c, 1, 78, 47
3, 37555, Note_on_c, 1, 78, 0
3, 37560, Note_on_c, 1, 78, 47
3, 37615, Note_on_c, 1, 78, 0
3, 37620, Note_on_c, 1, 78, 47
3, 37675, Note_on_c, 1, 78, 0
3, 37680, Note_on_c, 1, 78, 47
3, 37735, Note_on_c, 1, 78, 0
3, 37740, Note_on_c, 1, 78, 47
3, 37795, Note_on_c, 1, 78, 0
3, 37800, Note_on_c, 1, 80, 47
3, 37855, Note_on_c, 1, 80, 0
3, 37860, Note_on_c, 1, 80, 47
3, 37915, Note_on_c, 1, 80, 0
3, 37920, Note_on_c, 1, 80, 47
3, 37975, Note_on_c, 1, 80, 0
3, 37980, Note_on_c, 1, 80, 47
3, 38035, Note_on_c, 1, 80, 0
3, 38040, Note_on_c, 1, 80, 47
3, 38095, Note_on_c, 1, 80, 0
3, 38100, Note_on_c, 1, 80, 47
3, 38155, Note_on_c, 1, 80, 0
3, 38160, Note_on_c, 1, 80, 47
3, 38215, Note_on_c, 1, 80, 0
3, 38220, Note_on_c, 1, 80, 47
3, 38275, Note_on_c, 1, 80, 0
3, 38280, Note_on_c, 1, 80, 47
3, 38335, Note_on_c, 1, 80, 0
3, 38340, Note_on_c, 1, 80, 47
3, 38395, Note_on_c, 1, 80, 0
3, 38400, Note_on_c, 1, 80, 47
3, 38455, Note_on_c, 1, 80, 0
3, 38460, Note_on_c, 1, 80, 47
3, 38515, Note_on_c, 1, 80, 0
3, 38520, Note_on_c, 1, 82, 47
3, 38575, Note_on_c, 1, 82, 0
3, 38580, Note_on_c, 1, 82, 47
3, 38635, Note_on_c, 1, 82, 0
3, 38640, Note_on_c, 1, 82, 47
3, 38695, Note_on_c, 1, 82, 0
3, 38700, Note_on_c, 1, 82, 47
3, 38755, Note_on_c, 1, 82, 0
3, 38760, Note_on_c, 1, 82, 47
3, 38815, Note_on_c, 1, 82, 0
3, 38820, Note_on_c, 1, 82, 47
3, 38875, Note_on_c, 1, 82, 0
3, 38880, Note_on_c, 1, 82, 47
3, 38935, Note_on_c, 1, 82, 0
3, 38940, Note_on_c, 1, 82, 47
3, 38995, Note_on_c, 1, 82, 0
3, 39000, Note_on_c, 1, 82, 47
3, 39055, Note_on_c, 1, 82, 0
3, 39060, Note_on_c, 1, 82, 47
3, 39115, Note_on_c, 1, 82, 0
3, 39120, Note_on_c, 1, 82, 47
3, 39175, Note_on_c, 1, 82, 0
3, 39180, Note_on_c, 1, 82, 47
3, 39235, Note_on_c, 1, 82, 0
3, 39240, Note_on_c, 1, 78, 47
3, 39295, Note_on_c, 1, 78, 0
3, 39300, Note_on_c, 1, 78, 47
3, 39355, Note_on_c, 1, 78, 0
3, 39360, Note_on_c, 1, 78, 47
3, 39415, Note_on_c, 1, 78, 0
3, 39420, Note_on_c, 1, 78, 47
3, 39475, Note_on_c, 1, 78, 0
3, 39480, Note_on_c, 1, 78, 47
3, 39535, Note_on_c, 1, 78, 0
3, 39540, Note_on_c, 1, 78, 47
3, 39595, Note_on_c, 1, 78, 0
3, 39600, Note_on_c, 1, 83, 47
3, 39655, Note_on_c, 1, 83, 0
3, 39660, Note_on_c, 1, 83, 47
3, 39715, Note_on_c, 1, 83, 0
3, 39720, Note_on_c, 1, 83, 47
3, 39775, Note_on_c, 1, 83, 0
3, 39780, Note_on_c, 1, 83, 47
3, 39835, Note_on_c, 1, 83, 0
3, 39840, Note_on_c, 1, 83, 47
3, 39895, Note_on_c, 1, 83, 0
3, 39900, Note_on_c, 1, 83, 47
3, 39955, Note_on_c, 1, 83, 0
3, 39960, Note_on_c, 1, 83, 47
3, 40015, Note_on_c, 1, 83, 0
3, 40020, Note_on_c, 1, 83, 47
3, 40075, Note_on_c, 1, 83, 0
3, 40080, Note_on_c, 1, 83, 47
3, 40135, Note_on_c, 1, 83, 0
3, 40140, Note_on_c, 1, 83, 47
3, 40195, Note_on_c, 1, 83, 0
3, 40200, Note_on_c, 1, 83, 47
3, 40255, Note_on_c, 1, 83, 0
3, 40260, Note_on_c, 1, 83, 47
3, 40315, Note_on_c, 1, 83, 0
3, 40320, Note_on_c, 1, 83, 47
3, 40375, Note_on_c, 1, 83, 0
3, 40380, Note_on_c, 1, 83, 47
3, 40435, Note_on_c, 1, 83, 0
3, 40440, Note_on_c, 1, 83, 47
3, 40495, Note_on_c, 1, 83, 0
3, 40500, Note_on_c, 1, 83, 47
3, 40555, Note_on_c, 1, 83, 0
3, 40560, Note_on_c, 1, 83, 47
3, 40615, Note_on_c, 1, 83, 0
3, 40620, Note_on_c, 1, 83, 47
3, 40675, Note_on_c, 1, 83, 0
3, 40680, Note_on_c, 1, 82, 47
3, 40735, Note_on_c, 1, 82, 0
3, 40740, Note_on_c, 1, 82, 47
3, 40795, Note_on_c, 1, 82, 0
3, 40800, Note_on_c, 1, 82, 47
3, 40855, Note_on_c, 1, 82, 0
3, 40860, Note_on_c, 1, 82, 47
3, 40915, Note_on_c, 1, 82, 0
3, 40920, Note_on_c, 1, 82, 47
3, 40975, Note_on_c, 1, 82, 0
3, 40980, Note_on_c, 1, 82, 47
3, 41035, Note_on_c, 1, 82, 0
3, 41040, Note_on_c, 1, 82, 47
3, 41095, Note_on_c, 1, 82, 0
3, 41100, Note_on_c, 1, 82, 47
3, 41155, Note_on_c, 1, 82, 0
3, 41160, Note_on_c, 1, 82, 47
3, 41215, Note_on_c, 1, 82, 0
3, 41220, Note_on_c, 1, 82, 47
3, 41275, Note_on_c, 1, 82, 0
3, 41280, Note_on_c, 1, 82, 47
3, 41335, Note_on_c, 1, 82, 0
3, 41340, Note_on_c, 1, 82, 47
3, 41395, Note_on_c, 1, 82, 0
3, 41400, Note_on_c, 1, 83, 47
3, 41580, Note_on_c, 1, 83, 0
3, 41760, Note_on_c, 1, 66, 47
3, 41940, Note_on_c, 1, 66, 0
3, 42120, Note_on_c, 1, 80, 81
3, 42210, Note_on_c, 1, 80, 0
3, 42210, Note_on_c, 1, 81, 81
3, 42240, Note_on_c, 1, 81, 0
3, 42240, Note_on_c, 1, 80, 81
3, 42300, Note_on_c, 1, 80, 0
3, 42300, Note_on_c, 1, 80, 81
3, 42420, Note_on_c, 1, 80, 0
3, 42420, Note_on_c, 1, 81, 81
3, 42480, Note_on_c, 1, 81, 0
3, 42480, Note_on_c, 1, 81, 81
3, 42660, Note_on_c, 1, 83, 81
3, 42665, Note_on_c, 1, 81, 0
3, 42780, Note_on_c, 1, 83, 0
3, 42780, Note_on_c, 1, 81, 81
3, 42840, Note_on_c, 1, 81, 0
3, 42840, Note_on_c, 1, 80, 81
3, 42930, Note_on_c, 1, 80, 0
3, 42930, Note_on_c, 1, 81, 81
3, 42960, Note_on_c, 1, 81, 0
3, 42960, Note_on_c, 1, 80, 81
3, 43020, Note_on_c, 1, 80, 0
3, 43020, Note_on_c, 1, 80, 81
3, 43140, Note_on_c, 1, 80, 0
3, 43140, Note_on_c, 1, 81, 81
3, 43200, Note_on_c, 1, 81, 0
3, 43200, Note_on_c, 1, 81, 81
3, 43380, Note_on_c, 1, 83, 81
3, 43385, Note_on_c, 1, 81, 0
3, 43500, Note_on_c, 1, 83, 0
3, 43500, Note_on_c, 1, 81, 81
3, 43560, Note_on_c, 1, 81, 0
3, 43560, Note_on_c, 1, 80, 81
3, 43650, Note_on_c, 1, 80, 0
3, 43650, Note_on_c, 1, 81, 81
3, 43680, Note_on_c, 1, 81, 0
3, 43680, Note_on_c, 1, 83, 81
3, 43740, Note_on_c, 1, 83, 0
3, 43740, Note_on_c, 1, 83, 81
3, 43830, Note_on_c, 1, 83, 0
3, 43830, Note_on_c, 1, 81, 81
3, 43860, Note_on_c, 1, 81, 0
3, 43860, Note_on_c, 1, 80, 81
3, 43920, Note_on_c, 1, 80, 0
3, 43920, Note_on_c, 1, 80, 81
3, 44100, Note_on_c, 1, 80, 0
3, 44100, Note_on_c, 1, 78, 81
3, 44280, Note_on_c, 1, 78, 0
3, 44280, Note_on_c, 1, 79, 81
3, 44370, Note_on_c, 1, 79, 0
3, 44370, Note_on_c, 1, 81, 81
3, 44400, Note_on_c, 1, 81, 0
3, 44400, Note_on_c, 1, 79, 81
3, 44460, Note_on_c, 1, 79, 0
3, 44460, Note_on_c, 1, 79, 81
3, 44580, Note_on_c, 1, 79, 0
3, 44580, Note_on_c, 1, 81, 81
3, 44640, Note_on_c, 1, 81, 0
3, 44640, Note_on_c, 1, 79, 81
3, 44820, Note_on_c, 1, 78, 81
3, 44825, Note_on_c, 1, 79, 0
3, 45000, Note_on_c, 1, 78, 0
3, 45000, Note_on_c, 1, 78, 81
3, 45090, Note_on_c, 1, 78, 0
3, 45090, Note_on_c, 1, 79, 81
3, 45120, Note_on_c, 1, 79, 0
3, 45120, Note_on_c, 1, 78, 81
3, 45180, Note_on_c, 1, 78, 0
3, 45180, Note_on_c, 1, 78, 81
3, 45300, Note_on_c, 1, 78, 0
3, 45300, Note_on_c, 1, 79, 81
3, 45360, Note_on_c, 1, 79, 0
3, 45360, Note_on_c, 1, 78, 81
3, 45540, Note_on_c, 1, 76, 81
3, 45545, Note_on_c, 1, 78, 0
3, 45720, Note_on_c, 1, 76, 0
3, 45720, Note_on_c, 1, 76, 81
3, 45810, Note_on_c, 1, 76, 0
3, 45810, Note_on_c, 1, 78, 81
3, 45840, Note_on_c, 1, 78, 0
3, 45840, Note_on_c, 1, 76, 81
3, 45900, Note_on_c, 1, 76, 0
3, 45900, Note_on_c, 1, 76, 81
3, 46020, Note_on_c, 1, 76, 0
3, 46020, Note_on_c, 1, 78, 81
3, 46080, Note_on_c, 1, 78, 0
3, 46080, Note_on_c, 1, 76, 81
3, 46260, Note_on_c, 1, 75, 81
3, 46265, Note_on_c, 1, 76, 0
3, 46440, Note_on_c, 1, 75, 0
3, 46440, Note_on_c, 1, 80, 81
3, 46800, Note_on_c, 1, 80, 0
3, 46800, Note_on_c, 1, 81, 81
3, 47160, Note_on_c, 1, 81, 0
3, 47160, Note_on_c, 1, 78, 81
3, 47520, Note_on_c, 1, 78, 0
3, 47520, Note_on_c, 1, 79, 81
3, 47880, Note_on_c, 1, 79, 0
3, 47880, Note_on_c, 1, 76, 81
3, 48240, Note_on_c, 1, 76, 0
3, 48240, Note_on_c, 1, 77, 81
3, 48420, Note_on_c, 1, 77, 0
3, 48420, Note_on_c, 1, 80, 81
3, 48600, Note_on_c, 1, 80, 0
3, 48600, Note_on_c, 1, 81, 81
3, 48960, Note_on_c, 1, 81, 0
3, 48960, Note_on_c, 1, 79, 81
3, 49020, Note_on_c, 1, 79, 0
3, 49020, Note_on_c, 1, 78, 81
3, 49080, Note_on_c, 1, 76, 81
3, 49085, Note_on_c, 1, 78, 0
3, 49140, Note_on_c, 1, 76, 0
3, 49140, Note_on_c, 1, 83, 81
3, 49320, Note_on_c, 1, 83, 0
3, 49320, Note_on_c, 1, 78, 81
3, 49380, Note_on_c, 1, 79, 81
3, 49385, Note_on_c, 1, 78, 0
3, 49440, Note_on_c, 1, 81, 81
3, 49445, Note_on_c, 1, 79, 0
3, 49500, Note_on_c, 1, 81, 0
3, 49500, Note_on_c, 1, 83, 81
3, 49680, Note_on_c, 1, 83, 0
3, 49680, Note_on_c, 1, 76, 81
3, 49740, Note_on_c, 1, 78, 81
3, 49745, Note_on_c, 1, 76, 0
3, 49800, Note_on_c, 1, 78, 0
3, 49800, Note_on_c, 1, 79, 81
3, 49860, Note_on_c, 1, 79, 0
3, 49860, Note_on_c, 1, 81, 81
3, 50040, Note_on_c, 1, 81, 0
3, 50040, Note_on_c, 1, 75, 81
3, 50100, Note_on_c, 1, 72, 81
3, 50105, Note_on_c, 1, 75, 0
3, 50160, Note_on_c, 1, 71, 81
3, 50165, Note_on_c, 1, 72, 0
3, 50220, Note_on_c, 1, 71, 0
3, 50220, Note_on_c, 1, 81, 81
3, 50400, Note_on_c, 1, 81, 0
3, 50400, Note_on_c, 1, 79, 81
3, 50460, Note_on_c, 1, 79, 0
3, 50460, Note_on_c, 1, 78, 81
3, 50520, Note_on_c, 1, 76, 81
3, 50525, Note_on_c, 1, 78, 0
3, 50580, Note_on_c, 1, 76, 0
3, 50580, Note_on_c, 1, 84, 81
3, 50940, Note_on_c, 1, 84, 0
3, 50940, Note_on_c, 1, 83, 81
3, 51300, Note_on_c, 1, 83, 0
3, 51300, Note_on_c, 1, 81, 81
3, 51660, Note_on_c, 1, 81, 0
3, 57060, Note_on_c, 1, 71, 81
3, 57240, Note_on_c, 1, 71, 0
3, 57240, Note_on_c, 1, 80, 81
3, 57330, Note_on_c, 1, 80, 0
3, 57330, Note_on_c, 1, 81, 81
3, 57360, Note_on_c, 1, 81, 0
3, 57360, Note_on_c, 1, 80, 81
3, 57420, Note_on_c, 1, 80, 0
3, 57420, Note_on_c, 1, 80, 81
3, 57540, Note_on_c, 1, 80, 0
3, 57540, Note_on_c, 1, 81, 81
3, 57600, Note_on_c, 1, 81, 0
3, 57600, Note_on_c, 1, 81, 81
3, 57780, Note_on_c, 1, 83, 81
3, 57785, Note_on_c, 1, 81, 0
3, 57900, Note_on_c, 1, 83, 0
3, 57900, Note_on_c, 1, 81, 81
3, 57960, Note_on_c, 1, 81, 0
3, 57960, Note_on_c, 1, 80, 81
3, 58050, Note_on_c, 1, 80, 0
3, 58050, Note_on_c, 1, 81, 81
3, 58080, Note_on_c, 1, 81, 0
3, 58080, Note_on_c, 1, 80, 81
3, 58140, Note_on_c, 1, 80, 0
3, 58140, Note_on_c, 1, 80, 81
3, 58260, Note_on_c, 1, 80, 0
3, 58260, Note_on_c, 1, 81, 81
3, 58320, Note_on_c, 1, 81, 0
3, 58320, Note_on_c, 1, 81, 81
3, 58500, Note_on_c, 1, 83, 81
3, 58505, Note_on_c, 1, 81, 0
3, 58620, Note_on_c, 1, 83, 0
3, 58620, Note_on_c, 1, 81, 81
3, 58680, Note_on_c, 1, 81, 0
3, 58680, Note_on_c, 1, 80, 81
3, 58770, Note_on_c, 1, 80, 0
3, 58770, Note_on_c, 1, 81, 81
3, 58800, Note_on_c, 1, 81, 0
3, 58800, Note_on_c, 1, 83, 81
3, 58860, Note_on_c, 1, 83, 0
3, 58860, Note_on_c, 1, 83, 81
3, 58950, Note_on_c, 1, 83, 0
3, 58950, Note_on_c, 1, 81, 81
3, 58980, Note_on_c, 1, 81, 0
3, 58980, Note_on_c, 1, 80, 81
3, 59040, Note_on_c, 1, 80, 0
3, 59040, Note_on_c, 1, 78, 81
3, 59130, Note_on_c, 1, 78, 0
3, 59130, Note_on_c, 1, 76, 81
3, 59160, Note_on_c, 1, 76, 0
3, 59160, Note_on_c, 1, 75, 81
3, 59220, Note_on_c, 1, 75, 0
3, 59220, Note_on_c, 1, 75, 81
3, 59310, Note_on_c, 1, 75, 0
3, 59310, Note_on_c, 1, 76, 81
3, 59340, Note_on_c, 1, 76, 0
3, 59340, Note_on_c, 1, 78, 81
3, 59400, Note_on_c, 1, 78, 0
3, 59400, Note_on_c, 1, 78, 81
3, 59490, Note_on_c, 1, 78, 0
3, 59490, Note_on_c, 1, 80, 81
3, 59520, Note_on_c, 1, 80, 0
3, 59520, Note_on_c, 1, 81, 81
3, 59580, Note_on_c, 1, 81, 0
3, 59580, Note_on_c, 1, 81, 81
3, 59670, Note_on_c, 1, 81, 0
3, 59670, Note_on_c, 1, 80, 81
3, 59700, Note_on_c, 1, 80, 0
3, 59700, Note_on_c, 1, 78, 81
3, 59760, Note_on_c, 1, 78, 0
3, 59760, Note_on_c, 1, 78, 81
3, 59850, Note_on_c, 1, 78, 0
3, 59850, Note_on_c, 1, 76, 81
3, 59880, Note_on_c, 1, 76, 0
3, 59880, Note_on_c, 1, 75, 81
3, 59940, Note_on_c, 1, 75, 0
3, 59940, Note_on_c, 1, 75, 81
3, 60030, Note_on_c, 1, 75, 0
3, 60030, Note_on_c, 1, 76, 81
3, 60060, Note_on_c, 1, 76, 0
3, 60060, Note_on_c, 1, 78, 81
3, 60120, Note_on_c, 1, 78, 0
3, 60120, Note_on_c, 1, 78, 81
3, 60210, Note_on_c, 1, 78, 0
3, 60210, Note_on_c, 1, 80, 81
3, 60240, Note_on_c, 1, 80, 0
3, 60240, Note_on_c, 1, 81, 81
3, 60300, Note_on_c, 1, 81, 0
3, 60300, Note_on_c, 1, 81, 81
3, 60390, Note_on_c, 1, 81, 0
3, 60390, Note_on_c, 1, 80, 81
3, 60420, Note_on_c, 1, 80, 0
3, 60420, Note_on_c, 1, 78, 81
3, 60480, Note_on_c, 1, 78, 0
3, 60480, Note_on_c, 1, 80, 81
3, 60660, Note_on_c, 1, 80, 0
3, 60660, Note_on_c, 1, 85, 81
3, 60840, Note_on_c, 1, 83, 81
3, 60845, Note_on_c, 1, 85, 0
3, 61020, Note_on_c, 1, 81, 81
3, 61025, Note_on_c, 1, 83, 0
3, 61200, Note_on_c, 1, 81, 0
3, 61200, Note_on_c, 1, 80, 81
3, 61290, Note_on_c, 1, 80, 0
3, 61290, Note_on_c, 1, 81, 81
3, 61320, Note_on_c, 1, 81, 0
3, 61320, Note_on_c, 1, 80, 81
3, 61380, Note_on_c, 1, 80, 0
3, 61380, Note_on_c, 1, 85, 81
3, 61560, Note_on_c, 1, 83, 81
3, 61565, Note_on_c, 1, 85, 0
3, 61740, Note_on_c, 1, 81, 81
3, 61745, Note_on_c, 1, 83, 0
3, 61920, Note_on_c, 1, 81, 0
3, 61920, Note_on_c, 1, 80, 81
3, 62010, Note_on_c, 1, 80, 0
3, 62010, Note_on_c, 1, 78, 81
3, 62040, Note_on_c, 1, 78, 0
3, 62040, Note_on_c, 1, 76, 81
3, 62098, Note_on_c, 1, 76, 0
3, 62099, Pitch_bend_c, 1, 16383
3, 62100, Note_on_c, 1, 78, 81
3, 62115, Pitch_bend_c, 1, 8192
3, 62130, Pitch_bend_c, 1, 16383
3, 62145, Pitch_bend_c, 1, 8192
3, 62160, Pitch_bend_c, 1, 16383
3, 62175, Pitch_bend_c, 1, 8192
3, 62190, Pitch_bend_c, 1, 16383
3, 62205, Pitch_bend_c, 1, 8192
3, 62220, Pitch_bend_c, 1, 16383
3, 62235, Pitch_bend_c, 1, 8192
3, 62250, Pitch_bend_c, 1, 16383
3, 62265, Pitch_bend_c, 1, 8192
3, 62280, Note_on_c, 1, 78, 0
3, 62280, Note_on_c, 1, 76, 61
3, 62460, Note_on_c, 1, 76, 0
3, 62460, Note_on_c, 1, 85, 47
3, 62640, Note_on_c, 1, 83, 47
3, 62645, Note_on_c, 1, 85, 0
3, 62820, Note_on_c, 1, 81, 47
3, 62825, Note_on_c, 1, 83, 0
3, 63000, Note_on_c, 1, 81, 0
3, 63000, Note_on_c, 1, 80, 47
3, 63090, Note_on_c, 1, 80, 0
3, 63090, Note_on_c, 1, 81, 47
3, 63120, Note_on_c, 1, 81, 0
3, 63120, Note_on_c, 1, 80, 47
3, 63180, Note_on_c, 1, 80, 0
3, 63180, Note_on_c, 1, 85, 47
3, 63360, Note_on_c, 1, 83, 47
3, 63365, Note_on_c, 1, 85, 0
3, 63540, Note_on_c, 1, 81, 47
3, 63545, Note_on_c, 1, 83, 0
3, 63720, Note_on_c, 1, 81, 0
3, 63720, Note_on_c, 1, 80, 47
3, 63810, Note_on_c, 1, 80, 0
3, 63810, Note_on_c, 1, 78, 47
3, 63840, Note_on_c, 1, 78, 0
3, 63840, Note_on_c, 1, 76, 47
3, 63898, Note_on_c, 1, 76, 0
3, 63899, Pitch_bend_c, 1, 16383
3, 63900, Note_on_c, 1, 78, 47
3, 63915, Pitch_bend_c, 1, 8192
3, 63930, Pitch_bend_c, 1, 16383
3, 63945, Pitch_bend_c, 1, 8192
3, 63960, Pitch_bend_c, 1, 16383
3, 63975, Pitch_bend_c, 1, 8192
3, 63990, Pitch_bend_c, 1, 16383
3, 64005, Pitch_bend_c, 1, 8192
3, 64020, Pitch_bend_c, 1, 16383
3, 64035, Pitch_bend_c, 1, 8192
3, 64050, Pitch_bend_c, 1, 16383
3, 64065, Pitch_bend_c, 1, 8192
3, 64080, Note_on_c, 1, 78, 0
3, 64080, Note_on_c, 1, 76, 47
3, 64800, Note_on_c, 1, 76, 0
3, 65161, Program_c, 1, 0
3, 65162, Control_c, 1, 7, 100
3, 65163, Control_c, 1, 10, 64
3, 65164, Control_c, 1, 93, 0
3, 65165, Control_c, 1, 91, 40
3, 65166, Control_c, 1, 99, 1
3, 65167, Control_c, 1, 98, 8
3, 65168, Control_c, 1, 6, 64
3, 65169, Control_c, 1, 99, 1
3, 65170, Control_c, 1, 98, 10
3, 65171, Control_c, 1, 6, 64
3, 65172, Control_c, 1, 99, 1
3, 65173, Control_c, 1, 98, 9
3, 65174, Control_c, 1, 6, 64
3, 65175, Pitch_bend_c, 1, 8192
3, 65175, End_track
4, 0, Start_track
4, 0, MIDI_port, 1
4, 0, Title_t, "Violin II"
4, 0, Program_c, 2, 40
4, 0, Control_c, 2, 7, 95
4, 0, Control_c, 2, 10, 16
4, 0, Program_c, 2, 40
4, 0, Control_c, 2, 7, 95
4, 0, Control_c, 2, 10, 16
4, 0, Control_c, 2, 93, 0
4, 0, Control_c, 2, 91, 120
4, 1, Text_t, "Non Registered Parameter Numbers"
4, 1, Text_t, "For Roland SC-55 Vibrato"
4, 1, Text_t, "Set up NRPN for Vibrate Rate"
4, 2, Control_c, 2, 99, 1
4, 3, Control_c, 2, 98, 8
4, 4, Text_t, "Data Entry Command"
4, 4, Control_c, 2, 6, 68
4, 5, Text_t, "Set up NRPN for Vibrate Delay"
4, 6, Control_c, 2, 99, 1
4, 7, Control_c, 2, 98, 10
4, 8, Text_t, "Data Entry Command"
4, 8, Control_c, 2, 6, 14
4, 9, Text_t, "Set up NRPN for Vibrate Depth"
4, 10, Control_c, 2, 99, 1
4, 11, Control_c, 2, 98, 9
4, 12, Text_t, "Data Entry Command; Vibrato ON"
4, 12, Control_c, 2, 6, 70
4, 13, Control_c, 2, 11, 127
4, 14, Pitch_bend_c, 2, 8192
4, 720, Note_on_c, 2, 76, 81
4, 810, Note_on_c, 2, 76, 0
4, 810, Note_on_c, 2, 78, 81
4, 840, Note_on_c, 2, 78, 0
4, 840, Note_on_c, 2, 76, 81
4, 900, Note_on_c, 2, 76, 0
4, 900, Note_on_c, 2, 76, 81
4, 1020, Note_on_c, 2, 76, 0
4, 1020, Note_on_c, 2, 78, 81
4, 1080, Note_on_c, 2, 78, 0
4, 1080, Note_on_c, 2, 78, 81
4, 1260, Note_on_c, 2, 80, 81
4, 1265, Note_on_c, 2, 78, 0
4, 1380, Note_on_c, 2, 80, 0
4, 1380, Note_on_c, 2, 78, 81
4, 1440, Note_on_c, 2, 78, 0
4, 1440, Note_on_c, 2, 76, 81
4, 1530, Note_on_c, 2, 76, 0
4, 1530, Note_on_c, 2, 78, 81
4, 1560, Note_on_c, 2, 78, 0
4, 1560, Note_on_c, 2, 76, 81
4, 1620, Note_on_c, 2, 76, 0
4, 1620, Note_on_c, 2, 76, 81
4, 1740, Note_on_c, 2, 76, 0
4, 1740, Note_on_c, 2, 78, 81
4, 1800, Note_on_c, 2, 78, 0
4, 1800, Note_on_c, 2, 78, 81
4, 1980, Note_on_c, 2, 80, 81
4, 1985, Note_on_c, 2, 78, 0
4, 2100, Note_on_c, 2, 80, 0
4, 2100, Note_on_c, 2, 78, 81
4, 2160, Note_on_c, 2, 78, 0
4, 2160, Note_on_c, 2, 76, 81
4, 2250, Note_on_c, 2, 76, 0
4, 2250, Note_on_c, 2, 78, 81
4, 2280, Note_on_c, 2, 78, 0
4, 2280, Note_on_c, 2, 80, 81
4, 2340, Note_on_c, 2, 80, 0
4, 2340, Note_on_c, 2, 80, 81
4, 2430, Note_on_c, 2, 80, 0
4, 2430, Note_on_c, 2, 78, 81
4, 2460, Note_on_c, 2, 78, 0
4, 2460, Note_on_c, 2, 76, 81
4, 2520, Note_on_c, 2, 76, 0
4, 2520, Note_on_c, 2, 76, 81
4, 2700, Note_on_c, 2, 76, 0
4, 2700, Note_on_c, 2, 75, 81
4, 2880, Note_on_c, 2, 75, 0
4, 2880, Note_on_c, 2, 76, 47
4, 2970, Note_on_c, 2, 76, 0
4, 2970, Note_on_c, 2, 78, 47
4, 3000, Note_on_c, 2, 78, 0
4, 3000, Note_on_c, 2, 76, 47
4, 3060, Note_on_c, 2, 76, 0
4, 3060, Note_on_c, 2, 76, 47
4, 3180, Note_on_c, 2, 76, 0
4, 3180, Note_on_c, 2, 78, 47
4, 3240, Note_on_c, 2, 78, 0
4, 3240, Note_on_c, 2, 78, 47
4, 3420, Note_on_c, 2, 80, 47
4, 3425, Note_on_c, 2, 78, 0
4, 3540, Note_on_c, 2, 80, 0
4, 3540, Note_on_c, 2, 78, 47
4, 3600, Note_on_c, 2, 78, 0
4, 3600, Note_on_c, 2, 76, 47
4, 3690, Note_on_c, 2, 76, 0
4, 3690, Note_on_c, 2, 78, 47
4, 3720, Note_on_c, 2, 78, 0
4, 3720, Note_on_c, 2, 76, 47
4, 3780, Note_on_c, 2, 76, 0
4, 3780, Note_on_c, 2, 76, 47
4, 3900, Note_on_c, 2, 76, 0
4, 3900, Note_on_c, 2, 78, 47
4, 3960, Note_on_c, 2, 78, 0
4, 3960, Note_on_c, 2, 78, 47
4, 4140, Note_on_c, 2, 80, 47
4, 4145, Note_on_c, 2, 78, 0
4, 4260, Note_on_c, 2, 80, 0
4, 4260, Note_on_c, 2, 78, 47
4, 4320, Note_on_c, 2, 78, 0
4, 4320, Note_on_c, 2, 76, 47
4, 4410, Note_on_c, 2, 76, 0
4, 4410, Note_on_c, 2, 78, 47
4, 4440, Note_on_c, 2, 78, 0
4, 4440, Note_on_c, 2, 80, 47
4, 4500, Note_on_c, 2, 80, 0
4, 4500, Note_on_c, 2, 80, 47
4, 4590, Note_on_c, 2, 80, 0
4, 4590, Note_on_c, 2, 78, 47
4, 4620, Note_on_c, 2, 78, 0
4, 4620, Note_on_c, 2, 76, 47
4, 4680, Note_on_c, 2, 76, 0
4, 4680, Note_on_c, 2, 76, 47
4, 4800, Note_on_c, 2, 76, 0
4, 4860, Note_on_c, 2, 83, 81
4, 4980, Note_on_c, 2, 83, 0
4, 5040, Note_on_c, 2, 83, 81
4, 5160, Note_on_c, 2, 83, 0
4, 5220, Note_on_c, 2, 83, 81
4, 5340, Note_on_c, 2, 83, 0
4, 5400, Note_on_c, 2, 83, 81
4, 5520, Note_on_c, 2, 83, 0
4, 5580, Note_on_c, 2, 83, 81
4, 5700, Note_on_c, 2, 83, 0
4, 5700, Note_on_c, 2, 78, 81
4, 5760, Note_on_c, 2, 78, 0
4, 5760, Note_on_c, 2, 75, 81
4, 5850, Note_on_c, 2, 75, 0
4, 5850, Note_on_c, 2, 73, 81
4, 5880, Note_on_c, 2, 73, 0
4, 5880, Note_on_c, 2, 71, 81
4, 5940, Note_on_c, 2, 71, 0
4, 5940, Note_on_c, 2, 83, 81
4, 6030, Note_on_c, 2, 83, 0
4, 6030, Note_on_c, 2, 81, 81
4, 6060, Note_on_c, 2, 81, 0
4, 6060, Note_on_c, 2, 80, 81
4, 6118, Note_on_c, 2, 80, 0
4, 6119, Pitch_bend_c, 2, 12288
4, 6120, Note_on_c, 2, 80, 81
4, 6135, Pitch_bend_c, 2, 8192
4, 6150, Pitch_bend_c, 2, 12288
4, 6165, Pitch_bend_c, 2, 8192
4, 6180, Pitch_bend_c, 2, 12288
4, 6195, Pitch_bend_c, 2, 8192
4, 6210, Pitch_bend_c, 2, 12288
4, 6225, Pitch_bend_c, 2, 8192
4, 6240, Note_on_c, 2, 80, 0
4, 6240, Note_on_c, 2, 78, 81
4, 6300, Note_on_c, 2, 78, 0
4, 6300, Note_on_c, 2, 71, 81
4, 6390, Note_on_c, 2, 73, 81
4, 6395, Note_on_c, 2, 71, 0
4, 6420, Note_on_c, 2, 75, 81
4, 6425, Note_on_c, 2, 73, 0
4, 6480, Note_on_c, 2, 75, 0
4, 6480, Note_on_c, 2, 75, 81
4, 6570, Note_on_c, 2, 76, 81
4, 6575, Note_on_c, 2, 75, 0
4, 6600, Note_on_c, 2, 78, 81
4, 6605, Note_on_c, 2, 76, 0
4, 6660, Note_on_c, 2, 78, 0
4, 6660, Note_on_c, 2, 78, 81
4, 6750, Note_on_c, 2, 76, 81
4, 6755, Note_on_c, 2, 78, 0
4, 6780, Note_on_c, 2, 75, 81
4, 6785, Note_on_c, 2, 76, 0
4, 6840, Note_on_c, 2, 75, 0
4, 6840, Note_on_c, 2, 75, 81
4, 6930, Note_on_c, 2, 73, 81
4, 6935, Note_on_c, 2, 75, 0
4, 6960, Note_on_c, 2, 71, 81
4, 6965, Note_on_c, 2, 73, 0
4, 7020, Note_on_c, 2, 71, 0
4, 7020, Note_on_c, 2, 71, 81
4, 7110, Note_on_c, 2, 73, 81
4, 7115, Note_on_c, 2, 71, 0
4, 7140, Note_on_c, 2, 75, 81
4, 7145, Note_on_c, 2, 73, 0
4, 7200, Note_on_c, 2, 75, 0
4, 7200, Note_on_c, 2, 75, 81
4, 7290, Note_on_c, 2, 76, 81
4, 7295, Note_on_c, 2, 75, 0
4, 7320, Note_on_c, 2, 78, 81
4, 7325, Note_on_c, 2, 76, 0
4, 7380, Note_on_c, 2, 78, 0
4, 7380, Note_on_c, 2, 78, 81
4, 7470, Note_on_c, 2, 76, 81
4, 7475, Note_on_c, 2, 78, 0
4, 7500, Note_on_c, 2, 75, 81
4, 7505, Note_on_c, 2, 76, 0
4, 7560, Note_on_c, 2, 75, 0
4, 7560, Note_on_c, 2, 76, 81
4, 7650, Note_on_c, 2, 78, 81
4, 7655, Note_on_c, 2, 76, 0
4, 7680, Note_on_c, 2, 76, 81
4, 7685, Note_on_c, 2, 78, 0
4, 7740, Note_on_c, 2, 76, 0
4, 7740, Note_on_c, 2, 81, 81
4, 7920, Note_on_c, 2, 80, 81
4, 7925, Note_on_c, 2, 81, 0
4, 8100, Note_on_c, 2, 78, 81
4, 8105, Note_on_c, 2, 80, 0
4, 8280, Note_on_c, 2, 78, 0
4, 8280, Note_on_c, 2, 76, 81
4, 8370, Note_on_c, 2, 76, 0
4, 8370, Note_on_c, 2, 78, 81
4, 8400, Note_on_c, 2, 78, 0
4, 8400, Note_on_c, 2, 76, 81
4, 8460, Note_on_c, 2, 76, 0
4, 8460, Note_on_c, 2, 81, 81
4, 8640, Note_on_c, 2, 80, 81
4, 8645, Note_on_c, 2, 81, 0
4, 8820, Note_on_c, 2, 78, 81
4, 8825, Note_on_c, 2, 80, 0
4, 9000, Note_on_c, 2, 78, 0
4, 9000, Note_on_c, 2, 76, 81
4, 9180, Note_on_c, 2, 76, 0
4, 15840, Note_on_c, 2, 73, 81
4, 15930, Note_on_c, 2, 73, 0
4, 15930, Note_on_c, 2, 75, 81
4, 15960, Note_on_c, 2, 75, 0
4, 15960, Note_on_c, 2, 73, 81
4, 16020, Note_on_c, 2, 73, 0
4, 16020, Note_on_c, 2, 73, 81
4, 16140, Note_on_c, 2, 73, 0
4, 16140, Note_on_c, 2, 75, 81
4, 16200, Note_on_c, 2, 75, 0
4, 16200, Note_on_c, 2, 75, 81
4, 16380, Note_on_c, 2, 76, 81
4, 16385, Note_on_c, 2, 75, 0
4, 16500, Note_on_c, 2, 76, 0
4, 16500, Note_on_c, 2, 75, 81
4, 16560, Note_on_c, 2, 75, 0
4, 16560, Note_on_c, 2, 73, 81
4, 16650, Note_on_c, 2, 73, 0
4, 16650, Note_on_c, 2, 75, 81
4, 16680, Note_on_c, 2, 75, 0
4, 16680, Note_on_c, 2, 73, 81
4, 16740, Note_on_c, 2, 73, 0
4, 16740, Note_on_c, 2, 73, 81
4, 16860, Note_on_c, 2, 73, 0
4, 16860, Note_on_c, 2, 75, 81
4, 16920, Note_on_c, 2, 75, 0
4, 16920, Note_on_c, 2, 75, 81
4, 17100, Note_on_c, 2, 76, 81
4, 17105, Note_on_c, 2, 75, 0
4, 17220, Note_on_c, 2, 76, 0
4, 17220, Note_on_c, 2, 75, 81
4, 17280, Note_on_c, 2, 75, 0
4, 17280, Note_on_c, 2, 73, 81
4, 17370, Note_on_c, 2, 73, 0
4, 17370, Note_on_c, 2, 75, 81
4, 17400, Note_on_c, 2, 75, 0
4, 17400, Note_on_c, 2, 76, 81
4, 17460, Note_on_c, 2, 76, 0
4, 17460, Note_on_c, 2, 76, 81
4, 17550, Note_on_c, 2, 76, 0
4, 17550, Note_on_c, 2, 75, 81
4, 17580, Note_on_c, 2, 75, 0
4, 17580, Note_on_c, 2, 73, 81
4, 17638, Note_on_c, 2, 73, 0
4, 17639, Pitch_bend_c, 2, 16383
4, 17640, Note_on_c, 2, 73, 81
4, 17655, Pitch_bend_c, 2, 8192
4, 17670, Pitch_bend_c, 2, 16383
4, 17685, Pitch_bend_c, 2, 8192
4, 17700, Pitch_bend_c, 2, 16383
4, 17715, Pitch_bend_c, 2, 8192
4, 17730, Pitch_bend_c, 2, 16383
4, 17745, Pitch_bend_c, 2, 8192
4, 17760, Pitch_bend_c, 2, 16383
4, 17775, Pitch_bend_c, 2, 8192
4, 17790, Pitch_bend_c, 2, 16383
4, 17805, Pitch_bend_c, 2, 8192
4, 17820, Note_on_c, 2, 73, 0
4, 17820, Note_on_c, 2, 72, 81
4, 18000, Note_on_c, 2, 72, 0
4, 18000, Note_on_c, 2, 76, 81
4, 18540, Note_on_c, 2, 76, 0
4, 18540, Note_on_c, 2, 75, 81
4, 18900, Note_on_c, 2, 75, 0
4, 18900, Note_on_c, 2, 73, 81
4, 19260, Note_on_c, 2, 73, 0
4, 19260, Note_on_c, 2, 72, 81
4, 19440, Note_on_c, 2, 72, 0
4, 19440, Note_on_c, 2, 76, 47
4, 19980, Note_on_c, 2, 76, 0
4, 19980, Note_on_c, 2, 75, 47
4, 20340, Note_on_c, 2, 75, 0
4, 20340, Note_on_c, 2, 73, 47
4, 20700, Note_on_c, 2, 73, 0
4, 20700, Note_on_c, 2, 72, 47
4, 20880, Note_on_c, 2, 72, 0
4, 20880, Note_on_c, 2, 76, 81
4, 21240, Note_on_c, 2, 76, 0
4, 21240, Note_on_c, 2, 78, 81
4, 21600, Note_on_c, 2, 78, 0
4, 21600, Note_on_c, 2, 75, 81
4, 21960, Note_on_c, 2, 75, 0
4, 21960, Note_on_c, 2, 76, 81
4, 22320, Note_on_c, 2, 76, 0
4, 22320, Note_on_c, 2, 78, 81
4, 22680, Note_on_c, 2, 78, 0
4, 22680, Note_on_c, 2, 76, 81
4, 22740, Note_on_c, 2, 71, 81
4, 22745, Note_on_c, 2, 76, 0
4, 22800, Note_on_c, 2, 68, 81
4, 22805, Note_on_c, 2, 71, 0
4, 22860, Note_on_c, 2, 68, 0
4, 22860, Note_on_c, 2, 68, 81
4, 22980, Note_on_c, 2, 68, 0
4, 22980, Note_on_c, 2, 76, 81
4, 23040, Note_on_c, 2, 76, 0
4, 23040, Note_on_c, 2, 75, 81
4, 23400, Note_on_c, 2, 75, 0
4, 23400, Note_on_c, 2, 76, 81
4, 23460, Note_on_c, 2, 71, 81
4, 23465, Note_on_c, 2, 76, 0
4, 23520, Note_on_c, 2, 68, 81
4, 23525, Note_on_c, 2, 71, 0
4, 23700, Note_on_c, 2, 68, 0
4, 23700, Note_on_c, 2, 76, 81
4, 23760, Note_on_c, 2, 76, 0
4, 23760, Note_on_c, 2, 82, 81
4, 23820, Note_on_c, 2, 80, 81
4, 23825, Note_on_c, 2, 82, 0
4, 23880, Note_on_c, 2, 78, 81
4, 23885, Note_on_c, 2, 80, 0
4, 23940, Note_on_c, 2, 78, 0
4, 23940, Note_on_c, 2, 82, 81
4, 24000, Note_on_c, 2, 80, 81
4, 24005, Note_on_c, 2, 82, 0
4, 24060, Note_on_c, 2, 78, 81
4, 24065, Note_on_c, 2, 80, 0
4, 24120, Note_on_c, 2, 78, 0
4, 24120, Note_on_c, 2, 78, 81
4, 24180, Note_on_c, 2, 76, 81
4, 24185, Note_on_c, 2, 78, 0
4, 24240, Note_on_c, 2, 75, 81
4, 24245, Note_on_c, 2, 76, 0
4, 24300, Note_on_c, 2, 75, 0
4, 24300, Note_on_c, 2, 75, 81
4, 24360, Note_on_c, 2, 76, 81
4, 24365, Note_on_c, 2, 75, 0
4, 24420, Note_on_c, 2, 78, 81
4, 24425, Note_on_c, 2, 76, 0
4, 24480, Note_on_c, 2, 78, 0
4, 24480, Note_on_c, 2, 73, 81
4, 24660, Note_on_c, 2, 73, 0
4, 24660, Note_on_c, 2, 73, 81
4, 24840, Note_on_c, 2, 73, 0
4, 24840, Note_on_c, 2, 75, 81
4, 25020, Note_on_c, 2, 75, 0
4, 34920, Note_on_c, 2, 80, 47
4, 34975, Note_on_c, 2, 80, 0
4, 34980, Note_on_c, 2, 80, 47
4, 35035, Note_on_c, 2, 80, 0
4, 35040, Note_on_c, 2, 80, 47
4, 35095, Note_on_c, 2, 80, 0
4, 35100, Note_on_c, 2, 80, 47
4, 35155, Note_on_c, 2, 80, 0
4, 35160, Note_on_c, 2, 80, 47
4, 35215, Note_on_c, 2, 80, 0
4, 35220, Note_on_c, 2, 80, 47
4, 35275, Note_on_c, 2, 80, 0
4, 35280, Note_on_c, 2, 80, 47
4, 35335, Note_on_c, 2, 80, 0
4, 35340, Note_on_c, 2, 80, 47
4, 35395, Note_on_c, 2, 80, 0
4, 35400, Note_on_c, 2, 80, 47
4, 35455, Note_on_c, 2, 80, 0
4, 35460, Note_on_c, 2, 80, 47
4, 35515, Note_on_c, 2, 80, 0
4, 35520, Note_on_c, 2, 80, 47
4, 35575, Note_on_c, 2, 80, 0
4, 35580, Note_on_c, 2, 80, 47
4, 35635, Note_on_c, 2, 80, 0
4, 35640, Note_on_c, 2, 78, 47
4, 35695, Note_on_c, 2, 78, 0
4, 35700, Note_on_c, 2, 78, 47
4, 35755, Note_on_c, 2, 78, 0
4, 35760, Note_on_c, 2, 78, 47
4, 35815, Note_on_c, 2, 78, 0
4, 35820, Note_on_c, 2, 78, 47
4, 35875, Note_on_c, 2, 78, 0
4, 35880, Note_on_c, 2, 78, 47
4, 35935, Note_on_c, 2, 78, 0
4, 35940, Note_on_c, 2, 78, 47
4, 35995, Note_on_c, 2, 78, 0
4, 36000, Note_on_c, 2, 78, 47
4, 36055, Note_on_c, 2, 78, 0
4, 36060, Note_on_c, 2, 78, 47
4, 36115, Note_on_c, 2, 78, 0
4, 36120, Note_on_c, 2, 78, 47
4, 36175, Note_on_c, 2, 78, 0
4, 36180, Note_on_c, 2, 78, 47
4, 36235, Note_on_c, 2, 78, 0
4, 36240, Note_on_c, 2, 78, 47
4, 36295, Note_on_c, 2, 78, 0
4, 36300, Note_on_c, 2, 78, 47
4, 36355, Note_on_c, 2, 78, 0
4, 36360, Note_on_c, 2, 76, 47
4, 36415, Note_on_c, 2, 76, 0
4, 36420, Note_on_c, 2, 76, 47
4, 36475, Note_on_c, 2, 76, 0
4, 36480, Note_on_c, 2, 76, 47
4, 36535, Note_on_c, 2, 76, 0
4, 36540, Note_on_c, 2, 76, 47
4, 36595, Note_on_c, 2, 76, 0
4, 36600, Note_on_c, 2, 76, 47
4, 36655, Note_on_c, 2, 76, 0
4, 36660, Note_on_c, 2, 76, 47
4, 36715, Note_on_c, 2, 76, 0
4, 36720, Note_on_c, 2, 76, 47
4, 36775, Note_on_c, 2, 76, 0
4, 36780, Note_on_c, 2, 76, 47
4, 36835, Note_on_c, 2, 76, 0
4, 36840, Note_on_c, 2, 76, 47
4, 36895, Note_on_c, 2, 76, 0
4, 36900, Note_on_c, 2, 76, 47
4, 36955, Note_on_c, 2, 76, 0
4, 36960, Note_on_c, 2, 76, 47
4, 37015, Note_on_c, 2, 76, 0
4, 37020, Note_on_c, 2, 76, 47
4, 37075, Note_on_c, 2, 76, 0
4, 37080, Note_on_c, 2, 75, 47
4, 37135, Note_on_c, 2, 75, 0
4, 37140, Note_on_c, 2, 75, 47
4, 37195, Note_on_c, 2, 75, 0
4, 37200, Note_on_c, 2, 75, 47
4, 37255, Note_on_c, 2, 75, 0
4, 37260, Note_on_c, 2, 75, 47
4, 37315, Note_on_c, 2, 75, 0
4, 37320, Note_on_c, 2, 75, 47
4, 37375, Note_on_c, 2, 75, 0
4, 37380, Note_on_c, 2, 75, 47
4, 37435, Note_on_c, 2, 75, 0
4, 37440, Note_on_c, 2, 75, 47
4, 37495, Note_on_c, 2, 75, 0
4, 37500, Note_on_c, 2, 75, 47
4, 37555, Note_on_c, 2, 75, 0
4, 37560, Note_on_c, 2, 75, 47
4, 37615, Note_on_c, 2, 75, 0
4, 37620, Note_on_c, 2, 75, 47
4, 37675, Note_on_c, 2, 75, 0
4, 37680, Note_on_c, 2, 75, 47
4, 37735, Note_on_c, 2, 75, 0
4, 37740, Note_on_c, 2, 75, 47
4, 37795, Note_on_c, 2, 75, 0
4, 37800, Note_on_c, 2, 76, 47
4, 37855, Note_on_c, 2, 76, 0
4, 37860, Note_on_c, 2, 76, 47
4, 37915, Note_on_c, 2, 76, 0
4, 37920, Note_on_c, 2, 76, 47
4, 37975, Note_on_c, 2, 76, 0
4, 37980, Note_on_c, 2, 76, 47
4, 38035, Note_on_c, 2, 76, 0
4, 38040, Note_on_c, 2, 76, 47
4, 38095, Note_on_c, 2, 76, 0
4, 38100, Note_on_c, 2, 76, 47
4, 38155, Note_on_c, 2, 76, 0
4, 38160, Note_on_c, 2, 76, 47
4, 38215, Note_on_c, 2, 76, 0
4, 38220, Note_on_c, 2, 76, 47
4, 38275, Note_on_c, 2, 76, 0
4, 38280, Note_on_c, 2, 76, 47
4, 38335, Note_on_c, 2, 76, 0
4, 38340, Note_on_c, 2, 76, 47
4, 38395, Note_on_c, 2, 76, 0
4, 38400, Note_on_c, 2, 76, 47
4, 38455, Note_on_c, 2, 76, 0
4, 38460, Note_on_c, 2, 76, 47
4, 38515, Note_on_c, 2, 76, 0
4, 38520, Note_on_c, 2, 76, 47
4, 38575, Note_on_c, 2, 76, 0
4, 38580, Note_on_c, 2, 76, 47
4, 38635, Note_on_c, 2, 76, 0
4, 38640, Note_on_c, 2, 76, 47
4, 38695, Note_on_c, 2, 76, 0
4, 38700, Note_on_c, 2, 76, 47
4, 38755, Note_on_c, 2, 76, 0
4, 38760, Note_on_c, 2, 76, 47
4, 38815, Note_on_c, 2, 76, 0
4, 38820, Note_on_c, 2, 76, 47
4, 38875, Note_on_c, 2, 76, 0
4, 38880, Note_on_c, 2, 76, 47
4, 38935, Note_on_c, 2, 76, 0
4, 38940, Note_on_c, 2, 76, 47
4, 38995, Note_on_c, 2, 76, 0
4, 39000, Note_on_c, 2, 76, 47
4, 39055, Note_on_c, 2, 76, 0
4, 39060, Note_on_c, 2, 76, 47
4, 39115, Note_on_c, 2, 76, 0
4, 39120, Note_on_c, 2, 76, 47
4, 39175, Note_on_c, 2, 76, 0
4, 39180, Note_on_c, 2, 76, 47
4, 39235, Note_on_c, 2, 76, 0
4, 39240, Note_on_c, 2, 75, 47
4, 39295, Note_on_c, 2, 75, 0
4, 39300, Note_on_c, 2, 75, 47
4, 39355, Note_on_c, 2, 75, 0
4, 39360, Note_on_c, 2, 75, 47
4, 39415, Note_on_c, 2, 75, 0
4, 39420, Note_on_c, 2, 75, 47
4, 39475, Note_on_c, 2, 75, 0
4, 39480, Note_on_c, 2, 75, 47
4, 39535, Note_on_c, 2, 75, 0
4, 39540, Note_on_c, 2, 75, 47
4, 39595, Note_on_c, 2, 75, 0
4, 39600, Note_on_c, 2, 75, 47
4, 39655, Note_on_c, 2, 75, 0
4, 39660, Note_on_c, 2, 75, 47
4, 39715, Note_on_c, 2, 75, 0
4, 39720, Note_on_c, 2, 75, 47
4, 39775, Note_on_c, 2, 75, 0
4, 39780, Note_on_c, 2, 75, 47
4, 39835, Note_on_c, 2, 75, 0
4, 39840, Note_on_c, 2, 75, 47
4, 39895, Note_on_c, 2, 75, 0
4, 39900, Note_on_c, 2, 75, 47
4, 39955, Note_on_c, 2, 75, 0
4, 39960, Note_on_c, 2, 73, 47
4, 40015, Note_on_c, 2, 73, 0
4, 40020, Note_on_c, 2, 73, 47
4, 40075, Note_on_c, 2, 73, 0
4, 40080, Note_on_c, 2, 73, 47
4, 40135, Note_on_c, 2, 73, 0
4, 40140, Note_on_c, 2, 73, 47
4, 40195, Note_on_c, 2, 73, 0
4, 40200, Note_on_c, 2, 73, 47
4, 40255, Note_on_c, 2, 73, 0
4, 40260, Note_on_c, 2, 73, 47
4, 40315, Note_on_c, 2, 73, 0
4, 40320, Note_on_c, 2, 73, 47
4, 40375, Note_on_c, 2, 73, 0
4, 40380, Note_on_c, 2, 73, 47
4, 40435, Note_on_c, 2, 73, 0
4, 40440, Note_on_c, 2, 73, 47
4, 40495, Note_on_c, 2, 73, 0
4, 40500, Note_on_c, 2, 73, 47
4, 40555, Note_on_c, 2, 73, 0
4, 40560, Note_on_c, 2, 73, 47
4, 40615, Note_on_c, 2, 73, 0
4, 40620, Note_on_c, 2, 73, 47
4, 40675, Note_on_c, 2, 73, 0
4, 40680, Note_on_c, 2, 73, 47
4, 40735, Note_on_c, 2, 73, 0
4, 40740, Note_on_c, 2, 73, 47
4, 40795, Note_on_c, 2, 73, 0
4, 40800, Note_on_c, 2, 73, 47
4, 40855, Note_on_c, 2, 73, 0
4, 40860, Note_on_c, 2, 73, 47
4, 40915, Note_on_c, 2, 73, 0
4, 40920, Note_on_c, 2, 73, 47
4, 40975, Note_on_c, 2, 73, 0
4, 40980, Note_on_c, 2, 73, 47
4, 41035, Note_on_c, 2, 73, 0
4, 41040, Note_on_c, 2, 73, 47
4, 41095, Note_on_c, 2, 73, 0
4, 41100, Note_on_c, 2, 73, 47
4, 41155, Note_on_c, 2, 73, 0
4, 41160, Note_on_c, 2, 73, 47
4, 41215, Note_on_c, 2, 73, 0
4, 41220, Note_on_c, 2, 73, 47
4, 41275, Note_on_c, 2, 73, 0
4, 41280, Note_on_c, 2, 73, 47
4, 41335, Note_on_c, 2, 73, 0
4, 41340, Note_on_c, 2, 73, 47
4, 41395, Note_on_c, 2, 73, 0
4, 41400, Note_on_c, 2, 75, 47
4, 41580, Note_on_c, 2, 75, 0
4, 41760, Note_on_c, 2, 75, 47
4, 41940, Note_on_c, 2, 75, 0
4, 42120, Note_on_c, 2, 76, 81
4, 42210, Note_on_c, 2, 76, 0
4, 42210, Note_on_c, 2, 78, 81
4, 42240, Note_on_c, 2, 78, 0
4, 42240, Note_on_c, 2, 76, 81
4, 42300, Note_on_c, 2, 76, 0
4, 42300, Note_on_c, 2, 76, 81
4, 42420, Note_on_c, 2, 76, 0
4, 42420, Note_on_c, 2, 78, 81
4, 42480, Note_on_c, 2, 78, 0
4, 42480, Note_on_c, 2, 78, 81
4, 42660, Note_on_c, 2, 80, 81
4, 42665, Note_on_c, 2, 78, 0
4, 42780, Note_on_c, 2, 80, 0
4, 42780, Note_on_c, 2, 78, 81
4, 42840, Note_on_c, 2, 78, 0
4, 42840, Note_on_c, 2, 76, 81
4, 42930, Note_on_c, 2, 76, 0
4, 42930, Note_on_c, 2, 78, 81
4, 42960, Note_on_c, 2, 78, 0
4, 42960, Note_on_c, 2, 76, 81
4, 43020, Note_on_c, 2, 76, 0
4, 43020, Note_on_c, 2, 76, 81
4, 43140, Note_on_c, 2, 76, 0
4, 43140, Note_on_c, 2, 78, 81
4, 43200, Note_on_c, 2, 78, 0
4, 43200, Note_on_c, 2, 78, 81
4, 43380, Note_on_c, 2, 80, 81
4, 43385, Note_on_c, 2, 78, 0
4, 43500, Note_on_c, 2, 80, 0
4, 43500, Note_on_c, 2, 78, 81
4, 43560, Note_on_c, 2, 78, 0
4, 43560, Note_on_c, 2, 76, 81
4, 43650, Note_on_c, 2, 76, 0
4, 43650, Note_on_c, 2, 78, 81
4, 43680, Note_on_c, 2, 78, 0
4, 43680, Note_on_c, 2, 80, 81
4, 43740, Note_on_c, 2, 80, 0
4, 43740, Note_on_c, 2, 80, 81
4, 43830, Note_on_c, 2, 80, 0
4, 43830, Note_on_c, 2, 78, 81
4, 43860, Note_on_c, 2, 78, 0
4, 43860, Note_on_c, 2, 76, 81
4, 43920, Note_on_c, 2, 76, 0
4, 43920, Note_on_c, 2, 76, 81
4, 44100, Note_on_c, 2, 76, 0
4, 44100, Note_on_c, 2, 75, 81
4, 44280, Note_on_c, 2, 75, 0
4, 44280, Note_on_c, 2, 76, 81
4, 44370, Note_on_c, 2, 76, 0
4, 44370, Note_on_c, 2, 78, 81
4, 44400, Note_on_c, 2, 78, 0
4, 44400, Note_on_c, 2, 76, 81
4, 44460, Note_on_c, 2, 76, 0
4, 44460, Note_on_c, 2, 76, 81
4, 44580, Note_on_c, 2, 76, 0
4, 44580, Note_on_c, 2, 78, 81
4, 44640, Note_on_c, 2, 78, 0
4, 44640, Note_on_c, 2, 76, 81
4, 44820, Note_on_c, 2, 75, 81
4, 44825, Note_on_c, 2, 76, 0
4, 45000, Note_on_c, 2, 75, 0
4, 45000, Note_on_c, 2, 74, 81
4, 45090, Note_on_c, 2, 74, 0
4, 45090, Note_on_c, 2, 76, 81
4, 45120, Note_on_c, 2, 76, 0
4, 45120, Note_on_c, 2, 74, 81
4, 45180, Note_on_c, 2, 74, 0
4, 45180, Note_on_c, 2, 74, 81
4, 45300, Note_on_c, 2, 74, 0
4, 45300, Note_on_c, 2, 76, 81
4, 45360, Note_on_c, 2, 76, 0
4, 45360, Note_on_c, 2, 74, 81
4, 45540, Note_on_c, 2, 73, 81
4, 45545, Note_on_c, 2, 74, 0
4, 45720, Note_on_c, 2, 73, 0
4, 45720, Note_on_c, 2, 72, 81
4, 45810, Note_on_c, 2, 72, 0
4, 45810, Note_on_c, 2, 74, 81
4, 45840, Note_on_c, 2, 74, 0
4, 45840, Note_on_c, 2, 72, 81
4, 45900, Note_on_c, 2, 72, 0
4, 45900, Note_on_c, 2, 72, 81
4, 46020, Note_on_c, 2, 72, 0
4, 46020, Note_on_c, 2, 72, 81
4, 46080, Note_on_c, 2, 72, 0
4, 46080, Note_on_c, 2, 72, 81
4, 46260, Note_on_c, 2, 72, 0
4, 46260, Note_on_c, 2, 71, 81
4, 46440, Note_on_c, 2, 71, 0
4, 46440, Note_on_c, 2, 74, 81
4, 46800, Note_on_c, 2, 74, 0
4, 46800, Note_on_c, 2, 72, 81
4, 47520, Note_on_c, 2, 72, 0
4, 47520, Note_on_c, 2, 71, 81
4, 47880, Note_on_c, 2, 71, 0
4, 47880, Note_on_c, 2, 79, 81
4, 48240, Note_on_c, 2, 79, 0
4, 48240, Note_on_c, 2, 72, 81
4, 48420, Note_on_c, 2, 72, 0
4, 48420, Note_on_c, 2, 74, 81
4, 48600, Note_on_c, 2, 74, 0
4, 48600, Note_on_c, 2, 76, 81
4, 48780, Note_on_c, 2, 76, 0
4, 48780, Note_on_c, 2, 75, 81
4, 48960, Note_on_c, 2, 75, 0
4, 48960, Note_on_c, 2, 76, 81
4, 49140, Note_on_c, 2, 76, 0
4, 49140, Note_on_c, 2, 79, 81
4, 49200, Note_on_c, 2, 78, 81
4, 49205, Note_on_c, 2, 79, 0
4, 49260, Note_on_c, 2, 76, 81
4, 49265, Note_on_c, 2, 78, 0
4, 49320, Note_on_c, 2, 76, 0
4, 49320, Note_on_c, 2, 83, 81
4, 49500, Note_on_c, 2, 83, 0
4, 49500, Note_on_c, 2, 78, 81
4, 49560, Note_on_c, 2, 76, 81
4, 49565, Note_on_c, 2, 78, 0
4, 49620, Note_on_c, 2, 74, 81
4, 49625, Note_on_c, 2, 76, 0
4, 49680, Note_on_c, 2, 74, 0
4, 49680, Note_on_c, 2, 81, 81
4, 49860, Note_on_c, 2, 81, 0
4, 49860, Note_on_c, 2, 76, 81
4, 49920, Note_on_c, 2, 74, 81
4, 49925, Note_on_c, 2, 76, 0
4, 49980, Note_on_c, 2, 72, 81
4, 49985, Note_on_c, 2, 74, 0
4, 50040, Note_on_c, 2, 72, 0
4, 50040, Note_on_c, 2, 78, 81
4, 50100, Note_on_c, 2, 76, 81
4, 50105, Note_on_c, 2, 78, 0
4, 50160, Note_on_c, 2, 75, 81
4, 50165, Note_on_c, 2, 76, 0
4, 50220, Note_on_c, 2, 75, 0
4, 50220, Note_on_c, 2, 78, 81
4, 50400, Note_on_c, 2, 78, 0
4, 50400, Note_on_c, 2, 76, 81
4, 50580, Note_on_c, 2, 76, 0
4, 50580, Note_on_c, 2, 79, 81
4, 50760, Note_on_c, 2, 79, 0
4, 50760, Note_on_c, 2, 78, 81
4, 51120, Note_on_c, 2, 78, 0
4, 51120, Note_on_c, 2, 76, 81
4, 51480, Note_on_c, 2, 76, 0
4, 51480, Note_on_c, 2, 75, 81
4, 51660, Note_on_c, 2, 75, 0
4, 57240, Note_on_c, 2, 76, 81
4, 57330, Note_on_c, 2, 76, 0
4, 57330, Note_on_c, 2, 78, 81
4, 57360, Note_on_c, 2, 78, 0
4, 57360, Note_on_c, 2, 76, 81
4, 57420, Note_on_c, 2, 76, 0
4, 57420, Note_on_c, 2, 76, 81
4, 57540, Note_on_c, 2, 76, 0
4, 57540, Note_on_c, 2, 78, 81
4, 57600, Note_on_c, 2, 78, 0
4, 57600, Note_on_c, 2, 78, 81
4, 57780, Note_on_c, 2, 80, 81
4, 57785, Note_on_c, 2, 78, 0
4, 57900, Note_on_c, 2, 80, 0
4, 57900, Note_on_c, 2, 78, 81
4, 57960, Note_on_c, 2, 78, 0
4, 57960, Note_on_c, 2, 76, 81
4, 58050, Note_on_c, 2, 76, 0
4, 58050, Note_on_c, 2, 78, 81
4, 58080, Note_on_c, 2, 78, 0
4, 58080, Note_on_c, 2, 76, 81
4, 58140, Note_on_c, 2, 76, 0
4, 58140, Note_on_c, 2, 76, 81
4, 58260, Note_on_c, 2, 76, 0
4, 58260, Note_on_c, 2, 78, 81
4, 58320, Note_on_c, 2, 78, 0
4, 58320, Note_on_c, 2, 78, 81
4, 58500, Note_on_c, 2, 80, 81
4, 58505, Note_on_c, 2, 78, 0
4, 58620, Note_on_c, 2, 80, 0
4, 58620, Note_on_c, 2, 78, 81
4, 58680, Note_on_c, 2, 78, 0
4, 58680, Note_on_c, 2, 76, 81
4, 58770, Note_on_c, 2, 76, 0
4, 58770, Note_on_c, 2, 78, 81
4, 58800, Note_on_c, 2, 78, 0
4, 58800, Note_on_c, 2, 80, 81
4, 58860, Note_on_c, 2, 80, 0
4, 58860, Note_on_c, 2, 80, 81
4, 58950, Note_on_c, 2, 80, 0
4, 58950, Note_on_c, 2, 78, 81
4, 58980, Note_on_c, 2, 78, 0
4, 58980, Note_on_c, 2, 76, 81
4, 59040, Note_on_c, 2, 76, 0
4, 59040, Note_on_c, 2, 75, 81
4, 59130, Note_on_c, 2, 75, 0
4, 59130, Note_on_c, 2, 73, 81
4, 59160, Note_on_c, 2, 73, 0
4, 59160, Note_on_c, 2, 71, 81
4, 59220, Note_on_c, 2, 71, 0
4, 59220, Note_on_c, 2, 71, 81
4, 59310, Note_on_c, 2, 71, 0
4, 59310, Note_on_c, 2, 73, 81
4, 59340, Note_on_c, 2, 73, 0
4, 59340, Note_on_c, 2, 75, 81
4, 59400, Note_on_c, 2, 75, 0
4, 59400, Note_on_c, 2, 75, 81
4, 59490, Note_on_c, 2, 75, 0
4, 59490, Note_on_c, 2, 76, 81
4, 59520, Note_on_c, 2, 76, 0
4, 59520, Note_on_c, 2, 78, 81
4, 59580, Note_on_c, 2, 78, 0
4, 59580, Note_on_c, 2, 78, 81
4, 59670, Note_on_c, 2, 78, 0
4, 59670, Note_on_c, 2, 76, 81
4, 59700, Note_on_c, 2, 76, 0
4, 59700, Note_on_c, 2, 75, 81
4, 59760, Note_on_c, 2, 75, 0
4, 59760, Note_on_c, 2, 75, 81
4, 59850, Note_on_c, 2, 75, 0
4, 59850, Note_on_c, 2, 73, 81
4, 59880, Note_on_c, 2, 73, 0
4, 59880, Note_on_c, 2, 71, 81
4, 59940, Note_on_c, 2, 71, 0
4, 59940, Note_on_c, 2, 71, 81
4, 60030, Note_on_c, 2, 71, 0
4, 60030, Note_on_c, 2, 73, 81
4, 60060, Note_on_c, 2, 73, 0
4, 60060, Note_on_c, 2, 75, 81
4, 60120, Note_on_c, 2, 75, 0
4, 60120, Note_on_c, 2, 75, 81
4, 60210, Note_on_c, 2, 75, 0
4, 60210, Note_on_c, 2, 76, 81
4, 60240, Note_on_c, 2, 76, 0
4, 60240, Note_on_c, 2, 78, 81
4, 60300, Note_on_c, 2, 78, 0
4, 60300, Note_on_c, 2, 78, 81
4, 60390, Note_on_c, 2, 78, 0
4, 60390, Note_on_c, 2, 76, 81
4, 60420, Note_on_c, 2, 76, 0
4, 60420, Note_on_c, 2, 75, 81
4, 60480, Note_on_c, 2, 75, 0
4, 60480, Note_on_c, 2, 76, 81
4, 60660, Note_on_c, 2, 76, 0
4, 60660, Note_on_c, 2, 81, 81
4, 60840, Note_on_c, 2, 80, 81
4, 60845, Note_on_c, 2, 81, 0
4, 61020, Note_on_c, 2, 78, 81
4, 61025, Note_on_c, 2, 80, 0
4, 61200, Note_on_c, 2, 78, 0
4, 61200, Note_on_c, 2, 76, 81
4, 61290, Note_on_c, 2, 76, 0
4, 61290, Note_on_c, 2, 78, 81
4, 61320, Note_on_c, 2, 78, 0
4, 61320, Note_on_c, 2, 76, 81
4, 61380, Note_on_c, 2, 76, 0
4, 61380, Note_on_c, 2, 81, 81
4, 61560, Note_on_c, 2, 80, 81
4, 61565, Note_on_c, 2, 81, 0
4, 61740, Note_on_c, 2, 78, 81
4, 61745, Note_on_c, 2, 80, 0
4, 61920, Note_on_c, 2, 78, 0
4, 61920, Note_on_c, 2, 76, 81
4, 62100, Note_on_c, 2, 76, 0
4, 62100, Note_on_c, 2, 75, 81
4, 62280, Note_on_c, 2, 75, 0
4, 62280, Note_on_c, 2, 76, 81
4, 62460, Note_on_c, 2, 76, 0
4, 62460, Note_on_c, 2, 81, 47
4, 62640, Note_on_c, 2, 80, 47
4, 62645, Note_on_c, 2, 81, 0
4, 62820, Note_on_c, 2, 78, 47
4, 62825, Note_on_c, 2, 80, 0
4, 63000, Note_on_c, 2, 78, 0
4, 63000, Note_on_c, 2, 76, 47
4, 63090, Note_on_c, 2, 76, 0
4, 63090, Note_on_c, 2, 78, 47
4, 63120, Note_on_c, 2, 78, 0
4, 63120, Note_on_c, 2, 76, 47
4, 63180, Note_on_c, 2, 76, 0
4, 63180, Note_on_c, 2, 81, 47
4, 63360, Note_on_c, 2, 80, 47
4, 63365, Note_on_c, 2, 81, 0
4, 63540, Note_on_c, 2, 78, 47
4, 63545, Note_on_c, 2, 80, 0
4, 63720, Note_on_c, 2, 78, 0
4, 63720, Note_on_c, 2, 76, 47
4, 63900, Note_on_c, 2, 76, 0
4, 63900, Note_on_c, 2, 75, 47
4, 64080, Note_on_c, 2, 75, 0
4, 64080, Note_on_c, 2, 76, 47
4, 64800, Note_on_c, 2, 76, 0
4, 65161, Program_c, 2, 0
4, 65162, Control_c, 2, 7, 100
4, 65163, Control_c, 2, 10, 64
4, 65164, Control_c, 2, 93, 0
4, 65165, Control_c, 2, 91, 40
4, 65166, Control_c, 2, 99, 1
4, 65167, Control_c, 2, 98, 8
4, 65168, Control_c, 2, 6, 64
4, 65169, Control_c, 2, 99, 1
4, 65170, Control_c, 2, 98, 10
4, 65171, Control_c, 2, 6, 64
4, 65172, Control_c, 2, 99, 1
4, 65173, Control_c, 2, 98, 9
4, 65174, Control_c, 2, 6, 64
4, 65175, Pitch_bend_c, 2, 8192
4, 65175, End_track
5, 0, Start_track
5, 0, MIDI_port, 1
5, 0, Title_t, "Viola"
5, 0, Program_c, 3, 41
5, 0, Control_c, 3, 7, 60
5, 0, Control_c, 3, 10, 127
5, 0, Program_c, 3, 41
5, 0, Control_c, 3, 7, 60
5, 0, Control_c, 3, 10, 127
5, 0, Control_c, 3, 93, 0
5, 0, Control_c, 3, 91, 120
5, 1, Text_t, "Non Registered Parameter Numbers"
5, 1, Text_t, "For Roland SC-55 Vibrato"
5, 1, Text_t, "Set up NRPN for Vibrate Rate"
5, 2, Control_c, 3, 99, 1
5, 3, Control_c, 3, 98, 8
5, 4, Text_t, "Data Entry Command"
5, 4, Control_c, 3, 6, 68
5, 5, Text_t, "Set up NRPN for Vibrate Delay"
5, 6, Control_c, 3, 99, 1
5, 7, Control_c, 3, 98, 10
5, 8, Text_t, "Data Entry Command"
5, 8, Control_c, 3, 6, 14
5, 9, Text_t, "Set up NRPN for Vibrate Depth"
5, 10, Control_c, 3, 99, 1
5, 11, Control_c, 3, 98, 9
5, 12, Text_t, "Data Entry Command; Vibrato ON"
5, 12, Control_c, 3, 6, 70
5, 13, Control_c, 3, 11, 127
5, 14, Pitch_bend_c, 3, 8192
5, 720, Note_on_c, 3, 71, 81
5, 720, Program_c, 3, 40
5, 2816, Control_c, 3, 11, 127
5, 2836, Control_c, 3, 11, 126
5, 2840, Control_c, 3, 11, 125
5, 2842, Control_c, 3, 11, 124
5, 2844, Control_c, 3, 11, 123
5, 2846, Control_c, 3, 11, 122
5, 2848, Control_c, 3, 11, 121
5, 2850, Control_c, 3, 11, 120
5, 2854, Control_c, 3, 11, 119
5, 2856, Control_c, 3, 11, 118
5, 2860, Control_c, 3, 11, 117
5, 2862, Control_c, 3, 11, 116
5, 2864, Control_c, 3, 11, 115
5, 2866, Control_c, 3, 11, 114
5, 2870, Control_c, 3, 11, 113
5, 2872, Control_c, 3, 11, 112
5, 2874, Control_c, 3, 11, 110
5, 2876, Control_c, 3, 11, 109
5, 2878, Control_c, 3, 11, 107
5, 2882, Control_c, 3, 11, 105
5, 2884, Control_c, 3, 11, 103
5, 2886, Control_c, 3, 11, 101
5, 2888, Control_c, 3, 11, 100
5, 2890, Control_c, 3, 11, 98
5, 2892, Control_c, 3, 11, 95
5, 2894, Control_c, 3, 11, 93
5, 4860, Note_on_c, 3, 71, 0
5, 4860, Note_on_c, 3, 66, 81
5, 4860, Control_c, 3, 11, 127
5, 4980, Note_on_c, 3, 66, 0
5, 4980, Note_on_c, 3, 63, 81
5, 5040, Note_on_c, 3, 63, 0
5, 5040, Note_on_c, 3, 66, 81
5, 5160, Note_on_c, 3, 66, 0
5, 5160, Note_on_c, 3, 63, 81
5, 5220, Note_on_c, 3, 63, 0
5, 5220, Note_on_c, 3, 68, 81
5, 5310, Note_on_c, 3, 68, 0
5, 5310, Note_on_c, 3, 66, 81
5, 5340, Note_on_c, 3, 66, 0
5, 5340, Note_on_c, 3, 64, 81
5, 5400, Note_on_c, 3, 64, 0
5, 5400, Note_on_c, 3, 64, 81
5, 5520, Note_on_c, 3, 64, 0
5, 5520, Note_on_c, 3, 63, 81
5, 5580, Note_on_c, 3, 63, 0
5, 5580, Note_on_c, 3, 66, 81
5, 5700, Note_on_c, 3, 66, 0
5, 5700, Note_on_c, 3, 63, 81
5, 5760, Note_on_c, 3, 63, 0
5, 5760, Note_on_c, 3, 66, 81
5, 5880, Note_on_c, 3, 66, 0
5, 5880, Note_on_c, 3, 63, 81
5, 5940, Note_on_c, 3, 63, 0
5, 5940, Note_on_c, 3, 68, 81
5, 6030, Note_on_c, 3, 68, 0
5, 6030, Note_on_c, 3, 66, 81
5, 6060, Note_on_c, 3, 66, 0
5, 6060, Note_on_c, 3, 64, 81
5, 6120, Note_on_c, 3, 64, 0
5, 6120, Note_on_c, 3, 64, 81
5, 6240, Note_on_c, 3, 64, 0
5, 6240, Note_on_c, 3, 63, 81
5, 6300, Note_on_c, 3, 63, 0
5, 6300, Note_on_c, 3, 71, 81
5, 6480, Note_on_c, 3, 71, 0
5, 6480, Note_on_c, 3, 69, 81
5, 7380, Note_on_c, 3, 69, 0
5, 7380, Note_on_c, 3, 63, 81
5, 7560, Note_on_c, 3, 63, 0
5, 7560, Program_c, 3, 41
5, 7560, Note_on_c, 3, 59, 81
5, 7740, Note_on_c, 3, 59, 0
5, 7740, Program_c, 3, 40
5, 7740, Note_on_c, 3, 64, 81
5, 7920, Note_on_c, 3, 64, 0
5, 7920, Note_on_c, 3, 64, 81
5, 8280, Note_on_c, 3, 64, 0
5, 8280, Program_c, 3, 41
5, 8280, Note_on_c, 3, 59, 81
5, 8460, Note_on_c, 3, 59, 0
5, 8460, Program_c, 3, 40
5, 8460, Note_on_c, 3, 64, 81
5, 8640, Note_on_c, 3, 64, 0
5, 8640, Note_on_c, 3, 64, 81
5, 9000, Note_on_c, 3, 64, 0
5, 9000, Program_c, 3, 41
5, 9000, Note_on_c, 3, 59, 81
5, 9180, Note_on_c, 3, 59, 0
5, 10800, Control_c, 3, 11, 127
5, 10800, Note_on_c, 3, 56, 81
5, 10980, Note_on_c, 3, 56, 0
5, 10980, Note_on_c, 3, 52, 81
5, 11160, Note_on_c, 3, 52, 0
5, 11160, Note_on_c, 3, 57, 81
5, 11340, Note_on_c, 3, 57, 0
5, 11520, Note_on_c, 3, 58, 81
5, 11700, Note_on_c, 3, 58, 0
5, 11700, Note_on_c, 3, 54, 81
5, 11880, Note_on_c, 3, 54, 0
5, 11880, Note_on_c, 3, 59, 81
5, 12060, Note_on_c, 3, 59, 0
5, 12240, Note_on_c, 3, 60, 81
5, 12420, Note_on_c, 3, 60, 0
5, 12420, Note_on_c, 3, 56, 81
5, 12600, Note_on_c, 3, 56, 0
5, 12600, Note_on_c, 3, 61, 81
5, 12780, Note_on_c, 3, 61, 0
5, 12780, Note_on_c, 3, 61, 81
5, 12960, Note_on_c, 3, 61, 0
5, 12960, Note_on_c, 3, 60, 81
5, 13140, Note_on_c, 3, 60, 0
5, 13140, Note_on_c, 3, 59, 81
5, 13320, Note_on_c, 3, 59, 0
5, 13320, Note_on_c, 3, 58, 81
5, 13500, Note_on_c, 3, 58, 0
5, 13500, Note_on_c, 3, 57, 81
5, 13680, Note_on_c, 3, 57, 0
5, 13680, Note_on_c, 3, 56, 81
5, 13860, Note_on_c, 3, 56, 0
5, 13860, Note_on_c, 3, 56, 81
5, 14040, Note_on_c, 3, 56, 0
5, 14040, Note_on_c, 3, 54, 81
5, 14220, Note_on_c, 3, 54, 0
5, 14220, Note_on_c, 3, 54, 81
5, 14400, Note_on_c, 3, 54, 0
5, 14400, Note_on_c, 3, 49, 81
5, 14580, Note_on_c, 3, 49, 0
5, 14580, Note_on_c, 3, 49, 81
5, 14760, Note_on_c, 3, 49, 0
5, 14760, Note_on_c, 3, 49, 81
5, 14940, Note_on_c, 3, 49, 0
5, 14940, Note_on_c, 3, 49, 81
5, 15120, Note_on_c, 3, 49, 0
5, 15120, Note_on_c, 3, 49, 81
5, 15300, Note_on_c, 3, 49, 0
5, 15300, Note_on_c, 3, 54, 81
5, 15480, Note_on_c, 3, 54, 0
5, 15480, Note_on_c, 3, 56, 81
5, 15660, Note_on_c, 3, 56, 0
5, 15660, Note_on_c, 3, 44, 81
5, 15840, Note_on_c, 3, 44, 0
5, 15840, Program_c, 3, 40
5, 15840, Note_on_c, 3, 68, 81
5, 18000, Note_on_c, 3, 68, 0
5, 18000, Note_on_c, 3, 68, 81
5, 18180, Note_on_c, 3, 68, 0
5, 18180, Note_on_c, 3, 64, 81
5, 18360, Note_on_c, 3, 64, 0
5, 18360, Note_on_c, 3, 71, 81
5, 18540, Note_on_c, 3, 71, 0
5, 18540, Note_on_c, 3, 68, 81
5, 18900, Note_on_c, 3, 68, 0
5, 18900, Note_on_c, 3, 69, 81
5, 19080, Note_on_c, 3, 69, 0
5, 19080, Note_on_c, 3, 68, 81
5, 19440, Note_on_c, 3, 68, 0
5, 19440, Note_on_c, 3, 68, 47
5, 19620, Note_on_c, 3, 68, 0
5, 19620, Note_on_c, 3, 64, 47
5, 19800, Note_on_c, 3, 64, 0
5, 19800, Note_on_c, 3, 71, 47
5, 19980, Note_on_c, 3, 71, 0
5, 19980, Note_on_c, 3, 68, 47
5, 20340, Note_on_c, 3, 68, 0
5, 20340, Note_on_c, 3, 69, 47
5, 20520, Note_on_c, 3, 69, 0
5, 20520, Note_on_c, 3, 68, 47
5, 20880, Note_on_c, 3, 68, 0
5, 20880, Note_on_c, 3, 68, 81
5, 21060, Note_on_c, 3, 68, 0
5, 21060, Note_on_c, 3, 73, 81
5, 21300, Note_on_c, 3, 71, 81
5, 21305, Note_on_c, 3, 73, 0
5, 21360, Note_on_c, 3, 73, 81
5, 21365, Note_on_c, 3, 71, 0
5, 21420, Note_on_c, 3, 73, 0
5, 21420, Note_on_c, 3, 73, 81
5, 21480, Note_on_c, 3, 71, 81
5, 21485, Note_on_c, 3, 73, 0
5, 21540, Note_on_c, 3, 69, 81
5, 21545, Note_on_c, 3, 71, 0
5, 21600, Note_on_c, 3, 69, 0
5, 21600, Note_on_c, 3, 71, 81
5, 22020, Note_on_c, 3, 69, 81
5, 22025, Note_on_c, 3, 71, 0
5, 22080, Note_on_c, 3, 71, 81
5, 22085, Note_on_c, 3, 69, 0
5, 22140, Note_on_c, 3, 71, 0
5, 22140, Note_on_c, 3, 71, 81
5, 22200, Note_on_c, 3, 69, 81
5, 22205, Note_on_c, 3, 71, 0
5, 22260, Note_on_c, 3, 68, 81
5, 22265, Note_on_c, 3, 69, 0
5, 22320, Note_on_c, 3, 68, 0
5, 22320, Note_on_c, 3, 63, 81
5, 22680, Note_on_c, 3, 63, 0
5, 22680, Program_c, 3, 41
5, 22680, Note_on_c, 3, 59, 81
5, 23040, Note_on_c, 3, 59, 0
5, 23040, Program_c, 3, 40
5, 23040, Note_on_c, 3, 63, 81
5, 23400, Note_on_c, 3, 63, 0
5, 23400, Program_c, 3, 41
5, 23400, Note_on_c, 3, 59, 81
5, 23760, Note_on_c, 3, 59, 0
5, 23760, Program_c, 3, 40
5, 23760, Note_on_c, 3, 66, 81
5, 24480, Note_on_c, 3, 66, 0
5, 24480, Note_on_c, 3, 68, 81
5, 24660, Note_on_c, 3, 68, 0
5, 24660, Note_on_c, 3, 66, 81
5, 24840, Note_on_c, 3, 66, 0
5, 24840, Note_on_c, 3, 66, 81
5, 25020, Note_on_c, 3, 66, 0
5, 30960, Program_c, 3, 41
5, 30960, Note_on_c, 3, 52, 81
5, 34920, Note_on_c, 3, 52, 0
5, 38520, Program_c, 3, 40
5, 38520, Note_on_c, 3, 66, 47
5, 38575, Note_on_c, 3, 66, 0
5, 38580, Note_on_c, 3, 66, 47
5, 38635, Note_on_c, 3, 66, 0
5, 38640, Note_on_c, 3, 66, 47
5, 38695, Note_on_c, 3, 66, 0
5, 38700, Note_on_c, 3, 66, 47
5, 38755, Note_on_c, 3, 66, 0
5, 38760, Note_on_c, 3, 66, 47
5, 38815, Note_on_c, 3, 66, 0
5, 38820, Note_on_c, 3, 66, 47
5, 38875, Note_on_c, 3, 66, 0
5, 38880, Note_on_c, 3, 66, 47
5, 38935, Note_on_c, 3, 66, 0
5, 38940, Note_on_c, 3, 66, 47
5, 38995, Note_on_c, 3, 66, 0
5, 39000, Note_on_c, 3, 66, 47
5, 39055, Note_on_c, 3, 66, 0
5, 39060, Note_on_c, 3, 66, 47
5, 39115, Note_on_c, 3, 66, 0
5, 39120, Note_on_c, 3, 66, 47
5, 39175, Note_on_c, 3, 66, 0
5, 39180, Note_on_c, 3, 66, 47
5, 39235, Note_on_c, 3, 66, 0
5, 39240, Program_c, 3, 41
5, 39240, Note_on_c, 3, 59, 47
5, 39295, Note_on_c, 3, 59, 0
5, 39300, Note_on_c, 3, 59, 47
5, 39355, Note_on_c, 3, 59, 0
5, 39360, Note_on_c, 3, 59, 47
5, 39415, Note_on_c, 3, 59, 0
5, 39420, Note_on_c, 3, 59, 47
5, 39475, Note_on_c, 3, 59, 0
5, 39480, Note_on_c, 3, 59, 47
5, 39535, Note_on_c, 3, 59, 0
5, 39540, Note_on_c, 3, 59, 47
5, 39595, Note_on_c, 3, 59, 0
5, 39600, Note_on_c, 3, 59, 47
5, 39655, Note_on_c, 3, 59, 0
5, 39660, Note_on_c, 3, 59, 47
5, 39715, Note_on_c, 3, 59, 0
5, 39720, Note_on_c, 3, 59, 47
5, 39775, Note_on_c, 3, 59, 0
5, 39780, Note_on_c, 3, 59, 47
5, 39835, Note_on_c, 3, 59, 0
5, 39840, Note_on_c, 3, 59, 47
5, 39895, Note_on_c, 3, 59, 0
5, 39900, Note_on_c, 3, 59, 47
5, 39955, Note_on_c, 3, 59, 0
5, 39960, Program_c, 3, 40
5, 39960, Note_on_c, 3, 66, 47
5, 40015, Note_on_c, 3, 66, 0
5, 40020, Note_on_c, 3, 66, 47
5, 40075, Note_on_c, 3, 66, 0
5, 40080, Note_on_c, 3, 66, 47
5, 40135, Note_on_c, 3, 66, 0
5, 40140, Note_on_c, 3, 66, 47
5, 40195, Note_on_c, 3, 66, 0
5, 40200, Note_on_c, 3, 66, 47
5, 40255, Note_on_c, 3, 66, 0
5, 40260, Note_on_c, 3, 66, 47
5, 40315, Note_on_c, 3, 66, 0
5, 40320, Note_on_c, 3, 66, 47
5, 40375, Note_on_c, 3, 66, 0
5, 40380, Note_on_c, 3, 66, 47
5, 40435, Note_on_c, 3, 66, 0
5, 40440, Note_on_c, 3, 66, 47
5, 40495, Note_on_c, 3, 66, 0
5, 40500, Note_on_c, 3, 66, 47
5, 40555, Note_on_c, 3, 66, 0
5, 40560, Note_on_c, 3, 66, 47
5, 40615, Note_on_c, 3, 66, 0
5, 40620, Note_on_c, 3, 66, 47
5, 40675, Note_on_c, 3, 66, 0
5, 40680, Note_on_c, 3, 66, 47
5, 40735, Note_on_c, 3, 66, 0
5, 40740, Note_on_c, 3, 66, 47
5, 40795, Note_on_c, 3, 66, 0
5, 40800, Note_on_c, 3, 66, 47
5, 40855, Note_on_c, 3, 66, 0
5, 40860, Note_on_c, 3, 66, 47
5, 40915, Note_on_c, 3, 66, 0
5, 40920, Note_on_c, 3, 66, 47
5, 40975, Note_on_c, 3, 66, 0
5, 40980, Note_on_c, 3, 66, 47
5, 41035, Note_on_c, 3, 66, 0
5, 41040, Note_on_c, 3, 66, 47
5, 41095, Note_on_c, 3, 66, 0
5, 41100, Note_on_c, 3, 66, 47
5, 41155, Note_on_c, 3, 66, 0
5, 41160, Note_on_c, 3, 66, 47
5, 41215, Note_on_c, 3, 66, 0
5, 41220, Note_on_c, 3, 66, 47
5, 41275, Note_on_c, 3, 66, 0
5, 41280, Note_on_c, 3, 66, 47
5, 41335, Note_on_c, 3, 66, 0
5, 41340, Note_on_c, 3, 66, 47
5, 41395, Note_on_c, 3, 66, 0
5, 41400, Program_c, 3, 41
5, 41400, Note_on_c, 3, 59, 47
5, 41580, Note_on_c, 3, 59, 0
5, 41760, Note_on_c, 3, 59, 47
5, 41940, Note_on_c, 3, 59, 0
5, 42120, Program_c, 3, 40
5, 42120, Note_on_c, 3, 71, 81
5, 44280, Note_on_c, 3, 71, 0
5, 44280, Note_on_c, 3, 71, 81
5, 44580, Note_on_c, 3, 71, 0
5, 44580, Note_on_c, 3, 72, 81
5, 44640, Note_on_c, 3, 72, 0
5, 44640, Note_on_c, 3, 66, 81
5, 45000, Note_on_c, 3, 66, 0
5, 45000, Note_on_c, 3, 69, 81
5, 45300, Note_on_c, 3, 69, 0
5, 45300, Note_on_c, 3, 71, 81
5, 45360, Note_on_c, 3, 71, 0
5, 45360, Note_on_c, 3, 64, 81
5, 45900, Note_on_c, 3, 64, 0
5, 45900, Note_on_c, 3, 72, 81
5, 46080, Note_on_c, 3, 72, 0
5, 46080, Note_on_c, 3, 66, 81
5, 46380, Note_on_c, 3, 66, 0
5, 46380, Note_on_c, 3, 71, 81
5, 46440, Note_on_c, 3, 71, 0
5, 46440, Note_on_c, 3, 71, 81
5, 46740, Note_on_c, 3, 71, 0
5, 46740, Note_on_c, 3, 68, 81
5, 46800, Note_on_c, 3, 68, 0
5, 46800, Note_on_c, 3, 64, 81
5, 47100, Note_on_c, 3, 64, 0
5, 47100, Note_on_c, 3, 69, 81
5, 47160, Note_on_c, 3, 69, 0
5, 47160, Note_on_c, 3, 69, 81
5, 47460, Note_on_c, 3, 69, 0
5, 47460, Note_on_c, 3, 66, 81
5, 47520, Note_on_c, 3, 66, 0
5, 47520, Note_on_c, 3, 62, 81
5, 47820, Note_on_c, 3, 62, 0
5, 47820, Note_on_c, 3, 67, 81
5, 47880, Note_on_c, 3, 67, 0
5, 47880, Note_on_c, 3, 67, 81
5, 48180, Note_on_c, 3, 67, 0
5, 48180, Note_on_c, 3, 64, 81
5, 48240, Note_on_c, 3, 64, 0
5, 48240, Note_on_c, 3, 60, 81
5, 48420, Note_on_c, 3, 60, 0
5, 48420, Program_c, 3, 41
5, 48420, Note_on_c, 3, 59, 81
5, 48600, Note_on_c, 3, 59, 0
5, 48600, Program_c, 3, 40
5, 48600, Note_on_c, 3, 69, 81
5, 48780, Note_on_c, 3, 69, 0
5, 48780, Note_on_c, 3, 66, 81
5, 48900, Note_on_c, 3, 66, 0
5, 48900, Note_on_c, 3, 63, 81
5, 48960, Note_on_c, 3, 63, 0
5, 48960, Program_c, 3, 41
5, 48960, Note_on_c, 3, 59, 81
5, 49140, Note_on_c, 3, 59, 0
5, 49140, Program_c, 3, 40
5, 49140, Note_on_c, 3, 64, 81
5, 49320, Note_on_c, 3, 64, 0
5, 49320, Note_on_c, 3, 66, 81
5, 49500, Note_on_c, 3, 66, 0
5, 49500, Note_on_c, 3, 62, 81
5, 49680, Note_on_c, 3, 62, 0
5, 49680, Note_on_c, 3, 64, 81
5, 50040, Note_on_c, 3, 64, 0
5, 50040, Program_c, 3, 41
5, 50040, Note_on_c, 3, 59, 81
5, 50220, Note_on_c, 3, 59, 0
5, 50220, Program_c, 3, 40
5, 50220, Note_on_c, 3, 63, 81
5, 50400, Note_on_c, 3, 63, 0
5, 50400, Program_c, 3, 41
5, 50400, Note_on_c, 3, 59, 81
5, 50580, Note_on_c, 3, 59, 0
5, 50580, Program_c, 3, 40
5, 50580, Note_on_c, 3, 64, 81
5, 50760, Note_on_c, 3, 64, 0
5, 50760, Note_on_c, 3, 69, 81
5, 50940, Note_on_c, 3, 69, 0
5, 50940, Note_on_c, 3, 66, 81
5, 51120, Note_on_c, 3, 66, 0
5, 51120, Note_on_c, 3, 67, 81
5, 51300, Note_on_c, 3, 67, 0
5, 51300, Note_on_c, 3, 64, 81
5, 51480, Note_on_c, 3, 64, 0
5, 51480, Note_on_c, 3, 66, 81
5, 51660, Note_on_c, 3, 66, 0
5, 57240, Note_on_c, 3, 71, 81
5, 59400, Note_on_c, 3, 71, 0
5, 59400, Note_on_c, 3, 69, 81
5, 60300, Note_on_c, 3, 69, 0
5, 60300, Note_on_c, 3, 63, 81
5, 60480, Note_on_c, 3, 63, 0
5, 60480, Program_c, 3, 41
5, 60480, Note_on_c, 3, 59, 81
5, 60660, Note_on_c, 3, 59, 0
5, 60660, Program_c, 3, 40
5, 60660, Note_on_c, 3, 64, 81
5, 60840, Note_on_c, 3, 64, 0
5, 60840, Note_on_c, 3, 64, 81
5, 61200, Note_on_c, 3, 64, 0
5, 61200, Program_c, 3, 41
5, 61200, Note_on_c, 3, 59, 81
5, 61380, Note_on_c, 3, 59, 0
5, 61380, Program_c, 3, 40
5, 61380, Note_on_c, 3, 64, 81
5, 61560, Note_on_c, 3, 64, 0
5, 61560, Note_on_c, 3, 64, 81
5, 61920, Note_on_c, 3, 64, 0
5, 61920, Note_on_c, 3, 71, 81
5, 62100, Note_on_c, 3, 71, 0
5, 62100, Note_on_c, 3, 71, 81
5, 62280, Note_on_c, 3, 71, 0
5, 62280, Note_on_c, 3, 68, 81
5, 62460, Note_on_c, 3, 68, 0
5, 62460, Note_on_c, 3, 64, 47
5, 62640, Note_on_c, 3, 64, 0
5, 62640, Note_on_c, 3, 64, 47
5, 63000, Note_on_c, 3, 64, 0
5, 63000, Program_c, 3, 41
5, 63000, Note_on_c, 3, 59, 47
5, 63180, Note_on_c, 3, 59, 0
5, 63180, Program_c, 3, 40
5, 63180, Note_on_c, 3, 64, 47
5, 63360, Note_on_c, 3, 64, 0
5, 63360, Note_on_c, 3, 64, 47
5, 63720, Note_on_c, 3, 64, 0
5, 63720, Note_on_c, 3, 71, 47
5, 63900, Note_on_c, 3, 71, 0
5, 63900, Note_on_c, 3, 71, 47
5, 64080, Note_on_c, 3, 71, 0
5, 64080, Note_on_c, 3, 68, 47
5, 64800, Note_on_c, 3, 68, 0
5, 65161, Program_c, 3, 0
5, 65162, Control_c, 3, 7, 100
5, 65163, Control_c, 3, 10, 64
5, 65164, Control_c, 3, 93, 0
5, 65165, Control_c, 3, 91, 40
5, 65166, Control_c, 3, 99, 1
5, 65167, Control_c, 3, 98, 8
5, 65168, Control_c, 3, 6, 64
5, 65169, Control_c, 3, 99, 1
5, 65170, Control_c, 3, 98, 10
5, 65171, Control_c, 3, 6, 64
5, 65172, Control_c, 3, 99, 1
5, 65173, Control_c, 3, 98, 9
5, 65174, Control_c, 3, 6, 64
5, 65175, Pitch_bend_c, 3, 8192
5, 65175, End_track
6, 0, Start_track
6, 0, MIDI_port, 1
6, 0, Title_t, "   Orchestra"
6, 0, Program_c, 5, 48
6, 0, Control_c, 5, 7, 65
6, 0, Control_c, 5, 10, 16
6, 0, Program_c, 5, 48
6, 0, Control_c, 5, 7, 65
6, 0, Control_c, 5, 10, 16
6, 0, Control_c, 5, 93, 0
6, 0, Control_c, 5, 91, 120
6, 0, Control_c, 5, 11, 127
6, 0, Pitch_bend_c, 5, 8192
6, 720, Note_on_c, 5, 83, 81
6, 2816, Control_c, 5, 11, 127
6, 2836, Control_c, 5, 11, 126
6, 2840, Control_c, 5, 11, 125
6, 2842, Control_c, 5, 11, 124
6, 2844, Control_c, 5, 11, 123
6, 2846, Control_c, 5, 11, 122
6, 2848, Control_c, 5, 11, 121
6, 2850, Control_c, 5, 11, 120
6, 2854, Control_c, 5, 11, 119
6, 2856, Control_c, 5, 11, 118
6, 2860, Control_c, 5, 11, 117
6, 2862, Control_c, 5, 11, 116
6, 2864, Control_c, 5, 11, 115
6, 2866, Control_c, 5, 11, 114
6, 2870, Control_c, 5, 11, 113
6, 2872, Control_c, 5, 11, 112
6, 2874, Control_c, 5, 11, 110
6, 2876, Control_c, 5, 11, 109
6, 2878, Control_c, 5, 11, 107
6, 2882, Control_c, 5, 11, 105
6, 2884, Control_c, 5, 11, 103
6, 2886, Control_c, 5, 11, 101
6, 2888, Control_c, 5, 11, 100
6, 2890, Control_c, 5, 11, 98
6, 2892, Control_c, 5, 11, 95
6, 2894, Control_c, 5, 11, 93
6, 4860, Note_on_c, 5, 83, 0
6, 4860, Note_on_c, 5, 78, 81
6, 4860, Control_c, 5, 11, 127
6, 4980, Note_on_c, 5, 78, 0
6, 4980, Note_on_c, 5, 75, 81
6, 5040, Note_on_c, 5, 75, 0
6, 5040, Note_on_c, 5, 78, 81
6, 5160, Note_on_c, 5, 78, 0
6, 5160, Note_on_c, 5, 75, 81
6, 5220, Note_on_c, 5, 75, 0
6, 5220, Note_on_c, 5, 80, 81
6, 5310, Note_on_c, 5, 80, 0
6, 5310, Note_on_c, 5, 78, 81
6, 5340, Note_on_c, 5, 78, 0
6, 5340, Note_on_c, 5, 76, 81
6, 5400, Note_on_c, 5, 76, 0
6, 5400, Note_on_c, 5, 76, 81
6, 5520, Note_on_c, 5, 76, 0
6, 5520, Note_on_c, 5, 75, 81
6, 5580, Note_on_c, 5, 75, 0
6, 5580, Note_on_c, 5, 78, 81
6, 5700, Note_on_c, 5, 78, 0
6, 5700, Note_on_c, 5, 75, 81
6, 5760, Note_on_c, 5, 75, 0
6, 5760, Note_on_c, 5, 78, 81
6, 5880, Note_on_c, 5, 78, 0
6, 5880, Note_on_c, 5, 75, 81
6, 5940, Note_on_c, 5, 75, 0
6, 5940, Note_on_c, 5, 80, 81
6, 6030, Note_on_c, 5, 80, 0
6, 6030, Note_on_c, 5, 78, 81
6, 6060, Note_on_c, 5, 78, 0
6, 6060, Note_on_c, 5, 76, 81
6, 6120, Note_on_c, 5, 76, 0
6, 6120, Note_on_c, 5, 76, 81
6, 6240, Note_on_c, 5, 76, 0
6, 6240, Note_on_c, 5, 75, 81
6, 6300, Note_on_c, 5, 75, 0
6, 6300, Note_on_c, 5, 83, 81
6, 6480, Note_on_c, 5, 83, 0
6, 6480, Note_on_c, 5, 81, 81
6, 7380, Note_on_c, 5, 81, 0
6, 7380, Note_on_c, 5, 75, 81
6, 7560, Note_on_c, 5, 75, 0
6, 7560, Note_on_c, 5, 71, 81
6, 7740, Note_on_c, 5, 71, 0
6, 7740, Note_on_c, 5, 76, 81
6, 7920, Note_on_c, 5, 76, 0
6, 7920, Note_on_c, 5, 76, 81
6, 8280, Note_on_c, 5, 76, 0
6, 8280, Note_on_c, 5, 71, 81
6, 8460, Note_on_c, 5, 71, 0
6, 8460, Note_on_c, 5, 76, 81
6, 8640, Note_on_c, 5, 76, 0
6, 8640, Note_on_c, 5, 76, 81
6, 9000, Note_on_c, 5, 76, 0
6, 9000, Note_on_c, 5, 71, 81
6, 9180, Note_on_c, 5, 71, 0
6, 15840, Note_on_c, 5, 80, 81
6, 18000, Note_on_c, 5, 80, 0
6, 18000, Note_on_c, 5, 80, 81
6, 18180, Note_on_c, 5, 80, 0
6, 18180, Note_on_c, 5, 76, 81
6, 18360, Note_on_c, 5, 76, 0
6, 18360, Note_on_c, 5, 83, 81
6, 18540, Note_on_c, 5, 83, 0
6, 18540, Note_on_c, 5, 80, 81
6, 18900, Note_on_c, 5, 80, 0
6, 18900, Note_on_c, 5, 81, 81
6, 19080, Note_on_c, 5, 81, 0
6, 19080, Note_on_c, 5, 80, 81
6, 19440, Note_on_c, 5, 80, 0
6, 19440, Note_on_c, 5, 80, 47
6, 19620, Note_on_c, 5, 80, 0
6, 19620, Note_on_c, 5, 76, 47
6, 19800, Note_on_c, 5, 76, 0
6, 19800, Note_on_c, 5, 83, 47
6, 19980, Note_on_c, 5, 83, 0
6, 19980, Note_on_c, 5, 80, 47
6, 20340, Note_on_c, 5, 80, 0
6, 20340, Note_on_c, 5, 81, 47
6, 20520, Note_on_c, 5, 81, 0
6, 20520, Note_on_c, 5, 80, 47
6, 20880, Note_on_c, 5, 80, 0
6, 20880, Note_on_c, 5, 80, 81
6, 21060, Note_on_c, 5, 80, 0
6, 21060, Note_on_c, 5, 85, 81
6, 21300, Note_on_c, 5, 83, 81
6, 21305, Note_on_c, 5, 85, 0
6, 21360, Note_on_c, 5, 85, 81
6, 21365, Note_on_c, 5, 83, 0
6, 21420, Note_on_c, 5, 85, 0
6, 21420, Note_on_c, 5, 85, 81
6, 21480, Note_on_c, 5, 83, 81
6, 21485, Note_on_c, 5, 85, 0
6, 21540, Note_on_c, 5, 81, 81
6, 21545, Note_on_c, 5, 83, 0
6, 21600, Note_on_c, 5, 81, 0
6, 21600, Note_on_c, 5, 83, 81
6, 22020, Note_on_c, 5, 81, 81
6, 22025, Note_on_c, 5, 83, 0
6, 22080, Note_on_c, 5, 83, 81
6, 22085, Note_on_c, 5, 81, 0
6, 22140, Note_on_c, 5, 83, 0
6, 22140, Note_on_c, 5, 83, 81
6, 22200, Note_on_c, 5, 81, 81
6, 22205, Note_on_c, 5, 83, 0
6, 22260, Note_on_c, 5, 80, 81
6, 22265, Note_on_c, 5, 81, 0
6, 22320, Note_on_c, 5, 80, 0
6, 22320, Note_on_c, 5, 75, 81
6, 22680, Note_on_c, 5, 75, 0
6, 22680, Note_on_c, 5, 71, 81
6, 23040, Note_on_c, 5, 71, 0
6, 23040, Note_on_c, 5, 75, 81
6, 23400, Note_on_c, 5, 75, 0
6, 23400, Note_on_c, 5, 71, 81
6, 23760, Note_on_c, 5, 71, 0
6, 23760, Note_on_c, 5, 78, 81
6, 24480, Note_on_c, 5, 78, 0
6, 24480, Note_on_c, 5, 80, 81
6, 24660, Note_on_c, 5, 80, 0
6, 24660, Note_on_c, 5, 78, 81
6, 24840, Note_on_c, 5, 78, 0
6, 24840, Note_on_c, 5, 78, 81
6, 25020, Note_on_c, 5, 78, 0
6, 30960, Note_on_c, 5, 64, 81
6, 34920, Note_on_c, 5, 64, 0
6, 41760, Note_on_c, 5, 71, 47
6, 41940, Note_on_c, 5, 71, 0
6, 42120, Note_on_c, 5, 83, 81
6, 44280, Note_on_c, 5, 83, 0
6, 44280, Note_on_c, 5, 83, 81
6, 44580, Note_on_c, 5, 83, 0
6, 44580, Note_on_c, 5, 84, 81
6, 44640, Note_on_c, 5, 84, 0
6, 44640, Note_on_c, 5, 78, 81
6, 45000, Note_on_c, 5, 78, 0
6, 45000, Note_on_c, 5, 81, 81
6, 45300, Note_on_c, 5, 81, 0
6, 45300, Note_on_c, 5, 83, 81
6, 45360, Note_on_c, 5, 83, 0
6, 45360, Note_on_c, 5, 76, 81
6, 45900, Note_on_c, 5, 76, 0
6, 45900, Note_on_c, 5, 84, 81
6, 46080, Note_on_c, 5, 84, 0
6, 46080, Note_on_c, 5, 78, 81
6, 46380, Note_on_c, 5, 78, 0
6, 46380, Note_on_c, 5, 83, 81
6, 46440, Note_on_c, 5, 83, 0
6, 46440, Note_on_c, 5, 83, 81
6, 46740, Note_on_c, 5, 83, 0
6, 46740, Note_on_c, 5, 80, 81
6, 46800, Note_on_c, 5, 80, 0
6, 46800, Note_on_c, 5, 76, 81
6, 47100, Note_on_c, 5, 76, 0
6, 47100, Note_on_c, 5, 81, 81
6, 47160, Note_on_c, 5, 81, 0
6, 47160, Note_on_c, 5, 81, 81
6, 47460, Note_on_c, 5, 81, 0
6, 47460, Note_on_c, 5, 78, 81
6, 47520, Note_on_c, 5, 78, 0
6, 47520, Note_on_c, 5, 74, 81
6, 47820, Note_on_c, 5, 74, 0
6, 47820, Note_on_c, 5, 79, 81
6, 47880, Note_on_c, 5, 79, 0
6, 47880, Note_on_c, 5, 79, 81
6, 48180, Note_on_c, 5, 79, 0
6, 48180, Note_on_c, 5, 76, 81
6, 48240, Note_on_c, 5, 76, 0
6, 48240, Note_on_c, 5, 72, 81
6, 48420, Note_on_c, 5, 72, 0
6, 48420, Note_on_c, 5, 71, 81
6, 48600, Note_on_c, 5, 71, 0
6, 48600, Note_on_c, 5, 81, 81
6, 48780, Note_on_c, 5, 81, 0
6, 48780, Note_on_c, 5, 78, 81
6, 48900, Note_on_c, 5, 78, 0
6, 48900, Note_on_c, 5, 75, 81
6, 48960, Note_on_c, 5, 75, 0
6, 48960, Note_on_c, 5, 71, 81
6, 49140, Note_on_c, 5, 71, 0
6, 49140, Note_on_c, 5, 76, 81
6, 49320, Note_on_c, 5, 76, 0
6, 49320, Note_on_c, 5, 78, 81
6, 49500, Note_on_c, 5, 78, 0
6, 49500, Note_on_c, 5, 74, 81
6, 49680, Note_on_c, 5, 74, 0
6, 49680, Note_on_c, 5, 76, 81
6, 50040, Note_on_c, 5, 76, 0
6, 50040, Note_on_c, 5, 71, 81
6, 50220, Note_on_c, 5, 71, 0
6, 50220, Note_on_c, 5, 75, 81
6, 50400, Note_on_c, 5, 75, 0
6, 50400, Note_on_c, 5, 71, 81
6, 50580, Note_on_c, 5, 71, 0
6, 50580, Note_on_c, 5, 76, 81
6, 50760, Note_on_c, 5, 76, 0
6, 50760, Note_on_c, 5, 81, 81
6, 50940, Note_on_c, 5, 81, 0
6, 50940, Note_on_c, 5, 78, 81
6, 51120, Note_on_c, 5, 78, 0
6, 51120, Note_on_c, 5, 79, 81
6, 51300, Note_on_c, 5, 79, 0
6, 51300, Note_on_c, 5, 76, 81
6, 51480, Note_on_c, 5, 76, 0
6, 51480, Note_on_c, 5, 78, 81
6, 51660, Note_on_c, 5, 78, 0
6, 57240, Note_on_c, 5, 83, 81
6, 59400, Note_on_c, 5, 83, 0
6, 59400, Note_on_c, 5, 81, 81
6, 60300, Note_on_c, 5, 81, 0
6, 60300, Note_on_c, 5, 75, 81
6, 60480, Note_on_c, 5, 75, 0
6, 60480, Note_on_c, 5, 71, 81
6, 60660, Note_on_c, 5, 71, 0
6, 60660, Note_on_c, 5, 76, 81
6, 60840, Note_on_c, 5, 76, 0
6, 60840, Note_on_c, 5, 76, 81
6, 61200, Note_on_c, 5, 76, 0
6, 61200, Note_on_c, 5, 71, 81
6, 61380, Note_on_c, 5, 71, 0
6, 61380, Note_on_c, 5, 76, 81
6, 61560, Note_on_c, 5, 76, 0
6, 61560, Note_on_c, 5, 76, 81
6, 61920, Note_on_c, 5, 76, 0
6, 61920, Note_on_c, 5, 83, 81
6, 62100, Note_on_c, 5, 83, 0
6, 62100, Note_on_c, 5, 83, 81
6, 62280, Note_on_c, 5, 83, 0
6, 62280, Note_on_c, 5, 80, 81
6, 62460, Note_on_c, 5, 80, 0
6, 62460, Note_on_c, 5, 76, 47
6, 62640, Note_on_c, 5, 76, 0
6, 62640, Note_on_c, 5, 76, 47
6, 63000, Note_on_c, 5, 76, 0
6, 63000, Note_on_c, 5, 71, 47
6, 63180, Note_on_c, 5, 71, 0
6, 63180, Note_on_c, 5, 76, 47
6, 63360, Note_on_c, 5, 76, 0
6, 63360, Note_on_c, 5, 76, 47
6, 63720, Note_on_c, 5, 76, 0
6, 63720, Note_on_c, 5, 83, 47
6, 63900, Note_on_c, 5, 83, 0
6, 63900, Note_on_c, 5, 83, 47
6, 64080, Note_on_c, 5, 83, 0
6, 64080, Note_on_c, 5, 80, 47
6, 64800, Note_on_c, 5, 80, 0
6, 65160, Program_c, 5, 0
6, 65160, Control_c, 5, 7, 100
6, 65160, Control_c, 5, 10, 64
6, 65160, Control_c, 5, 93, 0
6, 65160, Control_c, 5, 91, 40
6, 65160, Control_c, 5, 11, 127
6, 65160, End_track
7, 0, Start_track
7, 0, MIDI_port, 1
7, 0, Title_t, "   Orchestra"
7, 0, Program_c, 8, 48
7, 0, Control_c, 8, 7, 65
7, 0, Control_c, 8, 10, 48
7, 0, Program_c, 8, 48
7, 0, Control_c, 8, 7, 65
7, 0, Control_c, 8, 10, 48
7, 0, Control_c, 8, 93, 0
7, 0, Control_c, 8, 91, 120
7, 0, Control_c, 8, 11, 127
7, 720, Note_on_c, 8, 71, 81
7, 2816, Control_c, 8, 11, 127
7, 2836, Control_c, 8, 11, 126
7, 2840, Control_c, 8, 11, 125
7, 2842, Control_c, 8, 11, 124
7, 2844, Control_c, 8, 11, 123
7, 2846, Control_c, 8, 11, 122
7, 2848, Control_c, 8, 11, 121
7, 2850, Control_c, 8, 11, 120
7, 2854, Control_c, 8, 11, 119
7, 2856, Control_c, 8, 11, 118
7, 2860, Control_c, 8, 11, 117
7, 2862, Control_c, 8, 11, 116
7, 2864, Control_c, 8, 11, 115
7, 2866, Control_c, 8, 11, 114
7, 2870, Control_c, 8, 11, 113
7, 2872, Control_c, 8, 11, 112
7, 2874, Control_c, 8, 11, 110
7, 2876, Control_c, 8, 11, 109
7, 2878, Control_c, 8, 11, 107
7, 2882, Control_c, 8, 11, 105
7, 2884, Control_c, 8, 11, 103
7, 2886, Control_c, 8, 11, 101
7, 2888, Control_c, 8, 11, 100
7, 2890, Control_c, 8, 11, 98
7, 2892, Control_c, 8, 11, 95
7, 2894, Control_c, 8, 11, 93
7, 4860, Note_on_c, 8, 71, 0
7, 4860, Note_on_c, 8, 66, 81
7, 4860, Control_c, 8, 11, 127
7, 4980, Note_on_c, 8, 66, 0
7, 4980, Note_on_c, 8, 63, 81
7, 5040, Note_on_c, 8, 63, 0
7, 5040, Note_on_c, 8, 66, 81
7, 5160, Note_on_c, 8, 66, 0
7, 5160, Note_on_c, 8, 63, 81
7, 5220, Note_on_c, 8, 63, 0
7, 5220, Note_on_c, 8, 68, 81
7, 5310, Note_on_c, 8, 68, 0
7, 5310, Note_on_c, 8, 66, 81
7, 5340, Note_on_c, 8, 66, 0
7, 5340, Note_on_c, 8, 64, 81
7, 5400, Note_on_c, 8, 64, 0
7, 5400, Note_on_c, 8, 64, 81
7, 5520, Note_on_c, 8, 64, 0
7, 5520, Note_on_c, 8, 63, 81
7, 5580, Note_on_c, 8, 63, 0
7, 5580, Note_on_c, 8, 66, 81
7, 5700, Note_on_c, 8, 66, 0
7, 5700, Note_on_c, 8, 63, 81
7, 5760, Note_on_c, 8, 63, 0
7, 5760, Note_on_c, 8, 66, 81
7, 5880, Note_on_c, 8, 66, 0
7, 5880, Note_on_c, 8, 63, 81
7, 5940, Note_on_c, 8, 63, 0
7, 5940, Note_on_c, 8, 68, 81
7, 6030, Note_on_c, 8, 68, 0
7, 6030, Note_on_c, 8, 66, 81
7, 6060, Note_on_c, 8, 66, 0
7, 6060, Note_on_c, 8, 64, 81
7, 6120, Note_on_c, 8, 64, 0
7, 6120, Note_on_c, 8, 64, 81
7, 6240, Note_on_c, 8, 64, 0
7, 6240, Note_on_c, 8, 63, 81
7, 6300, Note_on_c, 8, 63, 0
7, 6300, Note_on_c, 8, 71, 81
7, 6480, Note_on_c, 8, 71, 0
7, 6480, Note_on_c, 8, 69, 81
7, 7380, Note_on_c, 8, 69, 0
7, 7380, Note_on_c, 8, 63, 81
7, 7560, Note_on_c, 8, 63, 0
7, 7560, Note_on_c, 8, 59, 81
7, 7740, Note_on_c, 8, 59, 0
7, 7740, Note_on_c, 8, 64, 81
7, 7920, Note_on_c, 8, 64, 0
7, 7920, Note_on_c, 8, 64, 81
7, 8280, Note_on_c, 8, 64, 0
7, 8280, Note_on_c, 8, 59, 81
7, 8460, Note_on_c, 8, 59, 0
7, 8460, Note_on_c, 8, 64, 81
7, 8640, Note_on_c, 8, 64, 0
7, 8640, Note_on_c, 8, 64, 81
7, 9000, Note_on_c, 8, 64, 0
7, 9000, Note_on_c, 8, 59, 81
7, 9180, Note_on_c, 8, 59, 0
7, 15840, Note_on_c, 8, 68, 81
7, 18000, Note_on_c, 8, 68, 0
7, 18000, Note_on_c, 8, 68, 81
7, 18180, Note_on_c, 8, 68, 0
7, 18180, Note_on_c, 8, 64, 81
7, 18360, Note_on_c, 8, 64, 0
7, 18360, Note_on_c, 8, 71, 81
7, 18540, Note_on_c, 8, 71, 0
7, 18540, Note_on_c, 8, 68, 81
7, 18900, Note_on_c, 8, 68, 0
7, 18900, Note_on_c, 8, 69, 81
7, 19080, Note_on_c, 8, 69, 0
7, 19080, Note_on_c, 8, 68, 81
7, 19440, Note_on_c, 8, 68, 0
7, 19440, Note_on_c, 8, 68, 47
7, 19620, Note_on_c, 8, 68, 0
7, 19620, Note_on_c, 8, 64, 47
7, 19800, Note_on_c, 8, 64, 0
7, 19800, Note_on_c, 8, 71, 47
7, 19980, Note_on_c, 8, 71, 0
7, 19980, Note_on_c, 8, 68, 47
7, 20340, Note_on_c, 8, 68, 0
7, 20340, Note_on_c, 8, 69, 47
7, 20520, Note_on_c, 8, 69, 0
7, 20520, Note_on_c, 8, 68, 47
7, 20880, Note_on_c, 8, 68, 0
7, 20880, Note_on_c, 8, 68, 81
7, 21060, Note_on_c, 8, 68, 0
7, 21060, Note_on_c, 8, 73, 81
7, 21300, Note_on_c, 8, 71, 81
7, 21305, Note_on_c, 8, 73, 0
7, 21360, Note_on_c, 8, 73, 81
7, 21365, Note_on_c, 8, 71, 0
7, 21420, Note_on_c, 8, 73, 0
7, 21420, Note_on_c, 8, 73, 81
7, 21480, Note_on_c, 8, 71, 81
7, 21485, Note_on_c, 8, 73, 0
7, 21540, Note_on_c, 8, 69, 81
7, 21545, Note_on_c, 8, 71, 0
7, 21600, Note_on_c, 8, 69, 0
7, 21600, Note_on_c, 8, 71, 81
7, 22020, Note_on_c, 8, 69, 81
7, 22025, Note_on_c, 8, 71, 0
7, 22080, Note_on_c, 8, 71, 81
7, 22085, Note_on_c, 8, 69, 0
7, 22140, Note_on_c, 8, 71, 0
7, 22140, Note_on_c, 8, 71, 81
7, 22200, Note_on_c, 8, 69, 81
7, 22205, Note_on_c, 8, 71, 0
7, 22260, Note_on_c, 8, 68, 81
7, 22265, Note_on_c, 8, 69, 0
7, 22320, Note_on_c, 8, 68, 0
7, 22320, Note_on_c, 8, 63, 81
7, 22680, Note_on_c, 8, 63, 0
7, 22680, Note_on_c, 8, 59, 81
7, 23040, Note_on_c, 8, 59, 0
7, 23040, Note_on_c, 8, 63, 81
7, 23400, Note_on_c, 8, 63, 0
7, 23400, Note_on_c, 8, 59, 81
7, 23760, Note_on_c, 8, 59, 0
7, 23760, Note_on_c, 8, 66, 81
7, 24480, Note_on_c, 8, 66, 0
7, 24480, Note_on_c, 8, 68, 81
7, 24660, Note_on_c, 8, 68, 0
7, 24660, Note_on_c, 8, 66, 81
7, 24840, Note_on_c, 8, 66, 0
7, 24840, Note_on_c, 8, 66, 81
7, 25020, Note_on_c, 8, 66, 0
7, 30960, Note_on_c, 8, 52, 81
7, 34920, Note_on_c, 8, 52, 0
7, 41760, Note_on_c, 8, 59, 47
7, 41940, Note_on_c, 8, 59, 0
7, 42120, Note_on_c, 8, 71, 81
7, 44280, Note_on_c, 8, 71, 0
7, 44280, Note_on_c, 8, 71, 81
7, 44580, Note_on_c, 8, 71, 0
7, 44580, Note_on_c, 8, 72, 81
7, 44640, Note_on_c, 8, 72, 0
7, 44640, Note_on_c, 8, 66, 81
7, 45000, Note_on_c, 8, 66, 0
7, 45000, Note_on_c, 8, 69, 81
7, 45300, Note_on_c, 8, 69, 0
7, 45300, Note_on_c, 8, 71, 81
7, 45360, Note_on_c, 8, 71, 0
7, 45360, Note_on_c, 8, 64, 81
7, 45900, Note_on_c, 8, 64, 0
7, 45900, Note_on_c, 8, 72, 81
7, 46080, Note_on_c, 8, 72, 0
7, 46080, Note_on_c, 8, 66, 81
7, 46380, Note_on_c, 8, 66, 0
7, 46380, Note_on_c, 8, 71, 81
7, 46440, Note_on_c, 8, 71, 0
7, 46440, Note_on_c, 8, 71, 81
7, 46740, Note_on_c, 8, 71, 0
7, 46740, Note_on_c, 8, 68, 81
7, 46800, Note_on_c, 8, 68, 0
7, 46800, Note_on_c, 8, 64, 81
7, 47100, Note_on_c, 8, 64, 0
7, 47100, Note_on_c, 8, 69, 81
7, 47160, Note_on_c, 8, 69, 0
7, 47160, Note_on_c, 8, 69, 81
7, 47460, Note_on_c, 8, 69, 0
7, 47460, Note_on_c, 8, 66, 81
7, 47520, Note_on_c, 8, 66, 0
7, 47520, Note_on_c, 8, 62, 81
7, 47820, Note_on_c, 8, 62, 0
7, 47820, Note_on_c, 8, 67, 81
7, 47880, Note_on_c, 8, 67, 0
7, 47880, Note_on_c, 8, 67, 81
7, 48180, Note_on_c, 8, 67, 0
7, 48180, Note_on_c, 8, 64, 81
7, 48240, Note_on_c, 8, 64, 0
7, 48240, Note_on_c, 8, 60, 81
7, 48420, Note_on_c, 8, 60, 0
7, 48420, Note_on_c, 8, 59, 81
7, 48600, Note_on_c, 8, 59, 0
7, 48600, Note_on_c, 8, 69, 81
7, 48780, Note_on_c, 8, 69, 0
7, 48780, Note_on_c, 8, 66, 81
7, 48900, Note_on_c, 8, 66, 0
7, 48900, Note_on_c, 8, 63, 81
7, 48960, Note_on_c, 8, 63, 0
7, 48960, Note_on_c, 8, 59, 81
7, 49140, Note_on_c, 8, 59, 0
7, 49140, Note_on_c, 8, 64, 81
7, 49320, Note_on_c, 8, 64, 0
7, 49320, Note_on_c, 8, 66, 81
7, 49500, Note_on_c, 8, 66, 0
7, 49500, Note_on_c, 8, 62, 81
7, 49680, Note_on_c, 8, 62, 0
7, 49680, Note_on_c, 8, 64, 81
7, 50040, Note_on_c, 8, 64, 0
7, 50040, Note_on_c, 8, 59, 81
7, 50220, Note_on_c, 8, 59, 0
7, 50220, Note_on_c, 8, 63, 81
7, 50400, Note_on_c, 8, 63, 0
7, 50400, Note_on_c, 8, 59, 81
7, 50580, Note_on_c, 8, 59, 0
7, 50580, Note_on_c, 8, 64, 81
7, 50760, Note_on_c, 8, 64, 0
7, 50760, Note_on_c, 8, 69, 81
7, 50940, Note_on_c, 8, 69, 0
7, 50940, Note_on_c, 8, 66, 81
7, 51120, Note_on_c, 8, 66, 0
7, 51120, Note_on_c, 8, 67, 81
7, 51300, Note_on_c, 8, 67, 0
7, 51300, Note_on_c, 8, 64, 81
7, 51480, Note_on_c, 8, 64, 0
7, 51480, Note_on_c, 8, 66, 81
7, 51660, Note_on_c, 8, 66, 0
7, 57240, Note_on_c, 8, 71, 81
7, 59400, Note_on_c, 8, 71, 0
7, 59400, Note_on_c, 8, 69, 81
7, 60300, Note_on_c, 8, 69, 0
7, 60300, Note_on_c, 8, 63, 81
7, 60480, Note_on_c, 8, 63, 0
7, 60480, Note_on_c, 8, 59, 81
7, 60660, Note_on_c, 8, 59, 0
7, 60660, Note_on_c, 8, 64, 81
7, 60840, Note_on_c, 8, 64, 0
7, 60840, Note_on_c, 8, 64, 81
7, 61200, Note_on_c, 8, 64, 0
7, 61200, Note_on_c, 8, 59, 81
7, 61380, Note_on_c, 8, 59, 0
7, 61380, Note_on_c, 8, 64, 81
7, 61560, Note_on_c, 8, 64, 0
7, 61560, Note_on_c, 8, 64, 81
7, 61920, Note_on_c, 8, 64, 0
7, 61920, Note_on_c, 8, 71, 81
7, 62100, Note_on_c, 8, 71, 0
7, 62100, Note_on_c, 8, 71, 81
7, 62280, Note_on_c, 8, 71, 0
7, 62280, Note_on_c, 8, 68, 81
7, 62460, Note_on_c, 8, 68, 0
7, 62460, Note_on_c, 8, 64, 47
7, 62640, Note_on_c, 8, 64, 0
7, 62640, Note_on_c, 8, 64, 47
7, 63000, Note_on_c, 8, 64, 0
7, 63000, Note_on_c, 8, 59, 47
7, 63180, Note_on_c, 8, 59, 0
7, 63180, Note_on_c, 8, 64, 47
7, 63360, Note_on_c, 8, 64, 0
7, 63360, Note_on_c, 8, 64, 47
7, 63720, Note_on_c, 8, 64, 0
7, 63720, Note_on_c, 8, 71, 47
7, 63900, Note_on_c, 8, 71, 0
7, 63900, Note_on_c, 8, 71, 47
7, 64080, Note_on_c, 8, 71, 0
7, 64080, Note_on_c, 8, 68, 47
7, 64800, Note_on_c, 8, 68, 0
7, 65160, Program_c, 8, 0
7, 65160, Control_c, 8, 7, 100
7, 65160, Control_c, 8, 10, 64
7, 65160, Control_c, 8, 93, 0
7, 65160, Control_c, 8, 91, 40
7, 65160, Control_c, 8, 11, 127
7, 65160, End_track
8, 0, Start_track
8, 0, MIDI_port, 1
8, 0, Title_t, "Cello"
8, 0, Program_c, 4, 42
8, 0, Control_c, 4, 7, 55
8, 0, Control_c, 4, 10, 0
8, 0, Program_c, 4, 42
8, 0, Control_c, 4, 7, 55
8, 0, Control_c, 4, 10, 0
8, 0, Control_c, 4, 93, 0
8, 0, Control_c, 4, 91, 120
8, 1, Text_t, "Non Registered Parameter Numbers"
8, 1, Text_t, "For Roland SC-55 Vibrato"
8, 1, Text_t, "Set up NRPN for Vibrate Rate"
8, 2, Control_c, 4, 99, 1
8, 3, Control_c, 4, 98, 8
8, 4, Text_t, "Data Entry Command"
8, 4, Control_c, 4, 6, 68
8, 5, Text_t, "Set up NRPN for Vibrate Delay"
8, 6, Control_c, 4, 99, 1
8, 7, Control_c, 4, 98, 10
8, 8, Text_t, "Data Entry Command"
8, 8, Control_c, 4, 6, 14
8, 9, Text_t, "Set up NRPN for Vibrate Depth"
8, 10, Control_c, 4, 99, 1
8, 11, Control_c, 4, 98, 9
8, 12, Text_t, "Data Entry Command; Vibrato ON"
8, 12, Control_c, 4, 6, 70
8, 13, Control_c, 4, 11, 127
8, 14, Pitch_bend_c, 4, 8192
8, 720, Note_on_c, 4, 52, 81
8, 2520, Note_on_c, 4, 52, 0
8, 2520, Note_on_c, 4, 47, 81
8, 2880, Note_on_c, 4, 47, 0
8, 2880, Note_on_c, 4, 52, 47
8, 4680, Note_on_c, 4, 52, 0
8, 4680, Note_on_c, 4, 47, 81
8, 7560, Note_on_c, 4, 47, 0
8, 7560, Note_on_c, 4, 52, 81
8, 9960, Control_c, 4, 11, 126
8, 9962, Control_c, 4, 11, 125
8, 9964, Control_c, 4, 11, 124
8, 9966, Control_c, 4, 11, 123
8, 9967, Control_c, 4, 11, 122
8, 9969, Control_c, 4, 11, 121
8, 9981, Control_c, 4, 11, 115
8, 9982, Control_c, 4, 11, 114
8, 9988, Control_c, 4, 11, 113
8, 9989, Control_c, 4, 11, 112
8, 9995, Control_c, 4, 11, 110
8, 9996, Control_c, 4, 11, 109
8, 9998, Control_c, 4, 11, 107
8, 9999, Control_c, 4, 11, 106
8, 10000, Control_c, 4, 11, 105
8, 10006, Control_c, 4, 11, 104
8, 10012, Control_c, 4, 11, 103
8, 10022, Control_c, 4, 11, 101
8, 10030, Control_c, 4, 11, 99
8, 10046, Control_c, 4, 11, 93
8, 10054, Control_c, 4, 11, 92
8, 10065, Control_c, 4, 11, 90
8, 10075, Control_c, 4, 11, 88
8, 10081, Control_c, 4, 11, 87
8, 10089, Control_c, 4, 11, 86
8, 10091, Control_c, 4, 11, 85
8, 10092, Control_c, 4, 11, 84
8, 10096, Control_c, 4, 11, 83
8, 10102, Control_c, 4, 11, 82
8, 10103, Control_c, 4, 11, 81
8, 10105, Control_c, 4, 11, 80
8, 10111, Control_c, 4, 11, 79
8, 10112, Control_c, 4, 11, 78
8, 10121, Control_c, 4, 11, 77
8, 10127, Control_c, 4, 11, 76
8, 10128, Control_c, 4, 11, 75
8, 10136, Control_c, 4, 11, 74
8, 10142, Control_c, 4, 11, 72
8, 10143, Control_c, 4, 11, 71
8, 10149, Control_c, 4, 11, 69
8, 10151, Control_c, 4, 11, 68
8, 10153, Control_c, 4, 11, 66
8, 10157, Control_c, 4, 11, 65
8, 10800, Note_on_c, 4, 52, 0
8, 10800, Note_on_c, 4, 56, 81
8, 10800, Control_c, 4, 11, 127
8, 10980, Note_on_c, 4, 56, 0
8, 10980, Note_on_c, 4, 52, 81
8, 11160, Note_on_c, 4, 52, 0
8, 11160, Note_on_c, 4, 57, 81
8, 11340, Note_on_c, 4, 57, 0
8, 11520, Note_on_c, 4, 58, 81
8, 11700, Note_on_c, 4, 58, 0
8, 11700, Note_on_c, 4, 54, 81
8, 11880, Note_on_c, 4, 54, 0
8, 11880, Note_on_c, 4, 59, 81
8, 12060, Note_on_c, 4, 59, 0
8, 12240, Note_on_c, 4, 60, 81
8, 12420, Note_on_c, 4, 60, 0
8, 12420, Note_on_c, 4, 56, 81
8, 12600, Note_on_c, 4, 56, 0
8, 12600, Note_on_c, 4, 61, 81
8, 12780, Note_on_c, 4, 61, 0
8, 12780, Note_on_c, 4, 61, 81
8, 12960, Note_on_c, 4, 61, 0
8, 12960, Note_on_c, 4, 60, 81
8, 13140, Note_on_c, 4, 60, 0
8, 13140, Note_on_c, 4, 59, 81
8, 13320, Note_on_c, 4, 59, 0
8, 13320, Note_on_c, 4, 58, 81
8, 13500, Note_on_c, 4, 58, 0
8, 13500, Note_on_c, 4, 57, 81
8, 13680, Note_on_c, 4, 57, 0
8, 13680, Note_on_c, 4, 56, 81
8, 13860, Note_on_c, 4, 56, 0
8, 13860, Note_on_c, 4, 56, 81
8, 14040, Note_on_c, 4, 56, 0
8, 14040, Note_on_c, 4, 54, 81
8, 14220, Note_on_c, 4, 54, 0
8, 14220, Note_on_c, 4, 54, 81
8, 14400, Note_on_c, 4, 54, 0
8, 14400, Note_on_c, 4, 49, 81
8, 14580, Note_on_c, 4, 49, 0
8, 14580, Note_on_c, 4, 49, 81
8, 14760, Note_on_c, 4, 49, 0
8, 14760, Note_on_c, 4, 49, 81
8, 14940, Note_on_c, 4, 49, 0
8, 14940, Note_on_c, 4, 49, 81
8, 15120, Note_on_c, 4, 49, 0
8, 15120, Note_on_c, 4, 49, 81
8, 15300, Note_on_c, 4, 49, 0
8, 15300, Note_on_c, 4, 54, 81
8, 15480, Note_on_c, 4, 54, 0
8, 15480, Note_on_c, 4, 56, 81
8, 15660, Note_on_c, 4, 56, 0
8, 15660, Note_on_c, 4, 44, 81
8, 15840, Note_on_c, 4, 44, 0
8, 15840, Note_on_c, 4, 49, 81
8, 17640, Note_on_c, 4, 49, 0
8, 17640, Note_on_c, 4, 52, 81
8, 18000, Note_on_c, 4, 52, 0
8, 18000, Note_on_c, 4, 49, 81
8, 18360, Note_on_c, 4, 49, 0
8, 18360, Note_on_c, 4, 51, 81
8, 18540, Note_on_c, 4, 51, 0
8, 18540, Note_on_c, 4, 48, 81
8, 18720, Note_on_c, 4, 48, 0
8, 18720, Note_on_c, 4, 49, 81
8, 18900, Note_on_c, 4, 49, 0
8, 18900, Note_on_c, 4, 54, 81
8, 19080, Note_on_c, 4, 54, 0
8, 19080, Note_on_c, 4, 56, 81
8, 19200, Note_on_c, 4, 56, 0
8, 19200, Note_on_c, 4, 54, 81
8, 19260, Note_on_c, 4, 54, 0
8, 19260, Note_on_c, 4, 52, 81
8, 19380, Note_on_c, 4, 52, 0
8, 19380, Note_on_c, 4, 51, 81
8, 19440, Note_on_c, 4, 51, 0
8, 19440, Note_on_c, 4, 49, 47
8, 19800, Note_on_c, 4, 49, 0
8, 19800, Note_on_c, 4, 51, 47
8, 19980, Note_on_c, 4, 51, 0
8, 19980, Note_on_c, 4, 48, 47
8, 20160, Note_on_c, 4, 48, 0
8, 20160, Note_on_c, 4, 49, 47
8, 20340, Note_on_c, 4, 49, 0
8, 20340, Note_on_c, 4, 54, 47
8, 20520, Note_on_c, 4, 54, 0
8, 20520, Note_on_c, 4, 56, 47
8, 20640, Note_on_c, 4, 56, 0
8, 20640, Note_on_c, 4, 54, 47
8, 20700, Note_on_c, 4, 54, 0
8, 20700, Note_on_c, 4, 52, 47
8, 20820, Note_on_c, 4, 52, 0
8, 20820, Note_on_c, 4, 51, 47
8, 20880, Note_on_c, 4, 51, 0
8, 20880, Note_on_c, 4, 49, 81
8, 21240, Note_on_c, 4, 49, 0
8, 21240, Note_on_c, 4, 54, 81
8, 21300, Note_on_c, 4, 56, 81
8, 21305, Note_on_c, 4, 54, 0
8, 21360, Note_on_c, 4, 57, 81
8, 21365, Note_on_c, 4, 56, 0
8, 21420, Note_on_c, 4, 57, 0
8, 21420, Note_on_c, 4, 57, 81
8, 21480, Note_on_c, 4, 56, 81
8, 21485, Note_on_c, 4, 57, 0
8, 21540, Note_on_c, 4, 54, 81
8, 21545, Note_on_c, 4, 56, 0
8, 21600, Note_on_c, 4, 54, 0
8, 21600, Note_on_c, 4, 47, 81
8, 21960, Note_on_c, 4, 47, 0
8, 21960, Note_on_c, 4, 52, 81
8, 22020, Note_on_c, 4, 54, 81
8, 22025, Note_on_c, 4, 52, 0
8, 22080, Note_on_c, 4, 56, 81
8, 22085, Note_on_c, 4, 54, 0
8, 22140, Note_on_c, 4, 56, 0
8, 22140, Note_on_c, 4, 56, 81
8, 22200, Note_on_c, 4, 54, 81
8, 22205, Note_on_c, 4, 56, 0
8, 22260, Note_on_c, 4, 52, 81
8, 22265, Note_on_c, 4, 54, 0
8, 22320, Note_on_c, 4, 52, 0
8, 22320, Note_on_c, 4, 47, 81
8, 22380, Note_on_c, 4, 49, 81
8, 22385, Note_on_c, 4, 47, 0
8, 22440, Note_on_c, 4, 51, 81
8, 22445, Note_on_c, 4, 49, 0
8, 22500, Note_on_c, 4, 51, 0
8, 22500, Note_on_c, 4, 51, 81
8, 22560, Note_on_c, 4, 49, 81
8, 22565, Note_on_c, 4, 51, 0
8, 22620, Note_on_c, 4, 47, 81
8, 22625, Note_on_c, 4, 49, 0
8, 22680, Note_on_c, 4, 47, 0
8, 22680, Note_on_c, 4, 52, 81
8, 22740, Note_on_c, 4, 54, 81
8, 22745, Note_on_c, 4, 52, 0
8, 22800, Note_on_c, 4, 56, 81
8, 22805, Note_on_c, 4, 54, 0
8, 22860, Note_on_c, 4, 56, 0
8, 22860, Note_on_c, 4, 56, 81
8, 22920, Note_on_c, 4, 54, 81
8, 22925, Note_on_c, 4, 56, 0
8, 22980, Note_on_c, 4, 52, 81
8, 22985, Note_on_c, 4, 54, 0
8, 23040, Note_on_c, 4, 52, 0
8, 23040, Note_on_c, 4, 47, 81
8, 23100, Note_on_c, 4, 49, 81
8, 23105, Note_on_c, 4, 47, 0
8, 23160, Note_on_c, 4, 51, 81
8, 23165, Note_on_c, 4, 49, 0
8, 23220, Note_on_c, 4, 51, 0
8, 23220, Note_on_c, 4, 51, 81
8, 23280, Note_on_c, 4, 49, 81
8, 23285, Note_on_c, 4, 51, 0
8, 23340, Note_on_c, 4, 47, 81
8, 23345, Note_on_c, 4, 49, 0
8, 23400, Note_on_c, 4, 47, 0
8, 23400, Note_on_c, 4, 52, 81
8, 23460, Note_on_c, 4, 54, 81
8, 23465, Note_on_c, 4, 52, 0
8, 23520, Note_on_c, 4, 56, 81
8, 23525, Note_on_c, 4, 54, 0
8, 23580, Note_on_c, 4, 56, 0
8, 23580, Note_on_c, 4, 56, 81
8, 23640, Note_on_c, 4, 54, 81
8, 23645, Note_on_c, 4, 56, 0
8, 23700, Note_on_c, 4, 52, 81
8, 23705, Note_on_c, 4, 54, 0
8, 23760, Note_on_c, 4, 52, 0
8, 23760, Note_on_c, 4, 52, 81
8, 24120, Note_on_c, 4, 52, 0
8, 24120, Note_on_c, 4, 51, 81
8, 24180, Note_on_c, 4, 49, 81
8, 24185, Note_on_c, 4, 51, 0
8, 24240, Note_on_c, 4, 47, 81
8, 24245, Note_on_c, 4, 49, 0
8, 24300, Note_on_c, 4, 47, 0
8, 24300, Note_on_c, 4, 47, 81
8, 24360, Note_on_c, 4, 49, 81
8, 24365, Note_on_c, 4, 47, 0
8, 24420, Note_on_c, 4, 51, 81
8, 24425, Note_on_c, 4, 49, 0
8, 24480, Note_on_c, 4, 51, 0
8, 24480, Note_on_c, 4, 52, 81
8, 24660, Note_on_c, 4, 52, 0
8, 24660, Note_on_c, 4, 54, 81
8, 24840, Note_on_c, 4, 54, 0
8, 24840, Note_on_c, 4, 47, 81
8, 25020, Note_on_c, 4, 47, 0
8, 25200, Note_on_c, 4, 47, 81
8, 25380, Note_on_c, 4, 47, 0
8, 25560, Note_on_c, 4, 47, 81
8, 25740, Note_on_c, 4, 47, 0
8, 25920, Note_on_c, 4, 47, 81
8, 26100, Note_on_c, 4, 47, 0
8, 26280, Note_on_c, 4, 51, 81
8, 26460, Note_on_c, 4, 51, 0
8, 26460, Note_on_c, 4, 47, 81
8, 26640, Note_on_c, 4, 47, 0
8, 26640, Note_on_c, 4, 40, 81
8, 26820, Note_on_c, 4, 40, 0
8, 27000, Note_on_c, 4, 56, 81
8, 27180, Note_on_c, 4, 56, 0
8, 27180, Note_on_c, 4, 52, 81
8, 27360, Note_on_c, 4, 52, 0
8, 27360, Note_on_c, 4, 45, 81
8, 27540, Note_on_c, 4, 45, 0
8, 27720, Note_on_c, 4, 61, 81
8, 27900, Note_on_c, 4, 61, 0
8, 27900, Note_on_c, 4, 57, 81
8, 28080, Note_on_c, 4, 57, 0
8, 28080, Note_on_c, 4, 50, 81
8, 28260, Note_on_c, 4, 50, 0
8, 28440, Note_on_c, 4, 51, 81
8, 28620, Note_on_c, 4, 51, 0
8, 28620, Note_on_c, 4, 47, 81
8, 28800, Note_on_c, 4, 47, 0
8, 28800, Note_on_c, 4, 52, 81
8, 29160, Note_on_c, 4, 52, 0
8, 29160, Note_on_c, 4, 47, 81
8, 30960, Note_on_c, 4, 47, 0
8, 30960, Note_on_c, 4, 52, 81
8, 33841, Control_c, 4, 11, 126
8, 33858, Control_c, 4, 11, 125
8, 33884, Control_c, 4, 11, 124
8, 33921, Control_c, 4, 11, 123
8, 33961, Control_c, 4, 11, 122
8, 33988, Control_c, 4, 11, 121
8, 34041, Control_c, 4, 11, 120
8, 34074, Control_c, 4, 11, 119
8, 34121, Control_c, 4, 11, 118
8, 34151, Control_c, 4, 11, 117
8, 34181, Control_c, 4, 11, 116
8, 34214, Control_c, 4, 11, 115
8, 34248, Control_c, 4, 11, 114
8, 34301, Control_c, 4, 11, 113
8, 34341, Control_c, 4, 11, 112
8, 34351, Control_c, 4, 11, 111
8, 34361, Control_c, 4, 11, 110
8, 34374, Control_c, 4, 11, 109
8, 34408, Control_c, 4, 11, 108
8, 34418, Control_c, 4, 11, 107
8, 34438, Control_c, 4, 11, 106
8, 34461, Control_c, 4, 11, 105
8, 34468, Control_c, 4, 11, 104
8, 34514, Control_c, 4, 11, 102
8, 34521, Control_c, 4, 11, 101
8, 34534, Control_c, 4, 11, 100
8, 34561, Control_c, 4, 11, 98
8, 34564, Control_c, 4, 11, 96
8, 34584, Control_c, 4, 11, 95
8, 34604, Control_c, 4, 11, 93
8, 34624, Control_c, 4, 11, 92
8, 34644, Control_c, 4, 11, 91
8, 34668, Control_c, 4, 11, 90
8, 34754, Control_c, 4, 11, 89
8, 34778, Control_c, 4, 11, 88
8, 34811, Control_c, 4, 11, 86
8, 34818, Control_c, 4, 11, 85
8, 34838, Control_c, 4, 11, 84
8, 34844, Control_c, 4, 11, 83
8, 34851, Control_c, 4, 11, 82
8, 34861, Control_c, 4, 11, 81
8, 34868, Control_c, 4, 11, 80
8, 34894, Control_c, 4, 11, 79
8, 34898, Control_c, 4, 11, 78
8, 34908, Control_c, 4, 11, 77
8, 34911, Control_c, 4, 11, 75
8, 34918, Control_c, 4, 11, 74
8, 34920, Note_on_c, 4, 52, 0
8, 34924, Control_c, 4, 11, 73
8, 34944, Control_c, 4, 11, 71
8, 34948, Control_c, 4, 11, 70
8, 34968, Control_c, 4, 11, 69
8, 34971, Control_c, 4, 11, 67
8, 34974, Control_c, 4, 11, 66
8, 34981, Control_c, 4, 11, 64
8, 34984, Control_c, 4, 11, 63
8, 35276, Control_c, 4, 11, 126
8, 41760, Note_on_c, 4, 59, 81
8, 41940, Note_on_c, 4, 59, 0
8, 42120, Note_on_c, 4, 52, 81
8, 43920, Note_on_c, 4, 52, 0
8, 43920, Note_on_c, 4, 47, 81
8, 44280, Note_on_c, 4, 47, 0
8, 44280, Note_on_c, 4, 52, 81
8, 44580, Note_on_c, 4, 52, 0
8, 44580, Note_on_c, 4, 57, 81
8, 44640, Note_on_c, 4, 57, 0
8, 44640, Note_on_c, 4, 59, 81
8, 44730, Note_on_c, 4, 59, 0
8, 44730, Note_on_c, 4, 57, 81
8, 44760, Note_on_c, 4, 57, 0
8, 44760, Note_on_c, 4, 59, 81
8, 44820, Note_on_c, 4, 59, 0
8, 44820, Note_on_c, 4, 59, 81
8, 44910, Note_on_c, 4, 59, 0
8, 44910, Note_on_c, 4, 57, 81
8, 44940, Note_on_c, 4, 57, 0
8, 44940, Note_on_c, 4, 59, 81
8, 45000, Note_on_c, 4, 59, 0
8, 45000, Note_on_c, 4, 50, 81
8, 45300, Note_on_c, 4, 50, 0
8, 45300, Note_on_c, 4, 55, 81
8, 45360, Note_on_c, 4, 55, 0
8, 45360, Note_on_c, 4, 59, 81
8, 45450, Note_on_c, 4, 59, 0
8, 45450, Note_on_c, 4, 57, 81
8, 45480, Note_on_c, 4, 57, 0
8, 45480, Note_on_c, 4, 59, 81
8, 45540, Note_on_c, 4, 59, 0
8, 45540, Note_on_c, 4, 59, 81
8, 45630, Note_on_c, 4, 59, 0
8, 45630, Note_on_c, 4, 57, 81
8, 45660, Note_on_c, 4, 57, 0
8, 45660, Note_on_c, 4, 59, 81
8, 45720, Note_on_c, 4, 59, 0
8, 45720, Note_on_c, 4, 57, 81
8, 46020, Note_on_c, 4, 57, 0
8, 46020, Note_on_c, 4, 57, 81
8, 46080, Note_on_c, 4, 57, 0
8, 46080, Note_on_c, 4, 59, 81
8, 46200, Note_on_c, 4, 59, 0
8, 46200, Note_on_c, 4, 47, 81
8, 46260, Note_on_c, 4, 47, 0
8, 46260, Note_on_c, 4, 47, 81
8, 46380, Note_on_c, 4, 47, 0
8, 46380, Note_on_c, 4, 59, 81
8, 46440, Note_on_c, 4, 59, 0
8, 46440, Note_on_c, 4, 64, 81
8, 46500, Note_on_c, 4, 62, 81
8, 46505, Note_on_c, 4, 64, 0
8, 46560, Note_on_c, 4, 64, 81
8, 46565, Note_on_c, 4, 62, 0
8, 46620, Note_on_c, 4, 64, 0
8, 46620, Note_on_c, 4, 56, 81
8, 46680, Note_on_c, 4, 54, 81
8, 46685, Note_on_c, 4, 56, 0
8, 46740, Note_on_c, 4, 52, 81
8, 46745, Note_on_c, 4, 54, 0
8, 46800, Note_on_c, 4, 52, 0
8, 46800, Note_on_c, 4, 57, 81
8, 46860, Note_on_c, 4, 56, 81
8, 46865, Note_on_c, 4, 57, 0
8, 46920, Note_on_c, 4, 57, 81
8, 46925, Note_on_c, 4, 56, 0
8, 46980, Note_on_c, 4, 57, 0
8, 46980, Note_on_c, 4, 48, 81
8, 47040, Note_on_c, 4, 47, 81
8, 47045, Note_on_c, 4, 48, 0
8, 47100, Note_on_c, 4, 45, 81
8, 47105, Note_on_c, 4, 47, 0
8, 47160, Note_on_c, 4, 45, 0
8, 47160, Note_on_c, 4, 62, 81
8, 47220, Note_on_c, 4, 60, 81
8, 47225, Note_on_c, 4, 62, 0
8, 47280, Note_on_c, 4, 62, 81
8, 47285, Note_on_c, 4, 60, 0
8, 47340, Note_on_c, 4, 62, 0
8, 47340, Note_on_c, 4, 54, 81
8, 47400, Note_on_c, 4, 52, 81
8, 47405, Note_on_c, 4, 54, 0
8, 47460, Note_on_c, 4, 50, 81
8, 47465, Note_on_c, 4, 52, 0
8, 47520, Note_on_c, 4, 50, 0
8, 47520, Note_on_c, 4, 55, 81
8, 47580, Note_on_c, 4, 54, 81
8, 47585, Note_on_c, 4, 55, 0
8, 47640, Note_on_c, 4, 55, 81
8, 47645, Note_on_c, 4, 54, 0
8, 47700, Note_on_c, 4, 55, 0
8, 47700, Note_on_c, 4, 47, 81
8, 47760, Note_on_c, 4, 45, 81
8, 47765, Note_on_c, 4, 47, 0
8, 47820, Note_on_c, 4, 43, 81
8, 47825, Note_on_c, 4, 45, 0
8, 47880, Note_on_c, 4, 43, 0
8, 47880, Note_on_c, 4, 60, 81
8, 47940, Note_on_c, 4, 59, 81
8, 47945, Note_on_c, 4, 60, 0
8, 48000, Note_on_c, 4, 60, 81
8, 48005, Note_on_c, 4, 59, 0
8, 48060, Note_on_c, 4, 60, 0
8, 48060, Note_on_c, 4, 52, 81
8, 48120, Note_on_c, 4, 50, 81
8, 48125, Note_on_c, 4, 52, 0
8, 48180, Note_on_c, 4, 48, 81
8, 48185, Note_on_c, 4, 50, 0
8, 48240, Note_on_c, 4, 48, 0
8, 48240, Note_on_c, 4, 57, 81
8, 48300, Note_on_c, 4, 56, 81
8, 48305, Note_on_c, 4, 57, 0
8, 48360, Note_on_c, 4, 57, 81
8, 48365, Note_on_c, 4, 56, 0
8, 48420, Note_on_c, 4, 57, 0
8, 48420, Note_on_c, 4, 59, 81
8, 48480, Note_on_c, 4, 57, 81
8, 48485, Note_on_c, 4, 59, 0
8, 48540, Note_on_c, 4, 59, 81
8, 48545, Note_on_c, 4, 57, 0
8, 48600, Note_on_c, 4, 59, 0
8, 48600, Note_on_c, 4, 60, 81
8, 48660, Note_on_c, 4, 59, 81
8, 48665, Note_on_c, 4, 60, 0
8, 48720, Note_on_c, 4, 60, 81
8, 48725, Note_on_c, 4, 59, 0
8, 48780, Note_on_c, 4, 60, 0
8, 48780, Note_on_c, 4, 59, 81
8, 48840, Note_on_c, 4, 57, 81
8, 48845, Note_on_c, 4, 59, 0
8, 48900, Note_on_c, 4, 59, 81
8, 48905, Note_on_c, 4, 57, 0
8, 48960, Note_on_c, 4, 59, 0
8, 48960, Note_on_c, 4, 52, 81
8, 49140, Note_on_c, 4, 52, 0
8, 49140, Note_on_c, 4, 64, 81
8, 49320, Note_on_c, 4, 64, 0
8, 49320, Note_on_c, 4, 63, 81
8, 49500, Note_on_c, 4, 63, 0
8, 49500, Note_on_c, 4, 62, 81
8, 49680, Note_on_c, 4, 62, 0
8, 49680, Note_on_c, 4, 61, 81
8, 49860, Note_on_c, 4, 61, 0
8, 49860, Note_on_c, 4, 60, 81
8, 50040, Note_on_c, 4, 60, 0
8, 50040, Note_on_c, 4, 59, 81
8, 50400, Note_on_c, 4, 59, 0
8, 50400, Note_on_c, 4, 52, 81
8, 50580, Note_on_c, 4, 52, 0
8, 50580, Note_on_c, 4, 64, 81
8, 50760, Note_on_c, 4, 64, 0
8, 50760, Note_on_c, 4, 63, 81
8, 50940, Note_on_c, 4, 63, 0
8, 50940, Note_on_c, 4, 62, 81
8, 51120, Note_on_c, 4, 62, 0
8, 51120, Note_on_c, 4, 61, 81
8, 51300, Note_on_c, 4, 61, 0
8, 51300, Note_on_c, 4, 60, 81
8, 51480, Note_on_c, 4, 60, 0
8, 51480, Note_on_c, 4, 47, 81
8, 56880, Note_on_c, 4, 47, 0
8, 56880, Note_on_c, 4, 52, 81
8, 57060, Note_on_c, 4, 52, 0
8, 57060, Note_on_c, 4, 47, 81
8, 57240, Note_on_c, 4, 47, 0
8, 57240, Note_on_c, 4, 52, 81
8, 59040, Note_on_c, 4, 52, 0
8, 59040, Note_on_c, 4, 47, 81
8, 60480, Note_on_c, 4, 47, 0
8, 60480, Note_on_c, 4, 52, 81
8, 61920, Note_on_c, 4, 52, 0
8, 61920, Note_on_c, 4, 52, 81
8, 62040, Note_on_c, 4, 52, 0
8, 62040, Note_on_c, 4, 40, 81
8, 62100, Note_on_c, 4, 40, 0
8, 62100, Note_on_c, 4, 59, 81
8, 62220, Note_on_c, 4, 59, 0
8, 62220, Note_on_c, 4, 47, 81
8, 62280, Note_on_c, 4, 47, 0
8, 62280, Note_on_c, 4, 52, 47
8, 63840, Note_on_c, 4, 52, 0
8, 63840, Note_on_c, 4, 40, 47
8, 63900, Note_on_c, 4, 40, 0
8, 63900, Note_on_c, 4, 59, 47
8, 64020, Note_on_c, 4, 59, 0
8, 64020, Note_on_c, 4, 47, 47
8, 64080, Note_on_c, 4, 47, 0
8, 64080, Note_on_c, 4, 40, 47
8, 64800, Note_on_c, 4, 40, 0
8, 65161, Program_c, 4, 0
8, 65162, Control_c, 4, 7, 100
8, 65163, Control_c, 4, 10, 64
8, 65164, Control_c, 4, 93, 0
8, 65165, Control_c, 4, 91, 40
8, 65166, Control_c, 4, 99, 1
8, 65167, Control_c, 4, 98, 8
8, 65168, Control_c, 4, 6, 64
8, 65169, Control_c, 4, 99, 1
8, 65170, Control_c, 4, 98, 10
8, 65171, Control_c, 4, 6, 64
8, 65172, Control_c, 4, 99, 1
8, 65173, Control_c, 4, 98, 9
8, 65174, Control_c, 4, 6, 64
8, 65175, Pitch_bend_c, 4, 8192
8, 65175, End_track
9, 0, Start_track
9, 0, MIDI_port, 1
9, 0, Title_t, "   Orchestra"
9, 0, Program_c, 6, 48
9, 0, Control_c, 6, 7, 60
9, 0, Control_c, 6, 10, 80
9, 0, Program_c, 6, 48
9, 0, Control_c, 6, 7, 60
9, 0, Control_c, 6, 10, 80
9, 0, Control_c, 6, 93, 0
9, 0, Control_c, 6, 91, 120
9, 0, Control_c, 6, 11, 127
9, 0, Pitch_bend_c, 6, 8192
9, 720, Note_on_c, 6, 64, 81
9, 2520, Note_on_c, 6, 64, 0
9, 2520, Note_on_c, 6, 59, 81
9, 2880, Note_on_c, 6, 59, 0
9, 2880, Note_on_c, 6, 64, 47
9, 4680, Note_on_c, 6, 64, 0
9, 4680, Note_on_c, 6, 59, 81
9, 7560, Note_on_c, 6, 59, 0
9, 7560, Note_on_c, 6, 64, 81
9, 9960, Control_c, 6, 11, 126
9, 9963, Control_c, 6, 11, 125
9, 9969, Control_c, 6, 11, 124
9, 9979, Control_c, 6, 11, 122
9, 9985, Control_c, 6, 11, 121
9, 9987, Control_c, 6, 11, 120
9, 9994, Control_c, 6, 11, 119
9, 10002, Control_c, 6, 11, 117
9, 10004, Control_c, 6, 11, 116
9, 10015, Control_c, 6, 11, 110
9, 10021, Control_c, 6, 11, 109
9, 10023, Control_c, 6, 11, 108
9, 10031, Control_c, 6, 11, 106
9, 10037, Control_c, 6, 11, 105
9, 10039, Control_c, 6, 11, 104
9, 10041, Control_c, 6, 11, 103
9, 10055, Control_c, 6, 11, 101
9, 10069, Control_c, 6, 11, 99
9, 10070, Control_c, 6, 11, 98
9, 10085, Control_c, 6, 11, 96
9, 10095, Control_c, 6, 11, 95
9, 10097, Control_c, 6, 11, 94
9, 10109, Control_c, 6, 11, 92
9, 10117, Control_c, 6, 11, 91
9, 10118, Control_c, 6, 11, 90
9, 10121, Control_c, 6, 11, 88
9, 10127, Control_c, 6, 11, 87
9, 10137, Control_c, 6, 11, 85
9, 10150, Control_c, 6, 11, 79
9, 10156, Control_c, 6, 11, 78
9, 10158, Control_c, 6, 11, 76
9, 10159, Control_c, 6, 11, 74
9, 10161, Control_c, 6, 11, 68
9, 10800, Note_on_c, 6, 64, 0
9, 10800, Control_c, 6, 11, 127
9, 15840, Note_on_c, 6, 61, 81
9, 17640, Note_on_c, 6, 61, 0
9, 17640, Note_on_c, 6, 64, 81
9, 18000, Note_on_c, 6, 64, 0
9, 18000, Note_on_c, 6, 61, 81
9, 18360, Note_on_c, 6, 61, 0
9, 18360, Note_on_c, 6, 63, 81
9, 18540, Note_on_c, 6, 63, 0
9, 18540, Note_on_c, 6, 60, 81
9, 18720, Note_on_c, 6, 60, 0
9, 18720, Note_on_c, 6, 61, 81
9, 18900, Note_on_c, 6, 61, 0
9, 18900, Note_on_c, 6, 66, 81
9, 19080, Note_on_c, 6, 66, 0
9, 19080, Note_on_c, 6, 68, 81
9, 19200, Note_on_c, 6, 68, 0
9, 19200, Note_on_c, 6, 66, 81
9, 19260, Note_on_c, 6, 66, 0
9, 19260, Note_on_c, 6, 64, 81
9, 19380, Note_on_c, 6, 64, 0
9, 19380, Note_on_c, 6, 63, 81
9, 19440, Note_on_c, 6, 63, 0
9, 19440, Note_on_c, 6, 61, 47
9, 19800, Note_on_c, 6, 61, 0
9, 19800, Note_on_c, 6, 63, 47
9, 19980, Note_on_c, 6, 63, 0
9, 19980, Note_on_c, 6, 60, 47
9, 20160, Note_on_c, 6, 60, 0
9, 20160, Note_on_c, 6, 61, 47
9, 20340, Note_on_c, 6, 61, 0
9, 20340, Note_on_c, 6, 66, 47
9, 20520, Note_on_c, 6, 66, 0
9, 20520, Note_on_c, 6, 68, 47
9, 20640, Note_on_c, 6, 68, 0
9, 20640, Note_on_c, 6, 66, 47
9, 20700, Note_on_c, 6, 66, 0
9, 20700, Note_on_c, 6, 64, 47
9, 20820, Note_on_c, 6, 64, 0
9, 20820, Note_on_c, 6, 63, 47
9, 20880, Note_on_c, 6, 63, 0
9, 20880, Note_on_c, 6, 61, 81
9, 21240, Note_on_c, 6, 61, 0
9, 21240, Note_on_c, 6, 66, 81
9, 21300, Note_on_c, 6, 68, 81
9, 21305, Note_on_c, 6, 66, 0
9, 21360, Note_on_c, 6, 69, 81
9, 21365, Note_on_c, 6, 68, 0
9, 21420, Note_on_c, 6, 69, 0
9, 21420, Note_on_c, 6, 69, 81
9, 21480, Note_on_c, 6, 68, 81
9, 21485, Note_on_c, 6, 69, 0
9, 21540, Note_on_c, 6, 66, 81
9, 21545, Note_on_c, 6, 68, 0
9, 21600, Note_on_c, 6, 66, 0
9, 21600, Note_on_c, 6, 59, 81
9, 21960, Note_on_c, 6, 59, 0
9, 21960, Note_on_c, 6, 64, 81
9, 22020, Note_on_c, 6, 66, 81
9, 22025, Note_on_c, 6, 64, 0
9, 22080, Note_on_c, 6, 68, 81
9, 22085, Note_on_c, 6, 66, 0
9, 22140, Note_on_c, 6, 68, 0
9, 22140, Note_on_c, 6, 68, 81
9, 22200, Note_on_c, 6, 66, 81
9, 22205, Note_on_c, 6, 68, 0
9, 22260, Note_on_c, 6, 64, 81
9, 22265, Note_on_c, 6, 66, 0
9, 22320, Note_on_c, 6, 64, 0
9, 22320, Note_on_c, 6, 59, 81
9, 22380, Note_on_c, 6, 61, 81
9, 22385, Note_on_c, 6, 59, 0
9, 22440, Note_on_c, 6, 63, 81
9, 22445, Note_on_c, 6, 61, 0
9, 22500, Note_on_c, 6, 63, 0
9, 22500, Note_on_c, 6, 63, 81
9, 22560, Note_on_c, 6, 61, 81
9, 22565, Note_on_c, 6, 63, 0
9, 22620, Note_on_c, 6, 59, 81
9, 22625, Note_on_c, 6, 61, 0
9, 22680, Note_on_c, 6, 59, 0
9, 22680, Note_on_c, 6, 64, 81
9, 22740, Note_on_c, 6, 66, 81
9, 22745, Note_on_c, 6, 64, 0
9, 22800, Note_on_c, 6, 68, 81
9, 22805, Note_on_c, 6, 66, 0
9, 22860, Note_on_c, 6, 68, 0
9, 22860, Note_on_c, 6, 68, 81
9, 22920, Note_on_c, 6, 66, 81
9, 22925, Note_on_c, 6, 68, 0
9, 22980, Note_on_c, 6, 64, 81
9, 22985, Note_on_c, 6, 66, 0
9, 23040, Note_on_c, 6, 64, 0
9, 23040, Note_on_c, 6, 59, 81
9, 23100, Note_on_c, 6, 61, 81
9, 23105, Note_on_c, 6, 59, 0
9, 23160, Note_on_c, 6, 63, 81
9, 23165, Note_on_c, 6, 61, 0
9, 23220, Note_on_c, 6, 63, 0
9, 23220, Note_on_c, 6, 63, 81
9, 23280, Note_on_c, 6, 61, 81
9, 23285, Note_on_c, 6, 63, 0
9, 23340, Note_on_c, 6, 59, 81
9, 23345, Note_on_c, 6, 61, 0
9, 23400, Note_on_c, 6, 59, 0
9, 23400, Note_on_c, 6, 64, 81
9, 23460, Note_on_c, 6, 66, 81
9, 23465, Note_on_c, 6, 64, 0
9, 23520, Note_on_c, 6, 68, 81
9, 23525, Note_on_c, 6, 66, 0
9, 23580, Note_on_c, 6, 68, 0
9, 23580, Note_on_c, 6, 68, 81
9, 23640, Note_on_c, 6, 66, 81
9, 23645, Note_on_c, 6, 68, 0
9, 23700, Note_on_c, 6, 64, 81
9, 23705, Note_on_c, 6, 66, 0
9, 23760, Note_on_c, 6, 64, 0
9, 23760, Note_on_c, 6, 64, 81
9, 24120, Note_on_c, 6, 64, 0
9, 24120, Note_on_c, 6, 63, 81
9, 24180, Note_on_c, 6, 61, 81
9, 24185, Note_on_c, 6, 63, 0
9, 24240, Note_on_c, 6, 59, 81
9, 24245, Note_on_c, 6, 61, 0
9, 24300, Note_on_c, 6, 59, 0
9, 24300, Note_on_c, 6, 59, 81
9, 24360, Note_on_c, 6, 61, 81
9, 24365, Note_on_c, 6, 59, 0
9, 24420, Note_on_c, 6, 63, 81
9, 24425, Note_on_c, 6, 61, 0
9, 24480, Note_on_c, 6, 63, 0
9, 24480, Note_on_c, 6, 64, 81
9, 24660, Note_on_c, 6, 64, 0
9, 24660, Note_on_c, 6, 66, 81
9, 24840, Note_on_c, 6, 66, 0
9, 24840, Note_on_c, 6, 59, 81
9, 25020, Note_on_c, 6, 59, 0
9, 25200, Note_on_c, 6, 59, 81
9, 25380, Note_on_c, 6, 59, 0
9, 25560, Note_on_c, 6, 59, 81
9, 25740, Note_on_c, 6, 59, 0
9, 25920, Note_on_c, 6, 59, 81
9, 26100, Note_on_c, 6, 59, 0
9, 26280, Note_on_c, 6, 63, 81
9, 26460, Note_on_c, 6, 63, 0
9, 26460, Note_on_c, 6, 59, 81
9, 26640, Note_on_c, 6, 59, 0
9, 26640, Note_on_c, 6, 52, 81
9, 26820, Note_on_c, 6, 52, 0
9, 27000, Note_on_c, 6, 68, 81
9, 27180, Note_on_c, 6, 68, 0
9, 27180, Note_on_c, 6, 64, 81
9, 27360, Note_on_c, 6, 64, 0
9, 27360, Note_on_c, 6, 57, 81
9, 27540, Note_on_c, 6, 57, 0
9, 27720, Note_on_c, 6, 73, 81
9, 27900, Note_on_c, 6, 73, 0
9, 27900, Note_on_c, 6, 69, 81
9, 28080, Note_on_c, 6, 69, 0
9, 28080, Note_on_c, 6, 62, 81
9, 28260, Note_on_c, 6, 62, 0
9, 28440, Note_on_c, 6, 63, 81
9, 28620, Note_on_c, 6, 63, 0
9, 28620, Note_on_c, 6, 59, 81
9, 28800, Note_on_c, 6, 59, 0
9, 28800, Note_on_c, 6, 64, 81
9, 29160, Note_on_c, 6, 64, 0
9, 29160, Note_on_c, 6, 59, 81
9, 30960, Note_on_c, 6, 59, 0
9, 30960, Note_on_c, 6, 64, 81
9, 33841, Control_c, 6, 11, 126
9, 33844, Control_c, 6, 11, 125
9, 33864, Control_c, 6, 11, 124
9, 33898, Control_c, 6, 11, 123
9, 33931, Control_c, 6, 11, 122
9, 33951, Control_c, 6, 11, 121
9, 33964, Control_c, 6, 11, 120
9, 34011, Control_c, 6, 11, 119
9, 34078, Control_c, 6, 11, 118
9, 34098, Control_c, 6, 11, 117
9, 34141, Control_c, 6, 11, 116
9, 34154, Control_c, 6, 11, 115
9, 34184, Control_c, 6, 11, 114
9, 34224, Control_c, 6, 11, 113
9, 34228, Control_c, 6, 11, 112
9, 34274, Control_c, 6, 11, 111
9, 34308, Control_c, 6, 11, 110
9, 34354, Control_c, 6, 11, 109
9, 34401, Control_c, 6, 11, 108
9, 34441, Control_c, 6, 11, 107
9, 34461, Control_c, 6, 11, 106
9, 34504, Control_c, 6, 11, 104
9, 34531, Control_c, 6, 11, 103
9, 34544, Control_c, 6, 11, 102
9, 34554, Control_c, 6, 11, 101
9, 34561, Control_c, 6, 11, 100
9, 34594, Control_c, 6, 11, 98
9, 34601, Control_c, 6, 11, 97
9, 34654, Control_c, 6, 11, 95
9, 34668, Control_c, 6, 11, 94
9, 34674, Control_c, 6, 11, 93
9, 34718, Control_c, 6, 11, 91
9, 34744, Control_c, 6, 11, 90
9, 34764, Control_c, 6, 11, 89
9, 34798, Control_c, 6, 11, 87
9, 34818, Control_c, 6, 11, 86
9, 34848, Control_c, 6, 11, 85
9, 34851, Control_c, 6, 11, 84
9, 34861, Control_c, 6, 11, 83
9, 34868, Control_c, 6, 11, 81
9, 34898, Control_c, 6, 11, 79
9, 34904, Control_c, 6, 11, 78
9, 34908, Control_c, 6, 11, 77
9, 34920, Note_on_c, 6, 64, 0
9, 34934, Control_c, 6, 11, 75
9, 34938, Control_c, 6, 11, 74
9, 34958, Control_c, 6, 11, 72
9, 34984, Control_c, 6, 11, 70
9, 34988, Control_c, 6, 11, 68
9, 34994, Control_c, 6, 11, 62
9, 35280, Control_c, 6, 11, 127
9, 41760, Note_on_c, 6, 71, 81
9, 41940, Note_on_c, 6, 71, 0
9, 42120, Note_on_c, 6, 64, 81
9, 43920, Note_on_c, 6, 64, 0
9, 43920, Note_on_c, 6, 59, 81
9, 44280, Note_on_c, 6, 59, 0
9, 44280, Note_on_c, 6, 64, 81
9, 44580, Note_on_c, 6, 64, 0
9, 44580, Note_on_c, 6, 69, 81
9, 44640, Note_on_c, 6, 69, 0
9, 44640, Note_on_c, 6, 71, 81
9, 44730, Note_on_c, 6, 71, 0
9, 44730, Note_on_c, 6, 69, 81
9, 44760, Note_on_c, 6, 69, 0
9, 44760, Note_on_c, 6, 71, 81
9, 44820, Note_on_c, 6, 71, 0
9, 44820, Note_on_c, 6, 71, 81
9, 44910, Note_on_c, 6, 71, 0
9, 44910, Note_on_c, 6, 69, 81
9, 44940, Note_on_c, 6, 69, 0
9, 44940, Note_on_c, 6, 71, 81
9, 45000, Note_on_c, 6, 71, 0
9, 45000, Note_on_c, 6, 62, 81
9, 45300, Note_on_c, 6, 62, 0
9, 45300, Note_on_c, 6, 67, 81
9, 45360, Note_on_c, 6, 67, 0
9, 45360, Note_on_c, 6, 71, 81
9, 45450, Note_on_c, 6, 71, 0
9, 45450, Note_on_c, 6, 69, 81
9, 45480, Note_on_c, 6, 69, 0
9, 45480, Note_on_c, 6, 71, 81
9, 45540, Note_on_c, 6, 71, 0
9, 45540, Note_on_c, 6, 71, 81
9, 45630, Note_on_c, 6, 71, 0
9, 45630, Note_on_c, 6, 69, 81
9, 45660, Note_on_c, 6, 69, 0
9, 45660, Note_on_c, 6, 71, 81
9, 45720, Note_on_c, 6, 71, 0
9, 45720, Note_on_c, 6, 69, 81
9, 46020, Note_on_c, 6, 69, 0
9, 46020, Note_on_c, 6, 69, 81
9, 46080, Note_on_c, 6, 69, 0
9, 46080, Note_on_c, 6, 71, 81
9, 46200, Note_on_c, 6, 71, 0
9, 46200, Note_on_c, 6, 59, 81
9, 46260, Note_on_c, 6, 59, 0
9, 46260, Note_on_c, 6, 59, 81
9, 46380, Note_on_c, 6, 59, 0
9, 46380, Note_on_c, 6, 71, 81
9, 46440, Note_on_c, 6, 71, 0
9, 46440, Note_on_c, 6, 76, 81
9, 46500, Note_on_c, 6, 74, 81
9, 46505, Note_on_c, 6, 76, 0
9, 46560, Note_on_c, 6, 76, 81
9, 46565, Note_on_c, 6, 74, 0
9, 46620, Note_on_c, 6, 76, 0
9, 46620, Note_on_c, 6, 68, 81
9, 46680, Note_on_c, 6, 66, 81
9, 46685, Note_on_c, 6, 68, 0
9, 46740, Note_on_c, 6, 64, 81
9, 46745, Note_on_c, 6, 66, 0
9, 46800, Note_on_c, 6, 64, 0
9, 46800, Note_on_c, 6, 69, 81
9, 46860, Note_on_c, 6, 68, 81
9, 46865, Note_on_c, 6, 69, 0
9, 46920, Note_on_c, 6, 69, 81
9, 46925, Note_on_c, 6, 68, 0
9, 46980, Note_on_c, 6, 69, 0
9, 46980, Note_on_c, 6, 60, 81
9, 47040, Note_on_c, 6, 59, 81
9, 47045, Note_on_c, 6, 60, 0
9, 47100, Note_on_c, 6, 57, 81
9, 47105, Note_on_c, 6, 59, 0
9, 47160, Note_on_c, 6, 57, 0
9, 47160, Note_on_c, 6, 74, 81
9, 47220, Note_on_c, 6, 72, 81
9, 47225, Note_on_c, 6, 74, 0
9, 47280, Note_on_c, 6, 74, 81
9, 47285, Note_on_c, 6, 72, 0
9, 47340, Note_on_c, 6, 74, 0
9, 47340, Note_on_c, 6, 66, 81
9, 47400, Note_on_c, 6, 64, 81
9, 47405, Note_on_c, 6, 66, 0
9, 47460, Note_on_c, 6, 62, 81
9, 47465, Note_on_c, 6, 64, 0
9, 47520, Note_on_c, 6, 62, 0
9, 47520, Note_on_c, 6, 67, 81
9, 47580, Note_on_c, 6, 66, 81
9, 47585, Note_on_c, 6, 67, 0
9, 47640, Note_on_c, 6, 67, 81
9, 47645, Note_on_c, 6, 66, 0
9, 47700, Note_on_c, 6, 67, 0
9, 47700, Note_on_c, 6, 59, 81
9, 47760, Note_on_c, 6, 57, 81
9, 47765, Note_on_c, 6, 59, 0
9, 47820, Note_on_c, 6, 55, 81
9, 47825, Note_on_c, 6, 57, 0
9, 47880, Note_on_c, 6, 55, 0
9, 47880, Note_on_c, 6, 72, 81
9, 47940, Note_on_c, 6, 71, 81
9, 47945, Note_on_c, 6, 72, 0
9, 48000, Note_on_c, 6, 72, 81
9, 48005, Note_on_c, 6, 71, 0
9, 48060, Note_on_c, 6, 72, 0
9, 48060, Note_on_c, 6, 64, 81
9, 48120, Note_on_c, 6, 62, 81
9, 48125, Note_on_c, 6, 64, 0
9, 48180, Note_on_c, 6, 60, 81
9, 48185, Note_on_c, 6, 62, 0
9, 48240, Note_on_c, 6, 60, 0
9, 48240, Note_on_c, 6, 69, 81
9, 48300, Note_on_c, 6, 68, 81
9, 48305, Note_on_c, 6, 69, 0
9, 48360, Note_on_c, 6, 69, 81
9, 48365, Note_on_c, 6, 68, 0
9, 48420, Note_on_c, 6, 69, 0
9, 48420, Note_on_c, 6, 71, 81
9, 48480, Note_on_c, 6, 69, 81
9, 48485, Note_on_c, 6, 71, 0
9, 48540, Note_on_c, 6, 71, 81
9, 48545, Note_on_c, 6, 69, 0
9, 48600, Note_on_c, 6, 71, 0
9, 48600, Note_on_c, 6, 72, 81
9, 48660, Note_on_c, 6, 71, 81
9, 48665, Note_on_c, 6, 72, 0
9, 48720, Note_on_c, 6, 72, 81
9, 48725, Note_on_c, 6, 71, 0
9, 48780, Note_on_c, 6, 72, 0
9, 48780, Note_on_c, 6, 71, 81
9, 48840, Note_on_c, 6, 69, 81
9, 48845, Note_on_c, 6, 71, 0
9, 48900, Note_on_c, 6, 71, 81
9, 48905, Note_on_c, 6, 69, 0
9, 48960, Note_on_c, 6, 71, 0
9, 48960, Note_on_c, 6, 64, 81
9, 49140, Note_on_c, 6, 64, 0
9, 49140, Note_on_c, 6, 76, 81
9, 49320, Note_on_c, 6, 76, 0
9, 49320, Note_on_c, 6, 75, 81
9, 49500, Note_on_c, 6, 75, 0
9, 49500, Note_on_c, 6, 74, 81
9, 49680, Note_on_c, 6, 74, 0
9, 49680, Note_on_c, 6, 73, 81
9, 49860, Note_on_c, 6, 73, 0
9, 49860, Note_on_c, 6, 72, 81
9, 50040, Note_on_c, 6, 72, 0
9, 50040, Note_on_c, 6, 71, 81
9, 50400, Note_on_c, 6, 71, 0
9, 50400, Note_on_c, 6, 64, 81
9, 50580, Note_on_c, 6, 64, 0
9, 50580, Note_on_c, 6, 76, 81
9, 50760, Note_on_c, 6, 76, 0
9, 50760, Note_on_c, 6, 75, 81
9, 50940, Note_on_c, 6, 75, 0
9, 50940, Note_on_c, 6, 74, 81
9, 51120, Note_on_c, 6, 74, 0
9, 51120, Note_on_c, 6, 73, 81
9, 51300, Note_on_c, 6, 73, 0
9, 51300, Note_on_c, 6, 72, 81
9, 51480, Note_on_c, 6, 72, 0
9, 51480, Note_on_c, 6, 59, 81
9, 56880, Note_on_c, 6, 59, 0
9, 56880, Note_on_c, 6, 64, 81
9, 57060, Note_on_c, 6, 64, 0
9, 57060, Note_on_c, 6, 59, 81
9, 57240, Note_on_c, 6, 59, 0
9, 57240, Note_on_c, 6, 64, 81
9, 59040, Note_on_c, 6, 64, 0
9, 59040, Note_on_c, 6, 59, 81
9, 60480, Note_on_c, 6, 59, 0
9, 60480, Note_on_c, 6, 64, 81
9, 61920, Note_on_c, 6, 64, 0
9, 61920, Note_on_c, 6, 64, 81
9, 62040, Note_on_c, 6, 64, 0
9, 62040, Note_on_c, 6, 52, 81
9, 62100, Note_on_c, 6, 52, 0
9, 62100, Note_on_c, 6, 71, 81
9, 62220, Note_on_c, 6, 71, 0
9, 62220, Note_on_c, 6, 59, 81
9, 62280, Note_on_c, 6, 59, 0
9, 62280, Note_on_c, 6, 64, 47
9, 63840, Note_on_c, 6, 64, 0
9, 63840, Note_on_c, 6, 52, 47
9, 63900, Note_on_c, 6, 52, 0
9, 63900, Note_on_c, 6, 71, 47
9, 64020, Note_on_c, 6, 71, 0
9, 64020, Note_on_c, 6, 59, 47
9, 64080, Note_on_c, 6, 59, 0
9, 64080, Note_on_c, 6, 52, 47
9, 64800, Note_on_c, 6, 52, 0
9, 65160, Program_c, 6, 0
9, 65160, Control_c, 6, 7, 100
9, 65160, Control_c, 6, 10, 64
9, 65160, Control_c, 6, 93, 0
9, 65160, Control_c, 6, 91, 40
9, 65160, Control_c, 6, 11, 127
9, 65160, End_track
10, 0, Start_track
10, 0, MIDI_port, 1
10, 0, Title_t, "   Orchestra"
10, 0, Program_c, 7, 48
10, 0, Control_c, 7, 7, 60
10, 0, Control_c, 7, 10, 112
10, 0, Program_c, 7, 48
10, 0, Control_c, 7, 7, 60
10, 0, Control_c, 7, 10, 112
10, 0, Control_c, 7, 93, 0
10, 0, Control_c, 7, 91, 120
10, 0, Control_c, 7, 11, 127
10, 720, Note_on_c, 7, 64, 81
10, 2520, Note_on_c, 7, 64, 0
10, 2520, Note_on_c, 7, 59, 81
10, 2880, Note_on_c, 7, 59, 0
10, 2880, Note_on_c, 7, 64, 47
10, 4680, Note_on_c, 7, 64, 0
10, 4680, Note_on_c, 7, 59, 81
10, 7560, Note_on_c, 7, 59, 0
10, 7560, Note_on_c, 7, 64, 81
10, 9960, Control_c, 7, 11, 126
10, 9961, Control_c, 7, 11, 125
10, 9968, Control_c, 7, 11, 124
10, 9979, Control_c, 7, 11, 123
10, 9987, Control_c, 7, 11, 121
10, 9988, Control_c, 7, 11, 120
10, 9998, Control_c, 7, 11, 114
10, 9999, Control_c, 7, 11, 113
10, 10001, Control_c, 7, 11, 112
10, 10007, Control_c, 7, 11, 110
10, 10013, Control_c, 7, 11, 109
10, 10015, Control_c, 7, 11, 108
10, 10031, Control_c, 7, 11, 106
10, 10043, Control_c, 7, 11, 104
10, 10053, Control_c, 7, 11, 102
10, 10073, Control_c, 7, 11, 96
10, 10079, Control_c, 7, 11, 95
10, 10080, Control_c, 7, 11, 94
10, 10086, Control_c, 7, 11, 93
10, 10096, Control_c, 7, 11, 87
10, 10102, Control_c, 7, 11, 86
10, 10112, Control_c, 7, 11, 84
10, 10120, Control_c, 7, 11, 82
10, 10121, Control_c, 7, 11, 81
10, 10125, Control_c, 7, 11, 79
10, 10129, Control_c, 7, 11, 78
10, 10137, Control_c, 7, 11, 76
10, 10147, Control_c, 7, 11, 70
10, 10153, Control_c, 7, 11, 68
10, 10157, Control_c, 7, 11, 65
10, 10800, Note_on_c, 7, 64, 0
10, 10800, Control_c, 7, 11, 127
10, 15840, Note_on_c, 7, 61, 81
10, 17640, Note_on_c, 7, 61, 0
10, 17640, Note_on_c, 7, 64, 81
10, 18000, Note_on_c, 7, 64, 0
10, 18000, Note_on_c, 7, 61, 81
10, 18360, Note_on_c, 7, 61, 0
10, 18360, Note_on_c, 7, 63, 81
10, 18540, Note_on_c, 7, 63, 0
10, 18540, Note_on_c, 7, 60, 81
10, 18720, Note_on_c, 7, 60, 0
10, 18720, Note_on_c, 7, 61, 81
10, 18900, Note_on_c, 7, 61, 0
10, 18900, Note_on_c, 7, 66, 81
10, 19080, Note_on_c, 7, 66, 0
10, 19080, Note_on_c, 7, 68, 81
10, 19200, Note_on_c, 7, 68, 0
10, 19200, Note_on_c, 7, 66, 81
10, 19260, Note_on_c, 7, 66, 0
10, 19260, Note_on_c, 7, 64, 81
10, 19380, Note_on_c, 7, 64, 0
10, 19380, Note_on_c, 7, 63, 81
10, 19440, Note_on_c, 7, 63, 0
10, 19440, Note_on_c, 7, 61, 47
10, 19800, Note_on_c, 7, 61, 0
10, 19800, Note_on_c, 7, 63, 47
10, 19980, Note_on_c, 7, 63, 0
10, 19980, Note_on_c, 7, 60, 47
10, 20160, Note_on_c, 7, 60, 0
10, 20160, Note_on_c, 7, 61, 47
10, 20340, Note_on_c, 7, 61, 0
10, 20340, Note_on_c, 7, 66, 47
10, 20520, Note_on_c, 7, 66, 0
10, 20520, Note_on_c, 7, 68, 47
10, 20640, Note_on_c, 7, 68, 0
10, 20640, Note_on_c, 7, 66, 47
10, 20700, Note_on_c, 7, 66, 0
10, 20700, Note_on_c, 7, 64, 47
10, 20820, Note_on_c, 7, 64, 0
10, 20820, Note_on_c, 7, 63, 47
10, 20880, Note_on_c, 7, 63, 0
10, 20880, Note_on_c, 7, 61, 81
10, 21240, Note_on_c, 7, 61, 0
10, 21240, Note_on_c, 7, 66, 81
10, 21300, Note_on_c, 7, 68, 81
10, 21305, Note_on_c, 7, 66, 0
10, 21360, Note_on_c, 7, 69, 81
10, 21365, Note_on_c, 7, 68, 0
10, 21420, Note_on_c, 7, 69, 0
10, 21420, Note_on_c, 7, 69, 81
10, 21480, Note_on_c, 7, 68, 81
10, 21485, Note_on_c, 7, 69, 0
10, 21540, Note_on_c, 7, 66, 81
10, 21545, Note_on_c, 7, 68, 0
10, 21600, Note_on_c, 7, 66, 0
10, 21600, Note_on_c, 7, 59, 81
10, 21960, Note_on_c, 7, 59, 0
10, 21960, Note_on_c, 7, 64, 81
10, 22020, Note_on_c, 7, 66, 81
10, 22025, Note_on_c, 7, 64, 0
10, 22080, Note_on_c, 7, 68, 81
10, 22085, Note_on_c, 7, 66, 0
10, 22140, Note_on_c, 7, 68, 0
10, 22140, Note_on_c, 7, 68, 81
10, 22200, Note_on_c, 7, 66, 81
10, 22205, Note_on_c, 7, 68, 0
10, 22260, Note_on_c, 7, 64, 81
10, 22265, Note_on_c, 7, 66, 0
10, 22320, Note_on_c, 7, 64, 0
10, 22320, Note_on_c, 7, 59, 81
10, 22380, Note_on_c, 7, 61, 81
10, 22385, Note_on_c, 7, 59, 0
10, 22440, Note_on_c, 7, 63, 81
10, 22445, Note_on_c, 7, 61, 0
10, 22500, Note_on_c, 7, 63, 0
10, 22500, Note_on_c, 7, 63, 81
10, 22560, Note_on_c, 7, 61, 81
10, 22565, Note_on_c, 7, 63, 0
10, 22620, Note_on_c, 7, 59, 81
10, 22625, Note_on_c, 7, 61, 0
10, 22680, Note_on_c, 7, 59, 0
10, 22680, Note_on_c, 7, 64, 81
10, 22740, Note_on_c, 7, 66, 81
10, 22745, Note_on_c, 7, 64, 0
10, 22800, Note_on_c, 7, 68, 81
10, 22805, Note_on_c, 7, 66, 0
10, 22860, Note_on_c, 7, 68, 0
10, 22860, Note_on_c, 7, 68, 81
10, 22920, Note_on_c, 7, 66, 81
10, 22925, Note_on_c, 7, 68, 0
10, 22980, Note_on_c, 7, 64, 81
10, 22985, Note_on_c, 7, 66, 0
10, 23040, Note_on_c, 7, 64, 0
10, 23040, Note_on_c, 7, 59, 81
10, 23100, Note_on_c, 7, 61, 81
10, 23105, Note_on_c, 7, 59, 0
10, 23160, Note_on_c, 7, 63, 81
10, 23165, Note_on_c, 7, 61, 0
10, 23220, Note_on_c, 7, 63, 0
10, 23220, Note_on_c, 7, 63, 81
10, 23280, Note_on_c, 7, 61, 81
10, 23285, Note_on_c, 7, 63, 0
10, 23340, Note_on_c, 7, 59, 81
10, 23345, Note_on_c, 7, 61, 0
10, 23400, Note_on_c, 7, 59, 0
10, 23400, Note_on_c, 7, 64, 81
10, 23460, Note_on_c, 7, 66, 81
10, 23465, Note_on_c, 7, 64, 0
10, 23520, Note_on_c, 7, 68, 81
10, 23525, Note_on_c, 7, 66, 0
10, 23580, Note_on_c, 7, 68, 0
10, 23580, Note_on_c, 7, 68, 81
10, 23640, Note_on_c, 7, 66, 81
10, 23645, Note_on_c, 7, 68, 0
10, 23700, Note_on_c, 7, 64, 81
10, 23705, Note_on_c, 7, 66, 0
10, 23760, Note_on_c, 7, 64, 0
10, 23760, Note_on_c, 7, 64, 81
10, 24120, Note_on_c, 7, 64, 0
10, 24120, Note_on_c, 7, 63, 81
10, 24180, Note_on_c, 7, 61, 81
10, 24185, Note_on_c, 7, 63, 0
10, 24240, Note_on_c, 7, 59, 81
10, 24245, Note_on_c, 7, 61, 0
10, 24300, Note_on_c, 7, 59, 0
10, 24300, Note_on_c, 7, 59, 81
10, 24360, Note_on_c, 7, 61, 81
10, 24365, Note_on_c, 7, 59, 0
10, 24420, Note_on_c, 7, 63, 81
10, 24425, Note_on_c, 7, 61, 0
10, 24480, Note_on_c, 7, 63, 0
10, 24480, Note_on_c, 7, 64, 81
10, 24660, Note_on_c, 7, 64, 0
10, 24660, Note_on_c, 7, 66, 81
10, 24840, Note_on_c, 7, 66, 0
10, 24840, Note_on_c, 7, 59, 81
10, 25020, Note_on_c, 7, 59, 0
10, 25200, Note_on_c, 7, 59, 81
10, 25380, Note_on_c, 7, 59, 0
10, 25560, Note_on_c, 7, 59, 81
10, 25740, Note_on_c, 7, 59, 0
10, 25920, Note_on_c, 7, 59, 81
10, 26100, Note_on_c, 7, 59, 0
10, 26280, Note_on_c, 7, 63, 81
10, 26460, Note_on_c, 7, 63, 0
10, 26460, Note_on_c, 7, 59, 81
10, 26640, Note_on_c, 7, 59, 0
10, 26640, Note_on_c, 7, 52, 81
10, 26820, Note_on_c, 7, 52, 0
10, 27000, Note_on_c, 7, 68, 81
10, 27180, Note_on_c, 7, 68, 0
10, 27180, Note_on_c, 7, 64, 81
10, 27360, Note_on_c, 7, 64, 0
10, 27360, Note_on_c, 7, 57, 81
10, 27540, Note_on_c, 7, 57, 0
10, 27720, Note_on_c, 7, 73, 81
10, 27900, Note_on_c, 7, 73, 0
10, 27900, Note_on_c, 7, 69, 81
10, 28080, Note_on_c, 7, 69, 0
10, 28080, Note_on_c, 7, 62, 81
10, 28260, Note_on_c, 7, 62, 0
10, 28440, Note_on_c, 7, 63, 81
10, 28620, Note_on_c, 7, 63, 0
10, 28620, Note_on_c, 7, 59, 81
10, 28800, Note_on_c, 7, 59, 0
10, 28800, Note_on_c, 7, 64, 81
10, 29160, Note_on_c, 7, 64, 0
10, 29160, Note_on_c, 7, 59, 81
10, 30960, Note_on_c, 7, 59, 0
10, 30960, Note_on_c, 7, 64, 81
10, 33842, Control_c, 7, 11, 126
10, 33868, Control_c, 7, 11, 125
10, 33895, Control_c, 7, 11, 124
10, 33912, Control_c, 7, 11, 123
10, 33938, Control_c, 7, 11, 122
10, 33945, Control_c, 7, 11, 121
10, 33965, Control_c, 7, 11, 120
10, 33998, Control_c, 7, 11, 119
10, 34018, Control_c, 7, 11, 118
10, 34045, Control_c, 7, 11, 117
10, 34052, Control_c, 7, 11, 116
10, 34095, Control_c, 7, 11, 115
10, 34115, Control_c, 7, 11, 114
10, 34138, Control_c, 7, 11, 113
10, 34178, Control_c, 7, 11, 112
10, 34218, Control_c, 7, 11, 111
10, 34245, Control_c, 7, 11, 110
10, 34272, Control_c, 7, 11, 109
10, 34305, Control_c, 7, 11, 108
10, 34335, Control_c, 7, 11, 107
10, 34368, Control_c, 7, 11, 106
10, 34395, Control_c, 7, 11, 105
10, 34415, Control_c, 7, 11, 104
10, 34452, Control_c, 7, 11, 103
10, 34458, Control_c, 7, 11, 102
10, 34488, Control_c, 7, 11, 101
10, 34508, Control_c, 7, 11, 100
10, 34522, Control_c, 7, 11, 99
10, 34532, Control_c, 7, 11, 98
10, 34558, Control_c, 7, 11, 97
10, 34565, Control_c, 7, 11, 96
10, 34572, Control_c, 7, 11, 95
10, 34588, Control_c, 7, 11, 94
10, 34592, Control_c, 7, 11, 93
10, 34615, Control_c, 7, 11, 92
10, 34625, Control_c, 7, 11, 91
10, 34652, Control_c, 7, 11, 90
10, 34688, Control_c, 7, 11, 89
10, 34722, Control_c, 7, 11, 88
10, 34748, Control_c, 7, 11, 87
10, 34775, Control_c, 7, 11, 86
10, 34795, Control_c, 7, 11, 85
10, 34818, Control_c, 7, 11, 84
10, 34825, Control_c, 7, 11, 83
10, 34835, Control_c, 7, 11, 82
10, 34838, Control_c, 7, 11, 81
10, 34845, Control_c, 7, 11, 80
10, 34852, Control_c, 7, 11, 79
10, 34855, Control_c, 7, 11, 78
10, 34858, Control_c, 7, 11, 77
10, 34885, Control_c, 7, 11, 76
10, 34892, Control_c, 7, 11, 74
10, 34895, Control_c, 7, 11, 73
10, 34915, Control_c, 7, 11, 71
10, 34920, Note_on_c, 7, 64, 0
10, 34922, Control_c, 7, 11, 70
10, 34928, Control_c, 7, 11, 69
10, 35280, Control_c, 7, 11, 127
10, 41760, Note_on_c, 7, 71, 81
10, 41940, Note_on_c, 7, 71, 0
10, 42120, Note_on_c, 7, 64, 81
10, 43920, Note_on_c, 7, 64, 0
10, 43920, Note_on_c, 7, 59, 81
10, 44280, Note_on_c, 7, 59, 0
10, 44280, Note_on_c, 7, 64, 81
10, 44580, Note_on_c, 7, 64, 0
10, 44580, Note_on_c, 7, 69, 81
10, 44640, Note_on_c, 7, 69, 0
10, 44640, Note_on_c, 7, 71, 81
10, 44730, Note_on_c, 7, 71, 0
10, 44730, Note_on_c, 7, 69, 81
10, 44760, Note_on_c, 7, 69, 0
10, 44760, Note_on_c, 7, 71, 81
10, 44820, Note_on_c, 7, 71, 0
10, 44820, Note_on_c, 7, 71, 81
10, 44910, Note_on_c, 7, 71, 0
10, 44910, Note_on_c, 7, 69, 81
10, 44940, Note_on_c, 7, 69, 0
10, 44940, Note_on_c, 7, 71, 81
10, 45000, Note_on_c, 7, 71, 0
10, 45000, Note_on_c, 7, 62, 81
10, 45300, Note_on_c, 7, 62, 0
10, 45300, Note_on_c, 7, 67, 81
10, 45360, Note_on_c, 7, 67, 0
10, 45360, Note_on_c, 7, 71, 81
10, 45450, Note_on_c, 7, 71, 0
10, 45450, Note_on_c, 7, 69, 81
10, 45480, Note_on_c, 7, 69, 0
10, 45480, Note_on_c, 7, 71, 81
10, 45540, Note_on_c, 7, 71, 0
10, 45540, Note_on_c, 7, 71, 81
10, 45630, Note_on_c, 7, 71, 0
10, 45630, Note_on_c, 7, 69, 81
10, 45660, Note_on_c, 7, 69, 0
10, 45660, Note_on_c, 7, 71, 81
10, 45720, Note_on_c, 7, 71, 0
10, 45720, Note_on_c, 7, 69, 81
10, 46020, Note_on_c, 7, 69, 0
10, 46020, Note_on_c, 7, 69, 81
10, 46080, Note_on_c, 7, 69, 0
10, 46080, Note_on_c, 7, 71, 81
10, 46200, Note_on_c, 7, 71, 0
10, 46200, Note_on_c, 7, 59, 81
10, 46260, Note_on_c, 7, 59, 0
10, 46260, Note_on_c, 7, 59, 81
10, 46380, Note_on_c, 7, 59, 0
10, 46380, Note_on_c, 7, 71, 81
10, 46440, Note_on_c, 7, 71, 0
10, 46440, Note_on_c, 7, 76, 81
10, 46500, Note_on_c, 7, 74, 81
10, 46505, Note_on_c, 7, 76, 0
10, 46560, Note_on_c, 7, 76, 81
10, 46565, Note_on_c, 7, 74, 0
10, 46620, Note_on_c, 7, 76, 0
10, 46620, Note_on_c, 7, 68, 81
10, 46680, Note_on_c, 7, 66, 81
10, 46685, Note_on_c, 7, 68, 0
10, 46740, Note_on_c, 7, 64, 81
10, 46745, Note_on_c, 7, 66, 0
10, 46800, Note_on_c, 7, 64, 0
10, 46800, Note_on_c, 7, 69, 81
10, 46860, Note_on_c, 7, 68, 81
10, 46865, Note_on_c, 7, 69, 0
10, 46920, Note_on_c, 7, 69, 81
10, 46925, Note_on_c, 7, 68, 0
10, 46980, Note_on_c, 7, 69, 0
10, 46980, Note_on_c, 7, 60, 81
10, 47040, Note_on_c, 7, 59, 81
10, 47045, Note_on_c, 7, 60, 0
10, 47100, Note_on_c, 7, 57, 81
10, 47105, Note_on_c, 7, 59, 0
10, 47160, Note_on_c, 7, 57, 0
10, 47160, Note_on_c, 7, 74, 81
10, 47220, Note_on_c, 7, 72, 81
10, 47225, Note_on_c, 7, 74, 0
10, 47280, Note_on_c, 7, 74, 81
10, 47285, Note_on_c, 7, 72, 0
10, 47340, Note_on_c, 7, 74, 0
10, 47340, Note_on_c, 7, 66, 81
10, 47400, Note_on_c, 7, 64, 81
10, 47405, Note_on_c, 7, 66, 0
10, 47460, Note_on_c, 7, 62, 81
10, 47465, Note_on_c, 7, 64, 0
10, 47520, Note_on_c, 7, 62, 0
10, 47520, Note_on_c, 7, 67, 81
10, 47580, Note_on_c, 7, 66, 81
10, 47585, Note_on_c, 7, 67, 0
10, 47640, Note_on_c, 7, 67, 81
10, 47645, Note_on_c, 7, 66, 0
10, 47700, Note_on_c, 7, 67, 0
10, 47700, Note_on_c, 7, 59, 81
10, 47760, Note_on_c, 7, 57, 81
10, 47765, Note_on_c, 7, 59, 0
10, 47820, Note_on_c, 7, 55, 81
10, 47825, Note_on_c, 7, 57, 0
10, 47880, Note_on_c, 7, 55, 0
10, 47880, Note_on_c, 7, 72, 81
10, 47940, Note_on_c, 7, 71, 81
10, 47945, Note_on_c, 7, 72, 0
10, 48000, Note_on_c, 7, 72, 81
10, 48005, Note_on_c, 7, 71, 0
10, 48060, Note_on_c, 7, 72, 0
10, 48060, Note_on_c, 7, 64, 81
10, 48120, Note_on_c, 7, 62, 81
10, 48125, Note_on_c, 7, 64, 0
10, 48180, Note_on_c, 7, 60, 81
10, 48185, Note_on_c, 7, 62, 0
10, 48240, Note_on_c, 7, 60, 0
10, 48240, Note_on_c, 7, 69, 81
10, 48300, Note_on_c, 7, 68, 81
10, 48305, Note_on_c, 7, 69, 0
10, 48360, Note_on_c, 7, 69, 81
10, 48365, Note_on_c, 7, 68, 0
10, 48420, Note_on_c, 7, 69, 0
10, 48420, Note_on_c, 7, 71, 81
10, 48480, Note_on_c, 7, 69, 81
10, 48485, Note_on_c, 7, 71, 0
10, 48540, Note_on_c, 7, 71, 81
10, 48545, Note_on_c, 7, 69, 0
10, 48600, Note_on_c, 7, 71, 0
10, 48600, Note_on_c, 7, 72, 81
10, 48660, Note_on_c, 7, 71, 81
10, 48665, Note_on_c, 7, 72, 0
10, 48720, Note_on_c, 7, 72, 81
10, 48725, Note_on_c, 7, 71, 0
10, 48780, Note_on_c, 7, 72, 0
10, 48780, Note_on_c, 7, 71, 81
10, 48840, Note_on_c, 7, 69, 81
10, 48845, Note_on_c, 7, 71, 0
10, 48900, Note_on_c, 7, 71, 81
10, 48905, Note_on_c, 7, 69, 0
10, 48960, Note_on_c, 7, 71, 0
10, 48960, Note_on_c, 7, 64, 81
10, 49140, Note_on_c, 7, 64, 0
10, 49140, Note_on_c, 7, 76, 81
10, 49320, Note_on_c, 7, 76, 0
10, 49320, Note_on_c, 7, 75, 81
10, 49500, Note_on_c, 7, 75, 0
10, 49500, Note_on_c, 7, 74, 81
10, 49680, Note_on_c, 7, 74, 0
10, 49680, Note_on_c, 7, 73, 81
10, 49860, Note_on_c, 7, 73, 0
10, 49860, Note_on_c, 7, 72, 81
10, 50040, Note_on_c, 7, 72, 0
10, 50040, Note_on_c, 7, 71, 81
10, 50400, Note_on_c, 7, 71, 0
10, 50400, Note_on_c, 7, 64, 81
10, 50580, Note_on_c, 7, 64, 0
10, 50580, Note_on_c, 7, 76, 81
10, 50760, Note_on_c, 7, 76, 0
10, 50760, Note_on_c, 7, 75, 81
10, 50940, Note_on_c, 7, 75, 0
10, 50940, Note_on_c, 7, 74, 81
10, 51120, Note_on_c, 7, 74, 0
10, 51120, Note_on_c, 7, 73, 81
10, 51300, Note_on_c, 7, 73, 0
10, 51300, Note_on_c, 7, 72, 81
10, 51480, Note_on_c, 7, 72, 0
10, 51480, Note_on_c, 7, 59, 81
10, 56880, Note_on_c, 7, 59, 0
10, 56880, Note_on_c, 7, 64, 81
10, 57060, Note_on_c, 7, 64, 0
10, 57060, Note_on_c, 7, 59, 81
10, 57240, Note_on_c, 7, 59, 0
10, 57240, Note_on_c, 7, 64, 81
10, 59040, Note_on_c, 7, 64, 0
10, 59040, Note_on_c, 7, 59, 81
10, 60480, Note_on_c, 7, 59, 0
10, 60480, Note_on_c, 7, 64, 81
10, 61920, Note_on_c, 7, 64, 0
10, 61920, Note_on_c, 7, 64, 81
10, 62040, Note_on_c, 7, 64, 0
10, 62040, Note_on_c, 7, 52, 81
10, 62100, Note_on_c, 7, 52, 0
10, 62100, Note_on_c, 7, 71, 81
10, 62220, Note_on_c, 7, 71, 0
10, 62220, Note_on_c, 7, 59, 81
10, 62280, Note_on_c, 7, 59, 0
10, 62280, Note_on_c, 7, 64, 47
10, 63840, Note_on_c, 7, 64, 0
10, 63840, Note_on_c, 7, 52, 47
10, 63900, Note_on_c, 7, 52, 0
10, 63900, Note_on_c, 7, 71, 47
10, 64020, Note_on_c, 7, 71, 0
10, 64020, Note_on_c, 7, 59, 47
10, 64080, Note_on_c, 7, 59, 0
10, 64080, Note_on_c, 7, 52, 47
10, 64800, Note_on_c, 7, 52, 0
10, 65160, Program_c, 7, 0
10, 65160, Control_c, 7, 7, 100
10, 65160, Control_c, 7, 10, 64
10, 65160, Control_c, 7, 93, 0
10, 65160, Control_c, 7, 91, 40
10, 65160, Control_c, 7, 11, 127
10, 65160, End_track
11, 0, Start_track
11, 0, MIDI_port, 1
11, 0, Title_t, "Contrabass"
11, 0, Program_c, 10, 43
11, 0, Control_c, 10, 7, 40
11, 0, Control_c, 10, 10, 64
11, 0, Program_c, 10, 43
11, 0, Control_c, 10, 7, 40
11, 0, Control_c, 10, 10, 64
11, 0, Control_c, 10, 93, 0
11, 0, Control_c, 10, 91, 120
11, 1, Text_t, "Non Registered Parameter Numbers"
11, 1, Text_t, "For Roland SC-55 Vibrato"
11, 1, Text_t, "Set up NRPN for Vibrate Rate"
11, 2, Control_c, 10, 99, 1
11, 3, Control_c, 10, 98, 8
11, 4, Text_t, "Data Entry Command"
11, 4, Control_c, 10, 6, 68
11, 5, Text_t, "Set up NRPN for Vibrate Delay"
11, 6, Control_c, 10, 99, 1
11, 7, Control_c, 10, 98, 10
11, 8, Text_t, "Data Entry Command"
11, 8, Control_c, 10, 6, 14
11, 9, Text_t, "Set up NRPN for Vibrate Depth"
11, 10, Control_c, 10, 99, 1
11, 11, Control_c, 10, 98, 9
11, 12, Text_t, "Data Entry Command; Vibrato ON"
11, 12, Control_c, 10, 6, 70
11, 13, Control_c, 10, 11, 127
11, 14, Pitch_bend_c, 10, 8192
11, 720, Note_on_c, 10, 40, 81
11, 2520, Note_on_c, 10, 40, 0
11, 2520, Note_on_c, 10, 35, 81
11, 2880, Note_on_c, 10, 35, 0
11, 2880, Note_on_c, 10, 40, 47
11, 4680, Note_on_c, 10, 40, 0
11, 4680, Note_on_c, 10, 35, 81
11, 7560, Note_on_c, 10, 35, 0
11, 7560, Note_on_c, 10, 40, 81
11, 9960, Control_c, 10, 11, 126
11, 9962, Control_c, 10, 11, 125
11, 9964, Control_c, 10, 11, 124
11, 9966, Control_c, 10, 11, 123
11, 9967, Control_c, 10, 11, 122
11, 9977, Control_c, 10, 11, 121
11, 9978, Control_c, 10, 11, 120
11, 9980, Control_c, 10, 11, 119
11, 9986, Control_c, 10, 11, 117
11, 9994, Control_c, 10, 11, 115
11, 9996, Control_c, 10, 11, 114
11, 10009, Control_c, 10, 11, 108
11, 10015, Control_c, 10, 11, 107
11, 10018, Control_c, 10, 11, 106
11, 10028, Control_c, 10, 11, 105
11, 10029, Control_c, 10, 11, 104
11, 10039, Control_c, 10, 11, 102
11, 10049, Control_c, 10, 11, 101
11, 10055, Control_c, 10, 11, 99
11, 10057, Control_c, 10, 11, 98
11, 10067, Control_c, 10, 11, 96
11, 10071, Control_c, 10, 11, 94
11, 10081, Control_c, 10, 11, 93
11, 10083, Control_c, 10, 11, 92
11, 10090, Control_c, 10, 11, 91
11, 10102, Control_c, 10, 11, 89
11, 10105, Control_c, 10, 11, 88
11, 10117, Control_c, 10, 11, 82
11, 10120, Control_c, 10, 11, 81
11, 10122, Control_c, 10, 11, 80
11, 10129, Control_c, 10, 11, 78
11, 10131, Control_c, 10, 11, 77
11, 10137, Control_c, 10, 11, 75
11, 10138, Control_c, 10, 11, 74
11, 10140, Control_c, 10, 11, 72
11, 10141, Control_c, 10, 11, 71
11, 10144, Control_c, 10, 11, 69
11, 10145, Control_c, 10, 11, 68
11, 10146, Control_c, 10, 11, 67
11, 10147, Control_c, 10, 11, 66
11, 10148, Control_c, 10, 11, 65
11, 10800, Note_on_c, 10, 40, 0
11, 10800, Note_on_c, 10, 44, 81
11, 10800, Control_c, 10, 11, 127
11, 10980, Note_on_c, 10, 44, 0
11, 10980, Note_on_c, 10, 40, 81
11, 11160, Note_on_c, 10, 40, 0
11, 11160, Note_on_c, 10, 45, 81
11, 11340, Note_on_c, 10, 45, 0
11, 11520, Note_on_c, 10, 46, 81
11, 11700, Note_on_c, 10, 46, 0
11, 11700, Note_on_c, 10, 42, 81
11, 11880, Note_on_c, 10, 42, 0
11, 11880, Note_on_c, 10, 47, 81
11, 12060, Note_on_c, 10, 47, 0
11, 12240, Note_on_c, 10, 48, 81
11, 12420, Note_on_c, 10, 48, 0
11, 12420, Note_on_c, 10, 44, 81
11, 12600, Note_on_c, 10, 44, 0
11, 12600, Note_on_c, 10, 49, 81
11, 12780, Note_on_c, 10, 49, 0
11, 12780, Note_on_c, 10, 49, 81
11, 12960, Note_on_c, 10, 49, 0
11, 12960, Note_on_c, 10, 48, 81
11, 13140, Note_on_c, 10, 48, 0
11, 13140, Note_on_c, 10, 47, 81
11, 13320, Note_on_c, 10, 47, 0
11, 13320, Note_on_c, 10, 46, 81
11, 13500, Note_on_c, 10, 46, 0
11, 13500, Note_on_c, 10, 45, 81
11, 13680, Note_on_c, 10, 45, 0
11, 13680, Note_on_c, 10, 44, 81
11, 13860, Note_on_c, 10, 44, 0
11, 13860, Note_on_c, 10, 44, 81
11, 14040, Note_on_c, 10, 44, 0
11, 14040, Note_on_c, 10, 42, 81
11, 14220, Note_on_c, 10, 42, 0
11, 14220, Note_on_c, 10, 42, 81
11, 14400, Note_on_c, 10, 42, 0
11, 14400, Note_on_c, 10, 37, 81
11, 14580, Note_on_c, 10, 37, 0
11, 14580, Note_on_c, 10, 37, 81
11, 14760, Note_on_c, 10, 37, 0
11, 14760, Note_on_c, 10, 37, 81
11, 14940, Note_on_c, 10, 37, 0
11, 14940, Note_on_c, 10, 37, 81
11, 15120, Note_on_c, 10, 37, 0
11, 15120, Note_on_c, 10, 37, 81
11, 15300, Note_on_c, 10, 37, 0
11, 15300, Note_on_c, 10, 42, 81
11, 15480, Note_on_c, 10, 42, 0
11, 15480, Note_on_c, 10, 44, 81
11, 15660, Note_on_c, 10, 44, 0
11, 15660, Note_on_c, 10, 32, 81
11, 15840, Note_on_c, 10, 32, 0
11, 15840, Note_on_c, 10, 37, 81
11, 17640, Note_on_c, 10, 37, 0
11, 17640, Note_on_c, 10, 40, 81
11, 18000, Note_on_c, 10, 40, 0
11, 18000, Note_on_c, 10, 37, 81
11, 18360, Note_on_c, 10, 37, 0
11, 18360, Note_on_c, 10, 39, 81
11, 18540, Note_on_c, 10, 39, 0
11, 18540, Note_on_c, 10, 36, 81
11, 18720, Note_on_c, 10, 36, 0
11, 18720, Note_on_c, 10, 37, 81
11, 18900, Note_on_c, 10, 37, 0
11, 18900, Note_on_c, 10, 42, 81
11, 19080, Note_on_c, 10, 42, 0
11, 19080, Note_on_c, 10, 44, 81
11, 19200, Note_on_c, 10, 44, 0
11, 19200, Note_on_c, 10, 42, 81
11, 19260, Note_on_c, 10, 42, 0
11, 19260, Note_on_c, 10, 40, 81
11, 19380, Note_on_c, 10, 40, 0
11, 19380, Note_on_c, 10, 39, 81
11, 19440, Note_on_c, 10, 39, 0
11, 19440, Note_on_c, 10, 37, 47
11, 19800, Note_on_c, 10, 37, 0
11, 19800, Note_on_c, 10, 39, 47
11, 19980, Note_on_c, 10, 39, 0
11, 19980, Note_on_c, 10, 36, 47
11, 20160, Note_on_c, 10, 36, 0
11, 20160, Note_on_c, 10, 37, 47
11, 20340, Note_on_c, 10, 37, 0
11, 20340, Note_on_c, 10, 42, 47
11, 20520, Note_on_c, 10, 42, 0
11, 20520, Note_on_c, 10, 44, 47
11, 20640, Note_on_c, 10, 44, 0
11, 20640, Note_on_c, 10, 42, 47
11, 20700, Note_on_c, 10, 42, 0
11, 20700, Note_on_c, 10, 40, 47
11, 20820, Note_on_c, 10, 40, 0
11, 20820, Note_on_c, 10, 39, 47
11, 20880, Note_on_c, 10, 39, 0
11, 20880, Note_on_c, 10, 37, 81
11, 21240, Note_on_c, 10, 37, 0
11, 21240, Note_on_c, 10, 42, 81
11, 21300, Note_on_c, 10, 44, 81
11, 21305, Note_on_c, 10, 42, 0
11, 21360, Note_on_c, 10, 45, 81
11, 21365, Note_on_c, 10, 44, 0
11, 21420, Note_on_c, 10, 45, 0
11, 21420, Note_on_c, 10, 45, 81
11, 21480, Note_on_c, 10, 44, 81
11, 21485, Note_on_c, 10, 45, 0
11, 21540, Note_on_c, 10, 42, 81
11, 21545, Note_on_c, 10, 44, 0
11, 21600, Note_on_c, 10, 42, 0
11, 21600, Note_on_c, 10, 35, 81
11, 21960, Note_on_c, 10, 35, 0
11, 21960, Note_on_c, 10, 40, 81
11, 22020, Note_on_c, 10, 42, 81
11, 22025, Note_on_c, 10, 40, 0
11, 22080, Note_on_c, 10, 44, 81
11, 22085, Note_on_c, 10, 42, 0
11, 22140, Note_on_c, 10, 44, 0
11, 22140, Note_on_c, 10, 44, 81
11, 22200, Note_on_c, 10, 42, 81
11, 22205, Note_on_c, 10, 44, 0
11, 22260, Note_on_c, 10, 40, 81
11, 22265, Note_on_c, 10, 42, 0
11, 22320, Note_on_c, 10, 40, 0
11, 22320, Note_on_c, 10, 35, 81
11, 22380, Note_on_c, 10, 37, 81
11, 22385, Note_on_c, 10, 35, 0
11, 22440, Note_on_c, 10, 39, 81
11, 22445, Note_on_c, 10, 37, 0
11, 22500, Note_on_c, 10, 39, 0
11, 22500, Note_on_c, 10, 39, 81
11, 22560, Note_on_c, 10, 37, 81
11, 22565, Note_on_c, 10, 39, 0
11, 22620, Note_on_c, 10, 35, 81
11, 22625, Note_on_c, 10, 37, 0
11, 22680, Note_on_c, 10, 35, 0
11, 22680, Note_on_c, 10, 40, 81
11, 22740, Note_on_c, 10, 42, 81
11, 22745, Note_on_c, 10, 40, 0
11, 22800, Note_on_c, 10, 44, 81
11, 22805, Note_on_c, 10, 42, 0
11, 22860, Note_on_c, 10, 44, 0
11, 22860, Note_on_c, 10, 44, 81
11, 22920, Note_on_c, 10, 42, 81
11, 22925, Note_on_c, 10, 44, 0
11, 22980, Note_on_c, 10, 40, 81
11, 22985, Note_on_c, 10, 42, 0
11, 23040, Note_on_c, 10, 40, 0
11, 23040, Note_on_c, 10, 35, 81
11, 23100, Note_on_c, 10, 37, 81
11, 23105, Note_on_c, 10, 35, 0
11, 23160, Note_on_c, 10, 39, 81
11, 23165, Note_on_c, 10, 37, 0
11, 23220, Note_on_c, 10, 39, 0
11, 23220, Note_on_c, 10, 39, 81
11, 23280, Note_on_c, 10, 37, 81
11, 23285, Note_on_c, 10, 39, 0
11, 23340, Note_on_c, 10, 35, 81
11, 23345, Note_on_c, 10, 37, 0
11, 23400, Note_on_c, 10, 35, 0
11, 23400, Note_on_c, 10, 40, 81
11, 23460, Note_on_c, 10, 42, 81
11, 23465, Note_on_c, 10, 40, 0
11, 23520, Note_on_c, 10, 44, 81
11, 23525, Note_on_c, 10, 42, 0
11, 23580, Note_on_c, 10, 44, 0
11, 23580, Note_on_c, 10, 44, 81
11, 23640, Note_on_c, 10, 42, 81
11, 23645, Note_on_c, 10, 44, 0
11, 23700, Note_on_c, 10, 40, 81
11, 23705, Note_on_c, 10, 42, 0
11, 23760, Note_on_c, 10, 40, 0
11, 23760, Note_on_c, 10, 40, 81
11, 24120, Note_on_c, 10, 40, 0
11, 24120, Note_on_c, 10, 39, 81
11, 24180, Note_on_c, 10, 37, 81
11, 24185, Note_on_c, 10, 39, 0
11, 24240, Note_on_c, 10, 35, 81
11, 24245, Note_on_c, 10, 37, 0
11, 24300, Note_on_c, 10, 35, 0
11, 24300, Note_on_c, 10, 35, 81
11, 24360, Note_on_c, 10, 37, 81
11, 24365, Note_on_c, 10, 35, 0
11, 24420, Note_on_c, 10, 39, 81
11, 24425, Note_on_c, 10, 37, 0
11, 24480, Note_on_c, 10, 39, 0
11, 24480, Note_on_c, 10, 40, 81
11, 24660, Note_on_c, 10, 40, 0
11, 24660, Note_on_c, 10, 42, 81
11, 24840, Note_on_c, 10, 42, 0
11, 24840, Note_on_c, 10, 35, 81
11, 25020, Note_on_c, 10, 35, 0
11, 25200, Note_on_c, 10, 35, 81
11, 25380, Note_on_c, 10, 35, 0
11, 25560, Note_on_c, 10, 35, 81
11, 25740, Note_on_c, 10, 35, 0
11, 25920, Note_on_c, 10, 35, 81
11, 26100, Note_on_c, 10, 35, 0
11, 26280, Note_on_c, 10, 39, 81
11, 26460, Note_on_c, 10, 39, 0
11, 26460, Note_on_c, 10, 35, 81
11, 26640, Note_on_c, 10, 35, 0
11, 26640, Note_on_c, 10, 28, 81
11, 26820, Note_on_c, 10, 28, 0
11, 27000, Note_on_c, 10, 44, 81
11, 27180, Note_on_c, 10, 44, 0
11, 27180, Note_on_c, 10, 40, 81
11, 27360, Note_on_c, 10, 40, 0
11, 27360, Note_on_c, 10, 33, 81
11, 27540, Note_on_c, 10, 33, 0
11, 27720, Note_on_c, 10, 49, 81
11, 27900, Note_on_c, 10, 49, 0
11, 27900, Note_on_c, 10, 45, 81
11, 28080, Note_on_c, 10, 45, 0
11, 28080, Note_on_c, 10, 38, 81
11, 28260, Note_on_c, 10, 38, 0
11, 28440, Note_on_c, 10, 39, 81
11, 28620, Note_on_c, 10, 39, 0
11, 28620, Note_on_c, 10, 35, 81
11, 28800, Note_on_c, 10, 35, 0
11, 28800, Note_on_c, 10, 40, 81
11, 29160, Note_on_c, 10, 40, 0
11, 29160, Note_on_c, 10, 35, 81
11, 30960, Note_on_c, 10, 35, 0
11, 30960, Note_on_c, 10, 40, 81
11, 33839, Control_c, 10, 11, 125
11, 33840, Control_c, 10, 11, 126
11, 33850, Control_c, 10, 11, 125
11, 33856, Control_c, 10, 11, 124
11, 33863, Control_c, 10, 11, 123
11, 33876, Control_c, 10, 11, 122
11, 33883, Control_c, 10, 11, 121
11, 33910, Control_c, 10, 11, 120
11, 33913, Control_c, 10, 11, 119
11, 33923, Control_c, 10, 11, 118
11, 33930, Control_c, 10, 11, 117
11, 33943, Control_c, 10, 11, 116
11, 33963, Control_c, 10, 11, 114
11, 33973, Control_c, 10, 11, 113
11, 34013, Control_c, 10, 11, 112
11, 34020, Control_c, 10, 11, 111
11, 34056, Control_c, 10, 11, 110
11, 34083, Control_c, 10, 11, 109
11, 34120, Control_c, 10, 11, 108
11, 34146, Control_c, 10, 11, 107
11, 34206, Control_c, 10, 11, 106
11, 34243, Control_c, 10, 11, 105
11, 34263, Control_c, 10, 11, 104
11, 34270, Control_c, 10, 11, 103
11, 34310, Control_c, 10, 11, 102
11, 34406, Control_c, 10, 11, 101
11, 34476, Control_c, 10, 11, 100
11, 34496, Control_c, 10, 11, 99
11, 34543, Control_c, 10, 11, 97
11, 34550, Control_c, 10, 11, 96
11, 34556, Control_c, 10, 11, 95
11, 34563, Control_c, 10, 11, 94
11, 34570, Control_c, 10, 11, 93
11, 34573, Control_c, 10, 11, 92
11, 34610, Control_c, 10, 11, 91
11, 34616, Control_c, 10, 11, 90
11, 34623, Control_c, 10, 11, 89
11, 34670, Control_c, 10, 11, 87
11, 34696, Control_c, 10, 11, 86
11, 34710, Control_c, 10, 11, 85
11, 34733, Control_c, 10, 11, 84
11, 34756, Control_c, 10, 11, 83
11, 34766, Control_c, 10, 11, 82
11, 34786, Control_c, 10, 11, 81
11, 34810, Control_c, 10, 11, 80
11, 34830, Control_c, 10, 11, 79
11, 34843, Control_c, 10, 11, 78
11, 34863, Control_c, 10, 11, 77
11, 34880, Control_c, 10, 11, 76
11, 34890, Control_c, 10, 11, 75
11, 34896, Control_c, 10, 11, 74
11, 34906, Control_c, 10, 11, 73
11, 34913, Control_c, 10, 11, 72
11, 34916, Control_c, 10, 11, 71
11, 34920, Note_on_c, 10, 40, 0
11, 34953, Control_c, 10, 11, 69
11, 34960, Control_c, 10, 11, 68
11, 34966, Control_c, 10, 11, 66
11, 34973, Control_c, 10, 11, 64
11, 34976, Control_c, 10, 11, 62
11, 35279, Control_c, 10, 11, 126
11, 41760, Note_on_c, 10, 47, 81
11, 41940, Note_on_c, 10, 47, 0
11, 42120, Note_on_c, 10, 40, 81
11, 43920, Note_on_c, 10, 40, 0
11, 43920, Note_on_c, 10, 35, 81
11, 44280, Note_on_c, 10, 35, 0
11, 44280, Note_on_c, 10, 40, 81
11, 44580, Note_on_c, 10, 40, 0
11, 44580, Note_on_c, 10, 45, 81
11, 44640, Note_on_c, 10, 45, 0
11, 44640, Note_on_c, 10, 47, 81
11, 44730, Note_on_c, 10, 47, 0
11, 44730, Note_on_c, 10, 45, 81
11, 44760, Note_on_c, 10, 45, 0
11, 44760, Note_on_c, 10, 47, 81
11, 44820, Note_on_c, 10, 47, 0
11, 44820, Note_on_c, 10, 47, 81
11, 44910, Note_on_c, 10, 47, 0
11, 44910, Note_on_c, 10, 45, 81
11, 44940, Note_on_c, 10, 45, 0
11, 44940, Note_on_c, 10, 47, 81
11, 45000, Note_on_c, 10, 47, 0
11, 45000, Note_on_c, 10, 38, 81
11, 45300, Note_on_c, 10, 38, 0
11, 45300, Note_on_c, 10, 43, 81
11, 45360, Note_on_c, 10, 43, 0
11, 45360, Note_on_c, 10, 47, 81
11, 45450, Note_on_c, 10, 47, 0
11, 45450, Note_on_c, 10, 45, 81
11, 45480, Note_on_c, 10, 45, 0
11, 45480, Note_on_c, 10, 47, 81
11, 45540, Note_on_c, 10, 47, 0
11, 45540, Note_on_c, 10, 47, 81
11, 45630, Note_on_c, 10, 47, 0
11, 45630, Note_on_c, 10, 45, 81
11, 45660, Note_on_c, 10, 45, 0
11, 45660, Note_on_c, 10, 47, 81
11, 45720, Note_on_c, 10, 47, 0
11, 45720, Note_on_c, 10, 45, 81
11, 46020, Note_on_c, 10, 45, 0
11, 46020, Note_on_c, 10, 45, 81
11, 46080, Note_on_c, 10, 45, 0
11, 46080, Note_on_c, 10, 47, 81
11, 46200, Note_on_c, 10, 47, 0
11, 46200, Note_on_c, 10, 35, 81
11, 46260, Note_on_c, 10, 35, 0
11, 46260, Note_on_c, 10, 35, 81
11, 46380, Note_on_c, 10, 35, 0
11, 46380, Note_on_c, 10, 47, 81
11, 46440, Note_on_c, 10, 47, 0
11, 46440, Note_on_c, 10, 52, 81
11, 46500, Note_on_c, 10, 50, 81
11, 46505, Note_on_c, 10, 52, 0
11, 46560, Note_on_c, 10, 52, 81
11, 46565, Note_on_c, 10, 50, 0
11, 46620, Note_on_c, 10, 52, 0
11, 46620, Note_on_c, 10, 44, 81
11, 46680, Note_on_c, 10, 42, 81
11, 46685, Note_on_c, 10, 44, 0
11, 46740, Note_on_c, 10, 40, 81
11, 46745, Note_on_c, 10, 42, 0
11, 46800, Note_on_c, 10, 40, 0
11, 46800, Note_on_c, 10, 45, 81
11, 46860, Note_on_c, 10, 44, 81
11, 46865, Note_on_c, 10, 45, 0
11, 46920, Note_on_c, 10, 45, 81
11, 46925, Note_on_c, 10, 44, 0
11, 46980, Note_on_c, 10, 45, 0
11, 46980, Note_on_c, 10, 36, 81
11, 47040, Note_on_c, 10, 35, 81
11, 47045, Note_on_c, 10, 36, 0
11, 47100, Note_on_c, 10, 33, 81
11, 47105, Note_on_c, 10, 35, 0
11, 47160, Note_on_c, 10, 33, 0
11, 47160, Note_on_c, 10, 50, 81
11, 47220, Note_on_c, 10, 48, 81
11, 47225, Note_on_c, 10, 50, 0
11, 47280, Note_on_c, 10, 50, 81
11, 47285, Note_on_c, 10, 48, 0
11, 47340, Note_on_c, 10, 50, 0
11, 47340, Note_on_c, 10, 42, 81
11, 47400, Note_on_c, 10, 40, 81
11, 47405, Note_on_c, 10, 42, 0
11, 47460, Note_on_c, 10, 38, 81
11, 47465, Note_on_c, 10, 40, 0
11, 47520, Note_on_c, 10, 38, 0
11, 47520, Note_on_c, 10, 43, 81
11, 47580, Note_on_c, 10, 42, 81
11, 47585, Note_on_c, 10, 43, 0
11, 47640, Note_on_c, 10, 43, 81
11, 47645, Note_on_c, 10, 42, 0
11, 47700, Note_on_c, 10, 43, 0
11, 47700, Note_on_c, 10, 35, 81
11, 47760, Note_on_c, 10, 33, 81
11, 47765, Note_on_c, 10, 35, 0
11, 47820, Note_on_c, 10, 31, 81
11, 47825, Note_on_c, 10, 33, 0
11, 47880, Note_on_c, 10, 31, 0
11, 47880, Note_on_c, 10, 48, 81
11, 47940, Note_on_c, 10, 47, 81
11, 47945, Note_on_c, 10, 48, 0
11, 48000, Note_on_c, 10, 48, 81
11, 48005, Note_on_c, 10, 47, 0
11, 48060, Note_on_c, 10, 48, 0
11, 48060, Note_on_c, 10, 40, 81
11, 48120, Note_on_c, 10, 38, 81
11, 48125, Note_on_c, 10, 40, 0
11, 48180, Note_on_c, 10, 36, 81
11, 48185, Note_on_c, 10, 38, 0
11, 48240, Note_on_c, 10, 36, 0
11, 48240, Note_on_c, 10, 45, 81
11, 48300, Note_on_c, 10, 44, 81
11, 48305, Note_on_c, 10, 45, 0
11, 48360, Note_on_c, 10, 45, 81
11, 48365, Note_on_c, 10, 44, 0
11, 48420, Note_on_c, 10, 45, 0
11, 48420, Note_on_c, 10, 47, 81
11, 48480, Note_on_c, 10, 45, 81
11, 48485, Note_on_c, 10, 47, 0
11, 48540, Note_on_c, 10, 47, 81
11, 48545, Note_on_c, 10, 45, 0
11, 48600, Note_on_c, 10, 47, 0
11, 48600, Note_on_c, 10, 48, 81
11, 48660, Note_on_c, 10, 47, 81
11, 48665, Note_on_c, 10, 48, 0
11, 48720, Note_on_c, 10, 48, 81
11, 48725, Note_on_c, 10, 47, 0
11, 48780, Note_on_c, 10, 48, 0
11, 48780, Note_on_c, 10, 47, 81
11, 48840, Note_on_c, 10, 45, 81
11, 48845, Note_on_c, 10, 47, 0
11, 48900, Note_on_c, 10, 47, 81
11, 48905, Note_on_c, 10, 45, 0
11, 48960, Note_on_c, 10, 47, 0
11, 48960, Note_on_c, 10, 40, 81
11, 49140, Note_on_c, 10, 40, 0
11, 49140, Note_on_c, 10, 52, 81
11, 49320, Note_on_c, 10, 52, 0
11, 49320, Note_on_c, 10, 51, 81
11, 49500, Note_on_c, 10, 51, 0
11, 49500, Note_on_c, 10, 50, 81
11, 49680, Note_on_c, 10, 50, 0
11, 49680, Note_on_c, 10, 49, 81
11, 49860, Note_on_c, 10, 49, 0
11, 49860, Note_on_c, 10, 48, 81
11, 50040, Note_on_c, 10, 48, 0
11, 50040, Note_on_c, 10, 47, 81
11, 50400, Note_on_c, 10, 47, 0
11, 50400, Note_on_c, 10, 40, 81
11, 50580, Note_on_c, 10, 40, 0
11, 50580, Note_on_c, 10, 52, 81
11, 50760, Note_on_c, 10, 52, 0
11, 50760, Note_on_c, 10, 51, 81
11, 50940, Note_on_c, 10, 51, 0
11, 50940, Note_on_c, 10, 50, 81
11, 51120, Note_on_c, 10, 50, 0
11, 51120, Note_on_c, 10, 49, 81
11, 51300, Note_on_c, 10, 49, 0
11, 51300, Note_on_c, 10, 48, 81
11, 51480, Note_on_c, 10, 48, 0
11, 51480, Note_on_c, 10, 35, 81
11, 56880, Note_on_c, 10, 35, 0
11, 56880, Note_on_c, 10, 40, 81
11, 57060, Note_on_c, 10, 40, 0
11, 57060, Note_on_c, 10, 35, 81
11, 57240, Note_on_c, 10, 35, 0
11, 57240, Note_on_c, 10, 40, 81
11, 59040, Note_on_c, 10, 40, 0
11, 59040, Note_on_c, 10, 35, 81
11, 60480, Note_on_c, 10, 35, 0
11, 60480, Note_on_c, 10, 40, 81
11, 61920, Note_on_c, 10, 40, 0
11, 61920, Note_on_c, 10, 40, 81
11, 62040, Note_on_c, 10, 40, 0
11, 62040, Note_on_c, 10, 28, 81
11, 62100, Note_on_c, 10, 28, 0
11, 62100, Note_on_c, 10, 47, 81
11, 62220, Note_on_c, 10, 47, 0
11, 62220, Note_on_c, 10, 35, 81
11, 62280, Note_on_c, 10, 35, 0
11, 62280, Note_on_c, 10, 40, 47
11, 63840, Note_on_c, 10, 40, 0
11, 63840, Note_on_c, 10, 28, 47
11, 63900, Note_on_c, 10, 28, 0
11, 63900, Note_on_c, 10, 47, 47
11, 64020, Note_on_c, 10, 47, 0
11, 64020, Note_on_c, 10, 35, 47
11, 64080, Note_on_c, 10, 35, 0
11, 64080, Note_on_c, 10, 28, 47
11, 64800, Note_on_c, 10, 28, 0
11, 65161, Program_c, 10, 0
11, 65162, Control_c, 10, 7, 100
11, 65163, Control_c, 10, 10, 64
11, 65164, Control_c, 10, 93, 0
11, 65165, Control_c, 10, 91, 40
11, 65166, Control_c, 10, 99, 1
11, 65167, Control_c, 10, 98, 8
11, 65168, Control_c, 10, 6, 64
11, 65169, Control_c, 10, 99, 1
11, 65170, Control_c, 10, 98, 10
11, 65171, Control_c, 10, 6, 64
11, 65172, Control_c, 10, 99, 1
11, 65173, Control_c, 10, 98, 9
11, 65174, Control_c, 10, 6, 64
11, 65174, Control_c, 10, 11, 127
11, 65175, Pitch_bend_c, 10, 8192
11, 65175, End_track
12, 0, Start_track
12, 0, MIDI_port, 0
12, 0, Title_t, "+=+=+=+=+=+="
12, 0, End_track
13, 0, Start_track
13, 0, MIDI_port, 0
13, 0, Title_t, "From"
13, 0, End_track
14, 0, Start_track
14, 0, MIDI_port, 0
14, 0, Title_t, "Antonio"
14, 0, End_track
15, 0, Start_track
15, 0, MIDI_port, 0
15, 0, Title_t, "Vivaldi's "
15, 0, End_track
16, 0, Start_track
16, 0, MIDI_port, 0
16, 0, Title_t, "Four Seasons"
16, 0, End_track
17, 0, Start_track
17, 0, MIDI_port, 0
17, 0, Title_t, "Spring "
17, 0, End_track
18, 0, Start_track
18, 0, MIDI_port, 0
18, 0, Title_t, "Op. 8, No. 1"
18, 0, End_track
19, 0, Start_track
19, 0, MIDI_port, 0
19, 0, Title_t, "Allegro (III)"
19, 0, End_track
20, 0, Start_track
20, 0, MIDI_port, 0
20, 0, Title_t, "+=+=+=+=+=+="
20, 0, End_track
21, 0, Start_track
21, 0, MIDI_port, 0
21, 0, Title_t, "This Midi File"
21, 0, End_track
22, 0, Start_track
22, 0, MIDI_port, 0
22, 0, Title_t, "Copyright (C)"
22, 0, End_track
23, 0, Start_track
23, 0, MIDI_port, 0
23, 0, Title_t, "1996 by"
23, 0, End_track
24, 0, Start_track
24, 0, MIDI_port, 0
24, 0, Title_t, "Neil B. Sheldon Sr."
24, 0, End_track
25, 0, Start_track
25, 0, MIDI_port, 0
25, 0, Title_t, "May be freely"
25, 0, End_track
26, 0, Start_track
26, 0, MIDI_port, 0
26, 0, Title_t, "distributed for"
26, 0, End_track
27, 0, Start_track
27, 0, MIDI_port, 0
27, 0, Title_t, "non-monetary"
27, 0, End_track
28, 0, Start_track
28, 0, MIDI_port, 0
28, 0, Title_t, "non-commercial"
28, 0, End_track
29, 0, Start_track
29, 0, MIDI_port, 0
29, 0, Title_t, "purposes."
29, 0, End_track
30, 0, Start_track
30, 0, MIDI_port, 0
30, 0, Title_t, "+=+=+=+=+=+="
30, 0, End_track
31, 0, Start_track
31, 0, MIDI_port, 0
31, 0, Title_t, "For Roland SC-55"
31, 0, End_track
32, 0, Start_track
32, 0, MIDI_port, 0
32, 0, Title_t, "+=+=+=+=+=+="
32, 0, End_track
0, 0, End_of_file
