0, 0, Header, 1, 11, 48
1, 0, Start_track
1, 0, Title_t, "WinJammer Demo"
1, 0, Key_signature, 0, "major"
1, 0, MIDI_port, 0
1, 0, Time_signature, 4, 2, 24, 8
1, 0, Tempo, 560747
1, 192, Tempo, 560747
1, 384, Tempo, 560747
1, 576, Tempo, 560747
1, 768, Tempo, 560747
1, 960, Tempo, 560747
1, 1152, Tempo, 560747
1, 1344, Tempo, 560747
1, 1536, Tempo, 560747
1, 1728, Tempo, 560747
1, 1920, Tempo, 560747
1, 2112, Tempo, 560747
1, 2304, Tempo, 560747
1, 2496, Tempo, 560747
1, 2592, Tempo, 600000
1, 2688, Tempo, 600000
1, 2784, Tempo, 600000
1, 2880, Tempo, 600000
1, 2976, Tempo, 600000
1, 3072, Tempo, 600000
1, 3168, Tempo, 600000
1, 3264, Tempo, 600000
1, 3360, Tempo, 600000
1, 3456, Tempo, 600000
1, 3552, Tempo, 600000
1, 3648, Tempo, 600000
1, 3744, Tempo, 600000
1, 3840, Tempo, 600000
1, 3936, Tempo, 600000
1, 4032, Tempo, 600000
1, 4128, Tempo, 600000
1, 4224, Tempo, 600000
1, 4320, Tempo, 600000
1, 4416, Tempo, 600000
1, 4512, Tempo, 600000
1, 4608, Tempo, 600000
1, 4704, Tempo, 600000
1, 4800, Tempo, 600000
1, 4896, Tempo, 600000
1, 4992, Tempo, 600000
1, 5088, Tempo, 600000
1, 5184, Tempo, 600000
1, 5280, Tempo, 600000
1, 5304, Tempo, 722891
1, 5352, Tempo, 560747
1, 5376, Tempo, 560747
1, 5544, Tempo, 560747
1, 5568, Tempo, 560747
1, 5736, Tempo, 560747
1, 5760, Tempo, 560747
1, 5928, Tempo, 560747
1, 5952, Tempo, 722891
1, 5976, Tempo, 560747
1, 6144, Tempo, 560747
1, 6168, Tempo, 560747
1, 6336, Tempo, 560747
1, 6360, Tempo, 560747
1, 6528, Tempo, 560747
1, 6552, Tempo, 560747
1, 6720, Tempo, 560747
1, 6744, Tempo, 560747
1, 6912, Tempo, 560747
1, 6936, Tempo, 560747
1, 7104, Tempo, 560747
1, 7128, Tempo, 560747
1, 7296, Tempo, 560747
1, 7320, Tempo, 560747
1, 7488, Tempo, 560747
1, 7512, Tempo, 560747
1, 7680, Tempo, 560747
1, 7704, Tempo, 560747
1, 7872, Tempo, 560747
1, 7896, Tempo, 560747
1, 8064, Tempo, 560747
1, 8088, Tempo, 560747
1, 8256, Tempo, 560747
1, 8280, Tempo, 560747
1, 8448, Tempo, 560747
1, 8472, Tempo, 560747
1, 8640, Tempo, 560747
1, 8664, Tempo, 560747
1, 8832, Tempo, 560747
1, 8856, Tempo, 560747
1, 9024, Tempo, 560747
1, 9048, Tempo, 560747
1, 9216, Tempo, 560747
1, 9240, Tempo, 560747
1, 9408, Tempo, 560747
1, 9432, Tempo, 560747
1, 9600, Tempo, 560747
1, 9624, Tempo, 560747
1, 9792, Tempo, 560747
1, 9816, Tempo, 560747
1, 9984, Tempo, 560747
1, 10008, Tempo, 560747
1, 10176, Tempo, 560747
1, 10200, Tempo, 560747
1, 10368, Tempo, 560747
1, 10392, Tempo, 560747
1, 10560, Tempo, 560747
1, 10584, Tempo, 560747
1, 10752, Tempo, 560747
1, 10776, Tempo, 560747
1, 10944, Tempo, 560747
1, 10968, Tempo, 560747
1, 11136, Tempo, 560747
1, 11160, Tempo, 560747
1, 11328, Tempo, 600000
1, 11520, Tempo, 631578
1, 11712, Tempo, 612244
1, 11904, Tempo, 612244
1, 12096, Tempo, 612244
1, 12288, Tempo, 612244
1, 12480, Tempo, 612244
1, 12672, Tempo, 582524
1, 12864, Tempo, 582524
1, 13056, Tempo, 582524
1, 13248, Tempo, 582524
1, 13440, Tempo, 625000
1, 13536, Tempo, 659340
1, 13632, Tempo, 659340
1, 13728, Tempo, 659340
1, 13824, Tempo, 659340
1, 13920, Tempo, 659340
1, 14016, Tempo, 659340
1, 14112, Tempo, 659340
1, 14160, Tempo, 722891
1, 14208, Tempo, 800000
1, 14256, Tempo, 909090
1, 14304, Tempo, 625000
1, 14400, Tempo, 625000
1, 14496, Tempo, 722891
1, 14544, Tempo, 909090
1, 14592, Tempo, 560747
1, 14784, Tempo, 560747
1, 14976, Tempo, 560747
1, 15168, Tempo, 560747
1, 15360, Tempo, 560747
1, 15552, Tempo, 560747
1, 15744, Tempo, 560747
1, 15792, Tempo, 722891
1, 15840, Tempo, 800000
1, 15936, Tempo, 800000
1, 16032, Tempo, 800000
1, 16128, Tempo, 800000
1, 16128, End_track
2, 0, Start_track
2, 0, Title_t, "WinJammer Demo"
2, 0, Instrument_name_t, "Keyboard"
2, 0, MIDI_port, 0
2, 0, Control_c, 0, 7, 0
2, 0, Control_c, 0, 10, 64
2, 0, Control_c, 0, 64, 0
2, 0, Control_c, 0, 1, 0
2, 0, Pitch_bend_c, 0, 8192
2, 0, Program_c, 0, 0
2, 0, End_track
3, 0, Start_track
3, 0, Title_t, "WinJammer Demo"
3, 0, Instrument_name_t, "Contrabass"
3, 0, MIDI_port, 0
3, 0, Pitch_bend_c, 1, 8192
3, 0, Control_c, 1, 10, 64
3, 0, Control_c, 1, 1, 0
3, 0, Control_c, 1, 64, 0
3, 0, Control_c, 1, 7, 121
3, 0, Control_c, 1, 11, 100
3, 0, Program_c, 1, 43
3, 168, Control_c, 1, 7, 118
3, 168, Note_on_c, 1, 40, 126
3, 171, Control_c, 1, 7, 121
3, 174, Control_c, 1, 7, 123
3, 180, Control_c, 1, 7, 126
3, 188, Note_on_c, 1, 40, 0
3, 192, Control_c, 1, 7, 121
3, 192, Note_on_c, 1, 40, 126
3, 217, Note_on_c, 1, 40, 0
3, 240, Note_on_c, 1, 40, 123
3, 265, Note_on_c, 1, 40, 0
3, 288, Note_on_c, 1, 40, 126
3, 313, Note_on_c, 1, 40, 0
3, 336, Note_on_c, 1, 40, 123
3, 361, Note_on_c, 1, 40, 0
3, 384, Note_on_c, 1, 40, 126
3, 409, Note_on_c, 1, 40, 0
3, 432, Note_on_c, 1, 40, 123
3, 457, Note_on_c, 1, 40, 0
3, 480, Note_on_c, 1, 40, 126
3, 505, Note_on_c, 1, 40, 0
3, 528, Note_on_c, 1, 40, 123
3, 553, Note_on_c, 1, 40, 0
3, 576, Note_on_c, 1, 40, 126
3, 596, Note_on_c, 1, 40, 0
3, 600, Note_on_c, 1, 40, 126
3, 620, Note_on_c, 1, 40, 0
3, 624, Note_on_c, 1, 33, 126
3, 644, Note_on_c, 1, 33, 0
3, 648, Note_on_c, 1, 34, 126
3, 668, Note_on_c, 1, 34, 0
3, 672, Note_on_c, 1, 35, 126
3, 717, Note_on_c, 1, 35, 0
3, 744, Note_on_c, 1, 40, 108
3, 764, Note_on_c, 1, 40, 0
3, 768, Note_on_c, 1, 40, 112
3, 793, Note_on_c, 1, 40, 0
3, 816, Note_on_c, 1, 40, 108
3, 841, Note_on_c, 1, 40, 0
3, 864, Note_on_c, 1, 40, 112
3, 889, Note_on_c, 1, 40, 0
3, 912, Note_on_c, 1, 40, 108
3, 937, Note_on_c, 1, 40, 0
3, 960, Note_on_c, 1, 40, 112
3, 985, Note_on_c, 1, 40, 0
3, 1008, Note_on_c, 1, 40, 108
3, 1033, Note_on_c, 1, 40, 0
3, 1056, Note_on_c, 1, 40, 112
3, 1081, Note_on_c, 1, 40, 0
3, 1104, Note_on_c, 1, 40, 108
3, 1129, Note_on_c, 1, 40, 0
3, 1152, Note_on_c, 1, 40, 112
3, 1172, Note_on_c, 1, 40, 0
3, 1176, Note_on_c, 1, 40, 112
3, 1196, Note_on_c, 1, 40, 0
3, 1200, Note_on_c, 1, 33, 112
3, 1220, Note_on_c, 1, 33, 0
3, 1224, Note_on_c, 1, 34, 112
3, 1244, Note_on_c, 1, 34, 0
3, 1248, Note_on_c, 1, 35, 112
3, 1293, Note_on_c, 1, 35, 0
3, 1320, Note_on_c, 1, 40, 121
3, 1340, Note_on_c, 1, 40, 0
3, 1344, Note_on_c, 1, 40, 123
3, 1369, Note_on_c, 1, 40, 0
3, 1392, Note_on_c, 1, 40, 126
3, 1417, Note_on_c, 1, 40, 0
3, 1440, Note_on_c, 1, 40, 123
3, 1465, Note_on_c, 1, 40, 0
3, 1488, Note_on_c, 1, 40, 126
3, 1513, Note_on_c, 1, 40, 0
3, 1536, Note_on_c, 1, 40, 123
3, 1561, Note_on_c, 1, 40, 0
3, 1584, Note_on_c, 1, 40, 126
3, 1609, Note_on_c, 1, 40, 0
3, 1632, Note_on_c, 1, 40, 123
3, 1657, Note_on_c, 1, 40, 0
3, 1680, Note_on_c, 1, 40, 126
3, 1705, Note_on_c, 1, 40, 0
3, 1728, Note_on_c, 1, 40, 121
3, 1773, Note_on_c, 1, 40, 0
3, 1776, Note_on_c, 1, 40, 121
3, 1794, Note_on_c, 1, 40, 0
3, 1800, Note_on_c, 1, 35, 121
3, 1818, Note_on_c, 1, 35, 0
3, 1824, Note_on_c, 1, 40, 124
3, 1842, Note_on_c, 1, 40, 0
3, 1848, Note_on_c, 1, 28, 121
3, 1866, Note_on_c, 1, 28, 0
3, 1872, Note_on_c, 1, 47, 124
3, 1890, Note_on_c, 1, 47, 0
3, 1896, Note_on_c, 1, 35, 121
3, 1914, Note_on_c, 1, 35, 0
3, 1920, Note_on_c, 1, 28, 121
3, 1950, Note_on_c, 1, 28, 0
3, 1992, Note_on_c, 1, 40, 108
3, 2012, Note_on_c, 1, 40, 0
3, 2016, Note_on_c, 1, 40, 108
3, 2046, Note_on_c, 1, 40, 0
3, 2064, Note_on_c, 1, 40, 108
3, 2094, Note_on_c, 1, 40, 0
3, 2112, Note_on_c, 1, 40, 108
3, 2142, Note_on_c, 1, 40, 0
3, 2160, Note_on_c, 1, 40, 108
3, 2190, Note_on_c, 1, 40, 0
3, 2208, Note_on_c, 1, 40, 108
3, 2238, Note_on_c, 1, 40, 0
3, 2256, Note_on_c, 1, 40, 108
3, 2286, Note_on_c, 1, 40, 0
3, 2304, Note_on_c, 1, 40, 108
3, 2334, Note_on_c, 1, 40, 0
3, 2352, Note_on_c, 1, 40, 108
3, 2382, Note_on_c, 1, 40, 0
3, 2400, Note_on_c, 1, 40, 108
3, 2430, Note_on_c, 1, 40, 0
3, 2448, Note_on_c, 1, 40, 108
3, 2478, Note_on_c, 1, 40, 0
3, 2496, Note_on_c, 1, 40, 108
3, 2514, Note_on_c, 1, 40, 0
3, 2520, Note_on_c, 1, 28, 108
3, 2538, Note_on_c, 1, 28, 0
3, 2544, Note_on_c, 1, 47, 108
3, 2562, Note_on_c, 1, 47, 0
3, 2568, Note_on_c, 1, 35, 108
3, 2586, Note_on_c, 1, 35, 0
3, 2592, Note_on_c, 1, 28, 108
3, 2627, Note_on_c, 1, 28, 0
3, 5352, Control_c, 1, 7, 123
3, 5352, Control_c, 1, 7, 115
3, 5352, Note_on_c, 1, 40, 126
3, 5355, Control_c, 1, 7, 118
3, 5358, Control_c, 1, 7, 121
3, 5364, Control_c, 1, 7, 123
3, 5372, Note_on_c, 1, 40, 0
3, 5376, Note_on_c, 1, 40, 123
3, 5401, Note_on_c, 1, 40, 0
3, 5424, Note_on_c, 1, 40, 126
3, 5449, Note_on_c, 1, 40, 0
3, 5472, Note_on_c, 1, 40, 123
3, 5497, Note_on_c, 1, 40, 0
3, 5520, Note_on_c, 1, 40, 126
3, 5545, Note_on_c, 1, 40, 0
3, 5568, Note_on_c, 1, 40, 123
3, 5593, Note_on_c, 1, 40, 0
3, 5616, Note_on_c, 1, 40, 126
3, 5641, Note_on_c, 1, 40, 0
3, 5664, Note_on_c, 1, 40, 123
3, 5689, Note_on_c, 1, 40, 0
3, 5712, Note_on_c, 1, 40, 126
3, 5737, Note_on_c, 1, 40, 0
3, 5760, Note_on_c, 1, 40, 121
3, 5805, Note_on_c, 1, 40, 0
3, 5808, Note_on_c, 1, 40, 121
3, 5826, Note_on_c, 1, 40, 0
3, 5832, Note_on_c, 1, 35, 121
3, 5850, Note_on_c, 1, 35, 0
3, 5856, Note_on_c, 1, 40, 124
3, 5874, Note_on_c, 1, 40, 0
3, 5880, Note_on_c, 1, 28, 121
3, 5898, Note_on_c, 1, 28, 0
3, 5904, Note_on_c, 1, 47, 124
3, 5922, Note_on_c, 1, 47, 0
3, 5928, Note_on_c, 1, 35, 121
3, 5946, Note_on_c, 1, 35, 0
3, 5952, Note_on_c, 1, 40, 118
3, 5970, Note_on_c, 1, 40, 0
3, 5976, Control_c, 1, 7, 121
3, 5976, Note_on_c, 1, 40, 112
3, 5994, Note_on_c, 1, 40, 0
3, 6000, Note_on_c, 1, 40, 112
3, 6018, Note_on_c, 1, 40, 0
3, 6024, Note_on_c, 1, 40, 112
3, 6042, Note_on_c, 1, 40, 0
3, 6048, Note_on_c, 1, 40, 112
3, 6066, Note_on_c, 1, 40, 0
3, 6072, Note_on_c, 1, 40, 112
3, 6090, Note_on_c, 1, 40, 0
3, 6096, Note_on_c, 1, 40, 112
3, 6114, Note_on_c, 1, 40, 0
3, 6120, Note_on_c, 1, 40, 112
3, 6138, Note_on_c, 1, 40, 0
3, 6144, Note_on_c, 1, 40, 112
3, 6162, Note_on_c, 1, 40, 0
3, 6168, Note_on_c, 1, 40, 112
3, 6186, Note_on_c, 1, 40, 0
3, 6192, Note_on_c, 1, 40, 112
3, 6210, Note_on_c, 1, 40, 0
3, 6216, Note_on_c, 1, 40, 112
3, 6234, Note_on_c, 1, 40, 0
3, 6240, Note_on_c, 1, 40, 112
3, 6258, Note_on_c, 1, 40, 0
3, 6264, Note_on_c, 1, 40, 112
3, 6282, Note_on_c, 1, 40, 0
3, 6288, Note_on_c, 1, 40, 112
3, 6306, Note_on_c, 1, 40, 0
3, 6312, Note_on_c, 1, 40, 112
3, 6330, Note_on_c, 1, 40, 0
3, 6336, Note_on_c, 1, 35, 112
3, 6354, Note_on_c, 1, 35, 0
3, 6360, Note_on_c, 1, 35, 112
3, 6378, Note_on_c, 1, 35, 0
3, 6384, Note_on_c, 1, 35, 112
3, 6402, Note_on_c, 1, 35, 0
3, 6408, Note_on_c, 1, 35, 112
3, 6426, Note_on_c, 1, 35, 0
3, 6432, Note_on_c, 1, 35, 112
3, 6450, Note_on_c, 1, 35, 0
3, 6456, Note_on_c, 1, 35, 112
3, 6474, Note_on_c, 1, 35, 0
3, 6480, Note_on_c, 1, 35, 112
3, 6498, Note_on_c, 1, 35, 0
3, 6504, Note_on_c, 1, 35, 112
3, 6522, Note_on_c, 1, 35, 0
3, 6528, Note_on_c, 1, 35, 112
3, 6546, Note_on_c, 1, 35, 0
3, 6552, Note_on_c, 1, 35, 112
3, 6570, Note_on_c, 1, 35, 0
3, 6576, Note_on_c, 1, 35, 112
3, 6594, Note_on_c, 1, 35, 0
3, 6600, Note_on_c, 1, 35, 112
3, 6618, Note_on_c, 1, 35, 0
3, 6624, Note_on_c, 1, 35, 112
3, 6642, Note_on_c, 1, 35, 0
3, 6648, Note_on_c, 1, 35, 112
3, 6666, Note_on_c, 1, 35, 0
3, 6672, Note_on_c, 1, 35, 112
3, 6690, Note_on_c, 1, 35, 0
3, 6696, Note_on_c, 1, 35, 112
3, 6714, Note_on_c, 1, 35, 0
3, 6720, Note_on_c, 1, 40, 112
3, 6738, Note_on_c, 1, 40, 0
3, 6744, Note_on_c, 1, 40, 112
3, 6762, Note_on_c, 1, 40, 0
3, 6768, Note_on_c, 1, 40, 112
3, 6786, Note_on_c, 1, 40, 0
3, 6792, Note_on_c, 1, 40, 112
3, 6810, Note_on_c, 1, 40, 0
3, 6816, Note_on_c, 1, 40, 112
3, 6834, Note_on_c, 1, 40, 0
3, 6840, Note_on_c, 1, 40, 112
3, 6858, Note_on_c, 1, 40, 0
3, 6864, Note_on_c, 1, 40, 112
3, 6882, Note_on_c, 1, 40, 0
3, 6888, Note_on_c, 1, 40, 112
3, 6906, Note_on_c, 1, 40, 0
3, 6912, Note_on_c, 1, 40, 112
3, 6930, Note_on_c, 1, 40, 0
3, 6936, Note_on_c, 1, 40, 112
3, 6954, Note_on_c, 1, 40, 0
3, 6960, Note_on_c, 1, 40, 112
3, 6978, Note_on_c, 1, 40, 0
3, 6984, Note_on_c, 1, 40, 112
3, 7002, Note_on_c, 1, 40, 0
3, 7008, Note_on_c, 1, 40, 112
3, 7026, Note_on_c, 1, 40, 0
3, 7032, Note_on_c, 1, 40, 112
3, 7050, Note_on_c, 1, 40, 0
3, 7056, Note_on_c, 1, 40, 112
3, 7074, Note_on_c, 1, 40, 0
3, 7080, Note_on_c, 1, 40, 112
3, 7098, Note_on_c, 1, 40, 0
3, 7104, Note_on_c, 1, 40, 115
3, 7116, Note_on_c, 1, 40, 0
3, 7116, Note_on_c, 1, 35, 112
3, 7128, Note_on_c, 1, 35, 0
3, 7128, Note_on_c, 1, 40, 115
3, 7140, Note_on_c, 1, 40, 0
3, 7140, Note_on_c, 1, 35, 112
3, 7152, Note_on_c, 1, 35, 0
3, 7152, Note_on_c, 1, 40, 115
3, 7164, Note_on_c, 1, 40, 0
3, 7164, Note_on_c, 1, 35, 112
3, 7176, Note_on_c, 1, 35, 0
3, 7176, Note_on_c, 1, 40, 115
3, 7188, Note_on_c, 1, 40, 0
3, 7188, Note_on_c, 1, 35, 112
3, 7200, Note_on_c, 1, 35, 0
3, 7200, Note_on_c, 1, 39, 115
3, 7212, Note_on_c, 1, 39, 0
3, 7212, Note_on_c, 1, 35, 112
3, 7224, Note_on_c, 1, 35, 0
3, 7224, Note_on_c, 1, 39, 115
3, 7236, Note_on_c, 1, 39, 0
3, 7236, Note_on_c, 1, 35, 112
3, 7248, Note_on_c, 1, 35, 0
3, 7248, Note_on_c, 1, 39, 115
3, 7260, Note_on_c, 1, 39, 0
3, 7260, Note_on_c, 1, 35, 112
3, 7272, Note_on_c, 1, 35, 0
3, 7272, Note_on_c, 1, 39, 115
3, 7284, Note_on_c, 1, 39, 0
3, 7284, Note_on_c, 1, 35, 112
3, 7296, Note_on_c, 1, 35, 0
3, 7296, Note_on_c, 1, 40, 115
3, 7308, Note_on_c, 1, 40, 0
3, 7308, Note_on_c, 1, 35, 112
3, 7320, Note_on_c, 1, 35, 0
3, 7320, Note_on_c, 1, 40, 115
3, 7332, Note_on_c, 1, 40, 0
3, 7332, Note_on_c, 1, 35, 112
3, 7344, Note_on_c, 1, 35, 0
3, 7344, Note_on_c, 1, 40, 115
3, 7356, Note_on_c, 1, 40, 0
3, 7356, Note_on_c, 1, 35, 112
3, 7368, Note_on_c, 1, 35, 0
3, 7368, Note_on_c, 1, 40, 115
3, 7380, Note_on_c, 1, 40, 0
3, 7380, Note_on_c, 1, 35, 112
3, 7392, Note_on_c, 1, 35, 0
3, 7392, Note_on_c, 1, 42, 115
3, 7404, Note_on_c, 1, 42, 0
3, 7404, Note_on_c, 1, 35, 112
3, 7416, Note_on_c, 1, 35, 0
3, 7416, Note_on_c, 1, 42, 115
3, 7428, Note_on_c, 1, 42, 0
3, 7428, Note_on_c, 1, 35, 112
3, 7440, Note_on_c, 1, 35, 0
3, 7440, Note_on_c, 1, 42, 115
3, 7452, Note_on_c, 1, 42, 0
3, 7452, Note_on_c, 1, 35, 112
3, 7464, Note_on_c, 1, 35, 0
3, 7464, Note_on_c, 1, 42, 115
3, 7476, Note_on_c, 1, 42, 0
3, 7476, Note_on_c, 1, 35, 112
3, 7488, Note_on_c, 1, 35, 0
3, 7488, Note_on_c, 1, 40, 115
3, 7500, Note_on_c, 1, 40, 0
3, 7500, Note_on_c, 1, 35, 112
3, 7512, Note_on_c, 1, 35, 0
3, 7512, Note_on_c, 1, 40, 115
3, 7524, Note_on_c, 1, 40, 0
3, 7524, Note_on_c, 1, 35, 112
3, 7536, Note_on_c, 1, 35, 0
3, 7536, Note_on_c, 1, 40, 115
3, 7548, Note_on_c, 1, 40, 0
3, 7548, Note_on_c, 1, 35, 112
3, 7560, Note_on_c, 1, 35, 0
3, 7560, Note_on_c, 1, 40, 115
3, 7572, Note_on_c, 1, 40, 0
3, 7572, Note_on_c, 1, 35, 112
3, 7584, Note_on_c, 1, 35, 0
3, 7584, Note_on_c, 1, 39, 115
3, 7596, Note_on_c, 1, 39, 0
3, 7596, Note_on_c, 1, 35, 112
3, 7608, Note_on_c, 1, 35, 0
3, 7608, Note_on_c, 1, 39, 115
3, 7620, Note_on_c, 1, 39, 0
3, 7620, Note_on_c, 1, 35, 112
3, 7632, Note_on_c, 1, 35, 0
3, 7632, Note_on_c, 1, 39, 115
3, 7644, Note_on_c, 1, 39, 0
3, 7644, Note_on_c, 1, 35, 112
3, 7656, Note_on_c, 1, 35, 0
3, 7656, Note_on_c, 1, 39, 115
3, 7668, Note_on_c, 1, 39, 0
3, 7668, Note_on_c, 1, 35, 112
3, 7680, Note_on_c, 1, 35, 0
3, 7680, Note_on_c, 1, 40, 115
3, 7692, Note_on_c, 1, 40, 0
3, 7692, Note_on_c, 1, 35, 112
3, 7704, Note_on_c, 1, 35, 0
3, 7704, Note_on_c, 1, 40, 115
3, 7716, Note_on_c, 1, 40, 0
3, 7716, Note_on_c, 1, 35, 112
3, 7728, Note_on_c, 1, 35, 0
3, 7728, Note_on_c, 1, 40, 115
3, 7740, Note_on_c, 1, 40, 0
3, 7740, Note_on_c, 1, 35, 112
3, 7752, Note_on_c, 1, 35, 0
3, 7752, Note_on_c, 1, 40, 115
3, 7764, Note_on_c, 1, 40, 0
3, 7764, Note_on_c, 1, 35, 112
3, 7821, Note_on_c, 1, 35, 0
3, 7824, Control_c, 1, 7, 123
3, 7848, Note_on_c, 1, 35, 126
3, 7868, Note_on_c, 1, 35, 0
3, 7872, Note_on_c, 1, 35, 123
3, 7897, Note_on_c, 1, 35, 0
3, 7920, Note_on_c, 1, 35, 126
3, 7945, Note_on_c, 1, 35, 0
3, 7968, Note_on_c, 1, 35, 123
3, 7993, Note_on_c, 1, 35, 0
3, 8016, Note_on_c, 1, 35, 126
3, 8041, Note_on_c, 1, 35, 0
3, 8064, Note_on_c, 1, 35, 123
3, 8089, Note_on_c, 1, 35, 0
3, 8112, Note_on_c, 1, 35, 126
3, 8137, Note_on_c, 1, 35, 0
3, 8160, Note_on_c, 1, 35, 123
3, 8185, Note_on_c, 1, 35, 0
3, 8208, Note_on_c, 1, 35, 126
3, 8233, Note_on_c, 1, 35, 0
3, 8256, Note_on_c, 1, 35, 121
3, 8301, Note_on_c, 1, 35, 0
3, 8304, Note_on_c, 1, 35, 121
3, 8322, Note_on_c, 1, 35, 0
3, 8328, Note_on_c, 1, 42, 121
3, 8346, Note_on_c, 1, 42, 0
3, 8352, Note_on_c, 1, 47, 124
3, 8370, Note_on_c, 1, 47, 0
3, 8376, Note_on_c, 1, 35, 121
3, 8394, Note_on_c, 1, 35, 0
3, 8400, Note_on_c, 1, 42, 124
3, 8418, Note_on_c, 1, 42, 0
3, 8424, Note_on_c, 1, 30, 121
3, 8442, Note_on_c, 1, 30, 0
3, 8448, Control_c, 1, 11, 100
3, 8448, Note_on_c, 1, 35, 126
3, 8453, Note_on_c, 1, 35, 0
3, 8454, Note_on_c, 1, 35, 121
3, 8458, Note_on_c, 1, 35, 0
3, 8460, Note_on_c, 1, 35, 121
3, 8464, Note_on_c, 1, 35, 0
3, 8466, Note_on_c, 1, 35, 122
3, 8470, Note_on_c, 1, 35, 0
3, 8472, Note_on_c, 1, 35, 122
3, 8476, Note_on_c, 1, 35, 0
3, 8478, Note_on_c, 1, 35, 122
3, 8482, Note_on_c, 1, 35, 0
3, 8484, Note_on_c, 1, 35, 122
3, 8488, Note_on_c, 1, 35, 0
3, 8490, Note_on_c, 1, 35, 123
3, 8494, Note_on_c, 1, 35, 0
3, 8496, Control_c, 1, 11, 110
3, 8496, Note_on_c, 1, 35, 123
3, 8500, Note_on_c, 1, 35, 0
3, 8502, Note_on_c, 1, 35, 123
3, 8506, Note_on_c, 1, 35, 0
3, 8508, Note_on_c, 1, 35, 123
3, 8512, Note_on_c, 1, 35, 0
3, 8514, Note_on_c, 1, 35, 123
3, 8518, Note_on_c, 1, 35, 0
3, 8520, Note_on_c, 1, 35, 123
3, 8524, Note_on_c, 1, 35, 0
3, 8526, Note_on_c, 1, 35, 124
3, 8530, Note_on_c, 1, 35, 0
3, 8532, Note_on_c, 1, 35, 124
3, 8536, Note_on_c, 1, 35, 0
3, 8538, Note_on_c, 1, 35, 124
3, 8542, Note_on_c, 1, 35, 0
3, 8544, Control_c, 1, 11, 115
3, 8544, Note_on_c, 1, 35, 124
3, 8548, Note_on_c, 1, 35, 0
3, 8550, Note_on_c, 1, 35, 124
3, 8554, Note_on_c, 1, 35, 0
3, 8556, Note_on_c, 1, 35, 124
3, 8560, Note_on_c, 1, 35, 0
3, 8562, Note_on_c, 1, 35, 124
3, 8566, Note_on_c, 1, 35, 0
3, 8568, Note_on_c, 1, 35, 126
3, 8572, Note_on_c, 1, 35, 0
3, 8574, Note_on_c, 1, 35, 126
3, 8578, Note_on_c, 1, 35, 0
3, 8580, Note_on_c, 1, 35, 126
3, 8584, Note_on_c, 1, 35, 0
3, 8586, Note_on_c, 1, 35, 126
3, 8590, Note_on_c, 1, 35, 0
3, 8592, Control_c, 1, 11, 120
3, 8592, Note_on_c, 1, 35, 126
3, 8596, Note_on_c, 1, 35, 0
3, 8598, Note_on_c, 1, 35, 126
3, 8602, Note_on_c, 1, 35, 0
3, 8604, Note_on_c, 1, 35, 126
3, 8608, Note_on_c, 1, 35, 0
3, 8610, Note_on_c, 1, 35, 127
3, 8614, Note_on_c, 1, 35, 0
3, 8616, Note_on_c, 1, 35, 127
3, 8620, Note_on_c, 1, 35, 0
3, 8622, Note_on_c, 1, 35, 127
3, 8626, Note_on_c, 1, 35, 0
3, 8628, Note_on_c, 1, 35, 127
3, 8632, Note_on_c, 1, 35, 0
3, 8634, Note_on_c, 1, 35, 127
3, 8638, Note_on_c, 1, 35, 0
3, 8640, Note_on_c, 1, 35, 121
3, 8655, Note_on_c, 1, 35, 0
3, 8688, Note_on_c, 1, 35, 121
3, 8703, Note_on_c, 1, 35, 0
3, 8736, Note_on_c, 1, 35, 121
3, 8751, Note_on_c, 1, 35, 0
3, 8784, Note_on_c, 1, 35, 121
3, 8799, Note_on_c, 1, 35, 0
3, 8832, Control_c, 1, 11, 100
3, 8832, Note_on_c, 1, 35, 126
3, 8837, Note_on_c, 1, 35, 0
3, 8838, Note_on_c, 1, 35, 121
3, 8842, Note_on_c, 1, 35, 0
3, 8844, Note_on_c, 1, 35, 121
3, 8848, Note_on_c, 1, 35, 0
3, 8850, Note_on_c, 1, 35, 122
3, 8854, Note_on_c, 1, 35, 0
3, 8856, Note_on_c, 1, 35, 122
3, 8860, Note_on_c, 1, 35, 0
3, 8862, Note_on_c, 1, 35, 122
3, 8866, Note_on_c, 1, 35, 0
3, 8868, Note_on_c, 1, 35, 122
3, 8872, Note_on_c, 1, 35, 0
3, 8874, Note_on_c, 1, 35, 123
3, 8878, Note_on_c, 1, 35, 0
3, 8880, Control_c, 1, 11, 110
3, 8880, Note_on_c, 1, 35, 123
3, 8884, Note_on_c, 1, 35, 0
3, 8886, Note_on_c, 1, 35, 123
3, 8890, Note_on_c, 1, 35, 0
3, 8892, Note_on_c, 1, 35, 123
3, 8896, Note_on_c, 1, 35, 0
3, 8898, Note_on_c, 1, 35, 123
3, 8902, Note_on_c, 1, 35, 0
3, 8904, Note_on_c, 1, 35, 123
3, 8908, Note_on_c, 1, 35, 0
3, 8910, Note_on_c, 1, 35, 124
3, 8914, Note_on_c, 1, 35, 0
3, 8916, Note_on_c, 1, 35, 124
3, 8920, Note_on_c, 1, 35, 0
3, 8922, Note_on_c, 1, 35, 124
3, 8926, Note_on_c, 1, 35, 0
3, 8928, Control_c, 1, 11, 115
3, 8928, Note_on_c, 1, 33, 124
3, 8932, Note_on_c, 1, 33, 0
3, 8934, Note_on_c, 1, 33, 124
3, 8938, Note_on_c, 1, 33, 0
3, 8940, Note_on_c, 1, 33, 124
3, 8944, Note_on_c, 1, 33, 0
3, 8946, Note_on_c, 1, 33, 124
3, 8950, Note_on_c, 1, 33, 0
3, 8952, Note_on_c, 1, 33, 126
3, 8956, Note_on_c, 1, 33, 0
3, 8958, Note_on_c, 1, 33, 126
3, 8962, Note_on_c, 1, 33, 0
3, 8964, Note_on_c, 1, 33, 126
3, 8968, Note_on_c, 1, 33, 0
3, 8970, Note_on_c, 1, 33, 126
3, 8974, Note_on_c, 1, 33, 0
3, 8976, Control_c, 1, 11, 120
3, 8976, Note_on_c, 1, 33, 126
3, 8980, Note_on_c, 1, 33, 0
3, 8982, Note_on_c, 1, 33, 126
3, 8986, Note_on_c, 1, 33, 0
3, 8988, Note_on_c, 1, 33, 126
3, 8992, Note_on_c, 1, 33, 0
3, 8994, Note_on_c, 1, 33, 127
3, 8998, Note_on_c, 1, 33, 0
3, 9000, Note_on_c, 1, 33, 127
3, 9004, Note_on_c, 1, 33, 0
3, 9006, Note_on_c, 1, 33, 127
3, 9010, Note_on_c, 1, 33, 0
3, 9012, Note_on_c, 1, 33, 127
3, 9016, Note_on_c, 1, 33, 0
3, 9018, Note_on_c, 1, 33, 127
3, 9022, Note_on_c, 1, 33, 0
3, 9024, Note_on_c, 1, 32, 127
3, 9069, Note_on_c, 1, 32, 0
3, 9216, Control_c, 1, 11, 115
3, 9216, Note_on_c, 1, 33, 124
3, 9220, Note_on_c, 1, 33, 0
3, 9222, Note_on_c, 1, 33, 124
3, 9226, Note_on_c, 1, 33, 0
3, 9228, Note_on_c, 1, 33, 124
3, 9232, Note_on_c, 1, 33, 0
3, 9234, Note_on_c, 1, 33, 124
3, 9238, Note_on_c, 1, 33, 0
3, 9240, Note_on_c, 1, 33, 126
3, 9244, Note_on_c, 1, 33, 0
3, 9246, Note_on_c, 1, 33, 126
3, 9250, Note_on_c, 1, 33, 0
3, 9252, Note_on_c, 1, 33, 126
3, 9256, Note_on_c, 1, 33, 0
3, 9258, Note_on_c, 1, 33, 126
3, 9262, Note_on_c, 1, 33, 0
3, 9264, Control_c, 1, 11, 120
3, 9264, Note_on_c, 1, 33, 126
3, 9268, Note_on_c, 1, 33, 0
3, 9270, Note_on_c, 1, 33, 126
3, 9274, Note_on_c, 1, 33, 0
3, 9276, Note_on_c, 1, 33, 126
3, 9280, Note_on_c, 1, 33, 0
3, 9282, Note_on_c, 1, 33, 127
3, 9286, Note_on_c, 1, 33, 0
3, 9288, Note_on_c, 1, 33, 127
3, 9292, Note_on_c, 1, 33, 0
3, 9294, Note_on_c, 1, 33, 127
3, 9298, Note_on_c, 1, 33, 0
3, 9300, Note_on_c, 1, 33, 127
3, 9304, Note_on_c, 1, 33, 0
3, 9306, Note_on_c, 1, 33, 127
3, 9310, Note_on_c, 1, 33, 0
3, 9312, Note_on_c, 1, 34, 127
3, 9352, Note_on_c, 1, 34, 0
3, 9408, Control_c, 1, 11, 115
3, 9504, Note_on_c, 1, 35, 124
3, 9508, Note_on_c, 1, 35, 0
3, 9510, Note_on_c, 1, 35, 124
3, 9514, Note_on_c, 1, 35, 0
3, 9516, Note_on_c, 1, 35, 124
3, 9520, Note_on_c, 1, 35, 0
3, 9522, Note_on_c, 1, 35, 124
3, 9526, Note_on_c, 1, 35, 0
3, 9528, Note_on_c, 1, 35, 126
3, 9532, Note_on_c, 1, 35, 0
3, 9534, Note_on_c, 1, 35, 126
3, 9538, Note_on_c, 1, 35, 0
3, 9540, Note_on_c, 1, 35, 126
3, 9544, Note_on_c, 1, 35, 0
3, 9546, Note_on_c, 1, 35, 126
3, 9550, Note_on_c, 1, 35, 0
3, 9552, Control_c, 1, 11, 120
3, 9552, Note_on_c, 1, 35, 126
3, 9556, Note_on_c, 1, 35, 0
3, 9558, Note_on_c, 1, 35, 126
3, 9562, Note_on_c, 1, 35, 0
3, 9564, Note_on_c, 1, 35, 126
3, 9568, Note_on_c, 1, 35, 0
3, 9570, Note_on_c, 1, 35, 127
3, 9574, Note_on_c, 1, 35, 0
3, 9576, Note_on_c, 1, 35, 127
3, 9580, Note_on_c, 1, 35, 0
3, 9582, Note_on_c, 1, 35, 127
3, 9586, Note_on_c, 1, 35, 0
3, 9588, Note_on_c, 1, 35, 127
3, 9592, Note_on_c, 1, 35, 0
3, 9594, Note_on_c, 1, 35, 127
3, 9598, Note_on_c, 1, 35, 0
3, 9600, Note_on_c, 1, 36, 127
3, 9645, Note_on_c, 1, 36, 0
3, 9792, Control_c, 1, 11, 115
3, 9792, Note_on_c, 1, 37, 124
3, 9796, Note_on_c, 1, 37, 0
3, 9798, Note_on_c, 1, 37, 124
3, 9802, Note_on_c, 1, 37, 0
3, 9804, Note_on_c, 1, 37, 124
3, 9808, Note_on_c, 1, 37, 0
3, 9810, Note_on_c, 1, 37, 124
3, 9814, Note_on_c, 1, 37, 0
3, 9816, Note_on_c, 1, 37, 126
3, 9820, Note_on_c, 1, 37, 0
3, 9822, Note_on_c, 1, 37, 126
3, 9826, Note_on_c, 1, 37, 0
3, 9828, Note_on_c, 1, 37, 126
3, 9832, Note_on_c, 1, 37, 0
3, 9834, Note_on_c, 1, 37, 126
3, 9838, Note_on_c, 1, 37, 0
3, 9840, Control_c, 1, 11, 120
3, 9840, Note_on_c, 1, 37, 126
3, 9844, Note_on_c, 1, 37, 0
3, 9846, Note_on_c, 1, 37, 126
3, 9850, Note_on_c, 1, 37, 0
3, 9852, Note_on_c, 1, 37, 126
3, 9856, Note_on_c, 1, 37, 0
3, 9858, Note_on_c, 1, 37, 127
3, 9862, Note_on_c, 1, 37, 0
3, 9864, Note_on_c, 1, 37, 127
3, 9868, Note_on_c, 1, 37, 0
3, 9870, Note_on_c, 1, 37, 127
3, 9874, Note_on_c, 1, 37, 0
3, 9876, Note_on_c, 1, 37, 127
3, 9880, Note_on_c, 1, 37, 0
3, 9882, Note_on_c, 1, 37, 127
3, 9886, Note_on_c, 1, 37, 0
3, 9888, Note_on_c, 1, 37, 127
3, 9928, Note_on_c, 1, 37, 0
3, 9984, Control_c, 1, 11, 115
3, 9984, Note_on_c, 1, 35, 124
3, 9988, Note_on_c, 1, 35, 0
3, 9990, Note_on_c, 1, 35, 124
3, 9994, Note_on_c, 1, 35, 0
3, 9996, Note_on_c, 1, 35, 124
3, 10000, Note_on_c, 1, 35, 0
3, 10002, Note_on_c, 1, 35, 124
3, 10006, Note_on_c, 1, 35, 0
3, 10008, Note_on_c, 1, 35, 126
3, 10012, Note_on_c, 1, 35, 0
3, 10014, Note_on_c, 1, 35, 126
3, 10018, Note_on_c, 1, 35, 0
3, 10020, Note_on_c, 1, 35, 126
3, 10024, Note_on_c, 1, 35, 0
3, 10026, Note_on_c, 1, 35, 126
3, 10030, Note_on_c, 1, 35, 0
3, 10032, Control_c, 1, 11, 120
3, 10032, Note_on_c, 1, 35, 126
3, 10036, Note_on_c, 1, 35, 0
3, 10038, Note_on_c, 1, 35, 126
3, 10042, Note_on_c, 1, 35, 0
3, 10044, Note_on_c, 1, 35, 126
3, 10048, Note_on_c, 1, 35, 0
3, 10050, Note_on_c, 1, 35, 127
3, 10054, Note_on_c, 1, 35, 0
3, 10056, Note_on_c, 1, 35, 127
3, 10060, Note_on_c, 1, 35, 0
3, 10062, Note_on_c, 1, 35, 127
3, 10066, Note_on_c, 1, 35, 0
3, 10068, Note_on_c, 1, 35, 127
3, 10072, Note_on_c, 1, 35, 0
3, 10074, Note_on_c, 1, 35, 127
3, 10078, Note_on_c, 1, 35, 0
3, 10080, Note_on_c, 1, 33, 127
3, 10120, Note_on_c, 1, 33, 0
3, 10176, Control_c, 1, 11, 115
3, 10176, Note_on_c, 1, 44, 124
3, 10180, Note_on_c, 1, 44, 0
3, 10182, Note_on_c, 1, 44, 124
3, 10186, Note_on_c, 1, 44, 0
3, 10188, Note_on_c, 1, 44, 124
3, 10192, Note_on_c, 1, 44, 0
3, 10194, Note_on_c, 1, 44, 124
3, 10198, Note_on_c, 1, 44, 0
3, 10200, Note_on_c, 1, 44, 126
3, 10204, Note_on_c, 1, 44, 0
3, 10206, Note_on_c, 1, 44, 126
3, 10210, Note_on_c, 1, 44, 0
3, 10212, Note_on_c, 1, 44, 126
3, 10216, Note_on_c, 1, 44, 0
3, 10218, Note_on_c, 1, 44, 126
3, 10222, Note_on_c, 1, 44, 0
3, 10224, Control_c, 1, 11, 120
3, 10224, Note_on_c, 1, 44, 126
3, 10228, Note_on_c, 1, 44, 0
3, 10230, Note_on_c, 1, 44, 126
3, 10234, Note_on_c, 1, 44, 0
3, 10236, Note_on_c, 1, 44, 126
3, 10240, Note_on_c, 1, 44, 0
3, 10242, Note_on_c, 1, 44, 127
3, 10246, Note_on_c, 1, 44, 0
3, 10248, Note_on_c, 1, 44, 127
3, 10252, Note_on_c, 1, 44, 0
3, 10254, Note_on_c, 1, 44, 127
3, 10258, Note_on_c, 1, 44, 0
3, 10260, Note_on_c, 1, 44, 127
3, 10264, Note_on_c, 1, 44, 0
3, 10266, Note_on_c, 1, 44, 127
3, 10270, Note_on_c, 1, 44, 0
3, 10272, Note_on_c, 1, 42, 127
3, 10312, Note_on_c, 1, 42, 0
3, 10368, Control_c, 1, 11, 100
3, 10368, Note_on_c, 1, 40, 126
3, 10373, Note_on_c, 1, 40, 0
3, 10374, Note_on_c, 1, 40, 121
3, 10378, Note_on_c, 1, 40, 0
3, 10380, Note_on_c, 1, 40, 121
3, 10384, Note_on_c, 1, 40, 0
3, 10386, Note_on_c, 1, 40, 122
3, 10390, Note_on_c, 1, 40, 0
3, 10392, Note_on_c, 1, 40, 122
3, 10396, Note_on_c, 1, 40, 0
3, 10398, Note_on_c, 1, 40, 122
3, 10402, Note_on_c, 1, 40, 0
3, 10404, Note_on_c, 1, 40, 122
3, 10408, Note_on_c, 1, 40, 0
3, 10410, Note_on_c, 1, 40, 123
3, 10414, Note_on_c, 1, 40, 0
3, 10416, Control_c, 1, 11, 110
3, 10416, Note_on_c, 1, 37, 123
3, 10420, Note_on_c, 1, 37, 0
3, 10422, Note_on_c, 1, 37, 123
3, 10426, Note_on_c, 1, 37, 0
3, 10428, Note_on_c, 1, 37, 123
3, 10432, Note_on_c, 1, 37, 0
3, 10434, Note_on_c, 1, 37, 123
3, 10438, Note_on_c, 1, 37, 0
3, 10440, Note_on_c, 1, 37, 123
3, 10444, Note_on_c, 1, 37, 0
3, 10446, Note_on_c, 1, 37, 124
3, 10450, Note_on_c, 1, 37, 0
3, 10452, Note_on_c, 1, 37, 124
3, 10456, Note_on_c, 1, 37, 0
3, 10458, Note_on_c, 1, 37, 124
3, 10462, Note_on_c, 1, 37, 0
3, 10464, Control_c, 1, 11, 115
3, 10464, Note_on_c, 1, 32, 124
3, 10468, Note_on_c, 1, 32, 0
3, 10470, Note_on_c, 1, 32, 124
3, 10474, Note_on_c, 1, 32, 0
3, 10476, Note_on_c, 1, 32, 124
3, 10480, Note_on_c, 1, 32, 0
3, 10482, Note_on_c, 1, 32, 124
3, 10486, Note_on_c, 1, 32, 0
3, 10488, Note_on_c, 1, 32, 126
3, 10492, Note_on_c, 1, 32, 0
3, 10494, Note_on_c, 1, 32, 126
3, 10498, Note_on_c, 1, 32, 0
3, 10500, Note_on_c, 1, 32, 126
3, 10504, Note_on_c, 1, 32, 0
3, 10506, Note_on_c, 1, 32, 126
3, 10510, Note_on_c, 1, 32, 0
3, 10512, Control_c, 1, 11, 120
3, 10512, Note_on_c, 1, 32, 126
3, 10516, Note_on_c, 1, 32, 0
3, 10518, Note_on_c, 1, 32, 126
3, 10522, Note_on_c, 1, 32, 0
3, 10524, Note_on_c, 1, 32, 126
3, 10528, Note_on_c, 1, 32, 0
3, 10530, Note_on_c, 1, 32, 127
3, 10534, Note_on_c, 1, 32, 0
3, 10536, Note_on_c, 1, 32, 127
3, 10540, Note_on_c, 1, 32, 0
3, 10542, Note_on_c, 1, 32, 127
3, 10546, Note_on_c, 1, 32, 0
3, 10548, Note_on_c, 1, 32, 127
3, 10552, Note_on_c, 1, 32, 0
3, 10554, Note_on_c, 1, 32, 127
3, 10558, Note_on_c, 1, 32, 0
3, 10560, Control_c, 1, 11, 115
3, 10560, Note_on_c, 1, 32, 124
3, 10564, Note_on_c, 1, 32, 0
3, 10566, Note_on_c, 1, 32, 124
3, 10570, Note_on_c, 1, 32, 0
3, 10572, Note_on_c, 1, 32, 124
3, 10576, Note_on_c, 1, 32, 0
3, 10578, Note_on_c, 1, 32, 124
3, 10582, Note_on_c, 1, 32, 0
3, 10584, Note_on_c, 1, 32, 126
3, 10588, Note_on_c, 1, 32, 0
3, 10590, Note_on_c, 1, 32, 126
3, 10594, Note_on_c, 1, 32, 0
3, 10596, Note_on_c, 1, 32, 126
3, 10600, Note_on_c, 1, 32, 0
3, 10602, Note_on_c, 1, 32, 126
3, 10606, Note_on_c, 1, 32, 0
3, 10608, Control_c, 1, 11, 120
3, 10608, Note_on_c, 1, 32, 126
3, 10612, Note_on_c, 1, 32, 0
3, 10614, Note_on_c, 1, 32, 126
3, 10618, Note_on_c, 1, 32, 0
3, 10620, Note_on_c, 1, 32, 126
3, 10624, Note_on_c, 1, 32, 0
3, 10626, Note_on_c, 1, 32, 127
3, 10630, Note_on_c, 1, 32, 0
3, 10632, Note_on_c, 1, 32, 127
3, 10636, Note_on_c, 1, 32, 0
3, 10638, Note_on_c, 1, 32, 127
3, 10642, Note_on_c, 1, 32, 0
3, 10644, Note_on_c, 1, 32, 127
3, 10648, Note_on_c, 1, 32, 0
3, 10650, Note_on_c, 1, 32, 127
3, 10654, Note_on_c, 1, 32, 0
3, 10656, Note_on_c, 1, 37, 127
3, 10701, Note_on_c, 1, 37, 0
3, 10728, Note_on_c, 1, 37, 121
3, 10748, Note_on_c, 1, 37, 0
3, 10752, Note_on_c, 1, 37, 123
3, 10777, Note_on_c, 1, 37, 0
3, 10800, Note_on_c, 1, 37, 126
3, 10825, Note_on_c, 1, 37, 0
3, 10848, Note_on_c, 1, 37, 123
3, 10873, Note_on_c, 1, 37, 0
3, 10896, Note_on_c, 1, 37, 126
3, 10921, Note_on_c, 1, 37, 0
3, 10944, Note_on_c, 1, 37, 123
3, 10969, Note_on_c, 1, 37, 0
3, 10992, Note_on_c, 1, 37, 126
3, 11017, Note_on_c, 1, 37, 0
3, 11040, Note_on_c, 1, 37, 123
3, 11065, Note_on_c, 1, 37, 0
3, 11088, Note_on_c, 1, 37, 126
3, 11113, Note_on_c, 1, 37, 0
3, 11136, Note_on_c, 1, 37, 121
3, 11181, Note_on_c, 1, 37, 0
3, 11184, Note_on_c, 1, 37, 121
3, 11202, Note_on_c, 1, 37, 0
3, 11208, Note_on_c, 1, 44, 121
3, 11226, Note_on_c, 1, 44, 0
3, 11232, Note_on_c, 1, 49, 124
3, 11250, Note_on_c, 1, 49, 0
3, 11256, Note_on_c, 1, 37, 121
3, 11274, Note_on_c, 1, 37, 0
3, 11280, Note_on_c, 1, 44, 124
3, 11298, Note_on_c, 1, 44, 0
3, 11304, Note_on_c, 1, 32, 121
3, 11322, Note_on_c, 1, 32, 0
3, 11328, Note_on_c, 1, 37, 118
3, 11904, Control_c, 1, 7, 123
3, 11928, Control_c, 1, 7, 122
3, 11952, Control_c, 1, 7, 121
3, 11976, Control_c, 1, 7, 119
3, 12000, Control_c, 1, 7, 118
3, 12024, Control_c, 1, 7, 117
3, 12048, Control_c, 1, 7, 115
3, 12072, Control_c, 1, 7, 113
3, 12670, Note_on_c, 1, 37, 0
3, 12672, Control_c, 1, 7, 123
3, 12672, Note_on_c, 1, 37, 123
3, 12690, Note_on_c, 1, 37, 0
3, 12696, Note_on_c, 1, 37, 121
3, 12714, Note_on_c, 1, 37, 0
3, 12720, Note_on_c, 1, 37, 121
3, 12738, Note_on_c, 1, 37, 0
3, 12744, Note_on_c, 1, 37, 119
3, 12762, Note_on_c, 1, 37, 0
3, 12768, Note_on_c, 1, 42, 123
3, 12786, Note_on_c, 1, 42, 0
3, 12792, Note_on_c, 1, 42, 121
3, 12810, Note_on_c, 1, 42, 0
3, 12816, Note_on_c, 1, 42, 121
3, 12834, Note_on_c, 1, 42, 0
3, 12840, Note_on_c, 1, 42, 119
3, 12858, Note_on_c, 1, 42, 0
3, 12864, Note_on_c, 1, 35, 123
3, 12882, Note_on_c, 1, 35, 0
3, 12888, Note_on_c, 1, 35, 121
3, 12906, Note_on_c, 1, 35, 0
3, 12912, Note_on_c, 1, 35, 121
3, 12930, Note_on_c, 1, 35, 0
3, 12936, Note_on_c, 1, 35, 119
3, 12954, Note_on_c, 1, 35, 0
3, 12960, Note_on_c, 1, 40, 123
3, 12978, Note_on_c, 1, 40, 0
3, 12984, Note_on_c, 1, 40, 121
3, 13002, Note_on_c, 1, 40, 0
3, 13008, Note_on_c, 1, 40, 121
3, 13026, Note_on_c, 1, 40, 0
3, 13032, Note_on_c, 1, 35, 119
3, 13050, Note_on_c, 1, 35, 0
3, 13056, Note_on_c, 1, 40, 123
3, 13074, Note_on_c, 1, 40, 0
3, 13080, Note_on_c, 1, 40, 121
3, 13098, Note_on_c, 1, 40, 0
3, 13104, Note_on_c, 1, 40, 121
3, 13122, Note_on_c, 1, 40, 0
3, 13128, Note_on_c, 1, 35, 119
3, 13146, Note_on_c, 1, 35, 0
3, 13152, Note_on_c, 1, 40, 123
3, 13170, Note_on_c, 1, 40, 0
3, 13176, Note_on_c, 1, 40, 121
3, 13194, Note_on_c, 1, 40, 0
3, 13200, Note_on_c, 1, 40, 121
3, 13218, Note_on_c, 1, 40, 0
3, 13224, Note_on_c, 1, 35, 119
3, 13242, Note_on_c, 1, 35, 0
3, 13248, Note_on_c, 1, 40, 123
3, 13266, Note_on_c, 1, 40, 0
3, 13272, Note_on_c, 1, 40, 121
3, 13290, Note_on_c, 1, 40, 0
3, 13296, Note_on_c, 1, 40, 121
3, 13314, Note_on_c, 1, 40, 0
3, 13320, Note_on_c, 1, 35, 119
3, 13338, Note_on_c, 1, 35, 0
3, 13344, Note_on_c, 1, 40, 123
3, 13362, Note_on_c, 1, 40, 0
3, 13368, Note_on_c, 1, 40, 121
3, 13386, Note_on_c, 1, 40, 0
3, 13392, Note_on_c, 1, 40, 121
3, 13410, Note_on_c, 1, 40, 0
3, 13416, Note_on_c, 1, 35, 119
3, 13434, Note_on_c, 1, 35, 0
3, 13440, Note_on_c, 1, 40, 123
3, 13458, Note_on_c, 1, 40, 0
3, 13464, Note_on_c, 1, 40, 121
3, 13482, Note_on_c, 1, 40, 0
3, 13488, Note_on_c, 1, 40, 121
3, 13506, Note_on_c, 1, 40, 0
3, 13512, Note_on_c, 1, 35, 119
3, 13530, Note_on_c, 1, 35, 0
3, 13536, Control_c, 1, 7, 121
3, 13536, Note_on_c, 1, 35, 123
3, 13626, Note_on_c, 1, 35, 0
3, 13632, Note_on_c, 1, 35, 121
3, 13915, Note_on_c, 1, 35, 0
3, 13920, Note_on_c, 1, 40, 121
3, 13960, Note_on_c, 1, 40, 0
3, 13968, Note_on_c, 1, 40, 121
3, 14008, Note_on_c, 1, 40, 0
3, 14016, Note_on_c, 1, 42, 121
3, 14061, Note_on_c, 1, 42, 0
3, 14064, Note_on_c, 1, 42, 121
3, 14109, Note_on_c, 1, 42, 0
3, 14112, Note_on_c, 1, 44, 121
3, 14157, Note_on_c, 1, 44, 0
3, 14160, Note_on_c, 1, 44, 121
3, 14205, Note_on_c, 1, 44, 0
3, 14208, Note_on_c, 1, 45, 121
3, 14248, Note_on_c, 1, 45, 0
3, 14256, Note_on_c, 1, 44, 121
3, 14276, Note_on_c, 1, 44, 0
3, 14280, Note_on_c, 1, 42, 121
3, 14300, Note_on_c, 1, 42, 0
3, 14304, Note_on_c, 1, 40, 121
3, 14344, Note_on_c, 1, 40, 0
3, 14400, Note_on_c, 1, 40, 121
3, 14440, Note_on_c, 1, 40, 0
3, 14496, Note_on_c, 1, 40, 121
3, 14536, Note_on_c, 1, 40, 0
3, 14544, Note_on_c, 1, 35, 121
3, 14584, Note_on_c, 1, 35, 0
3, 14592, Control_c, 1, 7, 121
3, 14592, Note_on_c, 1, 40, 123
3, 14617, Note_on_c, 1, 40, 0
3, 14640, Note_on_c, 1, 40, 126
3, 14665, Note_on_c, 1, 40, 0
3, 14688, Note_on_c, 1, 40, 123
3, 14713, Note_on_c, 1, 40, 0
3, 14736, Note_on_c, 1, 40, 126
3, 14761, Note_on_c, 1, 40, 0
3, 14784, Note_on_c, 1, 40, 123
3, 14809, Note_on_c, 1, 40, 0
3, 14832, Note_on_c, 1, 40, 126
3, 14857, Note_on_c, 1, 40, 0
3, 14880, Note_on_c, 1, 40, 123
3, 14905, Note_on_c, 1, 40, 0
3, 14928, Note_on_c, 1, 40, 126
3, 14953, Note_on_c, 1, 40, 0
3, 14976, Note_on_c, 1, 40, 121
3, 15021, Note_on_c, 1, 40, 0
3, 15024, Note_on_c, 1, 40, 121
3, 15042, Note_on_c, 1, 40, 0
3, 15048, Note_on_c, 1, 35, 121
3, 15066, Note_on_c, 1, 35, 0
3, 15072, Note_on_c, 1, 40, 124
3, 15090, Note_on_c, 1, 40, 0
3, 15096, Note_on_c, 1, 28, 121
3, 15114, Note_on_c, 1, 28, 0
3, 15120, Note_on_c, 1, 47, 124
3, 15138, Note_on_c, 1, 47, 0
3, 15144, Note_on_c, 1, 35, 121
3, 15162, Note_on_c, 1, 35, 0
3, 15168, Note_on_c, 1, 28, 121
3, 15198, Note_on_c, 1, 28, 0
3, 15240, Note_on_c, 1, 40, 108
3, 15260, Note_on_c, 1, 40, 0
3, 15264, Note_on_c, 1, 40, 108
3, 15294, Note_on_c, 1, 40, 0
3, 15312, Note_on_c, 1, 40, 108
3, 15342, Note_on_c, 1, 40, 0
3, 15360, Note_on_c, 1, 40, 108
3, 15390, Note_on_c, 1, 40, 0
3, 15408, Note_on_c, 1, 40, 108
3, 15438, Note_on_c, 1, 40, 0
3, 15456, Note_on_c, 1, 40, 108
3, 15486, Note_on_c, 1, 40, 0
3, 15504, Note_on_c, 1, 40, 108
3, 15534, Note_on_c, 1, 40, 0
3, 15552, Note_on_c, 1, 40, 108
3, 15582, Note_on_c, 1, 40, 0
3, 15600, Note_on_c, 1, 40, 108
3, 15630, Note_on_c, 1, 40, 0
3, 15648, Note_on_c, 1, 40, 108
3, 15678, Note_on_c, 1, 40, 0
3, 15696, Note_on_c, 1, 40, 108
3, 15714, Note_on_c, 1, 40, 0
3, 15720, Note_on_c, 1, 35, 108
3, 15738, Note_on_c, 1, 35, 0
3, 15744, Note_on_c, 1, 40, 108
3, 15762, Note_on_c, 1, 40, 0
3, 15768, Note_on_c, 1, 28, 108
3, 15786, Note_on_c, 1, 28, 0
3, 15792, Note_on_c, 1, 47, 108
3, 15810, Note_on_c, 1, 47, 0
3, 15816, Note_on_c, 1, 35, 108
3, 15834, Note_on_c, 1, 35, 0
3, 15840, Note_on_c, 1, 28, 108
3, 16088, Note_on_c, 1, 28, 0
3, 16128, Control_c, 1, 7, 120
3, 16128, End_track
4, 0, Start_track
4, 0, Title_t, "WinJammer Demo"
4, 0, Instrument_name_t, "Str Sect"
4, 0, MIDI_port, 0
4, 0, Pitch_bend_c, 2, 8192
4, 0, Control_c, 2, 64, 0
4, 0, Control_c, 2, 10, 64
4, 0, Control_c, 2, 7, 121
4, 0, Control_c, 2, 11, 110
4, 0, Control_c, 2, 1, 50
4, 0, Program_c, 2, 48
4, 168, Control_c, 2, 7, 115
4, 168, Note_on_c, 2, 64, 117
4, 168, Note_on_c, 2, 76, 123
4, 171, Control_c, 2, 7, 118
4, 174, Control_c, 2, 7, 121
4, 177, Control_c, 2, 7, 123
4, 183, Note_on_c, 2, 64, 0
4, 183, Note_on_c, 2, 76, 0
4, 192, Control_c, 2, 7, 115
4, 192, Note_on_c, 2, 80, 121
4, 195, Control_c, 2, 7, 118
4, 198, Control_c, 2, 7, 121
4, 204, Control_c, 2, 7, 123
4, 207, Note_on_c, 2, 80, 0
4, 216, Control_c, 2, 7, 115
4, 216, Note_on_c, 2, 80, 123
4, 219, Control_c, 2, 7, 118
4, 222, Control_c, 2, 7, 121
4, 228, Control_c, 2, 7, 123
4, 231, Note_on_c, 2, 80, 0
4, 240, Control_c, 2, 7, 115
4, 240, Note_on_c, 2, 80, 121
4, 243, Control_c, 2, 7, 118
4, 246, Control_c, 2, 7, 121
4, 252, Control_c, 2, 7, 123
4, 260, Note_on_c, 2, 80, 0
4, 264, Note_on_c, 2, 78, 121
4, 274, Note_on_c, 2, 78, 0
4, 276, Note_on_c, 2, 76, 123
4, 286, Note_on_c, 2, 76, 0
4, 288, Control_c, 2, 7, 115
4, 288, Pitch_bend_c, 2, 7542
4, 288, Note_on_c, 2, 83, 122
4, 289, Pitch_bend_c, 2, 7792
4, 290, Pitch_bend_c, 2, 7992
4, 291, Pitch_bend_c, 2, 8192
4, 300, Control_c, 2, 1, 50
4, 300, Control_c, 2, 7, 118
4, 300, Control_c, 2, 1, 100
4, 312, Control_c, 2, 7, 121
4, 324, Control_c, 2, 7, 123
4, 336, Control_c, 2, 7, 124
4, 356, Note_on_c, 2, 83, 0
4, 360, Control_c, 2, 7, 115
4, 360, Note_on_c, 2, 83, 126
4, 362, Control_c, 2, 7, 118
4, 364, Control_c, 2, 7, 119
4, 368, Note_on_c, 2, 83, 0
4, 368, Control_c, 2, 7, 121
4, 372, Note_on_c, 2, 81, 123
4, 380, Note_on_c, 2, 81, 0
4, 384, Control_c, 2, 7, 115
4, 384, Note_on_c, 2, 80, 121
4, 387, Control_c, 2, 7, 118
4, 390, Control_c, 2, 7, 121
4, 396, Control_c, 2, 7, 123
4, 401, Note_on_c, 2, 80, 0
4, 408, Control_c, 2, 7, 115
4, 408, Note_on_c, 2, 80, 123
4, 411, Control_c, 2, 7, 118
4, 414, Control_c, 2, 7, 121
4, 420, Control_c, 2, 7, 123
4, 425, Note_on_c, 2, 80, 0
4, 432, Control_c, 2, 7, 115
4, 432, Note_on_c, 2, 80, 122
4, 435, Control_c, 2, 7, 118
4, 438, Control_c, 2, 7, 121
4, 444, Control_c, 2, 7, 123
4, 452, Note_on_c, 2, 80, 0
4, 456, Note_on_c, 2, 78, 121
4, 466, Note_on_c, 2, 78, 0
4, 468, Note_on_c, 2, 76, 123
4, 478, Note_on_c, 2, 76, 0
4, 480, Control_c, 2, 7, 115
4, 480, Pitch_bend_c, 2, 7542
4, 480, Note_on_c, 2, 83, 121
4, 481, Pitch_bend_c, 2, 7792
4, 482, Pitch_bend_c, 2, 7992
4, 483, Pitch_bend_c, 2, 8192
4, 492, Control_c, 2, 7, 118
4, 492, Control_c, 2, 1, 100
4, 504, Control_c, 2, 7, 121
4, 516, Control_c, 2, 7, 123
4, 528, Control_c, 2, 7, 123
4, 548, Note_on_c, 2, 83, 0
4, 552, Control_c, 2, 1, 50
4, 552, Control_c, 2, 7, 115
4, 552, Note_on_c, 2, 83, 126
4, 554, Control_c, 2, 7, 118
4, 556, Control_c, 2, 7, 119
4, 560, Control_c, 2, 7, 121
4, 562, Note_on_c, 2, 83, 0
4, 564, Note_on_c, 2, 81, 123
4, 574, Note_on_c, 2, 81, 0
4, 576, Control_c, 2, 7, 115
4, 576, Note_on_c, 2, 68, 117
4, 576, Note_on_c, 2, 80, 123
4, 579, Control_c, 2, 7, 118
4, 582, Control_c, 2, 7, 121
4, 588, Control_c, 2, 7, 123
4, 591, Note_on_c, 2, 68, 0
4, 591, Note_on_c, 2, 80, 0
4, 600, Control_c, 2, 7, 115
4, 600, Note_on_c, 2, 81, 126
4, 603, Control_c, 2, 7, 118
4, 606, Control_c, 2, 7, 121
4, 609, Control_c, 2, 7, 123
4, 610, Note_on_c, 2, 81, 0
4, 612, Note_on_c, 2, 83, 126
4, 622, Note_on_c, 2, 83, 0
4, 624, Control_c, 2, 7, 115
4, 624, Note_on_c, 2, 81, 126
4, 627, Control_c, 2, 7, 118
4, 630, Control_c, 2, 7, 121
4, 636, Control_c, 2, 7, 123
4, 642, Note_on_c, 2, 81, 0
4, 648, Control_c, 2, 7, 115
4, 648, Note_on_c, 2, 80, 123
4, 651, Control_c, 2, 7, 118
4, 654, Control_c, 2, 7, 121
4, 660, Control_c, 2, 7, 123
4, 668, Note_on_c, 2, 80, 0
4, 672, Control_c, 2, 7, 115
4, 672, Note_on_c, 2, 78, 121
4, 675, Control_c, 2, 7, 118
4, 678, Control_c, 2, 7, 121
4, 684, Control_c, 2, 7, 123
4, 687, Note_on_c, 2, 78, 0
4, 696, Control_c, 2, 7, 115
4, 696, Note_on_c, 2, 75, 119
4, 699, Control_c, 2, 7, 118
4, 702, Control_c, 2, 7, 121
4, 708, Control_c, 2, 7, 123
4, 711, Note_on_c, 2, 75, 0
4, 720, Control_c, 2, 7, 115
4, 720, Note_on_c, 2, 71, 118
4, 735, Note_on_c, 2, 71, 0
4, 744, Note_on_c, 2, 76, 112
4, 764, Note_on_c, 2, 76, 0
4, 768, Control_c, 2, 7, 115
4, 768, Note_on_c, 2, 80, 108
4, 771, Control_c, 2, 7, 118
4, 774, Control_c, 2, 7, 121
4, 780, Control_c, 2, 7, 123
4, 783, Note_on_c, 2, 80, 0
4, 792, Control_c, 2, 7, 115
4, 792, Note_on_c, 2, 80, 112
4, 795, Control_c, 2, 7, 118
4, 798, Control_c, 2, 7, 121
4, 804, Control_c, 2, 7, 123
4, 807, Note_on_c, 2, 80, 0
4, 816, Control_c, 2, 7, 115
4, 816, Note_on_c, 2, 80, 115
4, 819, Control_c, 2, 7, 118
4, 822, Control_c, 2, 7, 121
4, 828, Control_c, 2, 7, 123
4, 836, Note_on_c, 2, 80, 0
4, 840, Note_on_c, 2, 78, 108
4, 850, Note_on_c, 2, 78, 0
4, 852, Note_on_c, 2, 76, 112
4, 862, Note_on_c, 2, 76, 0
4, 864, Control_c, 2, 7, 115
4, 864, Note_on_c, 2, 83, 115
4, 876, Control_c, 2, 7, 118
4, 876, Control_c, 2, 1, 100
4, 888, Control_c, 2, 7, 121
4, 900, Control_c, 2, 7, 123
4, 932, Note_on_c, 2, 83, 0
4, 936, Control_c, 2, 1, 50
4, 936, Control_c, 2, 7, 115
4, 936, Note_on_c, 2, 83, 115
4, 938, Control_c, 2, 7, 118
4, 940, Control_c, 2, 7, 119
4, 944, Control_c, 2, 7, 121
4, 946, Note_on_c, 2, 83, 0
4, 948, Note_on_c, 2, 81, 112
4, 958, Note_on_c, 2, 81, 0
4, 960, Control_c, 2, 7, 115
4, 960, Note_on_c, 2, 80, 108
4, 963, Control_c, 2, 7, 118
4, 966, Control_c, 2, 7, 121
4, 972, Control_c, 2, 7, 123
4, 975, Note_on_c, 2, 80, 0
4, 984, Control_c, 2, 7, 115
4, 984, Note_on_c, 2, 80, 112
4, 987, Control_c, 2, 7, 118
4, 990, Control_c, 2, 7, 121
4, 996, Control_c, 2, 7, 123
4, 999, Note_on_c, 2, 80, 0
4, 1008, Control_c, 2, 7, 115
4, 1008, Note_on_c, 2, 80, 115
4, 1011, Control_c, 2, 7, 118
4, 1014, Control_c, 2, 7, 121
4, 1020, Control_c, 2, 7, 123
4, 1028, Note_on_c, 2, 80, 0
4, 1032, Note_on_c, 2, 78, 108
4, 1042, Note_on_c, 2, 78, 0
4, 1044, Note_on_c, 2, 76, 112
4, 1054, Note_on_c, 2, 76, 0
4, 1056, Control_c, 2, 7, 115
4, 1056, Note_on_c, 2, 83, 115
4, 1068, Control_c, 2, 1, 100
4, 1080, Control_c, 2, 7, 118
4, 1092, Control_c, 2, 7, 121
4, 1104, Control_c, 2, 7, 123
4, 1124, Note_on_c, 2, 83, 0
4, 1128, Control_c, 2, 1, 50
4, 1128, Control_c, 2, 7, 115
4, 1128, Note_on_c, 2, 83, 115
4, 1130, Control_c, 2, 7, 118
4, 1132, Control_c, 2, 7, 119
4, 1136, Control_c, 2, 7, 121
4, 1138, Note_on_c, 2, 83, 0
4, 1140, Note_on_c, 2, 81, 112
4, 1150, Note_on_c, 2, 81, 0
4, 1152, Control_c, 2, 7, 115
4, 1152, Note_on_c, 2, 80, 112
4, 1155, Control_c, 2, 7, 118
4, 1158, Control_c, 2, 7, 121
4, 1164, Control_c, 2, 7, 123
4, 1169, Note_on_c, 2, 80, 0
4, 1176, Note_on_c, 2, 81, 115
4, 1186, Note_on_c, 2, 81, 0
4, 1188, Note_on_c, 2, 83, 117
4, 1198, Note_on_c, 2, 83, 0
4, 1200, Control_c, 2, 7, 115
4, 1200, Note_on_c, 2, 81, 115
4, 1203, Control_c, 2, 7, 118
4, 1206, Control_c, 2, 7, 121
4, 1212, Control_c, 2, 7, 123
4, 1220, Note_on_c, 2, 81, 0
4, 1224, Note_on_c, 2, 80, 112
4, 1244, Note_on_c, 2, 80, 0
4, 1248, Control_c, 2, 7, 115
4, 1248, Note_on_c, 2, 78, 108
4, 1254, Control_c, 2, 7, 118
4, 1260, Control_c, 2, 7, 121
4, 1266, Control_c, 2, 7, 123
4, 1293, Note_on_c, 2, 78, 0
4, 1320, Control_c, 2, 7, 115
4, 1320, Pitch_bend_c, 2, 7542
4, 1320, Note_on_c, 2, 64, 117
4, 1320, Note_on_c, 2, 76, 121
4, 1321, Pitch_bend_c, 2, 7792
4, 1322, Pitch_bend_c, 2, 7992
4, 1323, Pitch_bend_c, 2, 8192
4, 1323, Control_c, 2, 7, 118
4, 1326, Control_c, 2, 7, 121
4, 1332, Control_c, 2, 7, 123
4, 1340, Note_on_c, 2, 64, 0
4, 1340, Note_on_c, 2, 76, 0
4, 1344, Control_c, 2, 7, 115
4, 1344, Note_on_c, 2, 71, 117
4, 1344, Note_on_c, 2, 83, 121
4, 1347, Control_c, 2, 7, 118
4, 1350, Control_c, 2, 7, 121
4, 1356, Control_c, 2, 7, 123
4, 1359, Note_on_c, 2, 71, 0
4, 1359, Note_on_c, 2, 83, 0
4, 1368, Note_on_c, 2, 81, 123
4, 1378, Note_on_c, 2, 81, 0
4, 1380, Note_on_c, 2, 80, 122
4, 1390, Note_on_c, 2, 80, 0
4, 1392, Control_c, 2, 7, 115
4, 1392, Note_on_c, 2, 81, 123
4, 1395, Control_c, 2, 7, 118
4, 1398, Control_c, 2, 7, 121
4, 1404, Control_c, 2, 7, 123
4, 1412, Note_on_c, 2, 81, 0
4, 1416, Control_c, 2, 7, 115
4, 1416, Note_on_c, 2, 83, 122
4, 1419, Control_c, 2, 7, 118
4, 1422, Control_c, 2, 7, 121
4, 1428, Control_c, 2, 7, 123
4, 1436, Note_on_c, 2, 83, 0
4, 1440, Control_c, 2, 7, 115
4, 1440, Pitch_bend_c, 2, 7542
4, 1440, Note_on_c, 2, 85, 123
4, 1441, Pitch_bend_c, 2, 7792
4, 1442, Pitch_bend_c, 2, 7992
4, 1443, Pitch_bend_c, 2, 8192
4, 1443, Control_c, 2, 7, 118
4, 1446, Control_c, 2, 7, 121
4, 1452, Control_c, 2, 7, 123
4, 1462, Note_on_c, 2, 85, 0
4, 1464, Control_c, 2, 7, 115
4, 1464, Note_on_c, 2, 83, 124
4, 1470, Control_c, 2, 7, 118
4, 1476, Control_c, 2, 7, 121
4, 1482, Control_c, 2, 7, 123
4, 1509, Note_on_c, 2, 83, 0
4, 1512, Control_c, 2, 7, 115
4, 1512, Note_on_c, 2, 76, 124
4, 1515, Control_c, 2, 7, 118
4, 1518, Control_c, 2, 7, 121
4, 1524, Control_c, 2, 7, 123
4, 1532, Note_on_c, 2, 76, 0
4, 1536, Control_c, 2, 7, 115
4, 1536, Note_on_c, 2, 83, 121
4, 1539, Control_c, 2, 7, 118
4, 1542, Control_c, 2, 7, 121
4, 1548, Control_c, 2, 7, 123
4, 1553, Note_on_c, 2, 83, 0
4, 1560, Note_on_c, 2, 81, 123
4, 1570, Note_on_c, 2, 81, 0
4, 1572, Note_on_c, 2, 80, 122
4, 1582, Note_on_c, 2, 80, 0
4, 1584, Control_c, 2, 7, 115
4, 1584, Note_on_c, 2, 81, 123
4, 1587, Control_c, 2, 7, 118
4, 1590, Control_c, 2, 7, 121
4, 1596, Control_c, 2, 7, 123
4, 1604, Note_on_c, 2, 81, 0
4, 1608, Control_c, 2, 7, 115
4, 1608, Note_on_c, 2, 83, 126
4, 1611, Control_c, 2, 7, 118
4, 1614, Control_c, 2, 7, 121
4, 1620, Control_c, 2, 7, 123
4, 1628, Note_on_c, 2, 83, 0
4, 1632, Control_c, 2, 7, 115
4, 1632, Note_on_c, 2, 85, 123
4, 1635, Control_c, 2, 7, 118
4, 1638, Control_c, 2, 7, 121
4, 1644, Control_c, 2, 7, 123
4, 1652, Note_on_c, 2, 85, 0
4, 1656, Control_c, 2, 7, 115
4, 1656, Note_on_c, 2, 83, 126
4, 1662, Control_c, 2, 7, 118
4, 1668, Control_c, 2, 7, 121
4, 1674, Control_c, 2, 7, 123
4, 1701, Note_on_c, 2, 83, 0
4, 1704, Control_c, 2, 7, 115
4, 1704, Note_on_c, 2, 76, 126
4, 1707, Control_c, 2, 7, 118
4, 1710, Control_c, 2, 7, 121
4, 1716, Control_c, 2, 7, 123
4, 1724, Note_on_c, 2, 76, 0
4, 1728, Control_c, 2, 7, 115
4, 1728, Pitch_bend_c, 2, 7542
4, 1728, Note_on_c, 2, 85, 124
4, 1729, Pitch_bend_c, 2, 7792
4, 1730, Pitch_bend_c, 2, 7992
4, 1731, Pitch_bend_c, 2, 8192
4, 1731, Control_c, 2, 7, 118
4, 1734, Control_c, 2, 7, 121
4, 1740, Control_c, 2, 7, 123
4, 1748, Note_on_c, 2, 85, 0
4, 1752, Control_c, 2, 7, 115
4, 1752, Note_on_c, 2, 83, 126
4, 1758, Control_c, 2, 7, 118
4, 1764, Control_c, 2, 7, 121
4, 1770, Control_c, 2, 7, 123
4, 1797, Note_on_c, 2, 83, 0
4, 1800, Note_on_c, 2, 81, 124
4, 1820, Note_on_c, 2, 81, 0
4, 1824, Note_on_c, 2, 80, 123
4, 1844, Note_on_c, 2, 80, 0
4, 1848, Note_on_c, 2, 78, 122
4, 1858, Note_on_c, 2, 78, 0
4, 1860, Note_on_c, 2, 76, 121
4, 1870, Note_on_c, 2, 76, 0
4, 1872, Note_on_c, 2, 78, 126
4, 1878, Note_on_c, 2, 78, 0
4, 1878, Note_on_c, 2, 80, 121
4, 1884, Note_on_c, 2, 80, 0
4, 1884, Note_on_c, 2, 78, 118
4, 1890, Note_on_c, 2, 78, 0
4, 1890, Note_on_c, 2, 80, 115
4, 1896, Note_on_c, 2, 80, 0
4, 1896, Note_on_c, 2, 78, 112
4, 1902, Note_on_c, 2, 78, 0
4, 1902, Note_on_c, 2, 80, 108
4, 1908, Note_on_c, 2, 80, 0
4, 1908, Note_on_c, 2, 78, 103
4, 1914, Note_on_c, 2, 78, 0
4, 1914, Note_on_c, 2, 80, 103
4, 1920, Note_on_c, 2, 80, 0
4, 1920, Control_c, 2, 7, 115
4, 1920, Note_on_c, 2, 76, 121
4, 1926, Control_c, 2, 7, 118
4, 1932, Control_c, 2, 7, 121
4, 1938, Control_c, 2, 7, 123
4, 1965, Note_on_c, 2, 76, 0
4, 1992, Control_c, 2, 7, 115
4, 1992, Note_on_c, 2, 76, 115
4, 1995, Control_c, 2, 7, 118
4, 1998, Control_c, 2, 7, 121
4, 2004, Control_c, 2, 7, 121
4, 2007, Note_on_c, 2, 76, 0
4, 2016, Control_c, 2, 7, 115
4, 2016, Note_on_c, 2, 83, 115
4, 2019, Control_c, 2, 7, 118
4, 2022, Control_c, 2, 7, 121
4, 2028, Control_c, 2, 7, 123
4, 2031, Note_on_c, 2, 83, 0
4, 2040, Note_on_c, 2, 81, 112
4, 2050, Note_on_c, 2, 81, 0
4, 2052, Note_on_c, 2, 80, 110
4, 2062, Note_on_c, 2, 80, 0
4, 2064, Control_c, 2, 7, 115
4, 2064, Note_on_c, 2, 81, 112
4, 2067, Control_c, 2, 7, 118
4, 2070, Control_c, 2, 7, 121
4, 2076, Control_c, 2, 7, 123
4, 2084, Note_on_c, 2, 81, 0
4, 2088, Control_c, 2, 7, 115
4, 2088, Note_on_c, 2, 83, 115
4, 2091, Control_c, 2, 7, 118
4, 2094, Control_c, 2, 7, 121
4, 2100, Control_c, 2, 7, 123
4, 2108, Note_on_c, 2, 83, 0
4, 2112, Control_c, 2, 7, 115
4, 2112, Note_on_c, 2, 85, 117
4, 2115, Control_c, 2, 7, 118
4, 2118, Control_c, 2, 7, 121
4, 2124, Control_c, 2, 7, 123
4, 2132, Note_on_c, 2, 85, 0
4, 2136, Control_c, 2, 7, 115
4, 2136, Note_on_c, 2, 83, 115
4, 2142, Control_c, 2, 7, 118
4, 2148, Control_c, 2, 7, 121
4, 2154, Control_c, 2, 7, 123
4, 2181, Note_on_c, 2, 83, 0
4, 2184, Control_c, 2, 7, 115
4, 2184, Note_on_c, 2, 76, 112
4, 2187, Control_c, 2, 7, 118
4, 2190, Control_c, 2, 7, 121
4, 2196, Control_c, 2, 7, 123
4, 2204, Note_on_c, 2, 76, 0
4, 2208, Control_c, 2, 7, 115
4, 2208, Note_on_c, 2, 83, 115
4, 2211, Control_c, 2, 7, 118
4, 2214, Control_c, 2, 7, 121
4, 2220, Control_c, 2, 7, 123
4, 2226, Note_on_c, 2, 83, 0
4, 2232, Note_on_c, 2, 81, 112
4, 2242, Note_on_c, 2, 81, 0
4, 2244, Note_on_c, 2, 80, 110
4, 2254, Note_on_c, 2, 80, 0
4, 2256, Control_c, 2, 7, 115
4, 2256, Note_on_c, 2, 81, 112
4, 2259, Control_c, 2, 7, 118
4, 2262, Control_c, 2, 7, 121
4, 2268, Control_c, 2, 7, 123
4, 2276, Note_on_c, 2, 81, 0
4, 2280, Control_c, 2, 7, 115
4, 2280, Note_on_c, 2, 83, 115
4, 2283, Control_c, 2, 7, 118
4, 2286, Control_c, 2, 7, 121
4, 2292, Control_c, 2, 7, 121
4, 2300, Note_on_c, 2, 83, 0
4, 2304, Control_c, 2, 7, 115
4, 2304, Note_on_c, 2, 85, 117
4, 2307, Control_c, 2, 7, 118
4, 2310, Control_c, 2, 7, 121
4, 2316, Control_c, 2, 7, 123
4, 2324, Note_on_c, 2, 85, 0
4, 2328, Control_c, 2, 7, 115
4, 2328, Note_on_c, 2, 83, 115
4, 2334, Control_c, 2, 7, 118
4, 2340, Control_c, 2, 7, 121
4, 2346, Control_c, 2, 7, 123
4, 2373, Note_on_c, 2, 83, 0
4, 2376, Control_c, 2, 7, 115
4, 2376, Note_on_c, 2, 76, 112
4, 2379, Control_c, 2, 7, 118
4, 2382, Control_c, 2, 7, 121
4, 2388, Control_c, 2, 7, 123
4, 2396, Note_on_c, 2, 76, 0
4, 2400, Control_c, 2, 7, 115
4, 2400, Note_on_c, 2, 85, 117
4, 2403, Control_c, 2, 7, 118
4, 2406, Control_c, 2, 7, 121
4, 2412, Control_c, 2, 7, 123
4, 2420, Note_on_c, 2, 85, 0
4, 2424, Control_c, 2, 7, 115
4, 2424, Note_on_c, 2, 83, 115
4, 2430, Control_c, 2, 7, 118
4, 2436, Control_c, 2, 7, 121
4, 2442, Control_c, 2, 7, 123
4, 2469, Note_on_c, 2, 83, 0
4, 2472, Control_c, 2, 7, 115
4, 2472, Note_on_c, 2, 81, 112
4, 2475, Control_c, 2, 7, 118
4, 2478, Control_c, 2, 7, 121
4, 2484, Control_c, 2, 7, 123
4, 2492, Note_on_c, 2, 81, 0
4, 2496, Control_c, 2, 7, 115
4, 2496, Note_on_c, 2, 80, 115
4, 2499, Control_c, 2, 7, 118
4, 2502, Control_c, 2, 7, 121
4, 2508, Control_c, 2, 7, 123
4, 2516, Note_on_c, 2, 80, 0
4, 2520, Note_on_c, 2, 78, 113
4, 2530, Note_on_c, 2, 78, 0
4, 2532, Note_on_c, 2, 76, 112
4, 2542, Note_on_c, 2, 76, 0
4, 2544, Note_on_c, 2, 78, 121
4, 2550, Note_on_c, 2, 78, 0
4, 2550, Note_on_c, 2, 80, 115
4, 2556, Note_on_c, 2, 80, 0
4, 2556, Note_on_c, 2, 78, 112
4, 2562, Note_on_c, 2, 78, 0
4, 2562, Note_on_c, 2, 80, 108
4, 2568, Note_on_c, 2, 80, 0
4, 2568, Note_on_c, 2, 78, 103
4, 2574, Note_on_c, 2, 78, 0
4, 2574, Note_on_c, 2, 80, 97
4, 2580, Note_on_c, 2, 80, 0
4, 2580, Note_on_c, 2, 78, 90
4, 2586, Note_on_c, 2, 78, 0
4, 2586, Note_on_c, 2, 80, 90
4, 2592, Note_on_c, 2, 80, 0
4, 2592, Control_c, 2, 1, 120
4, 2592, Control_c, 2, 11, 127
4, 2592, Control_c, 2, 7, 115
4, 2592, Pitch_bend_c, 2, 7542
4, 2592, Note_on_c, 2, 76, 90
4, 2592, Note_on_c, 2, 83, 108
4, 2593, Pitch_bend_c, 2, 7792
4, 2594, Pitch_bend_c, 2, 8192
4, 2598, Control_c, 2, 7, 118
4, 2604, Control_c, 2, 7, 119
4, 2610, Control_c, 2, 7, 124
4, 2637, Note_on_c, 2, 76, 0
4, 2637, Note_on_c, 2, 83, 0
4, 2640, Control_c, 2, 7, 108
4, 2640, Note_on_c, 2, 83, 108
4, 2646, Control_c, 2, 7, 118
4, 2652, Control_c, 2, 7, 119
4, 2658, Control_c, 2, 7, 124
4, 2685, Note_on_c, 2, 83, 0
4, 2688, Control_c, 2, 7, 108
4, 2688, Note_on_c, 2, 83, 105
4, 2694, Control_c, 2, 7, 118
4, 2700, Control_c, 2, 7, 119
4, 2706, Control_c, 2, 7, 124
4, 2733, Note_on_c, 2, 83, 0
4, 2736, Control_c, 2, 7, 108
4, 2736, Note_on_c, 2, 83, 105
4, 2742, Control_c, 2, 7, 118
4, 2748, Control_c, 2, 7, 119
4, 2754, Control_c, 2, 7, 124
4, 2781, Note_on_c, 2, 83, 0
4, 2784, Control_c, 2, 7, 108
4, 2784, Note_on_c, 2, 83, 105
4, 2790, Control_c, 2, 7, 118
4, 2796, Control_c, 2, 7, 119
4, 2802, Control_c, 2, 7, 124
4, 2829, Note_on_c, 2, 83, 0
4, 2832, Control_c, 2, 7, 108
4, 2832, Note_on_c, 2, 83, 105
4, 2838, Control_c, 2, 7, 118
4, 2844, Control_c, 2, 7, 119
4, 2850, Control_c, 2, 7, 124
4, 2877, Note_on_c, 2, 83, 0
4, 2880, Control_c, 2, 7, 121
4, 2880, Control_c, 2, 1, 50
4, 2880, Note_on_c, 2, 83, 110
4, 2900, Note_on_c, 2, 83, 0
4, 2904, Note_on_c, 2, 83, 113
4, 2924, Note_on_c, 2, 83, 0
4, 2928, Note_on_c, 2, 83, 110
4, 2948, Note_on_c, 2, 83, 0
4, 2952, Note_on_c, 2, 83, 113
4, 2972, Note_on_c, 2, 83, 0
4, 2976, Note_on_c, 2, 83, 110
4, 2996, Note_on_c, 2, 83, 0
4, 3000, Note_on_c, 2, 83, 113
4, 3020, Note_on_c, 2, 83, 0
4, 3024, Note_on_c, 2, 83, 110
4, 3044, Note_on_c, 2, 83, 0
4, 3048, Note_on_c, 2, 83, 113
4, 3068, Note_on_c, 2, 83, 0
4, 3072, Note_on_c, 2, 83, 110
4, 3092, Note_on_c, 2, 83, 0
4, 3096, Note_on_c, 2, 83, 113
4, 3116, Note_on_c, 2, 83, 0
4, 3120, Note_on_c, 2, 83, 110
4, 3140, Note_on_c, 2, 83, 0
4, 3144, Note_on_c, 2, 83, 113
4, 3164, Note_on_c, 2, 83, 0
4, 3168, Note_on_c, 2, 83, 110
4, 3188, Note_on_c, 2, 83, 0
4, 3192, Note_on_c, 2, 83, 113
4, 3214, Note_on_c, 2, 83, 0
4, 3216, Note_on_c, 2, 83, 110
4, 3240, Note_on_c, 2, 83, 0
4, 3240, Note_on_c, 2, 85, 113
4, 3252, Note_on_c, 2, 85, 0
4, 3252, Control_c, 2, 7, 126
4, 3252, Note_on_c, 2, 87, 112
4, 3264, Note_on_c, 2, 87, 0
4, 3264, Control_c, 2, 7, 127
4, 3264, Note_on_c, 2, 88, 112
4, 3276, Note_on_c, 2, 88, 0
4, 3276, Note_on_c, 2, 87, 110
4, 3288, Note_on_c, 2, 87, 0
4, 3288, Control_c, 2, 7, 123
4, 3288, Note_on_c, 2, 85, 108
4, 3300, Note_on_c, 2, 85, 0
4, 3300, Note_on_c, 2, 83, 105
4, 3312, Note_on_c, 2, 83, 0
4, 3312, Control_c, 2, 7, 121
4, 3312, Note_on_c, 2, 81, 103
4, 3324, Note_on_c, 2, 81, 0
4, 3324, Note_on_c, 2, 80, 103
4, 3336, Note_on_c, 2, 80, 0
4, 3336, Note_on_c, 2, 78, 103
4, 3348, Note_on_c, 2, 78, 0
4, 3348, Note_on_c, 2, 76, 100
4, 3360, Note_on_c, 2, 76, 0
4, 3720, Control_c, 2, 7, 115
4, 3720, Note_on_c, 2, 88, 108
4, 3735, Note_on_c, 2, 88, 0
4, 3744, Note_on_c, 2, 88, 103
4, 3759, Note_on_c, 2, 88, 0
4, 3768, Note_on_c, 2, 88, 108
4, 3783, Note_on_c, 2, 88, 0
4, 3792, Note_on_c, 2, 88, 103
4, 3807, Note_on_c, 2, 88, 0
4, 3816, Note_on_c, 2, 88, 108
4, 3831, Note_on_c, 2, 88, 0
4, 3840, Note_on_c, 2, 76, 115
4, 3846, Note_on_c, 2, 76, 0
4, 3846, Note_on_c, 2, 78, 112
4, 3852, Note_on_c, 2, 78, 0
4, 3852, Note_on_c, 2, 76, 112
4, 3858, Note_on_c, 2, 76, 0
4, 3858, Note_on_c, 2, 78, 110
4, 3864, Note_on_c, 2, 78, 0
4, 3864, Note_on_c, 2, 76, 110
4, 3870, Note_on_c, 2, 76, 0
4, 3870, Note_on_c, 2, 78, 108
4, 3876, Note_on_c, 2, 78, 0
4, 3876, Note_on_c, 2, 76, 108
4, 3882, Note_on_c, 2, 76, 0
4, 3882, Note_on_c, 2, 78, 105
4, 3888, Note_on_c, 2, 78, 0
4, 3888, Note_on_c, 2, 76, 105
4, 3894, Note_on_c, 2, 76, 0
4, 3894, Note_on_c, 2, 78, 103
4, 3900, Note_on_c, 2, 78, 0
4, 3900, Note_on_c, 2, 76, 103
4, 3906, Note_on_c, 2, 76, 0
4, 3906, Note_on_c, 2, 78, 97
4, 3912, Note_on_c, 2, 78, 0
4, 3912, Note_on_c, 2, 88, 108
4, 3927, Note_on_c, 2, 88, 0
4, 3936, Note_on_c, 2, 88, 112
4, 3951, Note_on_c, 2, 88, 0
4, 3960, Note_on_c, 2, 88, 108
4, 3975, Note_on_c, 2, 88, 0
4, 3984, Note_on_c, 2, 88, 112
4, 3999, Note_on_c, 2, 88, 0
4, 4008, Note_on_c, 2, 88, 112
4, 4023, Note_on_c, 2, 88, 0
4, 4032, Note_on_c, 2, 76, 115
4, 4038, Note_on_c, 2, 76, 0
4, 4038, Note_on_c, 2, 78, 112
4, 4044, Note_on_c, 2, 78, 0
4, 4044, Note_on_c, 2, 76, 112
4, 4050, Note_on_c, 2, 76, 0
4, 4050, Note_on_c, 2, 78, 110
4, 4056, Note_on_c, 2, 78, 0
4, 4056, Note_on_c, 2, 76, 110
4, 4062, Note_on_c, 2, 76, 0
4, 4062, Note_on_c, 2, 78, 108
4, 4068, Note_on_c, 2, 78, 0
4, 4068, Note_on_c, 2, 76, 108
4, 4074, Note_on_c, 2, 76, 0
4, 4074, Note_on_c, 2, 78, 105
4, 4080, Note_on_c, 2, 78, 0
4, 4128, Control_c, 2, 7, 118
4, 4128, Control_c, 2, 7, 108
4, 4128, Note_on_c, 2, 83, 117
4, 4140, Control_c, 2, 7, 112
4, 4152, Control_c, 2, 7, 115
4, 4164, Control_c, 2, 7, 118
4, 4188, Note_on_c, 2, 83, 0
4, 4188, Note_on_c, 2, 88, 119
4, 4200, Note_on_c, 2, 88, 0
4, 4200, Note_on_c, 2, 83, 117
4, 4212, Note_on_c, 2, 83, 0
4, 4212, Note_on_c, 2, 85, 119
4, 4224, Note_on_c, 2, 85, 0
4, 4224, Control_c, 2, 7, 108
4, 4224, Note_on_c, 2, 83, 117
4, 4236, Control_c, 2, 7, 112
4, 4248, Control_c, 2, 7, 115
4, 4260, Control_c, 2, 7, 118
4, 4284, Note_on_c, 2, 83, 0
4, 4284, Note_on_c, 2, 88, 119
4, 4296, Note_on_c, 2, 88, 0
4, 4296, Note_on_c, 2, 83, 117
4, 4308, Note_on_c, 2, 83, 0
4, 4308, Note_on_c, 2, 85, 119
4, 4320, Note_on_c, 2, 85, 0
4, 4320, Note_on_c, 2, 83, 117
4, 4332, Note_on_c, 2, 83, 0
4, 4332, Note_on_c, 2, 88, 119
4, 4344, Note_on_c, 2, 88, 0
4, 4344, Note_on_c, 2, 83, 117
4, 4356, Note_on_c, 2, 83, 0
4, 4356, Note_on_c, 2, 85, 119
4, 4368, Note_on_c, 2, 85, 0
4, 4368, Note_on_c, 2, 83, 117
4, 4380, Note_on_c, 2, 83, 0
4, 4380, Note_on_c, 2, 88, 119
4, 4392, Note_on_c, 2, 88, 0
4, 4392, Note_on_c, 2, 83, 117
4, 4404, Note_on_c, 2, 83, 0
4, 4404, Note_on_c, 2, 85, 119
4, 4416, Note_on_c, 2, 85, 0
4, 4416, Note_on_c, 2, 83, 117
4, 4428, Note_on_c, 2, 83, 0
4, 4428, Note_on_c, 2, 88, 119
4, 4440, Note_on_c, 2, 88, 0
4, 4440, Note_on_c, 2, 83, 117
4, 4452, Note_on_c, 2, 83, 0
4, 4452, Note_on_c, 2, 85, 119
4, 4464, Note_on_c, 2, 85, 0
4, 4464, Note_on_c, 2, 83, 117
4, 4476, Note_on_c, 2, 83, 0
4, 4476, Note_on_c, 2, 88, 119
4, 4488, Note_on_c, 2, 88, 0
4, 4488, Note_on_c, 2, 83, 117
4, 4500, Note_on_c, 2, 83, 0
4, 4500, Note_on_c, 2, 85, 119
4, 4512, Note_on_c, 2, 85, 0
4, 4512, Note_on_c, 2, 83, 117
4, 4532, Note_on_c, 2, 83, 0
4, 4536, Note_on_c, 2, 76, 119
4, 4556, Note_on_c, 2, 76, 0
4, 4560, Note_on_c, 2, 80, 119
4, 4566, Note_on_c, 2, 80, 0
4, 4566, Note_on_c, 2, 81, 115
4, 4572, Note_on_c, 2, 81, 0
4, 4572, Note_on_c, 2, 80, 113
4, 4578, Note_on_c, 2, 80, 0
4, 4578, Note_on_c, 2, 81, 112
4, 4584, Note_on_c, 2, 81, 0
4, 4584, Note_on_c, 2, 80, 110
4, 4590, Note_on_c, 2, 80, 0
4, 4590, Note_on_c, 2, 81, 108
4, 4596, Note_on_c, 2, 81, 0
4, 4596, Note_on_c, 2, 80, 103
4, 4602, Note_on_c, 2, 80, 0
4, 4602, Note_on_c, 2, 81, 97
4, 4608, Note_on_c, 2, 81, 0
4, 4656, Note_on_c, 2, 80, 118
4, 4662, Note_on_c, 2, 80, 0
4, 4662, Note_on_c, 2, 81, 115
4, 4668, Note_on_c, 2, 81, 0
4, 4668, Note_on_c, 2, 80, 112
4, 4674, Note_on_c, 2, 80, 0
4, 4674, Note_on_c, 2, 81, 108
4, 4680, Note_on_c, 2, 81, 0
4, 4680, Note_on_c, 2, 80, 103
4, 4686, Note_on_c, 2, 80, 0
4, 4686, Note_on_c, 2, 81, 97
4, 4692, Note_on_c, 2, 81, 0
4, 4692, Note_on_c, 2, 80, 97
4, 4698, Note_on_c, 2, 80, 0
4, 4698, Note_on_c, 2, 81, 94
4, 4704, Note_on_c, 2, 81, 0
4, 4752, Note_on_c, 2, 80, 118
4, 4758, Note_on_c, 2, 80, 0
4, 4758, Note_on_c, 2, 81, 115
4, 4764, Note_on_c, 2, 81, 0
4, 4764, Note_on_c, 2, 80, 112
4, 4770, Note_on_c, 2, 80, 0
4, 4770, Note_on_c, 2, 81, 108
4, 4776, Note_on_c, 2, 81, 0
4, 4776, Note_on_c, 2, 80, 103
4, 4782, Note_on_c, 2, 80, 0
4, 4782, Note_on_c, 2, 81, 97
4, 4788, Note_on_c, 2, 81, 0
4, 4788, Note_on_c, 2, 80, 97
4, 4794, Note_on_c, 2, 80, 0
4, 4794, Note_on_c, 2, 81, 94
4, 4800, Note_on_c, 2, 81, 0
4, 4848, Note_on_c, 2, 80, 118
4, 4854, Note_on_c, 2, 80, 0
4, 4854, Note_on_c, 2, 81, 115
4, 4860, Note_on_c, 2, 81, 0
4, 4860, Note_on_c, 2, 80, 112
4, 4866, Note_on_c, 2, 80, 0
4, 4866, Note_on_c, 2, 81, 108
4, 4872, Note_on_c, 2, 81, 0
4, 4872, Note_on_c, 2, 80, 103
4, 4878, Note_on_c, 2, 80, 0
4, 4878, Note_on_c, 2, 81, 97
4, 4884, Note_on_c, 2, 81, 0
4, 4884, Note_on_c, 2, 80, 97
4, 4890, Note_on_c, 2, 80, 0
4, 4890, Note_on_c, 2, 81, 94
4, 4896, Note_on_c, 2, 81, 0
4, 4896, Control_c, 2, 7, 108
4, 4896, Note_on_c, 2, 88, 115
4, 4908, Control_c, 2, 7, 112
4, 4920, Control_c, 2, 7, 115
4, 4932, Control_c, 2, 7, 118
4, 4976, Note_on_c, 2, 88, 0
4, 4992, Note_on_c, 2, 88, 118
4, 4998, Note_on_c, 2, 88, 0
4, 4998, Note_on_c, 2, 90, 115
4, 5004, Note_on_c, 2, 90, 0
4, 5004, Note_on_c, 2, 88, 112
4, 5010, Note_on_c, 2, 88, 0
4, 5010, Note_on_c, 2, 90, 110
4, 5016, Note_on_c, 2, 90, 0
4, 5016, Note_on_c, 2, 88, 108
4, 5022, Note_on_c, 2, 88, 0
4, 5022, Note_on_c, 2, 90, 105
4, 5028, Note_on_c, 2, 90, 0
4, 5028, Note_on_c, 2, 88, 103
4, 5034, Note_on_c, 2, 88, 0
4, 5034, Note_on_c, 2, 90, 100
4, 5040, Note_on_c, 2, 90, 0
4, 5040, Note_on_c, 2, 88, 97
4, 5046, Note_on_c, 2, 88, 0
4, 5046, Note_on_c, 2, 90, 94
4, 5052, Note_on_c, 2, 90, 0
4, 5052, Note_on_c, 2, 88, 90
4, 5058, Note_on_c, 2, 88, 0
4, 5058, Note_on_c, 2, 90, 85
4, 5064, Note_on_c, 2, 90, 0
4, 5064, Note_on_c, 2, 88, 85
4, 5070, Note_on_c, 2, 88, 0
4, 5070, Note_on_c, 2, 90, 80
4, 5076, Note_on_c, 2, 90, 0
4, 5076, Note_on_c, 2, 88, 80
4, 5082, Note_on_c, 2, 88, 0
4, 5082, Note_on_c, 2, 90, 80
4, 5088, Note_on_c, 2, 90, 0
4, 5088, Control_c, 2, 7, 108
4, 5088, Note_on_c, 2, 88, 115
4, 5100, Control_c, 2, 7, 112
4, 5112, Control_c, 2, 7, 115
4, 5124, Control_c, 2, 7, 118
4, 5168, Note_on_c, 2, 88, 0
4, 5184, Note_on_c, 2, 88, 118
4, 5190, Note_on_c, 2, 88, 0
4, 5190, Note_on_c, 2, 90, 115
4, 5196, Note_on_c, 2, 90, 0
4, 5196, Note_on_c, 2, 88, 112
4, 5202, Note_on_c, 2, 88, 0
4, 5202, Note_on_c, 2, 90, 110
4, 5208, Note_on_c, 2, 90, 0
4, 5208, Note_on_c, 2, 88, 108
4, 5214, Note_on_c, 2, 88, 0
4, 5214, Note_on_c, 2, 90, 105
4, 5220, Note_on_c, 2, 90, 0
4, 5220, Note_on_c, 2, 88, 103
4, 5226, Note_on_c, 2, 88, 0
4, 5226, Note_on_c, 2, 90, 100
4, 5232, Note_on_c, 2, 90, 0
4, 5232, Note_on_c, 2, 88, 97
4, 5238, Note_on_c, 2, 88, 0
4, 5238, Note_on_c, 2, 90, 94
4, 5244, Note_on_c, 2, 90, 0
4, 5244, Note_on_c, 2, 88, 90
4, 5250, Note_on_c, 2, 88, 0
4, 5250, Note_on_c, 2, 90, 85
4, 5256, Note_on_c, 2, 90, 0
4, 5256, Note_on_c, 2, 88, 85
4, 5262, Note_on_c, 2, 88, 0
4, 5262, Note_on_c, 2, 90, 80
4, 5268, Note_on_c, 2, 90, 0
4, 5268, Note_on_c, 2, 88, 80
4, 5274, Note_on_c, 2, 88, 0
4, 5274, Note_on_c, 2, 90, 80
4, 5280, Note_on_c, 2, 90, 0
4, 5352, Control_c, 2, 7, 123
4, 5352, Control_c, 2, 11, 120
4, 5352, Control_c, 2, 1, 50
4, 5352, Control_c, 2, 7, 115
4, 5352, Note_on_c, 2, 76, 126
4, 5355, Control_c, 2, 7, 118
4, 5358, Control_c, 2, 7, 121
4, 5364, Control_c, 2, 7, 123
4, 5372, Note_on_c, 2, 76, 0
4, 5376, Control_c, 2, 7, 115
4, 5376, Note_on_c, 2, 71, 115
4, 5376, Note_on_c, 2, 83, 121
4, 5379, Control_c, 2, 7, 118
4, 5382, Control_c, 2, 7, 121
4, 5388, Control_c, 2, 7, 123
4, 5391, Note_on_c, 2, 71, 0
4, 5391, Note_on_c, 2, 83, 0
4, 5400, Note_on_c, 2, 81, 123
4, 5410, Note_on_c, 2, 81, 0
4, 5412, Note_on_c, 2, 80, 122
4, 5422, Note_on_c, 2, 80, 0
4, 5424, Control_c, 2, 7, 115
4, 5424, Note_on_c, 2, 81, 123
4, 5427, Control_c, 2, 7, 118
4, 5430, Control_c, 2, 7, 121
4, 5436, Control_c, 2, 7, 123
4, 5444, Note_on_c, 2, 81, 0
4, 5448, Control_c, 2, 7, 115
4, 5448, Note_on_c, 2, 83, 126
4, 5451, Control_c, 2, 7, 118
4, 5454, Control_c, 2, 7, 121
4, 5460, Control_c, 2, 7, 123
4, 5468, Note_on_c, 2, 83, 0
4, 5472, Control_c, 2, 7, 115
4, 5472, Note_on_c, 2, 85, 126
4, 5475, Control_c, 2, 7, 118
4, 5478, Control_c, 2, 7, 121
4, 5484, Control_c, 2, 7, 123
4, 5492, Note_on_c, 2, 85, 0
4, 5496, Control_c, 2, 7, 115
4, 5496, Note_on_c, 2, 83, 124
4, 5502, Control_c, 2, 7, 118
4, 5508, Control_c, 2, 7, 122
4, 5514, Control_c, 2, 7, 126
4, 5541, Note_on_c, 2, 83, 0
4, 5544, Control_c, 2, 7, 115
4, 5544, Note_on_c, 2, 76, 124
4, 5547, Control_c, 2, 7, 118
4, 5550, Control_c, 2, 7, 121
4, 5556, Control_c, 2, 7, 123
4, 5564, Note_on_c, 2, 76, 0
4, 5568, Control_c, 2, 7, 115
4, 5568, Note_on_c, 2, 83, 121
4, 5571, Control_c, 2, 7, 118
4, 5574, Control_c, 2, 7, 121
4, 5580, Control_c, 2, 7, 123
4, 5585, Note_on_c, 2, 83, 0
4, 5592, Note_on_c, 2, 81, 123
4, 5602, Note_on_c, 2, 81, 0
4, 5604, Note_on_c, 2, 80, 122
4, 5614, Note_on_c, 2, 80, 0
4, 5616, Control_c, 2, 7, 115
4, 5616, Note_on_c, 2, 81, 123
4, 5619, Control_c, 2, 7, 118
4, 5622, Control_c, 2, 7, 121
4, 5628, Control_c, 2, 7, 123
4, 5636, Note_on_c, 2, 81, 0
4, 5640, Control_c, 2, 7, 115
4, 5640, Note_on_c, 2, 83, 126
4, 5643, Control_c, 2, 7, 118
4, 5646, Control_c, 2, 7, 121
4, 5652, Control_c, 2, 7, 123
4, 5660, Note_on_c, 2, 83, 0
4, 5664, Control_c, 2, 7, 115
4, 5664, Note_on_c, 2, 85, 127
4, 5667, Control_c, 2, 7, 118
4, 5670, Control_c, 2, 7, 121
4, 5676, Control_c, 2, 7, 123
4, 5684, Note_on_c, 2, 85, 0
4, 5688, Control_c, 2, 7, 115
4, 5688, Note_on_c, 2, 83, 126
4, 5694, Control_c, 2, 7, 118
4, 5700, Control_c, 2, 7, 121
4, 5706, Control_c, 2, 7, 123
4, 5733, Note_on_c, 2, 83, 0
4, 5736, Control_c, 2, 7, 115
4, 5736, Note_on_c, 2, 76, 126
4, 5739, Control_c, 2, 7, 118
4, 5742, Control_c, 2, 7, 121
4, 5748, Control_c, 2, 7, 123
4, 5756, Note_on_c, 2, 76, 0
4, 5760, Control_c, 2, 7, 115
4, 5760, Note_on_c, 2, 85, 124
4, 5763, Control_c, 2, 7, 118
4, 5766, Control_c, 2, 7, 121
4, 5772, Control_c, 2, 7, 123
4, 5780, Note_on_c, 2, 85, 0
4, 5784, Control_c, 2, 7, 115
4, 5784, Note_on_c, 2, 83, 126
4, 5790, Control_c, 2, 7, 118
4, 5796, Control_c, 2, 7, 121
4, 5802, Control_c, 2, 7, 123
4, 5829, Note_on_c, 2, 83, 0
4, 5832, Control_c, 2, 7, 115
4, 5832, Note_on_c, 2, 81, 124
4, 5835, Control_c, 2, 7, 118
4, 5838, Control_c, 2, 7, 121
4, 5844, Control_c, 2, 7, 123
4, 5852, Note_on_c, 2, 81, 0
4, 5856, Control_c, 2, 7, 115
4, 5856, Note_on_c, 2, 80, 123
4, 5859, Control_c, 2, 7, 118
4, 5862, Control_c, 2, 7, 121
4, 5868, Control_c, 2, 7, 123
4, 5876, Note_on_c, 2, 80, 0
4, 5880, Note_on_c, 2, 78, 122
4, 5890, Note_on_c, 2, 78, 0
4, 5892, Note_on_c, 2, 76, 121
4, 5902, Note_on_c, 2, 76, 0
4, 5904, Note_on_c, 2, 78, 126
4, 5910, Note_on_c, 2, 78, 0
4, 5910, Note_on_c, 2, 80, 121
4, 5916, Note_on_c, 2, 80, 0
4, 5916, Note_on_c, 2, 78, 118
4, 5922, Note_on_c, 2, 78, 0
4, 5922, Note_on_c, 2, 80, 115
4, 5928, Note_on_c, 2, 80, 0
4, 5928, Note_on_c, 2, 78, 112
4, 5934, Note_on_c, 2, 78, 0
4, 5934, Note_on_c, 2, 80, 108
4, 5940, Note_on_c, 2, 80, 0
4, 5940, Note_on_c, 2, 78, 103
4, 5946, Note_on_c, 2, 78, 0
4, 5946, Note_on_c, 2, 80, 103
4, 5952, Note_on_c, 2, 80, 0
4, 5952, Note_on_c, 2, 76, 118
4, 5972, Note_on_c, 2, 76, 0
4, 5976, Control_c, 2, 7, 118
4, 5976, Note_on_c, 2, 68, 108
4, 5988, Note_on_c, 2, 68, 0
4, 5988, Note_on_c, 2, 69, 108
4, 6000, Note_on_c, 2, 69, 0
4, 6000, Note_on_c, 2, 71, 115
4, 6012, Note_on_c, 2, 71, 0
4, 6012, Note_on_c, 2, 69, 108
4, 6024, Note_on_c, 2, 69, 0
4, 6024, Note_on_c, 2, 71, 115
4, 6036, Note_on_c, 2, 71, 0
4, 6036, Note_on_c, 2, 69, 108
4, 6048, Note_on_c, 2, 69, 0
4, 6048, Note_on_c, 2, 68, 115
4, 6060, Note_on_c, 2, 68, 0
4, 6060, Note_on_c, 2, 69, 108
4, 6072, Note_on_c, 2, 69, 0
4, 6072, Note_on_c, 2, 68, 115
4, 6084, Note_on_c, 2, 68, 0
4, 6084, Note_on_c, 2, 69, 108
4, 6096, Note_on_c, 2, 69, 0
4, 6096, Note_on_c, 2, 71, 115
4, 6108, Note_on_c, 2, 71, 0
4, 6108, Note_on_c, 2, 69, 108
4, 6120, Note_on_c, 2, 69, 0
4, 6120, Note_on_c, 2, 71, 115
4, 6132, Note_on_c, 2, 71, 0
4, 6132, Note_on_c, 2, 69, 108
4, 6144, Note_on_c, 2, 69, 0
4, 6144, Note_on_c, 2, 68, 115
4, 6156, Note_on_c, 2, 68, 0
4, 6156, Note_on_c, 2, 69, 108
4, 6168, Note_on_c, 2, 69, 0
4, 6168, Note_on_c, 2, 68, 115
4, 6180, Note_on_c, 2, 68, 0
4, 6180, Note_on_c, 2, 69, 108
4, 6192, Note_on_c, 2, 69, 0
4, 6192, Note_on_c, 2, 71, 115
4, 6204, Note_on_c, 2, 71, 0
4, 6204, Note_on_c, 2, 69, 108
4, 6216, Note_on_c, 2, 69, 0
4, 6216, Note_on_c, 2, 71, 115
4, 6228, Note_on_c, 2, 71, 0
4, 6228, Note_on_c, 2, 69, 108
4, 6240, Note_on_c, 2, 69, 0
4, 6240, Note_on_c, 2, 68, 115
4, 6252, Note_on_c, 2, 68, 0
4, 6252, Note_on_c, 2, 69, 108
4, 6264, Note_on_c, 2, 69, 0
4, 6264, Note_on_c, 2, 68, 115
4, 6276, Note_on_c, 2, 68, 0
4, 6276, Note_on_c, 2, 69, 108
4, 6288, Note_on_c, 2, 69, 0
4, 6288, Note_on_c, 2, 71, 108
4, 6300, Note_on_c, 2, 71, 0
4, 6300, Note_on_c, 2, 73, 112
4, 6312, Note_on_c, 2, 73, 0
4, 6312, Note_on_c, 2, 71, 108
4, 6324, Note_on_c, 2, 71, 0
4, 6324, Note_on_c, 2, 73, 112
4, 6336, Note_on_c, 2, 73, 0
4, 6336, Note_on_c, 2, 75, 115
4, 6348, Note_on_c, 2, 75, 0
4, 6348, Note_on_c, 2, 76, 108
4, 6360, Note_on_c, 2, 76, 0
4, 6360, Note_on_c, 2, 75, 115
4, 6372, Note_on_c, 2, 75, 0
4, 6372, Note_on_c, 2, 76, 108
4, 6384, Note_on_c, 2, 76, 0
4, 6384, Note_on_c, 2, 78, 115
4, 6396, Note_on_c, 2, 78, 0
4, 6396, Note_on_c, 2, 76, 108
4, 6408, Note_on_c, 2, 76, 0
4, 6408, Note_on_c, 2, 78, 115
4, 6420, Note_on_c, 2, 78, 0
4, 6420, Note_on_c, 2, 76, 108
4, 6432, Note_on_c, 2, 76, 0
4, 6432, Note_on_c, 2, 75, 115
4, 6444, Note_on_c, 2, 75, 0
4, 6444, Note_on_c, 2, 76, 108
4, 6456, Note_on_c, 2, 76, 0
4, 6456, Note_on_c, 2, 75, 115
4, 6468, Note_on_c, 2, 75, 0
4, 6468, Note_on_c, 2, 76, 108
4, 6480, Note_on_c, 2, 76, 0
4, 6480, Note_on_c, 2, 78, 108
4, 6492, Note_on_c, 2, 78, 0
4, 6492, Note_on_c, 2, 76, 112
4, 6504, Note_on_c, 2, 76, 0
4, 6504, Note_on_c, 2, 78, 108
4, 6516, Note_on_c, 2, 78, 0
4, 6516, Note_on_c, 2, 76, 112
4, 6528, Note_on_c, 2, 76, 0
4, 6528, Note_on_c, 2, 75, 115
4, 6540, Note_on_c, 2, 75, 0
4, 6540, Note_on_c, 2, 76, 108
4, 6552, Note_on_c, 2, 76, 0
4, 6552, Note_on_c, 2, 75, 115
4, 6564, Note_on_c, 2, 75, 0
4, 6564, Note_on_c, 2, 76, 108
4, 6576, Note_on_c, 2, 76, 0
4, 6576, Note_on_c, 2, 78, 115
4, 6588, Note_on_c, 2, 78, 0
4, 6588, Note_on_c, 2, 80, 108
4, 6600, Note_on_c, 2, 80, 0
4, 6600, Note_on_c, 2, 78, 115
4, 6612, Note_on_c, 2, 78, 0
4, 6612, Note_on_c, 2, 80, 108
4, 6624, Note_on_c, 2, 80, 0
4, 6624, Note_on_c, 2, 81, 115
4, 6636, Note_on_c, 2, 81, 0
4, 6636, Note_on_c, 2, 80, 108
4, 6648, Note_on_c, 2, 80, 0
4, 6648, Note_on_c, 2, 81, 115
4, 6660, Note_on_c, 2, 81, 0
4, 6660, Note_on_c, 2, 80, 108
4, 6672, Note_on_c, 2, 80, 0
4, 6672, Note_on_c, 2, 78, 108
4, 6684, Note_on_c, 2, 78, 0
4, 6684, Note_on_c, 2, 81, 112
4, 6696, Note_on_c, 2, 81, 0
4, 6696, Note_on_c, 2, 80, 108
4, 6708, Note_on_c, 2, 80, 0
4, 6708, Note_on_c, 2, 78, 112
4, 6720, Note_on_c, 2, 78, 0
4, 6720, Note_on_c, 2, 80, 112
4, 6740, Note_on_c, 2, 80, 0
4, 6744, Note_on_c, 2, 78, 108
4, 6756, Note_on_c, 2, 78, 0
4, 6756, Note_on_c, 2, 76, 108
4, 6768, Note_on_c, 2, 76, 0
4, 6768, Note_on_c, 2, 75, 115
4, 6780, Note_on_c, 2, 75, 0
4, 6780, Note_on_c, 2, 73, 108
4, 6792, Note_on_c, 2, 73, 0
4, 6792, Note_on_c, 2, 71, 115
4, 6804, Note_on_c, 2, 71, 0
4, 6804, Note_on_c, 2, 69, 108
4, 6816, Note_on_c, 2, 69, 0
4, 6816, Note_on_c, 2, 68, 115
4, 6828, Note_on_c, 2, 68, 0
4, 6828, Note_on_c, 2, 69, 108
4, 6840, Note_on_c, 2, 69, 0
4, 6840, Note_on_c, 2, 68, 115
4, 6852, Note_on_c, 2, 68, 0
4, 6852, Note_on_c, 2, 69, 108
4, 6864, Note_on_c, 2, 69, 0
4, 6864, Note_on_c, 2, 71, 115
4, 6876, Note_on_c, 2, 71, 0
4, 6876, Note_on_c, 2, 69, 108
4, 6888, Note_on_c, 2, 69, 0
4, 6888, Note_on_c, 2, 71, 115
4, 6900, Note_on_c, 2, 71, 0
4, 6900, Note_on_c, 2, 69, 108
4, 6912, Note_on_c, 2, 69, 0
4, 6912, Note_on_c, 2, 68, 115
4, 6924, Note_on_c, 2, 68, 0
4, 6924, Note_on_c, 2, 69, 108
4, 6936, Note_on_c, 2, 69, 0
4, 6936, Note_on_c, 2, 68, 115
4, 6948, Note_on_c, 2, 68, 0
4, 6948, Note_on_c, 2, 69, 108
4, 6960, Note_on_c, 2, 69, 0
4, 6960, Note_on_c, 2, 71, 115
4, 6972, Note_on_c, 2, 71, 0
4, 6972, Note_on_c, 2, 69, 108
4, 6984, Note_on_c, 2, 69, 0
4, 6984, Note_on_c, 2, 71, 115
4, 6996, Note_on_c, 2, 71, 0
4, 6996, Note_on_c, 2, 69, 108
4, 7008, Note_on_c, 2, 69, 0
4, 7008, Note_on_c, 2, 68, 115
4, 7020, Note_on_c, 2, 68, 0
4, 7020, Note_on_c, 2, 69, 108
4, 7032, Note_on_c, 2, 69, 0
4, 7032, Note_on_c, 2, 68, 115
4, 7044, Note_on_c, 2, 68, 0
4, 7044, Note_on_c, 2, 69, 108
4, 7056, Note_on_c, 2, 69, 0
4, 7056, Note_on_c, 2, 71, 108
4, 7068, Note_on_c, 2, 71, 0
4, 7068, Note_on_c, 2, 69, 112
4, 7080, Note_on_c, 2, 69, 0
4, 7080, Note_on_c, 2, 71, 108
4, 7092, Note_on_c, 2, 71, 0
4, 7092, Note_on_c, 2, 69, 112
4, 7104, Note_on_c, 2, 69, 0
4, 7104, Control_c, 2, 7, 108
4, 7104, Note_on_c, 2, 68, 112
4, 7110, Control_c, 2, 7, 112
4, 7116, Control_c, 2, 7, 115
4, 7122, Control_c, 2, 7, 118
4, 7149, Note_on_c, 2, 68, 0
4, 7176, Note_on_c, 2, 80, 112
4, 7196, Note_on_c, 2, 80, 0
4, 7200, Control_c, 2, 7, 112
4, 7200, Note_on_c, 2, 81, 112
4, 7212, Control_c, 2, 7, 118
4, 7224, Control_c, 2, 7, 121
4, 7236, Control_c, 2, 7, 124
4, 7293, Note_on_c, 2, 81, 0
4, 7296, Control_c, 2, 7, 118
4, 7296, Control_c, 2, 7, 112
4, 7296, Note_on_c, 2, 80, 112
4, 7308, Control_c, 2, 7, 118
4, 7320, Control_c, 2, 7, 121
4, 7332, Control_c, 2, 7, 124
4, 7389, Note_on_c, 2, 80, 0
4, 7392, Control_c, 2, 7, 112
4, 7392, Note_on_c, 2, 78, 112
4, 7404, Control_c, 2, 7, 118
4, 7416, Control_c, 2, 7, 121
4, 7428, Control_c, 2, 7, 124
4, 7485, Note_on_c, 2, 78, 0
4, 7488, Control_c, 2, 7, 118
4, 7488, Control_c, 2, 7, 112
4, 7488, Note_on_c, 2, 80, 112
4, 7500, Control_c, 2, 7, 118
4, 7512, Control_c, 2, 7, 121
4, 7524, Control_c, 2, 7, 124
4, 7581, Note_on_c, 2, 80, 0
4, 7584, Control_c, 2, 7, 112
4, 7584, Note_on_c, 2, 81, 112
4, 7596, Control_c, 2, 7, 118
4, 7608, Control_c, 2, 7, 121
4, 7620, Control_c, 2, 7, 124
4, 7677, Note_on_c, 2, 81, 0
4, 7680, Control_c, 2, 7, 118
4, 7680, Control_c, 2, 7, 112
4, 7680, Note_on_c, 2, 80, 112
4, 7692, Control_c, 2, 7, 118
4, 7704, Control_c, 2, 7, 121
4, 7716, Control_c, 2, 7, 124
4, 7773, Note_on_c, 2, 80, 0
4, 7776, Control_c, 2, 7, 112
4, 7776, Note_on_c, 2, 78, 112
4, 7782, Control_c, 2, 7, 118
4, 7788, Control_c, 2, 7, 121
4, 7794, Control_c, 2, 7, 124
4, 7821, Note_on_c, 2, 78, 0
4, 7824, Control_c, 2, 7, 118
4, 7848, Control_c, 2, 11, 115
4, 7848, Control_c, 2, 1, 50
4, 7848, Control_c, 2, 7, 118
4, 7848, Note_on_c, 2, 71, 121
4, 7851, Control_c, 2, 7, 121
4, 7854, Control_c, 2, 7, 123
4, 7860, Control_c, 2, 7, 126
4, 7868, Note_on_c, 2, 71, 0
4, 7872, Control_c, 2, 7, 118
4, 7872, Note_on_c, 2, 78, 126
4, 7875, Control_c, 2, 7, 121
4, 7878, Control_c, 2, 7, 123
4, 7884, Control_c, 2, 7, 126
4, 7887, Note_on_c, 2, 78, 0
4, 7896, Note_on_c, 2, 76, 123
4, 7906, Note_on_c, 2, 76, 0
4, 7908, Note_on_c, 2, 75, 122
4, 7918, Note_on_c, 2, 75, 0
4, 7920, Control_c, 2, 7, 118
4, 7920, Note_on_c, 2, 76, 123
4, 7923, Control_c, 2, 7, 121
4, 7926, Control_c, 2, 7, 123
4, 7932, Control_c, 2, 7, 126
4, 7940, Note_on_c, 2, 76, 0
4, 7944, Control_c, 2, 7, 118
4, 7944, Note_on_c, 2, 78, 126
4, 7947, Control_c, 2, 7, 121
4, 7950, Control_c, 2, 7, 123
4, 7956, Control_c, 2, 7, 126
4, 7964, Note_on_c, 2, 78, 0
4, 7968, Control_c, 2, 7, 118
4, 7968, Note_on_c, 2, 80, 126
4, 7971, Control_c, 2, 7, 121
4, 7974, Control_c, 2, 7, 123
4, 7980, Control_c, 2, 7, 126
4, 7988, Note_on_c, 2, 80, 0
4, 7992, Control_c, 2, 7, 118
4, 7992, Note_on_c, 2, 78, 124
4, 7998, Control_c, 2, 7, 121
4, 8004, Control_c, 2, 7, 123
4, 8010, Control_c, 2, 7, 127
4, 8037, Note_on_c, 2, 78, 0
4, 8040, Control_c, 2, 7, 118
4, 8040, Note_on_c, 2, 71, 124
4, 8043, Control_c, 2, 7, 121
4, 8046, Control_c, 2, 7, 123
4, 8052, Control_c, 2, 7, 124
4, 8060, Note_on_c, 2, 71, 0
4, 8064, Control_c, 2, 7, 118
4, 8064, Note_on_c, 2, 78, 121
4, 8067, Control_c, 2, 7, 121
4, 8070, Control_c, 2, 7, 123
4, 8076, Control_c, 2, 7, 126
4, 8081, Note_on_c, 2, 78, 0
4, 8088, Note_on_c, 2, 76, 123
4, 8098, Note_on_c, 2, 76, 0
4, 8100, Note_on_c, 2, 75, 122
4, 8110, Note_on_c, 2, 75, 0
4, 8112, Control_c, 2, 7, 118
4, 8112, Note_on_c, 2, 76, 123
4, 8115, Control_c, 2, 7, 121
4, 8118, Control_c, 2, 7, 123
4, 8124, Control_c, 2, 7, 126
4, 8132, Note_on_c, 2, 76, 0
4, 8136, Control_c, 2, 7, 118
4, 8136, Note_on_c, 2, 78, 126
4, 8139, Control_c, 2, 7, 121
4, 8142, Control_c, 2, 7, 123
4, 8148, Control_c, 2, 7, 126
4, 8156, Note_on_c, 2, 78, 0
4, 8160, Control_c, 2, 7, 118
4, 8160, Note_on_c, 2, 80, 127
4, 8163, Control_c, 2, 7, 121
4, 8166, Control_c, 2, 7, 123
4, 8172, Control_c, 2, 7, 126
4, 8180, Note_on_c, 2, 80, 0
4, 8184, Control_c, 2, 7, 118
4, 8184, Note_on_c, 2, 78, 126
4, 8190, Control_c, 2, 7, 121
4, 8196, Control_c, 2, 7, 123
4, 8202, Control_c, 2, 7, 126
4, 8229, Note_on_c, 2, 78, 0
4, 8232, Control_c, 2, 7, 118
4, 8232, Note_on_c, 2, 71, 126
4, 8235, Control_c, 2, 7, 121
4, 8238, Control_c, 2, 7, 123
4, 8244, Control_c, 2, 7, 126
4, 8252, Note_on_c, 2, 71, 0
4, 8256, Control_c, 2, 7, 118
4, 8256, Note_on_c, 2, 80, 124
4, 8259, Control_c, 2, 7, 121
4, 8262, Control_c, 2, 7, 123
4, 8268, Control_c, 2, 7, 126
4, 8276, Note_on_c, 2, 80, 0
4, 8280, Control_c, 2, 7, 118
4, 8280, Note_on_c, 2, 78, 126
4, 8286, Control_c, 2, 7, 121
4, 8292, Control_c, 2, 7, 123
4, 8298, Control_c, 2, 7, 126
4, 8325, Note_on_c, 2, 78, 0
4, 8328, Control_c, 2, 7, 118
4, 8328, Note_on_c, 2, 76, 124
4, 8331, Control_c, 2, 7, 121
4, 8334, Control_c, 2, 7, 123
4, 8340, Control_c, 2, 7, 126
4, 8348, Note_on_c, 2, 76, 0
4, 8352, Control_c, 2, 7, 118
4, 8352, Note_on_c, 2, 75, 123
4, 8355, Control_c, 2, 7, 121
4, 8358, Control_c, 2, 7, 123
4, 8364, Control_c, 2, 7, 126
4, 8372, Note_on_c, 2, 75, 0
4, 8376, Note_on_c, 2, 73, 122
4, 8386, Note_on_c, 2, 73, 0
4, 8388, Note_on_c, 2, 71, 121
4, 8398, Note_on_c, 2, 71, 0
4, 8400, Control_c, 2, 7, 118
4, 8400, Note_on_c, 2, 73, 123
4, 8406, Control_c, 2, 7, 121
4, 8412, Control_c, 2, 7, 123
4, 8418, Control_c, 2, 7, 126
4, 8445, Note_on_c, 2, 73, 0
4, 8448, Control_c, 2, 11, 100
4, 8448, Control_c, 2, 7, 112
4, 8448, Note_on_c, 2, 71, 126
4, 8453, Note_on_c, 2, 71, 0
4, 8454, Pitch_bend_c, 2, 7542
4, 8454, Note_on_c, 2, 59, 126
4, 8455, Pitch_bend_c, 2, 7792
4, 8456, Pitch_bend_c, 2, 7992
4, 8457, Pitch_bend_c, 2, 8092
4, 8458, Pitch_bend_c, 2, 8192
4, 8460, Pitch_bend_c, 2, 7542
4, 8460, Control_c, 2, 7, 115
4, 8461, Pitch_bend_c, 2, 7792
4, 8462, Pitch_bend_c, 2, 7992
4, 8463, Pitch_bend_c, 2, 8092
4, 8464, Pitch_bend_c, 2, 8192
4, 8466, Pitch_bend_c, 2, 7542
4, 8466, Control_c, 2, 7, 117
4, 8467, Pitch_bend_c, 2, 7792
4, 8468, Pitch_bend_c, 2, 7992
4, 8469, Pitch_bend_c, 2, 8092
4, 8470, Pitch_bend_c, 2, 8192
4, 8472, Pitch_bend_c, 2, 7542
4, 8472, Control_c, 2, 7, 118
4, 8473, Pitch_bend_c, 2, 7792
4, 8474, Pitch_bend_c, 2, 7992
4, 8475, Pitch_bend_c, 2, 8092
4, 8476, Pitch_bend_c, 2, 8192
4, 8478, Pitch_bend_c, 2, 7542
4, 8478, Control_c, 2, 7, 119
4, 8479, Pitch_bend_c, 2, 7792
4, 8480, Pitch_bend_c, 2, 7992
4, 8481, Pitch_bend_c, 2, 8092
4, 8482, Pitch_bend_c, 2, 8192
4, 8484, Pitch_bend_c, 2, 7542
4, 8484, Control_c, 2, 7, 121
4, 8485, Pitch_bend_c, 2, 7792
4, 8486, Pitch_bend_c, 2, 7992
4, 8487, Pitch_bend_c, 2, 8092
4, 8488, Pitch_bend_c, 2, 8192
4, 8490, Pitch_bend_c, 2, 7542
4, 8490, Control_c, 2, 7, 122
4, 8491, Pitch_bend_c, 2, 7792
4, 8492, Pitch_bend_c, 2, 7992
4, 8493, Pitch_bend_c, 2, 8092
4, 8494, Pitch_bend_c, 2, 8192
4, 8496, Pitch_bend_c, 2, 7542
4, 8496, Control_c, 2, 7, 123
4, 8497, Pitch_bend_c, 2, 7792
4, 8498, Pitch_bend_c, 2, 7992
4, 8499, Pitch_bend_c, 2, 8092
4, 8500, Pitch_bend_c, 2, 8192
4, 8502, Pitch_bend_c, 2, 7542
4, 8502, Control_c, 2, 7, 124
4, 8503, Pitch_bend_c, 2, 7792
4, 8504, Pitch_bend_c, 2, 7992
4, 8505, Pitch_bend_c, 2, 8092
4, 8506, Pitch_bend_c, 2, 8192
4, 8508, Pitch_bend_c, 2, 7542
4, 8508, Control_c, 2, 7, 124
4, 8509, Pitch_bend_c, 2, 7792
4, 8510, Pitch_bend_c, 2, 7992
4, 8511, Pitch_bend_c, 2, 8092
4, 8512, Pitch_bend_c, 2, 8192
4, 8514, Pitch_bend_c, 2, 7542
4, 8514, Control_c, 2, 7, 124
4, 8515, Pitch_bend_c, 2, 7792
4, 8516, Pitch_bend_c, 2, 7992
4, 8517, Pitch_bend_c, 2, 8092
4, 8518, Pitch_bend_c, 2, 8192
4, 8520, Pitch_bend_c, 2, 7542
4, 8520, Control_c, 2, 7, 126
4, 8521, Pitch_bend_c, 2, 7792
4, 8522, Pitch_bend_c, 2, 7992
4, 8523, Pitch_bend_c, 2, 8092
4, 8524, Pitch_bend_c, 2, 8192
4, 8526, Control_c, 2, 7, 126
4, 8526, Pitch_bend_c, 2, 7542
4, 8527, Pitch_bend_c, 2, 7792
4, 8528, Pitch_bend_c, 2, 7992
4, 8529, Pitch_bend_c, 2, 8092
4, 8530, Pitch_bend_c, 2, 8192
4, 8532, Pitch_bend_c, 2, 7542
4, 8532, Control_c, 2, 7, 126
4, 8533, Pitch_bend_c, 2, 7792
4, 8534, Pitch_bend_c, 2, 7992
4, 8535, Pitch_bend_c, 2, 8092
4, 8536, Pitch_bend_c, 2, 8192
4, 8538, Pitch_bend_c, 2, 7542
4, 8538, Control_c, 2, 7, 126
4, 8539, Pitch_bend_c, 2, 7792
4, 8540, Pitch_bend_c, 2, 7992
4, 8541, Pitch_bend_c, 2, 8092
4, 8542, Pitch_bend_c, 2, 8192
4, 8544, Pitch_bend_c, 2, 7542
4, 8545, Pitch_bend_c, 2, 7792
4, 8546, Pitch_bend_c, 2, 7992
4, 8547, Pitch_bend_c, 2, 8092
4, 8548, Pitch_bend_c, 2, 8192
4, 8550, Pitch_bend_c, 2, 7542
4, 8551, Pitch_bend_c, 2, 7792
4, 8552, Pitch_bend_c, 2, 7992
4, 8553, Pitch_bend_c, 2, 8092
4, 8554, Pitch_bend_c, 2, 8192
4, 8556, Pitch_bend_c, 2, 7542
4, 8557, Pitch_bend_c, 2, 7792
4, 8558, Pitch_bend_c, 2, 7992
4, 8559, Pitch_bend_c, 2, 8092
4, 8560, Pitch_bend_c, 2, 8192
4, 8562, Pitch_bend_c, 2, 7542
4, 8563, Pitch_bend_c, 2, 7792
4, 8564, Pitch_bend_c, 2, 7992
4, 8565, Pitch_bend_c, 2, 8092
4, 8566, Pitch_bend_c, 2, 8192
4, 8568, Pitch_bend_c, 2, 7542
4, 8569, Pitch_bend_c, 2, 7792
4, 8570, Pitch_bend_c, 2, 7992
4, 8571, Pitch_bend_c, 2, 8092
4, 8572, Pitch_bend_c, 2, 8192
4, 8574, Pitch_bend_c, 2, 7542
4, 8575, Pitch_bend_c, 2, 7792
4, 8576, Pitch_bend_c, 2, 7992
4, 8577, Pitch_bend_c, 2, 8092
4, 8578, Pitch_bend_c, 2, 8192
4, 8580, Pitch_bend_c, 2, 7542
4, 8581, Pitch_bend_c, 2, 7792
4, 8582, Pitch_bend_c, 2, 7992
4, 8583, Pitch_bend_c, 2, 8092
4, 8584, Pitch_bend_c, 2, 8192
4, 8586, Pitch_bend_c, 2, 7542
4, 8587, Pitch_bend_c, 2, 7792
4, 8588, Pitch_bend_c, 2, 7992
4, 8589, Pitch_bend_c, 2, 8092
4, 8590, Pitch_bend_c, 2, 8192
4, 8592, Pitch_bend_c, 2, 7542
4, 8593, Pitch_bend_c, 2, 7792
4, 8594, Pitch_bend_c, 2, 7992
4, 8595, Pitch_bend_c, 2, 8092
4, 8596, Pitch_bend_c, 2, 8192
4, 8598, Pitch_bend_c, 2, 7542
4, 8599, Pitch_bend_c, 2, 7792
4, 8600, Pitch_bend_c, 2, 7992
4, 8601, Pitch_bend_c, 2, 8092
4, 8602, Pitch_bend_c, 2, 8192
4, 8604, Pitch_bend_c, 2, 7542
4, 8605, Pitch_bend_c, 2, 7792
4, 8606, Pitch_bend_c, 2, 7992
4, 8607, Pitch_bend_c, 2, 8092
4, 8608, Pitch_bend_c, 2, 8192
4, 8610, Pitch_bend_c, 2, 7542
4, 8611, Pitch_bend_c, 2, 7792
4, 8612, Pitch_bend_c, 2, 7992
4, 8613, Pitch_bend_c, 2, 8092
4, 8614, Pitch_bend_c, 2, 8192
4, 8616, Pitch_bend_c, 2, 7542
4, 8617, Pitch_bend_c, 2, 7792
4, 8618, Pitch_bend_c, 2, 7992
4, 8619, Pitch_bend_c, 2, 8092
4, 8620, Pitch_bend_c, 2, 8192
4, 8622, Pitch_bend_c, 2, 7542
4, 8623, Pitch_bend_c, 2, 7792
4, 8624, Pitch_bend_c, 2, 7992
4, 8625, Pitch_bend_c, 2, 8092
4, 8626, Pitch_bend_c, 2, 8192
4, 8628, Pitch_bend_c, 2, 7542
4, 8629, Pitch_bend_c, 2, 7792
4, 8630, Pitch_bend_c, 2, 7992
4, 8631, Pitch_bend_c, 2, 8092
4, 8632, Pitch_bend_c, 2, 8192
4, 8634, Pitch_bend_c, 2, 7542
4, 8635, Pitch_bend_c, 2, 7792
4, 8636, Pitch_bend_c, 2, 7992
4, 8637, Pitch_bend_c, 2, 8092
4, 8638, Note_on_c, 2, 59, 0
4, 8638, Pitch_bend_c, 2, 8192
4, 8640, Program_c, 2, 49
4, 8640, Note_on_c, 2, 71, 121
4, 8646, Note_on_c, 2, 71, 0
4, 8646, Note_on_c, 2, 73, 122
4, 8652, Note_on_c, 2, 73, 0
4, 8652, Note_on_c, 2, 75, 123
4, 8658, Note_on_c, 2, 75, 0
4, 8658, Note_on_c, 2, 76, 124
4, 8664, Note_on_c, 2, 76, 0
4, 8664, Note_on_c, 2, 78, 124
4, 8670, Note_on_c, 2, 78, 0
4, 8670, Note_on_c, 2, 80, 124
4, 8676, Note_on_c, 2, 80, 0
4, 8676, Note_on_c, 2, 81, 126
4, 8682, Note_on_c, 2, 81, 0
4, 8682, Note_on_c, 2, 83, 127
4, 8688, Note_on_c, 2, 83, 0
4, 8736, Note_on_c, 2, 71, 121
4, 8742, Note_on_c, 2, 71, 0
4, 8742, Note_on_c, 2, 73, 122
4, 8748, Note_on_c, 2, 73, 0
4, 8748, Note_on_c, 2, 75, 123
4, 8754, Note_on_c, 2, 75, 0
4, 8754, Note_on_c, 2, 76, 124
4, 8760, Note_on_c, 2, 76, 0
4, 8760, Note_on_c, 2, 78, 124
4, 8766, Note_on_c, 2, 78, 0
4, 8766, Note_on_c, 2, 80, 124
4, 8772, Note_on_c, 2, 80, 0
4, 8772, Note_on_c, 2, 81, 126
4, 8778, Note_on_c, 2, 81, 0
4, 8778, Note_on_c, 2, 83, 127
4, 8784, Note_on_c, 2, 83, 0
4, 8832, Program_c, 2, 48
4, 8832, Control_c, 2, 7, 112
4, 8832, Pitch_bend_c, 2, 7542
4, 8832, Note_on_c, 2, 59, 126
4, 8833, Pitch_bend_c, 2, 7792
4, 8834, Pitch_bend_c, 2, 7992
4, 8835, Pitch_bend_c, 2, 8092
4, 8836, Pitch_bend_c, 2, 8192
4, 8838, Pitch_bend_c, 2, 7542
4, 8838, Control_c, 2, 7, 115
4, 8839, Pitch_bend_c, 2, 7792
4, 8840, Pitch_bend_c, 2, 7992
4, 8841, Pitch_bend_c, 2, 8092
4, 8842, Pitch_bend_c, 2, 8192
4, 8844, Pitch_bend_c, 2, 7542
4, 8844, Control_c, 2, 7, 117
4, 8845, Pitch_bend_c, 2, 7792
4, 8846, Pitch_bend_c, 2, 7992
4, 8847, Pitch_bend_c, 2, 8092
4, 8848, Pitch_bend_c, 2, 8192
4, 8850, Pitch_bend_c, 2, 7542
4, 8850, Control_c, 2, 7, 118
4, 8851, Pitch_bend_c, 2, 7792
4, 8852, Pitch_bend_c, 2, 7992
4, 8853, Pitch_bend_c, 2, 8092
4, 8854, Pitch_bend_c, 2, 8192
4, 8856, Pitch_bend_c, 2, 7542
4, 8856, Control_c, 2, 7, 119
4, 8857, Pitch_bend_c, 2, 7792
4, 8858, Pitch_bend_c, 2, 7992
4, 8859, Pitch_bend_c, 2, 8092
4, 8860, Pitch_bend_c, 2, 8192
4, 8862, Pitch_bend_c, 2, 7542
4, 8862, Control_c, 2, 7, 121
4, 8863, Pitch_bend_c, 2, 7792
4, 8864, Pitch_bend_c, 2, 7992
4, 8865, Pitch_bend_c, 2, 8092
4, 8866, Pitch_bend_c, 2, 8192
4, 8868, Pitch_bend_c, 2, 7542
4, 8868, Control_c, 2, 7, 122
4, 8869, Pitch_bend_c, 2, 7792
4, 8870, Pitch_bend_c, 2, 7992
4, 8871, Pitch_bend_c, 2, 8092
4, 8872, Pitch_bend_c, 2, 8192
4, 8874, Pitch_bend_c, 2, 7542
4, 8874, Control_c, 2, 7, 123
4, 8875, Pitch_bend_c, 2, 7792
4, 8876, Pitch_bend_c, 2, 7992
4, 8877, Pitch_bend_c, 2, 8092
4, 8878, Pitch_bend_c, 2, 8192
4, 8880, Pitch_bend_c, 2, 7542
4, 8880, Control_c, 2, 7, 124
4, 8881, Pitch_bend_c, 2, 7792
4, 8882, Pitch_bend_c, 2, 7992
4, 8883, Pitch_bend_c, 2, 8092
4, 8884, Pitch_bend_c, 2, 8192
4, 8886, Pitch_bend_c, 2, 7542
4, 8886, Control_c, 2, 7, 124
4, 8887, Pitch_bend_c, 2, 7792
4, 8888, Pitch_bend_c, 2, 7992
4, 8889, Pitch_bend_c, 2, 8092
4, 8890, Pitch_bend_c, 2, 8192
4, 8892, Pitch_bend_c, 2, 7542
4, 8892, Control_c, 2, 7, 124
4, 8893, Pitch_bend_c, 2, 7792
4, 8894, Pitch_bend_c, 2, 7992
4, 8895, Pitch_bend_c, 2, 8092
4, 8896, Pitch_bend_c, 2, 8192
4, 8898, Pitch_bend_c, 2, 7542
4, 8898, Control_c, 2, 7, 126
4, 8899, Pitch_bend_c, 2, 7792
4, 8900, Pitch_bend_c, 2, 7992
4, 8901, Pitch_bend_c, 2, 8092
4, 8902, Pitch_bend_c, 2, 8192
4, 8904, Control_c, 2, 7, 126
4, 8904, Pitch_bend_c, 2, 7542
4, 8905, Pitch_bend_c, 2, 7792
4, 8906, Pitch_bend_c, 2, 7992
4, 8907, Pitch_bend_c, 2, 8092
4, 8908, Pitch_bend_c, 2, 8192
4, 8910, Pitch_bend_c, 2, 7542
4, 8910, Control_c, 2, 7, 126
4, 8911, Pitch_bend_c, 2, 7792
4, 8912, Pitch_bend_c, 2, 7992
4, 8913, Pitch_bend_c, 2, 8092
4, 8914, Pitch_bend_c, 2, 8192
4, 8916, Pitch_bend_c, 2, 7542
4, 8916, Control_c, 2, 7, 126
4, 8917, Pitch_bend_c, 2, 7792
4, 8918, Pitch_bend_c, 2, 7992
4, 8919, Pitch_bend_c, 2, 8092
4, 8920, Pitch_bend_c, 2, 8192
4, 8922, Pitch_bend_c, 2, 7542
4, 8923, Pitch_bend_c, 2, 7792
4, 8924, Pitch_bend_c, 2, 7992
4, 8925, Pitch_bend_c, 2, 8092
4, 8926, Note_on_c, 2, 59, 0
4, 8926, Pitch_bend_c, 2, 8192
4, 8928, Pitch_bend_c, 2, 7542
4, 8928, Note_on_c, 2, 57, 126
4, 8929, Pitch_bend_c, 2, 7792
4, 8930, Pitch_bend_c, 2, 7992
4, 8931, Pitch_bend_c, 2, 8092
4, 8932, Pitch_bend_c, 2, 8192
4, 8934, Pitch_bend_c, 2, 7542
4, 8935, Pitch_bend_c, 2, 7792
4, 8936, Pitch_bend_c, 2, 7992
4, 8937, Pitch_bend_c, 2, 8092
4, 8938, Pitch_bend_c, 2, 8192
4, 8940, Pitch_bend_c, 2, 7542
4, 8941, Pitch_bend_c, 2, 7792
4, 8942, Pitch_bend_c, 2, 7992
4, 8943, Pitch_bend_c, 2, 8092
4, 8944, Pitch_bend_c, 2, 8192
4, 8946, Pitch_bend_c, 2, 7542
4, 8947, Pitch_bend_c, 2, 7792
4, 8948, Pitch_bend_c, 2, 7992
4, 8949, Pitch_bend_c, 2, 8092
4, 8950, Pitch_bend_c, 2, 8192
4, 8952, Pitch_bend_c, 2, 7542
4, 8953, Pitch_bend_c, 2, 7792
4, 8954, Pitch_bend_c, 2, 7992
4, 8955, Pitch_bend_c, 2, 8092
4, 8956, Pitch_bend_c, 2, 8192
4, 8958, Pitch_bend_c, 2, 7542
4, 8959, Pitch_bend_c, 2, 7792
4, 8960, Pitch_bend_c, 2, 7992
4, 8961, Pitch_bend_c, 2, 8092
4, 8962, Pitch_bend_c, 2, 8192
4, 8964, Pitch_bend_c, 2, 7542
4, 8965, Pitch_bend_c, 2, 7792
4, 8966, Pitch_bend_c, 2, 7992
4, 8967, Pitch_bend_c, 2, 8092
4, 8968, Pitch_bend_c, 2, 8192
4, 8970, Pitch_bend_c, 2, 7542
4, 8971, Pitch_bend_c, 2, 7792
4, 8972, Pitch_bend_c, 2, 7992
4, 8973, Pitch_bend_c, 2, 8092
4, 8974, Pitch_bend_c, 2, 8192
4, 8976, Pitch_bend_c, 2, 7542
4, 8977, Pitch_bend_c, 2, 7792
4, 8978, Pitch_bend_c, 2, 7992
4, 8979, Pitch_bend_c, 2, 8092
4, 8980, Pitch_bend_c, 2, 8192
4, 8982, Pitch_bend_c, 2, 7542
4, 8983, Pitch_bend_c, 2, 7792
4, 8984, Pitch_bend_c, 2, 7992
4, 8985, Pitch_bend_c, 2, 8092
4, 8986, Pitch_bend_c, 2, 8192
4, 8988, Pitch_bend_c, 2, 7542
4, 8989, Pitch_bend_c, 2, 7792
4, 8990, Pitch_bend_c, 2, 7992
4, 8991, Pitch_bend_c, 2, 8092
4, 8992, Pitch_bend_c, 2, 8192
4, 8994, Pitch_bend_c, 2, 7542
4, 8995, Pitch_bend_c, 2, 7792
4, 8996, Pitch_bend_c, 2, 7992
4, 8997, Pitch_bend_c, 2, 8092
4, 8998, Pitch_bend_c, 2, 8192
4, 9000, Pitch_bend_c, 2, 7542
4, 9001, Pitch_bend_c, 2, 7792
4, 9002, Pitch_bend_c, 2, 7992
4, 9003, Pitch_bend_c, 2, 8092
4, 9004, Pitch_bend_c, 2, 8192
4, 9006, Pitch_bend_c, 2, 7542
4, 9007, Pitch_bend_c, 2, 7792
4, 9008, Pitch_bend_c, 2, 7992
4, 9009, Pitch_bend_c, 2, 8092
4, 9010, Pitch_bend_c, 2, 8192
4, 9012, Pitch_bend_c, 2, 7542
4, 9013, Pitch_bend_c, 2, 7792
4, 9014, Pitch_bend_c, 2, 7992
4, 9015, Pitch_bend_c, 2, 8092
4, 9016, Pitch_bend_c, 2, 8192
4, 9018, Pitch_bend_c, 2, 7542
4, 9019, Pitch_bend_c, 2, 7792
4, 9020, Pitch_bend_c, 2, 7992
4, 9021, Pitch_bend_c, 2, 8092
4, 9022, Note_on_c, 2, 57, 0
4, 9022, Pitch_bend_c, 2, 8192
4, 9024, Note_on_c, 2, 83, 121
4, 9030, Note_on_c, 2, 83, 0
4, 9032, Note_on_c, 2, 80, 121
4, 9038, Note_on_c, 2, 80, 0
4, 9040, Note_on_c, 2, 83, 123
4, 9046, Note_on_c, 2, 83, 0
4, 9048, Note_on_c, 2, 88, 121
4, 9054, Note_on_c, 2, 88, 0
4, 9056, Note_on_c, 2, 83, 121
4, 9062, Note_on_c, 2, 83, 0
4, 9064, Note_on_c, 2, 88, 123
4, 9070, Note_on_c, 2, 88, 0
4, 9072, Note_on_c, 2, 83, 121
4, 9078, Note_on_c, 2, 83, 0
4, 9080, Note_on_c, 2, 80, 121
4, 9086, Note_on_c, 2, 80, 0
4, 9088, Note_on_c, 2, 83, 123
4, 9094, Note_on_c, 2, 83, 0
4, 9096, Note_on_c, 2, 88, 121
4, 9102, Note_on_c, 2, 88, 0
4, 9104, Note_on_c, 2, 83, 121
4, 9110, Note_on_c, 2, 83, 0
4, 9112, Note_on_c, 2, 88, 123
4, 9118, Note_on_c, 2, 88, 0
4, 9120, Note_on_c, 2, 83, 121
4, 9126, Note_on_c, 2, 83, 0
4, 9128, Note_on_c, 2, 80, 121
4, 9134, Note_on_c, 2, 80, 0
4, 9136, Note_on_c, 2, 83, 123
4, 9142, Note_on_c, 2, 83, 0
4, 9144, Note_on_c, 2, 87, 121
4, 9150, Note_on_c, 2, 87, 0
4, 9152, Note_on_c, 2, 83, 121
4, 9158, Note_on_c, 2, 83, 0
4, 9160, Note_on_c, 2, 87, 123
4, 9166, Note_on_c, 2, 87, 0
4, 9168, Note_on_c, 2, 83, 121
4, 9174, Note_on_c, 2, 83, 0
4, 9176, Note_on_c, 2, 80, 121
4, 9182, Note_on_c, 2, 80, 0
4, 9184, Note_on_c, 2, 83, 123
4, 9190, Note_on_c, 2, 83, 0
4, 9192, Note_on_c, 2, 87, 121
4, 9198, Note_on_c, 2, 87, 0
4, 9200, Note_on_c, 2, 83, 121
4, 9206, Note_on_c, 2, 83, 0
4, 9208, Note_on_c, 2, 87, 123
4, 9214, Note_on_c, 2, 87, 0
4, 9216, Control_c, 2, 7, 103
4, 9216, Note_on_c, 2, 85, 124
4, 9222, Control_c, 2, 7, 108
4, 9228, Control_c, 2, 7, 112
4, 9261, Note_on_c, 2, 85, 0
4, 9312, Note_on_c, 2, 85, 121
4, 9318, Note_on_c, 2, 85, 0
4, 9320, Note_on_c, 2, 82, 121
4, 9326, Note_on_c, 2, 82, 0
4, 9328, Note_on_c, 2, 85, 123
4, 9334, Note_on_c, 2, 85, 0
4, 9336, Note_on_c, 2, 90, 121
4, 9342, Note_on_c, 2, 90, 0
4, 9344, Note_on_c, 2, 85, 121
4, 9350, Note_on_c, 2, 85, 0
4, 9352, Note_on_c, 2, 90, 123
4, 9358, Note_on_c, 2, 90, 0
4, 9360, Note_on_c, 2, 85, 121
4, 9366, Note_on_c, 2, 85, 0
4, 9368, Note_on_c, 2, 82, 121
4, 9374, Note_on_c, 2, 82, 0
4, 9376, Note_on_c, 2, 85, 123
4, 9382, Note_on_c, 2, 85, 0
4, 9384, Note_on_c, 2, 90, 121
4, 9390, Note_on_c, 2, 90, 0
4, 9392, Note_on_c, 2, 82, 121
4, 9398, Note_on_c, 2, 82, 0
4, 9400, Note_on_c, 2, 90, 123
4, 9406, Note_on_c, 2, 90, 0
4, 9408, Note_on_c, 2, 85, 121
4, 9414, Note_on_c, 2, 85, 0
4, 9416, Note_on_c, 2, 82, 121
4, 9422, Note_on_c, 2, 82, 0
4, 9424, Note_on_c, 2, 85, 123
4, 9430, Note_on_c, 2, 85, 0
4, 9432, Note_on_c, 2, 88, 121
4, 9438, Note_on_c, 2, 88, 0
4, 9440, Note_on_c, 2, 85, 121
4, 9446, Note_on_c, 2, 85, 0
4, 9448, Note_on_c, 2, 88, 123
4, 9454, Note_on_c, 2, 88, 0
4, 9456, Note_on_c, 2, 85, 121
4, 9462, Note_on_c, 2, 85, 0
4, 9464, Note_on_c, 2, 82, 121
4, 9470, Note_on_c, 2, 82, 0
4, 9472, Note_on_c, 2, 85, 123
4, 9478, Note_on_c, 2, 85, 0
4, 9480, Note_on_c, 2, 88, 121
4, 9486, Note_on_c, 2, 88, 0
4, 9488, Note_on_c, 2, 85, 121
4, 9494, Note_on_c, 2, 85, 0
4, 9496, Note_on_c, 2, 88, 123
4, 9502, Note_on_c, 2, 88, 0
4, 9504, Control_c, 2, 7, 103
4, 9504, Note_on_c, 2, 87, 124
4, 9510, Control_c, 2, 7, 108
4, 9516, Control_c, 2, 7, 112
4, 9549, Note_on_c, 2, 87, 0
4, 9600, Note_on_c, 2, 87, 121
4, 9606, Note_on_c, 2, 87, 0
4, 9608, Note_on_c, 2, 84, 121
4, 9614, Note_on_c, 2, 84, 0
4, 9616, Note_on_c, 2, 87, 123
4, 9622, Note_on_c, 2, 87, 0
4, 9624, Note_on_c, 2, 92, 121
4, 9630, Note_on_c, 2, 92, 0
4, 9632, Note_on_c, 2, 87, 121
4, 9638, Note_on_c, 2, 87, 0
4, 9640, Note_on_c, 2, 92, 123
4, 9646, Note_on_c, 2, 92, 0
4, 9648, Note_on_c, 2, 87, 121
4, 9654, Note_on_c, 2, 87, 0
4, 9656, Note_on_c, 2, 84, 121
4, 9662, Note_on_c, 2, 84, 0
4, 9664, Note_on_c, 2, 87, 123
4, 9670, Note_on_c, 2, 87, 0
4, 9672, Note_on_c, 2, 92, 121
4, 9678, Note_on_c, 2, 92, 0
4, 9680, Note_on_c, 2, 87, 121
4, 9686, Note_on_c, 2, 87, 0
4, 9688, Note_on_c, 2, 92, 123
4, 9694, Note_on_c, 2, 92, 0
4, 9696, Note_on_c, 2, 87, 121
4, 9702, Note_on_c, 2, 87, 0
4, 9704, Note_on_c, 2, 84, 121
4, 9710, Note_on_c, 2, 84, 0
4, 9712, Note_on_c, 2, 87, 123
4, 9718, Note_on_c, 2, 87, 0
4, 9720, Note_on_c, 2, 90, 121
4, 9726, Note_on_c, 2, 90, 0
4, 9728, Note_on_c, 2, 87, 121
4, 9734, Note_on_c, 2, 87, 0
4, 9736, Note_on_c, 2, 90, 123
4, 9742, Note_on_c, 2, 90, 0
4, 9744, Note_on_c, 2, 87, 121
4, 9750, Note_on_c, 2, 87, 0
4, 9752, Note_on_c, 2, 84, 121
4, 9758, Note_on_c, 2, 84, 0
4, 9760, Note_on_c, 2, 87, 123
4, 9766, Note_on_c, 2, 87, 0
4, 9768, Note_on_c, 2, 90, 121
4, 9774, Note_on_c, 2, 90, 0
4, 9776, Note_on_c, 2, 87, 121
4, 9782, Note_on_c, 2, 87, 0
4, 9784, Note_on_c, 2, 90, 123
4, 9790, Note_on_c, 2, 90, 0
4, 9792, Control_c, 2, 7, 103
4, 9792, Note_on_c, 2, 88, 124
4, 9798, Control_c, 2, 7, 108
4, 9804, Control_c, 2, 7, 112
4, 9837, Note_on_c, 2, 88, 0
4, 9888, Note_on_c, 2, 88, 121
4, 9894, Note_on_c, 2, 88, 0
4, 9896, Note_on_c, 2, 85, 121
4, 9902, Note_on_c, 2, 85, 0
4, 9904, Note_on_c, 2, 88, 123
4, 9910, Note_on_c, 2, 88, 0
4, 9912, Note_on_c, 2, 92, 121
4, 9918, Note_on_c, 2, 92, 0
4, 9920, Note_on_c, 2, 88, 121
4, 9926, Note_on_c, 2, 88, 0
4, 9928, Note_on_c, 2, 92, 123
4, 9934, Note_on_c, 2, 92, 0
4, 9936, Note_on_c, 2, 88, 121
4, 9942, Note_on_c, 2, 88, 0
4, 9944, Note_on_c, 2, 85, 121
4, 9950, Note_on_c, 2, 85, 0
4, 9952, Note_on_c, 2, 88, 123
4, 9958, Note_on_c, 2, 88, 0
4, 9960, Note_on_c, 2, 92, 121
4, 9966, Note_on_c, 2, 92, 0
4, 9968, Note_on_c, 2, 88, 121
4, 9974, Note_on_c, 2, 88, 0
4, 9976, Note_on_c, 2, 92, 123
4, 9982, Note_on_c, 2, 92, 0
4, 9984, Note_on_c, 2, 87, 121
4, 9990, Note_on_c, 2, 87, 0
4, 9992, Note_on_c, 2, 83, 121
4, 9998, Note_on_c, 2, 83, 0
4, 10000, Note_on_c, 2, 87, 123
4, 10006, Note_on_c, 2, 87, 0
4, 10008, Note_on_c, 2, 92, 121
4, 10014, Note_on_c, 2, 92, 0
4, 10016, Note_on_c, 2, 87, 121
4, 10022, Note_on_c, 2, 87, 0
4, 10024, Note_on_c, 2, 92, 123
4, 10030, Note_on_c, 2, 92, 0
4, 10032, Note_on_c, 2, 87, 121
4, 10038, Note_on_c, 2, 87, 0
4, 10040, Note_on_c, 2, 83, 121
4, 10046, Note_on_c, 2, 83, 0
4, 10048, Note_on_c, 2, 87, 123
4, 10054, Note_on_c, 2, 87, 0
4, 10056, Note_on_c, 2, 92, 121
4, 10062, Note_on_c, 2, 92, 0
4, 10064, Note_on_c, 2, 87, 121
4, 10070, Note_on_c, 2, 87, 0
4, 10072, Note_on_c, 2, 92, 123
4, 10078, Note_on_c, 2, 92, 0
4, 10080, Note_on_c, 2, 85, 121
4, 10086, Note_on_c, 2, 85, 0
4, 10088, Note_on_c, 2, 81, 121
4, 10094, Note_on_c, 2, 81, 0
4, 10096, Note_on_c, 2, 85, 123
4, 10102, Note_on_c, 2, 85, 0
4, 10104, Note_on_c, 2, 90, 121
4, 10110, Note_on_c, 2, 90, 0
4, 10112, Note_on_c, 2, 85, 121
4, 10118, Note_on_c, 2, 85, 0
4, 10120, Note_on_c, 2, 90, 123
4, 10126, Note_on_c, 2, 90, 0
4, 10128, Note_on_c, 2, 85, 121
4, 10134, Note_on_c, 2, 85, 0
4, 10136, Note_on_c, 2, 81, 121
4, 10142, Note_on_c, 2, 81, 0
4, 10144, Note_on_c, 2, 85, 123
4, 10150, Note_on_c, 2, 85, 0
4, 10152, Note_on_c, 2, 90, 121
4, 10158, Note_on_c, 2, 90, 0
4, 10160, Note_on_c, 2, 85, 121
4, 10166, Note_on_c, 2, 85, 0
4, 10168, Note_on_c, 2, 90, 123
4, 10174, Note_on_c, 2, 90, 0
4, 10176, Note_on_c, 2, 83, 121
4, 10182, Note_on_c, 2, 83, 0
4, 10184, Note_on_c, 2, 80, 121
4, 10190, Note_on_c, 2, 80, 0
4, 10192, Note_on_c, 2, 83, 123
4, 10198, Note_on_c, 2, 83, 0
4, 10200, Note_on_c, 2, 88, 121
4, 10206, Note_on_c, 2, 88, 0
4, 10208, Note_on_c, 2, 83, 121
4, 10214, Note_on_c, 2, 83, 0
4, 10216, Note_on_c, 2, 88, 123
4, 10222, Note_on_c, 2, 88, 0
4, 10224, Note_on_c, 2, 83, 121
4, 10230, Note_on_c, 2, 83, 0
4, 10232, Note_on_c, 2, 80, 121
4, 10238, Note_on_c, 2, 80, 0
4, 10240, Note_on_c, 2, 83, 123
4, 10246, Note_on_c, 2, 83, 0
4, 10248, Note_on_c, 2, 88, 121
4, 10254, Note_on_c, 2, 88, 0
4, 10256, Note_on_c, 2, 83, 121
4, 10262, Note_on_c, 2, 83, 0
4, 10264, Note_on_c, 2, 88, 123
4, 10270, Note_on_c, 2, 88, 0
4, 10272, Note_on_c, 2, 81, 121
4, 10278, Note_on_c, 2, 81, 0
4, 10280, Note_on_c, 2, 78, 121
4, 10286, Note_on_c, 2, 78, 0
4, 10288, Note_on_c, 2, 81, 123
4, 10294, Note_on_c, 2, 81, 0
4, 10296, Note_on_c, 2, 87, 121
4, 10302, Note_on_c, 2, 87, 0
4, 10304, Note_on_c, 2, 81, 121
4, 10310, Note_on_c, 2, 81, 0
4, 10312, Note_on_c, 2, 87, 123
4, 10318, Note_on_c, 2, 87, 0
4, 10320, Note_on_c, 2, 81, 121
4, 10326, Note_on_c, 2, 81, 0
4, 10328, Note_on_c, 2, 78, 121
4, 10334, Note_on_c, 2, 78, 0
4, 10336, Note_on_c, 2, 81, 123
4, 10342, Note_on_c, 2, 81, 0
4, 10344, Note_on_c, 2, 87, 121
4, 10350, Note_on_c, 2, 87, 0
4, 10352, Note_on_c, 2, 81, 121
4, 10358, Note_on_c, 2, 81, 0
4, 10360, Note_on_c, 2, 87, 123
4, 10366, Note_on_c, 2, 87, 0
4, 10368, Note_on_c, 2, 80, 121
4, 10374, Note_on_c, 2, 80, 0
4, 10376, Note_on_c, 2, 76, 121
4, 10382, Note_on_c, 2, 76, 0
4, 10384, Note_on_c, 2, 80, 123
4, 10390, Note_on_c, 2, 80, 0
4, 10392, Note_on_c, 2, 85, 121
4, 10398, Note_on_c, 2, 85, 0
4, 10400, Note_on_c, 2, 80, 121
4, 10406, Note_on_c, 2, 80, 0
4, 10408, Note_on_c, 2, 85, 123
4, 10414, Note_on_c, 2, 85, 0
4, 10416, Note_on_c, 2, 80, 121
4, 10422, Note_on_c, 2, 80, 0
4, 10424, Note_on_c, 2, 76, 121
4, 10430, Note_on_c, 2, 76, 0
4, 10432, Note_on_c, 2, 80, 123
4, 10438, Note_on_c, 2, 80, 0
4, 10440, Note_on_c, 2, 85, 121
4, 10446, Note_on_c, 2, 85, 0
4, 10448, Note_on_c, 2, 80, 121
4, 10454, Note_on_c, 2, 80, 0
4, 10456, Note_on_c, 2, 85, 123
4, 10462, Note_on_c, 2, 85, 0
4, 10464, Note_on_c, 2, 80, 121
4, 10470, Note_on_c, 2, 80, 0
4, 10472, Note_on_c, 2, 75, 121
4, 10478, Note_on_c, 2, 75, 0
4, 10480, Note_on_c, 2, 80, 123
4, 10486, Note_on_c, 2, 80, 0
4, 10488, Note_on_c, 2, 85, 121
4, 10494, Note_on_c, 2, 85, 0
4, 10496, Note_on_c, 2, 80, 121
4, 10502, Note_on_c, 2, 80, 0
4, 10504, Note_on_c, 2, 85, 123
4, 10510, Note_on_c, 2, 85, 0
4, 10512, Note_on_c, 2, 80, 121
4, 10518, Note_on_c, 2, 80, 0
4, 10520, Note_on_c, 2, 75, 121
4, 10526, Note_on_c, 2, 75, 0
4, 10528, Note_on_c, 2, 80, 123
4, 10534, Note_on_c, 2, 80, 0
4, 10536, Note_on_c, 2, 85, 121
4, 10542, Note_on_c, 2, 85, 0
4, 10544, Note_on_c, 2, 80, 121
4, 10550, Note_on_c, 2, 80, 0
4, 10552, Note_on_c, 2, 85, 123
4, 10558, Note_on_c, 2, 85, 0
4, 10560, Note_on_c, 2, 80, 121
4, 10566, Note_on_c, 2, 80, 0
4, 10568, Note_on_c, 2, 75, 121
4, 10574, Note_on_c, 2, 75, 0
4, 10576, Note_on_c, 2, 80, 123
4, 10582, Note_on_c, 2, 80, 0
4, 10584, Note_on_c, 2, 84, 121
4, 10590, Note_on_c, 2, 84, 0
4, 10592, Note_on_c, 2, 80, 121
4, 10598, Note_on_c, 2, 80, 0
4, 10600, Note_on_c, 2, 84, 123
4, 10606, Note_on_c, 2, 84, 0
4, 10608, Note_on_c, 2, 80, 121
4, 10614, Note_on_c, 2, 80, 0
4, 10616, Note_on_c, 2, 75, 121
4, 10622, Note_on_c, 2, 75, 0
4, 10624, Note_on_c, 2, 80, 123
4, 10630, Note_on_c, 2, 80, 0
4, 10632, Note_on_c, 2, 84, 121
4, 10638, Note_on_c, 2, 84, 0
4, 10640, Note_on_c, 2, 80, 121
4, 10646, Note_on_c, 2, 80, 0
4, 10648, Note_on_c, 2, 84, 123
4, 10654, Note_on_c, 2, 84, 0
4, 10656, Note_on_c, 2, 85, 121
4, 10701, Note_on_c, 2, 85, 0
4, 10728, Control_c, 2, 11, 120
4, 10728, Note_on_c, 2, 61, 117
4, 10728, Note_on_c, 2, 73, 121
4, 10748, Note_on_c, 2, 61, 0
4, 10748, Note_on_c, 2, 73, 0
4, 10752, Control_c, 2, 7, 126
4, 10752, Control_c, 2, 7, 118
4, 10752, Note_on_c, 2, 68, 121
4, 10752, Note_on_c, 2, 80, 126
4, 10755, Control_c, 2, 7, 121
4, 10758, Control_c, 2, 7, 123
4, 10764, Control_c, 2, 7, 126
4, 10767, Note_on_c, 2, 68, 0
4, 10767, Note_on_c, 2, 80, 0
4, 10776, Note_on_c, 2, 78, 123
4, 10786, Note_on_c, 2, 78, 0
4, 10788, Note_on_c, 2, 76, 122
4, 10798, Note_on_c, 2, 76, 0
4, 10800, Control_c, 2, 7, 118
4, 10800, Note_on_c, 2, 78, 123
4, 10803, Control_c, 2, 7, 121
4, 10806, Control_c, 2, 7, 123
4, 10812, Control_c, 2, 7, 126
4, 10820, Note_on_c, 2, 78, 0
4, 10824, Control_c, 2, 7, 118
4, 10824, Note_on_c, 2, 80, 126
4, 10827, Control_c, 2, 7, 121
4, 10830, Control_c, 2, 7, 123
4, 10836, Control_c, 2, 7, 126
4, 10844, Note_on_c, 2, 80, 0
4, 10848, Control_c, 2, 7, 118
4, 10848, Note_on_c, 2, 81, 126
4, 10851, Control_c, 2, 7, 121
4, 10854, Control_c, 2, 7, 121
4, 10860, Control_c, 2, 7, 126
4, 10868, Note_on_c, 2, 81, 0
4, 10872, Control_c, 2, 7, 118
4, 10872, Note_on_c, 2, 80, 124
4, 10878, Control_c, 2, 7, 121
4, 10884, Control_c, 2, 7, 123
4, 10890, Control_c, 2, 7, 126
4, 10917, Note_on_c, 2, 80, 0
4, 10920, Control_c, 2, 7, 118
4, 10920, Note_on_c, 2, 73, 124
4, 10923, Control_c, 2, 7, 121
4, 10926, Control_c, 2, 7, 123
4, 10932, Control_c, 2, 7, 126
4, 10940, Note_on_c, 2, 73, 0
4, 10944, Control_c, 2, 7, 118
4, 10944, Note_on_c, 2, 80, 121
4, 10947, Control_c, 2, 7, 121
4, 10950, Control_c, 2, 7, 123
4, 10956, Control_c, 2, 7, 126
4, 10959, Note_on_c, 2, 80, 0
4, 10968, Note_on_c, 2, 78, 123
4, 10978, Note_on_c, 2, 78, 0
4, 10980, Note_on_c, 2, 76, 122
4, 10990, Note_on_c, 2, 76, 0
4, 10992, Control_c, 2, 7, 118
4, 10992, Note_on_c, 2, 78, 123
4, 10995, Control_c, 2, 7, 121
4, 10998, Control_c, 2, 7, 123
4, 11004, Control_c, 2, 7, 126
4, 11012, Note_on_c, 2, 78, 0
4, 11016, Control_c, 2, 7, 118
4, 11016, Note_on_c, 2, 80, 126
4, 11019, Control_c, 2, 7, 121
4, 11022, Control_c, 2, 7, 123
4, 11028, Control_c, 2, 7, 126
4, 11036, Note_on_c, 2, 80, 0
4, 11040, Control_c, 2, 7, 118
4, 11040, Note_on_c, 2, 81, 126
4, 11043, Control_c, 2, 7, 121
4, 11046, Control_c, 2, 7, 123
4, 11052, Control_c, 2, 7, 126
4, 11060, Note_on_c, 2, 81, 0
4, 11064, Control_c, 2, 7, 118
4, 11064, Note_on_c, 2, 80, 124
4, 11070, Control_c, 2, 7, 121
4, 11076, Control_c, 2, 7, 121
4, 11082, Control_c, 2, 7, 126
4, 11109, Note_on_c, 2, 80, 0
4, 11112, Control_c, 2, 7, 118
4, 11112, Note_on_c, 2, 73, 124
4, 11115, Control_c, 2, 7, 121
4, 11118, Control_c, 2, 7, 123
4, 11124, Control_c, 2, 7, 126
4, 11132, Note_on_c, 2, 73, 0
4, 11136, Control_c, 2, 7, 118
4, 11136, Note_on_c, 2, 81, 124
4, 11139, Control_c, 2, 7, 121
4, 11142, Control_c, 2, 7, 123
4, 11148, Control_c, 2, 7, 126
4, 11156, Note_on_c, 2, 81, 0
4, 11160, Control_c, 2, 7, 118
4, 11160, Note_on_c, 2, 80, 126
4, 11166, Control_c, 2, 7, 121
4, 11172, Control_c, 2, 7, 123
4, 11178, Control_c, 2, 7, 126
4, 11205, Note_on_c, 2, 80, 0
4, 11208, Control_c, 2, 7, 118
4, 11208, Note_on_c, 2, 78, 124
4, 11211, Control_c, 2, 7, 121
4, 11214, Control_c, 2, 7, 123
4, 11220, Control_c, 2, 7, 126
4, 11228, Note_on_c, 2, 78, 0
4, 11232, Control_c, 2, 7, 118
4, 11232, Note_on_c, 2, 76, 123
4, 11235, Control_c, 2, 7, 121
4, 11238, Control_c, 2, 7, 123
4, 11244, Control_c, 2, 7, 126
4, 11252, Note_on_c, 2, 76, 0
4, 11256, Note_on_c, 2, 75, 122
4, 11266, Note_on_c, 2, 75, 0
4, 11268, Note_on_c, 2, 73, 121
4, 11278, Note_on_c, 2, 73, 0
4, 11280, Note_on_c, 2, 75, 126
4, 11286, Note_on_c, 2, 75, 0
4, 11286, Note_on_c, 2, 76, 121
4, 11292, Note_on_c, 2, 76, 0
4, 11292, Note_on_c, 2, 75, 118
4, 11298, Note_on_c, 2, 75, 0
4, 11298, Note_on_c, 2, 76, 115
4, 11304, Note_on_c, 2, 76, 0
4, 11304, Note_on_c, 2, 75, 112
4, 11310, Note_on_c, 2, 75, 0
4, 11310, Note_on_c, 2, 76, 108
4, 11316, Note_on_c, 2, 76, 0
4, 11316, Note_on_c, 2, 75, 103
4, 11322, Note_on_c, 2, 75, 0
4, 11322, Note_on_c, 2, 76, 103
4, 11328, Note_on_c, 2, 76, 0
4, 11328, Control_c, 2, 1, 100
4, 11328, Control_c, 2, 11, 100
4, 11328, Control_c, 2, 7, 121
4, 11328, Note_on_c, 2, 61, 123
4, 11348, Note_on_c, 2, 61, 0
4, 11352, Note_on_c, 2, 80, 121
4, 11372, Note_on_c, 2, 80, 0
4, 11376, Note_on_c, 2, 80, 121
4, 11396, Note_on_c, 2, 80, 0
4, 11400, Note_on_c, 2, 80, 121
4, 11420, Note_on_c, 2, 80, 0
4, 11424, Note_on_c, 2, 80, 123
4, 11444, Note_on_c, 2, 80, 0
4, 11448, Note_on_c, 2, 80, 121
4, 11468, Note_on_c, 2, 80, 0
4, 11472, Note_on_c, 2, 80, 123
4, 11492, Note_on_c, 2, 80, 0
4, 11496, Note_on_c, 2, 80, 121
4, 11516, Note_on_c, 2, 80, 0
4, 11520, Note_on_c, 2, 81, 123
4, 11540, Note_on_c, 2, 81, 0
4, 11544, Note_on_c, 2, 81, 121
4, 11564, Note_on_c, 2, 81, 0
4, 11568, Note_on_c, 2, 82, 123
4, 11588, Note_on_c, 2, 82, 0
4, 11592, Note_on_c, 2, 82, 121
4, 11612, Note_on_c, 2, 82, 0
4, 11616, Note_on_c, 2, 83, 123
4, 11636, Note_on_c, 2, 83, 0
4, 11640, Note_on_c, 2, 83, 121
4, 11660, Note_on_c, 2, 83, 0
4, 11664, Note_on_c, 2, 84, 123
4, 11684, Note_on_c, 2, 84, 0
4, 11688, Note_on_c, 2, 84, 121
4, 11708, Note_on_c, 2, 84, 0
4, 11712, Note_on_c, 2, 85, 126
4, 11718, Note_on_c, 2, 85, 0
4, 11718, Note_on_c, 2, 87, 124
4, 11724, Note_on_c, 2, 87, 0
4, 11724, Note_on_c, 2, 85, 123
4, 11730, Note_on_c, 2, 85, 0
4, 11730, Note_on_c, 2, 87, 122
4, 11736, Note_on_c, 2, 87, 0
4, 11736, Note_on_c, 2, 85, 121
4, 11742, Note_on_c, 2, 85, 0
4, 11742, Note_on_c, 2, 87, 119
4, 11748, Note_on_c, 2, 87, 0
4, 11748, Note_on_c, 2, 85, 118
4, 11754, Note_on_c, 2, 85, 0
4, 11754, Note_on_c, 2, 87, 117
4, 11760, Note_on_c, 2, 87, 0
4, 11760, Note_on_c, 2, 85, 115
4, 11766, Note_on_c, 2, 85, 0
4, 11766, Note_on_c, 2, 87, 113
4, 11772, Note_on_c, 2, 87, 0
4, 11772, Note_on_c, 2, 85, 112
4, 11778, Note_on_c, 2, 85, 0
4, 11778, Note_on_c, 2, 87, 112
4, 11784, Note_on_c, 2, 87, 0
4, 11784, Note_on_c, 2, 85, 112
4, 11790, Note_on_c, 2, 85, 0
4, 11790, Note_on_c, 2, 87, 111
4, 11796, Note_on_c, 2, 87, 0
4, 11796, Note_on_c, 2, 85, 108
4, 11802, Note_on_c, 2, 85, 0
4, 11802, Note_on_c, 2, 87, 110
4, 11808, Note_on_c, 2, 87, 0
4, 11808, Note_on_c, 2, 85, 110
4, 11814, Note_on_c, 2, 85, 0
4, 11814, Note_on_c, 2, 87, 108
4, 11820, Note_on_c, 2, 87, 0
4, 11820, Note_on_c, 2, 85, 108
4, 11826, Note_on_c, 2, 85, 0
4, 11826, Note_on_c, 2, 87, 107
4, 11832, Note_on_c, 2, 87, 0
4, 11832, Note_on_c, 2, 85, 106
4, 11838, Note_on_c, 2, 85, 0
4, 11838, Note_on_c, 2, 87, 105
4, 11844, Note_on_c, 2, 87, 0
4, 11844, Note_on_c, 2, 85, 104
4, 11850, Note_on_c, 2, 85, 0
4, 11850, Note_on_c, 2, 87, 104
4, 11856, Note_on_c, 2, 87, 0
4, 11856, Note_on_c, 2, 85, 103
4, 11862, Note_on_c, 2, 85, 0
4, 11862, Note_on_c, 2, 87, 102
4, 11868, Note_on_c, 2, 87, 0
4, 11868, Note_on_c, 2, 85, 102
4, 11874, Note_on_c, 2, 85, 0
4, 11874, Note_on_c, 2, 87, 100
4, 11880, Note_on_c, 2, 87, 0
4, 11880, Note_on_c, 2, 85, 100
4, 11886, Note_on_c, 2, 85, 0
4, 11886, Note_on_c, 2, 87, 97
4, 11892, Note_on_c, 2, 87, 0
4, 11892, Note_on_c, 2, 85, 97
4, 11898, Note_on_c, 2, 85, 0
4, 11898, Note_on_c, 2, 87, 97
4, 11904, Note_on_c, 2, 87, 0
4, 11904, Note_on_c, 2, 85, 96
4, 11910, Note_on_c, 2, 85, 0
4, 11910, Note_on_c, 2, 87, 96
4, 11916, Note_on_c, 2, 87, 0
4, 11916, Note_on_c, 2, 85, 94
4, 11922, Note_on_c, 2, 85, 0
4, 11922, Note_on_c, 2, 87, 94
4, 11928, Note_on_c, 2, 87, 0
4, 11928, Note_on_c, 2, 85, 94
4, 11934, Note_on_c, 2, 85, 0
4, 11934, Note_on_c, 2, 87, 94
4, 11940, Note_on_c, 2, 87, 0
4, 11940, Note_on_c, 2, 85, 94
4, 11946, Note_on_c, 2, 85, 0
4, 11946, Note_on_c, 2, 87, 94
4, 11952, Note_on_c, 2, 87, 0
4, 11952, Note_on_c, 2, 85, 94
4, 11958, Note_on_c, 2, 85, 0
4, 11958, Note_on_c, 2, 87, 94
4, 11964, Note_on_c, 2, 87, 0
4, 11964, Note_on_c, 2, 85, 90
4, 11970, Note_on_c, 2, 85, 0
4, 11970, Note_on_c, 2, 87, 90
4, 11976, Note_on_c, 2, 87, 0
4, 11976, Note_on_c, 2, 85, 90
4, 11982, Note_on_c, 2, 85, 0
4, 11982, Note_on_c, 2, 87, 90
4, 11988, Note_on_c, 2, 87, 0
4, 11988, Note_on_c, 2, 85, 90
4, 11994, Note_on_c, 2, 85, 0
4, 11994, Note_on_c, 2, 87, 90
4, 12000, Note_on_c, 2, 87, 0
4, 12000, Note_on_c, 2, 85, 90
4, 12006, Note_on_c, 2, 85, 0
4, 12006, Note_on_c, 2, 87, 90
4, 12012, Note_on_c, 2, 87, 0
4, 12012, Note_on_c, 2, 85, 90
4, 12018, Note_on_c, 2, 85, 0
4, 12018, Note_on_c, 2, 87, 90
4, 12024, Note_on_c, 2, 87, 0
4, 12024, Note_on_c, 2, 85, 88
4, 12030, Note_on_c, 2, 85, 0
4, 12030, Note_on_c, 2, 87, 88
4, 12036, Note_on_c, 2, 87, 0
4, 12036, Note_on_c, 2, 85, 88
4, 12042, Note_on_c, 2, 85, 0
4, 12042, Note_on_c, 2, 87, 88
4, 12048, Note_on_c, 2, 87, 0
4, 12048, Note_on_c, 2, 85, 88
4, 12054, Note_on_c, 2, 85, 0
4, 12054, Note_on_c, 2, 87, 88
4, 12060, Note_on_c, 2, 87, 0
4, 12060, Note_on_c, 2, 85, 88
4, 12066, Note_on_c, 2, 85, 0
4, 12066, Note_on_c, 2, 87, 88
4, 12072, Note_on_c, 2, 87, 0
4, 12072, Note_on_c, 2, 85, 85
4, 12078, Note_on_c, 2, 85, 0
4, 12078, Note_on_c, 2, 87, 85
4, 12084, Note_on_c, 2, 87, 0
4, 12084, Note_on_c, 2, 85, 85
4, 12090, Note_on_c, 2, 85, 0
4, 12090, Note_on_c, 2, 87, 85
4, 12096, Note_on_c, 2, 87, 0
4, 12096, Control_c, 2, 1, 50
4, 12096, Control_c, 2, 7, 121
4, 12096, Note_on_c, 2, 85, 121
4, 12108, Note_on_c, 2, 85, 0
4, 12108, Note_on_c, 2, 87, 121
4, 12120, Note_on_c, 2, 87, 0
4, 12120, Note_on_c, 2, 85, 121
4, 12132, Note_on_c, 2, 85, 0
4, 12132, Note_on_c, 2, 87, 121
4, 12144, Note_on_c, 2, 87, 0
4, 12144, Note_on_c, 2, 85, 121
4, 12204, Note_on_c, 2, 85, 0
4, 12204, Note_on_c, 2, 87, 121
4, 12216, Note_on_c, 2, 87, 0
4, 12216, Note_on_c, 2, 85, 121
4, 12228, Note_on_c, 2, 85, 0
4, 12228, Note_on_c, 2, 87, 121
4, 12240, Note_on_c, 2, 87, 0
4, 12240, Note_on_c, 2, 85, 121
4, 12300, Note_on_c, 2, 85, 0
4, 12300, Note_on_c, 2, 87, 123
4, 12312, Note_on_c, 2, 87, 0
4, 12312, Note_on_c, 2, 85, 121
4, 12324, Note_on_c, 2, 85, 0
4, 12324, Note_on_c, 2, 87, 123
4, 12336, Note_on_c, 2, 87, 0
4, 12336, Note_on_c, 2, 85, 121
4, 12348, Note_on_c, 2, 85, 0
4, 12348, Note_on_c, 2, 87, 123
4, 12360, Note_on_c, 2, 87, 0
4, 12360, Note_on_c, 2, 85, 121
4, 12372, Note_on_c, 2, 85, 0
4, 12372, Note_on_c, 2, 87, 123
4, 12384, Note_on_c, 2, 87, 0
4, 12384, Note_on_c, 2, 85, 123
4, 12390, Note_on_c, 2, 85, 0
4, 12390, Note_on_c, 2, 87, 122
4, 12396, Note_on_c, 2, 87, 0
4, 12396, Note_on_c, 2, 85, 121
4, 12402, Note_on_c, 2, 85, 0
4, 12402, Note_on_c, 2, 87, 119
4, 12408, Note_on_c, 2, 87, 0
4, 12408, Note_on_c, 2, 85, 118
4, 12414, Note_on_c, 2, 85, 0
4, 12414, Note_on_c, 2, 87, 117
4, 12420, Note_on_c, 2, 87, 0
4, 12420, Note_on_c, 2, 85, 115
4, 12426, Note_on_c, 2, 85, 0
4, 12426, Note_on_c, 2, 87, 113
4, 12432, Note_on_c, 2, 87, 0
4, 12432, Note_on_c, 2, 85, 112
4, 12438, Note_on_c, 2, 85, 0
4, 12438, Note_on_c, 2, 87, 110
4, 12444, Note_on_c, 2, 87, 0
4, 12444, Note_on_c, 2, 85, 108
4, 12450, Note_on_c, 2, 85, 0
4, 12450, Note_on_c, 2, 87, 105
4, 12456, Note_on_c, 2, 87, 0
4, 12456, Note_on_c, 2, 85, 103
4, 12462, Note_on_c, 2, 85, 0
4, 12462, Note_on_c, 2, 87, 100
4, 12468, Note_on_c, 2, 87, 0
4, 12468, Note_on_c, 2, 85, 97
4, 12474, Note_on_c, 2, 85, 0
4, 12474, Note_on_c, 2, 87, 94
4, 12480, Note_on_c, 2, 87, 0
4, 12480, Note_on_c, 2, 85, 121
4, 12486, Note_on_c, 2, 85, 0
4, 12486, Note_on_c, 2, 87, 123
4, 12492, Note_on_c, 2, 87, 0
4, 12492, Note_on_c, 2, 85, 121
4, 12498, Note_on_c, 2, 85, 0
4, 12498, Note_on_c, 2, 87, 123
4, 12504, Note_on_c, 2, 87, 0
4, 12504, Note_on_c, 2, 85, 121
4, 12510, Note_on_c, 2, 85, 0
4, 12510, Note_on_c, 2, 87, 123
4, 12516, Note_on_c, 2, 87, 0
4, 12516, Note_on_c, 2, 85, 121
4, 12522, Note_on_c, 2, 85, 0
4, 12522, Note_on_c, 2, 87, 123
4, 12528, Note_on_c, 2, 87, 0
4, 12528, Note_on_c, 2, 85, 121
4, 12534, Note_on_c, 2, 85, 0
4, 12534, Note_on_c, 2, 87, 123
4, 12540, Note_on_c, 2, 87, 0
4, 12540, Note_on_c, 2, 85, 121
4, 12546, Note_on_c, 2, 85, 0
4, 12546, Note_on_c, 2, 87, 123
4, 12552, Note_on_c, 2, 87, 0
4, 12552, Note_on_c, 2, 85, 121
4, 12558, Note_on_c, 2, 85, 0
4, 12558, Note_on_c, 2, 87, 123
4, 12564, Note_on_c, 2, 87, 0
4, 12564, Note_on_c, 2, 85, 121
4, 12570, Note_on_c, 2, 85, 0
4, 12570, Note_on_c, 2, 87, 123
4, 12576, Note_on_c, 2, 87, 0
4, 12576, Note_on_c, 2, 85, 121
4, 12582, Note_on_c, 2, 85, 0
4, 12582, Note_on_c, 2, 87, 122
4, 12588, Note_on_c, 2, 87, 0
4, 12588, Note_on_c, 2, 85, 121
4, 12594, Note_on_c, 2, 85, 0
4, 12594, Note_on_c, 2, 87, 121
4, 12600, Note_on_c, 2, 87, 0
4, 12600, Note_on_c, 2, 85, 122
4, 12606, Note_on_c, 2, 85, 0
4, 12606, Note_on_c, 2, 87, 123
4, 12612, Note_on_c, 2, 87, 0
4, 12612, Note_on_c, 2, 85, 124
4, 12618, Note_on_c, 2, 85, 0
4, 12618, Note_on_c, 2, 87, 124
4, 12624, Note_on_c, 2, 87, 0
4, 12624, Note_on_c, 2, 85, 124
4, 12630, Note_on_c, 2, 85, 0
4, 12630, Note_on_c, 2, 87, 125
4, 12636, Note_on_c, 2, 87, 0
4, 12636, Note_on_c, 2, 85, 126
4, 12642, Note_on_c, 2, 85, 0
4, 12642, Note_on_c, 2, 87, 126
4, 12648, Note_on_c, 2, 87, 0
4, 12648, Note_on_c, 2, 85, 126
4, 12654, Note_on_c, 2, 85, 0
4, 12654, Note_on_c, 2, 87, 127
4, 12660, Note_on_c, 2, 87, 0
4, 12660, Note_on_c, 2, 85, 127
4, 12666, Note_on_c, 2, 85, 0
4, 12666, Note_on_c, 2, 87, 127
4, 12672, Note_on_c, 2, 87, 0
4, 12672, Control_c, 2, 7, 126
4, 12672, Control_c, 2, 11, 120
4, 12672, Control_c, 2, 7, 118
4, 12672, Note_on_c, 2, 68, 121
4, 12672, Note_on_c, 2, 80, 123
4, 12675, Control_c, 2, 7, 121
4, 12678, Control_c, 2, 7, 123
4, 12684, Control_c, 2, 7, 126
4, 12688, Note_on_c, 2, 68, 0
4, 12688, Note_on_c, 2, 80, 0
4, 12696, Control_c, 2, 7, 118
4, 12696, Note_on_c, 2, 80, 123
4, 12699, Control_c, 2, 7, 121
4, 12702, Control_c, 2, 7, 123
4, 12708, Control_c, 2, 7, 126
4, 12714, Note_on_c, 2, 80, 0
4, 12720, Control_c, 2, 7, 118
4, 12720, Note_on_c, 2, 80, 124
4, 12723, Control_c, 2, 7, 121
4, 12726, Control_c, 2, 7, 123
4, 12732, Control_c, 2, 7, 126
4, 12736, Note_on_c, 2, 80, 0
4, 12744, Note_on_c, 2, 78, 123
4, 12754, Note_on_c, 2, 78, 0
4, 12756, Note_on_c, 2, 80, 124
4, 12766, Note_on_c, 2, 80, 0
4, 12768, Control_c, 2, 7, 118
4, 12768, Note_on_c, 2, 81, 126
4, 12774, Control_c, 2, 7, 121
4, 12780, Control_c, 2, 7, 123
4, 12786, Control_c, 2, 7, 126
4, 12792, Control_c, 2, 7, 127
4, 12838, Note_on_c, 2, 81, 0
4, 12840, Control_c, 2, 7, 126
4, 12840, Note_on_c, 2, 81, 121
4, 12850, Note_on_c, 2, 81, 0
4, 12852, Note_on_c, 2, 80, 122
4, 12862, Note_on_c, 2, 80, 0
4, 12864, Control_c, 2, 7, 118
4, 12864, Note_on_c, 2, 78, 123
4, 12867, Control_c, 2, 7, 121
4, 12870, Control_c, 2, 7, 123
4, 12876, Control_c, 2, 7, 126
4, 12880, Note_on_c, 2, 78, 0
4, 12888, Control_c, 2, 7, 118
4, 12888, Note_on_c, 2, 78, 123
4, 12891, Control_c, 2, 7, 121
4, 12894, Control_c, 2, 7, 123
4, 12900, Control_c, 2, 7, 126
4, 12908, Note_on_c, 2, 78, 0
4, 12912, Control_c, 2, 7, 118
4, 12912, Note_on_c, 2, 78, 124
4, 12915, Control_c, 2, 7, 121
4, 12918, Control_c, 2, 7, 123
4, 12924, Control_c, 2, 7, 126
4, 12929, Note_on_c, 2, 78, 0
4, 12936, Note_on_c, 2, 76, 123
4, 12946, Note_on_c, 2, 76, 0
4, 12948, Note_on_c, 2, 78, 124
4, 12958, Note_on_c, 2, 78, 0
4, 12960, Control_c, 2, 7, 118
4, 12960, Note_on_c, 2, 80, 126
4, 12966, Control_c, 2, 7, 121
4, 12972, Control_c, 2, 7, 123
4, 12978, Control_c, 2, 7, 126
4, 12984, Control_c, 2, 7, 127
4, 13030, Note_on_c, 2, 80, 0
4, 13032, Control_c, 2, 7, 126
4, 13032, Note_on_c, 2, 80, 121
4, 13042, Note_on_c, 2, 80, 0
4, 13044, Note_on_c, 2, 81, 122
4, 13054, Note_on_c, 2, 81, 0
4, 13056, Control_c, 2, 7, 118
4, 13056, Note_on_c, 2, 83, 123
4, 13059, Control_c, 2, 7, 121
4, 13062, Control_c, 2, 7, 123
4, 13068, Control_c, 2, 7, 126
4, 13072, Note_on_c, 2, 83, 0
4, 13080, Control_c, 2, 7, 118
4, 13080, Note_on_c, 2, 83, 124
4, 13083, Control_c, 2, 7, 121
4, 13086, Control_c, 2, 7, 123
4, 13092, Control_c, 2, 7, 126
4, 13098, Note_on_c, 2, 83, 0
4, 13104, Control_c, 2, 7, 118
4, 13104, Note_on_c, 2, 83, 124
4, 13107, Control_c, 2, 7, 121
4, 13110, Control_c, 2, 7, 123
4, 13116, Control_c, 2, 7, 126
4, 13121, Note_on_c, 2, 83, 0
4, 13128, Note_on_c, 2, 83, 122
4, 13138, Note_on_c, 2, 83, 0
4, 13140, Note_on_c, 2, 81, 123
4, 13150, Note_on_c, 2, 81, 0
4, 13152, Control_c, 2, 7, 118
4, 13152, Note_on_c, 2, 80, 121
4, 13155, Control_c, 2, 7, 121
4, 13158, Control_c, 2, 7, 123
4, 13164, Control_c, 2, 7, 126
4, 13168, Note_on_c, 2, 80, 0
4, 13176, Control_c, 2, 7, 118
4, 13176, Note_on_c, 2, 80, 123
4, 13179, Control_c, 2, 7, 121
4, 13182, Control_c, 2, 7, 123
4, 13188, Control_c, 2, 7, 126
4, 13193, Note_on_c, 2, 80, 0
4, 13200, Control_c, 2, 7, 118
4, 13200, Note_on_c, 2, 80, 122
4, 13203, Control_c, 2, 7, 121
4, 13206, Control_c, 2, 7, 123
4, 13212, Control_c, 2, 7, 126
4, 13220, Note_on_c, 2, 80, 0
4, 13224, Note_on_c, 2, 80, 121
4, 13234, Note_on_c, 2, 80, 0
4, 13236, Note_on_c, 2, 81, 124
4, 13246, Note_on_c, 2, 81, 0
4, 13248, Control_c, 2, 7, 118
4, 13248, Note_on_c, 2, 83, 123
4, 13251, Control_c, 2, 7, 121
4, 13254, Control_c, 2, 7, 123
4, 13260, Control_c, 2, 7, 126
4, 13264, Note_on_c, 2, 83, 0
4, 13272, Control_c, 2, 7, 118
4, 13272, Note_on_c, 2, 83, 124
4, 13275, Control_c, 2, 7, 121
4, 13278, Control_c, 2, 7, 123
4, 13284, Control_c, 2, 7, 126
4, 13290, Note_on_c, 2, 83, 0
4, 13296, Control_c, 2, 7, 118
4, 13296, Note_on_c, 2, 83, 124
4, 13299, Control_c, 2, 7, 121
4, 13302, Control_c, 2, 7, 123
4, 13308, Control_c, 2, 7, 126
4, 13313, Note_on_c, 2, 83, 0
4, 13320, Note_on_c, 2, 83, 122
4, 13330, Note_on_c, 2, 83, 0
4, 13332, Note_on_c, 2, 81, 123
4, 13342, Note_on_c, 2, 81, 0
4, 13344, Control_c, 2, 7, 118
4, 13344, Note_on_c, 2, 80, 121
4, 13347, Control_c, 2, 7, 121
4, 13350, Control_c, 2, 7, 123
4, 13356, Control_c, 2, 7, 126
4, 13360, Note_on_c, 2, 80, 0
4, 13368, Control_c, 2, 7, 118
4, 13368, Note_on_c, 2, 80, 123
4, 13371, Control_c, 2, 7, 121
4, 13374, Control_c, 2, 7, 123
4, 13380, Control_c, 2, 7, 126
4, 13386, Note_on_c, 2, 80, 0
4, 13392, Control_c, 2, 7, 118
4, 13392, Note_on_c, 2, 80, 122
4, 13395, Control_c, 2, 7, 121
4, 13398, Control_c, 2, 7, 123
4, 13404, Control_c, 2, 7, 126
4, 13412, Note_on_c, 2, 80, 0
4, 13416, Note_on_c, 2, 80, 121
4, 13426, Note_on_c, 2, 80, 0
4, 13428, Note_on_c, 2, 81, 124
4, 13438, Note_on_c, 2, 81, 0
4, 13440, Control_c, 2, 7, 118
4, 13440, Note_on_c, 2, 83, 123
4, 13443, Control_c, 2, 7, 121
4, 13446, Control_c, 2, 7, 123
4, 13452, Control_c, 2, 7, 126
4, 13456, Note_on_c, 2, 83, 0
4, 13464, Control_c, 2, 7, 118
4, 13464, Note_on_c, 2, 83, 124
4, 13467, Control_c, 2, 7, 121
4, 13470, Control_c, 2, 7, 123
4, 13476, Control_c, 2, 7, 126
4, 13481, Note_on_c, 2, 83, 0
4, 13488, Control_c, 2, 7, 118
4, 13488, Note_on_c, 2, 83, 124
4, 13491, Control_c, 2, 7, 121
4, 13494, Control_c, 2, 7, 123
4, 13500, Control_c, 2, 7, 126
4, 13505, Note_on_c, 2, 83, 0
4, 13512, Note_on_c, 2, 81, 122
4, 13522, Note_on_c, 2, 81, 0
4, 13524, Note_on_c, 2, 80, 123
4, 13534, Note_on_c, 2, 80, 0
4, 13536, Control_c, 2, 7, 121
4, 13536, Note_on_c, 2, 78, 121
4, 13548, Note_on_c, 2, 78, 0
4, 13548, Note_on_c, 2, 71, 121
4, 13560, Note_on_c, 2, 71, 0
4, 13560, Note_on_c, 2, 73, 124
4, 13572, Note_on_c, 2, 73, 0
4, 13572, Note_on_c, 2, 71, 121
4, 13584, Note_on_c, 2, 71, 0
4, 13584, Note_on_c, 2, 75, 124
4, 13596, Note_on_c, 2, 75, 0
4, 13596, Note_on_c, 2, 73, 121
4, 13608, Note_on_c, 2, 73, 0
4, 13608, Note_on_c, 2, 76, 124
4, 13620, Note_on_c, 2, 76, 0
4, 13620, Note_on_c, 2, 73, 121
4, 13632, Note_on_c, 2, 73, 0
4, 13632, Note_on_c, 2, 78, 123
4, 13642, Note_on_c, 2, 78, 0
4, 13644, Note_on_c, 2, 76, 119
4, 13654, Note_on_c, 2, 76, 0
4, 13656, Note_on_c, 2, 80, 123
4, 13668, Note_on_c, 2, 80, 0
4, 13668, Note_on_c, 2, 78, 119
4, 13680, Note_on_c, 2, 78, 0
4, 13680, Note_on_c, 2, 81, 123
4, 13692, Note_on_c, 2, 81, 0
4, 13692, Note_on_c, 2, 80, 119
4, 13704, Note_on_c, 2, 80, 0
4, 13704, Note_on_c, 2, 83, 123
4, 13716, Note_on_c, 2, 83, 0
4, 13716, Note_on_c, 2, 81, 119
4, 13728, Note_on_c, 2, 81, 0
4, 13728, Note_on_c, 2, 71, 123
4, 13740, Note_on_c, 2, 71, 0
4, 13740, Note_on_c, 2, 69, 119
4, 13752, Note_on_c, 2, 69, 0
4, 13752, Note_on_c, 2, 73, 123
4, 13764, Note_on_c, 2, 73, 0
4, 13764, Note_on_c, 2, 71, 119
4, 13776, Note_on_c, 2, 71, 0
4, 13776, Note_on_c, 2, 75, 123
4, 13788, Note_on_c, 2, 75, 0
4, 13788, Note_on_c, 2, 73, 119
4, 13800, Note_on_c, 2, 73, 0
4, 13800, Note_on_c, 2, 76, 123
4, 13812, Note_on_c, 2, 76, 0
4, 13812, Note_on_c, 2, 75, 119
4, 13824, Note_on_c, 2, 75, 0
4, 13824, Note_on_c, 2, 78, 123
4, 13834, Note_on_c, 2, 78, 0
4, 13836, Note_on_c, 2, 76, 119
4, 13846, Note_on_c, 2, 76, 0
4, 13848, Note_on_c, 2, 80, 123
4, 13860, Note_on_c, 2, 80, 0
4, 13860, Note_on_c, 2, 78, 119
4, 13872, Note_on_c, 2, 78, 0
4, 13872, Note_on_c, 2, 81, 123
4, 13884, Note_on_c, 2, 81, 0
4, 13884, Note_on_c, 2, 80, 119
4, 13896, Note_on_c, 2, 80, 0
4, 13896, Note_on_c, 2, 83, 123
4, 13908, Note_on_c, 2, 83, 0
4, 13908, Note_on_c, 2, 81, 119
4, 13920, Note_on_c, 2, 81, 0
4, 13920, Note_on_c, 2, 80, 123
4, 13932, Note_on_c, 2, 80, 0
4, 13932, Note_on_c, 2, 76, 119
4, 13944, Note_on_c, 2, 76, 0
4, 13944, Note_on_c, 2, 78, 123
4, 13956, Note_on_c, 2, 78, 0
4, 13956, Note_on_c, 2, 76, 119
4, 13968, Note_on_c, 2, 76, 0
4, 13968, Note_on_c, 2, 80, 123
4, 13980, Note_on_c, 2, 80, 0
4, 13980, Note_on_c, 2, 76, 119
4, 13992, Note_on_c, 2, 76, 0
4, 13992, Note_on_c, 2, 78, 123
4, 14004, Note_on_c, 2, 78, 0
4, 14004, Note_on_c, 2, 76, 119
4, 14016, Note_on_c, 2, 76, 0
4, 14016, Note_on_c, 2, 81, 123
4, 14026, Note_on_c, 2, 81, 0
4, 14028, Note_on_c, 2, 76, 119
4, 14038, Note_on_c, 2, 76, 0
4, 14040, Note_on_c, 2, 78, 123
4, 14052, Note_on_c, 2, 78, 0
4, 14052, Note_on_c, 2, 76, 119
4, 14064, Note_on_c, 2, 76, 0
4, 14064, Note_on_c, 2, 81, 123
4, 14076, Note_on_c, 2, 81, 0
4, 14076, Note_on_c, 2, 76, 119
4, 14088, Note_on_c, 2, 76, 0
4, 14088, Note_on_c, 2, 78, 123
4, 14100, Note_on_c, 2, 78, 0
4, 14100, Note_on_c, 2, 76, 119
4, 14112, Note_on_c, 2, 76, 0
4, 14112, Note_on_c, 2, 83, 118
4, 14124, Note_on_c, 2, 83, 0
4, 14124, Note_on_c, 2, 76, 119
4, 14136, Note_on_c, 2, 76, 0
4, 14136, Note_on_c, 2, 78, 123
4, 14148, Note_on_c, 2, 78, 0
4, 14148, Note_on_c, 2, 76, 119
4, 14160, Note_on_c, 2, 76, 0
4, 14160, Note_on_c, 2, 83, 118
4, 14172, Note_on_c, 2, 83, 0
4, 14172, Note_on_c, 2, 76, 119
4, 14184, Note_on_c, 2, 76, 0
4, 14184, Note_on_c, 2, 78, 123
4, 14196, Note_on_c, 2, 78, 0
4, 14196, Note_on_c, 2, 76, 119
4, 14208, Note_on_c, 2, 76, 0
4, 14208, Note_on_c, 2, 85, 119
4, 14232, Note_on_c, 2, 85, 0
4, 14232, Note_on_c, 2, 87, 119
4, 14256, Note_on_c, 2, 87, 0
4, 14256, Control_c, 2, 7, 112
4, 14256, Note_on_c, 2, 88, 121
4, 14262, Control_c, 2, 7, 115
4, 14268, Control_c, 2, 7, 118
4, 14274, Control_c, 2, 7, 121
4, 14301, Note_on_c, 2, 88, 0
4, 14304, Note_on_c, 2, 88, 121
4, 14316, Note_on_c, 2, 88, 0
4, 14316, Note_on_c, 2, 83, 119
4, 14328, Note_on_c, 2, 83, 0
4, 14328, Note_on_c, 2, 88, 121
4, 14340, Note_on_c, 2, 88, 0
4, 14340, Note_on_c, 2, 83, 119
4, 14352, Note_on_c, 2, 83, 0
4, 14352, Note_on_c, 2, 85, 121
4, 14364, Note_on_c, 2, 85, 0
4, 14364, Note_on_c, 2, 83, 119
4, 14376, Note_on_c, 2, 83, 0
4, 14376, Note_on_c, 2, 88, 121
4, 14388, Note_on_c, 2, 88, 0
4, 14388, Note_on_c, 2, 83, 119
4, 14400, Note_on_c, 2, 83, 0
4, 14400, Note_on_c, 2, 85, 121
4, 14412, Note_on_c, 2, 85, 0
4, 14412, Note_on_c, 2, 83, 119
4, 14424, Note_on_c, 2, 83, 0
4, 14424, Note_on_c, 2, 88, 121
4, 14436, Note_on_c, 2, 88, 0
4, 14436, Note_on_c, 2, 83, 119
4, 14448, Note_on_c, 2, 83, 0
4, 14448, Note_on_c, 2, 85, 121
4, 14460, Note_on_c, 2, 85, 0
4, 14460, Note_on_c, 2, 83, 119
4, 14472, Note_on_c, 2, 83, 0
4, 14472, Note_on_c, 2, 88, 121
4, 14484, Note_on_c, 2, 88, 0
4, 14484, Note_on_c, 2, 83, 119
4, 14496, Note_on_c, 2, 83, 0
4, 14496, Control_c, 2, 7, 115
4, 14496, Note_on_c, 2, 88, 121
4, 14499, Control_c, 2, 7, 118
4, 14502, Control_c, 2, 7, 121
4, 14516, Note_on_c, 2, 88, 0
4, 14520, Control_c, 2, 7, 115
4, 14520, Note_on_c, 2, 76, 123
4, 14523, Control_c, 2, 7, 118
4, 14526, Control_c, 2, 7, 121
4, 14540, Note_on_c, 2, 76, 0
4, 14544, Note_on_c, 2, 78, 122
4, 14550, Note_on_c, 2, 78, 0
4, 14550, Note_on_c, 2, 80, 119
4, 14556, Note_on_c, 2, 80, 0
4, 14556, Note_on_c, 2, 78, 118
4, 14562, Note_on_c, 2, 78, 0
4, 14562, Note_on_c, 2, 80, 117
4, 14568, Note_on_c, 2, 80, 0
4, 14568, Note_on_c, 2, 78, 115
4, 14574, Note_on_c, 2, 78, 0
4, 14574, Note_on_c, 2, 80, 113
4, 14580, Note_on_c, 2, 80, 0
4, 14580, Note_on_c, 2, 78, 112
4, 14586, Note_on_c, 2, 78, 0
4, 14586, Note_on_c, 2, 80, 110
4, 14592, Note_on_c, 2, 80, 0
4, 14592, Control_c, 2, 7, 118
4, 14592, Note_on_c, 2, 64, 117
4, 14592, Note_on_c, 2, 76, 121
4, 14598, Control_c, 2, 7, 121
4, 14604, Control_c, 2, 7, 123
4, 14610, Control_c, 2, 7, 126
4, 14622, Note_on_c, 2, 64, 0
4, 14622, Note_on_c, 2, 76, 0
4, 14628, Note_on_c, 2, 80, 121
4, 14638, Note_on_c, 2, 80, 0
4, 14640, Control_c, 2, 7, 118
4, 14640, Note_on_c, 2, 81, 123
4, 14643, Control_c, 2, 7, 121
4, 14646, Control_c, 2, 7, 123
4, 14652, Control_c, 2, 7, 126
4, 14660, Note_on_c, 2, 81, 0
4, 14664, Control_c, 2, 7, 118
4, 14664, Note_on_c, 2, 83, 126
4, 14667, Control_c, 2, 7, 121
4, 14670, Control_c, 2, 7, 123
4, 14676, Control_c, 2, 7, 126
4, 14684, Note_on_c, 2, 83, 0
4, 14688, Control_c, 2, 7, 118
4, 14688, Note_on_c, 2, 85, 127
4, 14691, Control_c, 2, 7, 121
4, 14694, Control_c, 2, 7, 123
4, 14700, Control_c, 2, 7, 126
4, 14708, Note_on_c, 2, 85, 0
4, 14712, Control_c, 2, 7, 118
4, 14712, Note_on_c, 2, 83, 124
4, 14718, Control_c, 2, 7, 121
4, 14724, Control_c, 2, 7, 123
4, 14730, Control_c, 2, 7, 126
4, 14757, Note_on_c, 2, 83, 0
4, 14760, Control_c, 2, 7, 118
4, 14760, Note_on_c, 2, 76, 121
4, 14763, Control_c, 2, 7, 121
4, 14766, Control_c, 2, 7, 123
4, 14772, Control_c, 2, 7, 126
4, 14780, Note_on_c, 2, 76, 0
4, 14784, Control_c, 2, 7, 118
4, 14784, Note_on_c, 2, 83, 121
4, 14787, Control_c, 2, 7, 121
4, 14790, Control_c, 2, 7, 123
4, 14796, Control_c, 2, 7, 126
4, 14801, Note_on_c, 2, 83, 0
4, 14808, Note_on_c, 2, 81, 123
4, 14818, Note_on_c, 2, 81, 0
4, 14820, Note_on_c, 2, 80, 122
4, 14830, Note_on_c, 2, 80, 0
4, 14832, Control_c, 2, 7, 118
4, 14832, Note_on_c, 2, 81, 123
4, 14835, Control_c, 2, 7, 121
4, 14838, Control_c, 2, 7, 123
4, 14844, Control_c, 2, 7, 126
4, 14852, Note_on_c, 2, 81, 0
4, 14856, Control_c, 2, 7, 118
4, 14856, Note_on_c, 2, 83, 126
4, 14859, Control_c, 2, 7, 121
4, 14862, Control_c, 2, 7, 123
4, 14868, Control_c, 2, 7, 126
4, 14876, Note_on_c, 2, 83, 0
4, 14880, Control_c, 2, 7, 118
4, 14880, Note_on_c, 2, 85, 127
4, 14883, Control_c, 2, 7, 121
4, 14886, Control_c, 2, 7, 123
4, 14892, Control_c, 2, 7, 126
4, 14900, Note_on_c, 2, 85, 0
4, 14904, Control_c, 2, 7, 118
4, 14904, Note_on_c, 2, 83, 126
4, 14910, Control_c, 2, 7, 121
4, 14916, Control_c, 2, 7, 123
4, 14922, Control_c, 2, 7, 126
4, 14949, Note_on_c, 2, 83, 0
4, 14952, Control_c, 2, 7, 118
4, 14952, Note_on_c, 2, 76, 121
4, 14955, Control_c, 2, 7, 121
4, 14958, Control_c, 2, 7, 123
4, 14964, Control_c, 2, 7, 126
4, 14972, Note_on_c, 2, 76, 0
4, 14976, Control_c, 2, 7, 118
4, 14976, Note_on_c, 2, 85, 124
4, 14979, Control_c, 2, 7, 121
4, 14982, Control_c, 2, 7, 123
4, 14988, Control_c, 2, 7, 126
4, 14996, Note_on_c, 2, 85, 0
4, 15000, Control_c, 2, 7, 118
4, 15000, Note_on_c, 2, 83, 126
4, 15006, Control_c, 2, 7, 121
4, 15012, Control_c, 2, 7, 123
4, 15018, Control_c, 2, 7, 126
4, 15045, Note_on_c, 2, 83, 0
4, 15048, Control_c, 2, 7, 118
4, 15048, Note_on_c, 2, 81, 124
4, 15051, Control_c, 2, 7, 121
4, 15054, Control_c, 2, 7, 123
4, 15060, Control_c, 2, 7, 126
4, 15068, Note_on_c, 2, 81, 0
4, 15072, Control_c, 2, 7, 118
4, 15072, Note_on_c, 2, 80, 123
4, 15075, Control_c, 2, 7, 121
4, 15078, Control_c, 2, 7, 123
4, 15084, Control_c, 2, 7, 126
4, 15092, Note_on_c, 2, 80, 0
4, 15096, Note_on_c, 2, 78, 122
4, 15106, Note_on_c, 2, 78, 0
4, 15108, Note_on_c, 2, 76, 121
4, 15118, Note_on_c, 2, 76, 0
4, 15120, Note_on_c, 2, 78, 126
4, 15126, Note_on_c, 2, 78, 0
4, 15126, Note_on_c, 2, 80, 121
4, 15132, Note_on_c, 2, 80, 0
4, 15132, Note_on_c, 2, 78, 118
4, 15138, Note_on_c, 2, 78, 0
4, 15138, Note_on_c, 2, 80, 115
4, 15144, Note_on_c, 2, 80, 0
4, 15144, Note_on_c, 2, 78, 112
4, 15150, Note_on_c, 2, 78, 0
4, 15150, Note_on_c, 2, 80, 108
4, 15156, Note_on_c, 2, 80, 0
4, 15156, Note_on_c, 2, 78, 103
4, 15162, Note_on_c, 2, 78, 0
4, 15162, Note_on_c, 2, 80, 103
4, 15168, Note_on_c, 2, 80, 0
4, 15168, Control_c, 2, 7, 118
4, 15168, Note_on_c, 2, 76, 121
4, 15174, Control_c, 2, 7, 121
4, 15180, Control_c, 2, 7, 123
4, 15186, Control_c, 2, 7, 126
4, 15213, Note_on_c, 2, 76, 0
4, 15240, Control_c, 2, 7, 118
4, 15240, Note_on_c, 2, 76, 115
4, 15243, Control_c, 2, 7, 121
4, 15246, Control_c, 2, 7, 123
4, 15252, Control_c, 2, 7, 126
4, 15255, Note_on_c, 2, 76, 0
4, 15264, Control_c, 2, 7, 118
4, 15264, Note_on_c, 2, 83, 115
4, 15267, Control_c, 2, 7, 121
4, 15270, Control_c, 2, 7, 123
4, 15276, Control_c, 2, 7, 126
4, 15279, Note_on_c, 2, 83, 0
4, 15288, Note_on_c, 2, 81, 112
4, 15298, Note_on_c, 2, 81, 0
4, 15300, Note_on_c, 2, 80, 110
4, 15310, Note_on_c, 2, 80, 0
4, 15312, Control_c, 2, 7, 118
4, 15312, Note_on_c, 2, 81, 112
4, 15315, Control_c, 2, 7, 121
4, 15318, Control_c, 2, 7, 123
4, 15324, Control_c, 2, 7, 126
4, 15332, Note_on_c, 2, 81, 0
4, 15336, Control_c, 2, 7, 118
4, 15336, Note_on_c, 2, 83, 115
4, 15339, Control_c, 2, 7, 118
4, 15342, Control_c, 2, 7, 121
4, 15348, Control_c, 2, 7, 123
4, 15356, Note_on_c, 2, 83, 0
4, 15360, Control_c, 2, 7, 118
4, 15360, Note_on_c, 2, 85, 117
4, 15363, Control_c, 2, 7, 121
4, 15366, Control_c, 2, 7, 123
4, 15372, Control_c, 2, 7, 126
4, 15380, Note_on_c, 2, 85, 0
4, 15384, Control_c, 2, 7, 118
4, 15384, Note_on_c, 2, 83, 115
4, 15390, Control_c, 2, 7, 121
4, 15396, Control_c, 2, 7, 123
4, 15402, Control_c, 2, 7, 126
4, 15429, Note_on_c, 2, 83, 0
4, 15432, Control_c, 2, 7, 118
4, 15432, Note_on_c, 2, 76, 112
4, 15435, Control_c, 2, 7, 121
4, 15438, Control_c, 2, 7, 123
4, 15444, Control_c, 2, 7, 126
4, 15452, Note_on_c, 2, 76, 0
4, 15456, Control_c, 2, 7, 118
4, 15456, Note_on_c, 2, 83, 115
4, 15459, Control_c, 2, 7, 121
4, 15462, Control_c, 2, 7, 123
4, 15468, Control_c, 2, 7, 126
4, 15474, Note_on_c, 2, 83, 0
4, 15480, Note_on_c, 2, 81, 112
4, 15490, Note_on_c, 2, 81, 0
4, 15492, Note_on_c, 2, 80, 110
4, 15502, Note_on_c, 2, 80, 0
4, 15504, Control_c, 2, 7, 118
4, 15504, Note_on_c, 2, 81, 112
4, 15507, Control_c, 2, 7, 121
4, 15510, Control_c, 2, 7, 123
4, 15516, Control_c, 2, 7, 126
4, 15524, Note_on_c, 2, 81, 0
4, 15528, Control_c, 2, 7, 118
4, 15528, Note_on_c, 2, 83, 115
4, 15531, Control_c, 2, 7, 121
4, 15534, Control_c, 2, 7, 123
4, 15540, Control_c, 2, 7, 126
4, 15548, Note_on_c, 2, 83, 0
4, 15552, Control_c, 2, 7, 118
4, 15552, Note_on_c, 2, 85, 117
4, 15555, Control_c, 2, 7, 121
4, 15558, Control_c, 2, 7, 123
4, 15564, Control_c, 2, 7, 126
4, 15572, Note_on_c, 2, 85, 0
4, 15576, Control_c, 2, 7, 118
4, 15576, Note_on_c, 2, 83, 115
4, 15582, Control_c, 2, 7, 121
4, 15588, Control_c, 2, 7, 123
4, 15594, Control_c, 2, 7, 126
4, 15621, Note_on_c, 2, 83, 0
4, 15624, Control_c, 2, 7, 118
4, 15624, Note_on_c, 2, 76, 112
4, 15627, Control_c, 2, 7, 121
4, 15630, Control_c, 2, 7, 123
4, 15636, Control_c, 2, 7, 126
4, 15644, Note_on_c, 2, 76, 0
4, 15648, Control_c, 2, 7, 118
4, 15648, Note_on_c, 2, 85, 117
4, 15651, Control_c, 2, 7, 121
4, 15654, Control_c, 2, 7, 123
4, 15660, Control_c, 2, 7, 126
4, 15668, Note_on_c, 2, 85, 0
4, 15672, Control_c, 2, 7, 118
4, 15672, Note_on_c, 2, 83, 115
4, 15678, Control_c, 2, 7, 121
4, 15684, Control_c, 2, 7, 123
4, 15690, Control_c, 2, 7, 126
4, 15717, Note_on_c, 2, 83, 0
4, 15720, Control_c, 2, 7, 118
4, 15720, Note_on_c, 2, 81, 112
4, 15723, Control_c, 2, 7, 121
4, 15726, Control_c, 2, 7, 123
4, 15732, Control_c, 2, 7, 126
4, 15740, Note_on_c, 2, 81, 0
4, 15744, Control_c, 2, 7, 118
4, 15744, Note_on_c, 2, 80, 115
4, 15747, Control_c, 2, 7, 121
4, 15750, Control_c, 2, 7, 123
4, 15756, Control_c, 2, 7, 126
4, 15764, Note_on_c, 2, 80, 0
4, 15768, Note_on_c, 2, 78, 113
4, 15778, Note_on_c, 2, 78, 0
4, 15780, Note_on_c, 2, 76, 112
4, 15790, Note_on_c, 2, 76, 0
4, 15792, Note_on_c, 2, 78, 121
4, 15798, Note_on_c, 2, 78, 0
4, 15798, Note_on_c, 2, 80, 115
4, 15804, Note_on_c, 2, 80, 0
4, 15804, Note_on_c, 2, 78, 112
4, 15810, Note_on_c, 2, 78, 0
4, 15810, Note_on_c, 2, 80, 108
4, 15816, Note_on_c, 2, 80, 0
4, 15816, Note_on_c, 2, 78, 103
4, 15822, Note_on_c, 2, 78, 0
4, 15822, Note_on_c, 2, 80, 97
4, 15828, Note_on_c, 2, 80, 0
4, 15828, Note_on_c, 2, 78, 90
4, 15834, Note_on_c, 2, 78, 0
4, 15834, Note_on_c, 2, 80, 90
4, 15840, Note_on_c, 2, 80, 0
4, 15840, Control_c, 2, 7, 118
4, 15840, Note_on_c, 2, 76, 90
4, 15852, Control_c, 2, 7, 121
4, 15864, Control_c, 2, 7, 123
4, 15876, Control_c, 2, 7, 126
4, 16088, Note_on_c, 2, 76, 0
4, 16128, Control_c, 2, 7, 120
4, 16128, End_track
5, 0, Start_track
5, 0, Title_t, "WinJammer Demo"
5, 0, Instrument_name_t, "Violin"
5, 0, MIDI_port, 0
5, 0, Pitch_bend_c, 3, 8192
5, 0, Control_c, 3, 64, 0
5, 0, Control_c, 3, 10, 40
5, 0, Control_c, 3, 7, 121
5, 0, Control_c, 3, 11, 120
5, 0, Control_c, 3, 1, 50
5, 0, Program_c, 3, 40
5, 168, Note_on_c, 3, 76, 121
5, 183, Note_on_c, 3, 76, 0
5, 192, Note_on_c, 3, 80, 121
5, 207, Note_on_c, 3, 80, 0
5, 216, Note_on_c, 3, 80, 123
5, 231, Note_on_c, 3, 80, 0
5, 240, Note_on_c, 3, 80, 126
5, 260, Note_on_c, 3, 80, 0
5, 264, Note_on_c, 3, 78, 121
5, 274, Note_on_c, 3, 78, 0
5, 276, Note_on_c, 3, 76, 123
5, 286, Note_on_c, 3, 76, 0
5, 288, Note_on_c, 3, 83, 126
5, 300, Control_c, 3, 1, 100
5, 356, Note_on_c, 3, 83, 0
5, 360, Control_c, 3, 1, 50
5, 360, Control_c, 3, 7, 115
5, 360, Note_on_c, 3, 83, 126
5, 362, Control_c, 3, 7, 118
5, 364, Control_c, 3, 7, 119
5, 368, Control_c, 3, 7, 121
5, 370, Note_on_c, 3, 83, 0
5, 372, Note_on_c, 3, 81, 123
5, 382, Note_on_c, 3, 81, 0
5, 384, Note_on_c, 3, 80, 121
5, 401, Note_on_c, 3, 80, 0
5, 408, Note_on_c, 3, 80, 123
5, 423, Note_on_c, 3, 80, 0
5, 432, Note_on_c, 3, 80, 126
5, 452, Note_on_c, 3, 80, 0
5, 456, Note_on_c, 3, 78, 121
5, 466, Note_on_c, 3, 78, 0
5, 468, Note_on_c, 3, 76, 123
5, 478, Note_on_c, 3, 76, 0
5, 480, Note_on_c, 3, 83, 126
5, 492, Control_c, 3, 1, 100
5, 548, Note_on_c, 3, 83, 0
5, 552, Control_c, 3, 1, 50
5, 552, Control_c, 3, 7, 115
5, 552, Note_on_c, 3, 83, 126
5, 554, Control_c, 3, 7, 118
5, 556, Control_c, 3, 7, 119
5, 560, Control_c, 3, 7, 121
5, 562, Note_on_c, 3, 83, 0
5, 564, Note_on_c, 3, 81, 123
5, 574, Note_on_c, 3, 81, 0
5, 576, Note_on_c, 3, 80, 123
5, 596, Note_on_c, 3, 80, 0
5, 600, Note_on_c, 3, 81, 126
5, 610, Note_on_c, 3, 81, 0
5, 612, Note_on_c, 3, 83, 126
5, 622, Note_on_c, 3, 83, 0
5, 624, Note_on_c, 3, 81, 126
5, 644, Note_on_c, 3, 81, 0
5, 648, Note_on_c, 3, 80, 123
5, 668, Note_on_c, 3, 80, 0
5, 672, Note_on_c, 3, 78, 121
5, 687, Note_on_c, 3, 78, 0
5, 696, Note_on_c, 3, 75, 119
5, 711, Note_on_c, 3, 75, 0
5, 720, Note_on_c, 3, 71, 118
5, 735, Note_on_c, 3, 71, 0
5, 744, Note_on_c, 3, 76, 112
5, 764, Note_on_c, 3, 76, 0
5, 768, Note_on_c, 3, 80, 108
5, 783, Note_on_c, 3, 80, 0
5, 792, Note_on_c, 3, 80, 112
5, 807, Note_on_c, 3, 80, 0
5, 816, Note_on_c, 3, 80, 115
5, 836, Note_on_c, 3, 80, 0
5, 840, Note_on_c, 3, 78, 108
5, 850, Note_on_c, 3, 78, 0
5, 852, Note_on_c, 3, 76, 112
5, 862, Note_on_c, 3, 76, 0
5, 864, Note_on_c, 3, 83, 115
5, 876, Control_c, 3, 1, 100
5, 932, Note_on_c, 3, 83, 0
5, 936, Control_c, 3, 1, 50
5, 936, Control_c, 3, 7, 115
5, 936, Note_on_c, 3, 83, 115
5, 938, Control_c, 3, 7, 118
5, 940, Control_c, 3, 7, 119
5, 944, Control_c, 3, 7, 121
5, 946, Note_on_c, 3, 83, 0
5, 948, Note_on_c, 3, 81, 112
5, 958, Note_on_c, 3, 81, 0
5, 960, Note_on_c, 3, 80, 108
5, 975, Note_on_c, 3, 80, 0
5, 984, Note_on_c, 3, 80, 112
5, 999, Note_on_c, 3, 80, 0
5, 1008, Note_on_c, 3, 80, 115
5, 1028, Note_on_c, 3, 80, 0
5, 1032, Note_on_c, 3, 78, 108
5, 1042, Note_on_c, 3, 78, 0
5, 1044, Note_on_c, 3, 76, 112
5, 1054, Note_on_c, 3, 76, 0
5, 1056, Note_on_c, 3, 83, 115
5, 1068, Control_c, 3, 1, 100
5, 1124, Note_on_c, 3, 83, 0
5, 1128, Control_c, 3, 1, 50
5, 1128, Control_c, 3, 7, 115
5, 1128, Note_on_c, 3, 83, 115
5, 1130, Control_c, 3, 7, 118
5, 1132, Control_c, 3, 7, 119
5, 1136, Control_c, 3, 7, 121
5, 1138, Note_on_c, 3, 83, 0
5, 1140, Note_on_c, 3, 81, 112
5, 1150, Note_on_c, 3, 81, 0
5, 1152, Note_on_c, 3, 80, 112
5, 1167, Note_on_c, 3, 80, 0
5, 1176, Note_on_c, 3, 81, 115
5, 1186, Note_on_c, 3, 81, 0
5, 1188, Note_on_c, 3, 83, 117
5, 1198, Note_on_c, 3, 83, 0
5, 1200, Note_on_c, 3, 81, 115
5, 1220, Note_on_c, 3, 81, 0
5, 1224, Note_on_c, 3, 80, 112
5, 1244, Note_on_c, 3, 80, 0
5, 1248, Note_on_c, 3, 78, 108
5, 1293, Note_on_c, 3, 78, 0
5, 1320, Note_on_c, 3, 76, 121
5, 1340, Note_on_c, 3, 76, 0
5, 1344, Note_on_c, 3, 83, 121
5, 1361, Note_on_c, 3, 83, 0
5, 1368, Note_on_c, 3, 81, 123
5, 1378, Note_on_c, 3, 81, 0
5, 1380, Note_on_c, 3, 80, 122
5, 1390, Note_on_c, 3, 80, 0
5, 1392, Note_on_c, 3, 81, 123
5, 1412, Note_on_c, 3, 81, 0
5, 1416, Note_on_c, 3, 83, 126
5, 1436, Note_on_c, 3, 83, 0
5, 1440, Note_on_c, 3, 85, 126
5, 1460, Note_on_c, 3, 85, 0
5, 1464, Note_on_c, 3, 83, 124
5, 1509, Note_on_c, 3, 83, 0
5, 1512, Note_on_c, 3, 76, 124
5, 1532, Note_on_c, 3, 76, 0
5, 1536, Note_on_c, 3, 83, 123
5, 1553, Note_on_c, 3, 83, 0
5, 1560, Note_on_c, 3, 81, 123
5, 1570, Note_on_c, 3, 81, 0
5, 1572, Note_on_c, 3, 80, 122
5, 1582, Note_on_c, 3, 80, 0
5, 1584, Note_on_c, 3, 81, 123
5, 1604, Note_on_c, 3, 81, 0
5, 1608, Note_on_c, 3, 83, 126
5, 1628, Note_on_c, 3, 83, 0
5, 1632, Note_on_c, 3, 85, 126
5, 1652, Note_on_c, 3, 85, 0
5, 1656, Note_on_c, 3, 83, 123
5, 1701, Note_on_c, 3, 83, 0
5, 1704, Note_on_c, 3, 76, 123
5, 1724, Note_on_c, 3, 76, 0
5, 1728, Note_on_c, 3, 85, 124
5, 1748, Note_on_c, 3, 85, 0
5, 1752, Note_on_c, 3, 83, 126
5, 1797, Note_on_c, 3, 83, 0
5, 1800, Note_on_c, 3, 81, 124
5, 1820, Note_on_c, 3, 81, 0
5, 1824, Note_on_c, 3, 80, 123
5, 1844, Note_on_c, 3, 80, 0
5, 1848, Note_on_c, 3, 78, 122
5, 1858, Note_on_c, 3, 78, 0
5, 1860, Note_on_c, 3, 76, 121
5, 1870, Note_on_c, 3, 76, 0
5, 1872, Note_on_c, 3, 78, 126
5, 1878, Note_on_c, 3, 78, 0
5, 1878, Note_on_c, 3, 80, 121
5, 1884, Note_on_c, 3, 80, 0
5, 1884, Note_on_c, 3, 78, 118
5, 1890, Note_on_c, 3, 78, 0
5, 1890, Note_on_c, 3, 80, 115
5, 1896, Note_on_c, 3, 80, 0
5, 1896, Note_on_c, 3, 78, 112
5, 1902, Note_on_c, 3, 78, 0
5, 1902, Note_on_c, 3, 80, 108
5, 1908, Note_on_c, 3, 80, 0
5, 1908, Note_on_c, 3, 78, 103
5, 1914, Note_on_c, 3, 78, 0
5, 1914, Note_on_c, 3, 80, 103
5, 1920, Note_on_c, 3, 80, 0
5, 1920, Note_on_c, 3, 76, 121
5, 1965, Note_on_c, 3, 76, 0
5, 1992, Note_on_c, 3, 76, 115
5, 2012, Note_on_c, 3, 76, 0
5, 2016, Note_on_c, 3, 83, 115
5, 2033, Note_on_c, 3, 83, 0
5, 2040, Note_on_c, 3, 81, 112
5, 2050, Note_on_c, 3, 81, 0
5, 2052, Note_on_c, 3, 80, 110
5, 2062, Note_on_c, 3, 80, 0
5, 2064, Note_on_c, 3, 81, 112
5, 2084, Note_on_c, 3, 81, 0
5, 2088, Note_on_c, 3, 83, 115
5, 2108, Note_on_c, 3, 83, 0
5, 2112, Note_on_c, 3, 85, 117
5, 2132, Note_on_c, 3, 85, 0
5, 2136, Note_on_c, 3, 83, 115
5, 2181, Note_on_c, 3, 83, 0
5, 2184, Note_on_c, 3, 76, 112
5, 2204, Note_on_c, 3, 76, 0
5, 2208, Note_on_c, 3, 83, 115
5, 2225, Note_on_c, 3, 83, 0
5, 2232, Note_on_c, 3, 81, 112
5, 2242, Note_on_c, 3, 81, 0
5, 2244, Note_on_c, 3, 80, 110
5, 2254, Note_on_c, 3, 80, 0
5, 2256, Note_on_c, 3, 81, 112
5, 2276, Note_on_c, 3, 81, 0
5, 2280, Note_on_c, 3, 83, 115
5, 2300, Note_on_c, 3, 83, 0
5, 2304, Note_on_c, 3, 85, 117
5, 2324, Note_on_c, 3, 85, 0
5, 2328, Note_on_c, 3, 83, 115
5, 2373, Note_on_c, 3, 83, 0
5, 2376, Note_on_c, 3, 76, 112
5, 2396, Note_on_c, 3, 76, 0
5, 2400, Note_on_c, 3, 85, 117
5, 2420, Note_on_c, 3, 85, 0
5, 2424, Note_on_c, 3, 83, 115
5, 2469, Note_on_c, 3, 83, 0
5, 2472, Note_on_c, 3, 81, 112
5, 2492, Note_on_c, 3, 81, 0
5, 2496, Note_on_c, 3, 80, 115
5, 2516, Note_on_c, 3, 80, 0
5, 2520, Note_on_c, 3, 78, 113
5, 2530, Note_on_c, 3, 78, 0
5, 2532, Note_on_c, 3, 76, 112
5, 2542, Note_on_c, 3, 76, 0
5, 2544, Note_on_c, 3, 78, 121
5, 2550, Note_on_c, 3, 78, 0
5, 2550, Note_on_c, 3, 80, 115
5, 2556, Note_on_c, 3, 80, 0
5, 2556, Note_on_c, 3, 78, 112
5, 2562, Note_on_c, 3, 78, 0
5, 2562, Note_on_c, 3, 80, 108
5, 2568, Note_on_c, 3, 80, 0
5, 2568, Note_on_c, 3, 78, 103
5, 2574, Note_on_c, 3, 78, 0
5, 2574, Note_on_c, 3, 80, 97
5, 2580, Note_on_c, 3, 80, 0
5, 2580, Note_on_c, 3, 78, 90
5, 2586, Note_on_c, 3, 78, 0
5, 2586, Note_on_c, 3, 80, 90
5, 2592, Note_on_c, 3, 80, 0
5, 2592, Control_c, 3, 1, 80
5, 2592, Control_c, 3, 7, 115
5, 2592, Note_on_c, 3, 76, 90
5, 2592, Note_on_c, 3, 83, 108
5, 2598, Control_c, 3, 7, 118
5, 2604, Control_c, 3, 7, 119
5, 2610, Control_c, 3, 7, 124
5, 2637, Note_on_c, 3, 76, 0
5, 2639, Note_on_c, 3, 83, 0
5, 2640, Control_c, 3, 7, 108
5, 2640, Note_on_c, 3, 83, 108
5, 2646, Control_c, 3, 7, 118
5, 2652, Control_c, 3, 7, 119
5, 2658, Control_c, 3, 7, 124
5, 2685, Note_on_c, 3, 83, 0
5, 2976, Control_c, 3, 1, 120
5, 2976, Control_c, 3, 7, 108
5, 2976, Note_on_c, 3, 83, 115
5, 2982, Control_c, 3, 7, 118
5, 2988, Control_c, 3, 7, 119
5, 2994, Control_c, 3, 7, 124
5, 3014, Note_on_c, 3, 83, 0
5, 3024, Control_c, 3, 7, 108
5, 3024, Note_on_c, 3, 83, 115
5, 3030, Control_c, 3, 7, 118
5, 3036, Control_c, 3, 7, 119
5, 3042, Control_c, 3, 7, 124
5, 3062, Note_on_c, 3, 83, 0
5, 3072, Control_c, 3, 7, 108
5, 3072, Note_on_c, 3, 83, 105
5, 3078, Control_c, 3, 7, 118
5, 3084, Control_c, 3, 7, 119
5, 3090, Control_c, 3, 7, 124
5, 3110, Note_on_c, 3, 83, 0
5, 3120, Control_c, 3, 7, 108
5, 3120, Note_on_c, 3, 83, 115
5, 3126, Control_c, 3, 7, 118
5, 3132, Control_c, 3, 7, 119
5, 3138, Control_c, 3, 7, 124
5, 3158, Note_on_c, 3, 83, 0
5, 3168, Control_c, 3, 7, 108
5, 3168, Note_on_c, 3, 83, 115
5, 3174, Control_c, 3, 7, 118
5, 3180, Control_c, 3, 7, 119
5, 3186, Control_c, 3, 7, 124
5, 3206, Note_on_c, 3, 83, 0
5, 3216, Control_c, 3, 7, 108
5, 3216, Note_on_c, 3, 83, 105
5, 3222, Control_c, 3, 7, 118
5, 3228, Control_c, 3, 7, 119
5, 3234, Control_c, 3, 7, 124
5, 3254, Note_on_c, 3, 83, 0
5, 3264, Control_c, 3, 7, 121
5, 3264, Control_c, 3, 1, 30
5, 3264, Note_on_c, 3, 83, 103
5, 3279, Note_on_c, 3, 83, 0
5, 3288, Note_on_c, 3, 83, 108
5, 3303, Note_on_c, 3, 83, 0
5, 3312, Note_on_c, 3, 83, 103
5, 3327, Note_on_c, 3, 83, 0
5, 3336, Note_on_c, 3, 83, 108
5, 3351, Note_on_c, 3, 83, 0
5, 3360, Note_on_c, 3, 83, 103
5, 3375, Note_on_c, 3, 83, 0
5, 3384, Note_on_c, 3, 83, 108
5, 3399, Note_on_c, 3, 83, 0
5, 3408, Note_on_c, 3, 83, 103
5, 3423, Note_on_c, 3, 83, 0
5, 3432, Note_on_c, 3, 83, 108
5, 3447, Note_on_c, 3, 83, 0
5, 3456, Note_on_c, 3, 83, 103
5, 3471, Note_on_c, 3, 83, 0
5, 3480, Note_on_c, 3, 83, 108
5, 3495, Note_on_c, 3, 83, 0
5, 3504, Note_on_c, 3, 83, 103
5, 3519, Note_on_c, 3, 83, 0
5, 3528, Note_on_c, 3, 83, 108
5, 3543, Note_on_c, 3, 83, 0
5, 3552, Note_on_c, 3, 83, 103
5, 3567, Note_on_c, 3, 83, 0
5, 3576, Note_on_c, 3, 83, 108
5, 3591, Note_on_c, 3, 83, 0
5, 3600, Note_on_c, 3, 83, 103
5, 3615, Note_on_c, 3, 83, 0
5, 3624, Note_on_c, 3, 85, 108
5, 3634, Note_on_c, 3, 85, 0
5, 3636, Control_c, 3, 7, 126
5, 3636, Note_on_c, 3, 87, 112
5, 3646, Note_on_c, 3, 87, 0
5, 3648, Note_on_c, 3, 88, 112
5, 3660, Note_on_c, 3, 88, 0
5, 3660, Note_on_c, 3, 87, 110
5, 3672, Note_on_c, 3, 87, 0
5, 3672, Control_c, 3, 7, 123
5, 3672, Note_on_c, 3, 85, 108
5, 3684, Note_on_c, 3, 85, 0
5, 3684, Note_on_c, 3, 83, 105
5, 3696, Note_on_c, 3, 83, 0
5, 3696, Control_c, 3, 7, 121
5, 3696, Note_on_c, 3, 81, 103
5, 3708, Note_on_c, 3, 81, 0
5, 3708, Note_on_c, 3, 80, 103
5, 3720, Note_on_c, 3, 80, 0
5, 3720, Note_on_c, 3, 78, 103
5, 3732, Note_on_c, 3, 78, 0
5, 3732, Note_on_c, 3, 76, 100
5, 3744, Note_on_c, 3, 76, 0
5, 3792, Note_on_c, 3, 88, 112
5, 3855, Note_on_c, 3, 88, 0
5, 3864, Note_on_c, 3, 88, 112
5, 3879, Note_on_c, 3, 88, 0
5, 3888, Note_on_c, 3, 88, 108
5, 3903, Note_on_c, 3, 88, 0
5, 3912, Note_on_c, 3, 88, 112
5, 3927, Note_on_c, 3, 88, 0
5, 3936, Note_on_c, 3, 76, 115
5, 3942, Note_on_c, 3, 76, 0
5, 3942, Note_on_c, 3, 78, 112
5, 3948, Note_on_c, 3, 78, 0
5, 3948, Note_on_c, 3, 76, 112
5, 3954, Note_on_c, 3, 76, 0
5, 3954, Note_on_c, 3, 78, 110
5, 3960, Note_on_c, 3, 78, 0
5, 3960, Note_on_c, 3, 76, 110
5, 3966, Note_on_c, 3, 76, 0
5, 3966, Note_on_c, 3, 78, 108
5, 3972, Note_on_c, 3, 78, 0
5, 3972, Note_on_c, 3, 76, 108
5, 3978, Note_on_c, 3, 76, 0
5, 3978, Note_on_c, 3, 78, 105
5, 3984, Note_on_c, 3, 78, 0
5, 3984, Note_on_c, 3, 76, 105
5, 3990, Note_on_c, 3, 76, 0
5, 3990, Note_on_c, 3, 78, 103
5, 3996, Note_on_c, 3, 78, 0
5, 3996, Note_on_c, 3, 76, 103
5, 4002, Note_on_c, 3, 76, 0
5, 4002, Note_on_c, 3, 78, 97
5, 4008, Note_on_c, 3, 78, 0
5, 4008, Note_on_c, 3, 88, 108
5, 4023, Note_on_c, 3, 88, 0
5, 4032, Note_on_c, 3, 88, 108
5, 4047, Note_on_c, 3, 88, 0
5, 4056, Note_on_c, 3, 88, 112
5, 4071, Note_on_c, 3, 88, 0
5, 4080, Note_on_c, 3, 88, 108
5, 4095, Note_on_c, 3, 88, 0
5, 4104, Note_on_c, 3, 88, 112
5, 4119, Note_on_c, 3, 88, 0
5, 4128, Note_on_c, 3, 76, 118
5, 4134, Note_on_c, 3, 76, 0
5, 4134, Note_on_c, 3, 78, 115
5, 4140, Note_on_c, 3, 78, 0
5, 4140, Note_on_c, 3, 76, 112
5, 4146, Note_on_c, 3, 76, 0
5, 4146, Note_on_c, 3, 78, 108
5, 4152, Note_on_c, 3, 78, 0
5, 4152, Note_on_c, 3, 76, 103
5, 4158, Note_on_c, 3, 76, 0
5, 4158, Note_on_c, 3, 78, 97
5, 4164, Note_on_c, 3, 78, 0
5, 4164, Note_on_c, 3, 76, 97
5, 4170, Note_on_c, 3, 76, 0
5, 4170, Note_on_c, 3, 78, 94
5, 4176, Note_on_c, 3, 78, 0
5, 4176, Note_on_c, 3, 80, 118
5, 4182, Note_on_c, 3, 80, 0
5, 4182, Note_on_c, 3, 81, 115
5, 4188, Note_on_c, 3, 81, 0
5, 4188, Note_on_c, 3, 80, 112
5, 4194, Note_on_c, 3, 80, 0
5, 4194, Note_on_c, 3, 81, 108
5, 4200, Note_on_c, 3, 81, 0
5, 4200, Note_on_c, 3, 80, 103
5, 4206, Note_on_c, 3, 80, 0
5, 4206, Note_on_c, 3, 81, 97
5, 4212, Note_on_c, 3, 81, 0
5, 4212, Note_on_c, 3, 80, 97
5, 4218, Note_on_c, 3, 80, 0
5, 4218, Note_on_c, 3, 81, 94
5, 4224, Note_on_c, 3, 81, 0
5, 4272, Note_on_c, 3, 80, 118
5, 4278, Note_on_c, 3, 80, 0
5, 4278, Note_on_c, 3, 81, 115
5, 4284, Note_on_c, 3, 81, 0
5, 4284, Note_on_c, 3, 80, 112
5, 4290, Note_on_c, 3, 80, 0
5, 4290, Note_on_c, 3, 81, 108
5, 4296, Note_on_c, 3, 81, 0
5, 4296, Note_on_c, 3, 80, 103
5, 4302, Note_on_c, 3, 80, 0
5, 4302, Note_on_c, 3, 81, 97
5, 4308, Note_on_c, 3, 81, 0
5, 4308, Note_on_c, 3, 80, 97
5, 4314, Note_on_c, 3, 80, 0
5, 4314, Note_on_c, 3, 81, 94
5, 4320, Note_on_c, 3, 81, 0
5, 4368, Note_on_c, 3, 80, 118
5, 4374, Note_on_c, 3, 80, 0
5, 4374, Note_on_c, 3, 81, 115
5, 4380, Note_on_c, 3, 81, 0
5, 4380, Note_on_c, 3, 80, 112
5, 4386, Note_on_c, 3, 80, 0
5, 4386, Note_on_c, 3, 81, 108
5, 4392, Note_on_c, 3, 81, 0
5, 4392, Note_on_c, 3, 80, 103
5, 4398, Note_on_c, 3, 80, 0
5, 4398, Note_on_c, 3, 81, 97
5, 4404, Note_on_c, 3, 81, 0
5, 4404, Note_on_c, 3, 80, 97
5, 4410, Note_on_c, 3, 80, 0
5, 4410, Note_on_c, 3, 81, 94
5, 4416, Note_on_c, 3, 81, 0
5, 4464, Note_on_c, 3, 80, 119
5, 4470, Note_on_c, 3, 80, 0
5, 4470, Note_on_c, 3, 81, 115
5, 4476, Note_on_c, 3, 81, 0
5, 4476, Note_on_c, 3, 80, 113
5, 4482, Note_on_c, 3, 80, 0
5, 4482, Note_on_c, 3, 81, 112
5, 4488, Note_on_c, 3, 81, 0
5, 4488, Note_on_c, 3, 80, 110
5, 4494, Note_on_c, 3, 80, 0
5, 4494, Note_on_c, 3, 81, 108
5, 4500, Note_on_c, 3, 81, 0
5, 4500, Note_on_c, 3, 80, 103
5, 4506, Note_on_c, 3, 80, 0
5, 4506, Note_on_c, 3, 81, 97
5, 4512, Note_on_c, 3, 81, 0
5, 4512, Note_on_c, 3, 83, 117
5, 4572, Note_on_c, 3, 83, 0
5, 4572, Note_on_c, 3, 88, 119
5, 4584, Note_on_c, 3, 88, 0
5, 4584, Note_on_c, 3, 83, 117
5, 4596, Note_on_c, 3, 83, 0
5, 4596, Note_on_c, 3, 85, 119
5, 4608, Note_on_c, 3, 85, 0
5, 4608, Note_on_c, 3, 83, 117
5, 4668, Note_on_c, 3, 83, 0
5, 4668, Note_on_c, 3, 88, 119
5, 4680, Note_on_c, 3, 88, 0
5, 4680, Note_on_c, 3, 83, 117
5, 4692, Note_on_c, 3, 83, 0
5, 4692, Note_on_c, 3, 85, 119
5, 4704, Note_on_c, 3, 85, 0
5, 4704, Note_on_c, 3, 83, 117
5, 4716, Note_on_c, 3, 83, 0
5, 4716, Note_on_c, 3, 88, 119
5, 4728, Note_on_c, 3, 88, 0
5, 4728, Note_on_c, 3, 83, 117
5, 4740, Note_on_c, 3, 83, 0
5, 4740, Note_on_c, 3, 85, 119
5, 4752, Note_on_c, 3, 85, 0
5, 4752, Note_on_c, 3, 83, 117
5, 4764, Note_on_c, 3, 83, 0
5, 4764, Note_on_c, 3, 88, 119
5, 4776, Note_on_c, 3, 88, 0
5, 4776, Note_on_c, 3, 83, 117
5, 4788, Note_on_c, 3, 83, 0
5, 4788, Note_on_c, 3, 85, 119
5, 4800, Note_on_c, 3, 85, 0
5, 4800, Note_on_c, 3, 83, 117
5, 4812, Note_on_c, 3, 83, 0
5, 4812, Note_on_c, 3, 88, 119
5, 4824, Note_on_c, 3, 88, 0
5, 4824, Note_on_c, 3, 83, 117
5, 4836, Note_on_c, 3, 83, 0
5, 4836, Note_on_c, 3, 85, 119
5, 4848, Note_on_c, 3, 85, 0
5, 4848, Note_on_c, 3, 83, 117
5, 4860, Note_on_c, 3, 83, 0
5, 4860, Note_on_c, 3, 88, 119
5, 4872, Note_on_c, 3, 88, 0
5, 4872, Note_on_c, 3, 83, 117
5, 4884, Note_on_c, 3, 83, 0
5, 4884, Note_on_c, 3, 85, 119
5, 4896, Note_on_c, 3, 85, 0
5, 4896, Note_on_c, 3, 83, 117
5, 4916, Note_on_c, 3, 83, 0
5, 4920, Note_on_c, 3, 76, 119
5, 4940, Note_on_c, 3, 76, 0
5, 4992, Note_on_c, 3, 88, 115
5, 5072, Note_on_c, 3, 88, 0
5, 5088, Note_on_c, 3, 88, 118
5, 5094, Note_on_c, 3, 88, 0
5, 5094, Note_on_c, 3, 90, 115
5, 5100, Note_on_c, 3, 90, 0
5, 5100, Note_on_c, 3, 88, 112
5, 5106, Note_on_c, 3, 88, 0
5, 5106, Note_on_c, 3, 90, 110
5, 5112, Note_on_c, 3, 90, 0
5, 5112, Note_on_c, 3, 88, 108
5, 5118, Note_on_c, 3, 88, 0
5, 5118, Note_on_c, 3, 90, 105
5, 5124, Note_on_c, 3, 90, 0
5, 5124, Note_on_c, 3, 88, 103
5, 5130, Note_on_c, 3, 88, 0
5, 5130, Note_on_c, 3, 90, 100
5, 5136, Note_on_c, 3, 90, 0
5, 5136, Note_on_c, 3, 88, 97
5, 5142, Note_on_c, 3, 88, 0
5, 5142, Note_on_c, 3, 90, 94
5, 5148, Note_on_c, 3, 90, 0
5, 5148, Note_on_c, 3, 88, 90
5, 5154, Note_on_c, 3, 88, 0
5, 5154, Note_on_c, 3, 90, 85
5, 5160, Note_on_c, 3, 90, 0
5, 5160, Note_on_c, 3, 88, 85
5, 5166, Note_on_c, 3, 88, 0
5, 5166, Note_on_c, 3, 90, 80
5, 5172, Note_on_c, 3, 90, 0
5, 5172, Note_on_c, 3, 88, 80
5, 5178, Note_on_c, 3, 88, 0
5, 5178, Note_on_c, 3, 90, 80
5, 5184, Note_on_c, 3, 90, 0
5, 5184, Note_on_c, 3, 88, 115
5, 5264, Note_on_c, 3, 88, 0
5, 5280, Note_on_c, 3, 88, 118
5, 5286, Note_on_c, 3, 88, 0
5, 5286, Note_on_c, 3, 90, 115
5, 5292, Note_on_c, 3, 90, 0
5, 5292, Note_on_c, 3, 88, 112
5, 5298, Note_on_c, 3, 88, 0
5, 5298, Note_on_c, 3, 90, 110
5, 5304, Note_on_c, 3, 90, 0
5, 5304, Note_on_c, 3, 88, 108
5, 5310, Note_on_c, 3, 88, 0
5, 5310, Note_on_c, 3, 90, 105
5, 5316, Note_on_c, 3, 90, 0
5, 5316, Note_on_c, 3, 88, 103
5, 5322, Note_on_c, 3, 88, 0
5, 5322, Note_on_c, 3, 90, 100
5, 5328, Note_on_c, 3, 90, 0
5, 5352, Control_c, 3, 7, 123
5, 5352, Control_c, 3, 11, 100
5, 5352, Control_c, 3, 1, 50
5, 5352, Note_on_c, 3, 76, 121
5, 5372, Note_on_c, 3, 76, 0
5, 5376, Note_on_c, 3, 83, 121
5, 5391, Note_on_c, 3, 83, 0
5, 5400, Note_on_c, 3, 81, 123
5, 5410, Note_on_c, 3, 81, 0
5, 5412, Note_on_c, 3, 80, 122
5, 5422, Note_on_c, 3, 80, 0
5, 5424, Note_on_c, 3, 81, 123
5, 5444, Note_on_c, 3, 81, 0
5, 5448, Note_on_c, 3, 83, 123
5, 5468, Note_on_c, 3, 83, 0
5, 5472, Note_on_c, 3, 85, 123
5, 5492, Note_on_c, 3, 85, 0
5, 5496, Note_on_c, 3, 83, 124
5, 5541, Note_on_c, 3, 83, 0
5, 5544, Note_on_c, 3, 76, 124
5, 5564, Note_on_c, 3, 76, 0
5, 5568, Note_on_c, 3, 83, 121
5, 5585, Note_on_c, 3, 83, 0
5, 5592, Note_on_c, 3, 81, 123
5, 5602, Note_on_c, 3, 81, 0
5, 5604, Note_on_c, 3, 80, 122
5, 5614, Note_on_c, 3, 80, 0
5, 5616, Note_on_c, 3, 81, 123
5, 5636, Note_on_c, 3, 81, 0
5, 5640, Note_on_c, 3, 83, 123
5, 5660, Note_on_c, 3, 83, 0
5, 5664, Note_on_c, 3, 85, 123
5, 5684, Note_on_c, 3, 85, 0
5, 5688, Note_on_c, 3, 83, 126
5, 5733, Note_on_c, 3, 83, 0
5, 5736, Note_on_c, 3, 76, 126
5, 5756, Note_on_c, 3, 76, 0
5, 5760, Note_on_c, 3, 85, 124
5, 5780, Note_on_c, 3, 85, 0
5, 5784, Note_on_c, 3, 83, 126
5, 5829, Note_on_c, 3, 83, 0
5, 5832, Note_on_c, 3, 81, 124
5, 5852, Note_on_c, 3, 81, 0
5, 5856, Note_on_c, 3, 80, 123
5, 5876, Note_on_c, 3, 80, 0
5, 5880, Note_on_c, 3, 78, 122
5, 5890, Note_on_c, 3, 78, 0
5, 5892, Note_on_c, 3, 76, 121
5, 5902, Note_on_c, 3, 76, 0
5, 5904, Note_on_c, 3, 78, 126
5, 5910, Note_on_c, 3, 78, 0
5, 5910, Note_on_c, 3, 80, 121
5, 5916, Note_on_c, 3, 80, 0
5, 5916, Note_on_c, 3, 78, 118
5, 5922, Note_on_c, 3, 78, 0
5, 5922, Note_on_c, 3, 80, 115
5, 5928, Note_on_c, 3, 80, 0
5, 5928, Note_on_c, 3, 78, 112
5, 5934, Note_on_c, 3, 78, 0
5, 5934, Note_on_c, 3, 80, 108
5, 5940, Note_on_c, 3, 80, 0
5, 5940, Note_on_c, 3, 78, 103
5, 5946, Note_on_c, 3, 78, 0
5, 5946, Note_on_c, 3, 80, 103
5, 5952, Note_on_c, 3, 80, 0
5, 5952, Note_on_c, 3, 76, 118
5, 5972, Note_on_c, 3, 76, 0
5, 5976, Control_c, 3, 7, 118
5, 5976, Note_on_c, 3, 68, 108
5, 5988, Note_on_c, 3, 68, 0
5, 5988, Note_on_c, 3, 69, 108
5, 6000, Note_on_c, 3, 69, 0
5, 6000, Note_on_c, 3, 71, 115
5, 6012, Note_on_c, 3, 71, 0
5, 6012, Note_on_c, 3, 69, 108
5, 6024, Note_on_c, 3, 69, 0
5, 6024, Note_on_c, 3, 71, 115
5, 6036, Note_on_c, 3, 71, 0
5, 6036, Note_on_c, 3, 69, 108
5, 6048, Note_on_c, 3, 69, 0
5, 6048, Note_on_c, 3, 68, 115
5, 6060, Note_on_c, 3, 68, 0
5, 6060, Note_on_c, 3, 69, 108
5, 6072, Note_on_c, 3, 69, 0
5, 6072, Note_on_c, 3, 68, 115
5, 6084, Note_on_c, 3, 68, 0
5, 6084, Note_on_c, 3, 69, 108
5, 6096, Note_on_c, 3, 69, 0
5, 6096, Note_on_c, 3, 71, 115
5, 6108, Note_on_c, 3, 71, 0
5, 6108, Note_on_c, 3, 69, 108
5, 6120, Note_on_c, 3, 69, 0
5, 6120, Note_on_c, 3, 71, 115
5, 6132, Note_on_c, 3, 71, 0
5, 6132, Note_on_c, 3, 69, 108
5, 6144, Note_on_c, 3, 69, 0
5, 6144, Note_on_c, 3, 68, 115
5, 6156, Note_on_c, 3, 68, 0
5, 6156, Note_on_c, 3, 69, 108
5, 6168, Note_on_c, 3, 69, 0
5, 6168, Note_on_c, 3, 68, 115
5, 6180, Note_on_c, 3, 68, 0
5, 6180, Note_on_c, 3, 69, 108
5, 6192, Note_on_c, 3, 69, 0
5, 6192, Note_on_c, 3, 71, 115
5, 6204, Note_on_c, 3, 71, 0
5, 6204, Note_on_c, 3, 69, 108
5, 6216, Note_on_c, 3, 69, 0
5, 6216, Note_on_c, 3, 71, 115
5, 6228, Note_on_c, 3, 71, 0
5, 6228, Note_on_c, 3, 69, 108
5, 6240, Note_on_c, 3, 69, 0
5, 6240, Note_on_c, 3, 68, 115
5, 6252, Note_on_c, 3, 68, 0
5, 6252, Note_on_c, 3, 69, 108
5, 6264, Note_on_c, 3, 69, 0
5, 6264, Note_on_c, 3, 68, 115
5, 6276, Note_on_c, 3, 68, 0
5, 6276, Note_on_c, 3, 69, 108
5, 6288, Note_on_c, 3, 69, 0
5, 6288, Note_on_c, 3, 71, 108
5, 6300, Note_on_c, 3, 71, 0
5, 6300, Note_on_c, 3, 73, 112
5, 6312, Note_on_c, 3, 73, 0
5, 6312, Note_on_c, 3, 71, 108
5, 6324, Note_on_c, 3, 71, 0
5, 6324, Note_on_c, 3, 73, 112
5, 6336, Note_on_c, 3, 73, 0
5, 6336, Note_on_c, 3, 75, 115
5, 6348, Note_on_c, 3, 75, 0
5, 6348, Note_on_c, 3, 76, 108
5, 6360, Note_on_c, 3, 76, 0
5, 6360, Note_on_c, 3, 75, 115
5, 6372, Note_on_c, 3, 75, 0
5, 6372, Note_on_c, 3, 76, 108
5, 6384, Note_on_c, 3, 76, 0
5, 6384, Note_on_c, 3, 78, 115
5, 6396, Note_on_c, 3, 78, 0
5, 6396, Note_on_c, 3, 76, 108
5, 6408, Note_on_c, 3, 76, 0
5, 6408, Note_on_c, 3, 78, 115
5, 6420, Note_on_c, 3, 78, 0
5, 6420, Note_on_c, 3, 76, 108
5, 6432, Note_on_c, 3, 76, 0
5, 6432, Note_on_c, 3, 75, 115
5, 6444, Note_on_c, 3, 75, 0
5, 6444, Note_on_c, 3, 76, 108
5, 6456, Note_on_c, 3, 76, 0
5, 6456, Note_on_c, 3, 75, 115
5, 6468, Note_on_c, 3, 75, 0
5, 6468, Note_on_c, 3, 76, 108
5, 6480, Note_on_c, 3, 76, 0
5, 6480, Note_on_c, 3, 78, 108
5, 6492, Note_on_c, 3, 78, 0
5, 6492, Note_on_c, 3, 76, 112
5, 6504, Note_on_c, 3, 76, 0
5, 6504, Note_on_c, 3, 78, 108
5, 6516, Note_on_c, 3, 78, 0
5, 6516, Note_on_c, 3, 76, 112
5, 6528, Note_on_c, 3, 76, 0
5, 6528, Note_on_c, 3, 75, 115
5, 6540, Note_on_c, 3, 75, 0
5, 6540, Note_on_c, 3, 76, 108
5, 6552, Note_on_c, 3, 76, 0
5, 6552, Note_on_c, 3, 75, 115
5, 6564, Note_on_c, 3, 75, 0
5, 6564, Note_on_c, 3, 76, 108
5, 6576, Note_on_c, 3, 76, 0
5, 6576, Note_on_c, 3, 78, 115
5, 6588, Note_on_c, 3, 78, 0
5, 6588, Note_on_c, 3, 80, 108
5, 6600, Note_on_c, 3, 80, 0
5, 6600, Note_on_c, 3, 78, 115
5, 6612, Note_on_c, 3, 78, 0
5, 6612, Note_on_c, 3, 80, 108
5, 6624, Note_on_c, 3, 80, 0
5, 6624, Note_on_c, 3, 81, 115
5, 6636, Note_on_c, 3, 81, 0
5, 6636, Note_on_c, 3, 80, 108
5, 6648, Note_on_c, 3, 80, 0
5, 6648, Note_on_c, 3, 81, 115
5, 6660, Note_on_c, 3, 81, 0
5, 6660, Note_on_c, 3, 80, 108
5, 6672, Note_on_c, 3, 80, 0
5, 6672, Note_on_c, 3, 78, 108
5, 6684, Note_on_c, 3, 78, 0
5, 6684, Note_on_c, 3, 81, 112
5, 6696, Note_on_c, 3, 81, 0
5, 6696, Note_on_c, 3, 80, 108
5, 6708, Note_on_c, 3, 80, 0
5, 6708, Note_on_c, 3, 78, 112
5, 6720, Note_on_c, 3, 78, 0
5, 6720, Note_on_c, 3, 80, 112
5, 6740, Note_on_c, 3, 80, 0
5, 6744, Note_on_c, 3, 78, 108
5, 6756, Note_on_c, 3, 78, 0
5, 6756, Note_on_c, 3, 76, 108
5, 6768, Note_on_c, 3, 76, 0
5, 6768, Note_on_c, 3, 75, 115
5, 6780, Note_on_c, 3, 75, 0
5, 6780, Note_on_c, 3, 73, 108
5, 6792, Note_on_c, 3, 73, 0
5, 6792, Note_on_c, 3, 71, 115
5, 6804, Note_on_c, 3, 71, 0
5, 6804, Note_on_c, 3, 69, 108
5, 6816, Note_on_c, 3, 69, 0
5, 6816, Note_on_c, 3, 68, 115
5, 6828, Note_on_c, 3, 68, 0
5, 6828, Note_on_c, 3, 69, 108
5, 6840, Note_on_c, 3, 69, 0
5, 6840, Note_on_c, 3, 68, 115
5, 6852, Note_on_c, 3, 68, 0
5, 6852, Note_on_c, 3, 69, 108
5, 6864, Note_on_c, 3, 69, 0
5, 6864, Note_on_c, 3, 71, 115
5, 6876, Note_on_c, 3, 71, 0
5, 6876, Note_on_c, 3, 69, 108
5, 6888, Note_on_c, 3, 69, 0
5, 6888, Note_on_c, 3, 71, 115
5, 6900, Note_on_c, 3, 71, 0
5, 6900, Note_on_c, 3, 69, 108
5, 6912, Note_on_c, 3, 69, 0
5, 6912, Note_on_c, 3, 68, 115
5, 6924, Note_on_c, 3, 68, 0
5, 6924, Note_on_c, 3, 69, 108
5, 6936, Note_on_c, 3, 69, 0
5, 6936, Note_on_c, 3, 68, 115
5, 6948, Note_on_c, 3, 68, 0
5, 6948, Note_on_c, 3, 69, 108
5, 6960, Note_on_c, 3, 69, 0
5, 6960, Note_on_c, 3, 71, 115
5, 6972, Note_on_c, 3, 71, 0
5, 6972, Note_on_c, 3, 69, 108
5, 6984, Note_on_c, 3, 69, 0
5, 6984, Note_on_c, 3, 71, 115
5, 6996, Note_on_c, 3, 71, 0
5, 6996, Note_on_c, 3, 69, 108
5, 7008, Note_on_c, 3, 69, 0
5, 7008, Note_on_c, 3, 68, 115
5, 7020, Note_on_c, 3, 68, 0
5, 7020, Note_on_c, 3, 69, 108
5, 7032, Note_on_c, 3, 69, 0
5, 7032, Note_on_c, 3, 68, 115
5, 7044, Note_on_c, 3, 68, 0
5, 7044, Note_on_c, 3, 69, 108
5, 7056, Note_on_c, 3, 69, 0
5, 7056, Note_on_c, 3, 71, 108
5, 7068, Note_on_c, 3, 71, 0
5, 7068, Note_on_c, 3, 69, 112
5, 7080, Note_on_c, 3, 69, 0
5, 7080, Note_on_c, 3, 71, 108
5, 7092, Note_on_c, 3, 71, 0
5, 7092, Note_on_c, 3, 69, 112
5, 7104, Note_on_c, 3, 69, 0
5, 7104, Note_on_c, 3, 68, 112
5, 7149, Note_on_c, 3, 68, 0
5, 7176, Note_on_c, 3, 80, 112
5, 7196, Note_on_c, 3, 80, 0
5, 7200, Control_c, 3, 7, 112
5, 7200, Note_on_c, 3, 81, 112
5, 7212, Control_c, 3, 7, 118
5, 7224, Control_c, 3, 7, 121
5, 7236, Control_c, 3, 7, 124
5, 7293, Note_on_c, 3, 81, 0
5, 7296, Control_c, 3, 7, 118
5, 7296, Control_c, 3, 7, 112
5, 7296, Note_on_c, 3, 80, 112
5, 7308, Control_c, 3, 7, 118
5, 7320, Control_c, 3, 7, 121
5, 7332, Control_c, 3, 7, 124
5, 7389, Note_on_c, 3, 80, 0
5, 7392, Control_c, 3, 7, 112
5, 7392, Note_on_c, 3, 78, 112
5, 7404, Control_c, 3, 7, 118
5, 7416, Control_c, 3, 7, 121
5, 7428, Control_c, 3, 7, 124
5, 7485, Note_on_c, 3, 78, 0
5, 7488, Control_c, 3, 7, 118
5, 7488, Control_c, 3, 7, 112
5, 7488, Note_on_c, 3, 80, 112
5, 7500, Control_c, 3, 7, 118
5, 7512, Control_c, 3, 7, 121
5, 7524, Control_c, 3, 7, 124
5, 7581, Note_on_c, 3, 80, 0
5, 7584, Control_c, 3, 7, 112
5, 7584, Note_on_c, 3, 81, 112
5, 7596, Control_c, 3, 7, 118
5, 7608, Control_c, 3, 7, 121
5, 7620, Control_c, 3, 7, 124
5, 7677, Note_on_c, 3, 81, 0
5, 7680, Control_c, 3, 7, 118
5, 7680, Control_c, 3, 7, 112
5, 7680, Note_on_c, 3, 80, 112
5, 7692, Control_c, 3, 7, 118
5, 7704, Control_c, 3, 7, 121
5, 7716, Control_c, 3, 7, 124
5, 7773, Note_on_c, 3, 80, 0
5, 7776, Control_c, 3, 7, 112
5, 7776, Note_on_c, 3, 78, 112
5, 7782, Control_c, 3, 7, 118
5, 7788, Control_c, 3, 7, 121
5, 7794, Control_c, 3, 7, 124
5, 7821, Note_on_c, 3, 78, 0
5, 7824, Control_c, 3, 7, 118
5, 7848, Control_c, 3, 7, 126
5, 7848, Control_c, 3, 11, 100
5, 7848, Control_c, 3, 1, 50
5, 7848, Note_on_c, 3, 71, 121
5, 7868, Note_on_c, 3, 71, 0
5, 7872, Note_on_c, 3, 78, 121
5, 7887, Note_on_c, 3, 78, 0
5, 7896, Note_on_c, 3, 76, 123
5, 7906, Note_on_c, 3, 76, 0
5, 7908, Note_on_c, 3, 75, 122
5, 7918, Note_on_c, 3, 75, 0
5, 7920, Note_on_c, 3, 76, 123
5, 7940, Note_on_c, 3, 76, 0
5, 7944, Note_on_c, 3, 78, 126
5, 7964, Note_on_c, 3, 78, 0
5, 7968, Note_on_c, 3, 80, 126
5, 7988, Note_on_c, 3, 80, 0
5, 7992, Note_on_c, 3, 78, 124
5, 8037, Note_on_c, 3, 78, 0
5, 8040, Note_on_c, 3, 71, 124
5, 8060, Note_on_c, 3, 71, 0
5, 8064, Note_on_c, 3, 78, 121
5, 8081, Note_on_c, 3, 78, 0
5, 8088, Note_on_c, 3, 76, 123
5, 8098, Note_on_c, 3, 76, 0
5, 8100, Note_on_c, 3, 75, 122
5, 8110, Note_on_c, 3, 75, 0
5, 8112, Note_on_c, 3, 76, 123
5, 8132, Note_on_c, 3, 76, 0
5, 8136, Note_on_c, 3, 78, 126
5, 8156, Note_on_c, 3, 78, 0
5, 8160, Note_on_c, 3, 80, 126
5, 8180, Note_on_c, 3, 80, 0
5, 8184, Note_on_c, 3, 78, 126
5, 8229, Note_on_c, 3, 78, 0
5, 8232, Note_on_c, 3, 71, 126
5, 8252, Note_on_c, 3, 71, 0
5, 8256, Note_on_c, 3, 80, 124
5, 8276, Note_on_c, 3, 80, 0
5, 8280, Note_on_c, 3, 78, 126
5, 8325, Note_on_c, 3, 78, 0
5, 8328, Note_on_c, 3, 76, 124
5, 8348, Note_on_c, 3, 76, 0
5, 8352, Note_on_c, 3, 75, 123
5, 8372, Note_on_c, 3, 75, 0
5, 8376, Note_on_c, 3, 73, 122
5, 8386, Note_on_c, 3, 73, 0
5, 8388, Note_on_c, 3, 71, 121
5, 8398, Note_on_c, 3, 71, 0
5, 8400, Note_on_c, 3, 73, 123
5, 8445, Note_on_c, 3, 73, 0
5, 8448, Control_c, 3, 7, 112
5, 8448, Note_on_c, 3, 71, 126
5, 8454, Note_on_c, 3, 71, 0
5, 8454, Pitch_bend_c, 3, 7542
5, 8454, Note_on_c, 3, 59, 126
5, 8455, Pitch_bend_c, 3, 7792
5, 8456, Pitch_bend_c, 3, 7992
5, 8457, Pitch_bend_c, 3, 8092
5, 8458, Pitch_bend_c, 3, 8192
5, 8460, Pitch_bend_c, 3, 7542
5, 8460, Control_c, 3, 7, 115
5, 8461, Pitch_bend_c, 3, 7792
5, 8462, Pitch_bend_c, 3, 7992
5, 8463, Pitch_bend_c, 3, 8092
5, 8464, Pitch_bend_c, 3, 8192
5, 8466, Pitch_bend_c, 3, 7542
5, 8466, Control_c, 3, 7, 117
5, 8467, Pitch_bend_c, 3, 7792
5, 8468, Pitch_bend_c, 3, 7992
5, 8469, Pitch_bend_c, 3, 8092
5, 8470, Pitch_bend_c, 3, 8192
5, 8472, Pitch_bend_c, 3, 7542
5, 8472, Control_c, 3, 7, 118
5, 8473, Pitch_bend_c, 3, 7792
5, 8474, Pitch_bend_c, 3, 7992
5, 8475, Pitch_bend_c, 3, 8092
5, 8476, Pitch_bend_c, 3, 8192
5, 8478, Pitch_bend_c, 3, 7542
5, 8478, Control_c, 3, 7, 119
5, 8479, Pitch_bend_c, 3, 7792
5, 8480, Pitch_bend_c, 3, 7992
5, 8481, Pitch_bend_c, 3, 8092
5, 8482, Pitch_bend_c, 3, 8192
5, 8484, Pitch_bend_c, 3, 7542
5, 8484, Control_c, 3, 7, 121
5, 8485, Pitch_bend_c, 3, 7792
5, 8486, Pitch_bend_c, 3, 7992
5, 8487, Pitch_bend_c, 3, 8092
5, 8488, Pitch_bend_c, 3, 8192
5, 8490, Pitch_bend_c, 3, 7542
5, 8490, Control_c, 3, 7, 122
5, 8491, Pitch_bend_c, 3, 7792
5, 8492, Pitch_bend_c, 3, 7992
5, 8493, Pitch_bend_c, 3, 8092
5, 8494, Pitch_bend_c, 3, 8192
5, 8496, Pitch_bend_c, 3, 7542
5, 8496, Control_c, 3, 7, 123
5, 8497, Pitch_bend_c, 3, 7792
5, 8498, Pitch_bend_c, 3, 7992
5, 8499, Pitch_bend_c, 3, 8092
5, 8500, Pitch_bend_c, 3, 8192
5, 8502, Pitch_bend_c, 3, 7542
5, 8502, Control_c, 3, 7, 124
5, 8503, Pitch_bend_c, 3, 7792
5, 8504, Pitch_bend_c, 3, 7992
5, 8505, Pitch_bend_c, 3, 8092
5, 8506, Pitch_bend_c, 3, 8192
5, 8508, Pitch_bend_c, 3, 7542
5, 8508, Control_c, 3, 7, 124
5, 8509, Pitch_bend_c, 3, 7792
5, 8510, Pitch_bend_c, 3, 7992
5, 8511, Pitch_bend_c, 3, 8092
5, 8512, Pitch_bend_c, 3, 8192
5, 8514, Pitch_bend_c, 3, 7542
5, 8514, Control_c, 3, 7, 124
5, 8515, Pitch_bend_c, 3, 7792
5, 8516, Pitch_bend_c, 3, 7992
5, 8517, Pitch_bend_c, 3, 8092
5, 8518, Pitch_bend_c, 3, 8192
5, 8520, Pitch_bend_c, 3, 7542
5, 8520, Control_c, 3, 7, 126
5, 8521, Pitch_bend_c, 3, 7792
5, 8522, Pitch_bend_c, 3, 7992
5, 8523, Pitch_bend_c, 3, 8092
5, 8524, Pitch_bend_c, 3, 8192
5, 8526, Control_c, 3, 7, 126
5, 8526, Pitch_bend_c, 3, 7542
5, 8527, Pitch_bend_c, 3, 7792
5, 8528, Pitch_bend_c, 3, 7992
5, 8529, Pitch_bend_c, 3, 8092
5, 8530, Pitch_bend_c, 3, 8192
5, 8532, Pitch_bend_c, 3, 7542
5, 8532, Control_c, 3, 7, 126
5, 8533, Pitch_bend_c, 3, 7792
5, 8534, Pitch_bend_c, 3, 7992
5, 8535, Pitch_bend_c, 3, 8092
5, 8536, Pitch_bend_c, 3, 8192
5, 8538, Pitch_bend_c, 3, 7542
5, 8538, Control_c, 3, 7, 126
5, 8539, Pitch_bend_c, 3, 7792
5, 8540, Pitch_bend_c, 3, 7992
5, 8541, Pitch_bend_c, 3, 8092
5, 8542, Pitch_bend_c, 3, 8192
5, 8544, Pitch_bend_c, 3, 7542
5, 8545, Pitch_bend_c, 3, 7792
5, 8546, Pitch_bend_c, 3, 7992
5, 8547, Pitch_bend_c, 3, 8092
5, 8548, Pitch_bend_c, 3, 8192
5, 8550, Pitch_bend_c, 3, 7542
5, 8551, Pitch_bend_c, 3, 7792
5, 8552, Pitch_bend_c, 3, 7992
5, 8553, Pitch_bend_c, 3, 8092
5, 8554, Pitch_bend_c, 3, 8192
5, 8556, Pitch_bend_c, 3, 7542
5, 8557, Pitch_bend_c, 3, 7792
5, 8558, Pitch_bend_c, 3, 7992
5, 8559, Pitch_bend_c, 3, 8092
5, 8560, Pitch_bend_c, 3, 8192
5, 8562, Pitch_bend_c, 3, 7542
5, 8563, Pitch_bend_c, 3, 7792
5, 8564, Pitch_bend_c, 3, 7992
5, 8565, Pitch_bend_c, 3, 8092
5, 8566, Pitch_bend_c, 3, 8192
5, 8568, Pitch_bend_c, 3, 7542
5, 8569, Pitch_bend_c, 3, 7792
5, 8570, Pitch_bend_c, 3, 7992
5, 8571, Pitch_bend_c, 3, 8092
5, 8572, Pitch_bend_c, 3, 8192
5, 8574, Pitch_bend_c, 3, 7542
5, 8575, Pitch_bend_c, 3, 7792
5, 8576, Pitch_bend_c, 3, 7992
5, 8577, Pitch_bend_c, 3, 8092
5, 8578, Pitch_bend_c, 3, 8192
5, 8580, Pitch_bend_c, 3, 7542
5, 8581, Pitch_bend_c, 3, 7792
5, 8582, Pitch_bend_c, 3, 7992
5, 8583, Pitch_bend_c, 3, 8092
5, 8584, Pitch_bend_c, 3, 8192
5, 8586, Pitch_bend_c, 3, 7542
5, 8587, Pitch_bend_c, 3, 7792
5, 8588, Pitch_bend_c, 3, 7992
5, 8589, Pitch_bend_c, 3, 8092
5, 8590, Pitch_bend_c, 3, 8192
5, 8592, Pitch_bend_c, 3, 7542
5, 8593, Pitch_bend_c, 3, 7792
5, 8594, Pitch_bend_c, 3, 7992
5, 8595, Pitch_bend_c, 3, 8092
5, 8596, Pitch_bend_c, 3, 8192
5, 8598, Pitch_bend_c, 3, 7542
5, 8599, Pitch_bend_c, 3, 7792
5, 8600, Pitch_bend_c, 3, 7992
5, 8601, Pitch_bend_c, 3, 8092
5, 8602, Pitch_bend_c, 3, 8192
5, 8604, Pitch_bend_c, 3, 7542
5, 8605, Pitch_bend_c, 3, 7792
5, 8606, Pitch_bend_c, 3, 7992
5, 8607, Pitch_bend_c, 3, 8092
5, 8608, Pitch_bend_c, 3, 8192
5, 8610, Pitch_bend_c, 3, 7542
5, 8611, Pitch_bend_c, 3, 7792
5, 8612, Pitch_bend_c, 3, 7992
5, 8613, Pitch_bend_c, 3, 8092
5, 8614, Pitch_bend_c, 3, 8192
5, 8616, Pitch_bend_c, 3, 7542
5, 8617, Pitch_bend_c, 3, 7792
5, 8618, Pitch_bend_c, 3, 7992
5, 8619, Pitch_bend_c, 3, 8092
5, 8620, Pitch_bend_c, 3, 8192
5, 8622, Pitch_bend_c, 3, 7542
5, 8623, Pitch_bend_c, 3, 7792
5, 8624, Pitch_bend_c, 3, 7992
5, 8625, Pitch_bend_c, 3, 8092
5, 8626, Pitch_bend_c, 3, 8192
5, 8628, Pitch_bend_c, 3, 7542
5, 8629, Pitch_bend_c, 3, 7792
5, 8630, Pitch_bend_c, 3, 7992
5, 8631, Pitch_bend_c, 3, 8092
5, 8632, Pitch_bend_c, 3, 8192
5, 8634, Pitch_bend_c, 3, 7542
5, 8635, Pitch_bend_c, 3, 7792
5, 8636, Pitch_bend_c, 3, 7992
5, 8637, Pitch_bend_c, 3, 8092
5, 8638, Note_on_c, 3, 59, 0
5, 8638, Pitch_bend_c, 3, 8192
5, 8640, Note_on_c, 3, 71, 121
5, 8646, Note_on_c, 3, 71, 0
5, 8646, Note_on_c, 3, 73, 122
5, 8652, Note_on_c, 3, 73, 0
5, 8652, Note_on_c, 3, 75, 123
5, 8658, Note_on_c, 3, 75, 0
5, 8658, Note_on_c, 3, 76, 124
5, 8664, Note_on_c, 3, 76, 0
5, 8664, Note_on_c, 3, 78, 124
5, 8670, Note_on_c, 3, 78, 0
5, 8670, Note_on_c, 3, 80, 124
5, 8676, Note_on_c, 3, 80, 0
5, 8676, Note_on_c, 3, 81, 126
5, 8682, Note_on_c, 3, 81, 0
5, 8682, Note_on_c, 3, 83, 127
5, 8688, Note_on_c, 3, 83, 0
5, 8736, Note_on_c, 3, 71, 121
5, 8742, Note_on_c, 3, 71, 0
5, 8742, Note_on_c, 3, 73, 122
5, 8748, Note_on_c, 3, 73, 0
5, 8748, Note_on_c, 3, 75, 123
5, 8754, Note_on_c, 3, 75, 0
5, 8754, Note_on_c, 3, 76, 124
5, 8760, Note_on_c, 3, 76, 0
5, 8760, Note_on_c, 3, 78, 124
5, 8766, Note_on_c, 3, 78, 0
5, 8766, Note_on_c, 3, 80, 124
5, 8772, Note_on_c, 3, 80, 0
5, 8772, Note_on_c, 3, 81, 126
5, 8778, Note_on_c, 3, 81, 0
5, 8778, Note_on_c, 3, 83, 127
5, 8784, Note_on_c, 3, 83, 0
5, 8832, Control_c, 3, 7, 112
5, 8832, Pitch_bend_c, 3, 7542
5, 8832, Note_on_c, 3, 59, 126
5, 8833, Pitch_bend_c, 3, 7792
5, 8834, Pitch_bend_c, 3, 7992
5, 8835, Pitch_bend_c, 3, 8092
5, 8836, Pitch_bend_c, 3, 8192
5, 8838, Pitch_bend_c, 3, 7542
5, 8838, Control_c, 3, 7, 115
5, 8839, Pitch_bend_c, 3, 7792
5, 8840, Pitch_bend_c, 3, 7992
5, 8841, Pitch_bend_c, 3, 8092
5, 8842, Pitch_bend_c, 3, 8192
5, 8844, Pitch_bend_c, 3, 7542
5, 8844, Control_c, 3, 7, 117
5, 8845, Pitch_bend_c, 3, 7792
5, 8846, Pitch_bend_c, 3, 7992
5, 8847, Pitch_bend_c, 3, 8092
5, 8848, Pitch_bend_c, 3, 8192
5, 8850, Pitch_bend_c, 3, 7542
5, 8850, Control_c, 3, 7, 118
5, 8851, Pitch_bend_c, 3, 7792
5, 8852, Pitch_bend_c, 3, 7992
5, 8853, Pitch_bend_c, 3, 8092
5, 8854, Pitch_bend_c, 3, 8192
5, 8856, Pitch_bend_c, 3, 7542
5, 8856, Control_c, 3, 7, 119
5, 8857, Pitch_bend_c, 3, 7792
5, 8858, Pitch_bend_c, 3, 7992
5, 8859, Pitch_bend_c, 3, 8092
5, 8860, Pitch_bend_c, 3, 8192
5, 8862, Pitch_bend_c, 3, 7542
5, 8862, Control_c, 3, 7, 121
5, 8863, Pitch_bend_c, 3, 7792
5, 8864, Pitch_bend_c, 3, 7992
5, 8865, Pitch_bend_c, 3, 8092
5, 8866, Pitch_bend_c, 3, 8192
5, 8868, Pitch_bend_c, 3, 7542
5, 8868, Control_c, 3, 7, 122
5, 8869, Pitch_bend_c, 3, 7792
5, 8870, Pitch_bend_c, 3, 7992
5, 8871, Pitch_bend_c, 3, 8092
5, 8872, Pitch_bend_c, 3, 8192
5, 8874, Pitch_bend_c, 3, 7542
5, 8874, Control_c, 3, 7, 123
5, 8875, Pitch_bend_c, 3, 7792
5, 8876, Pitch_bend_c, 3, 7992
5, 8877, Pitch_bend_c, 3, 8092
5, 8878, Pitch_bend_c, 3, 8192
5, 8880, Pitch_bend_c, 3, 7542
5, 8880, Control_c, 3, 7, 124
5, 8881, Pitch_bend_c, 3, 7792
5, 8882, Pitch_bend_c, 3, 7992
5, 8883, Pitch_bend_c, 3, 8092
5, 8884, Pitch_bend_c, 3, 8192
5, 8886, Pitch_bend_c, 3, 7542
5, 8886, Control_c, 3, 7, 124
5, 8887, Pitch_bend_c, 3, 7792
5, 8888, Pitch_bend_c, 3, 7992
5, 8889, Pitch_bend_c, 3, 8092
5, 8890, Pitch_bend_c, 3, 8192
5, 8892, Pitch_bend_c, 3, 7542
5, 8892, Control_c, 3, 7, 124
5, 8893, Pitch_bend_c, 3, 7792
5, 8894, Pitch_bend_c, 3, 7992
5, 8895, Pitch_bend_c, 3, 8092
5, 8896, Pitch_bend_c, 3, 8192
5, 8898, Pitch_bend_c, 3, 7542
5, 8898, Control_c, 3, 7, 126
5, 8899, Pitch_bend_c, 3, 7792
5, 8900, Pitch_bend_c, 3, 7992
5, 8901, Pitch_bend_c, 3, 8092
5, 8902, Pitch_bend_c, 3, 8192
5, 8904, Control_c, 3, 7, 126
5, 8904, Pitch_bend_c, 3, 7542
5, 8905, Pitch_bend_c, 3, 7792
5, 8906, Pitch_bend_c, 3, 7992
5, 8907, Pitch_bend_c, 3, 8092
5, 8908, Pitch_bend_c, 3, 8192
5, 8910, Pitch_bend_c, 3, 7542
5, 8910, Control_c, 3, 7, 126
5, 8911, Pitch_bend_c, 3, 7792
5, 8912, Pitch_bend_c, 3, 7992
5, 8913, Pitch_bend_c, 3, 8092
5, 8914, Pitch_bend_c, 3, 8192
5, 8916, Pitch_bend_c, 3, 7542
5, 8916, Control_c, 3, 7, 126
5, 8917, Pitch_bend_c, 3, 7792
5, 8918, Pitch_bend_c, 3, 7992
5, 8919, Pitch_bend_c, 3, 8092
5, 8920, Pitch_bend_c, 3, 8192
5, 8922, Pitch_bend_c, 3, 7542
5, 8923, Pitch_bend_c, 3, 7792
5, 8924, Pitch_bend_c, 3, 7992
5, 8925, Pitch_bend_c, 3, 8092
5, 8926, Note_on_c, 3, 59, 0
5, 8926, Pitch_bend_c, 3, 8192
5, 8928, Pitch_bend_c, 3, 7542
5, 8928, Note_on_c, 3, 57, 126
5, 8929, Pitch_bend_c, 3, 7792
5, 8930, Pitch_bend_c, 3, 7992
5, 8931, Pitch_bend_c, 3, 8092
5, 8932, Pitch_bend_c, 3, 8192
5, 8934, Pitch_bend_c, 3, 7542
5, 8935, Pitch_bend_c, 3, 7792
5, 8936, Pitch_bend_c, 3, 7992
5, 8937, Pitch_bend_c, 3, 8092
5, 8938, Pitch_bend_c, 3, 8192
5, 8940, Pitch_bend_c, 3, 7542
5, 8941, Pitch_bend_c, 3, 7792
5, 8942, Pitch_bend_c, 3, 7992
5, 8943, Pitch_bend_c, 3, 8092
5, 8944, Pitch_bend_c, 3, 8192
5, 8946, Pitch_bend_c, 3, 7542
5, 8947, Pitch_bend_c, 3, 7792
5, 8948, Pitch_bend_c, 3, 7992
5, 8949, Pitch_bend_c, 3, 8092
5, 8950, Pitch_bend_c, 3, 8192
5, 8952, Pitch_bend_c, 3, 7542
5, 8953, Pitch_bend_c, 3, 7792
5, 8954, Pitch_bend_c, 3, 7992
5, 8955, Pitch_bend_c, 3, 8092
5, 8956, Pitch_bend_c, 3, 8192
5, 8958, Pitch_bend_c, 3, 7542
5, 8959, Pitch_bend_c, 3, 7792
5, 8960, Pitch_bend_c, 3, 7992
5, 8961, Pitch_bend_c, 3, 8092
5, 8962, Pitch_bend_c, 3, 8192
5, 8964, Pitch_bend_c, 3, 7542
5, 8965, Pitch_bend_c, 3, 7792
5, 8966, Pitch_bend_c, 3, 7992
5, 8967, Pitch_bend_c, 3, 8092
5, 8968, Pitch_bend_c, 3, 8192
5, 8970, Pitch_bend_c, 3, 7542
5, 8971, Pitch_bend_c, 3, 7792
5, 8972, Pitch_bend_c, 3, 7992
5, 8973, Pitch_bend_c, 3, 8092
5, 8974, Pitch_bend_c, 3, 8192
5, 8976, Pitch_bend_c, 3, 7542
5, 8977, Pitch_bend_c, 3, 7792
5, 8978, Pitch_bend_c, 3, 7992
5, 8979, Pitch_bend_c, 3, 8092
5, 8980, Pitch_bend_c, 3, 8192
5, 8982, Pitch_bend_c, 3, 7542
5, 8983, Pitch_bend_c, 3, 7792
5, 8984, Pitch_bend_c, 3, 7992
5, 8985, Pitch_bend_c, 3, 8092
5, 8986, Pitch_bend_c, 3, 8192
5, 8988, Pitch_bend_c, 3, 7542
5, 8989, Pitch_bend_c, 3, 7792
5, 8990, Pitch_bend_c, 3, 7992
5, 8991, Pitch_bend_c, 3, 8092
5, 8992, Pitch_bend_c, 3, 8192
5, 8994, Pitch_bend_c, 3, 7542
5, 8995, Pitch_bend_c, 3, 7792
5, 8996, Pitch_bend_c, 3, 7992
5, 8997, Pitch_bend_c, 3, 8092
5, 8998, Pitch_bend_c, 3, 8192
5, 9000, Pitch_bend_c, 3, 7542
5, 9001, Pitch_bend_c, 3, 7792
5, 9002, Pitch_bend_c, 3, 7992
5, 9003, Pitch_bend_c, 3, 8092
5, 9004, Pitch_bend_c, 3, 8192
5, 9006, Pitch_bend_c, 3, 7542
5, 9007, Pitch_bend_c, 3, 7792
5, 9008, Pitch_bend_c, 3, 7992
5, 9009, Pitch_bend_c, 3, 8092
5, 9010, Pitch_bend_c, 3, 8192
5, 9012, Pitch_bend_c, 3, 7542
5, 9013, Pitch_bend_c, 3, 7792
5, 9014, Pitch_bend_c, 3, 7992
5, 9015, Pitch_bend_c, 3, 8092
5, 9016, Pitch_bend_c, 3, 8192
5, 9018, Pitch_bend_c, 3, 7542
5, 9019, Pitch_bend_c, 3, 7792
5, 9020, Pitch_bend_c, 3, 7992
5, 9021, Pitch_bend_c, 3, 8092
5, 9022, Note_on_c, 3, 57, 0
5, 9022, Pitch_bend_c, 3, 8192
5, 9024, Note_on_c, 3, 83, 121
5, 9030, Note_on_c, 3, 83, 0
5, 9032, Note_on_c, 3, 80, 121
5, 9038, Note_on_c, 3, 80, 0
5, 9040, Note_on_c, 3, 83, 123
5, 9046, Note_on_c, 3, 83, 0
5, 9048, Note_on_c, 3, 88, 121
5, 9054, Note_on_c, 3, 88, 0
5, 9056, Note_on_c, 3, 83, 121
5, 9062, Note_on_c, 3, 83, 0
5, 9064, Note_on_c, 3, 88, 123
5, 9070, Note_on_c, 3, 88, 0
5, 9072, Note_on_c, 3, 83, 121
5, 9078, Note_on_c, 3, 83, 0
5, 9080, Note_on_c, 3, 80, 121
5, 9086, Note_on_c, 3, 80, 0
5, 9088, Note_on_c, 3, 83, 123
5, 9094, Note_on_c, 3, 83, 0
5, 9096, Note_on_c, 3, 88, 121
5, 9102, Note_on_c, 3, 88, 0
5, 9104, Note_on_c, 3, 83, 121
5, 9110, Note_on_c, 3, 83, 0
5, 9112, Note_on_c, 3, 88, 123
5, 9118, Note_on_c, 3, 88, 0
5, 9120, Note_on_c, 3, 83, 121
5, 9126, Note_on_c, 3, 83, 0
5, 9128, Note_on_c, 3, 80, 121
5, 9134, Note_on_c, 3, 80, 0
5, 9136, Note_on_c, 3, 83, 123
5, 9142, Note_on_c, 3, 83, 0
5, 9144, Note_on_c, 3, 87, 121
5, 9150, Note_on_c, 3, 87, 0
5, 9152, Note_on_c, 3, 83, 121
5, 9158, Note_on_c, 3, 83, 0
5, 9160, Note_on_c, 3, 87, 123
5, 9166, Note_on_c, 3, 87, 0
5, 9168, Note_on_c, 3, 83, 121
5, 9174, Note_on_c, 3, 83, 0
5, 9176, Note_on_c, 3, 80, 121
5, 9182, Note_on_c, 3, 80, 0
5, 9184, Note_on_c, 3, 83, 123
5, 9190, Note_on_c, 3, 83, 0
5, 9192, Note_on_c, 3, 87, 121
5, 9198, Note_on_c, 3, 87, 0
5, 9200, Note_on_c, 3, 83, 121
5, 9206, Note_on_c, 3, 83, 0
5, 9208, Note_on_c, 3, 87, 123
5, 9214, Note_on_c, 3, 87, 0
5, 9216, Note_on_c, 3, 85, 124
5, 9261, Note_on_c, 3, 85, 0
5, 9312, Note_on_c, 3, 85, 121
5, 9318, Note_on_c, 3, 85, 0
5, 9320, Note_on_c, 3, 82, 121
5, 9326, Note_on_c, 3, 82, 0
5, 9328, Note_on_c, 3, 85, 123
5, 9334, Note_on_c, 3, 85, 0
5, 9336, Note_on_c, 3, 90, 121
5, 9342, Note_on_c, 3, 90, 0
5, 9344, Note_on_c, 3, 85, 121
5, 9350, Note_on_c, 3, 85, 0
5, 9352, Note_on_c, 3, 90, 123
5, 9358, Note_on_c, 3, 90, 0
5, 9360, Note_on_c, 3, 85, 121
5, 9366, Note_on_c, 3, 85, 0
5, 9368, Note_on_c, 3, 82, 121
5, 9374, Note_on_c, 3, 82, 0
5, 9376, Note_on_c, 3, 85, 123
5, 9382, Note_on_c, 3, 85, 0
5, 9384, Note_on_c, 3, 90, 121
5, 9390, Note_on_c, 3, 90, 0
5, 9392, Note_on_c, 3, 82, 121
5, 9398, Note_on_c, 3, 82, 0
5, 9400, Note_on_c, 3, 90, 123
5, 9406, Note_on_c, 3, 90, 0
5, 9408, Note_on_c, 3, 85, 121
5, 9414, Note_on_c, 3, 85, 0
5, 9416, Note_on_c, 3, 82, 121
5, 9422, Note_on_c, 3, 82, 0
5, 9424, Note_on_c, 3, 85, 123
5, 9430, Note_on_c, 3, 85, 0
5, 9432, Note_on_c, 3, 88, 121
5, 9438, Note_on_c, 3, 88, 0
5, 9440, Note_on_c, 3, 85, 121
5, 9446, Note_on_c, 3, 85, 0
5, 9448, Note_on_c, 3, 88, 123
5, 9454, Note_on_c, 3, 88, 0
5, 9456, Note_on_c, 3, 85, 121
5, 9462, Note_on_c, 3, 85, 0
5, 9464, Note_on_c, 3, 82, 121
5, 9470, Note_on_c, 3, 82, 0
5, 9472, Note_on_c, 3, 85, 123
5, 9478, Note_on_c, 3, 85, 0
5, 9480, Note_on_c, 3, 88, 121
5, 9486, Note_on_c, 3, 88, 0
5, 9488, Note_on_c, 3, 85, 121
5, 9494, Note_on_c, 3, 85, 0
5, 9496, Note_on_c, 3, 88, 123
5, 9502, Note_on_c, 3, 88, 0
5, 9504, Note_on_c, 3, 87, 124
5, 9549, Note_on_c, 3, 87, 0
5, 9600, Note_on_c, 3, 87, 121
5, 9606, Note_on_c, 3, 87, 0
5, 9608, Note_on_c, 3, 84, 121
5, 9614, Note_on_c, 3, 84, 0
5, 9616, Note_on_c, 3, 87, 123
5, 9622, Note_on_c, 3, 87, 0
5, 9624, Note_on_c, 3, 92, 121
5, 9630, Note_on_c, 3, 92, 0
5, 9632, Note_on_c, 3, 87, 121
5, 9638, Note_on_c, 3, 87, 0
5, 9640, Note_on_c, 3, 92, 123
5, 9646, Note_on_c, 3, 92, 0
5, 9648, Note_on_c, 3, 87, 121
5, 9654, Note_on_c, 3, 87, 0
5, 9656, Note_on_c, 3, 84, 121
5, 9662, Note_on_c, 3, 84, 0
5, 9664, Note_on_c, 3, 87, 123
5, 9670, Note_on_c, 3, 87, 0
5, 9672, Note_on_c, 3, 92, 121
5, 9678, Note_on_c, 3, 92, 0
5, 9680, Note_on_c, 3, 87, 121
5, 9686, Note_on_c, 3, 87, 0
5, 9688, Note_on_c, 3, 92, 123
5, 9694, Note_on_c, 3, 92, 0
5, 9696, Note_on_c, 3, 87, 121
5, 9702, Note_on_c, 3, 87, 0
5, 9704, Note_on_c, 3, 84, 121
5, 9710, Note_on_c, 3, 84, 0
5, 9712, Note_on_c, 3, 87, 123
5, 9718, Note_on_c, 3, 87, 0
5, 9720, Note_on_c, 3, 90, 121
5, 9726, Note_on_c, 3, 90, 0
5, 9728, Note_on_c, 3, 87, 121
5, 9734, Note_on_c, 3, 87, 0
5, 9736, Note_on_c, 3, 90, 123
5, 9742, Note_on_c, 3, 90, 0
5, 9744, Note_on_c, 3, 87, 121
5, 9750, Note_on_c, 3, 87, 0
5, 9752, Note_on_c, 3, 84, 121
5, 9758, Note_on_c, 3, 84, 0
5, 9760, Note_on_c, 3, 87, 123
5, 9766, Note_on_c, 3, 87, 0
5, 9768, Note_on_c, 3, 90, 121
5, 9774, Note_on_c, 3, 90, 0
5, 9776, Note_on_c, 3, 87, 121
5, 9782, Note_on_c, 3, 87, 0
5, 9784, Note_on_c, 3, 90, 123
5, 9790, Note_on_c, 3, 90, 0
5, 9792, Note_on_c, 3, 88, 124
5, 9837, Note_on_c, 3, 88, 0
5, 9888, Note_on_c, 3, 88, 121
5, 9894, Note_on_c, 3, 88, 0
5, 9896, Note_on_c, 3, 85, 121
5, 9902, Note_on_c, 3, 85, 0
5, 9904, Note_on_c, 3, 88, 123
5, 9910, Note_on_c, 3, 88, 0
5, 9912, Note_on_c, 3, 92, 121
5, 9918, Note_on_c, 3, 92, 0
5, 9920, Note_on_c, 3, 88, 121
5, 9926, Note_on_c, 3, 88, 0
5, 9928, Note_on_c, 3, 92, 123
5, 9934, Note_on_c, 3, 92, 0
5, 9936, Note_on_c, 3, 88, 121
5, 9942, Note_on_c, 3, 88, 0
5, 9944, Note_on_c, 3, 85, 121
5, 9950, Note_on_c, 3, 85, 0
5, 9952, Note_on_c, 3, 88, 123
5, 9958, Note_on_c, 3, 88, 0
5, 9960, Note_on_c, 3, 92, 121
5, 9966, Note_on_c, 3, 92, 0
5, 9968, Note_on_c, 3, 88, 121
5, 9974, Note_on_c, 3, 88, 0
5, 9976, Note_on_c, 3, 92, 123
5, 9982, Note_on_c, 3, 92, 0
5, 9984, Note_on_c, 3, 87, 121
5, 9990, Note_on_c, 3, 87, 0
5, 9992, Note_on_c, 3, 83, 121
5, 9998, Note_on_c, 3, 83, 0
5, 10000, Note_on_c, 3, 87, 123
5, 10006, Note_on_c, 3, 87, 0
5, 10008, Note_on_c, 3, 92, 121
5, 10014, Note_on_c, 3, 92, 0
5, 10016, Note_on_c, 3, 87, 121
5, 10022, Note_on_c, 3, 87, 0
5, 10024, Note_on_c, 3, 92, 123
5, 10030, Note_on_c, 3, 92, 0
5, 10032, Note_on_c, 3, 87, 121
5, 10038, Note_on_c, 3, 87, 0
5, 10040, Note_on_c, 3, 83, 121
5, 10046, Note_on_c, 3, 83, 0
5, 10048, Note_on_c, 3, 87, 123
5, 10054, Note_on_c, 3, 87, 0
5, 10056, Note_on_c, 3, 92, 121
5, 10062, Note_on_c, 3, 92, 0
5, 10064, Note_on_c, 3, 87, 121
5, 10070, Note_on_c, 3, 87, 0
5, 10072, Note_on_c, 3, 92, 123
5, 10078, Note_on_c, 3, 92, 0
5, 10080, Note_on_c, 3, 85, 121
5, 10086, Note_on_c, 3, 85, 0
5, 10088, Note_on_c, 3, 81, 121
5, 10094, Note_on_c, 3, 81, 0
5, 10096, Note_on_c, 3, 85, 123
5, 10102, Note_on_c, 3, 85, 0
5, 10104, Note_on_c, 3, 90, 121
5, 10110, Note_on_c, 3, 90, 0
5, 10112, Note_on_c, 3, 85, 121
5, 10118, Note_on_c, 3, 85, 0
5, 10120, Note_on_c, 3, 90, 123
5, 10126, Note_on_c, 3, 90, 0
5, 10128, Note_on_c, 3, 85, 121
5, 10134, Note_on_c, 3, 85, 0
5, 10136, Note_on_c, 3, 81, 121
5, 10142, Note_on_c, 3, 81, 0
5, 10144, Note_on_c, 3, 85, 123
5, 10150, Note_on_c, 3, 85, 0
5, 10152, Note_on_c, 3, 90, 121
5, 10158, Note_on_c, 3, 90, 0
5, 10160, Note_on_c, 3, 85, 121
5, 10166, Note_on_c, 3, 85, 0
5, 10168, Note_on_c, 3, 90, 123
5, 10174, Note_on_c, 3, 90, 0
5, 10176, Note_on_c, 3, 83, 121
5, 10182, Note_on_c, 3, 83, 0
5, 10184, Note_on_c, 3, 80, 121
5, 10190, Note_on_c, 3, 80, 0
5, 10192, Note_on_c, 3, 83, 123
5, 10198, Note_on_c, 3, 83, 0
5, 10200, Note_on_c, 3, 88, 121
5, 10206, Note_on_c, 3, 88, 0
5, 10208, Note_on_c, 3, 83, 121
5, 10214, Note_on_c, 3, 83, 0
5, 10216, Note_on_c, 3, 88, 123
5, 10222, Note_on_c, 3, 88, 0
5, 10224, Note_on_c, 3, 83, 121
5, 10230, Note_on_c, 3, 83, 0
5, 10232, Note_on_c, 3, 80, 121
5, 10238, Note_on_c, 3, 80, 0
5, 10240, Note_on_c, 3, 83, 123
5, 10246, Note_on_c, 3, 83, 0
5, 10248, Note_on_c, 3, 88, 121
5, 10254, Note_on_c, 3, 88, 0
5, 10256, Note_on_c, 3, 83, 121
5, 10262, Note_on_c, 3, 83, 0
5, 10264, Note_on_c, 3, 88, 123
5, 10270, Note_on_c, 3, 88, 0
5, 10272, Note_on_c, 3, 81, 121
5, 10278, Note_on_c, 3, 81, 0
5, 10280, Note_on_c, 3, 78, 121
5, 10286, Note_on_c, 3, 78, 0
5, 10288, Note_on_c, 3, 81, 123
5, 10294, Note_on_c, 3, 81, 0
5, 10296, Note_on_c, 3, 87, 121
5, 10302, Note_on_c, 3, 87, 0
5, 10304, Note_on_c, 3, 81, 121
5, 10310, Note_on_c, 3, 81, 0
5, 10312, Note_on_c, 3, 87, 123
5, 10318, Note_on_c, 3, 87, 0
5, 10320, Note_on_c, 3, 81, 121
5, 10326, Note_on_c, 3, 81, 0
5, 10328, Note_on_c, 3, 78, 121
5, 10334, Note_on_c, 3, 78, 0
5, 10336, Note_on_c, 3, 81, 123
5, 10342, Note_on_c, 3, 81, 0
5, 10344, Note_on_c, 3, 87, 121
5, 10350, Note_on_c, 3, 87, 0
5, 10352, Note_on_c, 3, 81, 121
5, 10358, Note_on_c, 3, 81, 0
5, 10360, Note_on_c, 3, 87, 123
5, 10366, Note_on_c, 3, 87, 0
5, 10368, Note_on_c, 3, 80, 121
5, 10374, Note_on_c, 3, 80, 0
5, 10376, Note_on_c, 3, 76, 121
5, 10382, Note_on_c, 3, 76, 0
5, 10384, Note_on_c, 3, 80, 123
5, 10390, Note_on_c, 3, 80, 0
5, 10392, Note_on_c, 3, 85, 121
5, 10398, Note_on_c, 3, 85, 0
5, 10400, Note_on_c, 3, 80, 121
5, 10406, Note_on_c, 3, 80, 0
5, 10408, Note_on_c, 3, 85, 123
5, 10414, Note_on_c, 3, 85, 0
5, 10416, Note_on_c, 3, 80, 121
5, 10422, Note_on_c, 3, 80, 0
5, 10424, Note_on_c, 3, 76, 121
5, 10430, Note_on_c, 3, 76, 0
5, 10432, Note_on_c, 3, 80, 123
5, 10438, Note_on_c, 3, 80, 0
5, 10440, Note_on_c, 3, 85, 121
5, 10446, Note_on_c, 3, 85, 0
5, 10448, Note_on_c, 3, 80, 121
5, 10454, Note_on_c, 3, 80, 0
5, 10456, Note_on_c, 3, 85, 123
5, 10462, Note_on_c, 3, 85, 0
5, 10464, Note_on_c, 3, 80, 121
5, 10470, Note_on_c, 3, 80, 0
5, 10472, Note_on_c, 3, 75, 121
5, 10478, Note_on_c, 3, 75, 0
5, 10480, Note_on_c, 3, 80, 123
5, 10486, Note_on_c, 3, 80, 0
5, 10488, Note_on_c, 3, 85, 121
5, 10494, Note_on_c, 3, 85, 0
5, 10496, Note_on_c, 3, 80, 121
5, 10502, Note_on_c, 3, 80, 0
5, 10504, Note_on_c, 3, 85, 123
5, 10510, Note_on_c, 3, 85, 0
5, 10512, Note_on_c, 3, 80, 121
5, 10518, Note_on_c, 3, 80, 0
5, 10520, Note_on_c, 3, 75, 121
5, 10526, Note_on_c, 3, 75, 0
5, 10528, Note_on_c, 3, 80, 123
5, 10534, Note_on_c, 3, 80, 0
5, 10536, Note_on_c, 3, 85, 121
5, 10542, Note_on_c, 3, 85, 0
5, 10544, Note_on_c, 3, 80, 121
5, 10550, Note_on_c, 3, 80, 0
5, 10552, Note_on_c, 3, 85, 123
5, 10558, Note_on_c, 3, 85, 0
5, 10560, Note_on_c, 3, 80, 121
5, 10566, Note_on_c, 3, 80, 0
5, 10568, Note_on_c, 3, 75, 121
5, 10574, Note_on_c, 3, 75, 0
5, 10576, Note_on_c, 3, 80, 123
5, 10582, Note_on_c, 3, 80, 0
5, 10584, Note_on_c, 3, 84, 121
5, 10590, Note_on_c, 3, 84, 0
5, 10592, Note_on_c, 3, 80, 121
5, 10598, Note_on_c, 3, 80, 0
5, 10600, Note_on_c, 3, 84, 123
5, 10606, Note_on_c, 3, 84, 0
5, 10608, Note_on_c, 3, 80, 121
5, 10614, Note_on_c, 3, 80, 0
5, 10616, Note_on_c, 3, 75, 121
5, 10622, Note_on_c, 3, 75, 0
5, 10624, Note_on_c, 3, 80, 123
5, 10630, Note_on_c, 3, 80, 0
5, 10632, Note_on_c, 3, 84, 121
5, 10638, Note_on_c, 3, 84, 0
5, 10640, Note_on_c, 3, 80, 121
5, 10646, Note_on_c, 3, 80, 0
5, 10648, Note_on_c, 3, 84, 123
5, 10654, Note_on_c, 3, 84, 0
5, 10656, Note_on_c, 3, 85, 121
5, 10701, Note_on_c, 3, 85, 0
5, 10728, Note_on_c, 3, 73, 121
5, 10748, Note_on_c, 3, 73, 0
5, 10752, Note_on_c, 3, 80, 121
5, 10767, Note_on_c, 3, 80, 0
5, 10776, Note_on_c, 3, 78, 123
5, 10786, Note_on_c, 3, 78, 0
5, 10788, Note_on_c, 3, 76, 122
5, 10798, Note_on_c, 3, 76, 0
5, 10800, Note_on_c, 3, 78, 123
5, 10820, Note_on_c, 3, 78, 0
5, 10824, Note_on_c, 3, 80, 124
5, 10844, Note_on_c, 3, 80, 0
5, 10848, Note_on_c, 3, 81, 124
5, 10868, Note_on_c, 3, 81, 0
5, 10872, Note_on_c, 3, 80, 124
5, 10917, Note_on_c, 3, 80, 0
5, 10920, Note_on_c, 3, 73, 124
5, 10940, Note_on_c, 3, 73, 0
5, 10944, Note_on_c, 3, 80, 121
5, 10959, Note_on_c, 3, 80, 0
5, 10968, Note_on_c, 3, 78, 123
5, 10978, Note_on_c, 3, 78, 0
5, 10980, Note_on_c, 3, 76, 122
5, 10990, Note_on_c, 3, 76, 0
5, 10992, Note_on_c, 3, 78, 123
5, 11012, Note_on_c, 3, 78, 0
5, 11016, Note_on_c, 3, 80, 124
5, 11036, Note_on_c, 3, 80, 0
5, 11040, Note_on_c, 3, 81, 124
5, 11060, Note_on_c, 3, 81, 0
5, 11064, Note_on_c, 3, 80, 124
5, 11109, Note_on_c, 3, 80, 0
5, 11112, Note_on_c, 3, 73, 124
5, 11132, Note_on_c, 3, 73, 0
5, 11136, Note_on_c, 3, 81, 124
5, 11156, Note_on_c, 3, 81, 0
5, 11160, Note_on_c, 3, 80, 126
5, 11205, Note_on_c, 3, 80, 0
5, 11208, Note_on_c, 3, 78, 124
5, 11228, Note_on_c, 3, 78, 0
5, 11232, Note_on_c, 3, 76, 123
5, 11252, Note_on_c, 3, 76, 0
5, 11256, Note_on_c, 3, 75, 122
5, 11266, Note_on_c, 3, 75, 0
5, 11268, Note_on_c, 3, 73, 121
5, 11278, Note_on_c, 3, 73, 0
5, 11280, Note_on_c, 3, 75, 126
5, 11286, Note_on_c, 3, 75, 0
5, 11286, Note_on_c, 3, 76, 121
5, 11292, Note_on_c, 3, 76, 0
5, 11292, Note_on_c, 3, 75, 118
5, 11298, Note_on_c, 3, 75, 0
5, 11298, Note_on_c, 3, 76, 115
5, 11304, Note_on_c, 3, 76, 0
5, 11304, Note_on_c, 3, 75, 112
5, 11310, Note_on_c, 3, 75, 0
5, 11310, Note_on_c, 3, 76, 108
5, 11316, Note_on_c, 3, 76, 0
5, 11316, Note_on_c, 3, 75, 103
5, 11322, Note_on_c, 3, 75, 0
5, 11322, Note_on_c, 3, 76, 103
5, 11328, Note_on_c, 3, 76, 0
5, 11328, Note_on_c, 3, 73, 122
5, 11373, Note_on_c, 3, 73, 0
5, 11712, Control_c, 3, 1, 100
5, 11712, Control_c, 3, 11, 115
5, 11736, Note_on_c, 3, 73, 121
5, 11756, Note_on_c, 3, 73, 0
5, 11760, Note_on_c, 3, 73, 123
5, 11780, Note_on_c, 3, 73, 0
5, 11784, Note_on_c, 3, 73, 121
5, 11804, Note_on_c, 3, 73, 0
5, 11808, Note_on_c, 3, 73, 123
5, 11828, Note_on_c, 3, 73, 0
5, 11832, Note_on_c, 3, 73, 121
5, 11852, Note_on_c, 3, 73, 0
5, 11856, Note_on_c, 3, 73, 123
5, 11876, Note_on_c, 3, 73, 0
5, 11880, Note_on_c, 3, 75, 121
5, 11900, Note_on_c, 3, 75, 0
5, 11904, Note_on_c, 3, 76, 123
5, 11924, Note_on_c, 3, 76, 0
5, 11928, Note_on_c, 3, 76, 121
5, 11948, Note_on_c, 3, 76, 0
5, 11952, Note_on_c, 3, 77, 123
5, 11972, Note_on_c, 3, 77, 0
5, 11976, Note_on_c, 3, 77, 121
5, 11996, Note_on_c, 3, 77, 0
5, 12000, Note_on_c, 3, 78, 123
5, 12020, Note_on_c, 3, 78, 0
5, 12024, Note_on_c, 3, 78, 121
5, 12044, Note_on_c, 3, 78, 0
5, 12048, Note_on_c, 3, 79, 123
5, 12068, Note_on_c, 3, 79, 0
5, 12072, Note_on_c, 3, 79, 121
5, 12092, Note_on_c, 3, 79, 0
5, 12096, Control_c, 3, 1, 30
5, 12096, Control_c, 3, 7, 121
5, 12096, Note_on_c, 3, 85, 121
5, 12108, Note_on_c, 3, 85, 0
5, 12108, Note_on_c, 3, 87, 121
5, 12120, Note_on_c, 3, 87, 0
5, 12120, Note_on_c, 3, 85, 121
5, 12132, Note_on_c, 3, 85, 0
5, 12132, Note_on_c, 3, 87, 121
5, 12144, Note_on_c, 3, 87, 0
5, 12144, Note_on_c, 3, 85, 121
5, 12204, Note_on_c, 3, 85, 0
5, 12204, Note_on_c, 3, 87, 121
5, 12216, Note_on_c, 3, 87, 0
5, 12216, Note_on_c, 3, 85, 121
5, 12228, Note_on_c, 3, 85, 0
5, 12228, Note_on_c, 3, 87, 121
5, 12240, Note_on_c, 3, 87, 0
5, 12240, Note_on_c, 3, 85, 121
5, 12287, Note_on_c, 3, 85, 0
5, 12288, Note_on_c, 3, 85, 121
5, 12300, Note_on_c, 3, 85, 0
5, 12300, Note_on_c, 3, 87, 123
5, 12312, Note_on_c, 3, 87, 0
5, 12312, Note_on_c, 3, 85, 121
5, 12324, Note_on_c, 3, 85, 0
5, 12324, Note_on_c, 3, 87, 123
5, 12336, Note_on_c, 3, 87, 0
5, 12336, Note_on_c, 3, 85, 121
5, 12348, Note_on_c, 3, 85, 0
5, 12348, Note_on_c, 3, 87, 123
5, 12360, Note_on_c, 3, 87, 0
5, 12360, Note_on_c, 3, 85, 121
5, 12372, Note_on_c, 3, 85, 0
5, 12372, Note_on_c, 3, 87, 123
5, 12384, Note_on_c, 3, 87, 0
5, 12384, Note_on_c, 3, 85, 123
5, 12390, Note_on_c, 3, 85, 0
5, 12390, Note_on_c, 3, 87, 122
5, 12396, Note_on_c, 3, 87, 0
5, 12396, Note_on_c, 3, 85, 121
5, 12402, Note_on_c, 3, 85, 0
5, 12402, Note_on_c, 3, 87, 119
5, 12408, Note_on_c, 3, 87, 0
5, 12408, Note_on_c, 3, 85, 118
5, 12414, Note_on_c, 3, 85, 0
5, 12414, Note_on_c, 3, 87, 117
5, 12420, Note_on_c, 3, 87, 0
5, 12420, Note_on_c, 3, 85, 115
5, 12426, Note_on_c, 3, 85, 0
5, 12426, Note_on_c, 3, 87, 113
5, 12432, Note_on_c, 3, 87, 0
5, 12432, Note_on_c, 3, 85, 112
5, 12438, Note_on_c, 3, 85, 0
5, 12438, Note_on_c, 3, 87, 110
5, 12444, Note_on_c, 3, 87, 0
5, 12444, Note_on_c, 3, 85, 108
5, 12450, Note_on_c, 3, 85, 0
5, 12450, Note_on_c, 3, 87, 105
5, 12456, Note_on_c, 3, 87, 0
5, 12456, Note_on_c, 3, 85, 103
5, 12462, Note_on_c, 3, 85, 0
5, 12462, Note_on_c, 3, 87, 100
5, 12468, Note_on_c, 3, 87, 0
5, 12468, Note_on_c, 3, 85, 97
5, 12474, Note_on_c, 3, 85, 0
5, 12474, Note_on_c, 3, 87, 94
5, 12480, Note_on_c, 3, 87, 0
5, 12480, Note_on_c, 3, 85, 121
5, 12486, Note_on_c, 3, 85, 0
5, 12486, Note_on_c, 3, 87, 123
5, 12492, Note_on_c, 3, 87, 0
5, 12492, Note_on_c, 3, 85, 121
5, 12498, Note_on_c, 3, 85, 0
5, 12498, Note_on_c, 3, 87, 123
5, 12504, Note_on_c, 3, 87, 0
5, 12504, Note_on_c, 3, 85, 121
5, 12510, Note_on_c, 3, 85, 0
5, 12510, Note_on_c, 3, 87, 123
5, 12516, Note_on_c, 3, 87, 0
5, 12516, Note_on_c, 3, 85, 121
5, 12522, Note_on_c, 3, 85, 0
5, 12522, Note_on_c, 3, 87, 123
5, 12528, Note_on_c, 3, 87, 0
5, 12528, Note_on_c, 3, 85, 121
5, 12534, Note_on_c, 3, 85, 0
5, 12534, Note_on_c, 3, 87, 123
5, 12540, Note_on_c, 3, 87, 0
5, 12540, Note_on_c, 3, 85, 121
5, 12546, Note_on_c, 3, 85, 0
5, 12546, Note_on_c, 3, 87, 123
5, 12552, Note_on_c, 3, 87, 0
5, 12552, Note_on_c, 3, 85, 121
5, 12558, Note_on_c, 3, 85, 0
5, 12558, Note_on_c, 3, 87, 123
5, 12564, Note_on_c, 3, 87, 0
5, 12564, Note_on_c, 3, 85, 121
5, 12570, Note_on_c, 3, 85, 0
5, 12570, Note_on_c, 3, 87, 123
5, 12576, Note_on_c, 3, 87, 0
5, 12576, Note_on_c, 3, 85, 121
5, 12582, Note_on_c, 3, 85, 0
5, 12582, Note_on_c, 3, 87, 122
5, 12588, Note_on_c, 3, 87, 0
5, 12588, Note_on_c, 3, 85, 121
5, 12594, Note_on_c, 3, 85, 0
5, 12594, Note_on_c, 3, 87, 121
5, 12600, Note_on_c, 3, 87, 0
5, 12600, Note_on_c, 3, 85, 122
5, 12606, Note_on_c, 3, 85, 0
5, 12606, Note_on_c, 3, 87, 123
5, 12612, Note_on_c, 3, 87, 0
5, 12612, Note_on_c, 3, 85, 124
5, 12618, Note_on_c, 3, 85, 0
5, 12618, Note_on_c, 3, 87, 124
5, 12624, Note_on_c, 3, 87, 0
5, 12624, Note_on_c, 3, 85, 124
5, 12630, Note_on_c, 3, 85, 0
5, 12630, Note_on_c, 3, 87, 125
5, 12636, Note_on_c, 3, 87, 0
5, 12636, Note_on_c, 3, 85, 126
5, 12642, Note_on_c, 3, 85, 0
5, 12642, Note_on_c, 3, 87, 126
5, 12648, Note_on_c, 3, 87, 0
5, 12648, Note_on_c, 3, 85, 126
5, 12654, Note_on_c, 3, 85, 0
5, 12654, Note_on_c, 3, 87, 127
5, 12660, Note_on_c, 3, 87, 0
5, 12660, Note_on_c, 3, 85, 127
5, 12666, Note_on_c, 3, 85, 0
5, 12666, Note_on_c, 3, 87, 127
5, 12672, Note_on_c, 3, 87, 0
5, 12672, Control_c, 3, 7, 124
5, 12672, Control_c, 3, 11, 115
5, 12672, Control_c, 3, 1, 80
5, 12672, Note_on_c, 3, 80, 123
5, 12688, Note_on_c, 3, 80, 0
5, 12696, Note_on_c, 3, 80, 126
5, 12714, Note_on_c, 3, 80, 0
5, 12720, Note_on_c, 3, 80, 124
5, 12736, Note_on_c, 3, 80, 0
5, 12744, Note_on_c, 3, 78, 123
5, 12754, Note_on_c, 3, 78, 0
5, 12756, Note_on_c, 3, 80, 124
5, 12766, Note_on_c, 3, 80, 0
5, 12768, Note_on_c, 3, 81, 126
5, 12838, Note_on_c, 3, 81, 0
5, 12840, Note_on_c, 3, 81, 121
5, 12850, Note_on_c, 3, 81, 0
5, 12852, Note_on_c, 3, 80, 122
5, 12862, Note_on_c, 3, 80, 0
5, 12864, Note_on_c, 3, 78, 123
5, 12880, Note_on_c, 3, 78, 0
5, 12888, Note_on_c, 3, 78, 126
5, 12908, Note_on_c, 3, 78, 0
5, 12912, Note_on_c, 3, 78, 124
5, 12929, Note_on_c, 3, 78, 0
5, 12936, Note_on_c, 3, 76, 123
5, 12946, Note_on_c, 3, 76, 0
5, 12948, Note_on_c, 3, 78, 124
5, 12958, Note_on_c, 3, 78, 0
5, 12960, Note_on_c, 3, 80, 126
5, 13030, Note_on_c, 3, 80, 0
5, 13032, Note_on_c, 3, 80, 121
5, 13042, Note_on_c, 3, 80, 0
5, 13044, Note_on_c, 3, 81, 122
5, 13054, Note_on_c, 3, 81, 0
5, 13056, Note_on_c, 3, 83, 123
5, 13072, Note_on_c, 3, 83, 0
5, 13080, Note_on_c, 3, 83, 124
5, 13100, Note_on_c, 3, 83, 0
5, 13104, Note_on_c, 3, 83, 126
5, 13121, Note_on_c, 3, 83, 0
5, 13128, Note_on_c, 3, 83, 122
5, 13138, Note_on_c, 3, 83, 0
5, 13140, Note_on_c, 3, 81, 123
5, 13150, Note_on_c, 3, 81, 0
5, 13152, Note_on_c, 3, 80, 121
5, 13168, Note_on_c, 3, 80, 0
5, 13176, Note_on_c, 3, 80, 123
5, 13193, Note_on_c, 3, 80, 0
5, 13200, Note_on_c, 3, 80, 122
5, 13220, Note_on_c, 3, 80, 0
5, 13224, Note_on_c, 3, 80, 121
5, 13234, Note_on_c, 3, 80, 0
5, 13236, Note_on_c, 3, 81, 124
5, 13246, Note_on_c, 3, 81, 0
5, 13248, Note_on_c, 3, 83, 123
5, 13264, Note_on_c, 3, 83, 0
5, 13272, Note_on_c, 3, 83, 124
5, 13292, Note_on_c, 3, 83, 0
5, 13296, Note_on_c, 3, 83, 126
5, 13313, Note_on_c, 3, 83, 0
5, 13320, Note_on_c, 3, 83, 122
5, 13330, Note_on_c, 3, 83, 0
5, 13332, Note_on_c, 3, 81, 123
5, 13342, Note_on_c, 3, 81, 0
5, 13344, Note_on_c, 3, 80, 121
5, 13360, Note_on_c, 3, 80, 0
5, 13368, Note_on_c, 3, 80, 123
5, 13386, Note_on_c, 3, 80, 0
5, 13392, Note_on_c, 3, 80, 122
5, 13412, Note_on_c, 3, 80, 0
5, 13416, Note_on_c, 3, 80, 121
5, 13426, Note_on_c, 3, 80, 0
5, 13428, Note_on_c, 3, 81, 124
5, 13438, Note_on_c, 3, 81, 0
5, 13440, Note_on_c, 3, 83, 123
5, 13456, Note_on_c, 3, 83, 0
5, 13464, Note_on_c, 3, 83, 124
5, 13484, Note_on_c, 3, 83, 0
5, 13488, Note_on_c, 3, 83, 124
5, 13505, Note_on_c, 3, 83, 0
5, 13512, Note_on_c, 3, 81, 122
5, 13522, Note_on_c, 3, 81, 0
5, 13524, Note_on_c, 3, 80, 123
5, 13534, Note_on_c, 3, 80, 0
5, 13536, Control_c, 3, 7, 121
5, 13536, Note_on_c, 3, 78, 121
5, 13548, Note_on_c, 3, 78, 0
5, 13548, Note_on_c, 3, 71, 121
5, 13560, Note_on_c, 3, 71, 0
5, 13560, Note_on_c, 3, 73, 124
5, 13572, Note_on_c, 3, 73, 0
5, 13572, Note_on_c, 3, 71, 121
5, 13584, Note_on_c, 3, 71, 0
5, 13584, Note_on_c, 3, 75, 124
5, 13596, Note_on_c, 3, 75, 0
5, 13596, Note_on_c, 3, 73, 121
5, 13608, Note_on_c, 3, 73, 0
5, 13608, Note_on_c, 3, 76, 124
5, 13620, Note_on_c, 3, 76, 0
5, 13620, Note_on_c, 3, 73, 121
5, 13632, Note_on_c, 3, 73, 0
5, 13632, Note_on_c, 3, 78, 123
5, 13642, Note_on_c, 3, 78, 0
5, 13644, Note_on_c, 3, 76, 119
5, 13654, Note_on_c, 3, 76, 0
5, 13656, Note_on_c, 3, 80, 123
5, 13668, Note_on_c, 3, 80, 0
5, 13668, Note_on_c, 3, 78, 119
5, 13680, Note_on_c, 3, 78, 0
5, 13680, Note_on_c, 3, 81, 123
5, 13692, Note_on_c, 3, 81, 0
5, 13692, Note_on_c, 3, 80, 119
5, 13704, Note_on_c, 3, 80, 0
5, 13704, Note_on_c, 3, 83, 123
5, 13716, Note_on_c, 3, 83, 0
5, 13716, Note_on_c, 3, 81, 119
5, 13728, Note_on_c, 3, 81, 0
5, 13728, Note_on_c, 3, 71, 123
5, 13740, Note_on_c, 3, 71, 0
5, 13740, Note_on_c, 3, 69, 119
5, 13752, Note_on_c, 3, 69, 0
5, 13752, Note_on_c, 3, 73, 123
5, 13764, Note_on_c, 3, 73, 0
5, 13764, Note_on_c, 3, 71, 119
5, 13776, Note_on_c, 3, 71, 0
5, 13776, Note_on_c, 3, 75, 123
5, 13788, Note_on_c, 3, 75, 0
5, 13788, Note_on_c, 3, 73, 119
5, 13800, Note_on_c, 3, 73, 0
5, 13800, Note_on_c, 3, 76, 123
5, 13812, Note_on_c, 3, 76, 0
5, 13812, Note_on_c, 3, 75, 119
5, 13824, Note_on_c, 3, 75, 0
5, 13824, Note_on_c, 3, 78, 123
5, 13834, Note_on_c, 3, 78, 0
5, 13836, Note_on_c, 3, 76, 119
5, 13846, Note_on_c, 3, 76, 0
5, 13848, Note_on_c, 3, 80, 123
5, 13860, Note_on_c, 3, 80, 0
5, 13860, Note_on_c, 3, 78, 119
5, 13872, Note_on_c, 3, 78, 0
5, 13872, Note_on_c, 3, 81, 123
5, 13884, Note_on_c, 3, 81, 0
5, 13884, Note_on_c, 3, 80, 119
5, 13896, Note_on_c, 3, 80, 0
5, 13896, Note_on_c, 3, 83, 123
5, 13908, Note_on_c, 3, 83, 0
5, 13908, Note_on_c, 3, 81, 119
5, 13920, Note_on_c, 3, 81, 0
5, 13920, Note_on_c, 3, 80, 123
5, 13932, Note_on_c, 3, 80, 0
5, 13932, Note_on_c, 3, 76, 119
5, 13944, Note_on_c, 3, 76, 0
5, 13944, Note_on_c, 3, 78, 123
5, 13956, Note_on_c, 3, 78, 0
5, 13956, Note_on_c, 3, 76, 119
5, 13968, Note_on_c, 3, 76, 0
5, 13968, Note_on_c, 3, 80, 123
5, 13980, Note_on_c, 3, 80, 0
5, 13980, Note_on_c, 3, 76, 119
5, 13992, Note_on_c, 3, 76, 0
5, 13992, Note_on_c, 3, 78, 123
5, 14004, Note_on_c, 3, 78, 0
5, 14004, Note_on_c, 3, 76, 119
5, 14016, Note_on_c, 3, 76, 0
5, 14016, Note_on_c, 3, 81, 123
5, 14026, Note_on_c, 3, 81, 0
5, 14028, Note_on_c, 3, 76, 119
5, 14038, Note_on_c, 3, 76, 0
5, 14040, Note_on_c, 3, 78, 123
5, 14052, Note_on_c, 3, 78, 0
5, 14052, Note_on_c, 3, 76, 119
5, 14064, Note_on_c, 3, 76, 0
5, 14064, Note_on_c, 3, 81, 123
5, 14076, Note_on_c, 3, 81, 0
5, 14076, Note_on_c, 3, 76, 119
5, 14088, Note_on_c, 3, 76, 0
5, 14088, Note_on_c, 3, 78, 123
5, 14100, Note_on_c, 3, 78, 0
5, 14100, Note_on_c, 3, 76, 119
5, 14112, Note_on_c, 3, 76, 0
5, 14112, Note_on_c, 3, 83, 118
5, 14124, Note_on_c, 3, 83, 0
5, 14124, Note_on_c, 3, 76, 119
5, 14136, Note_on_c, 3, 76, 0
5, 14136, Note_on_c, 3, 78, 123
5, 14148, Note_on_c, 3, 78, 0
5, 14148, Note_on_c, 3, 76, 119
5, 14160, Note_on_c, 3, 76, 0
5, 14160, Note_on_c, 3, 83, 118
5, 14172, Note_on_c, 3, 83, 0
5, 14172, Note_on_c, 3, 76, 119
5, 14184, Note_on_c, 3, 76, 0
5, 14184, Note_on_c, 3, 78, 123
5, 14196, Note_on_c, 3, 78, 0
5, 14196, Note_on_c, 3, 76, 119
5, 14208, Note_on_c, 3, 76, 0
5, 14592, Control_c, 3, 7, 126
5, 14592, Note_on_c, 3, 71, 119
5, 14592, Note_on_c, 3, 83, 121
5, 14609, Note_on_c, 3, 71, 0
5, 14609, Note_on_c, 3, 83, 0
5, 14616, Note_on_c, 3, 81, 123
5, 14626, Note_on_c, 3, 81, 0
5, 14628, Note_on_c, 3, 80, 122
5, 14638, Note_on_c, 3, 80, 0
5, 14640, Note_on_c, 3, 81, 123
5, 14660, Note_on_c, 3, 81, 0
5, 14664, Note_on_c, 3, 83, 124
5, 14684, Note_on_c, 3, 83, 0
5, 14688, Note_on_c, 3, 85, 124
5, 14708, Note_on_c, 3, 85, 0
5, 14712, Note_on_c, 3, 83, 124
5, 14757, Note_on_c, 3, 83, 0
5, 14760, Note_on_c, 3, 76, 121
5, 14780, Note_on_c, 3, 76, 0
5, 14784, Note_on_c, 3, 83, 123
5, 14801, Note_on_c, 3, 83, 0
5, 14808, Note_on_c, 3, 81, 123
5, 14818, Note_on_c, 3, 81, 0
5, 14820, Note_on_c, 3, 80, 122
5, 14830, Note_on_c, 3, 80, 0
5, 14832, Note_on_c, 3, 81, 123
5, 14852, Note_on_c, 3, 81, 0
5, 14856, Note_on_c, 3, 83, 124
5, 14876, Note_on_c, 3, 83, 0
5, 14880, Note_on_c, 3, 85, 124
5, 14900, Note_on_c, 3, 85, 0
5, 14904, Note_on_c, 3, 83, 123
5, 14949, Note_on_c, 3, 83, 0
5, 14952, Note_on_c, 3, 76, 121
5, 14972, Note_on_c, 3, 76, 0
5, 14976, Note_on_c, 3, 85, 124
5, 14996, Note_on_c, 3, 85, 0
5, 15000, Note_on_c, 3, 83, 124
5, 15045, Note_on_c, 3, 83, 0
5, 15048, Note_on_c, 3, 81, 124
5, 15068, Note_on_c, 3, 81, 0
5, 15072, Note_on_c, 3, 80, 123
5, 15092, Note_on_c, 3, 80, 0
5, 15096, Note_on_c, 3, 78, 122
5, 15106, Note_on_c, 3, 78, 0
5, 15108, Note_on_c, 3, 76, 121
5, 15118, Note_on_c, 3, 76, 0
5, 15120, Note_on_c, 3, 78, 126
5, 15126, Note_on_c, 3, 78, 0
5, 15126, Note_on_c, 3, 80, 121
5, 15132, Note_on_c, 3, 80, 0
5, 15132, Note_on_c, 3, 78, 118
5, 15138, Note_on_c, 3, 78, 0
5, 15138, Note_on_c, 3, 80, 115
5, 15144, Note_on_c, 3, 80, 0
5, 15144, Note_on_c, 3, 78, 112
5, 15150, Note_on_c, 3, 78, 0
5, 15150, Note_on_c, 3, 80, 108
5, 15156, Note_on_c, 3, 80, 0
5, 15156, Note_on_c, 3, 78, 103
5, 15162, Note_on_c, 3, 78, 0
5, 15162, Note_on_c, 3, 80, 103
5, 15168, Note_on_c, 3, 80, 0
5, 15168, Note_on_c, 3, 76, 121
5, 15213, Note_on_c, 3, 76, 0
5, 15240, Note_on_c, 3, 76, 115
5, 15260, Note_on_c, 3, 76, 0
5, 15264, Note_on_c, 3, 83, 115
5, 15281, Note_on_c, 3, 83, 0
5, 15288, Note_on_c, 3, 81, 112
5, 15298, Note_on_c, 3, 81, 0
5, 15300, Note_on_c, 3, 80, 110
5, 15310, Note_on_c, 3, 80, 0
5, 15312, Note_on_c, 3, 81, 112
5, 15332, Note_on_c, 3, 81, 0
5, 15336, Note_on_c, 3, 83, 115
5, 15356, Note_on_c, 3, 83, 0
5, 15360, Note_on_c, 3, 85, 117
5, 15380, Note_on_c, 3, 85, 0
5, 15384, Note_on_c, 3, 83, 115
5, 15429, Note_on_c, 3, 83, 0
5, 15432, Note_on_c, 3, 76, 112
5, 15452, Note_on_c, 3, 76, 0
5, 15456, Note_on_c, 3, 83, 115
5, 15473, Note_on_c, 3, 83, 0
5, 15480, Note_on_c, 3, 81, 112
5, 15490, Note_on_c, 3, 81, 0
5, 15492, Note_on_c, 3, 80, 110
5, 15502, Note_on_c, 3, 80, 0
5, 15504, Note_on_c, 3, 81, 112
5, 15524, Note_on_c, 3, 81, 0
5, 15528, Note_on_c, 3, 83, 115
5, 15548, Note_on_c, 3, 83, 0
5, 15552, Note_on_c, 3, 85, 117
5, 15572, Note_on_c, 3, 85, 0
5, 15576, Note_on_c, 3, 83, 115
5, 15621, Note_on_c, 3, 83, 0
5, 15624, Note_on_c, 3, 76, 112
5, 15644, Note_on_c, 3, 76, 0
5, 15648, Note_on_c, 3, 85, 117
5, 15668, Note_on_c, 3, 85, 0
5, 15672, Note_on_c, 3, 83, 115
5, 15717, Note_on_c, 3, 83, 0
5, 15720, Note_on_c, 3, 81, 112
5, 15740, Note_on_c, 3, 81, 0
5, 15744, Note_on_c, 3, 80, 115
5, 15764, Note_on_c, 3, 80, 0
5, 15768, Note_on_c, 3, 78, 113
5, 15778, Note_on_c, 3, 78, 0
5, 15780, Note_on_c, 3, 76, 112
5, 15790, Note_on_c, 3, 76, 0
5, 15792, Note_on_c, 3, 78, 121
5, 15798, Note_on_c, 3, 78, 0
5, 15798, Note_on_c, 3, 80, 115
5, 15804, Note_on_c, 3, 80, 0
5, 15804, Note_on_c, 3, 78, 112
5, 15810, Note_on_c, 3, 78, 0
5, 15810, Note_on_c, 3, 80, 108
5, 15816, Note_on_c, 3, 80, 0
5, 15816, Note_on_c, 3, 78, 103
5, 15822, Note_on_c, 3, 78, 0
5, 15822, Note_on_c, 3, 80, 97
5, 15828, Note_on_c, 3, 80, 0
5, 15828, Note_on_c, 3, 78, 90
5, 15834, Note_on_c, 3, 78, 0
5, 15834, Note_on_c, 3, 80, 90
5, 15840, Note_on_c, 3, 80, 0
5, 15840, Note_on_c, 3, 76, 90
5, 16088, Note_on_c, 3, 76, 0
5, 16128, Control_c, 3, 7, 120
5, 16128, End_track
6, 0, Start_track
6, 0, Title_t, "WinJammer Demo"
6, 0, Instrument_name_t, "Violin"
6, 0, MIDI_port, 0
6, 0, Pitch_bend_c, 4, 8192
6, 0, Control_c, 4, 10, 40
6, 0, Control_c, 4, 64, 0
6, 0, Control_c, 4, 7, 121
6, 0, Control_c, 4, 11, 120
6, 0, Control_c, 4, 1, 30
6, 0, Program_c, 4, 40
6, 168, Note_on_c, 4, 71, 121
6, 188, Note_on_c, 4, 71, 0
6, 192, Note_on_c, 4, 76, 121
6, 207, Note_on_c, 4, 76, 0
6, 216, Note_on_c, 4, 76, 123
6, 231, Note_on_c, 4, 76, 0
6, 240, Note_on_c, 4, 76, 126
6, 260, Note_on_c, 4, 76, 0
6, 264, Note_on_c, 4, 76, 121
6, 284, Note_on_c, 4, 76, 0
6, 288, Note_on_c, 4, 80, 121
6, 356, Note_on_c, 4, 80, 0
6, 360, Control_c, 4, 7, 115
6, 360, Note_on_c, 4, 80, 126
6, 362, Control_c, 4, 7, 118
6, 364, Control_c, 4, 7, 119
6, 368, Control_c, 4, 7, 121
6, 370, Note_on_c, 4, 80, 0
6, 372, Note_on_c, 4, 78, 123
6, 382, Note_on_c, 4, 78, 0
6, 384, Note_on_c, 4, 76, 121
6, 399, Note_on_c, 4, 76, 0
6, 408, Note_on_c, 4, 76, 123
6, 423, Note_on_c, 4, 76, 0
6, 432, Note_on_c, 4, 76, 126
6, 452, Note_on_c, 4, 76, 0
6, 456, Note_on_c, 4, 76, 121
6, 476, Note_on_c, 4, 76, 0
6, 480, Note_on_c, 4, 80, 121
6, 548, Note_on_c, 4, 80, 0
6, 552, Control_c, 4, 7, 115
6, 552, Note_on_c, 4, 80, 126
6, 554, Control_c, 4, 7, 118
6, 556, Control_c, 4, 7, 119
6, 560, Control_c, 4, 7, 121
6, 562, Note_on_c, 4, 80, 0
6, 564, Note_on_c, 4, 78, 123
6, 574, Note_on_c, 4, 78, 0
6, 576, Note_on_c, 4, 76, 123
6, 596, Note_on_c, 4, 76, 0
6, 600, Note_on_c, 4, 78, 126
6, 610, Note_on_c, 4, 78, 0
6, 612, Note_on_c, 4, 80, 126
6, 622, Note_on_c, 4, 80, 0
6, 624, Note_on_c, 4, 78, 124
6, 644, Note_on_c, 4, 78, 0
6, 648, Note_on_c, 4, 76, 123
6, 668, Note_on_c, 4, 76, 0
6, 672, Note_on_c, 4, 75, 121
6, 717, Note_on_c, 4, 75, 0
6, 744, Note_on_c, 4, 71, 112
6, 764, Note_on_c, 4, 71, 0
6, 768, Note_on_c, 4, 76, 108
6, 788, Note_on_c, 4, 76, 0
6, 792, Note_on_c, 4, 76, 112
6, 812, Note_on_c, 4, 76, 0
6, 816, Note_on_c, 4, 76, 115
6, 836, Note_on_c, 4, 76, 0
6, 840, Note_on_c, 4, 76, 108
6, 860, Note_on_c, 4, 76, 0
6, 864, Note_on_c, 4, 80, 108
6, 932, Note_on_c, 4, 80, 0
6, 936, Control_c, 4, 7, 115
6, 936, Note_on_c, 4, 80, 112
6, 938, Control_c, 4, 7, 118
6, 940, Control_c, 4, 7, 119
6, 944, Control_c, 4, 7, 121
6, 946, Note_on_c, 4, 80, 0
6, 948, Note_on_c, 4, 78, 112
6, 958, Note_on_c, 4, 78, 0
6, 960, Note_on_c, 4, 76, 108
6, 980, Note_on_c, 4, 76, 0
6, 984, Note_on_c, 4, 76, 112
6, 1004, Note_on_c, 4, 76, 0
6, 1008, Note_on_c, 4, 76, 115
6, 1028, Note_on_c, 4, 76, 0
6, 1032, Note_on_c, 4, 76, 108
6, 1052, Note_on_c, 4, 76, 0
6, 1056, Note_on_c, 4, 80, 108
6, 1124, Note_on_c, 4, 80, 0
6, 1128, Control_c, 4, 7, 115
6, 1128, Note_on_c, 4, 80, 108
6, 1130, Control_c, 4, 7, 118
6, 1132, Control_c, 4, 7, 119
6, 1136, Control_c, 4, 7, 121
6, 1138, Note_on_c, 4, 80, 0
6, 1140, Note_on_c, 4, 78, 112
6, 1150, Note_on_c, 4, 78, 0
6, 1152, Note_on_c, 4, 76, 112
6, 1172, Note_on_c, 4, 76, 0
6, 1176, Note_on_c, 4, 78, 115
6, 1186, Note_on_c, 4, 78, 0
6, 1188, Note_on_c, 4, 80, 117
6, 1198, Note_on_c, 4, 80, 0
6, 1200, Note_on_c, 4, 78, 115
6, 1220, Note_on_c, 4, 78, 0
6, 1224, Note_on_c, 4, 76, 112
6, 1244, Note_on_c, 4, 76, 0
6, 1248, Note_on_c, 4, 75, 108
6, 1293, Note_on_c, 4, 75, 0
6, 1320, Note_on_c, 4, 80, 121
6, 1340, Note_on_c, 4, 80, 0
6, 1344, Note_on_c, 4, 80, 126
6, 1362, Note_on_c, 4, 80, 0
6, 1368, Note_on_c, 4, 78, 123
6, 1378, Note_on_c, 4, 78, 0
6, 1380, Note_on_c, 4, 76, 122
6, 1390, Note_on_c, 4, 76, 0
6, 1392, Note_on_c, 4, 78, 123
6, 1412, Note_on_c, 4, 78, 0
6, 1416, Note_on_c, 4, 80, 126
6, 1436, Note_on_c, 4, 80, 0
6, 1440, Note_on_c, 4, 81, 127
6, 1460, Note_on_c, 4, 81, 0
6, 1464, Note_on_c, 4, 80, 126
6, 1509, Note_on_c, 4, 80, 0
6, 1512, Note_on_c, 4, 80, 126
6, 1532, Note_on_c, 4, 80, 0
6, 1536, Note_on_c, 4, 80, 126
6, 1554, Note_on_c, 4, 80, 0
6, 1560, Note_on_c, 4, 78, 123
6, 1570, Note_on_c, 4, 78, 0
6, 1572, Note_on_c, 4, 76, 122
6, 1582, Note_on_c, 4, 76, 0
6, 1584, Note_on_c, 4, 78, 123
6, 1604, Note_on_c, 4, 78, 0
6, 1608, Note_on_c, 4, 80, 126
6, 1628, Note_on_c, 4, 80, 0
6, 1632, Note_on_c, 4, 81, 127
6, 1652, Note_on_c, 4, 81, 0
6, 1656, Note_on_c, 4, 80, 126
6, 1701, Note_on_c, 4, 80, 0
6, 1704, Note_on_c, 4, 80, 126
6, 1724, Note_on_c, 4, 80, 0
6, 1728, Note_on_c, 4, 81, 124
6, 1748, Note_on_c, 4, 81, 0
6, 1752, Note_on_c, 4, 80, 127
6, 1797, Note_on_c, 4, 80, 0
6, 1800, Note_on_c, 4, 78, 124
6, 1820, Note_on_c, 4, 78, 0
6, 1824, Note_on_c, 4, 76, 123
6, 1869, Note_on_c, 4, 76, 0
6, 1872, Control_c, 4, 7, 115
6, 1872, Note_on_c, 4, 75, 121
6, 1884, Control_c, 4, 7, 118
6, 1896, Control_c, 4, 7, 119
6, 1908, Control_c, 4, 7, 121
6, 1917, Note_on_c, 4, 75, 0
6, 1920, Note_on_c, 4, 76, 121
6, 1965, Note_on_c, 4, 76, 0
6, 1992, Note_on_c, 4, 80, 115
6, 2012, Note_on_c, 4, 80, 0
6, 2016, Note_on_c, 4, 80, 115
6, 2036, Note_on_c, 4, 80, 0
6, 2040, Note_on_c, 4, 78, 112
6, 2050, Note_on_c, 4, 78, 0
6, 2052, Note_on_c, 4, 76, 110
6, 2062, Note_on_c, 4, 76, 0
6, 2064, Note_on_c, 4, 78, 112
6, 2084, Note_on_c, 4, 78, 0
6, 2088, Note_on_c, 4, 80, 115
6, 2108, Note_on_c, 4, 80, 0
6, 2112, Note_on_c, 4, 81, 117
6, 2132, Note_on_c, 4, 81, 0
6, 2136, Note_on_c, 4, 80, 115
6, 2181, Note_on_c, 4, 80, 0
6, 2184, Note_on_c, 4, 80, 112
6, 2204, Note_on_c, 4, 80, 0
6, 2208, Note_on_c, 4, 80, 115
6, 2228, Note_on_c, 4, 80, 0
6, 2232, Note_on_c, 4, 78, 112
6, 2242, Note_on_c, 4, 78, 0
6, 2244, Note_on_c, 4, 76, 110
6, 2254, Note_on_c, 4, 76, 0
6, 2256, Note_on_c, 4, 78, 112
6, 2276, Note_on_c, 4, 78, 0
6, 2280, Note_on_c, 4, 80, 115
6, 2300, Note_on_c, 4, 80, 0
6, 2304, Note_on_c, 4, 81, 117
6, 2324, Note_on_c, 4, 81, 0
6, 2328, Note_on_c, 4, 80, 115
6, 2373, Note_on_c, 4, 80, 0
6, 2376, Note_on_c, 4, 80, 112
6, 2396, Note_on_c, 4, 80, 0
6, 2400, Note_on_c, 4, 81, 117
6, 2420, Note_on_c, 4, 81, 0
6, 2424, Note_on_c, 4, 80, 115
6, 2469, Note_on_c, 4, 80, 0
6, 2472, Note_on_c, 4, 78, 112
6, 2492, Note_on_c, 4, 78, 0
6, 2496, Note_on_c, 4, 76, 112
6, 2541, Note_on_c, 4, 76, 0
6, 2544, Note_on_c, 4, 75, 112
6, 2589, Note_on_c, 4, 75, 0
6, 2592, Note_on_c, 4, 76, 112
6, 2637, Note_on_c, 4, 76, 0
6, 2688, Control_c, 4, 7, 118
6, 2688, Control_c, 4, 1, 80
6, 2700, Note_on_c, 4, 81, 118
6, 2710, Note_on_c, 4, 81, 0
6, 2712, Note_on_c, 4, 80, 115
6, 2722, Note_on_c, 4, 80, 0
6, 2724, Note_on_c, 4, 81, 112
6, 2734, Note_on_c, 4, 81, 0
6, 2736, Note_on_c, 4, 80, 121
6, 2742, Note_on_c, 4, 80, 0
6, 2742, Note_on_c, 4, 81, 115
6, 2748, Note_on_c, 4, 81, 0
6, 2748, Note_on_c, 4, 80, 112
6, 2754, Note_on_c, 4, 80, 0
6, 2754, Note_on_c, 4, 81, 108
6, 2760, Note_on_c, 4, 81, 0
6, 2760, Note_on_c, 4, 80, 103
6, 2766, Note_on_c, 4, 80, 0
6, 2766, Note_on_c, 4, 81, 97
6, 2772, Note_on_c, 4, 81, 0
6, 2772, Note_on_c, 4, 80, 90
6, 2778, Note_on_c, 4, 80, 0
6, 2778, Note_on_c, 4, 81, 90
6, 2784, Note_on_c, 4, 81, 0
6, 2796, Note_on_c, 4, 81, 118
6, 2806, Note_on_c, 4, 81, 0
6, 2808, Note_on_c, 4, 80, 115
6, 2818, Note_on_c, 4, 80, 0
6, 2820, Note_on_c, 4, 81, 112
6, 2830, Note_on_c, 4, 81, 0
6, 2832, Note_on_c, 4, 80, 121
6, 2838, Note_on_c, 4, 80, 0
6, 2838, Note_on_c, 4, 81, 115
6, 2844, Note_on_c, 4, 81, 0
6, 2844, Note_on_c, 4, 80, 112
6, 2850, Note_on_c, 4, 80, 0
6, 2850, Note_on_c, 4, 81, 108
6, 2856, Note_on_c, 4, 81, 0
6, 2856, Note_on_c, 4, 80, 103
6, 2862, Note_on_c, 4, 80, 0
6, 2862, Note_on_c, 4, 81, 97
6, 2868, Note_on_c, 4, 81, 0
6, 2868, Note_on_c, 4, 80, 90
6, 2874, Note_on_c, 4, 80, 0
6, 2874, Note_on_c, 4, 81, 90
6, 2880, Note_on_c, 4, 81, 0
6, 2904, Note_on_c, 4, 83, 118
6, 2910, Note_on_c, 4, 81, 115
6, 2914, Note_on_c, 4, 83, 0
6, 2916, Note_on_c, 4, 80, 112
6, 2920, Note_on_c, 4, 81, 0
6, 2922, Note_on_c, 4, 78, 108
6, 2926, Note_on_c, 4, 80, 0
6, 2928, Note_on_c, 4, 76, 105
6, 2932, Note_on_c, 4, 78, 0
6, 2973, Note_on_c, 4, 76, 0
6, 3000, Note_on_c, 4, 83, 118
6, 3006, Note_on_c, 4, 81, 115
6, 3010, Note_on_c, 4, 83, 0
6, 3012, Note_on_c, 4, 80, 112
6, 3016, Note_on_c, 4, 81, 0
6, 3018, Note_on_c, 4, 78, 108
6, 3022, Note_on_c, 4, 80, 0
6, 3024, Note_on_c, 4, 76, 105
6, 3028, Note_on_c, 4, 78, 0
6, 3069, Note_on_c, 4, 76, 0
6, 3072, Control_c, 4, 7, 115
6, 3072, Control_c, 4, 1, 80
6, 3084, Note_on_c, 4, 81, 118
6, 3094, Note_on_c, 4, 81, 0
6, 3096, Note_on_c, 4, 80, 115
6, 3106, Note_on_c, 4, 80, 0
6, 3108, Note_on_c, 4, 81, 112
6, 3118, Note_on_c, 4, 81, 0
6, 3120, Note_on_c, 4, 80, 121
6, 3126, Note_on_c, 4, 80, 0
6, 3126, Note_on_c, 4, 81, 115
6, 3132, Note_on_c, 4, 81, 0
6, 3132, Note_on_c, 4, 80, 112
6, 3138, Note_on_c, 4, 80, 0
6, 3138, Note_on_c, 4, 81, 108
6, 3144, Note_on_c, 4, 81, 0
6, 3144, Note_on_c, 4, 80, 103
6, 3150, Note_on_c, 4, 80, 0
6, 3150, Note_on_c, 4, 81, 97
6, 3156, Note_on_c, 4, 81, 0
6, 3156, Note_on_c, 4, 80, 90
6, 3162, Note_on_c, 4, 80, 0
6, 3162, Note_on_c, 4, 81, 90
6, 3168, Note_on_c, 4, 81, 0
6, 3180, Note_on_c, 4, 81, 118
6, 3190, Note_on_c, 4, 81, 0
6, 3192, Note_on_c, 4, 80, 115
6, 3202, Note_on_c, 4, 80, 0
6, 3204, Note_on_c, 4, 81, 112
6, 3214, Note_on_c, 4, 81, 0
6, 3216, Note_on_c, 4, 80, 121
6, 3222, Note_on_c, 4, 80, 0
6, 3222, Note_on_c, 4, 81, 115
6, 3228, Note_on_c, 4, 81, 0
6, 3228, Note_on_c, 4, 80, 112
6, 3234, Note_on_c, 4, 80, 0
6, 3234, Note_on_c, 4, 81, 108
6, 3240, Note_on_c, 4, 81, 0
6, 3240, Note_on_c, 4, 80, 103
6, 3246, Note_on_c, 4, 80, 0
6, 3246, Note_on_c, 4, 81, 97
6, 3252, Note_on_c, 4, 81, 0
6, 3252, Note_on_c, 4, 80, 90
6, 3258, Note_on_c, 4, 80, 0
6, 3258, Note_on_c, 4, 81, 90
6, 3264, Note_on_c, 4, 81, 0
6, 3384, Note_on_c, 4, 83, 118
6, 3390, Note_on_c, 4, 81, 115
6, 3394, Note_on_c, 4, 83, 0
6, 3396, Note_on_c, 4, 80, 112
6, 3400, Note_on_c, 4, 81, 0
6, 3402, Note_on_c, 4, 78, 108
6, 3406, Note_on_c, 4, 80, 0
6, 3408, Note_on_c, 4, 76, 105
6, 3412, Note_on_c, 4, 78, 0
6, 3453, Note_on_c, 4, 76, 0
6, 3456, Control_c, 4, 7, 112
6, 3480, Note_on_c, 4, 83, 118
6, 3486, Note_on_c, 4, 81, 115
6, 3490, Note_on_c, 4, 83, 0
6, 3492, Note_on_c, 4, 80, 112
6, 3496, Note_on_c, 4, 81, 0
6, 3498, Note_on_c, 4, 78, 108
6, 3502, Note_on_c, 4, 80, 0
6, 3504, Note_on_c, 4, 76, 105
6, 3508, Note_on_c, 4, 78, 0
6, 3549, Note_on_c, 4, 76, 0
6, 3576, Control_c, 4, 7, 118
6, 3576, Note_on_c, 4, 83, 118
6, 3582, Note_on_c, 4, 81, 115
6, 3586, Note_on_c, 4, 83, 0
6, 3588, Note_on_c, 4, 80, 112
6, 3592, Note_on_c, 4, 81, 0
6, 3594, Note_on_c, 4, 78, 108
6, 3598, Note_on_c, 4, 80, 0
6, 3600, Note_on_c, 4, 76, 105
6, 3604, Note_on_c, 4, 78, 0
6, 3645, Note_on_c, 4, 76, 0
6, 3744, Note_on_c, 4, 80, 113
6, 3780, Note_on_c, 4, 80, 0
6, 3780, Note_on_c, 4, 81, 113
6, 3790, Note_on_c, 4, 81, 0
6, 3792, Note_on_c, 4, 80, 113
6, 3828, Note_on_c, 4, 80, 0
6, 3828, Note_on_c, 4, 81, 113
6, 3838, Note_on_c, 4, 81, 0
6, 3840, Note_on_c, 4, 80, 113
6, 3876, Note_on_c, 4, 80, 0
6, 3876, Note_on_c, 4, 81, 115
6, 3888, Note_on_c, 4, 81, 0
6, 3888, Note_on_c, 4, 80, 113
6, 3924, Note_on_c, 4, 80, 0
6, 3924, Control_c, 4, 7, 121
6, 3924, Note_on_c, 4, 81, 115
6, 3936, Note_on_c, 4, 81, 0
6, 3936, Note_on_c, 4, 80, 113
6, 3948, Note_on_c, 4, 80, 0
6, 3948, Note_on_c, 4, 81, 117
6, 3960, Note_on_c, 4, 81, 0
6, 3960, Note_on_c, 4, 80, 113
6, 3972, Note_on_c, 4, 80, 0
6, 3972, Note_on_c, 4, 81, 117
6, 3984, Note_on_c, 4, 81, 0
6, 3984, Note_on_c, 4, 80, 113
6, 3996, Note_on_c, 4, 80, 0
6, 3996, Note_on_c, 4, 81, 117
6, 4008, Note_on_c, 4, 81, 0
6, 4008, Note_on_c, 4, 80, 113
6, 4020, Note_on_c, 4, 80, 0
6, 4020, Note_on_c, 4, 81, 117
6, 4032, Note_on_c, 4, 81, 0
6, 4032, Note_on_c, 4, 80, 113
6, 4038, Note_on_c, 4, 80, 0
6, 4038, Note_on_c, 4, 81, 117
6, 4044, Note_on_c, 4, 81, 0
6, 4044, Note_on_c, 4, 80, 113
6, 4050, Note_on_c, 4, 80, 0
6, 4050, Note_on_c, 4, 81, 117
6, 4056, Note_on_c, 4, 81, 0
6, 4056, Note_on_c, 4, 80, 113
6, 4062, Note_on_c, 4, 80, 0
6, 4062, Note_on_c, 4, 81, 117
6, 4068, Note_on_c, 4, 81, 0
6, 4068, Note_on_c, 4, 80, 113
6, 4074, Note_on_c, 4, 80, 0
6, 4074, Note_on_c, 4, 81, 117
6, 4080, Note_on_c, 4, 81, 0
6, 4080, Note_on_c, 4, 80, 113
6, 4086, Note_on_c, 4, 80, 0
6, 4086, Note_on_c, 4, 81, 117
6, 4092, Note_on_c, 4, 81, 0
6, 4092, Note_on_c, 4, 80, 113
6, 4098, Note_on_c, 4, 80, 0
6, 4098, Note_on_c, 4, 81, 117
6, 4104, Note_on_c, 4, 81, 0
6, 4104, Note_on_c, 4, 80, 113
6, 4110, Note_on_c, 4, 80, 0
6, 4110, Note_on_c, 4, 81, 117
6, 4116, Note_on_c, 4, 81, 0
6, 4116, Note_on_c, 4, 80, 113
6, 4122, Note_on_c, 4, 80, 0
6, 4122, Note_on_c, 4, 81, 117
6, 4128, Note_on_c, 4, 81, 0
6, 4128, Note_on_c, 4, 80, 117
6, 4134, Note_on_c, 4, 80, 0
6, 4134, Note_on_c, 4, 81, 113
6, 4140, Note_on_c, 4, 81, 0
6, 4140, Note_on_c, 4, 80, 112
6, 4146, Note_on_c, 4, 80, 0
6, 4146, Note_on_c, 4, 81, 110
6, 4152, Note_on_c, 4, 81, 0
6, 4152, Note_on_c, 4, 80, 105
6, 4158, Note_on_c, 4, 80, 0
6, 4158, Note_on_c, 4, 81, 103
6, 4164, Note_on_c, 4, 81, 0
6, 4164, Note_on_c, 4, 80, 100
6, 4170, Note_on_c, 4, 80, 0
6, 4170, Note_on_c, 4, 81, 97
6, 4176, Note_on_c, 4, 81, 0
6, 4224, Note_on_c, 4, 80, 118
6, 4230, Note_on_c, 4, 80, 0
6, 4230, Note_on_c, 4, 81, 115
6, 4236, Note_on_c, 4, 81, 0
6, 4236, Note_on_c, 4, 80, 112
6, 4242, Note_on_c, 4, 80, 0
6, 4242, Note_on_c, 4, 81, 108
6, 4248, Note_on_c, 4, 81, 0
6, 4248, Note_on_c, 4, 80, 103
6, 4254, Note_on_c, 4, 80, 0
6, 4254, Note_on_c, 4, 81, 97
6, 4260, Note_on_c, 4, 81, 0
6, 4260, Note_on_c, 4, 80, 97
6, 4266, Note_on_c, 4, 80, 0
6, 4266, Note_on_c, 4, 81, 94
6, 4272, Note_on_c, 4, 81, 0
6, 4320, Note_on_c, 4, 80, 118
6, 4326, Note_on_c, 4, 80, 0
6, 4326, Note_on_c, 4, 81, 115
6, 4332, Note_on_c, 4, 81, 0
6, 4332, Note_on_c, 4, 80, 112
6, 4338, Note_on_c, 4, 80, 0
6, 4338, Note_on_c, 4, 81, 108
6, 4344, Note_on_c, 4, 81, 0
6, 4344, Note_on_c, 4, 80, 103
6, 4350, Note_on_c, 4, 80, 0
6, 4350, Note_on_c, 4, 81, 97
6, 4356, Note_on_c, 4, 81, 0
6, 4356, Note_on_c, 4, 80, 97
6, 4362, Note_on_c, 4, 80, 0
6, 4362, Note_on_c, 4, 81, 94
6, 4368, Note_on_c, 4, 81, 0
6, 4416, Note_on_c, 4, 80, 118
6, 4422, Note_on_c, 4, 80, 0
6, 4422, Note_on_c, 4, 81, 115
6, 4428, Note_on_c, 4, 81, 0
6, 4428, Note_on_c, 4, 80, 112
6, 4434, Note_on_c, 4, 80, 0
6, 4434, Note_on_c, 4, 81, 108
6, 4440, Note_on_c, 4, 81, 0
6, 4440, Note_on_c, 4, 80, 103
6, 4446, Note_on_c, 4, 80, 0
6, 4446, Note_on_c, 4, 81, 97
6, 4452, Note_on_c, 4, 81, 0
6, 4452, Note_on_c, 4, 80, 97
6, 4458, Note_on_c, 4, 80, 0
6, 4458, Note_on_c, 4, 81, 94
6, 4464, Note_on_c, 4, 81, 0
6, 4512, Note_on_c, 4, 80, 118
6, 4518, Note_on_c, 4, 80, 0
6, 4518, Note_on_c, 4, 81, 115
6, 4524, Note_on_c, 4, 81, 0
6, 4524, Note_on_c, 4, 80, 112
6, 4530, Note_on_c, 4, 80, 0
6, 4530, Note_on_c, 4, 81, 108
6, 4536, Note_on_c, 4, 81, 0
6, 4536, Note_on_c, 4, 80, 103
6, 4542, Note_on_c, 4, 80, 0
6, 4542, Note_on_c, 4, 81, 97
6, 4548, Note_on_c, 4, 81, 0
6, 4548, Note_on_c, 4, 80, 97
6, 4554, Note_on_c, 4, 80, 0
6, 4554, Note_on_c, 4, 81, 94
6, 4560, Note_on_c, 4, 81, 0
6, 4608, Note_on_c, 4, 80, 118
6, 4614, Note_on_c, 4, 80, 0
6, 4614, Note_on_c, 4, 81, 115
6, 4620, Note_on_c, 4, 81, 0
6, 4620, Note_on_c, 4, 80, 112
6, 4626, Note_on_c, 4, 80, 0
6, 4626, Note_on_c, 4, 81, 108
6, 4632, Note_on_c, 4, 81, 0
6, 4632, Note_on_c, 4, 80, 103
6, 4638, Note_on_c, 4, 80, 0
6, 4638, Note_on_c, 4, 81, 97
6, 4644, Note_on_c, 4, 81, 0
6, 4644, Note_on_c, 4, 80, 97
6, 4650, Note_on_c, 4, 80, 0
6, 4650, Note_on_c, 4, 81, 94
6, 4656, Note_on_c, 4, 81, 0
6, 4704, Note_on_c, 4, 80, 118
6, 4710, Note_on_c, 4, 80, 0
6, 4710, Note_on_c, 4, 81, 115
6, 4716, Note_on_c, 4, 81, 0
6, 4716, Note_on_c, 4, 80, 112
6, 4722, Note_on_c, 4, 80, 0
6, 4722, Note_on_c, 4, 81, 108
6, 4728, Note_on_c, 4, 81, 0
6, 4728, Note_on_c, 4, 80, 103
6, 4734, Note_on_c, 4, 80, 0
6, 4734, Note_on_c, 4, 81, 97
6, 4740, Note_on_c, 4, 81, 0
6, 4740, Note_on_c, 4, 80, 97
6, 4746, Note_on_c, 4, 80, 0
6, 4746, Note_on_c, 4, 81, 94
6, 4752, Note_on_c, 4, 81, 0
6, 4800, Note_on_c, 4, 80, 118
6, 4806, Note_on_c, 4, 80, 0
6, 4806, Note_on_c, 4, 81, 115
6, 4812, Note_on_c, 4, 81, 0
6, 4812, Note_on_c, 4, 80, 112
6, 4818, Note_on_c, 4, 80, 0
6, 4818, Note_on_c, 4, 81, 108
6, 4824, Note_on_c, 4, 81, 0
6, 4824, Note_on_c, 4, 80, 103
6, 4830, Note_on_c, 4, 80, 0
6, 4830, Note_on_c, 4, 81, 97
6, 4836, Note_on_c, 4, 81, 0
6, 4836, Note_on_c, 4, 80, 97
6, 4842, Note_on_c, 4, 80, 0
6, 4842, Note_on_c, 4, 81, 94
6, 4848, Note_on_c, 4, 81, 0
6, 4896, Control_c, 4, 7, 112
6, 4896, Note_on_c, 4, 76, 117
6, 4908, Control_c, 4, 7, 115
6, 4920, Control_c, 4, 7, 118
6, 4932, Control_c, 4, 7, 121
6, 4956, Note_on_c, 4, 76, 0
6, 4956, Note_on_c, 4, 83, 119
6, 4968, Note_on_c, 4, 83, 0
6, 4968, Note_on_c, 4, 76, 117
6, 4980, Note_on_c, 4, 76, 0
6, 4980, Note_on_c, 4, 78, 119
6, 4992, Note_on_c, 4, 78, 0
6, 4992, Control_c, 4, 7, 112
6, 4992, Note_on_c, 4, 76, 117
6, 5004, Control_c, 4, 7, 115
6, 5016, Control_c, 4, 7, 118
6, 5028, Control_c, 4, 7, 121
6, 5052, Note_on_c, 4, 76, 0
6, 5052, Note_on_c, 4, 83, 119
6, 5064, Note_on_c, 4, 83, 0
6, 5064, Note_on_c, 4, 76, 117
6, 5076, Note_on_c, 4, 76, 0
6, 5076, Note_on_c, 4, 78, 119
6, 5088, Note_on_c, 4, 78, 0
6, 5088, Note_on_c, 4, 76, 117
6, 5100, Note_on_c, 4, 76, 0
6, 5100, Note_on_c, 4, 83, 119
6, 5112, Note_on_c, 4, 83, 0
6, 5112, Note_on_c, 4, 76, 117
6, 5124, Note_on_c, 4, 76, 0
6, 5124, Note_on_c, 4, 78, 119
6, 5136, Note_on_c, 4, 78, 0
6, 5136, Note_on_c, 4, 76, 117
6, 5148, Note_on_c, 4, 76, 0
6, 5148, Note_on_c, 4, 83, 119
6, 5160, Note_on_c, 4, 83, 0
6, 5160, Note_on_c, 4, 76, 117
6, 5172, Note_on_c, 4, 76, 0
6, 5172, Note_on_c, 4, 78, 119
6, 5184, Note_on_c, 4, 78, 0
6, 5184, Note_on_c, 4, 76, 117
6, 5196, Note_on_c, 4, 76, 0
6, 5196, Note_on_c, 4, 83, 119
6, 5208, Note_on_c, 4, 83, 0
6, 5208, Note_on_c, 4, 76, 117
6, 5220, Note_on_c, 4, 76, 0
6, 5220, Note_on_c, 4, 78, 119
6, 5232, Note_on_c, 4, 78, 0
6, 5232, Note_on_c, 4, 76, 117
6, 5244, Note_on_c, 4, 76, 0
6, 5244, Note_on_c, 4, 83, 119
6, 5256, Note_on_c, 4, 83, 0
6, 5256, Note_on_c, 4, 76, 117
6, 5268, Note_on_c, 4, 76, 0
6, 5268, Note_on_c, 4, 78, 119
6, 5280, Note_on_c, 4, 78, 0
6, 5280, Note_on_c, 4, 76, 117
6, 5325, Note_on_c, 4, 76, 0
6, 5352, Control_c, 4, 7, 123
6, 5352, Control_c, 4, 11, 120
6, 5352, Control_c, 4, 1, 30
6, 5352, Note_on_c, 4, 76, 121
6, 5372, Note_on_c, 4, 76, 0
6, 5376, Note_on_c, 4, 80, 126
6, 5394, Note_on_c, 4, 80, 0
6, 5400, Note_on_c, 4, 78, 123
6, 5410, Note_on_c, 4, 78, 0
6, 5412, Note_on_c, 4, 76, 122
6, 5422, Note_on_c, 4, 76, 0
6, 5424, Note_on_c, 4, 78, 123
6, 5444, Note_on_c, 4, 78, 0
6, 5448, Note_on_c, 4, 80, 123
6, 5468, Note_on_c, 4, 80, 0
6, 5472, Note_on_c, 4, 81, 123
6, 5492, Note_on_c, 4, 81, 0
6, 5496, Note_on_c, 4, 80, 121
6, 5541, Note_on_c, 4, 80, 0
6, 5544, Note_on_c, 4, 80, 121
6, 5564, Note_on_c, 4, 80, 0
6, 5568, Note_on_c, 4, 80, 126
6, 5586, Note_on_c, 4, 80, 0
6, 5592, Note_on_c, 4, 78, 123
6, 5602, Note_on_c, 4, 78, 0
6, 5604, Note_on_c, 4, 76, 122
6, 5614, Note_on_c, 4, 76, 0
6, 5616, Note_on_c, 4, 78, 123
6, 5636, Note_on_c, 4, 78, 0
6, 5640, Note_on_c, 4, 80, 123
6, 5660, Note_on_c, 4, 80, 0
6, 5664, Note_on_c, 4, 81, 123
6, 5684, Note_on_c, 4, 81, 0
6, 5688, Note_on_c, 4, 80, 121
6, 5733, Note_on_c, 4, 80, 0
6, 5736, Note_on_c, 4, 80, 121
6, 5756, Note_on_c, 4, 80, 0
6, 5760, Note_on_c, 4, 81, 124
6, 5780, Note_on_c, 4, 81, 0
6, 5784, Note_on_c, 4, 80, 127
6, 5829, Note_on_c, 4, 80, 0
6, 5832, Note_on_c, 4, 78, 124
6, 5852, Note_on_c, 4, 78, 0
6, 5856, Note_on_c, 4, 76, 123
6, 5901, Note_on_c, 4, 76, 0
6, 5904, Control_c, 4, 7, 121
6, 5904, Note_on_c, 4, 75, 121
6, 5916, Control_c, 4, 7, 123
6, 5928, Control_c, 4, 7, 124
6, 5940, Control_c, 4, 7, 126
6, 5949, Note_on_c, 4, 75, 0
6, 5952, Note_on_c, 4, 76, 121
6, 5972, Note_on_c, 4, 76, 0
6, 5976, Control_c, 4, 7, 118
6, 5976, Note_on_c, 4, 64, 108
6, 5988, Note_on_c, 4, 64, 0
6, 5988, Note_on_c, 4, 66, 108
6, 6000, Note_on_c, 4, 66, 0
6, 6000, Note_on_c, 4, 68, 115
6, 6012, Note_on_c, 4, 68, 0
6, 6012, Note_on_c, 4, 66, 108
6, 6024, Note_on_c, 4, 66, 0
6, 6024, Note_on_c, 4, 68, 115
6, 6036, Note_on_c, 4, 68, 0
6, 6036, Note_on_c, 4, 66, 108
6, 6048, Note_on_c, 4, 66, 0
6, 6048, Note_on_c, 4, 64, 115
6, 6060, Note_on_c, 4, 64, 0
6, 6060, Note_on_c, 4, 66, 108
6, 6072, Note_on_c, 4, 66, 0
6, 6072, Note_on_c, 4, 64, 115
6, 6084, Note_on_c, 4, 64, 0
6, 6084, Note_on_c, 4, 66, 108
6, 6096, Note_on_c, 4, 66, 0
6, 6096, Note_on_c, 4, 68, 115
6, 6108, Note_on_c, 4, 68, 0
6, 6108, Note_on_c, 4, 66, 108
6, 6120, Note_on_c, 4, 66, 0
6, 6120, Note_on_c, 4, 68, 115
6, 6132, Note_on_c, 4, 68, 0
6, 6132, Note_on_c, 4, 66, 108
6, 6144, Note_on_c, 4, 66, 0
6, 6144, Note_on_c, 4, 64, 115
6, 6156, Note_on_c, 4, 64, 0
6, 6156, Note_on_c, 4, 66, 108
6, 6168, Note_on_c, 4, 66, 0
6, 6168, Note_on_c, 4, 64, 115
6, 6180, Note_on_c, 4, 64, 0
6, 6180, Note_on_c, 4, 66, 108
6, 6192, Note_on_c, 4, 66, 0
6, 6192, Note_on_c, 4, 68, 115
6, 6204, Note_on_c, 4, 68, 0
6, 6204, Note_on_c, 4, 66, 108
6, 6216, Note_on_c, 4, 66, 0
6, 6216, Note_on_c, 4, 68, 115
6, 6228, Note_on_c, 4, 68, 0
6, 6228, Note_on_c, 4, 66, 108
6, 6240, Note_on_c, 4, 66, 0
6, 6240, Note_on_c, 4, 64, 115
6, 6252, Note_on_c, 4, 64, 0
6, 6252, Note_on_c, 4, 66, 108
6, 6264, Note_on_c, 4, 66, 0
6, 6264, Note_on_c, 4, 64, 115
6, 6276, Note_on_c, 4, 64, 0
6, 6276, Note_on_c, 4, 66, 108
6, 6288, Note_on_c, 4, 66, 0
6, 6288, Note_on_c, 4, 68, 108
6, 6300, Note_on_c, 4, 68, 0
6, 6300, Note_on_c, 4, 69, 112
6, 6312, Note_on_c, 4, 69, 0
6, 6312, Note_on_c, 4, 68, 108
6, 6324, Note_on_c, 4, 68, 0
6, 6324, Note_on_c, 4, 69, 112
6, 6336, Note_on_c, 4, 69, 0
6, 6336, Note_on_c, 4, 71, 115
6, 6348, Note_on_c, 4, 71, 0
6, 6348, Note_on_c, 4, 73, 108
6, 6360, Note_on_c, 4, 73, 0
6, 6360, Note_on_c, 4, 71, 115
6, 6372, Note_on_c, 4, 71, 0
6, 6372, Note_on_c, 4, 73, 108
6, 6384, Note_on_c, 4, 73, 0
6, 6384, Note_on_c, 4, 75, 115
6, 6396, Note_on_c, 4, 75, 0
6, 6396, Note_on_c, 4, 73, 108
6, 6408, Note_on_c, 4, 73, 0
6, 6408, Note_on_c, 4, 75, 115
6, 6420, Note_on_c, 4, 75, 0
6, 6420, Note_on_c, 4, 73, 108
6, 6432, Note_on_c, 4, 73, 0
6, 6432, Note_on_c, 4, 71, 115
6, 6444, Note_on_c, 4, 71, 0
6, 6444, Note_on_c, 4, 73, 108
6, 6456, Note_on_c, 4, 73, 0
6, 6456, Note_on_c, 4, 71, 115
6, 6468, Note_on_c, 4, 71, 0
6, 6468, Note_on_c, 4, 73, 108
6, 6480, Note_on_c, 4, 73, 0
6, 6480, Note_on_c, 4, 75, 108
6, 6492, Note_on_c, 4, 75, 0
6, 6492, Note_on_c, 4, 73, 112
6, 6504, Note_on_c, 4, 73, 0
6, 6504, Note_on_c, 4, 75, 108
6, 6516, Note_on_c, 4, 75, 0
6, 6516, Note_on_c, 4, 73, 112
6, 6528, Note_on_c, 4, 73, 0
6, 6528, Note_on_c, 4, 71, 115
6, 6540, Note_on_c, 4, 71, 0
6, 6540, Note_on_c, 4, 73, 108
6, 6552, Note_on_c, 4, 73, 0
6, 6552, Note_on_c, 4, 71, 115
6, 6564, Note_on_c, 4, 71, 0
6, 6564, Note_on_c, 4, 73, 108
6, 6576, Note_on_c, 4, 73, 0
6, 6576, Note_on_c, 4, 75, 115
6, 6588, Note_on_c, 4, 75, 0
6, 6588, Note_on_c, 4, 76, 108
6, 6600, Note_on_c, 4, 76, 0
6, 6600, Note_on_c, 4, 75, 115
6, 6612, Note_on_c, 4, 75, 0
6, 6612, Note_on_c, 4, 76, 108
6, 6624, Note_on_c, 4, 76, 0
6, 6624, Note_on_c, 4, 78, 115
6, 6636, Note_on_c, 4, 78, 0
6, 6636, Note_on_c, 4, 76, 108
6, 6648, Note_on_c, 4, 76, 0
6, 6648, Note_on_c, 4, 78, 115
6, 6660, Note_on_c, 4, 78, 0
6, 6660, Note_on_c, 4, 76, 108
6, 6672, Note_on_c, 4, 76, 0
6, 6672, Note_on_c, 4, 75, 108
6, 6684, Note_on_c, 4, 75, 0
6, 6684, Note_on_c, 4, 78, 112
6, 6696, Note_on_c, 4, 78, 0
6, 6696, Note_on_c, 4, 76, 108
6, 6708, Note_on_c, 4, 76, 0
6, 6708, Note_on_c, 4, 75, 112
6, 6720, Note_on_c, 4, 75, 0
6, 6720, Note_on_c, 4, 76, 112
6, 6740, Note_on_c, 4, 76, 0
6, 6744, Note_on_c, 4, 75, 108
6, 6756, Note_on_c, 4, 75, 0
6, 6756, Note_on_c, 4, 73, 108
6, 6768, Note_on_c, 4, 73, 0
6, 6768, Note_on_c, 4, 71, 115
6, 6780, Note_on_c, 4, 71, 0
6, 6780, Note_on_c, 4, 69, 108
6, 6792, Note_on_c, 4, 69, 0
6, 6792, Note_on_c, 4, 68, 115
6, 6804, Note_on_c, 4, 68, 0
6, 6804, Note_on_c, 4, 66, 108
6, 6816, Note_on_c, 4, 66, 0
6, 6816, Note_on_c, 4, 64, 115
6, 6828, Note_on_c, 4, 64, 0
6, 6828, Note_on_c, 4, 66, 108
6, 6840, Note_on_c, 4, 66, 0
6, 6840, Note_on_c, 4, 64, 115
6, 6852, Note_on_c, 4, 64, 0
6, 6852, Note_on_c, 4, 66, 108
6, 6864, Note_on_c, 4, 66, 0
6, 6864, Note_on_c, 4, 68, 115
6, 6876, Note_on_c, 4, 68, 0
6, 6876, Note_on_c, 4, 66, 108
6, 6888, Note_on_c, 4, 66, 0
6, 6888, Note_on_c, 4, 68, 115
6, 6900, Note_on_c, 4, 68, 0
6, 6900, Note_on_c, 4, 66, 108
6, 6912, Note_on_c, 4, 66, 0
6, 6912, Note_on_c, 4, 64, 115
6, 6924, Note_on_c, 4, 64, 0
6, 6924, Note_on_c, 4, 66, 108
6, 6936, Note_on_c, 4, 66, 0
6, 6936, Note_on_c, 4, 64, 115
6, 6948, Note_on_c, 4, 64, 0
6, 6948, Note_on_c, 4, 66, 108
6, 6960, Note_on_c, 4, 66, 0
6, 6960, Note_on_c, 4, 68, 115
6, 6972, Note_on_c, 4, 68, 0
6, 6972, Note_on_c, 4, 66, 108
6, 6984, Note_on_c, 4, 66, 0
6, 6984, Note_on_c, 4, 68, 115
6, 6996, Note_on_c, 4, 68, 0
6, 6996, Note_on_c, 4, 66, 108
6, 7008, Note_on_c, 4, 66, 0
6, 7008, Note_on_c, 4, 64, 115
6, 7020, Note_on_c, 4, 64, 0
6, 7020, Note_on_c, 4, 66, 108
6, 7032, Note_on_c, 4, 66, 0
6, 7032, Note_on_c, 4, 64, 115
6, 7044, Note_on_c, 4, 64, 0
6, 7044, Note_on_c, 4, 66, 108
6, 7056, Note_on_c, 4, 66, 0
6, 7056, Note_on_c, 4, 68, 108
6, 7068, Note_on_c, 4, 68, 0
6, 7068, Note_on_c, 4, 66, 112
6, 7080, Note_on_c, 4, 66, 0
6, 7080, Note_on_c, 4, 68, 108
6, 7092, Note_on_c, 4, 68, 0
6, 7092, Note_on_c, 4, 66, 112
6, 7104, Note_on_c, 4, 66, 0
6, 7104, Note_on_c, 4, 68, 112
6, 7149, Note_on_c, 4, 68, 0
6, 7176, Note_on_c, 4, 76, 112
6, 7196, Note_on_c, 4, 76, 0
6, 7200, Control_c, 4, 7, 112
6, 7200, Note_on_c, 4, 78, 112
6, 7212, Control_c, 4, 7, 118
6, 7224, Control_c, 4, 7, 121
6, 7236, Control_c, 4, 7, 124
6, 7293, Note_on_c, 4, 78, 0
6, 7296, Control_c, 4, 7, 118
6, 7296, Control_c, 4, 7, 112
6, 7296, Note_on_c, 4, 76, 112
6, 7308, Control_c, 4, 7, 118
6, 7320, Control_c, 4, 7, 121
6, 7332, Control_c, 4, 7, 124
6, 7389, Note_on_c, 4, 76, 0
6, 7392, Control_c, 4, 7, 112
6, 7392, Note_on_c, 4, 75, 112
6, 7404, Control_c, 4, 7, 118
6, 7416, Control_c, 4, 7, 121
6, 7428, Control_c, 4, 7, 124
6, 7485, Note_on_c, 4, 75, 0
6, 7488, Control_c, 4, 7, 118
6, 7488, Control_c, 4, 7, 112
6, 7488, Note_on_c, 4, 76, 112
6, 7500, Control_c, 4, 7, 118
6, 7512, Control_c, 4, 7, 121
6, 7524, Control_c, 4, 7, 124
6, 7581, Note_on_c, 4, 76, 0
6, 7584, Control_c, 4, 7, 112
6, 7584, Note_on_c, 4, 78, 112
6, 7596, Control_c, 4, 7, 118
6, 7608, Control_c, 4, 7, 121
6, 7620, Control_c, 4, 7, 124
6, 7677, Note_on_c, 4, 78, 0
6, 7680, Control_c, 4, 7, 118
6, 7680, Control_c, 4, 7, 112
6, 7680, Note_on_c, 4, 76, 112
6, 7692, Control_c, 4, 7, 118
6, 7704, Control_c, 4, 7, 121
6, 7716, Control_c, 4, 7, 124
6, 7773, Note_on_c, 4, 76, 0
6, 7776, Control_c, 4, 7, 112
6, 7776, Note_on_c, 4, 75, 112
6, 7782, Control_c, 4, 7, 118
6, 7788, Control_c, 4, 7, 121
6, 7794, Control_c, 4, 7, 124
6, 7821, Note_on_c, 4, 75, 0
6, 7824, Control_c, 4, 7, 118
6, 7848, Control_c, 4, 7, 126
6, 7848, Control_c, 4, 11, 120
6, 7848, Control_c, 4, 1, 20
6, 7848, Note_on_c, 4, 75, 121
6, 7868, Note_on_c, 4, 75, 0
6, 7872, Note_on_c, 4, 75, 126
6, 7890, Note_on_c, 4, 75, 0
6, 7896, Note_on_c, 4, 73, 123
6, 7906, Note_on_c, 4, 73, 0
6, 7908, Note_on_c, 4, 71, 122
6, 7918, Note_on_c, 4, 71, 0
6, 7920, Note_on_c, 4, 73, 123
6, 7940, Note_on_c, 4, 73, 0
6, 7944, Note_on_c, 4, 75, 124
6, 7964, Note_on_c, 4, 75, 0
6, 7968, Note_on_c, 4, 76, 124
6, 7988, Note_on_c, 4, 76, 0
6, 7992, Note_on_c, 4, 75, 126
6, 8037, Note_on_c, 4, 75, 0
6, 8040, Note_on_c, 4, 75, 126
6, 8060, Note_on_c, 4, 75, 0
6, 8064, Note_on_c, 4, 75, 126
6, 8082, Note_on_c, 4, 75, 0
6, 8088, Note_on_c, 4, 73, 123
6, 8098, Note_on_c, 4, 73, 0
6, 8100, Note_on_c, 4, 71, 122
6, 8110, Note_on_c, 4, 71, 0
6, 8112, Note_on_c, 4, 73, 123
6, 8132, Note_on_c, 4, 73, 0
6, 8136, Note_on_c, 4, 75, 124
6, 8156, Note_on_c, 4, 75, 0
6, 8160, Note_on_c, 4, 76, 124
6, 8180, Note_on_c, 4, 76, 0
6, 8184, Note_on_c, 4, 75, 126
6, 8229, Note_on_c, 4, 75, 0
6, 8232, Note_on_c, 4, 75, 126
6, 8252, Note_on_c, 4, 75, 0
6, 8256, Note_on_c, 4, 76, 124
6, 8276, Note_on_c, 4, 76, 0
6, 8280, Note_on_c, 4, 75, 127
6, 8325, Note_on_c, 4, 75, 0
6, 8328, Note_on_c, 4, 73, 124
6, 8348, Note_on_c, 4, 73, 0
6, 8352, Note_on_c, 4, 71, 123
6, 8397, Note_on_c, 4, 71, 0
6, 8400, Control_c, 4, 7, 121
6, 8400, Note_on_c, 4, 70, 121
6, 8412, Control_c, 4, 7, 123
6, 8424, Control_c, 4, 7, 124
6, 8436, Control_c, 4, 7, 126
6, 8445, Note_on_c, 4, 70, 0
6, 8448, Note_on_c, 4, 71, 126
6, 8454, Note_on_c, 4, 71, 0
6, 8454, Control_c, 4, 11, 100
6, 8454, Note_on_c, 4, 59, 121
6, 8458, Note_on_c, 4, 59, 0
6, 8460, Note_on_c, 4, 59, 121
6, 8464, Note_on_c, 4, 59, 0
6, 8466, Note_on_c, 4, 59, 122
6, 8470, Note_on_c, 4, 59, 0
6, 8472, Note_on_c, 4, 59, 122
6, 8476, Note_on_c, 4, 59, 0
6, 8478, Note_on_c, 4, 59, 122
6, 8482, Note_on_c, 4, 59, 0
6, 8484, Note_on_c, 4, 59, 122
6, 8488, Note_on_c, 4, 59, 0
6, 8490, Note_on_c, 4, 59, 123
6, 8494, Note_on_c, 4, 59, 0
6, 8496, Control_c, 4, 11, 110
6, 8496, Note_on_c, 4, 59, 123
6, 8500, Note_on_c, 4, 59, 0
6, 8502, Note_on_c, 4, 59, 123
6, 8506, Note_on_c, 4, 59, 0
6, 8508, Note_on_c, 4, 59, 123
6, 8512, Note_on_c, 4, 59, 0
6, 8514, Note_on_c, 4, 59, 123
6, 8518, Note_on_c, 4, 59, 0
6, 8520, Note_on_c, 4, 59, 123
6, 8524, Note_on_c, 4, 59, 0
6, 8526, Note_on_c, 4, 59, 124
6, 8530, Note_on_c, 4, 59, 0
6, 8532, Note_on_c, 4, 59, 124
6, 8536, Note_on_c, 4, 59, 0
6, 8538, Note_on_c, 4, 59, 124
6, 8542, Note_on_c, 4, 59, 0
6, 8544, Control_c, 4, 11, 115
6, 8544, Note_on_c, 4, 59, 124
6, 8548, Note_on_c, 4, 59, 0
6, 8550, Note_on_c, 4, 59, 124
6, 8554, Note_on_c, 4, 59, 0
6, 8556, Note_on_c, 4, 59, 124
6, 8560, Note_on_c, 4, 59, 0
6, 8562, Note_on_c, 4, 59, 124
6, 8566, Note_on_c, 4, 59, 0
6, 8568, Note_on_c, 4, 59, 126
6, 8572, Note_on_c, 4, 59, 0
6, 8574, Note_on_c, 4, 59, 126
6, 8578, Note_on_c, 4, 59, 0
6, 8580, Note_on_c, 4, 59, 126
6, 8584, Note_on_c, 4, 59, 0
6, 8586, Note_on_c, 4, 59, 126
6, 8590, Note_on_c, 4, 59, 0
6, 8592, Control_c, 4, 11, 120
6, 8592, Note_on_c, 4, 59, 126
6, 8596, Note_on_c, 4, 59, 0
6, 8598, Note_on_c, 4, 59, 126
6, 8602, Note_on_c, 4, 59, 0
6, 8604, Note_on_c, 4, 59, 126
6, 8608, Note_on_c, 4, 59, 0
6, 8610, Note_on_c, 4, 59, 127
6, 8614, Note_on_c, 4, 59, 0
6, 8616, Note_on_c, 4, 59, 127
6, 8620, Note_on_c, 4, 59, 0
6, 8622, Note_on_c, 4, 59, 127
6, 8626, Note_on_c, 4, 59, 0
6, 8628, Note_on_c, 4, 59, 127
6, 8632, Note_on_c, 4, 59, 0
6, 8634, Note_on_c, 4, 59, 127
6, 8638, Note_on_c, 4, 59, 0
6, 8640, Note_on_c, 4, 71, 121
6, 8646, Note_on_c, 4, 71, 0
6, 8646, Note_on_c, 4, 73, 122
6, 8652, Note_on_c, 4, 73, 0
6, 8652, Note_on_c, 4, 75, 123
6, 8658, Note_on_c, 4, 75, 0
6, 8658, Note_on_c, 4, 76, 124
6, 8664, Note_on_c, 4, 76, 0
6, 8664, Note_on_c, 4, 78, 124
6, 8670, Note_on_c, 4, 78, 0
6, 8670, Note_on_c, 4, 80, 124
6, 8676, Note_on_c, 4, 80, 0
6, 8676, Note_on_c, 4, 81, 126
6, 8682, Note_on_c, 4, 81, 0
6, 8682, Note_on_c, 4, 83, 127
6, 8688, Note_on_c, 4, 83, 0
6, 8736, Note_on_c, 4, 71, 121
6, 8742, Note_on_c, 4, 71, 0
6, 8742, Note_on_c, 4, 73, 122
6, 8748, Note_on_c, 4, 73, 0
6, 8748, Note_on_c, 4, 75, 123
6, 8754, Note_on_c, 4, 75, 0
6, 8754, Note_on_c, 4, 76, 124
6, 8760, Note_on_c, 4, 76, 0
6, 8760, Note_on_c, 4, 78, 124
6, 8766, Note_on_c, 4, 78, 0
6, 8766, Note_on_c, 4, 80, 124
6, 8772, Note_on_c, 4, 80, 0
6, 8772, Note_on_c, 4, 81, 126
6, 8778, Note_on_c, 4, 81, 0
6, 8778, Note_on_c, 4, 83, 127
6, 8784, Note_on_c, 4, 83, 0
6, 8832, Control_c, 4, 11, 100
6, 8832, Note_on_c, 4, 59, 126
6, 8836, Note_on_c, 4, 59, 0
6, 8838, Note_on_c, 4, 59, 121
6, 8842, Note_on_c, 4, 59, 0
6, 8844, Note_on_c, 4, 59, 121
6, 8848, Note_on_c, 4, 59, 0
6, 8850, Note_on_c, 4, 59, 122
6, 8854, Note_on_c, 4, 59, 0
6, 8856, Note_on_c, 4, 59, 122
6, 8860, Note_on_c, 4, 59, 0
6, 8862, Note_on_c, 4, 59, 122
6, 8866, Note_on_c, 4, 59, 0
6, 8868, Note_on_c, 4, 59, 122
6, 8872, Note_on_c, 4, 59, 0
6, 8874, Note_on_c, 4, 59, 123
6, 8878, Note_on_c, 4, 59, 0
6, 8880, Control_c, 4, 11, 110
6, 8880, Note_on_c, 4, 59, 123
6, 8884, Note_on_c, 4, 59, 0
6, 8886, Note_on_c, 4, 59, 123
6, 8890, Note_on_c, 4, 59, 0
6, 8892, Note_on_c, 4, 59, 123
6, 8896, Note_on_c, 4, 59, 0
6, 8898, Note_on_c, 4, 59, 123
6, 8902, Note_on_c, 4, 59, 0
6, 8904, Note_on_c, 4, 59, 123
6, 8908, Note_on_c, 4, 59, 0
6, 8910, Note_on_c, 4, 59, 124
6, 8914, Note_on_c, 4, 59, 0
6, 8916, Note_on_c, 4, 59, 124
6, 8920, Note_on_c, 4, 59, 0
6, 8922, Note_on_c, 4, 59, 124
6, 8926, Note_on_c, 4, 59, 0
6, 8928, Control_c, 4, 11, 115
6, 8928, Note_on_c, 4, 57, 124
6, 8932, Note_on_c, 4, 57, 0
6, 8934, Note_on_c, 4, 57, 124
6, 8938, Note_on_c, 4, 57, 0
6, 8940, Note_on_c, 4, 57, 124
6, 8944, Note_on_c, 4, 57, 0
6, 8946, Note_on_c, 4, 57, 124
6, 8950, Note_on_c, 4, 57, 0
6, 8952, Note_on_c, 4, 57, 126
6, 8956, Note_on_c, 4, 57, 0
6, 8958, Note_on_c, 4, 57, 126
6, 8962, Note_on_c, 4, 57, 0
6, 8964, Note_on_c, 4, 57, 126
6, 8968, Note_on_c, 4, 57, 0
6, 8970, Note_on_c, 4, 57, 126
6, 8974, Note_on_c, 4, 57, 0
6, 8976, Control_c, 4, 11, 120
6, 8976, Note_on_c, 4, 57, 126
6, 8980, Note_on_c, 4, 57, 0
6, 8982, Note_on_c, 4, 57, 126
6, 8986, Note_on_c, 4, 57, 0
6, 8988, Note_on_c, 4, 57, 126
6, 8992, Note_on_c, 4, 57, 0
6, 8994, Note_on_c, 4, 57, 127
6, 8998, Note_on_c, 4, 57, 0
6, 9000, Note_on_c, 4, 57, 127
6, 9004, Note_on_c, 4, 57, 0
6, 9006, Note_on_c, 4, 57, 127
6, 9010, Note_on_c, 4, 57, 0
6, 9012, Note_on_c, 4, 57, 127
6, 9016, Note_on_c, 4, 57, 0
6, 9018, Note_on_c, 4, 57, 127
6, 9022, Note_on_c, 4, 57, 0
6, 9024, Note_on_c, 4, 56, 123
6, 9069, Note_on_c, 4, 56, 0
6, 9216, Control_c, 4, 7, 112
6, 9216, Pitch_bend_c, 4, 7542
6, 9216, Note_on_c, 4, 57, 126
6, 9217, Pitch_bend_c, 4, 7792
6, 9218, Pitch_bend_c, 4, 7992
6, 9219, Pitch_bend_c, 4, 8092
6, 9220, Pitch_bend_c, 4, 8192
6, 9222, Pitch_bend_c, 4, 7542
6, 9222, Control_c, 4, 7, 115
6, 9223, Pitch_bend_c, 4, 7792
6, 9224, Pitch_bend_c, 4, 7992
6, 9225, Pitch_bend_c, 4, 8092
6, 9226, Pitch_bend_c, 4, 8192
6, 9228, Pitch_bend_c, 4, 7542
6, 9228, Control_c, 4, 7, 117
6, 9229, Pitch_bend_c, 4, 7792
6, 9230, Pitch_bend_c, 4, 7992
6, 9231, Pitch_bend_c, 4, 8092
6, 9232, Pitch_bend_c, 4, 8192
6, 9234, Pitch_bend_c, 4, 7542
6, 9234, Control_c, 4, 7, 118
6, 9235, Pitch_bend_c, 4, 7792
6, 9236, Pitch_bend_c, 4, 7992
6, 9237, Pitch_bend_c, 4, 8092
6, 9238, Pitch_bend_c, 4, 8192
6, 9240, Pitch_bend_c, 4, 7542
6, 9240, Control_c, 4, 7, 119
6, 9241, Pitch_bend_c, 4, 7792
6, 9242, Pitch_bend_c, 4, 7992
6, 9243, Pitch_bend_c, 4, 8092
6, 9244, Pitch_bend_c, 4, 8192
6, 9246, Pitch_bend_c, 4, 7542
6, 9246, Control_c, 4, 7, 121
6, 9247, Pitch_bend_c, 4, 7792
6, 9248, Pitch_bend_c, 4, 7992
6, 9249, Pitch_bend_c, 4, 8092
6, 9250, Pitch_bend_c, 4, 8192
6, 9252, Pitch_bend_c, 4, 7542
6, 9252, Control_c, 4, 7, 122
6, 9253, Pitch_bend_c, 4, 7792
6, 9254, Pitch_bend_c, 4, 7992
6, 9255, Pitch_bend_c, 4, 8092
6, 9256, Pitch_bend_c, 4, 8192
6, 9258, Pitch_bend_c, 4, 7542
6, 9258, Control_c, 4, 7, 123
6, 9259, Pitch_bend_c, 4, 7792
6, 9260, Pitch_bend_c, 4, 7992
6, 9261, Pitch_bend_c, 4, 8092
6, 9262, Pitch_bend_c, 4, 8192
6, 9264, Pitch_bend_c, 4, 7542
6, 9264, Control_c, 4, 7, 124
6, 9265, Pitch_bend_c, 4, 7792
6, 9266, Pitch_bend_c, 4, 7992
6, 9267, Pitch_bend_c, 4, 8092
6, 9268, Pitch_bend_c, 4, 8192
6, 9270, Pitch_bend_c, 4, 7542
6, 9270, Control_c, 4, 7, 124
6, 9271, Pitch_bend_c, 4, 7792
6, 9272, Pitch_bend_c, 4, 7992
6, 9273, Pitch_bend_c, 4, 8092
6, 9274, Pitch_bend_c, 4, 8192
6, 9276, Pitch_bend_c, 4, 7542
6, 9276, Control_c, 4, 7, 124
6, 9277, Pitch_bend_c, 4, 7792
6, 9278, Pitch_bend_c, 4, 7992
6, 9279, Pitch_bend_c, 4, 8092
6, 9280, Pitch_bend_c, 4, 8192
6, 9282, Pitch_bend_c, 4, 7542
6, 9282, Control_c, 4, 7, 126
6, 9283, Pitch_bend_c, 4, 7792
6, 9284, Pitch_bend_c, 4, 7992
6, 9285, Pitch_bend_c, 4, 8092
6, 9286, Pitch_bend_c, 4, 8192
6, 9288, Control_c, 4, 7, 126
6, 9288, Pitch_bend_c, 4, 7542
6, 9289, Pitch_bend_c, 4, 7792
6, 9290, Pitch_bend_c, 4, 7992
6, 9291, Pitch_bend_c, 4, 8092
6, 9292, Pitch_bend_c, 4, 8192
6, 9294, Pitch_bend_c, 4, 7542
6, 9294, Control_c, 4, 7, 126
6, 9295, Pitch_bend_c, 4, 7792
6, 9296, Pitch_bend_c, 4, 7992
6, 9297, Pitch_bend_c, 4, 8092
6, 9298, Pitch_bend_c, 4, 8192
6, 9300, Pitch_bend_c, 4, 7542
6, 9300, Control_c, 4, 7, 126
6, 9301, Pitch_bend_c, 4, 7792
6, 9302, Pitch_bend_c, 4, 7992
6, 9303, Pitch_bend_c, 4, 8092
6, 9304, Pitch_bend_c, 4, 8192
6, 9306, Pitch_bend_c, 4, 7542
6, 9307, Pitch_bend_c, 4, 7792
6, 9308, Pitch_bend_c, 4, 7992
6, 9309, Pitch_bend_c, 4, 8092
6, 9310, Note_on_c, 4, 57, 0
6, 9310, Pitch_bend_c, 4, 8192
6, 9312, Note_on_c, 4, 58, 127
6, 9352, Note_on_c, 4, 58, 0
6, 9408, Control_c, 4, 7, 112
6, 9504, Pitch_bend_c, 4, 7542
6, 9504, Note_on_c, 4, 59, 126
6, 9505, Pitch_bend_c, 4, 7792
6, 9506, Pitch_bend_c, 4, 7992
6, 9507, Pitch_bend_c, 4, 8092
6, 9508, Pitch_bend_c, 4, 8192
6, 9510, Pitch_bend_c, 4, 7542
6, 9510, Control_c, 4, 7, 115
6, 9511, Pitch_bend_c, 4, 7792
6, 9512, Pitch_bend_c, 4, 7992
6, 9513, Pitch_bend_c, 4, 8092
6, 9514, Pitch_bend_c, 4, 8192
6, 9516, Pitch_bend_c, 4, 7542
6, 9516, Control_c, 4, 7, 117
6, 9517, Pitch_bend_c, 4, 7792
6, 9518, Pitch_bend_c, 4, 7992
6, 9519, Pitch_bend_c, 4, 8092
6, 9520, Pitch_bend_c, 4, 8192
6, 9522, Pitch_bend_c, 4, 7542
6, 9522, Control_c, 4, 7, 118
6, 9523, Pitch_bend_c, 4, 7792
6, 9524, Pitch_bend_c, 4, 7992
6, 9525, Pitch_bend_c, 4, 8092
6, 9526, Pitch_bend_c, 4, 8192
6, 9528, Pitch_bend_c, 4, 7542
6, 9528, Control_c, 4, 7, 119
6, 9529, Pitch_bend_c, 4, 7792
6, 9530, Pitch_bend_c, 4, 7992
6, 9531, Pitch_bend_c, 4, 8092
6, 9532, Pitch_bend_c, 4, 8192
6, 9534, Pitch_bend_c, 4, 7542
6, 9534, Control_c, 4, 7, 121
6, 9535, Pitch_bend_c, 4, 7792
6, 9536, Pitch_bend_c, 4, 7992
6, 9537, Pitch_bend_c, 4, 8092
6, 9538, Pitch_bend_c, 4, 8192
6, 9540, Pitch_bend_c, 4, 7542
6, 9540, Control_c, 4, 7, 122
6, 9541, Pitch_bend_c, 4, 7792
6, 9542, Pitch_bend_c, 4, 7992
6, 9543, Pitch_bend_c, 4, 8092
6, 9544, Pitch_bend_c, 4, 8192
6, 9546, Pitch_bend_c, 4, 7542
6, 9546, Control_c, 4, 7, 123
6, 9547, Pitch_bend_c, 4, 7792
6, 9548, Pitch_bend_c, 4, 7992
6, 9549, Pitch_bend_c, 4, 8092
6, 9550, Pitch_bend_c, 4, 8192
6, 9552, Pitch_bend_c, 4, 7542
6, 9552, Control_c, 4, 7, 124
6, 9553, Pitch_bend_c, 4, 7792
6, 9554, Pitch_bend_c, 4, 7992
6, 9555, Pitch_bend_c, 4, 8092
6, 9556, Pitch_bend_c, 4, 8192
6, 9558, Pitch_bend_c, 4, 7542
6, 9558, Control_c, 4, 7, 124
6, 9559, Pitch_bend_c, 4, 7792
6, 9560, Pitch_bend_c, 4, 7992
6, 9561, Pitch_bend_c, 4, 8092
6, 9562, Pitch_bend_c, 4, 8192
6, 9564, Pitch_bend_c, 4, 7542
6, 9564, Control_c, 4, 7, 124
6, 9565, Pitch_bend_c, 4, 7792
6, 9566, Pitch_bend_c, 4, 7992
6, 9567, Pitch_bend_c, 4, 8092
6, 9568, Pitch_bend_c, 4, 8192
6, 9570, Pitch_bend_c, 4, 7542
6, 9570, Control_c, 4, 7, 126
6, 9571, Pitch_bend_c, 4, 7792
6, 9572, Pitch_bend_c, 4, 7992
6, 9573, Pitch_bend_c, 4, 8092
6, 9574, Pitch_bend_c, 4, 8192
6, 9576, Control_c, 4, 7, 126
6, 9576, Pitch_bend_c, 4, 7542
6, 9577, Pitch_bend_c, 4, 7792
6, 9578, Pitch_bend_c, 4, 7992
6, 9579, Pitch_bend_c, 4, 8092
6, 9580, Pitch_bend_c, 4, 8192
6, 9582, Pitch_bend_c, 4, 7542
6, 9582, Control_c, 4, 7, 126
6, 9583, Pitch_bend_c, 4, 7792
6, 9584, Pitch_bend_c, 4, 7992
6, 9585, Pitch_bend_c, 4, 8092
6, 9586, Pitch_bend_c, 4, 8192
6, 9588, Pitch_bend_c, 4, 7542
6, 9588, Control_c, 4, 7, 126
6, 9589, Pitch_bend_c, 4, 7792
6, 9590, Pitch_bend_c, 4, 7992
6, 9591, Pitch_bend_c, 4, 8092
6, 9592, Pitch_bend_c, 4, 8192
6, 9594, Pitch_bend_c, 4, 7542
6, 9595, Pitch_bend_c, 4, 7792
6, 9596, Pitch_bend_c, 4, 7992
6, 9597, Pitch_bend_c, 4, 8092
6, 9598, Note_on_c, 4, 59, 0
6, 9598, Pitch_bend_c, 4, 8192
6, 9600, Note_on_c, 4, 60, 127
6, 9645, Note_on_c, 4, 60, 0
6, 9792, Control_c, 4, 7, 112
6, 9792, Pitch_bend_c, 4, 7542
6, 9792, Note_on_c, 4, 61, 126
6, 9793, Pitch_bend_c, 4, 7792
6, 9794, Pitch_bend_c, 4, 7992
6, 9795, Pitch_bend_c, 4, 8092
6, 9796, Pitch_bend_c, 4, 8192
6, 9798, Pitch_bend_c, 4, 7542
6, 9798, Control_c, 4, 7, 115
6, 9799, Pitch_bend_c, 4, 7792
6, 9800, Pitch_bend_c, 4, 7992
6, 9801, Pitch_bend_c, 4, 8092
6, 9802, Pitch_bend_c, 4, 8192
6, 9804, Pitch_bend_c, 4, 7542
6, 9804, Control_c, 4, 7, 117
6, 9805, Pitch_bend_c, 4, 7792
6, 9806, Pitch_bend_c, 4, 7992
6, 9807, Pitch_bend_c, 4, 8092
6, 9808, Pitch_bend_c, 4, 8192
6, 9810, Pitch_bend_c, 4, 7542
6, 9810, Control_c, 4, 7, 118
6, 9811, Pitch_bend_c, 4, 7792
6, 9812, Pitch_bend_c, 4, 7992
6, 9813, Pitch_bend_c, 4, 8092
6, 9814, Pitch_bend_c, 4, 8192
6, 9816, Pitch_bend_c, 4, 7542
6, 9816, Control_c, 4, 7, 119
6, 9817, Pitch_bend_c, 4, 7792
6, 9818, Pitch_bend_c, 4, 7992
6, 9819, Pitch_bend_c, 4, 8092
6, 9820, Pitch_bend_c, 4, 8192
6, 9822, Pitch_bend_c, 4, 7542
6, 9822, Control_c, 4, 7, 121
6, 9823, Pitch_bend_c, 4, 7792
6, 9824, Pitch_bend_c, 4, 7992
6, 9825, Pitch_bend_c, 4, 8092
6, 9826, Pitch_bend_c, 4, 8192
6, 9828, Pitch_bend_c, 4, 7542
6, 9828, Control_c, 4, 7, 122
6, 9829, Pitch_bend_c, 4, 7792
6, 9830, Pitch_bend_c, 4, 7992
6, 9831, Pitch_bend_c, 4, 8092
6, 9832, Pitch_bend_c, 4, 8192
6, 9834, Pitch_bend_c, 4, 7542
6, 9834, Control_c, 4, 7, 123
6, 9835, Pitch_bend_c, 4, 7792
6, 9836, Pitch_bend_c, 4, 7992
6, 9837, Pitch_bend_c, 4, 8092
6, 9838, Pitch_bend_c, 4, 8192
6, 9840, Pitch_bend_c, 4, 7542
6, 9840, Control_c, 4, 7, 124
6, 9841, Pitch_bend_c, 4, 7792
6, 9842, Pitch_bend_c, 4, 7992
6, 9843, Pitch_bend_c, 4, 8092
6, 9844, Pitch_bend_c, 4, 8192
6, 9846, Pitch_bend_c, 4, 7542
6, 9846, Control_c, 4, 7, 124
6, 9847, Pitch_bend_c, 4, 7792
6, 9848, Pitch_bend_c, 4, 7992
6, 9849, Pitch_bend_c, 4, 8092
6, 9850, Pitch_bend_c, 4, 8192
6, 9852, Pitch_bend_c, 4, 7542
6, 9852, Control_c, 4, 7, 124
6, 9853, Pitch_bend_c, 4, 7792
6, 9854, Pitch_bend_c, 4, 7992
6, 9855, Pitch_bend_c, 4, 8092
6, 9856, Pitch_bend_c, 4, 8192
6, 9858, Pitch_bend_c, 4, 7542
6, 9858, Control_c, 4, 7, 126
6, 9859, Pitch_bend_c, 4, 7792
6, 9860, Pitch_bend_c, 4, 7992
6, 9861, Pitch_bend_c, 4, 8092
6, 9862, Pitch_bend_c, 4, 8192
6, 9864, Control_c, 4, 7, 126
6, 9864, Pitch_bend_c, 4, 7542
6, 9865, Pitch_bend_c, 4, 7792
6, 9866, Pitch_bend_c, 4, 7992
6, 9867, Pitch_bend_c, 4, 8092
6, 9868, Pitch_bend_c, 4, 8192
6, 9870, Pitch_bend_c, 4, 7542
6, 9870, Control_c, 4, 7, 126
6, 9871, Pitch_bend_c, 4, 7792
6, 9872, Pitch_bend_c, 4, 7992
6, 9873, Pitch_bend_c, 4, 8092
6, 9874, Pitch_bend_c, 4, 8192
6, 9876, Pitch_bend_c, 4, 7542
6, 9876, Control_c, 4, 7, 126
6, 9877, Pitch_bend_c, 4, 7792
6, 9878, Pitch_bend_c, 4, 7992
6, 9879, Pitch_bend_c, 4, 8092
6, 9880, Pitch_bend_c, 4, 8192
6, 9882, Pitch_bend_c, 4, 7542
6, 9883, Pitch_bend_c, 4, 7792
6, 9884, Pitch_bend_c, 4, 7992
6, 9885, Pitch_bend_c, 4, 8092
6, 9886, Note_on_c, 4, 61, 0
6, 9886, Pitch_bend_c, 4, 8192
6, 9888, Note_on_c, 4, 61, 127
6, 9928, Note_on_c, 4, 61, 0
6, 9984, Control_c, 4, 7, 112
6, 9984, Pitch_bend_c, 4, 7542
6, 9984, Note_on_c, 4, 59, 126
6, 9985, Pitch_bend_c, 4, 7792
6, 9986, Pitch_bend_c, 4, 7992
6, 9987, Pitch_bend_c, 4, 8092
6, 9988, Pitch_bend_c, 4, 8192
6, 9990, Pitch_bend_c, 4, 7542
6, 9990, Control_c, 4, 7, 115
6, 9991, Pitch_bend_c, 4, 7792
6, 9992, Pitch_bend_c, 4, 7992
6, 9993, Pitch_bend_c, 4, 8092
6, 9994, Pitch_bend_c, 4, 8192
6, 9996, Pitch_bend_c, 4, 7542
6, 9996, Control_c, 4, 7, 117
6, 9997, Pitch_bend_c, 4, 7792
6, 9998, Pitch_bend_c, 4, 7992
6, 9999, Pitch_bend_c, 4, 8092
6, 10000, Pitch_bend_c, 4, 8192
6, 10002, Pitch_bend_c, 4, 7542
6, 10002, Control_c, 4, 7, 118
6, 10003, Pitch_bend_c, 4, 7792
6, 10004, Pitch_bend_c, 4, 7992
6, 10005, Pitch_bend_c, 4, 8092
6, 10006, Pitch_bend_c, 4, 8192
6, 10008, Pitch_bend_c, 4, 7542
6, 10008, Control_c, 4, 7, 119
6, 10009, Pitch_bend_c, 4, 7792
6, 10010, Pitch_bend_c, 4, 7992
6, 10011, Pitch_bend_c, 4, 8092
6, 10012, Pitch_bend_c, 4, 8192
6, 10014, Pitch_bend_c, 4, 7542
6, 10014, Control_c, 4, 7, 121
6, 10015, Pitch_bend_c, 4, 7792
6, 10016, Pitch_bend_c, 4, 7992
6, 10017, Pitch_bend_c, 4, 8092
6, 10018, Pitch_bend_c, 4, 8192
6, 10020, Pitch_bend_c, 4, 7542
6, 10020, Control_c, 4, 7, 122
6, 10021, Pitch_bend_c, 4, 7792
6, 10022, Pitch_bend_c, 4, 7992
6, 10023, Pitch_bend_c, 4, 8092
6, 10024, Pitch_bend_c, 4, 8192
6, 10026, Pitch_bend_c, 4, 7542
6, 10026, Control_c, 4, 7, 123
6, 10027, Pitch_bend_c, 4, 7792
6, 10028, Pitch_bend_c, 4, 7992
6, 10029, Pitch_bend_c, 4, 8092
6, 10030, Pitch_bend_c, 4, 8192
6, 10032, Pitch_bend_c, 4, 7542
6, 10032, Control_c, 4, 7, 124
6, 10033, Pitch_bend_c, 4, 7792
6, 10034, Pitch_bend_c, 4, 7992
6, 10035, Pitch_bend_c, 4, 8092
6, 10036, Pitch_bend_c, 4, 8192
6, 10038, Pitch_bend_c, 4, 7542
6, 10038, Control_c, 4, 7, 124
6, 10039, Pitch_bend_c, 4, 7792
6, 10040, Pitch_bend_c, 4, 7992
6, 10041, Pitch_bend_c, 4, 8092
6, 10042, Pitch_bend_c, 4, 8192
6, 10044, Pitch_bend_c, 4, 7542
6, 10044, Control_c, 4, 7, 124
6, 10045, Pitch_bend_c, 4, 7792
6, 10046, Pitch_bend_c, 4, 7992
6, 10047, Pitch_bend_c, 4, 8092
6, 10048, Pitch_bend_c, 4, 8192
6, 10050, Pitch_bend_c, 4, 7542
6, 10050, Control_c, 4, 7, 126
6, 10051, Pitch_bend_c, 4, 7792
6, 10052, Pitch_bend_c, 4, 7992
6, 10053, Pitch_bend_c, 4, 8092
6, 10054, Pitch_bend_c, 4, 8192
6, 10056, Control_c, 4, 7, 126
6, 10056, Pitch_bend_c, 4, 7542
6, 10057, Pitch_bend_c, 4, 7792
6, 10058, Pitch_bend_c, 4, 7992
6, 10059, Pitch_bend_c, 4, 8092
6, 10060, Pitch_bend_c, 4, 8192
6, 10062, Pitch_bend_c, 4, 7542
6, 10062, Control_c, 4, 7, 126
6, 10063, Pitch_bend_c, 4, 7792
6, 10064, Pitch_bend_c, 4, 7992
6, 10065, Pitch_bend_c, 4, 8092
6, 10066, Pitch_bend_c, 4, 8192
6, 10068, Pitch_bend_c, 4, 7542
6, 10068, Control_c, 4, 7, 126
6, 10069, Pitch_bend_c, 4, 7792
6, 10070, Pitch_bend_c, 4, 7992
6, 10071, Pitch_bend_c, 4, 8092
6, 10072, Pitch_bend_c, 4, 8192
6, 10074, Pitch_bend_c, 4, 7542
6, 10075, Pitch_bend_c, 4, 7792
6, 10076, Pitch_bend_c, 4, 7992
6, 10077, Pitch_bend_c, 4, 8092
6, 10078, Note_on_c, 4, 59, 0
6, 10078, Pitch_bend_c, 4, 8192
6, 10080, Note_on_c, 4, 57, 127
6, 10120, Note_on_c, 4, 57, 0
6, 10176, Control_c, 4, 7, 112
6, 10176, Pitch_bend_c, 4, 7542
6, 10176, Note_on_c, 4, 68, 126
6, 10177, Pitch_bend_c, 4, 7792
6, 10178, Pitch_bend_c, 4, 7992
6, 10179, Pitch_bend_c, 4, 8092
6, 10180, Pitch_bend_c, 4, 8192
6, 10182, Pitch_bend_c, 4, 7542
6, 10182, Control_c, 4, 7, 115
6, 10183, Pitch_bend_c, 4, 7792
6, 10184, Pitch_bend_c, 4, 7992
6, 10185, Pitch_bend_c, 4, 8092
6, 10186, Pitch_bend_c, 4, 8192
6, 10188, Pitch_bend_c, 4, 7542
6, 10188, Control_c, 4, 7, 117
6, 10189, Pitch_bend_c, 4, 7792
6, 10190, Pitch_bend_c, 4, 7992
6, 10191, Pitch_bend_c, 4, 8092
6, 10192, Pitch_bend_c, 4, 8192
6, 10194, Pitch_bend_c, 4, 7542
6, 10194, Control_c, 4, 7, 118
6, 10195, Pitch_bend_c, 4, 7792
6, 10196, Pitch_bend_c, 4, 7992
6, 10197, Pitch_bend_c, 4, 8092
6, 10198, Pitch_bend_c, 4, 8192
6, 10200, Pitch_bend_c, 4, 7542
6, 10200, Control_c, 4, 7, 119
6, 10201, Pitch_bend_c, 4, 7792
6, 10202, Pitch_bend_c, 4, 7992
6, 10203, Pitch_bend_c, 4, 8092
6, 10204, Pitch_bend_c, 4, 8192
6, 10206, Pitch_bend_c, 4, 7542
6, 10206, Control_c, 4, 7, 121
6, 10207, Pitch_bend_c, 4, 7792
6, 10208, Pitch_bend_c, 4, 7992
6, 10209, Pitch_bend_c, 4, 8092
6, 10210, Pitch_bend_c, 4, 8192
6, 10212, Pitch_bend_c, 4, 7542
6, 10212, Control_c, 4, 7, 122
6, 10213, Pitch_bend_c, 4, 7792
6, 10214, Pitch_bend_c, 4, 7992
6, 10215, Pitch_bend_c, 4, 8092
6, 10216, Pitch_bend_c, 4, 8192
6, 10218, Pitch_bend_c, 4, 7542
6, 10218, Control_c, 4, 7, 123
6, 10219, Pitch_bend_c, 4, 7792
6, 10220, Pitch_bend_c, 4, 7992
6, 10221, Pitch_bend_c, 4, 8092
6, 10222, Pitch_bend_c, 4, 8192
6, 10224, Pitch_bend_c, 4, 7542
6, 10224, Control_c, 4, 7, 124
6, 10225, Pitch_bend_c, 4, 7792
6, 10226, Pitch_bend_c, 4, 7992
6, 10227, Pitch_bend_c, 4, 8092
6, 10228, Pitch_bend_c, 4, 8192
6, 10230, Pitch_bend_c, 4, 7542
6, 10230, Control_c, 4, 7, 124
6, 10231, Pitch_bend_c, 4, 7792
6, 10232, Pitch_bend_c, 4, 7992
6, 10233, Pitch_bend_c, 4, 8092
6, 10234, Pitch_bend_c, 4, 8192
6, 10236, Pitch_bend_c, 4, 7542
6, 10236, Control_c, 4, 7, 124
6, 10237, Pitch_bend_c, 4, 7792
6, 10238, Pitch_bend_c, 4, 7992
6, 10239, Pitch_bend_c, 4, 8092
6, 10240, Pitch_bend_c, 4, 8192
6, 10242, Pitch_bend_c, 4, 7542
6, 10242, Control_c, 4, 7, 126
6, 10243, Pitch_bend_c, 4, 7792
6, 10244, Pitch_bend_c, 4, 7992
6, 10245, Pitch_bend_c, 4, 8092
6, 10246, Pitch_bend_c, 4, 8192
6, 10248, Control_c, 4, 7, 126
6, 10248, Pitch_bend_c, 4, 7542
6, 10249, Pitch_bend_c, 4, 7792
6, 10250, Pitch_bend_c, 4, 7992
6, 10251, Pitch_bend_c, 4, 8092
6, 10252, Pitch_bend_c, 4, 8192
6, 10254, Pitch_bend_c, 4, 7542
6, 10254, Control_c, 4, 7, 126
6, 10255, Pitch_bend_c, 4, 7792
6, 10256, Pitch_bend_c, 4, 7992
6, 10257, Pitch_bend_c, 4, 8092
6, 10258, Pitch_bend_c, 4, 8192
6, 10260, Pitch_bend_c, 4, 7542
6, 10260, Control_c, 4, 7, 126
6, 10261, Pitch_bend_c, 4, 7792
6, 10262, Pitch_bend_c, 4, 7992
6, 10263, Pitch_bend_c, 4, 8092
6, 10264, Pitch_bend_c, 4, 8192
6, 10266, Pitch_bend_c, 4, 7542
6, 10267, Pitch_bend_c, 4, 7792
6, 10268, Pitch_bend_c, 4, 7992
6, 10269, Pitch_bend_c, 4, 8092
6, 10270, Note_on_c, 4, 68, 0
6, 10270, Pitch_bend_c, 4, 8192
6, 10272, Note_on_c, 4, 66, 127
6, 10312, Note_on_c, 4, 66, 0
6, 10368, Control_c, 4, 1, 0
6, 10368, Control_c, 4, 7, 112
6, 10368, Pitch_bend_c, 4, 7542
6, 10368, Note_on_c, 4, 64, 126
6, 10369, Pitch_bend_c, 4, 7792
6, 10370, Pitch_bend_c, 4, 7992
6, 10371, Pitch_bend_c, 4, 8092
6, 10372, Pitch_bend_c, 4, 8192
6, 10374, Pitch_bend_c, 4, 7542
6, 10374, Control_c, 4, 7, 115
6, 10375, Pitch_bend_c, 4, 7792
6, 10376, Pitch_bend_c, 4, 7992
6, 10377, Pitch_bend_c, 4, 8092
6, 10378, Pitch_bend_c, 4, 8192
6, 10380, Pitch_bend_c, 4, 7542
6, 10380, Control_c, 4, 7, 117
6, 10381, Pitch_bend_c, 4, 7792
6, 10382, Pitch_bend_c, 4, 7992
6, 10383, Pitch_bend_c, 4, 8092
6, 10384, Pitch_bend_c, 4, 8192
6, 10386, Pitch_bend_c, 4, 7542
6, 10386, Control_c, 4, 7, 118
6, 10387, Pitch_bend_c, 4, 7792
6, 10388, Pitch_bend_c, 4, 7992
6, 10389, Pitch_bend_c, 4, 8092
6, 10390, Pitch_bend_c, 4, 8192
6, 10392, Pitch_bend_c, 4, 7542
6, 10392, Control_c, 4, 7, 119
6, 10393, Pitch_bend_c, 4, 7792
6, 10394, Pitch_bend_c, 4, 7992
6, 10395, Pitch_bend_c, 4, 8092
6, 10396, Pitch_bend_c, 4, 8192
6, 10398, Pitch_bend_c, 4, 7542
6, 10398, Control_c, 4, 7, 121
6, 10399, Pitch_bend_c, 4, 7792
6, 10400, Pitch_bend_c, 4, 7992
6, 10401, Pitch_bend_c, 4, 8092
6, 10402, Pitch_bend_c, 4, 8192
6, 10404, Pitch_bend_c, 4, 7542
6, 10404, Control_c, 4, 7, 122
6, 10405, Pitch_bend_c, 4, 7792
6, 10406, Pitch_bend_c, 4, 7992
6, 10407, Pitch_bend_c, 4, 8092
6, 10408, Pitch_bend_c, 4, 8192
6, 10410, Pitch_bend_c, 4, 7542
6, 10410, Control_c, 4, 7, 123
6, 10411, Pitch_bend_c, 4, 7792
6, 10412, Pitch_bend_c, 4, 7992
6, 10413, Note_on_c, 4, 64, 0
6, 10413, Pitch_bend_c, 4, 8092
6, 10414, Pitch_bend_c, 4, 8192
6, 10416, Pitch_bend_c, 4, 7542
6, 10416, Control_c, 4, 7, 124
6, 10416, Note_on_c, 4, 61, 126
6, 10417, Pitch_bend_c, 4, 7792
6, 10418, Pitch_bend_c, 4, 7992
6, 10419, Pitch_bend_c, 4, 8092
6, 10420, Pitch_bend_c, 4, 8192
6, 10422, Pitch_bend_c, 4, 7542
6, 10422, Control_c, 4, 7, 124
6, 10423, Pitch_bend_c, 4, 7792
6, 10424, Pitch_bend_c, 4, 7992
6, 10425, Pitch_bend_c, 4, 8092
6, 10426, Pitch_bend_c, 4, 8192
6, 10428, Pitch_bend_c, 4, 7542
6, 10428, Control_c, 4, 7, 124
6, 10429, Pitch_bend_c, 4, 7792
6, 10430, Pitch_bend_c, 4, 7992
6, 10431, Pitch_bend_c, 4, 8092
6, 10432, Pitch_bend_c, 4, 8192
6, 10434, Pitch_bend_c, 4, 7542
6, 10434, Control_c, 4, 7, 126
6, 10435, Pitch_bend_c, 4, 7792
6, 10436, Pitch_bend_c, 4, 7992
6, 10437, Pitch_bend_c, 4, 8092
6, 10438, Pitch_bend_c, 4, 8192
6, 10440, Control_c, 4, 7, 126
6, 10440, Pitch_bend_c, 4, 7542
6, 10441, Pitch_bend_c, 4, 7792
6, 10442, Pitch_bend_c, 4, 7992
6, 10443, Pitch_bend_c, 4, 8092
6, 10444, Pitch_bend_c, 4, 8192
6, 10446, Pitch_bend_c, 4, 7542
6, 10446, Control_c, 4, 7, 126
6, 10447, Pitch_bend_c, 4, 7792
6, 10448, Pitch_bend_c, 4, 7992
6, 10449, Pitch_bend_c, 4, 8092
6, 10450, Pitch_bend_c, 4, 8192
6, 10452, Pitch_bend_c, 4, 7542
6, 10452, Control_c, 4, 7, 126
6, 10453, Pitch_bend_c, 4, 7792
6, 10454, Pitch_bend_c, 4, 7992
6, 10455, Pitch_bend_c, 4, 8092
6, 10456, Pitch_bend_c, 4, 8192
6, 10458, Pitch_bend_c, 4, 7542
6, 10459, Pitch_bend_c, 4, 7792
6, 10460, Pitch_bend_c, 4, 7992
6, 10461, Note_on_c, 4, 61, 0
6, 10461, Pitch_bend_c, 4, 8092
6, 10462, Pitch_bend_c, 4, 8192
6, 10464, Pitch_bend_c, 4, 7542
6, 10464, Note_on_c, 4, 56, 126
6, 10465, Pitch_bend_c, 4, 7792
6, 10466, Pitch_bend_c, 4, 7992
6, 10467, Pitch_bend_c, 4, 8092
6, 10468, Pitch_bend_c, 4, 8192
6, 10470, Pitch_bend_c, 4, 7542
6, 10471, Pitch_bend_c, 4, 7792
6, 10472, Pitch_bend_c, 4, 7992
6, 10473, Pitch_bend_c, 4, 8092
6, 10474, Pitch_bend_c, 4, 8192
6, 10476, Pitch_bend_c, 4, 7542
6, 10477, Pitch_bend_c, 4, 7792
6, 10478, Pitch_bend_c, 4, 7992
6, 10479, Pitch_bend_c, 4, 8092
6, 10480, Pitch_bend_c, 4, 8192
6, 10482, Pitch_bend_c, 4, 7542
6, 10483, Pitch_bend_c, 4, 7792
6, 10484, Pitch_bend_c, 4, 7992
6, 10485, Pitch_bend_c, 4, 8092
6, 10486, Pitch_bend_c, 4, 8192
6, 10488, Pitch_bend_c, 4, 7542
6, 10489, Pitch_bend_c, 4, 7792
6, 10490, Pitch_bend_c, 4, 7992
6, 10491, Pitch_bend_c, 4, 8092
6, 10492, Pitch_bend_c, 4, 8192
6, 10494, Pitch_bend_c, 4, 7542
6, 10495, Pitch_bend_c, 4, 7792
6, 10496, Pitch_bend_c, 4, 7992
6, 10497, Pitch_bend_c, 4, 8092
6, 10498, Pitch_bend_c, 4, 8192
6, 10500, Pitch_bend_c, 4, 7542
6, 10501, Pitch_bend_c, 4, 7792
6, 10502, Pitch_bend_c, 4, 7992
6, 10503, Pitch_bend_c, 4, 8092
6, 10504, Pitch_bend_c, 4, 8192
6, 10506, Pitch_bend_c, 4, 7542
6, 10507, Pitch_bend_c, 4, 7792
6, 10508, Pitch_bend_c, 4, 7992
6, 10509, Note_on_c, 4, 56, 0
6, 10509, Pitch_bend_c, 4, 8092
6, 10510, Pitch_bend_c, 4, 8192
6, 10512, Pitch_bend_c, 4, 7542
6, 10512, Note_on_c, 4, 56, 126
6, 10513, Pitch_bend_c, 4, 7792
6, 10514, Pitch_bend_c, 4, 7992
6, 10515, Pitch_bend_c, 4, 8092
6, 10516, Pitch_bend_c, 4, 8192
6, 10518, Pitch_bend_c, 4, 7542
6, 10519, Pitch_bend_c, 4, 7792
6, 10520, Pitch_bend_c, 4, 7992
6, 10521, Pitch_bend_c, 4, 8092
6, 10522, Pitch_bend_c, 4, 8192
6, 10524, Pitch_bend_c, 4, 7542
6, 10525, Pitch_bend_c, 4, 7792
6, 10526, Pitch_bend_c, 4, 7992
6, 10527, Pitch_bend_c, 4, 8092
6, 10528, Pitch_bend_c, 4, 8192
6, 10530, Pitch_bend_c, 4, 7542
6, 10531, Pitch_bend_c, 4, 7792
6, 10532, Pitch_bend_c, 4, 7992
6, 10533, Pitch_bend_c, 4, 8092
6, 10534, Pitch_bend_c, 4, 8192
6, 10536, Pitch_bend_c, 4, 7542
6, 10537, Pitch_bend_c, 4, 7792
6, 10538, Pitch_bend_c, 4, 7992
6, 10539, Pitch_bend_c, 4, 8092
6, 10540, Pitch_bend_c, 4, 8192
6, 10542, Pitch_bend_c, 4, 7542
6, 10543, Pitch_bend_c, 4, 7792
6, 10544, Pitch_bend_c, 4, 7992
6, 10545, Pitch_bend_c, 4, 8092
6, 10546, Pitch_bend_c, 4, 8192
6, 10548, Pitch_bend_c, 4, 7542
6, 10549, Pitch_bend_c, 4, 7792
6, 10550, Pitch_bend_c, 4, 7992
6, 10551, Pitch_bend_c, 4, 8092
6, 10552, Pitch_bend_c, 4, 8192
6, 10554, Pitch_bend_c, 4, 7542
6, 10555, Pitch_bend_c, 4, 7792
6, 10556, Pitch_bend_c, 4, 7992
6, 10557, Note_on_c, 4, 56, 0
6, 10557, Pitch_bend_c, 4, 8092
6, 10558, Pitch_bend_c, 4, 8192
6, 10560, Control_c, 4, 7, 112
6, 10560, Pitch_bend_c, 4, 7542
6, 10560, Note_on_c, 4, 56, 126
6, 10561, Pitch_bend_c, 4, 7792
6, 10562, Pitch_bend_c, 4, 7992
6, 10563, Pitch_bend_c, 4, 8092
6, 10564, Pitch_bend_c, 4, 8192
6, 10566, Pitch_bend_c, 4, 7542
6, 10566, Control_c, 4, 7, 115
6, 10567, Pitch_bend_c, 4, 7792
6, 10568, Pitch_bend_c, 4, 7992
6, 10569, Pitch_bend_c, 4, 8092
6, 10570, Pitch_bend_c, 4, 8192
6, 10572, Pitch_bend_c, 4, 7542
6, 10572, Control_c, 4, 7, 117
6, 10573, Pitch_bend_c, 4, 7792
6, 10574, Pitch_bend_c, 4, 7992
6, 10575, Pitch_bend_c, 4, 8092
6, 10576, Pitch_bend_c, 4, 8192
6, 10578, Pitch_bend_c, 4, 7542
6, 10578, Control_c, 4, 7, 118
6, 10579, Pitch_bend_c, 4, 7792
6, 10580, Pitch_bend_c, 4, 7992
6, 10581, Pitch_bend_c, 4, 8092
6, 10582, Pitch_bend_c, 4, 8192
6, 10584, Pitch_bend_c, 4, 7542
6, 10584, Control_c, 4, 7, 119
6, 10585, Pitch_bend_c, 4, 7792
6, 10586, Pitch_bend_c, 4, 7992
6, 10587, Pitch_bend_c, 4, 8092
6, 10588, Pitch_bend_c, 4, 8192
6, 10590, Pitch_bend_c, 4, 7542
6, 10590, Control_c, 4, 7, 121
6, 10591, Pitch_bend_c, 4, 7792
6, 10592, Pitch_bend_c, 4, 7992
6, 10593, Pitch_bend_c, 4, 8092
6, 10594, Pitch_bend_c, 4, 8192
6, 10596, Pitch_bend_c, 4, 7542
6, 10596, Control_c, 4, 7, 122
6, 10597, Pitch_bend_c, 4, 7792
6, 10598, Pitch_bend_c, 4, 7992
6, 10599, Pitch_bend_c, 4, 8092
6, 10600, Pitch_bend_c, 4, 8192
6, 10602, Pitch_bend_c, 4, 7542
6, 10602, Control_c, 4, 7, 123
6, 10603, Pitch_bend_c, 4, 7792
6, 10604, Pitch_bend_c, 4, 7992
6, 10605, Pitch_bend_c, 4, 8092
6, 10606, Pitch_bend_c, 4, 8192
6, 10608, Pitch_bend_c, 4, 7542
6, 10608, Control_c, 4, 7, 124
6, 10609, Pitch_bend_c, 4, 7792
6, 10610, Pitch_bend_c, 4, 7992
6, 10611, Pitch_bend_c, 4, 8092
6, 10612, Pitch_bend_c, 4, 8192
6, 10614, Pitch_bend_c, 4, 7542
6, 10614, Control_c, 4, 7, 124
6, 10615, Pitch_bend_c, 4, 7792
6, 10616, Pitch_bend_c, 4, 7992
6, 10617, Pitch_bend_c, 4, 8092
6, 10618, Pitch_bend_c, 4, 8192
6, 10620, Pitch_bend_c, 4, 7542
6, 10620, Control_c, 4, 7, 124
6, 10621, Pitch_bend_c, 4, 7792
6, 10622, Pitch_bend_c, 4, 7992
6, 10623, Pitch_bend_c, 4, 8092
6, 10624, Pitch_bend_c, 4, 8192
6, 10626, Pitch_bend_c, 4, 7542
6, 10626, Control_c, 4, 7, 126
6, 10627, Pitch_bend_c, 4, 7792
6, 10628, Pitch_bend_c, 4, 7992
6, 10629, Pitch_bend_c, 4, 8092
6, 10630, Pitch_bend_c, 4, 8192
6, 10632, Control_c, 4, 7, 126
6, 10632, Pitch_bend_c, 4, 7542
6, 10633, Pitch_bend_c, 4, 7792
6, 10634, Pitch_bend_c, 4, 7992
6, 10635, Pitch_bend_c, 4, 8092
6, 10636, Pitch_bend_c, 4, 8192
6, 10638, Pitch_bend_c, 4, 7542
6, 10638, Control_c, 4, 7, 126
6, 10639, Pitch_bend_c, 4, 7792
6, 10640, Pitch_bend_c, 4, 7992
6, 10641, Pitch_bend_c, 4, 8092
6, 10642, Pitch_bend_c, 4, 8192
6, 10644, Pitch_bend_c, 4, 7542
6, 10644, Control_c, 4, 7, 126
6, 10645, Pitch_bend_c, 4, 7792
6, 10646, Pitch_bend_c, 4, 7992
6, 10647, Pitch_bend_c, 4, 8092
6, 10648, Pitch_bend_c, 4, 8192
6, 10650, Pitch_bend_c, 4, 7542
6, 10651, Pitch_bend_c, 4, 7792
6, 10652, Pitch_bend_c, 4, 7992
6, 10653, Pitch_bend_c, 4, 8092
6, 10654, Note_on_c, 4, 56, 0
6, 10654, Pitch_bend_c, 4, 8192
6, 10656, Control_c, 4, 1, 30
6, 10656, Note_on_c, 4, 61, 127
6, 10696, Note_on_c, 4, 61, 0
6, 10728, Note_on_c, 4, 68, 121
6, 10748, Note_on_c, 4, 68, 0
6, 10752, Note_on_c, 4, 76, 121
6, 10767, Note_on_c, 4, 76, 0
6, 10776, Note_on_c, 4, 75, 123
6, 10786, Note_on_c, 4, 75, 0
6, 10788, Note_on_c, 4, 73, 122
6, 10798, Note_on_c, 4, 73, 0
6, 10800, Note_on_c, 4, 75, 123
6, 10820, Note_on_c, 4, 75, 0
6, 10824, Note_on_c, 4, 76, 124
6, 10844, Note_on_c, 4, 76, 0
6, 10848, Note_on_c, 4, 78, 124
6, 10868, Note_on_c, 4, 78, 0
6, 10872, Note_on_c, 4, 76, 124
6, 10917, Note_on_c, 4, 76, 0
6, 10920, Note_on_c, 4, 76, 124
6, 10940, Note_on_c, 4, 76, 0
6, 10944, Note_on_c, 4, 76, 121
6, 10959, Note_on_c, 4, 76, 0
6, 10968, Note_on_c, 4, 75, 123
6, 10978, Note_on_c, 4, 75, 0
6, 10980, Note_on_c, 4, 73, 122
6, 10990, Note_on_c, 4, 73, 0
6, 10992, Note_on_c, 4, 75, 123
6, 11012, Note_on_c, 4, 75, 0
6, 11016, Note_on_c, 4, 76, 124
6, 11036, Note_on_c, 4, 76, 0
6, 11040, Note_on_c, 4, 78, 124
6, 11060, Note_on_c, 4, 78, 0
6, 11064, Note_on_c, 4, 76, 124
6, 11109, Note_on_c, 4, 76, 0
6, 11112, Note_on_c, 4, 76, 124
6, 11132, Note_on_c, 4, 76, 0
6, 11136, Note_on_c, 4, 78, 124
6, 11156, Note_on_c, 4, 78, 0
6, 11160, Note_on_c, 4, 76, 126
6, 11205, Note_on_c, 4, 76, 0
6, 11208, Note_on_c, 4, 75, 124
6, 11228, Note_on_c, 4, 75, 0
6, 11232, Note_on_c, 4, 73, 123
6, 11277, Note_on_c, 4, 73, 0
6, 11280, Note_on_c, 4, 72, 122
6, 11325, Note_on_c, 4, 72, 0
6, 11328, Note_on_c, 4, 73, 122
6, 11373, Note_on_c, 4, 73, 0
6, 12096, Control_c, 4, 7, 118
6, 12096, Note_on_c, 4, 80, 121
6, 12156, Note_on_c, 4, 80, 0
6, 12156, Note_on_c, 4, 81, 123
6, 12168, Note_on_c, 4, 81, 0
6, 12168, Note_on_c, 4, 80, 121
6, 12180, Note_on_c, 4, 80, 0
6, 12180, Note_on_c, 4, 81, 123
6, 12192, Note_on_c, 4, 81, 0
6, 12192, Note_on_c, 4, 80, 121
6, 12252, Note_on_c, 4, 80, 0
6, 12252, Note_on_c, 4, 81, 121
6, 12264, Note_on_c, 4, 81, 0
6, 12264, Note_on_c, 4, 80, 123
6, 12276, Note_on_c, 4, 80, 0
6, 12276, Note_on_c, 4, 81, 121
6, 12288, Note_on_c, 4, 81, 0
6, 12288, Note_on_c, 4, 80, 123
6, 12294, Note_on_c, 4, 80, 0
6, 12294, Note_on_c, 4, 81, 122
6, 12300, Note_on_c, 4, 81, 0
6, 12300, Note_on_c, 4, 80, 121
6, 12306, Note_on_c, 4, 80, 0
6, 12306, Note_on_c, 4, 81, 119
6, 12312, Note_on_c, 4, 81, 0
6, 12312, Note_on_c, 4, 80, 118
6, 12318, Note_on_c, 4, 80, 0
6, 12318, Note_on_c, 4, 81, 117
6, 12324, Note_on_c, 4, 81, 0
6, 12324, Note_on_c, 4, 80, 115
6, 12330, Note_on_c, 4, 80, 0
6, 12330, Note_on_c, 4, 81, 113
6, 12336, Note_on_c, 4, 81, 0
6, 12336, Note_on_c, 4, 80, 112
6, 12342, Note_on_c, 4, 80, 0
6, 12342, Note_on_c, 4, 81, 110
6, 12348, Note_on_c, 4, 81, 0
6, 12348, Note_on_c, 4, 80, 108
6, 12354, Note_on_c, 4, 80, 0
6, 12354, Note_on_c, 4, 81, 105
6, 12360, Note_on_c, 4, 81, 0
6, 12360, Note_on_c, 4, 80, 103
6, 12366, Note_on_c, 4, 80, 0
6, 12366, Note_on_c, 4, 81, 100
6, 12372, Note_on_c, 4, 81, 0
6, 12372, Note_on_c, 4, 80, 97
6, 12378, Note_on_c, 4, 80, 0
6, 12378, Note_on_c, 4, 81, 94
6, 12384, Note_on_c, 4, 81, 0
6, 12384, Note_on_c, 4, 80, 118
6, 12396, Note_on_c, 4, 80, 0
6, 12396, Note_on_c, 4, 81, 121
6, 12408, Note_on_c, 4, 81, 0
6, 12408, Note_on_c, 4, 80, 118
6, 12420, Note_on_c, 4, 80, 0
6, 12420, Note_on_c, 4, 81, 121
6, 12432, Note_on_c, 4, 81, 0
6, 12432, Note_on_c, 4, 80, 118
6, 12444, Note_on_c, 4, 80, 0
6, 12444, Note_on_c, 4, 81, 121
6, 12456, Note_on_c, 4, 81, 0
6, 12456, Note_on_c, 4, 80, 118
6, 12468, Note_on_c, 4, 80, 0
6, 12468, Note_on_c, 4, 81, 121
6, 12480, Note_on_c, 4, 81, 0
6, 12480, Note_on_c, 4, 80, 123
6, 12486, Note_on_c, 4, 80, 0
6, 12486, Note_on_c, 4, 81, 122
6, 12492, Note_on_c, 4, 81, 0
6, 12492, Note_on_c, 4, 80, 121
6, 12498, Note_on_c, 4, 80, 0
6, 12498, Note_on_c, 4, 81, 119
6, 12504, Note_on_c, 4, 81, 0
6, 12504, Note_on_c, 4, 80, 118
6, 12510, Note_on_c, 4, 80, 0
6, 12510, Note_on_c, 4, 81, 117
6, 12516, Note_on_c, 4, 81, 0
6, 12516, Note_on_c, 4, 80, 115
6, 12522, Note_on_c, 4, 80, 0
6, 12522, Note_on_c, 4, 81, 113
6, 12528, Note_on_c, 4, 81, 0
6, 12528, Note_on_c, 4, 80, 112
6, 12534, Note_on_c, 4, 80, 0
6, 12534, Note_on_c, 4, 81, 110
6, 12540, Note_on_c, 4, 81, 0
6, 12540, Note_on_c, 4, 80, 108
6, 12546, Note_on_c, 4, 80, 0
6, 12546, Note_on_c, 4, 81, 105
6, 12552, Note_on_c, 4, 81, 0
6, 12552, Note_on_c, 4, 80, 103
6, 12558, Note_on_c, 4, 80, 0
6, 12558, Note_on_c, 4, 81, 100
6, 12564, Note_on_c, 4, 81, 0
6, 12564, Note_on_c, 4, 80, 97
6, 12570, Note_on_c, 4, 80, 0
6, 12570, Note_on_c, 4, 81, 94
6, 12576, Note_on_c, 4, 81, 0
6, 12576, Note_on_c, 4, 80, 118
6, 12582, Note_on_c, 4, 80, 0
6, 12582, Note_on_c, 4, 81, 121
6, 12588, Note_on_c, 4, 81, 0
6, 12588, Note_on_c, 4, 80, 118
6, 12594, Note_on_c, 4, 80, 0
6, 12594, Note_on_c, 4, 81, 121
6, 12600, Note_on_c, 4, 81, 0
6, 12600, Note_on_c, 4, 80, 118
6, 12606, Note_on_c, 4, 80, 0
6, 12606, Note_on_c, 4, 81, 121
6, 12612, Note_on_c, 4, 81, 0
6, 12612, Note_on_c, 4, 80, 118
6, 12618, Note_on_c, 4, 80, 0
6, 12618, Note_on_c, 4, 81, 121
6, 12624, Note_on_c, 4, 81, 0
6, 12624, Control_c, 4, 7, 121
6, 12624, Note_on_c, 4, 80, 118
6, 12630, Note_on_c, 4, 80, 0
6, 12630, Note_on_c, 4, 81, 121
6, 12636, Note_on_c, 4, 81, 0
6, 12636, Note_on_c, 4, 80, 118
6, 12642, Note_on_c, 4, 80, 0
6, 12642, Note_on_c, 4, 81, 121
6, 12648, Note_on_c, 4, 81, 0
6, 12648, Note_on_c, 4, 80, 118
6, 12654, Note_on_c, 4, 80, 0
6, 12654, Note_on_c, 4, 81, 121
6, 12660, Note_on_c, 4, 81, 0
6, 12660, Note_on_c, 4, 80, 118
6, 12666, Note_on_c, 4, 80, 0
6, 12666, Note_on_c, 4, 81, 121
6, 12672, Note_on_c, 4, 81, 0
6, 12672, Control_c, 4, 7, 124
6, 12672, Control_c, 4, 1, 80
6, 12672, Note_on_c, 4, 76, 123
6, 12688, Note_on_c, 4, 76, 0
6, 12696, Note_on_c, 4, 76, 126
6, 12714, Note_on_c, 4, 76, 0
6, 12720, Note_on_c, 4, 76, 124
6, 12736, Note_on_c, 4, 76, 0
6, 12744, Note_on_c, 4, 75, 123
6, 12754, Note_on_c, 4, 75, 0
6, 12756, Note_on_c, 4, 76, 124
6, 12766, Note_on_c, 4, 76, 0
6, 12768, Note_on_c, 4, 78, 126
6, 12838, Note_on_c, 4, 78, 0
6, 12840, Note_on_c, 4, 78, 121
6, 12850, Note_on_c, 4, 78, 0
6, 12852, Note_on_c, 4, 76, 122
6, 12862, Note_on_c, 4, 76, 0
6, 12864, Note_on_c, 4, 75, 123
6, 12880, Note_on_c, 4, 75, 0
6, 12888, Note_on_c, 4, 75, 126
6, 12908, Note_on_c, 4, 75, 0
6, 12912, Note_on_c, 4, 75, 124
6, 12929, Note_on_c, 4, 75, 0
6, 12936, Note_on_c, 4, 73, 123
6, 12946, Note_on_c, 4, 73, 0
6, 12948, Note_on_c, 4, 75, 124
6, 12958, Note_on_c, 4, 75, 0
6, 12960, Note_on_c, 4, 76, 126
6, 13030, Note_on_c, 4, 76, 0
6, 13032, Note_on_c, 4, 76, 121
6, 13042, Note_on_c, 4, 76, 0
6, 13044, Note_on_c, 4, 78, 122
6, 13054, Note_on_c, 4, 78, 0
6, 13056, Note_on_c, 4, 80, 123
6, 13072, Note_on_c, 4, 80, 0
6, 13080, Note_on_c, 4, 80, 124
6, 13100, Note_on_c, 4, 80, 0
6, 13104, Note_on_c, 4, 80, 126
6, 13121, Note_on_c, 4, 80, 0
6, 13128, Note_on_c, 4, 80, 122
6, 13138, Note_on_c, 4, 80, 0
6, 13140, Note_on_c, 4, 78, 123
6, 13150, Note_on_c, 4, 78, 0
6, 13152, Note_on_c, 4, 76, 121
6, 13168, Note_on_c, 4, 76, 0
6, 13176, Note_on_c, 4, 76, 123
6, 13193, Note_on_c, 4, 76, 0
6, 13200, Note_on_c, 4, 76, 122
6, 13220, Note_on_c, 4, 76, 0
6, 13224, Note_on_c, 4, 76, 121
6, 13234, Note_on_c, 4, 76, 0
6, 13236, Note_on_c, 4, 78, 124
6, 13246, Note_on_c, 4, 78, 0
6, 13248, Note_on_c, 4, 80, 123
6, 13264, Note_on_c, 4, 80, 0
6, 13272, Note_on_c, 4, 80, 124
6, 13292, Note_on_c, 4, 80, 0
6, 13296, Note_on_c, 4, 80, 126
6, 13313, Note_on_c, 4, 80, 0
6, 13320, Note_on_c, 4, 80, 122
6, 13330, Note_on_c, 4, 80, 0
6, 13332, Note_on_c, 4, 78, 123
6, 13342, Note_on_c, 4, 78, 0
6, 13344, Note_on_c, 4, 76, 121
6, 13360, Note_on_c, 4, 76, 0
6, 13368, Note_on_c, 4, 76, 123
6, 13386, Note_on_c, 4, 76, 0
6, 13392, Note_on_c, 4, 76, 122
6, 13412, Note_on_c, 4, 76, 0
6, 13416, Note_on_c, 4, 76, 121
6, 13426, Note_on_c, 4, 76, 0
6, 13428, Note_on_c, 4, 78, 124
6, 13438, Note_on_c, 4, 78, 0
6, 13440, Note_on_c, 4, 80, 123
6, 13456, Note_on_c, 4, 80, 0
6, 13464, Note_on_c, 4, 80, 124
6, 13484, Note_on_c, 4, 80, 0
6, 13488, Note_on_c, 4, 80, 126
6, 13505, Note_on_c, 4, 80, 0
6, 13512, Note_on_c, 4, 78, 122
6, 13522, Note_on_c, 4, 78, 0
6, 13524, Note_on_c, 4, 76, 123
6, 13534, Note_on_c, 4, 76, 0
6, 13536, Note_on_c, 4, 75, 123
6, 13581, Note_on_c, 4, 75, 0
6, 14592, Control_c, 4, 7, 124
6, 14592, Note_on_c, 4, 80, 126
6, 14610, Note_on_c, 4, 80, 0
6, 14616, Note_on_c, 4, 78, 123
6, 14626, Note_on_c, 4, 78, 0
6, 14628, Note_on_c, 4, 76, 122
6, 14638, Note_on_c, 4, 76, 0
6, 14640, Note_on_c, 4, 78, 123
6, 14660, Note_on_c, 4, 78, 0
6, 14664, Note_on_c, 4, 80, 124
6, 14684, Note_on_c, 4, 80, 0
6, 14688, Note_on_c, 4, 81, 124
6, 14708, Note_on_c, 4, 81, 0
6, 14712, Note_on_c, 4, 80, 126
6, 14757, Note_on_c, 4, 80, 0
6, 14760, Note_on_c, 4, 80, 121
6, 14780, Note_on_c, 4, 80, 0
6, 14784, Note_on_c, 4, 80, 126
6, 14802, Note_on_c, 4, 80, 0
6, 14808, Note_on_c, 4, 78, 123
6, 14818, Note_on_c, 4, 78, 0
6, 14820, Note_on_c, 4, 76, 122
6, 14830, Note_on_c, 4, 76, 0
6, 14832, Note_on_c, 4, 78, 123
6, 14852, Note_on_c, 4, 78, 0
6, 14856, Note_on_c, 4, 80, 124
6, 14876, Note_on_c, 4, 80, 0
6, 14880, Note_on_c, 4, 81, 124
6, 14900, Note_on_c, 4, 81, 0
6, 14904, Note_on_c, 4, 80, 126
6, 14949, Note_on_c, 4, 80, 0
6, 14952, Note_on_c, 4, 80, 121
6, 14972, Note_on_c, 4, 80, 0
6, 14976, Note_on_c, 4, 81, 124
6, 14996, Note_on_c, 4, 81, 0
6, 15000, Note_on_c, 4, 80, 127
6, 15045, Note_on_c, 4, 80, 0
6, 15048, Note_on_c, 4, 78, 124
6, 15068, Note_on_c, 4, 78, 0
6, 15072, Note_on_c, 4, 76, 123
6, 15117, Note_on_c, 4, 76, 0
6, 15120, Control_c, 4, 7, 115
6, 15120, Note_on_c, 4, 75, 121
6, 15132, Control_c, 4, 7, 118
6, 15144, Control_c, 4, 7, 119
6, 15156, Control_c, 4, 7, 121
6, 15165, Note_on_c, 4, 75, 0
6, 15168, Note_on_c, 4, 76, 121
6, 15213, Note_on_c, 4, 76, 0
6, 15240, Note_on_c, 4, 80, 115
6, 15260, Note_on_c, 4, 80, 0
6, 15264, Note_on_c, 4, 80, 115
6, 15284, Note_on_c, 4, 80, 0
6, 15288, Note_on_c, 4, 78, 112
6, 15298, Note_on_c, 4, 78, 0
6, 15300, Note_on_c, 4, 76, 110
6, 15310, Note_on_c, 4, 76, 0
6, 15312, Note_on_c, 4, 78, 112
6, 15332, Note_on_c, 4, 78, 0
6, 15336, Note_on_c, 4, 80, 115
6, 15356, Note_on_c, 4, 80, 0
6, 15360, Note_on_c, 4, 81, 117
6, 15380, Note_on_c, 4, 81, 0
6, 15384, Note_on_c, 4, 80, 115
6, 15429, Note_on_c, 4, 80, 0
6, 15432, Note_on_c, 4, 80, 112
6, 15452, Note_on_c, 4, 80, 0
6, 15456, Note_on_c, 4, 80, 115
6, 15476, Note_on_c, 4, 80, 0
6, 15480, Note_on_c, 4, 78, 112
6, 15490, Note_on_c, 4, 78, 0
6, 15492, Note_on_c, 4, 76, 110
6, 15502, Note_on_c, 4, 76, 0
6, 15504, Note_on_c, 4, 78, 112
6, 15524, Note_on_c, 4, 78, 0
6, 15528, Note_on_c, 4, 80, 115
6, 15548, Note_on_c, 4, 80, 0
6, 15552, Note_on_c, 4, 81, 117
6, 15572, Note_on_c, 4, 81, 0
6, 15576, Note_on_c, 4, 80, 115
6, 15621, Note_on_c, 4, 80, 0
6, 15624, Note_on_c, 4, 80, 112
6, 15644, Note_on_c, 4, 80, 0
6, 15648, Note_on_c, 4, 81, 117
6, 15668, Note_on_c, 4, 81, 0
6, 15672, Note_on_c, 4, 80, 115
6, 15717, Note_on_c, 4, 80, 0
6, 15720, Note_on_c, 4, 78, 112
6, 15740, Note_on_c, 4, 78, 0
6, 15744, Note_on_c, 4, 76, 112
6, 15789, Note_on_c, 4, 76, 0
6, 15792, Note_on_c, 4, 75, 112
6, 15837, Note_on_c, 4, 75, 0
6, 15840, Note_on_c, 4, 76, 112
6, 16088, Note_on_c, 4, 76, 0
6, 16128, Control_c, 4, 7, 120
6, 16128, End_track
7, 0, Start_track
7, 0, Title_t, "WinJammer Demo"
7, 0, Instrument_name_t, "Violin"
7, 0, MIDI_port, 0
7, 0, Pitch_bend_c, 5, 8192
7, 0, Control_c, 5, 64, 0
7, 0, Control_c, 5, 10, 88
7, 0, Control_c, 5, 7, 121
7, 0, Control_c, 5, 11, 120
7, 0, Control_c, 5, 1, 30
7, 0, Program_c, 5, 40
7, 168, Note_on_c, 5, 68, 121
7, 188, Note_on_c, 5, 68, 0
7, 192, Note_on_c, 5, 71, 121
7, 207, Note_on_c, 5, 71, 0
7, 216, Note_on_c, 5, 71, 123
7, 231, Note_on_c, 5, 71, 0
7, 240, Note_on_c, 5, 71, 126
7, 260, Note_on_c, 5, 71, 0
7, 264, Note_on_c, 5, 71, 121
7, 284, Note_on_c, 5, 71, 0
7, 288, Control_c, 5, 7, 115
7, 288, Note_on_c, 5, 64, 115
7, 300, Control_c, 5, 7, 117
7, 312, Control_c, 5, 7, 118
7, 324, Control_c, 5, 7, 119
7, 336, Control_c, 5, 7, 121
7, 356, Note_on_c, 5, 64, 0
7, 360, Control_c, 5, 7, 115
7, 360, Note_on_c, 5, 68, 126
7, 362, Control_c, 5, 7, 118
7, 364, Control_c, 5, 7, 119
7, 368, Control_c, 5, 7, 121
7, 370, Note_on_c, 5, 68, 0
7, 372, Note_on_c, 5, 69, 123
7, 382, Note_on_c, 5, 69, 0
7, 384, Note_on_c, 5, 71, 121
7, 399, Note_on_c, 5, 71, 0
7, 408, Note_on_c, 5, 71, 123
7, 423, Note_on_c, 5, 71, 0
7, 432, Note_on_c, 5, 71, 126
7, 452, Note_on_c, 5, 71, 0
7, 456, Note_on_c, 5, 71, 121
7, 476, Note_on_c, 5, 71, 0
7, 480, Control_c, 5, 7, 115
7, 480, Note_on_c, 5, 64, 115
7, 492, Control_c, 5, 7, 117
7, 504, Control_c, 5, 7, 118
7, 516, Control_c, 5, 7, 119
7, 528, Control_c, 5, 7, 121
7, 548, Note_on_c, 5, 64, 0
7, 552, Control_c, 5, 7, 115
7, 552, Note_on_c, 5, 68, 126
7, 554, Control_c, 5, 7, 118
7, 556, Control_c, 5, 7, 119
7, 560, Control_c, 5, 7, 121
7, 562, Note_on_c, 5, 68, 0
7, 564, Note_on_c, 5, 69, 123
7, 574, Note_on_c, 5, 69, 0
7, 576, Note_on_c, 5, 71, 123
7, 591, Note_on_c, 5, 71, 0
7, 600, Note_on_c, 5, 71, 126
7, 620, Note_on_c, 5, 71, 0
7, 624, Note_on_c, 5, 75, 127
7, 644, Note_on_c, 5, 75, 0
7, 648, Note_on_c, 5, 75, 126
7, 668, Note_on_c, 5, 75, 0
7, 672, Control_c, 5, 7, 115
7, 672, Note_on_c, 5, 66, 123
7, 684, Control_c, 5, 7, 117
7, 696, Control_c, 5, 7, 118
7, 708, Control_c, 5, 7, 121
7, 717, Note_on_c, 5, 66, 0
7, 744, Note_on_c, 5, 68, 112
7, 764, Note_on_c, 5, 68, 0
7, 768, Note_on_c, 5, 71, 108
7, 788, Note_on_c, 5, 71, 0
7, 792, Note_on_c, 5, 71, 112
7, 812, Note_on_c, 5, 71, 0
7, 816, Note_on_c, 5, 71, 115
7, 836, Note_on_c, 5, 71, 0
7, 840, Note_on_c, 5, 71, 108
7, 860, Note_on_c, 5, 71, 0
7, 864, Control_c, 5, 7, 115
7, 864, Note_on_c, 5, 64, 103
7, 876, Control_c, 5, 7, 117
7, 888, Control_c, 5, 7, 118
7, 900, Control_c, 5, 7, 119
7, 912, Control_c, 5, 7, 121
7, 932, Note_on_c, 5, 64, 0
7, 936, Control_c, 5, 7, 115
7, 936, Note_on_c, 5, 68, 115
7, 938, Control_c, 5, 7, 118
7, 940, Control_c, 5, 7, 119
7, 944, Control_c, 5, 7, 121
7, 946, Note_on_c, 5, 68, 0
7, 948, Note_on_c, 5, 69, 112
7, 958, Note_on_c, 5, 69, 0
7, 960, Note_on_c, 5, 71, 108
7, 980, Note_on_c, 5, 71, 0
7, 984, Note_on_c, 5, 71, 112
7, 1004, Note_on_c, 5, 71, 0
7, 1008, Note_on_c, 5, 71, 115
7, 1028, Note_on_c, 5, 71, 0
7, 1032, Note_on_c, 5, 71, 108
7, 1052, Note_on_c, 5, 71, 0
7, 1056, Control_c, 5, 7, 115
7, 1056, Note_on_c, 5, 64, 103
7, 1068, Control_c, 5, 7, 117
7, 1080, Control_c, 5, 7, 118
7, 1092, Control_c, 5, 7, 119
7, 1104, Control_c, 5, 7, 121
7, 1124, Note_on_c, 5, 64, 0
7, 1128, Control_c, 5, 7, 115
7, 1128, Note_on_c, 5, 68, 115
7, 1130, Control_c, 5, 7, 118
7, 1132, Control_c, 5, 7, 119
7, 1136, Control_c, 5, 7, 121
7, 1138, Note_on_c, 5, 68, 0
7, 1140, Note_on_c, 5, 69, 112
7, 1150, Note_on_c, 5, 69, 0
7, 1152, Note_on_c, 5, 71, 112
7, 1172, Note_on_c, 5, 71, 0
7, 1176, Note_on_c, 5, 71, 115
7, 1196, Note_on_c, 5, 71, 0
7, 1200, Note_on_c, 5, 75, 117
7, 1220, Note_on_c, 5, 75, 0
7, 1224, Note_on_c, 5, 75, 115
7, 1244, Note_on_c, 5, 75, 0
7, 1248, Note_on_c, 5, 66, 112
7, 1293, Note_on_c, 5, 66, 0
7, 1320, Note_on_c, 5, 68, 121
7, 1340, Note_on_c, 5, 68, 0
7, 1344, Control_c, 5, 7, 115
7, 1344, Note_on_c, 5, 64, 118
7, 1350, Control_c, 5, 7, 118
7, 1356, Control_c, 5, 7, 121
7, 1362, Control_c, 5, 7, 123
7, 1389, Note_on_c, 5, 64, 0
7, 1392, Control_c, 5, 7, 115
7, 1392, Note_on_c, 5, 64, 118
7, 1398, Control_c, 5, 7, 118
7, 1404, Control_c, 5, 7, 121
7, 1410, Control_c, 5, 7, 123
7, 1437, Note_on_c, 5, 64, 0
7, 1440, Control_c, 5, 7, 115
7, 1440, Note_on_c, 5, 69, 112
7, 1443, Control_c, 5, 7, 118
7, 1446, Control_c, 5, 7, 121
7, 1452, Control_c, 5, 7, 123
7, 1460, Note_on_c, 5, 69, 0
7, 1464, Control_c, 5, 7, 115
7, 1464, Note_on_c, 5, 64, 115
7, 1470, Control_c, 5, 7, 118
7, 1476, Control_c, 5, 7, 121
7, 1482, Control_c, 5, 7, 123
7, 1509, Note_on_c, 5, 64, 0
7, 1512, Control_c, 5, 7, 115
7, 1512, Note_on_c, 5, 64, 118
7, 1515, Control_c, 5, 7, 118
7, 1518, Control_c, 5, 7, 121
7, 1524, Control_c, 5, 7, 123
7, 1532, Note_on_c, 5, 64, 0
7, 1536, Control_c, 5, 7, 115
7, 1536, Note_on_c, 5, 64, 118
7, 1542, Control_c, 5, 7, 118
7, 1548, Control_c, 5, 7, 121
7, 1554, Control_c, 5, 7, 123
7, 1581, Note_on_c, 5, 64, 0
7, 1584, Control_c, 5, 7, 115
7, 1584, Note_on_c, 5, 64, 118
7, 1590, Control_c, 5, 7, 118
7, 1596, Control_c, 5, 7, 121
7, 1602, Control_c, 5, 7, 123
7, 1629, Note_on_c, 5, 64, 0
7, 1632, Control_c, 5, 7, 115
7, 1632, Note_on_c, 5, 69, 112
7, 1635, Control_c, 5, 7, 118
7, 1638, Control_c, 5, 7, 121
7, 1644, Control_c, 5, 7, 123
7, 1652, Note_on_c, 5, 69, 0
7, 1656, Control_c, 5, 7, 115
7, 1656, Note_on_c, 5, 64, 115
7, 1662, Control_c, 5, 7, 118
7, 1668, Control_c, 5, 7, 121
7, 1674, Control_c, 5, 7, 123
7, 1701, Note_on_c, 5, 64, 0
7, 1704, Control_c, 5, 7, 115
7, 1704, Note_on_c, 5, 64, 118
7, 1707, Control_c, 5, 7, 118
7, 1710, Control_c, 5, 7, 121
7, 1716, Control_c, 5, 7, 123
7, 1724, Note_on_c, 5, 64, 0
7, 1728, Note_on_c, 5, 69, 121
7, 1748, Note_on_c, 5, 69, 0
7, 1752, Note_on_c, 5, 64, 121
7, 1797, Note_on_c, 5, 64, 0
7, 1800, Note_on_c, 5, 75, 121
7, 1820, Note_on_c, 5, 75, 0
7, 1824, Control_c, 5, 7, 115
7, 1824, Note_on_c, 5, 71, 121
7, 1836, Control_c, 5, 7, 118
7, 1848, Control_c, 5, 7, 119
7, 1860, Control_c, 5, 7, 121
7, 1869, Note_on_c, 5, 71, 0
7, 1872, Control_c, 5, 7, 115
7, 1872, Note_on_c, 5, 71, 115
7, 1884, Control_c, 5, 7, 118
7, 1896, Control_c, 5, 7, 119
7, 1908, Control_c, 5, 7, 121
7, 1917, Note_on_c, 5, 71, 0
7, 1920, Note_on_c, 5, 68, 115
7, 1965, Note_on_c, 5, 68, 0
7, 1992, Note_on_c, 5, 71, 97
7, 2012, Note_on_c, 5, 71, 0
7, 2016, Control_c, 5, 7, 115
7, 2016, Note_on_c, 5, 64, 103
7, 2028, Control_c, 5, 7, 118
7, 2040, Control_c, 5, 7, 119
7, 2052, Control_c, 5, 7, 121
7, 2061, Note_on_c, 5, 64, 0
7, 2064, Control_c, 5, 7, 115
7, 2064, Note_on_c, 5, 64, 103
7, 2076, Control_c, 5, 7, 118
7, 2088, Control_c, 5, 7, 119
7, 2100, Control_c, 5, 7, 121
7, 2109, Note_on_c, 5, 64, 0
7, 2112, Note_on_c, 5, 69, 97
7, 2132, Note_on_c, 5, 69, 0
7, 2136, Control_c, 5, 7, 115
7, 2136, Note_on_c, 5, 64, 103
7, 2148, Control_c, 5, 7, 118
7, 2160, Control_c, 5, 7, 119
7, 2172, Control_c, 5, 7, 121
7, 2181, Note_on_c, 5, 64, 0
7, 2184, Note_on_c, 5, 71, 97
7, 2204, Note_on_c, 5, 71, 0
7, 2208, Control_c, 5, 7, 115
7, 2208, Note_on_c, 5, 64, 103
7, 2220, Control_c, 5, 7, 118
7, 2232, Control_c, 5, 7, 119
7, 2244, Control_c, 5, 7, 121
7, 2253, Note_on_c, 5, 64, 0
7, 2256, Control_c, 5, 7, 115
7, 2256, Note_on_c, 5, 64, 103
7, 2268, Control_c, 5, 7, 118
7, 2280, Control_c, 5, 7, 119
7, 2292, Control_c, 5, 7, 121
7, 2301, Note_on_c, 5, 64, 0
7, 2304, Note_on_c, 5, 69, 97
7, 2324, Note_on_c, 5, 69, 0
7, 2328, Control_c, 5, 7, 115
7, 2328, Note_on_c, 5, 64, 103
7, 2340, Control_c, 5, 7, 118
7, 2352, Control_c, 5, 7, 119
7, 2364, Control_c, 5, 7, 121
7, 2373, Note_on_c, 5, 64, 0
7, 2376, Note_on_c, 5, 64, 97
7, 2396, Note_on_c, 5, 64, 0
7, 2400, Note_on_c, 5, 69, 103
7, 2420, Note_on_c, 5, 69, 0
7, 2424, Note_on_c, 5, 64, 103
7, 2436, Control_c, 5, 7, 118
7, 2448, Control_c, 5, 7, 119
7, 2460, Control_c, 5, 7, 121
7, 2469, Note_on_c, 5, 64, 0
7, 2472, Note_on_c, 5, 75, 103
7, 2492, Note_on_c, 5, 75, 0
7, 2496, Note_on_c, 5, 71, 112
7, 2541, Note_on_c, 5, 71, 0
7, 2544, Note_on_c, 5, 71, 112
7, 2589, Note_on_c, 5, 71, 0
7, 2592, Note_on_c, 5, 68, 112
7, 2637, Note_on_c, 5, 68, 0
7, 5352, Control_c, 5, 7, 123
7, 5352, Control_c, 5, 7, 115
7, 5352, Note_on_c, 5, 71, 118
7, 5355, Control_c, 5, 7, 118
7, 5358, Control_c, 5, 7, 121
7, 5364, Control_c, 5, 7, 123
7, 5372, Note_on_c, 5, 71, 0
7, 5376, Control_c, 5, 7, 115
7, 5376, Note_on_c, 5, 64, 118
7, 5382, Control_c, 5, 7, 118
7, 5388, Control_c, 5, 7, 121
7, 5394, Control_c, 5, 7, 123
7, 5421, Note_on_c, 5, 64, 0
7, 5424, Control_c, 5, 7, 117
7, 5424, Note_on_c, 5, 64, 118
7, 5430, Control_c, 5, 7, 118
7, 5436, Control_c, 5, 7, 121
7, 5442, Control_c, 5, 7, 123
7, 5469, Note_on_c, 5, 64, 0
7, 5472, Control_c, 5, 7, 115
7, 5472, Note_on_c, 5, 68, 115
7, 5475, Control_c, 5, 7, 118
7, 5478, Control_c, 5, 7, 121
7, 5484, Control_c, 5, 7, 121
7, 5492, Note_on_c, 5, 68, 0
7, 5496, Control_c, 5, 7, 115
7, 5496, Note_on_c, 5, 64, 118
7, 5502, Control_c, 5, 7, 118
7, 5508, Control_c, 5, 7, 121
7, 5514, Control_c, 5, 7, 123
7, 5541, Note_on_c, 5, 64, 0
7, 5544, Control_c, 5, 7, 115
7, 5544, Note_on_c, 5, 71, 115
7, 5547, Control_c, 5, 7, 118
7, 5550, Control_c, 5, 7, 121
7, 5556, Control_c, 5, 7, 121
7, 5564, Note_on_c, 5, 71, 0
7, 5568, Control_c, 5, 7, 115
7, 5568, Note_on_c, 5, 64, 118
7, 5574, Control_c, 5, 7, 118
7, 5580, Control_c, 5, 7, 121
7, 5586, Control_c, 5, 7, 123
7, 5613, Note_on_c, 5, 64, 0
7, 5616, Control_c, 5, 7, 115
7, 5616, Note_on_c, 5, 64, 118
7, 5622, Control_c, 5, 7, 118
7, 5628, Control_c, 5, 7, 121
7, 5634, Control_c, 5, 7, 123
7, 5661, Note_on_c, 5, 64, 0
7, 5664, Control_c, 5, 7, 115
7, 5664, Note_on_c, 5, 69, 115
7, 5667, Control_c, 5, 7, 118
7, 5670, Control_c, 5, 7, 121
7, 5676, Control_c, 5, 7, 123
7, 5684, Note_on_c, 5, 69, 0
7, 5688, Control_c, 5, 7, 115
7, 5688, Note_on_c, 5, 64, 118
7, 5694, Control_c, 5, 7, 118
7, 5700, Control_c, 5, 7, 121
7, 5706, Control_c, 5, 7, 121
7, 5733, Note_on_c, 5, 64, 0
7, 5736, Control_c, 5, 7, 115
7, 5736, Note_on_c, 5, 71, 115
7, 5739, Control_c, 5, 7, 118
7, 5742, Control_c, 5, 7, 121
7, 5748, Control_c, 5, 7, 121
7, 5756, Note_on_c, 5, 71, 0
7, 5760, Note_on_c, 5, 64, 121
7, 5805, Note_on_c, 5, 64, 0
7, 5808, Note_on_c, 5, 64, 121
7, 5828, Note_on_c, 5, 64, 0
7, 5832, Note_on_c, 5, 75, 121
7, 5852, Note_on_c, 5, 75, 0
7, 5856, Control_c, 5, 7, 121
7, 5856, Note_on_c, 5, 71, 121
7, 5868, Control_c, 5, 7, 123
7, 5880, Control_c, 5, 7, 124
7, 5892, Control_c, 5, 7, 126
7, 5901, Note_on_c, 5, 71, 0
7, 5904, Control_c, 5, 7, 121
7, 5904, Note_on_c, 5, 71, 115
7, 5916, Control_c, 5, 7, 123
7, 5928, Control_c, 5, 7, 124
7, 5940, Control_c, 5, 7, 126
7, 5949, Note_on_c, 5, 71, 0
7, 5952, Note_on_c, 5, 68, 115
7, 5972, Note_on_c, 5, 68, 0
7, 5976, Control_c, 5, 7, 121
7, 5976, Note_on_c, 5, 59, 108
7, 5996, Note_on_c, 5, 59, 0
7, 6000, Note_on_c, 5, 59, 108
7, 6020, Note_on_c, 5, 59, 0
7, 6024, Note_on_c, 5, 59, 108
7, 6044, Note_on_c, 5, 59, 0
7, 6048, Note_on_c, 5, 59, 108
7, 6068, Note_on_c, 5, 59, 0
7, 6072, Note_on_c, 5, 59, 112
7, 6092, Note_on_c, 5, 59, 0
7, 6096, Note_on_c, 5, 59, 108
7, 6116, Note_on_c, 5, 59, 0
7, 6120, Note_on_c, 5, 59, 112
7, 6140, Note_on_c, 5, 59, 0
7, 6144, Note_on_c, 5, 59, 108
7, 6164, Note_on_c, 5, 59, 0
7, 6168, Note_on_c, 5, 59, 112
7, 6188, Note_on_c, 5, 59, 0
7, 6192, Note_on_c, 5, 59, 108
7, 6212, Note_on_c, 5, 59, 0
7, 6216, Note_on_c, 5, 59, 112
7, 6236, Note_on_c, 5, 59, 0
7, 6240, Note_on_c, 5, 59, 108
7, 6260, Note_on_c, 5, 59, 0
7, 6264, Note_on_c, 5, 59, 112
7, 6284, Note_on_c, 5, 59, 0
7, 6288, Note_on_c, 5, 59, 108
7, 6308, Note_on_c, 5, 59, 0
7, 6312, Note_on_c, 5, 59, 112
7, 6332, Note_on_c, 5, 59, 0
7, 6336, Note_on_c, 5, 59, 108
7, 6356, Note_on_c, 5, 59, 0
7, 6360, Note_on_c, 5, 66, 112
7, 6380, Note_on_c, 5, 66, 0
7, 6384, Note_on_c, 5, 66, 108
7, 6404, Note_on_c, 5, 66, 0
7, 6408, Note_on_c, 5, 66, 112
7, 6428, Note_on_c, 5, 66, 0
7, 6432, Note_on_c, 5, 66, 108
7, 6452, Note_on_c, 5, 66, 0
7, 6456, Note_on_c, 5, 66, 112
7, 6476, Note_on_c, 5, 66, 0
7, 6480, Note_on_c, 5, 66, 108
7, 6500, Note_on_c, 5, 66, 0
7, 6504, Note_on_c, 5, 66, 112
7, 6524, Note_on_c, 5, 66, 0
7, 6528, Note_on_c, 5, 66, 108
7, 6548, Note_on_c, 5, 66, 0
7, 6552, Note_on_c, 5, 66, 112
7, 6572, Note_on_c, 5, 66, 0
7, 6576, Note_on_c, 5, 66, 108
7, 6596, Note_on_c, 5, 66, 0
7, 6600, Note_on_c, 5, 66, 112
7, 6620, Note_on_c, 5, 66, 0
7, 6624, Note_on_c, 5, 63, 108
7, 6644, Note_on_c, 5, 63, 0
7, 6648, Note_on_c, 5, 63, 112
7, 6668, Note_on_c, 5, 63, 0
7, 6672, Note_on_c, 5, 63, 108
7, 6692, Note_on_c, 5, 63, 0
7, 6696, Note_on_c, 5, 63, 112
7, 6716, Note_on_c, 5, 63, 0
7, 6720, Note_on_c, 5, 59, 108
7, 6740, Note_on_c, 5, 59, 0
7, 6744, Note_on_c, 5, 59, 112
7, 6764, Note_on_c, 5, 59, 0
7, 6768, Note_on_c, 5, 59, 108
7, 6788, Note_on_c, 5, 59, 0
7, 6792, Note_on_c, 5, 59, 112
7, 6812, Note_on_c, 5, 59, 0
7, 6816, Note_on_c, 5, 59, 108
7, 6836, Note_on_c, 5, 59, 0
7, 6840, Note_on_c, 5, 59, 112
7, 6860, Note_on_c, 5, 59, 0
7, 6864, Note_on_c, 5, 59, 108
7, 6884, Note_on_c, 5, 59, 0
7, 6888, Note_on_c, 5, 59, 112
7, 6908, Note_on_c, 5, 59, 0
7, 6912, Note_on_c, 5, 59, 108
7, 6932, Note_on_c, 5, 59, 0
7, 6936, Note_on_c, 5, 59, 112
7, 6956, Note_on_c, 5, 59, 0
7, 6960, Note_on_c, 5, 59, 108
7, 6980, Note_on_c, 5, 59, 0
7, 6984, Note_on_c, 5, 59, 112
7, 7004, Note_on_c, 5, 59, 0
7, 7008, Note_on_c, 5, 59, 108
7, 7028, Note_on_c, 5, 59, 0
7, 7032, Note_on_c, 5, 59, 112
7, 7052, Note_on_c, 5, 59, 0
7, 7056, Note_on_c, 5, 59, 108
7, 7076, Note_on_c, 5, 59, 0
7, 7080, Note_on_c, 5, 59, 112
7, 7100, Note_on_c, 5, 59, 0
7, 7104, Note_on_c, 5, 59, 112
7, 7678, Note_on_c, 5, 59, 0
7, 7680, Control_c, 5, 7, 112
7, 7680, Note_on_c, 5, 59, 112
7, 7692, Control_c, 5, 7, 118
7, 7704, Control_c, 5, 7, 121
7, 7716, Control_c, 5, 7, 124
7, 7774, Note_on_c, 5, 59, 0
7, 7776, Control_c, 5, 7, 112
7, 7776, Note_on_c, 5, 59, 112
7, 7782, Control_c, 5, 7, 118
7, 7788, Control_c, 5, 7, 121
7, 7794, Control_c, 5, 7, 124
7, 7821, Note_on_c, 5, 59, 0
7, 7824, Control_c, 5, 7, 118
7, 7848, Control_c, 5, 7, 126
7, 7848, Control_c, 5, 7, 118
7, 7848, Note_on_c, 5, 66, 121
7, 7851, Control_c, 5, 7, 121
7, 7854, Control_c, 5, 7, 123
7, 7860, Control_c, 5, 7, 126
7, 7868, Note_on_c, 5, 66, 0
7, 7872, Note_on_c, 5, 59, 121
7, 7917, Note_on_c, 5, 59, 0
7, 7920, Note_on_c, 5, 59, 121
7, 7965, Note_on_c, 5, 59, 0
7, 7968, Control_c, 5, 7, 118
7, 7968, Note_on_c, 5, 64, 118
7, 7971, Control_c, 5, 7, 121
7, 7974, Control_c, 5, 7, 123
7, 7980, Control_c, 5, 7, 126
7, 7988, Note_on_c, 5, 64, 0
7, 7992, Note_on_c, 5, 59, 118
7, 8037, Note_on_c, 5, 59, 0
7, 8040, Note_on_c, 5, 66, 118
7, 8060, Note_on_c, 5, 66, 0
7, 8064, Note_on_c, 5, 59, 121
7, 8109, Note_on_c, 5, 59, 0
7, 8112, Note_on_c, 5, 59, 121
7, 8157, Note_on_c, 5, 59, 0
7, 8160, Control_c, 5, 7, 118
7, 8160, Note_on_c, 5, 64, 118
7, 8163, Control_c, 5, 7, 121
7, 8166, Control_c, 5, 7, 123
7, 8172, Control_c, 5, 7, 126
7, 8180, Note_on_c, 5, 64, 0
7, 8184, Note_on_c, 5, 59, 118
7, 8229, Note_on_c, 5, 59, 0
7, 8232, Note_on_c, 5, 66, 118
7, 8252, Note_on_c, 5, 66, 0
7, 8256, Note_on_c, 5, 64, 121
7, 8276, Note_on_c, 5, 64, 0
7, 8280, Note_on_c, 5, 59, 121
7, 8300, Note_on_c, 5, 59, 0
7, 8304, Note_on_c, 5, 63, 121
7, 8324, Note_on_c, 5, 63, 0
7, 8328, Note_on_c, 5, 70, 121
7, 8348, Note_on_c, 5, 70, 0
7, 8352, Control_c, 5, 7, 121
7, 8352, Note_on_c, 5, 66, 121
7, 8364, Control_c, 5, 7, 123
7, 8376, Control_c, 5, 7, 124
7, 8388, Control_c, 5, 7, 126
7, 8397, Note_on_c, 5, 66, 0
7, 8400, Control_c, 5, 7, 121
7, 8400, Note_on_c, 5, 66, 115
7, 8412, Control_c, 5, 7, 123
7, 8424, Control_c, 5, 7, 124
7, 8436, Control_c, 5, 7, 126
7, 8445, Note_on_c, 5, 66, 0
7, 8448, Note_on_c, 5, 63, 118
7, 8454, Note_on_c, 5, 63, 0
7, 8454, Control_c, 5, 11, 100
7, 8454, Note_on_c, 5, 59, 121
7, 8458, Note_on_c, 5, 59, 0
7, 8460, Note_on_c, 5, 59, 121
7, 8464, Note_on_c, 5, 59, 0
7, 8466, Note_on_c, 5, 59, 122
7, 8470, Note_on_c, 5, 59, 0
7, 8472, Note_on_c, 5, 59, 122
7, 8476, Note_on_c, 5, 59, 0
7, 8478, Note_on_c, 5, 59, 122
7, 8482, Note_on_c, 5, 59, 0
7, 8484, Note_on_c, 5, 59, 122
7, 8488, Note_on_c, 5, 59, 0
7, 8490, Note_on_c, 5, 59, 123
7, 8494, Note_on_c, 5, 59, 0
7, 8496, Control_c, 5, 11, 110
7, 8496, Note_on_c, 5, 59, 123
7, 8500, Note_on_c, 5, 59, 0
7, 8502, Note_on_c, 5, 59, 123
7, 8506, Note_on_c, 5, 59, 0
7, 8508, Note_on_c, 5, 59, 123
7, 8512, Note_on_c, 5, 59, 0
7, 8514, Note_on_c, 5, 59, 123
7, 8518, Note_on_c, 5, 59, 0
7, 8520, Note_on_c, 5, 59, 123
7, 8524, Note_on_c, 5, 59, 0
7, 8526, Note_on_c, 5, 59, 124
7, 8530, Note_on_c, 5, 59, 0
7, 8532, Note_on_c, 5, 59, 124
7, 8536, Note_on_c, 5, 59, 0
7, 8538, Note_on_c, 5, 59, 124
7, 8542, Note_on_c, 5, 59, 0
7, 8544, Control_c, 5, 11, 115
7, 8544, Note_on_c, 5, 59, 124
7, 8548, Note_on_c, 5, 59, 0
7, 8550, Note_on_c, 5, 59, 124
7, 8554, Note_on_c, 5, 59, 0
7, 8556, Note_on_c, 5, 59, 124
7, 8560, Note_on_c, 5, 59, 0
7, 8562, Note_on_c, 5, 59, 124
7, 8566, Note_on_c, 5, 59, 0
7, 8568, Note_on_c, 5, 59, 126
7, 8572, Note_on_c, 5, 59, 0
7, 8574, Note_on_c, 5, 59, 126
7, 8578, Note_on_c, 5, 59, 0
7, 8580, Note_on_c, 5, 59, 126
7, 8584, Note_on_c, 5, 59, 0
7, 8586, Note_on_c, 5, 59, 126
7, 8590, Note_on_c, 5, 59, 0
7, 8592, Control_c, 5, 11, 120
7, 8592, Note_on_c, 5, 59, 126
7, 8596, Note_on_c, 5, 59, 0
7, 8598, Note_on_c, 5, 59, 126
7, 8602, Note_on_c, 5, 59, 0
7, 8604, Note_on_c, 5, 59, 126
7, 8608, Note_on_c, 5, 59, 0
7, 8610, Note_on_c, 5, 59, 127
7, 8614, Note_on_c, 5, 59, 0
7, 8616, Note_on_c, 5, 59, 127
7, 8620, Note_on_c, 5, 59, 0
7, 8622, Note_on_c, 5, 59, 127
7, 8626, Note_on_c, 5, 59, 0
7, 8628, Note_on_c, 5, 59, 127
7, 8632, Note_on_c, 5, 59, 0
7, 8634, Note_on_c, 5, 59, 127
7, 8638, Note_on_c, 5, 59, 0
7, 8640, Note_on_c, 5, 59, 121
7, 8655, Note_on_c, 5, 59, 0
7, 8688, Note_on_c, 5, 59, 121
7, 8703, Note_on_c, 5, 59, 0
7, 8736, Note_on_c, 5, 59, 121
7, 8751, Note_on_c, 5, 59, 0
7, 8784, Note_on_c, 5, 59, 121
7, 8799, Note_on_c, 5, 59, 0
7, 8832, Control_c, 5, 11, 100
7, 8832, Note_on_c, 5, 59, 126
7, 8837, Note_on_c, 5, 59, 0
7, 8838, Note_on_c, 5, 59, 121
7, 8843, Note_on_c, 5, 59, 0
7, 8844, Note_on_c, 5, 59, 121
7, 8849, Note_on_c, 5, 59, 0
7, 8850, Note_on_c, 5, 59, 122
7, 8855, Note_on_c, 5, 59, 0
7, 8856, Note_on_c, 5, 59, 122
7, 8861, Note_on_c, 5, 59, 0
7, 8862, Note_on_c, 5, 59, 122
7, 8867, Note_on_c, 5, 59, 0
7, 8868, Note_on_c, 5, 59, 122
7, 8873, Note_on_c, 5, 59, 0
7, 8874, Note_on_c, 5, 59, 123
7, 8879, Note_on_c, 5, 59, 0
7, 8880, Control_c, 5, 11, 110
7, 8880, Note_on_c, 5, 59, 123
7, 8885, Note_on_c, 5, 59, 0
7, 8886, Note_on_c, 5, 59, 123
7, 8891, Note_on_c, 5, 59, 0
7, 8892, Note_on_c, 5, 59, 123
7, 8897, Note_on_c, 5, 59, 0
7, 8898, Note_on_c, 5, 59, 123
7, 8903, Note_on_c, 5, 59, 0
7, 8904, Note_on_c, 5, 59, 123
7, 8909, Note_on_c, 5, 59, 0
7, 8910, Note_on_c, 5, 59, 124
7, 8915, Note_on_c, 5, 59, 0
7, 8916, Note_on_c, 5, 59, 124
7, 8921, Note_on_c, 5, 59, 0
7, 8922, Note_on_c, 5, 59, 124
7, 8927, Note_on_c, 5, 59, 0
7, 8928, Control_c, 5, 11, 115
7, 8928, Note_on_c, 5, 57, 124
7, 8933, Note_on_c, 5, 57, 0
7, 8934, Note_on_c, 5, 57, 124
7, 8939, Note_on_c, 5, 57, 0
7, 8940, Note_on_c, 5, 57, 124
7, 8945, Note_on_c, 5, 57, 0
7, 8946, Note_on_c, 5, 57, 124
7, 8951, Note_on_c, 5, 57, 0
7, 8952, Note_on_c, 5, 57, 126
7, 8957, Note_on_c, 5, 57, 0
7, 8958, Note_on_c, 5, 57, 126
7, 8963, Note_on_c, 5, 57, 0
7, 8964, Note_on_c, 5, 57, 126
7, 8969, Note_on_c, 5, 57, 0
7, 8970, Note_on_c, 5, 57, 126
7, 8975, Note_on_c, 5, 57, 0
7, 8976, Control_c, 5, 11, 120
7, 8976, Note_on_c, 5, 57, 126
7, 8981, Note_on_c, 5, 57, 0
7, 8982, Note_on_c, 5, 57, 126
7, 8987, Note_on_c, 5, 57, 0
7, 8988, Note_on_c, 5, 57, 126
7, 8993, Note_on_c, 5, 57, 0
7, 8994, Note_on_c, 5, 57, 127
7, 8999, Note_on_c, 5, 57, 0
7, 9000, Note_on_c, 5, 57, 127
7, 9005, Note_on_c, 5, 57, 0
7, 9006, Note_on_c, 5, 57, 127
7, 9011, Note_on_c, 5, 57, 0
7, 9012, Note_on_c, 5, 57, 127
7, 9017, Note_on_c, 5, 57, 0
7, 9018, Note_on_c, 5, 57, 127
7, 9023, Note_on_c, 5, 57, 0
7, 9024, Note_on_c, 5, 56, 123
7, 9069, Note_on_c, 5, 56, 0
7, 9216, Program_c, 5, 49
7, 9216, Control_c, 5, 11, 100
7, 9216, Note_on_c, 5, 57, 126
7, 9221, Note_on_c, 5, 57, 0
7, 9222, Note_on_c, 5, 57, 121
7, 9227, Note_on_c, 5, 57, 0
7, 9228, Note_on_c, 5, 57, 121
7, 9233, Note_on_c, 5, 57, 0
7, 9234, Note_on_c, 5, 57, 122
7, 9239, Note_on_c, 5, 57, 0
7, 9240, Note_on_c, 5, 57, 122
7, 9245, Note_on_c, 5, 57, 0
7, 9246, Note_on_c, 5, 57, 122
7, 9251, Note_on_c, 5, 57, 0
7, 9252, Note_on_c, 5, 57, 122
7, 9257, Note_on_c, 5, 57, 0
7, 9258, Note_on_c, 5, 57, 123
7, 9263, Note_on_c, 5, 57, 0
7, 9264, Control_c, 5, 11, 110
7, 9264, Note_on_c, 5, 57, 123
7, 9269, Note_on_c, 5, 57, 0
7, 9270, Note_on_c, 5, 57, 123
7, 9275, Note_on_c, 5, 57, 0
7, 9276, Note_on_c, 5, 57, 123
7, 9281, Note_on_c, 5, 57, 0
7, 9282, Note_on_c, 5, 57, 123
7, 9287, Note_on_c, 5, 57, 0
7, 9288, Note_on_c, 5, 57, 123
7, 9293, Note_on_c, 5, 57, 0
7, 9294, Note_on_c, 5, 57, 124
7, 9299, Note_on_c, 5, 57, 0
7, 9300, Note_on_c, 5, 57, 124
7, 9305, Note_on_c, 5, 57, 0
7, 9306, Note_on_c, 5, 57, 124
7, 9311, Note_on_c, 5, 57, 0
7, 9312, Note_on_c, 5, 58, 127
7, 9352, Note_on_c, 5, 58, 0
7, 9504, Control_c, 5, 11, 100
7, 9504, Note_on_c, 5, 59, 126
7, 9509, Note_on_c, 5, 59, 0
7, 9510, Note_on_c, 5, 59, 121
7, 9515, Note_on_c, 5, 59, 0
7, 9516, Note_on_c, 5, 59, 121
7, 9521, Note_on_c, 5, 59, 0
7, 9522, Note_on_c, 5, 59, 122
7, 9527, Note_on_c, 5, 59, 0
7, 9528, Note_on_c, 5, 59, 122
7, 9533, Note_on_c, 5, 59, 0
7, 9534, Note_on_c, 5, 59, 122
7, 9539, Note_on_c, 5, 59, 0
7, 9540, Note_on_c, 5, 59, 122
7, 9545, Note_on_c, 5, 59, 0
7, 9546, Note_on_c, 5, 59, 123
7, 9551, Note_on_c, 5, 59, 0
7, 9552, Control_c, 5, 11, 110
7, 9552, Note_on_c, 5, 59, 123
7, 9557, Note_on_c, 5, 59, 0
7, 9558, Note_on_c, 5, 59, 123
7, 9563, Note_on_c, 5, 59, 0
7, 9564, Note_on_c, 5, 59, 123
7, 9569, Note_on_c, 5, 59, 0
7, 9570, Note_on_c, 5, 59, 123
7, 9575, Note_on_c, 5, 59, 0
7, 9576, Note_on_c, 5, 59, 123
7, 9581, Note_on_c, 5, 59, 0
7, 9582, Note_on_c, 5, 59, 124
7, 9587, Note_on_c, 5, 59, 0
7, 9588, Note_on_c, 5, 59, 124
7, 9593, Note_on_c, 5, 59, 0
7, 9594, Note_on_c, 5, 59, 124
7, 9599, Note_on_c, 5, 59, 0
7, 9600, Note_on_c, 5, 60, 127
7, 9645, Note_on_c, 5, 60, 0
7, 9792, Control_c, 5, 11, 100
7, 9792, Note_on_c, 5, 61, 126
7, 9797, Note_on_c, 5, 61, 0
7, 9798, Note_on_c, 5, 61, 121
7, 9803, Note_on_c, 5, 61, 0
7, 9804, Note_on_c, 5, 61, 121
7, 9809, Note_on_c, 5, 61, 0
7, 9810, Note_on_c, 5, 61, 122
7, 9815, Note_on_c, 5, 61, 0
7, 9816, Note_on_c, 5, 61, 122
7, 9821, Note_on_c, 5, 61, 0
7, 9822, Note_on_c, 5, 61, 122
7, 9827, Note_on_c, 5, 61, 0
7, 9828, Note_on_c, 5, 61, 122
7, 9833, Note_on_c, 5, 61, 0
7, 9834, Note_on_c, 5, 61, 123
7, 9839, Note_on_c, 5, 61, 0
7, 9840, Control_c, 5, 11, 110
7, 9840, Note_on_c, 5, 61, 123
7, 9845, Note_on_c, 5, 61, 0
7, 9846, Note_on_c, 5, 61, 123
7, 9851, Note_on_c, 5, 61, 0
7, 9852, Note_on_c, 5, 61, 123
7, 9857, Note_on_c, 5, 61, 0
7, 9858, Note_on_c, 5, 61, 123
7, 9863, Note_on_c, 5, 61, 0
7, 9864, Note_on_c, 5, 61, 123
7, 9869, Note_on_c, 5, 61, 0
7, 9870, Note_on_c, 5, 61, 124
7, 9875, Note_on_c, 5, 61, 0
7, 9876, Note_on_c, 5, 61, 124
7, 9881, Note_on_c, 5, 61, 0
7, 9882, Note_on_c, 5, 61, 124
7, 9887, Note_on_c, 5, 61, 0
7, 9888, Note_on_c, 5, 61, 127
7, 9928, Note_on_c, 5, 61, 0
7, 9984, Control_c, 5, 11, 100
7, 9984, Note_on_c, 5, 59, 126
7, 9989, Note_on_c, 5, 59, 0
7, 9990, Note_on_c, 5, 59, 121
7, 9995, Note_on_c, 5, 59, 0
7, 9996, Note_on_c, 5, 59, 121
7, 10001, Note_on_c, 5, 59, 0
7, 10002, Note_on_c, 5, 59, 122
7, 10007, Note_on_c, 5, 59, 0
7, 10008, Note_on_c, 5, 59, 122
7, 10013, Note_on_c, 5, 59, 0
7, 10014, Note_on_c, 5, 59, 122
7, 10019, Note_on_c, 5, 59, 0
7, 10020, Note_on_c, 5, 59, 122
7, 10025, Note_on_c, 5, 59, 0
7, 10026, Note_on_c, 5, 59, 123
7, 10031, Note_on_c, 5, 59, 0
7, 10032, Control_c, 5, 11, 110
7, 10032, Note_on_c, 5, 59, 123
7, 10037, Note_on_c, 5, 59, 0
7, 10038, Note_on_c, 5, 59, 123
7, 10043, Note_on_c, 5, 59, 0
7, 10044, Note_on_c, 5, 59, 123
7, 10049, Note_on_c, 5, 59, 0
7, 10050, Note_on_c, 5, 59, 123
7, 10055, Note_on_c, 5, 59, 0
7, 10056, Note_on_c, 5, 59, 123
7, 10061, Note_on_c, 5, 59, 0
7, 10062, Note_on_c, 5, 59, 124
7, 10067, Note_on_c, 5, 59, 0
7, 10068, Note_on_c, 5, 59, 124
7, 10073, Note_on_c, 5, 59, 0
7, 10074, Note_on_c, 5, 59, 124
7, 10079, Note_on_c, 5, 59, 0
7, 10080, Note_on_c, 5, 57, 127
7, 10120, Note_on_c, 5, 57, 0
7, 10176, Control_c, 5, 11, 100
7, 10176, Note_on_c, 5, 68, 126
7, 10181, Note_on_c, 5, 68, 0
7, 10182, Note_on_c, 5, 68, 121
7, 10187, Note_on_c, 5, 68, 0
7, 10188, Note_on_c, 5, 68, 121
7, 10193, Note_on_c, 5, 68, 0
7, 10194, Note_on_c, 5, 68, 122
7, 10199, Note_on_c, 5, 68, 0
7, 10200, Note_on_c, 5, 68, 122
7, 10205, Note_on_c, 5, 68, 0
7, 10206, Note_on_c, 5, 68, 122
7, 10211, Note_on_c, 5, 68, 0
7, 10212, Note_on_c, 5, 68, 122
7, 10217, Note_on_c, 5, 68, 0
7, 10218, Note_on_c, 5, 68, 123
7, 10223, Note_on_c, 5, 68, 0
7, 10224, Control_c, 5, 11, 110
7, 10224, Note_on_c, 5, 68, 123
7, 10229, Note_on_c, 5, 68, 0
7, 10230, Note_on_c, 5, 68, 123
7, 10235, Note_on_c, 5, 68, 0
7, 10236, Note_on_c, 5, 68, 123
7, 10241, Note_on_c, 5, 68, 0
7, 10242, Note_on_c, 5, 68, 123
7, 10247, Note_on_c, 5, 68, 0
7, 10248, Note_on_c, 5, 68, 123
7, 10253, Note_on_c, 5, 68, 0
7, 10254, Note_on_c, 5, 68, 124
7, 10259, Note_on_c, 5, 68, 0
7, 10260, Note_on_c, 5, 68, 124
7, 10265, Note_on_c, 5, 68, 0
7, 10266, Note_on_c, 5, 68, 124
7, 10271, Note_on_c, 5, 68, 0
7, 10272, Note_on_c, 5, 66, 127
7, 10312, Note_on_c, 5, 66, 0
7, 10368, Control_c, 5, 11, 100
7, 10368, Note_on_c, 5, 64, 126
7, 10373, Note_on_c, 5, 64, 0
7, 10374, Note_on_c, 5, 64, 121
7, 10379, Note_on_c, 5, 64, 0
7, 10380, Note_on_c, 5, 64, 121
7, 10385, Note_on_c, 5, 64, 0
7, 10386, Note_on_c, 5, 64, 122
7, 10391, Note_on_c, 5, 64, 0
7, 10392, Note_on_c, 5, 64, 122
7, 10397, Note_on_c, 5, 64, 0
7, 10398, Note_on_c, 5, 64, 122
7, 10403, Note_on_c, 5, 64, 0
7, 10404, Note_on_c, 5, 64, 122
7, 10409, Note_on_c, 5, 64, 0
7, 10410, Note_on_c, 5, 64, 123
7, 10415, Note_on_c, 5, 64, 0
7, 10416, Control_c, 5, 11, 110
7, 10416, Note_on_c, 5, 61, 123
7, 10421, Note_on_c, 5, 61, 0
7, 10422, Note_on_c, 5, 61, 123
7, 10427, Note_on_c, 5, 61, 0
7, 10428, Note_on_c, 5, 61, 123
7, 10433, Note_on_c, 5, 61, 0
7, 10434, Note_on_c, 5, 61, 123
7, 10439, Note_on_c, 5, 61, 0
7, 10440, Note_on_c, 5, 61, 123
7, 10445, Note_on_c, 5, 61, 0
7, 10446, Note_on_c, 5, 61, 124
7, 10451, Note_on_c, 5, 61, 0
7, 10452, Note_on_c, 5, 61, 124
7, 10457, Note_on_c, 5, 61, 0
7, 10458, Note_on_c, 5, 61, 124
7, 10463, Note_on_c, 5, 61, 0
7, 10464, Control_c, 5, 11, 115
7, 10464, Note_on_c, 5, 56, 124
7, 10469, Note_on_c, 5, 56, 0
7, 10470, Note_on_c, 5, 56, 124
7, 10475, Note_on_c, 5, 56, 0
7, 10476, Note_on_c, 5, 56, 124
7, 10481, Note_on_c, 5, 56, 0
7, 10482, Note_on_c, 5, 56, 124
7, 10487, Note_on_c, 5, 56, 0
7, 10488, Note_on_c, 5, 56, 126
7, 10493, Note_on_c, 5, 56, 0
7, 10494, Note_on_c, 5, 56, 126
7, 10499, Note_on_c, 5, 56, 0
7, 10500, Note_on_c, 5, 56, 126
7, 10505, Note_on_c, 5, 56, 0
7, 10506, Note_on_c, 5, 56, 126
7, 10511, Note_on_c, 5, 56, 0
7, 10512, Control_c, 5, 11, 120
7, 10512, Note_on_c, 5, 56, 126
7, 10517, Note_on_c, 5, 56, 0
7, 10518, Note_on_c, 5, 56, 126
7, 10523, Note_on_c, 5, 56, 0
7, 10524, Note_on_c, 5, 56, 126
7, 10529, Note_on_c, 5, 56, 0
7, 10530, Note_on_c, 5, 56, 127
7, 10535, Note_on_c, 5, 56, 0
7, 10536, Note_on_c, 5, 56, 127
7, 10541, Note_on_c, 5, 56, 0
7, 10542, Note_on_c, 5, 56, 127
7, 10547, Note_on_c, 5, 56, 0
7, 10548, Note_on_c, 5, 56, 127
7, 10553, Note_on_c, 5, 56, 0
7, 10554, Note_on_c, 5, 56, 127
7, 10559, Note_on_c, 5, 56, 0
7, 10560, Control_c, 5, 11, 100
7, 10560, Note_on_c, 5, 56, 126
7, 10565, Note_on_c, 5, 56, 0
7, 10566, Note_on_c, 5, 56, 121
7, 10571, Note_on_c, 5, 56, 0
7, 10572, Note_on_c, 5, 56, 121
7, 10577, Note_on_c, 5, 56, 0
7, 10578, Note_on_c, 5, 56, 122
7, 10583, Note_on_c, 5, 56, 0
7, 10584, Note_on_c, 5, 56, 122
7, 10589, Note_on_c, 5, 56, 0
7, 10590, Note_on_c, 5, 56, 122
7, 10595, Note_on_c, 5, 56, 0
7, 10596, Note_on_c, 5, 56, 122
7, 10601, Note_on_c, 5, 56, 0
7, 10602, Note_on_c, 5, 56, 123
7, 10607, Note_on_c, 5, 56, 0
7, 10608, Control_c, 5, 11, 110
7, 10608, Note_on_c, 5, 56, 123
7, 10613, Note_on_c, 5, 56, 0
7, 10614, Note_on_c, 5, 56, 123
7, 10619, Note_on_c, 5, 56, 0
7, 10620, Note_on_c, 5, 56, 123
7, 10625, Note_on_c, 5, 56, 0
7, 10626, Note_on_c, 5, 56, 123
7, 10631, Note_on_c, 5, 56, 0
7, 10632, Note_on_c, 5, 56, 123
7, 10637, Note_on_c, 5, 56, 0
7, 10638, Note_on_c, 5, 56, 124
7, 10643, Note_on_c, 5, 56, 0
7, 10644, Note_on_c, 5, 56, 124
7, 10649, Note_on_c, 5, 56, 0
7, 10650, Note_on_c, 5, 56, 124
7, 10655, Note_on_c, 5, 56, 0
7, 10656, Control_c, 5, 1, 30
7, 10656, Note_on_c, 5, 61, 127
7, 10696, Note_on_c, 5, 61, 0
7, 10728, Program_c, 5, 40
7, 10728, Note_on_c, 5, 68, 121
7, 10748, Note_on_c, 5, 68, 0
7, 10752, Note_on_c, 5, 61, 121
7, 10797, Note_on_c, 5, 61, 0
7, 10800, Note_on_c, 5, 61, 121
7, 10845, Note_on_c, 5, 61, 0
7, 10848, Note_on_c, 5, 66, 118
7, 10868, Note_on_c, 5, 66, 0
7, 10872, Note_on_c, 5, 61, 121
7, 10917, Note_on_c, 5, 61, 0
7, 10920, Note_on_c, 5, 68, 118
7, 10940, Note_on_c, 5, 68, 0
7, 10944, Note_on_c, 5, 61, 121
7, 10989, Note_on_c, 5, 61, 0
7, 10992, Note_on_c, 5, 61, 121
7, 11037, Note_on_c, 5, 61, 0
7, 11040, Note_on_c, 5, 66, 118
7, 11060, Note_on_c, 5, 66, 0
7, 11064, Note_on_c, 5, 61, 121
7, 11109, Note_on_c, 5, 61, 0
7, 11112, Note_on_c, 5, 68, 118
7, 11132, Note_on_c, 5, 68, 0
7, 11136, Note_on_c, 5, 66, 121
7, 11156, Note_on_c, 5, 66, 0
7, 11160, Note_on_c, 5, 61, 121
7, 11180, Note_on_c, 5, 61, 0
7, 11184, Note_on_c, 5, 66, 121
7, 11204, Note_on_c, 5, 66, 0
7, 11208, Note_on_c, 5, 73, 121
7, 11228, Note_on_c, 5, 73, 0
7, 11232, Note_on_c, 5, 68, 121
7, 11244, Control_c, 5, 7, 118
7, 11256, Control_c, 5, 7, 119
7, 11268, Control_c, 5, 7, 121
7, 11277, Note_on_c, 5, 68, 0
7, 11280, Control_c, 5, 7, 115
7, 11280, Note_on_c, 5, 68, 115
7, 11292, Control_c, 5, 7, 118
7, 11304, Control_c, 5, 7, 119
7, 11316, Control_c, 5, 7, 121
7, 11325, Note_on_c, 5, 68, 0
7, 11328, Note_on_c, 5, 61, 122
7, 11373, Note_on_c, 5, 61, 0
7, 12096, Control_c, 5, 7, 117
7, 12096, Note_on_c, 5, 76, 121
7, 12156, Note_on_c, 5, 76, 0
7, 12156, Note_on_c, 5, 78, 123
7, 12168, Note_on_c, 5, 78, 0
7, 12168, Note_on_c, 5, 76, 121
7, 12180, Note_on_c, 5, 76, 0
7, 12180, Note_on_c, 5, 78, 123
7, 12192, Note_on_c, 5, 78, 0
7, 12192, Note_on_c, 5, 76, 121
7, 12252, Note_on_c, 5, 76, 0
7, 12252, Note_on_c, 5, 78, 121
7, 12264, Note_on_c, 5, 78, 0
7, 12264, Note_on_c, 5, 76, 123
7, 12276, Note_on_c, 5, 76, 0
7, 12276, Note_on_c, 5, 78, 121
7, 12288, Note_on_c, 5, 78, 0
7, 12288, Note_on_c, 5, 76, 123
7, 12294, Note_on_c, 5, 76, 0
7, 12294, Note_on_c, 5, 78, 122
7, 12300, Note_on_c, 5, 78, 0
7, 12300, Note_on_c, 5, 76, 121
7, 12306, Note_on_c, 5, 76, 0
7, 12306, Note_on_c, 5, 78, 119
7, 12312, Note_on_c, 5, 78, 0
7, 12312, Note_on_c, 5, 76, 118
7, 12318, Note_on_c, 5, 76, 0
7, 12318, Note_on_c, 5, 78, 117
7, 12324, Note_on_c, 5, 78, 0
7, 12324, Note_on_c, 5, 76, 115
7, 12330, Note_on_c, 5, 76, 0
7, 12330, Note_on_c, 5, 78, 113
7, 12336, Note_on_c, 5, 78, 0
7, 12336, Note_on_c, 5, 76, 112
7, 12342, Note_on_c, 5, 76, 0
7, 12342, Note_on_c, 5, 78, 110
7, 12348, Note_on_c, 5, 78, 0
7, 12348, Note_on_c, 5, 76, 108
7, 12354, Note_on_c, 5, 76, 0
7, 12354, Note_on_c, 5, 78, 105
7, 12360, Note_on_c, 5, 78, 0
7, 12360, Note_on_c, 5, 76, 103
7, 12366, Note_on_c, 5, 76, 0
7, 12366, Note_on_c, 5, 78, 100
7, 12372, Note_on_c, 5, 78, 0
7, 12372, Note_on_c, 5, 76, 97
7, 12378, Note_on_c, 5, 76, 0
7, 12378, Note_on_c, 5, 78, 94
7, 12384, Note_on_c, 5, 78, 0
7, 12384, Note_on_c, 5, 76, 118
7, 12396, Note_on_c, 5, 76, 0
7, 12396, Note_on_c, 5, 78, 121
7, 12408, Note_on_c, 5, 78, 0
7, 12408, Note_on_c, 5, 76, 118
7, 12420, Note_on_c, 5, 76, 0
7, 12420, Note_on_c, 5, 78, 121
7, 12432, Note_on_c, 5, 78, 0
7, 12432, Note_on_c, 5, 76, 118
7, 12444, Note_on_c, 5, 76, 0
7, 12444, Note_on_c, 5, 78, 121
7, 12456, Note_on_c, 5, 78, 0
7, 12456, Note_on_c, 5, 76, 118
7, 12468, Note_on_c, 5, 76, 0
7, 12468, Note_on_c, 5, 78, 121
7, 12480, Note_on_c, 5, 78, 0
7, 12480, Note_on_c, 5, 76, 123
7, 12486, Note_on_c, 5, 76, 0
7, 12486, Note_on_c, 5, 78, 122
7, 12492, Note_on_c, 5, 78, 0
7, 12492, Note_on_c, 5, 76, 121
7, 12498, Note_on_c, 5, 76, 0
7, 12498, Note_on_c, 5, 78, 119
7, 12504, Note_on_c, 5, 78, 0
7, 12504, Note_on_c, 5, 76, 118
7, 12510, Note_on_c, 5, 76, 0
7, 12510, Note_on_c, 5, 78, 117
7, 12516, Note_on_c, 5, 78, 0
7, 12516, Note_on_c, 5, 76, 115
7, 12522, Note_on_c, 5, 76, 0
7, 12522, Note_on_c, 5, 78, 113
7, 12528, Note_on_c, 5, 78, 0
7, 12528, Note_on_c, 5, 76, 112
7, 12534, Note_on_c, 5, 76, 0
7, 12534, Note_on_c, 5, 78, 110
7, 12540, Note_on_c, 5, 78, 0
7, 12540, Note_on_c, 5, 76, 108
7, 12546, Note_on_c, 5, 76, 0
7, 12546, Note_on_c, 5, 78, 105
7, 12552, Note_on_c, 5, 78, 0
7, 12552, Note_on_c, 5, 76, 103
7, 12558, Note_on_c, 5, 76, 0
7, 12558, Note_on_c, 5, 78, 100
7, 12564, Note_on_c, 5, 78, 0
7, 12564, Note_on_c, 5, 76, 97
7, 12570, Note_on_c, 5, 76, 0
7, 12570, Note_on_c, 5, 78, 94
7, 12576, Note_on_c, 5, 78, 0
7, 12576, Control_c, 5, 7, 118
7, 12576, Note_on_c, 5, 76, 118
7, 12582, Note_on_c, 5, 76, 0
7, 12582, Note_on_c, 5, 78, 121
7, 12588, Note_on_c, 5, 78, 0
7, 12588, Note_on_c, 5, 76, 118
7, 12594, Note_on_c, 5, 76, 0
7, 12594, Note_on_c, 5, 78, 121
7, 12600, Note_on_c, 5, 78, 0
7, 12600, Note_on_c, 5, 76, 118
7, 12606, Note_on_c, 5, 76, 0
7, 12606, Note_on_c, 5, 78, 121
7, 12612, Note_on_c, 5, 78, 0
7, 12612, Note_on_c, 5, 76, 118
7, 12618, Note_on_c, 5, 76, 0
7, 12618, Note_on_c, 5, 78, 121
7, 12624, Note_on_c, 5, 78, 0
7, 12624, Control_c, 5, 7, 119
7, 12624, Note_on_c, 5, 76, 118
7, 12630, Note_on_c, 5, 76, 0
7, 12630, Note_on_c, 5, 78, 121
7, 12636, Note_on_c, 5, 78, 0
7, 12636, Note_on_c, 5, 76, 118
7, 12642, Note_on_c, 5, 76, 0
7, 12642, Control_c, 5, 7, 121
7, 12642, Note_on_c, 5, 78, 121
7, 12648, Note_on_c, 5, 78, 0
7, 12648, Note_on_c, 5, 76, 118
7, 12654, Note_on_c, 5, 76, 0
7, 12654, Note_on_c, 5, 78, 121
7, 12660, Note_on_c, 5, 78, 0
7, 12660, Note_on_c, 5, 76, 118
7, 12666, Note_on_c, 5, 76, 0
7, 12666, Note_on_c, 5, 78, 121
7, 12672, Note_on_c, 5, 78, 0
7, 12672, Control_c, 5, 7, 123
7, 12672, Control_c, 5, 1, 80
7, 12672, Note_on_c, 5, 64, 123
7, 12692, Note_on_c, 5, 64, 0
7, 12696, Note_on_c, 5, 64, 121
7, 12716, Note_on_c, 5, 64, 0
7, 12720, Note_on_c, 5, 64, 121
7, 12740, Note_on_c, 5, 64, 0
7, 12744, Note_on_c, 5, 64, 119
7, 12764, Note_on_c, 5, 64, 0
7, 12768, Note_on_c, 5, 61, 121
7, 12788, Note_on_c, 5, 61, 0
7, 12792, Note_on_c, 5, 61, 123
7, 12812, Note_on_c, 5, 61, 0
7, 12816, Note_on_c, 5, 66, 124
7, 12836, Note_on_c, 5, 66, 0
7, 12840, Note_on_c, 5, 69, 126
7, 12860, Note_on_c, 5, 69, 0
7, 12864, Note_on_c, 5, 69, 121
7, 12884, Note_on_c, 5, 69, 0
7, 12888, Note_on_c, 5, 69, 123
7, 12908, Note_on_c, 5, 69, 0
7, 12912, Note_on_c, 5, 66, 121
7, 12932, Note_on_c, 5, 66, 0
7, 12936, Note_on_c, 5, 63, 119
7, 12956, Note_on_c, 5, 63, 0
7, 12960, Note_on_c, 5, 59, 123
7, 12980, Note_on_c, 5, 59, 0
7, 12984, Note_on_c, 5, 59, 121
7, 13004, Note_on_c, 5, 59, 0
7, 13008, Note_on_c, 5, 59, 123
7, 13028, Note_on_c, 5, 59, 0
7, 13032, Note_on_c, 5, 59, 121
7, 13052, Note_on_c, 5, 59, 0
7, 13056, Note_on_c, 5, 59, 123
7, 13076, Note_on_c, 5, 59, 0
7, 13080, Note_on_c, 5, 59, 121
7, 13100, Note_on_c, 5, 59, 0
7, 13104, Note_on_c, 5, 59, 121
7, 13124, Note_on_c, 5, 59, 0
7, 13128, Note_on_c, 5, 59, 119
7, 13148, Note_on_c, 5, 59, 0
7, 13152, Note_on_c, 5, 59, 123
7, 13172, Note_on_c, 5, 59, 0
7, 13176, Note_on_c, 5, 59, 121
7, 13196, Note_on_c, 5, 59, 0
7, 13200, Note_on_c, 5, 59, 121
7, 13220, Note_on_c, 5, 59, 0
7, 13224, Note_on_c, 5, 59, 119
7, 13244, Note_on_c, 5, 59, 0
7, 13248, Note_on_c, 5, 59, 123
7, 13268, Note_on_c, 5, 59, 0
7, 13272, Note_on_c, 5, 59, 121
7, 13292, Note_on_c, 5, 59, 0
7, 13296, Note_on_c, 5, 59, 121
7, 13316, Note_on_c, 5, 59, 0
7, 13320, Note_on_c, 5, 59, 119
7, 13340, Note_on_c, 5, 59, 0
7, 13344, Note_on_c, 5, 59, 123
7, 13364, Note_on_c, 5, 59, 0
7, 13368, Note_on_c, 5, 59, 121
7, 13388, Note_on_c, 5, 59, 0
7, 13392, Note_on_c, 5, 59, 121
7, 13412, Note_on_c, 5, 59, 0
7, 13416, Note_on_c, 5, 59, 119
7, 13436, Note_on_c, 5, 59, 0
7, 13440, Note_on_c, 5, 59, 123
7, 13460, Note_on_c, 5, 59, 0
7, 13464, Note_on_c, 5, 59, 121
7, 13484, Note_on_c, 5, 59, 0
7, 13488, Note_on_c, 5, 59, 121
7, 13508, Note_on_c, 5, 59, 0
7, 13512, Note_on_c, 5, 59, 119
7, 13532, Note_on_c, 5, 59, 0
7, 13536, Note_on_c, 5, 59, 123
7, 13581, Note_on_c, 5, 59, 0
7, 14592, Control_c, 5, 7, 126
7, 14592, Control_c, 5, 7, 118
7, 14592, Note_on_c, 5, 64, 121
7, 14598, Control_c, 5, 7, 121
7, 14604, Control_c, 5, 7, 123
7, 14610, Control_c, 5, 7, 126
7, 14637, Note_on_c, 5, 64, 0
7, 14640, Control_c, 5, 7, 118
7, 14640, Note_on_c, 5, 64, 119
7, 14646, Control_c, 5, 7, 121
7, 14652, Control_c, 5, 7, 123
7, 14658, Control_c, 5, 7, 126
7, 14685, Note_on_c, 5, 64, 0
7, 14688, Control_c, 5, 7, 118
7, 14688, Note_on_c, 5, 69, 115
7, 14691, Control_c, 5, 7, 121
7, 14694, Control_c, 5, 7, 123
7, 14700, Control_c, 5, 7, 126
7, 14708, Note_on_c, 5, 69, 0
7, 14712, Control_c, 5, 7, 118
7, 14712, Note_on_c, 5, 64, 118
7, 14718, Control_c, 5, 7, 121
7, 14724, Control_c, 5, 7, 123
7, 14730, Control_c, 5, 7, 126
7, 14757, Note_on_c, 5, 64, 0
7, 14760, Control_c, 5, 7, 118
7, 14760, Note_on_c, 5, 71, 115
7, 14763, Control_c, 5, 7, 121
7, 14766, Control_c, 5, 7, 123
7, 14772, Control_c, 5, 7, 126
7, 14780, Note_on_c, 5, 71, 0
7, 14784, Control_c, 5, 7, 126
7, 14784, Control_c, 5, 7, 118
7, 14784, Note_on_c, 5, 64, 121
7, 14790, Control_c, 5, 7, 121
7, 14796, Control_c, 5, 7, 123
7, 14802, Control_c, 5, 7, 126
7, 14829, Note_on_c, 5, 64, 0
7, 14832, Control_c, 5, 7, 118
7, 14832, Note_on_c, 5, 64, 119
7, 14838, Control_c, 5, 7, 121
7, 14844, Control_c, 5, 7, 123
7, 14850, Control_c, 5, 7, 126
7, 14877, Note_on_c, 5, 64, 0
7, 14880, Control_c, 5, 7, 118
7, 14880, Note_on_c, 5, 69, 115
7, 14883, Control_c, 5, 7, 121
7, 14886, Control_c, 5, 7, 123
7, 14892, Control_c, 5, 7, 126
7, 14900, Note_on_c, 5, 69, 0
7, 14904, Control_c, 5, 7, 118
7, 14904, Note_on_c, 5, 64, 118
7, 14910, Control_c, 5, 7, 121
7, 14916, Control_c, 5, 7, 123
7, 14922, Control_c, 5, 7, 126
7, 14949, Note_on_c, 5, 64, 0
7, 14952, Control_c, 5, 7, 118
7, 14952, Note_on_c, 5, 71, 115
7, 14955, Control_c, 5, 7, 121
7, 14958, Control_c, 5, 7, 123
7, 14964, Control_c, 5, 7, 126
7, 14972, Note_on_c, 5, 71, 0
7, 14976, Note_on_c, 5, 69, 121
7, 14996, Note_on_c, 5, 69, 0
7, 15000, Note_on_c, 5, 64, 121
7, 15020, Note_on_c, 5, 64, 0
7, 15024, Note_on_c, 5, 68, 121
7, 15044, Note_on_c, 5, 68, 0
7, 15048, Note_on_c, 5, 75, 121
7, 15068, Note_on_c, 5, 75, 0
7, 15072, Control_c, 5, 7, 115
7, 15072, Note_on_c, 5, 71, 121
7, 15084, Control_c, 5, 7, 118
7, 15096, Control_c, 5, 7, 119
7, 15108, Control_c, 5, 7, 121
7, 15117, Note_on_c, 5, 71, 0
7, 15120, Control_c, 5, 7, 115
7, 15120, Note_on_c, 5, 71, 115
7, 15132, Control_c, 5, 7, 118
7, 15144, Control_c, 5, 7, 119
7, 15156, Control_c, 5, 7, 121
7, 15165, Note_on_c, 5, 71, 0
7, 15168, Note_on_c, 5, 68, 115
7, 15213, Note_on_c, 5, 68, 0
7, 15240, Note_on_c, 5, 71, 97
7, 15260, Note_on_c, 5, 71, 0
7, 15264, Control_c, 5, 7, 115
7, 15264, Note_on_c, 5, 64, 103
7, 15276, Control_c, 5, 7, 118
7, 15288, Control_c, 5, 7, 119
7, 15300, Control_c, 5, 7, 121
7, 15309, Note_on_c, 5, 64, 0
7, 15312, Control_c, 5, 7, 115
7, 15312, Note_on_c, 5, 64, 103
7, 15324, Control_c, 5, 7, 118
7, 15336, Control_c, 5, 7, 119
7, 15348, Control_c, 5, 7, 121
7, 15357, Note_on_c, 5, 64, 0
7, 15360, Note_on_c, 5, 69, 97
7, 15380, Note_on_c, 5, 69, 0
7, 15384, Control_c, 5, 7, 115
7, 15384, Note_on_c, 5, 68, 103
7, 15396, Control_c, 5, 7, 118
7, 15408, Control_c, 5, 7, 119
7, 15420, Control_c, 5, 7, 121
7, 15429, Note_on_c, 5, 68, 0
7, 15432, Note_on_c, 5, 71, 97
7, 15452, Note_on_c, 5, 71, 0
7, 15456, Control_c, 5, 7, 115
7, 15456, Note_on_c, 5, 64, 103
7, 15468, Control_c, 5, 7, 118
7, 15480, Control_c, 5, 7, 119
7, 15492, Control_c, 5, 7, 121
7, 15501, Note_on_c, 5, 64, 0
7, 15504, Control_c, 5, 7, 115
7, 15504, Note_on_c, 5, 64, 103
7, 15516, Control_c, 5, 7, 118
7, 15528, Control_c, 5, 7, 119
7, 15540, Control_c, 5, 7, 121
7, 15549, Note_on_c, 5, 64, 0
7, 15552, Note_on_c, 5, 69, 97
7, 15572, Note_on_c, 5, 69, 0
7, 15576, Control_c, 5, 7, 115
7, 15576, Note_on_c, 5, 64, 103
7, 15588, Control_c, 5, 7, 118
7, 15600, Control_c, 5, 7, 119
7, 15612, Control_c, 5, 7, 121
7, 15621, Note_on_c, 5, 64, 0
7, 15624, Note_on_c, 5, 71, 97
7, 15644, Note_on_c, 5, 71, 0
7, 15648, Note_on_c, 5, 69, 103
7, 15668, Note_on_c, 5, 69, 0
7, 15672, Note_on_c, 5, 64, 103
7, 15692, Note_on_c, 5, 64, 0
7, 15696, Note_on_c, 5, 68, 103
7, 15716, Note_on_c, 5, 68, 0
7, 15720, Note_on_c, 5, 75, 103
7, 15740, Note_on_c, 5, 75, 0
7, 15744, Note_on_c, 5, 71, 112
7, 15789, Note_on_c, 5, 71, 0
7, 15792, Note_on_c, 5, 71, 112
7, 15837, Note_on_c, 5, 71, 0
7, 15840, Note_on_c, 5, 68, 112
7, 15885, Note_on_c, 5, 68, 0
7, 16128, Control_c, 5, 7, 120
7, 16128, End_track
8, 0, Start_track
8, 0, Title_t, "WinJammer Demo"
8, 0, Instrument_name_t, "Str Sect"
8, 0, MIDI_port, 0
8, 0, Pitch_bend_c, 6, 8192
8, 0, Control_c, 6, 10, 88
8, 0, Control_c, 6, 64, 0
8, 0, Control_c, 6, 7, 121
8, 0, Control_c, 6, 11, 127
8, 0, Control_c, 6, 1, 50
8, 0, Program_c, 6, 49
8, 168, Note_on_c, 6, 64, 115
8, 168, Note_on_c, 6, 76, 121
8, 183, Note_on_c, 6, 64, 0
8, 183, Note_on_c, 6, 76, 0
8, 192, Note_on_c, 6, 80, 121
8, 207, Note_on_c, 6, 80, 0
8, 216, Note_on_c, 6, 80, 123
8, 231, Note_on_c, 6, 80, 0
8, 240, Note_on_c, 6, 80, 126
8, 260, Note_on_c, 6, 80, 0
8, 264, Note_on_c, 6, 78, 121
8, 274, Note_on_c, 6, 78, 0
8, 276, Note_on_c, 6, 76, 123
8, 286, Note_on_c, 6, 76, 0
8, 288, Note_on_c, 6, 83, 126
8, 300, Control_c, 6, 1, 100
8, 356, Note_on_c, 6, 83, 0
8, 360, Control_c, 6, 1, 50
8, 360, Control_c, 6, 7, 115
8, 360, Note_on_c, 6, 83, 126
8, 362, Control_c, 6, 7, 118
8, 364, Control_c, 6, 7, 119
8, 368, Note_on_c, 6, 83, 0
8, 368, Control_c, 6, 7, 121
8, 372, Note_on_c, 6, 81, 123
8, 380, Note_on_c, 6, 81, 0
8, 384, Note_on_c, 6, 68, 115
8, 384, Note_on_c, 6, 80, 121
8, 401, Note_on_c, 6, 68, 0
8, 401, Note_on_c, 6, 80, 0
8, 408, Note_on_c, 6, 80, 123
8, 425, Note_on_c, 6, 80, 0
8, 432, Note_on_c, 6, 80, 126
8, 452, Note_on_c, 6, 80, 0
8, 456, Note_on_c, 6, 78, 121
8, 466, Note_on_c, 6, 78, 0
8, 468, Note_on_c, 6, 76, 123
8, 478, Note_on_c, 6, 76, 0
8, 480, Note_on_c, 6, 83, 126
8, 492, Control_c, 6, 1, 100
8, 548, Note_on_c, 6, 83, 0
8, 552, Control_c, 6, 1, 50
8, 552, Control_c, 6, 7, 115
8, 552, Note_on_c, 6, 83, 126
8, 554, Control_c, 6, 7, 118
8, 556, Control_c, 6, 7, 119
8, 560, Control_c, 6, 7, 121
8, 562, Note_on_c, 6, 83, 0
8, 564, Note_on_c, 6, 81, 123
8, 574, Note_on_c, 6, 81, 0
8, 576, Note_on_c, 6, 80, 123
8, 596, Note_on_c, 6, 80, 0
8, 600, Note_on_c, 6, 81, 126
8, 610, Note_on_c, 6, 81, 0
8, 612, Note_on_c, 6, 83, 127
8, 622, Note_on_c, 6, 83, 0
8, 624, Note_on_c, 6, 81, 126
8, 644, Note_on_c, 6, 81, 0
8, 648, Note_on_c, 6, 80, 123
8, 668, Note_on_c, 6, 80, 0
8, 672, Note_on_c, 6, 78, 121
8, 687, Note_on_c, 6, 78, 0
8, 696, Note_on_c, 6, 75, 119
8, 711, Note_on_c, 6, 75, 0
8, 720, Note_on_c, 6, 71, 118
8, 735, Note_on_c, 6, 71, 0
8, 744, Note_on_c, 6, 76, 112
8, 764, Note_on_c, 6, 76, 0
8, 768, Note_on_c, 6, 80, 108
8, 783, Note_on_c, 6, 80, 0
8, 792, Note_on_c, 6, 80, 112
8, 807, Note_on_c, 6, 80, 0
8, 816, Note_on_c, 6, 80, 115
8, 836, Note_on_c, 6, 80, 0
8, 840, Note_on_c, 6, 78, 108
8, 850, Note_on_c, 6, 78, 0
8, 852, Note_on_c, 6, 76, 112
8, 862, Note_on_c, 6, 76, 0
8, 864, Note_on_c, 6, 83, 115
8, 876, Control_c, 6, 1, 100
8, 932, Note_on_c, 6, 83, 0
8, 936, Control_c, 6, 1, 50
8, 936, Control_c, 6, 7, 115
8, 936, Note_on_c, 6, 83, 115
8, 938, Control_c, 6, 7, 118
8, 940, Control_c, 6, 7, 119
8, 944, Control_c, 6, 7, 121
8, 946, Note_on_c, 6, 83, 0
8, 948, Note_on_c, 6, 81, 112
8, 958, Note_on_c, 6, 81, 0
8, 960, Note_on_c, 6, 80, 108
8, 975, Note_on_c, 6, 80, 0
8, 984, Note_on_c, 6, 80, 112
8, 999, Note_on_c, 6, 80, 0
8, 1008, Note_on_c, 6, 80, 115
8, 1028, Note_on_c, 6, 80, 0
8, 1032, Note_on_c, 6, 78, 108
8, 1042, Note_on_c, 6, 78, 0
8, 1044, Note_on_c, 6, 76, 112
8, 1054, Note_on_c, 6, 76, 0
8, 1056, Note_on_c, 6, 83, 115
8, 1068, Control_c, 6, 1, 100
8, 1124, Note_on_c, 6, 83, 0
8, 1128, Control_c, 6, 1, 50
8, 1128, Control_c, 6, 7, 115
8, 1128, Note_on_c, 6, 83, 115
8, 1130, Control_c, 6, 7, 118
8, 1132, Control_c, 6, 7, 119
8, 1136, Control_c, 6, 7, 121
8, 1138, Note_on_c, 6, 83, 0
8, 1140, Note_on_c, 6, 81, 112
8, 1150, Note_on_c, 6, 81, 0
8, 1152, Note_on_c, 6, 80, 112
8, 1172, Note_on_c, 6, 80, 0
8, 1176, Note_on_c, 6, 81, 115
8, 1186, Note_on_c, 6, 81, 0
8, 1188, Note_on_c, 6, 83, 117
8, 1198, Note_on_c, 6, 83, 0
8, 1200, Note_on_c, 6, 81, 115
8, 1220, Note_on_c, 6, 81, 0
8, 1224, Note_on_c, 6, 80, 112
8, 1244, Note_on_c, 6, 80, 0
8, 1248, Note_on_c, 6, 78, 108
8, 1293, Note_on_c, 6, 78, 0
8, 1320, Note_on_c, 6, 64, 117
8, 1320, Note_on_c, 6, 76, 121
8, 1340, Note_on_c, 6, 64, 0
8, 1340, Note_on_c, 6, 76, 0
8, 1344, Note_on_c, 6, 71, 115
8, 1344, Note_on_c, 6, 83, 121
8, 1359, Note_on_c, 6, 71, 0
8, 1359, Note_on_c, 6, 83, 0
8, 1368, Note_on_c, 6, 81, 123
8, 1378, Note_on_c, 6, 81, 0
8, 1380, Note_on_c, 6, 80, 122
8, 1390, Note_on_c, 6, 80, 0
8, 1392, Note_on_c, 6, 81, 123
8, 1412, Note_on_c, 6, 81, 0
8, 1416, Note_on_c, 6, 83, 126
8, 1436, Note_on_c, 6, 83, 0
8, 1440, Note_on_c, 6, 85, 123
8, 1460, Note_on_c, 6, 85, 0
8, 1464, Note_on_c, 6, 83, 126
8, 1509, Note_on_c, 6, 83, 0
8, 1512, Note_on_c, 6, 76, 126
8, 1532, Note_on_c, 6, 76, 0
8, 1536, Note_on_c, 6, 83, 126
8, 1553, Note_on_c, 6, 83, 0
8, 1560, Note_on_c, 6, 81, 123
8, 1570, Note_on_c, 6, 81, 0
8, 1572, Note_on_c, 6, 80, 122
8, 1582, Note_on_c, 6, 80, 0
8, 1584, Note_on_c, 6, 81, 123
8, 1604, Note_on_c, 6, 81, 0
8, 1608, Note_on_c, 6, 83, 126
8, 1628, Note_on_c, 6, 83, 0
8, 1632, Note_on_c, 6, 85, 123
8, 1652, Note_on_c, 6, 85, 0
8, 1656, Note_on_c, 6, 83, 126
8, 1701, Note_on_c, 6, 83, 0
8, 1704, Note_on_c, 6, 76, 126
8, 1724, Note_on_c, 6, 76, 0
8, 1728, Note_on_c, 6, 85, 124
8, 1748, Note_on_c, 6, 85, 0
8, 1752, Note_on_c, 6, 83, 127
8, 1797, Note_on_c, 6, 83, 0
8, 1800, Note_on_c, 6, 81, 124
8, 1820, Note_on_c, 6, 81, 0
8, 1824, Note_on_c, 6, 80, 123
8, 1844, Note_on_c, 6, 80, 0
8, 1848, Note_on_c, 6, 78, 122
8, 1858, Note_on_c, 6, 78, 0
8, 1860, Note_on_c, 6, 76, 121
8, 1870, Note_on_c, 6, 76, 0
8, 1872, Note_on_c, 6, 78, 126
8, 1878, Note_on_c, 6, 78, 0
8, 1878, Note_on_c, 6, 80, 121
8, 1884, Note_on_c, 6, 80, 0
8, 1884, Note_on_c, 6, 78, 118
8, 1890, Note_on_c, 6, 78, 0
8, 1890, Note_on_c, 6, 80, 115
8, 1896, Note_on_c, 6, 80, 0
8, 1896, Note_on_c, 6, 78, 112
8, 1902, Note_on_c, 6, 78, 0
8, 1902, Note_on_c, 6, 80, 108
8, 1908, Note_on_c, 6, 80, 0
8, 1908, Note_on_c, 6, 78, 103
8, 1914, Note_on_c, 6, 78, 0
8, 1914, Note_on_c, 6, 80, 103
8, 1920, Note_on_c, 6, 80, 0
8, 1920, Note_on_c, 6, 76, 121
8, 1965, Note_on_c, 6, 76, 0
8, 1992, Note_on_c, 6, 76, 115
8, 2007, Note_on_c, 6, 76, 0
8, 2016, Note_on_c, 6, 83, 115
8, 2036, Note_on_c, 6, 83, 0
8, 2040, Note_on_c, 6, 81, 112
8, 2050, Note_on_c, 6, 81, 0
8, 2052, Note_on_c, 6, 80, 110
8, 2062, Note_on_c, 6, 80, 0
8, 2064, Note_on_c, 6, 81, 112
8, 2084, Note_on_c, 6, 81, 0
8, 2088, Note_on_c, 6, 83, 115
8, 2108, Note_on_c, 6, 83, 0
8, 2112, Note_on_c, 6, 85, 117
8, 2132, Note_on_c, 6, 85, 0
8, 2136, Note_on_c, 6, 83, 115
8, 2181, Note_on_c, 6, 83, 0
8, 2184, Note_on_c, 6, 76, 112
8, 2204, Note_on_c, 6, 76, 0
8, 2208, Note_on_c, 6, 83, 115
8, 2226, Note_on_c, 6, 83, 0
8, 2232, Note_on_c, 6, 81, 112
8, 2242, Note_on_c, 6, 81, 0
8, 2244, Note_on_c, 6, 80, 110
8, 2254, Note_on_c, 6, 80, 0
8, 2256, Note_on_c, 6, 81, 112
8, 2276, Note_on_c, 6, 81, 0
8, 2280, Note_on_c, 6, 83, 115
8, 2300, Note_on_c, 6, 83, 0
8, 2304, Note_on_c, 6, 85, 117
8, 2324, Note_on_c, 6, 85, 0
8, 2328, Note_on_c, 6, 83, 115
8, 2373, Note_on_c, 6, 83, 0
8, 2376, Note_on_c, 6, 76, 112
8, 2396, Note_on_c, 6, 76, 0
8, 2400, Note_on_c, 6, 85, 117
8, 2420, Note_on_c, 6, 85, 0
8, 2424, Note_on_c, 6, 83, 115
8, 2469, Note_on_c, 6, 83, 0
8, 2472, Note_on_c, 6, 81, 112
8, 2492, Note_on_c, 6, 81, 0
8, 2496, Note_on_c, 6, 80, 115
8, 2516, Note_on_c, 6, 80, 0
8, 2520, Note_on_c, 6, 78, 113
8, 2530, Note_on_c, 6, 78, 0
8, 2532, Note_on_c, 6, 76, 112
8, 2542, Note_on_c, 6, 76, 0
8, 2544, Note_on_c, 6, 78, 121
8, 2550, Note_on_c, 6, 78, 0
8, 2550, Note_on_c, 6, 80, 115
8, 2556, Note_on_c, 6, 80, 0
8, 2556, Note_on_c, 6, 78, 112
8, 2562, Note_on_c, 6, 78, 0
8, 2562, Note_on_c, 6, 80, 108
8, 2568, Note_on_c, 6, 80, 0
8, 2568, Note_on_c, 6, 78, 103
8, 2574, Note_on_c, 6, 78, 0
8, 2574, Note_on_c, 6, 80, 97
8, 2580, Note_on_c, 6, 80, 0
8, 2580, Note_on_c, 6, 78, 90
8, 2586, Note_on_c, 6, 78, 0
8, 2586, Note_on_c, 6, 80, 90
8, 2592, Note_on_c, 6, 80, 0
8, 2592, Control_c, 6, 1, 120
8, 2592, Control_c, 6, 7, 115
8, 2592, Note_on_c, 6, 76, 90
8, 2592, Note_on_c, 6, 83, 108
8, 2598, Control_c, 6, 7, 118
8, 2604, Control_c, 6, 7, 119
8, 2610, Control_c, 6, 7, 124
8, 2637, Note_on_c, 6, 76, 0
8, 2639, Note_on_c, 6, 83, 0
8, 2640, Control_c, 6, 7, 108
8, 2640, Note_on_c, 6, 83, 108
8, 2646, Control_c, 6, 7, 118
8, 2652, Control_c, 6, 7, 119
8, 2658, Control_c, 6, 7, 124
8, 2685, Note_on_c, 6, 83, 0
8, 2688, Control_c, 6, 7, 108
8, 2688, Note_on_c, 6, 83, 105
8, 2694, Control_c, 6, 7, 118
8, 2700, Control_c, 6, 7, 119
8, 2706, Control_c, 6, 7, 124
8, 2726, Note_on_c, 6, 83, 0
8, 2736, Control_c, 6, 7, 108
8, 2736, Note_on_c, 6, 83, 105
8, 2742, Control_c, 6, 7, 118
8, 2748, Control_c, 6, 7, 119
8, 2754, Control_c, 6, 7, 124
8, 2774, Note_on_c, 6, 83, 0
8, 2784, Control_c, 6, 7, 108
8, 2784, Note_on_c, 6, 83, 105
8, 2790, Control_c, 6, 7, 118
8, 2796, Control_c, 6, 7, 119
8, 2802, Control_c, 6, 7, 124
8, 2822, Note_on_c, 6, 83, 0
8, 2832, Control_c, 6, 7, 108
8, 2832, Note_on_c, 6, 83, 105
8, 2838, Control_c, 6, 7, 118
8, 2844, Control_c, 6, 7, 119
8, 2850, Control_c, 6, 7, 124
8, 2870, Note_on_c, 6, 83, 0
8, 2880, Control_c, 6, 11, 80
8, 2976, Control_c, 6, 1, 120
8, 2976, Control_c, 6, 7, 108
8, 2976, Note_on_c, 6, 83, 108
8, 2982, Control_c, 6, 7, 118
8, 2988, Control_c, 6, 7, 119
8, 2994, Control_c, 6, 7, 124
8, 3014, Note_on_c, 6, 83, 0
8, 3024, Control_c, 6, 7, 108
8, 3024, Note_on_c, 6, 83, 108
8, 3030, Control_c, 6, 7, 118
8, 3036, Control_c, 6, 7, 119
8, 3042, Control_c, 6, 7, 124
8, 3062, Note_on_c, 6, 83, 0
8, 3072, Control_c, 6, 7, 108
8, 3072, Note_on_c, 6, 83, 105
8, 3078, Control_c, 6, 7, 118
8, 3084, Control_c, 6, 7, 119
8, 3090, Control_c, 6, 7, 124
8, 3110, Note_on_c, 6, 83, 0
8, 3120, Control_c, 6, 7, 108
8, 3120, Note_on_c, 6, 83, 108
8, 3126, Control_c, 6, 7, 118
8, 3132, Control_c, 6, 7, 119
8, 3138, Control_c, 6, 7, 124
8, 3158, Note_on_c, 6, 83, 0
8, 3168, Control_c, 6, 7, 108
8, 3168, Note_on_c, 6, 83, 115
8, 3174, Control_c, 6, 7, 118
8, 3180, Control_c, 6, 7, 119
8, 3186, Control_c, 6, 7, 124
8, 3206, Note_on_c, 6, 83, 0
8, 3216, Control_c, 6, 7, 108
8, 3216, Note_on_c, 6, 83, 105
8, 3222, Control_c, 6, 7, 118
8, 3228, Control_c, 6, 7, 119
8, 3234, Control_c, 6, 7, 124
8, 3254, Note_on_c, 6, 83, 0
8, 3264, Control_c, 6, 1, 30
8, 3264, Control_c, 6, 11, 100
8, 3264, Note_on_c, 6, 88, 112
8, 3276, Note_on_c, 6, 88, 0
8, 3276, Note_on_c, 6, 87, 110
8, 3288, Note_on_c, 6, 87, 0
8, 3288, Note_on_c, 6, 85, 108
8, 3300, Note_on_c, 6, 85, 0
8, 3300, Note_on_c, 6, 83, 105
8, 3312, Note_on_c, 6, 83, 0
8, 3312, Note_on_c, 6, 81, 103
8, 3324, Note_on_c, 6, 81, 0
8, 3324, Note_on_c, 6, 80, 103
8, 3336, Note_on_c, 6, 80, 0
8, 3336, Note_on_c, 6, 78, 103
8, 3348, Note_on_c, 6, 78, 0
8, 3348, Note_on_c, 6, 76, 100
8, 3360, Note_on_c, 6, 76, 0
8, 3360, Note_on_c, 6, 83, 103
8, 3375, Note_on_c, 6, 83, 0
8, 3384, Note_on_c, 6, 83, 108
8, 3399, Note_on_c, 6, 83, 0
8, 3408, Note_on_c, 6, 83, 103
8, 3423, Note_on_c, 6, 83, 0
8, 3432, Note_on_c, 6, 83, 108
8, 3447, Note_on_c, 6, 83, 0
8, 3456, Note_on_c, 6, 83, 103
8, 3471, Note_on_c, 6, 83, 0
8, 3480, Note_on_c, 6, 83, 108
8, 3495, Note_on_c, 6, 83, 0
8, 3504, Note_on_c, 6, 83, 103
8, 3519, Note_on_c, 6, 83, 0
8, 3528, Note_on_c, 6, 83, 108
8, 3543, Note_on_c, 6, 83, 0
8, 3552, Note_on_c, 6, 83, 103
8, 3567, Note_on_c, 6, 83, 0
8, 3576, Note_on_c, 6, 83, 108
8, 3591, Note_on_c, 6, 83, 0
8, 3600, Note_on_c, 6, 83, 103
8, 3615, Note_on_c, 6, 83, 0
8, 3624, Note_on_c, 6, 85, 108
8, 3634, Note_on_c, 6, 85, 0
8, 3636, Note_on_c, 6, 87, 112
8, 3646, Note_on_c, 6, 87, 0
8, 3648, Note_on_c, 6, 88, 112
8, 3660, Note_on_c, 6, 88, 0
8, 3660, Note_on_c, 6, 87, 110
8, 3672, Note_on_c, 6, 87, 0
8, 3672, Note_on_c, 6, 85, 108
8, 3684, Note_on_c, 6, 85, 0
8, 3684, Note_on_c, 6, 83, 105
8, 3696, Note_on_c, 6, 83, 0
8, 3696, Note_on_c, 6, 81, 103
8, 3708, Note_on_c, 6, 81, 0
8, 3708, Note_on_c, 6, 80, 103
8, 3720, Note_on_c, 6, 80, 0
8, 3720, Control_c, 6, 7, 115
8, 3720, Note_on_c, 6, 88, 108
8, 3735, Note_on_c, 6, 88, 0
8, 3744, Note_on_c, 6, 88, 103
8, 3759, Note_on_c, 6, 88, 0
8, 3768, Note_on_c, 6, 88, 108
8, 3783, Note_on_c, 6, 88, 0
8, 3792, Note_on_c, 6, 88, 103
8, 3807, Note_on_c, 6, 88, 0
8, 3816, Note_on_c, 6, 88, 108
8, 3831, Note_on_c, 6, 88, 0
8, 3840, Note_on_c, 6, 76, 115
8, 3846, Note_on_c, 6, 76, 0
8, 3846, Note_on_c, 6, 78, 112
8, 3852, Note_on_c, 6, 78, 0
8, 3852, Note_on_c, 6, 76, 112
8, 3858, Note_on_c, 6, 76, 0
8, 3858, Note_on_c, 6, 78, 110
8, 3864, Note_on_c, 6, 78, 0
8, 3864, Note_on_c, 6, 76, 110
8, 3870, Note_on_c, 6, 76, 0
8, 3870, Note_on_c, 6, 78, 108
8, 3876, Note_on_c, 6, 78, 0
8, 3876, Note_on_c, 6, 76, 108
8, 3882, Note_on_c, 6, 76, 0
8, 3882, Note_on_c, 6, 78, 105
8, 3888, Note_on_c, 6, 78, 0
8, 3888, Note_on_c, 6, 76, 105
8, 3894, Note_on_c, 6, 76, 0
8, 3894, Note_on_c, 6, 78, 103
8, 3900, Note_on_c, 6, 78, 0
8, 3900, Note_on_c, 6, 76, 103
8, 3906, Note_on_c, 6, 76, 0
8, 3906, Note_on_c, 6, 78, 97
8, 3912, Note_on_c, 6, 78, 0
8, 3912, Note_on_c, 6, 88, 108
8, 3927, Note_on_c, 6, 88, 0
8, 3936, Note_on_c, 6, 88, 112
8, 3951, Note_on_c, 6, 88, 0
8, 3960, Note_on_c, 6, 88, 108
8, 3975, Note_on_c, 6, 88, 0
8, 3984, Note_on_c, 6, 88, 112
8, 3999, Note_on_c, 6, 88, 0
8, 4008, Note_on_c, 6, 88, 112
8, 4023, Note_on_c, 6, 88, 0
8, 4032, Note_on_c, 6, 76, 115
8, 4038, Note_on_c, 6, 76, 0
8, 4038, Note_on_c, 6, 78, 112
8, 4044, Note_on_c, 6, 78, 0
8, 4044, Note_on_c, 6, 76, 112
8, 4050, Note_on_c, 6, 76, 0
8, 4050, Note_on_c, 6, 78, 110
8, 4056, Note_on_c, 6, 78, 0
8, 4056, Note_on_c, 6, 76, 110
8, 4062, Note_on_c, 6, 76, 0
8, 4062, Note_on_c, 6, 78, 108
8, 4068, Note_on_c, 6, 78, 0
8, 4068, Note_on_c, 6, 76, 108
8, 4074, Note_on_c, 6, 76, 0
8, 4074, Note_on_c, 6, 78, 105
8, 4080, Note_on_c, 6, 78, 0
8, 4128, Control_c, 6, 7, 118
8, 4128, Note_on_c, 6, 83, 117
8, 4188, Note_on_c, 6, 83, 0
8, 4188, Note_on_c, 6, 88, 119
8, 4200, Note_on_c, 6, 88, 0
8, 4200, Note_on_c, 6, 83, 117
8, 4212, Note_on_c, 6, 83, 0
8, 4212, Note_on_c, 6, 85, 119
8, 4224, Note_on_c, 6, 85, 0
8, 4224, Note_on_c, 6, 83, 117
8, 4284, Note_on_c, 6, 83, 0
8, 4284, Note_on_c, 6, 88, 119
8, 4296, Note_on_c, 6, 88, 0
8, 4296, Note_on_c, 6, 83, 117
8, 4308, Note_on_c, 6, 83, 0
8, 4308, Note_on_c, 6, 85, 119
8, 4320, Note_on_c, 6, 85, 0
8, 4320, Note_on_c, 6, 83, 117
8, 4332, Note_on_c, 6, 83, 0
8, 4332, Note_on_c, 6, 88, 119
8, 4344, Note_on_c, 6, 88, 0
8, 4344, Note_on_c, 6, 83, 117
8, 4356, Note_on_c, 6, 83, 0
8, 4356, Note_on_c, 6, 85, 119
8, 4368, Note_on_c, 6, 85, 0
8, 4368, Note_on_c, 6, 83, 117
8, 4380, Note_on_c, 6, 83, 0
8, 4380, Note_on_c, 6, 88, 119
8, 4392, Note_on_c, 6, 88, 0
8, 4392, Note_on_c, 6, 83, 117
8, 4404, Note_on_c, 6, 83, 0
8, 4404, Note_on_c, 6, 85, 119
8, 4416, Note_on_c, 6, 85, 0
8, 4464, Note_on_c, 6, 80, 119
8, 4470, Note_on_c, 6, 80, 0
8, 4470, Note_on_c, 6, 81, 115
8, 4476, Note_on_c, 6, 81, 0
8, 4476, Note_on_c, 6, 80, 113
8, 4482, Note_on_c, 6, 80, 0
8, 4482, Note_on_c, 6, 81, 112
8, 4488, Note_on_c, 6, 81, 0
8, 4488, Note_on_c, 6, 80, 110
8, 4494, Note_on_c, 6, 80, 0
8, 4494, Note_on_c, 6, 81, 108
8, 4500, Note_on_c, 6, 81, 0
8, 4500, Note_on_c, 6, 80, 103
8, 4506, Note_on_c, 6, 80, 0
8, 4506, Note_on_c, 6, 81, 97
8, 4512, Note_on_c, 6, 81, 0
8, 4512, Note_on_c, 6, 83, 117
8, 4572, Note_on_c, 6, 83, 0
8, 4572, Note_on_c, 6, 88, 119
8, 4584, Note_on_c, 6, 88, 0
8, 4584, Note_on_c, 6, 83, 117
8, 4596, Note_on_c, 6, 83, 0
8, 4596, Note_on_c, 6, 85, 119
8, 4608, Note_on_c, 6, 85, 0
8, 4608, Note_on_c, 6, 83, 117
8, 4668, Note_on_c, 6, 83, 0
8, 4668, Note_on_c, 6, 88, 119
8, 4680, Note_on_c, 6, 88, 0
8, 4680, Note_on_c, 6, 83, 117
8, 4692, Note_on_c, 6, 83, 0
8, 4692, Note_on_c, 6, 85, 119
8, 4704, Note_on_c, 6, 85, 0
8, 4704, Note_on_c, 6, 83, 117
8, 4716, Note_on_c, 6, 83, 0
8, 4716, Note_on_c, 6, 88, 119
8, 4728, Note_on_c, 6, 88, 0
8, 4728, Note_on_c, 6, 83, 117
8, 4740, Note_on_c, 6, 83, 0
8, 4740, Note_on_c, 6, 85, 119
8, 4752, Note_on_c, 6, 85, 0
8, 4752, Note_on_c, 6, 83, 117
8, 4764, Note_on_c, 6, 83, 0
8, 4764, Note_on_c, 6, 88, 119
8, 4776, Note_on_c, 6, 88, 0
8, 4776, Note_on_c, 6, 83, 117
8, 4788, Note_on_c, 6, 83, 0
8, 4788, Note_on_c, 6, 85, 119
8, 4800, Note_on_c, 6, 85, 0
8, 4800, Note_on_c, 6, 83, 117
8, 4812, Note_on_c, 6, 83, 0
8, 4812, Note_on_c, 6, 88, 119
8, 4824, Note_on_c, 6, 88, 0
8, 4824, Note_on_c, 6, 83, 117
8, 4836, Note_on_c, 6, 83, 0
8, 4836, Note_on_c, 6, 85, 119
8, 4848, Note_on_c, 6, 85, 0
8, 4848, Note_on_c, 6, 83, 117
8, 4860, Note_on_c, 6, 83, 0
8, 4860, Note_on_c, 6, 88, 119
8, 4872, Note_on_c, 6, 88, 0
8, 4872, Note_on_c, 6, 83, 117
8, 4884, Note_on_c, 6, 83, 0
8, 4884, Note_on_c, 6, 85, 119
8, 4896, Note_on_c, 6, 85, 0
8, 4896, Note_on_c, 6, 83, 117
8, 4916, Note_on_c, 6, 83, 0
8, 4920, Note_on_c, 6, 76, 119
8, 4940, Note_on_c, 6, 76, 0
8, 4992, Note_on_c, 6, 88, 118
8, 4998, Note_on_c, 6, 88, 0
8, 4998, Note_on_c, 6, 90, 115
8, 5004, Note_on_c, 6, 90, 0
8, 5004, Note_on_c, 6, 88, 112
8, 5010, Note_on_c, 6, 88, 0
8, 5010, Note_on_c, 6, 90, 110
8, 5016, Note_on_c, 6, 90, 0
8, 5016, Note_on_c, 6, 88, 108
8, 5022, Note_on_c, 6, 88, 0
8, 5022, Note_on_c, 6, 90, 105
8, 5028, Note_on_c, 6, 90, 0
8, 5028, Note_on_c, 6, 88, 103
8, 5034, Note_on_c, 6, 88, 0
8, 5034, Note_on_c, 6, 90, 100
8, 5040, Note_on_c, 6, 90, 0
8, 5040, Note_on_c, 6, 88, 97
8, 5046, Note_on_c, 6, 88, 0
8, 5046, Note_on_c, 6, 90, 94
8, 5052, Note_on_c, 6, 90, 0
8, 5052, Note_on_c, 6, 88, 90
8, 5058, Note_on_c, 6, 88, 0
8, 5058, Note_on_c, 6, 90, 85
8, 5064, Note_on_c, 6, 90, 0
8, 5064, Note_on_c, 6, 88, 85
8, 5070, Note_on_c, 6, 88, 0
8, 5070, Note_on_c, 6, 90, 80
8, 5076, Note_on_c, 6, 90, 0
8, 5076, Note_on_c, 6, 88, 80
8, 5082, Note_on_c, 6, 88, 0
8, 5082, Note_on_c, 6, 90, 80
8, 5088, Note_on_c, 6, 90, 0
8, 5088, Note_on_c, 6, 88, 115
8, 5168, Note_on_c, 6, 88, 0
8, 5184, Note_on_c, 6, 88, 118
8, 5190, Note_on_c, 6, 88, 0
8, 5190, Note_on_c, 6, 90, 115
8, 5196, Note_on_c, 6, 90, 0
8, 5196, Note_on_c, 6, 88, 112
8, 5202, Note_on_c, 6, 88, 0
8, 5202, Note_on_c, 6, 90, 110
8, 5208, Note_on_c, 6, 90, 0
8, 5208, Note_on_c, 6, 88, 108
8, 5214, Note_on_c, 6, 88, 0
8, 5214, Note_on_c, 6, 90, 105
8, 5220, Note_on_c, 6, 90, 0
8, 5220, Note_on_c, 6, 88, 103
8, 5226, Note_on_c, 6, 88, 0
8, 5226, Note_on_c, 6, 90, 100
8, 5232, Note_on_c, 6, 90, 0
8, 5232, Note_on_c, 6, 88, 97
8, 5238, Note_on_c, 6, 88, 0
8, 5238, Note_on_c, 6, 90, 94
8, 5244, Note_on_c, 6, 90, 0
8, 5244, Note_on_c, 6, 88, 90
8, 5250, Note_on_c, 6, 88, 0
8, 5250, Note_on_c, 6, 90, 85
8, 5256, Note_on_c, 6, 90, 0
8, 5256, Note_on_c, 6, 88, 85
8, 5262, Note_on_c, 6, 88, 0
8, 5262, Note_on_c, 6, 90, 80
8, 5268, Note_on_c, 6, 90, 0
8, 5268, Note_on_c, 6, 88, 80
8, 5274, Note_on_c, 6, 88, 0
8, 5274, Note_on_c, 6, 90, 80
8, 5280, Note_on_c, 6, 90, 0
8, 5352, Control_c, 6, 7, 123
8, 5352, Control_c, 6, 11, 100
8, 5352, Control_c, 6, 1, 50
8, 5352, Note_on_c, 6, 64, 112
8, 5352, Note_on_c, 6, 76, 115
8, 5372, Note_on_c, 6, 64, 0
8, 5372, Note_on_c, 6, 76, 0
8, 5376, Note_on_c, 6, 71, 115
8, 5376, Note_on_c, 6, 83, 121
8, 5391, Note_on_c, 6, 71, 0
8, 5391, Note_on_c, 6, 83, 0
8, 5400, Note_on_c, 6, 81, 123
8, 5410, Note_on_c, 6, 81, 0
8, 5412, Note_on_c, 6, 80, 122
8, 5422, Note_on_c, 6, 80, 0
8, 5424, Note_on_c, 6, 81, 123
8, 5444, Note_on_c, 6, 81, 0
8, 5448, Note_on_c, 6, 83, 126
8, 5468, Note_on_c, 6, 83, 0
8, 5472, Note_on_c, 6, 85, 126
8, 5492, Note_on_c, 6, 85, 0
8, 5496, Note_on_c, 6, 83, 124
8, 5541, Note_on_c, 6, 83, 0
8, 5544, Note_on_c, 6, 76, 124
8, 5564, Note_on_c, 6, 76, 0
8, 5568, Note_on_c, 6, 83, 121
8, 5585, Note_on_c, 6, 83, 0
8, 5592, Note_on_c, 6, 81, 123
8, 5602, Note_on_c, 6, 81, 0
8, 5604, Note_on_c, 6, 80, 122
8, 5614, Note_on_c, 6, 80, 0
8, 5616, Note_on_c, 6, 81, 123
8, 5636, Note_on_c, 6, 81, 0
8, 5640, Note_on_c, 6, 83, 126
8, 5660, Note_on_c, 6, 83, 0
8, 5664, Note_on_c, 6, 85, 127
8, 5684, Note_on_c, 6, 85, 0
8, 5688, Note_on_c, 6, 83, 126
8, 5733, Note_on_c, 6, 83, 0
8, 5736, Note_on_c, 6, 76, 126
8, 5756, Note_on_c, 6, 76, 0
8, 5760, Note_on_c, 6, 85, 124
8, 5780, Note_on_c, 6, 85, 0
8, 5784, Note_on_c, 6, 83, 126
8, 5829, Note_on_c, 6, 83, 0
8, 5832, Note_on_c, 6, 81, 124
8, 5852, Note_on_c, 6, 81, 0
8, 5856, Note_on_c, 6, 80, 123
8, 5876, Note_on_c, 6, 80, 0
8, 5880, Note_on_c, 6, 78, 122
8, 5890, Note_on_c, 6, 78, 0
8, 5892, Note_on_c, 6, 76, 121
8, 5902, Note_on_c, 6, 76, 0
8, 5904, Note_on_c, 6, 78, 126
8, 5910, Note_on_c, 6, 78, 0
8, 5910, Note_on_c, 6, 80, 121
8, 5916, Note_on_c, 6, 80, 0
8, 5916, Note_on_c, 6, 78, 118
8, 5922, Note_on_c, 6, 78, 0
8, 5922, Note_on_c, 6, 80, 115
8, 5928, Note_on_c, 6, 80, 0
8, 5928, Note_on_c, 6, 78, 112
8, 5934, Note_on_c, 6, 78, 0
8, 5934, Note_on_c, 6, 80, 108
8, 5940, Note_on_c, 6, 80, 0
8, 5940, Note_on_c, 6, 78, 103
8, 5946, Note_on_c, 6, 78, 0
8, 5946, Note_on_c, 6, 80, 103
8, 5952, Note_on_c, 6, 80, 0
8, 5952, Note_on_c, 6, 76, 118
8, 5972, Note_on_c, 6, 76, 0
8, 5976, Control_c, 6, 7, 118
8, 5976, Note_on_c, 6, 68, 108
8, 5988, Note_on_c, 6, 68, 0
8, 5988, Note_on_c, 6, 69, 108
8, 6000, Note_on_c, 6, 69, 0
8, 6000, Note_on_c, 6, 71, 115
8, 6012, Note_on_c, 6, 71, 0
8, 6012, Note_on_c, 6, 69, 108
8, 6024, Note_on_c, 6, 69, 0
8, 6024, Note_on_c, 6, 71, 115
8, 6036, Note_on_c, 6, 71, 0
8, 6036, Note_on_c, 6, 69, 108
8, 6048, Note_on_c, 6, 69, 0
8, 6048, Note_on_c, 6, 68, 115
8, 6060, Note_on_c, 6, 68, 0
8, 6060, Note_on_c, 6, 69, 108
8, 6072, Note_on_c, 6, 69, 0
8, 6072, Note_on_c, 6, 68, 115
8, 6084, Note_on_c, 6, 68, 0
8, 6084, Note_on_c, 6, 69, 108
8, 6096, Note_on_c, 6, 69, 0
8, 6096, Note_on_c, 6, 71, 115
8, 6108, Note_on_c, 6, 71, 0
8, 6108, Note_on_c, 6, 69, 108
8, 6120, Note_on_c, 6, 69, 0
8, 6120, Note_on_c, 6, 71, 115
8, 6132, Note_on_c, 6, 71, 0
8, 6132, Note_on_c, 6, 69, 108
8, 6144, Note_on_c, 6, 69, 0
8, 6144, Note_on_c, 6, 68, 115
8, 6156, Note_on_c, 6, 68, 0
8, 6156, Note_on_c, 6, 69, 108
8, 6168, Note_on_c, 6, 69, 0
8, 6168, Note_on_c, 6, 68, 115
8, 6180, Note_on_c, 6, 68, 0
8, 6180, Note_on_c, 6, 69, 108
8, 6192, Note_on_c, 6, 69, 0
8, 6192, Note_on_c, 6, 71, 115
8, 6204, Note_on_c, 6, 71, 0
8, 6204, Note_on_c, 6, 69, 108
8, 6216, Note_on_c, 6, 69, 0
8, 6216, Note_on_c, 6, 71, 115
8, 6228, Note_on_c, 6, 71, 0
8, 6228, Note_on_c, 6, 69, 108
8, 6240, Note_on_c, 6, 69, 0
8, 6240, Note_on_c, 6, 68, 115
8, 6252, Note_on_c, 6, 68, 0
8, 6252, Note_on_c, 6, 69, 108
8, 6264, Note_on_c, 6, 69, 0
8, 6264, Note_on_c, 6, 68, 115
8, 6276, Note_on_c, 6, 68, 0
8, 6276, Note_on_c, 6, 69, 108
8, 6288, Note_on_c, 6, 69, 0
8, 6288, Note_on_c, 6, 71, 108
8, 6300, Note_on_c, 6, 71, 0
8, 6300, Note_on_c, 6, 73, 112
8, 6312, Note_on_c, 6, 73, 0
8, 6312, Note_on_c, 6, 71, 108
8, 6324, Note_on_c, 6, 71, 0
8, 6324, Note_on_c, 6, 73, 112
8, 6336, Note_on_c, 6, 73, 0
8, 6336, Note_on_c, 6, 75, 115
8, 6348, Note_on_c, 6, 75, 0
8, 6348, Note_on_c, 6, 76, 108
8, 6360, Note_on_c, 6, 76, 0
8, 6360, Note_on_c, 6, 75, 115
8, 6372, Note_on_c, 6, 75, 0
8, 6372, Note_on_c, 6, 76, 108
8, 6384, Note_on_c, 6, 76, 0
8, 6384, Note_on_c, 6, 78, 115
8, 6396, Note_on_c, 6, 78, 0
8, 6396, Note_on_c, 6, 76, 108
8, 6408, Note_on_c, 6, 76, 0
8, 6408, Note_on_c, 6, 78, 115
8, 6420, Note_on_c, 6, 78, 0
8, 6420, Note_on_c, 6, 76, 108
8, 6432, Note_on_c, 6, 76, 0
8, 6432, Note_on_c, 6, 75, 115
8, 6444, Note_on_c, 6, 75, 0
8, 6444, Note_on_c, 6, 76, 108
8, 6456, Note_on_c, 6, 76, 0
8, 6456, Note_on_c, 6, 75, 115
8, 6468, Note_on_c, 6, 75, 0
8, 6468, Note_on_c, 6, 76, 108
8, 6480, Note_on_c, 6, 76, 0
8, 6480, Note_on_c, 6, 78, 108
8, 6492, Note_on_c, 6, 78, 0
8, 6492, Note_on_c, 6, 76, 112
8, 6504, Note_on_c, 6, 76, 0
8, 6504, Note_on_c, 6, 78, 108
8, 6516, Note_on_c, 6, 78, 0
8, 6516, Note_on_c, 6, 76, 112
8, 6528, Note_on_c, 6, 76, 0
8, 6528, Note_on_c, 6, 75, 115
8, 6540, Note_on_c, 6, 75, 0
8, 6540, Note_on_c, 6, 76, 108
8, 6552, Note_on_c, 6, 76, 0
8, 6552, Note_on_c, 6, 75, 115
8, 6564, Note_on_c, 6, 75, 0
8, 6564, Note_on_c, 6, 76, 108
8, 6576, Note_on_c, 6, 76, 0
8, 6576, Note_on_c, 6, 78, 115
8, 6588, Note_on_c, 6, 78, 0
8, 6588, Note_on_c, 6, 80, 108
8, 6600, Note_on_c, 6, 80, 0
8, 6600, Note_on_c, 6, 78, 115
8, 6612, Note_on_c, 6, 78, 0
8, 6612, Note_on_c, 6, 80, 108
8, 6624, Note_on_c, 6, 80, 0
8, 6624, Note_on_c, 6, 81, 115
8, 6636, Note_on_c, 6, 81, 0
8, 6636, Note_on_c, 6, 80, 108
8, 6648, Note_on_c, 6, 80, 0
8, 6648, Note_on_c, 6, 81, 115
8, 6660, Note_on_c, 6, 81, 0
8, 6660, Note_on_c, 6, 80, 108
8, 6672, Note_on_c, 6, 80, 0
8, 6672, Note_on_c, 6, 78, 108
8, 6684, Note_on_c, 6, 78, 0
8, 6684, Note_on_c, 6, 81, 112
8, 6696, Note_on_c, 6, 81, 0
8, 6696, Note_on_c, 6, 80, 108
8, 6708, Note_on_c, 6, 80, 0
8, 6708, Note_on_c, 6, 78, 112
8, 6720, Note_on_c, 6, 78, 0
8, 6720, Note_on_c, 6, 80, 112
8, 6740, Note_on_c, 6, 80, 0
8, 6744, Note_on_c, 6, 78, 108
8, 6756, Note_on_c, 6, 78, 0
8, 6756, Note_on_c, 6, 76, 108
8, 6768, Note_on_c, 6, 76, 0
8, 6768, Note_on_c, 6, 75, 115
8, 6780, Note_on_c, 6, 75, 0
8, 6780, Note_on_c, 6, 73, 108
8, 6792, Note_on_c, 6, 73, 0
8, 6792, Note_on_c, 6, 71, 115
8, 6804, Note_on_c, 6, 71, 0
8, 6804, Note_on_c, 6, 69, 108
8, 6816, Note_on_c, 6, 69, 0
8, 6816, Note_on_c, 6, 68, 115
8, 6828, Note_on_c, 6, 68, 0
8, 6828, Note_on_c, 6, 69, 108
8, 6840, Note_on_c, 6, 69, 0
8, 6840, Note_on_c, 6, 68, 115
8, 6852, Note_on_c, 6, 68, 0
8, 6852, Note_on_c, 6, 69, 108
8, 6864, Note_on_c, 6, 69, 0
8, 6864, Note_on_c, 6, 71, 115
8, 6876, Note_on_c, 6, 71, 0
8, 6876, Note_on_c, 6, 69, 108
8, 6888, Note_on_c, 6, 69, 0
8, 6888, Note_on_c, 6, 71, 115
8, 6900, Note_on_c, 6, 71, 0
8, 6900, Note_on_c, 6, 69, 108
8, 6912, Note_on_c, 6, 69, 0
8, 6912, Note_on_c, 6, 68, 115
8, 6924, Note_on_c, 6, 68, 0
8, 6924, Note_on_c, 6, 69, 108
8, 6936, Note_on_c, 6, 69, 0
8, 6936, Note_on_c, 6, 68, 115
8, 6948, Note_on_c, 6, 68, 0
8, 6948, Note_on_c, 6, 69, 108
8, 6960, Note_on_c, 6, 69, 0
8, 6960, Note_on_c, 6, 71, 115
8, 6972, Note_on_c, 6, 71, 0
8, 6972, Note_on_c, 6, 69, 108
8, 6984, Note_on_c, 6, 69, 0
8, 6984, Note_on_c, 6, 71, 115
8, 6996, Note_on_c, 6, 71, 0
8, 6996, Note_on_c, 6, 69, 108
8, 7008, Note_on_c, 6, 69, 0
8, 7008, Note_on_c, 6, 68, 115
8, 7020, Note_on_c, 6, 68, 0
8, 7020, Note_on_c, 6, 69, 108
8, 7032, Note_on_c, 6, 69, 0
8, 7032, Note_on_c, 6, 68, 115
8, 7044, Note_on_c, 6, 68, 0
8, 7044, Note_on_c, 6, 69, 108
8, 7056, Note_on_c, 6, 69, 0
8, 7056, Note_on_c, 6, 71, 108
8, 7068, Note_on_c, 6, 71, 0
8, 7068, Note_on_c, 6, 69, 112
8, 7080, Note_on_c, 6, 69, 0
8, 7080, Note_on_c, 6, 71, 108
8, 7092, Note_on_c, 6, 71, 0
8, 7092, Note_on_c, 6, 69, 112
8, 7104, Note_on_c, 6, 69, 0
8, 7104, Note_on_c, 6, 68, 112
8, 7149, Note_on_c, 6, 68, 0
8, 7176, Note_on_c, 6, 80, 112
8, 7196, Note_on_c, 6, 80, 0
8, 7200, Control_c, 6, 7, 112
8, 7200, Note_on_c, 6, 81, 112
8, 7212, Control_c, 6, 7, 118
8, 7224, Control_c, 6, 7, 121
8, 7236, Control_c, 6, 7, 124
8, 7293, Note_on_c, 6, 81, 0
8, 7296, Control_c, 6, 7, 118
8, 7296, Control_c, 6, 7, 112
8, 7296, Note_on_c, 6, 80, 112
8, 7308, Control_c, 6, 7, 118
8, 7320, Control_c, 6, 7, 121
8, 7332, Control_c, 6, 7, 124
8, 7389, Note_on_c, 6, 80, 0
8, 7392, Control_c, 6, 7, 112
8, 7392, Note_on_c, 6, 78, 112
8, 7404, Control_c, 6, 7, 118
8, 7416, Control_c, 6, 7, 121
8, 7428, Control_c, 6, 7, 124
8, 7485, Note_on_c, 6, 78, 0
8, 7488, Control_c, 6, 7, 118
8, 7488, Control_c, 6, 7, 112
8, 7488, Note_on_c, 6, 80, 112
8, 7500, Control_c, 6, 7, 118
8, 7512, Control_c, 6, 7, 121
8, 7524, Control_c, 6, 7, 124
8, 7581, Note_on_c, 6, 80, 0
8, 7584, Control_c, 6, 7, 112
8, 7584, Note_on_c, 6, 81, 112
8, 7596, Control_c, 6, 7, 118
8, 7608, Control_c, 6, 7, 121
8, 7620, Control_c, 6, 7, 124
8, 7677, Note_on_c, 6, 81, 0
8, 7680, Control_c, 6, 7, 118
8, 7680, Control_c, 6, 7, 112
8, 7680, Note_on_c, 6, 80, 112
8, 7692, Control_c, 6, 7, 118
8, 7704, Control_c, 6, 7, 121
8, 7716, Control_c, 6, 7, 124
8, 7773, Note_on_c, 6, 80, 0
8, 7776, Control_c, 6, 7, 112
8, 7776, Note_on_c, 6, 78, 112
8, 7782, Control_c, 6, 7, 118
8, 7788, Control_c, 6, 7, 121
8, 7794, Control_c, 6, 7, 124
8, 7821, Note_on_c, 6, 78, 0
8, 7824, Control_c, 6, 7, 118
8, 7848, Control_c, 6, 7, 121
8, 7848, Control_c, 6, 11, 100
8, 7848, Control_c, 6, 1, 50
8, 7848, Note_on_c, 6, 71, 121
8, 7868, Note_on_c, 6, 71, 0
8, 7872, Note_on_c, 6, 78, 121
8, 7887, Note_on_c, 6, 78, 0
8, 7896, Note_on_c, 6, 76, 123
8, 7906, Note_on_c, 6, 76, 0
8, 7908, Note_on_c, 6, 75, 122
8, 7918, Note_on_c, 6, 75, 0
8, 7920, Note_on_c, 6, 76, 123
8, 7940, Note_on_c, 6, 76, 0
8, 7944, Note_on_c, 6, 78, 126
8, 7964, Note_on_c, 6, 78, 0
8, 7968, Note_on_c, 6, 80, 126
8, 7988, Note_on_c, 6, 80, 0
8, 7992, Note_on_c, 6, 78, 124
8, 8037, Note_on_c, 6, 78, 0
8, 8040, Note_on_c, 6, 71, 124
8, 8060, Note_on_c, 6, 71, 0
8, 8064, Note_on_c, 6, 78, 121
8, 8081, Note_on_c, 6, 78, 0
8, 8088, Note_on_c, 6, 76, 123
8, 8098, Note_on_c, 6, 76, 0
8, 8100, Note_on_c, 6, 75, 122
8, 8110, Note_on_c, 6, 75, 0
8, 8112, Note_on_c, 6, 76, 123
8, 8132, Note_on_c, 6, 76, 0
8, 8136, Note_on_c, 6, 78, 126
8, 8156, Note_on_c, 6, 78, 0
8, 8160, Note_on_c, 6, 80, 127
8, 8180, Note_on_c, 6, 80, 0
8, 8184, Note_on_c, 6, 78, 126
8, 8229, Note_on_c, 6, 78, 0
8, 8232, Note_on_c, 6, 71, 126
8, 8252, Note_on_c, 6, 71, 0
8, 8256, Note_on_c, 6, 80, 124
8, 8276, Note_on_c, 6, 80, 0
8, 8280, Note_on_c, 6, 78, 126
8, 8325, Note_on_c, 6, 78, 0
8, 8328, Note_on_c, 6, 76, 124
8, 8348, Note_on_c, 6, 76, 0
8, 8352, Note_on_c, 6, 75, 123
8, 8372, Note_on_c, 6, 75, 0
8, 8376, Note_on_c, 6, 73, 122
8, 8386, Note_on_c, 6, 73, 0
8, 8388, Note_on_c, 6, 71, 121
8, 8398, Note_on_c, 6, 71, 0
8, 8400, Note_on_c, 6, 73, 123
8, 8445, Note_on_c, 6, 73, 0
8, 8448, Note_on_c, 6, 71, 126
8, 8452, Note_on_c, 6, 71, 0
8, 8454, Control_c, 6, 11, 100
8, 8454, Note_on_c, 6, 59, 121
8, 8458, Note_on_c, 6, 59, 0
8, 8460, Note_on_c, 6, 59, 121
8, 8464, Note_on_c, 6, 59, 0
8, 8466, Note_on_c, 6, 59, 122
8, 8470, Note_on_c, 6, 59, 0
8, 8472, Note_on_c, 6, 59, 122
8, 8476, Note_on_c, 6, 59, 0
8, 8478, Note_on_c, 6, 59, 122
8, 8482, Note_on_c, 6, 59, 0
8, 8484, Note_on_c, 6, 59, 122
8, 8488, Note_on_c, 6, 59, 0
8, 8490, Note_on_c, 6, 59, 123
8, 8494, Note_on_c, 6, 59, 0
8, 8496, Control_c, 6, 11, 110
8, 8496, Note_on_c, 6, 59, 123
8, 8500, Note_on_c, 6, 59, 0
8, 8502, Note_on_c, 6, 59, 123
8, 8506, Note_on_c, 6, 59, 0
8, 8508, Note_on_c, 6, 59, 123
8, 8512, Note_on_c, 6, 59, 0
8, 8514, Note_on_c, 6, 59, 123
8, 8518, Note_on_c, 6, 59, 0
8, 8520, Note_on_c, 6, 59, 123
8, 8524, Note_on_c, 6, 59, 0
8, 8526, Note_on_c, 6, 59, 124
8, 8530, Note_on_c, 6, 59, 0
8, 8532, Note_on_c, 6, 59, 124
8, 8536, Note_on_c, 6, 59, 0
8, 8538, Note_on_c, 6, 59, 124
8, 8542, Note_on_c, 6, 59, 0
8, 8544, Control_c, 6, 11, 115
8, 8544, Note_on_c, 6, 59, 124
8, 8548, Note_on_c, 6, 59, 0
8, 8550, Note_on_c, 6, 59, 124
8, 8554, Note_on_c, 6, 59, 0
8, 8556, Note_on_c, 6, 59, 124
8, 8560, Note_on_c, 6, 59, 0
8, 8562, Note_on_c, 6, 59, 124
8, 8566, Note_on_c, 6, 59, 0
8, 8568, Note_on_c, 6, 59, 126
8, 8572, Note_on_c, 6, 59, 0
8, 8574, Note_on_c, 6, 59, 126
8, 8578, Note_on_c, 6, 59, 0
8, 8580, Note_on_c, 6, 59, 126
8, 8584, Note_on_c, 6, 59, 0
8, 8586, Note_on_c, 6, 59, 126
8, 8590, Note_on_c, 6, 59, 0
8, 8592, Control_c, 6, 11, 120
8, 8592, Note_on_c, 6, 59, 126
8, 8596, Note_on_c, 6, 59, 0
8, 8598, Note_on_c, 6, 59, 126
8, 8602, Note_on_c, 6, 59, 0
8, 8604, Note_on_c, 6, 59, 126
8, 8608, Note_on_c, 6, 59, 0
8, 8610, Note_on_c, 6, 59, 127
8, 8614, Note_on_c, 6, 59, 0
8, 8616, Note_on_c, 6, 59, 127
8, 8620, Note_on_c, 6, 59, 0
8, 8622, Note_on_c, 6, 59, 127
8, 8626, Note_on_c, 6, 59, 0
8, 8628, Note_on_c, 6, 59, 127
8, 8632, Note_on_c, 6, 59, 0
8, 8634, Note_on_c, 6, 59, 127
8, 8638, Note_on_c, 6, 59, 0
8, 8640, Control_c, 6, 7, 126
8, 8640, Note_on_c, 6, 71, 121
8, 8644, Note_on_c, 6, 71, 0
8, 8646, Note_on_c, 6, 73, 122
8, 8650, Note_on_c, 6, 73, 0
8, 8652, Note_on_c, 6, 75, 123
8, 8656, Note_on_c, 6, 75, 0
8, 8658, Note_on_c, 6, 76, 124
8, 8662, Note_on_c, 6, 76, 0
8, 8664, Note_on_c, 6, 78, 124
8, 8668, Note_on_c, 6, 78, 0
8, 8670, Note_on_c, 6, 80, 124
8, 8674, Note_on_c, 6, 80, 0
8, 8676, Note_on_c, 6, 81, 126
8, 8680, Note_on_c, 6, 81, 0
8, 8682, Note_on_c, 6, 83, 127
8, 8686, Note_on_c, 6, 83, 0
8, 8736, Note_on_c, 6, 71, 121
8, 8740, Note_on_c, 6, 71, 0
8, 8742, Note_on_c, 6, 73, 122
8, 8746, Note_on_c, 6, 73, 0
8, 8748, Note_on_c, 6, 75, 123
8, 8752, Note_on_c, 6, 75, 0
8, 8754, Note_on_c, 6, 76, 124
8, 8758, Note_on_c, 6, 76, 0
8, 8760, Note_on_c, 6, 78, 124
8, 8764, Note_on_c, 6, 78, 0
8, 8766, Note_on_c, 6, 80, 124
8, 8770, Note_on_c, 6, 80, 0
8, 8772, Note_on_c, 6, 81, 126
8, 8776, Note_on_c, 6, 81, 0
8, 8778, Note_on_c, 6, 83, 127
8, 8782, Note_on_c, 6, 83, 0
8, 8832, Control_c, 6, 7, 121
8, 8832, Control_c, 6, 11, 100
8, 8832, Note_on_c, 6, 59, 126
8, 8836, Note_on_c, 6, 59, 0
8, 8838, Note_on_c, 6, 59, 121
8, 8842, Note_on_c, 6, 59, 0
8, 8844, Note_on_c, 6, 59, 121
8, 8848, Note_on_c, 6, 59, 0
8, 8850, Note_on_c, 6, 59, 122
8, 8854, Note_on_c, 6, 59, 0
8, 8856, Note_on_c, 6, 59, 122
8, 8860, Note_on_c, 6, 59, 0
8, 8862, Note_on_c, 6, 59, 122
8, 8866, Note_on_c, 6, 59, 0
8, 8868, Note_on_c, 6, 59, 122
8, 8872, Note_on_c, 6, 59, 0
8, 8874, Note_on_c, 6, 59, 123
8, 8878, Note_on_c, 6, 59, 0
8, 8880, Control_c, 6, 11, 110
8, 8880, Note_on_c, 6, 59, 123
8, 8884, Note_on_c, 6, 59, 0
8, 8886, Note_on_c, 6, 59, 123
8, 8890, Note_on_c, 6, 59, 0
8, 8892, Note_on_c, 6, 59, 123
8, 8896, Note_on_c, 6, 59, 0
8, 8898, Note_on_c, 6, 59, 123
8, 8902, Note_on_c, 6, 59, 0
8, 8904, Note_on_c, 6, 59, 123
8, 8908, Note_on_c, 6, 59, 0
8, 8910, Note_on_c, 6, 59, 124
8, 8914, Note_on_c, 6, 59, 0
8, 8916, Note_on_c, 6, 59, 124
8, 8920, Note_on_c, 6, 59, 0
8, 8922, Note_on_c, 6, 59, 124
8, 8926, Note_on_c, 6, 59, 0
8, 8928, Control_c, 6, 11, 115
8, 8928, Note_on_c, 6, 57, 124
8, 8932, Note_on_c, 6, 57, 0
8, 8934, Note_on_c, 6, 57, 124
8, 8938, Note_on_c, 6, 57, 0
8, 8940, Note_on_c, 6, 57, 124
8, 8944, Note_on_c, 6, 57, 0
8, 8946, Note_on_c, 6, 57, 124
8, 8950, Note_on_c, 6, 57, 0
8, 8952, Note_on_c, 6, 57, 126
8, 8956, Note_on_c, 6, 57, 0
8, 8958, Note_on_c, 6, 57, 126
8, 8962, Note_on_c, 6, 57, 0
8, 8964, Note_on_c, 6, 57, 126
8, 8968, Note_on_c, 6, 57, 0
8, 8970, Note_on_c, 6, 57, 126
8, 8974, Note_on_c, 6, 57, 0
8, 8976, Control_c, 6, 11, 120
8, 8976, Note_on_c, 6, 57, 126
8, 8980, Note_on_c, 6, 57, 0
8, 8982, Note_on_c, 6, 57, 126
8, 8986, Note_on_c, 6, 57, 0
8, 8988, Note_on_c, 6, 57, 126
8, 8992, Note_on_c, 6, 57, 0
8, 8994, Note_on_c, 6, 57, 127
8, 8998, Note_on_c, 6, 57, 0
8, 9000, Note_on_c, 6, 57, 127
8, 9004, Note_on_c, 6, 57, 0
8, 9006, Note_on_c, 6, 57, 127
8, 9010, Note_on_c, 6, 57, 0
8, 9012, Note_on_c, 6, 57, 127
8, 9016, Note_on_c, 6, 57, 0
8, 9018, Note_on_c, 6, 57, 127
8, 9022, Note_on_c, 6, 57, 0
8, 9024, Note_on_c, 6, 83, 121
8, 9030, Note_on_c, 6, 83, 0
8, 9032, Note_on_c, 6, 80, 121
8, 9038, Note_on_c, 6, 80, 0
8, 9040, Note_on_c, 6, 83, 123
8, 9046, Note_on_c, 6, 83, 0
8, 9048, Note_on_c, 6, 88, 121
8, 9054, Note_on_c, 6, 88, 0
8, 9056, Note_on_c, 6, 83, 121
8, 9062, Note_on_c, 6, 83, 0
8, 9064, Note_on_c, 6, 88, 123
8, 9070, Note_on_c, 6, 88, 0
8, 9072, Note_on_c, 6, 83, 121
8, 9078, Note_on_c, 6, 83, 0
8, 9080, Note_on_c, 6, 80, 121
8, 9086, Note_on_c, 6, 80, 0
8, 9088, Note_on_c, 6, 83, 123
8, 9094, Note_on_c, 6, 83, 0
8, 9096, Note_on_c, 6, 88, 121
8, 9102, Note_on_c, 6, 88, 0
8, 9104, Note_on_c, 6, 83, 121
8, 9110, Note_on_c, 6, 83, 0
8, 9112, Note_on_c, 6, 88, 123
8, 9118, Note_on_c, 6, 88, 0
8, 9120, Note_on_c, 6, 83, 121
8, 9126, Note_on_c, 6, 83, 0
8, 9128, Note_on_c, 6, 80, 121
8, 9134, Note_on_c, 6, 80, 0
8, 9136, Note_on_c, 6, 83, 123
8, 9142, Note_on_c, 6, 83, 0
8, 9144, Note_on_c, 6, 87, 121
8, 9150, Note_on_c, 6, 87, 0
8, 9152, Note_on_c, 6, 83, 121
8, 9158, Note_on_c, 6, 83, 0
8, 9160, Note_on_c, 6, 87, 123
8, 9166, Note_on_c, 6, 87, 0
8, 9168, Note_on_c, 6, 83, 121
8, 9174, Note_on_c, 6, 83, 0
8, 9176, Note_on_c, 6, 80, 121
8, 9182, Note_on_c, 6, 80, 0
8, 9184, Note_on_c, 6, 83, 123
8, 9190, Note_on_c, 6, 83, 0
8, 9192, Note_on_c, 6, 87, 121
8, 9198, Note_on_c, 6, 87, 0
8, 9200, Note_on_c, 6, 83, 121
8, 9206, Note_on_c, 6, 83, 0
8, 9208, Note_on_c, 6, 87, 123
8, 9214, Note_on_c, 6, 87, 0
8, 9216, Note_on_c, 6, 85, 124
8, 9261, Note_on_c, 6, 85, 0
8, 9312, Note_on_c, 6, 85, 121
8, 9318, Note_on_c, 6, 85, 0
8, 9320, Note_on_c, 6, 82, 121
8, 9326, Note_on_c, 6, 82, 0
8, 9328, Note_on_c, 6, 85, 123
8, 9334, Note_on_c, 6, 85, 0
8, 9336, Note_on_c, 6, 90, 121
8, 9342, Note_on_c, 6, 90, 0
8, 9344, Note_on_c, 6, 85, 121
8, 9350, Note_on_c, 6, 85, 0
8, 9352, Note_on_c, 6, 90, 123
8, 9358, Note_on_c, 6, 90, 0
8, 9360, Note_on_c, 6, 85, 121
8, 9366, Note_on_c, 6, 85, 0
8, 9368, Note_on_c, 6, 82, 121
8, 9374, Note_on_c, 6, 82, 0
8, 9376, Note_on_c, 6, 85, 123
8, 9382, Note_on_c, 6, 85, 0
8, 9384, Note_on_c, 6, 90, 121
8, 9390, Note_on_c, 6, 90, 0
8, 9392, Note_on_c, 6, 82, 121
8, 9398, Note_on_c, 6, 82, 0
8, 9400, Note_on_c, 6, 90, 123
8, 9406, Note_on_c, 6, 90, 0
8, 9408, Note_on_c, 6, 85, 121
8, 9414, Note_on_c, 6, 85, 0
8, 9416, Note_on_c, 6, 82, 121
8, 9422, Note_on_c, 6, 82, 0
8, 9424, Note_on_c, 6, 85, 123
8, 9430, Note_on_c, 6, 85, 0
8, 9432, Note_on_c, 6, 88, 121
8, 9438, Note_on_c, 6, 88, 0
8, 9440, Note_on_c, 6, 85, 121
8, 9446, Note_on_c, 6, 85, 0
8, 9448, Note_on_c, 6, 88, 123
8, 9454, Note_on_c, 6, 88, 0
8, 9456, Note_on_c, 6, 85, 121
8, 9462, Note_on_c, 6, 85, 0
8, 9464, Note_on_c, 6, 82, 121
8, 9470, Note_on_c, 6, 82, 0
8, 9472, Note_on_c, 6, 85, 123
8, 9478, Note_on_c, 6, 85, 0
8, 9480, Note_on_c, 6, 88, 121
8, 9486, Note_on_c, 6, 88, 0
8, 9488, Note_on_c, 6, 85, 121
8, 9494, Note_on_c, 6, 85, 0
8, 9496, Note_on_c, 6, 88, 123
8, 9502, Note_on_c, 6, 88, 0
8, 9504, Note_on_c, 6, 87, 124
8, 9549, Note_on_c, 6, 87, 0
8, 9600, Note_on_c, 6, 87, 121
8, 9606, Note_on_c, 6, 87, 0
8, 9608, Note_on_c, 6, 84, 121
8, 9614, Note_on_c, 6, 84, 0
8, 9616, Note_on_c, 6, 87, 123
8, 9622, Note_on_c, 6, 87, 0
8, 9624, Note_on_c, 6, 92, 121
8, 9630, Note_on_c, 6, 92, 0
8, 9632, Note_on_c, 6, 87, 121
8, 9638, Note_on_c, 6, 87, 0
8, 9640, Note_on_c, 6, 92, 123
8, 9646, Note_on_c, 6, 92, 0
8, 9648, Note_on_c, 6, 87, 121
8, 9654, Note_on_c, 6, 87, 0
8, 9656, Note_on_c, 6, 84, 121
8, 9662, Note_on_c, 6, 84, 0
8, 9664, Note_on_c, 6, 87, 123
8, 9670, Note_on_c, 6, 87, 0
8, 9672, Note_on_c, 6, 92, 121
8, 9678, Note_on_c, 6, 92, 0
8, 9680, Note_on_c, 6, 87, 121
8, 9686, Note_on_c, 6, 87, 0
8, 9688, Note_on_c, 6, 92, 123
8, 9694, Note_on_c, 6, 92, 0
8, 9696, Note_on_c, 6, 87, 121
8, 9702, Note_on_c, 6, 87, 0
8, 9704, Note_on_c, 6, 84, 121
8, 9710, Note_on_c, 6, 84, 0
8, 9712, Note_on_c, 6, 87, 123
8, 9718, Note_on_c, 6, 87, 0
8, 9720, Note_on_c, 6, 90, 121
8, 9726, Note_on_c, 6, 90, 0
8, 9728, Note_on_c, 6, 87, 121
8, 9734, Note_on_c, 6, 87, 0
8, 9736, Note_on_c, 6, 90, 123
8, 9742, Note_on_c, 6, 90, 0
8, 9744, Note_on_c, 6, 87, 121
8, 9750, Note_on_c, 6, 87, 0
8, 9752, Note_on_c, 6, 84, 121
8, 9758, Note_on_c, 6, 84, 0
8, 9760, Note_on_c, 6, 87, 123
8, 9766, Note_on_c, 6, 87, 0
8, 9768, Note_on_c, 6, 90, 121
8, 9774, Note_on_c, 6, 90, 0
8, 9776, Note_on_c, 6, 87, 121
8, 9782, Note_on_c, 6, 87, 0
8, 9784, Note_on_c, 6, 90, 123
8, 9790, Note_on_c, 6, 90, 0
8, 9792, Note_on_c, 6, 88, 124
8, 9837, Note_on_c, 6, 88, 0
8, 9888, Note_on_c, 6, 88, 121
8, 9894, Note_on_c, 6, 88, 0
8, 9896, Note_on_c, 6, 85, 121
8, 9902, Note_on_c, 6, 85, 0
8, 9904, Note_on_c, 6, 88, 123
8, 9910, Note_on_c, 6, 88, 0
8, 9912, Note_on_c, 6, 92, 121
8, 9918, Note_on_c, 6, 92, 0
8, 9920, Note_on_c, 6, 88, 121
8, 9926, Note_on_c, 6, 88, 0
8, 9928, Note_on_c, 6, 92, 123
8, 9934, Note_on_c, 6, 92, 0
8, 9936, Note_on_c, 6, 88, 121
8, 9942, Note_on_c, 6, 88, 0
8, 9944, Note_on_c, 6, 85, 121
8, 9950, Note_on_c, 6, 85, 0
8, 9952, Note_on_c, 6, 88, 123
8, 9958, Note_on_c, 6, 88, 0
8, 9960, Note_on_c, 6, 92, 121
8, 9966, Note_on_c, 6, 92, 0
8, 9968, Note_on_c, 6, 88, 121
8, 9974, Note_on_c, 6, 88, 0
8, 9976, Note_on_c, 6, 92, 123
8, 9982, Note_on_c, 6, 92, 0
8, 9984, Note_on_c, 6, 87, 121
8, 9990, Note_on_c, 6, 87, 0
8, 9992, Note_on_c, 6, 83, 121
8, 9998, Note_on_c, 6, 83, 0
8, 10000, Note_on_c, 6, 87, 123
8, 10006, Note_on_c, 6, 87, 0
8, 10008, Note_on_c, 6, 92, 121
8, 10014, Note_on_c, 6, 92, 0
8, 10016, Note_on_c, 6, 87, 121
8, 10022, Note_on_c, 6, 87, 0
8, 10024, Note_on_c, 6, 92, 123
8, 10030, Note_on_c, 6, 92, 0
8, 10032, Note_on_c, 6, 87, 121
8, 10038, Note_on_c, 6, 87, 0
8, 10040, Note_on_c, 6, 83, 121
8, 10046, Note_on_c, 6, 83, 0
8, 10048, Note_on_c, 6, 87, 123
8, 10054, Note_on_c, 6, 87, 0
8, 10056, Note_on_c, 6, 92, 121
8, 10062, Note_on_c, 6, 92, 0
8, 10064, Note_on_c, 6, 87, 121
8, 10070, Note_on_c, 6, 87, 0
8, 10072, Note_on_c, 6, 92, 123
8, 10078, Note_on_c, 6, 92, 0
8, 10080, Note_on_c, 6, 85, 121
8, 10086, Note_on_c, 6, 85, 0
8, 10088, Note_on_c, 6, 81, 121
8, 10094, Note_on_c, 6, 81, 0
8, 10096, Note_on_c, 6, 85, 123
8, 10102, Note_on_c, 6, 85, 0
8, 10104, Note_on_c, 6, 90, 121
8, 10110, Note_on_c, 6, 90, 0
8, 10112, Note_on_c, 6, 85, 121
8, 10118, Note_on_c, 6, 85, 0
8, 10120, Note_on_c, 6, 90, 123
8, 10126, Note_on_c, 6, 90, 0
8, 10128, Note_on_c, 6, 85, 121
8, 10134, Note_on_c, 6, 85, 0
8, 10136, Note_on_c, 6, 81, 121
8, 10142, Note_on_c, 6, 81, 0
8, 10144, Note_on_c, 6, 85, 123
8, 10150, Note_on_c, 6, 85, 0
8, 10152, Note_on_c, 6, 90, 121
8, 10158, Note_on_c, 6, 90, 0
8, 10160, Note_on_c, 6, 85, 121
8, 10166, Note_on_c, 6, 85, 0
8, 10168, Note_on_c, 6, 90, 123
8, 10174, Note_on_c, 6, 90, 0
8, 10176, Note_on_c, 6, 83, 121
8, 10182, Note_on_c, 6, 83, 0
8, 10184, Note_on_c, 6, 80, 121
8, 10190, Note_on_c, 6, 80, 0
8, 10192, Note_on_c, 6, 83, 123
8, 10198, Note_on_c, 6, 83, 0
8, 10200, Note_on_c, 6, 88, 121
8, 10206, Note_on_c, 6, 88, 0
8, 10208, Note_on_c, 6, 83, 121
8, 10214, Note_on_c, 6, 83, 0
8, 10216, Note_on_c, 6, 88, 123
8, 10222, Note_on_c, 6, 88, 0
8, 10224, Note_on_c, 6, 83, 121
8, 10230, Note_on_c, 6, 83, 0
8, 10232, Note_on_c, 6, 80, 121
8, 10238, Note_on_c, 6, 80, 0
8, 10240, Note_on_c, 6, 83, 123
8, 10246, Note_on_c, 6, 83, 0
8, 10248, Note_on_c, 6, 88, 121
8, 10254, Note_on_c, 6, 88, 0
8, 10256, Note_on_c, 6, 83, 121
8, 10262, Note_on_c, 6, 83, 0
8, 10264, Note_on_c, 6, 88, 123
8, 10270, Note_on_c, 6, 88, 0
8, 10272, Note_on_c, 6, 81, 121
8, 10278, Note_on_c, 6, 81, 0
8, 10280, Note_on_c, 6, 78, 121
8, 10286, Note_on_c, 6, 78, 0
8, 10288, Note_on_c, 6, 81, 123
8, 10294, Note_on_c, 6, 81, 0
8, 10296, Note_on_c, 6, 87, 121
8, 10302, Note_on_c, 6, 87, 0
8, 10304, Note_on_c, 6, 81, 121
8, 10310, Note_on_c, 6, 81, 0
8, 10312, Note_on_c, 6, 87, 123
8, 10318, Note_on_c, 6, 87, 0
8, 10320, Note_on_c, 6, 81, 121
8, 10326, Note_on_c, 6, 81, 0
8, 10328, Note_on_c, 6, 78, 121
8, 10334, Note_on_c, 6, 78, 0
8, 10336, Note_on_c, 6, 81, 123
8, 10342, Note_on_c, 6, 81, 0
8, 10344, Note_on_c, 6, 87, 121
8, 10350, Note_on_c, 6, 87, 0
8, 10352, Note_on_c, 6, 81, 121
8, 10358, Note_on_c, 6, 81, 0
8, 10360, Note_on_c, 6, 87, 123
8, 10366, Note_on_c, 6, 87, 0
8, 10368, Note_on_c, 6, 80, 121
8, 10374, Note_on_c, 6, 80, 0
8, 10376, Note_on_c, 6, 76, 121
8, 10382, Note_on_c, 6, 76, 0
8, 10384, Note_on_c, 6, 80, 123
8, 10390, Note_on_c, 6, 80, 0
8, 10392, Note_on_c, 6, 85, 121
8, 10398, Note_on_c, 6, 85, 0
8, 10400, Note_on_c, 6, 80, 121
8, 10406, Note_on_c, 6, 80, 0
8, 10408, Note_on_c, 6, 85, 123
8, 10414, Note_on_c, 6, 85, 0
8, 10416, Note_on_c, 6, 80, 121
8, 10422, Note_on_c, 6, 80, 0
8, 10424, Note_on_c, 6, 76, 121
8, 10430, Note_on_c, 6, 76, 0
8, 10432, Note_on_c, 6, 80, 123
8, 10438, Note_on_c, 6, 80, 0
8, 10440, Note_on_c, 6, 85, 121
8, 10446, Note_on_c, 6, 85, 0
8, 10448, Note_on_c, 6, 80, 121
8, 10454, Note_on_c, 6, 80, 0
8, 10456, Note_on_c, 6, 85, 123
8, 10462, Note_on_c, 6, 85, 0
8, 10464, Note_on_c, 6, 80, 121
8, 10470, Note_on_c, 6, 80, 0
8, 10472, Note_on_c, 6, 75, 121
8, 10478, Note_on_c, 6, 75, 0
8, 10480, Note_on_c, 6, 80, 123
8, 10486, Note_on_c, 6, 80, 0
8, 10488, Note_on_c, 6, 85, 121
8, 10494, Note_on_c, 6, 85, 0
8, 10496, Note_on_c, 6, 80, 121
8, 10502, Note_on_c, 6, 80, 0
8, 10504, Note_on_c, 6, 85, 123
8, 10510, Note_on_c, 6, 85, 0
8, 10512, Note_on_c, 6, 80, 121
8, 10518, Note_on_c, 6, 80, 0
8, 10520, Note_on_c, 6, 75, 121
8, 10526, Note_on_c, 6, 75, 0
8, 10528, Note_on_c, 6, 80, 123
8, 10534, Note_on_c, 6, 80, 0
8, 10536, Note_on_c, 6, 85, 121
8, 10542, Note_on_c, 6, 85, 0
8, 10544, Note_on_c, 6, 80, 121
8, 10550, Note_on_c, 6, 80, 0
8, 10552, Note_on_c, 6, 85, 123
8, 10558, Note_on_c, 6, 85, 0
8, 10560, Note_on_c, 6, 80, 121
8, 10566, Note_on_c, 6, 80, 0
8, 10568, Note_on_c, 6, 75, 121
8, 10574, Note_on_c, 6, 75, 0
8, 10576, Note_on_c, 6, 80, 123
8, 10582, Note_on_c, 6, 80, 0
8, 10584, Note_on_c, 6, 84, 121
8, 10590, Note_on_c, 6, 84, 0
8, 10592, Note_on_c, 6, 80, 121
8, 10598, Note_on_c, 6, 80, 0
8, 10600, Note_on_c, 6, 84, 123
8, 10606, Note_on_c, 6, 84, 0
8, 10608, Note_on_c, 6, 80, 121
8, 10614, Note_on_c, 6, 80, 0
8, 10616, Note_on_c, 6, 75, 121
8, 10622, Note_on_c, 6, 75, 0
8, 10624, Note_on_c, 6, 80, 123
8, 10630, Note_on_c, 6, 80, 0
8, 10632, Note_on_c, 6, 84, 121
8, 10638, Note_on_c, 6, 84, 0
8, 10640, Note_on_c, 6, 80, 121
8, 10646, Note_on_c, 6, 80, 0
8, 10648, Note_on_c, 6, 84, 123
8, 10654, Note_on_c, 6, 84, 0
8, 10656, Note_on_c, 6, 85, 121
8, 10701, Note_on_c, 6, 85, 0
8, 10728, Note_on_c, 6, 61, 115
8, 10728, Note_on_c, 6, 73, 121
8, 10748, Note_on_c, 6, 61, 0
8, 10748, Note_on_c, 6, 73, 0
8, 10752, Note_on_c, 6, 68, 115
8, 10752, Note_on_c, 6, 80, 121
8, 10767, Note_on_c, 6, 68, 0
8, 10767, Note_on_c, 6, 80, 0
8, 10776, Note_on_c, 6, 78, 123
8, 10786, Note_on_c, 6, 78, 0
8, 10788, Note_on_c, 6, 76, 122
8, 10798, Note_on_c, 6, 76, 0
8, 10800, Note_on_c, 6, 78, 123
8, 10820, Note_on_c, 6, 78, 0
8, 10824, Note_on_c, 6, 80, 126
8, 10844, Note_on_c, 6, 80, 0
8, 10848, Note_on_c, 6, 81, 126
8, 10868, Note_on_c, 6, 81, 0
8, 10872, Note_on_c, 6, 80, 124
8, 10917, Note_on_c, 6, 80, 0
8, 10920, Note_on_c, 6, 73, 124
8, 10940, Note_on_c, 6, 73, 0
8, 10944, Note_on_c, 6, 80, 121
8, 10959, Note_on_c, 6, 80, 0
8, 10968, Note_on_c, 6, 78, 123
8, 10978, Note_on_c, 6, 78, 0
8, 10980, Note_on_c, 6, 76, 122
8, 10990, Note_on_c, 6, 76, 0
8, 10992, Note_on_c, 6, 78, 123
8, 11012, Note_on_c, 6, 78, 0
8, 11016, Note_on_c, 6, 80, 126
8, 11036, Note_on_c, 6, 80, 0
8, 11040, Note_on_c, 6, 81, 126
8, 11060, Note_on_c, 6, 81, 0
8, 11064, Note_on_c, 6, 80, 124
8, 11109, Note_on_c, 6, 80, 0
8, 11112, Note_on_c, 6, 73, 124
8, 11132, Note_on_c, 6, 73, 0
8, 11136, Note_on_c, 6, 81, 124
8, 11156, Note_on_c, 6, 81, 0
8, 11160, Note_on_c, 6, 80, 126
8, 11205, Note_on_c, 6, 80, 0
8, 11208, Note_on_c, 6, 78, 124
8, 11228, Note_on_c, 6, 78, 0
8, 11232, Note_on_c, 6, 76, 123
8, 11252, Note_on_c, 6, 76, 0
8, 11256, Note_on_c, 6, 75, 122
8, 11266, Note_on_c, 6, 75, 0
8, 11268, Note_on_c, 6, 73, 121
8, 11278, Note_on_c, 6, 73, 0
8, 11280, Note_on_c, 6, 75, 126
8, 11286, Note_on_c, 6, 75, 0
8, 11286, Note_on_c, 6, 76, 121
8, 11292, Note_on_c, 6, 76, 0
8, 11292, Note_on_c, 6, 75, 118
8, 11298, Note_on_c, 6, 75, 0
8, 11298, Note_on_c, 6, 76, 115
8, 11304, Note_on_c, 6, 76, 0
8, 11304, Note_on_c, 6, 75, 112
8, 11310, Note_on_c, 6, 75, 0
8, 11310, Note_on_c, 6, 76, 108
8, 11316, Note_on_c, 6, 76, 0
8, 11316, Note_on_c, 6, 75, 103
8, 11322, Note_on_c, 6, 75, 0
8, 11322, Note_on_c, 6, 76, 103
8, 11328, Note_on_c, 6, 76, 0
8, 11328, Control_c, 6, 1, 100
8, 11328, Note_on_c, 6, 61, 123
8, 11348, Note_on_c, 6, 61, 0
8, 11352, Note_on_c, 6, 80, 121
8, 11372, Note_on_c, 6, 80, 0
8, 11376, Note_on_c, 6, 80, 121
8, 11396, Note_on_c, 6, 80, 0
8, 11400, Note_on_c, 6, 80, 121
8, 11420, Note_on_c, 6, 80, 0
8, 11424, Note_on_c, 6, 80, 123
8, 11444, Note_on_c, 6, 80, 0
8, 11448, Note_on_c, 6, 80, 121
8, 11468, Note_on_c, 6, 80, 0
8, 11472, Note_on_c, 6, 80, 123
8, 11492, Note_on_c, 6, 80, 0
8, 11496, Note_on_c, 6, 80, 121
8, 11516, Note_on_c, 6, 80, 0
8, 11520, Note_on_c, 6, 81, 123
8, 11540, Note_on_c, 6, 81, 0
8, 11544, Note_on_c, 6, 81, 121
8, 11564, Note_on_c, 6, 81, 0
8, 11568, Note_on_c, 6, 82, 123
8, 11588, Note_on_c, 6, 82, 0
8, 11592, Note_on_c, 6, 82, 121
8, 11612, Note_on_c, 6, 82, 0
8, 11616, Note_on_c, 6, 83, 123
8, 11636, Note_on_c, 6, 83, 0
8, 11640, Note_on_c, 6, 83, 121
8, 11660, Note_on_c, 6, 83, 0
8, 11664, Note_on_c, 6, 84, 123
8, 11684, Note_on_c, 6, 84, 0
8, 11688, Note_on_c, 6, 84, 121
8, 11708, Note_on_c, 6, 84, 0
8, 11712, Note_on_c, 6, 85, 126
8, 11718, Note_on_c, 6, 85, 0
8, 11718, Note_on_c, 6, 87, 124
8, 11724, Note_on_c, 6, 87, 0
8, 11724, Note_on_c, 6, 85, 123
8, 11730, Note_on_c, 6, 85, 0
8, 11730, Note_on_c, 6, 87, 122
8, 11736, Note_on_c, 6, 87, 0
8, 11736, Note_on_c, 6, 85, 121
8, 11742, Note_on_c, 6, 85, 0
8, 11742, Note_on_c, 6, 87, 119
8, 11748, Note_on_c, 6, 87, 0
8, 11748, Note_on_c, 6, 85, 118
8, 11754, Note_on_c, 6, 85, 0
8, 11754, Note_on_c, 6, 87, 117
8, 11760, Note_on_c, 6, 87, 0
8, 11760, Note_on_c, 6, 85, 115
8, 11766, Note_on_c, 6, 85, 0
8, 11766, Note_on_c, 6, 87, 113
8, 11772, Note_on_c, 6, 87, 0
8, 11772, Note_on_c, 6, 85, 112
8, 11778, Note_on_c, 6, 85, 0
8, 11778, Note_on_c, 6, 87, 112
8, 11784, Note_on_c, 6, 87, 0
8, 11784, Note_on_c, 6, 85, 112
8, 11790, Note_on_c, 6, 85, 0
8, 11790, Note_on_c, 6, 87, 111
8, 11796, Note_on_c, 6, 87, 0
8, 11796, Note_on_c, 6, 85, 108
8, 11802, Note_on_c, 6, 85, 0
8, 11802, Note_on_c, 6, 87, 110
8, 11808, Note_on_c, 6, 87, 0
8, 11808, Note_on_c, 6, 85, 110
8, 11814, Note_on_c, 6, 85, 0
8, 11814, Note_on_c, 6, 87, 108
8, 11820, Note_on_c, 6, 87, 0
8, 11820, Note_on_c, 6, 85, 108
8, 11826, Note_on_c, 6, 85, 0
8, 11826, Note_on_c, 6, 87, 107
8, 11832, Note_on_c, 6, 87, 0
8, 11832, Note_on_c, 6, 85, 106
8, 11838, Note_on_c, 6, 85, 0
8, 11838, Note_on_c, 6, 87, 105
8, 11844, Note_on_c, 6, 87, 0
8, 11844, Note_on_c, 6, 85, 104
8, 11850, Note_on_c, 6, 85, 0
8, 11850, Note_on_c, 6, 87, 104
8, 11856, Note_on_c, 6, 87, 0
8, 11856, Note_on_c, 6, 85, 103
8, 11862, Note_on_c, 6, 85, 0
8, 11862, Note_on_c, 6, 87, 102
8, 11868, Note_on_c, 6, 87, 0
8, 11868, Note_on_c, 6, 85, 102
8, 11874, Note_on_c, 6, 85, 0
8, 11874, Note_on_c, 6, 87, 100
8, 11880, Note_on_c, 6, 87, 0
8, 11880, Note_on_c, 6, 85, 100
8, 11886, Note_on_c, 6, 85, 0
8, 11886, Note_on_c, 6, 87, 97
8, 11892, Note_on_c, 6, 87, 0
8, 11892, Note_on_c, 6, 85, 97
8, 11898, Note_on_c, 6, 85, 0
8, 11898, Note_on_c, 6, 87, 94
8, 11904, Note_on_c, 6, 87, 0
8, 11904, Note_on_c, 6, 85, 96
8, 11910, Note_on_c, 6, 85, 0
8, 11910, Note_on_c, 6, 87, 96
8, 11916, Note_on_c, 6, 87, 0
8, 11916, Note_on_c, 6, 85, 94
8, 11922, Note_on_c, 6, 85, 0
8, 11922, Note_on_c, 6, 87, 94
8, 11928, Note_on_c, 6, 87, 0
8, 11928, Note_on_c, 6, 85, 94
8, 11934, Note_on_c, 6, 85, 0
8, 11934, Note_on_c, 6, 87, 94
8, 11940, Note_on_c, 6, 87, 0
8, 11940, Note_on_c, 6, 85, 94
8, 11946, Note_on_c, 6, 85, 0
8, 11946, Note_on_c, 6, 87, 94
8, 11952, Note_on_c, 6, 87, 0
8, 11952, Note_on_c, 6, 85, 94
8, 11958, Note_on_c, 6, 85, 0
8, 11958, Note_on_c, 6, 87, 94
8, 11964, Note_on_c, 6, 87, 0
8, 11964, Note_on_c, 6, 85, 90
8, 11970, Note_on_c, 6, 85, 0
8, 11970, Note_on_c, 6, 87, 90
8, 11976, Note_on_c, 6, 87, 0
8, 11976, Note_on_c, 6, 85, 90
8, 11982, Note_on_c, 6, 85, 0
8, 11982, Note_on_c, 6, 87, 90
8, 11988, Note_on_c, 6, 87, 0
8, 11988, Note_on_c, 6, 85, 90
8, 11994, Note_on_c, 6, 85, 0
8, 11994, Note_on_c, 6, 87, 90
8, 12000, Note_on_c, 6, 87, 0
8, 12000, Note_on_c, 6, 85, 90
8, 12006, Note_on_c, 6, 85, 0
8, 12006, Note_on_c, 6, 87, 90
8, 12012, Note_on_c, 6, 87, 0
8, 12012, Note_on_c, 6, 85, 90
8, 12018, Note_on_c, 6, 85, 0
8, 12018, Note_on_c, 6, 87, 90
8, 12024, Note_on_c, 6, 87, 0
8, 12024, Note_on_c, 6, 85, 88
8, 12030, Note_on_c, 6, 85, 0
8, 12030, Note_on_c, 6, 87, 88
8, 12036, Note_on_c, 6, 87, 0
8, 12036, Note_on_c, 6, 85, 88
8, 12042, Note_on_c, 6, 85, 0
8, 12042, Note_on_c, 6, 87, 88
8, 12048, Note_on_c, 6, 87, 0
8, 12048, Note_on_c, 6, 85, 88
8, 12054, Note_on_c, 6, 85, 0
8, 12054, Note_on_c, 6, 87, 88
8, 12060, Note_on_c, 6, 87, 0
8, 12060, Note_on_c, 6, 85, 88
8, 12066, Note_on_c, 6, 85, 0
8, 12066, Note_on_c, 6, 87, 88
8, 12072, Note_on_c, 6, 87, 0
8, 12072, Note_on_c, 6, 85, 85
8, 12078, Note_on_c, 6, 85, 0
8, 12078, Note_on_c, 6, 87, 85
8, 12084, Note_on_c, 6, 87, 0
8, 12084, Note_on_c, 6, 85, 85
8, 12090, Note_on_c, 6, 85, 0
8, 12090, Note_on_c, 6, 87, 85
8, 12096, Note_on_c, 6, 87, 0
8, 12672, Control_c, 6, 7, 122
8, 12672, Control_c, 6, 1, 60
8, 12672, Note_on_c, 6, 68, 119
8, 12672, Note_on_c, 6, 80, 123
8, 12688, Note_on_c, 6, 68, 0
8, 12688, Note_on_c, 6, 80, 0
8, 12696, Note_on_c, 6, 80, 124
8, 12714, Note_on_c, 6, 80, 0
8, 12720, Note_on_c, 6, 80, 124
8, 12736, Note_on_c, 6, 80, 0
8, 12744, Note_on_c, 6, 78, 123
8, 12754, Note_on_c, 6, 78, 0
8, 12756, Note_on_c, 6, 80, 124
8, 12766, Note_on_c, 6, 80, 0
8, 12768, Note_on_c, 6, 81, 126
8, 12838, Note_on_c, 6, 81, 0
8, 12840, Note_on_c, 6, 81, 121
8, 12850, Note_on_c, 6, 81, 0
8, 12852, Note_on_c, 6, 80, 122
8, 12862, Note_on_c, 6, 80, 0
8, 12864, Note_on_c, 6, 78, 123
8, 12880, Note_on_c, 6, 78, 0
8, 12888, Note_on_c, 6, 78, 124
8, 12908, Note_on_c, 6, 78, 0
8, 12912, Note_on_c, 6, 78, 124
8, 12929, Note_on_c, 6, 78, 0
8, 12936, Note_on_c, 6, 76, 123
8, 12946, Note_on_c, 6, 76, 0
8, 12948, Note_on_c, 6, 78, 124
8, 12958, Note_on_c, 6, 78, 0
8, 12960, Note_on_c, 6, 80, 126
8, 13030, Note_on_c, 6, 80, 0
8, 13032, Note_on_c, 6, 80, 121
8, 13042, Note_on_c, 6, 80, 0
8, 13044, Note_on_c, 6, 81, 122
8, 13054, Note_on_c, 6, 81, 0
8, 13056, Note_on_c, 6, 83, 123
8, 13072, Note_on_c, 6, 83, 0
8, 13080, Note_on_c, 6, 83, 124
8, 13100, Note_on_c, 6, 83, 0
8, 13104, Note_on_c, 6, 83, 124
8, 13121, Note_on_c, 6, 83, 0
8, 13128, Note_on_c, 6, 83, 122
8, 13138, Note_on_c, 6, 83, 0
8, 13140, Note_on_c, 6, 81, 123
8, 13150, Note_on_c, 6, 81, 0
8, 13152, Note_on_c, 6, 80, 121
8, 13168, Note_on_c, 6, 80, 0
8, 13176, Note_on_c, 6, 80, 123
8, 13193, Note_on_c, 6, 80, 0
8, 13200, Note_on_c, 6, 80, 122
8, 13220, Note_on_c, 6, 80, 0
8, 13224, Note_on_c, 6, 80, 121
8, 13234, Note_on_c, 6, 80, 0
8, 13236, Note_on_c, 6, 81, 124
8, 13246, Note_on_c, 6, 81, 0
8, 13248, Note_on_c, 6, 83, 123
8, 13264, Note_on_c, 6, 83, 0
8, 13272, Note_on_c, 6, 83, 124
8, 13292, Note_on_c, 6, 83, 0
8, 13296, Note_on_c, 6, 83, 124
8, 13313, Note_on_c, 6, 83, 0
8, 13320, Note_on_c, 6, 83, 122
8, 13330, Note_on_c, 6, 83, 0
8, 13332, Note_on_c, 6, 81, 123
8, 13342, Note_on_c, 6, 81, 0
8, 13344, Note_on_c, 6, 80, 121
8, 13360, Note_on_c, 6, 80, 0
8, 13368, Note_on_c, 6, 80, 123
8, 13386, Note_on_c, 6, 80, 0
8, 13392, Note_on_c, 6, 80, 122
8, 13412, Note_on_c, 6, 80, 0
8, 13416, Note_on_c, 6, 80, 121
8, 13426, Note_on_c, 6, 80, 0
8, 13428, Note_on_c, 6, 81, 124
8, 13438, Note_on_c, 6, 81, 0
8, 13440, Note_on_c, 6, 83, 123
8, 13456, Note_on_c, 6, 83, 0
8, 13464, Note_on_c, 6, 83, 124
8, 13484, Note_on_c, 6, 83, 0
8, 13488, Note_on_c, 6, 83, 124
8, 13505, Note_on_c, 6, 83, 0
8, 13512, Note_on_c, 6, 81, 122
8, 13522, Note_on_c, 6, 81, 0
8, 13524, Note_on_c, 6, 80, 123
8, 13534, Note_on_c, 6, 80, 0
8, 13536, Control_c, 6, 7, 115
8, 13536, Note_on_c, 6, 78, 121
8, 13548, Note_on_c, 6, 78, 0
8, 13548, Note_on_c, 6, 71, 121
8, 13560, Note_on_c, 6, 71, 0
8, 13560, Note_on_c, 6, 73, 124
8, 13572, Note_on_c, 6, 73, 0
8, 13572, Note_on_c, 6, 71, 121
8, 13584, Note_on_c, 6, 71, 0
8, 13584, Note_on_c, 6, 75, 124
8, 13596, Note_on_c, 6, 75, 0
8, 13596, Note_on_c, 6, 73, 121
8, 13608, Note_on_c, 6, 73, 0
8, 13608, Note_on_c, 6, 76, 124
8, 13620, Note_on_c, 6, 76, 0
8, 13620, Note_on_c, 6, 73, 121
8, 13632, Note_on_c, 6, 73, 0
8, 13632, Note_on_c, 6, 78, 123
8, 13642, Note_on_c, 6, 78, 0
8, 13644, Note_on_c, 6, 76, 119
8, 13654, Note_on_c, 6, 76, 0
8, 13656, Note_on_c, 6, 80, 123
8, 13668, Note_on_c, 6, 80, 0
8, 13668, Note_on_c, 6, 78, 119
8, 13680, Note_on_c, 6, 78, 0
8, 13680, Note_on_c, 6, 81, 123
8, 13692, Note_on_c, 6, 81, 0
8, 13692, Note_on_c, 6, 80, 119
8, 13704, Note_on_c, 6, 80, 0
8, 13704, Note_on_c, 6, 83, 123
8, 13716, Note_on_c, 6, 83, 0
8, 13716, Note_on_c, 6, 81, 119
8, 13728, Note_on_c, 6, 81, 0
8, 13728, Note_on_c, 6, 71, 123
8, 13740, Note_on_c, 6, 71, 0
8, 13740, Note_on_c, 6, 69, 119
8, 13752, Note_on_c, 6, 69, 0
8, 13752, Note_on_c, 6, 73, 123
8, 13764, Note_on_c, 6, 73, 0
8, 13764, Note_on_c, 6, 71, 119
8, 13776, Note_on_c, 6, 71, 0
8, 13776, Note_on_c, 6, 75, 123
8, 13788, Note_on_c, 6, 75, 0
8, 13788, Note_on_c, 6, 73, 119
8, 13800, Note_on_c, 6, 73, 0
8, 13800, Note_on_c, 6, 76, 123
8, 13812, Note_on_c, 6, 76, 0
8, 13812, Note_on_c, 6, 75, 119
8, 13824, Note_on_c, 6, 75, 0
8, 13824, Note_on_c, 6, 78, 123
8, 13834, Note_on_c, 6, 78, 0
8, 13836, Note_on_c, 6, 76, 119
8, 13846, Note_on_c, 6, 76, 0
8, 13848, Note_on_c, 6, 80, 123
8, 13860, Note_on_c, 6, 80, 0
8, 13860, Note_on_c, 6, 78, 119
8, 13872, Note_on_c, 6, 78, 0
8, 13872, Note_on_c, 6, 81, 123
8, 13884, Note_on_c, 6, 81, 0
8, 13884, Note_on_c, 6, 80, 119
8, 13896, Note_on_c, 6, 80, 0
8, 13896, Note_on_c, 6, 83, 123
8, 13908, Note_on_c, 6, 83, 0
8, 13908, Note_on_c, 6, 81, 119
8, 13920, Note_on_c, 6, 81, 0
8, 13920, Note_on_c, 6, 80, 123
8, 13932, Note_on_c, 6, 80, 0
8, 13932, Note_on_c, 6, 76, 119
8, 13944, Note_on_c, 6, 76, 0
8, 13944, Note_on_c, 6, 78, 123
8, 13956, Note_on_c, 6, 78, 0
8, 13956, Note_on_c, 6, 76, 119
8, 13968, Note_on_c, 6, 76, 0
8, 13968, Note_on_c, 6, 80, 123
8, 13980, Note_on_c, 6, 80, 0
8, 13980, Note_on_c, 6, 76, 119
8, 13992, Note_on_c, 6, 76, 0
8, 13992, Note_on_c, 6, 78, 123
8, 14004, Note_on_c, 6, 78, 0
8, 14004, Note_on_c, 6, 76, 119
8, 14016, Note_on_c, 6, 76, 0
8, 14016, Note_on_c, 6, 81, 123
8, 14026, Note_on_c, 6, 81, 0
8, 14028, Note_on_c, 6, 76, 119
8, 14038, Note_on_c, 6, 76, 0
8, 14040, Note_on_c, 6, 78, 123
8, 14052, Note_on_c, 6, 78, 0
8, 14052, Note_on_c, 6, 76, 119
8, 14064, Note_on_c, 6, 76, 0
8, 14064, Note_on_c, 6, 81, 123
8, 14076, Note_on_c, 6, 81, 0
8, 14076, Note_on_c, 6, 76, 119
8, 14088, Note_on_c, 6, 76, 0
8, 14088, Note_on_c, 6, 78, 123
8, 14100, Note_on_c, 6, 78, 0
8, 14100, Note_on_c, 6, 76, 119
8, 14112, Note_on_c, 6, 76, 0
8, 14112, Note_on_c, 6, 83, 121
8, 14124, Note_on_c, 6, 83, 0
8, 14124, Note_on_c, 6, 76, 119
8, 14136, Note_on_c, 6, 76, 0
8, 14136, Note_on_c, 6, 78, 123
8, 14148, Note_on_c, 6, 78, 0
8, 14148, Note_on_c, 6, 76, 119
8, 14160, Note_on_c, 6, 76, 0
8, 14160, Note_on_c, 6, 83, 121
8, 14172, Note_on_c, 6, 83, 0
8, 14172, Note_on_c, 6, 76, 119
8, 14184, Note_on_c, 6, 76, 0
8, 14184, Note_on_c, 6, 78, 123
8, 14196, Note_on_c, 6, 78, 0
8, 14196, Note_on_c, 6, 76, 119
8, 14208, Note_on_c, 6, 76, 0
8, 14208, Note_on_c, 6, 85, 119
8, 14232, Note_on_c, 6, 85, 0
8, 14232, Note_on_c, 6, 87, 119
8, 14256, Note_on_c, 6, 87, 0
8, 14256, Note_on_c, 6, 88, 121
8, 14301, Note_on_c, 6, 88, 0
8, 14304, Note_on_c, 6, 88, 121
8, 14316, Note_on_c, 6, 88, 0
8, 14316, Note_on_c, 6, 83, 119
8, 14328, Note_on_c, 6, 83, 0
8, 14328, Note_on_c, 6, 88, 121
8, 14340, Note_on_c, 6, 88, 0
8, 14340, Note_on_c, 6, 83, 119
8, 14352, Note_on_c, 6, 83, 0
8, 14352, Note_on_c, 6, 85, 121
8, 14364, Note_on_c, 6, 85, 0
8, 14364, Note_on_c, 6, 83, 119
8, 14376, Note_on_c, 6, 83, 0
8, 14376, Note_on_c, 6, 88, 121
8, 14388, Note_on_c, 6, 88, 0
8, 14388, Note_on_c, 6, 83, 119
8, 14400, Note_on_c, 6, 83, 0
8, 14400, Note_on_c, 6, 85, 121
8, 14412, Note_on_c, 6, 85, 0
8, 14412, Note_on_c, 6, 83, 119
8, 14424, Note_on_c, 6, 83, 0
8, 14424, Note_on_c, 6, 88, 121
8, 14436, Note_on_c, 6, 88, 0
8, 14436, Note_on_c, 6, 83, 119
8, 14448, Note_on_c, 6, 83, 0
8, 14448, Note_on_c, 6, 85, 121
8, 14460, Note_on_c, 6, 85, 0
8, 14460, Note_on_c, 6, 83, 119
8, 14472, Note_on_c, 6, 83, 0
8, 14472, Note_on_c, 6, 88, 121
8, 14484, Note_on_c, 6, 88, 0
8, 14484, Note_on_c, 6, 83, 119
8, 14496, Note_on_c, 6, 83, 0
8, 14496, Note_on_c, 6, 88, 121
8, 14516, Note_on_c, 6, 88, 0
8, 14520, Note_on_c, 6, 76, 123
8, 14540, Note_on_c, 6, 76, 0
8, 14544, Note_on_c, 6, 78, 122
8, 14550, Note_on_c, 6, 78, 0
8, 14550, Note_on_c, 6, 80, 119
8, 14556, Note_on_c, 6, 80, 0
8, 14556, Note_on_c, 6, 78, 118
8, 14562, Note_on_c, 6, 78, 0
8, 14562, Note_on_c, 6, 80, 117
8, 14568, Note_on_c, 6, 80, 0
8, 14568, Note_on_c, 6, 78, 115
8, 14574, Note_on_c, 6, 78, 0
8, 14574, Note_on_c, 6, 80, 113
8, 14580, Note_on_c, 6, 80, 0
8, 14580, Note_on_c, 6, 78, 112
8, 14586, Note_on_c, 6, 78, 0
8, 14586, Note_on_c, 6, 80, 110
8, 14592, Note_on_c, 6, 80, 0
8, 14592, Control_c, 6, 7, 123
8, 14592, Note_on_c, 6, 64, 115
8, 14592, Note_on_c, 6, 76, 121
8, 14622, Note_on_c, 6, 64, 0
8, 14622, Note_on_c, 6, 76, 0
8, 14628, Note_on_c, 6, 80, 121
8, 14638, Note_on_c, 6, 80, 0
8, 14640, Note_on_c, 6, 81, 123
8, 14660, Note_on_c, 6, 81, 0
8, 14664, Note_on_c, 6, 83, 126
8, 14684, Note_on_c, 6, 83, 0
8, 14688, Note_on_c, 6, 85, 127
8, 14708, Note_on_c, 6, 85, 0
8, 14712, Note_on_c, 6, 83, 124
8, 14757, Note_on_c, 6, 83, 0
8, 14760, Note_on_c, 6, 76, 121
8, 14780, Note_on_c, 6, 76, 0
8, 14784, Note_on_c, 6, 83, 121
8, 14801, Note_on_c, 6, 83, 0
8, 14808, Note_on_c, 6, 81, 123
8, 14818, Note_on_c, 6, 81, 0
8, 14820, Note_on_c, 6, 80, 122
8, 14830, Note_on_c, 6, 80, 0
8, 14832, Note_on_c, 6, 81, 123
8, 14852, Note_on_c, 6, 81, 0
8, 14856, Note_on_c, 6, 83, 126
8, 14876, Note_on_c, 6, 83, 0
8, 14880, Note_on_c, 6, 85, 127
8, 14900, Note_on_c, 6, 85, 0
8, 14904, Note_on_c, 6, 83, 126
8, 14949, Note_on_c, 6, 83, 0
8, 14952, Note_on_c, 6, 76, 121
8, 14972, Note_on_c, 6, 76, 0
8, 14976, Note_on_c, 6, 85, 124
8, 14996, Note_on_c, 6, 85, 0
8, 15000, Note_on_c, 6, 83, 126
8, 15045, Note_on_c, 6, 83, 0
8, 15048, Note_on_c, 6, 81, 124
8, 15068, Note_on_c, 6, 81, 0
8, 15072, Note_on_c, 6, 80, 123
8, 15092, Note_on_c, 6, 80, 0
8, 15096, Note_on_c, 6, 78, 122
8, 15106, Note_on_c, 6, 78, 0
8, 15108, Note_on_c, 6, 76, 121
8, 15118, Note_on_c, 6, 76, 0
8, 15120, Note_on_c, 6, 78, 126
8, 15126, Note_on_c, 6, 78, 0
8, 15126, Note_on_c, 6, 80, 121
8, 15132, Note_on_c, 6, 80, 0
8, 15132, Note_on_c, 6, 78, 118
8, 15138, Note_on_c, 6, 78, 0
8, 15138, Note_on_c, 6, 80, 115
8, 15144, Note_on_c, 6, 80, 0
8, 15144, Note_on_c, 6, 78, 112
8, 15150, Note_on_c, 6, 78, 0
8, 15150, Note_on_c, 6, 80, 108
8, 15156, Note_on_c, 6, 80, 0
8, 15156, Note_on_c, 6, 78, 103
8, 15162, Note_on_c, 6, 78, 0
8, 15162, Note_on_c, 6, 80, 103
8, 15168, Note_on_c, 6, 80, 0
8, 15168, Note_on_c, 6, 76, 121
8, 15213, Note_on_c, 6, 76, 0
8, 15240, Note_on_c, 6, 76, 115
8, 15255, Note_on_c, 6, 76, 0
8, 15264, Note_on_c, 6, 83, 115
8, 15279, Note_on_c, 6, 83, 0
8, 15288, Note_on_c, 6, 81, 112
8, 15298, Note_on_c, 6, 81, 0
8, 15300, Note_on_c, 6, 80, 110
8, 15310, Note_on_c, 6, 80, 0
8, 15312, Note_on_c, 6, 81, 112
8, 15332, Note_on_c, 6, 81, 0
8, 15336, Note_on_c, 6, 83, 115
8, 15356, Note_on_c, 6, 83, 0
8, 15360, Note_on_c, 6, 85, 117
8, 15380, Note_on_c, 6, 85, 0
8, 15384, Note_on_c, 6, 83, 115
8, 15429, Note_on_c, 6, 83, 0
8, 15432, Note_on_c, 6, 76, 112
8, 15452, Note_on_c, 6, 76, 0
8, 15456, Note_on_c, 6, 83, 115
8, 15474, Note_on_c, 6, 83, 0
8, 15480, Note_on_c, 6, 81, 112
8, 15490, Note_on_c, 6, 81, 0
8, 15492, Note_on_c, 6, 80, 110
8, 15502, Note_on_c, 6, 80, 0
8, 15504, Note_on_c, 6, 81, 112
8, 15524, Note_on_c, 6, 81, 0
8, 15528, Note_on_c, 6, 83, 115
8, 15548, Note_on_c, 6, 83, 0
8, 15552, Note_on_c, 6, 85, 117
8, 15572, Note_on_c, 6, 85, 0
8, 15576, Note_on_c, 6, 83, 115
8, 15621, Note_on_c, 6, 83, 0
8, 15624, Note_on_c, 6, 76, 112
8, 15644, Note_on_c, 6, 76, 0
8, 15648, Note_on_c, 6, 85, 117
8, 15668, Note_on_c, 6, 85, 0
8, 15672, Note_on_c, 6, 83, 115
8, 15717, Note_on_c, 6, 83, 0
8, 15720, Note_on_c, 6, 81, 112
8, 15740, Note_on_c, 6, 81, 0
8, 15744, Note_on_c, 6, 80, 115
8, 15764, Note_on_c, 6, 80, 0
8, 15768, Note_on_c, 6, 78, 113
8, 15778, Note_on_c, 6, 78, 0
8, 15780, Note_on_c, 6, 76, 112
8, 15790, Note_on_c, 6, 76, 0
8, 15792, Note_on_c, 6, 78, 121
8, 15798, Note_on_c, 6, 78, 0
8, 15798, Note_on_c, 6, 80, 115
8, 15804, Note_on_c, 6, 80, 0
8, 15804, Note_on_c, 6, 78, 112
8, 15810, Note_on_c, 6, 78, 0
8, 15810, Note_on_c, 6, 80, 108
8, 15816, Note_on_c, 6, 80, 0
8, 15816, Note_on_c, 6, 78, 103
8, 15822, Note_on_c, 6, 78, 0
8, 15822, Note_on_c, 6, 80, 97
8, 15828, Note_on_c, 6, 80, 0
8, 15828, Note_on_c, 6, 78, 90
8, 15834, Note_on_c, 6, 78, 0
8, 15834, Note_on_c, 6, 80, 90
8, 15840, Note_on_c, 6, 80, 0
8, 15840, Control_c, 6, 7, 115
8, 15840, Note_on_c, 6, 76, 90
8, 15852, Control_c, 6, 7, 118
8, 15864, Control_c, 6, 7, 121
8, 15876, Control_c, 6, 7, 123
8, 16088, Note_on_c, 6, 76, 0
8, 16128, Control_c, 6, 7, 120
8, 16128, End_track
9, 0, Start_track
9, 0, Title_t, "WinJammer Demo"
9, 0, Instrument_name_t, "Unnamed"
9, 0, MIDI_port, 0
9, 0, Control_c, 7, 7, 0
9, 0, End_track
10, 0, Start_track
10, 0, Title_t, "WinJammer Demo"
10, 0, Instrument_name_t, "Unnamed"
10, 0, MIDI_port, 0
10, 0, Control_c, 8, 7, 0
10, 0, Control_c, 8, 10, 64
10, 0, Control_c, 8, 64, 0
10, 0, Control_c, 8, 1, 0
10, 0, Pitch_bend_c, 8, 8192
10, 0, Program_c, 8, 122
10, 0, End_track
11, 0, Start_track
11, 0, Title_t, "WinJammer Demo"
11, 0, Instrument_name_t, "Rhythm"
11, 0, MIDI_port, 0
11, 0, Control_c, 9, 7, 0
11, 0, End_track
0, 0, End_of_file
