0, 0, Header, 1, 17, 120
1, 0, Start_track
1, 0, Time_signature, 4, 2, 24, 8
1, 0, End_track
2, 0, Start_track
2, 0, Title_t, "1st Violin     "
2, 0, Channel_prefix, 0
2, 2640, Note_on_c, 0, 55, 120
2, 2760, Note_on_c, 0, 61, 120
2, 2762, Note_on_c, 0, 55, 0
2, 2867, Note_on_c, 0, 61, 0
2, 2880, Note_on_c, 0, 62, 120
2, 2880, Note_on_c, 0, 61, 120
2, 2885, Note_on_c, 0, 61, 0
2, 2949, Note_on_c, 0, 62, 0
2, 3120, Note_on_c, 0, 55, 120
2, 3238, Note_on_c, 0, 55, 0
2, 3240, Note_on_c, 0, 61, 120
2, 3357, Note_on_c, 0, 61, 0
2, 3360, Note_on_c, 0, 62, 120
2, 3459, Note_on_c, 0, 62, 0
2, 3600, Note_on_c, 0, 55, 120
2, 3720, Note_on_c, 0, 61, 120
2, 3726, Note_on_c, 0, 55, 0
2, 3840, Note_on_c, 0, 62, 120
2, 3848, Note_on_c, 0, 61, 0
2, 3930, Note_on_c, 0, 62, 0
2, 4080, Note_on_c, 0, 55, 120
2, 4200, Note_on_c, 0, 55, 0
2, 4200, Note_on_c, 0, 61, 120
2, 4310, Note_on_c, 0, 61, 0
2, 4320, Note_on_c, 0, 62, 120
2, 4377, Note_on_c, 0, 62, 0
2, 12960, Note_on_c, 0, 60, 83
2, 12989, Note_on_c, 0, 60, 0
2, 13080, Note_on_c, 0, 60, 83
2, 13124, Note_on_c, 0, 60, 0
2, 13200, Note_on_c, 0, 60, 86
2, 13233, Note_on_c, 0, 60, 0
2, 13320, Note_on_c, 0, 60, 82
2, 13359, Note_on_c, 0, 60, 0
2, 13440, Note_on_c, 0, 60, 87
2, 13476, Note_on_c, 0, 60, 0
2, 13560, Note_on_c, 0, 60, 82
2, 13594, Note_on_c, 0, 60, 0
2, 13680, Note_on_c, 0, 60, 92
2, 13719, Note_on_c, 0, 60, 0
2, 13800, Note_on_c, 0, 60, 91
2, 13842, Note_on_c, 0, 60, 0
2, 13920, Note_on_c, 0, 60, 90
2, 13971, Note_on_c, 0, 60, 0
2, 14040, Note_on_c, 0, 62, 87
2, 14094, Note_on_c, 0, 62, 0
2, 14160, Note_on_c, 0, 60, 88
2, 14203, Note_on_c, 0, 60, 0
2, 14280, Note_on_c, 0, 62, 97
2, 14325, Note_on_c, 0, 62, 0
2, 14400, Note_on_c, 0, 60, 86
2, 14446, Note_on_c, 0, 60, 0
2, 14520, Note_on_c, 0, 57, 90
2, 14565, Note_on_c, 0, 57, 0
2, 14640, Note_on_c, 0, 59, 93
2, 14682, Note_on_c, 0, 59, 0
2, 14760, Note_on_c, 0, 59, 100
2, 14806, Note_on_c, 0, 59, 0
2, 14880, Note_on_c, 0, 60, 92
2, 14921, Note_on_c, 0, 60, 0
2, 15000, Note_on_c, 0, 60, 93
2, 15035, Note_on_c, 0, 60, 0
2, 15120, Note_on_c, 0, 60, 94
2, 15156, Note_on_c, 0, 60, 0
2, 15240, Note_on_c, 0, 60, 91
2, 15271, Note_on_c, 0, 60, 0
2, 15360, Note_on_c, 0, 60, 90
2, 15390, Note_on_c, 0, 60, 0
2, 15480, Note_on_c, 0, 60, 85
2, 15524, Note_on_c, 0, 60, 0
2, 15600, Note_on_c, 0, 60, 84
2, 15644, Note_on_c, 0, 60, 0
2, 15720, Note_on_c, 0, 60, 89
2, 15758, Note_on_c, 0, 60, 0
2, 15840, Note_on_c, 0, 60, 90
2, 15886, Note_on_c, 0, 60, 0
2, 15960, Note_on_c, 0, 62, 93
2, 16007, Note_on_c, 0, 62, 0
2, 16080, Note_on_c, 0, 60, 89
2, 16122, Note_on_c, 0, 60, 0
2, 16200, Note_on_c, 0, 62, 91
2, 16238, Note_on_c, 0, 62, 0
2, 16320, Note_on_c, 0, 60, 88
2, 16360, Note_on_c, 0, 60, 0
2, 16440, Note_on_c, 0, 57, 91
2, 16487, Note_on_c, 0, 57, 0
2, 16560, Note_on_c, 0, 59, 93
2, 16603, Note_on_c, 0, 59, 0
2, 16680, Note_on_c, 0, 59, 96
2, 16725, Note_on_c, 0, 59, 0
2, 16800, Note_on_c, 0, 60, 90
2, 16846, Note_on_c, 0, 60, 0
2, 16920, Note_on_c, 0, 60, 91
2, 16972, Note_on_c, 0, 60, 0
2, 17040, Note_on_c, 0, 60, 91
2, 17086, Note_on_c, 0, 60, 0
2, 17160, Note_on_c, 0, 60, 86
2, 17207, Note_on_c, 0, 60, 0
2, 17280, Note_on_c, 0, 62, 97
2, 17326, Note_on_c, 0, 62, 0
2, 17400, Note_on_c, 0, 62, 93
2, 17454, Note_on_c, 0, 62, 0
2, 17520, Note_on_c, 0, 62, 96
2, 17567, Note_on_c, 0, 62, 0
2, 17640, Note_on_c, 0, 62, 92
2, 17692, Note_on_c, 0, 62, 0
2, 17760, Note_on_c, 0, 63, 91
2, 17812, Note_on_c, 0, 63, 0
2, 17880, Note_on_c, 0, 63, 86
2, 17929, Note_on_c, 0, 63, 0
2, 18000, Note_on_c, 0, 63, 87
2, 18051, Note_on_c, 0, 63, 0
2, 18120, Note_on_c, 0, 63, 89
2, 18174, Note_on_c, 0, 63, 0
2, 18240, Note_on_c, 0, 65, 94
2, 18290, Note_on_c, 0, 65, 0
2, 18360, Note_on_c, 0, 65, 94
2, 18407, Note_on_c, 0, 65, 0
2, 18480, Note_on_c, 0, 65, 96
2, 18522, Note_on_c, 0, 65, 0
2, 18600, Note_on_c, 0, 65, 98
2, 18645, Note_on_c, 0, 65, 0
2, 18720, Note_on_c, 0, 65, 96
2, 18751, Note_on_c, 0, 65, 0
2, 18780, Note_on_c, 0, 65, 87
2, 18815, Note_on_c, 0, 65, 0
2, 18840, Note_on_c, 0, 65, 92
2, 18872, Note_on_c, 0, 65, 0
2, 18900, Note_on_c, 0, 65, 90
2, 18930, Note_on_c, 0, 65, 0
2, 18960, Note_on_c, 0, 65, 94
2, 18990, Note_on_c, 0, 65, 0
2, 19020, Note_on_c, 0, 65, 85
2, 19053, Note_on_c, 0, 65, 0
2, 19080, Note_on_c, 0, 65, 89
2, 19111, Note_on_c, 0, 65, 0
2, 19140, Note_on_c, 0, 65, 97
2, 19170, Note_on_c, 0, 65, 0
2, 19200, Note_on_c, 0, 65, 88
2, 19231, Note_on_c, 0, 65, 0
2, 19260, Note_on_c, 0, 65, 89
2, 19290, Note_on_c, 0, 65, 0
2, 19320, Note_on_c, 0, 65, 94
2, 19347, Note_on_c, 0, 65, 0
2, 19380, Note_on_c, 0, 65, 97
2, 19408, Note_on_c, 0, 65, 0
2, 19440, Note_on_c, 0, 65, 96
2, 19468, Note_on_c, 0, 65, 0
2, 19500, Note_on_c, 0, 65, 94
2, 19524, Note_on_c, 0, 65, 0
2, 19560, Note_on_c, 0, 65, 98
2, 19585, Note_on_c, 0, 65, 0
2, 19620, Note_on_c, 0, 65, 93
2, 19648, Note_on_c, 0, 65, 0
2, 19680, Note_on_c, 0, 65, 89
2, 19706, Note_on_c, 0, 65, 0
2, 19740, Note_on_c, 0, 65, 84
2, 19771, Note_on_c, 0, 65, 0
2, 19800, Note_on_c, 0, 65, 92
2, 19829, Note_on_c, 0, 65, 0
2, 19860, Note_on_c, 0, 65, 92
2, 19893, Note_on_c, 0, 65, 0
2, 19920, Note_on_c, 0, 65, 74
2, 19954, Note_on_c, 0, 65, 0
2, 19980, Note_on_c, 0, 65, 82
2, 20009, Note_on_c, 0, 65, 0
2, 20040, Note_on_c, 0, 65, 90
2, 20071, Note_on_c, 0, 65, 0
2, 20100, Note_on_c, 0, 65, 88
2, 20137, Note_on_c, 0, 65, 0
2, 20160, Note_on_c, 0, 77, 94
2, 20160, Note_on_c, 0, 69, 105
2, 20205, Note_on_c, 0, 69, 0
2, 20208, Note_on_c, 0, 77, 0
2, 20641, Note_on_c, 0, 55, 98
2, 20641, Note_on_c, 0, 77, 105
2, 20641, Note_on_c, 0, 71, 114
2, 20642, Note_on_c, 0, 62, 104
2, 20694, Note_on_c, 0, 62, 0
2, 20695, Note_on_c, 0, 77, 0
2, 20697, Note_on_c, 0, 55, 0
2, 20697, Note_on_c, 0, 71, 0
2, 21120, Note_on_c, 0, 88, 49
2, 21135, Note_on_c, 0, 88, 0
2, 21240, Note_on_c, 0, 88, 60
2, 21263, Note_on_c, 0, 88, 0
2, 21360, Note_on_c, 0, 88, 68
2, 21383, Note_on_c, 0, 88, 0
2, 21480, Note_on_c, 0, 88, 69
2, 21499, Note_on_c, 0, 88, 0
2, 21588, Note_on_c, 0, 88, 91
2, 21600, Note_on_c, 0, 88, 59
2, 21603, Note_on_c, 0, 88, 0
2, 21605, Note_on_c, 0, 89, 81
2, 21620, Note_on_c, 0, 89, 0
2, 21623, Note_on_c, 0, 88, 84
2, 21639, Note_on_c, 0, 88, 0
2, 21639, Note_on_c, 0, 89, 71
2, 21655, Note_on_c, 0, 89, 0
2, 21655, Note_on_c, 0, 88, 87
2, 21672, Note_on_c, 0, 88, 0
2, 21688, Note_on_c, 0, 88, 0
2, 21720, Note_on_c, 0, 87, 63
2, 21742, Note_on_c, 0, 87, 0
2, 21780, Note_on_c, 0, 88, 59
2, 21796, Note_on_c, 0, 88, 0
2, 21840, Note_on_c, 0, 93, 69
2, 21862, Note_on_c, 0, 93, 0
2, 21900, Note_on_c, 0, 91, 64
2, 21926, Note_on_c, 0, 91, 0
2, 21960, Note_on_c, 0, 89, 60
2, 21983, Note_on_c, 0, 89, 0
2, 22020, Note_on_c, 0, 88, 56
2, 22046, Note_on_c, 0, 88, 0
2, 22080, Note_on_c, 0, 86, 68
2, 22105, Note_on_c, 0, 86, 0
2, 22200, Note_on_c, 0, 86, 65
2, 22224, Note_on_c, 0, 86, 0
2, 22320, Note_on_c, 0, 86, 65
2, 22341, Note_on_c, 0, 86, 0
2, 22440, Note_on_c, 0, 86, 65
2, 22464, Note_on_c, 0, 86, 0
2, 22554, Note_on_c, 0, 86, 81
2, 22560, Note_on_c, 0, 86, 67
2, 22564, Note_on_c, 0, 88, 79
2, 22567, Note_on_c, 0, 86, 0
2, 22582, Note_on_c, 0, 88, 0
2, 22585, Note_on_c, 0, 86, 82
2, 22601, Note_on_c, 0, 86, 0
2, 22604, Note_on_c, 0, 86, 0
2, 22604, Note_on_c, 0, 88, 71
2, 22612, Note_on_c, 0, 88, 0
2, 22619, Note_on_c, 0, 86, 78
2, 22632, Note_on_c, 0, 88, 78
2, 22634, Note_on_c, 0, 86, 0
2, 22652, Note_on_c, 0, 88, 0
2, 22655, Note_on_c, 0, 86, 69
2, 22671, Note_on_c, 0, 86, 0
2, 22680, Note_on_c, 0, 85, 55
2, 22710, Note_on_c, 0, 85, 0
2, 22740, Note_on_c, 0, 86, 68
2, 22775, Note_on_c, 0, 86, 0
2, 22800, Note_on_c, 0, 91, 61
2, 22841, Note_on_c, 0, 91, 0
2, 22860, Note_on_c, 0, 89, 62
2, 22901, Note_on_c, 0, 89, 0
2, 22920, Note_on_c, 0, 88, 49
2, 22947, Note_on_c, 0, 88, 0
2, 22980, Note_on_c, 0, 86, 60
2, 23017, Note_on_c, 0, 86, 0
2, 23040, Note_on_c, 0, 84, 61
2, 23073, Note_on_c, 0, 84, 0
2, 23160, Note_on_c, 0, 84, 61
2, 23187, Note_on_c, 0, 84, 0
2, 23280, Note_on_c, 0, 84, 67
2, 23302, Note_on_c, 0, 84, 0
2, 23400, Note_on_c, 0, 84, 72
2, 23424, Note_on_c, 0, 84, 0
2, 23514, Note_on_c, 0, 84, 82
2, 23520, Note_on_c, 0, 84, 62
2, 23529, Note_on_c, 0, 84, 0
2, 23529, Note_on_c, 0, 86, 69
2, 23547, Note_on_c, 0, 86, 0
2, 23547, Note_on_c, 0, 84, 74
2, 23567, Note_on_c, 0, 84, 0
2, 23568, Note_on_c, 0, 86, 67
2, 23581, Note_on_c, 0, 86, 0
2, 23586, Note_on_c, 0, 84, 72
2, 23593, Note_on_c, 0, 84, 0
2, 23599, Note_on_c, 0, 84, 0
2, 23601, Note_on_c, 0, 86, 70
2, 23617, Note_on_c, 0, 86, 0
2, 23640, Note_on_c, 0, 83, 57
2, 23690, Note_on_c, 0, 83, 0
2, 23700, Note_on_c, 0, 84, 64
2, 23728, Note_on_c, 0, 84, 0
2, 23760, Note_on_c, 0, 89, 74
2, 23818, Note_on_c, 0, 89, 0
2, 23820, Note_on_c, 0, 88, 57
2, 23862, Note_on_c, 0, 88, 0
2, 23880, Note_on_c, 0, 86, 66
2, 23919, Note_on_c, 0, 86, 0
2, 23940, Note_on_c, 0, 84, 72
2, 23969, Note_on_c, 0, 84, 0
2, 24000, Note_on_c, 0, 84, 72
2, 24033, Note_on_c, 0, 84, 0
2, 24060, Note_on_c, 0, 83, 69
2, 24087, Note_on_c, 0, 83, 0
2, 24120, Note_on_c, 0, 86, 75
2, 24141, Note_on_c, 0, 86, 0
2, 24180, Note_on_c, 0, 83, 65
2, 24206, Note_on_c, 0, 83, 0
2, 24240, Note_on_c, 0, 83, 74
2, 24272, Note_on_c, 0, 83, 0
2, 24300, Note_on_c, 0, 81, 65
2, 24324, Note_on_c, 0, 81, 0
2, 24360, Note_on_c, 0, 86, 75
2, 24385, Note_on_c, 0, 86, 0
2, 24420, Note_on_c, 0, 81, 66
2, 24449, Note_on_c, 0, 81, 0
2, 24480, Note_on_c, 0, 81, 66
2, 24506, Note_on_c, 0, 81, 0
2, 24540, Note_on_c, 0, 79, 71
2, 24559, Note_on_c, 0, 79, 0
2, 24600, Note_on_c, 0, 78, 59
2, 24630, Note_on_c, 0, 78, 0
2, 24660, Note_on_c, 0, 79, 74
2, 24690, Note_on_c, 0, 79, 0
2, 24720, Note_on_c, 0, 81, 75
2, 24754, Note_on_c, 0, 81, 0
2, 24780, Note_on_c, 0, 83, 82
2, 24812, Note_on_c, 0, 83, 0
2, 24840, Note_on_c, 0, 84, 87
2, 24878, Note_on_c, 0, 84, 0
2, 24900, Note_on_c, 0, 86, 90
2, 24939, Note_on_c, 0, 86, 0
2, 24960, Note_on_c, 0, 88, 104
2, 25011, Note_on_c, 0, 88, 0
2, 25080, Note_on_c, 0, 88, 105
2, 25125, Note_on_c, 0, 88, 0
2, 25200, Note_on_c, 0, 88, 112
2, 25246, Note_on_c, 0, 88, 0
2, 25320, Note_on_c, 0, 88, 111
2, 25357, Note_on_c, 0, 88, 0
2, 25440, Note_on_c, 0, 88, 107
2, 25451, Note_on_c, 0, 88, 82
2, 25458, Note_on_c, 0, 89, 79
2, 25459, Note_on_c, 0, 88, 0
2, 25471, Note_on_c, 0, 89, 0
2, 25476, Note_on_c, 0, 88, 82
2, 25485, Note_on_c, 0, 88, 0
2, 25490, Note_on_c, 0, 89, 78
2, 25493, Note_on_c, 0, 88, 0
2, 25511, Note_on_c, 0, 89, 0
2, 25511, Note_on_c, 0, 88, 90
2, 25528, Note_on_c, 0, 88, 0
2, 25560, Note_on_c, 0, 87, 85
2, 25598, Note_on_c, 0, 87, 0
2, 25620, Note_on_c, 0, 88, 92
2, 25657, Note_on_c, 0, 88, 0
2, 25680, Note_on_c, 0, 93, 84
2, 25719, Note_on_c, 0, 93, 0
2, 25740, Note_on_c, 0, 91, 85
2, 25781, Note_on_c, 0, 91, 0
2, 25800, Note_on_c, 0, 89, 88
2, 25834, Note_on_c, 0, 89, 0
2, 25860, Note_on_c, 0, 88, 86
2, 25896, Note_on_c, 0, 88, 0
2, 25920, Note_on_c, 0, 86, 94
2, 25957, Note_on_c, 0, 86, 0
2, 26040, Note_on_c, 0, 86, 104
2, 26093, Note_on_c, 0, 86, 0
2, 26160, Note_on_c, 0, 86, 102
2, 26207, Note_on_c, 0, 86, 0
2, 26280, Note_on_c, 0, 86, 107
2, 26327, Note_on_c, 0, 86, 0
2, 26394, Note_on_c, 0, 86, 91
2, 26400, Note_on_c, 0, 86, 104
2, 26410, Note_on_c, 0, 86, 0
2, 26410, Note_on_c, 0, 88, 87
2, 26411, Note_on_c, 0, 89, 63
2, 26421, Note_on_c, 0, 89, 0
2, 26424, Note_on_c, 0, 88, 0
2, 26429, Note_on_c, 0, 86, 87
2, 26441, Note_on_c, 0, 88, 71
2, 26445, Note_on_c, 0, 86, 0
2, 26447, Note_on_c, 0, 86, 0
2, 26459, Note_on_c, 0, 88, 0
2, 26467, Note_on_c, 0, 86, 89
2, 26473, Note_on_c, 0, 88, 85
2, 26481, Note_on_c, 0, 86, 0
2, 26486, Note_on_c, 0, 88, 0
2, 26520, Note_on_c, 0, 85, 82
2, 26554, Note_on_c, 0, 85, 0
2, 26580, Note_on_c, 0, 86, 89
2, 26612, Note_on_c, 0, 86, 0
2, 26640, Note_on_c, 0, 91, 89
2, 26684, Note_on_c, 0, 91, 0
2, 26700, Note_on_c, 0, 89, 86
2, 26742, Note_on_c, 0, 89, 0
2, 26760, Note_on_c, 0, 88, 93
2, 26795, Note_on_c, 0, 88, 0
2, 26820, Note_on_c, 0, 86, 85
2, 26858, Note_on_c, 0, 86, 0
2, 26880, Note_on_c, 0, 84, 90
2, 26917, Note_on_c, 0, 84, 0
2, 27000, Note_on_c, 0, 84, 87
2, 27041, Note_on_c, 0, 84, 0
2, 27120, Note_on_c, 0, 84, 102
2, 27155, Note_on_c, 0, 84, 0
2, 27240, Note_on_c, 0, 84, 97
2, 27286, Note_on_c, 0, 84, 0
2, 27360, Note_on_c, 0, 84, 94
2, 27369, Note_on_c, 0, 84, 88
2, 27375, Note_on_c, 0, 86, 78
2, 27377, Note_on_c, 0, 84, 0
2, 27392, Note_on_c, 0, 86, 0
2, 27395, Note_on_c, 0, 84, 81
2, 27410, Note_on_c, 0, 86, 84
2, 27412, Note_on_c, 0, 84, 0
2, 27420, Note_on_c, 0, 84, 0
2, 27431, Note_on_c, 0, 86, 0
2, 27431, Note_on_c, 0, 84, 85
2, 27455, Note_on_c, 0, 84, 0
2, 27480, Note_on_c, 0, 83, 82
2, 27518, Note_on_c, 0, 83, 0
2, 27540, Note_on_c, 0, 84, 78
2, 27573, Note_on_c, 0, 84, 0
2, 27600, Note_on_c, 0, 89, 82
2, 27641, Note_on_c, 0, 89, 0
2, 27660, Note_on_c, 0, 88, 82
2, 27693, Note_on_c, 0, 88, 0
2, 27720, Note_on_c, 0, 86, 85
2, 27752, Note_on_c, 0, 86, 0
2, 27780, Note_on_c, 0, 84, 98
2, 27810, Note_on_c, 0, 84, 0
2, 27840, Note_on_c, 2, 84, 84
2, 27879, Note_on_c, 2, 84, 0
2, 27900, Note_on_c, 2, 83, 78
2, 27929, Note_on_c, 2, 83, 0
2, 27960, Note_on_c, 2, 86, 88
2, 27992, Note_on_c, 2, 86, 0
2, 28020, Note_on_c, 2, 83, 81
2, 28051, Note_on_c, 2, 83, 0
2, 28080, Note_on_c, 2, 86, 90
2, 28130, Note_on_c, 2, 86, 0
2, 28140, Note_on_c, 2, 84, 82
2, 28180, Note_on_c, 2, 84, 0
2, 28200, Note_on_c, 2, 88, 92
2, 28233, Note_on_c, 2, 88, 0
2, 28260, Note_on_c, 2, 84, 82
2, 28289, Note_on_c, 2, 84, 0
2, 28320, Note_on_c, 2, 84, 91
2, 28380, Note_on_c, 2, 83, 78
2, 28387, Note_on_c, 2, 84, 0
2, 28408, Note_on_c, 2, 83, 0
2, 28440, Note_on_c, 2, 86, 81
2, 28464, Note_on_c, 2, 86, 0
2, 28500, Note_on_c, 2, 83, 76
2, 28525, Note_on_c, 2, 83, 0
2, 28560, Note_on_c, 2, 86, 92
2, 28611, Note_on_c, 2, 86, 0
2, 28620, Note_on_c, 2, 84, 78
2, 28651, Note_on_c, 2, 84, 0
2, 28680, Note_on_c, 2, 88, 81
2, 28717, Note_on_c, 2, 88, 0
2, 28740, Note_on_c, 2, 84, 74
2, 28771, Note_on_c, 2, 84, 0
2, 28800, Note_on_c, 2, 83, 78
2, 28838, Note_on_c, 2, 83, 0
2, 28860, Note_on_c, 2, 84, 76
2, 28889, Note_on_c, 2, 84, 0
2, 28920, Note_on_c, 2, 86, 77
2, 28955, Note_on_c, 2, 86, 0
2, 28980, Note_on_c, 2, 91, 85
2, 29027, Note_on_c, 2, 91, 0
2, 29040, Note_on_c, 2, 84, 84
2, 29087, Note_on_c, 2, 84, 0
2, 29100, Note_on_c, 2, 86, 90
2, 29143, Note_on_c, 2, 86, 0
2, 29160, Note_on_c, 2, 88, 84
2, 29198, Note_on_c, 2, 88, 0
2, 29220, Note_on_c, 2, 91, 86
2, 29262, Note_on_c, 2, 91, 0
2, 29280, Note_on_c, 2, 83, 82
2, 29324, Note_on_c, 2, 83, 0
2, 29340, Note_on_c, 2, 84, 86
2, 29382, Note_on_c, 2, 84, 0
2, 29400, Note_on_c, 2, 86, 78
2, 29439, Note_on_c, 2, 86, 0
2, 29460, Note_on_c, 2, 91, 89
2, 29506, Note_on_c, 2, 91, 0
2, 29520, Note_on_c, 2, 84, 82
2, 29562, Note_on_c, 2, 84, 0
2, 29580, Note_on_c, 2, 86, 94
2, 29623, Note_on_c, 2, 86, 0
2, 29640, Note_on_c, 2, 88, 93
2, 29680, Note_on_c, 2, 88, 0
2, 29700, Note_on_c, 2, 91, 97
2, 29733, Note_on_c, 2, 91, 0
2, 29760, Note_on_c, 2, 89, 107
2, 29802, Note_on_c, 2, 89, 0
2, 29880, Note_on_c, 0, 77, 78
2, 29907, Note_on_c, 0, 77, 0
2, 29940, Note_on_c, 0, 77, 71
2, 29968, Note_on_c, 0, 77, 0
2, 30000, Note_on_c, 0, 77, 98
2, 30022, Note_on_c, 0, 77, 0
2, 30060, Note_on_c, 0, 77, 82
2, 30082, Note_on_c, 0, 77, 0
2, 30120, Note_on_c, 0, 77, 80
2, 30142, Note_on_c, 0, 77, 0
2, 30180, Note_on_c, 0, 77, 74
2, 30197, Note_on_c, 0, 77, 0
2, 30225, Note_on_c, 0, 77, 65
2, 30240, Note_on_c, 0, 84, 89
2, 30248, Note_on_c, 0, 77, 0
2, 30274, Note_on_c, 0, 84, 0
2, 30360, Note_on_c, 0, 77, 90
2, 30385, Note_on_c, 0, 77, 0
2, 30420, Note_on_c, 0, 77, 72
2, 30442, Note_on_c, 0, 77, 0
2, 30480, Note_on_c, 0, 77, 96
2, 30505, Note_on_c, 0, 77, 0
2, 30540, Note_on_c, 0, 77, 74
2, 30564, Note_on_c, 0, 77, 0
2, 30600, Note_on_c, 0, 77, 84
2, 30624, Note_on_c, 0, 77, 0
2, 30660, Note_on_c, 0, 77, 82
2, 30680, Note_on_c, 0, 77, 0
2, 30705, Note_on_c, 0, 77, 76
2, 30720, Note_on_c, 0, 84, 88
2, 30729, Note_on_c, 0, 77, 0
2, 30751, Note_on_c, 0, 84, 0
2, 30840, Note_on_c, 0, 77, 73
2, 30867, Note_on_c, 0, 77, 0
2, 30900, Note_on_c, 0, 77, 87
2, 30925, Note_on_c, 0, 77, 0
2, 30960, Note_on_c, 0, 84, 94
2, 31009, Note_on_c, 0, 84, 0
2, 31080, Note_on_c, 0, 77, 96
2, 31110, Note_on_c, 0, 77, 0
2, 31140, Note_on_c, 0, 77, 89
2, 31175, Note_on_c, 0, 77, 0
2, 31200, Note_on_c, 0, 84, 98
2, 31236, Note_on_c, 0, 84, 0
2, 31320, Note_on_c, 0, 77, 87
2, 31343, Note_on_c, 0, 77, 0
2, 31380, Note_on_c, 0, 77, 88
2, 31418, Note_on_c, 0, 77, 0
2, 31440, Note_on_c, 0, 84, 93
2, 31478, Note_on_c, 0, 84, 0
2, 31560, Note_on_c, 0, 78, 92
2, 31587, Note_on_c, 0, 78, 0
2, 31620, Note_on_c, 0, 78, 82
2, 31657, Note_on_c, 0, 78, 0
2, 31680, Note_on_c, 0, 79, 104
2, 31735, Note_on_c, 0, 79, 0
2, 32760, Note_on_c, 0, 55, 77
2, 32791, Note_on_c, 0, 55, 0
2, 32820, Note_on_c, 0, 57, 72
2, 32850, Note_on_c, 0, 57, 0
2, 32880, Note_on_c, 0, 59, 83
2, 32912, Note_on_c, 0, 59, 0
2, 32940, Note_on_c, 0, 60, 73
2, 32970, Note_on_c, 0, 60, 0
2, 33000, Note_on_c, 0, 62, 80
2, 33038, Note_on_c, 0, 62, 0
2, 33060, Note_on_c, 0, 64, 75
2, 33093, Note_on_c, 0, 64, 0
2, 33120, Note_on_c, 0, 65, 82
2, 33153, Note_on_c, 0, 65, 0
2, 33180, Note_on_c, 0, 67, 78
2, 33214, Note_on_c, 0, 67, 0
2, 33240, Note_on_c, 0, 69, 81
2, 33273, Note_on_c, 0, 69, 0
2, 33300, Note_on_c, 0, 71, 76
2, 33336, Note_on_c, 0, 71, 0
2, 33360, Note_on_c, 0, 72, 80
2, 33387, Note_on_c, 0, 72, 0
2, 33420, Note_on_c, 0, 73, 89
2, 33459, Note_on_c, 0, 73, 0
2, 33480, Note_on_c, 0, 74, 88
2, 33519, Note_on_c, 0, 74, 0
2, 33540, Note_on_c, 0, 79, 101
2, 33556, Note_on_c, 0, 79, 0
2, 36600, Note_on_c, 0, 62, 93
2, 36632, Note_on_c, 0, 62, 0
2, 36660, Note_on_c, 0, 62, 97
2, 36699, Note_on_c, 0, 62, 0
2, 36720, Note_on_c, 0, 62, 102
2, 36804, Note_on_c, 0, 62, 0
2, 36840, Note_on_c, 0, 60, 91
2, 36875, Note_on_c, 0, 60, 0
2, 36900, Note_on_c, 0, 60, 85
2, 36949, Note_on_c, 0, 60, 0
2, 36960, Note_on_c, 0, 59, 102
2, 37022, Note_on_c, 0, 59, 0
2, 37080, Note_on_c, 0, 62, 101
2, 37113, Note_on_c, 0, 62, 0
2, 37140, Note_on_c, 0, 62, 94
2, 37178, Note_on_c, 0, 62, 0
2, 37200, Note_on_c, 0, 62, 91
2, 37260, Note_on_c, 0, 62, 0
2, 37320, Note_on_c, 0, 60, 88
2, 37352, Note_on_c, 0, 60, 0
2, 37380, Note_on_c, 0, 60, 85
2, 37425, Note_on_c, 0, 60, 0
2, 37440, Note_on_c, 0, 59, 118
2, 37494, Note_on_c, 0, 59, 0
2, 37560, Note_on_c, 0, 55, 78
2, 37589, Note_on_c, 0, 55, 0
2, 37590, Note_on_c, 0, 57, 85
2, 37619, Note_on_c, 0, 57, 0
2, 37620, Note_on_c, 0, 59, 84
2, 37649, Note_on_c, 0, 59, 0
2, 37650, Note_on_c, 0, 60, 86
2, 37679, Note_on_c, 0, 60, 0
2, 37680, Note_on_c, 0, 62, 96
2, 37709, Note_on_c, 0, 62, 0
2, 37710, Note_on_c, 0, 60, 69
2, 37739, Note_on_c, 0, 60, 0
2, 37740, Note_on_c, 0, 59, 78
2, 37769, Note_on_c, 0, 59, 0
2, 37770, Note_on_c, 0, 57, 69
2, 37799, Note_on_c, 0, 57, 0
2, 37800, Note_on_c, 0, 55, 59
2, 37829, Note_on_c, 0, 55, 0
2, 37830, Note_on_c, 0, 57, 72
2, 37859, Note_on_c, 0, 57, 0
2, 37860, Note_on_c, 0, 59, 97
2, 37889, Note_on_c, 0, 59, 0
2, 37890, Note_on_c, 0, 60, 93
2, 37919, Note_on_c, 0, 60, 0
2, 37920, Note_on_c, 0, 62, 97
2, 37949, Note_on_c, 0, 62, 0
2, 37950, Note_on_c, 0, 60, 82
2, 37979, Note_on_c, 0, 60, 0
2, 37980, Note_on_c, 0, 59, 73
2, 38009, Note_on_c, 0, 59, 0
2, 38010, Note_on_c, 0, 57, 71
2, 38039, Note_on_c, 0, 57, 0
2, 38040, Note_on_c, 0, 55, 59
2, 38069, Note_on_c, 0, 55, 0
2, 38070, Note_on_c, 0, 57, 76
2, 38099, Note_on_c, 0, 57, 0
2, 38100, Note_on_c, 0, 59, 91
2, 38129, Note_on_c, 0, 59, 0
2, 38130, Note_on_c, 0, 60, 84
2, 38159, Note_on_c, 0, 60, 0
2, 38160, Note_on_c, 0, 62, 97
2, 38189, Note_on_c, 0, 62, 0
2, 38190, Note_on_c, 0, 60, 78
2, 38219, Note_on_c, 0, 60, 0
2, 38220, Note_on_c, 0, 59, 75
2, 38249, Note_on_c, 0, 59, 0
2, 38250, Note_on_c, 0, 57, 65
2, 38279, Note_on_c, 0, 57, 0
2, 38280, Note_on_c, 0, 55, 64
2, 38339, Note_on_c, 0, 55, 0
2, 38460, Note_on_c, 0, 84, 93
2, 38493, Note_on_c, 0, 84, 0
2, 38520, Note_on_c, 0, 88, 88
2, 38557, Note_on_c, 0, 88, 0
2, 38580, Note_on_c, 0, 83, 90
2, 38613, Note_on_c, 0, 83, 0
2, 38640, Note_on_c, 0, 88, 90
2, 38674, Note_on_c, 0, 88, 0
2, 38700, Note_on_c, 0, 81, 81
2, 38725, Note_on_c, 0, 81, 0
2, 38760, Note_on_c, 0, 88, 82
2, 38795, Note_on_c, 0, 88, 0
2, 38820, Note_on_c, 0, 80, 78
2, 38851, Note_on_c, 0, 80, 0
2, 38880, Note_on_c, 0, 88, 92
2, 38909, Note_on_c, 0, 88, 0
2, 38910, Note_on_c, 0, 86, 90
2, 38939, Note_on_c, 0, 86, 0
2, 38940, Note_on_c, 0, 84, 88
2, 38969, Note_on_c, 0, 84, 0
2, 38970, Note_on_c, 0, 83, 70
2, 38999, Note_on_c, 0, 83, 0
2, 39000, Note_on_c, 0, 81, 92
2, 39029, Note_on_c, 0, 81, 0
2, 39030, Note_on_c, 0, 79, 88
2, 39059, Note_on_c, 0, 79, 0
2, 39060, Note_on_c, 0, 77, 83
2, 39089, Note_on_c, 0, 77, 0
2, 39090, Note_on_c, 0, 76, 81
2, 39119, Note_on_c, 0, 76, 0
2, 39120, Note_on_c, 0, 74, 89
2, 39149, Note_on_c, 0, 74, 0
2, 39150, Note_on_c, 0, 76, 82
2, 39179, Note_on_c, 0, 76, 0
2, 39180, Note_on_c, 0, 77, 83
2, 39209, Note_on_c, 0, 77, 0
2, 39210, Note_on_c, 0, 79, 78
2, 39239, Note_on_c, 0, 79, 0
2, 39240, Note_on_c, 0, 81, 89
2, 39269, Note_on_c, 0, 81, 0
2, 39270, Note_on_c, 0, 83, 86
2, 39299, Note_on_c, 0, 83, 0
2, 39300, Note_on_c, 0, 84, 87
2, 39329, Note_on_c, 0, 84, 0
2, 39330, Note_on_c, 0, 86, 93
2, 39359, Note_on_c, 0, 86, 0
2, 39360, Note_on_c, 0, 88, 82
2, 39398, Note_on_c, 0, 88, 0
2, 39420, Note_on_c, 0, 84, 76
2, 39450, Note_on_c, 0, 84, 0
2, 39480, Note_on_c, 0, 88, 90
2, 39517, Note_on_c, 0, 88, 0
2, 39540, Note_on_c, 0, 83, 75
2, 39570, Note_on_c, 0, 83, 0
2, 39600, Note_on_c, 0, 88, 88
2, 39638, Note_on_c, 0, 88, 0
2, 39660, Note_on_c, 0, 81, 87
2, 39694, Note_on_c, 0, 81, 0
2, 39720, Note_on_c, 0, 88, 82
2, 39757, Note_on_c, 0, 88, 0
2, 39780, Note_on_c, 0, 80, 92
2, 39813, Note_on_c, 0, 80, 0
2, 39840, Note_on_c, 0, 88, 88
2, 39869, Note_on_c, 0, 88, 0
2, 39870, Note_on_c, 0, 86, 88
2, 39899, Note_on_c, 0, 86, 0
2, 39900, Note_on_c, 0, 84, 81
2, 39929, Note_on_c, 0, 84, 0
2, 39930, Note_on_c, 0, 83, 80
2, 39959, Note_on_c, 0, 83, 0
2, 39960, Note_on_c, 0, 81, 88
2, 39989, Note_on_c, 0, 81, 0
2, 39990, Note_on_c, 0, 79, 78
2, 40019, Note_on_c, 0, 79, 0
2, 40020, Note_on_c, 0, 77, 79
2, 40049, Note_on_c, 0, 77, 0
2, 40050, Note_on_c, 0, 76, 84
2, 40079, Note_on_c, 0, 76, 0
2, 40080, Note_on_c, 0, 74, 91
2, 40109, Note_on_c, 0, 74, 0
2, 40110, Note_on_c, 0, 76, 88
2, 40139, Note_on_c, 0, 76, 0
2, 40140, Note_on_c, 0, 77, 88
2, 40169, Note_on_c, 0, 77, 0
2, 40170, Note_on_c, 0, 79, 90
2, 40199, Note_on_c, 0, 79, 0
2, 40200, Note_on_c, 0, 81, 96
2, 40229, Note_on_c, 0, 81, 0
2, 40230, Note_on_c, 0, 83, 93
2, 40259, Note_on_c, 0, 83, 0
2, 40260, Note_on_c, 0, 84, 94
2, 40289, Note_on_c, 0, 84, 0
2, 40290, Note_on_c, 0, 86, 102
2, 40319, Note_on_c, 0, 86, 0
2, 40320, Note_on_c, 0, 84, 90
2, 40351, Note_on_c, 0, 84, 0
2, 40437, Note_on_c, 0, 88, 104
2, 40452, Pitch_bend_c, 0, 9280
2, 40454, Pitch_bend_c, 0, 11456
2, 40456, Pitch_bend_c, 0, 13664
2, 40459, Pitch_bend_c, 0, 15840
2, 40461, Pitch_bend_c, 0, 16383
2, 40484, Note_on_c, 0, 88, 0
2, 40545, Pitch_bend_c, 0, 16128
2, 40547, Pitch_bend_c, 0, 15392
2, 40549, Pitch_bend_c, 0, 14304
2, 40553, Pitch_bend_c, 0, 12896
2, 40554, Pitch_bend_c, 0, 11296
2, 40558, Pitch_bend_c, 0, 9920
2, 40560, Pitch_bend_c, 0, 8928
2, 40560, Note_on_c, 0, 58, 82
2, 40562, Pitch_bend_c, 0, 8320
2, 40565, Pitch_bend_c, 0, 8192
2, 40790, Note_on_c, 0, 58, 0
2, 40800, Note_on_c, 0, 57, 91
2, 40832, Note_on_c, 0, 57, 0
2, 40914, Note_on_c, 0, 88, 107
2, 40924, Pitch_bend_c, 0, 8576
2, 40926, Pitch_bend_c, 0, 10272
2, 40930, Pitch_bend_c, 0, 12448
2, 40932, Pitch_bend_c, 0, 14656
2, 40934, Pitch_bend_c, 0, 16383
2, 40962, Note_on_c, 0, 88, 0
2, 41022, Pitch_bend_c, 0, 16288
2, 41024, Pitch_bend_c, 0, 15584
2, 41026, Pitch_bend_c, 0, 14432
2, 41027, Pitch_bend_c, 0, 12864
2, 41031, Pitch_bend_c, 0, 11072
2, 41033, Pitch_bend_c, 0, 9632
2, 41035, Pitch_bend_c, 0, 8608
2, 41037, Pitch_bend_c, 0, 8192
2, 41040, Note_on_c, 0, 56, 101
2, 41268, Note_on_c, 0, 56, 0
2, 41280, Note_on_c, 0, 55, 87
2, 41309, Note_on_c, 0, 55, 0
2, 41387, Note_on_c, 0, 88, 102
2, 41390, Pitch_bend_c, 0, 8416
2, 41392, Pitch_bend_c, 0, 9632
2, 41396, Pitch_bend_c, 0, 11744
2, 41398, Pitch_bend_c, 0, 13984
2, 41400, Pitch_bend_c, 0, 15904
2, 41402, Pitch_bend_c, 0, 16383
2, 41415, Note_on_c, 0, 88, 0
2, 41461, Pitch_bend_c, 0, 16000
2, 41464, Pitch_bend_c, 0, 15104
2, 41466, Pitch_bend_c, 0, 13856
2, 41468, Pitch_bend_c, 0, 12192
2, 41470, Pitch_bend_c, 0, 10624
2, 41473, Pitch_bend_c, 0, 9312
2, 41475, Pitch_bend_c, 0, 8512
2, 41477, Pitch_bend_c, 0, 8192
2, 41520, Note_on_c, 0, 57, 101
2, 41559, Note_on_c, 0, 57, 0
2, 41627, Note_on_c, 0, 88, 105
2, 41635, Pitch_bend_c, 0, 8416
2, 41637, Pitch_bend_c, 0, 9760
2, 41639, Pitch_bend_c, 0, 11968
2, 41643, Pitch_bend_c, 0, 14208
2, 41645, Pitch_bend_c, 0, 16192
2, 41647, Pitch_bend_c, 0, 16383
2, 41666, Note_on_c, 0, 88, 0
2, 41710, Pitch_bend_c, 0, 15840
2, 41712, Pitch_bend_c, 0, 14880
2, 41716, Pitch_bend_c, 0, 13600
2, 41718, Pitch_bend_c, 0, 12064
2, 41720, Pitch_bend_c, 0, 10528
2, 41722, Pitch_bend_c, 0, 9312
2, 41726, Pitch_bend_c, 0, 8512
2, 41727, Pitch_bend_c, 0, 8192
2, 41760, Note_on_c, 0, 58, 112
2, 41796, Note_on_c, 0, 58, 0
2, 41878, Note_on_c, 0, 88, 111
2, 41884, Pitch_bend_c, 0, 8576
2, 41886, Pitch_bend_c, 0, 10016
2, 41888, Pitch_bend_c, 0, 12192
2, 41892, Pitch_bend_c, 0, 14432
2, 41894, Pitch_bend_c, 0, 16224
2, 41896, Pitch_bend_c, 0, 16383
2, 41916, Note_on_c, 0, 88, 0
2, 41955, Pitch_bend_c, 0, 16288
2, 41957, Pitch_bend_c, 0, 15648
2, 41960, Pitch_bend_c, 0, 14592
2, 41962, Pitch_bend_c, 0, 13216
2, 41964, Pitch_bend_c, 0, 11648
2, 41969, Pitch_bend_c, 0, 9120
2, 41971, Pitch_bend_c, 0, 8480
2, 41973, Pitch_bend_c, 0, 8192
2, 42000, Note_on_c, 0, 59, 104
2, 42034, Note_on_c, 0, 59, 0
2, 42115, Note_on_c, 0, 88, 107
2, 42123, Pitch_bend_c, 0, 8672
2, 42129, Pitch_bend_c, 0, 12512
2, 42131, Pitch_bend_c, 0, 14752
2, 42133, Pitch_bend_c, 0, 16383
2, 42146, Note_on_c, 0, 88, 0
2, 42200, Pitch_bend_c, 0, 16000
2, 42202, Pitch_bend_c, 0, 15488
2, 42203, Pitch_bend_c, 0, 14848
2, 42207, Pitch_bend_c, 0, 14048
2, 42209, Pitch_bend_c, 0, 13248
2, 42212, Pitch_bend_c, 0, 12320
2, 42214, Pitch_bend_c, 0, 11360
2, 42216, Pitch_bend_c, 0, 10272
2, 42219, Pitch_bend_c, 0, 9312
2, 42221, Pitch_bend_c, 0, 8608
2, 42223, Pitch_bend_c, 0, 8192
2, 42240, Note_on_c, 0, 60, 120
2, 42295, Note_on_c, 0, 60, 0
2, 42540, Note_on_c, 0, 83, 92
2, 42572, Note_on_c, 0, 83, 0
2, 42600, Note_on_c, 0, 84, 104
2, 42634, Note_on_c, 0, 84, 0
2, 42660, Note_on_c, 0, 83, 102
2, 42692, Note_on_c, 0, 83, 0
2, 42720, Note_on_c, 0, 84, 109
2, 42755, Note_on_c, 0, 84, 0
2, 42780, Note_on_c, 0, 83, 104
2, 42810, Note_on_c, 0, 83, 0
2, 42840, Note_on_c, 0, 84, 105
2, 42873, Note_on_c, 0, 84, 0
2, 42900, Note_on_c, 0, 83, 101
2, 42944, Note_on_c, 0, 83, 0
2, 42960, Note_on_c, 0, 84, 104
2, 42992, Note_on_c, 0, 84, 0
2, 43020, Note_on_c, 0, 83, 97
2, 43051, Note_on_c, 0, 83, 0
2, 43080, Note_on_c, 0, 84, 86
2, 43121, Note_on_c, 0, 84, 0
2, 43140, Note_on_c, 0, 83, 98
2, 43173, Note_on_c, 0, 83, 0
2, 43200, Note_on_c, 0, 84, 112
2, 43240, Note_on_c, 0, 84, 0
2, 43440, Note_on_c, 0, 60, 100
2, 43440, Note_on_c, 0, 76, 102
2, 43440, Note_on_c, 0, 67, 107
2, 43440, Note_on_c, 0, 84, 104
2, 43493, Note_on_c, 0, 84, 0
2, 43494, Note_on_c, 0, 76, 0
2, 43498, Note_on_c, 0, 67, 0
2, 43501, Note_on_c, 0, 60, 0
2, 43680, Note_on_c, 0, 60, 102
2, 43680, Note_on_c, 0, 84, 94
2, 43680, Note_on_c, 0, 67, 101
2, 43680, Note_on_c, 0, 76, 114
2, 43745, Note_on_c, 0, 84, 0
2, 43748, Note_on_c, 0, 76, 0
2, 43749, Note_on_c, 0, 67, 0
2, 43759, Note_on_c, 0, 60, 0
2, 43759, End_track
3, 0, Start_track
3, 0, Title_t, "2nd Violin     "
3, 0, Channel_prefix, 0
3, 12960, Note_on_c, 0, 55, 85
3, 12986, Note_on_c, 0, 55, 0
3, 13080, Note_on_c, 0, 56, 87
3, 13114, Note_on_c, 0, 56, 0
3, 13200, Note_on_c, 0, 55, 92
3, 13231, Note_on_c, 0, 55, 0
3, 13320, Note_on_c, 0, 56, 86
3, 13359, Note_on_c, 0, 56, 0
3, 13440, Note_on_c, 0, 55, 78
3, 13481, Note_on_c, 0, 55, 0
3, 13560, Note_on_c, 0, 56, 81
3, 13598, Note_on_c, 0, 56, 0
3, 13680, Note_on_c, 0, 55, 82
3, 13716, Note_on_c, 0, 55, 0
3, 13800, Note_on_c, 0, 56, 82
3, 13838, Note_on_c, 0, 56, 0
3, 13920, Note_on_c, 0, 55, 83
3, 13955, Note_on_c, 0, 55, 0
3, 14040, Note_on_c, 0, 55, 82
3, 14072, Note_on_c, 0, 55, 0
3, 14160, Note_on_c, 0, 55, 82
3, 14193, Note_on_c, 0, 55, 0
3, 14280, Note_on_c, 0, 55, 82
3, 14313, Note_on_c, 0, 55, 0
3, 14400, Note_on_c, 0, 55, 84
3, 14431, Note_on_c, 0, 55, 0
3, 14520, Note_on_c, 0, 62, 83
3, 14558, Note_on_c, 0, 62, 0
3, 14640, Note_on_c, 0, 62, 83
3, 14679, Note_on_c, 0, 62, 0
3, 14760, Note_on_c, 0, 55, 82
3, 14793, Note_on_c, 0, 55, 0
3, 14880, Note_on_c, 0, 55, 84
3, 14918, Note_on_c, 0, 55, 0
3, 15000, Note_on_c, 0, 56, 81
3, 15040, Note_on_c, 0, 56, 0
3, 15120, Note_on_c, 0, 55, 85
3, 15156, Note_on_c, 0, 55, 0
3, 15240, Note_on_c, 0, 56, 78
3, 15274, Note_on_c, 0, 56, 0
3, 15360, Note_on_c, 0, 55, 82
3, 15396, Note_on_c, 0, 55, 0
3, 15480, Note_on_c, 0, 56, 83
3, 15518, Note_on_c, 0, 56, 0
3, 15600, Note_on_c, 0, 55, 84
3, 15634, Note_on_c, 0, 55, 0
3, 15720, Note_on_c, 0, 56, 87
3, 15759, Note_on_c, 0, 56, 0
3, 15840, Note_on_c, 0, 55, 85
3, 15873, Note_on_c, 0, 55, 0
3, 15960, Note_on_c, 0, 55, 87
3, 15995, Note_on_c, 0, 55, 0
3, 16080, Note_on_c, 0, 55, 87
3, 16111, Note_on_c, 0, 55, 0
3, 16200, Note_on_c, 0, 55, 81
3, 16231, Note_on_c, 0, 55, 0
3, 16320, Note_on_c, 0, 55, 78
3, 16355, Note_on_c, 0, 55, 0
3, 16440, Note_on_c, 0, 62, 78
3, 16479, Note_on_c, 0, 62, 0
3, 16560, Note_on_c, 0, 62, 82
3, 16595, Note_on_c, 0, 62, 0
3, 16680, Note_on_c, 0, 55, 82
3, 16710, Note_on_c, 0, 55, 0
3, 16800, Note_on_c, 0, 55, 82
3, 16836, Note_on_c, 0, 55, 0
3, 16920, Note_on_c, 0, 56, 78
3, 16951, Note_on_c, 0, 56, 0
3, 17040, Note_on_c, 0, 55, 82
3, 17071, Note_on_c, 0, 55, 0
3, 17160, Note_on_c, 0, 56, 83
3, 17191, Note_on_c, 0, 56, 0
3, 17280, Note_on_c, 0, 57, 86
3, 17321, Note_on_c, 0, 57, 0
3, 17400, Note_on_c, 0, 59, 88
3, 17439, Note_on_c, 0, 59, 0
3, 17520, Note_on_c, 0, 57, 87
3, 17557, Note_on_c, 0, 57, 0
3, 17640, Note_on_c, 0, 59, 91
3, 17678, Note_on_c, 0, 59, 0
3, 17760, Note_on_c, 0, 58, 83
3, 17797, Note_on_c, 0, 58, 0
3, 17880, Note_on_c, 0, 60, 78
3, 17919, Note_on_c, 0, 60, 0
3, 18000, Note_on_c, 0, 58, 79
3, 18032, Note_on_c, 0, 58, 0
3, 18120, Note_on_c, 0, 60, 82
3, 18157, Note_on_c, 0, 60, 0
3, 18240, Note_on_c, 0, 60, 84
3, 18277, Note_on_c, 0, 60, 0
3, 18360, Note_on_c, 0, 62, 84
3, 18394, Note_on_c, 0, 62, 0
3, 18480, Note_on_c, 0, 60, 78
3, 18517, Note_on_c, 0, 60, 0
3, 18600, Note_on_c, 0, 62, 87
3, 18627, Note_on_c, 0, 62, 0
3, 18720, Note_on_c, 0, 55, 84
3, 18720, Note_on_c, 0, 62, 87
3, 18743, Note_on_c, 0, 55, 0
3, 18743, Note_on_c, 0, 62, 0
3, 18780, Note_on_c, 0, 55, 82
3, 18780, Note_on_c, 0, 62, 77
3, 18804, Note_on_c, 0, 62, 0
3, 18806, Note_on_c, 0, 55, 0
3, 18840, Note_on_c, 0, 55, 77
3, 18840, Note_on_c, 0, 62, 83
3, 18863, Note_on_c, 0, 62, 0
3, 18867, Note_on_c, 0, 55, 0
3, 18900, Note_on_c, 0, 55, 76
3, 18900, Note_on_c, 0, 62, 74
3, 18921, Note_on_c, 0, 55, 0
3, 18924, Note_on_c, 0, 62, 0
3, 18960, Note_on_c, 0, 55, 78
3, 18960, Note_on_c, 0, 62, 82
3, 18984, Note_on_c, 0, 62, 0
3, 18987, Note_on_c, 0, 55, 0
3, 19020, Note_on_c, 0, 55, 72
3, 19020, Note_on_c, 0, 62, 74
3, 19041, Note_on_c, 0, 55, 0
3, 19044, Note_on_c, 0, 62, 0
3, 19080, Note_on_c, 0, 62, 85
3, 19080, Note_on_c, 0, 55, 76
3, 19101, Note_on_c, 0, 62, 0
3, 19103, Note_on_c, 0, 55, 0
3, 19140, Note_on_c, 0, 55, 79
3, 19140, Note_on_c, 0, 62, 89
3, 19163, Note_on_c, 0, 55, 0
3, 19164, Note_on_c, 0, 62, 0
3, 19200, Note_on_c, 0, 55, 78
3, 19200, Note_on_c, 0, 62, 90
3, 19224, Note_on_c, 0, 62, 0
3, 19226, Note_on_c, 0, 55, 0
3, 19260, Note_on_c, 0, 62, 82
3, 19260, Note_on_c, 0, 55, 76
3, 19283, Note_on_c, 0, 62, 0
3, 19284, Note_on_c, 0, 55, 0
3, 19320, Note_on_c, 0, 55, 78
3, 19320, Note_on_c, 0, 62, 79
3, 19346, Note_on_c, 0, 55, 0
3, 19346, Note_on_c, 0, 62, 0
3, 19380, Note_on_c, 0, 55, 77
3, 19380, Note_on_c, 0, 62, 78
3, 19403, Note_on_c, 0, 62, 0
3, 19404, Note_on_c, 0, 55, 0
3, 19440, Note_on_c, 0, 55, 78
3, 19440, Note_on_c, 0, 62, 83
3, 19462, Note_on_c, 0, 62, 0
3, 19466, Note_on_c, 0, 55, 0
3, 19500, Note_on_c, 0, 55, 80
3, 19500, Note_on_c, 0, 62, 86
3, 19518, Note_on_c, 0, 62, 0
3, 19521, Note_on_c, 0, 55, 0
3, 19560, Note_on_c, 0, 55, 82
3, 19560, Note_on_c, 0, 62, 85
3, 19579, Note_on_c, 0, 62, 0
3, 19583, Note_on_c, 0, 55, 0
3, 19620, Note_on_c, 0, 55, 83
3, 19620, Note_on_c, 0, 62, 84
3, 19641, Note_on_c, 0, 62, 0
3, 19642, Note_on_c, 0, 55, 0
3, 19680, Note_on_c, 0, 62, 85
3, 19680, Note_on_c, 0, 55, 86
3, 19707, Note_on_c, 0, 62, 0
3, 19707, Note_on_c, 0, 55, 0
3, 19740, Note_on_c, 0, 62, 78
3, 19740, Note_on_c, 0, 55, 74
3, 19765, Note_on_c, 0, 55, 0
3, 19771, Note_on_c, 0, 62, 0
3, 19800, Note_on_c, 0, 62, 86
3, 19800, Note_on_c, 0, 55, 80
3, 19825, Note_on_c, 0, 55, 0
3, 19828, Note_on_c, 0, 62, 0
3, 19860, Note_on_c, 0, 55, 74
3, 19860, Note_on_c, 0, 62, 82
3, 19887, Note_on_c, 0, 55, 0
3, 19888, Note_on_c, 0, 62, 0
3, 19920, Note_on_c, 0, 62, 87
3, 19920, Note_on_c, 0, 55, 79
3, 19948, Note_on_c, 0, 55, 0
3, 19949, Note_on_c, 0, 62, 0
3, 19980, Note_on_c, 0, 62, 74
3, 19980, Note_on_c, 0, 55, 81
3, 20007, Note_on_c, 0, 62, 0
3, 20010, Note_on_c, 0, 55, 0
3, 20040, Note_on_c, 0, 62, 74
3, 20040, Note_on_c, 0, 55, 81
3, 20065, Note_on_c, 0, 55, 0
3, 20066, Note_on_c, 0, 62, 0
3, 20100, Note_on_c, 0, 62, 74
3, 20100, Note_on_c, 0, 55, 72
3, 20120, Note_on_c, 0, 62, 0
3, 20132, Note_on_c, 0, 55, 0
3, 20160, Note_on_c, 0, 72, 93
3, 20160, Note_on_c, 0, 65, 101
3, 20160, Note_on_c, 0, 57, 101
3, 20201, Note_on_c, 0, 65, 0
3, 20201, Note_on_c, 0, 57, 0
3, 20205, Note_on_c, 0, 72, 0
3, 21120, Note_on_c, 0, 76, 49
3, 21135, Note_on_c, 0, 76, 0
3, 21240, Note_on_c, 0, 76, 60
3, 21263, Note_on_c, 0, 76, 0
3, 21360, Note_on_c, 0, 76, 68
3, 21383, Note_on_c, 0, 76, 0
3, 21480, Note_on_c, 0, 76, 69
3, 21499, Note_on_c, 0, 76, 0
3, 21588, Note_on_c, 0, 76, 91
3, 21600, Note_on_c, 0, 76, 59
3, 21603, Note_on_c, 0, 76, 0
3, 21605, Note_on_c, 0, 77, 81
3, 21620, Note_on_c, 0, 77, 0
3, 21623, Note_on_c, 0, 76, 84
3, 21639, Note_on_c, 0, 76, 0
3, 21639, Note_on_c, 0, 77, 71
3, 21655, Note_on_c, 0, 77, 0
3, 21655, Note_on_c, 0, 76, 87
3, 21672, Note_on_c, 0, 76, 0
3, 21688, Note_on_c, 0, 76, 0
3, 21720, Note_on_c, 0, 75, 63
3, 21742, Note_on_c, 0, 75, 0
3, 21780, Note_on_c, 0, 76, 59
3, 21796, Note_on_c, 0, 76, 0
3, 21840, Note_on_c, 0, 81, 69
3, 21862, Note_on_c, 0, 81, 0
3, 21900, Note_on_c, 0, 79, 64
3, 21926, Note_on_c, 0, 79, 0
3, 21960, Note_on_c, 0, 77, 60
3, 21983, Note_on_c, 0, 77, 0
3, 22020, Note_on_c, 0, 76, 56
3, 22046, Note_on_c, 0, 76, 0
3, 22080, Note_on_c, 0, 74, 68
3, 22105, Note_on_c, 0, 74, 0
3, 22200, Note_on_c, 0, 74, 65
3, 22224, Note_on_c, 0, 74, 0
3, 22320, Note_on_c, 0, 74, 65
3, 22341, Note_on_c, 0, 74, 0
3, 22440, Note_on_c, 0, 74, 65
3, 22464, Note_on_c, 0, 74, 0
3, 22554, Note_on_c, 0, 74, 81
3, 22560, Note_on_c, 0, 74, 67
3, 22564, Note_on_c, 0, 76, 79
3, 22567, Note_on_c, 0, 74, 0
3, 22582, Note_on_c, 0, 76, 0
3, 22585, Note_on_c, 0, 74, 82
3, 22601, Note_on_c, 0, 74, 0
3, 22604, Note_on_c, 0, 74, 0
3, 22604, Note_on_c, 0, 76, 71
3, 22612, Note_on_c, 0, 76, 0
3, 22619, Note_on_c, 0, 74, 78
3, 22632, Note_on_c, 0, 76, 78
3, 22634, Note_on_c, 0, 74, 0
3, 22652, Note_on_c, 0, 76, 0
3, 22655, Note_on_c, 0, 74, 69
3, 22671, Note_on_c, 0, 74, 0
3, 22680, Note_on_c, 0, 73, 55
3, 22710, Note_on_c, 0, 73, 0
3, 22740, Note_on_c, 0, 74, 68
3, 22775, Note_on_c, 0, 74, 0
3, 22800, Note_on_c, 0, 79, 61
3, 22841, Note_on_c, 0, 79, 0
3, 22860, Note_on_c, 0, 77, 62
3, 22901, Note_on_c, 0, 77, 0
3, 22920, Note_on_c, 0, 76, 49
3, 22947, Note_on_c, 0, 76, 0
3, 22980, Note_on_c, 0, 74, 60
3, 23017, Note_on_c, 0, 74, 0
3, 23040, Note_on_c, 0, 72, 61
3, 23073, Note_on_c, 0, 72, 0
3, 23160, Note_on_c, 0, 72, 61
3, 23187, Note_on_c, 0, 72, 0
3, 23280, Note_on_c, 0, 72, 67
3, 23302, Note_on_c, 0, 72, 0
3, 23400, Note_on_c, 0, 72, 72
3, 23424, Note_on_c, 0, 72, 0
3, 23514, Note_on_c, 0, 72, 82
3, 23520, Note_on_c, 0, 72, 62
3, 23529, Note_on_c, 0, 72, 0
3, 23529, Note_on_c, 0, 74, 69
3, 23547, Note_on_c, 0, 74, 0
3, 23547, Note_on_c, 0, 72, 74
3, 23567, Note_on_c, 0, 72, 0
3, 23568, Note_on_c, 0, 74, 67
3, 23581, Note_on_c, 0, 74, 0
3, 23586, Note_on_c, 0, 72, 72
3, 23593, Note_on_c, 0, 72, 0
3, 23599, Note_on_c, 0, 72, 0
3, 23601, Note_on_c, 0, 74, 70
3, 23617, Note_on_c, 0, 74, 0
3, 23640, Note_on_c, 0, 71, 57
3, 23690, Note_on_c, 0, 71, 0
3, 23700, Note_on_c, 0, 72, 64
3, 23728, Note_on_c, 0, 72, 0
3, 23760, Note_on_c, 0, 77, 74
3, 23818, Note_on_c, 0, 77, 0
3, 23820, Note_on_c, 0, 76, 57
3, 23862, Note_on_c, 0, 76, 0
3, 23880, Note_on_c, 0, 74, 66
3, 23919, Note_on_c, 0, 74, 0
3, 23940, Note_on_c, 0, 72, 72
3, 23969, Note_on_c, 0, 72, 0
3, 24000, Note_on_c, 0, 72, 72
3, 24033, Note_on_c, 0, 72, 0
3, 24060, Note_on_c, 0, 71, 69
3, 24087, Note_on_c, 0, 71, 0
3, 24120, Note_on_c, 0, 74, 75
3, 24141, Note_on_c, 0, 74, 0
3, 24180, Note_on_c, 0, 71, 65
3, 24206, Note_on_c, 0, 71, 0
3, 24240, Note_on_c, 0, 71, 74
3, 24272, Note_on_c, 0, 71, 0
3, 24300, Note_on_c, 0, 69, 65
3, 24324, Note_on_c, 0, 69, 0
3, 24360, Note_on_c, 0, 74, 75
3, 24385, Note_on_c, 0, 74, 0
3, 24420, Note_on_c, 0, 69, 66
3, 24449, Note_on_c, 0, 69, 0
3, 24480, Note_on_c, 0, 69, 66
3, 24506, Note_on_c, 0, 69, 0
3, 24540, Note_on_c, 0, 67, 71
3, 24559, Note_on_c, 0, 67, 0
3, 24600, Note_on_c, 0, 66, 59
3, 24630, Note_on_c, 0, 66, 0
3, 24660, Note_on_c, 0, 67, 74
3, 24690, Note_on_c, 0, 67, 0
3, 24720, Note_on_c, 0, 69, 75
3, 24754, Note_on_c, 0, 69, 0
3, 24780, Note_on_c, 0, 71, 82
3, 24812, Note_on_c, 0, 71, 0
3, 24840, Note_on_c, 0, 72, 87
3, 24878, Note_on_c, 0, 72, 0
3, 24900, Note_on_c, 0, 74, 90
3, 24939, Note_on_c, 0, 74, 0
3, 24960, Note_on_c, 0, 76, 104
3, 25011, Note_on_c, 0, 76, 0
3, 25080, Note_on_c, 0, 76, 105
3, 25125, Note_on_c, 0, 76, 0
3, 25200, Note_on_c, 0, 76, 112
3, 25246, Note_on_c, 0, 76, 0
3, 25320, Note_on_c, 0, 76, 111
3, 25357, Note_on_c, 0, 76, 0
3, 25440, Note_on_c, 0, 76, 107
3, 25451, Note_on_c, 0, 76, 82
3, 25458, Note_on_c, 0, 77, 79
3, 25459, Note_on_c, 0, 76, 0
3, 25471, Note_on_c, 0, 77, 0
3, 25476, Note_on_c, 0, 76, 82
3, 25485, Note_on_c, 0, 76, 0
3, 25490, Note_on_c, 0, 77, 78
3, 25493, Note_on_c, 0, 76, 0
3, 25511, Note_on_c, 0, 77, 0
3, 25511, Note_on_c, 0, 76, 90
3, 25528, Note_on_c, 0, 76, 0
3, 25560, Note_on_c, 0, 75, 85
3, 25598, Note_on_c, 0, 75, 0
3, 25620, Note_on_c, 0, 76, 92
3, 25657, Note_on_c, 0, 76, 0
3, 25680, Note_on_c, 0, 81, 84
3, 25719, Note_on_c, 0, 81, 0
3, 25740, Note_on_c, 0, 79, 85
3, 25781, Note_on_c, 0, 79, 0
3, 25800, Note_on_c, 0, 77, 88
3, 25834, Note_on_c, 0, 77, 0
3, 25860, Note_on_c, 0, 76, 86
3, 25896, Note_on_c, 0, 76, 0
3, 25920, Note_on_c, 0, 74, 94
3, 25957, Note_on_c, 0, 74, 0
3, 26040, Note_on_c, 0, 74, 104
3, 26093, Note_on_c, 0, 74, 0
3, 26160, Note_on_c, 0, 74, 102
3, 26207, Note_on_c, 0, 74, 0
3, 26280, Note_on_c, 0, 74, 107
3, 26327, Note_on_c, 0, 74, 0
3, 26394, Note_on_c, 0, 74, 91
3, 26400, Note_on_c, 0, 74, 104
3, 26410, Note_on_c, 0, 74, 0
3, 26410, Note_on_c, 0, 76, 87
3, 26411, Note_on_c, 0, 77, 63
3, 26421, Note_on_c, 0, 77, 0
3, 26424, Note_on_c, 0, 76, 0
3, 26429, Note_on_c, 0, 74, 87
3, 26441, Note_on_c, 0, 76, 71
3, 26445, Note_on_c, 0, 74, 0
3, 26447, Note_on_c, 0, 74, 0
3, 26459, Note_on_c, 0, 76, 0
3, 26467, Note_on_c, 0, 74, 89
3, 26473, Note_on_c, 0, 76, 85
3, 26481, Note_on_c, 0, 74, 0
3, 26486, Note_on_c, 0, 76, 0
3, 26520, Note_on_c, 0, 73, 82
3, 26554, Note_on_c, 0, 73, 0
3, 26580, Note_on_c, 0, 74, 89
3, 26612, Note_on_c, 0, 74, 0
3, 26640, Note_on_c, 0, 79, 89
3, 26684, Note_on_c, 0, 79, 0
3, 26700, Note_on_c, 0, 77, 86
3, 26742, Note_on_c, 0, 77, 0
3, 26760, Note_on_c, 0, 76, 93
3, 26795, Note_on_c, 0, 76, 0
3, 26820, Note_on_c, 0, 74, 85
3, 26858, Note_on_c, 0, 74, 0
3, 26880, Note_on_c, 0, 72, 90
3, 26917, Note_on_c, 0, 72, 0
3, 27000, Note_on_c, 0, 72, 87
3, 27041, Note_on_c, 0, 72, 0
3, 27120, Note_on_c, 0, 72, 102
3, 27155, Note_on_c, 0, 72, 0
3, 27240, Note_on_c, 0, 72, 97
3, 27286, Note_on_c, 0, 72, 0
3, 27360, Note_on_c, 0, 72, 94
3, 27369, Note_on_c, 0, 72, 88
3, 27375, Note_on_c, 0, 74, 78
3, 27377, Note_on_c, 0, 72, 0
3, 27392, Note_on_c, 0, 74, 0
3, 27395, Note_on_c, 0, 72, 81
3, 27410, Note_on_c, 0, 74, 84
3, 27412, Note_on_c, 0, 72, 0
3, 27420, Note_on_c, 0, 72, 0
3, 27431, Note_on_c, 0, 74, 0
3, 27431, Note_on_c, 0, 72, 85
3, 27455, Note_on_c, 0, 72, 0
3, 27480, Note_on_c, 0, 71, 82
3, 27518, Note_on_c, 0, 71, 0
3, 27540, Note_on_c, 0, 72, 78
3, 27573, Note_on_c, 0, 72, 0
3, 27600, Note_on_c, 0, 77, 82
3, 27641, Note_on_c, 0, 77, 0
3, 27660, Note_on_c, 0, 76, 82
3, 27693, Note_on_c, 0, 76, 0
3, 27720, Note_on_c, 0, 74, 85
3, 27752, Note_on_c, 0, 74, 0
3, 27780, Note_on_c, 0, 72, 98
3, 27810, Note_on_c, 0, 72, 0
3, 27840, Note_on_c, 2, 72, 86
3, 27898, Note_on_c, 2, 72, 0
3, 27900, Note_on_c, 2, 71, 73
3, 27931, Note_on_c, 2, 71, 0
3, 27960, Note_on_c, 2, 74, 82
3, 27990, Note_on_c, 2, 74, 0
3, 28020, Note_on_c, 2, 71, 79
3, 28049, Note_on_c, 2, 71, 0
3, 28080, Note_on_c, 2, 74, 91
3, 28139, Note_on_c, 2, 74, 0
3, 28140, Note_on_c, 2, 72, 85
3, 28170, Note_on_c, 2, 72, 0
3, 28200, Note_on_c, 2, 76, 82
3, 28231, Note_on_c, 2, 76, 0
3, 28260, Note_on_c, 2, 72, 89
3, 28288, Note_on_c, 2, 72, 0
3, 28320, Note_on_c, 2, 72, 90
3, 28380, Note_on_c, 2, 71, 78
3, 28394, Note_on_c, 2, 72, 0
3, 28415, Note_on_c, 2, 71, 0
3, 28440, Note_on_c, 2, 74, 87
3, 28473, Note_on_c, 2, 74, 0
3, 28500, Note_on_c, 2, 71, 79
3, 28533, Note_on_c, 2, 71, 0
3, 28560, Note_on_c, 2, 74, 96
3, 28607, Note_on_c, 2, 74, 0
3, 28620, Note_on_c, 2, 72, 86
3, 28652, Note_on_c, 2, 72, 0
3, 28680, Note_on_c, 2, 76, 83
3, 28711, Note_on_c, 2, 76, 0
3, 28740, Note_on_c, 2, 72, 86
3, 28784, Note_on_c, 2, 72, 0
3, 28800, Note_on_c, 2, 71, 84
3, 28846, Note_on_c, 2, 71, 0
3, 28860, Note_on_c, 2, 72, 86
3, 28902, Note_on_c, 2, 72, 0
3, 28920, Note_on_c, 2, 74, 83
3, 28920, Note_on_c, 2, 72, 61
3, 28932, Note_on_c, 2, 72, 0
3, 28961, Note_on_c, 2, 74, 0
3, 28980, Note_on_c, 2, 79, 88
3, 29019, Note_on_c, 2, 79, 0
3, 29040, Note_on_c, 2, 72, 91
3, 29083, Note_on_c, 2, 72, 0
3, 29100, Note_on_c, 2, 74, 88
3, 29136, Note_on_c, 2, 74, 0
3, 29160, Note_on_c, 2, 76, 80
3, 29198, Note_on_c, 2, 76, 0
3, 29220, Note_on_c, 2, 79, 88
3, 29257, Note_on_c, 2, 79, 0
3, 29280, Note_on_c, 2, 71, 82
3, 29322, Note_on_c, 2, 71, 0
3, 29340, Note_on_c, 2, 72, 89
3, 29382, Note_on_c, 2, 72, 0
3, 29400, Note_on_c, 2, 74, 82
3, 29435, Note_on_c, 2, 74, 0
3, 29460, Note_on_c, 2, 79, 86
3, 29503, Note_on_c, 2, 79, 0
3, 29520, Note_on_c, 2, 72, 84
3, 29560, Note_on_c, 2, 72, 0
3, 29580, Note_on_c, 2, 74, 93
3, 29621, Note_on_c, 2, 74, 0
3, 29640, Note_on_c, 2, 76, 91
3, 29676, Note_on_c, 2, 76, 0
3, 29700, Note_on_c, 2, 79, 94
3, 29732, Note_on_c, 2, 79, 0
3, 29760, Note_on_c, 2, 77, 104
3, 29818, Note_on_c, 2, 77, 0
3, 34560, Note_on_c, 0, 59, 56
3, 34588, Note_on_c, 0, 59, 0
3, 34620, Note_on_c, 0, 59, 54
3, 34641, Note_on_c, 0, 59, 0
3, 34680, Note_on_c, 0, 59, 58
3, 34700, Note_on_c, 0, 59, 0
3, 34740, Note_on_c, 0, 59, 65
3, 34765, Note_on_c, 0, 59, 0
3, 34800, Note_on_c, 0, 59, 62
3, 34823, Note_on_c, 0, 59, 0
3, 34860, Note_on_c, 0, 59, 63
3, 34884, Note_on_c, 0, 59, 0
3, 34920, Note_on_c, 0, 59, 66
3, 34945, Note_on_c, 0, 59, 0
3, 34980, Note_on_c, 0, 59, 67
3, 35004, Note_on_c, 0, 59, 0
3, 35040, Note_on_c, 0, 59, 68
3, 35067, Note_on_c, 0, 59, 0
3, 35100, Note_on_c, 0, 59, 67
3, 35127, Note_on_c, 0, 59, 0
3, 35160, Note_on_c, 0, 59, 72
3, 35188, Note_on_c, 0, 59, 0
3, 35220, Note_on_c, 0, 59, 71
3, 35247, Note_on_c, 0, 59, 0
3, 35280, Note_on_c, 0, 59, 76
3, 35308, Note_on_c, 0, 59, 0
3, 35340, Note_on_c, 0, 59, 76
3, 35371, Note_on_c, 0, 59, 0
3, 35400, Note_on_c, 0, 59, 77
3, 35428, Note_on_c, 0, 59, 0
3, 35460, Note_on_c, 0, 59, 78
3, 35487, Note_on_c, 0, 59, 0
3, 35520, Note_on_c, 0, 60, 82
3, 35549, Note_on_c, 0, 60, 0
3, 35580, Note_on_c, 0, 60, 78
3, 35609, Note_on_c, 0, 60, 0
3, 35640, Note_on_c, 0, 60, 76
3, 35668, Note_on_c, 0, 60, 0
3, 35700, Note_on_c, 0, 60, 78
3, 35732, Note_on_c, 0, 60, 0
3, 35760, Note_on_c, 0, 60, 83
3, 35792, Note_on_c, 0, 60, 0
3, 35820, Note_on_c, 0, 60, 82
3, 35851, Note_on_c, 0, 60, 0
3, 35880, Note_on_c, 0, 60, 84
3, 35910, Note_on_c, 0, 60, 0
3, 35940, Note_on_c, 0, 60, 84
3, 35971, Note_on_c, 0, 60, 0
3, 36000, Note_on_c, 0, 61, 101
3, 36034, Note_on_c, 0, 61, 0
3, 36060, Note_on_c, 0, 61, 101
3, 36087, Note_on_c, 0, 61, 0
3, 36120, Note_on_c, 0, 61, 95
3, 36148, Note_on_c, 0, 61, 0
3, 36180, Note_on_c, 0, 61, 87
3, 36208, Note_on_c, 0, 61, 0
3, 36240, Note_on_c, 0, 61, 85
3, 36267, Note_on_c, 0, 61, 0
3, 36300, Note_on_c, 0, 61, 79
3, 36335, Note_on_c, 0, 61, 0
3, 36360, Note_on_c, 0, 61, 85
3, 36392, Note_on_c, 0, 61, 0
3, 36420, Note_on_c, 0, 61, 83
3, 36461, Note_on_c, 0, 61, 0
3, 36480, Note_on_c, 0, 62, 109
3, 36542, Note_on_c, 0, 62, 0
3, 36600, Note_on_c, 0, 57, 100
3, 36638, Note_on_c, 0, 57, 0
3, 36660, Note_on_c, 0, 57, 90
3, 36699, Note_on_c, 0, 57, 0
3, 36720, Note_on_c, 0, 57, 98
3, 36780, Note_on_c, 0, 57, 0
3, 36840, Note_on_c, 0, 55, 96
3, 36875, Note_on_c, 0, 55, 0
3, 36900, Note_on_c, 0, 55, 91
3, 36934, Note_on_c, 0, 55, 0
3, 36960, Note_on_c, 0, 55, 112
3, 37010, Note_on_c, 0, 55, 0
3, 37080, Note_on_c, 0, 57, 94
3, 37117, Note_on_c, 0, 57, 0
3, 37140, Note_on_c, 0, 57, 94
3, 37171, Note_on_c, 0, 57, 0
3, 37200, Note_on_c, 0, 57, 112
3, 37252, Note_on_c, 0, 57, 0
3, 37320, Note_on_c, 0, 55, 100
3, 37353, Note_on_c, 0, 55, 0
3, 37380, Note_on_c, 0, 55, 98
3, 37415, Note_on_c, 0, 55, 0
3, 37440, Note_on_c, 0, 55, 114
3, 37495, Note_on_c, 0, 55, 0
3, 38400, Note_on_c, 0, 64, 100
3, 38400, Note_on_c, 0, 72, 97
3, 38400, Note_on_c, 0, 76, 101
3, 38436, Note_on_c, 0, 72, 0
3, 38445, Note_on_c, 0, 76, 0
3, 38448, Note_on_c, 0, 64, 0
3, 38520, Note_on_c, 0, 64, 97
3, 38520, Note_on_c, 0, 76, 97
3, 38520, Note_on_c, 0, 72, 94
3, 38555, Note_on_c, 0, 72, 0
3, 38564, Note_on_c, 0, 76, 0
3, 38570, Note_on_c, 0, 64, 0
3, 38640, Note_on_c, 0, 64, 91
3, 38640, Note_on_c, 0, 72, 93
3, 38640, Note_on_c, 0, 76, 98
3, 38674, Note_on_c, 0, 72, 0
3, 38677, Note_on_c, 0, 76, 0
3, 38682, Note_on_c, 0, 64, 0
3, 38760, Note_on_c, 0, 64, 92
3, 38760, Note_on_c, 0, 72, 94
3, 38760, Note_on_c, 0, 76, 97
3, 38793, Note_on_c, 0, 72, 0
3, 38798, Note_on_c, 0, 76, 0
3, 38810, Note_on_c, 0, 64, 0
3, 38880, Note_on_c, 0, 64, 92
3, 38880, Note_on_c, 0, 72, 97
3, 38880, Note_on_c, 0, 76, 97
3, 38924, Note_on_c, 0, 72, 0
3, 38929, Note_on_c, 0, 76, 0
3, 38932, Note_on_c, 0, 64, 0
3, 39120, Note_on_c, 0, 55, 96
3, 39120, Note_on_c, 0, 62, 102
3, 39120, Note_on_c, 0, 79, 101
3, 39120, Note_on_c, 0, 71, 107
3, 39164, Note_on_c, 0, 71, 0
3, 39175, Note_on_c, 0, 62, 0
3, 39175, Note_on_c, 0, 79, 0
3, 39177, Note_on_c, 0, 55, 0
3, 39360, Note_on_c, 0, 76, 101
3, 39360, Note_on_c, 0, 72, 100
3, 39360, Note_on_c, 0, 64, 105
3, 39392, Note_on_c, 0, 72, 0
3, 39401, Note_on_c, 0, 64, 0
3, 39404, Note_on_c, 0, 76, 0
3, 39480, Note_on_c, 0, 64, 96
3, 39480, Note_on_c, 0, 76, 98
3, 39480, Note_on_c, 0, 72, 105
3, 39510, Note_on_c, 0, 72, 0
3, 39521, Note_on_c, 0, 76, 0
3, 39524, Note_on_c, 0, 64, 0
3, 39600, Note_on_c, 0, 64, 97
3, 39600, Note_on_c, 0, 76, 94
3, 39600, Note_on_c, 0, 72, 102
3, 39629, Note_on_c, 0, 72, 0
3, 39642, Note_on_c, 0, 76, 0
3, 39645, Note_on_c, 0, 64, 0
3, 39720, Note_on_c, 0, 64, 94
3, 39720, Note_on_c, 0, 76, 96
3, 39720, Note_on_c, 0, 72, 102
3, 39748, Note_on_c, 0, 72, 0
3, 39759, Note_on_c, 0, 76, 0
3, 39760, Note_on_c, 0, 64, 0
3, 39840, Note_on_c, 0, 64, 93
3, 39840, Note_on_c, 0, 76, 97
3, 39840, Note_on_c, 0, 72, 98
3, 39873, Note_on_c, 0, 72, 0
3, 39882, Note_on_c, 0, 64, 0
3, 39890, Note_on_c, 0, 76, 0
3, 40080, Note_on_c, 0, 62, 94
3, 40080, Note_on_c, 0, 55, 87
3, 40080, Note_on_c, 0, 71, 93
3, 40080, Note_on_c, 0, 79, 92
3, 40122, Note_on_c, 0, 62, 0
3, 40126, Note_on_c, 0, 71, 0
3, 40131, Note_on_c, 0, 55, 0
3, 40136, Note_on_c, 0, 79, 0
3, 40320, Note_on_c, 0, 64, 96
3, 40320, Note_on_c, 0, 55, 92
3, 40320, Note_on_c, 0, 76, 98
3, 40320, Note_on_c, 0, 72, 102
3, 40359, Note_on_c, 0, 72, 0
3, 40367, Note_on_c, 0, 64, 0
3, 40368, Note_on_c, 0, 55, 0
3, 40371, Note_on_c, 0, 76, 0
3, 42540, Note_on_c, 0, 74, 97
3, 42573, Note_on_c, 0, 74, 0
3, 42600, Note_on_c, 0, 76, 104
3, 42635, Note_on_c, 0, 76, 0
3, 42660, Note_on_c, 0, 74, 102
3, 42690, Note_on_c, 0, 74, 0
3, 42720, Note_on_c, 0, 76, 105
3, 42755, Note_on_c, 0, 76, 0
3, 42780, Note_on_c, 0, 74, 102
3, 42811, Note_on_c, 0, 74, 0
3, 42840, Note_on_c, 0, 76, 109
3, 42875, Note_on_c, 0, 76, 0
3, 42900, Note_on_c, 0, 74, 101
3, 42930, Note_on_c, 0, 74, 0
3, 42960, Note_on_c, 0, 76, 111
3, 42995, Note_on_c, 0, 76, 0
3, 43020, Note_on_c, 0, 74, 92
3, 43052, Note_on_c, 0, 74, 0
3, 43080, Note_on_c, 0, 76, 98
3, 43125, Note_on_c, 0, 76, 0
3, 43140, Note_on_c, 0, 74, 87
3, 43172, Note_on_c, 0, 74, 0
3, 43200, Note_on_c, 0, 76, 114
3, 43253, Note_on_c, 0, 76, 0
3, 43253, End_track
4, 0, Start_track
4, 0, Title_t, "Viola          "
4, 0, Channel_prefix, 2
4, 2640, Note_on_c, 0, 55, 100
4, 2748, Note_on_c, 0, 55, 0
4, 2760, Note_on_c, 0, 61, 87
4, 2880, Note_on_c, 0, 62, 87
4, 2884, Note_on_c, 0, 61, 0
4, 2961, Note_on_c, 0, 62, 0
4, 3120, Note_on_c, 0, 55, 96
4, 3240, Note_on_c, 0, 61, 79
4, 3245, Note_on_c, 0, 55, 0
4, 3360, Note_on_c, 0, 62, 88
4, 3363, Note_on_c, 0, 61, 0
4, 3446, Note_on_c, 0, 62, 0
4, 3600, Note_on_c, 0, 55, 91
4, 3720, Note_on_c, 0, 61, 81
4, 3727, Note_on_c, 0, 55, 0
4, 3840, Note_on_c, 0, 62, 88
4, 3842, Note_on_c, 0, 61, 0
4, 3935, Note_on_c, 0, 62, 0
4, 4080, Note_on_c, 0, 55, 100
4, 4200, Note_on_c, 0, 55, 0
4, 4200, Note_on_c, 0, 61, 87
4, 4320, Note_on_c, 0, 62, 101
4, 4320, Note_on_c, 0, 61, 58
4, 4323, Note_on_c, 0, 61, 0
4, 4323, Note_on_c, 0, 61, 0
4, 4416, Note_on_c, 0, 62, 0
4, 12960, Note_on_c, 0, 51, 89
4, 12978, Note_on_c, 0, 51, 0
4, 13080, Note_on_c, 0, 53, 93
4, 13114, Note_on_c, 0, 53, 0
4, 13200, Note_on_c, 0, 51, 86
4, 13236, Note_on_c, 0, 51, 0
4, 13320, Note_on_c, 0, 53, 89
4, 13356, Note_on_c, 0, 53, 0
4, 13440, Note_on_c, 0, 51, 83
4, 13473, Note_on_c, 0, 51, 0
4, 13560, Note_on_c, 0, 53, 83
4, 13594, Note_on_c, 0, 53, 0
4, 13680, Note_on_c, 0, 51, 78
4, 13715, Note_on_c, 0, 51, 0
4, 13800, Note_on_c, 0, 53, 90
4, 13833, Note_on_c, 0, 53, 0
4, 13920, Note_on_c, 0, 51, 85
4, 13954, Note_on_c, 0, 51, 0
4, 14040, Note_on_c, 0, 50, 91
4, 14072, Note_on_c, 0, 50, 0
4, 14160, Note_on_c, 0, 51, 85
4, 14196, Note_on_c, 0, 51, 0
4, 14280, Note_on_c, 0, 50, 86
4, 14314, Note_on_c, 0, 50, 0
4, 14400, Note_on_c, 0, 51, 85
4, 14435, Note_on_c, 0, 51, 0
4, 14520, Note_on_c, 0, 54, 78
4, 14563, Note_on_c, 0, 54, 0
4, 14640, Note_on_c, 0, 55, 82
4, 14676, Note_on_c, 0, 55, 0
4, 14760, Note_on_c, 0, 50, 86
4, 14792, Note_on_c, 0, 50, 0
4, 14880, Note_on_c, 0, 51, 78
4, 14914, Note_on_c, 0, 51, 0
4, 15000, Note_on_c, 0, 53, 88
4, 15037, Note_on_c, 0, 53, 0
4, 15120, Note_on_c, 0, 51, 83
4, 15150, Note_on_c, 0, 51, 0
4, 15240, Note_on_c, 0, 53, 84
4, 15272, Note_on_c, 0, 53, 0
4, 15360, Note_on_c, 0, 51, 85
4, 15392, Note_on_c, 0, 51, 0
4, 15480, Note_on_c, 0, 53, 84
4, 15514, Note_on_c, 0, 53, 0
4, 15600, Note_on_c, 0, 51, 86
4, 15631, Note_on_c, 0, 51, 0
4, 15720, Note_on_c, 0, 53, 90
4, 15758, Note_on_c, 0, 53, 0
4, 15840, Note_on_c, 0, 51, 85
4, 15875, Note_on_c, 0, 51, 0
4, 15960, Note_on_c, 0, 50, 82
4, 15996, Note_on_c, 0, 50, 0
4, 16080, Note_on_c, 0, 51, 82
4, 16114, Note_on_c, 0, 51, 0
4, 16200, Note_on_c, 0, 50, 78
4, 16233, Note_on_c, 0, 50, 0
4, 16320, Note_on_c, 0, 51, 83
4, 16355, Note_on_c, 0, 51, 0
4, 16440, Note_on_c, 0, 54, 77
4, 16476, Note_on_c, 0, 54, 0
4, 16560, Note_on_c, 0, 55, 74
4, 16598, Note_on_c, 0, 55, 0
4, 16680, Note_on_c, 0, 50, 80
4, 16714, Note_on_c, 0, 50, 0
4, 16800, Note_on_c, 0, 52, 86
4, 16823, Note_on_c, 0, 52, 0
4, 16920, Note_on_c, 0, 53, 91
4, 16956, Note_on_c, 0, 53, 0
4, 17040, Note_on_c, 0, 52, 91
4, 17075, Note_on_c, 0, 52, 0
4, 17160, Note_on_c, 0, 53, 92
4, 17193, Note_on_c, 0, 53, 0
4, 17280, Note_on_c, 0, 54, 88
4, 17317, Note_on_c, 0, 54, 0
4, 17400, Note_on_c, 0, 55, 89
4, 17439, Note_on_c, 0, 55, 0
4, 17520, Note_on_c, 0, 54, 81
4, 17563, Note_on_c, 0, 54, 0
4, 17640, Note_on_c, 0, 55, 85
4, 17675, Note_on_c, 0, 55, 0
4, 17760, Note_on_c, 0, 55, 83
4, 17802, Note_on_c, 0, 55, 0
4, 17880, Note_on_c, 0, 56, 82
4, 17921, Note_on_c, 0, 56, 0
4, 18000, Note_on_c, 0, 55, 88
4, 18038, Note_on_c, 0, 55, 0
4, 18120, Note_on_c, 0, 56, 88
4, 18160, Note_on_c, 0, 56, 0
4, 18240, Note_on_c, 0, 57, 94
4, 18282, Note_on_c, 0, 57, 0
4, 18360, Note_on_c, 0, 58, 82
4, 18401, Note_on_c, 0, 58, 0
4, 18480, Note_on_c, 0, 57, 93
4, 18517, Note_on_c, 0, 57, 0
4, 18600, Note_on_c, 0, 58, 86
4, 18634, Note_on_c, 0, 58, 0
4, 18720, Note_on_c, 0, 59, 84
4, 18720, Note_on_c, 0, 62, 85
4, 18745, Note_on_c, 0, 59, 0
4, 18749, Note_on_c, 0, 62, 0
4, 18780, Note_on_c, 0, 59, 79
4, 18780, Note_on_c, 0, 62, 89
4, 18808, Note_on_c, 0, 59, 0
4, 18808, Note_on_c, 0, 62, 0
4, 18840, Note_on_c, 0, 59, 85
4, 18840, Note_on_c, 0, 62, 89
4, 18863, Note_on_c, 0, 59, 0
4, 18865, Note_on_c, 0, 62, 0
4, 18900, Note_on_c, 0, 59, 87
4, 18900, Note_on_c, 0, 62, 85
4, 18925, Note_on_c, 0, 59, 0
4, 18926, Note_on_c, 0, 62, 0
4, 18960, Note_on_c, 0, 59, 89
4, 18960, Note_on_c, 0, 62, 92
4, 18979, Note_on_c, 0, 62, 0
4, 18986, Note_on_c, 0, 59, 0
4, 19020, Note_on_c, 0, 59, 79
4, 19020, Note_on_c, 0, 62, 82
4, 19039, Note_on_c, 0, 62, 0
4, 19040, Note_on_c, 0, 59, 0
4, 19080, Note_on_c, 0, 59, 83
4, 19080, Note_on_c, 0, 62, 96
4, 19101, Note_on_c, 0, 59, 0
4, 19101, Note_on_c, 0, 62, 0
4, 19140, Note_on_c, 0, 59, 82
4, 19140, Note_on_c, 0, 62, 88
4, 19158, Note_on_c, 0, 62, 0
4, 19159, Note_on_c, 0, 59, 0
4, 19200, Note_on_c, 0, 59, 90
4, 19200, Note_on_c, 0, 62, 92
4, 19213, Note_on_c, 0, 62, 0
4, 19221, Note_on_c, 0, 59, 0
4, 19260, Note_on_c, 0, 59, 88
4, 19260, Note_on_c, 0, 62, 90
4, 19277, Note_on_c, 0, 62, 0
4, 19282, Note_on_c, 0, 59, 0
4, 19320, Note_on_c, 0, 59, 93
4, 19320, Note_on_c, 0, 62, 93
4, 19340, Note_on_c, 0, 62, 0
4, 19342, Note_on_c, 0, 59, 0
4, 19380, Note_on_c, 0, 59, 93
4, 19380, Note_on_c, 0, 62, 90
4, 19402, Note_on_c, 0, 62, 0
4, 19403, Note_on_c, 0, 59, 0
4, 19440, Note_on_c, 0, 59, 91
4, 19440, Note_on_c, 0, 62, 97
4, 19460, Note_on_c, 0, 62, 0
4, 19463, Note_on_c, 0, 59, 0
4, 19500, Note_on_c, 0, 59, 94
4, 19500, Note_on_c, 0, 62, 97
4, 19521, Note_on_c, 0, 62, 0
4, 19523, Note_on_c, 0, 59, 0
4, 19560, Note_on_c, 0, 59, 92
4, 19560, Note_on_c, 0, 62, 102
4, 19582, Note_on_c, 0, 59, 0
4, 19582, Note_on_c, 0, 62, 0
4, 19620, Note_on_c, 0, 59, 88
4, 19620, Note_on_c, 0, 62, 89
4, 19644, Note_on_c, 0, 62, 0
4, 19645, Note_on_c, 0, 59, 0
4, 19680, Note_on_c, 0, 59, 92
4, 19680, Note_on_c, 0, 62, 98
4, 19703, Note_on_c, 0, 62, 0
4, 19704, Note_on_c, 0, 59, 0
4, 19740, Note_on_c, 0, 59, 90
4, 19740, Note_on_c, 0, 62, 94
4, 19763, Note_on_c, 0, 59, 0
4, 19763, Note_on_c, 0, 62, 0
4, 19800, Note_on_c, 0, 59, 94
4, 19800, Note_on_c, 0, 62, 97
4, 19822, Note_on_c, 0, 62, 0
4, 19825, Note_on_c, 0, 59, 0
4, 19860, Note_on_c, 0, 59, 89
4, 19860, Note_on_c, 0, 62, 91
4, 19883, Note_on_c, 0, 62, 0
4, 19885, Note_on_c, 0, 59, 0
4, 19920, Note_on_c, 0, 59, 92
4, 19920, Note_on_c, 0, 62, 96
4, 19943, Note_on_c, 0, 59, 0
4, 19943, Note_on_c, 0, 62, 0
4, 19980, Note_on_c, 0, 59, 89
4, 19980, Note_on_c, 0, 62, 94
4, 20004, Note_on_c, 0, 59, 0
4, 20004, Note_on_c, 0, 62, 0
4, 20040, Note_on_c, 0, 59, 87
4, 20040, Note_on_c, 0, 62, 94
4, 20061, Note_on_c, 0, 62, 0
4, 20064, Note_on_c, 0, 59, 0
4, 20100, Note_on_c, 0, 59, 82
4, 20100, Note_on_c, 0, 62, 89
4, 20128, Note_on_c, 0, 62, 0
4, 20130, Note_on_c, 0, 59, 0
4, 20160, Note_on_c, 0, 62, 101
4, 20160, Note_on_c, 0, 57, 98
4, 20198, Note_on_c, 0, 62, 0
4, 20206, Note_on_c, 0, 57, 0
4, 20640, Note_on_c, 0, 55, 89
4, 20640, Note_on_c, 0, 71, 94
4, 20640, Note_on_c, 0, 62, 102
4, 20702, Note_on_c, 0, 71, 0
4, 20709, Note_on_c, 0, 62, 0
4, 20713, Note_on_c, 0, 55, 0
4, 24960, Note_on_c, 2, 60, 104
4, 24989, Note_on_c, 2, 60, 0
4, 25020, Note_on_c, 2, 60, 82
4, 25054, Note_on_c, 2, 60, 0
4, 25080, Note_on_c, 2, 60, 102
4, 25110, Note_on_c, 2, 60, 0
4, 25140, Note_on_c, 2, 60, 89
4, 25168, Note_on_c, 2, 60, 0
4, 25200, Note_on_c, 2, 59, 89
4, 25230, Note_on_c, 2, 59, 0
4, 25260, Note_on_c, 2, 59, 79
4, 25300, Note_on_c, 2, 59, 0
4, 25320, Note_on_c, 2, 59, 104
4, 25355, Note_on_c, 2, 59, 0
4, 25380, Note_on_c, 2, 59, 86
4, 25422, Note_on_c, 2, 59, 0
4, 25440, Note_on_c, 2, 58, 99
4, 25467, Note_on_c, 2, 58, 0
4, 25500, Note_on_c, 2, 58, 93
4, 25527, Note_on_c, 2, 58, 0
4, 25560, Note_on_c, 2, 58, 101
4, 25582, Note_on_c, 2, 58, 0
4, 25620, Note_on_c, 2, 58, 106
4, 25650, Note_on_c, 2, 58, 0
4, 25680, Note_on_c, 2, 57, 96
4, 25711, Note_on_c, 2, 57, 0
4, 25740, Note_on_c, 2, 57, 92
4, 25773, Note_on_c, 2, 57, 0
4, 25800, Note_on_c, 2, 57, 89
4, 25828, Note_on_c, 2, 57, 0
4, 25860, Note_on_c, 2, 57, 91
4, 25899, Note_on_c, 2, 57, 0
4, 25920, Note_on_c, 2, 58, 110
4, 25947, Note_on_c, 2, 58, 0
4, 25980, Note_on_c, 2, 58, 99
4, 26007, Note_on_c, 2, 58, 0
4, 26040, Note_on_c, 2, 58, 104
4, 26065, Note_on_c, 2, 58, 0
4, 26100, Note_on_c, 2, 58, 108
4, 26138, Note_on_c, 2, 58, 0
4, 26160, Note_on_c, 2, 57, 92
4, 26197, Note_on_c, 2, 57, 0
4, 26220, Note_on_c, 2, 57, 86
4, 26249, Note_on_c, 2, 57, 0
4, 26280, Note_on_c, 2, 57, 78
4, 26313, Note_on_c, 2, 57, 0
4, 26340, Note_on_c, 2, 57, 82
4, 26380, Note_on_c, 2, 57, 0
4, 26400, Note_on_c, 2, 56, 104
4, 26430, Note_on_c, 2, 56, 0
4, 26460, Note_on_c, 2, 56, 98
4, 26484, Note_on_c, 2, 56, 0
4, 26520, Note_on_c, 2, 56, 103
4, 26547, Note_on_c, 2, 56, 0
4, 26580, Note_on_c, 2, 56, 98
4, 26615, Note_on_c, 2, 56, 0
4, 26640, Note_on_c, 2, 55, 94
4, 26672, Note_on_c, 2, 55, 0
4, 26700, Note_on_c, 2, 55, 81
4, 26728, Note_on_c, 2, 55, 0
4, 26760, Note_on_c, 2, 55, 82
4, 26786, Note_on_c, 2, 55, 0
4, 26820, Note_on_c, 2, 55, 85
4, 26860, Note_on_c, 2, 55, 0
4, 26880, Note_on_c, 2, 57, 100
4, 26914, Note_on_c, 2, 57, 0
4, 26940, Note_on_c, 2, 57, 86
4, 26970, Note_on_c, 2, 57, 0
4, 27000, Note_on_c, 2, 57, 86
4, 27030, Note_on_c, 2, 57, 0
4, 27060, Note_on_c, 2, 57, 92
4, 27097, Note_on_c, 2, 57, 0
4, 27120, Note_on_c, 2, 55, 86
4, 27151, Note_on_c, 2, 55, 0
4, 27180, Note_on_c, 2, 55, 72
4, 27216, Note_on_c, 2, 55, 0
4, 27240, Note_on_c, 2, 55, 75
4, 27268, Note_on_c, 2, 55, 0
4, 27300, Note_on_c, 2, 55, 78
4, 27334, Note_on_c, 2, 55, 0
4, 27360, Note_on_c, 2, 53, 78
4, 27386, Note_on_c, 2, 53, 0
4, 27420, Note_on_c, 2, 53, 76
4, 27450, Note_on_c, 2, 53, 0
4, 27480, Note_on_c, 2, 65, 88
4, 27512, Note_on_c, 2, 65, 0
4, 27540, Note_on_c, 2, 65, 82
4, 27581, Note_on_c, 2, 65, 0
4, 27600, Note_on_c, 2, 62, 84
4, 27633, Note_on_c, 2, 62, 0
4, 27660, Note_on_c, 2, 62, 69
4, 27690, Note_on_c, 2, 62, 0
4, 27720, Note_on_c, 2, 65, 80
4, 27751, Note_on_c, 2, 65, 0
4, 27780, Note_on_c, 2, 65, 78
4, 27812, Note_on_c, 2, 65, 0
4, 27840, Note_on_c, 2, 65, 83
4, 27840, Note_on_c, 2, 62, 80
4, 27861, Note_on_c, 2, 62, 0
4, 27869, Note_on_c, 2, 65, 0
4, 27900, Note_on_c, 2, 62, 76
4, 27900, Note_on_c, 2, 65, 82
4, 27921, Note_on_c, 2, 62, 0
4, 27927, Note_on_c, 2, 65, 0
4, 27960, Note_on_c, 2, 65, 82
4, 27960, Note_on_c, 2, 62, 75
4, 27975, Note_on_c, 2, 62, 0
4, 27985, Note_on_c, 2, 65, 0
4, 28020, Note_on_c, 2, 65, 82
4, 28020, Note_on_c, 2, 62, 74
4, 28038, Note_on_c, 2, 62, 0
4, 28047, Note_on_c, 2, 65, 0
4, 28080, Note_on_c, 2, 64, 89
4, 28080, Note_on_c, 2, 60, 78
4, 28103, Note_on_c, 2, 60, 0
4, 28108, Note_on_c, 2, 64, 0
4, 28140, Note_on_c, 2, 64, 76
4, 28140, Note_on_c, 2, 60, 69
4, 28165, Note_on_c, 2, 64, 0
4, 28172, Note_on_c, 2, 60, 0
4, 28200, Note_on_c, 2, 64, 82
4, 28200, Note_on_c, 2, 60, 76
4, 28230, Note_on_c, 2, 60, 0
4, 28231, Note_on_c, 2, 64, 0
4, 28260, Note_on_c, 2, 60, 72
4, 28260, Note_on_c, 2, 64, 76
4, 28290, Note_on_c, 2, 64, 0
4, 28292, Note_on_c, 2, 60, 0
4, 28320, Note_on_c, 2, 65, 83
4, 28320, Note_on_c, 2, 62, 78
4, 28343, Note_on_c, 2, 62, 0
4, 28349, Note_on_c, 2, 65, 0
4, 28380, Note_on_c, 2, 65, 82
4, 28380, Note_on_c, 2, 62, 76
4, 28403, Note_on_c, 2, 62, 0
4, 28407, Note_on_c, 2, 65, 0
4, 28440, Note_on_c, 2, 65, 88
4, 28440, Note_on_c, 2, 62, 75
4, 28459, Note_on_c, 2, 62, 0
4, 28467, Note_on_c, 2, 65, 0
4, 28500, Note_on_c, 2, 65, 78
4, 28500, Note_on_c, 2, 62, 74
4, 28524, Note_on_c, 2, 62, 0
4, 28527, Note_on_c, 2, 65, 0
4, 28560, Note_on_c, 2, 60, 78
4, 28560, Note_on_c, 2, 64, 85
4, 28589, Note_on_c, 2, 64, 0
4, 28591, Note_on_c, 2, 60, 0
4, 28620, Note_on_c, 2, 60, 69
4, 28620, Note_on_c, 2, 64, 76
4, 28652, Note_on_c, 2, 60, 0
4, 28652, Note_on_c, 2, 64, 0
4, 28680, Note_on_c, 2, 64, 82
4, 28680, Note_on_c, 2, 60, 78
4, 28710, Note_on_c, 2, 60, 0
4, 28713, Note_on_c, 2, 64, 0
4, 28740, Note_on_c, 2, 60, 76
4, 28740, Note_on_c, 2, 64, 78
4, 28771, Note_on_c, 2, 64, 0
4, 28772, Note_on_c, 2, 60, 0
4, 28800, Note_on_c, 2, 62, 85
4, 28800, Note_on_c, 2, 65, 82
4, 28829, Note_on_c, 2, 62, 0
4, 28829, Note_on_c, 2, 65, 0
4, 28860, Note_on_c, 2, 65, 78
4, 28860, Note_on_c, 2, 62, 77
4, 28884, Note_on_c, 2, 62, 0
4, 28887, Note_on_c, 2, 65, 0
4, 28920, Note_on_c, 2, 65, 84
4, 28920, Note_on_c, 2, 62, 82
4, 28945, Note_on_c, 2, 62, 0
4, 28947, Note_on_c, 2, 65, 0
4, 28980, Note_on_c, 2, 65, 82
4, 28980, Note_on_c, 2, 62, 78
4, 29004, Note_on_c, 2, 62, 0
4, 29014, Note_on_c, 2, 65, 0
4, 29040, Note_on_c, 2, 60, 81
4, 29040, Note_on_c, 2, 64, 90
4, 29070, Note_on_c, 2, 60, 0
4, 29072, Note_on_c, 2, 64, 0
4, 29100, Note_on_c, 2, 60, 67
4, 29100, Note_on_c, 2, 64, 78
4, 29134, Note_on_c, 2, 60, 0
4, 29136, Note_on_c, 2, 64, 0
4, 29160, Note_on_c, 2, 60, 78
4, 29160, Note_on_c, 2, 64, 83
4, 29190, Note_on_c, 2, 64, 0
4, 29193, Note_on_c, 2, 60, 0
4, 29220, Note_on_c, 2, 60, 71
4, 29220, Note_on_c, 2, 64, 76
4, 29246, Note_on_c, 2, 64, 0
4, 29250, Note_on_c, 2, 60, 0
4, 29280, Note_on_c, 2, 62, 80
4, 29280, Note_on_c, 2, 65, 67
4, 29300, Note_on_c, 2, 65, 0
4, 29307, Note_on_c, 2, 62, 0
4, 29340, Note_on_c, 2, 65, 82
4, 29340, Note_on_c, 2, 62, 72
4, 29358, Note_on_c, 2, 62, 0
4, 29369, Note_on_c, 2, 65, 0
4, 29400, Note_on_c, 2, 65, 82
4, 29400, Note_on_c, 2, 62, 62
4, 29408, Note_on_c, 2, 62, 0
4, 29423, Note_on_c, 2, 65, 0
4, 29460, Note_on_c, 2, 65, 82
4, 29460, Note_on_c, 2, 62, 76
4, 29483, Note_on_c, 2, 62, 0
4, 29493, Note_on_c, 2, 65, 0
4, 29520, Note_on_c, 2, 64, 86
4, 29520, Note_on_c, 2, 60, 76
4, 29549, Note_on_c, 2, 60, 0
4, 29551, Note_on_c, 2, 64, 0
4, 29580, Note_on_c, 2, 60, 72
4, 29580, Note_on_c, 2, 64, 78
4, 29607, Note_on_c, 2, 64, 0
4, 29610, Note_on_c, 2, 60, 0
4, 29640, Note_on_c, 2, 60, 67
4, 29640, Note_on_c, 2, 64, 78
4, 29672, Note_on_c, 2, 60, 0
4, 29672, Note_on_c, 2, 64, 0
4, 29700, Note_on_c, 2, 60, 82
4, 29700, Note_on_c, 2, 64, 90
4, 29730, Note_on_c, 2, 60, 0
4, 29730, Note_on_c, 2, 64, 0
4, 31680, Note_on_c, 0, 62, 101
4, 31680, Note_on_c, 0, 74, 94
4, 31680, Note_on_c, 0, 55, 101
4, 31737, Note_on_c, 0, 62, 0
4, 31737, Note_on_c, 0, 74, 0
4, 31746, Note_on_c, 0, 55, 0
4, 32760, Note_on_c, 2, 55, 82
4, 32795, Note_on_c, 2, 55, 0
4, 32820, Note_on_c, 2, 57, 74
4, 32853, Note_on_c, 2, 57, 0
4, 32880, Note_on_c, 2, 59, 82
4, 32917, Note_on_c, 2, 59, 0
4, 32940, Note_on_c, 2, 60, 55
4, 32984, Note_on_c, 2, 60, 0
4, 33000, Note_on_c, 2, 62, 78
4, 33030, Note_on_c, 2, 62, 0
4, 33060, Note_on_c, 2, 64, 78
4, 33092, Note_on_c, 2, 64, 0
4, 33120, Note_on_c, 2, 53, 80
4, 33158, Note_on_c, 2, 53, 0
4, 33180, Note_on_c, 2, 55, 72
4, 33217, Note_on_c, 2, 55, 0
4, 33240, Note_on_c, 2, 57, 79
4, 33278, Note_on_c, 2, 57, 0
4, 33300, Note_on_c, 2, 59, 80
4, 33335, Note_on_c, 2, 59, 0
4, 33360, Note_on_c, 2, 60, 79
4, 33386, Note_on_c, 2, 60, 0
4, 33420, Note_on_c, 2, 61, 85
4, 33458, Note_on_c, 2, 61, 0
4, 33480, Note_on_c, 2, 62, 87
4, 33515, Note_on_c, 2, 62, 0
4, 33540, Note_on_c, 2, 67, 97
4, 33555, Note_on_c, 2, 67, 0
4, 33660, Note_on_c, 2, 58, 58
4, 33684, Note_on_c, 2, 58, 0
4, 33720, Note_on_c, 2, 58, 73
4, 33734, Note_on_c, 2, 58, 0
4, 33780, Note_on_c, 2, 58, 70
4, 33801, Note_on_c, 2, 58, 0
4, 33840, Note_on_c, 2, 58, 89
4, 33857, Note_on_c, 2, 58, 0
4, 33900, Note_on_c, 2, 58, 78
4, 33915, Note_on_c, 2, 58, 0
4, 33960, Note_on_c, 2, 58, 93
4, 33960, Note_on_c, 2, 58, 92
4, 33975, Note_on_c, 2, 58, 0
4, 33976, Note_on_c, 2, 58, 0
4, 34080, Note_on_c, 2, 58, 96
4, 34096, Note_on_c, 2, 58, 0
4, 34140, Note_on_c, 2, 58, 83
4, 34156, Note_on_c, 2, 58, 0
4, 34200, Note_on_c, 2, 58, 98
4, 34219, Note_on_c, 2, 58, 0
4, 34260, Note_on_c, 2, 58, 79
4, 34277, Note_on_c, 2, 58, 0
4, 34320, Note_on_c, 2, 58, 79
4, 34337, Note_on_c, 2, 58, 0
4, 34380, Note_on_c, 2, 58, 68
4, 34397, Note_on_c, 2, 58, 0
4, 34440, Note_on_c, 2, 58, 85
4, 34462, Note_on_c, 2, 58, 0
4, 34500, Note_on_c, 2, 58, 62
4, 34524, Note_on_c, 2, 58, 0
4, 34560, Note_on_c, 2, 59, 72
4, 34583, Note_on_c, 2, 59, 0
4, 34620, Note_on_c, 2, 59, 55
4, 34634, Note_on_c, 2, 59, 0
4, 34680, Note_on_c, 2, 59, 58
4, 34705, Note_on_c, 2, 59, 0
4, 34740, Note_on_c, 2, 59, 60
4, 34761, Note_on_c, 2, 59, 0
4, 34800, Note_on_c, 2, 59, 67
4, 34819, Note_on_c, 2, 59, 0
4, 34860, Note_on_c, 2, 59, 61
4, 34879, Note_on_c, 2, 59, 0
4, 34920, Note_on_c, 2, 59, 75
4, 34950, Note_on_c, 2, 59, 0
4, 34980, Note_on_c, 2, 59, 62
4, 34993, Note_on_c, 2, 59, 0
4, 35040, Note_on_c, 2, 59, 72
4, 35055, Note_on_c, 2, 59, 0
4, 35100, Note_on_c, 2, 59, 69
4, 35120, Note_on_c, 2, 59, 0
4, 35160, Note_on_c, 2, 59, 72
4, 35179, Note_on_c, 2, 59, 0
4, 35220, Note_on_c, 2, 59, 72
4, 35240, Note_on_c, 2, 59, 0
4, 35280, Note_on_c, 2, 59, 77
4, 35303, Note_on_c, 2, 59, 0
4, 35340, Note_on_c, 2, 59, 68
4, 35362, Note_on_c, 2, 59, 0
4, 35400, Note_on_c, 2, 59, 76
4, 35420, Note_on_c, 2, 59, 0
4, 35460, Note_on_c, 2, 59, 65
4, 35481, Note_on_c, 2, 59, 0
4, 35520, Note_on_c, 2, 60, 72
4, 35542, Note_on_c, 2, 60, 0
4, 35580, Note_on_c, 2, 60, 66
4, 35604, Note_on_c, 2, 60, 0
4, 35640, Note_on_c, 2, 60, 68
4, 35670, Note_on_c, 2, 60, 0
4, 35700, Note_on_c, 2, 60, 69
4, 35718, Note_on_c, 2, 60, 0
4, 35760, Note_on_c, 2, 60, 74
4, 35784, Note_on_c, 2, 60, 0
4, 35820, Note_on_c, 2, 60, 72
4, 35842, Note_on_c, 2, 60, 0
4, 35880, Note_on_c, 2, 60, 74
4, 35905, Note_on_c, 2, 60, 0
4, 35940, Note_on_c, 2, 60, 71
4, 35965, Note_on_c, 2, 60, 0
4, 36000, Note_on_c, 2, 61, 82
4, 36029, Note_on_c, 2, 61, 0
4, 36060, Note_on_c, 2, 61, 72
4, 36082, Note_on_c, 2, 61, 0
4, 36120, Note_on_c, 2, 61, 87
4, 36144, Note_on_c, 2, 61, 0
4, 36180, Note_on_c, 2, 61, 74
4, 36200, Note_on_c, 2, 61, 0
4, 36240, Note_on_c, 2, 61, 70
4, 36262, Note_on_c, 2, 61, 0
4, 36300, Note_on_c, 2, 61, 66
4, 36324, Note_on_c, 2, 61, 0
4, 36360, Note_on_c, 2, 61, 66
4, 36382, Note_on_c, 2, 61, 0
4, 36420, Note_on_c, 2, 61, 58
4, 36445, Note_on_c, 2, 61, 0
4, 36480, Note_on_c, 2, 62, 92
4, 36527, Note_on_c, 2, 62, 0
4, 36600, Note_on_c, 0, 53, 92
4, 36633, Note_on_c, 0, 53, 0
4, 36660, Note_on_c, 0, 53, 83
4, 36696, Note_on_c, 0, 53, 0
4, 36720, Note_on_c, 0, 53, 90
4, 36785, Note_on_c, 0, 53, 0
4, 36840, Note_on_c, 0, 52, 82
4, 36869, Note_on_c, 0, 52, 0
4, 36900, Note_on_c, 0, 52, 80
4, 36949, Note_on_c, 0, 52, 0
4, 36960, Note_on_c, 0, 50, 109
4, 37007, Note_on_c, 0, 50, 0
4, 37080, Note_on_c, 0, 53, 82
4, 37109, Note_on_c, 0, 53, 0
4, 37140, Note_on_c, 0, 53, 89
4, 37174, Note_on_c, 0, 53, 0
4, 37200, Note_on_c, 0, 53, 89
4, 37250, Note_on_c, 0, 53, 0
4, 37320, Note_on_c, 0, 52, 78
4, 37351, Note_on_c, 0, 52, 0
4, 37380, Note_on_c, 0, 52, 82
4, 37419, Note_on_c, 0, 52, 0
4, 37440, Note_on_c, 0, 50, 107
4, 37491, Note_on_c, 0, 50, 0
4, 38400, Note_on_c, 0, 60, 82
4, 38447, Note_on_c, 0, 60, 0
4, 38520, Note_on_c, 0, 64, 92
4, 38564, Note_on_c, 0, 64, 0
4, 38640, Note_on_c, 0, 65, 88
4, 38671, Note_on_c, 0, 65, 0
4, 38760, Note_on_c, 0, 66, 85
4, 38808, Note_on_c, 0, 66, 0
4, 38880, Note_on_c, 0, 55, 97
4, 38880, Note_on_c, 0, 67, 98
4, 38919, Note_on_c, 0, 55, 0
4, 38919, Note_on_c, 0, 67, 0
4, 39120, Note_on_c, 0, 55, 98
4, 39120, Note_on_c, 0, 67, 101
4, 39167, Note_on_c, 0, 67, 0
4, 39172, Note_on_c, 0, 55, 0
4, 39360, Note_on_c, 0, 60, 78
4, 39405, Note_on_c, 0, 60, 0
4, 39480, Note_on_c, 0, 64, 93
4, 39529, Note_on_c, 0, 64, 0
4, 39600, Note_on_c, 0, 65, 91
4, 39637, Note_on_c, 0, 65, 0
4, 39720, Note_on_c, 0, 66, 85
4, 39764, Note_on_c, 0, 66, 0
4, 39840, Note_on_c, 0, 55, 89
4, 39840, Note_on_c, 0, 67, 96
4, 39884, Note_on_c, 0, 67, 0
4, 39886, Note_on_c, 0, 55, 0
4, 40080, Note_on_c, 0, 67, 93
4, 40080, Note_on_c, 0, 55, 83
4, 40128, Note_on_c, 0, 55, 0
4, 40130, Note_on_c, 0, 67, 0
4, 40130, End_track
5, 0, Start_track
5, 0, Title_t, "Cello          "
5, 0, Channel_prefix, 2
5, 2640, Note_on_c, 0, 43, 93
5, 2757, Note_on_c, 0, 43, 0
5, 2760, Note_on_c, 0, 49, 88
5, 2872, Note_on_c, 0, 49, 0
5, 2880, Note_on_c, 0, 50, 78
5, 2949, Note_on_c, 0, 50, 0
5, 3120, Note_on_c, 0, 43, 94
5, 3235, Note_on_c, 0, 43, 0
5, 3240, Note_on_c, 0, 49, 82
5, 3360, Note_on_c, 0, 50, 78
5, 3367, Note_on_c, 0, 49, 0
5, 3458, Note_on_c, 0, 50, 0
5, 3600, Note_on_c, 0, 43, 86
5, 3711, Note_on_c, 0, 43, 0
5, 3720, Note_on_c, 0, 49, 81
5, 3832, Note_on_c, 0, 49, 0
5, 3840, Note_on_c, 0, 50, 76
5, 3931, Note_on_c, 0, 50, 0
5, 4080, Note_on_c, 0, 43, 89
5, 4200, Note_on_c, 0, 49, 78
5, 4203, Note_on_c, 0, 43, 0
5, 4318, Note_on_c, 0, 49, 0
5, 4320, Note_on_c, 0, 50, 86
5, 4378, Note_on_c, 0, 50, 0
5, 9120, Note_on_c, 2, 64, 89
5, 9150, Note_on_c, 2, 64, 0
5, 9240, Note_on_c, 2, 64, 82
5, 9276, Note_on_c, 2, 64, 0
5, 9360, Note_on_c, 2, 64, 79
5, 9398, Note_on_c, 2, 64, 0
5, 9480, Note_on_c, 2, 64, 81
5, 9515, Note_on_c, 2, 64, 0
5, 9589, Note_on_c, 2, 64, 109
5, 9600, Note_on_c, 2, 64, 82
5, 9609, Note_on_c, 2, 65, 84
5, 9613, Note_on_c, 2, 64, 0
5, 9624, Note_on_c, 2, 64, 79
5, 9626, Note_on_c, 2, 65, 0
5, 9640, Note_on_c, 2, 65, 76
5, 9643, Note_on_c, 2, 64, 0
5, 9657, Note_on_c, 2, 65, 0
5, 9658, Note_on_c, 2, 64, 68
5, 9659, Note_on_c, 2, 64, 0
5, 9668, Note_on_c, 2, 64, 0
5, 9669, Note_on_c, 2, 65, 68
5, 9675, Note_on_c, 2, 64, 58
5, 9684, Note_on_c, 2, 65, 0
5, 9697, Note_on_c, 2, 64, 0
5, 9720, Note_on_c, 2, 63, 73
5, 9759, Note_on_c, 2, 63, 0
5, 9780, Note_on_c, 2, 64, 82
5, 9810, Note_on_c, 2, 64, 0
5, 9840, Note_on_c, 2, 69, 78
5, 9878, Note_on_c, 2, 69, 0
5, 9900, Note_on_c, 2, 67, 74
5, 9943, Note_on_c, 2, 67, 0
5, 9960, Note_on_c, 2, 65, 78
5, 10002, Note_on_c, 2, 65, 0
5, 10020, Note_on_c, 2, 64, 78
5, 10061, Note_on_c, 2, 64, 0
5, 10080, Note_on_c, 2, 62, 86
5, 10124, Note_on_c, 2, 62, 0
5, 10200, Note_on_c, 2, 62, 87
5, 10251, Note_on_c, 2, 62, 0
5, 10320, Note_on_c, 2, 62, 86
5, 10375, Note_on_c, 2, 62, 0
5, 10440, Note_on_c, 2, 62, 82
5, 10494, Note_on_c, 2, 62, 0
5, 10555, Note_on_c, 2, 62, 83
5, 10560, Note_on_c, 2, 62, 82
5, 10569, Note_on_c, 2, 64, 78
5, 10572, Note_on_c, 2, 62, 0
5, 10588, Note_on_c, 2, 64, 0
5, 10590, Note_on_c, 2, 62, 83
5, 10606, Note_on_c, 2, 64, 77
5, 10609, Note_on_c, 2, 62, 0
5, 10621, Note_on_c, 2, 62, 0
5, 10621, Note_on_c, 2, 64, 0
5, 10627, Note_on_c, 2, 62, 78
5, 10635, Note_on_c, 2, 64, 80
5, 10638, Note_on_c, 2, 62, 0
5, 10651, Note_on_c, 2, 62, 91
5, 10655, Note_on_c, 2, 64, 0
5, 10674, Note_on_c, 2, 62, 0
5, 10680, Note_on_c, 2, 61, 76
5, 10721, Note_on_c, 2, 61, 0
5, 10740, Note_on_c, 2, 62, 80
5, 10776, Note_on_c, 2, 62, 0
5, 10800, Note_on_c, 2, 67, 82
5, 10853, Note_on_c, 2, 67, 0
5, 10860, Note_on_c, 2, 65, 76
5, 10904, Note_on_c, 2, 65, 0
5, 10920, Note_on_c, 2, 64, 80
5, 10959, Note_on_c, 2, 64, 0
5, 10980, Note_on_c, 2, 62, 78
5, 11017, Note_on_c, 2, 62, 0
5, 11040, Note_on_c, 2, 60, 77
5, 11091, Note_on_c, 2, 60, 0
5, 11160, Note_on_c, 2, 60, 78
5, 11207, Note_on_c, 2, 60, 0
5, 11280, Note_on_c, 2, 60, 76
5, 11330, Note_on_c, 2, 60, 0
5, 11400, Note_on_c, 2, 60, 79
5, 11449, Note_on_c, 2, 60, 0
5, 11517, Note_on_c, 2, 60, 87
5, 11520, Note_on_c, 2, 60, 76
5, 11533, Note_on_c, 2, 62, 76
5, 11535, Note_on_c, 2, 60, 0
5, 11551, Note_on_c, 2, 62, 0
5, 11551, Note_on_c, 2, 60, 85
5, 11571, Note_on_c, 2, 62, 71
5, 11573, Note_on_c, 2, 60, 0
5, 11578, Note_on_c, 2, 62, 0
5, 11586, Note_on_c, 2, 60, 72
5, 11594, Note_on_c, 2, 62, 78
5, 11598, Note_on_c, 2, 60, 0
5, 11614, Note_on_c, 2, 60, 86
5, 11616, Note_on_c, 2, 62, 0
5, 11622, Note_on_c, 2, 60, 0
5, 11637, Note_on_c, 2, 60, 0
5, 11640, Note_on_c, 2, 59, 80
5, 11681, Note_on_c, 2, 59, 0
5, 11700, Note_on_c, 2, 60, 76
5, 11735, Note_on_c, 2, 60, 0
5, 11760, Note_on_c, 2, 65, 76
5, 11815, Note_on_c, 2, 65, 0
5, 11820, Note_on_c, 2, 64, 76
5, 11872, Note_on_c, 2, 64, 0
5, 11880, Note_on_c, 2, 62, 77
5, 11922, Note_on_c, 2, 62, 0
5, 11940, Note_on_c, 2, 60, 78
5, 11981, Note_on_c, 2, 60, 0
5, 12000, Note_on_c, 2, 60, 80
5, 12042, Note_on_c, 2, 60, 0
5, 12060, Note_on_c, 2, 59, 81
5, 12095, Note_on_c, 2, 59, 0
5, 12120, Note_on_c, 2, 62, 79
5, 12154, Note_on_c, 2, 62, 0
5, 12180, Note_on_c, 2, 60, 76
5, 12215, Note_on_c, 2, 60, 0
5, 12240, Note_on_c, 2, 64, 86
5, 12273, Note_on_c, 2, 64, 0
5, 12300, Note_on_c, 2, 62, 80
5, 12337, Note_on_c, 2, 62, 0
5, 12360, Note_on_c, 2, 65, 84
5, 12398, Note_on_c, 2, 65, 0
5, 12420, Note_on_c, 2, 64, 82
5, 12458, Note_on_c, 2, 64, 0
5, 12480, Note_on_c, 2, 67, 98
5, 12515, Note_on_c, 2, 67, 0
5, 12540, Note_on_c, 2, 66, 87
5, 12581, Note_on_c, 2, 66, 0
5, 12600, Note_on_c, 2, 72, 94
5, 12645, Note_on_c, 2, 72, 0
5, 12660, Note_on_c, 2, 66, 87
5, 12706, Note_on_c, 2, 66, 0
5, 12720, Note_on_c, 2, 67, 98
5, 12767, Note_on_c, 2, 67, 0
5, 12960, Note_on_c, 0, 43, 85
5, 12986, Note_on_c, 0, 43, 0
5, 13080, Note_on_c, 0, 43, 85
5, 13113, Note_on_c, 0, 43, 0
5, 13200, Note_on_c, 0, 43, 85
5, 13233, Note_on_c, 0, 43, 0
5, 13320, Note_on_c, 0, 43, 83
5, 13349, Note_on_c, 0, 43, 0
5, 13440, Note_on_c, 0, 43, 84
5, 13469, Note_on_c, 0, 43, 0
5, 13560, Note_on_c, 0, 43, 90
5, 13597, Note_on_c, 0, 43, 0
5, 13680, Note_on_c, 0, 43, 88
5, 13712, Note_on_c, 0, 43, 0
5, 13800, Note_on_c, 0, 43, 88
5, 13828, Note_on_c, 0, 43, 0
5, 13920, Note_on_c, 0, 43, 82
5, 13943, Note_on_c, 0, 43, 0
5, 14040, Note_on_c, 0, 43, 94
5, 14076, Note_on_c, 0, 43, 0
5, 14160, Note_on_c, 0, 43, 88
5, 14195, Note_on_c, 0, 43, 0
5, 14280, Note_on_c, 0, 43, 85
5, 14314, Note_on_c, 0, 43, 0
5, 14400, Note_on_c, 0, 43, 83
5, 14431, Note_on_c, 0, 43, 0
5, 14520, Note_on_c, 0, 43, 88
5, 14552, Note_on_c, 0, 43, 0
5, 14640, Note_on_c, 0, 43, 82
5, 14674, Note_on_c, 0, 43, 0
5, 14760, Note_on_c, 0, 43, 96
5, 14790, Note_on_c, 0, 43, 0
5, 14880, Note_on_c, 0, 43, 87
5, 14915, Note_on_c, 0, 43, 0
5, 15000, Note_on_c, 0, 43, 85
5, 15035, Note_on_c, 0, 43, 0
5, 15120, Note_on_c, 0, 43, 82
5, 15153, Note_on_c, 0, 43, 0
5, 15240, Note_on_c, 0, 43, 77
5, 15275, Note_on_c, 0, 43, 0
5, 15360, Note_on_c, 0, 43, 82
5, 15394, Note_on_c, 0, 43, 0
5, 15480, Note_on_c, 0, 43, 82
5, 15514, Note_on_c, 0, 43, 0
5, 15600, Note_on_c, 0, 43, 84
5, 15633, Note_on_c, 0, 43, 0
5, 15720, Note_on_c, 0, 43, 89
5, 15753, Note_on_c, 0, 43, 0
5, 15840, Note_on_c, 0, 43, 92
5, 15867, Note_on_c, 0, 43, 0
5, 15960, Note_on_c, 0, 43, 87
5, 15989, Note_on_c, 0, 43, 0
5, 16080, Note_on_c, 0, 43, 82
5, 16114, Note_on_c, 0, 43, 0
5, 16200, Note_on_c, 0, 43, 81
5, 16227, Note_on_c, 0, 43, 0
5, 16320, Note_on_c, 0, 43, 83
5, 16351, Note_on_c, 0, 43, 0
5, 16440, Note_on_c, 0, 43, 82
5, 16470, Note_on_c, 0, 43, 0
5, 16560, Note_on_c, 0, 43, 81
5, 16595, Note_on_c, 0, 43, 0
5, 16680, Note_on_c, 0, 43, 82
5, 16717, Note_on_c, 0, 43, 0
5, 16800, Note_on_c, 0, 43, 82
5, 16833, Note_on_c, 0, 43, 0
5, 16920, Note_on_c, 0, 43, 82
5, 16954, Note_on_c, 0, 43, 0
5, 17040, Note_on_c, 0, 43, 87
5, 17067, Note_on_c, 0, 43, 0
5, 17160, Note_on_c, 0, 43, 82
5, 17192, Note_on_c, 0, 43, 0
5, 17280, Note_on_c, 0, 43, 85
5, 17313, Note_on_c, 0, 43, 0
5, 17400, Note_on_c, 0, 43, 88
5, 17432, Note_on_c, 0, 43, 0
5, 17520, Note_on_c, 0, 43, 88
5, 17556, Note_on_c, 0, 43, 0
5, 17640, Note_on_c, 0, 43, 87
5, 17676, Note_on_c, 0, 43, 0
5, 17760, Note_on_c, 0, 43, 88
5, 17795, Note_on_c, 0, 43, 0
5, 17880, Note_on_c, 0, 43, 88
5, 17917, Note_on_c, 0, 43, 0
5, 18000, Note_on_c, 0, 43, 88
5, 18034, Note_on_c, 0, 43, 0
5, 18120, Note_on_c, 0, 43, 88
5, 18158, Note_on_c, 0, 43, 0
5, 18240, Note_on_c, 0, 43, 92
5, 18272, Note_on_c, 0, 43, 0
5, 18360, Note_on_c, 0, 43, 87
5, 18399, Note_on_c, 0, 43, 0
5, 18480, Note_on_c, 0, 43, 88
5, 18514, Note_on_c, 0, 43, 0
5, 18600, Note_on_c, 0, 43, 82
5, 18636, Note_on_c, 0, 43, 0
5, 18720, Note_on_c, 0, 50, 80
5, 18720, Note_on_c, 0, 43, 79
5, 18744, Note_on_c, 0, 50, 0
5, 18745, Note_on_c, 0, 43, 0
5, 18780, Note_on_c, 0, 43, 74
5, 18780, Note_on_c, 0, 50, 72
5, 18805, Note_on_c, 0, 50, 0
5, 18808, Note_on_c, 0, 43, 0
5, 18840, Note_on_c, 0, 43, 76
5, 18840, Note_on_c, 0, 50, 73
5, 18866, Note_on_c, 0, 43, 0
5, 18866, Note_on_c, 0, 50, 0
5, 18900, Note_on_c, 0, 43, 74
5, 18900, Note_on_c, 0, 50, 69
5, 18919, Note_on_c, 0, 43, 0
5, 18919, Note_on_c, 0, 50, 0
5, 18960, Note_on_c, 0, 43, 74
5, 18960, Note_on_c, 0, 50, 82
5, 18979, Note_on_c, 0, 43, 0
5, 18979, Note_on_c, 0, 50, 0
5, 19020, Note_on_c, 0, 50, 74
5, 19020, Note_on_c, 0, 43, 61
5, 19040, Note_on_c, 0, 43, 0
5, 19045, Note_on_c, 0, 50, 0
5, 19080, Note_on_c, 0, 43, 74
5, 19080, Note_on_c, 0, 50, 72
5, 19104, Note_on_c, 0, 50, 0
5, 19106, Note_on_c, 0, 43, 0
5, 19140, Note_on_c, 0, 50, 78
5, 19140, Note_on_c, 0, 43, 82
5, 19161, Note_on_c, 0, 50, 0
5, 19162, Note_on_c, 0, 43, 0
5, 19200, Note_on_c, 0, 50, 82
5, 19200, Note_on_c, 0, 43, 83
5, 19216, Note_on_c, 0, 50, 0
5, 19219, Note_on_c, 0, 43, 0
5, 19260, Note_on_c, 0, 43, 77
5, 19260, Note_on_c, 0, 50, 76
5, 19274, Note_on_c, 0, 50, 0
5, 19285, Note_on_c, 0, 43, 0
5, 19320, Note_on_c, 0, 50, 77
5, 19320, Note_on_c, 0, 43, 80
5, 19342, Note_on_c, 0, 50, 0
5, 19346, Note_on_c, 0, 43, 0
5, 19380, Note_on_c, 0, 43, 80
5, 19380, Note_on_c, 0, 50, 76
5, 19401, Note_on_c, 0, 50, 0
5, 19405, Note_on_c, 0, 43, 0
5, 19440, Note_on_c, 0, 50, 79
5, 19440, Note_on_c, 0, 43, 76
5, 19462, Note_on_c, 0, 50, 0
5, 19465, Note_on_c, 0, 43, 0
5, 19500, Note_on_c, 0, 43, 77
5, 19500, Note_on_c, 0, 50, 76
5, 19522, Note_on_c, 0, 50, 0
5, 19524, Note_on_c, 0, 43, 0
5, 19560, Note_on_c, 0, 43, 75
5, 19560, Note_on_c, 0, 50, 72
5, 19580, Note_on_c, 0, 50, 0
5, 19585, Note_on_c, 0, 43, 0
5, 19620, Note_on_c, 0, 50, 71
5, 19620, Note_on_c, 0, 43, 74
5, 19641, Note_on_c, 0, 50, 0
5, 19641, Note_on_c, 0, 43, 0
5, 19680, Note_on_c, 0, 50, 81
5, 19680, Note_on_c, 0, 43, 78
5, 19703, Note_on_c, 0, 50, 0
5, 19703, Note_on_c, 0, 43, 0
5, 19740, Note_on_c, 0, 50, 67
5, 19740, Note_on_c, 0, 43, 69
5, 19764, Note_on_c, 0, 50, 0
5, 19764, Note_on_c, 0, 43, 0
5, 19800, Note_on_c, 0, 43, 74
5, 19800, Note_on_c, 0, 50, 71
5, 19821, Note_on_c, 0, 50, 0
5, 19825, Note_on_c, 0, 43, 0
5, 19860, Note_on_c, 0, 43, 76
5, 19860, Note_on_c, 0, 50, 68
5, 19880, Note_on_c, 0, 50, 0
5, 19884, Note_on_c, 0, 43, 0
5, 19920, Note_on_c, 0, 43, 77
5, 19920, Note_on_c, 0, 50, 77
5, 19941, Note_on_c, 0, 50, 0
5, 19945, Note_on_c, 0, 43, 0
5, 19980, Note_on_c, 0, 50, 76
5, 19980, Note_on_c, 0, 43, 76
5, 20004, Note_on_c, 0, 50, 0
5, 20005, Note_on_c, 0, 43, 0
5, 20040, Note_on_c, 0, 43, 76
5, 20040, Note_on_c, 0, 50, 74
5, 20060, Note_on_c, 0, 50, 0
5, 20064, Note_on_c, 0, 43, 0
5, 20100, Note_on_c, 0, 43, 75
5, 20100, Note_on_c, 0, 50, 74
5, 20121, Note_on_c, 0, 50, 0
5, 20125, Note_on_c, 0, 43, 0
5, 20160, Note_on_c, 0, 43, 82
5, 20160, Note_on_c, 0, 50, 90
5, 20186, Note_on_c, 0, 50, 0
5, 20192, Note_on_c, 0, 43, 0
5, 20648, Note_on_c, 0, 43, 97
5, 20648, Note_on_c, 0, 50, 92
5, 20648, Note_on_c, 0, 59, 94
5, 20686, Note_on_c, 0, 59, 0
5, 20689, Note_on_c, 0, 43, 0
5, 20689, Note_on_c, 0, 50, 0
5, 24960, Note_on_c, 2, 48, 91
5, 24989, Note_on_c, 2, 48, 0
5, 25020, Note_on_c, 2, 48, 78
5, 25055, Note_on_c, 2, 48, 0
5, 25080, Note_on_c, 2, 48, 98
5, 25112, Note_on_c, 2, 48, 0
5, 25140, Note_on_c, 2, 48, 79
5, 25180, Note_on_c, 2, 48, 0
5, 25200, Note_on_c, 2, 47, 92
5, 25231, Note_on_c, 2, 47, 0
5, 25260, Note_on_c, 2, 47, 77
5, 25296, Note_on_c, 2, 47, 0
5, 25320, Note_on_c, 2, 47, 82
5, 25352, Note_on_c, 2, 47, 0
5, 25380, Note_on_c, 2, 47, 85
5, 25418, Note_on_c, 2, 47, 0
5, 25440, Note_on_c, 2, 46, 87
5, 25475, Note_on_c, 2, 46, 0
5, 25500, Note_on_c, 2, 46, 78
5, 25533, Note_on_c, 2, 46, 0
5, 25560, Note_on_c, 2, 46, 79
5, 25593, Note_on_c, 2, 46, 0
5, 25620, Note_on_c, 2, 46, 76
5, 25657, Note_on_c, 2, 46, 0
5, 25680, Note_on_c, 2, 45, 91
5, 25710, Note_on_c, 2, 45, 0
5, 25740, Note_on_c, 2, 45, 88
5, 25771, Note_on_c, 2, 45, 0
5, 25800, Note_on_c, 2, 45, 92
5, 25833, Note_on_c, 2, 45, 0
5, 25860, Note_on_c, 2, 45, 82
5, 25893, Note_on_c, 2, 45, 0
5, 25920, Note_on_c, 2, 46, 79
5, 25953, Note_on_c, 2, 46, 0
5, 25980, Note_on_c, 2, 46, 78
5, 26015, Note_on_c, 2, 46, 0
5, 26040, Note_on_c, 2, 46, 79
5, 26072, Note_on_c, 2, 46, 0
5, 26100, Note_on_c, 2, 46, 73
5, 26142, Note_on_c, 2, 46, 0
5, 26160, Note_on_c, 2, 45, 90
5, 26193, Note_on_c, 2, 45, 0
5, 26220, Note_on_c, 2, 45, 82
5, 26252, Note_on_c, 2, 45, 0
5, 26280, Note_on_c, 2, 45, 87
5, 26311, Note_on_c, 2, 45, 0
5, 26340, Note_on_c, 2, 45, 78
5, 26380, Note_on_c, 2, 45, 0
5, 26400, Note_on_c, 2, 44, 85
5, 26432, Note_on_c, 2, 44, 0
5, 26460, Note_on_c, 2, 44, 87
5, 26494, Note_on_c, 2, 44, 0
5, 26520, Note_on_c, 2, 44, 82
5, 26547, Note_on_c, 2, 44, 0
5, 26580, Note_on_c, 2, 44, 78
5, 26619, Note_on_c, 2, 44, 0
5, 26640, Note_on_c, 2, 43, 89
5, 26670, Note_on_c, 2, 43, 0
5, 26700, Note_on_c, 2, 43, 82
5, 26729, Note_on_c, 2, 43, 0
5, 26760, Note_on_c, 2, 43, 90
5, 26787, Note_on_c, 2, 43, 0
5, 26820, Note_on_c, 2, 43, 83
5, 26851, Note_on_c, 2, 43, 0
5, 26880, Note_on_c, 2, 45, 91
5, 26913, Note_on_c, 2, 45, 0
5, 26940, Note_on_c, 2, 45, 83
5, 26971, Note_on_c, 2, 45, 0
5, 27000, Note_on_c, 2, 45, 82
5, 27027, Note_on_c, 2, 45, 0
5, 27060, Note_on_c, 2, 45, 81
5, 27093, Note_on_c, 2, 45, 0
5, 27120, Note_on_c, 2, 43, 84
5, 27152, Note_on_c, 2, 43, 0
5, 27180, Note_on_c, 2, 43, 78
5, 27210, Note_on_c, 2, 43, 0
5, 27240, Note_on_c, 2, 43, 74
5, 27262, Note_on_c, 2, 43, 0
5, 27300, Note_on_c, 2, 43, 73
5, 27331, Note_on_c, 2, 43, 0
5, 27360, Note_on_c, 2, 41, 89
5, 27389, Note_on_c, 2, 41, 0
5, 27420, Note_on_c, 2, 41, 76
5, 27461, Note_on_c, 2, 41, 0
5, 27480, Note_on_c, 2, 53, 91
5, 27513, Note_on_c, 2, 53, 0
5, 27540, Note_on_c, 2, 53, 87
5, 27586, Note_on_c, 2, 53, 0
5, 27600, Note_on_c, 2, 50, 85
5, 27627, Note_on_c, 2, 50, 0
5, 27660, Note_on_c, 2, 50, 78
5, 27660, Note_on_c, 2, 53, 91
5, 27696, Note_on_c, 2, 50, 0
5, 27701, Note_on_c, 2, 53, 0
5, 27780, Note_on_c, 2, 53, 92
5, 27820, Note_on_c, 2, 53, 0
5, 27840, Note_on_c, 2, 43, 88
5, 27877, Note_on_c, 2, 43, 0
5, 27900, Note_on_c, 2, 55, 91
5, 27933, Note_on_c, 2, 55, 0
5, 27960, Note_on_c, 2, 55, 92
5, 27993, Note_on_c, 2, 55, 0
5, 28020, Note_on_c, 2, 55, 100
5, 28067, Note_on_c, 2, 55, 0
5, 28080, Note_on_c, 2, 43, 101
5, 28119, Note_on_c, 2, 43, 0
5, 28140, Note_on_c, 2, 55, 92
5, 28168, Note_on_c, 2, 55, 0
5, 28200, Note_on_c, 2, 55, 94
5, 28230, Note_on_c, 2, 55, 0
5, 28260, Note_on_c, 2, 55, 93
5, 28297, Note_on_c, 2, 55, 0
5, 28320, Note_on_c, 2, 43, 82
5, 28349, Note_on_c, 2, 43, 0
5, 28380, Note_on_c, 2, 55, 102
5, 28410, Note_on_c, 2, 55, 0
5, 28440, Note_on_c, 2, 55, 92
5, 28470, Note_on_c, 2, 55, 0
5, 28500, Note_on_c, 2, 55, 97
5, 28537, Note_on_c, 2, 55, 0
5, 28560, Note_on_c, 2, 43, 88
5, 28601, Note_on_c, 2, 43, 0
5, 28620, Note_on_c, 2, 55, 100
5, 28650, Note_on_c, 2, 55, 0
5, 28680, Note_on_c, 2, 55, 93
5, 28706, Note_on_c, 2, 55, 0
5, 28740, Note_on_c, 2, 55, 94
5, 28776, Note_on_c, 2, 55, 0
5, 28800, Note_on_c, 2, 43, 85
5, 28843, Note_on_c, 2, 43, 0
5, 28860, Note_on_c, 2, 55, 85
5, 28888, Note_on_c, 2, 55, 0
5, 28920, Note_on_c, 2, 55, 92
5, 28948, Note_on_c, 2, 55, 0
5, 28980, Note_on_c, 2, 55, 100
5, 29014, Note_on_c, 2, 55, 0
5, 29040, Note_on_c, 2, 43, 87
5, 29080, Note_on_c, 2, 43, 0
5, 29100, Note_on_c, 2, 55, 94
5, 29129, Note_on_c, 2, 55, 0
5, 29160, Note_on_c, 2, 55, 90
5, 29191, Note_on_c, 2, 55, 0
5, 29220, Note_on_c, 2, 55, 89
5, 29256, Note_on_c, 2, 55, 0
5, 29280, Note_on_c, 2, 43, 93
5, 29312, Note_on_c, 2, 43, 0
5, 29340, Note_on_c, 2, 55, 91
5, 29372, Note_on_c, 2, 55, 0
5, 29400, Note_on_c, 2, 55, 94
5, 29433, Note_on_c, 2, 55, 0
5, 29460, Note_on_c, 2, 55, 92
5, 29497, Note_on_c, 2, 55, 0
5, 29520, Note_on_c, 2, 43, 90
5, 29562, Note_on_c, 2, 43, 0
5, 29580, Note_on_c, 2, 55, 90
5, 29610, Note_on_c, 2, 55, 0
5, 29640, Note_on_c, 2, 55, 89
5, 29669, Note_on_c, 2, 55, 0
5, 29700, Note_on_c, 2, 55, 105
5, 29737, Note_on_c, 2, 55, 0
5, 31680, Note_on_c, 0, 47, 100
5, 31680, Note_on_c, 0, 55, 96
5, 31680, Note_on_c, 0, 62, 111
5, 31758, Note_on_c, 0, 62, 0
5, 31761, Note_on_c, 0, 47, 0
5, 31763, Note_on_c, 0, 55, 0
5, 32760, Note_on_c, 2, 43, 76
5, 32799, Note_on_c, 2, 43, 0
5, 32820, Note_on_c, 2, 45, 76
5, 32852, Note_on_c, 2, 45, 0
5, 32880, Note_on_c, 2, 47, 79
5, 32912, Note_on_c, 2, 47, 0
5, 32940, Note_on_c, 2, 48, 76
5, 32976, Note_on_c, 2, 48, 0
5, 33000, Note_on_c, 2, 50, 82
5, 33040, Note_on_c, 2, 50, 0
5, 33060, Note_on_c, 2, 52, 94
5, 33094, Note_on_c, 2, 52, 0
5, 33660, Note_on_c, 2, 46, 63
5, 33684, Note_on_c, 2, 46, 0
5, 33720, Note_on_c, 2, 46, 74
5, 33743, Note_on_c, 2, 46, 0
5, 33780, Note_on_c, 2, 46, 62
5, 33796, Note_on_c, 2, 46, 0
5, 33840, Note_on_c, 2, 46, 81
5, 33854, Note_on_c, 2, 46, 0
5, 33900, Note_on_c, 2, 46, 61
5, 33919, Note_on_c, 2, 46, 0
5, 33960, Note_on_c, 2, 46, 64
5, 33960, Note_on_c, 2, 46, 65
5, 33978, Note_on_c, 2, 46, 0
5, 33979, Note_on_c, 2, 46, 0
5, 34020, Note_on_c, 2, 46, 70
5, 34037, Note_on_c, 2, 46, 0
5, 34080, Note_on_c, 2, 46, 58
5, 34098, Note_on_c, 2, 46, 0
5, 34200, Note_on_c, 2, 46, 78
5, 34200, Note_on_c, 2, 46, 67
5, 34215, Note_on_c, 2, 46, 0
5, 34218, Note_on_c, 2, 46, 0
5, 34320, Note_on_c, 2, 46, 85
5, 34320, Note_on_c, 2, 46, 71
5, 34340, Note_on_c, 2, 46, 0
5, 34340, Note_on_c, 2, 46, 0
5, 34380, Note_on_c, 2, 46, 63
5, 34405, Note_on_c, 2, 46, 0
5, 34440, Note_on_c, 2, 46, 60
5, 34464, Note_on_c, 2, 46, 0
5, 34560, Note_on_c, 2, 47, 74
5, 34584, Note_on_c, 2, 47, 0
5, 34620, Note_on_c, 2, 47, 65
5, 34643, Note_on_c, 2, 47, 0
5, 34680, Note_on_c, 2, 47, 71
5, 34704, Note_on_c, 2, 47, 0
5, 34740, Note_on_c, 2, 47, 59
5, 34761, Note_on_c, 2, 47, 0
5, 34800, Note_on_c, 2, 47, 65
5, 34823, Note_on_c, 2, 47, 0
5, 34860, Note_on_c, 2, 47, 63
5, 34884, Note_on_c, 2, 47, 0
5, 34920, Note_on_c, 2, 47, 72
5, 34957, Note_on_c, 2, 47, 0
5, 34980, Note_on_c, 2, 47, 63
5, 35004, Note_on_c, 2, 47, 0
5, 35040, Note_on_c, 2, 47, 74
5, 35070, Note_on_c, 2, 47, 0
5, 35100, Note_on_c, 2, 47, 64
5, 35119, Note_on_c, 2, 47, 0
5, 35160, Note_on_c, 2, 47, 67
5, 35189, Note_on_c, 2, 47, 0
5, 35220, Note_on_c, 2, 47, 62
5, 35243, Note_on_c, 2, 47, 0
5, 35280, Note_on_c, 2, 47, 74
5, 35309, Note_on_c, 2, 47, 0
5, 35340, Note_on_c, 2, 47, 68
5, 35366, Note_on_c, 2, 47, 0
5, 35400, Note_on_c, 2, 47, 74
5, 35431, Note_on_c, 2, 47, 0
5, 35460, Note_on_c, 2, 47, 69
5, 35487, Note_on_c, 2, 47, 0
5, 35520, Note_on_c, 2, 48, 78
5, 35547, Note_on_c, 2, 48, 0
5, 35580, Note_on_c, 2, 48, 71
5, 35610, Note_on_c, 2, 48, 0
5, 35640, Note_on_c, 2, 48, 78
5, 35673, Note_on_c, 2, 48, 0
5, 35700, Note_on_c, 2, 48, 71
5, 35729, Note_on_c, 2, 48, 0
5, 35760, Note_on_c, 2, 48, 85
5, 35794, Note_on_c, 2, 48, 0
5, 35820, Note_on_c, 2, 48, 85
5, 35849, Note_on_c, 2, 48, 0
5, 35880, Note_on_c, 2, 48, 90
5, 35909, Note_on_c, 2, 48, 0
5, 35940, Note_on_c, 2, 48, 81
5, 35972, Note_on_c, 2, 48, 0
5, 36000, Note_on_c, 2, 49, 89
5, 36033, Note_on_c, 2, 49, 0
5, 36060, Note_on_c, 2, 49, 104
5, 36087, Note_on_c, 2, 49, 0
5, 36120, Note_on_c, 2, 49, 114
5, 36151, Note_on_c, 2, 49, 0
5, 36180, Note_on_c, 2, 49, 104
5, 36202, Note_on_c, 2, 49, 0
5, 36240, Note_on_c, 2, 49, 112
5, 36262, Note_on_c, 2, 49, 0
5, 36300, Note_on_c, 2, 49, 112
5, 36325, Note_on_c, 2, 49, 0
5, 36360, Note_on_c, 2, 49, 114
5, 36384, Note_on_c, 2, 49, 0
5, 36420, Note_on_c, 2, 49, 108
5, 36454, Note_on_c, 2, 49, 0
5, 36480, Note_on_c, 2, 50, 118
5, 36520, Note_on_c, 2, 50, 0
5, 37560, Note_on_c, 0, 43, 62
5, 37589, Note_on_c, 0, 43, 0
5, 37590, Note_on_c, 0, 45, 76
5, 37619, Note_on_c, 0, 45, 0
5, 37620, Note_on_c, 0, 47, 88
5, 37649, Note_on_c, 0, 47, 0
5, 37650, Note_on_c, 0, 48, 91
5, 37679, Note_on_c, 0, 48, 0
5, 37680, Note_on_c, 0, 50, 105
5, 37709, Note_on_c, 0, 50, 0
5, 37710, Note_on_c, 0, 48, 71
5, 37739, Note_on_c, 0, 48, 0
5, 37740, Note_on_c, 0, 47, 43
5, 37769, Note_on_c, 0, 47, 0
5, 37770, Note_on_c, 0, 45, 64
5, 37799, Note_on_c, 0, 45, 0
5, 37800, Note_on_c, 0, 43, 72
5, 37829, Note_on_c, 0, 43, 0
5, 37830, Note_on_c, 0, 45, 83
5, 37859, Note_on_c, 0, 45, 0
5, 37860, Note_on_c, 0, 47, 92
5, 37889, Note_on_c, 0, 47, 0
5, 37890, Note_on_c, 0, 48, 102
5, 37919, Note_on_c, 0, 48, 0
5, 37920, Note_on_c, 0, 50, 100
5, 37949, Note_on_c, 0, 50, 0
5, 37950, Note_on_c, 0, 48, 82
5, 37979, Note_on_c, 0, 48, 0
5, 37980, Note_on_c, 0, 47, 79
5, 38009, Note_on_c, 0, 47, 0
5, 38010, Note_on_c, 0, 45, 82
5, 38039, Note_on_c, 0, 45, 0
5, 38040, Note_on_c, 0, 43, 81
5, 38069, Note_on_c, 0, 43, 0
5, 38070, Note_on_c, 0, 45, 85
5, 38099, Note_on_c, 0, 45, 0
5, 38100, Note_on_c, 0, 47, 94
5, 38129, Note_on_c, 0, 47, 0
5, 38130, Note_on_c, 0, 48, 100
5, 38159, Note_on_c, 0, 48, 0
5, 38160, Note_on_c, 0, 50, 100
5, 38189, Note_on_c, 0, 50, 0
5, 38190, Note_on_c, 0, 48, 92
5, 38219, Note_on_c, 0, 48, 0
5, 38220, Note_on_c, 0, 47, 87
5, 38249, Note_on_c, 0, 47, 0
5, 38250, Note_on_c, 0, 45, 87
5, 38279, Note_on_c, 0, 45, 0
5, 38280, Note_on_c, 0, 43, 84
5, 38339, Note_on_c, 0, 43, 0
5, 38400, Note_on_c, 0, 48, 88
5, 38440, Note_on_c, 0, 48, 0
5, 38520, Note_on_c, 0, 52, 84
5, 38573, Note_on_c, 0, 52, 0
5, 38640, Note_on_c, 0, 53, 82
5, 38681, Note_on_c, 0, 53, 0
5, 38760, Note_on_c, 0, 54, 73
5, 38815, Note_on_c, 0, 54, 0
5, 38880, Note_on_c, 0, 55, 87
5, 38926, Note_on_c, 0, 55, 0
5, 39120, Note_on_c, 0, 43, 89
5, 39120, Note_on_c, 0, 59, 104
5, 39120, Note_on_c, 0, 50, 81
5, 39161, Note_on_c, 0, 59, 0
5, 39177, Note_on_c, 0, 50, 0
5, 39188, Note_on_c, 0, 43, 0
5, 39360, Note_on_c, 0, 48, 89
5, 39406, Note_on_c, 0, 48, 0
5, 39480, Note_on_c, 0, 52, 89
5, 39529, Note_on_c, 0, 52, 0
5, 39600, Note_on_c, 0, 53, 83
5, 39653, Note_on_c, 0, 53, 0
5, 39720, Note_on_c, 0, 54, 75
5, 39773, Note_on_c, 0, 54, 0
5, 39840, Note_on_c, 0, 55, 82
5, 39899, Note_on_c, 0, 55, 0
5, 40080, Note_on_c, 0, 43, 84
5, 40080, Note_on_c, 0, 50, 84
5, 40080, Note_on_c, 0, 59, 89
5, 40119, Note_on_c, 0, 50, 0
5, 40130, Note_on_c, 0, 43, 0
5, 40136, Note_on_c, 0, 59, 0
5, 40136, End_track
6, 0, Start_track
6, 0, Title_t, "Bass           "
6, 0, Channel_prefix, 2
6, 2640, Note_on_c, 0, 43, 93
6, 2742, Note_on_c, 0, 43, 0
6, 2760, Note_on_c, 0, 49, 83
6, 2873, Note_on_c, 0, 49, 0
6, 2880, Note_on_c, 0, 50, 76
6, 2951, Note_on_c, 0, 50, 0
6, 3120, Note_on_c, 0, 43, 86
6, 3230, Note_on_c, 0, 43, 0
6, 3240, Note_on_c, 0, 49, 85
6, 3353, Note_on_c, 0, 49, 0
6, 3360, Note_on_c, 0, 50, 80
6, 3461, Note_on_c, 0, 50, 0
6, 3600, Note_on_c, 0, 43, 86
6, 3714, Note_on_c, 0, 43, 0
6, 3720, Note_on_c, 0, 49, 83
6, 3832, Note_on_c, 0, 49, 0
6, 3840, Note_on_c, 0, 50, 77
6, 3924, Note_on_c, 0, 50, 0
6, 4080, Note_on_c, 0, 43, 82
6, 4199, Note_on_c, 0, 43, 0
6, 4200, Note_on_c, 0, 49, 82
6, 4313, Note_on_c, 0, 49, 0
6, 4320, Note_on_c, 0, 50, 74
6, 4405, Note_on_c, 0, 50, 0
6, 12960, Note_on_c, 0, 43, 84
6, 12974, Note_on_c, 0, 43, 0
6, 13080, Note_on_c, 0, 43, 82
6, 13111, Note_on_c, 0, 43, 0
6, 13200, Note_on_c, 0, 43, 80
6, 13221, Note_on_c, 0, 43, 0
6, 13320, Note_on_c, 0, 43, 80
6, 13347, Note_on_c, 0, 43, 0
6, 13440, Note_on_c, 0, 43, 82
6, 13469, Note_on_c, 0, 43, 0
6, 13560, Note_on_c, 0, 43, 85
6, 13590, Note_on_c, 0, 43, 0
6, 13680, Note_on_c, 0, 43, 83
6, 13713, Note_on_c, 0, 43, 0
6, 13800, Note_on_c, 0, 43, 85
6, 13833, Note_on_c, 0, 43, 0
6, 13920, Note_on_c, 0, 43, 82
6, 13954, Note_on_c, 0, 43, 0
6, 14040, Note_on_c, 0, 43, 88
6, 14071, Note_on_c, 0, 43, 0
6, 14160, Note_on_c, 0, 43, 82
6, 14190, Note_on_c, 0, 43, 0
6, 14280, Note_on_c, 0, 43, 84
6, 14307, Note_on_c, 0, 43, 0
6, 14400, Note_on_c, 0, 43, 88
6, 14434, Note_on_c, 0, 43, 0
6, 14520, Note_on_c, 0, 43, 86
6, 14547, Note_on_c, 0, 43, 0
6, 14640, Note_on_c, 0, 43, 82
6, 14671, Note_on_c, 0, 43, 0
6, 14760, Note_on_c, 0, 43, 81
6, 14788, Note_on_c, 0, 43, 0
6, 14880, Note_on_c, 0, 43, 88
6, 14909, Note_on_c, 0, 43, 0
6, 15000, Note_on_c, 0, 43, 82
6, 15033, Note_on_c, 0, 43, 0
6, 15120, Note_on_c, 0, 43, 82
6, 15150, Note_on_c, 0, 43, 0
6, 15240, Note_on_c, 0, 43, 82
6, 15270, Note_on_c, 0, 43, 0
6, 15360, Note_on_c, 0, 43, 81
6, 15393, Note_on_c, 0, 43, 0
6, 15480, Note_on_c, 0, 43, 82
6, 15512, Note_on_c, 0, 43, 0
6, 15600, Note_on_c, 0, 43, 77
6, 15635, Note_on_c, 0, 43, 0
6, 15720, Note_on_c, 0, 43, 76
6, 15754, Note_on_c, 0, 43, 0
6, 15840, Note_on_c, 0, 43, 78
6, 15875, Note_on_c, 0, 43, 0
6, 15960, Note_on_c, 0, 43, 79
6, 15993, Note_on_c, 0, 43, 0
6, 16080, Note_on_c, 0, 43, 82
6, 16116, Note_on_c, 0, 43, 0
6, 16200, Note_on_c, 0, 43, 75
6, 16234, Note_on_c, 0, 43, 0
6, 16320, Note_on_c, 0, 43, 81
6, 16359, Note_on_c, 0, 43, 0
6, 16440, Note_on_c, 0, 43, 81
6, 16476, Note_on_c, 0, 43, 0
6, 16560, Note_on_c, 0, 43, 80
6, 16594, Note_on_c, 0, 43, 0
6, 16680, Note_on_c, 0, 43, 82
6, 16713, Note_on_c, 0, 43, 0
6, 16800, Note_on_c, 0, 43, 85
6, 16841, Note_on_c, 0, 43, 0
6, 16920, Note_on_c, 0, 43, 84
6, 16956, Note_on_c, 0, 43, 0
6, 17040, Note_on_c, 0, 43, 83
6, 17074, Note_on_c, 0, 43, 0
6, 17160, Note_on_c, 0, 43, 82
6, 17190, Note_on_c, 0, 43, 0
6, 17280, Note_on_c, 0, 43, 82
6, 17311, Note_on_c, 0, 43, 0
6, 17400, Note_on_c, 0, 43, 86
6, 17432, Note_on_c, 0, 43, 0
6, 17520, Note_on_c, 0, 43, 67
6, 17552, Note_on_c, 0, 43, 0
6, 17640, Note_on_c, 0, 43, 77
6, 17673, Note_on_c, 0, 43, 0
6, 17760, Note_on_c, 0, 43, 76
6, 17792, Note_on_c, 0, 43, 0
6, 17880, Note_on_c, 0, 43, 77
6, 17913, Note_on_c, 0, 43, 0
6, 18000, Note_on_c, 0, 43, 76
6, 18034, Note_on_c, 0, 43, 0
6, 18120, Note_on_c, 0, 43, 80
6, 18156, Note_on_c, 0, 43, 0
6, 18240, Note_on_c, 0, 43, 80
6, 18273, Note_on_c, 0, 43, 0
6, 18360, Note_on_c, 0, 43, 82
6, 18393, Note_on_c, 0, 43, 0
6, 18480, Note_on_c, 0, 43, 77
6, 18516, Note_on_c, 0, 43, 0
6, 18600, Note_on_c, 0, 43, 81
6, 18638, Note_on_c, 0, 43, 0
6, 18720, Note_on_c, 0, 43, 82
6, 18758, Note_on_c, 0, 43, 0
6, 19080, Note_on_c, 0, 43, 86
6, 19118, Note_on_c, 0, 43, 0
6, 19200, Note_on_c, 0, 55, 87
6, 19243, Note_on_c, 0, 55, 0
6, 19560, Note_on_c, 0, 43, 87
6, 19601, Note_on_c, 0, 43, 0
6, 19680, Note_on_c, 0, 55, 90
6, 19721, Note_on_c, 0, 55, 0
6, 20040, Note_on_c, 0, 55, 90
6, 20071, Note_on_c, 0, 55, 0
6, 20160, Note_on_c, 0, 43, 98
6, 20194, Note_on_c, 0, 43, 0
6, 20640, Note_on_c, 0, 43, 96
6, 20682, Note_on_c, 0, 43, 0
6, 24960, Note_on_c, 2, 48, 82
6, 24995, Note_on_c, 2, 48, 0
6, 25080, Note_on_c, 2, 60, 87
6, 25123, Note_on_c, 2, 60, 0
6, 25200, Note_on_c, 2, 59, 98
6, 25246, Note_on_c, 2, 59, 0
6, 25320, Note_on_c, 2, 47, 91
6, 25356, Note_on_c, 2, 47, 0
6, 25440, Note_on_c, 2, 46, 80
6, 25480, Note_on_c, 2, 46, 0
6, 25560, Note_on_c, 2, 58, 82
6, 25601, Note_on_c, 2, 58, 0
6, 25680, Note_on_c, 2, 57, 98
6, 25727, Note_on_c, 2, 57, 0
6, 25800, Note_on_c, 2, 45, 87
6, 25846, Note_on_c, 2, 45, 0
6, 25920, Note_on_c, 2, 46, 86
6, 25964, Note_on_c, 2, 46, 0
6, 26040, Note_on_c, 2, 58, 85
6, 26082, Note_on_c, 2, 58, 0
6, 26160, Note_on_c, 2, 57, 93
6, 26209, Note_on_c, 2, 57, 0
6, 26280, Note_on_c, 2, 45, 88
6, 26323, Note_on_c, 2, 45, 0
6, 26400, Note_on_c, 2, 44, 81
6, 26448, Note_on_c, 2, 44, 0
6, 26520, Note_on_c, 2, 56, 89
6, 26573, Note_on_c, 2, 56, 0
6, 26640, Note_on_c, 2, 55, 92
6, 26693, Note_on_c, 2, 55, 0
6, 26760, Note_on_c, 2, 43, 91
6, 26805, Note_on_c, 2, 43, 0
6, 26880, Note_on_c, 2, 45, 91
6, 26925, Note_on_c, 2, 45, 0
6, 27000, Note_on_c, 2, 57, 93
6, 27050, Note_on_c, 2, 57, 0
6, 27120, Note_on_c, 2, 55, 94
6, 27165, Note_on_c, 2, 55, 0
6, 27240, Note_on_c, 2, 43, 89
6, 27286, Note_on_c, 2, 43, 0
6, 27360, Note_on_c, 2, 41, 89
6, 27405, Note_on_c, 2, 41, 0
6, 27480, Note_on_c, 2, 53, 100
6, 27522, Note_on_c, 2, 53, 0
6, 27600, Note_on_c, 2, 50, 96
6, 27648, Note_on_c, 2, 50, 0
6, 27720, Note_on_c, 2, 53, 94
6, 27764, Note_on_c, 2, 53, 0
6, 27840, Note_on_c, 2, 55, 92
6, 27965, Note_on_c, 2, 55, 0
6, 28080, Note_on_c, 2, 43, 96
6, 28217, Note_on_c, 2, 43, 0
6, 28320, Note_on_c, 2, 55, 100
6, 28464, Note_on_c, 2, 55, 0
6, 28560, Note_on_c, 2, 43, 86
6, 28729, Note_on_c, 2, 43, 0
6, 28800, Note_on_c, 2, 55, 93
6, 28926, Note_on_c, 2, 55, 0
6, 29040, Note_on_c, 2, 43, 91
6, 29193, Note_on_c, 2, 43, 0
6, 29280, Note_on_c, 2, 55, 85
6, 29433, Note_on_c, 2, 55, 0
6, 29520, Note_on_c, 2, 43, 94
6, 29636, Note_on_c, 2, 43, 0
6, 31680, Note_on_c, 0, 47, 104
6, 31726, Note_on_c, 0, 47, 0
6, 32760, Note_on_c, 2, 43, 78
6, 32793, Note_on_c, 2, 43, 0
6, 32820, Note_on_c, 2, 45, 76
6, 32856, Note_on_c, 2, 45, 0
6, 32880, Note_on_c, 2, 47, 78
6, 32915, Note_on_c, 2, 47, 0
6, 32940, Note_on_c, 2, 48, 68
6, 32981, Note_on_c, 2, 48, 0
6, 33000, Note_on_c, 2, 50, 76
6, 33036, Note_on_c, 2, 50, 0
6, 33060, Note_on_c, 2, 52, 76
6, 33098, Note_on_c, 2, 52, 0
6, 33120, Note_on_c, 2, 53, 81
6, 33155, Note_on_c, 2, 53, 0
6, 33180, Note_on_c, 2, 55, 76
6, 33216, Note_on_c, 2, 55, 0
6, 33240, Note_on_c, 2, 57, 78
6, 33273, Note_on_c, 2, 57, 0
6, 33300, Note_on_c, 2, 59, 78
6, 33336, Note_on_c, 2, 59, 0
6, 33360, Note_on_c, 2, 60, 79
6, 33390, Note_on_c, 2, 60, 0
6, 33420, Note_on_c, 2, 61, 82
6, 33459, Note_on_c, 2, 61, 0
6, 33480, Note_on_c, 2, 62, 82
6, 33514, Note_on_c, 2, 62, 0
6, 33540, Note_on_c, 2, 67, 88
6, 33556, Note_on_c, 2, 67, 0
6, 33660, Note_on_c, 2, 46, 45
6, 33683, Note_on_c, 2, 46, 0
6, 33720, Note_on_c, 2, 46, 49
6, 33737, Note_on_c, 2, 46, 0
6, 33780, Note_on_c, 2, 46, 47
6, 33804, Note_on_c, 2, 46, 0
6, 33840, Note_on_c, 2, 46, 57
6, 33863, Note_on_c, 2, 46, 0
6, 33900, Note_on_c, 2, 46, 49
6, 33925, Note_on_c, 2, 46, 0
6, 33960, Note_on_c, 2, 46, 53
6, 33960, Note_on_c, 2, 46, 53
6, 33979, Note_on_c, 2, 46, 0
6, 33982, Note_on_c, 2, 46, 0
6, 34020, Note_on_c, 2, 46, 61
6, 34039, Note_on_c, 2, 46, 0
6, 34080, Note_on_c, 2, 46, 41
6, 34096, Note_on_c, 2, 46, 0
6, 34140, Note_on_c, 2, 46, 64
6, 34156, Note_on_c, 2, 46, 0
6, 34260, Note_on_c, 2, 46, 58
6, 34280, Note_on_c, 2, 46, 0
6, 34320, Note_on_c, 2, 46, 70
6, 34339, Note_on_c, 2, 46, 0
6, 34380, Note_on_c, 2, 46, 63
6, 34401, Note_on_c, 2, 46, 0
6, 34440, Note_on_c, 2, 46, 66
6, 34440, Note_on_c, 2, 46, 54
6, 34461, Note_on_c, 2, 46, 0
6, 34463, Note_on_c, 2, 46, 0
6, 34560, Note_on_c, 2, 47, 77
6, 34583, Note_on_c, 2, 47, 0
6, 34620, Note_on_c, 2, 47, 55
6, 34636, Note_on_c, 2, 47, 0
6, 34680, Note_on_c, 2, 47, 51
6, 34701, Note_on_c, 2, 47, 0
6, 34740, Note_on_c, 2, 47, 59
6, 34760, Note_on_c, 2, 47, 0
6, 34800, Note_on_c, 2, 47, 60
6, 34841, Note_on_c, 2, 47, 0
6, 34860, Note_on_c, 2, 47, 66
6, 34887, Note_on_c, 2, 47, 0
6, 34920, Note_on_c, 2, 47, 74
6, 34958, Note_on_c, 2, 47, 0
6, 34980, Note_on_c, 2, 47, 69
6, 35009, Note_on_c, 2, 47, 0
6, 35040, Note_on_c, 2, 47, 73
6, 35077, Note_on_c, 2, 47, 0
6, 35100, Note_on_c, 2, 47, 62
6, 35124, Note_on_c, 2, 47, 0
6, 35160, Note_on_c, 2, 47, 71
6, 35193, Note_on_c, 2, 47, 0
6, 35220, Note_on_c, 2, 47, 65
6, 35246, Note_on_c, 2, 47, 0
6, 35280, Note_on_c, 2, 47, 71
6, 35309, Note_on_c, 2, 47, 0
6, 35340, Note_on_c, 2, 47, 67
6, 35369, Note_on_c, 2, 47, 0
6, 35400, Note_on_c, 2, 47, 69
6, 35429, Note_on_c, 2, 47, 0
6, 35460, Note_on_c, 2, 47, 66
6, 35490, Note_on_c, 2, 47, 0
6, 35520, Note_on_c, 2, 48, 73
6, 35545, Note_on_c, 2, 48, 0
6, 35580, Note_on_c, 2, 48, 64
6, 35603, Note_on_c, 2, 48, 0
6, 35640, Note_on_c, 2, 48, 64
6, 35669, Note_on_c, 2, 48, 0
6, 35700, Note_on_c, 2, 48, 60
6, 35723, Note_on_c, 2, 48, 0
6, 35760, Note_on_c, 2, 48, 71
6, 35793, Note_on_c, 2, 48, 0
6, 35820, Note_on_c, 2, 48, 67
6, 35847, Note_on_c, 2, 48, 0
6, 35880, Note_on_c, 2, 48, 76
6, 35917, Note_on_c, 2, 48, 0
6, 35940, Note_on_c, 2, 48, 76
6, 35973, Note_on_c, 2, 48, 0
6, 36000, Note_on_c, 2, 49, 88
6, 36032, Note_on_c, 2, 49, 0
6, 36060, Note_on_c, 2, 49, 80
6, 36089, Note_on_c, 2, 49, 0
6, 36120, Note_on_c, 2, 49, 108
6, 36149, Note_on_c, 2, 49, 0
6, 36180, Note_on_c, 2, 49, 99
6, 36205, Note_on_c, 2, 49, 0
6, 36240, Note_on_c, 2, 49, 112
6, 36264, Note_on_c, 2, 49, 0
6, 36300, Note_on_c, 2, 49, 101
6, 36324, Note_on_c, 2, 49, 0
6, 36360, Note_on_c, 2, 49, 112
6, 36383, Note_on_c, 2, 49, 0
6, 36420, Note_on_c, 2, 49, 106
6, 36460, Note_on_c, 2, 49, 0
6, 36480, Note_on_c, 2, 50, 104
6, 36520, Note_on_c, 2, 50, 0
6, 37560, Note_on_c, 0, 43, 62
6, 37589, Note_on_c, 0, 43, 0
6, 37590, Note_on_c, 0, 45, 76
6, 37619, Note_on_c, 0, 45, 0
6, 37620, Note_on_c, 0, 47, 88
6, 37649, Note_on_c, 0, 47, 0
6, 37650, Note_on_c, 0, 48, 91
6, 37679, Note_on_c, 0, 48, 0
6, 37680, Note_on_c, 0, 50, 105
6, 37709, Note_on_c, 0, 50, 0
6, 37710, Note_on_c, 0, 48, 71
6, 37739, Note_on_c, 0, 48, 0
6, 37740, Note_on_c, 0, 47, 43
6, 37769, Note_on_c, 0, 47, 0
6, 37770, Note_on_c, 0, 45, 64
6, 37799, Note_on_c, 0, 45, 0
6, 37800, Note_on_c, 0, 43, 72
6, 37829, Note_on_c, 0, 43, 0
6, 37830, Note_on_c, 0, 45, 83
6, 37859, Note_on_c, 0, 45, 0
6, 37860, Note_on_c, 0, 47, 92
6, 37889, Note_on_c, 0, 47, 0
6, 37890, Note_on_c, 0, 48, 102
6, 37919, Note_on_c, 0, 48, 0
6, 37920, Note_on_c, 0, 50, 100
6, 37949, Note_on_c, 0, 50, 0
6, 37950, Note_on_c, 0, 48, 82
6, 37979, Note_on_c, 0, 48, 0
6, 37980, Note_on_c, 0, 47, 79
6, 38009, Note_on_c, 0, 47, 0
6, 38010, Note_on_c, 0, 45, 82
6, 38039, Note_on_c, 0, 45, 0
6, 38040, Note_on_c, 0, 43, 81
6, 38069, Note_on_c, 0, 43, 0
6, 38070, Note_on_c, 0, 45, 85
6, 38099, Note_on_c, 0, 45, 0
6, 38100, Note_on_c, 0, 47, 94
6, 38129, Note_on_c, 0, 47, 0
6, 38130, Note_on_c, 0, 48, 100
6, 38159, Note_on_c, 0, 48, 0
6, 38160, Note_on_c, 0, 50, 100
6, 38189, Note_on_c, 0, 50, 0
6, 38190, Note_on_c, 0, 48, 92
6, 38219, Note_on_c, 0, 48, 0
6, 38220, Note_on_c, 0, 47, 87
6, 38249, Note_on_c, 0, 47, 0
6, 38250, Note_on_c, 0, 45, 87
6, 38279, Note_on_c, 0, 45, 0
6, 38280, Note_on_c, 0, 43, 84
6, 38339, Note_on_c, 0, 43, 0
6, 38400, Note_on_c, 0, 48, 88
6, 38440, Note_on_c, 0, 48, 0
6, 38520, Note_on_c, 0, 52, 84
6, 38573, Note_on_c, 0, 52, 0
6, 38640, Note_on_c, 0, 53, 82
6, 38681, Note_on_c, 0, 53, 0
6, 38760, Note_on_c, 0, 54, 73
6, 38815, Note_on_c, 0, 54, 0
6, 38880, Note_on_c, 0, 55, 87
6, 38926, Note_on_c, 0, 55, 0
6, 39120, Note_on_c, 0, 43, 89
6, 39188, Note_on_c, 0, 43, 0
6, 39360, Note_on_c, 0, 48, 89
6, 39406, Note_on_c, 0, 48, 0
6, 39480, Note_on_c, 0, 52, 89
6, 39529, Note_on_c, 0, 52, 0
6, 39600, Note_on_c, 0, 53, 83
6, 39653, Note_on_c, 0, 53, 0
6, 39720, Note_on_c, 0, 54, 75
6, 39773, Note_on_c, 0, 54, 0
6, 39840, Note_on_c, 0, 55, 82
6, 39899, Note_on_c, 0, 55, 0
6, 40080, Note_on_c, 0, 43, 84
6, 40130, Note_on_c, 0, 43, 0
6, 40320, Note_on_c, 0, 36, 104
6, 40375, Note_on_c, 0, 36, 0
6, 40560, Note_on_c, 0, 58, 88
6, 40757, Note_on_c, 0, 58, 0
6, 40800, Note_on_c, 0, 57, 67
6, 40837, Note_on_c, 0, 57, 0
6, 41040, Note_on_c, 0, 56, 88
6, 41257, Note_on_c, 0, 56, 0
6, 41280, Note_on_c, 0, 55, 76
6, 41319, Note_on_c, 0, 55, 0
6, 41520, Note_on_c, 0, 57, 96
6, 41574, Note_on_c, 0, 57, 0
6, 41760, Note_on_c, 0, 58, 89
6, 41802, Note_on_c, 0, 58, 0
6, 42000, Note_on_c, 0, 59, 100
6, 42048, Note_on_c, 0, 59, 0
6, 42240, Note_on_c, 0, 60, 93
6, 42240, Note_on_c, 0, 60, 98
6, 42271, Note_on_c, 0, 60, 0
6, 42296, Note_on_c, 0, 60, 0
6, 42540, Note_on_c, 0, 43, 96
6, 42581, Note_on_c, 0, 43, 0
6, 42600, Note_on_c, 0, 48, 97
6, 42637, Note_on_c, 0, 48, 0
6, 42660, Note_on_c, 0, 43, 93
6, 42708, Note_on_c, 0, 43, 0
6, 42720, Note_on_c, 0, 48, 98
6, 42764, Note_on_c, 0, 48, 0
6, 42780, Note_on_c, 0, 43, 74
6, 42839, Note_on_c, 0, 43, 0
6, 42840, Note_on_c, 0, 48, 105
6, 42878, Note_on_c, 0, 48, 0
6, 42900, Note_on_c, 0, 43, 94
6, 42938, Note_on_c, 0, 43, 0
6, 42960, Note_on_c, 0, 48, 97
6, 42993, Note_on_c, 0, 48, 0
6, 43020, Note_on_c, 0, 43, 86
6, 43077, Note_on_c, 0, 43, 0
6, 43080, Note_on_c, 0, 48, 98
6, 43120, Note_on_c, 0, 48, 0
6, 43140, Note_on_c, 0, 43, 91
6, 43180, Note_on_c, 0, 43, 0
6, 43200, Note_on_c, 0, 48, 107
6, 43278, Note_on_c, 0, 48, 0
6, 43440, Note_on_c, 0, 36, 102
6, 43543, Note_on_c, 0, 36, 0
6, 43680, Note_on_c, 0, 36, 104
6, 43792, Note_on_c, 0, 36, 0
6, 43792, End_track
7, 0, Start_track
7, 0, Title_t, "2nd Viola      "
7, 0, Channel_prefix, 14
7, 42540, Note_on_c, 0, 55, 86
7, 42540, Note_on_c, 0, 67, 92
7, 42569, Note_on_c, 0, 55, 0
7, 42569, Note_on_c, 0, 67, 0
7, 42570, Note_on_c, 0, 67, 93
7, 42570, Note_on_c, 0, 55, 88
7, 42599, Note_on_c, 0, 67, 0
7, 42599, Note_on_c, 0, 55, 0
7, 42600, Note_on_c, 0, 67, 89
7, 42600, Note_on_c, 0, 55, 90
7, 42629, Note_on_c, 0, 67, 0
7, 42629, Note_on_c, 0, 55, 0
7, 42630, Note_on_c, 0, 55, 87
7, 42630, Note_on_c, 0, 67, 89
7, 42659, Note_on_c, 0, 55, 0
7, 42659, Note_on_c, 0, 67, 0
7, 42660, Note_on_c, 0, 55, 88
7, 42660, Note_on_c, 0, 67, 89
7, 42689, Note_on_c, 0, 55, 0
7, 42689, Note_on_c, 0, 67, 0
7, 42690, Note_on_c, 0, 55, 98
7, 42690, Note_on_c, 0, 67, 97
7, 42719, Note_on_c, 0, 55, 0
7, 42719, Note_on_c, 0, 67, 0
7, 42720, Note_on_c, 0, 67, 102
7, 42720, Note_on_c, 0, 55, 94
7, 42749, Note_on_c, 0, 67, 0
7, 42749, Note_on_c, 0, 55, 0
7, 42750, Note_on_c, 0, 55, 91
7, 42750, Note_on_c, 0, 67, 90
7, 42779, Note_on_c, 0, 55, 0
7, 42779, Note_on_c, 0, 67, 0
7, 42780, Note_on_c, 0, 67, 101
7, 42780, Note_on_c, 0, 55, 80
7, 42809, Note_on_c, 0, 67, 0
7, 42809, Note_on_c, 0, 55, 0
7, 42810, Note_on_c, 0, 67, 100
7, 42810, Note_on_c, 0, 55, 90
7, 42839, Note_on_c, 0, 67, 0
7, 42839, Note_on_c, 0, 55, 0
7, 42840, Note_on_c, 0, 55, 102
7, 42840, Note_on_c, 0, 67, 105
7, 42869, Note_on_c, 0, 55, 0
7, 42869, Note_on_c, 0, 67, 0
7, 42870, Note_on_c, 0, 55, 97
7, 42870, Note_on_c, 0, 67, 107
7, 42899, Note_on_c, 0, 55, 0
7, 42899, Note_on_c, 0, 67, 0
7, 42900, Note_on_c, 0, 55, 100
7, 42900, Note_on_c, 0, 67, 107
7, 42929, Note_on_c, 0, 55, 0
7, 42929, Note_on_c, 0, 67, 0
7, 42930, Note_on_c, 0, 67, 102
7, 42930, Note_on_c, 0, 55, 96
7, 42959, Note_on_c, 0, 67, 0
7, 42959, Note_on_c, 0, 55, 0
7, 42960, Note_on_c, 0, 67, 105
7, 42960, Note_on_c, 0, 55, 100
7, 42989, Note_on_c, 0, 67, 0
7, 42989, Note_on_c, 0, 55, 0
7, 42990, Note_on_c, 0, 55, 100
7, 42990, Note_on_c, 0, 67, 105
7, 43019, Note_on_c, 0, 55, 0
7, 43019, Note_on_c, 0, 67, 0
7, 43020, Note_on_c, 0, 55, 94
7, 43020, Note_on_c, 0, 67, 101
7, 43049, Note_on_c, 0, 55, 0
7, 43049, Note_on_c, 0, 67, 0
7, 43050, Note_on_c, 0, 55, 98
7, 43050, Note_on_c, 0, 67, 90
7, 43079, Note_on_c, 0, 55, 0
7, 43079, Note_on_c, 0, 67, 0
7, 43080, Note_on_c, 0, 55, 94
7, 43080, Note_on_c, 0, 67, 96
7, 43109, Note_on_c, 0, 55, 0
7, 43109, Note_on_c, 0, 67, 0
7, 43110, Note_on_c, 0, 55, 101
7, 43110, Note_on_c, 0, 67, 102
7, 43139, Note_on_c, 0, 55, 0
7, 43139, Note_on_c, 0, 67, 0
7, 43140, Note_on_c, 0, 67, 102
7, 43140, Note_on_c, 0, 55, 93
7, 43169, Note_on_c, 0, 67, 0
7, 43169, Note_on_c, 0, 55, 0
7, 43170, Note_on_c, 0, 55, 93
7, 43170, Note_on_c, 0, 67, 107
7, 43199, Note_on_c, 0, 55, 0
7, 43199, Note_on_c, 0, 67, 0
7, 43200, Note_on_c, 0, 55, 104
7, 43200, Note_on_c, 0, 67, 111
7, 43319, Note_on_c, 0, 55, 0
7, 43319, Note_on_c, 0, 67, 0
7, 43440, Note_on_c, 0, 48, 96
7, 43440, Note_on_c, 0, 55, 90
7, 43440, Note_on_c, 0, 64, 97
7, 43440, Note_on_c, 0, 72, 91
7, 43559, Note_on_c, 0, 48, 0
7, 43559, Note_on_c, 0, 55, 0
7, 43559, Note_on_c, 0, 64, 0
7, 43559, Note_on_c, 0, 72, 0
7, 43680, Note_on_c, 0, 48, 88
7, 43680, Note_on_c, 0, 72, 100
7, 43680, Note_on_c, 0, 64, 100
7, 43680, Note_on_c, 0, 55, 90
7, 43799, Note_on_c, 0, 48, 0
7, 43799, Note_on_c, 0, 72, 0
7, 43799, Note_on_c, 0, 64, 0
7, 43799, Note_on_c, 0, 55, 0
7, 43799, End_track
8, 0, Start_track
8, 0, Title_t, "2nd Cello      "
8, 0, Channel_prefix, 14
8, 38880, Control_c, 0, 7, 125
8, 40320, Note_on_c, 0, 52, 90
8, 40320, Note_on_c, 0, 60, 81
8, 40320, Note_on_c, 0, 43, 94
8, 40320, Note_on_c, 0, 64, 91
8, 40366, Note_on_c, 0, 52, 0
8, 40366, Note_on_c, 0, 64, 0
8, 40372, Note_on_c, 0, 60, 0
8, 40375, Note_on_c, 0, 43, 0
8, 42240, Note_on_c, 0, 60, 98
8, 42271, Note_on_c, 0, 60, 0
8, 42540, Note_on_c, 0, 43, 96
8, 42581, Note_on_c, 0, 43, 0
8, 42600, Note_on_c, 0, 48, 97
8, 42637, Note_on_c, 0, 48, 0
8, 42660, Note_on_c, 0, 43, 93
8, 42708, Note_on_c, 0, 43, 0
8, 42720, Note_on_c, 0, 48, 98
8, 42764, Note_on_c, 0, 48, 0
8, 42780, Note_on_c, 0, 43, 74
8, 42839, Note_on_c, 0, 43, 0
8, 42840, Note_on_c, 0, 48, 105
8, 42878, Note_on_c, 0, 48, 0
8, 42900, Note_on_c, 0, 43, 94
8, 42938, Note_on_c, 0, 43, 0
8, 42960, Note_on_c, 0, 48, 97
8, 42993, Note_on_c, 0, 48, 0
8, 43020, Note_on_c, 0, 43, 86
8, 43077, Note_on_c, 0, 43, 0
8, 43080, Note_on_c, 0, 48, 98
8, 43120, Note_on_c, 0, 48, 0
8, 43140, Note_on_c, 0, 43, 91
8, 43180, Note_on_c, 0, 43, 0
8, 43200, Note_on_c, 0, 48, 107
8, 43278, Note_on_c, 0, 48, 0
8, 43440, Note_on_c, 0, 64, 96
8, 43440, Note_on_c, 0, 43, 97
8, 43440, Note_on_c, 0, 36, 102
8, 43536, Note_on_c, 0, 64, 0
8, 43543, Note_on_c, 0, 36, 0
8, 43544, Note_on_c, 0, 43, 0
8, 43680, Note_on_c, 0, 64, 82
8, 43680, Note_on_c, 0, 43, 101
8, 43680, Note_on_c, 0, 52, 92
8, 43680, Note_on_c, 0, 36, 104
8, 43785, Note_on_c, 0, 52, 0
8, 43786, Note_on_c, 0, 64, 0
8, 43792, Note_on_c, 0, 43, 0
8, 43792, Note_on_c, 0, 36, 0
8, 43792, End_track
9, 0, Start_track
9, 0, Title_t, "Cello Pizzicato"
9, 0, Channel_prefix, 1
9, 21127, Note_on_c, 1, 60, 78
9, 21154, Note_on_c, 1, 60, 0
9, 21360, Note_on_c, 1, 59, 91
9, 21387, Note_on_c, 1, 59, 0
9, 21605, Note_on_c, 1, 58, 80
9, 21623, Note_on_c, 1, 58, 0
9, 21834, Note_on_c, 1, 57, 81
9, 21862, Note_on_c, 1, 57, 0
9, 22075, Note_on_c, 1, 58, 78
9, 22102, Note_on_c, 1, 58, 0
9, 22315, Note_on_c, 1, 57, 83
9, 22339, Note_on_c, 1, 57, 0
9, 22561, Note_on_c, 1, 56, 80
9, 22587, Note_on_c, 1, 56, 0
9, 22795, Note_on_c, 1, 55, 81
9, 22823, Note_on_c, 1, 55, 0
9, 23032, Note_on_c, 1, 57, 84
9, 23061, Note_on_c, 1, 57, 0
9, 23274, Note_on_c, 1, 55, 72
9, 23303, Note_on_c, 1, 55, 0
9, 23517, Note_on_c, 1, 53, 82
9, 23540, Note_on_c, 1, 53, 0
9, 23756, Note_on_c, 1, 50, 79
9, 23787, Note_on_c, 1, 50, 0
9, 23996, Note_on_c, 1, 55, 82
9, 24027, Note_on_c, 1, 55, 0
9, 24231, Note_on_c, 1, 57, 82
9, 24262, Note_on_c, 1, 57, 0
9, 24473, Note_on_c, 1, 59, 82
9, 24505, Note_on_c, 1, 59, 0
9, 24725, Note_on_c, 1, 55, 79
9, 24756, Note_on_c, 1, 55, 0
9, 24756, End_track
10, 0, Start_track
10, 0, Title_t, "Bass Pizzicato "
10, 0, Channel_prefix, 1
10, 5280, Note_on_c, 1, 60, 86
10, 5313, Note_on_c, 1, 60, 0
10, 5520, Note_on_c, 1, 59, 89
10, 5569, Note_on_c, 1, 59, 0
10, 5760, Note_on_c, 1, 58, 93
10, 5802, Note_on_c, 1, 58, 0
10, 6000, Note_on_c, 1, 57, 82
10, 6046, Note_on_c, 1, 57, 0
10, 6240, Note_on_c, 1, 58, 71
10, 6277, Note_on_c, 1, 58, 0
10, 6480, Note_on_c, 1, 57, 82
10, 6519, Note_on_c, 1, 57, 0
10, 6720, Note_on_c, 1, 56, 77
10, 6762, Note_on_c, 1, 56, 0
10, 6960, Note_on_c, 1, 55, 79
10, 6996, Note_on_c, 1, 55, 0
10, 7200, Note_on_c, 1, 57, 80
10, 7239, Note_on_c, 1, 57, 0
10, 7440, Note_on_c, 1, 55, 78
10, 7482, Note_on_c, 1, 55, 0
10, 7680, Note_on_c, 1, 53, 80
10, 7728, Note_on_c, 1, 53, 0
10, 7920, Note_on_c, 1, 50, 81
10, 7968, Note_on_c, 1, 50, 0
10, 8160, Note_on_c, 1, 55, 84
10, 8205, Note_on_c, 1, 55, 0
10, 8400, Note_on_c, 1, 57, 78
10, 8447, Note_on_c, 1, 57, 0
10, 8640, Note_on_c, 1, 59, 76
10, 8677, Note_on_c, 1, 59, 0
10, 8880, Note_on_c, 1, 55, 82
10, 8918, Note_on_c, 1, 55, 0
10, 9120, Note_on_c, 1, 60, 85
10, 9152, Note_on_c, 1, 60, 0
10, 9360, Note_on_c, 1, 59, 86
10, 9400, Note_on_c, 1, 59, 0
10, 9600, Note_on_c, 1, 58, 82
10, 9640, Note_on_c, 1, 58, 0
10, 9840, Note_on_c, 1, 57, 85
10, 9888, Note_on_c, 1, 57, 0
10, 10080, Note_on_c, 1, 58, 79
10, 10120, Note_on_c, 1, 58, 0
10, 10320, Note_on_c, 1, 57, 86
10, 10360, Note_on_c, 1, 57, 0
10, 10560, Note_on_c, 1, 56, 85
10, 10595, Note_on_c, 1, 56, 0
10, 10800, Note_on_c, 1, 55, 80
10, 10844, Note_on_c, 1, 55, 0
10, 11040, Note_on_c, 1, 57, 82
10, 11085, Note_on_c, 1, 57, 0
10, 11280, Note_on_c, 1, 55, 82
10, 11327, Note_on_c, 1, 55, 0
10, 11520, Note_on_c, 1, 53, 82
10, 11563, Note_on_c, 1, 53, 0
10, 11760, Note_on_c, 1, 50, 84
10, 11800, Note_on_c, 1, 50, 0
10, 12000, Note_on_c, 1, 55, 82
10, 12042, Note_on_c, 1, 55, 0
10, 12120, Note_on_c, 1, 55, 78
10, 12155, Note_on_c, 1, 55, 0
10, 12240, Note_on_c, 1, 55, 80
10, 12282, Note_on_c, 1, 55, 0
10, 12360, Note_on_c, 1, 55, 85
10, 12400, Note_on_c, 1, 55, 0
10, 12480, Note_on_c, 1, 55, 90
10, 12524, Note_on_c, 1, 55, 0
10, 12600, Note_on_c, 1, 55, 90
10, 12645, Note_on_c, 1, 55, 0
10, 12720, Note_on_c, 1, 55, 101
10, 12765, Note_on_c, 1, 55, 0
10, 21120, Note_on_c, 1, 60, 76
10, 21141, Note_on_c, 1, 60, 0
10, 21351, Note_on_c, 1, 59, 90
10, 21375, Note_on_c, 1, 59, 0
10, 21606, Note_on_c, 1, 58, 77
10, 21621, Note_on_c, 1, 58, 0
10, 21835, Note_on_c, 1, 57, 78
10, 21858, Note_on_c, 1, 57, 0
10, 22079, Note_on_c, 1, 58, 73
10, 22102, Note_on_c, 1, 58, 0
10, 22314, Note_on_c, 1, 57, 76
10, 22338, Note_on_c, 1, 57, 0
10, 22567, Note_on_c, 1, 56, 74
10, 22583, Note_on_c, 1, 56, 0
10, 22794, Note_on_c, 1, 55, 78
10, 22818, Note_on_c, 1, 55, 0
10, 23037, Note_on_c, 1, 57, 79
10, 23057, Note_on_c, 1, 57, 0
10, 23274, Note_on_c, 1, 55, 74
10, 23301, Note_on_c, 1, 55, 0
10, 23526, Note_on_c, 1, 53, 71
10, 23552, Note_on_c, 1, 53, 0
10, 23757, Note_on_c, 1, 50, 76
10, 23779, Note_on_c, 1, 50, 0
10, 23998, Note_on_c, 1, 55, 78
10, 24025, Note_on_c, 1, 55, 0
10, 24240, Note_on_c, 1, 57, 82
10, 24263, Note_on_c, 1, 57, 0
10, 24477, Note_on_c, 1, 59, 77
10, 24504, Note_on_c, 1, 59, 0
10, 24721, Note_on_c, 1, 55, 82
10, 24745, Note_on_c, 1, 55, 0
10, 24745, End_track
11, 0, Start_track
11, 0, Title_t, "Piccolo        "
11, 0, Channel_prefix, 3
11, 2400, Note_on_c, 7, 91, 82
11, 2414, Note_on_c, 7, 91, 0
11, 2415, Note_on_c, 7, 93, 84
11, 2429, Note_on_c, 7, 93, 0
11, 2430, Note_on_c, 7, 91, 89
11, 2444, Note_on_c, 7, 91, 0
11, 2445, Note_on_c, 7, 93, 80
11, 2459, Note_on_c, 7, 93, 0
11, 2460, Note_on_c, 7, 91, 89
11, 2474, Note_on_c, 7, 91, 0
11, 2475, Note_on_c, 7, 93, 79
11, 2489, Note_on_c, 7, 93, 0
11, 2490, Note_on_c, 7, 91, 85
11, 2504, Note_on_c, 7, 91, 0
11, 2505, Note_on_c, 7, 93, 78
11, 2519, Note_on_c, 7, 93, 0
11, 2520, Note_on_c, 7, 91, 78
11, 2534, Note_on_c, 7, 91, 0
11, 2535, Note_on_c, 7, 93, 78
11, 2549, Note_on_c, 7, 93, 0
11, 2550, Note_on_c, 7, 91, 82
11, 2564, Note_on_c, 7, 91, 0
11, 2565, Note_on_c, 7, 93, 82
11, 2579, Note_on_c, 7, 93, 0
11, 2580, Note_on_c, 7, 91, 86
11, 2594, Note_on_c, 7, 91, 0
11, 2595, Note_on_c, 7, 93, 78
11, 2609, Note_on_c, 7, 93, 0
11, 2610, Note_on_c, 7, 91, 79
11, 2624, Note_on_c, 7, 91, 0
11, 2625, Note_on_c, 7, 93, 82
11, 2639, Note_on_c, 7, 93, 0
11, 2640, Note_on_c, 7, 91, 82
11, 2654, Note_on_c, 7, 91, 0
11, 2655, Note_on_c, 7, 93, 82
11, 2669, Note_on_c, 7, 93, 0
11, 2670, Note_on_c, 7, 91, 81
11, 2684, Note_on_c, 7, 91, 0
11, 2685, Note_on_c, 7, 93, 76
11, 2699, Note_on_c, 7, 93, 0
11, 2700, Note_on_c, 7, 91, 80
11, 2714, Note_on_c, 7, 91, 0
11, 2715, Note_on_c, 7, 93, 77
11, 2729, Note_on_c, 7, 93, 0
11, 2730, Note_on_c, 7, 91, 77
11, 2744, Note_on_c, 7, 91, 0
11, 2745, Note_on_c, 7, 93, 75
11, 2759, Note_on_c, 7, 93, 0
11, 2760, Note_on_c, 7, 91, 77
11, 2774, Note_on_c, 7, 91, 0
11, 2775, Note_on_c, 7, 93, 77
11, 2789, Note_on_c, 7, 93, 0
11, 2790, Note_on_c, 7, 91, 78
11, 2804, Note_on_c, 7, 91, 0
11, 2805, Note_on_c, 7, 93, 80
11, 2819, Note_on_c, 7, 93, 0
11, 2820, Note_on_c, 7, 91, 83
11, 2834, Note_on_c, 7, 91, 0
11, 2835, Note_on_c, 7, 93, 76
11, 2849, Note_on_c, 7, 93, 0
11, 2850, Note_on_c, 7, 91, 82
11, 2864, Note_on_c, 7, 91, 0
11, 2865, Note_on_c, 7, 93, 76
11, 2879, Note_on_c, 7, 93, 0
11, 2880, Note_on_c, 7, 91, 84
11, 2894, Note_on_c, 7, 91, 0
11, 2895, Note_on_c, 7, 93, 79
11, 2909, Note_on_c, 7, 93, 0
11, 2910, Note_on_c, 7, 91, 87
11, 2924, Note_on_c, 7, 91, 0
11, 2925, Note_on_c, 7, 93, 82
11, 2939, Note_on_c, 7, 93, 0
11, 2940, Note_on_c, 7, 91, 85
11, 2954, Note_on_c, 7, 91, 0
11, 2955, Note_on_c, 7, 93, 82
11, 2969, Note_on_c, 7, 93, 0
11, 2970, Note_on_c, 7, 91, 88
11, 2984, Note_on_c, 7, 91, 0
11, 2985, Note_on_c, 7, 93, 81
11, 2999, Note_on_c, 7, 93, 0
11, 3000, Note_on_c, 7, 91, 87
11, 3014, Note_on_c, 7, 91, 0
11, 3015, Note_on_c, 7, 93, 82
11, 3029, Note_on_c, 7, 93, 0
11, 3030, Note_on_c, 7, 91, 76
11, 3044, Note_on_c, 7, 91, 0
11, 3045, Note_on_c, 7, 93, 78
11, 3059, Note_on_c, 7, 93, 0
11, 3060, Note_on_c, 7, 91, 82
11, 3074, Note_on_c, 7, 91, 0
11, 3075, Note_on_c, 7, 93, 85
11, 3089, Note_on_c, 7, 93, 0
11, 3090, Note_on_c, 7, 91, 82
11, 3104, Note_on_c, 7, 91, 0
11, 3105, Note_on_c, 7, 93, 83
11, 3119, Note_on_c, 7, 93, 0
11, 3120, Note_on_c, 7, 91, 82
11, 3134, Note_on_c, 7, 91, 0
11, 3135, Note_on_c, 7, 93, 83
11, 3149, Note_on_c, 7, 93, 0
11, 3150, Note_on_c, 7, 91, 80
11, 3164, Note_on_c, 7, 91, 0
11, 3165, Note_on_c, 7, 93, 77
11, 3179, Note_on_c, 7, 93, 0
11, 3180, Note_on_c, 7, 91, 82
11, 3194, Note_on_c, 7, 91, 0
11, 3195, Note_on_c, 7, 93, 82
11, 3209, Note_on_c, 7, 93, 0
11, 3210, Note_on_c, 7, 91, 84
11, 3224, Note_on_c, 7, 91, 0
11, 3225, Note_on_c, 7, 93, 79
11, 3239, Note_on_c, 7, 93, 0
11, 3240, Note_on_c, 7, 91, 86
11, 3254, Note_on_c, 7, 91, 0
11, 3255, Note_on_c, 7, 93, 82
11, 3269, Note_on_c, 7, 93, 0
11, 3270, Note_on_c, 7, 91, 84
11, 3284, Note_on_c, 7, 91, 0
11, 3285, Note_on_c, 7, 93, 79
11, 3299, Note_on_c, 7, 93, 0
11, 3300, Note_on_c, 7, 91, 84
11, 3314, Note_on_c, 7, 91, 0
11, 3315, Note_on_c, 7, 93, 76
11, 3329, Note_on_c, 7, 93, 0
11, 3330, Note_on_c, 7, 91, 83
11, 3344, Note_on_c, 7, 91, 0
11, 3345, Note_on_c, 7, 93, 74
11, 3359, Note_on_c, 7, 93, 0
11, 3360, Note_on_c, 7, 91, 86
11, 3374, Note_on_c, 7, 91, 0
11, 3375, Note_on_c, 7, 93, 72
11, 3389, Note_on_c, 7, 93, 0
11, 3390, Note_on_c, 7, 91, 87
11, 3404, Note_on_c, 7, 91, 0
11, 3405, Note_on_c, 7, 93, 81
11, 3419, Note_on_c, 7, 93, 0
11, 3420, Note_on_c, 7, 91, 86
11, 3434, Note_on_c, 7, 91, 0
11, 3435, Note_on_c, 7, 93, 80
11, 3449, Note_on_c, 7, 93, 0
11, 3450, Note_on_c, 7, 91, 82
11, 3464, Note_on_c, 7, 91, 0
11, 3465, Note_on_c, 7, 93, 82
11, 3479, Note_on_c, 7, 93, 0
11, 3480, Note_on_c, 7, 91, 85
11, 3494, Note_on_c, 7, 91, 0
11, 3495, Note_on_c, 7, 93, 83
11, 3509, Note_on_c, 7, 93, 0
11, 3510, Note_on_c, 7, 91, 87
11, 3524, Note_on_c, 7, 91, 0
11, 3525, Note_on_c, 7, 93, 78
11, 3539, Note_on_c, 7, 93, 0
11, 3540, Note_on_c, 7, 91, 82
11, 3554, Note_on_c, 7, 91, 0
11, 3555, Note_on_c, 7, 93, 78
11, 3569, Note_on_c, 7, 93, 0
11, 3570, Note_on_c, 7, 91, 84
11, 3584, Note_on_c, 7, 91, 0
11, 3585, Note_on_c, 7, 93, 78
11, 3599, Note_on_c, 7, 93, 0
11, 3600, Note_on_c, 7, 91, 82
11, 3614, Note_on_c, 7, 91, 0
11, 3615, Note_on_c, 7, 93, 76
11, 3629, Note_on_c, 7, 93, 0
11, 3630, Note_on_c, 7, 91, 87
11, 3644, Note_on_c, 7, 91, 0
11, 3645, Note_on_c, 7, 93, 73
11, 3659, Note_on_c, 7, 93, 0
11, 3660, Note_on_c, 7, 91, 86
11, 3674, Note_on_c, 7, 91, 0
11, 3675, Note_on_c, 7, 93, 82
11, 3689, Note_on_c, 7, 93, 0
11, 3690, Note_on_c, 7, 91, 80
11, 3704, Note_on_c, 7, 91, 0
11, 3705, Note_on_c, 7, 93, 76
11, 3719, Note_on_c, 7, 93, 0
11, 3720, Note_on_c, 7, 91, 84
11, 3734, Note_on_c, 7, 91, 0
11, 3735, Note_on_c, 7, 93, 79
11, 3749, Note_on_c, 7, 93, 0
11, 3750, Note_on_c, 7, 91, 80
11, 3764, Note_on_c, 7, 91, 0
11, 3765, Note_on_c, 7, 93, 77
11, 3779, Note_on_c, 7, 93, 0
11, 3780, Note_on_c, 7, 91, 78
11, 3794, Note_on_c, 7, 91, 0
11, 3795, Note_on_c, 7, 93, 78
11, 3809, Note_on_c, 7, 93, 0
11, 3810, Note_on_c, 7, 91, 90
11, 3824, Note_on_c, 7, 91, 0
11, 3825, Note_on_c, 7, 93, 84
11, 3839, Note_on_c, 7, 93, 0
11, 3840, Note_on_c, 7, 91, 78
11, 3854, Note_on_c, 7, 91, 0
11, 3855, Note_on_c, 7, 93, 71
11, 3869, Note_on_c, 7, 93, 0
11, 3870, Note_on_c, 7, 91, 86
11, 3884, Note_on_c, 7, 91, 0
11, 3885, Note_on_c, 7, 93, 82
11, 3899, Note_on_c, 7, 93, 0
11, 3900, Note_on_c, 7, 91, 91
11, 3914, Note_on_c, 7, 91, 0
11, 3915, Note_on_c, 7, 93, 78
11, 3929, Note_on_c, 7, 93, 0
11, 3930, Note_on_c, 7, 91, 89
11, 3944, Note_on_c, 7, 91, 0
11, 3945, Note_on_c, 7, 93, 82
11, 3959, Note_on_c, 7, 93, 0
11, 3960, Note_on_c, 7, 91, 83
11, 3974, Note_on_c, 7, 91, 0
11, 3975, Note_on_c, 7, 93, 90
11, 3989, Note_on_c, 7, 93, 0
11, 3990, Note_on_c, 7, 91, 92
11, 4004, Note_on_c, 7, 91, 0
11, 4005, Note_on_c, 7, 93, 87
11, 4019, Note_on_c, 7, 93, 0
11, 4020, Note_on_c, 7, 91, 86
11, 4034, Note_on_c, 7, 91, 0
11, 4035, Note_on_c, 7, 93, 78
11, 4049, Note_on_c, 7, 93, 0
11, 4050, Note_on_c, 7, 91, 82
11, 4064, Note_on_c, 7, 91, 0
11, 4065, Note_on_c, 7, 93, 82
11, 4079, Note_on_c, 7, 93, 0
11, 4080, Note_on_c, 7, 91, 84
11, 4094, Note_on_c, 7, 91, 0
11, 4095, Note_on_c, 7, 93, 85
11, 4109, Note_on_c, 7, 93, 0
11, 4110, Note_on_c, 7, 91, 93
11, 4124, Note_on_c, 7, 91, 0
11, 4125, Note_on_c, 7, 93, 89
11, 4139, Note_on_c, 7, 93, 0
11, 4140, Note_on_c, 7, 91, 85
11, 4154, Note_on_c, 7, 91, 0
11, 4155, Note_on_c, 7, 93, 87
11, 4169, Note_on_c, 7, 93, 0
11, 4170, Note_on_c, 7, 91, 93
11, 4184, Note_on_c, 7, 91, 0
11, 4185, Note_on_c, 7, 93, 80
11, 4199, Note_on_c, 7, 93, 0
11, 4200, Note_on_c, 7, 91, 90
11, 4214, Note_on_c, 7, 91, 0
11, 4215, Note_on_c, 7, 93, 82
11, 4229, Note_on_c, 7, 93, 0
11, 4230, Note_on_c, 7, 91, 88
11, 4244, Note_on_c, 7, 91, 0
11, 4245, Note_on_c, 7, 93, 88
11, 4259, Note_on_c, 7, 93, 0
11, 4260, Note_on_c, 7, 91, 88
11, 4274, Note_on_c, 7, 91, 0
11, 4275, Note_on_c, 7, 93, 87
11, 4289, Note_on_c, 7, 93, 0
11, 4290, Note_on_c, 7, 91, 90
11, 4304, Note_on_c, 7, 91, 0
11, 4305, Note_on_c, 7, 93, 94
11, 4319, Note_on_c, 7, 93, 0
11, 4320, Note_on_c, 7, 91, 109
11, 4379, Note_on_c, 7, 91, 0
11, 5283, Note_on_c, 7, 88, 96
11, 5312, Note_on_c, 7, 88, 0
11, 5393, Note_on_c, 7, 88, 97
11, 5449, Note_on_c, 7, 88, 0
11, 5520, Note_on_c, 7, 88, 93
11, 5580, Note_on_c, 7, 88, 0
11, 5640, Note_on_c, 7, 88, 92
11, 5696, Note_on_c, 7, 88, 0
11, 5760, Note_on_c, 7, 88, 81
11, 5761, Note_on_c, 7, 88, 83
11, 5772, Note_on_c, 7, 89, 79
11, 5776, Note_on_c, 7, 88, 0
11, 5790, Note_on_c, 7, 89, 0
11, 5790, Note_on_c, 7, 88, 84
11, 5795, Note_on_c, 7, 88, 0
11, 5804, Note_on_c, 7, 89, 73
11, 5807, Note_on_c, 7, 88, 0
11, 5813, Note_on_c, 7, 89, 0
11, 5816, Note_on_c, 7, 88, 71
11, 5827, Note_on_c, 7, 89, 76
11, 5831, Note_on_c, 7, 88, 0
11, 5845, Note_on_c, 7, 88, 93
11, 5855, Note_on_c, 7, 89, 0
11, 5869, Note_on_c, 7, 88, 0
11, 5880, Note_on_c, 7, 87, 75
11, 5932, Note_on_c, 7, 87, 0
11, 5940, Note_on_c, 7, 88, 68
11, 5989, Note_on_c, 7, 88, 0
11, 6000, Note_on_c, 7, 93, 84
11, 6060, Note_on_c, 7, 91, 78
11, 6063, Note_on_c, 7, 93, 0
11, 6117, Note_on_c, 7, 91, 0
11, 6120, Note_on_c, 7, 89, 77
11, 6171, Note_on_c, 7, 89, 0
11, 6180, Note_on_c, 7, 88, 82
11, 6236, Note_on_c, 7, 88, 0
11, 6240, Note_on_c, 7, 86, 84
11, 6304, Note_on_c, 7, 86, 0
11, 6360, Note_on_c, 7, 86, 83
11, 6415, Note_on_c, 7, 86, 0
11, 6480, Note_on_c, 7, 86, 91
11, 6539, Note_on_c, 7, 86, 0
11, 6600, Note_on_c, 7, 86, 89
11, 6661, Note_on_c, 7, 86, 0
11, 6718, Note_on_c, 7, 86, 85
11, 6720, Note_on_c, 7, 86, 89
11, 6730, Note_on_c, 7, 88, 75
11, 6733, Note_on_c, 7, 86, 0
11, 6747, Note_on_c, 7, 88, 0
11, 6749, Note_on_c, 7, 86, 82
11, 6767, Note_on_c, 7, 88, 72
11, 6768, Note_on_c, 7, 86, 0
11, 6777, Note_on_c, 7, 88, 0
11, 6781, Note_on_c, 7, 86, 78
11, 6793, Note_on_c, 7, 86, 0
11, 6793, Note_on_c, 7, 88, 74
11, 6807, Note_on_c, 7, 86, 82
11, 6813, Note_on_c, 7, 88, 0
11, 6826, Note_on_c, 7, 86, 0
11, 6827, Note_on_c, 7, 86, 0
11, 6840, Note_on_c, 7, 85, 71
11, 6891, Note_on_c, 7, 85, 0
11, 6900, Note_on_c, 7, 86, 82
11, 6939, Note_on_c, 7, 86, 0
11, 6960, Note_on_c, 7, 91, 88
11, 7017, Note_on_c, 7, 91, 0
11, 7020, Note_on_c, 7, 89, 79
11, 7080, Note_on_c, 7, 88, 83
11, 7081, Note_on_c, 7, 89, 0
11, 7140, Note_on_c, 7, 86, 85
11, 7142, Note_on_c, 7, 88, 0
11, 7197, Note_on_c, 7, 86, 0
11, 7200, Note_on_c, 7, 84, 80
11, 7251, Note_on_c, 7, 84, 0
11, 7320, Note_on_c, 7, 84, 87
11, 7379, Note_on_c, 7, 84, 0
11, 7440, Note_on_c, 7, 84, 84
11, 7501, Note_on_c, 7, 84, 0
11, 7560, Note_on_c, 7, 84, 84
11, 7625, Note_on_c, 7, 84, 0
11, 7679, Note_on_c, 7, 84, 97
11, 7680, Note_on_c, 7, 84, 86
11, 7700, Note_on_c, 7, 84, 0
11, 7700, Note_on_c, 7, 86, 85
11, 7716, Note_on_c, 7, 84, 78
11, 7719, Note_on_c, 7, 86, 0
11, 7730, Note_on_c, 7, 86, 74
11, 7732, Note_on_c, 7, 84, 0
11, 7746, Note_on_c, 7, 86, 0
11, 7749, Note_on_c, 7, 84, 78
11, 7760, Note_on_c, 7, 86, 86
11, 7762, Note_on_c, 7, 84, 0
11, 7775, Note_on_c, 7, 84, 72
11, 7777, Note_on_c, 7, 86, 0
11, 7788, Note_on_c, 7, 84, 0
11, 7788, Note_on_c, 7, 84, 0
11, 7800, Note_on_c, 7, 83, 80
11, 7851, Note_on_c, 7, 83, 0
11, 7860, Note_on_c, 7, 84, 79
11, 7886, Note_on_c, 7, 84, 0
11, 7920, Note_on_c, 7, 89, 84
11, 7980, Note_on_c, 7, 88, 81
11, 7982, Note_on_c, 7, 89, 0
11, 8040, Note_on_c, 7, 88, 0
11, 8040, Note_on_c, 7, 86, 85
11, 8093, Note_on_c, 7, 86, 0
11, 8100, Note_on_c, 7, 84, 82
11, 8148, Note_on_c, 7, 84, 0
11, 8160, Note_on_c, 7, 84, 72
11, 8210, Note_on_c, 7, 84, 0
11, 8220, Note_on_c, 7, 83, 77
11, 8268, Note_on_c, 7, 83, 0
11, 8280, Note_on_c, 7, 86, 86
11, 8318, Note_on_c, 7, 86, 0
11, 8340, Note_on_c, 7, 83, 82
11, 8378, Note_on_c, 7, 83, 0
11, 8400, Note_on_c, 7, 83, 86
11, 8452, Note_on_c, 7, 83, 0
11, 8460, Note_on_c, 7, 81, 82
11, 8502, Note_on_c, 7, 81, 0
11, 8520, Note_on_c, 7, 86, 91
11, 8555, Note_on_c, 7, 86, 0
11, 8580, Note_on_c, 7, 81, 86
11, 8617, Note_on_c, 7, 81, 0
11, 8640, Note_on_c, 7, 81, 88
11, 8679, Note_on_c, 7, 81, 0
11, 8700, Note_on_c, 7, 79, 82
11, 8742, Note_on_c, 7, 79, 0
11, 8760, Note_on_c, 7, 78, 78
11, 8805, Note_on_c, 7, 78, 0
11, 8820, Note_on_c, 7, 79, 83
11, 8856, Note_on_c, 7, 79, 0
11, 8880, Note_on_c, 7, 81, 89
11, 8921, Note_on_c, 7, 81, 0
11, 8940, Note_on_c, 7, 83, 81
11, 8982, Note_on_c, 7, 83, 0
11, 9000, Note_on_c, 7, 84, 84
11, 9048, Note_on_c, 7, 84, 0
11, 9060, Note_on_c, 7, 86, 89
11, 9095, Note_on_c, 7, 86, 0
11, 9120, Note_on_c, 7, 88, 96
11, 9169, Note_on_c, 7, 88, 0
11, 9240, Note_on_c, 7, 88, 102
11, 9290, Note_on_c, 7, 88, 0
11, 9360, Note_on_c, 7, 88, 101
11, 9417, Note_on_c, 7, 88, 0
11, 9480, Note_on_c, 7, 88, 98
11, 9536, Note_on_c, 7, 88, 0
11, 9599, Note_on_c, 7, 88, 76
11, 9600, Note_on_c, 7, 88, 101
11, 9614, Note_on_c, 7, 89, 79
11, 9616, Note_on_c, 7, 88, 0
11, 9630, Note_on_c, 7, 89, 0
11, 9632, Note_on_c, 7, 88, 77
11, 9646, Note_on_c, 7, 88, 0
11, 9646, Note_on_c, 7, 89, 74
11, 9650, Note_on_c, 7, 88, 0
11, 9659, Note_on_c, 7, 89, 0
11, 9664, Note_on_c, 7, 88, 72
11, 9674, Note_on_c, 7, 89, 82
11, 9677, Note_on_c, 7, 88, 0
11, 9691, Note_on_c, 7, 88, 88
11, 9696, Note_on_c, 7, 89, 0
11, 9715, Note_on_c, 7, 88, 0
11, 9720, Note_on_c, 7, 87, 91
11, 9768, Note_on_c, 7, 87, 0
11, 9780, Note_on_c, 7, 88, 89
11, 9835, Note_on_c, 7, 88, 0
11, 9840, Note_on_c, 7, 93, 83
11, 9875, Note_on_c, 7, 93, 0
11, 9900, Note_on_c, 7, 91, 84
11, 9944, Note_on_c, 7, 91, 0
11, 9960, Note_on_c, 7, 89, 89
11, 10012, Note_on_c, 7, 89, 0
11, 10020, Note_on_c, 7, 88, 91
11, 10055, Note_on_c, 7, 88, 0
11, 10080, Note_on_c, 7, 86, 90
11, 10143, Note_on_c, 7, 86, 0
11, 10200, Note_on_c, 7, 86, 96
11, 10265, Note_on_c, 7, 86, 0
11, 10320, Note_on_c, 7, 86, 94
11, 10384, Note_on_c, 7, 86, 0
11, 10440, Note_on_c, 7, 86, 100
11, 10507, Note_on_c, 7, 86, 0
11, 10560, Note_on_c, 7, 86, 96
11, 10561, Note_on_c, 7, 86, 93
11, 10577, Note_on_c, 7, 88, 79
11, 10579, Note_on_c, 7, 86, 0
11, 10593, Note_on_c, 7, 88, 0
11, 10595, Note_on_c, 7, 86, 88
11, 10601, Note_on_c, 7, 86, 0
11, 10611, Note_on_c, 7, 88, 76
11, 10612, Note_on_c, 7, 86, 0
11, 10625, Note_on_c, 7, 88, 0
11, 10625, Note_on_c, 7, 86, 82
11, 10638, Note_on_c, 7, 88, 74
11, 10653, Note_on_c, 7, 88, 0
11, 10669, Note_on_c, 7, 86, 0
11, 10680, Note_on_c, 7, 85, 85
11, 10729, Note_on_c, 7, 85, 0
11, 10740, Note_on_c, 7, 86, 88
11, 10783, Note_on_c, 7, 86, 0
11, 10800, Note_on_c, 7, 91, 82
11, 10853, Note_on_c, 7, 91, 0
11, 10860, Note_on_c, 7, 89, 81
11, 10906, Note_on_c, 7, 89, 0
11, 10920, Note_on_c, 7, 88, 86
11, 10959, Note_on_c, 7, 88, 0
11, 10980, Note_on_c, 7, 86, 84
11, 11030, Note_on_c, 7, 86, 0
11, 11040, Note_on_c, 7, 84, 82
11, 11098, Note_on_c, 7, 84, 0
11, 11160, Note_on_c, 7, 84, 88
11, 11223, Note_on_c, 7, 84, 0
11, 11280, Note_on_c, 7, 84, 86
11, 11349, Note_on_c, 7, 84, 0
11, 11400, Note_on_c, 7, 84, 92
11, 11472, Note_on_c, 7, 84, 0
11, 11520, Note_on_c, 7, 84, 93
11, 11531, Note_on_c, 7, 84, 97
11, 11547, Note_on_c, 7, 86, 79
11, 11548, Note_on_c, 7, 84, 0
11, 11564, Note_on_c, 7, 84, 82
11, 11565, Note_on_c, 7, 86, 0
11, 11574, Note_on_c, 7, 84, 0
11, 11581, Note_on_c, 7, 84, 0
11, 11581, Note_on_c, 7, 86, 80
11, 11595, Note_on_c, 7, 86, 0
11, 11595, Note_on_c, 7, 84, 79
11, 11610, Note_on_c, 7, 86, 80
11, 11616, Note_on_c, 7, 84, 0
11, 11623, Note_on_c, 7, 84, 69
11, 11630, Note_on_c, 7, 86, 0
11, 11640, Note_on_c, 7, 83, 86
11, 11648, Note_on_c, 7, 84, 0
11, 11683, Note_on_c, 7, 83, 0
11, 11700, Note_on_c, 7, 84, 88
11, 11738, Note_on_c, 7, 84, 0
11, 11760, Note_on_c, 7, 89, 84
11, 11820, Note_on_c, 7, 88, 84
11, 11829, Note_on_c, 7, 89, 0
11, 11869, Note_on_c, 7, 88, 0
11, 11880, Note_on_c, 7, 86, 90
11, 11929, Note_on_c, 7, 86, 0
11, 11940, Note_on_c, 7, 84, 85
11, 11987, Note_on_c, 7, 84, 0
11, 12000, Note_on_c, 7, 84, 87
11, 12049, Note_on_c, 7, 84, 0
11, 12060, Note_on_c, 7, 83, 77
11, 12096, Note_on_c, 7, 83, 0
11, 12120, Note_on_c, 7, 86, 91
11, 12161, Note_on_c, 7, 86, 0
11, 12180, Note_on_c, 7, 84, 86
11, 12213, Note_on_c, 7, 84, 0
11, 12240, Note_on_c, 7, 88, 91
11, 12277, Note_on_c, 7, 88, 0
11, 12300, Note_on_c, 7, 86, 92
11, 12340, Note_on_c, 7, 86, 0
11, 12360, Note_on_c, 7, 89, 86
11, 12406, Note_on_c, 7, 89, 0
11, 12420, Note_on_c, 7, 88, 90
11, 12456, Note_on_c, 7, 88, 0
11, 12480, Note_on_c, 7, 91, 86
11, 12514, Note_on_c, 7, 91, 0
11, 12540, Note_on_c, 7, 90, 73
11, 12569, Note_on_c, 7, 90, 0
11, 12600, Note_on_c, 7, 96, 80
11, 12628, Note_on_c, 7, 96, 0
11, 12660, Note_on_c, 7, 90, 70
11, 12700, Note_on_c, 7, 90, 0
11, 12720, Note_on_c, 7, 91, 82
11, 12774, Note_on_c, 7, 91, 0
11, 12780, Note_on_c, 7, 95, 82
11, 12810, Note_on_c, 7, 98, 75
11, 12814, Note_on_c, 7, 95, 0
11, 12839, Note_on_c, 7, 98, 0
11, 12840, Note_on_c, 7, 103, 94
11, 12890, Note_on_c, 7, 103, 0
11, 24960, Note_on_c, 7, 100, 93
11, 25000, Note_on_c, 7, 100, 0
11, 25080, Note_on_c, 7, 100, 98
11, 25121, Note_on_c, 7, 100, 0
11, 25200, Note_on_c, 7, 100, 97
11, 25240, Note_on_c, 7, 100, 0
11, 25320, Note_on_c, 7, 100, 88
11, 25373, Note_on_c, 7, 100, 0
11, 25440, Note_on_c, 7, 100, 92
11, 25449, Note_on_c, 7, 100, 96
11, 25465, Note_on_c, 7, 101, 71
11, 25468, Note_on_c, 7, 100, 0
11, 25482, Note_on_c, 7, 101, 0
11, 25485, Note_on_c, 7, 100, 86
11, 25504, Note_on_c, 7, 101, 72
11, 25506, Note_on_c, 7, 100, 0
11, 25521, Note_on_c, 7, 100, 86
11, 25524, Note_on_c, 7, 101, 0
11, 25542, Note_on_c, 7, 100, 0
11, 25549, Note_on_c, 7, 100, 0
11, 25560, Note_on_c, 7, 99, 76
11, 25619, Note_on_c, 7, 99, 0
11, 25620, Note_on_c, 7, 100, 76
11, 25666, Note_on_c, 7, 100, 0
11, 25680, Note_on_c, 7, 105, 83
11, 25728, Note_on_c, 7, 105, 0
11, 25740, Note_on_c, 7, 103, 78
11, 25795, Note_on_c, 7, 103, 0
11, 25800, Note_on_c, 7, 101, 78
11, 25856, Note_on_c, 7, 101, 0
11, 25860, Note_on_c, 7, 100, 78
11, 25902, Note_on_c, 7, 100, 0
11, 25920, Note_on_c, 7, 98, 84
11, 25967, Note_on_c, 7, 98, 0
11, 26040, Note_on_c, 7, 98, 90
11, 26103, Note_on_c, 7, 98, 0
11, 26160, Note_on_c, 7, 98, 86
11, 26213, Note_on_c, 7, 98, 0
11, 26280, Note_on_c, 7, 98, 88
11, 26328, Note_on_c, 7, 98, 0
11, 26400, Note_on_c, 7, 98, 90
11, 26401, Note_on_c, 7, 98, 102
11, 26418, Note_on_c, 7, 100, 82
11, 26423, Note_on_c, 7, 98, 0
11, 26440, Note_on_c, 7, 100, 0
11, 26440, Note_on_c, 7, 98, 84
11, 26458, Note_on_c, 7, 100, 76
11, 26463, Note_on_c, 7, 98, 0
11, 26479, Note_on_c, 7, 98, 0
11, 26479, Note_on_c, 7, 98, 91
11, 26481, Note_on_c, 7, 100, 0
11, 26494, Note_on_c, 7, 100, 68
11, 26501, Note_on_c, 7, 100, 0
11, 26509, Note_on_c, 7, 98, 0
11, 26520, Note_on_c, 7, 97, 70
11, 26566, Note_on_c, 7, 97, 0
11, 26580, Note_on_c, 7, 98, 82
11, 26629, Note_on_c, 7, 98, 0
11, 26640, Note_on_c, 7, 103, 82
11, 26690, Note_on_c, 7, 103, 0
11, 26700, Note_on_c, 7, 101, 69
11, 26757, Note_on_c, 7, 101, 0
11, 26760, Note_on_c, 7, 100, 80
11, 26809, Note_on_c, 7, 100, 0
11, 26820, Note_on_c, 7, 98, 68
11, 26880, Note_on_c, 7, 96, 80
11, 26892, Note_on_c, 7, 98, 0
11, 26924, Note_on_c, 7, 96, 0
11, 27000, Note_on_c, 7, 96, 82
11, 27044, Note_on_c, 7, 96, 0
11, 27120, Note_on_c, 7, 96, 83
11, 27162, Note_on_c, 7, 96, 0
11, 27240, Note_on_c, 7, 96, 82
11, 27284, Note_on_c, 7, 96, 0
11, 27360, Note_on_c, 7, 96, 87
11, 27362, Note_on_c, 7, 96, 96
11, 27375, Note_on_c, 7, 98, 82
11, 27382, Note_on_c, 7, 96, 0
11, 27399, Note_on_c, 7, 98, 0
11, 27401, Note_on_c, 7, 96, 92
11, 27418, Note_on_c, 7, 98, 81
11, 27422, Note_on_c, 7, 96, 0
11, 27435, Note_on_c, 7, 96, 83
11, 27438, Note_on_c, 7, 98, 0
11, 27443, Note_on_c, 7, 96, 0
11, 27471, Note_on_c, 7, 96, 0
11, 27480, Note_on_c, 7, 95, 76
11, 27520, Note_on_c, 7, 95, 0
11, 27540, Note_on_c, 7, 96, 76
11, 27578, Note_on_c, 7, 96, 0
11, 27600, Note_on_c, 7, 101, 82
11, 27655, Note_on_c, 7, 101, 0
11, 27660, Note_on_c, 7, 100, 76
11, 27691, Note_on_c, 7, 100, 0
11, 27720, Note_on_c, 7, 98, 79
11, 27756, Note_on_c, 7, 98, 0
11, 27780, Note_on_c, 7, 96, 80
11, 27817, Note_on_c, 7, 96, 0
11, 27840, Note_on_c, 7, 91, 82
11, 27854, Note_on_c, 7, 91, 0
11, 27855, Note_on_c, 7, 93, 86
11, 27869, Note_on_c, 7, 93, 0
11, 27870, Note_on_c, 7, 91, 88
11, 27884, Note_on_c, 7, 91, 0
11, 27885, Note_on_c, 7, 93, 83
11, 27899, Note_on_c, 7, 93, 0
11, 27900, Note_on_c, 7, 91, 93
11, 27914, Note_on_c, 7, 91, 0
11, 27915, Note_on_c, 7, 93, 85
11, 27929, Note_on_c, 7, 93, 0
11, 27930, Note_on_c, 7, 91, 89
11, 27944, Note_on_c, 7, 91, 0
11, 27945, Note_on_c, 7, 93, 85
11, 27959, Note_on_c, 7, 93, 0
11, 27960, Note_on_c, 7, 91, 88
11, 27974, Note_on_c, 7, 91, 0
11, 27975, Note_on_c, 7, 93, 80
11, 27989, Note_on_c, 7, 93, 0
11, 27990, Note_on_c, 7, 91, 85
11, 28004, Note_on_c, 7, 91, 0
11, 28005, Note_on_c, 7, 93, 81
11, 28019, Note_on_c, 7, 93, 0
11, 28020, Note_on_c, 7, 91, 85
11, 28034, Note_on_c, 7, 91, 0
11, 28035, Note_on_c, 7, 93, 74
11, 28049, Note_on_c, 7, 93, 0
11, 28050, Note_on_c, 7, 91, 83
11, 28064, Note_on_c, 7, 91, 0
11, 28065, Note_on_c, 7, 93, 77
11, 28079, Note_on_c, 7, 93, 0
11, 28080, Note_on_c, 7, 91, 82
11, 28094, Note_on_c, 7, 91, 0
11, 28095, Note_on_c, 7, 93, 82
11, 28109, Note_on_c, 7, 93, 0
11, 28110, Note_on_c, 7, 91, 85
11, 28124, Note_on_c, 7, 91, 0
11, 28125, Note_on_c, 7, 93, 79
11, 28139, Note_on_c, 7, 93, 0
11, 28140, Note_on_c, 7, 91, 83
11, 28154, Note_on_c, 7, 91, 0
11, 28155, Note_on_c, 7, 93, 75
11, 28169, Note_on_c, 7, 93, 0
11, 28170, Note_on_c, 7, 91, 78
11, 28184, Note_on_c, 7, 91, 0
11, 28185, Note_on_c, 7, 93, 76
11, 28199, Note_on_c, 7, 93, 0
11, 28200, Note_on_c, 7, 91, 82
11, 28214, Note_on_c, 7, 91, 0
11, 28215, Note_on_c, 7, 93, 75
11, 28229, Note_on_c, 7, 93, 0
11, 28230, Note_on_c, 7, 91, 85
11, 28244, Note_on_c, 7, 91, 0
11, 28245, Note_on_c, 7, 93, 76
11, 28259, Note_on_c, 7, 93, 0
11, 28260, Note_on_c, 7, 91, 79
11, 28274, Note_on_c, 7, 91, 0
11, 28275, Note_on_c, 7, 93, 78
11, 28289, Note_on_c, 7, 93, 0
11, 28290, Note_on_c, 7, 91, 86
11, 28304, Note_on_c, 7, 91, 0
11, 28305, Note_on_c, 7, 93, 79
11, 28319, Note_on_c, 7, 93, 0
11, 28320, Note_on_c, 7, 91, 82
11, 28334, Note_on_c, 7, 91, 0
11, 28335, Note_on_c, 7, 93, 86
11, 28349, Note_on_c, 7, 93, 0
11, 28350, Note_on_c, 7, 91, 88
11, 28364, Note_on_c, 7, 91, 0
11, 28365, Note_on_c, 7, 93, 83
11, 28379, Note_on_c, 7, 93, 0
11, 28380, Note_on_c, 7, 91, 93
11, 28394, Note_on_c, 7, 91, 0
11, 28395, Note_on_c, 7, 93, 85
11, 28409, Note_on_c, 7, 93, 0
11, 28410, Note_on_c, 7, 91, 89
11, 28424, Note_on_c, 7, 91, 0
11, 28425, Note_on_c, 7, 93, 85
11, 28439, Note_on_c, 7, 93, 0
11, 28440, Note_on_c, 7, 91, 88
11, 28454, Note_on_c, 7, 91, 0
11, 28455, Note_on_c, 7, 93, 80
11, 28469, Note_on_c, 7, 93, 0
11, 28470, Note_on_c, 7, 91, 85
11, 28484, Note_on_c, 7, 91, 0
11, 28485, Note_on_c, 7, 93, 81
11, 28499, Note_on_c, 7, 93, 0
11, 28500, Note_on_c, 7, 91, 85
11, 28514, Note_on_c, 7, 91, 0
11, 28515, Note_on_c, 7, 93, 74
11, 28529, Note_on_c, 7, 93, 0
11, 28530, Note_on_c, 7, 91, 83
11, 28544, Note_on_c, 7, 91, 0
11, 28545, Note_on_c, 7, 93, 77
11, 28559, Note_on_c, 7, 93, 0
11, 28560, Note_on_c, 7, 91, 82
11, 28574, Note_on_c, 7, 91, 0
11, 28575, Note_on_c, 7, 93, 82
11, 28589, Note_on_c, 7, 93, 0
11, 28590, Note_on_c, 7, 91, 85
11, 28604, Note_on_c, 7, 91, 0
11, 28605, Note_on_c, 7, 93, 79
11, 28619, Note_on_c, 7, 93, 0
11, 28620, Note_on_c, 7, 91, 83
11, 28634, Note_on_c, 7, 91, 0
11, 28635, Note_on_c, 7, 93, 75
11, 28649, Note_on_c, 7, 93, 0
11, 28650, Note_on_c, 7, 91, 78
11, 28664, Note_on_c, 7, 91, 0
11, 28665, Note_on_c, 7, 93, 76
11, 28679, Note_on_c, 7, 93, 0
11, 28680, Note_on_c, 7, 91, 82
11, 28694, Note_on_c, 7, 91, 0
11, 28695, Note_on_c, 7, 93, 75
11, 28709, Note_on_c, 7, 93, 0
11, 28710, Note_on_c, 7, 91, 85
11, 28724, Note_on_c, 7, 91, 0
11, 28725, Note_on_c, 7, 93, 76
11, 28739, Note_on_c, 7, 93, 0
11, 28740, Note_on_c, 7, 91, 79
11, 28754, Note_on_c, 7, 91, 0
11, 28755, Note_on_c, 7, 93, 78
11, 28769, Note_on_c, 7, 93, 0
11, 28770, Note_on_c, 7, 91, 86
11, 28784, Note_on_c, 7, 91, 0
11, 28785, Note_on_c, 7, 93, 79
11, 28799, Note_on_c, 7, 93, 0
11, 28800, Note_on_c, 7, 91, 82
11, 28814, Note_on_c, 7, 91, 0
11, 28815, Note_on_c, 7, 93, 86
11, 28829, Note_on_c, 7, 93, 0
11, 28830, Note_on_c, 7, 91, 88
11, 28844, Note_on_c, 7, 91, 0
11, 28845, Note_on_c, 7, 93, 83
11, 28859, Note_on_c, 7, 93, 0
11, 28860, Note_on_c, 7, 91, 93
11, 28874, Note_on_c, 7, 91, 0
11, 28875, Note_on_c, 7, 93, 85
11, 28889, Note_on_c, 7, 93, 0
11, 28890, Note_on_c, 7, 91, 89
11, 28904, Note_on_c, 7, 91, 0
11, 28905, Note_on_c, 7, 93, 85
11, 28919, Note_on_c, 7, 93, 0
11, 28920, Note_on_c, 7, 91, 88
11, 28934, Note_on_c, 7, 91, 0
11, 28935, Note_on_c, 7, 93, 80
11, 28949, Note_on_c, 7, 93, 0
11, 28950, Note_on_c, 7, 91, 85
11, 28964, Note_on_c, 7, 91, 0
11, 28965, Note_on_c, 7, 93, 81
11, 28979, Note_on_c, 7, 93, 0
11, 28980, Note_on_c, 7, 91, 85
11, 28994, Note_on_c, 7, 91, 0
11, 28995, Note_on_c, 7, 93, 74
11, 29009, Note_on_c, 7, 93, 0
11, 29010, Note_on_c, 7, 91, 83
11, 29024, Note_on_c, 7, 91, 0
11, 29025, Note_on_c, 7, 93, 77
11, 29039, Note_on_c, 7, 93, 0
11, 29040, Note_on_c, 7, 91, 82
11, 29054, Note_on_c, 7, 91, 0
11, 29055, Note_on_c, 7, 93, 82
11, 29069, Note_on_c, 7, 93, 0
11, 29070, Note_on_c, 7, 91, 85
11, 29084, Note_on_c, 7, 91, 0
11, 29085, Note_on_c, 7, 93, 79
11, 29099, Note_on_c, 7, 93, 0
11, 29100, Note_on_c, 7, 91, 83
11, 29114, Note_on_c, 7, 91, 0
11, 29115, Note_on_c, 7, 93, 75
11, 29129, Note_on_c, 7, 93, 0
11, 29130, Note_on_c, 7, 91, 78
11, 29144, Note_on_c, 7, 91, 0
11, 29145, Note_on_c, 7, 93, 76
11, 29159, Note_on_c, 7, 93, 0
11, 29160, Note_on_c, 7, 91, 82
11, 29174, Note_on_c, 7, 91, 0
11, 29175, Note_on_c, 7, 93, 75
11, 29189, Note_on_c, 7, 93, 0
11, 29190, Note_on_c, 7, 91, 85
11, 29204, Note_on_c, 7, 91, 0
11, 29205, Note_on_c, 7, 93, 76
11, 29219, Note_on_c, 7, 93, 0
11, 29220, Note_on_c, 7, 91, 79
11, 29234, Note_on_c, 7, 91, 0
11, 29235, Note_on_c, 7, 93, 78
11, 29249, Note_on_c, 7, 93, 0
11, 29250, Note_on_c, 7, 91, 86
11, 29264, Note_on_c, 7, 91, 0
11, 29265, Note_on_c, 7, 93, 79
11, 29279, Note_on_c, 7, 93, 0
11, 29280, Note_on_c, 7, 91, 82
11, 29294, Note_on_c, 7, 91, 0
11, 29295, Note_on_c, 7, 93, 86
11, 29309, Note_on_c, 7, 93, 0
11, 29310, Note_on_c, 7, 91, 88
11, 29324, Note_on_c, 7, 91, 0
11, 29325, Note_on_c, 7, 93, 83
11, 29339, Note_on_c, 7, 93, 0
11, 29340, Note_on_c, 7, 91, 93
11, 29354, Note_on_c, 7, 91, 0
11, 29355, Note_on_c, 7, 93, 85
11, 29369, Note_on_c, 7, 93, 0
11, 29370, Note_on_c, 7, 91, 89
11, 29384, Note_on_c, 7, 91, 0
11, 29385, Note_on_c, 7, 93, 85
11, 29399, Note_on_c, 7, 93, 0
11, 29400, Note_on_c, 7, 91, 88
11, 29414, Note_on_c, 7, 91, 0
11, 29415, Note_on_c, 7, 93, 80
11, 29429, Note_on_c, 7, 93, 0
11, 29430, Note_on_c, 7, 91, 85
11, 29444, Note_on_c, 7, 91, 0
11, 29445, Note_on_c, 7, 93, 81
11, 29459, Note_on_c, 7, 93, 0
11, 29460, Note_on_c, 7, 91, 85
11, 29474, Note_on_c, 7, 91, 0
11, 29475, Note_on_c, 7, 93, 74
11, 29489, Note_on_c, 7, 93, 0
11, 29490, Note_on_c, 7, 91, 83
11, 29504, Note_on_c, 7, 91, 0
11, 29505, Note_on_c, 7, 93, 77
11, 29519, Note_on_c, 7, 93, 0
11, 29520, Note_on_c, 7, 91, 82
11, 29534, Note_on_c, 7, 91, 0
11, 29535, Note_on_c, 7, 93, 82
11, 29549, Note_on_c, 7, 93, 0
11, 29550, Note_on_c, 7, 91, 85
11, 29564, Note_on_c, 7, 91, 0
11, 29565, Note_on_c, 7, 93, 79
11, 29579, Note_on_c, 7, 93, 0
11, 29580, Note_on_c, 7, 91, 83
11, 29594, Note_on_c, 7, 91, 0
11, 29595, Note_on_c, 7, 93, 75
11, 29609, Note_on_c, 7, 93, 0
11, 29610, Note_on_c, 7, 91, 78
11, 29624, Note_on_c, 7, 91, 0
11, 29625, Note_on_c, 7, 93, 76
11, 29639, Note_on_c, 7, 93, 0
11, 29640, Note_on_c, 7, 91, 82
11, 29654, Note_on_c, 7, 91, 0
11, 29655, Note_on_c, 7, 93, 75
11, 29669, Note_on_c, 7, 93, 0
11, 29670, Note_on_c, 7, 91, 85
11, 29684, Note_on_c, 7, 91, 0
11, 29685, Note_on_c, 7, 93, 76
11, 29699, Note_on_c, 7, 93, 0
11, 29700, Note_on_c, 7, 91, 79
11, 29714, Note_on_c, 7, 91, 0
11, 29715, Note_on_c, 7, 93, 78
11, 29729, Note_on_c, 7, 93, 0
11, 29730, Note_on_c, 7, 91, 86
11, 29744, Note_on_c, 7, 91, 0
11, 29745, Note_on_c, 7, 93, 79
11, 29759, Note_on_c, 7, 93, 0
11, 37560, Note_on_c, 7, 101, 94
11, 37593, Note_on_c, 7, 101, 0
11, 37620, Note_on_c, 7, 101, 92
11, 37660, Note_on_c, 7, 101, 0
11, 37680, Note_on_c, 7, 101, 104
11, 37767, Note_on_c, 7, 101, 0
11, 37800, Note_on_c, 7, 101, 97
11, 37831, Note_on_c, 7, 101, 0
11, 37860, Note_on_c, 7, 101, 96
11, 37893, Note_on_c, 7, 101, 0
11, 37920, Note_on_c, 7, 101, 101
11, 38009, Note_on_c, 7, 101, 0
11, 38040, Note_on_c, 7, 101, 96
11, 38069, Note_on_c, 7, 101, 0
11, 38100, Note_on_c, 7, 101, 97
11, 38129, Note_on_c, 7, 101, 0
11, 38160, Note_on_c, 7, 101, 105
11, 38235, Note_on_c, 7, 101, 0
11, 38280, Note_on_c, 7, 101, 97
11, 38312, Note_on_c, 7, 101, 0
11, 38340, Note_on_c, 7, 101, 87
11, 38373, Note_on_c, 7, 101, 0
11, 38400, Note_on_c, 7, 100, 96
11, 38440, Note_on_c, 7, 100, 0
11, 38460, Note_on_c, 7, 96, 79
11, 38505, Note_on_c, 7, 96, 0
11, 38520, Note_on_c, 7, 100, 100
11, 38560, Note_on_c, 7, 100, 0
11, 38580, Note_on_c, 7, 95, 90
11, 38619, Note_on_c, 7, 95, 0
11, 38640, Note_on_c, 7, 100, 96
11, 38686, Note_on_c, 7, 100, 0
11, 38700, Note_on_c, 7, 93, 94
11, 38738, Note_on_c, 7, 93, 0
11, 38760, Note_on_c, 7, 100, 84
11, 38804, Note_on_c, 7, 100, 0
11, 38820, Note_on_c, 7, 92, 77
11, 38864, Note_on_c, 7, 92, 0
11, 38880, Note_on_c, 7, 100, 102
11, 38909, Note_on_c, 7, 100, 0
11, 38910, Note_on_c, 7, 98, 92
11, 38939, Note_on_c, 7, 98, 0
11, 38940, Note_on_c, 7, 96, 81
11, 38969, Note_on_c, 7, 96, 0
11, 38970, Note_on_c, 7, 95, 82
11, 38999, Note_on_c, 7, 95, 0
11, 39000, Note_on_c, 7, 93, 96
11, 39029, Note_on_c, 7, 93, 0
11, 39030, Note_on_c, 7, 91, 84
11, 39059, Note_on_c, 7, 91, 0
11, 39060, Note_on_c, 7, 89, 76
11, 39089, Note_on_c, 7, 89, 0
11, 39090, Note_on_c, 7, 88, 91
11, 39119, Note_on_c, 7, 88, 0
11, 39120, Note_on_c, 7, 86, 97
11, 39149, Note_on_c, 7, 86, 0
11, 39150, Note_on_c, 7, 88, 83
11, 39179, Note_on_c, 7, 88, 0
11, 39180, Note_on_c, 7, 89, 83
11, 39209, Note_on_c, 7, 89, 0
11, 39210, Note_on_c, 7, 91, 83
11, 39239, Note_on_c, 7, 91, 0
11, 39240, Note_on_c, 7, 93, 93
11, 39269, Note_on_c, 7, 93, 0
11, 39270, Note_on_c, 7, 95, 88
11, 39299, Note_on_c, 7, 95, 0
11, 39300, Note_on_c, 7, 96, 85
11, 39329, Note_on_c, 7, 96, 0
11, 39330, Note_on_c, 7, 98, 91
11, 39359, Note_on_c, 7, 98, 0
11, 39360, Note_on_c, 7, 100, 96
11, 39397, Note_on_c, 7, 100, 0
11, 39420, Note_on_c, 7, 96, 91
11, 39458, Note_on_c, 7, 96, 0
11, 39480, Note_on_c, 7, 100, 97
11, 39519, Note_on_c, 7, 100, 0
11, 39540, Note_on_c, 7, 95, 101
11, 39577, Note_on_c, 7, 95, 0
11, 39600, Note_on_c, 7, 100, 98
11, 39641, Note_on_c, 7, 100, 0
11, 39660, Note_on_c, 7, 93, 100
11, 39696, Note_on_c, 7, 93, 0
11, 39720, Note_on_c, 7, 100, 87
11, 39763, Note_on_c, 7, 100, 0
11, 39780, Note_on_c, 7, 92, 82
11, 39819, Note_on_c, 7, 92, 0
11, 39840, Note_on_c, 7, 100, 88
11, 39869, Note_on_c, 7, 100, 0
11, 39870, Note_on_c, 7, 98, 78
11, 39899, Note_on_c, 7, 98, 0
11, 39900, Note_on_c, 7, 96, 79
11, 39929, Note_on_c, 7, 96, 0
11, 39930, Note_on_c, 7, 95, 74
11, 39959, Note_on_c, 7, 95, 0
11, 39960, Note_on_c, 7, 93, 83
11, 39989, Note_on_c, 7, 93, 0
11, 39990, Note_on_c, 7, 91, 80
11, 40019, Note_on_c, 7, 91, 0
11, 40020, Note_on_c, 7, 89, 77
11, 40049, Note_on_c, 7, 89, 0
11, 40050, Note_on_c, 7, 88, 82
11, 40079, Note_on_c, 7, 88, 0
11, 40080, Note_on_c, 7, 86, 80
11, 40109, Note_on_c, 7, 86, 0
11, 40110, Note_on_c, 7, 88, 76
11, 40139, Note_on_c, 7, 88, 0
11, 40140, Note_on_c, 7, 89, 83
11, 40169, Note_on_c, 7, 89, 0
11, 40170, Note_on_c, 7, 91, 79
11, 40199, Note_on_c, 7, 91, 0
11, 40200, Note_on_c, 7, 93, 87
11, 40229, Note_on_c, 7, 93, 0
11, 40230, Note_on_c, 7, 95, 82
11, 40259, Note_on_c, 7, 95, 0
11, 40260, Note_on_c, 7, 96, 82
11, 40289, Note_on_c, 7, 96, 0
11, 40290, Note_on_c, 7, 98, 90
11, 40319, Note_on_c, 7, 98, 0
11, 40320, Note_on_c, 7, 96, 114
11, 40370, Note_on_c, 7, 96, 0
11, 41401, Note_on_c, 7, 96, 78
11, 41405, Note_on_c, 7, 98, 100
11, 41416, Note_on_c, 7, 100, 92
11, 41430, Note_on_c, 7, 96, 0
11, 41442, Note_on_c, 7, 98, 0
11, 41457, Note_on_c, 7, 100, 0
11, 41623, Note_on_c, 7, 96, 80
11, 41629, Note_on_c, 7, 98, 100
11, 41648, Note_on_c, 7, 96, 0
11, 41650, Note_on_c, 7, 100, 94
11, 41664, Note_on_c, 7, 98, 0
11, 41688, Note_on_c, 7, 100, 0
11, 41861, Note_on_c, 7, 96, 83
11, 41867, Note_on_c, 7, 98, 107
11, 41885, Note_on_c, 7, 100, 86
11, 41887, Note_on_c, 7, 96, 0
11, 41887, Note_on_c, 7, 99, 78
11, 41902, Note_on_c, 7, 98, 0
11, 41902, Note_on_c, 7, 99, 0
11, 41921, Note_on_c, 7, 100, 0
11, 42103, Note_on_c, 7, 96, 85
11, 42110, Note_on_c, 7, 98, 93
11, 42128, Note_on_c, 7, 100, 88
11, 42132, Note_on_c, 7, 96, 0
11, 42147, Note_on_c, 7, 98, 0
11, 42163, Note_on_c, 7, 100, 0
11, 42300, Note_on_c, 7, 95, 82
11, 42337, Note_on_c, 7, 95, 0
11, 42360, Note_on_c, 7, 96, 90
11, 42399, Note_on_c, 7, 96, 0
11, 42420, Note_on_c, 7, 95, 82
11, 42456, Note_on_c, 7, 95, 0
11, 42480, Note_on_c, 7, 96, 104
11, 42518, Note_on_c, 7, 96, 0
11, 42540, Note_on_c, 7, 95, 76
11, 42573, Note_on_c, 7, 95, 0
11, 42600, Note_on_c, 7, 96, 92
11, 42630, Note_on_c, 7, 96, 0
11, 42660, Note_on_c, 7, 95, 78
11, 42692, Note_on_c, 7, 95, 0
11, 42720, Note_on_c, 7, 96, 101
11, 42753, Note_on_c, 7, 96, 0
11, 42780, Note_on_c, 7, 95, 93
11, 42815, Note_on_c, 7, 95, 0
11, 42840, Note_on_c, 7, 96, 101
11, 42873, Note_on_c, 7, 96, 0
11, 42900, Note_on_c, 7, 95, 94
11, 42932, Note_on_c, 7, 95, 0
11, 42960, Note_on_c, 7, 96, 101
11, 42993, Note_on_c, 7, 96, 0
11, 43020, Note_on_c, 7, 95, 96
11, 43050, Note_on_c, 7, 95, 0
11, 43080, Note_on_c, 7, 96, 90
11, 43116, Note_on_c, 7, 96, 0
11, 43140, Note_on_c, 7, 95, 92
11, 43190, Note_on_c, 7, 95, 0
11, 43200, Note_on_c, 7, 96, 109
11, 43255, Note_on_c, 7, 96, 0
11, 43440, Note_on_c, 7, 100, 111
11, 43505, Note_on_c, 7, 100, 0
11, 43680, Note_on_c, 7, 96, 101
11, 43753, Note_on_c, 7, 96, 0
11, 43753, End_track
12, 0, Start_track
12, 0, Title_t, "Clarinet La    "
12, 0, Channel_prefix, 5
12, 2400, Note_on_c, 7, 79, 82
12, 2414, Note_on_c, 7, 79, 0
12, 2415, Note_on_c, 7, 81, 84
12, 2429, Note_on_c, 7, 81, 0
12, 2430, Note_on_c, 7, 79, 89
12, 2444, Note_on_c, 7, 79, 0
12, 2445, Note_on_c, 7, 81, 80
12, 2459, Note_on_c, 7, 81, 0
12, 2460, Note_on_c, 7, 79, 89
12, 2474, Note_on_c, 7, 79, 0
12, 2475, Note_on_c, 7, 81, 79
12, 2489, Note_on_c, 7, 81, 0
12, 2490, Note_on_c, 7, 79, 85
12, 2504, Note_on_c, 7, 79, 0
12, 2505, Note_on_c, 7, 81, 78
12, 2519, Note_on_c, 7, 81, 0
12, 2520, Note_on_c, 7, 79, 78
12, 2534, Note_on_c, 7, 79, 0
12, 2535, Note_on_c, 7, 81, 78
12, 2549, Note_on_c, 7, 81, 0
12, 2550, Note_on_c, 7, 79, 82
12, 2564, Note_on_c, 7, 79, 0
12, 2565, Note_on_c, 7, 81, 82
12, 2579, Note_on_c, 7, 81, 0
12, 2580, Note_on_c, 7, 79, 86
12, 2594, Note_on_c, 7, 79, 0
12, 2595, Note_on_c, 7, 81, 78
12, 2609, Note_on_c, 7, 81, 0
12, 2610, Note_on_c, 7, 79, 79
12, 2624, Note_on_c, 7, 79, 0
12, 2625, Note_on_c, 7, 81, 82
12, 2639, Note_on_c, 7, 81, 0
12, 2640, Note_on_c, 7, 79, 82
12, 2654, Note_on_c, 7, 79, 0
12, 2655, Note_on_c, 7, 81, 82
12, 2669, Note_on_c, 7, 81, 0
12, 2670, Note_on_c, 7, 79, 81
12, 2684, Note_on_c, 7, 79, 0
12, 2685, Note_on_c, 7, 81, 76
12, 2699, Note_on_c, 7, 81, 0
12, 2700, Note_on_c, 7, 79, 80
12, 2714, Note_on_c, 7, 79, 0
12, 2715, Note_on_c, 7, 81, 77
12, 2729, Note_on_c, 7, 81, 0
12, 2730, Note_on_c, 7, 79, 77
12, 2744, Note_on_c, 7, 79, 0
12, 2745, Note_on_c, 7, 81, 75
12, 2759, Note_on_c, 7, 81, 0
12, 2760, Note_on_c, 7, 79, 77
12, 2774, Note_on_c, 7, 79, 0
12, 2775, Note_on_c, 7, 81, 77
12, 2789, Note_on_c, 7, 81, 0
12, 2790, Note_on_c, 7, 79, 78
12, 2804, Note_on_c, 7, 79, 0
12, 2805, Note_on_c, 7, 81, 80
12, 2819, Note_on_c, 7, 81, 0
12, 2820, Note_on_c, 7, 79, 83
12, 2834, Note_on_c, 7, 79, 0
12, 2835, Note_on_c, 7, 81, 76
12, 2849, Note_on_c, 7, 81, 0
12, 2850, Note_on_c, 7, 79, 82
12, 2864, Note_on_c, 7, 79, 0
12, 2865, Note_on_c, 7, 81, 76
12, 2879, Note_on_c, 7, 81, 0
12, 2880, Note_on_c, 7, 79, 84
12, 2894, Note_on_c, 7, 79, 0
12, 2895, Note_on_c, 7, 81, 79
12, 2909, Note_on_c, 7, 81, 0
12, 2910, Note_on_c, 7, 79, 87
12, 2924, Note_on_c, 7, 79, 0
12, 2925, Note_on_c, 7, 81, 82
12, 2939, Note_on_c, 7, 81, 0
12, 2940, Note_on_c, 7, 79, 85
12, 2954, Note_on_c, 7, 79, 0
12, 2955, Note_on_c, 7, 81, 82
12, 2969, Note_on_c, 7, 81, 0
12, 2970, Note_on_c, 7, 79, 88
12, 2984, Note_on_c, 7, 79, 0
12, 2985, Note_on_c, 7, 81, 81
12, 2999, Note_on_c, 7, 81, 0
12, 3000, Note_on_c, 7, 79, 87
12, 3014, Note_on_c, 7, 79, 0
12, 3015, Note_on_c, 7, 81, 82
12, 3029, Note_on_c, 7, 81, 0
12, 3030, Note_on_c, 7, 79, 76
12, 3044, Note_on_c, 7, 79, 0
12, 3045, Note_on_c, 7, 81, 78
12, 3059, Note_on_c, 7, 81, 0
12, 3060, Note_on_c, 7, 79, 82
12, 3074, Note_on_c, 7, 79, 0
12, 3075, Note_on_c, 7, 81, 85
12, 3089, Note_on_c, 7, 81, 0
12, 3090, Note_on_c, 7, 79, 82
12, 3104, Note_on_c, 7, 79, 0
12, 3105, Note_on_c, 7, 81, 83
12, 3119, Note_on_c, 7, 81, 0
12, 3120, Note_on_c, 7, 79, 82
12, 3134, Note_on_c, 7, 79, 0
12, 3135, Note_on_c, 7, 81, 83
12, 3149, Note_on_c, 7, 81, 0
12, 3150, Note_on_c, 7, 79, 80
12, 3164, Note_on_c, 7, 79, 0
12, 3165, Note_on_c, 7, 81, 77
12, 3179, Note_on_c, 7, 81, 0
12, 3180, Note_on_c, 7, 79, 82
12, 3194, Note_on_c, 7, 79, 0
12, 3195, Note_on_c, 7, 81, 82
12, 3209, Note_on_c, 7, 81, 0
12, 3210, Note_on_c, 7, 79, 84
12, 3224, Note_on_c, 7, 79, 0
12, 3225, Note_on_c, 7, 81, 79
12, 3239, Note_on_c, 7, 81, 0
12, 3240, Note_on_c, 7, 79, 86
12, 3254, Note_on_c, 7, 79, 0
12, 3255, Note_on_c, 7, 81, 82
12, 3269, Note_on_c, 7, 81, 0
12, 3270, Note_on_c, 7, 79, 84
12, 3284, Note_on_c, 7, 79, 0
12, 3285, Note_on_c, 7, 81, 79
12, 3299, Note_on_c, 7, 81, 0
12, 3300, Note_on_c, 7, 79, 84
12, 3314, Note_on_c, 7, 79, 0
12, 3315, Note_on_c, 7, 81, 76
12, 3329, Note_on_c, 7, 81, 0
12, 3330, Note_on_c, 7, 79, 83
12, 3344, Note_on_c, 7, 79, 0
12, 3345, Note_on_c, 7, 81, 74
12, 3359, Note_on_c, 7, 81, 0
12, 3360, Note_on_c, 7, 79, 86
12, 3374, Note_on_c, 7, 79, 0
12, 3375, Note_on_c, 7, 81, 72
12, 3389, Note_on_c, 7, 81, 0
12, 3390, Note_on_c, 7, 79, 87
12, 3404, Note_on_c, 7, 79, 0
12, 3405, Note_on_c, 7, 81, 81
12, 3419, Note_on_c, 7, 81, 0
12, 3420, Note_on_c, 7, 79, 86
12, 3434, Note_on_c, 7, 79, 0
12, 3435, Note_on_c, 7, 81, 80
12, 3449, Note_on_c, 7, 81, 0
12, 3450, Note_on_c, 7, 79, 82
12, 3464, Note_on_c, 7, 79, 0
12, 3465, Note_on_c, 7, 81, 82
12, 3479, Note_on_c, 7, 81, 0
12, 3480, Note_on_c, 7, 79, 85
12, 3494, Note_on_c, 7, 79, 0
12, 3495, Note_on_c, 7, 81, 83
12, 3509, Note_on_c, 7, 81, 0
12, 3510, Note_on_c, 7, 79, 87
12, 3524, Note_on_c, 7, 79, 0
12, 3525, Note_on_c, 7, 81, 78
12, 3539, Note_on_c, 7, 81, 0
12, 3540, Note_on_c, 7, 79, 82
12, 3554, Note_on_c, 7, 79, 0
12, 3555, Note_on_c, 7, 81, 78
12, 3569, Note_on_c, 7, 81, 0
12, 3570, Note_on_c, 7, 79, 84
12, 3584, Note_on_c, 7, 79, 0
12, 3585, Note_on_c, 7, 81, 78
12, 3599, Note_on_c, 7, 81, 0
12, 3600, Note_on_c, 7, 79, 82
12, 3614, Note_on_c, 7, 79, 0
12, 3615, Note_on_c, 7, 81, 76
12, 3629, Note_on_c, 7, 81, 0
12, 3630, Note_on_c, 7, 79, 87
12, 3644, Note_on_c, 7, 79, 0
12, 3645, Note_on_c, 7, 81, 73
12, 3659, Note_on_c, 7, 81, 0
12, 3660, Note_on_c, 7, 79, 86
12, 3674, Note_on_c, 7, 79, 0
12, 3675, Note_on_c, 7, 81, 82
12, 3689, Note_on_c, 7, 81, 0
12, 3690, Note_on_c, 7, 79, 80
12, 3704, Note_on_c, 7, 79, 0
12, 3705, Note_on_c, 7, 81, 76
12, 3719, Note_on_c, 7, 81, 0
12, 3720, Note_on_c, 7, 79, 84
12, 3734, Note_on_c, 7, 79, 0
12, 3735, Note_on_c, 7, 81, 79
12, 3749, Note_on_c, 7, 81, 0
12, 3750, Note_on_c, 7, 79, 80
12, 3764, Note_on_c, 7, 79, 0
12, 3765, Note_on_c, 7, 81, 77
12, 3779, Note_on_c, 7, 81, 0
12, 3780, Note_on_c, 7, 79, 78
12, 3794, Note_on_c, 7, 79, 0
12, 3795, Note_on_c, 7, 81, 78
12, 3809, Note_on_c, 7, 81, 0
12, 3810, Note_on_c, 7, 79, 90
12, 3824, Note_on_c, 7, 79, 0
12, 3825, Note_on_c, 7, 81, 84
12, 3839, Note_on_c, 7, 81, 0
12, 3840, Note_on_c, 7, 79, 78
12, 3854, Note_on_c, 7, 79, 0
12, 3855, Note_on_c, 7, 81, 71
12, 3869, Note_on_c, 7, 81, 0
12, 3870, Note_on_c, 7, 79, 86
12, 3884, Note_on_c, 7, 79, 0
12, 3885, Note_on_c, 7, 81, 82
12, 3899, Note_on_c, 7, 81, 0
12, 3900, Note_on_c, 7, 79, 91
12, 3914, Note_on_c, 7, 79, 0
12, 3915, Note_on_c, 7, 81, 78
12, 3929, Note_on_c, 7, 81, 0
12, 3930, Note_on_c, 7, 79, 89
12, 3944, Note_on_c, 7, 79, 0
12, 3945, Note_on_c, 7, 81, 82
12, 3959, Note_on_c, 7, 81, 0
12, 3960, Note_on_c, 7, 79, 83
12, 3974, Note_on_c, 7, 79, 0
12, 3975, Note_on_c, 7, 81, 90
12, 3989, Note_on_c, 7, 81, 0
12, 3990, Note_on_c, 7, 79, 92
12, 4004, Note_on_c, 7, 79, 0
12, 4005, Note_on_c, 7, 81, 87
12, 4019, Note_on_c, 7, 81, 0
12, 4020, Note_on_c, 7, 79, 86
12, 4034, Note_on_c, 7, 79, 0
12, 4035, Note_on_c, 7, 81, 78
12, 4049, Note_on_c, 7, 81, 0
12, 4050, Note_on_c, 7, 79, 82
12, 4064, Note_on_c, 7, 79, 0
12, 4065, Note_on_c, 7, 81, 82
12, 4079, Note_on_c, 7, 81, 0
12, 4080, Note_on_c, 7, 79, 84
12, 4094, Note_on_c, 7, 79, 0
12, 4095, Note_on_c, 7, 81, 85
12, 4109, Note_on_c, 7, 81, 0
12, 4110, Note_on_c, 7, 79, 93
12, 4124, Note_on_c, 7, 79, 0
12, 4125, Note_on_c, 7, 81, 89
12, 4139, Note_on_c, 7, 81, 0
12, 4140, Note_on_c, 7, 79, 85
12, 4154, Note_on_c, 7, 79, 0
12, 4155, Note_on_c, 7, 81, 87
12, 4169, Note_on_c, 7, 81, 0
12, 4170, Note_on_c, 7, 79, 93
12, 4184, Note_on_c, 7, 79, 0
12, 4185, Note_on_c, 7, 81, 80
12, 4199, Note_on_c, 7, 81, 0
12, 4200, Note_on_c, 7, 79, 90
12, 4214, Note_on_c, 7, 79, 0
12, 4215, Note_on_c, 7, 81, 82
12, 4229, Note_on_c, 7, 81, 0
12, 4230, Note_on_c, 7, 79, 88
12, 4244, Note_on_c, 7, 79, 0
12, 4245, Note_on_c, 7, 81, 88
12, 4259, Note_on_c, 7, 81, 0
12, 4260, Note_on_c, 7, 79, 88
12, 4274, Note_on_c, 7, 79, 0
12, 4275, Note_on_c, 7, 81, 87
12, 4289, Note_on_c, 7, 81, 0
12, 4290, Note_on_c, 7, 79, 90
12, 4304, Note_on_c, 7, 79, 0
12, 4305, Note_on_c, 7, 81, 94
12, 4319, Note_on_c, 7, 81, 0
12, 4320, Note_on_c, 7, 79, 109
12, 4379, Note_on_c, 7, 79, 0
12, 5283, Note_on_c, 7, 76, 96
12, 5312, Note_on_c, 7, 76, 0
12, 5393, Note_on_c, 7, 76, 97
12, 5449, Note_on_c, 7, 76, 0
12, 5520, Note_on_c, 7, 76, 93
12, 5580, Note_on_c, 7, 76, 0
12, 5640, Note_on_c, 7, 76, 92
12, 5696, Note_on_c, 7, 76, 0
12, 5760, Note_on_c, 7, 76, 81
12, 5761, Note_on_c, 7, 76, 83
12, 5772, Note_on_c, 7, 77, 79
12, 5776, Note_on_c, 7, 76, 0
12, 5790, Note_on_c, 7, 77, 0
12, 5790, Note_on_c, 7, 76, 84
12, 5795, Note_on_c, 7, 76, 0
12, 5804, Note_on_c, 7, 77, 73
12, 5807, Note_on_c, 7, 76, 0
12, 5813, Note_on_c, 7, 77, 0
12, 5816, Note_on_c, 7, 76, 71
12, 5827, Note_on_c, 7, 77, 76
12, 5831, Note_on_c, 7, 76, 0
12, 5845, Note_on_c, 7, 76, 93
12, 5855, Note_on_c, 7, 77, 0
12, 5869, Note_on_c, 7, 76, 0
12, 5880, Note_on_c, 7, 75, 75
12, 5932, Note_on_c, 7, 75, 0
12, 5940, Note_on_c, 7, 76, 68
12, 5989, Note_on_c, 7, 76, 0
12, 6000, Note_on_c, 7, 81, 84
12, 6060, Note_on_c, 7, 79, 78
12, 6063, Note_on_c, 7, 81, 0
12, 6117, Note_on_c, 7, 79, 0
12, 6120, Note_on_c, 7, 77, 77
12, 6171, Note_on_c, 7, 77, 0
12, 6180, Note_on_c, 7, 76, 82
12, 6236, Note_on_c, 7, 76, 0
12, 6240, Note_on_c, 7, 74, 84
12, 6304, Note_on_c, 7, 74, 0
12, 6360, Note_on_c, 7, 74, 83
12, 6415, Note_on_c, 7, 74, 0
12, 6480, Note_on_c, 7, 74, 91
12, 6539, Note_on_c, 7, 74, 0
12, 6600, Note_on_c, 7, 74, 89
12, 6661, Note_on_c, 7, 74, 0
12, 6718, Note_on_c, 7, 74, 85
12, 6720, Note_on_c, 7, 74, 89
12, 6730, Note_on_c, 7, 76, 75
12, 6733, Note_on_c, 7, 74, 0
12, 6747, Note_on_c, 7, 76, 0
12, 6749, Note_on_c, 7, 74, 82
12, 6767, Note_on_c, 7, 76, 72
12, 6768, Note_on_c, 7, 74, 0
12, 6777, Note_on_c, 7, 76, 0
12, 6781, Note_on_c, 7, 74, 78
12, 6793, Note_on_c, 7, 74, 0
12, 6793, Note_on_c, 7, 76, 74
12, 6807, Note_on_c, 7, 74, 82
12, 6813, Note_on_c, 7, 76, 0
12, 6826, Note_on_c, 7, 74, 0
12, 6827, Note_on_c, 7, 74, 0
12, 6840, Note_on_c, 7, 73, 71
12, 6891, Note_on_c, 7, 73, 0
12, 6900, Note_on_c, 7, 74, 82
12, 6939, Note_on_c, 7, 74, 0
12, 6960, Note_on_c, 7, 79, 88
12, 7017, Note_on_c, 7, 79, 0
12, 7020, Note_on_c, 7, 77, 79
12, 7080, Note_on_c, 7, 76, 83
12, 7081, Note_on_c, 7, 77, 0
12, 7140, Note_on_c, 7, 74, 85
12, 7142, Note_on_c, 7, 76, 0
12, 7197, Note_on_c, 7, 74, 0
12, 7200, Note_on_c, 7, 72, 80
12, 7251, Note_on_c, 7, 72, 0
12, 7320, Note_on_c, 7, 72, 87
12, 7379, Note_on_c, 7, 72, 0
12, 7440, Note_on_c, 7, 72, 84
12, 7501, Note_on_c, 7, 72, 0
12, 7560, Note_on_c, 7, 72, 84
12, 7625, Note_on_c, 7, 72, 0
12, 7679, Note_on_c, 7, 72, 97
12, 7680, Note_on_c, 7, 72, 86
12, 7700, Note_on_c, 7, 72, 0
12, 7700, Note_on_c, 7, 74, 85
12, 7716, Note_on_c, 7, 72, 78
12, 7719, Note_on_c, 7, 74, 0
12, 7730, Note_on_c, 7, 74, 74
12, 7732, Note_on_c, 7, 72, 0
12, 7746, Note_on_c, 7, 74, 0
12, 7749, Note_on_c, 7, 72, 78
12, 7760, Note_on_c, 7, 74, 86
12, 7762, Note_on_c, 7, 72, 0
12, 7775, Note_on_c, 7, 72, 72
12, 7777, Note_on_c, 7, 74, 0
12, 7788, Note_on_c, 7, 72, 0
12, 7788, Note_on_c, 7, 72, 0
12, 7800, Note_on_c, 7, 71, 80
12, 7851, Note_on_c, 7, 71, 0
12, 7860, Note_on_c, 7, 72, 79
12, 7886, Note_on_c, 7, 72, 0
12, 7920, Note_on_c, 7, 77, 84
12, 7980, Note_on_c, 7, 76, 81
12, 7982, Note_on_c, 7, 77, 0
12, 8040, Note_on_c, 7, 76, 0
12, 8040, Note_on_c, 7, 74, 85
12, 8093, Note_on_c, 7, 74, 0
12, 8100, Note_on_c, 7, 72, 82
12, 8148, Note_on_c, 7, 72, 0
12, 8160, Note_on_c, 7, 72, 72
12, 8210, Note_on_c, 7, 72, 0
12, 8220, Note_on_c, 7, 71, 77
12, 8268, Note_on_c, 7, 71, 0
12, 8280, Note_on_c, 7, 74, 86
12, 8318, Note_on_c, 7, 74, 0
12, 8340, Note_on_c, 7, 71, 82
12, 8378, Note_on_c, 7, 71, 0
12, 8400, Note_on_c, 7, 71, 86
12, 8452, Note_on_c, 7, 71, 0
12, 8460, Note_on_c, 7, 69, 82
12, 8502, Note_on_c, 7, 69, 0
12, 8520, Note_on_c, 7, 74, 91
12, 8555, Note_on_c, 7, 74, 0
12, 8580, Note_on_c, 7, 69, 86
12, 8617, Note_on_c, 7, 69, 0
12, 8640, Note_on_c, 7, 69, 88
12, 8679, Note_on_c, 7, 69, 0
12, 8700, Note_on_c, 7, 67, 82
12, 8742, Note_on_c, 7, 67, 0
12, 8760, Note_on_c, 7, 66, 78
12, 8805, Note_on_c, 7, 66, 0
12, 8820, Note_on_c, 7, 67, 83
12, 8856, Note_on_c, 7, 67, 0
12, 8880, Note_on_c, 7, 69, 89
12, 8921, Note_on_c, 7, 69, 0
12, 8940, Note_on_c, 7, 71, 81
12, 8982, Note_on_c, 7, 71, 0
12, 9000, Note_on_c, 7, 72, 84
12, 9048, Note_on_c, 7, 72, 0
12, 9060, Note_on_c, 7, 74, 89
12, 9095, Note_on_c, 7, 74, 0
12, 9120, Note_on_c, 7, 76, 96
12, 9169, Note_on_c, 7, 76, 0
12, 9240, Note_on_c, 7, 76, 102
12, 9290, Note_on_c, 7, 76, 0
12, 9360, Note_on_c, 7, 76, 101
12, 9417, Note_on_c, 7, 76, 0
12, 9480, Note_on_c, 7, 76, 98
12, 9536, Note_on_c, 7, 76, 0
12, 9599, Note_on_c, 7, 76, 76
12, 9600, Note_on_c, 7, 76, 101
12, 9614, Note_on_c, 7, 77, 79
12, 9616, Note_on_c, 7, 76, 0
12, 9630, Note_on_c, 7, 77, 0
12, 9632, Note_on_c, 7, 76, 77
12, 9646, Note_on_c, 7, 76, 0
12, 9646, Note_on_c, 7, 77, 74
12, 9650, Note_on_c, 7, 76, 0
12, 9659, Note_on_c, 7, 77, 0
12, 9664, Note_on_c, 7, 76, 72
12, 9674, Note_on_c, 7, 77, 82
12, 9677, Note_on_c, 7, 76, 0
12, 9691, Note_on_c, 7, 76, 88
12, 9696, Note_on_c, 7, 77, 0
12, 9715, Note_on_c, 7, 76, 0
12, 9720, Note_on_c, 7, 75, 91
12, 9768, Note_on_c, 7, 75, 0
12, 9780, Note_on_c, 7, 76, 89
12, 9835, Note_on_c, 7, 76, 0
12, 9840, Note_on_c, 7, 81, 83
12, 9875, Note_on_c, 7, 81, 0
12, 9900, Note_on_c, 7, 79, 84
12, 9944, Note_on_c, 7, 79, 0
12, 9960, Note_on_c, 7, 77, 89
12, 10012, Note_on_c, 7, 77, 0
12, 10020, Note_on_c, 7, 76, 91
12, 10055, Note_on_c, 7, 76, 0
12, 10080, Note_on_c, 7, 74, 90
12, 10143, Note_on_c, 7, 74, 0
12, 10200, Note_on_c, 7, 74, 96
12, 10265, Note_on_c, 7, 74, 0
12, 10320, Note_on_c, 7, 74, 94
12, 10384, Note_on_c, 7, 74, 0
12, 10440, Note_on_c, 7, 74, 100
12, 10507, Note_on_c, 7, 74, 0
12, 10560, Note_on_c, 7, 74, 96
12, 10561, Note_on_c, 7, 74, 93
12, 10577, Note_on_c, 7, 76, 79
12, 10579, Note_on_c, 7, 74, 0
12, 10593, Note_on_c, 7, 76, 0
12, 10595, Note_on_c, 7, 74, 88
12, 10601, Note_on_c, 7, 74, 0
12, 10611, Note_on_c, 7, 76, 76
12, 10612, Note_on_c, 7, 74, 0
12, 10625, Note_on_c, 7, 76, 0
12, 10625, Note_on_c, 7, 74, 82
12, 10638, Note_on_c, 7, 76, 74
12, 10653, Note_on_c, 7, 76, 0
12, 10669, Note_on_c, 7, 74, 0
12, 10680, Note_on_c, 7, 73, 85
12, 10729, Note_on_c, 7, 73, 0
12, 10740, Note_on_c, 7, 74, 88
12, 10783, Note_on_c, 7, 74, 0
12, 10800, Note_on_c, 7, 79, 82
12, 10853, Note_on_c, 7, 79, 0
12, 10860, Note_on_c, 7, 77, 81
12, 10906, Note_on_c, 7, 77, 0
12, 10920, Note_on_c, 7, 76, 86
12, 10959, Note_on_c, 7, 76, 0
12, 10980, Note_on_c, 7, 74, 84
12, 11030, Note_on_c, 7, 74, 0
12, 11040, Note_on_c, 7, 72, 82
12, 11098, Note_on_c, 7, 72, 0
12, 11160, Note_on_c, 7, 72, 88
12, 11223, Note_on_c, 7, 72, 0
12, 11280, Note_on_c, 7, 72, 86
12, 11349, Note_on_c, 7, 72, 0
12, 11400, Note_on_c, 7, 72, 92
12, 11472, Note_on_c, 7, 72, 0
12, 11520, Note_on_c, 7, 72, 93
12, 11531, Note_on_c, 7, 72, 97
12, 11547, Note_on_c, 7, 74, 79
12, 11548, Note_on_c, 7, 72, 0
12, 11564, Note_on_c, 7, 72, 82
12, 11565, Note_on_c, 7, 74, 0
12, 11574, Note_on_c, 7, 72, 0
12, 11581, Note_on_c, 7, 72, 0
12, 11581, Note_on_c, 7, 74, 80
12, 11595, Note_on_c, 7, 74, 0
12, 11595, Note_on_c, 7, 72, 79
12, 11610, Note_on_c, 7, 74, 80
12, 11616, Note_on_c, 7, 72, 0
12, 11623, Note_on_c, 7, 72, 69
12, 11630, Note_on_c, 7, 74, 0
12, 11640, Note_on_c, 7, 71, 86
12, 11648, Note_on_c, 7, 72, 0
12, 11683, Note_on_c, 7, 71, 0
12, 11700, Note_on_c, 7, 72, 88
12, 11738, Note_on_c, 7, 72, 0
12, 11760, Note_on_c, 7, 77, 84
12, 11820, Note_on_c, 7, 76, 84
12, 11829, Note_on_c, 7, 77, 0
12, 11869, Note_on_c, 7, 76, 0
12, 11880, Note_on_c, 7, 74, 90
12, 11929, Note_on_c, 7, 74, 0
12, 11940, Note_on_c, 7, 72, 85
12, 11987, Note_on_c, 7, 72, 0
12, 12000, Note_on_c, 7, 72, 87
12, 12049, Note_on_c, 7, 72, 0
12, 12060, Note_on_c, 7, 71, 77
12, 12096, Note_on_c, 7, 71, 0
12, 12120, Note_on_c, 7, 74, 91
12, 12161, Note_on_c, 7, 74, 0
12, 12180, Note_on_c, 7, 72, 86
12, 12213, Note_on_c, 7, 72, 0
12, 12240, Note_on_c, 7, 76, 91
12, 12277, Note_on_c, 7, 76, 0
12, 12300, Note_on_c, 7, 74, 92
12, 12340, Note_on_c, 7, 74, 0
12, 12360, Note_on_c, 7, 77, 86
12, 12406, Note_on_c, 7, 77, 0
12, 12420, Note_on_c, 7, 76, 90
12, 12456, Note_on_c, 7, 76, 0
12, 12480, Note_on_c, 7, 79, 86
12, 12514, Note_on_c, 7, 79, 0
12, 12540, Note_on_c, 7, 78, 73
12, 12569, Note_on_c, 7, 78, 0
12, 12600, Note_on_c, 7, 84, 80
12, 12628, Note_on_c, 7, 84, 0
12, 12660, Note_on_c, 7, 78, 70
12, 12700, Note_on_c, 7, 78, 0
12, 12720, Note_on_c, 7, 79, 82
12, 12774, Note_on_c, 7, 79, 0
12, 12780, Note_on_c, 7, 83, 82
12, 12810, Note_on_c, 7, 86, 75
12, 12814, Note_on_c, 7, 83, 0
12, 12839, Note_on_c, 7, 86, 0
12, 12840, Note_on_c, 7, 91, 94
12, 12890, Note_on_c, 7, 91, 0
12, 24960, Note_on_c, 7, 88, 93
12, 25000, Note_on_c, 7, 88, 0
12, 25080, Note_on_c, 7, 88, 98
12, 25121, Note_on_c, 7, 88, 0
12, 25200, Note_on_c, 7, 88, 97
12, 25240, Note_on_c, 7, 88, 0
12, 25320, Note_on_c, 7, 88, 88
12, 25373, Note_on_c, 7, 88, 0
12, 25440, Note_on_c, 7, 88, 92
12, 25449, Note_on_c, 7, 88, 96
12, 25465, Note_on_c, 7, 89, 71
12, 25468, Note_on_c, 7, 88, 0
12, 25482, Note_on_c, 7, 89, 0
12, 25485, Note_on_c, 7, 88, 86
12, 25504, Note_on_c, 7, 89, 72
12, 25506, Note_on_c, 7, 88, 0
12, 25521, Note_on_c, 7, 88, 86
12, 25524, Note_on_c, 7, 89, 0
12, 25542, Note_on_c, 7, 88, 0
12, 25549, Note_on_c, 7, 88, 0
12, 25560, Note_on_c, 7, 87, 76
12, 25619, Note_on_c, 7, 87, 0
12, 25620, Note_on_c, 7, 88, 76
12, 25666, Note_on_c, 7, 88, 0
12, 25680, Note_on_c, 7, 93, 83
12, 25728, Note_on_c, 7, 93, 0
12, 25740, Note_on_c, 7, 91, 78
12, 25795, Note_on_c, 7, 91, 0
12, 25800, Note_on_c, 7, 89, 78
12, 25856, Note_on_c, 7, 89, 0
12, 25860, Note_on_c, 7, 88, 78
12, 25902, Note_on_c, 7, 88, 0
12, 25920, Note_on_c, 7, 86, 84
12, 25967, Note_on_c, 7, 86, 0
12, 26040, Note_on_c, 7, 86, 90
12, 26103, Note_on_c, 7, 86, 0
12, 26160, Note_on_c, 7, 86, 86
12, 26213, Note_on_c, 7, 86, 0
12, 26280, Note_on_c, 7, 86, 88
12, 26328, Note_on_c, 7, 86, 0
12, 26400, Note_on_c, 7, 86, 90
12, 26401, Note_on_c, 7, 86, 102
12, 26418, Note_on_c, 7, 88, 82
12, 26423, Note_on_c, 7, 86, 0
12, 26440, Note_on_c, 7, 88, 0
12, 26440, Note_on_c, 7, 86, 84
12, 26458, Note_on_c, 7, 88, 76
12, 26463, Note_on_c, 7, 86, 0
12, 26479, Note_on_c, 7, 86, 0
12, 26479, Note_on_c, 7, 86, 91
12, 26481, Note_on_c, 7, 88, 0
12, 26494, Note_on_c, 7, 88, 68
12, 26501, Note_on_c, 7, 88, 0
12, 26509, Note_on_c, 7, 86, 0
12, 26520, Note_on_c, 7, 85, 70
12, 26566, Note_on_c, 7, 85, 0
12, 26580, Note_on_c, 7, 86, 82
12, 26629, Note_on_c, 7, 86, 0
12, 26640, Note_on_c, 7, 91, 82
12, 26690, Note_on_c, 7, 91, 0
12, 26700, Note_on_c, 7, 89, 69
12, 26757, Note_on_c, 7, 89, 0
12, 26760, Note_on_c, 7, 88, 80
12, 26809, Note_on_c, 7, 88, 0
12, 26820, Note_on_c, 7, 86, 68
12, 26880, Note_on_c, 7, 84, 80
12, 26892, Note_on_c, 7, 86, 0
12, 26924, Note_on_c, 7, 84, 0
12, 27000, Note_on_c, 7, 84, 82
12, 27044, Note_on_c, 7, 84, 0
12, 27120, Note_on_c, 7, 84, 83
12, 27162, Note_on_c, 7, 84, 0
12, 27240, Note_on_c, 7, 84, 82
12, 27284, Note_on_c, 7, 84, 0
12, 27360, Note_on_c, 7, 84, 87
12, 27362, Note_on_c, 7, 84, 96
12, 27375, Note_on_c, 7, 86, 82
12, 27382, Note_on_c, 7, 84, 0
12, 27399, Note_on_c, 7, 86, 0
12, 27401, Note_on_c, 7, 84, 92
12, 27418, Note_on_c, 7, 86, 81
12, 27422, Note_on_c, 7, 84, 0
12, 27435, Note_on_c, 7, 84, 83
12, 27438, Note_on_c, 7, 86, 0
12, 27443, Note_on_c, 7, 84, 0
12, 27471, Note_on_c, 7, 84, 0
12, 27480, Note_on_c, 7, 83, 76
12, 27520, Note_on_c, 7, 83, 0
12, 27540, Note_on_c, 7, 84, 76
12, 27578, Note_on_c, 7, 84, 0
12, 27600, Note_on_c, 7, 89, 82
12, 27655, Note_on_c, 7, 89, 0
12, 27660, Note_on_c, 7, 88, 76
12, 27691, Note_on_c, 7, 88, 0
12, 27720, Note_on_c, 7, 86, 79
12, 27756, Note_on_c, 7, 86, 0
12, 27780, Note_on_c, 7, 84, 80
12, 27817, Note_on_c, 7, 84, 0
12, 27840, Note_on_c, 7, 79, 82
12, 27854, Note_on_c, 7, 79, 0
12, 27855, Note_on_c, 7, 81, 86
12, 27869, Note_on_c, 7, 81, 0
12, 27870, Note_on_c, 7, 79, 88
12, 27884, Note_on_c, 7, 79, 0
12, 27885, Note_on_c, 7, 81, 83
12, 27899, Note_on_c, 7, 81, 0
12, 27900, Note_on_c, 7, 79, 93
12, 27914, Note_on_c, 7, 79, 0
12, 27915, Note_on_c, 7, 81, 85
12, 27929, Note_on_c, 7, 81, 0
12, 27930, Note_on_c, 7, 79, 89
12, 27944, Note_on_c, 7, 79, 0
12, 27945, Note_on_c, 7, 81, 85
12, 27959, Note_on_c, 7, 81, 0
12, 27960, Note_on_c, 7, 79, 88
12, 27974, Note_on_c, 7, 79, 0
12, 27975, Note_on_c, 7, 81, 80
12, 27989, Note_on_c, 7, 81, 0
12, 27990, Note_on_c, 7, 79, 85
12, 28004, Note_on_c, 7, 79, 0
12, 28005, Note_on_c, 7, 81, 81
12, 28019, Note_on_c, 7, 81, 0
12, 28020, Note_on_c, 7, 79, 85
12, 28034, Note_on_c, 7, 79, 0
12, 28035, Note_on_c, 7, 81, 74
12, 28049, Note_on_c, 7, 81, 0
12, 28050, Note_on_c, 7, 79, 83
12, 28064, Note_on_c, 7, 79, 0
12, 28065, Note_on_c, 7, 81, 77
12, 28079, Note_on_c, 7, 81, 0
12, 28080, Note_on_c, 7, 79, 82
12, 28094, Note_on_c, 7, 79, 0
12, 28095, Note_on_c, 7, 81, 82
12, 28109, Note_on_c, 7, 81, 0
12, 28110, Note_on_c, 7, 79, 85
12, 28124, Note_on_c, 7, 79, 0
12, 28125, Note_on_c, 7, 81, 79
12, 28139, Note_on_c, 7, 81, 0
12, 28140, Note_on_c, 7, 79, 83
12, 28154, Note_on_c, 7, 79, 0
12, 28155, Note_on_c, 7, 81, 75
12, 28169, Note_on_c, 7, 81, 0
12, 28170, Note_on_c, 7, 79, 78
12, 28184, Note_on_c, 7, 79, 0
12, 28185, Note_on_c, 7, 81, 76
12, 28199, Note_on_c, 7, 81, 0
12, 28200, Note_on_c, 7, 79, 82
12, 28214, Note_on_c, 7, 79, 0
12, 28215, Note_on_c, 7, 81, 75
12, 28229, Note_on_c, 7, 81, 0
12, 28230, Note_on_c, 7, 79, 85
12, 28244, Note_on_c, 7, 79, 0
12, 28245, Note_on_c, 7, 81, 76
12, 28259, Note_on_c, 7, 81, 0
12, 28260, Note_on_c, 7, 79, 79
12, 28274, Note_on_c, 7, 79, 0
12, 28275, Note_on_c, 7, 81, 78
12, 28289, Note_on_c, 7, 81, 0
12, 28290, Note_on_c, 7, 79, 86
12, 28304, Note_on_c, 7, 79, 0
12, 28305, Note_on_c, 7, 81, 79
12, 28319, Note_on_c, 7, 81, 0
12, 28320, Note_on_c, 7, 79, 82
12, 28334, Note_on_c, 7, 79, 0
12, 28335, Note_on_c, 7, 81, 86
12, 28349, Note_on_c, 7, 81, 0
12, 28350, Note_on_c, 7, 79, 88
12, 28364, Note_on_c, 7, 79, 0
12, 28365, Note_on_c, 7, 81, 83
12, 28379, Note_on_c, 7, 81, 0
12, 28380, Note_on_c, 7, 79, 93
12, 28394, Note_on_c, 7, 79, 0
12, 28395, Note_on_c, 7, 81, 85
12, 28409, Note_on_c, 7, 81, 0
12, 28410, Note_on_c, 7, 79, 89
12, 28424, Note_on_c, 7, 79, 0
12, 28425, Note_on_c, 7, 81, 85
12, 28439, Note_on_c, 7, 81, 0
12, 28440, Note_on_c, 7, 79, 88
12, 28454, Note_on_c, 7, 79, 0
12, 28455, Note_on_c, 7, 81, 80
12, 28469, Note_on_c, 7, 81, 0
12, 28470, Note_on_c, 7, 79, 85
12, 28484, Note_on_c, 7, 79, 0
12, 28485, Note_on_c, 7, 81, 81
12, 28499, Note_on_c, 7, 81, 0
12, 28500, Note_on_c, 7, 79, 85
12, 28514, Note_on_c, 7, 79, 0
12, 28515, Note_on_c, 7, 81, 74
12, 28529, Note_on_c, 7, 81, 0
12, 28530, Note_on_c, 7, 79, 83
12, 28544, Note_on_c, 7, 79, 0
12, 28545, Note_on_c, 7, 81, 77
12, 28559, Note_on_c, 7, 81, 0
12, 28560, Note_on_c, 7, 79, 82
12, 28574, Note_on_c, 7, 79, 0
12, 28575, Note_on_c, 7, 81, 82
12, 28589, Note_on_c, 7, 81, 0
12, 28590, Note_on_c, 7, 79, 85
12, 28604, Note_on_c, 7, 79, 0
12, 28605, Note_on_c, 7, 81, 79
12, 28619, Note_on_c, 7, 81, 0
12, 28620, Note_on_c, 7, 79, 83
12, 28634, Note_on_c, 7, 79, 0
12, 28635, Note_on_c, 7, 81, 75
12, 28649, Note_on_c, 7, 81, 0
12, 28650, Note_on_c, 7, 79, 78
12, 28664, Note_on_c, 7, 79, 0
12, 28665, Note_on_c, 7, 81, 76
12, 28679, Note_on_c, 7, 81, 0
12, 28680, Note_on_c, 7, 79, 82
12, 28694, Note_on_c, 7, 79, 0
12, 28695, Note_on_c, 7, 81, 75
12, 28709, Note_on_c, 7, 81, 0
12, 28710, Note_on_c, 7, 79, 85
12, 28724, Note_on_c, 7, 79, 0
12, 28725, Note_on_c, 7, 81, 76
12, 28739, Note_on_c, 7, 81, 0
12, 28740, Note_on_c, 7, 79, 79
12, 28754, Note_on_c, 7, 79, 0
12, 28755, Note_on_c, 7, 81, 78
12, 28769, Note_on_c, 7, 81, 0
12, 28770, Note_on_c, 7, 79, 86
12, 28784, Note_on_c, 7, 79, 0
12, 28785, Note_on_c, 7, 81, 79
12, 28799, Note_on_c, 7, 81, 0
12, 28800, Note_on_c, 7, 79, 82
12, 28814, Note_on_c, 7, 79, 0
12, 28815, Note_on_c, 7, 81, 86
12, 28829, Note_on_c, 7, 81, 0
12, 28830, Note_on_c, 7, 79, 88
12, 28844, Note_on_c, 7, 79, 0
12, 28845, Note_on_c, 7, 81, 83
12, 28859, Note_on_c, 7, 81, 0
12, 28860, Note_on_c, 7, 79, 93
12, 28874, Note_on_c, 7, 79, 0
12, 28875, Note_on_c, 7, 81, 85
12, 28889, Note_on_c, 7, 81, 0
12, 28890, Note_on_c, 7, 79, 89
12, 28904, Note_on_c, 7, 79, 0
12, 28905, Note_on_c, 7, 81, 85
12, 28919, Note_on_c, 7, 81, 0
12, 28920, Note_on_c, 7, 79, 88
12, 28934, Note_on_c, 7, 79, 0
12, 28935, Note_on_c, 7, 81, 80
12, 28949, Note_on_c, 7, 81, 0
12, 28950, Note_on_c, 7, 79, 85
12, 28964, Note_on_c, 7, 79, 0
12, 28965, Note_on_c, 7, 81, 81
12, 28979, Note_on_c, 7, 81, 0
12, 28980, Note_on_c, 7, 79, 85
12, 28994, Note_on_c, 7, 79, 0
12, 28995, Note_on_c, 7, 81, 74
12, 29009, Note_on_c, 7, 81, 0
12, 29010, Note_on_c, 7, 79, 83
12, 29024, Note_on_c, 7, 79, 0
12, 29025, Note_on_c, 7, 81, 77
12, 29039, Note_on_c, 7, 81, 0
12, 29040, Note_on_c, 7, 79, 82
12, 29054, Note_on_c, 7, 79, 0
12, 29055, Note_on_c, 7, 81, 82
12, 29069, Note_on_c, 7, 81, 0
12, 29070, Note_on_c, 7, 79, 85
12, 29084, Note_on_c, 7, 79, 0
12, 29085, Note_on_c, 7, 81, 79
12, 29099, Note_on_c, 7, 81, 0
12, 29100, Note_on_c, 7, 79, 83
12, 29114, Note_on_c, 7, 79, 0
12, 29115, Note_on_c, 7, 81, 75
12, 29129, Note_on_c, 7, 81, 0
12, 29130, Note_on_c, 7, 79, 78
12, 29144, Note_on_c, 7, 79, 0
12, 29145, Note_on_c, 7, 81, 76
12, 29159, Note_on_c, 7, 81, 0
12, 29160, Note_on_c, 7, 79, 82
12, 29174, Note_on_c, 7, 79, 0
12, 29175, Note_on_c, 7, 81, 75
12, 29189, Note_on_c, 7, 81, 0
12, 29190, Note_on_c, 7, 79, 85
12, 29204, Note_on_c, 7, 79, 0
12, 29205, Note_on_c, 7, 81, 76
12, 29219, Note_on_c, 7, 81, 0
12, 29220, Note_on_c, 7, 79, 79
12, 29234, Note_on_c, 7, 79, 0
12, 29235, Note_on_c, 7, 81, 78
12, 29249, Note_on_c, 7, 81, 0
12, 29250, Note_on_c, 7, 79, 86
12, 29264, Note_on_c, 7, 79, 0
12, 29265, Note_on_c, 7, 81, 79
12, 29279, Note_on_c, 7, 81, 0
12, 29280, Note_on_c, 7, 79, 82
12, 29294, Note_on_c, 7, 79, 0
12, 29295, Note_on_c, 7, 81, 86
12, 29309, Note_on_c, 7, 81, 0
12, 29310, Note_on_c, 7, 79, 88
12, 29324, Note_on_c, 7, 79, 0
12, 29325, Note_on_c, 7, 81, 83
12, 29339, Note_on_c, 7, 81, 0
12, 29340, Note_on_c, 7, 79, 93
12, 29354, Note_on_c, 7, 79, 0
12, 29355, Note_on_c, 7, 81, 85
12, 29369, Note_on_c, 7, 81, 0
12, 29370, Note_on_c, 7, 79, 89
12, 29384, Note_on_c, 7, 79, 0
12, 29385, Note_on_c, 7, 81, 85
12, 29399, Note_on_c, 7, 81, 0
12, 29400, Note_on_c, 7, 79, 88
12, 29414, Note_on_c, 7, 79, 0
12, 29415, Note_on_c, 7, 81, 80
12, 29429, Note_on_c, 7, 81, 0
12, 29430, Note_on_c, 7, 79, 85
12, 29444, Note_on_c, 7, 79, 0
12, 29445, Note_on_c, 7, 81, 81
12, 29459, Note_on_c, 7, 81, 0
12, 29460, Note_on_c, 7, 79, 85
12, 29474, Note_on_c, 7, 79, 0
12, 29475, Note_on_c, 7, 81, 74
12, 29489, Note_on_c, 7, 81, 0
12, 29490, Note_on_c, 7, 79, 83
12, 29504, Note_on_c, 7, 79, 0
12, 29505, Note_on_c, 7, 81, 77
12, 29519, Note_on_c, 7, 81, 0
12, 29520, Note_on_c, 7, 79, 82
12, 29534, Note_on_c, 7, 79, 0
12, 29535, Note_on_c, 7, 81, 82
12, 29549, Note_on_c, 7, 81, 0
12, 29550, Note_on_c, 7, 79, 85
12, 29564, Note_on_c, 7, 79, 0
12, 29565, Note_on_c, 7, 81, 79
12, 29579, Note_on_c, 7, 81, 0
12, 29580, Note_on_c, 7, 79, 83
12, 29594, Note_on_c, 7, 79, 0
12, 29595, Note_on_c, 7, 81, 75
12, 29609, Note_on_c, 7, 81, 0
12, 29610, Note_on_c, 7, 79, 78
12, 29624, Note_on_c, 7, 79, 0
12, 29625, Note_on_c, 7, 81, 76
12, 29639, Note_on_c, 7, 81, 0
12, 29640, Note_on_c, 7, 79, 82
12, 29654, Note_on_c, 7, 79, 0
12, 29655, Note_on_c, 7, 81, 75
12, 29669, Note_on_c, 7, 81, 0
12, 29670, Note_on_c, 7, 79, 85
12, 29684, Note_on_c, 7, 79, 0
12, 29685, Note_on_c, 7, 81, 76
12, 29699, Note_on_c, 7, 81, 0
12, 29700, Note_on_c, 7, 79, 79
12, 29714, Note_on_c, 7, 79, 0
12, 29715, Note_on_c, 7, 81, 78
12, 29729, Note_on_c, 7, 81, 0
12, 29730, Note_on_c, 7, 79, 86
12, 29744, Note_on_c, 7, 79, 0
12, 29745, Note_on_c, 7, 81, 79
12, 29759, Note_on_c, 7, 81, 0
12, 30120, Note_on_c, 5, 69, 87
12, 30150, Note_on_c, 5, 69, 0
12, 30180, Note_on_c, 5, 69, 79
12, 30207, Note_on_c, 5, 69, 0
12, 30240, Note_on_c, 5, 69, 93
12, 30265, Note_on_c, 5, 69, 0
12, 30300, Note_on_c, 5, 69, 72
12, 30325, Note_on_c, 5, 69, 0
12, 30360, Note_on_c, 5, 69, 91
12, 30385, Note_on_c, 5, 69, 0
12, 30420, Note_on_c, 5, 69, 82
12, 30446, Note_on_c, 5, 69, 0
12, 30480, Note_on_c, 5, 69, 86
12, 30480, Note_on_c, 5, 76, 89
12, 30505, Note_on_c, 5, 69, 0
12, 30519, Note_on_c, 5, 76, 0
12, 30600, Note_on_c, 5, 69, 90
12, 30628, Note_on_c, 5, 69, 0
12, 30660, Note_on_c, 5, 69, 70
12, 30686, Note_on_c, 5, 69, 0
12, 30720, Note_on_c, 5, 69, 93
12, 30748, Note_on_c, 5, 69, 0
12, 30780, Note_on_c, 5, 69, 77
12, 30812, Note_on_c, 5, 69, 0
12, 30840, Note_on_c, 5, 76, 96
12, 30891, Note_on_c, 5, 76, 0
12, 30960, Note_on_c, 5, 69, 97
12, 30992, Note_on_c, 5, 69, 0
12, 31020, Note_on_c, 5, 69, 94
12, 31056, Note_on_c, 5, 69, 0
12, 31080, Note_on_c, 5, 76, 98
12, 31128, Note_on_c, 5, 76, 0
12, 31200, Note_on_c, 5, 69, 100
12, 31226, Note_on_c, 5, 69, 0
12, 31260, Note_on_c, 5, 69, 88
12, 31298, Note_on_c, 5, 69, 0
12, 31320, Note_on_c, 5, 75, 99
12, 31378, Note_on_c, 5, 75, 0
12, 31440, Note_on_c, 5, 69, 97
12, 31471, Note_on_c, 5, 69, 0
12, 31500, Note_on_c, 5, 69, 89
12, 31541, Note_on_c, 5, 69, 0
12, 31560, Note_on_c, 5, 74, 105
12, 31607, Note_on_c, 5, 74, 0
12, 37440, Control_c, 5, 64, 127
12, 37470, Control_c, 5, 64, 0
12, 37500, Control_c, 5, 64, 127
12, 37530, Control_c, 5, 64, 0
12, 37560, Note_on_c, 5, 55, 75
12, 37589, Note_on_c, 5, 55, 0
12, 37590, Note_on_c, 5, 57, 79
12, 37619, Note_on_c, 5, 57, 0
12, 37620, Note_on_c, 5, 59, 88
12, 37649, Note_on_c, 5, 59, 0
12, 37650, Note_on_c, 5, 60, 78
12, 37679, Note_on_c, 5, 60, 0
12, 37680, Note_on_c, 5, 62, 89
12, 37709, Note_on_c, 5, 62, 0
12, 37710, Note_on_c, 5, 60, 82
12, 37739, Note_on_c, 5, 60, 0
12, 37740, Note_on_c, 5, 59, 83
12, 37769, Note_on_c, 5, 59, 0
12, 37770, Note_on_c, 5, 57, 89
12, 37799, Note_on_c, 5, 57, 0
12, 37800, Note_on_c, 5, 55, 82
12, 37829, Note_on_c, 5, 55, 0
12, 37830, Note_on_c, 5, 57, 88
12, 37859, Note_on_c, 5, 57, 0
12, 37860, Note_on_c, 5, 59, 93
12, 37889, Note_on_c, 5, 59, 0
12, 37890, Note_on_c, 5, 60, 76
12, 37919, Note_on_c, 5, 60, 0
12, 37920, Note_on_c, 5, 62, 87
12, 37949, Note_on_c, 5, 62, 0
12, 37950, Note_on_c, 5, 60, 74
12, 37979, Note_on_c, 5, 60, 0
12, 37980, Note_on_c, 5, 59, 87
12, 38009, Note_on_c, 5, 59, 0
12, 38010, Note_on_c, 5, 57, 79
12, 38039, Note_on_c, 5, 57, 0
12, 38040, Note_on_c, 5, 55, 89
12, 38069, Note_on_c, 5, 55, 0
12, 38070, Note_on_c, 5, 57, 87
12, 38099, Note_on_c, 5, 57, 0
12, 38100, Note_on_c, 5, 59, 82
12, 38129, Note_on_c, 5, 59, 0
12, 38130, Note_on_c, 5, 60, 73
12, 38159, Note_on_c, 5, 60, 0
12, 38160, Note_on_c, 5, 62, 82
12, 38189, Note_on_c, 5, 62, 0
12, 38190, Note_on_c, 5, 60, 78
12, 38219, Note_on_c, 5, 60, 0
12, 38220, Note_on_c, 5, 59, 83
12, 38249, Note_on_c, 5, 59, 0
12, 38250, Note_on_c, 5, 57, 81
12, 38279, Note_on_c, 5, 57, 0
12, 38280, Note_on_c, 5, 55, 84
12, 38339, Note_on_c, 5, 55, 0
12, 38400, Note_on_c, 5, 76, 91
12, 38433, Note_on_c, 5, 76, 0
12, 38460, Note_on_c, 5, 72, 83
12, 38505, Note_on_c, 5, 72, 0
12, 38520, Note_on_c, 5, 76, 92
12, 38569, Note_on_c, 5, 76, 0
12, 38580, Note_on_c, 5, 71, 86
12, 38624, Note_on_c, 5, 71, 0
12, 38640, Note_on_c, 5, 76, 89
12, 38687, Note_on_c, 5, 76, 0
12, 38700, Note_on_c, 5, 69, 91
12, 38745, Note_on_c, 5, 69, 0
12, 38760, Note_on_c, 5, 76, 90
12, 38796, Note_on_c, 5, 76, 0
12, 38820, Note_on_c, 5, 68, 96
12, 38820, Note_on_c, 5, 78, 64
12, 38825, Note_on_c, 5, 78, 0
12, 38867, Note_on_c, 5, 68, 0
12, 38880, Note_on_c, 5, 76, 92
12, 38909, Note_on_c, 5, 76, 0
12, 38910, Note_on_c, 5, 74, 87
12, 38939, Note_on_c, 5, 74, 0
12, 38940, Note_on_c, 5, 72, 84
12, 38969, Note_on_c, 5, 72, 0
12, 38970, Note_on_c, 5, 71, 82
12, 38999, Note_on_c, 5, 71, 0
12, 39000, Note_on_c, 5, 69, 93
12, 39029, Note_on_c, 5, 69, 0
12, 39030, Note_on_c, 5, 67, 82
12, 39059, Note_on_c, 5, 67, 0
12, 39060, Note_on_c, 5, 65, 82
12, 39089, Note_on_c, 5, 65, 0
12, 39090, Note_on_c, 5, 64, 87
12, 39119, Note_on_c, 5, 64, 0
12, 39120, Note_on_c, 5, 62, 86
12, 39149, Note_on_c, 5, 62, 0
12, 39150, Note_on_c, 5, 64, 81
12, 39179, Note_on_c, 5, 64, 0
12, 39180, Note_on_c, 5, 65, 89
12, 39209, Note_on_c, 5, 65, 0
12, 39210, Note_on_c, 5, 67, 87
12, 39239, Note_on_c, 5, 67, 0
12, 39240, Note_on_c, 5, 69, 91
12, 39269, Note_on_c, 5, 69, 0
12, 39270, Note_on_c, 5, 71, 82
12, 39299, Note_on_c, 5, 71, 0
12, 39300, Note_on_c, 5, 72, 82
12, 39329, Note_on_c, 5, 72, 0
12, 39330, Note_on_c, 5, 74, 84
12, 39359, Note_on_c, 5, 74, 0
12, 39360, Note_on_c, 5, 76, 94
12, 39406, Note_on_c, 5, 76, 0
12, 39420, Note_on_c, 5, 72, 84
12, 39458, Note_on_c, 5, 72, 0
12, 39480, Note_on_c, 5, 76, 87
12, 39518, Note_on_c, 5, 76, 0
12, 39540, Note_on_c, 5, 71, 80
12, 39585, Note_on_c, 5, 71, 0
12, 39600, Note_on_c, 5, 76, 88
12, 39645, Note_on_c, 5, 76, 0
12, 39660, Note_on_c, 5, 69, 91
12, 39694, Note_on_c, 5, 69, 0
12, 39720, Note_on_c, 5, 76, 84
12, 39758, Note_on_c, 5, 76, 0
12, 39780, Note_on_c, 5, 68, 89
12, 39821, Note_on_c, 5, 68, 0
12, 39840, Note_on_c, 5, 76, 92
12, 39869, Note_on_c, 5, 76, 0
12, 39870, Note_on_c, 5, 74, 83
12, 39899, Note_on_c, 5, 74, 0
12, 39900, Note_on_c, 5, 72, 84
12, 39929, Note_on_c, 5, 72, 0
12, 39930, Note_on_c, 5, 71, 81
12, 39959, Note_on_c, 5, 71, 0
12, 39960, Note_on_c, 5, 69, 93
12, 39989, Note_on_c, 5, 69, 0
12, 39990, Note_on_c, 5, 67, 85
12, 40019, Note_on_c, 5, 67, 0
12, 40020, Note_on_c, 5, 65, 81
12, 40049, Note_on_c, 5, 65, 0
12, 40050, Note_on_c, 5, 64, 91
12, 40079, Note_on_c, 5, 64, 0
12, 40080, Note_on_c, 5, 62, 83
12, 40109, Note_on_c, 5, 62, 0
12, 40110, Note_on_c, 5, 64, 86
12, 40139, Note_on_c, 5, 64, 0
12, 40140, Note_on_c, 5, 65, 87
12, 40169, Note_on_c, 5, 65, 0
12, 40170, Note_on_c, 5, 67, 81
12, 40199, Note_on_c, 5, 67, 0
12, 40200, Note_on_c, 5, 69, 88
12, 40229, Note_on_c, 5, 69, 0
12, 40230, Note_on_c, 5, 71, 82
12, 40259, Note_on_c, 5, 71, 0
12, 40260, Note_on_c, 5, 72, 87
12, 40289, Note_on_c, 5, 72, 0
12, 40290, Note_on_c, 5, 74, 93
12, 40319, Note_on_c, 5, 74, 0
12, 40440, Note_on_c, 5, 88, 112
12, 40497, Note_on_c, 5, 88, 0
12, 40560, Note_on_c, 5, 58, 98
12, 40800, Note_on_c, 5, 57, 90
12, 40809, Note_on_c, 5, 58, 0
12, 40864, Note_on_c, 5, 57, 0
12, 40920, Note_on_c, 5, 88, 109
12, 40975, Note_on_c, 5, 88, 0
12, 41040, Note_on_c, 5, 56, 92
12, 41280, Note_on_c, 5, 55, 93
12, 41293, Note_on_c, 5, 56, 0
12, 41343, Note_on_c, 5, 55, 0
12, 41400, Note_on_c, 5, 88, 107
12, 41450, Note_on_c, 5, 88, 0
12, 41520, Note_on_c, 5, 57, 96
12, 41580, Note_on_c, 5, 57, 0
12, 41640, Note_on_c, 5, 88, 111
12, 41699, Note_on_c, 5, 88, 0
12, 41760, Note_on_c, 5, 58, 89
12, 41822, Note_on_c, 5, 58, 0
12, 41880, Note_on_c, 5, 88, 118
12, 41939, Note_on_c, 5, 88, 0
12, 42000, Note_on_c, 5, 59, 104
12, 42047, Note_on_c, 5, 59, 0
12, 42120, Note_on_c, 5, 88, 114
12, 42182, Note_on_c, 5, 88, 0
12, 42240, Note_on_c, 5, 60, 98
12, 42300, Note_on_c, 5, 60, 0
12, 42540, Note_on_c, 5, 83, 107
12, 42578, Note_on_c, 5, 83, 0
12, 42600, Note_on_c, 5, 84, 101
12, 42643, Note_on_c, 5, 84, 0
12, 42660, Note_on_c, 5, 83, 112
12, 42700, Note_on_c, 5, 83, 0
12, 42720, Note_on_c, 5, 84, 109
12, 42757, Note_on_c, 5, 84, 0
12, 42780, Note_on_c, 5, 83, 104
12, 42812, Note_on_c, 5, 83, 0
12, 42840, Note_on_c, 5, 84, 102
12, 42876, Note_on_c, 5, 84, 0
12, 42900, Note_on_c, 5, 83, 104
12, 42935, Note_on_c, 5, 83, 0
12, 42960, Note_on_c, 5, 84, 101
12, 42998, Note_on_c, 5, 84, 0
12, 43020, Note_on_c, 5, 83, 100
12, 43058, Note_on_c, 5, 83, 0
12, 43080, Note_on_c, 5, 84, 94
12, 43120, Note_on_c, 5, 84, 0
12, 43140, Note_on_c, 5, 83, 92
12, 43180, Note_on_c, 5, 83, 0
12, 43200, Note_on_c, 5, 84, 105
12, 43264, Note_on_c, 5, 84, 0
12, 43440, Note_on_c, 5, 88, 116
12, 43533, Note_on_c, 5, 88, 0
12, 43680, Note_on_c, 5, 60, 104
12, 43793, Note_on_c, 5, 60, 0
12, 43793, End_track
13, 0, Start_track
13, 0, Title_t, "Xylophone      "
13, 0, Channel_prefix, 11
13, 2400, Note_on_c, 4, 67, 82
13, 2429, Note_on_c, 4, 67, 0
13, 2430, Note_on_c, 4, 69, 89
13, 2459, Note_on_c, 4, 69, 0
13, 2460, Note_on_c, 4, 67, 90
13, 2489, Note_on_c, 4, 67, 0
13, 2490, Note_on_c, 4, 69, 90
13, 2519, Note_on_c, 4, 69, 0
13, 2520, Note_on_c, 4, 67, 93
13, 2549, Note_on_c, 4, 67, 0
13, 2550, Note_on_c, 4, 69, 91
13, 2579, Note_on_c, 4, 69, 0
13, 2580, Note_on_c, 4, 67, 98
13, 2609, Note_on_c, 4, 67, 0
13, 2610, Note_on_c, 4, 69, 98
13, 2639, Note_on_c, 4, 69, 0
13, 2640, Note_on_c, 4, 67, 102
13, 2669, Note_on_c, 4, 67, 0
13, 2670, Note_on_c, 4, 69, 89
13, 2699, Note_on_c, 4, 69, 0
13, 2700, Note_on_c, 4, 67, 93
13, 2729, Note_on_c, 4, 67, 0
13, 2730, Note_on_c, 4, 69, 91
13, 2759, Note_on_c, 4, 69, 0
13, 2760, Note_on_c, 4, 67, 98
13, 2789, Note_on_c, 4, 67, 0
13, 2790, Note_on_c, 4, 69, 88
13, 2819, Note_on_c, 4, 69, 0
13, 2820, Note_on_c, 4, 67, 94
13, 2849, Note_on_c, 4, 67, 0
13, 2850, Note_on_c, 4, 69, 92
13, 2879, Note_on_c, 4, 69, 0
13, 2880, Note_on_c, 4, 67, 91
13, 2909, Note_on_c, 4, 67, 0
13, 2910, Note_on_c, 4, 69, 78
13, 2939, Note_on_c, 4, 69, 0
13, 2940, Note_on_c, 4, 67, 87
13, 2969, Note_on_c, 4, 67, 0
13, 2970, Note_on_c, 4, 69, 82
13, 2999, Note_on_c, 4, 69, 0
13, 3000, Note_on_c, 4, 67, 92
13, 3029, Note_on_c, 4, 67, 0
13, 3030, Note_on_c, 4, 69, 82
13, 3059, Note_on_c, 4, 69, 0
13, 3060, Note_on_c, 4, 67, 96
13, 3089, Note_on_c, 4, 67, 0
13, 3090, Note_on_c, 4, 69, 88
13, 3119, Note_on_c, 4, 69, 0
13, 3120, Note_on_c, 4, 67, 89
13, 3149, Note_on_c, 4, 67, 0
13, 3150, Note_on_c, 4, 69, 87
13, 3179, Note_on_c, 4, 69, 0
13, 3180, Note_on_c, 4, 67, 87
13, 3209, Note_on_c, 4, 67, 0
13, 3210, Note_on_c, 4, 69, 87
13, 3239, Note_on_c, 4, 69, 0
13, 3240, Note_on_c, 4, 67, 88
13, 3269, Note_on_c, 4, 67, 0
13, 3270, Note_on_c, 4, 69, 83
13, 3299, Note_on_c, 4, 69, 0
13, 3300, Note_on_c, 4, 67, 86
13, 3329, Note_on_c, 4, 67, 0
13, 3330, Note_on_c, 4, 69, 84
13, 3359, Note_on_c, 4, 69, 0
13, 3360, Note_on_c, 4, 67, 94
13, 3389, Note_on_c, 4, 67, 0
13, 3390, Note_on_c, 4, 69, 80
13, 3419, Note_on_c, 4, 69, 0
13, 3420, Note_on_c, 4, 67, 97
13, 3449, Note_on_c, 4, 67, 0
13, 3450, Note_on_c, 4, 69, 82
13, 3479, Note_on_c, 4, 69, 0
13, 3480, Note_on_c, 4, 67, 94
13, 3509, Note_on_c, 4, 67, 0
13, 3510, Note_on_c, 4, 69, 83
13, 3539, Note_on_c, 4, 69, 0
13, 3540, Note_on_c, 4, 67, 97
13, 3569, Note_on_c, 4, 67, 0
13, 3570, Note_on_c, 4, 69, 82
13, 3599, Note_on_c, 4, 69, 0
13, 3600, Note_on_c, 4, 67, 89
13, 3629, Note_on_c, 4, 67, 0
13, 3630, Note_on_c, 4, 69, 85
13, 3659, Note_on_c, 4, 69, 0
13, 3660, Note_on_c, 4, 67, 90
13, 3689, Note_on_c, 4, 67, 0
13, 3690, Note_on_c, 4, 69, 82
13, 3719, Note_on_c, 4, 69, 0
13, 3720, Note_on_c, 4, 67, 91
13, 3749, Note_on_c, 4, 67, 0
13, 3750, Note_on_c, 4, 69, 82
13, 3779, Note_on_c, 4, 69, 0
13, 3780, Note_on_c, 4, 67, 86
13, 3809, Note_on_c, 4, 67, 0
13, 3810, Note_on_c, 4, 69, 87
13, 3839, Note_on_c, 4, 69, 0
13, 3840, Note_on_c, 4, 67, 88
13, 3869, Note_on_c, 4, 67, 0
13, 3870, Note_on_c, 4, 69, 87
13, 3899, Note_on_c, 4, 69, 0
13, 3900, Note_on_c, 4, 67, 86
13, 3929, Note_on_c, 4, 67, 0
13, 3930, Note_on_c, 4, 69, 82
13, 3959, Note_on_c, 4, 69, 0
13, 3960, Note_on_c, 4, 67, 87
13, 3989, Note_on_c, 4, 67, 0
13, 3990, Note_on_c, 4, 69, 84
13, 4019, Note_on_c, 4, 69, 0
13, 4020, Note_on_c, 4, 67, 93
13, 4049, Note_on_c, 4, 67, 0
13, 4050, Note_on_c, 4, 69, 86
13, 4079, Note_on_c, 4, 69, 0
13, 4080, Note_on_c, 4, 67, 93
13, 4109, Note_on_c, 4, 67, 0
13, 4110, Note_on_c, 4, 69, 85
13, 4139, Note_on_c, 4, 69, 0
13, 4140, Note_on_c, 4, 67, 88
13, 4169, Note_on_c, 4, 67, 0
13, 4170, Note_on_c, 4, 69, 85
13, 4199, Note_on_c, 4, 69, 0
13, 4200, Note_on_c, 4, 67, 91
13, 4229, Note_on_c, 4, 67, 0
13, 4230, Note_on_c, 4, 69, 80
13, 4259, Note_on_c, 4, 69, 0
13, 4260, Note_on_c, 4, 67, 90
13, 4289, Note_on_c, 4, 67, 0
13, 4290, Note_on_c, 4, 69, 98
13, 4319, Note_on_c, 4, 69, 0
13, 4320, Note_on_c, 4, 67, 97
13, 4379, Note_on_c, 4, 67, 0
13, 24960, Note_on_c, 11, 67, 97
13, 25002, Note_on_c, 11, 67, 0
13, 25080, Note_on_c, 11, 67, 101
13, 25127, Note_on_c, 11, 67, 0
13, 25200, Note_on_c, 11, 67, 109
13, 25239, Note_on_c, 11, 67, 0
13, 25320, Note_on_c, 11, 67, 97
13, 25354, Note_on_c, 11, 67, 0
13, 25440, Note_on_c, 11, 67, 101
13, 25483, Note_on_c, 11, 67, 0
13, 25920, Note_on_c, 11, 74, 98
13, 25965, Note_on_c, 11, 74, 0
13, 26040, Note_on_c, 11, 74, 102
13, 26092, Note_on_c, 11, 74, 0
13, 26160, Note_on_c, 11, 74, 98
13, 26213, Note_on_c, 11, 74, 0
13, 26280, Note_on_c, 11, 74, 105
13, 26326, Note_on_c, 11, 74, 0
13, 26400, Note_on_c, 11, 74, 109
13, 26456, Note_on_c, 11, 74, 0
13, 37560, Note_on_c, 11, 67, 94
13, 37601, Note_on_c, 11, 67, 0
13, 37620, Note_on_c, 11, 67, 84
13, 37659, Note_on_c, 11, 67, 0
13, 37680, Note_on_c, 11, 67, 109
13, 37767, Note_on_c, 11, 67, 0
13, 37800, Note_on_c, 11, 67, 100
13, 37836, Note_on_c, 11, 67, 0
13, 37860, Note_on_c, 11, 67, 88
13, 37894, Note_on_c, 11, 67, 0
13, 37920, Note_on_c, 11, 67, 109
13, 38009, Note_on_c, 11, 67, 0
13, 38040, Note_on_c, 11, 67, 105
13, 38073, Note_on_c, 11, 67, 0
13, 38100, Note_on_c, 11, 67, 88
13, 38135, Note_on_c, 11, 67, 0
13, 38160, Note_on_c, 11, 67, 109
13, 38247, Note_on_c, 11, 67, 0
13, 38280, Note_on_c, 11, 67, 105
13, 38312, Note_on_c, 11, 67, 0
13, 38340, Note_on_c, 11, 67, 91
13, 38382, Note_on_c, 11, 67, 0
13, 38400, Note_on_c, 11, 67, 114
13, 38490, Note_on_c, 11, 67, 0
13, 38880, Note_on_c, 11, 67, 109
13, 38957, Note_on_c, 11, 67, 0
13, 39000, Note_on_c, 11, 67, 101
13, 39029, Note_on_c, 11, 67, 0
13, 39060, Note_on_c, 11, 67, 91
13, 39094, Note_on_c, 11, 67, 0
13, 39120, Note_on_c, 11, 67, 118
13, 39204, Note_on_c, 11, 67, 0
13, 39240, Note_on_c, 11, 67, 109
13, 39270, Note_on_c, 11, 67, 0
13, 39300, Note_on_c, 11, 67, 97
13, 39335, Note_on_c, 11, 67, 0
13, 39360, Note_on_c, 11, 67, 116
13, 39420, Note_on_c, 11, 67, 0
13, 39840, Note_on_c, 11, 67, 109
13, 39903, Note_on_c, 11, 67, 0
13, 39960, Note_on_c, 11, 67, 98
13, 39998, Note_on_c, 11, 67, 0
13, 40020, Note_on_c, 11, 67, 96
13, 40051, Note_on_c, 11, 67, 0
13, 40080, Note_on_c, 11, 67, 107
13, 40154, Note_on_c, 11, 67, 0
13, 40200, Note_on_c, 11, 67, 112
13, 40229, Note_on_c, 11, 67, 0
13, 40260, Note_on_c, 11, 67, 97
13, 40293, Note_on_c, 11, 67, 0
13, 40320, Note_on_c, 11, 67, 114
13, 40373, Note_on_c, 11, 67, 0
13, 42300, Note_on_c, 11, 67, 94
13, 42328, Note_on_c, 11, 67, 0
13, 42360, Note_on_c, 11, 67, 107
13, 42393, Note_on_c, 11, 67, 0
13, 42420, Note_on_c, 11, 67, 100
13, 42452, Note_on_c, 11, 67, 0
13, 42480, Note_on_c, 11, 67, 112
13, 42510, Note_on_c, 11, 67, 0
13, 42540, Note_on_c, 11, 67, 104
13, 42569, Note_on_c, 11, 67, 0
13, 42600, Note_on_c, 11, 67, 112
13, 42627, Note_on_c, 11, 67, 0
13, 42660, Note_on_c, 11, 67, 107
13, 42690, Note_on_c, 11, 67, 0
13, 42720, Note_on_c, 11, 67, 114
13, 42750, Note_on_c, 11, 67, 0
13, 42780, Note_on_c, 11, 67, 111
13, 42809, Note_on_c, 11, 67, 0
13, 42840, Note_on_c, 11, 67, 111
13, 42869, Note_on_c, 11, 67, 0
13, 42900, Note_on_c, 11, 67, 107
13, 42928, Note_on_c, 11, 67, 0
13, 42960, Note_on_c, 11, 67, 109
13, 42987, Note_on_c, 11, 67, 0
13, 43020, Note_on_c, 11, 67, 107
13, 43047, Note_on_c, 11, 67, 0
13, 43080, Note_on_c, 11, 67, 102
13, 43109, Note_on_c, 11, 67, 0
13, 43140, Note_on_c, 11, 67, 102
13, 43168, Note_on_c, 11, 67, 0
13, 43200, Note_on_c, 11, 67, 116
13, 43269, Note_on_c, 11, 67, 0
13, 43440, Note_on_c, 11, 67, 114
13, 43505, Note_on_c, 11, 67, 0
13, 43680, Note_on_c, 11, 67, 123
13, 43754, Note_on_c, 11, 67, 0
13, 43754, End_track
14, 0, Start_track
14, 0, Title_t, "Piano 1 | Piano"
14, 0, Channel_prefix, 12
14, 487, Control_c, 12, 64, 127
14, 492, Note_on_c, 12, 81, 92
14, 496, Note_on_c, 12, 86, 92
14, 497, Note_on_c, 12, 93, 85
14, 513, Note_on_c, 12, 79, 86
14, 514, Note_on_c, 12, 74, 90
14, 515, Note_on_c, 12, 81, 0
14, 515, Note_on_c, 12, 86, 0
14, 516, Note_on_c, 12, 67, 82
14, 522, Note_on_c, 12, 93, 0
14, 540, Note_on_c, 12, 79, 0
14, 541, Note_on_c, 12, 67, 0
14, 541, Note_on_c, 12, 81, 98
14, 542, Note_on_c, 12, 86, 98
14, 543, Note_on_c, 12, 74, 0
14, 543, Note_on_c, 12, 93, 93
14, 563, Note_on_c, 12, 81, 0
14, 563, Note_on_c, 12, 79, 76
14, 563, Note_on_c, 12, 74, 87
14, 564, Note_on_c, 12, 67, 74
14, 571, Note_on_c, 12, 86, 0
14, 571, Note_on_c, 12, 93, 0
14, 585, Note_on_c, 12, 79, 0
14, 585, Note_on_c, 12, 67, 0
14, 588, Note_on_c, 12, 74, 0
14, 588, Note_on_c, 12, 81, 97
14, 588, Note_on_c, 12, 93, 86
14, 589, Note_on_c, 12, 86, 100
14, 609, Note_on_c, 12, 79, 82
14, 610, Note_on_c, 12, 81, 0
14, 610, Note_on_c, 12, 74, 84
14, 616, Note_on_c, 12, 86, 0
14, 616, Note_on_c, 12, 67, 78
14, 617, Note_on_c, 12, 93, 0
14, 630, Note_on_c, 12, 79, 0
14, 632, Note_on_c, 12, 74, 0
14, 632, Note_on_c, 12, 67, 0
14, 637, Note_on_c, 12, 93, 83
14, 637, Note_on_c, 12, 86, 93
14, 637, Note_on_c, 12, 81, 92
14, 656, Note_on_c, 12, 79, 78
14, 656, Note_on_c, 12, 67, 74
14, 656, Note_on_c, 12, 74, 82
14, 664, Note_on_c, 12, 86, 0
14, 664, Note_on_c, 12, 81, 0
14, 667, Note_on_c, 12, 93, 0
14, 677, Note_on_c, 12, 79, 0
14, 679, Note_on_c, 12, 67, 0
14, 679, Note_on_c, 12, 74, 0
14, 684, Note_on_c, 12, 81, 88
14, 684, Note_on_c, 12, 93, 82
14, 685, Note_on_c, 12, 86, 91
14, 704, Note_on_c, 12, 79, 81
14, 705, Note_on_c, 12, 74, 79
14, 705, Note_on_c, 12, 67, 74
14, 713, Note_on_c, 12, 81, 0
14, 713, Note_on_c, 12, 86, 0
14, 715, Note_on_c, 12, 93, 0
14, 726, Note_on_c, 12, 79, 0
14, 726, Note_on_c, 12, 67, 0
14, 728, Note_on_c, 12, 74, 0
14, 734, Note_on_c, 12, 93, 82
14, 734, Note_on_c, 12, 81, 86
14, 735, Note_on_c, 12, 86, 89
14, 756, Note_on_c, 12, 79, 78
14, 757, Note_on_c, 12, 81, 0
14, 760, Note_on_c, 12, 67, 75
14, 761, Note_on_c, 12, 86, 0
14, 761, Note_on_c, 12, 74, 77
14, 767, Note_on_c, 12, 93, 0
14, 777, Note_on_c, 12, 67, 0
14, 778, Note_on_c, 12, 79, 0
14, 778, Note_on_c, 12, 74, 0
14, 785, Note_on_c, 12, 81, 82
14, 785, Note_on_c, 12, 93, 84
14, 785, Note_on_c, 12, 86, 96
14, 808, Note_on_c, 12, 81, 0
14, 810, Note_on_c, 12, 86, 0
14, 812, Note_on_c, 12, 79, 89
14, 812, Note_on_c, 12, 74, 90
14, 813, Note_on_c, 12, 93, 0
14, 813, Note_on_c, 12, 67, 82
14, 834, Note_on_c, 12, 79, 0
14, 834, Note_on_c, 12, 74, 0
14, 834, Note_on_c, 12, 67, 0
14, 837, Note_on_c, 12, 81, 88
14, 837, Note_on_c, 12, 93, 84
14, 837, Note_on_c, 12, 86, 102
14, 858, Note_on_c, 12, 81, 0
14, 862, Note_on_c, 12, 86, 0
14, 864, Note_on_c, 12, 93, 0
14, 867, Note_on_c, 12, 67, 78
14, 867, Note_on_c, 12, 79, 96
14, 872, Note_on_c, 12, 74, 94
14, 887, Note_on_c, 12, 79, 0
14, 888, Note_on_c, 12, 86, 98
14, 889, Note_on_c, 12, 74, 0
14, 889, Note_on_c, 12, 81, 86
14, 890, Note_on_c, 12, 67, 0
14, 890, Note_on_c, 12, 93, 78
14, 907, Note_on_c, 12, 81, 0
14, 909, Note_on_c, 12, 86, 0
14, 913, Note_on_c, 12, 93, 0
14, 920, Note_on_c, 12, 79, 87
14, 920, Note_on_c, 12, 74, 87
14, 920, Note_on_c, 12, 67, 72
14, 936, Note_on_c, 12, 79, 0
14, 936, Note_on_c, 12, 86, 94
14, 937, Note_on_c, 12, 81, 92
14, 938, Note_on_c, 12, 74, 0
14, 938, Note_on_c, 12, 93, 83
14, 939, Note_on_c, 12, 67, 0
14, 957, Note_on_c, 12, 81, 0
14, 960, Note_on_c, 12, 86, 0
14, 960, Note_on_c, 12, 93, 0
14, 968, Note_on_c, 12, 79, 84
14, 970, Note_on_c, 12, 67, 75
14, 970, Note_on_c, 12, 74, 82
14, 988, Note_on_c, 12, 81, 87
14, 988, Note_on_c, 12, 86, 92
14, 989, Note_on_c, 12, 74, 0
14, 989, Note_on_c, 12, 93, 84
14, 990, Note_on_c, 12, 79, 0
14, 990, Note_on_c, 12, 67, 0
14, 1009, Note_on_c, 12, 81, 0
14, 1013, Note_on_c, 12, 86, 0
14, 1019, Note_on_c, 12, 93, 0
14, 1021, Note_on_c, 12, 79, 86
14, 1021, Note_on_c, 12, 67, 77
14, 1027, Note_on_c, 12, 74, 80
14, 1042, Note_on_c, 12, 93, 82
14, 1042, Note_on_c, 12, 81, 85
14, 1043, Note_on_c, 12, 79, 0
14, 1043, Note_on_c, 12, 74, 0
14, 1043, Note_on_c, 12, 86, 96
14, 1052, Note_on_c, 12, 67, 0
14, 1062, Note_on_c, 12, 81, 0
14, 1067, Note_on_c, 12, 86, 0
14, 1073, Note_on_c, 12, 93, 0
14, 1075, Note_on_c, 12, 79, 90
14, 1075, Note_on_c, 12, 67, 78
14, 1080, Note_on_c, 12, 74, 82
14, 1094, Note_on_c, 12, 93, 82
14, 1095, Note_on_c, 12, 86, 94
14, 1095, Note_on_c, 12, 81, 84
14, 1103, Note_on_c, 12, 79, 0
14, 1103, Note_on_c, 12, 67, 0
14, 1103, Note_on_c, 12, 74, 0
14, 1115, Note_on_c, 12, 81, 0
14, 1119, Note_on_c, 12, 86, 0
14, 1123, Note_on_c, 12, 93, 0
14, 1129, Note_on_c, 12, 67, 76
14, 1129, Note_on_c, 12, 79, 93
14, 1132, Note_on_c, 12, 74, 86
14, 1149, Note_on_c, 12, 93, 83
14, 1150, Note_on_c, 12, 86, 93
14, 1150, Note_on_c, 12, 81, 87
14, 1151, Note_on_c, 12, 79, 0
14, 1151, Note_on_c, 12, 74, 0
14, 1159, Note_on_c, 12, 67, 0
14, 1172, Note_on_c, 12, 81, 0
14, 1176, Note_on_c, 12, 86, 0
14, 1180, Note_on_c, 12, 93, 0
14, 1186, Note_on_c, 12, 79, 93
14, 1186, Note_on_c, 12, 67, 77
14, 1187, Note_on_c, 12, 74, 87
14, 1204, Note_on_c, 12, 93, 85
14, 1207, Note_on_c, 12, 81, 90
14, 1208, Note_on_c, 12, 74, 0
14, 1208, Note_on_c, 12, 86, 101
14, 1209, Note_on_c, 12, 79, 0
14, 1209, Note_on_c, 12, 67, 0
14, 1228, Note_on_c, 12, 81, 0
14, 1234, Note_on_c, 12, 86, 0
14, 1236, Note_on_c, 12, 93, 0
14, 1241, Note_on_c, 12, 67, 81
14, 1241, Note_on_c, 12, 79, 98
14, 1242, Note_on_c, 12, 74, 92
14, 1264, Note_on_c, 12, 79, 0
14, 1264, Note_on_c, 12, 93, 83
14, 1264, Note_on_c, 12, 81, 94
14, 1265, Note_on_c, 12, 86, 102
14, 1266, Note_on_c, 12, 74, 0
14, 1274, Note_on_c, 12, 67, 0
14, 1287, Note_on_c, 12, 81, 0
14, 1291, Note_on_c, 12, 86, 0
14, 1295, Note_on_c, 12, 93, 0
14, 1299, Note_on_c, 12, 79, 98
14, 1299, Note_on_c, 12, 67, 80
14, 1305, Note_on_c, 12, 74, 88
14, 1319, Note_on_c, 12, 93, 85
14, 1320, Note_on_c, 12, 74, 0
14, 1321, Note_on_c, 12, 79, 0
14, 1321, Note_on_c, 12, 81, 92
14, 1322, Note_on_c, 12, 86, 109
14, 1330, Note_on_c, 12, 67, 0
14, 1342, Note_on_c, 12, 81, 0
14, 1346, Note_on_c, 12, 86, 0
14, 1350, Note_on_c, 12, 93, 0
14, 1356, Note_on_c, 12, 67, 76
14, 1356, Note_on_c, 12, 79, 100
14, 1356, Note_on_c, 12, 74, 93
14, 1374, Note_on_c, 12, 93, 86
14, 1375, Note_on_c, 12, 81, 92
14, 1375, Note_on_c, 12, 86, 101
14, 1383, Note_on_c, 12, 79, 0
14, 1383, Note_on_c, 12, 74, 0
14, 1384, Note_on_c, 12, 67, 0
14, 1399, Note_on_c, 12, 81, 0
14, 1406, Note_on_c, 12, 86, 0
14, 1408, Note_on_c, 12, 93, 0
14, 1415, Note_on_c, 12, 79, 100
14, 1415, Note_on_c, 12, 74, 93
14, 1415, Note_on_c, 12, 67, 82
14, 1434, Note_on_c, 12, 93, 87
14, 1435, Note_on_c, 12, 81, 91
14, 1435, Note_on_c, 12, 86, 104
14, 1436, Note_on_c, 12, 79, 0
14, 1436, Note_on_c, 12, 74, 0
14, 1445, Note_on_c, 12, 67, 0
14, 1457, Note_on_c, 12, 81, 0
14, 1461, Note_on_c, 12, 86, 0
14, 1462, Note_on_c, 12, 79, 69
14, 1464, Note_on_c, 12, 74, 71
14, 1468, Note_on_c, 12, 93, 0
14, 1470, Note_on_c, 12, 79, 102
14, 1470, Note_on_c, 12, 67, 62
14, 1471, Note_on_c, 12, 67, 82
14, 1471, Note_on_c, 12, 74, 93
14, 1481, Note_on_c, 12, 67, 0
14, 1485, Note_on_c, 12, 79, 0
14, 1486, Note_on_c, 12, 74, 0
14, 1486, Note_on_c, 12, 93, 72
14, 1487, Note_on_c, 12, 86, 82
14, 1487, Note_on_c, 12, 81, 68
14, 1498, Note_on_c, 12, 93, 86
14, 1498, Note_on_c, 12, 86, 105
14, 1499, Note_on_c, 12, 79, 0
14, 1499, Note_on_c, 12, 81, 94
14, 1500, Note_on_c, 12, 74, 0
14, 1501, Note_on_c, 12, 67, 0
14, 1510, Note_on_c, 12, 81, 0
14, 1512, Note_on_c, 12, 86, 0
14, 1514, Note_on_c, 12, 67, 68
14, 1514, Note_on_c, 12, 79, 69
14, 1514, Note_on_c, 12, 74, 76
14, 1523, Note_on_c, 12, 93, 0
14, 1525, Note_on_c, 12, 93, 0
14, 1525, Note_on_c, 12, 86, 0
14, 1525, Note_on_c, 12, 81, 0
14, 1525, Note_on_c, 12, 67, 78
14, 1527, Note_on_c, 12, 79, 100
14, 1527, Note_on_c, 12, 74, 93
14, 1535, Note_on_c, 12, 79, 0
14, 1535, Note_on_c, 12, 74, 0
14, 1537, Note_on_c, 12, 67, 0
14, 1541, Note_on_c, 12, 81, 72
14, 1541, Note_on_c, 12, 93, 72
14, 1541, Note_on_c, 12, 86, 82
14, 1552, Note_on_c, 12, 93, 93
14, 1552, Note_on_c, 12, 81, 97
14, 1553, Note_on_c, 12, 86, 114
14, 1554, Note_on_c, 12, 79, 0
14, 1554, Note_on_c, 12, 74, 0
14, 1555, Note_on_c, 12, 67, 0
14, 1565, Note_on_c, 12, 81, 0
14, 1565, Note_on_c, 12, 86, 0
14, 1567, Note_on_c, 12, 79, 79
14, 1569, Note_on_c, 12, 93, 0
14, 1569, Note_on_c, 12, 67, 74
14, 1570, Note_on_c, 12, 74, 79
14, 1579, Note_on_c, 12, 81, 0
14, 1579, Note_on_c, 12, 86, 0
14, 1580, Note_on_c, 12, 67, 82
14, 1580, Note_on_c, 12, 79, 92
14, 1580, Note_on_c, 12, 74, 91
14, 1593, Note_on_c, 12, 93, 0
14, 1594, Note_on_c, 12, 81, 73
14, 1595, Note_on_c, 12, 86, 83
14, 1595, Note_on_c, 12, 93, 74
14, 1596, Note_on_c, 12, 79, 0
14, 1603, Note_on_c, 12, 67, 0
14, 1603, Note_on_c, 12, 74, 0
14, 1609, Note_on_c, 12, 67, 0
14, 1609, Note_on_c, 12, 79, 0
14, 1609, Note_on_c, 12, 74, 0
14, 1618, Note_on_c, 12, 81, 0
14, 1622, Note_on_c, 12, 86, 0
14, 1624, Note_on_c, 12, 79, 71
14, 1624, Note_on_c, 12, 67, 70
14, 1625, Note_on_c, 12, 93, 0
14, 1626, Note_on_c, 12, 74, 82
14, 1645, Note_on_c, 12, 93, 80
14, 1645, Note_on_c, 12, 81, 79
14, 1646, Note_on_c, 12, 67, 0
14, 1646, Note_on_c, 12, 86, 90
14, 1647, Note_on_c, 12, 79, 0
14, 1647, Note_on_c, 12, 74, 0
14, 1672, Note_on_c, 12, 81, 0
14, 1674, Note_on_c, 12, 86, 0
14, 1678, Note_on_c, 12, 93, 0
14, 1678, Note_on_c, 12, 79, 83
14, 1679, Note_on_c, 12, 67, 81
14, 1679, Note_on_c, 12, 74, 86
14, 1702, Note_on_c, 12, 79, 0
14, 1702, Note_on_c, 12, 81, 84
14, 1706, Note_on_c, 12, 93, 82
14, 1707, Note_on_c, 12, 67, 0
14, 1707, Note_on_c, 12, 74, 0
14, 1707, Note_on_c, 12, 86, 96
14, 1728, Note_on_c, 12, 81, 0
14, 1730, Note_on_c, 12, 86, 0
14, 1734, Note_on_c, 12, 93, 0
14, 1736, Note_on_c, 12, 79, 86
14, 1737, Note_on_c, 12, 67, 78
14, 1737, Note_on_c, 12, 74, 88
14, 1760, Note_on_c, 12, 79, 0
14, 1761, Note_on_c, 12, 93, 78
14, 1761, Note_on_c, 12, 81, 81
14, 1762, Note_on_c, 12, 67, 0
14, 1762, Note_on_c, 12, 86, 86
14, 1763, Note_on_c, 12, 74, 0
14, 1779, Control_c, 12, 64, 0
14, 1784, Note_on_c, 12, 81, 0
14, 1785, Control_c, 12, 64, 127
14, 1786, Note_on_c, 12, 86, 0
14, 1786, Control_c, 12, 64, 0
14, 1790, Note_on_c, 12, 79, 78
14, 1792, Note_on_c, 12, 67, 78
14, 1792, Note_on_c, 12, 74, 84
14, 1793, Note_on_c, 12, 93, 0
14, 1813, Note_on_c, 12, 93, 79
14, 1813, Note_on_c, 12, 86, 88
14, 1813, Note_on_c, 12, 81, 80
14, 1815, Note_on_c, 12, 79, 0
14, 1815, Note_on_c, 12, 67, 0
14, 1815, Note_on_c, 12, 74, 0
14, 1825, Control_c, 12, 64, 127
14, 1837, Note_on_c, 12, 81, 0
14, 1841, Note_on_c, 12, 86, 0
14, 1844, Note_on_c, 12, 79, 84
14, 1844, Note_on_c, 12, 67, 78
14, 1844, Note_on_c, 12, 74, 83
14, 1845, Note_on_c, 12, 93, 0
14, 1868, Note_on_c, 12, 79, 0
14, 1870, Note_on_c, 12, 74, 0
14, 1870, Note_on_c, 12, 93, 82
14, 1871, Note_on_c, 12, 81, 84
14, 1872, Note_on_c, 12, 86, 93
14, 1879, Note_on_c, 12, 67, 0
14, 1894, Note_on_c, 12, 81, 0
14, 1898, Note_on_c, 12, 86, 0
14, 1900, Note_on_c, 12, 67, 76
14, 1900, Note_on_c, 12, 79, 80
14, 1906, Note_on_c, 12, 93, 0
14, 1906, Note_on_c, 12, 74, 83
14, 1927, Note_on_c, 12, 79, 0
14, 1927, Note_on_c, 12, 74, 0
14, 1927, Note_on_c, 12, 93, 78
14, 1931, Note_on_c, 12, 86, 88
14, 1932, Note_on_c, 12, 67, 0
14, 1932, Note_on_c, 12, 81, 79
14, 1953, Note_on_c, 12, 81, 0
14, 1955, Note_on_c, 12, 86, 0
14, 1957, Note_on_c, 12, 79, 78
14, 1959, Note_on_c, 12, 67, 76
14, 1960, Note_on_c, 12, 74, 81
14, 1967, Note_on_c, 12, 93, 0
14, 1984, Note_on_c, 12, 79, 0
14, 1984, Note_on_c, 12, 74, 0
14, 1986, Note_on_c, 12, 67, 0
14, 1986, Note_on_c, 12, 93, 78
14, 1987, Note_on_c, 12, 86, 89
14, 1987, Note_on_c, 12, 81, 78
14, 2012, Note_on_c, 12, 81, 0
14, 2014, Note_on_c, 12, 86, 0
14, 2015, Note_on_c, 12, 79, 78
14, 2018, Note_on_c, 12, 67, 76
14, 2019, Note_on_c, 12, 74, 78
14, 2024, Note_on_c, 12, 93, 0
14, 2045, Note_on_c, 12, 79, 0
14, 2045, Note_on_c, 12, 74, 0
14, 2046, Note_on_c, 12, 93, 80
14, 2050, Note_on_c, 12, 67, 0
14, 2051, Note_on_c, 12, 81, 82
14, 2051, Note_on_c, 12, 86, 91
14, 2072, Note_on_c, 12, 81, 0
14, 2076, Note_on_c, 12, 86, 0
14, 2078, Note_on_c, 12, 79, 78
14, 2079, Note_on_c, 12, 67, 76
14, 2079, Note_on_c, 12, 74, 81
14, 2087, Note_on_c, 12, 93, 0
14, 2104, Note_on_c, 12, 79, 0
14, 2106, Note_on_c, 12, 74, 0
14, 2106, Note_on_c, 12, 93, 76
14, 2106, Note_on_c, 12, 86, 91
14, 2113, Note_on_c, 12, 81, 79
14, 2114, Note_on_c, 12, 67, 0
14, 2132, Note_on_c, 12, 81, 0
14, 2136, Note_on_c, 12, 86, 0
14, 2136, Note_on_c, 12, 67, 76
14, 2137, Note_on_c, 12, 79, 78
14, 2137, Note_on_c, 12, 74, 80
14, 2146, Note_on_c, 12, 93, 0
14, 2164, Note_on_c, 12, 79, 0
14, 2164, Note_on_c, 12, 93, 78
14, 2165, Note_on_c, 12, 74, 0
14, 2165, Note_on_c, 12, 86, 87
14, 2166, Note_on_c, 12, 67, 0
14, 2167, Note_on_c, 12, 81, 77
14, 2191, Note_on_c, 12, 81, 0
14, 2194, Note_on_c, 12, 86, 0
14, 2195, Note_on_c, 12, 79, 79
14, 2199, Note_on_c, 12, 67, 76
14, 2199, Note_on_c, 12, 74, 80
14, 2200, Note_on_c, 12, 93, 0
14, 2222, Note_on_c, 12, 79, 0
14, 2222, Note_on_c, 12, 93, 78
14, 2223, Note_on_c, 12, 74, 0
14, 2223, Note_on_c, 12, 86, 91
14, 2224, Note_on_c, 12, 81, 81
14, 2232, Note_on_c, 12, 67, 0
14, 2247, Note_on_c, 12, 81, 0
14, 2251, Note_on_c, 12, 86, 0
14, 2252, Note_on_c, 12, 79, 79
14, 2252, Note_on_c, 12, 67, 76
14, 2258, Note_on_c, 12, 93, 0
14, 2258, Note_on_c, 12, 74, 82
14, 2279, Note_on_c, 12, 74, 0
14, 2279, Note_on_c, 12, 93, 78
14, 2280, Note_on_c, 12, 79, 0
14, 2280, Note_on_c, 12, 86, 94
14, 2281, Note_on_c, 12, 67, 0
14, 2281, Note_on_c, 12, 81, 84
14, 2303, Note_on_c, 12, 81, 0
14, 2306, Note_on_c, 12, 86, 0
14, 2307, Note_on_c, 12, 79, 84
14, 2307, Note_on_c, 12, 67, 79
14, 2313, Note_on_c, 12, 74, 82
14, 2314, Note_on_c, 12, 93, 0
14, 2336, Note_on_c, 12, 79, 0
14, 2337, Note_on_c, 12, 74, 0
14, 2337, Note_on_c, 12, 93, 83
14, 2338, Note_on_c, 12, 86, 94
14, 2338, Note_on_c, 12, 81, 88
14, 2346, Note_on_c, 12, 67, 0
14, 2362, Note_on_c, 12, 81, 0
14, 2365, Note_on_c, 12, 86, 0
14, 2365, Note_on_c, 12, 79, 80
14, 2366, Note_on_c, 12, 67, 74
14, 2372, Note_on_c, 12, 93, 0
14, 2372, Note_on_c, 12, 74, 78
14, 2392, Note_on_c, 12, 93, 78
14, 2394, Note_on_c, 12, 86, 86
14, 2394, Note_on_c, 12, 81, 80
14, 2395, Note_on_c, 12, 79, 0
14, 2395, Note_on_c, 12, 74, 0
14, 2396, Note_on_c, 12, 67, 0
14, 2418, Note_on_c, 12, 81, 0
14, 2422, Note_on_c, 12, 86, 0
14, 2423, Note_on_c, 12, 79, 85
14, 2426, Note_on_c, 12, 67, 79
14, 2427, Note_on_c, 12, 74, 84
14, 2435, Note_on_c, 12, 93, 0
14, 2443, Note_on_c, 12, 93, 69
14, 2447, Note_on_c, 12, 81, 77
14, 2448, Note_on_c, 12, 79, 0
14, 2448, Note_on_c, 12, 86, 89
14, 2454, Note_on_c, 12, 74, 0
14, 2455, Note_on_c, 12, 67, 0
14, 2471, Note_on_c, 12, 81, 0
14, 2475, Note_on_c, 12, 86, 0
14, 2480, Note_on_c, 12, 79, 84
14, 2480, Note_on_c, 12, 74, 89
14, 2481, Note_on_c, 12, 93, 0
14, 2481, Note_on_c, 12, 67, 74
14, 2498, Note_on_c, 12, 93, 75
14, 2498, Note_on_c, 12, 81, 80
14, 2499, Note_on_c, 12, 86, 88
14, 2509, Note_on_c, 12, 79, 0
14, 2509, Note_on_c, 12, 74, 0
14, 2511, Note_on_c, 12, 67, 0
14, 2524, Note_on_c, 12, 81, 0
14, 2531, Note_on_c, 12, 86, 0
14, 2531, Note_on_c, 12, 67, 76
14, 2531, Note_on_c, 12, 79, 78
14, 2539, Note_on_c, 12, 93, 0
14, 2539, Note_on_c, 12, 74, 86
14, 2553, Note_on_c, 12, 93, 74
14, 2553, Note_on_c, 12, 86, 90
14, 2554, Note_on_c, 12, 81, 81
14, 2562, Note_on_c, 12, 79, 0
14, 2562, Note_on_c, 12, 74, 0
14, 2566, Note_on_c, 12, 67, 0
14, 2580, Note_on_c, 12, 81, 0
14, 2586, Note_on_c, 12, 86, 0
14, 2588, Note_on_c, 12, 67, 78
14, 2588, Note_on_c, 12, 79, 78
14, 2589, Note_on_c, 12, 93, 0
14, 2596, Note_on_c, 12, 74, 82
14, 2610, Note_on_c, 12, 93, 80
14, 2616, Note_on_c, 12, 86, 93
14, 2616, Note_on_c, 12, 81, 84
14, 2617, Note_on_c, 12, 79, 0
14, 2617, Note_on_c, 12, 74, 0
14, 2623, Note_on_c, 12, 67, 0
14, 2636, Note_on_c, 12, 81, 0
14, 2644, Note_on_c, 12, 86, 0
14, 2646, Note_on_c, 12, 93, 0
14, 2647, Note_on_c, 12, 79, 78
14, 2647, Note_on_c, 12, 67, 76
14, 2653, Note_on_c, 12, 74, 82
14, 2669, Note_on_c, 12, 93, 79
14, 2675, Note_on_c, 12, 86, 94
14, 2675, Note_on_c, 12, 81, 86
14, 2676, Note_on_c, 12, 79, 0
14, 2676, Note_on_c, 12, 74, 0
14, 2683, Note_on_c, 12, 67, 0
14, 2696, Note_on_c, 12, 81, 0
14, 2698, Note_on_c, 12, 86, 0
14, 2704, Note_on_c, 12, 67, 76
14, 2705, Note_on_c, 12, 93, 0
14, 2705, Note_on_c, 12, 79, 78
14, 2711, Note_on_c, 12, 74, 81
14, 2729, Note_on_c, 12, 93, 77
14, 2729, Note_on_c, 12, 86, 92
14, 2729, Note_on_c, 12, 81, 82
14, 2741, Note_on_c, 12, 79, 0
14, 2742, Note_on_c, 12, 67, 0
14, 2742, Note_on_c, 12, 74, 0
14, 2753, Note_on_c, 12, 81, 0
14, 2757, Note_on_c, 12, 86, 0
14, 2767, Note_on_c, 12, 67, 76
14, 2767, Note_on_c, 12, 79, 78
14, 2768, Note_on_c, 12, 93, 0
14, 2768, Note_on_c, 12, 74, 82
14, 2786, Note_on_c, 12, 93, 78
14, 2786, Note_on_c, 12, 86, 91
14, 2787, Note_on_c, 12, 81, 81
14, 2798, Note_on_c, 12, 67, 0
14, 2798, Note_on_c, 12, 79, 0
14, 2798, Note_on_c, 12, 74, 0
14, 2810, Note_on_c, 12, 81, 0
14, 2816, Note_on_c, 12, 86, 0
14, 2820, Note_on_c, 12, 93, 0
14, 2820, Note_on_c, 12, 67, 73
14, 2821, Note_on_c, 12, 79, 76
14, 2821, Note_on_c, 12, 74, 79
14, 2845, Note_on_c, 12, 93, 74
14, 2845, Note_on_c, 12, 86, 88
14, 2846, Note_on_c, 12, 81, 78
14, 2856, Note_on_c, 12, 67, 0
14, 2856, Note_on_c, 12, 79, 0
14, 2856, Note_on_c, 12, 74, 0
14, 2867, Note_on_c, 12, 81, 0
14, 2871, Note_on_c, 12, 86, 0
14, 2876, Control_c, 12, 64, 0
14, 2878, Note_on_c, 12, 67, 78
14, 2878, Note_on_c, 12, 79, 81
14, 2879, Note_on_c, 12, 93, 0
14, 2879, Note_on_c, 12, 74, 79
14, 2903, Note_on_c, 12, 93, 81
14, 2903, Note_on_c, 12, 86, 92
14, 2903, Note_on_c, 12, 81, 84
14, 2915, Note_on_c, 12, 74, 0
14, 2916, Note_on_c, 12, 67, 0
14, 2916, Note_on_c, 12, 79, 0
14, 2918, Control_c, 12, 64, 127
14, 2927, Note_on_c, 12, 81, 0
14, 2931, Note_on_c, 12, 86, 0
14, 2933, Note_on_c, 12, 67, 82
14, 2936, Note_on_c, 12, 79, 83
14, 2937, Note_on_c, 12, 93, 0
14, 2937, Note_on_c, 12, 74, 86
14, 2961, Note_on_c, 12, 93, 83
14, 2961, Note_on_c, 12, 86, 93
14, 2962, Note_on_c, 12, 81, 84
14, 2972, Note_on_c, 12, 67, 0
14, 2972, Note_on_c, 12, 79, 0
14, 2972, Note_on_c, 12, 74, 0
14, 2987, Note_on_c, 12, 81, 0
14, 2991, Note_on_c, 12, 86, 0
14, 2995, Note_on_c, 12, 79, 84
14, 2995, Note_on_c, 12, 67, 78
14, 2996, Note_on_c, 12, 93, 0
14, 3005, Note_on_c, 12, 74, 86
14, 3020, Note_on_c, 12, 93, 78
14, 3022, Note_on_c, 12, 86, 94
14, 3022, Note_on_c, 12, 81, 82
14, 3030, Note_on_c, 12, 79, 0
14, 3030, Note_on_c, 12, 74, 0
14, 3031, Note_on_c, 12, 67, 0
14, 3046, Note_on_c, 12, 81, 0
14, 3050, Note_on_c, 12, 86, 0
14, 3054, Note_on_c, 12, 67, 82
14, 3055, Note_on_c, 12, 79, 78
14, 3055, Note_on_c, 12, 74, 82
14, 3056, Note_on_c, 12, 93, 0
14, 3079, Note_on_c, 12, 93, 79
14, 3079, Note_on_c, 12, 86, 91
14, 3080, Note_on_c, 12, 81, 82
14, 3088, Note_on_c, 12, 79, 0
14, 3088, Note_on_c, 12, 74, 0
14, 3093, Note_on_c, 12, 67, 0
14, 3104, Note_on_c, 12, 81, 0
14, 3109, Note_on_c, 12, 86, 0
14, 3111, Note_on_c, 12, 67, 82
14, 3112, Note_on_c, 12, 79, 82
14, 3118, Note_on_c, 12, 74, 88
14, 3119, Note_on_c, 12, 93, 0
14, 3138, Note_on_c, 12, 93, 77
14, 3138, Note_on_c, 12, 86, 90
14, 3139, Note_on_c, 12, 81, 80
14, 3146, Note_on_c, 12, 79, 0
14, 3146, Note_on_c, 12, 74, 0
14, 3149, Note_on_c, 12, 67, 0
14, 3163, Note_on_c, 12, 81, 0
14, 3167, Note_on_c, 12, 86, 0
14, 3171, Note_on_c, 12, 93, 0
14, 3173, Note_on_c, 12, 67, 82
14, 3177, Note_on_c, 12, 79, 83
14, 3177, Note_on_c, 12, 74, 87
14, 3197, Note_on_c, 12, 93, 80
14, 3198, Note_on_c, 12, 86, 91
14, 3199, Note_on_c, 12, 81, 82
14, 3207, Note_on_c, 12, 79, 0
14, 3207, Note_on_c, 12, 74, 0
14, 3213, Note_on_c, 12, 67, 0
14, 3222, Note_on_c, 12, 81, 0
14, 3226, Note_on_c, 12, 86, 0
14, 3233, Note_on_c, 12, 93, 0
14, 3236, Note_on_c, 12, 67, 78
14, 3236, Note_on_c, 12, 79, 78
14, 3236, Note_on_c, 12, 74, 86
14, 3259, Note_on_c, 12, 93, 78
14, 3260, Note_on_c, 12, 86, 91
14, 3260, Note_on_c, 12, 81, 82
14, 3270, Note_on_c, 12, 67, 0
14, 3270, Note_on_c, 12, 79, 0
14, 3270, Note_on_c, 12, 74, 0
14, 3285, Note_on_c, 12, 81, 0
14, 3290, Note_on_c, 12, 86, 0
14, 3294, Note_on_c, 12, 67, 76
14, 3294, Note_on_c, 12, 79, 78
14, 3301, Note_on_c, 12, 93, 0
14, 3302, Note_on_c, 12, 74, 77
14, 3322, Note_on_c, 12, 93, 78
14, 3322, Note_on_c, 12, 86, 90
14, 3322, Note_on_c, 12, 81, 82
14, 3332, Note_on_c, 12, 67, 0
14, 3332, Note_on_c, 12, 79, 0
14, 3332, Note_on_c, 12, 74, 0
14, 3347, Note_on_c, 12, 81, 0
14, 3351, Note_on_c, 12, 86, 0
14, 3356, Note_on_c, 12, 67, 75
14, 3369, Note_on_c, 12, 79, 81
14, 3369, Note_on_c, 12, 74, 85
14, 3370, Note_on_c, 12, 93, 0
14, 3380, Note_on_c, 12, 93, 74
14, 3382, Note_on_c, 12, 86, 89
14, 3383, Note_on_c, 12, 81, 86
14, 3394, Note_on_c, 12, 67, 0
14, 3394, Note_on_c, 12, 79, 0
14, 3394, Note_on_c, 12, 74, 0
14, 3406, Note_on_c, 12, 81, 0
14, 3410, Note_on_c, 12, 86, 0
14, 3415, Note_on_c, 12, 67, 82
14, 3415, Note_on_c, 12, 79, 82
14, 3422, Note_on_c, 12, 93, 0
14, 3422, Note_on_c, 12, 74, 87
14, 3446, Note_on_c, 12, 93, 78
14, 3446, Note_on_c, 12, 81, 82
14, 3447, Note_on_c, 12, 86, 93
14, 3448, Note_on_c, 12, 74, 0
14, 3461, Note_on_c, 12, 67, 0
14, 3461, Note_on_c, 12, 79, 0
14, 3471, Note_on_c, 12, 81, 0
14, 3475, Note_on_c, 12, 86, 0
14, 3479, Note_on_c, 12, 93, 0
14, 3484, Note_on_c, 12, 79, 81
14, 3484, Note_on_c, 12, 67, 67
14, 3485, Note_on_c, 12, 74, 82
14, 3493, Control_c, 12, 64, 0
14, 3508, Note_on_c, 12, 93, 81
14, 3514, Note_on_c, 12, 81, 82
14, 3515, Note_on_c, 12, 86, 92
14, 3516, Note_on_c, 12, 79, 0
14, 3516, Note_on_c, 12, 67, 0
14, 3516, Note_on_c, 12, 74, 0
14, 3534, Note_on_c, 12, 81, 0
14, 3538, Note_on_c, 12, 86, 0
14, 3538, Control_c, 12, 64, 127
14, 3540, Note_on_c, 12, 67, 74
14, 3541, Note_on_c, 12, 79, 82
14, 3549, Note_on_c, 12, 93, 0
14, 3549, Note_on_c, 12, 74, 82
14, 3569, Note_on_c, 12, 93, 81
14, 3575, Note_on_c, 12, 86, 90
14, 3575, Note_on_c, 12, 81, 82
14, 3576, Note_on_c, 12, 79, 0
14, 3576, Note_on_c, 12, 74, 0
14, 3577, Note_on_c, 12, 67, 0
14, 3593, Note_on_c, 12, 81, 0
14, 3597, Note_on_c, 12, 86, 0
14, 3598, Note_on_c, 12, 67, 81
14, 3608, Note_on_c, 12, 79, 85
14, 3609, Note_on_c, 12, 93, 0
14, 3609, Note_on_c, 12, 74, 84
14, 3629, Note_on_c, 12, 93, 80
14, 3629, Note_on_c, 12, 86, 92
14, 3629, Note_on_c, 12, 81, 83
14, 3630, Note_on_c, 12, 79, 0
14, 3630, Note_on_c, 12, 74, 0
14, 3642, Note_on_c, 12, 67, 0
14, 3653, Note_on_c, 12, 81, 0
14, 3655, Note_on_c, 12, 86, 0
14, 3657, Note_on_c, 12, 67, 80
14, 3658, Note_on_c, 12, 79, 88
14, 3666, Note_on_c, 12, 93, 0
14, 3666, Note_on_c, 12, 74, 89
14, 3687, Note_on_c, 12, 93, 84
14, 3687, Note_on_c, 12, 86, 97
14, 3688, Note_on_c, 12, 79, 0
14, 3688, Note_on_c, 12, 81, 91
14, 3689, Note_on_c, 12, 74, 0
14, 3701, Note_on_c, 12, 67, 0
14, 3709, Note_on_c, 12, 81, 0
14, 3716, Note_on_c, 12, 86, 0
14, 3726, Note_on_c, 12, 93, 0
14, 3726, Note_on_c, 12, 67, 82
14, 3726, Note_on_c, 12, 79, 94
14, 3727, Note_on_c, 12, 74, 91
14, 3744, Note_on_c, 12, 93, 83
14, 3745, Note_on_c, 12, 86, 97
14, 3745, Note_on_c, 12, 81, 90
14, 3756, Note_on_c, 12, 67, 0
14, 3756, Note_on_c, 12, 79, 0
14, 3756, Note_on_c, 12, 74, 0
14, 3769, Note_on_c, 12, 81, 0
14, 3773, Note_on_c, 12, 86, 0
14, 3777, Note_on_c, 12, 79, 90
14, 3777, Note_on_c, 12, 67, 82
14, 3777, Note_on_c, 12, 74, 89
14, 3779, Note_on_c, 12, 93, 0
14, 3802, Note_on_c, 12, 93, 82
14, 3804, Note_on_c, 12, 86, 97
14, 3804, Note_on_c, 12, 81, 87
14, 3814, Note_on_c, 12, 74, 0
14, 3815, Note_on_c, 12, 79, 0
14, 3815, Note_on_c, 12, 67, 0
14, 3828, Note_on_c, 12, 81, 0
14, 3831, Note_on_c, 12, 86, 0
14, 3835, Note_on_c, 12, 93, 0
14, 3836, Note_on_c, 12, 79, 88
14, 3836, Note_on_c, 12, 67, 82
14, 3836, Note_on_c, 12, 74, 88
14, 3861, Note_on_c, 12, 93, 85
14, 3863, Note_on_c, 12, 86, 100
14, 3863, Note_on_c, 12, 81, 90
14, 3875, Note_on_c, 12, 79, 0
14, 3875, Note_on_c, 12, 74, 0
14, 3876, Note_on_c, 12, 67, 0
14, 3890, Note_on_c, 12, 81, 0
14, 3892, Note_on_c, 12, 86, 0
14, 3892, Note_on_c, 12, 67, 77
14, 3893, Note_on_c, 12, 79, 86
14, 3899, Note_on_c, 12, 93, 0
14, 3899, Note_on_c, 12, 74, 83
14, 3923, Note_on_c, 12, 93, 80
14, 3923, Note_on_c, 12, 86, 94
14, 3923, Note_on_c, 12, 81, 86
14, 3936, Note_on_c, 12, 67, 0
14, 3936, Note_on_c, 12, 79, 0
14, 3936, Note_on_c, 12, 74, 0
14, 3947, Note_on_c, 12, 81, 0
14, 3951, Note_on_c, 12, 86, 0
14, 3954, Note_on_c, 12, 67, 77
14, 3954, Note_on_c, 12, 79, 83
14, 3962, Note_on_c, 12, 93, 0
14, 3962, Note_on_c, 12, 74, 82
14, 3985, Note_on_c, 12, 93, 82
14, 3985, Note_on_c, 12, 86, 98
14, 3986, Note_on_c, 12, 79, 0
14, 3986, Note_on_c, 12, 81, 87
14, 3997, Note_on_c, 12, 67, 0
14, 3997, Note_on_c, 12, 74, 0
14, 4012, Note_on_c, 12, 81, 0
14, 4016, Note_on_c, 12, 86, 0
14, 4017, Note_on_c, 12, 67, 75
14, 4017, Note_on_c, 12, 79, 82
14, 4026, Note_on_c, 12, 93, 0
14, 4026, Note_on_c, 12, 74, 82
14, 4045, Note_on_c, 12, 93, 81
14, 4045, Note_on_c, 12, 86, 94
14, 4046, Note_on_c, 12, 81, 81
14, 4057, Note_on_c, 12, 79, 0
14, 4057, Note_on_c, 12, 74, 0
14, 4058, Note_on_c, 12, 67, 0
14, 4071, Note_on_c, 12, 81, 0
14, 4076, Note_on_c, 12, 86, 0
14, 4085, Note_on_c, 12, 67, 78
14, 4085, Note_on_c, 12, 79, 84
14, 4086, Note_on_c, 12, 74, 82
14, 4087, Note_on_c, 12, 93, 0
14, 4106, Note_on_c, 12, 93, 77
14, 4108, Note_on_c, 12, 86, 91
14, 4109, Note_on_c, 12, 81, 79
14, 4120, Note_on_c, 12, 79, 0
14, 4120, Note_on_c, 12, 74, 0
14, 4121, Note_on_c, 12, 67, 0
14, 4132, Note_on_c, 12, 81, 0
14, 4138, Note_on_c, 12, 86, 0
14, 4140, Note_on_c, 12, 67, 75
14, 4140, Note_on_c, 12, 79, 80
14, 4141, Note_on_c, 12, 74, 81
14, 4151, Note_on_c, 12, 93, 0
14, 4166, Note_on_c, 12, 93, 73
14, 4167, Note_on_c, 12, 86, 89
14, 4175, Note_on_c, 12, 79, 0
14, 4175, Note_on_c, 12, 81, 78
14, 4176, Note_on_c, 12, 74, 0
14, 4181, Note_on_c, 12, 67, 0
14, 4193, Note_on_c, 12, 81, 0
14, 4206, Note_on_c, 12, 86, 0
14, 4207, Note_on_c, 12, 93, 0
14, 4207, Note_on_c, 12, 79, 75
14, 4208, Note_on_c, 12, 67, 72
14, 4214, Note_on_c, 12, 74, 74
14, 4222, Note_on_c, 12, 93, 66
14, 4224, Note_on_c, 12, 86, 86
14, 4224, Note_on_c, 12, 81, 74
14, 4242, Note_on_c, 12, 79, 0
14, 4242, Note_on_c, 12, 67, 0
14, 4242, Note_on_c, 12, 74, 0
14, 4251, Note_on_c, 12, 81, 0
14, 4257, Note_on_c, 12, 86, 0
14, 4264, Note_on_c, 12, 93, 0
14, 4273, Note_on_c, 12, 81, 78
14, 4275, Note_on_c, 12, 93, 72
14, 4275, Note_on_c, 12, 86, 94
14, 4294, Note_on_c, 12, 79, 48
14, 4306, Note_on_c, 12, 79, 0
14, 4310, Control_c, 12, 64, 0
14, 4313, Note_on_c, 12, 81, 0
14, 4313, Note_on_c, 12, 86, 0
14, 4330, Note_on_c, 12, 67, 101
14, 4330, Note_on_c, 12, 79, 114
14, 4334, Note_on_c, 12, 74, 112
14, 4337, Control_c, 12, 64, 0
14, 4343, Note_on_c, 12, 93, 0
14, 4343, Note_on_c, 12, 67, 97
14, 4343, Note_on_c, 12, 79, 127
14, 4343, Note_on_c, 12, 74, 111
14, 4356, Control_c, 12, 64, 0
14, 4388, Note_on_c, 12, 79, 0
14, 4389, Note_on_c, 12, 74, 0
14, 4391, Note_on_c, 12, 79, 0
14, 4391, Note_on_c, 12, 74, 0
14, 4393, Note_on_c, 12, 67, 0
14, 4396, Note_on_c, 12, 67, 0
14, 4561, Note_on_c, 12, 55, 76
14, 4561, Control_c, 12, 64, 127
14, 4573, Note_on_c, 12, 57, 74
14, 4575, Note_on_c, 12, 55, 0
14, 4582, Note_on_c, 12, 59, 79
14, 4585, Note_on_c, 12, 57, 0
14, 4591, Note_on_c, 12, 60, 74
14, 4595, Note_on_c, 12, 59, 0
14, 4601, Note_on_c, 12, 62, 64
14, 4605, Note_on_c, 12, 60, 0
14, 4611, Note_on_c, 12, 64, 59
14, 4613, Note_on_c, 12, 62, 0
14, 4620, Note_on_c, 12, 65, 74
14, 4623, Note_on_c, 12, 64, 0
14, 4629, Note_on_c, 12, 67, 74
14, 4632, Note_on_c, 12, 65, 0
14, 4638, Note_on_c, 12, 69, 81
14, 4639, Note_on_c, 12, 67, 0
14, 4647, Note_on_c, 12, 69, 0
14, 4647, Note_on_c, 12, 71, 82
14, 4655, Note_on_c, 12, 71, 0
14, 4655, Note_on_c, 12, 72, 84
14, 4662, Note_on_c, 12, 72, 0
14, 4662, Note_on_c, 12, 74, 87
14, 4670, Note_on_c, 12, 76, 84
14, 4673, Note_on_c, 12, 74, 0
14, 4679, Note_on_c, 12, 77, 82
14, 4682, Note_on_c, 12, 76, 0
14, 4687, Note_on_c, 12, 79, 83
14, 4690, Note_on_c, 12, 77, 0
14, 4693, Note_on_c, 12, 79, 0
14, 4809, Note_on_c, 12, 79, 65
14, 4820, Note_on_c, 12, 79, 0
14, 4820, Note_on_c, 12, 81, 77
14, 4831, Note_on_c, 12, 83, 77
14, 4833, Note_on_c, 12, 81, 0
14, 4842, Note_on_c, 12, 83, 0
14, 4842, Note_on_c, 12, 84, 75
14, 4852, Note_on_c, 12, 84, 0
14, 4852, Note_on_c, 12, 86, 81
14, 4862, Note_on_c, 12, 86, 0
14, 4862, Note_on_c, 12, 88, 82
14, 4871, Note_on_c, 12, 88, 0
14, 4871, Note_on_c, 12, 89, 85
14, 4879, Note_on_c, 12, 91, 86
14, 4880, Note_on_c, 12, 89, 0
14, 4887, Note_on_c, 12, 93, 87
14, 4888, Note_on_c, 12, 91, 0
14, 4894, Note_on_c, 12, 95, 85
14, 4895, Note_on_c, 12, 93, 0
14, 4902, Note_on_c, 12, 95, 0
14, 4902, Note_on_c, 12, 96, 89
14, 4909, Note_on_c, 12, 96, 0
14, 4909, Note_on_c, 12, 98, 94
14, 4915, Note_on_c, 12, 100, 96
14, 4916, Note_on_c, 12, 98, 0
14, 4920, Note_on_c, 12, 101, 88
14, 4923, Note_on_c, 12, 100, 0
14, 4927, Note_on_c, 12, 101, 0
14, 5280, Note_on_c, 12, 48, 71
14, 5281, Note_on_c, 12, 60, 62
14, 5335, Note_on_c, 12, 64, 71
14, 5335, Note_on_c, 12, 67, 75
14, 5337, Note_on_c, 12, 48, 0
14, 5343, Note_on_c, 12, 60, 0
14, 5362, Note_on_c, 12, 64, 0
14, 5370, Note_on_c, 12, 67, 0
14, 5394, Note_on_c, 12, 60, 66
14, 5394, Note_on_c, 12, 48, 68
14, 5400, Control_c, 12, 64, 127
14, 5432, Note_on_c, 12, 48, 0
14, 5438, Note_on_c, 12, 60, 0
14, 5460, Note_on_c, 12, 67, 71
14, 5460, Note_on_c, 12, 64, 67
14, 5483, Note_on_c, 12, 64, 0
14, 5489, Note_on_c, 12, 67, 0
14, 5492, Control_c, 12, 64, 0
14, 5514, Control_c, 12, 64, 127
14, 5515, Control_c, 12, 64, 0
14, 5520, Note_on_c, 12, 47, 71
14, 5520, Note_on_c, 12, 59, 73
14, 5520, Control_c, 12, 64, 127
14, 5563, Note_on_c, 12, 47, 0
14, 5565, Note_on_c, 12, 59, 0
14, 5580, Note_on_c, 12, 67, 68
14, 5580, Note_on_c, 12, 64, 52
14, 5591, Note_on_c, 12, 64, 0
14, 5605, Note_on_c, 12, 67, 0
14, 5612, Control_c, 12, 64, 0
14, 5632, Control_c, 12, 64, 127
14, 5640, Note_on_c, 12, 59, 74
14, 5640, Note_on_c, 12, 47, 76
14, 5676, Note_on_c, 12, 47, 0
14, 5679, Note_on_c, 12, 59, 0
14, 5700, Note_on_c, 12, 67, 66
14, 5700, Note_on_c, 12, 64, 38
14, 5720, Note_on_c, 12, 64, 0
14, 5720, Control_c, 12, 64, 0
14, 5721, Note_on_c, 12, 67, 0
14, 5721, Control_c, 12, 64, 127
14, 5723, Control_c, 12, 64, 0
14, 5750, Control_c, 12, 64, 127
14, 5752, Control_c, 12, 64, 0
14, 5753, Control_c, 12, 64, 127
14, 5760, Note_on_c, 12, 58, 72
14, 5760, Note_on_c, 12, 46, 76
14, 5790, Note_on_c, 12, 46, 0
14, 5811, Note_on_c, 12, 58, 0
14, 5820, Note_on_c, 12, 64, 67
14, 5820, Note_on_c, 12, 67, 63
14, 5820, Note_on_c, 12, 62, 51
14, 5836, Note_on_c, 12, 62, 0
14, 5843, Note_on_c, 12, 67, 0
14, 5844, Note_on_c, 12, 64, 0
14, 5880, Note_on_c, 12, 46, 71
14, 5880, Note_on_c, 12, 58, 68
14, 5907, Note_on_c, 12, 46, 0
14, 5916, Note_on_c, 12, 58, 0
14, 5940, Note_on_c, 12, 64, 75
14, 5940, Note_on_c, 12, 62, 65
14, 5958, Note_on_c, 12, 62, 0
14, 5964, Note_on_c, 12, 64, 0
14, 5973, Control_c, 12, 64, 0
14, 5977, Control_c, 12, 64, 127
14, 5978, Control_c, 12, 64, 0
14, 5994, Control_c, 12, 64, 127
14, 5996, Control_c, 12, 64, 0
14, 5999, Control_c, 12, 64, 127
14, 6000, Note_on_c, 12, 45, 75
14, 6000, Note_on_c, 12, 57, 72
14, 6055, Note_on_c, 12, 45, 0
14, 6058, Note_on_c, 12, 57, 0
14, 6060, Note_on_c, 12, 61, 61
14, 6060, Note_on_c, 12, 64, 72
14, 6083, Note_on_c, 12, 64, 0
14, 6084, Note_on_c, 12, 61, 0
14, 6120, Note_on_c, 12, 45, 72
14, 6120, Note_on_c, 12, 57, 65
14, 6159, Note_on_c, 12, 45, 0
14, 6161, Note_on_c, 12, 57, 0
14, 6180, Note_on_c, 12, 64, 76
14, 6180, Note_on_c, 12, 61, 56
14, 6208, Note_on_c, 12, 64, 0
14, 6209, Note_on_c, 12, 61, 0
14, 6224, Control_c, 12, 64, 0
14, 6240, Note_on_c, 12, 46, 70
14, 6240, Note_on_c, 12, 58, 73
14, 6240, Control_c, 12, 64, 127
14, 6241, Control_c, 12, 64, 0
14, 6246, Control_c, 12, 64, 127
14, 6285, Note_on_c, 12, 46, 0
14, 6289, Note_on_c, 12, 58, 0
14, 6300, Note_on_c, 12, 62, 69
14, 6300, Note_on_c, 12, 65, 65
14, 6321, Note_on_c, 12, 62, 0
14, 6324, Note_on_c, 12, 65, 0
14, 6360, Note_on_c, 12, 46, 70
14, 6360, Note_on_c, 12, 58, 75
14, 6400, Note_on_c, 12, 46, 0
14, 6400, Note_on_c, 12, 58, 0
14, 6420, Note_on_c, 12, 62, 68
14, 6420, Note_on_c, 12, 65, 75
14, 6463, Control_c, 12, 64, 0
14, 6464, Note_on_c, 12, 65, 0
14, 6472, Note_on_c, 12, 62, 0
14, 6480, Note_on_c, 12, 45, 72
14, 6480, Note_on_c, 12, 57, 74
14, 6484, Control_c, 12, 64, 127
14, 6532, Note_on_c, 12, 45, 0
14, 6533, Note_on_c, 12, 57, 0
14, 6540, Note_on_c, 12, 62, 63
14, 6540, Note_on_c, 12, 65, 66
14, 6564, Note_on_c, 12, 65, 0
14, 6573, Note_on_c, 12, 62, 0
14, 6600, Note_on_c, 12, 45, 72
14, 6600, Note_on_c, 12, 57, 67
14, 6643, Note_on_c, 12, 57, 0
14, 6644, Note_on_c, 12, 45, 0
14, 6660, Note_on_c, 12, 62, 69
14, 6660, Note_on_c, 12, 65, 68
14, 6682, Note_on_c, 12, 65, 0
14, 6691, Note_on_c, 12, 62, 0
14, 6701, Control_c, 12, 64, 0
14, 6705, Control_c, 12, 64, 127
14, 6707, Control_c, 12, 64, 0
14, 6720, Note_on_c, 12, 44, 71
14, 6720, Note_on_c, 12, 56, 69
14, 6725, Control_c, 12, 64, 127
14, 6773, Note_on_c, 12, 56, 0
14, 6774, Note_on_c, 12, 44, 0
14, 6780, Note_on_c, 12, 60, 64
14, 6780, Note_on_c, 12, 62, 69
14, 6780, Note_on_c, 12, 65, 67
14, 6802, Note_on_c, 12, 62, 0
14, 6804, Note_on_c, 12, 65, 0
14, 6805, Note_on_c, 12, 60, 0
14, 6840, Note_on_c, 12, 44, 66
14, 6840, Note_on_c, 12, 56, 62
14, 6867, Note_on_c, 12, 56, 0
14, 6889, Note_on_c, 12, 44, 0
14, 6900, Note_on_c, 12, 65, 71
14, 6900, Note_on_c, 12, 62, 70
14, 6900, Note_on_c, 12, 60, 58
14, 6919, Note_on_c, 12, 60, 0
14, 6921, Note_on_c, 12, 65, 0
14, 6922, Note_on_c, 12, 62, 0
14, 6938, Control_c, 12, 64, 0
14, 6942, Control_c, 12, 64, 127
14, 6942, Control_c, 12, 64, 0
14, 6960, Note_on_c, 12, 43, 71
14, 6960, Note_on_c, 12, 55, 71
14, 6960, Control_c, 12, 64, 127
14, 6961, Control_c, 12, 64, 0
14, 6964, Control_c, 12, 64, 127
14, 7013, Note_on_c, 12, 43, 0
14, 7016, Note_on_c, 12, 55, 0
14, 7020, Note_on_c, 12, 59, 69
14, 7020, Note_on_c, 12, 62, 68
14, 7020, Note_on_c, 12, 65, 63
14, 7034, Note_on_c, 12, 65, 0
14, 7039, Note_on_c, 12, 62, 0
14, 7044, Note_on_c, 12, 59, 0
14, 7080, Note_on_c, 12, 55, 25
14, 7080, Note_on_c, 12, 43, 82
14, 7109, Note_on_c, 12, 43, 0
14, 7122, Note_on_c, 12, 55, 0
14, 7140, Note_on_c, 12, 59, 69
14, 7140, Note_on_c, 12, 62, 70
14, 7140, Note_on_c, 12, 65, 63
14, 7159, Note_on_c, 12, 65, 0
14, 7164, Note_on_c, 12, 59, 0
14, 7170, Note_on_c, 12, 62, 0
14, 7172, Control_c, 12, 64, 0
14, 7197, Control_c, 12, 64, 127
14, 7200, Note_on_c, 12, 45, 68
14, 7200, Note_on_c, 12, 57, 69
14, 7250, Note_on_c, 12, 45, 0
14, 7255, Note_on_c, 12, 57, 0
14, 7260, Note_on_c, 12, 60, 66
14, 7260, Note_on_c, 12, 64, 63
14, 7294, Note_on_c, 12, 64, 0
14, 7301, Note_on_c, 12, 60, 0
14, 7320, Note_on_c, 12, 57, 69
14, 7320, Note_on_c, 12, 45, 63
14, 7359, Note_on_c, 12, 45, 0
14, 7369, Note_on_c, 12, 57, 0
14, 7380, Note_on_c, 12, 60, 67
14, 7380, Note_on_c, 12, 64, 69
14, 7398, Note_on_c, 12, 64, 0
14, 7399, Note_on_c, 12, 60, 0
14, 7414, Control_c, 12, 64, 0
14, 7417, Control_c, 12, 64, 127
14, 7418, Control_c, 12, 64, 0
14, 7439, Control_c, 12, 64, 127
14, 7440, Note_on_c, 12, 55, 63
14, 7440, Note_on_c, 12, 43, 68
14, 7470, Note_on_c, 12, 43, 0
14, 7475, Note_on_c, 12, 55, 0
14, 7500, Note_on_c, 12, 58, 62
14, 7500, Note_on_c, 12, 60, 66
14, 7500, Note_on_c, 12, 64, 68
14, 7515, Note_on_c, 12, 60, 0
14, 7515, Note_on_c, 12, 64, 0
14, 7518, Note_on_c, 12, 58, 0
14, 7560, Note_on_c, 12, 43, 65
14, 7560, Note_on_c, 12, 55, 62
14, 7581, Note_on_c, 12, 43, 0
14, 7581, Note_on_c, 12, 55, 0
14, 7620, Note_on_c, 12, 64, 68
14, 7620, Note_on_c, 12, 60, 66
14, 7636, Note_on_c, 12, 64, 0
14, 7636, Note_on_c, 12, 60, 0
14, 7660, Control_c, 12, 64, 0
14, 7680, Note_on_c, 12, 41, 74
14, 7680, Note_on_c, 12, 53, 68
14, 7694, Control_c, 12, 64, 127
14, 7717, Note_on_c, 12, 41, 0
14, 7720, Note_on_c, 12, 53, 0
14, 7740, Note_on_c, 12, 65, 72
14, 7740, Note_on_c, 12, 57, 67
14, 7740, Note_on_c, 12, 60, 72
14, 7757, Note_on_c, 12, 57, 0
14, 7759, Note_on_c, 12, 65, 0
14, 7759, Note_on_c, 12, 60, 0
14, 7800, Note_on_c, 12, 53, 70
14, 7800, Note_on_c, 12, 41, 68
14, 7817, Note_on_c, 12, 41, 0
14, 7818, Note_on_c, 12, 53, 0
14, 7860, Note_on_c, 12, 57, 67
14, 7860, Note_on_c, 12, 60, 72
14, 7860, Note_on_c, 12, 65, 60
14, 7870, Note_on_c, 12, 65, 0
14, 7878, Note_on_c, 12, 57, 0
14, 7885, Note_on_c, 12, 60, 0
14, 7892, Control_c, 12, 64, 0
14, 7897, Control_c, 12, 64, 127
14, 7898, Control_c, 12, 64, 0
14, 7920, Note_on_c, 12, 38, 78
14, 7920, Note_on_c, 12, 50, 68
14, 7923, Control_c, 12, 64, 127
14, 7954, Note_on_c, 12, 38, 0
14, 7956, Note_on_c, 12, 50, 0
14, 7980, Note_on_c, 12, 57, 68
14, 7980, Note_on_c, 12, 65, 68
14, 7980, Note_on_c, 12, 62, 72
14, 8000, Note_on_c, 12, 65, 0
14, 8000, Note_on_c, 12, 62, 0
14, 8001, Note_on_c, 12, 57, 0
14, 8040, Note_on_c, 12, 38, 81
14, 8040, Note_on_c, 12, 50, 70
14, 8062, Note_on_c, 12, 38, 0
14, 8064, Note_on_c, 12, 50, 0
14, 8100, Note_on_c, 12, 57, 64
14, 8100, Note_on_c, 12, 65, 69
14, 8100, Note_on_c, 12, 62, 72
14, 8120, Note_on_c, 12, 57, 0
14, 8122, Note_on_c, 12, 62, 0
14, 8124, Note_on_c, 12, 65, 0
14, 8155, Control_c, 12, 64, 0
14, 8160, Note_on_c, 12, 43, 69
14, 8160, Note_on_c, 12, 55, 66
14, 8175, Control_c, 12, 64, 127
14, 8211, Note_on_c, 12, 43, 0
14, 8211, Note_on_c, 12, 55, 0
14, 8220, Note_on_c, 12, 62, 78
14, 8220, Note_on_c, 12, 59, 74
14, 8246, Note_on_c, 12, 59, 0
14, 8249, Note_on_c, 12, 62, 0
14, 8280, Note_on_c, 12, 43, 74
14, 8280, Note_on_c, 12, 55, 69
14, 8319, Note_on_c, 12, 43, 0
14, 8324, Note_on_c, 12, 55, 0
14, 8340, Note_on_c, 12, 59, 74
14, 8340, Note_on_c, 12, 62, 72
14, 8358, Note_on_c, 12, 59, 0
14, 8361, Note_on_c, 12, 62, 0
14, 8394, Control_c, 12, 64, 0
14, 8400, Note_on_c, 12, 45, 76
14, 8400, Note_on_c, 12, 57, 78
14, 8412, Control_c, 12, 64, 127
14, 8455, Note_on_c, 12, 45, 0
14, 8455, Note_on_c, 12, 57, 0
14, 8460, Note_on_c, 12, 60, 71
14, 8460, Note_on_c, 12, 62, 81
14, 8460, Note_on_c, 12, 66, 65
14, 8480, Note_on_c, 12, 66, 0
14, 8482, Note_on_c, 12, 60, 0
14, 8484, Note_on_c, 12, 62, 0
14, 8520, Note_on_c, 12, 45, 78
14, 8520, Note_on_c, 12, 57, 75
14, 8545, Note_on_c, 12, 45, 0
14, 8547, Note_on_c, 12, 57, 0
14, 8580, Note_on_c, 12, 60, 71
14, 8580, Note_on_c, 12, 66, 68
14, 8580, Note_on_c, 12, 62, 77
14, 8599, Note_on_c, 12, 62, 0
14, 8603, Note_on_c, 12, 60, 0
14, 8613, Note_on_c, 12, 66, 0
14, 8621, Control_c, 12, 64, 0
14, 8625, Control_c, 12, 64, 127
14, 8625, Control_c, 12, 64, 0
14, 8640, Note_on_c, 12, 47, 78
14, 8640, Note_on_c, 12, 59, 74
14, 8647, Control_c, 12, 64, 127
14, 8686, Note_on_c, 12, 47, 0
14, 8686, Note_on_c, 12, 59, 0
14, 8700, Note_on_c, 12, 62, 79
14, 8700, Note_on_c, 12, 67, 76
14, 8725, Note_on_c, 12, 67, 0
14, 8728, Note_on_c, 12, 62, 0
14, 8760, Note_on_c, 12, 47, 74
14, 8760, Note_on_c, 12, 59, 77
14, 8783, Note_on_c, 12, 47, 0
14, 8783, Note_on_c, 12, 59, 0
14, 8820, Note_on_c, 12, 67, 82
14, 8820, Note_on_c, 12, 62, 82
14, 8851, Note_on_c, 12, 62, 0
14, 8856, Note_on_c, 12, 67, 0
14, 8868, Control_c, 12, 64, 0
14, 8870, Control_c, 12, 64, 127
14, 8870, Control_c, 12, 64, 0
14, 8880, Note_on_c, 12, 43, 77
14, 8880, Note_on_c, 12, 55, 71
14, 8883, Control_c, 12, 64, 127
14, 8884, Control_c, 12, 64, 0
14, 8889, Control_c, 12, 64, 127
14, 8931, Note_on_c, 12, 43, 0
14, 8937, Note_on_c, 12, 55, 0
14, 8940, Note_on_c, 12, 62, 81
14, 8940, Note_on_c, 12, 65, 76
14, 8940, Note_on_c, 12, 59, 71
14, 8940, Note_on_c, 12, 67, 69
14, 8956, Note_on_c, 12, 67, 0
14, 8962, Note_on_c, 12, 59, 0
14, 8970, Note_on_c, 12, 65, 0
14, 8971, Note_on_c, 12, 62, 0
14, 9000, Note_on_c, 12, 43, 76
14, 9000, Note_on_c, 12, 55, 67
14, 9029, Note_on_c, 12, 43, 0
14, 9034, Note_on_c, 12, 55, 0
14, 9060, Note_on_c, 12, 59, 79
14, 9060, Note_on_c, 12, 62, 79
14, 9060, Note_on_c, 12, 65, 72
14, 9081, Note_on_c, 12, 65, 0
14, 9082, Note_on_c, 12, 62, 0
14, 9083, Note_on_c, 12, 59, 0
14, 9120, Note_on_c, 12, 48, 78
14, 9120, Note_on_c, 12, 60, 57
14, 9120, Note_on_c, 12, 67, 82
14, 9120, Note_on_c, 12, 64, 85
14, 9140, Control_c, 12, 64, 127
14, 9141, Control_c, 12, 64, 0
14, 9148, Control_c, 12, 64, 127
14, 9153, Note_on_c, 12, 67, 0
14, 9157, Note_on_c, 12, 64, 0
14, 9169, Note_on_c, 12, 48, 0
14, 9172, Note_on_c, 12, 60, 0
14, 9228, Control_c, 12, 64, 0
14, 9250, Control_c, 12, 64, 127
14, 9343, Control_c, 12, 64, 0
14, 9367, Control_c, 12, 64, 127
14, 9465, Control_c, 12, 64, 0
14, 9479, Control_c, 12, 64, 127
14, 9583, Control_c, 12, 64, 0
14, 9596, Control_c, 12, 64, 127
14, 9598, Control_c, 12, 64, 0
14, 9601, Control_c, 12, 64, 127
14, 9826, Control_c, 12, 64, 0
14, 9849, Control_c, 12, 64, 127
14, 10065, Control_c, 12, 64, 0
14, 10090, Control_c, 12, 64, 127
14, 10301, Control_c, 12, 64, 0
14, 10305, Control_c, 12, 64, 127
14, 10305, Control_c, 12, 64, 0
14, 10323, Control_c, 12, 64, 127
14, 10326, Control_c, 12, 64, 0
14, 10329, Control_c, 12, 64, 127
14, 10549, Control_c, 12, 64, 0
14, 10553, Control_c, 12, 64, 0
14, 10553, Control_c, 12, 64, 127
14, 10573, Control_c, 12, 64, 127
14, 10792, Control_c, 12, 64, 0
14, 10817, Control_c, 12, 64, 127
14, 11019, Control_c, 12, 64, 0
14, 11020, Control_c, 12, 64, 127
14, 11023, Control_c, 12, 64, 0
14, 11043, Control_c, 12, 64, 127
14, 11282, Control_c, 12, 64, 0
14, 11298, Control_c, 12, 64, 127
14, 11300, Control_c, 12, 64, 0
14, 11303, Control_c, 12, 64, 127
14, 11511, Control_c, 12, 64, 0
14, 11534, Control_c, 12, 64, 127
14, 11767, Control_c, 12, 64, 0
14, 11787, Control_c, 12, 64, 127
14, 11998, Control_c, 12, 64, 0
14, 12016, Control_c, 12, 64, 127
14, 12017, Control_c, 12, 64, 0
14, 12020, Control_c, 12, 64, 127
14, 12230, Control_c, 12, 64, 0
14, 12234, Control_c, 12, 64, 127
14, 12234, Control_c, 12, 64, 0
14, 12258, Control_c, 12, 64, 127
14, 12480, Control_c, 12, 64, 0
14, 12499, Control_c, 12, 64, 127
14, 12747, Control_c, 12, 64, 0
14, 12748, Control_c, 12, 64, 127
14, 12752, Control_c, 12, 64, 0
14, 12960, Note_on_c, 12, 48, 72
14, 12980, Control_c, 12, 64, 127
14, 12989, Note_on_c, 12, 48, 0
14, 12990, Note_on_c, 12, 50, 78
14, 13019, Note_on_c, 12, 50, 0
14, 13020, Note_on_c, 12, 51, 73
14, 13049, Note_on_c, 12, 51, 0
14, 13050, Note_on_c, 12, 55, 77
14, 13079, Note_on_c, 12, 55, 0
14, 13080, Note_on_c, 12, 53, 78
14, 13109, Note_on_c, 12, 53, 0
14, 13110, Note_on_c, 12, 55, 78
14, 13139, Note_on_c, 12, 55, 0
14, 13140, Note_on_c, 12, 56, 79
14, 13169, Note_on_c, 12, 56, 0
14, 13170, Note_on_c, 12, 60, 80
14, 13199, Note_on_c, 12, 60, 0
14, 13200, Note_on_c, 12, 60, 72
14, 13229, Note_on_c, 12, 60, 0
14, 13230, Note_on_c, 12, 62, 78
14, 13259, Note_on_c, 12, 62, 0
14, 13260, Note_on_c, 12, 63, 73
14, 13289, Note_on_c, 12, 63, 0
14, 13290, Note_on_c, 12, 67, 79
14, 13319, Note_on_c, 12, 67, 0
14, 13320, Note_on_c, 12, 65, 76
14, 13349, Note_on_c, 12, 65, 0
14, 13350, Note_on_c, 12, 67, 76
14, 13379, Note_on_c, 12, 67, 0
14, 13380, Note_on_c, 12, 68, 76
14, 13409, Note_on_c, 12, 68, 0
14, 13410, Note_on_c, 12, 72, 83
14, 13426, Control_c, 12, 64, 0
14, 13439, Note_on_c, 12, 72, 0
14, 13440, Note_on_c, 12, 72, 51
14, 13463, Control_c, 12, 64, 127
14, 13469, Note_on_c, 12, 72, 0
14, 13470, Note_on_c, 12, 74, 83
14, 13499, Note_on_c, 12, 74, 0
14, 13500, Note_on_c, 12, 75, 77
14, 13529, Note_on_c, 12, 75, 0
14, 13530, Note_on_c, 12, 79, 85
14, 13559, Note_on_c, 12, 79, 0
14, 13560, Note_on_c, 12, 77, 76
14, 13589, Note_on_c, 12, 77, 0
14, 13590, Note_on_c, 12, 79, 85
14, 13619, Note_on_c, 12, 79, 0
14, 13620, Note_on_c, 12, 80, 75
14, 13649, Note_on_c, 12, 80, 0
14, 13650, Note_on_c, 12, 84, 87
14, 13679, Note_on_c, 12, 84, 0
14, 13680, Note_on_c, 12, 84, 82
14, 13709, Note_on_c, 12, 84, 0
14, 13710, Note_on_c, 12, 86, 87
14, 13739, Note_on_c, 12, 86, 0
14, 13740, Note_on_c, 12, 87, 80
14, 13769, Note_on_c, 12, 87, 0
14, 13770, Note_on_c, 12, 91, 78
14, 13799, Note_on_c, 12, 91, 0
14, 13800, Note_on_c, 12, 89, 81
14, 13829, Note_on_c, 12, 89, 0
14, 13830, Note_on_c, 12, 91, 76
14, 13859, Note_on_c, 12, 91, 0
14, 13860, Note_on_c, 12, 92, 78
14, 13889, Note_on_c, 12, 92, 0
14, 13890, Note_on_c, 12, 96, 82
14, 13919, Note_on_c, 12, 96, 0
14, 13920, Note_on_c, 12, 99, 86
14, 13949, Note_on_c, 12, 99, 0
14, 13950, Note_on_c, 12, 101, 78
14, 13979, Note_on_c, 12, 101, 0
14, 13980, Note_on_c, 12, 103, 76
14, 14009, Note_on_c, 12, 103, 0
14, 14010, Note_on_c, 12, 96, 81
14, 14039, Note_on_c, 12, 96, 0
14, 14040, Note_on_c, 12, 95, 78
14, 14069, Note_on_c, 12, 95, 0
14, 14070, Note_on_c, 12, 96, 79
14, 14099, Note_on_c, 12, 96, 0
14, 14100, Note_on_c, 12, 98, 82
14, 14129, Note_on_c, 12, 98, 0
14, 14130, Note_on_c, 12, 89, 77
14, 14159, Note_on_c, 12, 89, 0
14, 14160, Note_on_c, 12, 87, 83
14, 14189, Note_on_c, 12, 87, 0
14, 14190, Note_on_c, 12, 89, 76
14, 14219, Note_on_c, 12, 89, 0
14, 14220, Note_on_c, 12, 91, 77
14, 14249, Note_on_c, 12, 91, 0
14, 14250, Note_on_c, 12, 84, 82
14, 14279, Note_on_c, 12, 84, 0
14, 14280, Note_on_c, 12, 83, 79
14, 14309, Note_on_c, 12, 83, 0
14, 14310, Note_on_c, 12, 84, 69
14, 14339, Note_on_c, 12, 84, 0
14, 14340, Note_on_c, 12, 86, 76
14, 14369, Note_on_c, 12, 86, 0
14, 14370, Note_on_c, 12, 77, 76
14, 14399, Note_on_c, 12, 77, 0
14, 14400, Note_on_c, 12, 75, 78
14, 14429, Note_on_c, 12, 75, 0
14, 14430, Note_on_c, 12, 77, 78
14, 14459, Note_on_c, 12, 77, 0
14, 14460, Note_on_c, 12, 79, 77
14, 14489, Note_on_c, 12, 79, 0
14, 14490, Note_on_c, 12, 72, 78
14, 14519, Note_on_c, 12, 72, 0
14, 14520, Note_on_c, 12, 74, 82
14, 14549, Note_on_c, 12, 74, 0
14, 14550, Note_on_c, 12, 72, 82
14, 14579, Note_on_c, 12, 72, 0
14, 14580, Note_on_c, 12, 71, 77
14, 14609, Note_on_c, 12, 71, 0
14, 14610, Note_on_c, 12, 69, 79
14, 14639, Note_on_c, 12, 69, 0
14, 14640, Note_on_c, 12, 72, 78
14, 14669, Note_on_c, 12, 72, 0
14, 14670, Note_on_c, 12, 71, 74
14, 14699, Note_on_c, 12, 71, 0
14, 14700, Note_on_c, 12, 69, 80
14, 14729, Note_on_c, 12, 69, 0
14, 14730, Note_on_c, 12, 67, 83
14, 14759, Note_on_c, 12, 67, 0
14, 14760, Note_on_c, 12, 67, 78
14, 14789, Note_on_c, 12, 67, 0
14, 14790, Note_on_c, 12, 65, 79
14, 14819, Note_on_c, 12, 65, 0
14, 14820, Note_on_c, 12, 63, 78
14, 14849, Note_on_c, 12, 63, 0
14, 14850, Note_on_c, 12, 62, 79
14, 14879, Note_on_c, 12, 62, 0
14, 14880, Note_on_c, 12, 60, 71
14, 14889, Control_c, 12, 64, 0
14, 14891, Control_c, 12, 64, 127
14, 14894, Control_c, 12, 64, 0
14, 14909, Note_on_c, 12, 60, 0
14, 14910, Note_on_c, 12, 62, 82
14, 14921, Control_c, 12, 64, 127
14, 14939, Note_on_c, 12, 62, 0
14, 14940, Note_on_c, 12, 63, 73
14, 14969, Note_on_c, 12, 63, 0
14, 14970, Note_on_c, 12, 67, 82
14, 14999, Note_on_c, 12, 67, 0
14, 15000, Note_on_c, 12, 65, 79
14, 15029, Note_on_c, 12, 65, 0
14, 15030, Note_on_c, 12, 67, 78
14, 15059, Note_on_c, 12, 67, 0
14, 15060, Note_on_c, 12, 68, 69
14, 15089, Note_on_c, 12, 68, 0
14, 15090, Note_on_c, 12, 72, 84
14, 15119, Note_on_c, 12, 72, 0
14, 15120, Note_on_c, 12, 72, 82
14, 15149, Note_on_c, 12, 72, 0
14, 15150, Note_on_c, 12, 74, 82
14, 15179, Note_on_c, 12, 74, 0
14, 15180, Note_on_c, 12, 75, 75
14, 15209, Note_on_c, 12, 75, 0
14, 15210, Note_on_c, 12, 79, 90
14, 15239, Note_on_c, 12, 79, 0
14, 15240, Note_on_c, 12, 77, 85
14, 15269, Note_on_c, 12, 77, 0
14, 15270, Note_on_c, 12, 79, 83
14, 15299, Note_on_c, 12, 79, 0
14, 15300, Note_on_c, 12, 80, 76
14, 15329, Note_on_c, 12, 80, 0
14, 15330, Note_on_c, 12, 84, 91
14, 15359, Note_on_c, 12, 84, 0
14, 15360, Note_on_c, 12, 72, 83
14, 15389, Note_on_c, 12, 72, 0
14, 15390, Note_on_c, 12, 74, 84
14, 15419, Note_on_c, 12, 74, 0
14, 15420, Note_on_c, 12, 75, 78
14, 15449, Note_on_c, 12, 75, 0
14, 15450, Note_on_c, 12, 79, 93
14, 15479, Note_on_c, 12, 79, 0
14, 15480, Note_on_c, 12, 77, 76
14, 15509, Note_on_c, 12, 77, 0
14, 15510, Note_on_c, 12, 79, 82
14, 15539, Note_on_c, 12, 79, 0
14, 15540, Note_on_c, 12, 80, 77
14, 15569, Note_on_c, 12, 80, 0
14, 15570, Note_on_c, 12, 84, 90
14, 15599, Note_on_c, 12, 84, 0
14, 15600, Note_on_c, 12, 84, 83
14, 15629, Note_on_c, 12, 84, 0
14, 15630, Note_on_c, 12, 86, 82
14, 15659, Note_on_c, 12, 86, 0
14, 15660, Note_on_c, 12, 87, 76
14, 15689, Note_on_c, 12, 87, 0
14, 15690, Note_on_c, 12, 91, 85
14, 15719, Note_on_c, 12, 91, 0
14, 15720, Note_on_c, 12, 89, 82
14, 15749, Note_on_c, 12, 89, 0
14, 15750, Note_on_c, 12, 91, 82
14, 15779, Note_on_c, 12, 91, 0
14, 15780, Note_on_c, 12, 92, 78
14, 15809, Note_on_c, 12, 92, 0
14, 15810, Note_on_c, 12, 96, 88
14, 15839, Note_on_c, 12, 96, 0
14, 15840, Note_on_c, 12, 99, 74
14, 15869, Note_on_c, 12, 99, 0
14, 15870, Note_on_c, 12, 101, 74
14, 15899, Note_on_c, 12, 101, 0
14, 15900, Note_on_c, 12, 103, 78
14, 15929, Note_on_c, 12, 103, 0
14, 15930, Note_on_c, 12, 96, 81
14, 15959, Note_on_c, 12, 96, 0
14, 15960, Note_on_c, 12, 95, 75
14, 15989, Note_on_c, 12, 95, 0
14, 15990, Note_on_c, 12, 96, 82
14, 16019, Note_on_c, 12, 96, 0
14, 16020, Note_on_c, 12, 98, 80
14, 16049, Note_on_c, 12, 98, 0
14, 16050, Note_on_c, 12, 89, 83
14, 16079, Note_on_c, 12, 89, 0
14, 16080, Note_on_c, 12, 87, 80
14, 16109, Note_on_c, 12, 87, 0
14, 16110, Note_on_c, 12, 89, 72
14, 16139, Note_on_c, 12, 89, 0
14, 16140, Note_on_c, 12, 91, 76
14, 16169, Note_on_c, 12, 91, 0
14, 16170, Note_on_c, 12, 84, 79
14, 16199, Note_on_c, 12, 84, 0
14, 16200, Note_on_c, 12, 83, 78
14, 16229, Note_on_c, 12, 83, 0
14, 16230, Note_on_c, 12, 84, 73
14, 16259, Note_on_c, 12, 84, 0
14, 16260, Note_on_c, 12, 86, 74
14, 16289, Note_on_c, 12, 86, 0
14, 16290, Note_on_c, 12, 77, 78
14, 16319, Note_on_c, 12, 77, 0
14, 16320, Note_on_c, 12, 75, 77
14, 16349, Note_on_c, 12, 75, 0
14, 16350, Note_on_c, 12, 77, 78
14, 16379, Note_on_c, 12, 77, 0
14, 16380, Note_on_c, 12, 79, 76
14, 16409, Note_on_c, 12, 79, 0
14, 16410, Note_on_c, 12, 72, 78
14, 16439, Note_on_c, 12, 72, 0
14, 16440, Note_on_c, 12, 74, 79
14, 16469, Note_on_c, 12, 74, 0
14, 16470, Note_on_c, 12, 72, 82
14, 16499, Note_on_c, 12, 72, 0
14, 16500, Note_on_c, 12, 71, 82
14, 16529, Note_on_c, 12, 71, 0
14, 16530, Note_on_c, 12, 69, 82
14, 16559, Note_on_c, 12, 69, 0
14, 16560, Note_on_c, 12, 72, 80
14, 16589, Note_on_c, 12, 72, 0
14, 16590, Note_on_c, 12, 71, 77
14, 16619, Note_on_c, 12, 71, 0
14, 16620, Note_on_c, 12, 69, 79
14, 16649, Note_on_c, 12, 69, 0
14, 16650, Note_on_c, 12, 67, 83
14, 16679, Note_on_c, 12, 67, 0
14, 16680, Note_on_c, 12, 67, 82
14, 16709, Note_on_c, 12, 67, 0
14, 16710, Note_on_c, 12, 65, 82
14, 16739, Note_on_c, 12, 65, 0
14, 16740, Note_on_c, 12, 63, 73
14, 16769, Note_on_c, 12, 63, 0
14, 16770, Note_on_c, 12, 62, 85
14, 16791, Control_c, 12, 64, 0
14, 16799, Note_on_c, 12, 62, 0
14, 16800, Note_on_c, 12, 60, 76
14, 16829, Note_on_c, 12, 60, 0
14, 16830, Control_c, 12, 64, 127
14, 16830, Note_on_c, 12, 58, 74
14, 16859, Note_on_c, 12, 58, 0
14, 16860, Note_on_c, 12, 56, 76
14, 16889, Note_on_c, 12, 56, 0
14, 16890, Note_on_c, 12, 55, 82
14, 16919, Note_on_c, 12, 55, 0
14, 16920, Note_on_c, 12, 53, 79
14, 16949, Note_on_c, 12, 53, 0
14, 16950, Note_on_c, 12, 56, 73
14, 16979, Note_on_c, 12, 56, 0
14, 16980, Note_on_c, 12, 60, 78
14, 17009, Note_on_c, 12, 60, 0
14, 17010, Note_on_c, 12, 65, 84
14, 17039, Note_on_c, 12, 65, 0
14, 17040, Note_on_c, 12, 72, 87
14, 17069, Note_on_c, 12, 72, 0
14, 17070, Note_on_c, 12, 70, 78
14, 17099, Note_on_c, 12, 70, 0
14, 17100, Note_on_c, 12, 68, 78
14, 17129, Note_on_c, 12, 68, 0
14, 17130, Note_on_c, 12, 67, 81
14, 17159, Note_on_c, 12, 67, 0
14, 17160, Note_on_c, 12, 65, 76
14, 17189, Note_on_c, 12, 65, 0
14, 17190, Note_on_c, 12, 68, 74
14, 17219, Note_on_c, 12, 68, 0
14, 17220, Note_on_c, 12, 72, 83
14, 17249, Note_on_c, 12, 72, 0
14, 17250, Note_on_c, 12, 77, 87
14, 17279, Note_on_c, 12, 77, 0
14, 17280, Note_on_c, 12, 62, 82
14, 17309, Note_on_c, 12, 62, 0
14, 17310, Note_on_c, 12, 60, 74
14, 17339, Note_on_c, 12, 60, 0
14, 17340, Note_on_c, 12, 59, 80
14, 17369, Note_on_c, 12, 59, 0
14, 17370, Note_on_c, 12, 57, 80
14, 17399, Note_on_c, 12, 57, 0
14, 17400, Note_on_c, 12, 55, 79
14, 17429, Note_on_c, 12, 55, 0
14, 17430, Note_on_c, 12, 59, 82
14, 17459, Note_on_c, 12, 59, 0
14, 17460, Note_on_c, 12, 62, 85
14, 17489, Note_on_c, 12, 62, 0
14, 17490, Note_on_c, 12, 67, 83
14, 17519, Note_on_c, 12, 67, 0
14, 17520, Note_on_c, 12, 74, 76
14, 17549, Note_on_c, 12, 74, 0
14, 17550, Note_on_c, 12, 72, 84
14, 17579, Note_on_c, 12, 72, 0
14, 17580, Note_on_c, 12, 71, 76
14, 17609, Note_on_c, 12, 71, 0
14, 17610, Note_on_c, 12, 69, 83
14, 17639, Note_on_c, 12, 69, 0
14, 17640, Note_on_c, 12, 67, 78
14, 17669, Note_on_c, 12, 67, 0
14, 17670, Note_on_c, 12, 71, 78
14, 17699, Note_on_c, 12, 71, 0
14, 17700, Note_on_c, 12, 74, 85
14, 17729, Note_on_c, 12, 74, 0
14, 17730, Note_on_c, 12, 79, 90
14, 17759, Note_on_c, 12, 79, 0
14, 17760, Note_on_c, 12, 63, 78
14, 17789, Note_on_c, 12, 63, 0
14, 17790, Note_on_c, 12, 62, 83
14, 17819, Note_on_c, 12, 62, 0
14, 17820, Note_on_c, 12, 60, 77
14, 17849, Note_on_c, 12, 60, 0
14, 17850, Note_on_c, 12, 58, 77
14, 17879, Note_on_c, 12, 58, 0
14, 17880, Note_on_c, 12, 56, 76
14, 17909, Note_on_c, 12, 56, 0
14, 17910, Note_on_c, 12, 60, 76
14, 17939, Note_on_c, 12, 60, 0
14, 17940, Note_on_c, 12, 63, 75
14, 17969, Note_on_c, 12, 63, 0
14, 17970, Note_on_c, 12, 68, 83
14, 17999, Note_on_c, 12, 68, 0
14, 18000, Note_on_c, 12, 75, 82
14, 18029, Note_on_c, 12, 75, 0
14, 18030, Note_on_c, 12, 74, 87
14, 18059, Note_on_c, 12, 74, 0
14, 18060, Note_on_c, 12, 72, 85
14, 18089, Note_on_c, 12, 72, 0
14, 18090, Note_on_c, 12, 70, 75
14, 18119, Note_on_c, 12, 70, 0
14, 18120, Note_on_c, 12, 68, 78
14, 18149, Note_on_c, 12, 68, 0
14, 18150, Note_on_c, 12, 72, 86
14, 18179, Note_on_c, 12, 72, 0
14, 18180, Note_on_c, 12, 75, 86
14, 18209, Note_on_c, 12, 75, 0
14, 18210, Note_on_c, 12, 80, 87
14, 18239, Note_on_c, 12, 80, 0
14, 18240, Note_on_c, 12, 65, 83
14, 18269, Note_on_c, 12, 65, 0
14, 18270, Note_on_c, 12, 63, 70
14, 18299, Note_on_c, 12, 63, 0
14, 18300, Note_on_c, 12, 62, 82
14, 18329, Note_on_c, 12, 62, 0
14, 18330, Note_on_c, 12, 60, 78
14, 18359, Note_on_c, 12, 60, 0
14, 18360, Note_on_c, 12, 58, 63
14, 18389, Note_on_c, 12, 58, 0
14, 18390, Note_on_c, 12, 62, 78
14, 18419, Note_on_c, 12, 62, 0
14, 18420, Note_on_c, 12, 65, 79
14, 18449, Note_on_c, 12, 65, 0
14, 18450, Note_on_c, 12, 70, 78
14, 18479, Note_on_c, 12, 70, 0
14, 18480, Note_on_c, 12, 77, 60
14, 18509, Note_on_c, 12, 77, 0
14, 18510, Note_on_c, 12, 75, 81
14, 18539, Note_on_c, 12, 75, 0
14, 18540, Note_on_c, 12, 74, 78
14, 18569, Note_on_c, 12, 74, 0
14, 18570, Note_on_c, 12, 72, 79
14, 18599, Note_on_c, 12, 72, 0
14, 18600, Note_on_c, 12, 70, 86
14, 18629, Note_on_c, 12, 70, 0
14, 18630, Note_on_c, 12, 74, 89
14, 18659, Note_on_c, 12, 74, 0
14, 18660, Note_on_c, 12, 77, 81
14, 18689, Note_on_c, 12, 77, 0
14, 18690, Note_on_c, 12, 82, 95
14, 18719, Note_on_c, 12, 82, 0
14, 18720, Note_on_c, 12, 65, 82
14, 18749, Note_on_c, 12, 65, 0
14, 18750, Note_on_c, 12, 64, 78
14, 18779, Note_on_c, 12, 64, 0
14, 18780, Note_on_c, 12, 62, 82
14, 18809, Note_on_c, 12, 62, 0
14, 18810, Note_on_c, 12, 60, 78
14, 18839, Note_on_c, 12, 60, 0
14, 18840, Note_on_c, 12, 59, 84
14, 18869, Note_on_c, 12, 59, 0
14, 18870, Note_on_c, 12, 62, 71
14, 18899, Note_on_c, 12, 62, 0
14, 18900, Note_on_c, 12, 65, 82
14, 18929, Note_on_c, 12, 65, 0
14, 18930, Note_on_c, 12, 71, 78
14, 18959, Note_on_c, 12, 71, 0
14, 18960, Note_on_c, 12, 69, 82
14, 18989, Note_on_c, 12, 69, 0
14, 18990, Note_on_c, 12, 67, 69
14, 19019, Note_on_c, 12, 67, 0
14, 19020, Note_on_c, 12, 65, 71
14, 19049, Note_on_c, 12, 65, 0
14, 19050, Note_on_c, 12, 64, 73
14, 19079, Note_on_c, 12, 64, 0
14, 19080, Note_on_c, 12, 62, 78
14, 19109, Note_on_c, 12, 62, 0
14, 19110, Note_on_c, 12, 65, 78
14, 19139, Note_on_c, 12, 65, 0
14, 19140, Note_on_c, 12, 71, 82
14, 19169, Note_on_c, 12, 71, 0
14, 19170, Note_on_c, 12, 74, 82
14, 19199, Note_on_c, 12, 74, 0
14, 19200, Note_on_c, 12, 77, 82
14, 19229, Note_on_c, 12, 77, 0
14, 19230, Note_on_c, 12, 76, 68
14, 19259, Note_on_c, 12, 76, 0
14, 19260, Note_on_c, 12, 74, 76
14, 19289, Note_on_c, 12, 74, 0
14, 19290, Note_on_c, 12, 72, 77
14, 19319, Note_on_c, 12, 72, 0
14, 19320, Note_on_c, 12, 71, 81
14, 19349, Note_on_c, 12, 71, 0
14, 19350, Note_on_c, 12, 74, 79
14, 19379, Note_on_c, 12, 74, 0
14, 19380, Note_on_c, 12, 77, 78
14, 19409, Note_on_c, 12, 77, 0
14, 19410, Note_on_c, 12, 83, 82
14, 19439, Note_on_c, 12, 83, 0
14, 19440, Note_on_c, 12, 81, 84
14, 19469, Note_on_c, 12, 81, 0
14, 19470, Note_on_c, 12, 79, 63
14, 19499, Note_on_c, 12, 79, 0
14, 19500, Note_on_c, 12, 77, 76
14, 19529, Note_on_c, 12, 77, 0
14, 19530, Note_on_c, 12, 76, 76
14, 19559, Note_on_c, 12, 76, 0
14, 19560, Note_on_c, 12, 74, 82
14, 19589, Note_on_c, 12, 74, 0
14, 19590, Note_on_c, 12, 77, 80
14, 19619, Note_on_c, 12, 77, 0
14, 19620, Note_on_c, 12, 83, 82
14, 19649, Note_on_c, 12, 83, 0
14, 19650, Note_on_c, 12, 86, 80
14, 19679, Note_on_c, 12, 86, 0
14, 19680, Note_on_c, 12, 89, 84
14, 19709, Note_on_c, 12, 89, 0
14, 19710, Note_on_c, 12, 88, 78
14, 19739, Note_on_c, 12, 88, 0
14, 19740, Note_on_c, 12, 86, 84
14, 19769, Note_on_c, 12, 86, 0
14, 19770, Note_on_c, 12, 84, 78
14, 19799, Note_on_c, 12, 84, 0
14, 19800, Note_on_c, 12, 83, 82
14, 19829, Note_on_c, 12, 83, 0
14, 19830, Note_on_c, 12, 86, 79
14, 19859, Note_on_c, 12, 86, 0
14, 19860, Note_on_c, 12, 89, 79
14, 19889, Note_on_c, 12, 89, 0
14, 19890, Note_on_c, 12, 95, 81
14, 19919, Note_on_c, 12, 95, 0
14, 19920, Note_on_c, 12, 93, 81
14, 19949, Note_on_c, 12, 93, 0
14, 19950, Note_on_c, 12, 91, 74
14, 19979, Note_on_c, 12, 91, 0
14, 19980, Note_on_c, 12, 89, 74
14, 20009, Note_on_c, 12, 89, 0
14, 20010, Note_on_c, 12, 88, 72
14, 20039, Note_on_c, 12, 88, 0
14, 20040, Note_on_c, 12, 86, 74
14, 20069, Note_on_c, 12, 86, 0
14, 20070, Note_on_c, 12, 89, 76
14, 20099, Note_on_c, 12, 89, 0
14, 20100, Note_on_c, 12, 95, 79
14, 20129, Note_on_c, 12, 95, 0
14, 20130, Note_on_c, 12, 98, 83
14, 20159, Note_on_c, 12, 98, 0
14, 20160, Note_on_c, 12, 93, 73
14, 20160, Note_on_c, 12, 101, 88
14, 20189, Note_on_c, 12, 93, 0
14, 20189, Note_on_c, 12, 101, 0
14, 20190, Note_on_c, 12, 100, 86
14, 20190, Note_on_c, 12, 91, 77
14, 20219, Note_on_c, 12, 100, 0
14, 20219, Note_on_c, 12, 91, 0
14, 20220, Note_on_c, 12, 89, 74
14, 20220, Note_on_c, 12, 98, 83
14, 20249, Note_on_c, 12, 89, 0
14, 20249, Note_on_c, 12, 98, 0
14, 20250, Note_on_c, 12, 88, 74
14, 20250, Note_on_c, 12, 96, 85
14, 20279, Note_on_c, 12, 88, 0
14, 20279, Note_on_c, 12, 96, 0
14, 20280, Note_on_c, 12, 95, 78
14, 20280, Note_on_c, 12, 86, 75
14, 20309, Note_on_c, 12, 95, 0
14, 20309, Note_on_c, 12, 86, 0
14, 20310, Note_on_c, 12, 84, 85
14, 20310, Note_on_c, 12, 93, 82
14, 20339, Note_on_c, 12, 84, 0
14, 20339, Note_on_c, 12, 93, 0
14, 20340, Note_on_c, 12, 83, 74
14, 20340, Note_on_c, 12, 91, 79
14, 20369, Note_on_c, 12, 83, 0
14, 20369, Note_on_c, 12, 91, 0
14, 20370, Note_on_c, 12, 89, 79
14, 20370, Note_on_c, 12, 81, 71
14, 20399, Note_on_c, 12, 89, 0
14, 20399, Note_on_c, 12, 81, 0
14, 20400, Note_on_c, 12, 79, 72
14, 20400, Note_on_c, 12, 88, 85
14, 20429, Note_on_c, 12, 79, 0
14, 20429, Note_on_c, 12, 88, 0
14, 20430, Note_on_c, 12, 77, 71
14, 20430, Note_on_c, 12, 86, 71
14, 20459, Note_on_c, 12, 77, 0
14, 20459, Note_on_c, 12, 86, 0
14, 20460, Note_on_c, 12, 84, 80
14, 20460, Note_on_c, 12, 76, 69
14, 20489, Note_on_c, 12, 84, 0
14, 20489, Note_on_c, 12, 76, 0
14, 20490, Note_on_c, 12, 83, 78
14, 20490, Note_on_c, 12, 74, 79
14, 20519, Note_on_c, 12, 83, 0
14, 20519, Note_on_c, 12, 74, 0
14, 20520, Note_on_c, 12, 72, 76
14, 20520, Note_on_c, 12, 81, 82
14, 20549, Note_on_c, 12, 72, 0
14, 20549, Note_on_c, 12, 81, 0
14, 20550, Note_on_c, 12, 79, 82
14, 20550, Note_on_c, 12, 71, 72
14, 20579, Note_on_c, 12, 79, 0
14, 20579, Note_on_c, 12, 71, 0
14, 20580, Note_on_c, 12, 77, 78
14, 20580, Note_on_c, 12, 69, 78
14, 20609, Note_on_c, 12, 77, 0
14, 20609, Note_on_c, 12, 69, 0
14, 20610, Note_on_c, 12, 67, 74
14, 20610, Note_on_c, 12, 76, 81
14, 20639, Note_on_c, 12, 67, 0
14, 20639, Note_on_c, 12, 76, 0
14, 20640, Note_on_c, 12, 74, 78
14, 20640, Note_on_c, 12, 65, 66
14, 20669, Note_on_c, 12, 74, 0
14, 20669, Note_on_c, 12, 65, 0
14, 20670, Note_on_c, 12, 72, 76
14, 20670, Note_on_c, 12, 64, 69
14, 20699, Note_on_c, 12, 72, 0
14, 20699, Note_on_c, 12, 64, 0
14, 20700, Note_on_c, 12, 62, 69
14, 20700, Note_on_c, 12, 71, 75
14, 20729, Note_on_c, 12, 62, 0
14, 20729, Note_on_c, 12, 71, 0
14, 20730, Note_on_c, 12, 60, 64
14, 20730, Note_on_c, 12, 69, 72
14, 20759, Note_on_c, 12, 60, 0
14, 20759, Note_on_c, 12, 69, 0
14, 20760, Note_on_c, 12, 59, 61
14, 20760, Note_on_c, 12, 67, 69
14, 20789, Note_on_c, 12, 59, 0
14, 20789, Note_on_c, 12, 67, 0
14, 20790, Note_on_c, 12, 57, 69
14, 20790, Note_on_c, 12, 65, 73
14, 20819, Note_on_c, 12, 57, 0
14, 20819, Note_on_c, 12, 65, 0
14, 20820, Note_on_c, 12, 64, 68
14, 20820, Note_on_c, 12, 55, 60
14, 20849, Note_on_c, 12, 64, 0
14, 20849, Note_on_c, 12, 55, 0
14, 20850, Note_on_c, 12, 53, 68
14, 20850, Note_on_c, 12, 62, 68
14, 20879, Note_on_c, 12, 53, 0
14, 20879, Note_on_c, 12, 62, 0
14, 20880, Note_on_c, 12, 60, 64
14, 20880, Note_on_c, 12, 52, 69
14, 20909, Note_on_c, 12, 60, 0
14, 20909, Note_on_c, 12, 52, 0
14, 20910, Note_on_c, 12, 50, 69
14, 20910, Note_on_c, 12, 59, 76
14, 20939, Note_on_c, 12, 50, 0
14, 20939, Note_on_c, 12, 59, 0
14, 20940, Note_on_c, 12, 57, 79
14, 20940, Note_on_c, 12, 48, 76
14, 20969, Note_on_c, 12, 57, 0
14, 20969, Note_on_c, 12, 48, 0
14, 20970, Note_on_c, 12, 55, 76
14, 20970, Note_on_c, 12, 47, 71
14, 20999, Note_on_c, 12, 55, 0
14, 20999, Note_on_c, 12, 47, 0
14, 21000, Note_on_c, 12, 45, 78
14, 21000, Note_on_c, 12, 53, 82
14, 21029, Note_on_c, 12, 45, 0
14, 21029, Note_on_c, 12, 53, 0
14, 21030, Note_on_c, 12, 52, 84
14, 21030, Note_on_c, 12, 43, 76
14, 21059, Note_on_c, 12, 52, 0
14, 21059, Note_on_c, 12, 43, 0
14, 21060, Note_on_c, 12, 50, 78
14, 21060, Note_on_c, 12, 41, 73
14, 21089, Note_on_c, 12, 50, 0
14, 21089, Note_on_c, 12, 41, 0
14, 21090, Note_on_c, 12, 38, 78
14, 21090, Note_on_c, 12, 47, 69
14, 21119, Note_on_c, 12, 38, 0
14, 21119, Note_on_c, 12, 47, 0
14, 21120, Note_on_c, 12, 36, 81
14, 21120, Note_on_c, 12, 48, 83
14, 21179, Note_on_c, 12, 36, 0
14, 21179, Note_on_c, 12, 48, 0
14, 21220, Control_c, 12, 64, 0
14, 21222, Control_c, 12, 64, 127
14, 21228, Control_c, 12, 64, 0
14, 21263, Control_c, 12, 64, 127
14, 21327, Control_c, 12, 64, 0
14, 21332, Control_c, 12, 64, 127
14, 21334, Control_c, 12, 64, 0
14, 21362, Control_c, 12, 64, 127
14, 21364, Control_c, 12, 64, 0
14, 21378, Control_c, 12, 64, 127
14, 21450, Control_c, 12, 64, 0
14, 21485, Control_c, 12, 64, 127
14, 21564, Control_c, 12, 64, 0
14, 21573, Control_c, 12, 64, 127
14, 21576, Control_c, 12, 64, 0
14, 21606, Control_c, 12, 64, 127
14, 21686, Control_c, 12, 64, 0
14, 21713, Control_c, 12, 64, 127
14, 21715, Control_c, 12, 64, 0
14, 21724, Control_c, 12, 64, 127
14, 21802, Control_c, 12, 64, 0
14, 21843, Control_c, 12, 64, 127
14, 21930, Control_c, 12, 64, 0
14, 21963, Control_c, 12, 64, 127
14, 22038, Control_c, 12, 64, 0
14, 22079, Control_c, 12, 64, 127
14, 22167, Control_c, 12, 64, 0
14, 22199, Control_c, 12, 64, 127
14, 22281, Control_c, 12, 64, 0
14, 22284, Control_c, 12, 64, 127
14, 22285, Control_c, 12, 64, 0
14, 22322, Control_c, 12, 64, 127
14, 22401, Control_c, 12, 64, 0
14, 22405, Control_c, 12, 64, 127
14, 22407, Control_c, 12, 64, 0
14, 22432, Control_c, 12, 64, 127
14, 22520, Control_c, 12, 64, 0
14, 22559, Control_c, 12, 64, 127
14, 22654, Control_c, 12, 64, 0
14, 22657, Control_c, 12, 64, 127
14, 22659, Control_c, 12, 64, 0
14, 22676, Control_c, 12, 64, 127
14, 22677, Control_c, 12, 64, 0
14, 22683, Control_c, 12, 64, 127
14, 22747, Control_c, 12, 64, 0
14, 22793, Control_c, 12, 64, 127
14, 22797, Control_c, 12, 64, 0
14, 22800, Control_c, 12, 64, 127
14, 22901, Control_c, 12, 64, 0
14, 22925, Control_c, 12, 64, 127
14, 23003, Control_c, 12, 64, 0
14, 23040, Control_c, 12, 64, 127
14, 23128, Control_c, 12, 64, 0
14, 23159, Control_c, 12, 64, 127
14, 23246, Control_c, 12, 64, 0
14, 23272, Control_c, 12, 64, 127
14, 23360, Control_c, 12, 64, 0
14, 23398, Control_c, 12, 64, 127
14, 23496, Control_c, 12, 64, 0
14, 23526, Control_c, 12, 64, 127
14, 23622, Control_c, 12, 64, 0
14, 23650, Control_c, 12, 64, 127
14, 23721, Control_c, 12, 64, 0
14, 23761, Control_c, 12, 64, 127
14, 23850, Control_c, 12, 64, 0
14, 23855, Control_c, 12, 64, 127
14, 23856, Control_c, 12, 64, 0
14, 23889, Control_c, 12, 64, 127
14, 23976, Control_c, 12, 64, 0
14, 23980, Control_c, 12, 64, 127
14, 23981, Control_c, 12, 64, 0
14, 24024, Control_c, 12, 64, 127
14, 24026, Control_c, 12, 64, 0
14, 24060, Control_c, 12, 64, 127
14, 24102, Control_c, 12, 64, 0
14, 24137, Control_c, 12, 64, 127
14, 24141, Control_c, 12, 64, 0
14, 24154, Control_c, 12, 64, 127
14, 24180, Control_c, 12, 64, 0
14, 24274, Control_c, 12, 64, 127
14, 24330, Control_c, 12, 64, 0
14, 24347, Control_c, 12, 64, 127
14, 24350, Control_c, 12, 64, 0
14, 24392, Control_c, 12, 64, 127
14, 24434, Control_c, 12, 64, 0
14, 24506, Control_c, 12, 64, 127
14, 24589, Control_c, 12, 64, 0
14, 24624, Control_c, 12, 64, 127
14, 24706, Control_c, 12, 64, 0
14, 24735, Control_c, 12, 64, 127
14, 24736, Control_c, 12, 64, 0
14, 24744, Control_c, 12, 64, 127
14, 24802, Control_c, 12, 64, 0
14, 24854, Control_c, 12, 64, 127
14, 24856, Control_c, 12, 64, 0
14, 24865, Control_c, 12, 64, 127
14, 24895, Control_c, 12, 64, 0
14, 24960, Control_c, 12, 64, 127
14, 24960, Control_c, 12, 64, 0
14, 24960, Control_c, 12, 64, 127
14, 25010, Control_c, 12, 64, 0
14, 25075, Control_c, 12, 64, 127
14, 25138, Control_c, 12, 64, 0
14, 25202, Control_c, 12, 64, 127
14, 25291, Control_c, 12, 64, 0
14, 25294, Control_c, 12, 64, 127
14, 25296, Control_c, 12, 64, 0
14, 25299, Control_c, 12, 64, 127
14, 25300, Control_c, 12, 64, 0
14, 25320, Control_c, 12, 64, 127
14, 25322, Control_c, 12, 64, 0
14, 25328, Control_c, 12, 64, 127
14, 25413, Control_c, 12, 64, 0
14, 25440, Control_c, 12, 64, 127
14, 25442, Control_c, 12, 64, 0
14, 25448, Control_c, 12, 64, 127
14, 25506, Control_c, 12, 64, 0
14, 25560, Control_c, 12, 64, 127
14, 25562, Control_c, 12, 64, 0
14, 25567, Control_c, 12, 64, 127
14, 25645, Control_c, 12, 64, 0
14, 25661, Control_c, 12, 64, 127
14, 25664, Control_c, 12, 64, 0
14, 25702, Control_c, 12, 64, 127
14, 25781, Control_c, 12, 64, 0
14, 25817, Control_c, 12, 64, 127
14, 25880, Control_c, 12, 64, 0
14, 25927, Control_c, 12, 64, 127
14, 25928, Control_c, 12, 64, 0
14, 25934, Control_c, 12, 64, 127
14, 26013, Control_c, 12, 64, 0
14, 26019, Control_c, 12, 64, 127
14, 26021, Control_c, 12, 64, 0
14, 26056, Control_c, 12, 64, 127
14, 26148, Control_c, 12, 64, 0
14, 26179, Control_c, 12, 64, 127
14, 26220, Control_c, 12, 64, 0
14, 26282, Control_c, 12, 64, 127
14, 26378, Control_c, 12, 64, 0
14, 26419, Control_c, 12, 64, 127
14, 26501, Control_c, 12, 64, 0
14, 26541, Control_c, 12, 64, 127
14, 26612, Control_c, 12, 64, 0
14, 26651, Control_c, 12, 64, 127
14, 26738, Control_c, 12, 64, 0
14, 26773, Control_c, 12, 64, 127
14, 26853, Control_c, 12, 64, 0
14, 26857, Control_c, 12, 64, 127
14, 26857, Control_c, 12, 64, 0
14, 26889, Control_c, 12, 64, 127
14, 26982, Control_c, 12, 64, 0
14, 27019, Control_c, 12, 64, 127
14, 27098, Control_c, 12, 64, 0
14, 27136, Control_c, 12, 64, 127
14, 27219, Control_c, 12, 64, 0
14, 27221, Control_c, 12, 64, 127
14, 27224, Control_c, 12, 64, 0
14, 27254, Control_c, 12, 64, 127
14, 27357, Control_c, 12, 64, 0
14, 27377, Control_c, 12, 64, 127
14, 27379, Control_c, 12, 64, 0
14, 27385, Control_c, 12, 64, 127
14, 27462, Control_c, 12, 64, 0
14, 27503, Control_c, 12, 64, 127
14, 27594, Control_c, 12, 64, 0
14, 27598, Control_c, 12, 64, 127
14, 27600, Control_c, 12, 64, 0
14, 27631, Control_c, 12, 64, 127
14, 27710, Control_c, 12, 64, 0
14, 27740, Control_c, 12, 64, 127
14, 27742, Control_c, 12, 64, 0
14, 27746, Control_c, 12, 64, 127
14, 27837, Control_c, 12, 64, 0
14, 27840, Control_c, 12, 64, 127
14, 27841, Control_c, 12, 64, 0
14, 27845, Control_c, 12, 64, 127
14, 28060, Control_c, 12, 64, 0
14, 28092, Control_c, 12, 64, 127
14, 28292, Control_c, 12, 64, 0
14, 28297, Control_c, 12, 64, 127
14, 28298, Control_c, 12, 64, 0
14, 28321, Control_c, 12, 64, 127
14, 28324, Control_c, 12, 64, 0
14, 28328, Control_c, 12, 64, 127
14, 28541, Control_c, 12, 64, 0
14, 28575, Control_c, 12, 64, 127
14, 28769, Control_c, 12, 64, 0
14, 28811, Control_c, 12, 64, 127
14, 29010, Control_c, 12, 64, 0
14, 29015, Control_c, 12, 64, 127
14, 29015, Control_c, 12, 64, 0
14, 29039, Control_c, 12, 64, 127
14, 29041, Control_c, 12, 64, 0
14, 29045, Control_c, 12, 64, 127
14, 29271, Control_c, 12, 64, 0
14, 29286, Control_c, 12, 64, 127
14, 29492, Control_c, 12, 64, 0
14, 29528, Control_c, 12, 64, 127
14, 29743, Control_c, 12, 64, 0
14, 30720, Control_c, 12, 64, 127
14, 30720, Control_c, 12, 64, 0
14, 30720, Control_c, 12, 64, 127
14, 31174, Control_c, 12, 64, 0
14, 31181, Control_c, 12, 64, 127
14, 31181, Control_c, 12, 64, 0
14, 31210, Control_c, 12, 64, 127
14, 31398, Control_c, 12, 64, 0
14, 31436, Control_c, 12, 64, 127
14, 31638, Control_c, 12, 64, 0
14, 31676, Control_c, 12, 64, 127
14, 31680, Note_on_c, 12, 50, 82
14, 31680, Note_on_c, 12, 55, 85
14, 31680, Note_on_c, 12, 67, 100
14, 31680, Note_on_c, 12, 74, 98
14, 31680, Note_on_c, 12, 77, 85
14, 31680, Note_on_c, 12, 59, 87
14, 31680, Note_on_c, 12, 47, 83
14, 31680, Note_on_c, 12, 79, 97
14, 31730, Note_on_c, 12, 77, 0
14, 31731, Note_on_c, 12, 67, 0
14, 31733, Note_on_c, 12, 50, 0
14, 31733, Note_on_c, 12, 74, 0
14, 31736, Note_on_c, 12, 55, 0
14, 31740, Note_on_c, 12, 47, 0
14, 31740, Note_on_c, 12, 79, 0
14, 31744, Note_on_c, 12, 59, 0
14, 31800, Note_on_c, 12, 67, 81
14, 31800, Note_on_c, 12, 79, 82
14, 31826, Note_on_c, 12, 67, 0
14, 31829, Note_on_c, 12, 79, 0
14, 31837, Control_c, 12, 64, 0
14, 31860, Note_on_c, 12, 79, 77
14, 31860, Note_on_c, 12, 67, 74
14, 31886, Note_on_c, 12, 67, 0
14, 31888, Control_c, 12, 64, 127
14, 31892, Note_on_c, 12, 79, 0
14, 31920, Note_on_c, 12, 79, 84
14, 31920, Note_on_c, 12, 67, 76
14, 31947, Note_on_c, 12, 79, 0
14, 31947, Note_on_c, 12, 67, 0
14, 31980, Note_on_c, 12, 67, 70
14, 31980, Note_on_c, 12, 79, 60
14, 32003, Note_on_c, 12, 67, 0
14, 32004, Note_on_c, 12, 79, 0
14, 32040, Note_on_c, 12, 79, 90
14, 32040, Note_on_c, 12, 67, 78
14, 32064, Note_on_c, 12, 67, 0
14, 32071, Note_on_c, 12, 79, 0
14, 32100, Note_on_c, 12, 67, 76
14, 32100, Note_on_c, 12, 79, 79
14, 32108, Control_c, 12, 64, 0
14, 32109, Control_c, 12, 64, 127
14, 32114, Control_c, 12, 64, 0
14, 32128, Note_on_c, 12, 79, 0
14, 32135, Note_on_c, 12, 67, 0
14, 32145, Note_on_c, 12, 79, 101
14, 32149, Control_c, 12, 64, 127
14, 32160, Note_on_c, 12, 74, 87
14, 32160, Note_on_c, 12, 86, 100
14, 32171, Note_on_c, 12, 79, 0
14, 32200, Note_on_c, 12, 86, 0
14, 32208, Note_on_c, 12, 74, 0
14, 32280, Note_on_c, 12, 67, 88
14, 32280, Note_on_c, 12, 79, 96
14, 32310, Note_on_c, 12, 79, 0
14, 32312, Note_on_c, 12, 67, 0
14, 32340, Note_on_c, 12, 67, 72
14, 32340, Note_on_c, 12, 79, 78
14, 32367, Note_on_c, 12, 79, 0
14, 32371, Control_c, 12, 64, 0
14, 32373, Control_c, 12, 64, 127
14, 32375, Note_on_c, 12, 67, 0
14, 32379, Control_c, 12, 64, 0
14, 32400, Note_on_c, 12, 67, 83
14, 32400, Note_on_c, 12, 79, 98
14, 32411, Control_c, 12, 64, 127
14, 32428, Note_on_c, 12, 67, 0
14, 32428, Note_on_c, 12, 79, 0
14, 32460, Note_on_c, 12, 67, 72
14, 32460, Note_on_c, 12, 79, 79
14, 32486, Note_on_c, 12, 67, 0
14, 32487, Note_on_c, 12, 79, 0
14, 32520, Note_on_c, 12, 67, 87
14, 32520, Note_on_c, 12, 79, 98
14, 32549, Note_on_c, 12, 67, 0
14, 32550, Note_on_c, 12, 79, 0
14, 32580, Note_on_c, 12, 67, 78
14, 32580, Note_on_c, 12, 79, 82
14, 32601, Control_c, 12, 64, 0
14, 32602, Note_on_c, 12, 79, 0
14, 32608, Control_c, 12, 64, 127
14, 32608, Control_c, 12, 64, 0
14, 32618, Note_on_c, 12, 67, 0
14, 32625, Control_c, 12, 64, 127
14, 32625, Note_on_c, 12, 79, 94
14, 32628, Control_c, 12, 64, 0
14, 32629, Control_c, 12, 64, 127
14, 32631, Control_c, 12, 64, 0
14, 32633, Control_c, 12, 64, 127
14, 32640, Note_on_c, 12, 74, 94
14, 32640, Note_on_c, 12, 86, 97
14, 32652, Note_on_c, 12, 79, 0
14, 32679, Note_on_c, 12, 86, 0
14, 32690, Note_on_c, 12, 74, 0
14, 32760, Note_on_c, 12, 67, 84
14, 32760, Note_on_c, 12, 79, 100
14, 32791, Note_on_c, 12, 79, 0
14, 32792, Note_on_c, 12, 67, 0
14, 32820, Note_on_c, 12, 67, 81
14, 32820, Note_on_c, 12, 79, 92
14, 32849, Control_c, 12, 64, 0
14, 32860, Note_on_c, 12, 79, 0
14, 32863, Note_on_c, 12, 67, 0
14, 32880, Note_on_c, 12, 74, 88
14, 32880, Note_on_c, 12, 86, 98
14, 32889, Control_c, 12, 64, 127
14, 32933, Note_on_c, 12, 74, 0
14, 32933, Note_on_c, 12, 86, 0
14, 33000, Note_on_c, 12, 67, 88
14, 33000, Note_on_c, 12, 79, 96
14, 33029, Note_on_c, 12, 67, 0
14, 33039, Note_on_c, 12, 79, 0
14, 33060, Note_on_c, 12, 67, 75
14, 33060, Note_on_c, 12, 79, 90
14, 33091, Control_c, 12, 64, 0
14, 33094, Control_c, 12, 64, 127
14, 33095, Control_c, 12, 64, 0
14, 33100, Note_on_c, 12, 79, 0
14, 33101, Note_on_c, 12, 67, 0
14, 33120, Note_on_c, 12, 74, 83
14, 33120, Note_on_c, 12, 86, 101
14, 33121, Control_c, 12, 64, 127
14, 33130, Control_c, 12, 64, 0
14, 33130, Control_c, 12, 64, 127
14, 33170, Note_on_c, 12, 86, 0
14, 33172, Note_on_c, 12, 74, 0
14, 33240, Note_on_c, 12, 67, 84
14, 33240, Note_on_c, 12, 79, 100
14, 33267, Note_on_c, 12, 67, 0
14, 33270, Note_on_c, 12, 79, 0
14, 33300, Note_on_c, 12, 67, 74
14, 33300, Note_on_c, 12, 79, 91
14, 33322, Control_c, 12, 64, 0
14, 33325, Control_c, 12, 64, 127
14, 33327, Control_c, 12, 64, 0
14, 33341, Note_on_c, 12, 79, 0
14, 33347, Note_on_c, 12, 67, 0
14, 33359, Control_c, 12, 64, 127
14, 33360, Note_on_c, 12, 74, 86
14, 33360, Note_on_c, 12, 86, 97
14, 33410, Note_on_c, 12, 74, 0
14, 33410, Note_on_c, 12, 86, 0
14, 33480, Note_on_c, 12, 79, 107
14, 33480, Note_on_c, 12, 67, 97
14, 33510, Note_on_c, 12, 67, 0
14, 33512, Note_on_c, 12, 79, 0
14, 33540, Note_on_c, 12, 67, 86
14, 33540, Note_on_c, 12, 79, 105
14, 33571, Control_c, 12, 64, 0
14, 33573, Note_on_c, 12, 79, 0
14, 33584, Note_on_c, 12, 67, 0
14, 33600, Note_on_c, 12, 79, 98
14, 33600, Note_on_c, 12, 64, 87
14, 33600, Note_on_c, 12, 67, 90
14, 33600, Note_on_c, 12, 91, 88
14, 33600, Note_on_c, 12, 84, 101
14, 33600, Note_on_c, 12, 72, 82
14, 33600, Note_on_c, 12, 60, 75
14, 33624, Control_c, 12, 64, 127
14, 33624, Control_c, 12, 64, 0
14, 33624, Control_c, 12, 64, 127
14, 33641, Control_c, 12, 64, 0
14, 33643, Control_c, 12, 64, 127
14, 33645, Control_c, 12, 64, 0
14, 33654, Note_on_c, 12, 79, 0
14, 33654, Note_on_c, 12, 64, 0
14, 33656, Note_on_c, 12, 67, 0
14, 33656, Note_on_c, 12, 72, 0
14, 33658, Note_on_c, 12, 60, 0
14, 33659, Note_on_c, 12, 91, 0
14, 33659, Note_on_c, 12, 84, 0
14, 33686, Control_c, 12, 64, 127
14, 33688, Control_c, 12, 64, 0
14, 33693, Control_c, 12, 64, 127
14, 33701, Control_c, 12, 64, 0
14, 33742, Control_c, 12, 64, 127
14, 33846, Control_c, 12, 64, 0
14, 33875, Control_c, 12, 64, 127
14, 33922, Control_c, 12, 64, 0
14, 33943, Control_c, 12, 64, 127
14, 34045, Control_c, 12, 64, 0
14, 34049, Control_c, 12, 64, 127
14, 34049, Control_c, 12, 64, 0
14, 34077, Control_c, 12, 64, 127
14, 34168, Control_c, 12, 64, 0
14, 34170, Control_c, 12, 64, 127
14, 34173, Control_c, 12, 64, 0
14, 34207, Control_c, 12, 64, 127
14, 34271, Control_c, 12, 64, 0
14, 34306, Control_c, 12, 64, 127
14, 34397, Control_c, 12, 64, 0
14, 34430, Control_c, 12, 64, 127
14, 34522, Control_c, 12, 64, 0
14, 34561, Control_c, 12, 64, 127
14, 34651, Control_c, 12, 64, 0
14, 34652, Control_c, 12, 64, 127
14, 34655, Control_c, 12, 64, 0
14, 34675, Note_on_c, 12, 70, 82
14, 34680, Note_on_c, 12, 55, 78
14, 34680, Note_on_c, 12, 64, 76
14, 34680, Note_on_c, 12, 71, 78
14, 34692, Control_c, 12, 64, 127
14, 34703, Note_on_c, 12, 70, 0
14, 34714, Note_on_c, 12, 64, 0
14, 34717, Note_on_c, 12, 55, 0
14, 34718, Note_on_c, 12, 71, 0
14, 34766, Control_c, 12, 64, 0
14, 34768, Control_c, 12, 64, 127
14, 34771, Control_c, 12, 64, 0
14, 34790, Note_on_c, 12, 75, 81
14, 34800, Note_on_c, 12, 59, 82
14, 34800, Note_on_c, 12, 67, 82
14, 34800, Note_on_c, 12, 76, 90
14, 34802, Control_c, 12, 64, 127
14, 34825, Note_on_c, 12, 75, 0
14, 34827, Note_on_c, 12, 67, 0
14, 34829, Note_on_c, 12, 59, 0
14, 34844, Note_on_c, 12, 76, 0
14, 34890, Control_c, 12, 64, 0
14, 34909, Note_on_c, 12, 78, 80
14, 34917, Control_c, 12, 64, 127
14, 34920, Note_on_c, 12, 71, 86
14, 34920, Note_on_c, 12, 64, 77
14, 34920, Note_on_c, 12, 79, 94
14, 34934, Control_c, 12, 64, 0
14, 34934, Control_c, 12, 64, 127
14, 34938, Note_on_c, 12, 78, 0
14, 34942, Note_on_c, 12, 71, 0
14, 34946, Note_on_c, 12, 79, 0
14, 34949, Note_on_c, 12, 64, 0
14, 35007, Control_c, 12, 64, 0
14, 35009, Control_c, 12, 64, 127
14, 35009, Control_c, 12, 64, 0
14, 35021, Note_on_c, 12, 82, 81
14, 35040, Control_c, 12, 64, 127
14, 35040, Note_on_c, 12, 67, 82
14, 35040, Note_on_c, 12, 76, 83
14, 35040, Note_on_c, 12, 83, 86
14, 35050, Note_on_c, 12, 82, 0
14, 35069, Note_on_c, 12, 76, 0
14, 35073, Note_on_c, 12, 67, 0
14, 35086, Note_on_c, 12, 83, 0
14, 35125, Control_c, 12, 64, 0
14, 35148, Note_on_c, 12, 87, 91
14, 35160, Control_c, 12, 64, 127
14, 35160, Note_on_c, 12, 79, 84
14, 35160, Note_on_c, 12, 71, 78
14, 35160, Note_on_c, 12, 88, 94
14, 35179, Note_on_c, 12, 87, 0
14, 35186, Note_on_c, 12, 71, 0
14, 35196, Note_on_c, 12, 79, 0
14, 35198, Note_on_c, 12, 88, 0
14, 35251, Control_c, 12, 64, 0
14, 35253, Control_c, 12, 64, 127
14, 35256, Control_c, 12, 64, 0
14, 35270, Note_on_c, 12, 90, 87
14, 35280, Note_on_c, 12, 76, 86
14, 35280, Note_on_c, 12, 83, 83
14, 35280, Note_on_c, 12, 91, 88
14, 35281, Control_c, 12, 64, 127
14, 35299, Note_on_c, 12, 90, 0
14, 35309, Note_on_c, 12, 76, 0
14, 35315, Note_on_c, 12, 83, 0
14, 35322, Note_on_c, 12, 91, 0
14, 35375, Control_c, 12, 64, 0
14, 35377, Control_c, 12, 64, 127
14, 35380, Control_c, 12, 64, 0
14, 35394, Note_on_c, 12, 94, 75
14, 35400, Note_on_c, 12, 79, 82
14, 35400, Note_on_c, 12, 88, 85
14, 35400, Note_on_c, 12, 95, 89
14, 35409, Control_c, 12, 64, 127
14, 35432, Note_on_c, 12, 79, 0
14, 35434, Note_on_c, 12, 88, 0
14, 35438, Note_on_c, 12, 94, 0
14, 35458, Note_on_c, 12, 95, 0
14, 35491, Control_c, 12, 64, 0
14, 35516, Note_on_c, 12, 93, 90
14, 35520, Note_on_c, 12, 79, 85
14, 35520, Note_on_c, 12, 94, 83
14, 35520, Note_on_c, 12, 88, 88
14, 35527, Control_c, 12, 64, 127
14, 35547, Note_on_c, 12, 88, 0
14, 35551, Note_on_c, 12, 93, 0
14, 35555, Note_on_c, 12, 79, 0
14, 35569, Note_on_c, 12, 94, 0
14, 35615, Control_c, 12, 64, 0
14, 35631, Note_on_c, 12, 90, 87
14, 35640, Note_on_c, 12, 76, 87
14, 35640, Note_on_c, 12, 91, 91
14, 35640, Note_on_c, 12, 82, 78
14, 35652, Control_c, 12, 64, 127
14, 35652, Control_c, 12, 64, 0
14, 35652, Control_c, 12, 64, 127
14, 35661, Note_on_c, 12, 90, 0
14, 35666, Note_on_c, 12, 76, 0
14, 35668, Note_on_c, 12, 82, 0
14, 35672, Note_on_c, 12, 91, 0
14, 35738, Control_c, 12, 64, 0
14, 35751, Note_on_c, 12, 87, 86
14, 35760, Note_on_c, 12, 70, 75
14, 35760, Note_on_c, 12, 79, 91
14, 35760, Note_on_c, 12, 88, 96
14, 35772, Control_c, 12, 64, 127
14, 35786, Note_on_c, 12, 87, 0
14, 35789, Note_on_c, 12, 70, 0
14, 35793, Note_on_c, 12, 88, 0
14, 35797, Note_on_c, 12, 79, 0
14, 35869, Control_c, 12, 64, 0
14, 35870, Note_on_c, 12, 81, 89
14, 35880, Note_on_c, 12, 67, 82
14, 35880, Note_on_c, 12, 76, 89
14, 35880, Note_on_c, 12, 82, 96
14, 35891, Control_c, 12, 64, 127
14, 35901, Note_on_c, 12, 81, 0
14, 35910, Note_on_c, 12, 82, 0
14, 35912, Note_on_c, 12, 76, 0
14, 35920, Note_on_c, 12, 67, 0
14, 35987, Note_on_c, 12, 78, 82
14, 36000, Note_on_c, 12, 64, 87
14, 36000, Note_on_c, 12, 70, 82
14, 36000, Note_on_c, 12, 79, 100
14, 36019, Note_on_c, 12, 78, 0
14, 36034, Note_on_c, 12, 64, 0
14, 36037, Note_on_c, 12, 70, 0
14, 36042, Note_on_c, 12, 79, 0
14, 36105, Control_c, 12, 64, 0
14, 36106, Control_c, 12, 64, 127
14, 36107, Note_on_c, 12, 75, 96
14, 36112, Control_c, 12, 64, 0
14, 36120, Note_on_c, 12, 58, 90
14, 36120, Note_on_c, 12, 76, 112
14, 36120, Note_on_c, 12, 67, 89
14, 36138, Note_on_c, 12, 75, 0
14, 36139, Control_c, 12, 64, 127
14, 36144, Note_on_c, 12, 67, 0
14, 36156, Note_on_c, 12, 76, 0
14, 36157, Note_on_c, 12, 58, 0
14, 36444, Control_c, 12, 64, 0
14, 36476, Control_c, 12, 64, 127
14, 36478, Control_c, 12, 64, 0
14, 36480, Note_on_c, 12, 38, 88
14, 36480, Note_on_c, 12, 50, 85
14, 36480, Note_on_c, 12, 62, 102
14, 36493, Control_c, 12, 64, 127
14, 36516, Note_on_c, 12, 62, 0
14, 36524, Note_on_c, 12, 50, 0
14, 36526, Note_on_c, 12, 38, 0
14, 36720, Note_on_c, 12, 74, 81
14, 36734, Note_on_c, 12, 74, 0
14, 36735, Note_on_c, 12, 76, 77
14, 36749, Note_on_c, 12, 76, 0
14, 36750, Note_on_c, 12, 77, 74
14, 36764, Note_on_c, 12, 77, 0
14, 36765, Note_on_c, 12, 79, 76
14, 36779, Note_on_c, 12, 79, 0
14, 36780, Note_on_c, 12, 81, 79
14, 36794, Note_on_c, 12, 81, 0
14, 36795, Note_on_c, 12, 83, 72
14, 36809, Note_on_c, 12, 83, 0
14, 36810, Note_on_c, 12, 84, 82
14, 36824, Note_on_c, 12, 84, 0
14, 36825, Note_on_c, 12, 86, 82
14, 36839, Note_on_c, 12, 86, 0
14, 36840, Note_on_c, 12, 88, 80
14, 36869, Note_on_c, 12, 88, 0
14, 37042, Control_c, 12, 64, 0
14, 37081, Control_c, 12, 64, 127
14, 37200, Note_on_c, 12, 74, 71
14, 37214, Note_on_c, 12, 74, 0
14, 37215, Note_on_c, 12, 76, 78
14, 37229, Note_on_c, 12, 76, 0
14, 37230, Note_on_c, 12, 77, 80
14, 37244, Note_on_c, 12, 77, 0
14, 37245, Note_on_c, 12, 79, 81
14, 37259, Note_on_c, 12, 79, 0
14, 37260, Note_on_c, 12, 81, 84
14, 37274, Note_on_c, 12, 81, 0
14, 37275, Note_on_c, 12, 83, 83
14, 37289, Note_on_c, 12, 83, 0
14, 37290, Note_on_c, 12, 84, 82
14, 37304, Note_on_c, 12, 84, 0
14, 37305, Note_on_c, 12, 86, 89
14, 37319, Note_on_c, 12, 86, 0
14, 37560, Note_on_c, 12, 71, 97
14, 37560, Note_on_c, 12, 74, 92
14, 37560, Note_on_c, 12, 89, 93
14, 37560, Note_on_c, 12, 101, 79
14, 37588, Note_on_c, 12, 101, 0
14, 37590, Note_on_c, 12, 89, 0
14, 37601, Note_on_c, 12, 74, 0
14, 37603, Note_on_c, 12, 71, 0
14, 37620, Note_on_c, 12, 71, 92
14, 37620, Note_on_c, 12, 74, 89
14, 37620, Note_on_c, 12, 89, 83
14, 37620, Note_on_c, 12, 101, 85
14, 37648, Note_on_c, 12, 89, 0
14, 37648, Note_on_c, 12, 101, 0
14, 37650, Note_on_c, 12, 71, 0
14, 37650, Note_on_c, 12, 74, 0
14, 37680, Note_on_c, 12, 71, 111
14, 37680, Note_on_c, 12, 74, 109
14, 37680, Note_on_c, 12, 101, 93
14, 37680, Note_on_c, 12, 89, 101
14, 37767, Note_on_c, 12, 89, 0
14, 37768, Note_on_c, 12, 74, 0
14, 37769, Note_on_c, 12, 101, 0
14, 37770, Note_on_c, 12, 71, 0
14, 37800, Note_on_c, 12, 71, 101
14, 37800, Note_on_c, 12, 74, 98
14, 37800, Note_on_c, 12, 89, 94
14, 37800, Note_on_c, 12, 101, 88
14, 37827, Note_on_c, 12, 71, 0
14, 37827, Note_on_c, 12, 74, 0
14, 37827, Note_on_c, 12, 89, 0
14, 37830, Note_on_c, 12, 101, 0
14, 37860, Note_on_c, 12, 71, 100
14, 37860, Note_on_c, 12, 74, 98
14, 37860, Note_on_c, 12, 89, 98
14, 37860, Note_on_c, 12, 101, 93
14, 37888, Note_on_c, 12, 89, 0
14, 37888, Note_on_c, 12, 101, 0
14, 37889, Note_on_c, 12, 74, 0
14, 37890, Note_on_c, 12, 71, 0
14, 37920, Note_on_c, 12, 71, 116
14, 37920, Note_on_c, 12, 74, 112
14, 37920, Note_on_c, 12, 101, 98
14, 37920, Note_on_c, 12, 89, 107
14, 37990, Note_on_c, 12, 101, 0
14, 38008, Note_on_c, 12, 74, 0
14, 38008, Note_on_c, 12, 89, 0
14, 38010, Note_on_c, 12, 71, 0
14, 38040, Note_on_c, 12, 89, 86
14, 38040, Note_on_c, 12, 74, 97
14, 38040, Note_on_c, 12, 101, 85
14, 38040, Note_on_c, 12, 71, 100
14, 38067, Note_on_c, 12, 89, 0
14, 38067, Note_on_c, 12, 74, 0
14, 38069, Note_on_c, 12, 71, 0
14, 38072, Note_on_c, 12, 101, 0
14, 38100, Note_on_c, 12, 71, 98
14, 38100, Note_on_c, 12, 74, 92
14, 38100, Note_on_c, 12, 89, 91
14, 38100, Note_on_c, 12, 101, 86
14, 38128, Note_on_c, 12, 74, 0
14, 38128, Note_on_c, 12, 89, 0
14, 38129, Note_on_c, 12, 71, 0
14, 38132, Note_on_c, 12, 101, 0
14, 38160, Note_on_c, 12, 71, 111
14, 38160, Note_on_c, 12, 74, 111
14, 38160, Note_on_c, 12, 89, 101
14, 38160, Note_on_c, 12, 101, 97
14, 38219, Note_on_c, 12, 74, 0
14, 38220, Note_on_c, 12, 101, 0
14, 38230, Note_on_c, 12, 89, 0
14, 38231, Note_on_c, 12, 71, 0
14, 38280, Note_on_c, 12, 71, 104
14, 38280, Note_on_c, 12, 74, 104
14, 38280, Note_on_c, 12, 89, 94
14, 38280, Note_on_c, 12, 101, 82
14, 38297, Note_on_c, 12, 89, 0
14, 38298, Note_on_c, 12, 74, 0
14, 38301, Note_on_c, 12, 71, 0
14, 38302, Note_on_c, 12, 101, 0
14, 38340, Note_on_c, 12, 89, 104
14, 38340, Note_on_c, 12, 101, 98
14, 38340, Note_on_c, 12, 74, 118
14, 38340, Note_on_c, 12, 71, 121
14, 38379, Note_on_c, 12, 101, 0
14, 38384, Note_on_c, 12, 89, 0
14, 38385, Note_on_c, 12, 74, 0
14, 38385, Note_on_c, 12, 71, 0
14, 38400, Note_on_c, 12, 64, 88
14, 38400, Note_on_c, 12, 76, 86
14, 38400, Note_on_c, 12, 72, 84
14, 38400, Note_on_c, 12, 88, 91
14, 38400, Note_on_c, 12, 100, 83
14, 38432, Note_on_c, 12, 88, 0
14, 38441, Note_on_c, 12, 100, 0
14, 38460, Note_on_c, 12, 96, 82
14, 38462, Note_on_c, 12, 76, 0
14, 38462, Note_on_c, 12, 72, 0
14, 38471, Note_on_c, 12, 64, 0
14, 38506, Note_on_c, 12, 96, 0
14, 38520, Note_on_c, 12, 100, 91
14, 38520, Note_on_c, 12, 64, 92
14, 38520, Note_on_c, 12, 76, 96
14, 38520, Note_on_c, 12, 72, 97
14, 38561, Note_on_c, 12, 100, 0
14, 38579, Note_on_c, 12, 72, 0
14, 38580, Note_on_c, 12, 95, 78
14, 38581, Note_on_c, 12, 76, 0
14, 38584, Note_on_c, 12, 64, 0
14, 38625, Note_on_c, 12, 95, 0
14, 38640, Note_on_c, 12, 100, 88
14, 38640, Note_on_c, 12, 64, 85
14, 38640, Note_on_c, 12, 72, 89
14, 38640, Note_on_c, 12, 76, 94
14, 38690, Note_on_c, 12, 100, 0
14, 38696, Note_on_c, 12, 76, 0
14, 38697, Note_on_c, 12, 72, 0
14, 38700, Note_on_c, 12, 93, 84
14, 38703, Note_on_c, 12, 64, 0
14, 38743, Note_on_c, 12, 93, 0
14, 38760, Note_on_c, 12, 100, 84
14, 38760, Note_on_c, 12, 64, 79
14, 38760, Note_on_c, 12, 72, 85
14, 38760, Note_on_c, 12, 76, 78
14, 38802, Note_on_c, 12, 100, 0
14, 38814, Note_on_c, 12, 64, 0
14, 38814, Note_on_c, 12, 76, 0
14, 38816, Note_on_c, 12, 72, 0
14, 38820, Note_on_c, 12, 92, 89
14, 38858, Note_on_c, 12, 92, 0
14, 38880, Note_on_c, 12, 100, 85
14, 38880, Note_on_c, 12, 64, 93
14, 38880, Note_on_c, 12, 67, 90
14, 38880, Note_on_c, 12, 76, 84
14, 38880, Note_on_c, 12, 72, 87
14, 38909, Note_on_c, 12, 100, 0
14, 38910, Note_on_c, 12, 98, 81
14, 38933, Note_on_c, 12, 67, 0
14, 38935, Note_on_c, 12, 64, 0
14, 38935, Note_on_c, 12, 72, 0
14, 38939, Note_on_c, 12, 98, 0
14, 38940, Note_on_c, 12, 96, 73
14, 38948, Note_on_c, 12, 76, 0
14, 38969, Note_on_c, 12, 96, 0
14, 38970, Note_on_c, 12, 95, 82
14, 38999, Note_on_c, 12, 95, 0
14, 39000, Note_on_c, 12, 93, 85
14, 39029, Note_on_c, 12, 93, 0
14, 39030, Note_on_c, 12, 91, 82
14, 39059, Note_on_c, 12, 91, 0
14, 39060, Note_on_c, 12, 89, 82
14, 39089, Note_on_c, 12, 89, 0
14, 39090, Note_on_c, 12, 88, 85
14, 39119, Note_on_c, 12, 88, 0
14, 39120, Note_on_c, 12, 86, 93
14, 39120, Note_on_c, 12, 79, 87
14, 39120, Note_on_c, 12, 71, 92
14, 39120, Note_on_c, 12, 74, 98
14, 39120, Note_on_c, 12, 67, 98
14, 39149, Note_on_c, 12, 86, 0
14, 39150, Note_on_c, 12, 88, 83
14, 39172, Note_on_c, 12, 67, 0
14, 39173, Note_on_c, 12, 71, 0
14, 39177, Note_on_c, 12, 79, 0
14, 39178, Note_on_c, 12, 74, 0
14, 39179, Note_on_c, 12, 88, 0
14, 39180, Note_on_c, 12, 89, 86
14, 39209, Note_on_c, 12, 89, 0
14, 39210, Note_on_c, 12, 91, 87
14, 39239, Note_on_c, 12, 91, 0
14, 39240, Note_on_c, 12, 93, 91
14, 39269, Note_on_c, 12, 93, 0
14, 39270, Note_on_c, 12, 95, 88
14, 39299, Note_on_c, 12, 95, 0
14, 39300, Note_on_c, 12, 96, 86
14, 39329, Note_on_c, 12, 96, 0
14, 39330, Note_on_c, 12, 98, 101
14, 39359, Note_on_c, 12, 98, 0
14, 39360, Note_on_c, 12, 100, 94
14, 39360, Note_on_c, 12, 72, 88
14, 39360, Note_on_c, 12, 64, 102
14, 39360, Note_on_c, 12, 76, 92
14, 39401, Note_on_c, 12, 100, 0
14, 39405, Note_on_c, 12, 64, 0
14, 39407, Note_on_c, 12, 76, 0
14, 39418, Note_on_c, 12, 72, 0
14, 39420, Note_on_c, 12, 96, 86
14, 39460, Note_on_c, 12, 96, 0
14, 39480, Note_on_c, 12, 100, 90
14, 39480, Note_on_c, 12, 64, 98
14, 39480, Note_on_c, 12, 72, 90
14, 39480, Note_on_c, 12, 76, 78
14, 39522, Note_on_c, 12, 100, 0
14, 39527, Note_on_c, 12, 76, 0
14, 39528, Note_on_c, 12, 64, 0
14, 39535, Note_on_c, 12, 72, 0
14, 39540, Note_on_c, 12, 95, 88
14, 39582, Note_on_c, 12, 95, 0
14, 39600, Note_on_c, 12, 100, 89
14, 39600, Note_on_c, 12, 64, 97
14, 39600, Note_on_c, 12, 72, 92
14, 39600, Note_on_c, 12, 76, 84
14, 39632, Control_c, 12, 64, 127
14, 39643, Note_on_c, 12, 100, 0
14, 39650, Note_on_c, 12, 64, 0
14, 39660, Note_on_c, 12, 93, 86
14, 39661, Note_on_c, 12, 72, 0
14, 39662, Note_on_c, 12, 76, 0
14, 39697, Note_on_c, 12, 93, 0
14, 39720, Note_on_c, 12, 100, 78
14, 39720, Note_on_c, 12, 64, 89
14, 39720, Note_on_c, 12, 72, 88
14, 39720, Note_on_c, 12, 76, 85
14, 39742, Control_c, 12, 64, 0
14, 39760, Note_on_c, 12, 100, 0
14, 39773, Note_on_c, 12, 76, 0
14, 39778, Note_on_c, 12, 72, 0
14, 39780, Note_on_c, 12, 64, 0
14, 39780, Note_on_c, 12, 92, 89
14, 39826, Note_on_c, 12, 92, 0
14, 39840, Note_on_c, 12, 100, 79
14, 39840, Note_on_c, 12, 72, 88
14, 39840, Note_on_c, 12, 67, 90
14, 39840, Note_on_c, 12, 64, 94
14, 39840, Note_on_c, 12, 76, 89
14, 39869, Note_on_c, 12, 100, 0
14, 39870, Note_on_c, 12, 98, 82
14, 39879, Control_c, 12, 64, 127
14, 39890, Note_on_c, 12, 67, 0
14, 39898, Note_on_c, 12, 64, 0
14, 39899, Note_on_c, 12, 72, 0
14, 39899, Note_on_c, 12, 98, 0
14, 39900, Note_on_c, 12, 96, 79
14, 39911, Note_on_c, 12, 76, 0
14, 39929, Note_on_c, 12, 96, 0
14, 39930, Note_on_c, 12, 95, 79
14, 39959, Note_on_c, 12, 95, 0
14, 39960, Note_on_c, 12, 93, 82
14, 39989, Note_on_c, 12, 93, 0
14, 39990, Note_on_c, 12, 91, 80
14, 40009, Control_c, 12, 64, 0
14, 40019, Note_on_c, 12, 91, 0
14, 40020, Note_on_c, 12, 89, 78
14, 40049, Note_on_c, 12, 89, 0
14, 40050, Note_on_c, 12, 88, 85
14, 40076, Control_c, 12, 64, 127
14, 40079, Note_on_c, 12, 88, 0
14, 40080, Note_on_c, 12, 86, 87
14, 40080, Note_on_c, 12, 71, 107
14, 40080, Note_on_c, 12, 74, 97
14, 40080, Note_on_c, 12, 67, 111
14, 40080, Note_on_c, 12, 79, 90
14, 40109, Note_on_c, 12, 86, 0
14, 40110, Note_on_c, 12, 88, 84
14, 40139, Note_on_c, 12, 88, 0
14, 40140, Note_on_c, 12, 89, 87
14, 40146, Note_on_c, 12, 71, 0
14, 40146, Note_on_c, 12, 67, 0
14, 40148, Note_on_c, 12, 74, 0
14, 40153, Note_on_c, 12, 79, 0
14, 40169, Note_on_c, 12, 89, 0
14, 40170, Note_on_c, 12, 91, 78
14, 40199, Note_on_c, 12, 91, 0
14, 40200, Note_on_c, 12, 93, 88
14, 40229, Note_on_c, 12, 93, 0
14, 40230, Note_on_c, 12, 95, 82
14, 40254, Control_c, 12, 64, 0
14, 40259, Note_on_c, 12, 95, 0
14, 40260, Note_on_c, 12, 96, 85
14, 40289, Note_on_c, 12, 96, 0
14, 40290, Note_on_c, 12, 98, 94
14, 40319, Note_on_c, 12, 98, 0
14, 40320, Note_on_c, 12, 96, 63
14, 40320, Note_on_c, 12, 84, 66
14, 40335, Note_on_c, 12, 76, 79
14, 40339, Note_on_c, 12, 88, 81
14, 40348, Note_on_c, 12, 88, 68
14, 40349, Note_on_c, 12, 96, 0
14, 40350, Note_on_c, 12, 84, 0
14, 40354, Note_on_c, 12, 88, 0
14, 40354, Note_on_c, 12, 100, 81
14, 40357, Note_on_c, 12, 76, 0
14, 40372, Note_on_c, 12, 84, 53
14, 40382, Note_on_c, 12, 100, 0
14, 40383, Note_on_c, 12, 88, 0
14, 40386, Note_on_c, 12, 88, 81
14, 40391, Note_on_c, 12, 76, 83
14, 40400, Note_on_c, 12, 84, 0
14, 40406, Note_on_c, 12, 100, 56
14, 40409, Note_on_c, 12, 88, 0
14, 40413, Note_on_c, 12, 88, 63
14, 40419, Note_on_c, 12, 76, 0
14, 40420, Note_on_c, 12, 96, 60
14, 40425, Note_on_c, 12, 84, 68
14, 40435, Note_on_c, 12, 100, 0
14, 40437, Note_on_c, 12, 88, 0
14, 40444, Note_on_c, 12, 88, 76
14, 40451, Note_on_c, 12, 96, 0
14, 40453, Note_on_c, 12, 76, 76
14, 40462, Note_on_c, 12, 100, 71
14, 40463, Note_on_c, 12, 84, 0
14, 40468, Note_on_c, 12, 88, 0
14, 40470, Note_on_c, 12, 88, 60
14, 40476, Note_on_c, 12, 96, 65
14, 40484, Note_on_c, 12, 76, 0
14, 40484, Note_on_c, 12, 84, 78
14, 40488, Note_on_c, 12, 100, 0
14, 40497, Note_on_c, 12, 88, 0
14, 40501, Note_on_c, 12, 96, 0
14, 40501, Note_on_c, 12, 88, 76
14, 40513, Note_on_c, 12, 100, 71
14, 40513, Note_on_c, 12, 76, 76
14, 40518, Note_on_c, 12, 84, 0
14, 40524, Note_on_c, 12, 88, 71
14, 40526, Note_on_c, 12, 88, 0
14, 40531, Note_on_c, 12, 96, 72
14, 40539, Note_on_c, 12, 76, 0
14, 40540, Note_on_c, 12, 84, 78
14, 40544, Note_on_c, 12, 100, 0
14, 40553, Note_on_c, 12, 88, 0
14, 40560, Note_on_c, 12, 96, 0
14, 40560, Note_on_c, 12, 88, 75
14, 40568, Note_on_c, 12, 84, 0
14, 40568, Note_on_c, 12, 76, 78
14, 40570, Note_on_c, 12, 100, 74
14, 40578, Note_on_c, 12, 88, 77
14, 40583, Note_on_c, 12, 88, 0
14, 40593, Note_on_c, 12, 96, 69
14, 40593, Note_on_c, 12, 84, 66
14, 40594, Note_on_c, 12, 76, 0
14, 40603, Note_on_c, 12, 100, 0
14, 40608, Note_on_c, 12, 88, 0
14, 40613, Note_on_c, 12, 96, 0
14, 40613, Note_on_c, 12, 88, 72
14, 40621, Note_on_c, 12, 84, 0
14, 40623, Note_on_c, 12, 100, 74
14, 40624, Note_on_c, 12, 76, 79
14, 40635, Note_on_c, 12, 88, 76
14, 40642, Note_on_c, 12, 88, 0
14, 40650, Note_on_c, 12, 96, 72
14, 40651, Note_on_c, 12, 76, 0
14, 40651, Note_on_c, 12, 84, 61
14, 40660, Note_on_c, 12, 100, 0
14, 40663, Note_on_c, 12, 88, 0
14, 40673, Note_on_c, 12, 96, 0
14, 40676, Note_on_c, 12, 84, 0
14, 40678, Note_on_c, 12, 88, 68
14, 40678, Note_on_c, 12, 76, 74
14, 40687, Note_on_c, 12, 88, 70
14, 40688, Note_on_c, 12, 100, 73
14, 40699, Note_on_c, 12, 84, 58
14, 40700, Note_on_c, 12, 88, 0
14, 40707, Note_on_c, 12, 76, 0
14, 40707, Note_on_c, 12, 96, 66
14, 40715, Note_on_c, 12, 88, 0
14, 40716, Note_on_c, 12, 100, 0
14, 40730, Note_on_c, 12, 84, 0
14, 40730, Note_on_c, 12, 88, 68
14, 40731, Note_on_c, 12, 96, 0
14, 40733, Note_on_c, 12, 76, 78
14, 40748, Note_on_c, 12, 100, 62
14, 40749, Note_on_c, 12, 88, 0
14, 40750, Note_on_c, 12, 88, 56
14, 40755, Note_on_c, 12, 96, 76
14, 40757, Note_on_c, 12, 84, 68
14, 40764, Note_on_c, 12, 76, 0
14, 40768, Note_on_c, 12, 100, 0
14, 40771, Note_on_c, 12, 88, 0
14, 40778, Note_on_c, 12, 88, 74
14, 40784, Note_on_c, 12, 76, 80
14, 40789, Note_on_c, 12, 96, 0
14, 40792, Note_on_c, 12, 84, 0
14, 40816, Note_on_c, 12, 76, 0
14, 40817, Note_on_c, 12, 88, 0
14, 40820, Note_on_c, 12, 96, 82
14, 40820, Note_on_c, 12, 88, 21
14, 40826, Note_on_c, 12, 100, 69
14, 40829, Note_on_c, 12, 84, 66
14, 40834, Note_on_c, 12, 88, 0
14, 40835, Note_on_c, 12, 76, 81
14, 40846, Note_on_c, 12, 100, 0
14, 40851, Note_on_c, 12, 96, 0
14, 40854, Note_on_c, 12, 88, 77
14, 40864, Note_on_c, 12, 76, 0
14, 40875, Note_on_c, 12, 76, 68
14, 40876, Note_on_c, 12, 100, 66
14, 40877, Note_on_c, 12, 88, 0
14, 40877, Note_on_c, 12, 96, 82
14, 40878, Note_on_c, 12, 84, 0
14, 40899, Note_on_c, 12, 100, 0
14, 40899, Note_on_c, 12, 84, 58
14, 40903, Note_on_c, 12, 76, 0
14, 40904, Note_on_c, 12, 88, 49
14, 40905, Note_on_c, 12, 96, 0
14, 40909, Note_on_c, 12, 88, 78
14, 40918, Note_on_c, 12, 88, 0
14, 40925, Note_on_c, 12, 100, 65
14, 40928, Note_on_c, 12, 76, 79
14, 40931, Note_on_c, 12, 88, 0
14, 40940, Note_on_c, 12, 96, 66
14, 40953, Note_on_c, 12, 76, 0
14, 40959, Note_on_c, 12, 88, 74
14, 40964, Note_on_c, 12, 84, 0
14, 40967, Note_on_c, 12, 76, 75
14, 40987, Note_on_c, 12, 96, 0
14, 40987, Note_on_c, 12, 88, 0
14, 40987, Note_on_c, 12, 84, 74
14, 40990, Note_on_c, 12, 76, 0
14, 40991, Note_on_c, 12, 88, 60
14, 40993, Note_on_c, 12, 100, 0
14, 41002, Note_on_c, 12, 88, 64
14, 41004, Note_on_c, 12, 88, 0
14, 41011, Note_on_c, 12, 76, 68
14, 41027, Note_on_c, 12, 88, 0
14, 41027, Note_on_c, 12, 96, 29
14, 41036, Note_on_c, 12, 76, 0
14, 41045, Note_on_c, 12, 96, 0
14, 41058, Note_on_c, 12, 88, 76
14, 41058, Note_on_c, 12, 76, 62
14, 41068, Note_on_c, 12, 96, 56
14, 41068, Note_on_c, 12, 88, 72
14, 41080, Note_on_c, 12, 88, 0
14, 41080, Note_on_c, 12, 76, 0
14, 41081, Note_on_c, 12, 100, 54
14, 41089, Note_on_c, 12, 88, 0
14, 41092, Note_on_c, 12, 84, 0
14, 41101, Note_on_c, 12, 76, 52
14, 41102, Note_on_c, 12, 100, 0
14, 41111, Note_on_c, 12, 88, 78
14, 41111, Note_on_c, 12, 84, 63
14, 41123, Note_on_c, 12, 84, 0
14, 41135, Note_on_c, 12, 96, 0
14, 41135, Note_on_c, 12, 88, 0
14, 41142, Note_on_c, 12, 76, 0
14, 41148, Note_on_c, 12, 88, 74
14, 41150, Note_on_c, 12, 84, 69
14, 41160, Note_on_c, 12, 88, 79
14, 41165, Note_on_c, 12, 88, 0
14, 41166, Note_on_c, 12, 96, 65
14, 41169, Note_on_c, 12, 76, 72
14, 41183, Note_on_c, 12, 84, 0
14, 41187, Note_on_c, 12, 96, 0
14, 41189, Note_on_c, 12, 88, 0
14, 41192, Note_on_c, 12, 76, 0
14, 41200, Note_on_c, 12, 88, 59
14, 41204, Note_on_c, 12, 100, 70
14, 41204, Note_on_c, 12, 96, 41
14, 41210, Note_on_c, 12, 88, 0
14, 41219, Note_on_c, 12, 76, 81
14, 41221, Note_on_c, 12, 100, 0
14, 41225, Note_on_c, 12, 88, 82
14, 41233, Note_on_c, 12, 84, 40
14, 41241, Note_on_c, 12, 96, 0
14, 41244, Note_on_c, 12, 76, 0
14, 41250, Note_on_c, 12, 88, 58
14, 41252, Note_on_c, 12, 88, 0
14, 41257, Note_on_c, 12, 84, 0
14, 41261, Note_on_c, 12, 100, 70
14, 41262, Note_on_c, 12, 88, 0
14, 41265, Note_on_c, 12, 96, 68
14, 41274, Note_on_c, 12, 76, 82
14, 41281, Note_on_c, 12, 100, 0
14, 41283, Note_on_c, 12, 88, 82
14, 41297, Note_on_c, 12, 96, 0
14, 41298, Note_on_c, 12, 76, 0
14, 41308, Note_on_c, 12, 88, 0
14, 41314, Note_on_c, 12, 100, 56
14, 41316, Note_on_c, 12, 84, 57
14, 41323, Note_on_c, 12, 96, 56
14, 41331, Note_on_c, 12, 100, 0
14, 41331, Note_on_c, 12, 76, 87
14, 41332, Note_on_c, 12, 88, 75
14, 41349, Note_on_c, 12, 96, 0
14, 41350, Note_on_c, 12, 84, 0
14, 41354, Note_on_c, 12, 76, 0
14, 41363, Note_on_c, 12, 88, 79
14, 41364, Note_on_c, 12, 88, 0
14, 41367, Note_on_c, 12, 84, 69
14, 41379, Note_on_c, 12, 100, 73
14, 41384, Note_on_c, 12, 88, 0
14, 41385, Note_on_c, 12, 96, 74
14, 41395, Note_on_c, 12, 76, 92
14, 41401, Note_on_c, 12, 84, 0
14, 41403, Note_on_c, 12, 88, 66
14, 41411, Note_on_c, 12, 100, 0
14, 41413, Note_on_c, 12, 76, 0
14, 41416, Note_on_c, 12, 96, 0
14, 41422, Note_on_c, 12, 88, 73
14, 41426, Note_on_c, 12, 84, 63
14, 41427, Note_on_c, 12, 88, 0
14, 41437, Note_on_c, 12, 88, 0
14, 41439, Note_on_c, 12, 100, 68
14, 41446, Note_on_c, 12, 76, 92
14, 41449, Note_on_c, 12, 96, 67
14, 41463, Note_on_c, 12, 84, 0
14, 41466, Note_on_c, 12, 76, 0
14, 41472, Note_on_c, 12, 88, 74
14, 41473, Note_on_c, 12, 100, 0
14, 41473, Note_on_c, 12, 96, 0
14, 41491, Note_on_c, 12, 76, 80
14, 41501, Note_on_c, 12, 88, 0
14, 41507, Note_on_c, 12, 100, 81
14, 41507, Note_on_c, 12, 96, 76
14, 41515, Note_on_c, 12, 76, 0
14, 41527, Note_on_c, 12, 84, 17
14, 41528, Note_on_c, 12, 88, 68
14, 41535, Note_on_c, 12, 100, 0
14, 41539, Note_on_c, 12, 88, 81
14, 41544, Note_on_c, 12, 96, 0
14, 41552, Note_on_c, 12, 88, 0
14, 41554, Note_on_c, 12, 76, 89
14, 41564, Note_on_c, 12, 88, 0
14, 41566, Note_on_c, 12, 84, 0
14, 41569, Note_on_c, 12, 100, 64
14, 41571, Note_on_c, 12, 96, 68
14, 41580, Note_on_c, 12, 76, 0
14, 41589, Note_on_c, 12, 100, 0
14, 41594, Note_on_c, 12, 88, 77
14, 41594, Note_on_c, 12, 84, 67
14, 41601, Note_on_c, 12, 96, 0
14, 41601, Note_on_c, 12, 88, 82
14, 41615, Note_on_c, 12, 88, 0
14, 41621, Note_on_c, 12, 88, 0
14, 41622, Note_on_c, 12, 76, 87
14, 41624, Note_on_c, 12, 100, 61
14, 41631, Note_on_c, 12, 84, 0
14, 41631, Note_on_c, 12, 96, 71
14, 41642, Note_on_c, 12, 76, 0
14, 41646, Note_on_c, 12, 100, 0
14, 41652, Note_on_c, 12, 88, 67
14, 41656, Note_on_c, 12, 96, 0
14, 41657, Note_on_c, 12, 88, 92
14, 41657, Note_on_c, 12, 84, 69
14, 41667, Note_on_c, 12, 88, 0
14, 41672, Note_on_c, 12, 76, 87
14, 41681, Note_on_c, 12, 88, 0
14, 41690, Note_on_c, 12, 84, 0
14, 41697, Note_on_c, 12, 76, 0
14, 41712, Note_on_c, 12, 88, 80
14, 41713, Note_on_c, 12, 88, 65
14, 41717, Note_on_c, 12, 84, 75
14, 41724, Note_on_c, 12, 96, 16
14, 41733, Note_on_c, 12, 88, 0
14, 41737, Note_on_c, 12, 96, 0
14, 41737, Note_on_c, 12, 76, 82
14, 41745, Note_on_c, 12, 88, 0
14, 41745, Note_on_c, 12, 100, 74
14, 41749, Note_on_c, 12, 84, 0
14, 41750, Note_on_c, 12, 96, 49
14, 41762, Note_on_c, 12, 76, 0
14, 41771, Note_on_c, 12, 88, 74
14, 41773, Note_on_c, 12, 100, 0
14, 41775, Note_on_c, 12, 84, 71
14, 41777, Note_on_c, 12, 88, 82
14, 41787, Note_on_c, 12, 96, 0
14, 41791, Note_on_c, 12, 88, 0
14, 41794, Note_on_c, 12, 76, 88
14, 41804, Note_on_c, 12, 88, 0
14, 41805, Note_on_c, 12, 100, 73
14, 41806, Note_on_c, 12, 84, 0
14, 41810, Note_on_c, 12, 96, 65
14, 41820, Note_on_c, 12, 76, 0
14, 41825, Note_on_c, 12, 100, 0
14, 41830, Note_on_c, 12, 88, 86
14, 41832, Note_on_c, 12, 88, 70
14, 41835, Note_on_c, 12, 84, 68
14, 41842, Note_on_c, 12, 96, 0
14, 41854, Note_on_c, 12, 88, 0
14, 41855, Note_on_c, 12, 88, 0
14, 41861, Note_on_c, 12, 76, 80
14, 41865, Note_on_c, 12, 100, 67
14, 41869, Note_on_c, 12, 84, 0
14, 41869, Note_on_c, 12, 96, 72
14, 41881, Note_on_c, 12, 76, 0
14, 41882, Note_on_c, 12, 100, 0
14, 41891, Note_on_c, 12, 88, 80
14, 41891, Note_on_c, 12, 88, 60
14, 41896, Note_on_c, 12, 84, 78
14, 41903, Note_on_c, 12, 88, 0
14, 41905, Note_on_c, 12, 96, 0
14, 41910, Note_on_c, 12, 76, 64
14, 41920, Note_on_c, 12, 88, 0
14, 41920, Note_on_c, 12, 100, 65
14, 41927, Note_on_c, 12, 96, 63
14, 41929, Note_on_c, 12, 76, 0
14, 41933, Note_on_c, 12, 88, 63
14, 41936, Note_on_c, 12, 84, 0
14, 41940, Note_on_c, 12, 100, 0
14, 41948, Note_on_c, 12, 88, 78
14, 41960, Note_on_c, 12, 76, 57
14, 41961, Note_on_c, 12, 96, 0
14, 41964, Note_on_c, 12, 84, 65
14, 41977, Note_on_c, 12, 88, 0
14, 41980, Note_on_c, 12, 76, 0
14, 41982, Note_on_c, 12, 88, 0
14, 41982, Note_on_c, 12, 84, 0
14, 41983, Note_on_c, 12, 100, 58
14, 41987, Note_on_c, 12, 96, 70
14, 41990, Note_on_c, 12, 76, 44
14, 42002, Note_on_c, 12, 100, 0
14, 42004, Note_on_c, 12, 88, 76
14, 42010, Note_on_c, 12, 76, 0
14, 42016, Note_on_c, 12, 84, 59
14, 42016, Note_on_c, 12, 88, 66
14, 42022, Note_on_c, 12, 96, 0
14, 42030, Note_on_c, 12, 88, 0
14, 42043, Note_on_c, 12, 100, 65
14, 42046, Note_on_c, 12, 96, 77
14, 42058, Note_on_c, 12, 88, 0
14, 42060, Note_on_c, 12, 100, 0
14, 42060, Note_on_c, 12, 76, 54
14, 42065, Note_on_c, 12, 84, 0
14, 42070, Note_on_c, 12, 88, 65
14, 42076, Note_on_c, 12, 96, 0
14, 42085, Note_on_c, 12, 84, 74
14, 42089, Note_on_c, 12, 76, 0
14, 42091, Note_on_c, 12, 88, 67
14, 42096, Note_on_c, 12, 88, 0
14, 42099, Note_on_c, 12, 100, 76
14, 42106, Note_on_c, 12, 84, 0
14, 42108, Note_on_c, 12, 88, 0
14, 42108, Note_on_c, 12, 96, 76
14, 42114, Note_on_c, 12, 76, 77
14, 42126, Note_on_c, 12, 100, 0
14, 42127, Note_on_c, 12, 84, 66
14, 42133, Note_on_c, 12, 96, 0
14, 42133, Note_on_c, 12, 88, 83
14, 42137, Note_on_c, 12, 76, 0
14, 42137, Note_on_c, 12, 88, 62
14, 42153, Note_on_c, 12, 88, 0
14, 42157, Note_on_c, 12, 88, 0
14, 42166, Note_on_c, 12, 100, 63
14, 42166, Note_on_c, 12, 76, 67
14, 42167, Note_on_c, 12, 96, 69
14, 42175, Note_on_c, 12, 88, 63
14, 42180, Note_on_c, 12, 100, 0
14, 42182, Note_on_c, 12, 76, 0
14, 42185, Note_on_c, 12, 96, 0
14, 42186, Note_on_c, 12, 88, 85
14, 42187, Note_on_c, 12, 88, 0
14, 42191, Note_on_c, 12, 84, 0
14, 42196, Control_c, 12, 64, 0
14, 42207, Note_on_c, 12, 88, 83
14, 42208, Note_on_c, 12, 100, 68
14, 42209, Note_on_c, 12, 84, 76
14, 42223, Note_on_c, 12, 76, 36
14, 42225, Note_on_c, 12, 88, 0
14, 42228, Note_on_c, 12, 96, 71
14, 42231, Note_on_c, 12, 88, 0
14, 42233, Control_c, 12, 64, 127
14, 42235, Note_on_c, 12, 88, 87
14, 42247, Note_on_c, 12, 84, 0
14, 42247, Note_on_c, 12, 76, 0
14, 42252, Note_on_c, 12, 100, 0
14, 42260, Note_on_c, 12, 96, 0
14, 42260, Note_on_c, 12, 88, 0
14, 42300, Note_on_c, 12, 43, 88
14, 42300, Note_on_c, 12, 55, 87
14, 42300, Note_on_c, 12, 83, 87
14, 42300, Note_on_c, 12, 86, 89
14, 42300, Note_on_c, 12, 95, 98
14, 42325, Control_c, 12, 64, 0
14, 42359, Note_on_c, 12, 43, 0
14, 42359, Note_on_c, 12, 55, 0
14, 42359, Note_on_c, 12, 83, 0
14, 42359, Note_on_c, 12, 86, 0
14, 42359, Note_on_c, 12, 95, 0
14, 42360, Note_on_c, 12, 60, 86
14, 42360, Note_on_c, 12, 48, 89
14, 42360, Note_on_c, 12, 84, 90
14, 42360, Note_on_c, 12, 88, 84
14, 42360, Note_on_c, 12, 96, 107
14, 42419, Note_on_c, 12, 60, 0
14, 42419, Note_on_c, 12, 48, 0
14, 42419, Note_on_c, 12, 84, 0
14, 42419, Note_on_c, 12, 88, 0
14, 42419, Note_on_c, 12, 96, 0
14, 42420, Note_on_c, 12, 43, 89
14, 42420, Note_on_c, 12, 55, 90
14, 42420, Note_on_c, 12, 86, 91
14, 42420, Note_on_c, 12, 83, 91
14, 42420, Note_on_c, 12, 95, 101
14, 42479, Note_on_c, 12, 43, 0
14, 42479, Note_on_c, 12, 55, 0
14, 42479, Note_on_c, 12, 86, 0
14, 42479, Note_on_c, 12, 83, 0
14, 42479, Note_on_c, 12, 95, 0
14, 42480, Note_on_c, 12, 60, 88
14, 42480, Note_on_c, 12, 48, 90
14, 42480, Note_on_c, 12, 84, 84
14, 42480, Note_on_c, 12, 88, 83
14, 42480, Note_on_c, 12, 96, 101
14, 42526, Control_c, 12, 64, 127
14, 42539, Note_on_c, 12, 60, 0
14, 42539, Note_on_c, 12, 48, 0
14, 42539, Note_on_c, 12, 84, 0
14, 42539, Note_on_c, 12, 88, 0
14, 42539, Note_on_c, 12, 96, 0
14, 42540, Note_on_c, 12, 43, 94
14, 42540, Note_on_c, 12, 55, 96
14, 42540, Note_on_c, 12, 83, 88
14, 42540, Note_on_c, 12, 86, 91
14, 42540, Note_on_c, 12, 95, 97
14, 42599, Note_on_c, 12, 43, 0
14, 42599, Note_on_c, 12, 55, 0
14, 42599, Note_on_c, 12, 83, 0
14, 42599, Note_on_c, 12, 86, 0
14, 42599, Note_on_c, 12, 95, 0
14, 42600, Note_on_c, 12, 60, 87
14, 42600, Note_on_c, 12, 48, 89
14, 42600, Note_on_c, 12, 88, 82
14, 42600, Note_on_c, 12, 84, 92
14, 42600, Note_on_c, 12, 96, 98
14, 42659, Note_on_c, 12, 60, 0
14, 42659, Note_on_c, 12, 48, 0
14, 42659, Note_on_c, 12, 88, 0
14, 42659, Note_on_c, 12, 84, 0
14, 42659, Note_on_c, 12, 96, 0
14, 42660, Note_on_c, 12, 55, 94
14, 42660, Note_on_c, 12, 43, 90
14, 42660, Note_on_c, 12, 83, 88
14, 42660, Note_on_c, 12, 95, 100
14, 42660, Note_on_c, 12, 86, 92
14, 42719, Note_on_c, 12, 55, 0
14, 42719, Note_on_c, 12, 43, 0
14, 42719, Note_on_c, 12, 83, 0
14, 42719, Note_on_c, 12, 95, 0
14, 42719, Note_on_c, 12, 86, 0
14, 42720, Note_on_c, 12, 60, 84
14, 42720, Note_on_c, 12, 48, 86
14, 42720, Note_on_c, 12, 88, 86
14, 42720, Note_on_c, 12, 96, 97
14, 42720, Note_on_c, 12, 84, 87
14, 42749, Control_c, 12, 64, 0
14, 42749, Control_c, 12, 64, 127
14, 42779, Note_on_c, 12, 60, 0
14, 42779, Note_on_c, 12, 48, 0
14, 42779, Note_on_c, 12, 88, 0
14, 42779, Note_on_c, 12, 96, 0
14, 42779, Note_on_c, 12, 84, 0
14, 42780, Note_on_c, 12, 43, 93
14, 42780, Note_on_c, 12, 55, 97
14, 42780, Note_on_c, 12, 86, 78
14, 42780, Note_on_c, 12, 83, 83
14, 42780, Note_on_c, 12, 95, 96
14, 42834, Control_c, 12, 64, 0
14, 42839, Note_on_c, 12, 43, 0
14, 42839, Note_on_c, 12, 55, 0
14, 42839, Note_on_c, 12, 86, 0
14, 42839, Note_on_c, 12, 83, 0
14, 42839, Note_on_c, 12, 95, 0
14, 42840, Note_on_c, 12, 48, 87
14, 42840, Note_on_c, 12, 60, 83
14, 42840, Note_on_c, 12, 88, 86
14, 42840, Note_on_c, 12, 84, 78
14, 42840, Note_on_c, 12, 96, 98
14, 42871, Control_c, 12, 64, 127
14, 42899, Note_on_c, 12, 48, 0
14, 42899, Note_on_c, 12, 60, 0
14, 42899, Note_on_c, 12, 88, 0
14, 42899, Note_on_c, 12, 84, 0
14, 42899, Note_on_c, 12, 96, 0
14, 42900, Note_on_c, 12, 55, 97
14, 42900, Note_on_c, 12, 43, 91
14, 42900, Note_on_c, 12, 83, 86
14, 42900, Note_on_c, 12, 95, 94
14, 42900, Note_on_c, 12, 86, 97
14, 42959, Note_on_c, 12, 55, 0
14, 42959, Note_on_c, 12, 43, 0
14, 42959, Note_on_c, 12, 83, 0
14, 42959, Note_on_c, 12, 95, 0
14, 42959, Note_on_c, 12, 86, 0
14, 42959, Control_c, 12, 64, 0
14, 42960, Note_on_c, 12, 48, 78
14, 42960, Note_on_c, 12, 60, 85
14, 42960, Note_on_c, 12, 88, 87
14, 42960, Note_on_c, 12, 84, 82
14, 42960, Note_on_c, 12, 96, 94
14, 42992, Control_c, 12, 64, 127
14, 43019, Note_on_c, 12, 48, 0
14, 43019, Note_on_c, 12, 60, 0
14, 43019, Note_on_c, 12, 88, 0
14, 43019, Note_on_c, 12, 84, 0
14, 43019, Note_on_c, 12, 96, 0
14, 43020, Note_on_c, 12, 43, 93
14, 43020, Note_on_c, 12, 55, 97
14, 43020, Note_on_c, 12, 95, 96
14, 43020, Note_on_c, 12, 83, 87
14, 43020, Note_on_c, 12, 86, 92
14, 43079, Note_on_c, 12, 43, 0
14, 43079, Note_on_c, 12, 55, 0
14, 43079, Note_on_c, 12, 95, 0
14, 43079, Note_on_c, 12, 83, 0
14, 43079, Note_on_c, 12, 86, 0
14, 43080, Note_on_c, 12, 60, 85
14, 43080, Note_on_c, 12, 48, 88
14, 43080, Note_on_c, 12, 88, 78
14, 43080, Note_on_c, 12, 84, 82
14, 43080, Note_on_c, 12, 96, 96
14, 43139, Note_on_c, 12, 60, 0
14, 43139, Note_on_c, 12, 48, 0
14, 43139, Note_on_c, 12, 88, 0
14, 43139, Note_on_c, 12, 84, 0
14, 43139, Note_on_c, 12, 96, 0
14, 43140, Note_on_c, 12, 43, 94
14, 43140, Note_on_c, 12, 55, 96
14, 43140, Note_on_c, 12, 86, 91
14, 43140, Note_on_c, 12, 83, 86
14, 43140, Note_on_c, 12, 95, 94
14, 43186, Control_c, 12, 64, 0
14, 43199, Note_on_c, 12, 43, 0
14, 43199, Note_on_c, 12, 55, 0
14, 43199, Note_on_c, 12, 86, 0
14, 43199, Note_on_c, 12, 83, 0
14, 43199, Note_on_c, 12, 95, 0
14, 43200, Note_on_c, 12, 48, 90
14, 43200, Note_on_c, 12, 60, 100
14, 43200, Note_on_c, 12, 84, 100
14, 43200, Note_on_c, 12, 88, 107
14, 43200, Note_on_c, 12, 96, 98
14, 43230, Control_c, 12, 64, 127
14, 43319, Note_on_c, 12, 48, 0
14, 43319, Note_on_c, 12, 60, 0
14, 43319, Note_on_c, 12, 84, 0
14, 43319, Note_on_c, 12, 88, 0
14, 43319, Note_on_c, 12, 96, 0
14, 43319, Control_c, 12, 64, 0
14, 43440, Note_on_c, 12, 48, 94
14, 43440, Note_on_c, 12, 55, 87
14, 43440, Note_on_c, 12, 60, 88
14, 43440, Note_on_c, 12, 96, 93
14, 43440, Note_on_c, 12, 88, 109
14, 43440, Note_on_c, 12, 84, 98
14, 43474, Control_c, 12, 64, 127
14, 43474, Control_c, 12, 64, 0
14, 43474, Control_c, 12, 64, 127
14, 43559, Note_on_c, 12, 48, 0
14, 43559, Note_on_c, 12, 55, 0
14, 43559, Note_on_c, 12, 60, 0
14, 43559, Note_on_c, 12, 96, 0
14, 43559, Note_on_c, 12, 88, 0
14, 43559, Note_on_c, 12, 84, 0
14, 43571, Control_c, 12, 64, 0
14, 43680, Note_on_c, 12, 43, 93
14, 43680, Note_on_c, 12, 40, 92
14, 43680, Note_on_c, 12, 48, 100
14, 43680, Note_on_c, 12, 36, 92
14, 43680, Note_on_c, 12, 67, 100
14, 43680, Note_on_c, 12, 60, 100
14, 43680, Note_on_c, 12, 64, 104
14, 43680, Note_on_c, 12, 72, 88
14, 43718, Control_c, 12, 64, 127
14, 43718, Control_c, 12, 64, 0
14, 43718, Control_c, 12, 64, 127
14, 43799, Note_on_c, 12, 43, 0
14, 43799, Note_on_c, 12, 40, 0
14, 43799, Note_on_c, 12, 48, 0
14, 43799, Note_on_c, 12, 36, 0
14, 43799, Note_on_c, 12, 67, 0
14, 43799, Note_on_c, 12, 60, 0
14, 43799, Note_on_c, 12, 64, 0
14, 43799, Note_on_c, 12, 72, 0
14, 43823, Control_c, 12, 64, 0
14, 43823, End_track
15, 0, Start_track
15, 0, Title_t, "Piano 2        "
15, 0, Channel_prefix, 8
15, 9120, Note_on_c, 12, 48, 69
15, 9120, Note_on_c, 12, 60, 63
15, 9140, Control_c, 12, 64, 127
15, 9141, Control_c, 12, 64, 0
15, 9148, Control_c, 12, 64, 127
15, 9151, Note_on_c, 12, 48, 0
15, 9152, Note_on_c, 12, 60, 0
15, 9180, Note_on_c, 12, 67, 76
15, 9180, Note_on_c, 12, 64, 75
15, 9197, Note_on_c, 12, 64, 0
15, 9202, Note_on_c, 12, 67, 0
15, 9228, Control_c, 12, 64, 0
15, 9240, Note_on_c, 12, 60, 64
15, 9240, Note_on_c, 12, 48, 69
15, 9250, Control_c, 12, 64, 127
15, 9271, Note_on_c, 12, 48, 0
15, 9277, Note_on_c, 12, 60, 0
15, 9300, Note_on_c, 12, 67, 69
15, 9300, Note_on_c, 12, 64, 71
15, 9331, Note_on_c, 12, 67, 0
15, 9335, Note_on_c, 12, 64, 0
15, 9343, Control_c, 12, 64, 0
15, 9360, Note_on_c, 12, 59, 73
15, 9360, Note_on_c, 12, 47, 71
15, 9367, Control_c, 12, 64, 127
15, 9404, Note_on_c, 12, 59, 0
15, 9419, Note_on_c, 12, 47, 0
15, 9420, Note_on_c, 12, 67, 56
15, 9420, Note_on_c, 12, 64, 69
15, 9449, Note_on_c, 12, 64, 0
15, 9452, Note_on_c, 12, 67, 0
15, 9465, Control_c, 12, 64, 0
15, 9479, Control_c, 12, 64, 127
15, 9480, Note_on_c, 12, 47, 72
15, 9480, Note_on_c, 12, 59, 73
15, 9514, Note_on_c, 12, 47, 0
15, 9515, Note_on_c, 12, 59, 0
15, 9540, Note_on_c, 12, 67, 68
15, 9540, Note_on_c, 12, 64, 73
15, 9562, Note_on_c, 12, 64, 0
15, 9569, Note_on_c, 12, 67, 0
15, 9583, Control_c, 12, 64, 0
15, 9596, Control_c, 12, 64, 127
15, 9598, Control_c, 12, 64, 0
15, 9600, Note_on_c, 12, 58, 70
15, 9600, Note_on_c, 12, 46, 72
15, 9601, Control_c, 12, 64, 127
15, 9639, Note_on_c, 12, 46, 0
15, 9648, Note_on_c, 12, 58, 0
15, 9660, Note_on_c, 12, 62, 71
15, 9660, Note_on_c, 12, 64, 67
15, 9660, Note_on_c, 12, 67, 59
15, 9677, Note_on_c, 12, 67, 0
15, 9679, Note_on_c, 12, 64, 0
15, 9681, Note_on_c, 12, 62, 0
15, 9720, Note_on_c, 12, 46, 61
15, 9720, Note_on_c, 12, 58, 68
15, 9747, Note_on_c, 12, 46, 0
15, 9755, Note_on_c, 12, 58, 0
15, 9780, Note_on_c, 12, 62, 68
15, 9780, Note_on_c, 12, 67, 69
15, 9780, Note_on_c, 12, 64, 71
15, 9812, Note_on_c, 12, 62, 0
15, 9814, Note_on_c, 12, 67, 0
15, 9818, Note_on_c, 12, 64, 0
15, 9826, Control_c, 12, 64, 0
15, 9840, Note_on_c, 12, 45, 73
15, 9840, Note_on_c, 12, 57, 66
15, 9849, Control_c, 12, 64, 127
15, 9891, Note_on_c, 12, 57, 0
15, 9895, Note_on_c, 12, 45, 0
15, 9900, Note_on_c, 12, 61, 57
15, 9900, Note_on_c, 12, 64, 61
15, 9900, Note_on_c, 12, 67, 51
15, 9917, Note_on_c, 12, 67, 0
15, 9922, Note_on_c, 12, 64, 0
15, 9923, Note_on_c, 12, 61, 0
15, 9960, Note_on_c, 12, 45, 73
15, 9960, Note_on_c, 12, 57, 67
15, 9998, Note_on_c, 12, 45, 0
15, 10010, Note_on_c, 12, 57, 0
15, 10020, Note_on_c, 12, 61, 65
15, 10020, Note_on_c, 12, 64, 74
15, 10020, Note_on_c, 12, 67, 60
15, 10036, Note_on_c, 12, 67, 0
15, 10044, Note_on_c, 12, 64, 0
15, 10048, Note_on_c, 12, 61, 0
15, 10065, Control_c, 12, 64, 0
15, 10080, Note_on_c, 12, 46, 70
15, 10080, Note_on_c, 12, 58, 70
15, 10090, Control_c, 12, 64, 127
15, 10140, Note_on_c, 12, 65, 69
15, 10140, Note_on_c, 12, 62, 72
15, 10141, Note_on_c, 12, 46, 0
15, 10147, Note_on_c, 12, 58, 0
15, 10159, Note_on_c, 12, 62, 0
15, 10161, Note_on_c, 12, 65, 0
15, 10200, Note_on_c, 12, 46, 67
15, 10200, Note_on_c, 12, 58, 66
15, 10229, Note_on_c, 12, 58, 0
15, 10233, Note_on_c, 12, 46, 0
15, 10260, Note_on_c, 12, 65, 71
15, 10260, Note_on_c, 12, 62, 71
15, 10284, Note_on_c, 12, 65, 0
15, 10301, Control_c, 12, 64, 0
15, 10302, Note_on_c, 12, 62, 0
15, 10305, Control_c, 12, 64, 127
15, 10305, Control_c, 12, 64, 0
15, 10320, Note_on_c, 12, 45, 71
15, 10320, Note_on_c, 12, 57, 68
15, 10323, Control_c, 12, 64, 127
15, 10326, Control_c, 12, 64, 0
15, 10329, Control_c, 12, 64, 127
15, 10373, Note_on_c, 12, 45, 0
15, 10377, Note_on_c, 12, 57, 0
15, 10380, Note_on_c, 12, 62, 74
15, 10380, Note_on_c, 12, 65, 71
15, 10404, Note_on_c, 12, 65, 0
15, 10406, Note_on_c, 12, 62, 0
15, 10440, Note_on_c, 12, 45, 66
15, 10440, Note_on_c, 12, 57, 68
15, 10468, Note_on_c, 12, 45, 0
15, 10473, Note_on_c, 12, 57, 0
15, 10500, Note_on_c, 12, 65, 66
15, 10500, Note_on_c, 12, 62, 74
15, 10525, Note_on_c, 12, 65, 0
15, 10529, Note_on_c, 12, 62, 0
15, 10549, Control_c, 12, 64, 0
15, 10553, Control_c, 12, 64, 0
15, 10553, Control_c, 12, 64, 127
15, 10560, Note_on_c, 12, 56, 74
15, 10560, Note_on_c, 12, 44, 73
15, 10573, Control_c, 12, 64, 127
15, 10620, Note_on_c, 12, 60, 54
15, 10620, Note_on_c, 12, 62, 76
15, 10620, Note_on_c, 12, 65, 69
15, 10628, Note_on_c, 12, 56, 0
15, 10629, Note_on_c, 12, 44, 0
15, 10641, Note_on_c, 12, 65, 0
15, 10643, Note_on_c, 12, 60, 0
15, 10643, Note_on_c, 12, 62, 0
15, 10680, Note_on_c, 12, 56, 72
15, 10680, Note_on_c, 12, 44, 67
15, 10708, Note_on_c, 12, 44, 0
15, 10718, Note_on_c, 12, 56, 0
15, 10740, Note_on_c, 12, 62, 74
15, 10740, Note_on_c, 12, 65, 70
15, 10740, Note_on_c, 12, 60, 65
15, 10755, Note_on_c, 12, 65, 0
15, 10759, Note_on_c, 12, 62, 0
15, 10761, Note_on_c, 12, 60, 0
15, 10792, Control_c, 12, 64, 0
15, 10800, Note_on_c, 12, 43, 72
15, 10800, Note_on_c, 12, 55, 66
15, 10817, Control_c, 12, 64, 127
15, 10854, Note_on_c, 12, 43, 0
15, 10859, Note_on_c, 12, 55, 0
15, 10860, Note_on_c, 12, 62, 72
15, 10860, Note_on_c, 12, 65, 73
15, 10860, Note_on_c, 12, 59, 62
15, 10879, Note_on_c, 12, 59, 0
15, 10884, Note_on_c, 12, 62, 0
15, 10888, Note_on_c, 12, 65, 0
15, 10920, Note_on_c, 12, 43, 69
15, 10920, Note_on_c, 12, 55, 63
15, 10952, Note_on_c, 12, 43, 0
15, 10955, Note_on_c, 12, 55, 0
15, 10980, Note_on_c, 12, 65, 69
15, 10980, Note_on_c, 12, 62, 74
15, 10980, Note_on_c, 12, 59, 68
15, 11003, Note_on_c, 12, 59, 0
15, 11006, Note_on_c, 12, 65, 0
15, 11017, Note_on_c, 12, 62, 0
15, 11019, Control_c, 12, 64, 0
15, 11020, Control_c, 12, 64, 127
15, 11023, Control_c, 12, 64, 0
15, 11040, Note_on_c, 12, 45, 72
15, 11040, Note_on_c, 12, 57, 69
15, 11043, Control_c, 12, 64, 127
15, 11100, Note_on_c, 12, 45, 0
15, 11100, Note_on_c, 12, 60, 66
15, 11100, Note_on_c, 12, 64, 68
15, 11103, Note_on_c, 12, 57, 0
15, 11125, Note_on_c, 12, 64, 0
15, 11134, Note_on_c, 12, 60, 0
15, 11160, Note_on_c, 12, 57, 66
15, 11160, Note_on_c, 12, 45, 63
15, 11189, Note_on_c, 12, 45, 0
15, 11201, Note_on_c, 12, 57, 0
15, 11220, Note_on_c, 12, 64, 71
15, 11220, Note_on_c, 12, 60, 67
15, 11241, Note_on_c, 12, 64, 0
15, 11243, Note_on_c, 12, 60, 0
15, 11280, Note_on_c, 12, 43, 75
15, 11280, Note_on_c, 12, 55, 67
15, 11282, Control_c, 12, 64, 0
15, 11298, Control_c, 12, 64, 127
15, 11300, Control_c, 12, 64, 0
15, 11303, Control_c, 12, 64, 127
15, 11340, Note_on_c, 12, 58, 64
15, 11340, Note_on_c, 12, 64, 68
15, 11340, Note_on_c, 12, 60, 65
15, 11345, Note_on_c, 12, 43, 0
15, 11347, Note_on_c, 12, 55, 0
15, 11358, Note_on_c, 12, 58, 0
15, 11360, Note_on_c, 12, 60, 0
15, 11363, Note_on_c, 12, 64, 0
15, 11400, Note_on_c, 12, 55, 64
15, 11400, Note_on_c, 12, 43, 65
15, 11431, Note_on_c, 12, 43, 0
15, 11435, Note_on_c, 12, 55, 0
15, 11460, Note_on_c, 12, 58, 62
15, 11460, Note_on_c, 12, 60, 63
15, 11460, Note_on_c, 12, 64, 63
15, 11483, Note_on_c, 12, 64, 0
15, 11485, Note_on_c, 12, 60, 0
15, 11489, Note_on_c, 12, 58, 0
15, 11511, Control_c, 12, 64, 0
15, 11520, Note_on_c, 12, 41, 69
15, 11520, Note_on_c, 12, 53, 68
15, 11534, Control_c, 12, 64, 127
15, 11578, Note_on_c, 12, 41, 0
15, 11580, Note_on_c, 12, 65, 69
15, 11580, Note_on_c, 12, 60, 78
15, 11580, Note_on_c, 12, 57, 68
15, 11584, Note_on_c, 12, 53, 0
15, 11595, Note_on_c, 12, 57, 0
15, 11600, Note_on_c, 12, 65, 0
15, 11605, Note_on_c, 12, 60, 0
15, 11640, Note_on_c, 12, 53, 64
15, 11640, Note_on_c, 12, 41, 65
15, 11677, Note_on_c, 12, 41, 0
15, 11695, Note_on_c, 12, 53, 0
15, 11700, Note_on_c, 12, 60, 82
15, 11700, Note_on_c, 12, 57, 78
15, 11700, Note_on_c, 12, 65, 69
15, 11720, Note_on_c, 12, 65, 0
15, 11722, Note_on_c, 12, 60, 0
15, 11726, Note_on_c, 12, 57, 0
15, 11760, Note_on_c, 12, 50, 71
15, 11760, Note_on_c, 12, 38, 70
15, 11767, Control_c, 12, 64, 0
15, 11787, Control_c, 12, 64, 127
15, 11814, Note_on_c, 12, 38, 0
15, 11817, Note_on_c, 12, 50, 0
15, 11820, Note_on_c, 12, 57, 69
15, 11820, Note_on_c, 12, 62, 76
15, 11820, Note_on_c, 12, 65, 68
15, 11836, Note_on_c, 12, 65, 0
15, 11839, Note_on_c, 12, 57, 0
15, 11844, Note_on_c, 12, 62, 0
15, 11880, Note_on_c, 12, 50, 59
15, 11880, Note_on_c, 12, 38, 72
15, 11904, Note_on_c, 12, 38, 0
15, 11907, Note_on_c, 12, 50, 0
15, 11940, Note_on_c, 12, 57, 74
15, 11940, Note_on_c, 12, 62, 76
15, 11940, Note_on_c, 12, 65, 68
15, 11954, Note_on_c, 12, 62, 0
15, 11955, Note_on_c, 12, 57, 0
15, 11958, Note_on_c, 12, 65, 0
15, 11998, Control_c, 12, 64, 0
15, 12000, Note_on_c, 12, 43, 74
15, 12000, Note_on_c, 12, 55, 72
15, 12016, Control_c, 12, 64, 127
15, 12017, Control_c, 12, 64, 0
15, 12020, Control_c, 12, 64, 127
15, 12060, Note_on_c, 12, 65, 78
15, 12060, Note_on_c, 12, 67, 76
15, 12061, Note_on_c, 12, 43, 0
15, 12065, Note_on_c, 12, 55, 0
15, 12084, Note_on_c, 12, 65, 0
15, 12087, Note_on_c, 12, 67, 0
15, 12120, Note_on_c, 12, 55, 68
15, 12120, Note_on_c, 12, 43, 76
15, 12167, Note_on_c, 12, 43, 0
15, 12177, Note_on_c, 12, 55, 0
15, 12180, Note_on_c, 12, 67, 80
15, 12180, Note_on_c, 12, 64, 71
15, 12200, Note_on_c, 12, 67, 0
15, 12201, Note_on_c, 12, 64, 0
15, 12230, Control_c, 12, 64, 0
15, 12234, Control_c, 12, 64, 127
15, 12234, Control_c, 12, 64, 0
15, 12240, Note_on_c, 12, 43, 82
15, 12240, Note_on_c, 12, 55, 78
15, 12258, Control_c, 12, 64, 127
15, 12300, Note_on_c, 12, 67, 77
15, 12300, Note_on_c, 12, 64, 80
15, 12300, Note_on_c, 12, 62, 78
15, 12307, Note_on_c, 12, 43, 0
15, 12311, Note_on_c, 12, 55, 0
15, 12319, Note_on_c, 12, 67, 0
15, 12324, Note_on_c, 12, 64, 0
15, 12329, Note_on_c, 12, 62, 0
15, 12360, Note_on_c, 12, 43, 78
15, 12360, Note_on_c, 12, 55, 74
15, 12420, Note_on_c, 12, 67, 78
15, 12420, Note_on_c, 12, 60, 71
15, 12420, Note_on_c, 12, 64, 82
15, 12424, Note_on_c, 12, 43, 0
15, 12428, Note_on_c, 12, 55, 0
15, 12443, Note_on_c, 12, 60, 0
15, 12445, Note_on_c, 12, 64, 0
15, 12450, Note_on_c, 12, 67, 0
15, 12480, Control_c, 12, 64, 0
15, 12480, Note_on_c, 12, 43, 82
15, 12480, Note_on_c, 12, 55, 80
15, 12499, Control_c, 12, 64, 127
15, 12540, Note_on_c, 12, 62, 76
15, 12540, Note_on_c, 12, 69, 84
15, 12540, Note_on_c, 12, 72, 74
15, 12573, Note_on_c, 12, 62, 0
15, 12580, Note_on_c, 12, 43, 0
15, 12581, Note_on_c, 12, 72, 0
15, 12585, Note_on_c, 12, 55, 0
15, 12589, Note_on_c, 12, 69, 0
15, 12600, Note_on_c, 12, 43, 74
15, 12600, Note_on_c, 12, 55, 81
15, 12660, Note_on_c, 12, 62, 78
15, 12660, Note_on_c, 12, 72, 78
15, 12660, Note_on_c, 12, 69, 87
15, 12671, Note_on_c, 12, 43, 0
15, 12677, Note_on_c, 12, 55, 0
15, 12680, Note_on_c, 12, 69, 0
15, 12681, Note_on_c, 12, 62, 0
15, 12682, Note_on_c, 12, 72, 0
15, 12720, Note_on_c, 12, 43, 85
15, 12720, Note_on_c, 12, 55, 79
15, 12720, Note_on_c, 12, 67, 85
15, 12720, Note_on_c, 12, 71, 84
15, 12720, Note_on_c, 12, 62, 105
15, 12747, Control_c, 12, 64, 0
15, 12748, Control_c, 12, 64, 127
15, 12752, Control_c, 12, 64, 0
15, 12831, Note_on_c, 12, 67, 0
15, 12833, Note_on_c, 12, 71, 0
15, 12836, Note_on_c, 12, 62, 0
15, 12839, Note_on_c, 12, 55, 0
15, 12851, Note_on_c, 12, 43, 0
15, 12960, Note_on_c, 12, 36, 76
15, 12989, Note_on_c, 12, 36, 0
15, 12990, Note_on_c, 12, 38, 78
15, 13019, Note_on_c, 12, 38, 0
15, 13020, Note_on_c, 12, 39, 78
15, 13049, Note_on_c, 12, 39, 0
15, 13050, Note_on_c, 12, 43, 73
15, 13079, Note_on_c, 12, 43, 0
15, 13080, Note_on_c, 12, 41, 76
15, 13109, Note_on_c, 12, 41, 0
15, 13110, Note_on_c, 12, 43, 78
15, 13139, Note_on_c, 12, 43, 0
15, 13140, Note_on_c, 12, 44, 73
15, 13169, Note_on_c, 12, 44, 0
15, 13170, Note_on_c, 12, 48, 78
15, 13199, Note_on_c, 12, 48, 0
15, 13200, Note_on_c, 12, 48, 69
15, 13229, Note_on_c, 12, 48, 0
15, 13230, Note_on_c, 12, 50, 78
15, 13259, Note_on_c, 12, 50, 0
15, 13260, Note_on_c, 12, 51, 78
15, 13289, Note_on_c, 12, 51, 0
15, 13290, Note_on_c, 12, 55, 76
15, 13319, Note_on_c, 12, 55, 0
15, 13320, Note_on_c, 12, 53, 78
15, 13349, Note_on_c, 12, 53, 0
15, 13350, Note_on_c, 12, 55, 74
15, 13379, Note_on_c, 12, 55, 0
15, 13380, Note_on_c, 12, 56, 75
15, 13409, Note_on_c, 12, 56, 0
15, 13410, Note_on_c, 12, 60, 79
15, 13439, Note_on_c, 12, 60, 0
15, 13440, Note_on_c, 12, 60, 71
15, 13469, Note_on_c, 12, 60, 0
15, 13470, Note_on_c, 12, 62, 78
15, 13499, Note_on_c, 12, 62, 0
15, 13500, Note_on_c, 12, 63, 76
15, 13529, Note_on_c, 12, 63, 0
15, 13530, Note_on_c, 12, 67, 76
15, 13559, Note_on_c, 12, 67, 0
15, 13560, Note_on_c, 12, 65, 78
15, 13589, Note_on_c, 12, 65, 0
15, 13590, Note_on_c, 12, 67, 82
15, 13619, Note_on_c, 12, 67, 0
15, 13620, Note_on_c, 12, 68, 75
15, 13649, Note_on_c, 12, 68, 0
15, 13650, Note_on_c, 12, 72, 82
15, 13679, Note_on_c, 12, 72, 0
15, 13680, Note_on_c, 12, 72, 74
15, 13709, Note_on_c, 12, 72, 0
15, 13710, Note_on_c, 12, 74, 76
15, 13739, Note_on_c, 12, 74, 0
15, 13740, Note_on_c, 12, 75, 80
15, 13769, Note_on_c, 12, 75, 0
15, 13770, Note_on_c, 12, 79, 76
15, 13799, Note_on_c, 12, 79, 0
15, 13800, Note_on_c, 12, 77, 76
15, 13829, Note_on_c, 12, 77, 0
15, 13830, Note_on_c, 12, 79, 78
15, 13859, Note_on_c, 12, 79, 0
15, 13860, Note_on_c, 12, 80, 73
15, 13889, Note_on_c, 12, 80, 0
15, 13890, Note_on_c, 12, 84, 77
15, 13919, Note_on_c, 12, 84, 0
15, 13920, Note_on_c, 12, 87, 74
15, 13949, Note_on_c, 12, 87, 0
15, 13950, Note_on_c, 12, 89, 68
15, 13979, Note_on_c, 12, 89, 0
15, 13980, Note_on_c, 12, 91, 71
15, 14009, Note_on_c, 12, 91, 0
15, 14010, Note_on_c, 12, 84, 65
15, 14039, Note_on_c, 12, 84, 0
15, 14040, Note_on_c, 12, 83, 75
15, 14069, Note_on_c, 12, 83, 0
15, 14070, Note_on_c, 12, 84, 71
15, 14099, Note_on_c, 12, 84, 0
15, 14100, Note_on_c, 12, 86, 74
15, 14129, Note_on_c, 12, 86, 0
15, 14130, Note_on_c, 12, 77, 76
15, 14159, Note_on_c, 12, 77, 0
15, 14160, Note_on_c, 12, 75, 74
15, 14189, Note_on_c, 12, 75, 0
15, 14190, Note_on_c, 12, 77, 72
15, 14219, Note_on_c, 12, 77, 0
15, 14220, Note_on_c, 12, 79, 68
15, 14249, Note_on_c, 12, 79, 0
15, 14250, Note_on_c, 12, 72, 72
15, 14279, Note_on_c, 12, 72, 0
15, 14280, Note_on_c, 12, 71, 74
15, 14309, Note_on_c, 12, 71, 0
15, 14310, Note_on_c, 12, 72, 69
15, 14339, Note_on_c, 12, 72, 0
15, 14340, Note_on_c, 12, 74, 69
15, 14369, Note_on_c, 12, 74, 0
15, 14370, Note_on_c, 12, 65, 71
15, 14399, Note_on_c, 12, 65, 0
15, 14400, Note_on_c, 12, 63, 62
15, 14429, Note_on_c, 12, 63, 0
15, 14430, Note_on_c, 12, 65, 72
15, 14459, Note_on_c, 12, 65, 0
15, 14460, Note_on_c, 12, 67, 72
15, 14489, Note_on_c, 12, 67, 0
15, 14490, Note_on_c, 12, 60, 76
15, 14519, Note_on_c, 12, 60, 0
15, 14520, Note_on_c, 12, 62, 66
15, 14549, Note_on_c, 12, 62, 0
15, 14550, Note_on_c, 12, 60, 67
15, 14579, Note_on_c, 12, 60, 0
15, 14580, Note_on_c, 12, 59, 72
15, 14609, Note_on_c, 12, 59, 0
15, 14610, Note_on_c, 12, 57, 75
15, 14639, Note_on_c, 12, 57, 0
15, 14640, Note_on_c, 12, 60, 71
15, 14669, Note_on_c, 12, 60, 0
15, 14670, Note_on_c, 12, 59, 76
15, 14699, Note_on_c, 12, 59, 0
15, 14700, Note_on_c, 12, 57, 72
15, 14729, Note_on_c, 12, 57, 0
15, 14730, Note_on_c, 12, 55, 75
15, 14759, Note_on_c, 12, 55, 0
15, 14760, Note_on_c, 12, 55, 78
15, 14789, Note_on_c, 12, 55, 0
15, 14790, Note_on_c, 12, 53, 71
15, 14819, Note_on_c, 12, 53, 0
15, 14820, Note_on_c, 12, 51, 65
15, 14849, Note_on_c, 12, 51, 0
15, 14850, Note_on_c, 12, 50, 75
15, 14879, Note_on_c, 12, 50, 0
15, 14880, Note_on_c, 12, 48, 52
15, 14909, Note_on_c, 12, 48, 0
15, 14910, Note_on_c, 12, 50, 78
15, 14939, Note_on_c, 12, 50, 0
15, 14940, Note_on_c, 12, 51, 77
15, 14969, Note_on_c, 12, 51, 0
15, 14970, Note_on_c, 12, 55, 74
15, 14999, Note_on_c, 12, 55, 0
15, 15000, Note_on_c, 12, 53, 76
15, 15029, Note_on_c, 12, 53, 0
15, 15030, Note_on_c, 12, 55, 76
15, 15059, Note_on_c, 12, 55, 0
15, 15060, Note_on_c, 12, 56, 78
15, 15089, Note_on_c, 12, 56, 0
15, 15090, Note_on_c, 12, 60, 72
15, 15119, Note_on_c, 12, 60, 0
15, 15120, Note_on_c, 12, 60, 77
15, 15149, Note_on_c, 12, 60, 0
15, 15150, Note_on_c, 12, 62, 76
15, 15179, Note_on_c, 12, 62, 0
15, 15180, Note_on_c, 12, 63, 67
15, 15209, Note_on_c, 12, 63, 0
15, 15210, Note_on_c, 12, 67, 74
15, 15239, Note_on_c, 12, 67, 0
15, 15240, Note_on_c, 12, 65, 71
15, 15269, Note_on_c, 12, 65, 0
15, 15270, Note_on_c, 12, 67, 82
15, 15299, Note_on_c, 12, 67, 0
15, 15300, Note_on_c, 12, 68, 75
15, 15329, Note_on_c, 12, 68, 0
15, 15330, Note_on_c, 12, 72, 78
15, 15359, Note_on_c, 12, 72, 0
15, 15360, Note_on_c, 12, 60, 67
15, 15389, Note_on_c, 12, 60, 0
15, 15390, Note_on_c, 12, 62, 79
15, 15419, Note_on_c, 12, 62, 0
15, 15420, Note_on_c, 12, 63, 75
15, 15449, Note_on_c, 12, 63, 0
15, 15450, Note_on_c, 12, 67, 76
15, 15479, Note_on_c, 12, 67, 0
15, 15480, Note_on_c, 12, 65, 79
15, 15509, Note_on_c, 12, 65, 0
15, 15510, Note_on_c, 12, 67, 78
15, 15539, Note_on_c, 12, 67, 0
15, 15540, Note_on_c, 12, 68, 79
15, 15569, Note_on_c, 12, 68, 0
15, 15570, Note_on_c, 12, 72, 87
15, 15599, Note_on_c, 12, 72, 0
15, 15600, Note_on_c, 12, 72, 82
15, 15629, Note_on_c, 12, 72, 0
15, 15630, Note_on_c, 12, 74, 82
15, 15659, Note_on_c, 12, 74, 0
15, 15660, Note_on_c, 12, 75, 70
15, 15689, Note_on_c, 12, 75, 0
15, 15690, Note_on_c, 12, 79, 78
15, 15719, Note_on_c, 12, 79, 0
15, 15720, Note_on_c, 12, 77, 75
15, 15749, Note_on_c, 12, 77, 0
15, 15750, Note_on_c, 12, 79, 77
15, 15779, Note_on_c, 12, 79, 0
15, 15780, Note_on_c, 12, 80, 74
15, 15809, Note_on_c, 12, 80, 0
15, 15810, Note_on_c, 12, 84, 87
15, 15839, Note_on_c, 12, 84, 0
15, 15840, Note_on_c, 12, 87, 80
15, 15869, Note_on_c, 12, 87, 0
15, 15870, Note_on_c, 12, 89, 76
15, 15899, Note_on_c, 12, 89, 0
15, 15900, Note_on_c, 12, 91, 78
15, 15929, Note_on_c, 12, 91, 0
15, 15930, Note_on_c, 12, 84, 79
15, 15959, Note_on_c, 12, 84, 0
15, 15960, Note_on_c, 12, 83, 74
15, 15989, Note_on_c, 12, 83, 0
15, 15990, Note_on_c, 12, 84, 74
15, 16019, Note_on_c, 12, 84, 0
15, 16020, Note_on_c, 12, 86, 76
15, 16049, Note_on_c, 12, 86, 0
15, 16050, Note_on_c, 12, 77, 78
15, 16079, Note_on_c, 12, 77, 0
15, 16080, Note_on_c, 12, 75, 73
15, 16109, Note_on_c, 12, 75, 0
15, 16110, Note_on_c, 12, 77, 71
15, 16139, Note_on_c, 12, 77, 0
15, 16140, Note_on_c, 12, 79, 75
15, 16169, Note_on_c, 12, 79, 0
15, 16170, Note_on_c, 12, 72, 71
15, 16199, Note_on_c, 12, 72, 0
15, 16200, Note_on_c, 12, 71, 72
15, 16229, Note_on_c, 12, 71, 0
15, 16230, Note_on_c, 12, 72, 67
15, 16259, Note_on_c, 12, 72, 0
15, 16260, Note_on_c, 12, 74, 69
15, 16289, Note_on_c, 12, 74, 0
15, 16290, Note_on_c, 12, 65, 66
15, 16319, Note_on_c, 12, 65, 0
15, 16320, Note_on_c, 12, 63, 68
15, 16349, Note_on_c, 12, 63, 0
15, 16350, Note_on_c, 12, 65, 76
15, 16379, Note_on_c, 12, 65, 0
15, 16380, Note_on_c, 12, 67, 78
15, 16409, Note_on_c, 12, 67, 0
15, 16410, Note_on_c, 12, 60, 76
15, 16439, Note_on_c, 12, 60, 0
15, 16440, Note_on_c, 12, 62, 73
15, 16469, Note_on_c, 12, 62, 0
15, 16470, Note_on_c, 12, 60, 73
15, 16499, Note_on_c, 12, 60, 0
15, 16500, Note_on_c, 12, 59, 72
15, 16529, Note_on_c, 12, 59, 0
15, 16530, Note_on_c, 12, 57, 71
15, 16559, Note_on_c, 12, 57, 0
15, 16560, Note_on_c, 12, 60, 71
15, 16589, Note_on_c, 12, 60, 0
15, 16590, Note_on_c, 12, 59, 75
15, 16619, Note_on_c, 12, 59, 0
15, 16620, Note_on_c, 12, 57, 62
15, 16649, Note_on_c, 12, 57, 0
15, 16650, Note_on_c, 12, 55, 74
15, 16679, Note_on_c, 12, 55, 0
15, 16680, Note_on_c, 12, 55, 78
15, 16709, Note_on_c, 12, 55, 0
15, 16710, Note_on_c, 12, 53, 71
15, 16739, Note_on_c, 12, 53, 0
15, 16740, Note_on_c, 12, 51, 74
15, 16769, Note_on_c, 12, 51, 0
15, 16770, Note_on_c, 12, 50, 82
15, 16799, Note_on_c, 12, 50, 0
15, 16800, Note_on_c, 12, 48, 72
15, 16829, Note_on_c, 12, 48, 0
15, 16830, Note_on_c, 12, 46, 68
15, 16859, Note_on_c, 12, 46, 0
15, 16860, Note_on_c, 12, 44, 65
15, 16889, Note_on_c, 12, 44, 0
15, 16890, Note_on_c, 12, 43, 73
15, 16919, Note_on_c, 12, 43, 0
15, 16920, Note_on_c, 12, 41, 78
15, 16949, Note_on_c, 12, 41, 0
15, 16950, Note_on_c, 12, 44, 69
15, 16979, Note_on_c, 12, 44, 0
15, 16980, Note_on_c, 12, 48, 75
15, 17009, Note_on_c, 12, 48, 0
15, 17010, Note_on_c, 12, 53, 78
15, 17039, Note_on_c, 12, 53, 0
15, 17040, Note_on_c, 12, 60, 68
15, 17069, Note_on_c, 12, 60, 0
15, 17070, Note_on_c, 12, 58, 70
15, 17099, Note_on_c, 12, 58, 0
15, 17100, Note_on_c, 12, 56, 68
15, 17129, Note_on_c, 12, 56, 0
15, 17130, Note_on_c, 12, 55, 69
15, 17159, Note_on_c, 12, 55, 0
15, 17160, Note_on_c, 12, 53, 51
15, 17189, Note_on_c, 12, 53, 0
15, 17190, Note_on_c, 12, 56, 74
15, 17219, Note_on_c, 12, 56, 0
15, 17220, Note_on_c, 12, 60, 78
15, 17249, Note_on_c, 12, 60, 0
15, 17250, Note_on_c, 12, 65, 84
15, 17279, Note_on_c, 12, 65, 0
15, 17280, Note_on_c, 12, 50, 77
15, 17309, Note_on_c, 12, 50, 0
15, 17310, Note_on_c, 12, 48, 77
15, 17339, Note_on_c, 12, 48, 0
15, 17340, Note_on_c, 12, 47, 71
15, 17369, Note_on_c, 12, 47, 0
15, 17370, Note_on_c, 12, 45, 69
15, 17399, Note_on_c, 12, 45, 0
15, 17400, Note_on_c, 12, 43, 79
15, 17429, Note_on_c, 12, 43, 0
15, 17430, Note_on_c, 12, 47, 74
15, 17459, Note_on_c, 12, 47, 0
15, 17460, Note_on_c, 12, 50, 78
15, 17489, Note_on_c, 12, 50, 0
15, 17490, Note_on_c, 12, 55, 82
15, 17519, Note_on_c, 12, 55, 0
15, 17520, Note_on_c, 12, 62, 82
15, 17549, Note_on_c, 12, 62, 0
15, 17550, Note_on_c, 12, 60, 69
15, 17579, Note_on_c, 12, 60, 0
15, 17580, Note_on_c, 12, 59, 77
15, 17609, Note_on_c, 12, 59, 0
15, 17610, Note_on_c, 12, 57, 76
15, 17639, Note_on_c, 12, 57, 0
15, 17640, Note_on_c, 12, 55, 72
15, 17669, Note_on_c, 12, 55, 0
15, 17670, Note_on_c, 12, 59, 75
15, 17699, Note_on_c, 12, 59, 0
15, 17700, Note_on_c, 12, 62, 73
15, 17729, Note_on_c, 12, 62, 0
15, 17730, Note_on_c, 12, 67, 82
15, 17759, Note_on_c, 12, 67, 0
15, 17760, Note_on_c, 12, 51, 78
15, 17789, Note_on_c, 12, 51, 0
15, 17790, Note_on_c, 12, 50, 78
15, 17819, Note_on_c, 12, 50, 0
15, 17820, Note_on_c, 12, 48, 76
15, 17849, Note_on_c, 12, 48, 0
15, 17850, Note_on_c, 12, 46, 66
15, 17879, Note_on_c, 12, 46, 0
15, 17880, Note_on_c, 12, 44, 70
15, 17909, Note_on_c, 12, 44, 0
15, 17910, Note_on_c, 12, 48, 78
15, 17939, Note_on_c, 12, 48, 0
15, 17940, Note_on_c, 12, 51, 79
15, 17969, Note_on_c, 12, 51, 0
15, 17970, Note_on_c, 12, 56, 77
15, 17999, Note_on_c, 12, 56, 0
15, 18000, Note_on_c, 12, 63, 68
15, 18029, Note_on_c, 12, 63, 0
15, 18030, Note_on_c, 12, 62, 77
15, 18059, Note_on_c, 12, 62, 0
15, 18060, Note_on_c, 12, 60, 75
15, 18089, Note_on_c, 12, 60, 0
15, 18090, Note_on_c, 12, 58, 68
15, 18119, Note_on_c, 12, 58, 0
15, 18120, Note_on_c, 12, 56, 80
15, 18149, Note_on_c, 12, 56, 0
15, 18150, Note_on_c, 12, 60, 74
15, 18179, Note_on_c, 12, 60, 0
15, 18180, Note_on_c, 12, 63, 81
15, 18209, Note_on_c, 12, 63, 0
15, 18210, Note_on_c, 12, 68, 79
15, 18239, Note_on_c, 12, 68, 0
15, 18240, Note_on_c, 12, 53, 79
15, 18269, Note_on_c, 12, 53, 0
15, 18270, Note_on_c, 12, 51, 70
15, 18299, Note_on_c, 12, 51, 0
15, 18300, Note_on_c, 12, 50, 75
15, 18329, Note_on_c, 12, 50, 0
15, 18330, Note_on_c, 12, 48, 73
15, 18359, Note_on_c, 12, 48, 0
15, 18360, Note_on_c, 12, 46, 78
15, 18389, Note_on_c, 12, 46, 0
15, 18390, Note_on_c, 12, 50, 90
15, 18419, Note_on_c, 12, 50, 0
15, 18420, Note_on_c, 12, 53, 77
15, 18449, Note_on_c, 12, 53, 0
15, 18450, Note_on_c, 12, 58, 89
15, 18479, Note_on_c, 12, 58, 0
15, 18480, Note_on_c, 12, 65, 79
15, 18509, Note_on_c, 12, 65, 0
15, 18510, Note_on_c, 12, 63, 78
15, 18539, Note_on_c, 12, 63, 0
15, 18540, Note_on_c, 12, 62, 76
15, 18569, Note_on_c, 12, 62, 0
15, 18570, Note_on_c, 12, 60, 76
15, 18599, Note_on_c, 12, 60, 0
15, 18600, Note_on_c, 12, 58, 65
15, 18629, Note_on_c, 12, 58, 0
15, 18630, Note_on_c, 12, 62, 82
15, 18659, Note_on_c, 12, 62, 0
15, 18660, Note_on_c, 12, 65, 80
15, 18689, Note_on_c, 12, 65, 0
15, 18690, Note_on_c, 12, 70, 81
15, 18719, Note_on_c, 12, 70, 0
15, 18720, Note_on_c, 12, 53, 68
15, 18749, Note_on_c, 12, 53, 0
15, 18750, Note_on_c, 12, 52, 78
15, 18779, Note_on_c, 12, 52, 0
15, 18780, Note_on_c, 12, 50, 78
15, 18809, Note_on_c, 12, 50, 0
15, 18810, Note_on_c, 12, 48, 71
15, 18839, Note_on_c, 12, 48, 0
15, 18840, Note_on_c, 12, 47, 54
15, 18869, Note_on_c, 12, 47, 0
15, 18870, Note_on_c, 12, 50, 78
15, 18899, Note_on_c, 12, 50, 0
15, 18900, Note_on_c, 12, 53, 82
15, 18929, Note_on_c, 12, 53, 0
15, 18930, Note_on_c, 12, 59, 90
15, 18959, Note_on_c, 12, 59, 0
15, 18960, Note_on_c, 12, 57, 76
15, 18989, Note_on_c, 12, 57, 0
15, 18990, Note_on_c, 12, 55, 75
15, 19019, Note_on_c, 12, 55, 0
15, 19020, Note_on_c, 12, 53, 75
15, 19049, Note_on_c, 12, 53, 0
15, 19050, Note_on_c, 12, 52, 69
15, 19079, Note_on_c, 12, 52, 0
15, 19080, Note_on_c, 12, 50, 71
15, 19109, Note_on_c, 12, 50, 0
15, 19110, Note_on_c, 12, 53, 59
15, 19139, Note_on_c, 12, 53, 0
15, 19140, Note_on_c, 12, 59, 78
15, 19169, Note_on_c, 12, 59, 0
15, 19170, Note_on_c, 12, 62, 84
15, 19199, Note_on_c, 12, 62, 0
15, 19200, Note_on_c, 12, 65, 89
15, 19229, Note_on_c, 12, 65, 0
15, 19230, Note_on_c, 12, 64, 74
15, 19259, Note_on_c, 12, 64, 0
15, 19260, Note_on_c, 12, 62, 78
15, 19289, Note_on_c, 12, 62, 0
15, 19290, Note_on_c, 12, 60, 74
15, 19319, Note_on_c, 12, 60, 0
15, 19320, Note_on_c, 12, 59, 84
15, 19349, Note_on_c, 12, 59, 0
15, 19350, Note_on_c, 12, 62, 72
15, 19379, Note_on_c, 12, 62, 0
15, 19380, Note_on_c, 12, 65, 76
15, 19409, Note_on_c, 12, 65, 0
15, 19410, Note_on_c, 12, 71, 78
15, 19439, Note_on_c, 12, 71, 0
15, 19440, Note_on_c, 12, 69, 83
15, 19469, Note_on_c, 12, 69, 0
15, 19470, Note_on_c, 12, 67, 74
15, 19499, Note_on_c, 12, 67, 0
15, 19500, Note_on_c, 12, 65, 74
15, 19529, Note_on_c, 12, 65, 0
15, 19530, Note_on_c, 12, 64, 76
15, 19559, Note_on_c, 12, 64, 0
15, 19560, Note_on_c, 12, 62, 82
15, 19589, Note_on_c, 12, 62, 0
15, 19590, Note_on_c, 12, 65, 74
15, 19619, Note_on_c, 12, 65, 0
15, 19620, Note_on_c, 12, 71, 75
15, 19649, Note_on_c, 12, 71, 0
15, 19650, Note_on_c, 12, 74, 77
15, 19679, Note_on_c, 12, 74, 0
15, 19680, Note_on_c, 12, 77, 78
15, 19709, Note_on_c, 12, 77, 0
15, 19710, Note_on_c, 12, 76, 65
15, 19739, Note_on_c, 12, 76, 0
15, 19740, Note_on_c, 12, 74, 82
15, 19769, Note_on_c, 12, 74, 0
15, 19770, Note_on_c, 12, 72, 79
15, 19799, Note_on_c, 12, 72, 0
15, 19800, Note_on_c, 12, 71, 87
15, 19829, Note_on_c, 12, 71, 0
15, 19830, Note_on_c, 12, 74, 77
15, 19859, Note_on_c, 12, 74, 0
15, 19860, Note_on_c, 12, 77, 78
15, 19889, Note_on_c, 12, 77, 0
15, 19890, Note_on_c, 12, 83, 79
15, 19919, Note_on_c, 12, 83, 0
15, 19920, Note_on_c, 12, 81, 82
15, 19949, Note_on_c, 12, 81, 0
15, 19950, Note_on_c, 12, 79, 74
15, 19979, Note_on_c, 12, 79, 0
15, 19980, Note_on_c, 12, 77, 75
15, 20009, Note_on_c, 12, 77, 0
15, 20010, Note_on_c, 12, 76, 76
15, 20039, Note_on_c, 12, 76, 0
15, 20040, Note_on_c, 12, 74, 84
15, 20069, Note_on_c, 12, 74, 0
15, 20070, Note_on_c, 12, 77, 71
15, 20099, Note_on_c, 12, 77, 0
15, 20100, Note_on_c, 12, 83, 75
15, 20129, Note_on_c, 12, 83, 0
15, 20130, Note_on_c, 12, 86, 82
15, 20159, Note_on_c, 12, 86, 0
15, 20160, Note_on_c, 12, 84, 80
15, 20189, Note_on_c, 12, 84, 0
15, 20190, Note_on_c, 12, 83, 74
15, 20219, Note_on_c, 12, 83, 0
15, 20220, Note_on_c, 12, 81, 82
15, 20249, Note_on_c, 12, 81, 0
15, 20250, Note_on_c, 12, 79, 78
15, 20279, Note_on_c, 12, 79, 0
15, 20280, Note_on_c, 12, 77, 76
15, 20309, Note_on_c, 12, 77, 0
15, 20310, Note_on_c, 12, 76, 82
15, 20339, Note_on_c, 12, 76, 0
15, 20340, Note_on_c, 12, 74, 75
15, 20369, Note_on_c, 12, 74, 0
15, 20370, Note_on_c, 12, 72, 82
15, 20399, Note_on_c, 12, 72, 0
15, 20400, Note_on_c, 12, 71, 78
15, 20429, Note_on_c, 12, 71, 0
15, 20430, Note_on_c, 12, 69, 74
15, 20459, Note_on_c, 12, 69, 0
15, 20460, Note_on_c, 12, 67, 72
15, 20489, Note_on_c, 12, 67, 0
15, 20490, Note_on_c, 12, 65, 71
15, 20519, Note_on_c, 12, 65, 0
15, 20520, Note_on_c, 12, 64, 72
15, 20549, Note_on_c, 12, 64, 0
15, 20550, Note_on_c, 12, 62, 65
15, 20579, Note_on_c, 12, 62, 0
15, 20580, Note_on_c, 12, 60, 71
15, 20609, Note_on_c, 12, 60, 0
15, 20610, Note_on_c, 12, 71, 85
15, 20639, Note_on_c, 12, 71, 0
15, 20640, Note_on_c, 12, 69, 73
15, 20669, Note_on_c, 12, 69, 0
15, 20670, Note_on_c, 12, 67, 76
15, 20699, Note_on_c, 12, 67, 0
15, 20700, Note_on_c, 12, 65, 74
15, 20729, Note_on_c, 12, 65, 0
15, 20730, Note_on_c, 12, 64, 73
15, 20759, Note_on_c, 12, 64, 0
15, 20760, Note_on_c, 12, 62, 72
15, 20789, Note_on_c, 12, 62, 0
15, 20790, Note_on_c, 12, 60, 71
15, 20819, Note_on_c, 12, 60, 0
15, 20820, Note_on_c, 12, 59, 78
15, 20849, Note_on_c, 12, 59, 0
15, 20850, Note_on_c, 12, 57, 80
15, 20879, Note_on_c, 12, 57, 0
15, 20880, Note_on_c, 12, 55, 78
15, 20909, Note_on_c, 12, 55, 0
15, 20910, Note_on_c, 12, 53, 74
15, 20939, Note_on_c, 12, 53, 0
15, 20940, Note_on_c, 12, 52, 74
15, 20969, Note_on_c, 12, 52, 0
15, 20970, Note_on_c, 12, 50, 76
15, 20999, Note_on_c, 12, 50, 0
15, 21000, Note_on_c, 12, 48, 82
15, 21029, Note_on_c, 12, 48, 0
15, 21030, Note_on_c, 12, 47, 76
15, 21059, Note_on_c, 12, 47, 0
15, 21060, Note_on_c, 12, 45, 78
15, 21089, Note_on_c, 12, 45, 0
15, 21090, Note_on_c, 12, 43, 83
15, 21119, Note_on_c, 12, 43, 0
15, 21120, Note_on_c, 12, 48, 69
15, 21163, Note_on_c, 12, 48, 0
15, 21180, Note_on_c, 12, 64, 74
15, 21180, Note_on_c, 12, 67, 68
15, 21204, Note_on_c, 12, 67, 0
15, 21208, Note_on_c, 12, 64, 0
15, 21240, Note_on_c, 12, 48, 66
15, 21240, Note_on_c, 12, 60, 66
15, 21263, Control_c, 12, 64, 127
15, 21277, Note_on_c, 12, 48, 0
15, 21280, Note_on_c, 12, 60, 0
15, 21300, Note_on_c, 12, 67, 74
15, 21300, Note_on_c, 12, 64, 76
15, 21322, Note_on_c, 12, 64, 0
15, 21327, Control_c, 12, 64, 0
15, 21332, Control_c, 12, 64, 127
15, 21333, Note_on_c, 12, 67, 0
15, 21334, Control_c, 12, 64, 0
15, 21360, Note_on_c, 12, 59, 66
15, 21360, Note_on_c, 12, 47, 60
15, 21362, Control_c, 12, 64, 127
15, 21364, Control_c, 12, 64, 0
15, 21378, Control_c, 12, 64, 127
15, 21400, Note_on_c, 12, 59, 0
15, 21400, Note_on_c, 12, 47, 0
15, 21420, Note_on_c, 12, 67, 71
15, 21420, Note_on_c, 12, 64, 72
15, 21439, Note_on_c, 12, 64, 0
15, 21446, Note_on_c, 12, 67, 0
15, 21450, Control_c, 12, 64, 0
15, 21480, Note_on_c, 12, 47, 67
15, 21480, Note_on_c, 12, 59, 68
15, 21485, Control_c, 12, 64, 127
15, 21503, Note_on_c, 12, 47, 0
15, 21510, Note_on_c, 12, 59, 0
15, 21540, Note_on_c, 12, 67, 71
15, 21540, Note_on_c, 12, 64, 73
15, 21563, Note_on_c, 12, 64, 0
15, 21564, Note_on_c, 12, 67, 0
15, 21564, Control_c, 12, 64, 0
15, 21573, Control_c, 12, 64, 127
15, 21576, Control_c, 12, 64, 0
15, 21600, Note_on_c, 12, 58, 75
15, 21600, Note_on_c, 12, 46, 71
15, 21606, Control_c, 12, 64, 127
15, 21634, Note_on_c, 12, 46, 0
15, 21640, Note_on_c, 12, 58, 0
15, 21660, Note_on_c, 12, 62, 69
15, 21660, Note_on_c, 12, 64, 65
15, 21660, Note_on_c, 12, 67, 46
15, 21667, Note_on_c, 12, 67, 0
15, 21682, Note_on_c, 12, 64, 0
15, 21684, Note_on_c, 12, 62, 0
15, 21686, Control_c, 12, 64, 0
15, 21713, Control_c, 12, 64, 127
15, 21715, Control_c, 12, 64, 0
15, 21720, Note_on_c, 12, 58, 64
15, 21720, Note_on_c, 12, 46, 66
15, 21724, Control_c, 12, 64, 127
15, 21753, Note_on_c, 12, 46, 0
15, 21759, Note_on_c, 12, 58, 0
15, 21780, Note_on_c, 12, 64, 71
15, 21780, Note_on_c, 12, 67, 68
15, 21780, Note_on_c, 12, 62, 69
15, 21795, Note_on_c, 12, 62, 0
15, 21800, Note_on_c, 12, 64, 0
15, 21802, Control_c, 12, 64, 0
15, 21803, Note_on_c, 12, 67, 0
15, 21840, Note_on_c, 12, 45, 60
15, 21840, Note_on_c, 12, 57, 64
15, 21843, Control_c, 12, 64, 127
15, 21875, Note_on_c, 12, 45, 0
15, 21877, Note_on_c, 12, 57, 0
15, 21900, Note_on_c, 12, 61, 56
15, 21900, Note_on_c, 12, 64, 63
15, 21900, Note_on_c, 12, 67, 53
15, 21914, Note_on_c, 12, 67, 0
15, 21921, Note_on_c, 12, 61, 0
15, 21923, Note_on_c, 12, 64, 0
15, 21930, Control_c, 12, 64, 0
15, 21960, Note_on_c, 12, 45, 72
15, 21960, Note_on_c, 12, 57, 70
15, 21963, Control_c, 12, 64, 127
15, 21989, Note_on_c, 12, 45, 0
15, 21996, Note_on_c, 12, 57, 0
15, 22020, Note_on_c, 12, 64, 71
15, 22020, Note_on_c, 12, 61, 52
15, 22038, Control_c, 12, 64, 0
15, 22044, Note_on_c, 12, 61, 0
15, 22049, Note_on_c, 12, 64, 0
15, 22079, Control_c, 12, 64, 127
15, 22080, Note_on_c, 12, 46, 78
15, 22080, Note_on_c, 12, 58, 75
15, 22123, Note_on_c, 12, 46, 0
15, 22130, Note_on_c, 12, 58, 0
15, 22140, Note_on_c, 12, 62, 75
15, 22140, Note_on_c, 12, 65, 69
15, 22164, Note_on_c, 12, 65, 0
15, 22165, Note_on_c, 12, 62, 0
15, 22167, Control_c, 12, 64, 0
15, 22199, Control_c, 12, 64, 127
15, 22200, Note_on_c, 12, 46, 64
15, 22200, Note_on_c, 12, 58, 70
15, 22233, Note_on_c, 12, 46, 0
15, 22245, Note_on_c, 12, 58, 0
15, 22260, Note_on_c, 12, 65, 68
15, 22260, Note_on_c, 12, 62, 66
15, 22279, Note_on_c, 12, 62, 0
15, 22281, Note_on_c, 12, 65, 0
15, 22281, Control_c, 12, 64, 0
15, 22284, Control_c, 12, 64, 127
15, 22285, Control_c, 12, 64, 0
15, 22320, Note_on_c, 12, 45, 71
15, 22320, Note_on_c, 12, 57, 65
15, 22322, Control_c, 12, 64, 127
15, 22375, Note_on_c, 12, 45, 0
15, 22376, Note_on_c, 12, 57, 0
15, 22380, Note_on_c, 12, 62, 71
15, 22380, Note_on_c, 12, 65, 71
15, 22401, Note_on_c, 12, 65, 0
15, 22401, Control_c, 12, 64, 0
15, 22405, Control_c, 12, 64, 127
15, 22407, Note_on_c, 12, 62, 0
15, 22407, Control_c, 12, 64, 0
15, 22432, Control_c, 12, 64, 127
15, 22440, Note_on_c, 12, 57, 61
15, 22440, Note_on_c, 12, 45, 70
15, 22476, Note_on_c, 12, 45, 0
15, 22481, Note_on_c, 12, 57, 0
15, 22500, Note_on_c, 12, 65, 65
15, 22500, Note_on_c, 12, 62, 64
15, 22516, Note_on_c, 12, 65, 0
15, 22520, Control_c, 12, 64, 0
15, 22523, Note_on_c, 12, 62, 0
15, 22559, Control_c, 12, 64, 127
15, 22560, Note_on_c, 12, 56, 68
15, 22560, Note_on_c, 12, 44, 68
15, 22597, Note_on_c, 12, 44, 0
15, 22610, Note_on_c, 12, 56, 0
15, 22620, Note_on_c, 12, 65, 62
15, 22620, Note_on_c, 12, 60, 52
15, 22620, Note_on_c, 12, 62, 60
15, 22632, Note_on_c, 12, 62, 0
15, 22638, Note_on_c, 12, 60, 0
15, 22640, Note_on_c, 12, 65, 0
15, 22654, Control_c, 12, 64, 0
15, 22657, Control_c, 12, 64, 127
15, 22659, Control_c, 12, 64, 0
15, 22676, Control_c, 12, 64, 127
15, 22677, Control_c, 12, 64, 0
15, 22680, Note_on_c, 12, 56, 70
15, 22680, Note_on_c, 12, 44, 70
15, 22683, Control_c, 12, 64, 127
15, 22714, Note_on_c, 12, 56, 0
15, 22714, Note_on_c, 12, 44, 0
15, 22740, Note_on_c, 12, 60, 66
15, 22740, Note_on_c, 12, 65, 67
15, 22740, Note_on_c, 12, 62, 67
15, 22747, Control_c, 12, 64, 0
15, 22759, Note_on_c, 12, 62, 0
15, 22762, Note_on_c, 12, 60, 0
15, 22765, Note_on_c, 12, 65, 0
15, 22793, Control_c, 12, 64, 127
15, 22797, Control_c, 12, 64, 0
15, 22800, Note_on_c, 12, 43, 57
15, 22800, Note_on_c, 12, 55, 66
15, 22800, Control_c, 12, 64, 127
15, 22841, Note_on_c, 12, 43, 0
15, 22850, Note_on_c, 12, 55, 0
15, 22860, Note_on_c, 12, 59, 63
15, 22860, Note_on_c, 12, 62, 65
15, 22860, Note_on_c, 12, 65, 52
15, 22880, Note_on_c, 12, 65, 0
15, 22889, Note_on_c, 12, 62, 0
15, 22891, Note_on_c, 12, 59, 0
15, 22901, Control_c, 12, 64, 0
15, 22920, Note_on_c, 12, 43, 67
15, 22920, Note_on_c, 12, 55, 64
15, 22925, Control_c, 12, 64, 127
15, 22949, Note_on_c, 12, 43, 0
15, 22960, Note_on_c, 12, 55, 0
15, 22980, Note_on_c, 12, 59, 66
15, 22980, Note_on_c, 12, 62, 70
15, 22980, Note_on_c, 12, 65, 57
15, 23000, Note_on_c, 12, 65, 0
15, 23003, Note_on_c, 12, 59, 0
15, 23003, Control_c, 12, 64, 0
15, 23010, Note_on_c, 12, 62, 0
15, 23040, Note_on_c, 12, 57, 71
15, 23040, Note_on_c, 12, 45, 68
15, 23040, Control_c, 12, 64, 127
15, 23086, Note_on_c, 12, 45, 0
15, 23095, Note_on_c, 12, 57, 0
15, 23100, Note_on_c, 12, 60, 65
15, 23100, Note_on_c, 12, 64, 70
15, 23126, Note_on_c, 12, 64, 0
15, 23128, Note_on_c, 12, 60, 0
15, 23128, Control_c, 12, 64, 0
15, 23159, Control_c, 12, 64, 127
15, 23160, Note_on_c, 12, 45, 66
15, 23160, Note_on_c, 12, 57, 72
15, 23192, Note_on_c, 12, 45, 0
15, 23204, Note_on_c, 12, 57, 0
15, 23220, Note_on_c, 12, 64, 66
15, 23220, Note_on_c, 12, 60, 68
15, 23239, Note_on_c, 12, 64, 0
15, 23240, Note_on_c, 12, 60, 0
15, 23246, Control_c, 12, 64, 0
15, 23272, Control_c, 12, 64, 127
15, 23280, Note_on_c, 12, 43, 68
15, 23280, Note_on_c, 12, 55, 69
15, 23329, Note_on_c, 12, 43, 0
15, 23333, Note_on_c, 12, 55, 0
15, 23340, Note_on_c, 12, 64, 67
15, 23340, Note_on_c, 12, 58, 51
15, 23340, Note_on_c, 12, 60, 68
15, 23360, Control_c, 12, 64, 0
15, 23368, Note_on_c, 12, 58, 0
15, 23371, Note_on_c, 12, 60, 0
15, 23377, Note_on_c, 12, 64, 0
15, 23398, Control_c, 12, 64, 127
15, 23400, Note_on_c, 12, 55, 70
15, 23400, Note_on_c, 12, 43, 69
15, 23431, Note_on_c, 12, 55, 0
15, 23434, Note_on_c, 12, 43, 0
15, 23460, Note_on_c, 12, 58, 63
15, 23460, Note_on_c, 12, 64, 63
15, 23460, Note_on_c, 12, 60, 66
15, 23478, Note_on_c, 12, 60, 0
15, 23483, Note_on_c, 12, 64, 0
15, 23486, Note_on_c, 12, 58, 0
15, 23496, Control_c, 12, 64, 0
15, 23520, Note_on_c, 12, 41, 72
15, 23520, Note_on_c, 12, 53, 64
15, 23526, Control_c, 12, 64, 127
15, 23571, Note_on_c, 12, 53, 0
15, 23574, Note_on_c, 12, 41, 0
15, 23580, Note_on_c, 12, 57, 74
15, 23580, Note_on_c, 12, 60, 76
15, 23580, Note_on_c, 12, 65, 73
15, 23604, Note_on_c, 12, 57, 0
15, 23604, Note_on_c, 12, 65, 0
15, 23606, Note_on_c, 12, 60, 0
15, 23622, Control_c, 12, 64, 0
15, 23640, Note_on_c, 12, 41, 67
15, 23640, Note_on_c, 12, 53, 66
15, 23650, Control_c, 12, 64, 127
15, 23671, Note_on_c, 12, 53, 0
15, 23677, Note_on_c, 12, 41, 0
15, 23700, Note_on_c, 12, 60, 80
15, 23700, Note_on_c, 12, 57, 72
15, 23700, Note_on_c, 12, 65, 68
15, 23721, Note_on_c, 12, 57, 0
15, 23721, Control_c, 12, 64, 0
15, 23722, Note_on_c, 12, 65, 0
15, 23728, Note_on_c, 12, 60, 0
15, 23760, Note_on_c, 12, 38, 73
15, 23760, Note_on_c, 12, 50, 66
15, 23761, Control_c, 12, 64, 127
15, 23807, Note_on_c, 12, 38, 0
15, 23807, Note_on_c, 12, 50, 0
15, 23820, Note_on_c, 12, 57, 71
15, 23820, Note_on_c, 12, 65, 71
15, 23820, Note_on_c, 12, 62, 77
15, 23842, Note_on_c, 12, 57, 0
15, 23844, Note_on_c, 12, 62, 0
15, 23847, Note_on_c, 12, 65, 0
15, 23850, Control_c, 12, 64, 0
15, 23855, Control_c, 12, 64, 127
15, 23856, Control_c, 12, 64, 0
15, 23880, Note_on_c, 12, 38, 74
15, 23880, Note_on_c, 12, 50, 66
15, 23889, Control_c, 12, 64, 127
15, 23908, Note_on_c, 12, 38, 0
15, 23911, Note_on_c, 12, 50, 0
15, 23940, Note_on_c, 12, 57, 67
15, 23940, Note_on_c, 12, 65, 66
15, 23940, Note_on_c, 12, 62, 70
15, 23957, Note_on_c, 12, 57, 0
15, 23960, Note_on_c, 12, 62, 0
15, 23968, Note_on_c, 12, 65, 0
15, 23976, Control_c, 12, 64, 0
15, 23980, Control_c, 12, 64, 127
15, 23981, Control_c, 12, 64, 0
15, 24000, Note_on_c, 12, 55, 74
15, 24000, Note_on_c, 12, 43, 72
15, 24024, Control_c, 12, 64, 127
15, 24026, Control_c, 12, 64, 0
15, 24053, Note_on_c, 12, 55, 0
15, 24053, Note_on_c, 12, 43, 0
15, 24060, Control_c, 12, 64, 127
15, 24060, Note_on_c, 12, 62, 80
15, 24060, Note_on_c, 12, 59, 61
15, 24081, Note_on_c, 12, 59, 0
15, 24089, Note_on_c, 12, 62, 0
15, 24102, Control_c, 12, 64, 0
15, 24120, Note_on_c, 12, 43, 72
15, 24120, Note_on_c, 12, 55, 71
15, 24137, Control_c, 12, 64, 127
15, 24141, Control_c, 12, 64, 0
15, 24150, Note_on_c, 12, 43, 0
15, 24154, Control_c, 12, 64, 127
15, 24158, Note_on_c, 12, 55, 0
15, 24180, Control_c, 12, 64, 0
15, 24180, Note_on_c, 12, 62, 77
15, 24180, Note_on_c, 12, 59, 67
15, 24205, Note_on_c, 12, 59, 0
15, 24213, Note_on_c, 12, 62, 0
15, 24240, Note_on_c, 12, 45, 79
15, 24240, Note_on_c, 12, 57, 72
15, 24274, Control_c, 12, 64, 127
15, 24287, Note_on_c, 12, 45, 0
15, 24297, Note_on_c, 12, 57, 0
15, 24300, Note_on_c, 12, 60, 72
15, 24300, Note_on_c, 12, 66, 73
15, 24300, Note_on_c, 12, 62, 76
15, 24323, Note_on_c, 12, 60, 0
15, 24323, Note_on_c, 12, 62, 0
15, 24330, Control_c, 12, 64, 0
15, 24333, Note_on_c, 12, 66, 0
15, 24347, Control_c, 12, 64, 127
15, 24350, Control_c, 12, 64, 0
15, 24360, Note_on_c, 12, 57, 73
15, 24360, Note_on_c, 12, 45, 78
15, 24392, Control_c, 12, 64, 127
15, 24393, Note_on_c, 12, 45, 0
15, 24397, Note_on_c, 12, 57, 0
15, 24420, Note_on_c, 12, 66, 68
15, 24420, Note_on_c, 12, 60, 70
15, 24420, Note_on_c, 12, 62, 69
15, 24434, Control_c, 12, 64, 0
15, 24440, Note_on_c, 12, 62, 0
15, 24446, Note_on_c, 12, 60, 0
15, 24453, Note_on_c, 12, 66, 0
15, 24480, Note_on_c, 12, 47, 73
15, 24480, Note_on_c, 12, 59, 76
15, 24506, Control_c, 12, 64, 127
15, 24517, Note_on_c, 12, 47, 0
15, 24527, Note_on_c, 12, 59, 0
15, 24540, Note_on_c, 12, 67, 67
15, 24540, Note_on_c, 12, 62, 71
15, 24565, Note_on_c, 12, 67, 0
15, 24565, Note_on_c, 12, 62, 0
15, 24589, Control_c, 12, 64, 0
15, 24600, Note_on_c, 12, 59, 74
15, 24600, Note_on_c, 12, 47, 82
15, 24616, Note_on_c, 12, 59, 0
15, 24621, Note_on_c, 12, 47, 0
15, 24624, Control_c, 12, 64, 127
15, 24660, Note_on_c, 12, 67, 65
15, 24660, Note_on_c, 12, 62, 73
15, 24677, Note_on_c, 12, 62, 0
15, 24684, Note_on_c, 12, 67, 0
15, 24706, Control_c, 12, 64, 0
15, 24720, Note_on_c, 12, 43, 72
15, 24720, Note_on_c, 12, 55, 74
15, 24735, Control_c, 12, 64, 127
15, 24736, Control_c, 12, 64, 0
15, 24744, Control_c, 12, 64, 127
15, 24758, Note_on_c, 12, 43, 0
15, 24769, Note_on_c, 12, 55, 0
15, 24780, Note_on_c, 12, 59, 67
15, 24780, Note_on_c, 12, 62, 76
15, 24780, Note_on_c, 12, 65, 64
15, 24780, Note_on_c, 12, 57, 65
15, 24780, Note_on_c, 12, 55, 59
15, 24786, Note_on_c, 12, 55, 0
15, 24802, Control_c, 12, 64, 0
15, 24804, Note_on_c, 12, 57, 0
15, 24809, Note_on_c, 12, 59, 0
15, 24810, Note_on_c, 12, 65, 0
15, 24811, Note_on_c, 12, 62, 0
15, 24840, Note_on_c, 12, 43, 75
15, 24840, Note_on_c, 12, 55, 72
15, 24854, Control_c, 12, 64, 127
15, 24856, Control_c, 12, 64, 0
15, 24865, Control_c, 12, 64, 127
15, 24895, Control_c, 12, 64, 0
15, 24896, Note_on_c, 12, 43, 0
15, 24900, Note_on_c, 12, 57, 79
15, 24900, Note_on_c, 12, 65, 78
15, 24900, Note_on_c, 12, 62, 82
15, 24900, Note_on_c, 12, 59, 80
15, 24908, Note_on_c, 12, 55, 0
15, 24923, Note_on_c, 12, 57, 0
15, 24923, Note_on_c, 12, 62, 0
15, 24923, Note_on_c, 12, 59, 0
15, 24924, Note_on_c, 12, 65, 0
15, 24960, Note_on_c, 12, 76, 91
15, 24960, Note_on_c, 12, 88, 91
15, 24960, Note_on_c, 12, 100, 102
15, 24960, Control_c, 12, 64, 127
15, 24960, Control_c, 12, 64, 0
15, 24960, Note_on_c, 12, 36, 80
15, 24960, Control_c, 12, 64, 127
15, 24960, Note_on_c, 12, 48, 78
15, 24991, Note_on_c, 12, 36, 0
15, 24994, Note_on_c, 12, 76, 0
15, 25002, Note_on_c, 12, 48, 0
15, 25005, Note_on_c, 12, 100, 0
15, 25007, Note_on_c, 12, 88, 0
15, 25010, Control_c, 12, 64, 0
15, 25020, Note_on_c, 12, 67, 80
15, 25020, Note_on_c, 12, 60, 79
15, 25020, Note_on_c, 12, 64, 81
15, 25050, Note_on_c, 12, 64, 0
15, 25051, Note_on_c, 12, 60, 0
15, 25054, Note_on_c, 12, 67, 0
15, 25075, Control_c, 12, 64, 127
15, 25080, Note_on_c, 12, 76, 93
15, 25080, Note_on_c, 12, 88, 96
15, 25080, Note_on_c, 12, 100, 102
15, 25080, Note_on_c, 12, 36, 82
15, 25080, Note_on_c, 12, 48, 77
15, 25109, Note_on_c, 12, 36, 0
15, 25115, Note_on_c, 12, 76, 0
15, 25119, Note_on_c, 12, 48, 0
15, 25120, Note_on_c, 12, 88, 0
15, 25120, Note_on_c, 12, 100, 0
15, 25138, Control_c, 12, 64, 0
15, 25140, Note_on_c, 12, 67, 78
15, 25140, Note_on_c, 12, 64, 82
15, 25140, Note_on_c, 12, 60, 72
15, 25169, Note_on_c, 12, 60, 0
15, 25171, Note_on_c, 12, 67, 0
15, 25173, Note_on_c, 12, 64, 0
15, 25200, Note_on_c, 12, 76, 102
15, 25200, Note_on_c, 12, 100, 100
15, 25200, Note_on_c, 12, 88, 102
15, 25200, Note_on_c, 12, 35, 82
15, 25200, Note_on_c, 12, 47, 83
15, 25202, Control_c, 12, 64, 127
15, 25229, Note_on_c, 12, 88, 0
15, 25233, Note_on_c, 12, 100, 0
15, 25243, Note_on_c, 12, 76, 0
15, 25252, Note_on_c, 12, 47, 0
15, 25256, Note_on_c, 12, 35, 0
15, 25260, Note_on_c, 12, 59, 77
15, 25260, Note_on_c, 12, 67, 77
15, 25260, Note_on_c, 12, 64, 82
15, 25289, Note_on_c, 12, 59, 0
15, 25290, Note_on_c, 12, 64, 0
15, 25291, Control_c, 12, 64, 0
15, 25294, Control_c, 12, 64, 127
15, 25295, Note_on_c, 12, 67, 0
15, 25296, Control_c, 12, 64, 0
15, 25299, Control_c, 12, 64, 127
15, 25300, Control_c, 12, 64, 0
15, 25320, Note_on_c, 12, 88, 89
15, 25320, Note_on_c, 12, 100, 94
15, 25320, Note_on_c, 12, 76, 97
15, 25320, Note_on_c, 12, 35, 78
15, 25320, Note_on_c, 12, 47, 78
15, 25320, Control_c, 12, 64, 127
15, 25322, Control_c, 12, 64, 0
15, 25328, Control_c, 12, 64, 127
15, 25344, Note_on_c, 12, 47, 0
15, 25348, Note_on_c, 12, 35, 0
15, 25353, Note_on_c, 12, 88, 0
15, 25356, Note_on_c, 12, 100, 0
15, 25361, Note_on_c, 12, 76, 0
15, 25380, Note_on_c, 12, 59, 68
15, 25380, Note_on_c, 12, 64, 76
15, 25380, Note_on_c, 12, 67, 64
15, 25401, Note_on_c, 12, 59, 0
15, 25404, Note_on_c, 12, 67, 0
15, 25411, Note_on_c, 12, 64, 0
15, 25413, Control_c, 12, 64, 0
15, 25439, Note_on_c, 12, 76, 82
15, 25440, Note_on_c, 12, 76, 100
15, 25440, Note_on_c, 12, 100, 93
15, 25440, Note_on_c, 12, 88, 89
15, 25440, Note_on_c, 12, 34, 78
15, 25440, Note_on_c, 12, 46, 82
15, 25440, Control_c, 12, 64, 127
15, 25442, Control_c, 12, 64, 0
15, 25448, Control_c, 12, 64, 127
15, 25452, Note_on_c, 12, 100, 85
15, 25454, Note_on_c, 12, 77, 87
15, 25458, Note_on_c, 12, 76, 0
15, 25461, Note_on_c, 12, 100, 0
15, 25463, Note_on_c, 12, 101, 74
15, 25470, Note_on_c, 12, 77, 0
15, 25474, Note_on_c, 12, 76, 72
15, 25479, Note_on_c, 12, 101, 0
15, 25482, Note_on_c, 12, 76, 0
15, 25482, Note_on_c, 12, 100, 80
15, 25484, Note_on_c, 12, 77, 76
15, 25487, Note_on_c, 12, 88, 0
15, 25489, Note_on_c, 12, 34, 0
15, 25489, Note_on_c, 12, 46, 0
15, 25490, Note_on_c, 12, 100, 0
15, 25490, Note_on_c, 12, 76, 0
15, 25497, Note_on_c, 12, 100, 0
15, 25499, Note_on_c, 12, 101, 74
15, 25500, Note_on_c, 12, 58, 78
15, 25500, Note_on_c, 12, 64, 82
15, 25500, Note_on_c, 12, 62, 85
15, 25500, Note_on_c, 12, 67, 78
15, 25506, Control_c, 12, 64, 0
15, 25512, Note_on_c, 12, 77, 0
15, 25512, Note_on_c, 12, 76, 63
15, 25516, Note_on_c, 12, 101, 0
15, 25516, Note_on_c, 12, 76, 0
15, 25516, Note_on_c, 12, 77, 86
15, 25520, Note_on_c, 12, 100, 92
15, 25524, Note_on_c, 12, 67, 0
15, 25527, Note_on_c, 12, 76, 45
15, 25533, Note_on_c, 12, 77, 0
15, 25536, Note_on_c, 12, 58, 0
15, 25536, Note_on_c, 12, 62, 0
15, 25538, Note_on_c, 12, 100, 0
15, 25542, Note_on_c, 12, 64, 0
15, 25544, Note_on_c, 12, 76, 0
15, 25560, Note_on_c, 12, 87, 75
15, 25560, Note_on_c, 12, 99, 83
15, 25560, Note_on_c, 12, 75, 78
15, 25560, Note_on_c, 12, 34, 76
15, 25560, Note_on_c, 12, 46, 78
15, 25560, Control_c, 12, 64, 127
15, 25562, Control_c, 12, 64, 0
15, 25567, Control_c, 12, 64, 127
15, 25595, Note_on_c, 12, 75, 0
15, 25596, Note_on_c, 12, 99, 0
15, 25598, Note_on_c, 12, 46, 0
15, 25600, Note_on_c, 12, 34, 0
15, 25604, Note_on_c, 12, 87, 0
15, 25620, Note_on_c, 12, 88, 72
15, 25620, Note_on_c, 12, 100, 88
15, 25620, Note_on_c, 12, 76, 81
15, 25620, Note_on_c, 12, 58, 71
15, 25620, Note_on_c, 12, 64, 83
15, 25620, Note_on_c, 12, 67, 55
15, 25620, Note_on_c, 12, 62, 71
15, 25645, Note_on_c, 12, 62, 0
15, 25645, Control_c, 12, 64, 0
15, 25648, Note_on_c, 12, 76, 0
15, 25648, Note_on_c, 12, 67, 0
15, 25652, Note_on_c, 12, 88, 0
15, 25656, Note_on_c, 12, 58, 0
15, 25657, Note_on_c, 12, 100, 0
15, 25660, Note_on_c, 12, 64, 0
15, 25661, Control_c, 12, 64, 127
15, 25664, Control_c, 12, 64, 0
15, 25680, Note_on_c, 12, 81, 85
15, 25680, Note_on_c, 12, 93, 75
15, 25680, Note_on_c, 12, 105, 89
15, 25680, Note_on_c, 12, 33, 82
15, 25680, Note_on_c, 12, 45, 78
15, 25702, Control_c, 12, 64, 127
15, 25718, Note_on_c, 12, 81, 0
15, 25718, Note_on_c, 12, 93, 0
15, 25720, Note_on_c, 12, 105, 0
15, 25737, Note_on_c, 12, 33, 0
15, 25738, Note_on_c, 12, 45, 0
15, 25740, Note_on_c, 12, 79, 79
15, 25740, Note_on_c, 12, 91, 78
15, 25740, Note_on_c, 12, 103, 82
15, 25740, Note_on_c, 12, 57, 83
15, 25740, Note_on_c, 12, 61, 77
15, 25740, Note_on_c, 12, 64, 82
15, 25740, Note_on_c, 12, 67, 76
15, 25767, Note_on_c, 12, 61, 0
15, 25770, Note_on_c, 12, 57, 0
15, 25770, Note_on_c, 12, 64, 0
15, 25770, Note_on_c, 12, 67, 0
15, 25776, Note_on_c, 12, 91, 0
15, 25779, Note_on_c, 12, 79, 0
15, 25781, Note_on_c, 12, 103, 0
15, 25781, Control_c, 12, 64, 0
15, 25800, Note_on_c, 12, 77, 76
15, 25800, Note_on_c, 12, 89, 74
15, 25800, Note_on_c, 12, 101, 94
15, 25800, Note_on_c, 12, 33, 78
15, 25800, Note_on_c, 12, 45, 82
15, 25817, Control_c, 12, 64, 127
15, 25824, Note_on_c, 12, 77, 0
15, 25831, Note_on_c, 12, 33, 0
15, 25832, Note_on_c, 12, 89, 0
15, 25835, Note_on_c, 12, 45, 0
15, 25837, Note_on_c, 12, 101, 0
15, 25860, Note_on_c, 12, 76, 82
15, 25860, Note_on_c, 12, 100, 87
15, 25860, Note_on_c, 12, 88, 74
15, 25860, Note_on_c, 12, 67, 82
15, 25860, Note_on_c, 12, 57, 78
15, 25860, Note_on_c, 12, 61, 76
15, 25860, Note_on_c, 12, 64, 73
15, 25868, Note_on_c, 12, 64, 0
15, 25880, Control_c, 12, 64, 0
15, 25884, Note_on_c, 12, 57, 0
15, 25885, Note_on_c, 12, 88, 0
15, 25887, Note_on_c, 12, 67, 0
15, 25890, Note_on_c, 12, 61, 0
15, 25892, Note_on_c, 12, 76, 0
15, 25896, Note_on_c, 12, 100, 0
15, 25920, Note_on_c, 12, 86, 84
15, 25920, Note_on_c, 12, 98, 92
15, 25920, Note_on_c, 12, 74, 82
15, 25920, Note_on_c, 12, 34, 73
15, 25920, Note_on_c, 12, 46, 83
15, 25927, Control_c, 12, 64, 127
15, 25928, Control_c, 12, 64, 0
15, 25934, Control_c, 12, 64, 127
15, 25953, Note_on_c, 12, 74, 0
15, 25957, Note_on_c, 12, 98, 0
15, 25966, Note_on_c, 12, 34, 0
15, 25969, Note_on_c, 12, 86, 0
15, 25973, Note_on_c, 12, 46, 0
15, 25980, Note_on_c, 12, 58, 73
15, 25980, Note_on_c, 12, 62, 82
15, 25980, Note_on_c, 12, 65, 76
15, 26004, Note_on_c, 12, 65, 0
15, 26009, Note_on_c, 12, 62, 0
15, 26011, Note_on_c, 12, 58, 0
15, 26013, Control_c, 12, 64, 0
15, 26019, Control_c, 12, 64, 127
15, 26021, Control_c, 12, 64, 0
15, 26040, Note_on_c, 12, 86, 82
15, 26040, Note_on_c, 12, 98, 92
15, 26040, Note_on_c, 12, 74, 94
15, 26040, Note_on_c, 12, 34, 85
15, 26040, Note_on_c, 12, 46, 82
15, 26056, Control_c, 12, 64, 127
15, 26070, Note_on_c, 12, 74, 0
15, 26071, Note_on_c, 12, 86, 0
15, 26079, Note_on_c, 12, 98, 0
15, 26080, Note_on_c, 12, 34, 0
15, 26085, Note_on_c, 12, 46, 0
15, 26100, Note_on_c, 12, 58, 80
15, 26100, Note_on_c, 12, 65, 72
15, 26100, Note_on_c, 12, 62, 82
15, 26125, Note_on_c, 12, 62, 0
15, 26129, Note_on_c, 12, 65, 0
15, 26131, Note_on_c, 12, 58, 0
15, 26148, Control_c, 12, 64, 0
15, 26160, Note_on_c, 12, 98, 93
15, 26160, Note_on_c, 12, 86, 85
15, 26160, Note_on_c, 12, 74, 83
15, 26160, Note_on_c, 12, 33, 67
15, 26160, Note_on_c, 12, 45, 73
15, 26179, Control_c, 12, 64, 127
15, 26188, Note_on_c, 12, 74, 0
15, 26192, Note_on_c, 12, 86, 0
15, 26193, Note_on_c, 12, 98, 0
15, 26220, Note_on_c, 12, 57, 84
15, 26220, Control_c, 12, 64, 0
15, 26220, Note_on_c, 12, 62, 85
15, 26220, Note_on_c, 12, 65, 75
15, 26221, Note_on_c, 12, 45, 0
15, 26223, Note_on_c, 12, 33, 0
15, 26248, Note_on_c, 12, 57, 0
15, 26248, Note_on_c, 12, 65, 0
15, 26252, Note_on_c, 12, 62, 0
15, 26280, Note_on_c, 12, 74, 91
15, 26280, Note_on_c, 12, 86, 81
15, 26280, Note_on_c, 12, 98, 90
15, 26280, Note_on_c, 12, 33, 76
15, 26280, Note_on_c, 12, 45, 80
15, 26282, Control_c, 12, 64, 127
15, 26306, Note_on_c, 12, 33, 0
15, 26309, Note_on_c, 12, 74, 0
15, 26311, Note_on_c, 12, 45, 0
15, 26313, Note_on_c, 12, 98, 0
15, 26317, Note_on_c, 12, 86, 0
15, 26340, Note_on_c, 12, 57, 82
15, 26340, Note_on_c, 12, 62, 83
15, 26340, Note_on_c, 12, 65, 70
15, 26368, Note_on_c, 12, 57, 0
15, 26368, Note_on_c, 12, 65, 0
15, 26375, Note_on_c, 12, 62, 0
15, 26378, Control_c, 12, 64, 0
15, 26400, Note_on_c, 12, 74, 83
15, 26400, Note_on_c, 12, 86, 82
15, 26400, Note_on_c, 12, 98, 91
15, 26400, Note_on_c, 12, 32, 78
15, 26400, Note_on_c, 12, 44, 82
15, 26411, Note_on_c, 12, 98, 91
15, 26411, Note_on_c, 12, 74, 84
15, 26411, Note_on_c, 12, 76, 82
15, 26418, Note_on_c, 12, 74, 0
15, 26419, Control_c, 12, 64, 127
15, 26423, Note_on_c, 12, 98, 0
15, 26424, Note_on_c, 12, 100, 78
15, 26429, Note_on_c, 12, 76, 0
15, 26435, Note_on_c, 12, 74, 81
15, 26440, Note_on_c, 12, 100, 0
15, 26442, Note_on_c, 12, 86, 0
15, 26444, Note_on_c, 12, 98, 79
15, 26447, Note_on_c, 12, 98, 0
15, 26447, Note_on_c, 12, 76, 71
15, 26448, Note_on_c, 12, 74, 0
15, 26449, Note_on_c, 12, 74, 0
15, 26450, Note_on_c, 12, 32, 0
15, 26451, Note_on_c, 12, 44, 0
15, 26458, Note_on_c, 12, 100, 73
15, 26460, Note_on_c, 12, 98, 0
15, 26460, Note_on_c, 12, 76, 0
15, 26460, Note_on_c, 12, 65, 81
15, 26460, Note_on_c, 12, 56, 73
15, 26460, Note_on_c, 12, 60, 82
15, 26468, Note_on_c, 12, 74, 77
15, 26474, Note_on_c, 12, 100, 0
15, 26478, Note_on_c, 12, 76, 72
15, 26479, Note_on_c, 12, 74, 0
15, 26484, Note_on_c, 12, 98, 55
15, 26488, Note_on_c, 12, 74, 68
15, 26489, Note_on_c, 12, 100, 56
15, 26493, Note_on_c, 12, 65, 0
15, 26493, Note_on_c, 12, 76, 0
15, 26495, Note_on_c, 12, 56, 0
15, 26495, Note_on_c, 12, 60, 0
15, 26496, Note_on_c, 12, 100, 0
15, 26501, Control_c, 12, 64, 0
15, 26507, Note_on_c, 12, 74, 0
15, 26508, Note_on_c, 12, 98, 0
15, 26520, Note_on_c, 12, 73, 73
15, 26520, Note_on_c, 12, 85, 78
15, 26520, Note_on_c, 12, 97, 72
15, 26520, Note_on_c, 12, 32, 78
15, 26520, Note_on_c, 12, 44, 76
15, 26541, Control_c, 12, 64, 127
15, 26551, Note_on_c, 12, 97, 0
15, 26552, Note_on_c, 12, 73, 0
15, 26561, Note_on_c, 12, 85, 0
15, 26561, Note_on_c, 12, 32, 0
15, 26564, Note_on_c, 12, 44, 0
15, 26580, Note_on_c, 12, 74, 73
15, 26580, Note_on_c, 12, 86, 77
15, 26580, Note_on_c, 12, 98, 85
15, 26580, Note_on_c, 12, 56, 73
15, 26580, Note_on_c, 12, 65, 75
15, 26580, Note_on_c, 12, 60, 76
15, 26602, Note_on_c, 12, 60, 0
15, 26606, Note_on_c, 12, 86, 0
15, 26606, Note_on_c, 12, 56, 0
15, 26608, Note_on_c, 12, 74, 0
15, 26608, Note_on_c, 12, 65, 0
15, 26610, Note_on_c, 12, 98, 0
15, 26612, Control_c, 12, 64, 0
15, 26640, Note_on_c, 12, 79, 76
15, 26640, Note_on_c, 12, 103, 89
15, 26640, Note_on_c, 12, 91, 74
15, 26640, Note_on_c, 12, 31, 72
15, 26640, Note_on_c, 12, 43, 71
15, 26651, Control_c, 12, 64, 127
15, 26677, Note_on_c, 12, 79, 0
15, 26677, Note_on_c, 12, 103, 0
15, 26679, Note_on_c, 12, 91, 0
15, 26700, Note_on_c, 12, 31, 0
15, 26700, Note_on_c, 12, 77, 74
15, 26700, Note_on_c, 12, 89, 78
15, 26700, Note_on_c, 12, 101, 83
15, 26700, Note_on_c, 12, 55, 81
15, 26700, Note_on_c, 12, 65, 76
15, 26700, Note_on_c, 12, 59, 78
15, 26700, Note_on_c, 12, 62, 82
15, 26705, Note_on_c, 12, 43, 0
15, 26726, Note_on_c, 12, 59, 0
15, 26729, Note_on_c, 12, 65, 0
15, 26729, Note_on_c, 12, 62, 0
15, 26730, Note_on_c, 12, 55, 0
15, 26731, Note_on_c, 12, 77, 0
15, 26738, Note_on_c, 12, 89, 0
15, 26738, Control_c, 12, 64, 0
15, 26739, Note_on_c, 12, 101, 0
15, 26760, Note_on_c, 12, 76, 76
15, 26760, Note_on_c, 12, 88, 74
15, 26760, Note_on_c, 12, 100, 92
15, 26760, Note_on_c, 12, 31, 76
15, 26760, Note_on_c, 12, 43, 74
15, 26773, Control_c, 12, 64, 127
15, 26784, Note_on_c, 12, 76, 0
15, 26792, Note_on_c, 12, 100, 0
15, 26792, Note_on_c, 12, 31, 0
15, 26795, Note_on_c, 12, 88, 0
15, 26802, Note_on_c, 12, 43, 0
15, 26820, Note_on_c, 12, 74, 74
15, 26820, Note_on_c, 12, 98, 82
15, 26820, Note_on_c, 12, 86, 77
15, 26820, Note_on_c, 12, 65, 81
15, 26820, Note_on_c, 12, 55, 71
15, 26820, Note_on_c, 12, 59, 75
15, 26820, Note_on_c, 12, 62, 74
15, 26840, Note_on_c, 12, 62, 0
15, 26841, Note_on_c, 12, 59, 0
15, 26845, Note_on_c, 12, 86, 0
15, 26846, Note_on_c, 12, 74, 0
15, 26846, Note_on_c, 12, 55, 0
15, 26848, Note_on_c, 12, 65, 0
15, 26853, Control_c, 12, 64, 0
15, 26857, Control_c, 12, 64, 127
15, 26857, Control_c, 12, 64, 0
15, 26859, Note_on_c, 12, 98, 0
15, 26880, Note_on_c, 12, 72, 78
15, 26880, Note_on_c, 12, 84, 74
15, 26880, Note_on_c, 12, 96, 91
15, 26880, Note_on_c, 12, 45, 72
15, 26880, Note_on_c, 12, 33, 75
15, 26889, Control_c, 12, 64, 127
15, 26910, Note_on_c, 12, 72, 0
15, 26919, Note_on_c, 12, 84, 0
15, 26919, Note_on_c, 12, 96, 0
15, 26933, Note_on_c, 12, 33, 0
15, 26940, Note_on_c, 12, 45, 0
15, 26940, Note_on_c, 12, 64, 76
15, 26940, Note_on_c, 12, 60, 83
15, 26940, Note_on_c, 12, 57, 40
15, 26961, Note_on_c, 12, 57, 0
15, 26974, Note_on_c, 12, 64, 0
15, 26976, Note_on_c, 12, 60, 0
15, 26982, Control_c, 12, 64, 0
15, 27000, Note_on_c, 12, 72, 82
15, 27000, Note_on_c, 12, 96, 90
15, 27000, Note_on_c, 12, 84, 82
15, 27000, Note_on_c, 12, 33, 79
15, 27000, Note_on_c, 12, 45, 80
15, 27019, Control_c, 12, 64, 127
15, 27025, Note_on_c, 12, 84, 0
15, 27028, Note_on_c, 12, 72, 0
15, 27030, Note_on_c, 12, 96, 0
15, 27043, Note_on_c, 12, 33, 0
15, 27047, Note_on_c, 12, 45, 0
15, 27060, Note_on_c, 12, 57, 78
15, 27060, Note_on_c, 12, 60, 78
15, 27060, Note_on_c, 12, 64, 69
15, 27082, Note_on_c, 12, 64, 0
15, 27087, Note_on_c, 12, 57, 0
15, 27090, Note_on_c, 12, 60, 0
15, 27098, Control_c, 12, 64, 0
15, 27120, Note_on_c, 12, 84, 84
15, 27120, Note_on_c, 12, 72, 87
15, 27120, Note_on_c, 12, 96, 93
15, 27120, Note_on_c, 12, 31, 78
15, 27120, Note_on_c, 12, 43, 74
15, 27136, Control_c, 12, 64, 127
15, 27143, Note_on_c, 12, 96, 0
15, 27145, Note_on_c, 12, 72, 0
15, 27146, Note_on_c, 12, 84, 0
15, 27180, Note_on_c, 12, 55, 79
15, 27180, Note_on_c, 12, 64, 74
15, 27180, Note_on_c, 12, 58, 73
15, 27180, Note_on_c, 12, 60, 80
15, 27182, Note_on_c, 12, 31, 0
15, 27188, Note_on_c, 12, 43, 0
15, 27208, Note_on_c, 12, 55, 0
15, 27208, Note_on_c, 12, 60, 0
15, 27209, Note_on_c, 12, 64, 0
15, 27211, Note_on_c, 12, 58, 0
15, 27219, Control_c, 12, 64, 0
15, 27221, Control_c, 12, 64, 127
15, 27224, Control_c, 12, 64, 0
15, 27240, Note_on_c, 12, 72, 83
15, 27240, Note_on_c, 12, 96, 90
15, 27240, Note_on_c, 12, 84, 72
15, 27240, Note_on_c, 12, 31, 78
15, 27240, Note_on_c, 12, 43, 76
15, 27254, Control_c, 12, 64, 127
15, 27260, Note_on_c, 12, 96, 0
15, 27263, Note_on_c, 12, 84, 0
15, 27274, Note_on_c, 12, 72, 0
15, 27283, Note_on_c, 12, 31, 0
15, 27288, Note_on_c, 12, 43, 0
15, 27300, Note_on_c, 12, 58, 75
15, 27300, Note_on_c, 12, 55, 76
15, 27300, Note_on_c, 12, 64, 76
15, 27300, Note_on_c, 12, 60, 78
15, 27321, Note_on_c, 12, 55, 0
15, 27323, Note_on_c, 12, 60, 0
15, 27328, Note_on_c, 12, 58, 0
15, 27331, Note_on_c, 12, 64, 0
15, 27357, Control_c, 12, 64, 0
15, 27360, Note_on_c, 12, 72, 82
15, 27360, Note_on_c, 12, 96, 92
15, 27360, Note_on_c, 12, 84, 82
15, 27360, Note_on_c, 12, 41, 81
15, 27360, Note_on_c, 12, 29, 78
15, 27369, Note_on_c, 12, 72, 73
15, 27369, Note_on_c, 12, 96, 82
15, 27377, Control_c, 12, 64, 127
15, 27378, Note_on_c, 12, 74, 78
15, 27379, Control_c, 12, 64, 0
15, 27381, Note_on_c, 12, 72, 0
15, 27385, Control_c, 12, 64, 127
15, 27387, Note_on_c, 12, 96, 0
15, 27387, Note_on_c, 12, 98, 72
15, 27393, Note_on_c, 12, 74, 0
15, 27399, Note_on_c, 12, 72, 76
15, 27400, Note_on_c, 12, 29, 0
15, 27402, Note_on_c, 12, 84, 0
15, 27403, Note_on_c, 12, 98, 0
15, 27404, Note_on_c, 12, 96, 76
15, 27405, Note_on_c, 12, 72, 0
15, 27409, Note_on_c, 12, 41, 0
15, 27411, Note_on_c, 12, 96, 0
15, 27411, Note_on_c, 12, 74, 72
15, 27412, Note_on_c, 12, 72, 0
15, 27420, Note_on_c, 12, 96, 0
15, 27420, Note_on_c, 12, 65, 82
15, 27420, Note_on_c, 12, 57, 87
15, 27420, Note_on_c, 12, 60, 90
15, 27426, Note_on_c, 12, 74, 0
15, 27426, Note_on_c, 12, 98, 74
15, 27427, Note_on_c, 12, 72, 74
15, 27442, Note_on_c, 12, 74, 67
15, 27446, Note_on_c, 12, 98, 0
15, 27447, Note_on_c, 12, 57, 0
15, 27448, Note_on_c, 12, 96, 71
15, 27452, Note_on_c, 12, 65, 0
15, 27452, Note_on_c, 12, 60, 0
15, 27455, Note_on_c, 12, 74, 0
15, 27462, Control_c, 12, 64, 0
15, 27468, Note_on_c, 12, 72, 0
15, 27468, Note_on_c, 12, 96, 0
15, 27480, Note_on_c, 12, 71, 81
15, 27480, Note_on_c, 12, 95, 78
15, 27480, Note_on_c, 12, 83, 80
15, 27480, Note_on_c, 12, 41, 80
15, 27480, Note_on_c, 12, 29, 78
15, 27503, Control_c, 12, 64, 127
15, 27508, Note_on_c, 12, 83, 0
15, 27509, Note_on_c, 12, 29, 0
15, 27514, Note_on_c, 12, 71, 0
15, 27514, Note_on_c, 12, 41, 0
15, 27516, Note_on_c, 12, 95, 0
15, 27540, Note_on_c, 12, 84, 80
15, 27540, Note_on_c, 12, 72, 78
15, 27540, Note_on_c, 12, 96, 79
15, 27540, Note_on_c, 12, 65, 79
15, 27540, Note_on_c, 12, 60, 82
15, 27540, Note_on_c, 12, 57, 69
15, 27564, Note_on_c, 12, 84, 0
15, 27569, Note_on_c, 12, 96, 0
15, 27573, Note_on_c, 12, 57, 0
15, 27574, Note_on_c, 12, 65, 0
15, 27575, Note_on_c, 12, 72, 0
15, 27584, Note_on_c, 12, 60, 0
15, 27594, Control_c, 12, 64, 0
15, 27598, Control_c, 12, 64, 127
15, 27600, Note_on_c, 12, 89, 73
15, 27600, Note_on_c, 12, 77, 87
15, 27600, Note_on_c, 12, 101, 84
15, 27600, Control_c, 12, 64, 0
15, 27600, Note_on_c, 12, 26, 83
15, 27600, Note_on_c, 12, 38, 78
15, 27631, Control_c, 12, 64, 127
15, 27637, Note_on_c, 12, 101, 0
15, 27638, Note_on_c, 12, 77, 0
15, 27642, Note_on_c, 12, 89, 0
15, 27658, Note_on_c, 12, 38, 0
15, 27659, Note_on_c, 12, 26, 0
15, 27660, Note_on_c, 12, 88, 76
15, 27660, Note_on_c, 12, 76, 76
15, 27660, Note_on_c, 12, 100, 81
15, 27660, Note_on_c, 12, 57, 82
15, 27660, Note_on_c, 12, 65, 78
15, 27660, Note_on_c, 12, 62, 83
15, 27690, Note_on_c, 12, 57, 0
15, 27691, Note_on_c, 12, 65, 0
15, 27691, Note_on_c, 12, 62, 0
15, 27692, Note_on_c, 12, 100, 0
15, 27694, Note_on_c, 12, 76, 0
15, 27697, Note_on_c, 12, 88, 0
15, 27710, Control_c, 12, 64, 0
15, 27720, Note_on_c, 12, 74, 81
15, 27720, Note_on_c, 12, 86, 77
15, 27720, Note_on_c, 12, 98, 84
15, 27720, Note_on_c, 12, 26, 84
15, 27720, Note_on_c, 12, 38, 82
15, 27740, Control_c, 12, 64, 127
15, 27742, Control_c, 12, 64, 0
15, 27746, Note_on_c, 12, 26, 0
15, 27746, Control_c, 12, 64, 127
15, 27748, Note_on_c, 12, 98, 0
15, 27752, Note_on_c, 12, 86, 0
15, 27753, Note_on_c, 12, 38, 0
15, 27755, Note_on_c, 12, 74, 0
15, 27780, Note_on_c, 12, 72, 74
15, 27780, Note_on_c, 12, 84, 76
15, 27780, Note_on_c, 12, 96, 89
15, 27780, Note_on_c, 12, 57, 78
15, 27780, Note_on_c, 12, 65, 80
15, 27780, Note_on_c, 12, 62, 84
15, 27803, Note_on_c, 12, 57, 0
15, 27807, Note_on_c, 12, 62, 0
15, 27808, Note_on_c, 12, 65, 0
15, 27809, Note_on_c, 12, 96, 0
15, 27811, Note_on_c, 12, 72, 0
15, 27811, Note_on_c, 12, 84, 0
15, 27837, Control_c, 12, 64, 0
15, 27840, Note_on_c, 12, 72, 83
15, 27840, Note_on_c, 12, 84, 75
15, 27840, Note_on_c, 12, 96, 88
15, 27840, Note_on_c, 12, 31, 83
15, 27840, Note_on_c, 12, 43, 81
15, 27840, Control_c, 12, 64, 127
15, 27841, Control_c, 12, 64, 0
15, 27845, Control_c, 12, 64, 127
15, 27877, Note_on_c, 12, 84, 0
15, 27877, Note_on_c, 12, 96, 0
15, 27878, Note_on_c, 12, 72, 0
15, 27900, Note_on_c, 12, 83, 77
15, 27900, Note_on_c, 12, 95, 82
15, 27900, Note_on_c, 12, 71, 82
15, 27900, Note_on_c, 12, 55, 78
15, 27900, Note_on_c, 12, 62, 82
15, 27900, Note_on_c, 12, 65, 76
15, 27920, Note_on_c, 12, 55, 0
15, 27920, Note_on_c, 12, 65, 0
15, 27923, Note_on_c, 12, 62, 0
15, 27928, Note_on_c, 12, 71, 0
15, 27929, Note_on_c, 12, 83, 0
15, 27933, Note_on_c, 12, 95, 0
15, 27960, Note_on_c, 12, 86, 80
15, 27960, Note_on_c, 12, 98, 79
15, 27960, Note_on_c, 12, 74, 85
15, 27960, Note_on_c, 12, 55, 97
15, 27960, Note_on_c, 12, 65, 84
15, 27960, Note_on_c, 12, 62, 96
15, 27980, Note_on_c, 12, 55, 0
15, 27986, Note_on_c, 12, 65, 0
15, 27986, Note_on_c, 12, 62, 0
15, 27993, Note_on_c, 12, 86, 0
15, 27996, Note_on_c, 12, 98, 0
15, 27996, Note_on_c, 12, 74, 0
15, 28020, Note_on_c, 12, 95, 78
15, 28020, Note_on_c, 12, 83, 78
15, 28020, Note_on_c, 12, 71, 82
15, 28020, Note_on_c, 12, 65, 82
15, 28020, Note_on_c, 12, 55, 91
15, 28020, Note_on_c, 12, 62, 87
15, 28021, Note_on_c, 12, 31, 0
15, 28026, Note_on_c, 12, 43, 0
15, 28047, Note_on_c, 12, 83, 0
15, 28047, Note_on_c, 12, 55, 0
15, 28048, Note_on_c, 12, 71, 0
15, 28051, Note_on_c, 12, 95, 0
15, 28053, Note_on_c, 12, 62, 0
15, 28054, Note_on_c, 12, 65, 0
15, 28060, Control_c, 12, 64, 0
15, 28080, Note_on_c, 12, 86, 81
15, 28080, Note_on_c, 12, 74, 86
15, 28080, Note_on_c, 12, 98, 86
15, 28080, Note_on_c, 12, 31, 88
15, 28080, Note_on_c, 12, 43, 82
15, 28092, Control_c, 12, 64, 127
15, 28113, Note_on_c, 12, 98, 0
15, 28117, Note_on_c, 12, 74, 0
15, 28118, Note_on_c, 12, 86, 0
15, 28140, Note_on_c, 12, 84, 72
15, 28140, Note_on_c, 12, 72, 76
15, 28140, Note_on_c, 12, 96, 82
15, 28140, Note_on_c, 12, 64, 78
15, 28140, Note_on_c, 12, 55, 75
15, 28140, Note_on_c, 12, 60, 84
15, 28162, Note_on_c, 12, 55, 0
15, 28162, Note_on_c, 12, 60, 0
15, 28166, Note_on_c, 12, 64, 0
15, 28168, Note_on_c, 12, 96, 0
15, 28172, Note_on_c, 12, 72, 0
15, 28177, Note_on_c, 12, 84, 0
15, 28200, Note_on_c, 12, 100, 86
15, 28200, Note_on_c, 12, 76, 82
15, 28200, Note_on_c, 12, 88, 70
15, 28200, Note_on_c, 12, 64, 85
15, 28200, Note_on_c, 12, 60, 87
15, 28200, Note_on_c, 12, 55, 97
15, 28218, Note_on_c, 12, 55, 0
15, 28224, Note_on_c, 12, 60, 0
15, 28225, Note_on_c, 12, 64, 0
15, 28226, Note_on_c, 12, 88, 0
15, 28231, Note_on_c, 12, 76, 0
15, 28237, Note_on_c, 12, 100, 0
15, 28260, Note_on_c, 12, 96, 82
15, 28260, Note_on_c, 12, 72, 79
15, 28260, Note_on_c, 12, 84, 79
15, 28260, Note_on_c, 12, 60, 83
15, 28260, Note_on_c, 12, 55, 88
15, 28260, Note_on_c, 12, 64, 79
15, 28261, Note_on_c, 12, 31, 0
15, 28269, Note_on_c, 12, 43, 0
15, 28285, Note_on_c, 12, 84, 0
15, 28290, Note_on_c, 12, 55, 0
15, 28291, Note_on_c, 12, 72, 0
15, 28291, Note_on_c, 12, 64, 0
15, 28292, Control_c, 12, 64, 0
15, 28294, Note_on_c, 12, 96, 0
15, 28296, Note_on_c, 12, 60, 0
15, 28297, Control_c, 12, 64, 127
15, 28298, Control_c, 12, 64, 0
15, 28320, Note_on_c, 12, 84, 76
15, 28320, Note_on_c, 12, 96, 92
15, 28320, Note_on_c, 12, 72, 83
15, 28320, Note_on_c, 12, 43, 84
15, 28320, Note_on_c, 12, 31, 83
15, 28321, Control_c, 12, 64, 127
15, 28324, Control_c, 12, 64, 0
15, 28328, Control_c, 12, 64, 127
15, 28356, Note_on_c, 12, 96, 0
15, 28358, Note_on_c, 12, 84, 0
15, 28361, Note_on_c, 12, 72, 0
15, 28380, Note_on_c, 12, 95, 80
15, 28380, Note_on_c, 12, 71, 79
15, 28380, Note_on_c, 12, 83, 76
15, 28380, Note_on_c, 12, 55, 80
15, 28380, Note_on_c, 12, 65, 82
15, 28380, Note_on_c, 12, 62, 82
15, 28401, Note_on_c, 12, 62, 0
15, 28402, Note_on_c, 12, 55, 0
15, 28407, Note_on_c, 12, 83, 0
15, 28407, Note_on_c, 12, 65, 0
15, 28409, Note_on_c, 12, 71, 0
15, 28419, Note_on_c, 12, 95, 0
15, 28440, Note_on_c, 12, 98, 90
15, 28440, Note_on_c, 12, 86, 86
15, 28440, Note_on_c, 12, 74, 83
15, 28440, Note_on_c, 12, 55, 92
15, 28440, Note_on_c, 12, 62, 82
15, 28440, Note_on_c, 12, 65, 76
15, 28460, Note_on_c, 12, 55, 0
15, 28463, Note_on_c, 12, 65, 0
15, 28465, Note_on_c, 12, 62, 0
15, 28473, Note_on_c, 12, 98, 0
15, 28475, Note_on_c, 12, 86, 0
15, 28475, Note_on_c, 12, 74, 0
15, 28496, Note_on_c, 12, 31, 0
15, 28500, Note_on_c, 12, 83, 82
15, 28500, Note_on_c, 12, 95, 82
15, 28500, Note_on_c, 12, 71, 76
15, 28500, Note_on_c, 12, 65, 75
15, 28500, Note_on_c, 12, 55, 82
15, 28500, Note_on_c, 12, 62, 76
15, 28509, Note_on_c, 12, 43, 0
15, 28524, Note_on_c, 12, 71, 0
15, 28527, Note_on_c, 12, 83, 0
15, 28530, Note_on_c, 12, 95, 0
15, 28536, Note_on_c, 12, 65, 0
15, 28541, Control_c, 12, 64, 0
15, 28544, Note_on_c, 12, 55, 0
15, 28544, Note_on_c, 12, 62, 0
15, 28560, Note_on_c, 12, 74, 87
15, 28560, Note_on_c, 12, 98, 92
15, 28560, Note_on_c, 12, 86, 84
15, 28560, Note_on_c, 12, 43, 78
15, 28560, Note_on_c, 12, 31, 80
15, 28575, Control_c, 12, 64, 127
15, 28596, Note_on_c, 12, 74, 0
15, 28615, Note_on_c, 12, 98, 0
15, 28618, Note_on_c, 12, 86, 0
15, 28620, Note_on_c, 12, 84, 71
15, 28620, Note_on_c, 12, 72, 72
15, 28620, Note_on_c, 12, 96, 84
15, 28620, Note_on_c, 12, 64, 79
15, 28620, Note_on_c, 12, 55, 79
15, 28620, Note_on_c, 12, 60, 83
15, 28639, Note_on_c, 12, 55, 0
15, 28646, Note_on_c, 12, 64, 0
15, 28646, Note_on_c, 12, 60, 0
15, 28649, Note_on_c, 12, 72, 0
15, 28666, Note_on_c, 12, 96, 0
15, 28671, Note_on_c, 12, 84, 0
15, 28680, Note_on_c, 12, 76, 81
15, 28680, Note_on_c, 12, 88, 74
15, 28680, Note_on_c, 12, 100, 85
15, 28680, Note_on_c, 12, 60, 82
15, 28680, Note_on_c, 12, 55, 90
15, 28680, Note_on_c, 12, 64, 82
15, 28698, Note_on_c, 12, 55, 0
15, 28705, Note_on_c, 12, 64, 0
15, 28707, Note_on_c, 12, 60, 0
15, 28713, Note_on_c, 12, 76, 0
15, 28715, Note_on_c, 12, 88, 0
15, 28716, Note_on_c, 12, 100, 0
15, 28736, Note_on_c, 12, 31, 0
15, 28740, Note_on_c, 12, 72, 74
15, 28740, Note_on_c, 12, 96, 76
15, 28740, Note_on_c, 12, 84, 77
15, 28740, Note_on_c, 12, 64, 80
15, 28740, Note_on_c, 12, 60, 76
15, 28740, Note_on_c, 12, 55, 86
15, 28744, Note_on_c, 12, 43, 0
15, 28766, Note_on_c, 12, 55, 0
15, 28767, Note_on_c, 12, 84, 0
15, 28769, Note_on_c, 12, 96, 0
15, 28769, Control_c, 12, 64, 0
15, 28775, Note_on_c, 12, 60, 0
15, 28776, Note_on_c, 12, 72, 0
15, 28776, Note_on_c, 12, 64, 0
15, 28800, Note_on_c, 12, 71, 81
15, 28800, Note_on_c, 12, 95, 76
15, 28800, Note_on_c, 12, 83, 76
15, 28800, Note_on_c, 12, 31, 87
15, 28800, Note_on_c, 12, 43, 85
15, 28811, Control_c, 12, 64, 127
15, 28834, Note_on_c, 12, 71, 0
15, 28840, Note_on_c, 12, 83, 0
15, 28841, Note_on_c, 12, 95, 0
15, 28860, Note_on_c, 12, 72, 71
15, 28860, Note_on_c, 12, 96, 81
15, 28860, Note_on_c, 12, 84, 73
15, 28860, Note_on_c, 12, 55, 78
15, 28860, Note_on_c, 12, 65, 77
15, 28860, Note_on_c, 12, 62, 82
15, 28880, Note_on_c, 12, 62, 0
15, 28881, Note_on_c, 12, 55, 0
15, 28883, Note_on_c, 12, 65, 0
15, 28893, Note_on_c, 12, 96, 0
15, 28895, Note_on_c, 12, 72, 0
15, 28906, Note_on_c, 12, 84, 0
15, 28920, Note_on_c, 12, 86, 72
15, 28920, Note_on_c, 12, 74, 78
15, 28920, Note_on_c, 12, 98, 77
15, 28920, Note_on_c, 12, 55, 93
15, 28920, Note_on_c, 12, 62, 85
15, 28920, Note_on_c, 12, 65, 82
15, 28940, Note_on_c, 12, 55, 0
15, 28946, Note_on_c, 12, 62, 0
15, 28946, Note_on_c, 12, 65, 0
15, 28948, Note_on_c, 12, 86, 0
15, 28957, Note_on_c, 12, 98, 0
15, 28958, Note_on_c, 12, 74, 0
15, 28980, Note_on_c, 12, 79, 78
15, 28980, Note_on_c, 12, 103, 86
15, 28980, Note_on_c, 12, 91, 62
15, 28980, Note_on_c, 12, 65, 76
15, 28980, Note_on_c, 12, 55, 78
15, 28980, Note_on_c, 12, 62, 79
15, 28984, Note_on_c, 12, 31, 0
15, 28997, Note_on_c, 12, 43, 0
15, 29010, Control_c, 12, 64, 0
15, 29011, Note_on_c, 12, 65, 0
15, 29014, Note_on_c, 12, 62, 0
15, 29015, Control_c, 12, 64, 127
15, 29015, Control_c, 12, 64, 0
15, 29016, Note_on_c, 12, 91, 0
15, 29019, Note_on_c, 12, 79, 0
15, 29021, Note_on_c, 12, 103, 0
15, 29021, Note_on_c, 12, 55, 0
15, 29039, Control_c, 12, 64, 127
15, 29040, Note_on_c, 12, 96, 78
15, 29040, Note_on_c, 12, 72, 71
15, 29040, Note_on_c, 12, 84, 76
15, 29040, Note_on_c, 12, 31, 80
15, 29040, Note_on_c, 12, 43, 92
15, 29041, Control_c, 12, 64, 0
15, 29045, Control_c, 12, 64, 127
15, 29070, Note_on_c, 12, 96, 0
15, 29073, Note_on_c, 12, 72, 0
15, 29086, Note_on_c, 12, 84, 0
15, 29100, Note_on_c, 12, 98, 78
15, 29100, Note_on_c, 12, 74, 80
15, 29100, Note_on_c, 12, 86, 76
15, 29100, Note_on_c, 12, 55, 80
15, 29100, Note_on_c, 12, 64, 81
15, 29100, Note_on_c, 12, 60, 81
15, 29120, Note_on_c, 12, 60, 0
15, 29121, Note_on_c, 12, 55, 0
15, 29123, Note_on_c, 12, 64, 0
15, 29128, Note_on_c, 12, 98, 0
15, 29132, Note_on_c, 12, 86, 0
15, 29136, Note_on_c, 12, 74, 0
15, 29160, Note_on_c, 12, 100, 80
15, 29160, Note_on_c, 12, 88, 76
15, 29160, Note_on_c, 12, 76, 80
15, 29160, Note_on_c, 12, 55, 87
15, 29160, Note_on_c, 12, 64, 80
15, 29160, Note_on_c, 12, 60, 88
15, 29179, Note_on_c, 12, 55, 0
15, 29183, Note_on_c, 12, 60, 0
15, 29186, Note_on_c, 12, 64, 0
15, 29191, Note_on_c, 12, 88, 0
15, 29193, Note_on_c, 12, 76, 0
15, 29197, Note_on_c, 12, 100, 0
15, 29220, Note_on_c, 12, 79, 83
15, 29220, Note_on_c, 12, 103, 96
15, 29220, Note_on_c, 12, 91, 89
15, 29220, Note_on_c, 12, 64, 78
15, 29220, Note_on_c, 12, 55, 88
15, 29220, Note_on_c, 12, 60, 79
15, 29240, Note_on_c, 12, 43, 0
15, 29240, Note_on_c, 12, 55, 0
15, 29243, Note_on_c, 12, 60, 0
15, 29245, Note_on_c, 12, 64, 0
15, 29249, Note_on_c, 12, 103, 0
15, 29253, Note_on_c, 12, 79, 0
15, 29259, Note_on_c, 12, 31, 0
15, 29259, Note_on_c, 12, 91, 0
15, 29271, Control_c, 12, 64, 0
15, 29280, Note_on_c, 12, 71, 80
15, 29280, Note_on_c, 12, 83, 74
15, 29280, Note_on_c, 12, 95, 76
15, 29280, Note_on_c, 12, 31, 82
15, 29280, Note_on_c, 12, 43, 81
15, 29286, Control_c, 12, 64, 127
15, 29310, Note_on_c, 12, 95, 0
15, 29312, Note_on_c, 12, 83, 0
15, 29314, Note_on_c, 12, 71, 0
15, 29340, Note_on_c, 12, 84, 69
15, 29340, Note_on_c, 12, 96, 79
15, 29340, Note_on_c, 12, 72, 78
15, 29340, Note_on_c, 12, 55, 74
15, 29340, Note_on_c, 12, 65, 75
15, 29340, Note_on_c, 12, 62, 79
15, 29360, Note_on_c, 12, 62, 0
15, 29362, Note_on_c, 12, 55, 0
15, 29364, Note_on_c, 12, 65, 0
15, 29370, Note_on_c, 12, 96, 0
15, 29370, Note_on_c, 12, 72, 0
15, 29377, Note_on_c, 12, 84, 0
15, 29400, Note_on_c, 12, 98, 75
15, 29400, Note_on_c, 12, 86, 72
15, 29400, Note_on_c, 12, 74, 78
15, 29400, Note_on_c, 12, 62, 82
15, 29400, Note_on_c, 12, 65, 79
15, 29400, Note_on_c, 12, 55, 83
15, 29420, Note_on_c, 12, 55, 0
15, 29423, Note_on_c, 12, 62, 0
15, 29424, Note_on_c, 12, 65, 0
15, 29432, Note_on_c, 12, 86, 0
15, 29434, Note_on_c, 12, 74, 0
15, 29436, Note_on_c, 12, 98, 0
15, 29440, Note_on_c, 12, 43, 0
15, 29446, Note_on_c, 12, 31, 0
15, 29460, Note_on_c, 12, 91, 74
15, 29460, Note_on_c, 12, 103, 87
15, 29460, Note_on_c, 12, 79, 81
15, 29460, Note_on_c, 12, 65, 78
15, 29460, Note_on_c, 12, 55, 82
15, 29460, Note_on_c, 12, 62, 81
15, 29485, Note_on_c, 12, 55, 0
15, 29485, Note_on_c, 12, 62, 0
15, 29487, Note_on_c, 12, 65, 0
15, 29492, Control_c, 12, 64, 0
15, 29495, Note_on_c, 12, 91, 0
15, 29497, Note_on_c, 12, 79, 0
15, 29501, Note_on_c, 12, 103, 0
15, 29520, Note_on_c, 12, 96, 77
15, 29520, Note_on_c, 12, 84, 74
15, 29520, Note_on_c, 12, 72, 76
15, 29520, Note_on_c, 12, 31, 82
15, 29520, Note_on_c, 12, 43, 79
15, 29528, Control_c, 12, 64, 127
15, 29555, Note_on_c, 12, 72, 0
15, 29558, Note_on_c, 12, 84, 0
15, 29561, Note_on_c, 12, 96, 0
15, 29580, Note_on_c, 12, 86, 76
15, 29580, Note_on_c, 12, 98, 83
15, 29580, Note_on_c, 12, 74, 84
15, 29580, Note_on_c, 12, 55, 76
15, 29580, Note_on_c, 12, 60, 82
15, 29580, Note_on_c, 12, 64, 76
15, 29599, Note_on_c, 12, 64, 0
15, 29602, Note_on_c, 12, 55, 0
15, 29604, Note_on_c, 12, 60, 0
15, 29616, Note_on_c, 12, 98, 0
15, 29616, Note_on_c, 12, 74, 0
15, 29626, Note_on_c, 12, 86, 0
15, 29640, Note_on_c, 12, 76, 77
15, 29640, Note_on_c, 12, 88, 69
15, 29640, Note_on_c, 12, 100, 83
15, 29640, Note_on_c, 12, 55, 76
15, 29640, Note_on_c, 12, 60, 69
15, 29640, Note_on_c, 12, 64, 78
15, 29655, Note_on_c, 12, 64, 0
15, 29660, Note_on_c, 12, 55, 0
15, 29660, Note_on_c, 12, 60, 0
15, 29668, Note_on_c, 12, 88, 0
15, 29674, Note_on_c, 12, 76, 0
15, 29677, Note_on_c, 12, 43, 0
15, 29678, Note_on_c, 12, 100, 0
15, 29693, Note_on_c, 12, 31, 0
15, 29700, Note_on_c, 12, 103, 96
15, 29700, Note_on_c, 12, 79, 83
15, 29700, Note_on_c, 12, 91, 81
15, 29700, Note_on_c, 12, 60, 73
15, 29700, Note_on_c, 12, 55, 69
15, 29700, Note_on_c, 12, 64, 74
15, 29716, Note_on_c, 12, 55, 0
15, 29716, Note_on_c, 12, 64, 0
15, 29721, Note_on_c, 12, 60, 0
15, 29725, Note_on_c, 12, 103, 0
15, 29728, Note_on_c, 12, 91, 0
15, 29729, Note_on_c, 12, 79, 0
15, 29743, Control_c, 12, 64, 0
15, 29760, Note_on_c, 12, 101, 90
15, 29760, Note_on_c, 12, 65, 96
15, 29760, Note_on_c, 12, 89, 101
15, 29760, Note_on_c, 12, 77, 96
15, 29760, Note_on_c, 12, 96, 102
15, 29760, Note_on_c, 12, 72, 96
15, 29760, Note_on_c, 12, 33, 92
15, 29760, Note_on_c, 12, 45, 94
15, 29760, Note_on_c, 12, 65, 91
15, 29760, Note_on_c, 12, 57, 102
15, 29760, Note_on_c, 12, 60, 104
15, 29800, Note_on_c, 12, 101, 0
15, 29800, Note_on_c, 12, 96, 0
15, 29805, Note_on_c, 12, 89, 0
15, 29805, Note_on_c, 12, 77, 0
15, 29805, Note_on_c, 12, 72, 0
15, 29810, Note_on_c, 12, 65, 0
15, 29840, Note_on_c, 12, 65, 0
15, 29840, Note_on_c, 12, 57, 0
15, 29841, Note_on_c, 12, 60, 0
15, 29849, Note_on_c, 12, 33, 0
15, 29852, Note_on_c, 12, 45, 0
15, 30840, Note_on_c, 12, 69, 86
15, 30840, Note_on_c, 12, 57, 78
15, 30876, Note_on_c, 12, 69, 0
15, 30876, Note_on_c, 12, 57, 0
15, 30900, Note_on_c, 12, 55, 78
15, 30900, Note_on_c, 12, 67, 78
15, 30931, Note_on_c, 12, 67, 0
15, 30932, Note_on_c, 12, 55, 0
15, 30960, Note_on_c, 12, 53, 76
15, 30960, Note_on_c, 12, 65, 80
15, 30987, Note_on_c, 12, 53, 0
15, 30994, Note_on_c, 12, 65, 0
15, 31020, Note_on_c, 12, 64, 80
15, 31020, Note_on_c, 12, 52, 72
15, 31051, Note_on_c, 12, 52, 0
15, 31055, Note_on_c, 12, 64, 0
15, 31080, Note_on_c, 12, 50, 84
15, 31080, Note_on_c, 12, 62, 83
15, 31108, Note_on_c, 12, 50, 0
15, 31115, Note_on_c, 12, 62, 0
15, 31140, Note_on_c, 12, 48, 66
15, 31140, Note_on_c, 12, 60, 82
15, 31178, Note_on_c, 12, 60, 0
15, 31181, Note_on_c, 12, 48, 0
15, 31200, Note_on_c, 12, 47, 76
15, 31200, Note_on_c, 12, 59, 83
15, 31230, Note_on_c, 12, 59, 0
15, 31235, Note_on_c, 12, 47, 0
15, 31260, Note_on_c, 12, 45, 85
15, 31260, Note_on_c, 12, 57, 87
15, 31289, Note_on_c, 12, 45, 0
15, 31293, Note_on_c, 12, 57, 0
15, 31320, Note_on_c, 12, 43, 65
15, 31320, Note_on_c, 12, 55, 86
15, 31347, Note_on_c, 12, 55, 0
15, 31349, Note_on_c, 12, 43, 0
15, 31380, Note_on_c, 12, 53, 77
15, 31380, Note_on_c, 12, 41, 81
15, 31406, Note_on_c, 12, 41, 0
15, 31416, Note_on_c, 12, 53, 0
15, 31440, Note_on_c, 12, 39, 73
15, 31440, Note_on_c, 12, 51, 88
15, 31462, Note_on_c, 12, 39, 0
15, 31469, Note_on_c, 12, 51, 0
15, 31500, Note_on_c, 12, 38, 79
15, 31500, Note_on_c, 12, 50, 83
15, 31531, Note_on_c, 12, 38, 0
15, 31534, Note_on_c, 12, 50, 0
15, 31560, Note_on_c, 12, 48, 82
15, 31560, Note_on_c, 12, 36, 84
15, 31586, Note_on_c, 12, 36, 0
15, 31589, Note_on_c, 12, 48, 0
15, 31620, Note_on_c, 12, 33, 84
15, 31620, Note_on_c, 12, 45, 94
15, 31657, Note_on_c, 12, 45, 0
15, 31658, Note_on_c, 12, 33, 0
15, 31680, Note_on_c, 12, 35, 79
15, 31680, Note_on_c, 12, 47, 98
15, 31719, Note_on_c, 12, 47, 0
15, 31737, Note_on_c, 12, 35, 0
15, 32049, Note_on_c, 12, 59, 82
15, 32051, Note_on_c, 12, 71, 72
15, 32069, Note_on_c, 12, 59, 0
15, 32076, Note_on_c, 12, 71, 0
15, 32100, Note_on_c, 12, 59, 71
15, 32104, Note_on_c, 12, 71, 66
15, 32122, Note_on_c, 12, 59, 0
15, 32125, Note_on_c, 12, 71, 0
15, 32160, Note_on_c, 12, 59, 82
15, 32160, Note_on_c, 12, 71, 78
15, 32184, Note_on_c, 12, 71, 0
15, 32187, Note_on_c, 12, 59, 0
15, 32220, Note_on_c, 12, 59, 69
15, 32220, Note_on_c, 12, 71, 55
15, 32237, Note_on_c, 12, 71, 0
15, 32243, Note_on_c, 12, 59, 0
15, 32280, Note_on_c, 12, 59, 80
15, 32280, Note_on_c, 12, 71, 84
15, 32306, Note_on_c, 12, 59, 0
15, 32308, Note_on_c, 12, 71, 0
15, 32340, Note_on_c, 12, 59, 74
15, 32340, Note_on_c, 12, 71, 63
15, 32358, Note_on_c, 12, 71, 0
15, 32369, Note_on_c, 12, 59, 0
15, 32385, Note_on_c, 12, 71, 72
15, 32400, Note_on_c, 12, 65, 82
15, 32400, Note_on_c, 12, 77, 85
15, 32405, Note_on_c, 12, 71, 0
15, 32435, Note_on_c, 12, 77, 0
15, 32443, Note_on_c, 12, 65, 0
15, 32520, Note_on_c, 12, 59, 78
15, 32520, Note_on_c, 12, 71, 76
15, 32543, Note_on_c, 12, 59, 0
15, 32545, Note_on_c, 12, 71, 0
15, 32580, Note_on_c, 12, 59, 73
15, 32580, Note_on_c, 12, 71, 72
15, 32604, Note_on_c, 12, 59, 0
15, 32606, Note_on_c, 12, 71, 0
15, 32640, Note_on_c, 12, 59, 78
15, 32640, Note_on_c, 12, 71, 84
15, 32666, Note_on_c, 12, 59, 0
15, 32668, Note_on_c, 12, 71, 0
15, 32700, Note_on_c, 12, 59, 73
15, 32700, Note_on_c, 12, 71, 74
15, 32731, Note_on_c, 12, 71, 0
15, 32733, Note_on_c, 12, 59, 0
15, 32760, Note_on_c, 12, 65, 80
15, 32760, Note_on_c, 12, 77, 94
15, 32810, Note_on_c, 12, 77, 0
15, 32819, Note_on_c, 12, 65, 0
15, 32880, Note_on_c, 12, 59, 82
15, 32880, Note_on_c, 12, 71, 77
15, 32905, Note_on_c, 12, 71, 0
15, 32907, Note_on_c, 12, 59, 0
15, 32940, Note_on_c, 12, 59, 76
15, 32940, Note_on_c, 12, 71, 72
15, 32966, Note_on_c, 12, 71, 0
15, 32970, Note_on_c, 12, 59, 0
15, 33000, Note_on_c, 12, 65, 85
15, 33000, Note_on_c, 12, 77, 87
15, 33053, Note_on_c, 12, 77, 0
15, 33058, Note_on_c, 12, 65, 0
15, 33120, Note_on_c, 12, 59, 81
15, 33120, Note_on_c, 12, 71, 88
15, 33144, Note_on_c, 12, 59, 0
15, 33147, Note_on_c, 12, 71, 0
15, 33180, Note_on_c, 12, 59, 67
15, 33180, Note_on_c, 12, 71, 74
15, 33208, Note_on_c, 12, 59, 0
15, 33211, Note_on_c, 12, 71, 0
15, 33240, Note_on_c, 12, 65, 82
15, 33240, Note_on_c, 12, 77, 87
15, 33292, Note_on_c, 12, 77, 0
15, 33296, Note_on_c, 12, 65, 0
15, 33360, Note_on_c, 12, 59, 83
15, 33360, Note_on_c, 12, 71, 82
15, 33382, Note_on_c, 12, 59, 0
15, 33389, Note_on_c, 12, 71, 0
15, 33420, Note_on_c, 12, 59, 73
15, 33420, Note_on_c, 12, 71, 76
15, 33453, Note_on_c, 12, 59, 0
15, 33454, Note_on_c, 12, 71, 0
15, 33480, Note_on_c, 12, 65, 88
15, 33480, Note_on_c, 12, 77, 93
15, 33521, Note_on_c, 12, 77, 0
15, 33529, Note_on_c, 12, 65, 0
15, 33600, Note_on_c, 12, 76, 84
15, 33600, Note_on_c, 12, 55, 83
15, 33600, Note_on_c, 12, 46, 78
15, 33600, Note_on_c, 12, 58, 73
15, 33600, Note_on_c, 12, 52, 78
15, 33621, Note_on_c, 12, 46, 0
15, 33623, Note_on_c, 12, 52, 0
15, 33625, Note_on_c, 12, 55, 0
15, 33630, Note_on_c, 12, 58, 0
15, 33637, Note_on_c, 12, 76, 0
15, 33718, Note_on_c, 12, 66, 86
15, 33720, Note_on_c, 12, 60, 82
15, 33720, Note_on_c, 12, 67, 87
15, 33720, Note_on_c, 12, 52, 79
15, 33740, Note_on_c, 12, 66, 0
15, 33748, Note_on_c, 12, 52, 0
15, 33753, Note_on_c, 12, 67, 0
15, 33759, Note_on_c, 12, 60, 0
15, 33831, Note_on_c, 12, 71, 92
15, 33840, Note_on_c, 12, 55, 73
15, 33840, Note_on_c, 12, 64, 83
15, 33840, Note_on_c, 12, 72, 89
15, 33854, Note_on_c, 12, 71, 0
15, 33867, Note_on_c, 12, 64, 0
15, 33871, Note_on_c, 12, 72, 0
15, 33874, Note_on_c, 12, 55, 0
15, 33947, Note_on_c, 12, 75, 87
15, 33960, Note_on_c, 12, 60, 69
15, 33960, Note_on_c, 12, 67, 82
15, 33960, Note_on_c, 12, 76, 91
15, 33970, Note_on_c, 12, 75, 0
15, 33982, Note_on_c, 12, 67, 0
15, 33985, Note_on_c, 12, 76, 0
15, 33992, Note_on_c, 12, 60, 0
15, 34072, Note_on_c, 12, 78, 89
15, 34080, Note_on_c, 12, 64, 71
15, 34080, Note_on_c, 12, 72, 91
15, 34080, Note_on_c, 12, 79, 87
15, 34098, Note_on_c, 12, 78, 0
15, 34102, Note_on_c, 12, 79, 0
15, 34109, Note_on_c, 12, 72, 0
15, 34113, Note_on_c, 12, 64, 0
15, 34191, Note_on_c, 12, 83, 88
15, 34200, Note_on_c, 12, 67, 74
15, 34200, Note_on_c, 12, 76, 91
15, 34200, Note_on_c, 12, 84, 87
15, 34218, Note_on_c, 12, 83, 0
15, 34224, Note_on_c, 12, 67, 0
15, 34229, Note_on_c, 12, 76, 0
15, 34232, Note_on_c, 12, 84, 0
15, 34306, Note_on_c, 12, 87, 92
15, 34320, Note_on_c, 12, 72, 82
15, 34320, Note_on_c, 12, 79, 86
15, 34320, Note_on_c, 12, 88, 87
15, 34330, Note_on_c, 12, 87, 0
15, 34344, Note_on_c, 12, 79, 0
15, 34345, Note_on_c, 12, 88, 0
15, 34351, Note_on_c, 12, 72, 0
15, 34426, Note_on_c, 12, 90, 91
15, 34440, Note_on_c, 12, 76, 89
15, 34440, Note_on_c, 12, 84, 85
15, 34440, Note_on_c, 12, 91, 83
15, 34455, Note_on_c, 12, 90, 0
15, 34474, Note_on_c, 12, 84, 0
15, 34476, Note_on_c, 12, 91, 0
15, 34479, Note_on_c, 12, 76, 0
15, 34550, Note_on_c, 12, 90, 88
15, 34560, Note_on_c, 12, 76, 72
15, 34560, Note_on_c, 12, 91, 78
15, 34560, Note_on_c, 12, 83, 87
15, 34585, Note_on_c, 12, 90, 0
15, 34589, Note_on_c, 12, 76, 0
15, 34594, Note_on_c, 12, 91, 0
15, 34606, Note_on_c, 12, 83, 0
15, 34666, Note_on_c, 12, 87, 89
15, 34680, Note_on_c, 12, 71, 76
15, 34680, Note_on_c, 12, 88, 81
15, 34680, Note_on_c, 12, 79, 78
15, 34698, Note_on_c, 12, 87, 0
15, 34710, Note_on_c, 12, 88, 0
15, 34715, Note_on_c, 12, 71, 0
15, 34716, Note_on_c, 12, 79, 0
15, 34790, Note_on_c, 12, 82, 80
15, 34800, Note_on_c, 12, 67, 70
15, 34800, Note_on_c, 12, 83, 82
15, 34800, Note_on_c, 12, 76, 84
15, 34822, Note_on_c, 12, 82, 0
15, 34830, Note_on_c, 12, 67, 0
15, 34830, Note_on_c, 12, 76, 0
15, 34839, Note_on_c, 12, 83, 0
15, 34902, Note_on_c, 12, 78, 86
15, 34920, Note_on_c, 12, 64, 69
15, 34920, Note_on_c, 12, 71, 82
15, 34920, Note_on_c, 12, 79, 88
15, 34932, Note_on_c, 12, 78, 0
15, 34954, Note_on_c, 12, 71, 0
15, 34958, Note_on_c, 12, 79, 0
15, 34960, Note_on_c, 12, 64, 0
15, 35032, Note_on_c, 12, 75, 80
15, 35040, Note_on_c, 12, 59, 78
15, 35040, Note_on_c, 12, 67, 82
15, 35040, Note_on_c, 12, 76, 87
15, 35062, Note_on_c, 12, 75, 0
15, 35071, Note_on_c, 12, 67, 0
15, 35075, Note_on_c, 12, 59, 0
15, 35076, Note_on_c, 12, 76, 0
15, 35151, Note_on_c, 12, 70, 79
15, 35160, Note_on_c, 12, 55, 76
15, 35160, Note_on_c, 12, 64, 86
15, 35160, Note_on_c, 12, 71, 92
15, 35180, Note_on_c, 12, 70, 0
15, 35180, Note_on_c, 12, 64, 0
15, 35192, Note_on_c, 12, 55, 0
15, 35195, Note_on_c, 12, 71, 0
15, 35634, Note_on_c, 12, 69, 85
15, 35640, Note_on_c, 12, 64, 72
15, 35640, Note_on_c, 12, 70, 91
15, 35640, Note_on_c, 12, 55, 76
15, 35668, Note_on_c, 12, 69, 0
15, 35672, Note_on_c, 12, 55, 0
15, 35675, Note_on_c, 12, 64, 0
15, 35678, Note_on_c, 12, 70, 0
15, 35750, Note_on_c, 12, 75, 88
15, 35760, Note_on_c, 12, 58, 72
15, 35760, Note_on_c, 12, 67, 79
15, 35760, Note_on_c, 12, 76, 87
15, 35782, Note_on_c, 12, 75, 0
15, 35790, Note_on_c, 12, 58, 0
15, 35790, Note_on_c, 12, 67, 0
15, 35800, Note_on_c, 12, 76, 0
15, 35861, Note_on_c, 12, 78, 82
15, 35880, Note_on_c, 12, 70, 80
15, 35880, Note_on_c, 12, 79, 87
15, 35884, Note_on_c, 12, 78, 0
15, 35903, Note_on_c, 12, 70, 0
15, 35912, Note_on_c, 12, 79, 0
15, 35983, Note_on_c, 12, 81, 89
15, 36000, Note_on_c, 12, 67, 78
15, 36000, Note_on_c, 12, 76, 84
15, 36000, Note_on_c, 12, 82, 92
15, 36006, Note_on_c, 12, 81, 0
15, 36035, Note_on_c, 12, 67, 0
15, 36041, Note_on_c, 12, 82, 0
15, 36045, Note_on_c, 12, 76, 0
15, 36113, Note_on_c, 12, 87, 88
15, 36120, Note_on_c, 12, 70, 66
15, 36120, Note_on_c, 12, 79, 87
15, 36120, Note_on_c, 12, 88, 90
15, 36140, Note_on_c, 12, 87, 0
15, 36149, Note_on_c, 12, 79, 0
15, 36158, Note_on_c, 12, 88, 0
15, 36162, Note_on_c, 12, 70, 0
15, 36233, Note_on_c, 12, 90, 88
15, 36240, Note_on_c, 12, 76, 81
15, 36240, Note_on_c, 12, 82, 87
15, 36240, Note_on_c, 12, 91, 90
15, 36262, Note_on_c, 12, 90, 0
15, 36271, Note_on_c, 12, 82, 0
15, 36271, Note_on_c, 12, 91, 0
15, 36274, Note_on_c, 12, 76, 0
15, 36354, Note_on_c, 12, 93, 90
15, 36360, Note_on_c, 12, 79, 86
15, 36360, Note_on_c, 12, 88, 82
15, 36360, Note_on_c, 12, 94, 91
15, 36387, Note_on_c, 12, 93, 0
15, 36395, Note_on_c, 12, 79, 0
15, 36397, Note_on_c, 12, 88, 0
15, 36400, Note_on_c, 12, 94, 0
15, 36466, Note_on_c, 12, 94, 96
15, 36480, Note_on_c, 12, 79, 98
15, 36480, Note_on_c, 12, 95, 101
15, 36480, Note_on_c, 12, 89, 98
15, 36492, Note_on_c, 12, 94, 0
15, 36505, Note_on_c, 12, 89, 0
15, 36519, Note_on_c, 12, 79, 0
15, 36519, Note_on_c, 12, 95, 0
15, 36600, Note_on_c, 12, 60, 67
15, 36614, Note_on_c, 12, 60, 0
15, 36615, Note_on_c, 12, 62, 76
15, 36629, Note_on_c, 12, 62, 0
15, 36630, Note_on_c, 12, 64, 67
15, 36644, Note_on_c, 12, 64, 0
15, 36645, Note_on_c, 12, 65, 78
15, 36659, Note_on_c, 12, 65, 0
15, 36660, Note_on_c, 12, 67, 72
15, 36674, Note_on_c, 12, 67, 0
15, 36675, Note_on_c, 12, 69, 76
15, 36689, Note_on_c, 12, 69, 0
15, 36690, Note_on_c, 12, 71, 79
15, 36704, Note_on_c, 12, 71, 0
15, 36705, Note_on_c, 12, 72, 78
15, 36719, Note_on_c, 12, 72, 0
15, 36840, Note_on_c, 12, 88, 77
15, 36854, Note_on_c, 12, 88, 0
15, 36855, Note_on_c, 12, 89, 77
15, 36869, Note_on_c, 12, 89, 0
15, 36870, Note_on_c, 12, 91, 81
15, 36884, Note_on_c, 12, 91, 0
15, 36885, Note_on_c, 12, 93, 83
15, 36899, Note_on_c, 12, 93, 0
15, 36900, Note_on_c, 12, 95, 79
15, 36914, Note_on_c, 12, 95, 0
15, 36915, Note_on_c, 12, 96, 72
15, 36929, Note_on_c, 12, 96, 0
15, 36930, Note_on_c, 12, 98, 85
15, 36944, Note_on_c, 12, 98, 0
15, 36945, Note_on_c, 12, 100, 90
15, 36959, Note_on_c, 12, 100, 0
15, 36960, Note_on_c, 12, 101, 96
15, 36989, Note_on_c, 12, 101, 0
15, 37080, Note_on_c, 12, 60, 65
15, 37094, Note_on_c, 12, 60, 0
15, 37095, Note_on_c, 12, 62, 78
15, 37109, Note_on_c, 12, 62, 0
15, 37110, Note_on_c, 12, 64, 72
15, 37124, Note_on_c, 12, 64, 0
15, 37125, Note_on_c, 12, 65, 74
15, 37139, Note_on_c, 12, 65, 0
15, 37140, Note_on_c, 12, 67, 74
15, 37154, Note_on_c, 12, 67, 0
15, 37155, Note_on_c, 12, 69, 74
15, 37169, Note_on_c, 12, 69, 0
15, 37170, Note_on_c, 12, 71, 72
15, 37184, Note_on_c, 12, 71, 0
15, 37185, Note_on_c, 12, 72, 82
15, 37199, Note_on_c, 12, 72, 0
15, 37320, Note_on_c, 12, 88, 69
15, 37334, Note_on_c, 12, 88, 0
15, 37335, Note_on_c, 12, 89, 71
15, 37349, Note_on_c, 12, 89, 0
15, 37350, Note_on_c, 12, 91, 71
15, 37364, Note_on_c, 12, 91, 0
15, 37365, Note_on_c, 12, 93, 76
15, 37379, Note_on_c, 12, 93, 0
15, 37380, Note_on_c, 12, 95, 77
15, 37394, Note_on_c, 12, 95, 0
15, 37395, Note_on_c, 12, 96, 80
15, 37409, Note_on_c, 12, 96, 0
15, 37410, Note_on_c, 12, 98, 78
15, 37424, Note_on_c, 12, 98, 0
15, 37425, Note_on_c, 12, 100, 86
15, 37439, Note_on_c, 12, 100, 0
15, 37440, Note_on_c, 12, 101, 91
15, 37469, Note_on_c, 12, 101, 0
15, 37560, Note_on_c, 12, 55, 70
15, 37560, Note_on_c, 12, 43, 67
15, 37589, Note_on_c, 12, 55, 0
15, 37589, Note_on_c, 12, 43, 0
15, 37590, Note_on_c, 12, 57, 78
15, 37590, Note_on_c, 12, 45, 53
15, 37619, Note_on_c, 12, 57, 0
15, 37619, Note_on_c, 12, 45, 0
15, 37620, Note_on_c, 12, 59, 82
15, 37620, Note_on_c, 12, 47, 78
15, 37649, Note_on_c, 12, 59, 0
15, 37649, Note_on_c, 12, 47, 0
15, 37650, Note_on_c, 12, 60, 72
15, 37650, Note_on_c, 12, 48, 76
15, 37679, Note_on_c, 12, 60, 0
15, 37679, Note_on_c, 12, 48, 0
15, 37680, Note_on_c, 12, 50, 73
15, 37680, Note_on_c, 12, 62, 74
15, 37709, Note_on_c, 12, 50, 0
15, 37709, Note_on_c, 12, 62, 0
15, 37710, Note_on_c, 12, 48, 74
15, 37710, Note_on_c, 12, 60, 63
15, 37739, Note_on_c, 12, 48, 0
15, 37739, Note_on_c, 12, 60, 0
15, 37740, Note_on_c, 12, 47, 66
15, 37740, Note_on_c, 12, 59, 72
15, 37769, Note_on_c, 12, 47, 0
15, 37769, Note_on_c, 12, 59, 0
15, 37770, Note_on_c, 12, 45, 74
15, 37770, Note_on_c, 12, 57, 79
15, 37799, Note_on_c, 12, 45, 0
15, 37799, Note_on_c, 12, 57, 0
15, 37800, Note_on_c, 12, 43, 70
15, 37800, Note_on_c, 12, 55, 76
15, 37829, Note_on_c, 12, 43, 0
15, 37829, Note_on_c, 12, 55, 0
15, 37830, Note_on_c, 12, 57, 76
15, 37830, Note_on_c, 12, 45, 72
15, 37859, Note_on_c, 12, 57, 0
15, 37859, Note_on_c, 12, 45, 0
15, 37860, Note_on_c, 12, 47, 71
15, 37860, Note_on_c, 12, 59, 72
15, 37889, Note_on_c, 12, 47, 0
15, 37889, Note_on_c, 12, 59, 0
15, 37890, Note_on_c, 12, 48, 64
15, 37890, Note_on_c, 12, 60, 72
15, 37919, Note_on_c, 12, 48, 0
15, 37919, Note_on_c, 12, 60, 0
15, 37920, Note_on_c, 12, 50, 74
15, 37920, Note_on_c, 12, 62, 77
15, 37949, Note_on_c, 12, 50, 0
15, 37949, Note_on_c, 12, 62, 0
15, 37950, Note_on_c, 12, 48, 70
15, 37950, Note_on_c, 12, 60, 67
15, 37979, Note_on_c, 12, 48, 0
15, 37979, Note_on_c, 12, 60, 0
15, 37980, Note_on_c, 12, 47, 69
15, 37980, Note_on_c, 12, 59, 63
15, 38009, Note_on_c, 12, 47, 0
15, 38009, Note_on_c, 12, 59, 0
15, 38010, Note_on_c, 12, 57, 67
15, 38010, Note_on_c, 12, 45, 72
15, 38039, Note_on_c, 12, 57, 0
15, 38039, Note_on_c, 12, 45, 0
15, 38040, Note_on_c, 12, 43, 72
15, 38040, Note_on_c, 12, 55, 76
15, 38069, Note_on_c, 12, 43, 0
15, 38069, Note_on_c, 12, 55, 0
15, 38070, Note_on_c, 12, 45, 68
15, 38070, Note_on_c, 12, 57, 76
15, 38099, Note_on_c, 12, 45, 0
15, 38099, Note_on_c, 12, 57, 0
15, 38100, Note_on_c, 12, 47, 67
15, 38100, Note_on_c, 12, 59, 74
15, 38129, Note_on_c, 12, 47, 0
15, 38129, Note_on_c, 12, 59, 0
15, 38130, Note_on_c, 12, 48, 67
15, 38130, Note_on_c, 12, 60, 68
15, 38159, Note_on_c, 12, 48, 0
15, 38159, Note_on_c, 12, 60, 0
15, 38160, Note_on_c, 12, 50, 76
15, 38160, Note_on_c, 12, 62, 76
15, 38189, Note_on_c, 12, 50, 0
15, 38189, Note_on_c, 12, 62, 0
15, 38190, Note_on_c, 12, 48, 73
15, 38190, Note_on_c, 12, 60, 71
15, 38219, Note_on_c, 12, 48, 0
15, 38219, Note_on_c, 12, 60, 0
15, 38220, Note_on_c, 12, 47, 70
15, 38220, Note_on_c, 12, 59, 67
15, 38249, Note_on_c, 12, 47, 0
15, 38249, Note_on_c, 12, 59, 0
15, 38250, Note_on_c, 12, 45, 77
15, 38250, Note_on_c, 12, 57, 76
15, 38279, Note_on_c, 12, 45, 0
15, 38279, Note_on_c, 12, 57, 0
15, 38280, Note_on_c, 12, 43, 72
15, 38280, Note_on_c, 12, 55, 74
15, 38339, Note_on_c, 12, 43, 0
15, 38339, Note_on_c, 12, 55, 0
15, 38400, Note_on_c, 12, 48, 87
15, 38400, Note_on_c, 12, 36, 89
15, 38436, Note_on_c, 12, 36, 0
15, 38442, Note_on_c, 12, 48, 0
15, 38520, Note_on_c, 12, 52, 87
15, 38520, Note_on_c, 12, 40, 90
15, 38563, Note_on_c, 12, 40, 0
15, 38569, Note_on_c, 12, 52, 0
15, 38640, Note_on_c, 12, 53, 86
15, 38640, Note_on_c, 12, 41, 87
15, 38678, Note_on_c, 12, 53, 0
15, 38678, Note_on_c, 12, 41, 0
15, 38760, Note_on_c, 12, 54, 76
15, 38760, Note_on_c, 12, 42, 89
15, 38806, Note_on_c, 12, 54, 0
15, 38811, Note_on_c, 12, 42, 0
15, 38880, Note_on_c, 12, 55, 90
15, 38880, Note_on_c, 12, 48, 90
15, 38880, Note_on_c, 12, 43, 68
15, 38880, Note_on_c, 12, 52, 96
15, 38946, Note_on_c, 12, 43, 0
15, 38954, Note_on_c, 12, 52, 0
15, 38962, Note_on_c, 12, 55, 0
15, 38962, Note_on_c, 12, 48, 0
15, 39120, Note_on_c, 12, 43, 91
15, 39120, Note_on_c, 12, 55, 91
15, 39120, Note_on_c, 12, 50, 92
15, 39120, Note_on_c, 12, 47, 87
15, 39185, Note_on_c, 12, 43, 0
15, 39185, Note_on_c, 12, 55, 0
15, 39185, Note_on_c, 12, 47, 0
15, 39188, Note_on_c, 12, 50, 0
15, 39360, Note_on_c, 12, 36, 93
15, 39360, Note_on_c, 12, 48, 89
15, 39410, Note_on_c, 12, 36, 0
15, 39418, Note_on_c, 12, 48, 0
15, 39480, Note_on_c, 12, 40, 88
15, 39480, Note_on_c, 12, 52, 90
15, 39541, Note_on_c, 12, 40, 0
15, 39544, Note_on_c, 12, 52, 0
15, 39600, Note_on_c, 12, 41, 78
15, 39600, Note_on_c, 12, 53, 89
15, 39632, Control_c, 12, 64, 127
15, 39635, Note_on_c, 12, 41, 0
15, 39641, Note_on_c, 12, 53, 0
15, 39720, Note_on_c, 12, 54, 96
15, 39720, Note_on_c, 12, 42, 83
15, 39742, Control_c, 12, 64, 0
15, 39769, Note_on_c, 12, 54, 0
15, 39771, Note_on_c, 12, 42, 0
15, 39840, Note_on_c, 12, 43, 82
15, 39840, Note_on_c, 12, 48, 100
15, 39840, Note_on_c, 12, 55, 109
15, 39840, Note_on_c, 12, 52, 116
15, 39879, Control_c, 12, 64, 127
15, 39912, Note_on_c, 12, 52, 0
15, 39919, Note_on_c, 12, 48, 0
15, 39919, Note_on_c, 12, 55, 0
15, 39929, Note_on_c, 12, 43, 0
15, 40009, Control_c, 12, 64, 0
15, 40076, Control_c, 12, 64, 127
15, 40080, Note_on_c, 12, 43, 94
15, 40080, Note_on_c, 12, 55, 96
15, 40080, Note_on_c, 12, 47, 94
15, 40080, Note_on_c, 12, 50, 102
15, 40132, Note_on_c, 12, 50, 0
15, 40133, Note_on_c, 12, 43, 0
15, 40133, Note_on_c, 12, 55, 0
15, 40136, Note_on_c, 12, 47, 0
15, 40254, Control_c, 12, 64, 0
15, 40302, Control_c, 12, 64, 127
15, 40320, Note_on_c, 12, 64, 89
15, 40320, Note_on_c, 12, 72, 84
15, 40340, Note_on_c, 12, 72, 0
15, 40342, Note_on_c, 12, 64, 0
15, 40342, Note_on_c, 12, 76, 104
15, 40343, Note_on_c, 12, 72, 86
15, 40362, Note_on_c, 12, 72, 0
15, 40366, Note_on_c, 12, 76, 0
15, 40370, Note_on_c, 12, 72, 90
15, 40370, Note_on_c, 12, 64, 90
15, 40394, Note_on_c, 12, 72, 0
15, 40394, Note_on_c, 12, 64, 0
15, 40399, Note_on_c, 12, 76, 97
15, 40400, Note_on_c, 12, 72, 83
15, 40415, Note_on_c, 12, 72, 0
15, 40419, Note_on_c, 12, 76, 0
15, 40424, Note_on_c, 12, 64, 84
15, 40424, Note_on_c, 12, 72, 87
15, 40446, Note_on_c, 12, 64, 0
15, 40446, Note_on_c, 12, 72, 0
15, 40453, Note_on_c, 12, 76, 98
15, 40454, Note_on_c, 12, 72, 97
15, 40469, Note_on_c, 12, 72, 0
15, 40474, Note_on_c, 12, 76, 0
15, 40477, Note_on_c, 12, 72, 88
15, 40477, Note_on_c, 12, 64, 87
15, 40498, Note_on_c, 12, 72, 0
15, 40498, Note_on_c, 12, 64, 0
15, 40507, Note_on_c, 12, 76, 100
15, 40507, Note_on_c, 12, 72, 94
15, 40524, Note_on_c, 12, 72, 0
15, 40526, Note_on_c, 12, 76, 0
15, 40531, Note_on_c, 12, 72, 94
15, 40532, Note_on_c, 12, 64, 83
15, 40552, Note_on_c, 12, 64, 0
15, 40553, Note_on_c, 12, 72, 0
15, 40562, Note_on_c, 12, 76, 102
15, 40562, Note_on_c, 12, 72, 89
15, 40579, Note_on_c, 12, 72, 0
15, 40581, Note_on_c, 12, 76, 0
15, 40587, Note_on_c, 12, 72, 82
15, 40588, Note_on_c, 12, 64, 82
15, 40608, Note_on_c, 12, 72, 0
15, 40608, Note_on_c, 12, 64, 0
15, 40616, Note_on_c, 12, 76, 97
15, 40616, Note_on_c, 12, 72, 88
15, 40636, Note_on_c, 12, 76, 0
15, 40636, Note_on_c, 12, 72, 0
15, 40645, Note_on_c, 12, 72, 79
15, 40645, Note_on_c, 12, 64, 75
15, 40665, Note_on_c, 12, 72, 0
15, 40665, Note_on_c, 12, 64, 0
15, 40670, Note_on_c, 12, 76, 93
15, 40672, Note_on_c, 12, 72, 66
15, 40687, Note_on_c, 12, 72, 0
15, 40691, Note_on_c, 12, 76, 0
15, 40699, Note_on_c, 12, 72, 75
15, 40700, Note_on_c, 12, 64, 77
15, 40720, Note_on_c, 12, 72, 0
15, 40720, Note_on_c, 12, 64, 0
15, 40723, Note_on_c, 12, 76, 96
15, 40726, Note_on_c, 12, 72, 78
15, 40742, Note_on_c, 12, 72, 0
15, 40744, Note_on_c, 12, 76, 0
15, 40757, Note_on_c, 12, 72, 82
15, 40757, Note_on_c, 12, 64, 80
15, 40778, Note_on_c, 12, 64, 0
15, 40779, Note_on_c, 12, 76, 98
15, 40797, Note_on_c, 12, 72, 0
15, 40801, Note_on_c, 12, 76, 0
15, 40810, Note_on_c, 12, 72, 96
15, 40811, Note_on_c, 12, 64, 84
15, 40832, Note_on_c, 12, 72, 0
15, 40835, Note_on_c, 12, 64, 0
15, 40836, Note_on_c, 12, 76, 107
15, 40839, Note_on_c, 12, 72, 89
15, 40854, Note_on_c, 12, 72, 0
15, 40858, Note_on_c, 12, 76, 0
15, 40869, Note_on_c, 12, 72, 91
15, 40869, Note_on_c, 12, 64, 81
15, 40894, Note_on_c, 12, 76, 100
15, 40896, Note_on_c, 12, 64, 0
15, 40911, Note_on_c, 12, 72, 0
15, 40915, Note_on_c, 12, 76, 0
15, 40929, Note_on_c, 12, 72, 82
15, 40929, Note_on_c, 12, 64, 79
15, 40946, Note_on_c, 12, 76, 93
15, 40948, Note_on_c, 12, 64, 0
15, 40969, Note_on_c, 12, 72, 0
15, 40969, Note_on_c, 12, 76, 0
15, 40981, Note_on_c, 12, 64, 82
15, 40981, Note_on_c, 12, 72, 89
15, 41003, Note_on_c, 12, 76, 101
15, 41005, Note_on_c, 12, 64, 0
15, 41025, Note_on_c, 12, 72, 0
15, 41029, Note_on_c, 12, 76, 0
15, 41037, Note_on_c, 12, 64, 89
15, 41037, Note_on_c, 12, 72, 92
15, 41059, Note_on_c, 12, 64, 0
15, 41059, Note_on_c, 12, 76, 107
15, 41080, Note_on_c, 12, 72, 0
15, 41084, Note_on_c, 12, 76, 0
15, 41094, Note_on_c, 12, 72, 87
15, 41094, Note_on_c, 12, 64, 92
15, 41119, Note_on_c, 12, 76, 112
15, 41123, Note_on_c, 12, 64, 0
15, 41143, Note_on_c, 12, 72, 0
15, 41143, Note_on_c, 12, 76, 0
15, 41153, Note_on_c, 12, 72, 89
15, 41155, Note_on_c, 12, 64, 90
15, 41176, Note_on_c, 12, 76, 111
15, 41185, Note_on_c, 12, 64, 0
15, 41198, Note_on_c, 12, 72, 0
15, 41202, Note_on_c, 12, 76, 0
15, 41212, Note_on_c, 12, 64, 78
15, 41212, Note_on_c, 12, 72, 88
15, 41231, Note_on_c, 12, 76, 105
15, 41240, Note_on_c, 12, 64, 0
15, 41257, Note_on_c, 12, 72, 0
15, 41260, Note_on_c, 12, 76, 0
15, 41267, Note_on_c, 12, 64, 81
15, 41269, Note_on_c, 12, 72, 87
15, 41288, Note_on_c, 12, 76, 102
15, 41296, Note_on_c, 12, 64, 0
15, 41311, Note_on_c, 12, 72, 0
15, 41315, Note_on_c, 12, 76, 0
15, 41322, Note_on_c, 12, 64, 82
15, 41322, Note_on_c, 12, 72, 82
15, 41345, Note_on_c, 12, 76, 105
15, 41350, Note_on_c, 12, 64, 0
15, 41369, Note_on_c, 12, 72, 0
15, 41371, Note_on_c, 12, 76, 0
15, 41384, Note_on_c, 12, 72, 76
15, 41384, Note_on_c, 12, 64, 76
15, 41391, Note_on_c, 12, 62, 71
15, 41394, Note_on_c, 12, 62, 0
15, 41404, Note_on_c, 12, 76, 109
15, 41409, Note_on_c, 12, 64, 0
15, 41428, Note_on_c, 12, 72, 0
15, 41432, Note_on_c, 12, 76, 0
15, 41438, Note_on_c, 12, 72, 93
15, 41440, Note_on_c, 12, 64, 87
15, 41465, Note_on_c, 12, 76, 109
15, 41466, Note_on_c, 12, 64, 0
15, 41485, Note_on_c, 12, 72, 0
15, 41490, Note_on_c, 12, 76, 0
15, 41494, Note_on_c, 12, 72, 92
15, 41494, Note_on_c, 12, 64, 85
15, 41526, Note_on_c, 12, 76, 105
15, 41529, Note_on_c, 12, 64, 0
15, 41547, Note_on_c, 12, 72, 0
15, 41553, Note_on_c, 12, 76, 0
15, 41555, Note_on_c, 12, 72, 81
15, 41556, Note_on_c, 12, 64, 77
15, 41583, Note_on_c, 12, 72, 0
15, 41585, Note_on_c, 12, 64, 0
15, 41588, Note_on_c, 12, 76, 104
15, 41590, Note_on_c, 12, 72, 79
15, 41606, Note_on_c, 12, 72, 0
15, 41611, Note_on_c, 12, 76, 0
15, 41615, Note_on_c, 12, 72, 86
15, 41616, Note_on_c, 12, 64, 81
15, 41641, Note_on_c, 12, 72, 0
15, 41644, Note_on_c, 12, 64, 0
15, 41645, Note_on_c, 12, 76, 100
15, 41651, Note_on_c, 12, 72, 67
15, 41661, Note_on_c, 12, 72, 0
15, 41666, Note_on_c, 12, 76, 0
15, 41674, Note_on_c, 12, 72, 78
15, 41674, Note_on_c, 12, 64, 79
15, 41700, Note_on_c, 12, 72, 0
15, 41700, Note_on_c, 12, 64, 0
15, 41704, Note_on_c, 12, 76, 100
15, 41708, Note_on_c, 12, 72, 78
15, 41720, Note_on_c, 12, 72, 0
15, 41726, Note_on_c, 12, 76, 0
15, 41735, Note_on_c, 12, 72, 90
15, 41735, Note_on_c, 12, 64, 80
15, 41761, Note_on_c, 12, 72, 0
15, 41761, Note_on_c, 12, 64, 0
15, 41764, Note_on_c, 12, 76, 98
15, 41766, Note_on_c, 12, 72, 77
15, 41780, Note_on_c, 12, 72, 0
15, 41784, Note_on_c, 12, 76, 0
15, 41794, Note_on_c, 12, 72, 87
15, 41795, Note_on_c, 12, 64, 82
15, 41819, Note_on_c, 12, 72, 0
15, 41819, Note_on_c, 12, 64, 0
15, 41823, Note_on_c, 12, 76, 94
15, 41828, Note_on_c, 12, 72, 76
15, 41838, Note_on_c, 12, 72, 0
15, 41842, Note_on_c, 12, 76, 0
15, 41854, Note_on_c, 12, 64, 82
15, 41854, Note_on_c, 12, 72, 84
15, 41877, Note_on_c, 12, 72, 0
15, 41881, Note_on_c, 12, 76, 100
15, 41882, Note_on_c, 12, 64, 0
15, 41889, Note_on_c, 12, 72, 88
15, 41896, Note_on_c, 12, 72, 0
15, 41902, Note_on_c, 12, 76, 0
15, 41911, Note_on_c, 12, 64, 82
15, 41912, Note_on_c, 12, 72, 84
15, 41935, Note_on_c, 12, 76, 100
15, 41941, Note_on_c, 12, 64, 0
15, 41955, Note_on_c, 12, 72, 0
15, 41960, Note_on_c, 12, 76, 0
15, 41969, Note_on_c, 12, 64, 82
15, 41969, Note_on_c, 12, 72, 85
15, 41993, Note_on_c, 12, 76, 98
15, 42001, Note_on_c, 12, 64, 0
15, 42015, Note_on_c, 12, 72, 0
15, 42019, Note_on_c, 12, 76, 0
15, 42030, Note_on_c, 12, 64, 83
15, 42030, Note_on_c, 12, 72, 85
15, 42050, Note_on_c, 12, 76, 97
15, 42060, Note_on_c, 12, 64, 0
15, 42077, Note_on_c, 12, 72, 0
15, 42083, Note_on_c, 12, 76, 0
15, 42097, Note_on_c, 12, 72, 71
15, 42097, Note_on_c, 12, 64, 76
15, 42108, Note_on_c, 12, 76, 81
15, 42128, Note_on_c, 12, 64, 0
15, 42131, Note_on_c, 12, 72, 0
15, 42138, Note_on_c, 12, 76, 0
15, 42156, Note_on_c, 12, 64, 76
15, 42156, Note_on_c, 12, 72, 70
15, 42161, Note_on_c, 12, 76, 88
15, 42182, Note_on_c, 12, 64, 0
15, 42186, Note_on_c, 12, 72, 0
15, 42191, Note_on_c, 12, 76, 0
15, 42196, Control_c, 12, 64, 0
15, 42210, Note_on_c, 12, 72, 97
15, 42210, Note_on_c, 12, 76, 104
15, 42230, Note_on_c, 12, 72, 0
15, 42233, Control_c, 12, 64, 127
15, 42235, Note_on_c, 12, 64, 96
15, 42236, Note_on_c, 12, 76, 0
15, 42236, Note_on_c, 12, 72, 91
15, 42280, Note_on_c, 12, 64, 0
15, 42283, Note_on_c, 12, 72, 0
15, 42300, Note_on_c, 12, 31, 88
15, 42300, Note_on_c, 12, 43, 87
15, 42300, Note_on_c, 12, 71, 87
15, 42300, Note_on_c, 12, 74, 89
15, 42300, Note_on_c, 12, 83, 98
15, 42325, Control_c, 12, 64, 0
15, 42359, Note_on_c, 12, 31, 0
15, 42359, Note_on_c, 12, 43, 0
15, 42359, Note_on_c, 12, 71, 0
15, 42359, Note_on_c, 12, 74, 0
15, 42359, Note_on_c, 12, 83, 0
15, 42360, Note_on_c, 12, 48, 86
15, 42360, Note_on_c, 12, 36, 89
15, 42360, Note_on_c, 12, 72, 90
15, 42360, Note_on_c, 12, 76, 84
15, 42360, Note_on_c, 12, 84, 107
15, 42419, Note_on_c, 12, 48, 0
15, 42419, Note_on_c, 12, 36, 0
15, 42419, Note_on_c, 12, 72, 0
15, 42419, Note_on_c, 12, 76, 0
15, 42419, Note_on_c, 12, 84, 0
15, 42420, Note_on_c, 12, 31, 89
15, 42420, Note_on_c, 12, 43, 90
15, 42420, Note_on_c, 12, 74, 91
15, 42420, Note_on_c, 12, 71, 91
15, 42420, Note_on_c, 12, 83, 101
15, 42479, Note_on_c, 12, 31, 0
15, 42479, Note_on_c, 12, 43, 0
15, 42479, Note_on_c, 12, 74, 0
15, 42479, Note_on_c, 12, 71, 0
15, 42479, Note_on_c, 12, 83, 0
15, 42480, Note_on_c, 12, 48, 88
15, 42480, Note_on_c, 12, 36, 90
15, 42480, Note_on_c, 12, 72, 84
15, 42480, Note_on_c, 12, 76, 83
15, 42480, Note_on_c, 12, 84, 101
15, 42526, Control_c, 12, 64, 127
15, 42539, Note_on_c, 12, 48, 0
15, 42539, Note_on_c, 12, 36, 0
15, 42539, Note_on_c, 12, 72, 0
15, 42539, Note_on_c, 12, 76, 0
15, 42539, Note_on_c, 12, 84, 0
15, 42540, Note_on_c, 12, 31, 94
15, 42540, Note_on_c, 12, 43, 96
15, 42540, Note_on_c, 12, 71, 88
15, 42540, Note_on_c, 12, 74, 91
15, 42540, Note_on_c, 12, 83, 97
15, 42599, Note_on_c, 12, 31, 0
15, 42599, Note_on_c, 12, 43, 0
15, 42599, Note_on_c, 12, 71, 0
15, 42599, Note_on_c, 12, 74, 0
15, 42599, Note_on_c, 12, 83, 0
15, 42600, Note_on_c, 12, 48, 87
15, 42600, Note_on_c, 12, 36, 89
15, 42600, Note_on_c, 12, 76, 82
15, 42600, Note_on_c, 12, 72, 92
15, 42600, Note_on_c, 12, 84, 98
15, 42659, Note_on_c, 12, 48, 0
15, 42659, Note_on_c, 12, 36, 0
15, 42659, Note_on_c, 12, 76, 0
15, 42659, Note_on_c, 12, 72, 0
15, 42659, Note_on_c, 12, 84, 0
15, 42660, Note_on_c, 12, 43, 94
15, 42660, Note_on_c, 12, 31, 90
15, 42660, Note_on_c, 12, 71, 88
15, 42660, Note_on_c, 12, 83, 100
15, 42660, Note_on_c, 12, 74, 92
15, 42719, Note_on_c, 12, 43, 0
15, 42719, Note_on_c, 12, 31, 0
15, 42719, Note_on_c, 12, 71, 0
15, 42719, Note_on_c, 12, 83, 0
15, 42719, Note_on_c, 12, 74, 0
15, 42720, Note_on_c, 12, 48, 84
15, 42720, Note_on_c, 12, 36, 86
15, 42720, Note_on_c, 12, 76, 86
15, 42720, Note_on_c, 12, 84, 97
15, 42720, Note_on_c, 12, 72, 87
15, 42749, Control_c, 12, 64, 0
15, 42749, Control_c, 12, 64, 127
15, 42779, Note_on_c, 12, 48, 0
15, 42779, Note_on_c, 12, 36, 0
15, 42779, Note_on_c, 12, 76, 0
15, 42779, Note_on_c, 12, 84, 0
15, 42779, Note_on_c, 12, 72, 0
15, 42780, Note_on_c, 12, 31, 93
15, 42780, Note_on_c, 12, 43, 97
15, 42780, Note_on_c, 12, 74, 78
15, 42780, Note_on_c, 12, 71, 83
15, 42780, Note_on_c, 12, 83, 96
15, 42834, Control_c, 12, 64, 0
15, 42839, Note_on_c, 12, 31, 0
15, 42839, Note_on_c, 12, 43, 0
15, 42839, Note_on_c, 12, 74, 0
15, 42839, Note_on_c, 12, 71, 0
15, 42839, Note_on_c, 12, 83, 0
15, 42840, Note_on_c, 12, 36, 87
15, 42840, Note_on_c, 12, 48, 83
15, 42840, Note_on_c, 12, 76, 86
15, 42840, Note_on_c, 12, 72, 78
15, 42840, Note_on_c, 12, 84, 98
15, 42871, Control_c, 12, 64, 127
15, 42899, Note_on_c, 12, 36, 0
15, 42899, Note_on_c, 12, 48, 0
15, 42899, Note_on_c, 12, 76, 0
15, 42899, Note_on_c, 12, 72, 0
15, 42899, Note_on_c, 12, 84, 0
15, 42900, Note_on_c, 12, 43, 97
15, 42900, Note_on_c, 12, 31, 91
15, 42900, Note_on_c, 12, 71, 86
15, 42900, Note_on_c, 12, 83, 94
15, 42900, Note_on_c, 12, 74, 97
15, 42959, Note_on_c, 12, 43, 0
15, 42959, Note_on_c, 12, 31, 0
15, 42959, Note_on_c, 12, 71, 0
15, 42959, Note_on_c, 12, 83, 0
15, 42959, Note_on_c, 12, 74, 0
15, 42959, Control_c, 12, 64, 0
15, 42960, Note_on_c, 12, 36, 78
15, 42960, Note_on_c, 12, 48, 85
15, 42960, Note_on_c, 12, 76, 87
15, 42960, Note_on_c, 12, 72, 82
15, 42960, Note_on_c, 12, 84, 94
15, 42992, Control_c, 12, 64, 127
15, 43019, Note_on_c, 12, 36, 0
15, 43019, Note_on_c, 12, 48, 0
15, 43019, Note_on_c, 12, 76, 0
15, 43019, Note_on_c, 12, 72, 0
15, 43019, Note_on_c, 12, 84, 0
15, 43020, Note_on_c, 12, 31, 93
15, 43020, Note_on_c, 12, 43, 97
15, 43020, Note_on_c, 12, 83, 96
15, 43020, Note_on_c, 12, 71, 87
15, 43020, Note_on_c, 12, 74, 92
15, 43079, Note_on_c, 12, 31, 0
15, 43079, Note_on_c, 12, 43, 0
15, 43079, Note_on_c, 12, 83, 0
15, 43079, Note_on_c, 12, 71, 0
15, 43079, Note_on_c, 12, 74, 0
15, 43080, Note_on_c, 12, 48, 85
15, 43080, Note_on_c, 12, 36, 88
15, 43080, Note_on_c, 12, 76, 78
15, 43080, Note_on_c, 12, 72, 82
15, 43080, Note_on_c, 12, 84, 96
15, 43139, Note_on_c, 12, 48, 0
15, 43139, Note_on_c, 12, 36, 0
15, 43139, Note_on_c, 12, 76, 0
15, 43139, Note_on_c, 12, 72, 0
15, 43139, Note_on_c, 12, 84, 0
15, 43140, Note_on_c, 12, 31, 94
15, 43140, Note_on_c, 12, 43, 96
15, 43140, Note_on_c, 12, 74, 91
15, 43140, Note_on_c, 12, 71, 86
15, 43140, Note_on_c, 12, 83, 94
15, 43186, Control_c, 12, 64, 0
15, 43199, Note_on_c, 12, 31, 0
15, 43199, Note_on_c, 12, 43, 0
15, 43199, Note_on_c, 12, 74, 0
15, 43199, Note_on_c, 12, 71, 0
15, 43199, Note_on_c, 12, 83, 0
15, 43200, Note_on_c, 12, 36, 90
15, 43200, Note_on_c, 12, 48, 100
15, 43200, Note_on_c, 12, 72, 100
15, 43200, Note_on_c, 12, 76, 107
15, 43200, Note_on_c, 12, 84, 98
15, 43230, Control_c, 12, 64, 127
15, 43319, Note_on_c, 12, 36, 0
15, 43319, Note_on_c, 12, 48, 0
15, 43319, Note_on_c, 12, 72, 0
15, 43319, Note_on_c, 12, 76, 0
15, 43319, Note_on_c, 12, 84, 0
15, 43319, Control_c, 12, 64, 0
15, 43440, Note_on_c, 12, 36, 94
15, 43440, Note_on_c, 12, 43, 87
15, 43440, Note_on_c, 12, 48, 88
15, 43440, Note_on_c, 12, 84, 93
15, 43440, Note_on_c, 12, 76, 109
15, 43440, Note_on_c, 12, 72, 98
15, 43474, Control_c, 12, 64, 127
15, 43474, Control_c, 12, 64, 0
15, 43474, Control_c, 12, 64, 127
15, 43559, Note_on_c, 12, 36, 0
15, 43559, Note_on_c, 12, 43, 0
15, 43559, Note_on_c, 12, 48, 0
15, 43559, Note_on_c, 12, 84, 0
15, 43559, Note_on_c, 12, 76, 0
15, 43559, Note_on_c, 12, 72, 0
15, 43571, Control_c, 12, 64, 0
15, 43680, Note_on_c, 12, 28, 92
15, 43680, Note_on_c, 12, 24, 92
15, 43680, Note_on_c, 12, 55, 100
15, 43680, Note_on_c, 12, 48, 100
15, 43680, Note_on_c, 12, 52, 104
15, 43680, Note_on_c, 12, 60, 88
15, 43718, Control_c, 12, 64, 127
15, 43718, Control_c, 12, 64, 0
15, 43718, Control_c, 12, 64, 127
15, 43799, Note_on_c, 12, 28, 0
15, 43799, Note_on_c, 12, 24, 0
15, 43799, Note_on_c, 12, 55, 0
15, 43799, Note_on_c, 12, 48, 0
15, 43799, Note_on_c, 12, 52, 0
15, 43799, Note_on_c, 12, 60, 0
15, 43823, Control_c, 12, 64, 0
15, 43823, End_track
16, 0, Start_track
16, 0, Title_t, "Extra Piano    "
16, 0, Channel_prefix, 12
16, 1445, Note_on_c, 12, 67, 82
16, 1446, Note_on_c, 12, 55, 87
16, 1447, Note_on_c, 12, 62, 97
16, 1475, Note_on_c, 12, 67, 0
16, 1477, Note_on_c, 12, 62, 0
16, 1481, Note_on_c, 12, 74, 96
16, 1481, Note_on_c, 12, 69, 94
16, 1482, Note_on_c, 12, 81, 79
16, 1483, Note_on_c, 12, 55, 0
16, 1499, Note_on_c, 12, 55, 81
16, 1499, Note_on_c, 12, 67, 79
16, 1505, Note_on_c, 12, 69, 0
16, 1505, Note_on_c, 12, 62, 84
16, 1510, Note_on_c, 12, 74, 0
16, 1514, Note_on_c, 12, 81, 0
16, 1525, Note_on_c, 12, 67, 0
16, 1527, Note_on_c, 12, 62, 0
16, 1533, Note_on_c, 12, 55, 0
16, 1537, Note_on_c, 12, 81, 80
16, 1537, Note_on_c, 12, 74, 90
16, 1538, Note_on_c, 12, 69, 86
16, 1555, Note_on_c, 12, 67, 81
16, 1555, Note_on_c, 12, 62, 84
16, 1556, Note_on_c, 12, 55, 81
16, 1563, Note_on_c, 12, 74, 0
16, 1563, Note_on_c, 12, 69, 0
16, 1568, Note_on_c, 12, 81, 0
16, 1580, Note_on_c, 12, 67, 0
16, 1581, Note_on_c, 12, 62, 0
16, 1586, Note_on_c, 12, 55, 0
16, 1591, Note_on_c, 12, 74, 91
16, 1591, Note_on_c, 12, 81, 79
16, 1592, Note_on_c, 12, 69, 87
16, 1610, Note_on_c, 12, 55, 78
16, 1610, Note_on_c, 12, 67, 81
16, 1611, Note_on_c, 12, 62, 86
16, 1618, Note_on_c, 12, 74, 0
16, 1618, Note_on_c, 12, 69, 0
16, 1620, Note_on_c, 12, 81, 0
16, 1635, Note_on_c, 12, 67, 0
16, 1635, Note_on_c, 12, 62, 0
16, 1641, Note_on_c, 12, 55, 0
16, 1654, Note_on_c, 12, 81, 82
16, 1654, Note_on_c, 12, 74, 94
16, 1655, Note_on_c, 12, 69, 89
16, 1669, Note_on_c, 12, 67, 82
16, 1670, Note_on_c, 12, 69, 0
16, 1670, Note_on_c, 12, 55, 74
16, 1671, Note_on_c, 12, 62, 80
16, 1680, Note_on_c, 12, 81, 0
16, 1680, Note_on_c, 12, 74, 0
16, 1695, Note_on_c, 12, 67, 0
16, 1695, Note_on_c, 12, 62, 0
16, 1699, Note_on_c, 12, 55, 0
16, 1703, Note_on_c, 12, 81, 82
16, 1704, Note_on_c, 12, 74, 96
16, 1704, Note_on_c, 12, 69, 88
16, 1724, Note_on_c, 12, 55, 78
16, 1725, Note_on_c, 12, 67, 81
16, 1725, Note_on_c, 12, 62, 80
16, 1733, Note_on_c, 12, 74, 0
16, 1733, Note_on_c, 12, 69, 0
16, 1736, Note_on_c, 12, 81, 0
16, 1753, Note_on_c, 12, 67, 0
16, 1754, Note_on_c, 12, 62, 0
16, 1757, Note_on_c, 12, 55, 0
16, 1761, Note_on_c, 12, 81, 85
16, 1761, Note_on_c, 12, 69, 87
16, 1762, Note_on_c, 12, 74, 94
16, 1782, Note_on_c, 12, 69, 0
16, 1784, Note_on_c, 12, 74, 0
16, 1786, Note_on_c, 12, 67, 81
16, 1789, Note_on_c, 12, 55, 75
16, 1790, Note_on_c, 12, 62, 78
16, 1803, Note_on_c, 12, 81, 0
16, 1811, Note_on_c, 12, 67, 0
16, 1811, Note_on_c, 12, 62, 0
16, 1822, Note_on_c, 12, 55, 0
16, 1822, Note_on_c, 12, 81, 82
16, 1823, Note_on_c, 12, 74, 93
16, 1824, Note_on_c, 12, 69, 84
16, 1839, Note_on_c, 12, 69, 0
16, 1841, Note_on_c, 12, 74, 0
16, 1841, Note_on_c, 12, 67, 77
16, 1842, Note_on_c, 12, 55, 76
16, 1856, Note_on_c, 12, 81, 0
16, 1856, Note_on_c, 12, 62, 76
16, 1866, Note_on_c, 12, 67, 0
16, 1867, Note_on_c, 12, 62, 0
16, 1878, Note_on_c, 12, 81, 82
16, 1878, Note_on_c, 12, 74, 92
16, 1879, Note_on_c, 12, 55, 0
16, 1879, Note_on_c, 12, 69, 84
16, 1896, Note_on_c, 12, 69, 0
16, 1901, Note_on_c, 12, 74, 0
16, 1901, Note_on_c, 12, 67, 78
16, 1901, Note_on_c, 12, 55, 76
16, 1914, Note_on_c, 12, 62, 74
16, 1915, Note_on_c, 12, 81, 0
16, 1926, Note_on_c, 12, 67, 0
16, 1927, Note_on_c, 12, 62, 0
16, 1937, Note_on_c, 12, 55, 0
16, 1937, Note_on_c, 12, 81, 79
16, 1938, Note_on_c, 12, 74, 98
16, 1938, Note_on_c, 12, 69, 88
16, 1958, Note_on_c, 12, 69, 0
16, 1966, Note_on_c, 12, 74, 0
16, 1966, Note_on_c, 12, 67, 74
16, 1966, Note_on_c, 12, 55, 73
16, 1967, Note_on_c, 12, 81, 0
16, 1967, Note_on_c, 12, 62, 73
16, 1985, Note_on_c, 12, 67, 0
16, 1985, Note_on_c, 12, 62, 0
16, 1994, Note_on_c, 12, 55, 0
16, 1995, Note_on_c, 12, 81, 78
16, 1995, Note_on_c, 12, 74, 89
16, 1996, Note_on_c, 12, 69, 81
16, 2019, Note_on_c, 12, 74, 0
16, 2019, Note_on_c, 12, 69, 0
16, 2019, Note_on_c, 12, 67, 79
16, 2021, Note_on_c, 12, 55, 77
16, 2021, Note_on_c, 12, 62, 78
16, 2034, Note_on_c, 12, 81, 0
16, 2044, Note_on_c, 12, 67, 0
16, 2045, Note_on_c, 12, 62, 0
16, 2049, Note_on_c, 12, 55, 0
16, 2052, Note_on_c, 12, 69, 76
16, 2052, Note_on_c, 12, 74, 84
16, 2053, Note_on_c, 12, 81, 78
16, 2076, Note_on_c, 12, 74, 0
16, 2076, Note_on_c, 12, 81, 0
16, 2079, Note_on_c, 12, 69, 0
16, 2079, Note_on_c, 12, 67, 76
16, 2079, Note_on_c, 12, 55, 74
16, 2080, Note_on_c, 12, 62, 74
16, 2102, Note_on_c, 12, 62, 0
16, 2104, Note_on_c, 12, 67, 0
16, 2106, Note_on_c, 12, 55, 0
16, 2112, Note_on_c, 12, 69, 82
16, 2113, Note_on_c, 12, 74, 88
16, 2113, Note_on_c, 12, 81, 79
16, 2135, Note_on_c, 12, 69, 0
16, 2137, Note_on_c, 12, 74, 0
16, 2137, Note_on_c, 12, 67, 78
16, 2138, Note_on_c, 12, 55, 76
16, 2152, Note_on_c, 12, 81, 0
16, 2152, Note_on_c, 12, 62, 74
16, 2162, Note_on_c, 12, 67, 0
16, 2164, Note_on_c, 12, 62, 0
16, 2173, Note_on_c, 12, 55, 0
16, 2174, Note_on_c, 12, 81, 82
16, 2174, Note_on_c, 12, 74, 87
16, 2175, Note_on_c, 12, 69, 78
16, 2192, Note_on_c, 12, 69, 0
16, 2196, Note_on_c, 12, 74, 0
16, 2200, Note_on_c, 12, 55, 71
16, 2201, Note_on_c, 12, 67, 75
16, 2201, Note_on_c, 12, 62, 74
16, 2213, Note_on_c, 12, 81, 0
16, 2222, Note_on_c, 12, 67, 0
16, 2230, Note_on_c, 12, 62, 0
16, 2231, Note_on_c, 12, 55, 0
16, 2231, Note_on_c, 12, 69, 81
16, 2232, Note_on_c, 12, 81, 86
16, 2232, Note_on_c, 12, 74, 96
16, 2250, Note_on_c, 12, 55, 73
16, 2250, Note_on_c, 12, 67, 73
16, 2264, Note_on_c, 12, 69, 0
16, 2264, Note_on_c, 12, 74, 0
16, 2264, Note_on_c, 12, 62, 77
16, 2265, Note_on_c, 12, 81, 0
16, 2277, Note_on_c, 12, 67, 0
16, 2278, Note_on_c, 12, 62, 0
16, 2288, Note_on_c, 12, 55, 0
16, 2288, Note_on_c, 12, 69, 77
16, 2288, Note_on_c, 12, 74, 84
16, 2289, Note_on_c, 12, 81, 78
16, 2307, Note_on_c, 12, 69, 0
16, 2314, Note_on_c, 12, 74, 0
16, 2314, Note_on_c, 12, 55, 76
16, 2315, Note_on_c, 12, 81, 0
16, 2315, Note_on_c, 12, 67, 76
16, 2315, Note_on_c, 12, 62, 76
16, 2336, Note_on_c, 12, 67, 0
16, 2337, Note_on_c, 12, 62, 0
16, 2346, Note_on_c, 12, 55, 0
16, 2346, Note_on_c, 12, 81, 82
16, 2346, Note_on_c, 12, 69, 86
16, 2346, Note_on_c, 12, 74, 96
16, 2364, Note_on_c, 12, 69, 0
16, 2366, Note_on_c, 12, 74, 0
16, 2374, Note_on_c, 12, 67, 76
16, 2374, Note_on_c, 12, 55, 73
16, 2375, Note_on_c, 12, 81, 0
16, 2375, Note_on_c, 12, 62, 71
16, 2400, Note_on_c, 12, 62, 0
16, 2401, Note_on_c, 12, 67, 0
16, 2403, Note_on_c, 12, 81, 80
16, 2403, Note_on_c, 12, 74, 91
16, 2404, Note_on_c, 12, 69, 78
16, 2413, Note_on_c, 12, 55, 0
16, 2426, Note_on_c, 12, 69, 0
16, 2427, Note_on_c, 12, 74, 0
16, 2427, Note_on_c, 12, 55, 71
16, 2439, Note_on_c, 12, 81, 0
16, 2439, Note_on_c, 12, 62, 74
16, 2440, Note_on_c, 12, 67, 61
16, 2454, Note_on_c, 12, 67, 0
16, 2458, Note_on_c, 12, 62, 0
16, 2460, Note_on_c, 12, 81, 80
16, 2460, Note_on_c, 12, 74, 89
16, 2460, Note_on_c, 12, 69, 82
16, 2472, Note_on_c, 12, 55, 0
16, 2488, Note_on_c, 12, 69, 0
16, 2489, Note_on_c, 12, 74, 0
16, 2489, Note_on_c, 12, 55, 66
16, 2489, Note_on_c, 12, 62, 82
16, 2498, Note_on_c, 12, 67, 65
16, 2499, Note_on_c, 12, 81, 0
16, 2518, Note_on_c, 12, 67, 0
16, 2519, Note_on_c, 12, 62, 0
16, 2520, Note_on_c, 12, 81, 78
16, 2520, Note_on_c, 12, 74, 86
16, 2520, Note_on_c, 12, 69, 78
16, 2532, Note_on_c, 12, 55, 0
16, 2543, Note_on_c, 12, 69, 0
16, 2547, Note_on_c, 12, 74, 0
16, 2550, Note_on_c, 12, 55, 74
16, 2550, Note_on_c, 12, 67, 76
16, 2550, Note_on_c, 12, 62, 82
16, 2571, Note_on_c, 12, 81, 0
16, 2579, Note_on_c, 12, 67, 0
16, 2579, Note_on_c, 12, 62, 0
16, 2579, Note_on_c, 12, 81, 76
16, 2580, Note_on_c, 12, 74, 87
16, 2580, Note_on_c, 12, 69, 78
16, 2601, Note_on_c, 12, 55, 0
16, 2603, Note_on_c, 12, 69, 0
16, 2608, Note_on_c, 12, 74, 0
16, 2608, Note_on_c, 12, 55, 71
16, 2608, Note_on_c, 12, 67, 76
16, 2626, Note_on_c, 12, 81, 0
16, 2626, Note_on_c, 12, 62, 81
16, 2636, Note_on_c, 12, 67, 0
16, 2636, Note_on_c, 12, 62, 0
16, 2647, Note_on_c, 12, 81, 76
16, 2647, Note_on_c, 12, 74, 91
16, 2647, Note_on_c, 12, 69, 81
16, 2649, Note_on_c, 12, 55, 0
16, 2664, Note_on_c, 12, 69, 0
16, 2667, Note_on_c, 12, 74, 0
16, 2667, Note_on_c, 12, 55, 69
16, 2668, Note_on_c, 12, 67, 78
16, 2687, Note_on_c, 12, 62, 77
16, 2688, Note_on_c, 12, 81, 0
16, 2695, Note_on_c, 12, 62, 0
16, 2697, Note_on_c, 12, 67, 0
16, 2703, Note_on_c, 12, 81, 77
16, 2703, Note_on_c, 12, 74, 86
16, 2703, Note_on_c, 12, 69, 76
16, 2704, Note_on_c, 12, 55, 0
16, 2725, Note_on_c, 12, 69, 0
16, 2729, Note_on_c, 12, 74, 0
16, 2729, Note_on_c, 12, 67, 77
16, 2729, Note_on_c, 12, 55, 74
16, 2729, Note_on_c, 12, 62, 76
16, 2752, Note_on_c, 12, 81, 0
16, 2755, Note_on_c, 12, 62, 0
16, 2758, Note_on_c, 12, 67, 0
16, 2758, Note_on_c, 12, 81, 72
16, 2758, Note_on_c, 12, 74, 89
16, 2758, Note_on_c, 12, 69, 78
16, 2784, Note_on_c, 12, 55, 0
16, 2784, Note_on_c, 12, 69, 0
16, 2787, Note_on_c, 12, 55, 76
16, 2787, Note_on_c, 12, 67, 82
16, 2804, Note_on_c, 12, 74, 0
16, 2805, Note_on_c, 12, 81, 0
16, 2805, Note_on_c, 12, 62, 78
16, 2816, Note_on_c, 12, 62, 0
16, 2817, Note_on_c, 12, 81, 76
16, 2818, Note_on_c, 12, 67, 0
16, 2818, Note_on_c, 12, 69, 81
16, 2819, Note_on_c, 12, 74, 89
16, 2839, Note_on_c, 12, 55, 0
16, 2843, Note_on_c, 12, 69, 0
16, 2856, Note_on_c, 12, 74, 0
16, 2856, Note_on_c, 12, 55, 72
16, 2856, Note_on_c, 12, 67, 81
16, 2856, Note_on_c, 12, 62, 78
16, 2858, Note_on_c, 12, 81, 0
16, 2876, Note_on_c, 12, 67, 0
16, 2876, Note_on_c, 12, 62, 0
16, 2876, Note_on_c, 12, 81, 78
16, 2876, Note_on_c, 12, 74, 92
16, 2877, Note_on_c, 12, 69, 82
16, 2917, Note_on_c, 12, 55, 0
16, 2917, Note_on_c, 12, 74, 0
16, 2917, Note_on_c, 12, 69, 0
16, 2918, Note_on_c, 12, 55, 76
16, 2919, Note_on_c, 12, 67, 93
16, 2919, Note_on_c, 12, 62, 82
16, 2920, Note_on_c, 12, 81, 0
16, 2937, Note_on_c, 12, 62, 0
16, 2946, Note_on_c, 12, 67, 0
16, 2947, Note_on_c, 12, 81, 82
16, 2947, Note_on_c, 12, 74, 93
16, 2947, Note_on_c, 12, 69, 85
16, 2948, Note_on_c, 12, 55, 0
16, 2962, Note_on_c, 12, 69, 0
16, 2972, Note_on_c, 12, 74, 0
16, 2972, Note_on_c, 12, 67, 82
16, 2972, Note_on_c, 12, 55, 77
16, 2972, Note_on_c, 12, 62, 79
16, 2983, Note_on_c, 12, 81, 0
16, 2996, Note_on_c, 12, 67, 0
16, 2997, Note_on_c, 12, 62, 0
16, 3006, Note_on_c, 12, 81, 79
16, 3007, Note_on_c, 12, 74, 97
16, 3007, Note_on_c, 12, 69, 87
16, 3008, Note_on_c, 12, 55, 0
16, 3030, Note_on_c, 12, 69, 0
16, 3031, Note_on_c, 12, 74, 0
16, 3031, Note_on_c, 12, 67, 82
16, 3032, Note_on_c, 12, 55, 82
16, 3042, Note_on_c, 12, 62, 78
16, 3043, Note_on_c, 12, 81, 0
16, 3066, Note_on_c, 12, 67, 0
16, 3066, Note_on_c, 12, 62, 0
16, 3067, Note_on_c, 12, 81, 81
16, 3067, Note_on_c, 12, 74, 90
16, 3068, Note_on_c, 12, 69, 82
16, 3069, Note_on_c, 12, 55, 0
16, 3089, Note_on_c, 12, 69, 0
16, 3095, Note_on_c, 12, 74, 0
16, 3095, Note_on_c, 12, 55, 74
16, 3096, Note_on_c, 12, 67, 78
16, 3101, Note_on_c, 12, 62, 74
16, 3102, Note_on_c, 12, 81, 0
16, 3129, Note_on_c, 12, 67, 0
16, 3129, Note_on_c, 12, 62, 0
16, 3130, Note_on_c, 12, 55, 0
16, 3130, Note_on_c, 12, 81, 80
16, 3131, Note_on_c, 12, 74, 87
16, 3131, Note_on_c, 12, 69, 79
16, 3153, Note_on_c, 12, 74, 0
16, 3153, Note_on_c, 12, 69, 0
16, 3157, Note_on_c, 12, 67, 82
16, 3157, Note_on_c, 12, 55, 78
16, 3157, Note_on_c, 12, 62, 74
16, 3166, Note_on_c, 12, 81, 0
16, 3186, Note_on_c, 12, 67, 0
16, 3186, Note_on_c, 12, 62, 0
16, 3189, Note_on_c, 12, 81, 74
16, 3189, Note_on_c, 12, 74, 89
16, 3189, Note_on_c, 12, 69, 82
16, 3190, Note_on_c, 12, 55, 0
16, 3214, Note_on_c, 12, 69, 0
16, 3214, Note_on_c, 12, 55, 74
16, 3215, Note_on_c, 12, 74, 0
16, 3215, Note_on_c, 12, 67, 78
16, 3222, Note_on_c, 12, 62, 81
16, 3230, Note_on_c, 12, 81, 0
16, 3253, Note_on_c, 12, 67, 0
16, 3253, Note_on_c, 12, 62, 0
16, 3253, Note_on_c, 12, 81, 75
16, 3254, Note_on_c, 12, 74, 87
16, 3254, Note_on_c, 12, 69, 78
16, 3255, Note_on_c, 12, 55, 0
16, 3277, Note_on_c, 12, 69, 0
16, 3278, Note_on_c, 12, 74, 0
16, 3278, Note_on_c, 12, 67, 83
16, 3279, Note_on_c, 12, 55, 80
16, 3279, Note_on_c, 12, 62, 76
16, 3291, Note_on_c, 12, 81, 0
16, 3308, Note_on_c, 12, 67, 0
16, 3308, Note_on_c, 12, 62, 0
16, 3309, Note_on_c, 12, 81, 78
16, 3309, Note_on_c, 12, 74, 89
16, 3309, Note_on_c, 12, 69, 78
16, 3320, Note_on_c, 12, 55, 0
16, 3335, Note_on_c, 12, 69, 0
16, 3335, Note_on_c, 12, 55, 74
16, 3339, Note_on_c, 12, 74, 0
16, 3339, Note_on_c, 12, 67, 78
16, 3340, Note_on_c, 12, 62, 80
16, 3348, Note_on_c, 12, 81, 0
16, 3368, Note_on_c, 12, 67, 0
16, 3369, Note_on_c, 12, 62, 0
16, 3376, Note_on_c, 12, 81, 82
16, 3376, Note_on_c, 12, 74, 92
16, 3377, Note_on_c, 12, 55, 0
16, 3378, Note_on_c, 12, 69, 83
16, 3400, Note_on_c, 12, 69, 0
16, 3400, Note_on_c, 12, 55, 77
16, 3401, Note_on_c, 12, 74, 0
16, 3401, Note_on_c, 12, 67, 82
16, 3402, Note_on_c, 12, 62, 81
16, 3413, Note_on_c, 12, 81, 0
16, 3431, Note_on_c, 12, 67, 0
16, 3431, Note_on_c, 12, 62, 0
16, 3432, Note_on_c, 12, 81, 82
16, 3432, Note_on_c, 12, 74, 92
16, 3433, Note_on_c, 12, 69, 83
16, 3444, Note_on_c, 12, 55, 0
16, 3461, Note_on_c, 12, 74, 0
16, 3461, Note_on_c, 12, 69, 0
16, 3462, Note_on_c, 12, 67, 82
16, 3462, Note_on_c, 12, 55, 76
16, 3463, Note_on_c, 12, 62, 82
16, 3473, Note_on_c, 12, 81, 0
16, 3493, Note_on_c, 12, 67, 0
16, 3496, Note_on_c, 12, 62, 0
16, 3496, Note_on_c, 12, 81, 76
16, 3497, Note_on_c, 12, 74, 91
16, 3497, Note_on_c, 12, 69, 83
16, 3507, Note_on_c, 12, 55, 0
16, 3523, Note_on_c, 12, 69, 0
16, 3528, Note_on_c, 12, 74, 0
16, 3528, Note_on_c, 12, 55, 74
16, 3529, Note_on_c, 12, 81, 0
16, 3529, Note_on_c, 12, 67, 82
16, 3530, Note_on_c, 12, 62, 77
16, 3559, Note_on_c, 12, 67, 0
16, 3559, Note_on_c, 12, 81, 78
16, 3560, Note_on_c, 12, 62, 0
16, 3560, Note_on_c, 12, 74, 90
16, 3560, Note_on_c, 12, 69, 79
16, 3570, Note_on_c, 12, 55, 0
16, 3586, Note_on_c, 12, 69, 0
16, 3586, Note_on_c, 12, 55, 78
16, 3586, Note_on_c, 12, 67, 84
16, 3593, Note_on_c, 12, 74, 0
16, 3593, Note_on_c, 12, 62, 82
16, 3598, Note_on_c, 12, 81, 0
16, 3622, Note_on_c, 12, 67, 0
16, 3622, Note_on_c, 12, 81, 83
16, 3623, Note_on_c, 12, 62, 0
16, 3623, Note_on_c, 12, 74, 92
16, 3624, Note_on_c, 12, 69, 82
16, 3646, Note_on_c, 12, 55, 0
16, 3648, Note_on_c, 12, 69, 0
16, 3653, Note_on_c, 12, 74, 0
16, 3653, Note_on_c, 12, 67, 82
16, 3653, Note_on_c, 12, 55, 60
16, 3667, Note_on_c, 12, 62, 78
16, 3668, Note_on_c, 12, 81, 0
16, 3683, Note_on_c, 12, 62, 0
16, 3685, Note_on_c, 12, 67, 0
16, 3687, Note_on_c, 12, 74, 91
16, 3687, Note_on_c, 12, 81, 78
16, 3687, Note_on_c, 12, 69, 82
16, 3688, Note_on_c, 12, 55, 0
16, 3712, Note_on_c, 12, 69, 0
16, 3714, Note_on_c, 12, 67, 78
16, 3716, Note_on_c, 12, 74, 0
16, 3716, Note_on_c, 12, 55, 56
16, 3716, Note_on_c, 12, 62, 82
16, 3742, Note_on_c, 12, 81, 0
16, 3744, Note_on_c, 12, 67, 0
16, 3744, Note_on_c, 12, 62, 0
16, 3758, Note_on_c, 12, 81, 78
16, 3758, Note_on_c, 12, 74, 88
16, 3758, Note_on_c, 12, 69, 78
16, 3759, Note_on_c, 12, 55, 0
16, 3774, Note_on_c, 12, 69, 0
16, 3775, Note_on_c, 12, 67, 80
16, 3775, Note_on_c, 12, 55, 74
16, 3793, Note_on_c, 12, 62, 78
16, 3794, Note_on_c, 12, 81, 0
16, 3794, Note_on_c, 12, 74, 0
16, 3812, Note_on_c, 12, 62, 0
16, 3813, Note_on_c, 12, 67, 0
16, 3813, Note_on_c, 12, 81, 70
16, 3814, Note_on_c, 12, 55, 0
16, 3814, Note_on_c, 12, 74, 94
16, 3815, Note_on_c, 12, 69, 82
16, 3837, Note_on_c, 12, 55, 69
16, 3838, Note_on_c, 12, 69, 0
16, 3838, Note_on_c, 12, 67, 76
16, 3839, Note_on_c, 12, 74, 0
16, 3863, Note_on_c, 12, 81, 0
16, 3863, Note_on_c, 12, 62, 72
16, 3879, Note_on_c, 12, 62, 0
16, 3880, Note_on_c, 12, 81, 74
16, 3880, Note_on_c, 12, 74, 90
16, 3881, Note_on_c, 12, 67, 0
16, 3881, Note_on_c, 12, 69, 84
16, 3882, Note_on_c, 12, 55, 0
16, 3899, Note_on_c, 12, 69, 0
16, 3907, Note_on_c, 12, 55, 76
16, 3907, Note_on_c, 12, 67, 81
16, 3908, Note_on_c, 12, 74, 0
16, 3909, Note_on_c, 12, 62, 82
16, 3916, Note_on_c, 12, 81, 0
16, 3936, Note_on_c, 12, 81, 74
16, 3936, Note_on_c, 12, 74, 92
16, 3936, Note_on_c, 12, 69, 78
16, 3937, Note_on_c, 12, 62, 0
16, 3938, Note_on_c, 12, 67, 0
16, 3949, Note_on_c, 12, 55, 0
16, 3966, Note_on_c, 12, 69, 0
16, 3969, Note_on_c, 12, 74, 0
16, 3969, Note_on_c, 12, 55, 74
16, 3970, Note_on_c, 12, 67, 83
16, 3970, Note_on_c, 12, 62, 88
16, 3980, Note_on_c, 12, 81, 0
16, 3999, Note_on_c, 12, 81, 74
16, 4002, Note_on_c, 12, 74, 90
16, 4003, Note_on_c, 12, 62, 0
16, 4003, Note_on_c, 12, 69, 82
16, 4004, Note_on_c, 12, 55, 0
16, 4004, Note_on_c, 12, 67, 0
16, 4027, Note_on_c, 12, 69, 0
16, 4032, Note_on_c, 12, 74, 0
16, 4034, Note_on_c, 12, 67, 76
16, 4034, Note_on_c, 12, 55, 69
16, 4041, Note_on_c, 12, 62, 76
16, 4042, Note_on_c, 12, 81, 0
16, 4063, Note_on_c, 12, 81, 68
16, 4068, Note_on_c, 12, 74, 86
16, 4069, Note_on_c, 12, 62, 0
16, 4069, Note_on_c, 12, 69, 76
16, 4070, Note_on_c, 12, 67, 0
16, 4076, Note_on_c, 12, 55, 0
16, 4094, Note_on_c, 12, 69, 0
16, 4096, Note_on_c, 12, 74, 0
16, 4097, Note_on_c, 12, 55, 76
16, 4101, Note_on_c, 12, 67, 76
16, 4101, Note_on_c, 12, 62, 80
16, 4109, Note_on_c, 12, 81, 0
16, 4123, Note_on_c, 12, 81, 74
16, 4127, Note_on_c, 12, 74, 88
16, 4127, Note_on_c, 12, 69, 76
16, 4134, Note_on_c, 12, 67, 0
16, 4134, Note_on_c, 12, 62, 0
16, 4137, Note_on_c, 12, 55, 0
16, 4152, Note_on_c, 12, 69, 0
16, 4156, Note_on_c, 12, 74, 0
16, 4158, Note_on_c, 12, 55, 72
16, 4160, Note_on_c, 12, 67, 77
16, 4161, Note_on_c, 12, 62, 81
16, 4177, Note_on_c, 12, 81, 0
16, 4187, Note_on_c, 12, 81, 79
16, 4187, Note_on_c, 12, 74, 90
16, 4194, Note_on_c, 12, 62, 0
16, 4194, Note_on_c, 12, 69, 78
16, 4195, Note_on_c, 12, 55, 0
16, 4195, Note_on_c, 12, 67, 0
16, 4216, Note_on_c, 12, 69, 0
16, 4221, Note_on_c, 12, 74, 0
16, 4221, Note_on_c, 12, 55, 76
16, 4221, Note_on_c, 12, 67, 82
16, 4239, Note_on_c, 12, 81, 0
16, 4239, Note_on_c, 12, 62, 78
16, 4247, Note_on_c, 12, 81, 86
16, 4247, Note_on_c, 12, 74, 94
16, 4248, Note_on_c, 12, 69, 84
16, 4257, Note_on_c, 12, 55, 0
16, 4257, Note_on_c, 12, 67, 0
16, 4257, Note_on_c, 12, 62, 0
16, 4274, Note_on_c, 12, 69, 0
16, 4284, Note_on_c, 12, 74, 0
16, 4293, Note_on_c, 12, 69, 76
16, 4295, Note_on_c, 12, 74, 84
16, 4302, Note_on_c, 12, 67, 71
16, 4310, Note_on_c, 12, 62, 75
16, 4310, Note_on_c, 12, 55, 51
16, 4320, Note_on_c, 7, 55, 96
16, 4320, Note_on_c, 7, 67, 100
16, 4320, Note_on_c, 7, 62, 101
16, 4347, Note_on_c, 12, 62, 0
16, 4347, Note_on_c, 12, 55, 0
16, 4348, Note_on_c, 12, 69, 0
16, 4348, Note_on_c, 12, 74, 0
16, 4348, Note_on_c, 12, 67, 0
16, 4349, Note_on_c, 12, 81, 0
16, 4350, Note_on_c, 12, 55, 102
16, 4350, Note_on_c, 12, 67, 116
16, 4351, Note_on_c, 12, 62, 121
16, 4351, Note_on_c, 12, 60, 94
16, 4369, Note_on_c, 7, 62, 0
16, 4370, Note_on_c, 7, 67, 0
16, 4371, Note_on_c, 7, 55, 0
16, 4373, Note_on_c, 12, 60, 0
16, 4392, Note_on_c, 12, 67, 0
16, 4397, Note_on_c, 12, 55, 0
16, 4397, Note_on_c, 12, 62, 0
16, 4449, Note_on_c, 12, 43, 51
16, 4460, Note_on_c, 12, 43, 0
16, 4461, Note_on_c, 12, 45, 76
16, 4471, Note_on_c, 12, 45, 0
16, 4471, Note_on_c, 12, 47, 75
16, 4480, Note_on_c, 12, 47, 0
16, 4480, Note_on_c, 12, 48, 81
16, 4487, Note_on_c, 12, 48, 0
16, 4487, Note_on_c, 12, 50, 80
16, 4494, Note_on_c, 12, 50, 0
16, 4495, Note_on_c, 12, 52, 81
16, 4502, Note_on_c, 12, 52, 0
16, 4502, Note_on_c, 12, 53, 79
16, 4510, Note_on_c, 12, 53, 0
16, 4510, Note_on_c, 12, 55, 76
16, 4518, Note_on_c, 12, 55, 0
16, 4518, Note_on_c, 12, 57, 79
16, 4525, Note_on_c, 12, 57, 0
16, 4526, Note_on_c, 12, 59, 81
16, 4533, Note_on_c, 12, 59, 0
16, 4534, Note_on_c, 12, 60, 75
16, 4543, Note_on_c, 12, 60, 0
16, 4543, Note_on_c, 12, 62, 78
16, 4551, Note_on_c, 12, 62, 0
16, 4551, Note_on_c, 12, 64, 78
16, 4560, Note_on_c, 12, 64, 0
16, 4560, Note_on_c, 12, 65, 83
16, 4565, Note_on_c, 12, 65, 0
16, 4690, Note_on_c, 12, 67, 74
16, 4700, Note_on_c, 12, 69, 81
16, 4701, Note_on_c, 12, 67, 0
16, 4706, Note_on_c, 12, 69, 0
16, 4707, Note_on_c, 12, 71, 83
16, 4716, Note_on_c, 12, 71, 0
16, 4716, Note_on_c, 12, 72, 88
16, 4720, Note_on_c, 12, 72, 0
16, 4720, Note_on_c, 12, 74, 85
16, 4728, Note_on_c, 12, 76, 82
16, 4729, Note_on_c, 12, 74, 0
16, 4737, Note_on_c, 12, 77, 82
16, 4739, Note_on_c, 12, 76, 0
16, 4744, Note_on_c, 12, 79, 84
16, 4747, Note_on_c, 12, 77, 0
16, 4752, Note_on_c, 12, 81, 83
16, 4754, Note_on_c, 12, 79, 0
16, 4760, Note_on_c, 12, 83, 82
16, 4763, Note_on_c, 12, 81, 0
16, 4768, Note_on_c, 12, 84, 82
16, 4771, Note_on_c, 12, 83, 0
16, 4777, Note_on_c, 12, 86, 85
16, 4780, Note_on_c, 12, 84, 0
16, 4786, Note_on_c, 12, 88, 82
16, 4789, Note_on_c, 12, 86, 0
16, 4795, Note_on_c, 12, 88, 0
16, 4795, Note_on_c, 12, 89, 82
16, 4800, Note_on_c, 12, 89, 0
16, 4911, Note_on_c, 12, 55, 59
16, 4930, Note_on_c, 12, 57, 64
16, 4933, Note_on_c, 12, 55, 0
16, 4934, Note_on_c, 12, 43, 72
16, 4942, Note_on_c, 12, 45, 74
16, 4945, Note_on_c, 12, 43, 0
16, 4945, Note_on_c, 12, 59, 69
16, 4947, Note_on_c, 12, 57, 0
16, 4953, Note_on_c, 12, 47, 76
16, 4955, Note_on_c, 12, 45, 0
16, 4962, Note_on_c, 12, 59, 0
16, 4962, Note_on_c, 12, 60, 64
16, 4963, Note_on_c, 12, 48, 76
16, 4964, Note_on_c, 12, 47, 0
16, 4973, Note_on_c, 12, 48, 0
16, 4973, Note_on_c, 12, 50, 77
16, 4980, Note_on_c, 12, 62, 61
16, 4982, Note_on_c, 12, 60, 0
16, 4983, Note_on_c, 12, 50, 0
16, 4983, Note_on_c, 12, 52, 75
16, 4995, Note_on_c, 12, 52, 0
16, 4995, Note_on_c, 12, 53, 74
16, 4999, Note_on_c, 12, 64, 61
16, 5002, Note_on_c, 12, 62, 0
16, 5007, Note_on_c, 12, 53, 0
16, 5007, Note_on_c, 12, 55, 74
16, 5018, Note_on_c, 12, 65, 61
16, 5018, Note_on_c, 12, 57, 73
16, 5020, Note_on_c, 12, 64, 0
16, 5021, Note_on_c, 12, 55, 0
16, 5030, Note_on_c, 12, 59, 74
16, 5031, Note_on_c, 12, 57, 0
16, 5037, Note_on_c, 12, 67, 64
16, 5038, Note_on_c, 12, 65, 0
16, 5041, Note_on_c, 12, 60, 68
16, 5042, Note_on_c, 12, 59, 0
16, 5053, Note_on_c, 12, 62, 72
16, 5054, Note_on_c, 12, 60, 0
16, 5055, Note_on_c, 12, 69, 61
16, 5056, Note_on_c, 12, 67, 0
16, 5064, Note_on_c, 12, 64, 71
16, 5065, Note_on_c, 12, 62, 0
16, 5074, Note_on_c, 12, 69, 0
16, 5074, Note_on_c, 12, 71, 65
16, 5077, Note_on_c, 12, 65, 69
16, 5078, Note_on_c, 12, 64, 0
16, 5090, Note_on_c, 12, 67, 65
16, 5091, Note_on_c, 12, 65, 0
16, 5092, Note_on_c, 12, 71, 0
16, 5093, Note_on_c, 12, 72, 62
16, 5103, Note_on_c, 12, 69, 68
16, 5105, Note_on_c, 12, 67, 0
16, 5108, Note_on_c, 12, 72, 0
16, 5108, Note_on_c, 12, 74, 66
16, 5117, Note_on_c, 12, 71, 66
16, 5119, Note_on_c, 12, 69, 0
16, 5122, Note_on_c, 12, 74, 0
16, 5124, Note_on_c, 12, 76, 66
16, 5129, Note_on_c, 12, 72, 65
16, 5131, Note_on_c, 12, 71, 0
16, 5137, Note_on_c, 12, 76, 0
16, 5138, Note_on_c, 12, 77, 68
16, 5144, Note_on_c, 12, 72, 0
16, 5144, Note_on_c, 12, 74, 67
16, 5148, Note_on_c, 12, 77, 0
16, 5150, Note_on_c, 12, 79, 70
16, 5155, Note_on_c, 12, 74, 0
16, 5155, Note_on_c, 12, 76, 65
16, 5160, Note_on_c, 12, 79, 0
16, 5161, Note_on_c, 12, 81, 74
16, 5167, Note_on_c, 12, 76, 0
16, 5168, Note_on_c, 12, 77, 66
16, 5172, Note_on_c, 12, 81, 0
16, 5172, Note_on_c, 12, 83, 72
16, 5178, Note_on_c, 12, 77, 0
16, 5180, Note_on_c, 12, 79, 68
16, 5181, Note_on_c, 12, 83, 0
16, 5183, Note_on_c, 12, 84, 71
16, 5189, Note_on_c, 12, 84, 0
16, 5191, Note_on_c, 12, 79, 0
16, 5191, Note_on_c, 12, 81, 71
16, 5193, Note_on_c, 12, 86, 74
16, 5200, Note_on_c, 12, 86, 0
16, 5202, Note_on_c, 12, 88, 74
16, 5203, Note_on_c, 12, 81, 0
16, 5204, Note_on_c, 12, 83, 65
16, 5210, Note_on_c, 12, 88, 0
16, 5213, Note_on_c, 12, 89, 74
16, 5218, Note_on_c, 12, 83, 0
16, 5220, Note_on_c, 12, 89, 0
16, 5222, Note_on_c, 12, 84, 48
16, 5224, Note_on_c, 12, 91, 74
16, 5231, Note_on_c, 12, 91, 0
16, 5234, Note_on_c, 12, 93, 75
16, 5238, Note_on_c, 12, 84, 0
16, 5239, Note_on_c, 12, 86, 53
16, 5243, Note_on_c, 12, 93, 0
16, 5246, Note_on_c, 12, 95, 68
16, 5251, Note_on_c, 12, 86, 0
16, 5257, Note_on_c, 12, 95, 0
16, 5258, Note_on_c, 12, 96, 64
16, 5264, Note_on_c, 12, 96, 0
16, 5272, Note_on_c, 12, 88, 94
16, 5279, Note_on_c, 12, 100, 85
16, 5303, Note_on_c, 12, 88, 0
16, 5311, Note_on_c, 12, 100, 0
16, 5311, End_track
17, 0, Start_track
17, 0, Title_t, "Bells          "
17, 0, Channel_prefix, 4
17, 2400, Note_on_c, 4, 79, 82
17, 2429, Note_on_c, 4, 79, 0
17, 2430, Note_on_c, 4, 81, 89
17, 2459, Note_on_c, 4, 81, 0
17, 2460, Note_on_c, 4, 79, 90
17, 2489, Note_on_c, 4, 79, 0
17, 2490, Note_on_c, 4, 81, 90
17, 2519, Note_on_c, 4, 81, 0
17, 2520, Note_on_c, 4, 79, 93
17, 2549, Note_on_c, 4, 79, 0
17, 2550, Note_on_c, 4, 81, 91
17, 2579, Note_on_c, 4, 81, 0
17, 2580, Note_on_c, 4, 79, 98
17, 2609, Note_on_c, 4, 79, 0
17, 2610, Note_on_c, 4, 81, 98
17, 2639, Note_on_c, 4, 81, 0
17, 2640, Note_on_c, 4, 79, 102
17, 2669, Note_on_c, 4, 79, 0
17, 2670, Note_on_c, 4, 81, 89
17, 2699, Note_on_c, 4, 81, 0
17, 2700, Note_on_c, 4, 79, 93
17, 2729, Note_on_c, 4, 79, 0
17, 2730, Note_on_c, 4, 81, 91
17, 2759, Note_on_c, 4, 81, 0
17, 2760, Note_on_c, 4, 79, 98
17, 2789, Note_on_c, 4, 79, 0
17, 2790, Note_on_c, 4, 81, 88
17, 2819, Note_on_c, 4, 81, 0
17, 2820, Note_on_c, 4, 79, 94
17, 2849, Note_on_c, 4, 79, 0
17, 2850, Note_on_c, 4, 81, 92
17, 2879, Note_on_c, 4, 81, 0
17, 2880, Note_on_c, 4, 79, 91
17, 2909, Note_on_c, 4, 79, 0
17, 2910, Note_on_c, 4, 81, 78
17, 2939, Note_on_c, 4, 81, 0
17, 2940, Note_on_c, 4, 79, 87
17, 2969, Note_on_c, 4, 79, 0
17, 2970, Note_on_c, 4, 81, 82
17, 2999, Note_on_c, 4, 81, 0
17, 3000, Note_on_c, 4, 79, 92
17, 3029, Note_on_c, 4, 79, 0
17, 3030, Note_on_c, 4, 81, 82
17, 3059, Note_on_c, 4, 81, 0
17, 3060, Note_on_c, 4, 79, 96
17, 3089, Note_on_c, 4, 79, 0
17, 3090, Note_on_c, 4, 81, 88
17, 3119, Note_on_c, 4, 81, 0
17, 3120, Note_on_c, 4, 79, 89
17, 3149, Note_on_c, 4, 79, 0
17, 3150, Note_on_c, 4, 81, 87
17, 3179, Note_on_c, 4, 81, 0
17, 3180, Note_on_c, 4, 79, 87
17, 3209, Note_on_c, 4, 79, 0
17, 3210, Note_on_c, 4, 81, 87
17, 3239, Note_on_c, 4, 81, 0
17, 3240, Note_on_c, 4, 79, 88
17, 3269, Note_on_c, 4, 79, 0
17, 3270, Note_on_c, 4, 81, 83
17, 3299, Note_on_c, 4, 81, 0
17, 3300, Note_on_c, 4, 79, 86
17, 3329, Note_on_c, 4, 79, 0
17, 3330, Note_on_c, 4, 81, 84
17, 3359, Note_on_c, 4, 81, 0
17, 3360, Note_on_c, 4, 79, 94
17, 3389, Note_on_c, 4, 79, 0
17, 3390, Note_on_c, 4, 81, 80
17, 3419, Note_on_c, 4, 81, 0
17, 3420, Note_on_c, 4, 79, 97
17, 3449, Note_on_c, 4, 79, 0
17, 3450, Note_on_c, 4, 81, 82
17, 3479, Note_on_c, 4, 81, 0
17, 3480, Note_on_c, 4, 79, 94
17, 3509, Note_on_c, 4, 79, 0
17, 3510, Note_on_c, 4, 81, 83
17, 3539, Note_on_c, 4, 81, 0
17, 3540, Note_on_c, 4, 79, 97
17, 3569, Note_on_c, 4, 79, 0
17, 3570, Note_on_c, 4, 81, 82
17, 3599, Note_on_c, 4, 81, 0
17, 3600, Note_on_c, 4, 79, 89
17, 3629, Note_on_c, 4, 79, 0
17, 3630, Note_on_c, 4, 81, 85
17, 3659, Note_on_c, 4, 81, 0
17, 3660, Note_on_c, 4, 79, 90
17, 3689, Note_on_c, 4, 79, 0
17, 3690, Note_on_c, 4, 81, 82
17, 3719, Note_on_c, 4, 81, 0
17, 3720, Note_on_c, 4, 79, 91
17, 3749, Note_on_c, 4, 79, 0
17, 3750, Note_on_c, 4, 81, 82
17, 3779, Note_on_c, 4, 81, 0
17, 3780, Note_on_c, 4, 79, 86
17, 3809, Note_on_c, 4, 79, 0
17, 3810, Note_on_c, 4, 81, 87
17, 3839, Note_on_c, 4, 81, 0
17, 3840, Note_on_c, 4, 79, 88
17, 3869, Note_on_c, 4, 79, 0
17, 3870, Note_on_c, 4, 81, 87
17, 3899, Note_on_c, 4, 81, 0
17, 3900, Note_on_c, 4, 79, 86
17, 3929, Note_on_c, 4, 79, 0
17, 3930, Note_on_c, 4, 81, 82
17, 3959, Note_on_c, 4, 81, 0
17, 3960, Note_on_c, 4, 79, 87
17, 3989, Note_on_c, 4, 79, 0
17, 3990, Note_on_c, 4, 81, 84
17, 4019, Note_on_c, 4, 81, 0
17, 4020, Note_on_c, 4, 79, 93
17, 4049, Note_on_c, 4, 79, 0
17, 4050, Note_on_c, 4, 81, 86
17, 4079, Note_on_c, 4, 81, 0
17, 4080, Note_on_c, 4, 79, 93
17, 4109, Note_on_c, 4, 79, 0
17, 4110, Note_on_c, 4, 81, 85
17, 4139, Note_on_c, 4, 81, 0
17, 4140, Note_on_c, 4, 79, 88
17, 4169, Note_on_c, 4, 79, 0
17, 4170, Note_on_c, 4, 81, 85
17, 4199, Note_on_c, 4, 81, 0
17, 4200, Note_on_c, 4, 79, 91
17, 4229, Note_on_c, 4, 79, 0
17, 4230, Note_on_c, 4, 81, 80
17, 4259, Note_on_c, 4, 81, 0
17, 4260, Note_on_c, 4, 79, 90
17, 4289, Note_on_c, 4, 79, 0
17, 4290, Note_on_c, 4, 81, 98
17, 4319, Note_on_c, 4, 81, 0
17, 4320, Note_on_c, 4, 79, 97
17, 4379, Note_on_c, 4, 79, 0
17, 24960, Note_on_c, 4, 88, 98
17, 24992, Note_on_c, 4, 88, 0
17, 25080, Note_on_c, 4, 88, 102
17, 25127, Note_on_c, 4, 88, 0
17, 25200, Note_on_c, 4, 88, 104
17, 25240, Note_on_c, 4, 88, 0
17, 25320, Note_on_c, 4, 88, 100
17, 25370, Note_on_c, 4, 88, 0
17, 25440, Note_on_c, 4, 88, 107
17, 25517, Note_on_c, 4, 88, 0
17, 25920, Note_on_c, 4, 86, 102
17, 25979, Note_on_c, 4, 86, 0
17, 26040, Note_on_c, 4, 86, 107
17, 26099, Note_on_c, 4, 86, 0
17, 26160, Note_on_c, 4, 86, 105
17, 26220, Note_on_c, 4, 86, 0
17, 26280, Note_on_c, 4, 86, 100
17, 26347, Note_on_c, 4, 86, 0
17, 26400, Note_on_c, 4, 86, 105
17, 26496, Note_on_c, 4, 86, 0
17, 26880, Note_on_c, 4, 84, 100
17, 26944, Note_on_c, 4, 84, 0
17, 27000, Note_on_c, 4, 84, 102
17, 27063, Note_on_c, 4, 84, 0
17, 27120, Note_on_c, 4, 84, 109
17, 27183, Note_on_c, 4, 84, 0
17, 27240, Note_on_c, 4, 84, 107
17, 27295, Note_on_c, 4, 84, 0
17, 27360, Note_on_c, 4, 84, 107
17, 27423, Note_on_c, 4, 84, 0
17, 27840, Note_on_c, 7, 79, 82
17, 27855, Note_on_c, 7, 81, 86
17, 27861, Note_on_c, 7, 79, 0
17, 27870, Note_on_c, 7, 79, 88
17, 27876, Note_on_c, 7, 81, 0
17, 27885, Note_on_c, 7, 81, 83
17, 27891, Note_on_c, 7, 79, 0
17, 27900, Note_on_c, 7, 79, 93
17, 27906, Note_on_c, 7, 81, 0
17, 27915, Note_on_c, 7, 81, 85
17, 27921, Note_on_c, 7, 79, 0
17, 27930, Note_on_c, 7, 79, 89
17, 27936, Note_on_c, 7, 81, 0
17, 27945, Note_on_c, 7, 81, 85
17, 27951, Note_on_c, 7, 79, 0
17, 27960, Note_on_c, 7, 79, 88
17, 27966, Note_on_c, 7, 81, 0
17, 27975, Note_on_c, 7, 81, 80
17, 27981, Note_on_c, 7, 79, 0
17, 27990, Note_on_c, 7, 79, 85
17, 27996, Note_on_c, 7, 81, 0
17, 28005, Note_on_c, 7, 81, 81
17, 28011, Note_on_c, 7, 79, 0
17, 28020, Note_on_c, 7, 79, 85
17, 28026, Note_on_c, 7, 81, 0
17, 28035, Note_on_c, 7, 81, 74
17, 28041, Note_on_c, 7, 79, 0
17, 28050, Note_on_c, 7, 79, 83
17, 28056, Note_on_c, 7, 81, 0
17, 28065, Note_on_c, 7, 81, 77
17, 28071, Note_on_c, 7, 79, 0
17, 28080, Note_on_c, 7, 79, 82
17, 28086, Note_on_c, 7, 81, 0
17, 28095, Note_on_c, 7, 81, 82
17, 28101, Note_on_c, 7, 79, 0
17, 28110, Note_on_c, 7, 79, 85
17, 28116, Note_on_c, 7, 81, 0
17, 28125, Note_on_c, 7, 81, 79
17, 28131, Note_on_c, 7, 79, 0
17, 28140, Note_on_c, 7, 79, 83
17, 28146, Note_on_c, 7, 81, 0
17, 28155, Note_on_c, 7, 81, 75
17, 28161, Note_on_c, 7, 79, 0
17, 28170, Note_on_c, 7, 79, 78
17, 28176, Note_on_c, 7, 81, 0
17, 28185, Note_on_c, 7, 81, 76
17, 28191, Note_on_c, 7, 79, 0
17, 28200, Note_on_c, 7, 79, 82
17, 28206, Note_on_c, 7, 81, 0
17, 28215, Note_on_c, 7, 81, 75
17, 28221, Note_on_c, 7, 79, 0
17, 28230, Note_on_c, 7, 79, 85
17, 28236, Note_on_c, 7, 81, 0
17, 28245, Note_on_c, 7, 81, 76
17, 28251, Note_on_c, 7, 79, 0
17, 28260, Note_on_c, 7, 79, 79
17, 28266, Note_on_c, 7, 81, 0
17, 28275, Note_on_c, 7, 81, 78
17, 28281, Note_on_c, 7, 79, 0
17, 28290, Note_on_c, 7, 79, 86
17, 28296, Note_on_c, 7, 81, 0
17, 28305, Note_on_c, 7, 81, 79
17, 28311, Note_on_c, 7, 79, 0
17, 28320, Note_on_c, 7, 79, 82
17, 28326, Note_on_c, 7, 81, 0
17, 28335, Note_on_c, 7, 81, 86
17, 28341, Note_on_c, 7, 79, 0
17, 28350, Note_on_c, 7, 79, 88
17, 28356, Note_on_c, 7, 81, 0
17, 28365, Note_on_c, 7, 81, 83
17, 28371, Note_on_c, 7, 79, 0
17, 28380, Note_on_c, 7, 79, 93
17, 28386, Note_on_c, 7, 81, 0
17, 28395, Note_on_c, 7, 81, 85
17, 28401, Note_on_c, 7, 79, 0
17, 28410, Note_on_c, 7, 79, 89
17, 28416, Note_on_c, 7, 81, 0
17, 28425, Note_on_c, 7, 81, 85
17, 28431, Note_on_c, 7, 79, 0
17, 28440, Note_on_c, 7, 79, 88
17, 28446, Note_on_c, 7, 81, 0
17, 28455, Note_on_c, 7, 81, 80
17, 28461, Note_on_c, 7, 79, 0
17, 28470, Note_on_c, 7, 79, 85
17, 28476, Note_on_c, 7, 81, 0
17, 28485, Note_on_c, 7, 81, 81
17, 28491, Note_on_c, 7, 79, 0
17, 28500, Note_on_c, 7, 79, 85
17, 28506, Note_on_c, 7, 81, 0
17, 28515, Note_on_c, 7, 81, 74
17, 28521, Note_on_c, 7, 79, 0
17, 28530, Note_on_c, 7, 79, 83
17, 28536, Note_on_c, 7, 81, 0
17, 28545, Note_on_c, 7, 81, 77
17, 28551, Note_on_c, 7, 79, 0
17, 28560, Note_on_c, 7, 79, 82
17, 28566, Note_on_c, 7, 81, 0
17, 28575, Note_on_c, 7, 81, 82
17, 28581, Note_on_c, 7, 79, 0
17, 28590, Note_on_c, 7, 79, 85
17, 28596, Note_on_c, 7, 81, 0
17, 28605, Note_on_c, 7, 81, 79
17, 28611, Note_on_c, 7, 79, 0
17, 28620, Note_on_c, 7, 79, 83
17, 28626, Note_on_c, 7, 81, 0
17, 28635, Note_on_c, 7, 81, 75
17, 28641, Note_on_c, 7, 79, 0
17, 28650, Note_on_c, 7, 79, 78
17, 28656, Note_on_c, 7, 81, 0
17, 28665, Note_on_c, 7, 81, 76
17, 28671, Note_on_c, 7, 79, 0
17, 28680, Note_on_c, 7, 79, 82
17, 28686, Note_on_c, 7, 81, 0
17, 28695, Note_on_c, 7, 81, 75
17, 28701, Note_on_c, 7, 79, 0
17, 28710, Note_on_c, 7, 79, 85
17, 28716, Note_on_c, 7, 81, 0
17, 28725, Note_on_c, 7, 81, 76
17, 28731, Note_on_c, 7, 79, 0
17, 28740, Note_on_c, 7, 79, 79
17, 28746, Note_on_c, 7, 81, 0
17, 28755, Note_on_c, 7, 81, 78
17, 28761, Note_on_c, 7, 79, 0
17, 28770, Note_on_c, 7, 79, 86
17, 28776, Note_on_c, 7, 81, 0
17, 28785, Note_on_c, 7, 81, 79
17, 28791, Note_on_c, 7, 79, 0
17, 28800, Note_on_c, 7, 79, 82
17, 28806, Note_on_c, 7, 81, 0
17, 28815, Note_on_c, 7, 81, 86
17, 28821, Note_on_c, 7, 79, 0
17, 28830, Note_on_c, 7, 79, 88
17, 28836, Note_on_c, 7, 81, 0
17, 28845, Note_on_c, 7, 81, 83
17, 28851, Note_on_c, 7, 79, 0
17, 28860, Note_on_c, 7, 79, 93
17, 28866, Note_on_c, 7, 81, 0
17, 28875, Note_on_c, 7, 81, 85
17, 28881, Note_on_c, 7, 79, 0
17, 28890, Note_on_c, 7, 79, 89
17, 28896, Note_on_c, 7, 81, 0
17, 28905, Note_on_c, 7, 81, 85
17, 28911, Note_on_c, 7, 79, 0
17, 28920, Note_on_c, 7, 79, 88
17, 28926, Note_on_c, 7, 81, 0
17, 28935, Note_on_c, 7, 81, 80
17, 28941, Note_on_c, 7, 79, 0
17, 28950, Note_on_c, 7, 79, 85
17, 28956, Note_on_c, 7, 81, 0
17, 28965, Note_on_c, 7, 81, 81
17, 28971, Note_on_c, 7, 79, 0
17, 28980, Note_on_c, 7, 79, 85
17, 28986, Note_on_c, 7, 81, 0
17, 28995, Note_on_c, 7, 81, 74
17, 29001, Note_on_c, 7, 79, 0
17, 29010, Note_on_c, 7, 79, 83
17, 29016, Note_on_c, 7, 81, 0
17, 29025, Note_on_c, 7, 81, 77
17, 29031, Note_on_c, 7, 79, 0
17, 29040, Note_on_c, 7, 79, 82
17, 29046, Note_on_c, 7, 81, 0
17, 29055, Note_on_c, 7, 81, 82
17, 29061, Note_on_c, 7, 79, 0
17, 29070, Note_on_c, 7, 79, 85
17, 29076, Note_on_c, 7, 81, 0
17, 29085, Note_on_c, 7, 81, 79
17, 29091, Note_on_c, 7, 79, 0
17, 29100, Note_on_c, 7, 79, 83
17, 29106, Note_on_c, 7, 81, 0
17, 29115, Note_on_c, 7, 81, 75
17, 29121, Note_on_c, 7, 79, 0
17, 29130, Note_on_c, 7, 79, 78
17, 29136, Note_on_c, 7, 81, 0
17, 29145, Note_on_c, 7, 81, 76
17, 29151, Note_on_c, 7, 79, 0
17, 29160, Note_on_c, 7, 79, 82
17, 29166, Note_on_c, 7, 81, 0
17, 29175, Note_on_c, 7, 81, 75
17, 29181, Note_on_c, 7, 79, 0
17, 29190, Note_on_c, 7, 79, 85
17, 29196, Note_on_c, 7, 81, 0
17, 29205, Note_on_c, 7, 81, 76
17, 29211, Note_on_c, 7, 79, 0
17, 29220, Note_on_c, 7, 79, 79
17, 29226, Note_on_c, 7, 81, 0
17, 29235, Note_on_c, 7, 81, 78
17, 29241, Note_on_c, 7, 79, 0
17, 29250, Note_on_c, 7, 79, 86
17, 29256, Note_on_c, 7, 81, 0
17, 29265, Note_on_c, 7, 81, 79
17, 29271, Note_on_c, 7, 79, 0
17, 29280, Note_on_c, 7, 79, 82
17, 29286, Note_on_c, 7, 81, 0
17, 29295, Note_on_c, 7, 81, 86
17, 29301, Note_on_c, 7, 79, 0
17, 29310, Note_on_c, 7, 79, 88
17, 29316, Note_on_c, 7, 81, 0
17, 29325, Note_on_c, 7, 81, 83
17, 29331, Note_on_c, 7, 79, 0
17, 29340, Note_on_c, 7, 79, 93
17, 29346, Note_on_c, 7, 81, 0
17, 29355, Note_on_c, 7, 81, 85
17, 29361, Note_on_c, 7, 79, 0
17, 29370, Note_on_c, 7, 79, 89
17, 29376, Note_on_c, 7, 81, 0
17, 29385, Note_on_c, 7, 81, 85
17, 29391, Note_on_c, 7, 79, 0
17, 29400, Note_on_c, 7, 79, 88
17, 29406, Note_on_c, 7, 81, 0
17, 29415, Note_on_c, 7, 81, 80
17, 29421, Note_on_c, 7, 79, 0
17, 29430, Note_on_c, 7, 79, 85
17, 29436, Note_on_c, 7, 81, 0
17, 29445, Note_on_c, 7, 81, 81
17, 29451, Note_on_c, 7, 79, 0
17, 29460, Note_on_c, 7, 79, 85
17, 29466, Note_on_c, 7, 81, 0
17, 29475, Note_on_c, 7, 81, 74
17, 29481, Note_on_c, 7, 79, 0
17, 29490, Note_on_c, 7, 79, 83
17, 29496, Note_on_c, 7, 81, 0
17, 29505, Note_on_c, 7, 81, 77
17, 29511, Note_on_c, 7, 79, 0
17, 29520, Note_on_c, 7, 79, 82
17, 29526, Note_on_c, 7, 81, 0
17, 29535, Note_on_c, 7, 81, 82
17, 29541, Note_on_c, 7, 79, 0
17, 29550, Note_on_c, 7, 79, 85
17, 29556, Note_on_c, 7, 81, 0
17, 29565, Note_on_c, 7, 81, 79
17, 29571, Note_on_c, 7, 79, 0
17, 29580, Note_on_c, 7, 79, 83
17, 29586, Note_on_c, 7, 81, 0
17, 29595, Note_on_c, 7, 81, 75
17, 29601, Note_on_c, 7, 79, 0
17, 29610, Note_on_c, 7, 79, 78
17, 29616, Note_on_c, 7, 81, 0
17, 29625, Note_on_c, 7, 81, 76
17, 29631, Note_on_c, 7, 79, 0
17, 29640, Note_on_c, 7, 79, 82
17, 29646, Note_on_c, 7, 81, 0
17, 29655, Note_on_c, 7, 81, 75
17, 29661, Note_on_c, 7, 79, 0
17, 29670, Note_on_c, 7, 79, 85
17, 29676, Note_on_c, 7, 81, 0
17, 29685, Note_on_c, 7, 81, 76
17, 29691, Note_on_c, 7, 79, 0
17, 29700, Note_on_c, 7, 79, 79
17, 29706, Note_on_c, 7, 81, 0
17, 29715, Note_on_c, 7, 81, 78
17, 29721, Note_on_c, 7, 79, 0
17, 29730, Note_on_c, 7, 79, 86
17, 29736, Note_on_c, 7, 81, 0
17, 29745, Note_on_c, 7, 81, 79
17, 29751, Note_on_c, 7, 79, 0
17, 29766, Note_on_c, 7, 81, 0
17, 37560, Note_on_c, 4, 89, 96
17, 37594, Note_on_c, 4, 89, 0
17, 37620, Note_on_c, 4, 89, 88
17, 37657, Note_on_c, 4, 89, 0
17, 37680, Note_on_c, 4, 89, 105
17, 37769, Note_on_c, 4, 89, 0
17, 37800, Note_on_c, 4, 89, 97
17, 37834, Note_on_c, 4, 89, 0
17, 37860, Note_on_c, 4, 89, 93
17, 37891, Note_on_c, 4, 89, 0
17, 37920, Note_on_c, 4, 89, 107
17, 38006, Note_on_c, 4, 89, 0
17, 38040, Note_on_c, 4, 89, 101
17, 38069, Note_on_c, 4, 89, 0
17, 38100, Note_on_c, 4, 89, 104
17, 38131, Note_on_c, 4, 89, 0
17, 38160, Note_on_c, 4, 89, 111
17, 38251, Note_on_c, 4, 89, 0
17, 38280, Note_on_c, 4, 89, 104
17, 38306, Note_on_c, 4, 89, 0
17, 38340, Note_on_c, 4, 89, 98
17, 38380, Note_on_c, 4, 89, 0
17, 38400, Note_on_c, 4, 88, 114
17, 38469, Note_on_c, 4, 88, 0
17, 39360, Note_on_c, 4, 88, 98
17, 39394, Note_on_c, 4, 88, 0
17, 39420, Note_on_c, 4, 84, 89
17, 39458, Note_on_c, 4, 84, 0
17, 39480, Note_on_c, 4, 88, 98
17, 39510, Note_on_c, 4, 88, 0
17, 39540, Note_on_c, 4, 83, 79
17, 39588, Note_on_c, 4, 83, 0
17, 39600, Note_on_c, 4, 88, 93
17, 39642, Note_on_c, 4, 88, 0
17, 39660, Note_on_c, 4, 81, 86
17, 39701, Note_on_c, 4, 81, 0
17, 39720, Note_on_c, 4, 88, 88
17, 39760, Note_on_c, 4, 88, 0
17, 39780, Note_on_c, 4, 80, 73
17, 39825, Note_on_c, 4, 80, 0
17, 39840, Note_on_c, 4, 88, 102
17, 39902, Note_on_c, 4, 88, 0
17, 41400, Note_on_c, 4, 88, 111
17, 41464, Note_on_c, 4, 88, 0
17, 41640, Note_on_c, 4, 88, 114
17, 41703, Note_on_c, 4, 88, 0
17, 41880, Note_on_c, 4, 88, 112
17, 41939, Note_on_c, 4, 88, 0
17, 42120, Note_on_c, 4, 88, 101
17, 42168, Note_on_c, 4, 88, 0
17, 42300, Note_on_c, 4, 83, 96
17, 42336, Note_on_c, 4, 83, 0
17, 42360, Note_on_c, 4, 84, 98
17, 42400, Note_on_c, 4, 84, 0
17, 42420, Note_on_c, 4, 83, 98
17, 42459, Note_on_c, 4, 83, 0
17, 42480, Note_on_c, 4, 84, 98
17, 42514, Note_on_c, 4, 84, 0
17, 42540, Note_on_c, 4, 83, 100
17, 42571, Note_on_c, 4, 83, 0
17, 42600, Note_on_c, 4, 84, 104
17, 42636, Note_on_c, 4, 84, 0
17, 42660, Note_on_c, 4, 83, 102
17, 42700, Note_on_c, 4, 83, 0
17, 42720, Note_on_c, 4, 84, 102
17, 42761, Note_on_c, 4, 84, 0
17, 42780, Note_on_c, 4, 83, 100
17, 42816, Note_on_c, 4, 83, 0
17, 42840, Note_on_c, 4, 84, 101
17, 42877, Note_on_c, 4, 84, 0
17, 42900, Note_on_c, 4, 83, 101
17, 42936, Note_on_c, 4, 83, 0
17, 42960, Note_on_c, 4, 84, 101
17, 42999, Note_on_c, 4, 84, 0
17, 43020, Note_on_c, 4, 83, 98
17, 43057, Note_on_c, 4, 83, 0
17, 43080, Note_on_c, 4, 84, 94
17, 43120, Note_on_c, 4, 84, 0
17, 43140, Note_on_c, 4, 83, 94
17, 43175, Note_on_c, 4, 83, 0
17, 43200, Note_on_c, 4, 84, 114
17, 43272, Note_on_c, 4, 84, 0
17, 43440, Note_on_c, 4, 84, 112
17, 43510, Note_on_c, 4, 84, 0
17, 43680, Note_on_c, 4, 84, 112
17, 43756, Note_on_c, 4, 84, 0
17, 43756, End_track
0, 0, End_of_file
