0, 0, Header, 1, 19, 480
1, 0, Start_track
1, 0, Time_signature, 2, 2, 24, 8
1, 0, Key_signature, -3, "major"
1, 0, SMPTE_offset, 32, 0, 0, 0, 0
1, 0, Tempo, 2400000
1, 1230, Tempo, 2727272
1, 1440, Tempo, 2142857
1, 4320, Tempo, 3333333
1, 4800, Tempo, 2142857
1, 7680, Key_signature, -1, "major"
1, 7920, Tempo, 2500000
1, 8640, Tempo, 2142857
1, 35040, Tempo, 1935483
1, 66240, Tempo, 1538461
1, 72510, Tempo, 1550888
1, 72540, Tempo, 1563517
1, 72570, Tempo, 1576354
1, 72600, Tempo, 1589403
1, 72630, Tempo, 1602671
1, 72660, Tempo, 1616161
1, 72690, Tempo, 1629881
1, 72720, Tempo, 1643835
1, 72750, Tempo, 1658031
1, 72780, Tempo, 1672473
1, 72810, Tempo, 1687170
1, 72840, Tempo, 1702127
1, 72870, Tempo, 1717352
1, 72900, Tempo, 1732851
1, 72930, Tempo, 1748633
1, 76320, Tempo, 1538461
1, 93610, Tempo, 1542757
1, 93620, Tempo, 1547081
1, 93630, Tempo, 1551429
1, 93640, Tempo, 1555802
1, 93650, Tempo, 1560200
1, 93660, Tempo, 1564622
1, 93670, Tempo, 1569070
1, 93680, Tempo, 1573543
1, 93690, Tempo, 1578042
1, 93700, Tempo, 1582566
1, 93710, Tempo, 1587116
1, 93720, Tempo, 1591693
1, 93730, Tempo, 1596296
1, 93740, Tempo, 1600926
1, 93750, Tempo, 1605583
1, 93760, Tempo, 1610267
1, 93770, Tempo, 1614978
1, 93780, Tempo, 1619717
1, 93790, Tempo, 1624484
1, 93800, Tempo, 1629279
1, 93810, Tempo, 1634102
1, 93820, Tempo, 1638954
1, 93830, Tempo, 1643835
1, 93840, Tempo, 1648741
1, 93850, Tempo, 1653680
1, 93860, Tempo, 1658649
1, 93870, Tempo, 1663648
1, 93880, Tempo, 1668678
1, 93890, Tempo, 1673738
1, 93900, Tempo, 1678828
1, 93910, Tempo, 1683950
1, 93920, Tempo, 1689103
1, 93930, Tempo, 1694288
1, 93940, Tempo, 1699504
1, 93950, Tempo, 1704753
1, 93960, Tempo, 1710035
1, 93970, Tempo, 1715349
1, 93980, Tempo, 1720696
1, 93990, Tempo, 1726077
1, 94000, Tempo, 1731491
1, 94010, Tempo, 1736940
1, 94020, Tempo, 1742423
1, 94030, Tempo, 1747941
1, 94040, Tempo, 1753493
1, 94050, Tempo, 1759081
1, 100320, Tempo, 2307692
1, 101280, Tempo, 2068965
1, 104160, Tempo, 2727272
1, 104640, Tempo, 2068965
1, 109440, Tempo, 1764705
1, 139200, Tempo, 1538461
1, 143530, Tempo, 1545893
1, 143540, Tempo, 1553398
1, 143550, Tempo, 1560975
1, 143560, Tempo, 1568627
1, 143570, Tempo, 1576354
1, 143580, Tempo, 1584158
1, 143590, Tempo, 1592039
1, 143600, Tempo, 1600000
1, 143610, Tempo, 1608040
1, 143620, Tempo, 1616161
1, 143630, Tempo, 1624365
1, 143640, Tempo, 1632653
1, 143650, Tempo, 1641025
1, 143660, Tempo, 1649484
1, 143670, Tempo, 1658031
1, 143680, Tempo, 1666666
1, 143690, Tempo, 1675392
1, 143700, Tempo, 1684210
1, 143710, Tempo, 1693121
1, 143720, Tempo, 1702127
1, 143730, Tempo, 1711229
1, 143740, Tempo, 1720430
1, 143750, Tempo, 1729729
1, 143760, Tempo, 1739130
1, 143770, Tempo, 1748633
1, 143780, Tempo, 1758241
1, 143790, Tempo, 1767955
1, 143800, Tempo, 1777777
1, 143810, Tempo, 1787709
1, 143820, Tempo, 1797752
1, 143830, Tempo, 1807909
1, 143840, Tempo, 1818181
1, 143850, Tempo, 1828571
1, 143860, Tempo, 1839080
1, 143870, Tempo, 1849710
1, 143880, Tempo, 1860465
1, 143890, Tempo, 1871345
1, 143900, Tempo, 1882352
1, 143910, Tempo, 1893491
1, 143920, Tempo, 1904761
1, 143930, Tempo, 1916167
1, 143940, Tempo, 1927710
1, 143950, Tempo, 1939393
1, 143960, Tempo, 1951219
1, 143970, Tempo, 1963190
1, 143980, Tempo, 1975308
1, 143990, Tempo, 2055674
1, 144960, Tempo, 1764705
1, 147840, Tempo, 2068965
1, 148800, Tempo, 1875000
1, 151200, Tempo, 2608695
1, 151680, Tempo, 1875000
1, 153600, Tempo, 1538461
1, 162360, Tempo, 1541243
1, 162420, Tempo, 1544035
1, 162480, Tempo, 1546838
1, 162540, Tempo, 1549650
1, 162600, Tempo, 1552477
1, 162660, Tempo, 1555310
1, 162720, Tempo, 1558154
1, 162780, Tempo, 1561008
1, 162840, Tempo, 1563876
1, 162900, Tempo, 1566751
1, 162960, Tempo, 1569636
1, 163020, Tempo, 1572533
1, 163080, Tempo, 1575439
1, 163140, Tempo, 1578361
1, 163200, Tempo, 1581290
1, 163260, Tempo, 1584229
1, 163320, Tempo, 1587179
1, 163380, Tempo, 1590145
1, 163440, Tempo, 1593117
1, 163500, Tempo, 1596101
1, 163560, Tempo, 1599095
1, 163620, Tempo, 1602101
1, 163680, Tempo, 1605123
1, 163740, Tempo, 1608147
1, 163800, Tempo, 1611192
1, 163860, Tempo, 1614244
1, 163920, Tempo, 1617311
1, 163980, Tempo, 1620386
1, 164040, Tempo, 1623473
1, 164100, Tempo, 1626571
1, 164160, Tempo, 1629681
1, 164220, Tempo, 1632808
1, 164280, Tempo, 1635942
1, 164340, Tempo, 1639088
1, 164400, Tempo, 1642247
1, 164460, Tempo, 1645422
1, 164520, Tempo, 1648605
1, 164580, Tempo, 1651800
1, 164640, Tempo, 1655008
1, 164700, Tempo, 1658232
1, 164760, Tempo, 1661465
1, 164820, Tempo, 1664710
1, 164880, Tempo, 1667968
1, 164940, Tempo, 1671239
1, 165000, Tempo, 1674527
1, 165060, Tempo, 1677824
1, 165120, Tempo, 1681133
1, 165180, Tempo, 1684456
1, 165240, Tempo, 1687796
1, 165300, Tempo, 1691146
1, 165360, Tempo, 1694508
1, 165420, Tempo, 1697884
1, 165480, Tempo, 1701273
1, 165540, Tempo, 1704681
1, 165600, Tempo, 1708097
1, 165660, Tempo, 1711527
1, 165720, Tempo, 1714971
1, 165780, Tempo, 1718434
1, 165840, Tempo, 1721906
1, 165900, Tempo, 1725392
1, 165960, Tempo, 1728892
1, 166020, Tempo, 1732406
1, 166080, Tempo, 1735940
1, 166140, Tempo, 1739483
1, 166200, Tempo, 1743040
1, 166260, Tempo, 1746613
1, 166320, Tempo, 1750204
1, 166380, Tempo, 1753806
1, 166440, Tempo, 1757422
1, 166500, Tempo, 1764705
1, 171960, Tempo, 1777777
1, 172080, Tempo, 1791044
1, 172200, Tempo, 1804511
1, 172320, Tempo, 1818181
1, 172440, Tempo, 1832061
1, 172560, Tempo, 1846153
1, 172680, Tempo, 1875000
1, 222720, Tempo, 2068965
1, 223310, Tempo, 2099120
1, 223320, Tempo, 2130174
1, 223330, Tempo, 2162162
1, 223340, Tempo, 2195116
1, 223350, Tempo, 2229099
1, 223360, Tempo, 2264150
1, 223370, Tempo, 2300313
1, 223380, Tempo, 2337659
1, 223390, Tempo, 2376237
1, 223400, Tempo, 2416100
1, 223410, Tempo, 2457334
1, 223420, Tempo, 2500000
1, 223430, Tempo, 2544162
1, 223440, Tempo, 2589924
1, 223450, Tempo, 2637362
1, 223460, Tempo, 2686559
1, 223470, Tempo, 2737638
1, 223480, Tempo, 2790697
1, 223490, Tempo, 2845840
1, 223500, Tempo, 2903221
1, 223510, Tempo, 2962962
1, 223520, Tempo, 3025199
1, 223530, Tempo, 3090123
1, 223540, Tempo, 3157894
1, 223550, Tempo, 3228687
1, 223560, Tempo, 3302746
1, 223570, Tempo, 3380281
1, 223580, Tempo, 3461525
1, 223590, Tempo, 3546791
1, 223600, Tempo, 3636363
1, 223610, Tempo, 3730554
1, 223620, Tempo, 3829779
1, 223630, Tempo, 3934426
1, 223640, Tempo, 4044925
1, 223650, Tempo, 4161840
1, 223680, Tempo, 2068965
1, 225370, Tempo, 2115379
1, 225380, Tempo, 2163932
1, 225390, Tempo, 2214757
1, 225400, Tempo, 2268036
1, 225410, Tempo, 2323942
1, 225420, Tempo, 2382663
1, 225430, Tempo, 2444439
1, 225440, Tempo, 2509504
1, 225450, Tempo, 2578116
1, 225460, Tempo, 2650598
1, 225470, Tempo, 2727272
1, 225480, Tempo, 2808502
1, 225490, Tempo, 2894733
1, 225500, Tempo, 2986411
1, 225510, Tempo, 3084103
1, 225520, Tempo, 3188402
1, 225530, Tempo, 3299985
1, 225540, Tempo, 3419680
1, 225550, Tempo, 3548385
1, 225560, Tempo, 3687134
1, 225570, Tempo, 3837200
1, 225600, Tempo, 2068965
1, 225840, Tempo, 2082429
1, 226080, Tempo, 2096069
1, 226320, Tempo, 2109890
1, 226560, Tempo, 2123893
1, 226800, Tempo, 2138084
1, 227040, Tempo, 2152466
1, 227280, Tempo, 2167042
1, 227520, Tempo, 2181818
1, 227760, Tempo, 2196796
1, 228000, Tempo, 2211981
1, 228240, Tempo, 2227378
1, 228480, Tempo, 2242990
1, 228720, Tempo, 2258823
1, 228960, Tempo, 2274881
1, 229200, Tempo, 2307692
1, 236640, Tempo, 6666666
1, 237000, Tempo, 2307692
1, 237120, Tempo, 6666666
1, 237120, End_track
2, 0, Start_track
2, 0, Channel_prefix, 0
2, 0, Title_t, "Flutes  "
2, 0, Instrument_name_t, "Flauti  "
2, 43200, Note_on_c, 0, 79, 45
2, 43200, Note_on_c, 0, 91, 45
2, 43200, Control_c, 0, 11, 80
2, 43250, Control_c, 0, 11, 81
2, 43300, Control_c, 0, 11, 82
2, 43350, Control_c, 0, 11, 83
2, 43400, Control_c, 0, 11, 85
2, 43440, Control_c, 0, 11, 86
2, 43490, Control_c, 0, 11, 87
2, 43540, Control_c, 0, 11, 88
2, 43590, Control_c, 0, 11, 90
2, 43640, Control_c, 0, 11, 91
2, 43650, Note_on_c, 0, 79, 0
2, 43680, Note_on_c, 0, 79, 45
2, 43680, Note_on_c, 0, 86, 45
2, 43680, Control_c, 0, 11, 92
2, 43710, Note_on_c, 0, 91, 0
2, 43730, Control_c, 0, 11, 93
2, 43780, Control_c, 0, 11, 95
2, 43830, Control_c, 0, 11, 96
2, 43880, Control_c, 0, 11, 97
2, 43920, Note_on_c, 0, 89, 45
2, 43920, Control_c, 0, 11, 98
2, 43950, Note_on_c, 0, 86, 0
2, 43970, Control_c, 0, 11, 100
2, 44020, Control_c, 0, 11, 101
2, 44070, Control_c, 0, 11, 102
2, 44120, Control_c, 0, 11, 103
2, 44160, Note_on_c, 0, 87, 45
2, 44160, Control_c, 0, 11, 105
2, 44190, Note_on_c, 0, 89, 0
2, 44210, Control_c, 0, 11, 104
2, 44260, Control_c, 0, 11, 103
2, 44310, Control_c, 0, 11, 102
2, 44360, Control_c, 0, 11, 100
2, 44400, Control_c, 0, 11, 99
2, 44450, Control_c, 0, 11, 98
2, 44500, Control_c, 0, 11, 97
2, 44550, Control_c, 0, 11, 95
2, 44600, Control_c, 0, 11, 94
2, 44640, Note_on_c, 0, 86, 45
2, 44640, Control_c, 0, 11, 93
2, 44670, Note_on_c, 0, 87, 0
2, 44690, Control_c, 0, 11, 92
2, 44740, Control_c, 0, 11, 90
2, 44790, Control_c, 0, 11, 89
2, 44840, Control_c, 0, 11, 88
2, 44880, Note_on_c, 0, 78, 45
2, 44880, Note_on_c, 0, 79, 0
2, 44880, Note_on_c, 0, 84, 45
2, 44880, Control_c, 0, 11, 87
2, 44910, Note_on_c, 0, 86, 0
2, 44930, Control_c, 0, 11, 85
2, 44980, Control_c, 0, 11, 84
2, 45030, Control_c, 0, 11, 82
2, 45080, Control_c, 0, 11, 80
2, 45120, Note_on_c, 0, 78, 0
2, 45120, Note_on_c, 0, 79, 45
2, 45120, Note_on_c, 0, 83, 45
2, 45120, Note_on_c, 0, 84, 0
2, 45360, Note_on_c, 0, 79, 0
2, 45360, Note_on_c, 0, 83, 0
2, 48240, Note_on_c, 0, 79, 45
2, 48450, Note_on_c, 0, 79, 0
2, 48480, Note_on_c, 0, 79, 60
2, 48720, Note_on_c, 0, 84, 45
2, 48930, Note_on_c, 0, 79, 0
2, 48930, Note_on_c, 0, 84, 0
2, 48960, Note_on_c, 0, 77, 45
2, 48960, Note_on_c, 0, 84, 45
2, 49170, Note_on_c, 0, 77, 0
2, 49170, Note_on_c, 0, 84, 0
2, 50880, Note_on_c, 0, 89, 45
2, 50880, Control_c, 0, 11, 80
2, 50920, Control_c, 0, 11, 81
2, 50960, Control_c, 0, 11, 83
2, 51000, Control_c, 0, 11, 85
2, 51040, Control_c, 0, 11, 87
2, 51080, Control_c, 0, 11, 89
2, 51120, Control_c, 0, 11, 91
2, 51150, Control_c, 0, 11, 93
2, 51190, Control_c, 0, 11, 95
2, 51230, Control_c, 0, 11, 97
2, 51270, Control_c, 0, 11, 99
2, 51310, Control_c, 0, 11, 101
2, 51330, Note_on_c, 0, 89, 0
2, 51350, Control_c, 0, 11, 103
2, 51360, Note_on_c, 0, 87, 45
2, 51380, Control_c, 0, 11, 104
2, 51420, Note_on_c, 0, 86, 45
2, 51420, Control_c, 0, 11, 106
2, 51450, Note_on_c, 0, 87, 0
2, 51460, Control_c, 0, 11, 108
2, 51500, Control_c, 0, 11, 110
2, 51540, Control_c, 0, 11, 112
2, 51570, Note_on_c, 0, 86, 0
2, 51580, Control_c, 0, 11, 114
2, 51600, Note_on_c, 0, 80, 45
2, 51600, Note_on_c, 0, 84, 45
2, 51610, Control_c, 0, 11, 115
2, 51650, Control_c, 0, 11, 117
2, 51660, Note_on_c, 0, 83, 45
2, 51690, Note_on_c, 0, 84, 0
2, 51690, Control_c, 0, 11, 119
2, 51730, Control_c, 0, 11, 121
2, 51770, Control_c, 0, 11, 123
2, 51810, Note_on_c, 0, 83, 0
2, 51810, Control_c, 0, 11, 125
2, 51840, Note_on_c, 0, 79, 45
2, 51840, Note_on_c, 0, 80, 0
2, 51840, Note_on_c, 0, 84, 45
2, 51930, Note_on_c, 0, 79, 0
2, 51930, Note_on_c, 0, 84, 0
2, 52080, Note_on_c, 0, 80, 45
2, 52080, Note_on_c, 0, 84, 45
2, 52170, Note_on_c, 0, 80, 0
2, 52170, Note_on_c, 0, 84, 0
2, 52440, Control_c, 0, 11, 80
2, 52810, Control_c, 0, 11, 80
2, 52830, Control_c, 0, 11, 82
2, 52860, Control_c, 0, 11, 85
2, 52880, Control_c, 0, 11, 87
2, 52910, Control_c, 0, 11, 90
2, 52930, Control_c, 0, 11, 92
2, 52960, Control_c, 0, 11, 95
2, 52980, Control_c, 0, 11, 97
2, 53010, Control_c, 0, 11, 100
2, 53030, Control_c, 0, 11, 102
2, 53040, Note_on_c, 0, 72, 45
2, 53040, Note_on_c, 0, 91, 45
2, 53060, Control_c, 0, 11, 105
2, 53080, Control_c, 0, 11, 107
2, 53110, Control_c, 0, 11, 110
2, 53130, Control_c, 0, 11, 112
2, 53160, Control_c, 0, 11, 115
2, 53180, Control_c, 0, 11, 117
2, 53210, Control_c, 0, 11, 120
2, 53230, Control_c, 0, 11, 122
2, 53260, Control_c, 0, 11, 125
2, 53280, Note_on_c, 0, 74, 45
2, 53280, Control_c, 0, 11, 127
2, 53310, Note_on_c, 0, 72, 0
2, 53310, Control_c, 0, 11, 125
2, 53330, Control_c, 0, 11, 123
2, 53360, Control_c, 0, 11, 120
2, 53380, Control_c, 0, 11, 118
2, 53400, Control_c, 0, 11, 116
2, 53430, Control_c, 0, 11, 113
2, 53450, Control_c, 0, 11, 111
2, 53480, Control_c, 0, 11, 108
2, 53490, Note_on_c, 0, 74, 0
2, 53500, Control_c, 0, 11, 106
2, 53520, Note_on_c, 0, 74, 45
2, 53520, Note_on_c, 0, 89, 45
2, 53520, Control_c, 0, 11, 104
2, 53550, Note_on_c, 0, 91, 0
2, 53550, Control_c, 0, 11, 101
2, 53570, Control_c, 0, 11, 99
2, 53600, Control_c, 0, 11, 96
2, 53620, Control_c, 0, 11, 94
2, 53640, Control_c, 0, 11, 92
2, 53670, Control_c, 0, 11, 89
2, 53690, Control_c, 0, 11, 86
2, 53700, Note_on_c, 0, 77, 45
2, 53700, Note_on_c, 0, 86, 45
2, 53720, Control_c, 0, 11, 83
2, 53730, Note_on_c, 0, 74, 0
2, 53730, Note_on_c, 0, 89, 0
2, 53740, Control_c, 0, 11, 80
2, 53760, Note_on_c, 0, 75, 45
2, 53760, Note_on_c, 0, 77, 0
2, 53760, Note_on_c, 0, 84, 45
2, 53760, Note_on_c, 0, 86, 0
2, 53970, Note_on_c, 0, 75, 0
2, 53970, Note_on_c, 0, 84, 0
2, 57540, Control_c, 0, 11, 110
2, 57600, Note_on_c, 0, 84, 45
2, 57600, Note_on_c, 0, 86, 45
2, 58050, Note_on_c, 0, 84, 0
2, 58050, Note_on_c, 0, 86, 0
2, 58080, Note_on_c, 0, 84, 45
2, 58080, Note_on_c, 0, 86, 45
2, 58470, Note_on_c, 0, 84, 0
2, 58470, Note_on_c, 0, 86, 0
2, 58500, Note_on_c, 0, 84, 45
2, 58500, Note_on_c, 0, 86, 45
2, 58545, Note_on_c, 0, 84, 0
2, 58545, Note_on_c, 0, 86, 0
2, 58560, Note_on_c, 0, 84, 45
2, 58560, Note_on_c, 0, 87, 45
2, 58610, Control_c, 0, 11, 109
2, 58630, Control_c, 0, 11, 108
2, 58650, Control_c, 0, 11, 108
2, 58670, Control_c, 0, 11, 107
2, 58690, Control_c, 0, 11, 106
2, 58710, Control_c, 0, 11, 106
2, 58730, Control_c, 0, 11, 105
2, 58750, Control_c, 0, 11, 105
2, 58770, Control_c, 0, 11, 104
2, 58790, Control_c, 0, 11, 103
2, 58810, Control_c, 0, 11, 103
2, 58830, Control_c, 0, 11, 102
2, 58850, Control_c, 0, 11, 101
2, 58870, Control_c, 0, 11, 101
2, 58890, Control_c, 0, 11, 100
2, 58910, Control_c, 0, 11, 100
2, 58930, Control_c, 0, 11, 99
2, 58950, Control_c, 0, 11, 98
2, 58970, Control_c, 0, 11, 98
2, 58990, Control_c, 0, 11, 97
2, 59010, Control_c, 0, 11, 96
2, 59030, Control_c, 0, 11, 96
2, 59060, Control_c, 0, 11, 95
2, 59080, Control_c, 0, 11, 94
2, 59100, Control_c, 0, 11, 94
2, 59120, Control_c, 0, 11, 93
2, 59140, Control_c, 0, 11, 92
2, 59160, Control_c, 0, 11, 92
2, 59180, Control_c, 0, 11, 91
2, 59200, Control_c, 0, 11, 90
2, 59220, Control_c, 0, 11, 90
2, 59240, Control_c, 0, 11, 89
2, 59260, Control_c, 0, 11, 89
2, 59280, Note_on_c, 0, 75, 45
2, 59280, Note_on_c, 0, 86, 45
2, 59280, Control_c, 0, 11, 88
2, 59300, Control_c, 0, 11, 87
2, 59310, Note_on_c, 0, 84, 0
2, 59310, Note_on_c, 0, 87, 0
2, 59320, Control_c, 0, 11, 87
2, 59340, Control_c, 0, 11, 86
2, 59360, Control_c, 0, 11, 85
2, 59380, Control_c, 0, 11, 85
2, 59400, Note_on_c, 0, 84, 45
2, 59400, Control_c, 0, 11, 84
2, 59420, Control_c, 0, 11, 84
2, 59430, Note_on_c, 0, 86, 0
2, 59440, Control_c, 0, 11, 83
2, 59460, Control_c, 0, 11, 82
2, 59480, Control_c, 0, 11, 81
2, 59490, Note_on_c, 0, 75, 0
2, 59490, Note_on_c, 0, 84, 0
2, 59500, Control_c, 0, 11, 80
2, 59520, Note_on_c, 0, 75, 45
2, 59520, Note_on_c, 0, 84, 45
2, 60000, Note_on_c, 0, 77, 45
2, 60000, Note_on_c, 0, 83, 45
2, 60030, Note_on_c, 0, 75, 0
2, 60030, Note_on_c, 0, 84, 0
2, 60450, Note_on_c, 0, 77, 0
2, 60450, Note_on_c, 0, 83, 0
2, 60480, Note_on_c, 0, 75, 45
2, 60480, Note_on_c, 0, 84, 45
2, 60720, Note_on_c, 0, 75, 0
2, 60720, Note_on_c, 0, 84, 0
2, 61440, Note_on_c, 0, 84, 45
2, 61440, Note_on_c, 0, 87, 45
2, 61920, Note_on_c, 0, 83, 45
2, 61920, Note_on_c, 0, 86, 45
2, 61950, Note_on_c, 0, 84, 0
2, 61950, Note_on_c, 0, 87, 0
2, 62340, Note_on_c, 0, 84, 45
2, 62350, Note_on_c, 0, 83, 0
2, 62350, Note_on_c, 0, 86, 0
2, 62377, Note_on_c, 0, 84, 0
2, 62400, Note_on_c, 0, 84, 45
2, 62640, Note_on_c, 0, 84, 0
2, 63120, Note_on_c, 0, 75, 45
2, 63120, Note_on_c, 0, 87, 45
2, 63120, Control_c, 0, 11, 80
2, 63130, Control_c, 0, 11, 83
2, 63140, Control_c, 0, 11, 86
2, 63150, Control_c, 0, 11, 90
2, 63160, Control_c, 0, 11, 93
2, 63170, Control_c, 0, 11, 96
2, 63180, Control_c, 0, 11, 100
2, 63190, Control_c, 0, 11, 103
2, 63200, Control_c, 0, 11, 106
2, 63360, Note_on_c, 0, 72, 45
2, 63360, Note_on_c, 0, 84, 45
2, 63390, Note_on_c, 0, 75, 0
2, 63390, Note_on_c, 0, 87, 0
2, 63570, Note_on_c, 0, 72, 0
2, 63570, Note_on_c, 0, 84, 0
2, 63600, Note_on_c, 0, 80, 45
2, 63765, Note_on_c, 0, 80, 0
2, 63780, Note_on_c, 0, 77, 45
2, 63825, Note_on_c, 0, 77, 0
2, 63840, Note_on_c, 0, 74, 45
2, 63930, Note_on_c, 0, 74, 0
2, 64080, Note_on_c, 0, 79, 45
2, 64170, Note_on_c, 0, 79, 0
2, 64317, Control_c, 0, 11, 80
2, 64320, Note_on_c, 0, 72, 45
2, 64410, Note_on_c, 0, 72, 0
2, 64800, Note_on_c, 0, 72, 45
2, 64800, Note_on_c, 0, 75, 45
2, 64890, Note_on_c, 0, 72, 0
2, 64890, Note_on_c, 0, 75, 0
2, 65280, Note_on_c, 0, 72, 45
2, 65520, Note_on_c, 0, 72, 0
2, 68160, Note_on_c, 0, 81, 55
2, 68640, Note_on_c, 0, 86, 55
2, 68670, Note_on_c, 0, 81, 0
2, 69090, Note_on_c, 0, 86, 0
2, 69120, Note_on_c, 0, 89, 55
2, 69675, Note_on_c, 0, 89, 0
2, 69680, Note_on_c, 0, 88, 55
2, 69725, Note_on_c, 0, 88, 0
2, 69760, Note_on_c, 0, 86, 55
2, 69805, Note_on_c, 0, 86, 0
2, 69840, Note_on_c, 0, 84, 55
2, 69885, Note_on_c, 0, 84, 0
2, 69920, Note_on_c, 0, 83, 55
2, 69965, Note_on_c, 0, 83, 0
2, 70000, Note_on_c, 0, 81, 55
2, 70045, Note_on_c, 0, 81, 0
2, 70080, Note_on_c, 0, 81, 55
2, 70200, Note_on_c, 0, 79, 55
2, 70230, Note_on_c, 0, 81, 0
2, 70560, Note_on_c, 0, 79, 0
2, 72600, Note_on_c, 0, 83, 75
2, 72720, Note_on_c, 0, 84, 76
2, 72750, Note_on_c, 0, 83, 0
2, 72840, Note_on_c, 0, 78, 78
2, 72870, Note_on_c, 0, 84, 0
2, 72945, Note_on_c, 0, 78, 0
2, 72960, Note_on_c, 0, 79, 80
2, 73590, Note_on_c, 0, 79, 0
2, 73680, Note_on_c, 0, 83, 80
2, 73680, Note_on_c, 0, 86, 80
2, 73770, Note_on_c, 0, 83, 0
2, 73770, Note_on_c, 0, 86, 0
2, 73920, Note_on_c, 0, 79, 80
2, 73920, Note_on_c, 0, 91, 80
2, 74550, Note_on_c, 0, 79, 0
2, 74550, Note_on_c, 0, 91, 0
2, 74640, Note_on_c, 0, 83, 80
2, 74640, Note_on_c, 0, 86, 80
2, 74730, Note_on_c, 0, 83, 0
2, 74730, Note_on_c, 0, 86, 0
2, 74880, Note_on_c, 0, 79, 80
2, 74880, Note_on_c, 0, 91, 80
2, 74970, Note_on_c, 0, 79, 0
2, 74970, Note_on_c, 0, 91, 0
2, 75120, Note_on_c, 0, 83, 80
2, 75120, Note_on_c, 0, 86, 80
2, 75210, Note_on_c, 0, 83, 0
2, 75210, Note_on_c, 0, 86, 0
2, 75360, Note_on_c, 0, 79, 80
2, 75360, Note_on_c, 0, 91, 80
2, 75450, Note_on_c, 0, 79, 0
2, 75450, Note_on_c, 0, 91, 0
2, 75600, Note_on_c, 0, 83, 80
2, 75600, Note_on_c, 0, 86, 80
2, 75690, Note_on_c, 0, 83, 0
2, 75690, Note_on_c, 0, 86, 0
2, 75840, Note_on_c, 0, 79, 80
2, 75840, Note_on_c, 0, 91, 80
2, 75930, Note_on_c, 0, 79, 0
2, 75930, Note_on_c, 0, 91, 0
2, 77760, Note_on_c, 0, 82, 55
2, 77760, Note_on_c, 0, 84, 55
2, 78720, Note_on_c, 0, 81, 55
2, 78720, Control_c, 0, 11, 80
2, 78750, Note_on_c, 0, 82, 0
2, 78790, Note_on_c, 0, 84, 0
2, 78790, Control_c, 0, 11, 81
2, 78800, Note_on_c, 0, 84, 55
2, 78850, Control_c, 0, 11, 82
2, 78870, Note_on_c, 0, 84, 0
2, 78880, Note_on_c, 0, 84, 55
2, 78920, Control_c, 0, 11, 83
2, 78950, Note_on_c, 0, 84, 0
2, 78960, Note_on_c, 0, 81, 0
2, 78960, Note_on_c, 0, 84, 55
2, 78980, Control_c, 0, 11, 84
2, 79030, Note_on_c, 0, 84, 0
2, 79040, Note_on_c, 0, 84, 55
2, 79040, Control_c, 0, 11, 85
2, 79110, Note_on_c, 0, 84, 0
2, 79110, Control_c, 0, 11, 86
2, 79120, Note_on_c, 0, 84, 55
2, 79170, Control_c, 0, 11, 87
2, 79190, Note_on_c, 0, 84, 0
2, 79240, Control_c, 0, 11, 88
2, 79280, Note_on_c, 0, 84, 55
2, 79300, Control_c, 0, 11, 89
2, 79350, Note_on_c, 0, 84, 0
2, 79360, Note_on_c, 0, 84, 55
2, 79360, Control_c, 0, 11, 90
2, 79430, Note_on_c, 0, 84, 0
2, 79430, Control_c, 0, 11, 91
2, 79440, Note_on_c, 0, 84, 55
2, 79490, Control_c, 0, 11, 92
2, 79510, Note_on_c, 0, 84, 0
2, 79520, Note_on_c, 0, 84, 55
2, 79560, Control_c, 0, 11, 93
2, 79590, Note_on_c, 0, 84, 0
2, 79600, Note_on_c, 0, 84, 55
2, 79620, Control_c, 0, 11, 94
2, 79670, Note_on_c, 0, 84, 0
2, 79680, Control_c, 0, 11, 95
2, 79750, Control_c, 0, 11, 96
2, 79760, Note_on_c, 0, 84, 55
2, 79810, Control_c, 0, 11, 97
2, 79830, Note_on_c, 0, 84, 0
2, 79840, Note_on_c, 0, 84, 55
2, 79880, Control_c, 0, 11, 98
2, 79910, Note_on_c, 0, 84, 0
2, 79920, Note_on_c, 0, 84, 55
2, 79940, Control_c, 0, 11, 99
2, 79990, Note_on_c, 0, 84, 0
2, 80000, Note_on_c, 0, 84, 55
2, 80000, Control_c, 0, 11, 100
2, 80070, Note_on_c, 0, 84, 0
2, 80070, Control_c, 0, 11, 101
2, 80080, Note_on_c, 0, 84, 55
2, 80130, Control_c, 0, 11, 102
2, 80150, Note_on_c, 0, 84, 0
2, 80200, Control_c, 0, 11, 103
2, 80240, Note_on_c, 0, 84, 55
2, 80260, Control_c, 0, 11, 104
2, 80310, Note_on_c, 0, 84, 0
2, 80320, Note_on_c, 0, 84, 55
2, 80320, Control_c, 0, 11, 105
2, 80390, Note_on_c, 0, 84, 0
2, 80390, Control_c, 0, 11, 106
2, 80400, Note_on_c, 0, 84, 55
2, 80450, Control_c, 0, 11, 107
2, 80470, Note_on_c, 0, 84, 0
2, 80480, Note_on_c, 0, 84, 55
2, 80520, Control_c, 0, 11, 108
2, 80550, Note_on_c, 0, 84, 0
2, 80560, Note_on_c, 0, 84, 55
2, 80580, Control_c, 0, 11, 110
2, 80630, Note_on_c, 0, 84, 0
2, 80634, Control_c, 0, 11, 80
2, 80640, Note_on_c, 0, 84, 55
2, 80685, Note_on_c, 0, 84, 0
2, 80720, Note_on_c, 0, 92, 55
2, 80800, Note_on_c, 0, 93, 55
2, 80810, Note_on_c, 0, 92, 0
2, 80870, Note_on_c, 0, 93, 0
2, 80960, Note_on_c, 0, 93, 55
2, 81040, Note_on_c, 0, 91, 55
2, 81050, Note_on_c, 0, 93, 0
2, 81110, Note_on_c, 0, 91, 0
2, 81200, Note_on_c, 0, 91, 55
2, 81280, Note_on_c, 0, 89, 55
2, 81290, Note_on_c, 0, 91, 0
2, 81350, Note_on_c, 0, 89, 0
2, 81440, Note_on_c, 0, 89, 55
2, 81520, Note_on_c, 0, 88, 55
2, 81530, Note_on_c, 0, 89, 0
2, 81590, Note_on_c, 0, 88, 0
2, 81680, Note_on_c, 0, 88, 55
2, 81760, Note_on_c, 0, 86, 55
2, 81770, Note_on_c, 0, 88, 0
2, 81830, Note_on_c, 0, 86, 0
2, 81920, Note_on_c, 0, 86, 55
2, 82000, Note_on_c, 0, 85, 55
2, 82010, Note_on_c, 0, 86, 0
2, 82070, Note_on_c, 0, 85, 0
2, 82160, Note_on_c, 0, 85, 55
2, 82240, Note_on_c, 0, 86, 55
2, 82250, Note_on_c, 0, 85, 0
2, 82310, Note_on_c, 0, 86, 0
2, 82400, Note_on_c, 0, 86, 55
2, 82480, Note_on_c, 0, 84, 55
2, 82490, Note_on_c, 0, 86, 0
2, 82550, Note_on_c, 0, 84, 0
2, 82560, Note_on_c, 0, 83, 55
2, 82800, Note_on_c, 0, 83, 0
2, 83040, Note_on_c, 0, 72, 55
2, 83085, Note_on_c, 0, 72, 0
2, 83120, Note_on_c, 0, 76, 55
2, 83165, Note_on_c, 0, 76, 0
2, 83200, Note_on_c, 0, 79, 55
2, 83245, Note_on_c, 0, 79, 0
2, 83280, Note_on_c, 0, 84, 55
2, 83325, Note_on_c, 0, 84, 0
2, 83360, Note_on_c, 0, 88, 55
2, 83405, Note_on_c, 0, 88, 0
2, 83440, Note_on_c, 0, 84, 55
2, 83485, Note_on_c, 0, 84, 0
2, 83520, Note_on_c, 0, 91, 55
2, 83760, Note_on_c, 0, 91, 0
2, 84000, Note_on_c, 0, 72, 55
2, 84045, Note_on_c, 0, 72, 0
2, 84080, Note_on_c, 0, 76, 55
2, 84125, Note_on_c, 0, 76, 0
2, 84160, Note_on_c, 0, 79, 55
2, 84205, Note_on_c, 0, 79, 0
2, 84240, Note_on_c, 0, 84, 55
2, 84285, Note_on_c, 0, 84, 0
2, 84320, Note_on_c, 0, 88, 55
2, 84365, Note_on_c, 0, 88, 0
2, 84400, Note_on_c, 0, 84, 55
2, 84445, Note_on_c, 0, 84, 0
2, 84480, Note_on_c, 0, 91, 55
2, 84525, Note_on_c, 0, 91, 0
2, 84560, Note_on_c, 0, 90, 55
2, 84605, Note_on_c, 0, 90, 0
2, 84640, Note_on_c, 0, 91, 55
2, 84685, Note_on_c, 0, 91, 0
2, 84720, Note_on_c, 0, 86, 55
2, 84765, Note_on_c, 0, 86, 0
2, 84800, Note_on_c, 0, 85, 55
2, 84845, Note_on_c, 0, 85, 0
2, 84880, Note_on_c, 0, 86, 55
2, 84925, Note_on_c, 0, 86, 0
2, 84960, Note_on_c, 0, 83, 55
2, 85005, Note_on_c, 0, 83, 0
2, 85040, Note_on_c, 0, 82, 55
2, 85085, Note_on_c, 0, 82, 0
2, 85120, Note_on_c, 0, 83, 55
2, 85165, Note_on_c, 0, 83, 0
2, 85200, Note_on_c, 0, 79, 55
2, 85245, Note_on_c, 0, 79, 0
2, 85280, Note_on_c, 0, 78, 55
2, 85325, Note_on_c, 0, 78, 0
2, 85360, Note_on_c, 0, 79, 55
2, 85405, Note_on_c, 0, 79, 0
2, 85440, Note_on_c, 0, 77, 55
2, 85680, Note_on_c, 0, 77, 0
2, 87440, Note_on_c, 0, 72, 55
2, 87485, Note_on_c, 0, 72, 0
2, 87520, Note_on_c, 0, 76, 55
2, 87565, Note_on_c, 0, 76, 0
2, 87600, Note_on_c, 0, 79, 55
2, 87645, Note_on_c, 0, 79, 0
2, 87680, Note_on_c, 0, 84, 55
2, 87725, Note_on_c, 0, 84, 0
2, 87760, Note_on_c, 0, 88, 55
2, 87805, Note_on_c, 0, 88, 0
2, 87840, Note_on_c, 0, 91, 55
2, 87885, Note_on_c, 0, 91, 0
2, 87920, Note_on_c, 0, 88, 55
2, 87965, Note_on_c, 0, 88, 0
2, 88000, Note_on_c, 0, 84, 55
2, 88045, Note_on_c, 0, 84, 0
2, 88080, Note_on_c, 0, 79, 55
2, 88125, Note_on_c, 0, 79, 0
2, 88160, Note_on_c, 0, 76, 55
2, 88205, Note_on_c, 0, 76, 0
2, 88240, Note_on_c, 0, 72, 55
2, 88285, Note_on_c, 0, 72, 0
2, 88320, Note_on_c, 0, 77, 55
2, 88560, Note_on_c, 0, 77, 0
2, 89280, Note_on_c, 0, 69, 55
2, 89325, Note_on_c, 0, 69, 0
2, 89360, Note_on_c, 0, 72, 55
2, 89405, Note_on_c, 0, 72, 0
2, 89440, Note_on_c, 0, 77, 55
2, 89485, Note_on_c, 0, 77, 0
2, 89520, Note_on_c, 0, 81, 55
2, 89565, Note_on_c, 0, 81, 0
2, 89600, Note_on_c, 0, 84, 55
2, 89645, Note_on_c, 0, 84, 0
2, 89680, Note_on_c, 0, 89, 55
2, 89725, Note_on_c, 0, 89, 0
2, 89760, Note_on_c, 0, 93, 55
2, 90000, Note_on_c, 0, 93, 0
2, 90320, Note_on_c, 0, 76, 55
2, 90365, Note_on_c, 0, 76, 0
2, 90400, Note_on_c, 0, 79, 56
2, 90445, Note_on_c, 0, 79, 0
2, 90480, Note_on_c, 0, 84, 56
2, 90525, Note_on_c, 0, 84, 0
2, 90560, Note_on_c, 0, 88, 57
2, 90605, Note_on_c, 0, 88, 0
2, 90640, Note_on_c, 0, 91, 57
2, 90685, Note_on_c, 0, 91, 0
2, 90800, Note_on_c, 0, 74, 58
2, 90845, Note_on_c, 0, 74, 0
2, 90880, Note_on_c, 0, 79, 59
2, 90925, Note_on_c, 0, 79, 0
2, 90960, Note_on_c, 0, 83, 59
2, 91005, Note_on_c, 0, 83, 0
2, 91040, Note_on_c, 0, 86, 60
2, 91085, Note_on_c, 0, 86, 0
2, 91120, Note_on_c, 0, 91, 60
2, 91165, Note_on_c, 0, 91, 0
2, 91280, Note_on_c, 0, 79, 61
2, 91325, Note_on_c, 0, 79, 0
2, 91360, Note_on_c, 0, 84, 62
2, 91405, Note_on_c, 0, 84, 0
2, 91440, Note_on_c, 0, 88, 62
2, 91485, Note_on_c, 0, 88, 0
2, 91520, Note_on_c, 0, 91, 63
2, 91565, Note_on_c, 0, 91, 0
2, 91600, Note_on_c, 0, 92, 63
2, 91645, Note_on_c, 0, 92, 0
2, 91680, Note_on_c, 0, 93, 64
2, 91800, Note_on_c, 0, 89, 65
2, 91830, Note_on_c, 0, 93, 0
2, 91920, Note_on_c, 0, 88, 65
2, 91950, Note_on_c, 0, 89, 0
2, 92040, Note_on_c, 0, 86, 66
2, 92070, Note_on_c, 0, 88, 0
2, 92160, Note_on_c, 0, 84, 67
2, 92160, Note_on_c, 0, 86, 0
2, 92370, Note_on_c, 0, 84, 0
2, 92400, Note_on_c, 0, 84, 69
2, 92400, Note_on_c, 0, 88, 69
2, 92880, Note_on_c, 0, 91, 72
2, 92910, Note_on_c, 0, 84, 0
2, 93090, Note_on_c, 0, 88, 0
2, 93090, Note_on_c, 0, 91, 0
2, 93120, Note_on_c, 0, 83, 73
2, 93120, Note_on_c, 0, 91, 73
2, 93810, Note_on_c, 0, 83, 0
2, 93810, Note_on_c, 0, 91, 0
2, 93840, Note_on_c, 0, 83, 78
2, 93840, Note_on_c, 0, 89, 78
2, 94020, Note_on_c, 0, 77, 79
2, 94020, Note_on_c, 0, 86, 79
2, 94035, Note_on_c, 0, 83, 0
2, 94035, Note_on_c, 0, 89, 0
2, 94065, Note_on_c, 0, 77, 0
2, 94065, Note_on_c, 0, 86, 0
2, 94080, Note_on_c, 0, 76, 80
2, 94080, Note_on_c, 0, 84, 80
2, 94710, Note_on_c, 0, 76, 0
2, 94710, Note_on_c, 0, 84, 0
2, 94800, Note_on_c, 0, 79, 80
2, 94800, Note_on_c, 0, 88, 80
2, 94890, Note_on_c, 0, 79, 0
2, 94890, Note_on_c, 0, 88, 0
2, 95040, Note_on_c, 0, 76, 80
2, 95040, Note_on_c, 0, 84, 80
2, 95670, Note_on_c, 0, 76, 0
2, 95670, Note_on_c, 0, 84, 0
2, 95760, Note_on_c, 0, 79, 80
2, 95760, Note_on_c, 0, 88, 80
2, 95850, Note_on_c, 0, 79, 0
2, 95850, Note_on_c, 0, 88, 0
2, 96000, Note_on_c, 0, 76, 80
2, 96000, Note_on_c, 0, 84, 80
2, 96090, Note_on_c, 0, 76, 0
2, 96090, Note_on_c, 0, 84, 0
2, 96240, Note_on_c, 0, 79, 80
2, 96240, Note_on_c, 0, 88, 80
2, 96330, Note_on_c, 0, 79, 0
2, 96330, Note_on_c, 0, 88, 0
2, 96480, Note_on_c, 0, 76, 80
2, 96480, Note_on_c, 0, 84, 80
2, 96570, Note_on_c, 0, 76, 0
2, 96570, Note_on_c, 0, 84, 0
2, 96720, Note_on_c, 0, 79, 80
2, 96720, Note_on_c, 0, 88, 80
2, 96810, Note_on_c, 0, 79, 0
2, 96810, Note_on_c, 0, 88, 0
2, 96960, Note_on_c, 0, 76, 80
2, 96960, Note_on_c, 0, 84, 80
2, 97050, Note_on_c, 0, 76, 0
2, 97050, Note_on_c, 0, 84, 0
2, 112320, Note_on_c, 0, 84, 70
2, 113250, Note_on_c, 0, 84, 0
2, 113280, Note_on_c, 0, 80, 70
2, 114210, Note_on_c, 0, 80, 0
2, 114240, Note_on_c, 0, 83, 70
2, 114930, Note_on_c, 0, 83, 0
2, 114960, Note_on_c, 0, 83, 70
2, 114980, Note_on_c, 0, 83, 0
2, 114980, Note_on_c, 0, 84, 70
2, 115000, Note_on_c, 0, 83, 70
2, 115000, Note_on_c, 0, 84, 0
2, 115020, Note_on_c, 0, 83, 0
2, 115020, Note_on_c, 0, 84, 70
2, 115040, Note_on_c, 0, 83, 70
2, 115040, Note_on_c, 0, 84, 0
2, 115060, Note_on_c, 0, 83, 0
2, 115060, Note_on_c, 0, 84, 70
2, 115080, Note_on_c, 0, 83, 70
2, 115080, Note_on_c, 0, 84, 0
2, 115100, Note_on_c, 0, 83, 0
2, 115100, Note_on_c, 0, 84, 70
2, 115120, Note_on_c, 0, 83, 70
2, 115120, Note_on_c, 0, 84, 0
2, 115140, Note_on_c, 0, 81, 70
2, 115140, Note_on_c, 0, 83, 0
2, 115170, Note_on_c, 0, 83, 70
2, 115175, Note_on_c, 0, 81, 0
2, 115200, Note_on_c, 0, 83, 0
2, 115200, Note_on_c, 0, 84, 70
2, 115890, Note_on_c, 0, 84, 0
2, 115920, Note_on_c, 0, 84, 70
2, 116130, Note_on_c, 0, 84, 0
2, 116160, Note_on_c, 0, 84, 70
2, 116400, Note_on_c, 0, 84, 0
2, 118320, Note_on_c, 0, 79, 70
2, 118560, Note_on_c, 0, 80, 70
2, 118590, Note_on_c, 0, 79, 0
2, 118800, Note_on_c, 0, 84, 70
2, 118830, Note_on_c, 0, 80, 0
2, 119280, Note_on_c, 0, 84, 0
2, 124800, Note_on_c, 0, 77, 70
2, 125280, Note_on_c, 0, 79, 70
2, 125310, Note_on_c, 0, 77, 0
2, 125520, Note_on_c, 0, 80, 70
2, 125550, Note_on_c, 0, 79, 0
2, 125730, Note_on_c, 0, 80, 0
2, 125760, Note_on_c, 0, 82, 70
2, 126450, Note_on_c, 0, 82, 0
2, 126480, Note_on_c, 0, 80, 70
2, 126690, Note_on_c, 0, 80, 0
2, 126720, Note_on_c, 0, 79, 70
2, 126960, Note_on_c, 0, 85, 70
2, 126990, Note_on_c, 0, 79, 0
2, 127200, Note_on_c, 0, 84, 70
2, 127230, Note_on_c, 0, 85, 0
2, 127440, Note_on_c, 0, 82, 70
2, 127470, Note_on_c, 0, 84, 0
2, 127650, Note_on_c, 0, 82, 0
2, 127680, Note_on_c, 0, 80, 70
2, 128850, Note_on_c, 0, 80, 0
2, 128880, Note_on_c, 0, 74, 70
2, 128880, Note_on_c, 0, 86, 70
2, 129120, Note_on_c, 0, 75, 70
2, 129120, Note_on_c, 0, 87, 70
2, 129150, Note_on_c, 0, 74, 0
2, 129150, Note_on_c, 0, 86, 0
2, 129360, Note_on_c, 0, 77, 70
2, 129360, Note_on_c, 0, 89, 70
2, 129390, Note_on_c, 0, 75, 0
2, 129390, Note_on_c, 0, 87, 0
2, 129570, Note_on_c, 0, 77, 0
2, 129570, Note_on_c, 0, 89, 0
2, 129600, Note_on_c, 0, 79, 70
2, 129600, Note_on_c, 0, 91, 70
2, 129840, Note_on_c, 0, 79, 0
2, 129840, Note_on_c, 0, 91, 0
2, 135480, Note_on_c, 0, 77, 70
2, 135480, Note_on_c, 0, 80, 70
2, 135540, Note_on_c, 0, 77, 0
2, 135540, Note_on_c, 0, 80, 0
2, 135600, Note_on_c, 0, 79, 70
2, 135600, Note_on_c, 0, 82, 70
2, 135660, Note_on_c, 0, 79, 0
2, 135660, Note_on_c, 0, 82, 0
2, 135720, Note_on_c, 0, 80, 70
2, 135720, Note_on_c, 0, 84, 70
2, 135780, Note_on_c, 0, 80, 0
2, 135780, Note_on_c, 0, 84, 0
2, 135840, Note_on_c, 0, 82, 70
2, 135840, Note_on_c, 0, 86, 70
2, 135900, Note_on_c, 0, 82, 0
2, 135900, Note_on_c, 0, 86, 0
2, 135960, Note_on_c, 0, 84, 70
2, 135960, Note_on_c, 0, 87, 70
2, 136020, Note_on_c, 0, 84, 0
2, 136020, Note_on_c, 0, 87, 0
2, 136080, Note_on_c, 0, 86, 70
2, 136080, Note_on_c, 0, 89, 70
2, 136140, Note_on_c, 0, 86, 0
2, 136140, Note_on_c, 0, 89, 0
2, 136200, Note_on_c, 0, 87, 70
2, 136200, Note_on_c, 0, 91, 70
2, 136260, Note_on_c, 0, 87, 0
2, 136260, Note_on_c, 0, 91, 0
2, 136320, Note_on_c, 0, 89, 70
2, 136320, Note_on_c, 0, 92, 70
2, 136560, Note_on_c, 0, 89, 0
2, 136560, Note_on_c, 0, 92, 0
2, 137400, Note_on_c, 0, 83, 70
2, 137460, Note_on_c, 0, 83, 0
2, 137520, Note_on_c, 0, 81, 70
2, 137580, Note_on_c, 0, 81, 0
2, 137640, Note_on_c, 0, 79, 70
2, 137640, Note_on_c, 0, 83, 70
2, 137700, Note_on_c, 0, 79, 0
2, 137700, Note_on_c, 0, 83, 0
2, 137760, Note_on_c, 0, 81, 70
2, 137760, Note_on_c, 0, 84, 70
2, 137820, Note_on_c, 0, 81, 0
2, 137820, Note_on_c, 0, 84, 0
2, 137880, Note_on_c, 0, 83, 70
2, 137880, Note_on_c, 0, 86, 70
2, 137940, Note_on_c, 0, 83, 0
2, 137940, Note_on_c, 0, 86, 0
2, 138000, Note_on_c, 0, 84, 70
2, 138000, Note_on_c, 0, 87, 70
2, 138060, Note_on_c, 0, 84, 0
2, 138060, Note_on_c, 0, 87, 0
2, 138120, Note_on_c, 0, 86, 70
2, 138120, Note_on_c, 0, 89, 70
2, 138180, Note_on_c, 0, 86, 0
2, 138180, Note_on_c, 0, 89, 0
2, 138240, Note_on_c, 0, 87, 70
2, 138240, Note_on_c, 0, 91, 70
2, 138450, Note_on_c, 0, 87, 0
2, 138450, Note_on_c, 0, 91, 0
2, 138480, Note_on_c, 0, 79, 70
2, 138480, Note_on_c, 0, 91, 70
2, 138930, Note_on_c, 0, 79, 0
2, 138930, Note_on_c, 0, 91, 0
2, 138960, Note_on_c, 0, 79, 70
2, 138960, Note_on_c, 0, 91, 70
2, 139080, Note_on_c, 0, 73, 70
2, 139080, Note_on_c, 0, 85, 70
2, 139110, Note_on_c, 0, 79, 0
2, 139110, Note_on_c, 0, 91, 0
2, 139170, Note_on_c, 0, 73, 0
2, 139170, Note_on_c, 0, 85, 0
2, 139200, Note_on_c, 0, 74, 70
2, 139200, Note_on_c, 0, 86, 70
2, 139440, Note_on_c, 0, 74, 0
2, 139440, Note_on_c, 0, 86, 0
2, 139680, Note_on_c, 0, 86, 70
2, 140160, Note_on_c, 0, 87, 70
2, 140610, Note_on_c, 0, 86, 0
2, 140640, Note_on_c, 0, 84, 70
2, 141090, Note_on_c, 0, 87, 0
2, 141120, Note_on_c, 0, 86, 70
2, 141570, Note_on_c, 0, 84, 0
2, 141600, Note_on_c, 0, 82, 70
2, 142050, Note_on_c, 0, 86, 0
2, 142080, Note_on_c, 0, 84, 70
2, 142530, Note_on_c, 0, 82, 0
2, 142560, Note_on_c, 0, 81, 70
2, 143250, Note_on_c, 0, 81, 0
2, 143250, Note_on_c, 0, 84, 0
2, 143280, Note_on_c, 0, 79, 70
2, 143280, Note_on_c, 0, 82, 70
2, 143490, Note_on_c, 0, 79, 0
2, 143490, Note_on_c, 0, 82, 0
2, 143520, Note_on_c, 0, 79, 70
2, 143520, Note_on_c, 0, 82, 70
2, 143730, Note_on_c, 0, 79, 0
2, 143730, Note_on_c, 0, 82, 0
2, 143760, Note_on_c, 0, 82, 70
2, 143760, Note_on_c, 0, 91, 70
2, 143970, Note_on_c, 0, 82, 0
2, 143970, Note_on_c, 0, 91, 0
2, 144000, Note_on_c, 0, 82, 70
2, 144000, Note_on_c, 0, 91, 70
2, 144090, Note_on_c, 0, 82, 0
2, 144090, Note_on_c, 0, 91, 0
2, 147360, Note_on_c, 0, 74, 45
2, 147360, Note_on_c, 0, 78, 45
2, 147840, Note_on_c, 0, 79, 45
2, 147870, Note_on_c, 0, 78, 0
2, 148080, Note_on_c, 0, 74, 0
2, 148080, Note_on_c, 0, 79, 0
2, 159360, Note_on_c, 0, 83, 65
2, 159360, Note_on_c, 0, 86, 65
2, 160770, Note_on_c, 0, 83, 0
2, 160770, Note_on_c, 0, 86, 0
2, 160800, Note_on_c, 0, 74, 65
2, 160845, Note_on_c, 0, 74, 0
2, 160880, Note_on_c, 0, 77, 65
2, 160925, Note_on_c, 0, 77, 0
2, 160960, Note_on_c, 0, 80, 65
2, 161005, Note_on_c, 0, 80, 0
2, 161040, Note_on_c, 0, 71, 65
2, 161040, Note_on_c, 0, 83, 65
2, 161085, Note_on_c, 0, 71, 0
2, 161085, Note_on_c, 0, 83, 0
2, 161120, Note_on_c, 0, 74, 65
2, 161120, Note_on_c, 0, 86, 65
2, 161165, Note_on_c, 0, 74, 0
2, 161165, Note_on_c, 0, 86, 0
2, 161200, Note_on_c, 0, 77, 65
2, 161200, Note_on_c, 0, 89, 65
2, 161245, Note_on_c, 0, 77, 0
2, 161245, Note_on_c, 0, 89, 0
2, 161280, Note_on_c, 0, 80, 65
2, 161280, Note_on_c, 0, 92, 65
2, 161340, Note_on_c, 0, 92, 0
2, 161360, Note_on_c, 0, 92, 64
2, 161420, Note_on_c, 0, 92, 0
2, 161440, Note_on_c, 0, 92, 63
2, 161500, Note_on_c, 0, 92, 0
2, 161520, Note_on_c, 0, 80, 0
2, 161520, Note_on_c, 0, 92, 62
2, 161580, Note_on_c, 0, 92, 0
2, 161600, Note_on_c, 0, 92, 61
2, 161660, Note_on_c, 0, 92, 0
2, 161680, Note_on_c, 0, 92, 59
2, 161740, Note_on_c, 0, 92, 0
2, 161760, Note_on_c, 0, 92, 58
2, 161820, Note_on_c, 0, 92, 0
2, 161840, Note_on_c, 0, 92, 57
2, 161900, Note_on_c, 0, 92, 0
2, 161920, Note_on_c, 0, 92, 56
2, 161980, Note_on_c, 0, 92, 0
2, 162000, Note_on_c, 0, 91, 54
2, 162060, Note_on_c, 0, 91, 0
2, 162080, Note_on_c, 0, 91, 53
2, 162140, Note_on_c, 0, 91, 0
2, 162160, Note_on_c, 0, 91, 52
2, 162220, Note_on_c, 0, 91, 0
2, 162320, Note_on_c, 0, 90, 50
2, 162380, Note_on_c, 0, 90, 0
2, 162400, Note_on_c, 0, 90, 50
2, 162460, Note_on_c, 0, 90, 0
2, 162560, Note_on_c, 0, 91, 50
2, 162620, Note_on_c, 0, 91, 0
2, 162640, Note_on_c, 0, 91, 50
2, 162700, Note_on_c, 0, 91, 0
2, 162800, Note_on_c, 0, 92, 50
2, 162860, Note_on_c, 0, 92, 0
2, 162880, Note_on_c, 0, 92, 50
2, 162940, Note_on_c, 0, 92, 0
2, 163040, Note_on_c, 0, 91, 50
2, 163100, Note_on_c, 0, 91, 0
2, 163120, Note_on_c, 0, 91, 50
2, 163180, Note_on_c, 0, 91, 0
2, 163280, Note_on_c, 0, 89, 50
2, 163340, Note_on_c, 0, 89, 0
2, 163360, Note_on_c, 0, 89, 50
2, 163420, Note_on_c, 0, 89, 0
2, 163520, Note_on_c, 0, 87, 50
2, 163580, Note_on_c, 0, 87, 0
2, 163600, Note_on_c, 0, 87, 50
2, 163660, Note_on_c, 0, 87, 0
2, 163760, Note_on_c, 0, 86, 50
2, 163820, Note_on_c, 0, 86, 0
2, 163840, Note_on_c, 0, 86, 50
2, 163900, Note_on_c, 0, 86, 0
2, 164000, Note_on_c, 0, 84, 60
2, 164060, Note_on_c, 0, 84, 0
2, 164080, Note_on_c, 0, 84, 50
2, 164140, Note_on_c, 0, 84, 0
2, 164240, Note_on_c, 0, 83, 50
2, 164300, Note_on_c, 0, 83, 0
2, 164320, Note_on_c, 0, 83, 50
2, 164380, Note_on_c, 0, 83, 0
2, 164480, Note_on_c, 0, 80, 50
2, 164540, Note_on_c, 0, 80, 0
2, 164560, Note_on_c, 0, 80, 50
2, 164620, Note_on_c, 0, 80, 0
2, 164720, Note_on_c, 0, 79, 50
2, 164780, Note_on_c, 0, 79, 0
2, 164800, Note_on_c, 0, 79, 50
2, 164860, Note_on_c, 0, 79, 0
2, 164960, Note_on_c, 0, 83, 60
2, 165020, Note_on_c, 0, 83, 0
2, 165040, Note_on_c, 0, 83, 50
2, 165100, Note_on_c, 0, 83, 0
2, 165200, Note_on_c, 0, 79, 50
2, 165260, Note_on_c, 0, 79, 0
2, 165280, Note_on_c, 0, 79, 50
2, 165340, Note_on_c, 0, 79, 0
2, 165440, Note_on_c, 0, 86, 60
2, 165500, Note_on_c, 0, 86, 0
2, 165520, Note_on_c, 0, 86, 50
2, 165580, Note_on_c, 0, 86, 0
2, 165680, Note_on_c, 0, 79, 50
2, 165740, Note_on_c, 0, 79, 0
2, 165760, Note_on_c, 0, 79, 50
2, 165820, Note_on_c, 0, 79, 0
2, 165920, Note_on_c, 0, 91, 60
2, 165980, Note_on_c, 0, 91, 0
2, 166000, Note_on_c, 0, 91, 50
2, 166060, Note_on_c, 0, 91, 0
2, 166160, Note_on_c, 0, 79, 50
2, 166220, Note_on_c, 0, 79, 0
2, 166240, Note_on_c, 0, 79, 50
2, 166300, Note_on_c, 0, 79, 0
2, 166400, Note_on_c, 0, 80, 60
2, 166460, Note_on_c, 0, 80, 0
2, 166480, Note_on_c, 0, 80, 50
2, 166540, Note_on_c, 0, 80, 0
2, 166640, Note_on_c, 0, 79, 50
2, 166700, Note_on_c, 0, 79, 0
2, 166720, Note_on_c, 0, 79, 50
2, 166780, Note_on_c, 0, 79, 0
2, 166880, Note_on_c, 0, 84, 60
2, 166940, Note_on_c, 0, 84, 0
2, 166960, Note_on_c, 0, 84, 50
2, 167020, Note_on_c, 0, 84, 0
2, 167120, Note_on_c, 0, 79, 50
2, 167180, Note_on_c, 0, 79, 0
2, 167200, Note_on_c, 0, 79, 50
2, 167260, Note_on_c, 0, 79, 0
2, 167360, Note_on_c, 0, 87, 60
2, 167420, Note_on_c, 0, 87, 0
2, 167440, Note_on_c, 0, 87, 50
2, 167500, Note_on_c, 0, 87, 0
2, 167600, Note_on_c, 0, 79, 50
2, 167660, Note_on_c, 0, 79, 0
2, 167680, Note_on_c, 0, 79, 50
2, 167740, Note_on_c, 0, 79, 0
2, 167840, Note_on_c, 0, 91, 60
2, 167900, Note_on_c, 0, 91, 0
2, 167920, Note_on_c, 0, 91, 50
2, 167980, Note_on_c, 0, 91, 0
2, 168080, Note_on_c, 0, 79, 50
2, 168140, Note_on_c, 0, 79, 0
2, 168160, Note_on_c, 0, 79, 50
2, 168220, Note_on_c, 0, 79, 0
2, 168320, Note_on_c, 0, 80, 60
2, 168380, Note_on_c, 0, 80, 0
2, 168400, Note_on_c, 0, 80, 50
2, 168460, Note_on_c, 0, 80, 0
2, 168560, Note_on_c, 0, 79, 50
2, 168620, Note_on_c, 0, 79, 0
2, 168640, Note_on_c, 0, 79, 50
2, 168700, Note_on_c, 0, 79, 0
2, 168800, Note_on_c, 0, 84, 60
2, 168860, Note_on_c, 0, 84, 0
2, 168880, Note_on_c, 0, 84, 50
2, 168940, Note_on_c, 0, 84, 0
2, 169040, Note_on_c, 0, 79, 50
2, 169100, Note_on_c, 0, 79, 0
2, 169120, Note_on_c, 0, 79, 50
2, 169180, Note_on_c, 0, 79, 0
2, 169200, Note_on_c, 0, 78, 65
2, 169280, Note_on_c, 0, 87, 50
2, 169340, Note_on_c, 0, 87, 0
2, 169360, Note_on_c, 0, 87, 50
2, 169420, Note_on_c, 0, 87, 0
2, 169520, Note_on_c, 0, 79, 50
2, 169580, Note_on_c, 0, 79, 0
2, 169600, Note_on_c, 0, 79, 50
2, 169660, Note_on_c, 0, 79, 0
2, 169680, Note_on_c, 0, 79, 50
2, 169710, Note_on_c, 0, 78, 0
2, 169760, Note_on_c, 0, 91, 50
2, 169820, Note_on_c, 0, 91, 0
2, 169840, Note_on_c, 0, 91, 50
2, 169890, Note_on_c, 0, 79, 0
2, 169900, Note_on_c, 0, 91, 0
2, 170000, Note_on_c, 0, 77, 50
2, 170060, Note_on_c, 0, 77, 0
2, 170080, Note_on_c, 0, 77, 50
2, 170140, Note_on_c, 0, 77, 0
2, 170240, Note_on_c, 0, 86, 60
2, 170300, Note_on_c, 0, 86, 0
2, 170320, Note_on_c, 0, 86, 50
2, 170380, Note_on_c, 0, 86, 0
2, 170480, Note_on_c, 0, 83, 50
2, 170540, Note_on_c, 0, 83, 0
2, 170560, Note_on_c, 0, 83, 50
2, 170620, Note_on_c, 0, 83, 0
2, 170720, Note_on_c, 0, 89, 60
2, 170780, Note_on_c, 0, 89, 0
2, 170800, Note_on_c, 0, 89, 50
2, 170860, Note_on_c, 0, 89, 0
2, 170880, Control_c, 0, 11, 80
2, 170910, Control_c, 0, 11, 81
2, 170930, Control_c, 0, 11, 82
2, 170950, Control_c, 0, 11, 83
2, 170960, Note_on_c, 0, 86, 50
2, 170970, Control_c, 0, 11, 84
2, 170990, Control_c, 0, 11, 85
2, 171010, Control_c, 0, 11, 86
2, 171020, Note_on_c, 0, 86, 0
2, 171030, Control_c, 0, 11, 87
2, 171040, Note_on_c, 0, 86, 50
2, 171050, Control_c, 0, 11, 88
2, 171070, Control_c, 0, 11, 89
2, 171090, Control_c, 0, 11, 90
2, 171100, Note_on_c, 0, 86, 0
2, 171110, Control_c, 0, 11, 91
2, 171130, Control_c, 0, 11, 92
2, 171150, Control_c, 0, 11, 93
2, 171170, Control_c, 0, 11, 94
2, 171190, Control_c, 0, 11, 95
2, 171200, Note_on_c, 0, 92, 50
2, 171210, Control_c, 0, 11, 96
2, 171230, Control_c, 0, 11, 97
2, 171250, Control_c, 0, 11, 98
2, 171260, Note_on_c, 0, 92, 0
2, 171270, Control_c, 0, 11, 99
2, 171280, Note_on_c, 0, 92, 50
2, 171290, Control_c, 0, 11, 100
2, 171310, Control_c, 0, 11, 101
2, 171330, Control_c, 0, 11, 102
2, 171340, Note_on_c, 0, 92, 0
2, 171350, Control_c, 0, 11, 103
2, 171380, Control_c, 0, 11, 104
2, 171400, Control_c, 0, 11, 105
2, 171420, Control_c, 0, 11, 106
2, 171440, Note_on_c, 0, 92, 50
2, 171440, Control_c, 0, 11, 107
2, 171460, Control_c, 0, 11, 108
2, 171480, Control_c, 0, 11, 109
2, 171500, Note_on_c, 0, 92, 0
2, 171500, Control_c, 0, 11, 110
2, 171520, Note_on_c, 0, 92, 50
2, 171520, Control_c, 0, 11, 111
2, 171540, Control_c, 0, 11, 112
2, 171560, Control_c, 0, 11, 113
2, 171580, Note_on_c, 0, 92, 0
2, 171580, Control_c, 0, 11, 114
2, 171600, Control_c, 0, 11, 115
2, 171620, Control_c, 0, 11, 116
2, 171640, Control_c, 0, 11, 117
2, 171660, Control_c, 0, 11, 118
2, 171680, Note_on_c, 0, 92, 50
2, 171680, Control_c, 0, 11, 119
2, 171700, Control_c, 0, 11, 120
2, 171720, Control_c, 0, 11, 121
2, 171740, Note_on_c, 0, 92, 0
2, 171740, Control_c, 0, 11, 122
2, 171760, Note_on_c, 0, 92, 50
2, 171760, Control_c, 0, 11, 123
2, 171780, Control_c, 0, 11, 124
2, 171800, Control_c, 0, 11, 125
2, 171820, Note_on_c, 0, 92, 0
2, 171820, Control_c, 0, 11, 126
2, 171840, Control_c, 0, 11, 127
2, 171860, Control_c, 0, 11, 126
2, 171880, Control_c, 0, 11, 125
2, 171900, Control_c, 0, 11, 124
2, 171920, Note_on_c, 0, 92, 50
2, 171920, Control_c, 0, 11, 123
2, 171940, Control_c, 0, 11, 122
2, 171960, Control_c, 0, 11, 121
2, 171980, Note_on_c, 0, 92, 0
2, 171980, Control_c, 0, 11, 120
2, 172000, Note_on_c, 0, 92, 50
2, 172000, Control_c, 0, 11, 119
2, 172020, Control_c, 0, 11, 118
2, 172040, Control_c, 0, 11, 117
2, 172060, Note_on_c, 0, 92, 0
2, 172060, Control_c, 0, 11, 116
2, 172080, Control_c, 0, 11, 115
2, 172100, Control_c, 0, 11, 114
2, 172120, Control_c, 0, 11, 113
2, 172140, Control_c, 0, 11, 112
2, 172160, Note_on_c, 0, 89, 50
2, 172160, Control_c, 0, 11, 111
2, 172180, Control_c, 0, 11, 110
2, 172200, Control_c, 0, 11, 109
2, 172220, Note_on_c, 0, 89, 0
2, 172220, Control_c, 0, 11, 108
2, 172240, Note_on_c, 0, 89, 50
2, 172240, Control_c, 0, 11, 107
2, 172260, Control_c, 0, 11, 106
2, 172280, Control_c, 0, 11, 105
2, 172300, Note_on_c, 0, 89, 0
2, 172300, Control_c, 0, 11, 104
2, 172320, Control_c, 0, 11, 103
2, 172340, Control_c, 0, 11, 102
2, 172360, Control_c, 0, 11, 101
2, 172380, Control_c, 0, 11, 100
2, 172400, Note_on_c, 0, 87, 50
2, 172400, Control_c, 0, 11, 99
2, 172420, Control_c, 0, 11, 98
2, 172440, Control_c, 0, 11, 97
2, 172460, Note_on_c, 0, 87, 0
2, 172460, Control_c, 0, 11, 96
2, 172480, Note_on_c, 0, 87, 50
2, 172480, Control_c, 0, 11, 95
2, 172500, Control_c, 0, 11, 94
2, 172520, Control_c, 0, 11, 93
2, 172540, Note_on_c, 0, 87, 0
2, 172540, Control_c, 0, 11, 92
2, 172560, Control_c, 0, 11, 91
2, 172580, Control_c, 0, 11, 90
2, 172600, Control_c, 0, 11, 89
2, 172620, Control_c, 0, 11, 88
2, 172640, Note_on_c, 0, 86, 50
2, 172640, Control_c, 0, 11, 87
2, 172660, Control_c, 0, 11, 86
2, 172680, Control_c, 0, 11, 85
2, 172700, Note_on_c, 0, 86, 0
2, 172700, Control_c, 0, 11, 84
2, 172720, Note_on_c, 0, 86, 50
2, 172720, Control_c, 0, 11, 83
2, 172740, Control_c, 0, 11, 82
2, 172760, Control_c, 0, 11, 81
2, 172780, Note_on_c, 0, 86, 0
2, 172780, Control_c, 0, 11, 80
2, 172800, Note_on_c, 0, 87, 50
2, 173040, Note_on_c, 0, 87, 0
2, 178080, Note_on_c, 0, 72, 40
2, 178080, Note_on_c, 0, 84, 40
2, 178770, Note_on_c, 0, 72, 0
2, 178770, Note_on_c, 0, 84, 0
2, 178800, Note_on_c, 0, 72, 40
2, 178800, Note_on_c, 0, 84, 40
2, 179010, Note_on_c, 0, 72, 0
2, 179040, Note_on_c, 0, 78, 40
2, 179040, Note_on_c, 0, 87, 40
2, 179040, Control_c, 0, 11, 80
2, 179050, Control_c, 0, 11, 83
2, 179060, Control_c, 0, 11, 87
2, 179070, Note_on_c, 0, 84, 0
2, 179070, Control_c, 0, 11, 91
2, 179080, Control_c, 0, 11, 95
2, 179090, Control_c, 0, 11, 99
2, 179100, Control_c, 0, 11, 103
2, 179110, Control_c, 0, 11, 107
2, 179120, Control_c, 0, 11, 111
2, 179140, Control_c, 0, 11, 115
2, 179160, Control_c, 0, 11, 114
2, 179170, Control_c, 0, 11, 113
2, 179180, Control_c, 0, 11, 112
2, 179190, Control_c, 0, 11, 111
2, 179200, Control_c, 0, 11, 110
2, 179210, Control_c, 0, 11, 109
2, 179220, Control_c, 0, 11, 108
2, 179230, Control_c, 0, 11, 107
2, 179240, Control_c, 0, 11, 106
2, 179250, Note_on_c, 0, 78, 0
2, 179250, Control_c, 0, 11, 105
2, 179260, Control_c, 0, 11, 104
2, 179270, Control_c, 0, 11, 103
2, 179280, Note_on_c, 0, 75, 40
2, 179280, Note_on_c, 0, 84, 40
2, 179280, Control_c, 0, 11, 102
2, 179290, Control_c, 0, 11, 101
2, 179300, Control_c, 0, 11, 100
2, 179310, Note_on_c, 0, 87, 0
2, 179310, Control_c, 0, 11, 99
2, 179320, Control_c, 0, 11, 98
2, 179330, Control_c, 0, 11, 97
2, 179340, Control_c, 0, 11, 96
2, 179350, Control_c, 0, 11, 95
2, 179360, Control_c, 0, 11, 94
2, 179370, Note_on_c, 0, 75, 0
2, 179370, Control_c, 0, 11, 93
2, 179380, Control_c, 0, 11, 92
2, 179390, Control_c, 0, 11, 91
2, 179400, Note_on_c, 0, 72, 40
2, 179400, Control_c, 0, 11, 90
2, 179410, Control_c, 0, 11, 89
2, 179420, Control_c, 0, 11, 88
2, 179430, Control_c, 0, 11, 87
2, 179440, Control_c, 0, 11, 86
2, 179450, Control_c, 0, 11, 85
2, 179460, Control_c, 0, 11, 84
2, 179470, Control_c, 0, 11, 83
2, 179480, Control_c, 0, 11, 82
2, 179490, Note_on_c, 0, 72, 0
2, 179490, Control_c, 0, 11, 81
2, 179500, Control_c, 0, 11, 80
2, 179520, Note_on_c, 0, 71, 40
2, 179520, Note_on_c, 0, 83, 40
2, 179550, Note_on_c, 0, 84, 0
2, 179760, Note_on_c, 0, 71, 0
2, 179760, Note_on_c, 0, 83, 0
2, 181440, Note_on_c, 0, 91, 45
2, 181440, Control_c, 0, 11, 80
2, 181470, Control_c, 0, 11, 81
2, 181500, Control_c, 0, 11, 82
2, 181530, Control_c, 0, 11, 83
2, 181550, Control_c, 0, 11, 84
2, 181580, Control_c, 0, 11, 85
2, 181610, Control_c, 0, 11, 86
2, 181640, Control_c, 0, 11, 87
2, 181660, Control_c, 0, 11, 88
2, 181690, Control_c, 0, 11, 89
2, 181720, Control_c, 0, 11, 90
2, 181750, Control_c, 0, 11, 91
2, 181770, Control_c, 0, 11, 92
2, 181800, Control_c, 0, 11, 93
2, 181830, Control_c, 0, 11, 94
2, 181860, Control_c, 0, 11, 95
2, 181880, Control_c, 0, 11, 96
2, 181910, Control_c, 0, 11, 97
2, 181920, Note_on_c, 0, 79, 45
2, 181920, Note_on_c, 0, 86, 45
2, 181940, Control_c, 0, 11, 98
2, 181950, Note_on_c, 0, 91, 0
2, 181970, Control_c, 0, 11, 99
2, 181990, Control_c, 0, 11, 100
2, 182020, Control_c, 0, 11, 101
2, 182050, Control_c, 0, 11, 102
2, 182080, Control_c, 0, 11, 103
2, 182100, Control_c, 0, 11, 104
2, 182130, Control_c, 0, 11, 105
2, 182160, Note_on_c, 0, 89, 45
2, 182160, Control_c, 0, 11, 106
2, 182190, Note_on_c, 0, 86, 0
2, 182190, Control_c, 0, 11, 107
2, 182210, Control_c, 0, 11, 108
2, 182240, Control_c, 0, 11, 109
2, 182270, Control_c, 0, 11, 110
2, 182300, Control_c, 0, 11, 111
2, 182320, Control_c, 0, 11, 112
2, 182350, Control_c, 0, 11, 113
2, 182380, Control_c, 0, 11, 114
2, 182400, Note_on_c, 0, 87, 45
2, 182400, Control_c, 0, 11, 115
2, 182430, Note_on_c, 0, 89, 0
2, 182430, Control_c, 0, 11, 114
2, 182460, Control_c, 0, 11, 113
2, 182480, Control_c, 0, 11, 112
2, 182510, Control_c, 0, 11, 111
2, 182540, Control_c, 0, 11, 110
2, 182560, Control_c, 0, 11, 109
2, 182590, Control_c, 0, 11, 108
2, 182620, Control_c, 0, 11, 107
2, 182640, Control_c, 0, 11, 106
2, 182670, Control_c, 0, 11, 105
2, 182700, Control_c, 0, 11, 104
2, 182720, Control_c, 0, 11, 103
2, 182750, Control_c, 0, 11, 102
2, 182780, Control_c, 0, 11, 101
2, 182800, Control_c, 0, 11, 100
2, 182830, Control_c, 0, 11, 99
2, 182860, Control_c, 0, 11, 98
2, 182880, Note_on_c, 0, 86, 45
2, 182880, Control_c, 0, 11, 97
2, 182910, Note_on_c, 0, 87, 0
2, 182910, Control_c, 0, 11, 96
2, 182940, Control_c, 0, 11, 95
2, 182960, Control_c, 0, 11, 94
2, 182990, Control_c, 0, 11, 93
2, 183020, Control_c, 0, 11, 92
2, 183040, Control_c, 0, 11, 91
2, 183070, Control_c, 0, 11, 90
2, 183090, Note_on_c, 0, 79, 0
2, 183100, Control_c, 0, 11, 89
2, 183120, Note_on_c, 0, 78, 45
2, 183120, Note_on_c, 0, 84, 45
2, 183120, Control_c, 0, 11, 88
2, 183150, Note_on_c, 0, 86, 0
2, 183150, Control_c, 0, 11, 87
2, 183180, Control_c, 0, 11, 86
2, 183200, Control_c, 0, 11, 85
2, 183230, Control_c, 0, 11, 84
2, 183260, Control_c, 0, 11, 83
2, 183280, Control_c, 0, 11, 82
2, 183310, Control_c, 0, 11, 81
2, 183340, Control_c, 0, 11, 80
2, 183360, Note_on_c, 0, 78, 0
2, 183360, Note_on_c, 0, 79, 45
2, 183360, Note_on_c, 0, 83, 45
2, 183360, Note_on_c, 0, 84, 0
2, 183600, Note_on_c, 0, 79, 0
2, 183600, Note_on_c, 0, 83, 0
2, 186360, Note_on_c, 0, 81, 54
2, 186480, Note_on_c, 0, 81, 0
2, 186480, Note_on_c, 0, 82, 55
2, 186600, Note_on_c, 0, 82, 0
2, 186600, Note_on_c, 0, 83, 56
2, 186720, Note_on_c, 0, 83, 0
2, 186720, Note_on_c, 0, 84, 57
2, 186840, Note_on_c, 0, 84, 0
2, 186840, Note_on_c, 0, 85, 58
2, 186960, Note_on_c, 0, 85, 0
2, 186960, Note_on_c, 0, 86, 59
2, 187080, Note_on_c, 0, 86, 0
2, 187080, Note_on_c, 0, 88, 60
2, 187200, Note_on_c, 0, 88, 0
2, 187200, Note_on_c, 0, 89, 45
2, 187440, Note_on_c, 0, 89, 0
2, 189120, Note_on_c, 0, 89, 45
2, 189570, Note_on_c, 0, 89, 0
2, 189600, Note_on_c, 0, 87, 54
2, 189660, Note_on_c, 0, 86, 55
2, 189690, Note_on_c, 0, 87, 0
2, 189810, Note_on_c, 0, 86, 0
2, 189840, Note_on_c, 0, 74, 58
2, 189840, Note_on_c, 0, 84, 58
2, 189900, Note_on_c, 0, 83, 60
2, 189930, Note_on_c, 0, 84, 0
2, 190050, Note_on_c, 0, 83, 0
2, 190080, Note_on_c, 0, 74, 0
2, 190080, Note_on_c, 0, 79, 75
2, 190080, Note_on_c, 0, 84, 75
2, 190170, Note_on_c, 0, 79, 0
2, 190170, Note_on_c, 0, 84, 0
2, 190320, Note_on_c, 0, 72, 70
2, 190320, Note_on_c, 0, 80, 70
2, 190410, Note_on_c, 0, 72, 0
2, 190410, Note_on_c, 0, 80, 0
2, 191280, Note_on_c, 0, 84, 48
2, 191280, Note_on_c, 0, 91, 48
2, 191520, Note_on_c, 0, 83, 46
2, 191550, Note_on_c, 0, 84, 0
2, 191730, Note_on_c, 0, 83, 0
2, 191730, Note_on_c, 0, 91, 0
2, 191760, Note_on_c, 0, 83, 43
2, 191760, Note_on_c, 0, 89, 43
2, 191940, Note_on_c, 0, 77, 41
2, 191940, Note_on_c, 0, 86, 41
2, 191955, Note_on_c, 0, 83, 0
2, 191955, Note_on_c, 0, 89, 0
2, 191985, Note_on_c, 0, 77, 0
2, 191985, Note_on_c, 0, 86, 0
2, 192000, Note_on_c, 0, 75, 40
2, 192000, Note_on_c, 0, 84, 40
2, 192240, Note_on_c, 0, 75, 0
2, 192240, Note_on_c, 0, 84, 0
2, 195780, Control_c, 0, 11, 110
2, 195840, Note_on_c, 0, 84, 45
2, 195840, Note_on_c, 0, 86, 45
2, 196290, Note_on_c, 0, 84, 0
2, 196290, Note_on_c, 0, 86, 0
2, 196320, Note_on_c, 0, 84, 45
2, 196320, Note_on_c, 0, 86, 45
2, 196710, Note_on_c, 0, 84, 0
2, 196710, Note_on_c, 0, 86, 0
2, 196740, Note_on_c, 0, 84, 45
2, 196740, Note_on_c, 0, 86, 45
2, 196785, Note_on_c, 0, 84, 0
2, 196785, Note_on_c, 0, 86, 0
2, 196800, Note_on_c, 0, 84, 45
2, 196800, Note_on_c, 0, 87, 45
2, 196850, Control_c, 0, 11, 109
2, 196870, Control_c, 0, 11, 108
2, 196890, Control_c, 0, 11, 108
2, 196910, Control_c, 0, 11, 107
2, 196930, Control_c, 0, 11, 106
2, 196950, Control_c, 0, 11, 106
2, 196970, Control_c, 0, 11, 105
2, 196990, Control_c, 0, 11, 105
2, 197010, Control_c, 0, 11, 104
2, 197030, Control_c, 0, 11, 103
2, 197050, Control_c, 0, 11, 103
2, 197070, Control_c, 0, 11, 102
2, 197090, Control_c, 0, 11, 101
2, 197110, Control_c, 0, 11, 101
2, 197130, Control_c, 0, 11, 100
2, 197150, Control_c, 0, 11, 100
2, 197170, Control_c, 0, 11, 99
2, 197190, Control_c, 0, 11, 98
2, 197210, Control_c, 0, 11, 98
2, 197230, Control_c, 0, 11, 97
2, 197250, Control_c, 0, 11, 96
2, 197270, Control_c, 0, 11, 96
2, 197300, Control_c, 0, 11, 95
2, 197320, Control_c, 0, 11, 94
2, 197340, Control_c, 0, 11, 94
2, 197360, Control_c, 0, 11, 93
2, 197380, Control_c, 0, 11, 92
2, 197400, Control_c, 0, 11, 92
2, 197420, Control_c, 0, 11, 91
2, 197440, Control_c, 0, 11, 90
2, 197460, Control_c, 0, 11, 90
2, 197480, Control_c, 0, 11, 89
2, 197500, Control_c, 0, 11, 89
2, 197520, Note_on_c, 0, 86, 45
2, 197520, Control_c, 0, 11, 88
2, 197540, Control_c, 0, 11, 87
2, 197550, Note_on_c, 0, 84, 0
2, 197550, Note_on_c, 0, 87, 0
2, 197560, Control_c, 0, 11, 87
2, 197580, Control_c, 0, 11, 86
2, 197600, Control_c, 0, 11, 85
2, 197620, Control_c, 0, 11, 85
2, 197640, Note_on_c, 0, 84, 45
2, 197640, Control_c, 0, 11, 84
2, 197660, Control_c, 0, 11, 84
2, 197670, Note_on_c, 0, 86, 0
2, 197680, Control_c, 0, 11, 83
2, 197700, Control_c, 0, 11, 82
2, 197720, Control_c, 0, 11, 81
2, 197730, Note_on_c, 0, 84, 0
2, 197740, Control_c, 0, 11, 80
2, 197760, Note_on_c, 0, 79, 45
2, 197760, Note_on_c, 0, 84, 45
2, 198240, Note_on_c, 0, 83, 45
2, 198270, Note_on_c, 0, 84, 0
2, 198690, Note_on_c, 0, 79, 0
2, 198690, Note_on_c, 0, 83, 0
2, 198720, Note_on_c, 0, 84, 45
2, 198930, Note_on_c, 0, 84, 0
2, 198960, Note_on_c, 0, 90, 50
2, 199440, Note_on_c, 0, 91, 50
2, 199470, Note_on_c, 0, 90, 0
2, 199650, Note_on_c, 0, 91, 0
2, 199680, Note_on_c, 0, 84, 45
2, 199680, Note_on_c, 0, 87, 45
2, 199680, Control_c, 0, 11, 80
2, 199710, Control_c, 0, 11, 81
2, 199740, Control_c, 0, 11, 82
2, 199770, Control_c, 0, 11, 83
2, 199790, Control_c, 0, 11, 84
2, 199820, Control_c, 0, 11, 85
2, 199850, Control_c, 0, 11, 86
2, 199880, Control_c, 0, 11, 87
2, 199900, Control_c, 0, 11, 88
2, 199930, Control_c, 0, 11, 89
2, 199960, Control_c, 0, 11, 90
2, 199990, Control_c, 0, 11, 91
2, 200010, Control_c, 0, 11, 92
2, 200040, Control_c, 0, 11, 93
2, 200070, Control_c, 0, 11, 94
2, 200100, Control_c, 0, 11, 95
2, 200120, Control_c, 0, 11, 96
2, 200150, Control_c, 0, 11, 97
2, 200160, Note_on_c, 0, 77, 45
2, 200160, Note_on_c, 0, 86, 45
2, 200180, Control_c, 0, 11, 98
2, 200190, Note_on_c, 0, 84, 0
2, 200190, Note_on_c, 0, 87, 0
2, 200210, Control_c, 0, 11, 99
2, 200230, Control_c, 0, 11, 100
2, 200260, Control_c, 0, 11, 101
2, 200290, Control_c, 0, 11, 102
2, 200320, Control_c, 0, 11, 103
2, 200340, Control_c, 0, 11, 104
2, 200370, Control_c, 0, 11, 105
2, 200400, Control_c, 0, 11, 106
2, 200430, Control_c, 0, 11, 107
2, 200450, Control_c, 0, 11, 108
2, 200480, Control_c, 0, 11, 109
2, 200510, Control_c, 0, 11, 110
2, 200540, Control_c, 0, 11, 111
2, 200560, Control_c, 0, 11, 112
2, 200580, Note_on_c, 0, 75, 45
2, 200580, Note_on_c, 0, 84, 45
2, 200590, Control_c, 0, 11, 113
2, 200595, Note_on_c, 0, 77, 0
2, 200595, Note_on_c, 0, 86, 0
2, 200620, Control_c, 0, 11, 115
2, 200625, Note_on_c, 0, 75, 0
2, 200625, Note_on_c, 0, 84, 0
2, 200640, Note_on_c, 0, 75, 45
2, 200640, Note_on_c, 0, 84, 45
2, 200880, Note_on_c, 0, 75, 0
2, 200880, Note_on_c, 0, 84, 0
2, 201540, Control_c, 0, 11, 80
2, 216960, Note_on_c, 0, 72, 45
2, 216960, Note_on_c, 0, 84, 45
2, 216960, Control_c, 0, 11, 80
2, 217010, Control_c, 0, 11, 81
2, 217060, Control_c, 0, 11, 82
2, 217100, Control_c, 0, 11, 83
2, 217150, Control_c, 0, 11, 84
2, 217200, Control_c, 0, 11, 85
2, 217240, Control_c, 0, 11, 86
2, 217290, Control_c, 0, 11, 87
2, 217340, Control_c, 0, 11, 88
2, 217380, Control_c, 0, 11, 89
2, 217430, Control_c, 0, 11, 90
2, 217470, Control_c, 0, 11, 91
2, 217520, Control_c, 0, 11, 92
2, 217570, Control_c, 0, 11, 93
2, 217610, Control_c, 0, 11, 94
2, 217650, Note_on_c, 0, 72, 0
2, 217650, Note_on_c, 0, 84, 0
2, 217660, Control_c, 0, 11, 95
2, 217680, Note_on_c, 0, 72, 45
2, 217680, Note_on_c, 0, 84, 45
2, 217710, Control_c, 0, 11, 96
2, 217750, Control_c, 0, 11, 97
2, 217800, Control_c, 0, 11, 98
2, 217850, Control_c, 0, 11, 99
2, 217890, Note_on_c, 0, 72, 0
2, 217890, Note_on_c, 0, 84, 0
2, 217890, Control_c, 0, 11, 100
2, 217920, Note_on_c, 0, 72, 45
2, 217920, Note_on_c, 0, 84, 45
2, 217940, Control_c, 0, 11, 101
2, 217980, Control_c, 0, 11, 102
2, 218010, Note_on_c, 0, 72, 0
2, 218010, Note_on_c, 0, 84, 0
2, 218030, Control_c, 0, 11, 103
2, 218080, Control_c, 0, 11, 104
2, 218120, Control_c, 0, 11, 105
2, 218160, Note_on_c, 0, 72, 45
2, 218160, Note_on_c, 0, 84, 45
2, 218170, Control_c, 0, 11, 106
2, 218220, Control_c, 0, 11, 107
2, 218250, Note_on_c, 0, 72, 0
2, 218250, Note_on_c, 0, 84, 0
2, 218260, Control_c, 0, 11, 108
2, 218310, Control_c, 0, 11, 109
2, 218360, Control_c, 0, 11, 110
2, 218400, Note_on_c, 0, 72, 45
2, 218400, Note_on_c, 0, 84, 45
2, 218400, Control_c, 0, 11, 111
2, 218450, Control_c, 0, 11, 112
2, 218490, Note_on_c, 0, 72, 0
2, 218490, Note_on_c, 0, 84, 0
2, 218490, Control_c, 0, 11, 113
2, 218540, Control_c, 0, 11, 114
2, 218590, Control_c, 0, 11, 115
2, 218630, Control_c, 0, 11, 116
2, 218640, Note_on_c, 0, 72, 45
2, 218640, Note_on_c, 0, 84, 45
2, 218680, Control_c, 0, 11, 117
2, 218730, Note_on_c, 0, 72, 0
2, 218730, Note_on_c, 0, 84, 0
2, 218730, Control_c, 0, 11, 118
2, 218770, Control_c, 0, 11, 119
2, 218820, Control_c, 0, 11, 120
2, 218874, Control_c, 0, 11, 80
2, 218880, Note_on_c, 0, 72, 45
2, 218880, Note_on_c, 0, 84, 45
2, 218970, Note_on_c, 0, 72, 0
2, 218970, Note_on_c, 0, 84, 0
2, 226560, Control_c, 0, 11, 80
2, 226590, Control_c, 0, 11, 81
2, 226610, Control_c, 0, 11, 82
2, 226630, Control_c, 0, 11, 83
2, 226650, Control_c, 0, 11, 84
2, 226670, Control_c, 0, 11, 85
2, 226690, Control_c, 0, 11, 86
2, 226710, Control_c, 0, 11, 87
2, 226730, Control_c, 0, 11, 88
2, 226750, Control_c, 0, 11, 89
2, 226770, Control_c, 0, 11, 90
2, 226790, Control_c, 0, 11, 91
2, 226810, Control_c, 0, 11, 92
2, 226830, Control_c, 0, 11, 93
2, 226850, Control_c, 0, 11, 94
2, 226870, Control_c, 0, 11, 95
2, 226880, Note_on_c, 0, 80, 45
2, 226890, Control_c, 0, 11, 96
2, 226910, Control_c, 0, 11, 97
2, 226930, Control_c, 0, 11, 98
2, 226950, Control_c, 0, 11, 99
2, 226960, Note_on_c, 0, 79, 45
2, 226970, Note_on_c, 0, 80, 0
2, 226970, Control_c, 0, 11, 100
2, 226990, Control_c, 0, 11, 101
2, 227010, Control_c, 0, 11, 102
2, 227020, Note_on_c, 0, 79, 0
2, 227030, Control_c, 0, 11, 103
2, 227040, Note_on_c, 0, 77, 45
2, 227060, Control_c, 0, 11, 104
2, 227080, Note_on_c, 0, 77, 0
2, 227080, Control_c, 0, 11, 105
2, 227100, Control_c, 0, 11, 106
2, 227120, Note_on_c, 0, 86, 45
2, 227120, Control_c, 0, 11, 107
2, 227140, Control_c, 0, 11, 108
2, 227160, Control_c, 0, 11, 109
2, 227180, Control_c, 0, 11, 110
2, 227200, Note_on_c, 0, 84, 45
2, 227200, Control_c, 0, 11, 111
2, 227210, Note_on_c, 0, 86, 0
2, 227220, Control_c, 0, 11, 112
2, 227240, Control_c, 0, 11, 113
2, 227260, Note_on_c, 0, 84, 0
2, 227260, Control_c, 0, 11, 114
2, 227280, Note_on_c, 0, 83, 45
2, 227280, Control_c, 0, 11, 115
2, 227300, Control_c, 0, 11, 116
2, 227320, Note_on_c, 0, 83, 0
2, 227320, Control_c, 0, 11, 117
2, 227340, Control_c, 0, 11, 118
2, 227360, Note_on_c, 0, 89, 45
2, 227360, Control_c, 0, 11, 119
2, 227380, Control_c, 0, 11, 120
2, 227400, Control_c, 0, 11, 121
2, 227420, Control_c, 0, 11, 122
2, 227440, Note_on_c, 0, 87, 45
2, 227440, Control_c, 0, 11, 123
2, 227450, Note_on_c, 0, 89, 0
2, 227460, Control_c, 0, 11, 124
2, 227480, Control_c, 0, 11, 125
2, 227500, Note_on_c, 0, 87, 0
2, 227500, Control_c, 0, 11, 126
2, 227520, Note_on_c, 0, 86, 45
2, 227520, Control_c, 0, 11, 127
2, 227540, Control_c, 0, 11, 126
2, 227560, Control_c, 0, 11, 125
2, 227580, Note_on_c, 0, 86, 0
2, 227580, Control_c, 0, 11, 124
2, 227600, Control_c, 0, 11, 123
2, 227620, Control_c, 0, 11, 122
2, 227640, Note_on_c, 0, 84, 45
2, 227640, Control_c, 0, 11, 121
2, 227660, Control_c, 0, 11, 120
2, 227680, Control_c, 0, 11, 119
2, 227700, Note_on_c, 0, 84, 0
2, 227700, Control_c, 0, 11, 118
2, 227720, Control_c, 0, 11, 117
2, 227740, Control_c, 0, 11, 116
2, 227760, Note_on_c, 0, 83, 45
2, 227760, Control_c, 0, 11, 115
2, 227780, Control_c, 0, 11, 114
2, 227800, Control_c, 0, 11, 113
2, 227820, Note_on_c, 0, 83, 0
2, 227820, Control_c, 0, 11, 112
2, 227840, Control_c, 0, 11, 111
2, 227860, Control_c, 0, 11, 110
2, 227880, Note_on_c, 0, 80, 45
2, 227880, Control_c, 0, 11, 109
2, 227900, Control_c, 0, 11, 108
2, 227920, Control_c, 0, 11, 107
2, 227940, Note_on_c, 0, 80, 0
2, 227940, Control_c, 0, 11, 106
2, 227960, Control_c, 0, 11, 105
2, 227980, Control_c, 0, 11, 104
2, 228000, Note_on_c, 0, 79, 45
2, 228000, Control_c, 0, 11, 103
2, 228020, Control_c, 0, 11, 102
2, 228040, Control_c, 0, 11, 101
2, 228060, Note_on_c, 0, 79, 0
2, 228060, Control_c, 0, 11, 100
2, 228080, Control_c, 0, 11, 99
2, 228100, Control_c, 0, 11, 98
2, 228120, Note_on_c, 0, 77, 45
2, 228120, Control_c, 0, 11, 97
2, 228140, Control_c, 0, 11, 96
2, 228160, Control_c, 0, 11, 95
2, 228180, Note_on_c, 0, 77, 0
2, 228180, Control_c, 0, 11, 94
2, 228200, Control_c, 0, 11, 93
2, 228220, Control_c, 0, 11, 92
2, 228240, Note_on_c, 0, 75, 45
2, 228240, Control_c, 0, 11, 91
2, 228260, Control_c, 0, 11, 90
2, 228280, Control_c, 0, 11, 89
2, 228300, Note_on_c, 0, 75, 0
2, 228300, Control_c, 0, 11, 88
2, 228320, Control_c, 0, 11, 87
2, 228340, Control_c, 0, 11, 86
2, 228360, Note_on_c, 0, 74, 45
2, 228360, Control_c, 0, 11, 85
2, 228380, Control_c, 0, 11, 84
2, 228400, Control_c, 0, 11, 83
2, 228420, Note_on_c, 0, 74, 0
2, 228420, Control_c, 0, 11, 82
2, 228440, Control_c, 0, 11, 81
2, 228460, Control_c, 0, 11, 80
2, 228460, End_track
3, 0, Start_track
3, 0, Channel_prefix, 1
3, 0, Title_t, "Oboes   "
3, 0, Instrument_name_t, "Oboi    "
3, 8400, Note_on_c, 1, 67, 50
3, 8561, Note_on_c, 1, 67, 0
3, 8580, Note_on_c, 1, 67, 50
3, 8621, Note_on_c, 1, 67, 0
3, 8640, Note_on_c, 1, 67, 50
3, 9075, Note_on_c, 1, 67, 0
3, 9125, Note_on_c, 1, 74, 50
3, 9158, Note_on_c, 1, 72, 50
3, 9175, Note_on_c, 1, 74, 0
3, 9300, Note_on_c, 1, 71, 50
3, 9312, Note_on_c, 1, 72, 0
3, 9360, Note_on_c, 1, 72, 50
3, 9372, Note_on_c, 1, 71, 0
3, 9540, Note_on_c, 1, 74, 50
3, 9560, Note_on_c, 1, 72, 0
3, 9600, Note_on_c, 1, 75, 50
3, 9605, Note_on_c, 1, 74, 0
3, 10080, Note_on_c, 1, 72, 50
3, 10105, Note_on_c, 1, 75, 0
3, 10363, Note_on_c, 1, 72, 0
3, 10560, Note_on_c, 1, 79, 50
3, 11005, Note_on_c, 1, 79, 0
3, 11040, Note_on_c, 1, 77, 50
3, 11100, Note_on_c, 1, 75, 50
3, 11128, Note_on_c, 1, 77, 0
3, 11280, Note_on_c, 1, 74, 50
3, 11314, Note_on_c, 1, 75, 0
3, 11340, Note_on_c, 1, 72, 50
3, 11378, Note_on_c, 1, 74, 0
3, 11520, Note_on_c, 1, 75, 50
3, 11520, Control_c, 1, 11, 80
3, 11540, Control_c, 1, 11, 81
3, 11560, Control_c, 1, 11, 82
3, 11570, Control_c, 1, 11, 83
3, 11590, Control_c, 1, 11, 84
3, 11600, Control_c, 1, 11, 85
3, 11620, Control_c, 1, 11, 86
3, 11640, Control_c, 1, 11, 87
3, 11650, Control_c, 1, 11, 88
3, 11670, Control_c, 1, 11, 89
3, 11680, Control_c, 1, 11, 90
3, 11700, Control_c, 1, 11, 91
3, 11720, Control_c, 1, 11, 92
3, 11730, Control_c, 1, 11, 93
3, 11750, Control_c, 1, 11, 94
3, 11760, Control_c, 1, 11, 95
3, 11780, Control_c, 1, 11, 96
3, 11800, Control_c, 1, 11, 97
3, 11810, Control_c, 1, 11, 98
3, 11830, Control_c, 1, 11, 99
3, 11840, Control_c, 1, 11, 100
3, 11860, Control_c, 1, 11, 101
3, 11880, Control_c, 1, 11, 102
3, 11890, Control_c, 1, 11, 103
3, 11910, Control_c, 1, 11, 104
3, 11920, Control_c, 1, 11, 105
3, 11940, Control_c, 1, 11, 106
3, 11960, Control_c, 1, 11, 107
3, 11970, Control_c, 1, 11, 108
3, 11985, Note_on_c, 1, 72, 0
3, 11990, Control_c, 1, 11, 109
3, 12000, Note_on_c, 1, 71, 50
3, 12000, Note_on_c, 1, 74, 50
3, 12000, Control_c, 1, 11, 110
3, 12010, Control_c, 1, 11, 109
3, 12017, Note_on_c, 1, 75, 0
3, 12020, Control_c, 1, 11, 108
3, 12030, Control_c, 1, 11, 107
3, 12040, Control_c, 1, 11, 105
3, 12050, Control_c, 1, 11, 104
3, 12060, Control_c, 1, 11, 103
3, 12070, Control_c, 1, 11, 102
3, 12080, Control_c, 1, 11, 100
3, 12090, Control_c, 1, 11, 99
3, 12100, Control_c, 1, 11, 98
3, 12110, Control_c, 1, 11, 97
3, 12120, Control_c, 1, 11, 95
3, 12130, Control_c, 1, 11, 94
3, 12140, Control_c, 1, 11, 93
3, 12150, Control_c, 1, 11, 92
3, 12160, Control_c, 1, 11, 90
3, 12170, Control_c, 1, 11, 89
3, 12180, Control_c, 1, 11, 88
3, 12190, Control_c, 1, 11, 87
3, 12200, Control_c, 1, 11, 85
3, 12210, Control_c, 1, 11, 84
3, 12217, Note_on_c, 1, 71, 0
3, 12217, Note_on_c, 1, 74, 0
3, 12220, Control_c, 1, 11, 83
3, 12230, Control_c, 1, 11, 80
3, 12240, Note_on_c, 1, 74, 50
3, 12393, Note_on_c, 1, 74, 0
3, 12420, Note_on_c, 1, 74, 50
3, 12459, Note_on_c, 1, 74, 0
3, 12480, Note_on_c, 1, 74, 50
3, 12939, Note_on_c, 1, 74, 0
3, 12960, Note_on_c, 1, 74, 50
3, 13140, Note_on_c, 1, 75, 50
3, 13156, Note_on_c, 1, 74, 0
3, 13200, Note_on_c, 1, 77, 50
3, 13201, Note_on_c, 1, 75, 0
3, 13380, Note_on_c, 1, 79, 50
3, 13397, Note_on_c, 1, 77, 0
3, 13430, Note_on_c, 1, 79, 0
3, 13440, Note_on_c, 1, 80, 50
3, 13440, Control_c, 1, 11, 80
3, 13480, Control_c, 1, 11, 81
3, 13520, Control_c, 1, 11, 83
3, 13560, Control_c, 1, 11, 85
3, 13600, Control_c, 1, 11, 87
3, 13640, Control_c, 1, 11, 89
3, 13680, Control_c, 1, 11, 91
3, 13720, Control_c, 1, 11, 93
3, 13760, Control_c, 1, 11, 95
3, 13800, Control_c, 1, 11, 97
3, 13840, Control_c, 1, 11, 99
3, 13880, Control_c, 1, 11, 101
3, 13920, Control_c, 1, 11, 103
3, 13960, Control_c, 1, 11, 105
3, 14000, Control_c, 1, 11, 107
3, 14040, Control_c, 1, 11, 109
3, 14080, Control_c, 1, 11, 111
3, 14120, Control_c, 1, 11, 113
3, 14160, Control_c, 1, 11, 115
3, 14200, Control_c, 1, 11, 117
3, 14240, Control_c, 1, 11, 119
3, 14280, Control_c, 1, 11, 121
3, 14320, Control_c, 1, 11, 123
3, 14360, Control_c, 1, 11, 125
3, 14400, Control_c, 1, 11, 127
3, 14440, Control_c, 1, 11, 126
3, 14480, Control_c, 1, 11, 124
3, 14520, Control_c, 1, 11, 122
3, 14560, Control_c, 1, 11, 120
3, 14600, Control_c, 1, 11, 118
3, 14640, Note_on_c, 1, 77, 50
3, 14640, Control_c, 1, 11, 116
3, 14649, Note_on_c, 1, 80, 0
3, 14670, Control_c, 1, 11, 114
3, 14690, Control_c, 1, 11, 113
3, 14720, Control_c, 1, 11, 112
3, 14740, Control_c, 1, 11, 111
3, 14760, Control_c, 1, 11, 110
3, 14790, Control_c, 1, 11, 108
3, 14810, Control_c, 1, 11, 107
3, 14840, Control_c, 1, 11, 106
3, 14860, Control_c, 1, 11, 105
3, 14880, Note_on_c, 1, 75, 50
3, 14880, Control_c, 1, 11, 104
3, 14889, Note_on_c, 1, 77, 0
3, 14910, Control_c, 1, 11, 103
3, 14930, Control_c, 1, 11, 102
3, 14960, Control_c, 1, 11, 100
3, 14980, Control_c, 1, 11, 99
3, 15000, Control_c, 1, 11, 98
3, 15030, Control_c, 1, 11, 97
3, 15050, Control_c, 1, 11, 96
3, 15080, Control_c, 1, 11, 94
3, 15100, Control_c, 1, 11, 93
3, 15120, Note_on_c, 1, 74, 50
3, 15120, Control_c, 1, 11, 92
3, 15133, Note_on_c, 1, 75, 0
3, 15150, Control_c, 1, 11, 91
3, 15170, Control_c, 1, 11, 90
3, 15200, Control_c, 1, 11, 88
3, 15220, Control_c, 1, 11, 87
3, 15240, Control_c, 1, 11, 86
3, 15270, Control_c, 1, 11, 85
3, 15290, Control_c, 1, 11, 84
3, 15320, Control_c, 1, 11, 82
3, 15340, Control_c, 1, 11, 80
3, 15360, Note_on_c, 1, 75, 50
3, 15371, Note_on_c, 1, 74, 0
3, 15555, Note_on_c, 1, 75, 0
3, 15600, Note_on_c, 1, 75, 50
3, 15743, Note_on_c, 1, 75, 0
3, 15780, Note_on_c, 1, 75, 50
3, 15822, Note_on_c, 1, 75, 0
3, 15840, Note_on_c, 1, 75, 50
3, 16003, Note_on_c, 1, 75, 0
3, 35280, Note_on_c, 1, 70, 50
3, 35506, Note_on_c, 1, 70, 0
3, 35520, Note_on_c, 1, 75, 50
3, 36000, Note_on_c, 1, 74, 50
3, 36020, Note_on_c, 1, 75, 0
3, 36240, Note_on_c, 1, 72, 50
3, 36256, Note_on_c, 1, 74, 0
3, 36480, Note_on_c, 1, 70, 50
3, 36495, Note_on_c, 1, 72, 0
3, 36960, Control_c, 1, 11, 80
3, 37000, Control_c, 1, 11, 81
3, 37030, Control_c, 1, 11, 82
3, 37039, Note_on_c, 1, 70, 0
3, 37060, Control_c, 1, 11, 83
3, 37080, Note_on_c, 1, 70, 50
3, 37090, Control_c, 1, 11, 84
3, 37100, Note_on_c, 1, 70, 0
3, 37120, Control_c, 1, 11, 85
3, 37140, Note_on_c, 1, 72, 50
3, 37150, Control_c, 1, 11, 86
3, 37160, Note_on_c, 1, 72, 0
3, 37180, Control_c, 1, 11, 87
3, 37200, Note_on_c, 1, 74, 50
3, 37210, Control_c, 1, 11, 88
3, 37220, Note_on_c, 1, 74, 0
3, 37240, Control_c, 1, 11, 89
3, 37260, Note_on_c, 1, 75, 50
3, 37270, Control_c, 1, 11, 90
3, 37280, Note_on_c, 1, 75, 0
3, 37300, Control_c, 1, 11, 91
3, 37320, Note_on_c, 1, 77, 50
3, 37330, Control_c, 1, 11, 92
3, 37340, Note_on_c, 1, 77, 0
3, 37360, Control_c, 1, 11, 93
3, 37380, Note_on_c, 1, 79, 50
3, 37390, Control_c, 1, 11, 94
3, 37400, Note_on_c, 1, 79, 0
3, 37420, Control_c, 1, 11, 95
3, 37440, Note_on_c, 1, 80, 50
3, 37460, Control_c, 1, 11, 96
3, 37490, Control_c, 1, 11, 97
3, 37520, Control_c, 1, 11, 98
3, 37550, Control_c, 1, 11, 99
3, 37580, Control_c, 1, 11, 100
3, 37610, Control_c, 1, 11, 101
3, 37640, Control_c, 1, 11, 102
3, 37670, Control_c, 1, 11, 103
3, 37700, Control_c, 1, 11, 104
3, 37730, Control_c, 1, 11, 105
3, 37760, Control_c, 1, 11, 106
3, 37790, Control_c, 1, 11, 107
3, 37820, Control_c, 1, 11, 108
3, 37850, Control_c, 1, 11, 109
3, 37880, Control_c, 1, 11, 110
3, 37910, Control_c, 1, 11, 111
3, 37920, Note_on_c, 1, 79, 50
3, 37940, Note_on_c, 1, 80, 0
3, 37950, Control_c, 1, 11, 112
3, 37980, Control_c, 1, 11, 113
3, 38010, Control_c, 1, 11, 114
3, 38040, Control_c, 1, 11, 115
3, 38070, Control_c, 1, 11, 116
3, 38100, Control_c, 1, 11, 117
3, 38130, Control_c, 1, 11, 118
3, 38160, Note_on_c, 1, 72, 50
3, 38160, Note_on_c, 1, 77, 50
3, 38160, Control_c, 1, 11, 119
3, 38176, Note_on_c, 1, 79, 0
3, 38190, Control_c, 1, 11, 120
3, 38220, Control_c, 1, 11, 121
3, 38250, Control_c, 1, 11, 122
3, 38280, Control_c, 1, 11, 123
3, 38310, Control_c, 1, 11, 124
3, 38340, Control_c, 1, 11, 125
3, 38370, Control_c, 1, 11, 126
3, 38400, Note_on_c, 1, 73, 50
3, 38400, Note_on_c, 1, 76, 50
3, 38415, Note_on_c, 1, 72, 0
3, 38415, Note_on_c, 1, 77, 0
3, 38660, Note_on_c, 1, 73, 0
3, 38660, Note_on_c, 1, 76, 0
3, 38820, Note_on_c, 1, 79, 55
3, 38820, Note_on_c, 1, 82, 55
3, 38850, Note_on_c, 1, 79, 0
3, 38850, Note_on_c, 1, 82, 0
3, 38880, Note_on_c, 1, 79, 55
3, 38880, Note_on_c, 1, 82, 55
3, 39380, Note_on_c, 1, 79, 0
3, 39380, Note_on_c, 1, 82, 0
3, 39810, Control_c, 1, 11, 80
3, 39840, Note_on_c, 1, 77, 50
3, 39840, Note_on_c, 1, 80, 50
3, 40080, Note_on_c, 1, 75, 50
3, 40080, Note_on_c, 1, 79, 50
3, 40095, Note_on_c, 1, 77, 0
3, 40095, Note_on_c, 1, 80, 0
3, 40320, Note_on_c, 1, 78, 50
3, 40335, Note_on_c, 1, 79, 0
3, 40575, Note_on_c, 1, 75, 0
3, 40800, Note_on_c, 1, 72, 65
3, 40800, Note_on_c, 1, 84, 65
3, 40815, Note_on_c, 1, 78, 0
3, 41160, Note_on_c, 1, 78, 65
3, 41175, Note_on_c, 1, 84, 0
3, 41265, Note_on_c, 1, 78, 0
3, 41280, Note_on_c, 1, 71, 50
3, 41280, Note_on_c, 1, 79, 50
3, 41295, Note_on_c, 1, 72, 0
3, 41535, Note_on_c, 1, 71, 0
3, 42240, Note_on_c, 1, 72, 50
3, 42720, Note_on_c, 1, 71, 50
3, 42735, Note_on_c, 1, 72, 0
3, 42960, Note_on_c, 1, 72, 50
3, 42975, Note_on_c, 1, 71, 0
3, 43194, Note_on_c, 1, 72, 0
3, 43197, Note_on_c, 1, 79, 0
3, 43200, Note_on_c, 1, 74, 50
3, 43200, Note_on_c, 1, 79, 50
3, 43200, Control_c, 1, 11, 80
3, 43250, Control_c, 1, 11, 81
3, 43300, Control_c, 1, 11, 82
3, 43350, Control_c, 1, 11, 83
3, 43400, Control_c, 1, 11, 85
3, 43440, Control_c, 1, 11, 86
3, 43490, Control_c, 1, 11, 87
3, 43540, Control_c, 1, 11, 88
3, 43590, Control_c, 1, 11, 90
3, 43640, Control_c, 1, 11, 91
3, 43650, Note_on_c, 1, 74, 0
3, 43650, Note_on_c, 1, 79, 0
3, 43680, Note_on_c, 1, 74, 50
3, 43680, Control_c, 1, 11, 92
3, 43730, Control_c, 1, 11, 93
3, 43780, Control_c, 1, 11, 95
3, 43830, Control_c, 1, 11, 96
3, 43880, Control_c, 1, 11, 97
3, 43920, Note_on_c, 1, 77, 50
3, 43920, Control_c, 1, 11, 98
3, 43950, Note_on_c, 1, 74, 0
3, 43970, Control_c, 1, 11, 100
3, 44020, Control_c, 1, 11, 101
3, 44070, Control_c, 1, 11, 102
3, 44120, Control_c, 1, 11, 103
3, 44160, Note_on_c, 1, 75, 50
3, 44160, Control_c, 1, 11, 105
3, 44190, Note_on_c, 1, 77, 0
3, 44210, Control_c, 1, 11, 104
3, 44260, Control_c, 1, 11, 103
3, 44310, Control_c, 1, 11, 102
3, 44360, Control_c, 1, 11, 100
3, 44400, Control_c, 1, 11, 99
3, 44450, Control_c, 1, 11, 98
3, 44500, Control_c, 1, 11, 97
3, 44550, Control_c, 1, 11, 95
3, 44600, Control_c, 1, 11, 94
3, 44640, Note_on_c, 1, 74, 50
3, 44640, Control_c, 1, 11, 93
3, 44670, Note_on_c, 1, 75, 0
3, 44690, Control_c, 1, 11, 92
3, 44740, Control_c, 1, 11, 90
3, 44790, Control_c, 1, 11, 89
3, 44840, Control_c, 1, 11, 88
3, 44880, Note_on_c, 1, 72, 50
3, 44880, Control_c, 1, 11, 87
3, 44910, Note_on_c, 1, 74, 0
3, 44930, Control_c, 1, 11, 85
3, 44980, Control_c, 1, 11, 84
3, 45030, Control_c, 1, 11, 82
3, 45080, Control_c, 1, 11, 80
3, 45120, Note_on_c, 1, 71, 50
3, 45120, Note_on_c, 1, 72, 0
3, 45360, Note_on_c, 1, 71, 0
3, 47280, Note_on_c, 1, 77, 50
3, 47430, Note_on_c, 1, 77, 0
3, 47520, Note_on_c, 1, 77, 50
3, 47520, Control_c, 1, 11, 80
3, 47540, Control_c, 1, 11, 79
3, 47560, Control_c, 1, 11, 78
3, 47570, Control_c, 1, 11, 77
3, 47590, Control_c, 1, 11, 76
3, 47600, Control_c, 1, 11, 75
3, 47620, Control_c, 1, 11, 74
3, 47640, Control_c, 1, 11, 73
3, 47650, Control_c, 1, 11, 72
3, 47670, Note_on_c, 1, 77, 0
3, 47670, Control_c, 1, 11, 71
3, 47680, Control_c, 1, 11, 70
3, 47700, Control_c, 1, 11, 69
3, 47720, Control_c, 1, 11, 68
3, 47730, Control_c, 1, 11, 67
3, 47750, Control_c, 1, 11, 66
3, 47760, Note_on_c, 1, 77, 50
3, 47760, Control_c, 1, 11, 65
3, 47780, Control_c, 1, 11, 64
3, 47800, Control_c, 1, 11, 63
3, 47810, Control_c, 1, 11, 62
3, 47830, Control_c, 1, 11, 61
3, 47840, Control_c, 1, 11, 60
3, 47860, Control_c, 1, 11, 59
3, 47880, Control_c, 1, 11, 58
3, 47890, Control_c, 1, 11, 57
3, 47910, Note_on_c, 1, 77, 0
3, 47910, Control_c, 1, 11, 56
3, 47920, Control_c, 1, 11, 55
3, 47940, Control_c, 1, 11, 54
3, 47960, Control_c, 1, 11, 53
3, 47970, Control_c, 1, 11, 52
3, 47990, Control_c, 1, 11, 51
3, 48000, Note_on_c, 1, 77, 50
3, 48000, Control_c, 1, 11, 50
3, 48020, Control_c, 1, 11, 51
3, 48040, Control_c, 1, 11, 52
3, 48050, Control_c, 1, 11, 53
3, 48070, Control_c, 1, 11, 54
3, 48080, Control_c, 1, 11, 55
3, 48100, Control_c, 1, 11, 56
3, 48120, Control_c, 1, 11, 57
3, 48130, Control_c, 1, 11, 58
3, 48150, Control_c, 1, 11, 59
3, 48160, Control_c, 1, 11, 60
3, 48180, Control_c, 1, 11, 61
3, 48200, Control_c, 1, 11, 62
3, 48210, Control_c, 1, 11, 63
3, 48230, Control_c, 1, 11, 64
3, 48240, Control_c, 1, 11, 65
3, 48260, Control_c, 1, 11, 66
3, 48280, Control_c, 1, 11, 67
3, 48290, Control_c, 1, 11, 68
3, 48310, Control_c, 1, 11, 69
3, 48320, Control_c, 1, 11, 70
3, 48340, Control_c, 1, 11, 71
3, 48360, Control_c, 1, 11, 72
3, 48370, Control_c, 1, 11, 73
3, 48390, Control_c, 1, 11, 74
3, 48400, Control_c, 1, 11, 75
3, 48420, Control_c, 1, 11, 76
3, 48440, Control_c, 1, 11, 77
3, 48450, Control_c, 1, 11, 78
3, 48470, Control_c, 1, 11, 80
3, 48480, Note_on_c, 1, 76, 65
3, 48510, Note_on_c, 1, 77, 0
3, 48720, Note_on_c, 1, 72, 65
3, 48885, Note_on_c, 1, 72, 0
3, 48900, Note_on_c, 1, 72, 65
3, 48945, Note_on_c, 1, 72, 0
3, 48945, Note_on_c, 1, 76, 0
3, 48960, Note_on_c, 1, 72, 50
3, 48960, Note_on_c, 1, 77, 50
3, 49200, Note_on_c, 1, 77, 0
3, 49440, Note_on_c, 1, 72, 0
3, 49440, Note_on_c, 1, 79, 50
3, 49472, Note_on_c, 1, 77, 50
3, 49489, Note_on_c, 1, 79, 0
3, 49614, Note_on_c, 1, 76, 50
3, 49626, Note_on_c, 1, 77, 0
3, 49674, Note_on_c, 1, 77, 50
3, 49687, Note_on_c, 1, 76, 0
3, 49854, Note_on_c, 1, 79, 50
3, 49875, Note_on_c, 1, 77, 0
3, 49920, Note_on_c, 1, 79, 0
3, 49920, Note_on_c, 1, 80, 55
3, 50400, Note_on_c, 1, 77, 50
3, 50430, Note_on_c, 1, 80, 0
3, 50640, Note_on_c, 1, 77, 0
3, 50880, Note_on_c, 1, 65, 50
3, 50880, Note_on_c, 1, 77, 50
3, 50880, Control_c, 1, 11, 80
3, 50920, Control_c, 1, 11, 81
3, 50960, Control_c, 1, 11, 83
3, 51000, Control_c, 1, 11, 85
3, 51040, Control_c, 1, 11, 87
3, 51080, Control_c, 1, 11, 89
3, 51120, Control_c, 1, 11, 91
3, 51150, Control_c, 1, 11, 93
3, 51190, Control_c, 1, 11, 95
3, 51230, Control_c, 1, 11, 97
3, 51270, Control_c, 1, 11, 99
3, 51310, Control_c, 1, 11, 101
3, 51330, Note_on_c, 1, 77, 0
3, 51350, Control_c, 1, 11, 103
3, 51360, Note_on_c, 1, 75, 50
3, 51380, Control_c, 1, 11, 104
3, 51420, Note_on_c, 1, 74, 50
3, 51420, Control_c, 1, 11, 106
3, 51450, Note_on_c, 1, 75, 0
3, 51460, Control_c, 1, 11, 108
3, 51500, Control_c, 1, 11, 110
3, 51540, Control_c, 1, 11, 112
3, 51570, Note_on_c, 1, 65, 0
3, 51570, Note_on_c, 1, 74, 0
3, 51580, Control_c, 1, 11, 114
3, 51600, Note_on_c, 1, 62, 50
3, 51600, Note_on_c, 1, 72, 50
3, 51610, Control_c, 1, 11, 115
3, 51650, Control_c, 1, 11, 117
3, 51660, Note_on_c, 1, 71, 50
3, 51690, Note_on_c, 1, 72, 0
3, 51690, Control_c, 1, 11, 119
3, 51730, Control_c, 1, 11, 121
3, 51770, Control_c, 1, 11, 123
3, 51810, Note_on_c, 1, 71, 0
3, 51810, Control_c, 1, 11, 125
3, 51840, Note_on_c, 1, 62, 0
3, 51840, Note_on_c, 1, 67, 50
3, 51840, Note_on_c, 1, 72, 50
3, 51930, Note_on_c, 1, 67, 0
3, 51930, Note_on_c, 1, 72, 0
3, 52080, Note_on_c, 1, 72, 50
3, 52080, Note_on_c, 1, 80, 50
3, 52170, Note_on_c, 1, 72, 0
3, 52170, Note_on_c, 1, 80, 0
3, 52440, Control_c, 1, 11, 80
3, 52560, Note_on_c, 1, 78, 50
3, 52810, Control_c, 1, 11, 80
3, 52830, Control_c, 1, 11, 82
3, 52860, Control_c, 1, 11, 85
3, 52880, Control_c, 1, 11, 87
3, 52910, Control_c, 1, 11, 90
3, 52930, Control_c, 1, 11, 92
3, 52960, Control_c, 1, 11, 95
3, 52980, Control_c, 1, 11, 97
3, 53010, Note_on_c, 1, 78, 0
3, 53010, Control_c, 1, 11, 100
3, 53030, Control_c, 1, 11, 102
3, 53040, Note_on_c, 1, 79, 50
3, 53060, Control_c, 1, 11, 105
3, 53080, Control_c, 1, 11, 107
3, 53110, Control_c, 1, 11, 110
3, 53130, Control_c, 1, 11, 112
3, 53160, Control_c, 1, 11, 115
3, 53180, Control_c, 1, 11, 117
3, 53210, Control_c, 1, 11, 120
3, 53230, Control_c, 1, 11, 122
3, 53260, Control_c, 1, 11, 125
3, 53280, Control_c, 1, 11, 127
3, 53310, Control_c, 1, 11, 125
3, 53330, Control_c, 1, 11, 123
3, 53360, Control_c, 1, 11, 120
3, 53380, Control_c, 1, 11, 118
3, 53400, Control_c, 1, 11, 116
3, 53430, Control_c, 1, 11, 113
3, 53450, Control_c, 1, 11, 111
3, 53480, Control_c, 1, 11, 108
3, 53500, Control_c, 1, 11, 106
3, 53520, Note_on_c, 1, 77, 50
3, 53520, Control_c, 1, 11, 104
3, 53550, Note_on_c, 1, 79, 0
3, 53550, Control_c, 1, 11, 101
3, 53570, Control_c, 1, 11, 99
3, 53600, Control_c, 1, 11, 96
3, 53620, Control_c, 1, 11, 94
3, 53640, Control_c, 1, 11, 92
3, 53670, Control_c, 1, 11, 89
3, 53690, Control_c, 1, 11, 86
3, 53700, Note_on_c, 1, 74, 50
3, 53720, Control_c, 1, 11, 83
3, 53730, Note_on_c, 1, 77, 0
3, 53740, Control_c, 1, 11, 80
3, 53760, Note_on_c, 1, 72, 50
3, 53760, Note_on_c, 1, 74, 0
3, 53970, Note_on_c, 1, 72, 0
3, 57540, Control_c, 1, 11, 110
3, 57600, Note_on_c, 1, 72, 50
3, 57600, Note_on_c, 1, 80, 50
3, 58050, Note_on_c, 1, 72, 0
3, 58050, Note_on_c, 1, 80, 0
3, 58080, Note_on_c, 1, 72, 50
3, 58080, Note_on_c, 1, 80, 50
3, 58470, Note_on_c, 1, 72, 0
3, 58470, Note_on_c, 1, 80, 0
3, 58500, Note_on_c, 1, 72, 50
3, 58500, Note_on_c, 1, 80, 50
3, 58545, Note_on_c, 1, 72, 0
3, 58545, Note_on_c, 1, 80, 0
3, 58560, Note_on_c, 1, 72, 50
3, 58560, Note_on_c, 1, 81, 50
3, 58610, Control_c, 1, 11, 109
3, 58630, Control_c, 1, 11, 108
3, 58650, Control_c, 1, 11, 108
3, 58670, Control_c, 1, 11, 107
3, 58690, Control_c, 1, 11, 106
3, 58710, Control_c, 1, 11, 106
3, 58730, Control_c, 1, 11, 105
3, 58750, Control_c, 1, 11, 105
3, 58770, Control_c, 1, 11, 104
3, 58790, Control_c, 1, 11, 103
3, 58810, Control_c, 1, 11, 103
3, 58830, Control_c, 1, 11, 102
3, 58850, Control_c, 1, 11, 101
3, 58870, Control_c, 1, 11, 101
3, 58890, Control_c, 1, 11, 100
3, 58910, Control_c, 1, 11, 100
3, 58930, Control_c, 1, 11, 99
3, 58950, Control_c, 1, 11, 98
3, 58970, Control_c, 1, 11, 98
3, 58990, Control_c, 1, 11, 97
3, 59010, Control_c, 1, 11, 96
3, 59030, Control_c, 1, 11, 96
3, 59060, Control_c, 1, 11, 95
3, 59080, Control_c, 1, 11, 94
3, 59100, Control_c, 1, 11, 94
3, 59120, Control_c, 1, 11, 93
3, 59140, Control_c, 1, 11, 92
3, 59160, Control_c, 1, 11, 92
3, 59180, Control_c, 1, 11, 91
3, 59200, Control_c, 1, 11, 90
3, 59220, Control_c, 1, 11, 90
3, 59240, Control_c, 1, 11, 89
3, 59260, Control_c, 1, 11, 89
3, 59280, Control_c, 1, 11, 88
3, 59300, Control_c, 1, 11, 87
3, 59320, Control_c, 1, 11, 87
3, 59340, Control_c, 1, 11, 86
3, 59360, Control_c, 1, 11, 85
3, 59380, Control_c, 1, 11, 85
3, 59400, Control_c, 1, 11, 84
3, 59420, Control_c, 1, 11, 84
3, 59440, Control_c, 1, 11, 83
3, 59460, Control_c, 1, 11, 82
3, 59480, Control_c, 1, 11, 81
3, 59490, Note_on_c, 1, 72, 0
3, 59490, Note_on_c, 1, 81, 0
3, 59500, Control_c, 1, 11, 80
3, 59520, Note_on_c, 1, 72, 50
3, 59520, Note_on_c, 1, 75, 50
3, 59730, Note_on_c, 1, 75, 0
3, 59760, Note_on_c, 1, 79, 50
3, 60000, Note_on_c, 1, 74, 50
3, 60030, Note_on_c, 1, 72, 0
3, 60210, Note_on_c, 1, 79, 0
3, 60240, Note_on_c, 1, 79, 50
3, 60450, Note_on_c, 1, 74, 0
3, 60450, Note_on_c, 1, 79, 0
3, 60480, Note_on_c, 1, 75, 50
3, 60480, Note_on_c, 1, 79, 50
3, 60720, Note_on_c, 1, 75, 0
3, 60720, Note_on_c, 1, 79, 0
3, 61440, Note_on_c, 1, 72, 50
3, 61440, Note_on_c, 1, 75, 50
3, 61650, Note_on_c, 1, 75, 0
3, 61680, Note_on_c, 1, 79, 50
3, 61920, Note_on_c, 1, 71, 50
3, 61950, Note_on_c, 1, 72, 0
3, 62110, Note_on_c, 1, 79, 0
3, 62160, Note_on_c, 1, 79, 50
3, 62340, Note_on_c, 1, 72, 50
3, 62350, Note_on_c, 1, 71, 0
3, 62370, Note_on_c, 1, 79, 0
3, 62377, Note_on_c, 1, 72, 0
3, 62400, Note_on_c, 1, 72, 50
3, 62400, Note_on_c, 1, 79, 50
3, 62640, Note_on_c, 1, 72, 0
3, 62640, Note_on_c, 1, 79, 0
3, 66240, Note_on_c, 1, 72, 55
3, 66720, Note_on_c, 1, 76, 55
3, 66750, Note_on_c, 1, 72, 0
3, 67170, Note_on_c, 1, 76, 0
3, 67200, Note_on_c, 1, 79, 55
3, 67760, Note_on_c, 1, 77, 55
3, 67785, Note_on_c, 1, 79, 0
3, 67835, Note_on_c, 1, 77, 0
3, 67840, Note_on_c, 1, 76, 55
3, 67885, Note_on_c, 1, 76, 0
3, 67920, Note_on_c, 1, 74, 55
3, 67965, Note_on_c, 1, 74, 0
3, 68000, Note_on_c, 1, 72, 55
3, 68045, Note_on_c, 1, 72, 0
3, 68080, Note_on_c, 1, 71, 55
3, 68125, Note_on_c, 1, 71, 0
3, 68160, Note_on_c, 1, 71, 55
3, 68280, Note_on_c, 1, 69, 55
3, 68310, Note_on_c, 1, 71, 0
3, 68640, Note_on_c, 1, 69, 0
3, 71280, Note_on_c, 1, 77, 58
3, 71760, Note_on_c, 1, 76, 64
3, 71790, Note_on_c, 1, 77, 0
3, 71880, Note_on_c, 1, 74, 65
3, 71910, Note_on_c, 1, 76, 0
3, 71970, Note_on_c, 1, 74, 0
3, 72000, Note_on_c, 1, 74, 67
3, 72120, Note_on_c, 1, 72, 69
3, 72150, Note_on_c, 1, 74, 0
3, 72240, Note_on_c, 1, 71, 70
3, 72270, Note_on_c, 1, 72, 0
3, 72360, Note_on_c, 1, 69, 72
3, 72390, Note_on_c, 1, 71, 0
3, 72465, Note_on_c, 1, 69, 0
3, 72480, Note_on_c, 1, 67, 73
3, 72600, Note_on_c, 1, 74, 75
3, 72630, Note_on_c, 1, 67, 0
3, 72720, Note_on_c, 1, 72, 76
3, 72750, Note_on_c, 1, 74, 0
3, 72840, Note_on_c, 1, 69, 78
3, 72870, Note_on_c, 1, 72, 0
3, 72945, Note_on_c, 1, 69, 0
3, 72960, Note_on_c, 1, 67, 80
3, 72960, Note_on_c, 1, 71, 80
3, 73590, Note_on_c, 1, 67, 0
3, 73590, Note_on_c, 1, 71, 0
3, 73680, Note_on_c, 1, 74, 80
3, 73680, Note_on_c, 1, 83, 80
3, 73770, Note_on_c, 1, 74, 0
3, 73770, Note_on_c, 1, 83, 0
3, 73920, Note_on_c, 1, 71, 80
3, 73920, Note_on_c, 1, 79, 80
3, 74550, Note_on_c, 1, 71, 0
3, 74550, Note_on_c, 1, 79, 0
3, 74640, Note_on_c, 1, 74, 80
3, 74640, Note_on_c, 1, 83, 80
3, 74730, Note_on_c, 1, 74, 0
3, 74730, Note_on_c, 1, 83, 0
3, 74880, Note_on_c, 1, 71, 80
3, 74880, Note_on_c, 1, 79, 80
3, 74970, Note_on_c, 1, 71, 0
3, 74970, Note_on_c, 1, 79, 0
3, 75120, Note_on_c, 1, 74, 80
3, 75120, Note_on_c, 1, 83, 80
3, 75210, Note_on_c, 1, 74, 0
3, 75210, Note_on_c, 1, 83, 0
3, 75360, Note_on_c, 1, 71, 80
3, 75360, Note_on_c, 1, 79, 80
3, 75450, Note_on_c, 1, 71, 0
3, 75450, Note_on_c, 1, 79, 0
3, 75600, Note_on_c, 1, 74, 80
3, 75600, Note_on_c, 1, 83, 80
3, 75690, Note_on_c, 1, 74, 0
3, 75690, Note_on_c, 1, 83, 0
3, 75840, Note_on_c, 1, 71, 80
3, 75840, Note_on_c, 1, 79, 80
3, 75930, Note_on_c, 1, 71, 0
3, 75930, Note_on_c, 1, 79, 0
3, 76800, Note_on_c, 1, 70, 55
3, 76800, Note_on_c, 1, 72, 55
3, 78460, Note_on_c, 1, 72, 0
3, 78480, Note_on_c, 1, 76, 55
3, 78690, Note_on_c, 1, 70, 0
3, 78690, Note_on_c, 1, 76, 0
3, 78720, Note_on_c, 1, 69, 55
3, 78720, Note_on_c, 1, 77, 55
3, 78720, Control_c, 1, 11, 80
3, 78765, Note_on_c, 1, 77, 0
3, 78780, Note_on_c, 1, 69, 0
3, 78790, Control_c, 1, 11, 81
3, 78800, Note_on_c, 1, 69, 65
3, 78830, Note_on_c, 1, 69, 0
3, 78850, Control_c, 1, 11, 82
3, 78880, Note_on_c, 1, 72, 65
3, 78910, Note_on_c, 1, 72, 0
3, 78920, Control_c, 1, 11, 83
3, 78960, Note_on_c, 1, 72, 55
3, 78960, Note_on_c, 1, 77, 65
3, 78980, Control_c, 1, 11, 84
3, 78990, Note_on_c, 1, 77, 0
3, 79040, Note_on_c, 1, 81, 65
3, 79040, Control_c, 1, 11, 85
3, 79070, Note_on_c, 1, 81, 0
3, 79110, Control_c, 1, 11, 86
3, 79120, Note_on_c, 1, 84, 65
3, 79150, Note_on_c, 1, 84, 0
3, 79170, Note_on_c, 1, 72, 0
3, 79170, Control_c, 1, 11, 87
3, 79240, Control_c, 1, 11, 88
3, 79280, Note_on_c, 1, 82, 65
3, 79300, Control_c, 1, 11, 89
3, 79310, Note_on_c, 1, 82, 0
3, 79360, Note_on_c, 1, 79, 65
3, 79360, Control_c, 1, 11, 90
3, 79390, Note_on_c, 1, 79, 0
3, 79430, Control_c, 1, 11, 91
3, 79440, Note_on_c, 1, 72, 55
3, 79440, Note_on_c, 1, 76, 65
3, 79470, Note_on_c, 1, 76, 0
3, 79490, Control_c, 1, 11, 92
3, 79500, Note_on_c, 1, 72, 0
3, 79510, Note_on_c, 1, 72, 65
3, 79540, Note_on_c, 1, 72, 0
3, 79560, Control_c, 1, 11, 93
3, 79600, Note_on_c, 1, 70, 65
3, 79620, Control_c, 1, 11, 94
3, 79630, Note_on_c, 1, 70, 0
3, 79680, Control_c, 1, 11, 95
3, 79750, Control_c, 1, 11, 96
3, 79760, Note_on_c, 1, 69, 65
3, 79790, Note_on_c, 1, 69, 0
3, 79810, Control_c, 1, 11, 97
3, 79840, Note_on_c, 1, 72, 65
3, 79870, Note_on_c, 1, 72, 0
3, 79880, Control_c, 1, 11, 98
3, 79920, Note_on_c, 1, 72, 55
3, 79920, Note_on_c, 1, 77, 65
3, 79940, Control_c, 1, 11, 99
3, 79950, Note_on_c, 1, 77, 0
3, 80000, Note_on_c, 1, 81, 65
3, 80000, Control_c, 1, 11, 100
3, 80030, Note_on_c, 1, 81, 0
3, 80070, Control_c, 1, 11, 101
3, 80080, Note_on_c, 1, 84, 65
3, 80110, Note_on_c, 1, 84, 0
3, 80130, Note_on_c, 1, 72, 0
3, 80130, Control_c, 1, 11, 102
3, 80200, Control_c, 1, 11, 103
3, 80240, Note_on_c, 1, 82, 65
3, 80260, Control_c, 1, 11, 104
3, 80270, Note_on_c, 1, 82, 0
3, 80320, Note_on_c, 1, 79, 65
3, 80320, Control_c, 1, 11, 105
3, 80350, Note_on_c, 1, 79, 0
3, 80390, Control_c, 1, 11, 106
3, 80400, Note_on_c, 1, 72, 55
3, 80400, Note_on_c, 1, 76, 65
3, 80430, Note_on_c, 1, 76, 0
3, 80450, Control_c, 1, 11, 107
3, 80460, Note_on_c, 1, 72, 0
3, 80470, Note_on_c, 1, 72, 65
3, 80500, Note_on_c, 1, 72, 0
3, 80520, Control_c, 1, 11, 108
3, 80560, Note_on_c, 1, 70, 65
3, 80580, Control_c, 1, 11, 110
3, 80590, Note_on_c, 1, 70, 0
3, 80634, Control_c, 1, 11, 80
3, 80640, Note_on_c, 1, 69, 55
3, 80640, Note_on_c, 1, 72, 55
3, 80850, Note_on_c, 1, 69, 0
3, 80850, Note_on_c, 1, 72, 0
3, 81840, Note_on_c, 1, 67, 55
3, 81840, Note_on_c, 1, 82, 55
3, 82080, Note_on_c, 1, 69, 55
3, 82080, Note_on_c, 1, 81, 55
3, 82110, Note_on_c, 1, 67, 0
3, 82110, Note_on_c, 1, 82, 0
3, 82290, Note_on_c, 1, 69, 0
3, 82290, Note_on_c, 1, 81, 0
3, 82320, Note_on_c, 1, 69, 55
3, 82320, Note_on_c, 1, 81, 55
3, 82530, Note_on_c, 1, 69, 0
3, 82530, Note_on_c, 1, 81, 0
3, 82560, Note_on_c, 1, 71, 55
3, 82560, Note_on_c, 1, 74, 55
3, 82800, Note_on_c, 1, 71, 0
3, 82800, Note_on_c, 1, 74, 0
3, 83040, Note_on_c, 1, 60, 55
3, 83085, Note_on_c, 1, 60, 0
3, 83120, Note_on_c, 1, 64, 55
3, 83165, Note_on_c, 1, 64, 0
3, 83200, Note_on_c, 1, 67, 55
3, 83245, Note_on_c, 1, 67, 0
3, 83280, Note_on_c, 1, 72, 55
3, 83325, Note_on_c, 1, 72, 0
3, 83360, Note_on_c, 1, 76, 55
3, 83405, Note_on_c, 1, 76, 0
3, 83440, Note_on_c, 1, 72, 55
3, 83485, Note_on_c, 1, 72, 0
3, 83520, Note_on_c, 1, 79, 55
3, 83760, Note_on_c, 1, 79, 0
3, 84000, Note_on_c, 1, 60, 55
3, 84045, Note_on_c, 1, 60, 0
3, 84080, Note_on_c, 1, 64, 55
3, 84125, Note_on_c, 1, 64, 0
3, 84160, Note_on_c, 1, 67, 55
3, 84205, Note_on_c, 1, 67, 0
3, 84240, Note_on_c, 1, 72, 55
3, 84285, Note_on_c, 1, 72, 0
3, 84320, Note_on_c, 1, 76, 55
3, 84365, Note_on_c, 1, 76, 0
3, 84400, Note_on_c, 1, 72, 55
3, 84445, Note_on_c, 1, 72, 0
3, 84480, Note_on_c, 1, 79, 55
3, 84720, Note_on_c, 1, 79, 0
3, 85440, Note_on_c, 1, 67, 55
3, 86160, Note_on_c, 1, 69, 55
3, 86190, Note_on_c, 1, 67, 0
3, 86280, Note_on_c, 1, 71, 55
3, 86310, Note_on_c, 1, 69, 0
3, 86370, Note_on_c, 1, 71, 0
3, 86400, Note_on_c, 1, 72, 55
3, 86880, Note_on_c, 1, 76, 55
3, 86910, Note_on_c, 1, 72, 0
3, 87360, Note_on_c, 1, 79, 55
3, 87390, Note_on_c, 1, 76, 0
3, 88290, Note_on_c, 1, 79, 0
3, 88320, Note_on_c, 1, 77, 55
3, 88800, Note_on_c, 1, 81, 57
3, 88830, Note_on_c, 1, 77, 0
3, 89250, Note_on_c, 1, 81, 0
3, 89280, Note_on_c, 1, 84, 59
3, 89880, Note_on_c, 1, 81, 61
3, 89910, Note_on_c, 1, 84, 0
3, 90000, Note_on_c, 1, 77, 62
3, 90030, Note_on_c, 1, 81, 0
3, 90120, Note_on_c, 1, 74, 62
3, 90150, Note_on_c, 1, 77, 0
3, 90210, Note_on_c, 1, 74, 0
3, 90240, Note_on_c, 1, 74, 63
3, 90480, Note_on_c, 1, 72, 64
3, 90510, Note_on_c, 1, 74, 0
3, 90960, Note_on_c, 1, 71, 66
3, 90990, Note_on_c, 1, 72, 0
3, 91080, Note_on_c, 1, 79, 66
3, 91110, Note_on_c, 1, 71, 0
3, 91170, Note_on_c, 1, 79, 0
3, 91200, Note_on_c, 1, 79, 67
3, 91320, Note_on_c, 1, 78, 68
3, 91350, Note_on_c, 1, 79, 0
3, 91440, Note_on_c, 1, 79, 68
3, 91470, Note_on_c, 1, 78, 0
3, 91560, Note_on_c, 1, 80, 69
3, 91590, Note_on_c, 1, 79, 0
3, 91680, Note_on_c, 1, 81, 69
3, 91710, Note_on_c, 1, 80, 0
3, 91800, Note_on_c, 1, 77, 70
3, 91830, Note_on_c, 1, 81, 0
3, 91920, Note_on_c, 1, 76, 70
3, 91950, Note_on_c, 1, 77, 0
3, 92040, Note_on_c, 1, 74, 71
3, 92070, Note_on_c, 1, 76, 0
3, 92160, Note_on_c, 1, 72, 71
3, 92160, Note_on_c, 1, 74, 0
3, 92370, Note_on_c, 1, 72, 0
3, 92400, Note_on_c, 1, 72, 72
3, 92400, Note_on_c, 1, 76, 72
3, 92880, Note_on_c, 1, 79, 74
3, 92910, Note_on_c, 1, 72, 0
3, 93090, Note_on_c, 1, 76, 0
3, 93090, Note_on_c, 1, 79, 0
3, 93120, Note_on_c, 1, 77, 75
3, 93120, Note_on_c, 1, 79, 75
3, 93810, Note_on_c, 1, 77, 0
3, 93810, Note_on_c, 1, 79, 0
3, 93840, Note_on_c, 1, 74, 78
3, 93840, Note_on_c, 1, 77, 78
3, 94020, Note_on_c, 1, 71, 79
3, 94035, Note_on_c, 1, 74, 0
3, 94065, Note_on_c, 1, 71, 0
3, 94065, Note_on_c, 1, 77, 0
3, 94080, Note_on_c, 1, 64, 80
3, 94080, Note_on_c, 1, 72, 80
3, 94710, Note_on_c, 1, 64, 0
3, 94710, Note_on_c, 1, 72, 0
3, 94800, Note_on_c, 1, 76, 80
3, 94800, Note_on_c, 1, 79, 80
3, 94890, Note_on_c, 1, 76, 0
3, 94890, Note_on_c, 1, 79, 0
3, 95040, Note_on_c, 1, 72, 80
3, 95040, Note_on_c, 1, 76, 80
3, 95670, Note_on_c, 1, 72, 0
3, 95670, Note_on_c, 1, 76, 0
3, 95760, Note_on_c, 1, 76, 80
3, 95760, Note_on_c, 1, 79, 80
3, 95850, Note_on_c, 1, 76, 0
3, 95850, Note_on_c, 1, 79, 0
3, 96000, Note_on_c, 1, 72, 80
3, 96000, Note_on_c, 1, 76, 80
3, 96090, Note_on_c, 1, 72, 0
3, 96090, Note_on_c, 1, 76, 0
3, 96240, Note_on_c, 1, 76, 80
3, 96240, Note_on_c, 1, 79, 80
3, 96330, Note_on_c, 1, 76, 0
3, 96330, Note_on_c, 1, 79, 0
3, 96480, Note_on_c, 1, 72, 80
3, 96480, Note_on_c, 1, 76, 80
3, 96570, Note_on_c, 1, 72, 0
3, 96570, Note_on_c, 1, 76, 0
3, 96720, Note_on_c, 1, 76, 80
3, 96720, Note_on_c, 1, 79, 80
3, 96810, Note_on_c, 1, 76, 0
3, 96810, Note_on_c, 1, 79, 0
3, 96960, Note_on_c, 1, 72, 80
3, 96960, Note_on_c, 1, 76, 80
3, 97050, Note_on_c, 1, 72, 0
3, 97050, Note_on_c, 1, 76, 0
3, 115200, Note_on_c, 1, 76, 75
3, 115440, Note_on_c, 1, 72, 75
3, 115680, Note_on_c, 1, 77, 75
3, 115710, Note_on_c, 1, 76, 0
3, 115890, Note_on_c, 1, 72, 0
3, 115920, Note_on_c, 1, 72, 75
3, 115920, Note_on_c, 1, 79, 75
3, 115950, Note_on_c, 1, 77, 0
3, 116130, Note_on_c, 1, 72, 0
3, 116130, Note_on_c, 1, 79, 0
3, 116160, Note_on_c, 1, 72, 75
3, 116160, Note_on_c, 1, 77, 75
3, 116370, Note_on_c, 1, 72, 0
3, 116370, Note_on_c, 1, 77, 0
3, 118320, Note_on_c, 1, 67, 75
3, 118560, Note_on_c, 1, 68, 75
3, 118590, Note_on_c, 1, 67, 0
3, 118800, Note_on_c, 1, 72, 75
3, 118830, Note_on_c, 1, 68, 0
3, 119280, Note_on_c, 1, 72, 0
3, 124800, Note_on_c, 1, 77, 75
3, 125280, Note_on_c, 1, 79, 75
3, 125310, Note_on_c, 1, 77, 0
3, 125520, Note_on_c, 1, 80, 75
3, 125550, Note_on_c, 1, 79, 0
3, 125730, Note_on_c, 1, 80, 0
3, 125760, Note_on_c, 1, 82, 75
3, 126450, Note_on_c, 1, 82, 0
3, 126480, Note_on_c, 1, 82, 75
3, 126690, Note_on_c, 1, 82, 0
3, 126720, Note_on_c, 1, 79, 75
3, 126960, Note_on_c, 1, 76, 75
3, 126990, Note_on_c, 1, 79, 0
3, 127200, Note_on_c, 1, 77, 75
3, 127230, Note_on_c, 1, 76, 0
3, 127440, Note_on_c, 1, 79, 75
3, 127470, Note_on_c, 1, 77, 0
3, 127650, Note_on_c, 1, 79, 0
3, 127680, Note_on_c, 1, 80, 75
3, 127920, Note_on_c, 1, 79, 75
3, 128160, Note_on_c, 1, 77, 75
3, 128190, Note_on_c, 1, 79, 0
3, 128400, Note_on_c, 1, 75, 75
3, 128430, Note_on_c, 1, 77, 0
3, 128640, Note_on_c, 1, 74, 75
3, 128670, Note_on_c, 1, 75, 0
3, 128880, Note_on_c, 1, 84, 75
3, 128910, Note_on_c, 1, 80, 0
3, 129120, Note_on_c, 1, 75, 75
3, 129120, Note_on_c, 1, 82, 75
3, 129150, Note_on_c, 1, 74, 0
3, 129150, Note_on_c, 1, 84, 0
3, 129360, Note_on_c, 1, 77, 75
3, 129360, Note_on_c, 1, 80, 75
3, 129390, Note_on_c, 1, 75, 0
3, 129390, Note_on_c, 1, 82, 0
3, 129570, Note_on_c, 1, 77, 0
3, 129570, Note_on_c, 1, 80, 0
3, 129600, Note_on_c, 1, 79, 75
3, 129840, Note_on_c, 1, 79, 0
3, 132960, Note_on_c, 1, 75, 75
3, 134160, Note_on_c, 1, 74, 75
3, 134190, Note_on_c, 1, 75, 0
3, 134370, Note_on_c, 1, 74, 0
3, 134400, Note_on_c, 1, 72, 75
3, 134610, Note_on_c, 1, 72, 0
3, 134640, Note_on_c, 1, 75, 75
3, 134640, Note_on_c, 1, 79, 75
3, 134700, Note_on_c, 1, 75, 0
3, 134700, Note_on_c, 1, 79, 0
3, 134760, Note_on_c, 1, 74, 75
3, 134760, Note_on_c, 1, 77, 75
3, 134820, Note_on_c, 1, 74, 0
3, 134820, Note_on_c, 1, 77, 0
3, 134880, Note_on_c, 1, 72, 75
3, 134880, Note_on_c, 1, 75, 75
3, 134940, Note_on_c, 1, 72, 0
3, 134940, Note_on_c, 1, 75, 0
3, 135000, Note_on_c, 1, 70, 75
3, 135000, Note_on_c, 1, 74, 75
3, 135060, Note_on_c, 1, 70, 0
3, 135060, Note_on_c, 1, 74, 0
3, 135120, Note_on_c, 1, 68, 75
3, 135120, Note_on_c, 1, 72, 75
3, 135180, Note_on_c, 1, 68, 0
3, 135180, Note_on_c, 1, 72, 0
3, 135240, Note_on_c, 1, 67, 75
3, 135240, Note_on_c, 1, 70, 75
3, 135300, Note_on_c, 1, 67, 0
3, 135300, Note_on_c, 1, 70, 0
3, 135360, Note_on_c, 1, 65, 75
3, 135360, Note_on_c, 1, 68, 75
3, 135600, Note_on_c, 1, 65, 0
3, 135600, Note_on_c, 1, 68, 0
3, 136440, Note_on_c, 1, 77, 75
3, 136440, Note_on_c, 1, 80, 75
3, 136500, Note_on_c, 1, 77, 0
3, 136500, Note_on_c, 1, 80, 0
3, 136560, Note_on_c, 1, 77, 75
3, 136560, Note_on_c, 1, 80, 75
3, 136620, Note_on_c, 1, 77, 0
3, 136620, Note_on_c, 1, 80, 0
3, 136680, Note_on_c, 1, 75, 75
3, 136680, Note_on_c, 1, 79, 75
3, 136740, Note_on_c, 1, 75, 0
3, 136740, Note_on_c, 1, 79, 0
3, 136800, Note_on_c, 1, 74, 75
3, 136800, Note_on_c, 1, 77, 75
3, 136860, Note_on_c, 1, 74, 0
3, 136860, Note_on_c, 1, 77, 0
3, 136920, Note_on_c, 1, 72, 75
3, 136920, Note_on_c, 1, 75, 75
3, 136980, Note_on_c, 1, 72, 0
3, 136980, Note_on_c, 1, 75, 0
3, 137040, Note_on_c, 1, 71, 75
3, 137040, Note_on_c, 1, 74, 75
3, 137100, Note_on_c, 1, 71, 0
3, 137100, Note_on_c, 1, 74, 0
3, 137160, Note_on_c, 1, 69, 75
3, 137160, Note_on_c, 1, 72, 75
3, 137220, Note_on_c, 1, 69, 0
3, 137220, Note_on_c, 1, 72, 0
3, 137280, Note_on_c, 1, 67, 75
3, 137280, Note_on_c, 1, 71, 75
3, 137520, Note_on_c, 1, 67, 0
3, 137520, Note_on_c, 1, 71, 0
3, 138000, Note_on_c, 1, 67, 75
3, 138000, Note_on_c, 1, 79, 75
3, 138360, Note_on_c, 1, 66, 75
3, 138360, Note_on_c, 1, 78, 75
3, 138390, Note_on_c, 1, 67, 0
3, 138390, Note_on_c, 1, 79, 0
3, 138480, Note_on_c, 1, 67, 75
3, 138480, Note_on_c, 1, 79, 75
3, 138510, Note_on_c, 1, 66, 0
3, 138510, Note_on_c, 1, 78, 0
3, 138600, Note_on_c, 1, 69, 75
3, 138600, Note_on_c, 1, 81, 75
3, 138630, Note_on_c, 1, 67, 0
3, 138630, Note_on_c, 1, 79, 0
3, 138720, Note_on_c, 1, 70, 75
3, 138720, Note_on_c, 1, 82, 75
3, 138750, Note_on_c, 1, 69, 0
3, 138750, Note_on_c, 1, 81, 0
3, 138960, Note_on_c, 1, 67, 75
3, 138960, Note_on_c, 1, 79, 75
3, 138990, Note_on_c, 1, 70, 0
3, 138990, Note_on_c, 1, 82, 0
3, 139170, Note_on_c, 1, 67, 0
3, 139170, Note_on_c, 1, 79, 0
3, 139200, Note_on_c, 1, 66, 75
3, 139200, Note_on_c, 1, 78, 75
3, 139440, Note_on_c, 1, 66, 0
3, 139440, Note_on_c, 1, 78, 0
3, 139920, Note_on_c, 1, 74, 75
3, 140370, Note_on_c, 1, 74, 0
3, 140400, Note_on_c, 1, 72, 75
3, 140520, Note_on_c, 1, 70, 75
3, 140550, Note_on_c, 1, 72, 0
3, 140640, Note_on_c, 1, 68, 75
3, 140670, Note_on_c, 1, 70, 0
3, 140880, Note_on_c, 1, 72, 75
3, 140910, Note_on_c, 1, 68, 0
3, 141330, Note_on_c, 1, 72, 0
3, 141360, Note_on_c, 1, 70, 75
3, 141480, Note_on_c, 1, 69, 75
3, 141510, Note_on_c, 1, 70, 0
3, 141600, Note_on_c, 1, 67, 75
3, 141630, Note_on_c, 1, 69, 0
3, 141840, Note_on_c, 1, 70, 75
3, 141870, Note_on_c, 1, 67, 0
3, 142290, Note_on_c, 1, 70, 0
3, 142320, Note_on_c, 1, 69, 75
3, 142440, Note_on_c, 1, 67, 75
3, 142470, Note_on_c, 1, 69, 0
3, 142560, Note_on_c, 1, 66, 75
3, 142590, Note_on_c, 1, 67, 0
3, 142800, Note_on_c, 1, 69, 75
3, 142830, Note_on_c, 1, 66, 0
3, 143250, Note_on_c, 1, 69, 0
3, 143280, Note_on_c, 1, 74, 75
3, 143490, Note_on_c, 1, 74, 0
3, 143520, Note_on_c, 1, 67, 75
3, 143520, Note_on_c, 1, 74, 75
3, 143760, Note_on_c, 1, 70, 75
3, 143760, Note_on_c, 1, 79, 75
3, 143790, Note_on_c, 1, 67, 0
3, 143790, Note_on_c, 1, 74, 0
3, 143970, Note_on_c, 1, 70, 0
3, 143970, Note_on_c, 1, 79, 0
3, 144000, Note_on_c, 1, 76, 75
3, 144000, Note_on_c, 1, 79, 75
3, 144090, Note_on_c, 1, 76, 0
3, 144090, Note_on_c, 1, 79, 0
3, 147360, Note_on_c, 1, 72, 50
3, 147840, Note_on_c, 1, 70, 50
3, 147870, Note_on_c, 1, 72, 0
3, 148080, Note_on_c, 1, 70, 0
3, 159360, Note_on_c, 1, 74, 65
3, 159360, Note_on_c, 1, 77, 65
3, 160530, Note_on_c, 1, 74, 0
3, 160530, Note_on_c, 1, 77, 0
3, 160560, Note_on_c, 1, 74, 65
3, 160560, Note_on_c, 1, 77, 65
3, 160770, Note_on_c, 1, 74, 0
3, 160770, Note_on_c, 1, 77, 0
3, 160800, Note_on_c, 1, 74, 65
3, 160800, Note_on_c, 1, 77, 65
3, 161010, Note_on_c, 1, 74, 0
3, 161010, Note_on_c, 1, 77, 0
3, 161040, Note_on_c, 1, 74, 65
3, 161040, Note_on_c, 1, 77, 65
3, 161250, Note_on_c, 1, 74, 0
3, 161250, Note_on_c, 1, 77, 0
3, 161280, Note_on_c, 1, 74, 65
3, 161280, Note_on_c, 1, 77, 65
3, 161520, Note_on_c, 1, 74, 0
3, 161520, Note_on_c, 1, 77, 0
3, 166080, Note_on_c, 1, 72, 60
3, 166560, Note_on_c, 1, 72, 0
3, 166560, Note_on_c, 1, 74, 60
3, 166592, Note_on_c, 1, 72, 60
3, 166609, Note_on_c, 1, 74, 0
3, 166734, Note_on_c, 1, 71, 60
3, 166746, Note_on_c, 1, 72, 0
3, 166794, Note_on_c, 1, 72, 60
3, 166807, Note_on_c, 1, 71, 0
3, 166974, Note_on_c, 1, 74, 60
3, 166995, Note_on_c, 1, 72, 0
3, 167040, Note_on_c, 1, 74, 0
3, 167040, Note_on_c, 1, 75, 60
3, 167520, Note_on_c, 1, 72, 60
3, 167550, Note_on_c, 1, 75, 0
3, 167760, Note_on_c, 1, 72, 0
3, 168000, Note_on_c, 1, 79, 60
3, 168450, Note_on_c, 1, 79, 0
3, 168480, Note_on_c, 1, 77, 60
3, 168540, Note_on_c, 1, 75, 60
3, 168570, Note_on_c, 1, 77, 0
3, 168720, Note_on_c, 1, 74, 60
3, 168720, Note_on_c, 1, 75, 0
3, 168780, Note_on_c, 1, 72, 60
3, 168810, Note_on_c, 1, 74, 0
3, 168960, Note_on_c, 1, 72, 0
3, 168960, Note_on_c, 1, 75, 60
3, 169200, Note_on_c, 1, 66, 50
3, 169440, Note_on_c, 1, 74, 60
3, 169470, Note_on_c, 1, 75, 0
3, 169680, Note_on_c, 1, 67, 60
3, 169680, Note_on_c, 1, 74, 0
3, 169710, Note_on_c, 1, 66, 0
3, 169920, Note_on_c, 1, 67, 0
3, 169920, Note_on_c, 1, 74, 60
3, 170370, Note_on_c, 1, 74, 0
3, 170400, Note_on_c, 1, 74, 60
3, 170580, Note_on_c, 1, 75, 60
3, 170610, Note_on_c, 1, 74, 0
3, 170640, Note_on_c, 1, 77, 60
3, 170670, Note_on_c, 1, 75, 0
3, 170820, Note_on_c, 1, 79, 60
3, 170850, Note_on_c, 1, 77, 0
3, 170880, Note_on_c, 1, 79, 0
3, 170880, Note_on_c, 1, 80, 60
3, 170880, Control_c, 1, 11, 75
3, 170910, Control_c, 1, 11, 76
3, 170930, Control_c, 1, 11, 77
3, 170950, Control_c, 1, 11, 78
3, 170970, Control_c, 1, 11, 79
3, 170990, Control_c, 1, 11, 80
3, 171010, Control_c, 1, 11, 81
3, 171030, Control_c, 1, 11, 82
3, 171050, Control_c, 1, 11, 83
3, 171070, Control_c, 1, 11, 84
3, 171090, Control_c, 1, 11, 85
3, 171110, Control_c, 1, 11, 86
3, 171130, Control_c, 1, 11, 87
3, 171150, Control_c, 1, 11, 88
3, 171170, Control_c, 1, 11, 89
3, 171190, Control_c, 1, 11, 90
3, 171210, Control_c, 1, 11, 91
3, 171230, Control_c, 1, 11, 92
3, 171250, Control_c, 1, 11, 93
3, 171270, Control_c, 1, 11, 94
3, 171290, Control_c, 1, 11, 95
3, 171310, Control_c, 1, 11, 96
3, 171330, Control_c, 1, 11, 97
3, 171350, Control_c, 1, 11, 98
3, 171360, Note_on_c, 1, 77, 55
3, 171380, Control_c, 1, 11, 99
3, 171400, Control_c, 1, 11, 100
3, 171420, Control_c, 1, 11, 101
3, 171440, Control_c, 1, 11, 102
3, 171460, Control_c, 1, 11, 103
3, 171480, Control_c, 1, 11, 104
3, 171500, Control_c, 1, 11, 105
3, 171520, Control_c, 1, 11, 106
3, 171540, Control_c, 1, 11, 107
3, 171560, Control_c, 1, 11, 108
3, 171580, Control_c, 1, 11, 109
3, 171600, Control_c, 1, 11, 110
3, 171620, Control_c, 1, 11, 111
3, 171640, Control_c, 1, 11, 112
3, 171660, Control_c, 1, 11, 113
3, 171680, Control_c, 1, 11, 114
3, 171700, Control_c, 1, 11, 115
3, 171720, Control_c, 1, 11, 116
3, 171740, Control_c, 1, 11, 117
3, 171760, Control_c, 1, 11, 118
3, 171780, Control_c, 1, 11, 119
3, 171800, Control_c, 1, 11, 120
3, 171820, Control_c, 1, 11, 121
3, 171840, Control_c, 1, 11, 122
3, 171860, Control_c, 1, 11, 121
3, 171880, Control_c, 1, 11, 120
3, 171900, Control_c, 1, 11, 119
3, 171920, Control_c, 1, 11, 118
3, 171940, Control_c, 1, 11, 117
3, 171960, Control_c, 1, 11, 116
3, 171980, Control_c, 1, 11, 115
3, 172000, Control_c, 1, 11, 114
3, 172020, Control_c, 1, 11, 113
3, 172040, Control_c, 1, 11, 112
3, 172050, Note_on_c, 1, 77, 0
3, 172060, Control_c, 1, 11, 111
3, 172080, Note_on_c, 1, 70, 60
3, 172080, Note_on_c, 1, 77, 60
3, 172080, Control_c, 1, 11, 110
3, 172100, Control_c, 1, 11, 109
3, 172110, Note_on_c, 1, 80, 0
3, 172120, Control_c, 1, 11, 108
3, 172140, Control_c, 1, 11, 107
3, 172160, Control_c, 1, 11, 106
3, 172180, Control_c, 1, 11, 105
3, 172200, Control_c, 1, 11, 104
3, 172220, Control_c, 1, 11, 103
3, 172240, Control_c, 1, 11, 102
3, 172260, Control_c, 1, 11, 101
3, 172280, Control_c, 1, 11, 100
3, 172300, Control_c, 1, 11, 99
3, 172310, Note_on_c, 1, 70, 0
3, 172320, Note_on_c, 1, 70, 60
3, 172320, Note_on_c, 1, 75, 60
3, 172320, Control_c, 1, 11, 98
3, 172340, Control_c, 1, 11, 97
3, 172350, Note_on_c, 1, 77, 0
3, 172360, Control_c, 1, 11, 96
3, 172380, Control_c, 1, 11, 95
3, 172400, Control_c, 1, 11, 94
3, 172420, Control_c, 1, 11, 93
3, 172440, Control_c, 1, 11, 92
3, 172460, Control_c, 1, 11, 91
3, 172480, Control_c, 1, 11, 90
3, 172500, Control_c, 1, 11, 89
3, 172520, Control_c, 1, 11, 88
3, 172540, Control_c, 1, 11, 87
3, 172550, Note_on_c, 1, 70, 0
3, 172560, Note_on_c, 1, 70, 60
3, 172560, Note_on_c, 1, 74, 60
3, 172560, Control_c, 1, 11, 86
3, 172580, Control_c, 1, 11, 85
3, 172590, Note_on_c, 1, 75, 0
3, 172600, Control_c, 1, 11, 84
3, 172620, Control_c, 1, 11, 83
3, 172640, Control_c, 1, 11, 82
3, 172660, Control_c, 1, 11, 81
3, 172680, Control_c, 1, 11, 80
3, 172700, Control_c, 1, 11, 79
3, 172720, Control_c, 1, 11, 78
3, 172740, Control_c, 1, 11, 77
3, 172760, Control_c, 1, 11, 76
3, 172780, Control_c, 1, 11, 75
3, 172790, Note_on_c, 1, 70, 0
3, 172800, Note_on_c, 1, 70, 55
3, 172800, Note_on_c, 1, 74, 0
3, 172800, Note_on_c, 1, 75, 55
3, 173010, Note_on_c, 1, 70, 0
3, 173010, Note_on_c, 1, 75, 0
3, 173040, Note_on_c, 1, 72, 55
3, 173040, Note_on_c, 1, 75, 55
3, 173190, Note_on_c, 1, 72, 0
3, 173190, Note_on_c, 1, 75, 0
3, 173220, Note_on_c, 1, 72, 55
3, 173220, Note_on_c, 1, 75, 55
3, 173265, Note_on_c, 1, 72, 0
3, 173265, Note_on_c, 1, 75, 0
3, 173280, Note_on_c, 1, 70, 55
3, 173280, Note_on_c, 1, 75, 55
3, 173520, Note_on_c, 1, 70, 0
3, 173520, Note_on_c, 1, 75, 0
3, 177600, Note_on_c, 1, 79, 45
3, 177600, Note_on_c, 1, 82, 45
3, 178080, Note_on_c, 1, 77, 45
3, 178080, Note_on_c, 1, 80, 45
3, 178110, Note_on_c, 1, 79, 0
3, 178110, Note_on_c, 1, 82, 0
3, 178320, Note_on_c, 1, 75, 45
3, 178320, Note_on_c, 1, 79, 45
3, 178350, Note_on_c, 1, 77, 0
3, 178350, Note_on_c, 1, 80, 0
3, 178530, Note_on_c, 1, 75, 0
3, 178530, Note_on_c, 1, 79, 0
3, 178560, Note_on_c, 1, 75, 45
3, 178560, Note_on_c, 1, 78, 45
3, 178800, Note_on_c, 1, 72, 45
3, 178830, Note_on_c, 1, 75, 0
3, 179040, Note_on_c, 1, 84, 45
3, 179040, Control_c, 1, 11, 80
3, 179050, Control_c, 1, 11, 83
3, 179060, Control_c, 1, 11, 87
3, 179070, Note_on_c, 1, 78, 0
3, 179070, Control_c, 1, 11, 91
3, 179080, Control_c, 1, 11, 95
3, 179090, Control_c, 1, 11, 99
3, 179100, Control_c, 1, 11, 103
3, 179110, Control_c, 1, 11, 107
3, 179120, Control_c, 1, 11, 111
3, 179140, Control_c, 1, 11, 115
3, 179160, Control_c, 1, 11, 114
3, 179170, Control_c, 1, 11, 113
3, 179180, Control_c, 1, 11, 112
3, 179190, Control_c, 1, 11, 111
3, 179200, Control_c, 1, 11, 110
3, 179210, Control_c, 1, 11, 109
3, 179220, Control_c, 1, 11, 108
3, 179230, Control_c, 1, 11, 107
3, 179240, Control_c, 1, 11, 106
3, 179250, Control_c, 1, 11, 105
3, 179260, Control_c, 1, 11, 104
3, 179270, Control_c, 1, 11, 103
3, 179280, Note_on_c, 1, 75, 45
3, 179280, Control_c, 1, 11, 102
3, 179290, Control_c, 1, 11, 101
3, 179300, Control_c, 1, 11, 100
3, 179310, Note_on_c, 1, 72, 0
3, 179310, Control_c, 1, 11, 99
3, 179320, Control_c, 1, 11, 98
3, 179330, Control_c, 1, 11, 97
3, 179340, Control_c, 1, 11, 96
3, 179350, Control_c, 1, 11, 95
3, 179360, Control_c, 1, 11, 94
3, 179370, Control_c, 1, 11, 93
3, 179380, Control_c, 1, 11, 92
3, 179390, Control_c, 1, 11, 91
3, 179400, Note_on_c, 1, 78, 45
3, 179400, Control_c, 1, 11, 90
3, 179410, Control_c, 1, 11, 89
3, 179420, Control_c, 1, 11, 88
3, 179430, Note_on_c, 1, 84, 0
3, 179430, Control_c, 1, 11, 87
3, 179440, Control_c, 1, 11, 86
3, 179450, Control_c, 1, 11, 85
3, 179460, Control_c, 1, 11, 84
3, 179470, Control_c, 1, 11, 83
3, 179480, Control_c, 1, 11, 82
3, 179490, Note_on_c, 1, 75, 0
3, 179490, Note_on_c, 1, 78, 0
3, 179490, Control_c, 1, 11, 81
3, 179500, Control_c, 1, 11, 80
3, 179520, Note_on_c, 1, 71, 45
3, 179520, Note_on_c, 1, 79, 45
3, 179760, Note_on_c, 1, 71, 0
3, 179760, Note_on_c, 1, 79, 0
3, 180480, Note_on_c, 1, 79, 50
3, 180960, Note_on_c, 1, 77, 50
3, 180990, Note_on_c, 1, 79, 0
3, 181200, Note_on_c, 1, 75, 50
3, 181230, Note_on_c, 1, 77, 0
3, 181410, Note_on_c, 1, 75, 0
3, 181440, Note_on_c, 1, 74, 50
3, 181440, Control_c, 1, 11, 80
3, 181470, Control_c, 1, 11, 81
3, 181500, Control_c, 1, 11, 82
3, 181530, Control_c, 1, 11, 83
3, 181550, Control_c, 1, 11, 84
3, 181580, Control_c, 1, 11, 85
3, 181610, Control_c, 1, 11, 86
3, 181640, Control_c, 1, 11, 87
3, 181660, Control_c, 1, 11, 88
3, 181690, Control_c, 1, 11, 89
3, 181720, Control_c, 1, 11, 90
3, 181750, Control_c, 1, 11, 91
3, 181770, Control_c, 1, 11, 92
3, 181800, Control_c, 1, 11, 93
3, 181830, Control_c, 1, 11, 94
3, 181860, Control_c, 1, 11, 95
3, 181880, Control_c, 1, 11, 96
3, 181910, Control_c, 1, 11, 97
3, 181940, Control_c, 1, 11, 98
3, 181970, Control_c, 1, 11, 99
3, 181990, Control_c, 1, 11, 100
3, 182020, Control_c, 1, 11, 101
3, 182050, Control_c, 1, 11, 102
3, 182080, Control_c, 1, 11, 103
3, 182100, Control_c, 1, 11, 104
3, 182130, Control_c, 1, 11, 105
3, 182160, Note_on_c, 1, 77, 50
3, 182160, Control_c, 1, 11, 106
3, 182190, Note_on_c, 1, 74, 0
3, 182190, Control_c, 1, 11, 107
3, 182210, Control_c, 1, 11, 108
3, 182240, Control_c, 1, 11, 109
3, 182270, Control_c, 1, 11, 110
3, 182300, Control_c, 1, 11, 111
3, 182320, Control_c, 1, 11, 112
3, 182350, Control_c, 1, 11, 113
3, 182380, Control_c, 1, 11, 114
3, 182400, Note_on_c, 1, 75, 50
3, 182400, Control_c, 1, 11, 115
3, 182430, Note_on_c, 1, 77, 0
3, 182430, Control_c, 1, 11, 114
3, 182460, Control_c, 1, 11, 113
3, 182480, Control_c, 1, 11, 112
3, 182510, Control_c, 1, 11, 111
3, 182540, Control_c, 1, 11, 110
3, 182560, Control_c, 1, 11, 109
3, 182590, Control_c, 1, 11, 108
3, 182620, Control_c, 1, 11, 107
3, 182640, Control_c, 1, 11, 106
3, 182670, Control_c, 1, 11, 105
3, 182700, Control_c, 1, 11, 104
3, 182720, Control_c, 1, 11, 103
3, 182750, Control_c, 1, 11, 102
3, 182780, Control_c, 1, 11, 101
3, 182800, Control_c, 1, 11, 100
3, 182830, Control_c, 1, 11, 99
3, 182860, Control_c, 1, 11, 98
3, 182880, Note_on_c, 1, 74, 50
3, 182880, Control_c, 1, 11, 97
3, 182910, Note_on_c, 1, 75, 0
3, 182910, Control_c, 1, 11, 96
3, 182940, Control_c, 1, 11, 95
3, 182960, Control_c, 1, 11, 94
3, 182990, Control_c, 1, 11, 93
3, 183020, Control_c, 1, 11, 92
3, 183040, Control_c, 1, 11, 91
3, 183070, Control_c, 1, 11, 90
3, 183100, Control_c, 1, 11, 89
3, 183120, Note_on_c, 1, 72, 50
3, 183120, Control_c, 1, 11, 88
3, 183150, Note_on_c, 1, 74, 0
3, 183150, Control_c, 1, 11, 87
3, 183180, Control_c, 1, 11, 86
3, 183200, Control_c, 1, 11, 85
3, 183230, Control_c, 1, 11, 84
3, 183260, Control_c, 1, 11, 83
3, 183280, Control_c, 1, 11, 82
3, 183310, Control_c, 1, 11, 81
3, 183340, Control_c, 1, 11, 80
3, 183360, Note_on_c, 1, 71, 50
3, 183360, Note_on_c, 1, 72, 0
3, 183600, Note_on_c, 1, 71, 0
3, 185400, Note_on_c, 1, 74, 50
3, 185520, Note_on_c, 1, 74, 0
3, 185520, Note_on_c, 1, 75, 51
3, 185640, Note_on_c, 1, 74, 52
3, 185640, Note_on_c, 1, 75, 0
3, 185760, Note_on_c, 1, 74, 0
3, 185760, Note_on_c, 1, 75, 53
3, 185880, Note_on_c, 1, 75, 0
3, 185880, Note_on_c, 1, 76, 54
3, 186000, Note_on_c, 1, 76, 0
3, 186000, Note_on_c, 1, 77, 55
3, 186120, Note_on_c, 1, 77, 0
3, 186120, Note_on_c, 1, 78, 56
3, 186240, Note_on_c, 1, 78, 0
3, 186240, Note_on_c, 1, 79, 57
3, 186720, Note_on_c, 1, 70, 61
3, 186930, Note_on_c, 1, 79, 0
3, 186960, Note_on_c, 1, 72, 63
3, 187121, Note_on_c, 1, 72, 0
3, 187140, Note_on_c, 1, 72, 65
3, 187170, Note_on_c, 1, 70, 0
3, 187181, Note_on_c, 1, 72, 0
3, 187200, Note_on_c, 1, 68, 55
3, 187200, Note_on_c, 1, 72, 55
3, 187440, Note_on_c, 1, 68, 0
3, 187635, Note_on_c, 1, 72, 0
3, 187685, Note_on_c, 1, 79, 55
3, 187718, Note_on_c, 1, 77, 55
3, 187735, Note_on_c, 1, 79, 0
3, 187860, Note_on_c, 1, 76, 55
3, 187872, Note_on_c, 1, 77, 0
3, 187920, Note_on_c, 1, 77, 55
3, 187932, Note_on_c, 1, 76, 0
3, 188100, Note_on_c, 1, 79, 55
3, 188120, Note_on_c, 1, 77, 0
3, 188160, Note_on_c, 1, 80, 55
3, 188172, Note_on_c, 1, 79, 0
3, 188640, Note_on_c, 1, 77, 55
3, 188670, Note_on_c, 1, 80, 0
3, 188880, Note_on_c, 1, 77, 0
3, 189120, Note_on_c, 1, 77, 55
3, 189570, Note_on_c, 1, 77, 0
3, 189600, Note_on_c, 1, 75, 59
3, 189660, Note_on_c, 1, 74, 60
3, 189690, Note_on_c, 1, 75, 0
3, 189810, Note_on_c, 1, 74, 0
3, 189840, Note_on_c, 1, 72, 63
3, 189840, Note_on_c, 1, 74, 63
3, 189900, Note_on_c, 1, 71, 64
3, 189930, Note_on_c, 1, 72, 0
3, 190080, Note_on_c, 1, 67, 70
3, 190080, Note_on_c, 1, 71, 0
3, 190080, Note_on_c, 1, 72, 70
3, 190080, Note_on_c, 1, 74, 0
3, 190170, Note_on_c, 1, 67, 0
3, 190170, Note_on_c, 1, 72, 0
3, 190320, Note_on_c, 1, 72, 75
3, 190320, Note_on_c, 1, 80, 65
3, 190410, Note_on_c, 1, 72, 0
3, 190410, Note_on_c, 1, 80, 0
3, 190800, Note_on_c, 1, 78, 50
3, 191250, Note_on_c, 1, 78, 0
3, 191280, Note_on_c, 1, 75, 48
3, 191280, Note_on_c, 1, 79, 48
3, 191520, Note_on_c, 1, 71, 45
3, 191550, Note_on_c, 1, 75, 0
3, 191730, Note_on_c, 1, 71, 0
3, 191730, Note_on_c, 1, 79, 0
3, 191760, Note_on_c, 1, 74, 43
3, 191760, Note_on_c, 1, 77, 43
3, 191925, Note_on_c, 1, 74, 0
3, 191940, Note_on_c, 1, 71, 41
3, 191940, Note_on_c, 1, 74, 41
3, 191955, Note_on_c, 1, 77, 0
3, 191985, Note_on_c, 1, 71, 0
3, 191985, Note_on_c, 1, 74, 0
3, 192000, Note_on_c, 1, 72, 40
3, 192240, Note_on_c, 1, 72, 0
3, 194640, Note_on_c, 1, 78, 65
3, 195240, Note_on_c, 1, 79, 55
3, 195270, Note_on_c, 1, 78, 0
3, 195330, Note_on_c, 1, 79, 0
3, 195360, Note_on_c, 1, 79, 55
3, 195600, Note_on_c, 1, 79, 0
3, 195780, Control_c, 1, 11, 110
3, 195840, Note_on_c, 1, 72, 50
3, 195840, Note_on_c, 1, 80, 50
3, 196290, Note_on_c, 1, 72, 0
3, 196290, Note_on_c, 1, 80, 0
3, 196320, Note_on_c, 1, 72, 50
3, 196320, Note_on_c, 1, 80, 50
3, 196710, Note_on_c, 1, 72, 0
3, 196710, Note_on_c, 1, 80, 0
3, 196740, Note_on_c, 1, 72, 50
3, 196740, Note_on_c, 1, 80, 50
3, 196785, Note_on_c, 1, 72, 0
3, 196785, Note_on_c, 1, 80, 0
3, 196800, Note_on_c, 1, 72, 50
3, 196800, Note_on_c, 1, 81, 50
3, 196850, Control_c, 1, 11, 109
3, 196870, Control_c, 1, 11, 108
3, 196890, Control_c, 1, 11, 108
3, 196910, Control_c, 1, 11, 107
3, 196930, Control_c, 1, 11, 106
3, 196950, Control_c, 1, 11, 106
3, 196970, Control_c, 1, 11, 105
3, 196990, Control_c, 1, 11, 105
3, 197010, Control_c, 1, 11, 104
3, 197030, Control_c, 1, 11, 103
3, 197050, Control_c, 1, 11, 103
3, 197070, Control_c, 1, 11, 102
3, 197090, Control_c, 1, 11, 101
3, 197110, Control_c, 1, 11, 101
3, 197130, Control_c, 1, 11, 100
3, 197150, Control_c, 1, 11, 100
3, 197170, Control_c, 1, 11, 99
3, 197190, Control_c, 1, 11, 98
3, 197210, Control_c, 1, 11, 98
3, 197230, Control_c, 1, 11, 97
3, 197250, Control_c, 1, 11, 96
3, 197270, Control_c, 1, 11, 96
3, 197300, Control_c, 1, 11, 95
3, 197320, Control_c, 1, 11, 94
3, 197340, Control_c, 1, 11, 94
3, 197360, Control_c, 1, 11, 93
3, 197380, Control_c, 1, 11, 92
3, 197400, Control_c, 1, 11, 92
3, 197420, Control_c, 1, 11, 91
3, 197440, Control_c, 1, 11, 90
3, 197460, Control_c, 1, 11, 90
3, 197480, Control_c, 1, 11, 89
3, 197500, Control_c, 1, 11, 89
3, 197520, Control_c, 1, 11, 88
3, 197540, Control_c, 1, 11, 87
3, 197560, Control_c, 1, 11, 87
3, 197580, Control_c, 1, 11, 86
3, 197600, Control_c, 1, 11, 85
3, 197620, Control_c, 1, 11, 85
3, 197640, Control_c, 1, 11, 84
3, 197660, Control_c, 1, 11, 84
3, 197680, Control_c, 1, 11, 83
3, 197700, Control_c, 1, 11, 82
3, 197720, Control_c, 1, 11, 81
3, 197730, Note_on_c, 1, 72, 0
3, 197730, Note_on_c, 1, 81, 0
3, 197740, Control_c, 1, 11, 80
3, 197760, Note_on_c, 1, 75, 50
3, 197760, Note_on_c, 1, 79, 50
3, 198240, Note_on_c, 1, 77, 50
3, 198270, Note_on_c, 1, 75, 0
3, 198690, Note_on_c, 1, 77, 0
3, 198690, Note_on_c, 1, 79, 0
3, 198720, Note_on_c, 1, 75, 50
3, 198720, Note_on_c, 1, 79, 50
3, 198930, Note_on_c, 1, 75, 0
3, 198930, Note_on_c, 1, 79, 0
3, 198960, Note_on_c, 1, 78, 55
3, 199440, Note_on_c, 1, 79, 55
3, 199470, Note_on_c, 1, 78, 0
3, 199650, Note_on_c, 1, 79, 0
3, 199680, Note_on_c, 1, 72, 50
3, 199680, Note_on_c, 1, 75, 50
3, 199680, Control_c, 1, 11, 80
3, 199710, Control_c, 1, 11, 81
3, 199740, Control_c, 1, 11, 82
3, 199770, Control_c, 1, 11, 83
3, 199790, Control_c, 1, 11, 84
3, 199820, Control_c, 1, 11, 85
3, 199850, Control_c, 1, 11, 86
3, 199880, Control_c, 1, 11, 87
3, 199890, Note_on_c, 1, 72, 0
3, 199900, Control_c, 1, 11, 88
3, 199920, Note_on_c, 1, 67, 50
3, 199930, Control_c, 1, 11, 89
3, 199960, Control_c, 1, 11, 90
3, 199990, Control_c, 1, 11, 91
3, 200010, Control_c, 1, 11, 92
3, 200040, Control_c, 1, 11, 93
3, 200070, Control_c, 1, 11, 94
3, 200100, Control_c, 1, 11, 95
3, 200120, Control_c, 1, 11, 96
3, 200130, Note_on_c, 1, 67, 0
3, 200150, Control_c, 1, 11, 97
3, 200160, Note_on_c, 1, 67, 50
3, 200160, Note_on_c, 1, 74, 50
3, 200180, Control_c, 1, 11, 98
3, 200190, Note_on_c, 1, 75, 0
3, 200210, Control_c, 1, 11, 99
3, 200230, Control_c, 1, 11, 100
3, 200260, Control_c, 1, 11, 101
3, 200290, Control_c, 1, 11, 102
3, 200320, Control_c, 1, 11, 103
3, 200340, Control_c, 1, 11, 104
3, 200370, Note_on_c, 1, 67, 0
3, 200370, Control_c, 1, 11, 105
3, 200400, Note_on_c, 1, 67, 50
3, 200400, Control_c, 1, 11, 106
3, 200430, Control_c, 1, 11, 107
3, 200450, Control_c, 1, 11, 108
3, 200480, Control_c, 1, 11, 109
3, 200510, Control_c, 1, 11, 110
3, 200540, Control_c, 1, 11, 111
3, 200560, Control_c, 1, 11, 112
3, 200580, Note_on_c, 1, 72, 50
3, 200590, Control_c, 1, 11, 113
3, 200595, Note_on_c, 1, 74, 0
3, 200610, Note_on_c, 1, 67, 0
3, 200620, Control_c, 1, 11, 115
3, 200625, Note_on_c, 1, 72, 0
3, 200640, Note_on_c, 1, 72, 50
3, 200880, Note_on_c, 1, 72, 0
3, 201540, Control_c, 1, 11, 80
3, 206400, Note_on_c, 1, 80, 40
3, 206400, Control_c, 1, 11, 80
3, 206430, Control_c, 1, 11, 81
3, 206450, Control_c, 1, 11, 82
3, 206470, Control_c, 1, 11, 83
3, 206490, Control_c, 1, 11, 84
3, 206510, Control_c, 1, 11, 85
3, 206530, Control_c, 1, 11, 86
3, 206550, Control_c, 1, 11, 87
3, 206570, Control_c, 1, 11, 88
3, 206590, Control_c, 1, 11, 89
3, 206610, Control_c, 1, 11, 90
3, 206630, Control_c, 1, 11, 91
3, 206650, Control_c, 1, 11, 92
3, 206670, Control_c, 1, 11, 93
3, 206690, Control_c, 1, 11, 94
3, 206710, Control_c, 1, 11, 95
3, 206730, Control_c, 1, 11, 96
3, 206750, Control_c, 1, 11, 97
3, 206770, Control_c, 1, 11, 98
3, 206790, Control_c, 1, 11, 99
3, 206810, Control_c, 1, 11, 100
3, 206830, Control_c, 1, 11, 101
3, 206850, Control_c, 1, 11, 102
3, 206870, Control_c, 1, 11, 103
3, 206900, Control_c, 1, 11, 104
3, 206920, Control_c, 1, 11, 105
3, 206940, Control_c, 1, 11, 106
3, 206960, Control_c, 1, 11, 107
3, 206980, Control_c, 1, 11, 108
3, 207000, Control_c, 1, 11, 109
3, 207020, Control_c, 1, 11, 110
3, 207040, Control_c, 1, 11, 111
3, 207060, Control_c, 1, 11, 112
3, 207080, Control_c, 1, 11, 113
3, 207100, Control_c, 1, 11, 114
3, 207120, Control_c, 1, 11, 115
3, 207140, Control_c, 1, 11, 116
3, 207160, Control_c, 1, 11, 117
3, 207180, Control_c, 1, 11, 118
3, 207200, Control_c, 1, 11, 119
3, 207220, Control_c, 1, 11, 120
3, 207240, Control_c, 1, 11, 121
3, 207260, Control_c, 1, 11, 122
3, 207280, Control_c, 1, 11, 123
3, 207300, Control_c, 1, 11, 124
3, 207320, Control_c, 1, 11, 125
3, 207340, Control_c, 1, 11, 126
3, 207360, Control_c, 1, 11, 127
3, 207380, Control_c, 1, 11, 126
3, 207400, Control_c, 1, 11, 125
3, 207420, Control_c, 1, 11, 124
3, 207440, Control_c, 1, 11, 123
3, 207460, Control_c, 1, 11, 122
3, 207480, Control_c, 1, 11, 121
3, 207500, Control_c, 1, 11, 120
3, 207520, Control_c, 1, 11, 119
3, 207540, Control_c, 1, 11, 118
3, 207560, Control_c, 1, 11, 117
3, 207580, Control_c, 1, 11, 116
3, 207600, Control_c, 1, 11, 115
3, 207620, Control_c, 1, 11, 114
3, 207640, Control_c, 1, 11, 113
3, 207660, Control_c, 1, 11, 112
3, 207680, Control_c, 1, 11, 111
3, 207700, Control_c, 1, 11, 110
3, 207720, Control_c, 1, 11, 109
3, 207740, Control_c, 1, 11, 108
3, 207760, Control_c, 1, 11, 107
3, 207780, Control_c, 1, 11, 106
3, 207800, Control_c, 1, 11, 105
3, 207820, Control_c, 1, 11, 104
3, 207840, Control_c, 1, 11, 103
3, 207860, Control_c, 1, 11, 102
3, 207880, Control_c, 1, 11, 101
3, 207900, Control_c, 1, 11, 100
3, 207920, Control_c, 1, 11, 99
3, 207940, Control_c, 1, 11, 98
3, 207960, Control_c, 1, 11, 97
3, 207980, Control_c, 1, 11, 96
3, 208000, Control_c, 1, 11, 95
3, 208020, Control_c, 1, 11, 94
3, 208040, Control_c, 1, 11, 93
3, 208060, Control_c, 1, 11, 92
3, 208080, Control_c, 1, 11, 91
3, 208100, Control_c, 1, 11, 90
3, 208120, Control_c, 1, 11, 89
3, 208140, Control_c, 1, 11, 88
3, 208160, Control_c, 1, 11, 87
3, 208180, Control_c, 1, 11, 86
3, 208200, Control_c, 1, 11, 85
3, 208220, Control_c, 1, 11, 84
3, 208240, Control_c, 1, 11, 83
3, 208260, Control_c, 1, 11, 82
3, 208280, Control_c, 1, 11, 81
3, 208300, Control_c, 1, 11, 80
3, 208560, Note_on_c, 1, 80, 0
3, 215760, Note_on_c, 1, 83, 40
3, 216000, Note_on_c, 1, 84, 40
3, 216030, Note_on_c, 1, 83, 0
3, 216480, Note_on_c, 1, 79, 40
3, 216510, Note_on_c, 1, 84, 0
3, 216720, Note_on_c, 1, 82, 40
3, 216750, Note_on_c, 1, 79, 0
3, 216950, Note_on_c, 1, 82, 0
3, 216960, Note_on_c, 1, 72, 40
3, 216960, Note_on_c, 1, 80, 40
3, 216960, Control_c, 1, 11, 80
3, 217010, Control_c, 1, 11, 81
3, 217060, Control_c, 1, 11, 82
3, 217100, Control_c, 1, 11, 83
3, 217150, Control_c, 1, 11, 84
3, 217200, Control_c, 1, 11, 85
3, 217240, Control_c, 1, 11, 86
3, 217290, Control_c, 1, 11, 87
3, 217340, Control_c, 1, 11, 88
3, 217380, Control_c, 1, 11, 89
3, 217430, Control_c, 1, 11, 90
3, 217440, Note_on_c, 1, 79, 40
3, 217470, Note_on_c, 1, 80, 0
3, 217470, Control_c, 1, 11, 91
3, 217520, Control_c, 1, 11, 92
3, 217570, Control_c, 1, 11, 93
3, 217610, Control_c, 1, 11, 94
3, 217650, Note_on_c, 1, 72, 0
3, 217660, Control_c, 1, 11, 95
3, 217680, Note_on_c, 1, 72, 40
3, 217680, Note_on_c, 1, 77, 40
3, 217710, Note_on_c, 1, 79, 0
3, 217710, Control_c, 1, 11, 96
3, 217750, Control_c, 1, 11, 97
3, 217800, Control_c, 1, 11, 98
3, 217850, Control_c, 1, 11, 99
3, 217890, Control_c, 1, 11, 100
3, 217905, Note_on_c, 1, 72, 0
3, 217905, Note_on_c, 1, 77, 0
3, 217920, Note_on_c, 1, 72, 40
3, 217920, Note_on_c, 1, 76, 40
3, 217940, Control_c, 1, 11, 101
3, 217980, Control_c, 1, 11, 102
3, 218030, Control_c, 1, 11, 103
3, 218080, Control_c, 1, 11, 104
3, 218120, Control_c, 1, 11, 105
3, 218130, Note_on_c, 1, 72, 0
3, 218160, Note_on_c, 1, 72, 40
3, 218160, Note_on_c, 1, 77, 40
3, 218170, Control_c, 1, 11, 106
3, 218190, Note_on_c, 1, 76, 0
3, 218220, Control_c, 1, 11, 107
3, 218260, Control_c, 1, 11, 108
3, 218310, Control_c, 1, 11, 109
3, 218360, Control_c, 1, 11, 110
3, 218400, Note_on_c, 1, 76, 40
3, 218400, Note_on_c, 1, 79, 40
3, 218400, Control_c, 1, 11, 111
3, 218430, Note_on_c, 1, 72, 0
3, 218430, Note_on_c, 1, 77, 0
3, 218450, Control_c, 1, 11, 112
3, 218490, Control_c, 1, 11, 113
3, 218540, Control_c, 1, 11, 114
3, 218590, Control_c, 1, 11, 115
3, 218630, Control_c, 1, 11, 116
3, 218640, Note_on_c, 1, 77, 40
3, 218640, Note_on_c, 1, 80, 40
3, 218670, Note_on_c, 1, 76, 0
3, 218670, Note_on_c, 1, 79, 0
3, 218680, Control_c, 1, 11, 117
3, 218730, Control_c, 1, 11, 118
3, 218770, Control_c, 1, 11, 119
3, 218820, Control_c, 1, 11, 120
3, 218865, Note_on_c, 1, 77, 0
3, 218865, Note_on_c, 1, 80, 0
3, 218874, Control_c, 1, 11, 80
3, 218880, Note_on_c, 1, 76, 40
3, 218880, Note_on_c, 1, 79, 40
3, 218880, Control_c, 1, 11, 80
3, 218910, Control_c, 1, 11, 81
3, 218930, Control_c, 1, 11, 82
3, 218950, Control_c, 1, 11, 83
3, 218980, Control_c, 1, 11, 84
3, 219000, Control_c, 1, 11, 85
3, 219020, Control_c, 1, 11, 86
3, 219050, Control_c, 1, 11, 87
3, 219070, Control_c, 1, 11, 88
3, 219090, Control_c, 1, 11, 89
3, 219110, Control_c, 1, 11, 90
3, 219140, Control_c, 1, 11, 91
3, 219160, Control_c, 1, 11, 92
3, 219180, Control_c, 1, 11, 93
3, 219210, Control_c, 1, 11, 94
3, 219230, Control_c, 1, 11, 95
3, 219250, Control_c, 1, 11, 96
3, 219270, Control_c, 1, 11, 97
3, 219300, Control_c, 1, 11, 98
3, 219320, Control_c, 1, 11, 99
3, 219340, Control_c, 1, 11, 100
3, 219360, Note_on_c, 1, 75, 40
3, 219370, Control_c, 1, 11, 101
3, 219390, Note_on_c, 1, 76, 0
3, 219390, Control_c, 1, 11, 102
3, 219410, Control_c, 1, 11, 103
3, 219440, Control_c, 1, 11, 104
3, 219460, Control_c, 1, 11, 105
3, 219480, Control_c, 1, 11, 106
3, 219500, Control_c, 1, 11, 107
3, 219530, Control_c, 1, 11, 108
3, 219550, Control_c, 1, 11, 109
3, 219570, Control_c, 1, 11, 110
3, 219600, Control_c, 1, 11, 111
3, 219620, Control_c, 1, 11, 112
3, 219640, Control_c, 1, 11, 113
3, 219660, Control_c, 1, 11, 114
3, 219690, Control_c, 1, 11, 115
3, 219710, Control_c, 1, 11, 116
3, 219730, Control_c, 1, 11, 117
3, 219760, Control_c, 1, 11, 118
3, 219780, Control_c, 1, 11, 119
3, 219800, Control_c, 1, 11, 120
3, 219810, Note_on_c, 1, 75, 0
3, 219810, Note_on_c, 1, 79, 0
3, 219834, Control_c, 1, 11, 80
3, 220320, Note_on_c, 1, 77, 50
3, 220560, Note_on_c, 1, 77, 0
3, 221280, Note_on_c, 1, 75, 50
3, 221520, Note_on_c, 1, 75, 0
3, 222960, Note_on_c, 1, 79, 45
3, 223440, Note_on_c, 1, 80, 45
3, 223470, Note_on_c, 1, 79, 0
3, 223650, Note_on_c, 1, 80, 0
3, 223680, Note_on_c, 1, 80, 50
3, 223920, Note_on_c, 1, 71, 45
3, 223950, Note_on_c, 1, 80, 0
3, 224100, Note_on_c, 1, 71, 0
3, 224880, Note_on_c, 1, 79, 45
3, 225240, Note_on_c, 1, 80, 45
3, 225270, Note_on_c, 1, 79, 0
3, 225330, Note_on_c, 1, 80, 0
3, 225360, Note_on_c, 1, 80, 45
3, 225465, Note_on_c, 1, 80, 0
3, 225480, Note_on_c, 1, 80, 45
3, 225585, Note_on_c, 1, 80, 0
3, 225600, Note_on_c, 1, 80, 50
3, 225840, Note_on_c, 1, 71, 45
3, 225870, Note_on_c, 1, 80, 0
3, 226020, Note_on_c, 1, 71, 0
3, 232320, Note_on_c, 1, 71, 35
3, 232320, Note_on_c, 1, 77, 35
3, 233280, Note_on_c, 1, 72, 35
3, 233280, Note_on_c, 1, 75, 35
3, 233310, Note_on_c, 1, 71, 0
3, 233310, Note_on_c, 1, 77, 0
3, 233760, Note_on_c, 1, 72, 0
3, 233760, Note_on_c, 1, 75, 0
3, 234240, Note_on_c, 1, 71, 35
3, 234240, Note_on_c, 1, 77, 35
3, 235200, Note_on_c, 1, 72, 35
3, 235200, Note_on_c, 1, 75, 35
3, 235230, Note_on_c, 1, 71, 0
3, 235230, Note_on_c, 1, 77, 0
3, 235680, Note_on_c, 1, 72, 0
3, 235680, Note_on_c, 1, 75, 0
3, 236400, Note_on_c, 1, 72, 40
3, 236400, Note_on_c, 1, 79, 40
3, 236400, Control_c, 1, 11, 80
3, 236410, Control_c, 1, 11, 82
3, 236420, Control_c, 1, 11, 85
3, 236430, Control_c, 1, 11, 87
3, 236440, Control_c, 1, 11, 90
3, 236450, Control_c, 1, 11, 92
3, 236460, Control_c, 1, 11, 95
3, 236470, Control_c, 1, 11, 97
3, 236480, Control_c, 1, 11, 100
3, 236490, Control_c, 1, 11, 102
3, 236500, Control_c, 1, 11, 105
3, 236510, Control_c, 1, 11, 107
3, 236520, Control_c, 1, 11, 110
3, 236540, Control_c, 1, 11, 109
3, 236560, Control_c, 1, 11, 108
3, 236580, Control_c, 1, 11, 107
3, 236600, Control_c, 1, 11, 106
3, 236620, Control_c, 1, 11, 105
3, 236640, Control_c, 1, 11, 104
3, 236660, Control_c, 1, 11, 103
3, 236680, Control_c, 1, 11, 102
3, 236700, Control_c, 1, 11, 101
3, 236720, Control_c, 1, 11, 100
3, 236740, Control_c, 1, 11, 99
3, 236760, Control_c, 1, 11, 98
3, 236780, Control_c, 1, 11, 97
3, 236800, Control_c, 1, 11, 96
3, 236820, Control_c, 1, 11, 95
3, 236830, Control_c, 1, 11, 94
3, 236850, Control_c, 1, 11, 93
3, 236870, Control_c, 1, 11, 92
3, 236880, Note_on_c, 1, 75, 40
3, 236890, Control_c, 1, 11, 91
3, 236910, Note_on_c, 1, 79, 0
3, 236910, Control_c, 1, 11, 90
3, 236930, Control_c, 1, 11, 89
3, 236950, Control_c, 1, 11, 88
3, 236970, Control_c, 1, 11, 87
3, 236990, Control_c, 1, 11, 86
3, 237010, Control_c, 1, 11, 85
3, 237030, Control_c, 1, 11, 84
3, 237050, Control_c, 1, 11, 83
3, 237070, Control_c, 1, 11, 82
3, 237090, Control_c, 1, 11, 81
3, 237110, Note_on_c, 1, 72, 0
3, 237110, Note_on_c, 1, 75, 0
3, 237110, Control_c, 1, 11, 80
3, 237120, Note_on_c, 1, 72, 35
3, 237360, Control_c, 1, 11, 80
3, 237370, Control_c, 1, 11, 79
3, 237380, Control_c, 1, 11, 78
3, 237390, Control_c, 1, 11, 77
3, 237400, Control_c, 1, 11, 76
3, 237410, Control_c, 1, 11, 75
3, 237420, Control_c, 1, 11, 74
3, 237430, Control_c, 1, 11, 73
3, 237440, Control_c, 1, 11, 72
3, 237450, Control_c, 1, 11, 71
3, 237460, Control_c, 1, 11, 70
3, 237470, Control_c, 1, 11, 69
3, 237480, Control_c, 1, 11, 67
3, 237490, Control_c, 1, 11, 66
3, 237500, Control_c, 1, 11, 65
3, 237510, Control_c, 1, 11, 64
3, 237520, Control_c, 1, 11, 63
3, 237530, Control_c, 1, 11, 62
3, 237540, Control_c, 1, 11, 61
3, 237550, Control_c, 1, 11, 60
3, 237560, Control_c, 1, 11, 59
3, 237570, Control_c, 1, 11, 58
3, 237580, Control_c, 1, 11, 57
3, 237590, Control_c, 1, 11, 56
3, 237600, Control_c, 1, 11, 54
3, 237610, Control_c, 1, 11, 53
3, 237620, Control_c, 1, 11, 52
3, 237630, Control_c, 1, 11, 51
3, 237640, Control_c, 1, 11, 50
3, 237650, Control_c, 1, 11, 49
3, 237660, Control_c, 1, 11, 48
3, 237670, Control_c, 1, 11, 47
3, 237680, Control_c, 1, 11, 46
3, 237690, Control_c, 1, 11, 45
3, 237700, Control_c, 1, 11, 44
3, 237710, Control_c, 1, 11, 43
3, 237720, Control_c, 1, 11, 41
3, 237730, Control_c, 1, 11, 40
3, 237740, Control_c, 1, 11, 39
3, 237750, Control_c, 1, 11, 38
3, 237760, Control_c, 1, 11, 37
3, 237770, Control_c, 1, 11, 36
3, 237780, Control_c, 1, 11, 35
3, 237790, Control_c, 1, 11, 34
3, 237800, Control_c, 1, 11, 33
3, 237810, Control_c, 1, 11, 32
3, 237820, Control_c, 1, 11, 31
3, 237830, Control_c, 1, 11, 30
3, 237840, Note_on_c, 1, 72, 0
3, 237840, End_track
4, 0, Start_track
4, 0, Channel_prefix, 2
4, 0, Title_t, "Clarinets in Bb"
4, 0, Instrument_name_t, "Clarinetti in B"
4, 8640, Note_on_c, 2, 63, 40
4, 8640, Note_on_c, 2, 67, 40
4, 9570, Note_on_c, 2, 63, 0
4, 9570, Note_on_c, 2, 67, 0
4, 9600, Note_on_c, 2, 63, 40
4, 9600, Note_on_c, 2, 67, 40
4, 10530, Note_on_c, 2, 63, 0
4, 10530, Note_on_c, 2, 67, 0
4, 10560, Note_on_c, 2, 63, 40
4, 10560, Note_on_c, 2, 67, 40
4, 11010, Note_on_c, 2, 63, 0
4, 11010, Note_on_c, 2, 67, 0
4, 11040, Note_on_c, 2, 67, 40
4, 11040, Note_on_c, 2, 72, 40
4, 11250, Note_on_c, 2, 67, 0
4, 11250, Note_on_c, 2, 72, 0
4, 11280, Note_on_c, 2, 67, 40
4, 11280, Note_on_c, 2, 72, 40
4, 11490, Note_on_c, 2, 67, 0
4, 11490, Note_on_c, 2, 72, 0
4, 11520, Note_on_c, 2, 67, 40
4, 11520, Note_on_c, 2, 72, 40
4, 11520, Control_c, 2, 11, 80
4, 11540, Control_c, 2, 11, 81
4, 11560, Control_c, 2, 11, 82
4, 11570, Control_c, 2, 11, 83
4, 11590, Control_c, 2, 11, 84
4, 11600, Control_c, 2, 11, 85
4, 11620, Control_c, 2, 11, 86
4, 11640, Control_c, 2, 11, 87
4, 11650, Control_c, 2, 11, 88
4, 11670, Control_c, 2, 11, 89
4, 11680, Control_c, 2, 11, 90
4, 11700, Control_c, 2, 11, 91
4, 11720, Control_c, 2, 11, 92
4, 11730, Control_c, 2, 11, 93
4, 11750, Control_c, 2, 11, 94
4, 11760, Note_on_c, 2, 63, 40
4, 11760, Note_on_c, 2, 69, 40
4, 11760, Control_c, 2, 11, 95
4, 11777, Note_on_c, 2, 67, 0
4, 11777, Note_on_c, 2, 72, 0
4, 11780, Control_c, 2, 11, 96
4, 11800, Control_c, 2, 11, 97
4, 11810, Control_c, 2, 11, 98
4, 11830, Control_c, 2, 11, 99
4, 11840, Control_c, 2, 11, 100
4, 11860, Control_c, 2, 11, 101
4, 11880, Control_c, 2, 11, 102
4, 11890, Control_c, 2, 11, 103
4, 11910, Control_c, 2, 11, 104
4, 11920, Control_c, 2, 11, 105
4, 11940, Control_c, 2, 11, 106
4, 11960, Control_c, 2, 11, 107
4, 11970, Control_c, 2, 11, 108
4, 11990, Control_c, 2, 11, 109
4, 12000, Note_on_c, 2, 62, 40
4, 12000, Note_on_c, 2, 71, 40
4, 12000, Control_c, 2, 11, 110
4, 12010, Control_c, 2, 11, 109
4, 12017, Note_on_c, 2, 63, 0
4, 12017, Note_on_c, 2, 69, 0
4, 12020, Control_c, 2, 11, 108
4, 12030, Control_c, 2, 11, 107
4, 12040, Control_c, 2, 11, 105
4, 12050, Control_c, 2, 11, 104
4, 12060, Control_c, 2, 11, 103
4, 12070, Control_c, 2, 11, 102
4, 12080, Control_c, 2, 11, 100
4, 12090, Control_c, 2, 11, 99
4, 12100, Control_c, 2, 11, 98
4, 12110, Control_c, 2, 11, 97
4, 12120, Control_c, 2, 11, 95
4, 12130, Control_c, 2, 11, 94
4, 12140, Control_c, 2, 11, 93
4, 12150, Control_c, 2, 11, 92
4, 12160, Control_c, 2, 11, 90
4, 12170, Control_c, 2, 11, 89
4, 12180, Control_c, 2, 11, 88
4, 12190, Control_c, 2, 11, 87
4, 12200, Control_c, 2, 11, 85
4, 12210, Note_on_c, 2, 62, 0
4, 12210, Note_on_c, 2, 71, 0
4, 12210, Control_c, 2, 11, 84
4, 12220, Control_c, 2, 11, 83
4, 12230, Control_c, 2, 11, 80
4, 12480, Note_on_c, 2, 62, 40
4, 12480, Note_on_c, 2, 68, 40
4, 12930, Note_on_c, 2, 62, 0
4, 12930, Note_on_c, 2, 68, 0
4, 13440, Note_on_c, 2, 65, 40
4, 13440, Note_on_c, 2, 68, 40
4, 13440, Control_c, 2, 11, 80
4, 13480, Control_c, 2, 11, 81
4, 13520, Control_c, 2, 11, 82
4, 13560, Control_c, 2, 11, 83
4, 13600, Control_c, 2, 11, 84
4, 13640, Control_c, 2, 11, 85
4, 13650, Note_on_c, 2, 65, 0
4, 13650, Note_on_c, 2, 68, 0
4, 13680, Control_c, 2, 11, 86
4, 13720, Control_c, 2, 11, 87
4, 13760, Control_c, 2, 11, 88
4, 13800, Control_c, 2, 11, 89
4, 13840, Control_c, 2, 11, 90
4, 13880, Control_c, 2, 11, 91
4, 13920, Note_on_c, 2, 68, 40
4, 13920, Control_c, 2, 11, 92
4, 13960, Control_c, 2, 11, 93
4, 14000, Control_c, 2, 11, 94
4, 14040, Control_c, 2, 11, 95
4, 14080, Control_c, 2, 11, 96
4, 14120, Control_c, 2, 11, 97
4, 14160, Control_c, 2, 11, 98
4, 14200, Control_c, 2, 11, 99
4, 14240, Control_c, 2, 11, 100
4, 14280, Control_c, 2, 11, 101
4, 14320, Control_c, 2, 11, 102
4, 14360, Control_c, 2, 11, 103
4, 14400, Note_on_c, 2, 65, 40
4, 14400, Control_c, 2, 11, 104
4, 14440, Control_c, 2, 11, 105
4, 14480, Control_c, 2, 11, 106
4, 14520, Control_c, 2, 11, 107
4, 14560, Control_c, 2, 11, 108
4, 14600, Control_c, 2, 11, 109
4, 14610, Note_on_c, 2, 65, 0
4, 14610, Note_on_c, 2, 68, 0
4, 14640, Note_on_c, 2, 65, 40
4, 14640, Note_on_c, 2, 68, 40
4, 14640, Control_c, 2, 11, 110
4, 14670, Control_c, 2, 11, 109
4, 14690, Control_c, 2, 11, 108
4, 14720, Control_c, 2, 11, 107
4, 14740, Control_c, 2, 11, 106
4, 14760, Control_c, 2, 11, 105
4, 14790, Control_c, 2, 11, 104
4, 14810, Control_c, 2, 11, 103
4, 14840, Control_c, 2, 11, 102
4, 14850, Note_on_c, 2, 65, 0
4, 14850, Note_on_c, 2, 68, 0
4, 14860, Control_c, 2, 11, 101
4, 14880, Note_on_c, 2, 63, 40
4, 14880, Note_on_c, 2, 67, 40
4, 14880, Control_c, 2, 11, 100
4, 14910, Control_c, 2, 11, 99
4, 14930, Control_c, 2, 11, 98
4, 14960, Control_c, 2, 11, 97
4, 14980, Control_c, 2, 11, 96
4, 15000, Control_c, 2, 11, 95
4, 15030, Control_c, 2, 11, 94
4, 15050, Control_c, 2, 11, 93
4, 15080, Control_c, 2, 11, 92
4, 15090, Note_on_c, 2, 63, 0
4, 15090, Note_on_c, 2, 67, 0
4, 15100, Control_c, 2, 11, 91
4, 15120, Note_on_c, 2, 62, 40
4, 15120, Note_on_c, 2, 65, 40
4, 15120, Control_c, 2, 11, 90
4, 15150, Control_c, 2, 11, 89
4, 15170, Control_c, 2, 11, 88
4, 15200, Control_c, 2, 11, 87
4, 15220, Control_c, 2, 11, 86
4, 15240, Control_c, 2, 11, 85
4, 15270, Control_c, 2, 11, 84
4, 15290, Control_c, 2, 11, 83
4, 15320, Control_c, 2, 11, 82
4, 15330, Note_on_c, 2, 62, 0
4, 15330, Note_on_c, 2, 65, 0
4, 15340, Control_c, 2, 11, 80
4, 15360, Note_on_c, 2, 63, 40
4, 15360, Note_on_c, 2, 67, 40
4, 15570, Note_on_c, 2, 63, 0
4, 15570, Note_on_c, 2, 67, 0
4, 15600, Note_on_c, 2, 63, 40
4, 15600, Note_on_c, 2, 68, 40
4, 15750, Note_on_c, 2, 63, 0
4, 15750, Note_on_c, 2, 68, 0
4, 15780, Note_on_c, 2, 63, 40
4, 15780, Note_on_c, 2, 68, 40
4, 15840, Note_on_c, 2, 63, 0
4, 15840, Note_on_c, 2, 63, 40
4, 15840, Note_on_c, 2, 67, 40
4, 15840, Note_on_c, 2, 68, 0
4, 16050, Note_on_c, 2, 63, 0
4, 16050, Note_on_c, 2, 67, 0
4, 35520, Note_on_c, 2, 67, 40
4, 35520, Note_on_c, 2, 70, 40
4, 36000, Note_on_c, 2, 65, 40
4, 36000, Note_on_c, 2, 68, 40
4, 36020, Note_on_c, 2, 67, 0
4, 36020, Note_on_c, 2, 70, 0
4, 36240, Note_on_c, 2, 63, 40
4, 36240, Note_on_c, 2, 67, 40
4, 36256, Note_on_c, 2, 65, 0
4, 36256, Note_on_c, 2, 68, 0
4, 36465, Note_on_c, 2, 63, 0
4, 36465, Note_on_c, 2, 67, 0
4, 36480, Note_on_c, 2, 62, 40
4, 36480, Note_on_c, 2, 65, 40
4, 37429, Note_on_c, 2, 62, 0
4, 37429, Note_on_c, 2, 65, 0
4, 37440, Note_on_c, 2, 68, 40
4, 37440, Control_c, 2, 11, 80
4, 37510, Control_c, 2, 11, 81
4, 37570, Control_c, 2, 11, 82
4, 37630, Control_c, 2, 11, 83
4, 37690, Control_c, 2, 11, 84
4, 37750, Control_c, 2, 11, 85
4, 37810, Control_c, 2, 11, 86
4, 37880, Control_c, 2, 11, 87
4, 37920, Note_on_c, 2, 67, 40
4, 37940, Note_on_c, 2, 68, 0
4, 37940, Control_c, 2, 11, 88
4, 38000, Control_c, 2, 11, 89
4, 38060, Control_c, 2, 11, 90
4, 38120, Control_c, 2, 11, 91
4, 38160, Note_on_c, 2, 65, 40
4, 38160, Note_on_c, 2, 68, 40
4, 38176, Note_on_c, 2, 67, 0
4, 38180, Control_c, 2, 11, 92
4, 38240, Control_c, 2, 11, 93
4, 38310, Control_c, 2, 11, 94
4, 38370, Control_c, 2, 11, 95
4, 38385, Note_on_c, 2, 65, 0
4, 38385, Note_on_c, 2, 68, 0
4, 38400, Note_on_c, 2, 64, 40
4, 38400, Note_on_c, 2, 70, 40
4, 38430, Control_c, 2, 11, 96
4, 38490, Control_c, 2, 11, 97
4, 38550, Control_c, 2, 11, 98
4, 38610, Control_c, 2, 11, 100
4, 38660, Note_on_c, 2, 64, 0
4, 38660, Note_on_c, 2, 70, 0
4, 38820, Note_on_c, 2, 70, 40
4, 38820, Note_on_c, 2, 72, 40
4, 38865, Note_on_c, 2, 70, 0
4, 38865, Note_on_c, 2, 72, 0
4, 38880, Note_on_c, 2, 70, 40
4, 38880, Note_on_c, 2, 72, 40
4, 39410, Note_on_c, 2, 70, 0
4, 39410, Note_on_c, 2, 72, 0
4, 39720, Control_c, 2, 11, 80
4, 39840, Note_on_c, 2, 68, 40
4, 39840, Note_on_c, 2, 72, 40
4, 40080, Note_on_c, 2, 67, 40
4, 40095, Note_on_c, 2, 68, 0
4, 40305, Note_on_c, 2, 67, 0
4, 40305, Note_on_c, 2, 72, 0
4, 40320, Note_on_c, 2, 66, 40
4, 40320, Note_on_c, 2, 72, 40
4, 40545, Note_on_c, 2, 72, 0
4, 40560, Note_on_c, 2, 72, 40
4, 40800, Note_on_c, 2, 75, 50
4, 40815, Note_on_c, 2, 72, 0
4, 41040, Note_on_c, 2, 72, 40
4, 41055, Note_on_c, 2, 75, 0
4, 41280, Note_on_c, 2, 67, 40
4, 41280, Note_on_c, 2, 71, 40
4, 41295, Note_on_c, 2, 66, 0
4, 41295, Note_on_c, 2, 72, 0
4, 41535, Note_on_c, 2, 67, 0
4, 41538, Note_on_c, 2, 71, 0
4, 42240, Note_on_c, 2, 67, 40
4, 42240, Note_on_c, 2, 79, 40
4, 42720, Note_on_c, 2, 65, 40
4, 42720, Note_on_c, 2, 77, 40
4, 42735, Note_on_c, 2, 67, 0
4, 42735, Note_on_c, 2, 79, 0
4, 42960, Note_on_c, 2, 63, 40
4, 42960, Note_on_c, 2, 75, 40
4, 42975, Note_on_c, 2, 65, 0
4, 42975, Note_on_c, 2, 77, 0
4, 43195, Note_on_c, 2, 63, 0
4, 43195, Note_on_c, 2, 75, 0
4, 43200, Note_on_c, 2, 62, 40
4, 43200, Note_on_c, 2, 74, 40
4, 43200, Control_c, 2, 11, 80
4, 43250, Control_c, 2, 11, 81
4, 43300, Control_c, 2, 11, 82
4, 43350, Control_c, 2, 11, 83
4, 43400, Control_c, 2, 11, 85
4, 43440, Control_c, 2, 11, 86
4, 43490, Control_c, 2, 11, 87
4, 43540, Control_c, 2, 11, 88
4, 43590, Control_c, 2, 11, 90
4, 43640, Control_c, 2, 11, 91
4, 43650, Note_on_c, 2, 62, 0
4, 43680, Note_on_c, 2, 62, 40
4, 43680, Note_on_c, 2, 67, 40
4, 43680, Control_c, 2, 11, 92
4, 43710, Note_on_c, 2, 74, 0
4, 43730, Control_c, 2, 11, 93
4, 43780, Control_c, 2, 11, 95
4, 43830, Control_c, 2, 11, 96
4, 43880, Control_c, 2, 11, 97
4, 43920, Note_on_c, 2, 65, 40
4, 43920, Control_c, 2, 11, 98
4, 43950, Note_on_c, 2, 62, 0
4, 43970, Control_c, 2, 11, 100
4, 44020, Control_c, 2, 11, 101
4, 44070, Control_c, 2, 11, 102
4, 44120, Control_c, 2, 11, 103
4, 44160, Note_on_c, 2, 63, 40
4, 44160, Control_c, 2, 11, 105
4, 44190, Note_on_c, 2, 65, 0
4, 44210, Control_c, 2, 11, 104
4, 44260, Control_c, 2, 11, 103
4, 44310, Control_c, 2, 11, 102
4, 44360, Control_c, 2, 11, 100
4, 44400, Control_c, 2, 11, 99
4, 44450, Control_c, 2, 11, 98
4, 44500, Control_c, 2, 11, 97
4, 44550, Control_c, 2, 11, 95
4, 44600, Control_c, 2, 11, 94
4, 44640, Note_on_c, 2, 62, 40
4, 44640, Control_c, 2, 11, 93
4, 44670, Note_on_c, 2, 63, 0
4, 44690, Control_c, 2, 11, 92
4, 44740, Control_c, 2, 11, 90
4, 44790, Control_c, 2, 11, 89
4, 44840, Control_c, 2, 11, 88
4, 44880, Note_on_c, 2, 60, 40
4, 44880, Note_on_c, 2, 66, 40
4, 44880, Control_c, 2, 11, 87
4, 44910, Note_on_c, 2, 62, 0
4, 44910, Note_on_c, 2, 67, 0
4, 44930, Control_c, 2, 11, 85
4, 44980, Control_c, 2, 11, 84
4, 45030, Control_c, 2, 11, 82
4, 45080, Control_c, 2, 11, 80
4, 45090, Note_on_c, 2, 60, 0
4, 45090, Note_on_c, 2, 66, 0
4, 45120, Note_on_c, 2, 67, 40
4, 45170, Control_c, 2, 11, 80
4, 45210, Control_c, 2, 11, 81
4, 45250, Control_c, 2, 11, 81
4, 45290, Control_c, 2, 11, 82
4, 45330, Control_c, 2, 11, 82
4, 45360, Note_on_c, 2, 68, 40
4, 45370, Control_c, 2, 11, 83
4, 45390, Note_on_c, 2, 67, 0
4, 45410, Control_c, 2, 11, 83
4, 45450, Control_c, 2, 11, 84
4, 45490, Control_c, 2, 11, 84
4, 45530, Control_c, 2, 11, 85
4, 45570, Control_c, 2, 11, 85
4, 45600, Note_on_c, 2, 67, 40
4, 45620, Control_c, 2, 11, 86
4, 45630, Note_on_c, 2, 68, 0
4, 45660, Control_c, 2, 11, 87
4, 45700, Control_c, 2, 11, 87
4, 45740, Control_c, 2, 11, 88
4, 45780, Control_c, 2, 11, 88
4, 45820, Control_c, 2, 11, 89
4, 45840, Note_on_c, 2, 72, 40
4, 45860, Control_c, 2, 11, 89
4, 45870, Note_on_c, 2, 67, 0
4, 45900, Control_c, 2, 11, 90
4, 45940, Control_c, 2, 11, 90
4, 45980, Control_c, 2, 11, 91
4, 46020, Control_c, 2, 11, 91
4, 46060, Control_c, 2, 11, 92
4, 46080, Note_on_c, 2, 71, 40
4, 46110, Note_on_c, 2, 72, 0
4, 46110, Control_c, 2, 11, 92
4, 46150, Control_c, 2, 11, 93
4, 46190, Control_c, 2, 11, 93
4, 46230, Control_c, 2, 11, 94
4, 46270, Control_c, 2, 11, 94
4, 46310, Control_c, 2, 11, 95
4, 46320, Note_on_c, 2, 75, 40
4, 46350, Note_on_c, 2, 71, 0
4, 46350, Control_c, 2, 11, 96
4, 46390, Control_c, 2, 11, 96
4, 46430, Control_c, 2, 11, 97
4, 46470, Control_c, 2, 11, 97
4, 46510, Control_c, 2, 11, 98
4, 46550, Control_c, 2, 11, 98
4, 46560, Note_on_c, 2, 74, 40
4, 46590, Note_on_c, 2, 75, 0
4, 46600, Control_c, 2, 11, 99
4, 46640, Control_c, 2, 11, 99
4, 46680, Control_c, 2, 11, 100
4, 46720, Control_c, 2, 11, 100
4, 46760, Control_c, 2, 11, 101
4, 46800, Note_on_c, 2, 67, 40
4, 46800, Note_on_c, 2, 72, 40
4, 46800, Control_c, 2, 11, 101
4, 46830, Note_on_c, 2, 74, 0
4, 46840, Control_c, 2, 11, 102
4, 46880, Control_c, 2, 11, 102
4, 46920, Control_c, 2, 11, 103
4, 46960, Control_c, 2, 11, 103
4, 47000, Control_c, 2, 11, 104
4, 47040, Note_on_c, 2, 65, 40
4, 47040, Note_on_c, 2, 67, 0
4, 47040, Note_on_c, 2, 71, 40
4, 47040, Note_on_c, 2, 72, 0
4, 47040, Control_c, 2, 11, 105
4, 47070, Control_c, 2, 11, 105
4, 47090, Control_c, 2, 11, 104
4, 47110, Control_c, 2, 11, 104
4, 47130, Control_c, 2, 11, 103
4, 47150, Control_c, 2, 11, 103
4, 47170, Control_c, 2, 11, 102
4, 47190, Control_c, 2, 11, 102
4, 47210, Control_c, 2, 11, 101
4, 47230, Control_c, 2, 11, 101
4, 47250, Control_c, 2, 11, 100
4, 47270, Control_c, 2, 11, 100
4, 47290, Control_c, 2, 11, 99
4, 47310, Control_c, 2, 11, 98
4, 47330, Control_c, 2, 11, 98
4, 47350, Control_c, 2, 11, 97
4, 47370, Control_c, 2, 11, 97
4, 47390, Control_c, 2, 11, 96
4, 47410, Control_c, 2, 11, 96
4, 47430, Control_c, 2, 11, 95
4, 47450, Control_c, 2, 11, 95
4, 47470, Control_c, 2, 11, 94
4, 47490, Control_c, 2, 11, 94
4, 47510, Control_c, 2, 11, 93
4, 47520, Note_on_c, 2, 63, 40
4, 47520, Note_on_c, 2, 68, 40
4, 47540, Control_c, 2, 11, 92
4, 47550, Note_on_c, 2, 65, 0
4, 47550, Note_on_c, 2, 71, 0
4, 47560, Control_c, 2, 11, 92
4, 47580, Control_c, 2, 11, 91
4, 47600, Control_c, 2, 11, 91
4, 47620, Control_c, 2, 11, 90
4, 47640, Control_c, 2, 11, 90
4, 47660, Control_c, 2, 11, 89
4, 47680, Control_c, 2, 11, 89
4, 47700, Control_c, 2, 11, 88
4, 47720, Control_c, 2, 11, 88
4, 47740, Control_c, 2, 11, 87
4, 47760, Control_c, 2, 11, 87
4, 47780, Control_c, 2, 11, 86
4, 47800, Control_c, 2, 11, 86
4, 47820, Control_c, 2, 11, 85
4, 47840, Control_c, 2, 11, 85
4, 47860, Control_c, 2, 11, 84
4, 47880, Control_c, 2, 11, 84
4, 47900, Control_c, 2, 11, 83
4, 47920, Control_c, 2, 11, 83
4, 47940, Control_c, 2, 11, 82
4, 47960, Control_c, 2, 11, 81
4, 47980, Control_c, 2, 11, 80
4, 48000, Note_on_c, 2, 62, 40
4, 48000, Note_on_c, 2, 67, 40
4, 48030, Note_on_c, 2, 63, 0
4, 48030, Note_on_c, 2, 68, 0
4, 48480, Note_on_c, 2, 60, 55
4, 48510, Note_on_c, 2, 62, 0
4, 48960, Note_on_c, 2, 65, 40
4, 48990, Note_on_c, 2, 67, 0
4, 49440, Note_on_c, 2, 60, 0
4, 49440, Note_on_c, 2, 65, 0
4, 49920, Note_on_c, 2, 65, 40
4, 49920, Note_on_c, 2, 68, 40
4, 50400, Note_on_c, 2, 65, 0
4, 50400, Note_on_c, 2, 68, 0
4, 50880, Note_on_c, 2, 65, 40
4, 50880, Note_on_c, 2, 68, 40
4, 50880, Control_c, 2, 11, 80
4, 50920, Control_c, 2, 11, 81
4, 50960, Control_c, 2, 11, 83
4, 51000, Control_c, 2, 11, 85
4, 51040, Control_c, 2, 11, 87
4, 51080, Control_c, 2, 11, 89
4, 51120, Control_c, 2, 11, 91
4, 51150, Control_c, 2, 11, 93
4, 51190, Control_c, 2, 11, 95
4, 51230, Control_c, 2, 11, 97
4, 51270, Control_c, 2, 11, 99
4, 51310, Control_c, 2, 11, 101
4, 51350, Control_c, 2, 11, 103
4, 51380, Control_c, 2, 11, 104
4, 51420, Control_c, 2, 11, 106
4, 51460, Control_c, 2, 11, 108
4, 51500, Control_c, 2, 11, 110
4, 51540, Control_c, 2, 11, 112
4, 51570, Note_on_c, 2, 65, 0
4, 51570, Note_on_c, 2, 68, 0
4, 51580, Control_c, 2, 11, 114
4, 51600, Note_on_c, 2, 62, 40
4, 51600, Note_on_c, 2, 68, 40
4, 51610, Control_c, 2, 11, 115
4, 51650, Control_c, 2, 11, 117
4, 51690, Control_c, 2, 11, 119
4, 51730, Control_c, 2, 11, 121
4, 51770, Control_c, 2, 11, 123
4, 51810, Note_on_c, 2, 62, 0
4, 51810, Note_on_c, 2, 68, 0
4, 51810, Control_c, 2, 11, 125
4, 51840, Note_on_c, 2, 67, 40
4, 51930, Note_on_c, 2, 67, 0
4, 52080, Note_on_c, 2, 65, 40
4, 52080, Note_on_c, 2, 68, 40
4, 52170, Note_on_c, 2, 65, 0
4, 52170, Note_on_c, 2, 68, 0
4, 52440, Control_c, 2, 11, 80
4, 52560, Note_on_c, 2, 66, 40
4, 52560, Note_on_c, 2, 72, 40
4, 52810, Control_c, 2, 11, 80
4, 52830, Control_c, 2, 11, 82
4, 52860, Control_c, 2, 11, 85
4, 52880, Control_c, 2, 11, 87
4, 52910, Control_c, 2, 11, 90
4, 52930, Control_c, 2, 11, 92
4, 52960, Control_c, 2, 11, 95
4, 52980, Control_c, 2, 11, 97
4, 53010, Note_on_c, 2, 66, 0
4, 53010, Note_on_c, 2, 72, 0
4, 53010, Control_c, 2, 11, 100
4, 53030, Control_c, 2, 11, 102
4, 53040, Note_on_c, 2, 67, 40
4, 53040, Note_on_c, 2, 72, 40
4, 53060, Control_c, 2, 11, 105
4, 53080, Control_c, 2, 11, 107
4, 53110, Control_c, 2, 11, 110
4, 53130, Control_c, 2, 11, 112
4, 53160, Control_c, 2, 11, 115
4, 53180, Control_c, 2, 11, 117
4, 53210, Control_c, 2, 11, 120
4, 53230, Control_c, 2, 11, 122
4, 53260, Control_c, 2, 11, 125
4, 53280, Note_on_c, 2, 65, 40
4, 53280, Note_on_c, 2, 71, 40
4, 53280, Control_c, 2, 11, 127
4, 53310, Note_on_c, 2, 67, 0
4, 53310, Note_on_c, 2, 72, 0
4, 53310, Control_c, 2, 11, 125
4, 53330, Control_c, 2, 11, 123
4, 53360, Control_c, 2, 11, 120
4, 53380, Control_c, 2, 11, 118
4, 53400, Control_c, 2, 11, 116
4, 53430, Control_c, 2, 11, 113
4, 53450, Control_c, 2, 11, 111
4, 53480, Control_c, 2, 11, 108
4, 53490, Note_on_c, 2, 65, 0
4, 53490, Note_on_c, 2, 71, 0
4, 53500, Control_c, 2, 11, 106
4, 53520, Note_on_c, 2, 65, 40
4, 53520, Note_on_c, 2, 71, 40
4, 53520, Control_c, 2, 11, 104
4, 53550, Control_c, 2, 11, 101
4, 53570, Control_c, 2, 11, 99
4, 53600, Control_c, 2, 11, 96
4, 53620, Control_c, 2, 11, 94
4, 53640, Control_c, 2, 11, 92
4, 53670, Control_c, 2, 11, 89
4, 53690, Control_c, 2, 11, 86
4, 53700, Note_on_c, 2, 74, 40
4, 53715, Note_on_c, 2, 71, 0
4, 53720, Control_c, 2, 11, 83
4, 53730, Note_on_c, 2, 65, 0
4, 53740, Control_c, 2, 11, 80
4, 53745, Note_on_c, 2, 74, 0
4, 53760, Note_on_c, 2, 63, 40
4, 53760, Note_on_c, 2, 72, 40
4, 54000, Note_on_c, 2, 63, 0
4, 54000, Note_on_c, 2, 72, 0
4, 57540, Control_c, 2, 11, 110
4, 57600, Note_on_c, 2, 68, 40
4, 57600, Note_on_c, 2, 74, 40
4, 58050, Note_on_c, 2, 68, 0
4, 58050, Note_on_c, 2, 74, 0
4, 58080, Note_on_c, 2, 68, 40
4, 58080, Note_on_c, 2, 74, 40
4, 58470, Note_on_c, 2, 68, 0
4, 58470, Note_on_c, 2, 74, 0
4, 58500, Note_on_c, 2, 68, 40
4, 58500, Note_on_c, 2, 74, 40
4, 58545, Note_on_c, 2, 68, 0
4, 58545, Note_on_c, 2, 74, 0
4, 58560, Note_on_c, 2, 69, 40
4, 58560, Note_on_c, 2, 75, 40
4, 58610, Control_c, 2, 11, 109
4, 58630, Control_c, 2, 11, 108
4, 58650, Control_c, 2, 11, 108
4, 58670, Control_c, 2, 11, 107
4, 58690, Control_c, 2, 11, 106
4, 58710, Control_c, 2, 11, 106
4, 58730, Control_c, 2, 11, 105
4, 58750, Control_c, 2, 11, 105
4, 58770, Control_c, 2, 11, 104
4, 58790, Control_c, 2, 11, 103
4, 58810, Control_c, 2, 11, 103
4, 58830, Control_c, 2, 11, 102
4, 58850, Control_c, 2, 11, 101
4, 58870, Control_c, 2, 11, 101
4, 58890, Control_c, 2, 11, 100
4, 58910, Control_c, 2, 11, 100
4, 58930, Control_c, 2, 11, 99
4, 58950, Control_c, 2, 11, 98
4, 58970, Control_c, 2, 11, 98
4, 58990, Control_c, 2, 11, 97
4, 59010, Control_c, 2, 11, 96
4, 59030, Control_c, 2, 11, 96
4, 59060, Control_c, 2, 11, 95
4, 59080, Control_c, 2, 11, 94
4, 59100, Control_c, 2, 11, 94
4, 59120, Control_c, 2, 11, 93
4, 59140, Control_c, 2, 11, 92
4, 59160, Control_c, 2, 11, 92
4, 59180, Control_c, 2, 11, 91
4, 59200, Control_c, 2, 11, 90
4, 59220, Control_c, 2, 11, 90
4, 59240, Control_c, 2, 11, 89
4, 59260, Control_c, 2, 11, 89
4, 59280, Note_on_c, 2, 74, 40
4, 59280, Control_c, 2, 11, 88
4, 59300, Control_c, 2, 11, 87
4, 59310, Note_on_c, 2, 75, 0
4, 59320, Control_c, 2, 11, 87
4, 59340, Control_c, 2, 11, 86
4, 59360, Control_c, 2, 11, 85
4, 59380, Control_c, 2, 11, 85
4, 59400, Note_on_c, 2, 72, 40
4, 59400, Control_c, 2, 11, 84
4, 59420, Control_c, 2, 11, 84
4, 59430, Note_on_c, 2, 74, 0
4, 59440, Control_c, 2, 11, 83
4, 59460, Control_c, 2, 11, 82
4, 59480, Control_c, 2, 11, 81
4, 59490, Note_on_c, 2, 69, 0
4, 59490, Note_on_c, 2, 72, 0
4, 59500, Control_c, 2, 11, 80
4, 59520, Note_on_c, 2, 63, 40
4, 59520, Note_on_c, 2, 72, 40
4, 60000, Note_on_c, 2, 65, 40
4, 60000, Note_on_c, 2, 71, 40
4, 60030, Note_on_c, 2, 63, 0
4, 60030, Note_on_c, 2, 72, 0
4, 60450, Note_on_c, 2, 65, 0
4, 60450, Note_on_c, 2, 71, 0
4, 60480, Note_on_c, 2, 63, 40
4, 60480, Note_on_c, 2, 72, 40
4, 60720, Note_on_c, 2, 63, 0
4, 60720, Note_on_c, 2, 72, 0
4, 61440, Note_on_c, 2, 67, 40
4, 61440, Note_on_c, 2, 75, 40
4, 61920, Note_on_c, 2, 65, 40
4, 61920, Note_on_c, 2, 74, 40
4, 61950, Note_on_c, 2, 67, 0
4, 61950, Note_on_c, 2, 75, 0
4, 62340, Note_on_c, 2, 63, 40
4, 62340, Note_on_c, 2, 72, 40
4, 62350, Note_on_c, 2, 65, 0
4, 62350, Note_on_c, 2, 74, 0
4, 62377, Note_on_c, 2, 63, 0
4, 62377, Note_on_c, 2, 72, 0
4, 62400, Note_on_c, 2, 63, 40
4, 62400, Note_on_c, 2, 72, 40
4, 62640, Note_on_c, 2, 63, 0
4, 62640, Note_on_c, 2, 72, 0
4, 63120, Note_on_c, 2, 63, 40
4, 63120, Note_on_c, 2, 75, 40
4, 63120, Control_c, 2, 11, 80
4, 63130, Control_c, 2, 11, 83
4, 63140, Control_c, 2, 11, 86
4, 63150, Control_c, 2, 11, 90
4, 63160, Control_c, 2, 11, 93
4, 63170, Control_c, 2, 11, 96
4, 63180, Control_c, 2, 11, 100
4, 63190, Control_c, 2, 11, 103
4, 63200, Control_c, 2, 11, 106
4, 63360, Note_on_c, 2, 60, 40
4, 63360, Note_on_c, 2, 72, 40
4, 63390, Note_on_c, 2, 63, 0
4, 63390, Note_on_c, 2, 75, 0
4, 63570, Note_on_c, 2, 60, 0
4, 63570, Note_on_c, 2, 72, 0
4, 63600, Note_on_c, 2, 68, 40
4, 63765, Note_on_c, 2, 68, 0
4, 63780, Note_on_c, 2, 65, 40
4, 63825, Note_on_c, 2, 65, 0
4, 63840, Note_on_c, 2, 62, 40
4, 63930, Note_on_c, 2, 62, 0
4, 64080, Note_on_c, 2, 67, 40
4, 64170, Note_on_c, 2, 67, 0
4, 64317, Control_c, 2, 11, 80
4, 64320, Note_on_c, 2, 60, 40
4, 64410, Note_on_c, 2, 60, 0
4, 64800, Note_on_c, 2, 63, 40
4, 64800, Note_on_c, 2, 67, 40
4, 64890, Note_on_c, 2, 63, 0
4, 64890, Note_on_c, 2, 67, 0
4, 65280, Note_on_c, 2, 63, 40
4, 65280, Note_on_c, 2, 67, 40
4, 65520, Note_on_c, 2, 63, 0
4, 65520, Note_on_c, 2, 67, 0
4, 93120, Note_on_c, 2, 65, 70
4, 93120, Note_on_c, 2, 71, 70
4, 94050, Note_on_c, 2, 65, 0
4, 94050, Note_on_c, 2, 71, 0
4, 94080, Note_on_c, 2, 64, 80
4, 94080, Note_on_c, 2, 72, 80
4, 94710, Note_on_c, 2, 64, 0
4, 94710, Note_on_c, 2, 72, 0
4, 94800, Note_on_c, 2, 67, 80
4, 94800, Note_on_c, 2, 76, 80
4, 94890, Note_on_c, 2, 67, 0
4, 94890, Note_on_c, 2, 76, 0
4, 95040, Note_on_c, 2, 64, 80
4, 95040, Note_on_c, 2, 72, 80
4, 95670, Note_on_c, 2, 64, 0
4, 95670, Note_on_c, 2, 72, 0
4, 95760, Note_on_c, 2, 67, 80
4, 95760, Note_on_c, 2, 76, 80
4, 95850, Note_on_c, 2, 67, 0
4, 95850, Note_on_c, 2, 76, 0
4, 96000, Note_on_c, 2, 64, 80
4, 96000, Note_on_c, 2, 72, 80
4, 96090, Note_on_c, 2, 64, 0
4, 96090, Note_on_c, 2, 72, 0
4, 96240, Note_on_c, 2, 67, 80
4, 96240, Note_on_c, 2, 76, 80
4, 96330, Note_on_c, 2, 67, 0
4, 96330, Note_on_c, 2, 76, 0
4, 96480, Note_on_c, 2, 64, 80
4, 96480, Note_on_c, 2, 72, 80
4, 96570, Note_on_c, 2, 64, 0
4, 96570, Note_on_c, 2, 72, 0
4, 96720, Note_on_c, 2, 67, 80
4, 96720, Note_on_c, 2, 76, 80
4, 96810, Note_on_c, 2, 67, 0
4, 96810, Note_on_c, 2, 76, 0
4, 96960, Note_on_c, 2, 64, 80
4, 96960, Note_on_c, 2, 72, 80
4, 97050, Note_on_c, 2, 64, 0
4, 97050, Note_on_c, 2, 72, 0
4, 116160, Note_on_c, 2, 77, 75
4, 117090, Note_on_c, 2, 77, 0
4, 117120, Note_on_c, 2, 73, 75
4, 118050, Note_on_c, 2, 73, 0
4, 118080, Note_on_c, 2, 76, 75
4, 118770, Note_on_c, 2, 76, 0
4, 118800, Note_on_c, 2, 76, 75
4, 118820, Note_on_c, 2, 76, 0
4, 118820, Note_on_c, 2, 77, 75
4, 118840, Note_on_c, 2, 76, 75
4, 118840, Note_on_c, 2, 77, 0
4, 118860, Note_on_c, 2, 76, 0
4, 118860, Note_on_c, 2, 77, 75
4, 118880, Note_on_c, 2, 76, 75
4, 118880, Note_on_c, 2, 77, 0
4, 118900, Note_on_c, 2, 76, 0
4, 118900, Note_on_c, 2, 77, 75
4, 118920, Note_on_c, 2, 76, 75
4, 118920, Note_on_c, 2, 77, 0
4, 118940, Note_on_c, 2, 76, 0
4, 118940, Note_on_c, 2, 77, 75
4, 118960, Note_on_c, 2, 76, 75
4, 118960, Note_on_c, 2, 77, 0
4, 118980, Note_on_c, 2, 74, 75
4, 118980, Note_on_c, 2, 76, 0
4, 119010, Note_on_c, 2, 76, 75
4, 119015, Note_on_c, 2, 74, 0
4, 119040, Note_on_c, 2, 76, 0
4, 119040, Note_on_c, 2, 77, 75
4, 119280, Note_on_c, 2, 77, 0
4, 124800, Note_on_c, 2, 65, 75
4, 125280, Note_on_c, 2, 67, 75
4, 125310, Note_on_c, 2, 65, 0
4, 125520, Note_on_c, 2, 68, 75
4, 125550, Note_on_c, 2, 67, 0
4, 125730, Note_on_c, 2, 68, 0
4, 125760, Note_on_c, 2, 70, 75
4, 126450, Note_on_c, 2, 70, 0
4, 126480, Note_on_c, 2, 68, 75
4, 126690, Note_on_c, 2, 68, 0
4, 126720, Note_on_c, 2, 67, 75
4, 126960, Note_on_c, 2, 73, 75
4, 126990, Note_on_c, 2, 67, 0
4, 127200, Note_on_c, 2, 72, 75
4, 127230, Note_on_c, 2, 73, 0
4, 127440, Note_on_c, 2, 70, 75
4, 127470, Note_on_c, 2, 72, 0
4, 127650, Note_on_c, 2, 70, 0
4, 127680, Note_on_c, 2, 68, 75
4, 127920, Note_on_c, 2, 67, 75
4, 128160, Note_on_c, 2, 65, 75
4, 128190, Note_on_c, 2, 67, 0
4, 128400, Note_on_c, 2, 63, 75
4, 128430, Note_on_c, 2, 65, 0
4, 128640, Note_on_c, 2, 62, 45
4, 128670, Note_on_c, 2, 63, 0
4, 128880, Note_on_c, 2, 72, 45
4, 128910, Note_on_c, 2, 68, 0
4, 129120, Note_on_c, 2, 63, 45
4, 129120, Note_on_c, 2, 70, 45
4, 129150, Note_on_c, 2, 62, 0
4, 129150, Note_on_c, 2, 72, 0
4, 129360, Note_on_c, 2, 65, 45
4, 129360, Note_on_c, 2, 68, 45
4, 129390, Note_on_c, 2, 63, 0
4, 129390, Note_on_c, 2, 70, 0
4, 129570, Note_on_c, 2, 65, 0
4, 129570, Note_on_c, 2, 68, 0
4, 129600, Note_on_c, 2, 63, 45
4, 130080, Note_on_c, 2, 65, 45
4, 130110, Note_on_c, 2, 63, 0
4, 130320, Note_on_c, 2, 67, 45
4, 130350, Note_on_c, 2, 65, 0
4, 130530, Note_on_c, 2, 67, 0
4, 130560, Note_on_c, 2, 68, 45
4, 131280, Note_on_c, 2, 67, 45
4, 131310, Note_on_c, 2, 68, 0
4, 131490, Note_on_c, 2, 67, 0
4, 131520, Note_on_c, 2, 65, 45
4, 132000, Note_on_c, 2, 67, 45
4, 132030, Note_on_c, 2, 65, 0
4, 132240, Note_on_c, 2, 68, 45
4, 132270, Note_on_c, 2, 67, 0
4, 132450, Note_on_c, 2, 68, 0
4, 132480, Note_on_c, 2, 70, 45
4, 133200, Note_on_c, 2, 68, 45
4, 133230, Note_on_c, 2, 70, 0
4, 133410, Note_on_c, 2, 68, 0
4, 133440, Note_on_c, 2, 67, 45
4, 133920, Note_on_c, 2, 69, 45
4, 133950, Note_on_c, 2, 67, 0
4, 134160, Note_on_c, 2, 71, 45
4, 134190, Note_on_c, 2, 69, 0
4, 134370, Note_on_c, 2, 71, 0
4, 134400, Note_on_c, 2, 60, 75
4, 134400, Note_on_c, 2, 72, 75
4, 135450, Note_on_c, 2, 60, 0
4, 135450, Note_on_c, 2, 72, 0
4, 135480, Note_on_c, 2, 65, 75
4, 135480, Note_on_c, 2, 68, 75
4, 135540, Note_on_c, 2, 65, 0
4, 135540, Note_on_c, 2, 68, 0
4, 135600, Note_on_c, 2, 67, 75
4, 135600, Note_on_c, 2, 70, 75
4, 135660, Note_on_c, 2, 67, 0
4, 135660, Note_on_c, 2, 70, 0
4, 135720, Note_on_c, 2, 68, 75
4, 135720, Note_on_c, 2, 72, 75
4, 135780, Note_on_c, 2, 68, 0
4, 135780, Note_on_c, 2, 72, 0
4, 135840, Note_on_c, 2, 70, 75
4, 135840, Note_on_c, 2, 74, 75
4, 135900, Note_on_c, 2, 70, 0
4, 135900, Note_on_c, 2, 74, 0
4, 135960, Note_on_c, 2, 72, 75
4, 135960, Note_on_c, 2, 75, 75
4, 136020, Note_on_c, 2, 72, 0
4, 136020, Note_on_c, 2, 75, 0
4, 136080, Note_on_c, 2, 74, 75
4, 136080, Note_on_c, 2, 77, 75
4, 136140, Note_on_c, 2, 74, 0
4, 136140, Note_on_c, 2, 77, 0
4, 136200, Note_on_c, 2, 75, 75
4, 136200, Note_on_c, 2, 79, 75
4, 136260, Note_on_c, 2, 75, 0
4, 136260, Note_on_c, 2, 79, 0
4, 136320, Note_on_c, 2, 75, 75
4, 136320, Note_on_c, 2, 79, 75
4, 136410, Note_on_c, 2, 75, 0
4, 136410, Note_on_c, 2, 79, 0
4, 136440, Note_on_c, 2, 68, 75
4, 136500, Note_on_c, 2, 68, 0
4, 136560, Note_on_c, 2, 68, 75
4, 136620, Note_on_c, 2, 68, 0
4, 136680, Note_on_c, 2, 67, 75
4, 136740, Note_on_c, 2, 67, 0
4, 136800, Note_on_c, 2, 65, 75
4, 136860, Note_on_c, 2, 65, 0
4, 136920, Note_on_c, 2, 75, 75
4, 136980, Note_on_c, 2, 75, 0
4, 137040, Note_on_c, 2, 74, 75
4, 137100, Note_on_c, 2, 74, 0
4, 137160, Note_on_c, 2, 72, 75
4, 137220, Note_on_c, 2, 72, 0
4, 137280, Note_on_c, 2, 71, 75
4, 137520, Note_on_c, 2, 69, 75
4, 137520, Note_on_c, 2, 71, 0
4, 137580, Note_on_c, 2, 69, 0
4, 137640, Note_on_c, 2, 67, 75
4, 137640, Note_on_c, 2, 71, 75
4, 137700, Note_on_c, 2, 71, 0
4, 137730, Note_on_c, 2, 67, 0
4, 137760, Note_on_c, 2, 69, 75
4, 137760, Note_on_c, 2, 72, 75
4, 137820, Note_on_c, 2, 69, 0
4, 137820, Note_on_c, 2, 72, 0
4, 137880, Note_on_c, 2, 70, 75
4, 137880, Note_on_c, 2, 74, 75
4, 137940, Note_on_c, 2, 70, 0
4, 137940, Note_on_c, 2, 74, 0
4, 138000, Note_on_c, 2, 72, 75
4, 138000, Note_on_c, 2, 75, 75
4, 138060, Note_on_c, 2, 72, 0
4, 138060, Note_on_c, 2, 75, 0
4, 138120, Note_on_c, 2, 74, 75
4, 138120, Note_on_c, 2, 77, 75
4, 138180, Note_on_c, 2, 74, 0
4, 138180, Note_on_c, 2, 77, 0
4, 139920, Note_on_c, 2, 74, 75
4, 140370, Note_on_c, 2, 74, 0
4, 140400, Note_on_c, 2, 72, 75
4, 140520, Note_on_c, 2, 70, 75
4, 140550, Note_on_c, 2, 72, 0
4, 140640, Note_on_c, 2, 68, 75
4, 140670, Note_on_c, 2, 70, 0
4, 140880, Note_on_c, 2, 72, 75
4, 140910, Note_on_c, 2, 68, 0
4, 141330, Note_on_c, 2, 72, 0
4, 141360, Note_on_c, 2, 70, 75
4, 141480, Note_on_c, 2, 69, 75
4, 141510, Note_on_c, 2, 70, 0
4, 141600, Note_on_c, 2, 67, 75
4, 141630, Note_on_c, 2, 69, 0
4, 141840, Note_on_c, 2, 70, 75
4, 141870, Note_on_c, 2, 67, 0
4, 142290, Note_on_c, 2, 70, 0
4, 142320, Note_on_c, 2, 69, 75
4, 142440, Note_on_c, 2, 67, 75
4, 142470, Note_on_c, 2, 69, 0
4, 142560, Note_on_c, 2, 66, 75
4, 142590, Note_on_c, 2, 67, 0
4, 142800, Note_on_c, 2, 69, 75
4, 142830, Note_on_c, 2, 66, 0
4, 143250, Note_on_c, 2, 69, 0
4, 143280, Note_on_c, 2, 67, 75
4, 143370, Note_on_c, 2, 67, 0
4, 143400, Note_on_c, 2, 69, 75
4, 143490, Note_on_c, 2, 69, 0
4, 143520, Note_on_c, 2, 70, 75
4, 143730, Note_on_c, 2, 70, 0
4, 143760, Note_on_c, 2, 67, 75
4, 143760, Note_on_c, 2, 70, 75
4, 143970, Note_on_c, 2, 67, 0
4, 143970, Note_on_c, 2, 70, 0
4, 144000, Note_on_c, 2, 67, 75
4, 144000, Note_on_c, 2, 70, 75
4, 144090, Note_on_c, 2, 67, 0
4, 144090, Note_on_c, 2, 70, 0
4, 147360, Note_on_c, 2, 66, 40
4, 147360, Note_on_c, 2, 72, 40
4, 147840, Note_on_c, 2, 67, 40
4, 147840, Note_on_c, 2, 70, 40
4, 147870, Note_on_c, 2, 66, 0
4, 147870, Note_on_c, 2, 72, 0
4, 148080, Note_on_c, 2, 67, 0
4, 148080, Note_on_c, 2, 70, 0
4, 159360, Note_on_c, 2, 68, 55
4, 159360, Note_on_c, 2, 71, 55
4, 160530, Note_on_c, 2, 68, 0
4, 160530, Note_on_c, 2, 71, 0
4, 160560, Note_on_c, 2, 68, 55
4, 160560, Note_on_c, 2, 71, 55
4, 160770, Note_on_c, 2, 68, 0
4, 160770, Note_on_c, 2, 71, 0
4, 160800, Note_on_c, 2, 68, 55
4, 160800, Note_on_c, 2, 71, 55
4, 161010, Note_on_c, 2, 68, 0
4, 161010, Note_on_c, 2, 71, 0
4, 161040, Note_on_c, 2, 68, 55
4, 161040, Note_on_c, 2, 71, 55
4, 161250, Note_on_c, 2, 68, 0
4, 161250, Note_on_c, 2, 71, 0
4, 161280, Note_on_c, 2, 68, 55
4, 161280, Note_on_c, 2, 71, 55
4, 161520, Note_on_c, 2, 68, 0
4, 161520, Note_on_c, 2, 71, 0
4, 166080, Note_on_c, 2, 60, 40
4, 166560, Note_on_c, 2, 60, 0
4, 166560, Note_on_c, 2, 62, 40
4, 166592, Note_on_c, 2, 60, 40
4, 166609, Note_on_c, 2, 62, 0
4, 166734, Note_on_c, 2, 59, 40
4, 166746, Note_on_c, 2, 60, 0
4, 166794, Note_on_c, 2, 60, 40
4, 166807, Note_on_c, 2, 59, 0
4, 166974, Note_on_c, 2, 62, 40
4, 166995, Note_on_c, 2, 60, 0
4, 167040, Note_on_c, 2, 62, 0
4, 167040, Note_on_c, 2, 63, 40
4, 167520, Note_on_c, 2, 60, 40
4, 167550, Note_on_c, 2, 63, 0
4, 167760, Note_on_c, 2, 60, 0
4, 168000, Note_on_c, 2, 67, 40
4, 168450, Note_on_c, 2, 67, 0
4, 168480, Note_on_c, 2, 65, 40
4, 168540, Note_on_c, 2, 63, 40
4, 168570, Note_on_c, 2, 65, 0
4, 168690, Note_on_c, 2, 63, 0
4, 168720, Note_on_c, 2, 62, 40
4, 168780, Note_on_c, 2, 60, 40
4, 168810, Note_on_c, 2, 62, 0
4, 168930, Note_on_c, 2, 60, 0
4, 168960, Note_on_c, 2, 63, 40
4, 169440, Note_on_c, 2, 62, 40
4, 169470, Note_on_c, 2, 63, 0
4, 169680, Note_on_c, 2, 62, 0
4, 169920, Note_on_c, 2, 62, 40
4, 170370, Note_on_c, 2, 62, 0
4, 170400, Note_on_c, 2, 62, 40
4, 170580, Note_on_c, 2, 63, 40
4, 170610, Note_on_c, 2, 62, 0
4, 170640, Note_on_c, 2, 65, 40
4, 170670, Note_on_c, 2, 63, 0
4, 170820, Note_on_c, 2, 67, 40
4, 170850, Note_on_c, 2, 65, 0
4, 170880, Note_on_c, 2, 67, 0
4, 170880, Note_on_c, 2, 68, 40
4, 170880, Control_c, 2, 11, 80
4, 170910, Control_c, 2, 11, 81
4, 170930, Control_c, 2, 11, 82
4, 170950, Control_c, 2, 11, 83
4, 170970, Control_c, 2, 11, 84
4, 170990, Control_c, 2, 11, 85
4, 171010, Control_c, 2, 11, 86
4, 171030, Control_c, 2, 11, 87
4, 171050, Control_c, 2, 11, 88
4, 171070, Control_c, 2, 11, 89
4, 171090, Control_c, 2, 11, 90
4, 171110, Control_c, 2, 11, 91
4, 171130, Control_c, 2, 11, 92
4, 171150, Control_c, 2, 11, 93
4, 171170, Control_c, 2, 11, 94
4, 171190, Control_c, 2, 11, 95
4, 171210, Control_c, 2, 11, 96
4, 171230, Control_c, 2, 11, 97
4, 171250, Control_c, 2, 11, 98
4, 171270, Control_c, 2, 11, 99
4, 171290, Control_c, 2, 11, 100
4, 171310, Control_c, 2, 11, 101
4, 171330, Control_c, 2, 11, 102
4, 171350, Control_c, 2, 11, 103
4, 171360, Note_on_c, 2, 65, 40
4, 171380, Control_c, 2, 11, 104
4, 171400, Control_c, 2, 11, 105
4, 171420, Control_c, 2, 11, 106
4, 171440, Control_c, 2, 11, 107
4, 171460, Control_c, 2, 11, 108
4, 171480, Control_c, 2, 11, 109
4, 171500, Control_c, 2, 11, 110
4, 171520, Control_c, 2, 11, 111
4, 171540, Control_c, 2, 11, 112
4, 171560, Control_c, 2, 11, 113
4, 171580, Control_c, 2, 11, 114
4, 171600, Control_c, 2, 11, 115
4, 171620, Control_c, 2, 11, 116
4, 171640, Control_c, 2, 11, 117
4, 171660, Control_c, 2, 11, 118
4, 171680, Control_c, 2, 11, 119
4, 171700, Control_c, 2, 11, 120
4, 171720, Control_c, 2, 11, 121
4, 171740, Control_c, 2, 11, 122
4, 171760, Control_c, 2, 11, 123
4, 171780, Control_c, 2, 11, 124
4, 171800, Control_c, 2, 11, 125
4, 171820, Control_c, 2, 11, 126
4, 171840, Control_c, 2, 11, 127
4, 171860, Control_c, 2, 11, 126
4, 171880, Control_c, 2, 11, 125
4, 171900, Control_c, 2, 11, 124
4, 171920, Control_c, 2, 11, 123
4, 171940, Control_c, 2, 11, 122
4, 171960, Control_c, 2, 11, 121
4, 171980, Control_c, 2, 11, 120
4, 172000, Control_c, 2, 11, 119
4, 172020, Control_c, 2, 11, 118
4, 172040, Control_c, 2, 11, 117
4, 172050, Note_on_c, 2, 65, 0
4, 172050, Note_on_c, 2, 68, 0
4, 172060, Control_c, 2, 11, 116
4, 172080, Note_on_c, 2, 65, 40
4, 172080, Note_on_c, 2, 68, 40
4, 172080, Control_c, 2, 11, 115
4, 172100, Control_c, 2, 11, 114
4, 172120, Control_c, 2, 11, 113
4, 172140, Control_c, 2, 11, 112
4, 172160, Control_c, 2, 11, 111
4, 172180, Control_c, 2, 11, 110
4, 172200, Control_c, 2, 11, 109
4, 172220, Control_c, 2, 11, 108
4, 172240, Control_c, 2, 11, 107
4, 172260, Control_c, 2, 11, 106
4, 172280, Control_c, 2, 11, 105
4, 172290, Note_on_c, 2, 65, 0
4, 172300, Control_c, 2, 11, 104
4, 172320, Note_on_c, 2, 63, 40
4, 172320, Note_on_c, 2, 67, 40
4, 172320, Control_c, 2, 11, 103
4, 172340, Control_c, 2, 11, 102
4, 172350, Note_on_c, 2, 68, 0
4, 172360, Control_c, 2, 11, 101
4, 172380, Control_c, 2, 11, 100
4, 172400, Control_c, 2, 11, 99
4, 172420, Control_c, 2, 11, 98
4, 172440, Control_c, 2, 11, 97
4, 172460, Control_c, 2, 11, 96
4, 172480, Control_c, 2, 11, 95
4, 172500, Control_c, 2, 11, 94
4, 172520, Control_c, 2, 11, 93
4, 172530, Note_on_c, 2, 63, 0
4, 172540, Control_c, 2, 11, 92
4, 172560, Note_on_c, 2, 62, 40
4, 172560, Note_on_c, 2, 65, 40
4, 172560, Control_c, 2, 11, 91
4, 172580, Control_c, 2, 11, 90
4, 172590, Note_on_c, 2, 67, 0
4, 172600, Control_c, 2, 11, 89
4, 172620, Control_c, 2, 11, 88
4, 172640, Control_c, 2, 11, 87
4, 172660, Control_c, 2, 11, 86
4, 172680, Control_c, 2, 11, 85
4, 172700, Control_c, 2, 11, 84
4, 172720, Control_c, 2, 11, 83
4, 172740, Control_c, 2, 11, 82
4, 172760, Control_c, 2, 11, 81
4, 172770, Note_on_c, 2, 62, 0
4, 172770, Note_on_c, 2, 65, 0
4, 172780, Control_c, 2, 11, 80
4, 172800, Note_on_c, 2, 63, 40
4, 172800, Note_on_c, 2, 67, 40
4, 173010, Note_on_c, 2, 63, 0
4, 173010, Note_on_c, 2, 67, 0
4, 173040, Note_on_c, 2, 63, 40
4, 173040, Note_on_c, 2, 68, 40
4, 173190, Note_on_c, 2, 63, 0
4, 173190, Note_on_c, 2, 68, 0
4, 173220, Note_on_c, 2, 63, 40
4, 173220, Note_on_c, 2, 68, 40
4, 173265, Note_on_c, 2, 63, 0
4, 173265, Note_on_c, 2, 68, 0
4, 173280, Note_on_c, 2, 63, 40
4, 173280, Note_on_c, 2, 67, 40
4, 173520, Note_on_c, 2, 63, 0
4, 173520, Note_on_c, 2, 67, 0
4, 177600, Note_on_c, 2, 70, 35
4, 177600, Note_on_c, 2, 72, 35
4, 178050, Note_on_c, 2, 70, 0
4, 178050, Note_on_c, 2, 72, 0
4, 178080, Note_on_c, 2, 68, 35
4, 178080, Note_on_c, 2, 72, 35
4, 178290, Note_on_c, 2, 68, 0
4, 178290, Note_on_c, 2, 72, 0
4, 178320, Note_on_c, 2, 67, 35
4, 178320, Note_on_c, 2, 72, 35
4, 178530, Note_on_c, 2, 67, 0
4, 178560, Note_on_c, 2, 66, 35
4, 179010, Note_on_c, 2, 66, 0
4, 179010, Note_on_c, 2, 72, 0
4, 179040, Note_on_c, 2, 60, 35
4, 179040, Note_on_c, 2, 72, 35
4, 179040, Control_c, 2, 11, 80
4, 179050, Control_c, 2, 11, 83
4, 179060, Control_c, 2, 11, 87
4, 179070, Control_c, 2, 11, 91
4, 179080, Control_c, 2, 11, 95
4, 179090, Control_c, 2, 11, 99
4, 179100, Control_c, 2, 11, 103
4, 179110, Control_c, 2, 11, 107
4, 179120, Control_c, 2, 11, 111
4, 179140, Control_c, 2, 11, 115
4, 179160, Control_c, 2, 11, 114
4, 179170, Control_c, 2, 11, 113
4, 179180, Control_c, 2, 11, 112
4, 179190, Control_c, 2, 11, 111
4, 179200, Control_c, 2, 11, 110
4, 179210, Control_c, 2, 11, 109
4, 179220, Control_c, 2, 11, 108
4, 179230, Control_c, 2, 11, 107
4, 179240, Control_c, 2, 11, 106
4, 179250, Control_c, 2, 11, 105
4, 179260, Control_c, 2, 11, 104
4, 179270, Control_c, 2, 11, 103
4, 179280, Control_c, 2, 11, 102
4, 179290, Control_c, 2, 11, 101
4, 179300, Control_c, 2, 11, 100
4, 179310, Control_c, 2, 11, 99
4, 179320, Control_c, 2, 11, 98
4, 179330, Control_c, 2, 11, 97
4, 179340, Control_c, 2, 11, 96
4, 179350, Control_c, 2, 11, 95
4, 179360, Control_c, 2, 11, 94
4, 179370, Control_c, 2, 11, 93
4, 179380, Control_c, 2, 11, 92
4, 179390, Control_c, 2, 11, 91
4, 179400, Note_on_c, 2, 66, 35
4, 179400, Control_c, 2, 11, 90
4, 179410, Control_c, 2, 11, 89
4, 179420, Control_c, 2, 11, 88
4, 179430, Note_on_c, 2, 72, 0
4, 179430, Control_c, 2, 11, 87
4, 179440, Control_c, 2, 11, 86
4, 179450, Control_c, 2, 11, 85
4, 179460, Control_c, 2, 11, 84
4, 179470, Control_c, 2, 11, 83
4, 179480, Control_c, 2, 11, 82
4, 179490, Note_on_c, 2, 60, 0
4, 179490, Note_on_c, 2, 66, 0
4, 179490, Control_c, 2, 11, 81
4, 179500, Control_c, 2, 11, 80
4, 179520, Note_on_c, 2, 59, 35
4, 179520, Note_on_c, 2, 67, 35
4, 179760, Note_on_c, 2, 59, 0
4, 179760, Note_on_c, 2, 67, 0
4, 180480, Note_on_c, 2, 67, 40
4, 180960, Note_on_c, 2, 65, 40
4, 180990, Note_on_c, 2, 67, 0
4, 181200, Note_on_c, 2, 63, 40
4, 181230, Note_on_c, 2, 65, 0
4, 181410, Note_on_c, 2, 63, 0
4, 181440, Note_on_c, 2, 62, 40
4, 181440, Control_c, 2, 11, 80
4, 181470, Control_c, 2, 11, 81
4, 181500, Control_c, 2, 11, 82
4, 181530, Control_c, 2, 11, 83
4, 181550, Control_c, 2, 11, 84
4, 181580, Control_c, 2, 11, 85
4, 181610, Control_c, 2, 11, 86
4, 181640, Control_c, 2, 11, 87
4, 181660, Control_c, 2, 11, 88
4, 181690, Control_c, 2, 11, 89
4, 181720, Control_c, 2, 11, 90
4, 181750, Control_c, 2, 11, 91
4, 181770, Control_c, 2, 11, 92
4, 181800, Control_c, 2, 11, 93
4, 181830, Control_c, 2, 11, 94
4, 181860, Control_c, 2, 11, 95
4, 181880, Control_c, 2, 11, 96
4, 181910, Control_c, 2, 11, 97
4, 181920, Note_on_c, 2, 67, 40
4, 181940, Control_c, 2, 11, 98
4, 181950, Note_on_c, 2, 62, 0
4, 181970, Control_c, 2, 11, 99
4, 181990, Control_c, 2, 11, 100
4, 182020, Control_c, 2, 11, 101
4, 182050, Control_c, 2, 11, 102
4, 182080, Control_c, 2, 11, 103
4, 182100, Control_c, 2, 11, 104
4, 182130, Note_on_c, 2, 67, 0
4, 182130, Control_c, 2, 11, 105
4, 182160, Note_on_c, 2, 67, 40
4, 182160, Note_on_c, 2, 79, 40
4, 182160, Control_c, 2, 11, 106
4, 182190, Control_c, 2, 11, 107
4, 182210, Control_c, 2, 11, 108
4, 182240, Control_c, 2, 11, 109
4, 182270, Control_c, 2, 11, 110
4, 182300, Control_c, 2, 11, 111
4, 182320, Control_c, 2, 11, 112
4, 182350, Control_c, 2, 11, 113
4, 182380, Control_c, 2, 11, 114
4, 182400, Control_c, 2, 11, 115
4, 182430, Control_c, 2, 11, 114
4, 182460, Control_c, 2, 11, 113
4, 182480, Control_c, 2, 11, 112
4, 182510, Control_c, 2, 11, 111
4, 182540, Control_c, 2, 11, 110
4, 182560, Control_c, 2, 11, 109
4, 182590, Control_c, 2, 11, 108
4, 182620, Control_c, 2, 11, 107
4, 182640, Control_c, 2, 11, 106
4, 182670, Control_c, 2, 11, 105
4, 182700, Control_c, 2, 11, 104
4, 182720, Control_c, 2, 11, 103
4, 182750, Control_c, 2, 11, 102
4, 182780, Control_c, 2, 11, 101
4, 182800, Control_c, 2, 11, 100
4, 182830, Control_c, 2, 11, 99
4, 182860, Control_c, 2, 11, 98
4, 182880, Control_c, 2, 11, 97
4, 182910, Control_c, 2, 11, 96
4, 182940, Control_c, 2, 11, 95
4, 182960, Control_c, 2, 11, 94
4, 182990, Control_c, 2, 11, 93
4, 183020, Control_c, 2, 11, 92
4, 183040, Control_c, 2, 11, 91
4, 183070, Control_c, 2, 11, 90
4, 183100, Control_c, 2, 11, 89
4, 183120, Note_on_c, 2, 66, 40
4, 183120, Note_on_c, 2, 78, 40
4, 183120, Control_c, 2, 11, 88
4, 183150, Note_on_c, 2, 67, 0
4, 183150, Note_on_c, 2, 79, 0
4, 183150, Control_c, 2, 11, 87
4, 183180, Control_c, 2, 11, 86
4, 183200, Control_c, 2, 11, 85
4, 183230, Control_c, 2, 11, 84
4, 183260, Control_c, 2, 11, 83
4, 183280, Control_c, 2, 11, 82
4, 183310, Control_c, 2, 11, 81
4, 183340, Control_c, 2, 11, 80
4, 183360, Note_on_c, 2, 66, 0
4, 183360, Note_on_c, 2, 67, 40
4, 183360, Note_on_c, 2, 78, 0
4, 183360, Note_on_c, 2, 79, 40
4, 183600, Note_on_c, 2, 67, 0
4, 183600, Note_on_c, 2, 79, 0
4, 186360, Note_on_c, 2, 69, 48
4, 186480, Note_on_c, 2, 69, 0
4, 186480, Note_on_c, 2, 70, 49
4, 186600, Note_on_c, 2, 70, 0
4, 186600, Note_on_c, 2, 71, 50
4, 186720, Note_on_c, 2, 71, 0
4, 186720, Note_on_c, 2, 72, 51
4, 186840, Note_on_c, 2, 72, 0
4, 186840, Note_on_c, 2, 73, 52
4, 186960, Note_on_c, 2, 60, 53
4, 186960, Note_on_c, 2, 73, 0
4, 186960, Note_on_c, 2, 74, 53
4, 187080, Note_on_c, 2, 74, 0
4, 187080, Note_on_c, 2, 76, 54
4, 187121, Note_on_c, 2, 60, 0
4, 187140, Note_on_c, 2, 60, 55
4, 187181, Note_on_c, 2, 60, 0
4, 187200, Note_on_c, 2, 60, 40
4, 187200, Note_on_c, 2, 76, 0
4, 187200, Note_on_c, 2, 77, 40
4, 187440, Note_on_c, 2, 77, 0
4, 187650, Note_on_c, 2, 60, 0
4, 187685, Note_on_c, 2, 67, 40
4, 187718, Note_on_c, 2, 65, 40
4, 187735, Note_on_c, 2, 67, 0
4, 187860, Note_on_c, 2, 64, 40
4, 187872, Note_on_c, 2, 65, 0
4, 187920, Note_on_c, 2, 65, 40
4, 187932, Note_on_c, 2, 64, 0
4, 188100, Note_on_c, 2, 67, 40
4, 188120, Note_on_c, 2, 65, 0
4, 188160, Note_on_c, 2, 68, 40
4, 188172, Note_on_c, 2, 67, 0
4, 188640, Note_on_c, 2, 65, 40
4, 188670, Note_on_c, 2, 68, 0
4, 188880, Note_on_c, 2, 65, 0
4, 189120, Note_on_c, 2, 65, 40
4, 189120, Note_on_c, 2, 71, 40
4, 189570, Note_on_c, 2, 65, 0
4, 189600, Note_on_c, 2, 63, 49
4, 189660, Note_on_c, 2, 62, 50
4, 189690, Note_on_c, 2, 63, 0
4, 189810, Note_on_c, 2, 62, 0
4, 189810, Note_on_c, 2, 71, 0
4, 189840, Note_on_c, 2, 60, 53
4, 189840, Note_on_c, 2, 80, 53
4, 189900, Note_on_c, 2, 59, 54
4, 189930, Note_on_c, 2, 60, 0
4, 190050, Note_on_c, 2, 80, 0
4, 190080, Note_on_c, 2, 59, 0
4, 190080, Note_on_c, 2, 60, 70
4, 190080, Note_on_c, 2, 79, 70
4, 190170, Note_on_c, 2, 60, 0
4, 190170, Note_on_c, 2, 79, 0
4, 190320, Note_on_c, 2, 68, 70
4, 190320, Note_on_c, 2, 72, 70
4, 190410, Note_on_c, 2, 68, 0
4, 190410, Note_on_c, 2, 72, 0
4, 190800, Note_on_c, 2, 66, 40
4, 190800, Note_on_c, 2, 72, 40
4, 191040, Note_on_c, 2, 5, 40
4, 191160, Note_on_c, 2, 5, 0
4, 191250, Note_on_c, 2, 66, 0
4, 191250, Note_on_c, 2, 72, 0
4, 191280, Note_on_c, 2, 67, 40
4, 191280, Note_on_c, 2, 72, 40
4, 191520, Note_on_c, 2, 65, 40
4, 191520, Note_on_c, 2, 71, 40
4, 191550, Note_on_c, 2, 67, 0
4, 191550, Note_on_c, 2, 72, 0
4, 191730, Note_on_c, 2, 65, 0
4, 191730, Note_on_c, 2, 71, 0
4, 191760, Note_on_c, 2, 65, 40
4, 191760, Note_on_c, 2, 71, 40
4, 191925, Note_on_c, 2, 65, 0
4, 191940, Note_on_c, 2, 65, 40
4, 191940, Note_on_c, 2, 67, 40
4, 191955, Note_on_c, 2, 71, 0
4, 191985, Note_on_c, 2, 65, 0
4, 191985, Note_on_c, 2, 67, 0
4, 192000, Note_on_c, 2, 63, 40
4, 192000, Note_on_c, 2, 67, 40
4, 192240, Note_on_c, 2, 63, 0
4, 192240, Note_on_c, 2, 67, 0
4, 194640, Note_on_c, 2, 66, 50
4, 195240, Note_on_c, 2, 67, 40
4, 195270, Note_on_c, 2, 66, 0
4, 195330, Note_on_c, 2, 67, 0
4, 195360, Note_on_c, 2, 67, 40
4, 195600, Note_on_c, 2, 67, 0
4, 195780, Control_c, 2, 11, 110
4, 195840, Note_on_c, 2, 68, 40
4, 195840, Note_on_c, 2, 74, 40
4, 196290, Note_on_c, 2, 68, 0
4, 196290, Note_on_c, 2, 74, 0
4, 196320, Note_on_c, 2, 68, 40
4, 196320, Note_on_c, 2, 74, 40
4, 196710, Note_on_c, 2, 68, 0
4, 196710, Note_on_c, 2, 74, 0
4, 196740, Note_on_c, 2, 68, 40
4, 196740, Note_on_c, 2, 74, 40
4, 196785, Note_on_c, 2, 68, 0
4, 196785, Note_on_c, 2, 74, 0
4, 196800, Note_on_c, 2, 69, 40
4, 196800, Note_on_c, 2, 75, 40
4, 196850, Control_c, 2, 11, 109
4, 196870, Control_c, 2, 11, 108
4, 196890, Control_c, 2, 11, 108
4, 196910, Control_c, 2, 11, 107
4, 196930, Control_c, 2, 11, 106
4, 196950, Control_c, 2, 11, 106
4, 196970, Control_c, 2, 11, 105
4, 196990, Control_c, 2, 11, 105
4, 197010, Control_c, 2, 11, 104
4, 197030, Control_c, 2, 11, 103
4, 197050, Control_c, 2, 11, 103
4, 197070, Control_c, 2, 11, 102
4, 197090, Control_c, 2, 11, 101
4, 197110, Control_c, 2, 11, 101
4, 197130, Control_c, 2, 11, 100
4, 197150, Control_c, 2, 11, 100
4, 197170, Control_c, 2, 11, 99
4, 197190, Control_c, 2, 11, 98
4, 197210, Control_c, 2, 11, 98
4, 197230, Control_c, 2, 11, 97
4, 197250, Control_c, 2, 11, 96
4, 197270, Control_c, 2, 11, 96
4, 197300, Control_c, 2, 11, 95
4, 197320, Control_c, 2, 11, 94
4, 197340, Control_c, 2, 11, 94
4, 197360, Control_c, 2, 11, 93
4, 197380, Control_c, 2, 11, 92
4, 197400, Control_c, 2, 11, 92
4, 197420, Control_c, 2, 11, 91
4, 197440, Control_c, 2, 11, 90
4, 197460, Control_c, 2, 11, 90
4, 197480, Control_c, 2, 11, 89
4, 197500, Control_c, 2, 11, 89
4, 197520, Note_on_c, 2, 74, 40
4, 197520, Control_c, 2, 11, 88
4, 197540, Control_c, 2, 11, 87
4, 197550, Note_on_c, 2, 75, 0
4, 197560, Control_c, 2, 11, 87
4, 197580, Control_c, 2, 11, 86
4, 197600, Control_c, 2, 11, 85
4, 197620, Control_c, 2, 11, 85
4, 197640, Note_on_c, 2, 72, 40
4, 197640, Control_c, 2, 11, 84
4, 197660, Control_c, 2, 11, 84
4, 197670, Note_on_c, 2, 74, 0
4, 197680, Control_c, 2, 11, 83
4, 197700, Control_c, 2, 11, 82
4, 197720, Control_c, 2, 11, 81
4, 197730, Note_on_c, 2, 69, 0
4, 197730, Note_on_c, 2, 72, 0
4, 197740, Control_c, 2, 11, 80
4, 197760, Note_on_c, 2, 63, 40
4, 197760, Note_on_c, 2, 72, 40
4, 198240, Note_on_c, 2, 65, 40
4, 198240, Note_on_c, 2, 71, 40
4, 198270, Note_on_c, 2, 63, 0
4, 198270, Note_on_c, 2, 72, 0
4, 198690, Note_on_c, 2, 65, 0
4, 198690, Note_on_c, 2, 71, 0
4, 198720, Note_on_c, 2, 63, 40
4, 198720, Note_on_c, 2, 72, 40
4, 198930, Note_on_c, 2, 63, 0
4, 198930, Note_on_c, 2, 72, 0
4, 198960, Note_on_c, 2, 66, 40
4, 199440, Note_on_c, 2, 67, 40
4, 199470, Note_on_c, 2, 66, 0
4, 199650, Note_on_c, 2, 67, 0
4, 199680, Note_on_c, 2, 67, 40
4, 199680, Note_on_c, 2, 72, 40
4, 199680, Control_c, 2, 11, 80
4, 199710, Control_c, 2, 11, 81
4, 199740, Control_c, 2, 11, 82
4, 199770, Control_c, 2, 11, 83
4, 199790, Control_c, 2, 11, 84
4, 199820, Control_c, 2, 11, 85
4, 199850, Control_c, 2, 11, 86
4, 199880, Control_c, 2, 11, 87
4, 199900, Control_c, 2, 11, 88
4, 199930, Control_c, 2, 11, 89
4, 199960, Control_c, 2, 11, 90
4, 199990, Control_c, 2, 11, 91
4, 200010, Control_c, 2, 11, 92
4, 200040, Control_c, 2, 11, 93
4, 200070, Control_c, 2, 11, 94
4, 200100, Control_c, 2, 11, 95
4, 200120, Control_c, 2, 11, 96
4, 200150, Control_c, 2, 11, 97
4, 200160, Note_on_c, 2, 65, 40
4, 200160, Note_on_c, 2, 71, 40
4, 200180, Control_c, 2, 11, 98
4, 200190, Note_on_c, 2, 67, 0
4, 200190, Note_on_c, 2, 72, 0
4, 200210, Control_c, 2, 11, 99
4, 200230, Control_c, 2, 11, 100
4, 200260, Control_c, 2, 11, 101
4, 200290, Control_c, 2, 11, 102
4, 200320, Control_c, 2, 11, 103
4, 200340, Control_c, 2, 11, 104
4, 200370, Control_c, 2, 11, 105
4, 200400, Control_c, 2, 11, 106
4, 200430, Control_c, 2, 11, 107
4, 200450, Control_c, 2, 11, 108
4, 200480, Control_c, 2, 11, 109
4, 200510, Control_c, 2, 11, 110
4, 200540, Control_c, 2, 11, 111
4, 200560, Control_c, 2, 11, 112
4, 200580, Note_on_c, 2, 63, 40
4, 200580, Note_on_c, 2, 72, 40
4, 200590, Control_c, 2, 11, 113
4, 200595, Note_on_c, 2, 65, 0
4, 200595, Note_on_c, 2, 71, 0
4, 200620, Control_c, 2, 11, 115
4, 200625, Note_on_c, 2, 63, 0
4, 200625, Note_on_c, 2, 72, 0
4, 200640, Note_on_c, 2, 63, 40
4, 200640, Note_on_c, 2, 72, 40
4, 200880, Note_on_c, 2, 63, 0
4, 200880, Note_on_c, 2, 72, 0
4, 201540, Control_c, 2, 11, 80
4, 207360, Note_on_c, 2, 78, 30
4, 207360, Control_c, 2, 11, 80
4, 207380, Control_c, 2, 11, 81
4, 207390, Control_c, 2, 11, 82
4, 207400, Control_c, 2, 11, 83
4, 207410, Control_c, 2, 11, 84
4, 207420, Control_c, 2, 11, 85
4, 207430, Control_c, 2, 11, 86
4, 207440, Control_c, 2, 11, 87
4, 207450, Control_c, 2, 11, 88
4, 207460, Control_c, 2, 11, 89
4, 207470, Control_c, 2, 11, 90
4, 207480, Control_c, 2, 11, 91
4, 207490, Control_c, 2, 11, 92
4, 207500, Control_c, 2, 11, 93
4, 207510, Control_c, 2, 11, 94
4, 207520, Control_c, 2, 11, 95
4, 207530, Control_c, 2, 11, 96
4, 207540, Control_c, 2, 11, 97
4, 207550, Control_c, 2, 11, 98
4, 207560, Control_c, 2, 11, 99
4, 207570, Control_c, 2, 11, 100
4, 207580, Control_c, 2, 11, 101
4, 207590, Control_c, 2, 11, 102
4, 207600, Control_c, 2, 11, 103
4, 207610, Control_c, 2, 11, 104
4, 207620, Control_c, 2, 11, 105
4, 207630, Control_c, 2, 11, 106
4, 207640, Control_c, 2, 11, 107
4, 207650, Control_c, 2, 11, 108
4, 207660, Control_c, 2, 11, 109
4, 207670, Control_c, 2, 11, 110
4, 207680, Control_c, 2, 11, 111
4, 207690, Control_c, 2, 11, 112
4, 207700, Control_c, 2, 11, 113
4, 207710, Control_c, 2, 11, 114
4, 207720, Control_c, 2, 11, 115
4, 207730, Control_c, 2, 11, 116
4, 207740, Control_c, 2, 11, 117
4, 207750, Control_c, 2, 11, 118
4, 207760, Control_c, 2, 11, 119
4, 207770, Control_c, 2, 11, 120
4, 207780, Control_c, 2, 11, 121
4, 207790, Control_c, 2, 11, 122
4, 207800, Control_c, 2, 11, 123
4, 207810, Control_c, 2, 11, 124
4, 207820, Control_c, 2, 11, 125
4, 207830, Control_c, 2, 11, 126
4, 207840, Control_c, 2, 11, 127
4, 207850, Control_c, 2, 11, 126
4, 207860, Control_c, 2, 11, 125
4, 207870, Control_c, 2, 11, 124
4, 207880, Control_c, 2, 11, 123
4, 207890, Control_c, 2, 11, 122
4, 207900, Control_c, 2, 11, 121
4, 207910, Control_c, 2, 11, 120
4, 207920, Control_c, 2, 11, 119
4, 207930, Control_c, 2, 11, 118
4, 207940, Control_c, 2, 11, 117
4, 207950, Control_c, 2, 11, 116
4, 207960, Control_c, 2, 11, 115
4, 207970, Control_c, 2, 11, 114
4, 207980, Control_c, 2, 11, 113
4, 207990, Control_c, 2, 11, 112
4, 208000, Control_c, 2, 11, 111
4, 208010, Control_c, 2, 11, 110
4, 208020, Control_c, 2, 11, 109
4, 208030, Control_c, 2, 11, 108
4, 208040, Control_c, 2, 11, 107
4, 208050, Control_c, 2, 11, 106
4, 208060, Control_c, 2, 11, 105
4, 208070, Control_c, 2, 11, 104
4, 208080, Control_c, 2, 11, 103
4, 208090, Control_c, 2, 11, 102
4, 208100, Control_c, 2, 11, 101
4, 208110, Control_c, 2, 11, 100
4, 208120, Control_c, 2, 11, 99
4, 208130, Control_c, 2, 11, 98
4, 208140, Control_c, 2, 11, 97
4, 208150, Control_c, 2, 11, 96
4, 208160, Control_c, 2, 11, 95
4, 208170, Control_c, 2, 11, 94
4, 208180, Control_c, 2, 11, 93
4, 208190, Control_c, 2, 11, 92
4, 208200, Control_c, 2, 11, 91
4, 208210, Control_c, 2, 11, 90
4, 208220, Control_c, 2, 11, 89
4, 208230, Control_c, 2, 11, 88
4, 208240, Control_c, 2, 11, 87
4, 208250, Control_c, 2, 11, 86
4, 208260, Control_c, 2, 11, 85
4, 208270, Control_c, 2, 11, 84
4, 208280, Control_c, 2, 11, 83
4, 208290, Control_c, 2, 11, 82
4, 208300, Control_c, 2, 11, 81
4, 208310, Control_c, 2, 11, 80
4, 208320, Note_on_c, 2, 77, 30
4, 208350, Note_on_c, 2, 78, 0
4, 208560, Note_on_c, 2, 77, 0
4, 211680, Note_on_c, 2, 72, 30
4, 212160, Note_on_c, 2, 65, 30
4, 212190, Note_on_c, 2, 72, 0
4, 212640, Note_on_c, 2, 65, 0
4, 213060, Note_on_c, 2, 65, 30
4, 213105, Note_on_c, 2, 65, 0
4, 213120, Note_on_c, 2, 67, 30
4, 213600, Note_on_c, 2, 67, 0
4, 214020, Note_on_c, 2, 67, 30
4, 214065, Note_on_c, 2, 67, 0
4, 214080, Note_on_c, 2, 60, 30
4, 214320, Note_on_c, 2, 60, 0
4, 215760, Note_on_c, 2, 71, 30
4, 216000, Note_on_c, 2, 72, 30
4, 216030, Note_on_c, 2, 71, 0
4, 216480, Note_on_c, 2, 67, 30
4, 216510, Note_on_c, 2, 72, 0
4, 216720, Note_on_c, 2, 70, 30
4, 216750, Note_on_c, 2, 67, 0
4, 216950, Note_on_c, 2, 70, 0
4, 216960, Note_on_c, 2, 68, 30
4, 216960, Control_c, 2, 11, 80
4, 217010, Control_c, 2, 11, 81
4, 217060, Control_c, 2, 11, 82
4, 217100, Control_c, 2, 11, 83
4, 217150, Control_c, 2, 11, 84
4, 217200, Control_c, 2, 11, 85
4, 217240, Control_c, 2, 11, 86
4, 217290, Control_c, 2, 11, 87
4, 217340, Control_c, 2, 11, 88
4, 217380, Control_c, 2, 11, 89
4, 217430, Control_c, 2, 11, 90
4, 217440, Note_on_c, 2, 67, 30
4, 217470, Note_on_c, 2, 68, 0
4, 217470, Control_c, 2, 11, 91
4, 217520, Control_c, 2, 11, 92
4, 217570, Control_c, 2, 11, 93
4, 217610, Control_c, 2, 11, 94
4, 217660, Control_c, 2, 11, 95
4, 217680, Note_on_c, 2, 65, 30
4, 217710, Note_on_c, 2, 67, 0
4, 217710, Control_c, 2, 11, 96
4, 217750, Control_c, 2, 11, 97
4, 217800, Control_c, 2, 11, 98
4, 217850, Control_c, 2, 11, 99
4, 217890, Control_c, 2, 11, 100
4, 217905, Note_on_c, 2, 65, 0
4, 217920, Note_on_c, 2, 64, 30
4, 217940, Control_c, 2, 11, 101
4, 217980, Control_c, 2, 11, 102
4, 218030, Control_c, 2, 11, 103
4, 218080, Control_c, 2, 11, 104
4, 218120, Control_c, 2, 11, 105
4, 218145, Note_on_c, 2, 64, 0
4, 218160, Note_on_c, 2, 68, 30
4, 218160, Note_on_c, 2, 72, 30
4, 218170, Control_c, 2, 11, 106
4, 218220, Control_c, 2, 11, 107
4, 218260, Control_c, 2, 11, 108
4, 218310, Control_c, 2, 11, 109
4, 218360, Control_c, 2, 11, 110
4, 218385, Note_on_c, 2, 72, 0
4, 218400, Note_on_c, 2, 67, 30
4, 218400, Note_on_c, 2, 72, 30
4, 218400, Control_c, 2, 11, 111
4, 218430, Note_on_c, 2, 68, 0
4, 218450, Control_c, 2, 11, 112
4, 218490, Control_c, 2, 11, 113
4, 218540, Control_c, 2, 11, 114
4, 218590, Control_c, 2, 11, 115
4, 218625, Note_on_c, 2, 72, 0
4, 218630, Control_c, 2, 11, 116
4, 218640, Note_on_c, 2, 65, 30
4, 218640, Note_on_c, 2, 72, 30
4, 218670, Note_on_c, 2, 67, 0
4, 218680, Control_c, 2, 11, 117
4, 218730, Control_c, 2, 11, 118
4, 218770, Control_c, 2, 11, 119
4, 218820, Control_c, 2, 11, 120
4, 218865, Note_on_c, 2, 65, 0
4, 218865, Note_on_c, 2, 72, 0
4, 218874, Control_c, 2, 11, 80
4, 218880, Note_on_c, 2, 64, 30
4, 218880, Note_on_c, 2, 77, 30
4, 218880, Control_c, 2, 11, 80
4, 218910, Control_c, 2, 11, 81
4, 218930, Control_c, 2, 11, 82
4, 218950, Control_c, 2, 11, 83
4, 218980, Control_c, 2, 11, 84
4, 219000, Control_c, 2, 11, 85
4, 219020, Control_c, 2, 11, 86
4, 219050, Control_c, 2, 11, 87
4, 219070, Control_c, 2, 11, 88
4, 219090, Control_c, 2, 11, 89
4, 219110, Control_c, 2, 11, 90
4, 219140, Control_c, 2, 11, 91
4, 219160, Control_c, 2, 11, 92
4, 219180, Control_c, 2, 11, 93
4, 219210, Control_c, 2, 11, 94
4, 219230, Control_c, 2, 11, 95
4, 219250, Control_c, 2, 11, 96
4, 219270, Control_c, 2, 11, 97
4, 219300, Control_c, 2, 11, 98
4, 219320, Control_c, 2, 11, 99
4, 219340, Control_c, 2, 11, 100
4, 219370, Control_c, 2, 11, 101
4, 219390, Note_on_c, 2, 64, 0
4, 219390, Control_c, 2, 11, 102
4, 219410, Control_c, 2, 11, 103
4, 219440, Control_c, 2, 11, 104
4, 219460, Control_c, 2, 11, 105
4, 219480, Control_c, 2, 11, 106
4, 219500, Control_c, 2, 11, 107
4, 219530, Control_c, 2, 11, 108
4, 219550, Control_c, 2, 11, 109
4, 219570, Control_c, 2, 11, 110
4, 219600, Control_c, 2, 11, 111
4, 219620, Control_c, 2, 11, 112
4, 219640, Control_c, 2, 11, 113
4, 219660, Control_c, 2, 11, 114
4, 219690, Control_c, 2, 11, 115
4, 219710, Control_c, 2, 11, 116
4, 219730, Control_c, 2, 11, 117
4, 219760, Control_c, 2, 11, 118
4, 219780, Control_c, 2, 11, 119
4, 219800, Control_c, 2, 11, 120
4, 219810, Note_on_c, 2, 77, 0
4, 219834, Control_c, 2, 11, 80
4, 220320, Note_on_c, 2, 68, 40
4, 220320, Note_on_c, 2, 73, 40
4, 220560, Note_on_c, 2, 68, 0
4, 220560, Note_on_c, 2, 73, 0
4, 221280, Note_on_c, 2, 63, 40
4, 221280, Note_on_c, 2, 72, 40
4, 221520, Note_on_c, 2, 63, 0
4, 221520, Note_on_c, 2, 72, 0
4, 222960, Note_on_c, 2, 67, 45
4, 223440, Note_on_c, 2, 68, 45
4, 223470, Note_on_c, 2, 67, 0
4, 223650, Note_on_c, 2, 68, 0
4, 223680, Note_on_c, 2, 68, 55
4, 223920, Note_on_c, 2, 59, 45
4, 223950, Note_on_c, 2, 68, 0
4, 224100, Note_on_c, 2, 59, 0
4, 224880, Note_on_c, 2, 67, 45
4, 225240, Note_on_c, 2, 68, 45
4, 225270, Note_on_c, 2, 67, 0
4, 225330, Note_on_c, 2, 68, 0
4, 225360, Note_on_c, 2, 68, 45
4, 225465, Note_on_c, 2, 68, 0
4, 225480, Note_on_c, 2, 68, 45
4, 225585, Note_on_c, 2, 68, 0
4, 225600, Note_on_c, 2, 68, 55
4, 225840, Note_on_c, 2, 59, 45
4, 225870, Note_on_c, 2, 68, 0
4, 226020, Note_on_c, 2, 59, 0
4, 236400, Note_on_c, 2, 67, 40
4, 236400, Note_on_c, 2, 72, 40
4, 236400, Control_c, 2, 11, 80
4, 236410, Control_c, 2, 11, 82
4, 236420, Control_c, 2, 11, 85
4, 236430, Control_c, 2, 11, 87
4, 236440, Control_c, 2, 11, 90
4, 236450, Control_c, 2, 11, 92
4, 236460, Control_c, 2, 11, 95
4, 236470, Control_c, 2, 11, 97
4, 236480, Control_c, 2, 11, 100
4, 236490, Control_c, 2, 11, 102
4, 236500, Control_c, 2, 11, 105
4, 236510, Control_c, 2, 11, 107
4, 236520, Control_c, 2, 11, 110
4, 236540, Control_c, 2, 11, 109
4, 236560, Control_c, 2, 11, 108
4, 236580, Control_c, 2, 11, 107
4, 236600, Control_c, 2, 11, 106
4, 236620, Control_c, 2, 11, 105
4, 236640, Control_c, 2, 11, 104
4, 236660, Control_c, 2, 11, 103
4, 236680, Control_c, 2, 11, 102
4, 236700, Control_c, 2, 11, 101
4, 236720, Control_c, 2, 11, 100
4, 236740, Control_c, 2, 11, 99
4, 236760, Control_c, 2, 11, 98
4, 236780, Control_c, 2, 11, 97
4, 236800, Control_c, 2, 11, 96
4, 236820, Control_c, 2, 11, 95
4, 236830, Control_c, 2, 11, 94
4, 236850, Control_c, 2, 11, 93
4, 236870, Control_c, 2, 11, 92
4, 236880, Note_on_c, 2, 63, 40
4, 236890, Control_c, 2, 11, 91
4, 236910, Note_on_c, 2, 67, 0
4, 236910, Control_c, 2, 11, 90
4, 236930, Control_c, 2, 11, 89
4, 236950, Control_c, 2, 11, 88
4, 236970, Control_c, 2, 11, 87
4, 236990, Control_c, 2, 11, 86
4, 237010, Control_c, 2, 11, 85
4, 237030, Control_c, 2, 11, 84
4, 237050, Control_c, 2, 11, 83
4, 237070, Control_c, 2, 11, 82
4, 237090, Control_c, 2, 11, 81
4, 237110, Note_on_c, 2, 63, 0
4, 237110, Note_on_c, 2, 72, 0
4, 237110, Control_c, 2, 11, 80
4, 237120, Note_on_c, 2, 63, 35
4, 237120, Note_on_c, 2, 67, 25
4, 237360, Control_c, 2, 11, 80
4, 237370, Control_c, 2, 11, 79
4, 237380, Control_c, 2, 11, 78
4, 237390, Control_c, 2, 11, 77
4, 237400, Control_c, 2, 11, 76
4, 237410, Control_c, 2, 11, 75
4, 237420, Control_c, 2, 11, 74
4, 237430, Control_c, 2, 11, 73
4, 237440, Control_c, 2, 11, 72
4, 237450, Control_c, 2, 11, 71
4, 237460, Control_c, 2, 11, 70
4, 237470, Control_c, 2, 11, 69
4, 237480, Control_c, 2, 11, 67
4, 237490, Control_c, 2, 11, 66
4, 237500, Control_c, 2, 11, 65
4, 237510, Control_c, 2, 11, 64
4, 237520, Control_c, 2, 11, 63
4, 237530, Control_c, 2, 11, 62
4, 237540, Control_c, 2, 11, 61
4, 237550, Control_c, 2, 11, 60
4, 237560, Control_c, 2, 11, 59
4, 237570, Control_c, 2, 11, 58
4, 237580, Control_c, 2, 11, 57
4, 237590, Control_c, 2, 11, 56
4, 237600, Control_c, 2, 11, 54
4, 237610, Control_c, 2, 11, 53
4, 237620, Control_c, 2, 11, 52
4, 237630, Control_c, 2, 11, 51
4, 237640, Control_c, 2, 11, 50
4, 237650, Control_c, 2, 11, 49
4, 237660, Control_c, 2, 11, 48
4, 237670, Control_c, 2, 11, 47
4, 237680, Control_c, 2, 11, 46
4, 237690, Control_c, 2, 11, 45
4, 237700, Control_c, 2, 11, 44
4, 237710, Control_c, 2, 11, 43
4, 237720, Control_c, 2, 11, 41
4, 237730, Control_c, 2, 11, 40
4, 237740, Control_c, 2, 11, 39
4, 237750, Control_c, 2, 11, 38
4, 237760, Control_c, 2, 11, 37
4, 237770, Control_c, 2, 11, 36
4, 237780, Control_c, 2, 11, 35
4, 237790, Control_c, 2, 11, 34
4, 237800, Control_c, 2, 11, 33
4, 237810, Control_c, 2, 11, 32
4, 237820, Control_c, 2, 11, 31
4, 237830, Control_c, 2, 11, 30
4, 237840, Note_on_c, 2, 63, 0
4, 237840, Note_on_c, 2, 67, 0
4, 237840, End_track
5, 0, Start_track
5, 0, Channel_prefix, 3
5, 0, Title_t, "Bassoons"
5, 0, Instrument_name_t, "Fagotti "
5, 8640, Note_on_c, 3, 48, 40
5, 8640, Note_on_c, 3, 60, 40
5, 9570, Note_on_c, 3, 48, 0
5, 9570, Note_on_c, 3, 60, 0
5, 9600, Note_on_c, 3, 48, 40
5, 9600, Note_on_c, 3, 60, 40
5, 10530, Note_on_c, 3, 48, 0
5, 10530, Note_on_c, 3, 60, 0
5, 10560, Note_on_c, 3, 48, 40
5, 10560, Note_on_c, 3, 60, 40
5, 11010, Note_on_c, 3, 48, 0
5, 11010, Note_on_c, 3, 60, 0
5, 11040, Note_on_c, 3, 51, 40
5, 11040, Note_on_c, 3, 63, 40
5, 11250, Note_on_c, 3, 51, 0
5, 11250, Note_on_c, 3, 63, 0
5, 11280, Note_on_c, 3, 51, 40
5, 11280, Note_on_c, 3, 63, 40
5, 11490, Note_on_c, 3, 51, 0
5, 11490, Note_on_c, 3, 63, 0
5, 11520, Note_on_c, 3, 60, 40
5, 11520, Note_on_c, 3, 63, 40
5, 11520, Control_c, 3, 11, 80
5, 11540, Control_c, 3, 11, 81
5, 11560, Control_c, 3, 11, 82
5, 11570, Control_c, 3, 11, 83
5, 11590, Control_c, 3, 11, 84
5, 11600, Control_c, 3, 11, 85
5, 11620, Control_c, 3, 11, 86
5, 11640, Control_c, 3, 11, 87
5, 11650, Control_c, 3, 11, 88
5, 11670, Control_c, 3, 11, 89
5, 11680, Control_c, 3, 11, 90
5, 11700, Control_c, 3, 11, 91
5, 11720, Control_c, 3, 11, 92
5, 11730, Control_c, 3, 11, 93
5, 11750, Control_c, 3, 11, 94
5, 11760, Note_on_c, 3, 66, 40
5, 11760, Control_c, 3, 11, 95
5, 11777, Note_on_c, 3, 63, 0
5, 11780, Control_c, 3, 11, 96
5, 11800, Control_c, 3, 11, 97
5, 11810, Control_c, 3, 11, 98
5, 11830, Control_c, 3, 11, 99
5, 11840, Control_c, 3, 11, 100
5, 11860, Control_c, 3, 11, 101
5, 11880, Control_c, 3, 11, 102
5, 11890, Control_c, 3, 11, 103
5, 11910, Control_c, 3, 11, 104
5, 11920, Control_c, 3, 11, 105
5, 11940, Control_c, 3, 11, 106
5, 11960, Control_c, 3, 11, 107
5, 11970, Control_c, 3, 11, 108
5, 11990, Control_c, 3, 11, 109
5, 12000, Note_on_c, 3, 59, 40
5, 12000, Note_on_c, 3, 67, 40
5, 12000, Control_c, 3, 11, 110
5, 12010, Control_c, 3, 11, 109
5, 12017, Note_on_c, 3, 60, 0
5, 12017, Note_on_c, 3, 66, 0
5, 12020, Control_c, 3, 11, 108
5, 12030, Control_c, 3, 11, 107
5, 12040, Control_c, 3, 11, 105
5, 12050, Control_c, 3, 11, 104
5, 12060, Control_c, 3, 11, 103
5, 12070, Control_c, 3, 11, 102
5, 12080, Control_c, 3, 11, 100
5, 12090, Control_c, 3, 11, 99
5, 12100, Control_c, 3, 11, 98
5, 12110, Control_c, 3, 11, 97
5, 12120, Control_c, 3, 11, 95
5, 12130, Control_c, 3, 11, 94
5, 12140, Control_c, 3, 11, 93
5, 12150, Control_c, 3, 11, 92
5, 12160, Control_c, 3, 11, 90
5, 12170, Control_c, 3, 11, 89
5, 12180, Control_c, 3, 11, 88
5, 12190, Control_c, 3, 11, 87
5, 12200, Control_c, 3, 11, 85
5, 12210, Note_on_c, 3, 59, 0
5, 12210, Note_on_c, 3, 67, 0
5, 12210, Control_c, 3, 11, 84
5, 12220, Control_c, 3, 11, 83
5, 12230, Control_c, 3, 11, 80
5, 12480, Note_on_c, 3, 53, 40
5, 12480, Note_on_c, 3, 59, 40
5, 12930, Note_on_c, 3, 53, 0
5, 12930, Note_on_c, 3, 59, 0
5, 13440, Note_on_c, 3, 47, 40
5, 13440, Note_on_c, 3, 59, 40
5, 13440, Control_c, 3, 11, 80
5, 13480, Control_c, 3, 11, 81
5, 13520, Control_c, 3, 11, 82
5, 13560, Control_c, 3, 11, 83
5, 13600, Control_c, 3, 11, 84
5, 13640, Control_c, 3, 11, 85
5, 13680, Control_c, 3, 11, 86
5, 13720, Control_c, 3, 11, 87
5, 13760, Control_c, 3, 11, 88
5, 13800, Control_c, 3, 11, 89
5, 13840, Control_c, 3, 11, 90
5, 13880, Control_c, 3, 11, 91
5, 13890, Note_on_c, 3, 47, 0
5, 13890, Note_on_c, 3, 59, 0
5, 13920, Control_c, 3, 11, 92
5, 13960, Control_c, 3, 11, 93
5, 14000, Control_c, 3, 11, 94
5, 14040, Control_c, 3, 11, 95
5, 14080, Control_c, 3, 11, 96
5, 14120, Control_c, 3, 11, 97
5, 14160, Control_c, 3, 11, 98
5, 14200, Control_c, 3, 11, 99
5, 14240, Control_c, 3, 11, 100
5, 14280, Control_c, 3, 11, 101
5, 14320, Control_c, 3, 11, 102
5, 14360, Control_c, 3, 11, 103
5, 14400, Note_on_c, 3, 46, 40
5, 14400, Note_on_c, 3, 58, 40
5, 14400, Control_c, 3, 11, 104
5, 14440, Control_c, 3, 11, 105
5, 14480, Control_c, 3, 11, 106
5, 14520, Control_c, 3, 11, 107
5, 14560, Control_c, 3, 11, 108
5, 14600, Control_c, 3, 11, 109
5, 14640, Note_on_c, 3, 50, 40
5, 14640, Note_on_c, 3, 53, 40
5, 14640, Control_c, 3, 11, 110
5, 14670, Note_on_c, 3, 46, 0
5, 14670, Note_on_c, 3, 58, 0
5, 14670, Control_c, 3, 11, 109
5, 14690, Control_c, 3, 11, 108
5, 14720, Control_c, 3, 11, 107
5, 14740, Control_c, 3, 11, 106
5, 14760, Control_c, 3, 11, 105
5, 14790, Control_c, 3, 11, 104
5, 14810, Control_c, 3, 11, 103
5, 14840, Control_c, 3, 11, 102
5, 14860, Control_c, 3, 11, 101
5, 14880, Note_on_c, 3, 51, 40
5, 14880, Note_on_c, 3, 55, 40
5, 14880, Control_c, 3, 11, 100
5, 14910, Note_on_c, 3, 50, 0
5, 14910, Note_on_c, 3, 53, 0
5, 14910, Control_c, 3, 11, 99
5, 14930, Control_c, 3, 11, 98
5, 14960, Control_c, 3, 11, 97
5, 14980, Control_c, 3, 11, 96
5, 15000, Control_c, 3, 11, 95
5, 15030, Control_c, 3, 11, 94
5, 15050, Control_c, 3, 11, 93
5, 15080, Control_c, 3, 11, 92
5, 15100, Control_c, 3, 11, 91
5, 15120, Note_on_c, 3, 53, 40
5, 15120, Note_on_c, 3, 56, 40
5, 15120, Control_c, 3, 11, 90
5, 15150, Note_on_c, 3, 51, 0
5, 15150, Note_on_c, 3, 55, 0
5, 15150, Control_c, 3, 11, 89
5, 15170, Control_c, 3, 11, 88
5, 15200, Control_c, 3, 11, 87
5, 15220, Control_c, 3, 11, 86
5, 15240, Control_c, 3, 11, 85
5, 15270, Control_c, 3, 11, 84
5, 15290, Control_c, 3, 11, 83
5, 15320, Control_c, 3, 11, 82
5, 15330, Note_on_c, 3, 53, 0
5, 15330, Note_on_c, 3, 56, 0
5, 15340, Control_c, 3, 11, 80
5, 15360, Note_on_c, 3, 51, 40
5, 15360, Note_on_c, 3, 55, 40
5, 15570, Note_on_c, 3, 51, 0
5, 15570, Note_on_c, 3, 55, 0
5, 15600, Note_on_c, 3, 56, 40
5, 15600, Note_on_c, 3, 60, 40
5, 15750, Note_on_c, 3, 56, 0
5, 15750, Note_on_c, 3, 60, 0
5, 15780, Note_on_c, 3, 56, 40
5, 15780, Note_on_c, 3, 60, 40
5, 15840, Note_on_c, 3, 51, 40
5, 15840, Note_on_c, 3, 56, 0
5, 15840, Note_on_c, 3, 58, 40
5, 15840, Note_on_c, 3, 60, 0
5, 16050, Note_on_c, 3, 51, 0
5, 16050, Note_on_c, 3, 58, 0
5, 24000, Note_on_c, 3, 55, 40
5, 24000, Control_c, 3, 11, 80
5, 24030, Control_c, 3, 11, 81
5, 24050, Control_c, 3, 11, 82
5, 24070, Control_c, 3, 11, 83
5, 24090, Control_c, 3, 11, 84
5, 24110, Control_c, 3, 11, 85
5, 24130, Control_c, 3, 11, 86
5, 24150, Control_c, 3, 11, 87
5, 24170, Control_c, 3, 11, 88
5, 24190, Control_c, 3, 11, 89
5, 24210, Control_c, 3, 11, 90
5, 24230, Control_c, 3, 11, 91
5, 24250, Control_c, 3, 11, 92
5, 24270, Control_c, 3, 11, 93
5, 24290, Control_c, 3, 11, 94
5, 24310, Control_c, 3, 11, 95
5, 24330, Control_c, 3, 11, 96
5, 24350, Control_c, 3, 11, 97
5, 24370, Control_c, 3, 11, 98
5, 24390, Control_c, 3, 11, 99
5, 24410, Control_c, 3, 11, 100
5, 24430, Control_c, 3, 11, 101
5, 24450, Control_c, 3, 11, 102
5, 24470, Control_c, 3, 11, 103
5, 24500, Control_c, 3, 11, 104
5, 24520, Control_c, 3, 11, 105
5, 24540, Control_c, 3, 11, 106
5, 24560, Control_c, 3, 11, 107
5, 24580, Control_c, 3, 11, 108
5, 24600, Control_c, 3, 11, 109
5, 24620, Control_c, 3, 11, 110
5, 24640, Control_c, 3, 11, 111
5, 24660, Control_c, 3, 11, 112
5, 24680, Control_c, 3, 11, 113
5, 24700, Control_c, 3, 11, 114
5, 24720, Control_c, 3, 11, 115
5, 24740, Control_c, 3, 11, 116
5, 24760, Control_c, 3, 11, 117
5, 24780, Control_c, 3, 11, 118
5, 24800, Control_c, 3, 11, 119
5, 24820, Control_c, 3, 11, 120
5, 24840, Control_c, 3, 11, 121
5, 24860, Control_c, 3, 11, 122
5, 24880, Control_c, 3, 11, 123
5, 24900, Control_c, 3, 11, 124
5, 24920, Control_c, 3, 11, 125
5, 24940, Control_c, 3, 11, 126
5, 24960, Control_c, 3, 11, 127
5, 24990, Control_c, 3, 11, 126
5, 25010, Control_c, 3, 11, 125
5, 25030, Control_c, 3, 11, 124
5, 25050, Control_c, 3, 11, 123
5, 25070, Control_c, 3, 11, 122
5, 25090, Control_c, 3, 11, 121
5, 25110, Control_c, 3, 11, 120
5, 25130, Control_c, 3, 11, 119
5, 25150, Control_c, 3, 11, 118
5, 25170, Control_c, 3, 11, 117
5, 25190, Control_c, 3, 11, 116
5, 25210, Control_c, 3, 11, 115
5, 25230, Control_c, 3, 11, 114
5, 25250, Control_c, 3, 11, 113
5, 25270, Control_c, 3, 11, 112
5, 25290, Control_c, 3, 11, 111
5, 25310, Control_c, 3, 11, 110
5, 25330, Control_c, 3, 11, 109
5, 25350, Control_c, 3, 11, 108
5, 25370, Control_c, 3, 11, 107
5, 25390, Control_c, 3, 11, 106
5, 25410, Control_c, 3, 11, 105
5, 25430, Control_c, 3, 11, 104
5, 25460, Control_c, 3, 11, 103
5, 25480, Control_c, 3, 11, 102
5, 25500, Control_c, 3, 11, 101
5, 25520, Control_c, 3, 11, 100
5, 25540, Control_c, 3, 11, 99
5, 25560, Control_c, 3, 11, 98
5, 25580, Control_c, 3, 11, 97
5, 25600, Control_c, 3, 11, 96
5, 25620, Control_c, 3, 11, 95
5, 25640, Control_c, 3, 11, 94
5, 25660, Control_c, 3, 11, 93
5, 25680, Note_on_c, 3, 54, 40
5, 25680, Control_c, 3, 11, 92
5, 25700, Control_c, 3, 11, 91
5, 25710, Note_on_c, 3, 55, 0
5, 25720, Control_c, 3, 11, 90
5, 25740, Control_c, 3, 11, 89
5, 25760, Control_c, 3, 11, 88
5, 25780, Control_c, 3, 11, 87
5, 25800, Control_c, 3, 11, 86
5, 25820, Control_c, 3, 11, 85
5, 25840, Control_c, 3, 11, 84
5, 25860, Control_c, 3, 11, 83
5, 25880, Control_c, 3, 11, 82
5, 25900, Control_c, 3, 11, 80
5, 25920, Note_on_c, 3, 55, 40
5, 25950, Note_on_c, 3, 54, 0
5, 26160, Note_on_c, 3, 55, 0
5, 35520, Note_on_c, 3, 51, 40
5, 36470, Note_on_c, 3, 51, 0
5, 36480, Note_on_c, 3, 58, 40
5, 37429, Note_on_c, 3, 58, 0
5, 37440, Note_on_c, 3, 60, 40
5, 37440, Note_on_c, 3, 63, 40
5, 37440, Control_c, 3, 11, 80
5, 37510, Control_c, 3, 11, 81
5, 37570, Control_c, 3, 11, 82
5, 37630, Control_c, 3, 11, 83
5, 37690, Control_c, 3, 11, 84
5, 37750, Control_c, 3, 11, 85
5, 37810, Control_c, 3, 11, 86
5, 37880, Control_c, 3, 11, 87
5, 37920, Note_on_c, 3, 58, 40
5, 37920, Note_on_c, 3, 62, 40
5, 37940, Note_on_c, 3, 60, 0
5, 37940, Note_on_c, 3, 63, 0
5, 37940, Control_c, 3, 11, 88
5, 38000, Control_c, 3, 11, 89
5, 38060, Control_c, 3, 11, 90
5, 38120, Control_c, 3, 11, 91
5, 38160, Note_on_c, 3, 56, 40
5, 38160, Note_on_c, 3, 60, 40
5, 38176, Note_on_c, 3, 58, 0
5, 38176, Note_on_c, 3, 62, 0
5, 38180, Control_c, 3, 11, 92
5, 38240, Control_c, 3, 11, 93
5, 38310, Control_c, 3, 11, 94
5, 38370, Control_c, 3, 11, 95
5, 38385, Note_on_c, 3, 56, 0
5, 38385, Note_on_c, 3, 60, 0
5, 38400, Note_on_c, 3, 55, 40
5, 38400, Note_on_c, 3, 61, 40
5, 38430, Control_c, 3, 11, 96
5, 38490, Control_c, 3, 11, 97
5, 38550, Control_c, 3, 11, 98
5, 38610, Control_c, 3, 11, 100
5, 38660, Note_on_c, 3, 55, 0
5, 38660, Note_on_c, 3, 61, 0
5, 38820, Note_on_c, 3, 52, 40
5, 38820, Note_on_c, 3, 60, 40
5, 38865, Note_on_c, 3, 52, 0
5, 38865, Note_on_c, 3, 60, 0
5, 38880, Note_on_c, 3, 52, 40
5, 38880, Note_on_c, 3, 60, 40
5, 39410, Note_on_c, 3, 52, 0
5, 39410, Note_on_c, 3, 60, 0
5, 39720, Control_c, 3, 11, 80
5, 39840, Note_on_c, 3, 53, 40
5, 39840, Note_on_c, 3, 60, 40
5, 40080, Note_on_c, 3, 55, 40
5, 40095, Note_on_c, 3, 53, 0
5, 40305, Note_on_c, 3, 55, 0
5, 40305, Note_on_c, 3, 60, 0
5, 40320, Note_on_c, 3, 56, 40
5, 40320, Note_on_c, 3, 60, 40
5, 40545, Note_on_c, 3, 60, 0
5, 40560, Note_on_c, 3, 60, 40
5, 40800, Note_on_c, 3, 63, 50
5, 40815, Note_on_c, 3, 60, 0
5, 41040, Note_on_c, 3, 60, 40
5, 41055, Note_on_c, 3, 63, 0
5, 41280, Note_on_c, 3, 55, 40
5, 41280, Note_on_c, 3, 67, 40
5, 41295, Note_on_c, 3, 56, 0
5, 41295, Note_on_c, 3, 60, 0
5, 41535, Note_on_c, 3, 55, 0
5, 41760, Note_on_c, 3, 62, 40
5, 41778, Note_on_c, 3, 67, 0
5, 42000, Note_on_c, 3, 65, 40
5, 42018, Note_on_c, 3, 62, 0
5, 42240, Note_on_c, 3, 63, 40
5, 42258, Note_on_c, 3, 65, 0
5, 42720, Note_on_c, 3, 62, 40
5, 42735, Note_on_c, 3, 63, 0
5, 42960, Note_on_c, 3, 60, 40
5, 42975, Note_on_c, 3, 62, 0
5, 43195, Note_on_c, 3, 60, 0
5, 43200, Note_on_c, 3, 55, 40
5, 43200, Note_on_c, 3, 59, 40
5, 43200, Control_c, 3, 11, 80
5, 43250, Control_c, 3, 11, 81
5, 43300, Control_c, 3, 11, 82
5, 43350, Control_c, 3, 11, 83
5, 43400, Control_c, 3, 11, 85
5, 43440, Control_c, 3, 11, 86
5, 43490, Control_c, 3, 11, 87
5, 43540, Control_c, 3, 11, 88
5, 43590, Control_c, 3, 11, 90
5, 43640, Control_c, 3, 11, 91
5, 43650, Note_on_c, 3, 55, 0
5, 43650, Note_on_c, 3, 59, 0
5, 43680, Note_on_c, 3, 59, 40
5, 43680, Control_c, 3, 11, 92
5, 43730, Control_c, 3, 11, 93
5, 43780, Control_c, 3, 11, 95
5, 43830, Control_c, 3, 11, 96
5, 43880, Control_c, 3, 11, 97
5, 43920, Note_on_c, 3, 62, 40
5, 43920, Control_c, 3, 11, 98
5, 43950, Note_on_c, 3, 59, 0
5, 43970, Control_c, 3, 11, 100
5, 44020, Control_c, 3, 11, 101
5, 44070, Control_c, 3, 11, 102
5, 44120, Control_c, 3, 11, 103
5, 44160, Note_on_c, 3, 55, 40
5, 44160, Note_on_c, 3, 60, 40
5, 44160, Control_c, 3, 11, 105
5, 44190, Note_on_c, 3, 62, 0
5, 44210, Control_c, 3, 11, 104
5, 44260, Control_c, 3, 11, 103
5, 44310, Control_c, 3, 11, 102
5, 44360, Control_c, 3, 11, 100
5, 44400, Control_c, 3, 11, 99
5, 44450, Control_c, 3, 11, 98
5, 44500, Control_c, 3, 11, 97
5, 44550, Control_c, 3, 11, 95
5, 44600, Control_c, 3, 11, 94
5, 44640, Note_on_c, 3, 58, 40
5, 44640, Control_c, 3, 11, 93
5, 44670, Note_on_c, 3, 60, 0
5, 44690, Control_c, 3, 11, 92
5, 44740, Control_c, 3, 11, 90
5, 44790, Control_c, 3, 11, 89
5, 44840, Control_c, 3, 11, 88
5, 44880, Note_on_c, 3, 56, 40
5, 44880, Control_c, 3, 11, 87
5, 44910, Note_on_c, 3, 58, 0
5, 44930, Control_c, 3, 11, 85
5, 44980, Control_c, 3, 11, 84
5, 45030, Control_c, 3, 11, 82
5, 45080, Control_c, 3, 11, 80
5, 45090, Note_on_c, 3, 55, 0
5, 45090, Note_on_c, 3, 56, 0
5, 45120, Note_on_c, 3, 55, 40
5, 45170, Control_c, 3, 11, 80
5, 45210, Control_c, 3, 11, 81
5, 45250, Control_c, 3, 11, 81
5, 45290, Control_c, 3, 11, 82
5, 45330, Control_c, 3, 11, 82
5, 45370, Control_c, 3, 11, 83
5, 45390, Note_on_c, 3, 55, 0
5, 45410, Control_c, 3, 11, 83
5, 45450, Control_c, 3, 11, 84
5, 45490, Control_c, 3, 11, 84
5, 45530, Control_c, 3, 11, 85
5, 45570, Control_c, 3, 11, 85
5, 45620, Control_c, 3, 11, 86
5, 45660, Control_c, 3, 11, 87
5, 45700, Control_c, 3, 11, 87
5, 45740, Control_c, 3, 11, 88
5, 45780, Control_c, 3, 11, 88
5, 45820, Control_c, 3, 11, 89
5, 45840, Note_on_c, 3, 63, 40
5, 45860, Control_c, 3, 11, 89
5, 45900, Control_c, 3, 11, 90
5, 45940, Control_c, 3, 11, 90
5, 45980, Control_c, 3, 11, 91
5, 46020, Control_c, 3, 11, 91
5, 46060, Control_c, 3, 11, 92
5, 46080, Note_on_c, 3, 62, 40
5, 46110, Note_on_c, 3, 63, 0
5, 46110, Control_c, 3, 11, 92
5, 46150, Control_c, 3, 11, 93
5, 46190, Control_c, 3, 11, 93
5, 46230, Control_c, 3, 11, 94
5, 46270, Control_c, 3, 11, 94
5, 46310, Control_c, 3, 11, 95
5, 46320, Note_on_c, 3, 67, 40
5, 46350, Note_on_c, 3, 62, 0
5, 46350, Control_c, 3, 11, 96
5, 46390, Control_c, 3, 11, 96
5, 46430, Control_c, 3, 11, 97
5, 46470, Control_c, 3, 11, 97
5, 46510, Control_c, 3, 11, 98
5, 46550, Control_c, 3, 11, 98
5, 46560, Note_on_c, 3, 65, 40
5, 46590, Note_on_c, 3, 67, 0
5, 46600, Control_c, 3, 11, 99
5, 46640, Control_c, 3, 11, 99
5, 46680, Control_c, 3, 11, 100
5, 46720, Control_c, 3, 11, 100
5, 46760, Control_c, 3, 11, 101
5, 46800, Note_on_c, 3, 63, 40
5, 46800, Control_c, 3, 11, 101
5, 46830, Note_on_c, 3, 65, 0
5, 46840, Control_c, 3, 11, 102
5, 46880, Control_c, 3, 11, 102
5, 46920, Control_c, 3, 11, 103
5, 46960, Control_c, 3, 11, 103
5, 47000, Control_c, 3, 11, 104
5, 47010, Note_on_c, 3, 63, 0
5, 47040, Note_on_c, 3, 62, 40
5, 47040, Control_c, 3, 11, 105
5, 47070, Control_c, 3, 11, 105
5, 47090, Control_c, 3, 11, 104
5, 47110, Control_c, 3, 11, 104
5, 47130, Control_c, 3, 11, 103
5, 47150, Control_c, 3, 11, 103
5, 47170, Control_c, 3, 11, 102
5, 47190, Control_c, 3, 11, 102
5, 47210, Control_c, 3, 11, 101
5, 47230, Control_c, 3, 11, 101
5, 47250, Control_c, 3, 11, 100
5, 47270, Control_c, 3, 11, 100
5, 47290, Control_c, 3, 11, 99
5, 47310, Control_c, 3, 11, 98
5, 47330, Control_c, 3, 11, 98
5, 47350, Control_c, 3, 11, 97
5, 47370, Control_c, 3, 11, 97
5, 47390, Control_c, 3, 11, 96
5, 47410, Control_c, 3, 11, 96
5, 47430, Control_c, 3, 11, 95
5, 47450, Control_c, 3, 11, 95
5, 47470, Control_c, 3, 11, 94
5, 47490, Control_c, 3, 11, 94
5, 47510, Control_c, 3, 11, 93
5, 47520, Note_on_c, 3, 60, 40
5, 47540, Control_c, 3, 11, 92
5, 47550, Note_on_c, 3, 62, 0
5, 47560, Control_c, 3, 11, 92
5, 47580, Control_c, 3, 11, 91
5, 47600, Control_c, 3, 11, 91
5, 47620, Control_c, 3, 11, 90
5, 47640, Control_c, 3, 11, 90
5, 47660, Control_c, 3, 11, 89
5, 47680, Control_c, 3, 11, 89
5, 47700, Control_c, 3, 11, 88
5, 47720, Control_c, 3, 11, 88
5, 47740, Control_c, 3, 11, 87
5, 47760, Control_c, 3, 11, 87
5, 47780, Control_c, 3, 11, 86
5, 47800, Control_c, 3, 11, 86
5, 47820, Control_c, 3, 11, 85
5, 47840, Control_c, 3, 11, 85
5, 47860, Control_c, 3, 11, 84
5, 47880, Control_c, 3, 11, 84
5, 47900, Control_c, 3, 11, 83
5, 47920, Control_c, 3, 11, 83
5, 47940, Control_c, 3, 11, 82
5, 47960, Control_c, 3, 11, 81
5, 47980, Control_c, 3, 11, 80
5, 48000, Note_on_c, 3, 59, 40
5, 48030, Note_on_c, 3, 60, 0
5, 48480, Note_on_c, 3, 48, 55
5, 48480, Note_on_c, 3, 58, 55
5, 48510, Note_on_c, 3, 59, 0
5, 48960, Note_on_c, 3, 53, 40
5, 48960, Note_on_c, 3, 56, 40
5, 48990, Note_on_c, 3, 48, 0
5, 48990, Note_on_c, 3, 58, 0
5, 49440, Note_on_c, 3, 53, 0
5, 49440, Note_on_c, 3, 56, 0
5, 49920, Note_on_c, 3, 49, 40
5, 49920, Note_on_c, 3, 61, 40
5, 50400, Note_on_c, 3, 49, 0
5, 50400, Note_on_c, 3, 61, 0
5, 50880, Note_on_c, 3, 47, 40
5, 50880, Note_on_c, 3, 59, 40
5, 50880, Control_c, 3, 11, 80
5, 50920, Control_c, 3, 11, 81
5, 50960, Control_c, 3, 11, 83
5, 51000, Control_c, 3, 11, 85
5, 51040, Control_c, 3, 11, 87
5, 51080, Control_c, 3, 11, 89
5, 51120, Control_c, 3, 11, 91
5, 51150, Control_c, 3, 11, 93
5, 51190, Control_c, 3, 11, 95
5, 51230, Control_c, 3, 11, 97
5, 51270, Control_c, 3, 11, 99
5, 51310, Control_c, 3, 11, 101
5, 51350, Control_c, 3, 11, 103
5, 51380, Control_c, 3, 11, 104
5, 51420, Control_c, 3, 11, 106
5, 51460, Control_c, 3, 11, 108
5, 51500, Control_c, 3, 11, 110
5, 51540, Control_c, 3, 11, 112
5, 51570, Note_on_c, 3, 47, 0
5, 51570, Note_on_c, 3, 59, 0
5, 51580, Control_c, 3, 11, 114
5, 51600, Note_on_c, 3, 53, 40
5, 51600, Note_on_c, 3, 65, 40
5, 51610, Control_c, 3, 11, 115
5, 51650, Control_c, 3, 11, 117
5, 51690, Control_c, 3, 11, 119
5, 51730, Control_c, 3, 11, 121
5, 51770, Control_c, 3, 11, 123
5, 51810, Note_on_c, 3, 53, 0
5, 51810, Note_on_c, 3, 65, 0
5, 51810, Control_c, 3, 11, 125
5, 51840, Note_on_c, 3, 51, 40
5, 51840, Note_on_c, 3, 63, 40
5, 51930, Note_on_c, 3, 51, 0
5, 51930, Note_on_c, 3, 63, 0
5, 52080, Note_on_c, 3, 53, 40
5, 52080, Note_on_c, 3, 65, 40
5, 52170, Note_on_c, 3, 53, 0
5, 52170, Note_on_c, 3, 65, 0
5, 52440, Control_c, 3, 11, 80
5, 52560, Note_on_c, 3, 56, 40
5, 52560, Note_on_c, 3, 63, 40
5, 52810, Control_c, 3, 11, 80
5, 52830, Control_c, 3, 11, 82
5, 52860, Control_c, 3, 11, 85
5, 52880, Control_c, 3, 11, 87
5, 52910, Control_c, 3, 11, 90
5, 52930, Control_c, 3, 11, 92
5, 52960, Control_c, 3, 11, 95
5, 52980, Control_c, 3, 11, 97
5, 53010, Note_on_c, 3, 56, 0
5, 53010, Note_on_c, 3, 63, 0
5, 53010, Control_c, 3, 11, 100
5, 53030, Control_c, 3, 11, 102
5, 53040, Note_on_c, 3, 55, 40
5, 53040, Note_on_c, 3, 63, 40
5, 53060, Control_c, 3, 11, 105
5, 53080, Control_c, 3, 11, 107
5, 53110, Control_c, 3, 11, 110
5, 53130, Control_c, 3, 11, 112
5, 53160, Control_c, 3, 11, 115
5, 53180, Control_c, 3, 11, 117
5, 53210, Control_c, 3, 11, 120
5, 53230, Control_c, 3, 11, 122
5, 53260, Control_c, 3, 11, 125
5, 53280, Note_on_c, 3, 62, 40
5, 53280, Control_c, 3, 11, 127
5, 53310, Note_on_c, 3, 63, 0
5, 53310, Control_c, 3, 11, 125
5, 53330, Control_c, 3, 11, 123
5, 53360, Control_c, 3, 11, 120
5, 53380, Control_c, 3, 11, 118
5, 53400, Control_c, 3, 11, 116
5, 53430, Control_c, 3, 11, 113
5, 53450, Control_c, 3, 11, 111
5, 53480, Control_c, 3, 11, 108
5, 53490, Note_on_c, 3, 55, 0
5, 53490, Note_on_c, 3, 62, 0
5, 53500, Control_c, 3, 11, 106
5, 53520, Note_on_c, 3, 43, 40
5, 53520, Note_on_c, 3, 62, 40
5, 53520, Control_c, 3, 11, 104
5, 53550, Control_c, 3, 11, 101
5, 53570, Control_c, 3, 11, 99
5, 53600, Control_c, 3, 11, 96
5, 53620, Control_c, 3, 11, 94
5, 53640, Control_c, 3, 11, 92
5, 53670, Control_c, 3, 11, 89
5, 53690, Control_c, 3, 11, 86
5, 53700, Note_on_c, 3, 59, 40
5, 53715, Note_on_c, 3, 62, 0
5, 53720, Control_c, 3, 11, 83
5, 53740, Control_c, 3, 11, 80
5, 53745, Note_on_c, 3, 43, 0
5, 53745, Note_on_c, 3, 59, 0
5, 53760, Note_on_c, 3, 48, 40
5, 53760, Note_on_c, 3, 60, 40
5, 54000, Note_on_c, 3, 51, 40
5, 54030, Note_on_c, 3, 48, 0
5, 54030, Note_on_c, 3, 60, 0
5, 54240, Note_on_c, 3, 55, 40
5, 54270, Note_on_c, 3, 51, 0
5, 54480, Note_on_c, 3, 59, 40
5, 54510, Note_on_c, 3, 55, 0
5, 54690, Note_on_c, 3, 59, 0
5, 54720, Note_on_c, 3, 60, 40
5, 54960, Note_on_c, 3, 55, 40
5, 54990, Note_on_c, 3, 60, 0
5, 55200, Note_on_c, 3, 51, 40
5, 55230, Note_on_c, 3, 55, 0
5, 55440, Note_on_c, 3, 48, 40
5, 55470, Note_on_c, 3, 51, 0
5, 55650, Note_on_c, 3, 48, 0
5, 55680, Note_on_c, 3, 47, 40
5, 55920, Note_on_c, 3, 43, 40
5, 55950, Note_on_c, 3, 47, 0
5, 56160, Note_on_c, 3, 48, 40
5, 56160, Control_c, 3, 11, 80
5, 56170, Control_c, 3, 11, 82
5, 56180, Control_c, 3, 11, 85
5, 56190, Note_on_c, 3, 43, 0
5, 56190, Control_c, 3, 11, 87
5, 56200, Control_c, 3, 11, 90
5, 56210, Control_c, 3, 11, 92
5, 56220, Control_c, 3, 11, 95
5, 56230, Control_c, 3, 11, 97
5, 56240, Control_c, 3, 11, 100
5, 56250, Control_c, 3, 11, 102
5, 56260, Control_c, 3, 11, 105
5, 56270, Control_c, 3, 11, 107
5, 56280, Control_c, 3, 11, 110
5, 56290, Control_c, 3, 11, 108
5, 56300, Control_c, 3, 11, 105
5, 56310, Control_c, 3, 11, 103
5, 56320, Control_c, 3, 11, 100
5, 56330, Control_c, 3, 11, 98
5, 56340, Control_c, 3, 11, 95
5, 56350, Control_c, 3, 11, 93
5, 56360, Control_c, 3, 11, 90
5, 56370, Control_c, 3, 11, 87
5, 56380, Control_c, 3, 11, 83
5, 56390, Control_c, 3, 11, 80
5, 56400, Note_on_c, 3, 51, 40
5, 56430, Note_on_c, 3, 48, 0
5, 56610, Note_on_c, 3, 51, 0
5, 56640, Note_on_c, 3, 55, 40
5, 57120, Note_on_c, 3, 43, 40
5, 57150, Note_on_c, 3, 55, 0
5, 57210, Note_on_c, 3, 43, 0
5, 57540, Control_c, 3, 11, 110
5, 57600, Note_on_c, 3, 53, 40
5, 57600, Note_on_c, 3, 62, 40
5, 58050, Note_on_c, 3, 53, 0
5, 58050, Note_on_c, 3, 62, 0
5, 58080, Note_on_c, 3, 53, 40
5, 58080, Note_on_c, 3, 62, 40
5, 58470, Note_on_c, 3, 53, 0
5, 58470, Note_on_c, 3, 62, 0
5, 58500, Note_on_c, 3, 53, 40
5, 58500, Note_on_c, 3, 62, 40
5, 58545, Note_on_c, 3, 53, 0
5, 58545, Note_on_c, 3, 62, 0
5, 58560, Note_on_c, 3, 54, 40
5, 58560, Note_on_c, 3, 63, 40
5, 58610, Control_c, 3, 11, 109
5, 58630, Control_c, 3, 11, 108
5, 58650, Control_c, 3, 11, 108
5, 58670, Control_c, 3, 11, 107
5, 58690, Control_c, 3, 11, 106
5, 58710, Control_c, 3, 11, 106
5, 58730, Control_c, 3, 11, 105
5, 58750, Control_c, 3, 11, 105
5, 58770, Control_c, 3, 11, 104
5, 58790, Control_c, 3, 11, 103
5, 58810, Control_c, 3, 11, 103
5, 58830, Control_c, 3, 11, 102
5, 58850, Control_c, 3, 11, 101
5, 58870, Control_c, 3, 11, 101
5, 58890, Control_c, 3, 11, 100
5, 58910, Control_c, 3, 11, 100
5, 58930, Control_c, 3, 11, 99
5, 58950, Control_c, 3, 11, 98
5, 58970, Control_c, 3, 11, 98
5, 58990, Control_c, 3, 11, 97
5, 59010, Control_c, 3, 11, 96
5, 59030, Control_c, 3, 11, 96
5, 59060, Control_c, 3, 11, 95
5, 59080, Control_c, 3, 11, 94
5, 59100, Control_c, 3, 11, 94
5, 59120, Control_c, 3, 11, 93
5, 59140, Control_c, 3, 11, 92
5, 59160, Control_c, 3, 11, 92
5, 59180, Control_c, 3, 11, 91
5, 59200, Control_c, 3, 11, 90
5, 59220, Control_c, 3, 11, 90
5, 59240, Control_c, 3, 11, 89
5, 59260, Control_c, 3, 11, 89
5, 59280, Note_on_c, 3, 62, 40
5, 59280, Control_c, 3, 11, 88
5, 59300, Control_c, 3, 11, 87
5, 59310, Note_on_c, 3, 63, 0
5, 59320, Control_c, 3, 11, 87
5, 59340, Control_c, 3, 11, 86
5, 59360, Control_c, 3, 11, 85
5, 59380, Control_c, 3, 11, 85
5, 59400, Note_on_c, 3, 60, 40
5, 59400, Control_c, 3, 11, 84
5, 59420, Control_c, 3, 11, 84
5, 59430, Note_on_c, 3, 62, 0
5, 59440, Control_c, 3, 11, 83
5, 59460, Control_c, 3, 11, 82
5, 59480, Control_c, 3, 11, 81
5, 59490, Note_on_c, 3, 54, 0
5, 59490, Note_on_c, 3, 60, 0
5, 59500, Control_c, 3, 11, 80
5, 59520, Note_on_c, 3, 55, 40
5, 59520, Note_on_c, 3, 60, 40
5, 60000, Note_on_c, 3, 59, 40
5, 60030, Note_on_c, 3, 60, 0
5, 60450, Note_on_c, 3, 55, 0
5, 60450, Note_on_c, 3, 59, 0
5, 60480, Note_on_c, 3, 48, 40
5, 60480, Note_on_c, 3, 60, 40
5, 60720, Note_on_c, 3, 48, 0
5, 60720, Note_on_c, 3, 60, 0
5, 61440, Note_on_c, 3, 60, 40
5, 61440, Note_on_c, 3, 63, 40
5, 61920, Note_on_c, 3, 59, 40
5, 61920, Note_on_c, 3, 62, 40
5, 61950, Note_on_c, 3, 60, 0
5, 61950, Note_on_c, 3, 63, 0
5, 62340, Note_on_c, 3, 60, 40
5, 62350, Note_on_c, 3, 59, 0
5, 62350, Note_on_c, 3, 62, 0
5, 62377, Note_on_c, 3, 60, 0
5, 62400, Note_on_c, 3, 60, 40
5, 62640, Note_on_c, 3, 60, 0
5, 63120, Note_on_c, 3, 51, 40
5, 63120, Note_on_c, 3, 63, 40
5, 63120, Control_c, 3, 11, 80
5, 63130, Control_c, 3, 11, 83
5, 63140, Control_c, 3, 11, 86
5, 63150, Control_c, 3, 11, 90
5, 63160, Control_c, 3, 11, 93
5, 63170, Control_c, 3, 11, 96
5, 63180, Control_c, 3, 11, 100
5, 63190, Control_c, 3, 11, 103
5, 63200, Control_c, 3, 11, 106
5, 63360, Note_on_c, 3, 48, 40
5, 63360, Note_on_c, 3, 60, 40
5, 63390, Note_on_c, 3, 51, 0
5, 63390, Note_on_c, 3, 63, 0
5, 63570, Note_on_c, 3, 48, 0
5, 63570, Note_on_c, 3, 60, 0
5, 63600, Note_on_c, 3, 44, 40
5, 63600, Note_on_c, 3, 56, 40
5, 63765, Note_on_c, 3, 44, 0
5, 63765, Note_on_c, 3, 56, 0
5, 63780, Note_on_c, 3, 53, 40
5, 63825, Note_on_c, 3, 53, 0
5, 63840, Note_on_c, 3, 50, 40
5, 63930, Note_on_c, 3, 50, 0
5, 64080, Note_on_c, 3, 55, 40
5, 64170, Note_on_c, 3, 55, 0
5, 64317, Control_c, 3, 11, 80
5, 64320, Note_on_c, 3, 48, 40
5, 64410, Note_on_c, 3, 48, 0
5, 64800, Note_on_c, 3, 48, 40
5, 64890, Note_on_c, 3, 48, 0
5, 65280, Note_on_c, 3, 48, 40
5, 65520, Note_on_c, 3, 48, 0
5, 70080, Note_on_c, 3, 59, 60
5, 70560, Note_on_c, 3, 62, 60
5, 70590, Note_on_c, 3, 59, 0
5, 71025, Note_on_c, 3, 62, 0
5, 71040, Note_on_c, 3, 65, 60
5, 71760, Note_on_c, 3, 64, 67
5, 71790, Note_on_c, 3, 65, 0
5, 71880, Note_on_c, 3, 62, 68
5, 71910, Note_on_c, 3, 64, 0
5, 71970, Note_on_c, 3, 62, 0
5, 72000, Note_on_c, 3, 62, 70
5, 72120, Note_on_c, 3, 60, 71
5, 72150, Note_on_c, 3, 62, 0
5, 72240, Note_on_c, 3, 59, 72
5, 72270, Note_on_c, 3, 60, 0
5, 72360, Note_on_c, 3, 57, 73
5, 72390, Note_on_c, 3, 59, 0
5, 72465, Note_on_c, 3, 57, 0
5, 72480, Note_on_c, 3, 55, 75
5, 72570, Note_on_c, 3, 55, 0
5, 72600, Note_on_c, 3, 55, 76
5, 72720, Note_on_c, 3, 57, 77
5, 72750, Note_on_c, 3, 55, 0
5, 72840, Note_on_c, 3, 60, 78
5, 72870, Note_on_c, 3, 57, 0
5, 72945, Note_on_c, 3, 60, 0
5, 72960, Note_on_c, 3, 55, 80
5, 72960, Note_on_c, 3, 59, 80
5, 73590, Note_on_c, 3, 55, 0
5, 73590, Note_on_c, 3, 59, 0
5, 73680, Note_on_c, 3, 59, 80
5, 73680, Note_on_c, 3, 62, 80
5, 73770, Note_on_c, 3, 59, 0
5, 73770, Note_on_c, 3, 62, 0
5, 73920, Note_on_c, 3, 55, 80
5, 73920, Note_on_c, 3, 59, 80
5, 74550, Note_on_c, 3, 55, 0
5, 74550, Note_on_c, 3, 59, 0
5, 74640, Note_on_c, 3, 59, 80
5, 74640, Note_on_c, 3, 62, 80
5, 74730, Note_on_c, 3, 59, 0
5, 74730, Note_on_c, 3, 62, 0
5, 74880, Note_on_c, 3, 55, 80
5, 74880, Note_on_c, 3, 59, 80
5, 74970, Note_on_c, 3, 55, 0
5, 74970, Note_on_c, 3, 59, 0
5, 75120, Note_on_c, 3, 59, 80
5, 75120, Note_on_c, 3, 62, 80
5, 75210, Note_on_c, 3, 59, 0
5, 75210, Note_on_c, 3, 62, 0
5, 75360, Note_on_c, 3, 55, 80
5, 75360, Note_on_c, 3, 59, 80
5, 75450, Note_on_c, 3, 55, 0
5, 75450, Note_on_c, 3, 59, 0
5, 75600, Note_on_c, 3, 59, 80
5, 75600, Note_on_c, 3, 62, 80
5, 75690, Note_on_c, 3, 59, 0
5, 75690, Note_on_c, 3, 62, 0
5, 75840, Note_on_c, 3, 55, 80
5, 75840, Note_on_c, 3, 59, 80
5, 75930, Note_on_c, 3, 55, 0
5, 75930, Note_on_c, 3, 59, 0
5, 76800, Note_on_c, 3, 48, 50
5, 76800, Note_on_c, 3, 58, 50
5, 77040, Note_on_c, 3, 48, 0
5, 77280, Note_on_c, 3, 55, 50
5, 77320, Note_on_c, 3, 58, 0
5, 77520, Note_on_c, 3, 52, 50
5, 77550, Note_on_c, 3, 55, 0
5, 77730, Note_on_c, 3, 52, 0
5, 77760, Note_on_c, 3, 48, 50
5, 77970, Note_on_c, 3, 48, 0
5, 78000, Note_on_c, 3, 52, 50
5, 78000, Note_on_c, 3, 55, 50
5, 78090, Note_on_c, 3, 52, 0
5, 78090, Note_on_c, 3, 55, 0
5, 78240, Note_on_c, 3, 52, 50
5, 78240, Note_on_c, 3, 55, 50
5, 78330, Note_on_c, 3, 52, 0
5, 78330, Note_on_c, 3, 55, 0
5, 78480, Note_on_c, 3, 48, 50
5, 78480, Note_on_c, 3, 58, 50
5, 78570, Note_on_c, 3, 48, 0
5, 78570, Note_on_c, 3, 58, 0
5, 78720, Note_on_c, 3, 53, 50
5, 78720, Note_on_c, 3, 57, 50
5, 78720, Control_c, 3, 11, 80
5, 78790, Control_c, 3, 11, 81
5, 78850, Control_c, 3, 11, 82
5, 78920, Control_c, 3, 11, 83
5, 78930, Note_on_c, 3, 53, 0
5, 78960, Note_on_c, 3, 53, 50
5, 78980, Control_c, 3, 11, 84
5, 78990, Note_on_c, 3, 57, 0
5, 79040, Control_c, 3, 11, 85
5, 79110, Control_c, 3, 11, 86
5, 79170, Control_c, 3, 11, 87
5, 79200, Note_on_c, 3, 48, 50
5, 79200, Note_on_c, 3, 52, 50
5, 79230, Note_on_c, 3, 53, 0
5, 79240, Control_c, 3, 11, 88
5, 79300, Control_c, 3, 11, 89
5, 79360, Control_c, 3, 11, 90
5, 79410, Note_on_c, 3, 48, 0
5, 79430, Control_c, 3, 11, 91
5, 79440, Note_on_c, 3, 58, 50
5, 79470, Note_on_c, 3, 52, 0
5, 79490, Control_c, 3, 11, 92
5, 79560, Control_c, 3, 11, 93
5, 79620, Control_c, 3, 11, 94
5, 79650, Note_on_c, 3, 58, 0
5, 79680, Note_on_c, 3, 53, 50
5, 79680, Note_on_c, 3, 57, 50
5, 79680, Control_c, 3, 11, 95
5, 79750, Control_c, 3, 11, 96
5, 79810, Control_c, 3, 11, 97
5, 79880, Control_c, 3, 11, 98
5, 79890, Note_on_c, 3, 53, 0
5, 79920, Note_on_c, 3, 53, 50
5, 79940, Control_c, 3, 11, 99
5, 79950, Note_on_c, 3, 57, 0
5, 80000, Control_c, 3, 11, 100
5, 80070, Control_c, 3, 11, 101
5, 80130, Control_c, 3, 11, 102
5, 80160, Note_on_c, 3, 48, 50
5, 80160, Note_on_c, 3, 52, 50
5, 80190, Note_on_c, 3, 53, 0
5, 80200, Control_c, 3, 11, 103
5, 80260, Control_c, 3, 11, 104
5, 80320, Control_c, 3, 11, 105
5, 80370, Note_on_c, 3, 48, 0
5, 80390, Control_c, 3, 11, 106
5, 80400, Note_on_c, 3, 58, 50
5, 80430, Note_on_c, 3, 52, 0
5, 80450, Control_c, 3, 11, 107
5, 80520, Control_c, 3, 11, 108
5, 80580, Control_c, 3, 11, 110
5, 80610, Note_on_c, 3, 58, 0
5, 80634, Control_c, 3, 11, 80
5, 80640, Note_on_c, 3, 53, 50
5, 80640, Note_on_c, 3, 57, 50
5, 80850, Note_on_c, 3, 53, 0
5, 80850, Note_on_c, 3, 57, 0
5, 81840, Note_on_c, 3, 67, 50
5, 82080, Note_on_c, 3, 65, 50
5, 82110, Note_on_c, 3, 67, 0
5, 82290, Note_on_c, 3, 65, 0
5, 82320, Note_on_c, 3, 62, 50
5, 82530, Note_on_c, 3, 62, 0
5, 82560, Note_on_c, 3, 59, 50
5, 82560, Note_on_c, 3, 62, 50
5, 83040, Note_on_c, 3, 60, 50
5, 83040, Note_on_c, 3, 64, 50
5, 83070, Note_on_c, 3, 59, 0
5, 83070, Note_on_c, 3, 62, 0
5, 83490, Note_on_c, 3, 60, 0
5, 83490, Note_on_c, 3, 64, 0
5, 83520, Note_on_c, 3, 59, 50
5, 83520, Note_on_c, 3, 62, 50
5, 84000, Note_on_c, 3, 60, 50
5, 84000, Note_on_c, 3, 64, 50
5, 84030, Note_on_c, 3, 59, 0
5, 84030, Note_on_c, 3, 62, 0
5, 84450, Note_on_c, 3, 60, 0
5, 84450, Note_on_c, 3, 64, 0
5, 84480, Note_on_c, 3, 59, 50
5, 84480, Note_on_c, 3, 62, 50
5, 84720, Note_on_c, 3, 59, 0
5, 84720, Note_on_c, 3, 62, 0
5, 85440, Note_on_c, 3, 55, 50
5, 86160, Note_on_c, 3, 57, 50
5, 86190, Note_on_c, 3, 55, 0
5, 86280, Note_on_c, 3, 59, 50
5, 86310, Note_on_c, 3, 57, 0
5, 86370, Note_on_c, 3, 59, 0
5, 86400, Note_on_c, 3, 60, 50
5, 86640, Note_on_c, 3, 60, 0
5, 88320, Note_on_c, 3, 45, 50
5, 88320, Note_on_c, 3, 53, 50
5, 88800, Note_on_c, 3, 57, 52
5, 88830, Note_on_c, 3, 53, 0
5, 89250, Note_on_c, 3, 45, 0
5, 89250, Note_on_c, 3, 57, 0
5, 89280, Note_on_c, 3, 41, 55
5, 89280, Note_on_c, 3, 60, 55
5, 89490, Note_on_c, 3, 41, 0
5, 89520, Note_on_c, 3, 53, 56
5, 89880, Note_on_c, 3, 57, 58
5, 89910, Note_on_c, 3, 60, 0
5, 89970, Note_on_c, 3, 53, 0
5, 90000, Note_on_c, 3, 53, 58
5, 90000, Note_on_c, 3, 65, 58
5, 90030, Note_on_c, 3, 57, 0
5, 90120, Note_on_c, 3, 62, 59
5, 90150, Note_on_c, 3, 65, 0
5, 90210, Note_on_c, 3, 53, 0
5, 90210, Note_on_c, 3, 62, 0
5, 90240, Note_on_c, 3, 55, 60
5, 90240, Note_on_c, 3, 62, 60
5, 90480, Note_on_c, 3, 60, 61
5, 90510, Note_on_c, 3, 62, 0
5, 90690, Note_on_c, 3, 55, 0
5, 90720, Note_on_c, 3, 53, 62
5, 90960, Note_on_c, 3, 59, 63
5, 90990, Note_on_c, 3, 60, 0
5, 91080, Note_on_c, 3, 67, 64
5, 91110, Note_on_c, 3, 59, 0
5, 91170, Note_on_c, 3, 53, 0
5, 91170, Note_on_c, 3, 67, 0
5, 91200, Note_on_c, 3, 52, 65
5, 91200, Note_on_c, 3, 67, 65
5, 91320, Note_on_c, 3, 66, 65
5, 91350, Note_on_c, 3, 67, 0
5, 91440, Note_on_c, 3, 67, 66
5, 91470, Note_on_c, 3, 66, 0
5, 91560, Note_on_c, 3, 68, 66
5, 91590, Note_on_c, 3, 67, 0
5, 91650, Note_on_c, 3, 52, 0
5, 91680, Note_on_c, 3, 53, 67
5, 91680, Note_on_c, 3, 69, 67
5, 91710, Note_on_c, 3, 68, 0
5, 91800, Note_on_c, 3, 57, 68
5, 91800, Note_on_c, 3, 65, 68
5, 91830, Note_on_c, 3, 53, 0
5, 91830, Note_on_c, 3, 69, 0
5, 91920, Note_on_c, 3, 55, 68
5, 91920, Note_on_c, 3, 64, 68
5, 91950, Note_on_c, 3, 57, 0
5, 91950, Note_on_c, 3, 65, 0
5, 92040, Note_on_c, 3, 53, 69
5, 92040, Note_on_c, 3, 62, 69
5, 92070, Note_on_c, 3, 55, 0
5, 92070, Note_on_c, 3, 64, 0
5, 92160, Note_on_c, 3, 52, 70
5, 92160, Note_on_c, 3, 53, 0
5, 92160, Note_on_c, 3, 60, 70
5, 92160, Note_on_c, 3, 62, 0
5, 92370, Note_on_c, 3, 52, 0
5, 92370, Note_on_c, 3, 60, 0
5, 92400, Note_on_c, 3, 60, 71
5, 92400, Note_on_c, 3, 64, 71
5, 92880, Note_on_c, 3, 67, 73
5, 92910, Note_on_c, 3, 60, 0
5, 93090, Note_on_c, 3, 64, 0
5, 93090, Note_on_c, 3, 67, 0
5, 93120, Note_on_c, 3, 65, 75
5, 93120, Note_on_c, 3, 67, 75
5, 93810, Note_on_c, 3, 65, 0
5, 93810, Note_on_c, 3, 67, 0
5, 93840, Note_on_c, 3, 55, 78
5, 93840, Note_on_c, 3, 65, 78
5, 94020, Note_on_c, 3, 53, 79
5, 94020, Note_on_c, 3, 62, 79
5, 94035, Note_on_c, 3, 55, 0
5, 94035, Note_on_c, 3, 65, 0
5, 94065, Note_on_c, 3, 53, 0
5, 94065, Note_on_c, 3, 62, 0
5, 94080, Note_on_c, 3, 52, 80
5, 94080, Note_on_c, 3, 60, 80
5, 94710, Note_on_c, 3, 52, 0
5, 94710, Note_on_c, 3, 60, 0
5, 94800, Note_on_c, 3, 52, 80
5, 94800, Note_on_c, 3, 55, 80
5, 94890, Note_on_c, 3, 52, 0
5, 94890, Note_on_c, 3, 55, 0
5, 95040, Note_on_c, 3, 52, 80
5, 95040, Note_on_c, 3, 60, 80
5, 95670, Note_on_c, 3, 52, 0
5, 95670, Note_on_c, 3, 60, 0
5, 95760, Note_on_c, 3, 52, 80
5, 95760, Note_on_c, 3, 55, 80
5, 95850, Note_on_c, 3, 52, 0
5, 95850, Note_on_c, 3, 55, 0
5, 96000, Note_on_c, 3, 52, 80
5, 96000, Note_on_c, 3, 60, 80
5, 96090, Note_on_c, 3, 52, 0
5, 96090, Note_on_c, 3, 60, 0
5, 96240, Note_on_c, 3, 52, 80
5, 96240, Note_on_c, 3, 55, 80
5, 96330, Note_on_c, 3, 52, 0
5, 96330, Note_on_c, 3, 55, 0
5, 96480, Note_on_c, 3, 52, 80
5, 96480, Note_on_c, 3, 60, 80
5, 96570, Note_on_c, 3, 52, 0
5, 96570, Note_on_c, 3, 60, 0
5, 96720, Note_on_c, 3, 52, 80
5, 96720, Note_on_c, 3, 55, 80
5, 96810, Note_on_c, 3, 52, 0
5, 96810, Note_on_c, 3, 55, 0
5, 96960, Note_on_c, 3, 52, 80
5, 96960, Note_on_c, 3, 60, 80
5, 97050, Note_on_c, 3, 52, 0
5, 97050, Note_on_c, 3, 60, 0
5, 108720, Note_on_c, 3, 65, 40
5, 108720, Control_c, 3, 11, 80
5, 108740, Control_c, 3, 11, 81
5, 108750, Control_c, 3, 11, 82
5, 108760, Control_c, 3, 11, 83
5, 108770, Control_c, 3, 11, 84
5, 108780, Control_c, 3, 11, 85
5, 108790, Control_c, 3, 11, 86
5, 108800, Control_c, 3, 11, 87
5, 108810, Control_c, 3, 11, 88
5, 108820, Control_c, 3, 11, 89
5, 108830, Control_c, 3, 11, 90
5, 108840, Control_c, 3, 11, 91
5, 108850, Control_c, 3, 11, 92
5, 108860, Control_c, 3, 11, 93
5, 108870, Control_c, 3, 11, 94
5, 108880, Control_c, 3, 11, 95
5, 108890, Control_c, 3, 11, 96
5, 108900, Control_c, 3, 11, 97
5, 108910, Control_c, 3, 11, 98
5, 108920, Control_c, 3, 11, 99
5, 108930, Control_c, 3, 11, 100
5, 108940, Control_c, 3, 11, 101
5, 108950, Control_c, 3, 11, 102
5, 108960, Control_c, 3, 11, 103
5, 108970, Control_c, 3, 11, 104
5, 108980, Control_c, 3, 11, 105
5, 108990, Control_c, 3, 11, 106
5, 109000, Control_c, 3, 11, 107
5, 109010, Control_c, 3, 11, 108
5, 109020, Control_c, 3, 11, 109
5, 109030, Control_c, 3, 11, 110
5, 109040, Control_c, 3, 11, 111
5, 109050, Control_c, 3, 11, 112
5, 109060, Control_c, 3, 11, 113
5, 109070, Control_c, 3, 11, 114
5, 109080, Control_c, 3, 11, 115
5, 109090, Control_c, 3, 11, 116
5, 109100, Control_c, 3, 11, 117
5, 109110, Control_c, 3, 11, 118
5, 109120, Control_c, 3, 11, 119
5, 109130, Control_c, 3, 11, 120
5, 109140, Control_c, 3, 11, 121
5, 109150, Control_c, 3, 11, 122
5, 109160, Control_c, 3, 11, 123
5, 109170, Note_on_c, 3, 65, 0
5, 109170, Control_c, 3, 11, 124
5, 109180, Control_c, 3, 11, 125
5, 109190, Control_c, 3, 11, 126
5, 109200, Note_on_c, 3, 60, 40
5, 109200, Control_c, 3, 11, 127
5, 109210, Control_c, 3, 11, 125
5, 109220, Control_c, 3, 11, 123
5, 109230, Control_c, 3, 11, 121
5, 109240, Control_c, 3, 11, 119
5, 109250, Control_c, 3, 11, 117
5, 109260, Control_c, 3, 11, 115
5, 109270, Control_c, 3, 11, 113
5, 109280, Control_c, 3, 11, 111
5, 109290, Control_c, 3, 11, 109
5, 109300, Control_c, 3, 11, 107
5, 109310, Control_c, 3, 11, 105
5, 109320, Control_c, 3, 11, 103
5, 109330, Control_c, 3, 11, 101
5, 109340, Control_c, 3, 11, 99
5, 109350, Control_c, 3, 11, 97
5, 109360, Control_c, 3, 11, 95
5, 109370, Control_c, 3, 11, 93
5, 109380, Control_c, 3, 11, 91
5, 109390, Control_c, 3, 11, 89
5, 109400, Control_c, 3, 11, 87
5, 109410, Note_on_c, 3, 60, 0
5, 109410, Control_c, 3, 11, 85
5, 109420, Control_c, 3, 11, 83
5, 109430, Control_c, 3, 11, 80
5, 109440, Note_on_c, 3, 65, 65
5, 110370, Note_on_c, 3, 65, 0
5, 110400, Note_on_c, 3, 61, 65
5, 111330, Note_on_c, 3, 61, 0
5, 111360, Note_on_c, 3, 64, 65
5, 112050, Note_on_c, 3, 64, 0
5, 112080, Note_on_c, 3, 64, 65
5, 112100, Note_on_c, 3, 64, 0
5, 112100, Note_on_c, 3, 65, 65
5, 112120, Note_on_c, 3, 64, 65
5, 112120, Note_on_c, 3, 65, 0
5, 112140, Note_on_c, 3, 64, 0
5, 112140, Note_on_c, 3, 65, 65
5, 112160, Note_on_c, 3, 64, 65
5, 112160, Note_on_c, 3, 65, 0
5, 112180, Note_on_c, 3, 64, 0
5, 112180, Note_on_c, 3, 65, 65
5, 112200, Note_on_c, 3, 64, 65
5, 112200, Note_on_c, 3, 65, 0
5, 112220, Note_on_c, 3, 64, 0
5, 112220, Note_on_c, 3, 65, 65
5, 112240, Note_on_c, 3, 64, 65
5, 112240, Note_on_c, 3, 65, 0
5, 112260, Note_on_c, 3, 62, 65
5, 112260, Note_on_c, 3, 64, 0
5, 112290, Note_on_c, 3, 64, 65
5, 112295, Note_on_c, 3, 62, 0
5, 112320, Note_on_c, 3, 64, 0
5, 112320, Note_on_c, 3, 65, 65
5, 112560, Note_on_c, 3, 65, 0
5, 115200, Note_on_c, 3, 60, 65
5, 115680, Note_on_c, 3, 62, 65
5, 115710, Note_on_c, 3, 60, 0
5, 115920, Note_on_c, 3, 64, 65
5, 115950, Note_on_c, 3, 62, 0
5, 116130, Note_on_c, 3, 64, 0
5, 116160, Note_on_c, 3, 65, 65
5, 116400, Note_on_c, 3, 65, 0
5, 124800, Note_on_c, 3, 53, 65
5, 125280, Note_on_c, 3, 55, 65
5, 125520, Note_on_c, 3, 56, 65
5, 125550, Note_on_c, 3, 55, 0
5, 125730, Note_on_c, 3, 53, 0
5, 125730, Note_on_c, 3, 56, 0
5, 125760, Note_on_c, 3, 46, 65
5, 125760, Note_on_c, 3, 58, 65
5, 126450, Note_on_c, 3, 58, 0
5, 126480, Note_on_c, 3, 56, 65
5, 126690, Note_on_c, 3, 46, 0
5, 126690, Note_on_c, 3, 56, 0
5, 126720, Note_on_c, 3, 48, 65
5, 126720, Note_on_c, 3, 55, 65
5, 126960, Note_on_c, 3, 61, 65
5, 126990, Note_on_c, 3, 55, 0
5, 127200, Note_on_c, 3, 60, 65
5, 127230, Note_on_c, 3, 61, 0
5, 127440, Note_on_c, 3, 58, 65
5, 127470, Note_on_c, 3, 60, 0
5, 127650, Note_on_c, 3, 48, 0
5, 127650, Note_on_c, 3, 58, 0
5, 127680, Note_on_c, 3, 53, 65
5, 127680, Note_on_c, 3, 56, 65
5, 127920, Note_on_c, 3, 53, 0
5, 127920, Note_on_c, 3, 56, 0
5, 128880, Note_on_c, 3, 46, 65
5, 128880, Note_on_c, 3, 58, 65
5, 129360, Note_on_c, 3, 48, 40
5, 129360, Note_on_c, 3, 60, 40
5, 129390, Note_on_c, 3, 46, 0
5, 129390, Note_on_c, 3, 58, 0
5, 129480, Note_on_c, 3, 50, 40
5, 129480, Note_on_c, 3, 62, 40
5, 129510, Note_on_c, 3, 48, 0
5, 129510, Note_on_c, 3, 60, 0
5, 129570, Note_on_c, 3, 50, 0
5, 129570, Note_on_c, 3, 62, 0
5, 129600, Note_on_c, 3, 51, 40
5, 129600, Note_on_c, 3, 63, 40
5, 129840, Note_on_c, 3, 51, 0
5, 129840, Note_on_c, 3, 63, 0
5, 130080, Note_on_c, 3, 51, 40
5, 130080, Note_on_c, 3, 63, 40
5, 131010, Note_on_c, 3, 51, 0
5, 131010, Note_on_c, 3, 63, 0
5, 131040, Note_on_c, 3, 50, 40
5, 131040, Note_on_c, 3, 62, 40
5, 131730, Note_on_c, 3, 50, 0
5, 131730, Note_on_c, 3, 62, 0
5, 131760, Note_on_c, 3, 51, 40
5, 131760, Note_on_c, 3, 63, 40
5, 131850, Note_on_c, 3, 51, 0
5, 131850, Note_on_c, 3, 63, 0
5, 132000, Note_on_c, 3, 53, 40
5, 132000, Note_on_c, 3, 65, 40
5, 132960, Note_on_c, 3, 51, 40
5, 132960, Note_on_c, 3, 63, 40
5, 132990, Note_on_c, 3, 53, 0
5, 132990, Note_on_c, 3, 65, 0
5, 133200, Note_on_c, 3, 51, 0
5, 133200, Note_on_c, 3, 63, 0
5, 133920, Note_on_c, 3, 67, 40
5, 134490, Note_on_c, 3, 67, 0
5, 134520, Note_on_c, 3, 65, 65
5, 134580, Note_on_c, 3, 65, 0
5, 134640, Note_on_c, 3, 63, 65
5, 134640, Note_on_c, 3, 67, 65
5, 134700, Note_on_c, 3, 63, 0
5, 134700, Note_on_c, 3, 67, 0
5, 134760, Note_on_c, 3, 62, 65
5, 134760, Note_on_c, 3, 65, 65
5, 134820, Note_on_c, 3, 62, 0
5, 134820, Note_on_c, 3, 65, 0
5, 134880, Note_on_c, 3, 60, 65
5, 134880, Note_on_c, 3, 63, 65
5, 134940, Note_on_c, 3, 60, 0
5, 134940, Note_on_c, 3, 63, 0
5, 135000, Note_on_c, 3, 58, 65
5, 135000, Note_on_c, 3, 62, 65
5, 135060, Note_on_c, 3, 58, 0
5, 135060, Note_on_c, 3, 62, 0
5, 135120, Note_on_c, 3, 56, 65
5, 135120, Note_on_c, 3, 60, 65
5, 135180, Note_on_c, 3, 56, 0
5, 135180, Note_on_c, 3, 60, 0
5, 135240, Note_on_c, 3, 55, 65
5, 135240, Note_on_c, 3, 58, 65
5, 135300, Note_on_c, 3, 55, 0
5, 135300, Note_on_c, 3, 58, 0
5, 135360, Note_on_c, 3, 53, 65
5, 135360, Note_on_c, 3, 56, 65
5, 135600, Note_on_c, 3, 53, 0
5, 135600, Note_on_c, 3, 56, 0
5, 136440, Note_on_c, 3, 65, 65
5, 136500, Note_on_c, 3, 65, 0
5, 136560, Note_on_c, 3, 65, 65
5, 136620, Note_on_c, 3, 65, 0
5, 136680, Note_on_c, 3, 63, 65
5, 136680, Note_on_c, 3, 67, 65
5, 136740, Note_on_c, 3, 63, 0
5, 136740, Note_on_c, 3, 67, 0
5, 136800, Note_on_c, 3, 62, 65
5, 136800, Note_on_c, 3, 65, 65
5, 136860, Note_on_c, 3, 62, 0
5, 136860, Note_on_c, 3, 65, 0
5, 136920, Note_on_c, 3, 60, 65
5, 136920, Note_on_c, 3, 63, 65
5, 136980, Note_on_c, 3, 60, 0
5, 136980, Note_on_c, 3, 63, 0
5, 137040, Note_on_c, 3, 59, 65
5, 137040, Note_on_c, 3, 62, 65
5, 137100, Note_on_c, 3, 59, 0
5, 137100, Note_on_c, 3, 62, 0
5, 137160, Note_on_c, 3, 57, 65
5, 137160, Note_on_c, 3, 60, 65
5, 137220, Note_on_c, 3, 57, 0
5, 137220, Note_on_c, 3, 60, 0
5, 137280, Note_on_c, 3, 55, 65
5, 137280, Note_on_c, 3, 59, 65
5, 137520, Note_on_c, 3, 55, 0
5, 137520, Note_on_c, 3, 59, 0
5, 137880, Note_on_c, 3, 59, 65
5, 137880, Note_on_c, 3, 62, 65
5, 137940, Note_on_c, 3, 59, 0
5, 137940, Note_on_c, 3, 62, 0
5, 138000, Note_on_c, 3, 57, 65
5, 138000, Note_on_c, 3, 60, 65
5, 138060, Note_on_c, 3, 57, 0
5, 138060, Note_on_c, 3, 60, 0
5, 138120, Note_on_c, 3, 55, 65
5, 138120, Note_on_c, 3, 59, 65
5, 138180, Note_on_c, 3, 55, 0
5, 138180, Note_on_c, 3, 59, 0
5, 138240, Note_on_c, 3, 55, 65
5, 138240, Note_on_c, 3, 60, 65
5, 138450, Note_on_c, 3, 55, 0
5, 138450, Note_on_c, 3, 60, 0
5, 138480, Note_on_c, 3, 55, 65
5, 138480, Note_on_c, 3, 61, 65
5, 138930, Note_on_c, 3, 55, 0
5, 138930, Note_on_c, 3, 61, 0
5, 138960, Note_on_c, 3, 55, 65
5, 139170, Note_on_c, 3, 55, 0
5, 139200, Note_on_c, 3, 50, 65
5, 139200, Note_on_c, 3, 62, 65
5, 139440, Note_on_c, 3, 50, 0
5, 139440, Note_on_c, 3, 62, 0
5, 139680, Note_on_c, 3, 62, 65
5, 140160, Note_on_c, 3, 63, 65
5, 140610, Note_on_c, 3, 62, 0
5, 140640, Note_on_c, 3, 60, 65
5, 141090, Note_on_c, 3, 63, 0
5, 141120, Note_on_c, 3, 62, 65
5, 141570, Note_on_c, 3, 60, 0
5, 141600, Note_on_c, 3, 58, 65
5, 142050, Note_on_c, 3, 62, 0
5, 142080, Note_on_c, 3, 60, 65
5, 142530, Note_on_c, 3, 58, 0
5, 142560, Note_on_c, 3, 57, 65
5, 143250, Note_on_c, 3, 57, 0
5, 143250, Note_on_c, 3, 60, 0
5, 143280, Note_on_c, 3, 55, 65
5, 143280, Note_on_c, 3, 58, 65
5, 143490, Note_on_c, 3, 55, 0
5, 143490, Note_on_c, 3, 58, 0
5, 143520, Note_on_c, 3, 55, 65
5, 143520, Note_on_c, 3, 58, 65
5, 143730, Note_on_c, 3, 55, 0
5, 143730, Note_on_c, 3, 58, 0
5, 143760, Note_on_c, 3, 55, 65
5, 143760, Note_on_c, 3, 61, 65
5, 143880, Note_on_c, 3, 62, 65
5, 143910, Note_on_c, 3, 61, 0
5, 143970, Note_on_c, 3, 55, 0
5, 143970, Note_on_c, 3, 62, 0
5, 144000, Note_on_c, 3, 55, 65
5, 144000, Note_on_c, 3, 64, 65
5, 144090, Note_on_c, 3, 55, 0
5, 144090, Note_on_c, 3, 64, 0
5, 147360, Note_on_c, 3, 62, 40
5, 147840, Note_on_c, 3, 55, 40
5, 148080, Note_on_c, 3, 55, 0
5, 148080, Note_on_c, 3, 62, 0
5, 159360, Note_on_c, 3, 62, 55
5, 159360, Note_on_c, 3, 65, 55
5, 160530, Note_on_c, 3, 62, 0
5, 160530, Note_on_c, 3, 65, 0
5, 160560, Note_on_c, 3, 62, 55
5, 160560, Note_on_c, 3, 65, 55
5, 160770, Note_on_c, 3, 62, 0
5, 160770, Note_on_c, 3, 65, 0
5, 160800, Note_on_c, 3, 62, 55
5, 160800, Note_on_c, 3, 65, 55
5, 161010, Note_on_c, 3, 62, 0
5, 161010, Note_on_c, 3, 65, 0
5, 161040, Note_on_c, 3, 62, 55
5, 161040, Note_on_c, 3, 65, 55
5, 161250, Note_on_c, 3, 62, 0
5, 161250, Note_on_c, 3, 65, 0
5, 161280, Note_on_c, 3, 62, 55
5, 161280, Note_on_c, 3, 65, 55
5, 161520, Note_on_c, 3, 62, 0
5, 161520, Note_on_c, 3, 65, 0
5, 164400, Note_on_c, 3, 56, 40
5, 164640, Note_on_c, 3, 55, 40
5, 164670, Note_on_c, 3, 56, 0
5, 164880, Note_on_c, 3, 59, 40
5, 164910, Note_on_c, 3, 55, 0
5, 165090, Note_on_c, 3, 59, 0
5, 165120, Note_on_c, 3, 55, 40
5, 165360, Note_on_c, 3, 62, 50
5, 165390, Note_on_c, 3, 55, 0
5, 165600, Note_on_c, 3, 55, 40
5, 165630, Note_on_c, 3, 62, 0
5, 165840, Note_on_c, 3, 67, 50
5, 165870, Note_on_c, 3, 55, 0
5, 166050, Note_on_c, 3, 67, 0
5, 166080, Note_on_c, 3, 55, 40
5, 166320, Note_on_c, 3, 56, 50
5, 166320, Note_on_c, 3, 60, 50
5, 166350, Note_on_c, 3, 55, 0
5, 166470, Note_on_c, 3, 60, 0
5, 166500, Note_on_c, 3, 60, 40
5, 166545, Note_on_c, 3, 60, 0
5, 166560, Note_on_c, 3, 55, 40
5, 166560, Note_on_c, 3, 60, 40
5, 166590, Note_on_c, 3, 56, 0
5, 166770, Note_on_c, 3, 60, 0
5, 166800, Note_on_c, 3, 60, 50
5, 166830, Note_on_c, 3, 55, 0
5, 167010, Note_on_c, 3, 60, 0
5, 167040, Note_on_c, 3, 55, 40
5, 167280, Note_on_c, 3, 60, 50
5, 167280, Note_on_c, 3, 63, 50
5, 167310, Note_on_c, 3, 55, 0
5, 167430, Note_on_c, 3, 60, 0
5, 167460, Note_on_c, 3, 60, 40
5, 167505, Note_on_c, 3, 60, 0
5, 167520, Note_on_c, 3, 55, 40
5, 167520, Note_on_c, 3, 60, 40
5, 167550, Note_on_c, 3, 63, 0
5, 167730, Note_on_c, 3, 60, 0
5, 167760, Note_on_c, 3, 60, 50
5, 167760, Note_on_c, 3, 67, 50
5, 167790, Note_on_c, 3, 55, 0
5, 167970, Note_on_c, 3, 60, 0
5, 167970, Note_on_c, 3, 67, 0
5, 168000, Note_on_c, 3, 55, 40
5, 168240, Note_on_c, 3, 56, 50
5, 168240, Note_on_c, 3, 60, 50
5, 168270, Note_on_c, 3, 55, 0
5, 168390, Note_on_c, 3, 60, 0
5, 168420, Note_on_c, 3, 60, 40
5, 168465, Note_on_c, 3, 60, 0
5, 168480, Note_on_c, 3, 55, 40
5, 168480, Note_on_c, 3, 60, 40
5, 168510, Note_on_c, 3, 56, 0
5, 168690, Note_on_c, 3, 60, 0
5, 168720, Note_on_c, 3, 60, 50
5, 168750, Note_on_c, 3, 55, 0
5, 168930, Note_on_c, 3, 60, 0
5, 168960, Note_on_c, 3, 55, 40
5, 169200, Note_on_c, 3, 60, 50
5, 169200, Note_on_c, 3, 63, 50
5, 169230, Note_on_c, 3, 55, 0
5, 169350, Note_on_c, 3, 60, 0
5, 169380, Note_on_c, 3, 60, 40
5, 169425, Note_on_c, 3, 60, 0
5, 169440, Note_on_c, 3, 55, 40
5, 169440, Note_on_c, 3, 59, 40
5, 169470, Note_on_c, 3, 63, 0
5, 169650, Note_on_c, 3, 59, 0
5, 169680, Note_on_c, 3, 59, 50
5, 169680, Note_on_c, 3, 67, 50
5, 169710, Note_on_c, 3, 55, 0
5, 169890, Note_on_c, 3, 59, 0
5, 169890, Note_on_c, 3, 67, 0
5, 170160, Note_on_c, 3, 59, 40
5, 170160, Note_on_c, 3, 62, 40
5, 170310, Note_on_c, 3, 59, 0
5, 170310, Note_on_c, 3, 62, 0
5, 170340, Note_on_c, 3, 59, 40
5, 170340, Note_on_c, 3, 62, 40
5, 170385, Note_on_c, 3, 59, 0
5, 170385, Note_on_c, 3, 62, 0
5, 170400, Note_on_c, 3, 59, 40
5, 170400, Note_on_c, 3, 62, 40
5, 170610, Note_on_c, 3, 59, 0
5, 170610, Note_on_c, 3, 62, 0
5, 170640, Note_on_c, 3, 59, 40
5, 170640, Note_on_c, 3, 62, 40
5, 170850, Note_on_c, 3, 59, 0
5, 170850, Note_on_c, 3, 62, 0
5, 170880, Control_c, 3, 11, 80
5, 170910, Control_c, 3, 11, 81
5, 170930, Control_c, 3, 11, 82
5, 170950, Control_c, 3, 11, 83
5, 170970, Control_c, 3, 11, 84
5, 170990, Control_c, 3, 11, 85
5, 171010, Control_c, 3, 11, 86
5, 171030, Control_c, 3, 11, 87
5, 171050, Control_c, 3, 11, 88
5, 171070, Control_c, 3, 11, 89
5, 171090, Control_c, 3, 11, 90
5, 171110, Control_c, 3, 11, 91
5, 171120, Note_on_c, 3, 59, 40
5, 171120, Note_on_c, 3, 62, 40
5, 171130, Control_c, 3, 11, 92
5, 171150, Control_c, 3, 11, 93
5, 171170, Control_c, 3, 11, 94
5, 171190, Control_c, 3, 11, 95
5, 171210, Control_c, 3, 11, 96
5, 171230, Control_c, 3, 11, 97
5, 171250, Control_c, 3, 11, 98
5, 171270, Note_on_c, 3, 59, 0
5, 171270, Note_on_c, 3, 62, 0
5, 171270, Control_c, 3, 11, 99
5, 171290, Control_c, 3, 11, 100
5, 171300, Note_on_c, 3, 59, 40
5, 171300, Note_on_c, 3, 62, 40
5, 171310, Control_c, 3, 11, 101
5, 171330, Control_c, 3, 11, 102
5, 171345, Note_on_c, 3, 59, 0
5, 171345, Note_on_c, 3, 62, 0
5, 171350, Control_c, 3, 11, 103
5, 171360, Note_on_c, 3, 59, 40
5, 171360, Note_on_c, 3, 62, 40
5, 171380, Control_c, 3, 11, 104
5, 171400, Control_c, 3, 11, 105
5, 171420, Control_c, 3, 11, 106
5, 171440, Control_c, 3, 11, 107
5, 171460, Control_c, 3, 11, 108
5, 171480, Control_c, 3, 11, 109
5, 171500, Control_c, 3, 11, 110
5, 171520, Control_c, 3, 11, 111
5, 171540, Control_c, 3, 11, 112
5, 171560, Control_c, 3, 11, 113
5, 171570, Note_on_c, 3, 59, 0
5, 171570, Note_on_c, 3, 62, 0
5, 171580, Control_c, 3, 11, 114
5, 171600, Note_on_c, 3, 59, 40
5, 171600, Note_on_c, 3, 62, 40
5, 171600, Control_c, 3, 11, 115
5, 171620, Control_c, 3, 11, 116
5, 171640, Control_c, 3, 11, 117
5, 171660, Control_c, 3, 11, 118
5, 171680, Control_c, 3, 11, 119
5, 171700, Control_c, 3, 11, 120
5, 171720, Control_c, 3, 11, 121
5, 171740, Control_c, 3, 11, 122
5, 171760, Control_c, 3, 11, 123
5, 171780, Control_c, 3, 11, 124
5, 171800, Control_c, 3, 11, 125
5, 171810, Note_on_c, 3, 59, 0
5, 171810, Note_on_c, 3, 62, 0
5, 171820, Control_c, 3, 11, 126
5, 171840, Note_on_c, 3, 58, 40
5, 171840, Note_on_c, 3, 62, 40
5, 171840, Control_c, 3, 11, 127
5, 171860, Control_c, 3, 11, 126
5, 171880, Control_c, 3, 11, 125
5, 171900, Control_c, 3, 11, 124
5, 171920, Control_c, 3, 11, 123
5, 171940, Control_c, 3, 11, 122
5, 171960, Control_c, 3, 11, 121
5, 171980, Control_c, 3, 11, 120
5, 172000, Control_c, 3, 11, 119
5, 172020, Control_c, 3, 11, 118
5, 172040, Control_c, 3, 11, 117
5, 172050, Note_on_c, 3, 58, 0
5, 172050, Note_on_c, 3, 62, 0
5, 172060, Control_c, 3, 11, 116
5, 172080, Note_on_c, 3, 50, 40
5, 172080, Note_on_c, 3, 53, 40
5, 172080, Control_c, 3, 11, 115
5, 172100, Control_c, 3, 11, 114
5, 172120, Control_c, 3, 11, 113
5, 172140, Control_c, 3, 11, 112
5, 172160, Control_c, 3, 11, 111
5, 172180, Control_c, 3, 11, 110
5, 172200, Control_c, 3, 11, 109
5, 172220, Control_c, 3, 11, 108
5, 172240, Control_c, 3, 11, 107
5, 172260, Control_c, 3, 11, 106
5, 172280, Control_c, 3, 11, 105
5, 172300, Control_c, 3, 11, 104
5, 172320, Note_on_c, 3, 51, 40
5, 172320, Note_on_c, 3, 55, 40
5, 172320, Control_c, 3, 11, 103
5, 172340, Control_c, 3, 11, 102
5, 172350, Note_on_c, 3, 50, 0
5, 172350, Note_on_c, 3, 53, 0
5, 172360, Control_c, 3, 11, 101
5, 172380, Control_c, 3, 11, 100
5, 172400, Control_c, 3, 11, 99
5, 172420, Control_c, 3, 11, 98
5, 172440, Control_c, 3, 11, 97
5, 172460, Control_c, 3, 11, 96
5, 172480, Control_c, 3, 11, 95
5, 172500, Control_c, 3, 11, 94
5, 172520, Control_c, 3, 11, 93
5, 172540, Control_c, 3, 11, 92
5, 172560, Note_on_c, 3, 53, 40
5, 172560, Note_on_c, 3, 56, 40
5, 172560, Control_c, 3, 11, 91
5, 172580, Control_c, 3, 11, 90
5, 172590, Note_on_c, 3, 51, 0
5, 172590, Note_on_c, 3, 55, 0
5, 172600, Control_c, 3, 11, 89
5, 172620, Control_c, 3, 11, 88
5, 172640, Control_c, 3, 11, 87
5, 172660, Control_c, 3, 11, 86
5, 172680, Control_c, 3, 11, 85
5, 172700, Control_c, 3, 11, 84
5, 172720, Control_c, 3, 11, 83
5, 172740, Control_c, 3, 11, 82
5, 172760, Control_c, 3, 11, 81
5, 172770, Note_on_c, 3, 53, 0
5, 172770, Note_on_c, 3, 56, 0
5, 172780, Control_c, 3, 11, 80
5, 172800, Note_on_c, 3, 51, 40
5, 172800, Note_on_c, 3, 55, 40
5, 173010, Note_on_c, 3, 51, 0
5, 173010, Note_on_c, 3, 55, 0
5, 173040, Note_on_c, 3, 56, 40
5, 173040, Note_on_c, 3, 60, 40
5, 173190, Note_on_c, 3, 56, 0
5, 173190, Note_on_c, 3, 60, 0
5, 173220, Note_on_c, 3, 56, 40
5, 173220, Note_on_c, 3, 60, 40
5, 173265, Note_on_c, 3, 56, 0
5, 173265, Note_on_c, 3, 60, 0
5, 173280, Note_on_c, 3, 51, 40
5, 173280, Note_on_c, 3, 58, 40
5, 173520, Note_on_c, 3, 51, 0
5, 173520, Note_on_c, 3, 58, 0
5, 177600, Note_on_c, 3, 52, 40
5, 177600, Note_on_c, 3, 60, 40
5, 178050, Note_on_c, 3, 60, 0
5, 178080, Note_on_c, 3, 53, 40
5, 178080, Note_on_c, 3, 60, 40
5, 178110, Note_on_c, 3, 52, 0
5, 178290, Note_on_c, 3, 60, 0
5, 178320, Note_on_c, 3, 55, 40
5, 178320, Note_on_c, 3, 60, 40
5, 178350, Note_on_c, 3, 53, 0
5, 178530, Note_on_c, 3, 55, 0
5, 178530, Note_on_c, 3, 60, 0
5, 178560, Note_on_c, 3, 56, 40
5, 178560, Note_on_c, 3, 60, 40
5, 179010, Note_on_c, 3, 56, 0
5, 179010, Note_on_c, 3, 60, 0
5, 179040, Note_on_c, 3, 44, 40
5, 179040, Note_on_c, 3, 56, 40
5, 179040, Control_c, 3, 11, 80
5, 179050, Control_c, 3, 11, 83
5, 179060, Control_c, 3, 11, 87
5, 179070, Control_c, 3, 11, 91
5, 179080, Control_c, 3, 11, 95
5, 179090, Control_c, 3, 11, 99
5, 179100, Control_c, 3, 11, 103
5, 179110, Control_c, 3, 11, 107
5, 179120, Control_c, 3, 11, 111
5, 179140, Control_c, 3, 11, 115
5, 179160, Control_c, 3, 11, 114
5, 179170, Control_c, 3, 11, 113
5, 179180, Control_c, 3, 11, 112
5, 179190, Control_c, 3, 11, 111
5, 179200, Control_c, 3, 11, 110
5, 179210, Control_c, 3, 11, 109
5, 179220, Control_c, 3, 11, 108
5, 179230, Control_c, 3, 11, 107
5, 179240, Control_c, 3, 11, 106
5, 179250, Control_c, 3, 11, 105
5, 179260, Control_c, 3, 11, 104
5, 179270, Control_c, 3, 11, 103
5, 179280, Control_c, 3, 11, 102
5, 179290, Control_c, 3, 11, 101
5, 179300, Control_c, 3, 11, 100
5, 179310, Control_c, 3, 11, 99
5, 179320, Control_c, 3, 11, 98
5, 179330, Control_c, 3, 11, 97
5, 179340, Control_c, 3, 11, 96
5, 179350, Control_c, 3, 11, 95
5, 179360, Control_c, 3, 11, 94
5, 179370, Control_c, 3, 11, 93
5, 179380, Control_c, 3, 11, 92
5, 179390, Control_c, 3, 11, 91
5, 179400, Control_c, 3, 11, 90
5, 179410, Control_c, 3, 11, 89
5, 179420, Control_c, 3, 11, 88
5, 179430, Control_c, 3, 11, 87
5, 179440, Control_c, 3, 11, 86
5, 179450, Control_c, 3, 11, 85
5, 179460, Control_c, 3, 11, 84
5, 179470, Control_c, 3, 11, 83
5, 179480, Control_c, 3, 11, 82
5, 179490, Note_on_c, 3, 44, 0
5, 179490, Note_on_c, 3, 56, 0
5, 179490, Control_c, 3, 11, 81
5, 179500, Control_c, 3, 11, 80
5, 179520, Note_on_c, 3, 43, 40
5, 179520, Note_on_c, 3, 55, 40
5, 179760, Note_on_c, 3, 43, 0
5, 179760, Note_on_c, 3, 55, 0
5, 180480, Note_on_c, 3, 60, 45
5, 180960, Note_on_c, 3, 59, 45
5, 180990, Note_on_c, 3, 60, 0
5, 181200, Note_on_c, 3, 60, 45
5, 181230, Note_on_c, 3, 59, 0
5, 181410, Note_on_c, 3, 60, 0
5, 181440, Note_on_c, 3, 55, 45
5, 181440, Note_on_c, 3, 59, 45
5, 181440, Control_c, 3, 11, 80
5, 181470, Control_c, 3, 11, 81
5, 181500, Control_c, 3, 11, 82
5, 181530, Control_c, 3, 11, 83
5, 181550, Control_c, 3, 11, 84
5, 181580, Control_c, 3, 11, 85
5, 181610, Control_c, 3, 11, 86
5, 181640, Control_c, 3, 11, 87
5, 181660, Control_c, 3, 11, 88
5, 181690, Control_c, 3, 11, 89
5, 181720, Control_c, 3, 11, 90
5, 181750, Control_c, 3, 11, 91
5, 181770, Control_c, 3, 11, 92
5, 181800, Control_c, 3, 11, 93
5, 181830, Control_c, 3, 11, 94
5, 181860, Control_c, 3, 11, 95
5, 181880, Control_c, 3, 11, 96
5, 181910, Control_c, 3, 11, 97
5, 181940, Control_c, 3, 11, 98
5, 181970, Control_c, 3, 11, 99
5, 181990, Control_c, 3, 11, 100
5, 182020, Control_c, 3, 11, 101
5, 182050, Control_c, 3, 11, 102
5, 182080, Control_c, 3, 11, 103
5, 182100, Control_c, 3, 11, 104
5, 182130, Control_c, 3, 11, 105
5, 182160, Note_on_c, 3, 62, 45
5, 182160, Note_on_c, 3, 65, 45
5, 182160, Control_c, 3, 11, 106
5, 182190, Note_on_c, 3, 55, 0
5, 182190, Note_on_c, 3, 59, 0
5, 182190, Control_c, 3, 11, 107
5, 182210, Control_c, 3, 11, 108
5, 182240, Control_c, 3, 11, 109
5, 182270, Control_c, 3, 11, 110
5, 182300, Control_c, 3, 11, 111
5, 182320, Control_c, 3, 11, 112
5, 182350, Control_c, 3, 11, 113
5, 182380, Control_c, 3, 11, 114
5, 182400, Note_on_c, 3, 60, 45
5, 182400, Note_on_c, 3, 63, 45
5, 182400, Control_c, 3, 11, 115
5, 182430, Note_on_c, 3, 62, 0
5, 182430, Note_on_c, 3, 65, 0
5, 182430, Control_c, 3, 11, 114
5, 182460, Control_c, 3, 11, 113
5, 182480, Control_c, 3, 11, 112
5, 182510, Control_c, 3, 11, 111
5, 182540, Control_c, 3, 11, 110
5, 182560, Control_c, 3, 11, 109
5, 182590, Control_c, 3, 11, 108
5, 182620, Control_c, 3, 11, 107
5, 182640, Control_c, 3, 11, 106
5, 182670, Control_c, 3, 11, 105
5, 182700, Control_c, 3, 11, 104
5, 182720, Control_c, 3, 11, 103
5, 182750, Control_c, 3, 11, 102
5, 182780, Control_c, 3, 11, 101
5, 182800, Control_c, 3, 11, 100
5, 182830, Control_c, 3, 11, 99
5, 182860, Control_c, 3, 11, 98
5, 182880, Note_on_c, 3, 58, 45
5, 182880, Note_on_c, 3, 62, 45
5, 182880, Control_c, 3, 11, 97
5, 182910, Note_on_c, 3, 60, 0
5, 182910, Note_on_c, 3, 63, 0
5, 182910, Control_c, 3, 11, 96
5, 182940, Control_c, 3, 11, 95
5, 182960, Control_c, 3, 11, 94
5, 182990, Control_c, 3, 11, 93
5, 183020, Control_c, 3, 11, 92
5, 183040, Control_c, 3, 11, 91
5, 183070, Control_c, 3, 11, 90
5, 183100, Control_c, 3, 11, 89
5, 183120, Note_on_c, 3, 56, 45
5, 183120, Note_on_c, 3, 60, 45
5, 183120, Control_c, 3, 11, 88
5, 183150, Note_on_c, 3, 58, 0
5, 183150, Note_on_c, 3, 62, 0
5, 183150, Control_c, 3, 11, 87
5, 183180, Control_c, 3, 11, 86
5, 183200, Control_c, 3, 11, 85
5, 183230, Control_c, 3, 11, 84
5, 183260, Control_c, 3, 11, 83
5, 183280, Control_c, 3, 11, 82
5, 183310, Control_c, 3, 11, 81
5, 183340, Control_c, 3, 11, 80
5, 183360, Note_on_c, 3, 55, 45
5, 183360, Note_on_c, 3, 56, 0
5, 183360, Note_on_c, 3, 59, 45
5, 183360, Note_on_c, 3, 60, 0
5, 183600, Note_on_c, 3, 55, 0
5, 183600, Note_on_c, 3, 59, 0
5, 185400, Note_on_c, 3, 62, 46
5, 185520, Note_on_c, 3, 62, 0
5, 185520, Note_on_c, 3, 63, 47
5, 185640, Note_on_c, 3, 62, 48
5, 185640, Note_on_c, 3, 63, 0
5, 185760, Note_on_c, 3, 62, 0
5, 185760, Note_on_c, 3, 63, 49
5, 185880, Note_on_c, 3, 63, 0
5, 185880, Note_on_c, 3, 64, 50
5, 186000, Note_on_c, 3, 64, 0
5, 186000, Note_on_c, 3, 65, 51
5, 186120, Note_on_c, 3, 65, 0
5, 186120, Note_on_c, 3, 66, 52
5, 186240, Note_on_c, 3, 66, 0
5, 186240, Note_on_c, 3, 67, 53
5, 186720, Note_on_c, 3, 48, 65
5, 186930, Note_on_c, 3, 67, 0
5, 186960, Note_on_c, 3, 58, 59
5, 187170, Note_on_c, 3, 48, 0
5, 187170, Note_on_c, 3, 58, 0
5, 187200, Note_on_c, 3, 53, 45
5, 187200, Note_on_c, 3, 56, 45
5, 187410, Note_on_c, 3, 53, 0
5, 187410, Note_on_c, 3, 56, 0
5, 187440, Note_on_c, 3, 53, 45
5, 187440, Note_on_c, 3, 60, 45
5, 187601, Note_on_c, 3, 53, 0
5, 187601, Note_on_c, 3, 60, 0
5, 187620, Note_on_c, 3, 53, 45
5, 187620, Note_on_c, 3, 60, 45
5, 187661, Note_on_c, 3, 53, 0
5, 187661, Note_on_c, 3, 60, 0
5, 187680, Note_on_c, 3, 53, 45
5, 187680, Note_on_c, 3, 60, 45
5, 187890, Note_on_c, 3, 53, 0
5, 187890, Note_on_c, 3, 60, 0
5, 187920, Note_on_c, 3, 53, 45
5, 187920, Note_on_c, 3, 60, 45
5, 188130, Note_on_c, 3, 53, 0
5, 188130, Note_on_c, 3, 60, 0
5, 188400, Note_on_c, 3, 61, 45
5, 188561, Note_on_c, 3, 61, 0
5, 188580, Note_on_c, 3, 61, 45
5, 188621, Note_on_c, 3, 61, 0
5, 188640, Note_on_c, 3, 61, 45
5, 188850, Note_on_c, 3, 61, 0
5, 188880, Note_on_c, 3, 61, 45
5, 189090, Note_on_c, 3, 61, 0
5, 189360, Note_on_c, 3, 62, 49
5, 189360, Note_on_c, 3, 65, 49
5, 189521, Note_on_c, 3, 62, 0
5, 189521, Note_on_c, 3, 65, 0
5, 189540, Note_on_c, 3, 62, 52
5, 189540, Note_on_c, 3, 65, 52
5, 189581, Note_on_c, 3, 62, 0
5, 189581, Note_on_c, 3, 65, 0
5, 189600, Note_on_c, 3, 62, 54
5, 189600, Note_on_c, 3, 65, 54
5, 189810, Note_on_c, 3, 62, 0
5, 189810, Note_on_c, 3, 65, 0
5, 189840, Note_on_c, 3, 53, 58
5, 189840, Note_on_c, 3, 65, 58
5, 190050, Note_on_c, 3, 53, 0
5, 190050, Note_on_c, 3, 65, 0
5, 190080, Note_on_c, 3, 51, 75
5, 190080, Note_on_c, 3, 63, 75
5, 190170, Note_on_c, 3, 51, 0
5, 190170, Note_on_c, 3, 63, 0
5, 190320, Note_on_c, 3, 53, 75
5, 190320, Note_on_c, 3, 60, 75
5, 190410, Note_on_c, 3, 53, 0
5, 190410, Note_on_c, 3, 60, 0
5, 190800, Note_on_c, 3, 56, 45
5, 190800, Note_on_c, 3, 60, 45
5, 191250, Note_on_c, 3, 56, 0
5, 191250, Note_on_c, 3, 60, 0
5, 191280, Note_on_c, 3, 55, 44
5, 191280, Note_on_c, 3, 63, 44
5, 191520, Note_on_c, 3, 62, 43
5, 191550, Note_on_c, 3, 63, 0
5, 191730, Note_on_c, 3, 55, 0
5, 191730, Note_on_c, 3, 62, 0
5, 191760, Note_on_c, 3, 55, 42
5, 191760, Note_on_c, 3, 62, 42
5, 191940, Note_on_c, 3, 59, 41
5, 191955, Note_on_c, 3, 62, 0
5, 191970, Note_on_c, 3, 55, 0
5, 191985, Note_on_c, 3, 59, 0
5, 192000, Note_on_c, 3, 48, 40
5, 192000, Note_on_c, 3, 60, 40
5, 192210, Note_on_c, 3, 48, 0
5, 192210, Note_on_c, 3, 60, 0
5, 192240, Note_on_c, 3, 51, 40
5, 192480, Note_on_c, 3, 55, 40
5, 192510, Note_on_c, 3, 51, 0
5, 192720, Note_on_c, 3, 59, 40
5, 192750, Note_on_c, 3, 55, 0
5, 192930, Note_on_c, 3, 59, 0
5, 192960, Note_on_c, 3, 60, 40
5, 193200, Note_on_c, 3, 55, 40
5, 193230, Note_on_c, 3, 60, 0
5, 193440, Note_on_c, 3, 51, 40
5, 193470, Note_on_c, 3, 55, 0
5, 193680, Note_on_c, 3, 48, 40
5, 193710, Note_on_c, 3, 51, 0
5, 193890, Note_on_c, 3, 48, 0
5, 193920, Note_on_c, 3, 47, 40
5, 194160, Note_on_c, 3, 43, 40
5, 194190, Note_on_c, 3, 47, 0
5, 194400, Note_on_c, 3, 48, 40
5, 194430, Note_on_c, 3, 43, 0
5, 194640, Note_on_c, 3, 51, 40
5, 194670, Note_on_c, 3, 48, 0
5, 194850, Note_on_c, 3, 51, 0
5, 194880, Note_on_c, 3, 55, 40
5, 195360, Note_on_c, 3, 43, 40
5, 195390, Note_on_c, 3, 55, 0
5, 195600, Note_on_c, 3, 43, 0
5, 195780, Control_c, 3, 11, 110
5, 195840, Note_on_c, 3, 53, 40
5, 195840, Note_on_c, 3, 62, 40
5, 196290, Note_on_c, 3, 53, 0
5, 196290, Note_on_c, 3, 62, 0
5, 196320, Note_on_c, 3, 53, 40
5, 196320, Note_on_c, 3, 62, 40
5, 196710, Note_on_c, 3, 53, 0
5, 196710, Note_on_c, 3, 62, 0
5, 196740, Note_on_c, 3, 53, 40
5, 196740, Note_on_c, 3, 62, 40
5, 196785, Note_on_c, 3, 53, 0
5, 196785, Note_on_c, 3, 62, 0
5, 196800, Note_on_c, 3, 54, 40
5, 196800, Note_on_c, 3, 63, 40
5, 196850, Control_c, 3, 11, 109
5, 196870, Control_c, 3, 11, 108
5, 196890, Control_c, 3, 11, 108
5, 196910, Control_c, 3, 11, 107
5, 196930, Control_c, 3, 11, 106
5, 196950, Control_c, 3, 11, 106
5, 196970, Control_c, 3, 11, 105
5, 196990, Control_c, 3, 11, 105
5, 197010, Control_c, 3, 11, 104
5, 197030, Control_c, 3, 11, 103
5, 197050, Control_c, 3, 11, 103
5, 197070, Control_c, 3, 11, 102
5, 197090, Control_c, 3, 11, 101
5, 197110, Control_c, 3, 11, 101
5, 197130, Control_c, 3, 11, 100
5, 197150, Control_c, 3, 11, 100
5, 197170, Control_c, 3, 11, 99
5, 197190, Control_c, 3, 11, 98
5, 197210, Control_c, 3, 11, 98
5, 197230, Control_c, 3, 11, 97
5, 197250, Control_c, 3, 11, 96
5, 197270, Control_c, 3, 11, 96
5, 197300, Control_c, 3, 11, 95
5, 197320, Control_c, 3, 11, 94
5, 197340, Control_c, 3, 11, 94
5, 197360, Control_c, 3, 11, 93
5, 197380, Control_c, 3, 11, 92
5, 197400, Control_c, 3, 11, 92
5, 197420, Control_c, 3, 11, 91
5, 197440, Control_c, 3, 11, 90
5, 197460, Control_c, 3, 11, 90
5, 197480, Control_c, 3, 11, 89
5, 197500, Control_c, 3, 11, 89
5, 197520, Note_on_c, 3, 62, 40
5, 197520, Control_c, 3, 11, 88
5, 197540, Control_c, 3, 11, 87
5, 197550, Note_on_c, 3, 63, 0
5, 197560, Control_c, 3, 11, 87
5, 197580, Control_c, 3, 11, 86
5, 197600, Control_c, 3, 11, 85
5, 197620, Control_c, 3, 11, 85
5, 197640, Note_on_c, 3, 60, 40
5, 197640, Control_c, 3, 11, 84
5, 197660, Control_c, 3, 11, 84
5, 197670, Note_on_c, 3, 62, 0
5, 197680, Control_c, 3, 11, 83
5, 197700, Control_c, 3, 11, 82
5, 197720, Control_c, 3, 11, 81
5, 197730, Note_on_c, 3, 54, 0
5, 197730, Note_on_c, 3, 60, 0
5, 197740, Control_c, 3, 11, 80
5, 197760, Note_on_c, 3, 55, 40
5, 197760, Note_on_c, 3, 60, 40
5, 198240, Note_on_c, 3, 59, 40
5, 198270, Note_on_c, 3, 60, 0
5, 198690, Note_on_c, 3, 55, 0
5, 198690, Note_on_c, 3, 59, 0
5, 198720, Note_on_c, 3, 48, 40
5, 198720, Note_on_c, 3, 60, 40
5, 198960, Note_on_c, 3, 55, 40
5, 198960, Note_on_c, 3, 67, 40
5, 198990, Note_on_c, 3, 48, 0
5, 198990, Note_on_c, 3, 60, 0
5, 199200, Note_on_c, 3, 51, 40
5, 199200, Note_on_c, 3, 63, 40
5, 199230, Note_on_c, 3, 55, 0
5, 199230, Note_on_c, 3, 67, 0
5, 199440, Note_on_c, 3, 48, 40
5, 199440, Note_on_c, 3, 60, 40
5, 199470, Note_on_c, 3, 51, 0
5, 199470, Note_on_c, 3, 63, 0
5, 199650, Note_on_c, 3, 48, 0
5, 199650, Note_on_c, 3, 60, 0
5, 199680, Note_on_c, 3, 55, 40
5, 199680, Note_on_c, 3, 63, 40
5, 199680, Control_c, 3, 11, 80
5, 199710, Control_c, 3, 11, 81
5, 199740, Control_c, 3, 11, 82
5, 199770, Control_c, 3, 11, 83
5, 199790, Control_c, 3, 11, 84
5, 199820, Control_c, 3, 11, 85
5, 199850, Control_c, 3, 11, 86
5, 199880, Control_c, 3, 11, 87
5, 199900, Control_c, 3, 11, 88
5, 199930, Control_c, 3, 11, 89
5, 199960, Control_c, 3, 11, 90
5, 199990, Control_c, 3, 11, 91
5, 200010, Control_c, 3, 11, 92
5, 200040, Control_c, 3, 11, 93
5, 200070, Control_c, 3, 11, 94
5, 200100, Control_c, 3, 11, 95
5, 200120, Control_c, 3, 11, 96
5, 200130, Note_on_c, 3, 55, 0
5, 200150, Control_c, 3, 11, 97
5, 200160, Note_on_c, 3, 55, 40
5, 200160, Note_on_c, 3, 62, 40
5, 200180, Control_c, 3, 11, 98
5, 200190, Note_on_c, 3, 63, 0
5, 200210, Control_c, 3, 11, 99
5, 200230, Control_c, 3, 11, 100
5, 200260, Control_c, 3, 11, 101
5, 200290, Control_c, 3, 11, 102
5, 200320, Control_c, 3, 11, 103
5, 200340, Control_c, 3, 11, 104
5, 200370, Control_c, 3, 11, 105
5, 200400, Control_c, 3, 11, 106
5, 200430, Control_c, 3, 11, 107
5, 200450, Control_c, 3, 11, 108
5, 200480, Control_c, 3, 11, 109
5, 200510, Control_c, 3, 11, 110
5, 200540, Control_c, 3, 11, 111
5, 200560, Control_c, 3, 11, 112
5, 200580, Note_on_c, 3, 60, 40
5, 200590, Control_c, 3, 11, 113
5, 200595, Note_on_c, 3, 62, 0
5, 200610, Note_on_c, 3, 55, 0
5, 200620, Control_c, 3, 11, 115
5, 200625, Note_on_c, 3, 60, 0
5, 200640, Note_on_c, 3, 56, 40
5, 200640, Note_on_c, 3, 60, 40
5, 200880, Note_on_c, 3, 56, 0
5, 200880, Note_on_c, 3, 60, 0
5, 201540, Control_c, 3, 11, 80
5, 211680, Note_on_c, 3, 60, 30
5, 212160, Note_on_c, 3, 53, 30
5, 212190, Note_on_c, 3, 60, 0
5, 212640, Note_on_c, 3, 53, 0
5, 213060, Note_on_c, 3, 53, 30
5, 213105, Note_on_c, 3, 53, 0
5, 213120, Note_on_c, 3, 55, 30
5, 213600, Note_on_c, 3, 55, 0
5, 214020, Note_on_c, 3, 55, 30
5, 214065, Note_on_c, 3, 55, 0
5, 214080, Note_on_c, 3, 48, 30
5, 214320, Note_on_c, 3, 48, 0
5, 216960, Note_on_c, 3, 60, 30
5, 216960, Control_c, 3, 11, 80
5, 217010, Control_c, 3, 11, 81
5, 217060, Control_c, 3, 11, 82
5, 217100, Control_c, 3, 11, 83
5, 217150, Control_c, 3, 11, 84
5, 217200, Control_c, 3, 11, 85
5, 217240, Control_c, 3, 11, 86
5, 217290, Control_c, 3, 11, 87
5, 217340, Control_c, 3, 11, 88
5, 217380, Control_c, 3, 11, 89
5, 217430, Control_c, 3, 11, 90
5, 217440, Note_on_c, 3, 58, 30
5, 217470, Note_on_c, 3, 60, 0
5, 217470, Control_c, 3, 11, 91
5, 217520, Control_c, 3, 11, 92
5, 217570, Control_c, 3, 11, 93
5, 217610, Control_c, 3, 11, 94
5, 217660, Control_c, 3, 11, 95
5, 217680, Note_on_c, 3, 53, 30
5, 217680, Note_on_c, 3, 56, 30
5, 217710, Note_on_c, 3, 58, 0
5, 217710, Control_c, 3, 11, 96
5, 217750, Control_c, 3, 11, 97
5, 217800, Control_c, 3, 11, 98
5, 217850, Control_c, 3, 11, 99
5, 217890, Control_c, 3, 11, 100
5, 217905, Note_on_c, 3, 53, 0
5, 217905, Note_on_c, 3, 56, 0
5, 217920, Note_on_c, 3, 55, 30
5, 217920, Note_on_c, 3, 58, 30
5, 217940, Control_c, 3, 11, 101
5, 217980, Control_c, 3, 11, 102
5, 218030, Control_c, 3, 11, 103
5, 218080, Control_c, 3, 11, 104
5, 218120, Control_c, 3, 11, 105
5, 218160, Note_on_c, 3, 53, 30
5, 218160, Note_on_c, 3, 56, 30
5, 218170, Control_c, 3, 11, 106
5, 218190, Note_on_c, 3, 55, 0
5, 218190, Note_on_c, 3, 58, 0
5, 218220, Control_c, 3, 11, 107
5, 218260, Control_c, 3, 11, 108
5, 218310, Control_c, 3, 11, 109
5, 218360, Control_c, 3, 11, 110
5, 218400, Note_on_c, 3, 52, 30
5, 218400, Note_on_c, 3, 55, 30
5, 218400, Control_c, 3, 11, 111
5, 218430, Note_on_c, 3, 53, 0
5, 218430, Note_on_c, 3, 56, 0
5, 218450, Control_c, 3, 11, 112
5, 218490, Control_c, 3, 11, 113
5, 218540, Control_c, 3, 11, 114
5, 218590, Control_c, 3, 11, 115
5, 218630, Control_c, 3, 11, 116
5, 218640, Note_on_c, 3, 53, 30
5, 218670, Note_on_c, 3, 52, 0
5, 218670, Note_on_c, 3, 55, 0
5, 218680, Control_c, 3, 11, 117
5, 218730, Control_c, 3, 11, 118
5, 218770, Control_c, 3, 11, 119
5, 218820, Control_c, 3, 11, 120
5, 218865, Note_on_c, 3, 53, 0
5, 218874, Control_c, 3, 11, 80
5, 218880, Note_on_c, 3, 48, 30
5, 218880, Note_on_c, 3, 60, 30
5, 218880, Control_c, 3, 11, 80
5, 218910, Control_c, 3, 11, 81
5, 218930, Control_c, 3, 11, 82
5, 218950, Control_c, 3, 11, 83
5, 218980, Control_c, 3, 11, 84
5, 219000, Control_c, 3, 11, 85
5, 219020, Control_c, 3, 11, 86
5, 219050, Control_c, 3, 11, 87
5, 219070, Control_c, 3, 11, 88
5, 219090, Control_c, 3, 11, 89
5, 219110, Control_c, 3, 11, 90
5, 219140, Control_c, 3, 11, 91
5, 219160, Control_c, 3, 11, 92
5, 219180, Control_c, 3, 11, 93
5, 219210, Control_c, 3, 11, 94
5, 219230, Control_c, 3, 11, 95
5, 219250, Control_c, 3, 11, 96
5, 219270, Control_c, 3, 11, 97
5, 219300, Control_c, 3, 11, 98
5, 219320, Control_c, 3, 11, 99
5, 219340, Control_c, 3, 11, 100
5, 219360, Note_on_c, 3, 63, 30
5, 219370, Control_c, 3, 11, 101
5, 219390, Note_on_c, 3, 48, 0
5, 219390, Control_c, 3, 11, 102
5, 219410, Control_c, 3, 11, 103
5, 219440, Control_c, 3, 11, 104
5, 219460, Control_c, 3, 11, 105
5, 219480, Control_c, 3, 11, 106
5, 219500, Control_c, 3, 11, 107
5, 219530, Control_c, 3, 11, 108
5, 219550, Control_c, 3, 11, 109
5, 219570, Control_c, 3, 11, 110
5, 219600, Control_c, 3, 11, 111
5, 219620, Control_c, 3, 11, 112
5, 219640, Control_c, 3, 11, 113
5, 219660, Control_c, 3, 11, 114
5, 219690, Control_c, 3, 11, 115
5, 219710, Control_c, 3, 11, 116
5, 219730, Control_c, 3, 11, 117
5, 219760, Control_c, 3, 11, 118
5, 219780, Control_c, 3, 11, 119
5, 219800, Control_c, 3, 11, 120
5, 219810, Note_on_c, 3, 60, 0
5, 219810, Note_on_c, 3, 63, 0
5, 219834, Control_c, 3, 11, 80
5, 220320, Note_on_c, 3, 56, 40
5, 220320, Note_on_c, 3, 61, 40
5, 220560, Note_on_c, 3, 56, 0
5, 220560, Note_on_c, 3, 61, 0
5, 221280, Note_on_c, 3, 55, 40
5, 221280, Note_on_c, 3, 60, 40
5, 221520, Note_on_c, 3, 55, 0
5, 221520, Note_on_c, 3, 60, 0
5, 236400, Note_on_c, 3, 60, 40
5, 236400, Note_on_c, 3, 63, 40
5, 236400, Control_c, 3, 11, 80
5, 236410, Control_c, 3, 11, 82
5, 236420, Control_c, 3, 11, 85
5, 236430, Control_c, 3, 11, 87
5, 236440, Control_c, 3, 11, 90
5, 236450, Control_c, 3, 11, 92
5, 236460, Control_c, 3, 11, 95
5, 236470, Control_c, 3, 11, 97
5, 236480, Control_c, 3, 11, 100
5, 236490, Control_c, 3, 11, 102
5, 236500, Control_c, 3, 11, 105
5, 236510, Control_c, 3, 11, 107
5, 236520, Control_c, 3, 11, 110
5, 236540, Control_c, 3, 11, 109
5, 236560, Control_c, 3, 11, 108
5, 236580, Control_c, 3, 11, 107
5, 236600, Control_c, 3, 11, 106
5, 236620, Control_c, 3, 11, 105
5, 236640, Control_c, 3, 11, 104
5, 236660, Control_c, 3, 11, 103
5, 236680, Control_c, 3, 11, 102
5, 236700, Control_c, 3, 11, 101
5, 236720, Control_c, 3, 11, 100
5, 236740, Control_c, 3, 11, 99
5, 236760, Control_c, 3, 11, 98
5, 236780, Control_c, 3, 11, 97
5, 236800, Control_c, 3, 11, 96
5, 236820, Control_c, 3, 11, 95
5, 236830, Control_c, 3, 11, 94
5, 236850, Control_c, 3, 11, 93
5, 236870, Control_c, 3, 11, 92
5, 236880, Note_on_c, 3, 55, 40
5, 236890, Control_c, 3, 11, 91
5, 236910, Note_on_c, 3, 63, 0
5, 236910, Control_c, 3, 11, 90
5, 236930, Control_c, 3, 11, 89
5, 236950, Control_c, 3, 11, 88
5, 236970, Control_c, 3, 11, 87
5, 236990, Control_c, 3, 11, 86
5, 237010, Control_c, 3, 11, 85
5, 237030, Control_c, 3, 11, 84
5, 237050, Control_c, 3, 11, 83
5, 237070, Control_c, 3, 11, 82
5, 237090, Control_c, 3, 11, 81
5, 237110, Note_on_c, 3, 55, 0
5, 237110, Note_on_c, 3, 60, 0
5, 237110, Control_c, 3, 11, 80
5, 237120, Note_on_c, 3, 55, 30
5, 237120, Note_on_c, 3, 60, 30
5, 237360, Control_c, 3, 11, 80
5, 237370, Control_c, 3, 11, 79
5, 237380, Control_c, 3, 11, 78
5, 237390, Control_c, 3, 11, 77
5, 237400, Control_c, 3, 11, 76
5, 237410, Control_c, 3, 11, 75
5, 237420, Control_c, 3, 11, 74
5, 237430, Control_c, 3, 11, 73
5, 237440, Control_c, 3, 11, 72
5, 237450, Control_c, 3, 11, 71
5, 237460, Control_c, 3, 11, 70
5, 237470, Control_c, 3, 11, 69
5, 237480, Control_c, 3, 11, 67
5, 237490, Control_c, 3, 11, 66
5, 237500, Control_c, 3, 11, 65
5, 237510, Control_c, 3, 11, 64
5, 237520, Control_c, 3, 11, 63
5, 237530, Control_c, 3, 11, 62
5, 237540, Control_c, 3, 11, 61
5, 237550, Control_c, 3, 11, 60
5, 237560, Control_c, 3, 11, 59
5, 237570, Control_c, 3, 11, 58
5, 237580, Control_c, 3, 11, 57
5, 237590, Control_c, 3, 11, 56
5, 237600, Control_c, 3, 11, 54
5, 237610, Control_c, 3, 11, 53
5, 237620, Control_c, 3, 11, 52
5, 237630, Control_c, 3, 11, 51
5, 237640, Control_c, 3, 11, 50
5, 237650, Control_c, 3, 11, 49
5, 237660, Control_c, 3, 11, 48
5, 237670, Control_c, 3, 11, 47
5, 237680, Control_c, 3, 11, 46
5, 237690, Control_c, 3, 11, 45
5, 237700, Control_c, 3, 11, 44
5, 237710, Control_c, 3, 11, 43
5, 237720, Control_c, 3, 11, 41
5, 237730, Control_c, 3, 11, 40
5, 237740, Control_c, 3, 11, 39
5, 237750, Control_c, 3, 11, 38
5, 237760, Control_c, 3, 11, 37
5, 237770, Control_c, 3, 11, 36
5, 237780, Control_c, 3, 11, 35
5, 237790, Control_c, 3, 11, 34
5, 237800, Control_c, 3, 11, 33
5, 237810, Control_c, 3, 11, 32
5, 237820, Control_c, 3, 11, 31
5, 237830, Control_c, 3, 11, 30
5, 237840, Note_on_c, 3, 55, 0
5, 237840, Note_on_c, 3, 60, 0
5, 237840, End_track
6, 0, Start_track
6, 0, Channel_prefix, 4
6, 0, Title_t, "Horns in C"
6, 0, Instrument_name_t, "Corni in C"
6, 8640, Note_on_c, 4, 55, 35
6, 8640, Note_on_c, 4, 67, 35
6, 9570, Note_on_c, 4, 55, 0
6, 9570, Note_on_c, 4, 67, 0
6, 9600, Note_on_c, 4, 55, 35
6, 9600, Note_on_c, 4, 67, 35
6, 10530, Note_on_c, 4, 55, 0
6, 10530, Note_on_c, 4, 67, 0
6, 10560, Note_on_c, 4, 55, 35
6, 10560, Note_on_c, 4, 67, 35
6, 11010, Note_on_c, 4, 55, 0
6, 11010, Note_on_c, 4, 67, 0
6, 11040, Note_on_c, 4, 55, 35
6, 11040, Note_on_c, 4, 67, 35
6, 11250, Note_on_c, 4, 55, 0
6, 11250, Note_on_c, 4, 67, 0
6, 11280, Note_on_c, 4, 55, 35
6, 11280, Note_on_c, 4, 67, 35
6, 11490, Note_on_c, 4, 55, 0
6, 11490, Note_on_c, 4, 67, 0
6, 11520, Note_on_c, 4, 55, 35
6, 11520, Note_on_c, 4, 67, 35
6, 12240, Note_on_c, 4, 55, 0
6, 12240, Note_on_c, 4, 67, 0
6, 13440, Note_on_c, 4, 65, 35
6, 13440, Control_c, 4, 11, 80
6, 13480, Control_c, 4, 11, 81
6, 13520, Control_c, 4, 11, 82
6, 13560, Control_c, 4, 11, 83
6, 13600, Control_c, 4, 11, 84
6, 13640, Control_c, 4, 11, 85
6, 13680, Control_c, 4, 11, 86
6, 13720, Control_c, 4, 11, 87
6, 13760, Control_c, 4, 11, 88
6, 13800, Control_c, 4, 11, 89
6, 13840, Control_c, 4, 11, 90
6, 13880, Control_c, 4, 11, 91
6, 13920, Control_c, 4, 11, 92
6, 13960, Control_c, 4, 11, 93
6, 14000, Control_c, 4, 11, 94
6, 14040, Control_c, 4, 11, 95
6, 14080, Control_c, 4, 11, 96
6, 14120, Control_c, 4, 11, 97
6, 14160, Control_c, 4, 11, 98
6, 14200, Control_c, 4, 11, 99
6, 14240, Control_c, 4, 11, 100
6, 14280, Control_c, 4, 11, 101
6, 14320, Control_c, 4, 11, 102
6, 14360, Control_c, 4, 11, 103
6, 14400, Control_c, 4, 11, 104
6, 14440, Control_c, 4, 11, 105
6, 14480, Control_c, 4, 11, 106
6, 14520, Control_c, 4, 11, 107
6, 14560, Control_c, 4, 11, 108
6, 14600, Control_c, 4, 11, 109
6, 14640, Note_on_c, 4, 65, 0
6, 14640, Control_c, 4, 11, 110
6, 14670, Control_c, 4, 11, 109
6, 14690, Control_c, 4, 11, 108
6, 14720, Control_c, 4, 11, 107
6, 14740, Control_c, 4, 11, 106
6, 14760, Control_c, 4, 11, 105
6, 14790, Control_c, 4, 11, 104
6, 14810, Control_c, 4, 11, 103
6, 14840, Control_c, 4, 11, 102
6, 14860, Control_c, 4, 11, 101
6, 14880, Control_c, 4, 11, 100
6, 14910, Control_c, 4, 11, 99
6, 14930, Control_c, 4, 11, 98
6, 14960, Control_c, 4, 11, 97
6, 14980, Control_c, 4, 11, 96
6, 15000, Control_c, 4, 11, 95
6, 15030, Control_c, 4, 11, 94
6, 15050, Control_c, 4, 11, 93
6, 15080, Control_c, 4, 11, 92
6, 15100, Control_c, 4, 11, 91
6, 15120, Control_c, 4, 11, 90
6, 15150, Control_c, 4, 11, 89
6, 15170, Control_c, 4, 11, 88
6, 15200, Control_c, 4, 11, 87
6, 15220, Control_c, 4, 11, 86
6, 15240, Control_c, 4, 11, 85
6, 15270, Control_c, 4, 11, 84
6, 15290, Control_c, 4, 11, 83
6, 15320, Control_c, 4, 11, 82
6, 15340, Control_c, 4, 11, 80
6, 20640, Note_on_c, 4, 48, 40
6, 20640, Note_on_c, 4, 60, 40
6, 20820, Note_on_c, 4, 48, 0
6, 20820, Note_on_c, 4, 60, 0
6, 20880, Note_on_c, 4, 48, 40
6, 20880, Note_on_c, 4, 60, 40
6, 21060, Note_on_c, 4, 48, 0
6, 21060, Note_on_c, 4, 60, 0
6, 21120, Note_on_c, 4, 48, 40
6, 21120, Note_on_c, 4, 60, 40
6, 21810, Note_on_c, 4, 48, 0
6, 21810, Note_on_c, 4, 60, 0
6, 21840, Note_on_c, 4, 48, 40
6, 21840, Note_on_c, 4, 60, 40
6, 22020, Note_on_c, 4, 48, 0
6, 22020, Note_on_c, 4, 60, 0
6, 22080, Note_on_c, 4, 55, 40
6, 22080, Note_on_c, 4, 67, 40
6, 23010, Note_on_c, 4, 55, 0
6, 23010, Note_on_c, 4, 67, 0
6, 23040, Note_on_c, 4, 55, 40
6, 23040, Note_on_c, 4, 67, 40
6, 23970, Note_on_c, 4, 55, 0
6, 23970, Note_on_c, 4, 67, 0
6, 24000, Note_on_c, 4, 55, 40
6, 24000, Note_on_c, 4, 67, 40
6, 24000, Control_c, 4, 11, 80
6, 24030, Control_c, 4, 11, 81
6, 24050, Control_c, 4, 11, 82
6, 24070, Control_c, 4, 11, 83
6, 24090, Control_c, 4, 11, 84
6, 24110, Control_c, 4, 11, 85
6, 24130, Control_c, 4, 11, 86
6, 24150, Control_c, 4, 11, 87
6, 24170, Control_c, 4, 11, 88
6, 24190, Control_c, 4, 11, 89
6, 24210, Control_c, 4, 11, 90
6, 24230, Control_c, 4, 11, 91
6, 24250, Control_c, 4, 11, 92
6, 24270, Control_c, 4, 11, 93
6, 24290, Control_c, 4, 11, 94
6, 24310, Control_c, 4, 11, 95
6, 24330, Control_c, 4, 11, 96
6, 24350, Control_c, 4, 11, 97
6, 24370, Control_c, 4, 11, 98
6, 24390, Control_c, 4, 11, 99
6, 24410, Control_c, 4, 11, 100
6, 24430, Control_c, 4, 11, 101
6, 24450, Control_c, 4, 11, 102
6, 24470, Control_c, 4, 11, 103
6, 24500, Control_c, 4, 11, 104
6, 24520, Control_c, 4, 11, 105
6, 24540, Control_c, 4, 11, 106
6, 24560, Control_c, 4, 11, 107
6, 24580, Control_c, 4, 11, 108
6, 24600, Control_c, 4, 11, 109
6, 24620, Control_c, 4, 11, 110
6, 24640, Control_c, 4, 11, 111
6, 24660, Control_c, 4, 11, 112
6, 24680, Control_c, 4, 11, 113
6, 24700, Control_c, 4, 11, 114
6, 24720, Control_c, 4, 11, 115
6, 24740, Control_c, 4, 11, 116
6, 24760, Control_c, 4, 11, 117
6, 24780, Control_c, 4, 11, 118
6, 24800, Control_c, 4, 11, 119
6, 24820, Control_c, 4, 11, 120
6, 24840, Control_c, 4, 11, 121
6, 24860, Control_c, 4, 11, 122
6, 24880, Control_c, 4, 11, 123
6, 24900, Control_c, 4, 11, 124
6, 24920, Control_c, 4, 11, 125
6, 24940, Control_c, 4, 11, 126
6, 24960, Control_c, 4, 11, 127
6, 24990, Control_c, 4, 11, 126
6, 25010, Control_c, 4, 11, 125
6, 25030, Control_c, 4, 11, 124
6, 25050, Control_c, 4, 11, 123
6, 25070, Control_c, 4, 11, 122
6, 25090, Control_c, 4, 11, 121
6, 25110, Control_c, 4, 11, 120
6, 25130, Control_c, 4, 11, 119
6, 25150, Control_c, 4, 11, 118
6, 25170, Control_c, 4, 11, 117
6, 25190, Control_c, 4, 11, 116
6, 25210, Control_c, 4, 11, 115
6, 25230, Control_c, 4, 11, 114
6, 25250, Control_c, 4, 11, 113
6, 25270, Control_c, 4, 11, 112
6, 25290, Control_c, 4, 11, 111
6, 25310, Control_c, 4, 11, 110
6, 25330, Control_c, 4, 11, 109
6, 25350, Control_c, 4, 11, 108
6, 25370, Control_c, 4, 11, 107
6, 25390, Control_c, 4, 11, 106
6, 25410, Control_c, 4, 11, 105
6, 25430, Control_c, 4, 11, 104
6, 25460, Control_c, 4, 11, 103
6, 25480, Control_c, 4, 11, 102
6, 25500, Control_c, 4, 11, 101
6, 25520, Control_c, 4, 11, 100
6, 25540, Control_c, 4, 11, 99
6, 25560, Control_c, 4, 11, 98
6, 25580, Control_c, 4, 11, 97
6, 25600, Control_c, 4, 11, 96
6, 25620, Control_c, 4, 11, 95
6, 25640, Control_c, 4, 11, 94
6, 25650, Note_on_c, 4, 55, 0
6, 25650, Note_on_c, 4, 67, 0
6, 25660, Control_c, 4, 11, 93
6, 25680, Note_on_c, 4, 55, 40
6, 25680, Note_on_c, 4, 67, 40
6, 25680, Control_c, 4, 11, 92
6, 25700, Control_c, 4, 11, 91
6, 25720, Control_c, 4, 11, 90
6, 25740, Control_c, 4, 11, 89
6, 25760, Control_c, 4, 11, 88
6, 25780, Control_c, 4, 11, 87
6, 25800, Control_c, 4, 11, 86
6, 25820, Control_c, 4, 11, 85
6, 25840, Control_c, 4, 11, 84
6, 25860, Control_c, 4, 11, 83
6, 25880, Control_c, 4, 11, 82
6, 25890, Note_on_c, 4, 55, 0
6, 25890, Note_on_c, 4, 67, 0
6, 25900, Control_c, 4, 11, 80
6, 25920, Note_on_c, 4, 55, 40
6, 25920, Note_on_c, 4, 67, 40
6, 26130, Note_on_c, 4, 55, 0
6, 26130, Note_on_c, 4, 67, 0
6, 29280, Note_on_c, 4, 48, 40
6, 29280, Note_on_c, 4, 60, 40
6, 29280, Control_c, 4, 11, 80
6, 29290, Control_c, 4, 11, 83
6, 29300, Control_c, 4, 11, 86
6, 29310, Control_c, 4, 11, 90
6, 29320, Control_c, 4, 11, 93
6, 29330, Control_c, 4, 11, 96
6, 29340, Control_c, 4, 11, 100
6, 29370, Control_c, 4, 11, 99
6, 29390, Control_c, 4, 11, 98
6, 29410, Control_c, 4, 11, 97
6, 29430, Control_c, 4, 11, 96
6, 29450, Control_c, 4, 11, 95
6, 29470, Control_c, 4, 11, 94
6, 29490, Control_c, 4, 11, 93
6, 29510, Control_c, 4, 11, 92
6, 29530, Control_c, 4, 11, 91
6, 29550, Control_c, 4, 11, 90
6, 29580, Control_c, 4, 11, 89
6, 29600, Control_c, 4, 11, 88
6, 29620, Control_c, 4, 11, 87
6, 29640, Control_c, 4, 11, 86
6, 29660, Control_c, 4, 11, 85
6, 29680, Control_c, 4, 11, 84
6, 29700, Control_c, 4, 11, 83
6, 29720, Control_c, 4, 11, 82
6, 29730, Note_on_c, 4, 48, 0
6, 29730, Note_on_c, 4, 60, 0
6, 29740, Control_c, 4, 11, 80
6, 29760, Note_on_c, 4, 48, 40
6, 29760, Note_on_c, 4, 60, 40
6, 30210, Note_on_c, 4, 48, 0
6, 30210, Note_on_c, 4, 60, 0
6, 39360, Note_on_c, 4, 48, 40
6, 39360, Note_on_c, 4, 60, 40
6, 40530, Note_on_c, 4, 48, 0
6, 40530, Note_on_c, 4, 60, 0
6, 40560, Note_on_c, 4, 48, 40
6, 40560, Note_on_c, 4, 60, 40
6, 40770, Note_on_c, 4, 48, 0
6, 40770, Note_on_c, 4, 60, 0
6, 40800, Note_on_c, 4, 48, 40
6, 40800, Note_on_c, 4, 60, 40
6, 41010, Note_on_c, 4, 48, 0
6, 41010, Note_on_c, 4, 60, 0
6, 41040, Note_on_c, 4, 48, 40
6, 41040, Note_on_c, 4, 60, 40
6, 41250, Note_on_c, 4, 48, 0
6, 41250, Note_on_c, 4, 60, 0
6, 41280, Note_on_c, 4, 55, 40
6, 41280, Note_on_c, 4, 67, 40
6, 42210, Note_on_c, 4, 55, 0
6, 42210, Note_on_c, 4, 67, 0
6, 42240, Note_on_c, 4, 55, 40
6, 42240, Note_on_c, 4, 67, 40
6, 43195, Note_on_c, 4, 55, 0
6, 43195, Note_on_c, 4, 67, 0
6, 43200, Note_on_c, 4, 55, 30
6, 43200, Note_on_c, 4, 67, 30
6, 43200, Control_c, 4, 11, 80
6, 43250, Control_c, 4, 11, 81
6, 43300, Control_c, 4, 11, 82
6, 43350, Control_c, 4, 11, 83
6, 43400, Control_c, 4, 11, 85
6, 43440, Control_c, 4, 11, 86
6, 43490, Control_c, 4, 11, 87
6, 43540, Control_c, 4, 11, 88
6, 43590, Control_c, 4, 11, 90
6, 43640, Control_c, 4, 11, 91
6, 43680, Control_c, 4, 11, 92
6, 43730, Control_c, 4, 11, 93
6, 43780, Control_c, 4, 11, 95
6, 43830, Control_c, 4, 11, 96
6, 43880, Control_c, 4, 11, 97
6, 43920, Control_c, 4, 11, 98
6, 43970, Control_c, 4, 11, 100
6, 44020, Control_c, 4, 11, 101
6, 44070, Control_c, 4, 11, 102
6, 44120, Control_c, 4, 11, 103
6, 44130, Note_on_c, 4, 55, 0
6, 44130, Note_on_c, 4, 67, 0
6, 44160, Note_on_c, 4, 55, 30
6, 44160, Note_on_c, 4, 67, 30
6, 44160, Control_c, 4, 11, 105
6, 44210, Control_c, 4, 11, 104
6, 44260, Control_c, 4, 11, 103
6, 44310, Control_c, 4, 11, 102
6, 44360, Control_c, 4, 11, 100
6, 44400, Control_c, 4, 11, 99
6, 44450, Control_c, 4, 11, 98
6, 44500, Control_c, 4, 11, 97
6, 44550, Control_c, 4, 11, 95
6, 44600, Control_c, 4, 11, 94
6, 44640, Control_c, 4, 11, 93
6, 44690, Control_c, 4, 11, 92
6, 44740, Control_c, 4, 11, 90
6, 44790, Control_c, 4, 11, 89
6, 44840, Control_c, 4, 11, 88
6, 44880, Control_c, 4, 11, 87
6, 44930, Control_c, 4, 11, 85
6, 44980, Control_c, 4, 11, 84
6, 45030, Control_c, 4, 11, 82
6, 45080, Control_c, 4, 11, 80
6, 45360, Note_on_c, 4, 55, 0
6, 45360, Note_on_c, 4, 67, 0
6, 48960, Note_on_c, 4, 65, 30
6, 49890, Note_on_c, 4, 65, 0
6, 49920, Note_on_c, 4, 65, 30
6, 50850, Note_on_c, 4, 65, 0
6, 50880, Note_on_c, 4, 62, 30
6, 50880, Note_on_c, 4, 65, 30
6, 50880, Control_c, 4, 11, 80
6, 50920, Control_c, 4, 11, 81
6, 50960, Control_c, 4, 11, 83
6, 51000, Control_c, 4, 11, 85
6, 51040, Control_c, 4, 11, 87
6, 51080, Control_c, 4, 11, 89
6, 51120, Control_c, 4, 11, 91
6, 51150, Control_c, 4, 11, 93
6, 51190, Control_c, 4, 11, 95
6, 51230, Control_c, 4, 11, 97
6, 51270, Control_c, 4, 11, 99
6, 51310, Control_c, 4, 11, 101
6, 51350, Control_c, 4, 11, 103
6, 51380, Control_c, 4, 11, 104
6, 51420, Control_c, 4, 11, 106
6, 51460, Control_c, 4, 11, 108
6, 51500, Control_c, 4, 11, 110
6, 51540, Control_c, 4, 11, 112
6, 51570, Note_on_c, 4, 62, 0
6, 51570, Note_on_c, 4, 65, 0
6, 51580, Control_c, 4, 11, 114
6, 51600, Note_on_c, 4, 62, 30
6, 51600, Note_on_c, 4, 65, 30
6, 51610, Control_c, 4, 11, 115
6, 51650, Control_c, 4, 11, 117
6, 51690, Control_c, 4, 11, 119
6, 51730, Control_c, 4, 11, 121
6, 51770, Control_c, 4, 11, 123
6, 51810, Note_on_c, 4, 62, 0
6, 51810, Note_on_c, 4, 65, 0
6, 51810, Control_c, 4, 11, 125
6, 51840, Note_on_c, 4, 48, 30
6, 51840, Note_on_c, 4, 60, 30
6, 51930, Note_on_c, 4, 48, 0
6, 51930, Note_on_c, 4, 60, 0
6, 52080, Note_on_c, 4, 48, 30
6, 52080, Note_on_c, 4, 60, 30
6, 52170, Note_on_c, 4, 48, 0
6, 52170, Note_on_c, 4, 60, 0
6, 52440, Control_c, 4, 11, 80
6, 53040, Note_on_c, 4, 55, 30
6, 53040, Note_on_c, 4, 67, 30
6, 53490, Note_on_c, 4, 55, 0
6, 53490, Note_on_c, 4, 67, 0
6, 53520, Note_on_c, 4, 55, 30
6, 53520, Note_on_c, 4, 67, 30
6, 53730, Note_on_c, 4, 55, 0
6, 53730, Note_on_c, 4, 67, 0
6, 53760, Note_on_c, 4, 48, 30
6, 53760, Note_on_c, 4, 60, 30
6, 54000, Note_on_c, 4, 48, 0
6, 54000, Note_on_c, 4, 60, 0
6, 57540, Control_c, 4, 11, 110
6, 57600, Note_on_c, 4, 60, 30
6, 58050, Note_on_c, 4, 60, 0
6, 58080, Note_on_c, 4, 60, 30
6, 58470, Note_on_c, 4, 60, 0
6, 58500, Note_on_c, 4, 60, 30
6, 58545, Note_on_c, 4, 60, 0
6, 58560, Note_on_c, 4, 60, 30
6, 58610, Control_c, 4, 11, 109
6, 58630, Control_c, 4, 11, 108
6, 58650, Control_c, 4, 11, 108
6, 58670, Control_c, 4, 11, 107
6, 58690, Control_c, 4, 11, 106
6, 58710, Control_c, 4, 11, 106
6, 58730, Control_c, 4, 11, 105
6, 58750, Control_c, 4, 11, 105
6, 58770, Control_c, 4, 11, 104
6, 58790, Control_c, 4, 11, 103
6, 58810, Control_c, 4, 11, 103
6, 58830, Control_c, 4, 11, 102
6, 58850, Control_c, 4, 11, 101
6, 58870, Control_c, 4, 11, 101
6, 58890, Control_c, 4, 11, 100
6, 58910, Control_c, 4, 11, 100
6, 58930, Control_c, 4, 11, 99
6, 58950, Control_c, 4, 11, 98
6, 58970, Control_c, 4, 11, 98
6, 58990, Control_c, 4, 11, 97
6, 59010, Control_c, 4, 11, 96
6, 59030, Control_c, 4, 11, 96
6, 59060, Control_c, 4, 11, 95
6, 59080, Control_c, 4, 11, 94
6, 59100, Control_c, 4, 11, 94
6, 59120, Control_c, 4, 11, 93
6, 59140, Control_c, 4, 11, 92
6, 59160, Control_c, 4, 11, 92
6, 59180, Control_c, 4, 11, 91
6, 59200, Control_c, 4, 11, 90
6, 59220, Control_c, 4, 11, 90
6, 59240, Control_c, 4, 11, 89
6, 59250, Note_on_c, 4, 60, 0
6, 59260, Control_c, 4, 11, 89
6, 59280, Note_on_c, 4, 48, 30
6, 59280, Note_on_c, 4, 60, 30
6, 59280, Control_c, 4, 11, 88
6, 59300, Control_c, 4, 11, 87
6, 59320, Control_c, 4, 11, 87
6, 59340, Control_c, 4, 11, 86
6, 59360, Control_c, 4, 11, 85
6, 59380, Control_c, 4, 11, 85
6, 59400, Control_c, 4, 11, 84
6, 59420, Control_c, 4, 11, 84
6, 59440, Control_c, 4, 11, 83
6, 59460, Control_c, 4, 11, 82
6, 59480, Control_c, 4, 11, 81
6, 59490, Note_on_c, 4, 48, 0
6, 59490, Note_on_c, 4, 60, 0
6, 59500, Control_c, 4, 11, 80
6, 59520, Note_on_c, 4, 48, 30
6, 59520, Note_on_c, 4, 60, 30
6, 60000, Note_on_c, 4, 55, 30
6, 60000, Note_on_c, 4, 62, 30
6, 60030, Note_on_c, 4, 48, 0
6, 60030, Note_on_c, 4, 60, 0
6, 60450, Note_on_c, 4, 55, 0
6, 60450, Note_on_c, 4, 62, 0
6, 60480, Note_on_c, 4, 48, 30
6, 60480, Note_on_c, 4, 60, 30
6, 60720, Note_on_c, 4, 48, 0
6, 60720, Note_on_c, 4, 60, 0
6, 61440, Note_on_c, 4, 48, 30
6, 61440, Note_on_c, 4, 60, 30
6, 61920, Note_on_c, 4, 55, 30
6, 61920, Note_on_c, 4, 62, 30
6, 61950, Note_on_c, 4, 48, 0
6, 61950, Note_on_c, 4, 60, 0
6, 62370, Note_on_c, 4, 55, 0
6, 62370, Note_on_c, 4, 62, 0
6, 62400, Note_on_c, 4, 48, 30
6, 62400, Note_on_c, 4, 60, 30
6, 62640, Note_on_c, 4, 48, 0
6, 62640, Note_on_c, 4, 60, 0
6, 64080, Note_on_c, 4, 55, 45
6, 64080, Note_on_c, 4, 67, 45
6, 64170, Note_on_c, 4, 55, 0
6, 64170, Note_on_c, 4, 67, 0
6, 64320, Note_on_c, 4, 48, 30
6, 64320, Note_on_c, 4, 60, 30
6, 64410, Note_on_c, 4, 48, 0
6, 64410, Note_on_c, 4, 60, 0
6, 64800, Note_on_c, 4, 48, 30
6, 64800, Note_on_c, 4, 60, 30
6, 64890, Note_on_c, 4, 48, 0
6, 64890, Note_on_c, 4, 60, 0
6, 65280, Note_on_c, 4, 48, 30
6, 65280, Note_on_c, 4, 60, 30
6, 65520, Note_on_c, 4, 48, 0
6, 65520, Note_on_c, 4, 60, 0
6, 66240, Note_on_c, 4, 60, 40
6, 68130, Note_on_c, 4, 60, 0
6, 68160, Note_on_c, 4, 60, 40
6, 68160, Note_on_c, 4, 62, 40
6, 70050, Note_on_c, 4, 60, 0
6, 70050, Note_on_c, 4, 62, 0
6, 70080, Note_on_c, 4, 55, 40
6, 70080, Note_on_c, 4, 62, 40
6, 71040, Note_on_c, 4, 55, 0
6, 71280, Note_on_c, 4, 62, 0
6, 71760, Note_on_c, 4, 52, 40
6, 71760, Note_on_c, 4, 64, 40
6, 72240, Note_on_c, 4, 52, 0
6, 72240, Note_on_c, 4, 64, 0
6, 72720, Note_on_c, 4, 62, 40
6, 72930, Note_on_c, 4, 62, 0
6, 72960, Note_on_c, 4, 55, 70
6, 72960, Note_on_c, 4, 62, 70
6, 73590, Note_on_c, 4, 55, 0
6, 73590, Note_on_c, 4, 62, 0
6, 73680, Note_on_c, 4, 55, 70
6, 73680, Note_on_c, 4, 62, 70
6, 73770, Note_on_c, 4, 55, 0
6, 73770, Note_on_c, 4, 62, 0
6, 73920, Note_on_c, 4, 55, 70
6, 73920, Note_on_c, 4, 62, 70
6, 74550, Note_on_c, 4, 55, 0
6, 74550, Note_on_c, 4, 62, 0
6, 74640, Note_on_c, 4, 55, 70
6, 74640, Note_on_c, 4, 62, 70
6, 74730, Note_on_c, 4, 55, 0
6, 74730, Note_on_c, 4, 62, 0
6, 74880, Note_on_c, 4, 55, 70
6, 74880, Note_on_c, 4, 62, 70
6, 74970, Note_on_c, 4, 55, 0
6, 74970, Note_on_c, 4, 62, 0
6, 75120, Note_on_c, 4, 55, 70
6, 75120, Note_on_c, 4, 62, 70
6, 75210, Note_on_c, 4, 55, 0
6, 75210, Note_on_c, 4, 62, 0
6, 75360, Note_on_c, 4, 55, 70
6, 75360, Note_on_c, 4, 62, 70
6, 75450, Note_on_c, 4, 55, 0
6, 75450, Note_on_c, 4, 62, 0
6, 75600, Note_on_c, 4, 55, 70
6, 75600, Note_on_c, 4, 62, 70
6, 75690, Note_on_c, 4, 55, 0
6, 75690, Note_on_c, 4, 62, 0
6, 75840, Note_on_c, 4, 55, 70
6, 75840, Note_on_c, 4, 62, 70
6, 75930, Note_on_c, 4, 55, 0
6, 75930, Note_on_c, 4, 62, 0
6, 76800, Note_on_c, 4, 48, 30
6, 76800, Note_on_c, 4, 60, 30
6, 77970, Note_on_c, 4, 48, 0
6, 77970, Note_on_c, 4, 60, 0
6, 78000, Note_on_c, 4, 48, 30
6, 78000, Note_on_c, 4, 60, 30
6, 78210, Note_on_c, 4, 48, 0
6, 78210, Note_on_c, 4, 60, 0
6, 78240, Note_on_c, 4, 48, 30
6, 78240, Note_on_c, 4, 60, 30
6, 78450, Note_on_c, 4, 48, 0
6, 78450, Note_on_c, 4, 60, 0
6, 78480, Note_on_c, 4, 48, 30
6, 78480, Note_on_c, 4, 60, 30
6, 78690, Note_on_c, 4, 48, 0
6, 78690, Note_on_c, 4, 60, 0
6, 78720, Note_on_c, 4, 48, 30
6, 78720, Note_on_c, 4, 60, 30
6, 78720, Control_c, 4, 11, 80
6, 78790, Control_c, 4, 11, 81
6, 78850, Control_c, 4, 11, 82
6, 78920, Control_c, 4, 11, 83
6, 78980, Control_c, 4, 11, 84
6, 79040, Control_c, 4, 11, 85
6, 79110, Control_c, 4, 11, 86
6, 79170, Note_on_c, 4, 48, 0
6, 79170, Note_on_c, 4, 60, 0
6, 79170, Control_c, 4, 11, 87
6, 79200, Note_on_c, 4, 48, 30
6, 79200, Note_on_c, 4, 60, 30
6, 79240, Control_c, 4, 11, 88
6, 79300, Control_c, 4, 11, 89
6, 79360, Control_c, 4, 11, 90
6, 79430, Control_c, 4, 11, 91
6, 79490, Control_c, 4, 11, 92
6, 79560, Control_c, 4, 11, 93
6, 79620, Control_c, 4, 11, 94
6, 79650, Note_on_c, 4, 48, 0
6, 79650, Note_on_c, 4, 60, 0
6, 79680, Note_on_c, 4, 48, 30
6, 79680, Note_on_c, 4, 60, 30
6, 79680, Control_c, 4, 11, 95
6, 79750, Control_c, 4, 11, 96
6, 79810, Control_c, 4, 11, 97
6, 79880, Control_c, 4, 11, 98
6, 79940, Control_c, 4, 11, 99
6, 80000, Control_c, 4, 11, 100
6, 80070, Control_c, 4, 11, 101
6, 80130, Note_on_c, 4, 48, 0
6, 80130, Note_on_c, 4, 60, 0
6, 80130, Control_c, 4, 11, 102
6, 80160, Note_on_c, 4, 48, 30
6, 80160, Note_on_c, 4, 60, 30
6, 80200, Control_c, 4, 11, 103
6, 80260, Control_c, 4, 11, 104
6, 80320, Control_c, 4, 11, 105
6, 80390, Control_c, 4, 11, 106
6, 80450, Control_c, 4, 11, 107
6, 80520, Control_c, 4, 11, 108
6, 80580, Control_c, 4, 11, 110
6, 80634, Control_c, 4, 11, 80
6, 80880, Note_on_c, 4, 48, 0
6, 80880, Note_on_c, 4, 60, 0
6, 82560, Note_on_c, 4, 55, 30
6, 82560, Note_on_c, 4, 62, 30
6, 83010, Note_on_c, 4, 55, 0
6, 83010, Note_on_c, 4, 62, 0
6, 83040, Note_on_c, 4, 48, 30
6, 83040, Note_on_c, 4, 64, 30
6, 83100, Note_on_c, 4, 48, 0
6, 83120, Note_on_c, 4, 52, 30
6, 83180, Note_on_c, 4, 52, 0
6, 83200, Note_on_c, 4, 55, 30
6, 83250, Note_on_c, 4, 64, 0
6, 83260, Note_on_c, 4, 55, 0
6, 83280, Note_on_c, 4, 60, 30
6, 83340, Note_on_c, 4, 60, 0
6, 83360, Note_on_c, 4, 52, 30
6, 83360, Note_on_c, 4, 64, 30
6, 83420, Note_on_c, 4, 52, 0
6, 83420, Note_on_c, 4, 64, 0
6, 83440, Note_on_c, 4, 48, 30
6, 83440, Note_on_c, 4, 60, 30
6, 83500, Note_on_c, 4, 48, 0
6, 83500, Note_on_c, 4, 60, 0
6, 83520, Note_on_c, 4, 55, 30
6, 83520, Note_on_c, 4, 62, 30
6, 83970, Note_on_c, 4, 55, 0
6, 83970, Note_on_c, 4, 62, 0
6, 84000, Note_on_c, 4, 48, 30
6, 84000, Note_on_c, 4, 64, 30
6, 84060, Note_on_c, 4, 48, 0
6, 84080, Note_on_c, 4, 52, 30
6, 84140, Note_on_c, 4, 52, 0
6, 84160, Note_on_c, 4, 55, 30
6, 84210, Note_on_c, 4, 64, 0
6, 84220, Note_on_c, 4, 55, 0
6, 84240, Note_on_c, 4, 60, 30
6, 84300, Note_on_c, 4, 60, 0
6, 84320, Note_on_c, 4, 52, 30
6, 84320, Note_on_c, 4, 64, 30
6, 84380, Note_on_c, 4, 52, 0
6, 84380, Note_on_c, 4, 64, 0
6, 84400, Note_on_c, 4, 48, 30
6, 84400, Note_on_c, 4, 60, 30
6, 84460, Note_on_c, 4, 48, 0
6, 84460, Note_on_c, 4, 60, 0
6, 84480, Note_on_c, 4, 55, 30
6, 84480, Note_on_c, 4, 62, 30
6, 86370, Note_on_c, 4, 55, 0
6, 86370, Note_on_c, 4, 62, 0
6, 86400, Note_on_c, 4, 48, 30
6, 86400, Note_on_c, 4, 60, 30
6, 86880, Note_on_c, 4, 52, 30
6, 86880, Note_on_c, 4, 64, 30
6, 86910, Note_on_c, 4, 48, 0
6, 86910, Note_on_c, 4, 60, 0
6, 87360, Note_on_c, 4, 55, 30
6, 87360, Note_on_c, 4, 67, 30
6, 87390, Note_on_c, 4, 52, 0
6, 87390, Note_on_c, 4, 64, 0
6, 88290, Note_on_c, 4, 55, 0
6, 88290, Note_on_c, 4, 67, 0
6, 88320, Note_on_c, 4, 48, 30
6, 88320, Note_on_c, 4, 60, 30
6, 89490, Note_on_c, 4, 48, 0
6, 89490, Note_on_c, 4, 60, 0
6, 89520, Note_on_c, 4, 48, 38
6, 89520, Note_on_c, 4, 60, 38
6, 89670, Note_on_c, 4, 48, 0
6, 89670, Note_on_c, 4, 60, 0
6, 89700, Note_on_c, 4, 48, 39
6, 89700, Note_on_c, 4, 60, 39
6, 89745, Note_on_c, 4, 48, 0
6, 89745, Note_on_c, 4, 60, 0
6, 89760, Note_on_c, 4, 48, 40
6, 89760, Note_on_c, 4, 60, 40
6, 89970, Note_on_c, 4, 48, 0
6, 89970, Note_on_c, 4, 60, 0
6, 90000, Note_on_c, 4, 48, 41
6, 90000, Note_on_c, 4, 60, 41
6, 90210, Note_on_c, 4, 48, 0
6, 90210, Note_on_c, 4, 60, 0
6, 90480, Note_on_c, 4, 60, 45
6, 90480, Note_on_c, 4, 64, 45
6, 90690, Note_on_c, 4, 60, 0
6, 90690, Note_on_c, 4, 64, 0
6, 90960, Note_on_c, 4, 55, 48
6, 90960, Note_on_c, 4, 62, 48
6, 91170, Note_on_c, 4, 55, 0
6, 91170, Note_on_c, 4, 62, 0
6, 91440, Note_on_c, 4, 48, 51
6, 91440, Note_on_c, 4, 60, 51
6, 91650, Note_on_c, 4, 48, 0
6, 91650, Note_on_c, 4, 60, 0
6, 91920, Note_on_c, 4, 48, 55
6, 91920, Note_on_c, 4, 60, 55
6, 92130, Note_on_c, 4, 48, 0
6, 92130, Note_on_c, 4, 60, 0
6, 92160, Note_on_c, 4, 52, 56
6, 92160, Note_on_c, 4, 60, 56
6, 92370, Note_on_c, 4, 52, 0
6, 92370, Note_on_c, 4, 60, 0
6, 92400, Note_on_c, 4, 60, 58
6, 92400, Note_on_c, 4, 64, 58
6, 92610, Note_on_c, 4, 60, 0
6, 92610, Note_on_c, 4, 64, 0
6, 92640, Note_on_c, 4, 64, 60
6, 92640, Note_on_c, 4, 67, 60
6, 92850, Note_on_c, 4, 67, 0
6, 92880, Note_on_c, 4, 60, 61
6, 93090, Note_on_c, 4, 60, 0
6, 93090, Note_on_c, 4, 64, 0
6, 93120, Note_on_c, 4, 55, 63
6, 93120, Note_on_c, 4, 62, 63
6, 93810, Note_on_c, 4, 55, 0
6, 93810, Note_on_c, 4, 62, 0
6, 93840, Note_on_c, 4, 55, 68
6, 93840, Note_on_c, 4, 62, 68
6, 94050, Note_on_c, 4, 55, 0
6, 94050, Note_on_c, 4, 62, 0
6, 94080, Note_on_c, 4, 52, 70
6, 94080, Note_on_c, 4, 60, 70
6, 94710, Note_on_c, 4, 52, 0
6, 94710, Note_on_c, 4, 60, 0
6, 94800, Note_on_c, 4, 55, 70
6, 94800, Note_on_c, 4, 64, 70
6, 94890, Note_on_c, 4, 55, 0
6, 94890, Note_on_c, 4, 64, 0
6, 95040, Note_on_c, 4, 52, 70
6, 95040, Note_on_c, 4, 60, 70
6, 95670, Note_on_c, 4, 52, 0
6, 95670, Note_on_c, 4, 60, 0
6, 95760, Note_on_c, 4, 55, 70
6, 95760, Note_on_c, 4, 64, 70
6, 95850, Note_on_c, 4, 55, 0
6, 95850, Note_on_c, 4, 64, 0
6, 96000, Note_on_c, 4, 52, 70
6, 96000, Note_on_c, 4, 60, 70
6, 96090, Note_on_c, 4, 52, 0
6, 96090, Note_on_c, 4, 60, 0
6, 96240, Note_on_c, 4, 55, 70
6, 96240, Note_on_c, 4, 64, 70
6, 96330, Note_on_c, 4, 55, 0
6, 96330, Note_on_c, 4, 64, 0
6, 96480, Note_on_c, 4, 52, 70
6, 96480, Note_on_c, 4, 60, 70
6, 96570, Note_on_c, 4, 52, 0
6, 96570, Note_on_c, 4, 60, 0
6, 96720, Note_on_c, 4, 55, 70
6, 96720, Note_on_c, 4, 64, 70
6, 96810, Note_on_c, 4, 55, 0
6, 96810, Note_on_c, 4, 64, 0
6, 96960, Note_on_c, 4, 52, 70
6, 96960, Note_on_c, 4, 60, 70
6, 97050, Note_on_c, 4, 52, 0
6, 97050, Note_on_c, 4, 60, 0
6, 120240, Note_on_c, 4, 55, 60
6, 120240, Note_on_c, 4, 67, 60
6, 120690, Note_on_c, 4, 55, 0
6, 120690, Note_on_c, 4, 67, 0
6, 120720, Note_on_c, 4, 55, 60
6, 120720, Note_on_c, 4, 67, 60
6, 120930, Note_on_c, 4, 55, 0
6, 120930, Note_on_c, 4, 67, 0
6, 120960, Note_on_c, 4, 43, 60
6, 120960, Note_on_c, 4, 55, 60
6, 121410, Note_on_c, 4, 43, 0
6, 121410, Note_on_c, 4, 55, 0
6, 121440, Note_on_c, 4, 43, 60
6, 121440, Note_on_c, 4, 55, 60
6, 121650, Note_on_c, 4, 43, 0
6, 121650, Note_on_c, 4, 55, 0
6, 121680, Note_on_c, 4, 43, 60
6, 121680, Note_on_c, 4, 55, 60
6, 121890, Note_on_c, 4, 43, 0
6, 121890, Note_on_c, 4, 55, 0
6, 121920, Note_on_c, 4, 43, 60
6, 121920, Note_on_c, 4, 55, 60
6, 121920, Control_c, 4, 11, 80
6, 121930, Control_c, 4, 11, 82
6, 121940, Control_c, 4, 11, 85
6, 121950, Control_c, 4, 11, 88
6, 121960, Control_c, 4, 11, 91
6, 121970, Control_c, 4, 11, 93
6, 121980, Control_c, 4, 11, 96
6, 121990, Control_c, 4, 11, 99
6, 122000, Control_c, 4, 11, 102
6, 122020, Control_c, 4, 11, 105
6, 122030, Control_c, 4, 11, 104
6, 122040, Control_c, 4, 11, 102
6, 122050, Control_c, 4, 11, 100
6, 122060, Control_c, 4, 11, 98
6, 122070, Control_c, 4, 11, 96
6, 122080, Control_c, 4, 11, 94
6, 122090, Control_c, 4, 11, 92
6, 122100, Control_c, 4, 11, 90
6, 122110, Control_c, 4, 11, 88
6, 122120, Control_c, 4, 11, 86
6, 122130, Control_c, 4, 11, 84
6, 122140, Control_c, 4, 11, 82
6, 122150, Control_c, 4, 11, 80
6, 122610, Note_on_c, 4, 43, 0
6, 122610, Note_on_c, 4, 55, 0
6, 122640, Note_on_c, 4, 43, 60
6, 122640, Note_on_c, 4, 55, 60
6, 122850, Note_on_c, 4, 43, 0
6, 122850, Note_on_c, 4, 55, 0
6, 122880, Note_on_c, 4, 43, 60
6, 122880, Note_on_c, 4, 55, 60
6, 123090, Note_on_c, 4, 43, 0
6, 123090, Note_on_c, 4, 55, 0
6, 123120, Note_on_c, 4, 43, 60
6, 123120, Note_on_c, 4, 55, 60
6, 123330, Note_on_c, 4, 43, 0
6, 123330, Note_on_c, 4, 55, 0
6, 123360, Note_on_c, 4, 43, 60
6, 123360, Note_on_c, 4, 55, 60
6, 123570, Note_on_c, 4, 43, 0
6, 123570, Note_on_c, 4, 55, 0
6, 123600, Note_on_c, 4, 55, 60
6, 123600, Note_on_c, 4, 67, 60
6, 124050, Note_on_c, 4, 55, 0
6, 124050, Note_on_c, 4, 67, 0
6, 124080, Note_on_c, 4, 48, 60
6, 124080, Note_on_c, 4, 60, 60
6, 124290, Note_on_c, 4, 48, 0
6, 124290, Note_on_c, 4, 60, 0
6, 124320, Note_on_c, 4, 48, 60
6, 124320, Note_on_c, 4, 60, 60
6, 124530, Note_on_c, 4, 48, 0
6, 124530, Note_on_c, 4, 60, 0
6, 124560, Note_on_c, 4, 48, 60
6, 124560, Note_on_c, 4, 60, 60
6, 124770, Note_on_c, 4, 48, 0
6, 124770, Note_on_c, 4, 60, 0
6, 124800, Note_on_c, 4, 48, 70
6, 124800, Note_on_c, 4, 60, 70
6, 125040, Note_on_c, 4, 48, 0
6, 125040, Note_on_c, 4, 60, 0
6, 125280, Note_on_c, 4, 65, 70
6, 125730, Note_on_c, 4, 65, 0
6, 125760, Note_on_c, 4, 65, 70
6, 126690, Note_on_c, 4, 65, 0
6, 126720, Note_on_c, 4, 48, 70
6, 126720, Note_on_c, 4, 60, 70
6, 127410, Note_on_c, 4, 48, 0
6, 127410, Note_on_c, 4, 60, 0
6, 127440, Note_on_c, 4, 48, 70
6, 127440, Note_on_c, 4, 60, 70
6, 127650, Note_on_c, 4, 48, 0
6, 127650, Note_on_c, 4, 60, 0
6, 127680, Note_on_c, 4, 48, 70
6, 127680, Note_on_c, 4, 60, 70
6, 127920, Note_on_c, 4, 48, 0
6, 127920, Note_on_c, 4, 60, 0
6, 134400, Note_on_c, 4, 48, 70
6, 134400, Note_on_c, 4, 60, 70
6, 135810, Note_on_c, 4, 48, 0
6, 135810, Note_on_c, 4, 60, 0
6, 135840, Note_on_c, 4, 65, 70
6, 136770, Note_on_c, 4, 65, 0
6, 136800, Note_on_c, 4, 62, 70
6, 137730, Note_on_c, 4, 62, 0
6, 137760, Note_on_c, 4, 67, 70
6, 138240, Note_on_c, 4, 55, 70
6, 138690, Note_on_c, 4, 55, 0
6, 138690, Note_on_c, 4, 67, 0
6, 138720, Note_on_c, 4, 55, 70
6, 138720, Note_on_c, 4, 67, 70
6, 139170, Note_on_c, 4, 55, 0
6, 139170, Note_on_c, 4, 67, 0
6, 139200, Note_on_c, 4, 62, 70
6, 139410, Note_on_c, 4, 62, 0
6, 139440, Note_on_c, 4, 62, 70
6, 143250, Note_on_c, 4, 62, 0
6, 143280, Note_on_c, 4, 55, 70
6, 143280, Note_on_c, 4, 67, 70
6, 143370, Note_on_c, 4, 55, 0
6, 143370, Note_on_c, 4, 67, 0
6, 143520, Note_on_c, 4, 55, 70
6, 143520, Note_on_c, 4, 67, 70
6, 143610, Note_on_c, 4, 55, 0
6, 143610, Note_on_c, 4, 67, 0
6, 143760, Note_on_c, 4, 55, 70
6, 143760, Note_on_c, 4, 67, 70
6, 143850, Note_on_c, 4, 55, 0
6, 143850, Note_on_c, 4, 67, 0
6, 144000, Note_on_c, 4, 55, 70
6, 144000, Note_on_c, 4, 67, 70
6, 144090, Note_on_c, 4, 55, 0
6, 144090, Note_on_c, 4, 67, 0
6, 152640, Note_on_c, 4, 48, 70
6, 152640, Note_on_c, 4, 60, 70
6, 153570, Note_on_c, 4, 48, 0
6, 153570, Note_on_c, 4, 60, 0
6, 153600, Note_on_c, 4, 48, 70
6, 153600, Note_on_c, 4, 60, 70
6, 154530, Note_on_c, 4, 48, 0
6, 154530, Note_on_c, 4, 60, 0
6, 154560, Note_on_c, 4, 48, 70
6, 154560, Note_on_c, 4, 60, 70
6, 155010, Note_on_c, 4, 48, 0
6, 155010, Note_on_c, 4, 60, 0
6, 155040, Note_on_c, 4, 48, 70
6, 155040, Note_on_c, 4, 60, 70
6, 155430, Note_on_c, 4, 48, 0
6, 155430, Note_on_c, 4, 60, 0
6, 155460, Note_on_c, 4, 48, 70
6, 155460, Note_on_c, 4, 60, 70
6, 155505, Note_on_c, 4, 48, 0
6, 155505, Note_on_c, 4, 60, 0
6, 155520, Note_on_c, 4, 48, 70
6, 155520, Note_on_c, 4, 60, 70
6, 156450, Note_on_c, 4, 48, 0
6, 156450, Note_on_c, 4, 60, 0
6, 156480, Note_on_c, 4, 48, 70
6, 156480, Note_on_c, 4, 60, 70
6, 156930, Note_on_c, 4, 48, 0
6, 156930, Note_on_c, 4, 60, 0
6, 156960, Note_on_c, 4, 48, 70
6, 156960, Note_on_c, 4, 60, 70
6, 157350, Note_on_c, 4, 48, 0
6, 157350, Note_on_c, 4, 60, 0
6, 157380, Note_on_c, 4, 48, 70
6, 157380, Note_on_c, 4, 60, 70
6, 157425, Note_on_c, 4, 48, 0
6, 157425, Note_on_c, 4, 60, 0
6, 157440, Note_on_c, 4, 48, 70
6, 157440, Note_on_c, 4, 60, 70
6, 158610, Note_on_c, 4, 48, 0
6, 158610, Note_on_c, 4, 60, 0
6, 158640, Note_on_c, 4, 48, 70
6, 158640, Note_on_c, 4, 60, 70
6, 158850, Note_on_c, 4, 48, 0
6, 158850, Note_on_c, 4, 60, 0
6, 158880, Note_on_c, 4, 48, 70
6, 158880, Note_on_c, 4, 60, 70
6, 159090, Note_on_c, 4, 48, 0
6, 159090, Note_on_c, 4, 60, 0
6, 159120, Note_on_c, 4, 48, 70
6, 159120, Note_on_c, 4, 60, 70
6, 159330, Note_on_c, 4, 48, 0
6, 159330, Note_on_c, 4, 60, 0
6, 159360, Note_on_c, 4, 65, 70
6, 160530, Note_on_c, 4, 65, 0
6, 160560, Note_on_c, 4, 65, 70
6, 160770, Note_on_c, 4, 65, 0
6, 160800, Note_on_c, 4, 65, 70
6, 161010, Note_on_c, 4, 65, 0
6, 161040, Note_on_c, 4, 65, 70
6, 161250, Note_on_c, 4, 65, 0
6, 161280, Note_on_c, 4, 65, 70
6, 161520, Note_on_c, 4, 65, 0
6, 166320, Note_on_c, 4, 55, 35
6, 166320, Note_on_c, 4, 67, 35
6, 166470, Note_on_c, 4, 55, 0
6, 166470, Note_on_c, 4, 67, 0
6, 166500, Note_on_c, 4, 55, 35
6, 166500, Note_on_c, 4, 67, 35
6, 166545, Note_on_c, 4, 55, 0
6, 166545, Note_on_c, 4, 67, 0
6, 166560, Note_on_c, 4, 55, 35
6, 166560, Note_on_c, 4, 67, 35
6, 166770, Note_on_c, 4, 55, 0
6, 166770, Note_on_c, 4, 67, 0
6, 166800, Note_on_c, 4, 55, 35
6, 166800, Note_on_c, 4, 67, 35
6, 167010, Note_on_c, 4, 55, 0
6, 167010, Note_on_c, 4, 67, 0
6, 167280, Note_on_c, 4, 55, 35
6, 167280, Note_on_c, 4, 67, 35
6, 167430, Note_on_c, 4, 55, 0
6, 167430, Note_on_c, 4, 67, 0
6, 167460, Note_on_c, 4, 55, 35
6, 167460, Note_on_c, 4, 67, 35
6, 167505, Note_on_c, 4, 55, 0
6, 167505, Note_on_c, 4, 67, 0
6, 167520, Note_on_c, 4, 55, 35
6, 167520, Note_on_c, 4, 67, 35
6, 167730, Note_on_c, 4, 55, 0
6, 167730, Note_on_c, 4, 67, 0
6, 167760, Note_on_c, 4, 55, 35
6, 167760, Note_on_c, 4, 67, 35
6, 167970, Note_on_c, 4, 55, 0
6, 167970, Note_on_c, 4, 67, 0
6, 168240, Note_on_c, 4, 55, 35
6, 168240, Note_on_c, 4, 67, 35
6, 168390, Note_on_c, 4, 55, 0
6, 168390, Note_on_c, 4, 67, 0
6, 168420, Note_on_c, 4, 55, 35
6, 168420, Note_on_c, 4, 67, 35
6, 168465, Note_on_c, 4, 55, 0
6, 168465, Note_on_c, 4, 67, 0
6, 168480, Note_on_c, 4, 55, 35
6, 168480, Note_on_c, 4, 67, 35
6, 168690, Note_on_c, 4, 55, 0
6, 168690, Note_on_c, 4, 67, 0
6, 168720, Note_on_c, 4, 55, 35
6, 168720, Note_on_c, 4, 67, 35
6, 168930, Note_on_c, 4, 55, 0
6, 168930, Note_on_c, 4, 67, 0
6, 169200, Note_on_c, 4, 55, 35
6, 169200, Note_on_c, 4, 67, 35
6, 169350, Note_on_c, 4, 55, 0
6, 169350, Note_on_c, 4, 67, 0
6, 169380, Note_on_c, 4, 55, 35
6, 169380, Note_on_c, 4, 67, 35
6, 169425, Note_on_c, 4, 55, 0
6, 169425, Note_on_c, 4, 67, 0
6, 169440, Note_on_c, 4, 55, 35
6, 169440, Note_on_c, 4, 67, 35
6, 169650, Note_on_c, 4, 55, 0
6, 169650, Note_on_c, 4, 67, 0
6, 169680, Note_on_c, 4, 55, 35
6, 169680, Note_on_c, 4, 67, 35
6, 169890, Note_on_c, 4, 55, 0
6, 169890, Note_on_c, 4, 67, 0
6, 170160, Note_on_c, 4, 65, 35
6, 170310, Note_on_c, 4, 65, 0
6, 170340, Note_on_c, 4, 65, 35
6, 170385, Note_on_c, 4, 65, 0
6, 170400, Note_on_c, 4, 65, 35
6, 170610, Note_on_c, 4, 65, 0
6, 170640, Note_on_c, 4, 65, 35
6, 170850, Note_on_c, 4, 65, 0
6, 170880, Control_c, 4, 11, 80
6, 170910, Control_c, 4, 11, 81
6, 170930, Control_c, 4, 11, 82
6, 170950, Control_c, 4, 11, 83
6, 170970, Control_c, 4, 11, 84
6, 170990, Control_c, 4, 11, 85
6, 171010, Control_c, 4, 11, 86
6, 171030, Control_c, 4, 11, 87
6, 171050, Control_c, 4, 11, 88
6, 171070, Control_c, 4, 11, 89
6, 171090, Control_c, 4, 11, 90
6, 171110, Control_c, 4, 11, 91
6, 171120, Note_on_c, 4, 65, 35
6, 171130, Control_c, 4, 11, 92
6, 171150, Control_c, 4, 11, 93
6, 171170, Control_c, 4, 11, 94
6, 171190, Control_c, 4, 11, 95
6, 171210, Control_c, 4, 11, 96
6, 171230, Control_c, 4, 11, 97
6, 171250, Control_c, 4, 11, 98
6, 171270, Note_on_c, 4, 65, 0
6, 171270, Control_c, 4, 11, 99
6, 171290, Control_c, 4, 11, 100
6, 171300, Note_on_c, 4, 65, 35
6, 171310, Control_c, 4, 11, 101
6, 171330, Control_c, 4, 11, 102
6, 171345, Note_on_c, 4, 65, 0
6, 171350, Control_c, 4, 11, 103
6, 171360, Note_on_c, 4, 65, 35
6, 171380, Control_c, 4, 11, 104
6, 171400, Control_c, 4, 11, 105
6, 171420, Control_c, 4, 11, 106
6, 171440, Control_c, 4, 11, 107
6, 171460, Control_c, 4, 11, 108
6, 171480, Control_c, 4, 11, 109
6, 171500, Control_c, 4, 11, 110
6, 171520, Control_c, 4, 11, 111
6, 171540, Control_c, 4, 11, 112
6, 171560, Control_c, 4, 11, 113
6, 171570, Note_on_c, 4, 65, 0
6, 171580, Control_c, 4, 11, 114
6, 171600, Note_on_c, 4, 65, 35
6, 171600, Control_c, 4, 11, 115
6, 171620, Control_c, 4, 11, 116
6, 171640, Control_c, 4, 11, 117
6, 171660, Control_c, 4, 11, 118
6, 171680, Control_c, 4, 11, 119
6, 171700, Control_c, 4, 11, 120
6, 171720, Control_c, 4, 11, 121
6, 171740, Control_c, 4, 11, 122
6, 171760, Control_c, 4, 11, 123
6, 171780, Control_c, 4, 11, 124
6, 171800, Control_c, 4, 11, 125
6, 171810, Note_on_c, 4, 65, 0
6, 171820, Control_c, 4, 11, 127
6, 171834, Control_c, 4, 11, 80
6, 171840, Note_on_c, 4, 65, 35
6, 172080, Note_on_c, 4, 65, 0
6, 177120, Note_on_c, 4, 24, 60
6, 178560, Control_c, 4, 11, 80
6, 178580, Control_c, 4, 11, 81
6, 178600, Control_c, 4, 11, 82
6, 178610, Control_c, 4, 11, 83
6, 178630, Control_c, 4, 11, 84
6, 178640, Control_c, 4, 11, 85
6, 178660, Control_c, 4, 11, 86
6, 178680, Control_c, 4, 11, 87
6, 178690, Control_c, 4, 11, 88
6, 178710, Control_c, 4, 11, 89
6, 178720, Control_c, 4, 11, 90
6, 178740, Control_c, 4, 11, 91
6, 178760, Control_c, 4, 11, 92
6, 178770, Control_c, 4, 11, 93
6, 178790, Control_c, 4, 11, 94
6, 178800, Control_c, 4, 11, 95
6, 178820, Control_c, 4, 11, 96
6, 178840, Control_c, 4, 11, 97
6, 178850, Control_c, 4, 11, 98
6, 178870, Control_c, 4, 11, 99
6, 178880, Control_c, 4, 11, 100
6, 178900, Control_c, 4, 11, 101
6, 178920, Control_c, 4, 11, 102
6, 178930, Control_c, 4, 11, 103
6, 178950, Control_c, 4, 11, 104
6, 178960, Control_c, 4, 11, 105
6, 178980, Control_c, 4, 11, 106
6, 179000, Control_c, 4, 11, 107
6, 179010, Control_c, 4, 11, 108
6, 179030, Control_c, 4, 11, 109
6, 179040, Control_c, 4, 11, 110
6, 179060, Control_c, 4, 11, 109
6, 179080, Control_c, 4, 11, 108
6, 179090, Control_c, 4, 11, 107
6, 179110, Control_c, 4, 11, 106
6, 179120, Control_c, 4, 11, 105
6, 179140, Control_c, 4, 11, 104
6, 179150, Control_c, 4, 11, 103
6, 179170, Control_c, 4, 11, 102
6, 179180, Control_c, 4, 11, 101
6, 179200, Control_c, 4, 11, 100
6, 179220, Control_c, 4, 11, 99
6, 179230, Control_c, 4, 11, 98
6, 179250, Control_c, 4, 11, 97
6, 179260, Control_c, 4, 11, 96
6, 179280, Control_c, 4, 11, 95
6, 179290, Control_c, 4, 11, 94
6, 179310, Control_c, 4, 11, 93
6, 179320, Control_c, 4, 11, 92
6, 179340, Control_c, 4, 11, 91
6, 179350, Control_c, 4, 11, 90
6, 179370, Control_c, 4, 11, 89
6, 179390, Control_c, 4, 11, 88
6, 179400, Control_c, 4, 11, 87
6, 179420, Control_c, 4, 11, 86
6, 179430, Control_c, 4, 11, 85
6, 179450, Control_c, 4, 11, 84
6, 179460, Control_c, 4, 11, 83
6, 179480, Control_c, 4, 11, 82
6, 179490, Note_on_c, 4, 24, 0
6, 179490, Control_c, 4, 11, 81
6, 179510, Control_c, 4, 11, 80
6, 179520, Note_on_c, 4, 43, 35
6, 179520, Note_on_c, 4, 55, 35
6, 180450, Note_on_c, 4, 43, 0
6, 180450, Note_on_c, 4, 55, 0
6, 180480, Note_on_c, 4, 43, 35
6, 180480, Note_on_c, 4, 55, 35
6, 181410, Note_on_c, 4, 43, 0
6, 181410, Note_on_c, 4, 55, 0
6, 181440, Note_on_c, 4, 43, 35
6, 181440, Note_on_c, 4, 55, 35
6, 181440, Control_c, 4, 11, 80
6, 181470, Control_c, 4, 11, 81
6, 181500, Control_c, 4, 11, 82
6, 181530, Control_c, 4, 11, 83
6, 181550, Control_c, 4, 11, 84
6, 181580, Control_c, 4, 11, 85
6, 181610, Control_c, 4, 11, 86
6, 181640, Control_c, 4, 11, 87
6, 181660, Control_c, 4, 11, 88
6, 181690, Control_c, 4, 11, 89
6, 181720, Control_c, 4, 11, 90
6, 181750, Control_c, 4, 11, 91
6, 181770, Control_c, 4, 11, 92
6, 181800, Control_c, 4, 11, 93
6, 181830, Control_c, 4, 11, 94
6, 181860, Control_c, 4, 11, 95
6, 181880, Control_c, 4, 11, 96
6, 181910, Control_c, 4, 11, 97
6, 181940, Control_c, 4, 11, 98
6, 181970, Control_c, 4, 11, 99
6, 181990, Control_c, 4, 11, 100
6, 182020, Control_c, 4, 11, 101
6, 182050, Control_c, 4, 11, 102
6, 182080, Control_c, 4, 11, 103
6, 182100, Control_c, 4, 11, 104
6, 182130, Control_c, 4, 11, 105
6, 182160, Control_c, 4, 11, 106
6, 182190, Control_c, 4, 11, 107
6, 182210, Control_c, 4, 11, 108
6, 182240, Control_c, 4, 11, 109
6, 182270, Control_c, 4, 11, 110
6, 182300, Control_c, 4, 11, 111
6, 182320, Control_c, 4, 11, 112
6, 182350, Control_c, 4, 11, 113
6, 182370, Note_on_c, 4, 43, 0
6, 182370, Note_on_c, 4, 55, 0
6, 182380, Control_c, 4, 11, 114
6, 182400, Note_on_c, 4, 43, 35
6, 182400, Note_on_c, 4, 55, 35
6, 182400, Control_c, 4, 11, 115
6, 182430, Control_c, 4, 11, 114
6, 182460, Control_c, 4, 11, 113
6, 182480, Control_c, 4, 11, 112
6, 182510, Control_c, 4, 11, 111
6, 182540, Control_c, 4, 11, 110
6, 182560, Control_c, 4, 11, 109
6, 182590, Control_c, 4, 11, 108
6, 182620, Control_c, 4, 11, 107
6, 182640, Control_c, 4, 11, 106
6, 182670, Control_c, 4, 11, 105
6, 182700, Control_c, 4, 11, 104
6, 182720, Control_c, 4, 11, 103
6, 182750, Control_c, 4, 11, 102
6, 182780, Control_c, 4, 11, 101
6, 182800, Control_c, 4, 11, 100
6, 182830, Control_c, 4, 11, 99
6, 182860, Control_c, 4, 11, 98
6, 182880, Control_c, 4, 11, 97
6, 182910, Control_c, 4, 11, 96
6, 182940, Control_c, 4, 11, 95
6, 182960, Control_c, 4, 11, 94
6, 182990, Control_c, 4, 11, 93
6, 183020, Control_c, 4, 11, 92
6, 183040, Control_c, 4, 11, 91
6, 183070, Control_c, 4, 11, 90
6, 183090, Note_on_c, 4, 43, 0
6, 183090, Note_on_c, 4, 55, 0
6, 183100, Control_c, 4, 11, 89
6, 183120, Note_on_c, 4, 43, 35
6, 183120, Note_on_c, 4, 55, 35
6, 183120, Control_c, 4, 11, 88
6, 183150, Control_c, 4, 11, 87
6, 183180, Control_c, 4, 11, 86
6, 183200, Control_c, 4, 11, 85
6, 183230, Control_c, 4, 11, 84
6, 183260, Control_c, 4, 11, 83
6, 183280, Control_c, 4, 11, 82
6, 183310, Control_c, 4, 11, 81
6, 183330, Note_on_c, 4, 43, 0
6, 183330, Note_on_c, 4, 55, 0
6, 183340, Control_c, 4, 11, 80
6, 183360, Note_on_c, 4, 43, 35
6, 183360, Note_on_c, 4, 55, 35
6, 183600, Note_on_c, 4, 43, 0
6, 183600, Note_on_c, 4, 55, 0
6, 186720, Note_on_c, 4, 48, 45
6, 186720, Note_on_c, 4, 60, 45
6, 187170, Note_on_c, 4, 48, 0
6, 187170, Note_on_c, 4, 60, 0
6, 187200, Note_on_c, 4, 48, 35
6, 187200, Note_on_c, 4, 60, 35
6, 187410, Note_on_c, 4, 48, 0
6, 187410, Note_on_c, 4, 60, 0
6, 187440, Note_on_c, 4, 65, 35
6, 187601, Note_on_c, 4, 65, 0
6, 187620, Note_on_c, 4, 65, 35
6, 187661, Note_on_c, 4, 65, 0
6, 187680, Note_on_c, 4, 65, 35
6, 187890, Note_on_c, 4, 65, 0
6, 187920, Note_on_c, 4, 65, 35
6, 188130, Note_on_c, 4, 65, 0
6, 188400, Note_on_c, 4, 65, 35
6, 188561, Note_on_c, 4, 65, 0
6, 188580, Note_on_c, 4, 65, 35
6, 188621, Note_on_c, 4, 65, 0
6, 188640, Note_on_c, 4, 65, 35
6, 188850, Note_on_c, 4, 65, 0
6, 188880, Note_on_c, 4, 65, 35
6, 189090, Note_on_c, 4, 65, 0
6, 189360, Note_on_c, 4, 65, 39
6, 189521, Note_on_c, 4, 65, 0
6, 189540, Note_on_c, 4, 65, 42
6, 189581, Note_on_c, 4, 65, 0
6, 189600, Note_on_c, 4, 65, 43
6, 189810, Note_on_c, 4, 65, 0
6, 189840, Note_on_c, 4, 65, 47
6, 190001, Note_on_c, 4, 65, 0
6, 190020, Note_on_c, 4, 65, 50
6, 190061, Note_on_c, 4, 65, 0
6, 190080, Note_on_c, 4, 48, 65
6, 190080, Note_on_c, 4, 60, 65
6, 190170, Note_on_c, 4, 48, 0
6, 190170, Note_on_c, 4, 60, 0
6, 190320, Note_on_c, 4, 48, 65
6, 190320, Note_on_c, 4, 60, 65
6, 190410, Note_on_c, 4, 48, 0
6, 190410, Note_on_c, 4, 60, 0
6, 190800, Note_on_c, 4, 48, 40
6, 190800, Note_on_c, 4, 60, 40
6, 191250, Note_on_c, 4, 48, 0
6, 191250, Note_on_c, 4, 60, 0
6, 191280, Note_on_c, 4, 48, 40
6, 191280, Note_on_c, 4, 60, 40
6, 191730, Note_on_c, 4, 48, 0
6, 191730, Note_on_c, 4, 60, 0
6, 191760, Note_on_c, 4, 55, 37
6, 191760, Note_on_c, 4, 62, 37
6, 191970, Note_on_c, 4, 55, 0
6, 191970, Note_on_c, 4, 62, 0
6, 192000, Note_on_c, 4, 48, 35
6, 192000, Note_on_c, 4, 60, 35
6, 192240, Note_on_c, 4, 48, 0
6, 192240, Note_on_c, 4, 60, 0
6, 195780, Control_c, 4, 11, 110
6, 195840, Note_on_c, 4, 60, 35
6, 196290, Note_on_c, 4, 60, 0
6, 196320, Note_on_c, 4, 60, 35
6, 196710, Note_on_c, 4, 60, 0
6, 196740, Note_on_c, 4, 60, 35
6, 196785, Note_on_c, 4, 60, 0
6, 196800, Note_on_c, 4, 60, 35
6, 196850, Control_c, 4, 11, 109
6, 196870, Control_c, 4, 11, 108
6, 196890, Control_c, 4, 11, 108
6, 196910, Control_c, 4, 11, 107
6, 196930, Control_c, 4, 11, 106
6, 196950, Control_c, 4, 11, 106
6, 196970, Control_c, 4, 11, 105
6, 196990, Control_c, 4, 11, 105
6, 197010, Control_c, 4, 11, 104
6, 197030, Control_c, 4, 11, 103
6, 197050, Control_c, 4, 11, 103
6, 197070, Control_c, 4, 11, 102
6, 197090, Control_c, 4, 11, 101
6, 197110, Control_c, 4, 11, 101
6, 197130, Control_c, 4, 11, 100
6, 197150, Control_c, 4, 11, 100
6, 197170, Control_c, 4, 11, 99
6, 197190, Control_c, 4, 11, 98
6, 197210, Control_c, 4, 11, 98
6, 197230, Control_c, 4, 11, 97
6, 197250, Control_c, 4, 11, 96
6, 197270, Control_c, 4, 11, 96
6, 197300, Control_c, 4, 11, 95
6, 197320, Control_c, 4, 11, 94
6, 197340, Control_c, 4, 11, 94
6, 197360, Control_c, 4, 11, 93
6, 197380, Control_c, 4, 11, 92
6, 197400, Control_c, 4, 11, 92
6, 197420, Control_c, 4, 11, 91
6, 197440, Control_c, 4, 11, 90
6, 197460, Control_c, 4, 11, 90
6, 197480, Control_c, 4, 11, 89
6, 197500, Control_c, 4, 11, 89
6, 197520, Control_c, 4, 11, 88
6, 197540, Control_c, 4, 11, 87
6, 197560, Control_c, 4, 11, 87
6, 197580, Control_c, 4, 11, 86
6, 197600, Control_c, 4, 11, 85
6, 197620, Control_c, 4, 11, 85
6, 197640, Control_c, 4, 11, 84
6, 197660, Control_c, 4, 11, 84
6, 197680, Control_c, 4, 11, 83
6, 197700, Control_c, 4, 11, 82
6, 197720, Control_c, 4, 11, 81
6, 197730, Note_on_c, 4, 60, 0
6, 197740, Control_c, 4, 11, 80
6, 197760, Note_on_c, 4, 48, 35
6, 197760, Note_on_c, 4, 60, 35
6, 198240, Note_on_c, 4, 55, 35
6, 198240, Note_on_c, 4, 62, 35
6, 198270, Note_on_c, 4, 48, 0
6, 198270, Note_on_c, 4, 60, 0
6, 198720, Note_on_c, 4, 48, 35
6, 198720, Note_on_c, 4, 60, 35
6, 198750, Note_on_c, 4, 55, 0
6, 198750, Note_on_c, 4, 62, 0
6, 198960, Note_on_c, 4, 48, 0
6, 198960, Note_on_c, 4, 60, 0
6, 199680, Note_on_c, 4, 48, 35
6, 199680, Note_on_c, 4, 60, 35
6, 199680, Control_c, 4, 11, 80
6, 199710, Control_c, 4, 11, 81
6, 199740, Control_c, 4, 11, 82
6, 199770, Control_c, 4, 11, 83
6, 199790, Control_c, 4, 11, 84
6, 199820, Control_c, 4, 11, 85
6, 199850, Control_c, 4, 11, 86
6, 199880, Control_c, 4, 11, 87
6, 199900, Control_c, 4, 11, 88
6, 199930, Control_c, 4, 11, 89
6, 199960, Control_c, 4, 11, 90
6, 199990, Control_c, 4, 11, 91
6, 200010, Control_c, 4, 11, 92
6, 200040, Control_c, 4, 11, 93
6, 200070, Control_c, 4, 11, 94
6, 200100, Control_c, 4, 11, 95
6, 200120, Control_c, 4, 11, 96
6, 200150, Control_c, 4, 11, 97
6, 200160, Note_on_c, 4, 55, 35
6, 200160, Note_on_c, 4, 62, 35
6, 200180, Control_c, 4, 11, 98
6, 200190, Note_on_c, 4, 48, 0
6, 200190, Note_on_c, 4, 60, 0
6, 200210, Control_c, 4, 11, 99
6, 200230, Control_c, 4, 11, 100
6, 200260, Control_c, 4, 11, 101
6, 200290, Control_c, 4, 11, 102
6, 200320, Control_c, 4, 11, 103
6, 200340, Control_c, 4, 11, 104
6, 200370, Control_c, 4, 11, 105
6, 200400, Note_on_c, 4, 62, 0
6, 200400, Note_on_c, 4, 67, 35
6, 200400, Control_c, 4, 11, 106
6, 200430, Control_c, 4, 11, 107
6, 200450, Control_c, 4, 11, 108
6, 200480, Control_c, 4, 11, 109
6, 200510, Control_c, 4, 11, 110
6, 200540, Control_c, 4, 11, 111
6, 200560, Control_c, 4, 11, 112
6, 200590, Control_c, 4, 11, 113
6, 200610, Note_on_c, 4, 55, 0
6, 200610, Note_on_c, 4, 67, 0
6, 200620, Control_c, 4, 11, 115
6, 200640, Note_on_c, 4, 48, 35
6, 200640, Note_on_c, 4, 60, 35
6, 200880, Note_on_c, 4, 48, 0
6, 200880, Note_on_c, 4, 60, 0
6, 201540, Control_c, 4, 11, 80
6, 214080, Note_on_c, 4, 48, 30
6, 214080, Note_on_c, 4, 60, 30
6, 215010, Note_on_c, 4, 48, 0
6, 215010, Note_on_c, 4, 60, 0
6, 215040, Note_on_c, 4, 48, 30
6, 215040, Note_on_c, 4, 60, 30
6, 215970, Note_on_c, 4, 48, 0
6, 215970, Note_on_c, 4, 60, 0
6, 216000, Note_on_c, 4, 48, 30
6, 216000, Note_on_c, 4, 60, 30
6, 216000, Control_c, 4, 11, 80
6, 216070, Control_c, 4, 11, 81
6, 216140, Control_c, 4, 11, 82
6, 216210, Control_c, 4, 11, 83
6, 216280, Control_c, 4, 11, 84
6, 216350, Control_c, 4, 11, 85
6, 216420, Control_c, 4, 11, 86
6, 216490, Control_c, 4, 11, 87
6, 216560, Control_c, 4, 11, 88
6, 216630, Control_c, 4, 11, 89
6, 216690, Note_on_c, 4, 48, 0
6, 216690, Note_on_c, 4, 60, 0
6, 216700, Control_c, 4, 11, 90
6, 216720, Note_on_c, 4, 48, 30
6, 216720, Note_on_c, 4, 60, 30
6, 216770, Control_c, 4, 11, 91
6, 216840, Control_c, 4, 11, 92
6, 216910, Control_c, 4, 11, 93
6, 216930, Note_on_c, 4, 48, 0
6, 216930, Note_on_c, 4, 60, 0
6, 216960, Note_on_c, 4, 48, 30
6, 216960, Note_on_c, 4, 60, 30
6, 216980, Control_c, 4, 11, 94
6, 217050, Control_c, 4, 11, 95
6, 217120, Control_c, 4, 11, 96
6, 217190, Control_c, 4, 11, 97
6, 217260, Control_c, 4, 11, 98
6, 217330, Control_c, 4, 11, 99
6, 217400, Control_c, 4, 11, 100
6, 217410, Note_on_c, 4, 48, 0
6, 217410, Note_on_c, 4, 60, 0
6, 217440, Note_on_c, 4, 48, 30
6, 217440, Note_on_c, 4, 60, 30
6, 217470, Control_c, 4, 11, 101
6, 217540, Control_c, 4, 11, 102
6, 217610, Control_c, 4, 11, 103
6, 217650, Note_on_c, 4, 48, 0
6, 217650, Note_on_c, 4, 60, 0
6, 217680, Note_on_c, 4, 48, 30
6, 217680, Note_on_c, 4, 60, 30
6, 217680, Control_c, 4, 11, 104
6, 217750, Control_c, 4, 11, 105
6, 217820, Control_c, 4, 11, 106
6, 217890, Note_on_c, 4, 48, 0
6, 217890, Note_on_c, 4, 60, 0
6, 217890, Control_c, 4, 11, 107
6, 217920, Note_on_c, 4, 48, 30
6, 217920, Note_on_c, 4, 60, 30
6, 217960, Control_c, 4, 11, 108
6, 218030, Control_c, 4, 11, 109
6, 218100, Control_c, 4, 11, 110
6, 218130, Note_on_c, 4, 48, 0
6, 218130, Note_on_c, 4, 60, 0
6, 218160, Note_on_c, 4, 48, 30
6, 218160, Note_on_c, 4, 60, 30
6, 218170, Control_c, 4, 11, 111
6, 218240, Control_c, 4, 11, 112
6, 218310, Control_c, 4, 11, 113
6, 218370, Note_on_c, 4, 48, 0
6, 218370, Note_on_c, 4, 60, 0
6, 218380, Control_c, 4, 11, 114
6, 218400, Note_on_c, 4, 48, 30
6, 218400, Note_on_c, 4, 60, 30
6, 218450, Control_c, 4, 11, 115
6, 218520, Control_c, 4, 11, 116
6, 218590, Control_c, 4, 11, 117
6, 218610, Note_on_c, 4, 48, 0
6, 218610, Note_on_c, 4, 60, 0
6, 218640, Note_on_c, 4, 48, 30
6, 218640, Note_on_c, 4, 60, 30
6, 218660, Control_c, 4, 11, 118
6, 218730, Control_c, 4, 11, 119
6, 218800, Control_c, 4, 11, 120
6, 218850, Note_on_c, 4, 48, 0
6, 218850, Note_on_c, 4, 60, 0
6, 218874, Control_c, 4, 11, 80
6, 218880, Note_on_c, 4, 48, 30
6, 218880, Note_on_c, 4, 60, 30
6, 218880, Control_c, 4, 11, 80
6, 218910, Control_c, 4, 11, 81
6, 218930, Control_c, 4, 11, 82
6, 218950, Control_c, 4, 11, 83
6, 218980, Control_c, 4, 11, 84
6, 219000, Control_c, 4, 11, 85
6, 219020, Control_c, 4, 11, 86
6, 219050, Control_c, 4, 11, 87
6, 219070, Control_c, 4, 11, 88
6, 219090, Control_c, 4, 11, 89
6, 219110, Control_c, 4, 11, 90
6, 219140, Control_c, 4, 11, 91
6, 219160, Control_c, 4, 11, 92
6, 219180, Control_c, 4, 11, 93
6, 219210, Control_c, 4, 11, 94
6, 219230, Control_c, 4, 11, 95
6, 219250, Control_c, 4, 11, 96
6, 219270, Control_c, 4, 11, 97
6, 219300, Control_c, 4, 11, 98
6, 219320, Control_c, 4, 11, 99
6, 219340, Control_c, 4, 11, 100
6, 219370, Control_c, 4, 11, 101
6, 219390, Control_c, 4, 11, 102
6, 219410, Control_c, 4, 11, 103
6, 219440, Control_c, 4, 11, 104
6, 219460, Control_c, 4, 11, 105
6, 219480, Control_c, 4, 11, 106
6, 219500, Control_c, 4, 11, 107
6, 219530, Control_c, 4, 11, 108
6, 219550, Control_c, 4, 11, 109
6, 219570, Control_c, 4, 11, 110
6, 219600, Control_c, 4, 11, 111
6, 219620, Control_c, 4, 11, 112
6, 219640, Control_c, 4, 11, 113
6, 219660, Control_c, 4, 11, 114
6, 219690, Control_c, 4, 11, 115
6, 219710, Control_c, 4, 11, 116
6, 219730, Control_c, 4, 11, 117
6, 219760, Control_c, 4, 11, 118
6, 219780, Control_c, 4, 11, 119
6, 219800, Control_c, 4, 11, 120
6, 219810, Note_on_c, 4, 48, 0
6, 219810, Note_on_c, 4, 60, 0
6, 219834, Control_c, 4, 11, 80
6, 220320, Note_on_c, 4, 48, 40
6, 220320, Note_on_c, 4, 60, 40
6, 220560, Note_on_c, 4, 48, 0
6, 220560, Note_on_c, 4, 60, 0
6, 221280, Note_on_c, 4, 48, 40
6, 221280, Note_on_c, 4, 60, 40
6, 221520, Note_on_c, 4, 60, 0
6, 221760, Note_on_c, 4, 47, 40
6, 221790, Note_on_c, 4, 48, 0
6, 222720, Note_on_c, 4, 48, 40
6, 222750, Note_on_c, 4, 47, 0
6, 222960, Note_on_c, 4, 48, 0
6, 223680, Note_on_c, 4, 47, 40
6, 223920, Control_c, 4, 11, 80
6, 223930, Control_c, 4, 11, 81
6, 223940, Control_c, 4, 11, 83
6, 223950, Control_c, 4, 11, 85
6, 223960, Control_c, 4, 11, 86
6, 223970, Control_c, 4, 11, 88
6, 223980, Control_c, 4, 11, 90
6, 223990, Control_c, 4, 11, 91
6, 224000, Control_c, 4, 11, 93
6, 224010, Control_c, 4, 11, 95
6, 224020, Control_c, 4, 11, 96
6, 224030, Control_c, 4, 11, 98
6, 224040, Control_c, 4, 11, 100
6, 224050, Control_c, 4, 11, 101
6, 224060, Control_c, 4, 11, 103
6, 224070, Control_c, 4, 11, 105
6, 224080, Control_c, 4, 11, 106
6, 224090, Control_c, 4, 11, 108
6, 224100, Control_c, 4, 11, 110
6, 224110, Control_c, 4, 11, 111
6, 224120, Control_c, 4, 11, 113
6, 224130, Control_c, 4, 11, 115
6, 224140, Control_c, 4, 11, 116
6, 224150, Control_c, 4, 11, 118
6, 224180, Control_c, 4, 11, 119
6, 224190, Control_c, 4, 11, 118
6, 224200, Control_c, 4, 11, 117
6, 224210, Control_c, 4, 11, 116
6, 224220, Control_c, 4, 11, 115
6, 224240, Control_c, 4, 11, 114
6, 224250, Control_c, 4, 11, 113
6, 224260, Control_c, 4, 11, 112
6, 224270, Control_c, 4, 11, 111
6, 224280, Control_c, 4, 11, 110
6, 224290, Control_c, 4, 11, 109
6, 224310, Control_c, 4, 11, 108
6, 224320, Control_c, 4, 11, 107
6, 224330, Control_c, 4, 11, 106
6, 224340, Control_c, 4, 11, 105
6, 224350, Control_c, 4, 11, 104
6, 224360, Control_c, 4, 11, 103
6, 224380, Control_c, 4, 11, 102
6, 224390, Control_c, 4, 11, 101
6, 224400, Control_c, 4, 11, 100
6, 224410, Control_c, 4, 11, 99
6, 224420, Control_c, 4, 11, 98
6, 224430, Control_c, 4, 11, 97
6, 224450, Control_c, 4, 11, 96
6, 224460, Control_c, 4, 11, 95
6, 224470, Control_c, 4, 11, 94
6, 224480, Control_c, 4, 11, 93
6, 224490, Control_c, 4, 11, 92
6, 224500, Control_c, 4, 11, 91
6, 224520, Control_c, 4, 11, 90
6, 224530, Control_c, 4, 11, 89
6, 224540, Control_c, 4, 11, 88
6, 224550, Control_c, 4, 11, 87
6, 224560, Control_c, 4, 11, 86
6, 224570, Control_c, 4, 11, 85
6, 224590, Control_c, 4, 11, 84
6, 224600, Control_c, 4, 11, 83
6, 224610, Control_c, 4, 11, 82
6, 224620, Control_c, 4, 11, 81
6, 224630, Control_c, 4, 11, 80
6, 224640, Note_on_c, 4, 48, 40
6, 224670, Note_on_c, 4, 47, 0
6, 224880, Note_on_c, 4, 48, 0
6, 225600, Note_on_c, 4, 47, 40
6, 226560, Control_c, 4, 11, 80
6, 226590, Control_c, 4, 11, 81
6, 226610, Control_c, 4, 11, 82
6, 226630, Control_c, 4, 11, 83
6, 226650, Control_c, 4, 11, 84
6, 226670, Control_c, 4, 11, 85
6, 226690, Control_c, 4, 11, 86
6, 226710, Control_c, 4, 11, 87
6, 226730, Control_c, 4, 11, 88
6, 226750, Control_c, 4, 11, 89
6, 226770, Control_c, 4, 11, 90
6, 226790, Control_c, 4, 11, 91
6, 226810, Control_c, 4, 11, 92
6, 226830, Control_c, 4, 11, 93
6, 226850, Control_c, 4, 11, 94
6, 226870, Control_c, 4, 11, 95
6, 226890, Control_c, 4, 11, 96
6, 226910, Control_c, 4, 11, 97
6, 226930, Control_c, 4, 11, 98
6, 226950, Control_c, 4, 11, 99
6, 226970, Control_c, 4, 11, 100
6, 226990, Control_c, 4, 11, 101
6, 227010, Control_c, 4, 11, 102
6, 227030, Control_c, 4, 11, 103
6, 227060, Control_c, 4, 11, 104
6, 227080, Control_c, 4, 11, 105
6, 227100, Control_c, 4, 11, 106
6, 227120, Control_c, 4, 11, 107
6, 227140, Control_c, 4, 11, 108
6, 227160, Control_c, 4, 11, 109
6, 227180, Control_c, 4, 11, 110
6, 227200, Control_c, 4, 11, 111
6, 227220, Control_c, 4, 11, 112
6, 227240, Control_c, 4, 11, 113
6, 227260, Control_c, 4, 11, 114
6, 227280, Control_c, 4, 11, 115
6, 227300, Control_c, 4, 11, 116
6, 227320, Control_c, 4, 11, 117
6, 227340, Control_c, 4, 11, 118
6, 227360, Control_c, 4, 11, 119
6, 227380, Control_c, 4, 11, 120
6, 227400, Control_c, 4, 11, 121
6, 227420, Control_c, 4, 11, 122
6, 227440, Control_c, 4, 11, 123
6, 227460, Control_c, 4, 11, 124
6, 227480, Control_c, 4, 11, 125
6, 227500, Control_c, 4, 11, 126
6, 227520, Control_c, 4, 11, 127
6, 227540, Control_c, 4, 11, 126
6, 227560, Control_c, 4, 11, 125
6, 227580, Control_c, 4, 11, 124
6, 227600, Control_c, 4, 11, 123
6, 227620, Control_c, 4, 11, 122
6, 227640, Control_c, 4, 11, 121
6, 227660, Control_c, 4, 11, 120
6, 227680, Control_c, 4, 11, 119
6, 227700, Control_c, 4, 11, 118
6, 227720, Control_c, 4, 11, 117
6, 227740, Control_c, 4, 11, 116
6, 227760, Control_c, 4, 11, 115
6, 227780, Control_c, 4, 11, 114
6, 227800, Control_c, 4, 11, 113
6, 227820, Control_c, 4, 11, 112
6, 227840, Control_c, 4, 11, 111
6, 227860, Control_c, 4, 11, 110
6, 227880, Control_c, 4, 11, 109
6, 227900, Control_c, 4, 11, 108
6, 227920, Control_c, 4, 11, 107
6, 227940, Control_c, 4, 11, 106
6, 227960, Control_c, 4, 11, 105
6, 227980, Control_c, 4, 11, 104
6, 228000, Control_c, 4, 11, 103
6, 228020, Control_c, 4, 11, 102
6, 228040, Control_c, 4, 11, 101
6, 228060, Control_c, 4, 11, 100
6, 228080, Control_c, 4, 11, 99
6, 228100, Control_c, 4, 11, 98
6, 228120, Control_c, 4, 11, 97
6, 228140, Control_c, 4, 11, 96
6, 228160, Control_c, 4, 11, 95
6, 228180, Control_c, 4, 11, 94
6, 228200, Control_c, 4, 11, 93
6, 228220, Control_c, 4, 11, 92
6, 228240, Control_c, 4, 11, 91
6, 228260, Control_c, 4, 11, 90
6, 228280, Control_c, 4, 11, 89
6, 228300, Control_c, 4, 11, 88
6, 228320, Control_c, 4, 11, 87
6, 228340, Control_c, 4, 11, 86
6, 228360, Control_c, 4, 11, 85
6, 228380, Control_c, 4, 11, 84
6, 228400, Control_c, 4, 11, 83
6, 228420, Control_c, 4, 11, 82
6, 228440, Control_c, 4, 11, 81
6, 228460, Control_c, 4, 11, 80
6, 228480, Note_on_c, 4, 47, 0
6, 232320, Note_on_c, 4, 55, 35
6, 232320, Note_on_c, 4, 62, 35
6, 233280, Note_on_c, 4, 48, 30
6, 233280, Note_on_c, 4, 60, 30
6, 233310, Note_on_c, 4, 55, 0
6, 233310, Note_on_c, 4, 62, 0
6, 233760, Note_on_c, 4, 48, 0
6, 233760, Note_on_c, 4, 60, 0
6, 234240, Note_on_c, 4, 55, 35
6, 234240, Note_on_c, 4, 62, 35
6, 235200, Note_on_c, 4, 48, 30
6, 235200, Note_on_c, 4, 60, 30
6, 235230, Note_on_c, 4, 55, 0
6, 235230, Note_on_c, 4, 62, 0
6, 235680, Note_on_c, 4, 48, 0
6, 235680, Note_on_c, 4, 60, 0
6, 236400, Note_on_c, 4, 48, 40
6, 236400, Note_on_c, 4, 55, 40
6, 236400, Control_c, 4, 11, 80
6, 236410, Control_c, 4, 11, 82
6, 236420, Control_c, 4, 11, 85
6, 236430, Control_c, 4, 11, 87
6, 236440, Control_c, 4, 11, 90
6, 236450, Control_c, 4, 11, 92
6, 236460, Control_c, 4, 11, 95
6, 236470, Control_c, 4, 11, 97
6, 236480, Control_c, 4, 11, 100
6, 236490, Control_c, 4, 11, 102
6, 236500, Control_c, 4, 11, 105
6, 236510, Control_c, 4, 11, 107
6, 236520, Control_c, 4, 11, 110
6, 236540, Control_c, 4, 11, 109
6, 236560, Control_c, 4, 11, 108
6, 236580, Control_c, 4, 11, 107
6, 236600, Control_c, 4, 11, 106
6, 236620, Control_c, 4, 11, 105
6, 236640, Control_c, 4, 11, 104
6, 236660, Control_c, 4, 11, 103
6, 236680, Control_c, 4, 11, 102
6, 236700, Control_c, 4, 11, 101
6, 236720, Control_c, 4, 11, 100
6, 236740, Control_c, 4, 11, 99
6, 236760, Control_c, 4, 11, 98
6, 236780, Control_c, 4, 11, 97
6, 236800, Control_c, 4, 11, 96
6, 236820, Control_c, 4, 11, 95
6, 236830, Control_c, 4, 11, 94
6, 236850, Note_on_c, 4, 48, 0
6, 236850, Note_on_c, 4, 55, 0
6, 236850, Control_c, 4, 11, 93
6, 236870, Control_c, 4, 11, 92
6, 236880, Note_on_c, 4, 48, 40
6, 236880, Note_on_c, 4, 55, 40
6, 236890, Control_c, 4, 11, 91
6, 236910, Control_c, 4, 11, 90
6, 236930, Control_c, 4, 11, 89
6, 236950, Control_c, 4, 11, 88
6, 236970, Control_c, 4, 11, 87
6, 236990, Control_c, 4, 11, 86
6, 237010, Control_c, 4, 11, 85
6, 237030, Control_c, 4, 11, 84
6, 237050, Control_c, 4, 11, 83
6, 237070, Control_c, 4, 11, 82
6, 237090, Note_on_c, 4, 48, 0
6, 237090, Note_on_c, 4, 55, 0
6, 237090, Control_c, 4, 11, 81
6, 237110, Control_c, 4, 11, 80
6, 237120, Note_on_c, 4, 48, 35
6, 237120, Note_on_c, 4, 55, 35
6, 237360, Control_c, 4, 11, 80
6, 237370, Control_c, 4, 11, 79
6, 237380, Control_c, 4, 11, 78
6, 237390, Control_c, 4, 11, 77
6, 237400, Control_c, 4, 11, 76
6, 237410, Control_c, 4, 11, 75
6, 237420, Control_c, 4, 11, 74
6, 237430, Control_c, 4, 11, 73
6, 237440, Control_c, 4, 11, 72
6, 237450, Control_c, 4, 11, 71
6, 237460, Control_c, 4, 11, 70
6, 237470, Control_c, 4, 11, 69
6, 237480, Control_c, 4, 11, 67
6, 237490, Control_c, 4, 11, 66
6, 237500, Control_c, 4, 11, 65
6, 237510, Control_c, 4, 11, 64
6, 237520, Control_c, 4, 11, 63
6, 237530, Control_c, 4, 11, 62
6, 237540, Control_c, 4, 11, 61
6, 237550, Control_c, 4, 11, 60
6, 237560, Control_c, 4, 11, 59
6, 237570, Control_c, 4, 11, 58
6, 237580, Control_c, 4, 11, 57
6, 237590, Control_c, 4, 11, 56
6, 237600, Control_c, 4, 11, 54
6, 237610, Control_c, 4, 11, 53
6, 237620, Control_c, 4, 11, 52
6, 237630, Control_c, 4, 11, 51
6, 237640, Control_c, 4, 11, 50
6, 237650, Control_c, 4, 11, 49
6, 237660, Control_c, 4, 11, 48
6, 237670, Control_c, 4, 11, 47
6, 237680, Control_c, 4, 11, 46
6, 237690, Control_c, 4, 11, 45
6, 237700, Control_c, 4, 11, 44
6, 237710, Control_c, 4, 11, 43
6, 237720, Control_c, 4, 11, 41
6, 237730, Control_c, 4, 11, 40
6, 237740, Control_c, 4, 11, 39
6, 237750, Control_c, 4, 11, 38
6, 237760, Control_c, 4, 11, 37
6, 237770, Control_c, 4, 11, 36
6, 237780, Control_c, 4, 11, 35
6, 237790, Control_c, 4, 11, 34
6, 237800, Control_c, 4, 11, 33
6, 237810, Control_c, 4, 11, 32
6, 237820, Control_c, 4, 11, 31
6, 237830, Control_c, 4, 11, 30
6, 237840, Note_on_c, 4, 48, 0
6, 237840, Note_on_c, 4, 55, 0
6, 237840, End_track
7, 0, Start_track
7, 0, Channel_prefix, 5
7, 0, Title_t, "Horns in Eb"
7, 0, Instrument_name_t, "Corno in Es"
7, 8640, Note_on_c, 5, 63, 35
7, 9570, Note_on_c, 5, 63, 0
7, 9600, Note_on_c, 5, 63, 35
7, 10530, Note_on_c, 5, 63, 0
7, 10560, Note_on_c, 5, 63, 35
7, 11010, Note_on_c, 5, 63, 0
7, 11040, Note_on_c, 5, 63, 35
7, 11250, Note_on_c, 5, 63, 0
7, 11280, Note_on_c, 5, 63, 35
7, 11490, Note_on_c, 5, 63, 0
7, 13440, Control_c, 5, 11, 80
7, 13480, Control_c, 5, 11, 81
7, 13520, Control_c, 5, 11, 82
7, 13560, Control_c, 5, 11, 83
7, 13600, Control_c, 5, 11, 84
7, 13640, Control_c, 5, 11, 85
7, 13680, Control_c, 5, 11, 86
7, 13720, Control_c, 5, 11, 87
7, 13760, Control_c, 5, 11, 88
7, 13800, Control_c, 5, 11, 89
7, 13840, Control_c, 5, 11, 90
7, 13880, Control_c, 5, 11, 91
7, 13920, Control_c, 5, 11, 92
7, 13960, Control_c, 5, 11, 93
7, 14000, Control_c, 5, 11, 94
7, 14040, Control_c, 5, 11, 95
7, 14080, Control_c, 5, 11, 96
7, 14120, Control_c, 5, 11, 97
7, 14160, Control_c, 5, 11, 98
7, 14200, Control_c, 5, 11, 99
7, 14240, Control_c, 5, 11, 100
7, 14280, Control_c, 5, 11, 101
7, 14320, Control_c, 5, 11, 102
7, 14360, Control_c, 5, 11, 103
7, 14400, Control_c, 5, 11, 104
7, 14440, Control_c, 5, 11, 105
7, 14480, Control_c, 5, 11, 106
7, 14520, Control_c, 5, 11, 107
7, 14560, Control_c, 5, 11, 108
7, 14600, Control_c, 5, 11, 109
7, 14640, Note_on_c, 5, 58, 35
7, 14640, Control_c, 5, 11, 110
7, 14670, Control_c, 5, 11, 109
7, 14690, Control_c, 5, 11, 108
7, 14720, Control_c, 5, 11, 107
7, 14740, Control_c, 5, 11, 106
7, 14760, Control_c, 5, 11, 105
7, 14790, Control_c, 5, 11, 104
7, 14810, Control_c, 5, 11, 103
7, 14840, Control_c, 5, 11, 102
7, 14850, Note_on_c, 5, 58, 0
7, 14860, Control_c, 5, 11, 101
7, 14880, Note_on_c, 5, 58, 35
7, 14880, Control_c, 5, 11, 100
7, 14910, Control_c, 5, 11, 99
7, 14930, Control_c, 5, 11, 98
7, 14960, Control_c, 5, 11, 97
7, 14980, Control_c, 5, 11, 96
7, 15000, Control_c, 5, 11, 95
7, 15030, Control_c, 5, 11, 94
7, 15050, Control_c, 5, 11, 93
7, 15080, Control_c, 5, 11, 92
7, 15090, Note_on_c, 5, 58, 0
7, 15100, Control_c, 5, 11, 91
7, 15120, Note_on_c, 5, 58, 35
7, 15120, Control_c, 5, 11, 90
7, 15150, Control_c, 5, 11, 89
7, 15170, Control_c, 5, 11, 88
7, 15200, Control_c, 5, 11, 87
7, 15220, Control_c, 5, 11, 86
7, 15240, Control_c, 5, 11, 85
7, 15270, Control_c, 5, 11, 84
7, 15290, Control_c, 5, 11, 83
7, 15320, Control_c, 5, 11, 82
7, 15330, Note_on_c, 5, 58, 0
7, 15340, Control_c, 5, 11, 80
7, 15360, Note_on_c, 5, 63, 35
7, 15570, Note_on_c, 5, 63, 0
7, 15600, Note_on_c, 5, 63, 35
7, 15780, Note_on_c, 5, 63, 0
7, 15780, Note_on_c, 5, 63, 35
7, 15840, Note_on_c, 5, 63, 0
7, 15840, Note_on_c, 5, 63, 35
7, 16050, Note_on_c, 5, 63, 0
7, 35520, Note_on_c, 5, 63, 40
7, 36470, Note_on_c, 5, 63, 0
7, 36480, Note_on_c, 5, 58, 40
7, 37429, Note_on_c, 5, 58, 0
7, 37440, Note_on_c, 5, 63, 40
7, 37440, Control_c, 5, 11, 80
7, 37510, Control_c, 5, 11, 81
7, 37570, Control_c, 5, 11, 82
7, 37630, Control_c, 5, 11, 83
7, 37690, Control_c, 5, 11, 84
7, 37750, Control_c, 5, 11, 85
7, 37810, Control_c, 5, 11, 86
7, 37880, Control_c, 5, 11, 87
7, 37910, Note_on_c, 5, 63, 0
7, 37920, Note_on_c, 5, 58, 40
7, 37940, Control_c, 5, 11, 88
7, 38000, Control_c, 5, 11, 89
7, 38060, Control_c, 5, 11, 90
7, 38120, Control_c, 5, 11, 91
7, 38180, Control_c, 5, 11, 92
7, 38240, Control_c, 5, 11, 93
7, 38310, Control_c, 5, 11, 94
7, 38370, Control_c, 5, 11, 95
7, 38390, Note_on_c, 5, 58, 0
7, 38400, Note_on_c, 5, 58, 40
7, 38430, Control_c, 5, 11, 96
7, 38490, Control_c, 5, 11, 97
7, 38550, Control_c, 5, 11, 98
7, 38610, Control_c, 5, 11, 100
7, 38660, Note_on_c, 5, 58, 0
7, 38820, Note_on_c, 5, 67, 40
7, 38865, Note_on_c, 5, 67, 0
7, 38880, Note_on_c, 5, 67, 40
7, 39410, Note_on_c, 5, 67, 0
7, 39720, Control_c, 5, 11, 80
7, 39840, Note_on_c, 5, 65, 40
7, 40080, Note_on_c, 5, 63, 40
7, 40095, Note_on_c, 5, 65, 0
7, 40305, Note_on_c, 5, 63, 0
7, 40320, Note_on_c, 5, 63, 40
7, 41025, Note_on_c, 5, 63, 0
7, 41040, Note_on_c, 5, 63, 40
7, 41265, Note_on_c, 5, 63, 0
7, 41280, Note_on_c, 5, 67, 40
7, 41535, Note_on_c, 5, 67, 0
7, 47520, Note_on_c, 5, 65, 30
7, 47970, Note_on_c, 5, 65, 0
7, 48000, Note_on_c, 5, 65, 30
7, 48450, Note_on_c, 5, 65, 0
7, 48480, Note_on_c, 5, 67, 45
7, 48930, Note_on_c, 5, 67, 0
7, 48960, Note_on_c, 5, 65, 30
7, 49200, Note_on_c, 5, 65, 0
7, 49920, Note_on_c, 5, 68, 30
7, 50850, Note_on_c, 5, 68, 0
7, 50880, Note_on_c, 5, 68, 30
7, 50880, Control_c, 5, 11, 80
7, 50920, Control_c, 5, 11, 81
7, 50960, Control_c, 5, 11, 83
7, 51000, Control_c, 5, 11, 85
7, 51040, Control_c, 5, 11, 87
7, 51080, Control_c, 5, 11, 89
7, 51120, Control_c, 5, 11, 91
7, 51150, Control_c, 5, 11, 93
7, 51190, Control_c, 5, 11, 95
7, 51230, Control_c, 5, 11, 97
7, 51270, Control_c, 5, 11, 99
7, 51310, Control_c, 5, 11, 101
7, 51350, Control_c, 5, 11, 103
7, 51380, Control_c, 5, 11, 104
7, 51420, Control_c, 5, 11, 106
7, 51460, Control_c, 5, 11, 108
7, 51500, Control_c, 5, 11, 110
7, 51540, Control_c, 5, 11, 112
7, 51570, Note_on_c, 5, 68, 0
7, 51580, Control_c, 5, 11, 114
7, 51600, Note_on_c, 5, 68, 30
7, 51610, Control_c, 5, 11, 115
7, 51650, Control_c, 5, 11, 117
7, 51690, Control_c, 5, 11, 119
7, 51730, Control_c, 5, 11, 121
7, 51770, Control_c, 5, 11, 123
7, 51810, Note_on_c, 5, 68, 0
7, 51810, Control_c, 5, 11, 125
7, 51840, Note_on_c, 5, 67, 30
7, 51930, Note_on_c, 5, 67, 0
7, 52080, Note_on_c, 5, 65, 30
7, 52170, Note_on_c, 5, 65, 0
7, 52440, Control_c, 5, 11, 80
7, 53040, Note_on_c, 5, 63, 35
7, 53280, Note_on_c, 5, 65, 40
7, 53310, Note_on_c, 5, 63, 0
7, 53490, Note_on_c, 5, 65, 0
7, 53520, Note_on_c, 5, 65, 35
7, 53730, Note_on_c, 5, 65, 0
7, 53760, Note_on_c, 5, 63, 30
7, 54000, Note_on_c, 5, 63, 0
7, 57540, Control_c, 5, 11, 110
7, 58560, Note_on_c, 5, 63, 30
7, 58610, Control_c, 5, 11, 109
7, 58630, Control_c, 5, 11, 108
7, 58650, Control_c, 5, 11, 108
7, 58670, Control_c, 5, 11, 107
7, 58690, Control_c, 5, 11, 106
7, 58710, Control_c, 5, 11, 106
7, 58730, Control_c, 5, 11, 105
7, 58750, Control_c, 5, 11, 105
7, 58770, Control_c, 5, 11, 104
7, 58790, Control_c, 5, 11, 103
7, 58810, Control_c, 5, 11, 103
7, 58830, Control_c, 5, 11, 102
7, 58850, Control_c, 5, 11, 101
7, 58870, Control_c, 5, 11, 101
7, 58890, Control_c, 5, 11, 100
7, 58910, Control_c, 5, 11, 100
7, 58930, Control_c, 5, 11, 99
7, 58950, Control_c, 5, 11, 98
7, 58970, Control_c, 5, 11, 98
7, 58990, Control_c, 5, 11, 97
7, 59010, Control_c, 5, 11, 96
7, 59030, Control_c, 5, 11, 96
7, 59060, Control_c, 5, 11, 95
7, 59080, Control_c, 5, 11, 94
7, 59100, Control_c, 5, 11, 94
7, 59120, Control_c, 5, 11, 93
7, 59140, Control_c, 5, 11, 92
7, 59160, Control_c, 5, 11, 92
7, 59180, Control_c, 5, 11, 91
7, 59200, Control_c, 5, 11, 90
7, 59220, Control_c, 5, 11, 90
7, 59240, Control_c, 5, 11, 89
7, 59260, Control_c, 5, 11, 89
7, 59280, Control_c, 5, 11, 88
7, 59300, Control_c, 5, 11, 87
7, 59320, Control_c, 5, 11, 87
7, 59340, Control_c, 5, 11, 86
7, 59360, Control_c, 5, 11, 85
7, 59380, Control_c, 5, 11, 85
7, 59400, Control_c, 5, 11, 84
7, 59420, Control_c, 5, 11, 84
7, 59440, Control_c, 5, 11, 83
7, 59460, Control_c, 5, 11, 82
7, 59480, Control_c, 5, 11, 81
7, 59490, Note_on_c, 5, 63, 0
7, 59500, Control_c, 5, 11, 80
7, 59520, Note_on_c, 5, 63, 30
7, 59730, Note_on_c, 5, 63, 0
7, 59760, Note_on_c, 5, 67, 30
7, 60210, Note_on_c, 5, 67, 0
7, 60240, Note_on_c, 5, 67, 30
7, 60450, Note_on_c, 5, 67, 0
7, 60480, Note_on_c, 5, 67, 30
7, 60720, Note_on_c, 5, 67, 0
7, 61440, Note_on_c, 5, 63, 30
7, 61650, Note_on_c, 5, 63, 0
7, 61680, Note_on_c, 5, 67, 30
7, 62130, Note_on_c, 5, 67, 0
7, 62160, Note_on_c, 5, 67, 30
7, 62370, Note_on_c, 5, 67, 0
7, 62400, Note_on_c, 5, 67, 30
7, 62640, Note_on_c, 5, 67, 0
7, 64080, Note_on_c, 5, 67, 45
7, 64170, Note_on_c, 5, 67, 0
7, 64320, Note_on_c, 5, 63, 30
7, 64410, Note_on_c, 5, 63, 0
7, 72960, Note_on_c, 5, 67, 70
7, 73590, Note_on_c, 5, 67, 0
7, 73680, Note_on_c, 5, 67, 70
7, 73770, Note_on_c, 5, 67, 0
7, 73920, Note_on_c, 5, 67, 70
7, 74550, Note_on_c, 5, 67, 0
7, 74640, Note_on_c, 5, 67, 70
7, 74730, Note_on_c, 5, 67, 0
7, 74880, Note_on_c, 5, 67, 70
7, 74970, Note_on_c, 5, 67, 0
7, 75120, Note_on_c, 5, 67, 70
7, 75210, Note_on_c, 5, 67, 0
7, 75360, Note_on_c, 5, 67, 70
7, 75450, Note_on_c, 5, 67, 0
7, 75600, Note_on_c, 5, 67, 70
7, 75690, Note_on_c, 5, 67, 0
7, 75840, Note_on_c, 5, 67, 70
7, 75930, Note_on_c, 5, 67, 0
7, 76800, Note_on_c, 5, 58, 30
7, 78450, Note_on_c, 5, 58, 0
7, 78480, Note_on_c, 5, 67, 30
7, 78570, Note_on_c, 5, 67, 0
7, 78720, Note_on_c, 5, 65, 30
7, 78960, Note_on_c, 5, 65, 0
7, 82560, Note_on_c, 5, 67, 30
7, 83010, Note_on_c, 5, 67, 0
7, 83040, Note_on_c, 5, 67, 30
7, 83490, Note_on_c, 5, 67, 0
7, 83520, Note_on_c, 5, 67, 30
7, 83970, Note_on_c, 5, 67, 0
7, 84000, Note_on_c, 5, 67, 30
7, 84450, Note_on_c, 5, 67, 0
7, 84480, Note_on_c, 5, 67, 30
7, 84720, Note_on_c, 5, 67, 0
7, 92240, Note_on_c, 5, 67, 50
7, 92285, Note_on_c, 5, 67, 0
7, 92320, Note_on_c, 5, 67, 51
7, 92365, Note_on_c, 5, 67, 0
7, 92400, Note_on_c, 5, 67, 52
7, 92445, Note_on_c, 5, 67, 0
7, 92480, Note_on_c, 5, 67, 53
7, 92525, Note_on_c, 5, 67, 0
7, 92560, Note_on_c, 5, 67, 54
7, 92605, Note_on_c, 5, 67, 0
7, 92640, Note_on_c, 5, 67, 55
7, 92685, Note_on_c, 5, 67, 0
7, 92720, Note_on_c, 5, 67, 55
7, 92765, Note_on_c, 5, 67, 0
7, 92800, Note_on_c, 5, 67, 56
7, 92845, Note_on_c, 5, 67, 0
7, 92880, Note_on_c, 5, 67, 57
7, 92925, Note_on_c, 5, 67, 0
7, 92960, Note_on_c, 5, 67, 58
7, 93005, Note_on_c, 5, 67, 0
7, 93040, Note_on_c, 5, 67, 59
7, 93085, Note_on_c, 5, 67, 0
7, 93120, Note_on_c, 5, 67, 60
7, 93810, Note_on_c, 5, 67, 0
7, 93840, Note_on_c, 5, 67, 67
7, 94050, Note_on_c, 5, 67, 0
7, 94080, Note_on_c, 5, 67, 70
7, 94710, Note_on_c, 5, 67, 0
7, 94800, Note_on_c, 5, 67, 70
7, 94890, Note_on_c, 5, 67, 0
7, 95040, Note_on_c, 5, 67, 70
7, 95670, Note_on_c, 5, 67, 0
7, 95760, Note_on_c, 5, 67, 70
7, 95850, Note_on_c, 5, 67, 0
7, 96000, Note_on_c, 5, 67, 70
7, 96090, Note_on_c, 5, 67, 0
7, 96240, Note_on_c, 5, 67, 70
7, 96330, Note_on_c, 5, 67, 0
7, 96480, Note_on_c, 5, 67, 70
7, 96570, Note_on_c, 5, 67, 0
7, 96720, Note_on_c, 5, 67, 70
7, 96810, Note_on_c, 5, 67, 0
7, 96960, Note_on_c, 5, 63, 70
7, 97050, Note_on_c, 5, 63, 0
7, 124800, Note_on_c, 5, 65, 70
7, 125730, Note_on_c, 5, 65, 0
7, 125760, Note_on_c, 5, 58, 70
7, 126690, Note_on_c, 5, 58, 0
7, 126720, Note_on_c, 5, 58, 70
7, 127410, Note_on_c, 5, 58, 0
7, 127440, Note_on_c, 5, 67, 70
7, 127650, Note_on_c, 5, 67, 0
7, 127680, Note_on_c, 5, 68, 75
7, 127920, Note_on_c, 5, 68, 0
7, 128160, Note_on_c, 5, 65, 75
7, 128850, Note_on_c, 5, 65, 0
7, 128880, Note_on_c, 5, 58, 85
7, 129120, Control_c, 5, 11, 127
7, 129330, Note_on_c, 5, 58, 0
7, 129360, Note_on_c, 5, 58, 85
7, 129570, Note_on_c, 5, 58, 0
7, 129600, Note_on_c, 5, 63, 85
7, 130050, Note_on_c, 5, 63, 0
7, 130080, Note_on_c, 5, 65, 85
7, 130290, Note_on_c, 5, 65, 0
7, 130320, Note_on_c, 5, 67, 85
7, 130530, Note_on_c, 5, 67, 0
7, 130560, Note_on_c, 5, 68, 85
7, 131250, Note_on_c, 5, 68, 0
7, 131280, Note_on_c, 5, 67, 85
7, 131490, Note_on_c, 5, 67, 0
7, 131520, Note_on_c, 5, 65, 85
7, 131970, Note_on_c, 5, 65, 0
7, 132000, Note_on_c, 5, 67, 85
7, 132210, Note_on_c, 5, 67, 0
7, 132240, Note_on_c, 5, 68, 85
7, 132450, Note_on_c, 5, 68, 0
7, 132480, Note_on_c, 5, 70, 85
7, 133170, Note_on_c, 5, 70, 0
7, 133200, Note_on_c, 5, 68, 85
7, 133410, Note_on_c, 5, 68, 0
7, 133440, Note_on_c, 5, 67, 85
7, 133890, Note_on_c, 5, 67, 0
7, 133920, Note_on_c, 5, 55, 85
7, 134130, Note_on_c, 5, 55, 0
7, 134160, Note_on_c, 5, 55, 85
7, 134340, Control_c, 5, 11, 80
7, 134370, Note_on_c, 5, 55, 0
7, 134400, Note_on_c, 5, 55, 85
7, 134640, Note_on_c, 5, 55, 0
7, 135840, Note_on_c, 5, 68, 70
7, 136770, Note_on_c, 5, 68, 0
7, 136800, Note_on_c, 5, 65, 70
7, 137490, Note_on_c, 5, 65, 0
7, 137520, Note_on_c, 5, 67, 70
7, 137730, Note_on_c, 5, 67, 0
7, 137760, Note_on_c, 5, 67, 70
7, 138450, Note_on_c, 5, 67, 0
7, 138480, Note_on_c, 5, 55, 70
7, 138690, Note_on_c, 5, 55, 0
7, 138720, Note_on_c, 5, 58, 70
7, 138930, Note_on_c, 5, 58, 0
7, 138960, Note_on_c, 5, 55, 70
7, 139170, Note_on_c, 5, 55, 0
7, 143280, Note_on_c, 5, 58, 70
7, 143370, Note_on_c, 5, 58, 0
7, 143520, Note_on_c, 5, 58, 70
7, 143610, Note_on_c, 5, 58, 0
7, 143760, Note_on_c, 5, 58, 70
7, 143850, Note_on_c, 5, 58, 0
7, 144000, Note_on_c, 5, 58, 70
7, 144090, Note_on_c, 5, 58, 0
7, 153600, Note_on_c, 5, 63, 70
7, 154530, Note_on_c, 5, 63, 0
7, 154560, Note_on_c, 5, 63, 70
7, 155010, Note_on_c, 5, 63, 0
7, 155040, Note_on_c, 5, 63, 70
7, 155430, Note_on_c, 5, 63, 0
7, 155460, Note_on_c, 5, 63, 70
7, 155505, Note_on_c, 5, 63, 0
7, 155520, Note_on_c, 5, 63, 70
7, 156450, Note_on_c, 5, 63, 0
7, 156480, Note_on_c, 5, 63, 70
7, 156930, Note_on_c, 5, 63, 0
7, 156960, Note_on_c, 5, 63, 70
7, 157350, Note_on_c, 5, 63, 0
7, 157380, Note_on_c, 5, 63, 70
7, 157425, Note_on_c, 5, 63, 0
7, 157440, Note_on_c, 5, 63, 70
7, 158610, Note_on_c, 5, 63, 0
7, 158640, Note_on_c, 5, 63, 70
7, 158850, Note_on_c, 5, 63, 0
7, 158880, Note_on_c, 5, 63, 70
7, 159090, Note_on_c, 5, 63, 0
7, 159120, Note_on_c, 5, 63, 70
7, 159330, Note_on_c, 5, 63, 0
7, 159360, Note_on_c, 5, 68, 70
7, 160530, Note_on_c, 5, 68, 0
7, 160560, Note_on_c, 5, 68, 70
7, 160770, Note_on_c, 5, 68, 0
7, 160800, Note_on_c, 5, 68, 70
7, 161010, Note_on_c, 5, 68, 0
7, 161040, Note_on_c, 5, 68, 70
7, 161250, Note_on_c, 5, 68, 0
7, 161280, Note_on_c, 5, 68, 70
7, 161520, Note_on_c, 5, 68, 0
7, 166320, Note_on_c, 5, 63, 35
7, 166470, Note_on_c, 5, 63, 0
7, 166500, Note_on_c, 5, 63, 35
7, 166545, Note_on_c, 5, 63, 0
7, 166560, Note_on_c, 5, 63, 35
7, 166770, Note_on_c, 5, 63, 0
7, 166800, Note_on_c, 5, 63, 35
7, 167010, Note_on_c, 5, 63, 0
7, 167280, Note_on_c, 5, 63, 35
7, 167430, Note_on_c, 5, 63, 0
7, 167460, Note_on_c, 5, 63, 35
7, 167505, Note_on_c, 5, 63, 0
7, 167520, Note_on_c, 5, 63, 35
7, 167730, Note_on_c, 5, 63, 0
7, 167760, Note_on_c, 5, 63, 35
7, 167970, Note_on_c, 5, 63, 0
7, 168240, Note_on_c, 5, 63, 35
7, 168390, Note_on_c, 5, 63, 0
7, 168420, Note_on_c, 5, 63, 35
7, 168465, Note_on_c, 5, 63, 0
7, 168480, Note_on_c, 5, 63, 35
7, 168690, Note_on_c, 5, 63, 0
7, 168720, Note_on_c, 5, 63, 35
7, 168930, Note_on_c, 5, 63, 0
7, 169200, Note_on_c, 5, 63, 35
7, 169350, Note_on_c, 5, 63, 0
7, 169380, Note_on_c, 5, 63, 35
7, 169425, Note_on_c, 5, 63, 0
7, 170160, Note_on_c, 5, 68, 35
7, 170310, Note_on_c, 5, 68, 0
7, 170340, Note_on_c, 5, 68, 35
7, 170385, Note_on_c, 5, 68, 0
7, 170400, Note_on_c, 5, 68, 35
7, 170610, Note_on_c, 5, 68, 0
7, 170640, Note_on_c, 5, 68, 35
7, 170850, Note_on_c, 5, 68, 0
7, 170880, Control_c, 5, 11, 80
7, 170910, Control_c, 5, 11, 81
7, 170930, Control_c, 5, 11, 82
7, 170950, Control_c, 5, 11, 83
7, 170970, Control_c, 5, 11, 84
7, 170990, Control_c, 5, 11, 85
7, 171010, Control_c, 5, 11, 86
7, 171030, Control_c, 5, 11, 87
7, 171050, Control_c, 5, 11, 88
7, 171070, Control_c, 5, 11, 89
7, 171090, Control_c, 5, 11, 90
7, 171110, Control_c, 5, 11, 91
7, 171120, Note_on_c, 5, 68, 35
7, 171130, Control_c, 5, 11, 92
7, 171150, Control_c, 5, 11, 93
7, 171170, Control_c, 5, 11, 94
7, 171190, Control_c, 5, 11, 95
7, 171210, Control_c, 5, 11, 96
7, 171230, Control_c, 5, 11, 97
7, 171250, Control_c, 5, 11, 98
7, 171270, Note_on_c, 5, 68, 0
7, 171270, Control_c, 5, 11, 99
7, 171290, Control_c, 5, 11, 100
7, 171300, Note_on_c, 5, 68, 35
7, 171310, Control_c, 5, 11, 101
7, 171330, Control_c, 5, 11, 102
7, 171345, Note_on_c, 5, 68, 0
7, 171350, Control_c, 5, 11, 103
7, 171360, Note_on_c, 5, 68, 35
7, 171380, Control_c, 5, 11, 104
7, 171400, Control_c, 5, 11, 105
7, 171420, Control_c, 5, 11, 106
7, 171440, Control_c, 5, 11, 107
7, 171460, Control_c, 5, 11, 108
7, 171480, Control_c, 5, 11, 109
7, 171500, Control_c, 5, 11, 110
7, 171520, Control_c, 5, 11, 111
7, 171540, Control_c, 5, 11, 112
7, 171560, Control_c, 5, 11, 113
7, 171570, Note_on_c, 5, 68, 0
7, 171580, Control_c, 5, 11, 114
7, 171600, Note_on_c, 5, 68, 35
7, 171600, Control_c, 5, 11, 115
7, 171620, Control_c, 5, 11, 116
7, 171640, Control_c, 5, 11, 117
7, 171660, Control_c, 5, 11, 118
7, 171680, Control_c, 5, 11, 119
7, 171700, Control_c, 5, 11, 120
7, 171720, Control_c, 5, 11, 121
7, 171740, Control_c, 5, 11, 122
7, 171760, Control_c, 5, 11, 123
7, 171780, Control_c, 5, 11, 124
7, 171800, Control_c, 5, 11, 125
7, 171810, Note_on_c, 5, 68, 0
7, 171820, Control_c, 5, 11, 126
7, 171840, Note_on_c, 5, 68, 35
7, 171840, Control_c, 5, 11, 127
7, 171860, Control_c, 5, 11, 126
7, 171880, Control_c, 5, 11, 125
7, 171900, Control_c, 5, 11, 124
7, 171920, Control_c, 5, 11, 123
7, 171940, Control_c, 5, 11, 122
7, 171960, Control_c, 5, 11, 121
7, 171980, Control_c, 5, 11, 120
7, 172000, Control_c, 5, 11, 119
7, 172020, Control_c, 5, 11, 118
7, 172040, Control_c, 5, 11, 117
7, 172050, Note_on_c, 5, 68, 0
7, 172060, Control_c, 5, 11, 116
7, 172080, Note_on_c, 5, 58, 35
7, 172080, Control_c, 5, 11, 115
7, 172100, Control_c, 5, 11, 114
7, 172120, Control_c, 5, 11, 113
7, 172140, Control_c, 5, 11, 112
7, 172160, Control_c, 5, 11, 111
7, 172180, Control_c, 5, 11, 110
7, 172200, Control_c, 5, 11, 109
7, 172220, Control_c, 5, 11, 108
7, 172230, Note_on_c, 5, 58, 0
7, 172240, Control_c, 5, 11, 107
7, 172260, Note_on_c, 5, 58, 35
7, 172260, Control_c, 5, 11, 106
7, 172280, Control_c, 5, 11, 105
7, 172300, Control_c, 5, 11, 104
7, 172305, Note_on_c, 5, 58, 0
7, 172320, Note_on_c, 5, 58, 35
7, 172320, Control_c, 5, 11, 103
7, 172340, Control_c, 5, 11, 102
7, 172360, Control_c, 5, 11, 101
7, 172380, Control_c, 5, 11, 100
7, 172400, Control_c, 5, 11, 99
7, 172420, Control_c, 5, 11, 98
7, 172440, Control_c, 5, 11, 97
7, 172460, Control_c, 5, 11, 96
7, 172480, Control_c, 5, 11, 95
7, 172500, Control_c, 5, 11, 94
7, 172520, Control_c, 5, 11, 93
7, 172530, Note_on_c, 5, 58, 0
7, 172540, Control_c, 5, 11, 92
7, 172560, Note_on_c, 5, 58, 35
7, 172560, Control_c, 5, 11, 91
7, 172580, Control_c, 5, 11, 90
7, 172600, Control_c, 5, 11, 89
7, 172620, Control_c, 5, 11, 88
7, 172640, Control_c, 5, 11, 87
7, 172660, Control_c, 5, 11, 86
7, 172680, Control_c, 5, 11, 85
7, 172700, Control_c, 5, 11, 84
7, 172710, Note_on_c, 5, 58, 0
7, 172720, Control_c, 5, 11, 83
7, 172740, Note_on_c, 5, 58, 35
7, 172740, Control_c, 5, 11, 82
7, 172760, Control_c, 5, 11, 81
7, 172780, Control_c, 5, 11, 80
7, 172785, Note_on_c, 5, 58, 0
7, 172800, Note_on_c, 5, 63, 35
7, 173010, Note_on_c, 5, 63, 0
7, 173040, Note_on_c, 5, 63, 35
7, 173190, Note_on_c, 5, 63, 0
7, 173220, Note_on_c, 5, 63, 35
7, 173265, Note_on_c, 5, 63, 0
7, 173280, Note_on_c, 5, 63, 35
7, 173520, Note_on_c, 5, 63, 0
7, 173760, Note_on_c, 5, 63, 35
7, 174690, Note_on_c, 5, 63, 0
7, 174720, Note_on_c, 5, 63, 35
7, 174720, Control_c, 5, 11, 80
7, 174770, Control_c, 5, 11, 81
7, 174820, Control_c, 5, 11, 82
7, 174870, Control_c, 5, 11, 83
7, 174920, Control_c, 5, 11, 84
7, 174960, Control_c, 5, 11, 85
7, 175010, Control_c, 5, 11, 86
7, 175060, Control_c, 5, 11, 87
7, 175110, Control_c, 5, 11, 88
7, 175160, Control_c, 5, 11, 89
7, 175200, Control_c, 5, 11, 90
7, 175250, Control_c, 5, 11, 91
7, 175300, Control_c, 5, 11, 92
7, 175350, Control_c, 5, 11, 93
7, 175400, Control_c, 5, 11, 94
7, 175440, Control_c, 5, 11, 95
7, 175490, Control_c, 5, 11, 96
7, 175540, Control_c, 5, 11, 97
7, 175590, Control_c, 5, 11, 98
7, 175640, Control_c, 5, 11, 99
7, 175650, Note_on_c, 5, 63, 0
7, 175680, Note_on_c, 5, 58, 35
7, 175680, Control_c, 5, 11, 100
7, 175730, Control_c, 5, 11, 99
7, 175780, Control_c, 5, 11, 98
7, 175820, Control_c, 5, 11, 97
7, 175870, Control_c, 5, 11, 96
7, 175910, Control_c, 5, 11, 95
7, 175960, Control_c, 5, 11, 94
7, 176000, Control_c, 5, 11, 93
7, 176050, Control_c, 5, 11, 92
7, 176100, Control_c, 5, 11, 91
7, 176140, Control_c, 5, 11, 90
7, 176190, Control_c, 5, 11, 89
7, 176230, Control_c, 5, 11, 88
7, 176280, Control_c, 5, 11, 87
7, 176320, Control_c, 5, 11, 86
7, 176370, Control_c, 5, 11, 85
7, 176420, Control_c, 5, 11, 84
7, 176460, Control_c, 5, 11, 83
7, 176510, Control_c, 5, 11, 82
7, 176550, Control_c, 5, 11, 81
7, 176600, Control_c, 5, 11, 80
7, 176610, Note_on_c, 5, 58, 0
7, 177600, Note_on_c, 5, 67, 35
7, 178080, Note_on_c, 5, 65, 35
7, 178110, Note_on_c, 5, 67, 0
7, 178320, Note_on_c, 5, 63, 35
7, 178350, Note_on_c, 5, 65, 0
7, 178530, Note_on_c, 5, 63, 0
7, 178560, Note_on_c, 5, 63, 35
7, 179010, Note_on_c, 5, 63, 0
7, 179040, Note_on_c, 5, 63, 35
7, 179040, Control_c, 5, 11, 80
7, 179050, Control_c, 5, 11, 83
7, 179060, Control_c, 5, 11, 87
7, 179070, Control_c, 5, 11, 91
7, 179080, Control_c, 5, 11, 95
7, 179090, Control_c, 5, 11, 99
7, 179100, Control_c, 5, 11, 103
7, 179110, Control_c, 5, 11, 107
7, 179120, Control_c, 5, 11, 111
7, 179140, Control_c, 5, 11, 115
7, 179160, Control_c, 5, 11, 114
7, 179170, Control_c, 5, 11, 113
7, 179180, Control_c, 5, 11, 112
7, 179190, Control_c, 5, 11, 111
7, 179200, Control_c, 5, 11, 110
7, 179210, Control_c, 5, 11, 109
7, 179220, Control_c, 5, 11, 108
7, 179230, Control_c, 5, 11, 107
7, 179240, Control_c, 5, 11, 106
7, 179250, Control_c, 5, 11, 105
7, 179260, Control_c, 5, 11, 104
7, 179270, Control_c, 5, 11, 103
7, 179280, Control_c, 5, 11, 102
7, 179290, Control_c, 5, 11, 101
7, 179300, Control_c, 5, 11, 100
7, 179310, Control_c, 5, 11, 99
7, 179320, Control_c, 5, 11, 98
7, 179330, Control_c, 5, 11, 97
7, 179340, Control_c, 5, 11, 96
7, 179350, Control_c, 5, 11, 95
7, 179360, Control_c, 5, 11, 94
7, 179370, Control_c, 5, 11, 93
7, 179380, Control_c, 5, 11, 92
7, 179390, Control_c, 5, 11, 91
7, 179400, Control_c, 5, 11, 90
7, 179410, Control_c, 5, 11, 89
7, 179420, Control_c, 5, 11, 88
7, 179430, Control_c, 5, 11, 87
7, 179440, Control_c, 5, 11, 86
7, 179450, Control_c, 5, 11, 85
7, 179460, Control_c, 5, 11, 84
7, 179470, Control_c, 5, 11, 83
7, 179480, Control_c, 5, 11, 82
7, 179490, Note_on_c, 5, 63, 0
7, 179490, Control_c, 5, 11, 81
7, 179500, Control_c, 5, 11, 80
7, 179520, Note_on_c, 5, 67, 35
7, 179760, Note_on_c, 5, 67, 0
7, 186720, Note_on_c, 5, 67, 45
7, 187170, Note_on_c, 5, 67, 0
7, 187200, Note_on_c, 5, 65, 35
7, 187410, Note_on_c, 5, 65, 0
7, 187440, Note_on_c, 5, 68, 35
7, 187601, Note_on_c, 5, 68, 0
7, 187620, Note_on_c, 5, 68, 35
7, 187661, Note_on_c, 5, 68, 0
7, 187680, Note_on_c, 5, 68, 35
7, 187890, Note_on_c, 5, 68, 0
7, 187920, Note_on_c, 5, 68, 35
7, 188130, Note_on_c, 5, 68, 0
7, 188400, Note_on_c, 5, 68, 35
7, 188561, Note_on_c, 5, 68, 0
7, 188580, Note_on_c, 5, 68, 35
7, 188621, Note_on_c, 5, 68, 0
7, 188640, Note_on_c, 5, 68, 35
7, 188850, Note_on_c, 5, 68, 0
7, 188880, Note_on_c, 5, 68, 35
7, 189090, Note_on_c, 5, 68, 0
7, 189360, Note_on_c, 5, 68, 38
7, 189521, Note_on_c, 5, 68, 0
7, 189540, Note_on_c, 5, 68, 41
7, 189581, Note_on_c, 5, 68, 0
7, 189600, Note_on_c, 5, 68, 42
7, 189810, Note_on_c, 5, 68, 0
7, 189840, Note_on_c, 5, 68, 46
7, 190001, Note_on_c, 5, 68, 0
7, 190020, Note_on_c, 5, 68, 49
7, 190061, Note_on_c, 5, 68, 0
7, 190080, Note_on_c, 5, 67, 65
7, 190170, Note_on_c, 5, 67, 0
7, 190320, Note_on_c, 5, 65, 65
7, 190410, Note_on_c, 5, 65, 0
7, 190800, Note_on_c, 5, 63, 40
7, 191250, Note_on_c, 5, 63, 0
7, 191280, Note_on_c, 5, 67, 38
7, 191730, Note_on_c, 5, 67, 0
7, 191760, Note_on_c, 5, 67, 36
7, 191970, Note_on_c, 5, 67, 0
7, 192000, Note_on_c, 5, 67, 35
7, 192240, Note_on_c, 5, 67, 0
7, 197760, Note_on_c, 5, 63, 35
7, 198240, Note_on_c, 5, 65, 35
7, 198270, Note_on_c, 5, 63, 0
7, 198720, Note_on_c, 5, 63, 35
7, 198750, Note_on_c, 5, 65, 0
7, 198960, Note_on_c, 5, 63, 0
7, 199320, Note_on_c, 5, 63, 35
7, 199410, Note_on_c, 5, 63, 0
7, 199440, Note_on_c, 5, 63, 35
7, 199530, Note_on_c, 5, 63, 0
7, 199560, Note_on_c, 5, 63, 35
7, 199650, Note_on_c, 5, 63, 0
7, 199680, Note_on_c, 5, 63, 35
7, 199680, Control_c, 5, 11, 80
7, 199710, Control_c, 5, 11, 81
7, 199740, Control_c, 5, 11, 82
7, 199770, Control_c, 5, 11, 83
7, 199790, Control_c, 5, 11, 84
7, 199820, Control_c, 5, 11, 85
7, 199850, Control_c, 5, 11, 86
7, 199880, Control_c, 5, 11, 87
7, 199900, Control_c, 5, 11, 88
7, 199930, Control_c, 5, 11, 89
7, 199960, Control_c, 5, 11, 90
7, 199990, Control_c, 5, 11, 91
7, 200010, Control_c, 5, 11, 92
7, 200040, Control_c, 5, 11, 93
7, 200070, Control_c, 5, 11, 94
7, 200100, Control_c, 5, 11, 95
7, 200120, Control_c, 5, 11, 96
7, 200150, Control_c, 5, 11, 97
7, 200160, Note_on_c, 5, 65, 35
7, 200180, Control_c, 5, 11, 98
7, 200190, Note_on_c, 5, 63, 0
7, 200210, Control_c, 5, 11, 99
7, 200230, Control_c, 5, 11, 100
7, 200260, Control_c, 5, 11, 101
7, 200290, Control_c, 5, 11, 102
7, 200320, Control_c, 5, 11, 103
7, 200340, Control_c, 5, 11, 104
7, 200370, Control_c, 5, 11, 105
7, 200400, Control_c, 5, 11, 106
7, 200430, Control_c, 5, 11, 107
7, 200450, Control_c, 5, 11, 108
7, 200480, Control_c, 5, 11, 109
7, 200510, Control_c, 5, 11, 110
7, 200540, Control_c, 5, 11, 111
7, 200560, Control_c, 5, 11, 112
7, 200590, Control_c, 5, 11, 113
7, 200610, Note_on_c, 5, 65, 0
7, 200620, Control_c, 5, 11, 115
7, 200640, Note_on_c, 5, 63, 35
7, 200880, Note_on_c, 5, 63, 0
7, 201540, Control_c, 5, 11, 80
7, 236400, Note_on_c, 5, 63, 35
7, 236400, Control_c, 5, 11, 80
7, 236410, Control_c, 5, 11, 82
7, 236420, Control_c, 5, 11, 85
7, 236430, Control_c, 5, 11, 87
7, 236440, Control_c, 5, 11, 90
7, 236450, Control_c, 5, 11, 92
7, 236460, Control_c, 5, 11, 95
7, 236470, Control_c, 5, 11, 97
7, 236480, Control_c, 5, 11, 100
7, 236490, Control_c, 5, 11, 102
7, 236500, Control_c, 5, 11, 105
7, 236510, Control_c, 5, 11, 107
7, 236520, Control_c, 5, 11, 110
7, 236540, Control_c, 5, 11, 109
7, 236560, Control_c, 5, 11, 108
7, 236580, Control_c, 5, 11, 107
7, 236600, Control_c, 5, 11, 106
7, 236620, Control_c, 5, 11, 105
7, 236640, Control_c, 5, 11, 104
7, 236660, Control_c, 5, 11, 103
7, 236680, Control_c, 5, 11, 102
7, 236700, Control_c, 5, 11, 101
7, 236720, Control_c, 5, 11, 100
7, 236740, Control_c, 5, 11, 99
7, 236760, Control_c, 5, 11, 98
7, 236780, Control_c, 5, 11, 97
7, 236800, Control_c, 5, 11, 96
7, 236820, Control_c, 5, 11, 95
7, 236830, Control_c, 5, 11, 94
7, 236850, Note_on_c, 5, 63, 0
7, 236850, Control_c, 5, 11, 93
7, 236870, Control_c, 5, 11, 92
7, 236880, Note_on_c, 5, 63, 35
7, 236890, Control_c, 5, 11, 91
7, 236910, Control_c, 5, 11, 90
7, 236930, Control_c, 5, 11, 89
7, 236950, Control_c, 5, 11, 88
7, 236970, Control_c, 5, 11, 87
7, 236990, Control_c, 5, 11, 86
7, 237010, Control_c, 5, 11, 85
7, 237030, Control_c, 5, 11, 84
7, 237050, Control_c, 5, 11, 83
7, 237070, Control_c, 5, 11, 82
7, 237090, Note_on_c, 5, 63, 0
7, 237090, Control_c, 5, 11, 81
7, 237110, Control_c, 5, 11, 80
7, 237120, Note_on_c, 5, 63, 30
7, 237360, Control_c, 5, 11, 80
7, 237370, Control_c, 5, 11, 79
7, 237380, Control_c, 5, 11, 78
7, 237390, Control_c, 5, 11, 77
7, 237400, Control_c, 5, 11, 76
7, 237410, Control_c, 5, 11, 75
7, 237420, Control_c, 5, 11, 74
7, 237430, Control_c, 5, 11, 73
7, 237440, Control_c, 5, 11, 72
7, 237450, Control_c, 5, 11, 71
7, 237460, Control_c, 5, 11, 70
7, 237470, Control_c, 5, 11, 69
7, 237480, Control_c, 5, 11, 67
7, 237490, Control_c, 5, 11, 66
7, 237500, Control_c, 5, 11, 65
7, 237510, Control_c, 5, 11, 64
7, 237520, Control_c, 5, 11, 63
7, 237530, Control_c, 5, 11, 62
7, 237540, Control_c, 5, 11, 61
7, 237550, Control_c, 5, 11, 60
7, 237560, Control_c, 5, 11, 59
7, 237570, Control_c, 5, 11, 58
7, 237580, Control_c, 5, 11, 57
7, 237590, Control_c, 5, 11, 56
7, 237600, Control_c, 5, 11, 54
7, 237610, Control_c, 5, 11, 53
7, 237620, Control_c, 5, 11, 52
7, 237630, Control_c, 5, 11, 51
7, 237640, Control_c, 5, 11, 50
7, 237650, Control_c, 5, 11, 49
7, 237660, Control_c, 5, 11, 48
7, 237670, Control_c, 5, 11, 47
7, 237680, Control_c, 5, 11, 46
7, 237690, Control_c, 5, 11, 45
7, 237700, Control_c, 5, 11, 44
7, 237710, Control_c, 5, 11, 43
7, 237720, Control_c, 5, 11, 41
7, 237730, Control_c, 5, 11, 40
7, 237740, Control_c, 5, 11, 39
7, 237750, Control_c, 5, 11, 38
7, 237760, Control_c, 5, 11, 37
7, 237770, Control_c, 5, 11, 36
7, 237780, Control_c, 5, 11, 35
7, 237790, Control_c, 5, 11, 34
7, 237800, Control_c, 5, 11, 33
7, 237810, Control_c, 5, 11, 32
7, 237820, Control_c, 5, 11, 31
7, 237830, Control_c, 5, 11, 30
7, 237840, Note_on_c, 5, 63, 0
7, 237840, End_track
8, 0, Start_track
8, 0, Channel_prefix, 6
8, 0, Title_t, "Trumpet "
8, 0, Instrument_name_t, "Trombe in C"
8, 72960, Note_on_c, 6, 55, 80
8, 72960, Note_on_c, 6, 67, 80
8, 73590, Note_on_c, 6, 55, 0
8, 73590, Note_on_c, 6, 67, 0
8, 73680, Note_on_c, 6, 55, 80
8, 73680, Note_on_c, 6, 67, 80
8, 73770, Note_on_c, 6, 55, 0
8, 73770, Note_on_c, 6, 67, 0
8, 73920, Note_on_c, 6, 55, 80
8, 73920, Note_on_c, 6, 67, 80
8, 74550, Note_on_c, 6, 55, 0
8, 74550, Note_on_c, 6, 67, 0
8, 74640, Note_on_c, 6, 55, 80
8, 74640, Note_on_c, 6, 67, 80
8, 74730, Note_on_c, 6, 55, 0
8, 74730, Note_on_c, 6, 67, 0
8, 74880, Note_on_c, 6, 55, 80
8, 74880, Note_on_c, 6, 67, 80
8, 74970, Note_on_c, 6, 55, 0
8, 74970, Note_on_c, 6, 67, 0
8, 75120, Note_on_c, 6, 55, 80
8, 75120, Note_on_c, 6, 67, 80
8, 75210, Note_on_c, 6, 55, 0
8, 75210, Note_on_c, 6, 67, 0
8, 75360, Note_on_c, 6, 55, 80
8, 75360, Note_on_c, 6, 67, 80
8, 75450, Note_on_c, 6, 55, 0
8, 75450, Note_on_c, 6, 67, 0
8, 75600, Note_on_c, 6, 55, 80
8, 75600, Note_on_c, 6, 67, 80
8, 75690, Note_on_c, 6, 55, 0
8, 75690, Note_on_c, 6, 67, 0
8, 75840, Note_on_c, 6, 55, 80
8, 75840, Note_on_c, 6, 67, 80
8, 75930, Note_on_c, 6, 55, 0
8, 75930, Note_on_c, 6, 67, 0
8, 87600, Note_on_c, 6, 60, 30
8, 87600, Note_on_c, 6, 72, 30
8, 87765, Note_on_c, 6, 60, 0
8, 87765, Note_on_c, 6, 72, 0
8, 87780, Note_on_c, 6, 60, 30
8, 87780, Note_on_c, 6, 72, 30
8, 87825, Note_on_c, 6, 60, 0
8, 87825, Note_on_c, 6, 72, 0
8, 87840, Note_on_c, 6, 60, 30
8, 87840, Note_on_c, 6, 72, 30
8, 88050, Note_on_c, 6, 60, 0
8, 88050, Note_on_c, 6, 72, 0
8, 88080, Note_on_c, 6, 60, 30
8, 88080, Note_on_c, 6, 72, 30
8, 88290, Note_on_c, 6, 60, 0
8, 88290, Note_on_c, 6, 72, 0
8, 88320, Note_on_c, 6, 60, 30
8, 88320, Note_on_c, 6, 72, 30
8, 88530, Note_on_c, 6, 60, 0
8, 88530, Note_on_c, 6, 72, 0
8, 89520, Note_on_c, 6, 60, 30
8, 89520, Note_on_c, 6, 72, 30
8, 89685, Note_on_c, 6, 60, 0
8, 89685, Note_on_c, 6, 72, 0
8, 89700, Note_on_c, 6, 60, 33
8, 89700, Note_on_c, 6, 72, 33
8, 89745, Note_on_c, 6, 60, 0
8, 89745, Note_on_c, 6, 72, 0
8, 89760, Note_on_c, 6, 60, 34
8, 89760, Note_on_c, 6, 72, 34
8, 89970, Note_on_c, 6, 60, 0
8, 89970, Note_on_c, 6, 72, 0
8, 90000, Note_on_c, 6, 60, 39
8, 90000, Note_on_c, 6, 72, 39
8, 90210, Note_on_c, 6, 60, 0
8, 90210, Note_on_c, 6, 72, 0
8, 90240, Note_on_c, 6, 60, 43
8, 90240, Note_on_c, 6, 72, 43
8, 90450, Note_on_c, 6, 60, 0
8, 90450, Note_on_c, 6, 72, 0
8, 90480, Note_on_c, 6, 60, 48
8, 90480, Note_on_c, 6, 72, 48
8, 90690, Note_on_c, 6, 60, 0
8, 90690, Note_on_c, 6, 72, 0
8, 90960, Note_on_c, 6, 55, 57
8, 90960, Note_on_c, 6, 67, 57
8, 91170, Note_on_c, 6, 55, 0
8, 91170, Note_on_c, 6, 67, 0
8, 91440, Note_on_c, 6, 60, 66
8, 91440, Note_on_c, 6, 72, 66
8, 91650, Note_on_c, 6, 60, 0
8, 91650, Note_on_c, 6, 72, 0
8, 91920, Note_on_c, 6, 60, 75
8, 91920, Note_on_c, 6, 72, 75
8, 92130, Note_on_c, 6, 60, 0
8, 92130, Note_on_c, 6, 72, 0
8, 92160, Note_on_c, 6, 60, 80
8, 92160, Note_on_c, 6, 72, 80
8, 92205, Note_on_c, 6, 72, 0
8, 92320, Note_on_c, 6, 64, 80
8, 92365, Note_on_c, 6, 64, 0
8, 92370, Note_on_c, 6, 60, 0
8, 92400, Note_on_c, 6, 67, 80
8, 92445, Note_on_c, 6, 67, 0
8, 92480, Note_on_c, 6, 64, 80
8, 92525, Note_on_c, 6, 64, 0
8, 92560, Note_on_c, 6, 67, 80
8, 92605, Note_on_c, 6, 67, 0
8, 92640, Note_on_c, 6, 60, 80
8, 92640, Note_on_c, 6, 72, 80
8, 92685, Note_on_c, 6, 60, 0
8, 92685, Note_on_c, 6, 72, 0
8, 92720, Note_on_c, 6, 55, 80
8, 92720, Note_on_c, 6, 67, 80
8, 92765, Note_on_c, 6, 55, 0
8, 92765, Note_on_c, 6, 67, 0
8, 92800, Note_on_c, 6, 60, 80
8, 92800, Note_on_c, 6, 72, 80
8, 92845, Note_on_c, 6, 60, 0
8, 92845, Note_on_c, 6, 72, 0
8, 92880, Note_on_c, 6, 64, 80
8, 92880, Note_on_c, 6, 76, 80
8, 92925, Note_on_c, 6, 64, 0
8, 92925, Note_on_c, 6, 76, 0
8, 92960, Note_on_c, 6, 60, 80
8, 92960, Note_on_c, 6, 72, 80
8, 93005, Note_on_c, 6, 60, 0
8, 93005, Note_on_c, 6, 72, 0
8, 93040, Note_on_c, 6, 64, 80
8, 93040, Note_on_c, 6, 76, 80
8, 93085, Note_on_c, 6, 64, 0
8, 93085, Note_on_c, 6, 76, 0
8, 93120, Note_on_c, 6, 67, 80
8, 93120, Note_on_c, 6, 79, 80
8, 93810, Note_on_c, 6, 67, 0
8, 93810, Note_on_c, 6, 79, 0
8, 93840, Note_on_c, 6, 55, 80
8, 93840, Note_on_c, 6, 67, 80
8, 94050, Note_on_c, 6, 55, 0
8, 94050, Note_on_c, 6, 67, 0
8, 94080, Note_on_c, 6, 60, 80
8, 94080, Note_on_c, 6, 72, 80
8, 94710, Note_on_c, 6, 60, 0
8, 94710, Note_on_c, 6, 72, 0
8, 94800, Note_on_c, 6, 64, 80
8, 94800, Note_on_c, 6, 67, 80
8, 94890, Note_on_c, 6, 64, 0
8, 94890, Note_on_c, 6, 67, 0
8, 95040, Note_on_c, 6, 60, 80
8, 95040, Note_on_c, 6, 72, 80
8, 95670, Note_on_c, 6, 60, 0
8, 95670, Note_on_c, 6, 72, 0
8, 95760, Note_on_c, 6, 64, 80
8, 95760, Note_on_c, 6, 67, 80
8, 95850, Note_on_c, 6, 64, 0
8, 95850, Note_on_c, 6, 67, 0
8, 96000, Note_on_c, 6, 60, 80
8, 96000, Note_on_c, 6, 72, 80
8, 96090, Note_on_c, 6, 60, 0
8, 96090, Note_on_c, 6, 72, 0
8, 96240, Note_on_c, 6, 64, 80
8, 96240, Note_on_c, 6, 67, 80
8, 96330, Note_on_c, 6, 64, 0
8, 96330, Note_on_c, 6, 67, 0
8, 96480, Note_on_c, 6, 60, 80
8, 96480, Note_on_c, 6, 72, 80
8, 96570, Note_on_c, 6, 60, 0
8, 96570, Note_on_c, 6, 72, 0
8, 96720, Note_on_c, 6, 64, 80
8, 96720, Note_on_c, 6, 67, 80
8, 96810, Note_on_c, 6, 64, 0
8, 96810, Note_on_c, 6, 67, 0
8, 96960, Note_on_c, 6, 60, 80
8, 96960, Note_on_c, 6, 72, 80
8, 97050, Note_on_c, 6, 60, 0
8, 97050, Note_on_c, 6, 72, 0
8, 124080, Note_on_c, 6, 60, 65
8, 124080, Note_on_c, 6, 72, 65
8, 124290, Note_on_c, 6, 60, 0
8, 124290, Note_on_c, 6, 72, 0
8, 124320, Note_on_c, 6, 60, 65
8, 124320, Note_on_c, 6, 72, 65
8, 124530, Note_on_c, 6, 60, 0
8, 124530, Note_on_c, 6, 72, 0
8, 124560, Note_on_c, 6, 60, 65
8, 124560, Note_on_c, 6, 72, 65
8, 124770, Note_on_c, 6, 60, 0
8, 124770, Note_on_c, 6, 72, 0
8, 124800, Note_on_c, 6, 77, 75
8, 125730, Note_on_c, 6, 77, 0
8, 125760, Note_on_c, 6, 77, 75
8, 126690, Note_on_c, 6, 77, 0
8, 126720, Note_on_c, 6, 60, 75
8, 126720, Note_on_c, 6, 72, 75
8, 127410, Note_on_c, 6, 60, 0
8, 127410, Note_on_c, 6, 72, 0
8, 127440, Note_on_c, 6, 60, 75
8, 127440, Note_on_c, 6, 72, 75
8, 127650, Note_on_c, 6, 60, 0
8, 127650, Note_on_c, 6, 72, 0
8, 127680, Note_on_c, 6, 60, 75
8, 127680, Note_on_c, 6, 72, 75
8, 127920, Note_on_c, 6, 60, 0
8, 127920, Note_on_c, 6, 72, 0
8, 134400, Note_on_c, 6, 60, 75
8, 134400, Note_on_c, 6, 72, 75
8, 135810, Note_on_c, 6, 60, 0
8, 135810, Note_on_c, 6, 72, 0
8, 135840, Note_on_c, 6, 77, 75
8, 136770, Note_on_c, 6, 77, 0
8, 136800, Note_on_c, 6, 74, 75
8, 137730, Note_on_c, 6, 74, 0
8, 137760, Note_on_c, 6, 79, 75
8, 138240, Note_on_c, 6, 67, 75
8, 138690, Note_on_c, 6, 67, 0
8, 138690, Note_on_c, 6, 79, 0
8, 138720, Note_on_c, 6, 67, 75
8, 138720, Note_on_c, 6, 79, 75
8, 139170, Note_on_c, 6, 67, 0
8, 139170, Note_on_c, 6, 79, 0
8, 139200, Note_on_c, 6, 74, 75
8, 139440, Note_on_c, 6, 74, 0
8, 142560, Note_on_c, 6, 74, 75
8, 143250, Note_on_c, 6, 74, 0
8, 143280, Note_on_c, 6, 55, 75
8, 143280, Note_on_c, 6, 67, 75
8, 143370, Note_on_c, 6, 55, 0
8, 143370, Note_on_c, 6, 67, 0
8, 143520, Note_on_c, 6, 55, 75
8, 143520, Note_on_c, 6, 67, 75
8, 143610, Note_on_c, 6, 55, 0
8, 143610, Note_on_c, 6, 67, 0
8, 143760, Note_on_c, 6, 55, 75
8, 143760, Note_on_c, 6, 67, 75
8, 143850, Note_on_c, 6, 55, 0
8, 143850, Note_on_c, 6, 67, 0
8, 144000, Note_on_c, 6, 55, 75
8, 144000, Note_on_c, 6, 67, 75
8, 144090, Note_on_c, 6, 55, 0
8, 144090, Note_on_c, 6, 67, 0
8, 153600, Note_on_c, 6, 60, 70
8, 153600, Note_on_c, 6, 72, 70
8, 154530, Note_on_c, 6, 60, 0
8, 154530, Note_on_c, 6, 72, 0
8, 154560, Note_on_c, 6, 60, 70
8, 154560, Note_on_c, 6, 72, 70
8, 155010, Note_on_c, 6, 60, 0
8, 155010, Note_on_c, 6, 72, 0
8, 155040, Note_on_c, 6, 60, 70
8, 155040, Note_on_c, 6, 72, 70
8, 155430, Note_on_c, 6, 60, 0
8, 155430, Note_on_c, 6, 72, 0
8, 155460, Note_on_c, 6, 60, 70
8, 155460, Note_on_c, 6, 72, 70
8, 155505, Note_on_c, 6, 60, 0
8, 155505, Note_on_c, 6, 72, 0
8, 155520, Note_on_c, 6, 60, 70
8, 155520, Note_on_c, 6, 72, 70
8, 156450, Note_on_c, 6, 60, 0
8, 156450, Note_on_c, 6, 72, 0
8, 156480, Note_on_c, 6, 60, 70
8, 156480, Note_on_c, 6, 72, 70
8, 156930, Note_on_c, 6, 60, 0
8, 156930, Note_on_c, 6, 72, 0
8, 156960, Note_on_c, 6, 60, 70
8, 156960, Note_on_c, 6, 72, 70
8, 157350, Note_on_c, 6, 60, 0
8, 157350, Note_on_c, 6, 72, 0
8, 157380, Note_on_c, 6, 60, 70
8, 157380, Note_on_c, 6, 72, 70
8, 157425, Note_on_c, 6, 60, 0
8, 157425, Note_on_c, 6, 72, 0
8, 157440, Note_on_c, 6, 60, 70
8, 157440, Note_on_c, 6, 72, 70
8, 158610, Note_on_c, 6, 60, 0
8, 158610, Note_on_c, 6, 72, 0
8, 158640, Note_on_c, 6, 60, 70
8, 158640, Note_on_c, 6, 72, 70
8, 158850, Note_on_c, 6, 60, 0
8, 158850, Note_on_c, 6, 72, 0
8, 158880, Note_on_c, 6, 60, 70
8, 158880, Note_on_c, 6, 72, 70
8, 159090, Note_on_c, 6, 60, 0
8, 159090, Note_on_c, 6, 72, 0
8, 159120, Note_on_c, 6, 60, 70
8, 159120, Note_on_c, 6, 72, 70
8, 159330, Note_on_c, 6, 60, 0
8, 159330, Note_on_c, 6, 72, 0
8, 159360, Note_on_c, 6, 77, 70
8, 160530, Note_on_c, 6, 77, 0
8, 160560, Note_on_c, 6, 77, 70
8, 160770, Note_on_c, 6, 77, 0
8, 160800, Note_on_c, 6, 77, 70
8, 161010, Note_on_c, 6, 77, 0
8, 161040, Note_on_c, 6, 77, 70
8, 161250, Note_on_c, 6, 77, 0
8, 161280, Note_on_c, 6, 77, 70
8, 161520, Note_on_c, 6, 77, 0
8, 166080, Note_on_c, 6, 55, 40
8, 166080, Note_on_c, 6, 67, 40
8, 167010, Note_on_c, 6, 55, 0
8, 167010, Note_on_c, 6, 67, 0
8, 167040, Note_on_c, 6, 55, 40
8, 167040, Note_on_c, 6, 67, 40
8, 167970, Note_on_c, 6, 55, 0
8, 167970, Note_on_c, 6, 67, 0
8, 168000, Note_on_c, 6, 55, 40
8, 168000, Note_on_c, 6, 67, 40
8, 168450, Note_on_c, 6, 55, 0
8, 168450, Note_on_c, 6, 67, 0
8, 168480, Note_on_c, 6, 55, 40
8, 168480, Note_on_c, 6, 67, 40
8, 168930, Note_on_c, 6, 55, 0
8, 168930, Note_on_c, 6, 67, 0
8, 168960, Note_on_c, 6, 55, 40
8, 168960, Note_on_c, 6, 67, 40
8, 169680, Note_on_c, 6, 55, 0
8, 169680, Note_on_c, 6, 67, 0
8, 169680, End_track
9, 0, Start_track
9, 0, Channel_prefix, 7
9, 0, Title_t, "Timpani "
9, 0, Instrument_name_t, "Timpani "
9, 8637, Note_on_c, 7, 48, 45
9, 8877, Note_on_c, 7, 48, 0
9, 9597, Note_on_c, 7, 48, 45
9, 9837, Note_on_c, 7, 48, 0
9, 10557, Note_on_c, 7, 48, 45
9, 10797, Note_on_c, 7, 48, 0
9, 11037, Note_on_c, 7, 48, 45
9, 11277, Note_on_c, 7, 48, 0
9, 11517, Note_on_c, 7, 43, 45
9, 11727, Note_on_c, 7, 43, 0
9, 11757, Note_on_c, 7, 43, 45
9, 11967, Note_on_c, 7, 43, 0
9, 11997, Note_on_c, 7, 43, 45
9, 12207, Note_on_c, 7, 43, 0
9, 22077, Note_on_c, 7, 43, 50
9, 22317, Note_on_c, 7, 43, 0
9, 23037, Note_on_c, 7, 43, 50
9, 23277, Note_on_c, 7, 43, 0
9, 23997, Note_on_c, 7, 43, 50
9, 24237, Note_on_c, 7, 43, 0
9, 24957, Note_on_c, 7, 43, 50
9, 25197, Note_on_c, 7, 43, 0
9, 25437, Note_on_c, 7, 43, 50
9, 25677, Note_on_c, 7, 43, 0
9, 25917, Note_on_c, 7, 43, 50
9, 26157, Note_on_c, 7, 43, 0
9, 39357, Note_on_c, 7, 48, 50
9, 39567, Note_on_c, 7, 48, 0
9, 39837, Note_on_c, 7, 48, 50
9, 40047, Note_on_c, 7, 48, 0
9, 40077, Note_on_c, 7, 48, 50
9, 40287, Note_on_c, 7, 48, 0
9, 40317, Note_on_c, 7, 48, 50
9, 40527, Note_on_c, 7, 48, 0
9, 40797, Note_on_c, 7, 48, 50
9, 41007, Note_on_c, 7, 48, 0
9, 41277, Note_on_c, 7, 43, 50
9, 41487, Note_on_c, 7, 43, 0
9, 42237, Note_on_c, 7, 43, 50
9, 42447, Note_on_c, 7, 43, 0
9, 43197, Note_on_c, 7, 43, 50
9, 43437, Note_on_c, 7, 43, 0
9, 44157, Note_on_c, 7, 43, 50
9, 44397, Note_on_c, 7, 43, 0
9, 44637, Note_on_c, 7, 43, 50
9, 44877, Note_on_c, 7, 43, 0
9, 45117, Note_on_c, 7, 43, 50
9, 45357, Note_on_c, 7, 43, 0
9, 48477, Note_on_c, 7, 48, 65
9, 48717, Note_on_c, 7, 48, 0
9, 48957, Note_on_c, 7, 48, 50
9, 49197, Note_on_c, 7, 48, 0
9, 51357, Note_on_c, 7, 43, 50
9, 51597, Note_on_c, 7, 43, 0
9, 51837, Note_on_c, 7, 48, 60
9, 51987, Note_on_c, 7, 48, 0
9, 52077, Note_on_c, 7, 48, 60
9, 52227, Note_on_c, 7, 48, 0
9, 52557, Note_on_c, 7, 48, 50
9, 52767, Note_on_c, 7, 48, 0
9, 52797, Note_on_c, 7, 48, 50
9, 53007, Note_on_c, 7, 48, 0
9, 53037, Note_on_c, 7, 43, 50
9, 53247, Note_on_c, 7, 43, 0
9, 53277, Note_on_c, 7, 43, 50
9, 53487, Note_on_c, 7, 43, 0
9, 53517, Note_on_c, 7, 43, 50
9, 53727, Note_on_c, 7, 43, 0
9, 53757, Note_on_c, 7, 48, 50
9, 53967, Note_on_c, 7, 48, 0
9, 59277, Note_on_c, 7, 48, 50
9, 59487, Note_on_c, 7, 48, 0
9, 59517, Note_on_c, 7, 43, 50
9, 59727, Note_on_c, 7, 43, 0
9, 59997, Note_on_c, 7, 43, 50
9, 60207, Note_on_c, 7, 43, 0
9, 60477, Note_on_c, 7, 48, 50
9, 60687, Note_on_c, 7, 48, 0
9, 61437, Note_on_c, 7, 43, 50
9, 61647, Note_on_c, 7, 43, 0
9, 61917, Note_on_c, 7, 43, 50
9, 62127, Note_on_c, 7, 43, 0
9, 62397, Note_on_c, 7, 48, 50
9, 62607, Note_on_c, 7, 48, 0
9, 64077, Note_on_c, 7, 43, 65
9, 64287, Note_on_c, 7, 43, 0
9, 64317, Note_on_c, 7, 48, 50
9, 64527, Note_on_c, 7, 48, 0
9, 64797, Note_on_c, 7, 48, 50
9, 65007, Note_on_c, 7, 48, 0
9, 65277, Note_on_c, 7, 48, 50
9, 65487, Note_on_c, 7, 48, 0
9, 72958, Note_on_c, 7, 43, 81
9, 72973, Note_on_c, 7, 43, 0
9, 72976, Note_on_c, 7, 43, 80
9, 72991, Note_on_c, 7, 43, 0
9, 72997, Note_on_c, 7, 43, 81
9, 73012, Note_on_c, 7, 43, 0
9, 73016, Note_on_c, 7, 43, 79
9, 73031, Note_on_c, 7, 43, 0
9, 73036, Note_on_c, 7, 43, 80
9, 73051, Note_on_c, 7, 43, 0
9, 73058, Note_on_c, 7, 43, 80
9, 73073, Note_on_c, 7, 43, 0
9, 73077, Note_on_c, 7, 43, 80
9, 73092, Note_on_c, 7, 43, 0
9, 73096, Note_on_c, 7, 43, 81
9, 73111, Note_on_c, 7, 43, 0
9, 73118, Note_on_c, 7, 43, 79
9, 73133, Note_on_c, 7, 43, 0
9, 73136, Note_on_c, 7, 43, 80
9, 73151, Note_on_c, 7, 43, 0
9, 73158, Note_on_c, 7, 43, 79
9, 73173, Note_on_c, 7, 43, 0
9, 73177, Note_on_c, 7, 43, 80
9, 73192, Note_on_c, 7, 43, 0
9, 73197, Note_on_c, 7, 43, 80
9, 73212, Note_on_c, 7, 43, 0
9, 73218, Note_on_c, 7, 43, 81
9, 73233, Note_on_c, 7, 43, 0
9, 73238, Note_on_c, 7, 43, 81
9, 73253, Note_on_c, 7, 43, 0
9, 73257, Note_on_c, 7, 43, 80
9, 73272, Note_on_c, 7, 43, 0
9, 73277, Note_on_c, 7, 43, 80
9, 73292, Note_on_c, 7, 43, 0
9, 73298, Note_on_c, 7, 43, 79
9, 73313, Note_on_c, 7, 43, 0
9, 73316, Note_on_c, 7, 43, 79
9, 73331, Note_on_c, 7, 43, 0
9, 73337, Note_on_c, 7, 43, 80
9, 73352, Note_on_c, 7, 43, 0
9, 73357, Note_on_c, 7, 43, 80
9, 73372, Note_on_c, 7, 43, 0
9, 73377, Note_on_c, 7, 43, 79
9, 73392, Note_on_c, 7, 43, 0
9, 73397, Note_on_c, 7, 43, 81
9, 73412, Note_on_c, 7, 43, 0
9, 73417, Note_on_c, 7, 43, 80
9, 73432, Note_on_c, 7, 43, 0
9, 73437, Note_on_c, 7, 43, 79
9, 73672, Note_on_c, 7, 43, 0
9, 73916, Note_on_c, 7, 43, 79
9, 73931, Note_on_c, 7, 43, 0
9, 73936, Note_on_c, 7, 43, 80
9, 73951, Note_on_c, 7, 43, 0
9, 73957, Note_on_c, 7, 43, 80
9, 73972, Note_on_c, 7, 43, 0
9, 73978, Note_on_c, 7, 43, 81
9, 73993, Note_on_c, 7, 43, 0
9, 73998, Note_on_c, 7, 43, 80
9, 74013, Note_on_c, 7, 43, 0
9, 74016, Note_on_c, 7, 43, 80
9, 74031, Note_on_c, 7, 43, 0
9, 74036, Note_on_c, 7, 43, 80
9, 74051, Note_on_c, 7, 43, 0
9, 74058, Note_on_c, 7, 43, 80
9, 74073, Note_on_c, 7, 43, 0
9, 74076, Note_on_c, 7, 43, 81
9, 74091, Note_on_c, 7, 43, 0
9, 74098, Note_on_c, 7, 43, 81
9, 74113, Note_on_c, 7, 43, 0
9, 74117, Note_on_c, 7, 43, 80
9, 74132, Note_on_c, 7, 43, 0
9, 74137, Note_on_c, 7, 43, 81
9, 74152, Note_on_c, 7, 43, 0
9, 74158, Note_on_c, 7, 43, 80
9, 74173, Note_on_c, 7, 43, 0
9, 74176, Note_on_c, 7, 43, 80
9, 74191, Note_on_c, 7, 43, 0
9, 74198, Note_on_c, 7, 43, 79
9, 74213, Note_on_c, 7, 43, 0
9, 74217, Note_on_c, 7, 43, 80
9, 74232, Note_on_c, 7, 43, 0
9, 74237, Note_on_c, 7, 43, 81
9, 74252, Note_on_c, 7, 43, 0
9, 74257, Note_on_c, 7, 43, 80
9, 74272, Note_on_c, 7, 43, 0
9, 74278, Note_on_c, 7, 43, 80
9, 74293, Note_on_c, 7, 43, 0
9, 74298, Note_on_c, 7, 43, 81
9, 74313, Note_on_c, 7, 43, 0
9, 74317, Note_on_c, 7, 43, 80
9, 74332, Note_on_c, 7, 43, 0
9, 74337, Note_on_c, 7, 43, 81
9, 74352, Note_on_c, 7, 43, 0
9, 74358, Note_on_c, 7, 43, 79
9, 74373, Note_on_c, 7, 43, 0
9, 74377, Note_on_c, 7, 43, 79
9, 74392, Note_on_c, 7, 43, 0
9, 74398, Note_on_c, 7, 43, 81
9, 74633, Note_on_c, 7, 43, 0
9, 74878, Note_on_c, 7, 43, 80
9, 74893, Note_on_c, 7, 43, 0
9, 74897, Note_on_c, 7, 43, 80
9, 74912, Note_on_c, 7, 43, 0
9, 74917, Note_on_c, 7, 43, 80
9, 74932, Note_on_c, 7, 43, 0
9, 74937, Note_on_c, 7, 43, 80
9, 74952, Note_on_c, 7, 43, 0
9, 74958, Note_on_c, 7, 43, 79
9, 74973, Note_on_c, 7, 43, 0
9, 74978, Note_on_c, 7, 43, 80
9, 74993, Note_on_c, 7, 43, 0
9, 74997, Note_on_c, 7, 43, 80
9, 75012, Note_on_c, 7, 43, 0
9, 75018, Note_on_c, 7, 43, 79
9, 75033, Note_on_c, 7, 43, 0
9, 75037, Note_on_c, 7, 43, 80
9, 75052, Note_on_c, 7, 43, 0
9, 75056, Note_on_c, 7, 43, 81
9, 75071, Note_on_c, 7, 43, 0
9, 75076, Note_on_c, 7, 43, 79
9, 75091, Note_on_c, 7, 43, 0
9, 75097, Note_on_c, 7, 43, 81
9, 75112, Note_on_c, 7, 43, 0
9, 75118, Note_on_c, 7, 43, 80
9, 75133, Note_on_c, 7, 43, 0
9, 75137, Note_on_c, 7, 43, 80
9, 75152, Note_on_c, 7, 43, 0
9, 75158, Note_on_c, 7, 43, 80
9, 75173, Note_on_c, 7, 43, 0
9, 75178, Note_on_c, 7, 43, 79
9, 75193, Note_on_c, 7, 43, 0
9, 75198, Note_on_c, 7, 43, 80
9, 75213, Note_on_c, 7, 43, 0
9, 75217, Note_on_c, 7, 43, 79
9, 75232, Note_on_c, 7, 43, 0
9, 75236, Note_on_c, 7, 43, 79
9, 75251, Note_on_c, 7, 43, 0
9, 75258, Note_on_c, 7, 43, 80
9, 75273, Note_on_c, 7, 43, 0
9, 75278, Note_on_c, 7, 43, 81
9, 75293, Note_on_c, 7, 43, 0
9, 75297, Note_on_c, 7, 43, 79
9, 75312, Note_on_c, 7, 43, 0
9, 75317, Note_on_c, 7, 43, 79
9, 75332, Note_on_c, 7, 43, 0
9, 75338, Note_on_c, 7, 43, 81
9, 75353, Note_on_c, 7, 43, 0
9, 75356, Note_on_c, 7, 43, 79
9, 75371, Note_on_c, 7, 43, 0
9, 75376, Note_on_c, 7, 43, 80
9, 75391, Note_on_c, 7, 43, 0
9, 75397, Note_on_c, 7, 43, 80
9, 75412, Note_on_c, 7, 43, 0
9, 75418, Note_on_c, 7, 43, 80
9, 75433, Note_on_c, 7, 43, 0
9, 75437, Note_on_c, 7, 43, 80
9, 75452, Note_on_c, 7, 43, 0
9, 75458, Note_on_c, 7, 43, 80
9, 75473, Note_on_c, 7, 43, 0
9, 75477, Note_on_c, 7, 43, 81
9, 75492, Note_on_c, 7, 43, 0
9, 75498, Note_on_c, 7, 43, 79
9, 75513, Note_on_c, 7, 43, 0
9, 75517, Note_on_c, 7, 43, 80
9, 75532, Note_on_c, 7, 43, 0
9, 75538, Note_on_c, 7, 43, 79
9, 75553, Note_on_c, 7, 43, 0
9, 75558, Note_on_c, 7, 43, 79
9, 75573, Note_on_c, 7, 43, 0
9, 75577, Note_on_c, 7, 43, 80
9, 75592, Note_on_c, 7, 43, 0
9, 75598, Note_on_c, 7, 43, 80
9, 75613, Note_on_c, 7, 43, 0
9, 75616, Note_on_c, 7, 43, 79
9, 75631, Note_on_c, 7, 43, 0
9, 75638, Note_on_c, 7, 43, 80
9, 75653, Note_on_c, 7, 43, 0
9, 75657, Note_on_c, 7, 43, 80
9, 75672, Note_on_c, 7, 43, 0
9, 75677, Note_on_c, 7, 43, 81
9, 75692, Note_on_c, 7, 43, 0
9, 75698, Note_on_c, 7, 43, 81
9, 75713, Note_on_c, 7, 43, 0
9, 75716, Note_on_c, 7, 43, 81
9, 75731, Note_on_c, 7, 43, 0
9, 75738, Note_on_c, 7, 43, 80
9, 75753, Note_on_c, 7, 43, 0
9, 75758, Note_on_c, 7, 43, 81
9, 75773, Note_on_c, 7, 43, 0
9, 75776, Note_on_c, 7, 43, 81
9, 75791, Note_on_c, 7, 43, 0
9, 75798, Note_on_c, 7, 43, 80
9, 75813, Note_on_c, 7, 43, 0
9, 75817, Note_on_c, 7, 43, 80
9, 75832, Note_on_c, 7, 43, 0
9, 75837, Note_on_c, 7, 43, 80
9, 76072, Note_on_c, 7, 43, 0
9, 76797, Note_on_c, 7, 48, 50
9, 77007, Note_on_c, 7, 48, 0
9, 77037, Note_on_c, 7, 48, 50
9, 77247, Note_on_c, 7, 48, 0
9, 77757, Note_on_c, 7, 48, 50
9, 77967, Note_on_c, 7, 48, 0
9, 78477, Note_on_c, 7, 48, 50
9, 78687, Note_on_c, 7, 48, 0
9, 78717, Note_on_c, 7, 48, 56
9, 78927, Note_on_c, 7, 48, 0
9, 79197, Note_on_c, 7, 48, 64
9, 79407, Note_on_c, 7, 48, 0
9, 79677, Note_on_c, 7, 48, 68
9, 79887, Note_on_c, 7, 48, 0
9, 80157, Note_on_c, 7, 48, 75
9, 80367, Note_on_c, 7, 48, 0
9, 80637, Note_on_c, 7, 48, 50
9, 80847, Note_on_c, 7, 48, 0
9, 86397, Note_on_c, 7, 48, 50
9, 86607, Note_on_c, 7, 48, 0
9, 87357, Note_on_c, 7, 48, 50
9, 87567, Note_on_c, 7, 48, 0
9, 88317, Note_on_c, 7, 48, 50
9, 88527, Note_on_c, 7, 48, 0
9, 89517, Note_on_c, 7, 48, 56
9, 89667, Note_on_c, 7, 48, 0
9, 89697, Note_on_c, 7, 48, 57
9, 89742, Note_on_c, 7, 48, 0
9, 89757, Note_on_c, 7, 48, 57
9, 89967, Note_on_c, 7, 48, 0
9, 89997, Note_on_c, 7, 48, 58
9, 90207, Note_on_c, 7, 48, 0
9, 90237, Note_on_c, 7, 48, 60
9, 90447, Note_on_c, 7, 48, 0
9, 90717, Note_on_c, 7, 43, 62
9, 90927, Note_on_c, 7, 43, 0
9, 91197, Note_on_c, 7, 48, 65
9, 91407, Note_on_c, 7, 48, 0
9, 91677, Note_on_c, 7, 48, 67
9, 91887, Note_on_c, 7, 48, 0
9, 92157, Note_on_c, 7, 43, 80
9, 92367, Note_on_c, 7, 43, 0
9, 92637, Note_on_c, 7, 43, 82
9, 92682, Note_on_c, 7, 43, 0
9, 92717, Note_on_c, 7, 43, 82
9, 92762, Note_on_c, 7, 43, 0
9, 92797, Note_on_c, 7, 43, 83
9, 92842, Note_on_c, 7, 43, 0
9, 92877, Note_on_c, 7, 43, 83
9, 92922, Note_on_c, 7, 43, 0
9, 92957, Note_on_c, 7, 43, 84
9, 93002, Note_on_c, 7, 43, 0
9, 93037, Note_on_c, 7, 43, 84
9, 93082, Note_on_c, 7, 43, 0
9, 93117, Note_on_c, 7, 43, 85
9, 93162, Note_on_c, 7, 43, 0
9, 93197, Note_on_c, 7, 43, 85
9, 93242, Note_on_c, 7, 43, 0
9, 93277, Note_on_c, 7, 43, 85
9, 93322, Note_on_c, 7, 43, 0
9, 93357, Note_on_c, 7, 43, 86
9, 93402, Note_on_c, 7, 43, 0
9, 93437, Note_on_c, 7, 43, 86
9, 93482, Note_on_c, 7, 43, 0
9, 93517, Note_on_c, 7, 43, 87
9, 93562, Note_on_c, 7, 43, 0
9, 93597, Note_on_c, 7, 43, 87
9, 93642, Note_on_c, 7, 43, 0
9, 93677, Note_on_c, 7, 43, 87
9, 93722, Note_on_c, 7, 43, 0
9, 93757, Note_on_c, 7, 43, 88
9, 93802, Note_on_c, 7, 43, 0
9, 93837, Note_on_c, 7, 43, 88
9, 93882, Note_on_c, 7, 43, 0
9, 93917, Note_on_c, 7, 43, 89
9, 93962, Note_on_c, 7, 43, 0
9, 93997, Note_on_c, 7, 43, 90
9, 94042, Note_on_c, 7, 43, 0
9, 94078, Note_on_c, 7, 43, 96
9, 94093, Note_on_c, 7, 43, 0
9, 94098, Note_on_c, 7, 43, 95
9, 94113, Note_on_c, 7, 43, 0
9, 94116, Note_on_c, 7, 43, 94
9, 94131, Note_on_c, 7, 43, 0
9, 94138, Note_on_c, 7, 43, 95
9, 94153, Note_on_c, 7, 43, 0
9, 94157, Note_on_c, 7, 43, 95
9, 94172, Note_on_c, 7, 43, 0
9, 94176, Note_on_c, 7, 43, 96
9, 94191, Note_on_c, 7, 43, 0
9, 94197, Note_on_c, 7, 43, 96
9, 94212, Note_on_c, 7, 43, 0
9, 94217, Note_on_c, 7, 43, 95
9, 94232, Note_on_c, 7, 43, 0
9, 94236, Note_on_c, 7, 43, 94
9, 94251, Note_on_c, 7, 43, 0
9, 94257, Note_on_c, 7, 43, 95
9, 94272, Note_on_c, 7, 43, 0
9, 94277, Note_on_c, 7, 43, 96
9, 94292, Note_on_c, 7, 43, 0
9, 94296, Note_on_c, 7, 43, 94
9, 94311, Note_on_c, 7, 43, 0
9, 94317, Note_on_c, 7, 43, 95
9, 94332, Note_on_c, 7, 43, 0
9, 94338, Note_on_c, 7, 43, 95
9, 94353, Note_on_c, 7, 43, 0
9, 94357, Note_on_c, 7, 43, 95
9, 94372, Note_on_c, 7, 43, 0
9, 94378, Note_on_c, 7, 43, 96
9, 94393, Note_on_c, 7, 43, 0
9, 94396, Note_on_c, 7, 43, 94
9, 94411, Note_on_c, 7, 43, 0
9, 94418, Note_on_c, 7, 43, 96
9, 94433, Note_on_c, 7, 43, 0
9, 94436, Note_on_c, 7, 43, 95
9, 94451, Note_on_c, 7, 43, 0
9, 94458, Note_on_c, 7, 43, 96
9, 94473, Note_on_c, 7, 43, 0
9, 94476, Note_on_c, 7, 43, 94
9, 94491, Note_on_c, 7, 43, 0
9, 94496, Note_on_c, 7, 43, 95
9, 94511, Note_on_c, 7, 43, 0
9, 94517, Note_on_c, 7, 43, 96
9, 94532, Note_on_c, 7, 43, 0
9, 94538, Note_on_c, 7, 43, 95
9, 94553, Note_on_c, 7, 43, 0
9, 94557, Note_on_c, 7, 43, 95
9, 94792, Note_on_c, 7, 43, 0
9, 95036, Note_on_c, 7, 43, 95
9, 95051, Note_on_c, 7, 43, 0
9, 95058, Note_on_c, 7, 43, 96
9, 95073, Note_on_c, 7, 43, 0
9, 95077, Note_on_c, 7, 43, 94
9, 95092, Note_on_c, 7, 43, 0
9, 95097, Note_on_c, 7, 43, 95
9, 95112, Note_on_c, 7, 43, 0
9, 95118, Note_on_c, 7, 43, 95
9, 95133, Note_on_c, 7, 43, 0
9, 95138, Note_on_c, 7, 43, 94
9, 95153, Note_on_c, 7, 43, 0
9, 95158, Note_on_c, 7, 43, 94
9, 95173, Note_on_c, 7, 43, 0
9, 95177, Note_on_c, 7, 43, 96
9, 95192, Note_on_c, 7, 43, 0
9, 95197, Note_on_c, 7, 43, 96
9, 95212, Note_on_c, 7, 43, 0
9, 95218, Note_on_c, 7, 43, 95
9, 95233, Note_on_c, 7, 43, 0
9, 95237, Note_on_c, 7, 43, 96
9, 95252, Note_on_c, 7, 43, 0
9, 95257, Note_on_c, 7, 43, 95
9, 95272, Note_on_c, 7, 43, 0
9, 95278, Note_on_c, 7, 43, 95
9, 95293, Note_on_c, 7, 43, 0
9, 95298, Note_on_c, 7, 43, 96
9, 95313, Note_on_c, 7, 43, 0
9, 95317, Note_on_c, 7, 43, 96
9, 95332, Note_on_c, 7, 43, 0
9, 95337, Note_on_c, 7, 43, 95
9, 95352, Note_on_c, 7, 43, 0
9, 95357, Note_on_c, 7, 43, 96
9, 95372, Note_on_c, 7, 43, 0
9, 95377, Note_on_c, 7, 43, 94
9, 95392, Note_on_c, 7, 43, 0
9, 95397, Note_on_c, 7, 43, 94
9, 95412, Note_on_c, 7, 43, 0
9, 95417, Note_on_c, 7, 43, 95
9, 95432, Note_on_c, 7, 43, 0
9, 95436, Note_on_c, 7, 43, 95
9, 95451, Note_on_c, 7, 43, 0
9, 95458, Note_on_c, 7, 43, 96
9, 95473, Note_on_c, 7, 43, 0
9, 95478, Note_on_c, 7, 43, 96
9, 95493, Note_on_c, 7, 43, 0
9, 95498, Note_on_c, 7, 43, 94
9, 95513, Note_on_c, 7, 43, 0
9, 95517, Note_on_c, 7, 43, 95
9, 95752, Note_on_c, 7, 43, 0
9, 95997, Note_on_c, 7, 43, 95
9, 96012, Note_on_c, 7, 43, 0
9, 96018, Note_on_c, 7, 43, 95
9, 96033, Note_on_c, 7, 43, 0
9, 96037, Note_on_c, 7, 43, 95
9, 96052, Note_on_c, 7, 43, 0
9, 96056, Note_on_c, 7, 43, 94
9, 96071, Note_on_c, 7, 43, 0
9, 96078, Note_on_c, 7, 43, 95
9, 96093, Note_on_c, 7, 43, 0
9, 96098, Note_on_c, 7, 43, 96
9, 96113, Note_on_c, 7, 43, 0
9, 96117, Note_on_c, 7, 43, 94
9, 96132, Note_on_c, 7, 43, 0
9, 96138, Note_on_c, 7, 43, 95
9, 96153, Note_on_c, 7, 43, 0
9, 96158, Note_on_c, 7, 43, 94
9, 96173, Note_on_c, 7, 43, 0
9, 96177, Note_on_c, 7, 43, 95
9, 96192, Note_on_c, 7, 43, 0
9, 96197, Note_on_c, 7, 43, 95
9, 96212, Note_on_c, 7, 43, 0
9, 96217, Note_on_c, 7, 43, 96
9, 96232, Note_on_c, 7, 43, 0
9, 96238, Note_on_c, 7, 43, 95
9, 96253, Note_on_c, 7, 43, 0
9, 96257, Note_on_c, 7, 43, 94
9, 96272, Note_on_c, 7, 43, 0
9, 96278, Note_on_c, 7, 43, 95
9, 96293, Note_on_c, 7, 43, 0
9, 96297, Note_on_c, 7, 43, 95
9, 96312, Note_on_c, 7, 43, 0
9, 96318, Note_on_c, 7, 43, 95
9, 96333, Note_on_c, 7, 43, 0
9, 96337, Note_on_c, 7, 43, 95
9, 96352, Note_on_c, 7, 43, 0
9, 96356, Note_on_c, 7, 43, 94
9, 96371, Note_on_c, 7, 43, 0
9, 96377, Note_on_c, 7, 43, 96
9, 96392, Note_on_c, 7, 43, 0
9, 96397, Note_on_c, 7, 43, 96
9, 96412, Note_on_c, 7, 43, 0
9, 96418, Note_on_c, 7, 43, 96
9, 96433, Note_on_c, 7, 43, 0
9, 96436, Note_on_c, 7, 43, 95
9, 96451, Note_on_c, 7, 43, 0
9, 96457, Note_on_c, 7, 43, 96
9, 96472, Note_on_c, 7, 43, 0
9, 96476, Note_on_c, 7, 43, 94
9, 96491, Note_on_c, 7, 43, 0
9, 96497, Note_on_c, 7, 43, 95
9, 96512, Note_on_c, 7, 43, 0
9, 96518, Note_on_c, 7, 43, 96
9, 96533, Note_on_c, 7, 43, 0
9, 96537, Note_on_c, 7, 43, 95
9, 96552, Note_on_c, 7, 43, 0
9, 96558, Note_on_c, 7, 43, 95
9, 96573, Note_on_c, 7, 43, 0
9, 96577, Note_on_c, 7, 43, 95
9, 96592, Note_on_c, 7, 43, 0
9, 96596, Note_on_c, 7, 43, 96
9, 96611, Note_on_c, 7, 43, 0
9, 96617, Note_on_c, 7, 43, 96
9, 96632, Note_on_c, 7, 43, 0
9, 96638, Note_on_c, 7, 43, 94
9, 96653, Note_on_c, 7, 43, 0
9, 96657, Note_on_c, 7, 43, 96
9, 96672, Note_on_c, 7, 43, 0
9, 96677, Note_on_c, 7, 43, 95
9, 96692, Note_on_c, 7, 43, 0
9, 96697, Note_on_c, 7, 43, 96
9, 96712, Note_on_c, 7, 43, 0
9, 96718, Note_on_c, 7, 43, 95
9, 96733, Note_on_c, 7, 43, 0
9, 96737, Note_on_c, 7, 43, 95
9, 96752, Note_on_c, 7, 43, 0
9, 96758, Note_on_c, 7, 43, 95
9, 96773, Note_on_c, 7, 43, 0
9, 96778, Note_on_c, 7, 43, 94
9, 96793, Note_on_c, 7, 43, 0
9, 96796, Note_on_c, 7, 43, 95
9, 96811, Note_on_c, 7, 43, 0
9, 96817, Note_on_c, 7, 43, 95
9, 96832, Note_on_c, 7, 43, 0
9, 96838, Note_on_c, 7, 43, 95
9, 96853, Note_on_c, 7, 43, 0
9, 96857, Note_on_c, 7, 43, 96
9, 96872, Note_on_c, 7, 43, 0
9, 96878, Note_on_c, 7, 43, 94
9, 96893, Note_on_c, 7, 43, 0
9, 96898, Note_on_c, 7, 43, 94
9, 96913, Note_on_c, 7, 43, 0
9, 96916, Note_on_c, 7, 43, 96
9, 96931, Note_on_c, 7, 43, 0
9, 96937, Note_on_c, 7, 43, 95
9, 96952, Note_on_c, 7, 43, 0
9, 96957, Note_on_c, 7, 43, 95
9, 97192, Note_on_c, 7, 43, 0
9, 120957, Note_on_c, 7, 43, 105
9, 121197, Note_on_c, 7, 43, 0
9, 121917, Note_on_c, 7, 43, 105
9, 122157, Note_on_c, 7, 43, 0
9, 122637, Note_on_c, 7, 43, 105
9, 122847, Note_on_c, 7, 43, 0
9, 122877, Note_on_c, 7, 43, 105
9, 123087, Note_on_c, 7, 43, 0
9, 123117, Note_on_c, 7, 43, 105
9, 123327, Note_on_c, 7, 43, 0
9, 123357, Note_on_c, 7, 43, 105
9, 123567, Note_on_c, 7, 43, 0
9, 123597, Note_on_c, 7, 43, 105
9, 123807, Note_on_c, 7, 43, 0
9, 123837, Note_on_c, 7, 48, 105
9, 124047, Note_on_c, 7, 48, 0
9, 124077, Note_on_c, 7, 48, 105
9, 124287, Note_on_c, 7, 48, 0
9, 124317, Note_on_c, 7, 48, 105
9, 124527, Note_on_c, 7, 48, 0
9, 124557, Note_on_c, 7, 48, 105
9, 124767, Note_on_c, 7, 48, 0
9, 124797, Note_on_c, 7, 48, 105
9, 125007, Note_on_c, 7, 48, 0
9, 126717, Note_on_c, 7, 48, 105
9, 126732, Note_on_c, 7, 48, 0
9, 126737, Note_on_c, 7, 48, 106
9, 126752, Note_on_c, 7, 48, 0
9, 126757, Note_on_c, 7, 48, 105
9, 126772, Note_on_c, 7, 48, 0
9, 126778, Note_on_c, 7, 48, 104
9, 126793, Note_on_c, 7, 48, 0
9, 126797, Note_on_c, 7, 48, 104
9, 126812, Note_on_c, 7, 48, 0
9, 126817, Note_on_c, 7, 48, 106
9, 126832, Note_on_c, 7, 48, 0
9, 126838, Note_on_c, 7, 48, 105
9, 126853, Note_on_c, 7, 48, 0
9, 126858, Note_on_c, 7, 48, 105
9, 126873, Note_on_c, 7, 48, 0
9, 126877, Note_on_c, 7, 48, 105
9, 126892, Note_on_c, 7, 48, 0
9, 126898, Note_on_c, 7, 48, 106
9, 126913, Note_on_c, 7, 48, 0
9, 126917, Note_on_c, 7, 48, 105
9, 126932, Note_on_c, 7, 48, 0
9, 126938, Note_on_c, 7, 48, 106
9, 126953, Note_on_c, 7, 48, 0
9, 126957, Note_on_c, 7, 48, 105
9, 126972, Note_on_c, 7, 48, 0
9, 126977, Note_on_c, 7, 48, 105
9, 126992, Note_on_c, 7, 48, 0
9, 126997, Note_on_c, 7, 48, 105
9, 127012, Note_on_c, 7, 48, 0
9, 127018, Note_on_c, 7, 48, 105
9, 127033, Note_on_c, 7, 48, 0
9, 127037, Note_on_c, 7, 48, 105
9, 127052, Note_on_c, 7, 48, 0
9, 127056, Note_on_c, 7, 48, 105
9, 127071, Note_on_c, 7, 48, 0
9, 127077, Note_on_c, 7, 48, 104
9, 127092, Note_on_c, 7, 48, 0
9, 127097, Note_on_c, 7, 48, 106
9, 127112, Note_on_c, 7, 48, 0
9, 127117, Note_on_c, 7, 48, 106
9, 127132, Note_on_c, 7, 48, 0
9, 127138, Note_on_c, 7, 48, 105
9, 127153, Note_on_c, 7, 48, 0
9, 127157, Note_on_c, 7, 48, 106
9, 127172, Note_on_c, 7, 48, 0
9, 127177, Note_on_c, 7, 48, 106
9, 127192, Note_on_c, 7, 48, 0
9, 127198, Note_on_c, 7, 48, 105
9, 127213, Note_on_c, 7, 48, 0
9, 127217, Note_on_c, 7, 48, 106
9, 127232, Note_on_c, 7, 48, 0
9, 127236, Note_on_c, 7, 48, 105
9, 127251, Note_on_c, 7, 48, 0
9, 127257, Note_on_c, 7, 48, 106
9, 127272, Note_on_c, 7, 48, 0
9, 127276, Note_on_c, 7, 48, 105
9, 127291, Note_on_c, 7, 48, 0
9, 127297, Note_on_c, 7, 48, 104
9, 127312, Note_on_c, 7, 48, 0
9, 127318, Note_on_c, 7, 48, 105
9, 127333, Note_on_c, 7, 48, 0
9, 127336, Note_on_c, 7, 48, 105
9, 127351, Note_on_c, 7, 48, 0
9, 127357, Note_on_c, 7, 48, 104
9, 127372, Note_on_c, 7, 48, 0
9, 127378, Note_on_c, 7, 48, 104
9, 127393, Note_on_c, 7, 48, 0
9, 127397, Note_on_c, 7, 48, 105
9, 127412, Note_on_c, 7, 48, 0
9, 127418, Note_on_c, 7, 48, 105
9, 127433, Note_on_c, 7, 48, 0
9, 127437, Note_on_c, 7, 48, 105
9, 127452, Note_on_c, 7, 48, 0
9, 127458, Note_on_c, 7, 48, 105
9, 127473, Note_on_c, 7, 48, 0
9, 127477, Note_on_c, 7, 48, 104
9, 127492, Note_on_c, 7, 48, 0
9, 127497, Note_on_c, 7, 48, 104
9, 127512, Note_on_c, 7, 48, 0
9, 127517, Note_on_c, 7, 48, 106
9, 127532, Note_on_c, 7, 48, 0
9, 127537, Note_on_c, 7, 48, 104
9, 127552, Note_on_c, 7, 48, 0
9, 127556, Note_on_c, 7, 48, 105
9, 127571, Note_on_c, 7, 48, 0
9, 127577, Note_on_c, 7, 48, 105
9, 127592, Note_on_c, 7, 48, 0
9, 127597, Note_on_c, 7, 48, 104
9, 127612, Note_on_c, 7, 48, 0
9, 127617, Note_on_c, 7, 48, 105
9, 127632, Note_on_c, 7, 48, 0
9, 127636, Note_on_c, 7, 48, 105
9, 127651, Note_on_c, 7, 48, 0
9, 127656, Note_on_c, 7, 48, 104
9, 127671, Note_on_c, 7, 48, 0
9, 127678, Note_on_c, 7, 48, 106
9, 127913, Note_on_c, 7, 48, 0
9, 133917, Note_on_c, 7, 43, 105
9, 133932, Note_on_c, 7, 43, 0
9, 133938, Note_on_c, 7, 43, 105
9, 133953, Note_on_c, 7, 43, 0
9, 133958, Note_on_c, 7, 43, 104
9, 133973, Note_on_c, 7, 43, 0
9, 133978, Note_on_c, 7, 43, 104
9, 133993, Note_on_c, 7, 43, 0
9, 133997, Note_on_c, 7, 43, 104
9, 134012, Note_on_c, 7, 43, 0
9, 134017, Note_on_c, 7, 43, 104
9, 134032, Note_on_c, 7, 43, 0
9, 134036, Note_on_c, 7, 43, 105
9, 134051, Note_on_c, 7, 43, 0
9, 134057, Note_on_c, 7, 43, 104
9, 134072, Note_on_c, 7, 43, 0
9, 134077, Note_on_c, 7, 43, 104
9, 134092, Note_on_c, 7, 43, 0
9, 134097, Note_on_c, 7, 43, 104
9, 134112, Note_on_c, 7, 43, 0
9, 134116, Note_on_c, 7, 43, 106
9, 134131, Note_on_c, 7, 43, 0
9, 134136, Note_on_c, 7, 43, 105
9, 134151, Note_on_c, 7, 43, 0
9, 134158, Note_on_c, 7, 43, 105
9, 134173, Note_on_c, 7, 43, 0
9, 134178, Note_on_c, 7, 43, 105
9, 134193, Note_on_c, 7, 43, 0
9, 134197, Note_on_c, 7, 43, 105
9, 134212, Note_on_c, 7, 43, 0
9, 134218, Note_on_c, 7, 43, 106
9, 134233, Note_on_c, 7, 43, 0
9, 134237, Note_on_c, 7, 43, 105
9, 134252, Note_on_c, 7, 43, 0
9, 134258, Note_on_c, 7, 43, 106
9, 134273, Note_on_c, 7, 43, 0
9, 134277, Note_on_c, 7, 43, 105
9, 134292, Note_on_c, 7, 43, 0
9, 134296, Note_on_c, 7, 43, 106
9, 134311, Note_on_c, 7, 43, 0
9, 134318, Note_on_c, 7, 43, 106
9, 134333, Note_on_c, 7, 43, 0
9, 134336, Note_on_c, 7, 43, 106
9, 134351, Note_on_c, 7, 43, 0
9, 134356, Note_on_c, 7, 43, 106
9, 134371, Note_on_c, 7, 43, 0
9, 134378, Note_on_c, 7, 43, 106
9, 134393, Note_on_c, 7, 43, 0
9, 134399, Note_on_c, 7, 48, 110
9, 134639, Note_on_c, 7, 48, 0
9, 134877, Note_on_c, 7, 48, 103
9, 135087, Note_on_c, 7, 48, 0
9, 135117, Note_on_c, 7, 48, 103
9, 135327, Note_on_c, 7, 48, 0
9, 135357, Note_on_c, 7, 48, 103
9, 135567, Note_on_c, 7, 48, 0
9, 137277, Note_on_c, 7, 43, 103
9, 137487, Note_on_c, 7, 43, 0
9, 137517, Note_on_c, 7, 43, 103
9, 137727, Note_on_c, 7, 43, 0
9, 137757, Note_on_c, 7, 43, 103
9, 137967, Note_on_c, 7, 43, 0
9, 137997, Note_on_c, 7, 43, 103
9, 138207, Note_on_c, 7, 43, 0
9, 138237, Note_on_c, 7, 48, 103
9, 138447, Note_on_c, 7, 48, 0
9, 138717, Note_on_c, 7, 43, 103
9, 138927, Note_on_c, 7, 43, 0
9, 143277, Note_on_c, 7, 43, 103
9, 143487, Note_on_c, 7, 43, 0
9, 143517, Note_on_c, 7, 43, 103
9, 143727, Note_on_c, 7, 43, 0
9, 143757, Note_on_c, 7, 43, 103
9, 143967, Note_on_c, 7, 43, 0
9, 147837, Note_on_c, 7, 43, 50
9, 148047, Note_on_c, 7, 43, 0
9, 166077, Note_on_c, 7, 48, 60
9, 166317, Note_on_c, 7, 48, 0
9, 167037, Note_on_c, 7, 48, 60
9, 167277, Note_on_c, 7, 48, 0
9, 167997, Note_on_c, 7, 48, 60
9, 168237, Note_on_c, 7, 48, 0
9, 168477, Note_on_c, 7, 48, 60
9, 168717, Note_on_c, 7, 48, 0
9, 168957, Note_on_c, 7, 43, 60
9, 169197, Note_on_c, 7, 43, 0
9, 177597, Note_on_c, 7, 48, 50
9, 177807, Note_on_c, 7, 48, 0
9, 178077, Note_on_c, 7, 48, 50
9, 178287, Note_on_c, 7, 48, 0
9, 178317, Note_on_c, 7, 48, 50
9, 178527, Note_on_c, 7, 48, 0
9, 178557, Note_on_c, 7, 48, 50
9, 178767, Note_on_c, 7, 48, 0
9, 179037, Note_on_c, 7, 48, 50
9, 179247, Note_on_c, 7, 48, 0
9, 179517, Note_on_c, 7, 43, 50
9, 179727, Note_on_c, 7, 43, 0
9, 180477, Note_on_c, 7, 43, 50
9, 180687, Note_on_c, 7, 43, 0
9, 181437, Note_on_c, 7, 43, 50
9, 181647, Note_on_c, 7, 43, 0
9, 182397, Note_on_c, 7, 43, 50
9, 182607, Note_on_c, 7, 43, 0
9, 182877, Note_on_c, 7, 43, 50
9, 183087, Note_on_c, 7, 43, 0
9, 183357, Note_on_c, 7, 43, 50
9, 183567, Note_on_c, 7, 43, 0
9, 186717, Note_on_c, 7, 48, 75
9, 186927, Note_on_c, 7, 48, 0
9, 187197, Note_on_c, 7, 48, 50
9, 187407, Note_on_c, 7, 48, 0
9, 189837, Note_on_c, 7, 43, 50
9, 190047, Note_on_c, 7, 43, 0
9, 190077, Note_on_c, 7, 48, 50
9, 190287, Note_on_c, 7, 48, 0
9, 190317, Note_on_c, 7, 48, 50
9, 190527, Note_on_c, 7, 48, 0
9, 190797, Note_on_c, 7, 48, 50
9, 190947, Note_on_c, 7, 48, 0
9, 190977, Note_on_c, 7, 48, 50
9, 191022, Note_on_c, 7, 48, 0
9, 191037, Note_on_c, 7, 48, 50
9, 191247, Note_on_c, 7, 48, 0
9, 191277, Note_on_c, 7, 43, 50
9, 191487, Note_on_c, 7, 43, 0
9, 191877, Note_on_c, 7, 43, 50
9, 191907, Note_on_c, 7, 43, 0
9, 191917, Note_on_c, 7, 43, 50
9, 191947, Note_on_c, 7, 43, 0
9, 191957, Note_on_c, 7, 43, 50
9, 191987, Note_on_c, 7, 43, 0
9, 191997, Note_on_c, 7, 43, 50
9, 192207, Note_on_c, 7, 43, 0
9, 192837, Note_on_c, 7, 43, 50
9, 192867, Note_on_c, 7, 43, 0
9, 192877, Note_on_c, 7, 43, 50
9, 192907, Note_on_c, 7, 43, 0
9, 192917, Note_on_c, 7, 43, 50
9, 192947, Note_on_c, 7, 43, 0
9, 192957, Note_on_c, 7, 43, 50
9, 193167, Note_on_c, 7, 43, 0
9, 193797, Note_on_c, 7, 43, 50
9, 193827, Note_on_c, 7, 43, 0
9, 193837, Note_on_c, 7, 43, 50
9, 193867, Note_on_c, 7, 43, 0
9, 193877, Note_on_c, 7, 43, 50
9, 193907, Note_on_c, 7, 43, 0
9, 193917, Note_on_c, 7, 43, 50
9, 194127, Note_on_c, 7, 43, 0
9, 194757, Note_on_c, 7, 43, 50
9, 194787, Note_on_c, 7, 43, 0
9, 194797, Note_on_c, 7, 43, 50
9, 194827, Note_on_c, 7, 43, 0
9, 194837, Note_on_c, 7, 43, 50
9, 194867, Note_on_c, 7, 43, 0
9, 194877, Note_on_c, 7, 43, 50
9, 195087, Note_on_c, 7, 43, 0
9, 195732, Note_on_c, 7, 43, 100
9, 195762, Note_on_c, 7, 43, 0
9, 195767, Note_on_c, 7, 43, 100
9, 195797, Note_on_c, 7, 43, 0
9, 195802, Note_on_c, 7, 43, 100
9, 195832, Note_on_c, 7, 43, 0
9, 195837, Note_on_c, 7, 43, 127
9, 196047, Note_on_c, 7, 43, 0
9, 196677, Note_on_c, 7, 43, 90
9, 196707, Note_on_c, 7, 43, 0
9, 196717, Note_on_c, 7, 43, 90
9, 196747, Note_on_c, 7, 43, 0
9, 196757, Note_on_c, 7, 43, 90
9, 196787, Note_on_c, 7, 43, 0
9, 196797, Note_on_c, 7, 43, 90
9, 197007, Note_on_c, 7, 43, 0
9, 197637, Note_on_c, 7, 43, 70
9, 197667, Note_on_c, 7, 43, 0
9, 197677, Note_on_c, 7, 43, 65
9, 197707, Note_on_c, 7, 43, 0
9, 197717, Note_on_c, 7, 43, 60
9, 197747, Note_on_c, 7, 43, 0
9, 197757, Note_on_c, 7, 43, 55
9, 197967, Note_on_c, 7, 43, 0
9, 198117, Note_on_c, 7, 43, 50
9, 198147, Note_on_c, 7, 43, 0
9, 198157, Note_on_c, 7, 43, 50
9, 198187, Note_on_c, 7, 43, 0
9, 198197, Note_on_c, 7, 43, 50
9, 198227, Note_on_c, 7, 43, 0
9, 198237, Note_on_c, 7, 43, 50
9, 198447, Note_on_c, 7, 43, 0
9, 198597, Note_on_c, 7, 43, 50
9, 198627, Note_on_c, 7, 43, 0
9, 198637, Note_on_c, 7, 43, 50
9, 198667, Note_on_c, 7, 43, 0
9, 198677, Note_on_c, 7, 43, 50
9, 198707, Note_on_c, 7, 43, 0
9, 198717, Note_on_c, 7, 43, 50
9, 198927, Note_on_c, 7, 43, 0
9, 199557, Note_on_c, 7, 43, 50
9, 199587, Note_on_c, 7, 43, 0
9, 199597, Note_on_c, 7, 43, 50
9, 199627, Note_on_c, 7, 43, 0
9, 199637, Note_on_c, 7, 43, 50
9, 199667, Note_on_c, 7, 43, 0
9, 199677, Note_on_c, 7, 43, 50
9, 199887, Note_on_c, 7, 43, 0
9, 200037, Note_on_c, 7, 43, 55
9, 200067, Note_on_c, 7, 43, 0
9, 200077, Note_on_c, 7, 43, 56
9, 200107, Note_on_c, 7, 43, 0
9, 200117, Note_on_c, 7, 43, 57
9, 200147, Note_on_c, 7, 43, 0
9, 200157, Note_on_c, 7, 43, 58
9, 200367, Note_on_c, 7, 43, 0
9, 200517, Note_on_c, 7, 43, 67
9, 200547, Note_on_c, 7, 43, 0
9, 200557, Note_on_c, 7, 43, 68
9, 200587, Note_on_c, 7, 43, 0
9, 200597, Note_on_c, 7, 43, 69
9, 200627, Note_on_c, 7, 43, 0
9, 200637, Note_on_c, 7, 48, 70
9, 200847, Note_on_c, 7, 48, 0
9, 214077, Note_on_c, 7, 48, 30
9, 214287, Note_on_c, 7, 48, 0
9, 215037, Note_on_c, 7, 48, 30
9, 215247, Note_on_c, 7, 48, 0
9, 215997, Note_on_c, 7, 48, 30
9, 216447, Note_on_c, 7, 48, 0
9, 216477, Note_on_c, 7, 48, 30
9, 216687, Note_on_c, 7, 48, 0
9, 216717, Note_on_c, 7, 48, 30
9, 216927, Note_on_c, 7, 48, 0
9, 216957, Note_on_c, 7, 48, 30
9, 217167, Note_on_c, 7, 48, 0
9, 217437, Note_on_c, 7, 48, 37
9, 217647, Note_on_c, 7, 48, 0
9, 217677, Note_on_c, 7, 48, 40
9, 217887, Note_on_c, 7, 48, 0
9, 217918, Note_on_c, 7, 48, 46
9, 217933, Note_on_c, 7, 48, 0
9, 217937, Note_on_c, 7, 48, 46
9, 217952, Note_on_c, 7, 48, 0
9, 217957, Note_on_c, 7, 48, 46
9, 217972, Note_on_c, 7, 48, 0
9, 217977, Note_on_c, 7, 48, 47
9, 217992, Note_on_c, 7, 48, 0
9, 217996, Note_on_c, 7, 48, 47
9, 218011, Note_on_c, 7, 48, 0
9, 218017, Note_on_c, 7, 48, 48
9, 218032, Note_on_c, 7, 48, 0
9, 218038, Note_on_c, 7, 48, 49
9, 218053, Note_on_c, 7, 48, 0
9, 218056, Note_on_c, 7, 48, 49
9, 218071, Note_on_c, 7, 48, 0
9, 218077, Note_on_c, 7, 48, 49
9, 218092, Note_on_c, 7, 48, 0
9, 218097, Note_on_c, 7, 48, 50
9, 218112, Note_on_c, 7, 48, 0
9, 218117, Note_on_c, 7, 48, 51
9, 218132, Note_on_c, 7, 48, 0
9, 218137, Note_on_c, 7, 48, 51
9, 218152, Note_on_c, 7, 48, 0
9, 218158, Note_on_c, 7, 48, 52
9, 218173, Note_on_c, 7, 48, 0
9, 218177, Note_on_c, 7, 48, 52
9, 218192, Note_on_c, 7, 48, 0
9, 218198, Note_on_c, 7, 48, 53
9, 218213, Note_on_c, 7, 48, 0
9, 218216, Note_on_c, 7, 48, 53
9, 218231, Note_on_c, 7, 48, 0
9, 218236, Note_on_c, 7, 48, 53
9, 218251, Note_on_c, 7, 48, 0
9, 218258, Note_on_c, 7, 48, 54
9, 218273, Note_on_c, 7, 48, 0
9, 218277, Note_on_c, 7, 48, 55
9, 218292, Note_on_c, 7, 48, 0
9, 218298, Note_on_c, 7, 48, 55
9, 218313, Note_on_c, 7, 48, 0
9, 218317, Note_on_c, 7, 48, 56
9, 218332, Note_on_c, 7, 48, 0
9, 218338, Note_on_c, 7, 48, 56
9, 218353, Note_on_c, 7, 48, 0
9, 218357, Note_on_c, 7, 48, 57
9, 218372, Note_on_c, 7, 48, 0
9, 218377, Note_on_c, 7, 48, 57
9, 218392, Note_on_c, 7, 48, 0
9, 218398, Note_on_c, 7, 48, 58
9, 218413, Note_on_c, 7, 48, 0
9, 218417, Note_on_c, 7, 48, 58
9, 218432, Note_on_c, 7, 48, 0
9, 218438, Note_on_c, 7, 48, 59
9, 218453, Note_on_c, 7, 48, 0
9, 218456, Note_on_c, 7, 48, 59
9, 218471, Note_on_c, 7, 48, 0
9, 218478, Note_on_c, 7, 48, 60
9, 218493, Note_on_c, 7, 48, 0
9, 218497, Note_on_c, 7, 48, 60
9, 218512, Note_on_c, 7, 48, 0
9, 218517, Note_on_c, 7, 48, 61
9, 218532, Note_on_c, 7, 48, 0
9, 218537, Note_on_c, 7, 48, 61
9, 218552, Note_on_c, 7, 48, 0
9, 218558, Note_on_c, 7, 48, 62
9, 218573, Note_on_c, 7, 48, 0
9, 218578, Note_on_c, 7, 48, 62
9, 218593, Note_on_c, 7, 48, 0
9, 218598, Note_on_c, 7, 48, 63
9, 218613, Note_on_c, 7, 48, 0
9, 218618, Note_on_c, 7, 48, 63
9, 218633, Note_on_c, 7, 48, 0
9, 218637, Note_on_c, 7, 48, 64
9, 218652, Note_on_c, 7, 48, 0
9, 218657, Note_on_c, 7, 48, 64
9, 218672, Note_on_c, 7, 48, 0
9, 218678, Note_on_c, 7, 48, 65
9, 218693, Note_on_c, 7, 48, 0
9, 218697, Note_on_c, 7, 48, 65
9, 218712, Note_on_c, 7, 48, 0
9, 218717, Note_on_c, 7, 48, 66
9, 218732, Note_on_c, 7, 48, 0
9, 218738, Note_on_c, 7, 48, 66
9, 218753, Note_on_c, 7, 48, 0
9, 218758, Note_on_c, 7, 48, 67
9, 218773, Note_on_c, 7, 48, 0
9, 218778, Note_on_c, 7, 48, 67
9, 218793, Note_on_c, 7, 48, 0
9, 218796, Note_on_c, 7, 48, 67
9, 218811, Note_on_c, 7, 48, 0
9, 218817, Note_on_c, 7, 48, 68
9, 218832, Note_on_c, 7, 48, 0
9, 218836, Note_on_c, 7, 48, 68
9, 218851, Note_on_c, 7, 48, 0
9, 218857, Note_on_c, 7, 48, 69
9, 218872, Note_on_c, 7, 48, 0
9, 218876, Note_on_c, 7, 48, 69
9, 219081, Note_on_c, 7, 48, 0
9, 220317, Note_on_c, 7, 48, 45
9, 220527, Note_on_c, 7, 48, 0
9, 221277, Note_on_c, 7, 48, 45
9, 221487, Note_on_c, 7, 48, 0
9, 222237, Note_on_c, 7, 43, 30
9, 222447, Note_on_c, 7, 43, 0
9, 223197, Note_on_c, 7, 43, 30
9, 223407, Note_on_c, 7, 43, 0
9, 224157, Note_on_c, 7, 43, 30
9, 224367, Note_on_c, 7, 43, 0
9, 226077, Note_on_c, 7, 43, 30
9, 226287, Note_on_c, 7, 43, 0
9, 226317, Note_on_c, 7, 43, 30
9, 226527, Note_on_c, 7, 43, 0
9, 228477, Note_on_c, 7, 48, 40
9, 228687, Note_on_c, 7, 48, 0
9, 228687, End_track
10, 0, Start_track
10, 0, Channel_prefix, 8
10, 0, Title_t, "Violin I"
10, 0, Instrument_name_t, "Violino I"
10, 720, Note_on_c, 8, 55, 50
10, 840, Note_on_c, 8, 55, 0
10, 900, Note_on_c, 8, 55, 50
10, 930, Note_on_c, 8, 55, 0
10, 960, Note_on_c, 8, 55, 50
10, 1410, Note_on_c, 8, 55, 0
10, 1440, Note_on_c, 8, 62, 50
10, 1470, Note_on_c, 8, 60, 50
10, 1470, Note_on_c, 8, 62, 0
10, 1620, Note_on_c, 8, 59, 50
10, 1650, Note_on_c, 8, 60, 0
10, 1680, Note_on_c, 8, 60, 50
10, 1710, Note_on_c, 8, 59, 0
10, 1860, Note_on_c, 8, 62, 50
10, 1890, Note_on_c, 8, 60, 0
10, 1920, Note_on_c, 8, 62, 0
10, 1920, Note_on_c, 8, 63, 50
10, 2400, Note_on_c, 8, 60, 50
10, 2430, Note_on_c, 8, 63, 0
10, 2640, Note_on_c, 8, 60, 0
10, 2880, Note_on_c, 8, 67, 50
10, 3330, Note_on_c, 8, 67, 0
10, 3360, Note_on_c, 8, 65, 50
10, 3420, Note_on_c, 8, 63, 50
10, 3450, Note_on_c, 8, 65, 0
10, 3570, Note_on_c, 8, 63, 0
10, 3600, Note_on_c, 8, 62, 50
10, 3660, Note_on_c, 8, 60, 50
10, 3690, Note_on_c, 8, 62, 0
10, 3840, Note_on_c, 8, 60, 0
10, 3840, Note_on_c, 8, 63, 50
10, 4320, Note_on_c, 8, 62, 50
10, 4350, Note_on_c, 8, 63, 0
10, 4530, Note_on_c, 8, 62, 0
10, 4800, Note_on_c, 8, 62, 50
10, 5250, Note_on_c, 8, 62, 0
10, 5280, Note_on_c, 8, 62, 50
10, 5460, Note_on_c, 8, 62, 0
10, 5460, Note_on_c, 8, 63, 50
10, 5520, Note_on_c, 8, 65, 50
10, 5550, Note_on_c, 8, 63, 0
10, 5700, Note_on_c, 8, 67, 50
10, 5730, Note_on_c, 8, 65, 0
10, 5760, Note_on_c, 8, 67, 0
10, 5760, Note_on_c, 8, 68, 50
10, 5760, Control_c, 8, 11, 80
10, 5770, Control_c, 8, 11, 82
10, 5780, Control_c, 8, 11, 85
10, 5790, Control_c, 8, 11, 87
10, 5800, Control_c, 8, 11, 90
10, 5810, Control_c, 8, 11, 92
10, 5820, Control_c, 8, 11, 95
10, 5830, Control_c, 8, 11, 97
10, 5840, Control_c, 8, 11, 100
10, 5850, Control_c, 8, 11, 102
10, 5860, Control_c, 8, 11, 105
10, 5870, Control_c, 8, 11, 107
10, 5880, Control_c, 8, 11, 110
10, 5900, Control_c, 8, 11, 109
10, 5910, Control_c, 8, 11, 109
10, 5920, Control_c, 8, 11, 108
10, 5930, Control_c, 8, 11, 108
10, 5950, Control_c, 8, 11, 107
10, 5960, Control_c, 8, 11, 106
10, 5970, Control_c, 8, 11, 106
10, 5980, Control_c, 8, 11, 105
10, 5990, Control_c, 8, 11, 105
10, 6010, Control_c, 8, 11, 104
10, 6020, Control_c, 8, 11, 103
10, 6030, Control_c, 8, 11, 103
10, 6040, Control_c, 8, 11, 102
10, 6050, Control_c, 8, 11, 102
10, 6070, Control_c, 8, 11, 100
10, 6080, Control_c, 8, 11, 100
10, 6090, Control_c, 8, 11, 99
10, 6100, Control_c, 8, 11, 99
10, 6120, Control_c, 8, 11, 98
10, 6130, Control_c, 8, 11, 97
10, 6140, Control_c, 8, 11, 97
10, 6150, Control_c, 8, 11, 96
10, 6160, Control_c, 8, 11, 96
10, 6180, Control_c, 8, 11, 95
10, 6190, Control_c, 8, 11, 94
10, 6200, Control_c, 8, 11, 94
10, 6210, Control_c, 8, 11, 93
10, 6220, Control_c, 8, 11, 93
10, 6240, Control_c, 8, 11, 92
10, 6250, Control_c, 8, 11, 91
10, 6260, Control_c, 8, 11, 90
10, 6270, Control_c, 8, 11, 90
10, 6290, Control_c, 8, 11, 89
10, 6300, Control_c, 8, 11, 88
10, 6310, Control_c, 8, 11, 88
10, 6320, Control_c, 8, 11, 87
10, 6330, Control_c, 8, 11, 87
10, 6350, Control_c, 8, 11, 86
10, 6360, Control_c, 8, 11, 85
10, 6370, Control_c, 8, 11, 85
10, 6380, Control_c, 8, 11, 84
10, 6390, Control_c, 8, 11, 84
10, 6410, Control_c, 8, 11, 83
10, 6420, Control_c, 8, 11, 82
10, 6430, Control_c, 8, 11, 81
10, 6440, Control_c, 8, 11, 80
10, 6480, Note_on_c, 8, 67, 50
10, 6493, Note_on_c, 8, 68, 0
10, 6600, Note_on_c, 8, 65, 50
10, 6600, Note_on_c, 8, 67, 0
10, 6690, Note_on_c, 8, 65, 0
10, 6720, Note_on_c, 8, 65, 50
10, 6840, Note_on_c, 8, 63, 50
10, 6870, Note_on_c, 8, 65, 0
10, 6930, Note_on_c, 8, 63, 0
10, 6960, Note_on_c, 8, 65, 50
10, 7020, Note_on_c, 8, 65, 0
10, 7080, Note_on_c, 8, 62, 50
10, 7140, Note_on_c, 8, 62, 0
10, 7200, Note_on_c, 8, 60, 50
10, 7440, Note_on_c, 8, 62, 50
10, 7470, Note_on_c, 8, 60, 0
10, 7620, Note_on_c, 8, 59, 50
10, 7650, Note_on_c, 8, 62, 0
10, 7680, Note_on_c, 8, 59, 0
10, 7680, Note_on_c, 8, 60, 50
10, 7860, Note_on_c, 8, 60, 0
10, 7920, Note_on_c, 8, 60, 50
10, 8070, Note_on_c, 8, 60, 0
10, 8100, Note_on_c, 8, 60, 50
10, 8154, Note_on_c, 8, 60, 0
10, 8160, Note_on_c, 8, 60, 50
10, 8340, Note_on_c, 8, 60, 0
10, 8520, Note_on_c, 8, 63, 50
10, 8550, Note_on_c, 8, 63, 0
10, 8560, Note_on_c, 8, 63, 50
10, 8590, Note_on_c, 8, 63, 0
10, 8600, Note_on_c, 8, 63, 50
10, 8630, Note_on_c, 8, 63, 0
10, 8640, Note_on_c, 8, 63, 50
10, 8880, Note_on_c, 8, 63, 0
10, 9480, Note_on_c, 8, 63, 50
10, 9510, Note_on_c, 8, 63, 0
10, 9520, Note_on_c, 8, 63, 50
10, 9550, Note_on_c, 8, 63, 0
10, 9560, Note_on_c, 8, 63, 50
10, 9590, Note_on_c, 8, 63, 0
10, 9600, Note_on_c, 8, 63, 50
10, 9840, Note_on_c, 8, 63, 0
10, 10440, Note_on_c, 8, 63, 50
10, 10470, Note_on_c, 8, 63, 0
10, 10480, Note_on_c, 8, 63, 50
10, 10510, Note_on_c, 8, 63, 0
10, 10520, Note_on_c, 8, 63, 50
10, 10550, Note_on_c, 8, 63, 0
10, 10560, Note_on_c, 8, 63, 50
10, 10800, Note_on_c, 8, 63, 0
10, 10920, Note_on_c, 8, 63, 50
10, 10950, Note_on_c, 8, 63, 0
10, 10960, Note_on_c, 8, 63, 50
10, 10990, Note_on_c, 8, 63, 0
10, 11000, Note_on_c, 8, 63, 50
10, 11030, Note_on_c, 8, 63, 0
10, 11040, Note_on_c, 8, 67, 50
10, 11280, Note_on_c, 8, 67, 0
10, 11400, Note_on_c, 8, 67, 50
10, 11430, Note_on_c, 8, 67, 0
10, 11440, Note_on_c, 8, 67, 50
10, 11470, Note_on_c, 8, 67, 0
10, 11480, Note_on_c, 8, 67, 50
10, 11510, Note_on_c, 8, 67, 0
10, 11520, Note_on_c, 8, 67, 50
10, 11520, Control_c, 8, 11, 80
10, 11540, Control_c, 8, 11, 81
10, 11560, Control_c, 8, 11, 82
10, 11570, Control_c, 8, 11, 83
10, 11590, Control_c, 8, 11, 84
10, 11600, Control_c, 8, 11, 85
10, 11620, Control_c, 8, 11, 86
10, 11640, Control_c, 8, 11, 87
10, 11650, Control_c, 8, 11, 88
10, 11670, Control_c, 8, 11, 89
10, 11680, Control_c, 8, 11, 90
10, 11700, Control_c, 8, 11, 91
10, 11720, Control_c, 8, 11, 92
10, 11730, Control_c, 8, 11, 93
10, 11750, Control_c, 8, 11, 94
10, 11760, Note_on_c, 8, 67, 0
10, 11760, Control_c, 8, 11, 95
10, 11780, Control_c, 8, 11, 96
10, 11800, Control_c, 8, 11, 97
10, 11810, Control_c, 8, 11, 98
10, 11830, Control_c, 8, 11, 99
10, 11840, Control_c, 8, 11, 100
10, 11860, Control_c, 8, 11, 101
10, 11880, Note_on_c, 8, 69, 50
10, 11880, Control_c, 8, 11, 102
10, 11890, Control_c, 8, 11, 103
10, 11910, Note_on_c, 8, 69, 0
10, 11910, Control_c, 8, 11, 104
10, 11920, Note_on_c, 8, 69, 50
10, 11920, Control_c, 8, 11, 105
10, 11940, Control_c, 8, 11, 106
10, 11950, Note_on_c, 8, 69, 0
10, 11960, Note_on_c, 8, 69, 50
10, 11960, Control_c, 8, 11, 107
10, 11970, Control_c, 8, 11, 108
10, 11990, Note_on_c, 8, 69, 0
10, 11990, Control_c, 8, 11, 109
10, 12000, Note_on_c, 8, 71, 50
10, 12000, Control_c, 8, 11, 110
10, 12010, Control_c, 8, 11, 109
10, 12020, Control_c, 8, 11, 108
10, 12030, Control_c, 8, 11, 107
10, 12040, Control_c, 8, 11, 105
10, 12050, Control_c, 8, 11, 104
10, 12060, Control_c, 8, 11, 103
10, 12070, Control_c, 8, 11, 102
10, 12080, Control_c, 8, 11, 100
10, 12090, Control_c, 8, 11, 99
10, 12100, Control_c, 8, 11, 98
10, 12110, Control_c, 8, 11, 97
10, 12120, Control_c, 8, 11, 95
10, 12130, Control_c, 8, 11, 94
10, 12140, Control_c, 8, 11, 93
10, 12150, Control_c, 8, 11, 92
10, 12160, Control_c, 8, 11, 90
10, 12170, Control_c, 8, 11, 89
10, 12180, Control_c, 8, 11, 88
10, 12190, Control_c, 8, 11, 87
10, 12200, Control_c, 8, 11, 85
10, 12210, Control_c, 8, 11, 84
10, 12220, Control_c, 8, 11, 83
10, 12230, Control_c, 8, 11, 80
10, 12240, Note_on_c, 8, 71, 0
10, 12360, Note_on_c, 8, 62, 50
10, 12390, Note_on_c, 8, 62, 0
10, 12400, Note_on_c, 8, 62, 50
10, 12430, Note_on_c, 8, 62, 0
10, 12440, Note_on_c, 8, 62, 50
10, 12470, Note_on_c, 8, 62, 0
10, 12480, Note_on_c, 8, 62, 50
10, 12720, Note_on_c, 8, 62, 0
10, 13320, Note_on_c, 8, 65, 50
10, 13350, Note_on_c, 8, 65, 0
10, 13360, Note_on_c, 8, 65, 50
10, 13390, Note_on_c, 8, 65, 0
10, 13400, Note_on_c, 8, 65, 50
10, 13430, Note_on_c, 8, 65, 0
10, 13440, Note_on_c, 8, 65, 50
10, 13440, Control_c, 8, 11, 80
10, 13480, Control_c, 8, 11, 81
10, 13520, Control_c, 8, 11, 82
10, 13560, Control_c, 8, 11, 83
10, 13600, Control_c, 8, 11, 84
10, 13640, Control_c, 8, 11, 85
10, 13680, Note_on_c, 8, 65, 0
10, 13680, Control_c, 8, 11, 86
10, 13720, Control_c, 8, 11, 87
10, 13760, Control_c, 8, 11, 88
10, 13800, Control_c, 8, 11, 89
10, 13840, Control_c, 8, 11, 90
10, 13880, Control_c, 8, 11, 91
10, 13920, Control_c, 8, 11, 92
10, 13960, Control_c, 8, 11, 93
10, 14000, Control_c, 8, 11, 94
10, 14040, Control_c, 8, 11, 95
10, 14080, Control_c, 8, 11, 96
10, 14120, Control_c, 8, 11, 97
10, 14160, Control_c, 8, 11, 98
10, 14200, Control_c, 8, 11, 99
10, 14240, Control_c, 8, 11, 100
10, 14280, Note_on_c, 8, 68, 50
10, 14280, Control_c, 8, 11, 101
10, 14310, Note_on_c, 8, 68, 0
10, 14320, Note_on_c, 8, 68, 50
10, 14320, Control_c, 8, 11, 102
10, 14350, Note_on_c, 8, 68, 0
10, 14360, Note_on_c, 8, 68, 50
10, 14360, Control_c, 8, 11, 103
10, 14390, Note_on_c, 8, 68, 0
10, 14400, Note_on_c, 8, 68, 50
10, 14400, Control_c, 8, 11, 104
10, 14440, Control_c, 8, 11, 105
10, 14480, Control_c, 8, 11, 106
10, 14520, Control_c, 8, 11, 107
10, 14560, Control_c, 8, 11, 108
10, 14600, Control_c, 8, 11, 109
10, 14640, Note_on_c, 8, 68, 0
10, 14640, Control_c, 8, 11, 110
10, 14670, Control_c, 8, 11, 109
10, 14690, Control_c, 8, 11, 108
10, 14720, Control_c, 8, 11, 107
10, 14740, Control_c, 8, 11, 106
10, 14760, Note_on_c, 8, 68, 50
10, 14760, Control_c, 8, 11, 105
10, 14790, Note_on_c, 8, 68, 0
10, 14790, Control_c, 8, 11, 104
10, 14800, Note_on_c, 8, 68, 50
10, 14810, Control_c, 8, 11, 103
10, 14830, Note_on_c, 8, 68, 0
10, 14840, Note_on_c, 8, 68, 50
10, 14840, Control_c, 8, 11, 102
10, 14860, Control_c, 8, 11, 101
10, 14870, Note_on_c, 8, 68, 0
10, 14880, Note_on_c, 8, 67, 50
10, 14880, Control_c, 8, 11, 100
10, 14910, Control_c, 8, 11, 99
10, 14930, Control_c, 8, 11, 98
10, 14960, Control_c, 8, 11, 97
10, 14980, Control_c, 8, 11, 96
10, 15000, Control_c, 8, 11, 95
10, 15030, Control_c, 8, 11, 94
10, 15050, Control_c, 8, 11, 93
10, 15080, Control_c, 8, 11, 92
10, 15100, Control_c, 8, 11, 91
10, 15120, Note_on_c, 8, 67, 0
10, 15120, Control_c, 8, 11, 90
10, 15150, Control_c, 8, 11, 89
10, 15170, Control_c, 8, 11, 88
10, 15200, Control_c, 8, 11, 87
10, 15220, Control_c, 8, 11, 86
10, 15240, Note_on_c, 8, 68, 50
10, 15240, Control_c, 8, 11, 85
10, 15270, Note_on_c, 8, 68, 0
10, 15270, Control_c, 8, 11, 84
10, 15280, Note_on_c, 8, 68, 50
10, 15290, Control_c, 8, 11, 83
10, 15310, Note_on_c, 8, 68, 0
10, 15320, Note_on_c, 8, 68, 50
10, 15320, Control_c, 8, 11, 82
10, 15340, Control_c, 8, 11, 80
10, 15350, Note_on_c, 8, 68, 0
10, 15360, Note_on_c, 8, 67, 50
10, 15600, Note_on_c, 8, 67, 0
10, 16080, Note_on_c, 8, 58, 50
10, 16320, Note_on_c, 8, 58, 0
10, 16320, Note_on_c, 8, 63, 50
10, 16800, Note_on_c, 8, 62, 50
10, 16820, Note_on_c, 8, 63, 0
10, 17040, Note_on_c, 8, 60, 50
10, 17056, Note_on_c, 8, 62, 0
10, 17265, Note_on_c, 8, 60, 0
10, 17280, Note_on_c, 8, 58, 50
10, 17760, Control_c, 8, 11, 78
10, 17800, Control_c, 8, 11, 81
10, 17830, Control_c, 8, 11, 84
10, 17839, Note_on_c, 8, 58, 0
10, 17860, Control_c, 8, 11, 87
10, 17880, Note_on_c, 8, 58, 50
10, 17890, Control_c, 8, 11, 90
10, 17910, Note_on_c, 8, 58, 0
10, 17920, Control_c, 8, 11, 93
10, 17940, Note_on_c, 8, 60, 50
10, 17950, Control_c, 8, 11, 96
10, 17970, Note_on_c, 8, 60, 0
10, 17980, Control_c, 8, 11, 99
10, 18000, Note_on_c, 8, 62, 50
10, 18010, Control_c, 8, 11, 102
10, 18030, Note_on_c, 8, 62, 0
10, 18040, Control_c, 8, 11, 104
10, 18060, Note_on_c, 8, 63, 50
10, 18070, Control_c, 8, 11, 107
10, 18090, Note_on_c, 8, 63, 0
10, 18100, Control_c, 8, 11, 110
10, 18120, Note_on_c, 8, 65, 50
10, 18140, Control_c, 8, 11, 114
10, 18150, Note_on_c, 8, 65, 0
10, 18170, Control_c, 8, 11, 117
10, 18180, Note_on_c, 8, 67, 50
10, 18200, Control_c, 8, 11, 120
10, 18210, Note_on_c, 8, 67, 0
10, 18230, Control_c, 8, 11, 123
10, 18240, Note_on_c, 8, 68, 50
10, 18260, Control_c, 8, 11, 126
10, 18720, Note_on_c, 8, 67, 53
10, 18740, Note_on_c, 8, 68, 0
10, 18960, Note_on_c, 8, 65, 55
10, 18976, Note_on_c, 8, 67, 0
10, 19185, Note_on_c, 8, 65, 0
10, 19200, Note_on_c, 8, 64, 57
10, 19460, Note_on_c, 8, 64, 0
10, 19620, Note_on_c, 8, 70, 60
10, 19650, Note_on_c, 8, 70, 0
10, 19680, Note_on_c, 8, 70, 60
10, 20210, Note_on_c, 8, 70, 0
10, 20610, Control_c, 8, 11, 80
10, 20640, Note_on_c, 8, 68, 50
10, 20880, Note_on_c, 8, 67, 50
10, 20895, Note_on_c, 8, 68, 0
10, 21105, Note_on_c, 8, 67, 0
10, 21120, Note_on_c, 8, 66, 50
10, 21600, Note_on_c, 8, 72, 50
10, 21600, Control_c, 8, 11, 80
10, 21610, Control_c, 8, 11, 83
10, 21615, Note_on_c, 8, 66, 0
10, 21620, Control_c, 8, 11, 87
10, 21630, Control_c, 8, 11, 91
10, 21640, Control_c, 8, 11, 95
10, 21650, Control_c, 8, 11, 99
10, 21660, Control_c, 8, 11, 103
10, 21670, Control_c, 8, 11, 107
10, 21680, Control_c, 8, 11, 111
10, 21690, Control_c, 8, 11, 115
10, 21700, Control_c, 8, 11, 119
10, 21710, Control_c, 8, 11, 123
10, 21720, Control_c, 8, 11, 127
10, 21730, Control_c, 8, 11, 126
10, 21740, Control_c, 8, 11, 125
10, 21750, Control_c, 8, 11, 124
10, 21760, Control_c, 8, 11, 122
10, 21770, Control_c, 8, 11, 121
10, 21780, Control_c, 8, 11, 120
10, 21790, Control_c, 8, 11, 118
10, 21800, Control_c, 8, 11, 117
10, 21810, Control_c, 8, 11, 116
10, 21820, Control_c, 8, 11, 114
10, 21830, Control_c, 8, 11, 113
10, 21840, Control_c, 8, 11, 112
10, 21850, Control_c, 8, 11, 111
10, 21860, Control_c, 8, 11, 109
10, 21870, Control_c, 8, 11, 108
10, 21880, Control_c, 8, 11, 107
10, 21890, Control_c, 8, 11, 105
10, 21900, Control_c, 8, 11, 104
10, 21910, Control_c, 8, 11, 103
10, 21920, Control_c, 8, 11, 101
10, 21930, Control_c, 8, 11, 100
10, 21940, Control_c, 8, 11, 99
10, 21950, Control_c, 8, 11, 97
10, 21960, Note_on_c, 8, 66, 50
10, 21960, Control_c, 8, 11, 96
10, 21970, Control_c, 8, 11, 95
10, 21975, Note_on_c, 8, 72, 0
10, 21980, Control_c, 8, 11, 94
10, 21990, Control_c, 8, 11, 92
10, 22000, Control_c, 8, 11, 91
10, 22010, Control_c, 8, 11, 90
10, 22020, Control_c, 8, 11, 88
10, 22030, Control_c, 8, 11, 87
10, 22040, Control_c, 8, 11, 86
10, 22050, Control_c, 8, 11, 84
10, 22060, Control_c, 8, 11, 82
10, 22065, Note_on_c, 8, 66, 0
10, 22070, Control_c, 8, 11, 80
10, 22080, Note_on_c, 8, 67, 50
10, 23748, Note_on_c, 8, 67, 0
10, 23760, Note_on_c, 8, 67, 50
10, 23985, Note_on_c, 8, 67, 0
10, 24000, Note_on_c, 8, 79, 50
10, 24000, Control_c, 8, 11, 80
10, 24030, Control_c, 8, 11, 81
10, 24050, Control_c, 8, 11, 82
10, 24070, Control_c, 8, 11, 83
10, 24090, Control_c, 8, 11, 84
10, 24110, Control_c, 8, 11, 85
10, 24130, Control_c, 8, 11, 86
10, 24150, Control_c, 8, 11, 87
10, 24170, Control_c, 8, 11, 88
10, 24190, Control_c, 8, 11, 89
10, 24210, Control_c, 8, 11, 90
10, 24230, Control_c, 8, 11, 91
10, 24250, Control_c, 8, 11, 92
10, 24270, Control_c, 8, 11, 93
10, 24290, Control_c, 8, 11, 94
10, 24310, Control_c, 8, 11, 95
10, 24330, Control_c, 8, 11, 96
10, 24350, Control_c, 8, 11, 97
10, 24370, Control_c, 8, 11, 98
10, 24390, Control_c, 8, 11, 99
10, 24410, Control_c, 8, 11, 100
10, 24430, Control_c, 8, 11, 101
10, 24450, Control_c, 8, 11, 102
10, 24470, Control_c, 8, 11, 103
10, 24480, Note_on_c, 8, 74, 50
10, 24495, Note_on_c, 8, 79, 0
10, 24500, Control_c, 8, 11, 104
10, 24520, Control_c, 8, 11, 105
10, 24540, Control_c, 8, 11, 106
10, 24560, Control_c, 8, 11, 107
10, 24580, Control_c, 8, 11, 108
10, 24600, Control_c, 8, 11, 109
10, 24620, Control_c, 8, 11, 110
10, 24640, Control_c, 8, 11, 111
10, 24660, Control_c, 8, 11, 112
10, 24680, Control_c, 8, 11, 113
10, 24700, Control_c, 8, 11, 114
10, 24720, Note_on_c, 8, 77, 50
10, 24720, Control_c, 8, 11, 115
10, 24735, Note_on_c, 8, 74, 0
10, 24740, Control_c, 8, 11, 116
10, 24760, Control_c, 8, 11, 117
10, 24780, Control_c, 8, 11, 118
10, 24800, Control_c, 8, 11, 119
10, 24820, Control_c, 8, 11, 120
10, 24840, Control_c, 8, 11, 121
10, 24860, Control_c, 8, 11, 122
10, 24880, Control_c, 8, 11, 123
10, 24900, Control_c, 8, 11, 124
10, 24920, Control_c, 8, 11, 125
10, 24940, Control_c, 8, 11, 126
10, 24960, Note_on_c, 8, 75, 50
10, 24960, Control_c, 8, 11, 127
10, 24975, Note_on_c, 8, 77, 0
10, 24990, Control_c, 8, 11, 126
10, 25010, Control_c, 8, 11, 125
10, 25030, Control_c, 8, 11, 124
10, 25050, Control_c, 8, 11, 123
10, 25070, Control_c, 8, 11, 122
10, 25090, Control_c, 8, 11, 121
10, 25110, Control_c, 8, 11, 120
10, 25130, Control_c, 8, 11, 119
10, 25150, Control_c, 8, 11, 118
10, 25170, Control_c, 8, 11, 117
10, 25190, Control_c, 8, 11, 116
10, 25210, Control_c, 8, 11, 115
10, 25230, Control_c, 8, 11, 114
10, 25250, Control_c, 8, 11, 113
10, 25270, Control_c, 8, 11, 112
10, 25290, Control_c, 8, 11, 111
10, 25310, Control_c, 8, 11, 110
10, 25330, Control_c, 8, 11, 109
10, 25350, Control_c, 8, 11, 108
10, 25370, Control_c, 8, 11, 107
10, 25390, Control_c, 8, 11, 106
10, 25410, Control_c, 8, 11, 105
10, 25430, Control_c, 8, 11, 104
10, 25440, Note_on_c, 8, 74, 50
10, 25455, Note_on_c, 8, 75, 0
10, 25460, Control_c, 8, 11, 103
10, 25480, Control_c, 8, 11, 102
10, 25500, Control_c, 8, 11, 101
10, 25520, Control_c, 8, 11, 100
10, 25540, Control_c, 8, 11, 99
10, 25560, Control_c, 8, 11, 98
10, 25580, Control_c, 8, 11, 97
10, 25600, Control_c, 8, 11, 96
10, 25620, Control_c, 8, 11, 95
10, 25640, Control_c, 8, 11, 94
10, 25660, Control_c, 8, 11, 93
10, 25680, Note_on_c, 8, 72, 50
10, 25680, Control_c, 8, 11, 92
10, 25695, Note_on_c, 8, 74, 0
10, 25700, Control_c, 8, 11, 91
10, 25720, Control_c, 8, 11, 90
10, 25740, Control_c, 8, 11, 89
10, 25760, Control_c, 8, 11, 88
10, 25780, Control_c, 8, 11, 87
10, 25800, Control_c, 8, 11, 86
10, 25820, Control_c, 8, 11, 85
10, 25840, Control_c, 8, 11, 84
10, 25860, Control_c, 8, 11, 83
10, 25880, Control_c, 8, 11, 82
10, 25900, Control_c, 8, 11, 80
10, 25905, Note_on_c, 8, 72, 0
10, 25920, Note_on_c, 8, 71, 50
10, 26145, Note_on_c, 8, 71, 0
10, 29520, Note_on_c, 8, 60, 60
10, 29520, Control_c, 8, 11, 80
10, 29530, Control_c, 8, 11, 82
10, 29540, Control_c, 8, 11, 84
10, 29550, Control_c, 8, 11, 86
10, 29560, Control_c, 8, 11, 88
10, 29570, Control_c, 8, 11, 91
10, 29580, Control_c, 8, 11, 93
10, 29590, Control_c, 8, 11, 95
10, 29600, Control_c, 8, 11, 97
10, 29620, Control_c, 8, 11, 100
10, 29630, Control_c, 8, 11, 99
10, 29640, Note_on_c, 8, 60, 0
10, 29640, Control_c, 8, 11, 98
10, 29650, Control_c, 8, 11, 96
10, 29660, Control_c, 8, 11, 95
10, 29670, Control_c, 8, 11, 93
10, 29680, Control_c, 8, 11, 92
10, 29690, Control_c, 8, 11, 90
10, 29700, Note_on_c, 8, 60, 60
10, 29700, Control_c, 8, 11, 89
10, 29710, Control_c, 8, 11, 88
10, 29720, Control_c, 8, 11, 86
10, 29730, Note_on_c, 8, 60, 0
10, 29730, Control_c, 8, 11, 84
10, 29740, Control_c, 8, 11, 82
10, 29750, Control_c, 8, 11, 80
10, 29760, Note_on_c, 8, 60, 60
10, 30210, Note_on_c, 8, 60, 0
10, 30240, Note_on_c, 8, 67, 50
10, 30270, Note_on_c, 8, 65, 50
10, 30270, Note_on_c, 8, 67, 0
10, 30420, Note_on_c, 8, 64, 50
10, 30450, Note_on_c, 8, 65, 0
10, 30480, Note_on_c, 8, 65, 50
10, 30510, Note_on_c, 8, 64, 0
10, 30660, Note_on_c, 8, 67, 50
10, 30690, Note_on_c, 8, 65, 0
10, 30720, Note_on_c, 8, 67, 0
10, 30720, Note_on_c, 8, 68, 50
10, 31200, Note_on_c, 8, 65, 50
10, 31230, Note_on_c, 8, 68, 0
10, 31440, Note_on_c, 8, 65, 0
10, 31680, Note_on_c, 8, 77, 50
10, 31680, Control_c, 8, 11, 80
10, 31730, Control_c, 8, 11, 82
10, 31780, Control_c, 8, 11, 85
10, 31830, Control_c, 8, 11, 87
10, 31880, Control_c, 8, 11, 90
10, 31920, Control_c, 8, 11, 92
10, 31970, Control_c, 8, 11, 94
10, 32020, Control_c, 8, 11, 97
10, 32070, Control_c, 8, 11, 99
10, 32120, Control_c, 8, 11, 102
10, 32130, Note_on_c, 8, 77, 0
10, 32160, Note_on_c, 8, 75, 50
10, 32160, Control_c, 8, 11, 104
10, 32210, Control_c, 8, 11, 106
10, 32220, Note_on_c, 8, 74, 50
10, 32250, Note_on_c, 8, 75, 0
10, 32260, Control_c, 8, 11, 109
10, 32310, Control_c, 8, 11, 111
10, 32360, Control_c, 8, 11, 114
10, 32370, Note_on_c, 8, 74, 0
10, 32400, Note_on_c, 8, 72, 50
10, 32400, Control_c, 8, 11, 116
10, 32450, Control_c, 8, 11, 118
10, 32460, Note_on_c, 8, 71, 50
10, 32490, Note_on_c, 8, 72, 0
10, 32500, Control_c, 8, 11, 121
10, 32550, Control_c, 8, 11, 123
10, 32600, Control_c, 8, 11, 126
10, 32610, Note_on_c, 8, 71, 0
10, 32640, Note_on_c, 8, 72, 55
10, 32640, Control_c, 8, 11, 127
10, 32730, Note_on_c, 8, 72, 0
10, 32880, Note_on_c, 8, 68, 55
10, 32970, Note_on_c, 8, 68, 0
10, 33180, Control_c, 8, 11, 80
10, 33360, Note_on_c, 8, 66, 50
10, 33810, Note_on_c, 8, 66, 0
10, 33840, Note_on_c, 8, 67, 50
10, 33840, Control_c, 8, 11, 80
10, 33850, Control_c, 8, 11, 82
10, 33860, Control_c, 8, 11, 84
10, 33870, Control_c, 8, 11, 86
10, 33880, Control_c, 8, 11, 88
10, 33890, Control_c, 8, 11, 91
10, 33900, Control_c, 8, 11, 93
10, 33910, Control_c, 8, 11, 95
10, 33920, Control_c, 8, 11, 97
10, 33940, Control_c, 8, 11, 100
10, 33980, Control_c, 8, 11, 99
10, 34010, Control_c, 8, 11, 98
10, 34040, Control_c, 8, 11, 97
10, 34070, Control_c, 8, 11, 96
10, 34100, Control_c, 8, 11, 95
10, 34130, Control_c, 8, 11, 94
10, 34160, Control_c, 8, 11, 93
10, 34190, Control_c, 8, 11, 92
10, 34220, Control_c, 8, 11, 91
10, 34250, Control_c, 8, 11, 90
10, 34290, Control_c, 8, 11, 89
10, 34320, Note_on_c, 8, 65, 50
10, 34320, Control_c, 8, 11, 88
10, 34350, Note_on_c, 8, 67, 0
10, 34350, Control_c, 8, 11, 87
10, 34380, Control_c, 8, 11, 86
10, 34410, Control_c, 8, 11, 85
10, 34440, Control_c, 8, 11, 84
10, 34470, Control_c, 8, 11, 83
10, 34500, Note_on_c, 8, 62, 50
10, 34500, Control_c, 8, 11, 82
10, 34530, Note_on_c, 8, 65, 0
10, 34530, Control_c, 8, 11, 80
10, 34560, Note_on_c, 8, 60, 50
10, 34560, Note_on_c, 8, 62, 0
10, 34800, Note_on_c, 8, 60, 0
10, 35400, Note_on_c, 8, 58, 50
10, 35400, Note_on_c, 8, 68, 50
10, 35430, Note_on_c, 8, 58, 0
10, 35430, Note_on_c, 8, 68, 0
10, 35440, Note_on_c, 8, 58, 50
10, 35440, Note_on_c, 8, 68, 50
10, 35470, Note_on_c, 8, 58, 0
10, 35470, Note_on_c, 8, 68, 0
10, 35480, Note_on_c, 8, 58, 50
10, 35480, Note_on_c, 8, 68, 50
10, 35510, Note_on_c, 8, 58, 0
10, 35510, Note_on_c, 8, 68, 0
10, 35520, Note_on_c, 8, 58, 50
10, 35520, Note_on_c, 8, 67, 50
10, 35760, Note_on_c, 8, 58, 0
10, 35760, Note_on_c, 8, 67, 0
10, 36360, Note_on_c, 8, 63, 50
10, 36390, Note_on_c, 8, 63, 0
10, 36400, Note_on_c, 8, 63, 50
10, 36430, Note_on_c, 8, 63, 0
10, 36440, Note_on_c, 8, 63, 50
10, 36470, Note_on_c, 8, 63, 0
10, 36480, Note_on_c, 8, 65, 50
10, 36720, Note_on_c, 8, 65, 0
10, 37320, Note_on_c, 8, 65, 50
10, 37350, Note_on_c, 8, 65, 0
10, 37360, Note_on_c, 8, 65, 50
10, 37390, Note_on_c, 8, 65, 0
10, 37400, Note_on_c, 8, 65, 50
10, 37430, Note_on_c, 8, 65, 0
10, 37440, Note_on_c, 8, 68, 50
10, 37440, Control_c, 8, 11, 80
10, 37510, Control_c, 8, 11, 81
10, 37570, Control_c, 8, 11, 82
10, 37630, Control_c, 8, 11, 83
10, 37680, Note_on_c, 8, 68, 0
10, 37690, Control_c, 8, 11, 84
10, 37750, Control_c, 8, 11, 85
10, 37800, Note_on_c, 8, 68, 50
10, 37810, Control_c, 8, 11, 86
10, 37830, Note_on_c, 8, 68, 0
10, 37840, Note_on_c, 8, 68, 50
10, 37870, Note_on_c, 8, 68, 0
10, 37880, Note_on_c, 8, 68, 50
10, 37880, Control_c, 8, 11, 87
10, 37910, Note_on_c, 8, 68, 0
10, 37920, Note_on_c, 8, 67, 50
10, 37940, Control_c, 8, 11, 88
10, 38000, Control_c, 8, 11, 89
10, 38060, Control_c, 8, 11, 90
10, 38120, Control_c, 8, 11, 91
10, 38160, Note_on_c, 8, 67, 0
10, 38180, Control_c, 8, 11, 92
10, 38240, Control_c, 8, 11, 93
10, 38280, Note_on_c, 8, 65, 50
10, 38310, Note_on_c, 8, 65, 0
10, 38310, Control_c, 8, 11, 94
10, 38320, Note_on_c, 8, 65, 50
10, 38350, Note_on_c, 8, 65, 0
10, 38360, Note_on_c, 8, 65, 50
10, 38370, Control_c, 8, 11, 95
10, 38390, Note_on_c, 8, 65, 0
10, 38400, Note_on_c, 8, 64, 50
10, 38430, Control_c, 8, 11, 96
10, 38490, Control_c, 8, 11, 97
10, 38550, Control_c, 8, 11, 98
10, 38610, Control_c, 8, 11, 100
10, 38640, Note_on_c, 8, 64, 0
10, 38760, Note_on_c, 8, 70, 50
10, 38790, Note_on_c, 8, 70, 0
10, 38800, Note_on_c, 8, 70, 50
10, 38830, Note_on_c, 8, 70, 0
10, 38840, Note_on_c, 8, 70, 50
10, 38870, Note_on_c, 8, 70, 0
10, 38880, Note_on_c, 8, 70, 50
10, 39120, Note_on_c, 8, 70, 0
10, 39240, Note_on_c, 8, 70, 50
10, 39270, Note_on_c, 8, 70, 0
10, 39280, Note_on_c, 8, 70, 50
10, 39310, Note_on_c, 8, 70, 0
10, 39320, Note_on_c, 8, 70, 50
10, 39350, Note_on_c, 8, 70, 0
10, 39358, Control_c, 8, 11, 80
10, 39360, Note_on_c, 8, 70, 50
10, 39600, Note_on_c, 8, 70, 0
10, 39720, Note_on_c, 8, 70, 50
10, 39750, Note_on_c, 8, 70, 0
10, 39760, Note_on_c, 8, 70, 50
10, 39790, Note_on_c, 8, 70, 0
10, 39800, Note_on_c, 8, 70, 50
10, 39830, Note_on_c, 8, 70, 0
10, 39840, Note_on_c, 8, 68, 50
10, 40080, Note_on_c, 8, 68, 0
10, 40200, Note_on_c, 8, 67, 50
10, 40230, Note_on_c, 8, 67, 0
10, 40240, Note_on_c, 8, 67, 50
10, 40270, Note_on_c, 8, 67, 0
10, 40280, Note_on_c, 8, 67, 50
10, 40310, Note_on_c, 8, 67, 0
10, 40320, Note_on_c, 8, 66, 50
10, 40560, Note_on_c, 8, 66, 0
10, 40680, Note_on_c, 8, 66, 50
10, 40710, Note_on_c, 8, 66, 0
10, 40720, Note_on_c, 8, 66, 50
10, 40750, Note_on_c, 8, 66, 0
10, 40760, Note_on_c, 8, 66, 50
10, 40790, Note_on_c, 8, 66, 0
10, 40800, Note_on_c, 8, 66, 60
10, 41040, Note_on_c, 8, 66, 0
10, 41160, Note_on_c, 8, 66, 50
10, 41190, Note_on_c, 8, 66, 0
10, 41200, Note_on_c, 8, 66, 50
10, 41230, Note_on_c, 8, 66, 0
10, 41240, Note_on_c, 8, 66, 50
10, 41270, Note_on_c, 8, 66, 0
10, 41280, Note_on_c, 8, 67, 50
10, 41520, Note_on_c, 8, 67, 0
10, 42120, Note_on_c, 8, 67, 50
10, 42150, Note_on_c, 8, 67, 0
10, 42160, Note_on_c, 8, 67, 50
10, 42190, Note_on_c, 8, 67, 0
10, 42200, Note_on_c, 8, 67, 50
10, 42230, Note_on_c, 8, 67, 0
10, 42240, Note_on_c, 8, 67, 50
10, 42480, Note_on_c, 8, 67, 0
10, 43080, Note_on_c, 8, 67, 50
10, 43110, Note_on_c, 8, 67, 0
10, 43120, Note_on_c, 8, 67, 50
10, 43150, Note_on_c, 8, 67, 0
10, 43160, Note_on_c, 8, 67, 50
10, 43190, Note_on_c, 8, 67, 0
10, 43200, Note_on_c, 8, 67, 50
10, 43200, Control_c, 8, 11, 80
10, 43250, Control_c, 8, 11, 82
10, 43300, Control_c, 8, 11, 84
10, 43350, Control_c, 8, 11, 87
10, 43400, Control_c, 8, 11, 89
10, 43440, Note_on_c, 8, 67, 0
10, 43440, Control_c, 8, 11, 91
10, 43490, Control_c, 8, 11, 94
10, 43540, Control_c, 8, 11, 96
10, 43590, Control_c, 8, 11, 99
10, 43640, Control_c, 8, 11, 101
10, 43680, Control_c, 8, 11, 103
10, 43730, Control_c, 8, 11, 105
10, 43780, Control_c, 8, 11, 108
10, 43830, Control_c, 8, 11, 110
10, 43880, Control_c, 8, 11, 113
10, 43920, Control_c, 8, 11, 115
10, 43970, Control_c, 8, 11, 117
10, 44020, Control_c, 8, 11, 120
10, 44040, Note_on_c, 8, 67, 50
10, 44070, Note_on_c, 8, 67, 0
10, 44070, Control_c, 8, 11, 122
10, 44080, Note_on_c, 8, 67, 50
10, 44110, Note_on_c, 8, 67, 0
10, 44120, Note_on_c, 8, 67, 50
10, 44120, Control_c, 8, 11, 125
10, 44150, Note_on_c, 8, 67, 0
10, 44160, Note_on_c, 8, 67, 50
10, 44160, Control_c, 8, 11, 127
10, 44210, Control_c, 8, 11, 125
10, 44260, Control_c, 8, 11, 123
10, 44310, Control_c, 8, 11, 120
10, 44360, Control_c, 8, 11, 118
10, 44370, Note_on_c, 8, 67, 0
10, 44400, Control_c, 8, 11, 116
10, 44450, Control_c, 8, 11, 113
10, 44500, Control_c, 8, 11, 111
10, 44520, Note_on_c, 8, 67, 50
10, 44550, Note_on_c, 8, 67, 0
10, 44550, Control_c, 8, 11, 108
10, 44560, Note_on_c, 8, 67, 50
10, 44590, Note_on_c, 8, 67, 0
10, 44600, Note_on_c, 8, 67, 50
10, 44600, Control_c, 8, 11, 106
10, 44630, Note_on_c, 8, 67, 0
10, 44640, Note_on_c, 8, 67, 50
10, 44640, Control_c, 8, 11, 104
10, 44690, Control_c, 8, 11, 102
10, 44740, Control_c, 8, 11, 99
10, 44790, Control_c, 8, 11, 97
10, 44840, Control_c, 8, 11, 94
10, 44850, Note_on_c, 8, 67, 0
10, 44880, Control_c, 8, 11, 92
10, 44930, Control_c, 8, 11, 90
10, 44980, Control_c, 8, 11, 87
10, 45000, Note_on_c, 8, 67, 50
10, 45030, Note_on_c, 8, 67, 0
10, 45030, Control_c, 8, 11, 84
10, 45040, Note_on_c, 8, 67, 50
10, 45070, Note_on_c, 8, 67, 0
10, 45080, Note_on_c, 8, 67, 50
10, 45080, Control_c, 8, 11, 80
10, 45110, Note_on_c, 8, 67, 0
10, 45120, Note_on_c, 8, 67, 50
10, 45330, Note_on_c, 8, 67, 0
10, 48840, Note_on_c, 8, 70, 50
10, 48870, Note_on_c, 8, 70, 0
10, 48880, Note_on_c, 8, 70, 50
10, 48910, Note_on_c, 8, 70, 0
10, 48920, Note_on_c, 8, 70, 50
10, 48950, Note_on_c, 8, 70, 0
10, 48960, Note_on_c, 8, 68, 50
10, 49170, Note_on_c, 8, 68, 0
10, 49800, Note_on_c, 8, 68, 50
10, 49830, Note_on_c, 8, 68, 0
10, 49840, Note_on_c, 8, 68, 50
10, 49870, Note_on_c, 8, 68, 0
10, 49880, Note_on_c, 8, 68, 50
10, 49910, Note_on_c, 8, 68, 0
10, 49920, Note_on_c, 8, 68, 50
10, 50130, Note_on_c, 8, 68, 0
10, 50760, Note_on_c, 8, 68, 50
10, 50790, Note_on_c, 8, 68, 0
10, 50800, Note_on_c, 8, 68, 50
10, 50830, Note_on_c, 8, 68, 0
10, 50840, Note_on_c, 8, 68, 50
10, 50870, Note_on_c, 8, 68, 0
10, 50880, Note_on_c, 8, 68, 50
10, 50880, Control_c, 8, 11, 80
10, 50910, Control_c, 8, 11, 81
10, 50930, Control_c, 8, 11, 82
10, 50950, Control_c, 8, 11, 83
10, 50970, Control_c, 8, 11, 84
10, 50990, Control_c, 8, 11, 85
10, 51010, Control_c, 8, 11, 86
10, 51030, Control_c, 8, 11, 87
10, 51050, Control_c, 8, 11, 88
10, 51070, Control_c, 8, 11, 89
10, 51090, Note_on_c, 8, 68, 0
10, 51090, Control_c, 8, 11, 90
10, 51110, Control_c, 8, 11, 91
10, 51130, Control_c, 8, 11, 92
10, 51150, Control_c, 8, 11, 93
10, 51170, Control_c, 8, 11, 94
10, 51190, Control_c, 8, 11, 95
10, 51210, Control_c, 8, 11, 96
10, 51230, Control_c, 8, 11, 97
10, 51240, Note_on_c, 8, 68, 50
10, 51250, Control_c, 8, 11, 98
10, 51270, Note_on_c, 8, 68, 0
10, 51270, Control_c, 8, 11, 99
10, 51280, Note_on_c, 8, 68, 50
10, 51290, Control_c, 8, 11, 100
10, 51310, Note_on_c, 8, 68, 0
10, 51310, Control_c, 8, 11, 101
10, 51320, Note_on_c, 8, 68, 50
10, 51330, Control_c, 8, 11, 102
10, 51350, Note_on_c, 8, 68, 0
10, 51350, Control_c, 8, 11, 103
10, 51360, Note_on_c, 8, 71, 50
10, 51380, Control_c, 8, 11, 104
10, 51400, Control_c, 8, 11, 105
10, 51420, Control_c, 8, 11, 106
10, 51440, Control_c, 8, 11, 107
10, 51460, Control_c, 8, 11, 108
10, 51480, Control_c, 8, 11, 109
10, 51500, Control_c, 8, 11, 110
10, 51520, Control_c, 8, 11, 111
10, 51540, Control_c, 8, 11, 112
10, 51560, Control_c, 8, 11, 113
10, 51570, Note_on_c, 8, 71, 0
10, 51580, Control_c, 8, 11, 114
10, 51600, Control_c, 8, 11, 115
10, 51620, Control_c, 8, 11, 116
10, 51640, Control_c, 8, 11, 117
10, 51660, Control_c, 8, 11, 118
10, 51680, Control_c, 8, 11, 119
10, 51700, Control_c, 8, 11, 120
10, 51720, Note_on_c, 8, 71, 50
10, 51720, Control_c, 8, 11, 121
10, 51740, Control_c, 8, 11, 122
10, 51750, Note_on_c, 8, 71, 0
10, 51760, Note_on_c, 8, 71, 50
10, 51760, Control_c, 8, 11, 123
10, 51780, Control_c, 8, 11, 124
10, 51790, Note_on_c, 8, 71, 0
10, 51800, Note_on_c, 8, 71, 50
10, 51800, Control_c, 8, 11, 125
10, 51820, Control_c, 8, 11, 127
10, 51830, Note_on_c, 8, 71, 0
10, 51840, Note_on_c, 8, 72, 50
10, 51930, Note_on_c, 8, 72, 0
10, 52080, Note_on_c, 8, 68, 50
10, 52170, Note_on_c, 8, 68, 0
10, 52560, Control_c, 8, 11, 80
10, 52680, Note_on_c, 8, 63, 50
10, 52710, Note_on_c, 8, 63, 0
10, 52720, Note_on_c, 8, 63, 50
10, 52750, Note_on_c, 8, 63, 0
10, 52760, Note_on_c, 8, 63, 50
10, 52790, Note_on_c, 8, 63, 0
10, 52800, Note_on_c, 8, 63, 50
10, 52810, Control_c, 8, 11, 80
10, 52830, Control_c, 8, 11, 82
10, 52860, Control_c, 8, 11, 85
10, 52880, Control_c, 8, 11, 87
10, 52910, Control_c, 8, 11, 90
10, 52930, Control_c, 8, 11, 92
10, 52960, Control_c, 8, 11, 95
10, 52980, Control_c, 8, 11, 97
10, 53010, Note_on_c, 8, 63, 0
10, 53010, Control_c, 8, 11, 100
10, 53030, Control_c, 8, 11, 102
10, 53060, Control_c, 8, 11, 105
10, 53080, Control_c, 8, 11, 107
10, 53110, Control_c, 8, 11, 110
10, 53130, Control_c, 8, 11, 112
10, 53160, Note_on_c, 8, 63, 50
10, 53160, Control_c, 8, 11, 115
10, 53180, Control_c, 8, 11, 117
10, 53190, Note_on_c, 8, 63, 0
10, 53200, Note_on_c, 8, 63, 50
10, 53210, Control_c, 8, 11, 120
10, 53230, Note_on_c, 8, 63, 0
10, 53230, Control_c, 8, 11, 122
10, 53240, Note_on_c, 8, 63, 50
10, 53260, Control_c, 8, 11, 125
10, 53270, Note_on_c, 8, 63, 0
10, 53280, Note_on_c, 8, 65, 50
10, 53280, Control_c, 8, 11, 127
10, 53310, Control_c, 8, 11, 125
10, 53330, Control_c, 8, 11, 123
10, 53360, Control_c, 8, 11, 120
10, 53380, Control_c, 8, 11, 118
10, 53400, Control_c, 8, 11, 116
10, 53430, Control_c, 8, 11, 113
10, 53450, Control_c, 8, 11, 111
10, 53480, Control_c, 8, 11, 108
10, 53490, Note_on_c, 8, 65, 0
10, 53500, Control_c, 8, 11, 106
10, 53520, Control_c, 8, 11, 104
10, 53550, Control_c, 8, 11, 101
10, 53570, Control_c, 8, 11, 99
10, 53600, Control_c, 8, 11, 96
10, 53620, Control_c, 8, 11, 94
10, 53640, Note_on_c, 8, 71, 50
10, 53640, Control_c, 8, 11, 92
10, 53670, Note_on_c, 8, 71, 0
10, 53670, Control_c, 8, 11, 89
10, 53680, Note_on_c, 8, 71, 50
10, 53690, Control_c, 8, 11, 86
10, 53710, Note_on_c, 8, 71, 0
10, 53720, Note_on_c, 8, 71, 50
10, 53720, Control_c, 8, 11, 83
10, 53740, Control_c, 8, 11, 80
10, 53750, Note_on_c, 8, 71, 0
10, 53760, Note_on_c, 8, 72, 50
10, 54240, Note_on_c, 8, 67, 50
10, 54270, Note_on_c, 8, 72, 0
10, 54690, Note_on_c, 8, 67, 0
10, 54720, Note_on_c, 8, 63, 50
10, 54960, Note_on_c, 8, 67, 50
10, 54990, Note_on_c, 8, 63, 0
10, 55200, Note_on_c, 8, 72, 50
10, 55230, Note_on_c, 8, 67, 0
10, 55650, Note_on_c, 8, 72, 0
10, 55680, Note_on_c, 8, 74, 50
10, 56160, Note_on_c, 8, 75, 50
10, 56160, Control_c, 8, 11, 80
10, 56170, Control_c, 8, 11, 82
10, 56180, Control_c, 8, 11, 85
10, 56190, Note_on_c, 8, 74, 0
10, 56190, Control_c, 8, 11, 87
10, 56200, Control_c, 8, 11, 90
10, 56210, Control_c, 8, 11, 92
10, 56220, Control_c, 8, 11, 95
10, 56230, Control_c, 8, 11, 97
10, 56240, Control_c, 8, 11, 100
10, 56250, Control_c, 8, 11, 102
10, 56260, Control_c, 8, 11, 105
10, 56270, Control_c, 8, 11, 107
10, 56280, Control_c, 8, 11, 110
10, 56290, Control_c, 8, 11, 108
10, 56300, Control_c, 8, 11, 105
10, 56310, Control_c, 8, 11, 103
10, 56320, Control_c, 8, 11, 100
10, 56330, Control_c, 8, 11, 98
10, 56340, Control_c, 8, 11, 95
10, 56350, Control_c, 8, 11, 93
10, 56360, Control_c, 8, 11, 90
10, 56370, Control_c, 8, 11, 87
10, 56380, Control_c, 8, 11, 83
10, 56390, Control_c, 8, 11, 80
10, 56520, Note_on_c, 8, 74, 50
10, 56550, Note_on_c, 8, 75, 0
10, 56580, Note_on_c, 8, 72, 50
10, 56580, Note_on_c, 8, 74, 0
10, 56625, Note_on_c, 8, 72, 0
10, 56640, Note_on_c, 8, 72, 50
10, 56880, Note_on_c, 8, 71, 50
10, 56910, Note_on_c, 8, 72, 0
10, 57000, Note_on_c, 8, 71, 0
10, 57120, Note_on_c, 8, 71, 50
10, 57210, Note_on_c, 8, 71, 0
10, 59400, Note_on_c, 8, 69, 50
10, 59430, Note_on_c, 8, 69, 0
10, 59440, Note_on_c, 8, 69, 50
10, 59470, Note_on_c, 8, 69, 0
10, 59480, Note_on_c, 8, 69, 50
10, 59510, Note_on_c, 8, 69, 0
10, 59520, Note_on_c, 8, 67, 50
10, 59730, Note_on_c, 8, 67, 0
10, 59880, Note_on_c, 8, 67, 50
10, 59910, Note_on_c, 8, 67, 0
10, 59920, Note_on_c, 8, 67, 50
10, 59950, Note_on_c, 8, 67, 0
10, 59960, Note_on_c, 8, 67, 50
10, 59990, Note_on_c, 8, 67, 0
10, 60000, Note_on_c, 8, 67, 50
10, 60210, Note_on_c, 8, 67, 0
10, 60360, Note_on_c, 8, 67, 50
10, 60390, Note_on_c, 8, 67, 0
10, 60400, Note_on_c, 8, 67, 50
10, 60430, Note_on_c, 8, 67, 0
10, 60440, Note_on_c, 8, 67, 50
10, 60470, Note_on_c, 8, 67, 0
10, 60480, Note_on_c, 8, 67, 50
10, 60690, Note_on_c, 8, 67, 0
10, 60720, Note_on_c, 8, 78, 50
10, 60720, Control_c, 8, 11, 80
10, 60730, Control_c, 8, 11, 83
10, 60740, Control_c, 8, 11, 86
10, 60750, Control_c, 8, 11, 90
10, 60760, Control_c, 8, 11, 93
10, 60770, Control_c, 8, 11, 96
10, 60780, Control_c, 8, 11, 100
10, 60790, Control_c, 8, 11, 103
10, 60800, Control_c, 8, 11, 106
10, 60820, Control_c, 8, 11, 110
10, 60850, Control_c, 8, 11, 109
10, 60870, Control_c, 8, 11, 108
10, 60890, Control_c, 8, 11, 107
10, 60910, Control_c, 8, 11, 106
10, 60930, Control_c, 8, 11, 105
10, 60950, Control_c, 8, 11, 104
10, 60970, Control_c, 8, 11, 103
10, 60990, Control_c, 8, 11, 102
10, 61010, Control_c, 8, 11, 101
10, 61030, Control_c, 8, 11, 100
10, 61050, Control_c, 8, 11, 99
10, 61070, Control_c, 8, 11, 98
10, 61090, Control_c, 8, 11, 97
10, 61110, Control_c, 8, 11, 96
10, 61130, Control_c, 8, 11, 95
10, 61160, Control_c, 8, 11, 94
10, 61180, Control_c, 8, 11, 93
10, 61200, Note_on_c, 8, 79, 50
10, 61200, Control_c, 8, 11, 92
10, 61220, Control_c, 8, 11, 91
10, 61230, Note_on_c, 8, 78, 0
10, 61240, Control_c, 8, 11, 90
10, 61260, Control_c, 8, 11, 89
10, 61280, Control_c, 8, 11, 88
10, 61300, Control_c, 8, 11, 87
10, 61320, Control_c, 8, 11, 86
10, 61340, Control_c, 8, 11, 85
10, 61360, Control_c, 8, 11, 84
10, 61380, Control_c, 8, 11, 83
10, 61400, Control_c, 8, 11, 82
10, 61410, Note_on_c, 8, 79, 0
10, 61420, Control_c, 8, 11, 80
10, 61440, Note_on_c, 8, 67, 50
10, 61650, Note_on_c, 8, 67, 0
10, 61800, Note_on_c, 8, 67, 50
10, 61830, Note_on_c, 8, 67, 0
10, 61840, Note_on_c, 8, 67, 50
10, 61870, Note_on_c, 8, 67, 0
10, 61880, Note_on_c, 8, 67, 50
10, 61910, Note_on_c, 8, 67, 0
10, 61920, Note_on_c, 8, 67, 50
10, 62130, Note_on_c, 8, 67, 0
10, 62280, Note_on_c, 8, 67, 50
10, 62310, Note_on_c, 8, 67, 0
10, 62320, Note_on_c, 8, 67, 50
10, 62350, Note_on_c, 8, 67, 0
10, 62360, Note_on_c, 8, 67, 50
10, 62390, Note_on_c, 8, 67, 0
10, 62400, Note_on_c, 8, 67, 50
10, 62610, Note_on_c, 8, 67, 0
10, 62640, Note_on_c, 8, 80, 50
10, 62640, Control_c, 8, 11, 80
10, 62650, Control_c, 8, 11, 83
10, 62660, Control_c, 8, 11, 86
10, 62670, Control_c, 8, 11, 90
10, 62680, Control_c, 8, 11, 93
10, 62690, Control_c, 8, 11, 96
10, 62700, Control_c, 8, 11, 100
10, 62710, Control_c, 8, 11, 103
10, 62720, Control_c, 8, 11, 106
10, 62740, Control_c, 8, 11, 110
10, 62750, Control_c, 8, 11, 108
10, 62760, Control_c, 8, 11, 106
10, 62770, Control_c, 8, 11, 104
10, 62780, Control_c, 8, 11, 102
10, 62790, Control_c, 8, 11, 100
10, 62800, Control_c, 8, 11, 98
10, 62810, Control_c, 8, 11, 95
10, 62820, Control_c, 8, 11, 93
10, 62830, Control_c, 8, 11, 91
10, 62840, Control_c, 8, 11, 89
10, 62850, Control_c, 8, 11, 87
10, 62860, Control_c, 8, 11, 83
10, 62870, Control_c, 8, 11, 80
10, 62880, Note_on_c, 8, 79, 50
10, 62910, Note_on_c, 8, 80, 0
10, 63120, Note_on_c, 8, 75, 50
10, 63120, Control_c, 8, 11, 80
10, 63130, Control_c, 8, 11, 83
10, 63140, Control_c, 8, 11, 86
10, 63150, Note_on_c, 8, 79, 0
10, 63150, Control_c, 8, 11, 90
10, 63160, Control_c, 8, 11, 93
10, 63170, Control_c, 8, 11, 96
10, 63180, Control_c, 8, 11, 100
10, 63190, Control_c, 8, 11, 103
10, 63200, Control_c, 8, 11, 106
10, 63220, Control_c, 8, 11, 110
10, 63230, Control_c, 8, 11, 108
10, 63240, Control_c, 8, 11, 106
10, 63250, Control_c, 8, 11, 104
10, 63260, Control_c, 8, 11, 102
10, 63270, Control_c, 8, 11, 100
10, 63280, Control_c, 8, 11, 98
10, 63290, Control_c, 8, 11, 95
10, 63300, Control_c, 8, 11, 93
10, 63310, Control_c, 8, 11, 91
10, 63320, Control_c, 8, 11, 89
10, 63330, Control_c, 8, 11, 87
10, 63340, Control_c, 8, 11, 83
10, 63350, Control_c, 8, 11, 80
10, 63360, Note_on_c, 8, 72, 50
10, 63390, Note_on_c, 8, 75, 0
10, 63570, Note_on_c, 8, 72, 0
10, 63600, Note_on_c, 8, 68, 60
10, 63765, Note_on_c, 8, 68, 0
10, 63780, Note_on_c, 8, 65, 60
10, 63825, Note_on_c, 8, 65, 0
10, 63840, Note_on_c, 8, 62, 60
10, 63930, Note_on_c, 8, 62, 0
10, 64080, Note_on_c, 8, 67, 60
10, 64170, Note_on_c, 8, 67, 0
10, 64320, Note_on_c, 8, 60, 50
10, 64410, Note_on_c, 8, 60, 0
10, 64800, Note_on_c, 8, 63, 50
10, 64890, Note_on_c, 8, 63, 0
10, 65280, Note_on_c, 8, 60, 50
10, 65370, Note_on_c, 8, 60, 0
10, 66240, Note_on_c, 8, 67, 45
10, 66320, Note_on_c, 8, 72, 45
10, 66330, Note_on_c, 8, 67, 0
10, 66380, Note_on_c, 8, 72, 0
10, 66400, Note_on_c, 8, 76, 45
10, 66445, Note_on_c, 8, 76, 0
10, 66480, Note_on_c, 8, 67, 45
10, 66560, Note_on_c, 8, 72, 45
10, 66570, Note_on_c, 8, 67, 0
10, 66620, Note_on_c, 8, 72, 0
10, 66640, Note_on_c, 8, 76, 45
10, 66685, Note_on_c, 8, 76, 0
10, 66720, Note_on_c, 8, 67, 45
10, 66800, Note_on_c, 8, 72, 45
10, 66810, Note_on_c, 8, 67, 0
10, 66860, Note_on_c, 8, 72, 0
10, 66880, Note_on_c, 8, 76, 45
10, 66925, Note_on_c, 8, 76, 0
10, 66960, Note_on_c, 8, 67, 45
10, 67040, Note_on_c, 8, 72, 45
10, 67050, Note_on_c, 8, 67, 0
10, 67100, Note_on_c, 8, 72, 0
10, 67120, Note_on_c, 8, 76, 45
10, 67165, Note_on_c, 8, 76, 0
10, 67200, Note_on_c, 8, 67, 45
10, 67280, Note_on_c, 8, 72, 45
10, 67290, Note_on_c, 8, 67, 0
10, 67340, Note_on_c, 8, 72, 0
10, 67360, Note_on_c, 8, 76, 45
10, 67405, Note_on_c, 8, 76, 0
10, 67440, Note_on_c, 8, 67, 45
10, 67520, Note_on_c, 8, 72, 45
10, 67530, Note_on_c, 8, 67, 0
10, 67580, Note_on_c, 8, 72, 0
10, 67600, Note_on_c, 8, 76, 45
10, 67645, Note_on_c, 8, 76, 0
10, 67680, Note_on_c, 8, 67, 45
10, 67760, Note_on_c, 8, 72, 45
10, 67770, Note_on_c, 8, 67, 0
10, 67820, Note_on_c, 8, 72, 0
10, 67840, Note_on_c, 8, 76, 45
10, 67885, Note_on_c, 8, 76, 0
10, 67920, Note_on_c, 8, 67, 45
10, 68000, Note_on_c, 8, 72, 45
10, 68010, Note_on_c, 8, 67, 0
10, 68060, Note_on_c, 8, 72, 0
10, 68080, Note_on_c, 8, 76, 45
10, 68125, Note_on_c, 8, 76, 0
10, 68160, Note_on_c, 8, 69, 45
10, 68240, Note_on_c, 8, 72, 45
10, 68250, Note_on_c, 8, 69, 0
10, 68300, Note_on_c, 8, 72, 0
10, 68320, Note_on_c, 8, 74, 45
10, 68365, Note_on_c, 8, 74, 0
10, 68400, Note_on_c, 8, 69, 45
10, 68480, Note_on_c, 8, 72, 45
10, 68490, Note_on_c, 8, 69, 0
10, 68540, Note_on_c, 8, 72, 0
10, 68560, Note_on_c, 8, 74, 45
10, 68605, Note_on_c, 8, 74, 0
10, 68640, Note_on_c, 8, 69, 45
10, 68720, Note_on_c, 8, 72, 45
10, 68730, Note_on_c, 8, 69, 0
10, 68780, Note_on_c, 8, 72, 0
10, 68800, Note_on_c, 8, 74, 45
10, 68845, Note_on_c, 8, 74, 0
10, 68880, Note_on_c, 8, 69, 45
10, 68960, Note_on_c, 8, 72, 45
10, 68970, Note_on_c, 8, 69, 0
10, 69020, Note_on_c, 8, 72, 0
10, 69040, Note_on_c, 8, 74, 45
10, 69085, Note_on_c, 8, 74, 0
10, 69120, Note_on_c, 8, 69, 45
10, 69200, Note_on_c, 8, 72, 45
10, 69210, Note_on_c, 8, 69, 0
10, 69260, Note_on_c, 8, 72, 0
10, 69280, Note_on_c, 8, 74, 45
10, 69325, Note_on_c, 8, 74, 0
10, 69360, Note_on_c, 8, 69, 45
10, 69440, Note_on_c, 8, 72, 45
10, 69450, Note_on_c, 8, 69, 0
10, 69500, Note_on_c, 8, 72, 0
10, 69520, Note_on_c, 8, 74, 45
10, 69565, Note_on_c, 8, 74, 0
10, 69600, Note_on_c, 8, 69, 45
10, 69680, Note_on_c, 8, 72, 45
10, 69690, Note_on_c, 8, 69, 0
10, 69740, Note_on_c, 8, 72, 0
10, 69760, Note_on_c, 8, 74, 45
10, 69805, Note_on_c, 8, 74, 0
10, 69840, Note_on_c, 8, 69, 45
10, 69920, Note_on_c, 8, 72, 45
10, 69930, Note_on_c, 8, 69, 0
10, 69980, Note_on_c, 8, 72, 0
10, 70000, Note_on_c, 8, 74, 45
10, 70045, Note_on_c, 8, 74, 0
10, 70080, Note_on_c, 8, 71, 45
10, 70160, Note_on_c, 8, 74, 45
10, 70170, Note_on_c, 8, 71, 0
10, 70220, Note_on_c, 8, 74, 0
10, 70240, Note_on_c, 8, 77, 45
10, 70285, Note_on_c, 8, 77, 0
10, 70320, Note_on_c, 8, 71, 45
10, 70400, Note_on_c, 8, 74, 45
10, 70410, Note_on_c, 8, 71, 0
10, 70460, Note_on_c, 8, 74, 0
10, 70480, Note_on_c, 8, 77, 45
10, 70525, Note_on_c, 8, 77, 0
10, 70560, Note_on_c, 8, 71, 45
10, 70640, Note_on_c, 8, 74, 45
10, 70650, Note_on_c, 8, 71, 0
10, 70700, Note_on_c, 8, 74, 0
10, 70720, Note_on_c, 8, 77, 45
10, 70765, Note_on_c, 8, 77, 0
10, 70800, Note_on_c, 8, 71, 45
10, 70880, Note_on_c, 8, 74, 45
10, 70890, Note_on_c, 8, 71, 0
10, 70940, Note_on_c, 8, 74, 0
10, 70960, Note_on_c, 8, 77, 45
10, 71005, Note_on_c, 8, 77, 0
10, 71040, Note_on_c, 8, 71, 45
10, 71120, Note_on_c, 8, 74, 45
10, 71130, Note_on_c, 8, 71, 0
10, 71180, Note_on_c, 8, 74, 0
10, 71200, Note_on_c, 8, 77, 45
10, 71245, Note_on_c, 8, 77, 0
10, 71280, Note_on_c, 8, 71, 45
10, 71360, Note_on_c, 8, 74, 47
10, 71370, Note_on_c, 8, 71, 0
10, 71420, Note_on_c, 8, 74, 0
10, 71440, Note_on_c, 8, 77, 49
10, 71485, Note_on_c, 8, 77, 0
10, 71520, Note_on_c, 8, 71, 51
10, 71600, Note_on_c, 8, 74, 53
10, 71610, Note_on_c, 8, 71, 0
10, 71660, Note_on_c, 8, 74, 0
10, 71680, Note_on_c, 8, 77, 55
10, 71725, Note_on_c, 8, 77, 0
10, 71760, Note_on_c, 8, 71, 57
10, 71840, Note_on_c, 8, 74, 60
10, 71850, Note_on_c, 8, 71, 0
10, 71900, Note_on_c, 8, 74, 0
10, 71920, Note_on_c, 8, 76, 62
10, 71965, Note_on_c, 8, 76, 0
10, 72000, Note_on_c, 8, 69, 64
10, 72080, Note_on_c, 8, 72, 66
10, 72090, Note_on_c, 8, 69, 0
10, 72140, Note_on_c, 8, 72, 0
10, 72160, Note_on_c, 8, 76, 68
10, 72205, Note_on_c, 8, 76, 0
10, 72240, Note_on_c, 8, 64, 70
10, 72320, Note_on_c, 8, 69, 72
10, 72330, Note_on_c, 8, 64, 0
10, 72380, Note_on_c, 8, 69, 0
10, 72400, Note_on_c, 8, 72, 75
10, 72445, Note_on_c, 8, 72, 0
10, 72480, Note_on_c, 8, 62, 77
10, 72560, Note_on_c, 8, 67, 79
10, 72570, Note_on_c, 8, 62, 0
10, 72620, Note_on_c, 8, 67, 0
10, 72640, Note_on_c, 8, 71, 81
10, 72685, Note_on_c, 8, 71, 0
10, 72720, Note_on_c, 8, 60, 83
10, 72800, Note_on_c, 8, 66, 85
10, 72810, Note_on_c, 8, 60, 0
10, 72860, Note_on_c, 8, 66, 0
10, 72880, Note_on_c, 8, 69, 87
10, 72925, Note_on_c, 8, 69, 0
10, 72960, Note_on_c, 8, 67, 90
10, 72990, Note_on_c, 8, 67, 0
10, 73000, Note_on_c, 8, 79, 90
10, 73030, Note_on_c, 8, 79, 0
10, 73040, Note_on_c, 8, 79, 90
10, 73070, Note_on_c, 8, 79, 0
10, 73080, Note_on_c, 8, 79, 90
10, 73110, Note_on_c, 8, 79, 0
10, 73120, Note_on_c, 8, 79, 90
10, 73150, Note_on_c, 8, 79, 0
10, 73160, Note_on_c, 8, 79, 90
10, 73190, Note_on_c, 8, 79, 0
10, 73200, Note_on_c, 8, 79, 90
10, 73230, Note_on_c, 8, 79, 0
10, 73240, Note_on_c, 8, 79, 90
10, 73270, Note_on_c, 8, 79, 0
10, 73280, Note_on_c, 8, 79, 90
10, 73310, Note_on_c, 8, 79, 0
10, 73320, Note_on_c, 8, 79, 90
10, 73350, Note_on_c, 8, 79, 0
10, 73360, Note_on_c, 8, 79, 90
10, 73390, Note_on_c, 8, 79, 0
10, 73400, Note_on_c, 8, 79, 90
10, 73430, Note_on_c, 8, 79, 0
10, 73440, Note_on_c, 8, 79, 90
10, 73530, Note_on_c, 8, 79, 0
10, 73920, Note_on_c, 8, 67, 90
10, 73950, Note_on_c, 8, 67, 0
10, 73960, Note_on_c, 8, 79, 90
10, 73990, Note_on_c, 8, 79, 0
10, 74000, Note_on_c, 8, 79, 90
10, 74030, Note_on_c, 8, 79, 0
10, 74040, Note_on_c, 8, 79, 90
10, 74070, Note_on_c, 8, 79, 0
10, 74080, Note_on_c, 8, 79, 90
10, 74110, Note_on_c, 8, 79, 0
10, 74120, Note_on_c, 8, 79, 90
10, 74150, Note_on_c, 8, 79, 0
10, 74160, Note_on_c, 8, 79, 90
10, 74190, Note_on_c, 8, 79, 0
10, 74200, Note_on_c, 8, 79, 90
10, 74230, Note_on_c, 8, 79, 0
10, 74240, Note_on_c, 8, 79, 90
10, 74270, Note_on_c, 8, 79, 0
10, 74280, Note_on_c, 8, 79, 90
10, 74310, Note_on_c, 8, 79, 0
10, 74320, Note_on_c, 8, 79, 90
10, 74350, Note_on_c, 8, 79, 0
10, 74360, Note_on_c, 8, 79, 90
10, 74390, Note_on_c, 8, 79, 0
10, 74400, Note_on_c, 8, 79, 90
10, 74490, Note_on_c, 8, 79, 0
10, 74880, Note_on_c, 8, 55, 90
10, 74880, Note_on_c, 8, 62, 90
10, 74880, Note_on_c, 8, 71, 90
10, 74880, Note_on_c, 8, 79, 90
10, 74970, Note_on_c, 8, 55, 0
10, 74970, Note_on_c, 8, 62, 0
10, 74970, Note_on_c, 8, 71, 0
10, 74970, Note_on_c, 8, 79, 0
10, 75360, Note_on_c, 8, 55, 79
10, 75360, Note_on_c, 8, 62, 79
10, 75360, Note_on_c, 8, 71, 79
10, 75360, Note_on_c, 8, 79, 79
10, 75450, Note_on_c, 8, 55, 0
10, 75450, Note_on_c, 8, 62, 0
10, 75450, Note_on_c, 8, 71, 0
10, 75450, Note_on_c, 8, 79, 0
10, 75840, Note_on_c, 8, 55, 68
10, 75840, Note_on_c, 8, 62, 68
10, 75840, Note_on_c, 8, 71, 68
10, 75840, Note_on_c, 8, 79, 68
10, 75840, Control_c, 8, 11, 80
10, 75850, Control_c, 8, 11, 85
10, 75860, Control_c, 8, 11, 90
10, 75870, Control_c, 8, 11, 95
10, 75880, Control_c, 8, 11, 100
10, 75890, Control_c, 8, 11, 105
10, 75900, Control_c, 8, 11, 110
10, 75920, Control_c, 8, 11, 109
10, 75930, Control_c, 8, 11, 108
10, 75950, Control_c, 8, 11, 107
10, 75960, Control_c, 8, 11, 106
10, 75970, Control_c, 8, 11, 105
10, 75990, Control_c, 8, 11, 104
10, 76000, Control_c, 8, 11, 103
10, 76020, Control_c, 8, 11, 102
10, 76030, Control_c, 8, 11, 101
10, 76040, Control_c, 8, 11, 100
10, 76060, Control_c, 8, 11, 99
10, 76070, Control_c, 8, 11, 98
10, 76090, Control_c, 8, 11, 97
10, 76100, Control_c, 8, 11, 96
10, 76110, Control_c, 8, 11, 95
10, 76130, Control_c, 8, 11, 94
10, 76140, Control_c, 8, 11, 93
10, 76160, Control_c, 8, 11, 92
10, 76170, Control_c, 8, 11, 91
10, 76180, Control_c, 8, 11, 90
10, 76200, Control_c, 8, 11, 89
10, 76210, Control_c, 8, 11, 88
10, 76230, Control_c, 8, 11, 87
10, 76240, Control_c, 8, 11, 86
10, 76250, Control_c, 8, 11, 85
10, 76270, Control_c, 8, 11, 84
10, 76280, Control_c, 8, 11, 83
10, 76300, Control_c, 8, 11, 82
10, 76310, Control_c, 8, 11, 80
10, 76320, Note_on_c, 8, 77, 57
10, 76350, Note_on_c, 8, 55, 0
10, 76350, Note_on_c, 8, 62, 0
10, 76350, Note_on_c, 8, 71, 0
10, 76350, Note_on_c, 8, 79, 0
10, 76440, Note_on_c, 8, 76, 54
10, 76470, Note_on_c, 8, 77, 0
10, 76560, Note_on_c, 8, 77, 51
10, 76590, Note_on_c, 8, 76, 0
10, 76680, Note_on_c, 8, 74, 48
10, 76710, Note_on_c, 8, 77, 0
10, 76770, Note_on_c, 8, 74, 0
10, 76800, Note_on_c, 8, 72, 45
10, 77280, Note_on_c, 8, 76, 45
10, 77310, Note_on_c, 8, 72, 0
10, 77520, Note_on_c, 8, 79, 45
10, 77550, Note_on_c, 8, 76, 0
10, 77730, Note_on_c, 8, 79, 0
10, 77760, Note_on_c, 8, 82, 45
10, 78480, Note_on_c, 8, 76, 45
10, 78510, Note_on_c, 8, 82, 0
10, 78690, Note_on_c, 8, 76, 0
10, 78720, Note_on_c, 8, 77, 45
10, 78720, Control_c, 8, 11, 80
10, 78790, Control_c, 8, 11, 81
10, 78850, Control_c, 8, 11, 82
10, 78920, Control_c, 8, 11, 83
10, 78960, Note_on_c, 8, 81, 45
10, 78980, Control_c, 8, 11, 84
10, 78990, Note_on_c, 8, 77, 0
10, 79040, Control_c, 8, 11, 85
10, 79110, Control_c, 8, 11, 86
10, 79170, Control_c, 8, 11, 87
10, 79200, Note_on_c, 8, 82, 45
10, 79230, Note_on_c, 8, 81, 0
10, 79240, Control_c, 8, 11, 88
10, 79300, Control_c, 8, 11, 89
10, 79360, Control_c, 8, 11, 90
10, 79430, Control_c, 8, 11, 91
10, 79440, Note_on_c, 8, 76, 45
10, 79470, Note_on_c, 8, 82, 0
10, 79490, Control_c, 8, 11, 92
10, 79560, Control_c, 8, 11, 93
10, 79620, Control_c, 8, 11, 94
10, 79650, Note_on_c, 8, 76, 0
10, 79680, Note_on_c, 8, 77, 45
10, 79680, Control_c, 8, 11, 95
10, 79750, Control_c, 8, 11, 96
10, 79810, Control_c, 8, 11, 97
10, 79880, Control_c, 8, 11, 98
10, 79920, Note_on_c, 8, 81, 45
10, 79940, Control_c, 8, 11, 99
10, 79950, Note_on_c, 8, 77, 0
10, 80000, Control_c, 8, 11, 100
10, 80070, Control_c, 8, 11, 101
10, 80130, Control_c, 8, 11, 102
10, 80160, Note_on_c, 8, 82, 45
10, 80190, Note_on_c, 8, 81, 0
10, 80200, Control_c, 8, 11, 103
10, 80260, Control_c, 8, 11, 104
10, 80320, Control_c, 8, 11, 105
10, 80390, Control_c, 8, 11, 106
10, 80400, Note_on_c, 8, 76, 45
10, 80430, Note_on_c, 8, 82, 0
10, 80450, Control_c, 8, 11, 107
10, 80520, Control_c, 8, 11, 108
10, 80580, Control_c, 8, 11, 110
10, 80610, Note_on_c, 8, 76, 0
10, 80634, Control_c, 8, 11, 80
10, 80640, Note_on_c, 8, 77, 45
10, 80715, Note_on_c, 8, 77, 0
10, 80720, Note_on_c, 8, 80, 45
10, 80800, Note_on_c, 8, 81, 45
10, 80810, Note_on_c, 8, 80, 0
10, 80860, Note_on_c, 8, 81, 0
10, 80960, Note_on_c, 8, 81, 45
10, 81040, Note_on_c, 8, 79, 45
10, 81050, Note_on_c, 8, 81, 0
10, 81100, Note_on_c, 8, 79, 0
10, 81200, Note_on_c, 8, 79, 45
10, 81280, Note_on_c, 8, 77, 45
10, 81290, Note_on_c, 8, 79, 0
10, 81340, Note_on_c, 8, 77, 0
10, 81440, Note_on_c, 8, 77, 45
10, 81520, Note_on_c, 8, 76, 45
10, 81530, Note_on_c, 8, 77, 0
10, 81580, Note_on_c, 8, 76, 0
10, 81680, Note_on_c, 8, 76, 45
10, 81760, Note_on_c, 8, 74, 45
10, 81770, Note_on_c, 8, 76, 0
10, 81820, Note_on_c, 8, 74, 0
10, 81920, Note_on_c, 8, 74, 45
10, 82000, Note_on_c, 8, 73, 45
10, 82010, Note_on_c, 8, 74, 0
10, 82060, Note_on_c, 8, 73, 0
10, 82160, Note_on_c, 8, 73, 45
10, 82240, Note_on_c, 8, 74, 45
10, 82250, Note_on_c, 8, 73, 0
10, 82300, Note_on_c, 8, 74, 0
10, 82400, Note_on_c, 8, 74, 45
10, 82480, Note_on_c, 8, 72, 45
10, 82490, Note_on_c, 8, 74, 0
10, 82540, Note_on_c, 8, 72, 0
10, 82560, Note_on_c, 8, 71, 45
10, 82605, Note_on_c, 8, 71, 0
10, 82640, Note_on_c, 8, 71, 45
10, 82685, Note_on_c, 8, 71, 0
10, 82720, Note_on_c, 8, 74, 45
10, 82765, Note_on_c, 8, 74, 0
10, 82800, Note_on_c, 8, 79, 45
10, 82845, Note_on_c, 8, 79, 0
10, 82880, Note_on_c, 8, 81, 45
10, 82925, Note_on_c, 8, 81, 0
10, 82960, Note_on_c, 8, 83, 45
10, 83005, Note_on_c, 8, 83, 0
10, 83040, Note_on_c, 8, 84, 45
10, 83100, Note_on_c, 8, 84, 0
10, 83440, Note_on_c, 8, 72, 45
10, 83485, Note_on_c, 8, 72, 0
10, 83520, Note_on_c, 8, 67, 45
10, 83580, Note_on_c, 8, 67, 0
10, 83600, Note_on_c, 8, 71, 45
10, 83660, Note_on_c, 8, 71, 0
10, 83680, Note_on_c, 8, 74, 45
10, 83740, Note_on_c, 8, 74, 0
10, 83760, Note_on_c, 8, 79, 45
10, 83820, Note_on_c, 8, 79, 0
10, 83840, Note_on_c, 8, 81, 45
10, 83900, Note_on_c, 8, 81, 0
10, 83920, Note_on_c, 8, 83, 45
10, 83980, Note_on_c, 8, 83, 0
10, 84000, Note_on_c, 8, 84, 45
10, 84060, Note_on_c, 8, 84, 0
10, 84080, Note_on_c, 8, 79, 45
10, 84140, Note_on_c, 8, 79, 0
10, 84160, Note_on_c, 8, 76, 45
10, 84220, Note_on_c, 8, 76, 0
10, 84240, Note_on_c, 8, 79, 45
10, 84300, Note_on_c, 8, 79, 0
10, 84320, Note_on_c, 8, 76, 45
10, 84380, Note_on_c, 8, 76, 0
10, 84400, Note_on_c, 8, 72, 45
10, 84460, Note_on_c, 8, 72, 0
10, 84480, Note_on_c, 8, 67, 45
10, 84540, Note_on_c, 8, 67, 0
10, 84560, Note_on_c, 8, 67, 45
10, 84620, Note_on_c, 8, 67, 0
10, 84640, Note_on_c, 8, 67, 45
10, 84700, Note_on_c, 8, 67, 0
10, 84720, Note_on_c, 8, 67, 45
10, 84780, Note_on_c, 8, 67, 0
10, 84800, Note_on_c, 8, 67, 45
10, 84860, Note_on_c, 8, 67, 0
10, 84880, Note_on_c, 8, 67, 45
10, 84940, Note_on_c, 8, 67, 0
10, 84960, Note_on_c, 8, 67, 45
10, 85020, Note_on_c, 8, 67, 0
10, 85040, Note_on_c, 8, 67, 45
10, 85100, Note_on_c, 8, 67, 0
10, 85120, Note_on_c, 8, 67, 45
10, 85180, Note_on_c, 8, 67, 0
10, 85200, Note_on_c, 8, 67, 45
10, 85260, Note_on_c, 8, 67, 0
10, 85280, Note_on_c, 8, 67, 45
10, 85340, Note_on_c, 8, 67, 0
10, 85360, Note_on_c, 8, 67, 45
10, 85420, Note_on_c, 8, 67, 0
10, 85440, Note_on_c, 8, 77, 45
10, 85485, Note_on_c, 8, 77, 0
10, 85520, Note_on_c, 8, 76, 45
10, 85565, Note_on_c, 8, 76, 0
10, 85600, Note_on_c, 8, 77, 45
10, 85645, Note_on_c, 8, 77, 0
10, 85680, Note_on_c, 8, 74, 45
10, 85725, Note_on_c, 8, 74, 0
10, 85760, Note_on_c, 8, 73, 45
10, 85805, Note_on_c, 8, 73, 0
10, 85840, Note_on_c, 8, 74, 45
10, 85885, Note_on_c, 8, 74, 0
10, 85920, Note_on_c, 8, 71, 45
10, 85965, Note_on_c, 8, 71, 0
10, 86000, Note_on_c, 8, 70, 45
10, 86045, Note_on_c, 8, 70, 0
10, 86080, Note_on_c, 8, 71, 45
10, 86125, Note_on_c, 8, 71, 0
10, 86160, Note_on_c, 8, 65, 45
10, 86205, Note_on_c, 8, 65, 0
10, 86240, Note_on_c, 8, 64, 45
10, 86285, Note_on_c, 8, 64, 0
10, 86320, Note_on_c, 8, 65, 45
10, 86365, Note_on_c, 8, 65, 0
10, 86400, Note_on_c, 8, 64, 45
10, 86480, Note_on_c, 8, 67, 45
10, 86490, Note_on_c, 8, 64, 0
10, 86540, Note_on_c, 8, 67, 0
10, 86560, Note_on_c, 8, 72, 45
10, 86620, Note_on_c, 8, 72, 0
10, 86640, Note_on_c, 8, 64, 45
10, 86720, Note_on_c, 8, 67, 45
10, 86730, Note_on_c, 8, 64, 0
10, 86780, Note_on_c, 8, 67, 0
10, 86800, Note_on_c, 8, 72, 45
10, 86845, Note_on_c, 8, 72, 0
10, 86880, Note_on_c, 8, 64, 45
10, 86960, Note_on_c, 8, 67, 45
10, 86970, Note_on_c, 8, 64, 0
10, 87020, Note_on_c, 8, 67, 0
10, 87040, Note_on_c, 8, 72, 45
10, 87085, Note_on_c, 8, 72, 0
10, 87120, Note_on_c, 8, 64, 45
10, 87200, Note_on_c, 8, 67, 45
10, 87210, Note_on_c, 8, 64, 0
10, 87260, Note_on_c, 8, 67, 0
10, 87280, Note_on_c, 8, 72, 45
10, 87325, Note_on_c, 8, 72, 0
10, 87360, Note_on_c, 8, 67, 45
10, 87440, Note_on_c, 8, 72, 45
10, 87450, Note_on_c, 8, 67, 0
10, 87500, Note_on_c, 8, 72, 0
10, 87520, Note_on_c, 8, 76, 45
10, 87565, Note_on_c, 8, 76, 0
10, 87600, Note_on_c, 8, 67, 45
10, 87680, Note_on_c, 8, 72, 45
10, 87690, Note_on_c, 8, 67, 0
10, 87740, Note_on_c, 8, 72, 0
10, 87760, Note_on_c, 8, 76, 45
10, 87805, Note_on_c, 8, 76, 0
10, 87840, Note_on_c, 8, 67, 45
10, 87920, Note_on_c, 8, 72, 45
10, 87930, Note_on_c, 8, 67, 0
10, 87980, Note_on_c, 8, 72, 0
10, 88000, Note_on_c, 8, 76, 45
10, 88045, Note_on_c, 8, 76, 0
10, 88080, Note_on_c, 8, 67, 45
10, 88160, Note_on_c, 8, 72, 45
10, 88170, Note_on_c, 8, 67, 0
10, 88220, Note_on_c, 8, 72, 0
10, 88240, Note_on_c, 8, 76, 45
10, 88285, Note_on_c, 8, 76, 0
10, 88320, Note_on_c, 8, 77, 45
10, 88400, Note_on_c, 8, 72, 45
10, 88410, Note_on_c, 8, 77, 0
10, 88460, Note_on_c, 8, 72, 0
10, 88480, Note_on_c, 8, 69, 45
10, 88525, Note_on_c, 8, 69, 0
10, 88560, Note_on_c, 8, 77, 46
10, 88640, Note_on_c, 8, 72, 46
10, 88650, Note_on_c, 8, 77, 0
10, 88700, Note_on_c, 8, 72, 0
10, 88720, Note_on_c, 8, 69, 47
10, 88765, Note_on_c, 8, 69, 0
10, 88800, Note_on_c, 8, 77, 47
10, 88880, Note_on_c, 8, 72, 48
10, 88890, Note_on_c, 8, 77, 0
10, 88940, Note_on_c, 8, 72, 0
10, 88960, Note_on_c, 8, 69, 48
10, 89005, Note_on_c, 8, 69, 0
10, 89040, Note_on_c, 8, 77, 49
10, 89120, Note_on_c, 8, 72, 49
10, 89130, Note_on_c, 8, 77, 0
10, 89180, Note_on_c, 8, 72, 0
10, 89200, Note_on_c, 8, 69, 50
10, 89245, Note_on_c, 8, 69, 0
10, 89280, Note_on_c, 8, 81, 50
10, 89360, Note_on_c, 8, 77, 51
10, 89370, Note_on_c, 8, 81, 0
10, 89420, Note_on_c, 8, 77, 0
10, 89440, Note_on_c, 8, 72, 51
10, 89485, Note_on_c, 8, 72, 0
10, 89520, Note_on_c, 8, 81, 52
10, 89600, Note_on_c, 8, 77, 52
10, 89610, Note_on_c, 8, 81, 0
10, 89660, Note_on_c, 8, 77, 0
10, 89680, Note_on_c, 8, 72, 53
10, 89725, Note_on_c, 8, 72, 0
10, 89760, Note_on_c, 8, 81, 53
10, 89840, Note_on_c, 8, 77, 54
10, 89850, Note_on_c, 8, 81, 0
10, 89900, Note_on_c, 8, 77, 0
10, 89920, Note_on_c, 8, 72, 54
10, 89965, Note_on_c, 8, 72, 0
10, 90000, Note_on_c, 8, 81, 55
10, 90080, Note_on_c, 8, 77, 55
10, 90090, Note_on_c, 8, 81, 0
10, 90140, Note_on_c, 8, 77, 0
10, 90160, Note_on_c, 8, 72, 56
10, 90205, Note_on_c, 8, 72, 0
10, 90240, Note_on_c, 8, 79, 56
10, 90320, Note_on_c, 8, 76, 57
10, 90330, Note_on_c, 8, 79, 0
10, 90380, Note_on_c, 8, 76, 0
10, 90400, Note_on_c, 8, 72, 57
10, 90445, Note_on_c, 8, 72, 0
10, 90480, Note_on_c, 8, 79, 58
10, 90560, Note_on_c, 8, 76, 58
10, 90570, Note_on_c, 8, 79, 0
10, 90620, Note_on_c, 8, 76, 0
10, 90640, Note_on_c, 8, 72, 59
10, 90685, Note_on_c, 8, 72, 0
10, 90720, Note_on_c, 8, 79, 59
10, 90800, Note_on_c, 8, 74, 60
10, 90810, Note_on_c, 8, 79, 0
10, 90860, Note_on_c, 8, 74, 0
10, 90880, Note_on_c, 8, 71, 60
10, 90925, Note_on_c, 8, 71, 0
10, 90960, Note_on_c, 8, 79, 61
10, 91040, Note_on_c, 8, 74, 61
10, 91050, Note_on_c, 8, 79, 0
10, 91100, Note_on_c, 8, 74, 0
10, 91120, Note_on_c, 8, 71, 62
10, 91165, Note_on_c, 8, 71, 0
10, 91200, Note_on_c, 8, 79, 62
10, 91280, Note_on_c, 8, 76, 62
10, 91290, Note_on_c, 8, 79, 0
10, 91340, Note_on_c, 8, 76, 0
10, 91360, Note_on_c, 8, 72, 63
10, 91405, Note_on_c, 8, 72, 0
10, 91440, Note_on_c, 8, 79, 63
10, 91520, Note_on_c, 8, 76, 64
10, 91530, Note_on_c, 8, 79, 0
10, 91580, Note_on_c, 8, 76, 0
10, 91600, Note_on_c, 8, 72, 64
10, 91645, Note_on_c, 8, 72, 0
10, 91680, Note_on_c, 8, 81, 65
10, 91760, Note_on_c, 8, 77, 65
10, 91770, Note_on_c, 8, 81, 0
10, 91820, Note_on_c, 8, 77, 0
10, 91840, Note_on_c, 8, 72, 66
10, 91885, Note_on_c, 8, 72, 0
10, 91920, Note_on_c, 8, 81, 66
10, 92000, Note_on_c, 8, 77, 67
10, 92010, Note_on_c, 8, 81, 0
10, 92060, Note_on_c, 8, 77, 0
10, 92080, Note_on_c, 8, 72, 67
10, 92125, Note_on_c, 8, 72, 0
10, 92160, Note_on_c, 8, 72, 68
10, 92220, Note_on_c, 8, 72, 0
10, 92240, Note_on_c, 8, 76, 68
10, 92240, Note_on_c, 8, 84, 68
10, 92300, Note_on_c, 8, 76, 0
10, 92300, Note_on_c, 8, 84, 0
10, 92320, Note_on_c, 8, 76, 69
10, 92320, Note_on_c, 8, 84, 69
10, 92380, Note_on_c, 8, 76, 0
10, 92380, Note_on_c, 8, 84, 0
10, 92400, Note_on_c, 8, 76, 69
10, 92400, Note_on_c, 8, 84, 69
10, 92460, Note_on_c, 8, 76, 0
10, 92460, Note_on_c, 8, 84, 0
10, 92480, Note_on_c, 8, 76, 70
10, 92480, Note_on_c, 8, 84, 70
10, 92540, Note_on_c, 8, 76, 0
10, 92540, Note_on_c, 8, 84, 0
10, 92560, Note_on_c, 8, 76, 70
10, 92560, Note_on_c, 8, 84, 70
10, 92620, Note_on_c, 8, 76, 0
10, 92620, Note_on_c, 8, 84, 0
10, 92640, Note_on_c, 8, 76, 71
10, 92640, Note_on_c, 8, 84, 71
10, 92700, Note_on_c, 8, 76, 0
10, 92700, Note_on_c, 8, 84, 0
10, 92720, Note_on_c, 8, 76, 71
10, 92720, Note_on_c, 8, 84, 71
10, 92780, Note_on_c, 8, 76, 0
10, 92780, Note_on_c, 8, 84, 0
10, 92800, Note_on_c, 8, 76, 72
10, 92800, Note_on_c, 8, 84, 72
10, 92860, Note_on_c, 8, 76, 0
10, 92860, Note_on_c, 8, 84, 0
10, 92880, Note_on_c, 8, 76, 72
10, 92880, Note_on_c, 8, 84, 72
10, 92940, Note_on_c, 8, 76, 0
10, 92940, Note_on_c, 8, 84, 0
10, 92960, Note_on_c, 8, 76, 73
10, 92960, Note_on_c, 8, 84, 73
10, 93020, Note_on_c, 8, 76, 0
10, 93020, Note_on_c, 8, 84, 0
10, 93040, Note_on_c, 8, 76, 73
10, 93040, Note_on_c, 8, 84, 73
10, 93100, Note_on_c, 8, 76, 0
10, 93100, Note_on_c, 8, 84, 0
10, 93120, Note_on_c, 8, 74, 74
10, 93120, Note_on_c, 8, 83, 74
10, 93180, Note_on_c, 8, 74, 0
10, 93180, Note_on_c, 8, 83, 0
10, 93200, Note_on_c, 8, 74, 74
10, 93200, Note_on_c, 8, 83, 74
10, 93260, Note_on_c, 8, 74, 0
10, 93260, Note_on_c, 8, 83, 0
10, 93280, Note_on_c, 8, 74, 75
10, 93280, Note_on_c, 8, 83, 75
10, 93340, Note_on_c, 8, 74, 0
10, 93340, Note_on_c, 8, 83, 0
10, 93360, Note_on_c, 8, 74, 75
10, 93360, Note_on_c, 8, 83, 75
10, 93420, Note_on_c, 8, 74, 0
10, 93420, Note_on_c, 8, 83, 0
10, 93440, Note_on_c, 8, 74, 76
10, 93440, Note_on_c, 8, 83, 76
10, 93500, Note_on_c, 8, 74, 0
10, 93500, Note_on_c, 8, 83, 0
10, 93520, Note_on_c, 8, 74, 76
10, 93520, Note_on_c, 8, 83, 76
10, 93580, Note_on_c, 8, 74, 0
10, 93580, Note_on_c, 8, 83, 0
10, 93600, Note_on_c, 8, 74, 77
10, 93600, Note_on_c, 8, 83, 77
10, 93660, Note_on_c, 8, 74, 0
10, 93660, Note_on_c, 8, 83, 0
10, 93680, Note_on_c, 8, 74, 77
10, 93680, Note_on_c, 8, 83, 77
10, 93740, Note_on_c, 8, 74, 0
10, 93740, Note_on_c, 8, 83, 0
10, 93760, Note_on_c, 8, 74, 78
10, 93760, Note_on_c, 8, 83, 78
10, 93820, Note_on_c, 8, 74, 0
10, 93820, Note_on_c, 8, 83, 0
10, 93840, Note_on_c, 8, 74, 78
10, 93840, Note_on_c, 8, 83, 78
10, 93900, Note_on_c, 8, 74, 0
10, 93900, Note_on_c, 8, 83, 0
10, 93920, Note_on_c, 8, 74, 79
10, 93920, Note_on_c, 8, 83, 79
10, 93980, Note_on_c, 8, 74, 0
10, 93980, Note_on_c, 8, 83, 0
10, 94000, Note_on_c, 8, 74, 79
10, 94000, Note_on_c, 8, 83, 79
10, 94060, Note_on_c, 8, 74, 0
10, 94060, Note_on_c, 8, 83, 0
10, 94080, Note_on_c, 8, 76, 80
10, 94080, Note_on_c, 8, 84, 80
10, 94110, Note_on_c, 8, 76, 0
10, 94110, Note_on_c, 8, 84, 0
10, 94120, Note_on_c, 8, 76, 80
10, 94120, Note_on_c, 8, 84, 80
10, 94150, Note_on_c, 8, 76, 0
10, 94150, Note_on_c, 8, 84, 0
10, 94160, Note_on_c, 8, 76, 80
10, 94160, Note_on_c, 8, 84, 80
10, 94190, Note_on_c, 8, 76, 0
10, 94190, Note_on_c, 8, 84, 0
10, 94200, Note_on_c, 8, 76, 80
10, 94200, Note_on_c, 8, 84, 80
10, 94230, Note_on_c, 8, 76, 0
10, 94230, Note_on_c, 8, 84, 0
10, 94240, Note_on_c, 8, 76, 80
10, 94240, Note_on_c, 8, 84, 80
10, 94270, Note_on_c, 8, 76, 0
10, 94270, Note_on_c, 8, 84, 0
10, 94280, Note_on_c, 8, 76, 80
10, 94280, Note_on_c, 8, 84, 80
10, 94310, Note_on_c, 8, 76, 0
10, 94310, Note_on_c, 8, 84, 0
10, 94320, Note_on_c, 8, 76, 80
10, 94320, Note_on_c, 8, 84, 80
10, 94350, Note_on_c, 8, 76, 0
10, 94350, Note_on_c, 8, 84, 0
10, 94360, Note_on_c, 8, 76, 80
10, 94360, Note_on_c, 8, 84, 80
10, 94390, Note_on_c, 8, 76, 0
10, 94390, Note_on_c, 8, 84, 0
10, 94400, Note_on_c, 8, 76, 80
10, 94400, Note_on_c, 8, 84, 80
10, 94430, Note_on_c, 8, 76, 0
10, 94430, Note_on_c, 8, 84, 0
10, 94440, Note_on_c, 8, 76, 80
10, 94440, Note_on_c, 8, 84, 80
10, 94470, Note_on_c, 8, 76, 0
10, 94470, Note_on_c, 8, 84, 0
10, 94480, Note_on_c, 8, 76, 80
10, 94480, Note_on_c, 8, 84, 80
10, 94510, Note_on_c, 8, 76, 0
10, 94510, Note_on_c, 8, 84, 0
10, 94520, Note_on_c, 8, 76, 80
10, 94520, Note_on_c, 8, 84, 80
10, 94550, Note_on_c, 8, 76, 0
10, 94550, Note_on_c, 8, 84, 0
10, 94560, Note_on_c, 8, 76, 80
10, 94560, Note_on_c, 8, 84, 80
10, 94650, Note_on_c, 8, 76, 0
10, 94650, Note_on_c, 8, 84, 0
10, 95040, Note_on_c, 8, 76, 80
10, 95040, Note_on_c, 8, 84, 80
10, 95070, Note_on_c, 8, 76, 0
10, 95070, Note_on_c, 8, 84, 0
10, 95080, Note_on_c, 8, 76, 80
10, 95080, Note_on_c, 8, 84, 80
10, 95110, Note_on_c, 8, 76, 0
10, 95110, Note_on_c, 8, 84, 0
10, 95120, Note_on_c, 8, 76, 80
10, 95120, Note_on_c, 8, 84, 80
10, 95150, Note_on_c, 8, 76, 0
10, 95150, Note_on_c, 8, 84, 0
10, 95160, Note_on_c, 8, 76, 80
10, 95160, Note_on_c, 8, 84, 80
10, 95190, Note_on_c, 8, 76, 0
10, 95190, Note_on_c, 8, 84, 0
10, 95200, Note_on_c, 8, 76, 80
10, 95200, Note_on_c, 8, 84, 80
10, 95230, Note_on_c, 8, 76, 0
10, 95230, Note_on_c, 8, 84, 0
10, 95240, Note_on_c, 8, 76, 80
10, 95240, Note_on_c, 8, 84, 80
10, 95270, Note_on_c, 8, 76, 0
10, 95270, Note_on_c, 8, 84, 0
10, 95280, Note_on_c, 8, 76, 80
10, 95280, Note_on_c, 8, 84, 80
10, 95310, Note_on_c, 8, 76, 0
10, 95310, Note_on_c, 8, 84, 0
10, 95320, Note_on_c, 8, 76, 80
10, 95320, Note_on_c, 8, 84, 80
10, 95350, Note_on_c, 8, 76, 0
10, 95350, Note_on_c, 8, 84, 0
10, 95360, Note_on_c, 8, 76, 80
10, 95360, Note_on_c, 8, 84, 80
10, 95390, Note_on_c, 8, 76, 0
10, 95390, Note_on_c, 8, 84, 0
10, 95400, Note_on_c, 8, 76, 80
10, 95400, Note_on_c, 8, 84, 80
10, 95430, Note_on_c, 8, 76, 0
10, 95430, Note_on_c, 8, 84, 0
10, 95440, Note_on_c, 8, 76, 80
10, 95440, Note_on_c, 8, 84, 80
10, 95470, Note_on_c, 8, 76, 0
10, 95470, Note_on_c, 8, 84, 0
10, 95480, Note_on_c, 8, 76, 80
10, 95480, Note_on_c, 8, 84, 80
10, 95510, Note_on_c, 8, 76, 0
10, 95510, Note_on_c, 8, 84, 0
10, 95520, Note_on_c, 8, 76, 80
10, 95520, Note_on_c, 8, 84, 80
10, 95610, Note_on_c, 8, 76, 0
10, 95610, Note_on_c, 8, 84, 0
10, 96000, Note_on_c, 8, 60, 80
10, 96000, Note_on_c, 8, 67, 80
10, 96000, Note_on_c, 8, 76, 80
10, 96000, Note_on_c, 8, 84, 80
10, 96090, Note_on_c, 8, 60, 0
10, 96090, Note_on_c, 8, 67, 0
10, 96090, Note_on_c, 8, 76, 0
10, 96090, Note_on_c, 8, 84, 0
10, 96480, Note_on_c, 8, 60, 80
10, 96480, Note_on_c, 8, 67, 80
10, 96480, Note_on_c, 8, 76, 80
10, 96480, Note_on_c, 8, 84, 80
10, 96570, Note_on_c, 8, 60, 0
10, 96570, Note_on_c, 8, 67, 0
10, 96570, Note_on_c, 8, 76, 0
10, 96570, Note_on_c, 8, 84, 0
10, 96960, Note_on_c, 8, 84, 60
10, 96960, Control_c, 8, 11, 80
10, 96970, Control_c, 8, 11, 83
10, 96980, Control_c, 8, 11, 87
10, 96990, Control_c, 8, 11, 91
10, 97000, Control_c, 8, 11, 95
10, 97010, Control_c, 8, 11, 99
10, 97020, Control_c, 8, 11, 103
10, 97030, Control_c, 8, 11, 107
10, 97040, Control_c, 8, 11, 111
10, 97050, Control_c, 8, 11, 115
10, 97060, Control_c, 8, 11, 119
10, 97070, Control_c, 8, 11, 123
10, 97080, Control_c, 8, 11, 127
10, 97100, Control_c, 8, 11, 126
10, 97110, Control_c, 8, 11, 125
10, 97120, Control_c, 8, 11, 124
10, 97140, Control_c, 8, 11, 123
10, 97150, Control_c, 8, 11, 122
10, 97160, Control_c, 8, 11, 121
10, 97170, Control_c, 8, 11, 120
10, 97190, Control_c, 8, 11, 119
10, 97200, Control_c, 8, 11, 118
10, 97210, Control_c, 8, 11, 117
10, 97230, Control_c, 8, 11, 116
10, 97240, Control_c, 8, 11, 115
10, 97250, Control_c, 8, 11, 114
10, 97260, Control_c, 8, 11, 113
10, 97280, Control_c, 8, 11, 112
10, 97290, Control_c, 8, 11, 111
10, 97300, Control_c, 8, 11, 110
10, 97310, Control_c, 8, 11, 109
10, 97330, Control_c, 8, 11, 108
10, 97340, Control_c, 8, 11, 107
10, 97350, Control_c, 8, 11, 106
10, 97370, Control_c, 8, 11, 105
10, 97380, Control_c, 8, 11, 104
10, 97390, Control_c, 8, 11, 103
10, 97400, Control_c, 8, 11, 102
10, 97420, Control_c, 8, 11, 101
10, 97430, Control_c, 8, 11, 100
10, 97440, Control_c, 8, 11, 99
10, 97460, Control_c, 8, 11, 98
10, 97470, Control_c, 8, 11, 97
10, 97480, Control_c, 8, 11, 96
10, 97490, Control_c, 8, 11, 95
10, 97510, Control_c, 8, 11, 94
10, 97520, Control_c, 8, 11, 93
10, 97530, Control_c, 8, 11, 92
10, 97540, Control_c, 8, 11, 91
10, 97560, Control_c, 8, 11, 90
10, 97570, Control_c, 8, 11, 89
10, 97580, Control_c, 8, 11, 88
10, 97600, Control_c, 8, 11, 87
10, 97610, Control_c, 8, 11, 86
10, 97620, Control_c, 8, 11, 85
10, 97630, Control_c, 8, 11, 84
10, 97650, Control_c, 8, 11, 83
10, 97660, Control_c, 8, 11, 82
10, 97670, Control_c, 8, 11, 81
10, 97920, Note_on_c, 8, 80, 50
10, 97950, Note_on_c, 8, 84, 0
10, 98640, Note_on_c, 8, 77, 50
10, 98670, Note_on_c, 8, 80, 0
10, 98850, Note_on_c, 8, 77, 0
10, 98880, Note_on_c, 8, 73, 50
10, 98880, Control_c, 8, 11, 80
10, 98920, Control_c, 8, 11, 82
10, 98950, Control_c, 8, 11, 83
10, 98980, Control_c, 8, 11, 85
10, 99010, Control_c, 8, 11, 86
10, 99040, Control_c, 8, 11, 88
10, 99070, Control_c, 8, 11, 89
10, 99100, Control_c, 8, 11, 91
10, 99120, Note_on_c, 8, 68, 60
10, 99130, Control_c, 8, 11, 92
10, 99150, Note_on_c, 8, 73, 0
10, 99160, Control_c, 8, 11, 94
10, 99190, Control_c, 8, 11, 95
10, 99230, Control_c, 8, 11, 97
10, 99260, Control_c, 8, 11, 99
10, 99290, Control_c, 8, 11, 100
10, 99300, Note_on_c, 8, 65, 67
10, 99315, Note_on_c, 8, 68, 0
10, 99320, Control_c, 8, 11, 102
10, 99345, Note_on_c, 8, 65, 0
10, 99350, Control_c, 8, 11, 103
10, 99360, Note_on_c, 8, 61, 70
10, 99380, Control_c, 8, 11, 105
10, 99410, Control_c, 8, 11, 106
10, 99440, Control_c, 8, 11, 108
10, 99450, Note_on_c, 8, 61, 0
10, 99470, Control_c, 8, 11, 109
10, 99500, Control_c, 8, 11, 111
10, 99540, Control_c, 8, 11, 113
10, 99570, Control_c, 8, 11, 114
10, 99600, Note_on_c, 8, 60, 80
10, 99600, Control_c, 8, 11, 116
10, 99630, Control_c, 8, 11, 117
10, 99660, Control_c, 8, 11, 119
10, 99690, Note_on_c, 8, 60, 0
10, 99690, Control_c, 8, 11, 120
10, 99720, Control_c, 8, 11, 122
10, 99750, Control_c, 8, 11, 124
10, 99780, Control_c, 8, 11, 127
10, 99837, Control_c, 8, 11, 80
10, 99840, Note_on_c, 8, 59, 45
10, 100080, Note_on_c, 8, 59, 0
10, 100560, Note_on_c, 8, 55, 50
10, 100680, Note_on_c, 8, 55, 0
10, 100740, Note_on_c, 8, 55, 50
10, 100770, Note_on_c, 8, 55, 0
10, 100800, Note_on_c, 8, 55, 50
10, 101250, Note_on_c, 8, 55, 0
10, 101280, Note_on_c, 8, 62, 50
10, 101310, Note_on_c, 8, 60, 50
10, 101310, Note_on_c, 8, 62, 0
10, 101460, Note_on_c, 8, 59, 50
10, 101490, Note_on_c, 8, 60, 0
10, 101520, Note_on_c, 8, 60, 50
10, 101550, Note_on_c, 8, 59, 0
10, 101700, Note_on_c, 8, 62, 50
10, 101730, Note_on_c, 8, 60, 0
10, 101760, Note_on_c, 8, 62, 0
10, 101760, Note_on_c, 8, 63, 50
10, 102240, Note_on_c, 8, 60, 50
10, 102270, Note_on_c, 8, 63, 0
10, 102480, Note_on_c, 8, 60, 0
10, 102720, Note_on_c, 8, 67, 50
10, 103170, Note_on_c, 8, 67, 0
10, 103200, Note_on_c, 8, 65, 50
10, 103260, Note_on_c, 8, 63, 50
10, 103290, Note_on_c, 8, 65, 0
10, 103410, Note_on_c, 8, 63, 0
10, 103440, Note_on_c, 8, 62, 50
10, 103500, Note_on_c, 8, 60, 50
10, 103530, Note_on_c, 8, 62, 0
10, 103680, Note_on_c, 8, 60, 0
10, 103680, Note_on_c, 8, 63, 50
10, 104160, Note_on_c, 8, 62, 50
10, 104190, Note_on_c, 8, 63, 0
10, 104370, Note_on_c, 8, 62, 0
10, 104640, Note_on_c, 8, 62, 50
10, 105090, Note_on_c, 8, 62, 0
10, 105120, Note_on_c, 8, 62, 50
10, 105300, Note_on_c, 8, 62, 0
10, 105300, Note_on_c, 8, 63, 50
10, 105360, Note_on_c, 8, 65, 50
10, 105390, Note_on_c, 8, 63, 0
10, 105540, Note_on_c, 8, 67, 50
10, 105570, Note_on_c, 8, 65, 0
10, 105600, Note_on_c, 8, 67, 0
10, 105600, Note_on_c, 8, 68, 50
10, 106530, Note_on_c, 8, 68, 0
10, 106560, Note_on_c, 8, 67, 50
10, 107010, Note_on_c, 8, 67, 0
10, 107040, Note_on_c, 8, 67, 50
10, 107220, Note_on_c, 8, 68, 50
10, 107250, Note_on_c, 8, 67, 0
10, 107280, Note_on_c, 8, 70, 50
10, 107310, Note_on_c, 8, 68, 0
10, 107460, Note_on_c, 8, 72, 50
10, 107490, Note_on_c, 8, 70, 0
10, 107520, Note_on_c, 8, 72, 0
10, 107520, Note_on_c, 8, 73, 50
10, 107520, Control_c, 8, 11, 80
10, 107530, Control_c, 8, 11, 83
10, 107540, Control_c, 8, 11, 86
10, 107550, Control_c, 8, 11, 90
10, 107560, Control_c, 8, 11, 93
10, 107570, Control_c, 8, 11, 96
10, 107580, Control_c, 8, 11, 100
10, 107590, Control_c, 8, 11, 103
10, 107600, Control_c, 8, 11, 106
10, 107620, Control_c, 8, 11, 110
10, 107640, Control_c, 8, 11, 109
10, 107650, Control_c, 8, 11, 108
10, 107660, Control_c, 8, 11, 107
10, 107670, Control_c, 8, 11, 106
10, 107690, Control_c, 8, 11, 105
10, 107700, Control_c, 8, 11, 104
10, 107710, Control_c, 8, 11, 103
10, 107720, Control_c, 8, 11, 102
10, 107740, Control_c, 8, 11, 101
10, 107750, Control_c, 8, 11, 100
10, 107760, Control_c, 8, 11, 99
10, 107770, Control_c, 8, 11, 98
10, 107780, Control_c, 8, 11, 97
10, 107800, Control_c, 8, 11, 96
10, 107810, Control_c, 8, 11, 95
10, 107820, Control_c, 8, 11, 94
10, 107830, Control_c, 8, 11, 93
10, 107850, Control_c, 8, 11, 92
10, 107860, Control_c, 8, 11, 91
10, 107870, Control_c, 8, 11, 90
10, 107880, Control_c, 8, 11, 89
10, 107890, Control_c, 8, 11, 88
10, 107910, Control_c, 8, 11, 87
10, 107920, Control_c, 8, 11, 86
10, 107930, Control_c, 8, 11, 85
10, 107940, Control_c, 8, 11, 84
10, 107960, Control_c, 8, 11, 83
10, 107970, Control_c, 8, 11, 82
10, 107980, Control_c, 8, 11, 81
10, 107990, Control_c, 8, 11, 80
10, 108240, Note_on_c, 8, 72, 50
10, 108253, Note_on_c, 8, 73, 0
10, 108360, Note_on_c, 8, 70, 50
10, 108360, Note_on_c, 8, 72, 0
10, 108450, Note_on_c, 8, 70, 0
10, 108480, Note_on_c, 8, 70, 50
10, 108600, Note_on_c, 8, 68, 50
10, 108630, Note_on_c, 8, 70, 0
10, 108690, Note_on_c, 8, 68, 0
10, 108720, Note_on_c, 8, 70, 50
10, 108780, Note_on_c, 8, 70, 0
10, 108840, Note_on_c, 8, 67, 50
10, 108900, Note_on_c, 8, 67, 0
10, 108960, Note_on_c, 8, 65, 55
10, 109200, Note_on_c, 8, 67, 60
10, 109230, Note_on_c, 8, 65, 0
10, 109380, Note_on_c, 8, 64, 65
10, 109410, Note_on_c, 8, 67, 0
10, 109440, Note_on_c, 8, 64, 0
10, 109440, Note_on_c, 8, 65, 75
10, 109680, Note_on_c, 8, 65, 0
10, 112320, Note_on_c, 8, 72, 75
10, 112800, Note_on_c, 8, 74, 75
10, 112830, Note_on_c, 8, 72, 0
10, 113040, Note_on_c, 8, 75, 75
10, 113070, Note_on_c, 8, 74, 0
10, 113250, Note_on_c, 8, 75, 0
10, 113280, Note_on_c, 8, 77, 75
10, 114000, Note_on_c, 8, 75, 75
10, 114020, Note_on_c, 8, 75, 0
10, 114020, Note_on_c, 8, 77, 75
10, 114030, Note_on_c, 8, 77, 0
10, 114030, Note_on_c, 8, 77, 0
10, 114040, Note_on_c, 8, 75, 75
10, 114060, Note_on_c, 8, 75, 0
10, 114060, Note_on_c, 8, 77, 75
10, 114080, Note_on_c, 8, 75, 75
10, 114080, Note_on_c, 8, 77, 0
10, 114100, Note_on_c, 8, 75, 0
10, 114100, Note_on_c, 8, 77, 75
10, 114120, Note_on_c, 8, 75, 75
10, 114120, Note_on_c, 8, 77, 0
10, 114140, Note_on_c, 8, 75, 0
10, 114140, Note_on_c, 8, 77, 75
10, 114160, Note_on_c, 8, 75, 75
10, 114160, Note_on_c, 8, 77, 0
10, 114180, Note_on_c, 8, 74, 75
10, 114180, Note_on_c, 8, 75, 0
10, 114210, Note_on_c, 8, 75, 75
10, 114215, Note_on_c, 8, 74, 0
10, 114240, Note_on_c, 8, 74, 75
10, 114240, Note_on_c, 8, 75, 0
10, 114480, Note_on_c, 8, 74, 0
10, 114480, Note_on_c, 8, 80, 75
10, 114720, Note_on_c, 8, 79, 75
10, 114750, Note_on_c, 8, 80, 0
10, 114960, Note_on_c, 8, 77, 75
10, 114990, Note_on_c, 8, 79, 0
10, 115170, Note_on_c, 8, 77, 0
10, 115200, Note_on_c, 8, 76, 75
10, 115440, Note_on_c, 8, 76, 0
10, 115440, Note_on_c, 8, 85, 75
10, 115680, Note_on_c, 8, 84, 75
10, 115710, Note_on_c, 8, 85, 0
10, 115920, Note_on_c, 8, 82, 75
10, 115950, Note_on_c, 8, 84, 0
10, 116160, Note_on_c, 8, 80, 75
10, 116190, Note_on_c, 8, 82, 0
10, 116250, Note_on_c, 8, 80, 0
10, 116280, Note_on_c, 8, 72, 75
10, 116340, Note_on_c, 8, 72, 0
10, 116400, Note_on_c, 8, 73, 75
10, 116460, Note_on_c, 8, 73, 0
10, 116520, Note_on_c, 8, 72, 75
10, 116580, Note_on_c, 8, 72, 0
10, 116640, Note_on_c, 8, 70, 75
10, 116700, Note_on_c, 8, 70, 0
10, 116760, Note_on_c, 8, 68, 75
10, 116820, Note_on_c, 8, 68, 0
10, 116880, Note_on_c, 8, 67, 75
10, 116940, Note_on_c, 8, 67, 0
10, 117000, Note_on_c, 8, 65, 75
10, 117060, Note_on_c, 8, 65, 0
10, 117120, Note_on_c, 8, 64, 75
10, 117180, Note_on_c, 8, 64, 0
10, 117240, Note_on_c, 8, 65, 75
10, 117300, Note_on_c, 8, 65, 0
10, 117360, Note_on_c, 8, 67, 75
10, 117420, Note_on_c, 8, 67, 0
10, 117480, Note_on_c, 8, 65, 75
10, 117540, Note_on_c, 8, 65, 0
10, 117600, Note_on_c, 8, 64, 75
10, 117660, Note_on_c, 8, 64, 0
10, 117720, Note_on_c, 8, 60, 75
10, 117780, Note_on_c, 8, 60, 0
10, 117840, Note_on_c, 8, 65, 75
10, 117900, Note_on_c, 8, 65, 0
10, 117960, Note_on_c, 8, 60, 75
10, 118020, Note_on_c, 8, 60, 0
10, 118080, Note_on_c, 8, 70, 75
10, 118140, Note_on_c, 8, 70, 0
10, 118200, Note_on_c, 8, 60, 75
10, 118260, Note_on_c, 8, 60, 0
10, 118320, Note_on_c, 8, 70, 75
10, 118380, Note_on_c, 8, 70, 0
10, 118440, Note_on_c, 8, 60, 75
10, 118500, Note_on_c, 8, 60, 0
10, 118560, Note_on_c, 8, 68, 75
10, 118620, Note_on_c, 8, 68, 0
10, 118680, Note_on_c, 8, 60, 75
10, 118740, Note_on_c, 8, 60, 0
10, 118800, Note_on_c, 8, 67, 75
10, 118860, Note_on_c, 8, 67, 0
10, 118920, Note_on_c, 8, 60, 75
10, 118980, Note_on_c, 8, 60, 0
10, 119040, Note_on_c, 8, 65, 75
10, 119250, Note_on_c, 8, 65, 0
10, 119280, Note_on_c, 8, 77, 75
10, 119400, Note_on_c, 8, 77, 0
10, 119400, Note_on_c, 8, 79, 75
10, 119520, Note_on_c, 8, 79, 0
10, 119520, Note_on_c, 8, 80, 75
10, 120210, Note_on_c, 8, 80, 0
10, 120240, Note_on_c, 8, 79, 75
10, 120690, Note_on_c, 8, 79, 0
10, 120720, Note_on_c, 8, 77, 75
10, 121170, Note_on_c, 8, 77, 0
10, 121200, Note_on_c, 8, 75, 75
10, 121440, Note_on_c, 8, 77, 75
10, 121470, Note_on_c, 8, 75, 0
10, 121680, Note_on_c, 8, 79, 75
10, 121710, Note_on_c, 8, 77, 0
10, 121890, Note_on_c, 8, 79, 0
10, 121920, Note_on_c, 8, 80, 75
10, 121920, Control_c, 8, 11, 80
10, 121930, Control_c, 8, 11, 81
10, 121940, Control_c, 8, 11, 83
10, 121950, Control_c, 8, 11, 85
10, 121960, Control_c, 8, 11, 86
10, 121970, Control_c, 8, 11, 88
10, 121980, Control_c, 8, 11, 90
10, 121990, Control_c, 8, 11, 91
10, 122000, Control_c, 8, 11, 93
10, 122020, Control_c, 8, 11, 95
10, 122050, Control_c, 8, 11, 94
10, 122070, Control_c, 8, 11, 93
10, 122100, Control_c, 8, 11, 92
10, 122120, Control_c, 8, 11, 91
10, 122140, Control_c, 8, 11, 90
10, 122170, Control_c, 8, 11, 89
10, 122190, Control_c, 8, 11, 88
10, 122210, Control_c, 8, 11, 87
10, 122240, Control_c, 8, 11, 86
10, 122260, Control_c, 8, 11, 85
10, 122290, Control_c, 8, 11, 84
10, 122310, Control_c, 8, 11, 83
10, 122330, Control_c, 8, 11, 82
10, 122360, Control_c, 8, 11, 81
10, 122380, Control_c, 8, 11, 80
10, 122610, Note_on_c, 8, 80, 0
10, 122640, Note_on_c, 8, 79, 75
10, 122850, Note_on_c, 8, 79, 0
10, 122880, Note_on_c, 8, 77, 75
10, 122940, Note_on_c, 8, 77, 0
10, 123120, Note_on_c, 8, 77, 75
10, 123360, Note_on_c, 8, 79, 75
10, 123390, Note_on_c, 8, 77, 0
10, 123600, Note_on_c, 8, 80, 75
10, 123630, Note_on_c, 8, 79, 0
10, 123810, Note_on_c, 8, 80, 0
10, 123840, Note_on_c, 8, 79, 75
10, 123900, Note_on_c, 8, 79, 0
10, 123960, Note_on_c, 8, 82, 75
10, 124020, Note_on_c, 8, 82, 0
10, 124080, Note_on_c, 8, 79, 75
10, 124140, Note_on_c, 8, 79, 0
10, 124200, Note_on_c, 8, 80, 75
10, 124260, Note_on_c, 8, 80, 0
10, 124320, Note_on_c, 8, 82, 75
10, 124380, Note_on_c, 8, 82, 0
10, 124440, Note_on_c, 8, 84, 78
10, 124500, Note_on_c, 8, 84, 0
10, 124560, Note_on_c, 8, 86, 81
10, 124620, Note_on_c, 8, 86, 0
10, 124680, Note_on_c, 8, 88, 85
10, 124740, Note_on_c, 8, 88, 0
10, 124800, Note_on_c, 8, 89, 90
10, 125730, Note_on_c, 8, 89, 0
10, 125760, Note_on_c, 8, 85, 90
10, 126690, Note_on_c, 8, 85, 0
10, 126720, Note_on_c, 8, 88, 90
10, 127410, Note_on_c, 8, 88, 0
10, 127440, Note_on_c, 8, 88, 90
10, 127460, Note_on_c, 8, 88, 0
10, 127460, Note_on_c, 8, 89, 90
10, 127480, Note_on_c, 8, 88, 90
10, 127480, Note_on_c, 8, 89, 0
10, 127500, Note_on_c, 8, 88, 0
10, 127500, Note_on_c, 8, 89, 90
10, 127520, Note_on_c, 8, 88, 90
10, 127520, Note_on_c, 8, 89, 0
10, 127540, Note_on_c, 8, 88, 0
10, 127540, Note_on_c, 8, 89, 90
10, 127560, Note_on_c, 8, 88, 90
10, 127560, Note_on_c, 8, 89, 0
10, 127580, Note_on_c, 8, 88, 0
10, 127580, Note_on_c, 8, 89, 90
10, 127600, Note_on_c, 8, 89, 0
10, 127620, Note_on_c, 8, 86, 90
10, 127650, Note_on_c, 8, 88, 90
10, 127655, Note_on_c, 8, 86, 0
10, 127680, Note_on_c, 8, 88, 0
10, 127680, Note_on_c, 8, 89, 90
10, 128130, Note_on_c, 8, 89, 0
10, 128160, Note_on_c, 8, 77, 90
10, 128400, Note_on_c, 8, 79, 90
10, 128430, Note_on_c, 8, 77, 0
10, 128520, Note_on_c, 8, 80, 90
10, 128550, Note_on_c, 8, 79, 0
10, 128610, Note_on_c, 8, 80, 0
10, 128640, Note_on_c, 8, 82, 90
10, 129840, Note_on_c, 8, 82, 0
10, 130680, Note_on_c, 8, 68, 90
10, 130740, Note_on_c, 8, 68, 0
10, 130800, Note_on_c, 8, 70, 90
10, 130860, Note_on_c, 8, 70, 0
10, 130920, Note_on_c, 8, 72, 90
10, 130980, Note_on_c, 8, 72, 0
10, 131040, Note_on_c, 8, 74, 90
10, 131100, Note_on_c, 8, 74, 0
10, 131160, Note_on_c, 8, 75, 90
10, 131220, Note_on_c, 8, 75, 0
10, 131280, Note_on_c, 8, 77, 90
10, 131340, Note_on_c, 8, 77, 0
10, 131400, Note_on_c, 8, 79, 90
10, 131460, Note_on_c, 8, 79, 0
10, 131520, Note_on_c, 8, 80, 90
10, 131760, Note_on_c, 8, 80, 0
10, 132600, Note_on_c, 8, 70, 90
10, 132660, Note_on_c, 8, 70, 0
10, 132720, Note_on_c, 8, 72, 90
10, 132780, Note_on_c, 8, 72, 0
10, 132840, Note_on_c, 8, 74, 90
10, 132900, Note_on_c, 8, 74, 0
10, 132960, Note_on_c, 8, 75, 90
10, 133020, Note_on_c, 8, 75, 0
10, 133080, Note_on_c, 8, 77, 90
10, 133140, Note_on_c, 8, 77, 0
10, 133200, Note_on_c, 8, 79, 90
10, 133260, Note_on_c, 8, 79, 0
10, 133320, Note_on_c, 8, 80, 90
10, 133380, Note_on_c, 8, 80, 0
10, 133440, Note_on_c, 8, 82, 90
10, 133530, Note_on_c, 8, 82, 0
10, 133680, Note_on_c, 8, 83, 90
10, 133770, Note_on_c, 8, 83, 0
10, 133920, Note_on_c, 8, 84, 90
10, 134010, Note_on_c, 8, 84, 0
10, 134160, Note_on_c, 8, 86, 90
10, 134250, Note_on_c, 8, 86, 0
10, 134400, Note_on_c, 8, 87, 90
10, 134490, Note_on_c, 8, 87, 0
10, 135840, Note_on_c, 8, 80, 90
10, 136560, Note_on_c, 8, 77, 90
10, 136590, Note_on_c, 8, 80, 0
10, 136680, Note_on_c, 8, 75, 90
10, 136710, Note_on_c, 8, 77, 0
10, 136770, Note_on_c, 8, 75, 0
10, 136800, Note_on_c, 8, 74, 90
10, 137040, Note_on_c, 8, 74, 0
10, 137760, Note_on_c, 8, 79, 90
10, 138330, Note_on_c, 8, 79, 0
10, 138360, Note_on_c, 8, 78, 90
10, 138420, Note_on_c, 8, 78, 0
10, 138480, Note_on_c, 8, 79, 90
10, 138540, Note_on_c, 8, 79, 0
10, 138600, Note_on_c, 8, 81, 90
10, 138660, Note_on_c, 8, 81, 0
10, 138720, Note_on_c, 8, 82, 90
10, 138780, Note_on_c, 8, 82, 0
10, 138840, Note_on_c, 8, 83, 90
10, 138900, Note_on_c, 8, 83, 0
10, 138960, Note_on_c, 8, 84, 90
10, 139020, Note_on_c, 8, 84, 0
10, 139080, Note_on_c, 8, 85, 90
10, 139140, Note_on_c, 8, 85, 0
10, 139200, Note_on_c, 8, 86, 90
10, 139260, Note_on_c, 8, 86, 0
10, 139280, Note_on_c, 8, 86, 90
10, 139340, Note_on_c, 8, 86, 0
10, 139360, Note_on_c, 8, 86, 90
10, 139420, Note_on_c, 8, 86, 0
10, 139440, Note_on_c, 8, 86, 90
10, 139500, Note_on_c, 8, 86, 0
10, 139520, Note_on_c, 8, 86, 90
10, 139580, Note_on_c, 8, 86, 0
10, 139600, Note_on_c, 8, 86, 90
10, 139660, Note_on_c, 8, 86, 0
10, 139680, Note_on_c, 8, 86, 90
10, 139740, Note_on_c, 8, 86, 0
10, 139760, Note_on_c, 8, 86, 90
10, 139820, Note_on_c, 8, 86, 0
10, 139840, Note_on_c, 8, 86, 90
10, 139900, Note_on_c, 8, 86, 0
10, 139920, Note_on_c, 8, 86, 90
10, 139980, Note_on_c, 8, 86, 0
10, 140000, Note_on_c, 8, 86, 90
10, 140060, Note_on_c, 8, 86, 0
10, 140080, Note_on_c, 8, 86, 90
10, 140140, Note_on_c, 8, 86, 0
10, 140160, Note_on_c, 8, 87, 90
10, 140220, Note_on_c, 8, 87, 0
10, 140240, Note_on_c, 8, 87, 90
10, 140300, Note_on_c, 8, 87, 0
10, 140320, Note_on_c, 8, 87, 90
10, 140380, Note_on_c, 8, 87, 0
10, 140400, Note_on_c, 8, 87, 90
10, 140460, Note_on_c, 8, 87, 0
10, 140480, Note_on_c, 8, 87, 90
10, 140540, Note_on_c, 8, 87, 0
10, 140560, Note_on_c, 8, 87, 90
10, 140620, Note_on_c, 8, 87, 0
10, 140640, Note_on_c, 8, 87, 90
10, 140700, Note_on_c, 8, 87, 0
10, 140720, Note_on_c, 8, 87, 90
10, 140780, Note_on_c, 8, 87, 0
10, 140800, Note_on_c, 8, 87, 90
10, 140860, Note_on_c, 8, 87, 0
10, 140880, Note_on_c, 8, 87, 90
10, 140940, Note_on_c, 8, 87, 0
10, 140960, Note_on_c, 8, 87, 90
10, 141020, Note_on_c, 8, 87, 0
10, 141040, Note_on_c, 8, 87, 90
10, 141100, Note_on_c, 8, 87, 0
10, 141120, Note_on_c, 8, 87, 90
10, 141180, Note_on_c, 8, 87, 0
10, 141200, Note_on_c, 8, 86, 90
10, 141260, Note_on_c, 8, 86, 0
10, 141280, Note_on_c, 8, 86, 90
10, 141340, Note_on_c, 8, 86, 0
10, 141360, Note_on_c, 8, 86, 90
10, 141420, Note_on_c, 8, 86, 0
10, 141440, Note_on_c, 8, 86, 90
10, 141500, Note_on_c, 8, 86, 0
10, 141520, Note_on_c, 8, 86, 90
10, 141580, Note_on_c, 8, 86, 0
10, 141600, Note_on_c, 8, 86, 90
10, 141660, Note_on_c, 8, 86, 0
10, 141680, Note_on_c, 8, 86, 90
10, 141740, Note_on_c, 8, 86, 0
10, 141760, Note_on_c, 8, 86, 90
10, 141820, Note_on_c, 8, 86, 0
10, 141840, Note_on_c, 8, 86, 90
10, 141900, Note_on_c, 8, 86, 0
10, 141920, Note_on_c, 8, 86, 90
10, 141980, Note_on_c, 8, 86, 0
10, 142000, Note_on_c, 8, 86, 90
10, 142060, Note_on_c, 8, 86, 0
10, 142080, Note_on_c, 8, 86, 90
10, 142140, Note_on_c, 8, 86, 0
10, 142160, Note_on_c, 8, 84, 90
10, 142220, Note_on_c, 8, 84, 0
10, 142240, Note_on_c, 8, 84, 90
10, 142300, Note_on_c, 8, 84, 0
10, 142320, Note_on_c, 8, 84, 90
10, 142380, Note_on_c, 8, 84, 0
10, 142400, Note_on_c, 8, 84, 90
10, 142460, Note_on_c, 8, 84, 0
10, 142480, Note_on_c, 8, 84, 90
10, 142540, Note_on_c, 8, 84, 0
10, 142560, Note_on_c, 8, 84, 90
10, 142620, Note_on_c, 8, 84, 0
10, 142640, Note_on_c, 8, 84, 90
10, 142700, Note_on_c, 8, 84, 0
10, 142720, Note_on_c, 8, 84, 90
10, 142780, Note_on_c, 8, 84, 0
10, 142800, Note_on_c, 8, 84, 90
10, 142860, Note_on_c, 8, 84, 0
10, 142880, Note_on_c, 8, 84, 90
10, 142940, Note_on_c, 8, 84, 0
10, 142960, Note_on_c, 8, 84, 90
10, 143020, Note_on_c, 8, 84, 0
10, 143040, Note_on_c, 8, 84, 90
10, 143100, Note_on_c, 8, 84, 0
10, 143120, Note_on_c, 8, 84, 90
10, 143180, Note_on_c, 8, 84, 0
10, 143200, Note_on_c, 8, 84, 90
10, 143260, Note_on_c, 8, 84, 0
10, 143280, Note_on_c, 8, 82, 90
10, 143340, Note_on_c, 8, 82, 0
10, 143360, Note_on_c, 8, 82, 90
10, 143420, Note_on_c, 8, 82, 0
10, 143440, Note_on_c, 8, 82, 90
10, 143500, Note_on_c, 8, 82, 0
10, 143520, Note_on_c, 8, 82, 90
10, 143580, Note_on_c, 8, 82, 0
10, 143600, Note_on_c, 8, 82, 90
10, 143660, Note_on_c, 8, 82, 0
10, 143680, Note_on_c, 8, 82, 90
10, 143740, Note_on_c, 8, 82, 0
10, 143760, Note_on_c, 8, 82, 90
10, 143820, Note_on_c, 8, 82, 0
10, 143840, Note_on_c, 8, 82, 90
10, 143900, Note_on_c, 8, 82, 0
10, 143920, Note_on_c, 8, 82, 90
10, 143980, Note_on_c, 8, 82, 0
10, 144000, Note_on_c, 8, 82, 90
10, 144090, Note_on_c, 8, 82, 0
10, 144480, Note_on_c, 8, 58, 90
10, 144480, Note_on_c, 8, 67, 90
10, 145050, Note_on_c, 8, 58, 0
10, 145050, Note_on_c, 8, 67, 0
10, 145200, Note_on_c, 8, 58, 90
10, 145200, Note_on_c, 8, 67, 90
10, 145290, Note_on_c, 8, 58, 0
10, 145290, Note_on_c, 8, 67, 0
10, 145440, Note_on_c, 8, 58, 90
10, 145440, Note_on_c, 8, 67, 90
10, 145530, Note_on_c, 8, 58, 0
10, 145530, Note_on_c, 8, 67, 0
10, 145680, Note_on_c, 8, 58, 90
10, 145680, Note_on_c, 8, 67, 90
10, 145770, Note_on_c, 8, 58, 0
10, 145770, Note_on_c, 8, 67, 0
10, 145920, Note_on_c, 8, 57, 90
10, 145920, Note_on_c, 8, 67, 90
10, 146850, Note_on_c, 8, 57, 0
10, 146850, Note_on_c, 8, 67, 0
10, 146880, Note_on_c, 8, 57, 70
10, 146880, Note_on_c, 8, 66, 70
10, 147810, Note_on_c, 8, 57, 0
10, 147810, Note_on_c, 8, 66, 0
10, 147840, Note_on_c, 8, 67, 60
10, 148290, Note_on_c, 8, 67, 0
10, 148320, Note_on_c, 8, 69, 50
10, 148350, Note_on_c, 8, 67, 50
10, 148350, Note_on_c, 8, 69, 0
10, 148500, Note_on_c, 8, 66, 50
10, 148530, Note_on_c, 8, 67, 0
10, 148560, Note_on_c, 8, 67, 50
10, 148590, Note_on_c, 8, 66, 0
10, 148740, Note_on_c, 8, 69, 50
10, 148770, Note_on_c, 8, 67, 0
10, 148800, Note_on_c, 8, 69, 0
10, 148800, Note_on_c, 8, 70, 50
10, 149280, Note_on_c, 8, 67, 50
10, 149310, Note_on_c, 8, 70, 0
10, 149520, Note_on_c, 8, 67, 0
10, 149760, Note_on_c, 8, 74, 50
10, 150240, Note_on_c, 8, 71, 50
10, 150270, Note_on_c, 8, 74, 0
10, 150480, Note_on_c, 8, 71, 0
10, 150720, Note_on_c, 8, 80, 40
10, 151680, Control_c, 8, 11, 80
10, 151690, Control_c, 8, 11, 78
10, 151700, Control_c, 8, 11, 75
10, 151710, Control_c, 8, 11, 72
10, 151720, Control_c, 8, 11, 69
10, 151730, Control_c, 8, 11, 66
10, 151740, Control_c, 8, 11, 63
10, 151750, Control_c, 8, 11, 60
10, 151760, Control_c, 8, 11, 57
10, 151770, Control_c, 8, 11, 54
10, 151780, Control_c, 8, 11, 51
10, 151790, Control_c, 8, 11, 48
10, 151800, Control_c, 8, 11, 45
10, 151810, Control_c, 8, 11, 42
10, 151820, Control_c, 8, 11, 39
10, 151830, Control_c, 8, 11, 36
10, 151840, Control_c, 8, 11, 33
10, 151850, Control_c, 8, 11, 30
10, 151860, Control_c, 8, 11, 27
10, 151870, Control_c, 8, 11, 24
10, 151880, Control_c, 8, 11, 21
10, 151890, Control_c, 8, 11, 18
10, 151900, Control_c, 8, 11, 15
10, 151910, Control_c, 8, 11, 12
10, 151920, Control_c, 8, 11, 9
10, 151930, Control_c, 8, 11, 6
10, 151940, Control_c, 8, 11, 3
10, 152100, Note_on_c, 8, 80, 0
10, 152154, Control_c, 8, 11, 80
10, 152640, Note_on_c, 8, 60, 65
10, 152640, Note_on_c, 8, 63, 65
10, 153570, Note_on_c, 8, 60, 0
10, 153570, Note_on_c, 8, 63, 0
10, 153600, Note_on_c, 8, 60, 65
10, 153600, Note_on_c, 8, 63, 65
10, 153660, Note_on_c, 8, 60, 0
10, 153660, Note_on_c, 8, 63, 0
10, 153680, Note_on_c, 8, 60, 65
10, 153680, Note_on_c, 8, 63, 65
10, 153740, Note_on_c, 8, 60, 0
10, 153740, Note_on_c, 8, 63, 0
10, 153760, Note_on_c, 8, 60, 65
10, 153760, Note_on_c, 8, 63, 65
10, 153820, Note_on_c, 8, 60, 0
10, 153820, Note_on_c, 8, 63, 0
10, 153840, Note_on_c, 8, 60, 65
10, 153840, Note_on_c, 8, 63, 65
10, 153900, Note_on_c, 8, 60, 0
10, 153900, Note_on_c, 8, 63, 0
10, 153920, Note_on_c, 8, 60, 65
10, 153920, Note_on_c, 8, 63, 65
10, 153980, Note_on_c, 8, 60, 0
10, 153980, Note_on_c, 8, 63, 0
10, 154000, Note_on_c, 8, 60, 65
10, 154000, Note_on_c, 8, 63, 65
10, 154060, Note_on_c, 8, 60, 0
10, 154060, Note_on_c, 8, 63, 0
10, 154080, Note_on_c, 8, 60, 65
10, 154080, Note_on_c, 8, 63, 65
10, 154140, Note_on_c, 8, 60, 0
10, 154140, Note_on_c, 8, 63, 0
10, 154160, Note_on_c, 8, 60, 65
10, 154160, Note_on_c, 8, 63, 65
10, 154220, Note_on_c, 8, 60, 0
10, 154220, Note_on_c, 8, 63, 0
10, 154240, Note_on_c, 8, 60, 65
10, 154240, Note_on_c, 8, 63, 65
10, 154300, Note_on_c, 8, 60, 0
10, 154300, Note_on_c, 8, 63, 0
10, 154320, Note_on_c, 8, 60, 65
10, 154320, Note_on_c, 8, 63, 65
10, 154380, Note_on_c, 8, 60, 0
10, 154380, Note_on_c, 8, 63, 0
10, 154400, Note_on_c, 8, 60, 65
10, 154400, Note_on_c, 8, 63, 65
10, 154460, Note_on_c, 8, 60, 0
10, 154460, Note_on_c, 8, 63, 0
10, 154480, Note_on_c, 8, 60, 65
10, 154480, Note_on_c, 8, 63, 65
10, 154540, Note_on_c, 8, 60, 0
10, 154540, Note_on_c, 8, 63, 0
10, 154560, Note_on_c, 8, 60, 65
10, 154560, Note_on_c, 8, 63, 65
10, 154620, Note_on_c, 8, 60, 0
10, 154620, Note_on_c, 8, 63, 0
10, 154640, Note_on_c, 8, 60, 65
10, 154640, Note_on_c, 8, 63, 65
10, 154700, Note_on_c, 8, 60, 0
10, 154700, Note_on_c, 8, 63, 0
10, 154720, Note_on_c, 8, 60, 65
10, 154720, Note_on_c, 8, 63, 65
10, 154780, Note_on_c, 8, 60, 0
10, 154780, Note_on_c, 8, 63, 0
10, 154800, Note_on_c, 8, 60, 65
10, 154800, Note_on_c, 8, 63, 65
10, 154860, Note_on_c, 8, 60, 0
10, 154860, Note_on_c, 8, 63, 0
10, 154880, Note_on_c, 8, 60, 65
10, 154880, Note_on_c, 8, 63, 65
10, 154940, Note_on_c, 8, 60, 0
10, 154940, Note_on_c, 8, 63, 0
10, 154960, Note_on_c, 8, 60, 65
10, 154960, Note_on_c, 8, 63, 65
10, 155020, Note_on_c, 8, 60, 0
10, 155020, Note_on_c, 8, 63, 0
10, 155040, Note_on_c, 8, 60, 65
10, 155040, Note_on_c, 8, 63, 65
10, 155100, Note_on_c, 8, 60, 0
10, 155100, Note_on_c, 8, 63, 0
10, 155120, Note_on_c, 8, 60, 65
10, 155120, Note_on_c, 8, 63, 65
10, 155180, Note_on_c, 8, 60, 0
10, 155180, Note_on_c, 8, 63, 0
10, 155200, Note_on_c, 8, 60, 65
10, 155200, Note_on_c, 8, 63, 65
10, 155260, Note_on_c, 8, 60, 0
10, 155260, Note_on_c, 8, 63, 0
10, 155280, Note_on_c, 8, 60, 65
10, 155280, Note_on_c, 8, 63, 65
10, 155340, Note_on_c, 8, 60, 0
10, 155340, Note_on_c, 8, 63, 0
10, 155360, Note_on_c, 8, 60, 65
10, 155360, Note_on_c, 8, 63, 65
10, 155420, Note_on_c, 8, 60, 0
10, 155420, Note_on_c, 8, 63, 0
10, 155440, Note_on_c, 8, 60, 65
10, 155440, Note_on_c, 8, 63, 65
10, 155500, Note_on_c, 8, 60, 0
10, 155500, Note_on_c, 8, 63, 0
10, 155520, Note_on_c, 8, 60, 65
10, 155520, Note_on_c, 8, 63, 65
10, 155580, Note_on_c, 8, 60, 0
10, 155580, Note_on_c, 8, 63, 0
10, 155600, Note_on_c, 8, 63, 65
10, 155600, Note_on_c, 8, 72, 65
10, 155660, Note_on_c, 8, 63, 0
10, 155660, Note_on_c, 8, 72, 0
10, 155680, Note_on_c, 8, 63, 65
10, 155680, Note_on_c, 8, 72, 65
10, 155740, Note_on_c, 8, 63, 0
10, 155740, Note_on_c, 8, 72, 0
10, 155760, Note_on_c, 8, 63, 65
10, 155760, Note_on_c, 8, 72, 65
10, 155820, Note_on_c, 8, 63, 0
10, 155820, Note_on_c, 8, 72, 0
10, 155840, Note_on_c, 8, 63, 65
10, 155840, Note_on_c, 8, 72, 65
10, 155900, Note_on_c, 8, 63, 0
10, 155900, Note_on_c, 8, 72, 0
10, 155920, Note_on_c, 8, 63, 65
10, 155920, Note_on_c, 8, 72, 65
10, 155980, Note_on_c, 8, 63, 0
10, 155980, Note_on_c, 8, 72, 0
10, 156000, Note_on_c, 8, 63, 65
10, 156000, Note_on_c, 8, 72, 65
10, 156060, Note_on_c, 8, 63, 0
10, 156060, Note_on_c, 8, 72, 0
10, 156080, Note_on_c, 8, 63, 65
10, 156080, Note_on_c, 8, 72, 65
10, 156140, Note_on_c, 8, 63, 0
10, 156140, Note_on_c, 8, 72, 0
10, 156160, Note_on_c, 8, 63, 65
10, 156160, Note_on_c, 8, 72, 65
10, 156220, Note_on_c, 8, 63, 0
10, 156220, Note_on_c, 8, 72, 0
10, 156240, Note_on_c, 8, 63, 65
10, 156240, Note_on_c, 8, 72, 65
10, 156300, Note_on_c, 8, 63, 0
10, 156300, Note_on_c, 8, 72, 0
10, 156320, Note_on_c, 8, 63, 65
10, 156320, Note_on_c, 8, 72, 65
10, 156380, Note_on_c, 8, 63, 0
10, 156380, Note_on_c, 8, 72, 0
10, 156400, Note_on_c, 8, 63, 65
10, 156400, Note_on_c, 8, 72, 65
10, 156460, Note_on_c, 8, 63, 0
10, 156460, Note_on_c, 8, 72, 0
10, 156480, Note_on_c, 8, 63, 65
10, 156480, Note_on_c, 8, 72, 65
10, 156540, Note_on_c, 8, 63, 0
10, 156540, Note_on_c, 8, 72, 0
10, 156560, Note_on_c, 8, 63, 65
10, 156560, Note_on_c, 8, 72, 65
10, 156620, Note_on_c, 8, 63, 0
10, 156620, Note_on_c, 8, 72, 0
10, 156640, Note_on_c, 8, 63, 65
10, 156640, Note_on_c, 8, 72, 65
10, 156700, Note_on_c, 8, 63, 0
10, 156700, Note_on_c, 8, 72, 0
10, 156720, Note_on_c, 8, 63, 65
10, 156720, Note_on_c, 8, 72, 65
10, 156780, Note_on_c, 8, 63, 0
10, 156780, Note_on_c, 8, 72, 0
10, 156800, Note_on_c, 8, 63, 65
10, 156800, Note_on_c, 8, 72, 65
10, 156860, Note_on_c, 8, 63, 0
10, 156860, Note_on_c, 8, 72, 0
10, 156880, Note_on_c, 8, 63, 65
10, 156880, Note_on_c, 8, 72, 65
10, 156940, Note_on_c, 8, 63, 0
10, 156940, Note_on_c, 8, 72, 0
10, 156960, Note_on_c, 8, 63, 65
10, 156960, Note_on_c, 8, 72, 65
10, 157020, Note_on_c, 8, 63, 0
10, 157020, Note_on_c, 8, 72, 0
10, 157040, Note_on_c, 8, 63, 65
10, 157040, Note_on_c, 8, 72, 65
10, 157100, Note_on_c, 8, 63, 0
10, 157100, Note_on_c, 8, 72, 0
10, 157120, Note_on_c, 8, 63, 65
10, 157120, Note_on_c, 8, 72, 65
10, 157180, Note_on_c, 8, 63, 0
10, 157180, Note_on_c, 8, 72, 0
10, 157200, Note_on_c, 8, 63, 65
10, 157200, Note_on_c, 8, 72, 65
10, 157260, Note_on_c, 8, 63, 0
10, 157260, Note_on_c, 8, 72, 0
10, 157280, Note_on_c, 8, 63, 65
10, 157280, Note_on_c, 8, 72, 65
10, 157340, Note_on_c, 8, 63, 0
10, 157340, Note_on_c, 8, 72, 0
10, 157360, Note_on_c, 8, 63, 65
10, 157360, Note_on_c, 8, 72, 65
10, 157420, Note_on_c, 8, 63, 0
10, 157420, Note_on_c, 8, 72, 0
10, 157440, Note_on_c, 8, 63, 65
10, 157440, Note_on_c, 8, 72, 65
10, 157500, Note_on_c, 8, 63, 0
10, 157500, Note_on_c, 8, 72, 0
10, 157520, Note_on_c, 8, 63, 65
10, 157520, Note_on_c, 8, 72, 65
10, 157580, Note_on_c, 8, 63, 0
10, 157580, Note_on_c, 8, 72, 0
10, 157600, Note_on_c, 8, 63, 65
10, 157600, Note_on_c, 8, 72, 65
10, 157660, Note_on_c, 8, 63, 0
10, 157660, Note_on_c, 8, 72, 0
10, 157680, Note_on_c, 8, 63, 65
10, 157680, Note_on_c, 8, 72, 65
10, 157740, Note_on_c, 8, 63, 0
10, 157740, Note_on_c, 8, 72, 0
10, 157760, Note_on_c, 8, 63, 65
10, 157760, Note_on_c, 8, 72, 65
10, 157820, Note_on_c, 8, 63, 0
10, 157820, Note_on_c, 8, 72, 0
10, 157840, Note_on_c, 8, 63, 65
10, 157840, Note_on_c, 8, 72, 65
10, 157900, Note_on_c, 8, 63, 0
10, 157900, Note_on_c, 8, 72, 0
10, 157920, Note_on_c, 8, 63, 65
10, 157920, Note_on_c, 8, 72, 65
10, 157980, Note_on_c, 8, 63, 0
10, 157980, Note_on_c, 8, 72, 0
10, 158000, Note_on_c, 8, 63, 65
10, 158000, Note_on_c, 8, 72, 65
10, 158060, Note_on_c, 8, 63, 0
10, 158060, Note_on_c, 8, 72, 0
10, 158080, Note_on_c, 8, 72, 65
10, 158140, Note_on_c, 8, 72, 0
10, 158160, Note_on_c, 8, 63, 65
10, 158160, Note_on_c, 8, 72, 65
10, 158220, Note_on_c, 8, 63, 0
10, 158220, Note_on_c, 8, 72, 0
10, 158240, Note_on_c, 8, 63, 65
10, 158240, Note_on_c, 8, 72, 65
10, 158300, Note_on_c, 8, 63, 0
10, 158300, Note_on_c, 8, 72, 0
10, 158320, Note_on_c, 8, 63, 65
10, 158380, Note_on_c, 8, 63, 0
10, 158400, Note_on_c, 8, 69, 85
10, 158445, Note_on_c, 8, 69, 0
10, 158480, Note_on_c, 8, 72, 84
10, 158525, Note_on_c, 8, 72, 0
10, 158560, Note_on_c, 8, 75, 82
10, 158605, Note_on_c, 8, 75, 0
10, 158640, Note_on_c, 8, 78, 80
10, 158685, Note_on_c, 8, 78, 0
10, 158720, Note_on_c, 8, 81, 79
10, 158765, Note_on_c, 8, 81, 0
10, 158800, Note_on_c, 8, 84, 77
10, 158845, Note_on_c, 8, 84, 0
10, 158880, Note_on_c, 8, 87, 90
10, 158970, Note_on_c, 8, 87, 0
10, 159360, Note_on_c, 8, 62, 65
10, 159360, Note_on_c, 8, 71, 65
10, 159420, Note_on_c, 8, 62, 0
10, 159420, Note_on_c, 8, 71, 0
10, 159440, Note_on_c, 8, 62, 65
10, 159440, Note_on_c, 8, 71, 65
10, 159500, Note_on_c, 8, 62, 0
10, 159500, Note_on_c, 8, 71, 0
10, 159520, Note_on_c, 8, 62, 65
10, 159520, Note_on_c, 8, 71, 65
10, 159580, Note_on_c, 8, 62, 0
10, 159580, Note_on_c, 8, 71, 0
10, 159600, Note_on_c, 8, 62, 65
10, 159600, Note_on_c, 8, 71, 65
10, 159660, Note_on_c, 8, 62, 0
10, 159660, Note_on_c, 8, 71, 0
10, 159680, Note_on_c, 8, 62, 65
10, 159680, Note_on_c, 8, 71, 65
10, 159740, Note_on_c, 8, 62, 0
10, 159740, Note_on_c, 8, 71, 0
10, 159760, Note_on_c, 8, 62, 65
10, 159760, Note_on_c, 8, 71, 65
10, 159820, Note_on_c, 8, 62, 0
10, 159820, Note_on_c, 8, 71, 0
10, 159840, Note_on_c, 8, 62, 65
10, 159840, Note_on_c, 8, 71, 65
10, 159900, Note_on_c, 8, 62, 0
10, 159900, Note_on_c, 8, 71, 0
10, 159920, Note_on_c, 8, 62, 65
10, 159920, Note_on_c, 8, 71, 65
10, 159980, Note_on_c, 8, 62, 0
10, 159980, Note_on_c, 8, 71, 0
10, 160000, Note_on_c, 8, 71, 65
10, 160060, Note_on_c, 8, 71, 0
10, 160080, Note_on_c, 8, 62, 65
10, 160080, Note_on_c, 8, 71, 65
10, 160140, Note_on_c, 8, 62, 0
10, 160140, Note_on_c, 8, 71, 0
10, 160160, Note_on_c, 8, 62, 65
10, 160160, Note_on_c, 8, 71, 65
10, 160220, Note_on_c, 8, 62, 0
10, 160220, Note_on_c, 8, 71, 0
10, 160240, Note_on_c, 8, 62, 65
10, 160300, Note_on_c, 8, 62, 0
10, 160320, Note_on_c, 8, 62, 85
10, 160365, Note_on_c, 8, 62, 0
10, 160400, Note_on_c, 8, 65, 84
10, 160445, Note_on_c, 8, 65, 0
10, 160480, Note_on_c, 8, 68, 82
10, 160525, Note_on_c, 8, 68, 0
10, 160560, Note_on_c, 8, 71, 81
10, 160605, Note_on_c, 8, 71, 0
10, 160640, Note_on_c, 8, 74, 79
10, 160685, Note_on_c, 8, 74, 0
10, 160720, Note_on_c, 8, 77, 77
10, 160765, Note_on_c, 8, 77, 0
10, 160800, Note_on_c, 8, 80, 76
10, 160845, Note_on_c, 8, 80, 0
10, 160880, Note_on_c, 8, 80, 75
10, 160925, Note_on_c, 8, 80, 0
10, 160960, Note_on_c, 8, 80, 75
10, 161005, Note_on_c, 8, 80, 0
10, 161040, Note_on_c, 8, 80, 75
10, 161085, Note_on_c, 8, 80, 0
10, 161120, Note_on_c, 8, 80, 75
10, 161165, Note_on_c, 8, 80, 0
10, 161200, Note_on_c, 8, 80, 75
10, 161245, Note_on_c, 8, 80, 0
10, 161280, Note_on_c, 8, 80, 75
10, 161340, Note_on_c, 8, 80, 0
10, 161360, Note_on_c, 8, 80, 74
10, 161420, Note_on_c, 8, 80, 0
10, 161440, Note_on_c, 8, 80, 72
10, 161500, Note_on_c, 8, 80, 0
10, 161520, Note_on_c, 8, 80, 70
10, 161580, Note_on_c, 8, 80, 0
10, 161600, Note_on_c, 8, 80, 68
10, 161660, Note_on_c, 8, 80, 0
10, 161680, Note_on_c, 8, 80, 66
10, 161740, Note_on_c, 8, 80, 0
10, 161760, Note_on_c, 8, 80, 64
10, 161820, Note_on_c, 8, 80, 0
10, 161840, Note_on_c, 8, 80, 62
10, 161900, Note_on_c, 8, 80, 0
10, 161920, Note_on_c, 8, 80, 60
10, 161980, Note_on_c, 8, 80, 0
10, 162000, Note_on_c, 8, 79, 58
10, 162060, Note_on_c, 8, 79, 0
10, 162080, Note_on_c, 8, 79, 56
10, 162140, Note_on_c, 8, 79, 0
10, 162160, Note_on_c, 8, 79, 54
10, 162220, Note_on_c, 8, 79, 0
10, 162320, Note_on_c, 8, 78, 50
10, 162380, Note_on_c, 8, 78, 0
10, 162400, Note_on_c, 8, 78, 50
10, 162460, Note_on_c, 8, 78, 0
10, 162560, Note_on_c, 8, 79, 50
10, 162620, Note_on_c, 8, 79, 0
10, 162640, Note_on_c, 8, 79, 50
10, 162700, Note_on_c, 8, 79, 0
10, 162800, Note_on_c, 8, 80, 50
10, 162860, Note_on_c, 8, 80, 0
10, 162880, Note_on_c, 8, 80, 50
10, 162940, Note_on_c, 8, 80, 0
10, 163040, Note_on_c, 8, 79, 50
10, 163100, Note_on_c, 8, 79, 0
10, 163120, Note_on_c, 8, 79, 50
10, 163180, Note_on_c, 8, 79, 0
10, 163280, Note_on_c, 8, 77, 50
10, 163340, Note_on_c, 8, 77, 0
10, 163360, Note_on_c, 8, 77, 50
10, 163420, Note_on_c, 8, 77, 0
10, 163520, Note_on_c, 8, 75, 50
10, 163580, Note_on_c, 8, 75, 0
10, 163600, Note_on_c, 8, 75, 50
10, 163660, Note_on_c, 8, 75, 0
10, 163760, Note_on_c, 8, 74, 50
10, 163820, Note_on_c, 8, 74, 0
10, 163840, Note_on_c, 8, 74, 50
10, 163900, Note_on_c, 8, 74, 0
10, 164000, Note_on_c, 8, 72, 60
10, 164060, Note_on_c, 8, 72, 0
10, 164080, Note_on_c, 8, 72, 50
10, 164140, Note_on_c, 8, 72, 0
10, 164240, Note_on_c, 8, 71, 50
10, 164300, Note_on_c, 8, 71, 0
10, 164320, Note_on_c, 8, 71, 50
10, 164380, Note_on_c, 8, 71, 0
10, 164480, Note_on_c, 8, 68, 50
10, 164540, Note_on_c, 8, 68, 0
10, 164560, Note_on_c, 8, 68, 50
10, 164620, Note_on_c, 8, 68, 0
10, 164720, Note_on_c, 8, 67, 50
10, 164780, Note_on_c, 8, 67, 0
10, 164800, Note_on_c, 8, 67, 50
10, 164860, Note_on_c, 8, 67, 0
10, 164960, Note_on_c, 8, 71, 50
10, 165020, Note_on_c, 8, 71, 0
10, 165040, Note_on_c, 8, 71, 50
10, 165100, Note_on_c, 8, 71, 0
10, 165200, Note_on_c, 8, 67, 50
10, 165260, Note_on_c, 8, 67, 0
10, 165280, Note_on_c, 8, 67, 50
10, 165340, Note_on_c, 8, 67, 0
10, 165440, Note_on_c, 8, 74, 60
10, 165500, Note_on_c, 8, 74, 0
10, 165520, Note_on_c, 8, 74, 50
10, 165580, Note_on_c, 8, 74, 0
10, 165680, Note_on_c, 8, 67, 50
10, 165740, Note_on_c, 8, 67, 0
10, 165760, Note_on_c, 8, 67, 50
10, 165820, Note_on_c, 8, 67, 0
10, 165920, Note_on_c, 8, 79, 60
10, 165980, Note_on_c, 8, 79, 0
10, 166000, Note_on_c, 8, 79, 50
10, 166060, Note_on_c, 8, 79, 0
10, 166160, Note_on_c, 8, 67, 50
10, 166220, Note_on_c, 8, 67, 0
10, 166240, Note_on_c, 8, 67, 50
10, 166300, Note_on_c, 8, 67, 0
10, 166400, Note_on_c, 8, 68, 60
10, 166460, Note_on_c, 8, 68, 0
10, 166480, Note_on_c, 8, 68, 50
10, 166540, Note_on_c, 8, 68, 0
10, 166640, Note_on_c, 8, 67, 50
10, 166700, Note_on_c, 8, 67, 0
10, 166720, Note_on_c, 8, 67, 50
10, 166780, Note_on_c, 8, 67, 0
10, 166880, Note_on_c, 8, 72, 60
10, 166940, Note_on_c, 8, 72, 0
10, 166960, Note_on_c, 8, 72, 50
10, 167020, Note_on_c, 8, 72, 0
10, 167120, Note_on_c, 8, 67, 50
10, 167180, Note_on_c, 8, 67, 0
10, 167200, Note_on_c, 8, 67, 50
10, 167260, Note_on_c, 8, 67, 0
10, 167360, Note_on_c, 8, 75, 60
10, 167420, Note_on_c, 8, 75, 0
10, 167440, Note_on_c, 8, 75, 50
10, 167500, Note_on_c, 8, 75, 0
10, 167600, Note_on_c, 8, 67, 50
10, 167660, Note_on_c, 8, 67, 0
10, 167680, Note_on_c, 8, 67, 50
10, 167740, Note_on_c, 8, 67, 0
10, 167840, Note_on_c, 8, 79, 60
10, 167900, Note_on_c, 8, 79, 0
10, 167920, Note_on_c, 8, 79, 50
10, 167980, Note_on_c, 8, 79, 0
10, 168080, Note_on_c, 8, 67, 50
10, 168140, Note_on_c, 8, 67, 0
10, 168160, Note_on_c, 8, 67, 50
10, 168220, Note_on_c, 8, 67, 0
10, 168320, Note_on_c, 8, 68, 60
10, 168380, Note_on_c, 8, 68, 0
10, 168400, Note_on_c, 8, 68, 50
10, 168460, Note_on_c, 8, 68, 0
10, 168560, Note_on_c, 8, 67, 50
10, 168620, Note_on_c, 8, 67, 0
10, 168640, Note_on_c, 8, 67, 50
10, 168700, Note_on_c, 8, 67, 0
10, 168800, Note_on_c, 8, 72, 60
10, 168860, Note_on_c, 8, 72, 0
10, 168880, Note_on_c, 8, 72, 50
10, 168940, Note_on_c, 8, 72, 0
10, 169040, Note_on_c, 8, 67, 50
10, 169100, Note_on_c, 8, 67, 0
10, 169120, Note_on_c, 8, 67, 50
10, 169180, Note_on_c, 8, 67, 0
10, 169280, Note_on_c, 8, 75, 60
10, 169340, Note_on_c, 8, 75, 0
10, 169360, Note_on_c, 8, 75, 50
10, 169420, Note_on_c, 8, 75, 0
10, 169520, Note_on_c, 8, 67, 50
10, 169580, Note_on_c, 8, 67, 0
10, 169600, Note_on_c, 8, 67, 50
10, 169660, Note_on_c, 8, 67, 0
10, 169760, Note_on_c, 8, 79, 60
10, 169820, Note_on_c, 8, 79, 0
10, 169840, Note_on_c, 8, 79, 50
10, 169900, Note_on_c, 8, 79, 0
10, 170000, Note_on_c, 8, 65, 50
10, 170060, Note_on_c, 8, 65, 0
10, 170080, Note_on_c, 8, 65, 50
10, 170140, Note_on_c, 8, 65, 0
10, 170240, Note_on_c, 8, 74, 60
10, 170300, Note_on_c, 8, 74, 0
10, 170320, Note_on_c, 8, 74, 50
10, 170380, Note_on_c, 8, 74, 0
10, 170480, Note_on_c, 8, 71, 50
10, 170540, Note_on_c, 8, 71, 0
10, 170560, Note_on_c, 8, 71, 50
10, 170620, Note_on_c, 8, 71, 0
10, 170720, Note_on_c, 8, 77, 60
10, 170780, Note_on_c, 8, 77, 0
10, 170800, Note_on_c, 8, 77, 50
10, 170860, Note_on_c, 8, 77, 0
10, 170880, Control_c, 8, 11, 80
10, 170910, Control_c, 8, 11, 81
10, 170930, Control_c, 8, 11, 82
10, 170950, Control_c, 8, 11, 83
10, 170960, Note_on_c, 8, 74, 50
10, 170970, Control_c, 8, 11, 84
10, 170990, Control_c, 8, 11, 85
10, 171010, Control_c, 8, 11, 86
10, 171020, Note_on_c, 8, 74, 0
10, 171030, Control_c, 8, 11, 87
10, 171040, Note_on_c, 8, 74, 50
10, 171050, Control_c, 8, 11, 88
10, 171070, Control_c, 8, 11, 89
10, 171090, Control_c, 8, 11, 90
10, 171100, Note_on_c, 8, 74, 0
10, 171110, Control_c, 8, 11, 91
10, 171130, Control_c, 8, 11, 92
10, 171150, Control_c, 8, 11, 93
10, 171170, Control_c, 8, 11, 94
10, 171190, Control_c, 8, 11, 95
10, 171200, Note_on_c, 8, 80, 50
10, 171210, Control_c, 8, 11, 96
10, 171230, Control_c, 8, 11, 97
10, 171250, Control_c, 8, 11, 98
10, 171260, Note_on_c, 8, 80, 0
10, 171270, Control_c, 8, 11, 99
10, 171280, Note_on_c, 8, 80, 50
10, 171290, Control_c, 8, 11, 100
10, 171310, Control_c, 8, 11, 101
10, 171330, Control_c, 8, 11, 102
10, 171340, Note_on_c, 8, 80, 0
10, 171350, Control_c, 8, 11, 103
10, 171380, Control_c, 8, 11, 104
10, 171400, Control_c, 8, 11, 105
10, 171420, Control_c, 8, 11, 106
10, 171440, Note_on_c, 8, 80, 50
10, 171440, Control_c, 8, 11, 107
10, 171460, Control_c, 8, 11, 108
10, 171480, Control_c, 8, 11, 109
10, 171500, Note_on_c, 8, 80, 0
10, 171500, Control_c, 8, 11, 110
10, 171520, Note_on_c, 8, 80, 50
10, 171520, Control_c, 8, 11, 111
10, 171540, Control_c, 8, 11, 112
10, 171560, Control_c, 8, 11, 113
10, 171580, Note_on_c, 8, 80, 0
10, 171580, Control_c, 8, 11, 114
10, 171600, Control_c, 8, 11, 115
10, 171620, Control_c, 8, 11, 116
10, 171640, Control_c, 8, 11, 117
10, 171660, Control_c, 8, 11, 118
10, 171680, Note_on_c, 8, 80, 50
10, 171680, Control_c, 8, 11, 119
10, 171700, Control_c, 8, 11, 120
10, 171720, Control_c, 8, 11, 121
10, 171740, Note_on_c, 8, 80, 0
10, 171740, Control_c, 8, 11, 122
10, 171760, Note_on_c, 8, 80, 50
10, 171760, Control_c, 8, 11, 123
10, 171780, Control_c, 8, 11, 124
10, 171800, Control_c, 8, 11, 125
10, 171820, Note_on_c, 8, 80, 0
10, 171820, Control_c, 8, 11, 126
10, 171840, Control_c, 8, 11, 127
10, 171860, Control_c, 8, 11, 126
10, 171880, Control_c, 8, 11, 125
10, 171900, Control_c, 8, 11, 124
10, 171920, Note_on_c, 8, 80, 50
10, 171920, Control_c, 8, 11, 123
10, 171940, Control_c, 8, 11, 122
10, 171960, Control_c, 8, 11, 121
10, 171980, Note_on_c, 8, 80, 0
10, 171980, Control_c, 8, 11, 120
10, 172000, Note_on_c, 8, 80, 50
10, 172000, Control_c, 8, 11, 119
10, 172020, Control_c, 8, 11, 118
10, 172040, Control_c, 8, 11, 117
10, 172060, Note_on_c, 8, 80, 0
10, 172060, Control_c, 8, 11, 116
10, 172080, Control_c, 8, 11, 115
10, 172100, Control_c, 8, 11, 114
10, 172120, Control_c, 8, 11, 113
10, 172140, Control_c, 8, 11, 112
10, 172160, Note_on_c, 8, 65, 50
10, 172160, Control_c, 8, 11, 111
10, 172180, Control_c, 8, 11, 110
10, 172200, Control_c, 8, 11, 109
10, 172220, Note_on_c, 8, 65, 0
10, 172220, Control_c, 8, 11, 108
10, 172240, Note_on_c, 8, 65, 50
10, 172240, Control_c, 8, 11, 107
10, 172260, Control_c, 8, 11, 106
10, 172280, Control_c, 8, 11, 105
10, 172300, Note_on_c, 8, 65, 0
10, 172300, Control_c, 8, 11, 104
10, 172320, Control_c, 8, 11, 103
10, 172340, Control_c, 8, 11, 102
10, 172360, Control_c, 8, 11, 101
10, 172380, Control_c, 8, 11, 100
10, 172400, Note_on_c, 8, 67, 50
10, 172400, Control_c, 8, 11, 99
10, 172420, Control_c, 8, 11, 98
10, 172440, Control_c, 8, 11, 97
10, 172460, Note_on_c, 8, 67, 0
10, 172460, Control_c, 8, 11, 96
10, 172480, Note_on_c, 8, 67, 50
10, 172480, Control_c, 8, 11, 95
10, 172500, Control_c, 8, 11, 94
10, 172520, Control_c, 8, 11, 93
10, 172540, Note_on_c, 8, 67, 0
10, 172540, Control_c, 8, 11, 92
10, 172560, Control_c, 8, 11, 91
10, 172580, Control_c, 8, 11, 90
10, 172600, Control_c, 8, 11, 89
10, 172620, Control_c, 8, 11, 88
10, 172640, Note_on_c, 8, 68, 50
10, 172640, Control_c, 8, 11, 87
10, 172660, Control_c, 8, 11, 86
10, 172680, Control_c, 8, 11, 85
10, 172700, Note_on_c, 8, 68, 0
10, 172700, Control_c, 8, 11, 84
10, 172720, Note_on_c, 8, 68, 50
10, 172720, Control_c, 8, 11, 83
10, 172740, Control_c, 8, 11, 82
10, 172760, Control_c, 8, 11, 81
10, 172780, Note_on_c, 8, 68, 0
10, 172780, Control_c, 8, 11, 80
10, 172880, Note_on_c, 8, 67, 50
10, 172940, Note_on_c, 8, 67, 0
10, 172960, Note_on_c, 8, 67, 50
10, 173020, Note_on_c, 8, 67, 0
10, 173120, Note_on_c, 8, 68, 50
10, 173180, Note_on_c, 8, 68, 0
10, 173200, Note_on_c, 8, 68, 50
10, 173260, Note_on_c, 8, 68, 0
10, 173280, Note_on_c, 8, 67, 50
10, 173490, Note_on_c, 8, 67, 0
10, 173520, Note_on_c, 8, 58, 50
10, 173730, Note_on_c, 8, 58, 0
10, 173760, Note_on_c, 8, 63, 50
10, 174240, Note_on_c, 8, 62, 50
10, 174270, Note_on_c, 8, 63, 0
10, 174480, Note_on_c, 8, 60, 50
10, 174510, Note_on_c, 8, 62, 0
10, 174690, Note_on_c, 8, 60, 0
10, 174720, Note_on_c, 8, 58, 50
10, 174960, Control_c, 8, 11, 81
10, 174980, Control_c, 8, 11, 82
10, 175010, Control_c, 8, 11, 83
10, 175030, Control_c, 8, 11, 84
10, 175060, Control_c, 8, 11, 85
10, 175080, Control_c, 8, 11, 86
10, 175110, Control_c, 8, 11, 87
10, 175130, Control_c, 8, 11, 88
10, 175160, Control_c, 8, 11, 89
10, 175180, Control_c, 8, 11, 90
10, 175210, Control_c, 8, 11, 91
10, 175230, Control_c, 8, 11, 92
10, 175260, Control_c, 8, 11, 93
10, 175279, Note_on_c, 8, 58, 0
10, 175280, Control_c, 8, 11, 94
10, 175310, Control_c, 8, 11, 95
10, 175320, Note_on_c, 8, 58, 50
10, 175330, Control_c, 8, 11, 96
10, 175350, Note_on_c, 8, 58, 0
10, 175360, Control_c, 8, 11, 97
10, 175380, Note_on_c, 8, 60, 53
10, 175380, Control_c, 8, 11, 98
10, 175410, Note_on_c, 8, 60, 0
10, 175410, Control_c, 8, 11, 99
10, 175430, Control_c, 8, 11, 100
10, 175440, Note_on_c, 8, 62, 56
10, 175460, Control_c, 8, 11, 101
10, 175470, Note_on_c, 8, 62, 0
10, 175480, Control_c, 8, 11, 102
10, 175500, Note_on_c, 8, 63, 60
10, 175510, Control_c, 8, 11, 103
10, 175530, Note_on_c, 8, 63, 0
10, 175530, Control_c, 8, 11, 104
10, 175560, Note_on_c, 8, 65, 63
10, 175560, Control_c, 8, 11, 105
10, 175580, Control_c, 8, 11, 106
10, 175590, Note_on_c, 8, 65, 0
10, 175610, Control_c, 8, 11, 107
10, 175620, Note_on_c, 8, 67, 66
10, 175630, Control_c, 8, 11, 108
10, 175650, Note_on_c, 8, 67, 0
10, 175660, Control_c, 8, 11, 109
10, 175680, Note_on_c, 8, 70, 60
10, 175680, Control_c, 8, 11, 110
10, 175730, Control_c, 8, 11, 109
10, 175780, Control_c, 8, 11, 108
10, 175820, Control_c, 8, 11, 107
10, 175870, Control_c, 8, 11, 106
10, 175910, Control_c, 8, 11, 105
10, 175960, Control_c, 8, 11, 104
10, 176000, Control_c, 8, 11, 103
10, 176040, Note_on_c, 8, 68, 57
10, 176050, Control_c, 8, 11, 102
10, 176070, Note_on_c, 8, 70, 0
10, 176100, Control_c, 8, 11, 101
10, 176140, Control_c, 8, 11, 100
10, 176160, Note_on_c, 8, 67, 55
10, 176190, Note_on_c, 8, 68, 0
10, 176190, Control_c, 8, 11, 99
10, 176230, Control_c, 8, 11, 98
10, 176280, Control_c, 8, 11, 97
10, 176320, Control_c, 8, 11, 96
10, 176370, Control_c, 8, 11, 95
10, 176400, Note_on_c, 8, 65, 53
10, 176420, Control_c, 8, 11, 94
10, 176430, Note_on_c, 8, 67, 0
10, 176460, Control_c, 8, 11, 93
10, 176510, Control_c, 8, 11, 92
10, 176550, Control_c, 8, 11, 91
10, 176600, Control_c, 8, 11, 90
10, 176610, Note_on_c, 8, 65, 0
10, 176640, Note_on_c, 8, 64, 50
10, 176880, Note_on_c, 8, 64, 0
10, 177060, Note_on_c, 8, 70, 80
10, 177090, Note_on_c, 8, 70, 0
10, 177120, Note_on_c, 8, 70, 80
10, 177600, Note_on_c, 8, 70, 0
10, 177600, Control_c, 8, 11, 80
10, 178080, Note_on_c, 8, 68, 50
10, 178320, Note_on_c, 8, 67, 50
10, 178350, Note_on_c, 8, 68, 0
10, 178530, Note_on_c, 8, 67, 0
10, 178560, Note_on_c, 8, 66, 50
10, 179040, Note_on_c, 8, 72, 50
10, 179040, Control_c, 8, 11, 80
10, 179050, Control_c, 8, 11, 83
10, 179060, Control_c, 8, 11, 87
10, 179070, Note_on_c, 8, 66, 0
10, 179070, Control_c, 8, 11, 91
10, 179080, Control_c, 8, 11, 95
10, 179090, Control_c, 8, 11, 99
10, 179100, Control_c, 8, 11, 103
10, 179110, Control_c, 8, 11, 107
10, 179120, Control_c, 8, 11, 111
10, 179140, Control_c, 8, 11, 115
10, 179160, Control_c, 8, 11, 114
10, 179170, Control_c, 8, 11, 113
10, 179180, Control_c, 8, 11, 112
10, 179190, Control_c, 8, 11, 111
10, 179200, Control_c, 8, 11, 110
10, 179210, Control_c, 8, 11, 109
10, 179220, Control_c, 8, 11, 108
10, 179230, Control_c, 8, 11, 107
10, 179240, Control_c, 8, 11, 106
10, 179250, Control_c, 8, 11, 105
10, 179260, Control_c, 8, 11, 104
10, 179270, Control_c, 8, 11, 103
10, 179280, Control_c, 8, 11, 102
10, 179290, Control_c, 8, 11, 101
10, 179300, Control_c, 8, 11, 100
10, 179310, Control_c, 8, 11, 99
10, 179320, Control_c, 8, 11, 98
10, 179330, Control_c, 8, 11, 97
10, 179340, Control_c, 8, 11, 96
10, 179350, Control_c, 8, 11, 95
10, 179360, Control_c, 8, 11, 94
10, 179370, Control_c, 8, 11, 93
10, 179380, Control_c, 8, 11, 92
10, 179390, Control_c, 8, 11, 91
10, 179400, Note_on_c, 8, 66, 50
10, 179400, Control_c, 8, 11, 90
10, 179410, Control_c, 8, 11, 89
10, 179420, Control_c, 8, 11, 88
10, 179430, Note_on_c, 8, 72, 0
10, 179430, Control_c, 8, 11, 87
10, 179440, Control_c, 8, 11, 86
10, 179450, Control_c, 8, 11, 85
10, 179460, Control_c, 8, 11, 84
10, 179470, Control_c, 8, 11, 83
10, 179480, Control_c, 8, 11, 82
10, 179490, Note_on_c, 8, 66, 0
10, 179490, Control_c, 8, 11, 81
10, 179500, Control_c, 8, 11, 80
10, 179520, Note_on_c, 8, 67, 50
10, 179580, Note_on_c, 8, 67, 0
10, 179600, Note_on_c, 8, 67, 50
10, 179660, Note_on_c, 8, 67, 0
10, 179680, Note_on_c, 8, 67, 50
10, 179740, Note_on_c, 8, 67, 0
10, 179760, Note_on_c, 8, 67, 50
10, 179820, Note_on_c, 8, 67, 0
10, 179840, Note_on_c, 8, 67, 50
10, 179900, Note_on_c, 8, 67, 0
10, 179920, Note_on_c, 8, 67, 50
10, 179980, Note_on_c, 8, 67, 0
10, 180080, Note_on_c, 8, 67, 50
10, 180140, Note_on_c, 8, 67, 0
10, 180160, Note_on_c, 8, 67, 50
10, 180220, Note_on_c, 8, 67, 0
10, 180320, Note_on_c, 8, 67, 50
10, 180380, Note_on_c, 8, 67, 0
10, 180400, Note_on_c, 8, 67, 50
10, 180460, Note_on_c, 8, 67, 0
10, 180480, Note_on_c, 8, 67, 50
10, 180540, Note_on_c, 8, 67, 0
10, 180560, Note_on_c, 8, 67, 50
10, 180620, Note_on_c, 8, 67, 0
10, 180640, Note_on_c, 8, 67, 50
10, 180700, Note_on_c, 8, 67, 0
10, 180720, Note_on_c, 8, 67, 50
10, 180780, Note_on_c, 8, 67, 0
10, 180800, Note_on_c, 8, 67, 50
10, 180860, Note_on_c, 8, 67, 0
10, 180880, Note_on_c, 8, 67, 50
10, 180940, Note_on_c, 8, 67, 0
10, 181040, Note_on_c, 8, 67, 50
10, 181100, Note_on_c, 8, 67, 0
10, 181120, Note_on_c, 8, 67, 50
10, 181180, Note_on_c, 8, 67, 0
10, 181280, Note_on_c, 8, 67, 50
10, 181340, Note_on_c, 8, 67, 0
10, 181360, Note_on_c, 8, 67, 50
10, 181420, Note_on_c, 8, 67, 0
10, 181440, Note_on_c, 8, 79, 50
10, 181440, Control_c, 8, 11, 80
10, 181470, Control_c, 8, 11, 81
10, 181500, Control_c, 8, 11, 82
10, 181530, Control_c, 8, 11, 83
10, 181550, Control_c, 8, 11, 84
10, 181580, Control_c, 8, 11, 85
10, 181610, Control_c, 8, 11, 86
10, 181640, Control_c, 8, 11, 87
10, 181660, Control_c, 8, 11, 88
10, 181690, Control_c, 8, 11, 89
10, 181720, Control_c, 8, 11, 90
10, 181750, Control_c, 8, 11, 91
10, 181770, Control_c, 8, 11, 92
10, 181800, Control_c, 8, 11, 93
10, 181830, Control_c, 8, 11, 94
10, 181860, Control_c, 8, 11, 95
10, 181880, Control_c, 8, 11, 96
10, 181910, Control_c, 8, 11, 97
10, 181920, Note_on_c, 8, 74, 50
10, 181940, Control_c, 8, 11, 98
10, 181950, Note_on_c, 8, 79, 0
10, 181970, Control_c, 8, 11, 99
10, 181990, Control_c, 8, 11, 100
10, 182020, Control_c, 8, 11, 101
10, 182050, Control_c, 8, 11, 102
10, 182080, Control_c, 8, 11, 103
10, 182100, Control_c, 8, 11, 104
10, 182130, Control_c, 8, 11, 105
10, 182160, Note_on_c, 8, 77, 50
10, 182160, Control_c, 8, 11, 106
10, 182190, Note_on_c, 8, 74, 0
10, 182190, Control_c, 8, 11, 107
10, 182210, Control_c, 8, 11, 108
10, 182240, Control_c, 8, 11, 109
10, 182270, Control_c, 8, 11, 110
10, 182300, Control_c, 8, 11, 111
10, 182320, Control_c, 8, 11, 112
10, 182350, Control_c, 8, 11, 113
10, 182380, Control_c, 8, 11, 114
10, 182400, Note_on_c, 8, 75, 50
10, 182400, Control_c, 8, 11, 115
10, 182430, Note_on_c, 8, 77, 0
10, 182430, Control_c, 8, 11, 114
10, 182460, Control_c, 8, 11, 113
10, 182480, Control_c, 8, 11, 112
10, 182510, Control_c, 8, 11, 111
10, 182540, Control_c, 8, 11, 110
10, 182560, Control_c, 8, 11, 109
10, 182590, Control_c, 8, 11, 108
10, 182620, Control_c, 8, 11, 107
10, 182640, Control_c, 8, 11, 106
10, 182670, Control_c, 8, 11, 105
10, 182700, Control_c, 8, 11, 104
10, 182720, Control_c, 8, 11, 103
10, 182750, Control_c, 8, 11, 102
10, 182780, Control_c, 8, 11, 101
10, 182800, Control_c, 8, 11, 100
10, 182830, Control_c, 8, 11, 99
10, 182860, Control_c, 8, 11, 98
10, 182880, Note_on_c, 8, 74, 50
10, 182880, Control_c, 8, 11, 97
10, 182910, Note_on_c, 8, 75, 0
10, 182910, Control_c, 8, 11, 96
10, 182940, Control_c, 8, 11, 95
10, 182960, Control_c, 8, 11, 94
10, 182990, Control_c, 8, 11, 93
10, 183020, Control_c, 8, 11, 92
10, 183040, Control_c, 8, 11, 91
10, 183070, Control_c, 8, 11, 90
10, 183100, Control_c, 8, 11, 89
10, 183120, Note_on_c, 8, 72, 50
10, 183120, Control_c, 8, 11, 88
10, 183150, Note_on_c, 8, 74, 0
10, 183150, Control_c, 8, 11, 87
10, 183180, Control_c, 8, 11, 86
10, 183200, Control_c, 8, 11, 85
10, 183230, Control_c, 8, 11, 84
10, 183260, Control_c, 8, 11, 83
10, 183280, Control_c, 8, 11, 82
10, 183310, Control_c, 8, 11, 81
10, 183330, Note_on_c, 8, 72, 0
10, 183340, Control_c, 8, 11, 80
10, 183360, Note_on_c, 8, 71, 50
10, 183405, Note_on_c, 8, 71, 0
10, 183420, Note_on_c, 8, 67, 50
10, 183465, Note_on_c, 8, 67, 0
10, 183480, Note_on_c, 8, 67, 50
10, 183525, Note_on_c, 8, 67, 0
10, 183540, Note_on_c, 8, 67, 50
10, 183585, Note_on_c, 8, 67, 0
10, 183660, Note_on_c, 8, 68, 50
10, 183705, Note_on_c, 8, 68, 0
10, 183720, Note_on_c, 8, 68, 50
10, 183765, Note_on_c, 8, 68, 0
10, 183780, Note_on_c, 8, 68, 50
10, 183825, Note_on_c, 8, 68, 0
10, 183900, Note_on_c, 8, 67, 50
10, 183945, Note_on_c, 8, 67, 0
10, 183960, Note_on_c, 8, 67, 50
10, 184005, Note_on_c, 8, 67, 0
10, 184020, Note_on_c, 8, 67, 50
10, 184065, Note_on_c, 8, 67, 0
10, 184140, Note_on_c, 8, 72, 50
10, 184185, Note_on_c, 8, 72, 0
10, 184200, Note_on_c, 8, 72, 50
10, 184245, Note_on_c, 8, 72, 0
10, 184260, Note_on_c, 8, 72, 50
10, 184305, Note_on_c, 8, 72, 0
10, 184380, Note_on_c, 8, 71, 50
10, 184425, Note_on_c, 8, 71, 0
10, 184440, Note_on_c, 8, 71, 50
10, 184485, Note_on_c, 8, 71, 0
10, 184500, Note_on_c, 8, 71, 50
10, 184545, Note_on_c, 8, 71, 0
10, 184620, Note_on_c, 8, 75, 50
10, 184665, Note_on_c, 8, 75, 0
10, 184680, Note_on_c, 8, 75, 50
10, 184725, Note_on_c, 8, 75, 0
10, 184740, Note_on_c, 8, 75, 50
10, 184785, Note_on_c, 8, 75, 0
10, 184860, Note_on_c, 8, 74, 50
10, 184905, Note_on_c, 8, 74, 0
10, 184920, Note_on_c, 8, 74, 50
10, 184965, Note_on_c, 8, 74, 0
10, 184980, Note_on_c, 8, 74, 50
10, 185025, Note_on_c, 8, 74, 0
10, 185100, Note_on_c, 8, 72, 50
10, 185145, Note_on_c, 8, 72, 0
10, 185160, Note_on_c, 8, 72, 50
10, 185205, Note_on_c, 8, 72, 0
10, 185220, Note_on_c, 8, 72, 50
10, 185265, Note_on_c, 8, 72, 0
10, 185340, Note_on_c, 8, 71, 50
10, 185385, Note_on_c, 8, 71, 0
10, 185400, Note_on_c, 8, 71, 50
10, 185445, Note_on_c, 8, 71, 0
10, 185460, Note_on_c, 8, 71, 51
10, 185505, Note_on_c, 8, 71, 0
10, 185520, Note_on_c, 8, 71, 51
10, 185565, Note_on_c, 8, 71, 0
10, 185580, Note_on_c, 8, 71, 52
10, 185625, Note_on_c, 8, 71, 0
10, 185640, Note_on_c, 8, 71, 52
10, 185685, Note_on_c, 8, 71, 0
10, 185700, Note_on_c, 8, 71, 53
10, 185745, Note_on_c, 8, 71, 0
10, 185820, Note_on_c, 8, 68, 54
10, 185865, Note_on_c, 8, 68, 0
10, 185880, Note_on_c, 8, 68, 54
10, 185925, Note_on_c, 8, 68, 0
10, 185940, Note_on_c, 8, 68, 55
10, 185985, Note_on_c, 8, 68, 0
10, 186000, Note_on_c, 8, 68, 55
10, 186045, Note_on_c, 8, 68, 0
10, 186060, Note_on_c, 8, 68, 56
10, 186105, Note_on_c, 8, 68, 0
10, 186120, Note_on_c, 8, 68, 56
10, 186165, Note_on_c, 8, 68, 0
10, 186180, Note_on_c, 8, 68, 57
10, 186225, Note_on_c, 8, 68, 0
10, 186300, Note_on_c, 8, 67, 58
10, 186345, Note_on_c, 8, 67, 0
10, 186360, Note_on_c, 8, 67, 58
10, 186405, Note_on_c, 8, 67, 0
10, 186420, Note_on_c, 8, 67, 59
10, 186465, Note_on_c, 8, 67, 0
10, 186480, Note_on_c, 8, 67, 59
10, 186525, Note_on_c, 8, 67, 0
10, 186540, Note_on_c, 8, 67, 59
10, 186585, Note_on_c, 8, 67, 0
10, 186600, Note_on_c, 8, 67, 60
10, 186645, Note_on_c, 8, 67, 0
10, 186660, Note_on_c, 8, 67, 60
10, 186705, Note_on_c, 8, 67, 0
10, 186720, Note_on_c, 8, 55, 70
10, 186720, Note_on_c, 8, 64, 70
10, 186765, Note_on_c, 8, 55, 0
10, 186765, Note_on_c, 8, 64, 0
10, 186780, Note_on_c, 8, 55, 61
10, 186780, Note_on_c, 8, 64, 61
10, 186825, Note_on_c, 8, 55, 0
10, 186825, Note_on_c, 8, 64, 0
10, 186840, Note_on_c, 8, 55, 62
10, 186840, Note_on_c, 8, 64, 62
10, 186885, Note_on_c, 8, 55, 0
10, 186885, Note_on_c, 8, 64, 0
10, 186900, Note_on_c, 8, 55, 62
10, 186900, Note_on_c, 8, 64, 62
10, 186945, Note_on_c, 8, 55, 0
10, 186945, Note_on_c, 8, 64, 0
10, 186960, Note_on_c, 8, 55, 63
10, 186960, Note_on_c, 8, 64, 63
10, 187005, Note_on_c, 8, 55, 0
10, 187005, Note_on_c, 8, 64, 0
10, 187020, Note_on_c, 8, 55, 63
10, 187020, Note_on_c, 8, 64, 63
10, 187065, Note_on_c, 8, 55, 0
10, 187065, Note_on_c, 8, 64, 0
10, 187080, Note_on_c, 8, 55, 64
10, 187080, Note_on_c, 8, 64, 64
10, 187125, Note_on_c, 8, 55, 0
10, 187125, Note_on_c, 8, 64, 0
10, 187140, Note_on_c, 8, 55, 64
10, 187140, Note_on_c, 8, 64, 64
10, 187185, Note_on_c, 8, 55, 0
10, 187185, Note_on_c, 8, 64, 0
10, 187200, Note_on_c, 8, 65, 50
10, 187245, Note_on_c, 8, 65, 0
10, 187260, Note_on_c, 8, 68, 50
10, 187305, Note_on_c, 8, 68, 0
10, 187320, Note_on_c, 8, 68, 50
10, 187365, Note_on_c, 8, 68, 0
10, 187380, Note_on_c, 8, 68, 50
10, 187425, Note_on_c, 8, 68, 0
10, 187500, Note_on_c, 8, 68, 50
10, 187545, Note_on_c, 8, 68, 0
10, 187560, Note_on_c, 8, 68, 50
10, 187605, Note_on_c, 8, 68, 0
10, 187620, Note_on_c, 8, 68, 50
10, 187665, Note_on_c, 8, 68, 0
10, 187740, Note_on_c, 8, 68, 50
10, 187785, Note_on_c, 8, 68, 0
10, 187800, Note_on_c, 8, 68, 50
10, 187845, Note_on_c, 8, 68, 0
10, 187860, Note_on_c, 8, 68, 50
10, 187905, Note_on_c, 8, 68, 0
10, 187980, Note_on_c, 8, 68, 50
10, 188025, Note_on_c, 8, 68, 0
10, 188040, Note_on_c, 8, 68, 50
10, 188085, Note_on_c, 8, 68, 0
10, 188100, Note_on_c, 8, 68, 50
10, 188145, Note_on_c, 8, 68, 0
10, 188220, Note_on_c, 8, 68, 50
10, 188265, Note_on_c, 8, 68, 0
10, 188280, Note_on_c, 8, 68, 50
10, 188325, Note_on_c, 8, 68, 0
10, 188340, Note_on_c, 8, 68, 50
10, 188385, Note_on_c, 8, 68, 0
10, 188460, Note_on_c, 8, 68, 50
10, 188505, Note_on_c, 8, 68, 0
10, 188520, Note_on_c, 8, 68, 50
10, 188565, Note_on_c, 8, 68, 0
10, 188580, Note_on_c, 8, 68, 50
10, 188625, Note_on_c, 8, 68, 0
10, 188700, Note_on_c, 8, 68, 50
10, 188745, Note_on_c, 8, 68, 0
10, 188760, Note_on_c, 8, 68, 50
10, 188805, Note_on_c, 8, 68, 0
10, 188820, Note_on_c, 8, 68, 50
10, 188865, Note_on_c, 8, 68, 0
10, 188940, Note_on_c, 8, 68, 50
10, 188985, Note_on_c, 8, 68, 0
10, 189000, Note_on_c, 8, 68, 50
10, 189045, Note_on_c, 8, 68, 0
10, 189060, Note_on_c, 8, 68, 50
10, 189105, Note_on_c, 8, 68, 0
10, 189180, Note_on_c, 8, 68, 51
10, 189225, Note_on_c, 8, 68, 0
10, 189240, Note_on_c, 8, 68, 52
10, 189285, Note_on_c, 8, 68, 0
10, 189300, Note_on_c, 8, 68, 53
10, 189345, Note_on_c, 8, 68, 0
10, 189420, Note_on_c, 8, 68, 56
10, 189465, Note_on_c, 8, 68, 0
10, 189480, Note_on_c, 8, 68, 57
10, 189525, Note_on_c, 8, 68, 0
10, 189540, Note_on_c, 8, 68, 58
10, 189585, Note_on_c, 8, 68, 0
10, 189660, Note_on_c, 8, 71, 61
10, 189705, Note_on_c, 8, 71, 0
10, 189720, Note_on_c, 8, 71, 62
10, 189765, Note_on_c, 8, 71, 0
10, 189780, Note_on_c, 8, 71, 64
10, 189825, Note_on_c, 8, 71, 0
10, 189900, Note_on_c, 8, 71, 66
10, 189945, Note_on_c, 8, 71, 0
10, 189960, Note_on_c, 8, 71, 67
10, 190005, Note_on_c, 8, 71, 0
10, 190020, Note_on_c, 8, 71, 69
10, 190065, Note_on_c, 8, 71, 0
10, 190140, Note_on_c, 8, 72, 70
10, 190185, Note_on_c, 8, 72, 0
10, 190200, Note_on_c, 8, 72, 70
10, 190245, Note_on_c, 8, 72, 0
10, 190260, Note_on_c, 8, 72, 70
10, 190305, Note_on_c, 8, 72, 0
10, 190320, Note_on_c, 8, 68, 70
10, 190365, Note_on_c, 8, 68, 0
10, 190380, Note_on_c, 8, 68, 70
10, 190425, Note_on_c, 8, 68, 0
10, 190440, Note_on_c, 8, 68, 70
10, 190485, Note_on_c, 8, 68, 0
10, 190500, Note_on_c, 8, 68, 70
10, 190545, Note_on_c, 8, 68, 0
10, 190560, Note_on_c, 8, 68, 70
10, 190605, Note_on_c, 8, 68, 0
10, 190620, Note_on_c, 8, 68, 70
10, 190665, Note_on_c, 8, 68, 0
10, 190680, Note_on_c, 8, 68, 70
10, 190725, Note_on_c, 8, 68, 0
10, 190740, Note_on_c, 8, 68, 70
10, 190785, Note_on_c, 8, 68, 0
10, 190800, Note_on_c, 8, 66, 50
10, 190845, Note_on_c, 8, 66, 0
10, 190860, Note_on_c, 8, 66, 50
10, 190905, Note_on_c, 8, 66, 0
10, 190920, Note_on_c, 8, 66, 50
10, 190965, Note_on_c, 8, 66, 0
10, 190980, Note_on_c, 8, 66, 50
10, 191025, Note_on_c, 8, 66, 0
10, 191040, Note_on_c, 8, 66, 50
10, 191040, Control_c, 8, 11, 80
10, 191050, Control_c, 8, 11, 81
10, 191060, Control_c, 8, 11, 83
10, 191070, Control_c, 8, 11, 85
10, 191080, Control_c, 8, 11, 87
10, 191085, Note_on_c, 8, 66, 0
10, 191090, Control_c, 8, 11, 89
10, 191100, Note_on_c, 8, 66, 50
10, 191100, Control_c, 8, 11, 91
10, 191110, Control_c, 8, 11, 93
10, 191120, Control_c, 8, 11, 95
10, 191130, Control_c, 8, 11, 97
10, 191140, Control_c, 8, 11, 99
10, 191145, Note_on_c, 8, 66, 0
10, 191150, Control_c, 8, 11, 101
10, 191160, Note_on_c, 8, 66, 50
10, 191160, Control_c, 8, 11, 103
10, 191170, Control_c, 8, 11, 105
10, 191180, Control_c, 8, 11, 107
10, 191190, Control_c, 8, 11, 109
10, 191200, Control_c, 8, 11, 111
10, 191205, Note_on_c, 8, 66, 0
10, 191210, Control_c, 8, 11, 113
10, 191220, Note_on_c, 8, 66, 50
10, 191220, Control_c, 8, 11, 115
10, 191230, Control_c, 8, 11, 117
10, 191240, Control_c, 8, 11, 119
10, 191250, Control_c, 8, 11, 121
10, 191260, Control_c, 8, 11, 123
10, 191265, Note_on_c, 8, 66, 0
10, 191270, Control_c, 8, 11, 125
10, 191280, Note_on_c, 8, 67, 50
10, 191280, Control_c, 8, 11, 127
10, 191290, Control_c, 8, 11, 125
10, 191300, Control_c, 8, 11, 123
10, 191310, Control_c, 8, 11, 121
10, 191320, Control_c, 8, 11, 119
10, 191325, Note_on_c, 8, 67, 0
10, 191330, Control_c, 8, 11, 117
10, 191340, Note_on_c, 8, 67, 50
10, 191340, Control_c, 8, 11, 115
10, 191350, Control_c, 8, 11, 113
10, 191360, Control_c, 8, 11, 111
10, 191370, Control_c, 8, 11, 109
10, 191380, Control_c, 8, 11, 107
10, 191385, Note_on_c, 8, 67, 0
10, 191390, Control_c, 8, 11, 105
10, 191400, Note_on_c, 8, 67, 50
10, 191400, Control_c, 8, 11, 103
10, 191410, Control_c, 8, 11, 101
10, 191420, Control_c, 8, 11, 99
10, 191430, Control_c, 8, 11, 97
10, 191440, Control_c, 8, 11, 95
10, 191445, Note_on_c, 8, 67, 0
10, 191450, Control_c, 8, 11, 93
10, 191460, Note_on_c, 8, 67, 50
10, 191460, Control_c, 8, 11, 91
10, 191470, Control_c, 8, 11, 89
10, 191480, Control_c, 8, 11, 87
10, 191490, Control_c, 8, 11, 84
10, 191500, Control_c, 8, 11, 82
10, 191505, Note_on_c, 8, 67, 0
10, 191510, Control_c, 8, 11, 80
10, 191580, Note_on_c, 8, 67, 50
10, 191625, Note_on_c, 8, 67, 0
10, 191640, Note_on_c, 8, 67, 50
10, 191685, Note_on_c, 8, 67, 0
10, 191700, Note_on_c, 8, 67, 50
10, 191745, Note_on_c, 8, 67, 0
10, 191820, Note_on_c, 8, 71, 50
10, 191865, Note_on_c, 8, 71, 0
10, 191880, Note_on_c, 8, 71, 50
10, 191925, Note_on_c, 8, 71, 0
10, 191940, Note_on_c, 8, 71, 50
10, 191985, Note_on_c, 8, 71, 0
10, 192000, Note_on_c, 8, 72, 50
10, 192480, Note_on_c, 8, 67, 50
10, 192510, Note_on_c, 8, 72, 0
10, 192930, Note_on_c, 8, 67, 0
10, 192960, Note_on_c, 8, 63, 50
10, 193200, Note_on_c, 8, 67, 50
10, 193230, Note_on_c, 8, 63, 0
10, 193440, Note_on_c, 8, 72, 50
10, 193470, Note_on_c, 8, 67, 0
10, 193890, Note_on_c, 8, 72, 0
10, 193920, Note_on_c, 8, 74, 50
10, 194400, Note_on_c, 8, 75, 50
10, 194400, Control_c, 8, 11, 80
10, 194410, Control_c, 8, 11, 83
10, 194420, Control_c, 8, 11, 87
10, 194430, Note_on_c, 8, 74, 0
10, 194430, Control_c, 8, 11, 91
10, 194440, Control_c, 8, 11, 95
10, 194450, Control_c, 8, 11, 99
10, 194460, Control_c, 8, 11, 103
10, 194470, Control_c, 8, 11, 107
10, 194480, Control_c, 8, 11, 111
10, 194500, Control_c, 8, 11, 115
10, 194510, Control_c, 8, 11, 114
10, 194520, Control_c, 8, 11, 113
10, 194530, Control_c, 8, 11, 111
10, 194540, Control_c, 8, 11, 110
10, 194550, Control_c, 8, 11, 109
10, 194560, Control_c, 8, 11, 107
10, 194570, Control_c, 8, 11, 106
10, 194580, Control_c, 8, 11, 104
10, 194590, Control_c, 8, 11, 103
10, 194600, Control_c, 8, 11, 102
10, 194610, Control_c, 8, 11, 100
10, 194620, Control_c, 8, 11, 99
10, 194630, Control_c, 8, 11, 97
10, 194640, Control_c, 8, 11, 96
10, 194650, Control_c, 8, 11, 95
10, 194660, Control_c, 8, 11, 93
10, 194670, Control_c, 8, 11, 92
10, 194680, Control_c, 8, 11, 91
10, 194690, Control_c, 8, 11, 89
10, 194700, Control_c, 8, 11, 87
10, 194710, Control_c, 8, 11, 85
10, 194720, Control_c, 8, 11, 84
10, 194730, Control_c, 8, 11, 83
10, 194740, Control_c, 8, 11, 81
10, 194750, Control_c, 8, 11, 80
10, 194760, Note_on_c, 8, 74, 50
10, 194790, Note_on_c, 8, 75, 0
10, 194820, Note_on_c, 8, 72, 50
10, 194835, Note_on_c, 8, 74, 0
10, 194865, Note_on_c, 8, 72, 0
10, 194880, Note_on_c, 8, 72, 50
10, 195120, Note_on_c, 8, 71, 50
10, 195150, Note_on_c, 8, 72, 0
10, 195240, Note_on_c, 8, 71, 0
10, 195360, Note_on_c, 8, 71, 50
10, 195600, Note_on_c, 8, 71, 0
10, 195900, Note_on_c, 8, 74, 65
10, 195960, Note_on_c, 8, 72, 65
10, 195975, Note_on_c, 8, 74, 0
10, 196020, Note_on_c, 8, 74, 65
10, 196035, Note_on_c, 8, 72, 0
10, 196065, Note_on_c, 8, 74, 0
10, 196140, Note_on_c, 8, 74, 65
10, 196200, Note_on_c, 8, 72, 65
10, 196215, Note_on_c, 8, 74, 0
10, 196260, Note_on_c, 8, 74, 65
10, 196275, Note_on_c, 8, 72, 0
10, 196305, Note_on_c, 8, 74, 0
10, 196380, Note_on_c, 8, 74, 65
10, 196440, Note_on_c, 8, 72, 65
10, 196455, Note_on_c, 8, 74, 0
10, 196500, Note_on_c, 8, 74, 65
10, 196515, Note_on_c, 8, 72, 0
10, 196545, Note_on_c, 8, 74, 0
10, 196620, Note_on_c, 8, 74, 65
10, 196680, Note_on_c, 8, 72, 65
10, 196695, Note_on_c, 8, 74, 0
10, 196740, Note_on_c, 8, 74, 65
10, 196755, Note_on_c, 8, 72, 0
10, 196785, Note_on_c, 8, 74, 0
10, 196860, Note_on_c, 8, 75, 65
10, 196920, Note_on_c, 8, 72, 65
10, 196935, Note_on_c, 8, 75, 0
10, 196980, Note_on_c, 8, 75, 65
10, 196995, Note_on_c, 8, 72, 0
10, 197025, Note_on_c, 8, 75, 0
10, 197100, Note_on_c, 8, 75, 64
10, 197160, Note_on_c, 8, 72, 63
10, 197175, Note_on_c, 8, 75, 0
10, 197220, Note_on_c, 8, 75, 62
10, 197235, Note_on_c, 8, 72, 0
10, 197265, Note_on_c, 8, 75, 0
10, 197340, Note_on_c, 8, 75, 59
10, 197400, Note_on_c, 8, 72, 58
10, 197415, Note_on_c, 8, 75, 0
10, 197460, Note_on_c, 8, 75, 57
10, 197475, Note_on_c, 8, 72, 0
10, 197505, Note_on_c, 8, 75, 0
10, 197580, Note_on_c, 8, 75, 54
10, 197640, Note_on_c, 8, 72, 53
10, 197655, Note_on_c, 8, 75, 0
10, 197700, Note_on_c, 8, 75, 52
10, 197715, Note_on_c, 8, 72, 0
10, 197745, Note_on_c, 8, 75, 0
10, 197820, Note_on_c, 8, 72, 50
10, 197880, Note_on_c, 8, 63, 50
10, 197895, Note_on_c, 8, 72, 0
10, 197940, Note_on_c, 8, 72, 50
10, 197955, Note_on_c, 8, 63, 0
10, 197985, Note_on_c, 8, 72, 0
10, 198060, Note_on_c, 8, 72, 50
10, 198120, Note_on_c, 8, 63, 50
10, 198135, Note_on_c, 8, 72, 0
10, 198180, Note_on_c, 8, 72, 50
10, 198195, Note_on_c, 8, 63, 0
10, 198225, Note_on_c, 8, 72, 0
10, 198300, Note_on_c, 8, 71, 50
10, 198360, Note_on_c, 8, 65, 50
10, 198375, Note_on_c, 8, 71, 0
10, 198420, Note_on_c, 8, 71, 50
10, 198435, Note_on_c, 8, 65, 0
10, 198465, Note_on_c, 8, 71, 0
10, 198540, Note_on_c, 8, 71, 50
10, 198600, Note_on_c, 8, 65, 50
10, 198615, Note_on_c, 8, 71, 0
10, 198660, Note_on_c, 8, 71, 50
10, 198675, Note_on_c, 8, 65, 0
10, 198705, Note_on_c, 8, 71, 0
10, 198780, Note_on_c, 8, 72, 50
10, 198840, Note_on_c, 8, 63, 50
10, 198855, Note_on_c, 8, 72, 0
10, 198900, Note_on_c, 8, 72, 51
10, 198915, Note_on_c, 8, 63, 0
10, 198960, Note_on_c, 8, 63, 51
10, 198975, Note_on_c, 8, 72, 0
10, 199020, Note_on_c, 8, 72, 52
10, 199035, Note_on_c, 8, 63, 0
10, 199080, Note_on_c, 8, 63, 52
10, 199095, Note_on_c, 8, 72, 0
10, 199140, Note_on_c, 8, 72, 53
10, 199155, Note_on_c, 8, 63, 0
10, 199185, Note_on_c, 8, 72, 0
10, 199200, Note_on_c, 8, 63, 53
10, 199260, Note_on_c, 8, 72, 54
10, 199275, Note_on_c, 8, 63, 0
10, 199320, Note_on_c, 8, 63, 54
10, 199335, Note_on_c, 8, 72, 0
10, 199380, Note_on_c, 8, 72, 55
10, 199395, Note_on_c, 8, 63, 0
10, 199440, Note_on_c, 8, 63, 55
10, 199455, Note_on_c, 8, 72, 0
10, 199500, Note_on_c, 8, 72, 56
10, 199515, Note_on_c, 8, 63, 0
10, 199560, Note_on_c, 8, 63, 56
10, 199575, Note_on_c, 8, 72, 0
10, 199620, Note_on_c, 8, 72, 57
10, 199635, Note_on_c, 8, 63, 0
10, 199665, Note_on_c, 8, 72, 0
10, 199740, Note_on_c, 8, 72, 57
10, 199800, Note_on_c, 8, 63, 58
10, 199815, Note_on_c, 8, 72, 0
10, 199860, Note_on_c, 8, 72, 58
10, 199875, Note_on_c, 8, 63, 0
10, 199905, Note_on_c, 8, 72, 0
10, 199980, Note_on_c, 8, 72, 59
10, 200040, Note_on_c, 8, 63, 60
10, 200055, Note_on_c, 8, 72, 0
10, 200100, Note_on_c, 8, 72, 60
10, 200115, Note_on_c, 8, 63, 0
10, 200145, Note_on_c, 8, 72, 0
10, 200220, Note_on_c, 8, 71, 61
10, 200280, Note_on_c, 8, 65, 62
10, 200295, Note_on_c, 8, 71, 0
10, 200340, Note_on_c, 8, 71, 62
10, 200355, Note_on_c, 8, 65, 0
10, 200385, Note_on_c, 8, 71, 0
10, 200460, Note_on_c, 8, 71, 63
10, 200520, Note_on_c, 8, 65, 64
10, 200535, Note_on_c, 8, 71, 0
10, 200580, Note_on_c, 8, 71, 64
10, 200595, Note_on_c, 8, 65, 0
10, 200625, Note_on_c, 8, 71, 0
10, 200640, Note_on_c, 8, 56, 75
10, 200640, Note_on_c, 8, 63, 75
10, 200640, Note_on_c, 8, 72, 75
10, 200880, Note_on_c, 8, 56, 0
10, 200880, Note_on_c, 8, 63, 0
10, 200880, Note_on_c, 8, 72, 0
10, 202800, Note_on_c, 8, 60, 49
10, 202890, Note_on_c, 8, 60, 0
10, 203040, Note_on_c, 8, 56, 48
10, 203130, Note_on_c, 8, 56, 0
10, 203280, Note_on_c, 8, 60, 47
10, 203370, Note_on_c, 8, 60, 0
10, 203520, Note_on_c, 8, 56, 45
10, 203610, Note_on_c, 8, 56, 0
10, 203760, Note_on_c, 8, 60, 44
10, 203850, Note_on_c, 8, 60, 0
10, 204000, Note_on_c, 8, 56, 43
10, 204090, Note_on_c, 8, 56, 0
10, 204240, Note_on_c, 8, 72, 42
10, 204330, Note_on_c, 8, 72, 0
10, 204480, Note_on_c, 8, 68, 40
10, 205200, Note_on_c, 8, 72, 40
10, 205230, Note_on_c, 8, 68, 0
10, 205440, Note_on_c, 8, 75, 40
10, 205470, Note_on_c, 8, 72, 0
10, 205680, Note_on_c, 8, 72, 40
10, 205710, Note_on_c, 8, 75, 0
10, 205920, Note_on_c, 8, 68, 40
10, 205950, Note_on_c, 8, 72, 0
10, 206160, Note_on_c, 8, 66, 40
10, 206190, Note_on_c, 8, 68, 0
10, 206520, Note_on_c, 8, 65, 40
10, 206550, Note_on_c, 8, 66, 0
10, 206745, Note_on_c, 8, 65, 0
10, 206760, Note_on_c, 8, 68, 40
10, 206985, Note_on_c, 8, 68, 0
10, 207000, Note_on_c, 8, 73, 40
10, 207225, Note_on_c, 8, 73, 0
10, 207240, Note_on_c, 8, 77, 40
10, 207465, Note_on_c, 8, 77, 0
10, 207480, Note_on_c, 8, 75, 40
10, 207705, Note_on_c, 8, 75, 0
10, 207720, Note_on_c, 8, 72, 40
10, 207945, Note_on_c, 8, 72, 0
10, 207960, Note_on_c, 8, 68, 40
10, 208185, Note_on_c, 8, 68, 0
10, 208200, Note_on_c, 8, 66, 40
10, 208440, Note_on_c, 8, 65, 40
10, 208470, Note_on_c, 8, 66, 0
10, 208560, Note_on_c, 8, 65, 0
10, 208680, Note_on_c, 8, 65, 40
10, 208800, Note_on_c, 8, 64, 40
10, 208830, Note_on_c, 8, 65, 0
10, 208920, Note_on_c, 8, 65, 40
10, 208950, Note_on_c, 8, 64, 0
10, 209040, Note_on_c, 8, 65, 0
10, 209160, Note_on_c, 8, 65, 40
10, 209520, Note_on_c, 8, 65, 0
10, 209640, Note_on_c, 8, 77, 50
10, 209880, Note_on_c, 8, 65, 40
10, 209910, Note_on_c, 8, 77, 0
10, 210000, Note_on_c, 8, 65, 0
10, 210120, Note_on_c, 8, 65, 40
10, 210360, Note_on_c, 8, 63, 40
10, 210390, Note_on_c, 8, 65, 0
10, 210480, Note_on_c, 8, 63, 0
10, 210600, Note_on_c, 8, 63, 40
10, 210960, Note_on_c, 8, 63, 0
10, 211080, Note_on_c, 8, 63, 40
10, 211320, Note_on_c, 8, 75, 40
10, 211350, Note_on_c, 8, 63, 0
10, 211440, Note_on_c, 8, 75, 0
10, 211560, Note_on_c, 8, 75, 50
10, 211680, Control_c, 8, 11, 80
10, 211700, Control_c, 8, 11, 81
10, 211720, Control_c, 8, 11, 82
10, 211740, Control_c, 8, 11, 83
10, 211760, Control_c, 8, 11, 84
10, 211770, Control_c, 8, 11, 85
10, 211790, Control_c, 8, 11, 86
10, 211800, Note_on_c, 8, 63, 40
10, 211810, Control_c, 8, 11, 87
10, 211830, Note_on_c, 8, 75, 0
10, 211830, Control_c, 8, 11, 88
10, 211850, Control_c, 8, 11, 89
10, 211860, Control_c, 8, 11, 90
10, 211880, Control_c, 8, 11, 91
10, 211900, Control_c, 8, 11, 92
10, 211920, Note_on_c, 8, 63, 0
10, 211920, Control_c, 8, 11, 93
10, 211940, Control_c, 8, 11, 94
10, 211950, Control_c, 8, 11, 95
10, 211970, Control_c, 8, 11, 96
10, 211990, Control_c, 8, 11, 97
10, 212010, Control_c, 8, 11, 98
10, 212030, Control_c, 8, 11, 99
10, 212040, Note_on_c, 8, 63, 40
10, 212040, Control_c, 8, 11, 100
10, 212060, Control_c, 8, 11, 101
10, 212080, Control_c, 8, 11, 102
10, 212100, Control_c, 8, 11, 103
10, 212120, Control_c, 8, 11, 104
10, 212130, Control_c, 8, 11, 105
10, 212150, Control_c, 8, 11, 106
10, 212170, Control_c, 8, 11, 107
10, 212190, Control_c, 8, 11, 108
10, 212210, Control_c, 8, 11, 109
10, 212220, Control_c, 8, 11, 110
10, 212240, Control_c, 8, 11, 111
10, 212260, Control_c, 8, 11, 112
10, 212280, Note_on_c, 8, 62, 40
10, 212280, Control_c, 8, 11, 113
10, 212300, Control_c, 8, 11, 114
10, 212310, Note_on_c, 8, 63, 0
10, 212310, Control_c, 8, 11, 115
10, 212330, Control_c, 8, 11, 116
10, 212350, Control_c, 8, 11, 117
10, 212370, Control_c, 8, 11, 118
10, 212390, Control_c, 8, 11, 119
10, 212400, Note_on_c, 8, 62, 0
10, 212400, Control_c, 8, 11, 120
10, 212420, Control_c, 8, 11, 119
10, 212440, Control_c, 8, 11, 118
10, 212460, Control_c, 8, 11, 117
10, 212480, Control_c, 8, 11, 116
10, 212490, Control_c, 8, 11, 115
10, 212510, Control_c, 8, 11, 114
10, 212520, Note_on_c, 8, 62, 40
10, 212530, Control_c, 8, 11, 113
10, 212550, Control_c, 8, 11, 112
10, 212560, Control_c, 8, 11, 111
10, 212580, Control_c, 8, 11, 110
10, 212600, Control_c, 8, 11, 109
10, 212620, Control_c, 8, 11, 108
10, 212630, Control_c, 8, 11, 107
10, 212640, Note_on_c, 8, 61, 40
10, 212650, Control_c, 8, 11, 106
10, 212670, Note_on_c, 8, 62, 0
10, 212670, Control_c, 8, 11, 105
10, 212690, Control_c, 8, 11, 104
10, 212700, Control_c, 8, 11, 103
10, 212720, Control_c, 8, 11, 102
10, 212740, Control_c, 8, 11, 101
10, 212760, Note_on_c, 8, 62, 40
10, 212760, Control_c, 8, 11, 100
10, 212770, Control_c, 8, 11, 99
10, 212790, Note_on_c, 8, 61, 0
10, 212790, Control_c, 8, 11, 98
10, 212810, Control_c, 8, 11, 97
10, 212830, Control_c, 8, 11, 96
10, 212840, Control_c, 8, 11, 95
10, 212860, Control_c, 8, 11, 94
10, 212880, Note_on_c, 8, 62, 0
10, 212880, Control_c, 8, 11, 93
10, 212900, Control_c, 8, 11, 92
10, 212910, Control_c, 8, 11, 91
10, 212930, Control_c, 8, 11, 90
10, 212950, Control_c, 8, 11, 89
10, 212970, Control_c, 8, 11, 88
10, 212980, Control_c, 8, 11, 87
10, 213000, Note_on_c, 8, 62, 40
10, 213000, Control_c, 8, 11, 86
10, 213020, Control_c, 8, 11, 85
10, 213040, Control_c, 8, 11, 84
10, 213050, Control_c, 8, 11, 83
10, 213070, Control_c, 8, 11, 82
10, 213090, Control_c, 8, 11, 81
10, 213110, Control_c, 8, 11, 80
10, 213360, Note_on_c, 8, 62, 0
10, 213480, Note_on_c, 8, 62, 40
10, 213840, Note_on_c, 8, 62, 0
10, 213960, Note_on_c, 8, 62, 40
10, 214050, Note_on_c, 8, 62, 0
10, 214080, Note_on_c, 8, 60, 40
10, 215730, Note_on_c, 8, 60, 0
10, 215760, Note_on_c, 8, 71, 40
10, 216000, Note_on_c, 8, 72, 40
10, 216000, Control_c, 8, 11, 80
10, 216030, Note_on_c, 8, 71, 0
10, 216070, Control_c, 8, 11, 81
10, 216140, Control_c, 8, 11, 82
10, 216210, Control_c, 8, 11, 83
10, 216280, Control_c, 8, 11, 84
10, 216350, Control_c, 8, 11, 85
10, 216420, Control_c, 8, 11, 86
10, 216480, Note_on_c, 8, 67, 40
10, 216490, Control_c, 8, 11, 87
10, 216510, Note_on_c, 8, 72, 0
10, 216560, Control_c, 8, 11, 88
10, 216630, Control_c, 8, 11, 89
10, 216700, Control_c, 8, 11, 90
10, 216720, Note_on_c, 8, 70, 40
10, 216750, Note_on_c, 8, 67, 0
10, 216770, Control_c, 8, 11, 91
10, 216840, Control_c, 8, 11, 92
10, 216910, Control_c, 8, 11, 93
10, 216930, Note_on_c, 8, 70, 0
10, 216960, Note_on_c, 8, 68, 40
10, 216980, Control_c, 8, 11, 94
10, 217050, Control_c, 8, 11, 95
10, 217120, Control_c, 8, 11, 96
10, 217190, Control_c, 8, 11, 97
10, 217260, Control_c, 8, 11, 98
10, 217330, Control_c, 8, 11, 99
10, 217400, Control_c, 8, 11, 100
10, 217440, Note_on_c, 8, 67, 40
10, 217470, Note_on_c, 8, 68, 0
10, 217470, Control_c, 8, 11, 101
10, 217540, Control_c, 8, 11, 102
10, 217610, Control_c, 8, 11, 103
10, 217680, Note_on_c, 8, 65, 40
10, 217680, Control_c, 8, 11, 104
10, 217710, Note_on_c, 8, 67, 0
10, 217750, Control_c, 8, 11, 105
10, 217820, Control_c, 8, 11, 106
10, 217890, Note_on_c, 8, 65, 0
10, 217890, Control_c, 8, 11, 107
10, 217920, Note_on_c, 8, 64, 40
10, 217960, Control_c, 8, 11, 108
10, 218030, Control_c, 8, 11, 109
10, 218100, Control_c, 8, 11, 110
10, 218160, Note_on_c, 8, 65, 40
10, 218170, Control_c, 8, 11, 111
10, 218190, Note_on_c, 8, 64, 0
10, 218240, Control_c, 8, 11, 112
10, 218310, Control_c, 8, 11, 113
10, 218380, Control_c, 8, 11, 114
10, 218400, Note_on_c, 8, 67, 40
10, 218430, Note_on_c, 8, 65, 0
10, 218450, Control_c, 8, 11, 115
10, 218520, Control_c, 8, 11, 116
10, 218590, Control_c, 8, 11, 117
10, 218640, Note_on_c, 8, 68, 40
10, 218660, Control_c, 8, 11, 118
10, 218670, Note_on_c, 8, 67, 0
10, 218730, Control_c, 8, 11, 119
10, 218800, Control_c, 8, 11, 120
10, 218850, Note_on_c, 8, 68, 0
10, 218874, Control_c, 8, 11, 80
10, 218880, Note_on_c, 8, 67, 40
10, 218880, Control_c, 8, 11, 80
10, 218910, Control_c, 8, 11, 81
10, 218930, Control_c, 8, 11, 82
10, 218950, Control_c, 8, 11, 83
10, 218980, Control_c, 8, 11, 84
10, 219000, Control_c, 8, 11, 85
10, 219020, Control_c, 8, 11, 86
10, 219050, Control_c, 8, 11, 87
10, 219070, Control_c, 8, 11, 88
10, 219090, Control_c, 8, 11, 89
10, 219110, Control_c, 8, 11, 90
10, 219140, Control_c, 8, 11, 91
10, 219160, Control_c, 8, 11, 92
10, 219180, Control_c, 8, 11, 93
10, 219210, Control_c, 8, 11, 94
10, 219230, Control_c, 8, 11, 95
10, 219250, Control_c, 8, 11, 96
10, 219270, Control_c, 8, 11, 97
10, 219300, Control_c, 8, 11, 98
10, 219320, Control_c, 8, 11, 99
10, 219340, Control_c, 8, 11, 100
10, 219370, Control_c, 8, 11, 101
10, 219390, Control_c, 8, 11, 102
10, 219410, Control_c, 8, 11, 103
10, 219440, Control_c, 8, 11, 104
10, 219460, Control_c, 8, 11, 105
10, 219480, Control_c, 8, 11, 106
10, 219500, Control_c, 8, 11, 107
10, 219530, Control_c, 8, 11, 108
10, 219550, Control_c, 8, 11, 109
10, 219570, Control_c, 8, 11, 110
10, 219600, Control_c, 8, 11, 111
10, 219620, Control_c, 8, 11, 112
10, 219640, Control_c, 8, 11, 113
10, 219660, Control_c, 8, 11, 114
10, 219690, Control_c, 8, 11, 115
10, 219710, Control_c, 8, 11, 116
10, 219730, Control_c, 8, 11, 117
10, 219760, Control_c, 8, 11, 118
10, 219780, Control_c, 8, 11, 119
10, 219800, Control_c, 8, 11, 120
10, 219834, Control_c, 8, 11, 80
10, 219840, Note_on_c, 8, 65, 50
10, 219870, Note_on_c, 8, 67, 0
10, 220080, Note_on_c, 8, 65, 0
10, 220800, Note_on_c, 8, 63, 50
10, 221040, Note_on_c, 8, 63, 0
10, 221760, Note_on_c, 8, 62, 45
10, 222000, Control_c, 8, 11, 80
10, 222030, Control_c, 8, 11, 81
10, 222050, Control_c, 8, 11, 82
10, 222080, Control_c, 8, 11, 83
10, 222100, Control_c, 8, 11, 84
10, 222120, Control_c, 8, 11, 85
10, 222150, Control_c, 8, 11, 86
10, 222170, Control_c, 8, 11, 87
10, 222200, Control_c, 8, 11, 88
10, 222220, Control_c, 8, 11, 89
10, 222240, Control_c, 8, 11, 90
10, 222270, Control_c, 8, 11, 91
10, 222290, Control_c, 8, 11, 92
10, 222320, Control_c, 8, 11, 93
10, 222340, Control_c, 8, 11, 94
10, 222360, Control_c, 8, 11, 95
10, 222390, Control_c, 8, 11, 96
10, 222410, Control_c, 8, 11, 97
10, 222440, Control_c, 8, 11, 98
10, 222460, Control_c, 8, 11, 99
10, 222480, Note_on_c, 8, 65, 50
10, 222480, Control_c, 8, 11, 100
10, 222500, Control_c, 8, 11, 99
10, 222510, Note_on_c, 8, 62, 0
10, 222510, Control_c, 8, 11, 98
10, 222520, Control_c, 8, 11, 97
10, 222530, Control_c, 8, 11, 96
10, 222540, Control_c, 8, 11, 95
10, 222550, Control_c, 8, 11, 94
10, 222560, Control_c, 8, 11, 93
10, 222580, Control_c, 8, 11, 92
10, 222590, Control_c, 8, 11, 91
10, 222600, Note_on_c, 8, 63, 50
10, 222600, Control_c, 8, 11, 90
10, 222610, Control_c, 8, 11, 89
10, 222620, Control_c, 8, 11, 88
10, 222630, Note_on_c, 8, 65, 0
10, 222630, Control_c, 8, 11, 87
10, 222640, Control_c, 8, 11, 86
10, 222660, Control_c, 8, 11, 85
10, 222670, Control_c, 8, 11, 84
10, 222680, Control_c, 8, 11, 83
10, 222690, Note_on_c, 8, 63, 0
10, 222690, Control_c, 8, 11, 82
10, 222700, Control_c, 8, 11, 81
10, 222710, Control_c, 8, 11, 80
10, 222720, Note_on_c, 8, 60, 55
10, 223020, Note_on_c, 8, 60, 0
10, 223040, Note_on_c, 8, 72, 55
10, 223120, Note_on_c, 8, 71, 55
10, 223130, Note_on_c, 8, 72, 0
10, 223180, Note_on_c, 8, 71, 0
10, 223200, Note_on_c, 8, 74, 55
10, 223280, Note_on_c, 8, 72, 55
10, 223290, Note_on_c, 8, 74, 0
10, 223340, Note_on_c, 8, 72, 0
10, 223360, Note_on_c, 8, 75, 55
10, 223405, Note_on_c, 8, 75, 0
10, 223440, Note_on_c, 8, 72, 55
10, 223485, Note_on_c, 8, 72, 0
10, 223520, Note_on_c, 8, 67, 55
10, 223565, Note_on_c, 8, 67, 0
10, 223600, Note_on_c, 8, 63, 55
10, 223645, Note_on_c, 8, 63, 0
10, 223680, Note_on_c, 8, 62, 50
10, 223920, Control_c, 8, 11, 80
10, 223950, Control_c, 8, 11, 81
10, 223970, Control_c, 8, 11, 82
10, 224000, Control_c, 8, 11, 83
10, 224020, Control_c, 8, 11, 84
10, 224040, Control_c, 8, 11, 85
10, 224070, Control_c, 8, 11, 86
10, 224090, Control_c, 8, 11, 87
10, 224120, Control_c, 8, 11, 88
10, 224140, Control_c, 8, 11, 89
10, 224160, Control_c, 8, 11, 90
10, 224190, Control_c, 8, 11, 91
10, 224210, Control_c, 8, 11, 92
10, 224240, Control_c, 8, 11, 93
10, 224260, Control_c, 8, 11, 94
10, 224280, Control_c, 8, 11, 95
10, 224310, Control_c, 8, 11, 96
10, 224330, Control_c, 8, 11, 97
10, 224360, Control_c, 8, 11, 98
10, 224380, Control_c, 8, 11, 99
10, 224400, Note_on_c, 8, 65, 50
10, 224400, Control_c, 8, 11, 100
10, 224420, Control_c, 8, 11, 99
10, 224430, Note_on_c, 8, 62, 0
10, 224430, Control_c, 8, 11, 98
10, 224440, Control_c, 8, 11, 97
10, 224450, Control_c, 8, 11, 96
10, 224460, Control_c, 8, 11, 95
10, 224470, Control_c, 8, 11, 94
10, 224480, Control_c, 8, 11, 93
10, 224500, Control_c, 8, 11, 92
10, 224510, Control_c, 8, 11, 91
10, 224520, Note_on_c, 8, 63, 50
10, 224520, Control_c, 8, 11, 90
10, 224530, Control_c, 8, 11, 89
10, 224540, Control_c, 8, 11, 88
10, 224550, Note_on_c, 8, 65, 0
10, 224550, Control_c, 8, 11, 87
10, 224560, Control_c, 8, 11, 86
10, 224580, Control_c, 8, 11, 85
10, 224590, Control_c, 8, 11, 84
10, 224600, Control_c, 8, 11, 83
10, 224610, Note_on_c, 8, 63, 0
10, 224610, Control_c, 8, 11, 82
10, 224620, Control_c, 8, 11, 81
10, 224630, Control_c, 8, 11, 80
10, 224640, Note_on_c, 8, 60, 55
10, 224700, Note_on_c, 8, 60, 0
10, 224720, Note_on_c, 8, 72, 55
10, 224800, Note_on_c, 8, 71, 55
10, 224810, Note_on_c, 8, 72, 0
10, 224860, Note_on_c, 8, 71, 0
10, 224880, Note_on_c, 8, 74, 55
10, 224960, Note_on_c, 8, 72, 55
10, 224970, Note_on_c, 8, 74, 0
10, 225020, Note_on_c, 8, 72, 0
10, 225040, Note_on_c, 8, 75, 55
10, 225085, Note_on_c, 8, 75, 0
10, 225120, Note_on_c, 8, 72, 55
10, 225165, Note_on_c, 8, 72, 0
10, 225200, Note_on_c, 8, 79, 1
10, 225245, Note_on_c, 8, 79, 0
10, 225280, Note_on_c, 8, 75, 55
10, 225325, Note_on_c, 8, 75, 0
10, 225360, Note_on_c, 8, 72, 55
10, 225405, Note_on_c, 8, 72, 0
10, 225440, Note_on_c, 8, 67, 55
10, 225485, Note_on_c, 8, 67, 0
10, 225520, Note_on_c, 8, 63, 55
10, 225565, Note_on_c, 8, 63, 0
10, 225600, Note_on_c, 8, 62, 55
10, 225900, Note_on_c, 8, 62, 0
10, 225920, Note_on_c, 8, 65, 55
10, 226000, Note_on_c, 8, 63, 55
10, 226010, Note_on_c, 8, 65, 0
10, 226060, Note_on_c, 8, 63, 0
10, 226080, Note_on_c, 8, 62, 55
10, 226125, Note_on_c, 8, 62, 0
10, 226160, Note_on_c, 8, 68, 55
10, 226240, Note_on_c, 8, 67, 55
10, 226250, Note_on_c, 8, 68, 0
10, 226300, Note_on_c, 8, 67, 0
10, 226320, Note_on_c, 8, 65, 55
10, 226365, Note_on_c, 8, 65, 0
10, 226400, Note_on_c, 8, 74, 55
10, 226480, Note_on_c, 8, 72, 55
10, 226490, Note_on_c, 8, 74, 0
10, 226540, Note_on_c, 8, 72, 0
10, 226560, Note_on_c, 8, 71, 55
10, 226560, Control_c, 8, 11, 80
10, 226590, Control_c, 8, 11, 81
10, 226605, Note_on_c, 8, 71, 0
10, 226610, Control_c, 8, 11, 82
10, 226630, Control_c, 8, 11, 83
10, 226640, Note_on_c, 8, 77, 55
10, 226650, Control_c, 8, 11, 84
10, 226670, Control_c, 8, 11, 85
10, 226690, Control_c, 8, 11, 86
10, 226710, Control_c, 8, 11, 87
10, 226720, Note_on_c, 8, 75, 55
10, 226730, Note_on_c, 8, 77, 0
10, 226730, Control_c, 8, 11, 88
10, 226750, Control_c, 8, 11, 89
10, 226770, Control_c, 8, 11, 90
10, 226780, Note_on_c, 8, 75, 0
10, 226790, Control_c, 8, 11, 91
10, 226800, Note_on_c, 8, 74, 54
10, 226810, Control_c, 8, 11, 92
10, 226830, Control_c, 8, 11, 93
10, 226845, Note_on_c, 8, 74, 0
10, 226850, Control_c, 8, 11, 94
10, 226870, Control_c, 8, 11, 95
10, 226880, Note_on_c, 8, 80, 54
10, 226890, Control_c, 8, 11, 96
10, 226910, Control_c, 8, 11, 97
10, 226930, Control_c, 8, 11, 98
10, 226950, Control_c, 8, 11, 99
10, 226960, Note_on_c, 8, 79, 53
10, 226970, Note_on_c, 8, 80, 0
10, 226970, Control_c, 8, 11, 100
10, 226990, Control_c, 8, 11, 101
10, 227010, Control_c, 8, 11, 102
10, 227020, Note_on_c, 8, 79, 0
10, 227030, Control_c, 8, 11, 103
10, 227040, Note_on_c, 8, 77, 53
10, 227060, Control_c, 8, 11, 104
10, 227080, Control_c, 8, 11, 105
10, 227085, Note_on_c, 8, 77, 0
10, 227100, Control_c, 8, 11, 106
10, 227120, Note_on_c, 8, 77, 53
10, 227120, Control_c, 8, 11, 107
10, 227140, Control_c, 8, 11, 108
10, 227160, Control_c, 8, 11, 109
10, 227180, Control_c, 8, 11, 110
10, 227200, Note_on_c, 8, 75, 52
10, 227200, Control_c, 8, 11, 111
10, 227210, Note_on_c, 8, 77, 0
10, 227220, Control_c, 8, 11, 112
10, 227240, Control_c, 8, 11, 113
10, 227260, Note_on_c, 8, 75, 0
10, 227260, Control_c, 8, 11, 114
10, 227280, Note_on_c, 8, 74, 52
10, 227280, Control_c, 8, 11, 115
10, 227300, Control_c, 8, 11, 116
10, 227320, Control_c, 8, 11, 117
10, 227325, Note_on_c, 8, 74, 0
10, 227340, Control_c, 8, 11, 118
10, 227360, Note_on_c, 8, 77, 51
10, 227360, Control_c, 8, 11, 119
10, 227380, Control_c, 8, 11, 120
10, 227400, Control_c, 8, 11, 121
10, 227420, Control_c, 8, 11, 122
10, 227440, Note_on_c, 8, 75, 51
10, 227440, Control_c, 8, 11, 123
10, 227450, Note_on_c, 8, 77, 0
10, 227460, Control_c, 8, 11, 124
10, 227480, Control_c, 8, 11, 125
10, 227500, Note_on_c, 8, 75, 0
10, 227500, Control_c, 8, 11, 126
10, 227520, Note_on_c, 8, 74, 50
10, 227520, Control_c, 8, 11, 127
10, 227540, Control_c, 8, 11, 126
10, 227560, Control_c, 8, 11, 125
10, 227580, Note_on_c, 8, 74, 0
10, 227580, Control_c, 8, 11, 124
10, 227600, Control_c, 8, 11, 123
10, 227620, Control_c, 8, 11, 122
10, 227640, Note_on_c, 8, 72, 50
10, 227640, Control_c, 8, 11, 121
10, 227660, Control_c, 8, 11, 120
10, 227680, Control_c, 8, 11, 119
10, 227700, Note_on_c, 8, 72, 0
10, 227700, Control_c, 8, 11, 118
10, 227720, Control_c, 8, 11, 117
10, 227740, Control_c, 8, 11, 116
10, 227760, Note_on_c, 8, 71, 50
10, 227760, Control_c, 8, 11, 115
10, 227780, Control_c, 8, 11, 114
10, 227800, Control_c, 8, 11, 113
10, 227820, Note_on_c, 8, 71, 0
10, 227820, Control_c, 8, 11, 112
10, 227840, Control_c, 8, 11, 111
10, 227860, Control_c, 8, 11, 110
10, 227880, Note_on_c, 8, 68, 50
10, 227880, Control_c, 8, 11, 109
10, 227900, Control_c, 8, 11, 108
10, 227920, Control_c, 8, 11, 107
10, 227940, Note_on_c, 8, 68, 0
10, 227940, Control_c, 8, 11, 106
10, 227960, Control_c, 8, 11, 105
10, 227980, Control_c, 8, 11, 104
10, 228000, Note_on_c, 8, 67, 50
10, 228000, Control_c, 8, 11, 103
10, 228020, Control_c, 8, 11, 102
10, 228040, Control_c, 8, 11, 101
10, 228060, Note_on_c, 8, 67, 0
10, 228060, Control_c, 8, 11, 100
10, 228080, Control_c, 8, 11, 99
10, 228100, Control_c, 8, 11, 98
10, 228120, Note_on_c, 8, 65, 50
10, 228120, Control_c, 8, 11, 97
10, 228140, Control_c, 8, 11, 96
10, 228160, Control_c, 8, 11, 95
10, 228180, Note_on_c, 8, 65, 0
10, 228180, Control_c, 8, 11, 94
10, 228200, Control_c, 8, 11, 93
10, 228220, Control_c, 8, 11, 92
10, 228240, Note_on_c, 8, 63, 50
10, 228240, Control_c, 8, 11, 91
10, 228260, Control_c, 8, 11, 90
10, 228280, Control_c, 8, 11, 89
10, 228300, Note_on_c, 8, 63, 0
10, 228300, Control_c, 8, 11, 88
10, 228320, Control_c, 8, 11, 87
10, 228340, Control_c, 8, 11, 86
10, 228360, Note_on_c, 8, 62, 50
10, 228360, Control_c, 8, 11, 85
10, 228380, Control_c, 8, 11, 84
10, 228400, Control_c, 8, 11, 83
10, 228420, Note_on_c, 8, 62, 0
10, 228420, Control_c, 8, 11, 82
10, 228440, Control_c, 8, 11, 81
10, 228460, Control_c, 8, 11, 80
10, 228960, Note_on_c, 8, 60, 50
10, 229410, Note_on_c, 8, 60, 0
10, 229440, Note_on_c, 8, 62, 50
10, 229470, Note_on_c, 8, 60, 50
10, 229470, Note_on_c, 8, 62, 0
10, 229620, Note_on_c, 8, 59, 50
10, 229650, Note_on_c, 8, 60, 0
10, 229680, Note_on_c, 8, 60, 50
10, 229710, Note_on_c, 8, 59, 0
10, 229860, Note_on_c, 8, 62, 50
10, 229890, Note_on_c, 8, 60, 0
10, 229920, Note_on_c, 8, 62, 0
10, 230400, Note_on_c, 8, 63, 50
10, 230640, Note_on_c, 8, 60, 50
10, 230670, Note_on_c, 8, 63, 0
10, 230850, Note_on_c, 8, 60, 0
10, 231000, Note_on_c, 8, 67, 49
10, 231060, Note_on_c, 8, 67, 0
10, 231120, Note_on_c, 8, 65, 49
10, 231180, Note_on_c, 8, 65, 0
10, 231240, Note_on_c, 8, 63, 49
10, 231300, Note_on_c, 8, 63, 0
10, 231360, Note_on_c, 8, 62, 49
10, 231420, Note_on_c, 8, 62, 0
10, 231480, Note_on_c, 8, 60, 48
10, 231540, Note_on_c, 8, 60, 0
10, 231600, Note_on_c, 8, 63, 48
10, 231660, Note_on_c, 8, 62, 48
10, 231675, Note_on_c, 8, 63, 0
10, 231720, Note_on_c, 8, 62, 0
10, 231960, Note_on_c, 8, 63, 47
10, 232020, Note_on_c, 8, 63, 0
10, 232080, Note_on_c, 8, 65, 47
10, 232140, Note_on_c, 8, 65, 0
10, 232200, Note_on_c, 8, 67, 47
10, 232260, Note_on_c, 8, 67, 0
10, 232560, Note_on_c, 8, 68, 46
10, 233040, Note_on_c, 8, 67, 45
10, 233070, Note_on_c, 8, 68, 0
10, 233160, Note_on_c, 8, 65, 45
10, 233190, Note_on_c, 8, 67, 0
10, 233250, Note_on_c, 8, 65, 0
10, 233760, Note_on_c, 8, 65, 44
10, 233880, Note_on_c, 8, 63, 44
10, 233910, Note_on_c, 8, 65, 0
10, 233970, Note_on_c, 8, 63, 0
10, 234000, Note_on_c, 8, 65, 43
10, 234060, Note_on_c, 8, 65, 0
10, 234120, Note_on_c, 8, 62, 43
10, 234180, Note_on_c, 8, 62, 0
10, 234840, Note_on_c, 8, 60, 42
10, 234930, Note_on_c, 8, 60, 0
10, 234960, Note_on_c, 8, 62, 41
10, 235050, Note_on_c, 8, 62, 0
10, 235080, Note_on_c, 8, 59, 41
10, 235170, Note_on_c, 8, 59, 0
10, 235440, Note_on_c, 8, 60, 40
10, 235680, Note_on_c, 8, 60, 0
10, 235920, Note_on_c, 8, 60, 40
10, 236010, Note_on_c, 8, 60, 0
10, 236040, Note_on_c, 8, 60, 40
10, 236130, Note_on_c, 8, 60, 0
10, 236160, Note_on_c, 8, 60, 40
10, 236400, Note_on_c, 8, 60, 0
10, 236640, Note_on_c, 8, 55, 65
10, 236640, Note_on_c, 8, 63, 65
10, 236640, Note_on_c, 8, 72, 65
10, 236880, Note_on_c, 8, 55, 0
10, 236880, Note_on_c, 8, 63, 0
10, 236880, Note_on_c, 8, 72, 0
10, 237120, Note_on_c, 8, 60, 45
10, 237360, Control_c, 8, 11, 80
10, 237370, Control_c, 8, 11, 79
10, 237380, Control_c, 8, 11, 78
10, 237390, Control_c, 8, 11, 77
10, 237400, Control_c, 8, 11, 76
10, 237410, Control_c, 8, 11, 75
10, 237420, Control_c, 8, 11, 74
10, 237430, Control_c, 8, 11, 73
10, 237440, Control_c, 8, 11, 72
10, 237450, Control_c, 8, 11, 71
10, 237460, Control_c, 8, 11, 70
10, 237470, Control_c, 8, 11, 69
10, 237480, Control_c, 8, 11, 67
10, 237490, Control_c, 8, 11, 66
10, 237500, Control_c, 8, 11, 65
10, 237510, Control_c, 8, 11, 64
10, 237520, Control_c, 8, 11, 63
10, 237530, Control_c, 8, 11, 62
10, 237540, Control_c, 8, 11, 61
10, 237550, Control_c, 8, 11, 60
10, 237560, Control_c, 8, 11, 59
10, 237570, Control_c, 8, 11, 58
10, 237580, Control_c, 8, 11, 57
10, 237590, Control_c, 8, 11, 56
10, 237600, Control_c, 8, 11, 54
10, 237610, Control_c, 8, 11, 53
10, 237620, Control_c, 8, 11, 52
10, 237630, Control_c, 8, 11, 51
10, 237640, Control_c, 8, 11, 50
10, 237650, Control_c, 8, 11, 49
10, 237660, Control_c, 8, 11, 48
10, 237670, Control_c, 8, 11, 47
10, 237680, Control_c, 8, 11, 46
10, 237690, Control_c, 8, 11, 45
10, 237700, Control_c, 8, 11, 44
10, 237710, Control_c, 8, 11, 43
10, 237720, Control_c, 8, 11, 41
10, 237730, Control_c, 8, 11, 40
10, 237740, Control_c, 8, 11, 39
10, 237750, Control_c, 8, 11, 38
10, 237760, Control_c, 8, 11, 37
10, 237770, Control_c, 8, 11, 36
10, 237780, Control_c, 8, 11, 35
10, 237790, Control_c, 8, 11, 34
10, 237800, Control_c, 8, 11, 33
10, 237810, Control_c, 8, 11, 32
10, 237820, Control_c, 8, 11, 31
10, 237830, Control_c, 8, 11, 30
10, 237840, Note_on_c, 8, 60, 0
10, 237840, End_track
11, 0, Start_track
11, 0, Channel_prefix, 10
11, 0, Title_t, "Violin II"
11, 0, Instrument_name_t, "Violino II"
11, 1920, Note_on_c, 10, 55, 50
11, 2400, Note_on_c, 10, 55, 0
11, 2880, Note_on_c, 10, 55, 50
11, 3360, Note_on_c, 10, 55, 0
11, 3360, Note_on_c, 10, 55, 50
11, 3840, Note_on_c, 10, 55, 0
11, 3840, Note_on_c, 10, 55, 50
11, 4080, Note_on_c, 10, 66, 50
11, 4110, Note_on_c, 10, 55, 0
11, 4320, Note_on_c, 10, 67, 50
11, 4350, Note_on_c, 10, 66, 0
11, 4530, Note_on_c, 10, 67, 0
11, 4800, Note_on_c, 10, 59, 50
11, 5250, Note_on_c, 10, 59, 0
11, 5760, Note_on_c, 10, 56, 50
11, 5760, Control_c, 10, 11, 80
11, 5770, Control_c, 10, 11, 82
11, 5780, Control_c, 10, 11, 85
11, 5790, Control_c, 10, 11, 87
11, 5800, Control_c, 10, 11, 90
11, 5810, Control_c, 10, 11, 92
11, 5820, Control_c, 10, 11, 95
11, 5830, Control_c, 10, 11, 97
11, 5840, Control_c, 10, 11, 100
11, 5850, Control_c, 10, 11, 102
11, 5860, Control_c, 10, 11, 105
11, 5870, Control_c, 10, 11, 107
11, 5880, Control_c, 10, 11, 110
11, 5900, Control_c, 10, 11, 109
11, 5910, Control_c, 10, 11, 109
11, 5920, Control_c, 10, 11, 108
11, 5930, Control_c, 10, 11, 108
11, 5950, Control_c, 10, 11, 107
11, 5960, Control_c, 10, 11, 106
11, 5970, Control_c, 10, 11, 106
11, 5980, Control_c, 10, 11, 105
11, 5990, Control_c, 10, 11, 105
11, 6010, Control_c, 10, 11, 104
11, 6020, Control_c, 10, 11, 103
11, 6030, Control_c, 10, 11, 103
11, 6040, Control_c, 10, 11, 102
11, 6050, Control_c, 10, 11, 102
11, 6070, Control_c, 10, 11, 100
11, 6080, Control_c, 10, 11, 100
11, 6090, Control_c, 10, 11, 99
11, 6100, Control_c, 10, 11, 99
11, 6120, Control_c, 10, 11, 98
11, 6130, Control_c, 10, 11, 97
11, 6140, Control_c, 10, 11, 97
11, 6150, Control_c, 10, 11, 96
11, 6160, Control_c, 10, 11, 96
11, 6180, Control_c, 10, 11, 95
11, 6190, Control_c, 10, 11, 94
11, 6200, Control_c, 10, 11, 94
11, 6210, Control_c, 10, 11, 93
11, 6220, Control_c, 10, 11, 93
11, 6240, Control_c, 10, 11, 92
11, 6250, Control_c, 10, 11, 91
11, 6260, Control_c, 10, 11, 90
11, 6270, Control_c, 10, 11, 90
11, 6290, Control_c, 10, 11, 89
11, 6300, Control_c, 10, 11, 88
11, 6310, Control_c, 10, 11, 88
11, 6320, Control_c, 10, 11, 87
11, 6330, Control_c, 10, 11, 87
11, 6350, Control_c, 10, 11, 86
11, 6360, Control_c, 10, 11, 85
11, 6370, Control_c, 10, 11, 85
11, 6380, Control_c, 10, 11, 84
11, 6390, Control_c, 10, 11, 84
11, 6410, Control_c, 10, 11, 83
11, 6420, Control_c, 10, 11, 82
11, 6430, Control_c, 10, 11, 81
11, 6440, Control_c, 10, 11, 80
11, 6480, Note_on_c, 10, 55, 50
11, 6510, Note_on_c, 10, 56, 0
11, 6690, Note_on_c, 10, 55, 0
11, 6720, Note_on_c, 10, 55, 50
11, 6960, Note_on_c, 10, 56, 50
11, 6990, Note_on_c, 10, 55, 0
11, 7170, Note_on_c, 10, 56, 0
11, 7200, Note_on_c, 10, 55, 50
11, 7410, Note_on_c, 10, 55, 0
11, 7440, Note_on_c, 10, 55, 50
11, 7650, Note_on_c, 10, 55, 0
11, 7680, Note_on_c, 10, 55, 50
11, 7860, Note_on_c, 10, 55, 0
11, 7920, Note_on_c, 10, 56, 50
11, 8070, Note_on_c, 10, 56, 0
11, 8100, Note_on_c, 10, 56, 50
11, 8154, Note_on_c, 10, 56, 0
11, 8160, Note_on_c, 10, 55, 50
11, 8340, Note_on_c, 10, 55, 0
11, 8520, Note_on_c, 10, 60, 50
11, 8550, Note_on_c, 10, 60, 0
11, 8560, Note_on_c, 10, 60, 50
11, 8590, Note_on_c, 10, 60, 0
11, 8600, Note_on_c, 10, 60, 50
11, 8630, Note_on_c, 10, 60, 0
11, 8640, Note_on_c, 10, 60, 50
11, 8880, Note_on_c, 10, 60, 0
11, 9480, Note_on_c, 10, 60, 50
11, 9510, Note_on_c, 10, 60, 0
11, 9520, Note_on_c, 10, 60, 50
11, 9550, Note_on_c, 10, 60, 0
11, 9560, Note_on_c, 10, 60, 50
11, 9590, Note_on_c, 10, 60, 0
11, 9600, Note_on_c, 10, 60, 50
11, 9840, Note_on_c, 10, 60, 0
11, 10440, Note_on_c, 10, 60, 50
11, 10470, Note_on_c, 10, 60, 0
11, 10480, Note_on_c, 10, 60, 50
11, 10510, Note_on_c, 10, 60, 0
11, 10520, Note_on_c, 10, 60, 50
11, 10550, Note_on_c, 10, 60, 0
11, 10560, Note_on_c, 10, 60, 50
11, 10800, Note_on_c, 10, 60, 0
11, 10920, Note_on_c, 10, 60, 50
11, 10950, Note_on_c, 10, 60, 0
11, 10960, Note_on_c, 10, 60, 50
11, 10990, Note_on_c, 10, 60, 0
11, 11000, Note_on_c, 10, 60, 50
11, 11030, Note_on_c, 10, 60, 0
11, 11040, Note_on_c, 10, 60, 50
11, 11280, Note_on_c, 10, 60, 0
11, 11400, Note_on_c, 10, 60, 50
11, 11430, Note_on_c, 10, 60, 0
11, 11440, Note_on_c, 10, 60, 50
11, 11470, Note_on_c, 10, 60, 0
11, 11480, Note_on_c, 10, 60, 50
11, 11510, Note_on_c, 10, 60, 0
11, 11520, Note_on_c, 10, 63, 50
11, 11520, Control_c, 10, 11, 80
11, 11540, Control_c, 10, 11, 81
11, 11560, Control_c, 10, 11, 82
11, 11570, Control_c, 10, 11, 83
11, 11590, Control_c, 10, 11, 84
11, 11600, Control_c, 10, 11, 85
11, 11620, Control_c, 10, 11, 86
11, 11640, Control_c, 10, 11, 87
11, 11650, Control_c, 10, 11, 88
11, 11670, Control_c, 10, 11, 89
11, 11680, Control_c, 10, 11, 90
11, 11700, Control_c, 10, 11, 91
11, 11720, Control_c, 10, 11, 92
11, 11730, Control_c, 10, 11, 93
11, 11750, Control_c, 10, 11, 94
11, 11760, Note_on_c, 10, 63, 0
11, 11760, Control_c, 10, 11, 95
11, 11780, Control_c, 10, 11, 96
11, 11800, Control_c, 10, 11, 97
11, 11810, Control_c, 10, 11, 98
11, 11830, Control_c, 10, 11, 99
11, 11840, Control_c, 10, 11, 100
11, 11860, Control_c, 10, 11, 101
11, 11880, Note_on_c, 10, 66, 50
11, 11880, Control_c, 10, 11, 102
11, 11890, Control_c, 10, 11, 103
11, 11910, Note_on_c, 10, 66, 0
11, 11910, Control_c, 10, 11, 104
11, 11920, Note_on_c, 10, 66, 50
11, 11920, Control_c, 10, 11, 105
11, 11940, Control_c, 10, 11, 106
11, 11950, Note_on_c, 10, 66, 0
11, 11960, Note_on_c, 10, 66, 50
11, 11960, Control_c, 10, 11, 107
11, 11970, Control_c, 10, 11, 108
11, 11990, Note_on_c, 10, 66, 0
11, 11990, Control_c, 10, 11, 109
11, 12000, Note_on_c, 10, 67, 50
11, 12000, Control_c, 10, 11, 110
11, 12010, Control_c, 10, 11, 109
11, 12020, Control_c, 10, 11, 108
11, 12030, Control_c, 10, 11, 107
11, 12040, Control_c, 10, 11, 105
11, 12050, Control_c, 10, 11, 104
11, 12060, Control_c, 10, 11, 103
11, 12070, Control_c, 10, 11, 102
11, 12080, Control_c, 10, 11, 100
11, 12090, Control_c, 10, 11, 99
11, 12100, Control_c, 10, 11, 98
11, 12110, Control_c, 10, 11, 97
11, 12120, Control_c, 10, 11, 95
11, 12130, Control_c, 10, 11, 94
11, 12140, Control_c, 10, 11, 93
11, 12150, Control_c, 10, 11, 92
11, 12160, Control_c, 10, 11, 90
11, 12170, Control_c, 10, 11, 89
11, 12180, Control_c, 10, 11, 88
11, 12190, Control_c, 10, 11, 87
11, 12200, Control_c, 10, 11, 85
11, 12210, Control_c, 10, 11, 84
11, 12220, Control_c, 10, 11, 83
11, 12230, Control_c, 10, 11, 80
11, 12240, Note_on_c, 10, 67, 0
11, 12360, Note_on_c, 10, 59, 50
11, 12390, Note_on_c, 10, 59, 0
11, 12400, Note_on_c, 10, 59, 50
11, 12430, Note_on_c, 10, 59, 0
11, 12440, Note_on_c, 10, 59, 50
11, 12470, Note_on_c, 10, 59, 0
11, 12480, Note_on_c, 10, 59, 50
11, 12720, Note_on_c, 10, 59, 0
11, 13320, Note_on_c, 10, 62, 50
11, 13350, Note_on_c, 10, 62, 0
11, 13360, Note_on_c, 10, 62, 50
11, 13390, Note_on_c, 10, 62, 0
11, 13400, Note_on_c, 10, 62, 50
11, 13430, Note_on_c, 10, 62, 0
11, 13440, Note_on_c, 10, 62, 50
11, 13440, Control_c, 10, 11, 80
11, 13480, Control_c, 10, 11, 81
11, 13520, Control_c, 10, 11, 82
11, 13560, Control_c, 10, 11, 83
11, 13600, Control_c, 10, 11, 84
11, 13640, Control_c, 10, 11, 85
11, 13680, Note_on_c, 10, 62, 0
11, 13680, Control_c, 10, 11, 86
11, 13720, Control_c, 10, 11, 87
11, 13760, Control_c, 10, 11, 88
11, 13800, Control_c, 10, 11, 89
11, 13840, Control_c, 10, 11, 90
11, 13880, Control_c, 10, 11, 91
11, 13920, Control_c, 10, 11, 92
11, 13960, Control_c, 10, 11, 93
11, 14000, Control_c, 10, 11, 94
11, 14040, Control_c, 10, 11, 95
11, 14080, Control_c, 10, 11, 96
11, 14120, Control_c, 10, 11, 97
11, 14160, Control_c, 10, 11, 98
11, 14200, Control_c, 10, 11, 99
11, 14240, Control_c, 10, 11, 100
11, 14280, Note_on_c, 10, 65, 50
11, 14280, Control_c, 10, 11, 101
11, 14310, Note_on_c, 10, 65, 0
11, 14320, Note_on_c, 10, 65, 50
11, 14320, Control_c, 10, 11, 102
11, 14350, Note_on_c, 10, 65, 0
11, 14360, Note_on_c, 10, 65, 50
11, 14360, Control_c, 10, 11, 103
11, 14390, Note_on_c, 10, 65, 0
11, 14400, Note_on_c, 10, 65, 50
11, 14400, Control_c, 10, 11, 104
11, 14440, Control_c, 10, 11, 105
11, 14480, Control_c, 10, 11, 106
11, 14520, Control_c, 10, 11, 107
11, 14560, Control_c, 10, 11, 108
11, 14600, Control_c, 10, 11, 109
11, 14640, Note_on_c, 10, 65, 0
11, 14640, Control_c, 10, 11, 110
11, 14670, Control_c, 10, 11, 109
11, 14690, Control_c, 10, 11, 108
11, 14720, Control_c, 10, 11, 107
11, 14740, Control_c, 10, 11, 106
11, 14760, Note_on_c, 10, 65, 50
11, 14760, Control_c, 10, 11, 105
11, 14790, Note_on_c, 10, 65, 0
11, 14790, Control_c, 10, 11, 104
11, 14800, Note_on_c, 10, 65, 50
11, 14810, Control_c, 10, 11, 103
11, 14830, Note_on_c, 10, 65, 0
11, 14840, Note_on_c, 10, 65, 50
11, 14840, Control_c, 10, 11, 102
11, 14860, Control_c, 10, 11, 101
11, 14870, Note_on_c, 10, 65, 0
11, 14880, Note_on_c, 10, 63, 50
11, 14880, Control_c, 10, 11, 100
11, 14910, Control_c, 10, 11, 99
11, 14930, Control_c, 10, 11, 98
11, 14960, Control_c, 10, 11, 97
11, 14980, Control_c, 10, 11, 96
11, 15000, Control_c, 10, 11, 95
11, 15030, Control_c, 10, 11, 94
11, 15050, Control_c, 10, 11, 93
11, 15080, Control_c, 10, 11, 92
11, 15100, Control_c, 10, 11, 91
11, 15120, Note_on_c, 10, 63, 0
11, 15120, Control_c, 10, 11, 90
11, 15150, Control_c, 10, 11, 89
11, 15170, Control_c, 10, 11, 88
11, 15200, Control_c, 10, 11, 87
11, 15220, Control_c, 10, 11, 86
11, 15240, Note_on_c, 10, 65, 50
11, 15240, Control_c, 10, 11, 85
11, 15270, Note_on_c, 10, 65, 0
11, 15270, Control_c, 10, 11, 84
11, 15280, Note_on_c, 10, 65, 50
11, 15290, Control_c, 10, 11, 83
11, 15310, Note_on_c, 10, 65, 0
11, 15320, Note_on_c, 10, 65, 50
11, 15320, Control_c, 10, 11, 82
11, 15340, Control_c, 10, 11, 80
11, 15350, Note_on_c, 10, 65, 0
11, 15360, Note_on_c, 10, 63, 50
11, 15600, Note_on_c, 10, 63, 0
11, 16320, Note_on_c, 10, 58, 50
11, 16800, Note_on_c, 10, 56, 50
11, 16820, Note_on_c, 10, 58, 0
11, 17040, Note_on_c, 10, 55, 50
11, 17056, Note_on_c, 10, 56, 0
11, 17265, Note_on_c, 10, 55, 0
11, 17280, Note_on_c, 10, 56, 50
11, 17599, Note_on_c, 10, 56, 0
11, 17760, Control_c, 10, 11, 80
11, 17800, Control_c, 10, 11, 81
11, 17830, Control_c, 10, 11, 82
11, 17860, Control_c, 10, 11, 83
11, 17890, Control_c, 10, 11, 84
11, 17920, Control_c, 10, 11, 85
11, 17950, Control_c, 10, 11, 86
11, 17980, Control_c, 10, 11, 87
11, 18010, Control_c, 10, 11, 88
11, 18040, Control_c, 10, 11, 89
11, 18070, Control_c, 10, 11, 90
11, 18100, Control_c, 10, 11, 91
11, 18140, Control_c, 10, 11, 92
11, 18170, Control_c, 10, 11, 93
11, 18200, Control_c, 10, 11, 94
11, 18230, Control_c, 10, 11, 95
11, 18240, Note_on_c, 10, 63, 50
11, 18260, Control_c, 10, 11, 96
11, 18290, Control_c, 10, 11, 97
11, 18320, Control_c, 10, 11, 98
11, 18350, Control_c, 10, 11, 99
11, 18380, Control_c, 10, 11, 100
11, 18410, Control_c, 10, 11, 101
11, 18440, Control_c, 10, 11, 102
11, 18470, Control_c, 10, 11, 103
11, 18510, Control_c, 10, 11, 104
11, 18540, Control_c, 10, 11, 105
11, 18570, Control_c, 10, 11, 106
11, 18600, Control_c, 10, 11, 107
11, 18630, Control_c, 10, 11, 108
11, 18660, Control_c, 10, 11, 109
11, 18690, Control_c, 10, 11, 110
11, 18720, Note_on_c, 10, 62, 50
11, 18720, Control_c, 10, 11, 111
11, 18740, Note_on_c, 10, 63, 0
11, 18750, Control_c, 10, 11, 112
11, 18780, Control_c, 10, 11, 113
11, 18810, Control_c, 10, 11, 114
11, 18840, Control_c, 10, 11, 115
11, 18880, Control_c, 10, 11, 116
11, 18910, Control_c, 10, 11, 117
11, 18940, Control_c, 10, 11, 118
11, 18960, Note_on_c, 10, 60, 50
11, 18970, Control_c, 10, 11, 119
11, 18976, Note_on_c, 10, 62, 0
11, 19000, Control_c, 10, 11, 120
11, 19030, Control_c, 10, 11, 121
11, 19060, Control_c, 10, 11, 122
11, 19090, Control_c, 10, 11, 123
11, 19120, Control_c, 10, 11, 124
11, 19150, Control_c, 10, 11, 125
11, 19180, Control_c, 10, 11, 126
11, 19185, Note_on_c, 10, 60, 0
11, 19200, Note_on_c, 10, 58, 50
11, 19460, Note_on_c, 10, 58, 0
11, 19620, Note_on_c, 10, 67, 60
11, 19650, Note_on_c, 10, 67, 0
11, 19680, Note_on_c, 10, 67, 60
11, 20210, Note_on_c, 10, 67, 0
11, 20610, Control_c, 10, 11, 80
11, 20640, Note_on_c, 10, 65, 50
11, 20880, Note_on_c, 10, 63, 50
11, 20895, Note_on_c, 10, 65, 0
11, 21105, Note_on_c, 10, 63, 0
11, 21120, Note_on_c, 10, 63, 50
11, 21345, Note_on_c, 10, 63, 0
11, 21360, Note_on_c, 10, 63, 50
11, 21600, Note_on_c, 10, 60, 50
11, 21600, Control_c, 10, 11, 80
11, 21610, Control_c, 10, 11, 83
11, 21615, Note_on_c, 10, 63, 0
11, 21620, Control_c, 10, 11, 87
11, 21630, Control_c, 10, 11, 91
11, 21640, Control_c, 10, 11, 95
11, 21650, Control_c, 10, 11, 99
11, 21660, Control_c, 10, 11, 103
11, 21670, Control_c, 10, 11, 107
11, 21680, Control_c, 10, 11, 111
11, 21690, Control_c, 10, 11, 115
11, 21700, Control_c, 10, 11, 119
11, 21710, Control_c, 10, 11, 123
11, 21720, Control_c, 10, 11, 127
11, 21730, Control_c, 10, 11, 126
11, 21740, Control_c, 10, 11, 125
11, 21750, Control_c, 10, 11, 124
11, 21760, Control_c, 10, 11, 122
11, 21770, Control_c, 10, 11, 121
11, 21780, Control_c, 10, 11, 120
11, 21790, Control_c, 10, 11, 118
11, 21800, Control_c, 10, 11, 117
11, 21810, Control_c, 10, 11, 116
11, 21820, Control_c, 10, 11, 114
11, 21830, Control_c, 10, 11, 113
11, 21840, Note_on_c, 10, 63, 50
11, 21840, Control_c, 10, 11, 112
11, 21850, Control_c, 10, 11, 111
11, 21855, Note_on_c, 10, 60, 0
11, 21860, Control_c, 10, 11, 109
11, 21870, Control_c, 10, 11, 108
11, 21880, Control_c, 10, 11, 107
11, 21890, Control_c, 10, 11, 105
11, 21900, Control_c, 10, 11, 104
11, 21910, Control_c, 10, 11, 103
11, 21920, Control_c, 10, 11, 101
11, 21930, Control_c, 10, 11, 100
11, 21940, Control_c, 10, 11, 99
11, 21950, Control_c, 10, 11, 97
11, 21960, Control_c, 10, 11, 96
11, 21970, Control_c, 10, 11, 95
11, 21980, Control_c, 10, 11, 94
11, 21990, Control_c, 10, 11, 92
11, 22000, Control_c, 10, 11, 91
11, 22010, Control_c, 10, 11, 90
11, 22020, Control_c, 10, 11, 88
11, 22030, Control_c, 10, 11, 87
11, 22040, Control_c, 10, 11, 86
11, 22050, Control_c, 10, 11, 84
11, 22060, Control_c, 10, 11, 82
11, 22065, Note_on_c, 10, 63, 0
11, 22070, Control_c, 10, 11, 80
11, 22080, Note_on_c, 10, 59, 50
11, 22560, Note_on_c, 10, 59, 0
11, 23040, Note_on_c, 10, 67, 50
11, 23520, Note_on_c, 10, 65, 50
11, 23536, Note_on_c, 10, 67, 0
11, 23760, Note_on_c, 10, 63, 50
11, 23791, Note_on_c, 10, 65, 0
11, 23985, Note_on_c, 10, 63, 0
11, 24000, Note_on_c, 10, 62, 50
11, 24000, Control_c, 10, 11, 80
11, 24030, Control_c, 10, 11, 81
11, 24050, Control_c, 10, 11, 82
11, 24070, Control_c, 10, 11, 83
11, 24090, Control_c, 10, 11, 84
11, 24110, Control_c, 10, 11, 85
11, 24130, Control_c, 10, 11, 86
11, 24150, Control_c, 10, 11, 87
11, 24170, Control_c, 10, 11, 88
11, 24190, Control_c, 10, 11, 89
11, 24210, Control_c, 10, 11, 90
11, 24230, Control_c, 10, 11, 91
11, 24250, Control_c, 10, 11, 92
11, 24270, Control_c, 10, 11, 93
11, 24290, Control_c, 10, 11, 94
11, 24310, Control_c, 10, 11, 95
11, 24330, Control_c, 10, 11, 96
11, 24350, Control_c, 10, 11, 97
11, 24370, Control_c, 10, 11, 98
11, 24390, Control_c, 10, 11, 99
11, 24410, Control_c, 10, 11, 100
11, 24430, Control_c, 10, 11, 101
11, 24450, Control_c, 10, 11, 102
11, 24470, Control_c, 10, 11, 103
11, 24500, Control_c, 10, 11, 104
11, 24520, Control_c, 10, 11, 105
11, 24540, Control_c, 10, 11, 106
11, 24560, Control_c, 10, 11, 107
11, 24580, Control_c, 10, 11, 108
11, 24600, Control_c, 10, 11, 109
11, 24620, Control_c, 10, 11, 110
11, 24640, Control_c, 10, 11, 111
11, 24660, Control_c, 10, 11, 112
11, 24680, Control_c, 10, 11, 113
11, 24700, Control_c, 10, 11, 114
11, 24720, Note_on_c, 10, 65, 50
11, 24720, Control_c, 10, 11, 115
11, 24735, Note_on_c, 10, 62, 0
11, 24740, Control_c, 10, 11, 116
11, 24760, Control_c, 10, 11, 117
11, 24780, Control_c, 10, 11, 118
11, 24800, Control_c, 10, 11, 119
11, 24820, Control_c, 10, 11, 120
11, 24840, Control_c, 10, 11, 121
11, 24860, Control_c, 10, 11, 122
11, 24880, Control_c, 10, 11, 123
11, 24900, Control_c, 10, 11, 124
11, 24920, Control_c, 10, 11, 125
11, 24940, Control_c, 10, 11, 126
11, 24960, Note_on_c, 10, 63, 50
11, 24960, Control_c, 10, 11, 127
11, 24975, Note_on_c, 10, 65, 0
11, 24990, Control_c, 10, 11, 126
11, 25010, Control_c, 10, 11, 125
11, 25030, Control_c, 10, 11, 124
11, 25050, Control_c, 10, 11, 123
11, 25070, Control_c, 10, 11, 122
11, 25090, Control_c, 10, 11, 121
11, 25110, Control_c, 10, 11, 120
11, 25130, Control_c, 10, 11, 119
11, 25150, Control_c, 10, 11, 118
11, 25170, Control_c, 10, 11, 117
11, 25190, Control_c, 10, 11, 116
11, 25210, Control_c, 10, 11, 115
11, 25230, Control_c, 10, 11, 114
11, 25250, Control_c, 10, 11, 113
11, 25270, Control_c, 10, 11, 112
11, 25290, Control_c, 10, 11, 111
11, 25310, Control_c, 10, 11, 110
11, 25330, Control_c, 10, 11, 109
11, 25350, Control_c, 10, 11, 108
11, 25370, Control_c, 10, 11, 107
11, 25390, Control_c, 10, 11, 106
11, 25410, Control_c, 10, 11, 105
11, 25430, Control_c, 10, 11, 104
11, 25440, Note_on_c, 10, 62, 50
11, 25455, Note_on_c, 10, 63, 0
11, 25460, Control_c, 10, 11, 103
11, 25480, Control_c, 10, 11, 102
11, 25500, Control_c, 10, 11, 101
11, 25520, Control_c, 10, 11, 100
11, 25540, Control_c, 10, 11, 99
11, 25560, Control_c, 10, 11, 98
11, 25580, Control_c, 10, 11, 97
11, 25600, Control_c, 10, 11, 96
11, 25620, Control_c, 10, 11, 95
11, 25640, Control_c, 10, 11, 94
11, 25660, Control_c, 10, 11, 93
11, 25680, Note_on_c, 10, 60, 50
11, 25680, Control_c, 10, 11, 92
11, 25695, Note_on_c, 10, 62, 0
11, 25700, Control_c, 10, 11, 91
11, 25720, Control_c, 10, 11, 90
11, 25740, Control_c, 10, 11, 89
11, 25760, Control_c, 10, 11, 88
11, 25780, Control_c, 10, 11, 87
11, 25800, Control_c, 10, 11, 86
11, 25820, Control_c, 10, 11, 85
11, 25840, Control_c, 10, 11, 84
11, 25860, Control_c, 10, 11, 83
11, 25880, Control_c, 10, 11, 82
11, 25900, Control_c, 10, 11, 80
11, 25905, Note_on_c, 10, 60, 0
11, 25920, Note_on_c, 10, 59, 50
11, 26145, Note_on_c, 10, 59, 0
11, 29280, Note_on_c, 10, 58, 50
11, 29280, Control_c, 10, 11, 80
11, 29290, Control_c, 10, 11, 83
11, 29300, Control_c, 10, 11, 86
11, 29310, Control_c, 10, 11, 90
11, 29320, Control_c, 10, 11, 93
11, 29330, Control_c, 10, 11, 96
11, 29340, Control_c, 10, 11, 100
11, 29370, Control_c, 10, 11, 99
11, 29390, Control_c, 10, 11, 98
11, 29410, Control_c, 10, 11, 97
11, 29430, Control_c, 10, 11, 96
11, 29450, Control_c, 10, 11, 95
11, 29470, Control_c, 10, 11, 94
11, 29490, Control_c, 10, 11, 93
11, 29510, Control_c, 10, 11, 92
11, 29530, Control_c, 10, 11, 91
11, 29550, Control_c, 10, 11, 90
11, 29580, Control_c, 10, 11, 89
11, 29600, Control_c, 10, 11, 88
11, 29620, Control_c, 10, 11, 87
11, 29640, Control_c, 10, 11, 86
11, 29660, Control_c, 10, 11, 85
11, 29680, Control_c, 10, 11, 84
11, 29700, Control_c, 10, 11, 83
11, 29720, Control_c, 10, 11, 82
11, 29740, Control_c, 10, 11, 80
11, 29760, Note_on_c, 10, 56, 50
11, 29790, Note_on_c, 10, 58, 0
11, 30210, Note_on_c, 10, 56, 0
11, 30720, Note_on_c, 10, 56, 50
11, 30720, Note_on_c, 10, 65, 50
11, 31200, Note_on_c, 10, 65, 0
11, 31440, Note_on_c, 10, 56, 0
11, 31680, Note_on_c, 10, 56, 50
11, 31680, Note_on_c, 10, 65, 50
11, 31680, Control_c, 10, 11, 80
11, 31730, Control_c, 10, 11, 82
11, 31780, Control_c, 10, 11, 85
11, 31830, Control_c, 10, 11, 87
11, 31880, Control_c, 10, 11, 90
11, 31920, Control_c, 10, 11, 92
11, 31970, Control_c, 10, 11, 94
11, 32020, Control_c, 10, 11, 97
11, 32070, Control_c, 10, 11, 99
11, 32120, Control_c, 10, 11, 102
11, 32130, Note_on_c, 10, 56, 0
11, 32130, Note_on_c, 10, 65, 0
11, 32160, Note_on_c, 10, 63, 50
11, 32160, Control_c, 10, 11, 104
11, 32210, Control_c, 10, 11, 106
11, 32220, Note_on_c, 10, 62, 50
11, 32250, Note_on_c, 10, 63, 0
11, 32260, Control_c, 10, 11, 109
11, 32310, Control_c, 10, 11, 111
11, 32360, Control_c, 10, 11, 114
11, 32370, Note_on_c, 10, 62, 0
11, 32400, Note_on_c, 10, 60, 50
11, 32400, Control_c, 10, 11, 116
11, 32450, Control_c, 10, 11, 118
11, 32460, Note_on_c, 10, 59, 50
11, 32490, Note_on_c, 10, 60, 0
11, 32500, Control_c, 10, 11, 121
11, 32550, Control_c, 10, 11, 123
11, 32600, Control_c, 10, 11, 126
11, 32610, Note_on_c, 10, 59, 0
11, 32640, Note_on_c, 10, 60, 55
11, 32640, Control_c, 10, 11, 127
11, 32730, Note_on_c, 10, 60, 0
11, 32880, Note_on_c, 10, 60, 55
11, 32970, Note_on_c, 10, 60, 0
11, 33180, Control_c, 10, 11, 80
11, 33360, Note_on_c, 10, 60, 50
11, 33810, Note_on_c, 10, 60, 0
11, 33840, Note_on_c, 10, 55, 50
11, 33840, Control_c, 10, 11, 80
11, 33850, Control_c, 10, 11, 82
11, 33860, Control_c, 10, 11, 84
11, 33870, Control_c, 10, 11, 86
11, 33880, Control_c, 10, 11, 88
11, 33890, Control_c, 10, 11, 91
11, 33900, Control_c, 10, 11, 93
11, 33910, Control_c, 10, 11, 95
11, 33920, Control_c, 10, 11, 97
11, 33940, Control_c, 10, 11, 100
11, 33980, Control_c, 10, 11, 99
11, 34010, Control_c, 10, 11, 98
11, 34040, Control_c, 10, 11, 97
11, 34070, Control_c, 10, 11, 96
11, 34100, Control_c, 10, 11, 95
11, 34130, Control_c, 10, 11, 94
11, 34160, Control_c, 10, 11, 93
11, 34190, Control_c, 10, 11, 92
11, 34220, Control_c, 10, 11, 91
11, 34250, Control_c, 10, 11, 90
11, 34290, Note_on_c, 10, 55, 0
11, 34290, Control_c, 10, 11, 89
11, 34320, Note_on_c, 10, 55, 50
11, 34320, Control_c, 10, 11, 88
11, 34350, Control_c, 10, 11, 87
11, 34380, Control_c, 10, 11, 86
11, 34410, Control_c, 10, 11, 85
11, 34440, Control_c, 10, 11, 84
11, 34470, Control_c, 10, 11, 83
11, 34500, Control_c, 10, 11, 82
11, 34530, Note_on_c, 10, 55, 0
11, 34530, Control_c, 10, 11, 80
11, 34560, Note_on_c, 10, 55, 50
11, 34800, Note_on_c, 10, 55, 0
11, 35400, Note_on_c, 10, 65, 50
11, 35430, Note_on_c, 10, 65, 0
11, 35440, Note_on_c, 10, 65, 50
11, 35470, Note_on_c, 10, 65, 0
11, 35480, Note_on_c, 10, 65, 50
11, 35510, Note_on_c, 10, 65, 0
11, 35520, Note_on_c, 10, 63, 50
11, 35760, Note_on_c, 10, 63, 0
11, 36360, Note_on_c, 10, 58, 50
11, 36390, Note_on_c, 10, 58, 0
11, 36400, Note_on_c, 10, 58, 50
11, 36430, Note_on_c, 10, 58, 0
11, 36440, Note_on_c, 10, 58, 50
11, 36470, Note_on_c, 10, 58, 0
11, 36480, Note_on_c, 10, 62, 50
11, 36720, Note_on_c, 10, 62, 0
11, 37320, Note_on_c, 10, 62, 50
11, 37350, Note_on_c, 10, 62, 0
11, 37360, Note_on_c, 10, 62, 50
11, 37390, Note_on_c, 10, 62, 0
11, 37400, Note_on_c, 10, 62, 50
11, 37430, Note_on_c, 10, 62, 0
11, 37440, Note_on_c, 10, 63, 50
11, 37440, Control_c, 10, 11, 80
11, 37510, Control_c, 10, 11, 81
11, 37570, Control_c, 10, 11, 82
11, 37630, Control_c, 10, 11, 83
11, 37680, Note_on_c, 10, 63, 0
11, 37690, Control_c, 10, 11, 84
11, 37750, Control_c, 10, 11, 85
11, 37800, Note_on_c, 10, 63, 50
11, 37800, Note_on_c, 10, 68, 50
11, 37810, Control_c, 10, 11, 86
11, 37830, Note_on_c, 10, 63, 0
11, 37830, Note_on_c, 10, 68, 0
11, 37840, Note_on_c, 10, 63, 50
11, 37840, Note_on_c, 10, 68, 50
11, 37870, Note_on_c, 10, 63, 0
11, 37870, Note_on_c, 10, 68, 0
11, 37880, Note_on_c, 10, 63, 50
11, 37880, Note_on_c, 10, 68, 50
11, 37880, Control_c, 10, 11, 87
11, 37910, Note_on_c, 10, 63, 0
11, 37910, Note_on_c, 10, 68, 0
11, 37920, Note_on_c, 10, 62, 50
11, 37920, Note_on_c, 10, 67, 50
11, 37940, Control_c, 10, 11, 88
11, 38000, Control_c, 10, 11, 89
11, 38060, Control_c, 10, 11, 90
11, 38120, Control_c, 10, 11, 91
11, 38160, Note_on_c, 10, 62, 0
11, 38160, Note_on_c, 10, 67, 0
11, 38180, Control_c, 10, 11, 92
11, 38240, Control_c, 10, 11, 93
11, 38280, Note_on_c, 10, 60, 50
11, 38280, Note_on_c, 10, 65, 50
11, 38310, Note_on_c, 10, 60, 0
11, 38310, Note_on_c, 10, 65, 0
11, 38310, Control_c, 10, 11, 94
11, 38320, Note_on_c, 10, 60, 50
11, 38320, Note_on_c, 10, 65, 50
11, 38350, Note_on_c, 10, 60, 0
11, 38350, Note_on_c, 10, 65, 0
11, 38360, Note_on_c, 10, 60, 50
11, 38360, Note_on_c, 10, 65, 50
11, 38370, Control_c, 10, 11, 95
11, 38390, Note_on_c, 10, 60, 0
11, 38390, Note_on_c, 10, 65, 0
11, 38400, Note_on_c, 10, 61, 50
11, 38400, Note_on_c, 10, 64, 50
11, 38430, Control_c, 10, 11, 96
11, 38490, Control_c, 10, 11, 97
11, 38550, Control_c, 10, 11, 98
11, 38610, Control_c, 10, 11, 100
11, 38640, Note_on_c, 10, 61, 0
11, 38640, Note_on_c, 10, 64, 0
11, 38760, Note_on_c, 10, 60, 50
11, 38760, Note_on_c, 10, 70, 50
11, 38790, Note_on_c, 10, 60, 0
11, 38790, Note_on_c, 10, 70, 0
11, 38800, Note_on_c, 10, 60, 50
11, 38800, Note_on_c, 10, 70, 50
11, 38830, Note_on_c, 10, 60, 0
11, 38830, Note_on_c, 10, 70, 0
11, 38840, Note_on_c, 10, 60, 50
11, 38840, Note_on_c, 10, 70, 50
11, 38870, Note_on_c, 10, 60, 0
11, 38870, Note_on_c, 10, 70, 0
11, 38880, Note_on_c, 10, 60, 50
11, 38880, Note_on_c, 10, 70, 50
11, 39120, Note_on_c, 10, 60, 0
11, 39120, Note_on_c, 10, 70, 0
11, 39240, Note_on_c, 10, 60, 50
11, 39240, Note_on_c, 10, 70, 50
11, 39270, Note_on_c, 10, 60, 0
11, 39270, Note_on_c, 10, 70, 0
11, 39280, Note_on_c, 10, 60, 50
11, 39310, Note_on_c, 10, 60, 0
11, 39320, Note_on_c, 10, 60, 50
11, 39350, Note_on_c, 10, 60, 0
11, 39358, Control_c, 10, 11, 80
11, 39360, Note_on_c, 10, 60, 50
11, 39600, Note_on_c, 10, 60, 0
11, 39720, Note_on_c, 10, 67, 50
11, 39750, Note_on_c, 10, 67, 0
11, 39760, Note_on_c, 10, 67, 50
11, 39790, Note_on_c, 10, 67, 0
11, 39800, Note_on_c, 10, 67, 50
11, 39830, Note_on_c, 10, 67, 0
11, 39840, Note_on_c, 10, 65, 50
11, 40080, Note_on_c, 10, 65, 0
11, 40200, Note_on_c, 10, 63, 50
11, 40230, Note_on_c, 10, 63, 0
11, 40240, Note_on_c, 10, 63, 50
11, 40270, Note_on_c, 10, 63, 0
11, 40280, Note_on_c, 10, 63, 50
11, 40310, Note_on_c, 10, 63, 0
11, 40320, Note_on_c, 10, 63, 50
11, 40560, Note_on_c, 10, 63, 0
11, 40680, Note_on_c, 10, 60, 50
11, 40710, Note_on_c, 10, 60, 0
11, 40720, Note_on_c, 10, 60, 50
11, 40750, Note_on_c, 10, 60, 0
11, 40760, Note_on_c, 10, 60, 50
11, 40790, Note_on_c, 10, 60, 0
11, 40800, Note_on_c, 10, 60, 60
11, 41040, Note_on_c, 10, 60, 0
11, 41160, Note_on_c, 10, 60, 50
11, 41190, Note_on_c, 10, 60, 0
11, 41200, Note_on_c, 10, 60, 50
11, 41230, Note_on_c, 10, 60, 0
11, 41240, Note_on_c, 10, 60, 50
11, 41270, Note_on_c, 10, 60, 0
11, 41280, Note_on_c, 10, 59, 50
11, 41520, Note_on_c, 10, 59, 0
11, 43200, Control_c, 10, 11, 80
11, 43250, Control_c, 10, 11, 82
11, 43300, Control_c, 10, 11, 84
11, 43350, Control_c, 10, 11, 87
11, 43400, Control_c, 10, 11, 89
11, 43440, Control_c, 10, 11, 91
11, 43490, Control_c, 10, 11, 94
11, 43540, Control_c, 10, 11, 96
11, 43590, Control_c, 10, 11, 99
11, 43640, Control_c, 10, 11, 101
11, 43680, Control_c, 10, 11, 103
11, 43730, Control_c, 10, 11, 105
11, 43780, Control_c, 10, 11, 108
11, 43830, Control_c, 10, 11, 110
11, 43880, Control_c, 10, 11, 113
11, 43920, Control_c, 10, 11, 115
11, 43970, Control_c, 10, 11, 117
11, 44020, Control_c, 10, 11, 120
11, 44070, Control_c, 10, 11, 122
11, 44120, Control_c, 10, 11, 125
11, 44160, Control_c, 10, 11, 127
11, 44210, Control_c, 10, 11, 125
11, 44260, Control_c, 10, 11, 123
11, 44310, Control_c, 10, 11, 120
11, 44360, Control_c, 10, 11, 118
11, 44400, Control_c, 10, 11, 116
11, 44450, Control_c, 10, 11, 113
11, 44500, Control_c, 10, 11, 111
11, 44550, Control_c, 10, 11, 108
11, 44600, Control_c, 10, 11, 106
11, 44640, Control_c, 10, 11, 104
11, 44690, Control_c, 10, 11, 102
11, 44740, Control_c, 10, 11, 99
11, 44790, Control_c, 10, 11, 97
11, 44840, Control_c, 10, 11, 94
11, 44880, Control_c, 10, 11, 92
11, 44930, Control_c, 10, 11, 90
11, 44980, Control_c, 10, 11, 87
11, 45030, Control_c, 10, 11, 84
11, 45080, Control_c, 10, 11, 80
11, 48840, Note_on_c, 10, 67, 50
11, 48870, Note_on_c, 10, 67, 0
11, 48880, Note_on_c, 10, 67, 50
11, 48910, Note_on_c, 10, 67, 0
11, 48920, Note_on_c, 10, 67, 50
11, 48950, Note_on_c, 10, 67, 0
11, 48960, Note_on_c, 10, 60, 50
11, 49170, Note_on_c, 10, 60, 0
11, 49800, Note_on_c, 10, 60, 50
11, 49830, Note_on_c, 10, 60, 0
11, 49840, Note_on_c, 10, 60, 50
11, 49870, Note_on_c, 10, 60, 0
11, 49880, Note_on_c, 10, 60, 50
11, 49910, Note_on_c, 10, 60, 0
11, 49920, Note_on_c, 10, 65, 50
11, 50130, Note_on_c, 10, 65, 0
11, 50760, Note_on_c, 10, 65, 50
11, 50790, Note_on_c, 10, 65, 0
11, 50800, Note_on_c, 10, 65, 50
11, 50830, Note_on_c, 10, 65, 0
11, 50840, Note_on_c, 10, 65, 50
11, 50870, Note_on_c, 10, 65, 0
11, 50880, Note_on_c, 10, 65, 50
11, 50880, Control_c, 10, 11, 80
11, 50910, Control_c, 10, 11, 81
11, 50930, Control_c, 10, 11, 82
11, 50950, Control_c, 10, 11, 83
11, 50970, Control_c, 10, 11, 84
11, 50990, Control_c, 10, 11, 85
11, 51010, Control_c, 10, 11, 86
11, 51030, Control_c, 10, 11, 87
11, 51050, Control_c, 10, 11, 88
11, 51070, Control_c, 10, 11, 89
11, 51090, Note_on_c, 10, 65, 0
11, 51090, Control_c, 10, 11, 90
11, 51110, Control_c, 10, 11, 91
11, 51130, Control_c, 10, 11, 92
11, 51150, Control_c, 10, 11, 93
11, 51170, Control_c, 10, 11, 94
11, 51190, Control_c, 10, 11, 95
11, 51210, Control_c, 10, 11, 96
11, 51230, Control_c, 10, 11, 97
11, 51240, Note_on_c, 10, 65, 50
11, 51250, Control_c, 10, 11, 98
11, 51270, Note_on_c, 10, 65, 0
11, 51270, Control_c, 10, 11, 99
11, 51280, Note_on_c, 10, 65, 50
11, 51290, Control_c, 10, 11, 100
11, 51310, Note_on_c, 10, 65, 0
11, 51310, Control_c, 10, 11, 101
11, 51320, Note_on_c, 10, 65, 50
11, 51330, Control_c, 10, 11, 102
11, 51350, Note_on_c, 10, 65, 0
11, 51350, Control_c, 10, 11, 103
11, 51360, Note_on_c, 10, 62, 50
11, 51380, Control_c, 10, 11, 104
11, 51400, Control_c, 10, 11, 105
11, 51420, Control_c, 10, 11, 106
11, 51440, Control_c, 10, 11, 107
11, 51460, Control_c, 10, 11, 108
11, 51480, Control_c, 10, 11, 109
11, 51500, Control_c, 10, 11, 110
11, 51520, Control_c, 10, 11, 111
11, 51540, Control_c, 10, 11, 112
11, 51560, Control_c, 10, 11, 113
11, 51570, Note_on_c, 10, 62, 0
11, 51580, Control_c, 10, 11, 114
11, 51600, Control_c, 10, 11, 115
11, 51620, Control_c, 10, 11, 116
11, 51640, Control_c, 10, 11, 117
11, 51660, Control_c, 10, 11, 118
11, 51680, Control_c, 10, 11, 119
11, 51700, Control_c, 10, 11, 120
11, 51720, Note_on_c, 10, 62, 50
11, 51720, Control_c, 10, 11, 121
11, 51740, Control_c, 10, 11, 122
11, 51750, Note_on_c, 10, 62, 0
11, 51760, Note_on_c, 10, 62, 50
11, 51760, Control_c, 10, 11, 123
11, 51780, Control_c, 10, 11, 124
11, 51790, Note_on_c, 10, 62, 0
11, 51800, Note_on_c, 10, 62, 50
11, 51800, Control_c, 10, 11, 125
11, 51820, Control_c, 10, 11, 127
11, 51830, Note_on_c, 10, 62, 0
11, 51840, Note_on_c, 10, 60, 50
11, 51930, Note_on_c, 10, 60, 0
11, 52080, Note_on_c, 10, 60, 50
11, 52170, Note_on_c, 10, 60, 0
11, 52560, Control_c, 10, 11, 80
11, 52680, Note_on_c, 10, 60, 50
11, 52710, Note_on_c, 10, 60, 0
11, 52720, Note_on_c, 10, 60, 50
11, 52750, Note_on_c, 10, 60, 0
11, 52760, Note_on_c, 10, 60, 50
11, 52790, Note_on_c, 10, 60, 0
11, 52800, Note_on_c, 10, 60, 50
11, 52810, Control_c, 10, 11, 80
11, 52830, Control_c, 10, 11, 82
11, 52860, Control_c, 10, 11, 85
11, 52880, Control_c, 10, 11, 87
11, 52910, Control_c, 10, 11, 90
11, 52930, Control_c, 10, 11, 92
11, 52960, Control_c, 10, 11, 95
11, 52980, Control_c, 10, 11, 97
11, 53010, Note_on_c, 10, 60, 0
11, 53010, Control_c, 10, 11, 100
11, 53030, Control_c, 10, 11, 102
11, 53060, Control_c, 10, 11, 105
11, 53080, Control_c, 10, 11, 107
11, 53110, Control_c, 10, 11, 110
11, 53130, Control_c, 10, 11, 112
11, 53160, Note_on_c, 10, 60, 50
11, 53160, Control_c, 10, 11, 115
11, 53180, Control_c, 10, 11, 117
11, 53190, Note_on_c, 10, 60, 0
11, 53200, Note_on_c, 10, 60, 50
11, 53210, Control_c, 10, 11, 120
11, 53230, Note_on_c, 10, 60, 0
11, 53230, Control_c, 10, 11, 122
11, 53240, Note_on_c, 10, 60, 50
11, 53260, Control_c, 10, 11, 125
11, 53270, Note_on_c, 10, 60, 0
11, 53280, Note_on_c, 10, 59, 50
11, 53280, Control_c, 10, 11, 127
11, 53310, Control_c, 10, 11, 125
11, 53330, Control_c, 10, 11, 123
11, 53360, Control_c, 10, 11, 120
11, 53380, Control_c, 10, 11, 118
11, 53400, Control_c, 10, 11, 116
11, 53430, Control_c, 10, 11, 113
11, 53450, Control_c, 10, 11, 111
11, 53480, Control_c, 10, 11, 108
11, 53490, Note_on_c, 10, 59, 0
11, 53500, Control_c, 10, 11, 106
11, 53520, Control_c, 10, 11, 104
11, 53550, Control_c, 10, 11, 101
11, 53570, Control_c, 10, 11, 99
11, 53600, Control_c, 10, 11, 96
11, 53620, Control_c, 10, 11, 94
11, 53640, Note_on_c, 10, 65, 50
11, 53640, Control_c, 10, 11, 92
11, 53670, Note_on_c, 10, 65, 0
11, 53670, Control_c, 10, 11, 89
11, 53680, Note_on_c, 10, 65, 50
11, 53690, Control_c, 10, 11, 86
11, 53710, Note_on_c, 10, 65, 0
11, 53720, Note_on_c, 10, 65, 50
11, 53720, Control_c, 10, 11, 83
11, 53740, Control_c, 10, 11, 80
11, 53750, Note_on_c, 10, 65, 0
11, 53760, Note_on_c, 10, 63, 50
11, 53970, Note_on_c, 10, 63, 0
11, 54000, Note_on_c, 10, 63, 50
11, 54240, Note_on_c, 10, 62, 50
11, 54270, Note_on_c, 10, 63, 0
11, 54480, Note_on_c, 10, 65, 50
11, 54510, Note_on_c, 10, 62, 0
11, 54690, Note_on_c, 10, 65, 0
11, 54960, Note_on_c, 10, 62, 50
11, 55200, Note_on_c, 10, 60, 50
11, 55230, Note_on_c, 10, 62, 0
11, 55440, Note_on_c, 10, 63, 50
11, 55470, Note_on_c, 10, 60, 0
11, 55650, Note_on_c, 10, 63, 0
11, 55680, Note_on_c, 10, 65, 50
11, 55920, Note_on_c, 10, 67, 50
11, 55950, Note_on_c, 10, 65, 0
11, 56160, Control_c, 10, 11, 80
11, 56170, Control_c, 10, 11, 82
11, 56180, Control_c, 10, 11, 85
11, 56190, Control_c, 10, 11, 87
11, 56200, Control_c, 10, 11, 90
11, 56210, Control_c, 10, 11, 92
11, 56220, Control_c, 10, 11, 95
11, 56230, Control_c, 10, 11, 97
11, 56240, Control_c, 10, 11, 100
11, 56250, Control_c, 10, 11, 102
11, 56260, Control_c, 10, 11, 105
11, 56270, Control_c, 10, 11, 107
11, 56280, Control_c, 10, 11, 110
11, 56290, Control_c, 10, 11, 108
11, 56300, Control_c, 10, 11, 105
11, 56310, Control_c, 10, 11, 103
11, 56320, Control_c, 10, 11, 100
11, 56330, Control_c, 10, 11, 98
11, 56340, Control_c, 10, 11, 95
11, 56350, Control_c, 10, 11, 93
11, 56360, Control_c, 10, 11, 90
11, 56370, Control_c, 10, 11, 87
11, 56380, Control_c, 10, 11, 83
11, 56390, Control_c, 10, 11, 80
11, 56520, Note_on_c, 10, 65, 50
11, 56550, Note_on_c, 10, 67, 0
11, 56580, Note_on_c, 10, 63, 50
11, 56580, Note_on_c, 10, 65, 0
11, 56625, Note_on_c, 10, 63, 0
11, 56640, Note_on_c, 10, 63, 50
11, 56880, Note_on_c, 10, 62, 50
11, 56910, Note_on_c, 10, 63, 0
11, 57000, Note_on_c, 10, 62, 0
11, 57120, Note_on_c, 10, 62, 50
11, 57210, Note_on_c, 10, 62, 0
11, 59400, Note_on_c, 10, 63, 50
11, 59430, Note_on_c, 10, 63, 0
11, 59440, Note_on_c, 10, 63, 50
11, 59470, Note_on_c, 10, 63, 0
11, 59480, Note_on_c, 10, 63, 50
11, 59510, Note_on_c, 10, 63, 0
11, 59520, Note_on_c, 10, 63, 50
11, 59730, Note_on_c, 10, 63, 0
11, 59880, Note_on_c, 10, 63, 50
11, 59910, Note_on_c, 10, 63, 0
11, 59920, Note_on_c, 10, 63, 50
11, 59950, Note_on_c, 10, 63, 0
11, 59960, Note_on_c, 10, 63, 50
11, 59990, Note_on_c, 10, 63, 0
11, 60000, Note_on_c, 10, 65, 50
11, 60210, Note_on_c, 10, 65, 0
11, 60360, Note_on_c, 10, 65, 50
11, 60390, Note_on_c, 10, 65, 0
11, 60400, Note_on_c, 10, 65, 50
11, 60430, Note_on_c, 10, 65, 0
11, 60440, Note_on_c, 10, 65, 50
11, 60470, Note_on_c, 10, 65, 0
11, 60480, Note_on_c, 10, 63, 50
11, 60690, Note_on_c, 10, 63, 0
11, 60720, Note_on_c, 10, 66, 50
11, 60720, Control_c, 10, 11, 80
11, 60730, Control_c, 10, 11, 83
11, 60740, Control_c, 10, 11, 86
11, 60750, Control_c, 10, 11, 90
11, 60760, Control_c, 10, 11, 93
11, 60770, Control_c, 10, 11, 96
11, 60780, Control_c, 10, 11, 100
11, 60790, Control_c, 10, 11, 103
11, 60800, Control_c, 10, 11, 106
11, 60820, Control_c, 10, 11, 110
11, 60850, Control_c, 10, 11, 109
11, 60870, Control_c, 10, 11, 108
11, 60890, Control_c, 10, 11, 107
11, 60910, Control_c, 10, 11, 106
11, 60930, Control_c, 10, 11, 105
11, 60950, Control_c, 10, 11, 104
11, 60970, Control_c, 10, 11, 103
11, 60990, Control_c, 10, 11, 102
11, 61010, Control_c, 10, 11, 101
11, 61030, Control_c, 10, 11, 100
11, 61050, Control_c, 10, 11, 99
11, 61070, Control_c, 10, 11, 98
11, 61090, Control_c, 10, 11, 97
11, 61110, Control_c, 10, 11, 96
11, 61130, Control_c, 10, 11, 95
11, 61160, Control_c, 10, 11, 94
11, 61180, Control_c, 10, 11, 93
11, 61200, Note_on_c, 10, 67, 50
11, 61200, Control_c, 10, 11, 92
11, 61220, Control_c, 10, 11, 91
11, 61230, Note_on_c, 10, 66, 0
11, 61240, Control_c, 10, 11, 90
11, 61260, Control_c, 10, 11, 89
11, 61280, Control_c, 10, 11, 88
11, 61300, Control_c, 10, 11, 87
11, 61320, Control_c, 10, 11, 86
11, 61340, Control_c, 10, 11, 85
11, 61360, Control_c, 10, 11, 84
11, 61380, Control_c, 10, 11, 83
11, 61400, Control_c, 10, 11, 82
11, 61410, Note_on_c, 10, 67, 0
11, 61420, Control_c, 10, 11, 80
11, 61440, Note_on_c, 10, 63, 50
11, 61650, Note_on_c, 10, 63, 0
11, 61800, Note_on_c, 10, 63, 50
11, 61830, Note_on_c, 10, 63, 0
11, 61840, Note_on_c, 10, 63, 50
11, 61870, Note_on_c, 10, 63, 0
11, 61880, Note_on_c, 10, 63, 50
11, 61910, Note_on_c, 10, 63, 0
11, 61920, Note_on_c, 10, 65, 50
11, 62130, Note_on_c, 10, 65, 0
11, 62280, Note_on_c, 10, 65, 50
11, 62310, Note_on_c, 10, 65, 0
11, 62320, Note_on_c, 10, 65, 50
11, 62350, Note_on_c, 10, 65, 0
11, 62360, Note_on_c, 10, 65, 50
11, 62390, Note_on_c, 10, 65, 0
11, 62400, Note_on_c, 10, 63, 50
11, 62610, Note_on_c, 10, 63, 0
11, 62640, Note_on_c, 10, 68, 50
11, 62640, Control_c, 10, 11, 80
11, 62650, Control_c, 10, 11, 83
11, 62660, Control_c, 10, 11, 86
11, 62670, Control_c, 10, 11, 90
11, 62680, Control_c, 10, 11, 93
11, 62690, Control_c, 10, 11, 96
11, 62700, Control_c, 10, 11, 100
11, 62710, Control_c, 10, 11, 103
11, 62720, Control_c, 10, 11, 106
11, 62740, Control_c, 10, 11, 110
11, 62750, Control_c, 10, 11, 108
11, 62760, Control_c, 10, 11, 106
11, 62770, Control_c, 10, 11, 104
11, 62780, Control_c, 10, 11, 102
11, 62790, Control_c, 10, 11, 100
11, 62800, Control_c, 10, 11, 98
11, 62810, Control_c, 10, 11, 95
11, 62820, Control_c, 10, 11, 93
11, 62830, Control_c, 10, 11, 91
11, 62840, Control_c, 10, 11, 89
11, 62850, Control_c, 10, 11, 87
11, 62860, Control_c, 10, 11, 83
11, 62870, Control_c, 10, 11, 80
11, 62880, Note_on_c, 10, 67, 50
11, 62910, Note_on_c, 10, 68, 0
11, 63120, Note_on_c, 10, 63, 50
11, 63120, Control_c, 10, 11, 80
11, 63130, Control_c, 10, 11, 83
11, 63140, Control_c, 10, 11, 86
11, 63150, Note_on_c, 10, 67, 0
11, 63150, Control_c, 10, 11, 90
11, 63160, Control_c, 10, 11, 93
11, 63170, Control_c, 10, 11, 96
11, 63180, Control_c, 10, 11, 100
11, 63190, Control_c, 10, 11, 103
11, 63200, Control_c, 10, 11, 106
11, 63220, Control_c, 10, 11, 110
11, 63230, Control_c, 10, 11, 108
11, 63240, Control_c, 10, 11, 106
11, 63250, Control_c, 10, 11, 104
11, 63260, Control_c, 10, 11, 102
11, 63270, Control_c, 10, 11, 100
11, 63280, Control_c, 10, 11, 98
11, 63290, Control_c, 10, 11, 95
11, 63300, Control_c, 10, 11, 93
11, 63310, Control_c, 10, 11, 91
11, 63320, Control_c, 10, 11, 89
11, 63330, Control_c, 10, 11, 87
11, 63340, Control_c, 10, 11, 83
11, 63350, Control_c, 10, 11, 80
11, 63360, Note_on_c, 10, 60, 50
11, 63390, Note_on_c, 10, 63, 0
11, 63570, Note_on_c, 10, 60, 0
11, 64800, Note_on_c, 10, 60, 50
11, 64890, Note_on_c, 10, 60, 0
11, 65280, Note_on_c, 10, 55, 50
11, 65370, Note_on_c, 10, 55, 0
11, 66240, Note_on_c, 10, 55, 45
11, 66320, Note_on_c, 10, 60, 45
11, 66330, Note_on_c, 10, 55, 0
11, 66380, Note_on_c, 10, 60, 0
11, 66400, Note_on_c, 10, 64, 45
11, 66445, Note_on_c, 10, 64, 0
11, 66480, Note_on_c, 10, 55, 45
11, 66560, Note_on_c, 10, 60, 45
11, 66570, Note_on_c, 10, 55, 0
11, 66620, Note_on_c, 10, 60, 0
11, 66640, Note_on_c, 10, 64, 45
11, 66685, Note_on_c, 10, 64, 0
11, 66720, Note_on_c, 10, 55, 45
11, 66800, Note_on_c, 10, 60, 45
11, 66810, Note_on_c, 10, 55, 0
11, 66860, Note_on_c, 10, 60, 0
11, 66880, Note_on_c, 10, 64, 45
11, 66925, Note_on_c, 10, 64, 0
11, 66960, Note_on_c, 10, 55, 45
11, 67040, Note_on_c, 10, 60, 45
11, 67050, Note_on_c, 10, 55, 0
11, 67100, Note_on_c, 10, 60, 0
11, 67120, Note_on_c, 10, 64, 45
11, 67165, Note_on_c, 10, 64, 0
11, 67200, Note_on_c, 10, 55, 45
11, 67280, Note_on_c, 10, 60, 45
11, 67290, Note_on_c, 10, 55, 0
11, 67340, Note_on_c, 10, 60, 0
11, 67360, Note_on_c, 10, 64, 45
11, 67405, Note_on_c, 10, 64, 0
11, 67440, Note_on_c, 10, 55, 45
11, 67520, Note_on_c, 10, 60, 45
11, 67530, Note_on_c, 10, 55, 0
11, 67580, Note_on_c, 10, 60, 0
11, 67600, Note_on_c, 10, 64, 45
11, 67645, Note_on_c, 10, 64, 0
11, 67680, Note_on_c, 10, 55, 45
11, 67760, Note_on_c, 10, 60, 45
11, 67770, Note_on_c, 10, 55, 0
11, 67820, Note_on_c, 10, 60, 0
11, 67840, Note_on_c, 10, 64, 45
11, 67885, Note_on_c, 10, 64, 0
11, 67920, Note_on_c, 10, 55, 45
11, 68000, Note_on_c, 10, 60, 45
11, 68010, Note_on_c, 10, 55, 0
11, 68060, Note_on_c, 10, 60, 0
11, 68080, Note_on_c, 10, 64, 45
11, 68125, Note_on_c, 10, 64, 0
11, 68160, Note_on_c, 10, 57, 45
11, 68240, Note_on_c, 10, 60, 45
11, 68250, Note_on_c, 10, 57, 0
11, 68300, Note_on_c, 10, 60, 0
11, 68320, Note_on_c, 10, 62, 45
11, 68365, Note_on_c, 10, 62, 0
11, 68400, Note_on_c, 10, 57, 45
11, 68480, Note_on_c, 10, 60, 45
11, 68490, Note_on_c, 10, 57, 0
11, 68540, Note_on_c, 10, 60, 0
11, 68560, Note_on_c, 10, 62, 45
11, 68605, Note_on_c, 10, 62, 0
11, 68640, Note_on_c, 10, 57, 45
11, 68720, Note_on_c, 10, 60, 45
11, 68730, Note_on_c, 10, 57, 0
11, 68780, Note_on_c, 10, 60, 0
11, 68800, Note_on_c, 10, 62, 45
11, 68845, Note_on_c, 10, 62, 0
11, 68880, Note_on_c, 10, 57, 45
11, 68960, Note_on_c, 10, 60, 45
11, 68970, Note_on_c, 10, 57, 0
11, 69020, Note_on_c, 10, 60, 0
11, 69040, Note_on_c, 10, 62, 45
11, 69085, Note_on_c, 10, 62, 0
11, 69120, Note_on_c, 10, 57, 45
11, 69200, Note_on_c, 10, 60, 45
11, 69210, Note_on_c, 10, 57, 0
11, 69260, Note_on_c, 10, 60, 0
11, 69280, Note_on_c, 10, 62, 45
11, 69325, Note_on_c, 10, 62, 0
11, 69360, Note_on_c, 10, 57, 45
11, 69440, Note_on_c, 10, 60, 45
11, 69450, Note_on_c, 10, 57, 0
11, 69500, Note_on_c, 10, 60, 0
11, 69520, Note_on_c, 10, 62, 45
11, 69565, Note_on_c, 10, 62, 0
11, 69600, Note_on_c, 10, 57, 45
11, 69680, Note_on_c, 10, 60, 45
11, 69690, Note_on_c, 10, 57, 0
11, 69740, Note_on_c, 10, 60, 0
11, 69760, Note_on_c, 10, 62, 45
11, 69805, Note_on_c, 10, 62, 0
11, 69840, Note_on_c, 10, 57, 45
11, 69920, Note_on_c, 10, 60, 45
11, 69930, Note_on_c, 10, 57, 0
11, 69980, Note_on_c, 10, 60, 0
11, 70000, Note_on_c, 10, 62, 45
11, 70045, Note_on_c, 10, 62, 0
11, 70080, Note_on_c, 10, 59, 45
11, 70160, Note_on_c, 10, 62, 45
11, 70170, Note_on_c, 10, 59, 0
11, 70220, Note_on_c, 10, 62, 0
11, 70240, Note_on_c, 10, 65, 45
11, 70285, Note_on_c, 10, 65, 0
11, 70320, Note_on_c, 10, 59, 45
11, 70400, Note_on_c, 10, 62, 45
11, 70410, Note_on_c, 10, 59, 0
11, 70460, Note_on_c, 10, 62, 0
11, 70480, Note_on_c, 10, 65, 45
11, 70525, Note_on_c, 10, 65, 0
11, 70560, Note_on_c, 10, 59, 45
11, 70640, Note_on_c, 10, 62, 45
11, 70650, Note_on_c, 10, 59, 0
11, 70700, Note_on_c, 10, 62, 0
11, 70720, Note_on_c, 10, 65, 45
11, 70765, Note_on_c, 10, 65, 0
11, 70800, Note_on_c, 10, 59, 45
11, 70880, Note_on_c, 10, 62, 45
11, 70890, Note_on_c, 10, 59, 0
11, 70940, Note_on_c, 10, 62, 0
11, 70960, Note_on_c, 10, 65, 45
11, 71005, Note_on_c, 10, 65, 0
11, 71040, Note_on_c, 10, 59, 45
11, 71120, Note_on_c, 10, 62, 45
11, 71130, Note_on_c, 10, 59, 0
11, 71180, Note_on_c, 10, 62, 0
11, 71200, Note_on_c, 10, 65, 45
11, 71245, Note_on_c, 10, 65, 0
11, 71280, Note_on_c, 10, 59, 45
11, 71360, Note_on_c, 10, 62, 47
11, 71370, Note_on_c, 10, 59, 0
11, 71420, Note_on_c, 10, 62, 0
11, 71440, Note_on_c, 10, 65, 49
11, 71485, Note_on_c, 10, 65, 0
11, 71520, Note_on_c, 10, 59, 51
11, 71600, Note_on_c, 10, 62, 53
11, 71610, Note_on_c, 10, 59, 0
11, 71660, Note_on_c, 10, 62, 0
11, 71680, Note_on_c, 10, 65, 55
11, 71725, Note_on_c, 10, 65, 0
11, 71760, Note_on_c, 10, 59, 57
11, 71840, Note_on_c, 10, 62, 60
11, 71850, Note_on_c, 10, 59, 0
11, 71900, Note_on_c, 10, 62, 0
11, 71920, Note_on_c, 10, 64, 62
11, 71965, Note_on_c, 10, 64, 0
11, 72000, Note_on_c, 10, 57, 64
11, 72080, Note_on_c, 10, 60, 66
11, 72090, Note_on_c, 10, 57, 0
11, 72140, Note_on_c, 10, 60, 0
11, 72160, Note_on_c, 10, 64, 68
11, 72205, Note_on_c, 10, 64, 0
11, 72240, Note_on_c, 10, 57, 70
11, 72320, Note_on_c, 10, 60, 72
11, 72330, Note_on_c, 10, 57, 0
11, 72380, Note_on_c, 10, 60, 0
11, 72400, Note_on_c, 10, 64, 75
11, 72445, Note_on_c, 10, 64, 0
11, 72480, Note_on_c, 10, 59, 77
11, 72560, Note_on_c, 10, 62, 79
11, 72570, Note_on_c, 10, 59, 0
11, 72620, Note_on_c, 10, 62, 0
11, 72640, Note_on_c, 10, 62, 81
11, 72685, Note_on_c, 10, 62, 0
11, 72800, Note_on_c, 10, 62, 85
11, 72860, Note_on_c, 10, 62, 0
11, 72880, Note_on_c, 10, 62, 87
11, 72925, Note_on_c, 10, 62, 0
11, 72960, Note_on_c, 10, 59, 90
11, 72990, Note_on_c, 10, 59, 0
11, 73000, Note_on_c, 10, 71, 90
11, 73030, Note_on_c, 10, 71, 0
11, 73040, Note_on_c, 10, 71, 90
11, 73070, Note_on_c, 10, 71, 0
11, 73080, Note_on_c, 10, 71, 90
11, 73110, Note_on_c, 10, 71, 0
11, 73120, Note_on_c, 10, 71, 90
11, 73150, Note_on_c, 10, 71, 0
11, 73160, Note_on_c, 10, 71, 90
11, 73190, Note_on_c, 10, 71, 0
11, 73200, Note_on_c, 10, 71, 90
11, 73230, Note_on_c, 10, 71, 0
11, 73240, Note_on_c, 10, 71, 90
11, 73270, Note_on_c, 10, 71, 0
11, 73280, Note_on_c, 10, 71, 90
11, 73310, Note_on_c, 10, 71, 0
11, 73320, Note_on_c, 10, 71, 90
11, 73350, Note_on_c, 10, 71, 0
11, 73360, Note_on_c, 10, 71, 90
11, 73390, Note_on_c, 10, 71, 0
11, 73400, Note_on_c, 10, 71, 90
11, 73430, Note_on_c, 10, 71, 0
11, 73440, Note_on_c, 10, 71, 90
11, 73530, Note_on_c, 10, 71, 0
11, 73920, Note_on_c, 10, 59, 90
11, 73950, Note_on_c, 10, 59, 0
11, 73960, Note_on_c, 10, 71, 90
11, 73990, Note_on_c, 10, 71, 0
11, 74000, Note_on_c, 10, 71, 90
11, 74030, Note_on_c, 10, 71, 0
11, 74040, Note_on_c, 10, 71, 90
11, 74070, Note_on_c, 10, 71, 0
11, 74080, Note_on_c, 10, 71, 90
11, 74110, Note_on_c, 10, 71, 0
11, 74120, Note_on_c, 10, 71, 90
11, 74150, Note_on_c, 10, 71, 0
11, 74160, Note_on_c, 10, 71, 90
11, 74190, Note_on_c, 10, 71, 0
11, 74200, Note_on_c, 10, 71, 90
11, 74230, Note_on_c, 10, 71, 0
11, 74240, Note_on_c, 10, 71, 90
11, 74270, Note_on_c, 10, 71, 0
11, 74280, Note_on_c, 10, 71, 90
11, 74310, Note_on_c, 10, 71, 0
11, 74320, Note_on_c, 10, 71, 90
11, 74350, Note_on_c, 10, 71, 0
11, 74360, Note_on_c, 10, 71, 90
11, 74390, Note_on_c, 10, 71, 0
11, 74400, Note_on_c, 10, 71, 90
11, 74490, Note_on_c, 10, 71, 0
11, 75120, Note_on_c, 10, 74, 90
11, 75210, Note_on_c, 10, 74, 0
11, 75600, Note_on_c, 10, 74, 77
11, 75690, Note_on_c, 10, 74, 0
11, 75840, Note_on_c, 10, 67, 71
11, 75840, Control_c, 10, 11, 80
11, 75850, Control_c, 10, 11, 85
11, 75860, Control_c, 10, 11, 90
11, 75870, Control_c, 10, 11, 95
11, 75880, Control_c, 10, 11, 100
11, 75890, Control_c, 10, 11, 105
11, 75900, Control_c, 10, 11, 110
11, 75920, Control_c, 10, 11, 109
11, 75930, Control_c, 10, 11, 108
11, 75950, Control_c, 10, 11, 107
11, 75960, Control_c, 10, 11, 106
11, 75970, Control_c, 10, 11, 105
11, 75990, Control_c, 10, 11, 104
11, 76000, Control_c, 10, 11, 103
11, 76020, Control_c, 10, 11, 102
11, 76030, Control_c, 10, 11, 101
11, 76040, Control_c, 10, 11, 100
11, 76060, Control_c, 10, 11, 99
11, 76070, Control_c, 10, 11, 98
11, 76090, Control_c, 10, 11, 97
11, 76100, Control_c, 10, 11, 96
11, 76110, Control_c, 10, 11, 95
11, 76130, Control_c, 10, 11, 94
11, 76140, Control_c, 10, 11, 93
11, 76160, Control_c, 10, 11, 92
11, 76170, Control_c, 10, 11, 91
11, 76180, Control_c, 10, 11, 90
11, 76200, Control_c, 10, 11, 89
11, 76210, Control_c, 10, 11, 88
11, 76230, Control_c, 10, 11, 87
11, 76240, Control_c, 10, 11, 86
11, 76250, Control_c, 10, 11, 85
11, 76270, Control_c, 10, 11, 84
11, 76280, Control_c, 10, 11, 83
11, 76300, Control_c, 10, 11, 82
11, 76310, Control_c, 10, 11, 80
11, 76320, Note_on_c, 10, 65, 58
11, 76350, Note_on_c, 10, 67, 0
11, 76440, Note_on_c, 10, 64, 54
11, 76470, Note_on_c, 10, 65, 0
11, 76560, Note_on_c, 10, 65, 51
11, 76590, Note_on_c, 10, 64, 0
11, 76680, Note_on_c, 10, 62, 48
11, 76710, Note_on_c, 10, 65, 0
11, 76770, Note_on_c, 10, 62, 0
11, 76800, Note_on_c, 10, 60, 44
11, 77280, Note_on_c, 10, 64, 45
11, 77310, Note_on_c, 10, 60, 0
11, 77520, Note_on_c, 10, 67, 45
11, 77550, Note_on_c, 10, 64, 0
11, 77730, Note_on_c, 10, 67, 0
11, 77760, Note_on_c, 10, 70, 45
11, 78480, Note_on_c, 10, 64, 45
11, 78510, Note_on_c, 10, 70, 0
11, 78690, Note_on_c, 10, 64, 0
11, 78720, Note_on_c, 10, 65, 45
11, 78720, Control_c, 10, 11, 80
11, 78790, Control_c, 10, 11, 81
11, 78850, Control_c, 10, 11, 82
11, 78920, Control_c, 10, 11, 83
11, 78960, Note_on_c, 10, 69, 45
11, 78980, Control_c, 10, 11, 84
11, 78990, Note_on_c, 10, 65, 0
11, 79040, Control_c, 10, 11, 85
11, 79110, Control_c, 10, 11, 86
11, 79170, Control_c, 10, 11, 87
11, 79200, Note_on_c, 10, 70, 45
11, 79230, Note_on_c, 10, 69, 0
11, 79240, Control_c, 10, 11, 88
11, 79300, Control_c, 10, 11, 89
11, 79360, Control_c, 10, 11, 90
11, 79430, Control_c, 10, 11, 91
11, 79440, Note_on_c, 10, 64, 45
11, 79470, Note_on_c, 10, 70, 0
11, 79490, Control_c, 10, 11, 92
11, 79560, Control_c, 10, 11, 93
11, 79620, Control_c, 10, 11, 94
11, 79650, Note_on_c, 10, 64, 0
11, 79680, Note_on_c, 10, 65, 45
11, 79680, Control_c, 10, 11, 95
11, 79750, Control_c, 10, 11, 96
11, 79810, Control_c, 10, 11, 97
11, 79880, Control_c, 10, 11, 98
11, 79920, Note_on_c, 10, 69, 45
11, 79940, Control_c, 10, 11, 99
11, 79950, Note_on_c, 10, 65, 0
11, 80000, Control_c, 10, 11, 100
11, 80070, Control_c, 10, 11, 101
11, 80130, Control_c, 10, 11, 102
11, 80160, Note_on_c, 10, 70, 45
11, 80190, Note_on_c, 10, 69, 0
11, 80200, Control_c, 10, 11, 103
11, 80260, Control_c, 10, 11, 104
11, 80320, Control_c, 10, 11, 105
11, 80390, Control_c, 10, 11, 106
11, 80400, Note_on_c, 10, 64, 45
11, 80430, Note_on_c, 10, 70, 0
11, 80450, Control_c, 10, 11, 107
11, 80520, Control_c, 10, 11, 108
11, 80580, Control_c, 10, 11, 110
11, 80610, Note_on_c, 10, 64, 0
11, 80634, Control_c, 10, 11, 80
11, 80640, Note_on_c, 10, 65, 45
11, 80700, Note_on_c, 10, 65, 0
11, 80720, Note_on_c, 10, 69, 45
11, 80780, Note_on_c, 10, 69, 0
11, 80800, Note_on_c, 10, 69, 45
11, 80860, Note_on_c, 10, 69, 0
11, 80960, Note_on_c, 10, 64, 45
11, 81020, Note_on_c, 10, 64, 0
11, 81040, Note_on_c, 10, 64, 45
11, 81100, Note_on_c, 10, 64, 0
11, 81200, Note_on_c, 10, 65, 45
11, 81260, Note_on_c, 10, 65, 0
11, 81280, Note_on_c, 10, 65, 45
11, 81340, Note_on_c, 10, 65, 0
11, 81440, Note_on_c, 10, 67, 45
11, 81500, Note_on_c, 10, 67, 0
11, 81520, Note_on_c, 10, 67, 45
11, 81580, Note_on_c, 10, 67, 0
11, 81680, Note_on_c, 10, 69, 45
11, 81740, Note_on_c, 10, 69, 0
11, 81760, Note_on_c, 10, 69, 45
11, 81820, Note_on_c, 10, 69, 0
11, 81920, Note_on_c, 10, 67, 45
11, 81980, Note_on_c, 10, 67, 0
11, 82000, Note_on_c, 10, 67, 45
11, 82060, Note_on_c, 10, 67, 0
11, 82160, Note_on_c, 10, 69, 45
11, 82220, Note_on_c, 10, 69, 0
11, 82240, Note_on_c, 10, 69, 45
11, 82300, Note_on_c, 10, 69, 0
11, 82400, Note_on_c, 10, 69, 45
11, 82460, Note_on_c, 10, 69, 0
11, 82480, Note_on_c, 10, 62, 45
11, 82540, Note_on_c, 10, 62, 0
11, 82560, Note_on_c, 10, 62, 45
11, 82605, Note_on_c, 10, 62, 0
11, 82640, Note_on_c, 10, 59, 45
11, 82685, Note_on_c, 10, 59, 0
11, 82720, Note_on_c, 10, 62, 45
11, 82765, Note_on_c, 10, 62, 0
11, 82800, Note_on_c, 10, 67, 45
11, 82845, Note_on_c, 10, 67, 0
11, 82880, Note_on_c, 10, 69, 45
11, 82925, Note_on_c, 10, 69, 0
11, 82960, Note_on_c, 10, 71, 45
11, 83005, Note_on_c, 10, 71, 0
11, 83040, Note_on_c, 10, 72, 45
11, 83100, Note_on_c, 10, 72, 0
11, 83440, Note_on_c, 10, 60, 45
11, 83485, Note_on_c, 10, 60, 0
11, 83520, Note_on_c, 10, 55, 45
11, 83580, Note_on_c, 10, 55, 0
11, 83600, Note_on_c, 10, 59, 45
11, 83660, Note_on_c, 10, 59, 0
11, 83680, Note_on_c, 10, 62, 45
11, 83740, Note_on_c, 10, 62, 0
11, 83760, Note_on_c, 10, 67, 45
11, 83820, Note_on_c, 10, 67, 0
11, 83840, Note_on_c, 10, 69, 45
11, 83900, Note_on_c, 10, 69, 0
11, 83920, Note_on_c, 10, 71, 45
11, 83980, Note_on_c, 10, 71, 0
11, 84000, Note_on_c, 10, 72, 45
11, 84060, Note_on_c, 10, 72, 0
11, 84080, Note_on_c, 10, 67, 45
11, 84140, Note_on_c, 10, 67, 0
11, 84160, Note_on_c, 10, 64, 45
11, 84220, Note_on_c, 10, 64, 0
11, 84240, Note_on_c, 10, 67, 45
11, 84300, Note_on_c, 10, 67, 0
11, 84320, Note_on_c, 10, 64, 45
11, 84380, Note_on_c, 10, 64, 0
11, 84400, Note_on_c, 10, 60, 45
11, 84460, Note_on_c, 10, 60, 0
11, 84480, Note_on_c, 10, 59, 45
11, 84540, Note_on_c, 10, 59, 0
11, 84560, Note_on_c, 10, 55, 45
11, 84620, Note_on_c, 10, 55, 0
11, 84640, Note_on_c, 10, 55, 45
11, 84700, Note_on_c, 10, 55, 0
11, 84720, Note_on_c, 10, 55, 45
11, 84780, Note_on_c, 10, 55, 0
11, 84800, Note_on_c, 10, 55, 45
11, 84860, Note_on_c, 10, 55, 0
11, 84880, Note_on_c, 10, 55, 45
11, 84940, Note_on_c, 10, 55, 0
11, 84960, Note_on_c, 10, 55, 45
11, 85020, Note_on_c, 10, 55, 0
11, 85040, Note_on_c, 10, 55, 45
11, 85100, Note_on_c, 10, 55, 0
11, 85120, Note_on_c, 10, 55, 45
11, 85180, Note_on_c, 10, 55, 0
11, 85200, Note_on_c, 10, 55, 45
11, 85260, Note_on_c, 10, 55, 0
11, 85280, Note_on_c, 10, 55, 45
11, 85340, Note_on_c, 10, 55, 0
11, 85360, Note_on_c, 10, 55, 45
11, 85420, Note_on_c, 10, 55, 0
11, 85440, Note_on_c, 10, 55, 45
11, 85440, Note_on_c, 10, 67, 45
11, 85500, Note_on_c, 10, 55, 0
11, 85500, Note_on_c, 10, 67, 0
11, 85520, Note_on_c, 10, 55, 45
11, 85520, Note_on_c, 10, 67, 45
11, 85580, Note_on_c, 10, 55, 0
11, 85580, Note_on_c, 10, 67, 0
11, 85600, Note_on_c, 10, 55, 45
11, 85600, Note_on_c, 10, 67, 45
11, 85660, Note_on_c, 10, 55, 0
11, 85660, Note_on_c, 10, 67, 0
11, 85680, Note_on_c, 10, 55, 45
11, 85680, Note_on_c, 10, 67, 45
11, 85740, Note_on_c, 10, 55, 0
11, 85740, Note_on_c, 10, 67, 0
11, 85760, Note_on_c, 10, 55, 45
11, 85760, Note_on_c, 10, 67, 45
11, 85820, Note_on_c, 10, 55, 0
11, 85820, Note_on_c, 10, 67, 0
11, 85840, Note_on_c, 10, 55, 45
11, 85840, Note_on_c, 10, 67, 45
11, 85900, Note_on_c, 10, 55, 0
11, 85900, Note_on_c, 10, 67, 0
11, 85920, Note_on_c, 10, 55, 45
11, 85920, Note_on_c, 10, 67, 45
11, 85980, Note_on_c, 10, 55, 0
11, 85980, Note_on_c, 10, 67, 0
11, 86000, Note_on_c, 10, 55, 45
11, 86000, Note_on_c, 10, 67, 45
11, 86060, Note_on_c, 10, 55, 0
11, 86060, Note_on_c, 10, 67, 0
11, 86080, Note_on_c, 10, 55, 45
11, 86080, Note_on_c, 10, 67, 45
11, 86140, Note_on_c, 10, 55, 0
11, 86140, Note_on_c, 10, 67, 0
11, 86160, Note_on_c, 10, 55, 45
11, 86160, Note_on_c, 10, 67, 45
11, 86220, Note_on_c, 10, 55, 0
11, 86220, Note_on_c, 10, 67, 0
11, 86240, Note_on_c, 10, 55, 45
11, 86240, Note_on_c, 10, 67, 45
11, 86300, Note_on_c, 10, 55, 0
11, 86300, Note_on_c, 10, 67, 0
11, 86320, Note_on_c, 10, 55, 45
11, 86320, Note_on_c, 10, 67, 45
11, 86380, Note_on_c, 10, 55, 0
11, 86380, Note_on_c, 10, 67, 0
11, 86400, Note_on_c, 10, 55, 45
11, 86460, Note_on_c, 10, 55, 0
11, 87360, Note_on_c, 10, 64, 45
11, 87440, Note_on_c, 10, 67, 45
11, 87450, Note_on_c, 10, 64, 0
11, 87500, Note_on_c, 10, 67, 0
11, 87520, Note_on_c, 10, 72, 45
11, 87565, Note_on_c, 10, 72, 0
11, 87600, Note_on_c, 10, 64, 45
11, 87680, Note_on_c, 10, 67, 45
11, 87690, Note_on_c, 10, 64, 0
11, 87740, Note_on_c, 10, 67, 0
11, 87760, Note_on_c, 10, 72, 45
11, 87805, Note_on_c, 10, 72, 0
11, 87840, Note_on_c, 10, 64, 45
11, 87920, Note_on_c, 10, 67, 45
11, 87930, Note_on_c, 10, 64, 0
11, 87980, Note_on_c, 10, 67, 0
11, 88000, Note_on_c, 10, 72, 45
11, 88045, Note_on_c, 10, 72, 0
11, 88080, Note_on_c, 10, 64, 45
11, 88160, Note_on_c, 10, 67, 45
11, 88170, Note_on_c, 10, 64, 0
11, 88220, Note_on_c, 10, 67, 0
11, 88240, Note_on_c, 10, 72, 45
11, 88285, Note_on_c, 10, 72, 0
11, 88320, Note_on_c, 10, 72, 45
11, 88400, Note_on_c, 10, 69, 45
11, 88410, Note_on_c, 10, 72, 0
11, 88460, Note_on_c, 10, 69, 0
11, 88480, Note_on_c, 10, 65, 45
11, 88525, Note_on_c, 10, 65, 0
11, 88560, Note_on_c, 10, 72, 46
11, 88640, Note_on_c, 10, 69, 46
11, 88650, Note_on_c, 10, 72, 0
11, 88700, Note_on_c, 10, 69, 0
11, 88720, Note_on_c, 10, 65, 47
11, 88765, Note_on_c, 10, 65, 0
11, 88800, Note_on_c, 10, 72, 47
11, 88880, Note_on_c, 10, 69, 48
11, 88890, Note_on_c, 10, 72, 0
11, 88940, Note_on_c, 10, 69, 0
11, 88960, Note_on_c, 10, 65, 48
11, 89005, Note_on_c, 10, 65, 0
11, 89040, Note_on_c, 10, 72, 49
11, 89120, Note_on_c, 10, 69, 49
11, 89130, Note_on_c, 10, 72, 0
11, 89180, Note_on_c, 10, 69, 0
11, 89200, Note_on_c, 10, 65, 50
11, 89245, Note_on_c, 10, 65, 0
11, 89280, Note_on_c, 10, 77, 50
11, 89360, Note_on_c, 10, 72, 51
11, 89370, Note_on_c, 10, 77, 0
11, 89420, Note_on_c, 10, 72, 0
11, 89440, Note_on_c, 10, 69, 51
11, 89485, Note_on_c, 10, 69, 0
11, 89520, Note_on_c, 10, 77, 52
11, 89600, Note_on_c, 10, 72, 52
11, 89610, Note_on_c, 10, 77, 0
11, 89660, Note_on_c, 10, 72, 0
11, 89680, Note_on_c, 10, 69, 53
11, 89725, Note_on_c, 10, 69, 0
11, 89760, Note_on_c, 10, 77, 53
11, 89840, Note_on_c, 10, 72, 54
11, 89850, Note_on_c, 10, 77, 0
11, 89900, Note_on_c, 10, 72, 0
11, 89920, Note_on_c, 10, 69, 54
11, 89965, Note_on_c, 10, 69, 0
11, 90000, Note_on_c, 10, 77, 55
11, 90080, Note_on_c, 10, 72, 55
11, 90090, Note_on_c, 10, 77, 0
11, 90140, Note_on_c, 10, 72, 0
11, 90160, Note_on_c, 10, 69, 56
11, 90205, Note_on_c, 10, 69, 0
11, 90240, Note_on_c, 10, 76, 56
11, 90320, Note_on_c, 10, 72, 57
11, 90330, Note_on_c, 10, 76, 0
11, 90380, Note_on_c, 10, 72, 0
11, 90400, Note_on_c, 10, 67, 57
11, 90445, Note_on_c, 10, 67, 0
11, 90480, Note_on_c, 10, 76, 58
11, 90560, Note_on_c, 10, 72, 58
11, 90570, Note_on_c, 10, 76, 0
11, 90620, Note_on_c, 10, 72, 0
11, 90640, Note_on_c, 10, 67, 59
11, 90685, Note_on_c, 10, 67, 0
11, 90720, Note_on_c, 10, 74, 59
11, 90800, Note_on_c, 10, 71, 60
11, 90810, Note_on_c, 10, 74, 0
11, 90860, Note_on_c, 10, 71, 0
11, 90880, Note_on_c, 10, 67, 60
11, 90925, Note_on_c, 10, 67, 0
11, 90960, Note_on_c, 10, 74, 61
11, 91040, Note_on_c, 10, 71, 61
11, 91050, Note_on_c, 10, 74, 0
11, 91100, Note_on_c, 10, 71, 0
11, 91120, Note_on_c, 10, 67, 62
11, 91165, Note_on_c, 10, 67, 0
11, 91200, Note_on_c, 10, 72, 62
11, 91280, Note_on_c, 10, 67, 62
11, 91290, Note_on_c, 10, 72, 0
11, 91340, Note_on_c, 10, 67, 0
11, 91360, Note_on_c, 10, 64, 63
11, 91405, Note_on_c, 10, 64, 0
11, 91440, Note_on_c, 10, 72, 63
11, 91520, Note_on_c, 10, 67, 64
11, 91530, Note_on_c, 10, 72, 0
11, 91580, Note_on_c, 10, 67, 0
11, 91600, Note_on_c, 10, 64, 64
11, 91645, Note_on_c, 10, 64, 0
11, 91680, Note_on_c, 10, 72, 65
11, 91760, Note_on_c, 10, 69, 65
11, 91770, Note_on_c, 10, 72, 0
11, 91820, Note_on_c, 10, 69, 0
11, 91840, Note_on_c, 10, 65, 66
11, 91885, Note_on_c, 10, 65, 0
11, 91920, Note_on_c, 10, 72, 66
11, 92000, Note_on_c, 10, 69, 67
11, 92010, Note_on_c, 10, 72, 0
11, 92060, Note_on_c, 10, 69, 0
11, 92080, Note_on_c, 10, 65, 67
11, 92125, Note_on_c, 10, 65, 0
11, 92160, Note_on_c, 10, 64, 68
11, 92220, Note_on_c, 10, 64, 0
11, 92240, Note_on_c, 10, 72, 68
11, 92240, Note_on_c, 10, 79, 68
11, 92300, Note_on_c, 10, 72, 0
11, 92300, Note_on_c, 10, 79, 0
11, 92320, Note_on_c, 10, 72, 69
11, 92320, Note_on_c, 10, 79, 69
11, 92380, Note_on_c, 10, 72, 0
11, 92380, Note_on_c, 10, 79, 0
11, 92400, Note_on_c, 10, 72, 69
11, 92400, Note_on_c, 10, 79, 69
11, 92460, Note_on_c, 10, 72, 0
11, 92460, Note_on_c, 10, 79, 0
11, 92480, Note_on_c, 10, 72, 70
11, 92480, Note_on_c, 10, 79, 70
11, 92540, Note_on_c, 10, 72, 0
11, 92540, Note_on_c, 10, 79, 0
11, 92560, Note_on_c, 10, 72, 70
11, 92560, Note_on_c, 10, 79, 70
11, 92620, Note_on_c, 10, 72, 0
11, 92620, Note_on_c, 10, 79, 0
11, 92640, Note_on_c, 10, 72, 71
11, 92640, Note_on_c, 10, 79, 71
11, 92700, Note_on_c, 10, 72, 0
11, 92700, Note_on_c, 10, 79, 0
11, 92720, Note_on_c, 10, 72, 71
11, 92720, Note_on_c, 10, 79, 71
11, 92780, Note_on_c, 10, 72, 0
11, 92780, Note_on_c, 10, 79, 0
11, 92800, Note_on_c, 10, 72, 72
11, 92800, Note_on_c, 10, 79, 72
11, 92860, Note_on_c, 10, 72, 0
11, 92860, Note_on_c, 10, 79, 0
11, 92880, Note_on_c, 10, 72, 72
11, 92880, Note_on_c, 10, 79, 72
11, 92940, Note_on_c, 10, 72, 0
11, 92940, Note_on_c, 10, 79, 0
11, 92960, Note_on_c, 10, 72, 73
11, 92960, Note_on_c, 10, 79, 73
11, 93020, Note_on_c, 10, 72, 0
11, 93020, Note_on_c, 10, 79, 0
11, 93040, Note_on_c, 10, 72, 73
11, 93040, Note_on_c, 10, 79, 73
11, 93100, Note_on_c, 10, 72, 0
11, 93100, Note_on_c, 10, 79, 0
11, 93120, Note_on_c, 10, 71, 74
11, 93120, Note_on_c, 10, 79, 74
11, 93180, Note_on_c, 10, 71, 0
11, 93180, Note_on_c, 10, 79, 0
11, 93200, Note_on_c, 10, 71, 74
11, 93200, Note_on_c, 10, 79, 74
11, 93260, Note_on_c, 10, 71, 0
11, 93260, Note_on_c, 10, 79, 0
11, 93280, Note_on_c, 10, 71, 75
11, 93280, Note_on_c, 10, 79, 75
11, 93340, Note_on_c, 10, 71, 0
11, 93340, Note_on_c, 10, 79, 0
11, 93360, Note_on_c, 10, 71, 75
11, 93360, Note_on_c, 10, 79, 75
11, 93420, Note_on_c, 10, 71, 0
11, 93420, Note_on_c, 10, 79, 0
11, 93440, Note_on_c, 10, 71, 76
11, 93440, Note_on_c, 10, 79, 76
11, 93500, Note_on_c, 10, 71, 0
11, 93500, Note_on_c, 10, 79, 0
11, 93520, Note_on_c, 10, 71, 76
11, 93520, Note_on_c, 10, 79, 76
11, 93580, Note_on_c, 10, 71, 0
11, 93580, Note_on_c, 10, 79, 0
11, 93600, Note_on_c, 10, 71, 77
11, 93600, Note_on_c, 10, 79, 77
11, 93660, Note_on_c, 10, 71, 0
11, 93660, Note_on_c, 10, 79, 0
11, 93680, Note_on_c, 10, 71, 77
11, 93680, Note_on_c, 10, 79, 77
11, 93740, Note_on_c, 10, 71, 0
11, 93740, Note_on_c, 10, 79, 0
11, 93760, Note_on_c, 10, 71, 78
11, 93760, Note_on_c, 10, 79, 78
11, 93820, Note_on_c, 10, 71, 0
11, 93820, Note_on_c, 10, 79, 0
11, 93840, Note_on_c, 10, 71, 78
11, 93840, Note_on_c, 10, 79, 78
11, 93900, Note_on_c, 10, 71, 0
11, 93900, Note_on_c, 10, 79, 0
11, 93920, Note_on_c, 10, 71, 79
11, 93920, Note_on_c, 10, 79, 79
11, 93980, Note_on_c, 10, 71, 0
11, 93980, Note_on_c, 10, 79, 0
11, 94000, Note_on_c, 10, 71, 79
11, 94000, Note_on_c, 10, 79, 79
11, 94060, Note_on_c, 10, 71, 0
11, 94060, Note_on_c, 10, 79, 0
11, 94080, Note_on_c, 10, 72, 80
11, 94080, Note_on_c, 10, 79, 80
11, 94110, Note_on_c, 10, 72, 0
11, 94110, Note_on_c, 10, 79, 0
11, 94120, Note_on_c, 10, 72, 80
11, 94120, Note_on_c, 10, 79, 80
11, 94150, Note_on_c, 10, 72, 0
11, 94150, Note_on_c, 10, 79, 0
11, 94160, Note_on_c, 10, 72, 80
11, 94160, Note_on_c, 10, 79, 80
11, 94190, Note_on_c, 10, 72, 0
11, 94190, Note_on_c, 10, 79, 0
11, 94200, Note_on_c, 10, 72, 80
11, 94200, Note_on_c, 10, 79, 80
11, 94230, Note_on_c, 10, 72, 0
11, 94230, Note_on_c, 10, 79, 0
11, 94240, Note_on_c, 10, 72, 80
11, 94240, Note_on_c, 10, 79, 80
11, 94270, Note_on_c, 10, 72, 0
11, 94270, Note_on_c, 10, 79, 0
11, 94280, Note_on_c, 10, 72, 80
11, 94280, Note_on_c, 10, 79, 80
11, 94310, Note_on_c, 10, 72, 0
11, 94310, Note_on_c, 10, 79, 0
11, 94320, Note_on_c, 10, 72, 80
11, 94320, Note_on_c, 10, 79, 80
11, 94350, Note_on_c, 10, 72, 0
11, 94350, Note_on_c, 10, 79, 0
11, 94360, Note_on_c, 10, 72, 80
11, 94360, Note_on_c, 10, 79, 80
11, 94390, Note_on_c, 10, 72, 0
11, 94390, Note_on_c, 10, 79, 0
11, 94400, Note_on_c, 10, 72, 80
11, 94400, Note_on_c, 10, 79, 80
11, 94430, Note_on_c, 10, 72, 0
11, 94430, Note_on_c, 10, 79, 0
11, 94440, Note_on_c, 10, 72, 80
11, 94440, Note_on_c, 10, 79, 80
11, 94470, Note_on_c, 10, 72, 0
11, 94470, Note_on_c, 10, 79, 0
11, 94480, Note_on_c, 10, 72, 80
11, 94480, Note_on_c, 10, 79, 80
11, 94510, Note_on_c, 10, 72, 0
11, 94510, Note_on_c, 10, 79, 0
11, 94520, Note_on_c, 10, 72, 80
11, 94520, Note_on_c, 10, 79, 80
11, 94550, Note_on_c, 10, 72, 0
11, 94550, Note_on_c, 10, 79, 0
11, 94560, Note_on_c, 10, 72, 80
11, 94560, Note_on_c, 10, 79, 80
11, 94650, Note_on_c, 10, 72, 0
11, 94650, Note_on_c, 10, 79, 0
11, 94800, Note_on_c, 10, 67, 80
11, 94890, Note_on_c, 10, 67, 0
11, 95040, Note_on_c, 10, 72, 80
11, 95040, Note_on_c, 10, 79, 80
11, 95070, Note_on_c, 10, 72, 0
11, 95070, Note_on_c, 10, 79, 0
11, 95080, Note_on_c, 10, 72, 80
11, 95080, Note_on_c, 10, 79, 80
11, 95110, Note_on_c, 10, 72, 0
11, 95110, Note_on_c, 10, 79, 0
11, 95120, Note_on_c, 10, 72, 80
11, 95120, Note_on_c, 10, 79, 80
11, 95150, Note_on_c, 10, 72, 0
11, 95150, Note_on_c, 10, 79, 0
11, 95160, Note_on_c, 10, 72, 80
11, 95160, Note_on_c, 10, 79, 80
11, 95190, Note_on_c, 10, 72, 0
11, 95190, Note_on_c, 10, 79, 0
11, 95200, Note_on_c, 10, 72, 80
11, 95200, Note_on_c, 10, 79, 80
11, 95230, Note_on_c, 10, 72, 0
11, 95230, Note_on_c, 10, 79, 0
11, 95240, Note_on_c, 10, 72, 80
11, 95240, Note_on_c, 10, 79, 80
11, 95270, Note_on_c, 10, 72, 0
11, 95270, Note_on_c, 10, 79, 0
11, 95280, Note_on_c, 10, 72, 80
11, 95280, Note_on_c, 10, 79, 80
11, 95310, Note_on_c, 10, 72, 0
11, 95310, Note_on_c, 10, 79, 0
11, 95320, Note_on_c, 10, 72, 80
11, 95320, Note_on_c, 10, 79, 80
11, 95350, Note_on_c, 10, 72, 0
11, 95350, Note_on_c, 10, 79, 0
11, 95360, Note_on_c, 10, 72, 80
11, 95360, Note_on_c, 10, 79, 80
11, 95390, Note_on_c, 10, 72, 0
11, 95390, Note_on_c, 10, 79, 0
11, 95400, Note_on_c, 10, 72, 80
11, 95400, Note_on_c, 10, 79, 80
11, 95430, Note_on_c, 10, 72, 0
11, 95430, Note_on_c, 10, 79, 0
11, 95440, Note_on_c, 10, 72, 80
11, 95440, Note_on_c, 10, 79, 80
11, 95470, Note_on_c, 10, 72, 0
11, 95470, Note_on_c, 10, 79, 0
11, 95480, Note_on_c, 10, 72, 80
11, 95480, Note_on_c, 10, 79, 80
11, 95510, Note_on_c, 10, 72, 0
11, 95510, Note_on_c, 10, 79, 0
11, 95520, Note_on_c, 10, 72, 80
11, 95520, Note_on_c, 10, 79, 80
11, 95610, Note_on_c, 10, 72, 0
11, 95610, Note_on_c, 10, 79, 0
11, 95760, Note_on_c, 10, 67, 80
11, 95850, Note_on_c, 10, 67, 0
11, 96000, Note_on_c, 10, 64, 80
11, 96000, Note_on_c, 10, 72, 80
11, 96000, Note_on_c, 10, 79, 80
11, 96090, Note_on_c, 10, 64, 0
11, 96090, Note_on_c, 10, 72, 0
11, 96090, Note_on_c, 10, 79, 0
11, 96240, Note_on_c, 10, 67, 80
11, 96330, Note_on_c, 10, 67, 0
11, 96480, Note_on_c, 10, 64, 80
11, 96480, Note_on_c, 10, 72, 80
11, 96480, Note_on_c, 10, 79, 80
11, 96570, Note_on_c, 10, 64, 0
11, 96570, Note_on_c, 10, 72, 0
11, 96570, Note_on_c, 10, 79, 0
11, 96720, Note_on_c, 10, 67, 80
11, 96810, Note_on_c, 10, 67, 0
11, 96960, Note_on_c, 10, 72, 60
11, 96960, Control_c, 10, 11, 80
11, 96970, Control_c, 10, 11, 83
11, 96980, Control_c, 10, 11, 87
11, 96990, Control_c, 10, 11, 91
11, 97000, Control_c, 10, 11, 95
11, 97010, Control_c, 10, 11, 99
11, 97020, Control_c, 10, 11, 103
11, 97030, Control_c, 10, 11, 107
11, 97040, Control_c, 10, 11, 111
11, 97050, Control_c, 10, 11, 115
11, 97060, Control_c, 10, 11, 119
11, 97070, Control_c, 10, 11, 123
11, 97080, Control_c, 10, 11, 127
11, 97100, Control_c, 10, 11, 126
11, 97110, Control_c, 10, 11, 125
11, 97120, Control_c, 10, 11, 124
11, 97140, Control_c, 10, 11, 123
11, 97150, Control_c, 10, 11, 122
11, 97160, Control_c, 10, 11, 121
11, 97170, Control_c, 10, 11, 120
11, 97190, Control_c, 10, 11, 119
11, 97200, Control_c, 10, 11, 118
11, 97210, Control_c, 10, 11, 117
11, 97230, Control_c, 10, 11, 116
11, 97240, Control_c, 10, 11, 115
11, 97250, Control_c, 10, 11, 114
11, 97260, Control_c, 10, 11, 113
11, 97280, Control_c, 10, 11, 112
11, 97290, Control_c, 10, 11, 111
11, 97300, Control_c, 10, 11, 110
11, 97310, Control_c, 10, 11, 109
11, 97330, Control_c, 10, 11, 108
11, 97340, Control_c, 10, 11, 107
11, 97350, Control_c, 10, 11, 106
11, 97370, Control_c, 10, 11, 105
11, 97380, Control_c, 10, 11, 104
11, 97390, Control_c, 10, 11, 103
11, 97400, Control_c, 10, 11, 102
11, 97420, Control_c, 10, 11, 101
11, 97430, Control_c, 10, 11, 100
11, 97440, Control_c, 10, 11, 99
11, 97460, Control_c, 10, 11, 98
11, 97470, Control_c, 10, 11, 97
11, 97480, Control_c, 10, 11, 96
11, 97490, Control_c, 10, 11, 95
11, 97510, Control_c, 10, 11, 94
11, 97520, Control_c, 10, 11, 93
11, 97530, Control_c, 10, 11, 92
11, 97540, Control_c, 10, 11, 91
11, 97560, Control_c, 10, 11, 90
11, 97570, Control_c, 10, 11, 89
11, 97580, Control_c, 10, 11, 88
11, 97600, Control_c, 10, 11, 87
11, 97610, Control_c, 10, 11, 86
11, 97620, Control_c, 10, 11, 85
11, 97630, Control_c, 10, 11, 84
11, 97650, Control_c, 10, 11, 83
11, 97660, Control_c, 10, 11, 82
11, 97670, Control_c, 10, 11, 81
11, 97920, Note_on_c, 10, 68, 50
11, 97950, Note_on_c, 10, 72, 0
11, 98640, Note_on_c, 10, 65, 50
11, 98670, Note_on_c, 10, 68, 0
11, 98850, Note_on_c, 10, 65, 0
11, 98880, Note_on_c, 10, 61, 50
11, 98880, Control_c, 10, 11, 80
11, 98920, Control_c, 10, 11, 82
11, 98950, Control_c, 10, 11, 83
11, 98980, Control_c, 10, 11, 85
11, 99010, Control_c, 10, 11, 86
11, 99040, Control_c, 10, 11, 88
11, 99070, Control_c, 10, 11, 89
11, 99100, Control_c, 10, 11, 91
11, 99120, Note_on_c, 10, 56, 65
11, 99130, Control_c, 10, 11, 92
11, 99150, Note_on_c, 10, 61, 0
11, 99160, Control_c, 10, 11, 94
11, 99190, Control_c, 10, 11, 95
11, 99230, Control_c, 10, 11, 97
11, 99260, Control_c, 10, 11, 99
11, 99290, Control_c, 10, 11, 100
11, 99315, Note_on_c, 10, 56, 0
11, 99320, Control_c, 10, 11, 102
11, 99350, Control_c, 10, 11, 103
11, 99380, Control_c, 10, 11, 105
11, 99410, Control_c, 10, 11, 106
11, 99440, Control_c, 10, 11, 108
11, 99470, Control_c, 10, 11, 109
11, 99500, Control_c, 10, 11, 111
11, 99540, Control_c, 10, 11, 113
11, 99570, Control_c, 10, 11, 114
11, 99600, Control_c, 10, 11, 116
11, 99630, Control_c, 10, 11, 117
11, 99660, Control_c, 10, 11, 119
11, 99690, Control_c, 10, 11, 120
11, 99720, Control_c, 10, 11, 122
11, 99750, Control_c, 10, 11, 124
11, 99780, Control_c, 10, 11, 127
11, 99837, Control_c, 10, 11, 80
11, 101760, Note_on_c, 10, 55, 50
11, 102480, Note_on_c, 10, 55, 0
11, 102720, Note_on_c, 10, 55, 50
11, 103170, Note_on_c, 10, 55, 0
11, 103200, Note_on_c, 10, 55, 50
11, 103650, Note_on_c, 10, 55, 0
11, 103680, Note_on_c, 10, 55, 50
11, 103920, Note_on_c, 10, 66, 50
11, 103950, Note_on_c, 10, 55, 0
11, 104160, Note_on_c, 10, 67, 50
11, 104190, Note_on_c, 10, 66, 0
11, 104400, Note_on_c, 10, 67, 0
11, 104640, Note_on_c, 10, 59, 50
11, 105090, Note_on_c, 10, 59, 0
11, 105600, Note_on_c, 10, 65, 50
11, 105840, Note_on_c, 10, 65, 0
11, 106560, Note_on_c, 10, 64, 50
11, 107010, Note_on_c, 10, 64, 0
11, 107520, Note_on_c, 10, 67, 50
11, 107520, Control_c, 10, 11, 80
11, 107530, Control_c, 10, 11, 83
11, 107540, Control_c, 10, 11, 86
11, 107550, Control_c, 10, 11, 90
11, 107560, Control_c, 10, 11, 93
11, 107570, Control_c, 10, 11, 96
11, 107580, Control_c, 10, 11, 100
11, 107590, Control_c, 10, 11, 103
11, 107600, Control_c, 10, 11, 106
11, 107620, Control_c, 10, 11, 110
11, 107640, Control_c, 10, 11, 109
11, 107650, Control_c, 10, 11, 108
11, 107660, Control_c, 10, 11, 107
11, 107670, Control_c, 10, 11, 106
11, 107690, Control_c, 10, 11, 105
11, 107700, Control_c, 10, 11, 104
11, 107710, Control_c, 10, 11, 103
11, 107720, Control_c, 10, 11, 102
11, 107740, Control_c, 10, 11, 101
11, 107750, Control_c, 10, 11, 100
11, 107760, Control_c, 10, 11, 99
11, 107770, Control_c, 10, 11, 98
11, 107780, Control_c, 10, 11, 97
11, 107800, Control_c, 10, 11, 96
11, 107810, Control_c, 10, 11, 95
11, 107820, Control_c, 10, 11, 94
11, 107830, Control_c, 10, 11, 93
11, 107850, Control_c, 10, 11, 92
11, 107860, Control_c, 10, 11, 91
11, 107870, Control_c, 10, 11, 90
11, 107880, Control_c, 10, 11, 89
11, 107890, Control_c, 10, 11, 88
11, 107910, Control_c, 10, 11, 87
11, 107920, Control_c, 10, 11, 86
11, 107930, Control_c, 10, 11, 85
11, 107940, Control_c, 10, 11, 84
11, 107960, Control_c, 10, 11, 83
11, 107970, Control_c, 10, 11, 82
11, 107980, Control_c, 10, 11, 81
11, 107990, Control_c, 10, 11, 80
11, 108240, Note_on_c, 10, 60, 50
11, 108253, Note_on_c, 10, 67, 0
11, 108450, Note_on_c, 10, 60, 0
11, 108480, Note_on_c, 10, 60, 50
11, 108690, Note_on_c, 10, 60, 0
11, 108720, Note_on_c, 10, 61, 50
11, 108780, Note_on_c, 10, 61, 0
11, 108840, Note_on_c, 10, 58, 50
11, 108900, Note_on_c, 10, 58, 0
11, 108960, Note_on_c, 10, 56, 55
11, 109200, Note_on_c, 10, 58, 60
11, 109230, Note_on_c, 10, 56, 0
11, 109380, Note_on_c, 10, 55, 65
11, 109410, Note_on_c, 10, 58, 0
11, 109440, Note_on_c, 10, 55, 0
11, 109440, Note_on_c, 10, 56, 75
11, 109680, Note_on_c, 10, 56, 0
11, 109680, Note_on_c, 10, 65, 75
11, 109920, Note_on_c, 10, 67, 75
11, 109950, Note_on_c, 10, 65, 0
11, 110160, Note_on_c, 10, 68, 75
11, 110190, Note_on_c, 10, 67, 0
11, 110370, Note_on_c, 10, 68, 0
11, 110400, Note_on_c, 10, 70, 75
11, 111120, Note_on_c, 10, 68, 75
11, 111140, Note_on_c, 10, 68, 0
11, 111140, Note_on_c, 10, 70, 75
11, 111150, Note_on_c, 10, 70, 0
11, 111150, Note_on_c, 10, 70, 0
11, 111160, Note_on_c, 10, 68, 75
11, 111180, Note_on_c, 10, 68, 0
11, 111180, Note_on_c, 10, 70, 75
11, 111200, Note_on_c, 10, 68, 75
11, 111200, Note_on_c, 10, 70, 0
11, 111220, Note_on_c, 10, 68, 0
11, 111220, Note_on_c, 10, 70, 75
11, 111240, Note_on_c, 10, 68, 75
11, 111240, Note_on_c, 10, 70, 0
11, 111260, Note_on_c, 10, 68, 0
11, 111260, Note_on_c, 10, 70, 75
11, 111280, Note_on_c, 10, 68, 75
11, 111280, Note_on_c, 10, 70, 0
11, 111300, Note_on_c, 10, 67, 75
11, 111300, Note_on_c, 10, 68, 0
11, 111330, Note_on_c, 10, 68, 75
11, 111335, Note_on_c, 10, 67, 0
11, 111360, Note_on_c, 10, 67, 75
11, 111360, Note_on_c, 10, 68, 0
11, 111600, Note_on_c, 10, 73, 75
11, 111630, Note_on_c, 10, 67, 0
11, 111840, Note_on_c, 10, 72, 75
11, 111870, Note_on_c, 10, 73, 0
11, 112080, Note_on_c, 10, 70, 75
11, 112110, Note_on_c, 10, 72, 0
11, 112290, Note_on_c, 10, 70, 0
11, 112320, Note_on_c, 10, 68, 75
11, 112440, Note_on_c, 10, 70, 75
11, 112455, Note_on_c, 10, 68, 0
11, 112530, Note_on_c, 10, 70, 0
11, 112560, Note_on_c, 10, 68, 75
11, 112620, Note_on_c, 10, 68, 0
11, 112680, Note_on_c, 10, 67, 75
11, 112740, Note_on_c, 10, 67, 0
11, 112800, Note_on_c, 10, 65, 75
11, 112860, Note_on_c, 10, 65, 0
11, 112920, Note_on_c, 10, 63, 75
11, 112980, Note_on_c, 10, 63, 0
11, 113040, Note_on_c, 10, 62, 75
11, 113100, Note_on_c, 10, 62, 0
11, 113160, Note_on_c, 10, 60, 75
11, 113220, Note_on_c, 10, 60, 0
11, 113280, Note_on_c, 10, 59, 75
11, 113340, Note_on_c, 10, 59, 0
11, 113400, Note_on_c, 10, 60, 75
11, 113460, Note_on_c, 10, 60, 0
11, 113520, Note_on_c, 10, 62, 75
11, 113580, Note_on_c, 10, 62, 0
11, 113640, Note_on_c, 10, 60, 75
11, 113700, Note_on_c, 10, 60, 0
11, 113760, Note_on_c, 10, 59, 75
11, 113820, Note_on_c, 10, 59, 0
11, 113880, Note_on_c, 10, 55, 75
11, 113940, Note_on_c, 10, 55, 0
11, 114000, Note_on_c, 10, 60, 75
11, 114060, Note_on_c, 10, 60, 0
11, 114120, Note_on_c, 10, 55, 75
11, 114180, Note_on_c, 10, 55, 0
11, 114240, Note_on_c, 10, 65, 75
11, 114300, Note_on_c, 10, 65, 0
11, 114360, Note_on_c, 10, 55, 75
11, 114420, Note_on_c, 10, 55, 0
11, 114480, Note_on_c, 10, 65, 75
11, 114540, Note_on_c, 10, 65, 0
11, 114600, Note_on_c, 10, 55, 75
11, 114660, Note_on_c, 10, 55, 0
11, 114720, Note_on_c, 10, 63, 75
11, 114780, Note_on_c, 10, 63, 0
11, 114840, Note_on_c, 10, 55, 75
11, 114900, Note_on_c, 10, 55, 0
11, 114960, Note_on_c, 10, 62, 75
11, 115020, Note_on_c, 10, 62, 0
11, 115080, Note_on_c, 10, 55, 75
11, 115140, Note_on_c, 10, 55, 0
11, 115200, Note_on_c, 10, 60, 75
11, 115260, Note_on_c, 10, 60, 0
11, 115320, Note_on_c, 10, 72, 75
11, 115380, Note_on_c, 10, 72, 0
11, 115440, Note_on_c, 10, 70, 75
11, 115500, Note_on_c, 10, 70, 0
11, 115560, Note_on_c, 10, 72, 75
11, 115620, Note_on_c, 10, 72, 0
11, 115680, Note_on_c, 10, 68, 75
11, 115740, Note_on_c, 10, 68, 0
11, 115800, Note_on_c, 10, 72, 75
11, 115860, Note_on_c, 10, 72, 0
11, 115920, Note_on_c, 10, 67, 75
11, 115980, Note_on_c, 10, 67, 0
11, 116040, Note_on_c, 10, 72, 75
11, 116100, Note_on_c, 10, 72, 0
11, 116160, Note_on_c, 10, 65, 75
11, 116400, Note_on_c, 10, 65, 0
11, 119280, Note_on_c, 10, 60, 75
11, 119760, Note_on_c, 10, 62, 75
11, 119790, Note_on_c, 10, 60, 0
11, 119880, Note_on_c, 10, 63, 75
11, 119910, Note_on_c, 10, 62, 0
11, 119970, Note_on_c, 10, 63, 0
11, 120000, Note_on_c, 10, 65, 75
11, 120210, Note_on_c, 10, 65, 0
11, 120240, Note_on_c, 10, 74, 75
11, 120330, Note_on_c, 10, 74, 0
11, 120480, Note_on_c, 10, 67, 75
11, 120570, Note_on_c, 10, 67, 0
11, 120720, Note_on_c, 10, 79, 75
11, 120810, Note_on_c, 10, 79, 0
11, 120960, Note_on_c, 10, 72, 75
11, 121890, Note_on_c, 10, 72, 0
11, 121920, Note_on_c, 10, 68, 75
11, 121920, Control_c, 10, 11, 80
11, 121930, Control_c, 10, 11, 81
11, 121940, Control_c, 10, 11, 83
11, 121950, Control_c, 10, 11, 85
11, 121960, Control_c, 10, 11, 86
11, 121970, Control_c, 10, 11, 88
11, 121980, Control_c, 10, 11, 90
11, 121990, Control_c, 10, 11, 91
11, 122000, Control_c, 10, 11, 93
11, 122020, Control_c, 10, 11, 95
11, 122050, Control_c, 10, 11, 94
11, 122070, Control_c, 10, 11, 93
11, 122100, Control_c, 10, 11, 92
11, 122120, Control_c, 10, 11, 91
11, 122140, Control_c, 10, 11, 90
11, 122170, Control_c, 10, 11, 89
11, 122190, Control_c, 10, 11, 88
11, 122210, Control_c, 10, 11, 87
11, 122240, Control_c, 10, 11, 86
11, 122260, Control_c, 10, 11, 85
11, 122290, Control_c, 10, 11, 84
11, 122310, Control_c, 10, 11, 83
11, 122330, Control_c, 10, 11, 82
11, 122360, Control_c, 10, 11, 81
11, 122380, Control_c, 10, 11, 80
11, 122850, Note_on_c, 10, 68, 0
11, 122880, Note_on_c, 10, 71, 75
11, 122880, Control_c, 10, 11, 80
11, 122890, Control_c, 10, 11, 81
11, 122900, Control_c, 10, 11, 83
11, 122910, Control_c, 10, 11, 85
11, 122920, Control_c, 10, 11, 86
11, 122930, Control_c, 10, 11, 88
11, 122940, Control_c, 10, 11, 90
11, 122950, Control_c, 10, 11, 91
11, 122960, Control_c, 10, 11, 93
11, 122980, Control_c, 10, 11, 95
11, 123010, Control_c, 10, 11, 94
11, 123030, Control_c, 10, 11, 93
11, 123060, Control_c, 10, 11, 92
11, 123080, Control_c, 10, 11, 91
11, 123100, Control_c, 10, 11, 90
11, 123130, Control_c, 10, 11, 89
11, 123150, Control_c, 10, 11, 88
11, 123170, Control_c, 10, 11, 87
11, 123200, Control_c, 10, 11, 86
11, 123220, Control_c, 10, 11, 85
11, 123250, Control_c, 10, 11, 84
11, 123270, Control_c, 10, 11, 83
11, 123290, Control_c, 10, 11, 82
11, 123320, Control_c, 10, 11, 81
11, 123340, Control_c, 10, 11, 80
11, 123570, Note_on_c, 10, 71, 0
11, 123600, Note_on_c, 10, 71, 75
11, 123620, Note_on_c, 10, 71, 0
11, 123620, Note_on_c, 10, 72, 75
11, 123640, Note_on_c, 10, 71, 75
11, 123640, Note_on_c, 10, 72, 0
11, 123660, Note_on_c, 10, 71, 0
11, 123660, Note_on_c, 10, 72, 75
11, 123680, Note_on_c, 10, 71, 75
11, 123680, Note_on_c, 10, 72, 0
11, 123700, Note_on_c, 10, 71, 0
11, 123700, Note_on_c, 10, 72, 75
11, 123720, Note_on_c, 10, 71, 75
11, 123720, Note_on_c, 10, 72, 0
11, 123740, Note_on_c, 10, 71, 0
11, 123740, Note_on_c, 10, 72, 75
11, 123760, Note_on_c, 10, 72, 0
11, 123780, Note_on_c, 10, 69, 75
11, 123810, Note_on_c, 10, 71, 75
11, 123815, Note_on_c, 10, 69, 0
11, 123840, Note_on_c, 10, 71, 0
11, 123840, Note_on_c, 10, 72, 75
11, 123900, Note_on_c, 10, 72, 0
11, 123960, Note_on_c, 10, 67, 75
11, 124020, Note_on_c, 10, 67, 0
11, 124080, Note_on_c, 10, 64, 75
11, 124140, Note_on_c, 10, 64, 0
11, 124200, Note_on_c, 10, 65, 75
11, 124260, Note_on_c, 10, 65, 0
11, 124320, Note_on_c, 10, 67, 75
11, 124380, Note_on_c, 10, 67, 0
11, 124440, Note_on_c, 10, 76, 78
11, 124500, Note_on_c, 10, 76, 0
11, 124560, Note_on_c, 10, 77, 81
11, 124620, Note_on_c, 10, 77, 0
11, 124680, Note_on_c, 10, 79, 85
11, 124740, Note_on_c, 10, 79, 0
11, 124800, Note_on_c, 10, 72, 90
11, 125040, Note_on_c, 10, 72, 0
11, 125280, Note_on_c, 10, 77, 90
11, 125730, Note_on_c, 10, 77, 0
11, 125760, Note_on_c, 10, 73, 90
11, 126690, Note_on_c, 10, 73, 0
11, 126720, Note_on_c, 10, 76, 90
11, 127410, Note_on_c, 10, 76, 0
11, 127440, Note_on_c, 10, 76, 90
11, 127460, Note_on_c, 10, 76, 0
11, 127460, Note_on_c, 10, 77, 90
11, 127480, Note_on_c, 10, 76, 90
11, 127480, Note_on_c, 10, 77, 0
11, 127500, Note_on_c, 10, 76, 0
11, 127500, Note_on_c, 10, 77, 90
11, 127520, Note_on_c, 10, 76, 90
11, 127520, Note_on_c, 10, 77, 0
11, 127540, Note_on_c, 10, 76, 0
11, 127540, Note_on_c, 10, 77, 90
11, 127560, Note_on_c, 10, 76, 90
11, 127560, Note_on_c, 10, 77, 0
11, 127580, Note_on_c, 10, 76, 0
11, 127580, Note_on_c, 10, 77, 90
11, 127600, Note_on_c, 10, 77, 0
11, 127620, Note_on_c, 10, 74, 90
11, 127650, Note_on_c, 10, 76, 90
11, 127655, Note_on_c, 10, 74, 0
11, 127680, Note_on_c, 10, 76, 0
11, 127680, Note_on_c, 10, 77, 90
11, 128370, Note_on_c, 10, 77, 0
11, 128400, Note_on_c, 10, 75, 90
11, 128610, Note_on_c, 10, 75, 0
11, 128640, Note_on_c, 10, 74, 90
11, 128850, Note_on_c, 10, 74, 0
11, 128880, Note_on_c, 10, 74, 90
11, 129120, Note_on_c, 10, 75, 90
11, 129210, Note_on_c, 10, 74, 0
11, 129360, Note_on_c, 10, 77, 90
11, 129450, Note_on_c, 10, 75, 0
11, 129600, Note_on_c, 10, 79, 90
11, 129630, Note_on_c, 10, 77, 0
11, 129690, Note_on_c, 10, 79, 0
11, 129720, Note_on_c, 10, 68, 90
11, 129780, Note_on_c, 10, 68, 0
11, 129840, Note_on_c, 10, 67, 90
11, 129900, Note_on_c, 10, 67, 0
11, 129960, Note_on_c, 10, 65, 90
11, 130020, Note_on_c, 10, 65, 0
11, 130080, Note_on_c, 10, 63, 90
11, 130140, Note_on_c, 10, 63, 0
11, 130200, Note_on_c, 10, 62, 90
11, 130260, Note_on_c, 10, 62, 0
11, 130320, Note_on_c, 10, 60, 90
11, 130380, Note_on_c, 10, 60, 0
11, 130440, Note_on_c, 10, 58, 90
11, 130500, Note_on_c, 10, 58, 0
11, 130560, Note_on_c, 10, 56, 90
11, 130800, Note_on_c, 10, 56, 0
11, 131640, Note_on_c, 10, 70, 90
11, 131700, Note_on_c, 10, 70, 0
11, 131760, Note_on_c, 10, 68, 90
11, 131820, Note_on_c, 10, 68, 0
11, 131880, Note_on_c, 10, 67, 90
11, 131940, Note_on_c, 10, 67, 0
11, 132000, Note_on_c, 10, 65, 90
11, 132060, Note_on_c, 10, 65, 0
11, 132120, Note_on_c, 10, 63, 90
11, 132180, Note_on_c, 10, 63, 0
11, 132240, Note_on_c, 10, 62, 90
11, 132300, Note_on_c, 10, 62, 0
11, 132360, Note_on_c, 10, 60, 90
11, 132420, Note_on_c, 10, 60, 0
11, 132480, Note_on_c, 10, 58, 90
11, 132960, Note_on_c, 10, 58, 0
11, 133680, Note_on_c, 10, 79, 90
11, 134130, Note_on_c, 10, 79, 0
11, 134160, Note_on_c, 10, 77, 90
11, 134250, Note_on_c, 10, 77, 0
11, 134400, Note_on_c, 10, 75, 90
11, 134490, Note_on_c, 10, 75, 0
11, 134880, Note_on_c, 10, 75, 90
11, 135600, Note_on_c, 10, 72, 90
11, 135630, Note_on_c, 10, 75, 0
11, 135720, Note_on_c, 10, 70, 90
11, 135750, Note_on_c, 10, 72, 0
11, 135810, Note_on_c, 10, 70, 0
11, 135840, Note_on_c, 10, 68, 90
11, 136080, Note_on_c, 10, 68, 0
11, 136800, Note_on_c, 10, 77, 90
11, 137490, Note_on_c, 10, 77, 0
11, 137520, Note_on_c, 10, 74, 90
11, 137640, Note_on_c, 10, 72, 90
11, 137670, Note_on_c, 10, 74, 0
11, 137730, Note_on_c, 10, 72, 0
11, 137760, Note_on_c, 10, 71, 90
11, 137970, Note_on_c, 10, 71, 0
11, 138000, Note_on_c, 10, 71, 90
11, 138240, Note_on_c, 10, 72, 90
11, 138270, Note_on_c, 10, 71, 0
11, 138330, Note_on_c, 10, 72, 0
11, 138360, Note_on_c, 10, 66, 90
11, 138420, Note_on_c, 10, 66, 0
11, 138480, Note_on_c, 10, 67, 90
11, 138540, Note_on_c, 10, 67, 0
11, 138600, Note_on_c, 10, 69, 90
11, 138660, Note_on_c, 10, 69, 0
11, 138720, Note_on_c, 10, 70, 90
11, 138780, Note_on_c, 10, 70, 0
11, 138840, Note_on_c, 10, 71, 90
11, 138900, Note_on_c, 10, 71, 0
11, 138960, Note_on_c, 10, 72, 90
11, 139020, Note_on_c, 10, 72, 0
11, 139080, Note_on_c, 10, 73, 90
11, 139140, Note_on_c, 10, 73, 0
11, 139200, Note_on_c, 10, 74, 90
11, 139890, Note_on_c, 10, 74, 0
11, 139920, Note_on_c, 10, 76, 90
11, 140040, Note_on_c, 10, 78, 90
11, 140070, Note_on_c, 10, 76, 0
11, 140130, Note_on_c, 10, 78, 0
11, 140160, Note_on_c, 10, 79, 90
11, 140400, Note_on_c, 10, 81, 90
11, 140430, Note_on_c, 10, 79, 0
11, 140520, Note_on_c, 10, 82, 90
11, 140550, Note_on_c, 10, 81, 0
11, 140640, Note_on_c, 10, 84, 90
11, 140670, Note_on_c, 10, 82, 0
11, 140880, Note_on_c, 10, 80, 90
11, 140910, Note_on_c, 10, 84, 0
11, 141000, Note_on_c, 10, 79, 90
11, 141030, Note_on_c, 10, 80, 0
11, 141090, Note_on_c, 10, 79, 0
11, 141120, Note_on_c, 10, 78, 90
11, 141360, Note_on_c, 10, 79, 90
11, 141390, Note_on_c, 10, 78, 0
11, 141480, Note_on_c, 10, 81, 90
11, 141510, Note_on_c, 10, 79, 0
11, 141600, Note_on_c, 10, 82, 90
11, 141630, Note_on_c, 10, 81, 0
11, 141840, Note_on_c, 10, 79, 90
11, 141870, Note_on_c, 10, 82, 0
11, 141960, Note_on_c, 10, 77, 90
11, 141990, Note_on_c, 10, 79, 0
11, 142050, Note_on_c, 10, 77, 0
11, 142080, Note_on_c, 10, 76, 90
11, 142320, Note_on_c, 10, 78, 90
11, 142350, Note_on_c, 10, 76, 0
11, 142440, Note_on_c, 10, 79, 90
11, 142470, Note_on_c, 10, 78, 0
11, 142560, Note_on_c, 10, 81, 90
11, 142590, Note_on_c, 10, 79, 0
11, 142800, Note_on_c, 10, 77, 90
11, 142830, Note_on_c, 10, 81, 0
11, 142920, Note_on_c, 10, 75, 90
11, 142950, Note_on_c, 10, 77, 0
11, 143010, Note_on_c, 10, 75, 0
11, 143040, Note_on_c, 10, 74, 90
11, 143100, Note_on_c, 10, 74, 0
11, 143120, Note_on_c, 10, 81, 90
11, 143180, Note_on_c, 10, 81, 0
11, 143200, Note_on_c, 10, 81, 90
11, 143260, Note_on_c, 10, 81, 0
11, 143280, Note_on_c, 10, 81, 90
11, 143340, Note_on_c, 10, 81, 0
11, 143360, Note_on_c, 10, 79, 90
11, 143420, Note_on_c, 10, 79, 0
11, 143440, Note_on_c, 10, 79, 90
11, 143500, Note_on_c, 10, 79, 0
11, 143520, Note_on_c, 10, 79, 90
11, 143580, Note_on_c, 10, 79, 0
11, 143600, Note_on_c, 10, 79, 90
11, 143660, Note_on_c, 10, 79, 0
11, 143680, Note_on_c, 10, 79, 90
11, 143740, Note_on_c, 10, 79, 0
11, 143760, Note_on_c, 10, 79, 90
11, 143820, Note_on_c, 10, 79, 0
11, 143840, Note_on_c, 10, 79, 90
11, 143900, Note_on_c, 10, 79, 0
11, 143920, Note_on_c, 10, 79, 90
11, 143980, Note_on_c, 10, 79, 0
11, 144000, Note_on_c, 10, 70, 90
11, 144000, Note_on_c, 10, 79, 90
11, 144090, Note_on_c, 10, 70, 0
11, 144090, Note_on_c, 10, 79, 0
11, 144480, Note_on_c, 10, 64, 90
11, 145050, Note_on_c, 10, 64, 0
11, 145200, Note_on_c, 10, 64, 90
11, 145290, Note_on_c, 10, 64, 0
11, 145440, Note_on_c, 10, 64, 90
11, 145530, Note_on_c, 10, 64, 0
11, 145680, Note_on_c, 10, 64, 90
11, 145770, Note_on_c, 10, 64, 0
11, 146880, Note_on_c, 10, 62, 70
11, 147600, Note_on_c, 10, 60, 70
11, 147630, Note_on_c, 10, 62, 0
11, 147840, Note_on_c, 10, 58, 50
11, 147870, Note_on_c, 10, 60, 0
11, 148290, Note_on_c, 10, 58, 0
11, 148800, Note_on_c, 10, 58, 50
11, 148800, Note_on_c, 10, 62, 50
11, 149280, Note_on_c, 10, 58, 0
11, 149280, Note_on_c, 10, 62, 0
11, 149760, Note_on_c, 10, 59, 50
11, 149760, Note_on_c, 10, 62, 50
11, 150240, Note_on_c, 10, 59, 0
11, 150240, Note_on_c, 10, 62, 0
11, 155600, Note_on_c, 10, 60, 65
11, 155600, Note_on_c, 10, 63, 65
11, 155660, Note_on_c, 10, 60, 0
11, 155660, Note_on_c, 10, 63, 0
11, 155680, Note_on_c, 10, 60, 65
11, 155680, Note_on_c, 10, 63, 65
11, 155740, Note_on_c, 10, 60, 0
11, 155740, Note_on_c, 10, 63, 0
11, 155760, Note_on_c, 10, 60, 65
11, 155760, Note_on_c, 10, 63, 65
11, 155820, Note_on_c, 10, 60, 0
11, 155820, Note_on_c, 10, 63, 0
11, 155840, Note_on_c, 10, 60, 65
11, 155840, Note_on_c, 10, 63, 65
11, 155900, Note_on_c, 10, 60, 0
11, 155900, Note_on_c, 10, 63, 0
11, 155920, Note_on_c, 10, 60, 65
11, 155920, Note_on_c, 10, 63, 65
11, 155980, Note_on_c, 10, 60, 0
11, 155980, Note_on_c, 10, 63, 0
11, 156000, Note_on_c, 10, 60, 65
11, 156000, Note_on_c, 10, 63, 65
11, 156060, Note_on_c, 10, 60, 0
11, 156060, Note_on_c, 10, 63, 0
11, 156080, Note_on_c, 10, 60, 65
11, 156080, Note_on_c, 10, 63, 65
11, 156140, Note_on_c, 10, 60, 0
11, 156140, Note_on_c, 10, 63, 0
11, 156160, Note_on_c, 10, 60, 65
11, 156160, Note_on_c, 10, 63, 65
11, 156220, Note_on_c, 10, 60, 0
11, 156220, Note_on_c, 10, 63, 0
11, 156240, Note_on_c, 10, 60, 65
11, 156240, Note_on_c, 10, 63, 65
11, 156300, Note_on_c, 10, 60, 0
11, 156300, Note_on_c, 10, 63, 0
11, 156320, Note_on_c, 10, 60, 65
11, 156320, Note_on_c, 10, 63, 65
11, 156380, Note_on_c, 10, 60, 0
11, 156380, Note_on_c, 10, 63, 0
11, 156400, Note_on_c, 10, 60, 65
11, 156400, Note_on_c, 10, 63, 65
11, 156460, Note_on_c, 10, 60, 0
11, 156460, Note_on_c, 10, 63, 0
11, 156480, Note_on_c, 10, 60, 65
11, 156540, Note_on_c, 10, 60, 0
11, 156560, Note_on_c, 10, 60, 65
11, 156620, Note_on_c, 10, 60, 0
11, 156640, Note_on_c, 10, 60, 65
11, 156700, Note_on_c, 10, 60, 0
11, 156720, Note_on_c, 10, 60, 65
11, 156780, Note_on_c, 10, 60, 0
11, 156800, Note_on_c, 10, 60, 65
11, 156860, Note_on_c, 10, 60, 0
11, 156880, Note_on_c, 10, 60, 65
11, 156940, Note_on_c, 10, 60, 0
11, 156960, Note_on_c, 10, 60, 65
11, 157020, Note_on_c, 10, 60, 0
11, 157040, Note_on_c, 10, 60, 65
11, 157100, Note_on_c, 10, 60, 0
11, 157120, Note_on_c, 10, 60, 65
11, 157180, Note_on_c, 10, 60, 0
11, 157200, Note_on_c, 10, 60, 65
11, 157260, Note_on_c, 10, 60, 0
11, 157280, Note_on_c, 10, 60, 65
11, 157340, Note_on_c, 10, 60, 0
11, 157360, Note_on_c, 10, 60, 65
11, 157420, Note_on_c, 10, 60, 0
11, 157440, Note_on_c, 10, 60, 65
11, 157680, Note_on_c, 10, 60, 0
11, 157920, Note_on_c, 10, 57, 95
11, 157965, Note_on_c, 10, 57, 0
11, 158000, Note_on_c, 10, 60, 94
11, 158045, Note_on_c, 10, 60, 0
11, 158080, Note_on_c, 10, 63, 92
11, 158125, Note_on_c, 10, 63, 0
11, 158160, Note_on_c, 10, 66, 91
11, 158205, Note_on_c, 10, 66, 0
11, 158240, Note_on_c, 10, 69, 89
11, 158285, Note_on_c, 10, 69, 0
11, 158320, Note_on_c, 10, 72, 87
11, 158365, Note_on_c, 10, 72, 0
11, 158400, Note_on_c, 10, 75, 86
11, 158445, Note_on_c, 10, 75, 0
11, 158480, Note_on_c, 10, 63, 65
11, 158540, Note_on_c, 10, 63, 0
11, 158560, Note_on_c, 10, 63, 65
11, 158560, Note_on_c, 10, 72, 65
11, 158620, Note_on_c, 10, 63, 0
11, 158620, Note_on_c, 10, 72, 0
11, 158640, Note_on_c, 10, 63, 65
11, 158640, Note_on_c, 10, 72, 65
11, 158700, Note_on_c, 10, 63, 0
11, 158700, Note_on_c, 10, 72, 0
11, 158720, Note_on_c, 10, 63, 65
11, 158720, Note_on_c, 10, 72, 65
11, 158780, Note_on_c, 10, 63, 0
11, 158780, Note_on_c, 10, 72, 0
11, 158800, Note_on_c, 10, 63, 65
11, 158800, Note_on_c, 10, 72, 65
11, 158860, Note_on_c, 10, 63, 0
11, 158860, Note_on_c, 10, 72, 0
11, 158880, Note_on_c, 10, 63, 65
11, 158880, Note_on_c, 10, 72, 65
11, 158940, Note_on_c, 10, 63, 0
11, 158940, Note_on_c, 10, 72, 0
11, 158960, Note_on_c, 10, 63, 65
11, 158960, Note_on_c, 10, 72, 65
11, 159020, Note_on_c, 10, 63, 0
11, 159020, Note_on_c, 10, 72, 0
11, 159040, Note_on_c, 10, 63, 65
11, 159040, Note_on_c, 10, 72, 65
11, 159100, Note_on_c, 10, 63, 0
11, 159100, Note_on_c, 10, 72, 0
11, 159120, Note_on_c, 10, 63, 65
11, 159120, Note_on_c, 10, 72, 65
11, 159180, Note_on_c, 10, 63, 0
11, 159180, Note_on_c, 10, 72, 0
11, 159200, Note_on_c, 10, 63, 65
11, 159200, Note_on_c, 10, 72, 65
11, 159260, Note_on_c, 10, 63, 0
11, 159260, Note_on_c, 10, 72, 0
11, 159280, Note_on_c, 10, 63, 65
11, 159280, Note_on_c, 10, 72, 65
11, 159340, Note_on_c, 10, 63, 0
11, 159340, Note_on_c, 10, 72, 0
11, 159840, Note_on_c, 10, 56, 95
11, 159885, Note_on_c, 10, 56, 0
11, 159920, Note_on_c, 10, 59, 94
11, 159965, Note_on_c, 10, 59, 0
11, 160000, Note_on_c, 10, 62, 92
11, 160045, Note_on_c, 10, 62, 0
11, 160080, Note_on_c, 10, 65, 90
11, 160125, Note_on_c, 10, 65, 0
11, 160160, Note_on_c, 10, 68, 89
11, 160205, Note_on_c, 10, 68, 0
11, 160240, Note_on_c, 10, 71, 87
11, 160285, Note_on_c, 10, 71, 0
11, 160320, Note_on_c, 10, 74, 85
11, 160365, Note_on_c, 10, 74, 0
11, 160400, Note_on_c, 10, 59, 65
11, 160400, Note_on_c, 10, 62, 65
11, 160460, Note_on_c, 10, 59, 0
11, 160460, Note_on_c, 10, 62, 0
11, 160480, Note_on_c, 10, 59, 65
11, 160480, Note_on_c, 10, 62, 65
11, 160540, Note_on_c, 10, 59, 0
11, 160540, Note_on_c, 10, 62, 0
11, 160560, Note_on_c, 10, 59, 65
11, 160560, Note_on_c, 10, 62, 65
11, 160620, Note_on_c, 10, 59, 0
11, 160620, Note_on_c, 10, 62, 0
11, 160640, Note_on_c, 10, 59, 65
11, 160640, Note_on_c, 10, 62, 65
11, 160700, Note_on_c, 10, 59, 0
11, 160700, Note_on_c, 10, 62, 0
11, 160720, Note_on_c, 10, 59, 65
11, 160720, Note_on_c, 10, 62, 65
11, 160780, Note_on_c, 10, 59, 0
11, 160780, Note_on_c, 10, 62, 0
11, 160800, Note_on_c, 10, 59, 65
11, 160800, Note_on_c, 10, 62, 65
11, 160860, Note_on_c, 10, 59, 0
11, 160860, Note_on_c, 10, 62, 0
11, 160880, Note_on_c, 10, 59, 65
11, 160880, Note_on_c, 10, 62, 65
11, 160940, Note_on_c, 10, 59, 0
11, 160940, Note_on_c, 10, 62, 0
11, 160960, Note_on_c, 10, 59, 65
11, 160960, Note_on_c, 10, 62, 65
11, 161020, Note_on_c, 10, 59, 0
11, 161020, Note_on_c, 10, 62, 0
11, 161040, Note_on_c, 10, 59, 65
11, 161040, Note_on_c, 10, 62, 65
11, 161100, Note_on_c, 10, 59, 0
11, 161100, Note_on_c, 10, 62, 0
11, 161120, Note_on_c, 10, 59, 65
11, 161120, Note_on_c, 10, 62, 65
11, 161180, Note_on_c, 10, 59, 0
11, 161180, Note_on_c, 10, 62, 0
11, 161200, Note_on_c, 10, 59, 65
11, 161200, Note_on_c, 10, 62, 65
11, 161260, Note_on_c, 10, 59, 0
11, 161260, Note_on_c, 10, 62, 0
11, 161280, Note_on_c, 10, 59, 65
11, 161280, Note_on_c, 10, 62, 65
11, 161340, Note_on_c, 10, 59, 0
11, 161340, Note_on_c, 10, 62, 0
11, 161360, Note_on_c, 10, 55, 64
11, 161360, Note_on_c, 10, 65, 64
11, 161420, Note_on_c, 10, 55, 0
11, 161420, Note_on_c, 10, 65, 0
11, 161440, Note_on_c, 10, 55, 63
11, 161440, Note_on_c, 10, 65, 63
11, 161500, Note_on_c, 10, 55, 0
11, 161500, Note_on_c, 10, 65, 0
11, 161520, Note_on_c, 10, 55, 62
11, 161520, Note_on_c, 10, 65, 62
11, 161580, Note_on_c, 10, 55, 0
11, 161580, Note_on_c, 10, 65, 0
11, 161600, Note_on_c, 10, 55, 61
11, 161600, Note_on_c, 10, 65, 61
11, 161660, Note_on_c, 10, 55, 0
11, 161660, Note_on_c, 10, 65, 0
11, 161680, Note_on_c, 10, 55, 60
11, 161680, Note_on_c, 10, 65, 60
11, 161740, Note_on_c, 10, 55, 0
11, 161740, Note_on_c, 10, 65, 0
11, 161760, Note_on_c, 10, 55, 58
11, 161760, Note_on_c, 10, 65, 58
11, 161820, Note_on_c, 10, 55, 0
11, 161820, Note_on_c, 10, 65, 0
11, 161840, Note_on_c, 10, 55, 57
11, 161840, Note_on_c, 10, 65, 57
11, 161900, Note_on_c, 10, 55, 0
11, 161900, Note_on_c, 10, 65, 0
11, 161920, Note_on_c, 10, 55, 56
11, 161920, Note_on_c, 10, 65, 56
11, 161980, Note_on_c, 10, 55, 0
11, 161980, Note_on_c, 10, 65, 0
11, 162000, Note_on_c, 10, 55, 55
11, 162000, Note_on_c, 10, 65, 55
11, 162060, Note_on_c, 10, 55, 0
11, 162060, Note_on_c, 10, 65, 0
11, 162080, Note_on_c, 10, 55, 54
11, 162080, Note_on_c, 10, 65, 54
11, 162140, Note_on_c, 10, 55, 0
11, 162140, Note_on_c, 10, 65, 0
11, 162160, Note_on_c, 10, 55, 53
11, 162160, Note_on_c, 10, 65, 53
11, 162220, Note_on_c, 10, 55, 0
11, 162220, Note_on_c, 10, 65, 0
11, 162240, Note_on_c, 10, 55, 51
11, 162240, Note_on_c, 10, 65, 51
11, 162300, Note_on_c, 10, 55, 0
11, 162300, Note_on_c, 10, 65, 0
11, 162320, Note_on_c, 10, 55, 50
11, 162320, Note_on_c, 10, 65, 50
11, 162380, Note_on_c, 10, 55, 0
11, 162380, Note_on_c, 10, 65, 0
11, 162400, Note_on_c, 10, 55, 50
11, 162400, Note_on_c, 10, 65, 50
11, 162460, Note_on_c, 10, 55, 0
11, 162460, Note_on_c, 10, 65, 0
11, 162480, Note_on_c, 10, 55, 50
11, 162480, Note_on_c, 10, 65, 50
11, 162540, Note_on_c, 10, 55, 0
11, 162540, Note_on_c, 10, 65, 0
11, 162560, Note_on_c, 10, 55, 50
11, 162560, Note_on_c, 10, 65, 50
11, 162620, Note_on_c, 10, 55, 0
11, 162620, Note_on_c, 10, 65, 0
11, 162640, Note_on_c, 10, 55, 50
11, 162640, Note_on_c, 10, 65, 50
11, 162700, Note_on_c, 10, 55, 0
11, 162700, Note_on_c, 10, 65, 0
11, 162720, Note_on_c, 10, 55, 50
11, 162720, Note_on_c, 10, 65, 50
11, 162780, Note_on_c, 10, 55, 0
11, 162780, Note_on_c, 10, 65, 0
11, 162800, Note_on_c, 10, 55, 50
11, 162800, Note_on_c, 10, 65, 50
11, 162860, Note_on_c, 10, 55, 0
11, 162860, Note_on_c, 10, 65, 0
11, 162880, Note_on_c, 10, 55, 50
11, 162880, Note_on_c, 10, 65, 50
11, 162940, Note_on_c, 10, 55, 0
11, 162940, Note_on_c, 10, 65, 0
11, 162960, Note_on_c, 10, 55, 50
11, 162960, Note_on_c, 10, 65, 50
11, 163020, Note_on_c, 10, 55, 0
11, 163020, Note_on_c, 10, 65, 0
11, 163040, Note_on_c, 10, 55, 50
11, 163040, Note_on_c, 10, 65, 50
11, 163100, Note_on_c, 10, 55, 0
11, 163100, Note_on_c, 10, 65, 0
11, 163120, Note_on_c, 10, 55, 50
11, 163120, Note_on_c, 10, 65, 50
11, 163180, Note_on_c, 10, 55, 0
11, 163180, Note_on_c, 10, 65, 0
11, 163200, Note_on_c, 10, 55, 50
11, 163200, Note_on_c, 10, 65, 50
11, 163260, Note_on_c, 10, 55, 0
11, 163260, Note_on_c, 10, 65, 0
11, 163280, Note_on_c, 10, 55, 50
11, 163280, Note_on_c, 10, 65, 50
11, 163340, Note_on_c, 10, 55, 0
11, 163340, Note_on_c, 10, 65, 0
11, 163360, Note_on_c, 10, 55, 50
11, 163360, Note_on_c, 10, 65, 50
11, 163420, Note_on_c, 10, 55, 0
11, 163420, Note_on_c, 10, 65, 0
11, 163440, Note_on_c, 10, 55, 50
11, 163440, Note_on_c, 10, 65, 50
11, 163500, Note_on_c, 10, 55, 0
11, 163500, Note_on_c, 10, 65, 0
11, 163520, Note_on_c, 10, 55, 50
11, 163520, Note_on_c, 10, 65, 50
11, 163580, Note_on_c, 10, 55, 0
11, 163580, Note_on_c, 10, 65, 0
11, 163600, Note_on_c, 10, 55, 50
11, 163600, Note_on_c, 10, 65, 50
11, 163660, Note_on_c, 10, 55, 0
11, 163660, Note_on_c, 10, 65, 0
11, 163680, Note_on_c, 10, 55, 50
11, 163680, Note_on_c, 10, 65, 50
11, 163740, Note_on_c, 10, 55, 0
11, 163740, Note_on_c, 10, 65, 0
11, 163760, Note_on_c, 10, 55, 50
11, 163760, Note_on_c, 10, 65, 50
11, 163820, Note_on_c, 10, 55, 0
11, 163820, Note_on_c, 10, 65, 0
11, 163840, Note_on_c, 10, 55, 50
11, 163840, Note_on_c, 10, 65, 50
11, 163900, Note_on_c, 10, 55, 0
11, 163900, Note_on_c, 10, 65, 0
11, 163920, Note_on_c, 10, 55, 50
11, 163920, Note_on_c, 10, 65, 50
11, 163980, Note_on_c, 10, 55, 0
11, 163980, Note_on_c, 10, 65, 0
11, 164000, Note_on_c, 10, 55, 50
11, 164000, Note_on_c, 10, 65, 50
11, 164060, Note_on_c, 10, 55, 0
11, 164060, Note_on_c, 10, 65, 0
11, 164080, Note_on_c, 10, 55, 50
11, 164080, Note_on_c, 10, 65, 50
11, 164140, Note_on_c, 10, 55, 0
11, 164140, Note_on_c, 10, 65, 0
11, 164160, Note_on_c, 10, 55, 50
11, 164160, Note_on_c, 10, 65, 50
11, 164220, Note_on_c, 10, 55, 0
11, 164220, Note_on_c, 10, 65, 0
11, 164240, Note_on_c, 10, 55, 50
11, 164240, Note_on_c, 10, 65, 50
11, 164300, Note_on_c, 10, 55, 0
11, 164300, Note_on_c, 10, 65, 0
11, 164320, Note_on_c, 10, 55, 50
11, 164320, Note_on_c, 10, 65, 50
11, 164380, Note_on_c, 10, 55, 0
11, 164380, Note_on_c, 10, 65, 0
11, 164400, Note_on_c, 10, 55, 50
11, 164400, Note_on_c, 10, 65, 50
11, 164460, Note_on_c, 10, 55, 0
11, 164460, Note_on_c, 10, 65, 0
11, 164480, Note_on_c, 10, 55, 50
11, 164480, Note_on_c, 10, 65, 50
11, 164540, Note_on_c, 10, 55, 0
11, 164540, Note_on_c, 10, 65, 0
11, 164560, Note_on_c, 10, 55, 50
11, 164560, Note_on_c, 10, 65, 50
11, 164620, Note_on_c, 10, 55, 0
11, 164620, Note_on_c, 10, 65, 0
11, 164640, Note_on_c, 10, 55, 50
11, 164640, Note_on_c, 10, 65, 50
11, 164700, Note_on_c, 10, 55, 0
11, 164700, Note_on_c, 10, 65, 0
11, 164720, Note_on_c, 10, 55, 50
11, 164720, Note_on_c, 10, 65, 50
11, 164780, Note_on_c, 10, 55, 0
11, 164780, Note_on_c, 10, 65, 0
11, 164800, Note_on_c, 10, 55, 50
11, 164800, Note_on_c, 10, 65, 50
11, 164860, Note_on_c, 10, 55, 0
11, 164860, Note_on_c, 10, 65, 0
11, 164880, Note_on_c, 10, 55, 50
11, 164880, Note_on_c, 10, 65, 50
11, 164940, Note_on_c, 10, 55, 0
11, 164940, Note_on_c, 10, 65, 0
11, 164960, Note_on_c, 10, 55, 50
11, 164960, Note_on_c, 10, 65, 50
11, 165020, Note_on_c, 10, 55, 0
11, 165020, Note_on_c, 10, 65, 0
11, 165040, Note_on_c, 10, 55, 50
11, 165040, Note_on_c, 10, 65, 50
11, 165100, Note_on_c, 10, 55, 0
11, 165100, Note_on_c, 10, 65, 0
11, 165120, Note_on_c, 10, 55, 50
11, 165120, Note_on_c, 10, 65, 50
11, 165180, Note_on_c, 10, 55, 0
11, 165180, Note_on_c, 10, 65, 0
11, 165200, Note_on_c, 10, 55, 50
11, 165200, Note_on_c, 10, 65, 50
11, 165260, Note_on_c, 10, 55, 0
11, 165260, Note_on_c, 10, 65, 0
11, 165280, Note_on_c, 10, 55, 50
11, 165280, Note_on_c, 10, 65, 50
11, 165340, Note_on_c, 10, 55, 0
11, 165340, Note_on_c, 10, 65, 0
11, 165360, Note_on_c, 10, 55, 50
11, 165360, Note_on_c, 10, 65, 50
11, 165420, Note_on_c, 10, 55, 0
11, 165420, Note_on_c, 10, 65, 0
11, 165440, Note_on_c, 10, 55, 50
11, 165440, Note_on_c, 10, 65, 50
11, 165500, Note_on_c, 10, 55, 0
11, 165500, Note_on_c, 10, 65, 0
11, 165520, Note_on_c, 10, 55, 50
11, 165520, Note_on_c, 10, 65, 50
11, 165580, Note_on_c, 10, 55, 0
11, 165580, Note_on_c, 10, 65, 0
11, 165600, Note_on_c, 10, 55, 50
11, 165600, Note_on_c, 10, 65, 50
11, 165660, Note_on_c, 10, 55, 0
11, 165660, Note_on_c, 10, 65, 0
11, 165680, Note_on_c, 10, 55, 50
11, 165680, Note_on_c, 10, 65, 50
11, 165740, Note_on_c, 10, 55, 0
11, 165740, Note_on_c, 10, 65, 0
11, 165760, Note_on_c, 10, 55, 50
11, 165760, Note_on_c, 10, 65, 50
11, 165820, Note_on_c, 10, 55, 0
11, 165820, Note_on_c, 10, 65, 0
11, 165840, Note_on_c, 10, 55, 50
11, 165840, Note_on_c, 10, 65, 50
11, 165900, Note_on_c, 10, 55, 0
11, 165900, Note_on_c, 10, 65, 0
11, 165920, Note_on_c, 10, 55, 50
11, 165920, Note_on_c, 10, 65, 50
11, 165980, Note_on_c, 10, 55, 0
11, 165980, Note_on_c, 10, 65, 0
11, 166000, Note_on_c, 10, 55, 50
11, 166000, Note_on_c, 10, 65, 50
11, 166060, Note_on_c, 10, 55, 0
11, 166060, Note_on_c, 10, 65, 0
11, 166080, Note_on_c, 10, 55, 50
11, 166080, Note_on_c, 10, 63, 50
11, 166140, Note_on_c, 10, 55, 0
11, 166140, Note_on_c, 10, 63, 0
11, 166160, Note_on_c, 10, 55, 50
11, 166160, Note_on_c, 10, 63, 50
11, 166220, Note_on_c, 10, 55, 0
11, 166220, Note_on_c, 10, 63, 0
11, 166240, Note_on_c, 10, 55, 50
11, 166240, Note_on_c, 10, 63, 50
11, 166300, Note_on_c, 10, 55, 0
11, 166300, Note_on_c, 10, 63, 0
11, 166320, Note_on_c, 10, 55, 50
11, 166320, Note_on_c, 10, 63, 50
11, 166380, Note_on_c, 10, 55, 0
11, 166380, Note_on_c, 10, 63, 0
11, 166400, Note_on_c, 10, 55, 50
11, 166400, Note_on_c, 10, 63, 50
11, 166460, Note_on_c, 10, 55, 0
11, 166460, Note_on_c, 10, 63, 0
11, 166480, Note_on_c, 10, 55, 50
11, 166480, Note_on_c, 10, 63, 50
11, 166540, Note_on_c, 10, 55, 0
11, 166540, Note_on_c, 10, 63, 0
11, 166560, Note_on_c, 10, 55, 50
11, 166560, Note_on_c, 10, 63, 50
11, 166620, Note_on_c, 10, 55, 0
11, 166620, Note_on_c, 10, 63, 0
11, 166640, Note_on_c, 10, 55, 50
11, 166640, Note_on_c, 10, 63, 50
11, 166700, Note_on_c, 10, 55, 0
11, 166700, Note_on_c, 10, 63, 0
11, 166720, Note_on_c, 10, 55, 50
11, 166720, Note_on_c, 10, 63, 50
11, 166780, Note_on_c, 10, 55, 0
11, 166780, Note_on_c, 10, 63, 0
11, 166800, Note_on_c, 10, 55, 50
11, 166800, Note_on_c, 10, 63, 50
11, 166860, Note_on_c, 10, 55, 0
11, 166860, Note_on_c, 10, 63, 0
11, 166880, Note_on_c, 10, 55, 50
11, 166880, Note_on_c, 10, 63, 50
11, 166940, Note_on_c, 10, 55, 0
11, 166940, Note_on_c, 10, 63, 0
11, 166960, Note_on_c, 10, 55, 50
11, 166960, Note_on_c, 10, 63, 50
11, 167020, Note_on_c, 10, 55, 0
11, 167020, Note_on_c, 10, 63, 0
11, 167040, Note_on_c, 10, 55, 50
11, 167040, Note_on_c, 10, 63, 50
11, 167100, Note_on_c, 10, 55, 0
11, 167100, Note_on_c, 10, 63, 0
11, 167120, Note_on_c, 10, 55, 50
11, 167120, Note_on_c, 10, 63, 50
11, 167180, Note_on_c, 10, 55, 0
11, 167180, Note_on_c, 10, 63, 0
11, 167200, Note_on_c, 10, 55, 50
11, 167200, Note_on_c, 10, 63, 50
11, 167260, Note_on_c, 10, 55, 0
11, 167260, Note_on_c, 10, 63, 0
11, 167280, Note_on_c, 10, 55, 50
11, 167280, Note_on_c, 10, 63, 50
11, 167340, Note_on_c, 10, 55, 0
11, 167340, Note_on_c, 10, 63, 0
11, 167360, Note_on_c, 10, 55, 50
11, 167360, Note_on_c, 10, 63, 50
11, 167420, Note_on_c, 10, 55, 0
11, 167420, Note_on_c, 10, 63, 0
11, 167440, Note_on_c, 10, 55, 50
11, 167440, Note_on_c, 10, 63, 50
11, 167500, Note_on_c, 10, 55, 0
11, 167500, Note_on_c, 10, 63, 0
11, 167520, Note_on_c, 10, 55, 50
11, 167520, Note_on_c, 10, 63, 50
11, 167580, Note_on_c, 10, 55, 0
11, 167580, Note_on_c, 10, 63, 0
11, 167600, Note_on_c, 10, 55, 50
11, 167600, Note_on_c, 10, 63, 50
11, 167660, Note_on_c, 10, 55, 0
11, 167660, Note_on_c, 10, 63, 0
11, 167680, Note_on_c, 10, 55, 50
11, 167680, Note_on_c, 10, 63, 50
11, 167740, Note_on_c, 10, 55, 0
11, 167740, Note_on_c, 10, 63, 0
11, 167760, Note_on_c, 10, 55, 50
11, 167760, Note_on_c, 10, 63, 50
11, 167820, Note_on_c, 10, 55, 0
11, 167820, Note_on_c, 10, 63, 0
11, 167840, Note_on_c, 10, 55, 50
11, 167840, Note_on_c, 10, 63, 50
11, 167900, Note_on_c, 10, 55, 0
11, 167900, Note_on_c, 10, 63, 0
11, 167920, Note_on_c, 10, 55, 50
11, 167920, Note_on_c, 10, 63, 50
11, 167980, Note_on_c, 10, 55, 0
11, 167980, Note_on_c, 10, 63, 0
11, 168000, Note_on_c, 10, 55, 50
11, 168000, Note_on_c, 10, 63, 50
11, 168060, Note_on_c, 10, 55, 0
11, 168060, Note_on_c, 10, 63, 0
11, 168080, Note_on_c, 10, 55, 50
11, 168080, Note_on_c, 10, 63, 50
11, 168140, Note_on_c, 10, 55, 0
11, 168140, Note_on_c, 10, 63, 0
11, 168160, Note_on_c, 10, 55, 50
11, 168160, Note_on_c, 10, 63, 50
11, 168220, Note_on_c, 10, 55, 0
11, 168220, Note_on_c, 10, 63, 0
11, 168240, Note_on_c, 10, 55, 50
11, 168240, Note_on_c, 10, 63, 50
11, 168300, Note_on_c, 10, 55, 0
11, 168300, Note_on_c, 10, 63, 0
11, 168320, Note_on_c, 10, 55, 50
11, 168320, Note_on_c, 10, 63, 50
11, 168380, Note_on_c, 10, 55, 0
11, 168380, Note_on_c, 10, 63, 0
11, 168400, Note_on_c, 10, 55, 50
11, 168400, Note_on_c, 10, 63, 50
11, 168460, Note_on_c, 10, 55, 0
11, 168460, Note_on_c, 10, 63, 0
11, 168480, Note_on_c, 10, 55, 50
11, 168480, Note_on_c, 10, 63, 50
11, 168540, Note_on_c, 10, 55, 0
11, 168540, Note_on_c, 10, 63, 0
11, 168560, Note_on_c, 10, 55, 50
11, 168560, Note_on_c, 10, 63, 50
11, 168620, Note_on_c, 10, 55, 0
11, 168620, Note_on_c, 10, 63, 0
11, 168640, Note_on_c, 10, 55, 50
11, 168640, Note_on_c, 10, 63, 50
11, 168700, Note_on_c, 10, 55, 0
11, 168700, Note_on_c, 10, 63, 0
11, 168720, Note_on_c, 10, 55, 50
11, 168720, Note_on_c, 10, 63, 50
11, 168780, Note_on_c, 10, 55, 0
11, 168780, Note_on_c, 10, 63, 0
11, 168800, Note_on_c, 10, 55, 50
11, 168800, Note_on_c, 10, 63, 50
11, 168860, Note_on_c, 10, 55, 0
11, 168860, Note_on_c, 10, 63, 0
11, 168880, Note_on_c, 10, 55, 50
11, 168880, Note_on_c, 10, 63, 50
11, 168940, Note_on_c, 10, 55, 0
11, 168940, Note_on_c, 10, 63, 0
11, 168960, Note_on_c, 10, 55, 50
11, 168960, Note_on_c, 10, 63, 50
11, 169020, Note_on_c, 10, 55, 0
11, 169020, Note_on_c, 10, 63, 0
11, 169040, Note_on_c, 10, 55, 50
11, 169040, Note_on_c, 10, 63, 50
11, 169100, Note_on_c, 10, 55, 0
11, 169100, Note_on_c, 10, 63, 0
11, 169120, Note_on_c, 10, 55, 50
11, 169120, Note_on_c, 10, 63, 50
11, 169180, Note_on_c, 10, 55, 0
11, 169180, Note_on_c, 10, 63, 0
11, 169200, Note_on_c, 10, 55, 50
11, 169200, Note_on_c, 10, 63, 50
11, 169260, Note_on_c, 10, 55, 0
11, 169260, Note_on_c, 10, 63, 0
11, 169280, Note_on_c, 10, 55, 50
11, 169280, Note_on_c, 10, 63, 50
11, 169340, Note_on_c, 10, 55, 0
11, 169340, Note_on_c, 10, 63, 0
11, 169360, Note_on_c, 10, 55, 50
11, 169360, Note_on_c, 10, 63, 50
11, 169420, Note_on_c, 10, 55, 0
11, 169420, Note_on_c, 10, 63, 0
11, 169440, Note_on_c, 10, 55, 50
11, 169440, Note_on_c, 10, 62, 50
11, 169500, Note_on_c, 10, 55, 0
11, 169500, Note_on_c, 10, 62, 0
11, 169520, Note_on_c, 10, 55, 50
11, 169520, Note_on_c, 10, 62, 50
11, 169580, Note_on_c, 10, 55, 0
11, 169580, Note_on_c, 10, 62, 0
11, 169600, Note_on_c, 10, 55, 50
11, 169600, Note_on_c, 10, 62, 50
11, 169660, Note_on_c, 10, 55, 0
11, 169660, Note_on_c, 10, 62, 0
11, 169680, Note_on_c, 10, 55, 50
11, 169680, Note_on_c, 10, 62, 50
11, 169740, Note_on_c, 10, 55, 0
11, 169740, Note_on_c, 10, 62, 0
11, 169760, Note_on_c, 10, 55, 50
11, 169760, Note_on_c, 10, 62, 50
11, 169820, Note_on_c, 10, 55, 0
11, 169820, Note_on_c, 10, 62, 0
11, 169840, Note_on_c, 10, 55, 50
11, 169840, Note_on_c, 10, 62, 50
11, 169900, Note_on_c, 10, 55, 0
11, 169900, Note_on_c, 10, 62, 0
11, 169920, Note_on_c, 10, 59, 50
11, 169920, Note_on_c, 10, 62, 50
11, 169980, Note_on_c, 10, 59, 0
11, 169980, Note_on_c, 10, 62, 0
11, 170000, Note_on_c, 10, 59, 50
11, 170000, Note_on_c, 10, 62, 50
11, 170060, Note_on_c, 10, 59, 0
11, 170060, Note_on_c, 10, 62, 0
11, 170080, Note_on_c, 10, 59, 50
11, 170080, Note_on_c, 10, 62, 50
11, 170140, Note_on_c, 10, 59, 0
11, 170140, Note_on_c, 10, 62, 0
11, 170160, Note_on_c, 10, 59, 50
11, 170160, Note_on_c, 10, 62, 50
11, 170220, Note_on_c, 10, 59, 0
11, 170220, Note_on_c, 10, 62, 0
11, 170240, Note_on_c, 10, 59, 50
11, 170240, Note_on_c, 10, 62, 50
11, 170300, Note_on_c, 10, 59, 0
11, 170300, Note_on_c, 10, 62, 0
11, 170320, Note_on_c, 10, 59, 50
11, 170320, Note_on_c, 10, 62, 50
11, 170380, Note_on_c, 10, 59, 0
11, 170380, Note_on_c, 10, 62, 0
11, 170400, Note_on_c, 10, 59, 50
11, 170400, Note_on_c, 10, 62, 50
11, 170460, Note_on_c, 10, 59, 0
11, 170460, Note_on_c, 10, 62, 0
11, 170480, Note_on_c, 10, 59, 50
11, 170480, Note_on_c, 10, 62, 50
11, 170540, Note_on_c, 10, 59, 0
11, 170540, Note_on_c, 10, 62, 0
11, 170560, Note_on_c, 10, 59, 50
11, 170560, Note_on_c, 10, 62, 50
11, 170620, Note_on_c, 10, 59, 0
11, 170620, Note_on_c, 10, 62, 0
11, 170640, Note_on_c, 10, 59, 50
11, 170640, Note_on_c, 10, 62, 50
11, 170700, Note_on_c, 10, 59, 0
11, 170700, Note_on_c, 10, 62, 0
11, 170720, Note_on_c, 10, 59, 50
11, 170720, Note_on_c, 10, 62, 50
11, 170780, Note_on_c, 10, 59, 0
11, 170780, Note_on_c, 10, 62, 0
11, 170800, Note_on_c, 10, 59, 50
11, 170800, Note_on_c, 10, 62, 50
11, 170860, Note_on_c, 10, 59, 0
11, 170860, Note_on_c, 10, 62, 0
11, 170880, Note_on_c, 10, 59, 50
11, 170880, Note_on_c, 10, 62, 50
11, 170880, Control_c, 10, 11, 80
11, 170910, Control_c, 10, 11, 81
11, 170930, Control_c, 10, 11, 82
11, 170940, Note_on_c, 10, 59, 0
11, 170940, Note_on_c, 10, 62, 0
11, 170950, Control_c, 10, 11, 83
11, 170960, Note_on_c, 10, 59, 50
11, 170960, Note_on_c, 10, 68, 50
11, 170970, Control_c, 10, 11, 84
11, 170990, Control_c, 10, 11, 85
11, 171010, Control_c, 10, 11, 86
11, 171020, Note_on_c, 10, 59, 0
11, 171020, Note_on_c, 10, 68, 0
11, 171030, Control_c, 10, 11, 87
11, 171040, Note_on_c, 10, 59, 50
11, 171040, Note_on_c, 10, 68, 50
11, 171050, Control_c, 10, 11, 88
11, 171070, Control_c, 10, 11, 89
11, 171090, Control_c, 10, 11, 90
11, 171100, Note_on_c, 10, 59, 0
11, 171100, Note_on_c, 10, 68, 0
11, 171110, Control_c, 10, 11, 91
11, 171120, Note_on_c, 10, 59, 50
11, 171120, Note_on_c, 10, 68, 50
11, 171130, Control_c, 10, 11, 92
11, 171150, Control_c, 10, 11, 93
11, 171170, Control_c, 10, 11, 94
11, 171180, Note_on_c, 10, 59, 0
11, 171180, Note_on_c, 10, 68, 0
11, 171190, Control_c, 10, 11, 95
11, 171200, Note_on_c, 10, 59, 50
11, 171200, Note_on_c, 10, 68, 50
11, 171210, Control_c, 10, 11, 96
11, 171230, Control_c, 10, 11, 97
11, 171250, Control_c, 10, 11, 98
11, 171260, Note_on_c, 10, 59, 0
11, 171260, Note_on_c, 10, 68, 0
11, 171270, Control_c, 10, 11, 99
11, 171280, Note_on_c, 10, 59, 50
11, 171280, Note_on_c, 10, 68, 50
11, 171290, Control_c, 10, 11, 100
11, 171310, Control_c, 10, 11, 101
11, 171330, Control_c, 10, 11, 102
11, 171340, Note_on_c, 10, 59, 0
11, 171340, Note_on_c, 10, 68, 0
11, 171350, Control_c, 10, 11, 103
11, 171360, Note_on_c, 10, 59, 50
11, 171360, Note_on_c, 10, 68, 50
11, 171380, Control_c, 10, 11, 104
11, 171400, Control_c, 10, 11, 105
11, 171420, Note_on_c, 10, 59, 0
11, 171420, Note_on_c, 10, 68, 0
11, 171420, Control_c, 10, 11, 106
11, 171440, Note_on_c, 10, 59, 50
11, 171440, Note_on_c, 10, 68, 50
11, 171440, Control_c, 10, 11, 107
11, 171460, Control_c, 10, 11, 108
11, 171480, Control_c, 10, 11, 109
11, 171500, Note_on_c, 10, 59, 0
11, 171500, Note_on_c, 10, 68, 0
11, 171500, Control_c, 10, 11, 110
11, 171520, Note_on_c, 10, 59, 50
11, 171520, Note_on_c, 10, 68, 50
11, 171520, Control_c, 10, 11, 111
11, 171540, Control_c, 10, 11, 112
11, 171560, Control_c, 10, 11, 113
11, 171580, Note_on_c, 10, 59, 0
11, 171580, Note_on_c, 10, 68, 0
11, 171580, Control_c, 10, 11, 114
11, 171600, Note_on_c, 10, 59, 50
11, 171600, Note_on_c, 10, 68, 50
11, 171600, Control_c, 10, 11, 115
11, 171620, Control_c, 10, 11, 116
11, 171640, Control_c, 10, 11, 117
11, 171660, Note_on_c, 10, 59, 0
11, 171660, Note_on_c, 10, 68, 0
11, 171660, Control_c, 10, 11, 118
11, 171680, Note_on_c, 10, 59, 50
11, 171680, Note_on_c, 10, 68, 50
11, 171680, Control_c, 10, 11, 119
11, 171700, Control_c, 10, 11, 120
11, 171720, Control_c, 10, 11, 121
11, 171740, Note_on_c, 10, 59, 0
11, 171740, Note_on_c, 10, 68, 0
11, 171740, Control_c, 10, 11, 122
11, 171760, Note_on_c, 10, 59, 50
11, 171760, Note_on_c, 10, 68, 50
11, 171760, Control_c, 10, 11, 123
11, 171780, Control_c, 10, 11, 124
11, 171800, Control_c, 10, 11, 125
11, 171820, Note_on_c, 10, 59, 0
11, 171820, Note_on_c, 10, 68, 0
11, 171820, Control_c, 10, 11, 126
11, 171840, Note_on_c, 10, 58, 50
11, 171840, Note_on_c, 10, 68, 50
11, 171840, Control_c, 10, 11, 127
11, 171860, Control_c, 10, 11, 126
11, 171880, Control_c, 10, 11, 125
11, 171900, Note_on_c, 10, 58, 0
11, 171900, Note_on_c, 10, 68, 0
11, 171900, Control_c, 10, 11, 124
11, 171920, Note_on_c, 10, 58, 50
11, 171920, Note_on_c, 10, 68, 50
11, 171920, Control_c, 10, 11, 123
11, 171940, Control_c, 10, 11, 122
11, 171960, Control_c, 10, 11, 121
11, 171980, Note_on_c, 10, 58, 0
11, 171980, Note_on_c, 10, 68, 0
11, 171980, Control_c, 10, 11, 120
11, 172000, Note_on_c, 10, 58, 50
11, 172000, Note_on_c, 10, 68, 50
11, 172000, Control_c, 10, 11, 119
11, 172020, Control_c, 10, 11, 118
11, 172040, Control_c, 10, 11, 117
11, 172060, Note_on_c, 10, 58, 0
11, 172060, Note_on_c, 10, 68, 0
11, 172060, Control_c, 10, 11, 116
11, 172080, Control_c, 10, 11, 115
11, 172100, Control_c, 10, 11, 114
11, 172120, Control_c, 10, 11, 113
11, 172140, Control_c, 10, 11, 112
11, 172160, Note_on_c, 10, 62, 50
11, 172160, Control_c, 10, 11, 111
11, 172180, Control_c, 10, 11, 110
11, 172200, Control_c, 10, 11, 109
11, 172220, Note_on_c, 10, 62, 0
11, 172220, Control_c, 10, 11, 108
11, 172240, Note_on_c, 10, 62, 50
11, 172240, Control_c, 10, 11, 107
11, 172260, Control_c, 10, 11, 106
11, 172280, Control_c, 10, 11, 105
11, 172300, Note_on_c, 10, 62, 0
11, 172300, Control_c, 10, 11, 104
11, 172320, Control_c, 10, 11, 103
11, 172340, Control_c, 10, 11, 102
11, 172360, Control_c, 10, 11, 101
11, 172380, Control_c, 10, 11, 100
11, 172400, Note_on_c, 10, 63, 50
11, 172400, Control_c, 10, 11, 99
11, 172420, Control_c, 10, 11, 98
11, 172440, Control_c, 10, 11, 97
11, 172460, Note_on_c, 10, 63, 0
11, 172460, Control_c, 10, 11, 96
11, 172480, Note_on_c, 10, 63, 50
11, 172480, Control_c, 10, 11, 95
11, 172500, Control_c, 10, 11, 94
11, 172520, Control_c, 10, 11, 93
11, 172540, Note_on_c, 10, 63, 0
11, 172540, Control_c, 10, 11, 92
11, 172560, Control_c, 10, 11, 91
11, 172580, Control_c, 10, 11, 90
11, 172600, Control_c, 10, 11, 89
11, 172620, Control_c, 10, 11, 88
11, 172640, Note_on_c, 10, 65, 50
11, 172640, Control_c, 10, 11, 87
11, 172660, Control_c, 10, 11, 86
11, 172680, Control_c, 10, 11, 85
11, 172700, Note_on_c, 10, 65, 0
11, 172700, Control_c, 10, 11, 84
11, 172720, Note_on_c, 10, 65, 50
11, 172720, Control_c, 10, 11, 83
11, 172740, Control_c, 10, 11, 82
11, 172760, Control_c, 10, 11, 81
11, 172780, Note_on_c, 10, 65, 0
11, 172780, Control_c, 10, 11, 80
11, 172880, Note_on_c, 10, 63, 50
11, 172940, Note_on_c, 10, 63, 0
11, 172960, Note_on_c, 10, 63, 50
11, 173020, Note_on_c, 10, 63, 0
11, 173120, Note_on_c, 10, 63, 50
11, 173180, Note_on_c, 10, 63, 0
11, 173200, Note_on_c, 10, 63, 50
11, 173260, Note_on_c, 10, 63, 0
11, 173280, Note_on_c, 10, 63, 50
11, 173490, Note_on_c, 10, 63, 0
11, 173760, Note_on_c, 10, 58, 50
11, 174240, Note_on_c, 10, 56, 50
11, 174270, Note_on_c, 10, 58, 0
11, 174480, Note_on_c, 10, 55, 50
11, 174510, Note_on_c, 10, 56, 0
11, 174690, Note_on_c, 10, 55, 0
11, 174720, Note_on_c, 10, 56, 50
11, 174960, Control_c, 10, 11, 81
11, 174980, Control_c, 10, 11, 82
11, 175010, Control_c, 10, 11, 83
11, 175030, Control_c, 10, 11, 84
11, 175060, Control_c, 10, 11, 85
11, 175080, Control_c, 10, 11, 86
11, 175110, Control_c, 10, 11, 87
11, 175130, Control_c, 10, 11, 88
11, 175160, Control_c, 10, 11, 89
11, 175180, Control_c, 10, 11, 90
11, 175210, Control_c, 10, 11, 91
11, 175230, Control_c, 10, 11, 92
11, 175260, Control_c, 10, 11, 93
11, 175280, Control_c, 10, 11, 94
11, 175310, Control_c, 10, 11, 95
11, 175330, Control_c, 10, 11, 96
11, 175360, Control_c, 10, 11, 97
11, 175380, Control_c, 10, 11, 98
11, 175410, Control_c, 10, 11, 99
11, 175430, Control_c, 10, 11, 100
11, 175460, Control_c, 10, 11, 101
11, 175480, Control_c, 10, 11, 102
11, 175510, Control_c, 10, 11, 103
11, 175530, Control_c, 10, 11, 104
11, 175560, Control_c, 10, 11, 105
11, 175580, Control_c, 10, 11, 106
11, 175610, Control_c, 10, 11, 107
11, 175630, Control_c, 10, 11, 108
11, 175650, Note_on_c, 10, 56, 0
11, 175660, Control_c, 10, 11, 109
11, 175680, Note_on_c, 10, 63, 50
11, 175680, Control_c, 10, 11, 110
11, 175730, Control_c, 10, 11, 109
11, 175780, Control_c, 10, 11, 108
11, 175820, Control_c, 10, 11, 107
11, 175870, Control_c, 10, 11, 106
11, 175910, Control_c, 10, 11, 105
11, 175960, Control_c, 10, 11, 104
11, 176000, Control_c, 10, 11, 103
11, 176050, Control_c, 10, 11, 102
11, 176100, Control_c, 10, 11, 101
11, 176140, Control_c, 10, 11, 100
11, 176160, Note_on_c, 10, 62, 50
11, 176190, Note_on_c, 10, 63, 0
11, 176190, Control_c, 10, 11, 99
11, 176230, Control_c, 10, 11, 98
11, 176280, Control_c, 10, 11, 97
11, 176320, Control_c, 10, 11, 96
11, 176370, Control_c, 10, 11, 95
11, 176400, Note_on_c, 10, 60, 50
11, 176420, Control_c, 10, 11, 94
11, 176430, Note_on_c, 10, 62, 0
11, 176460, Control_c, 10, 11, 93
11, 176510, Control_c, 10, 11, 92
11, 176550, Control_c, 10, 11, 91
11, 176600, Control_c, 10, 11, 90
11, 176610, Note_on_c, 10, 60, 0
11, 176640, Note_on_c, 10, 58, 50
11, 176880, Note_on_c, 10, 58, 0
11, 177060, Note_on_c, 10, 67, 80
11, 177090, Note_on_c, 10, 67, 0
11, 177120, Note_on_c, 10, 67, 80
11, 177600, Note_on_c, 10, 67, 0
11, 177600, Control_c, 10, 11, 80
11, 178080, Note_on_c, 10, 65, 50
11, 178320, Note_on_c, 10, 63, 50
11, 178350, Note_on_c, 10, 65, 0
11, 178740, Note_on_c, 10, 60, 50
11, 178770, Note_on_c, 10, 63, 0
11, 179040, Control_c, 10, 11, 80
11, 179050, Control_c, 10, 11, 83
11, 179060, Control_c, 10, 11, 87
11, 179070, Control_c, 10, 11, 91
11, 179080, Control_c, 10, 11, 95
11, 179090, Control_c, 10, 11, 99
11, 179100, Control_c, 10, 11, 103
11, 179110, Control_c, 10, 11, 107
11, 179120, Control_c, 10, 11, 111
11, 179140, Control_c, 10, 11, 115
11, 179160, Control_c, 10, 11, 114
11, 179170, Control_c, 10, 11, 113
11, 179180, Control_c, 10, 11, 112
11, 179190, Control_c, 10, 11, 111
11, 179200, Control_c, 10, 11, 110
11, 179210, Control_c, 10, 11, 109
11, 179220, Control_c, 10, 11, 108
11, 179230, Control_c, 10, 11, 107
11, 179240, Control_c, 10, 11, 106
11, 179250, Note_on_c, 10, 60, 0
11, 179250, Control_c, 10, 11, 105
11, 179260, Control_c, 10, 11, 104
11, 179270, Control_c, 10, 11, 103
11, 179280, Note_on_c, 10, 63, 50
11, 179280, Control_c, 10, 11, 102
11, 179290, Control_c, 10, 11, 101
11, 179300, Control_c, 10, 11, 100
11, 179310, Control_c, 10, 11, 99
11, 179320, Control_c, 10, 11, 98
11, 179330, Control_c, 10, 11, 97
11, 179340, Control_c, 10, 11, 96
11, 179350, Control_c, 10, 11, 95
11, 179360, Control_c, 10, 11, 94
11, 179370, Control_c, 10, 11, 93
11, 179380, Control_c, 10, 11, 92
11, 179390, Control_c, 10, 11, 91
11, 179400, Control_c, 10, 11, 90
11, 179410, Control_c, 10, 11, 89
11, 179420, Control_c, 10, 11, 88
11, 179430, Control_c, 10, 11, 87
11, 179440, Control_c, 10, 11, 86
11, 179450, Control_c, 10, 11, 85
11, 179460, Control_c, 10, 11, 84
11, 179470, Control_c, 10, 11, 83
11, 179480, Control_c, 10, 11, 82
11, 179490, Note_on_c, 10, 63, 0
11, 179490, Control_c, 10, 11, 81
11, 179500, Control_c, 10, 11, 80
11, 179520, Note_on_c, 10, 59, 50
11, 179760, Note_on_c, 10, 59, 0
11, 181440, Note_on_c, 10, 67, 50
11, 181440, Control_c, 10, 11, 80
11, 181470, Control_c, 10, 11, 81
11, 181500, Note_on_c, 10, 67, 0
11, 181500, Control_c, 10, 11, 82
11, 181520, Note_on_c, 10, 67, 50
11, 181530, Control_c, 10, 11, 83
11, 181550, Control_c, 10, 11, 84
11, 181580, Note_on_c, 10, 67, 0
11, 181580, Control_c, 10, 11, 85
11, 181600, Note_on_c, 10, 67, 50
11, 181610, Control_c, 10, 11, 86
11, 181640, Control_c, 10, 11, 87
11, 181660, Note_on_c, 10, 67, 0
11, 181660, Control_c, 10, 11, 88
11, 181680, Note_on_c, 10, 67, 50
11, 181690, Control_c, 10, 11, 89
11, 181720, Control_c, 10, 11, 90
11, 181740, Note_on_c, 10, 67, 0
11, 181750, Control_c, 10, 11, 91
11, 181760, Note_on_c, 10, 67, 50
11, 181770, Control_c, 10, 11, 92
11, 181800, Control_c, 10, 11, 93
11, 181820, Note_on_c, 10, 67, 0
11, 181830, Control_c, 10, 11, 94
11, 181840, Note_on_c, 10, 67, 50
11, 181860, Control_c, 10, 11, 95
11, 181880, Control_c, 10, 11, 96
11, 181900, Note_on_c, 10, 67, 0
11, 181910, Control_c, 10, 11, 97
11, 181940, Control_c, 10, 11, 98
11, 181970, Control_c, 10, 11, 99
11, 181990, Control_c, 10, 11, 100
11, 182000, Note_on_c, 10, 67, 50
11, 182020, Control_c, 10, 11, 101
11, 182050, Control_c, 10, 11, 102
11, 182060, Note_on_c, 10, 67, 0
11, 182080, Note_on_c, 10, 67, 50
11, 182080, Control_c, 10, 11, 103
11, 182100, Control_c, 10, 11, 104
11, 182130, Control_c, 10, 11, 105
11, 182140, Note_on_c, 10, 67, 0
11, 182160, Control_c, 10, 11, 106
11, 182190, Control_c, 10, 11, 107
11, 182210, Control_c, 10, 11, 108
11, 182240, Note_on_c, 10, 67, 50
11, 182240, Control_c, 10, 11, 109
11, 182270, Control_c, 10, 11, 110
11, 182300, Note_on_c, 10, 67, 0
11, 182300, Control_c, 10, 11, 111
11, 182320, Note_on_c, 10, 67, 50
11, 182320, Control_c, 10, 11, 112
11, 182350, Control_c, 10, 11, 113
11, 182380, Note_on_c, 10, 67, 0
11, 182380, Control_c, 10, 11, 114
11, 182400, Note_on_c, 10, 67, 50
11, 182400, Control_c, 10, 11, 115
11, 182430, Control_c, 10, 11, 114
11, 182460, Note_on_c, 10, 67, 0
11, 182460, Control_c, 10, 11, 113
11, 182480, Note_on_c, 10, 67, 50
11, 182480, Control_c, 10, 11, 112
11, 182510, Control_c, 10, 11, 111
11, 182540, Note_on_c, 10, 67, 0
11, 182540, Control_c, 10, 11, 110
11, 182560, Note_on_c, 10, 67, 50
11, 182560, Control_c, 10, 11, 109
11, 182590, Control_c, 10, 11, 108
11, 182620, Note_on_c, 10, 67, 0
11, 182620, Control_c, 10, 11, 107
11, 182640, Note_on_c, 10, 67, 50
11, 182640, Control_c, 10, 11, 106
11, 182670, Control_c, 10, 11, 105
11, 182700, Note_on_c, 10, 67, 0
11, 182700, Control_c, 10, 11, 104
11, 182720, Note_on_c, 10, 67, 50
11, 182720, Control_c, 10, 11, 103
11, 182750, Control_c, 10, 11, 102
11, 182780, Note_on_c, 10, 67, 0
11, 182780, Control_c, 10, 11, 101
11, 182800, Note_on_c, 10, 67, 50
11, 182800, Control_c, 10, 11, 100
11, 182830, Control_c, 10, 11, 99
11, 182860, Note_on_c, 10, 67, 0
11, 182860, Control_c, 10, 11, 98
11, 182880, Control_c, 10, 11, 97
11, 182910, Control_c, 10, 11, 96
11, 182940, Control_c, 10, 11, 95
11, 182960, Note_on_c, 10, 67, 50
11, 182960, Control_c, 10, 11, 94
11, 182990, Control_c, 10, 11, 93
11, 183020, Note_on_c, 10, 67, 0
11, 183020, Control_c, 10, 11, 92
11, 183040, Note_on_c, 10, 67, 50
11, 183040, Control_c, 10, 11, 91
11, 183070, Control_c, 10, 11, 90
11, 183100, Note_on_c, 10, 67, 0
11, 183100, Control_c, 10, 11, 89
11, 183120, Control_c, 10, 11, 88
11, 183150, Control_c, 10, 11, 87
11, 183180, Control_c, 10, 11, 86
11, 183200, Note_on_c, 10, 66, 50
11, 183200, Control_c, 10, 11, 85
11, 183230, Control_c, 10, 11, 84
11, 183260, Note_on_c, 10, 66, 0
11, 183260, Control_c, 10, 11, 83
11, 183280, Note_on_c, 10, 66, 50
11, 183280, Control_c, 10, 11, 82
11, 183310, Control_c, 10, 11, 81
11, 183340, Note_on_c, 10, 66, 0
11, 183340, Control_c, 10, 11, 80
11, 183360, Note_on_c, 10, 67, 50
11, 183405, Note_on_c, 10, 67, 0
11, 183420, Note_on_c, 10, 55, 50
11, 183465, Note_on_c, 10, 55, 0
11, 183480, Note_on_c, 10, 55, 50
11, 183525, Note_on_c, 10, 55, 0
11, 183540, Note_on_c, 10, 55, 50
11, 183585, Note_on_c, 10, 55, 0
11, 183660, Note_on_c, 10, 56, 50
11, 183705, Note_on_c, 10, 56, 0
11, 183720, Note_on_c, 10, 56, 50
11, 183765, Note_on_c, 10, 56, 0
11, 183780, Note_on_c, 10, 56, 50
11, 183825, Note_on_c, 10, 56, 0
11, 183900, Note_on_c, 10, 55, 50
11, 183945, Note_on_c, 10, 55, 0
11, 183960, Note_on_c, 10, 55, 50
11, 184005, Note_on_c, 10, 55, 0
11, 184020, Note_on_c, 10, 55, 50
11, 184065, Note_on_c, 10, 55, 0
11, 184140, Note_on_c, 10, 60, 50
11, 184185, Note_on_c, 10, 60, 0
11, 184200, Note_on_c, 10, 60, 50
11, 184245, Note_on_c, 10, 60, 0
11, 184260, Note_on_c, 10, 60, 50
11, 184305, Note_on_c, 10, 60, 0
11, 184380, Note_on_c, 10, 59, 50
11, 184425, Note_on_c, 10, 59, 0
11, 184440, Note_on_c, 10, 59, 50
11, 184485, Note_on_c, 10, 59, 0
11, 184500, Note_on_c, 10, 59, 50
11, 184545, Note_on_c, 10, 59, 0
11, 184620, Note_on_c, 10, 63, 50
11, 184665, Note_on_c, 10, 63, 0
11, 184680, Note_on_c, 10, 63, 50
11, 184725, Note_on_c, 10, 63, 0
11, 184740, Note_on_c, 10, 63, 50
11, 184785, Note_on_c, 10, 63, 0
11, 184860, Note_on_c, 10, 62, 50
11, 184905, Note_on_c, 10, 62, 0
11, 184920, Note_on_c, 10, 62, 50
11, 184965, Note_on_c, 10, 62, 0
11, 184980, Note_on_c, 10, 62, 50
11, 185025, Note_on_c, 10, 62, 0
11, 185100, Note_on_c, 10, 60, 50
11, 185145, Note_on_c, 10, 60, 0
11, 185160, Note_on_c, 10, 60, 50
11, 185205, Note_on_c, 10, 60, 0
11, 185220, Note_on_c, 10, 60, 50
11, 185265, Note_on_c, 10, 60, 0
11, 185340, Note_on_c, 10, 59, 50
11, 185385, Note_on_c, 10, 59, 0
11, 185400, Note_on_c, 10, 59, 50
11, 185445, Note_on_c, 10, 59, 0
11, 185460, Note_on_c, 10, 59, 51
11, 185505, Note_on_c, 10, 59, 0
11, 185520, Note_on_c, 10, 59, 51
11, 185565, Note_on_c, 10, 59, 0
11, 185580, Note_on_c, 10, 59, 52
11, 185625, Note_on_c, 10, 59, 0
11, 185640, Note_on_c, 10, 59, 52
11, 185685, Note_on_c, 10, 59, 0
11, 185700, Note_on_c, 10, 59, 53
11, 185745, Note_on_c, 10, 59, 0
11, 185820, Note_on_c, 10, 56, 54
11, 185865, Note_on_c, 10, 56, 0
11, 185880, Note_on_c, 10, 56, 54
11, 185925, Note_on_c, 10, 56, 0
11, 185940, Note_on_c, 10, 56, 55
11, 185985, Note_on_c, 10, 56, 0
11, 186000, Note_on_c, 10, 56, 55
11, 186045, Note_on_c, 10, 56, 0
11, 186060, Note_on_c, 10, 56, 56
11, 186105, Note_on_c, 10, 56, 0
11, 186120, Note_on_c, 10, 56, 56
11, 186165, Note_on_c, 10, 56, 0
11, 186180, Note_on_c, 10, 56, 57
11, 186225, Note_on_c, 10, 56, 0
11, 186300, Note_on_c, 10, 55, 58
11, 186345, Note_on_c, 10, 55, 0
11, 186360, Note_on_c, 10, 55, 58
11, 186405, Note_on_c, 10, 55, 0
11, 186420, Note_on_c, 10, 55, 59
11, 186465, Note_on_c, 10, 55, 0
11, 186480, Note_on_c, 10, 55, 59
11, 186525, Note_on_c, 10, 55, 0
11, 186540, Note_on_c, 10, 55, 59
11, 186585, Note_on_c, 10, 55, 0
11, 186600, Note_on_c, 10, 55, 60
11, 186645, Note_on_c, 10, 55, 0
11, 186660, Note_on_c, 10, 55, 60
11, 186705, Note_on_c, 10, 55, 0
11, 186720, Note_on_c, 10, 58, 70
11, 186765, Note_on_c, 10, 58, 0
11, 186780, Note_on_c, 10, 58, 61
11, 186825, Note_on_c, 10, 58, 0
11, 186840, Note_on_c, 10, 58, 62
11, 186885, Note_on_c, 10, 58, 0
11, 186900, Note_on_c, 10, 58, 62
11, 186945, Note_on_c, 10, 58, 0
11, 186960, Note_on_c, 10, 58, 63
11, 187005, Note_on_c, 10, 58, 0
11, 187020, Note_on_c, 10, 58, 63
11, 187065, Note_on_c, 10, 58, 0
11, 187080, Note_on_c, 10, 58, 64
11, 187125, Note_on_c, 10, 58, 0
11, 187140, Note_on_c, 10, 58, 64
11, 187185, Note_on_c, 10, 58, 0
11, 187200, Note_on_c, 10, 56, 50
11, 187245, Note_on_c, 10, 56, 0
11, 187260, Note_on_c, 10, 65, 50
11, 187305, Note_on_c, 10, 65, 0
11, 187320, Note_on_c, 10, 65, 50
11, 187365, Note_on_c, 10, 65, 0
11, 187380, Note_on_c, 10, 65, 50
11, 187425, Note_on_c, 10, 65, 0
11, 187500, Note_on_c, 10, 65, 50
11, 187545, Note_on_c, 10, 65, 0
11, 187560, Note_on_c, 10, 65, 50
11, 187605, Note_on_c, 10, 65, 0
11, 187620, Note_on_c, 10, 65, 50
11, 187665, Note_on_c, 10, 65, 0
11, 187740, Note_on_c, 10, 65, 50
11, 187785, Note_on_c, 10, 65, 0
11, 187800, Note_on_c, 10, 65, 50
11, 187845, Note_on_c, 10, 65, 0
11, 187860, Note_on_c, 10, 65, 50
11, 187905, Note_on_c, 10, 65, 0
11, 187980, Note_on_c, 10, 65, 50
11, 188025, Note_on_c, 10, 65, 0
11, 188040, Note_on_c, 10, 65, 50
11, 188085, Note_on_c, 10, 65, 0
11, 188100, Note_on_c, 10, 65, 50
11, 188145, Note_on_c, 10, 65, 0
11, 188220, Note_on_c, 10, 65, 50
11, 188265, Note_on_c, 10, 65, 0
11, 188280, Note_on_c, 10, 65, 50
11, 188325, Note_on_c, 10, 65, 0
11, 188340, Note_on_c, 10, 65, 50
11, 188385, Note_on_c, 10, 65, 0
11, 188460, Note_on_c, 10, 65, 50
11, 188505, Note_on_c, 10, 65, 0
11, 188520, Note_on_c, 10, 65, 50
11, 188565, Note_on_c, 10, 65, 0
11, 188580, Note_on_c, 10, 65, 50
11, 188625, Note_on_c, 10, 65, 0
11, 188700, Note_on_c, 10, 65, 50
11, 188745, Note_on_c, 10, 65, 0
11, 188760, Note_on_c, 10, 65, 50
11, 188805, Note_on_c, 10, 65, 0
11, 188820, Note_on_c, 10, 65, 50
11, 188865, Note_on_c, 10, 65, 0
11, 188940, Note_on_c, 10, 65, 50
11, 188985, Note_on_c, 10, 65, 0
11, 189000, Note_on_c, 10, 65, 50
11, 189045, Note_on_c, 10, 65, 0
11, 189060, Note_on_c, 10, 65, 50
11, 189105, Note_on_c, 10, 65, 0
11, 189180, Note_on_c, 10, 62, 51
11, 189225, Note_on_c, 10, 62, 0
11, 189240, Note_on_c, 10, 62, 52
11, 189285, Note_on_c, 10, 62, 0
11, 189300, Note_on_c, 10, 62, 53
11, 189345, Note_on_c, 10, 62, 0
11, 189420, Note_on_c, 10, 62, 56
11, 189465, Note_on_c, 10, 62, 0
11, 189480, Note_on_c, 10, 62, 57
11, 189525, Note_on_c, 10, 62, 0
11, 189540, Note_on_c, 10, 62, 58
11, 189585, Note_on_c, 10, 62, 0
11, 189660, Note_on_c, 10, 62, 61
11, 189705, Note_on_c, 10, 62, 0
11, 189720, Note_on_c, 10, 62, 62
11, 189765, Note_on_c, 10, 62, 0
11, 189780, Note_on_c, 10, 62, 63
11, 189825, Note_on_c, 10, 62, 0
11, 189900, Note_on_c, 10, 62, 66
11, 189945, Note_on_c, 10, 62, 0
11, 189960, Note_on_c, 10, 62, 67
11, 190005, Note_on_c, 10, 62, 0
11, 190020, Note_on_c, 10, 62, 68
11, 190065, Note_on_c, 10, 62, 0
11, 190140, Note_on_c, 10, 60, 70
11, 190185, Note_on_c, 10, 60, 0
11, 190200, Note_on_c, 10, 60, 70
11, 190245, Note_on_c, 10, 60, 0
11, 190260, Note_on_c, 10, 60, 70
11, 190305, Note_on_c, 10, 60, 0
11, 190320, Note_on_c, 10, 60, 70
11, 190365, Note_on_c, 10, 60, 0
11, 190380, Note_on_c, 10, 60, 70
11, 190425, Note_on_c, 10, 60, 0
11, 190440, Note_on_c, 10, 60, 70
11, 190485, Note_on_c, 10, 60, 0
11, 190500, Note_on_c, 10, 60, 70
11, 190545, Note_on_c, 10, 60, 0
11, 190560, Note_on_c, 10, 60, 70
11, 190605, Note_on_c, 10, 60, 0
11, 190620, Note_on_c, 10, 60, 70
11, 190665, Note_on_c, 10, 60, 0
11, 190680, Note_on_c, 10, 60, 70
11, 190725, Note_on_c, 10, 60, 0
11, 190740, Note_on_c, 10, 60, 70
11, 190785, Note_on_c, 10, 60, 0
11, 190800, Note_on_c, 10, 60, 50
11, 190845, Note_on_c, 10, 60, 0
11, 190860, Note_on_c, 10, 60, 50
11, 190905, Note_on_c, 10, 60, 0
11, 190920, Note_on_c, 10, 60, 50
11, 190965, Note_on_c, 10, 60, 0
11, 190980, Note_on_c, 10, 60, 50
11, 191025, Note_on_c, 10, 60, 0
11, 191040, Note_on_c, 10, 60, 50
11, 191040, Control_c, 10, 11, 80
11, 191050, Control_c, 10, 11, 81
11, 191060, Control_c, 10, 11, 83
11, 191070, Control_c, 10, 11, 85
11, 191080, Control_c, 10, 11, 87
11, 191085, Note_on_c, 10, 60, 0
11, 191090, Control_c, 10, 11, 89
11, 191100, Note_on_c, 10, 60, 50
11, 191100, Control_c, 10, 11, 91
11, 191110, Control_c, 10, 11, 93
11, 191120, Control_c, 10, 11, 95
11, 191130, Control_c, 10, 11, 97
11, 191140, Control_c, 10, 11, 99
11, 191145, Note_on_c, 10, 60, 0
11, 191150, Control_c, 10, 11, 101
11, 191160, Note_on_c, 10, 60, 50
11, 191160, Control_c, 10, 11, 103
11, 191170, Control_c, 10, 11, 105
11, 191180, Control_c, 10, 11, 107
11, 191190, Control_c, 10, 11, 109
11, 191200, Control_c, 10, 11, 111
11, 191205, Note_on_c, 10, 60, 0
11, 191210, Control_c, 10, 11, 113
11, 191220, Note_on_c, 10, 60, 50
11, 191220, Control_c, 10, 11, 115
11, 191230, Control_c, 10, 11, 117
11, 191240, Control_c, 10, 11, 119
11, 191250, Control_c, 10, 11, 121
11, 191260, Control_c, 10, 11, 123
11, 191265, Note_on_c, 10, 60, 0
11, 191270, Control_c, 10, 11, 125
11, 191280, Note_on_c, 10, 60, 50
11, 191280, Control_c, 10, 11, 127
11, 191290, Control_c, 10, 11, 125
11, 191300, Control_c, 10, 11, 123
11, 191310, Control_c, 10, 11, 121
11, 191320, Control_c, 10, 11, 119
11, 191325, Note_on_c, 10, 60, 0
11, 191330, Control_c, 10, 11, 117
11, 191340, Note_on_c, 10, 60, 50
11, 191340, Control_c, 10, 11, 115
11, 191350, Control_c, 10, 11, 113
11, 191360, Control_c, 10, 11, 111
11, 191370, Control_c, 10, 11, 109
11, 191380, Control_c, 10, 11, 107
11, 191385, Note_on_c, 10, 60, 0
11, 191390, Control_c, 10, 11, 105
11, 191400, Note_on_c, 10, 60, 50
11, 191400, Control_c, 10, 11, 103
11, 191410, Control_c, 10, 11, 101
11, 191420, Control_c, 10, 11, 99
11, 191430, Control_c, 10, 11, 97
11, 191440, Control_c, 10, 11, 95
11, 191445, Note_on_c, 10, 60, 0
11, 191450, Control_c, 10, 11, 93
11, 191460, Note_on_c, 10, 60, 50
11, 191460, Control_c, 10, 11, 91
11, 191470, Control_c, 10, 11, 89
11, 191480, Control_c, 10, 11, 87
11, 191490, Control_c, 10, 11, 84
11, 191500, Control_c, 10, 11, 82
11, 191505, Note_on_c, 10, 60, 0
11, 191510, Control_c, 10, 11, 80
11, 191580, Note_on_c, 10, 59, 50
11, 191625, Note_on_c, 10, 59, 0
11, 191640, Note_on_c, 10, 59, 50
11, 191685, Note_on_c, 10, 59, 0
11, 191700, Note_on_c, 10, 59, 50
11, 191745, Note_on_c, 10, 59, 0
11, 191820, Note_on_c, 10, 62, 50
11, 191865, Note_on_c, 10, 62, 0
11, 191880, Note_on_c, 10, 62, 50
11, 191925, Note_on_c, 10, 62, 0
11, 191940, Note_on_c, 10, 62, 50
11, 191985, Note_on_c, 10, 62, 0
11, 192000, Note_on_c, 10, 63, 50
11, 192120, Note_on_c, 10, 67, 50
11, 192135, Note_on_c, 10, 63, 0
11, 192180, Note_on_c, 10, 63, 50
11, 192195, Note_on_c, 10, 67, 0
11, 192240, Note_on_c, 10, 67, 50
11, 192255, Note_on_c, 10, 63, 0
11, 192300, Note_on_c, 10, 63, 50
11, 192315, Note_on_c, 10, 67, 0
11, 192360, Note_on_c, 10, 67, 50
11, 192375, Note_on_c, 10, 63, 0
11, 192420, Note_on_c, 10, 63, 50
11, 192435, Note_on_c, 10, 67, 0
11, 192465, Note_on_c, 10, 63, 0
11, 192540, Note_on_c, 10, 65, 50
11, 192600, Note_on_c, 10, 67, 50
11, 192615, Note_on_c, 10, 65, 0
11, 192660, Note_on_c, 10, 65, 50
11, 192675, Note_on_c, 10, 67, 0
11, 192720, Note_on_c, 10, 67, 50
11, 192735, Note_on_c, 10, 65, 0
11, 192780, Note_on_c, 10, 65, 50
11, 192795, Note_on_c, 10, 67, 0
11, 192840, Note_on_c, 10, 67, 50
11, 192855, Note_on_c, 10, 65, 0
11, 192900, Note_on_c, 10, 65, 50
11, 192915, Note_on_c, 10, 67, 0
11, 192945, Note_on_c, 10, 65, 0
11, 193080, Note_on_c, 10, 67, 50
11, 193155, Note_on_c, 10, 67, 0
11, 193260, Note_on_c, 10, 63, 50
11, 193320, Note_on_c, 10, 67, 50
11, 193335, Note_on_c, 10, 63, 0
11, 193380, Note_on_c, 10, 63, 50
11, 193395, Note_on_c, 10, 67, 0
11, 193425, Note_on_c, 10, 63, 0
11, 193500, Note_on_c, 10, 63, 50
11, 193560, Note_on_c, 10, 67, 50
11, 193575, Note_on_c, 10, 63, 0
11, 193620, Note_on_c, 10, 63, 50
11, 193635, Note_on_c, 10, 67, 0
11, 193665, Note_on_c, 10, 63, 0
11, 193740, Note_on_c, 10, 63, 50
11, 193800, Note_on_c, 10, 67, 50
11, 193815, Note_on_c, 10, 63, 0
11, 193860, Note_on_c, 10, 63, 50
11, 193875, Note_on_c, 10, 67, 0
11, 193905, Note_on_c, 10, 63, 0
11, 193980, Note_on_c, 10, 65, 50
11, 194040, Note_on_c, 10, 67, 50
11, 194055, Note_on_c, 10, 65, 0
11, 194100, Note_on_c, 10, 65, 50
11, 194115, Note_on_c, 10, 67, 0
11, 194145, Note_on_c, 10, 65, 0
11, 194220, Note_on_c, 10, 65, 50
11, 194280, Note_on_c, 10, 67, 50
11, 194295, Note_on_c, 10, 65, 0
11, 194340, Note_on_c, 10, 65, 50
11, 194355, Note_on_c, 10, 67, 0
11, 194385, Note_on_c, 10, 65, 0
11, 194460, Note_on_c, 10, 65, 50
11, 194520, Note_on_c, 10, 67, 50
11, 194535, Note_on_c, 10, 65, 0
11, 194580, Note_on_c, 10, 65, 50
11, 194595, Note_on_c, 10, 67, 0
11, 194625, Note_on_c, 10, 65, 0
11, 194700, Note_on_c, 10, 65, 50
11, 194760, Note_on_c, 10, 67, 50
11, 194775, Note_on_c, 10, 65, 0
11, 194820, Note_on_c, 10, 65, 50
11, 194835, Note_on_c, 10, 67, 0
11, 194865, Note_on_c, 10, 65, 0
11, 194940, Note_on_c, 10, 63, 50
11, 195000, Note_on_c, 10, 67, 50
11, 195015, Note_on_c, 10, 63, 0
11, 195060, Note_on_c, 10, 63, 50
11, 195075, Note_on_c, 10, 67, 0
11, 195105, Note_on_c, 10, 63, 0
11, 195180, Note_on_c, 10, 62, 50
11, 195240, Note_on_c, 10, 67, 50
11, 195255, Note_on_c, 10, 62, 0
11, 195300, Note_on_c, 10, 62, 50
11, 195315, Note_on_c, 10, 67, 0
11, 195345, Note_on_c, 10, 62, 0
11, 195420, Note_on_c, 10, 62, 50
11, 195480, Note_on_c, 10, 67, 50
11, 195495, Note_on_c, 10, 62, 0
11, 195540, Note_on_c, 10, 62, 50
11, 195555, Note_on_c, 10, 67, 0
11, 195600, Note_on_c, 10, 67, 50
11, 195615, Note_on_c, 10, 62, 0
11, 195660, Note_on_c, 10, 62, 50
11, 195675, Note_on_c, 10, 67, 0
11, 195720, Note_on_c, 10, 67, 50
11, 195735, Note_on_c, 10, 62, 0
11, 195780, Note_on_c, 10, 62, 50
11, 195795, Note_on_c, 10, 67, 0
11, 195825, Note_on_c, 10, 62, 0
11, 195900, Note_on_c, 10, 72, 65
11, 195960, Note_on_c, 10, 62, 65
11, 195975, Note_on_c, 10, 72, 0
11, 196020, Note_on_c, 10, 72, 65
11, 196035, Note_on_c, 10, 62, 0
11, 196065, Note_on_c, 10, 72, 0
11, 196140, Note_on_c, 10, 72, 65
11, 196200, Note_on_c, 10, 62, 65
11, 196215, Note_on_c, 10, 72, 0
11, 196260, Note_on_c, 10, 72, 65
11, 196275, Note_on_c, 10, 62, 0
11, 196305, Note_on_c, 10, 72, 0
11, 196380, Note_on_c, 10, 72, 65
11, 196440, Note_on_c, 10, 62, 65
11, 196455, Note_on_c, 10, 72, 0
11, 196500, Note_on_c, 10, 72, 65
11, 196515, Note_on_c, 10, 62, 0
11, 196545, Note_on_c, 10, 72, 0
11, 196620, Note_on_c, 10, 72, 65
11, 196680, Note_on_c, 10, 62, 65
11, 196695, Note_on_c, 10, 72, 0
11, 196740, Note_on_c, 10, 72, 65
11, 196755, Note_on_c, 10, 62, 0
11, 196785, Note_on_c, 10, 72, 0
11, 196860, Note_on_c, 10, 72, 65
11, 196920, Note_on_c, 10, 63, 65
11, 196935, Note_on_c, 10, 72, 0
11, 196980, Note_on_c, 10, 72, 65
11, 196995, Note_on_c, 10, 63, 0
11, 197025, Note_on_c, 10, 72, 0
11, 197100, Note_on_c, 10, 72, 64
11, 197160, Note_on_c, 10, 63, 63
11, 197175, Note_on_c, 10, 72, 0
11, 197220, Note_on_c, 10, 72, 62
11, 197235, Note_on_c, 10, 63, 0
11, 197265, Note_on_c, 10, 72, 0
11, 197340, Note_on_c, 10, 72, 59
11, 197400, Note_on_c, 10, 63, 58
11, 197415, Note_on_c, 10, 72, 0
11, 197460, Note_on_c, 10, 72, 57
11, 197475, Note_on_c, 10, 63, 0
11, 197505, Note_on_c, 10, 72, 0
11, 197580, Note_on_c, 10, 72, 54
11, 197640, Note_on_c, 10, 63, 53
11, 197655, Note_on_c, 10, 72, 0
11, 197700, Note_on_c, 10, 72, 52
11, 197715, Note_on_c, 10, 63, 0
11, 197745, Note_on_c, 10, 72, 0
11, 197820, Note_on_c, 10, 63, 50
11, 197880, Note_on_c, 10, 60, 50
11, 197895, Note_on_c, 10, 63, 0
11, 197940, Note_on_c, 10, 63, 50
11, 197955, Note_on_c, 10, 60, 0
11, 197985, Note_on_c, 10, 63, 0
11, 198060, Note_on_c, 10, 63, 50
11, 198120, Note_on_c, 10, 60, 50
11, 198135, Note_on_c, 10, 63, 0
11, 198180, Note_on_c, 10, 63, 50
11, 198195, Note_on_c, 10, 60, 0
11, 198225, Note_on_c, 10, 63, 0
11, 198300, Note_on_c, 10, 65, 50
11, 198360, Note_on_c, 10, 59, 50
11, 198375, Note_on_c, 10, 65, 0
11, 198420, Note_on_c, 10, 65, 50
11, 198435, Note_on_c, 10, 59, 0
11, 198465, Note_on_c, 10, 65, 0
11, 198540, Note_on_c, 10, 65, 50
11, 198600, Note_on_c, 10, 59, 50
11, 198615, Note_on_c, 10, 65, 0
11, 198660, Note_on_c, 10, 65, 50
11, 198675, Note_on_c, 10, 59, 0
11, 198705, Note_on_c, 10, 65, 0
11, 198780, Note_on_c, 10, 63, 50
11, 198840, Note_on_c, 10, 60, 50
11, 198855, Note_on_c, 10, 63, 0
11, 198900, Note_on_c, 10, 63, 50
11, 198915, Note_on_c, 10, 60, 0
11, 198960, Note_on_c, 10, 60, 50
11, 198975, Note_on_c, 10, 63, 0
11, 199020, Note_on_c, 10, 63, 50
11, 199035, Note_on_c, 10, 60, 0
11, 199080, Note_on_c, 10, 60, 50
11, 199095, Note_on_c, 10, 63, 0
11, 199140, Note_on_c, 10, 63, 50
11, 199155, Note_on_c, 10, 60, 0
11, 199185, Note_on_c, 10, 63, 0
11, 199200, Note_on_c, 10, 60, 50
11, 199260, Note_on_c, 10, 63, 50
11, 199275, Note_on_c, 10, 60, 0
11, 199320, Note_on_c, 10, 60, 50
11, 199335, Note_on_c, 10, 63, 0
11, 199380, Note_on_c, 10, 63, 50
11, 199395, Note_on_c, 10, 60, 0
11, 199440, Note_on_c, 10, 60, 50
11, 199455, Note_on_c, 10, 63, 0
11, 199500, Note_on_c, 10, 63, 50
11, 199515, Note_on_c, 10, 60, 0
11, 199560, Note_on_c, 10, 60, 50
11, 199575, Note_on_c, 10, 63, 0
11, 199620, Note_on_c, 10, 63, 50
11, 199635, Note_on_c, 10, 60, 0
11, 199665, Note_on_c, 10, 63, 0
11, 199740, Note_on_c, 10, 63, 50
11, 199800, Note_on_c, 10, 60, 51
11, 199815, Note_on_c, 10, 63, 0
11, 199860, Note_on_c, 10, 63, 52
11, 199875, Note_on_c, 10, 60, 0
11, 199905, Note_on_c, 10, 63, 0
11, 199980, Note_on_c, 10, 63, 54
11, 200040, Note_on_c, 10, 60, 55
11, 200055, Note_on_c, 10, 63, 0
11, 200100, Note_on_c, 10, 63, 56
11, 200115, Note_on_c, 10, 60, 0
11, 200145, Note_on_c, 10, 63, 0
11, 200220, Note_on_c, 10, 65, 58
11, 200280, Note_on_c, 10, 59, 59
11, 200295, Note_on_c, 10, 65, 0
11, 200340, Note_on_c, 10, 65, 60
11, 200355, Note_on_c, 10, 59, 0
11, 200385, Note_on_c, 10, 65, 0
11, 200460, Note_on_c, 10, 65, 62
11, 200520, Note_on_c, 10, 59, 63
11, 200535, Note_on_c, 10, 65, 0
11, 200580, Note_on_c, 10, 65, 64
11, 200595, Note_on_c, 10, 59, 0
11, 200625, Note_on_c, 10, 65, 0
11, 200880, Note_on_c, 10, 60, 90
11, 200970, Note_on_c, 10, 60, 0
11, 201120, Note_on_c, 10, 56, 84
11, 201210, Note_on_c, 10, 56, 0
11, 201360, Note_on_c, 10, 60, 79
11, 201450, Note_on_c, 10, 60, 0
11, 201600, Note_on_c, 10, 56, 73
11, 201690, Note_on_c, 10, 56, 0
11, 201840, Note_on_c, 10, 60, 67
11, 201930, Note_on_c, 10, 60, 0
11, 202080, Note_on_c, 10, 56, 62
11, 202170, Note_on_c, 10, 56, 0
11, 202320, Note_on_c, 10, 60, 56
11, 202410, Note_on_c, 10, 60, 0
11, 202560, Note_on_c, 10, 56, 50
11, 202650, Note_on_c, 10, 56, 0
11, 202800, Note_on_c, 10, 63, 49
11, 202890, Note_on_c, 10, 63, 0
11, 203040, Note_on_c, 10, 60, 48
11, 203130, Note_on_c, 10, 60, 0
11, 203280, Note_on_c, 10, 63, 47
11, 203370, Note_on_c, 10, 63, 0
11, 203520, Note_on_c, 10, 60, 45
11, 203610, Note_on_c, 10, 60, 0
11, 203760, Note_on_c, 10, 63, 44
11, 203850, Note_on_c, 10, 63, 0
11, 204000, Note_on_c, 10, 60, 43
11, 204090, Note_on_c, 10, 60, 0
11, 204240, Note_on_c, 10, 63, 42
11, 204330, Note_on_c, 10, 63, 0
11, 204480, Note_on_c, 10, 60, 40
11, 204570, Note_on_c, 10, 60, 0
11, 204600, Note_on_c, 10, 56, 40
11, 204600, Note_on_c, 10, 66, 40
11, 204810, Note_on_c, 10, 56, 0
11, 204810, Note_on_c, 10, 66, 0
11, 204840, Note_on_c, 10, 56, 40
11, 204840, Note_on_c, 10, 66, 40
11, 205050, Note_on_c, 10, 56, 0
11, 205050, Note_on_c, 10, 66, 0
11, 205080, Note_on_c, 10, 56, 40
11, 205080, Note_on_c, 10, 66, 40
11, 205290, Note_on_c, 10, 56, 0
11, 205290, Note_on_c, 10, 66, 0
11, 205320, Note_on_c, 10, 56, 40
11, 205320, Note_on_c, 10, 66, 40
11, 205530, Note_on_c, 10, 56, 0
11, 205530, Note_on_c, 10, 66, 0
11, 205560, Note_on_c, 10, 56, 40
11, 205560, Note_on_c, 10, 63, 40
11, 205770, Note_on_c, 10, 56, 0
11, 205770, Note_on_c, 10, 63, 0
11, 205800, Note_on_c, 10, 56, 40
11, 205800, Note_on_c, 10, 63, 40
11, 206010, Note_on_c, 10, 56, 0
11, 206010, Note_on_c, 10, 63, 0
11, 206040, Note_on_c, 10, 56, 40
11, 206040, Note_on_c, 10, 63, 40
11, 206250, Note_on_c, 10, 56, 0
11, 206250, Note_on_c, 10, 63, 0
11, 206280, Note_on_c, 10, 56, 40
11, 206280, Note_on_c, 10, 63, 40
11, 206400, Note_on_c, 10, 61, 40
11, 206430, Note_on_c, 10, 56, 0
11, 206430, Note_on_c, 10, 63, 0
11, 206490, Note_on_c, 10, 61, 0
11, 206520, Note_on_c, 10, 56, 40
11, 206730, Note_on_c, 10, 56, 0
11, 206760, Note_on_c, 10, 56, 40
11, 206760, Note_on_c, 10, 65, 40
11, 206970, Note_on_c, 10, 56, 0
11, 206970, Note_on_c, 10, 65, 0
11, 207000, Note_on_c, 10, 56, 40
11, 207000, Note_on_c, 10, 65, 40
11, 207210, Note_on_c, 10, 56, 0
11, 207210, Note_on_c, 10, 65, 0
11, 207240, Note_on_c, 10, 56, 40
11, 207240, Note_on_c, 10, 65, 40
11, 207360, Note_on_c, 10, 66, 40
11, 207390, Note_on_c, 10, 65, 0
11, 207450, Note_on_c, 10, 56, 0
11, 207450, Note_on_c, 10, 66, 0
11, 207480, Note_on_c, 10, 56, 40
11, 207480, Note_on_c, 10, 66, 40
11, 207690, Note_on_c, 10, 56, 0
11, 207690, Note_on_c, 10, 66, 0
11, 207720, Note_on_c, 10, 56, 40
11, 207720, Note_on_c, 10, 66, 40
11, 207930, Note_on_c, 10, 56, 0
11, 207930, Note_on_c, 10, 66, 0
11, 207960, Note_on_c, 10, 56, 40
11, 207960, Note_on_c, 10, 66, 40
11, 208170, Note_on_c, 10, 56, 0
11, 208170, Note_on_c, 10, 66, 0
11, 208200, Note_on_c, 10, 63, 40
11, 208440, Note_on_c, 10, 61, 40
11, 208470, Note_on_c, 10, 63, 0
11, 208560, Note_on_c, 10, 61, 0
11, 208680, Note_on_c, 10, 61, 40
11, 208800, Note_on_c, 10, 60, 40
11, 208830, Note_on_c, 10, 61, 0
11, 208920, Note_on_c, 10, 61, 40
11, 208950, Note_on_c, 10, 60, 0
11, 209040, Note_on_c, 10, 61, 0
11, 209160, Note_on_c, 10, 61, 40
11, 209400, Note_on_c, 10, 62, 40
11, 209430, Note_on_c, 10, 61, 0
11, 209520, Note_on_c, 10, 62, 0
11, 209640, Note_on_c, 10, 74, 50
11, 209880, Note_on_c, 10, 62, 40
11, 209910, Note_on_c, 10, 74, 0
11, 210000, Note_on_c, 10, 62, 0
11, 210120, Note_on_c, 10, 62, 40
11, 210360, Note_on_c, 10, 60, 40
11, 210390, Note_on_c, 10, 62, 0
11, 210480, Note_on_c, 10, 60, 0
11, 210600, Note_on_c, 10, 60, 40
11, 210720, Note_on_c, 10, 59, 40
11, 210750, Note_on_c, 10, 60, 0
11, 210840, Note_on_c, 10, 60, 40
11, 210870, Note_on_c, 10, 59, 0
11, 210960, Note_on_c, 10, 60, 0
11, 211080, Note_on_c, 10, 60, 40
11, 211320, Note_on_c, 10, 72, 40
11, 211350, Note_on_c, 10, 60, 0
11, 211440, Note_on_c, 10, 72, 0
11, 211560, Note_on_c, 10, 72, 50
11, 211680, Control_c, 10, 11, 80
11, 211700, Control_c, 10, 11, 81
11, 211720, Control_c, 10, 11, 82
11, 211740, Control_c, 10, 11, 83
11, 211760, Control_c, 10, 11, 84
11, 211770, Control_c, 10, 11, 85
11, 211790, Control_c, 10, 11, 86
11, 211800, Note_on_c, 10, 60, 40
11, 211810, Control_c, 10, 11, 87
11, 211830, Note_on_c, 10, 72, 0
11, 211830, Control_c, 10, 11, 88
11, 211850, Control_c, 10, 11, 89
11, 211860, Control_c, 10, 11, 90
11, 211880, Control_c, 10, 11, 91
11, 211900, Control_c, 10, 11, 92
11, 211920, Note_on_c, 10, 60, 0
11, 211920, Control_c, 10, 11, 93
11, 211940, Control_c, 10, 11, 94
11, 211950, Control_c, 10, 11, 95
11, 211970, Control_c, 10, 11, 96
11, 211990, Control_c, 10, 11, 97
11, 212010, Control_c, 10, 11, 98
11, 212030, Control_c, 10, 11, 99
11, 212040, Note_on_c, 10, 60, 40
11, 212040, Control_c, 10, 11, 100
11, 212060, Control_c, 10, 11, 101
11, 212080, Control_c, 10, 11, 102
11, 212100, Control_c, 10, 11, 103
11, 212120, Control_c, 10, 11, 104
11, 212130, Control_c, 10, 11, 105
11, 212150, Control_c, 10, 11, 106
11, 212170, Control_c, 10, 11, 107
11, 212190, Control_c, 10, 11, 108
11, 212210, Control_c, 10, 11, 109
11, 212220, Control_c, 10, 11, 110
11, 212240, Control_c, 10, 11, 111
11, 212260, Control_c, 10, 11, 112
11, 212280, Control_c, 10, 11, 113
11, 212300, Control_c, 10, 11, 114
11, 212310, Control_c, 10, 11, 115
11, 212330, Control_c, 10, 11, 116
11, 212350, Control_c, 10, 11, 117
11, 212370, Control_c, 10, 11, 118
11, 212390, Control_c, 10, 11, 119
11, 212400, Note_on_c, 10, 60, 0
11, 212400, Control_c, 10, 11, 120
11, 212420, Control_c, 10, 11, 119
11, 212440, Control_c, 10, 11, 118
11, 212460, Control_c, 10, 11, 117
11, 212480, Control_c, 10, 11, 116
11, 212490, Control_c, 10, 11, 115
11, 212510, Control_c, 10, 11, 114
11, 212520, Note_on_c, 10, 60, 40
11, 212530, Control_c, 10, 11, 113
11, 212550, Control_c, 10, 11, 112
11, 212560, Control_c, 10, 11, 111
11, 212580, Control_c, 10, 11, 110
11, 212600, Control_c, 10, 11, 109
11, 212620, Control_c, 10, 11, 108
11, 212630, Control_c, 10, 11, 107
11, 212650, Control_c, 10, 11, 106
11, 212670, Control_c, 10, 11, 105
11, 212690, Control_c, 10, 11, 104
11, 212700, Control_c, 10, 11, 103
11, 212720, Control_c, 10, 11, 102
11, 212740, Control_c, 10, 11, 101
11, 212760, Control_c, 10, 11, 100
11, 212770, Control_c, 10, 11, 99
11, 212790, Control_c, 10, 11, 98
11, 212810, Control_c, 10, 11, 97
11, 212830, Control_c, 10, 11, 96
11, 212840, Control_c, 10, 11, 95
11, 212860, Control_c, 10, 11, 94
11, 212880, Note_on_c, 10, 60, 0
11, 212880, Control_c, 10, 11, 93
11, 212900, Control_c, 10, 11, 92
11, 212910, Control_c, 10, 11, 91
11, 212930, Control_c, 10, 11, 90
11, 212950, Control_c, 10, 11, 89
11, 212970, Control_c, 10, 11, 88
11, 212980, Control_c, 10, 11, 87
11, 213000, Note_on_c, 10, 60, 40
11, 213000, Control_c, 10, 11, 86
11, 213020, Control_c, 10, 11, 85
11, 213040, Control_c, 10, 11, 84
11, 213050, Control_c, 10, 11, 83
11, 213070, Control_c, 10, 11, 82
11, 213090, Control_c, 10, 11, 81
11, 213110, Control_c, 10, 11, 80
11, 213240, Note_on_c, 10, 59, 40
11, 213270, Note_on_c, 10, 60, 0
11, 213360, Note_on_c, 10, 59, 0
11, 213480, Note_on_c, 10, 59, 40
11, 213600, Note_on_c, 10, 60, 40
11, 213630, Note_on_c, 10, 59, 0
11, 213720, Note_on_c, 10, 59, 40
11, 213750, Note_on_c, 10, 60, 0
11, 213840, Note_on_c, 10, 59, 0
11, 213960, Note_on_c, 10, 59, 40
11, 214050, Note_on_c, 10, 59, 0
11, 215520, Note_on_c, 10, 58, 40
11, 215760, Note_on_c, 10, 56, 40
11, 215790, Note_on_c, 10, 58, 0
11, 215970, Note_on_c, 10, 56, 0
11, 216000, Note_on_c, 10, 55, 40
11, 216000, Control_c, 10, 11, 80
11, 216070, Control_c, 10, 11, 81
11, 216140, Control_c, 10, 11, 82
11, 216210, Control_c, 10, 11, 83
11, 216240, Note_on_c, 10, 60, 40
11, 216270, Note_on_c, 10, 55, 0
11, 216280, Control_c, 10, 11, 84
11, 216350, Control_c, 10, 11, 85
11, 216420, Control_c, 10, 11, 86
11, 216490, Control_c, 10, 11, 87
11, 216560, Control_c, 10, 11, 88
11, 216630, Control_c, 10, 11, 89
11, 216700, Control_c, 10, 11, 90
11, 216720, Note_on_c, 10, 64, 40
11, 216750, Note_on_c, 10, 60, 0
11, 216770, Control_c, 10, 11, 91
11, 216840, Control_c, 10, 11, 92
11, 216910, Control_c, 10, 11, 93
11, 216930, Note_on_c, 10, 64, 0
11, 216960, Note_on_c, 10, 65, 40
11, 216980, Control_c, 10, 11, 94
11, 217050, Control_c, 10, 11, 95
11, 217120, Control_c, 10, 11, 96
11, 217190, Control_c, 10, 11, 97
11, 217260, Control_c, 10, 11, 98
11, 217330, Control_c, 10, 11, 99
11, 217400, Control_c, 10, 11, 100
11, 217440, Note_on_c, 10, 64, 40
11, 217470, Note_on_c, 10, 65, 0
11, 217470, Control_c, 10, 11, 101
11, 217540, Control_c, 10, 11, 102
11, 217610, Control_c, 10, 11, 103
11, 217680, Note_on_c, 10, 60, 40
11, 217680, Control_c, 10, 11, 104
11, 217710, Note_on_c, 10, 64, 0
11, 217750, Control_c, 10, 11, 105
11, 217820, Control_c, 10, 11, 106
11, 217890, Note_on_c, 10, 60, 0
11, 217890, Control_c, 10, 11, 107
11, 217920, Note_on_c, 10, 60, 40
11, 217960, Control_c, 10, 11, 108
11, 218030, Control_c, 10, 11, 109
11, 218100, Control_c, 10, 11, 110
11, 218130, Note_on_c, 10, 60, 0
11, 218160, Note_on_c, 10, 60, 40
11, 218170, Control_c, 10, 11, 111
11, 218240, Control_c, 10, 11, 112
11, 218310, Control_c, 10, 11, 113
11, 218370, Note_on_c, 10, 60, 0
11, 218380, Control_c, 10, 11, 114
11, 218400, Note_on_c, 10, 60, 40
11, 218450, Control_c, 10, 11, 115
11, 218520, Control_c, 10, 11, 116
11, 218590, Control_c, 10, 11, 117
11, 218610, Note_on_c, 10, 60, 0
11, 218640, Note_on_c, 10, 60, 40
11, 218660, Control_c, 10, 11, 118
11, 218730, Control_c, 10, 11, 119
11, 218800, Control_c, 10, 11, 120
11, 218850, Note_on_c, 10, 60, 0
11, 218874, Control_c, 10, 11, 80
11, 218880, Note_on_c, 10, 64, 40
11, 218880, Control_c, 10, 11, 80
11, 218910, Control_c, 10, 11, 81
11, 218930, Control_c, 10, 11, 82
11, 218950, Control_c, 10, 11, 83
11, 218980, Control_c, 10, 11, 84
11, 219000, Control_c, 10, 11, 85
11, 219020, Control_c, 10, 11, 86
11, 219050, Control_c, 10, 11, 87
11, 219070, Control_c, 10, 11, 88
11, 219090, Control_c, 10, 11, 89
11, 219110, Control_c, 10, 11, 90
11, 219140, Control_c, 10, 11, 91
11, 219160, Control_c, 10, 11, 92
11, 219180, Control_c, 10, 11, 93
11, 219210, Control_c, 10, 11, 94
11, 219230, Control_c, 10, 11, 95
11, 219250, Control_c, 10, 11, 96
11, 219270, Control_c, 10, 11, 97
11, 219300, Control_c, 10, 11, 98
11, 219320, Control_c, 10, 11, 99
11, 219340, Control_c, 10, 11, 100
11, 219360, Note_on_c, 10, 63, 40
11, 219370, Control_c, 10, 11, 101
11, 219390, Note_on_c, 10, 64, 0
11, 219390, Control_c, 10, 11, 102
11, 219410, Control_c, 10, 11, 103
11, 219440, Control_c, 10, 11, 104
11, 219460, Control_c, 10, 11, 105
11, 219480, Control_c, 10, 11, 106
11, 219500, Control_c, 10, 11, 107
11, 219530, Control_c, 10, 11, 108
11, 219550, Control_c, 10, 11, 109
11, 219570, Control_c, 10, 11, 110
11, 219600, Control_c, 10, 11, 111
11, 219620, Control_c, 10, 11, 112
11, 219640, Control_c, 10, 11, 113
11, 219660, Control_c, 10, 11, 114
11, 219690, Control_c, 10, 11, 115
11, 219710, Control_c, 10, 11, 116
11, 219730, Control_c, 10, 11, 117
11, 219760, Control_c, 10, 11, 118
11, 219780, Control_c, 10, 11, 119
11, 219800, Control_c, 10, 11, 120
11, 219834, Control_c, 10, 11, 80
11, 219840, Note_on_c, 10, 61, 50
11, 219870, Note_on_c, 10, 63, 0
11, 220080, Note_on_c, 10, 61, 0
11, 220800, Note_on_c, 10, 60, 50
11, 221040, Note_on_c, 10, 60, 0
11, 221760, Note_on_c, 10, 56, 45
11, 222000, Control_c, 10, 11, 80
11, 222010, Control_c, 10, 11, 81
11, 222020, Control_c, 10, 11, 83
11, 222030, Control_c, 10, 11, 85
11, 222040, Control_c, 10, 11, 86
11, 222050, Control_c, 10, 11, 88
11, 222060, Control_c, 10, 11, 90
11, 222070, Control_c, 10, 11, 91
11, 222080, Control_c, 10, 11, 93
11, 222090, Control_c, 10, 11, 95
11, 222100, Control_c, 10, 11, 96
11, 222110, Control_c, 10, 11, 98
11, 222120, Control_c, 10, 11, 100
11, 222130, Control_c, 10, 11, 101
11, 222140, Control_c, 10, 11, 103
11, 222150, Control_c, 10, 11, 105
11, 222160, Control_c, 10, 11, 106
11, 222170, Control_c, 10, 11, 108
11, 222180, Control_c, 10, 11, 110
11, 222190, Control_c, 10, 11, 111
11, 222200, Control_c, 10, 11, 113
11, 222210, Control_c, 10, 11, 115
11, 222220, Control_c, 10, 11, 116
11, 222230, Control_c, 10, 11, 118
11, 222260, Control_c, 10, 11, 119
11, 222270, Control_c, 10, 11, 118
11, 222280, Control_c, 10, 11, 117
11, 222290, Control_c, 10, 11, 116
11, 222300, Control_c, 10, 11, 115
11, 222320, Control_c, 10, 11, 114
11, 222330, Control_c, 10, 11, 113
11, 222340, Control_c, 10, 11, 112
11, 222350, Control_c, 10, 11, 111
11, 222360, Control_c, 10, 11, 110
11, 222370, Control_c, 10, 11, 109
11, 222390, Control_c, 10, 11, 108
11, 222400, Control_c, 10, 11, 107
11, 222410, Control_c, 10, 11, 106
11, 222420, Control_c, 10, 11, 105
11, 222430, Control_c, 10, 11, 104
11, 222440, Control_c, 10, 11, 103
11, 222460, Control_c, 10, 11, 102
11, 222470, Control_c, 10, 11, 101
11, 222480, Control_c, 10, 11, 100
11, 222490, Control_c, 10, 11, 99
11, 222500, Control_c, 10, 11, 98
11, 222510, Control_c, 10, 11, 97
11, 222530, Control_c, 10, 11, 96
11, 222540, Control_c, 10, 11, 95
11, 222550, Control_c, 10, 11, 94
11, 222560, Control_c, 10, 11, 93
11, 222570, Control_c, 10, 11, 92
11, 222580, Control_c, 10, 11, 91
11, 222600, Control_c, 10, 11, 90
11, 222610, Control_c, 10, 11, 89
11, 222620, Control_c, 10, 11, 88
11, 222630, Control_c, 10, 11, 87
11, 222640, Control_c, 10, 11, 86
11, 222650, Control_c, 10, 11, 85
11, 222670, Control_c, 10, 11, 84
11, 222680, Control_c, 10, 11, 83
11, 222690, Control_c, 10, 11, 82
11, 222700, Control_c, 10, 11, 81
11, 222710, Control_c, 10, 11, 80
11, 222720, Note_on_c, 10, 55, 50
11, 222750, Note_on_c, 10, 56, 0
11, 222960, Note_on_c, 10, 55, 0
11, 223680, Note_on_c, 10, 56, 50
11, 223920, Control_c, 10, 11, 80
11, 223930, Control_c, 10, 11, 81
11, 223940, Control_c, 10, 11, 83
11, 223950, Control_c, 10, 11, 85
11, 223960, Control_c, 10, 11, 86
11, 223970, Control_c, 10, 11, 88
11, 223980, Control_c, 10, 11, 90
11, 223990, Control_c, 10, 11, 91
11, 224000, Control_c, 10, 11, 93
11, 224010, Control_c, 10, 11, 95
11, 224020, Control_c, 10, 11, 96
11, 224030, Control_c, 10, 11, 98
11, 224040, Control_c, 10, 11, 100
11, 224050, Control_c, 10, 11, 101
11, 224060, Control_c, 10, 11, 103
11, 224070, Control_c, 10, 11, 105
11, 224080, Control_c, 10, 11, 106
11, 224090, Control_c, 10, 11, 108
11, 224100, Control_c, 10, 11, 110
11, 224110, Control_c, 10, 11, 111
11, 224120, Control_c, 10, 11, 113
11, 224130, Control_c, 10, 11, 115
11, 224140, Control_c, 10, 11, 116
11, 224150, Control_c, 10, 11, 118
11, 224180, Control_c, 10, 11, 119
11, 224190, Control_c, 10, 11, 118
11, 224200, Control_c, 10, 11, 117
11, 224210, Control_c, 10, 11, 116
11, 224220, Control_c, 10, 11, 115
11, 224240, Control_c, 10, 11, 114
11, 224250, Control_c, 10, 11, 113
11, 224260, Control_c, 10, 11, 112
11, 224270, Control_c, 10, 11, 111
11, 224280, Control_c, 10, 11, 110
11, 224290, Control_c, 10, 11, 109
11, 224310, Control_c, 10, 11, 108
11, 224320, Control_c, 10, 11, 107
11, 224330, Control_c, 10, 11, 106
11, 224340, Control_c, 10, 11, 105
11, 224350, Control_c, 10, 11, 104
11, 224360, Control_c, 10, 11, 103
11, 224380, Control_c, 10, 11, 102
11, 224390, Control_c, 10, 11, 101
11, 224400, Control_c, 10, 11, 100
11, 224410, Control_c, 10, 11, 99
11, 224420, Control_c, 10, 11, 98
11, 224430, Control_c, 10, 11, 97
11, 224450, Control_c, 10, 11, 96
11, 224460, Control_c, 10, 11, 95
11, 224470, Control_c, 10, 11, 94
11, 224480, Control_c, 10, 11, 93
11, 224490, Control_c, 10, 11, 92
11, 224500, Control_c, 10, 11, 91
11, 224520, Control_c, 10, 11, 90
11, 224530, Control_c, 10, 11, 89
11, 224540, Control_c, 10, 11, 88
11, 224550, Control_c, 10, 11, 87
11, 224560, Control_c, 10, 11, 86
11, 224570, Control_c, 10, 11, 85
11, 224590, Control_c, 10, 11, 84
11, 224600, Control_c, 10, 11, 83
11, 224610, Control_c, 10, 11, 82
11, 224620, Control_c, 10, 11, 81
11, 224630, Control_c, 10, 11, 80
11, 224640, Note_on_c, 10, 55, 50
11, 224670, Note_on_c, 10, 56, 0
11, 224880, Note_on_c, 10, 55, 0
11, 225600, Note_on_c, 10, 56, 50
11, 226560, Control_c, 10, 11, 80
11, 226590, Control_c, 10, 11, 81
11, 226610, Control_c, 10, 11, 82
11, 226630, Control_c, 10, 11, 83
11, 226650, Control_c, 10, 11, 84
11, 226670, Control_c, 10, 11, 85
11, 226690, Control_c, 10, 11, 86
11, 226710, Control_c, 10, 11, 87
11, 226730, Control_c, 10, 11, 88
11, 226750, Control_c, 10, 11, 89
11, 226770, Control_c, 10, 11, 90
11, 226790, Control_c, 10, 11, 91
11, 226810, Control_c, 10, 11, 92
11, 226830, Control_c, 10, 11, 93
11, 226850, Control_c, 10, 11, 94
11, 226870, Control_c, 10, 11, 95
11, 226890, Control_c, 10, 11, 96
11, 226910, Control_c, 10, 11, 97
11, 226930, Control_c, 10, 11, 98
11, 226950, Control_c, 10, 11, 99
11, 226970, Control_c, 10, 11, 100
11, 226990, Control_c, 10, 11, 101
11, 227010, Control_c, 10, 11, 102
11, 227030, Control_c, 10, 11, 103
11, 227060, Control_c, 10, 11, 104
11, 227080, Control_c, 10, 11, 105
11, 227100, Control_c, 10, 11, 106
11, 227120, Control_c, 10, 11, 107
11, 227140, Control_c, 10, 11, 108
11, 227160, Control_c, 10, 11, 109
11, 227180, Control_c, 10, 11, 110
11, 227200, Control_c, 10, 11, 111
11, 227220, Control_c, 10, 11, 112
11, 227240, Control_c, 10, 11, 113
11, 227260, Control_c, 10, 11, 114
11, 227280, Control_c, 10, 11, 115
11, 227300, Control_c, 10, 11, 116
11, 227320, Control_c, 10, 11, 117
11, 227340, Control_c, 10, 11, 118
11, 227360, Control_c, 10, 11, 119
11, 227380, Control_c, 10, 11, 120
11, 227400, Control_c, 10, 11, 121
11, 227420, Control_c, 10, 11, 122
11, 227440, Control_c, 10, 11, 123
11, 227460, Control_c, 10, 11, 124
11, 227480, Control_c, 10, 11, 125
11, 227500, Control_c, 10, 11, 126
11, 227520, Control_c, 10, 11, 127
11, 227540, Control_c, 10, 11, 126
11, 227560, Control_c, 10, 11, 125
11, 227580, Control_c, 10, 11, 124
11, 227600, Control_c, 10, 11, 123
11, 227620, Control_c, 10, 11, 122
11, 227640, Control_c, 10, 11, 121
11, 227660, Control_c, 10, 11, 120
11, 227680, Control_c, 10, 11, 119
11, 227700, Control_c, 10, 11, 118
11, 227720, Control_c, 10, 11, 117
11, 227740, Control_c, 10, 11, 116
11, 227760, Note_on_c, 10, 55, 45
11, 227760, Control_c, 10, 11, 115
11, 227780, Control_c, 10, 11, 114
11, 227790, Note_on_c, 10, 56, 0
11, 227800, Control_c, 10, 11, 113
11, 227820, Control_c, 10, 11, 112
11, 227840, Control_c, 10, 11, 111
11, 227860, Control_c, 10, 11, 110
11, 227880, Control_c, 10, 11, 109
11, 227900, Control_c, 10, 11, 108
11, 227920, Control_c, 10, 11, 107
11, 227940, Control_c, 10, 11, 106
11, 227960, Control_c, 10, 11, 105
11, 227980, Control_c, 10, 11, 104
11, 228000, Control_c, 10, 11, 103
11, 228020, Control_c, 10, 11, 102
11, 228040, Control_c, 10, 11, 101
11, 228060, Control_c, 10, 11, 100
11, 228080, Control_c, 10, 11, 99
11, 228100, Control_c, 10, 11, 98
11, 228120, Control_c, 10, 11, 97
11, 228140, Control_c, 10, 11, 96
11, 228160, Control_c, 10, 11, 95
11, 228180, Control_c, 10, 11, 94
11, 228200, Control_c, 10, 11, 93
11, 228210, Note_on_c, 10, 55, 0
11, 228220, Control_c, 10, 11, 92
11, 228240, Note_on_c, 10, 55, 45
11, 228240, Control_c, 10, 11, 91
11, 228260, Control_c, 10, 11, 90
11, 228280, Control_c, 10, 11, 89
11, 228300, Control_c, 10, 11, 88
11, 228320, Control_c, 10, 11, 87
11, 228340, Control_c, 10, 11, 86
11, 228360, Control_c, 10, 11, 85
11, 228380, Control_c, 10, 11, 84
11, 228400, Control_c, 10, 11, 83
11, 228420, Control_c, 10, 11, 82
11, 228440, Control_c, 10, 11, 81
11, 228450, Note_on_c, 10, 55, 0
11, 228460, Control_c, 10, 11, 80
11, 235920, Note_on_c, 10, 56, 40
11, 236010, Note_on_c, 10, 56, 0
11, 236040, Note_on_c, 10, 56, 40
11, 236130, Note_on_c, 10, 56, 0
11, 236160, Note_on_c, 10, 55, 40
11, 236400, Note_on_c, 10, 55, 0
11, 236400, End_track
12, 0, Start_track
12, 0, Channel_prefix, 11
12, 0, Title_t, "Viola   "
12, 0, Instrument_name_t, "Viola   "
12, 960, Note_on_c, 11, 51, 50
12, 1440, Note_on_c, 11, 51, 0
12, 1920, Note_on_c, 11, 51, 50
12, 2400, Note_on_c, 11, 51, 0
12, 2880, Note_on_c, 11, 51, 50
12, 3330, Note_on_c, 11, 51, 0
12, 3360, Note_on_c, 11, 51, 50
12, 3810, Note_on_c, 11, 51, 0
12, 3840, Note_on_c, 11, 51, 50
12, 4320, Note_on_c, 11, 50, 50
12, 4350, Note_on_c, 11, 51, 0
12, 4530, Note_on_c, 11, 50, 0
12, 4800, Note_on_c, 11, 53, 50
12, 5250, Note_on_c, 11, 53, 0
12, 5760, Note_on_c, 11, 53, 50
12, 5760, Control_c, 11, 11, 80
12, 5770, Control_c, 11, 11, 82
12, 5780, Control_c, 11, 11, 85
12, 5790, Control_c, 11, 11, 87
12, 5800, Control_c, 11, 11, 90
12, 5810, Control_c, 11, 11, 92
12, 5820, Control_c, 11, 11, 95
12, 5830, Control_c, 11, 11, 97
12, 5840, Control_c, 11, 11, 100
12, 5850, Control_c, 11, 11, 102
12, 5860, Control_c, 11, 11, 105
12, 5870, Control_c, 11, 11, 107
12, 5880, Control_c, 11, 11, 110
12, 5900, Control_c, 11, 11, 109
12, 5910, Control_c, 11, 11, 109
12, 5920, Control_c, 11, 11, 108
12, 5930, Control_c, 11, 11, 108
12, 5950, Control_c, 11, 11, 107
12, 5960, Control_c, 11, 11, 106
12, 5970, Control_c, 11, 11, 106
12, 5980, Control_c, 11, 11, 105
12, 5990, Control_c, 11, 11, 105
12, 6010, Control_c, 11, 11, 104
12, 6020, Control_c, 11, 11, 103
12, 6030, Control_c, 11, 11, 103
12, 6040, Control_c, 11, 11, 102
12, 6050, Control_c, 11, 11, 102
12, 6070, Control_c, 11, 11, 100
12, 6080, Control_c, 11, 11, 100
12, 6090, Control_c, 11, 11, 99
12, 6100, Control_c, 11, 11, 99
12, 6120, Control_c, 11, 11, 98
12, 6130, Control_c, 11, 11, 97
12, 6140, Control_c, 11, 11, 97
12, 6150, Control_c, 11, 11, 96
12, 6160, Control_c, 11, 11, 96
12, 6180, Control_c, 11, 11, 95
12, 6190, Control_c, 11, 11, 94
12, 6200, Control_c, 11, 11, 94
12, 6210, Control_c, 11, 11, 93
12, 6220, Control_c, 11, 11, 93
12, 6240, Control_c, 11, 11, 92
12, 6250, Control_c, 11, 11, 91
12, 6260, Control_c, 11, 11, 90
12, 6270, Control_c, 11, 11, 90
12, 6290, Control_c, 11, 11, 89
12, 6300, Control_c, 11, 11, 88
12, 6310, Control_c, 11, 11, 88
12, 6320, Control_c, 11, 11, 87
12, 6330, Control_c, 11, 11, 87
12, 6350, Control_c, 11, 11, 86
12, 6360, Control_c, 11, 11, 85
12, 6370, Control_c, 11, 11, 85
12, 6380, Control_c, 11, 11, 84
12, 6390, Control_c, 11, 11, 84
12, 6410, Control_c, 11, 11, 83
12, 6420, Control_c, 11, 11, 82
12, 6430, Control_c, 11, 11, 81
12, 6440, Control_c, 11, 11, 80
12, 6450, Note_on_c, 11, 53, 0
12, 6480, Note_on_c, 11, 53, 50
12, 6600, Note_on_c, 11, 55, 50
12, 6630, Note_on_c, 11, 53, 0
12, 6720, Note_on_c, 11, 55, 0
12, 6720, Note_on_c, 11, 55, 50
12, 6960, Note_on_c, 11, 50, 50
12, 6990, Note_on_c, 11, 55, 0
12, 7170, Note_on_c, 11, 50, 0
12, 7200, Note_on_c, 11, 51, 50
12, 7440, Note_on_c, 11, 53, 50
12, 7470, Note_on_c, 11, 51, 0
12, 7650, Note_on_c, 11, 53, 0
12, 7680, Note_on_c, 11, 51, 50
12, 7860, Note_on_c, 11, 51, 0
12, 7920, Note_on_c, 11, 53, 50
12, 8070, Note_on_c, 11, 53, 0
12, 8100, Note_on_c, 11, 53, 50
12, 8154, Note_on_c, 11, 53, 0
12, 8160, Note_on_c, 11, 51, 50
12, 8340, Note_on_c, 11, 51, 0
12, 8520, Note_on_c, 11, 55, 50
12, 8550, Note_on_c, 11, 55, 0
12, 8560, Note_on_c, 11, 55, 50
12, 8590, Note_on_c, 11, 55, 0
12, 8600, Note_on_c, 11, 55, 50
12, 8630, Note_on_c, 11, 55, 0
12, 8640, Note_on_c, 11, 55, 50
12, 8880, Note_on_c, 11, 55, 0
12, 9480, Note_on_c, 11, 55, 50
12, 9510, Note_on_c, 11, 55, 0
12, 9520, Note_on_c, 11, 55, 50
12, 9550, Note_on_c, 11, 55, 0
12, 9560, Note_on_c, 11, 55, 50
12, 9590, Note_on_c, 11, 55, 0
12, 9600, Note_on_c, 11, 55, 50
12, 9840, Note_on_c, 11, 55, 0
12, 10440, Note_on_c, 11, 55, 50
12, 10470, Note_on_c, 11, 55, 0
12, 10480, Note_on_c, 11, 55, 50
12, 10510, Note_on_c, 11, 55, 0
12, 10520, Note_on_c, 11, 55, 50
12, 10550, Note_on_c, 11, 55, 0
12, 10560, Note_on_c, 11, 55, 50
12, 10800, Note_on_c, 11, 55, 0
12, 10920, Note_on_c, 11, 55, 50
12, 10950, Note_on_c, 11, 55, 0
12, 10960, Note_on_c, 11, 55, 50
12, 10990, Note_on_c, 11, 55, 0
12, 11000, Note_on_c, 11, 55, 50
12, 11030, Note_on_c, 11, 55, 0
12, 11040, Note_on_c, 11, 55, 50
12, 11280, Note_on_c, 11, 55, 0
12, 11400, Note_on_c, 11, 55, 50
12, 11430, Note_on_c, 11, 55, 0
12, 11440, Note_on_c, 11, 55, 50
12, 11470, Note_on_c, 11, 55, 0
12, 11480, Note_on_c, 11, 55, 50
12, 11510, Note_on_c, 11, 55, 0
12, 11520, Note_on_c, 11, 60, 50
12, 11520, Control_c, 11, 11, 80
12, 11540, Control_c, 11, 11, 81
12, 11560, Control_c, 11, 11, 82
12, 11570, Control_c, 11, 11, 83
12, 11590, Control_c, 11, 11, 84
12, 11600, Control_c, 11, 11, 85
12, 11620, Control_c, 11, 11, 86
12, 11640, Control_c, 11, 11, 87
12, 11650, Control_c, 11, 11, 88
12, 11670, Control_c, 11, 11, 89
12, 11680, Control_c, 11, 11, 90
12, 11700, Control_c, 11, 11, 91
12, 11720, Control_c, 11, 11, 92
12, 11730, Control_c, 11, 11, 93
12, 11750, Control_c, 11, 11, 94
12, 11760, Note_on_c, 11, 60, 0
12, 11760, Control_c, 11, 11, 95
12, 11780, Control_c, 11, 11, 96
12, 11800, Control_c, 11, 11, 97
12, 11810, Control_c, 11, 11, 98
12, 11830, Control_c, 11, 11, 99
12, 11840, Control_c, 11, 11, 100
12, 11860, Control_c, 11, 11, 101
12, 11880, Note_on_c, 11, 60, 50
12, 11880, Note_on_c, 11, 63, 50
12, 11880, Control_c, 11, 11, 102
12, 11890, Control_c, 11, 11, 103
12, 11910, Note_on_c, 11, 60, 0
12, 11910, Note_on_c, 11, 63, 0
12, 11910, Control_c, 11, 11, 104
12, 11920, Note_on_c, 11, 60, 50
12, 11920, Note_on_c, 11, 63, 50
12, 11920, Control_c, 11, 11, 105
12, 11940, Control_c, 11, 11, 106
12, 11950, Note_on_c, 11, 60, 0
12, 11950, Note_on_c, 11, 63, 0
12, 11960, Note_on_c, 11, 60, 50
12, 11960, Note_on_c, 11, 63, 50
12, 11960, Control_c, 11, 11, 107
12, 11970, Control_c, 11, 11, 108
12, 11990, Note_on_c, 11, 60, 0
12, 11990, Note_on_c, 11, 63, 0
12, 11990, Control_c, 11, 11, 109
12, 12000, Note_on_c, 11, 59, 50
12, 12000, Note_on_c, 11, 62, 50
12, 12000, Control_c, 11, 11, 110
12, 12010, Control_c, 11, 11, 109
12, 12020, Control_c, 11, 11, 108
12, 12030, Control_c, 11, 11, 107
12, 12040, Control_c, 11, 11, 105
12, 12050, Control_c, 11, 11, 104
12, 12060, Control_c, 11, 11, 103
12, 12070, Control_c, 11, 11, 102
12, 12080, Control_c, 11, 11, 100
12, 12090, Control_c, 11, 11, 99
12, 12100, Control_c, 11, 11, 98
12, 12110, Control_c, 11, 11, 97
12, 12120, Control_c, 11, 11, 95
12, 12130, Control_c, 11, 11, 94
12, 12140, Control_c, 11, 11, 93
12, 12150, Control_c, 11, 11, 92
12, 12160, Control_c, 11, 11, 90
12, 12170, Control_c, 11, 11, 89
12, 12180, Control_c, 11, 11, 88
12, 12190, Control_c, 11, 11, 87
12, 12200, Control_c, 11, 11, 85
12, 12210, Control_c, 11, 11, 84
12, 12220, Control_c, 11, 11, 83
12, 12230, Control_c, 11, 11, 80
12, 12240, Note_on_c, 11, 59, 0
12, 12240, Note_on_c, 11, 62, 0
12, 12360, Note_on_c, 11, 55, 50
12, 12390, Note_on_c, 11, 55, 0
12, 12400, Note_on_c, 11, 55, 50
12, 12430, Note_on_c, 11, 55, 0
12, 12440, Note_on_c, 11, 55, 50
12, 12470, Note_on_c, 11, 55, 0
12, 12480, Note_on_c, 11, 56, 50
12, 12720, Note_on_c, 11, 56, 0
12, 13320, Note_on_c, 11, 56, 50
12, 13350, Note_on_c, 11, 56, 0
12, 13360, Note_on_c, 11, 56, 50
12, 13390, Note_on_c, 11, 56, 0
12, 13400, Note_on_c, 11, 56, 50
12, 13430, Note_on_c, 11, 56, 0
12, 13440, Note_on_c, 11, 56, 50
12, 13440, Control_c, 11, 11, 80
12, 13480, Control_c, 11, 11, 81
12, 13520, Control_c, 11, 11, 82
12, 13560, Control_c, 11, 11, 83
12, 13600, Control_c, 11, 11, 84
12, 13640, Control_c, 11, 11, 85
12, 13680, Note_on_c, 11, 56, 0
12, 13680, Control_c, 11, 11, 86
12, 13720, Control_c, 11, 11, 87
12, 13760, Control_c, 11, 11, 88
12, 13800, Control_c, 11, 11, 89
12, 13840, Control_c, 11, 11, 90
12, 13880, Control_c, 11, 11, 91
12, 13920, Control_c, 11, 11, 92
12, 13960, Control_c, 11, 11, 93
12, 14000, Control_c, 11, 11, 94
12, 14040, Control_c, 11, 11, 95
12, 14080, Control_c, 11, 11, 96
12, 14120, Control_c, 11, 11, 97
12, 14160, Control_c, 11, 11, 98
12, 14200, Control_c, 11, 11, 99
12, 14240, Control_c, 11, 11, 100
12, 14280, Note_on_c, 11, 62, 50
12, 14280, Control_c, 11, 11, 101
12, 14310, Note_on_c, 11, 62, 0
12, 14320, Note_on_c, 11, 62, 50
12, 14320, Control_c, 11, 11, 102
12, 14350, Note_on_c, 11, 62, 0
12, 14360, Note_on_c, 11, 62, 50
12, 14360, Control_c, 11, 11, 103
12, 14390, Note_on_c, 11, 62, 0
12, 14400, Note_on_c, 11, 62, 50
12, 14400, Control_c, 11, 11, 104
12, 14440, Control_c, 11, 11, 105
12, 14480, Control_c, 11, 11, 106
12, 14520, Control_c, 11, 11, 107
12, 14560, Control_c, 11, 11, 108
12, 14600, Control_c, 11, 11, 109
12, 14640, Note_on_c, 11, 62, 0
12, 14640, Control_c, 11, 11, 110
12, 14670, Control_c, 11, 11, 109
12, 14690, Control_c, 11, 11, 108
12, 14720, Control_c, 11, 11, 107
12, 14740, Control_c, 11, 11, 106
12, 14760, Note_on_c, 11, 58, 50
12, 14760, Control_c, 11, 11, 105
12, 14790, Note_on_c, 11, 58, 0
12, 14790, Control_c, 11, 11, 104
12, 14800, Note_on_c, 11, 58, 50
12, 14810, Control_c, 11, 11, 103
12, 14830, Note_on_c, 11, 58, 0
12, 14840, Note_on_c, 11, 58, 50
12, 14840, Control_c, 11, 11, 102
12, 14860, Control_c, 11, 11, 101
12, 14870, Note_on_c, 11, 58, 0
12, 14880, Note_on_c, 11, 58, 50
12, 14880, Control_c, 11, 11, 100
12, 14910, Control_c, 11, 11, 99
12, 14930, Control_c, 11, 11, 98
12, 14960, Control_c, 11, 11, 97
12, 14980, Control_c, 11, 11, 96
12, 15000, Control_c, 11, 11, 95
12, 15030, Control_c, 11, 11, 94
12, 15050, Control_c, 11, 11, 93
12, 15080, Control_c, 11, 11, 92
12, 15100, Control_c, 11, 11, 91
12, 15120, Note_on_c, 11, 58, 0
12, 15120, Control_c, 11, 11, 90
12, 15150, Control_c, 11, 11, 89
12, 15170, Control_c, 11, 11, 88
12, 15200, Control_c, 11, 11, 87
12, 15220, Control_c, 11, 11, 86
12, 15240, Note_on_c, 11, 58, 50
12, 15240, Control_c, 11, 11, 85
12, 15270, Note_on_c, 11, 58, 0
12, 15270, Control_c, 11, 11, 84
12, 15280, Note_on_c, 11, 58, 50
12, 15290, Control_c, 11, 11, 83
12, 15310, Note_on_c, 11, 58, 0
12, 15320, Note_on_c, 11, 58, 50
12, 15320, Control_c, 11, 11, 82
12, 15340, Control_c, 11, 11, 80
12, 15350, Note_on_c, 11, 58, 0
12, 15360, Note_on_c, 11, 58, 50
12, 15600, Note_on_c, 11, 58, 0
12, 16320, Note_on_c, 11, 51, 50
12, 16800, Note_on_c, 11, 53, 50
12, 16820, Note_on_c, 11, 51, 0
12, 17040, Note_on_c, 11, 55, 50
12, 17056, Note_on_c, 11, 53, 0
12, 17265, Note_on_c, 11, 55, 0
12, 17280, Note_on_c, 11, 53, 50
12, 17599, Note_on_c, 11, 53, 0
12, 17760, Control_c, 11, 11, 80
12, 17800, Control_c, 11, 11, 81
12, 17830, Control_c, 11, 11, 82
12, 17860, Control_c, 11, 11, 83
12, 17890, Control_c, 11, 11, 84
12, 17920, Control_c, 11, 11, 85
12, 17950, Control_c, 11, 11, 86
12, 17980, Control_c, 11, 11, 87
12, 18010, Control_c, 11, 11, 88
12, 18040, Control_c, 11, 11, 89
12, 18070, Control_c, 11, 11, 90
12, 18100, Control_c, 11, 11, 91
12, 18140, Control_c, 11, 11, 92
12, 18170, Control_c, 11, 11, 93
12, 18200, Control_c, 11, 11, 94
12, 18230, Control_c, 11, 11, 95
12, 18240, Note_on_c, 11, 51, 50
12, 18260, Control_c, 11, 11, 96
12, 18290, Control_c, 11, 11, 97
12, 18320, Control_c, 11, 11, 98
12, 18350, Control_c, 11, 11, 99
12, 18380, Control_c, 11, 11, 100
12, 18410, Control_c, 11, 11, 101
12, 18440, Control_c, 11, 11, 102
12, 18470, Control_c, 11, 11, 103
12, 18510, Control_c, 11, 11, 104
12, 18540, Control_c, 11, 11, 105
12, 18570, Control_c, 11, 11, 106
12, 18600, Control_c, 11, 11, 107
12, 18630, Control_c, 11, 11, 108
12, 18660, Control_c, 11, 11, 109
12, 18690, Control_c, 11, 11, 110
12, 18720, Note_on_c, 11, 55, 50
12, 18720, Control_c, 11, 11, 111
12, 18740, Note_on_c, 11, 51, 0
12, 18750, Control_c, 11, 11, 112
12, 18780, Control_c, 11, 11, 113
12, 18810, Control_c, 11, 11, 114
12, 18840, Control_c, 11, 11, 115
12, 18880, Control_c, 11, 11, 116
12, 18910, Control_c, 11, 11, 117
12, 18940, Control_c, 11, 11, 118
12, 18960, Note_on_c, 11, 48, 50
12, 18970, Control_c, 11, 11, 119
12, 18976, Note_on_c, 11, 55, 0
12, 19000, Control_c, 11, 11, 120
12, 19030, Control_c, 11, 11, 121
12, 19060, Control_c, 11, 11, 122
12, 19090, Control_c, 11, 11, 123
12, 19120, Control_c, 11, 11, 124
12, 19150, Control_c, 11, 11, 125
12, 19180, Control_c, 11, 11, 126
12, 19185, Note_on_c, 11, 48, 0
12, 19200, Note_on_c, 11, 49, 50
12, 19460, Note_on_c, 11, 49, 0
12, 19620, Note_on_c, 11, 48, 60
12, 19620, Note_on_c, 11, 60, 60
12, 19650, Note_on_c, 11, 48, 0
12, 19650, Note_on_c, 11, 60, 0
12, 19680, Note_on_c, 11, 48, 60
12, 19680, Note_on_c, 11, 60, 60
12, 20210, Note_on_c, 11, 48, 0
12, 20210, Note_on_c, 11, 60, 0
12, 20610, Control_c, 11, 11, 80
12, 20640, Note_on_c, 11, 48, 50
12, 20640, Note_on_c, 11, 60, 50
12, 20835, Note_on_c, 11, 48, 0
12, 20835, Note_on_c, 11, 60, 0
12, 20880, Note_on_c, 11, 48, 50
12, 20880, Note_on_c, 11, 60, 50
12, 21075, Note_on_c, 11, 48, 0
12, 21075, Note_on_c, 11, 60, 0
12, 21120, Note_on_c, 11, 48, 50
12, 21120, Note_on_c, 11, 60, 50
12, 21345, Note_on_c, 11, 48, 0
12, 21345, Note_on_c, 11, 60, 0
12, 21360, Note_on_c, 11, 48, 50
12, 21600, Note_on_c, 11, 51, 50
12, 21600, Control_c, 11, 11, 80
12, 21610, Control_c, 11, 11, 83
12, 21615, Note_on_c, 11, 48, 0
12, 21620, Control_c, 11, 11, 87
12, 21630, Control_c, 11, 11, 91
12, 21640, Control_c, 11, 11, 95
12, 21650, Control_c, 11, 11, 99
12, 21660, Control_c, 11, 11, 103
12, 21670, Control_c, 11, 11, 107
12, 21680, Control_c, 11, 11, 111
12, 21690, Control_c, 11, 11, 115
12, 21700, Control_c, 11, 11, 119
12, 21710, Control_c, 11, 11, 123
12, 21720, Control_c, 11, 11, 127
12, 21730, Control_c, 11, 11, 126
12, 21740, Control_c, 11, 11, 125
12, 21750, Control_c, 11, 11, 124
12, 21760, Control_c, 11, 11, 122
12, 21770, Control_c, 11, 11, 121
12, 21780, Control_c, 11, 11, 120
12, 21790, Control_c, 11, 11, 118
12, 21800, Control_c, 11, 11, 117
12, 21810, Control_c, 11, 11, 116
12, 21820, Control_c, 11, 11, 114
12, 21830, Control_c, 11, 11, 113
12, 21840, Note_on_c, 11, 48, 50
12, 21840, Control_c, 11, 11, 112
12, 21850, Control_c, 11, 11, 111
12, 21855, Note_on_c, 11, 51, 0
12, 21860, Control_c, 11, 11, 109
12, 21870, Control_c, 11, 11, 108
12, 21880, Control_c, 11, 11, 107
12, 21890, Control_c, 11, 11, 105
12, 21900, Control_c, 11, 11, 104
12, 21910, Control_c, 11, 11, 103
12, 21920, Control_c, 11, 11, 101
12, 21930, Control_c, 11, 11, 100
12, 21940, Control_c, 11, 11, 99
12, 21950, Control_c, 11, 11, 97
12, 21960, Control_c, 11, 11, 96
12, 21970, Control_c, 11, 11, 95
12, 21980, Control_c, 11, 11, 94
12, 21990, Control_c, 11, 11, 92
12, 22000, Control_c, 11, 11, 91
12, 22010, Control_c, 11, 11, 90
12, 22020, Control_c, 11, 11, 88
12, 22030, Control_c, 11, 11, 87
12, 22040, Control_c, 11, 11, 86
12, 22050, Control_c, 11, 11, 84
12, 22060, Control_c, 11, 11, 82
12, 22065, Note_on_c, 11, 48, 0
12, 22070, Control_c, 11, 11, 80
12, 22080, Note_on_c, 11, 50, 50
12, 22560, Note_on_c, 11, 50, 0
12, 23040, Note_on_c, 11, 60, 50
12, 23520, Note_on_c, 11, 59, 50
12, 23536, Note_on_c, 11, 60, 0
12, 23760, Note_on_c, 11, 60, 50
12, 23791, Note_on_c, 11, 59, 0
12, 23985, Note_on_c, 11, 60, 0
12, 24000, Note_on_c, 11, 62, 50
12, 24000, Control_c, 11, 11, 80
12, 24030, Control_c, 11, 11, 81
12, 24050, Control_c, 11, 11, 82
12, 24070, Control_c, 11, 11, 83
12, 24090, Control_c, 11, 11, 84
12, 24110, Control_c, 11, 11, 85
12, 24130, Control_c, 11, 11, 86
12, 24150, Control_c, 11, 11, 87
12, 24170, Control_c, 11, 11, 88
12, 24190, Control_c, 11, 11, 89
12, 24210, Control_c, 11, 11, 90
12, 24225, Note_on_c, 11, 62, 0
12, 24230, Control_c, 11, 11, 91
12, 24240, Note_on_c, 11, 55, 50
12, 24250, Control_c, 11, 11, 92
12, 24270, Control_c, 11, 11, 93
12, 24290, Control_c, 11, 11, 94
12, 24310, Control_c, 11, 11, 95
12, 24330, Control_c, 11, 11, 96
12, 24350, Control_c, 11, 11, 97
12, 24370, Control_c, 11, 11, 98
12, 24390, Control_c, 11, 11, 99
12, 24410, Control_c, 11, 11, 100
12, 24430, Control_c, 11, 11, 101
12, 24450, Control_c, 11, 11, 102
12, 24470, Control_c, 11, 11, 103
12, 24480, Note_on_c, 11, 67, 50
12, 24495, Note_on_c, 11, 55, 0
12, 24500, Control_c, 11, 11, 104
12, 24520, Control_c, 11, 11, 105
12, 24540, Control_c, 11, 11, 106
12, 24560, Control_c, 11, 11, 107
12, 24580, Control_c, 11, 11, 108
12, 24600, Control_c, 11, 11, 109
12, 24620, Control_c, 11, 11, 110
12, 24640, Control_c, 11, 11, 111
12, 24660, Control_c, 11, 11, 112
12, 24680, Control_c, 11, 11, 113
12, 24700, Control_c, 11, 11, 114
12, 24720, Control_c, 11, 11, 115
12, 24740, Control_c, 11, 11, 116
12, 24760, Control_c, 11, 11, 117
12, 24780, Control_c, 11, 11, 118
12, 24800, Control_c, 11, 11, 119
12, 24820, Control_c, 11, 11, 120
12, 24840, Control_c, 11, 11, 121
12, 24860, Control_c, 11, 11, 122
12, 24880, Control_c, 11, 11, 123
12, 24900, Control_c, 11, 11, 124
12, 24920, Control_c, 11, 11, 125
12, 24940, Control_c, 11, 11, 126
12, 24960, Control_c, 11, 11, 127
12, 24990, Control_c, 11, 11, 126
12, 25010, Control_c, 11, 11, 125
12, 25030, Control_c, 11, 11, 124
12, 25050, Control_c, 11, 11, 123
12, 25070, Control_c, 11, 11, 122
12, 25090, Control_c, 11, 11, 121
12, 25110, Control_c, 11, 11, 120
12, 25130, Control_c, 11, 11, 119
12, 25150, Control_c, 11, 11, 118
12, 25170, Control_c, 11, 11, 117
12, 25185, Note_on_c, 11, 67, 0
12, 25190, Control_c, 11, 11, 116
12, 25200, Note_on_c, 11, 67, 50
12, 25210, Control_c, 11, 11, 115
12, 25230, Control_c, 11, 11, 114
12, 25250, Control_c, 11, 11, 113
12, 25270, Control_c, 11, 11, 112
12, 25290, Control_c, 11, 11, 111
12, 25310, Control_c, 11, 11, 110
12, 25330, Control_c, 11, 11, 109
12, 25350, Control_c, 11, 11, 108
12, 25370, Control_c, 11, 11, 107
12, 25390, Control_c, 11, 11, 106
12, 25410, Control_c, 11, 11, 105
12, 25430, Control_c, 11, 11, 104
12, 25460, Control_c, 11, 11, 103
12, 25480, Control_c, 11, 11, 102
12, 25500, Control_c, 11, 11, 101
12, 25520, Control_c, 11, 11, 100
12, 25540, Control_c, 11, 11, 99
12, 25560, Control_c, 11, 11, 98
12, 25580, Control_c, 11, 11, 97
12, 25600, Control_c, 11, 11, 96
12, 25620, Control_c, 11, 11, 95
12, 25640, Control_c, 11, 11, 94
12, 25660, Control_c, 11, 11, 93
12, 25680, Note_on_c, 11, 66, 50
12, 25680, Control_c, 11, 11, 92
12, 25695, Note_on_c, 11, 67, 0
12, 25700, Control_c, 11, 11, 91
12, 25720, Control_c, 11, 11, 90
12, 25740, Control_c, 11, 11, 89
12, 25760, Control_c, 11, 11, 88
12, 25780, Control_c, 11, 11, 87
12, 25800, Control_c, 11, 11, 86
12, 25820, Control_c, 11, 11, 85
12, 25840, Control_c, 11, 11, 84
12, 25860, Control_c, 11, 11, 83
12, 25880, Control_c, 11, 11, 82
12, 25900, Control_c, 11, 11, 80
12, 25920, Note_on_c, 11, 67, 50
12, 25935, Note_on_c, 11, 66, 0
12, 26145, Note_on_c, 11, 67, 0
12, 29280, Note_on_c, 11, 52, 50
12, 29280, Control_c, 11, 11, 80
12, 29290, Control_c, 11, 11, 83
12, 29300, Control_c, 11, 11, 86
12, 29310, Control_c, 11, 11, 90
12, 29320, Control_c, 11, 11, 93
12, 29330, Control_c, 11, 11, 96
12, 29340, Control_c, 11, 11, 100
12, 29370, Control_c, 11, 11, 99
12, 29390, Control_c, 11, 11, 98
12, 29410, Control_c, 11, 11, 97
12, 29430, Control_c, 11, 11, 96
12, 29450, Control_c, 11, 11, 95
12, 29470, Control_c, 11, 11, 94
12, 29490, Control_c, 11, 11, 93
12, 29510, Control_c, 11, 11, 92
12, 29530, Control_c, 11, 11, 91
12, 29550, Control_c, 11, 11, 90
12, 29580, Control_c, 11, 11, 89
12, 29600, Control_c, 11, 11, 88
12, 29620, Control_c, 11, 11, 87
12, 29640, Control_c, 11, 11, 86
12, 29660, Control_c, 11, 11, 85
12, 29680, Control_c, 11, 11, 84
12, 29700, Control_c, 11, 11, 83
12, 29720, Control_c, 11, 11, 82
12, 29740, Control_c, 11, 11, 80
12, 29760, Note_on_c, 11, 53, 50
12, 29790, Note_on_c, 11, 52, 0
12, 30210, Note_on_c, 11, 53, 0
12, 30720, Note_on_c, 11, 61, 50
12, 31440, Note_on_c, 11, 61, 0
12, 31680, Note_on_c, 11, 62, 50
12, 31680, Control_c, 11, 11, 80
12, 31730, Control_c, 11, 11, 82
12, 31780, Control_c, 11, 11, 85
12, 31830, Control_c, 11, 11, 87
12, 31880, Control_c, 11, 11, 90
12, 31920, Note_on_c, 11, 62, 0
12, 31920, Control_c, 11, 11, 92
12, 31970, Control_c, 11, 11, 94
12, 32020, Control_c, 11, 11, 97
12, 32040, Note_on_c, 11, 62, 50
12, 32070, Note_on_c, 11, 62, 0
12, 32070, Control_c, 11, 11, 99
12, 32080, Note_on_c, 11, 62, 50
12, 32110, Note_on_c, 11, 62, 0
12, 32120, Note_on_c, 11, 62, 50
12, 32120, Control_c, 11, 11, 102
12, 32150, Note_on_c, 11, 62, 0
12, 32160, Note_on_c, 11, 68, 50
12, 32160, Control_c, 11, 11, 104
12, 32210, Control_c, 11, 11, 106
12, 32260, Control_c, 11, 11, 109
12, 32310, Control_c, 11, 11, 111
12, 32360, Control_c, 11, 11, 114
12, 32400, Note_on_c, 11, 68, 0
12, 32400, Control_c, 11, 11, 116
12, 32450, Control_c, 11, 11, 118
12, 32500, Control_c, 11, 11, 121
12, 32520, Note_on_c, 11, 68, 50
12, 32550, Note_on_c, 11, 68, 0
12, 32550, Control_c, 11, 11, 123
12, 32560, Note_on_c, 11, 68, 50
12, 32590, Note_on_c, 11, 68, 0
12, 32600, Note_on_c, 11, 68, 50
12, 32600, Control_c, 11, 11, 126
12, 32630, Note_on_c, 11, 68, 0
12, 32640, Note_on_c, 11, 67, 55
12, 32640, Control_c, 11, 11, 127
12, 32730, Note_on_c, 11, 67, 0
12, 33180, Control_c, 11, 11, 80
12, 33360, Note_on_c, 11, 51, 50
12, 33810, Note_on_c, 11, 51, 0
12, 33840, Note_on_c, 11, 51, 50
12, 33840, Control_c, 11, 11, 80
12, 33850, Control_c, 11, 11, 82
12, 33860, Control_c, 11, 11, 84
12, 33870, Control_c, 11, 11, 86
12, 33880, Control_c, 11, 11, 88
12, 33890, Control_c, 11, 11, 91
12, 33900, Control_c, 11, 11, 93
12, 33910, Control_c, 11, 11, 95
12, 33920, Control_c, 11, 11, 97
12, 33940, Control_c, 11, 11, 100
12, 33980, Control_c, 11, 11, 99
12, 34010, Control_c, 11, 11, 98
12, 34040, Control_c, 11, 11, 97
12, 34070, Control_c, 11, 11, 96
12, 34100, Control_c, 11, 11, 95
12, 34130, Control_c, 11, 11, 94
12, 34160, Control_c, 11, 11, 93
12, 34190, Control_c, 11, 11, 92
12, 34220, Control_c, 11, 11, 91
12, 34250, Control_c, 11, 11, 90
12, 34290, Control_c, 11, 11, 89
12, 34320, Note_on_c, 11, 50, 50
12, 34320, Control_c, 11, 11, 88
12, 34337, Note_on_c, 11, 51, 0
12, 34350, Control_c, 11, 11, 87
12, 34380, Control_c, 11, 11, 86
12, 34410, Control_c, 11, 11, 85
12, 34440, Control_c, 11, 11, 84
12, 34470, Control_c, 11, 11, 83
12, 34500, Note_on_c, 11, 53, 50
12, 34500, Control_c, 11, 11, 82
12, 34509, Note_on_c, 11, 50, 0
12, 34530, Control_c, 11, 11, 80
12, 34560, Note_on_c, 11, 51, 50
12, 34560, Note_on_c, 11, 53, 0
12, 34641, Note_on_c, 11, 51, 0
12, 34800, Note_on_c, 11, 56, 50
12, 34881, Note_on_c, 11, 56, 0
12, 34980, Note_on_c, 11, 56, 50
12, 35010, Note_on_c, 11, 56, 0
12, 35040, Note_on_c, 11, 50, 50
12, 35121, Note_on_c, 11, 50, 0
12, 35280, Note_on_c, 11, 58, 50
12, 35361, Note_on_c, 11, 58, 0
12, 35460, Note_on_c, 11, 58, 50
12, 35490, Note_on_c, 11, 58, 0
12, 35520, Note_on_c, 11, 51, 50
12, 35760, Note_on_c, 11, 51, 0
12, 36360, Note_on_c, 11, 55, 50
12, 36390, Note_on_c, 11, 55, 0
12, 36400, Note_on_c, 11, 55, 50
12, 36430, Note_on_c, 11, 55, 0
12, 36440, Note_on_c, 11, 55, 50
12, 36470, Note_on_c, 11, 55, 0
12, 36480, Note_on_c, 11, 58, 50
12, 36720, Note_on_c, 11, 58, 0
12, 37320, Note_on_c, 11, 58, 50
12, 37350, Note_on_c, 11, 58, 0
12, 37360, Note_on_c, 11, 58, 50
12, 37390, Note_on_c, 11, 58, 0
12, 37400, Note_on_c, 11, 58, 50
12, 37430, Note_on_c, 11, 58, 0
12, 37440, Note_on_c, 11, 60, 50
12, 37440, Control_c, 11, 11, 80
12, 37510, Control_c, 11, 11, 81
12, 37570, Control_c, 11, 11, 82
12, 37630, Control_c, 11, 11, 83
12, 37680, Note_on_c, 11, 60, 0
12, 37690, Control_c, 11, 11, 84
12, 37750, Control_c, 11, 11, 85
12, 37800, Note_on_c, 11, 60, 50
12, 37800, Note_on_c, 11, 68, 50
12, 37810, Control_c, 11, 11, 86
12, 37830, Note_on_c, 11, 60, 0
12, 37830, Note_on_c, 11, 68, 0
12, 37840, Note_on_c, 11, 60, 50
12, 37840, Note_on_c, 11, 68, 50
12, 37870, Note_on_c, 11, 60, 0
12, 37870, Note_on_c, 11, 68, 0
12, 37880, Note_on_c, 11, 60, 50
12, 37880, Note_on_c, 11, 68, 50
12, 37880, Control_c, 11, 11, 87
12, 37910, Note_on_c, 11, 60, 0
12, 37910, Note_on_c, 11, 68, 0
12, 37920, Note_on_c, 11, 58, 50
12, 37920, Note_on_c, 11, 67, 50
12, 37940, Control_c, 11, 11, 88
12, 38000, Control_c, 11, 11, 89
12, 38060, Control_c, 11, 11, 90
12, 38120, Control_c, 11, 11, 91
12, 38160, Note_on_c, 11, 58, 0
12, 38160, Note_on_c, 11, 67, 0
12, 38180, Control_c, 11, 11, 92
12, 38240, Control_c, 11, 11, 93
12, 38280, Note_on_c, 11, 56, 50
12, 38280, Note_on_c, 11, 65, 50
12, 38310, Note_on_c, 11, 56, 0
12, 38310, Note_on_c, 11, 65, 0
12, 38310, Control_c, 11, 11, 94
12, 38320, Note_on_c, 11, 56, 50
12, 38320, Note_on_c, 11, 65, 50
12, 38350, Note_on_c, 11, 56, 0
12, 38350, Note_on_c, 11, 65, 0
12, 38360, Note_on_c, 11, 56, 50
12, 38360, Note_on_c, 11, 65, 50
12, 38370, Control_c, 11, 11, 95
12, 38390, Note_on_c, 11, 56, 0
12, 38390, Note_on_c, 11, 65, 0
12, 38400, Note_on_c, 11, 55, 50
12, 38400, Note_on_c, 11, 58, 50
12, 38400, Note_on_c, 11, 64, 50
12, 38430, Control_c, 11, 11, 96
12, 38490, Control_c, 11, 11, 97
12, 38550, Control_c, 11, 11, 98
12, 38610, Control_c, 11, 11, 100
12, 38640, Note_on_c, 11, 55, 0
12, 38640, Note_on_c, 11, 58, 0
12, 38640, Note_on_c, 11, 64, 0
12, 38760, Note_on_c, 11, 67, 50
12, 38760, Note_on_c, 11, 70, 50
12, 38790, Note_on_c, 11, 67, 0
12, 38790, Note_on_c, 11, 70, 0
12, 38800, Note_on_c, 11, 67, 50
12, 38800, Note_on_c, 11, 70, 50
12, 38830, Note_on_c, 11, 67, 0
12, 38830, Note_on_c, 11, 70, 0
12, 38840, Note_on_c, 11, 67, 50
12, 38840, Note_on_c, 11, 70, 50
12, 38870, Note_on_c, 11, 67, 0
12, 38870, Note_on_c, 11, 70, 0
12, 38880, Note_on_c, 11, 67, 50
12, 38880, Note_on_c, 11, 70, 50
12, 39120, Note_on_c, 11, 67, 0
12, 39120, Note_on_c, 11, 70, 0
12, 39240, Note_on_c, 11, 67, 50
12, 39240, Note_on_c, 11, 70, 50
12, 39270, Note_on_c, 11, 67, 0
12, 39270, Note_on_c, 11, 70, 0
12, 39280, Note_on_c, 11, 67, 50
12, 39310, Note_on_c, 11, 67, 0
12, 39320, Note_on_c, 11, 67, 50
12, 39350, Note_on_c, 11, 67, 0
12, 39358, Control_c, 11, 11, 80
12, 39360, Note_on_c, 11, 67, 50
12, 39600, Note_on_c, 11, 67, 0
12, 39720, Note_on_c, 11, 60, 50
12, 39750, Note_on_c, 11, 60, 0
12, 39760, Note_on_c, 11, 60, 50
12, 39790, Note_on_c, 11, 60, 0
12, 39800, Note_on_c, 11, 60, 50
12, 39830, Note_on_c, 11, 60, 0
12, 39840, Note_on_c, 11, 60, 50
12, 40080, Note_on_c, 11, 60, 0
12, 40200, Note_on_c, 11, 60, 50
12, 40230, Note_on_c, 11, 60, 0
12, 40240, Note_on_c, 11, 60, 50
12, 40270, Note_on_c, 11, 60, 0
12, 40280, Note_on_c, 11, 60, 50
12, 40310, Note_on_c, 11, 60, 0
12, 40320, Note_on_c, 11, 60, 50
12, 40560, Note_on_c, 11, 60, 0
12, 40680, Note_on_c, 11, 48, 50
12, 40710, Note_on_c, 11, 48, 0
12, 40720, Note_on_c, 11, 48, 50
12, 40750, Note_on_c, 11, 48, 0
12, 40760, Note_on_c, 11, 48, 50
12, 40790, Note_on_c, 11, 48, 0
12, 40800, Note_on_c, 11, 51, 60
12, 41040, Note_on_c, 11, 51, 0
12, 41160, Note_on_c, 11, 48, 50
12, 41190, Note_on_c, 11, 48, 0
12, 41200, Note_on_c, 11, 48, 50
12, 41230, Note_on_c, 11, 48, 0
12, 41240, Note_on_c, 11, 48, 50
12, 41270, Note_on_c, 11, 48, 0
12, 41280, Note_on_c, 11, 50, 50
12, 41520, Note_on_c, 11, 50, 0
12, 42120, Note_on_c, 11, 55, 50
12, 42150, Note_on_c, 11, 55, 0
12, 42160, Note_on_c, 11, 55, 50
12, 42190, Note_on_c, 11, 55, 0
12, 42200, Note_on_c, 11, 55, 50
12, 42230, Note_on_c, 11, 55, 0
12, 42240, Note_on_c, 11, 55, 50
12, 42480, Note_on_c, 11, 55, 0
12, 43080, Note_on_c, 11, 55, 50
12, 43110, Note_on_c, 11, 55, 0
12, 43120, Note_on_c, 11, 55, 50
12, 43150, Note_on_c, 11, 55, 0
12, 43160, Note_on_c, 11, 55, 50
12, 43190, Note_on_c, 11, 55, 0
12, 43200, Note_on_c, 11, 55, 50
12, 43200, Control_c, 11, 11, 80
12, 43250, Control_c, 11, 11, 82
12, 43300, Control_c, 11, 11, 84
12, 43350, Control_c, 11, 11, 87
12, 43400, Control_c, 11, 11, 89
12, 43440, Note_on_c, 11, 55, 0
12, 43440, Control_c, 11, 11, 91
12, 43490, Control_c, 11, 11, 94
12, 43540, Control_c, 11, 11, 96
12, 43590, Control_c, 11, 11, 99
12, 43640, Control_c, 11, 11, 101
12, 43680, Control_c, 11, 11, 103
12, 43730, Control_c, 11, 11, 105
12, 43780, Control_c, 11, 11, 108
12, 43830, Control_c, 11, 11, 110
12, 43880, Control_c, 11, 11, 113
12, 43920, Control_c, 11, 11, 115
12, 43970, Control_c, 11, 11, 117
12, 44020, Control_c, 11, 11, 120
12, 44040, Note_on_c, 11, 55, 50
12, 44070, Note_on_c, 11, 55, 0
12, 44070, Control_c, 11, 11, 122
12, 44080, Note_on_c, 11, 55, 50
12, 44110, Note_on_c, 11, 55, 0
12, 44120, Note_on_c, 11, 55, 50
12, 44120, Control_c, 11, 11, 125
12, 44150, Note_on_c, 11, 55, 0
12, 44160, Note_on_c, 11, 55, 50
12, 44160, Control_c, 11, 11, 127
12, 44210, Control_c, 11, 11, 125
12, 44260, Control_c, 11, 11, 123
12, 44310, Control_c, 11, 11, 120
12, 44360, Control_c, 11, 11, 118
12, 44370, Note_on_c, 11, 55, 0
12, 44400, Control_c, 11, 11, 116
12, 44450, Control_c, 11, 11, 113
12, 44500, Control_c, 11, 11, 111
12, 44520, Note_on_c, 11, 55, 50
12, 44550, Note_on_c, 11, 55, 0
12, 44550, Control_c, 11, 11, 108
12, 44560, Note_on_c, 11, 55, 50
12, 44590, Note_on_c, 11, 55, 0
12, 44600, Note_on_c, 11, 55, 50
12, 44600, Control_c, 11, 11, 106
12, 44630, Note_on_c, 11, 55, 0
12, 44640, Note_on_c, 11, 55, 50
12, 44640, Control_c, 11, 11, 104
12, 44690, Control_c, 11, 11, 102
12, 44740, Control_c, 11, 11, 99
12, 44790, Control_c, 11, 11, 97
12, 44840, Control_c, 11, 11, 94
12, 44850, Note_on_c, 11, 55, 0
12, 44880, Control_c, 11, 11, 92
12, 44930, Control_c, 11, 11, 90
12, 44980, Control_c, 11, 11, 87
12, 45000, Note_on_c, 11, 55, 50
12, 45030, Note_on_c, 11, 55, 0
12, 45030, Control_c, 11, 11, 84
12, 45040, Note_on_c, 11, 55, 50
12, 45070, Note_on_c, 11, 55, 0
12, 45080, Note_on_c, 11, 55, 50
12, 45080, Control_c, 11, 11, 80
12, 45110, Note_on_c, 11, 55, 0
12, 45120, Note_on_c, 11, 55, 50
12, 45330, Note_on_c, 11, 55, 0
12, 48840, Note_on_c, 11, 60, 50
12, 48870, Note_on_c, 11, 60, 0
12, 48880, Note_on_c, 11, 60, 50
12, 48910, Note_on_c, 11, 60, 0
12, 48920, Note_on_c, 11, 60, 50
12, 48950, Note_on_c, 11, 60, 0
12, 48960, Note_on_c, 11, 65, 50
12, 49170, Note_on_c, 11, 65, 0
12, 49800, Note_on_c, 11, 65, 50
12, 49830, Note_on_c, 11, 65, 0
12, 49840, Note_on_c, 11, 65, 50
12, 49870, Note_on_c, 11, 65, 0
12, 49880, Note_on_c, 11, 65, 50
12, 49910, Note_on_c, 11, 65, 0
12, 49920, Note_on_c, 11, 61, 50
12, 50130, Note_on_c, 11, 61, 0
12, 50760, Note_on_c, 11, 61, 50
12, 50790, Note_on_c, 11, 61, 0
12, 50800, Note_on_c, 11, 61, 50
12, 50830, Note_on_c, 11, 61, 0
12, 50840, Note_on_c, 11, 61, 50
12, 50870, Note_on_c, 11, 61, 0
12, 50880, Note_on_c, 11, 62, 50
12, 50880, Control_c, 11, 11, 80
12, 50910, Control_c, 11, 11, 81
12, 50930, Control_c, 11, 11, 82
12, 50950, Control_c, 11, 11, 83
12, 50970, Control_c, 11, 11, 84
12, 50990, Control_c, 11, 11, 85
12, 51010, Control_c, 11, 11, 86
12, 51030, Control_c, 11, 11, 87
12, 51050, Control_c, 11, 11, 88
12, 51070, Control_c, 11, 11, 89
12, 51090, Note_on_c, 11, 62, 0
12, 51090, Control_c, 11, 11, 90
12, 51110, Control_c, 11, 11, 91
12, 51130, Control_c, 11, 11, 92
12, 51150, Control_c, 11, 11, 93
12, 51170, Control_c, 11, 11, 94
12, 51190, Control_c, 11, 11, 95
12, 51210, Control_c, 11, 11, 96
12, 51230, Control_c, 11, 11, 97
12, 51240, Note_on_c, 11, 62, 50
12, 51250, Control_c, 11, 11, 98
12, 51270, Note_on_c, 11, 62, 0
12, 51270, Control_c, 11, 11, 99
12, 51280, Note_on_c, 11, 62, 50
12, 51290, Control_c, 11, 11, 100
12, 51310, Note_on_c, 11, 62, 0
12, 51310, Control_c, 11, 11, 101
12, 51320, Note_on_c, 11, 62, 50
12, 51330, Control_c, 11, 11, 102
12, 51350, Note_on_c, 11, 62, 0
12, 51350, Control_c, 11, 11, 103
12, 51360, Note_on_c, 11, 56, 50
12, 51380, Control_c, 11, 11, 104
12, 51400, Control_c, 11, 11, 105
12, 51420, Control_c, 11, 11, 106
12, 51440, Control_c, 11, 11, 107
12, 51460, Control_c, 11, 11, 108
12, 51480, Control_c, 11, 11, 109
12, 51500, Control_c, 11, 11, 110
12, 51520, Control_c, 11, 11, 111
12, 51540, Control_c, 11, 11, 112
12, 51560, Control_c, 11, 11, 113
12, 51570, Note_on_c, 11, 56, 0
12, 51580, Control_c, 11, 11, 114
12, 51600, Control_c, 11, 11, 115
12, 51620, Control_c, 11, 11, 116
12, 51640, Control_c, 11, 11, 117
12, 51660, Control_c, 11, 11, 118
12, 51680, Control_c, 11, 11, 119
12, 51700, Control_c, 11, 11, 120
12, 51720, Note_on_c, 11, 56, 50
12, 51720, Control_c, 11, 11, 121
12, 51740, Control_c, 11, 11, 122
12, 51750, Note_on_c, 11, 56, 0
12, 51760, Note_on_c, 11, 56, 50
12, 51760, Control_c, 11, 11, 123
12, 51780, Control_c, 11, 11, 124
12, 51790, Note_on_c, 11, 56, 0
12, 51800, Note_on_c, 11, 56, 50
12, 51800, Control_c, 11, 11, 125
12, 51820, Control_c, 11, 11, 127
12, 51830, Note_on_c, 11, 56, 0
12, 51840, Note_on_c, 11, 55, 50
12, 51930, Note_on_c, 11, 55, 0
12, 52080, Note_on_c, 11, 53, 50
12, 52170, Note_on_c, 11, 53, 0
12, 52560, Control_c, 11, 11, 80
12, 52680, Note_on_c, 11, 56, 50
12, 52710, Note_on_c, 11, 56, 0
12, 52720, Note_on_c, 11, 56, 50
12, 52750, Note_on_c, 11, 56, 0
12, 52760, Note_on_c, 11, 56, 50
12, 52790, Note_on_c, 11, 56, 0
12, 52800, Note_on_c, 11, 56, 50
12, 52810, Control_c, 11, 11, 80
12, 52830, Control_c, 11, 11, 82
12, 52860, Control_c, 11, 11, 85
12, 52880, Control_c, 11, 11, 87
12, 52910, Control_c, 11, 11, 90
12, 52930, Control_c, 11, 11, 92
12, 52960, Control_c, 11, 11, 95
12, 52980, Control_c, 11, 11, 97
12, 53010, Note_on_c, 11, 56, 0
12, 53010, Control_c, 11, 11, 100
12, 53030, Control_c, 11, 11, 102
12, 53060, Control_c, 11, 11, 105
12, 53080, Control_c, 11, 11, 107
12, 53110, Control_c, 11, 11, 110
12, 53130, Control_c, 11, 11, 112
12, 53160, Note_on_c, 11, 55, 50
12, 53160, Control_c, 11, 11, 115
12, 53180, Control_c, 11, 11, 117
12, 53190, Note_on_c, 11, 55, 0
12, 53200, Note_on_c, 11, 55, 50
12, 53210, Control_c, 11, 11, 120
12, 53230, Note_on_c, 11, 55, 0
12, 53230, Control_c, 11, 11, 122
12, 53240, Note_on_c, 11, 55, 50
12, 53260, Control_c, 11, 11, 125
12, 53270, Note_on_c, 11, 55, 0
12, 53280, Note_on_c, 11, 55, 50
12, 53280, Control_c, 11, 11, 127
12, 53310, Control_c, 11, 11, 125
12, 53330, Control_c, 11, 11, 123
12, 53360, Control_c, 11, 11, 120
12, 53380, Control_c, 11, 11, 118
12, 53400, Control_c, 11, 11, 116
12, 53430, Control_c, 11, 11, 113
12, 53450, Control_c, 11, 11, 111
12, 53480, Control_c, 11, 11, 108
12, 53490, Note_on_c, 11, 55, 0
12, 53500, Control_c, 11, 11, 106
12, 53520, Control_c, 11, 11, 104
12, 53550, Control_c, 11, 11, 101
12, 53570, Control_c, 11, 11, 99
12, 53600, Control_c, 11, 11, 96
12, 53620, Control_c, 11, 11, 94
12, 53640, Note_on_c, 11, 55, 50
12, 53640, Control_c, 11, 11, 92
12, 53670, Note_on_c, 11, 55, 0
12, 53670, Control_c, 11, 11, 89
12, 53680, Note_on_c, 11, 55, 50
12, 53690, Control_c, 11, 11, 86
12, 53710, Note_on_c, 11, 55, 0
12, 53720, Note_on_c, 11, 55, 50
12, 53720, Control_c, 11, 11, 83
12, 53740, Control_c, 11, 11, 80
12, 53750, Note_on_c, 11, 55, 0
12, 53760, Note_on_c, 11, 55, 50
12, 54000, Note_on_c, 11, 60, 50
12, 54030, Note_on_c, 11, 55, 0
12, 54240, Note_on_c, 11, 59, 50
12, 54270, Note_on_c, 11, 60, 0
12, 54480, Note_on_c, 11, 62, 50
12, 54510, Note_on_c, 11, 59, 0
12, 54690, Note_on_c, 11, 62, 0
12, 54960, Note_on_c, 11, 59, 50
12, 55200, Note_on_c, 11, 55, 50
12, 55230, Note_on_c, 11, 59, 0
12, 55410, Note_on_c, 11, 55, 0
12, 55440, Note_on_c, 11, 55, 50
12, 55650, Note_on_c, 11, 55, 0
12, 55680, Note_on_c, 11, 55, 50
12, 55920, Note_on_c, 11, 59, 50
12, 55950, Note_on_c, 11, 55, 0
12, 56160, Note_on_c, 11, 60, 60
12, 56190, Note_on_c, 11, 59, 0
12, 56400, Note_on_c, 11, 55, 50
12, 56430, Note_on_c, 11, 60, 0
12, 56610, Note_on_c, 11, 55, 0
12, 56640, Note_on_c, 11, 55, 50
12, 57210, Note_on_c, 11, 55, 0
12, 59400, Note_on_c, 11, 60, 50
12, 59430, Note_on_c, 11, 60, 0
12, 59440, Note_on_c, 11, 60, 50
12, 59470, Note_on_c, 11, 60, 0
12, 59480, Note_on_c, 11, 60, 50
12, 59510, Note_on_c, 11, 60, 0
12, 59520, Note_on_c, 11, 60, 50
12, 59730, Note_on_c, 11, 60, 0
12, 59880, Note_on_c, 11, 60, 50
12, 59910, Note_on_c, 11, 60, 0
12, 59920, Note_on_c, 11, 60, 50
12, 59950, Note_on_c, 11, 60, 0
12, 59960, Note_on_c, 11, 60, 50
12, 59990, Note_on_c, 11, 60, 0
12, 60000, Note_on_c, 11, 62, 50
12, 60210, Note_on_c, 11, 62, 0
12, 60360, Note_on_c, 11, 62, 50
12, 60390, Note_on_c, 11, 62, 0
12, 60400, Note_on_c, 11, 62, 50
12, 60430, Note_on_c, 11, 62, 0
12, 60440, Note_on_c, 11, 62, 50
12, 60470, Note_on_c, 11, 62, 0
12, 60480, Note_on_c, 11, 60, 50
12, 60690, Note_on_c, 11, 60, 0
12, 61440, Note_on_c, 11, 60, 50
12, 61650, Note_on_c, 11, 60, 0
12, 61800, Note_on_c, 11, 60, 50
12, 61830, Note_on_c, 11, 60, 0
12, 61840, Note_on_c, 11, 60, 50
12, 61870, Note_on_c, 11, 60, 0
12, 61880, Note_on_c, 11, 60, 50
12, 61910, Note_on_c, 11, 60, 0
12, 61920, Note_on_c, 11, 59, 50
12, 62130, Note_on_c, 11, 59, 0
12, 62280, Note_on_c, 11, 55, 50
12, 62310, Note_on_c, 11, 55, 0
12, 62320, Note_on_c, 11, 55, 50
12, 62350, Note_on_c, 11, 55, 0
12, 62360, Note_on_c, 11, 55, 50
12, 62390, Note_on_c, 11, 55, 0
12, 62400, Note_on_c, 11, 60, 50
12, 62610, Note_on_c, 11, 60, 0
12, 62640, Note_on_c, 11, 68, 50
12, 62640, Control_c, 11, 11, 80
12, 62650, Control_c, 11, 11, 83
12, 62660, Control_c, 11, 11, 86
12, 62670, Control_c, 11, 11, 90
12, 62680, Control_c, 11, 11, 93
12, 62690, Control_c, 11, 11, 96
12, 62700, Control_c, 11, 11, 100
12, 62710, Control_c, 11, 11, 103
12, 62720, Control_c, 11, 11, 106
12, 62740, Control_c, 11, 11, 110
12, 62750, Control_c, 11, 11, 108
12, 62760, Control_c, 11, 11, 106
12, 62770, Control_c, 11, 11, 104
12, 62780, Control_c, 11, 11, 102
12, 62790, Control_c, 11, 11, 100
12, 62800, Control_c, 11, 11, 98
12, 62810, Control_c, 11, 11, 95
12, 62820, Control_c, 11, 11, 93
12, 62830, Control_c, 11, 11, 91
12, 62840, Control_c, 11, 11, 89
12, 62850, Control_c, 11, 11, 87
12, 62860, Control_c, 11, 11, 83
12, 62870, Control_c, 11, 11, 80
12, 62880, Note_on_c, 11, 67, 50
12, 62910, Note_on_c, 11, 68, 0
12, 63120, Note_on_c, 11, 63, 50
12, 63120, Control_c, 11, 11, 80
12, 63130, Control_c, 11, 11, 83
12, 63140, Control_c, 11, 11, 86
12, 63150, Note_on_c, 11, 67, 0
12, 63150, Control_c, 11, 11, 90
12, 63160, Control_c, 11, 11, 93
12, 63170, Control_c, 11, 11, 96
12, 63180, Control_c, 11, 11, 100
12, 63190, Control_c, 11, 11, 103
12, 63200, Control_c, 11, 11, 106
12, 63220, Control_c, 11, 11, 110
12, 63230, Control_c, 11, 11, 108
12, 63240, Control_c, 11, 11, 106
12, 63250, Control_c, 11, 11, 104
12, 63260, Control_c, 11, 11, 102
12, 63270, Control_c, 11, 11, 100
12, 63280, Control_c, 11, 11, 98
12, 63290, Control_c, 11, 11, 95
12, 63300, Control_c, 11, 11, 93
12, 63310, Control_c, 11, 11, 91
12, 63320, Control_c, 11, 11, 89
12, 63330, Control_c, 11, 11, 87
12, 63340, Control_c, 11, 11, 83
12, 63350, Control_c, 11, 11, 80
12, 63360, Note_on_c, 11, 60, 50
12, 63390, Note_on_c, 11, 63, 0
12, 63570, Note_on_c, 11, 60, 0
12, 63600, Note_on_c, 11, 56, 60
12, 63765, Note_on_c, 11, 56, 0
12, 63780, Note_on_c, 11, 53, 60
12, 63825, Note_on_c, 11, 53, 0
12, 63840, Note_on_c, 11, 50, 60
12, 63930, Note_on_c, 11, 50, 0
12, 64080, Note_on_c, 11, 55, 60
12, 64170, Note_on_c, 11, 55, 0
12, 64320, Note_on_c, 11, 48, 50
12, 64410, Note_on_c, 11, 48, 0
12, 64800, Note_on_c, 11, 55, 50
12, 64890, Note_on_c, 11, 55, 0
12, 65280, Note_on_c, 11, 51, 50
12, 65370, Note_on_c, 11, 51, 0
12, 66720, Note_on_c, 11, 57, 55
12, 66810, Note_on_c, 11, 57, 0
12, 66960, Note_on_c, 11, 59, 55
12, 67050, Note_on_c, 11, 59, 0
12, 67200, Note_on_c, 11, 60, 55
12, 68370, Note_on_c, 11, 60, 0
12, 68400, Note_on_c, 11, 60, 55
12, 68490, Note_on_c, 11, 60, 0
12, 68640, Note_on_c, 11, 62, 55
12, 68730, Note_on_c, 11, 62, 0
12, 68880, Note_on_c, 11, 64, 55
12, 68970, Note_on_c, 11, 64, 0
12, 69120, Note_on_c, 11, 65, 55
12, 70290, Note_on_c, 11, 65, 0
12, 70320, Note_on_c, 11, 65, 55
12, 70410, Note_on_c, 11, 65, 0
12, 70560, Note_on_c, 11, 62, 55
12, 70650, Note_on_c, 11, 62, 0
12, 70800, Note_on_c, 11, 59, 55
12, 70890, Note_on_c, 11, 59, 0
12, 71040, Note_on_c, 11, 56, 54
12, 71130, Note_on_c, 11, 56, 0
12, 71280, Note_on_c, 11, 68, 55
12, 71370, Note_on_c, 11, 68, 0
12, 71520, Note_on_c, 11, 71, 61
12, 71610, Note_on_c, 11, 71, 0
12, 71760, Note_on_c, 11, 64, 67
12, 71850, Note_on_c, 11, 64, 0
12, 72000, Note_on_c, 11, 72, 74
12, 72210, Note_on_c, 11, 72, 0
12, 72240, Note_on_c, 11, 52, 80
12, 72320, Note_on_c, 11, 57, 82
12, 72330, Note_on_c, 11, 52, 0
12, 72380, Note_on_c, 11, 57, 0
12, 72400, Note_on_c, 11, 60, 85
12, 72445, Note_on_c, 11, 60, 0
12, 72480, Note_on_c, 11, 50, 87
12, 72560, Note_on_c, 11, 55, 89
12, 72570, Note_on_c, 11, 50, 0
12, 72620, Note_on_c, 11, 55, 0
12, 72640, Note_on_c, 11, 59, 91
12, 72685, Note_on_c, 11, 59, 0
12, 72720, Note_on_c, 11, 50, 93
12, 72800, Note_on_c, 11, 57, 95
12, 72810, Note_on_c, 11, 50, 0
12, 72860, Note_on_c, 11, 57, 0
12, 72880, Note_on_c, 11, 60, 97
12, 72925, Note_on_c, 11, 60, 0
12, 72960, Note_on_c, 11, 55, 100
12, 72990, Note_on_c, 11, 55, 0
12, 73000, Note_on_c, 11, 62, 100
12, 73030, Note_on_c, 11, 62, 0
12, 73040, Note_on_c, 11, 62, 100
12, 73070, Note_on_c, 11, 62, 0
12, 73080, Note_on_c, 11, 62, 100
12, 73110, Note_on_c, 11, 62, 0
12, 73120, Note_on_c, 11, 62, 100
12, 73150, Note_on_c, 11, 62, 0
12, 73160, Note_on_c, 11, 62, 100
12, 73190, Note_on_c, 11, 62, 0
12, 73200, Note_on_c, 11, 62, 100
12, 73230, Note_on_c, 11, 62, 0
12, 73240, Note_on_c, 11, 62, 100
12, 73270, Note_on_c, 11, 62, 0
12, 73280, Note_on_c, 11, 62, 100
12, 73310, Note_on_c, 11, 62, 0
12, 73320, Note_on_c, 11, 62, 100
12, 73350, Note_on_c, 11, 62, 0
12, 73360, Note_on_c, 11, 62, 100
12, 73390, Note_on_c, 11, 62, 0
12, 73400, Note_on_c, 11, 62, 100
12, 73430, Note_on_c, 11, 62, 0
12, 73440, Note_on_c, 11, 62, 100
12, 73530, Note_on_c, 11, 62, 0
12, 73920, Note_on_c, 11, 55, 100
12, 73950, Note_on_c, 11, 55, 0
12, 73960, Note_on_c, 11, 62, 100
12, 73990, Note_on_c, 11, 62, 0
12, 74000, Note_on_c, 11, 62, 100
12, 74030, Note_on_c, 11, 62, 0
12, 74040, Note_on_c, 11, 62, 100
12, 74070, Note_on_c, 11, 62, 0
12, 74080, Note_on_c, 11, 62, 100
12, 74110, Note_on_c, 11, 62, 0
12, 74120, Note_on_c, 11, 62, 100
12, 74150, Note_on_c, 11, 62, 0
12, 74160, Note_on_c, 11, 62, 100
12, 74190, Note_on_c, 11, 62, 0
12, 74200, Note_on_c, 11, 62, 100
12, 74230, Note_on_c, 11, 62, 0
12, 74240, Note_on_c, 11, 62, 100
12, 74270, Note_on_c, 11, 62, 0
12, 74280, Note_on_c, 11, 62, 100
12, 74310, Note_on_c, 11, 62, 0
12, 74320, Note_on_c, 11, 62, 100
12, 74350, Note_on_c, 11, 62, 0
12, 74360, Note_on_c, 11, 62, 100
12, 74390, Note_on_c, 11, 62, 0
12, 74400, Note_on_c, 11, 62, 100
12, 74490, Note_on_c, 11, 62, 0
12, 74880, Note_on_c, 11, 67, 100
12, 74970, Note_on_c, 11, 67, 0
12, 75120, Note_on_c, 11, 59, 100
12, 75210, Note_on_c, 11, 59, 0
12, 75360, Note_on_c, 11, 67, 100
12, 75450, Note_on_c, 11, 67, 0
12, 75600, Note_on_c, 11, 59, 100
12, 75690, Note_on_c, 11, 59, 0
12, 76800, Note_on_c, 11, 52, 55
12, 76880, Note_on_c, 11, 55, 55
12, 76890, Note_on_c, 11, 52, 0
12, 76940, Note_on_c, 11, 55, 0
12, 76960, Note_on_c, 11, 60, 55
12, 77005, Note_on_c, 11, 60, 0
12, 77040, Note_on_c, 11, 52, 55
12, 77120, Note_on_c, 11, 55, 55
12, 77130, Note_on_c, 11, 52, 0
12, 77180, Note_on_c, 11, 55, 0
12, 77200, Note_on_c, 11, 60, 55
12, 77245, Note_on_c, 11, 60, 0
12, 77280, Note_on_c, 11, 52, 55
12, 77360, Note_on_c, 11, 55, 55
12, 77370, Note_on_c, 11, 52, 0
12, 77420, Note_on_c, 11, 55, 0
12, 77440, Note_on_c, 11, 60, 55
12, 77485, Note_on_c, 11, 60, 0
12, 77520, Note_on_c, 11, 52, 55
12, 77600, Note_on_c, 11, 55, 55
12, 77610, Note_on_c, 11, 52, 0
12, 77660, Note_on_c, 11, 55, 0
12, 77680, Note_on_c, 11, 60, 55
12, 77725, Note_on_c, 11, 60, 0
12, 77760, Note_on_c, 11, 52, 55
12, 77840, Note_on_c, 11, 55, 55
12, 77850, Note_on_c, 11, 52, 0
12, 77900, Note_on_c, 11, 55, 0
12, 77920, Note_on_c, 11, 60, 55
12, 77965, Note_on_c, 11, 60, 0
12, 78000, Note_on_c, 11, 52, 55
12, 78080, Note_on_c, 11, 55, 55
12, 78090, Note_on_c, 11, 52, 0
12, 78140, Note_on_c, 11, 55, 0
12, 78160, Note_on_c, 11, 60, 55
12, 78205, Note_on_c, 11, 60, 0
12, 78240, Note_on_c, 11, 52, 55
12, 78320, Note_on_c, 11, 55, 55
12, 78330, Note_on_c, 11, 52, 0
12, 78380, Note_on_c, 11, 55, 0
12, 78400, Note_on_c, 11, 60, 55
12, 78445, Note_on_c, 11, 60, 0
12, 78480, Note_on_c, 11, 55, 55
12, 78560, Note_on_c, 11, 58, 55
12, 78570, Note_on_c, 11, 55, 0
12, 78620, Note_on_c, 11, 58, 0
12, 78640, Note_on_c, 11, 60, 55
12, 78685, Note_on_c, 11, 60, 0
12, 78720, Note_on_c, 11, 57, 55
12, 78720, Control_c, 11, 11, 80
12, 78790, Control_c, 11, 11, 81
12, 78800, Note_on_c, 11, 60, 55
12, 78810, Note_on_c, 11, 57, 0
12, 78850, Control_c, 11, 11, 82
12, 78860, Note_on_c, 11, 60, 0
12, 78880, Note_on_c, 11, 57, 55
12, 78920, Control_c, 11, 11, 83
12, 78925, Note_on_c, 11, 57, 0
12, 78960, Note_on_c, 11, 53, 55
12, 78980, Control_c, 11, 11, 84
12, 79040, Note_on_c, 11, 57, 55
12, 79040, Control_c, 11, 11, 85
12, 79050, Note_on_c, 11, 53, 0
12, 79100, Note_on_c, 11, 57, 0
12, 79110, Control_c, 11, 11, 86
12, 79120, Note_on_c, 11, 60, 55
12, 79165, Note_on_c, 11, 60, 0
12, 79170, Control_c, 11, 11, 87
12, 79200, Note_on_c, 11, 52, 55
12, 79240, Control_c, 11, 11, 88
12, 79280, Note_on_c, 11, 55, 55
12, 79290, Note_on_c, 11, 52, 0
12, 79300, Control_c, 11, 11, 89
12, 79340, Note_on_c, 11, 55, 0
12, 79360, Note_on_c, 11, 60, 55
12, 79360, Control_c, 11, 11, 90
12, 79405, Note_on_c, 11, 60, 0
12, 79430, Control_c, 11, 11, 91
12, 79440, Note_on_c, 11, 55, 55
12, 79490, Control_c, 11, 11, 92
12, 79520, Note_on_c, 11, 58, 55
12, 79530, Note_on_c, 11, 55, 0
12, 79560, Control_c, 11, 11, 93
12, 79580, Note_on_c, 11, 58, 0
12, 79600, Note_on_c, 11, 60, 55
12, 79620, Control_c, 11, 11, 94
12, 79645, Note_on_c, 11, 60, 0
12, 79680, Note_on_c, 11, 53, 55
12, 79680, Control_c, 11, 11, 95
12, 79750, Control_c, 11, 11, 96
12, 79760, Note_on_c, 11, 57, 55
12, 79770, Note_on_c, 11, 53, 0
12, 79810, Control_c, 11, 11, 97
12, 79820, Note_on_c, 11, 57, 0
12, 79840, Note_on_c, 11, 60, 55
12, 79880, Control_c, 11, 11, 98
12, 79885, Note_on_c, 11, 60, 0
12, 79920, Note_on_c, 11, 53, 55
12, 79940, Control_c, 11, 11, 99
12, 80000, Note_on_c, 11, 57, 55
12, 80000, Control_c, 11, 11, 100
12, 80010, Note_on_c, 11, 53, 0
12, 80060, Note_on_c, 11, 57, 0
12, 80070, Control_c, 11, 11, 101
12, 80080, Note_on_c, 11, 60, 55
12, 80125, Note_on_c, 11, 60, 0
12, 80130, Control_c, 11, 11, 102
12, 80160, Note_on_c, 11, 52, 55
12, 80200, Control_c, 11, 11, 103
12, 80240, Note_on_c, 11, 55, 55
12, 80250, Note_on_c, 11, 52, 0
12, 80260, Control_c, 11, 11, 104
12, 80300, Note_on_c, 11, 55, 0
12, 80320, Note_on_c, 11, 60, 55
12, 80320, Control_c, 11, 11, 105
12, 80365, Note_on_c, 11, 60, 0
12, 80390, Control_c, 11, 11, 106
12, 80400, Note_on_c, 11, 55, 55
12, 80450, Control_c, 11, 11, 107
12, 80480, Note_on_c, 11, 58, 55
12, 80490, Note_on_c, 11, 55, 0
12, 80520, Control_c, 11, 11, 108
12, 80540, Note_on_c, 11, 58, 0
12, 80560, Note_on_c, 11, 60, 55
12, 80580, Control_c, 11, 11, 110
12, 80605, Note_on_c, 11, 60, 0
12, 80634, Control_c, 11, 11, 80
12, 80640, Note_on_c, 11, 57, 55
12, 80700, Note_on_c, 11, 57, 0
12, 80720, Note_on_c, 11, 57, 55
12, 80780, Note_on_c, 11, 57, 0
12, 80800, Note_on_c, 11, 57, 55
12, 80860, Note_on_c, 11, 57, 0
12, 80960, Note_on_c, 11, 57, 55
12, 81020, Note_on_c, 11, 57, 0
12, 81040, Note_on_c, 11, 57, 55
12, 81100, Note_on_c, 11, 57, 0
12, 81200, Note_on_c, 11, 57, 55
12, 81260, Note_on_c, 11, 57, 0
12, 81280, Note_on_c, 11, 57, 55
12, 81340, Note_on_c, 11, 57, 0
12, 81440, Note_on_c, 11, 55, 55
12, 81500, Note_on_c, 11, 55, 0
12, 81520, Note_on_c, 11, 55, 55
12, 81580, Note_on_c, 11, 55, 0
12, 81680, Note_on_c, 11, 57, 55
12, 81740, Note_on_c, 11, 57, 0
12, 81760, Note_on_c, 11, 57, 55
12, 81820, Note_on_c, 11, 57, 0
12, 81920, Note_on_c, 11, 55, 55
12, 81980, Note_on_c, 11, 55, 0
12, 82000, Note_on_c, 11, 55, 55
12, 82060, Note_on_c, 11, 55, 0
12, 82160, Note_on_c, 11, 57, 55
12, 82220, Note_on_c, 11, 57, 0
12, 82240, Note_on_c, 11, 57, 55
12, 82300, Note_on_c, 11, 57, 0
12, 82400, Note_on_c, 11, 57, 55
12, 82460, Note_on_c, 11, 57, 0
12, 82480, Note_on_c, 11, 57, 55
12, 82540, Note_on_c, 11, 57, 0
12, 82560, Note_on_c, 11, 50, 55
12, 82640, Note_on_c, 11, 55, 55
12, 82650, Note_on_c, 11, 50, 0
12, 82700, Note_on_c, 11, 55, 0
12, 82720, Note_on_c, 11, 59, 55
12, 82765, Note_on_c, 11, 59, 0
12, 82800, Note_on_c, 11, 50, 55
12, 82880, Note_on_c, 11, 55, 55
12, 82890, Note_on_c, 11, 50, 0
12, 82940, Note_on_c, 11, 55, 0
12, 82960, Note_on_c, 11, 59, 55
12, 83005, Note_on_c, 11, 59, 0
12, 83040, Note_on_c, 11, 52, 55
12, 83120, Note_on_c, 11, 55, 55
12, 83130, Note_on_c, 11, 52, 0
12, 83180, Note_on_c, 11, 55, 0
12, 83200, Note_on_c, 11, 60, 55
12, 83245, Note_on_c, 11, 60, 0
12, 83280, Note_on_c, 11, 52, 55
12, 83360, Note_on_c, 11, 55, 55
12, 83370, Note_on_c, 11, 52, 0
12, 83420, Note_on_c, 11, 55, 0
12, 83440, Note_on_c, 11, 60, 55
12, 83485, Note_on_c, 11, 60, 0
12, 83520, Note_on_c, 11, 50, 55
12, 83600, Note_on_c, 11, 55, 55
12, 83610, Note_on_c, 11, 50, 0
12, 83660, Note_on_c, 11, 55, 0
12, 83680, Note_on_c, 11, 59, 55
12, 83725, Note_on_c, 11, 59, 0
12, 83760, Note_on_c, 11, 50, 55
12, 83840, Note_on_c, 11, 55, 55
12, 83850, Note_on_c, 11, 50, 0
12, 83900, Note_on_c, 11, 55, 0
12, 83920, Note_on_c, 11, 59, 55
12, 83965, Note_on_c, 11, 59, 0
12, 84000, Note_on_c, 11, 52, 55
12, 84080, Note_on_c, 11, 55, 55
12, 84090, Note_on_c, 11, 52, 0
12, 84140, Note_on_c, 11, 55, 0
12, 84160, Note_on_c, 11, 60, 55
12, 84205, Note_on_c, 11, 60, 0
12, 84240, Note_on_c, 11, 52, 55
12, 84320, Note_on_c, 11, 55, 55
12, 84330, Note_on_c, 11, 52, 0
12, 84380, Note_on_c, 11, 55, 0
12, 84400, Note_on_c, 11, 60, 55
12, 84445, Note_on_c, 11, 60, 0
12, 84480, Note_on_c, 11, 50, 55
12, 84720, Note_on_c, 11, 50, 0
12, 85280, Note_on_c, 11, 66, 55
12, 85325, Note_on_c, 11, 66, 0
12, 85440, Note_on_c, 11, 65, 55
12, 85485, Note_on_c, 11, 65, 0
12, 85520, Note_on_c, 11, 64, 55
12, 85565, Note_on_c, 11, 64, 0
12, 85600, Note_on_c, 11, 65, 55
12, 85645, Note_on_c, 11, 65, 0
12, 85680, Note_on_c, 11, 62, 55
12, 85725, Note_on_c, 11, 62, 0
12, 85760, Note_on_c, 11, 61, 55
12, 85805, Note_on_c, 11, 61, 0
12, 85840, Note_on_c, 11, 62, 55
12, 85885, Note_on_c, 11, 62, 0
12, 85920, Note_on_c, 11, 59, 55
12, 85965, Note_on_c, 11, 59, 0
12, 86000, Note_on_c, 11, 58, 55
12, 86045, Note_on_c, 11, 58, 0
12, 86080, Note_on_c, 11, 59, 55
12, 86125, Note_on_c, 11, 59, 0
12, 86160, Note_on_c, 11, 53, 55
12, 86205, Note_on_c, 11, 53, 0
12, 86240, Note_on_c, 11, 52, 55
12, 86285, Note_on_c, 11, 52, 0
12, 86320, Note_on_c, 11, 53, 55
12, 86365, Note_on_c, 11, 53, 0
12, 86400, Note_on_c, 11, 52, 55
12, 86480, Note_on_c, 11, 55, 55
12, 86490, Note_on_c, 11, 52, 0
12, 86540, Note_on_c, 11, 55, 0
12, 86560, Note_on_c, 11, 60, 55
12, 86620, Note_on_c, 11, 60, 0
12, 86640, Note_on_c, 11, 52, 55
12, 86720, Note_on_c, 11, 55, 55
12, 86730, Note_on_c, 11, 52, 0
12, 86780, Note_on_c, 11, 55, 0
12, 86800, Note_on_c, 11, 60, 55
12, 86845, Note_on_c, 11, 60, 0
12, 86880, Note_on_c, 11, 52, 55
12, 86960, Note_on_c, 11, 55, 55
12, 86970, Note_on_c, 11, 52, 0
12, 87020, Note_on_c, 11, 55, 0
12, 87040, Note_on_c, 11, 60, 55
12, 87085, Note_on_c, 11, 60, 0
12, 87120, Note_on_c, 11, 52, 55
12, 87200, Note_on_c, 11, 55, 55
12, 87210, Note_on_c, 11, 52, 0
12, 87260, Note_on_c, 11, 55, 0
12, 87280, Note_on_c, 11, 60, 55
12, 87325, Note_on_c, 11, 60, 0
12, 87360, Note_on_c, 11, 52, 55
12, 87440, Note_on_c, 11, 55, 55
12, 87450, Note_on_c, 11, 52, 0
12, 87500, Note_on_c, 11, 55, 0
12, 87520, Note_on_c, 11, 60, 55
12, 87565, Note_on_c, 11, 60, 0
12, 87600, Note_on_c, 11, 52, 55
12, 87680, Note_on_c, 11, 55, 55
12, 87690, Note_on_c, 11, 52, 0
12, 87740, Note_on_c, 11, 55, 0
12, 87760, Note_on_c, 11, 60, 55
12, 87805, Note_on_c, 11, 60, 0
12, 87840, Note_on_c, 11, 52, 55
12, 87920, Note_on_c, 11, 55, 55
12, 87930, Note_on_c, 11, 52, 0
12, 87980, Note_on_c, 11, 55, 0
12, 88000, Note_on_c, 11, 60, 55
12, 88045, Note_on_c, 11, 60, 0
12, 88080, Note_on_c, 11, 52, 55
12, 88160, Note_on_c, 11, 55, 55
12, 88170, Note_on_c, 11, 52, 0
12, 88220, Note_on_c, 11, 55, 0
12, 88240, Note_on_c, 11, 60, 55
12, 88285, Note_on_c, 11, 60, 0
12, 88320, Note_on_c, 11, 48, 55
12, 88400, Note_on_c, 11, 53, 55
12, 88410, Note_on_c, 11, 48, 0
12, 88460, Note_on_c, 11, 53, 0
12, 88480, Note_on_c, 11, 57, 55
12, 88525, Note_on_c, 11, 57, 0
12, 88560, Note_on_c, 11, 48, 56
12, 88640, Note_on_c, 11, 53, 56
12, 88650, Note_on_c, 11, 48, 0
12, 88700, Note_on_c, 11, 53, 0
12, 88720, Note_on_c, 11, 57, 57
12, 88765, Note_on_c, 11, 57, 0
12, 88800, Note_on_c, 11, 48, 57
12, 88880, Note_on_c, 11, 53, 58
12, 88890, Note_on_c, 11, 48, 0
12, 88940, Note_on_c, 11, 53, 0
12, 88960, Note_on_c, 11, 57, 58
12, 89005, Note_on_c, 11, 57, 0
12, 89040, Note_on_c, 11, 48, 59
12, 89120, Note_on_c, 11, 53, 59
12, 89130, Note_on_c, 11, 48, 0
12, 89180, Note_on_c, 11, 53, 0
12, 89200, Note_on_c, 11, 57, 60
12, 89245, Note_on_c, 11, 57, 0
12, 89280, Note_on_c, 11, 53, 60
12, 89360, Note_on_c, 11, 57, 61
12, 89370, Note_on_c, 11, 53, 0
12, 89420, Note_on_c, 11, 57, 0
12, 89440, Note_on_c, 11, 60, 61
12, 89485, Note_on_c, 11, 60, 0
12, 89520, Note_on_c, 11, 53, 62
12, 89600, Note_on_c, 11, 57, 62
12, 89610, Note_on_c, 11, 53, 0
12, 89660, Note_on_c, 11, 57, 0
12, 89680, Note_on_c, 11, 60, 63
12, 89725, Note_on_c, 11, 60, 0
12, 89760, Note_on_c, 11, 53, 63
12, 89840, Note_on_c, 11, 57, 64
12, 89850, Note_on_c, 11, 53, 0
12, 89900, Note_on_c, 11, 57, 0
12, 89920, Note_on_c, 11, 60, 64
12, 89965, Note_on_c, 11, 60, 0
12, 90000, Note_on_c, 11, 53, 65
12, 90080, Note_on_c, 11, 57, 65
12, 90090, Note_on_c, 11, 53, 0
12, 90140, Note_on_c, 11, 57, 0
12, 90160, Note_on_c, 11, 60, 66
12, 90205, Note_on_c, 11, 60, 0
12, 90240, Note_on_c, 11, 52, 66
12, 90320, Note_on_c, 11, 55, 67
12, 90330, Note_on_c, 11, 52, 0
12, 90380, Note_on_c, 11, 55, 0
12, 90400, Note_on_c, 11, 60, 67
12, 90445, Note_on_c, 11, 60, 0
12, 90480, Note_on_c, 11, 52, 68
12, 90560, Note_on_c, 11, 55, 68
12, 90570, Note_on_c, 11, 52, 0
12, 90620, Note_on_c, 11, 55, 0
12, 90640, Note_on_c, 11, 60, 69
12, 90685, Note_on_c, 11, 60, 0
12, 90720, Note_on_c, 11, 50, 69
12, 90800, Note_on_c, 11, 55, 70
12, 90810, Note_on_c, 11, 50, 0
12, 90860, Note_on_c, 11, 55, 0
12, 90880, Note_on_c, 11, 59, 70
12, 90925, Note_on_c, 11, 59, 0
12, 90960, Note_on_c, 11, 50, 71
12, 91040, Note_on_c, 11, 55, 71
12, 91050, Note_on_c, 11, 50, 0
12, 91100, Note_on_c, 11, 55, 0
12, 91120, Note_on_c, 11, 59, 72
12, 91165, Note_on_c, 11, 59, 0
12, 91200, Note_on_c, 11, 55, 72
12, 91280, Note_on_c, 11, 60, 72
12, 91290, Note_on_c, 11, 55, 0
12, 91340, Note_on_c, 11, 60, 0
12, 91440, Note_on_c, 11, 55, 73
12, 91520, Note_on_c, 11, 60, 74
12, 91530, Note_on_c, 11, 55, 0
12, 91580, Note_on_c, 11, 60, 0
12, 91680, Note_on_c, 11, 50, 75
12, 91760, Note_on_c, 11, 57, 75
12, 91770, Note_on_c, 11, 50, 0
12, 91820, Note_on_c, 11, 57, 0
12, 91840, Note_on_c, 11, 60, 76
12, 91885, Note_on_c, 11, 60, 0
12, 91920, Note_on_c, 11, 50, 76
12, 92000, Note_on_c, 11, 57, 77
12, 92010, Note_on_c, 11, 50, 0
12, 92060, Note_on_c, 11, 57, 0
12, 92080, Note_on_c, 11, 60, 77
12, 92125, Note_on_c, 11, 60, 0
12, 92160, Note_on_c, 11, 52, 78
12, 92160, Note_on_c, 11, 60, 78
12, 92220, Note_on_c, 11, 52, 0
12, 92220, Note_on_c, 11, 60, 0
12, 92240, Note_on_c, 11, 55, 78
12, 92240, Note_on_c, 11, 64, 78
12, 92300, Note_on_c, 11, 55, 0
12, 92300, Note_on_c, 11, 64, 0
12, 92320, Note_on_c, 11, 55, 79
12, 92320, Note_on_c, 11, 64, 79
12, 92380, Note_on_c, 11, 55, 0
12, 92380, Note_on_c, 11, 64, 0
12, 92400, Note_on_c, 11, 55, 79
12, 92400, Note_on_c, 11, 64, 79
12, 92460, Note_on_c, 11, 55, 0
12, 92460, Note_on_c, 11, 64, 0
12, 92480, Note_on_c, 11, 55, 80
12, 92480, Note_on_c, 11, 64, 80
12, 92540, Note_on_c, 11, 55, 0
12, 92540, Note_on_c, 11, 64, 0
12, 92560, Note_on_c, 11, 55, 80
12, 92560, Note_on_c, 11, 64, 80
12, 92620, Note_on_c, 11, 55, 0
12, 92620, Note_on_c, 11, 64, 0
12, 92640, Note_on_c, 11, 55, 81
12, 92640, Note_on_c, 11, 64, 81
12, 92700, Note_on_c, 11, 55, 0
12, 92700, Note_on_c, 11, 64, 0
12, 92720, Note_on_c, 11, 55, 81
12, 92720, Note_on_c, 11, 64, 81
12, 92780, Note_on_c, 11, 55, 0
12, 92780, Note_on_c, 11, 64, 0
12, 92800, Note_on_c, 11, 55, 82
12, 92800, Note_on_c, 11, 64, 82
12, 92860, Note_on_c, 11, 55, 0
12, 92860, Note_on_c, 11, 64, 0
12, 92880, Note_on_c, 11, 55, 82
12, 92880, Note_on_c, 11, 64, 82
12, 92940, Note_on_c, 11, 55, 0
12, 92940, Note_on_c, 11, 64, 0
12, 92960, Note_on_c, 11, 55, 83
12, 92960, Note_on_c, 11, 64, 83
12, 93020, Note_on_c, 11, 55, 0
12, 93020, Note_on_c, 11, 64, 0
12, 93040, Note_on_c, 11, 55, 83
12, 93040, Note_on_c, 11, 64, 83
12, 93100, Note_on_c, 11, 55, 0
12, 93100, Note_on_c, 11, 64, 0
12, 93120, Note_on_c, 11, 55, 84
12, 93120, Note_on_c, 11, 65, 84
12, 93180, Note_on_c, 11, 55, 0
12, 93180, Note_on_c, 11, 65, 0
12, 93200, Note_on_c, 11, 55, 84
12, 93200, Note_on_c, 11, 65, 84
12, 93260, Note_on_c, 11, 55, 0
12, 93260, Note_on_c, 11, 65, 0
12, 93280, Note_on_c, 11, 55, 85
12, 93280, Note_on_c, 11, 65, 85
12, 93340, Note_on_c, 11, 55, 0
12, 93340, Note_on_c, 11, 65, 0
12, 93360, Note_on_c, 11, 55, 85
12, 93360, Note_on_c, 11, 65, 85
12, 93420, Note_on_c, 11, 55, 0
12, 93420, Note_on_c, 11, 65, 0
12, 93440, Note_on_c, 11, 55, 86
12, 93440, Note_on_c, 11, 65, 86
12, 93500, Note_on_c, 11, 55, 0
12, 93500, Note_on_c, 11, 65, 0
12, 93520, Note_on_c, 11, 55, 86
12, 93520, Note_on_c, 11, 65, 86
12, 93580, Note_on_c, 11, 55, 0
12, 93580, Note_on_c, 11, 65, 0
12, 93600, Note_on_c, 11, 55, 87
12, 93600, Note_on_c, 11, 65, 87
12, 93660, Note_on_c, 11, 55, 0
12, 93660, Note_on_c, 11, 65, 0
12, 93680, Note_on_c, 11, 55, 87
12, 93680, Note_on_c, 11, 65, 87
12, 93740, Note_on_c, 11, 55, 0
12, 93740, Note_on_c, 11, 65, 0
12, 93760, Note_on_c, 11, 55, 88
12, 93760, Note_on_c, 11, 65, 88
12, 93820, Note_on_c, 11, 55, 0
12, 93820, Note_on_c, 11, 65, 0
12, 93840, Note_on_c, 11, 55, 88
12, 93840, Note_on_c, 11, 65, 88
12, 93900, Note_on_c, 11, 55, 0
12, 93900, Note_on_c, 11, 65, 0
12, 93920, Note_on_c, 11, 55, 89
12, 93920, Note_on_c, 11, 65, 89
12, 93980, Note_on_c, 11, 55, 0
12, 93980, Note_on_c, 11, 65, 0
12, 94000, Note_on_c, 11, 55, 89
12, 94000, Note_on_c, 11, 65, 89
12, 94060, Note_on_c, 11, 55, 0
12, 94060, Note_on_c, 11, 65, 0
12, 94080, Note_on_c, 11, 55, 90
12, 94080, Note_on_c, 11, 64, 90
12, 94110, Note_on_c, 11, 55, 0
12, 94110, Note_on_c, 11, 64, 0
12, 94120, Note_on_c, 11, 55, 90
12, 94120, Note_on_c, 11, 64, 90
12, 94150, Note_on_c, 11, 55, 0
12, 94150, Note_on_c, 11, 64, 0
12, 94160, Note_on_c, 11, 55, 90
12, 94160, Note_on_c, 11, 64, 90
12, 94190, Note_on_c, 11, 55, 0
12, 94190, Note_on_c, 11, 64, 0
12, 94200, Note_on_c, 11, 55, 90
12, 94200, Note_on_c, 11, 64, 90
12, 94230, Note_on_c, 11, 55, 0
12, 94230, Note_on_c, 11, 64, 0
12, 94240, Note_on_c, 11, 55, 90
12, 94240, Note_on_c, 11, 64, 90
12, 94270, Note_on_c, 11, 55, 0
12, 94270, Note_on_c, 11, 64, 0
12, 94280, Note_on_c, 11, 55, 90
12, 94280, Note_on_c, 11, 64, 90
12, 94310, Note_on_c, 11, 55, 0
12, 94310, Note_on_c, 11, 64, 0
12, 94320, Note_on_c, 11, 55, 90
12, 94320, Note_on_c, 11, 64, 90
12, 94350, Note_on_c, 11, 55, 0
12, 94350, Note_on_c, 11, 64, 0
12, 94360, Note_on_c, 11, 55, 90
12, 94360, Note_on_c, 11, 64, 90
12, 94390, Note_on_c, 11, 55, 0
12, 94390, Note_on_c, 11, 64, 0
12, 94400, Note_on_c, 11, 55, 90
12, 94400, Note_on_c, 11, 64, 90
12, 94430, Note_on_c, 11, 55, 0
12, 94430, Note_on_c, 11, 64, 0
12, 94440, Note_on_c, 11, 55, 90
12, 94440, Note_on_c, 11, 64, 90
12, 94470, Note_on_c, 11, 55, 0
12, 94470, Note_on_c, 11, 64, 0
12, 94480, Note_on_c, 11, 55, 90
12, 94480, Note_on_c, 11, 64, 90
12, 94510, Note_on_c, 11, 55, 0
12, 94510, Note_on_c, 11, 64, 0
12, 94520, Note_on_c, 11, 55, 90
12, 94520, Note_on_c, 11, 64, 90
12, 94550, Note_on_c, 11, 55, 0
12, 94550, Note_on_c, 11, 64, 0
12, 94560, Note_on_c, 11, 55, 90
12, 94560, Note_on_c, 11, 64, 90
12, 94650, Note_on_c, 11, 55, 0
12, 94650, Note_on_c, 11, 64, 0
12, 94800, Note_on_c, 11, 52, 90
12, 94800, Note_on_c, 11, 55, 90
12, 94890, Note_on_c, 11, 52, 0
12, 94890, Note_on_c, 11, 55, 0
12, 95040, Note_on_c, 11, 55, 90
12, 95040, Note_on_c, 11, 64, 90
12, 95070, Note_on_c, 11, 55, 0
12, 95070, Note_on_c, 11, 64, 0
12, 95080, Note_on_c, 11, 55, 90
12, 95080, Note_on_c, 11, 64, 90
12, 95110, Note_on_c, 11, 55, 0
12, 95110, Note_on_c, 11, 64, 0
12, 95120, Note_on_c, 11, 55, 90
12, 95120, Note_on_c, 11, 64, 90
12, 95150, Note_on_c, 11, 55, 0
12, 95150, Note_on_c, 11, 64, 0
12, 95160, Note_on_c, 11, 55, 90
12, 95160, Note_on_c, 11, 64, 90
12, 95190, Note_on_c, 11, 55, 0
12, 95190, Note_on_c, 11, 64, 0
12, 95200, Note_on_c, 11, 55, 90
12, 95200, Note_on_c, 11, 64, 90
12, 95230, Note_on_c, 11, 55, 0
12, 95230, Note_on_c, 11, 64, 0
12, 95240, Note_on_c, 11, 55, 90
12, 95240, Note_on_c, 11, 64, 90
12, 95270, Note_on_c, 11, 55, 0
12, 95270, Note_on_c, 11, 64, 0
12, 95280, Note_on_c, 11, 55, 90
12, 95280, Note_on_c, 11, 64, 90
12, 95310, Note_on_c, 11, 55, 0
12, 95310, Note_on_c, 11, 64, 0
12, 95320, Note_on_c, 11, 55, 90
12, 95320, Note_on_c, 11, 64, 90
12, 95350, Note_on_c, 11, 55, 0
12, 95350, Note_on_c, 11, 64, 0
12, 95360, Note_on_c, 11, 55, 90
12, 95360, Note_on_c, 11, 64, 90
12, 95390, Note_on_c, 11, 55, 0
12, 95390, Note_on_c, 11, 64, 0
12, 95400, Note_on_c, 11, 55, 90
12, 95400, Note_on_c, 11, 64, 90
12, 95430, Note_on_c, 11, 55, 0
12, 95430, Note_on_c, 11, 64, 0
12, 95440, Note_on_c, 11, 55, 90
12, 95440, Note_on_c, 11, 64, 90
12, 95470, Note_on_c, 11, 55, 0
12, 95470, Note_on_c, 11, 64, 0
12, 95480, Note_on_c, 11, 55, 90
12, 95480, Note_on_c, 11, 64, 90
12, 95510, Note_on_c, 11, 55, 0
12, 95510, Note_on_c, 11, 64, 0
12, 95520, Note_on_c, 11, 55, 90
12, 95520, Note_on_c, 11, 64, 90
12, 95610, Note_on_c, 11, 55, 0
12, 95610, Note_on_c, 11, 64, 0
12, 95760, Note_on_c, 11, 52, 90
12, 95760, Note_on_c, 11, 55, 90
12, 95850, Note_on_c, 11, 52, 0
12, 95850, Note_on_c, 11, 55, 0
12, 96000, Note_on_c, 11, 55, 90
12, 96000, Note_on_c, 11, 64, 90
12, 96090, Note_on_c, 11, 55, 0
12, 96090, Note_on_c, 11, 64, 0
12, 96240, Note_on_c, 11, 52, 90
12, 96240, Note_on_c, 11, 55, 90
12, 96330, Note_on_c, 11, 52, 0
12, 96330, Note_on_c, 11, 55, 0
12, 96480, Note_on_c, 11, 55, 90
12, 96480, Note_on_c, 11, 64, 90
12, 96570, Note_on_c, 11, 55, 0
12, 96570, Note_on_c, 11, 64, 0
12, 96720, Note_on_c, 11, 52, 90
12, 96720, Note_on_c, 11, 55, 90
12, 96810, Note_on_c, 11, 52, 0
12, 96810, Note_on_c, 11, 55, 0
12, 96960, Note_on_c, 11, 60, 70
12, 96960, Control_c, 11, 11, 80
12, 96970, Control_c, 11, 11, 83
12, 96980, Control_c, 11, 11, 87
12, 96990, Control_c, 11, 11, 91
12, 97000, Control_c, 11, 11, 95
12, 97010, Control_c, 11, 11, 99
12, 97020, Control_c, 11, 11, 103
12, 97030, Control_c, 11, 11, 107
12, 97040, Control_c, 11, 11, 111
12, 97050, Control_c, 11, 11, 115
12, 97060, Control_c, 11, 11, 119
12, 97070, Control_c, 11, 11, 123
12, 97080, Control_c, 11, 11, 127
12, 97100, Control_c, 11, 11, 126
12, 97110, Control_c, 11, 11, 125
12, 97120, Control_c, 11, 11, 124
12, 97140, Control_c, 11, 11, 123
12, 97150, Control_c, 11, 11, 122
12, 97160, Control_c, 11, 11, 121
12, 97170, Control_c, 11, 11, 120
12, 97190, Control_c, 11, 11, 119
12, 97200, Control_c, 11, 11, 118
12, 97210, Control_c, 11, 11, 117
12, 97230, Control_c, 11, 11, 116
12, 97240, Control_c, 11, 11, 115
12, 97250, Control_c, 11, 11, 114
12, 97260, Control_c, 11, 11, 113
12, 97280, Control_c, 11, 11, 112
12, 97290, Control_c, 11, 11, 111
12, 97300, Control_c, 11, 11, 110
12, 97310, Control_c, 11, 11, 109
12, 97330, Control_c, 11, 11, 108
12, 97340, Control_c, 11, 11, 107
12, 97350, Control_c, 11, 11, 106
12, 97370, Control_c, 11, 11, 105
12, 97380, Control_c, 11, 11, 104
12, 97390, Control_c, 11, 11, 103
12, 97400, Control_c, 11, 11, 102
12, 97420, Control_c, 11, 11, 101
12, 97430, Control_c, 11, 11, 100
12, 97440, Control_c, 11, 11, 99
12, 97460, Control_c, 11, 11, 98
12, 97470, Control_c, 11, 11, 97
12, 97480, Control_c, 11, 11, 96
12, 97490, Control_c, 11, 11, 95
12, 97510, Control_c, 11, 11, 94
12, 97520, Control_c, 11, 11, 93
12, 97530, Control_c, 11, 11, 92
12, 97540, Control_c, 11, 11, 91
12, 97560, Control_c, 11, 11, 90
12, 97570, Control_c, 11, 11, 89
12, 97580, Control_c, 11, 11, 88
12, 97600, Control_c, 11, 11, 87
12, 97610, Control_c, 11, 11, 86
12, 97620, Control_c, 11, 11, 85
12, 97630, Control_c, 11, 11, 84
12, 97650, Control_c, 11, 11, 83
12, 97660, Control_c, 11, 11, 82
12, 97670, Control_c, 11, 11, 81
12, 97920, Note_on_c, 11, 56, 50
12, 97950, Note_on_c, 11, 60, 0
12, 98640, Note_on_c, 11, 53, 50
12, 98670, Note_on_c, 11, 56, 0
12, 98850, Note_on_c, 11, 53, 0
12, 98880, Note_on_c, 11, 49, 50
12, 98880, Control_c, 11, 11, 80
12, 98920, Control_c, 11, 11, 82
12, 98950, Control_c, 11, 11, 83
12, 98980, Control_c, 11, 11, 85
12, 99010, Control_c, 11, 11, 86
12, 99040, Control_c, 11, 11, 88
12, 99070, Control_c, 11, 11, 89
12, 99100, Control_c, 11, 11, 91
12, 99130, Control_c, 11, 11, 92
12, 99150, Note_on_c, 11, 49, 0
12, 99160, Control_c, 11, 11, 94
12, 99190, Control_c, 11, 11, 95
12, 99230, Control_c, 11, 11, 97
12, 99260, Control_c, 11, 11, 99
12, 99290, Control_c, 11, 11, 100
12, 99320, Control_c, 11, 11, 102
12, 99350, Control_c, 11, 11, 103
12, 99380, Control_c, 11, 11, 105
12, 99410, Control_c, 11, 11, 106
12, 99440, Control_c, 11, 11, 108
12, 99470, Control_c, 11, 11, 109
12, 99500, Control_c, 11, 11, 111
12, 99540, Control_c, 11, 11, 113
12, 99570, Control_c, 11, 11, 114
12, 99600, Control_c, 11, 11, 116
12, 99630, Control_c, 11, 11, 117
12, 99660, Control_c, 11, 11, 119
12, 99690, Control_c, 11, 11, 120
12, 99720, Control_c, 11, 11, 122
12, 99750, Control_c, 11, 11, 124
12, 99780, Control_c, 11, 11, 127
12, 99837, Control_c, 11, 11, 80
12, 100800, Note_on_c, 11, 51, 50
12, 101250, Note_on_c, 11, 51, 0
12, 101760, Note_on_c, 11, 51, 50
12, 102480, Note_on_c, 11, 51, 0
12, 102720, Note_on_c, 11, 51, 50
12, 103170, Note_on_c, 11, 51, 0
12, 103200, Note_on_c, 11, 51, 50
12, 103650, Note_on_c, 11, 51, 0
12, 103680, Note_on_c, 11, 51, 50
12, 104160, Note_on_c, 11, 50, 50
12, 104190, Note_on_c, 11, 51, 0
12, 104400, Note_on_c, 11, 50, 0
12, 104640, Note_on_c, 11, 53, 50
12, 105090, Note_on_c, 11, 53, 0
12, 105600, Note_on_c, 11, 62, 50
12, 105840, Note_on_c, 11, 62, 0
12, 106560, Note_on_c, 11, 58, 50
12, 107010, Note_on_c, 11, 58, 0
12, 107520, Note_on_c, 11, 58, 50
12, 107520, Control_c, 11, 11, 80
12, 107530, Control_c, 11, 11, 83
12, 107540, Control_c, 11, 11, 86
12, 107550, Control_c, 11, 11, 90
12, 107560, Control_c, 11, 11, 93
12, 107570, Control_c, 11, 11, 96
12, 107580, Control_c, 11, 11, 100
12, 107590, Control_c, 11, 11, 103
12, 107600, Control_c, 11, 11, 106
12, 107620, Control_c, 11, 11, 110
12, 107640, Control_c, 11, 11, 109
12, 107650, Control_c, 11, 11, 108
12, 107660, Control_c, 11, 11, 107
12, 107670, Control_c, 11, 11, 106
12, 107690, Control_c, 11, 11, 105
12, 107700, Control_c, 11, 11, 104
12, 107710, Control_c, 11, 11, 103
12, 107720, Control_c, 11, 11, 102
12, 107740, Control_c, 11, 11, 101
12, 107750, Control_c, 11, 11, 100
12, 107760, Control_c, 11, 11, 99
12, 107770, Control_c, 11, 11, 98
12, 107780, Control_c, 11, 11, 97
12, 107800, Control_c, 11, 11, 96
12, 107810, Control_c, 11, 11, 95
12, 107820, Control_c, 11, 11, 94
12, 107830, Control_c, 11, 11, 93
12, 107850, Control_c, 11, 11, 92
12, 107860, Control_c, 11, 11, 91
12, 107870, Control_c, 11, 11, 90
12, 107880, Control_c, 11, 11, 89
12, 107890, Control_c, 11, 11, 88
12, 107910, Control_c, 11, 11, 87
12, 107920, Control_c, 11, 11, 86
12, 107930, Control_c, 11, 11, 85
12, 107940, Control_c, 11, 11, 84
12, 107960, Control_c, 11, 11, 83
12, 107970, Control_c, 11, 11, 82
12, 107980, Control_c, 11, 11, 81
12, 107990, Control_c, 11, 11, 80
12, 108240, Note_on_c, 11, 56, 50
12, 108255, Note_on_c, 11, 58, 0
12, 108360, Note_on_c, 11, 55, 50
12, 108375, Note_on_c, 11, 56, 0
12, 108450, Note_on_c, 11, 55, 0
12, 108480, Note_on_c, 11, 53, 50
12, 108690, Note_on_c, 11, 53, 0
12, 108720, Note_on_c, 11, 65, 50
12, 108780, Note_on_c, 11, 65, 0
12, 108840, Note_on_c, 11, 61, 50
12, 108900, Note_on_c, 11, 61, 0
12, 108960, Note_on_c, 11, 60, 56
12, 109170, Note_on_c, 11, 60, 0
12, 109200, Note_on_c, 11, 60, 63
12, 109410, Note_on_c, 11, 60, 0
12, 109920, Note_on_c, 11, 65, 85
12, 110370, Note_on_c, 11, 65, 0
12, 110400, Note_on_c, 11, 61, 85
12, 111330, Note_on_c, 11, 61, 0
12, 111360, Note_on_c, 11, 64, 85
12, 112050, Note_on_c, 11, 64, 0
12, 112080, Note_on_c, 11, 64, 85
12, 112100, Note_on_c, 11, 64, 0
12, 112100, Note_on_c, 11, 65, 85
12, 112120, Note_on_c, 11, 64, 85
12, 112120, Note_on_c, 11, 65, 0
12, 112140, Note_on_c, 11, 64, 0
12, 112140, Note_on_c, 11, 65, 85
12, 112160, Note_on_c, 11, 64, 85
12, 112160, Note_on_c, 11, 65, 0
12, 112180, Note_on_c, 11, 64, 0
12, 112180, Note_on_c, 11, 65, 85
12, 112200, Note_on_c, 11, 64, 85
12, 112200, Note_on_c, 11, 65, 0
12, 112220, Note_on_c, 11, 64, 0
12, 112220, Note_on_c, 11, 65, 85
12, 112240, Note_on_c, 11, 65, 0
12, 112260, Note_on_c, 11, 62, 85
12, 112290, Note_on_c, 11, 64, 85
12, 112295, Note_on_c, 11, 62, 0
12, 112320, Note_on_c, 11, 64, 0
12, 112320, Note_on_c, 11, 65, 85
12, 112530, Note_on_c, 11, 65, 0
12, 116160, Note_on_c, 11, 53, 85
12, 116640, Note_on_c, 11, 55, 85
12, 116670, Note_on_c, 11, 53, 0
12, 116880, Note_on_c, 11, 56, 85
12, 116910, Note_on_c, 11, 55, 0
12, 117090, Note_on_c, 11, 56, 0
12, 117120, Note_on_c, 11, 58, 85
12, 117810, Note_on_c, 11, 58, 0
12, 117840, Note_on_c, 11, 56, 85
12, 117860, Note_on_c, 11, 56, 0
12, 117860, Note_on_c, 11, 58, 85
12, 117880, Note_on_c, 11, 56, 85
12, 117880, Note_on_c, 11, 58, 0
12, 117900, Note_on_c, 11, 56, 0
12, 117900, Note_on_c, 11, 58, 85
12, 117920, Note_on_c, 11, 56, 85
12, 117920, Note_on_c, 11, 58, 0
12, 117940, Note_on_c, 11, 56, 0
12, 117940, Note_on_c, 11, 58, 85
12, 117960, Note_on_c, 11, 56, 85
12, 117960, Note_on_c, 11, 58, 0
12, 117980, Note_on_c, 11, 56, 0
12, 117980, Note_on_c, 11, 58, 85
12, 118000, Note_on_c, 11, 58, 0
12, 118020, Note_on_c, 11, 55, 85
12, 118050, Note_on_c, 11, 56, 85
12, 118055, Note_on_c, 11, 55, 0
12, 118080, Note_on_c, 11, 55, 85
12, 118080, Note_on_c, 11, 56, 0
12, 118320, Note_on_c, 11, 61, 85
12, 118350, Note_on_c, 11, 55, 0
12, 118560, Note_on_c, 11, 60, 85
12, 118590, Note_on_c, 11, 61, 0
12, 118800, Note_on_c, 11, 58, 85
12, 118830, Note_on_c, 11, 60, 0
12, 119010, Note_on_c, 11, 58, 0
12, 119040, Note_on_c, 11, 56, 85
12, 119280, Note_on_c, 11, 56, 0
12, 120240, Note_on_c, 11, 59, 85
12, 120480, Note_on_c, 11, 60, 85
12, 120510, Note_on_c, 11, 59, 0
12, 120720, Note_on_c, 11, 62, 85
12, 120750, Note_on_c, 11, 60, 0
12, 120930, Note_on_c, 11, 62, 0
12, 120960, Note_on_c, 11, 63, 85
12, 121020, Note_on_c, 11, 63, 0
12, 121080, Note_on_c, 11, 67, 85
12, 121140, Note_on_c, 11, 67, 0
12, 121200, Note_on_c, 11, 68, 85
12, 121260, Note_on_c, 11, 68, 0
12, 121320, Note_on_c, 11, 67, 85
12, 121380, Note_on_c, 11, 67, 0
12, 121440, Note_on_c, 11, 65, 85
12, 121500, Note_on_c, 11, 65, 0
12, 121560, Note_on_c, 11, 63, 85
12, 121620, Note_on_c, 11, 63, 0
12, 121680, Note_on_c, 11, 62, 85
12, 121740, Note_on_c, 11, 62, 0
12, 121800, Note_on_c, 11, 60, 85
12, 121860, Note_on_c, 11, 60, 0
12, 121920, Note_on_c, 11, 59, 85
12, 121980, Note_on_c, 11, 59, 0
12, 122040, Note_on_c, 11, 60, 85
12, 122100, Note_on_c, 11, 60, 0
12, 122160, Note_on_c, 11, 62, 85
12, 122220, Note_on_c, 11, 62, 0
12, 122280, Note_on_c, 11, 60, 85
12, 122340, Note_on_c, 11, 60, 0
12, 122400, Note_on_c, 11, 59, 85
12, 122460, Note_on_c, 11, 59, 0
12, 122520, Note_on_c, 11, 55, 85
12, 122580, Note_on_c, 11, 55, 0
12, 122640, Note_on_c, 11, 60, 85
12, 122700, Note_on_c, 11, 60, 0
12, 122760, Note_on_c, 11, 55, 85
12, 122820, Note_on_c, 11, 55, 0
12, 122880, Note_on_c, 11, 65, 85
12, 122940, Note_on_c, 11, 65, 0
12, 123000, Note_on_c, 11, 55, 85
12, 123060, Note_on_c, 11, 55, 0
12, 123120, Note_on_c, 11, 65, 85
12, 123180, Note_on_c, 11, 65, 0
12, 123240, Note_on_c, 11, 55, 85
12, 123300, Note_on_c, 11, 55, 0
12, 123360, Note_on_c, 11, 63, 85
12, 123420, Note_on_c, 11, 63, 0
12, 123480, Note_on_c, 11, 55, 85
12, 123540, Note_on_c, 11, 55, 0
12, 123600, Note_on_c, 11, 62, 85
12, 123660, Note_on_c, 11, 62, 0
12, 123720, Note_on_c, 11, 55, 85
12, 123780, Note_on_c, 11, 55, 0
12, 123840, Note_on_c, 11, 60, 85
12, 123900, Note_on_c, 11, 60, 0
12, 123960, Note_on_c, 11, 60, 85
12, 124020, Note_on_c, 11, 60, 0
12, 124080, Note_on_c, 11, 58, 85
12, 124140, Note_on_c, 11, 58, 0
12, 124200, Note_on_c, 11, 60, 85
12, 124260, Note_on_c, 11, 60, 0
12, 124320, Note_on_c, 11, 56, 85
12, 124380, Note_on_c, 11, 56, 0
12, 124440, Note_on_c, 11, 60, 88
12, 124500, Note_on_c, 11, 60, 0
12, 124560, Note_on_c, 11, 55, 91
12, 124620, Note_on_c, 11, 55, 0
12, 124680, Note_on_c, 11, 60, 95
12, 124740, Note_on_c, 11, 60, 0
12, 124800, Note_on_c, 11, 53, 100
12, 124890, Note_on_c, 11, 53, 0
12, 125400, Note_on_c, 11, 60, 100
12, 125460, Note_on_c, 11, 60, 0
12, 125520, Note_on_c, 11, 58, 100
12, 125580, Note_on_c, 11, 58, 0
12, 125640, Note_on_c, 11, 56, 100
12, 125700, Note_on_c, 11, 56, 0
12, 125760, Note_on_c, 11, 61, 100
12, 126000, Note_on_c, 11, 61, 0
12, 126360, Note_on_c, 11, 70, 100
12, 126420, Note_on_c, 11, 70, 0
12, 126480, Note_on_c, 11, 72, 100
12, 126540, Note_on_c, 11, 72, 0
12, 126720, Note_on_c, 11, 58, 100
12, 126960, Note_on_c, 11, 58, 0
12, 127320, Note_on_c, 11, 60, 100
12, 127380, Note_on_c, 11, 60, 0
12, 127440, Note_on_c, 11, 48, 100
12, 127500, Note_on_c, 11, 48, 0
12, 127560, Note_on_c, 11, 60, 100
12, 127620, Note_on_c, 11, 60, 0
12, 127680, Note_on_c, 11, 53, 100
12, 127740, Note_on_c, 11, 53, 0
12, 127800, Note_on_c, 11, 65, 100
12, 127860, Note_on_c, 11, 65, 0
12, 127920, Note_on_c, 11, 63, 100
12, 127980, Note_on_c, 11, 63, 0
12, 128040, Note_on_c, 11, 65, 100
12, 128100, Note_on_c, 11, 65, 0
12, 128160, Note_on_c, 11, 62, 100
12, 128220, Note_on_c, 11, 62, 0
12, 128280, Note_on_c, 11, 65, 100
12, 128340, Note_on_c, 11, 65, 0
12, 128400, Note_on_c, 11, 60, 100
12, 128460, Note_on_c, 11, 60, 0
12, 128520, Note_on_c, 11, 65, 100
12, 128580, Note_on_c, 11, 65, 0
12, 128640, Note_on_c, 11, 58, 100
12, 128730, Note_on_c, 11, 58, 0
12, 128880, Note_on_c, 11, 58, 100
12, 129360, Note_on_c, 11, 60, 100
12, 129390, Note_on_c, 11, 58, 0
12, 129480, Note_on_c, 11, 62, 100
12, 129510, Note_on_c, 11, 60, 0
12, 129570, Note_on_c, 11, 62, 0
12, 129600, Note_on_c, 11, 63, 100
12, 129840, Note_on_c, 11, 63, 0
12, 130680, Note_on_c, 11, 53, 100
12, 130740, Note_on_c, 11, 53, 0
12, 130800, Note_on_c, 11, 55, 100
12, 130860, Note_on_c, 11, 55, 0
12, 130920, Note_on_c, 11, 56, 100
12, 130980, Note_on_c, 11, 56, 0
12, 131040, Note_on_c, 11, 58, 100
12, 131100, Note_on_c, 11, 58, 0
12, 131160, Note_on_c, 11, 60, 100
12, 131220, Note_on_c, 11, 60, 0
12, 131280, Note_on_c, 11, 62, 100
12, 131340, Note_on_c, 11, 62, 0
12, 131400, Note_on_c, 11, 63, 100
12, 131460, Note_on_c, 11, 63, 0
12, 131520, Note_on_c, 11, 65, 100
12, 131760, Note_on_c, 11, 65, 0
12, 132600, Note_on_c, 11, 55, 100
12, 132660, Note_on_c, 11, 55, 0
12, 132720, Note_on_c, 11, 56, 100
12, 132780, Note_on_c, 11, 56, 0
12, 132840, Note_on_c, 11, 58, 100
12, 132900, Note_on_c, 11, 58, 0
12, 132960, Note_on_c, 11, 60, 100
12, 133020, Note_on_c, 11, 60, 0
12, 133080, Note_on_c, 11, 62, 100
12, 133140, Note_on_c, 11, 62, 0
12, 133200, Note_on_c, 11, 63, 100
12, 133260, Note_on_c, 11, 63, 0
12, 133320, Note_on_c, 11, 65, 100
12, 133380, Note_on_c, 11, 65, 0
12, 133440, Note_on_c, 11, 67, 100
12, 133920, Note_on_c, 11, 69, 100
12, 133950, Note_on_c, 11, 67, 0
12, 134160, Note_on_c, 11, 71, 100
12, 134190, Note_on_c, 11, 69, 0
12, 134370, Note_on_c, 11, 71, 0
12, 134400, Note_on_c, 11, 72, 100
12, 134850, Note_on_c, 11, 72, 0
12, 134880, Note_on_c, 11, 60, 100
12, 135600, Note_on_c, 11, 56, 100
12, 135630, Note_on_c, 11, 60, 0
12, 135720, Note_on_c, 11, 55, 100
12, 135750, Note_on_c, 11, 56, 0
12, 135810, Note_on_c, 11, 55, 0
12, 135840, Note_on_c, 11, 53, 100
12, 136080, Note_on_c, 11, 53, 0
12, 136800, Note_on_c, 11, 62, 100
12, 137490, Note_on_c, 11, 62, 0
12, 137520, Note_on_c, 11, 59, 100
12, 137640, Note_on_c, 11, 57, 100
12, 137670, Note_on_c, 11, 59, 0
12, 137730, Note_on_c, 11, 57, 0
12, 137760, Note_on_c, 11, 55, 100
12, 137850, Note_on_c, 11, 55, 0
12, 138000, Note_on_c, 11, 62, 100
12, 138090, Note_on_c, 11, 62, 0
12, 138240, Note_on_c, 11, 60, 100
12, 138450, Note_on_c, 11, 60, 0
12, 138480, Note_on_c, 11, 61, 100
12, 138930, Note_on_c, 11, 61, 0
12, 138960, Note_on_c, 11, 55, 100
12, 139170, Note_on_c, 11, 55, 0
12, 139200, Note_on_c, 11, 54, 100
12, 139890, Note_on_c, 11, 54, 0
12, 139920, Note_on_c, 11, 55, 100
12, 140040, Note_on_c, 11, 57, 100
12, 140070, Note_on_c, 11, 55, 0
12, 140130, Note_on_c, 11, 57, 0
12, 140160, Note_on_c, 11, 58, 100
12, 140400, Note_on_c, 11, 60, 100
12, 140430, Note_on_c, 11, 58, 0
12, 140520, Note_on_c, 11, 62, 100
12, 140550, Note_on_c, 11, 60, 0
12, 140640, Note_on_c, 11, 63, 100
12, 140670, Note_on_c, 11, 62, 0
12, 140880, Note_on_c, 11, 60, 100
12, 140910, Note_on_c, 11, 63, 0
12, 141000, Note_on_c, 11, 58, 100
12, 141030, Note_on_c, 11, 60, 0
12, 141090, Note_on_c, 11, 58, 0
12, 141120, Note_on_c, 11, 57, 100
12, 141360, Note_on_c, 11, 58, 100
12, 141390, Note_on_c, 11, 57, 0
12, 141480, Note_on_c, 11, 60, 100
12, 141510, Note_on_c, 11, 58, 0
12, 141600, Note_on_c, 11, 62, 100
12, 141630, Note_on_c, 11, 60, 0
12, 141840, Note_on_c, 11, 58, 100
12, 141870, Note_on_c, 11, 62, 0
12, 141960, Note_on_c, 11, 57, 100
12, 141990, Note_on_c, 11, 58, 0
12, 142050, Note_on_c, 11, 57, 0
12, 142080, Note_on_c, 11, 55, 100
12, 142320, Note_on_c, 11, 57, 100
12, 142350, Note_on_c, 11, 55, 0
12, 142440, Note_on_c, 11, 58, 100
12, 142470, Note_on_c, 11, 57, 0
12, 142560, Note_on_c, 11, 60, 100
12, 142590, Note_on_c, 11, 58, 0
12, 142800, Note_on_c, 11, 57, 100
12, 142830, Note_on_c, 11, 60, 0
12, 142920, Note_on_c, 11, 55, 100
12, 142950, Note_on_c, 11, 57, 0
12, 143010, Note_on_c, 11, 55, 0
12, 143040, Note_on_c, 11, 54, 100
12, 143280, Note_on_c, 11, 55, 100
12, 143310, Note_on_c, 11, 54, 0
12, 143400, Note_on_c, 11, 57, 100
12, 143430, Note_on_c, 11, 55, 0
12, 143520, Note_on_c, 11, 58, 100
12, 143550, Note_on_c, 11, 57, 0
12, 143640, Note_on_c, 11, 60, 100
12, 143670, Note_on_c, 11, 58, 0
12, 143760, Note_on_c, 11, 61, 100
12, 143790, Note_on_c, 11, 60, 0
12, 143880, Note_on_c, 11, 62, 100
12, 143910, Note_on_c, 11, 61, 0
12, 143970, Note_on_c, 11, 62, 0
12, 143997, Note_on_c, 11, 64, 100
12, 144087, Note_on_c, 11, 64, 0
12, 144480, Note_on_c, 11, 55, 100
12, 145050, Note_on_c, 11, 55, 0
12, 145200, Note_on_c, 11, 55, 100
12, 145290, Note_on_c, 11, 55, 0
12, 145440, Note_on_c, 11, 55, 100
12, 145530, Note_on_c, 11, 55, 0
12, 145680, Note_on_c, 11, 55, 100
12, 145770, Note_on_c, 11, 55, 0
12, 145920, Note_on_c, 11, 62, 100
12, 146850, Note_on_c, 11, 62, 0
12, 146880, Note_on_c, 11, 50, 75
12, 147810, Note_on_c, 11, 50, 0
12, 147840, Note_on_c, 11, 55, 50
12, 148290, Note_on_c, 11, 55, 0
12, 148800, Note_on_c, 11, 55, 50
12, 149280, Note_on_c, 11, 55, 0
12, 149760, Note_on_c, 11, 56, 50
12, 150240, Note_on_c, 11, 56, 0
12, 152640, Note_on_c, 11, 48, 85
12, 152640, Note_on_c, 11, 51, 85
12, 153570, Note_on_c, 11, 48, 0
12, 153570, Note_on_c, 11, 51, 0
12, 153600, Note_on_c, 11, 48, 85
12, 153600, Note_on_c, 11, 51, 85
12, 153660, Note_on_c, 11, 48, 0
12, 153660, Note_on_c, 11, 51, 0
12, 153680, Note_on_c, 11, 48, 85
12, 153680, Note_on_c, 11, 51, 85
12, 153740, Note_on_c, 11, 48, 0
12, 153740, Note_on_c, 11, 51, 0
12, 153760, Note_on_c, 11, 48, 85
12, 153760, Note_on_c, 11, 51, 85
12, 153820, Note_on_c, 11, 48, 0
12, 153820, Note_on_c, 11, 51, 0
12, 153840, Note_on_c, 11, 51, 85
12, 153900, Note_on_c, 11, 51, 0
12, 153920, Note_on_c, 11, 48, 85
12, 153920, Note_on_c, 11, 51, 85
12, 153980, Note_on_c, 11, 48, 0
12, 153980, Note_on_c, 11, 51, 0
12, 154000, Note_on_c, 11, 51, 85
12, 154060, Note_on_c, 11, 51, 0
12, 154080, Note_on_c, 11, 48, 85
12, 154080, Note_on_c, 11, 51, 85
12, 154140, Note_on_c, 11, 48, 0
12, 154140, Note_on_c, 11, 51, 0
12, 154160, Note_on_c, 11, 48, 85
12, 154160, Note_on_c, 11, 51, 85
12, 154220, Note_on_c, 11, 48, 0
12, 154220, Note_on_c, 11, 51, 0
12, 154240, Note_on_c, 11, 48, 85
12, 154240, Note_on_c, 11, 51, 85
12, 154300, Note_on_c, 11, 48, 0
12, 154300, Note_on_c, 11, 51, 0
12, 154320, Note_on_c, 11, 51, 85
12, 154380, Note_on_c, 11, 51, 0
12, 154400, Note_on_c, 11, 48, 85
12, 154400, Note_on_c, 11, 51, 85
12, 154460, Note_on_c, 11, 48, 0
12, 154460, Note_on_c, 11, 51, 0
12, 154480, Note_on_c, 11, 51, 85
12, 154540, Note_on_c, 11, 51, 0
12, 154560, Note_on_c, 11, 48, 85
12, 154560, Note_on_c, 11, 51, 85
12, 154620, Note_on_c, 11, 48, 0
12, 154620, Note_on_c, 11, 51, 0
12, 154640, Note_on_c, 11, 48, 85
12, 154640, Note_on_c, 11, 51, 85
12, 154700, Note_on_c, 11, 48, 0
12, 154700, Note_on_c, 11, 51, 0
12, 154720, Note_on_c, 11, 48, 85
12, 154720, Note_on_c, 11, 51, 85
12, 154780, Note_on_c, 11, 48, 0
12, 154780, Note_on_c, 11, 51, 0
12, 154800, Note_on_c, 11, 51, 85
12, 154860, Note_on_c, 11, 51, 0
12, 154880, Note_on_c, 11, 48, 85
12, 154880, Note_on_c, 11, 51, 85
12, 154940, Note_on_c, 11, 48, 0
12, 154940, Note_on_c, 11, 51, 0
12, 154960, Note_on_c, 11, 51, 85
12, 155020, Note_on_c, 11, 51, 0
12, 155040, Note_on_c, 11, 48, 85
12, 155040, Note_on_c, 11, 51, 85
12, 155100, Note_on_c, 11, 48, 0
12, 155100, Note_on_c, 11, 51, 0
12, 155120, Note_on_c, 11, 48, 85
12, 155120, Note_on_c, 11, 51, 85
12, 155180, Note_on_c, 11, 48, 0
12, 155180, Note_on_c, 11, 51, 0
12, 155200, Note_on_c, 11, 48, 85
12, 155200, Note_on_c, 11, 51, 85
12, 155260, Note_on_c, 11, 48, 0
12, 155260, Note_on_c, 11, 51, 0
12, 155280, Note_on_c, 11, 51, 85
12, 155340, Note_on_c, 11, 51, 0
12, 155360, Note_on_c, 11, 48, 85
12, 155360, Note_on_c, 11, 51, 85
12, 155420, Note_on_c, 11, 48, 0
12, 155420, Note_on_c, 11, 51, 0
12, 155440, Note_on_c, 11, 51, 85
12, 155500, Note_on_c, 11, 51, 0
12, 155520, Note_on_c, 11, 48, 85
12, 155520, Note_on_c, 11, 51, 85
12, 155580, Note_on_c, 11, 48, 0
12, 155580, Note_on_c, 11, 51, 0
12, 155600, Note_on_c, 11, 48, 85
12, 155600, Note_on_c, 11, 51, 85
12, 155660, Note_on_c, 11, 48, 0
12, 155660, Note_on_c, 11, 51, 0
12, 155680, Note_on_c, 11, 48, 85
12, 155680, Note_on_c, 11, 51, 85
12, 155740, Note_on_c, 11, 48, 0
12, 155740, Note_on_c, 11, 51, 0
12, 155760, Note_on_c, 11, 51, 85
12, 155820, Note_on_c, 11, 51, 0
12, 155840, Note_on_c, 11, 48, 85
12, 155840, Note_on_c, 11, 51, 85
12, 155900, Note_on_c, 11, 48, 0
12, 155900, Note_on_c, 11, 51, 0
12, 155920, Note_on_c, 11, 51, 85
12, 155980, Note_on_c, 11, 51, 0
12, 156000, Note_on_c, 11, 48, 85
12, 156000, Note_on_c, 11, 51, 85
12, 156060, Note_on_c, 11, 48, 0
12, 156060, Note_on_c, 11, 51, 0
12, 156080, Note_on_c, 11, 48, 85
12, 156080, Note_on_c, 11, 51, 85
12, 156140, Note_on_c, 11, 48, 0
12, 156140, Note_on_c, 11, 51, 0
12, 156160, Note_on_c, 11, 48, 85
12, 156160, Note_on_c, 11, 51, 85
12, 156220, Note_on_c, 11, 48, 0
12, 156220, Note_on_c, 11, 51, 0
12, 156240, Note_on_c, 11, 51, 85
12, 156300, Note_on_c, 11, 51, 0
12, 156320, Note_on_c, 11, 48, 85
12, 156320, Note_on_c, 11, 51, 85
12, 156380, Note_on_c, 11, 48, 0
12, 156380, Note_on_c, 11, 51, 0
12, 156400, Note_on_c, 11, 51, 85
12, 156460, Note_on_c, 11, 51, 0
12, 156480, Note_on_c, 11, 48, 85
12, 156480, Note_on_c, 11, 51, 85
12, 156540, Note_on_c, 11, 48, 0
12, 156540, Note_on_c, 11, 51, 0
12, 156560, Note_on_c, 11, 48, 85
12, 156560, Note_on_c, 11, 51, 85
12, 156620, Note_on_c, 11, 48, 0
12, 156620, Note_on_c, 11, 51, 0
12, 156640, Note_on_c, 11, 48, 85
12, 156640, Note_on_c, 11, 51, 85
12, 156700, Note_on_c, 11, 48, 0
12, 156700, Note_on_c, 11, 51, 0
12, 156720, Note_on_c, 11, 51, 85
12, 156780, Note_on_c, 11, 51, 0
12, 156800, Note_on_c, 11, 48, 85
12, 156800, Note_on_c, 11, 51, 85
12, 156860, Note_on_c, 11, 48, 0
12, 156860, Note_on_c, 11, 51, 0
12, 156880, Note_on_c, 11, 51, 85
12, 156940, Note_on_c, 11, 51, 0
12, 156960, Note_on_c, 11, 48, 85
12, 156960, Note_on_c, 11, 51, 85
12, 157020, Note_on_c, 11, 48, 0
12, 157020, Note_on_c, 11, 51, 0
12, 157040, Note_on_c, 11, 48, 85
12, 157040, Note_on_c, 11, 51, 85
12, 157100, Note_on_c, 11, 48, 0
12, 157100, Note_on_c, 11, 51, 0
12, 157120, Note_on_c, 11, 48, 85
12, 157120, Note_on_c, 11, 51, 85
12, 157180, Note_on_c, 11, 48, 0
12, 157180, Note_on_c, 11, 51, 0
12, 157200, Note_on_c, 11, 51, 85
12, 157260, Note_on_c, 11, 51, 0
12, 157280, Note_on_c, 11, 48, 85
12, 157280, Note_on_c, 11, 51, 85
12, 157340, Note_on_c, 11, 48, 0
12, 157340, Note_on_c, 11, 51, 0
12, 157360, Note_on_c, 11, 51, 85
12, 157420, Note_on_c, 11, 51, 0
12, 157440, Note_on_c, 11, 48, 85
12, 157440, Note_on_c, 11, 51, 85
12, 157500, Note_on_c, 11, 48, 0
12, 157500, Note_on_c, 11, 51, 0
12, 157520, Note_on_c, 11, 54, 85
12, 157520, Note_on_c, 11, 57, 85
12, 157580, Note_on_c, 11, 54, 0
12, 157580, Note_on_c, 11, 57, 0
12, 157600, Note_on_c, 11, 54, 85
12, 157600, Note_on_c, 11, 57, 85
12, 157660, Note_on_c, 11, 54, 0
12, 157660, Note_on_c, 11, 57, 0
12, 157680, Note_on_c, 11, 54, 85
12, 157680, Note_on_c, 11, 57, 85
12, 157740, Note_on_c, 11, 54, 0
12, 157740, Note_on_c, 11, 57, 0
12, 157760, Note_on_c, 11, 57, 85
12, 157820, Note_on_c, 11, 57, 0
12, 157840, Note_on_c, 11, 54, 85
12, 157900, Note_on_c, 11, 54, 0
12, 157920, Note_on_c, 11, 54, 85
12, 157980, Note_on_c, 11, 54, 0
12, 158000, Note_on_c, 11, 54, 85
12, 158000, Note_on_c, 11, 57, 85
12, 158060, Note_on_c, 11, 54, 0
12, 158060, Note_on_c, 11, 57, 0
12, 158080, Note_on_c, 11, 54, 85
12, 158080, Note_on_c, 11, 57, 85
12, 158140, Note_on_c, 11, 54, 0
12, 158140, Note_on_c, 11, 57, 0
12, 158160, Note_on_c, 11, 54, 85
12, 158160, Note_on_c, 11, 57, 85
12, 158220, Note_on_c, 11, 54, 0
12, 158220, Note_on_c, 11, 57, 0
12, 158240, Note_on_c, 11, 54, 85
12, 158240, Note_on_c, 11, 57, 85
12, 158300, Note_on_c, 11, 54, 0
12, 158300, Note_on_c, 11, 57, 0
12, 158320, Note_on_c, 11, 54, 85
12, 158320, Note_on_c, 11, 57, 85
12, 158380, Note_on_c, 11, 54, 0
12, 158380, Note_on_c, 11, 57, 0
12, 158400, Note_on_c, 11, 54, 85
12, 158400, Note_on_c, 11, 57, 85
12, 158460, Note_on_c, 11, 54, 0
12, 158460, Note_on_c, 11, 57, 0
12, 158480, Note_on_c, 11, 54, 85
12, 158480, Note_on_c, 11, 57, 85
12, 158540, Note_on_c, 11, 54, 0
12, 158540, Note_on_c, 11, 57, 0
12, 158560, Note_on_c, 11, 54, 85
12, 158560, Note_on_c, 11, 57, 85
12, 158620, Note_on_c, 11, 54, 0
12, 158620, Note_on_c, 11, 57, 0
12, 158640, Note_on_c, 11, 54, 85
12, 158640, Note_on_c, 11, 57, 85
12, 158700, Note_on_c, 11, 54, 0
12, 158700, Note_on_c, 11, 57, 0
12, 158720, Note_on_c, 11, 54, 85
12, 158720, Note_on_c, 11, 57, 85
12, 158780, Note_on_c, 11, 54, 0
12, 158780, Note_on_c, 11, 57, 0
12, 158800, Note_on_c, 11, 54, 85
12, 158800, Note_on_c, 11, 57, 85
12, 158860, Note_on_c, 11, 54, 0
12, 158860, Note_on_c, 11, 57, 0
12, 158880, Note_on_c, 11, 54, 85
12, 158880, Note_on_c, 11, 57, 85
12, 158940, Note_on_c, 11, 54, 0
12, 158940, Note_on_c, 11, 57, 0
12, 158960, Note_on_c, 11, 54, 85
12, 158960, Note_on_c, 11, 57, 85
12, 159020, Note_on_c, 11, 54, 0
12, 159020, Note_on_c, 11, 57, 0
12, 159040, Note_on_c, 11, 54, 85
12, 159040, Note_on_c, 11, 57, 85
12, 159100, Note_on_c, 11, 54, 0
12, 159100, Note_on_c, 11, 57, 0
12, 159120, Note_on_c, 11, 54, 85
12, 159120, Note_on_c, 11, 57, 85
12, 159180, Note_on_c, 11, 54, 0
12, 159180, Note_on_c, 11, 57, 0
12, 159200, Note_on_c, 11, 54, 85
12, 159200, Note_on_c, 11, 57, 85
12, 159260, Note_on_c, 11, 54, 0
12, 159260, Note_on_c, 11, 57, 0
12, 159280, Note_on_c, 11, 54, 85
12, 159280, Note_on_c, 11, 57, 85
12, 159340, Note_on_c, 11, 54, 0
12, 159340, Note_on_c, 11, 57, 0
12, 159360, Note_on_c, 11, 53, 85
12, 159360, Note_on_c, 11, 56, 85
12, 159420, Note_on_c, 11, 53, 0
12, 159420, Note_on_c, 11, 56, 0
12, 159440, Note_on_c, 11, 53, 85
12, 159440, Note_on_c, 11, 56, 85
12, 159500, Note_on_c, 11, 53, 0
12, 159500, Note_on_c, 11, 56, 0
12, 159520, Note_on_c, 11, 53, 85
12, 159520, Note_on_c, 11, 56, 85
12, 159580, Note_on_c, 11, 53, 0
12, 159580, Note_on_c, 11, 56, 0
12, 159600, Note_on_c, 11, 53, 85
12, 159600, Note_on_c, 11, 56, 85
12, 159660, Note_on_c, 11, 53, 0
12, 159660, Note_on_c, 11, 56, 0
12, 159680, Note_on_c, 11, 56, 85
12, 159740, Note_on_c, 11, 56, 0
12, 159760, Note_on_c, 11, 53, 85
12, 159820, Note_on_c, 11, 53, 0
12, 159840, Note_on_c, 11, 53, 85
12, 159900, Note_on_c, 11, 53, 0
12, 159920, Note_on_c, 11, 53, 85
12, 159920, Note_on_c, 11, 56, 85
12, 159980, Note_on_c, 11, 53, 0
12, 159980, Note_on_c, 11, 56, 0
12, 160000, Note_on_c, 11, 53, 85
12, 160000, Note_on_c, 11, 56, 85
12, 160060, Note_on_c, 11, 53, 0
12, 160060, Note_on_c, 11, 56, 0
12, 160080, Note_on_c, 11, 53, 85
12, 160080, Note_on_c, 11, 56, 85
12, 160140, Note_on_c, 11, 53, 0
12, 160140, Note_on_c, 11, 56, 0
12, 160160, Note_on_c, 11, 53, 85
12, 160160, Note_on_c, 11, 56, 85
12, 160220, Note_on_c, 11, 53, 0
12, 160220, Note_on_c, 11, 56, 0
12, 160240, Note_on_c, 11, 53, 85
12, 160240, Note_on_c, 11, 56, 85
12, 160300, Note_on_c, 11, 53, 0
12, 160300, Note_on_c, 11, 56, 0
12, 160320, Note_on_c, 11, 53, 85
12, 160320, Note_on_c, 11, 56, 85
12, 160380, Note_on_c, 11, 53, 0
12, 160380, Note_on_c, 11, 56, 0
12, 160400, Note_on_c, 11, 53, 85
12, 160400, Note_on_c, 11, 56, 85
12, 160460, Note_on_c, 11, 53, 0
12, 160460, Note_on_c, 11, 56, 0
12, 160480, Note_on_c, 11, 53, 85
12, 160480, Note_on_c, 11, 56, 85
12, 160540, Note_on_c, 11, 53, 0
12, 160540, Note_on_c, 11, 56, 0
12, 160560, Note_on_c, 11, 53, 85
12, 160560, Note_on_c, 11, 56, 85
12, 160620, Note_on_c, 11, 53, 0
12, 160620, Note_on_c, 11, 56, 0
12, 160640, Note_on_c, 11, 53, 85
12, 160640, Note_on_c, 11, 56, 85
12, 160700, Note_on_c, 11, 53, 0
12, 160700, Note_on_c, 11, 56, 0
12, 160720, Note_on_c, 11, 53, 85
12, 160720, Note_on_c, 11, 56, 85
12, 160780, Note_on_c, 11, 53, 0
12, 160780, Note_on_c, 11, 56, 0
12, 160800, Note_on_c, 11, 53, 85
12, 160800, Note_on_c, 11, 56, 85
12, 160860, Note_on_c, 11, 53, 0
12, 160860, Note_on_c, 11, 56, 0
12, 160880, Note_on_c, 11, 53, 85
12, 160880, Note_on_c, 11, 56, 85
12, 160940, Note_on_c, 11, 53, 0
12, 160940, Note_on_c, 11, 56, 0
12, 160960, Note_on_c, 11, 53, 85
12, 160960, Note_on_c, 11, 56, 85
12, 161020, Note_on_c, 11, 53, 0
12, 161020, Note_on_c, 11, 56, 0
12, 161040, Note_on_c, 11, 53, 85
12, 161040, Note_on_c, 11, 56, 85
12, 161100, Note_on_c, 11, 53, 0
12, 161100, Note_on_c, 11, 56, 0
12, 161120, Note_on_c, 11, 53, 85
12, 161120, Note_on_c, 11, 56, 85
12, 161180, Note_on_c, 11, 53, 0
12, 161180, Note_on_c, 11, 56, 0
12, 161200, Note_on_c, 11, 53, 85
12, 161200, Note_on_c, 11, 56, 85
12, 161260, Note_on_c, 11, 53, 0
12, 161260, Note_on_c, 11, 56, 0
12, 161280, Note_on_c, 11, 53, 85
12, 161340, Note_on_c, 11, 53, 0
12, 161360, Note_on_c, 11, 59, 83
12, 161360, Note_on_c, 11, 62, 83
12, 161420, Note_on_c, 11, 59, 0
12, 161420, Note_on_c, 11, 62, 0
12, 161440, Note_on_c, 11, 59, 80
12, 161440, Note_on_c, 11, 62, 80
12, 161500, Note_on_c, 11, 59, 0
12, 161500, Note_on_c, 11, 62, 0
12, 161520, Note_on_c, 11, 59, 77
12, 161520, Note_on_c, 11, 62, 77
12, 161580, Note_on_c, 11, 59, 0
12, 161580, Note_on_c, 11, 62, 0
12, 161600, Note_on_c, 11, 59, 74
12, 161600, Note_on_c, 11, 62, 74
12, 161660, Note_on_c, 11, 59, 0
12, 161660, Note_on_c, 11, 62, 0
12, 161680, Note_on_c, 11, 59, 71
12, 161680, Note_on_c, 11, 62, 71
12, 161740, Note_on_c, 11, 59, 0
12, 161740, Note_on_c, 11, 62, 0
12, 161760, Note_on_c, 11, 59, 68
12, 161760, Note_on_c, 11, 62, 68
12, 161820, Note_on_c, 11, 59, 0
12, 161820, Note_on_c, 11, 62, 0
12, 161840, Note_on_c, 11, 59, 65
12, 161840, Note_on_c, 11, 62, 65
12, 161900, Note_on_c, 11, 59, 0
12, 161900, Note_on_c, 11, 62, 0
12, 161920, Note_on_c, 11, 59, 62
12, 161920, Note_on_c, 11, 62, 62
12, 161980, Note_on_c, 11, 59, 0
12, 161980, Note_on_c, 11, 62, 0
12, 162000, Note_on_c, 11, 59, 59
12, 162000, Note_on_c, 11, 62, 59
12, 162060, Note_on_c, 11, 59, 0
12, 162060, Note_on_c, 11, 62, 0
12, 162080, Note_on_c, 11, 59, 56
12, 162080, Note_on_c, 11, 62, 56
12, 162140, Note_on_c, 11, 59, 0
12, 162140, Note_on_c, 11, 62, 0
12, 162160, Note_on_c, 11, 59, 53
12, 162160, Note_on_c, 11, 62, 53
12, 162220, Note_on_c, 11, 59, 0
12, 162220, Note_on_c, 11, 62, 0
12, 162240, Note_on_c, 11, 59, 50
12, 162240, Note_on_c, 11, 62, 50
12, 162300, Note_on_c, 11, 59, 0
12, 162300, Note_on_c, 11, 62, 0
12, 162320, Note_on_c, 11, 59, 50
12, 162320, Note_on_c, 11, 62, 50
12, 162380, Note_on_c, 11, 59, 0
12, 162380, Note_on_c, 11, 62, 0
12, 162400, Note_on_c, 11, 59, 50
12, 162400, Note_on_c, 11, 62, 50
12, 162460, Note_on_c, 11, 59, 0
12, 162460, Note_on_c, 11, 62, 0
12, 162480, Note_on_c, 11, 59, 50
12, 162480, Note_on_c, 11, 62, 50
12, 162540, Note_on_c, 11, 59, 0
12, 162540, Note_on_c, 11, 62, 0
12, 162560, Note_on_c, 11, 59, 50
12, 162560, Note_on_c, 11, 62, 50
12, 162620, Note_on_c, 11, 59, 0
12, 162620, Note_on_c, 11, 62, 0
12, 162640, Note_on_c, 11, 59, 50
12, 162640, Note_on_c, 11, 62, 50
12, 162700, Note_on_c, 11, 59, 0
12, 162700, Note_on_c, 11, 62, 0
12, 162720, Note_on_c, 11, 59, 50
12, 162720, Note_on_c, 11, 62, 50
12, 162780, Note_on_c, 11, 59, 0
12, 162780, Note_on_c, 11, 62, 0
12, 162800, Note_on_c, 11, 59, 50
12, 162800, Note_on_c, 11, 62, 50
12, 162860, Note_on_c, 11, 59, 0
12, 162860, Note_on_c, 11, 62, 0
12, 162880, Note_on_c, 11, 59, 50
12, 162880, Note_on_c, 11, 62, 50
12, 162940, Note_on_c, 11, 59, 0
12, 162940, Note_on_c, 11, 62, 0
12, 162960, Note_on_c, 11, 59, 50
12, 162960, Note_on_c, 11, 62, 50
12, 163020, Note_on_c, 11, 59, 0
12, 163020, Note_on_c, 11, 62, 0
12, 163040, Note_on_c, 11, 59, 50
12, 163040, Note_on_c, 11, 62, 50
12, 163100, Note_on_c, 11, 59, 0
12, 163100, Note_on_c, 11, 62, 0
12, 163120, Note_on_c, 11, 59, 50
12, 163120, Note_on_c, 11, 62, 50
12, 163180, Note_on_c, 11, 59, 0
12, 163180, Note_on_c, 11, 62, 0
12, 163200, Note_on_c, 11, 59, 50
12, 163200, Note_on_c, 11, 62, 50
12, 163260, Note_on_c, 11, 59, 0
12, 163260, Note_on_c, 11, 62, 0
12, 163280, Note_on_c, 11, 59, 50
12, 163280, Note_on_c, 11, 62, 50
12, 163340, Note_on_c, 11, 59, 0
12, 163340, Note_on_c, 11, 62, 0
12, 163360, Note_on_c, 11, 59, 50
12, 163360, Note_on_c, 11, 62, 50
12, 163420, Note_on_c, 11, 59, 0
12, 163420, Note_on_c, 11, 62, 0
12, 163440, Note_on_c, 11, 59, 50
12, 163440, Note_on_c, 11, 62, 50
12, 163500, Note_on_c, 11, 59, 0
12, 163500, Note_on_c, 11, 62, 0
12, 163520, Note_on_c, 11, 59, 50
12, 163520, Note_on_c, 11, 62, 50
12, 163580, Note_on_c, 11, 59, 0
12, 163580, Note_on_c, 11, 62, 0
12, 163600, Note_on_c, 11, 59, 50
12, 163600, Note_on_c, 11, 62, 50
12, 163660, Note_on_c, 11, 59, 0
12, 163660, Note_on_c, 11, 62, 0
12, 163680, Note_on_c, 11, 59, 50
12, 163680, Note_on_c, 11, 62, 50
12, 163740, Note_on_c, 11, 59, 0
12, 163740, Note_on_c, 11, 62, 0
12, 163760, Note_on_c, 11, 59, 50
12, 163760, Note_on_c, 11, 62, 50
12, 163820, Note_on_c, 11, 59, 0
12, 163820, Note_on_c, 11, 62, 0
12, 163840, Note_on_c, 11, 59, 50
12, 163840, Note_on_c, 11, 62, 50
12, 163900, Note_on_c, 11, 59, 0
12, 163900, Note_on_c, 11, 62, 0
12, 163920, Note_on_c, 11, 59, 50
12, 163920, Note_on_c, 11, 62, 50
12, 163980, Note_on_c, 11, 59, 0
12, 163980, Note_on_c, 11, 62, 0
12, 164000, Note_on_c, 11, 59, 50
12, 164000, Note_on_c, 11, 62, 50
12, 164060, Note_on_c, 11, 59, 0
12, 164060, Note_on_c, 11, 62, 0
12, 164080, Note_on_c, 11, 59, 50
12, 164080, Note_on_c, 11, 62, 50
12, 164140, Note_on_c, 11, 59, 0
12, 164140, Note_on_c, 11, 62, 0
12, 164160, Note_on_c, 11, 59, 50
12, 164160, Note_on_c, 11, 62, 50
12, 164220, Note_on_c, 11, 59, 0
12, 164220, Note_on_c, 11, 62, 0
12, 164240, Note_on_c, 11, 59, 50
12, 164240, Note_on_c, 11, 62, 50
12, 164300, Note_on_c, 11, 59, 0
12, 164300, Note_on_c, 11, 62, 0
12, 164320, Note_on_c, 11, 59, 50
12, 164320, Note_on_c, 11, 62, 50
12, 164380, Note_on_c, 11, 59, 0
12, 164380, Note_on_c, 11, 62, 0
12, 164400, Note_on_c, 11, 59, 50
12, 164400, Note_on_c, 11, 62, 50
12, 164460, Note_on_c, 11, 59, 0
12, 164460, Note_on_c, 11, 62, 0
12, 164480, Note_on_c, 11, 59, 50
12, 164480, Note_on_c, 11, 62, 50
12, 164540, Note_on_c, 11, 59, 0
12, 164540, Note_on_c, 11, 62, 0
12, 164560, Note_on_c, 11, 59, 50
12, 164560, Note_on_c, 11, 62, 50
12, 164620, Note_on_c, 11, 59, 0
12, 164620, Note_on_c, 11, 62, 0
12, 164640, Note_on_c, 11, 59, 50
12, 164640, Note_on_c, 11, 62, 50
12, 164700, Note_on_c, 11, 59, 0
12, 164700, Note_on_c, 11, 62, 0
12, 164720, Note_on_c, 11, 59, 50
12, 164720, Note_on_c, 11, 62, 50
12, 164780, Note_on_c, 11, 59, 0
12, 164780, Note_on_c, 11, 62, 0
12, 164800, Note_on_c, 11, 59, 50
12, 164800, Note_on_c, 11, 62, 50
12, 164860, Note_on_c, 11, 59, 0
12, 164860, Note_on_c, 11, 62, 0
12, 164880, Note_on_c, 11, 59, 50
12, 164880, Note_on_c, 11, 62, 50
12, 164940, Note_on_c, 11, 59, 0
12, 164940, Note_on_c, 11, 62, 0
12, 164960, Note_on_c, 11, 59, 50
12, 164960, Note_on_c, 11, 62, 50
12, 165020, Note_on_c, 11, 59, 0
12, 165020, Note_on_c, 11, 62, 0
12, 165040, Note_on_c, 11, 59, 50
12, 165040, Note_on_c, 11, 62, 50
12, 165100, Note_on_c, 11, 59, 0
12, 165100, Note_on_c, 11, 62, 0
12, 165120, Note_on_c, 11, 59, 50
12, 165120, Note_on_c, 11, 62, 50
12, 165180, Note_on_c, 11, 59, 0
12, 165180, Note_on_c, 11, 62, 0
12, 165200, Note_on_c, 11, 59, 50
12, 165200, Note_on_c, 11, 62, 50
12, 165260, Note_on_c, 11, 59, 0
12, 165260, Note_on_c, 11, 62, 0
12, 165280, Note_on_c, 11, 59, 50
12, 165280, Note_on_c, 11, 62, 50
12, 165340, Note_on_c, 11, 59, 0
12, 165340, Note_on_c, 11, 62, 0
12, 165360, Note_on_c, 11, 59, 50
12, 165360, Note_on_c, 11, 62, 50
12, 165420, Note_on_c, 11, 59, 0
12, 165420, Note_on_c, 11, 62, 0
12, 165440, Note_on_c, 11, 59, 50
12, 165440, Note_on_c, 11, 62, 50
12, 165500, Note_on_c, 11, 59, 0
12, 165500, Note_on_c, 11, 62, 0
12, 165520, Note_on_c, 11, 59, 50
12, 165520, Note_on_c, 11, 62, 50
12, 165580, Note_on_c, 11, 59, 0
12, 165580, Note_on_c, 11, 62, 0
12, 165600, Note_on_c, 11, 59, 50
12, 165600, Note_on_c, 11, 62, 50
12, 165660, Note_on_c, 11, 59, 0
12, 165660, Note_on_c, 11, 62, 0
12, 165680, Note_on_c, 11, 59, 50
12, 165680, Note_on_c, 11, 62, 50
12, 165740, Note_on_c, 11, 59, 0
12, 165740, Note_on_c, 11, 62, 0
12, 165760, Note_on_c, 11, 59, 50
12, 165760, Note_on_c, 11, 62, 50
12, 165820, Note_on_c, 11, 59, 0
12, 165820, Note_on_c, 11, 62, 0
12, 165840, Note_on_c, 11, 59, 50
12, 165840, Note_on_c, 11, 62, 50
12, 165900, Note_on_c, 11, 59, 0
12, 165900, Note_on_c, 11, 62, 0
12, 165920, Note_on_c, 11, 59, 50
12, 165920, Note_on_c, 11, 62, 50
12, 165980, Note_on_c, 11, 59, 0
12, 165980, Note_on_c, 11, 62, 0
12, 166000, Note_on_c, 11, 59, 50
12, 166000, Note_on_c, 11, 62, 50
12, 166060, Note_on_c, 11, 59, 0
12, 166060, Note_on_c, 11, 62, 0
12, 166080, Note_on_c, 11, 60, 50
12, 166140, Note_on_c, 11, 60, 0
12, 166160, Note_on_c, 11, 60, 50
12, 166220, Note_on_c, 11, 60, 0
12, 166240, Note_on_c, 11, 60, 50
12, 166300, Note_on_c, 11, 60, 0
12, 166320, Note_on_c, 11, 60, 50
12, 166380, Note_on_c, 11, 60, 0
12, 166400, Note_on_c, 11, 60, 50
12, 166460, Note_on_c, 11, 60, 0
12, 166480, Note_on_c, 11, 60, 50
12, 166540, Note_on_c, 11, 60, 0
12, 166560, Note_on_c, 11, 60, 50
12, 166620, Note_on_c, 11, 60, 0
12, 166640, Note_on_c, 11, 60, 50
12, 166700, Note_on_c, 11, 60, 0
12, 166720, Note_on_c, 11, 60, 50
12, 166780, Note_on_c, 11, 60, 0
12, 166800, Note_on_c, 11, 60, 50
12, 166860, Note_on_c, 11, 60, 0
12, 166880, Note_on_c, 11, 60, 50
12, 166940, Note_on_c, 11, 60, 0
12, 166960, Note_on_c, 11, 60, 50
12, 167020, Note_on_c, 11, 60, 0
12, 167040, Note_on_c, 11, 60, 50
12, 167100, Note_on_c, 11, 60, 0
12, 167120, Note_on_c, 11, 60, 50
12, 167180, Note_on_c, 11, 60, 0
12, 167200, Note_on_c, 11, 60, 50
12, 167260, Note_on_c, 11, 60, 0
12, 167280, Note_on_c, 11, 60, 50
12, 167340, Note_on_c, 11, 60, 0
12, 167360, Note_on_c, 11, 60, 50
12, 167420, Note_on_c, 11, 60, 0
12, 167440, Note_on_c, 11, 60, 50
12, 167500, Note_on_c, 11, 60, 0
12, 167520, Note_on_c, 11, 60, 50
12, 167580, Note_on_c, 11, 60, 0
12, 167600, Note_on_c, 11, 60, 50
12, 167660, Note_on_c, 11, 60, 0
12, 167680, Note_on_c, 11, 60, 50
12, 167740, Note_on_c, 11, 60, 0
12, 167760, Note_on_c, 11, 60, 50
12, 167820, Note_on_c, 11, 60, 0
12, 167840, Note_on_c, 11, 60, 50
12, 167900, Note_on_c, 11, 60, 0
12, 167920, Note_on_c, 11, 60, 50
12, 167980, Note_on_c, 11, 60, 0
12, 168000, Note_on_c, 11, 60, 50
12, 168060, Note_on_c, 11, 60, 0
12, 168080, Note_on_c, 11, 60, 50
12, 168140, Note_on_c, 11, 60, 0
12, 168160, Note_on_c, 11, 60, 50
12, 168220, Note_on_c, 11, 60, 0
12, 168240, Note_on_c, 11, 60, 50
12, 168300, Note_on_c, 11, 60, 0
12, 168320, Note_on_c, 11, 60, 50
12, 168380, Note_on_c, 11, 60, 0
12, 168400, Note_on_c, 11, 60, 50
12, 168460, Note_on_c, 11, 60, 0
12, 168480, Note_on_c, 11, 60, 50
12, 168540, Note_on_c, 11, 60, 0
12, 168560, Note_on_c, 11, 60, 50
12, 168620, Note_on_c, 11, 60, 0
12, 168640, Note_on_c, 11, 60, 50
12, 168700, Note_on_c, 11, 60, 0
12, 168720, Note_on_c, 11, 60, 50
12, 168780, Note_on_c, 11, 60, 0
12, 168800, Note_on_c, 11, 60, 50
12, 168860, Note_on_c, 11, 60, 0
12, 168880, Note_on_c, 11, 60, 50
12, 168940, Note_on_c, 11, 60, 0
12, 168960, Note_on_c, 11, 60, 50
12, 169020, Note_on_c, 11, 60, 0
12, 169040, Note_on_c, 11, 60, 50
12, 169100, Note_on_c, 11, 60, 0
12, 169120, Note_on_c, 11, 60, 50
12, 169180, Note_on_c, 11, 60, 0
12, 169200, Note_on_c, 11, 60, 50
12, 169260, Note_on_c, 11, 60, 0
12, 169280, Note_on_c, 11, 60, 50
12, 169340, Note_on_c, 11, 60, 0
12, 169360, Note_on_c, 11, 60, 50
12, 169420, Note_on_c, 11, 60, 0
12, 169440, Note_on_c, 11, 59, 50
12, 169500, Note_on_c, 11, 59, 0
12, 169520, Note_on_c, 11, 59, 50
12, 169580, Note_on_c, 11, 59, 0
12, 169600, Note_on_c, 11, 59, 50
12, 169660, Note_on_c, 11, 59, 0
12, 169680, Note_on_c, 11, 59, 50
12, 169740, Note_on_c, 11, 59, 0
12, 169760, Note_on_c, 11, 59, 50
12, 169820, Note_on_c, 11, 59, 0
12, 169840, Note_on_c, 11, 59, 50
12, 169900, Note_on_c, 11, 59, 0
12, 169920, Note_on_c, 11, 53, 50
12, 169920, Note_on_c, 11, 56, 50
12, 169980, Note_on_c, 11, 53, 0
12, 169980, Note_on_c, 11, 56, 0
12, 170000, Note_on_c, 11, 53, 50
12, 170000, Note_on_c, 11, 56, 50
12, 170060, Note_on_c, 11, 53, 0
12, 170060, Note_on_c, 11, 56, 0
12, 170080, Note_on_c, 11, 53, 50
12, 170080, Note_on_c, 11, 56, 50
12, 170140, Note_on_c, 11, 53, 0
12, 170140, Note_on_c, 11, 56, 0
12, 170160, Note_on_c, 11, 53, 50
12, 170160, Note_on_c, 11, 56, 50
12, 170220, Note_on_c, 11, 53, 0
12, 170220, Note_on_c, 11, 56, 0
12, 170240, Note_on_c, 11, 53, 50
12, 170240, Note_on_c, 11, 56, 50
12, 170300, Note_on_c, 11, 53, 0
12, 170300, Note_on_c, 11, 56, 0
12, 170320, Note_on_c, 11, 53, 50
12, 170320, Note_on_c, 11, 56, 50
12, 170380, Note_on_c, 11, 53, 0
12, 170380, Note_on_c, 11, 56, 0
12, 170400, Note_on_c, 11, 53, 50
12, 170400, Note_on_c, 11, 56, 50
12, 170460, Note_on_c, 11, 53, 0
12, 170460, Note_on_c, 11, 56, 0
12, 170480, Note_on_c, 11, 53, 50
12, 170480, Note_on_c, 11, 56, 50
12, 170540, Note_on_c, 11, 53, 0
12, 170540, Note_on_c, 11, 56, 0
12, 170560, Note_on_c, 11, 53, 50
12, 170560, Note_on_c, 11, 56, 50
12, 170620, Note_on_c, 11, 53, 0
12, 170620, Note_on_c, 11, 56, 0
12, 170640, Note_on_c, 11, 53, 50
12, 170640, Note_on_c, 11, 56, 50
12, 170700, Note_on_c, 11, 53, 0
12, 170700, Note_on_c, 11, 56, 0
12, 170720, Note_on_c, 11, 53, 50
12, 170720, Note_on_c, 11, 56, 50
12, 170780, Note_on_c, 11, 53, 0
12, 170780, Note_on_c, 11, 56, 0
12, 170800, Note_on_c, 11, 53, 50
12, 170800, Note_on_c, 11, 56, 50
12, 170860, Note_on_c, 11, 53, 0
12, 170860, Note_on_c, 11, 56, 0
12, 170880, Note_on_c, 11, 53, 50
12, 170880, Note_on_c, 11, 56, 50
12, 170880, Control_c, 11, 11, 80
12, 170910, Control_c, 11, 11, 81
12, 170930, Control_c, 11, 11, 82
12, 170940, Note_on_c, 11, 53, 0
12, 170940, Note_on_c, 11, 56, 0
12, 170950, Control_c, 11, 11, 83
12, 170960, Note_on_c, 11, 62, 50
12, 170970, Control_c, 11, 11, 84
12, 170990, Control_c, 11, 11, 85
12, 171010, Control_c, 11, 11, 86
12, 171020, Note_on_c, 11, 62, 0
12, 171030, Control_c, 11, 11, 87
12, 171040, Note_on_c, 11, 62, 50
12, 171050, Control_c, 11, 11, 88
12, 171070, Control_c, 11, 11, 89
12, 171090, Control_c, 11, 11, 90
12, 171100, Note_on_c, 11, 62, 0
12, 171110, Control_c, 11, 11, 91
12, 171120, Note_on_c, 11, 62, 50
12, 171130, Control_c, 11, 11, 92
12, 171150, Control_c, 11, 11, 93
12, 171170, Control_c, 11, 11, 94
12, 171180, Note_on_c, 11, 62, 0
12, 171190, Control_c, 11, 11, 95
12, 171200, Note_on_c, 11, 62, 50
12, 171210, Control_c, 11, 11, 96
12, 171230, Control_c, 11, 11, 97
12, 171250, Control_c, 11, 11, 98
12, 171260, Note_on_c, 11, 62, 0
12, 171270, Control_c, 11, 11, 99
12, 171280, Note_on_c, 11, 62, 50
12, 171290, Control_c, 11, 11, 100
12, 171310, Control_c, 11, 11, 101
12, 171330, Control_c, 11, 11, 102
12, 171340, Note_on_c, 11, 62, 0
12, 171350, Control_c, 11, 11, 103
12, 171360, Note_on_c, 11, 62, 50
12, 171380, Control_c, 11, 11, 104
12, 171400, Control_c, 11, 11, 105
12, 171420, Note_on_c, 11, 62, 0
12, 171420, Control_c, 11, 11, 106
12, 171440, Note_on_c, 11, 62, 50
12, 171440, Control_c, 11, 11, 107
12, 171460, Control_c, 11, 11, 108
12, 171480, Control_c, 11, 11, 109
12, 171500, Note_on_c, 11, 62, 0
12, 171500, Control_c, 11, 11, 110
12, 171520, Note_on_c, 11, 62, 50
12, 171520, Control_c, 11, 11, 111
12, 171540, Control_c, 11, 11, 112
12, 171560, Control_c, 11, 11, 113
12, 171580, Note_on_c, 11, 62, 0
12, 171580, Control_c, 11, 11, 114
12, 171600, Note_on_c, 11, 62, 50
12, 171600, Control_c, 11, 11, 115
12, 171620, Control_c, 11, 11, 116
12, 171640, Control_c, 11, 11, 117
12, 171660, Note_on_c, 11, 62, 0
12, 171660, Control_c, 11, 11, 118
12, 171680, Note_on_c, 11, 62, 50
12, 171680, Control_c, 11, 11, 119
12, 171700, Control_c, 11, 11, 120
12, 171720, Control_c, 11, 11, 121
12, 171740, Note_on_c, 11, 62, 0
12, 171740, Control_c, 11, 11, 122
12, 171760, Note_on_c, 11, 62, 50
12, 171760, Control_c, 11, 11, 123
12, 171780, Control_c, 11, 11, 124
12, 171800, Control_c, 11, 11, 125
12, 171820, Note_on_c, 11, 62, 0
12, 171820, Control_c, 11, 11, 126
12, 171840, Note_on_c, 11, 62, 50
12, 171840, Control_c, 11, 11, 127
12, 171860, Control_c, 11, 11, 126
12, 171880, Control_c, 11, 11, 125
12, 171900, Note_on_c, 11, 62, 0
12, 171900, Control_c, 11, 11, 124
12, 171920, Note_on_c, 11, 62, 50
12, 171920, Control_c, 11, 11, 123
12, 171940, Control_c, 11, 11, 122
12, 171960, Control_c, 11, 11, 121
12, 171980, Note_on_c, 11, 62, 0
12, 171980, Control_c, 11, 11, 120
12, 172000, Note_on_c, 11, 62, 50
12, 172000, Control_c, 11, 11, 119
12, 172020, Control_c, 11, 11, 118
12, 172040, Control_c, 11, 11, 117
12, 172060, Note_on_c, 11, 62, 0
12, 172060, Control_c, 11, 11, 116
12, 172080, Control_c, 11, 11, 115
12, 172100, Control_c, 11, 11, 114
12, 172120, Control_c, 11, 11, 113
12, 172140, Control_c, 11, 11, 112
12, 172160, Note_on_c, 11, 58, 50
12, 172160, Control_c, 11, 11, 111
12, 172180, Control_c, 11, 11, 110
12, 172200, Control_c, 11, 11, 109
12, 172220, Note_on_c, 11, 58, 0
12, 172220, Control_c, 11, 11, 108
12, 172240, Note_on_c, 11, 58, 50
12, 172240, Control_c, 11, 11, 107
12, 172260, Control_c, 11, 11, 106
12, 172280, Control_c, 11, 11, 105
12, 172300, Note_on_c, 11, 58, 0
12, 172300, Control_c, 11, 11, 104
12, 172320, Control_c, 11, 11, 103
12, 172340, Control_c, 11, 11, 102
12, 172360, Control_c, 11, 11, 101
12, 172380, Control_c, 11, 11, 100
12, 172400, Note_on_c, 11, 58, 50
12, 172400, Control_c, 11, 11, 99
12, 172420, Control_c, 11, 11, 98
12, 172440, Control_c, 11, 11, 97
12, 172460, Note_on_c, 11, 58, 0
12, 172460, Control_c, 11, 11, 96
12, 172480, Note_on_c, 11, 58, 50
12, 172480, Control_c, 11, 11, 95
12, 172500, Control_c, 11, 11, 94
12, 172520, Control_c, 11, 11, 93
12, 172540, Note_on_c, 11, 58, 0
12, 172540, Control_c, 11, 11, 92
12, 172560, Control_c, 11, 11, 91
12, 172580, Control_c, 11, 11, 90
12, 172600, Control_c, 11, 11, 89
12, 172620, Control_c, 11, 11, 88
12, 172640, Note_on_c, 11, 58, 50
12, 172640, Control_c, 11, 11, 87
12, 172660, Control_c, 11, 11, 86
12, 172680, Control_c, 11, 11, 85
12, 172700, Note_on_c, 11, 58, 0
12, 172700, Control_c, 11, 11, 84
12, 172720, Note_on_c, 11, 58, 50
12, 172720, Control_c, 11, 11, 83
12, 172740, Control_c, 11, 11, 82
12, 172760, Control_c, 11, 11, 81
12, 172780, Note_on_c, 11, 58, 0
12, 172780, Control_c, 11, 11, 80
12, 172880, Note_on_c, 11, 58, 50
12, 172940, Note_on_c, 11, 58, 0
12, 172960, Note_on_c, 11, 58, 50
12, 173020, Note_on_c, 11, 58, 0
12, 173120, Note_on_c, 11, 60, 50
12, 173180, Note_on_c, 11, 60, 0
12, 173200, Note_on_c, 11, 60, 50
12, 173260, Note_on_c, 11, 60, 0
12, 173280, Note_on_c, 11, 58, 50
12, 173340, Note_on_c, 11, 58, 0
12, 173360, Note_on_c, 11, 60, 50
12, 173420, Note_on_c, 11, 60, 0
12, 173440, Note_on_c, 11, 58, 50
12, 173500, Note_on_c, 11, 58, 0
12, 173520, Note_on_c, 11, 56, 50
12, 173580, Note_on_c, 11, 56, 0
12, 173600, Note_on_c, 11, 55, 50
12, 173660, Note_on_c, 11, 55, 0
12, 173680, Note_on_c, 11, 53, 50
12, 173740, Note_on_c, 11, 53, 0
12, 174720, Note_on_c, 11, 53, 50
12, 174960, Control_c, 11, 11, 81
12, 174980, Control_c, 11, 11, 82
12, 175010, Control_c, 11, 11, 83
12, 175030, Control_c, 11, 11, 84
12, 175060, Control_c, 11, 11, 85
12, 175080, Control_c, 11, 11, 86
12, 175110, Control_c, 11, 11, 87
12, 175130, Control_c, 11, 11, 88
12, 175160, Control_c, 11, 11, 89
12, 175180, Control_c, 11, 11, 90
12, 175210, Control_c, 11, 11, 91
12, 175230, Control_c, 11, 11, 92
12, 175260, Control_c, 11, 11, 93
12, 175280, Control_c, 11, 11, 94
12, 175310, Control_c, 11, 11, 95
12, 175330, Control_c, 11, 11, 96
12, 175360, Control_c, 11, 11, 97
12, 175380, Control_c, 11, 11, 98
12, 175410, Control_c, 11, 11, 99
12, 175430, Control_c, 11, 11, 100
12, 175460, Control_c, 11, 11, 101
12, 175480, Control_c, 11, 11, 102
12, 175510, Control_c, 11, 11, 103
12, 175530, Control_c, 11, 11, 104
12, 175560, Control_c, 11, 11, 105
12, 175580, Control_c, 11, 11, 106
12, 175610, Control_c, 11, 11, 107
12, 175630, Control_c, 11, 11, 108
12, 175650, Note_on_c, 11, 53, 0
12, 175660, Control_c, 11, 11, 109
12, 175680, Note_on_c, 11, 56, 50
12, 175680, Control_c, 11, 11, 110
12, 175730, Control_c, 11, 11, 109
12, 175780, Control_c, 11, 11, 108
12, 175820, Control_c, 11, 11, 107
12, 175870, Control_c, 11, 11, 106
12, 175910, Control_c, 11, 11, 105
12, 175960, Control_c, 11, 11, 104
12, 176000, Control_c, 11, 11, 103
12, 176050, Control_c, 11, 11, 102
12, 176100, Control_c, 11, 11, 101
12, 176140, Control_c, 11, 11, 100
12, 176160, Note_on_c, 11, 58, 50
12, 176190, Note_on_c, 11, 56, 0
12, 176190, Control_c, 11, 11, 99
12, 176230, Control_c, 11, 11, 98
12, 176280, Control_c, 11, 11, 97
12, 176320, Control_c, 11, 11, 96
12, 176370, Control_c, 11, 11, 95
12, 176400, Note_on_c, 11, 53, 50
12, 176420, Control_c, 11, 11, 94
12, 176430, Note_on_c, 11, 58, 0
12, 176460, Control_c, 11, 11, 93
12, 176510, Control_c, 11, 11, 92
12, 176550, Control_c, 11, 11, 91
12, 176600, Control_c, 11, 11, 90
12, 176610, Note_on_c, 11, 53, 0
12, 176640, Note_on_c, 11, 55, 50
12, 176880, Note_on_c, 11, 55, 0
12, 177060, Note_on_c, 11, 60, 80
12, 177090, Note_on_c, 11, 60, 0
12, 177120, Note_on_c, 11, 60, 80
12, 177600, Note_on_c, 11, 60, 0
12, 177600, Control_c, 11, 11, 80
12, 178080, Note_on_c, 11, 48, 50
12, 178080, Note_on_c, 11, 60, 50
12, 178290, Note_on_c, 11, 48, 0
12, 178290, Note_on_c, 11, 60, 0
12, 178320, Note_on_c, 11, 48, 50
12, 178320, Note_on_c, 11, 60, 50
12, 178530, Note_on_c, 11, 48, 0
12, 178530, Note_on_c, 11, 60, 0
12, 178560, Note_on_c, 11, 60, 50
12, 178770, Note_on_c, 11, 60, 0
12, 178800, Note_on_c, 11, 48, 50
12, 179040, Note_on_c, 11, 51, 50
12, 179040, Control_c, 11, 11, 80
12, 179050, Control_c, 11, 11, 83
12, 179060, Control_c, 11, 11, 87
12, 179070, Note_on_c, 11, 48, 0
12, 179070, Control_c, 11, 11, 91
12, 179080, Control_c, 11, 11, 95
12, 179090, Control_c, 11, 11, 99
12, 179100, Control_c, 11, 11, 103
12, 179110, Control_c, 11, 11, 107
12, 179120, Control_c, 11, 11, 111
12, 179140, Control_c, 11, 11, 115
12, 179160, Control_c, 11, 11, 114
12, 179170, Control_c, 11, 11, 113
12, 179180, Control_c, 11, 11, 112
12, 179190, Control_c, 11, 11, 111
12, 179200, Control_c, 11, 11, 110
12, 179210, Control_c, 11, 11, 109
12, 179220, Control_c, 11, 11, 108
12, 179230, Control_c, 11, 11, 107
12, 179240, Control_c, 11, 11, 106
12, 179250, Control_c, 11, 11, 105
12, 179260, Control_c, 11, 11, 104
12, 179270, Control_c, 11, 11, 103
12, 179280, Note_on_c, 11, 48, 50
12, 179280, Control_c, 11, 11, 102
12, 179290, Control_c, 11, 11, 101
12, 179300, Control_c, 11, 11, 100
12, 179310, Note_on_c, 11, 51, 0
12, 179310, Control_c, 11, 11, 99
12, 179320, Control_c, 11, 11, 98
12, 179330, Control_c, 11, 11, 97
12, 179340, Control_c, 11, 11, 96
12, 179350, Control_c, 11, 11, 95
12, 179360, Control_c, 11, 11, 94
12, 179370, Control_c, 11, 11, 93
12, 179380, Control_c, 11, 11, 92
12, 179390, Control_c, 11, 11, 91
12, 179400, Control_c, 11, 11, 90
12, 179410, Control_c, 11, 11, 89
12, 179420, Control_c, 11, 11, 88
12, 179430, Control_c, 11, 11, 87
12, 179440, Control_c, 11, 11, 86
12, 179450, Control_c, 11, 11, 85
12, 179460, Control_c, 11, 11, 84
12, 179470, Control_c, 11, 11, 83
12, 179480, Control_c, 11, 11, 82
12, 179490, Note_on_c, 11, 48, 0
12, 179490, Control_c, 11, 11, 81
12, 179500, Control_c, 11, 11, 80
12, 179520, Note_on_c, 11, 50, 50
12, 179580, Note_on_c, 11, 50, 0
12, 179600, Note_on_c, 11, 55, 50
12, 179660, Note_on_c, 11, 55, 0
12, 179680, Note_on_c, 11, 55, 50
12, 179740, Note_on_c, 11, 55, 0
12, 179760, Note_on_c, 11, 55, 50
12, 179820, Note_on_c, 11, 55, 0
12, 179840, Note_on_c, 11, 55, 50
12, 179900, Note_on_c, 11, 55, 0
12, 179920, Note_on_c, 11, 55, 50
12, 179980, Note_on_c, 11, 55, 0
12, 180080, Note_on_c, 11, 55, 50
12, 180140, Note_on_c, 11, 55, 0
12, 180160, Note_on_c, 11, 55, 50
12, 180220, Note_on_c, 11, 55, 0
12, 180320, Note_on_c, 11, 55, 50
12, 180380, Note_on_c, 11, 55, 0
12, 180400, Note_on_c, 11, 55, 50
12, 180460, Note_on_c, 11, 55, 0
12, 180480, Note_on_c, 11, 55, 50
12, 180540, Note_on_c, 11, 55, 0
12, 180560, Note_on_c, 11, 55, 50
12, 180620, Note_on_c, 11, 55, 0
12, 180640, Note_on_c, 11, 55, 50
12, 180700, Note_on_c, 11, 55, 0
12, 180720, Note_on_c, 11, 55, 50
12, 180780, Note_on_c, 11, 55, 0
12, 180800, Note_on_c, 11, 55, 50
12, 180860, Note_on_c, 11, 55, 0
12, 180880, Note_on_c, 11, 55, 50
12, 180940, Note_on_c, 11, 55, 0
12, 181040, Note_on_c, 11, 55, 50
12, 181100, Note_on_c, 11, 55, 0
12, 181120, Note_on_c, 11, 55, 50
12, 181180, Note_on_c, 11, 55, 0
12, 181280, Note_on_c, 11, 55, 50
12, 181340, Note_on_c, 11, 55, 0
12, 181360, Note_on_c, 11, 55, 50
12, 181420, Note_on_c, 11, 55, 0
12, 181440, Note_on_c, 11, 55, 50
12, 181440, Control_c, 11, 11, 80
12, 181470, Control_c, 11, 11, 81
12, 181500, Note_on_c, 11, 55, 0
12, 181500, Control_c, 11, 11, 82
12, 181520, Note_on_c, 11, 55, 50
12, 181530, Control_c, 11, 11, 83
12, 181550, Control_c, 11, 11, 84
12, 181580, Note_on_c, 11, 55, 0
12, 181580, Control_c, 11, 11, 85
12, 181600, Note_on_c, 11, 55, 50
12, 181610, Control_c, 11, 11, 86
12, 181640, Control_c, 11, 11, 87
12, 181660, Note_on_c, 11, 55, 0
12, 181660, Control_c, 11, 11, 88
12, 181680, Note_on_c, 11, 55, 50
12, 181690, Control_c, 11, 11, 89
12, 181720, Control_c, 11, 11, 90
12, 181740, Note_on_c, 11, 55, 0
12, 181750, Control_c, 11, 11, 91
12, 181760, Note_on_c, 11, 55, 50
12, 181770, Control_c, 11, 11, 92
12, 181800, Control_c, 11, 11, 93
12, 181820, Note_on_c, 11, 55, 0
12, 181830, Control_c, 11, 11, 94
12, 181840, Note_on_c, 11, 55, 50
12, 181860, Control_c, 11, 11, 95
12, 181880, Control_c, 11, 11, 96
12, 181900, Note_on_c, 11, 55, 0
12, 181910, Control_c, 11, 11, 97
12, 181940, Control_c, 11, 11, 98
12, 181970, Control_c, 11, 11, 99
12, 181990, Control_c, 11, 11, 100
12, 182000, Note_on_c, 11, 55, 50
12, 182020, Control_c, 11, 11, 101
12, 182050, Control_c, 11, 11, 102
12, 182060, Note_on_c, 11, 55, 0
12, 182080, Note_on_c, 11, 55, 50
12, 182080, Control_c, 11, 11, 103
12, 182100, Control_c, 11, 11, 104
12, 182130, Control_c, 11, 11, 105
12, 182140, Note_on_c, 11, 55, 0
12, 182160, Control_c, 11, 11, 106
12, 182190, Control_c, 11, 11, 107
12, 182210, Control_c, 11, 11, 108
12, 182240, Note_on_c, 11, 55, 50
12, 182240, Control_c, 11, 11, 109
12, 182270, Control_c, 11, 11, 110
12, 182300, Note_on_c, 11, 55, 0
12, 182300, Control_c, 11, 11, 111
12, 182320, Note_on_c, 11, 55, 50
12, 182320, Control_c, 11, 11, 112
12, 182350, Control_c, 11, 11, 113
12, 182380, Note_on_c, 11, 55, 0
12, 182380, Control_c, 11, 11, 114
12, 182400, Note_on_c, 11, 55, 50
12, 182400, Control_c, 11, 11, 115
12, 182430, Control_c, 11, 11, 114
12, 182460, Note_on_c, 11, 55, 0
12, 182460, Control_c, 11, 11, 113
12, 182480, Note_on_c, 11, 55, 50
12, 182480, Control_c, 11, 11, 112
12, 182510, Control_c, 11, 11, 111
12, 182540, Note_on_c, 11, 55, 0
12, 182540, Control_c, 11, 11, 110
12, 182560, Note_on_c, 11, 55, 50
12, 182560, Control_c, 11, 11, 109
12, 182590, Control_c, 11, 11, 108
12, 182620, Note_on_c, 11, 55, 0
12, 182620, Control_c, 11, 11, 107
12, 182640, Note_on_c, 11, 55, 50
12, 182640, Control_c, 11, 11, 106
12, 182670, Control_c, 11, 11, 105
12, 182700, Note_on_c, 11, 55, 0
12, 182700, Control_c, 11, 11, 104
12, 182720, Note_on_c, 11, 55, 50
12, 182720, Control_c, 11, 11, 103
12, 182750, Control_c, 11, 11, 102
12, 182780, Note_on_c, 11, 55, 0
12, 182780, Control_c, 11, 11, 101
12, 182800, Note_on_c, 11, 55, 50
12, 182800, Control_c, 11, 11, 100
12, 182830, Control_c, 11, 11, 99
12, 182860, Note_on_c, 11, 55, 0
12, 182860, Control_c, 11, 11, 98
12, 182880, Control_c, 11, 11, 97
12, 182910, Control_c, 11, 11, 96
12, 182940, Control_c, 11, 11, 95
12, 182960, Note_on_c, 11, 55, 50
12, 182960, Control_c, 11, 11, 94
12, 182990, Control_c, 11, 11, 93
12, 183020, Note_on_c, 11, 55, 0
12, 183020, Control_c, 11, 11, 92
12, 183040, Note_on_c, 11, 55, 50
12, 183040, Control_c, 11, 11, 91
12, 183070, Control_c, 11, 11, 90
12, 183100, Note_on_c, 11, 55, 0
12, 183100, Control_c, 11, 11, 89
12, 183120, Control_c, 11, 11, 88
12, 183150, Control_c, 11, 11, 87
12, 183180, Control_c, 11, 11, 86
12, 183200, Note_on_c, 11, 54, 50
12, 183200, Control_c, 11, 11, 85
12, 183230, Control_c, 11, 11, 84
12, 183260, Note_on_c, 11, 54, 0
12, 183260, Control_c, 11, 11, 83
12, 183280, Note_on_c, 11, 54, 50
12, 183280, Control_c, 11, 11, 82
12, 183310, Control_c, 11, 11, 81
12, 183340, Note_on_c, 11, 54, 0
12, 183340, Control_c, 11, 11, 80
12, 183360, Note_on_c, 11, 55, 50
12, 183600, Note_on_c, 11, 55, 0
12, 186720, Note_on_c, 11, 60, 60
12, 186765, Note_on_c, 11, 60, 0
12, 186780, Note_on_c, 11, 60, 50
12, 186825, Note_on_c, 11, 60, 0
12, 186840, Note_on_c, 11, 60, 50
12, 186885, Note_on_c, 11, 60, 0
12, 186900, Note_on_c, 11, 60, 50
12, 186945, Note_on_c, 11, 60, 0
12, 186960, Note_on_c, 11, 60, 50
12, 187005, Note_on_c, 11, 60, 0
12, 187020, Note_on_c, 11, 60, 50
12, 187065, Note_on_c, 11, 60, 0
12, 187080, Note_on_c, 11, 60, 50
12, 187125, Note_on_c, 11, 60, 0
12, 187140, Note_on_c, 11, 60, 50
12, 187185, Note_on_c, 11, 60, 0
12, 187200, Note_on_c, 11, 60, 50
12, 187245, Note_on_c, 11, 60, 0
12, 187260, Note_on_c, 11, 60, 50
12, 187305, Note_on_c, 11, 60, 0
12, 187320, Note_on_c, 11, 60, 50
12, 187365, Note_on_c, 11, 60, 0
12, 187380, Note_on_c, 11, 60, 50
12, 187425, Note_on_c, 11, 60, 0
12, 187500, Note_on_c, 11, 60, 50
12, 187545, Note_on_c, 11, 60, 0
12, 187560, Note_on_c, 11, 60, 50
12, 187605, Note_on_c, 11, 60, 0
12, 187620, Note_on_c, 11, 60, 50
12, 187665, Note_on_c, 11, 60, 0
12, 187740, Note_on_c, 11, 60, 50
12, 187785, Note_on_c, 11, 60, 0
12, 187800, Note_on_c, 11, 60, 50
12, 187845, Note_on_c, 11, 60, 0
12, 187860, Note_on_c, 11, 60, 50
12, 187905, Note_on_c, 11, 60, 0
12, 187980, Note_on_c, 11, 56, 50
12, 188025, Note_on_c, 11, 56, 0
12, 188040, Note_on_c, 11, 56, 50
12, 188085, Note_on_c, 11, 56, 0
12, 188100, Note_on_c, 11, 56, 50
12, 188145, Note_on_c, 11, 56, 0
12, 188220, Note_on_c, 11, 56, 50
12, 188265, Note_on_c, 11, 56, 0
12, 188280, Note_on_c, 11, 56, 50
12, 188325, Note_on_c, 11, 56, 0
12, 188340, Note_on_c, 11, 56, 50
12, 188385, Note_on_c, 11, 56, 0
12, 188460, Note_on_c, 11, 56, 50
12, 188505, Note_on_c, 11, 56, 0
12, 188520, Note_on_c, 11, 56, 50
12, 188565, Note_on_c, 11, 56, 0
12, 188580, Note_on_c, 11, 56, 50
12, 188625, Note_on_c, 11, 56, 0
12, 188700, Note_on_c, 11, 56, 50
12, 188745, Note_on_c, 11, 56, 0
12, 188760, Note_on_c, 11, 56, 50
12, 188805, Note_on_c, 11, 56, 0
12, 188820, Note_on_c, 11, 56, 50
12, 188865, Note_on_c, 11, 56, 0
12, 188940, Note_on_c, 11, 56, 50
12, 188985, Note_on_c, 11, 56, 0
12, 189000, Note_on_c, 11, 56, 50
12, 189045, Note_on_c, 11, 56, 0
12, 189060, Note_on_c, 11, 56, 50
12, 189105, Note_on_c, 11, 56, 0
12, 189180, Note_on_c, 11, 56, 51
12, 189225, Note_on_c, 11, 56, 0
12, 189240, Note_on_c, 11, 56, 52
12, 189285, Note_on_c, 11, 56, 0
12, 189300, Note_on_c, 11, 56, 53
12, 189345, Note_on_c, 11, 56, 0
12, 189420, Note_on_c, 11, 56, 56
12, 189465, Note_on_c, 11, 56, 0
12, 189480, Note_on_c, 11, 56, 57
12, 189525, Note_on_c, 11, 56, 0
12, 189540, Note_on_c, 11, 56, 58
12, 189585, Note_on_c, 11, 56, 0
12, 189660, Note_on_c, 11, 56, 61
12, 189705, Note_on_c, 11, 56, 0
12, 189720, Note_on_c, 11, 56, 62
12, 189765, Note_on_c, 11, 56, 0
12, 189780, Note_on_c, 11, 56, 63
12, 189825, Note_on_c, 11, 56, 0
12, 189900, Note_on_c, 11, 56, 66
12, 189945, Note_on_c, 11, 56, 0
12, 189960, Note_on_c, 11, 56, 67
12, 190005, Note_on_c, 11, 56, 0
12, 190020, Note_on_c, 11, 56, 68
12, 190065, Note_on_c, 11, 56, 0
12, 190140, Note_on_c, 11, 55, 70
12, 190185, Note_on_c, 11, 55, 0
12, 190200, Note_on_c, 11, 55, 70
12, 190245, Note_on_c, 11, 55, 0
12, 190260, Note_on_c, 11, 55, 70
12, 190305, Note_on_c, 11, 55, 0
12, 190320, Note_on_c, 11, 53, 70
12, 190365, Note_on_c, 11, 53, 0
12, 190380, Note_on_c, 11, 53, 70
12, 190425, Note_on_c, 11, 53, 0
12, 190440, Note_on_c, 11, 53, 70
12, 190485, Note_on_c, 11, 53, 0
12, 190500, Note_on_c, 11, 53, 70
12, 190545, Note_on_c, 11, 53, 0
12, 190560, Note_on_c, 11, 53, 70
12, 190605, Note_on_c, 11, 53, 0
12, 190620, Note_on_c, 11, 53, 70
12, 190665, Note_on_c, 11, 53, 0
12, 190680, Note_on_c, 11, 53, 70
12, 190725, Note_on_c, 11, 53, 0
12, 190740, Note_on_c, 11, 53, 70
12, 190785, Note_on_c, 11, 53, 0
12, 190800, Note_on_c, 11, 51, 50
12, 190845, Note_on_c, 11, 51, 0
12, 190860, Note_on_c, 11, 51, 50
12, 190905, Note_on_c, 11, 51, 0
12, 190920, Note_on_c, 11, 51, 50
12, 190965, Note_on_c, 11, 51, 0
12, 190980, Note_on_c, 11, 51, 50
12, 191025, Note_on_c, 11, 51, 0
12, 191040, Note_on_c, 11, 51, 50
12, 191040, Control_c, 11, 11, 80
12, 191050, Control_c, 11, 11, 81
12, 191060, Control_c, 11, 11, 83
12, 191070, Control_c, 11, 11, 85
12, 191080, Control_c, 11, 11, 87
12, 191085, Note_on_c, 11, 51, 0
12, 191090, Control_c, 11, 11, 89
12, 191100, Note_on_c, 11, 51, 50
12, 191100, Control_c, 11, 11, 91
12, 191110, Control_c, 11, 11, 93
12, 191120, Control_c, 11, 11, 95
12, 191130, Control_c, 11, 11, 97
12, 191140, Control_c, 11, 11, 99
12, 191145, Note_on_c, 11, 51, 0
12, 191150, Control_c, 11, 11, 101
12, 191160, Note_on_c, 11, 51, 50
12, 191160, Control_c, 11, 11, 103
12, 191170, Control_c, 11, 11, 105
12, 191180, Control_c, 11, 11, 107
12, 191190, Control_c, 11, 11, 109
12, 191200, Control_c, 11, 11, 111
12, 191205, Note_on_c, 11, 51, 0
12, 191210, Control_c, 11, 11, 113
12, 191220, Note_on_c, 11, 51, 50
12, 191220, Control_c, 11, 11, 115
12, 191230, Control_c, 11, 11, 117
12, 191240, Control_c, 11, 11, 119
12, 191250, Control_c, 11, 11, 121
12, 191260, Control_c, 11, 11, 123
12, 191265, Note_on_c, 11, 51, 0
12, 191270, Control_c, 11, 11, 125
12, 191280, Note_on_c, 11, 51, 50
12, 191280, Control_c, 11, 11, 127
12, 191290, Control_c, 11, 11, 125
12, 191300, Control_c, 11, 11, 123
12, 191310, Control_c, 11, 11, 121
12, 191320, Control_c, 11, 11, 119
12, 191325, Note_on_c, 11, 51, 0
12, 191330, Control_c, 11, 11, 117
12, 191340, Note_on_c, 11, 51, 50
12, 191340, Control_c, 11, 11, 115
12, 191350, Control_c, 11, 11, 113
12, 191360, Control_c, 11, 11, 111
12, 191370, Control_c, 11, 11, 109
12, 191380, Control_c, 11, 11, 107
12, 191385, Note_on_c, 11, 51, 0
12, 191390, Control_c, 11, 11, 105
12, 191400, Note_on_c, 11, 51, 50
12, 191400, Control_c, 11, 11, 103
12, 191410, Control_c, 11, 11, 101
12, 191420, Control_c, 11, 11, 99
12, 191430, Control_c, 11, 11, 97
12, 191440, Control_c, 11, 11, 95
12, 191445, Note_on_c, 11, 51, 0
12, 191450, Control_c, 11, 11, 93
12, 191460, Note_on_c, 11, 51, 50
12, 191460, Control_c, 11, 11, 91
12, 191470, Control_c, 11, 11, 89
12, 191480, Control_c, 11, 11, 87
12, 191490, Control_c, 11, 11, 84
12, 191500, Control_c, 11, 11, 82
12, 191505, Note_on_c, 11, 51, 0
12, 191510, Control_c, 11, 11, 80
12, 191580, Note_on_c, 11, 50, 50
12, 191625, Note_on_c, 11, 50, 0
12, 191640, Note_on_c, 11, 50, 50
12, 191685, Note_on_c, 11, 50, 0
12, 191700, Note_on_c, 11, 50, 50
12, 191745, Note_on_c, 11, 50, 0
12, 191820, Note_on_c, 11, 55, 50
12, 191865, Note_on_c, 11, 55, 0
12, 191880, Note_on_c, 11, 55, 50
12, 191925, Note_on_c, 11, 55, 0
12, 191940, Note_on_c, 11, 55, 50
12, 191985, Note_on_c, 11, 55, 0
12, 192000, Note_on_c, 11, 48, 50
12, 192045, Note_on_c, 11, 48, 0
12, 192060, Note_on_c, 11, 60, 50
12, 192120, Note_on_c, 11, 63, 50
12, 192135, Note_on_c, 11, 60, 0
12, 192180, Note_on_c, 11, 60, 50
12, 192195, Note_on_c, 11, 63, 0
12, 192240, Note_on_c, 11, 63, 50
12, 192255, Note_on_c, 11, 60, 0
12, 192300, Note_on_c, 11, 60, 50
12, 192315, Note_on_c, 11, 63, 0
12, 192360, Note_on_c, 11, 63, 50
12, 192375, Note_on_c, 11, 60, 0
12, 192420, Note_on_c, 11, 60, 50
12, 192435, Note_on_c, 11, 63, 0
12, 192465, Note_on_c, 11, 60, 0
12, 192540, Note_on_c, 11, 62, 50
12, 192600, Note_on_c, 11, 65, 50
12, 192615, Note_on_c, 11, 62, 0
12, 192660, Note_on_c, 11, 62, 50
12, 192675, Note_on_c, 11, 65, 0
12, 192720, Note_on_c, 11, 65, 50
12, 192735, Note_on_c, 11, 62, 0
12, 192780, Note_on_c, 11, 62, 50
12, 192795, Note_on_c, 11, 65, 0
12, 192840, Note_on_c, 11, 65, 50
12, 192855, Note_on_c, 11, 62, 0
12, 192900, Note_on_c, 11, 62, 50
12, 192915, Note_on_c, 11, 65, 0
12, 192945, Note_on_c, 11, 62, 0
12, 193140, Note_on_c, 11, 60, 50
12, 193185, Note_on_c, 11, 60, 0
12, 193260, Note_on_c, 11, 60, 50
12, 193320, Note_on_c, 11, 63, 50
12, 193335, Note_on_c, 11, 60, 0
12, 193380, Note_on_c, 11, 60, 50
12, 193395, Note_on_c, 11, 63, 0
12, 193425, Note_on_c, 11, 60, 0
12, 193500, Note_on_c, 11, 60, 50
12, 193560, Note_on_c, 11, 63, 50
12, 193575, Note_on_c, 11, 60, 0
12, 193620, Note_on_c, 11, 60, 50
12, 193635, Note_on_c, 11, 63, 0
12, 193665, Note_on_c, 11, 60, 0
12, 193740, Note_on_c, 11, 60, 50
12, 193800, Note_on_c, 11, 63, 50
12, 193815, Note_on_c, 11, 60, 0
12, 193860, Note_on_c, 11, 60, 50
12, 193875, Note_on_c, 11, 63, 0
12, 193905, Note_on_c, 11, 60, 0
12, 193980, Note_on_c, 11, 55, 50
12, 194040, Note_on_c, 11, 62, 50
12, 194055, Note_on_c, 11, 55, 0
12, 194100, Note_on_c, 11, 55, 50
12, 194115, Note_on_c, 11, 62, 0
12, 194145, Note_on_c, 11, 55, 0
12, 194220, Note_on_c, 11, 55, 50
12, 194280, Note_on_c, 11, 62, 50
12, 194295, Note_on_c, 11, 55, 0
12, 194340, Note_on_c, 11, 55, 50
12, 194355, Note_on_c, 11, 62, 0
12, 194385, Note_on_c, 11, 55, 0
12, 194460, Note_on_c, 11, 55, 50
12, 194520, Note_on_c, 11, 60, 50
12, 194535, Note_on_c, 11, 55, 0
12, 194580, Note_on_c, 11, 55, 50
12, 194595, Note_on_c, 11, 60, 0
12, 194625, Note_on_c, 11, 55, 0
12, 194700, Note_on_c, 11, 55, 50
12, 194760, Note_on_c, 11, 60, 50
12, 194775, Note_on_c, 11, 55, 0
12, 194820, Note_on_c, 11, 55, 50
12, 194835, Note_on_c, 11, 60, 0
12, 194865, Note_on_c, 11, 55, 0
12, 195000, Note_on_c, 11, 60, 50
12, 195075, Note_on_c, 11, 60, 0
12, 195240, Note_on_c, 11, 59, 50
12, 195315, Note_on_c, 11, 59, 0
12, 195420, Note_on_c, 11, 55, 50
12, 195480, Note_on_c, 11, 59, 50
12, 195495, Note_on_c, 11, 55, 0
12, 195540, Note_on_c, 11, 55, 50
12, 195555, Note_on_c, 11, 59, 0
12, 195600, Note_on_c, 11, 59, 50
12, 195615, Note_on_c, 11, 55, 0
12, 195660, Note_on_c, 11, 55, 50
12, 195675, Note_on_c, 11, 59, 0
12, 195720, Note_on_c, 11, 59, 50
12, 195735, Note_on_c, 11, 55, 0
12, 195780, Note_on_c, 11, 55, 50
12, 195795, Note_on_c, 11, 59, 0
12, 195825, Note_on_c, 11, 55, 0
12, 195900, Note_on_c, 11, 56, 65
12, 195960, Note_on_c, 11, 60, 65
12, 195975, Note_on_c, 11, 56, 0
12, 196020, Note_on_c, 11, 56, 65
12, 196035, Note_on_c, 11, 60, 0
12, 196065, Note_on_c, 11, 56, 0
12, 196140, Note_on_c, 11, 56, 65
12, 196200, Note_on_c, 11, 60, 65
12, 196215, Note_on_c, 11, 56, 0
12, 196260, Note_on_c, 11, 56, 65
12, 196275, Note_on_c, 11, 60, 0
12, 196305, Note_on_c, 11, 56, 0
12, 196380, Note_on_c, 11, 56, 65
12, 196440, Note_on_c, 11, 60, 65
12, 196455, Note_on_c, 11, 56, 0
12, 196500, Note_on_c, 11, 56, 65
12, 196515, Note_on_c, 11, 60, 0
12, 196545, Note_on_c, 11, 56, 0
12, 196620, Note_on_c, 11, 56, 65
12, 196680, Note_on_c, 11, 60, 65
12, 196695, Note_on_c, 11, 56, 0
12, 196740, Note_on_c, 11, 56, 65
12, 196755, Note_on_c, 11, 60, 0
12, 196785, Note_on_c, 11, 56, 0
12, 196860, Note_on_c, 11, 57, 65
12, 196920, Note_on_c, 11, 60, 65
12, 196935, Note_on_c, 11, 57, 0
12, 196980, Note_on_c, 11, 57, 65
12, 196995, Note_on_c, 11, 60, 0
12, 197025, Note_on_c, 11, 57, 0
12, 197100, Note_on_c, 11, 57, 64
12, 197160, Note_on_c, 11, 60, 63
12, 197175, Note_on_c, 11, 57, 0
12, 197220, Note_on_c, 11, 57, 62
12, 197235, Note_on_c, 11, 60, 0
12, 197265, Note_on_c, 11, 57, 0
12, 197340, Note_on_c, 11, 57, 59
12, 197400, Note_on_c, 11, 60, 58
12, 197415, Note_on_c, 11, 57, 0
12, 197460, Note_on_c, 11, 57, 57
12, 197475, Note_on_c, 11, 60, 0
12, 197505, Note_on_c, 11, 57, 0
12, 197580, Note_on_c, 11, 57, 54
12, 197640, Note_on_c, 11, 60, 53
12, 197655, Note_on_c, 11, 57, 0
12, 197700, Note_on_c, 11, 57, 52
12, 197715, Note_on_c, 11, 60, 0
12, 197745, Note_on_c, 11, 57, 0
12, 197820, Note_on_c, 11, 55, 50
12, 197895, Note_on_c, 11, 55, 0
12, 197940, Note_on_c, 11, 55, 50
12, 197985, Note_on_c, 11, 55, 0
12, 198300, Note_on_c, 11, 55, 50
12, 198360, Note_on_c, 11, 62, 50
12, 198375, Note_on_c, 11, 55, 0
12, 198420, Note_on_c, 11, 55, 50
12, 198435, Note_on_c, 11, 62, 0
12, 198465, Note_on_c, 11, 55, 0
12, 198600, Note_on_c, 11, 62, 50
12, 198675, Note_on_c, 11, 62, 0
12, 198840, Note_on_c, 11, 56, 50
12, 198915, Note_on_c, 11, 56, 0
12, 198960, Note_on_c, 11, 56, 50
12, 199020, Note_on_c, 11, 55, 50
12, 199035, Note_on_c, 11, 56, 0
12, 199080, Note_on_c, 11, 56, 50
12, 199095, Note_on_c, 11, 55, 0
12, 199140, Note_on_c, 11, 55, 50
12, 199155, Note_on_c, 11, 56, 0
12, 199185, Note_on_c, 11, 55, 0
12, 199200, Note_on_c, 11, 56, 50
12, 199260, Note_on_c, 11, 55, 50
12, 199275, Note_on_c, 11, 56, 0
12, 199320, Note_on_c, 11, 56, 50
12, 199335, Note_on_c, 11, 55, 0
12, 199380, Note_on_c, 11, 55, 50
12, 199395, Note_on_c, 11, 56, 0
12, 199440, Note_on_c, 11, 56, 50
12, 199455, Note_on_c, 11, 55, 0
12, 199515, Note_on_c, 11, 56, 0
12, 199560, Note_on_c, 11, 56, 50
12, 199635, Note_on_c, 11, 56, 0
12, 199740, Note_on_c, 11, 55, 50
12, 199815, Note_on_c, 11, 55, 0
12, 199860, Note_on_c, 11, 55, 52
12, 199905, Note_on_c, 11, 55, 0
12, 200220, Note_on_c, 11, 55, 58
12, 200280, Note_on_c, 11, 62, 59
12, 200295, Note_on_c, 11, 55, 0
12, 200340, Note_on_c, 11, 55, 60
12, 200355, Note_on_c, 11, 62, 0
12, 200385, Note_on_c, 11, 55, 0
12, 200520, Note_on_c, 11, 62, 63
12, 200595, Note_on_c, 11, 62, 0
12, 204720, Note_on_c, 11, 56, 40
12, 204810, Note_on_c, 11, 56, 0
12, 204960, Note_on_c, 11, 48, 40
12, 205050, Note_on_c, 11, 48, 0
12, 205200, Note_on_c, 11, 56, 40
12, 205290, Note_on_c, 11, 56, 0
12, 205440, Note_on_c, 11, 48, 40
12, 205530, Note_on_c, 11, 48, 0
12, 205680, Note_on_c, 11, 56, 40
12, 205770, Note_on_c, 11, 56, 0
12, 205920, Note_on_c, 11, 48, 40
12, 206010, Note_on_c, 11, 48, 0
12, 206160, Note_on_c, 11, 56, 40
12, 206250, Note_on_c, 11, 56, 0
12, 206400, Note_on_c, 11, 49, 40
12, 206490, Note_on_c, 11, 49, 0
12, 206640, Note_on_c, 11, 56, 40
12, 206730, Note_on_c, 11, 56, 0
12, 206880, Note_on_c, 11, 49, 40
12, 206970, Note_on_c, 11, 49, 0
12, 207120, Note_on_c, 11, 56, 40
12, 207210, Note_on_c, 11, 56, 0
12, 207360, Note_on_c, 11, 48, 40
12, 207450, Note_on_c, 11, 48, 0
12, 207600, Note_on_c, 11, 56, 40
12, 207690, Note_on_c, 11, 56, 0
12, 207840, Note_on_c, 11, 48, 40
12, 207930, Note_on_c, 11, 48, 0
12, 208080, Note_on_c, 11, 56, 40
12, 208170, Note_on_c, 11, 56, 0
12, 208320, Note_on_c, 11, 49, 40
12, 208410, Note_on_c, 11, 49, 0
12, 208560, Note_on_c, 11, 56, 40
12, 208650, Note_on_c, 11, 56, 0
12, 208800, Note_on_c, 11, 49, 40
12, 208890, Note_on_c, 11, 49, 0
12, 209040, Note_on_c, 11, 56, 40
12, 209130, Note_on_c, 11, 56, 0
12, 209520, Note_on_c, 11, 56, 40
12, 209760, Note_on_c, 11, 56, 0
12, 210000, Note_on_c, 11, 55, 40
12, 210210, Note_on_c, 11, 55, 0
12, 210240, Note_on_c, 11, 55, 40
12, 210480, Note_on_c, 11, 55, 0
12, 214560, Note_on_c, 11, 55, 40
12, 214800, Note_on_c, 11, 58, 40
12, 214830, Note_on_c, 11, 55, 0
12, 215010, Note_on_c, 11, 58, 0
12, 215040, Note_on_c, 11, 56, 40
12, 215520, Note_on_c, 11, 55, 40
12, 215550, Note_on_c, 11, 56, 0
12, 215760, Note_on_c, 11, 53, 40
12, 215790, Note_on_c, 11, 55, 0
12, 215970, Note_on_c, 11, 53, 0
12, 216000, Note_on_c, 11, 52, 40
12, 216000, Control_c, 11, 11, 80
12, 216070, Control_c, 11, 11, 81
12, 216140, Control_c, 11, 11, 82
12, 216210, Control_c, 11, 11, 83
12, 216280, Control_c, 11, 11, 84
12, 216350, Control_c, 11, 11, 85
12, 216420, Control_c, 11, 11, 86
12, 216480, Note_on_c, 11, 55, 40
12, 216490, Control_c, 11, 11, 87
12, 216510, Note_on_c, 11, 52, 0
12, 216560, Control_c, 11, 11, 88
12, 216630, Control_c, 11, 11, 89
12, 216700, Control_c, 11, 11, 90
12, 216720, Note_on_c, 11, 60, 40
12, 216750, Note_on_c, 11, 55, 0
12, 216770, Control_c, 11, 11, 91
12, 216840, Control_c, 11, 11, 92
12, 216910, Control_c, 11, 11, 93
12, 216930, Note_on_c, 11, 60, 0
12, 216960, Note_on_c, 11, 60, 40
12, 216980, Control_c, 11, 11, 94
12, 217050, Control_c, 11, 11, 95
12, 217120, Control_c, 11, 11, 96
12, 217190, Control_c, 11, 11, 97
12, 217260, Control_c, 11, 11, 98
12, 217330, Control_c, 11, 11, 99
12, 217400, Control_c, 11, 11, 100
12, 217440, Note_on_c, 11, 58, 40
12, 217470, Note_on_c, 11, 60, 0
12, 217470, Control_c, 11, 11, 101
12, 217540, Control_c, 11, 11, 102
12, 217610, Control_c, 11, 11, 103
12, 217680, Note_on_c, 11, 56, 40
12, 217680, Control_c, 11, 11, 104
12, 217710, Note_on_c, 11, 58, 0
12, 217750, Control_c, 11, 11, 105
12, 217820, Control_c, 11, 11, 106
12, 217890, Note_on_c, 11, 56, 0
12, 217890, Control_c, 11, 11, 107
12, 217920, Note_on_c, 11, 58, 40
12, 217960, Control_c, 11, 11, 108
12, 218030, Control_c, 11, 11, 109
12, 218100, Control_c, 11, 11, 110
12, 218160, Note_on_c, 11, 56, 40
12, 218170, Control_c, 11, 11, 111
12, 218190, Note_on_c, 11, 58, 0
12, 218240, Control_c, 11, 11, 112
12, 218310, Control_c, 11, 11, 113
12, 218380, Control_c, 11, 11, 114
12, 218400, Note_on_c, 11, 55, 40
12, 218430, Note_on_c, 11, 56, 0
12, 218450, Control_c, 11, 11, 115
12, 218520, Control_c, 11, 11, 116
12, 218590, Control_c, 11, 11, 117
12, 218640, Note_on_c, 11, 53, 40
12, 218660, Control_c, 11, 11, 118
12, 218670, Note_on_c, 11, 55, 0
12, 218730, Control_c, 11, 11, 119
12, 218800, Control_c, 11, 11, 120
12, 218850, Note_on_c, 11, 53, 0
12, 218874, Control_c, 11, 11, 80
12, 218880, Note_on_c, 11, 60, 40
12, 218880, Control_c, 11, 11, 80
12, 218910, Control_c, 11, 11, 81
12, 218930, Control_c, 11, 11, 82
12, 218950, Control_c, 11, 11, 83
12, 218980, Control_c, 11, 11, 84
12, 219000, Control_c, 11, 11, 85
12, 219020, Control_c, 11, 11, 86
12, 219050, Control_c, 11, 11, 87
12, 219070, Control_c, 11, 11, 88
12, 219090, Control_c, 11, 11, 89
12, 219110, Control_c, 11, 11, 90
12, 219140, Control_c, 11, 11, 91
12, 219160, Control_c, 11, 11, 92
12, 219180, Control_c, 11, 11, 93
12, 219210, Control_c, 11, 11, 94
12, 219230, Control_c, 11, 11, 95
12, 219250, Control_c, 11, 11, 96
12, 219270, Control_c, 11, 11, 97
12, 219300, Control_c, 11, 11, 98
12, 219320, Control_c, 11, 11, 99
12, 219340, Control_c, 11, 11, 100
12, 219370, Control_c, 11, 11, 101
12, 219390, Control_c, 11, 11, 102
12, 219410, Control_c, 11, 11, 103
12, 219440, Control_c, 11, 11, 104
12, 219460, Control_c, 11, 11, 105
12, 219480, Control_c, 11, 11, 106
12, 219500, Control_c, 11, 11, 107
12, 219530, Control_c, 11, 11, 108
12, 219550, Control_c, 11, 11, 109
12, 219570, Control_c, 11, 11, 110
12, 219600, Control_c, 11, 11, 111
12, 219620, Control_c, 11, 11, 112
12, 219640, Control_c, 11, 11, 113
12, 219660, Control_c, 11, 11, 114
12, 219690, Control_c, 11, 11, 115
12, 219710, Control_c, 11, 11, 116
12, 219730, Control_c, 11, 11, 117
12, 219760, Control_c, 11, 11, 118
12, 219780, Control_c, 11, 11, 119
12, 219800, Control_c, 11, 11, 120
12, 219834, Control_c, 11, 11, 80
12, 219840, Note_on_c, 11, 56, 50
12, 219870, Note_on_c, 11, 60, 0
12, 220080, Note_on_c, 11, 56, 0
12, 220800, Note_on_c, 11, 55, 50
12, 221040, Note_on_c, 11, 55, 0
12, 221760, Note_on_c, 11, 53, 45
12, 222000, Control_c, 11, 11, 80
12, 222010, Control_c, 11, 11, 81
12, 222020, Control_c, 11, 11, 83
12, 222030, Control_c, 11, 11, 85
12, 222040, Control_c, 11, 11, 86
12, 222050, Control_c, 11, 11, 88
12, 222060, Control_c, 11, 11, 90
12, 222070, Control_c, 11, 11, 91
12, 222080, Control_c, 11, 11, 93
12, 222090, Control_c, 11, 11, 95
12, 222100, Control_c, 11, 11, 96
12, 222110, Control_c, 11, 11, 98
12, 222120, Control_c, 11, 11, 100
12, 222130, Control_c, 11, 11, 101
12, 222140, Control_c, 11, 11, 103
12, 222150, Control_c, 11, 11, 105
12, 222160, Control_c, 11, 11, 106
12, 222170, Control_c, 11, 11, 108
12, 222180, Control_c, 11, 11, 110
12, 222190, Control_c, 11, 11, 111
12, 222200, Control_c, 11, 11, 113
12, 222210, Control_c, 11, 11, 115
12, 222220, Control_c, 11, 11, 116
12, 222230, Control_c, 11, 11, 118
12, 222260, Control_c, 11, 11, 119
12, 222270, Control_c, 11, 11, 118
12, 222280, Control_c, 11, 11, 117
12, 222290, Control_c, 11, 11, 116
12, 222300, Control_c, 11, 11, 115
12, 222320, Control_c, 11, 11, 114
12, 222330, Control_c, 11, 11, 113
12, 222340, Control_c, 11, 11, 112
12, 222350, Control_c, 11, 11, 111
12, 222360, Control_c, 11, 11, 110
12, 222370, Control_c, 11, 11, 109
12, 222390, Control_c, 11, 11, 108
12, 222400, Control_c, 11, 11, 107
12, 222410, Control_c, 11, 11, 106
12, 222420, Control_c, 11, 11, 105
12, 222430, Control_c, 11, 11, 104
12, 222440, Control_c, 11, 11, 103
12, 222460, Control_c, 11, 11, 102
12, 222470, Control_c, 11, 11, 101
12, 222480, Control_c, 11, 11, 100
12, 222490, Control_c, 11, 11, 99
12, 222500, Control_c, 11, 11, 98
12, 222510, Control_c, 11, 11, 97
12, 222530, Control_c, 11, 11, 96
12, 222540, Control_c, 11, 11, 95
12, 222550, Control_c, 11, 11, 94
12, 222560, Control_c, 11, 11, 93
12, 222570, Control_c, 11, 11, 92
12, 222580, Control_c, 11, 11, 91
12, 222600, Control_c, 11, 11, 90
12, 222610, Control_c, 11, 11, 89
12, 222620, Control_c, 11, 11, 88
12, 222630, Control_c, 11, 11, 87
12, 222640, Control_c, 11, 11, 86
12, 222650, Control_c, 11, 11, 85
12, 222670, Control_c, 11, 11, 84
12, 222680, Control_c, 11, 11, 83
12, 222690, Control_c, 11, 11, 82
12, 222700, Control_c, 11, 11, 81
12, 222710, Control_c, 11, 11, 80
12, 222720, Note_on_c, 11, 51, 50
12, 222750, Note_on_c, 11, 53, 0
12, 222960, Note_on_c, 11, 51, 0
12, 223680, Note_on_c, 11, 53, 50
12, 223920, Control_c, 11, 11, 80
12, 223930, Control_c, 11, 11, 81
12, 223940, Control_c, 11, 11, 83
12, 223950, Control_c, 11, 11, 85
12, 223960, Control_c, 11, 11, 86
12, 223970, Control_c, 11, 11, 88
12, 223980, Control_c, 11, 11, 90
12, 223990, Control_c, 11, 11, 91
12, 224000, Control_c, 11, 11, 93
12, 224010, Control_c, 11, 11, 95
12, 224020, Control_c, 11, 11, 96
12, 224030, Control_c, 11, 11, 98
12, 224040, Control_c, 11, 11, 100
12, 224050, Control_c, 11, 11, 101
12, 224060, Control_c, 11, 11, 103
12, 224070, Control_c, 11, 11, 105
12, 224080, Control_c, 11, 11, 106
12, 224090, Control_c, 11, 11, 108
12, 224100, Control_c, 11, 11, 110
12, 224110, Control_c, 11, 11, 111
12, 224120, Control_c, 11, 11, 113
12, 224130, Control_c, 11, 11, 115
12, 224140, Control_c, 11, 11, 116
12, 224150, Control_c, 11, 11, 118
12, 224180, Control_c, 11, 11, 119
12, 224190, Control_c, 11, 11, 118
12, 224200, Control_c, 11, 11, 117
12, 224210, Control_c, 11, 11, 116
12, 224220, Control_c, 11, 11, 115
12, 224240, Control_c, 11, 11, 114
12, 224250, Control_c, 11, 11, 113
12, 224260, Control_c, 11, 11, 112
12, 224270, Control_c, 11, 11, 111
12, 224280, Control_c, 11, 11, 110
12, 224290, Control_c, 11, 11, 109
12, 224310, Control_c, 11, 11, 108
12, 224320, Control_c, 11, 11, 107
12, 224330, Control_c, 11, 11, 106
12, 224340, Control_c, 11, 11, 105
12, 224350, Control_c, 11, 11, 104
12, 224360, Control_c, 11, 11, 103
12, 224380, Control_c, 11, 11, 102
12, 224390, Control_c, 11, 11, 101
12, 224400, Control_c, 11, 11, 100
12, 224410, Control_c, 11, 11, 99
12, 224420, Control_c, 11, 11, 98
12, 224430, Control_c, 11, 11, 97
12, 224450, Control_c, 11, 11, 96
12, 224460, Control_c, 11, 11, 95
12, 224470, Control_c, 11, 11, 94
12, 224480, Control_c, 11, 11, 93
12, 224490, Control_c, 11, 11, 92
12, 224500, Control_c, 11, 11, 91
12, 224520, Control_c, 11, 11, 90
12, 224530, Control_c, 11, 11, 89
12, 224540, Control_c, 11, 11, 88
12, 224550, Control_c, 11, 11, 87
12, 224560, Control_c, 11, 11, 86
12, 224570, Control_c, 11, 11, 85
12, 224590, Control_c, 11, 11, 84
12, 224600, Control_c, 11, 11, 83
12, 224610, Control_c, 11, 11, 82
12, 224620, Control_c, 11, 11, 81
12, 224630, Control_c, 11, 11, 80
12, 224640, Note_on_c, 11, 51, 50
12, 224670, Note_on_c, 11, 53, 0
12, 224880, Note_on_c, 11, 51, 0
12, 225600, Note_on_c, 11, 53, 50
12, 226560, Control_c, 11, 11, 80
12, 226590, Control_c, 11, 11, 81
12, 226610, Control_c, 11, 11, 82
12, 226630, Control_c, 11, 11, 83
12, 226650, Control_c, 11, 11, 84
12, 226670, Control_c, 11, 11, 85
12, 226690, Control_c, 11, 11, 86
12, 226710, Control_c, 11, 11, 87
12, 226730, Control_c, 11, 11, 88
12, 226750, Control_c, 11, 11, 89
12, 226770, Control_c, 11, 11, 90
12, 226790, Control_c, 11, 11, 91
12, 226810, Control_c, 11, 11, 92
12, 226830, Control_c, 11, 11, 93
12, 226850, Control_c, 11, 11, 94
12, 226870, Control_c, 11, 11, 95
12, 226890, Control_c, 11, 11, 96
12, 226910, Control_c, 11, 11, 97
12, 226930, Control_c, 11, 11, 98
12, 226950, Control_c, 11, 11, 99
12, 226970, Control_c, 11, 11, 100
12, 226990, Control_c, 11, 11, 101
12, 227010, Control_c, 11, 11, 102
12, 227030, Control_c, 11, 11, 103
12, 227060, Control_c, 11, 11, 104
12, 227080, Control_c, 11, 11, 105
12, 227100, Control_c, 11, 11, 106
12, 227120, Control_c, 11, 11, 107
12, 227140, Control_c, 11, 11, 108
12, 227160, Control_c, 11, 11, 109
12, 227180, Control_c, 11, 11, 110
12, 227200, Control_c, 11, 11, 111
12, 227220, Control_c, 11, 11, 112
12, 227240, Control_c, 11, 11, 113
12, 227260, Control_c, 11, 11, 114
12, 227280, Control_c, 11, 11, 115
12, 227300, Control_c, 11, 11, 116
12, 227320, Control_c, 11, 11, 117
12, 227340, Control_c, 11, 11, 118
12, 227360, Control_c, 11, 11, 119
12, 227380, Control_c, 11, 11, 120
12, 227400, Control_c, 11, 11, 121
12, 227420, Control_c, 11, 11, 122
12, 227440, Control_c, 11, 11, 123
12, 227460, Control_c, 11, 11, 124
12, 227480, Control_c, 11, 11, 125
12, 227500, Control_c, 11, 11, 126
12, 227520, Control_c, 11, 11, 127
12, 227540, Control_c, 11, 11, 126
12, 227560, Control_c, 11, 11, 125
12, 227580, Control_c, 11, 11, 124
12, 227600, Control_c, 11, 11, 123
12, 227620, Control_c, 11, 11, 122
12, 227640, Control_c, 11, 11, 121
12, 227660, Control_c, 11, 11, 120
12, 227680, Control_c, 11, 11, 119
12, 227700, Control_c, 11, 11, 118
12, 227720, Control_c, 11, 11, 117
12, 227740, Control_c, 11, 11, 116
12, 227760, Control_c, 11, 11, 115
12, 227780, Control_c, 11, 11, 114
12, 227800, Control_c, 11, 11, 113
12, 227820, Control_c, 11, 11, 112
12, 227840, Control_c, 11, 11, 111
12, 227860, Control_c, 11, 11, 110
12, 227880, Control_c, 11, 11, 109
12, 227900, Control_c, 11, 11, 108
12, 227920, Control_c, 11, 11, 107
12, 227940, Control_c, 11, 11, 106
12, 227960, Control_c, 11, 11, 105
12, 227980, Control_c, 11, 11, 104
12, 228000, Control_c, 11, 11, 103
12, 228020, Control_c, 11, 11, 102
12, 228040, Control_c, 11, 11, 101
12, 228060, Control_c, 11, 11, 100
12, 228080, Control_c, 11, 11, 99
12, 228100, Control_c, 11, 11, 98
12, 228120, Control_c, 11, 11, 97
12, 228140, Control_c, 11, 11, 96
12, 228160, Control_c, 11, 11, 95
12, 228180, Control_c, 11, 11, 94
12, 228200, Control_c, 11, 11, 93
12, 228210, Note_on_c, 11, 53, 0
12, 228220, Control_c, 11, 11, 92
12, 228240, Note_on_c, 11, 53, 50
12, 228240, Control_c, 11, 11, 91
12, 228260, Control_c, 11, 11, 90
12, 228280, Control_c, 11, 11, 89
12, 228300, Control_c, 11, 11, 88
12, 228320, Control_c, 11, 11, 87
12, 228340, Control_c, 11, 11, 86
12, 228360, Control_c, 11, 11, 85
12, 228380, Control_c, 11, 11, 84
12, 228400, Control_c, 11, 11, 83
12, 228420, Control_c, 11, 11, 82
12, 228440, Control_c, 11, 11, 81
12, 228450, Note_on_c, 11, 53, 0
12, 228460, Control_c, 11, 11, 80
12, 235920, Note_on_c, 11, 53, 40
12, 236010, Note_on_c, 11, 53, 0
12, 236040, Note_on_c, 11, 53, 40
12, 236130, Note_on_c, 11, 53, 0
12, 236160, Note_on_c, 11, 51, 40
12, 236400, Note_on_c, 11, 51, 0
12, 236640, Note_on_c, 11, 48, 65
12, 236640, Note_on_c, 11, 60, 65
12, 236880, Note_on_c, 11, 48, 0
12, 236880, Note_on_c, 11, 60, 0
12, 237120, Note_on_c, 11, 48, 45
12, 237360, Control_c, 11, 11, 80
12, 237370, Control_c, 11, 11, 79
12, 237380, Control_c, 11, 11, 78
12, 237390, Control_c, 11, 11, 77
12, 237400, Control_c, 11, 11, 76
12, 237410, Control_c, 11, 11, 75
12, 237420, Control_c, 11, 11, 74
12, 237430, Control_c, 11, 11, 73
12, 237440, Control_c, 11, 11, 72
12, 237450, Control_c, 11, 11, 71
12, 237460, Control_c, 11, 11, 70
12, 237470, Control_c, 11, 11, 69
12, 237480, Control_c, 11, 11, 67
12, 237490, Control_c, 11, 11, 66
12, 237500, Control_c, 11, 11, 65
12, 237510, Control_c, 11, 11, 64
12, 237520, Control_c, 11, 11, 63
12, 237530, Control_c, 11, 11, 62
12, 237540, Control_c, 11, 11, 61
12, 237550, Control_c, 11, 11, 60
12, 237560, Control_c, 11, 11, 59
12, 237570, Control_c, 11, 11, 58
12, 237580, Control_c, 11, 11, 57
12, 237590, Control_c, 11, 11, 56
12, 237600, Control_c, 11, 11, 54
12, 237610, Control_c, 11, 11, 53
12, 237620, Control_c, 11, 11, 52
12, 237630, Control_c, 11, 11, 51
12, 237640, Control_c, 11, 11, 50
12, 237650, Control_c, 11, 11, 49
12, 237660, Control_c, 11, 11, 48
12, 237670, Control_c, 11, 11, 47
12, 237680, Control_c, 11, 11, 46
12, 237690, Control_c, 11, 11, 45
12, 237700, Control_c, 11, 11, 44
12, 237710, Control_c, 11, 11, 43
12, 237720, Control_c, 11, 11, 41
12, 237730, Control_c, 11, 11, 40
12, 237740, Control_c, 11, 11, 39
12, 237750, Control_c, 11, 11, 38
12, 237760, Control_c, 11, 11, 37
12, 237770, Control_c, 11, 11, 36
12, 237780, Control_c, 11, 11, 35
12, 237790, Control_c, 11, 11, 34
12, 237800, Control_c, 11, 11, 33
12, 237810, Control_c, 11, 11, 32
12, 237820, Control_c, 11, 11, 31
12, 237830, Control_c, 11, 11, 30
12, 237840, Note_on_c, 11, 48, 0
12, 237840, End_track
13, 0, Start_track
13, 0, Channel_prefix, 12
13, 0, Title_t, "Cello   "
13, 0, Instrument_name_t, "Violoncello"
13, 960, Note_on_c, 12, 48, 40
13, 1440, Note_on_c, 12, 48, 0
13, 1920, Note_on_c, 12, 48, 40
13, 2400, Note_on_c, 12, 48, 0
13, 2880, Note_on_c, 12, 48, 40
13, 3330, Note_on_c, 12, 48, 0
13, 3360, Note_on_c, 12, 48, 40
13, 3810, Note_on_c, 12, 48, 0
13, 3840, Note_on_c, 12, 48, 40
13, 4320, Note_on_c, 12, 47, 40
13, 4350, Note_on_c, 12, 48, 0
13, 4530, Note_on_c, 12, 47, 0
13, 4800, Note_on_c, 12, 47, 40
13, 5250, Note_on_c, 12, 47, 0
13, 5760, Note_on_c, 12, 50, 40
13, 5760, Control_c, 12, 11, 80
13, 5770, Control_c, 12, 11, 82
13, 5780, Control_c, 12, 11, 85
13, 5790, Control_c, 12, 11, 87
13, 5800, Control_c, 12, 11, 90
13, 5810, Control_c, 12, 11, 92
13, 5820, Control_c, 12, 11, 95
13, 5830, Control_c, 12, 11, 97
13, 5840, Control_c, 12, 11, 100
13, 5850, Control_c, 12, 11, 102
13, 5860, Control_c, 12, 11, 105
13, 5870, Control_c, 12, 11, 107
13, 5880, Control_c, 12, 11, 110
13, 5900, Control_c, 12, 11, 109
13, 5910, Control_c, 12, 11, 109
13, 5920, Control_c, 12, 11, 108
13, 5930, Control_c, 12, 11, 108
13, 5950, Control_c, 12, 11, 107
13, 5960, Control_c, 12, 11, 106
13, 5970, Control_c, 12, 11, 106
13, 5980, Control_c, 12, 11, 105
13, 5990, Control_c, 12, 11, 105
13, 6010, Control_c, 12, 11, 104
13, 6020, Control_c, 12, 11, 103
13, 6030, Control_c, 12, 11, 103
13, 6040, Control_c, 12, 11, 102
13, 6050, Control_c, 12, 11, 102
13, 6070, Control_c, 12, 11, 100
13, 6080, Control_c, 12, 11, 100
13, 6090, Control_c, 12, 11, 99
13, 6100, Control_c, 12, 11, 99
13, 6120, Control_c, 12, 11, 98
13, 6130, Control_c, 12, 11, 97
13, 6140, Control_c, 12, 11, 97
13, 6150, Control_c, 12, 11, 96
13, 6160, Control_c, 12, 11, 96
13, 6180, Control_c, 12, 11, 95
13, 6190, Control_c, 12, 11, 94
13, 6200, Control_c, 12, 11, 94
13, 6210, Control_c, 12, 11, 93
13, 6220, Control_c, 12, 11, 93
13, 6240, Control_c, 12, 11, 92
13, 6250, Control_c, 12, 11, 91
13, 6260, Control_c, 12, 11, 90
13, 6270, Control_c, 12, 11, 90
13, 6290, Control_c, 12, 11, 89
13, 6300, Control_c, 12, 11, 88
13, 6310, Control_c, 12, 11, 88
13, 6320, Control_c, 12, 11, 87
13, 6330, Control_c, 12, 11, 87
13, 6350, Control_c, 12, 11, 86
13, 6360, Control_c, 12, 11, 85
13, 6370, Control_c, 12, 11, 85
13, 6380, Control_c, 12, 11, 84
13, 6390, Control_c, 12, 11, 84
13, 6410, Control_c, 12, 11, 83
13, 6420, Control_c, 12, 11, 82
13, 6430, Control_c, 12, 11, 81
13, 6440, Control_c, 12, 11, 80
13, 6450, Note_on_c, 12, 50, 0
13, 6480, Note_on_c, 12, 50, 40
13, 6690, Note_on_c, 12, 50, 0
13, 6720, Note_on_c, 12, 48, 40
13, 6930, Note_on_c, 12, 48, 0
13, 6960, Note_on_c, 12, 48, 40
13, 7170, Note_on_c, 12, 48, 0
13, 7200, Note_on_c, 12, 48, 40
13, 7410, Note_on_c, 12, 48, 0
13, 7440, Note_on_c, 12, 47, 40
13, 7620, Note_on_c, 12, 47, 0
13, 7620, Note_on_c, 12, 50, 40
13, 7680, Note_on_c, 12, 48, 40
13, 7680, Note_on_c, 12, 50, 0
13, 7860, Note_on_c, 12, 48, 0
13, 7920, Note_on_c, 12, 53, 40
13, 8070, Note_on_c, 12, 53, 0
13, 8100, Note_on_c, 12, 53, 40
13, 8154, Note_on_c, 12, 53, 0
13, 8160, Note_on_c, 12, 48, 40
13, 8340, Note_on_c, 12, 48, 0
13, 8520, Note_on_c, 12, 48, 40
13, 8550, Note_on_c, 12, 48, 0
13, 8560, Note_on_c, 12, 48, 40
13, 8590, Note_on_c, 12, 48, 0
13, 8600, Note_on_c, 12, 48, 40
13, 8630, Note_on_c, 12, 48, 0
13, 8640, Note_on_c, 12, 48, 40
13, 8880, Note_on_c, 12, 48, 0
13, 9480, Note_on_c, 12, 48, 40
13, 9510, Note_on_c, 12, 48, 0
13, 9520, Note_on_c, 12, 48, 40
13, 9550, Note_on_c, 12, 48, 0
13, 9560, Note_on_c, 12, 48, 40
13, 9590, Note_on_c, 12, 48, 0
13, 9600, Note_on_c, 12, 48, 40
13, 9840, Note_on_c, 12, 48, 0
13, 10440, Note_on_c, 12, 48, 40
13, 10470, Note_on_c, 12, 48, 0
13, 10480, Note_on_c, 12, 48, 40
13, 10510, Note_on_c, 12, 48, 0
13, 10520, Note_on_c, 12, 48, 40
13, 10550, Note_on_c, 12, 48, 0
13, 10560, Note_on_c, 12, 48, 40
13, 10800, Note_on_c, 12, 48, 0
13, 10920, Note_on_c, 12, 48, 40
13, 10950, Note_on_c, 12, 48, 0
13, 10960, Note_on_c, 12, 48, 40
13, 10990, Note_on_c, 12, 48, 0
13, 11000, Note_on_c, 12, 48, 40
13, 11030, Note_on_c, 12, 48, 0
13, 11040, Note_on_c, 12, 51, 40
13, 11280, Note_on_c, 12, 51, 0
13, 11400, Note_on_c, 12, 51, 40
13, 11430, Note_on_c, 12, 51, 0
13, 11440, Note_on_c, 12, 51, 40
13, 11470, Note_on_c, 12, 51, 0
13, 11480, Note_on_c, 12, 51, 40
13, 11510, Note_on_c, 12, 51, 0
13, 11520, Note_on_c, 12, 55, 40
13, 11520, Control_c, 12, 11, 80
13, 11540, Control_c, 12, 11, 81
13, 11560, Control_c, 12, 11, 82
13, 11570, Control_c, 12, 11, 83
13, 11590, Control_c, 12, 11, 84
13, 11600, Control_c, 12, 11, 85
13, 11620, Control_c, 12, 11, 86
13, 11640, Control_c, 12, 11, 87
13, 11650, Control_c, 12, 11, 88
13, 11670, Control_c, 12, 11, 89
13, 11680, Control_c, 12, 11, 90
13, 11700, Control_c, 12, 11, 91
13, 11720, Control_c, 12, 11, 92
13, 11730, Control_c, 12, 11, 93
13, 11750, Control_c, 12, 11, 94
13, 11760, Note_on_c, 12, 55, 0
13, 11760, Control_c, 12, 11, 95
13, 11780, Control_c, 12, 11, 96
13, 11800, Control_c, 12, 11, 97
13, 11810, Control_c, 12, 11, 98
13, 11830, Control_c, 12, 11, 99
13, 11840, Control_c, 12, 11, 100
13, 11860, Control_c, 12, 11, 101
13, 11880, Note_on_c, 12, 55, 40
13, 11880, Control_c, 12, 11, 102
13, 11890, Control_c, 12, 11, 103
13, 11910, Note_on_c, 12, 55, 0
13, 11910, Control_c, 12, 11, 104
13, 11920, Note_on_c, 12, 55, 40
13, 11920, Control_c, 12, 11, 105
13, 11940, Control_c, 12, 11, 106
13, 11950, Note_on_c, 12, 55, 0
13, 11960, Note_on_c, 12, 55, 40
13, 11960, Control_c, 12, 11, 107
13, 11970, Control_c, 12, 11, 108
13, 11990, Note_on_c, 12, 55, 0
13, 11990, Control_c, 12, 11, 109
13, 12000, Note_on_c, 12, 55, 40
13, 12000, Control_c, 12, 11, 110
13, 12010, Control_c, 12, 11, 109
13, 12020, Control_c, 12, 11, 108
13, 12030, Control_c, 12, 11, 107
13, 12040, Control_c, 12, 11, 105
13, 12050, Control_c, 12, 11, 104
13, 12060, Control_c, 12, 11, 103
13, 12070, Control_c, 12, 11, 102
13, 12080, Control_c, 12, 11, 100
13, 12090, Control_c, 12, 11, 99
13, 12100, Control_c, 12, 11, 98
13, 12110, Control_c, 12, 11, 97
13, 12120, Control_c, 12, 11, 95
13, 12130, Control_c, 12, 11, 94
13, 12140, Control_c, 12, 11, 93
13, 12150, Control_c, 12, 11, 92
13, 12160, Control_c, 12, 11, 90
13, 12170, Control_c, 12, 11, 89
13, 12180, Control_c, 12, 11, 88
13, 12190, Control_c, 12, 11, 87
13, 12200, Control_c, 12, 11, 85
13, 12210, Control_c, 12, 11, 84
13, 12220, Control_c, 12, 11, 83
13, 12230, Control_c, 12, 11, 80
13, 12240, Note_on_c, 12, 55, 0
13, 12360, Note_on_c, 12, 55, 40
13, 12390, Note_on_c, 12, 55, 0
13, 12400, Note_on_c, 12, 55, 40
13, 12430, Note_on_c, 12, 55, 0
13, 12440, Note_on_c, 12, 55, 40
13, 12470, Note_on_c, 12, 55, 0
13, 12480, Note_on_c, 12, 53, 40
13, 12720, Note_on_c, 12, 53, 0
13, 13320, Note_on_c, 12, 47, 40
13, 13350, Note_on_c, 12, 47, 0
13, 13360, Note_on_c, 12, 47, 40
13, 13390, Note_on_c, 12, 47, 0
13, 13400, Note_on_c, 12, 47, 40
13, 13430, Note_on_c, 12, 47, 0
13, 13440, Note_on_c, 12, 47, 40
13, 13440, Control_c, 12, 11, 80
13, 13480, Control_c, 12, 11, 81
13, 13520, Control_c, 12, 11, 82
13, 13560, Control_c, 12, 11, 83
13, 13600, Control_c, 12, 11, 84
13, 13640, Control_c, 12, 11, 85
13, 13680, Note_on_c, 12, 47, 0
13, 13680, Control_c, 12, 11, 86
13, 13720, Control_c, 12, 11, 87
13, 13760, Control_c, 12, 11, 88
13, 13800, Control_c, 12, 11, 89
13, 13840, Control_c, 12, 11, 90
13, 13880, Control_c, 12, 11, 91
13, 13920, Control_c, 12, 11, 92
13, 13960, Control_c, 12, 11, 93
13, 14000, Control_c, 12, 11, 94
13, 14040, Control_c, 12, 11, 95
13, 14080, Control_c, 12, 11, 96
13, 14120, Control_c, 12, 11, 97
13, 14160, Control_c, 12, 11, 98
13, 14200, Control_c, 12, 11, 99
13, 14240, Control_c, 12, 11, 100
13, 14280, Note_on_c, 12, 47, 40
13, 14280, Control_c, 12, 11, 101
13, 14310, Note_on_c, 12, 47, 0
13, 14320, Note_on_c, 12, 47, 40
13, 14320, Control_c, 12, 11, 102
13, 14350, Note_on_c, 12, 47, 0
13, 14360, Note_on_c, 12, 47, 40
13, 14360, Control_c, 12, 11, 103
13, 14390, Note_on_c, 12, 47, 0
13, 14400, Note_on_c, 12, 46, 40
13, 14400, Control_c, 12, 11, 104
13, 14440, Control_c, 12, 11, 105
13, 14480, Control_c, 12, 11, 106
13, 14520, Control_c, 12, 11, 107
13, 14560, Control_c, 12, 11, 108
13, 14600, Control_c, 12, 11, 109
13, 14640, Note_on_c, 12, 46, 0
13, 14640, Control_c, 12, 11, 110
13, 14670, Control_c, 12, 11, 109
13, 14690, Control_c, 12, 11, 108
13, 14720, Control_c, 12, 11, 107
13, 14740, Control_c, 12, 11, 106
13, 14760, Note_on_c, 12, 46, 40
13, 14760, Control_c, 12, 11, 105
13, 14790, Note_on_c, 12, 46, 0
13, 14790, Control_c, 12, 11, 104
13, 14800, Note_on_c, 12, 46, 40
13, 14810, Control_c, 12, 11, 103
13, 14830, Note_on_c, 12, 46, 0
13, 14840, Note_on_c, 12, 46, 40
13, 14840, Control_c, 12, 11, 102
13, 14860, Control_c, 12, 11, 101
13, 14870, Note_on_c, 12, 46, 0
13, 14880, Note_on_c, 12, 46, 40
13, 14880, Control_c, 12, 11, 100
13, 14910, Control_c, 12, 11, 99
13, 14930, Control_c, 12, 11, 98
13, 14960, Control_c, 12, 11, 97
13, 14980, Control_c, 12, 11, 96
13, 15000, Control_c, 12, 11, 95
13, 15030, Control_c, 12, 11, 94
13, 15050, Control_c, 12, 11, 93
13, 15080, Control_c, 12, 11, 92
13, 15100, Control_c, 12, 11, 91
13, 15120, Note_on_c, 12, 46, 0
13, 15120, Control_c, 12, 11, 90
13, 15150, Control_c, 12, 11, 89
13, 15170, Control_c, 12, 11, 88
13, 15200, Control_c, 12, 11, 87
13, 15220, Control_c, 12, 11, 86
13, 15240, Note_on_c, 12, 46, 40
13, 15240, Control_c, 12, 11, 85
13, 15270, Note_on_c, 12, 46, 0
13, 15270, Control_c, 12, 11, 84
13, 15280, Note_on_c, 12, 46, 40
13, 15290, Control_c, 12, 11, 83
13, 15310, Note_on_c, 12, 46, 0
13, 15320, Note_on_c, 12, 46, 40
13, 15320, Control_c, 12, 11, 82
13, 15340, Control_c, 12, 11, 80
13, 15350, Note_on_c, 12, 46, 0
13, 15360, Note_on_c, 12, 51, 40
13, 15600, Note_on_c, 12, 51, 0
13, 16320, Note_on_c, 12, 46, 40
13, 16770, Note_on_c, 12, 46, 0
13, 16800, Note_on_c, 12, 46, 40
13, 16966, Note_on_c, 12, 46, 0
13, 17040, Note_on_c, 12, 46, 40
13, 17175, Note_on_c, 12, 46, 0
13, 17280, Note_on_c, 12, 46, 40
13, 17599, Note_on_c, 12, 46, 0
13, 17760, Control_c, 12, 11, 80
13, 17800, Control_c, 12, 11, 81
13, 17830, Control_c, 12, 11, 82
13, 17860, Control_c, 12, 11, 83
13, 17890, Control_c, 12, 11, 84
13, 17920, Control_c, 12, 11, 85
13, 17950, Control_c, 12, 11, 86
13, 17980, Control_c, 12, 11, 87
13, 18010, Control_c, 12, 11, 88
13, 18040, Control_c, 12, 11, 89
13, 18070, Control_c, 12, 11, 90
13, 18100, Control_c, 12, 11, 91
13, 18140, Control_c, 12, 11, 92
13, 18170, Control_c, 12, 11, 93
13, 18200, Control_c, 12, 11, 94
13, 18230, Control_c, 12, 11, 95
13, 18240, Note_on_c, 12, 48, 40
13, 18260, Control_c, 12, 11, 96
13, 18290, Control_c, 12, 11, 97
13, 18320, Control_c, 12, 11, 98
13, 18350, Control_c, 12, 11, 99
13, 18380, Control_c, 12, 11, 100
13, 18410, Control_c, 12, 11, 101
13, 18440, Control_c, 12, 11, 102
13, 18470, Control_c, 12, 11, 103
13, 18510, Control_c, 12, 11, 104
13, 18540, Control_c, 12, 11, 105
13, 18570, Control_c, 12, 11, 106
13, 18600, Control_c, 12, 11, 107
13, 18630, Control_c, 12, 11, 108
13, 18660, Control_c, 12, 11, 109
13, 18690, Control_c, 12, 11, 110
13, 18720, Note_on_c, 12, 46, 40
13, 18720, Control_c, 12, 11, 111
13, 18740, Note_on_c, 12, 48, 0
13, 18750, Control_c, 12, 11, 112
13, 18780, Control_c, 12, 11, 113
13, 18810, Control_c, 12, 11, 114
13, 18840, Control_c, 12, 11, 115
13, 18880, Control_c, 12, 11, 116
13, 18910, Control_c, 12, 11, 117
13, 18940, Control_c, 12, 11, 118
13, 18960, Note_on_c, 12, 44, 40
13, 18970, Control_c, 12, 11, 119
13, 18976, Note_on_c, 12, 46, 0
13, 19000, Control_c, 12, 11, 120
13, 19030, Control_c, 12, 11, 121
13, 19060, Control_c, 12, 11, 122
13, 19090, Control_c, 12, 11, 123
13, 19120, Control_c, 12, 11, 124
13, 19150, Control_c, 12, 11, 125
13, 19180, Control_c, 12, 11, 126
13, 19185, Note_on_c, 12, 44, 0
13, 19200, Note_on_c, 12, 43, 40
13, 19460, Note_on_c, 12, 43, 0
13, 19620, Note_on_c, 12, 52, 50
13, 19650, Note_on_c, 12, 52, 0
13, 19680, Note_on_c, 12, 52, 50
13, 20210, Note_on_c, 12, 52, 0
13, 20610, Control_c, 12, 11, 80
13, 20640, Note_on_c, 12, 53, 40
13, 20880, Note_on_c, 12, 55, 40
13, 20895, Note_on_c, 12, 53, 0
13, 21075, Note_on_c, 12, 55, 0
13, 21120, Note_on_c, 12, 56, 40
13, 21570, Note_on_c, 12, 56, 0
13, 21600, Note_on_c, 12, 56, 40
13, 21600, Control_c, 12, 11, 80
13, 21610, Control_c, 12, 11, 83
13, 21620, Control_c, 12, 11, 87
13, 21630, Control_c, 12, 11, 91
13, 21640, Control_c, 12, 11, 95
13, 21650, Control_c, 12, 11, 99
13, 21660, Control_c, 12, 11, 103
13, 21670, Control_c, 12, 11, 107
13, 21680, Control_c, 12, 11, 111
13, 21690, Control_c, 12, 11, 115
13, 21700, Control_c, 12, 11, 119
13, 21710, Control_c, 12, 11, 123
13, 21720, Control_c, 12, 11, 127
13, 21730, Control_c, 12, 11, 126
13, 21740, Control_c, 12, 11, 125
13, 21750, Control_c, 12, 11, 124
13, 21760, Control_c, 12, 11, 122
13, 21770, Control_c, 12, 11, 121
13, 21780, Control_c, 12, 11, 120
13, 21790, Control_c, 12, 11, 118
13, 21800, Control_c, 12, 11, 117
13, 21810, Control_c, 12, 11, 116
13, 21820, Control_c, 12, 11, 114
13, 21830, Control_c, 12, 11, 113
13, 21840, Control_c, 12, 11, 112
13, 21850, Control_c, 12, 11, 111
13, 21860, Control_c, 12, 11, 109
13, 21870, Control_c, 12, 11, 108
13, 21880, Control_c, 12, 11, 107
13, 21890, Control_c, 12, 11, 105
13, 21900, Control_c, 12, 11, 104
13, 21910, Control_c, 12, 11, 103
13, 21920, Control_c, 12, 11, 101
13, 21930, Control_c, 12, 11, 100
13, 21940, Control_c, 12, 11, 99
13, 21950, Control_c, 12, 11, 97
13, 21960, Control_c, 12, 11, 96
13, 21970, Control_c, 12, 11, 95
13, 21980, Control_c, 12, 11, 94
13, 21990, Control_c, 12, 11, 92
13, 22000, Control_c, 12, 11, 91
13, 22010, Control_c, 12, 11, 90
13, 22020, Control_c, 12, 11, 88
13, 22030, Control_c, 12, 11, 87
13, 22040, Control_c, 12, 11, 86
13, 22050, Control_c, 12, 11, 84
13, 22060, Control_c, 12, 11, 82
13, 22070, Control_c, 12, 11, 80
13, 22080, Note_on_c, 12, 55, 60
13, 22110, Note_on_c, 12, 56, 0
13, 22560, Note_on_c, 12, 50, 60
13, 22590, Note_on_c, 12, 55, 0
13, 22800, Note_on_c, 12, 50, 0
13, 22800, Note_on_c, 12, 53, 60
13, 23040, Note_on_c, 12, 51, 60
13, 23070, Note_on_c, 12, 53, 0
13, 23520, Note_on_c, 12, 50, 60
13, 23536, Note_on_c, 12, 51, 0
13, 23760, Note_on_c, 12, 48, 60
13, 23791, Note_on_c, 12, 50, 0
13, 23985, Note_on_c, 12, 48, 0
13, 24000, Note_on_c, 12, 47, 60
13, 24000, Control_c, 12, 11, 80
13, 24030, Control_c, 12, 11, 81
13, 24050, Control_c, 12, 11, 82
13, 24070, Control_c, 12, 11, 83
13, 24090, Control_c, 12, 11, 84
13, 24110, Control_c, 12, 11, 85
13, 24130, Control_c, 12, 11, 86
13, 24150, Control_c, 12, 11, 87
13, 24170, Control_c, 12, 11, 88
13, 24190, Control_c, 12, 11, 89
13, 24210, Control_c, 12, 11, 90
13, 24230, Control_c, 12, 11, 91
13, 24250, Control_c, 12, 11, 92
13, 24270, Control_c, 12, 11, 93
13, 24290, Control_c, 12, 11, 94
13, 24310, Control_c, 12, 11, 95
13, 24330, Control_c, 12, 11, 96
13, 24350, Control_c, 12, 11, 97
13, 24370, Control_c, 12, 11, 98
13, 24390, Control_c, 12, 11, 99
13, 24410, Control_c, 12, 11, 100
13, 24430, Control_c, 12, 11, 101
13, 24450, Control_c, 12, 11, 102
13, 24470, Control_c, 12, 11, 103
13, 24500, Control_c, 12, 11, 104
13, 24520, Control_c, 12, 11, 105
13, 24540, Control_c, 12, 11, 106
13, 24560, Control_c, 12, 11, 107
13, 24580, Control_c, 12, 11, 108
13, 24600, Control_c, 12, 11, 109
13, 24620, Control_c, 12, 11, 110
13, 24640, Control_c, 12, 11, 111
13, 24660, Control_c, 12, 11, 112
13, 24680, Control_c, 12, 11, 113
13, 24700, Control_c, 12, 11, 114
13, 24720, Note_on_c, 12, 50, 60
13, 24720, Control_c, 12, 11, 115
13, 24735, Note_on_c, 12, 47, 0
13, 24740, Control_c, 12, 11, 116
13, 24760, Control_c, 12, 11, 117
13, 24780, Control_c, 12, 11, 118
13, 24800, Control_c, 12, 11, 119
13, 24820, Control_c, 12, 11, 120
13, 24840, Control_c, 12, 11, 121
13, 24860, Control_c, 12, 11, 122
13, 24880, Control_c, 12, 11, 123
13, 24900, Control_c, 12, 11, 124
13, 24920, Control_c, 12, 11, 125
13, 24940, Control_c, 12, 11, 126
13, 24960, Note_on_c, 12, 48, 60
13, 24960, Control_c, 12, 11, 127
13, 24975, Note_on_c, 12, 50, 0
13, 24990, Control_c, 12, 11, 126
13, 25010, Control_c, 12, 11, 125
13, 25030, Control_c, 12, 11, 124
13, 25050, Control_c, 12, 11, 123
13, 25070, Control_c, 12, 11, 122
13, 25090, Control_c, 12, 11, 121
13, 25110, Control_c, 12, 11, 120
13, 25130, Control_c, 12, 11, 119
13, 25150, Control_c, 12, 11, 118
13, 25170, Control_c, 12, 11, 117
13, 25190, Control_c, 12, 11, 116
13, 25210, Control_c, 12, 11, 115
13, 25230, Control_c, 12, 11, 114
13, 25250, Control_c, 12, 11, 113
13, 25270, Control_c, 12, 11, 112
13, 25290, Control_c, 12, 11, 111
13, 25310, Control_c, 12, 11, 110
13, 25330, Control_c, 12, 11, 109
13, 25350, Control_c, 12, 11, 108
13, 25370, Control_c, 12, 11, 107
13, 25390, Control_c, 12, 11, 106
13, 25410, Control_c, 12, 11, 105
13, 25430, Control_c, 12, 11, 104
13, 25440, Note_on_c, 12, 46, 60
13, 25455, Note_on_c, 12, 48, 0
13, 25460, Control_c, 12, 11, 103
13, 25480, Control_c, 12, 11, 102
13, 25500, Control_c, 12, 11, 101
13, 25520, Control_c, 12, 11, 100
13, 25540, Control_c, 12, 11, 99
13, 25560, Control_c, 12, 11, 98
13, 25580, Control_c, 12, 11, 97
13, 25600, Control_c, 12, 11, 96
13, 25620, Control_c, 12, 11, 95
13, 25640, Control_c, 12, 11, 94
13, 25660, Control_c, 12, 11, 93
13, 25680, Note_on_c, 12, 44, 60
13, 25680, Control_c, 12, 11, 92
13, 25695, Note_on_c, 12, 46, 0
13, 25700, Control_c, 12, 11, 91
13, 25720, Control_c, 12, 11, 90
13, 25740, Control_c, 12, 11, 89
13, 25760, Control_c, 12, 11, 88
13, 25780, Control_c, 12, 11, 87
13, 25800, Control_c, 12, 11, 86
13, 25820, Control_c, 12, 11, 85
13, 25840, Control_c, 12, 11, 84
13, 25860, Control_c, 12, 11, 83
13, 25880, Control_c, 12, 11, 82
13, 25900, Control_c, 12, 11, 80
13, 25905, Note_on_c, 12, 44, 0
13, 25920, Note_on_c, 12, 43, 60
13, 26160, Note_on_c, 12, 44, 60
13, 26175, Note_on_c, 12, 43, 0
13, 26400, Note_on_c, 12, 43, 60
13, 26415, Note_on_c, 12, 44, 0
13, 26640, Note_on_c, 12, 48, 60
13, 26655, Note_on_c, 12, 43, 0
13, 26880, Note_on_c, 12, 47, 60
13, 26895, Note_on_c, 12, 48, 0
13, 27120, Note_on_c, 12, 51, 60
13, 27135, Note_on_c, 12, 47, 0
13, 27360, Note_on_c, 12, 50, 60
13, 27375, Note_on_c, 12, 51, 0
13, 27600, Note_on_c, 12, 48, 60
13, 27615, Note_on_c, 12, 50, 0
13, 27825, Note_on_c, 12, 48, 0
13, 27840, Note_on_c, 12, 47, 60
13, 28320, Note_on_c, 12, 44, 60
13, 28335, Note_on_c, 12, 47, 0
13, 28800, Note_on_c, 12, 43, 60
13, 28815, Note_on_c, 12, 44, 0
13, 29280, Note_on_c, 12, 36, 60
13, 29280, Control_c, 12, 11, 80
13, 29290, Control_c, 12, 11, 83
13, 29300, Control_c, 12, 11, 86
13, 29310, Control_c, 12, 11, 90
13, 29320, Control_c, 12, 11, 93
13, 29330, Control_c, 12, 11, 96
13, 29340, Control_c, 12, 11, 100
13, 29370, Control_c, 12, 11, 99
13, 29390, Control_c, 12, 11, 98
13, 29410, Control_c, 12, 11, 97
13, 29430, Control_c, 12, 11, 96
13, 29450, Control_c, 12, 11, 95
13, 29470, Control_c, 12, 11, 94
13, 29490, Control_c, 12, 11, 93
13, 29510, Control_c, 12, 11, 92
13, 29530, Control_c, 12, 11, 91
13, 29550, Control_c, 12, 11, 90
13, 29580, Control_c, 12, 11, 89
13, 29600, Control_c, 12, 11, 88
13, 29620, Control_c, 12, 11, 87
13, 29640, Control_c, 12, 11, 86
13, 29660, Control_c, 12, 11, 85
13, 29680, Control_c, 12, 11, 84
13, 29700, Control_c, 12, 11, 83
13, 29720, Control_c, 12, 11, 82
13, 29740, Control_c, 12, 11, 80
13, 29745, Note_on_c, 12, 36, 0
13, 29745, Note_on_c, 12, 43, 0
13, 29760, Note_on_c, 12, 41, 60
13, 30210, Note_on_c, 12, 41, 0
13, 30600, Note_on_c, 12, 53, 60
13, 30660, Note_on_c, 12, 51, 60
13, 30674, Note_on_c, 12, 53, 0
13, 30720, Note_on_c, 12, 49, 60
13, 30734, Note_on_c, 12, 51, 0
13, 31200, Note_on_c, 12, 49, 0
13, 31560, Note_on_c, 12, 49, 60
13, 31620, Note_on_c, 12, 48, 60
13, 31634, Note_on_c, 12, 49, 0
13, 31680, Note_on_c, 12, 47, 60
13, 31680, Control_c, 12, 11, 80
13, 31694, Note_on_c, 12, 48, 0
13, 31730, Control_c, 12, 11, 82
13, 31780, Control_c, 12, 11, 85
13, 31830, Control_c, 12, 11, 87
13, 31880, Control_c, 12, 11, 90
13, 31920, Note_on_c, 12, 47, 0
13, 31920, Control_c, 12, 11, 92
13, 31970, Control_c, 12, 11, 94
13, 32020, Control_c, 12, 11, 97
13, 32040, Note_on_c, 12, 47, 60
13, 32070, Note_on_c, 12, 47, 0
13, 32070, Control_c, 12, 11, 99
13, 32080, Note_on_c, 12, 47, 60
13, 32110, Note_on_c, 12, 47, 0
13, 32120, Note_on_c, 12, 47, 60
13, 32120, Control_c, 12, 11, 102
13, 32150, Note_on_c, 12, 47, 0
13, 32160, Note_on_c, 12, 53, 60
13, 32160, Control_c, 12, 11, 104
13, 32210, Control_c, 12, 11, 106
13, 32260, Control_c, 12, 11, 109
13, 32310, Control_c, 12, 11, 111
13, 32360, Control_c, 12, 11, 114
13, 32400, Note_on_c, 12, 53, 0
13, 32400, Control_c, 12, 11, 116
13, 32450, Control_c, 12, 11, 118
13, 32500, Control_c, 12, 11, 121
13, 32520, Note_on_c, 12, 53, 60
13, 32550, Note_on_c, 12, 53, 0
13, 32550, Control_c, 12, 11, 123
13, 32560, Note_on_c, 12, 53, 60
13, 32590, Note_on_c, 12, 53, 0
13, 32600, Note_on_c, 12, 53, 60
13, 32600, Control_c, 12, 11, 126
13, 32630, Note_on_c, 12, 53, 0
13, 32640, Note_on_c, 12, 51, 65
13, 32640, Control_c, 12, 11, 127
13, 32730, Note_on_c, 12, 51, 0
13, 32880, Note_on_c, 12, 53, 65
13, 32970, Note_on_c, 12, 53, 0
13, 33180, Control_c, 12, 11, 80
13, 33840, Note_on_c, 12, 48, 60
13, 33840, Control_c, 12, 11, 80
13, 33850, Control_c, 12, 11, 82
13, 33860, Control_c, 12, 11, 84
13, 33870, Control_c, 12, 11, 86
13, 33880, Control_c, 12, 11, 88
13, 33890, Control_c, 12, 11, 91
13, 33900, Control_c, 12, 11, 93
13, 33910, Control_c, 12, 11, 95
13, 33920, Control_c, 12, 11, 97
13, 33940, Control_c, 12, 11, 100
13, 33980, Control_c, 12, 11, 99
13, 34010, Control_c, 12, 11, 98
13, 34040, Control_c, 12, 11, 97
13, 34070, Control_c, 12, 11, 96
13, 34100, Control_c, 12, 11, 95
13, 34130, Control_c, 12, 11, 94
13, 34160, Control_c, 12, 11, 93
13, 34190, Control_c, 12, 11, 92
13, 34220, Control_c, 12, 11, 91
13, 34250, Control_c, 12, 11, 90
13, 34290, Control_c, 12, 11, 89
13, 34320, Note_on_c, 12, 47, 60
13, 34320, Control_c, 12, 11, 88
13, 34337, Note_on_c, 12, 48, 0
13, 34350, Control_c, 12, 11, 87
13, 34380, Control_c, 12, 11, 86
13, 34410, Control_c, 12, 11, 85
13, 34440, Control_c, 12, 11, 84
13, 34470, Control_c, 12, 11, 83
13, 34500, Control_c, 12, 11, 82
13, 34530, Control_c, 12, 11, 80
13, 34539, Note_on_c, 12, 47, 0
13, 35520, Note_on_c, 12, 51, 60
13, 35760, Note_on_c, 12, 51, 0
13, 36360, Note_on_c, 12, 51, 60
13, 36390, Note_on_c, 12, 51, 0
13, 36400, Note_on_c, 12, 51, 60
13, 36430, Note_on_c, 12, 51, 0
13, 36440, Note_on_c, 12, 51, 60
13, 36470, Note_on_c, 12, 51, 0
13, 36480, Note_on_c, 12, 46, 60
13, 36720, Note_on_c, 12, 46, 0
13, 37320, Note_on_c, 12, 46, 60
13, 37350, Note_on_c, 12, 46, 0
13, 37360, Note_on_c, 12, 46, 60
13, 37390, Note_on_c, 12, 46, 0
13, 37400, Note_on_c, 12, 46, 60
13, 37430, Note_on_c, 12, 46, 0
13, 37440, Note_on_c, 12, 48, 60
13, 37440, Control_c, 12, 11, 80
13, 37510, Control_c, 12, 11, 81
13, 37570, Control_c, 12, 11, 82
13, 37630, Control_c, 12, 11, 83
13, 37680, Note_on_c, 12, 48, 0
13, 37690, Control_c, 12, 11, 84
13, 37750, Control_c, 12, 11, 85
13, 37800, Note_on_c, 12, 48, 60
13, 37800, Note_on_c, 12, 68, 40
13, 37810, Control_c, 12, 11, 86
13, 37830, Note_on_c, 12, 48, 0
13, 37830, Note_on_c, 12, 68, 0
13, 37840, Note_on_c, 12, 48, 60
13, 37840, Note_on_c, 12, 68, 40
13, 37870, Note_on_c, 12, 48, 0
13, 37870, Note_on_c, 12, 68, 0
13, 37880, Note_on_c, 12, 48, 60
13, 37880, Note_on_c, 12, 68, 40
13, 37880, Control_c, 12, 11, 87
13, 37910, Note_on_c, 12, 48, 0
13, 37910, Note_on_c, 12, 68, 0
13, 37920, Note_on_c, 12, 46, 60
13, 37920, Note_on_c, 12, 67, 40
13, 37940, Control_c, 12, 11, 88
13, 38000, Control_c, 12, 11, 89
13, 38060, Control_c, 12, 11, 90
13, 38120, Control_c, 12, 11, 91
13, 38160, Note_on_c, 12, 46, 0
13, 38160, Note_on_c, 12, 67, 0
13, 38180, Control_c, 12, 11, 92
13, 38240, Control_c, 12, 11, 93
13, 38280, Note_on_c, 12, 44, 60
13, 38280, Note_on_c, 12, 65, 40
13, 38310, Note_on_c, 12, 44, 0
13, 38310, Note_on_c, 12, 65, 0
13, 38310, Control_c, 12, 11, 94
13, 38320, Note_on_c, 12, 44, 60
13, 38320, Note_on_c, 12, 65, 40
13, 38350, Note_on_c, 12, 44, 0
13, 38350, Note_on_c, 12, 65, 0
13, 38360, Note_on_c, 12, 44, 60
13, 38360, Note_on_c, 12, 65, 40
13, 38370, Control_c, 12, 11, 95
13, 38390, Note_on_c, 12, 44, 0
13, 38390, Note_on_c, 12, 65, 0
13, 38400, Note_on_c, 12, 43, 60
13, 38400, Note_on_c, 12, 64, 40
13, 38430, Control_c, 12, 11, 96
13, 38490, Control_c, 12, 11, 97
13, 38550, Control_c, 12, 11, 98
13, 38610, Control_c, 12, 11, 100
13, 38640, Note_on_c, 12, 43, 0
13, 38640, Note_on_c, 12, 64, 0
13, 38760, Note_on_c, 12, 52, 60
13, 38760, Note_on_c, 12, 70, 40
13, 38790, Note_on_c, 12, 52, 0
13, 38790, Note_on_c, 12, 70, 0
13, 38800, Note_on_c, 12, 52, 60
13, 38800, Note_on_c, 12, 70, 40
13, 38830, Note_on_c, 12, 52, 0
13, 38830, Note_on_c, 12, 70, 0
13, 38840, Note_on_c, 12, 52, 60
13, 38840, Note_on_c, 12, 70, 40
13, 38870, Note_on_c, 12, 52, 0
13, 38870, Note_on_c, 12, 70, 0
13, 38880, Note_on_c, 12, 52, 60
13, 38880, Note_on_c, 12, 70, 40
13, 39120, Note_on_c, 12, 52, 0
13, 39120, Note_on_c, 12, 70, 0
13, 39240, Note_on_c, 12, 52, 60
13, 39240, Note_on_c, 12, 70, 40
13, 39270, Note_on_c, 12, 52, 0
13, 39270, Note_on_c, 12, 70, 0
13, 39280, Note_on_c, 12, 52, 60
13, 39310, Note_on_c, 12, 52, 0
13, 39320, Note_on_c, 12, 52, 60
13, 39350, Note_on_c, 12, 52, 0
13, 39358, Control_c, 12, 11, 80
13, 39360, Note_on_c, 12, 52, 60
13, 39600, Note_on_c, 12, 52, 0
13, 39720, Note_on_c, 12, 52, 60
13, 39750, Note_on_c, 12, 52, 0
13, 39760, Note_on_c, 12, 52, 60
13, 39790, Note_on_c, 12, 52, 0
13, 39800, Note_on_c, 12, 52, 60
13, 39830, Note_on_c, 12, 52, 0
13, 39840, Note_on_c, 12, 53, 60
13, 40080, Note_on_c, 12, 53, 0
13, 40200, Note_on_c, 12, 55, 60
13, 40230, Note_on_c, 12, 55, 0
13, 40240, Note_on_c, 12, 55, 60
13, 40270, Note_on_c, 12, 55, 0
13, 40280, Note_on_c, 12, 55, 60
13, 40310, Note_on_c, 12, 55, 0
13, 40320, Note_on_c, 12, 56, 60
13, 40560, Note_on_c, 12, 56, 0
13, 40680, Note_on_c, 12, 44, 60
13, 40710, Note_on_c, 12, 44, 0
13, 40720, Note_on_c, 12, 44, 60
13, 40750, Note_on_c, 12, 44, 0
13, 40760, Note_on_c, 12, 44, 60
13, 40790, Note_on_c, 12, 44, 0
13, 40800, Note_on_c, 12, 44, 70
13, 41040, Note_on_c, 12, 44, 0
13, 41160, Note_on_c, 12, 44, 60
13, 41190, Note_on_c, 12, 44, 0
13, 41200, Note_on_c, 12, 44, 60
13, 41230, Note_on_c, 12, 44, 0
13, 41240, Note_on_c, 12, 44, 60
13, 41270, Note_on_c, 12, 44, 0
13, 41280, Note_on_c, 12, 43, 60
13, 41520, Note_on_c, 12, 43, 0
13, 42120, Note_on_c, 12, 43, 60
13, 42150, Note_on_c, 12, 43, 0
13, 42160, Note_on_c, 12, 43, 60
13, 42190, Note_on_c, 12, 43, 0
13, 42200, Note_on_c, 12, 43, 60
13, 42230, Note_on_c, 12, 43, 0
13, 42240, Note_on_c, 12, 43, 60
13, 42480, Note_on_c, 12, 43, 0
13, 43080, Note_on_c, 12, 43, 60
13, 43110, Note_on_c, 12, 43, 0
13, 43120, Note_on_c, 12, 43, 60
13, 43150, Note_on_c, 12, 43, 0
13, 43160, Note_on_c, 12, 43, 60
13, 43190, Note_on_c, 12, 43, 0
13, 43200, Note_on_c, 12, 43, 60
13, 43200, Control_c, 12, 11, 80
13, 43250, Control_c, 12, 11, 82
13, 43300, Control_c, 12, 11, 84
13, 43350, Control_c, 12, 11, 87
13, 43400, Control_c, 12, 11, 89
13, 43440, Note_on_c, 12, 43, 0
13, 43440, Control_c, 12, 11, 91
13, 43490, Control_c, 12, 11, 94
13, 43540, Control_c, 12, 11, 96
13, 43590, Control_c, 12, 11, 99
13, 43640, Control_c, 12, 11, 101
13, 43680, Control_c, 12, 11, 103
13, 43730, Control_c, 12, 11, 105
13, 43780, Control_c, 12, 11, 108
13, 43830, Control_c, 12, 11, 110
13, 43880, Control_c, 12, 11, 113
13, 43920, Control_c, 12, 11, 115
13, 43970, Control_c, 12, 11, 117
13, 44020, Control_c, 12, 11, 120
13, 44040, Note_on_c, 12, 43, 60
13, 44070, Note_on_c, 12, 43, 0
13, 44070, Control_c, 12, 11, 122
13, 44080, Note_on_c, 12, 43, 60
13, 44110, Note_on_c, 12, 43, 0
13, 44120, Note_on_c, 12, 43, 60
13, 44120, Control_c, 12, 11, 125
13, 44150, Note_on_c, 12, 43, 0
13, 44160, Note_on_c, 12, 43, 60
13, 44160, Control_c, 12, 11, 127
13, 44210, Control_c, 12, 11, 125
13, 44260, Control_c, 12, 11, 123
13, 44310, Control_c, 12, 11, 120
13, 44360, Control_c, 12, 11, 118
13, 44370, Note_on_c, 12, 43, 0
13, 44400, Control_c, 12, 11, 116
13, 44450, Control_c, 12, 11, 113
13, 44500, Control_c, 12, 11, 111
13, 44520, Note_on_c, 12, 43, 60
13, 44550, Note_on_c, 12, 43, 0
13, 44550, Control_c, 12, 11, 108
13, 44560, Note_on_c, 12, 43, 60
13, 44590, Note_on_c, 12, 43, 0
13, 44600, Note_on_c, 12, 43, 60
13, 44600, Control_c, 12, 11, 106
13, 44630, Note_on_c, 12, 43, 0
13, 44640, Note_on_c, 12, 43, 60
13, 44640, Control_c, 12, 11, 104
13, 44690, Control_c, 12, 11, 102
13, 44740, Control_c, 12, 11, 99
13, 44790, Control_c, 12, 11, 97
13, 44840, Control_c, 12, 11, 94
13, 44850, Note_on_c, 12, 43, 0
13, 44880, Control_c, 12, 11, 92
13, 44930, Control_c, 12, 11, 90
13, 44980, Control_c, 12, 11, 87
13, 45000, Note_on_c, 12, 43, 60
13, 45030, Note_on_c, 12, 43, 0
13, 45030, Control_c, 12, 11, 84
13, 45040, Note_on_c, 12, 43, 60
13, 45070, Note_on_c, 12, 43, 0
13, 45080, Note_on_c, 12, 43, 60
13, 45080, Control_c, 12, 11, 80
13, 45110, Note_on_c, 12, 43, 0
13, 45120, Note_on_c, 12, 43, 60
13, 45330, Note_on_c, 12, 43, 0
13, 48840, Note_on_c, 12, 48, 60
13, 48870, Note_on_c, 12, 48, 0
13, 48880, Note_on_c, 12, 48, 60
13, 48910, Note_on_c, 12, 48, 0
13, 48920, Note_on_c, 12, 48, 60
13, 48950, Note_on_c, 12, 48, 0
13, 48960, Note_on_c, 12, 53, 60
13, 49170, Note_on_c, 12, 53, 0
13, 49800, Note_on_c, 12, 53, 60
13, 49830, Note_on_c, 12, 53, 0
13, 49840, Note_on_c, 12, 53, 60
13, 49870, Note_on_c, 12, 53, 0
13, 49880, Note_on_c, 12, 53, 60
13, 49910, Note_on_c, 12, 53, 0
13, 49920, Note_on_c, 12, 49, 60
13, 50130, Note_on_c, 12, 49, 0
13, 50760, Note_on_c, 12, 49, 60
13, 50790, Note_on_c, 12, 49, 0
13, 50800, Note_on_c, 12, 49, 60
13, 50830, Note_on_c, 12, 49, 0
13, 50840, Note_on_c, 12, 49, 60
13, 50870, Note_on_c, 12, 49, 0
13, 50880, Note_on_c, 12, 47, 60
13, 50880, Control_c, 12, 11, 80
13, 50910, Control_c, 12, 11, 81
13, 50930, Control_c, 12, 11, 82
13, 50950, Control_c, 12, 11, 83
13, 50970, Control_c, 12, 11, 84
13, 50990, Control_c, 12, 11, 85
13, 51010, Control_c, 12, 11, 86
13, 51030, Control_c, 12, 11, 87
13, 51050, Control_c, 12, 11, 88
13, 51070, Control_c, 12, 11, 89
13, 51090, Note_on_c, 12, 47, 0
13, 51090, Control_c, 12, 11, 90
13, 51110, Control_c, 12, 11, 91
13, 51130, Control_c, 12, 11, 92
13, 51150, Control_c, 12, 11, 93
13, 51170, Control_c, 12, 11, 94
13, 51190, Control_c, 12, 11, 95
13, 51210, Control_c, 12, 11, 96
13, 51230, Control_c, 12, 11, 97
13, 51240, Note_on_c, 12, 47, 60
13, 51250, Control_c, 12, 11, 98
13, 51270, Note_on_c, 12, 47, 0
13, 51270, Control_c, 12, 11, 99
13, 51280, Note_on_c, 12, 47, 60
13, 51290, Control_c, 12, 11, 100
13, 51310, Note_on_c, 12, 47, 0
13, 51310, Control_c, 12, 11, 101
13, 51320, Note_on_c, 12, 47, 60
13, 51330, Control_c, 12, 11, 102
13, 51350, Note_on_c, 12, 47, 0
13, 51350, Control_c, 12, 11, 103
13, 51360, Note_on_c, 12, 53, 60
13, 51380, Control_c, 12, 11, 104
13, 51400, Control_c, 12, 11, 105
13, 51420, Control_c, 12, 11, 106
13, 51440, Control_c, 12, 11, 107
13, 51460, Control_c, 12, 11, 108
13, 51480, Control_c, 12, 11, 109
13, 51500, Control_c, 12, 11, 110
13, 51520, Control_c, 12, 11, 111
13, 51540, Control_c, 12, 11, 112
13, 51560, Control_c, 12, 11, 113
13, 51570, Note_on_c, 12, 53, 0
13, 51580, Control_c, 12, 11, 114
13, 51600, Control_c, 12, 11, 115
13, 51620, Control_c, 12, 11, 116
13, 51640, Control_c, 12, 11, 117
13, 51660, Control_c, 12, 11, 118
13, 51680, Control_c, 12, 11, 119
13, 51700, Control_c, 12, 11, 120
13, 51720, Note_on_c, 12, 53, 60
13, 51720, Control_c, 12, 11, 121
13, 51740, Control_c, 12, 11, 122
13, 51750, Note_on_c, 12, 53, 0
13, 51760, Note_on_c, 12, 53, 60
13, 51760, Control_c, 12, 11, 123
13, 51780, Control_c, 12, 11, 124
13, 51790, Note_on_c, 12, 53, 0
13, 51800, Note_on_c, 12, 53, 60
13, 51800, Control_c, 12, 11, 125
13, 51820, Control_c, 12, 11, 127
13, 51830, Note_on_c, 12, 53, 0
13, 51840, Note_on_c, 12, 51, 60
13, 51930, Note_on_c, 12, 51, 0
13, 52080, Note_on_c, 12, 53, 60
13, 52170, Note_on_c, 12, 53, 0
13, 52560, Control_c, 12, 11, 80
13, 52810, Control_c, 12, 11, 80
13, 52830, Control_c, 12, 11, 82
13, 52860, Control_c, 12, 11, 85
13, 52880, Control_c, 12, 11, 87
13, 52910, Control_c, 12, 11, 90
13, 52930, Control_c, 12, 11, 92
13, 52960, Control_c, 12, 11, 95
13, 52980, Control_c, 12, 11, 97
13, 53010, Control_c, 12, 11, 100
13, 53030, Control_c, 12, 11, 102
13, 53060, Control_c, 12, 11, 105
13, 53080, Control_c, 12, 11, 107
13, 53110, Control_c, 12, 11, 110
13, 53130, Control_c, 12, 11, 112
13, 53160, Control_c, 12, 11, 115
13, 53180, Control_c, 12, 11, 117
13, 53210, Control_c, 12, 11, 120
13, 53230, Control_c, 12, 11, 122
13, 53260, Control_c, 12, 11, 125
13, 53280, Control_c, 12, 11, 127
13, 53310, Control_c, 12, 11, 125
13, 53330, Control_c, 12, 11, 123
13, 53360, Control_c, 12, 11, 120
13, 53380, Control_c, 12, 11, 118
13, 53400, Control_c, 12, 11, 116
13, 53430, Control_c, 12, 11, 113
13, 53450, Control_c, 12, 11, 111
13, 53480, Control_c, 12, 11, 108
13, 53500, Control_c, 12, 11, 106
13, 53520, Control_c, 12, 11, 104
13, 53550, Control_c, 12, 11, 101
13, 53570, Control_c, 12, 11, 99
13, 53600, Control_c, 12, 11, 96
13, 53620, Control_c, 12, 11, 94
13, 53640, Note_on_c, 12, 43, 60
13, 53640, Control_c, 12, 11, 92
13, 53670, Note_on_c, 12, 43, 0
13, 53670, Control_c, 12, 11, 89
13, 53680, Note_on_c, 12, 43, 60
13, 53690, Control_c, 12, 11, 86
13, 53710, Note_on_c, 12, 43, 0
13, 53720, Note_on_c, 12, 43, 60
13, 53720, Control_c, 12, 11, 83
13, 53740, Control_c, 12, 11, 80
13, 53750, Note_on_c, 12, 43, 0
13, 53760, Note_on_c, 12, 48, 65
13, 53970, Note_on_c, 12, 48, 0
13, 54120, Note_on_c, 12, 48, 65
13, 54150, Note_on_c, 12, 50, 65
13, 54155, Note_on_c, 12, 48, 0
13, 54180, Note_on_c, 12, 51, 65
13, 54185, Note_on_c, 12, 50, 0
13, 54210, Note_on_c, 12, 53, 65
13, 54215, Note_on_c, 12, 51, 0
13, 54240, Note_on_c, 12, 55, 65
13, 54245, Note_on_c, 12, 53, 0
13, 54330, Note_on_c, 12, 55, 0
13, 54600, Note_on_c, 12, 55, 65
13, 54639, Note_on_c, 12, 57, 65
13, 54650, Note_on_c, 12, 55, 0
13, 54679, Note_on_c, 12, 59, 65
13, 54689, Note_on_c, 12, 57, 0
13, 54720, Note_on_c, 12, 60, 65
13, 54729, Note_on_c, 12, 59, 0
13, 54960, Note_on_c, 12, 55, 65
13, 54990, Note_on_c, 12, 60, 0
13, 55200, Note_on_c, 12, 51, 65
13, 55230, Note_on_c, 12, 55, 0
13, 55410, Note_on_c, 12, 51, 0
13, 55440, Note_on_c, 12, 48, 65
13, 55650, Note_on_c, 12, 48, 0
13, 55680, Note_on_c, 12, 47, 65
13, 55920, Note_on_c, 12, 43, 65
13, 55950, Note_on_c, 12, 47, 0
13, 56160, Note_on_c, 12, 48, 75
13, 56190, Note_on_c, 12, 43, 0
13, 56400, Note_on_c, 12, 51, 65
13, 56430, Note_on_c, 12, 48, 0
13, 56610, Note_on_c, 12, 51, 0
13, 56640, Note_on_c, 12, 55, 65
13, 57120, Note_on_c, 12, 43, 65
13, 57150, Note_on_c, 12, 55, 0
13, 57210, Note_on_c, 12, 43, 0
13, 59400, Note_on_c, 12, 54, 60
13, 59430, Note_on_c, 12, 54, 0
13, 59440, Note_on_c, 12, 54, 60
13, 59470, Note_on_c, 12, 54, 0
13, 59480, Note_on_c, 12, 54, 60
13, 59510, Note_on_c, 12, 54, 0
13, 59520, Note_on_c, 12, 55, 60
13, 59730, Note_on_c, 12, 55, 0
13, 59880, Note_on_c, 12, 55, 60
13, 59910, Note_on_c, 12, 55, 0
13, 59920, Note_on_c, 12, 55, 60
13, 59950, Note_on_c, 12, 55, 0
13, 59960, Note_on_c, 12, 55, 60
13, 59990, Note_on_c, 12, 55, 0
13, 60000, Note_on_c, 12, 43, 60
13, 60210, Note_on_c, 12, 43, 0
13, 60360, Note_on_c, 12, 43, 60
13, 60390, Note_on_c, 12, 43, 0
13, 60400, Note_on_c, 12, 43, 60
13, 60430, Note_on_c, 12, 43, 0
13, 60440, Note_on_c, 12, 43, 60
13, 60470, Note_on_c, 12, 43, 0
13, 60480, Note_on_c, 12, 48, 60
13, 60690, Note_on_c, 12, 48, 0
13, 61440, Note_on_c, 12, 55, 60
13, 61650, Note_on_c, 12, 55, 0
13, 61800, Note_on_c, 12, 55, 60
13, 61830, Note_on_c, 12, 55, 0
13, 61840, Note_on_c, 12, 55, 60
13, 61870, Note_on_c, 12, 55, 0
13, 61880, Note_on_c, 12, 55, 60
13, 61910, Note_on_c, 12, 55, 0
13, 61920, Note_on_c, 12, 43, 60
13, 62130, Note_on_c, 12, 43, 0
13, 62280, Note_on_c, 12, 43, 60
13, 62310, Note_on_c, 12, 43, 0
13, 62320, Note_on_c, 12, 43, 60
13, 62350, Note_on_c, 12, 43, 0
13, 62360, Note_on_c, 12, 43, 60
13, 62390, Note_on_c, 12, 43, 0
13, 62400, Note_on_c, 12, 48, 60
13, 62610, Note_on_c, 12, 48, 0
13, 62640, Note_on_c, 12, 56, 60
13, 62640, Control_c, 12, 11, 80
13, 62650, Control_c, 12, 11, 83
13, 62660, Control_c, 12, 11, 86
13, 62670, Control_c, 12, 11, 90
13, 62680, Control_c, 12, 11, 93
13, 62690, Control_c, 12, 11, 96
13, 62700, Control_c, 12, 11, 100
13, 62710, Control_c, 12, 11, 103
13, 62720, Control_c, 12, 11, 106
13, 62740, Control_c, 12, 11, 110
13, 62750, Control_c, 12, 11, 108
13, 62760, Control_c, 12, 11, 106
13, 62770, Control_c, 12, 11, 104
13, 62780, Control_c, 12, 11, 102
13, 62790, Control_c, 12, 11, 100
13, 62800, Control_c, 12, 11, 98
13, 62810, Control_c, 12, 11, 95
13, 62820, Control_c, 12, 11, 93
13, 62830, Control_c, 12, 11, 91
13, 62840, Control_c, 12, 11, 89
13, 62850, Control_c, 12, 11, 87
13, 62860, Control_c, 12, 11, 83
13, 62870, Control_c, 12, 11, 80
13, 62880, Note_on_c, 12, 55, 60
13, 62910, Note_on_c, 12, 56, 0
13, 63120, Note_on_c, 12, 51, 60
13, 63120, Control_c, 12, 11, 80
13, 63130, Control_c, 12, 11, 83
13, 63140, Control_c, 12, 11, 86
13, 63150, Note_on_c, 12, 55, 0
13, 63150, Control_c, 12, 11, 90
13, 63160, Control_c, 12, 11, 93
13, 63170, Control_c, 12, 11, 96
13, 63180, Control_c, 12, 11, 100
13, 63190, Control_c, 12, 11, 103
13, 63200, Control_c, 12, 11, 106
13, 63220, Control_c, 12, 11, 110
13, 63230, Control_c, 12, 11, 108
13, 63240, Control_c, 12, 11, 106
13, 63250, Control_c, 12, 11, 104
13, 63260, Control_c, 12, 11, 102
13, 63270, Control_c, 12, 11, 100
13, 63280, Control_c, 12, 11, 98
13, 63290, Control_c, 12, 11, 95
13, 63300, Control_c, 12, 11, 93
13, 63310, Control_c, 12, 11, 91
13, 63320, Control_c, 12, 11, 89
13, 63330, Control_c, 12, 11, 87
13, 63340, Control_c, 12, 11, 83
13, 63350, Control_c, 12, 11, 80
13, 63360, Note_on_c, 12, 48, 60
13, 63390, Note_on_c, 12, 51, 0
13, 63570, Note_on_c, 12, 48, 0
13, 63600, Note_on_c, 12, 44, 70
13, 63765, Note_on_c, 12, 44, 0
13, 63780, Note_on_c, 12, 53, 70
13, 63825, Note_on_c, 12, 53, 0
13, 63840, Note_on_c, 12, 50, 70
13, 63930, Note_on_c, 12, 50, 0
13, 64080, Note_on_c, 12, 55, 70
13, 64170, Note_on_c, 12, 55, 0
13, 64320, Note_on_c, 12, 48, 60
13, 64410, Note_on_c, 12, 48, 0
13, 64800, Note_on_c, 12, 48, 60
13, 64890, Note_on_c, 12, 48, 0
13, 65280, Note_on_c, 12, 48, 60
13, 65370, Note_on_c, 12, 48, 0
13, 65520, Note_on_c, 12, 43, 60
13, 65580, Note_on_c, 12, 43, 0
13, 65760, Note_on_c, 12, 45, 60
13, 65820, Note_on_c, 12, 45, 0
13, 66000, Note_on_c, 12, 47, 60
13, 66060, Note_on_c, 12, 47, 0
13, 66240, Note_on_c, 12, 48, 50
13, 67410, Note_on_c, 12, 48, 0
13, 67440, Note_on_c, 12, 48, 50
13, 67530, Note_on_c, 12, 48, 0
13, 67680, Note_on_c, 12, 50, 50
13, 67770, Note_on_c, 12, 50, 0
13, 67920, Note_on_c, 12, 52, 50
13, 68010, Note_on_c, 12, 52, 0
13, 68160, Note_on_c, 12, 53, 50
13, 69330, Note_on_c, 12, 53, 0
13, 69390, Note_on_c, 12, 50, 50
13, 69480, Note_on_c, 12, 50, 0
13, 69630, Note_on_c, 12, 52, 50
13, 69720, Note_on_c, 12, 52, 0
13, 69870, Note_on_c, 12, 53, 50
13, 69960, Note_on_c, 12, 53, 0
13, 70080, Note_on_c, 12, 55, 50
13, 71010, Note_on_c, 12, 55, 0
13, 71040, Note_on_c, 12, 56, 50
13, 71130, Note_on_c, 12, 56, 0
13, 71280, Note_on_c, 12, 62, 50
13, 71370, Note_on_c, 12, 62, 0
13, 71520, Note_on_c, 12, 59, 55
13, 71610, Note_on_c, 12, 59, 0
13, 71760, Note_on_c, 12, 56, 61
13, 71850, Note_on_c, 12, 56, 0
13, 72000, Note_on_c, 12, 57, 67
13, 72090, Note_on_c, 12, 57, 0
13, 72240, Note_on_c, 12, 48, 72
13, 72330, Note_on_c, 12, 48, 0
13, 72480, Note_on_c, 12, 50, 78
13, 72570, Note_on_c, 12, 50, 0
13, 72720, Note_on_c, 12, 50, 84
13, 72810, Note_on_c, 12, 50, 0
13, 72960, Note_on_c, 12, 43, 90
13, 72990, Note_on_c, 12, 43, 0
13, 73000, Note_on_c, 12, 43, 90
13, 73030, Note_on_c, 12, 43, 0
13, 73040, Note_on_c, 12, 43, 90
13, 73070, Note_on_c, 12, 43, 0
13, 73080, Note_on_c, 12, 43, 90
13, 73110, Note_on_c, 12, 43, 0
13, 73120, Note_on_c, 12, 43, 90
13, 73150, Note_on_c, 12, 43, 0
13, 73160, Note_on_c, 12, 43, 90
13, 73190, Note_on_c, 12, 43, 0
13, 73200, Note_on_c, 12, 43, 90
13, 73230, Note_on_c, 12, 43, 0
13, 73240, Note_on_c, 12, 43, 90
13, 73270, Note_on_c, 12, 43, 0
13, 73280, Note_on_c, 12, 43, 90
13, 73310, Note_on_c, 12, 43, 0
13, 73320, Note_on_c, 12, 43, 90
13, 73350, Note_on_c, 12, 43, 0
13, 73360, Note_on_c, 12, 43, 90
13, 73390, Note_on_c, 12, 43, 0
13, 73400, Note_on_c, 12, 43, 90
13, 73430, Note_on_c, 12, 43, 0
13, 73440, Note_on_c, 12, 43, 90
13, 73530, Note_on_c, 12, 43, 0
13, 73920, Note_on_c, 12, 43, 90
13, 73950, Note_on_c, 12, 43, 0
13, 73960, Note_on_c, 12, 43, 90
13, 73960, Note_on_c, 12, 55, 90
13, 73990, Note_on_c, 12, 43, 0
13, 73990, Note_on_c, 12, 55, 0
13, 74000, Note_on_c, 12, 43, 90
13, 74000, Note_on_c, 12, 55, 90
13, 74030, Note_on_c, 12, 43, 0
13, 74030, Note_on_c, 12, 55, 0
13, 74040, Note_on_c, 12, 43, 90
13, 74040, Note_on_c, 12, 55, 90
13, 74070, Note_on_c, 12, 43, 0
13, 74070, Note_on_c, 12, 55, 0
13, 74080, Note_on_c, 12, 43, 90
13, 74080, Note_on_c, 12, 55, 90
13, 74110, Note_on_c, 12, 43, 0
13, 74110, Note_on_c, 12, 55, 0
13, 74120, Note_on_c, 12, 43, 90
13, 74120, Note_on_c, 12, 55, 90
13, 74150, Note_on_c, 12, 43, 0
13, 74150, Note_on_c, 12, 55, 0
13, 74160, Note_on_c, 12, 43, 90
13, 74160, Note_on_c, 12, 55, 90
13, 74190, Note_on_c, 12, 43, 0
13, 74190, Note_on_c, 12, 55, 0
13, 74200, Note_on_c, 12, 43, 90
13, 74200, Note_on_c, 12, 55, 90
13, 74230, Note_on_c, 12, 43, 0
13, 74230, Note_on_c, 12, 55, 0
13, 74240, Note_on_c, 12, 43, 90
13, 74240, Note_on_c, 12, 55, 90
13, 74270, Note_on_c, 12, 43, 0
13, 74270, Note_on_c, 12, 55, 0
13, 74280, Note_on_c, 12, 43, 90
13, 74280, Note_on_c, 12, 55, 90
13, 74310, Note_on_c, 12, 43, 0
13, 74310, Note_on_c, 12, 55, 0
13, 74320, Note_on_c, 12, 43, 90
13, 74320, Note_on_c, 12, 55, 90
13, 74350, Note_on_c, 12, 43, 0
13, 74350, Note_on_c, 12, 55, 0
13, 74360, Note_on_c, 12, 43, 90
13, 74360, Note_on_c, 12, 55, 90
13, 74390, Note_on_c, 12, 43, 0
13, 74390, Note_on_c, 12, 55, 0
13, 74400, Note_on_c, 12, 43, 90
13, 74400, Note_on_c, 12, 55, 90
13, 74490, Note_on_c, 12, 43, 0
13, 74490, Note_on_c, 12, 55, 0
13, 74880, Note_on_c, 12, 43, 90
13, 74970, Note_on_c, 12, 43, 0
13, 75360, Note_on_c, 12, 43, 90
13, 75450, Note_on_c, 12, 43, 0
13, 75840, Note_on_c, 12, 43, 90
13, 75930, Note_on_c, 12, 43, 0
13, 76800, Note_on_c, 12, 58, 50
13, 77280, Note_on_c, 12, 55, 50
13, 77310, Note_on_c, 12, 58, 0
13, 77520, Note_on_c, 12, 52, 50
13, 77550, Note_on_c, 12, 55, 0
13, 77730, Note_on_c, 12, 52, 0
13, 77760, Note_on_c, 12, 48, 50
13, 78000, Note_on_c, 12, 52, 50
13, 78030, Note_on_c, 12, 48, 0
13, 78240, Note_on_c, 12, 55, 50
13, 78270, Note_on_c, 12, 52, 0
13, 78480, Note_on_c, 12, 58, 50
13, 78510, Note_on_c, 12, 55, 0
13, 78690, Note_on_c, 12, 58, 0
13, 78720, Note_on_c, 12, 57, 50
13, 78720, Control_c, 12, 11, 80
13, 78790, Control_c, 12, 11, 81
13, 78850, Control_c, 12, 11, 82
13, 78920, Control_c, 12, 11, 83
13, 78960, Note_on_c, 12, 53, 50
13, 78980, Control_c, 12, 11, 84
13, 78990, Note_on_c, 12, 57, 0
13, 79040, Control_c, 12, 11, 85
13, 79110, Control_c, 12, 11, 86
13, 79170, Control_c, 12, 11, 87
13, 79200, Note_on_c, 12, 52, 50
13, 79230, Note_on_c, 12, 53, 0
13, 79240, Control_c, 12, 11, 88
13, 79300, Control_c, 12, 11, 89
13, 79360, Control_c, 12, 11, 90
13, 79430, Control_c, 12, 11, 91
13, 79440, Note_on_c, 12, 58, 50
13, 79470, Note_on_c, 12, 52, 0
13, 79490, Control_c, 12, 11, 92
13, 79560, Control_c, 12, 11, 93
13, 79620, Control_c, 12, 11, 94
13, 79650, Note_on_c, 12, 58, 0
13, 79680, Note_on_c, 12, 57, 50
13, 79680, Control_c, 12, 11, 95
13, 79750, Control_c, 12, 11, 96
13, 79810, Control_c, 12, 11, 97
13, 79880, Control_c, 12, 11, 98
13, 79920, Note_on_c, 12, 53, 50
13, 79940, Control_c, 12, 11, 99
13, 79950, Note_on_c, 12, 57, 0
13, 80000, Control_c, 12, 11, 100
13, 80070, Control_c, 12, 11, 101
13, 80130, Control_c, 12, 11, 102
13, 80160, Note_on_c, 12, 52, 50
13, 80190, Note_on_c, 12, 53, 0
13, 80200, Control_c, 12, 11, 103
13, 80260, Control_c, 12, 11, 104
13, 80320, Control_c, 12, 11, 105
13, 80390, Control_c, 12, 11, 106
13, 80400, Note_on_c, 12, 58, 50
13, 80430, Note_on_c, 12, 52, 0
13, 80450, Control_c, 12, 11, 107
13, 80520, Control_c, 12, 11, 108
13, 80580, Control_c, 12, 11, 110
13, 80610, Note_on_c, 12, 58, 0
13, 80634, Control_c, 12, 11, 80
13, 80640, Note_on_c, 12, 57, 50
13, 80730, Note_on_c, 12, 57, 0
13, 80880, Note_on_c, 12, 49, 50
13, 80970, Note_on_c, 12, 49, 0
13, 81120, Note_on_c, 12, 50, 50
13, 81210, Note_on_c, 12, 50, 0
13, 81360, Note_on_c, 12, 52, 50
13, 81450, Note_on_c, 12, 52, 0
13, 81600, Note_on_c, 12, 53, 50
13, 81690, Note_on_c, 12, 53, 0
13, 81840, Note_on_c, 12, 52, 50
13, 81930, Note_on_c, 12, 52, 0
13, 82080, Note_on_c, 12, 53, 50
13, 82170, Note_on_c, 12, 53, 0
13, 82320, Note_on_c, 12, 54, 50
13, 82410, Note_on_c, 12, 54, 0
13, 82560, Note_on_c, 12, 55, 50
13, 82650, Note_on_c, 12, 55, 0
13, 82800, Note_on_c, 12, 53, 50
13, 82890, Note_on_c, 12, 53, 0
13, 83040, Note_on_c, 12, 52, 50
13, 83130, Note_on_c, 12, 52, 0
13, 83280, Note_on_c, 12, 48, 50
13, 83370, Note_on_c, 12, 48, 0
13, 83520, Note_on_c, 12, 55, 50
13, 83610, Note_on_c, 12, 55, 0
13, 83760, Note_on_c, 12, 53, 50
13, 83850, Note_on_c, 12, 53, 0
13, 84000, Note_on_c, 12, 52, 50
13, 84090, Note_on_c, 12, 52, 0
13, 84240, Note_on_c, 12, 48, 50
13, 84330, Note_on_c, 12, 48, 0
13, 84480, Note_on_c, 12, 43, 50
13, 84720, Note_on_c, 12, 43, 0
13, 86400, Note_on_c, 12, 52, 50
13, 86640, Note_on_c, 12, 52, 0
13, 87360, Note_on_c, 12, 48, 50
13, 87440, Note_on_c, 12, 52, 50
13, 87450, Note_on_c, 12, 48, 0
13, 87500, Note_on_c, 12, 52, 0
13, 87520, Note_on_c, 12, 55, 50
13, 87565, Note_on_c, 12, 55, 0
13, 87600, Note_on_c, 12, 48, 50
13, 87680, Note_on_c, 12, 52, 50
13, 87690, Note_on_c, 12, 48, 0
13, 87740, Note_on_c, 12, 52, 0
13, 87760, Note_on_c, 12, 55, 50
13, 87805, Note_on_c, 12, 55, 0
13, 87840, Note_on_c, 12, 48, 50
13, 87920, Note_on_c, 12, 52, 50
13, 87930, Note_on_c, 12, 48, 0
13, 87980, Note_on_c, 12, 52, 0
13, 88000, Note_on_c, 12, 55, 50
13, 88045, Note_on_c, 12, 55, 0
13, 88080, Note_on_c, 12, 48, 50
13, 88160, Note_on_c, 12, 52, 50
13, 88170, Note_on_c, 12, 48, 0
13, 88220, Note_on_c, 12, 52, 0
13, 88240, Note_on_c, 12, 55, 50
13, 88285, Note_on_c, 12, 55, 0
13, 88320, Note_on_c, 12, 45, 50
13, 88400, Note_on_c, 12, 48, 50
13, 88410, Note_on_c, 12, 45, 0
13, 88460, Note_on_c, 12, 48, 0
13, 88480, Note_on_c, 12, 53, 50
13, 88525, Note_on_c, 12, 53, 0
13, 88560, Note_on_c, 12, 45, 50
13, 88640, Note_on_c, 12, 48, 50
13, 88650, Note_on_c, 12, 45, 0
13, 88700, Note_on_c, 12, 48, 0
13, 88720, Note_on_c, 12, 53, 50
13, 88765, Note_on_c, 12, 53, 0
13, 88800, Note_on_c, 12, 45, 50
13, 88880, Note_on_c, 12, 48, 50
13, 88890, Note_on_c, 12, 45, 0
13, 88940, Note_on_c, 12, 48, 0
13, 88960, Note_on_c, 12, 53, 50
13, 89005, Note_on_c, 12, 53, 0
13, 89040, Note_on_c, 12, 45, 50
13, 89120, Note_on_c, 12, 48, 50
13, 89130, Note_on_c, 12, 45, 0
13, 89180, Note_on_c, 12, 48, 0
13, 89200, Note_on_c, 12, 53, 50
13, 89245, Note_on_c, 12, 53, 0
13, 89280, Note_on_c, 12, 41, 50
13, 89360, Note_on_c, 12, 45, 50
13, 89370, Note_on_c, 12, 41, 0
13, 89420, Note_on_c, 12, 45, 0
13, 89440, Note_on_c, 12, 50, 50
13, 89485, Note_on_c, 12, 50, 0
13, 89520, Note_on_c, 12, 41, 50
13, 89600, Note_on_c, 12, 45, 50
13, 89610, Note_on_c, 12, 41, 0
13, 89660, Note_on_c, 12, 45, 0
13, 89680, Note_on_c, 12, 50, 50
13, 89725, Note_on_c, 12, 50, 0
13, 89760, Note_on_c, 12, 41, 50
13, 89840, Note_on_c, 12, 45, 50
13, 89850, Note_on_c, 12, 41, 0
13, 89900, Note_on_c, 12, 45, 0
13, 89920, Note_on_c, 12, 50, 50
13, 89965, Note_on_c, 12, 50, 0
13, 90000, Note_on_c, 12, 41, 50
13, 90080, Note_on_c, 12, 45, 50
13, 90090, Note_on_c, 12, 41, 0
13, 90140, Note_on_c, 12, 45, 0
13, 90160, Note_on_c, 12, 50, 50
13, 90205, Note_on_c, 12, 50, 0
13, 90240, Note_on_c, 12, 43, 50
13, 90320, Note_on_c, 12, 48, 50
13, 90330, Note_on_c, 12, 43, 0
13, 90380, Note_on_c, 12, 48, 0
13, 90400, Note_on_c, 12, 52, 50
13, 90445, Note_on_c, 12, 52, 0
13, 90480, Note_on_c, 12, 43, 50
13, 90560, Note_on_c, 12, 48, 50
13, 90570, Note_on_c, 12, 43, 0
13, 90620, Note_on_c, 12, 48, 0
13, 90640, Note_on_c, 12, 52, 50
13, 90685, Note_on_c, 12, 52, 0
13, 90720, Note_on_c, 12, 43, 50
13, 90800, Note_on_c, 12, 47, 50
13, 90810, Note_on_c, 12, 43, 0
13, 90860, Note_on_c, 12, 47, 0
13, 90880, Note_on_c, 12, 50, 50
13, 90925, Note_on_c, 12, 50, 0
13, 90960, Note_on_c, 12, 43, 50
13, 91040, Note_on_c, 12, 47, 50
13, 91050, Note_on_c, 12, 43, 0
13, 91100, Note_on_c, 12, 47, 0
13, 91120, Note_on_c, 12, 50, 50
13, 91165, Note_on_c, 12, 50, 0
13, 91200, Note_on_c, 12, 40, 50
13, 91280, Note_on_c, 12, 43, 50
13, 91290, Note_on_c, 12, 40, 0
13, 91340, Note_on_c, 12, 43, 0
13, 91360, Note_on_c, 12, 48, 50
13, 91405, Note_on_c, 12, 48, 0
13, 91440, Note_on_c, 12, 40, 50
13, 91520, Note_on_c, 12, 43, 50
13, 91530, Note_on_c, 12, 40, 0
13, 91580, Note_on_c, 12, 43, 0
13, 91600, Note_on_c, 12, 48, 50
13, 91645, Note_on_c, 12, 48, 0
13, 91680, Note_on_c, 12, 41, 50
13, 91760, Note_on_c, 12, 45, 50
13, 91770, Note_on_c, 12, 41, 0
13, 91820, Note_on_c, 12, 45, 0
13, 91840, Note_on_c, 12, 50, 50
13, 91885, Note_on_c, 12, 50, 0
13, 91920, Note_on_c, 12, 41, 50
13, 92000, Note_on_c, 12, 45, 50
13, 92010, Note_on_c, 12, 41, 0
13, 92060, Note_on_c, 12, 45, 0
13, 92080, Note_on_c, 12, 50, 50
13, 92125, Note_on_c, 12, 50, 0
13, 92160, Note_on_c, 12, 43, 50
13, 92220, Note_on_c, 12, 43, 0
13, 93120, Note_on_c, 12, 43, 50
13, 93180, Note_on_c, 12, 43, 0
13, 93200, Note_on_c, 12, 43, 50
13, 93260, Note_on_c, 12, 43, 0
13, 93280, Note_on_c, 12, 43, 50
13, 93340, Note_on_c, 12, 43, 0
13, 93360, Note_on_c, 12, 43, 50
13, 93420, Note_on_c, 12, 43, 0
13, 93440, Note_on_c, 12, 43, 50
13, 93500, Note_on_c, 12, 43, 0
13, 93520, Note_on_c, 12, 43, 50
13, 93580, Note_on_c, 12, 43, 0
13, 93600, Note_on_c, 12, 43, 50
13, 93660, Note_on_c, 12, 43, 0
13, 93680, Note_on_c, 12, 43, 50
13, 93740, Note_on_c, 12, 43, 0
13, 93760, Note_on_c, 12, 43, 50
13, 93820, Note_on_c, 12, 43, 0
13, 93840, Note_on_c, 12, 43, 55
13, 93900, Note_on_c, 12, 43, 0
13, 93920, Note_on_c, 12, 43, 60
13, 93980, Note_on_c, 12, 43, 0
13, 94000, Note_on_c, 12, 43, 65
13, 94060, Note_on_c, 12, 43, 0
13, 94080, Note_on_c, 12, 48, 70
13, 94110, Note_on_c, 12, 48, 0
13, 94120, Note_on_c, 12, 60, 70
13, 94150, Note_on_c, 12, 60, 0
13, 94160, Note_on_c, 12, 60, 70
13, 94190, Note_on_c, 12, 60, 0
13, 94200, Note_on_c, 12, 60, 70
13, 94230, Note_on_c, 12, 60, 0
13, 94240, Note_on_c, 12, 60, 70
13, 94270, Note_on_c, 12, 60, 0
13, 94280, Note_on_c, 12, 60, 70
13, 94310, Note_on_c, 12, 60, 0
13, 94320, Note_on_c, 12, 60, 70
13, 94350, Note_on_c, 12, 60, 0
13, 94360, Note_on_c, 12, 60, 70
13, 94390, Note_on_c, 12, 60, 0
13, 94400, Note_on_c, 12, 60, 70
13, 94430, Note_on_c, 12, 60, 0
13, 94440, Note_on_c, 12, 60, 70
13, 94470, Note_on_c, 12, 60, 0
13, 94480, Note_on_c, 12, 60, 70
13, 94510, Note_on_c, 12, 60, 0
13, 94520, Note_on_c, 12, 60, 70
13, 94550, Note_on_c, 12, 60, 0
13, 94560, Note_on_c, 12, 60, 70
13, 94650, Note_on_c, 12, 60, 0
13, 95040, Note_on_c, 12, 48, 70
13, 95070, Note_on_c, 12, 48, 0
13, 95080, Note_on_c, 12, 60, 70
13, 95110, Note_on_c, 12, 60, 0
13, 95120, Note_on_c, 12, 60, 70
13, 95150, Note_on_c, 12, 60, 0
13, 95160, Note_on_c, 12, 60, 70
13, 95190, Note_on_c, 12, 60, 0
13, 95200, Note_on_c, 12, 60, 70
13, 95230, Note_on_c, 12, 60, 0
13, 95240, Note_on_c, 12, 60, 70
13, 95270, Note_on_c, 12, 60, 0
13, 95280, Note_on_c, 12, 60, 70
13, 95310, Note_on_c, 12, 60, 0
13, 95320, Note_on_c, 12, 60, 70
13, 95350, Note_on_c, 12, 60, 0
13, 95360, Note_on_c, 12, 60, 70
13, 95390, Note_on_c, 12, 60, 0
13, 95400, Note_on_c, 12, 60, 70
13, 95430, Note_on_c, 12, 60, 0
13, 95440, Note_on_c, 12, 60, 70
13, 95470, Note_on_c, 12, 60, 0
13, 95480, Note_on_c, 12, 60, 70
13, 95510, Note_on_c, 12, 60, 0
13, 95520, Note_on_c, 12, 60, 70
13, 95610, Note_on_c, 12, 60, 0
13, 96000, Note_on_c, 12, 48, 70
13, 96090, Note_on_c, 12, 48, 0
13, 96480, Note_on_c, 12, 48, 70
13, 96570, Note_on_c, 12, 48, 0
13, 96960, Control_c, 12, 11, 80
13, 96970, Control_c, 12, 11, 83
13, 96980, Control_c, 12, 11, 87
13, 96990, Control_c, 12, 11, 91
13, 97000, Control_c, 12, 11, 95
13, 97010, Control_c, 12, 11, 99
13, 97020, Control_c, 12, 11, 103
13, 97030, Control_c, 12, 11, 107
13, 97040, Control_c, 12, 11, 111
13, 97050, Control_c, 12, 11, 115
13, 97060, Control_c, 12, 11, 119
13, 97070, Control_c, 12, 11, 123
13, 97080, Control_c, 12, 11, 127
13, 97100, Control_c, 12, 11, 126
13, 97110, Control_c, 12, 11, 125
13, 97120, Control_c, 12, 11, 124
13, 97140, Control_c, 12, 11, 123
13, 97150, Control_c, 12, 11, 122
13, 97160, Control_c, 12, 11, 121
13, 97170, Control_c, 12, 11, 120
13, 97190, Control_c, 12, 11, 119
13, 97200, Control_c, 12, 11, 118
13, 97210, Control_c, 12, 11, 117
13, 97230, Control_c, 12, 11, 116
13, 97240, Control_c, 12, 11, 115
13, 97250, Control_c, 12, 11, 114
13, 97260, Control_c, 12, 11, 113
13, 97280, Control_c, 12, 11, 112
13, 97290, Control_c, 12, 11, 111
13, 97300, Control_c, 12, 11, 110
13, 97310, Control_c, 12, 11, 109
13, 97330, Control_c, 12, 11, 108
13, 97340, Control_c, 12, 11, 107
13, 97350, Control_c, 12, 11, 106
13, 97370, Control_c, 12, 11, 105
13, 97380, Control_c, 12, 11, 104
13, 97390, Control_c, 12, 11, 103
13, 97400, Control_c, 12, 11, 102
13, 97420, Control_c, 12, 11, 101
13, 97430, Control_c, 12, 11, 100
13, 97440, Control_c, 12, 11, 99
13, 97460, Control_c, 12, 11, 98
13, 97470, Control_c, 12, 11, 97
13, 97480, Control_c, 12, 11, 96
13, 97490, Control_c, 12, 11, 95
13, 97510, Control_c, 12, 11, 94
13, 97520, Control_c, 12, 11, 93
13, 97530, Control_c, 12, 11, 92
13, 97540, Control_c, 12, 11, 91
13, 97560, Control_c, 12, 11, 90
13, 97570, Control_c, 12, 11, 89
13, 97580, Control_c, 12, 11, 88
13, 97600, Control_c, 12, 11, 87
13, 97610, Control_c, 12, 11, 86
13, 97620, Control_c, 12, 11, 85
13, 97630, Control_c, 12, 11, 84
13, 97650, Control_c, 12, 11, 83
13, 97660, Control_c, 12, 11, 82
13, 97670, Control_c, 12, 11, 81
13, 98880, Control_c, 12, 11, 80
13, 98920, Control_c, 12, 11, 82
13, 98950, Control_c, 12, 11, 83
13, 98980, Control_c, 12, 11, 85
13, 99010, Control_c, 12, 11, 86
13, 99040, Control_c, 12, 11, 88
13, 99070, Control_c, 12, 11, 89
13, 99100, Control_c, 12, 11, 91
13, 99130, Control_c, 12, 11, 92
13, 99160, Control_c, 12, 11, 94
13, 99190, Control_c, 12, 11, 95
13, 99230, Control_c, 12, 11, 97
13, 99260, Control_c, 12, 11, 99
13, 99290, Control_c, 12, 11, 100
13, 99300, Note_on_c, 12, 53, 67
13, 99320, Control_c, 12, 11, 102
13, 99345, Note_on_c, 12, 53, 0
13, 99350, Control_c, 12, 11, 103
13, 99360, Note_on_c, 12, 49, 70
13, 99380, Control_c, 12, 11, 105
13, 99410, Control_c, 12, 11, 106
13, 99440, Control_c, 12, 11, 108
13, 99450, Note_on_c, 12, 49, 0
13, 99470, Control_c, 12, 11, 109
13, 99500, Control_c, 12, 11, 111
13, 99540, Control_c, 12, 11, 113
13, 99570, Control_c, 12, 11, 114
13, 99600, Note_on_c, 12, 48, 80
13, 99600, Control_c, 12, 11, 116
13, 99630, Control_c, 12, 11, 117
13, 99660, Control_c, 12, 11, 119
13, 99690, Note_on_c, 12, 48, 0
13, 99690, Control_c, 12, 11, 120
13, 99720, Control_c, 12, 11, 122
13, 99750, Control_c, 12, 11, 124
13, 99780, Control_c, 12, 11, 127
13, 99837, Control_c, 12, 11, 80
13, 99840, Note_on_c, 12, 47, 45
13, 100080, Note_on_c, 12, 47, 0
13, 100800, Note_on_c, 12, 48, 40
13, 101280, Note_on_c, 12, 48, 0
13, 101760, Note_on_c, 12, 48, 40
13, 102480, Note_on_c, 12, 48, 0
13, 102720, Note_on_c, 12, 48, 40
13, 103170, Note_on_c, 12, 48, 0
13, 103200, Note_on_c, 12, 48, 40
13, 103650, Note_on_c, 12, 48, 0
13, 103680, Note_on_c, 12, 48, 40
13, 104160, Note_on_c, 12, 47, 40
13, 104190, Note_on_c, 12, 48, 0
13, 104400, Note_on_c, 12, 47, 0
13, 104640, Note_on_c, 12, 47, 40
13, 105120, Note_on_c, 12, 47, 0
13, 105360, Note_on_c, 12, 53, 40
13, 105420, Note_on_c, 12, 51, 40
13, 105435, Note_on_c, 12, 53, 0
13, 105480, Note_on_c, 12, 50, 40
13, 105495, Note_on_c, 12, 51, 0
13, 105540, Note_on_c, 12, 48, 40
13, 105555, Note_on_c, 12, 50, 0
13, 105600, Note_on_c, 12, 47, 40
13, 105615, Note_on_c, 12, 48, 0
13, 105840, Note_on_c, 12, 47, 0
13, 106440, Note_on_c, 12, 58, 40
13, 106500, Note_on_c, 12, 60, 40
13, 106515, Note_on_c, 12, 58, 0
13, 106560, Note_on_c, 12, 61, 40
13, 106575, Note_on_c, 12, 60, 0
13, 106800, Note_on_c, 12, 61, 0
13, 107280, Note_on_c, 12, 58, 40
13, 107340, Note_on_c, 12, 56, 40
13, 107355, Note_on_c, 12, 58, 0
13, 107400, Note_on_c, 12, 55, 40
13, 107415, Note_on_c, 12, 56, 0
13, 107460, Note_on_c, 12, 53, 40
13, 107475, Note_on_c, 12, 55, 0
13, 107505, Note_on_c, 12, 53, 0
13, 107520, Note_on_c, 12, 52, 40
13, 108330, Note_on_c, 12, 52, 0
13, 108360, Note_on_c, 12, 48, 40
13, 108400, Note_on_c, 12, 50, 40
13, 108405, Note_on_c, 12, 48, 0
13, 108440, Note_on_c, 12, 52, 40
13, 108445, Note_on_c, 12, 50, 0
13, 108480, Note_on_c, 12, 53, 40
13, 108485, Note_on_c, 12, 52, 0
13, 108720, Note_on_c, 12, 53, 0
13, 108840, Note_on_c, 12, 47, 40
13, 108870, Note_on_c, 12, 47, 0
13, 108880, Note_on_c, 12, 47, 40
13, 108910, Note_on_c, 12, 47, 0
13, 108920, Note_on_c, 12, 47, 40
13, 108950, Note_on_c, 12, 47, 0
13, 108960, Note_on_c, 12, 48, 40
13, 109140, Note_on_c, 12, 48, 0
13, 109320, Note_on_c, 12, 48, 46
13, 109350, Note_on_c, 12, 48, 0
13, 109360, Note_on_c, 12, 48, 53
13, 109390, Note_on_c, 12, 48, 0
13, 109400, Note_on_c, 12, 48, 60
13, 109430, Note_on_c, 12, 48, 0
13, 109440, Note_on_c, 12, 41, 80
13, 109620, Note_on_c, 12, 41, 0
13, 119160, Note_on_c, 12, 58, 80
13, 119250, Note_on_c, 12, 58, 0
13, 119280, Note_on_c, 12, 56, 80
13, 119340, Note_on_c, 12, 56, 0
13, 119400, Note_on_c, 12, 55, 80
13, 119460, Note_on_c, 12, 55, 0
13, 119520, Note_on_c, 12, 53, 80
13, 119580, Note_on_c, 12, 53, 0
13, 119640, Note_on_c, 12, 51, 80
13, 119700, Note_on_c, 12, 51, 0
13, 119760, Note_on_c, 12, 50, 80
13, 119820, Note_on_c, 12, 50, 0
13, 119880, Note_on_c, 12, 48, 80
13, 119940, Note_on_c, 12, 48, 0
13, 120000, Note_on_c, 12, 47, 80
13, 120060, Note_on_c, 12, 47, 0
13, 120120, Note_on_c, 12, 43, 80
13, 120180, Note_on_c, 12, 43, 0
13, 120240, Note_on_c, 12, 44, 80
13, 120300, Note_on_c, 12, 44, 0
13, 120360, Note_on_c, 12, 43, 80
13, 120420, Note_on_c, 12, 43, 0
13, 120480, Note_on_c, 12, 44, 80
13, 120540, Note_on_c, 12, 44, 0
13, 120600, Note_on_c, 12, 45, 80
13, 120660, Note_on_c, 12, 45, 0
13, 120720, Note_on_c, 12, 46, 80
13, 120780, Note_on_c, 12, 46, 0
13, 120840, Note_on_c, 12, 47, 80
13, 120900, Note_on_c, 12, 47, 0
13, 120960, Note_on_c, 12, 48, 80
13, 121440, Note_on_c, 12, 50, 80
13, 121470, Note_on_c, 12, 48, 0
13, 121680, Note_on_c, 12, 51, 80
13, 121710, Note_on_c, 12, 50, 0
13, 121890, Note_on_c, 12, 51, 0
13, 121920, Note_on_c, 12, 53, 80
13, 121920, Control_c, 12, 11, 80
13, 121930, Control_c, 12, 11, 81
13, 121940, Control_c, 12, 11, 83
13, 121950, Control_c, 12, 11, 85
13, 121960, Control_c, 12, 11, 86
13, 121970, Control_c, 12, 11, 88
13, 121980, Control_c, 12, 11, 90
13, 121990, Control_c, 12, 11, 91
13, 122000, Control_c, 12, 11, 93
13, 122020, Control_c, 12, 11, 95
13, 122050, Control_c, 12, 11, 94
13, 122070, Control_c, 12, 11, 93
13, 122100, Control_c, 12, 11, 92
13, 122120, Control_c, 12, 11, 91
13, 122140, Control_c, 12, 11, 90
13, 122170, Control_c, 12, 11, 89
13, 122190, Control_c, 12, 11, 88
13, 122210, Control_c, 12, 11, 87
13, 122240, Control_c, 12, 11, 86
13, 122260, Control_c, 12, 11, 85
13, 122290, Control_c, 12, 11, 84
13, 122310, Control_c, 12, 11, 83
13, 122330, Control_c, 12, 11, 82
13, 122360, Control_c, 12, 11, 81
13, 122380, Control_c, 12, 11, 80
13, 122610, Note_on_c, 12, 53, 0
13, 122640, Note_on_c, 12, 51, 80
13, 122850, Note_on_c, 12, 51, 0
13, 122880, Note_on_c, 12, 50, 80
13, 123120, Note_on_c, 12, 56, 80
13, 123150, Note_on_c, 12, 50, 0
13, 123360, Note_on_c, 12, 55, 80
13, 123390, Note_on_c, 12, 56, 0
13, 123600, Note_on_c, 12, 53, 80
13, 123630, Note_on_c, 12, 55, 0
13, 123810, Note_on_c, 12, 53, 0
13, 123840, Note_on_c, 12, 52, 80
13, 124080, Note_on_c, 12, 61, 80
13, 124110, Note_on_c, 12, 52, 0
13, 124320, Note_on_c, 12, 60, 80
13, 124350, Note_on_c, 12, 61, 0
13, 124560, Note_on_c, 12, 58, 87
13, 124590, Note_on_c, 12, 60, 0
13, 124770, Note_on_c, 12, 58, 0
13, 124800, Note_on_c, 12, 56, 95
13, 124860, Note_on_c, 12, 56, 0
13, 124920, Note_on_c, 12, 60, 95
13, 124980, Note_on_c, 12, 60, 0
13, 125040, Note_on_c, 12, 61, 95
13, 125100, Note_on_c, 12, 61, 0
13, 125160, Note_on_c, 12, 60, 95
13, 125220, Note_on_c, 12, 60, 0
13, 125280, Note_on_c, 12, 58, 95
13, 125340, Note_on_c, 12, 58, 0
13, 125400, Note_on_c, 12, 56, 95
13, 125460, Note_on_c, 12, 56, 0
13, 125520, Note_on_c, 12, 55, 95
13, 125580, Note_on_c, 12, 55, 0
13, 125640, Note_on_c, 12, 53, 95
13, 125700, Note_on_c, 12, 53, 0
13, 125760, Note_on_c, 12, 58, 95
13, 125820, Note_on_c, 12, 58, 0
13, 125880, Note_on_c, 12, 46, 95
13, 125940, Note_on_c, 12, 46, 0
13, 126000, Note_on_c, 12, 48, 95
13, 126060, Note_on_c, 12, 48, 0
13, 126120, Note_on_c, 12, 46, 95
13, 126180, Note_on_c, 12, 46, 0
13, 126240, Note_on_c, 12, 58, 95
13, 126300, Note_on_c, 12, 58, 0
13, 126360, Note_on_c, 12, 46, 95
13, 126420, Note_on_c, 12, 46, 0
13, 126480, Note_on_c, 12, 58, 95
13, 126540, Note_on_c, 12, 58, 0
13, 126600, Note_on_c, 12, 46, 95
13, 126660, Note_on_c, 12, 46, 0
13, 126720, Note_on_c, 12, 58, 95
13, 126780, Note_on_c, 12, 58, 0
13, 126840, Note_on_c, 12, 48, 95
13, 126900, Note_on_c, 12, 48, 0
13, 126960, Note_on_c, 12, 58, 95
13, 127020, Note_on_c, 12, 58, 0
13, 127080, Note_on_c, 12, 48, 95
13, 127140, Note_on_c, 12, 48, 0
13, 127200, Note_on_c, 12, 56, 95
13, 127260, Note_on_c, 12, 56, 0
13, 127320, Note_on_c, 12, 48, 95
13, 127380, Note_on_c, 12, 48, 0
13, 127440, Note_on_c, 12, 55, 95
13, 127500, Note_on_c, 12, 55, 0
13, 127560, Note_on_c, 12, 48, 95
13, 127620, Note_on_c, 12, 48, 0
13, 127680, Note_on_c, 12, 53, 95
13, 127920, Note_on_c, 12, 53, 0
13, 128640, Note_on_c, 12, 46, 95
13, 128700, Note_on_c, 12, 46, 0
13, 128880, Note_on_c, 12, 56, 95
13, 128940, Note_on_c, 12, 56, 0
13, 129120, Note_on_c, 12, 55, 95
13, 129180, Note_on_c, 12, 55, 0
13, 129360, Note_on_c, 12, 53, 95
13, 129420, Note_on_c, 12, 53, 0
13, 129480, Note_on_c, 12, 58, 95
13, 129540, Note_on_c, 12, 58, 0
13, 129600, Note_on_c, 12, 51, 95
13, 129660, Note_on_c, 12, 51, 0
13, 129720, Note_on_c, 12, 53, 95
13, 129780, Note_on_c, 12, 53, 0
13, 129840, Note_on_c, 12, 51, 95
13, 129900, Note_on_c, 12, 51, 0
13, 129960, Note_on_c, 12, 50, 95
13, 130020, Note_on_c, 12, 50, 0
13, 130080, Note_on_c, 12, 48, 95
13, 130140, Note_on_c, 12, 48, 0
13, 130200, Note_on_c, 12, 46, 95
13, 130260, Note_on_c, 12, 46, 0
13, 130320, Note_on_c, 12, 44, 95
13, 130380, Note_on_c, 12, 44, 0
13, 130440, Note_on_c, 12, 43, 95
13, 130500, Note_on_c, 12, 43, 0
13, 130560, Note_on_c, 12, 41, 95
13, 130800, Note_on_c, 12, 41, 0
13, 131640, Note_on_c, 12, 55, 95
13, 131700, Note_on_c, 12, 55, 0
13, 131760, Note_on_c, 12, 53, 95
13, 131820, Note_on_c, 12, 53, 0
13, 131880, Note_on_c, 12, 51, 95
13, 131940, Note_on_c, 12, 51, 0
13, 132000, Note_on_c, 12, 50, 95
13, 132060, Note_on_c, 12, 50, 0
13, 132120, Note_on_c, 12, 48, 95
13, 132180, Note_on_c, 12, 48, 0
13, 132240, Note_on_c, 12, 46, 95
13, 132300, Note_on_c, 12, 46, 0
13, 132360, Note_on_c, 12, 45, 95
13, 132420, Note_on_c, 12, 45, 0
13, 132480, Note_on_c, 12, 43, 95
13, 132720, Note_on_c, 12, 43, 0
13, 133920, Note_on_c, 12, 48, 95
13, 134880, Note_on_c, 12, 50, 95
13, 134910, Note_on_c, 12, 48, 0
13, 135120, Note_on_c, 12, 51, 95
13, 135150, Note_on_c, 12, 50, 0
13, 135330, Note_on_c, 12, 51, 0
13, 135360, Note_on_c, 12, 53, 95
13, 136080, Note_on_c, 12, 51, 95
13, 136110, Note_on_c, 12, 53, 0
13, 136290, Note_on_c, 12, 51, 0
13, 136320, Note_on_c, 12, 50, 95
13, 136800, Note_on_c, 12, 51, 95
13, 136830, Note_on_c, 12, 50, 0
13, 137040, Note_on_c, 12, 53, 95
13, 137070, Note_on_c, 12, 51, 0
13, 137250, Note_on_c, 12, 53, 0
13, 137280, Note_on_c, 12, 55, 95
13, 138000, Note_on_c, 12, 53, 95
13, 138030, Note_on_c, 12, 55, 0
13, 138210, Note_on_c, 12, 53, 0
13, 138240, Note_on_c, 12, 51, 95
13, 138260, Note_on_c, 12, 51, 0
13, 138260, Note_on_c, 12, 53, 95
13, 138280, Note_on_c, 12, 51, 95
13, 138280, Note_on_c, 12, 53, 0
13, 138300, Note_on_c, 12, 51, 0
13, 138300, Note_on_c, 12, 53, 95
13, 138320, Note_on_c, 12, 51, 95
13, 138320, Note_on_c, 12, 53, 0
13, 138340, Note_on_c, 12, 51, 0
13, 138340, Note_on_c, 12, 53, 95
13, 138360, Note_on_c, 12, 51, 95
13, 138360, Note_on_c, 12, 53, 0
13, 138380, Note_on_c, 12, 51, 0
13, 138380, Note_on_c, 12, 53, 95
13, 138400, Note_on_c, 12, 51, 95
13, 138400, Note_on_c, 12, 53, 0
13, 138420, Note_on_c, 12, 51, 0
13, 138420, Note_on_c, 12, 53, 95
13, 138440, Note_on_c, 12, 51, 95
13, 138440, Note_on_c, 12, 53, 0
13, 138460, Note_on_c, 12, 51, 0
13, 138460, Note_on_c, 12, 53, 95
13, 138480, Note_on_c, 12, 51, 95
13, 138480, Note_on_c, 12, 53, 0
13, 138500, Note_on_c, 12, 51, 0
13, 138500, Note_on_c, 12, 53, 95
13, 138520, Note_on_c, 12, 51, 95
13, 138520, Note_on_c, 12, 53, 0
13, 138540, Note_on_c, 12, 51, 0
13, 138540, Note_on_c, 12, 53, 95
13, 138560, Note_on_c, 12, 51, 95
13, 138560, Note_on_c, 12, 53, 0
13, 138580, Note_on_c, 12, 51, 0
13, 138580, Note_on_c, 12, 53, 95
13, 138600, Note_on_c, 12, 51, 95
13, 138600, Note_on_c, 12, 53, 0
13, 138620, Note_on_c, 12, 51, 0
13, 138620, Note_on_c, 12, 53, 95
13, 138640, Note_on_c, 12, 51, 95
13, 138640, Note_on_c, 12, 53, 0
13, 138660, Note_on_c, 12, 51, 0
13, 138660, Note_on_c, 12, 53, 95
13, 138680, Note_on_c, 12, 51, 95
13, 138680, Note_on_c, 12, 53, 0
13, 138700, Note_on_c, 12, 51, 0
13, 138700, Note_on_c, 12, 53, 95
13, 138720, Note_on_c, 12, 51, 95
13, 138720, Note_on_c, 12, 53, 0
13, 138740, Note_on_c, 12, 51, 0
13, 138740, Note_on_c, 12, 53, 95
13, 138760, Note_on_c, 12, 51, 95
13, 138760, Note_on_c, 12, 53, 0
13, 138780, Note_on_c, 12, 51, 0
13, 138780, Note_on_c, 12, 53, 95
13, 138800, Note_on_c, 12, 51, 95
13, 138800, Note_on_c, 12, 53, 0
13, 138820, Note_on_c, 12, 51, 0
13, 138820, Note_on_c, 12, 53, 95
13, 138840, Note_on_c, 12, 51, 95
13, 138840, Note_on_c, 12, 53, 0
13, 138860, Note_on_c, 12, 51, 0
13, 138860, Note_on_c, 12, 53, 95
13, 138880, Note_on_c, 12, 51, 95
13, 138880, Note_on_c, 12, 53, 0
13, 138900, Note_on_c, 12, 51, 0
13, 138900, Note_on_c, 12, 53, 95
13, 138920, Note_on_c, 12, 51, 95
13, 138920, Note_on_c, 12, 53, 0
13, 138940, Note_on_c, 12, 51, 0
13, 138940, Note_on_c, 12, 53, 95
13, 138960, Note_on_c, 12, 51, 95
13, 138960, Note_on_c, 12, 53, 0
13, 138980, Note_on_c, 12, 51, 0
13, 138980, Note_on_c, 12, 53, 95
13, 139000, Note_on_c, 12, 51, 95
13, 139000, Note_on_c, 12, 53, 0
13, 139020, Note_on_c, 12, 51, 0
13, 139020, Note_on_c, 12, 53, 95
13, 139040, Note_on_c, 12, 51, 95
13, 139040, Note_on_c, 12, 53, 0
13, 139060, Note_on_c, 12, 51, 0
13, 139060, Note_on_c, 12, 53, 95
13, 139080, Note_on_c, 12, 51, 95
13, 139080, Note_on_c, 12, 53, 0
13, 139100, Note_on_c, 12, 51, 0
13, 139100, Note_on_c, 12, 53, 95
13, 139120, Note_on_c, 12, 51, 95
13, 139120, Note_on_c, 12, 53, 0
13, 139140, Note_on_c, 12, 51, 0
13, 139140, Note_on_c, 12, 53, 95
13, 139160, Note_on_c, 12, 51, 95
13, 139160, Note_on_c, 12, 53, 0
13, 139180, Note_on_c, 12, 51, 0
13, 139200, Note_on_c, 12, 50, 95
13, 139410, Note_on_c, 12, 50, 0
13, 143640, Note_on_c, 12, 58, 95
13, 143760, Note_on_c, 12, 55, 95
13, 143790, Note_on_c, 12, 58, 0
13, 143880, Note_on_c, 12, 53, 95
13, 143910, Note_on_c, 12, 55, 0
13, 143970, Note_on_c, 12, 53, 0
13, 143997, Note_on_c, 12, 52, 117
13, 144087, Note_on_c, 12, 52, 0
13, 144480, Note_on_c, 12, 49, 95
13, 145050, Note_on_c, 12, 49, 0
13, 145200, Note_on_c, 12, 49, 95
13, 145290, Note_on_c, 12, 49, 0
13, 145440, Note_on_c, 12, 49, 95
13, 145530, Note_on_c, 12, 49, 0
13, 145680, Note_on_c, 12, 49, 95
13, 145770, Note_on_c, 12, 49, 0
13, 145920, Note_on_c, 12, 50, 95
13, 146850, Note_on_c, 12, 50, 0
13, 146880, Note_on_c, 12, 38, 70
13, 146880, Note_on_c, 12, 45, 70
13, 147810, Note_on_c, 12, 38, 0
13, 147810, Note_on_c, 12, 45, 0
13, 147840, Note_on_c, 12, 43, 40
13, 148290, Note_on_c, 12, 43, 0
13, 149760, Note_on_c, 12, 53, 40
13, 150240, Note_on_c, 12, 53, 0
13, 151680, Note_on_c, 12, 44, 80
13, 152635, Note_on_c, 12, 44, 0
13, 152640, Note_on_c, 12, 44, 80
13, 153595, Note_on_c, 12, 44, 0
13, 153600, Note_on_c, 12, 44, 105
13, 153645, Note_on_c, 12, 44, 0
13, 153680, Note_on_c, 12, 43, 105
13, 153725, Note_on_c, 12, 43, 0
13, 153760, Note_on_c, 12, 44, 105
13, 153805, Note_on_c, 12, 44, 0
13, 153840, Note_on_c, 12, 48, 105
13, 153885, Note_on_c, 12, 48, 0
13, 153920, Note_on_c, 12, 47, 105
13, 153965, Note_on_c, 12, 47, 0
13, 154000, Note_on_c, 12, 48, 105
13, 154045, Note_on_c, 12, 48, 0
13, 154080, Note_on_c, 12, 44, 105
13, 154125, Note_on_c, 12, 44, 0
13, 154160, Note_on_c, 12, 43, 105
13, 154205, Note_on_c, 12, 43, 0
13, 154240, Note_on_c, 12, 44, 105
13, 154285, Note_on_c, 12, 44, 0
13, 154320, Note_on_c, 12, 48, 105
13, 154365, Note_on_c, 12, 48, 0
13, 154400, Note_on_c, 12, 47, 105
13, 154445, Note_on_c, 12, 47, 0
13, 154480, Note_on_c, 12, 48, 105
13, 154525, Note_on_c, 12, 48, 0
13, 154560, Note_on_c, 12, 44, 105
13, 154605, Note_on_c, 12, 44, 0
13, 154640, Note_on_c, 12, 43, 105
13, 154685, Note_on_c, 12, 43, 0
13, 154720, Note_on_c, 12, 44, 105
13, 154765, Note_on_c, 12, 44, 0
13, 154800, Note_on_c, 12, 48, 105
13, 154845, Note_on_c, 12, 48, 0
13, 154880, Note_on_c, 12, 47, 105
13, 154925, Note_on_c, 12, 47, 0
13, 154960, Note_on_c, 12, 48, 105
13, 155005, Note_on_c, 12, 48, 0
13, 155040, Note_on_c, 12, 44, 105
13, 155085, Note_on_c, 12, 44, 0
13, 155120, Note_on_c, 12, 43, 105
13, 155165, Note_on_c, 12, 43, 0
13, 155200, Note_on_c, 12, 44, 105
13, 155245, Note_on_c, 12, 44, 0
13, 155280, Note_on_c, 12, 48, 105
13, 155325, Note_on_c, 12, 48, 0
13, 155360, Note_on_c, 12, 47, 105
13, 155405, Note_on_c, 12, 47, 0
13, 155440, Note_on_c, 12, 48, 105
13, 155485, Note_on_c, 12, 48, 0
13, 155520, Note_on_c, 12, 43, 105
13, 155565, Note_on_c, 12, 43, 0
13, 155600, Note_on_c, 12, 42, 105
13, 155645, Note_on_c, 12, 42, 0
13, 155680, Note_on_c, 12, 43, 105
13, 155725, Note_on_c, 12, 43, 0
13, 155760, Note_on_c, 12, 48, 105
13, 155805, Note_on_c, 12, 48, 0
13, 155840, Note_on_c, 12, 47, 105
13, 155885, Note_on_c, 12, 47, 0
13, 155920, Note_on_c, 12, 48, 105
13, 155965, Note_on_c, 12, 48, 0
13, 156000, Note_on_c, 12, 43, 105
13, 156045, Note_on_c, 12, 43, 0
13, 156080, Note_on_c, 12, 42, 105
13, 156125, Note_on_c, 12, 42, 0
13, 156160, Note_on_c, 12, 43, 105
13, 156205, Note_on_c, 12, 43, 0
13, 156240, Note_on_c, 12, 48, 105
13, 156285, Note_on_c, 12, 48, 0
13, 156320, Note_on_c, 12, 47, 105
13, 156365, Note_on_c, 12, 47, 0
13, 156400, Note_on_c, 12, 48, 105
13, 156445, Note_on_c, 12, 48, 0
13, 156480, Note_on_c, 12, 43, 105
13, 156525, Note_on_c, 12, 43, 0
13, 156560, Note_on_c, 12, 42, 105
13, 156605, Note_on_c, 12, 42, 0
13, 156640, Note_on_c, 12, 43, 105
13, 156685, Note_on_c, 12, 43, 0
13, 156720, Note_on_c, 12, 48, 105
13, 156765, Note_on_c, 12, 48, 0
13, 156800, Note_on_c, 12, 47, 105
13, 156845, Note_on_c, 12, 47, 0
13, 156880, Note_on_c, 12, 48, 105
13, 156925, Note_on_c, 12, 48, 0
13, 156960, Note_on_c, 12, 43, 105
13, 157005, Note_on_c, 12, 43, 0
13, 157040, Note_on_c, 12, 42, 105
13, 157085, Note_on_c, 12, 42, 0
13, 157120, Note_on_c, 12, 43, 105
13, 157165, Note_on_c, 12, 43, 0
13, 157200, Note_on_c, 12, 48, 105
13, 157245, Note_on_c, 12, 48, 0
13, 157280, Note_on_c, 12, 47, 105
13, 157325, Note_on_c, 12, 47, 0
13, 157360, Note_on_c, 12, 48, 105
13, 157405, Note_on_c, 12, 48, 0
13, 157440, Note_on_c, 12, 42, 102
13, 157485, Note_on_c, 12, 42, 0
13, 157520, Note_on_c, 12, 45, 98
13, 157565, Note_on_c, 12, 45, 0
13, 157600, Note_on_c, 12, 48, 95
13, 157645, Note_on_c, 12, 48, 0
13, 157680, Note_on_c, 12, 51, 91
13, 157725, Note_on_c, 12, 51, 0
13, 157760, Note_on_c, 12, 54, 88
13, 157805, Note_on_c, 12, 54, 0
13, 157840, Note_on_c, 12, 57, 84
13, 157885, Note_on_c, 12, 57, 0
13, 157920, Note_on_c, 12, 60, 80
13, 157965, Note_on_c, 12, 60, 0
13, 159360, Note_on_c, 12, 41, 105
13, 159405, Note_on_c, 12, 41, 0
13, 159440, Note_on_c, 12, 44, 101
13, 159485, Note_on_c, 12, 44, 0
13, 159520, Note_on_c, 12, 47, 97
13, 159565, Note_on_c, 12, 47, 0
13, 159600, Note_on_c, 12, 50, 93
13, 159645, Note_on_c, 12, 50, 0
13, 159680, Note_on_c, 12, 53, 89
13, 159725, Note_on_c, 12, 53, 0
13, 159760, Note_on_c, 12, 56, 85
13, 159805, Note_on_c, 12, 56, 0
13, 159840, Note_on_c, 12, 59, 80
13, 159885, Note_on_c, 12, 59, 0
13, 161280, Note_on_c, 12, 43, 70
13, 161520, Note_on_c, 12, 43, 0
13, 163200, Note_on_c, 12, 43, 65
13, 163440, Note_on_c, 12, 43, 0
13, 164160, Note_on_c, 12, 43, 65
13, 164400, Note_on_c, 12, 44, 80
13, 164430, Note_on_c, 12, 43, 0
13, 164640, Note_on_c, 12, 43, 65
13, 164670, Note_on_c, 12, 44, 0
13, 164880, Note_on_c, 12, 47, 80
13, 164910, Note_on_c, 12, 43, 0
13, 165090, Note_on_c, 12, 47, 0
13, 165120, Note_on_c, 12, 43, 65
13, 165360, Note_on_c, 12, 50, 75
13, 165390, Note_on_c, 12, 43, 0
13, 165600, Note_on_c, 12, 43, 53
13, 165630, Note_on_c, 12, 50, 0
13, 165840, Note_on_c, 12, 55, 70
13, 165870, Note_on_c, 12, 43, 0
13, 166050, Note_on_c, 12, 55, 0
13, 166080, Note_on_c, 12, 43, 40
13, 166320, Note_on_c, 12, 44, 60
13, 166350, Note_on_c, 12, 43, 0
13, 166560, Note_on_c, 12, 43, 40
13, 166590, Note_on_c, 12, 44, 0
13, 166800, Note_on_c, 12, 48, 60
13, 166830, Note_on_c, 12, 43, 0
13, 167010, Note_on_c, 12, 48, 0
13, 167040, Note_on_c, 12, 43, 40
13, 167280, Note_on_c, 12, 51, 60
13, 167310, Note_on_c, 12, 43, 0
13, 167520, Note_on_c, 12, 43, 40
13, 167550, Note_on_c, 12, 51, 0
13, 167760, Note_on_c, 12, 55, 60
13, 167790, Note_on_c, 12, 43, 0
13, 167970, Note_on_c, 12, 55, 0
13, 168000, Note_on_c, 12, 43, 40
13, 168240, Note_on_c, 12, 44, 60
13, 168270, Note_on_c, 12, 43, 0
13, 168480, Note_on_c, 12, 43, 40
13, 168510, Note_on_c, 12, 44, 0
13, 168720, Note_on_c, 12, 48, 60
13, 168750, Note_on_c, 12, 43, 0
13, 168930, Note_on_c, 12, 48, 0
13, 168960, Note_on_c, 12, 43, 40
13, 169200, Note_on_c, 12, 51, 60
13, 169230, Note_on_c, 12, 43, 0
13, 169440, Note_on_c, 12, 43, 40
13, 169470, Note_on_c, 12, 51, 0
13, 169680, Note_on_c, 12, 55, 60
13, 169710, Note_on_c, 12, 43, 0
13, 169890, Note_on_c, 12, 55, 0
13, 169920, Note_on_c, 12, 43, 40
13, 170160, Note_on_c, 12, 47, 60
13, 170190, Note_on_c, 12, 43, 0
13, 170400, Note_on_c, 12, 43, 40
13, 170430, Note_on_c, 12, 47, 0
13, 170640, Note_on_c, 12, 50, 60
13, 170670, Note_on_c, 12, 43, 0
13, 170850, Note_on_c, 12, 50, 0
13, 170880, Note_on_c, 12, 47, 40
13, 170880, Control_c, 12, 11, 80
13, 170910, Control_c, 12, 11, 81
13, 170930, Control_c, 12, 11, 82
13, 170950, Control_c, 12, 11, 83
13, 170970, Control_c, 12, 11, 84
13, 170990, Control_c, 12, 11, 85
13, 171010, Control_c, 12, 11, 86
13, 171030, Control_c, 12, 11, 87
13, 171050, Control_c, 12, 11, 88
13, 171070, Control_c, 12, 11, 89
13, 171090, Control_c, 12, 11, 90
13, 171110, Control_c, 12, 11, 91
13, 171120, Note_on_c, 12, 53, 40
13, 171130, Control_c, 12, 11, 92
13, 171150, Note_on_c, 12, 47, 0
13, 171150, Control_c, 12, 11, 93
13, 171170, Control_c, 12, 11, 94
13, 171190, Control_c, 12, 11, 95
13, 171210, Control_c, 12, 11, 96
13, 171230, Control_c, 12, 11, 97
13, 171250, Control_c, 12, 11, 98
13, 171270, Control_c, 12, 11, 99
13, 171290, Control_c, 12, 11, 100
13, 171310, Control_c, 12, 11, 101
13, 171330, Control_c, 12, 11, 102
13, 171350, Control_c, 12, 11, 103
13, 171360, Note_on_c, 12, 50, 40
13, 171380, Control_c, 12, 11, 104
13, 171390, Note_on_c, 12, 53, 0
13, 171400, Control_c, 12, 11, 105
13, 171420, Control_c, 12, 11, 106
13, 171440, Control_c, 12, 11, 107
13, 171460, Control_c, 12, 11, 108
13, 171480, Control_c, 12, 11, 109
13, 171500, Control_c, 12, 11, 110
13, 171520, Control_c, 12, 11, 111
13, 171540, Control_c, 12, 11, 112
13, 171560, Control_c, 12, 11, 113
13, 171580, Control_c, 12, 11, 114
13, 171600, Note_on_c, 12, 47, 40
13, 171600, Control_c, 12, 11, 115
13, 171620, Control_c, 12, 11, 116
13, 171630, Note_on_c, 12, 50, 0
13, 171640, Control_c, 12, 11, 117
13, 171660, Control_c, 12, 11, 118
13, 171680, Control_c, 12, 11, 119
13, 171700, Control_c, 12, 11, 120
13, 171720, Control_c, 12, 11, 121
13, 171740, Control_c, 12, 11, 122
13, 171760, Control_c, 12, 11, 123
13, 171780, Control_c, 12, 11, 124
13, 171800, Control_c, 12, 11, 125
13, 171810, Note_on_c, 12, 47, 0
13, 171820, Control_c, 12, 11, 126
13, 171840, Note_on_c, 12, 46, 40
13, 171840, Control_c, 12, 11, 127
13, 171860, Control_c, 12, 11, 126
13, 171880, Control_c, 12, 11, 125
13, 171900, Control_c, 12, 11, 124
13, 171920, Control_c, 12, 11, 123
13, 171940, Control_c, 12, 11, 122
13, 171960, Control_c, 12, 11, 121
13, 171980, Control_c, 12, 11, 120
13, 172000, Control_c, 12, 11, 119
13, 172020, Control_c, 12, 11, 118
13, 172040, Control_c, 12, 11, 117
13, 172060, Control_c, 12, 11, 116
13, 172080, Note_on_c, 12, 58, 40
13, 172080, Control_c, 12, 11, 115
13, 172100, Control_c, 12, 11, 114
13, 172110, Note_on_c, 12, 46, 0
13, 172120, Control_c, 12, 11, 113
13, 172140, Control_c, 12, 11, 112
13, 172160, Control_c, 12, 11, 111
13, 172180, Control_c, 12, 11, 110
13, 172200, Control_c, 12, 11, 109
13, 172220, Control_c, 12, 11, 108
13, 172240, Control_c, 12, 11, 107
13, 172260, Control_c, 12, 11, 106
13, 172280, Control_c, 12, 11, 105
13, 172300, Control_c, 12, 11, 104
13, 172320, Note_on_c, 12, 46, 40
13, 172320, Control_c, 12, 11, 103
13, 172340, Control_c, 12, 11, 102
13, 172350, Note_on_c, 12, 58, 0
13, 172360, Control_c, 12, 11, 101
13, 172380, Control_c, 12, 11, 100
13, 172400, Control_c, 12, 11, 99
13, 172420, Control_c, 12, 11, 98
13, 172440, Control_c, 12, 11, 97
13, 172460, Control_c, 12, 11, 96
13, 172480, Control_c, 12, 11, 95
13, 172500, Control_c, 12, 11, 94
13, 172520, Control_c, 12, 11, 93
13, 172540, Control_c, 12, 11, 92
13, 172560, Note_on_c, 12, 58, 40
13, 172560, Control_c, 12, 11, 91
13, 172580, Control_c, 12, 11, 90
13, 172590, Note_on_c, 12, 46, 0
13, 172600, Control_c, 12, 11, 89
13, 172620, Control_c, 12, 11, 88
13, 172640, Control_c, 12, 11, 87
13, 172660, Control_c, 12, 11, 86
13, 172680, Control_c, 12, 11, 85
13, 172700, Control_c, 12, 11, 84
13, 172720, Control_c, 12, 11, 83
13, 172740, Control_c, 12, 11, 82
13, 172760, Control_c, 12, 11, 81
13, 172770, Note_on_c, 12, 58, 0
13, 172780, Control_c, 12, 11, 80
13, 172800, Note_on_c, 12, 51, 40
13, 173040, Note_on_c, 12, 56, 40
13, 173070, Note_on_c, 12, 51, 0
13, 173250, Note_on_c, 12, 56, 0
13, 173280, Note_on_c, 12, 51, 40
13, 173340, Note_on_c, 12, 51, 0
13, 173360, Note_on_c, 12, 48, 40
13, 173420, Note_on_c, 12, 48, 0
13, 173440, Note_on_c, 12, 46, 40
13, 173500, Note_on_c, 12, 46, 0
13, 173520, Note_on_c, 12, 44, 40
13, 173580, Note_on_c, 12, 44, 0
13, 173600, Note_on_c, 12, 43, 40
13, 173660, Note_on_c, 12, 43, 0
13, 173680, Note_on_c, 12, 41, 40
13, 173740, Note_on_c, 12, 41, 0
13, 173760, Note_on_c, 12, 55, 40
13, 174240, Note_on_c, 12, 53, 40
13, 174270, Note_on_c, 12, 55, 0
13, 174480, Note_on_c, 12, 51, 40
13, 174510, Note_on_c, 12, 53, 0
13, 174690, Note_on_c, 12, 51, 0
13, 174720, Note_on_c, 12, 50, 40
13, 174960, Control_c, 12, 11, 81
13, 174980, Control_c, 12, 11, 82
13, 175010, Control_c, 12, 11, 83
13, 175030, Control_c, 12, 11, 84
13, 175060, Control_c, 12, 11, 85
13, 175080, Control_c, 12, 11, 86
13, 175110, Control_c, 12, 11, 87
13, 175130, Control_c, 12, 11, 88
13, 175160, Control_c, 12, 11, 89
13, 175180, Control_c, 12, 11, 90
13, 175210, Control_c, 12, 11, 91
13, 175230, Control_c, 12, 11, 92
13, 175260, Control_c, 12, 11, 93
13, 175280, Control_c, 12, 11, 94
13, 175310, Control_c, 12, 11, 95
13, 175330, Control_c, 12, 11, 96
13, 175360, Control_c, 12, 11, 97
13, 175380, Control_c, 12, 11, 98
13, 175410, Control_c, 12, 11, 99
13, 175430, Control_c, 12, 11, 100
13, 175460, Control_c, 12, 11, 101
13, 175480, Control_c, 12, 11, 102
13, 175510, Control_c, 12, 11, 103
13, 175530, Control_c, 12, 11, 104
13, 175560, Control_c, 12, 11, 105
13, 175580, Control_c, 12, 11, 106
13, 175610, Control_c, 12, 11, 107
13, 175630, Control_c, 12, 11, 108
13, 175650, Note_on_c, 12, 50, 0
13, 175660, Control_c, 12, 11, 109
13, 175680, Note_on_c, 12, 51, 40
13, 175680, Control_c, 12, 11, 110
13, 175730, Control_c, 12, 11, 109
13, 175780, Control_c, 12, 11, 108
13, 175820, Control_c, 12, 11, 107
13, 175870, Control_c, 12, 11, 106
13, 175910, Control_c, 12, 11, 105
13, 175960, Control_c, 12, 11, 104
13, 176000, Control_c, 12, 11, 103
13, 176050, Control_c, 12, 11, 102
13, 176100, Control_c, 12, 11, 101
13, 176140, Control_c, 12, 11, 100
13, 176160, Note_on_c, 12, 50, 40
13, 176190, Note_on_c, 12, 51, 0
13, 176190, Control_c, 12, 11, 99
13, 176230, Control_c, 12, 11, 98
13, 176280, Control_c, 12, 11, 97
13, 176320, Control_c, 12, 11, 96
13, 176370, Control_c, 12, 11, 95
13, 176400, Note_on_c, 12, 48, 40
13, 176420, Control_c, 12, 11, 94
13, 176430, Note_on_c, 12, 50, 0
13, 176460, Control_c, 12, 11, 93
13, 176510, Control_c, 12, 11, 92
13, 176550, Control_c, 12, 11, 91
13, 176600, Control_c, 12, 11, 90
13, 176610, Note_on_c, 12, 48, 0
13, 176640, Note_on_c, 12, 49, 40
13, 176880, Note_on_c, 12, 49, 0
13, 177060, Note_on_c, 12, 52, 70
13, 177090, Note_on_c, 12, 52, 0
13, 177120, Note_on_c, 12, 52, 70
13, 177600, Note_on_c, 12, 52, 0
13, 177600, Control_c, 12, 11, 80
13, 178080, Note_on_c, 12, 53, 40
13, 178320, Note_on_c, 12, 55, 40
13, 178350, Note_on_c, 12, 53, 0
13, 178530, Note_on_c, 12, 55, 0
13, 178560, Note_on_c, 12, 56, 40
13, 179040, Note_on_c, 12, 44, 40
13, 179040, Control_c, 12, 11, 80
13, 179050, Control_c, 12, 11, 83
13, 179060, Control_c, 12, 11, 87
13, 179070, Note_on_c, 12, 56, 0
13, 179070, Control_c, 12, 11, 91
13, 179080, Control_c, 12, 11, 95
13, 179090, Control_c, 12, 11, 99
13, 179100, Control_c, 12, 11, 103
13, 179110, Control_c, 12, 11, 107
13, 179120, Control_c, 12, 11, 111
13, 179140, Control_c, 12, 11, 115
13, 179160, Control_c, 12, 11, 114
13, 179170, Control_c, 12, 11, 113
13, 179180, Control_c, 12, 11, 112
13, 179190, Control_c, 12, 11, 111
13, 179200, Control_c, 12, 11, 110
13, 179210, Control_c, 12, 11, 109
13, 179220, Control_c, 12, 11, 108
13, 179230, Control_c, 12, 11, 107
13, 179240, Control_c, 12, 11, 106
13, 179250, Control_c, 12, 11, 105
13, 179260, Control_c, 12, 11, 104
13, 179270, Control_c, 12, 11, 103
13, 179280, Control_c, 12, 11, 102
13, 179290, Control_c, 12, 11, 101
13, 179300, Control_c, 12, 11, 100
13, 179310, Control_c, 12, 11, 99
13, 179320, Control_c, 12, 11, 98
13, 179330, Control_c, 12, 11, 97
13, 179340, Control_c, 12, 11, 96
13, 179350, Control_c, 12, 11, 95
13, 179360, Control_c, 12, 11, 94
13, 179370, Control_c, 12, 11, 93
13, 179380, Control_c, 12, 11, 92
13, 179390, Control_c, 12, 11, 91
13, 179400, Control_c, 12, 11, 90
13, 179410, Control_c, 12, 11, 89
13, 179420, Control_c, 12, 11, 88
13, 179430, Control_c, 12, 11, 87
13, 179440, Control_c, 12, 11, 86
13, 179450, Control_c, 12, 11, 85
13, 179460, Control_c, 12, 11, 84
13, 179470, Control_c, 12, 11, 83
13, 179480, Control_c, 12, 11, 82
13, 179490, Note_on_c, 12, 44, 0
13, 179490, Control_c, 12, 11, 81
13, 179500, Control_c, 12, 11, 80
13, 179520, Note_on_c, 12, 55, 60
13, 179580, Note_on_c, 12, 55, 0
13, 180000, Note_on_c, 12, 50, 60
13, 180240, Note_on_c, 12, 53, 60
13, 180270, Note_on_c, 12, 50, 0
13, 180480, Note_on_c, 12, 51, 60
13, 180510, Note_on_c, 12, 53, 0
13, 180960, Note_on_c, 12, 50, 60
13, 180990, Note_on_c, 12, 51, 0
13, 181200, Note_on_c, 12, 48, 60
13, 181230, Note_on_c, 12, 50, 0
13, 181410, Note_on_c, 12, 48, 0
13, 181440, Note_on_c, 12, 47, 60
13, 181440, Control_c, 12, 11, 80
13, 181470, Control_c, 12, 11, 81
13, 181500, Control_c, 12, 11, 82
13, 181530, Control_c, 12, 11, 83
13, 181550, Control_c, 12, 11, 84
13, 181580, Control_c, 12, 11, 85
13, 181610, Control_c, 12, 11, 86
13, 181640, Control_c, 12, 11, 87
13, 181660, Control_c, 12, 11, 88
13, 181690, Control_c, 12, 11, 89
13, 181720, Control_c, 12, 11, 90
13, 181750, Control_c, 12, 11, 91
13, 181770, Control_c, 12, 11, 92
13, 181800, Control_c, 12, 11, 93
13, 181830, Control_c, 12, 11, 94
13, 181860, Control_c, 12, 11, 95
13, 181880, Control_c, 12, 11, 96
13, 181910, Control_c, 12, 11, 97
13, 181940, Control_c, 12, 11, 98
13, 181970, Control_c, 12, 11, 99
13, 181990, Control_c, 12, 11, 100
13, 182020, Control_c, 12, 11, 101
13, 182050, Control_c, 12, 11, 102
13, 182080, Control_c, 12, 11, 103
13, 182100, Control_c, 12, 11, 104
13, 182130, Control_c, 12, 11, 105
13, 182160, Note_on_c, 12, 50, 60
13, 182160, Control_c, 12, 11, 106
13, 182190, Note_on_c, 12, 47, 0
13, 182190, Control_c, 12, 11, 107
13, 182210, Control_c, 12, 11, 108
13, 182240, Control_c, 12, 11, 109
13, 182270, Control_c, 12, 11, 110
13, 182300, Control_c, 12, 11, 111
13, 182320, Control_c, 12, 11, 112
13, 182350, Control_c, 12, 11, 113
13, 182380, Control_c, 12, 11, 114
13, 182400, Note_on_c, 12, 48, 60
13, 182400, Control_c, 12, 11, 115
13, 182430, Note_on_c, 12, 50, 0
13, 182430, Control_c, 12, 11, 114
13, 182460, Control_c, 12, 11, 113
13, 182480, Control_c, 12, 11, 112
13, 182510, Control_c, 12, 11, 111
13, 182540, Control_c, 12, 11, 110
13, 182560, Control_c, 12, 11, 109
13, 182590, Control_c, 12, 11, 108
13, 182620, Control_c, 12, 11, 107
13, 182640, Control_c, 12, 11, 106
13, 182670, Control_c, 12, 11, 105
13, 182700, Control_c, 12, 11, 104
13, 182720, Control_c, 12, 11, 103
13, 182750, Control_c, 12, 11, 102
13, 182780, Control_c, 12, 11, 101
13, 182800, Control_c, 12, 11, 100
13, 182830, Control_c, 12, 11, 99
13, 182860, Control_c, 12, 11, 98
13, 182880, Note_on_c, 12, 46, 60
13, 182880, Control_c, 12, 11, 97
13, 182910, Note_on_c, 12, 48, 0
13, 182910, Control_c, 12, 11, 96
13, 182940, Control_c, 12, 11, 95
13, 182960, Control_c, 12, 11, 94
13, 182990, Control_c, 12, 11, 93
13, 183020, Control_c, 12, 11, 92
13, 183040, Control_c, 12, 11, 91
13, 183070, Control_c, 12, 11, 90
13, 183100, Control_c, 12, 11, 89
13, 183120, Note_on_c, 12, 44, 60
13, 183120, Control_c, 12, 11, 88
13, 183150, Note_on_c, 12, 46, 0
13, 183150, Control_c, 12, 11, 87
13, 183180, Control_c, 12, 11, 86
13, 183200, Control_c, 12, 11, 85
13, 183230, Control_c, 12, 11, 84
13, 183260, Control_c, 12, 11, 83
13, 183280, Control_c, 12, 11, 82
13, 183310, Control_c, 12, 11, 81
13, 183330, Note_on_c, 12, 44, 0
13, 183340, Control_c, 12, 11, 80
13, 183360, Note_on_c, 12, 43, 60
13, 183600, Note_on_c, 12, 44, 60
13, 183630, Note_on_c, 12, 43, 0
13, 183840, Note_on_c, 12, 43, 60
13, 183870, Note_on_c, 12, 44, 0
13, 184080, Note_on_c, 12, 48, 60
13, 184110, Note_on_c, 12, 43, 0
13, 184320, Note_on_c, 12, 47, 60
13, 184350, Note_on_c, 12, 48, 0
13, 184560, Note_on_c, 12, 51, 60
13, 184590, Note_on_c, 12, 47, 0
13, 184800, Note_on_c, 12, 50, 60
13, 184830, Note_on_c, 12, 51, 0
13, 185040, Note_on_c, 12, 48, 60
13, 185070, Note_on_c, 12, 50, 0
13, 185250, Note_on_c, 12, 48, 0
13, 185280, Note_on_c, 12, 47, 60
13, 185760, Note_on_c, 12, 44, 60
13, 185790, Note_on_c, 12, 47, 0
13, 186240, Note_on_c, 12, 43, 60
13, 186270, Note_on_c, 12, 44, 0
13, 186720, Note_on_c, 12, 36, 70
13, 187170, Note_on_c, 12, 36, 0
13, 187170, Note_on_c, 12, 43, 0
13, 187200, Note_on_c, 12, 41, 60
13, 187290, Note_on_c, 12, 41, 0
13, 187440, Note_on_c, 12, 44, 60
13, 187530, Note_on_c, 12, 44, 0
13, 187680, Note_on_c, 12, 41, 60
13, 187770, Note_on_c, 12, 41, 0
13, 187920, Note_on_c, 12, 53, 60
13, 188010, Note_on_c, 12, 53, 0
13, 188160, Note_on_c, 12, 49, 60
13, 188250, Note_on_c, 12, 49, 0
13, 188400, Note_on_c, 12, 53, 60
13, 188490, Note_on_c, 12, 53, 0
13, 188640, Note_on_c, 12, 49, 60
13, 188730, Note_on_c, 12, 49, 0
13, 188880, Note_on_c, 12, 61, 60
13, 188970, Note_on_c, 12, 61, 0
13, 189120, Note_on_c, 12, 47, 60
13, 189210, Note_on_c, 12, 47, 0
13, 189360, Note_on_c, 12, 59, 65
13, 189450, Note_on_c, 12, 59, 0
13, 189600, Note_on_c, 12, 41, 70
13, 189690, Note_on_c, 12, 41, 0
13, 189840, Note_on_c, 12, 53, 75
13, 189930, Note_on_c, 12, 53, 0
13, 190080, Note_on_c, 12, 51, 75
13, 190170, Note_on_c, 12, 51, 0
13, 190800, Note_on_c, 12, 56, 60
13, 191040, Control_c, 12, 11, 80
13, 191050, Control_c, 12, 11, 81
13, 191060, Control_c, 12, 11, 83
13, 191070, Control_c, 12, 11, 85
13, 191080, Control_c, 12, 11, 87
13, 191090, Control_c, 12, 11, 89
13, 191100, Control_c, 12, 11, 91
13, 191110, Control_c, 12, 11, 93
13, 191120, Control_c, 12, 11, 95
13, 191130, Control_c, 12, 11, 97
13, 191140, Control_c, 12, 11, 99
13, 191150, Control_c, 12, 11, 101
13, 191160, Control_c, 12, 11, 103
13, 191170, Control_c, 12, 11, 105
13, 191180, Control_c, 12, 11, 107
13, 191190, Control_c, 12, 11, 109
13, 191200, Control_c, 12, 11, 111
13, 191210, Control_c, 12, 11, 113
13, 191220, Control_c, 12, 11, 115
13, 191230, Control_c, 12, 11, 117
13, 191240, Control_c, 12, 11, 119
13, 191250, Control_c, 12, 11, 121
13, 191260, Control_c, 12, 11, 123
13, 191270, Control_c, 12, 11, 125
13, 191280, Note_on_c, 12, 55, 60
13, 191280, Control_c, 12, 11, 127
13, 191290, Control_c, 12, 11, 125
13, 191300, Control_c, 12, 11, 123
13, 191310, Note_on_c, 12, 56, 0
13, 191310, Control_c, 12, 11, 121
13, 191320, Control_c, 12, 11, 119
13, 191330, Control_c, 12, 11, 117
13, 191340, Control_c, 12, 11, 115
13, 191350, Control_c, 12, 11, 113
13, 191360, Control_c, 12, 11, 111
13, 191370, Control_c, 12, 11, 109
13, 191380, Control_c, 12, 11, 107
13, 191390, Control_c, 12, 11, 105
13, 191400, Control_c, 12, 11, 103
13, 191410, Control_c, 12, 11, 101
13, 191420, Control_c, 12, 11, 99
13, 191430, Control_c, 12, 11, 97
13, 191440, Control_c, 12, 11, 95
13, 191450, Control_c, 12, 11, 93
13, 191460, Control_c, 12, 11, 91
13, 191470, Control_c, 12, 11, 89
13, 191480, Control_c, 12, 11, 87
13, 191490, Note_on_c, 12, 55, 0
13, 191490, Control_c, 12, 11, 84
13, 191500, Control_c, 12, 11, 82
13, 191510, Control_c, 12, 11, 80
13, 191520, Note_on_c, 12, 43, 60
13, 191730, Note_on_c, 12, 43, 0
13, 192060, Note_on_c, 12, 48, 60
13, 192210, Note_on_c, 12, 48, 0
13, 192360, Note_on_c, 12, 48, 70
13, 192390, Note_on_c, 12, 50, 70
13, 192395, Note_on_c, 12, 48, 0
13, 192420, Note_on_c, 12, 51, 70
13, 192425, Note_on_c, 12, 50, 0
13, 192450, Note_on_c, 12, 53, 70
13, 192455, Note_on_c, 12, 51, 0
13, 192480, Note_on_c, 12, 55, 70
13, 192485, Note_on_c, 12, 53, 0
13, 192690, Note_on_c, 12, 55, 0
13, 192840, Note_on_c, 12, 55, 70
13, 192870, Note_on_c, 12, 55, 0
13, 192880, Note_on_c, 12, 57, 70
13, 192910, Note_on_c, 12, 57, 0
13, 192920, Note_on_c, 12, 59, 70
13, 192950, Note_on_c, 12, 59, 0
13, 192960, Note_on_c, 12, 60, 70
13, 193200, Note_on_c, 12, 55, 70
13, 193230, Note_on_c, 12, 60, 0
13, 193440, Note_on_c, 12, 51, 70
13, 193470, Note_on_c, 12, 55, 0
13, 193680, Note_on_c, 12, 48, 70
13, 193710, Note_on_c, 12, 51, 0
13, 193890, Note_on_c, 12, 48, 0
13, 193920, Note_on_c, 12, 47, 70
13, 194160, Note_on_c, 12, 43, 70
13, 194190, Note_on_c, 12, 47, 0
13, 194400, Note_on_c, 12, 48, 70
13, 194430, Note_on_c, 12, 43, 0
13, 194640, Note_on_c, 12, 51, 70
13, 194670, Note_on_c, 12, 48, 0
13, 194850, Note_on_c, 12, 51, 0
13, 194880, Note_on_c, 12, 55, 70
13, 195360, Note_on_c, 12, 43, 70
13, 195390, Note_on_c, 12, 55, 0
13, 195600, Note_on_c, 12, 43, 0
13, 195840, Note_on_c, 12, 41, 80
13, 196050, Note_on_c, 12, 41, 0
13, 196080, Note_on_c, 12, 53, 80
13, 196290, Note_on_c, 12, 53, 0
13, 196320, Note_on_c, 12, 53, 80
13, 196530, Note_on_c, 12, 53, 0
13, 196560, Note_on_c, 12, 53, 80
13, 196770, Note_on_c, 12, 53, 0
13, 196800, Note_on_c, 12, 42, 80
13, 197010, Note_on_c, 12, 42, 0
13, 197040, Note_on_c, 12, 54, 80
13, 197250, Note_on_c, 12, 54, 0
13, 197280, Note_on_c, 12, 54, 70
13, 197490, Note_on_c, 12, 54, 0
13, 197520, Note_on_c, 12, 54, 60
13, 197730, Note_on_c, 12, 54, 0
13, 197760, Note_on_c, 12, 43, 60
13, 197970, Note_on_c, 12, 43, 0
13, 198000, Note_on_c, 12, 55, 60
13, 198210, Note_on_c, 12, 55, 0
13, 198240, Note_on_c, 12, 43, 60
13, 198450, Note_on_c, 12, 43, 0
13, 198480, Note_on_c, 12, 55, 60
13, 198690, Note_on_c, 12, 55, 0
13, 198720, Note_on_c, 12, 48, 60
13, 198960, Note_on_c, 12, 55, 60
13, 198990, Note_on_c, 12, 48, 0
13, 199200, Note_on_c, 12, 51, 60
13, 199230, Note_on_c, 12, 55, 0
13, 199440, Note_on_c, 12, 48, 60
13, 199470, Note_on_c, 12, 51, 0
13, 199650, Note_on_c, 12, 48, 0
13, 199680, Note_on_c, 12, 43, 60
13, 199890, Note_on_c, 12, 43, 0
13, 199920, Note_on_c, 12, 55, 65
13, 200130, Note_on_c, 12, 55, 0
13, 200160, Note_on_c, 12, 43, 70
13, 200370, Note_on_c, 12, 43, 0
13, 200400, Note_on_c, 12, 55, 75
13, 200610, Note_on_c, 12, 55, 0
13, 200640, Note_on_c, 12, 44, 80
13, 200880, Note_on_c, 12, 44, 0
13, 208080, Note_on_c, 12, 48, 35
13, 208170, Note_on_c, 12, 48, 0
13, 209280, Note_on_c, 12, 47, 35
13, 209370, Note_on_c, 12, 47, 0
13, 209760, Note_on_c, 12, 47, 35
13, 209850, Note_on_c, 12, 47, 0
13, 210240, Note_on_c, 12, 48, 35
13, 210330, Note_on_c, 12, 48, 0
13, 210480, Note_on_c, 12, 51, 35
13, 210570, Note_on_c, 12, 51, 0
13, 210720, Note_on_c, 12, 48, 35
13, 210810, Note_on_c, 12, 48, 0
13, 210960, Note_on_c, 12, 51, 35
13, 211050, Note_on_c, 12, 51, 0
13, 211200, Note_on_c, 12, 44, 35
13, 211290, Note_on_c, 12, 44, 0
13, 211440, Note_on_c, 12, 48, 38
13, 211530, Note_on_c, 12, 48, 0
13, 211680, Note_on_c, 12, 44, 42
13, 211770, Note_on_c, 12, 44, 0
13, 211920, Note_on_c, 12, 48, 46
13, 212010, Note_on_c, 12, 48, 0
13, 212160, Note_on_c, 12, 41, 50
13, 212250, Note_on_c, 12, 41, 0
13, 212400, Note_on_c, 12, 44, 47
13, 212490, Note_on_c, 12, 44, 0
13, 212640, Note_on_c, 12, 41, 43
13, 212730, Note_on_c, 12, 41, 0
13, 212880, Note_on_c, 12, 44, 39
13, 212970, Note_on_c, 12, 44, 0
13, 213120, Note_on_c, 12, 42, 35
13, 213210, Note_on_c, 12, 42, 0
13, 213360, Note_on_c, 12, 43, 35
13, 213450, Note_on_c, 12, 43, 0
13, 213600, Note_on_c, 12, 42, 35
13, 213690, Note_on_c, 12, 42, 0
13, 213840, Note_on_c, 12, 43, 35
13, 213930, Note_on_c, 12, 43, 0
13, 214080, Note_on_c, 12, 48, 35
13, 214590, Note_on_c, 12, 48, 0
13, 216000, Note_on_c, 12, 48, 35
13, 216000, Control_c, 12, 11, 80
13, 216070, Control_c, 12, 11, 81
13, 216140, Control_c, 12, 11, 82
13, 216210, Control_c, 12, 11, 83
13, 216280, Control_c, 12, 11, 84
13, 216350, Control_c, 12, 11, 85
13, 216420, Control_c, 12, 11, 86
13, 216480, Note_on_c, 12, 52, 35
13, 216490, Control_c, 12, 11, 87
13, 216510, Note_on_c, 12, 48, 0
13, 216560, Control_c, 12, 11, 88
13, 216630, Control_c, 12, 11, 89
13, 216700, Control_c, 12, 11, 90
13, 216720, Note_on_c, 12, 55, 35
13, 216750, Note_on_c, 12, 52, 0
13, 216770, Control_c, 12, 11, 91
13, 216840, Control_c, 12, 11, 92
13, 216910, Control_c, 12, 11, 93
13, 216930, Note_on_c, 12, 55, 0
13, 216960, Note_on_c, 12, 53, 35
13, 216980, Control_c, 12, 11, 94
13, 217050, Control_c, 12, 11, 95
13, 217120, Control_c, 12, 11, 96
13, 217190, Control_c, 12, 11, 97
13, 217260, Control_c, 12, 11, 98
13, 217330, Control_c, 12, 11, 99
13, 217400, Control_c, 12, 11, 100
13, 217440, Note_on_c, 12, 55, 35
13, 217470, Note_on_c, 12, 53, 0
13, 217470, Control_c, 12, 11, 101
13, 217540, Control_c, 12, 11, 102
13, 217610, Control_c, 12, 11, 103
13, 217680, Control_c, 12, 11, 104
13, 217710, Note_on_c, 12, 55, 0
13, 217750, Control_c, 12, 11, 105
13, 217820, Control_c, 12, 11, 106
13, 217890, Control_c, 12, 11, 107
13, 217920, Note_on_c, 12, 55, 35
13, 217960, Control_c, 12, 11, 108
13, 218030, Control_c, 12, 11, 109
13, 218100, Control_c, 12, 11, 110
13, 218160, Note_on_c, 12, 53, 35
13, 218170, Control_c, 12, 11, 111
13, 218190, Note_on_c, 12, 55, 0
13, 218240, Control_c, 12, 11, 112
13, 218310, Control_c, 12, 11, 113
13, 218380, Control_c, 12, 11, 114
13, 218400, Note_on_c, 12, 52, 35
13, 218430, Note_on_c, 12, 53, 0
13, 218450, Control_c, 12, 11, 115
13, 218520, Control_c, 12, 11, 116
13, 218590, Control_c, 12, 11, 117
13, 218660, Control_c, 12, 11, 118
13, 218670, Note_on_c, 12, 52, 0
13, 218730, Control_c, 12, 11, 119
13, 218800, Control_c, 12, 11, 120
13, 218874, Control_c, 12, 11, 80
13, 218880, Note_on_c, 12, 48, 35
13, 218880, Control_c, 12, 11, 80
13, 218910, Control_c, 12, 11, 81
13, 218930, Control_c, 12, 11, 82
13, 218950, Control_c, 12, 11, 83
13, 218980, Control_c, 12, 11, 84
13, 219000, Control_c, 12, 11, 85
13, 219020, Control_c, 12, 11, 86
13, 219050, Control_c, 12, 11, 87
13, 219070, Control_c, 12, 11, 88
13, 219090, Control_c, 12, 11, 89
13, 219110, Control_c, 12, 11, 90
13, 219120, Note_on_c, 12, 48, 0
13, 219140, Control_c, 12, 11, 91
13, 219160, Control_c, 12, 11, 92
13, 219180, Control_c, 12, 11, 93
13, 219210, Control_c, 12, 11, 94
13, 219230, Control_c, 12, 11, 95
13, 219250, Control_c, 12, 11, 96
13, 219270, Control_c, 12, 11, 97
13, 219300, Control_c, 12, 11, 98
13, 219320, Control_c, 12, 11, 99
13, 219340, Control_c, 12, 11, 100
13, 219370, Control_c, 12, 11, 101
13, 219390, Control_c, 12, 11, 102
13, 219410, Control_c, 12, 11, 103
13, 219440, Control_c, 12, 11, 104
13, 219460, Control_c, 12, 11, 105
13, 219480, Control_c, 12, 11, 106
13, 219500, Control_c, 12, 11, 107
13, 219530, Control_c, 12, 11, 108
13, 219550, Control_c, 12, 11, 109
13, 219570, Control_c, 12, 11, 110
13, 219600, Control_c, 12, 11, 111
13, 219620, Control_c, 12, 11, 112
13, 219640, Control_c, 12, 11, 113
13, 219660, Control_c, 12, 11, 114
13, 219690, Control_c, 12, 11, 115
13, 219710, Control_c, 12, 11, 116
13, 219730, Control_c, 12, 11, 117
13, 219760, Control_c, 12, 11, 118
13, 219780, Control_c, 12, 11, 119
13, 219800, Control_c, 12, 11, 120
13, 219834, Control_c, 12, 11, 80
13, 219840, Note_on_c, 12, 48, 45
13, 220080, Note_on_c, 12, 48, 0
13, 220800, Note_on_c, 12, 48, 45
13, 221040, Note_on_c, 12, 48, 0
13, 221760, Note_on_c, 12, 47, 40
13, 222000, Control_c, 12, 11, 80
13, 222010, Control_c, 12, 11, 81
13, 222020, Control_c, 12, 11, 83
13, 222030, Control_c, 12, 11, 85
13, 222040, Control_c, 12, 11, 86
13, 222050, Control_c, 12, 11, 88
13, 222060, Control_c, 12, 11, 90
13, 222070, Control_c, 12, 11, 91
13, 222080, Control_c, 12, 11, 93
13, 222090, Control_c, 12, 11, 95
13, 222100, Control_c, 12, 11, 96
13, 222110, Control_c, 12, 11, 98
13, 222120, Control_c, 12, 11, 100
13, 222130, Control_c, 12, 11, 101
13, 222140, Control_c, 12, 11, 103
13, 222150, Control_c, 12, 11, 105
13, 222160, Control_c, 12, 11, 106
13, 222170, Control_c, 12, 11, 108
13, 222180, Control_c, 12, 11, 110
13, 222190, Control_c, 12, 11, 111
13, 222200, Control_c, 12, 11, 113
13, 222210, Control_c, 12, 11, 115
13, 222220, Control_c, 12, 11, 116
13, 222230, Control_c, 12, 11, 118
13, 222260, Control_c, 12, 11, 119
13, 222270, Control_c, 12, 11, 118
13, 222280, Control_c, 12, 11, 117
13, 222290, Control_c, 12, 11, 116
13, 222300, Control_c, 12, 11, 115
13, 222320, Control_c, 12, 11, 114
13, 222330, Control_c, 12, 11, 113
13, 222340, Control_c, 12, 11, 112
13, 222350, Control_c, 12, 11, 111
13, 222360, Control_c, 12, 11, 110
13, 222370, Control_c, 12, 11, 109
13, 222390, Control_c, 12, 11, 108
13, 222400, Control_c, 12, 11, 107
13, 222410, Control_c, 12, 11, 106
13, 222420, Control_c, 12, 11, 105
13, 222430, Control_c, 12, 11, 104
13, 222440, Control_c, 12, 11, 103
13, 222460, Control_c, 12, 11, 102
13, 222470, Control_c, 12, 11, 101
13, 222480, Control_c, 12, 11, 100
13, 222490, Control_c, 12, 11, 99
13, 222500, Control_c, 12, 11, 98
13, 222510, Control_c, 12, 11, 97
13, 222530, Control_c, 12, 11, 96
13, 222540, Control_c, 12, 11, 95
13, 222550, Control_c, 12, 11, 94
13, 222560, Control_c, 12, 11, 93
13, 222570, Control_c, 12, 11, 92
13, 222580, Control_c, 12, 11, 91
13, 222600, Control_c, 12, 11, 90
13, 222610, Control_c, 12, 11, 89
13, 222620, Control_c, 12, 11, 88
13, 222630, Control_c, 12, 11, 87
13, 222640, Control_c, 12, 11, 86
13, 222650, Control_c, 12, 11, 85
13, 222670, Control_c, 12, 11, 84
13, 222680, Control_c, 12, 11, 83
13, 222690, Control_c, 12, 11, 82
13, 222700, Control_c, 12, 11, 81
13, 222710, Control_c, 12, 11, 80
13, 222720, Note_on_c, 12, 48, 45
13, 222750, Note_on_c, 12, 47, 0
13, 222960, Note_on_c, 12, 48, 0
13, 223680, Note_on_c, 12, 47, 45
13, 223920, Control_c, 12, 11, 80
13, 223930, Control_c, 12, 11, 81
13, 223940, Control_c, 12, 11, 83
13, 223950, Control_c, 12, 11, 85
13, 223960, Control_c, 12, 11, 86
13, 223970, Control_c, 12, 11, 88
13, 223980, Control_c, 12, 11, 90
13, 223990, Control_c, 12, 11, 91
13, 224000, Control_c, 12, 11, 93
13, 224010, Control_c, 12, 11, 95
13, 224020, Control_c, 12, 11, 96
13, 224030, Control_c, 12, 11, 98
13, 224040, Control_c, 12, 11, 100
13, 224050, Control_c, 12, 11, 101
13, 224060, Control_c, 12, 11, 103
13, 224070, Control_c, 12, 11, 105
13, 224080, Control_c, 12, 11, 106
13, 224090, Control_c, 12, 11, 108
13, 224100, Control_c, 12, 11, 110
13, 224110, Control_c, 12, 11, 111
13, 224120, Control_c, 12, 11, 113
13, 224130, Control_c, 12, 11, 115
13, 224140, Control_c, 12, 11, 116
13, 224150, Control_c, 12, 11, 118
13, 224180, Control_c, 12, 11, 119
13, 224190, Control_c, 12, 11, 118
13, 224200, Control_c, 12, 11, 117
13, 224210, Control_c, 12, 11, 116
13, 224220, Control_c, 12, 11, 115
13, 224240, Control_c, 12, 11, 114
13, 224250, Control_c, 12, 11, 113
13, 224260, Control_c, 12, 11, 112
13, 224270, Control_c, 12, 11, 111
13, 224280, Control_c, 12, 11, 110
13, 224290, Control_c, 12, 11, 109
13, 224310, Control_c, 12, 11, 108
13, 224320, Control_c, 12, 11, 107
13, 224330, Control_c, 12, 11, 106
13, 224340, Control_c, 12, 11, 105
13, 224350, Control_c, 12, 11, 104
13, 224360, Control_c, 12, 11, 103
13, 224380, Control_c, 12, 11, 102
13, 224390, Control_c, 12, 11, 101
13, 224400, Control_c, 12, 11, 100
13, 224410, Control_c, 12, 11, 99
13, 224420, Control_c, 12, 11, 98
13, 224430, Control_c, 12, 11, 97
13, 224450, Control_c, 12, 11, 96
13, 224460, Control_c, 12, 11, 95
13, 224470, Control_c, 12, 11, 94
13, 224480, Control_c, 12, 11, 93
13, 224490, Control_c, 12, 11, 92
13, 224500, Control_c, 12, 11, 91
13, 224520, Control_c, 12, 11, 90
13, 224530, Control_c, 12, 11, 89
13, 224540, Control_c, 12, 11, 88
13, 224550, Control_c, 12, 11, 87
13, 224560, Control_c, 12, 11, 86
13, 224570, Control_c, 12, 11, 85
13, 224590, Control_c, 12, 11, 84
13, 224600, Control_c, 12, 11, 83
13, 224610, Control_c, 12, 11, 82
13, 224620, Control_c, 12, 11, 81
13, 224630, Control_c, 12, 11, 80
13, 224640, Note_on_c, 12, 48, 45
13, 224670, Note_on_c, 12, 47, 0
13, 224880, Note_on_c, 12, 48, 0
13, 225600, Note_on_c, 12, 47, 45
13, 226560, Control_c, 12, 11, 80
13, 226590, Control_c, 12, 11, 81
13, 226610, Control_c, 12, 11, 82
13, 226630, Control_c, 12, 11, 83
13, 226650, Control_c, 12, 11, 84
13, 226670, Control_c, 12, 11, 85
13, 226690, Control_c, 12, 11, 86
13, 226710, Control_c, 12, 11, 87
13, 226730, Control_c, 12, 11, 88
13, 226750, Control_c, 12, 11, 89
13, 226770, Control_c, 12, 11, 90
13, 226790, Control_c, 12, 11, 91
13, 226810, Control_c, 12, 11, 92
13, 226830, Control_c, 12, 11, 93
13, 226850, Control_c, 12, 11, 94
13, 226870, Control_c, 12, 11, 95
13, 226890, Control_c, 12, 11, 96
13, 226910, Control_c, 12, 11, 97
13, 226930, Control_c, 12, 11, 98
13, 226950, Control_c, 12, 11, 99
13, 226970, Control_c, 12, 11, 100
13, 226990, Control_c, 12, 11, 101
13, 227010, Control_c, 12, 11, 102
13, 227030, Control_c, 12, 11, 103
13, 227060, Control_c, 12, 11, 104
13, 227080, Control_c, 12, 11, 105
13, 227100, Control_c, 12, 11, 106
13, 227120, Control_c, 12, 11, 107
13, 227140, Control_c, 12, 11, 108
13, 227160, Control_c, 12, 11, 109
13, 227180, Control_c, 12, 11, 110
13, 227200, Control_c, 12, 11, 111
13, 227220, Control_c, 12, 11, 112
13, 227240, Control_c, 12, 11, 113
13, 227260, Control_c, 12, 11, 114
13, 227280, Control_c, 12, 11, 115
13, 227300, Control_c, 12, 11, 116
13, 227320, Control_c, 12, 11, 117
13, 227340, Control_c, 12, 11, 118
13, 227360, Control_c, 12, 11, 119
13, 227380, Control_c, 12, 11, 120
13, 227400, Control_c, 12, 11, 121
13, 227420, Control_c, 12, 11, 122
13, 227440, Control_c, 12, 11, 123
13, 227460, Control_c, 12, 11, 124
13, 227480, Control_c, 12, 11, 125
13, 227500, Control_c, 12, 11, 126
13, 227520, Control_c, 12, 11, 127
13, 227540, Control_c, 12, 11, 126
13, 227560, Control_c, 12, 11, 125
13, 227580, Control_c, 12, 11, 124
13, 227600, Control_c, 12, 11, 123
13, 227620, Control_c, 12, 11, 122
13, 227640, Control_c, 12, 11, 121
13, 227660, Control_c, 12, 11, 120
13, 227680, Control_c, 12, 11, 119
13, 227700, Control_c, 12, 11, 118
13, 227720, Control_c, 12, 11, 117
13, 227740, Control_c, 12, 11, 116
13, 227760, Control_c, 12, 11, 115
13, 227780, Control_c, 12, 11, 114
13, 227800, Control_c, 12, 11, 113
13, 227820, Control_c, 12, 11, 112
13, 227840, Control_c, 12, 11, 111
13, 227860, Control_c, 12, 11, 110
13, 227880, Control_c, 12, 11, 109
13, 227900, Control_c, 12, 11, 108
13, 227920, Control_c, 12, 11, 107
13, 227940, Control_c, 12, 11, 106
13, 227960, Control_c, 12, 11, 105
13, 227980, Control_c, 12, 11, 104
13, 228000, Control_c, 12, 11, 103
13, 228020, Control_c, 12, 11, 102
13, 228040, Control_c, 12, 11, 101
13, 228060, Control_c, 12, 11, 100
13, 228080, Control_c, 12, 11, 99
13, 228100, Control_c, 12, 11, 98
13, 228120, Control_c, 12, 11, 97
13, 228140, Control_c, 12, 11, 96
13, 228160, Control_c, 12, 11, 95
13, 228180, Control_c, 12, 11, 94
13, 228200, Control_c, 12, 11, 93
13, 228220, Control_c, 12, 11, 92
13, 228240, Control_c, 12, 11, 91
13, 228260, Control_c, 12, 11, 90
13, 228280, Control_c, 12, 11, 89
13, 228300, Control_c, 12, 11, 88
13, 228320, Control_c, 12, 11, 87
13, 228340, Control_c, 12, 11, 86
13, 228360, Control_c, 12, 11, 85
13, 228380, Control_c, 12, 11, 84
13, 228400, Control_c, 12, 11, 83
13, 228420, Control_c, 12, 11, 82
13, 228440, Control_c, 12, 11, 81
13, 228460, Control_c, 12, 11, 80
13, 228480, Note_on_c, 12, 47, 0
13, 228960, Note_on_c, 12, 48, 40
13, 229200, Note_on_c, 12, 48, 0
13, 229440, Note_on_c, 12, 43, 40
13, 229680, Note_on_c, 12, 43, 0
13, 229920, Note_on_c, 12, 51, 40
13, 230160, Note_on_c, 12, 51, 0
13, 230400, Note_on_c, 12, 48, 40
13, 230640, Note_on_c, 12, 48, 0
13, 231360, Note_on_c, 12, 43, 40
13, 231600, Note_on_c, 12, 43, 0
13, 232320, Note_on_c, 12, 43, 40
13, 232560, Note_on_c, 12, 43, 0
13, 234240, Note_on_c, 12, 43, 40
13, 234480, Note_on_c, 12, 43, 0
13, 236520, Note_on_c, 12, 43, 80
13, 236560, Note_on_c, 12, 45, 80
13, 236565, Note_on_c, 12, 43, 0
13, 236600, Note_on_c, 12, 47, 80
13, 236605, Note_on_c, 12, 45, 0
13, 236640, Note_on_c, 12, 48, 80
13, 236645, Note_on_c, 12, 47, 0
13, 236850, Note_on_c, 12, 48, 0
13, 237000, Note_on_c, 12, 43, 80
13, 237040, Note_on_c, 12, 45, 73
13, 237045, Note_on_c, 12, 43, 0
13, 237080, Note_on_c, 12, 47, 66
13, 237085, Note_on_c, 12, 45, 0
13, 237125, Note_on_c, 12, 47, 0
13, 237125, End_track
14, 0, Start_track
14, 0, Channel_prefix, 13
14, 0, Title_t, "Contrabass"
14, 0, Instrument_name_t, "Contrabasso"
14, 960, Note_on_c, 13, 31, 40
14, 990, Note_on_c, 13, 33, 40
14, 1020, Note_on_c, 13, 31, 0
14, 1020, Note_on_c, 13, 35, 40
14, 1050, Note_on_c, 13, 33, 0
14, 1050, Note_on_c, 13, 36, 40
14, 1080, Note_on_c, 13, 35, 0
14, 1380, Note_on_c, 13, 36, 0
14, 1920, Note_on_c, 13, 31, 40
14, 1950, Note_on_c, 13, 33, 40
14, 1980, Note_on_c, 13, 31, 0
14, 1980, Note_on_c, 13, 35, 40
14, 2010, Note_on_c, 13, 33, 0
14, 2010, Note_on_c, 13, 36, 40
14, 2040, Note_on_c, 13, 35, 0
14, 2340, Note_on_c, 13, 36, 0
14, 2880, Note_on_c, 13, 31, 40
14, 2910, Note_on_c, 13, 33, 40
14, 2940, Note_on_c, 13, 31, 0
14, 2940, Note_on_c, 13, 35, 40
14, 2970, Note_on_c, 13, 33, 0
14, 2970, Note_on_c, 13, 36, 40
14, 3000, Note_on_c, 13, 35, 0
14, 3090, Note_on_c, 13, 36, 0
14, 3180, Note_on_c, 13, 36, 40
14, 3240, Note_on_c, 13, 38, 40
14, 3270, Note_on_c, 13, 36, 0
14, 3300, Note_on_c, 13, 39, 40
14, 3330, Note_on_c, 13, 38, 0
14, 3450, Note_on_c, 13, 39, 0
14, 3720, Note_on_c, 13, 39, 40
14, 3780, Note_on_c, 13, 41, 40
14, 3810, Note_on_c, 13, 39, 0
14, 3840, Note_on_c, 13, 43, 40
14, 3870, Note_on_c, 13, 41, 0
14, 4530, Note_on_c, 13, 43, 0
14, 4680, Note_on_c, 13, 41, 40
14, 4740, Note_on_c, 13, 43, 40
14, 4770, Note_on_c, 13, 41, 0
14, 4800, Note_on_c, 13, 44, 40
14, 4830, Note_on_c, 13, 43, 0
14, 5250, Note_on_c, 13, 44, 0
14, 5520, Note_on_c, 13, 41, 40
14, 5580, Note_on_c, 13, 39, 40
14, 5610, Note_on_c, 13, 41, 0
14, 5640, Note_on_c, 13, 38, 40
14, 5670, Note_on_c, 13, 39, 0
14, 5700, Note_on_c, 13, 36, 40
14, 5730, Note_on_c, 13, 38, 0
14, 5760, Note_on_c, 13, 35, 40
14, 5760, Note_on_c, 13, 36, 0
14, 5760, Control_c, 13, 11, 80
14, 5770, Control_c, 13, 11, 82
14, 5780, Control_c, 13, 11, 85
14, 5790, Control_c, 13, 11, 87
14, 5800, Control_c, 13, 11, 90
14, 5810, Control_c, 13, 11, 92
14, 5820, Control_c, 13, 11, 95
14, 5830, Control_c, 13, 11, 97
14, 5840, Control_c, 13, 11, 100
14, 5850, Control_c, 13, 11, 102
14, 5860, Control_c, 13, 11, 105
14, 5870, Control_c, 13, 11, 107
14, 5880, Control_c, 13, 11, 110
14, 5900, Control_c, 13, 11, 109
14, 5910, Control_c, 13, 11, 109
14, 5920, Control_c, 13, 11, 108
14, 5930, Control_c, 13, 11, 108
14, 5950, Control_c, 13, 11, 107
14, 5960, Control_c, 13, 11, 106
14, 5970, Control_c, 13, 11, 106
14, 5980, Control_c, 13, 11, 105
14, 5990, Control_c, 13, 11, 105
14, 6010, Control_c, 13, 11, 104
14, 6020, Control_c, 13, 11, 103
14, 6030, Control_c, 13, 11, 103
14, 6040, Control_c, 13, 11, 102
14, 6050, Control_c, 13, 11, 102
14, 6070, Control_c, 13, 11, 100
14, 6080, Control_c, 13, 11, 100
14, 6090, Control_c, 13, 11, 99
14, 6100, Control_c, 13, 11, 99
14, 6120, Control_c, 13, 11, 98
14, 6130, Control_c, 13, 11, 97
14, 6140, Control_c, 13, 11, 97
14, 6150, Control_c, 13, 11, 96
14, 6160, Control_c, 13, 11, 96
14, 6180, Control_c, 13, 11, 95
14, 6190, Control_c, 13, 11, 94
14, 6200, Control_c, 13, 11, 94
14, 6210, Control_c, 13, 11, 93
14, 6220, Control_c, 13, 11, 93
14, 6240, Note_on_c, 13, 35, 0
14, 6240, Control_c, 13, 11, 92
14, 6250, Control_c, 13, 11, 91
14, 6260, Control_c, 13, 11, 90
14, 6270, Control_c, 13, 11, 90
14, 6290, Control_c, 13, 11, 89
14, 6300, Control_c, 13, 11, 88
14, 6310, Control_c, 13, 11, 88
14, 6320, Control_c, 13, 11, 87
14, 6330, Control_c, 13, 11, 87
14, 6350, Control_c, 13, 11, 86
14, 6360, Control_c, 13, 11, 85
14, 6370, Control_c, 13, 11, 85
14, 6380, Control_c, 13, 11, 84
14, 6390, Control_c, 13, 11, 84
14, 6410, Control_c, 13, 11, 83
14, 6420, Control_c, 13, 11, 82
14, 6430, Control_c, 13, 11, 81
14, 6440, Control_c, 13, 11, 80
14, 6600, Note_on_c, 13, 31, 40
14, 6640, Note_on_c, 13, 33, 40
14, 6645, Note_on_c, 13, 31, 0
14, 6680, Note_on_c, 13, 35, 40
14, 6685, Note_on_c, 13, 33, 0
14, 6720, Note_on_c, 13, 36, 40
14, 6725, Note_on_c, 13, 35, 0
14, 6960, Note_on_c, 13, 36, 0
14, 7080, Note_on_c, 13, 29, 40
14, 7110, Note_on_c, 13, 29, 0
14, 7120, Note_on_c, 13, 29, 40
14, 7150, Note_on_c, 13, 29, 0
14, 7160, Note_on_c, 13, 29, 40
14, 7190, Note_on_c, 13, 29, 0
14, 7200, Note_on_c, 13, 31, 40
14, 7380, Note_on_c, 13, 31, 0
14, 7560, Note_on_c, 13, 31, 40
14, 7590, Note_on_c, 13, 31, 0
14, 7600, Note_on_c, 13, 31, 40
14, 7630, Note_on_c, 13, 31, 0
14, 7640, Note_on_c, 13, 31, 40
14, 7670, Note_on_c, 13, 31, 0
14, 7680, Note_on_c, 13, 36, 40
14, 7860, Note_on_c, 13, 36, 0
14, 7920, Note_on_c, 13, 41, 40
14, 8070, Note_on_c, 13, 41, 0
14, 8100, Note_on_c, 13, 41, 40
14, 8154, Note_on_c, 13, 41, 0
14, 8160, Note_on_c, 13, 36, 40
14, 8340, Note_on_c, 13, 36, 0
14, 8520, Note_on_c, 13, 36, 40
14, 8550, Note_on_c, 13, 36, 0
14, 8560, Note_on_c, 13, 36, 40
14, 8590, Note_on_c, 13, 36, 0
14, 8600, Note_on_c, 13, 36, 40
14, 8630, Note_on_c, 13, 36, 0
14, 8640, Note_on_c, 13, 36, 40
14, 8880, Note_on_c, 13, 36, 0
14, 9480, Note_on_c, 13, 36, 40
14, 9510, Note_on_c, 13, 36, 0
14, 9520, Note_on_c, 13, 36, 40
14, 9550, Note_on_c, 13, 36, 0
14, 9560, Note_on_c, 13, 36, 40
14, 9590, Note_on_c, 13, 36, 0
14, 9600, Note_on_c, 13, 36, 40
14, 9840, Note_on_c, 13, 36, 0
14, 10440, Note_on_c, 13, 36, 40
14, 10470, Note_on_c, 13, 36, 0
14, 10480, Note_on_c, 13, 36, 40
14, 10510, Note_on_c, 13, 36, 0
14, 10520, Note_on_c, 13, 36, 40
14, 10550, Note_on_c, 13, 36, 0
14, 10560, Note_on_c, 13, 36, 40
14, 10800, Note_on_c, 13, 36, 0
14, 10920, Note_on_c, 13, 36, 40
14, 10950, Note_on_c, 13, 36, 0
14, 10960, Note_on_c, 13, 36, 40
14, 10990, Note_on_c, 13, 36, 0
14, 11000, Note_on_c, 13, 36, 40
14, 11030, Note_on_c, 13, 36, 0
14, 11040, Note_on_c, 13, 39, 40
14, 11280, Note_on_c, 13, 39, 0
14, 11400, Note_on_c, 13, 39, 40
14, 11430, Note_on_c, 13, 39, 0
14, 11440, Note_on_c, 13, 39, 40
14, 11470, Note_on_c, 13, 39, 0
14, 11480, Note_on_c, 13, 39, 40
14, 11510, Note_on_c, 13, 39, 0
14, 11520, Note_on_c, 13, 43, 40
14, 11520, Control_c, 13, 11, 80
14, 11540, Control_c, 13, 11, 81
14, 11560, Control_c, 13, 11, 82
14, 11570, Control_c, 13, 11, 83
14, 11590, Control_c, 13, 11, 84
14, 11600, Control_c, 13, 11, 85
14, 11620, Control_c, 13, 11, 86
14, 11640, Control_c, 13, 11, 87
14, 11650, Control_c, 13, 11, 88
14, 11670, Control_c, 13, 11, 89
14, 11680, Control_c, 13, 11, 90
14, 11700, Control_c, 13, 11, 91
14, 11720, Control_c, 13, 11, 92
14, 11730, Control_c, 13, 11, 93
14, 11750, Control_c, 13, 11, 94
14, 11760, Note_on_c, 13, 43, 0
14, 11760, Control_c, 13, 11, 95
14, 11780, Control_c, 13, 11, 96
14, 11800, Control_c, 13, 11, 97
14, 11810, Control_c, 13, 11, 98
14, 11830, Control_c, 13, 11, 99
14, 11840, Control_c, 13, 11, 100
14, 11860, Control_c, 13, 11, 101
14, 11880, Note_on_c, 13, 43, 40
14, 11880, Control_c, 13, 11, 102
14, 11890, Control_c, 13, 11, 103
14, 11910, Note_on_c, 13, 43, 0
14, 11910, Control_c, 13, 11, 104
14, 11920, Note_on_c, 13, 43, 40
14, 11920, Control_c, 13, 11, 105
14, 11940, Control_c, 13, 11, 106
14, 11950, Note_on_c, 13, 43, 0
14, 11960, Note_on_c, 13, 43, 40
14, 11960, Control_c, 13, 11, 107
14, 11970, Control_c, 13, 11, 108
14, 11990, Note_on_c, 13, 43, 0
14, 11990, Control_c, 13, 11, 109
14, 12000, Note_on_c, 13, 43, 40
14, 12000, Control_c, 13, 11, 110
14, 12010, Control_c, 13, 11, 109
14, 12020, Control_c, 13, 11, 108
14, 12030, Control_c, 13, 11, 107
14, 12040, Control_c, 13, 11, 105
14, 12050, Control_c, 13, 11, 104
14, 12060, Control_c, 13, 11, 103
14, 12070, Control_c, 13, 11, 102
14, 12080, Control_c, 13, 11, 100
14, 12090, Control_c, 13, 11, 99
14, 12100, Control_c, 13, 11, 98
14, 12110, Control_c, 13, 11, 97
14, 12120, Control_c, 13, 11, 95
14, 12130, Control_c, 13, 11, 94
14, 12140, Control_c, 13, 11, 93
14, 12150, Control_c, 13, 11, 92
14, 12160, Control_c, 13, 11, 90
14, 12170, Control_c, 13, 11, 89
14, 12180, Control_c, 13, 11, 88
14, 12190, Control_c, 13, 11, 87
14, 12200, Control_c, 13, 11, 85
14, 12210, Control_c, 13, 11, 84
14, 12220, Control_c, 13, 11, 83
14, 12230, Control_c, 13, 11, 80
14, 12240, Note_on_c, 13, 43, 0
14, 12360, Note_on_c, 13, 43, 40
14, 12390, Note_on_c, 13, 43, 0
14, 12400, Note_on_c, 13, 43, 40
14, 12430, Note_on_c, 13, 43, 0
14, 12440, Note_on_c, 13, 43, 40
14, 12470, Note_on_c, 13, 43, 0
14, 12480, Note_on_c, 13, 41, 40
14, 12720, Note_on_c, 13, 41, 0
14, 13320, Note_on_c, 13, 35, 40
14, 13350, Note_on_c, 13, 35, 0
14, 13360, Note_on_c, 13, 35, 40
14, 13390, Note_on_c, 13, 35, 0
14, 13400, Note_on_c, 13, 35, 40
14, 13430, Note_on_c, 13, 35, 0
14, 13440, Note_on_c, 13, 35, 40
14, 13440, Control_c, 13, 11, 80
14, 13480, Control_c, 13, 11, 81
14, 13520, Control_c, 13, 11, 82
14, 13560, Control_c, 13, 11, 83
14, 13600, Control_c, 13, 11, 84
14, 13640, Control_c, 13, 11, 85
14, 13680, Note_on_c, 13, 35, 0
14, 13680, Control_c, 13, 11, 86
14, 13720, Control_c, 13, 11, 87
14, 13760, Control_c, 13, 11, 88
14, 13800, Control_c, 13, 11, 89
14, 13840, Control_c, 13, 11, 90
14, 13880, Control_c, 13, 11, 91
14, 13920, Control_c, 13, 11, 92
14, 13960, Control_c, 13, 11, 93
14, 14000, Control_c, 13, 11, 94
14, 14040, Control_c, 13, 11, 95
14, 14080, Control_c, 13, 11, 96
14, 14120, Control_c, 13, 11, 97
14, 14160, Control_c, 13, 11, 98
14, 14200, Control_c, 13, 11, 99
14, 14240, Control_c, 13, 11, 100
14, 14280, Note_on_c, 13, 35, 40
14, 14280, Control_c, 13, 11, 101
14, 14310, Note_on_c, 13, 35, 0
14, 14320, Note_on_c, 13, 35, 40
14, 14320, Control_c, 13, 11, 102
14, 14350, Note_on_c, 13, 35, 0
14, 14360, Note_on_c, 13, 35, 40
14, 14360, Control_c, 13, 11, 103
14, 14390, Note_on_c, 13, 35, 0
14, 14400, Note_on_c, 13, 34, 40
14, 14400, Control_c, 13, 11, 104
14, 14440, Control_c, 13, 11, 105
14, 14480, Control_c, 13, 11, 106
14, 14520, Control_c, 13, 11, 107
14, 14560, Control_c, 13, 11, 108
14, 14600, Control_c, 13, 11, 109
14, 14640, Note_on_c, 13, 34, 0
14, 14640, Control_c, 13, 11, 110
14, 14670, Control_c, 13, 11, 109
14, 14690, Control_c, 13, 11, 108
14, 14720, Control_c, 13, 11, 107
14, 14740, Control_c, 13, 11, 106
14, 14760, Note_on_c, 13, 34, 40
14, 14760, Control_c, 13, 11, 105
14, 14790, Note_on_c, 13, 34, 0
14, 14790, Control_c, 13, 11, 104
14, 14800, Note_on_c, 13, 34, 40
14, 14810, Control_c, 13, 11, 103
14, 14830, Note_on_c, 13, 34, 0
14, 14840, Note_on_c, 13, 34, 40
14, 14840, Control_c, 13, 11, 102
14, 14860, Control_c, 13, 11, 101
14, 14870, Note_on_c, 13, 34, 0
14, 14880, Note_on_c, 13, 34, 40
14, 14880, Control_c, 13, 11, 100
14, 14910, Control_c, 13, 11, 99
14, 14930, Control_c, 13, 11, 98
14, 14960, Control_c, 13, 11, 97
14, 14980, Control_c, 13, 11, 96
14, 15000, Control_c, 13, 11, 95
14, 15030, Control_c, 13, 11, 94
14, 15050, Control_c, 13, 11, 93
14, 15080, Control_c, 13, 11, 92
14, 15100, Control_c, 13, 11, 91
14, 15120, Note_on_c, 13, 34, 0
14, 15120, Control_c, 13, 11, 90
14, 15150, Control_c, 13, 11, 89
14, 15170, Control_c, 13, 11, 88
14, 15200, Control_c, 13, 11, 87
14, 15220, Control_c, 13, 11, 86
14, 15240, Note_on_c, 13, 34, 40
14, 15240, Control_c, 13, 11, 85
14, 15270, Note_on_c, 13, 34, 0
14, 15270, Control_c, 13, 11, 84
14, 15280, Note_on_c, 13, 34, 40
14, 15290, Control_c, 13, 11, 83
14, 15310, Note_on_c, 13, 34, 0
14, 15320, Note_on_c, 13, 34, 40
14, 15320, Control_c, 13, 11, 82
14, 15340, Control_c, 13, 11, 80
14, 15350, Note_on_c, 13, 34, 0
14, 15360, Note_on_c, 13, 39, 40
14, 15600, Note_on_c, 13, 39, 0
14, 16320, Note_on_c, 13, 43, 30
14, 16800, Note_on_c, 13, 41, 30
14, 16820, Note_on_c, 13, 43, 0
14, 17040, Note_on_c, 13, 39, 30
14, 17056, Note_on_c, 13, 41, 0
14, 17265, Note_on_c, 13, 39, 0
14, 17280, Note_on_c, 13, 38, 30
14, 17599, Note_on_c, 13, 38, 0
14, 17760, Control_c, 13, 11, 80
14, 17800, Control_c, 13, 11, 81
14, 17830, Control_c, 13, 11, 82
14, 17860, Control_c, 13, 11, 83
14, 17890, Control_c, 13, 11, 84
14, 17920, Control_c, 13, 11, 85
14, 17950, Control_c, 13, 11, 86
14, 17980, Control_c, 13, 11, 87
14, 18010, Control_c, 13, 11, 88
14, 18040, Control_c, 13, 11, 89
14, 18070, Control_c, 13, 11, 90
14, 18100, Control_c, 13, 11, 91
14, 18140, Control_c, 13, 11, 92
14, 18170, Control_c, 13, 11, 93
14, 18200, Control_c, 13, 11, 94
14, 18230, Control_c, 13, 11, 95
14, 18240, Note_on_c, 13, 36, 30
14, 18260, Control_c, 13, 11, 96
14, 18290, Control_c, 13, 11, 97
14, 18320, Control_c, 13, 11, 98
14, 18350, Control_c, 13, 11, 99
14, 18380, Control_c, 13, 11, 100
14, 18410, Control_c, 13, 11, 101
14, 18440, Control_c, 13, 11, 102
14, 18470, Control_c, 13, 11, 103
14, 18510, Control_c, 13, 11, 104
14, 18540, Control_c, 13, 11, 105
14, 18570, Control_c, 13, 11, 106
14, 18600, Control_c, 13, 11, 107
14, 18630, Control_c, 13, 11, 108
14, 18660, Control_c, 13, 11, 109
14, 18690, Control_c, 13, 11, 110
14, 18720, Note_on_c, 13, 34, 30
14, 18720, Control_c, 13, 11, 111
14, 18740, Note_on_c, 13, 36, 0
14, 18750, Control_c, 13, 11, 112
14, 18780, Control_c, 13, 11, 113
14, 18810, Control_c, 13, 11, 114
14, 18840, Control_c, 13, 11, 115
14, 18880, Control_c, 13, 11, 116
14, 18910, Control_c, 13, 11, 117
14, 18940, Control_c, 13, 11, 118
14, 18960, Note_on_c, 13, 32, 30
14, 18970, Control_c, 13, 11, 119
14, 18976, Note_on_c, 13, 34, 0
14, 19000, Control_c, 13, 11, 120
14, 19030, Control_c, 13, 11, 121
14, 19060, Control_c, 13, 11, 122
14, 19090, Control_c, 13, 11, 123
14, 19120, Control_c, 13, 11, 124
14, 19150, Control_c, 13, 11, 125
14, 19180, Control_c, 13, 11, 126
14, 19185, Note_on_c, 13, 32, 0
14, 19200, Note_on_c, 13, 31, 30
14, 19460, Note_on_c, 13, 31, 0
14, 19620, Note_on_c, 13, 40, 40
14, 19650, Note_on_c, 13, 40, 0
14, 19680, Note_on_c, 13, 40, 40
14, 20210, Note_on_c, 13, 40, 0
14, 20610, Control_c, 13, 11, 80
14, 20640, Note_on_c, 13, 41, 30
14, 20880, Note_on_c, 13, 43, 30
14, 20895, Note_on_c, 13, 41, 0
14, 21075, Note_on_c, 13, 43, 0
14, 21120, Note_on_c, 13, 44, 30
14, 21600, Note_on_c, 13, 32, 30
14, 21600, Control_c, 13, 11, 80
14, 21610, Control_c, 13, 11, 83
14, 21615, Note_on_c, 13, 44, 0
14, 21620, Control_c, 13, 11, 87
14, 21630, Control_c, 13, 11, 91
14, 21640, Control_c, 13, 11, 95
14, 21650, Control_c, 13, 11, 99
14, 21660, Control_c, 13, 11, 103
14, 21670, Control_c, 13, 11, 107
14, 21680, Control_c, 13, 11, 111
14, 21690, Control_c, 13, 11, 115
14, 21700, Control_c, 13, 11, 119
14, 21710, Control_c, 13, 11, 123
14, 21720, Control_c, 13, 11, 127
14, 21730, Control_c, 13, 11, 126
14, 21740, Control_c, 13, 11, 125
14, 21750, Control_c, 13, 11, 124
14, 21760, Control_c, 13, 11, 122
14, 21770, Control_c, 13, 11, 121
14, 21780, Control_c, 13, 11, 120
14, 21790, Control_c, 13, 11, 118
14, 21800, Control_c, 13, 11, 117
14, 21810, Control_c, 13, 11, 116
14, 21820, Control_c, 13, 11, 114
14, 21830, Control_c, 13, 11, 113
14, 21840, Control_c, 13, 11, 112
14, 21850, Control_c, 13, 11, 111
14, 21860, Control_c, 13, 11, 109
14, 21870, Control_c, 13, 11, 108
14, 21880, Control_c, 13, 11, 107
14, 21890, Control_c, 13, 11, 105
14, 21900, Control_c, 13, 11, 104
14, 21910, Control_c, 13, 11, 103
14, 21920, Control_c, 13, 11, 101
14, 21930, Control_c, 13, 11, 100
14, 21940, Control_c, 13, 11, 99
14, 21950, Control_c, 13, 11, 97
14, 21960, Control_c, 13, 11, 96
14, 21970, Control_c, 13, 11, 95
14, 21980, Control_c, 13, 11, 94
14, 21990, Control_c, 13, 11, 92
14, 22000, Control_c, 13, 11, 91
14, 22010, Control_c, 13, 11, 90
14, 22020, Control_c, 13, 11, 88
14, 22030, Control_c, 13, 11, 87
14, 22040, Control_c, 13, 11, 86
14, 22050, Control_c, 13, 11, 84
14, 22060, Control_c, 13, 11, 82
14, 22065, Note_on_c, 13, 32, 0
14, 22070, Control_c, 13, 11, 80
14, 22080, Note_on_c, 13, 31, 30
14, 23010, Note_on_c, 13, 31, 0
14, 23040, Note_on_c, 13, 31, 30
14, 23970, Note_on_c, 13, 31, 0
14, 24000, Note_on_c, 13, 31, 30
14, 24000, Control_c, 13, 11, 80
14, 24030, Control_c, 13, 11, 81
14, 24050, Control_c, 13, 11, 82
14, 24070, Control_c, 13, 11, 83
14, 24090, Control_c, 13, 11, 84
14, 24110, Control_c, 13, 11, 85
14, 24130, Control_c, 13, 11, 86
14, 24150, Control_c, 13, 11, 87
14, 24170, Control_c, 13, 11, 88
14, 24190, Control_c, 13, 11, 89
14, 24210, Control_c, 13, 11, 90
14, 24230, Control_c, 13, 11, 91
14, 24250, Control_c, 13, 11, 92
14, 24270, Control_c, 13, 11, 93
14, 24290, Control_c, 13, 11, 94
14, 24310, Control_c, 13, 11, 95
14, 24330, Control_c, 13, 11, 96
14, 24350, Control_c, 13, 11, 97
14, 24370, Control_c, 13, 11, 98
14, 24390, Control_c, 13, 11, 99
14, 24410, Control_c, 13, 11, 100
14, 24430, Control_c, 13, 11, 101
14, 24450, Control_c, 13, 11, 102
14, 24470, Control_c, 13, 11, 103
14, 24500, Control_c, 13, 11, 104
14, 24520, Control_c, 13, 11, 105
14, 24540, Control_c, 13, 11, 106
14, 24560, Control_c, 13, 11, 107
14, 24580, Control_c, 13, 11, 108
14, 24600, Control_c, 13, 11, 109
14, 24620, Control_c, 13, 11, 110
14, 24640, Control_c, 13, 11, 111
14, 24660, Control_c, 13, 11, 112
14, 24680, Control_c, 13, 11, 113
14, 24700, Control_c, 13, 11, 114
14, 24720, Control_c, 13, 11, 115
14, 24740, Control_c, 13, 11, 116
14, 24760, Control_c, 13, 11, 117
14, 24780, Control_c, 13, 11, 118
14, 24800, Control_c, 13, 11, 119
14, 24820, Control_c, 13, 11, 120
14, 24840, Control_c, 13, 11, 121
14, 24860, Control_c, 13, 11, 122
14, 24880, Control_c, 13, 11, 123
14, 24900, Control_c, 13, 11, 124
14, 24920, Control_c, 13, 11, 125
14, 24930, Note_on_c, 13, 31, 0
14, 24940, Control_c, 13, 11, 126
14, 24960, Note_on_c, 13, 31, 30
14, 24960, Control_c, 13, 11, 127
14, 24990, Control_c, 13, 11, 126
14, 25010, Control_c, 13, 11, 125
14, 25030, Control_c, 13, 11, 124
14, 25050, Control_c, 13, 11, 123
14, 25070, Control_c, 13, 11, 122
14, 25090, Control_c, 13, 11, 121
14, 25110, Control_c, 13, 11, 120
14, 25130, Control_c, 13, 11, 119
14, 25150, Control_c, 13, 11, 118
14, 25170, Control_c, 13, 11, 117
14, 25190, Control_c, 13, 11, 116
14, 25210, Control_c, 13, 11, 115
14, 25230, Control_c, 13, 11, 114
14, 25250, Control_c, 13, 11, 113
14, 25270, Control_c, 13, 11, 112
14, 25290, Control_c, 13, 11, 111
14, 25310, Control_c, 13, 11, 110
14, 25330, Control_c, 13, 11, 109
14, 25350, Control_c, 13, 11, 108
14, 25370, Control_c, 13, 11, 107
14, 25390, Control_c, 13, 11, 106
14, 25410, Control_c, 13, 11, 105
14, 25430, Control_c, 13, 11, 104
14, 25460, Control_c, 13, 11, 103
14, 25480, Control_c, 13, 11, 102
14, 25500, Control_c, 13, 11, 101
14, 25520, Control_c, 13, 11, 100
14, 25540, Control_c, 13, 11, 99
14, 25560, Control_c, 13, 11, 98
14, 25580, Control_c, 13, 11, 97
14, 25600, Control_c, 13, 11, 96
14, 25620, Control_c, 13, 11, 95
14, 25640, Control_c, 13, 11, 94
14, 25660, Control_c, 13, 11, 93
14, 25680, Control_c, 13, 11, 92
14, 25700, Control_c, 13, 11, 91
14, 25720, Control_c, 13, 11, 90
14, 25740, Control_c, 13, 11, 89
14, 25760, Control_c, 13, 11, 88
14, 25780, Control_c, 13, 11, 87
14, 25800, Control_c, 13, 11, 86
14, 25820, Control_c, 13, 11, 85
14, 25840, Control_c, 13, 11, 84
14, 25860, Control_c, 13, 11, 83
14, 25880, Control_c, 13, 11, 82
14, 25890, Note_on_c, 13, 31, 0
14, 25900, Control_c, 13, 11, 80
14, 25920, Note_on_c, 13, 31, 30
14, 26145, Note_on_c, 13, 31, 0
14, 29280, Note_on_c, 13, 36, 30
14, 29280, Control_c, 13, 11, 80
14, 29290, Control_c, 13, 11, 83
14, 29300, Control_c, 13, 11, 86
14, 29310, Control_c, 13, 11, 90
14, 29320, Control_c, 13, 11, 93
14, 29330, Control_c, 13, 11, 96
14, 29340, Control_c, 13, 11, 100
14, 29370, Control_c, 13, 11, 99
14, 29390, Control_c, 13, 11, 98
14, 29410, Control_c, 13, 11, 97
14, 29430, Control_c, 13, 11, 96
14, 29450, Control_c, 13, 11, 95
14, 29470, Control_c, 13, 11, 94
14, 29490, Control_c, 13, 11, 93
14, 29510, Control_c, 13, 11, 92
14, 29530, Control_c, 13, 11, 91
14, 29550, Control_c, 13, 11, 90
14, 29580, Control_c, 13, 11, 89
14, 29600, Control_c, 13, 11, 88
14, 29620, Control_c, 13, 11, 87
14, 29640, Control_c, 13, 11, 86
14, 29660, Control_c, 13, 11, 85
14, 29680, Control_c, 13, 11, 84
14, 29700, Control_c, 13, 11, 83
14, 29720, Control_c, 13, 11, 82
14, 29730, Note_on_c, 13, 36, 0
14, 29740, Control_c, 13, 11, 80
14, 29760, Note_on_c, 13, 29, 30
14, 30210, Note_on_c, 13, 29, 0
14, 30600, Note_on_c, 13, 41, 30
14, 30660, Note_on_c, 13, 39, 30
14, 30674, Note_on_c, 13, 41, 0
14, 30720, Note_on_c, 13, 37, 30
14, 30734, Note_on_c, 13, 39, 0
14, 31200, Note_on_c, 13, 37, 0
14, 31560, Note_on_c, 13, 37, 30
14, 31620, Note_on_c, 13, 36, 30
14, 31634, Note_on_c, 13, 37, 0
14, 31680, Note_on_c, 13, 35, 30
14, 31680, Control_c, 13, 11, 80
14, 31694, Note_on_c, 13, 36, 0
14, 31730, Control_c, 13, 11, 82
14, 31780, Control_c, 13, 11, 85
14, 31830, Control_c, 13, 11, 87
14, 31880, Control_c, 13, 11, 90
14, 31920, Note_on_c, 13, 35, 0
14, 31920, Control_c, 13, 11, 92
14, 31970, Control_c, 13, 11, 94
14, 32020, Control_c, 13, 11, 97
14, 32040, Note_on_c, 13, 35, 30
14, 32070, Control_c, 13, 11, 99
14, 32078, Note_on_c, 13, 35, 0
14, 32080, Note_on_c, 13, 35, 30
14, 32118, Note_on_c, 13, 35, 0
14, 32120, Note_on_c, 13, 35, 30
14, 32120, Control_c, 13, 11, 102
14, 32158, Note_on_c, 13, 35, 0
14, 32160, Note_on_c, 13, 41, 30
14, 32160, Control_c, 13, 11, 104
14, 32210, Control_c, 13, 11, 106
14, 32260, Control_c, 13, 11, 109
14, 32310, Control_c, 13, 11, 111
14, 32360, Control_c, 13, 11, 114
14, 32400, Note_on_c, 13, 41, 0
14, 32400, Control_c, 13, 11, 116
14, 32450, Control_c, 13, 11, 118
14, 32500, Control_c, 13, 11, 121
14, 32520, Note_on_c, 13, 41, 30
14, 32550, Control_c, 13, 11, 123
14, 32558, Note_on_c, 13, 41, 0
14, 32560, Note_on_c, 13, 41, 30
14, 32598, Note_on_c, 13, 41, 0
14, 32600, Note_on_c, 13, 41, 30
14, 32600, Control_c, 13, 11, 126
14, 32638, Note_on_c, 13, 41, 0
14, 32640, Note_on_c, 13, 39, 35
14, 32640, Control_c, 13, 11, 127
14, 32730, Note_on_c, 13, 39, 0
14, 32880, Note_on_c, 13, 41, 35
14, 32970, Note_on_c, 13, 41, 0
14, 33180, Control_c, 13, 11, 80
14, 33360, Note_on_c, 13, 32, 30
14, 33810, Note_on_c, 13, 32, 0
14, 33840, Note_on_c, 13, 31, 30
14, 33840, Control_c, 13, 11, 80
14, 33850, Control_c, 13, 11, 82
14, 33860, Control_c, 13, 11, 84
14, 33870, Control_c, 13, 11, 86
14, 33880, Control_c, 13, 11, 88
14, 33890, Control_c, 13, 11, 91
14, 33900, Control_c, 13, 11, 93
14, 33910, Control_c, 13, 11, 95
14, 33920, Control_c, 13, 11, 97
14, 33940, Control_c, 13, 11, 100
14, 33980, Control_c, 13, 11, 99
14, 34010, Control_c, 13, 11, 98
14, 34040, Control_c, 13, 11, 97
14, 34070, Control_c, 13, 11, 96
14, 34100, Control_c, 13, 11, 95
14, 34130, Control_c, 13, 11, 94
14, 34160, Control_c, 13, 11, 93
14, 34190, Control_c, 13, 11, 92
14, 34220, Control_c, 13, 11, 91
14, 34250, Control_c, 13, 11, 90
14, 34290, Control_c, 13, 11, 89
14, 34307, Note_on_c, 13, 31, 0
14, 34320, Note_on_c, 13, 31, 30
14, 34320, Control_c, 13, 11, 88
14, 34350, Control_c, 13, 11, 87
14, 34380, Control_c, 13, 11, 86
14, 34410, Control_c, 13, 11, 85
14, 34440, Control_c, 13, 11, 84
14, 34470, Control_c, 13, 11, 83
14, 34500, Control_c, 13, 11, 82
14, 34530, Control_c, 13, 11, 80
14, 34539, Note_on_c, 13, 31, 0
14, 34560, Note_on_c, 13, 36, 30
14, 34641, Note_on_c, 13, 36, 0
14, 34800, Note_on_c, 13, 44, 30
14, 34881, Note_on_c, 13, 44, 0
14, 34980, Note_on_c, 13, 44, 30
14, 35030, Note_on_c, 13, 44, 0
14, 35040, Note_on_c, 13, 38, 30
14, 35121, Note_on_c, 13, 38, 0
14, 35280, Note_on_c, 13, 46, 30
14, 35361, Note_on_c, 13, 46, 0
14, 35460, Note_on_c, 13, 46, 30
14, 35510, Note_on_c, 13, 46, 0
14, 35520, Note_on_c, 13, 39, 30
14, 35760, Note_on_c, 13, 39, 0
14, 36360, Note_on_c, 13, 39, 30
14, 36398, Note_on_c, 13, 39, 0
14, 36400, Note_on_c, 13, 39, 30
14, 36438, Note_on_c, 13, 39, 0
14, 36440, Note_on_c, 13, 39, 30
14, 36478, Note_on_c, 13, 39, 0
14, 36480, Note_on_c, 13, 34, 30
14, 36720, Note_on_c, 13, 34, 0
14, 37320, Note_on_c, 13, 34, 30
14, 37358, Note_on_c, 13, 34, 0
14, 37360, Note_on_c, 13, 34, 30
14, 37398, Note_on_c, 13, 34, 0
14, 37400, Note_on_c, 13, 34, 30
14, 37438, Note_on_c, 13, 34, 0
14, 37440, Note_on_c, 13, 36, 30
14, 37440, Control_c, 13, 11, 80
14, 37510, Control_c, 13, 11, 81
14, 37570, Control_c, 13, 11, 82
14, 37630, Control_c, 13, 11, 83
14, 37680, Note_on_c, 13, 36, 0
14, 37690, Control_c, 13, 11, 84
14, 37750, Control_c, 13, 11, 85
14, 37800, Note_on_c, 13, 36, 30
14, 37800, Note_on_c, 13, 56, 40
14, 37810, Control_c, 13, 11, 86
14, 37830, Note_on_c, 13, 56, 0
14, 37838, Note_on_c, 13, 36, 0
14, 37840, Note_on_c, 13, 36, 30
14, 37840, Note_on_c, 13, 56, 40
14, 37870, Note_on_c, 13, 56, 0
14, 37878, Note_on_c, 13, 36, 0
14, 37880, Note_on_c, 13, 36, 30
14, 37880, Note_on_c, 13, 56, 40
14, 37880, Control_c, 13, 11, 87
14, 37910, Note_on_c, 13, 56, 0
14, 37918, Note_on_c, 13, 36, 0
14, 37920, Note_on_c, 13, 34, 30
14, 37920, Note_on_c, 13, 55, 40
14, 37940, Control_c, 13, 11, 88
14, 38000, Control_c, 13, 11, 89
14, 38060, Control_c, 13, 11, 90
14, 38120, Control_c, 13, 11, 91
14, 38160, Note_on_c, 13, 34, 0
14, 38160, Note_on_c, 13, 55, 0
14, 38180, Control_c, 13, 11, 92
14, 38240, Control_c, 13, 11, 93
14, 38280, Note_on_c, 13, 32, 30
14, 38280, Note_on_c, 13, 53, 40
14, 38310, Note_on_c, 13, 53, 0
14, 38310, Control_c, 13, 11, 94
14, 38318, Note_on_c, 13, 32, 0
14, 38320, Note_on_c, 13, 32, 30
14, 38320, Note_on_c, 13, 53, 40
14, 38350, Note_on_c, 13, 53, 0
14, 38358, Note_on_c, 13, 32, 0
14, 38360, Note_on_c, 13, 32, 30
14, 38360, Note_on_c, 13, 53, 40
14, 38370, Control_c, 13, 11, 95
14, 38390, Note_on_c, 13, 53, 0
14, 38398, Note_on_c, 13, 32, 0
14, 38400, Note_on_c, 13, 31, 30
14, 38400, Note_on_c, 13, 52, 40
14, 38430, Control_c, 13, 11, 96
14, 38490, Control_c, 13, 11, 97
14, 38550, Control_c, 13, 11, 98
14, 38610, Control_c, 13, 11, 100
14, 38640, Note_on_c, 13, 31, 0
14, 38640, Note_on_c, 13, 52, 0
14, 38760, Note_on_c, 13, 40, 30
14, 38760, Note_on_c, 13, 58, 40
14, 38790, Note_on_c, 13, 58, 0
14, 38798, Note_on_c, 13, 40, 0
14, 38800, Note_on_c, 13, 40, 30
14, 38800, Note_on_c, 13, 58, 40
14, 38830, Note_on_c, 13, 58, 0
14, 38838, Note_on_c, 13, 40, 0
14, 38840, Note_on_c, 13, 40, 30
14, 38840, Note_on_c, 13, 58, 40
14, 38870, Note_on_c, 13, 58, 0
14, 38878, Note_on_c, 13, 40, 0
14, 38880, Note_on_c, 13, 40, 30
14, 38880, Note_on_c, 13, 58, 40
14, 39120, Note_on_c, 13, 40, 0
14, 39120, Note_on_c, 13, 58, 0
14, 39240, Note_on_c, 13, 40, 30
14, 39240, Note_on_c, 13, 58, 40
14, 39270, Note_on_c, 13, 58, 0
14, 39278, Note_on_c, 13, 40, 0
14, 39280, Note_on_c, 13, 40, 30
14, 39318, Note_on_c, 13, 40, 0
14, 39320, Note_on_c, 13, 40, 30
14, 39358, Note_on_c, 13, 40, 0
14, 39358, Control_c, 13, 11, 80
14, 39360, Note_on_c, 13, 40, 30
14, 39600, Note_on_c, 13, 40, 0
14, 39720, Note_on_c, 13, 40, 30
14, 39758, Note_on_c, 13, 40, 0
14, 39760, Note_on_c, 13, 40, 30
14, 39798, Note_on_c, 13, 40, 0
14, 39800, Note_on_c, 13, 40, 30
14, 39838, Note_on_c, 13, 40, 0
14, 39840, Note_on_c, 13, 41, 30
14, 40080, Note_on_c, 13, 41, 0
14, 40200, Note_on_c, 13, 43, 30
14, 40238, Note_on_c, 13, 43, 0
14, 40240, Note_on_c, 13, 43, 30
14, 40278, Note_on_c, 13, 43, 0
14, 40280, Note_on_c, 13, 43, 30
14, 40318, Note_on_c, 13, 43, 0
14, 40320, Note_on_c, 13, 44, 30
14, 40560, Note_on_c, 13, 44, 0
14, 40680, Note_on_c, 13, 32, 30
14, 40718, Note_on_c, 13, 32, 0
14, 40720, Note_on_c, 13, 32, 30
14, 40758, Note_on_c, 13, 32, 0
14, 40760, Note_on_c, 13, 32, 30
14, 40798, Note_on_c, 13, 32, 0
14, 40800, Note_on_c, 13, 32, 40
14, 41040, Note_on_c, 13, 32, 0
14, 41160, Note_on_c, 13, 32, 30
14, 41198, Note_on_c, 13, 32, 0
14, 41200, Note_on_c, 13, 32, 30
14, 41238, Note_on_c, 13, 32, 0
14, 41240, Note_on_c, 13, 32, 30
14, 41278, Note_on_c, 13, 32, 0
14, 41280, Note_on_c, 13, 31, 30
14, 41520, Note_on_c, 13, 31, 0
14, 42120, Note_on_c, 13, 31, 30
14, 42158, Note_on_c, 13, 31, 0
14, 42160, Note_on_c, 13, 31, 30
14, 42198, Note_on_c, 13, 31, 0
14, 42200, Note_on_c, 13, 31, 30
14, 42238, Note_on_c, 13, 31, 0
14, 42240, Note_on_c, 13, 31, 30
14, 42480, Note_on_c, 13, 31, 0
14, 43080, Note_on_c, 13, 31, 30
14, 43118, Note_on_c, 13, 31, 0
14, 43120, Note_on_c, 13, 31, 30
14, 43158, Note_on_c, 13, 31, 0
14, 43160, Note_on_c, 13, 31, 30
14, 43198, Note_on_c, 13, 31, 0
14, 43200, Note_on_c, 13, 31, 30
14, 43200, Control_c, 13, 11, 80
14, 43250, Control_c, 13, 11, 82
14, 43300, Control_c, 13, 11, 84
14, 43350, Control_c, 13, 11, 87
14, 43400, Control_c, 13, 11, 89
14, 43440, Note_on_c, 13, 31, 0
14, 43440, Control_c, 13, 11, 91
14, 43490, Control_c, 13, 11, 94
14, 43540, Control_c, 13, 11, 96
14, 43590, Control_c, 13, 11, 99
14, 43640, Control_c, 13, 11, 101
14, 43680, Control_c, 13, 11, 103
14, 43730, Control_c, 13, 11, 105
14, 43780, Control_c, 13, 11, 108
14, 43830, Control_c, 13, 11, 110
14, 43880, Control_c, 13, 11, 113
14, 43920, Control_c, 13, 11, 115
14, 43970, Control_c, 13, 11, 117
14, 44020, Control_c, 13, 11, 120
14, 44040, Note_on_c, 13, 31, 30
14, 44070, Note_on_c, 13, 31, 0
14, 44070, Control_c, 13, 11, 122
14, 44080, Note_on_c, 13, 31, 30
14, 44110, Note_on_c, 13, 31, 0
14, 44120, Note_on_c, 13, 31, 30
14, 44120, Control_c, 13, 11, 125
14, 44150, Note_on_c, 13, 31, 0
14, 44160, Note_on_c, 13, 31, 30
14, 44160, Control_c, 13, 11, 127
14, 44210, Control_c, 13, 11, 125
14, 44260, Control_c, 13, 11, 123
14, 44310, Control_c, 13, 11, 120
14, 44360, Control_c, 13, 11, 118
14, 44370, Note_on_c, 13, 31, 0
14, 44400, Control_c, 13, 11, 116
14, 44450, Control_c, 13, 11, 113
14, 44500, Control_c, 13, 11, 111
14, 44520, Note_on_c, 13, 31, 30
14, 44550, Note_on_c, 13, 31, 0
14, 44550, Control_c, 13, 11, 108
14, 44560, Note_on_c, 13, 31, 30
14, 44590, Note_on_c, 13, 31, 0
14, 44600, Note_on_c, 13, 31, 30
14, 44600, Control_c, 13, 11, 106
14, 44630, Note_on_c, 13, 31, 0
14, 44640, Note_on_c, 13, 31, 30
14, 44640, Control_c, 13, 11, 104
14, 44690, Control_c, 13, 11, 102
14, 44740, Control_c, 13, 11, 99
14, 44790, Control_c, 13, 11, 97
14, 44840, Control_c, 13, 11, 94
14, 44850, Note_on_c, 13, 31, 0
14, 44880, Control_c, 13, 11, 92
14, 44930, Control_c, 13, 11, 90
14, 44980, Control_c, 13, 11, 87
14, 45000, Note_on_c, 13, 31, 30
14, 45030, Note_on_c, 13, 31, 0
14, 45030, Control_c, 13, 11, 84
14, 45040, Note_on_c, 13, 31, 30
14, 45070, Note_on_c, 13, 31, 0
14, 45080, Note_on_c, 13, 31, 30
14, 45080, Control_c, 13, 11, 80
14, 45110, Note_on_c, 13, 31, 0
14, 45120, Note_on_c, 13, 31, 30
14, 45330, Note_on_c, 13, 31, 0
14, 48840, Note_on_c, 13, 36, 30
14, 48870, Note_on_c, 13, 36, 0
14, 48880, Note_on_c, 13, 36, 30
14, 48910, Note_on_c, 13, 36, 0
14, 48920, Note_on_c, 13, 36, 30
14, 48950, Note_on_c, 13, 36, 0
14, 48960, Note_on_c, 13, 41, 30
14, 49170, Note_on_c, 13, 41, 0
14, 49800, Note_on_c, 13, 41, 30
14, 49830, Note_on_c, 13, 41, 0
14, 49840, Note_on_c, 13, 41, 30
14, 49870, Note_on_c, 13, 41, 0
14, 49880, Note_on_c, 13, 41, 30
14, 49910, Note_on_c, 13, 41, 0
14, 49920, Note_on_c, 13, 37, 30
14, 50130, Note_on_c, 13, 37, 0
14, 50760, Note_on_c, 13, 37, 30
14, 50790, Note_on_c, 13, 37, 0
14, 50800, Note_on_c, 13, 37, 30
14, 50830, Note_on_c, 13, 37, 0
14, 50840, Note_on_c, 13, 37, 30
14, 50870, Note_on_c, 13, 37, 0
14, 50880, Note_on_c, 13, 35, 30
14, 50880, Control_c, 13, 11, 80
14, 50910, Control_c, 13, 11, 81
14, 50930, Control_c, 13, 11, 82
14, 50950, Control_c, 13, 11, 83
14, 50970, Control_c, 13, 11, 84
14, 50990, Control_c, 13, 11, 85
14, 51010, Control_c, 13, 11, 86
14, 51030, Control_c, 13, 11, 87
14, 51050, Control_c, 13, 11, 88
14, 51070, Control_c, 13, 11, 89
14, 51090, Note_on_c, 13, 35, 0
14, 51090, Control_c, 13, 11, 90
14, 51110, Control_c, 13, 11, 91
14, 51130, Control_c, 13, 11, 92
14, 51150, Control_c, 13, 11, 93
14, 51170, Control_c, 13, 11, 94
14, 51190, Control_c, 13, 11, 95
14, 51210, Control_c, 13, 11, 96
14, 51230, Control_c, 13, 11, 97
14, 51240, Note_on_c, 13, 35, 30
14, 51250, Control_c, 13, 11, 98
14, 51270, Note_on_c, 13, 35, 0
14, 51270, Control_c, 13, 11, 99
14, 51280, Note_on_c, 13, 35, 30
14, 51290, Control_c, 13, 11, 100
14, 51310, Note_on_c, 13, 35, 0
14, 51310, Control_c, 13, 11, 101
14, 51320, Note_on_c, 13, 35, 30
14, 51330, Control_c, 13, 11, 102
14, 51350, Note_on_c, 13, 35, 0
14, 51350, Control_c, 13, 11, 103
14, 51360, Note_on_c, 13, 41, 30
14, 51380, Control_c, 13, 11, 104
14, 51400, Control_c, 13, 11, 105
14, 51420, Control_c, 13, 11, 106
14, 51440, Control_c, 13, 11, 107
14, 51460, Control_c, 13, 11, 108
14, 51480, Control_c, 13, 11, 109
14, 51500, Control_c, 13, 11, 110
14, 51520, Control_c, 13, 11, 111
14, 51540, Control_c, 13, 11, 112
14, 51560, Control_c, 13, 11, 113
14, 51570, Note_on_c, 13, 41, 0
14, 51580, Control_c, 13, 11, 114
14, 51600, Control_c, 13, 11, 115
14, 51620, Control_c, 13, 11, 116
14, 51640, Control_c, 13, 11, 117
14, 51660, Control_c, 13, 11, 118
14, 51680, Control_c, 13, 11, 119
14, 51700, Control_c, 13, 11, 120
14, 51720, Note_on_c, 13, 41, 30
14, 51720, Control_c, 13, 11, 121
14, 51740, Control_c, 13, 11, 122
14, 51750, Note_on_c, 13, 41, 0
14, 51760, Note_on_c, 13, 41, 30
14, 51760, Control_c, 13, 11, 123
14, 51780, Control_c, 13, 11, 124
14, 51790, Note_on_c, 13, 41, 0
14, 51800, Note_on_c, 13, 41, 30
14, 51800, Control_c, 13, 11, 125
14, 51820, Control_c, 13, 11, 127
14, 51830, Note_on_c, 13, 41, 0
14, 51840, Note_on_c, 13, 39, 30
14, 51930, Note_on_c, 13, 39, 0
14, 52080, Note_on_c, 13, 41, 30
14, 52170, Note_on_c, 13, 41, 0
14, 52560, Control_c, 13, 11, 80
14, 52810, Control_c, 13, 11, 80
14, 52830, Control_c, 13, 11, 82
14, 52860, Control_c, 13, 11, 85
14, 52880, Control_c, 13, 11, 87
14, 52910, Control_c, 13, 11, 90
14, 52930, Control_c, 13, 11, 92
14, 52960, Control_c, 13, 11, 95
14, 52980, Control_c, 13, 11, 97
14, 53010, Control_c, 13, 11, 100
14, 53030, Control_c, 13, 11, 102
14, 53060, Control_c, 13, 11, 105
14, 53080, Control_c, 13, 11, 107
14, 53110, Control_c, 13, 11, 110
14, 53130, Control_c, 13, 11, 112
14, 53160, Control_c, 13, 11, 115
14, 53180, Control_c, 13, 11, 117
14, 53210, Control_c, 13, 11, 120
14, 53230, Control_c, 13, 11, 122
14, 53260, Control_c, 13, 11, 125
14, 53280, Control_c, 13, 11, 127
14, 53310, Control_c, 13, 11, 125
14, 53330, Control_c, 13, 11, 123
14, 53360, Control_c, 13, 11, 120
14, 53380, Control_c, 13, 11, 118
14, 53400, Control_c, 13, 11, 116
14, 53430, Control_c, 13, 11, 113
14, 53450, Control_c, 13, 11, 111
14, 53480, Control_c, 13, 11, 108
14, 53500, Control_c, 13, 11, 106
14, 53520, Control_c, 13, 11, 104
14, 53550, Control_c, 13, 11, 101
14, 53570, Control_c, 13, 11, 99
14, 53600, Control_c, 13, 11, 96
14, 53620, Control_c, 13, 11, 94
14, 53640, Note_on_c, 13, 31, 30
14, 53640, Control_c, 13, 11, 92
14, 53670, Note_on_c, 13, 31, 0
14, 53670, Control_c, 13, 11, 89
14, 53680, Note_on_c, 13, 31, 30
14, 53690, Control_c, 13, 11, 86
14, 53710, Note_on_c, 13, 31, 0
14, 53720, Note_on_c, 13, 31, 30
14, 53720, Control_c, 13, 11, 83
14, 53740, Control_c, 13, 11, 80
14, 53750, Note_on_c, 13, 31, 0
14, 53760, Note_on_c, 13, 36, 30
14, 53970, Note_on_c, 13, 36, 0
14, 59400, Note_on_c, 13, 42, 30
14, 59430, Note_on_c, 13, 42, 0
14, 59440, Note_on_c, 13, 42, 30
14, 59470, Note_on_c, 13, 42, 0
14, 59480, Note_on_c, 13, 42, 30
14, 59510, Note_on_c, 13, 42, 0
14, 59520, Note_on_c, 13, 43, 30
14, 59730, Note_on_c, 13, 43, 0
14, 59880, Note_on_c, 13, 43, 30
14, 59910, Note_on_c, 13, 43, 0
14, 59920, Note_on_c, 13, 43, 30
14, 59950, Note_on_c, 13, 43, 0
14, 59960, Note_on_c, 13, 43, 30
14, 59990, Note_on_c, 13, 43, 0
14, 60000, Note_on_c, 13, 31, 30
14, 60210, Note_on_c, 13, 31, 0
14, 60360, Note_on_c, 13, 31, 30
14, 60390, Note_on_c, 13, 31, 0
14, 60400, Note_on_c, 13, 31, 30
14, 60430, Note_on_c, 13, 31, 0
14, 60440, Note_on_c, 13, 31, 30
14, 60470, Note_on_c, 13, 31, 0
14, 60480, Note_on_c, 13, 36, 30
14, 60690, Note_on_c, 13, 36, 0
14, 61440, Note_on_c, 13, 43, 30
14, 61650, Note_on_c, 13, 43, 0
14, 61800, Note_on_c, 13, 43, 30
14, 61830, Note_on_c, 13, 43, 0
14, 61840, Note_on_c, 13, 43, 30
14, 61870, Note_on_c, 13, 43, 0
14, 61880, Note_on_c, 13, 43, 30
14, 61910, Note_on_c, 13, 43, 0
14, 61920, Note_on_c, 13, 31, 30
14, 62130, Note_on_c, 13, 31, 0
14, 62280, Note_on_c, 13, 31, 30
14, 62310, Note_on_c, 13, 31, 0
14, 62320, Note_on_c, 13, 31, 30
14, 62350, Note_on_c, 13, 31, 0
14, 62360, Note_on_c, 13, 31, 30
14, 62390, Note_on_c, 13, 31, 0
14, 62400, Note_on_c, 13, 36, 30
14, 62610, Note_on_c, 13, 36, 0
14, 62640, Note_on_c, 13, 44, 30
14, 62640, Control_c, 13, 11, 80
14, 62650, Control_c, 13, 11, 83
14, 62660, Control_c, 13, 11, 86
14, 62670, Control_c, 13, 11, 90
14, 62680, Control_c, 13, 11, 93
14, 62690, Control_c, 13, 11, 96
14, 62700, Control_c, 13, 11, 100
14, 62710, Control_c, 13, 11, 103
14, 62720, Control_c, 13, 11, 106
14, 62740, Control_c, 13, 11, 110
14, 62750, Control_c, 13, 11, 108
14, 62760, Control_c, 13, 11, 106
14, 62770, Control_c, 13, 11, 104
14, 62780, Control_c, 13, 11, 102
14, 62790, Control_c, 13, 11, 100
14, 62800, Control_c, 13, 11, 98
14, 62810, Control_c, 13, 11, 95
14, 62820, Control_c, 13, 11, 93
14, 62830, Control_c, 13, 11, 91
14, 62840, Control_c, 13, 11, 89
14, 62850, Control_c, 13, 11, 87
14, 62860, Control_c, 13, 11, 83
14, 62870, Control_c, 13, 11, 80
14, 62880, Note_on_c, 13, 43, 30
14, 62910, Note_on_c, 13, 44, 0
14, 63120, Note_on_c, 13, 39, 30
14, 63120, Control_c, 13, 11, 80
14, 63130, Control_c, 13, 11, 83
14, 63140, Control_c, 13, 11, 86
14, 63150, Note_on_c, 13, 43, 0
14, 63150, Control_c, 13, 11, 90
14, 63160, Control_c, 13, 11, 93
14, 63170, Control_c, 13, 11, 96
14, 63180, Control_c, 13, 11, 100
14, 63190, Control_c, 13, 11, 103
14, 63200, Control_c, 13, 11, 106
14, 63220, Control_c, 13, 11, 110
14, 63230, Control_c, 13, 11, 108
14, 63240, Control_c, 13, 11, 106
14, 63250, Control_c, 13, 11, 104
14, 63260, Control_c, 13, 11, 102
14, 63270, Control_c, 13, 11, 100
14, 63280, Control_c, 13, 11, 98
14, 63290, Control_c, 13, 11, 95
14, 63300, Control_c, 13, 11, 93
14, 63310, Control_c, 13, 11, 91
14, 63320, Control_c, 13, 11, 89
14, 63330, Control_c, 13, 11, 87
14, 63340, Control_c, 13, 11, 83
14, 63350, Control_c, 13, 11, 80
14, 63360, Note_on_c, 13, 36, 30
14, 63390, Note_on_c, 13, 39, 0
14, 63570, Note_on_c, 13, 36, 0
14, 63600, Note_on_c, 13, 32, 40
14, 63765, Note_on_c, 13, 32, 0
14, 63780, Note_on_c, 13, 41, 40
14, 63825, Note_on_c, 13, 41, 0
14, 63840, Note_on_c, 13, 38, 40
14, 63930, Note_on_c, 13, 38, 0
14, 64080, Note_on_c, 13, 43, 40
14, 64170, Note_on_c, 13, 43, 0
14, 64320, Note_on_c, 13, 36, 30
14, 64410, Note_on_c, 13, 36, 0
14, 64800, Note_on_c, 13, 36, 30
14, 64890, Note_on_c, 13, 36, 0
14, 65280, Note_on_c, 13, 36, 30
14, 65370, Note_on_c, 13, 36, 0
14, 65520, Note_on_c, 13, 31, 30
14, 65580, Note_on_c, 13, 31, 0
14, 65760, Note_on_c, 13, 33, 30
14, 65820, Note_on_c, 13, 33, 0
14, 66000, Note_on_c, 13, 35, 30
14, 66060, Note_on_c, 13, 35, 0
14, 66240, Note_on_c, 13, 36, 30
14, 67410, Note_on_c, 13, 36, 0
14, 67440, Note_on_c, 13, 36, 30
14, 67530, Note_on_c, 13, 36, 0
14, 67680, Note_on_c, 13, 38, 30
14, 67770, Note_on_c, 13, 38, 0
14, 67920, Note_on_c, 13, 40, 30
14, 68010, Note_on_c, 13, 40, 0
14, 68160, Note_on_c, 13, 41, 30
14, 69330, Note_on_c, 13, 41, 0
14, 69390, Note_on_c, 13, 38, 30
14, 69480, Note_on_c, 13, 38, 0
14, 69630, Note_on_c, 13, 40, 30
14, 69720, Note_on_c, 13, 40, 0
14, 69870, Note_on_c, 13, 41, 30
14, 69960, Note_on_c, 13, 41, 0
14, 70080, Note_on_c, 13, 43, 30
14, 71010, Note_on_c, 13, 43, 0
14, 71040, Note_on_c, 13, 44, 30
14, 71130, Note_on_c, 13, 44, 0
14, 71280, Note_on_c, 13, 50, 30
14, 71370, Note_on_c, 13, 50, 0
14, 71520, Note_on_c, 13, 47, 37
14, 71610, Note_on_c, 13, 47, 0
14, 71760, Note_on_c, 13, 44, 44
14, 71850, Note_on_c, 13, 44, 0
14, 72000, Note_on_c, 13, 45, 51
14, 72090, Note_on_c, 13, 45, 0
14, 72240, Note_on_c, 13, 36, 58
14, 72330, Note_on_c, 13, 36, 0
14, 72480, Note_on_c, 13, 38, 65
14, 72570, Note_on_c, 13, 38, 0
14, 72720, Note_on_c, 13, 38, 72
14, 72810, Note_on_c, 13, 38, 0
14, 72960, Note_on_c, 13, 31, 90
14, 72990, Note_on_c, 13, 31, 0
14, 73000, Note_on_c, 13, 31, 90
14, 73030, Note_on_c, 13, 31, 0
14, 73040, Note_on_c, 13, 31, 90
14, 73070, Note_on_c, 13, 31, 0
14, 73080, Note_on_c, 13, 31, 90
14, 73110, Note_on_c, 13, 31, 0
14, 73120, Note_on_c, 13, 31, 90
14, 73150, Note_on_c, 13, 31, 0
14, 73160, Note_on_c, 13, 31, 90
14, 73190, Note_on_c, 13, 31, 0
14, 73200, Note_on_c, 13, 31, 90
14, 73230, Note_on_c, 13, 31, 0
14, 73240, Note_on_c, 13, 31, 90
14, 73270, Note_on_c, 13, 31, 0
14, 73280, Note_on_c, 13, 31, 90
14, 73310, Note_on_c, 13, 31, 0
14, 73320, Note_on_c, 13, 31, 90
14, 73350, Note_on_c, 13, 31, 0
14, 73360, Note_on_c, 13, 31, 90
14, 73390, Note_on_c, 13, 31, 0
14, 73400, Note_on_c, 13, 31, 90
14, 73430, Note_on_c, 13, 31, 0
14, 73440, Note_on_c, 13, 31, 90
14, 73530, Note_on_c, 13, 31, 0
14, 73920, Note_on_c, 13, 31, 90
14, 73950, Note_on_c, 13, 31, 0
14, 73960, Note_on_c, 13, 31, 90
14, 73990, Note_on_c, 13, 31, 0
14, 74000, Note_on_c, 13, 31, 90
14, 74030, Note_on_c, 13, 31, 0
14, 74040, Note_on_c, 13, 31, 90
14, 74070, Note_on_c, 13, 31, 0
14, 74080, Note_on_c, 13, 31, 90
14, 74110, Note_on_c, 13, 31, 0
14, 74120, Note_on_c, 13, 31, 90
14, 74150, Note_on_c, 13, 31, 0
14, 74160, Note_on_c, 13, 31, 90
14, 74190, Note_on_c, 13, 31, 0
14, 74200, Note_on_c, 13, 31, 90
14, 74230, Note_on_c, 13, 31, 0
14, 74240, Note_on_c, 13, 31, 90
14, 74270, Note_on_c, 13, 31, 0
14, 74280, Note_on_c, 13, 31, 90
14, 74310, Note_on_c, 13, 31, 0
14, 74320, Note_on_c, 13, 31, 90
14, 74350, Note_on_c, 13, 31, 0
14, 74360, Note_on_c, 13, 31, 90
14, 74390, Note_on_c, 13, 31, 0
14, 74400, Note_on_c, 13, 31, 90
14, 74490, Note_on_c, 13, 31, 0
14, 74880, Note_on_c, 13, 31, 80
14, 74970, Note_on_c, 13, 31, 0
14, 75360, Note_on_c, 13, 31, 80
14, 75450, Note_on_c, 13, 31, 0
14, 75840, Note_on_c, 13, 31, 80
14, 75930, Note_on_c, 13, 31, 0
14, 76800, Note_on_c, 13, 36, 30
14, 77040, Note_on_c, 13, 36, 0
14, 78000, Note_on_c, 13, 43, 30
14, 78090, Note_on_c, 13, 43, 0
14, 78240, Note_on_c, 13, 40, 30
14, 78330, Note_on_c, 13, 40, 0
14, 78480, Note_on_c, 13, 36, 30
14, 78570, Note_on_c, 13, 36, 0
14, 78720, Note_on_c, 13, 41, 30
14, 78720, Control_c, 13, 11, 80
14, 78790, Control_c, 13, 11, 81
14, 78810, Note_on_c, 13, 41, 0
14, 78850, Control_c, 13, 11, 82
14, 78920, Control_c, 13, 11, 83
14, 78980, Control_c, 13, 11, 84
14, 79040, Control_c, 13, 11, 85
14, 79110, Control_c, 13, 11, 86
14, 79170, Control_c, 13, 11, 87
14, 79200, Note_on_c, 13, 36, 30
14, 79240, Control_c, 13, 11, 88
14, 79290, Note_on_c, 13, 36, 0
14, 79300, Control_c, 13, 11, 89
14, 79360, Control_c, 13, 11, 90
14, 79430, Control_c, 13, 11, 91
14, 79490, Control_c, 13, 11, 92
14, 79560, Control_c, 13, 11, 93
14, 79620, Control_c, 13, 11, 94
14, 79680, Note_on_c, 13, 41, 30
14, 79680, Control_c, 13, 11, 95
14, 79750, Control_c, 13, 11, 96
14, 79770, Note_on_c, 13, 41, 0
14, 79810, Control_c, 13, 11, 97
14, 79880, Control_c, 13, 11, 98
14, 79940, Control_c, 13, 11, 99
14, 80000, Control_c, 13, 11, 100
14, 80070, Control_c, 13, 11, 101
14, 80130, Control_c, 13, 11, 102
14, 80160, Note_on_c, 13, 36, 30
14, 80200, Control_c, 13, 11, 103
14, 80250, Note_on_c, 13, 36, 0
14, 80260, Control_c, 13, 11, 104
14, 80320, Control_c, 13, 11, 105
14, 80390, Control_c, 13, 11, 106
14, 80450, Control_c, 13, 11, 107
14, 80520, Control_c, 13, 11, 108
14, 80580, Control_c, 13, 11, 110
14, 80634, Control_c, 13, 11, 80
14, 80640, Note_on_c, 13, 41, 30
14, 80730, Note_on_c, 13, 41, 0
14, 80880, Note_on_c, 13, 37, 30
14, 80970, Note_on_c, 13, 37, 0
14, 81120, Note_on_c, 13, 38, 30
14, 81210, Note_on_c, 13, 38, 0
14, 81360, Note_on_c, 13, 40, 30
14, 81450, Note_on_c, 13, 40, 0
14, 81600, Note_on_c, 13, 41, 30
14, 81690, Note_on_c, 13, 41, 0
14, 81840, Note_on_c, 13, 40, 30
14, 81930, Note_on_c, 13, 40, 0
14, 82080, Note_on_c, 13, 41, 30
14, 82170, Note_on_c, 13, 41, 0
14, 82320, Note_on_c, 13, 42, 30
14, 82410, Note_on_c, 13, 42, 0
14, 82560, Note_on_c, 13, 43, 30
14, 82650, Note_on_c, 13, 43, 0
14, 82800, Note_on_c, 13, 41, 30
14, 82890, Note_on_c, 13, 41, 0
14, 83040, Note_on_c, 13, 40, 30
14, 83130, Note_on_c, 13, 40, 0
14, 83280, Note_on_c, 13, 36, 30
14, 83370, Note_on_c, 13, 36, 0
14, 83520, Note_on_c, 13, 43, 30
14, 83610, Note_on_c, 13, 43, 0
14, 83760, Note_on_c, 13, 41, 30
14, 83850, Note_on_c, 13, 41, 0
14, 84000, Note_on_c, 13, 40, 30
14, 84090, Note_on_c, 13, 40, 0
14, 84240, Note_on_c, 13, 36, 30
14, 84330, Note_on_c, 13, 36, 0
14, 84480, Note_on_c, 13, 31, 30
14, 84720, Note_on_c, 13, 31, 0
14, 85200, Note_on_c, 13, 55, 30
14, 85245, Note_on_c, 13, 55, 0
14, 85280, Note_on_c, 13, 54, 30
14, 85325, Note_on_c, 13, 54, 0
14, 85360, Note_on_c, 13, 55, 30
14, 85405, Note_on_c, 13, 55, 0
14, 85440, Note_on_c, 13, 53, 30
14, 85485, Note_on_c, 13, 53, 0
14, 85520, Note_on_c, 13, 52, 30
14, 85565, Note_on_c, 13, 52, 0
14, 85600, Note_on_c, 13, 53, 30
14, 85645, Note_on_c, 13, 53, 0
14, 85680, Note_on_c, 13, 50, 30
14, 85725, Note_on_c, 13, 50, 0
14, 85760, Note_on_c, 13, 49, 30
14, 85805, Note_on_c, 13, 49, 0
14, 85840, Note_on_c, 13, 50, 30
14, 85885, Note_on_c, 13, 50, 0
14, 85920, Note_on_c, 13, 47, 30
14, 85965, Note_on_c, 13, 47, 0
14, 86000, Note_on_c, 13, 46, 30
14, 86045, Note_on_c, 13, 46, 0
14, 86080, Note_on_c, 13, 47, 30
14, 86125, Note_on_c, 13, 47, 0
14, 86160, Note_on_c, 13, 41, 30
14, 86205, Note_on_c, 13, 41, 0
14, 86240, Note_on_c, 13, 40, 30
14, 86285, Note_on_c, 13, 40, 0
14, 86320, Note_on_c, 13, 41, 30
14, 86365, Note_on_c, 13, 41, 0
14, 86400, Note_on_c, 13, 40, 30
14, 86640, Note_on_c, 13, 40, 0
14, 87360, Note_on_c, 13, 36, 30
14, 87600, Note_on_c, 13, 36, 0
14, 88320, Note_on_c, 13, 33, 30
14, 88560, Note_on_c, 13, 33, 0
14, 89280, Note_on_c, 13, 29, 30
14, 89520, Note_on_c, 13, 29, 0
14, 90240, Note_on_c, 13, 43, 30
14, 90480, Note_on_c, 13, 43, 0
14, 90720, Note_on_c, 13, 41, 30
14, 90960, Note_on_c, 13, 41, 0
14, 91200, Note_on_c, 13, 40, 30
14, 91440, Note_on_c, 13, 40, 0
14, 91680, Note_on_c, 13, 41, 30
14, 91920, Note_on_c, 13, 41, 0
14, 92160, Note_on_c, 13, 31, 30
14, 92220, Note_on_c, 13, 31, 0
14, 92240, Note_on_c, 13, 43, 30
14, 92300, Note_on_c, 13, 43, 0
14, 92320, Note_on_c, 13, 43, 30
14, 92380, Note_on_c, 13, 43, 0
14, 92400, Note_on_c, 13, 43, 30
14, 92460, Note_on_c, 13, 43, 0
14, 92480, Note_on_c, 13, 43, 30
14, 92540, Note_on_c, 13, 43, 0
14, 92560, Note_on_c, 13, 43, 30
14, 92620, Note_on_c, 13, 43, 0
14, 92640, Note_on_c, 13, 43, 30
14, 92700, Note_on_c, 13, 43, 0
14, 92720, Note_on_c, 13, 43, 30
14, 92780, Note_on_c, 13, 43, 0
14, 92800, Note_on_c, 13, 43, 30
14, 92860, Note_on_c, 13, 43, 0
14, 92880, Note_on_c, 13, 43, 30
14, 92940, Note_on_c, 13, 43, 0
14, 92960, Note_on_c, 13, 43, 30
14, 93020, Note_on_c, 13, 43, 0
14, 93040, Note_on_c, 13, 43, 30
14, 93100, Note_on_c, 13, 43, 0
14, 93120, Note_on_c, 13, 31, 30
14, 93180, Note_on_c, 13, 31, 0
14, 93200, Note_on_c, 13, 31, 30
14, 93260, Note_on_c, 13, 31, 0
14, 93280, Note_on_c, 13, 31, 30
14, 93340, Note_on_c, 13, 31, 0
14, 93360, Note_on_c, 13, 31, 30
14, 93420, Note_on_c, 13, 31, 0
14, 93440, Note_on_c, 13, 31, 30
14, 93500, Note_on_c, 13, 31, 0
14, 93520, Note_on_c, 13, 31, 30
14, 93580, Note_on_c, 13, 31, 0
14, 93600, Note_on_c, 13, 31, 30
14, 93660, Note_on_c, 13, 31, 0
14, 93680, Note_on_c, 13, 31, 30
14, 93740, Note_on_c, 13, 31, 0
14, 93760, Note_on_c, 13, 31, 38
14, 93820, Note_on_c, 13, 31, 0
14, 93840, Note_on_c, 13, 31, 46
14, 93900, Note_on_c, 13, 31, 0
14, 93920, Note_on_c, 13, 31, 54
14, 93980, Note_on_c, 13, 31, 0
14, 94000, Note_on_c, 13, 31, 62
14, 94060, Note_on_c, 13, 31, 0
14, 94080, Note_on_c, 13, 36, 70
14, 94110, Note_on_c, 13, 36, 0
14, 94120, Note_on_c, 13, 48, 70
14, 94150, Note_on_c, 13, 48, 0
14, 94160, Note_on_c, 13, 48, 70
14, 94190, Note_on_c, 13, 48, 0
14, 94200, Note_on_c, 13, 48, 70
14, 94230, Note_on_c, 13, 48, 0
14, 94240, Note_on_c, 13, 48, 70
14, 94270, Note_on_c, 13, 48, 0
14, 94280, Note_on_c, 13, 48, 70
14, 94310, Note_on_c, 13, 48, 0
14, 94320, Note_on_c, 13, 48, 70
14, 94350, Note_on_c, 13, 48, 0
14, 94360, Note_on_c, 13, 48, 70
14, 94390, Note_on_c, 13, 48, 0
14, 94400, Note_on_c, 13, 48, 70
14, 94430, Note_on_c, 13, 48, 0
14, 94440, Note_on_c, 13, 48, 70
14, 94470, Note_on_c, 13, 48, 0
14, 94480, Note_on_c, 13, 48, 70
14, 94510, Note_on_c, 13, 48, 0
14, 94520, Note_on_c, 13, 48, 70
14, 94550, Note_on_c, 13, 48, 0
14, 94560, Note_on_c, 13, 48, 70
14, 94650, Note_on_c, 13, 48, 0
14, 95040, Note_on_c, 13, 36, 70
14, 95070, Note_on_c, 13, 36, 0
14, 95080, Note_on_c, 13, 48, 70
14, 95110, Note_on_c, 13, 48, 0
14, 95120, Note_on_c, 13, 48, 70
14, 95150, Note_on_c, 13, 48, 0
14, 95160, Note_on_c, 13, 48, 70
14, 95190, Note_on_c, 13, 48, 0
14, 95200, Note_on_c, 13, 48, 70
14, 95230, Note_on_c, 13, 48, 0
14, 95240, Note_on_c, 13, 48, 70
14, 95270, Note_on_c, 13, 48, 0
14, 95280, Note_on_c, 13, 48, 70
14, 95310, Note_on_c, 13, 48, 0
14, 95320, Note_on_c, 13, 48, 70
14, 95350, Note_on_c, 13, 48, 0
14, 95360, Note_on_c, 13, 48, 70
14, 95390, Note_on_c, 13, 48, 0
14, 95400, Note_on_c, 13, 48, 70
14, 95430, Note_on_c, 13, 48, 0
14, 95440, Note_on_c, 13, 48, 70
14, 95470, Note_on_c, 13, 48, 0
14, 95480, Note_on_c, 13, 48, 70
14, 95510, Note_on_c, 13, 48, 0
14, 95520, Note_on_c, 13, 48, 70
14, 95610, Note_on_c, 13, 48, 0
14, 96000, Note_on_c, 13, 36, 70
14, 96090, Note_on_c, 13, 36, 0
14, 96480, Note_on_c, 13, 36, 70
14, 96570, Note_on_c, 13, 36, 0
14, 96960, Note_on_c, 13, 48, 30
14, 96960, Control_c, 13, 11, 80
14, 96970, Control_c, 13, 11, 83
14, 96980, Control_c, 13, 11, 87
14, 96990, Control_c, 13, 11, 91
14, 97000, Control_c, 13, 11, 95
14, 97010, Control_c, 13, 11, 99
14, 97020, Control_c, 13, 11, 103
14, 97030, Control_c, 13, 11, 107
14, 97040, Control_c, 13, 11, 111
14, 97050, Control_c, 13, 11, 115
14, 97060, Control_c, 13, 11, 119
14, 97070, Control_c, 13, 11, 123
14, 97080, Control_c, 13, 11, 127
14, 97100, Control_c, 13, 11, 126
14, 97110, Control_c, 13, 11, 125
14, 97120, Control_c, 13, 11, 124
14, 97140, Control_c, 13, 11, 123
14, 97150, Control_c, 13, 11, 122
14, 97160, Control_c, 13, 11, 121
14, 97170, Control_c, 13, 11, 120
14, 97190, Control_c, 13, 11, 119
14, 97200, Control_c, 13, 11, 118
14, 97210, Control_c, 13, 11, 117
14, 97230, Control_c, 13, 11, 116
14, 97240, Control_c, 13, 11, 115
14, 97250, Control_c, 13, 11, 114
14, 97260, Control_c, 13, 11, 113
14, 97280, Control_c, 13, 11, 112
14, 97290, Control_c, 13, 11, 111
14, 97300, Control_c, 13, 11, 110
14, 97310, Control_c, 13, 11, 109
14, 97330, Control_c, 13, 11, 108
14, 97340, Control_c, 13, 11, 107
14, 97350, Control_c, 13, 11, 106
14, 97370, Control_c, 13, 11, 105
14, 97380, Control_c, 13, 11, 104
14, 97390, Control_c, 13, 11, 103
14, 97400, Control_c, 13, 11, 102
14, 97420, Control_c, 13, 11, 101
14, 97430, Control_c, 13, 11, 100
14, 97440, Control_c, 13, 11, 99
14, 97460, Control_c, 13, 11, 98
14, 97470, Control_c, 13, 11, 97
14, 97480, Control_c, 13, 11, 96
14, 97490, Control_c, 13, 11, 95
14, 97510, Control_c, 13, 11, 94
14, 97520, Control_c, 13, 11, 93
14, 97530, Control_c, 13, 11, 92
14, 97540, Control_c, 13, 11, 91
14, 97560, Control_c, 13, 11, 90
14, 97570, Control_c, 13, 11, 89
14, 97580, Control_c, 13, 11, 88
14, 97600, Control_c, 13, 11, 87
14, 97610, Control_c, 13, 11, 86
14, 97620, Control_c, 13, 11, 85
14, 97630, Control_c, 13, 11, 84
14, 97650, Control_c, 13, 11, 83
14, 97660, Control_c, 13, 11, 82
14, 97670, Control_c, 13, 11, 81
14, 97920, Note_on_c, 13, 44, 30
14, 97950, Note_on_c, 13, 48, 0
14, 98640, Note_on_c, 13, 41, 30
14, 98670, Note_on_c, 13, 44, 0
14, 98850, Note_on_c, 13, 41, 0
14, 98880, Note_on_c, 13, 37, 30
14, 98880, Control_c, 13, 11, 80
14, 98920, Control_c, 13, 11, 82
14, 98950, Control_c, 13, 11, 83
14, 98980, Control_c, 13, 11, 85
14, 99010, Control_c, 13, 11, 86
14, 99040, Control_c, 13, 11, 88
14, 99070, Control_c, 13, 11, 89
14, 99100, Control_c, 13, 11, 91
14, 99120, Note_on_c, 13, 44, 40
14, 99130, Control_c, 13, 11, 92
14, 99150, Note_on_c, 13, 37, 0
14, 99160, Control_c, 13, 11, 94
14, 99190, Control_c, 13, 11, 95
14, 99230, Control_c, 13, 11, 97
14, 99260, Control_c, 13, 11, 99
14, 99290, Control_c, 13, 11, 100
14, 99300, Note_on_c, 13, 41, 47
14, 99315, Note_on_c, 13, 44, 0
14, 99320, Control_c, 13, 11, 102
14, 99345, Note_on_c, 13, 41, 0
14, 99350, Control_c, 13, 11, 103
14, 99360, Note_on_c, 13, 37, 50
14, 99380, Control_c, 13, 11, 105
14, 99410, Control_c, 13, 11, 106
14, 99440, Control_c, 13, 11, 108
14, 99450, Note_on_c, 13, 37, 0
14, 99470, Control_c, 13, 11, 109
14, 99500, Control_c, 13, 11, 111
14, 99540, Control_c, 13, 11, 113
14, 99570, Control_c, 13, 11, 114
14, 99600, Note_on_c, 13, 36, 60
14, 99600, Control_c, 13, 11, 116
14, 99630, Control_c, 13, 11, 117
14, 99660, Control_c, 13, 11, 119
14, 99690, Note_on_c, 13, 36, 0
14, 99690, Control_c, 13, 11, 120
14, 99720, Control_c, 13, 11, 122
14, 99750, Control_c, 13, 11, 124
14, 99780, Control_c, 13, 11, 127
14, 99837, Control_c, 13, 11, 80
14, 99840, Note_on_c, 13, 35, 45
14, 100080, Note_on_c, 13, 35, 0
14, 100800, Note_on_c, 13, 31, 40
14, 100830, Note_on_c, 13, 33, 40
14, 100860, Note_on_c, 13, 31, 0
14, 100860, Note_on_c, 13, 35, 40
14, 100890, Note_on_c, 13, 33, 0
14, 100890, Note_on_c, 13, 36, 40
14, 100920, Note_on_c, 13, 35, 0
14, 101220, Note_on_c, 13, 36, 0
14, 101760, Note_on_c, 13, 31, 40
14, 101790, Note_on_c, 13, 33, 40
14, 101820, Note_on_c, 13, 31, 0
14, 101820, Note_on_c, 13, 35, 40
14, 101850, Note_on_c, 13, 33, 0
14, 101850, Note_on_c, 13, 36, 40
14, 101880, Note_on_c, 13, 35, 0
14, 102180, Note_on_c, 13, 36, 0
14, 102600, Note_on_c, 13, 31, 40
14, 102640, Note_on_c, 13, 33, 40
14, 102645, Note_on_c, 13, 31, 0
14, 102680, Note_on_c, 13, 35, 40
14, 102685, Note_on_c, 13, 33, 0
14, 102720, Note_on_c, 13, 36, 40
14, 102725, Note_on_c, 13, 35, 0
14, 102960, Note_on_c, 13, 36, 0
14, 103080, Note_on_c, 13, 36, 40
14, 103140, Note_on_c, 13, 38, 40
14, 103155, Note_on_c, 13, 36, 0
14, 103200, Note_on_c, 13, 39, 40
14, 103215, Note_on_c, 13, 38, 0
14, 103440, Note_on_c, 13, 39, 0
14, 103560, Note_on_c, 13, 39, 40
14, 103620, Note_on_c, 13, 41, 40
14, 103635, Note_on_c, 13, 39, 0
14, 103680, Note_on_c, 13, 43, 40
14, 103695, Note_on_c, 13, 41, 0
14, 104400, Note_on_c, 13, 43, 0
14, 104520, Note_on_c, 13, 41, 40
14, 104580, Note_on_c, 13, 43, 40
14, 104595, Note_on_c, 13, 41, 0
14, 104640, Note_on_c, 13, 44, 40
14, 104655, Note_on_c, 13, 43, 0
14, 105120, Note_on_c, 13, 44, 0
14, 105360, Note_on_c, 13, 41, 40
14, 105420, Note_on_c, 13, 39, 40
14, 105435, Note_on_c, 13, 41, 0
14, 105480, Note_on_c, 13, 38, 40
14, 105495, Note_on_c, 13, 39, 0
14, 105540, Note_on_c, 13, 36, 40
14, 105555, Note_on_c, 13, 38, 0
14, 105600, Note_on_c, 13, 35, 40
14, 105615, Note_on_c, 13, 36, 0
14, 105840, Note_on_c, 13, 35, 0
14, 106440, Note_on_c, 13, 46, 40
14, 106500, Note_on_c, 13, 48, 40
14, 106515, Note_on_c, 13, 46, 0
14, 106560, Note_on_c, 13, 49, 40
14, 106575, Note_on_c, 13, 48, 0
14, 106800, Note_on_c, 13, 49, 0
14, 107280, Note_on_c, 13, 46, 40
14, 107340, Note_on_c, 13, 44, 40
14, 107355, Note_on_c, 13, 46, 0
14, 107400, Note_on_c, 13, 43, 40
14, 107415, Note_on_c, 13, 44, 0
14, 107460, Note_on_c, 13, 41, 40
14, 107475, Note_on_c, 13, 43, 0
14, 107505, Note_on_c, 13, 41, 0
14, 107520, Note_on_c, 13, 40, 40
14, 107520, Control_c, 13, 11, 80
14, 107530, Control_c, 13, 11, 83
14, 107540, Control_c, 13, 11, 86
14, 107550, Control_c, 13, 11, 90
14, 107560, Control_c, 13, 11, 93
14, 107570, Control_c, 13, 11, 96
14, 107580, Control_c, 13, 11, 100
14, 107590, Control_c, 13, 11, 103
14, 107600, Control_c, 13, 11, 106
14, 107620, Control_c, 13, 11, 110
14, 107640, Control_c, 13, 11, 109
14, 107650, Control_c, 13, 11, 108
14, 107660, Control_c, 13, 11, 107
14, 107670, Control_c, 13, 11, 106
14, 107690, Control_c, 13, 11, 105
14, 107700, Control_c, 13, 11, 104
14, 107710, Control_c, 13, 11, 103
14, 107720, Control_c, 13, 11, 102
14, 107740, Control_c, 13, 11, 101
14, 107750, Control_c, 13, 11, 100
14, 107760, Note_on_c, 13, 40, 0
14, 107760, Control_c, 13, 11, 99
14, 107770, Control_c, 13, 11, 98
14, 107780, Control_c, 13, 11, 97
14, 107800, Control_c, 13, 11, 96
14, 107810, Control_c, 13, 11, 95
14, 107820, Control_c, 13, 11, 94
14, 107830, Control_c, 13, 11, 93
14, 107850, Control_c, 13, 11, 92
14, 107860, Control_c, 13, 11, 91
14, 107870, Control_c, 13, 11, 90
14, 107880, Control_c, 13, 11, 89
14, 107890, Control_c, 13, 11, 88
14, 107910, Control_c, 13, 11, 87
14, 107920, Control_c, 13, 11, 86
14, 107930, Control_c, 13, 11, 85
14, 107940, Control_c, 13, 11, 84
14, 107960, Control_c, 13, 11, 83
14, 107970, Control_c, 13, 11, 82
14, 107980, Control_c, 13, 11, 81
14, 107990, Control_c, 13, 11, 80
14, 108360, Note_on_c, 13, 36, 40
14, 108400, Note_on_c, 13, 38, 40
14, 108405, Note_on_c, 13, 36, 0
14, 108440, Note_on_c, 13, 40, 40
14, 108445, Note_on_c, 13, 38, 0
14, 108480, Note_on_c, 13, 41, 40
14, 108485, Note_on_c, 13, 40, 0
14, 108720, Note_on_c, 13, 41, 0
14, 108840, Note_on_c, 13, 35, 40
14, 108870, Note_on_c, 13, 35, 0
14, 108880, Note_on_c, 13, 35, 40
14, 108910, Note_on_c, 13, 35, 0
14, 108920, Note_on_c, 13, 35, 40
14, 108950, Note_on_c, 13, 35, 0
14, 108960, Note_on_c, 13, 36, 40
14, 109140, Note_on_c, 13, 36, 0
14, 109320, Note_on_c, 13, 36, 46
14, 109350, Note_on_c, 13, 36, 0
14, 109360, Note_on_c, 13, 36, 53
14, 109390, Note_on_c, 13, 36, 0
14, 109400, Note_on_c, 13, 36, 60
14, 109430, Note_on_c, 13, 36, 0
14, 109440, Note_on_c, 13, 29, 80
14, 109620, Note_on_c, 13, 29, 0
14, 120960, Note_on_c, 13, 36, 80
14, 121440, Note_on_c, 13, 38, 80
14, 121470, Note_on_c, 13, 36, 0
14, 121680, Note_on_c, 13, 39, 80
14, 121710, Note_on_c, 13, 38, 0
14, 121890, Note_on_c, 13, 39, 0
14, 121920, Note_on_c, 13, 41, 80
14, 121920, Control_c, 13, 11, 80
14, 121930, Control_c, 13, 11, 81
14, 121940, Control_c, 13, 11, 83
14, 121950, Control_c, 13, 11, 85
14, 121960, Control_c, 13, 11, 86
14, 121970, Control_c, 13, 11, 88
14, 121980, Control_c, 13, 11, 90
14, 121990, Control_c, 13, 11, 91
14, 122000, Control_c, 13, 11, 93
14, 122020, Control_c, 13, 11, 95
14, 122050, Control_c, 13, 11, 94
14, 122070, Control_c, 13, 11, 93
14, 122100, Control_c, 13, 11, 92
14, 122120, Control_c, 13, 11, 91
14, 122140, Control_c, 13, 11, 90
14, 122170, Control_c, 13, 11, 89
14, 122190, Control_c, 13, 11, 88
14, 122210, Control_c, 13, 11, 87
14, 122240, Control_c, 13, 11, 86
14, 122260, Control_c, 13, 11, 85
14, 122290, Control_c, 13, 11, 84
14, 122310, Control_c, 13, 11, 83
14, 122330, Control_c, 13, 11, 82
14, 122360, Control_c, 13, 11, 81
14, 122380, Control_c, 13, 11, 80
14, 122610, Note_on_c, 13, 41, 0
14, 122640, Note_on_c, 13, 39, 80
14, 122850, Note_on_c, 13, 39, 0
14, 122880, Note_on_c, 13, 38, 80
14, 123120, Note_on_c, 13, 44, 80
14, 123150, Note_on_c, 13, 38, 0
14, 123360, Note_on_c, 13, 43, 80
14, 123390, Note_on_c, 13, 44, 0
14, 123600, Note_on_c, 13, 41, 80
14, 123630, Note_on_c, 13, 43, 0
14, 123810, Note_on_c, 13, 41, 0
14, 123840, Note_on_c, 13, 40, 80
14, 124080, Note_on_c, 13, 49, 80
14, 124110, Note_on_c, 13, 40, 0
14, 124320, Note_on_c, 13, 48, 80
14, 124350, Note_on_c, 13, 49, 0
14, 124560, Note_on_c, 13, 46, 87
14, 124590, Note_on_c, 13, 48, 0
14, 124770, Note_on_c, 13, 46, 0
14, 124800, Note_on_c, 13, 44, 95
14, 124860, Note_on_c, 13, 44, 0
14, 124920, Note_on_c, 13, 48, 95
14, 124980, Note_on_c, 13, 48, 0
14, 125040, Note_on_c, 13, 49, 95
14, 125100, Note_on_c, 13, 49, 0
14, 125160, Note_on_c, 13, 48, 95
14, 125220, Note_on_c, 13, 48, 0
14, 125280, Note_on_c, 13, 46, 95
14, 125340, Note_on_c, 13, 46, 0
14, 125400, Note_on_c, 13, 44, 95
14, 125460, Note_on_c, 13, 44, 0
14, 125520, Note_on_c, 13, 43, 95
14, 125580, Note_on_c, 13, 43, 0
14, 125640, Note_on_c, 13, 41, 95
14, 125700, Note_on_c, 13, 41, 0
14, 125760, Note_on_c, 13, 46, 95
14, 125820, Note_on_c, 13, 46, 0
14, 125880, Note_on_c, 13, 34, 95
14, 125940, Note_on_c, 13, 34, 0
14, 126000, Note_on_c, 13, 36, 95
14, 126060, Note_on_c, 13, 36, 0
14, 126120, Note_on_c, 13, 34, 95
14, 126180, Note_on_c, 13, 34, 0
14, 126240, Note_on_c, 13, 46, 95
14, 126300, Note_on_c, 13, 46, 0
14, 126360, Note_on_c, 13, 34, 95
14, 126420, Note_on_c, 13, 34, 0
14, 126480, Note_on_c, 13, 46, 95
14, 126540, Note_on_c, 13, 46, 0
14, 126600, Note_on_c, 13, 34, 95
14, 126660, Note_on_c, 13, 34, 0
14, 126720, Note_on_c, 13, 46, 95
14, 126780, Note_on_c, 13, 46, 0
14, 126840, Note_on_c, 13, 36, 95
14, 126900, Note_on_c, 13, 36, 0
14, 126960, Note_on_c, 13, 46, 95
14, 127020, Note_on_c, 13, 46, 0
14, 127080, Note_on_c, 13, 36, 95
14, 127140, Note_on_c, 13, 36, 0
14, 127200, Note_on_c, 13, 44, 95
14, 127260, Note_on_c, 13, 44, 0
14, 127320, Note_on_c, 13, 36, 95
14, 127380, Note_on_c, 13, 36, 0
14, 127440, Note_on_c, 13, 43, 95
14, 127500, Note_on_c, 13, 43, 0
14, 127560, Note_on_c, 13, 36, 95
14, 127620, Note_on_c, 13, 36, 0
14, 127680, Note_on_c, 13, 41, 95
14, 127920, Note_on_c, 13, 41, 0
14, 128640, Note_on_c, 13, 34, 95
14, 128700, Note_on_c, 13, 34, 0
14, 128880, Note_on_c, 13, 44, 95
14, 128940, Note_on_c, 13, 44, 0
14, 129120, Note_on_c, 13, 43, 95
14, 129180, Note_on_c, 13, 43, 0
14, 129360, Note_on_c, 13, 41, 95
14, 129420, Note_on_c, 13, 41, 0
14, 129480, Note_on_c, 13, 46, 95
14, 129540, Note_on_c, 13, 46, 0
14, 129600, Note_on_c, 13, 39, 95
14, 129660, Note_on_c, 13, 39, 0
14, 129720, Note_on_c, 13, 41, 95
14, 129780, Note_on_c, 13, 41, 0
14, 129840, Note_on_c, 13, 39, 95
14, 129900, Note_on_c, 13, 39, 0
14, 129960, Note_on_c, 13, 38, 95
14, 130020, Note_on_c, 13, 38, 0
14, 130080, Note_on_c, 13, 36, 95
14, 130140, Note_on_c, 13, 36, 0
14, 130200, Note_on_c, 13, 34, 95
14, 130260, Note_on_c, 13, 34, 0
14, 130320, Note_on_c, 13, 32, 95
14, 130380, Note_on_c, 13, 32, 0
14, 130440, Note_on_c, 13, 31, 95
14, 130500, Note_on_c, 13, 31, 0
14, 130560, Note_on_c, 13, 29, 95
14, 130800, Note_on_c, 13, 29, 0
14, 131640, Note_on_c, 13, 43, 95
14, 131700, Note_on_c, 13, 43, 0
14, 131760, Note_on_c, 13, 41, 95
14, 131820, Note_on_c, 13, 41, 0
14, 131880, Note_on_c, 13, 39, 95
14, 131940, Note_on_c, 13, 39, 0
14, 132000, Note_on_c, 13, 38, 95
14, 132060, Note_on_c, 13, 38, 0
14, 132120, Note_on_c, 13, 36, 95
14, 132180, Note_on_c, 13, 36, 0
14, 132240, Note_on_c, 13, 34, 95
14, 132300, Note_on_c, 13, 34, 0
14, 132360, Note_on_c, 13, 33, 95
14, 132420, Note_on_c, 13, 33, 0
14, 132480, Note_on_c, 13, 31, 95
14, 132720, Note_on_c, 13, 31, 0
14, 133920, Note_on_c, 13, 36, 95
14, 134880, Note_on_c, 13, 38, 95
14, 134910, Note_on_c, 13, 36, 0
14, 135120, Note_on_c, 13, 39, 95
14, 135150, Note_on_c, 13, 38, 0
14, 135330, Note_on_c, 13, 39, 0
14, 135360, Note_on_c, 13, 41, 95
14, 136080, Note_on_c, 13, 39, 95
14, 136110, Note_on_c, 13, 41, 0
14, 136290, Note_on_c, 13, 39, 0
14, 136320, Note_on_c, 13, 38, 95
14, 136800, Note_on_c, 13, 39, 95
14, 136830, Note_on_c, 13, 38, 0
14, 137040, Note_on_c, 13, 41, 95
14, 137070, Note_on_c, 13, 39, 0
14, 137250, Note_on_c, 13, 41, 0
14, 137280, Note_on_c, 13, 43, 95
14, 138000, Note_on_c, 13, 41, 95
14, 138030, Note_on_c, 13, 43, 0
14, 138210, Note_on_c, 13, 41, 0
14, 138240, Note_on_c, 13, 39, 95
14, 138260, Note_on_c, 13, 39, 0
14, 138260, Note_on_c, 13, 41, 95
14, 138280, Note_on_c, 13, 39, 95
14, 138280, Note_on_c, 13, 41, 0
14, 138300, Note_on_c, 13, 39, 0
14, 138300, Note_on_c, 13, 41, 95
14, 138320, Note_on_c, 13, 39, 95
14, 138320, Note_on_c, 13, 41, 0
14, 138340, Note_on_c, 13, 39, 0
14, 138340, Note_on_c, 13, 41, 95
14, 138360, Note_on_c, 13, 39, 95
14, 138360, Note_on_c, 13, 41, 0
14, 138380, Note_on_c, 13, 39, 0
14, 138380, Note_on_c, 13, 41, 95
14, 138400, Note_on_c, 13, 39, 95
14, 138400, Note_on_c, 13, 41, 0
14, 138420, Note_on_c, 13, 39, 0
14, 138420, Note_on_c, 13, 41, 95
14, 138440, Note_on_c, 13, 39, 95
14, 138440, Note_on_c, 13, 41, 0
14, 138460, Note_on_c, 13, 39, 0
14, 138460, Note_on_c, 13, 41, 95
14, 138480, Note_on_c, 13, 39, 95
14, 138480, Note_on_c, 13, 41, 0
14, 138500, Note_on_c, 13, 39, 0
14, 138500, Note_on_c, 13, 41, 95
14, 138520, Note_on_c, 13, 39, 95
14, 138520, Note_on_c, 13, 41, 0
14, 138540, Note_on_c, 13, 39, 0
14, 138540, Note_on_c, 13, 41, 95
14, 138560, Note_on_c, 13, 39, 95
14, 138560, Note_on_c, 13, 41, 0
14, 138580, Note_on_c, 13, 39, 0
14, 138580, Note_on_c, 13, 41, 95
14, 138600, Note_on_c, 13, 39, 95
14, 138600, Note_on_c, 13, 41, 0
14, 138620, Note_on_c, 13, 39, 0
14, 138620, Note_on_c, 13, 41, 95
14, 138640, Note_on_c, 13, 39, 95
14, 138640, Note_on_c, 13, 41, 0
14, 138660, Note_on_c, 13, 39, 0
14, 138660, Note_on_c, 13, 41, 95
14, 138680, Note_on_c, 13, 39, 95
14, 138680, Note_on_c, 13, 41, 0
14, 138700, Note_on_c, 13, 39, 0
14, 138700, Note_on_c, 13, 41, 95
14, 138720, Note_on_c, 13, 39, 95
14, 138720, Note_on_c, 13, 41, 0
14, 138740, Note_on_c, 13, 39, 0
14, 138740, Note_on_c, 13, 41, 95
14, 138760, Note_on_c, 13, 39, 95
14, 138760, Note_on_c, 13, 41, 0
14, 138780, Note_on_c, 13, 39, 0
14, 138780, Note_on_c, 13, 41, 95
14, 138800, Note_on_c, 13, 39, 95
14, 138800, Note_on_c, 13, 41, 0
14, 138820, Note_on_c, 13, 39, 0
14, 138820, Note_on_c, 13, 41, 95
14, 138840, Note_on_c, 13, 39, 95
14, 138840, Note_on_c, 13, 41, 0
14, 138860, Note_on_c, 13, 39, 0
14, 138860, Note_on_c, 13, 41, 95
14, 138880, Note_on_c, 13, 39, 95
14, 138880, Note_on_c, 13, 41, 0
14, 138900, Note_on_c, 13, 39, 0
14, 138900, Note_on_c, 13, 41, 95
14, 138920, Note_on_c, 13, 39, 95
14, 138920, Note_on_c, 13, 41, 0
14, 138940, Note_on_c, 13, 39, 0
14, 138940, Note_on_c, 13, 41, 95
14, 138960, Note_on_c, 13, 39, 95
14, 138960, Note_on_c, 13, 41, 0
14, 138980, Note_on_c, 13, 39, 0
14, 138980, Note_on_c, 13, 41, 95
14, 139000, Note_on_c, 13, 39, 95
14, 139000, Note_on_c, 13, 41, 0
14, 139020, Note_on_c, 13, 39, 0
14, 139020, Note_on_c, 13, 41, 95
14, 139040, Note_on_c, 13, 39, 95
14, 139040, Note_on_c, 13, 41, 0
14, 139060, Note_on_c, 13, 39, 0
14, 139060, Note_on_c, 13, 41, 95
14, 139080, Note_on_c, 13, 39, 95
14, 139080, Note_on_c, 13, 41, 0
14, 139100, Note_on_c, 13, 39, 0
14, 139100, Note_on_c, 13, 41, 95
14, 139120, Note_on_c, 13, 39, 95
14, 139120, Note_on_c, 13, 41, 0
14, 139140, Note_on_c, 13, 39, 0
14, 139140, Note_on_c, 13, 41, 95
14, 139160, Note_on_c, 13, 39, 95
14, 139160, Note_on_c, 13, 41, 0
14, 139180, Note_on_c, 13, 39, 0
14, 139200, Note_on_c, 13, 38, 95
14, 140130, Note_on_c, 13, 38, 0
14, 140160, Note_on_c, 13, 38, 95
14, 141090, Note_on_c, 13, 38, 0
14, 141120, Note_on_c, 13, 38, 95
14, 142050, Note_on_c, 13, 38, 0
14, 142080, Note_on_c, 13, 38, 95
14, 143010, Note_on_c, 13, 38, 0
14, 143040, Note_on_c, 13, 38, 95
14, 143280, Note_on_c, 13, 40, 95
14, 143310, Note_on_c, 13, 38, 0
14, 143400, Note_on_c, 13, 42, 95
14, 143430, Note_on_c, 13, 40, 0
14, 143520, Note_on_c, 13, 43, 95
14, 143550, Note_on_c, 13, 42, 0
14, 143760, Note_on_c, 13, 39, 95
14, 143790, Note_on_c, 13, 43, 0
14, 143880, Note_on_c, 13, 38, 95
14, 143910, Note_on_c, 13, 39, 0
14, 143970, Note_on_c, 13, 38, 0
14, 143997, Note_on_c, 13, 37, 117
14, 144087, Note_on_c, 13, 37, 0
14, 144480, Note_on_c, 13, 37, 95
14, 145050, Note_on_c, 13, 37, 0
14, 145200, Note_on_c, 13, 37, 95
14, 145290, Note_on_c, 13, 37, 0
14, 145440, Note_on_c, 13, 37, 95
14, 145530, Note_on_c, 13, 37, 0
14, 145680, Note_on_c, 13, 37, 95
14, 145770, Note_on_c, 13, 37, 0
14, 145920, Note_on_c, 13, 38, 75
14, 147810, Note_on_c, 13, 38, 0
14, 147840, Note_on_c, 13, 31, 40
14, 148290, Note_on_c, 13, 31, 0
14, 148800, Note_on_c, 13, 43, 40
14, 149250, Note_on_c, 13, 43, 0
14, 149760, Note_on_c, 13, 41, 40
14, 150240, Note_on_c, 13, 41, 0
14, 151680, Note_on_c, 13, 32, 80
14, 152635, Note_on_c, 13, 32, 0
14, 152640, Note_on_c, 13, 32, 80
14, 153595, Note_on_c, 13, 32, 0
14, 153600, Note_on_c, 13, 32, 105
14, 153645, Note_on_c, 13, 32, 0
14, 153680, Note_on_c, 13, 31, 105
14, 153725, Note_on_c, 13, 31, 0
14, 153760, Note_on_c, 13, 32, 105
14, 153805, Note_on_c, 13, 32, 0
14, 153840, Note_on_c, 13, 36, 105
14, 153885, Note_on_c, 13, 36, 0
14, 153920, Note_on_c, 13, 35, 105
14, 153965, Note_on_c, 13, 35, 0
14, 154000, Note_on_c, 13, 36, 105
14, 154045, Note_on_c, 13, 36, 0
14, 154080, Note_on_c, 13, 32, 105
14, 154125, Note_on_c, 13, 32, 0
14, 154160, Note_on_c, 13, 31, 105
14, 154205, Note_on_c, 13, 31, 0
14, 154240, Note_on_c, 13, 32, 105
14, 154285, Note_on_c, 13, 32, 0
14, 154320, Note_on_c, 13, 36, 105
14, 154365, Note_on_c, 13, 36, 0
14, 154400, Note_on_c, 13, 35, 105
14, 154445, Note_on_c, 13, 35, 0
14, 154480, Note_on_c, 13, 36, 105
14, 154525, Note_on_c, 13, 36, 0
14, 154560, Note_on_c, 13, 32, 105
14, 154605, Note_on_c, 13, 32, 0
14, 154640, Note_on_c, 13, 31, 105
14, 154685, Note_on_c, 13, 31, 0
14, 154720, Note_on_c, 13, 32, 105
14, 154765, Note_on_c, 13, 32, 0
14, 154800, Note_on_c, 13, 36, 105
14, 154845, Note_on_c, 13, 36, 0
14, 154880, Note_on_c, 13, 35, 105
14, 154925, Note_on_c, 13, 35, 0
14, 154960, Note_on_c, 13, 36, 105
14, 155005, Note_on_c, 13, 36, 0
14, 155040, Note_on_c, 13, 32, 105
14, 155085, Note_on_c, 13, 32, 0
14, 155120, Note_on_c, 13, 31, 105
14, 155165, Note_on_c, 13, 31, 0
14, 155200, Note_on_c, 13, 32, 105
14, 155245, Note_on_c, 13, 32, 0
14, 155280, Note_on_c, 13, 36, 105
14, 155325, Note_on_c, 13, 36, 0
14, 155360, Note_on_c, 13, 35, 105
14, 155405, Note_on_c, 13, 35, 0
14, 155440, Note_on_c, 13, 36, 105
14, 155485, Note_on_c, 13, 36, 0
14, 155520, Note_on_c, 13, 31, 105
14, 155565, Note_on_c, 13, 31, 0
14, 155600, Note_on_c, 13, 30, 105
14, 155645, Note_on_c, 13, 30, 0
14, 155680, Note_on_c, 13, 31, 105
14, 155725, Note_on_c, 13, 31, 0
14, 155760, Note_on_c, 13, 36, 105
14, 155805, Note_on_c, 13, 36, 0
14, 155840, Note_on_c, 13, 35, 105
14, 155885, Note_on_c, 13, 35, 0
14, 155920, Note_on_c, 13, 36, 105
14, 155965, Note_on_c, 13, 36, 0
14, 156000, Note_on_c, 13, 31, 105
14, 156045, Note_on_c, 13, 31, 0
14, 156080, Note_on_c, 13, 30, 105
14, 156125, Note_on_c, 13, 30, 0
14, 156160, Note_on_c, 13, 31, 105
14, 156205, Note_on_c, 13, 31, 0
14, 156240, Note_on_c, 13, 36, 105
14, 156285, Note_on_c, 13, 36, 0
14, 156320, Note_on_c, 13, 35, 105
14, 156365, Note_on_c, 13, 35, 0
14, 156400, Note_on_c, 13, 36, 105
14, 156445, Note_on_c, 13, 36, 0
14, 156480, Note_on_c, 13, 31, 105
14, 156525, Note_on_c, 13, 31, 0
14, 156560, Note_on_c, 13, 30, 105
14, 156605, Note_on_c, 13, 30, 0
14, 156640, Note_on_c, 13, 31, 105
14, 156685, Note_on_c, 13, 31, 0
14, 156720, Note_on_c, 13, 36, 105
14, 156765, Note_on_c, 13, 36, 0
14, 156800, Note_on_c, 13, 35, 105
14, 156845, Note_on_c, 13, 35, 0
14, 156880, Note_on_c, 13, 36, 105
14, 156925, Note_on_c, 13, 36, 0
14, 156960, Note_on_c, 13, 31, 105
14, 157005, Note_on_c, 13, 31, 0
14, 157040, Note_on_c, 13, 30, 105
14, 157085, Note_on_c, 13, 30, 0
14, 157120, Note_on_c, 13, 31, 105
14, 157165, Note_on_c, 13, 31, 0
14, 157200, Note_on_c, 13, 36, 105
14, 157245, Note_on_c, 13, 36, 0
14, 157280, Note_on_c, 13, 35, 105
14, 157325, Note_on_c, 13, 35, 0
14, 157360, Note_on_c, 13, 36, 105
14, 157405, Note_on_c, 13, 36, 0
14, 157440, Note_on_c, 13, 30, 102
14, 157485, Note_on_c, 13, 30, 0
14, 157520, Note_on_c, 13, 33, 99
14, 157565, Note_on_c, 13, 33, 0
14, 157600, Note_on_c, 13, 36, 95
14, 157645, Note_on_c, 13, 36, 0
14, 157680, Note_on_c, 13, 39, 92
14, 157725, Note_on_c, 13, 39, 0
14, 157760, Note_on_c, 13, 42, 88
14, 157805, Note_on_c, 13, 42, 0
14, 157840, Note_on_c, 13, 45, 85
14, 157885, Note_on_c, 13, 45, 0
14, 157920, Note_on_c, 13, 48, 81
14, 157965, Note_on_c, 13, 48, 0
14, 159360, Note_on_c, 13, 29, 105
14, 159405, Note_on_c, 13, 29, 0
14, 159440, Note_on_c, 13, 32, 101
14, 159485, Note_on_c, 13, 32, 0
14, 159520, Note_on_c, 13, 35, 97
14, 159565, Note_on_c, 13, 35, 0
14, 159600, Note_on_c, 13, 38, 92
14, 159645, Note_on_c, 13, 38, 0
14, 159680, Note_on_c, 13, 41, 88
14, 159725, Note_on_c, 13, 41, 0
14, 159760, Note_on_c, 13, 44, 84
14, 159805, Note_on_c, 13, 44, 0
14, 159840, Note_on_c, 13, 47, 80
14, 159885, Note_on_c, 13, 47, 0
14, 161280, Note_on_c, 13, 31, 80
14, 161520, Note_on_c, 13, 31, 0
14, 163200, Note_on_c, 13, 31, 65
14, 163440, Note_on_c, 13, 31, 0
14, 164160, Note_on_c, 13, 31, 65
14, 164400, Note_on_c, 13, 32, 65
14, 164430, Note_on_c, 13, 31, 0
14, 164640, Note_on_c, 13, 31, 65
14, 164670, Note_on_c, 13, 32, 0
14, 164880, Note_on_c, 13, 35, 65
14, 164910, Note_on_c, 13, 31, 0
14, 165090, Note_on_c, 13, 35, 0
14, 165120, Note_on_c, 13, 31, 65
14, 165360, Note_on_c, 13, 38, 59
14, 165390, Note_on_c, 13, 31, 0
14, 165600, Note_on_c, 13, 31, 53
14, 165630, Note_on_c, 13, 38, 0
14, 165840, Note_on_c, 13, 43, 47
14, 165870, Note_on_c, 13, 31, 0
14, 166050, Note_on_c, 13, 43, 0
14, 166080, Note_on_c, 13, 31, 40
14, 166320, Note_on_c, 13, 32, 40
14, 166350, Note_on_c, 13, 31, 0
14, 166560, Note_on_c, 13, 31, 40
14, 166590, Note_on_c, 13, 32, 0
14, 166800, Note_on_c, 13, 36, 40
14, 166830, Note_on_c, 13, 31, 0
14, 167010, Note_on_c, 13, 36, 0
14, 167040, Note_on_c, 13, 31, 40
14, 167280, Note_on_c, 13, 39, 40
14, 167310, Note_on_c, 13, 31, 0
14, 167520, Note_on_c, 13, 31, 40
14, 167550, Note_on_c, 13, 39, 0
14, 167760, Note_on_c, 13, 43, 40
14, 167790, Note_on_c, 13, 31, 0
14, 167970, Note_on_c, 13, 43, 0
14, 168000, Note_on_c, 13, 31, 40
14, 168240, Note_on_c, 13, 32, 40
14, 168270, Note_on_c, 13, 31, 0
14, 168480, Note_on_c, 13, 31, 40
14, 168510, Note_on_c, 13, 32, 0
14, 168720, Note_on_c, 13, 36, 40
14, 168750, Note_on_c, 13, 31, 0
14, 168930, Note_on_c, 13, 36, 0
14, 168960, Note_on_c, 13, 31, 40
14, 169200, Note_on_c, 13, 39, 40
14, 169230, Note_on_c, 13, 31, 0
14, 169440, Note_on_c, 13, 31, 40
14, 169470, Note_on_c, 13, 39, 0
14, 169680, Note_on_c, 13, 43, 40
14, 169710, Note_on_c, 13, 31, 0
14, 169890, Note_on_c, 13, 43, 0
14, 169920, Note_on_c, 13, 31, 40
14, 170160, Note_on_c, 13, 35, 40
14, 170190, Note_on_c, 13, 31, 0
14, 170400, Note_on_c, 13, 31, 40
14, 170430, Note_on_c, 13, 35, 0
14, 170640, Note_on_c, 13, 38, 40
14, 170670, Note_on_c, 13, 31, 0
14, 170850, Note_on_c, 13, 38, 0
14, 170880, Note_on_c, 13, 35, 40
14, 170880, Control_c, 13, 11, 80
14, 170910, Control_c, 13, 11, 81
14, 170930, Control_c, 13, 11, 82
14, 170950, Control_c, 13, 11, 83
14, 170970, Control_c, 13, 11, 84
14, 170990, Control_c, 13, 11, 85
14, 171010, Control_c, 13, 11, 86
14, 171030, Control_c, 13, 11, 87
14, 171050, Control_c, 13, 11, 88
14, 171070, Control_c, 13, 11, 89
14, 171090, Control_c, 13, 11, 90
14, 171110, Control_c, 13, 11, 91
14, 171120, Note_on_c, 13, 41, 40
14, 171130, Control_c, 13, 11, 92
14, 171150, Note_on_c, 13, 35, 0
14, 171150, Control_c, 13, 11, 93
14, 171170, Control_c, 13, 11, 94
14, 171190, Control_c, 13, 11, 95
14, 171210, Control_c, 13, 11, 96
14, 171230, Control_c, 13, 11, 97
14, 171250, Control_c, 13, 11, 98
14, 171270, Control_c, 13, 11, 99
14, 171290, Control_c, 13, 11, 100
14, 171310, Control_c, 13, 11, 101
14, 171330, Control_c, 13, 11, 102
14, 171350, Control_c, 13, 11, 103
14, 171360, Note_on_c, 13, 38, 40
14, 171380, Control_c, 13, 11, 104
14, 171390, Note_on_c, 13, 41, 0
14, 171400, Control_c, 13, 11, 105
14, 171420, Control_c, 13, 11, 106
14, 171440, Control_c, 13, 11, 107
14, 171460, Control_c, 13, 11, 108
14, 171480, Control_c, 13, 11, 109
14, 171500, Control_c, 13, 11, 110
14, 171520, Control_c, 13, 11, 111
14, 171540, Control_c, 13, 11, 112
14, 171560, Control_c, 13, 11, 113
14, 171580, Control_c, 13, 11, 114
14, 171600, Note_on_c, 13, 35, 40
14, 171600, Control_c, 13, 11, 115
14, 171620, Control_c, 13, 11, 116
14, 171630, Note_on_c, 13, 38, 0
14, 171640, Control_c, 13, 11, 117
14, 171660, Control_c, 13, 11, 118
14, 171680, Control_c, 13, 11, 119
14, 171700, Control_c, 13, 11, 120
14, 171720, Control_c, 13, 11, 121
14, 171740, Control_c, 13, 11, 122
14, 171760, Control_c, 13, 11, 123
14, 171780, Control_c, 13, 11, 124
14, 171800, Control_c, 13, 11, 125
14, 171810, Note_on_c, 13, 35, 0
14, 171820, Control_c, 13, 11, 126
14, 171840, Note_on_c, 13, 34, 40
14, 171840, Control_c, 13, 11, 127
14, 171860, Control_c, 13, 11, 126
14, 171880, Control_c, 13, 11, 125
14, 171900, Control_c, 13, 11, 124
14, 171920, Control_c, 13, 11, 123
14, 171940, Control_c, 13, 11, 122
14, 171960, Control_c, 13, 11, 121
14, 171980, Control_c, 13, 11, 120
14, 172000, Control_c, 13, 11, 119
14, 172020, Control_c, 13, 11, 118
14, 172040, Control_c, 13, 11, 117
14, 172060, Control_c, 13, 11, 116
14, 172080, Note_on_c, 13, 46, 40
14, 172080, Control_c, 13, 11, 115
14, 172100, Control_c, 13, 11, 114
14, 172110, Note_on_c, 13, 34, 0
14, 172120, Control_c, 13, 11, 113
14, 172140, Control_c, 13, 11, 112
14, 172160, Control_c, 13, 11, 111
14, 172180, Control_c, 13, 11, 110
14, 172200, Control_c, 13, 11, 109
14, 172220, Control_c, 13, 11, 108
14, 172240, Control_c, 13, 11, 107
14, 172260, Control_c, 13, 11, 106
14, 172280, Control_c, 13, 11, 105
14, 172300, Control_c, 13, 11, 104
14, 172320, Note_on_c, 13, 34, 40
14, 172320, Control_c, 13, 11, 103
14, 172340, Control_c, 13, 11, 102
14, 172350, Note_on_c, 13, 46, 0
14, 172360, Control_c, 13, 11, 101
14, 172380, Control_c, 13, 11, 100
14, 172400, Control_c, 13, 11, 99
14, 172420, Control_c, 13, 11, 98
14, 172440, Control_c, 13, 11, 97
14, 172460, Control_c, 13, 11, 96
14, 172480, Control_c, 13, 11, 95
14, 172500, Control_c, 13, 11, 94
14, 172520, Control_c, 13, 11, 93
14, 172540, Control_c, 13, 11, 92
14, 172560, Note_on_c, 13, 46, 40
14, 172560, Control_c, 13, 11, 91
14, 172580, Control_c, 13, 11, 90
14, 172590, Note_on_c, 13, 34, 0
14, 172600, Control_c, 13, 11, 89
14, 172620, Control_c, 13, 11, 88
14, 172640, Control_c, 13, 11, 87
14, 172660, Control_c, 13, 11, 86
14, 172680, Control_c, 13, 11, 85
14, 172700, Control_c, 13, 11, 84
14, 172720, Control_c, 13, 11, 83
14, 172740, Control_c, 13, 11, 82
14, 172760, Control_c, 13, 11, 81
14, 172770, Note_on_c, 13, 46, 0
14, 172780, Control_c, 13, 11, 80
14, 172800, Note_on_c, 13, 39, 40
14, 173040, Note_on_c, 13, 44, 40
14, 173070, Note_on_c, 13, 39, 0
14, 173250, Note_on_c, 13, 44, 0
14, 173280, Note_on_c, 13, 39, 40
14, 173340, Note_on_c, 13, 39, 0
14, 173360, Note_on_c, 13, 48, 40
14, 173420, Note_on_c, 13, 48, 0
14, 173440, Note_on_c, 13, 46, 40
14, 173500, Note_on_c, 13, 46, 0
14, 173520, Note_on_c, 13, 44, 40
14, 173580, Note_on_c, 13, 44, 0
14, 173600, Note_on_c, 13, 43, 40
14, 173660, Note_on_c, 13, 43, 0
14, 173680, Note_on_c, 13, 41, 40
14, 173740, Note_on_c, 13, 41, 0
14, 173760, Note_on_c, 13, 39, 40
14, 174690, Note_on_c, 13, 39, 0
14, 174720, Note_on_c, 13, 34, 40
14, 174960, Control_c, 13, 11, 81
14, 174980, Control_c, 13, 11, 82
14, 175010, Control_c, 13, 11, 83
14, 175030, Control_c, 13, 11, 84
14, 175060, Control_c, 13, 11, 85
14, 175080, Control_c, 13, 11, 86
14, 175110, Control_c, 13, 11, 87
14, 175130, Control_c, 13, 11, 88
14, 175160, Control_c, 13, 11, 89
14, 175180, Control_c, 13, 11, 90
14, 175210, Control_c, 13, 11, 91
14, 175230, Control_c, 13, 11, 92
14, 175260, Control_c, 13, 11, 93
14, 175280, Control_c, 13, 11, 94
14, 175310, Control_c, 13, 11, 95
14, 175330, Control_c, 13, 11, 96
14, 175360, Control_c, 13, 11, 97
14, 175380, Control_c, 13, 11, 98
14, 175410, Control_c, 13, 11, 99
14, 175430, Control_c, 13, 11, 100
14, 175460, Control_c, 13, 11, 101
14, 175480, Control_c, 13, 11, 102
14, 175510, Control_c, 13, 11, 103
14, 175530, Control_c, 13, 11, 104
14, 175560, Control_c, 13, 11, 105
14, 175580, Control_c, 13, 11, 106
14, 175610, Control_c, 13, 11, 107
14, 175630, Control_c, 13, 11, 108
14, 175650, Note_on_c, 13, 34, 0
14, 175660, Control_c, 13, 11, 109
14, 175680, Note_on_c, 13, 36, 40
14, 175680, Control_c, 13, 11, 110
14, 175730, Control_c, 13, 11, 109
14, 175780, Control_c, 13, 11, 108
14, 175820, Control_c, 13, 11, 107
14, 175870, Control_c, 13, 11, 106
14, 175910, Control_c, 13, 11, 105
14, 175960, Control_c, 13, 11, 104
14, 176000, Control_c, 13, 11, 103
14, 176050, Control_c, 13, 11, 102
14, 176100, Control_c, 13, 11, 101
14, 176140, Control_c, 13, 11, 100
14, 176160, Note_on_c, 13, 34, 40
14, 176190, Note_on_c, 13, 36, 0
14, 176190, Control_c, 13, 11, 99
14, 176230, Control_c, 13, 11, 98
14, 176280, Control_c, 13, 11, 97
14, 176320, Control_c, 13, 11, 96
14, 176370, Control_c, 13, 11, 95
14, 176400, Note_on_c, 13, 32, 40
14, 176420, Control_c, 13, 11, 94
14, 176430, Note_on_c, 13, 34, 0
14, 176460, Control_c, 13, 11, 93
14, 176510, Control_c, 13, 11, 92
14, 176550, Control_c, 13, 11, 91
14, 176600, Control_c, 13, 11, 90
14, 176610, Note_on_c, 13, 32, 0
14, 176640, Note_on_c, 13, 31, 40
14, 176880, Note_on_c, 13, 31, 0
14, 177060, Note_on_c, 13, 40, 70
14, 177090, Note_on_c, 13, 40, 0
14, 177120, Note_on_c, 13, 40, 70
14, 177600, Note_on_c, 13, 40, 0
14, 177600, Control_c, 13, 11, 80
14, 178080, Note_on_c, 13, 41, 40
14, 178320, Note_on_c, 13, 43, 40
14, 178350, Note_on_c, 13, 41, 0
14, 178530, Note_on_c, 13, 43, 0
14, 178560, Note_on_c, 13, 44, 40
14, 179040, Note_on_c, 13, 32, 40
14, 179040, Control_c, 13, 11, 80
14, 179050, Control_c, 13, 11, 83
14, 179060, Control_c, 13, 11, 87
14, 179070, Note_on_c, 13, 44, 0
14, 179070, Control_c, 13, 11, 91
14, 179080, Control_c, 13, 11, 95
14, 179090, Control_c, 13, 11, 99
14, 179100, Control_c, 13, 11, 103
14, 179110, Control_c, 13, 11, 107
14, 179120, Control_c, 13, 11, 111
14, 179140, Control_c, 13, 11, 115
14, 179160, Control_c, 13, 11, 114
14, 179170, Control_c, 13, 11, 113
14, 179180, Control_c, 13, 11, 112
14, 179190, Control_c, 13, 11, 111
14, 179200, Control_c, 13, 11, 110
14, 179210, Control_c, 13, 11, 109
14, 179220, Control_c, 13, 11, 108
14, 179230, Control_c, 13, 11, 107
14, 179240, Control_c, 13, 11, 106
14, 179250, Control_c, 13, 11, 105
14, 179260, Control_c, 13, 11, 104
14, 179270, Control_c, 13, 11, 103
14, 179280, Control_c, 13, 11, 102
14, 179290, Control_c, 13, 11, 101
14, 179300, Control_c, 13, 11, 100
14, 179310, Control_c, 13, 11, 99
14, 179320, Control_c, 13, 11, 98
14, 179330, Control_c, 13, 11, 97
14, 179340, Control_c, 13, 11, 96
14, 179350, Control_c, 13, 11, 95
14, 179360, Control_c, 13, 11, 94
14, 179370, Control_c, 13, 11, 93
14, 179380, Control_c, 13, 11, 92
14, 179390, Control_c, 13, 11, 91
14, 179400, Control_c, 13, 11, 90
14, 179410, Control_c, 13, 11, 89
14, 179420, Control_c, 13, 11, 88
14, 179430, Control_c, 13, 11, 87
14, 179440, Control_c, 13, 11, 86
14, 179450, Control_c, 13, 11, 85
14, 179460, Control_c, 13, 11, 84
14, 179470, Control_c, 13, 11, 83
14, 179480, Control_c, 13, 11, 82
14, 179490, Note_on_c, 13, 32, 0
14, 179490, Control_c, 13, 11, 81
14, 179500, Control_c, 13, 11, 80
14, 179520, Note_on_c, 13, 31, 40
14, 180450, Note_on_c, 13, 31, 0
14, 180480, Note_on_c, 13, 31, 40
14, 181410, Note_on_c, 13, 31, 0
14, 181440, Note_on_c, 13, 31, 40
14, 181440, Control_c, 13, 11, 80
14, 181470, Control_c, 13, 11, 81
14, 181500, Control_c, 13, 11, 82
14, 181530, Control_c, 13, 11, 83
14, 181550, Control_c, 13, 11, 84
14, 181580, Control_c, 13, 11, 85
14, 181610, Control_c, 13, 11, 86
14, 181640, Control_c, 13, 11, 87
14, 181660, Control_c, 13, 11, 88
14, 181690, Control_c, 13, 11, 89
14, 181720, Control_c, 13, 11, 90
14, 181750, Control_c, 13, 11, 91
14, 181770, Control_c, 13, 11, 92
14, 181800, Control_c, 13, 11, 93
14, 181830, Control_c, 13, 11, 94
14, 181860, Control_c, 13, 11, 95
14, 181880, Control_c, 13, 11, 96
14, 181910, Control_c, 13, 11, 97
14, 181940, Control_c, 13, 11, 98
14, 181970, Control_c, 13, 11, 99
14, 181990, Control_c, 13, 11, 100
14, 182020, Control_c, 13, 11, 101
14, 182050, Control_c, 13, 11, 102
14, 182080, Control_c, 13, 11, 103
14, 182100, Control_c, 13, 11, 104
14, 182130, Control_c, 13, 11, 105
14, 182160, Control_c, 13, 11, 106
14, 182190, Control_c, 13, 11, 107
14, 182210, Control_c, 13, 11, 108
14, 182240, Control_c, 13, 11, 109
14, 182270, Control_c, 13, 11, 110
14, 182300, Control_c, 13, 11, 111
14, 182320, Control_c, 13, 11, 112
14, 182350, Control_c, 13, 11, 113
14, 182370, Note_on_c, 13, 31, 0
14, 182380, Control_c, 13, 11, 114
14, 182400, Note_on_c, 13, 31, 40
14, 182400, Control_c, 13, 11, 115
14, 182430, Control_c, 13, 11, 114
14, 182460, Control_c, 13, 11, 113
14, 182480, Control_c, 13, 11, 112
14, 182510, Control_c, 13, 11, 111
14, 182540, Control_c, 13, 11, 110
14, 182560, Control_c, 13, 11, 109
14, 182590, Control_c, 13, 11, 108
14, 182620, Control_c, 13, 11, 107
14, 182640, Control_c, 13, 11, 106
14, 182670, Control_c, 13, 11, 105
14, 182700, Control_c, 13, 11, 104
14, 182720, Control_c, 13, 11, 103
14, 182750, Control_c, 13, 11, 102
14, 182780, Control_c, 13, 11, 101
14, 182800, Control_c, 13, 11, 100
14, 182830, Control_c, 13, 11, 99
14, 182860, Control_c, 13, 11, 98
14, 182880, Control_c, 13, 11, 97
14, 182910, Control_c, 13, 11, 96
14, 182940, Control_c, 13, 11, 95
14, 182960, Control_c, 13, 11, 94
14, 182990, Control_c, 13, 11, 93
14, 183020, Control_c, 13, 11, 92
14, 183040, Control_c, 13, 11, 91
14, 183070, Control_c, 13, 11, 90
14, 183100, Control_c, 13, 11, 89
14, 183120, Control_c, 13, 11, 88
14, 183150, Control_c, 13, 11, 87
14, 183180, Control_c, 13, 11, 86
14, 183200, Control_c, 13, 11, 85
14, 183230, Control_c, 13, 11, 84
14, 183260, Control_c, 13, 11, 83
14, 183280, Control_c, 13, 11, 82
14, 183310, Control_c, 13, 11, 81
14, 183330, Note_on_c, 13, 31, 0
14, 183340, Control_c, 13, 11, 80
14, 183360, Note_on_c, 13, 31, 40
14, 183600, Note_on_c, 13, 31, 0
14, 187200, Note_on_c, 13, 29, 40
14, 187290, Note_on_c, 13, 29, 0
14, 187440, Note_on_c, 13, 32, 40
14, 187530, Note_on_c, 13, 32, 0
14, 187680, Note_on_c, 13, 29, 40
14, 187770, Note_on_c, 13, 29, 0
14, 187920, Note_on_c, 13, 41, 40
14, 188010, Note_on_c, 13, 41, 0
14, 188160, Note_on_c, 13, 37, 40
14, 188250, Note_on_c, 13, 37, 0
14, 188400, Note_on_c, 13, 41, 40
14, 188490, Note_on_c, 13, 41, 0
14, 188640, Note_on_c, 13, 37, 40
14, 188730, Note_on_c, 13, 37, 0
14, 188880, Note_on_c, 13, 49, 40
14, 188970, Note_on_c, 13, 49, 0
14, 189120, Note_on_c, 13, 35, 40
14, 189210, Note_on_c, 13, 35, 0
14, 189360, Note_on_c, 13, 47, 45
14, 189450, Note_on_c, 13, 47, 0
14, 189600, Note_on_c, 13, 29, 50
14, 189690, Note_on_c, 13, 29, 0
14, 189840, Note_on_c, 13, 41, 55
14, 189930, Note_on_c, 13, 41, 0
14, 190080, Note_on_c, 13, 39, 60
14, 190170, Note_on_c, 13, 39, 0
14, 190320, Note_on_c, 13, 41, 60
14, 190410, Note_on_c, 13, 41, 0
14, 190800, Note_on_c, 13, 44, 40
14, 191040, Control_c, 13, 11, 80
14, 191050, Control_c, 13, 11, 81
14, 191060, Control_c, 13, 11, 83
14, 191070, Control_c, 13, 11, 85
14, 191080, Control_c, 13, 11, 87
14, 191090, Control_c, 13, 11, 89
14, 191100, Control_c, 13, 11, 91
14, 191110, Control_c, 13, 11, 93
14, 191120, Control_c, 13, 11, 95
14, 191130, Control_c, 13, 11, 97
14, 191140, Control_c, 13, 11, 99
14, 191150, Control_c, 13, 11, 101
14, 191160, Control_c, 13, 11, 103
14, 191170, Control_c, 13, 11, 105
14, 191180, Control_c, 13, 11, 107
14, 191190, Control_c, 13, 11, 109
14, 191200, Control_c, 13, 11, 111
14, 191210, Control_c, 13, 11, 113
14, 191220, Control_c, 13, 11, 115
14, 191230, Control_c, 13, 11, 117
14, 191240, Control_c, 13, 11, 119
14, 191250, Control_c, 13, 11, 121
14, 191260, Control_c, 13, 11, 123
14, 191270, Control_c, 13, 11, 125
14, 191280, Note_on_c, 13, 43, 40
14, 191280, Control_c, 13, 11, 127
14, 191290, Control_c, 13, 11, 125
14, 191300, Control_c, 13, 11, 123
14, 191310, Note_on_c, 13, 44, 0
14, 191310, Control_c, 13, 11, 121
14, 191320, Control_c, 13, 11, 119
14, 191330, Control_c, 13, 11, 117
14, 191340, Control_c, 13, 11, 115
14, 191350, Control_c, 13, 11, 113
14, 191360, Control_c, 13, 11, 111
14, 191370, Control_c, 13, 11, 109
14, 191380, Control_c, 13, 11, 107
14, 191390, Control_c, 13, 11, 105
14, 191400, Control_c, 13, 11, 103
14, 191410, Control_c, 13, 11, 101
14, 191420, Control_c, 13, 11, 99
14, 191430, Control_c, 13, 11, 97
14, 191440, Control_c, 13, 11, 95
14, 191450, Control_c, 13, 11, 93
14, 191460, Control_c, 13, 11, 91
14, 191470, Control_c, 13, 11, 89
14, 191480, Control_c, 13, 11, 87
14, 191490, Note_on_c, 13, 43, 0
14, 191490, Control_c, 13, 11, 84
14, 191500, Control_c, 13, 11, 82
14, 191510, Control_c, 13, 11, 80
14, 191520, Note_on_c, 13, 31, 40
14, 191730, Note_on_c, 13, 31, 0
14, 191760, Note_on_c, 13, 43, 40
14, 191970, Note_on_c, 13, 43, 0
14, 192060, Note_on_c, 13, 36, 40
14, 192210, Note_on_c, 13, 36, 0
14, 195840, Note_on_c, 13, 29, 55
14, 196050, Note_on_c, 13, 29, 0
14, 196800, Note_on_c, 13, 30, 55
14, 197010, Note_on_c, 13, 30, 0
14, 197760, Note_on_c, 13, 31, 40
14, 197970, Note_on_c, 13, 31, 0
14, 198240, Note_on_c, 13, 31, 40
14, 198450, Note_on_c, 13, 31, 0
14, 198720, Note_on_c, 13, 36, 40
14, 198960, Note_on_c, 13, 36, 0
14, 199680, Note_on_c, 13, 31, 40
14, 199890, Note_on_c, 13, 31, 0
14, 199920, Note_on_c, 13, 43, 45
14, 200130, Note_on_c, 13, 43, 0
14, 200160, Note_on_c, 13, 31, 50
14, 200370, Note_on_c, 13, 31, 0
14, 200400, Note_on_c, 13, 43, 55
14, 200610, Note_on_c, 13, 43, 0
14, 200640, Note_on_c, 13, 32, 60
14, 200880, Note_on_c, 13, 32, 0
14, 214080, Note_on_c, 13, 36, 20
14, 215970, Note_on_c, 13, 36, 0
14, 216000, Note_on_c, 13, 36, 20
14, 216000, Control_c, 13, 11, 80
14, 216070, Control_c, 13, 11, 81
14, 216140, Control_c, 13, 11, 82
14, 216210, Control_c, 13, 11, 83
14, 216280, Control_c, 13, 11, 84
14, 216350, Control_c, 13, 11, 85
14, 216420, Control_c, 13, 11, 86
14, 216480, Note_on_c, 13, 40, 20
14, 216490, Control_c, 13, 11, 87
14, 216510, Note_on_c, 13, 36, 0
14, 216560, Control_c, 13, 11, 88
14, 216630, Control_c, 13, 11, 89
14, 216700, Control_c, 13, 11, 90
14, 216720, Note_on_c, 13, 43, 20
14, 216750, Note_on_c, 13, 40, 0
14, 216770, Control_c, 13, 11, 91
14, 216840, Control_c, 13, 11, 92
14, 216910, Control_c, 13, 11, 93
14, 216930, Note_on_c, 13, 43, 0
14, 216960, Note_on_c, 13, 41, 20
14, 216980, Control_c, 13, 11, 94
14, 217050, Control_c, 13, 11, 95
14, 217120, Control_c, 13, 11, 96
14, 217190, Control_c, 13, 11, 97
14, 217260, Control_c, 13, 11, 98
14, 217330, Control_c, 13, 11, 99
14, 217400, Control_c, 13, 11, 100
14, 217440, Note_on_c, 13, 43, 20
14, 217470, Note_on_c, 13, 41, 0
14, 217470, Control_c, 13, 11, 101
14, 217540, Control_c, 13, 11, 102
14, 217610, Control_c, 13, 11, 103
14, 217680, Note_on_c, 13, 44, 20
14, 217680, Control_c, 13, 11, 104
14, 217710, Note_on_c, 13, 43, 0
14, 217750, Control_c, 13, 11, 105
14, 217820, Control_c, 13, 11, 106
14, 217890, Note_on_c, 13, 44, 0
14, 217890, Control_c, 13, 11, 107
14, 217920, Note_on_c, 13, 43, 20
14, 217960, Control_c, 13, 11, 108
14, 218030, Control_c, 13, 11, 109
14, 218100, Control_c, 13, 11, 110
14, 218160, Note_on_c, 13, 41, 20
14, 218170, Control_c, 13, 11, 111
14, 218190, Note_on_c, 13, 43, 0
14, 218240, Control_c, 13, 11, 112
14, 218310, Control_c, 13, 11, 113
14, 218380, Control_c, 13, 11, 114
14, 218400, Note_on_c, 13, 40, 20
14, 218430, Note_on_c, 13, 41, 0
14, 218450, Control_c, 13, 11, 115
14, 218520, Control_c, 13, 11, 116
14, 218590, Control_c, 13, 11, 117
14, 218640, Note_on_c, 13, 41, 20
14, 218660, Control_c, 13, 11, 118
14, 218670, Note_on_c, 13, 40, 0
14, 218730, Control_c, 13, 11, 119
14, 218800, Control_c, 13, 11, 120
14, 218850, Note_on_c, 13, 41, 0
14, 218874, Control_c, 13, 11, 80
14, 218880, Note_on_c, 13, 36, 20
14, 218880, Control_c, 13, 11, 80
14, 218910, Control_c, 13, 11, 81
14, 218930, Control_c, 13, 11, 82
14, 218950, Control_c, 13, 11, 83
14, 218980, Control_c, 13, 11, 84
14, 219000, Control_c, 13, 11, 85
14, 219020, Control_c, 13, 11, 86
14, 219050, Control_c, 13, 11, 87
14, 219070, Control_c, 13, 11, 88
14, 219090, Control_c, 13, 11, 89
14, 219110, Control_c, 13, 11, 90
14, 219120, Note_on_c, 13, 36, 0
14, 219140, Control_c, 13, 11, 91
14, 219160, Control_c, 13, 11, 92
14, 219180, Control_c, 13, 11, 93
14, 219210, Control_c, 13, 11, 94
14, 219230, Control_c, 13, 11, 95
14, 219250, Control_c, 13, 11, 96
14, 219270, Control_c, 13, 11, 97
14, 219300, Control_c, 13, 11, 98
14, 219320, Control_c, 13, 11, 99
14, 219340, Control_c, 13, 11, 100
14, 219370, Control_c, 13, 11, 101
14, 219390, Control_c, 13, 11, 102
14, 219410, Control_c, 13, 11, 103
14, 219440, Control_c, 13, 11, 104
14, 219460, Control_c, 13, 11, 105
14, 219480, Control_c, 13, 11, 106
14, 219500, Control_c, 13, 11, 107
14, 219530, Control_c, 13, 11, 108
14, 219550, Control_c, 13, 11, 109
14, 219570, Control_c, 13, 11, 110
14, 219600, Control_c, 13, 11, 111
14, 219620, Control_c, 13, 11, 112
14, 219640, Control_c, 13, 11, 113
14, 219660, Control_c, 13, 11, 114
14, 219690, Control_c, 13, 11, 115
14, 219710, Control_c, 13, 11, 116
14, 219730, Control_c, 13, 11, 117
14, 219760, Control_c, 13, 11, 118
14, 219780, Control_c, 13, 11, 119
14, 219800, Control_c, 13, 11, 120
14, 219834, Control_c, 13, 11, 80
14, 219840, Note_on_c, 13, 36, 30
14, 220080, Note_on_c, 13, 36, 0
14, 220800, Note_on_c, 13, 36, 30
14, 221040, Note_on_c, 13, 36, 0
14, 221760, Note_on_c, 13, 31, 30
14, 222000, Control_c, 13, 11, 80
14, 222010, Control_c, 13, 11, 81
14, 222020, Control_c, 13, 11, 83
14, 222030, Control_c, 13, 11, 85
14, 222040, Control_c, 13, 11, 86
14, 222050, Control_c, 13, 11, 88
14, 222060, Control_c, 13, 11, 90
14, 222070, Control_c, 13, 11, 91
14, 222080, Control_c, 13, 11, 93
14, 222090, Control_c, 13, 11, 95
14, 222100, Control_c, 13, 11, 96
14, 222110, Control_c, 13, 11, 98
14, 222120, Control_c, 13, 11, 100
14, 222130, Control_c, 13, 11, 101
14, 222140, Control_c, 13, 11, 103
14, 222150, Control_c, 13, 11, 105
14, 222160, Control_c, 13, 11, 106
14, 222170, Control_c, 13, 11, 108
14, 222180, Control_c, 13, 11, 110
14, 222190, Control_c, 13, 11, 111
14, 222200, Control_c, 13, 11, 113
14, 222210, Control_c, 13, 11, 115
14, 222220, Control_c, 13, 11, 116
14, 222230, Control_c, 13, 11, 118
14, 222260, Control_c, 13, 11, 119
14, 222270, Control_c, 13, 11, 118
14, 222280, Control_c, 13, 11, 117
14, 222290, Control_c, 13, 11, 116
14, 222300, Control_c, 13, 11, 115
14, 222320, Control_c, 13, 11, 114
14, 222330, Control_c, 13, 11, 113
14, 222340, Control_c, 13, 11, 112
14, 222350, Control_c, 13, 11, 111
14, 222360, Control_c, 13, 11, 110
14, 222370, Control_c, 13, 11, 109
14, 222390, Control_c, 13, 11, 108
14, 222400, Control_c, 13, 11, 107
14, 222410, Control_c, 13, 11, 106
14, 222420, Control_c, 13, 11, 105
14, 222430, Control_c, 13, 11, 104
14, 222440, Control_c, 13, 11, 103
14, 222460, Control_c, 13, 11, 102
14, 222470, Control_c, 13, 11, 101
14, 222480, Control_c, 13, 11, 100
14, 222490, Control_c, 13, 11, 99
14, 222500, Control_c, 13, 11, 98
14, 222510, Control_c, 13, 11, 97
14, 222530, Control_c, 13, 11, 96
14, 222540, Control_c, 13, 11, 95
14, 222550, Control_c, 13, 11, 94
14, 222560, Control_c, 13, 11, 93
14, 222570, Control_c, 13, 11, 92
14, 222580, Control_c, 13, 11, 91
14, 222600, Control_c, 13, 11, 90
14, 222610, Control_c, 13, 11, 89
14, 222620, Control_c, 13, 11, 88
14, 222630, Control_c, 13, 11, 87
14, 222640, Control_c, 13, 11, 86
14, 222650, Control_c, 13, 11, 85
14, 222670, Control_c, 13, 11, 84
14, 222680, Control_c, 13, 11, 83
14, 222690, Control_c, 13, 11, 82
14, 222700, Control_c, 13, 11, 81
14, 222710, Control_c, 13, 11, 80
14, 222720, Note_on_c, 13, 36, 30
14, 222750, Note_on_c, 13, 31, 0
14, 222960, Note_on_c, 13, 36, 0
14, 223680, Note_on_c, 13, 31, 30
14, 223920, Control_c, 13, 11, 80
14, 223930, Control_c, 13, 11, 81
14, 223940, Control_c, 13, 11, 83
14, 223950, Control_c, 13, 11, 85
14, 223960, Control_c, 13, 11, 86
14, 223970, Control_c, 13, 11, 88
14, 223980, Control_c, 13, 11, 90
14, 223990, Control_c, 13, 11, 91
14, 224000, Control_c, 13, 11, 93
14, 224010, Control_c, 13, 11, 95
14, 224020, Control_c, 13, 11, 96
14, 224030, Control_c, 13, 11, 98
14, 224040, Control_c, 13, 11, 100
14, 224050, Control_c, 13, 11, 101
14, 224060, Control_c, 13, 11, 103
14, 224070, Control_c, 13, 11, 105
14, 224080, Control_c, 13, 11, 106
14, 224090, Control_c, 13, 11, 108
14, 224100, Control_c, 13, 11, 110
14, 224110, Control_c, 13, 11, 111
14, 224120, Control_c, 13, 11, 113
14, 224130, Control_c, 13, 11, 115
14, 224140, Control_c, 13, 11, 116
14, 224150, Control_c, 13, 11, 118
14, 224180, Control_c, 13, 11, 119
14, 224190, Control_c, 13, 11, 118
14, 224200, Control_c, 13, 11, 117
14, 224210, Control_c, 13, 11, 116
14, 224220, Control_c, 13, 11, 115
14, 224240, Control_c, 13, 11, 114
14, 224250, Control_c, 13, 11, 113
14, 224260, Control_c, 13, 11, 112
14, 224270, Control_c, 13, 11, 111
14, 224280, Control_c, 13, 11, 110
14, 224290, Control_c, 13, 11, 109
14, 224310, Control_c, 13, 11, 108
14, 224320, Control_c, 13, 11, 107
14, 224330, Control_c, 13, 11, 106
14, 224340, Control_c, 13, 11, 105
14, 224350, Control_c, 13, 11, 104
14, 224360, Control_c, 13, 11, 103
14, 224380, Control_c, 13, 11, 102
14, 224390, Control_c, 13, 11, 101
14, 224400, Control_c, 13, 11, 100
14, 224410, Control_c, 13, 11, 99
14, 224420, Control_c, 13, 11, 98
14, 224430, Control_c, 13, 11, 97
14, 224450, Control_c, 13, 11, 96
14, 224460, Control_c, 13, 11, 95
14, 224470, Control_c, 13, 11, 94
14, 224480, Control_c, 13, 11, 93
14, 224490, Control_c, 13, 11, 92
14, 224500, Control_c, 13, 11, 91
14, 224520, Control_c, 13, 11, 90
14, 224530, Control_c, 13, 11, 89
14, 224540, Control_c, 13, 11, 88
14, 224550, Control_c, 13, 11, 87
14, 224560, Control_c, 13, 11, 86
14, 224570, Control_c, 13, 11, 85
14, 224590, Control_c, 13, 11, 84
14, 224600, Control_c, 13, 11, 83
14, 224610, Control_c, 13, 11, 82
14, 224620, Control_c, 13, 11, 81
14, 224630, Control_c, 13, 11, 80
14, 224640, Note_on_c, 13, 36, 30
14, 224670, Note_on_c, 13, 31, 0
14, 224880, Note_on_c, 13, 36, 0
14, 225600, Note_on_c, 13, 31, 30
14, 226560, Control_c, 13, 11, 80
14, 226590, Control_c, 13, 11, 81
14, 226610, Control_c, 13, 11, 82
14, 226630, Control_c, 13, 11, 83
14, 226650, Control_c, 13, 11, 84
14, 226670, Control_c, 13, 11, 85
14, 226690, Control_c, 13, 11, 86
14, 226710, Control_c, 13, 11, 87
14, 226730, Control_c, 13, 11, 88
14, 226750, Control_c, 13, 11, 89
14, 226770, Control_c, 13, 11, 90
14, 226790, Control_c, 13, 11, 91
14, 226810, Control_c, 13, 11, 92
14, 226830, Control_c, 13, 11, 93
14, 226850, Control_c, 13, 11, 94
14, 226870, Control_c, 13, 11, 95
14, 226890, Control_c, 13, 11, 96
14, 226910, Control_c, 13, 11, 97
14, 226930, Control_c, 13, 11, 98
14, 226950, Control_c, 13, 11, 99
14, 226970, Control_c, 13, 11, 100
14, 226990, Control_c, 13, 11, 101
14, 227010, Control_c, 13, 11, 102
14, 227030, Control_c, 13, 11, 103
14, 227060, Control_c, 13, 11, 104
14, 227080, Control_c, 13, 11, 105
14, 227100, Control_c, 13, 11, 106
14, 227120, Control_c, 13, 11, 107
14, 227140, Control_c, 13, 11, 108
14, 227160, Control_c, 13, 11, 109
14, 227180, Control_c, 13, 11, 110
14, 227200, Control_c, 13, 11, 111
14, 227220, Control_c, 13, 11, 112
14, 227240, Control_c, 13, 11, 113
14, 227260, Control_c, 13, 11, 114
14, 227280, Control_c, 13, 11, 115
14, 227300, Control_c, 13, 11, 116
14, 227320, Control_c, 13, 11, 117
14, 227340, Control_c, 13, 11, 118
14, 227360, Control_c, 13, 11, 119
14, 227380, Control_c, 13, 11, 120
14, 227400, Control_c, 13, 11, 121
14, 227420, Control_c, 13, 11, 122
14, 227440, Control_c, 13, 11, 123
14, 227460, Control_c, 13, 11, 124
14, 227480, Control_c, 13, 11, 125
14, 227500, Control_c, 13, 11, 126
14, 227520, Control_c, 13, 11, 127
14, 227540, Control_c, 13, 11, 126
14, 227560, Control_c, 13, 11, 125
14, 227580, Control_c, 13, 11, 124
14, 227600, Control_c, 13, 11, 123
14, 227620, Control_c, 13, 11, 122
14, 227640, Control_c, 13, 11, 121
14, 227660, Control_c, 13, 11, 120
14, 227680, Control_c, 13, 11, 119
14, 227700, Control_c, 13, 11, 118
14, 227720, Control_c, 13, 11, 117
14, 227740, Control_c, 13, 11, 116
14, 227760, Control_c, 13, 11, 115
14, 227780, Control_c, 13, 11, 114
14, 227800, Control_c, 13, 11, 113
14, 227820, Control_c, 13, 11, 112
14, 227840, Control_c, 13, 11, 111
14, 227860, Control_c, 13, 11, 110
14, 227880, Control_c, 13, 11, 109
14, 227900, Control_c, 13, 11, 108
14, 227920, Control_c, 13, 11, 107
14, 227940, Control_c, 13, 11, 106
14, 227960, Control_c, 13, 11, 105
14, 227980, Control_c, 13, 11, 104
14, 228000, Control_c, 13, 11, 103
14, 228020, Control_c, 13, 11, 102
14, 228040, Control_c, 13, 11, 101
14, 228060, Control_c, 13, 11, 100
14, 228080, Control_c, 13, 11, 99
14, 228100, Control_c, 13, 11, 98
14, 228120, Control_c, 13, 11, 97
14, 228140, Control_c, 13, 11, 96
14, 228160, Control_c, 13, 11, 95
14, 228180, Control_c, 13, 11, 94
14, 228200, Control_c, 13, 11, 93
14, 228220, Control_c, 13, 11, 92
14, 228240, Control_c, 13, 11, 91
14, 228260, Control_c, 13, 11, 90
14, 228280, Control_c, 13, 11, 89
14, 228300, Control_c, 13, 11, 88
14, 228320, Control_c, 13, 11, 87
14, 228340, Control_c, 13, 11, 86
14, 228360, Control_c, 13, 11, 85
14, 228380, Control_c, 13, 11, 84
14, 228400, Control_c, 13, 11, 83
14, 228420, Control_c, 13, 11, 82
14, 228440, Control_c, 13, 11, 81
14, 228460, Control_c, 13, 11, 80
14, 228480, Note_on_c, 13, 31, 0
14, 228960, Note_on_c, 13, 36, 30
14, 229200, Note_on_c, 13, 36, 0
14, 229440, Note_on_c, 13, 31, 30
14, 229680, Note_on_c, 13, 31, 0
14, 229920, Note_on_c, 13, 39, 30
14, 230160, Note_on_c, 13, 39, 0
14, 230400, Note_on_c, 13, 36, 30
14, 230640, Note_on_c, 13, 36, 0
14, 231360, Note_on_c, 13, 31, 30
14, 231600, Note_on_c, 13, 31, 0
14, 232320, Note_on_c, 13, 31, 30
14, 232560, Note_on_c, 13, 31, 0
14, 234240, Note_on_c, 13, 31, 30
14, 234480, Note_on_c, 13, 31, 0
14, 236520, Note_on_c, 13, 31, 70
14, 236560, Note_on_c, 13, 33, 70
14, 236565, Note_on_c, 13, 31, 0
14, 236600, Note_on_c, 13, 35, 70
14, 236605, Note_on_c, 13, 33, 0
14, 236640, Note_on_c, 13, 36, 70
14, 236645, Note_on_c, 13, 35, 0
14, 236850, Note_on_c, 13, 7, 69
14, 236850, Note_on_c, 13, 36, 0
14, 236970, Note_on_c, 13, 7, 0
14, 237000, Note_on_c, 13, 31, 53
14, 237040, Note_on_c, 13, 33, 49
14, 237045, Note_on_c, 13, 31, 0
14, 237080, Note_on_c, 13, 35, 45
14, 237085, Note_on_c, 13, 33, 0
14, 237120, Note_on_c, 13, 36, 35
14, 237125, Note_on_c, 13, 35, 0
14, 237360, Control_c, 13, 11, 80
14, 237370, Control_c, 13, 11, 79
14, 237380, Control_c, 13, 11, 78
14, 237390, Control_c, 13, 11, 77
14, 237400, Control_c, 13, 11, 76
14, 237410, Control_c, 13, 11, 75
14, 237420, Control_c, 13, 11, 74
14, 237430, Control_c, 13, 11, 73
14, 237440, Control_c, 13, 11, 72
14, 237450, Control_c, 13, 11, 71
14, 237460, Control_c, 13, 11, 70
14, 237470, Control_c, 13, 11, 69
14, 237480, Control_c, 13, 11, 67
14, 237490, Control_c, 13, 11, 66
14, 237500, Control_c, 13, 11, 65
14, 237510, Control_c, 13, 11, 64
14, 237520, Control_c, 13, 11, 63
14, 237530, Control_c, 13, 11, 62
14, 237540, Control_c, 13, 11, 61
14, 237550, Control_c, 13, 11, 60
14, 237560, Control_c, 13, 11, 59
14, 237570, Control_c, 13, 11, 58
14, 237580, Control_c, 13, 11, 57
14, 237590, Control_c, 13, 11, 56
14, 237600, Control_c, 13, 11, 54
14, 237610, Control_c, 13, 11, 53
14, 237620, Control_c, 13, 11, 52
14, 237630, Control_c, 13, 11, 51
14, 237640, Control_c, 13, 11, 50
14, 237650, Control_c, 13, 11, 49
14, 237660, Control_c, 13, 11, 48
14, 237670, Control_c, 13, 11, 47
14, 237680, Control_c, 13, 11, 46
14, 237690, Control_c, 13, 11, 45
14, 237700, Control_c, 13, 11, 44
14, 237710, Control_c, 13, 11, 43
14, 237720, Control_c, 13, 11, 41
14, 237730, Control_c, 13, 11, 40
14, 237740, Control_c, 13, 11, 39
14, 237750, Control_c, 13, 11, 38
14, 237760, Control_c, 13, 11, 37
14, 237770, Control_c, 13, 11, 36
14, 237780, Control_c, 13, 11, 35
14, 237790, Control_c, 13, 11, 34
14, 237800, Control_c, 13, 11, 33
14, 237810, Control_c, 13, 11, 32
14, 237820, Control_c, 13, 11, 31
14, 237830, Control_c, 13, 11, 30
14, 237840, Note_on_c, 13, 36, 0
14, 237840, End_track
15, 0, Start_track
15, 0, Title_t, "Controls"
15, 0, Instrument_name_t, "Controlli :-)"
15, 0, System_exclusive, 10, 65, 16, 66, 18, 64, 0, 127, 0, 65, 247
15, 1, System_exclusive, 10, 65, 16, 66, 18, 64, 1, 48, 3, 12, 247
15, 2, System_exclusive, 25, 65, 16, 66, 18, 64, 1, 16, 0, 2, 2, 2, 2, 4, 0, 2, 1, 3, 2, 2, 1, 1, 0, 0, 23, 247
15, 3, Program_c, 0, 73
15, 4, Control_c, 0, 7, 127
15, 13, Control_c, 0, 10, 53
15, 23, Control_c, 0, 91, 127
15, 33, Control_c, 0, 93, 16
15, 41, Program_c, 1, 70
15, 43, Control_c, 1, 7, 127
15, 53, Control_c, 1, 10, 58
15, 63, Control_c, 1, 91, 127
15, 73, Control_c, 1, 93, 17
15, 74, Control_c, 1, 99, 1
15, 75, Control_c, 1, 98, 99
15, 76, Control_c, 1, 6, 69
15, 77, Control_c, 1, 99, 1
15, 78, Control_c, 1, 98, 9
15, 79, Control_c, 1, 6, 14
15, 81, Program_c, 2, 71
15, 83, Control_c, 2, 7, 127
15, 93, Control_c, 2, 10, 44
15, 103, Control_c, 2, 91, 127
15, 113, Control_c, 2, 93, 20
15, 121, Program_c, 3, 70
15, 123, Control_c, 3, 7, 127
15, 133, Control_c, 3, 10, 69
15, 143, Control_c, 3, 91, 127
15, 153, Control_c, 3, 93, 18
15, 161, Program_c, 4, 60
15, 163, Control_c, 4, 7, 127
15, 173, Control_c, 4, 10, 78
15, 183, Control_c, 4, 91, 127
15, 193, Control_c, 4, 93, 19
15, 201, Program_c, 5, 60
15, 203, Control_c, 5, 7, 127
15, 213, Control_c, 5, 10, 75
15, 223, Control_c, 5, 91, 127
15, 233, Control_c, 5, 93, 15
15, 241, Program_c, 6, 56
15, 243, Control_c, 6, 7, 127
15, 253, Control_c, 6, 10, 68
15, 263, Control_c, 6, 91, 127
15, 273, Control_c, 6, 93, 40
15, 281, Program_c, 7, 47
15, 283, Control_c, 7, 7, 127
15, 293, Control_c, 7, 10, 59
15, 303, Control_c, 7, 91, 127
15, 313, Control_c, 7, 93, 41
15, 321, Program_c, 8, 49
15, 323, Control_c, 8, 7, 127
15, 333, Control_c, 8, 10, 7
15, 343, Control_c, 8, 91, 127
15, 353, Control_c, 8, 93, 36
15, 356, Control_c, 8, 99, 1
15, 357, Control_c, 8, 98, 99
15, 358, Control_c, 8, 6, 44
15, 361, Program_c, 10, 49
15, 363, Control_c, 10, 7, 127
15, 373, Control_c, 10, 10, 18
15, 383, Control_c, 10, 91, 127
15, 393, Control_c, 10, 93, 40
15, 401, Program_c, 11, 49
15, 403, Control_c, 11, 7, 127
15, 413, Control_c, 11, 10, 104
15, 423, Control_c, 11, 91, 127
15, 433, Control_c, 11, 93, 39
15, 441, Program_c, 12, 49
15, 443, Control_c, 12, 7, 127
15, 453, Control_c, 12, 10, 122
15, 463, Control_c, 12, 91, 127
15, 473, Control_c, 12, 93, 39
15, 481, Program_c, 13, 48
15, 483, Control_c, 13, 7, 127
15, 493, Control_c, 13, 10, 98
15, 503, Control_c, 13, 91, 127
15, 513, Control_c, 13, 93, 39
15, 514, Control_c, 0, 11, 80
15, 534, Control_c, 1, 11, 80
15, 554, Control_c, 2, 11, 80
15, 574, Control_c, 3, 11, 80
15, 594, Control_c, 4, 11, 80
15, 614, Control_c, 5, 11, 80
15, 634, Control_c, 6, 11, 80
15, 654, Control_c, 7, 11, 80
15, 674, Control_c, 8, 11, 80
15, 694, Control_c, 10, 11, 80
15, 714, Control_c, 11, 11, 80
15, 734, Control_c, 12, 11, 80
15, 754, Control_c, 13, 11, 80
15, 8490, Control_c, 10, 99, 1
15, 8491, Control_c, 10, 98, 99
15, 8492, Control_c, 10, 6, 44
15, 8493, Control_c, 11, 99, 1
15, 8494, Control_c, 11, 98, 99
15, 8495, Control_c, 11, 6, 44
15, 8496, Control_c, 12, 99, 1
15, 8497, Control_c, 12, 98, 99
15, 8498, Control_c, 12, 6, 44
15, 15840, Control_c, 8, 99, 1
15, 15841, Control_c, 8, 98, 100
15, 15842, Control_c, 8, 6, 114
15, 15860, Control_c, 10, 99, 1
15, 15861, Control_c, 10, 98, 100
15, 15862, Control_c, 10, 6, 114
15, 15880, Control_c, 11, 99, 1
15, 15881, Control_c, 11, 98, 100
15, 15882, Control_c, 11, 6, 114
15, 15900, Control_c, 12, 99, 1
15, 15901, Control_c, 12, 98, 100
15, 15902, Control_c, 12, 6, 114
15, 16320, Control_c, 8, 99, 1
15, 16321, Control_c, 8, 98, 99
15, 16322, Control_c, 8, 6, 64
15, 16323, Control_c, 10, 99, 1
15, 16324, Control_c, 10, 98, 99
15, 16325, Control_c, 10, 6, 64
15, 16326, Control_c, 11, 99, 1
15, 16327, Control_c, 11, 98, 99
15, 16328, Control_c, 11, 6, 64
15, 16329, Control_c, 12, 99, 1
15, 16330, Control_c, 12, 98, 99
15, 16331, Control_c, 12, 6, 64
15, 17760, Control_c, 8, 99, 1
15, 17761, Control_c, 8, 98, 99
15, 17762, Control_c, 8, 6, 44
15, 18229, Control_c, 8, 99, 1
15, 18230, Control_c, 8, 98, 99
15, 18231, Control_c, 8, 6, 64
15, 19470, Control_c, 8, 99, 1
15, 19471, Control_c, 8, 98, 99
15, 19472, Control_c, 8, 6, 44
15, 19490, Control_c, 10, 99, 1
15, 19491, Control_c, 10, 98, 99
15, 19492, Control_c, 10, 6, 44
15, 19510, Control_c, 11, 99, 1
15, 19511, Control_c, 11, 98, 99
15, 19512, Control_c, 11, 6, 44
15, 19530, Control_c, 12, 99, 1
15, 19531, Control_c, 12, 98, 99
15, 19532, Control_c, 12, 6, 44
15, 20400, Control_c, 8, 99, 1
15, 20401, Control_c, 8, 98, 99
15, 20402, Control_c, 8, 6, 64
15, 20420, Control_c, 10, 99, 1
15, 20421, Control_c, 10, 98, 99
15, 20422, Control_c, 10, 6, 64
15, 20440, Control_c, 11, 99, 1
15, 20441, Control_c, 11, 98, 99
15, 20442, Control_c, 11, 6, 64
15, 20460, Control_c, 12, 99, 1
15, 20461, Control_c, 12, 98, 99
15, 20462, Control_c, 12, 6, 64
15, 28800, Control_c, 8, 99, 1
15, 28801, Control_c, 8, 98, 99
15, 28802, Control_c, 8, 6, 44
15, 28803, Control_c, 10, 99, 1
15, 28804, Control_c, 10, 98, 99
15, 28805, Control_c, 10, 6, 44
15, 28806, Control_c, 11, 99, 1
15, 28807, Control_c, 11, 98, 99
15, 28808, Control_c, 11, 6, 44
15, 28809, Control_c, 12, 99, 1
15, 28810, Control_c, 12, 98, 99
15, 28811, Control_c, 12, 6, 44
15, 36960, Control_c, 1, 99, 1
15, 36961, Control_c, 1, 98, 99
15, 36962, Control_c, 1, 6, 64
15, 37434, Control_c, 1, 99, 1
15, 37435, Control_c, 1, 98, 99
15, 37436, Control_c, 1, 6, 69
15, 38670, Control_c, 1, 99, 1
15, 38671, Control_c, 1, 98, 99
15, 38672, Control_c, 1, 6, 64
15, 39000, Control_c, 1, 99, 1
15, 39001, Control_c, 1, 98, 102
15, 39002, Control_c, 1, 6, 114
15, 39360, Control_c, 1, 99, 1
15, 39361, Control_c, 1, 98, 99
15, 39362, Control_c, 1, 6, 69
15, 39720, Control_c, 1, 99, 1
15, 39721, Control_c, 1, 98, 102
15, 39722, Control_c, 1, 6, 64
15, 40770, Control_c, 1, 99, 1
15, 40771, Control_c, 1, 98, 99
15, 40772, Control_c, 1, 6, 74
15, 40980, Control_c, 1, 99, 1
15, 40981, Control_c, 1, 98, 99
15, 40982, Control_c, 1, 6, 69
15, 42720, Control_c, 0, 99, 1
15, 42721, Control_c, 0, 98, 99
15, 42722, Control_c, 0, 6, 74
15, 42723, Control_c, 0, 99, 1
15, 42724, Control_c, 0, 98, 9
15, 42725, Control_c, 0, 6, 14
15, 42726, Control_c, 2, 99, 1
15, 42727, Control_c, 2, 98, 99
15, 42728, Control_c, 2, 6, 69
15, 42729, Control_c, 0, 99, 1
15, 42730, Control_c, 0, 98, 100
15, 42731, Control_c, 0, 6, 114
15, 42732, Control_c, 2, 99, 1
15, 42733, Control_c, 2, 98, 100
15, 42734, Control_c, 2, 6, 114
15, 48480, Control_c, 0, 99, 1
15, 48481, Control_c, 0, 98, 99
15, 48482, Control_c, 0, 6, 64
15, 48483, Control_c, 0, 99, 1
15, 48484, Control_c, 0, 98, 100
15, 48485, Control_c, 0, 6, 64
15, 48486, Control_c, 2, 99, 1
15, 48487, Control_c, 2, 98, 100
15, 48488, Control_c, 2, 6, 64
15, 54720, Control_c, 10, 99, 1
15, 54721, Control_c, 10, 98, 99
15, 54722, Control_c, 10, 6, 64
15, 54723, Control_c, 11, 99, 1
15, 54724, Control_c, 11, 98, 99
15, 54725, Control_c, 11, 6, 64
15, 56640, Control_c, 10, 99, 1
15, 56641, Control_c, 10, 98, 99
15, 56642, Control_c, 10, 6, 44
15, 56643, Control_c, 11, 99, 1
15, 56644, Control_c, 11, 98, 99
15, 56645, Control_c, 11, 6, 44
15, 73410, Control_c, 0, 99, 1
15, 73411, Control_c, 0, 98, 102
15, 73412, Control_c, 0, 6, 74
15, 73413, Control_c, 1, 99, 1
15, 73414, Control_c, 1, 98, 102
15, 73415, Control_c, 1, 6, 74
15, 76770, Control_c, 0, 99, 1
15, 76771, Control_c, 0, 98, 102
15, 76772, Control_c, 0, 6, 64
15, 76773, Control_c, 1, 99, 1
15, 76774, Control_c, 1, 98, 102
15, 76775, Control_c, 1, 6, 64
15, 78720, Control_c, 1, 99, 1
15, 78721, Control_c, 1, 98, 99
15, 78722, Control_c, 1, 6, 64
15, 80634, Control_c, 1, 99, 1
15, 80635, Control_c, 1, 98, 99
15, 80636, Control_c, 1, 6, 69
15, 94530, Control_c, 0, 99, 1
15, 94531, Control_c, 0, 98, 102
15, 94532, Control_c, 0, 6, 74
15, 94533, Control_c, 1, 99, 1
15, 94534, Control_c, 1, 98, 102
15, 94535, Control_c, 1, 6, 74
15, 97890, Control_c, 0, 99, 1
15, 97891, Control_c, 0, 98, 102
15, 97892, Control_c, 0, 6, 64
15, 97893, Control_c, 1, 99, 1
15, 97894, Control_c, 1, 98, 102
15, 97895, Control_c, 1, 6, 64
15, 100770, Control_c, 10, 99, 1
15, 100771, Control_c, 10, 98, 99
15, 100772, Control_c, 10, 6, 64
15, 100773, Control_c, 11, 99, 1
15, 100774, Control_c, 11, 98, 99
15, 100775, Control_c, 11, 6, 64
15, 109432, Control_c, 10, 99, 1
15, 109433, Control_c, 10, 98, 99
15, 109434, Control_c, 10, 6, 44
15, 109435, Control_c, 11, 99, 1
15, 109436, Control_c, 11, 98, 99
15, 109437, Control_c, 11, 6, 44
15, 118680, Control_c, 2, 99, 1
15, 118681, Control_c, 2, 98, 99
15, 118682, Control_c, 2, 6, 64
15, 119400, Control_c, 2, 99, 1
15, 119401, Control_c, 2, 98, 99
15, 119402, Control_c, 2, 6, 69
15, 129120, Control_c, 5, 99, 1
15, 129121, Control_c, 5, 98, 99
15, 129122, Control_c, 5, 6, 74
15, 134340, Control_c, 5, 99, 1
15, 134341, Control_c, 5, 98, 99
15, 134342, Control_c, 5, 6, 64
15, 173740, Control_c, 10, 99, 1
15, 173741, Control_c, 10, 98, 99
15, 173742, Control_c, 10, 6, 64
15, 173743, Control_c, 10, 99, 1
15, 173744, Control_c, 10, 98, 100
15, 173745, Control_c, 10, 6, 64
15, 173746, Control_c, 11, 99, 1
15, 173747, Control_c, 11, 98, 99
15, 173748, Control_c, 11, 6, 64
15, 173749, Control_c, 11, 99, 1
15, 173750, Control_c, 11, 98, 100
15, 173751, Control_c, 11, 6, 64
15, 173752, Control_c, 12, 99, 1
15, 173753, Control_c, 12, 98, 99
15, 173754, Control_c, 12, 6, 64
15, 173755, Control_c, 12, 99, 1
15, 173756, Control_c, 12, 98, 100
15, 173757, Control_c, 12, 6, 64
15, 176640, Control_c, 1, 99, 1
15, 176641, Control_c, 1, 98, 100
15, 176642, Control_c, 1, 6, 114
15, 176643, Control_c, 2, 99, 1
15, 176644, Control_c, 2, 98, 100
15, 176645, Control_c, 2, 6, 114
15, 176970, Control_c, 10, 99, 1
15, 176971, Control_c, 10, 98, 99
15, 176972, Control_c, 10, 6, 44
15, 176973, Control_c, 10, 99, 1
15, 176974, Control_c, 10, 98, 100
15, 176975, Control_c, 10, 6, 114
15, 176976, Control_c, 11, 99, 1
15, 176977, Control_c, 11, 98, 99
15, 176978, Control_c, 11, 6, 44
15, 176979, Control_c, 11, 99, 1
15, 176980, Control_c, 11, 98, 100
15, 176981, Control_c, 11, 6, 114
15, 176982, Control_c, 12, 99, 1
15, 176983, Control_c, 12, 98, 99
15, 176984, Control_c, 12, 6, 44
15, 176985, Control_c, 12, 99, 1
15, 176986, Control_c, 12, 98, 100
15, 176987, Control_c, 12, 6, 114
15, 177840, Control_c, 10, 99, 1
15, 177841, Control_c, 10, 98, 99
15, 177842, Control_c, 10, 6, 64
15, 177843, Control_c, 10, 99, 1
15, 177844, Control_c, 10, 98, 100
15, 177845, Control_c, 10, 6, 64
15, 177846, Control_c, 11, 99, 1
15, 177847, Control_c, 11, 98, 99
15, 177848, Control_c, 11, 6, 64
15, 177849, Control_c, 11, 99, 1
15, 177850, Control_c, 11, 98, 100
15, 177851, Control_c, 11, 6, 64
15, 177852, Control_c, 12, 99, 1
15, 177853, Control_c, 12, 98, 99
15, 177854, Control_c, 12, 6, 64
15, 177855, Control_c, 12, 99, 1
15, 177856, Control_c, 12, 98, 100
15, 177857, Control_c, 12, 6, 64
15, 179506, Control_c, 10, 99, 1
15, 179507, Control_c, 10, 98, 99
15, 179508, Control_c, 10, 6, 44
15, 179509, Control_c, 10, 99, 1
15, 179510, Control_c, 10, 98, 100
15, 179511, Control_c, 10, 6, 114
15, 179512, Control_c, 11, 99, 1
15, 179513, Control_c, 11, 98, 99
15, 179514, Control_c, 11, 6, 44
15, 179515, Control_c, 11, 99, 1
15, 179516, Control_c, 11, 98, 100
15, 179517, Control_c, 11, 6, 114
15, 181432, Control_c, 8, 99, 1
15, 181433, Control_c, 8, 98, 99
15, 181434, Control_c, 8, 6, 64
15, 181435, Control_c, 8, 99, 1
15, 181436, Control_c, 8, 98, 100
15, 181437, Control_c, 8, 6, 64
15, 183352, Control_c, 8, 99, 1
15, 183353, Control_c, 8, 98, 99
15, 183354, Control_c, 8, 6, 44
15, 183355, Control_c, 8, 99, 1
15, 183356, Control_c, 8, 98, 100
15, 183357, Control_c, 8, 6, 114
15, 187192, Control_c, 12, 99, 1
15, 187193, Control_c, 12, 98, 99
15, 187194, Control_c, 12, 6, 44
15, 187195, Control_c, 12, 99, 1
15, 187196, Control_c, 12, 98, 100
15, 187197, Control_c, 12, 6, 114
15, 208306, Control_c, 8, 99, 1
15, 208307, Control_c, 8, 98, 99
15, 208308, Control_c, 8, 6, 54
15, 208309, Control_c, 8, 99, 1
15, 208310, Control_c, 8, 98, 100
15, 208311, Control_c, 8, 6, 64
15, 208312, Control_c, 10, 99, 1
15, 208313, Control_c, 10, 98, 99
15, 208314, Control_c, 10, 6, 54
15, 208315, Control_c, 10, 99, 1
15, 208316, Control_c, 10, 98, 100
15, 208317, Control_c, 10, 6, 64
15, 224146, Control_c, 8, 99, 1
15, 224147, Control_c, 8, 98, 99
15, 224148, Control_c, 8, 6, 44
15, 224149, Control_c, 8, 99, 1
15, 224150, Control_c, 8, 98, 100
15, 224151, Control_c, 8, 6, 114
15, 224152, Control_c, 10, 99, 1
15, 224153, Control_c, 10, 98, 99
15, 224154, Control_c, 10, 6, 44
15, 224155, Control_c, 10, 99, 1
15, 224156, Control_c, 10, 98, 100
15, 224157, Control_c, 10, 6, 114
15, 228480, Program_c, 12, 45
15, 228481, Control_c, 12, 99, 1
15, 228482, Control_c, 12, 98, 99
15, 228483, Control_c, 12, 6, 64
15, 228484, Control_c, 12, 99, 1
15, 228485, Control_c, 12, 98, 100
15, 228486, Control_c, 12, 6, 64
15, 228487, Program_c, 13, 45
15, 236160, Program_c, 12, 49
15, 236161, Control_c, 12, 99, 1
15, 236162, Control_c, 12, 98, 99
15, 236163, Control_c, 12, 6, 44
15, 236164, Control_c, 12, 99, 1
15, 236165, Control_c, 12, 98, 100
15, 236166, Control_c, 12, 6, 114
15, 236167, Program_c, 13, 48
15, 236167, End_track
16, 0, Start_track
16, 0, Channel_prefix, 14
16, 0, Title_t, "L. v. Beethoven:"
16, 0, Instrument_name_t, "M Cha15 "
16, 0, Text_t, "Ludwig van Beethoven (1770 - 1827)"
16, 6720, Text_t, " "
16, 6720, End_track
17, 0, Start_track
17, 0, Channel_prefix, 15
17, 0, Title_t, "Symph. No. 3; 2nd Mvmt."
17, 0, Instrument_name_t, "M Cha16 "
17, 0, Text_t, "Symphony No. 3, Op. 55 (Eroica), 2nd Movement (Marcia funebre) - ""Adagio assai"""
17, 6720, Text_t, " "
17, 6720, End_track
18, 0, Start_track
18, 0, Channel_prefix, 15
18, 0, Title_t, "Sequenced for the Sound Canvas"
18, 0, Instrument_name_t, "M Cha16 "
18, 0, Text_t, "Sequenced for the Sound Canvas"
18, 6720, Text_t, " "
18, 6720, End_track
19, 0, Start_track
19, 0, Channel_prefix, 15
19, 0, Title_t, "by H.-J. Roeder"
19, 0, Instrument_name_t, "M Cha16 "
19, 0, Text_t, "by Hans-Joachim Roeder (roeder@fmi.uni-passau.de)"
19, 6720, Text_t, " "
19, 6720, End_track
0, 0, End_of_file
