0, 0, Header, 1, 19, 480
1, 0, Start_track
1, 0, Time_signature, 3, 2, 24, 8
1, 0, Key_signature, 10, "major"
1, 0, Tempo, 312500
1, 203040, Key_signature, 0, "major"
1, 368640, Key_signature, 10, "major"
1, 567360, Key_signature, 0, "major"
1, 567360, End_track
2, 0, Start_track
2, 0, MIDI_port, 0
2, 0, Title_t, "Flute 1"
2, 0, Program_c, 0, 73
2, 21600, Note_on_c, 0, 79, 91
2, 22560, Note_on_c, 0, 79, 0
2, 22560, Note_on_c, 0, 83, 91
2, 23040, Note_on_c, 0, 83, 0
2, 23040, Note_on_c, 0, 84, 91
2, 24000, Note_on_c, 0, 84, 0
2, 24000, Note_on_c, 0, 86, 91
2, 24480, Note_on_c, 0, 86, 0
2, 24480, Note_on_c, 0, 89, 91
2, 25440, Note_on_c, 0, 89, 0
2, 25440, Note_on_c, 0, 87, 91
2, 25920, Note_on_c, 0, 87, 0
2, 25920, Note_on_c, 0, 86, 91
2, 27360, Note_on_c, 0, 86, 0
2, 38880, Note_on_c, 0, 82, 115
2, 39360, Note_on_c, 0, 82, 0
2, 39360, Note_on_c, 0, 82, 115
2, 39840, Note_on_c, 0, 82, 0
2, 39840, Note_on_c, 0, 82, 115
2, 40320, Note_on_c, 0, 82, 0
2, 40320, Note_on_c, 0, 82, 115
2, 41760, Note_on_c, 0, 82, 0
2, 41760, Note_on_c, 0, 82, 115
2, 42240, Note_on_c, 0, 82, 0
2, 42240, Note_on_c, 0, 82, 115
2, 42720, Note_on_c, 0, 82, 0
2, 42720, Note_on_c, 0, 82, 115
2, 43200, Note_on_c, 0, 82, 0
2, 43200, Note_on_c, 0, 82, 115
2, 44640, Note_on_c, 0, 82, 0
2, 44640, Note_on_c, 0, 82, 115
2, 45120, Note_on_c, 0, 82, 0
2, 45120, Note_on_c, 0, 82, 115
2, 45600, Note_on_c, 0, 82, 0
2, 45600, Note_on_c, 0, 82, 115
2, 46080, Note_on_c, 0, 82, 0
2, 46080, Note_on_c, 0, 82, 115
2, 47520, Note_on_c, 0, 82, 0
2, 47520, Note_on_c, 0, 85, 115
2, 48000, Note_on_c, 0, 85, 0
2, 48000, Note_on_c, 0, 83, 115
2, 48480, Note_on_c, 0, 83, 0
2, 48480, Note_on_c, 0, 82, 115
2, 48960, Note_on_c, 0, 82, 0
2, 48960, Note_on_c, 0, 80, 115
2, 50400, Note_on_c, 0, 80, 0
2, 50400, Note_on_c, 0, 82, 115
2, 51840, Note_on_c, 0, 82, 0
2, 51840, Note_on_c, 0, 78, 115
2, 53280, Note_on_c, 0, 78, 0
2, 53280, Note_on_c, 0, 82, 115
2, 53760, Note_on_c, 0, 82, 0
2, 53760, Note_on_c, 0, 80, 115
2, 54240, Note_on_c, 0, 80, 0
2, 54240, Note_on_c, 0, 78, 115
2, 54720, Note_on_c, 0, 78, 0
2, 54720, Note_on_c, 0, 77, 115
2, 57120, Note_on_c, 0, 77, 0
2, 57120, Note_on_c, 0, 78, 115
2, 57600, Note_on_c, 0, 78, 0
2, 57600, Note_on_c, 0, 77, 115
2, 60000, Note_on_c, 0, 77, 0
2, 60000, Note_on_c, 0, 78, 115
2, 60480, Note_on_c, 0, 78, 0
2, 60480, Note_on_c, 0, 77, 115
2, 61440, Note_on_c, 0, 77, 0
2, 61440, Note_on_c, 0, 78, 115
2, 61920, Note_on_c, 0, 78, 0
2, 61920, Note_on_c, 0, 77, 115
2, 62880, Note_on_c, 0, 77, 0
2, 62880, Note_on_c, 0, 78, 115
2, 63360, Note_on_c, 0, 78, 0
2, 63360, Note_on_c, 0, 77, 115
2, 65280, Note_on_c, 0, 77, 0
2, 73440, Note_on_c, 0, 87, 91
2, 74400, Note_on_c, 0, 87, 0
2, 74400, Note_on_c, 0, 85, 91
2, 74880, Note_on_c, 0, 85, 0
2, 74880, Note_on_c, 0, 84, 91
2, 75840, Note_on_c, 0, 84, 0
2, 102240, Note_on_c, 0, 86, 115
2, 103680, Note_on_c, 0, 86, 0
2, 103680, Note_on_c, 0, 87, 115
2, 105120, Note_on_c, 0, 87, 0
2, 105120, Note_on_c, 0, 86, 115
2, 106560, Note_on_c, 0, 86, 0
2, 106560, Note_on_c, 0, 84, 115
2, 108000, Note_on_c, 0, 84, 0
2, 108000, Note_on_c, 0, 86, 115
2, 109440, Note_on_c, 0, 86, 0
2, 109440, Note_on_c, 0, 87, 115
2, 110880, Note_on_c, 0, 87, 0
2, 110880, Note_on_c, 0, 89, 115
2, 112320, Note_on_c, 0, 89, 0
2, 112320, Note_on_c, 0, 82, 115
2, 112800, Note_on_c, 0, 82, 0
2, 113760, Note_on_c, 0, 84, 123
2, 114240, Note_on_c, 0, 84, 0
2, 114240, Note_on_c, 0, 84, 123
2, 114720, Note_on_c, 0, 84, 0
2, 114720, Note_on_c, 0, 84, 123
2, 115200, Note_on_c, 0, 84, 0
2, 115200, Note_on_c, 0, 84, 123
2, 116640, Note_on_c, 0, 84, 0
2, 116640, Note_on_c, 0, 84, 123
2, 117120, Note_on_c, 0, 84, 0
2, 117120, Note_on_c, 0, 84, 123
2, 117600, Note_on_c, 0, 84, 0
2, 117600, Note_on_c, 0, 84, 123
2, 118080, Note_on_c, 0, 84, 0
2, 118080, Note_on_c, 0, 84, 123
2, 119520, Note_on_c, 0, 84, 0
2, 119520, Note_on_c, 0, 84, 123
2, 120000, Note_on_c, 0, 84, 0
2, 120000, Note_on_c, 0, 84, 123
2, 120480, Note_on_c, 0, 84, 0
2, 120480, Note_on_c, 0, 84, 123
2, 120960, Note_on_c, 0, 84, 0
2, 120960, Note_on_c, 0, 84, 123
2, 122400, Note_on_c, 0, 84, 0
2, 122400, Note_on_c, 0, 87, 123
2, 122880, Note_on_c, 0, 87, 0
2, 122880, Note_on_c, 0, 85, 123
2, 123360, Note_on_c, 0, 85, 0
2, 123360, Note_on_c, 0, 84, 123
2, 123840, Note_on_c, 0, 84, 0
2, 123840, Note_on_c, 0, 82, 123
2, 125280, Note_on_c, 0, 82, 0
2, 125280, Note_on_c, 0, 84, 123
2, 126720, Note_on_c, 0, 84, 0
2, 126720, Note_on_c, 0, 80, 123
2, 128160, Note_on_c, 0, 80, 0
2, 128160, Note_on_c, 0, 84, 123
2, 128640, Note_on_c, 0, 84, 0
2, 128640, Note_on_c, 0, 82, 123
2, 129120, Note_on_c, 0, 82, 0
2, 129120, Note_on_c, 0, 80, 123
2, 129600, Note_on_c, 0, 80, 0
2, 129600, Note_on_c, 0, 79, 123
2, 132000, Note_on_c, 0, 79, 0
2, 132000, Note_on_c, 0, 80, 123
2, 132480, Note_on_c, 0, 80, 0
2, 132480, Note_on_c, 0, 79, 123
2, 134880, Note_on_c, 0, 79, 0
2, 134880, Note_on_c, 0, 80, 123
2, 135360, Note_on_c, 0, 80, 0
2, 135360, Note_on_c, 0, 79, 123
2, 136320, Note_on_c, 0, 79, 0
2, 136320, Note_on_c, 0, 80, 123
2, 136800, Note_on_c, 0, 80, 0
2, 136800, Note_on_c, 0, 79, 123
2, 137760, Note_on_c, 0, 79, 0
2, 137760, Note_on_c, 0, 80, 123
2, 138240, Note_on_c, 0, 80, 0
2, 138240, Note_on_c, 0, 79, 115
2, 140160, Note_on_c, 0, 79, 0
2, 145440, Note_on_c, 0, 79, 91
2, 146400, Note_on_c, 0, 79, 0
2, 146400, Note_on_c, 0, 83, 91
2, 146880, Note_on_c, 0, 83, 0
2, 146880, Note_on_c, 0, 84, 91
2, 147840, Note_on_c, 0, 84, 0
2, 147840, Note_on_c, 0, 86, 91
2, 148320, Note_on_c, 0, 86, 0
2, 148320, Note_on_c, 0, 89, 91
2, 149280, Note_on_c, 0, 89, 0
2, 149280, Note_on_c, 0, 87, 91
2, 149760, Note_on_c, 0, 87, 0
2, 149760, Note_on_c, 0, 86, 91
2, 150240, Note_on_c, 0, 86, 0
2, 151200, Note_on_c, 0, 79, 91
2, 152160, Note_on_c, 0, 79, 0
2, 152160, Note_on_c, 0, 83, 91
2, 152640, Note_on_c, 0, 83, 0
2, 152640, Note_on_c, 0, 84, 91
2, 153600, Note_on_c, 0, 84, 0
2, 153600, Note_on_c, 0, 87, 91
2, 154080, Note_on_c, 0, 87, 0
2, 154080, Note_on_c, 0, 91, 91
2, 155040, Note_on_c, 0, 91, 0
2, 155040, Note_on_c, 0, 89, 91
2, 155520, Note_on_c, 0, 89, 0
2, 155520, Note_on_c, 0, 87, 91
2, 156000, Note_on_c, 0, 87, 0
2, 159840, Note_on_c, 0, 92, 91
2, 160320, Note_on_c, 0, 92, 0
2, 160320, Note_on_c, 0, 92, 91
2, 160800, Note_on_c, 0, 92, 0
2, 160800, Note_on_c, 0, 92, 91
2, 161280, Note_on_c, 0, 92, 0
2, 161280, Note_on_c, 0, 92, 91
2, 161760, Note_on_c, 0, 92, 0
2, 162720, Note_on_c, 0, 92, 91
2, 163200, Note_on_c, 0, 92, 0
2, 163200, Note_on_c, 0, 92, 91
2, 163680, Note_on_c, 0, 92, 0
2, 163680, Note_on_c, 0, 92, 91
2, 164160, Note_on_c, 0, 92, 0
2, 164160, Note_on_c, 0, 92, 91
2, 164640, Note_on_c, 0, 92, 0
2, 165120, Note_on_c, 0, 89, 78
2, 165600, Note_on_c, 0, 89, 0
2, 166560, Note_on_c, 0, 89, 91
2, 167040, Note_on_c, 0, 89, 0
2, 168000, Note_on_c, 0, 89, 91
2, 168480, Note_on_c, 0, 89, 0
2, 169440, Note_on_c, 0, 89, 91
2, 169920, Note_on_c, 0, 89, 0
2, 170880, Note_on_c, 0, 89, 91
2, 171360, Note_on_c, 0, 89, 0
2, 172320, Note_on_c, 0, 89, 91
2, 172800, Note_on_c, 0, 89, 0
2, 173760, Note_on_c, 0, 89, 91
2, 174240, Note_on_c, 0, 89, 0
2, 175200, Note_on_c, 0, 89, 91
2, 175680, Note_on_c, 0, 89, 0
2, 176640, Note_on_c, 0, 89, 91
2, 177120, Note_on_c, 0, 89, 0
2, 178080, Note_on_c, 0, 89, 91
2, 178560, Note_on_c, 0, 89, 0
2, 179520, Note_on_c, 0, 87, 91
2, 180000, Note_on_c, 0, 87, 0
2, 180960, Note_on_c, 0, 89, 91
2, 181440, Note_on_c, 0, 89, 0
2, 182400, Note_on_c, 0, 86, 101
2, 182880, Note_on_c, 0, 86, 0
2, 183840, Note_on_c, 0, 87, 101
2, 184320, Note_on_c, 0, 87, 0
2, 185280, Note_on_c, 0, 87, 109
2, 185760, Note_on_c, 0, 87, 0
2, 186720, Note_on_c, 0, 87, 109
2, 187200, Note_on_c, 0, 87, 0
2, 188160, Note_on_c, 0, 87, 115
2, 188640, Note_on_c, 0, 87, 0
2, 188640, Note_on_c, 0, 87, 115
2, 189120, Note_on_c, 0, 87, 0
2, 189120, Note_on_c, 0, 87, 115
2, 189600, Note_on_c, 0, 87, 0
2, 189600, Note_on_c, 0, 86, 115
2, 190080, Note_on_c, 0, 86, 0
2, 190080, Note_on_c, 0, 84, 115
2, 190560, Note_on_c, 0, 84, 0
2, 191520, Note_on_c, 0, 91, 123
2, 192000, Note_on_c, 0, 91, 0
2, 192000, Note_on_c, 0, 91, 123
2, 192480, Note_on_c, 0, 91, 0
2, 192480, Note_on_c, 0, 91, 123
2, 192960, Note_on_c, 0, 91, 0
2, 192960, Note_on_c, 0, 91, 123
2, 194400, Note_on_c, 0, 91, 0
2, 194400, Note_on_c, 0, 91, 123
2, 194880, Note_on_c, 0, 91, 0
2, 194880, Note_on_c, 0, 91, 123
2, 195360, Note_on_c, 0, 91, 0
2, 195360, Note_on_c, 0, 91, 123
2, 195840, Note_on_c, 0, 91, 0
2, 195840, Note_on_c, 0, 91, 123
2, 197280, Note_on_c, 0, 91, 0
2, 197280, Note_on_c, 0, 82, 91
2, 197760, Note_on_c, 0, 82, 0
2, 197760, Note_on_c, 0, 82, 91
2, 198240, Note_on_c, 0, 82, 0
2, 198240, Note_on_c, 0, 82, 91
2, 198720, Note_on_c, 0, 82, 0
2, 198720, Note_on_c, 0, 80, 91
2, 199200, Note_on_c, 0, 80, 0
2, 200160, Note_on_c, 0, 74, 91
2, 200640, Note_on_c, 0, 74, 0
2, 201600, Note_on_c, 0, 72, 91
2, 202080, Note_on_c, 0, 72, 0
2, 224640, Note_on_c, 0, 79, 115
2, 226080, Note_on_c, 0, 79, 0
2, 226080, Note_on_c, 0, 86, 115
2, 227040, Note_on_c, 0, 86, 0
2, 227040, Note_on_c, 0, 88, 115
2, 227280, Note_on_c, 0, 88, 0
2, 227280, Note_on_c, 0, 90, 115
2, 227520, Note_on_c, 0, 90, 0
2, 227520, Note_on_c, 0, 91, 115
2, 228000, Note_on_c, 0, 91, 0
2, 228240, Note_on_c, 0, 86, 115
2, 228480, Note_on_c, 0, 86, 0
2, 228480, Note_on_c, 0, 88, 115
2, 228720, Note_on_c, 0, 88, 0
2, 228720, Note_on_c, 0, 90, 115
2, 228960, Note_on_c, 0, 90, 0
2, 228960, Note_on_c, 0, 91, 115
2, 229440, Note_on_c, 0, 91, 0
2, 229680, Note_on_c, 0, 86, 115
2, 229920, Note_on_c, 0, 86, 0
2, 229920, Note_on_c, 0, 88, 115
2, 230160, Note_on_c, 0, 88, 0
2, 230160, Note_on_c, 0, 90, 115
2, 230400, Note_on_c, 0, 90, 0
2, 230400, Note_on_c, 0, 91, 115
2, 230880, Note_on_c, 0, 91, 0
2, 253440, Note_on_c, 0, 79, 115
2, 254880, Note_on_c, 0, 79, 0
2, 254880, Note_on_c, 0, 86, 115
2, 255840, Note_on_c, 0, 86, 0
2, 255840, Note_on_c, 0, 88, 115
2, 256080, Note_on_c, 0, 88, 0
2, 256080, Note_on_c, 0, 90, 115
2, 256320, Note_on_c, 0, 90, 0
2, 256320, Note_on_c, 0, 91, 115
2, 256800, Note_on_c, 0, 91, 0
2, 257040, Note_on_c, 0, 86, 115
2, 257280, Note_on_c, 0, 86, 0
2, 257280, Note_on_c, 0, 88, 115
2, 257520, Note_on_c, 0, 88, 0
2, 257520, Note_on_c, 0, 90, 115
2, 257760, Note_on_c, 0, 90, 0
2, 257760, Note_on_c, 0, 91, 115
2, 258240, Note_on_c, 0, 91, 0
2, 258480, Note_on_c, 0, 86, 115
2, 258720, Note_on_c, 0, 86, 0
2, 258720, Note_on_c, 0, 88, 115
2, 258960, Note_on_c, 0, 88, 0
2, 258960, Note_on_c, 0, 90, 115
2, 259200, Note_on_c, 0, 90, 0
2, 259200, Note_on_c, 0, 91, 115
2, 259680, Note_on_c, 0, 91, 0
2, 290400, Note_on_c, 0, 84, 115
2, 290880, Note_on_c, 0, 84, 0
2, 290880, Note_on_c, 0, 83, 115
2, 291120, Note_on_c, 0, 83, 0
2, 291120, Note_on_c, 0, 84, 115
2, 291360, Note_on_c, 0, 84, 0
2, 291360, Note_on_c, 0, 86, 115
2, 291600, Note_on_c, 0, 86, 0
2, 291600, Note_on_c, 0, 79, 115
2, 291840, Note_on_c, 0, 79, 0
2, 291840, Note_on_c, 0, 81, 115
2, 292080, Note_on_c, 0, 81, 0
2, 292080, Note_on_c, 0, 83, 115
2, 292320, Note_on_c, 0, 83, 0
2, 292320, Note_on_c, 0, 84, 115
2, 292560, Note_on_c, 0, 84, 0
2, 292560, Note_on_c, 0, 83, 115
2, 292800, Note_on_c, 0, 83, 0
2, 292800, Note_on_c, 0, 84, 115
2, 293040, Note_on_c, 0, 84, 0
2, 293040, Note_on_c, 0, 86, 115
2, 293280, Note_on_c, 0, 86, 0
2, 293280, Note_on_c, 0, 88, 115
2, 293520, Note_on_c, 0, 88, 0
2, 293520, Note_on_c, 0, 89, 115
2, 293760, Note_on_c, 0, 89, 0
2, 293760, Note_on_c, 0, 91, 115
2, 294720, Note_on_c, 0, 91, 0
2, 294720, Note_on_c, 0, 89, 115
2, 295200, Note_on_c, 0, 89, 0
2, 295200, Note_on_c, 0, 88, 115
2, 295680, Note_on_c, 0, 88, 0
2, 295680, Note_on_c, 0, 84, 115
2, 296160, Note_on_c, 0, 84, 0
2, 296160, Note_on_c, 0, 88, 115
2, 296640, Note_on_c, 0, 88, 0
2, 296640, Note_on_c, 0, 91, 115
2, 297600, Note_on_c, 0, 91, 0
2, 297600, Note_on_c, 0, 89, 115
2, 298080, Note_on_c, 0, 89, 0
2, 298080, Note_on_c, 0, 88, 115
2, 298560, Note_on_c, 0, 88, 0
2, 298560, Note_on_c, 0, 84, 115
2, 299040, Note_on_c, 0, 84, 0
2, 299040, Note_on_c, 0, 88, 115
2, 299520, Note_on_c, 0, 88, 0
2, 299520, Note_on_c, 0, 91, 115
2, 300480, Note_on_c, 0, 91, 0
2, 300480, Note_on_c, 0, 89, 115
2, 300960, Note_on_c, 0, 89, 0
2, 300960, Note_on_c, 0, 88, 115
2, 301440, Note_on_c, 0, 88, 0
2, 301440, Note_on_c, 0, 84, 115
2, 301920, Note_on_c, 0, 84, 0
2, 301920, Note_on_c, 0, 89, 115
2, 302400, Note_on_c, 0, 89, 0
2, 302400, Note_on_c, 0, 86, 115
2, 302880, Note_on_c, 0, 86, 0
2, 302880, Note_on_c, 0, 83, 115
2, 303360, Note_on_c, 0, 83, 0
2, 303360, Note_on_c, 0, 88, 115
2, 303840, Note_on_c, 0, 88, 0
2, 303840, Note_on_c, 0, 84, 115
2, 304320, Note_on_c, 0, 84, 0
2, 304320, Note_on_c, 0, 81, 115
2, 304800, Note_on_c, 0, 81, 0
2, 304800, Note_on_c, 0, 86, 115
2, 305280, Note_on_c, 0, 86, 0
2, 305280, Note_on_c, 0, 83, 115
2, 305760, Note_on_c, 0, 83, 0
2, 305760, Note_on_c, 0, 79, 115
2, 306240, Note_on_c, 0, 79, 0
2, 306240, Note_on_c, 0, 86, 115
2, 306720, Note_on_c, 0, 86, 0
2, 306720, Note_on_c, 0, 83, 115
2, 307200, Note_on_c, 0, 83, 0
2, 307200, Note_on_c, 0, 91, 115
2, 307680, Note_on_c, 0, 91, 0
2, 307680, Note_on_c, 0, 83, 115
2, 308160, Note_on_c, 0, 83, 0
2, 308160, Note_on_c, 0, 84, 115
2, 308640, Note_on_c, 0, 84, 0
2, 308880, Note_on_c, 0, 79, 115
2, 309120, Note_on_c, 0, 79, 0
2, 309120, Note_on_c, 0, 81, 115
2, 309360, Note_on_c, 0, 81, 0
2, 309360, Note_on_c, 0, 83, 115
2, 309600, Note_on_c, 0, 83, 0
2, 309600, Note_on_c, 0, 84, 115
2, 310080, Note_on_c, 0, 84, 0
2, 310320, Note_on_c, 0, 79, 115
2, 310560, Note_on_c, 0, 79, 0
2, 310560, Note_on_c, 0, 81, 115
2, 310800, Note_on_c, 0, 81, 0
2, 310800, Note_on_c, 0, 83, 115
2, 311040, Note_on_c, 0, 83, 0
2, 311040, Note_on_c, 0, 84, 115
2, 311520, Note_on_c, 0, 84, 0
2, 342240, Note_on_c, 0, 84, 78
2, 342720, Note_on_c, 0, 84, 0
2, 342720, Note_on_c, 0, 83, 78
2, 342960, Note_on_c, 0, 83, 0
2, 342960, Note_on_c, 0, 84, 78
2, 343200, Note_on_c, 0, 84, 0
2, 343200, Note_on_c, 0, 86, 78
2, 343440, Note_on_c, 0, 86, 0
2, 343440, Note_on_c, 0, 79, 78
2, 343680, Note_on_c, 0, 79, 0
2, 343680, Note_on_c, 0, 81, 78
2, 343920, Note_on_c, 0, 81, 0
2, 343920, Note_on_c, 0, 83, 78
2, 344160, Note_on_c, 0, 83, 0
2, 344160, Note_on_c, 0, 84, 78
2, 344400, Note_on_c, 0, 84, 0
2, 344400, Note_on_c, 0, 83, 78
2, 344640, Note_on_c, 0, 83, 0
2, 344640, Note_on_c, 0, 84, 78
2, 344880, Note_on_c, 0, 84, 0
2, 344880, Note_on_c, 0, 86, 78
2, 345120, Note_on_c, 0, 86, 0
2, 345120, Note_on_c, 0, 88, 78
2, 345360, Note_on_c, 0, 88, 0
2, 345360, Note_on_c, 0, 89, 78
2, 345600, Note_on_c, 0, 89, 0
2, 345600, Note_on_c, 0, 91, 78
2, 346560, Note_on_c, 0, 91, 0
2, 346560, Note_on_c, 0, 89, 78
2, 347040, Note_on_c, 0, 89, 0
2, 347040, Note_on_c, 0, 88, 78
2, 347520, Note_on_c, 0, 88, 0
2, 347520, Note_on_c, 0, 84, 78
2, 348000, Note_on_c, 0, 84, 0
2, 348000, Note_on_c, 0, 88, 78
2, 348480, Note_on_c, 0, 88, 0
2, 348480, Note_on_c, 0, 91, 78
2, 349440, Note_on_c, 0, 91, 0
2, 349440, Note_on_c, 0, 89, 78
2, 349920, Note_on_c, 0, 89, 0
2, 349920, Note_on_c, 0, 88, 78
2, 350400, Note_on_c, 0, 88, 0
2, 350400, Note_on_c, 0, 84, 78
2, 350880, Note_on_c, 0, 84, 0
2, 350880, Note_on_c, 0, 88, 78
2, 351360, Note_on_c, 0, 88, 0
2, 351360, Note_on_c, 0, 91, 78
2, 352320, Note_on_c, 0, 91, 0
2, 352320, Note_on_c, 0, 89, 78
2, 352800, Note_on_c, 0, 89, 0
2, 352800, Note_on_c, 0, 86, 78
2, 353280, Note_on_c, 0, 86, 0
2, 353280, Note_on_c, 0, 83, 78
2, 353760, Note_on_c, 0, 83, 0
2, 353760, Note_on_c, 0, 79, 78
2, 354240, Note_on_c, 0, 79, 0
2, 354240, Note_on_c, 0, 77, 78
2, 354720, Note_on_c, 0, 77, 0
2, 561600, Note_on_c, 0, 86, 91
2, 567360, Note_on_c, 0, 86, 0
2, 567360, End_track
3, 0, Start_track
3, 0, MIDI_port, 0
3, 0, Title_t, "Flute 2"
3, 21600, Note_on_c, 0, 79, 91
3, 22560, Note_on_c, 0, 79, 0
3, 22560, Note_on_c, 0, 83, 91
3, 23040, Note_on_c, 0, 83, 0
3, 23040, Note_on_c, 0, 84, 91
3, 24000, Note_on_c, 0, 84, 0
3, 24000, Note_on_c, 0, 86, 91
3, 24480, Note_on_c, 0, 86, 0
3, 24480, Note_on_c, 0, 89, 91
3, 25440, Note_on_c, 0, 89, 0
3, 25440, Note_on_c, 0, 87, 91
3, 25920, Note_on_c, 0, 87, 0
3, 25920, Note_on_c, 0, 86, 91
3, 27360, Note_on_c, 0, 86, 0
3, 38880, Note_on_c, 0, 82, 115
3, 39360, Note_on_c, 0, 82, 0
3, 39360, Note_on_c, 0, 82, 115
3, 39840, Note_on_c, 0, 82, 0
3, 39840, Note_on_c, 0, 82, 115
3, 40320, Note_on_c, 0, 82, 0
3, 40320, Note_on_c, 0, 82, 115
3, 41760, Note_on_c, 0, 82, 0
3, 41760, Note_on_c, 0, 82, 115
3, 42240, Note_on_c, 0, 82, 0
3, 42240, Note_on_c, 0, 82, 115
3, 42720, Note_on_c, 0, 82, 0
3, 42720, Note_on_c, 0, 82, 115
3, 43200, Note_on_c, 0, 82, 0
3, 43200, Note_on_c, 0, 82, 115
3, 44640, Note_on_c, 0, 82, 0
3, 44640, Note_on_c, 0, 82, 115
3, 45120, Note_on_c, 0, 82, 0
3, 45120, Note_on_c, 0, 82, 115
3, 45600, Note_on_c, 0, 82, 0
3, 45600, Note_on_c, 0, 82, 115
3, 46080, Note_on_c, 0, 82, 0
3, 46080, Note_on_c, 0, 78, 115
3, 47520, Note_on_c, 0, 78, 0
3, 47520, Note_on_c, 0, 82, 115
3, 48000, Note_on_c, 0, 82, 0
3, 48000, Note_on_c, 0, 80, 115
3, 48480, Note_on_c, 0, 80, 0
3, 48480, Note_on_c, 0, 78, 115
3, 48960, Note_on_c, 0, 78, 0
3, 48960, Note_on_c, 0, 77, 115
3, 50400, Note_on_c, 0, 77, 0
3, 50400, Note_on_c, 0, 78, 115
3, 51840, Note_on_c, 0, 78, 0
3, 51840, Note_on_c, 0, 75, 115
3, 53280, Note_on_c, 0, 75, 0
3, 53280, Note_on_c, 0, 78, 115
3, 53760, Note_on_c, 0, 78, 0
3, 53760, Note_on_c, 0, 77, 115
3, 54240, Note_on_c, 0, 77, 0
3, 54240, Note_on_c, 0, 75, 115
3, 54720, Note_on_c, 0, 75, 0
3, 54720, Note_on_c, 0, 74, 115
3, 57120, Note_on_c, 0, 74, 0
3, 57120, Note_on_c, 0, 75, 115
3, 57600, Note_on_c, 0, 75, 0
3, 57600, Note_on_c, 0, 74, 115
3, 60000, Note_on_c, 0, 74, 0
3, 60000, Note_on_c, 0, 75, 115
3, 60480, Note_on_c, 0, 75, 0
3, 60480, Note_on_c, 0, 74, 115
3, 61440, Note_on_c, 0, 74, 0
3, 61440, Note_on_c, 0, 75, 115
3, 61920, Note_on_c, 0, 75, 0
3, 61920, Note_on_c, 0, 74, 115
3, 62880, Note_on_c, 0, 74, 0
3, 62880, Note_on_c, 0, 75, 115
3, 63360, Note_on_c, 0, 75, 0
3, 63360, Note_on_c, 0, 74, 115
3, 65280, Note_on_c, 0, 74, 0
3, 73440, Note_on_c, 0, 87, 91
3, 74400, Note_on_c, 0, 87, 0
3, 74400, Note_on_c, 0, 85, 91
3, 74880, Note_on_c, 0, 85, 0
3, 74880, Note_on_c, 0, 84, 91
3, 75840, Note_on_c, 0, 84, 0
3, 102240, Note_on_c, 0, 86, 115
3, 103680, Note_on_c, 0, 86, 0
3, 103680, Note_on_c, 0, 87, 115
3, 105120, Note_on_c, 0, 87, 0
3, 105120, Note_on_c, 0, 86, 115
3, 106560, Note_on_c, 0, 86, 0
3, 106560, Note_on_c, 0, 84, 115
3, 108000, Note_on_c, 0, 84, 0
3, 108000, Note_on_c, 0, 86, 115
3, 109440, Note_on_c, 0, 86, 0
3, 109440, Note_on_c, 0, 87, 115
3, 110880, Note_on_c, 0, 87, 0
3, 110880, Note_on_c, 0, 89, 115
3, 112320, Note_on_c, 0, 89, 0
3, 112320, Note_on_c, 0, 82, 115
3, 112800, Note_on_c, 0, 82, 0
3, 113760, Note_on_c, 0, 84, 123
3, 114240, Note_on_c, 0, 84, 0
3, 114240, Note_on_c, 0, 84, 123
3, 114720, Note_on_c, 0, 84, 0
3, 114720, Note_on_c, 0, 84, 123
3, 115200, Note_on_c, 0, 84, 0
3, 115200, Note_on_c, 0, 84, 123
3, 116640, Note_on_c, 0, 84, 0
3, 116640, Note_on_c, 0, 84, 123
3, 117120, Note_on_c, 0, 84, 0
3, 117120, Note_on_c, 0, 84, 123
3, 117600, Note_on_c, 0, 84, 0
3, 117600, Note_on_c, 0, 84, 123
3, 118080, Note_on_c, 0, 84, 0
3, 118080, Note_on_c, 0, 84, 123
3, 119520, Note_on_c, 0, 84, 0
3, 119520, Note_on_c, 0, 79, 123
3, 120000, Note_on_c, 0, 79, 0
3, 120000, Note_on_c, 0, 79, 123
3, 120480, Note_on_c, 0, 79, 0
3, 120480, Note_on_c, 0, 79, 123
3, 120960, Note_on_c, 0, 79, 0
3, 120960, Note_on_c, 0, 80, 123
3, 122400, Note_on_c, 0, 80, 0
3, 122400, Note_on_c, 0, 84, 123
3, 122880, Note_on_c, 0, 84, 0
3, 122880, Note_on_c, 0, 82, 123
3, 123360, Note_on_c, 0, 82, 0
3, 123360, Note_on_c, 0, 80, 123
3, 123840, Note_on_c, 0, 80, 0
3, 123840, Note_on_c, 0, 79, 123
3, 125280, Note_on_c, 0, 79, 0
3, 125280, Note_on_c, 0, 80, 123
3, 126720, Note_on_c, 0, 80, 0
3, 126720, Note_on_c, 0, 77, 123
3, 128160, Note_on_c, 0, 77, 0
3, 128160, Note_on_c, 0, 80, 123
3, 128640, Note_on_c, 0, 80, 0
3, 128640, Note_on_c, 0, 79, 123
3, 129120, Note_on_c, 0, 79, 0
3, 129120, Note_on_c, 0, 77, 123
3, 129600, Note_on_c, 0, 77, 0
3, 129600, Note_on_c, 0, 76, 123
3, 132000, Note_on_c, 0, 76, 0
3, 132000, Note_on_c, 0, 77, 123
3, 132480, Note_on_c, 0, 77, 0
3, 132480, Note_on_c, 0, 76, 123
3, 134880, Note_on_c, 0, 76, 0
3, 134880, Note_on_c, 0, 77, 123
3, 135360, Note_on_c, 0, 77, 0
3, 135360, Note_on_c, 0, 76, 123
3, 136320, Note_on_c, 0, 76, 0
3, 136320, Note_on_c, 0, 77, 123
3, 136800, Note_on_c, 0, 77, 0
3, 136800, Note_on_c, 0, 76, 123
3, 137760, Note_on_c, 0, 76, 0
3, 137760, Note_on_c, 0, 77, 123
3, 138240, Note_on_c, 0, 77, 0
3, 138240, Note_on_c, 0, 76, 115
3, 140160, Note_on_c, 0, 76, 0
3, 145440, Note_on_c, 0, 79, 91
3, 146400, Note_on_c, 0, 79, 0
3, 146400, Note_on_c, 0, 83, 91
3, 146880, Note_on_c, 0, 83, 0
3, 146880, Note_on_c, 0, 84, 91
3, 147840, Note_on_c, 0, 84, 0
3, 147840, Note_on_c, 0, 86, 91
3, 148320, Note_on_c, 0, 86, 0
3, 148320, Note_on_c, 0, 89, 91
3, 149280, Note_on_c, 0, 89, 0
3, 149280, Note_on_c, 0, 87, 91
3, 149760, Note_on_c, 0, 87, 0
3, 149760, Note_on_c, 0, 86, 91
3, 150240, Note_on_c, 0, 86, 0
3, 151200, Note_on_c, 0, 79, 91
3, 152160, Note_on_c, 0, 79, 0
3, 152160, Note_on_c, 0, 83, 91
3, 152640, Note_on_c, 0, 83, 0
3, 152640, Note_on_c, 0, 84, 91
3, 153600, Note_on_c, 0, 84, 0
3, 153600, Note_on_c, 0, 87, 91
3, 154080, Note_on_c, 0, 87, 0
3, 154080, Note_on_c, 0, 91, 91
3, 155040, Note_on_c, 0, 91, 0
3, 155040, Note_on_c, 0, 89, 91
3, 155520, Note_on_c, 0, 89, 0
3, 155520, Note_on_c, 0, 87, 91
3, 156000, Note_on_c, 0, 87, 0
3, 159840, Note_on_c, 0, 92, 91
3, 160320, Note_on_c, 0, 92, 0
3, 160320, Note_on_c, 0, 92, 91
3, 160800, Note_on_c, 0, 92, 0
3, 160800, Note_on_c, 0, 92, 91
3, 161280, Note_on_c, 0, 92, 0
3, 161280, Note_on_c, 0, 92, 91
3, 161760, Note_on_c, 0, 92, 0
3, 162720, Note_on_c, 0, 92, 91
3, 163200, Note_on_c, 0, 92, 0
3, 163200, Note_on_c, 0, 92, 91
3, 163680, Note_on_c, 0, 92, 0
3, 163680, Note_on_c, 0, 92, 91
3, 164160, Note_on_c, 0, 92, 0
3, 164160, Note_on_c, 0, 92, 91
3, 164640, Note_on_c, 0, 92, 0
3, 165120, Note_on_c, 0, 86, 91
3, 165600, Note_on_c, 0, 86, 0
3, 166560, Note_on_c, 0, 86, 91
3, 167040, Note_on_c, 0, 86, 0
3, 168000, Note_on_c, 0, 84, 91
3, 168480, Note_on_c, 0, 84, 0
3, 169440, Note_on_c, 0, 86, 91
3, 169920, Note_on_c, 0, 86, 0
3, 170880, Note_on_c, 0, 84, 91
3, 171360, Note_on_c, 0, 84, 0
3, 172320, Note_on_c, 0, 86, 91
3, 172800, Note_on_c, 0, 86, 0
3, 173760, Note_on_c, 0, 84, 91
3, 174240, Note_on_c, 0, 84, 0
3, 175200, Note_on_c, 0, 86, 91
3, 175680, Note_on_c, 0, 86, 0
3, 176640, Note_on_c, 0, 84, 91
3, 177120, Note_on_c, 0, 84, 0
3, 178080, Note_on_c, 0, 86, 91
3, 178560, Note_on_c, 0, 86, 0
3, 179520, Note_on_c, 0, 84, 91
3, 180000, Note_on_c, 0, 84, 0
3, 180960, Note_on_c, 0, 86, 91
3, 181440, Note_on_c, 0, 86, 0
3, 182400, Note_on_c, 0, 83, 101
3, 182880, Note_on_c, 0, 83, 0
3, 183840, Note_on_c, 0, 84, 101
3, 184320, Note_on_c, 0, 84, 0
3, 185280, Note_on_c, 0, 84, 109
3, 185760, Note_on_c, 0, 84, 0
3, 186720, Note_on_c, 0, 84, 109
3, 187200, Note_on_c, 0, 84, 0
3, 188160, Note_on_c, 0, 84, 115
3, 188640, Note_on_c, 0, 84, 0
3, 188640, Note_on_c, 0, 84, 115
3, 189120, Note_on_c, 0, 84, 0
3, 189120, Note_on_c, 0, 84, 115
3, 189600, Note_on_c, 0, 84, 0
3, 189600, Note_on_c, 0, 83, 115
3, 190080, Note_on_c, 0, 83, 0
3, 190080, Note_on_c, 0, 84, 115
3, 190560, Note_on_c, 0, 84, 0
3, 191520, Note_on_c, 0, 86, 123
3, 192000, Note_on_c, 0, 86, 0
3, 192000, Note_on_c, 0, 86, 123
3, 192480, Note_on_c, 0, 86, 0
3, 192480, Note_on_c, 0, 86, 123
3, 192960, Note_on_c, 0, 86, 0
3, 192960, Note_on_c, 0, 87, 123
3, 194400, Note_on_c, 0, 87, 0
3, 194400, Note_on_c, 0, 86, 123
3, 194880, Note_on_c, 0, 86, 0
3, 194880, Note_on_c, 0, 86, 123
3, 195360, Note_on_c, 0, 86, 0
3, 195360, Note_on_c, 0, 86, 123
3, 195840, Note_on_c, 0, 86, 0
3, 195840, Note_on_c, 0, 84, 123
3, 197280, Note_on_c, 0, 84, 0
3, 197280, Note_on_c, 0, 79, 91
3, 197760, Note_on_c, 0, 79, 0
3, 197760, Note_on_c, 0, 79, 91
3, 198240, Note_on_c, 0, 79, 0
3, 198240, Note_on_c, 0, 79, 91
3, 198720, Note_on_c, 0, 79, 0
3, 198720, Note_on_c, 0, 77, 91
3, 199200, Note_on_c, 0, 77, 0
3, 200160, Note_on_c, 0, 71, 91
3, 200640, Note_on_c, 0, 71, 0
3, 201600, Note_on_c, 0, 72, 91
3, 202080, Note_on_c, 0, 72, 0
3, 224640, Note_on_c, 0, 79, 115
3, 226080, Note_on_c, 0, 79, 0
3, 226080, Note_on_c, 0, 86, 115
3, 227040, Note_on_c, 0, 86, 0
3, 227040, Note_on_c, 0, 88, 115
3, 227280, Note_on_c, 0, 88, 0
3, 227280, Note_on_c, 0, 90, 115
3, 227520, Note_on_c, 0, 90, 0
3, 227520, Note_on_c, 0, 83, 115
3, 228000, Note_on_c, 0, 83, 0
3, 228960, Note_on_c, 0, 83, 115
3, 229440, Note_on_c, 0, 83, 0
3, 230400, Note_on_c, 0, 83, 115
3, 230880, Note_on_c, 0, 83, 0
3, 253440, Note_on_c, 0, 79, 115
3, 254880, Note_on_c, 0, 79, 0
3, 254880, Note_on_c, 0, 86, 115
3, 255840, Note_on_c, 0, 86, 0
3, 255840, Note_on_c, 0, 88, 115
3, 256080, Note_on_c, 0, 88, 0
3, 256080, Note_on_c, 0, 90, 115
3, 256320, Note_on_c, 0, 90, 0
3, 256320, Note_on_c, 0, 83, 115
3, 256800, Note_on_c, 0, 83, 0
3, 257760, Note_on_c, 0, 83, 115
3, 258240, Note_on_c, 0, 83, 0
3, 259200, Note_on_c, 0, 83, 115
3, 259680, Note_on_c, 0, 83, 0
3, 290400, Note_on_c, 0, 84, 115
3, 290880, Note_on_c, 0, 84, 0
3, 290880, Note_on_c, 0, 83, 115
3, 291120, Note_on_c, 0, 83, 0
3, 291120, Note_on_c, 0, 84, 115
3, 291360, Note_on_c, 0, 84, 0
3, 291360, Note_on_c, 0, 86, 115
3, 291600, Note_on_c, 0, 86, 0
3, 291600, Note_on_c, 0, 79, 115
3, 291840, Note_on_c, 0, 79, 0
3, 291840, Note_on_c, 0, 81, 115
3, 292080, Note_on_c, 0, 81, 0
3, 292080, Note_on_c, 0, 83, 115
3, 292320, Note_on_c, 0, 83, 0
3, 292320, Note_on_c, 0, 84, 115
3, 292560, Note_on_c, 0, 84, 0
3, 292560, Note_on_c, 0, 83, 115
3, 292800, Note_on_c, 0, 83, 0
3, 292800, Note_on_c, 0, 84, 115
3, 293040, Note_on_c, 0, 84, 0
3, 293040, Note_on_c, 0, 86, 115
3, 293280, Note_on_c, 0, 86, 0
3, 293280, Note_on_c, 0, 84, 115
3, 293760, Note_on_c, 0, 84, 0
3, 293760, Note_on_c, 0, 83, 115
3, 294720, Note_on_c, 0, 83, 0
3, 294720, Note_on_c, 0, 86, 115
3, 295200, Note_on_c, 0, 86, 0
3, 295200, Note_on_c, 0, 84, 115
3, 295680, Note_on_c, 0, 84, 0
3, 295680, Note_on_c, 0, 79, 115
3, 296160, Note_on_c, 0, 79, 0
3, 296160, Note_on_c, 0, 84, 115
3, 296640, Note_on_c, 0, 84, 0
3, 296640, Note_on_c, 0, 83, 115
3, 297600, Note_on_c, 0, 83, 0
3, 297600, Note_on_c, 0, 86, 115
3, 298080, Note_on_c, 0, 86, 0
3, 298080, Note_on_c, 0, 84, 115
3, 298560, Note_on_c, 0, 84, 0
3, 298560, Note_on_c, 0, 79, 115
3, 299040, Note_on_c, 0, 79, 0
3, 299040, Note_on_c, 0, 84, 115
3, 299520, Note_on_c, 0, 84, 0
3, 299520, Note_on_c, 0, 83, 115
3, 300480, Note_on_c, 0, 83, 0
3, 300480, Note_on_c, 0, 86, 115
3, 300960, Note_on_c, 0, 86, 0
3, 300960, Note_on_c, 0, 84, 115
3, 301440, Note_on_c, 0, 84, 0
3, 301440, Note_on_c, 0, 81, 115
3, 301920, Note_on_c, 0, 81, 0
3, 301920, Note_on_c, 0, 81, 115
3, 302400, Note_on_c, 0, 81, 0
3, 302400, Note_on_c, 0, 83, 115
3, 302880, Note_on_c, 0, 83, 0
3, 302880, Note_on_c, 0, 79, 115
3, 303360, Note_on_c, 0, 79, 0
3, 303360, Note_on_c, 0, 79, 115
3, 303840, Note_on_c, 0, 79, 0
3, 303840, Note_on_c, 0, 81, 115
3, 304320, Note_on_c, 0, 81, 0
3, 304320, Note_on_c, 0, 77, 115
3, 304800, Note_on_c, 0, 77, 0
3, 304800, Note_on_c, 0, 81, 115
3, 305280, Note_on_c, 0, 81, 0
3, 305280, Note_on_c, 0, 77, 115
3, 305760, Note_on_c, 0, 77, 0
3, 305760, Note_on_c, 0, 77, 115
3, 306240, Note_on_c, 0, 77, 0
3, 306240, Note_on_c, 0, 77, 115
3, 306720, Note_on_c, 0, 77, 0
3, 306720, Note_on_c, 0, 77, 115
3, 307200, Note_on_c, 0, 77, 0
3, 307200, Note_on_c, 0, 77, 115
3, 307680, Note_on_c, 0, 77, 0
3, 307680, Note_on_c, 0, 77, 115
3, 308160, Note_on_c, 0, 77, 0
3, 308160, Note_on_c, 0, 76, 115
3, 308640, Note_on_c, 0, 76, 0
3, 308880, Note_on_c, 0, 79, 115
3, 309120, Note_on_c, 0, 79, 0
3, 309120, Note_on_c, 0, 81, 115
3, 309360, Note_on_c, 0, 81, 0
3, 309360, Note_on_c, 0, 83, 115
3, 309600, Note_on_c, 0, 83, 0
3, 309600, Note_on_c, 0, 84, 115
3, 310080, Note_on_c, 0, 84, 0
3, 310320, Note_on_c, 0, 79, 115
3, 310560, Note_on_c, 0, 79, 0
3, 310560, Note_on_c, 0, 81, 115
3, 310800, Note_on_c, 0, 81, 0
3, 310800, Note_on_c, 0, 83, 115
3, 311040, Note_on_c, 0, 83, 0
3, 311040, Note_on_c, 0, 84, 115
3, 311520, Note_on_c, 0, 84, 0
3, 342240, Note_on_c, 0, 84, 78
3, 342720, Note_on_c, 0, 84, 0
3, 342720, Note_on_c, 0, 83, 78
3, 342960, Note_on_c, 0, 83, 0
3, 342960, Note_on_c, 0, 84, 78
3, 343200, Note_on_c, 0, 84, 0
3, 343200, Note_on_c, 0, 86, 78
3, 343440, Note_on_c, 0, 86, 0
3, 343440, Note_on_c, 0, 79, 78
3, 343680, Note_on_c, 0, 79, 0
3, 343680, Note_on_c, 0, 81, 78
3, 343920, Note_on_c, 0, 81, 0
3, 343920, Note_on_c, 0, 83, 78
3, 344160, Note_on_c, 0, 83, 0
3, 344160, Note_on_c, 0, 84, 78
3, 344400, Note_on_c, 0, 84, 0
3, 344400, Note_on_c, 0, 83, 78
3, 344640, Note_on_c, 0, 83, 0
3, 344640, Note_on_c, 0, 84, 78
3, 344880, Note_on_c, 0, 84, 0
3, 344880, Note_on_c, 0, 86, 78
3, 345120, Note_on_c, 0, 86, 0
3, 345120, Note_on_c, 0, 88, 78
3, 345360, Note_on_c, 0, 88, 0
3, 345360, Note_on_c, 0, 89, 78
3, 345600, Note_on_c, 0, 89, 0
3, 345600, Note_on_c, 0, 91, 78
3, 346560, Note_on_c, 0, 91, 0
3, 346560, Note_on_c, 0, 89, 78
3, 347040, Note_on_c, 0, 89, 0
3, 347040, Note_on_c, 0, 88, 78
3, 347520, Note_on_c, 0, 88, 0
3, 347520, Note_on_c, 0, 84, 78
3, 348000, Note_on_c, 0, 84, 0
3, 348000, Note_on_c, 0, 88, 78
3, 348480, Note_on_c, 0, 88, 0
3, 348480, Note_on_c, 0, 91, 78
3, 349440, Note_on_c, 0, 91, 0
3, 349440, Note_on_c, 0, 89, 78
3, 349920, Note_on_c, 0, 89, 0
3, 349920, Note_on_c, 0, 88, 78
3, 350400, Note_on_c, 0, 88, 0
3, 350400, Note_on_c, 0, 84, 78
3, 350880, Note_on_c, 0, 84, 0
3, 350880, Note_on_c, 0, 88, 78
3, 351360, Note_on_c, 0, 88, 0
3, 351360, Note_on_c, 0, 91, 78
3, 352320, Note_on_c, 0, 91, 0
3, 352320, Note_on_c, 0, 89, 78
3, 352800, Note_on_c, 0, 89, 0
3, 352800, Note_on_c, 0, 86, 78
3, 353280, Note_on_c, 0, 86, 0
3, 353280, Note_on_c, 0, 83, 78
3, 353760, Note_on_c, 0, 83, 0
3, 353760, Note_on_c, 0, 79, 78
3, 354240, Note_on_c, 0, 79, 0
3, 354240, Note_on_c, 0, 77, 78
3, 354720, Note_on_c, 0, 77, 0
3, 561600, Note_on_c, 0, 83, 91
3, 567360, Note_on_c, 0, 83, 0
3, 567360, End_track
4, 0, Start_track
4, 0, MIDI_port, 0
4, 0, Title_t, "Oboe 1"
4, 0, Program_c, 1, 68
4, 38880, Note_on_c, 1, 70, 115
4, 39360, Note_on_c, 1, 70, 0
4, 39360, Note_on_c, 1, 70, 115
4, 39840, Note_on_c, 1, 70, 0
4, 39840, Note_on_c, 1, 70, 115
4, 40320, Note_on_c, 1, 70, 0
4, 40320, Note_on_c, 1, 70, 115
4, 41760, Note_on_c, 1, 70, 0
4, 41760, Note_on_c, 1, 70, 115
4, 42240, Note_on_c, 1, 70, 0
4, 42240, Note_on_c, 1, 70, 115
4, 42720, Note_on_c, 1, 70, 0
4, 42720, Note_on_c, 1, 70, 115
4, 43200, Note_on_c, 1, 70, 0
4, 43200, Note_on_c, 1, 70, 115
4, 44640, Note_on_c, 1, 70, 0
4, 44640, Note_on_c, 1, 70, 115
4, 45120, Note_on_c, 1, 70, 0
4, 45120, Note_on_c, 1, 70, 115
4, 45600, Note_on_c, 1, 70, 0
4, 45600, Note_on_c, 1, 70, 115
4, 46080, Note_on_c, 1, 70, 0
4, 46080, Note_on_c, 1, 70, 115
4, 47520, Note_on_c, 1, 70, 0
4, 47520, Note_on_c, 1, 73, 115
4, 48000, Note_on_c, 1, 73, 0
4, 48000, Note_on_c, 1, 71, 115
4, 48480, Note_on_c, 1, 71, 0
4, 48480, Note_on_c, 1, 70, 115
4, 48960, Note_on_c, 1, 70, 0
4, 48960, Note_on_c, 1, 68, 115
4, 50400, Note_on_c, 1, 68, 0
4, 50400, Note_on_c, 1, 70, 115
4, 51840, Note_on_c, 1, 70, 0
4, 51840, Note_on_c, 1, 66, 115
4, 53280, Note_on_c, 1, 66, 0
4, 53280, Note_on_c, 1, 70, 115
4, 53760, Note_on_c, 1, 70, 0
4, 53760, Note_on_c, 1, 68, 115
4, 54240, Note_on_c, 1, 68, 0
4, 54240, Note_on_c, 1, 66, 115
4, 54720, Note_on_c, 1, 66, 0
4, 54720, Note_on_c, 1, 65, 115
4, 57120, Note_on_c, 1, 65, 0
4, 57120, Note_on_c, 1, 66, 115
4, 57600, Note_on_c, 1, 66, 0
4, 57600, Note_on_c, 1, 65, 115
4, 60000, Note_on_c, 1, 65, 0
4, 60000, Note_on_c, 1, 66, 115
4, 60480, Note_on_c, 1, 66, 0
4, 60480, Note_on_c, 1, 65, 115
4, 61440, Note_on_c, 1, 65, 0
4, 61440, Note_on_c, 1, 66, 115
4, 61920, Note_on_c, 1, 66, 0
4, 61920, Note_on_c, 1, 65, 115
4, 62880, Note_on_c, 1, 65, 0
4, 62880, Note_on_c, 1, 66, 115
4, 63360, Note_on_c, 1, 66, 0
4, 63360, Note_on_c, 1, 65, 115
4, 65280, Note_on_c, 1, 65, 0
4, 73440, Note_on_c, 1, 72, 91
4, 74400, Note_on_c, 1, 72, 0
4, 74400, Note_on_c, 1, 70, 91
4, 74880, Note_on_c, 1, 70, 0
4, 74880, Note_on_c, 1, 69, 91
4, 75840, Note_on_c, 1, 69, 0
4, 86400, Note_on_c, 1, 67, 78
4, 90720, Note_on_c, 1, 67, 0
4, 90720, Note_on_c, 1, 67, 78
4, 96480, Note_on_c, 1, 67, 0
4, 96480, Note_on_c, 1, 67, 78
4, 96960, Note_on_c, 1, 67, 0
4, 97920, Note_on_c, 1, 67, 91
4, 98400, Note_on_c, 1, 67, 0
4, 99360, Note_on_c, 1, 67, 101
4, 99840, Note_on_c, 1, 67, 0
4, 100800, Note_on_c, 1, 67, 109
4, 101280, Note_on_c, 1, 67, 0
4, 102240, Note_on_c, 1, 62, 115
4, 103680, Note_on_c, 1, 62, 0
4, 103680, Note_on_c, 1, 63, 115
4, 105120, Note_on_c, 1, 63, 0
4, 105120, Note_on_c, 1, 62, 115
4, 106560, Note_on_c, 1, 62, 0
4, 106560, Note_on_c, 1, 60, 115
4, 108000, Note_on_c, 1, 60, 0
4, 108000, Note_on_c, 1, 62, 115
4, 109440, Note_on_c, 1, 62, 0
4, 109440, Note_on_c, 1, 63, 115
4, 110880, Note_on_c, 1, 63, 0
4, 110880, Note_on_c, 1, 65, 115
4, 112320, Note_on_c, 1, 65, 0
4, 112320, Note_on_c, 1, 58, 115
4, 112800, Note_on_c, 1, 58, 0
4, 113760, Note_on_c, 1, 72, 123
4, 114240, Note_on_c, 1, 72, 0
4, 114240, Note_on_c, 1, 72, 123
4, 114720, Note_on_c, 1, 72, 0
4, 114720, Note_on_c, 1, 72, 123
4, 115200, Note_on_c, 1, 72, 0
4, 115200, Note_on_c, 1, 72, 123
4, 116640, Note_on_c, 1, 72, 0
4, 116640, Note_on_c, 1, 72, 123
4, 117120, Note_on_c, 1, 72, 0
4, 117120, Note_on_c, 1, 72, 123
4, 117600, Note_on_c, 1, 72, 0
4, 117600, Note_on_c, 1, 72, 123
4, 118080, Note_on_c, 1, 72, 0
4, 118080, Note_on_c, 1, 72, 123
4, 119520, Note_on_c, 1, 72, 0
4, 119520, Note_on_c, 1, 72, 123
4, 120000, Note_on_c, 1, 72, 0
4, 120000, Note_on_c, 1, 72, 123
4, 120480, Note_on_c, 1, 72, 0
4, 120480, Note_on_c, 1, 72, 123
4, 120960, Note_on_c, 1, 72, 0
4, 120960, Note_on_c, 1, 72, 123
4, 122400, Note_on_c, 1, 72, 0
4, 122400, Note_on_c, 1, 72, 123
4, 122880, Note_on_c, 1, 72, 0
4, 122880, Note_on_c, 1, 70, 123
4, 123360, Note_on_c, 1, 70, 0
4, 123360, Note_on_c, 1, 68, 123
4, 123840, Note_on_c, 1, 68, 0
4, 123840, Note_on_c, 1, 67, 123
4, 125280, Note_on_c, 1, 67, 0
4, 125280, Note_on_c, 1, 68, 123
4, 126720, Note_on_c, 1, 68, 0
4, 126720, Note_on_c, 1, 65, 123
4, 128160, Note_on_c, 1, 65, 0
4, 128160, Note_on_c, 1, 68, 123
4, 128640, Note_on_c, 1, 68, 0
4, 128640, Note_on_c, 1, 67, 123
4, 129120, Note_on_c, 1, 67, 0
4, 129120, Note_on_c, 1, 65, 123
4, 129600, Note_on_c, 1, 65, 0
4, 129600, Note_on_c, 1, 64, 123
4, 130560, Note_on_c, 1, 64, 0
4, 130560, Note_on_c, 1, 61, 123
4, 131040, Note_on_c, 1, 61, 0
4, 131040, Note_on_c, 1, 60, 123
4, 133440, Note_on_c, 1, 60, 0
4, 133440, Note_on_c, 1, 61, 123
4, 133920, Note_on_c, 1, 61, 0
4, 133920, Note_on_c, 1, 60, 123
4, 135360, Note_on_c, 1, 60, 0
4, 135360, Note_on_c, 1, 60, 123
4, 136800, Note_on_c, 1, 60, 0
4, 136800, Note_on_c, 1, 60, 123
4, 138240, Note_on_c, 1, 60, 0
4, 138240, Note_on_c, 1, 60, 115
4, 140160, Note_on_c, 1, 60, 0
4, 145440, Note_on_c, 1, 55, 91
4, 146400, Note_on_c, 1, 55, 0
4, 146400, Note_on_c, 1, 59, 91
4, 146880, Note_on_c, 1, 59, 0
4, 146880, Note_on_c, 1, 60, 91
4, 147840, Note_on_c, 1, 60, 0
4, 147840, Note_on_c, 1, 62, 91
4, 148320, Note_on_c, 1, 62, 0
4, 148320, Note_on_c, 1, 65, 91
4, 149280, Note_on_c, 1, 65, 0
4, 149280, Note_on_c, 1, 63, 91
4, 149760, Note_on_c, 1, 63, 0
4, 149760, Note_on_c, 1, 62, 91
4, 150240, Note_on_c, 1, 62, 0
4, 151200, Note_on_c, 1, 55, 91
4, 152160, Note_on_c, 1, 55, 0
4, 152160, Note_on_c, 1, 59, 91
4, 152640, Note_on_c, 1, 59, 0
4, 152640, Note_on_c, 1, 60, 91
4, 153600, Note_on_c, 1, 60, 0
4, 153600, Note_on_c, 1, 63, 91
4, 154080, Note_on_c, 1, 63, 0
4, 154080, Note_on_c, 1, 67, 91
4, 155040, Note_on_c, 1, 67, 0
4, 155040, Note_on_c, 1, 65, 91
4, 155520, Note_on_c, 1, 65, 0
4, 155520, Note_on_c, 1, 63, 91
4, 156000, Note_on_c, 1, 63, 0
4, 159840, Note_on_c, 1, 68, 91
4, 160320, Note_on_c, 1, 68, 0
4, 160320, Note_on_c, 1, 68, 91
4, 160800, Note_on_c, 1, 68, 0
4, 160800, Note_on_c, 1, 68, 91
4, 161280, Note_on_c, 1, 68, 0
4, 161280, Note_on_c, 1, 68, 91
4, 161760, Note_on_c, 1, 68, 0
4, 162720, Note_on_c, 1, 68, 91
4, 163200, Note_on_c, 1, 68, 0
4, 163200, Note_on_c, 1, 68, 91
4, 163680, Note_on_c, 1, 68, 0
4, 163680, Note_on_c, 1, 68, 91
4, 164160, Note_on_c, 1, 68, 0
4, 164160, Note_on_c, 1, 68, 91
4, 164640, Note_on_c, 1, 68, 0
4, 165120, Note_on_c, 1, 65, 78
4, 165600, Note_on_c, 1, 65, 0
4, 166560, Note_on_c, 1, 65, 91
4, 167040, Note_on_c, 1, 65, 0
4, 168000, Note_on_c, 1, 65, 91
4, 168480, Note_on_c, 1, 65, 0
4, 169440, Note_on_c, 1, 65, 91
4, 169920, Note_on_c, 1, 65, 0
4, 170880, Note_on_c, 1, 65, 91
4, 171360, Note_on_c, 1, 65, 0
4, 172320, Note_on_c, 1, 65, 91
4, 172800, Note_on_c, 1, 65, 0
4, 173760, Note_on_c, 1, 65, 91
4, 174240, Note_on_c, 1, 65, 0
4, 175200, Note_on_c, 1, 65, 91
4, 175680, Note_on_c, 1, 65, 0
4, 176640, Note_on_c, 1, 65, 91
4, 177120, Note_on_c, 1, 65, 0
4, 178080, Note_on_c, 1, 65, 91
4, 178560, Note_on_c, 1, 65, 0
4, 179520, Note_on_c, 1, 63, 91
4, 180000, Note_on_c, 1, 63, 0
4, 180960, Note_on_c, 1, 65, 91
4, 181440, Note_on_c, 1, 65, 0
4, 182400, Note_on_c, 1, 62, 101
4, 182880, Note_on_c, 1, 62, 0
4, 183840, Note_on_c, 1, 63, 101
4, 184320, Note_on_c, 1, 63, 0
4, 185280, Note_on_c, 1, 63, 109
4, 185760, Note_on_c, 1, 63, 0
4, 186720, Note_on_c, 1, 63, 109
4, 187200, Note_on_c, 1, 63, 0
4, 188160, Note_on_c, 1, 63, 115
4, 188640, Note_on_c, 1, 63, 0
4, 188640, Note_on_c, 1, 67, 115
4, 189120, Note_on_c, 1, 67, 0
4, 189120, Note_on_c, 1, 67, 115
4, 189600, Note_on_c, 1, 67, 0
4, 189600, Note_on_c, 1, 67, 115
4, 190080, Note_on_c, 1, 67, 0
4, 190080, Note_on_c, 1, 63, 115
4, 190560, Note_on_c, 1, 63, 0
4, 191520, Note_on_c, 1, 67, 123
4, 192000, Note_on_c, 1, 67, 0
4, 192000, Note_on_c, 1, 67, 123
4, 192480, Note_on_c, 1, 67, 0
4, 192480, Note_on_c, 1, 67, 123
4, 192960, Note_on_c, 1, 67, 0
4, 192960, Note_on_c, 1, 67, 123
4, 194400, Note_on_c, 1, 67, 0
4, 194400, Note_on_c, 1, 67, 123
4, 194880, Note_on_c, 1, 67, 0
4, 194880, Note_on_c, 1, 67, 123
4, 195360, Note_on_c, 1, 67, 0
4, 195360, Note_on_c, 1, 67, 123
4, 195840, Note_on_c, 1, 67, 0
4, 195840, Note_on_c, 1, 67, 123
4, 197280, Note_on_c, 1, 67, 0
4, 197280, Note_on_c, 1, 72, 91
4, 197760, Note_on_c, 1, 72, 0
4, 197760, Note_on_c, 1, 72, 91
4, 198240, Note_on_c, 1, 72, 0
4, 198240, Note_on_c, 1, 72, 91
4, 198720, Note_on_c, 1, 72, 0
4, 198720, Note_on_c, 1, 72, 91
4, 199200, Note_on_c, 1, 72, 0
4, 200160, Note_on_c, 1, 67, 91
4, 200640, Note_on_c, 1, 67, 0
4, 201600, Note_on_c, 1, 60, 91
4, 202080, Note_on_c, 1, 60, 0
4, 224640, Note_on_c, 1, 67, 115
4, 226080, Note_on_c, 1, 67, 0
4, 226080, Note_on_c, 1, 66, 115
4, 227040, Note_on_c, 1, 66, 0
4, 227040, Note_on_c, 1, 67, 115
4, 227280, Note_on_c, 1, 67, 0
4, 227280, Note_on_c, 1, 69, 115
4, 227520, Note_on_c, 1, 69, 0
4, 227520, Note_on_c, 1, 71, 115
4, 228000, Note_on_c, 1, 71, 0
4, 228960, Note_on_c, 1, 71, 115
4, 229440, Note_on_c, 1, 71, 0
4, 230400, Note_on_c, 1, 71, 115
4, 230880, Note_on_c, 1, 71, 0
4, 253440, Note_on_c, 1, 67, 115
4, 254880, Note_on_c, 1, 67, 0
4, 254880, Note_on_c, 1, 66, 115
4, 255840, Note_on_c, 1, 66, 0
4, 255840, Note_on_c, 1, 67, 115
4, 256080, Note_on_c, 1, 67, 0
4, 256080, Note_on_c, 1, 69, 115
4, 256320, Note_on_c, 1, 69, 0
4, 256320, Note_on_c, 1, 71, 115
4, 256800, Note_on_c, 1, 71, 0
4, 257760, Note_on_c, 1, 71, 115
4, 258240, Note_on_c, 1, 71, 0
4, 259200, Note_on_c, 1, 71, 115
4, 259680, Note_on_c, 1, 71, 0
4, 287520, Note_on_c, 1, 70, 115
4, 288480, Note_on_c, 1, 70, 0
4, 288480, Note_on_c, 1, 60, 115
4, 288960, Note_on_c, 1, 60, 0
4, 288960, Note_on_c, 1, 70, 115
4, 289920, Note_on_c, 1, 70, 0
4, 289920, Note_on_c, 1, 69, 115
4, 290400, Note_on_c, 1, 69, 0
4, 290400, Note_on_c, 1, 60, 115
4, 290880, Note_on_c, 1, 60, 0
4, 290880, Note_on_c, 1, 59, 115
4, 291120, Note_on_c, 1, 59, 0
4, 291120, Note_on_c, 1, 60, 115
4, 291360, Note_on_c, 1, 60, 0
4, 291360, Note_on_c, 1, 62, 115
4, 291600, Note_on_c, 1, 62, 0
4, 291600, Note_on_c, 1, 55, 115
4, 291840, Note_on_c, 1, 55, 0
4, 291840, Note_on_c, 1, 57, 115
4, 292080, Note_on_c, 1, 57, 0
4, 292080, Note_on_c, 1, 59, 115
4, 292320, Note_on_c, 1, 59, 0
4, 292320, Note_on_c, 1, 60, 115
4, 292560, Note_on_c, 1, 60, 0
4, 292560, Note_on_c, 1, 59, 115
4, 292800, Note_on_c, 1, 59, 0
4, 292800, Note_on_c, 1, 60, 115
4, 293040, Note_on_c, 1, 60, 0
4, 293040, Note_on_c, 1, 62, 115
4, 293280, Note_on_c, 1, 62, 0
4, 293280, Note_on_c, 1, 64, 115
4, 293520, Note_on_c, 1, 64, 0
4, 293520, Note_on_c, 1, 65, 115
4, 293760, Note_on_c, 1, 65, 0
4, 293760, Note_on_c, 1, 67, 115
4, 294720, Note_on_c, 1, 67, 0
4, 294720, Note_on_c, 1, 65, 115
4, 295200, Note_on_c, 1, 65, 0
4, 295200, Note_on_c, 1, 64, 115
4, 295680, Note_on_c, 1, 64, 0
4, 295680, Note_on_c, 1, 60, 115
4, 296160, Note_on_c, 1, 60, 0
4, 296160, Note_on_c, 1, 64, 115
4, 296640, Note_on_c, 1, 64, 0
4, 296640, Note_on_c, 1, 67, 115
4, 297600, Note_on_c, 1, 67, 0
4, 297600, Note_on_c, 1, 65, 115
4, 298080, Note_on_c, 1, 65, 0
4, 298080, Note_on_c, 1, 64, 115
4, 298560, Note_on_c, 1, 64, 0
4, 298560, Note_on_c, 1, 60, 115
4, 299040, Note_on_c, 1, 60, 0
4, 299040, Note_on_c, 1, 64, 115
4, 299520, Note_on_c, 1, 64, 0
4, 299520, Note_on_c, 1, 67, 115
4, 300480, Note_on_c, 1, 67, 0
4, 300480, Note_on_c, 1, 65, 115
4, 300960, Note_on_c, 1, 65, 0
4, 300960, Note_on_c, 1, 64, 115
4, 301440, Note_on_c, 1, 64, 0
4, 301440, Note_on_c, 1, 60, 115
4, 301920, Note_on_c, 1, 60, 0
4, 301920, Note_on_c, 1, 65, 115
4, 302400, Note_on_c, 1, 65, 0
4, 302400, Note_on_c, 1, 62, 115
4, 302880, Note_on_c, 1, 62, 0
4, 302880, Note_on_c, 1, 59, 115
4, 303360, Note_on_c, 1, 59, 0
4, 303360, Note_on_c, 1, 64, 115
4, 303840, Note_on_c, 1, 64, 0
4, 303840, Note_on_c, 1, 60, 115
4, 304320, Note_on_c, 1, 60, 0
4, 304320, Note_on_c, 1, 69, 115
4, 304800, Note_on_c, 1, 69, 0
4, 304800, Note_on_c, 1, 74, 115
4, 305280, Note_on_c, 1, 74, 0
4, 305280, Note_on_c, 1, 71, 115
4, 305760, Note_on_c, 1, 71, 0
4, 305760, Note_on_c, 1, 67, 115
4, 306240, Note_on_c, 1, 67, 0
4, 306240, Note_on_c, 1, 74, 115
4, 306720, Note_on_c, 1, 74, 0
4, 306720, Note_on_c, 1, 71, 115
4, 307200, Note_on_c, 1, 71, 0
4, 307200, Note_on_c, 1, 67, 115
4, 307680, Note_on_c, 1, 67, 0
4, 307680, Note_on_c, 1, 71, 115
4, 308160, Note_on_c, 1, 71, 0
4, 308160, Note_on_c, 1, 72, 115
4, 308640, Note_on_c, 1, 72, 0
4, 309600, Note_on_c, 1, 72, 115
4, 310080, Note_on_c, 1, 72, 0
4, 311040, Note_on_c, 1, 72, 115
4, 311520, Note_on_c, 1, 72, 0
4, 336480, Note_on_c, 1, 60, 78
4, 336960, Note_on_c, 1, 60, 0
4, 336960, Note_on_c, 1, 59, 78
4, 338400, Note_on_c, 1, 59, 0
4, 338400, Note_on_c, 1, 60, 78
4, 339840, Note_on_c, 1, 60, 0
4, 339840, Note_on_c, 1, 64, 78
4, 341280, Note_on_c, 1, 64, 0
4, 341280, Note_on_c, 1, 65, 78
4, 342240, Note_on_c, 1, 65, 0
4, 342240, Note_on_c, 1, 69, 78
4, 342720, Note_on_c, 1, 69, 0
4, 342720, Note_on_c, 1, 65, 78
4, 344160, Note_on_c, 1, 65, 0
4, 344160, Note_on_c, 1, 64, 78
4, 345600, Note_on_c, 1, 64, 0
4, 345600, Note_on_c, 1, 62, 78
4, 347040, Note_on_c, 1, 62, 0
4, 347040, Note_on_c, 1, 64, 78
4, 348480, Note_on_c, 1, 64, 0
4, 348480, Note_on_c, 1, 62, 78
4, 349920, Note_on_c, 1, 62, 0
4, 349920, Note_on_c, 1, 64, 78
4, 351360, Note_on_c, 1, 64, 0
4, 351360, Note_on_c, 1, 62, 78
4, 351840, Note_on_c, 1, 62, 0
4, 353760, Note_on_c, 1, 67, 78
4, 354240, Note_on_c, 1, 67, 0
4, 354240, Note_on_c, 1, 65, 78
4, 354720, Note_on_c, 1, 65, 0
4, 354720, Note_on_c, 1, 62, 78
4, 355200, Note_on_c, 1, 62, 0
4, 355200, Note_on_c, 1, 59, 78
4, 355680, Note_on_c, 1, 59, 0
4, 355680, Note_on_c, 1, 55, 78
4, 356160, Note_on_c, 1, 55, 0
4, 407520, Note_on_c, 1, 72, 78
4, 408000, Note_on_c, 1, 72, 0
4, 408000, Note_on_c, 1, 72, 78
4, 408480, Note_on_c, 1, 72, 0
4, 408480, Note_on_c, 1, 72, 78
4, 408960, Note_on_c, 1, 72, 0
4, 408960, Note_on_c, 1, 72, 78
4, 409440, Note_on_c, 1, 72, 0
4, 410400, Note_on_c, 1, 72, 78
4, 410880, Note_on_c, 1, 72, 0
4, 410880, Note_on_c, 1, 72, 78
4, 411360, Note_on_c, 1, 72, 0
4, 411360, Note_on_c, 1, 72, 78
4, 411840, Note_on_c, 1, 72, 0
4, 411840, Note_on_c, 1, 72, 78
4, 412320, Note_on_c, 1, 72, 0
4, 442080, Note_on_c, 1, 67, 91
4, 442560, Note_on_c, 1, 67, 0
4, 442560, Note_on_c, 1, 67, 91
4, 443040, Note_on_c, 1, 67, 0
4, 443040, Note_on_c, 1, 67, 91
4, 443520, Note_on_c, 1, 67, 0
4, 443520, Note_on_c, 1, 67, 91
4, 444000, Note_on_c, 1, 67, 0
4, 447840, Note_on_c, 1, 67, 91
4, 448320, Note_on_c, 1, 67, 0
4, 448320, Note_on_c, 1, 67, 91
4, 448800, Note_on_c, 1, 67, 0
4, 448800, Note_on_c, 1, 67, 91
4, 449280, Note_on_c, 1, 67, 0
4, 449280, Note_on_c, 1, 67, 91
4, 449760, Note_on_c, 1, 67, 0
4, 557280, Note_on_c, 1, 65, 78
4, 561600, Note_on_c, 1, 65, 0
4, 561600, Note_on_c, 1, 65, 91
4, 567360, Note_on_c, 1, 65, 0
4, 567360, End_track
5, 0, Start_track
5, 0, MIDI_port, 0
5, 0, Title_t, "Oboe 2"
5, 38880, Note_on_c, 1, 58, 115
5, 39360, Note_on_c, 1, 58, 0
5, 39360, Note_on_c, 1, 58, 115
5, 39840, Note_on_c, 1, 58, 0
5, 39840, Note_on_c, 1, 58, 115
5, 40320, Note_on_c, 1, 58, 0
5, 40320, Note_on_c, 1, 58, 115
5, 41760, Note_on_c, 1, 58, 0
5, 41760, Note_on_c, 1, 58, 115
5, 42240, Note_on_c, 1, 58, 0
5, 42240, Note_on_c, 1, 58, 115
5, 42720, Note_on_c, 1, 58, 0
5, 42720, Note_on_c, 1, 58, 115
5, 43200, Note_on_c, 1, 58, 0
5, 43200, Note_on_c, 1, 58, 115
5, 44640, Note_on_c, 1, 58, 0
5, 44640, Note_on_c, 1, 58, 115
5, 45120, Note_on_c, 1, 58, 0
5, 45120, Note_on_c, 1, 58, 115
5, 45600, Note_on_c, 1, 58, 0
5, 45600, Note_on_c, 1, 58, 115
5, 46080, Note_on_c, 1, 58, 0
5, 46080, Note_on_c, 1, 66, 115
5, 47520, Note_on_c, 1, 66, 0
5, 47520, Note_on_c, 1, 70, 115
5, 48000, Note_on_c, 1, 70, 0
5, 48000, Note_on_c, 1, 68, 115
5, 48480, Note_on_c, 1, 68, 0
5, 48480, Note_on_c, 1, 66, 115
5, 48960, Note_on_c, 1, 66, 0
5, 48960, Note_on_c, 1, 65, 115
5, 50400, Note_on_c, 1, 65, 0
5, 50400, Note_on_c, 1, 66, 115
5, 51840, Note_on_c, 1, 66, 0
5, 51840, Note_on_c, 1, 63, 115
5, 53280, Note_on_c, 1, 63, 0
5, 53280, Note_on_c, 1, 66, 115
5, 53760, Note_on_c, 1, 66, 0
5, 53760, Note_on_c, 1, 65, 115
5, 54240, Note_on_c, 1, 65, 0
5, 54240, Note_on_c, 1, 63, 115
5, 54720, Note_on_c, 1, 63, 0
5, 54720, Note_on_c, 1, 62, 115
5, 57120, Note_on_c, 1, 62, 0
5, 57120, Note_on_c, 1, 63, 115
5, 57600, Note_on_c, 1, 63, 0
5, 57600, Note_on_c, 1, 62, 115
5, 60000, Note_on_c, 1, 62, 0
5, 60000, Note_on_c, 1, 63, 115
5, 60480, Note_on_c, 1, 63, 0
5, 60480, Note_on_c, 1, 62, 115
5, 61440, Note_on_c, 1, 62, 0
5, 61440, Note_on_c, 1, 63, 115
5, 61920, Note_on_c, 1, 63, 0
5, 61920, Note_on_c, 1, 62, 115
5, 62880, Note_on_c, 1, 62, 0
5, 62880, Note_on_c, 1, 63, 115
5, 63360, Note_on_c, 1, 63, 0
5, 63360, Note_on_c, 1, 62, 115
5, 65280, Note_on_c, 1, 62, 0
5, 73440, Note_on_c, 1, 72, 91
5, 74400, Note_on_c, 1, 72, 0
5, 74400, Note_on_c, 1, 70, 91
5, 74880, Note_on_c, 1, 70, 0
5, 74880, Note_on_c, 1, 69, 91
5, 75840, Note_on_c, 1, 69, 0
5, 86400, Note_on_c, 1, 67, 78
5, 92160, Note_on_c, 1, 67, 0
5, 92160, Note_on_c, 1, 67, 78
5, 96480, Note_on_c, 1, 67, 0
5, 96480, Note_on_c, 1, 67, 78
5, 96960, Note_on_c, 1, 67, 0
5, 97920, Note_on_c, 1, 67, 91
5, 98400, Note_on_c, 1, 67, 0
5, 99360, Note_on_c, 1, 67, 101
5, 99840, Note_on_c, 1, 67, 0
5, 100800, Note_on_c, 1, 67, 109
5, 101280, Note_on_c, 1, 67, 0
5, 102240, Note_on_c, 1, 62, 115
5, 103680, Note_on_c, 1, 62, 0
5, 103680, Note_on_c, 1, 63, 115
5, 105120, Note_on_c, 1, 63, 0
5, 105120, Note_on_c, 1, 62, 115
5, 106560, Note_on_c, 1, 62, 0
5, 106560, Note_on_c, 1, 60, 115
5, 108000, Note_on_c, 1, 60, 0
5, 108000, Note_on_c, 1, 62, 115
5, 109440, Note_on_c, 1, 62, 0
5, 109440, Note_on_c, 1, 63, 115
5, 110880, Note_on_c, 1, 63, 0
5, 110880, Note_on_c, 1, 65, 115
5, 112320, Note_on_c, 1, 65, 0
5, 112320, Note_on_c, 1, 58, 115
5, 112800, Note_on_c, 1, 58, 0
5, 113760, Note_on_c, 1, 60, 123
5, 114240, Note_on_c, 1, 60, 0
5, 114240, Note_on_c, 1, 60, 123
5, 114720, Note_on_c, 1, 60, 0
5, 114720, Note_on_c, 1, 60, 123
5, 115200, Note_on_c, 1, 60, 0
5, 115200, Note_on_c, 1, 60, 123
5, 116640, Note_on_c, 1, 60, 0
5, 116640, Note_on_c, 1, 60, 123
5, 117120, Note_on_c, 1, 60, 0
5, 117120, Note_on_c, 1, 60, 123
5, 117600, Note_on_c, 1, 60, 0
5, 117600, Note_on_c, 1, 60, 123
5, 118080, Note_on_c, 1, 60, 0
5, 118080, Note_on_c, 1, 60, 123
5, 119520, Note_on_c, 1, 60, 0
5, 119520, Note_on_c, 1, 60, 123
5, 120000, Note_on_c, 1, 60, 0
5, 120000, Note_on_c, 1, 60, 123
5, 120480, Note_on_c, 1, 60, 0
5, 120480, Note_on_c, 1, 60, 123
5, 120960, Note_on_c, 1, 60, 0
5, 120960, Note_on_c, 1, 60, 123
5, 122400, Note_on_c, 1, 60, 0
5, 122400, Note_on_c, 1, 63, 123
5, 122880, Note_on_c, 1, 63, 0
5, 122880, Note_on_c, 1, 61, 123
5, 123360, Note_on_c, 1, 61, 0
5, 123360, Note_on_c, 1, 60, 123
5, 123840, Note_on_c, 1, 60, 0
5, 123840, Note_on_c, 1, 58, 123
5, 125280, Note_on_c, 1, 58, 0
5, 125280, Note_on_c, 1, 60, 123
5, 126720, Note_on_c, 1, 60, 0
5, 126720, Note_on_c, 1, 56, 123
5, 128160, Note_on_c, 1, 56, 0
5, 128160, Note_on_c, 1, 60, 123
5, 128640, Note_on_c, 1, 60, 0
5, 128640, Note_on_c, 1, 58, 123
5, 129120, Note_on_c, 1, 58, 0
5, 129120, Note_on_c, 1, 56, 123
5, 129600, Note_on_c, 1, 56, 0
5, 129600, Note_on_c, 1, 55, 123
5, 130560, Note_on_c, 1, 55, 0
5, 130560, Note_on_c, 1, 61, 123
5, 131040, Note_on_c, 1, 61, 0
5, 131040, Note_on_c, 1, 60, 123
5, 133440, Note_on_c, 1, 60, 0
5, 133440, Note_on_c, 1, 61, 123
5, 133920, Note_on_c, 1, 61, 0
5, 133920, Note_on_c, 1, 60, 123
5, 135360, Note_on_c, 1, 60, 0
5, 135360, Note_on_c, 1, 60, 123
5, 136800, Note_on_c, 1, 60, 0
5, 136800, Note_on_c, 1, 60, 123
5, 138240, Note_on_c, 1, 60, 0
5, 138240, Note_on_c, 1, 60, 115
5, 140160, Note_on_c, 1, 60, 0
5, 145440, Note_on_c, 1, 55, 91
5, 146400, Note_on_c, 1, 55, 0
5, 146400, Note_on_c, 1, 59, 91
5, 146880, Note_on_c, 1, 59, 0
5, 146880, Note_on_c, 1, 60, 91
5, 147840, Note_on_c, 1, 60, 0
5, 147840, Note_on_c, 1, 62, 91
5, 148320, Note_on_c, 1, 62, 0
5, 148320, Note_on_c, 1, 65, 91
5, 149280, Note_on_c, 1, 65, 0
5, 149280, Note_on_c, 1, 63, 91
5, 149760, Note_on_c, 1, 63, 0
5, 149760, Note_on_c, 1, 62, 91
5, 150240, Note_on_c, 1, 62, 0
5, 151200, Note_on_c, 1, 55, 91
5, 152160, Note_on_c, 1, 55, 0
5, 152160, Note_on_c, 1, 59, 91
5, 152640, Note_on_c, 1, 59, 0
5, 152640, Note_on_c, 1, 60, 91
5, 153600, Note_on_c, 1, 60, 0
5, 153600, Note_on_c, 1, 63, 91
5, 154080, Note_on_c, 1, 63, 0
5, 154080, Note_on_c, 1, 67, 91
5, 155040, Note_on_c, 1, 67, 0
5, 155040, Note_on_c, 1, 65, 91
5, 155520, Note_on_c, 1, 65, 0
5, 155520, Note_on_c, 1, 63, 91
5, 156000, Note_on_c, 1, 63, 0
5, 159840, Note_on_c, 1, 68, 91
5, 160320, Note_on_c, 1, 68, 0
5, 160320, Note_on_c, 1, 68, 91
5, 160800, Note_on_c, 1, 68, 0
5, 160800, Note_on_c, 1, 68, 91
5, 161280, Note_on_c, 1, 68, 0
5, 161280, Note_on_c, 1, 68, 91
5, 161760, Note_on_c, 1, 68, 0
5, 162720, Note_on_c, 1, 68, 91
5, 163200, Note_on_c, 1, 68, 0
5, 163200, Note_on_c, 1, 68, 91
5, 163680, Note_on_c, 1, 68, 0
5, 163680, Note_on_c, 1, 68, 91
5, 164160, Note_on_c, 1, 68, 0
5, 164160, Note_on_c, 1, 68, 91
5, 164640, Note_on_c, 1, 68, 0
5, 165120, Note_on_c, 1, 62, 78
5, 165600, Note_on_c, 1, 62, 0
5, 166560, Note_on_c, 1, 62, 91
5, 167040, Note_on_c, 1, 62, 0
5, 168000, Note_on_c, 1, 60, 91
5, 168480, Note_on_c, 1, 60, 0
5, 169440, Note_on_c, 1, 62, 91
5, 169920, Note_on_c, 1, 62, 0
5, 170880, Note_on_c, 1, 60, 91
5, 171360, Note_on_c, 1, 60, 0
5, 172320, Note_on_c, 1, 62, 91
5, 172800, Note_on_c, 1, 62, 0
5, 173760, Note_on_c, 1, 60, 91
5, 174240, Note_on_c, 1, 60, 0
5, 175200, Note_on_c, 1, 62, 91
5, 175680, Note_on_c, 1, 62, 0
5, 176640, Note_on_c, 1, 60, 91
5, 177120, Note_on_c, 1, 60, 0
5, 178080, Note_on_c, 1, 62, 91
5, 178560, Note_on_c, 1, 62, 0
5, 179520, Note_on_c, 1, 60, 91
5, 180000, Note_on_c, 1, 60, 0
5, 180960, Note_on_c, 1, 60, 91
5, 181440, Note_on_c, 1, 60, 0
5, 182400, Note_on_c, 1, 59, 101
5, 182880, Note_on_c, 1, 59, 0
5, 183840, Note_on_c, 1, 60, 101
5, 184320, Note_on_c, 1, 60, 0
5, 185280, Note_on_c, 1, 60, 109
5, 185760, Note_on_c, 1, 60, 0
5, 186720, Note_on_c, 1, 60, 109
5, 187200, Note_on_c, 1, 60, 0
5, 188160, Note_on_c, 1, 60, 115
5, 188640, Note_on_c, 1, 60, 0
5, 188640, Note_on_c, 1, 60, 115
5, 189120, Note_on_c, 1, 60, 0
5, 189120, Note_on_c, 1, 60, 115
5, 189600, Note_on_c, 1, 60, 0
5, 189600, Note_on_c, 1, 59, 115
5, 190080, Note_on_c, 1, 59, 0
5, 190080, Note_on_c, 1, 60, 115
5, 190560, Note_on_c, 1, 60, 0
5, 191520, Note_on_c, 1, 55, 123
5, 192000, Note_on_c, 1, 55, 0
5, 192000, Note_on_c, 1, 55, 123
5, 192480, Note_on_c, 1, 55, 0
5, 192480, Note_on_c, 1, 55, 123
5, 192960, Note_on_c, 1, 55, 0
5, 192960, Note_on_c, 1, 55, 123
5, 194400, Note_on_c, 1, 55, 0
5, 194400, Note_on_c, 1, 55, 123
5, 194880, Note_on_c, 1, 55, 0
5, 194880, Note_on_c, 1, 55, 123
5, 195360, Note_on_c, 1, 55, 0
5, 195360, Note_on_c, 1, 55, 123
5, 195840, Note_on_c, 1, 55, 0
5, 195840, Note_on_c, 1, 55, 123
5, 197280, Note_on_c, 1, 55, 0
5, 197280, Note_on_c, 1, 72, 91
5, 197760, Note_on_c, 1, 72, 0
5, 197760, Note_on_c, 1, 72, 91
5, 198240, Note_on_c, 1, 72, 0
5, 198240, Note_on_c, 1, 72, 91
5, 198720, Note_on_c, 1, 72, 0
5, 198720, Note_on_c, 1, 72, 91
5, 199200, Note_on_c, 1, 72, 0
5, 200160, Note_on_c, 1, 67, 91
5, 200640, Note_on_c, 1, 67, 0
5, 201600, Note_on_c, 1, 60, 91
5, 202080, Note_on_c, 1, 60, 0
5, 224640, Note_on_c, 1, 55, 115
5, 226080, Note_on_c, 1, 55, 0
5, 226080, Note_on_c, 1, 62, 115
5, 227040, Note_on_c, 1, 62, 0
5, 227040, Note_on_c, 1, 64, 115
5, 227280, Note_on_c, 1, 64, 0
5, 227280, Note_on_c, 1, 66, 115
5, 227520, Note_on_c, 1, 66, 0
5, 227520, Note_on_c, 1, 67, 115
5, 228000, Note_on_c, 1, 67, 0
5, 228960, Note_on_c, 1, 67, 115
5, 229440, Note_on_c, 1, 67, 0
5, 230400, Note_on_c, 1, 67, 115
5, 230880, Note_on_c, 1, 67, 0
5, 253440, Note_on_c, 1, 55, 115
5, 254880, Note_on_c, 1, 55, 0
5, 254880, Note_on_c, 1, 62, 115
5, 255840, Note_on_c, 1, 62, 0
5, 255840, Note_on_c, 1, 64, 115
5, 256080, Note_on_c, 1, 64, 0
5, 256080, Note_on_c, 1, 66, 115
5, 256320, Note_on_c, 1, 66, 0
5, 256320, Note_on_c, 1, 67, 115
5, 256800, Note_on_c, 1, 67, 0
5, 257760, Note_on_c, 1, 67, 115
5, 258240, Note_on_c, 1, 67, 0
5, 259200, Note_on_c, 1, 67, 115
5, 259680, Note_on_c, 1, 67, 0
5, 287520, Note_on_c, 1, 67, 115
5, 288480, Note_on_c, 1, 67, 0
5, 288480, Note_on_c, 1, 60, 115
5, 288960, Note_on_c, 1, 60, 0
5, 288960, Note_on_c, 1, 67, 115
5, 289920, Note_on_c, 1, 67, 0
5, 289920, Note_on_c, 1, 65, 115
5, 290400, Note_on_c, 1, 65, 0
5, 290400, Note_on_c, 1, 60, 115
5, 290880, Note_on_c, 1, 60, 0
5, 290880, Note_on_c, 1, 59, 115
5, 291120, Note_on_c, 1, 59, 0
5, 291120, Note_on_c, 1, 60, 115
5, 291360, Note_on_c, 1, 60, 0
5, 291360, Note_on_c, 1, 62, 115
5, 291600, Note_on_c, 1, 62, 0
5, 291600, Note_on_c, 1, 55, 115
5, 291840, Note_on_c, 1, 55, 0
5, 291840, Note_on_c, 1, 57, 115
5, 292080, Note_on_c, 1, 57, 0
5, 292080, Note_on_c, 1, 59, 115
5, 292320, Note_on_c, 1, 59, 0
5, 292320, Note_on_c, 1, 60, 115
5, 292560, Note_on_c, 1, 60, 0
5, 292560, Note_on_c, 1, 59, 115
5, 292800, Note_on_c, 1, 59, 0
5, 292800, Note_on_c, 1, 60, 115
5, 293040, Note_on_c, 1, 60, 0
5, 293040, Note_on_c, 1, 62, 115
5, 293280, Note_on_c, 1, 62, 0
5, 293280, Note_on_c, 1, 60, 115
5, 293760, Note_on_c, 1, 60, 0
5, 293760, Note_on_c, 1, 59, 115
5, 294720, Note_on_c, 1, 59, 0
5, 294720, Note_on_c, 1, 62, 115
5, 295200, Note_on_c, 1, 62, 0
5, 295200, Note_on_c, 1, 60, 115
5, 295680, Note_on_c, 1, 60, 0
5, 295680, Note_on_c, 1, 55, 115
5, 296160, Note_on_c, 1, 55, 0
5, 296160, Note_on_c, 1, 60, 115
5, 296640, Note_on_c, 1, 60, 0
5, 296640, Note_on_c, 1, 59, 115
5, 297600, Note_on_c, 1, 59, 0
5, 297600, Note_on_c, 1, 62, 115
5, 298080, Note_on_c, 1, 62, 0
5, 298080, Note_on_c, 1, 60, 115
5, 298560, Note_on_c, 1, 60, 0
5, 298560, Note_on_c, 1, 55, 115
5, 299040, Note_on_c, 1, 55, 0
5, 299040, Note_on_c, 1, 60, 115
5, 299520, Note_on_c, 1, 60, 0
5, 299520, Note_on_c, 1, 59, 115
5, 300480, Note_on_c, 1, 59, 0
5, 300480, Note_on_c, 1, 62, 115
5, 300960, Note_on_c, 1, 62, 0
5, 300960, Note_on_c, 1, 60, 115
5, 301440, Note_on_c, 1, 60, 0
5, 301440, Note_on_c, 1, 57, 115
5, 301920, Note_on_c, 1, 57, 0
5, 301920, Note_on_c, 1, 57, 115
5, 302400, Note_on_c, 1, 57, 0
5, 302400, Note_on_c, 1, 59, 115
5, 302880, Note_on_c, 1, 59, 0
5, 302880, Note_on_c, 1, 55, 115
5, 303360, Note_on_c, 1, 55, 0
5, 303360, Note_on_c, 1, 55, 115
5, 303840, Note_on_c, 1, 55, 0
5, 303840, Note_on_c, 1, 57, 115
5, 304320, Note_on_c, 1, 57, 0
5, 304320, Note_on_c, 1, 65, 115
5, 304800, Note_on_c, 1, 65, 0
5, 304800, Note_on_c, 1, 65, 115
5, 305280, Note_on_c, 1, 65, 0
5, 305280, Note_on_c, 1, 62, 115
5, 305760, Note_on_c, 1, 62, 0
5, 305760, Note_on_c, 1, 59, 115
5, 306240, Note_on_c, 1, 59, 0
5, 306240, Note_on_c, 1, 65, 115
5, 306720, Note_on_c, 1, 65, 0
5, 306720, Note_on_c, 1, 62, 115
5, 307200, Note_on_c, 1, 62, 0
5, 307200, Note_on_c, 1, 59, 115
5, 307680, Note_on_c, 1, 59, 0
5, 307680, Note_on_c, 1, 62, 115
5, 308160, Note_on_c, 1, 62, 0
5, 308160, Note_on_c, 1, 64, 115
5, 308640, Note_on_c, 1, 64, 0
5, 309600, Note_on_c, 1, 64, 115
5, 310080, Note_on_c, 1, 64, 0
5, 311040, Note_on_c, 1, 64, 115
5, 311520, Note_on_c, 1, 64, 0
5, 336480, Note_on_c, 1, 60, 78
5, 336960, Note_on_c, 1, 60, 0
5, 336960, Note_on_c, 1, 59, 78
5, 338400, Note_on_c, 1, 59, 0
5, 338400, Note_on_c, 1, 60, 78
5, 339840, Note_on_c, 1, 60, 0
5, 339840, Note_on_c, 1, 58, 78
5, 341280, Note_on_c, 1, 58, 0
5, 341280, Note_on_c, 1, 57, 78
5, 342240, Note_on_c, 1, 57, 0
5, 342240, Note_on_c, 1, 65, 78
5, 342720, Note_on_c, 1, 65, 0
5, 342720, Note_on_c, 1, 62, 78
5, 344160, Note_on_c, 1, 62, 0
5, 344160, Note_on_c, 1, 60, 78
5, 345600, Note_on_c, 1, 60, 0
5, 345600, Note_on_c, 1, 59, 78
5, 347040, Note_on_c, 1, 59, 0
5, 347040, Note_on_c, 1, 60, 78
5, 348480, Note_on_c, 1, 60, 0
5, 348480, Note_on_c, 1, 59, 78
5, 349920, Note_on_c, 1, 59, 0
5, 349920, Note_on_c, 1, 60, 78
5, 351360, Note_on_c, 1, 60, 0
5, 351360, Note_on_c, 1, 59, 78
5, 351840, Note_on_c, 1, 59, 0
5, 353760, Note_on_c, 1, 67, 78
5, 354240, Note_on_c, 1, 67, 0
5, 354240, Note_on_c, 1, 65, 78
5, 354720, Note_on_c, 1, 65, 0
5, 354720, Note_on_c, 1, 62, 78
5, 355200, Note_on_c, 1, 62, 0
5, 355200, Note_on_c, 1, 59, 78
5, 355680, Note_on_c, 1, 59, 0
5, 355680, Note_on_c, 1, 55, 78
5, 356160, Note_on_c, 1, 55, 0
5, 407520, Note_on_c, 1, 72, 78
5, 408000, Note_on_c, 1, 72, 0
5, 408000, Note_on_c, 1, 72, 78
5, 408480, Note_on_c, 1, 72, 0
5, 408480, Note_on_c, 1, 72, 78
5, 408960, Note_on_c, 1, 72, 0
5, 408960, Note_on_c, 1, 72, 78
5, 409440, Note_on_c, 1, 72, 0
5, 410400, Note_on_c, 1, 72, 78
5, 410880, Note_on_c, 1, 72, 0
5, 410880, Note_on_c, 1, 72, 78
5, 411360, Note_on_c, 1, 72, 0
5, 411360, Note_on_c, 1, 72, 78
5, 411840, Note_on_c, 1, 72, 0
5, 411840, Note_on_c, 1, 72, 78
5, 412320, Note_on_c, 1, 72, 0
5, 442080, Note_on_c, 1, 67, 91
5, 442560, Note_on_c, 1, 67, 0
5, 442560, Note_on_c, 1, 67, 91
5, 443040, Note_on_c, 1, 67, 0
5, 443040, Note_on_c, 1, 67, 91
5, 443520, Note_on_c, 1, 67, 0
5, 443520, Note_on_c, 1, 67, 91
5, 444000, Note_on_c, 1, 67, 0
5, 447840, Note_on_c, 1, 67, 91
5, 448320, Note_on_c, 1, 67, 0
5, 448320, Note_on_c, 1, 67, 91
5, 448800, Note_on_c, 1, 67, 0
5, 448800, Note_on_c, 1, 67, 91
5, 449280, Note_on_c, 1, 67, 0
5, 449280, Note_on_c, 1, 67, 91
5, 449760, Note_on_c, 1, 67, 0
5, 557280, Note_on_c, 1, 57, 78
5, 561600, Note_on_c, 1, 57, 0
5, 561600, Note_on_c, 1, 59, 91
5, 567360, Note_on_c, 1, 59, 0
5, 567360, End_track
6, 0, Start_track
6, 0, MIDI_port, 0
6, 0, Title_t, "Clarinet 1"
6, 0, Program_c, 2, 71
6, 10080, Note_on_c, 2, 65, 91
6, 11040, Note_on_c, 2, 65, 0
6, 11040, Note_on_c, 2, 63, 91
6, 11520, Note_on_c, 2, 63, 0
6, 11520, Note_on_c, 2, 62, 91
6, 12480, Note_on_c, 2, 62, 0
6, 23040, Note_on_c, 2, 60, 91
6, 24000, Note_on_c, 2, 60, 0
6, 24000, Note_on_c, 2, 62, 91
6, 24480, Note_on_c, 2, 62, 0
6, 24480, Note_on_c, 2, 65, 91
6, 25440, Note_on_c, 2, 65, 0
6, 25440, Note_on_c, 2, 63, 91
6, 25920, Note_on_c, 2, 63, 0
6, 25920, Note_on_c, 2, 62, 91
6, 27360, Note_on_c, 2, 62, 0
6, 38880, Note_on_c, 2, 58, 115
6, 39360, Note_on_c, 2, 58, 0
6, 39360, Note_on_c, 2, 58, 115
6, 39840, Note_on_c, 2, 58, 0
6, 39840, Note_on_c, 2, 58, 115
6, 40320, Note_on_c, 2, 58, 0
6, 40320, Note_on_c, 2, 58, 115
6, 41760, Note_on_c, 2, 58, 0
6, 41760, Note_on_c, 2, 58, 115
6, 42240, Note_on_c, 2, 58, 0
6, 42240, Note_on_c, 2, 58, 115
6, 42720, Note_on_c, 2, 58, 0
6, 42720, Note_on_c, 2, 58, 115
6, 43200, Note_on_c, 2, 58, 0
6, 43200, Note_on_c, 2, 58, 115
6, 44640, Note_on_c, 2, 58, 0
6, 44640, Note_on_c, 2, 58, 115
6, 45120, Note_on_c, 2, 58, 0
6, 45120, Note_on_c, 2, 58, 115
6, 45600, Note_on_c, 2, 58, 0
6, 45600, Note_on_c, 2, 58, 115
6, 46080, Note_on_c, 2, 58, 0
6, 46080, Note_on_c, 2, 58, 115
6, 47520, Note_on_c, 2, 58, 0
6, 47520, Note_on_c, 2, 61, 115
6, 48000, Note_on_c, 2, 61, 0
6, 48000, Note_on_c, 2, 59, 115
6, 48480, Note_on_c, 2, 59, 0
6, 48480, Note_on_c, 2, 58, 115
6, 48960, Note_on_c, 2, 58, 0
6, 48960, Note_on_c, 2, 56, 115
6, 50400, Note_on_c, 2, 56, 0
6, 50400, Note_on_c, 2, 58, 115
6, 51840, Note_on_c, 2, 58, 0
6, 51840, Note_on_c, 2, 54, 115
6, 53280, Note_on_c, 2, 54, 0
6, 53280, Note_on_c, 2, 58, 115
6, 53760, Note_on_c, 2, 58, 0
6, 53760, Note_on_c, 2, 56, 115
6, 54240, Note_on_c, 2, 56, 0
6, 54240, Note_on_c, 2, 54, 115
6, 54720, Note_on_c, 2, 54, 0
6, 54720, Note_on_c, 2, 53, 115
6, 55680, Note_on_c, 2, 53, 0
6, 55680, Note_on_c, 2, 59, 115
6, 56160, Note_on_c, 2, 59, 0
6, 56160, Note_on_c, 2, 58, 115
6, 58560, Note_on_c, 2, 58, 0
6, 58560, Note_on_c, 2, 59, 115
6, 59040, Note_on_c, 2, 59, 0
6, 59040, Note_on_c, 2, 58, 115
6, 60480, Note_on_c, 2, 58, 0
6, 60480, Note_on_c, 2, 58, 115
6, 61920, Note_on_c, 2, 58, 0
6, 61920, Note_on_c, 2, 58, 115
6, 63360, Note_on_c, 2, 58, 0
6, 63360, Note_on_c, 2, 58, 115
6, 65280, Note_on_c, 2, 58, 0
6, 72000, Note_on_c, 2, 58, 91
6, 72960, Note_on_c, 2, 58, 0
6, 72960, Note_on_c, 2, 60, 91
6, 73440, Note_on_c, 2, 60, 0
6, 73440, Note_on_c, 2, 63, 91
6, 74400, Note_on_c, 2, 63, 0
6, 74400, Note_on_c, 2, 61, 91
6, 74880, Note_on_c, 2, 61, 0
6, 74880, Note_on_c, 2, 60, 91
6, 75840, Note_on_c, 2, 60, 0
6, 99360, Note_on_c, 2, 67, 101
6, 99840, Note_on_c, 2, 67, 0
6, 100800, Note_on_c, 2, 67, 109
6, 101280, Note_on_c, 2, 67, 0
6, 102240, Note_on_c, 2, 67, 115
6, 102720, Note_on_c, 2, 67, 0
6, 102720, Note_on_c, 2, 67, 115
6, 103200, Note_on_c, 2, 67, 0
6, 103200, Note_on_c, 2, 67, 115
6, 103680, Note_on_c, 2, 67, 0
6, 103680, Note_on_c, 2, 67, 115
6, 105120, Note_on_c, 2, 67, 0
6, 105120, Note_on_c, 2, 67, 115
6, 105600, Note_on_c, 2, 67, 0
6, 105600, Note_on_c, 2, 67, 115
6, 106080, Note_on_c, 2, 67, 0
6, 106080, Note_on_c, 2, 67, 115
6, 106560, Note_on_c, 2, 67, 0
6, 106560, Note_on_c, 2, 67, 115
6, 108000, Note_on_c, 2, 67, 0
6, 108000, Note_on_c, 2, 67, 115
6, 108480, Note_on_c, 2, 67, 0
6, 108480, Note_on_c, 2, 67, 115
6, 108960, Note_on_c, 2, 67, 0
6, 108960, Note_on_c, 2, 67, 115
6, 109440, Note_on_c, 2, 67, 0
6, 109440, Note_on_c, 2, 67, 115
6, 110880, Note_on_c, 2, 67, 0
6, 110880, Note_on_c, 2, 70, 115
6, 111360, Note_on_c, 2, 70, 0
6, 111360, Note_on_c, 2, 68, 115
6, 111840, Note_on_c, 2, 68, 0
6, 111840, Note_on_c, 2, 67, 115
6, 112320, Note_on_c, 2, 67, 0
6, 112320, Note_on_c, 2, 65, 115
6, 113760, Note_on_c, 2, 65, 0
6, 113760, Note_on_c, 2, 72, 123
6, 114240, Note_on_c, 2, 72, 0
6, 114240, Note_on_c, 2, 72, 123
6, 114720, Note_on_c, 2, 72, 0
6, 114720, Note_on_c, 2, 72, 123
6, 115200, Note_on_c, 2, 72, 0
6, 115200, Note_on_c, 2, 72, 123
6, 116640, Note_on_c, 2, 72, 0
6, 116640, Note_on_c, 2, 72, 123
6, 117120, Note_on_c, 2, 72, 0
6, 117120, Note_on_c, 2, 72, 123
6, 117600, Note_on_c, 2, 72, 0
6, 117600, Note_on_c, 2, 72, 123
6, 118080, Note_on_c, 2, 72, 0
6, 118080, Note_on_c, 2, 72, 123
6, 119520, Note_on_c, 2, 72, 0
6, 119520, Note_on_c, 2, 60, 123
6, 120000, Note_on_c, 2, 60, 0
6, 120000, Note_on_c, 2, 60, 123
6, 120480, Note_on_c, 2, 60, 0
6, 120480, Note_on_c, 2, 60, 123
6, 120960, Note_on_c, 2, 60, 0
6, 120960, Note_on_c, 2, 60, 123
6, 122400, Note_on_c, 2, 60, 0
6, 122400, Note_on_c, 2, 63, 123
6, 122880, Note_on_c, 2, 63, 0
6, 122880, Note_on_c, 2, 61, 123
6, 123360, Note_on_c, 2, 61, 0
6, 123360, Note_on_c, 2, 60, 123
6, 123840, Note_on_c, 2, 60, 0
6, 123840, Note_on_c, 2, 58, 123
6, 125280, Note_on_c, 2, 58, 0
6, 125280, Note_on_c, 2, 60, 123
6, 126720, Note_on_c, 2, 60, 0
6, 126720, Note_on_c, 2, 56, 123
6, 128160, Note_on_c, 2, 56, 0
6, 128160, Note_on_c, 2, 60, 123
6, 128640, Note_on_c, 2, 60, 0
6, 128640, Note_on_c, 2, 58, 123
6, 129120, Note_on_c, 2, 58, 0
6, 129120, Note_on_c, 2, 56, 123
6, 129600, Note_on_c, 2, 56, 0
6, 129600, Note_on_c, 2, 55, 123
6, 132000, Note_on_c, 2, 55, 0
6, 132000, Note_on_c, 2, 56, 123
6, 132480, Note_on_c, 2, 56, 0
6, 132480, Note_on_c, 2, 55, 123
6, 134880, Note_on_c, 2, 55, 0
6, 134880, Note_on_c, 2, 56, 123
6, 135360, Note_on_c, 2, 56, 0
6, 135360, Note_on_c, 2, 55, 123
6, 136320, Note_on_c, 2, 55, 0
6, 136320, Note_on_c, 2, 56, 123
6, 136800, Note_on_c, 2, 56, 0
6, 136800, Note_on_c, 2, 55, 123
6, 137760, Note_on_c, 2, 55, 0
6, 137760, Note_on_c, 2, 56, 123
6, 138240, Note_on_c, 2, 56, 0
6, 138240, Note_on_c, 2, 55, 115
6, 140160, Note_on_c, 2, 55, 0
6, 146880, Note_on_c, 2, 55, 91
6, 147840, Note_on_c, 2, 55, 0
6, 147840, Note_on_c, 2, 59, 91
6, 148320, Note_on_c, 2, 59, 0
6, 148320, Note_on_c, 2, 62, 91
6, 149280, Note_on_c, 2, 62, 0
6, 149280, Note_on_c, 2, 60, 91
6, 149760, Note_on_c, 2, 60, 0
6, 149760, Note_on_c, 2, 59, 91
6, 150240, Note_on_c, 2, 59, 0
6, 152640, Note_on_c, 2, 55, 91
6, 153600, Note_on_c, 2, 55, 0
6, 153600, Note_on_c, 2, 60, 91
6, 154080, Note_on_c, 2, 60, 0
6, 154080, Note_on_c, 2, 63, 91
6, 155040, Note_on_c, 2, 63, 0
6, 155040, Note_on_c, 2, 62, 91
6, 155520, Note_on_c, 2, 62, 0
6, 155520, Note_on_c, 2, 60, 91
6, 156000, Note_on_c, 2, 60, 0
6, 166560, Note_on_c, 2, 53, 91
6, 167040, Note_on_c, 2, 53, 0
6, 168000, Note_on_c, 2, 53, 91
6, 168480, Note_on_c, 2, 53, 0
6, 169440, Note_on_c, 2, 53, 91
6, 169920, Note_on_c, 2, 53, 0
6, 170880, Note_on_c, 2, 53, 91
6, 171360, Note_on_c, 2, 53, 0
6, 172320, Note_on_c, 2, 53, 91
6, 172800, Note_on_c, 2, 53, 0
6, 173760, Note_on_c, 2, 53, 91
6, 174240, Note_on_c, 2, 53, 0
6, 175200, Note_on_c, 2, 53, 91
6, 175680, Note_on_c, 2, 53, 0
6, 176640, Note_on_c, 2, 53, 91
6, 177120, Note_on_c, 2, 53, 0
6, 178080, Note_on_c, 2, 53, 91
6, 178560, Note_on_c, 2, 53, 0
6, 179520, Note_on_c, 2, 51, 91
6, 180000, Note_on_c, 2, 51, 0
6, 180960, Note_on_c, 2, 53, 91
6, 181440, Note_on_c, 2, 53, 0
6, 182400, Note_on_c, 2, 50, 101
6, 182880, Note_on_c, 2, 50, 0
6, 183840, Note_on_c, 2, 51, 101
6, 184320, Note_on_c, 2, 51, 0
6, 185280, Note_on_c, 2, 51, 109
6, 185760, Note_on_c, 2, 51, 0
6, 186720, Note_on_c, 2, 51, 109
6, 187200, Note_on_c, 2, 51, 0
6, 187200, Note_on_c, 2, 56, 115
6, 188160, Note_on_c, 2, 56, 0
6, 188160, Note_on_c, 2, 57, 115
6, 188640, Note_on_c, 2, 57, 0
6, 188640, Note_on_c, 2, 60, 115
6, 189120, Note_on_c, 2, 60, 0
6, 189120, Note_on_c, 2, 60, 115
6, 189600, Note_on_c, 2, 60, 0
6, 189600, Note_on_c, 2, 59, 115
6, 190080, Note_on_c, 2, 59, 0
6, 190080, Note_on_c, 2, 60, 115
6, 190560, Note_on_c, 2, 60, 0
6, 191520, Note_on_c, 2, 62, 123
6, 192960, Note_on_c, 2, 62, 0
6, 192960, Note_on_c, 2, 63, 123
6, 194400, Note_on_c, 2, 63, 0
6, 194400, Note_on_c, 2, 62, 123
6, 195840, Note_on_c, 2, 62, 0
6, 195840, Note_on_c, 2, 60, 123
6, 197280, Note_on_c, 2, 60, 0
6, 278880, Note_on_c, 2, 57, 115
6, 279840, Note_on_c, 2, 57, 0
6, 279840, Note_on_c, 2, 48, 115
6, 280320, Note_on_c, 2, 48, 0
6, 280320, Note_on_c, 2, 55, 115
6, 281280, Note_on_c, 2, 55, 0
6, 281280, Note_on_c, 2, 48, 115
6, 281760, Note_on_c, 2, 48, 0
6, 281760, Note_on_c, 2, 53, 115
6, 282720, Note_on_c, 2, 53, 0
6, 282720, Note_on_c, 2, 48, 115
6, 283200, Note_on_c, 2, 48, 0
6, 283200, Note_on_c, 2, 52, 115
6, 283680, Note_on_c, 2, 52, 0
6, 283680, Note_on_c, 2, 48, 115
6, 284160, Note_on_c, 2, 48, 0
6, 284160, Note_on_c, 2, 57, 115
6, 284640, Note_on_c, 2, 57, 0
6, 287520, Note_on_c, 2, 58, 115
6, 288480, Note_on_c, 2, 58, 0
6, 288480, Note_on_c, 2, 48, 115
6, 288960, Note_on_c, 2, 48, 0
6, 288960, Note_on_c, 2, 58, 115
6, 289920, Note_on_c, 2, 58, 0
6, 289920, Note_on_c, 2, 57, 115
6, 290400, Note_on_c, 2, 57, 0
6, 290880, Note_on_c, 2, 65, 115
6, 292320, Note_on_c, 2, 65, 0
6, 292320, Note_on_c, 2, 64, 115
6, 293760, Note_on_c, 2, 64, 0
6, 293760, Note_on_c, 2, 62, 115
6, 295200, Note_on_c, 2, 62, 0
6, 295200, Note_on_c, 2, 64, 115
6, 296640, Note_on_c, 2, 64, 0
6, 296640, Note_on_c, 2, 62, 115
6, 298080, Note_on_c, 2, 62, 0
6, 298080, Note_on_c, 2, 64, 115
6, 299520, Note_on_c, 2, 64, 0
6, 299520, Note_on_c, 2, 62, 115
6, 300960, Note_on_c, 2, 62, 0
6, 300960, Note_on_c, 2, 60, 115
6, 301440, Note_on_c, 2, 60, 0
6, 305280, Note_on_c, 2, 65, 115
6, 305760, Note_on_c, 2, 65, 0
6, 305760, Note_on_c, 2, 65, 115
6, 306240, Note_on_c, 2, 65, 0
6, 306240, Note_on_c, 2, 65, 115
6, 306720, Note_on_c, 2, 65, 0
6, 306720, Note_on_c, 2, 65, 115
6, 307200, Note_on_c, 2, 65, 0
6, 307200, Note_on_c, 2, 65, 115
6, 307680, Note_on_c, 2, 65, 0
6, 307680, Note_on_c, 2, 65, 115
6, 308160, Note_on_c, 2, 65, 0
6, 308160, Note_on_c, 2, 64, 115
6, 308640, Note_on_c, 2, 64, 0
6, 309600, Note_on_c, 2, 64, 115
6, 310080, Note_on_c, 2, 64, 0
6, 311040, Note_on_c, 2, 64, 115
6, 311520, Note_on_c, 2, 64, 0
6, 328320, Note_on_c, 2, 55, 91
6, 329280, Note_on_c, 2, 55, 0
6, 329280, Note_on_c, 2, 53, 91
6, 329760, Note_on_c, 2, 53, 0
6, 329760, Note_on_c, 2, 52, 91
6, 330240, Note_on_c, 2, 52, 0
6, 330240, Note_on_c, 2, 48, 91
6, 330720, Note_on_c, 2, 48, 0
6, 330720, Note_on_c, 2, 57, 91
6, 331680, Note_on_c, 2, 57, 0
6, 331680, Note_on_c, 2, 48, 91
6, 332160, Note_on_c, 2, 48, 0
6, 332160, Note_on_c, 2, 55, 91
6, 333120, Note_on_c, 2, 55, 0
6, 333120, Note_on_c, 2, 48, 91
6, 333600, Note_on_c, 2, 48, 0
6, 333600, Note_on_c, 2, 53, 91
6, 334560, Note_on_c, 2, 53, 0
6, 334560, Note_on_c, 2, 48, 91
6, 335040, Note_on_c, 2, 48, 0
6, 335040, Note_on_c, 2, 52, 91
6, 335520, Note_on_c, 2, 52, 0
6, 335520, Note_on_c, 2, 48, 91
6, 336000, Note_on_c, 2, 48, 0
6, 336000, Note_on_c, 2, 53, 91
6, 336480, Note_on_c, 2, 53, 0
6, 336480, Note_on_c, 2, 57, 78
6, 336960, Note_on_c, 2, 57, 0
6, 336960, Note_on_c, 2, 53, 78
6, 338400, Note_on_c, 2, 53, 0
6, 338400, Note_on_c, 2, 52, 78
6, 339840, Note_on_c, 2, 52, 0
6, 339840, Note_on_c, 2, 55, 78
6, 341280, Note_on_c, 2, 55, 0
6, 341280, Note_on_c, 2, 53, 78
6, 342240, Note_on_c, 2, 53, 0
6, 342240, Note_on_c, 2, 57, 78
6, 342720, Note_on_c, 2, 57, 0
6, 342720, Note_on_c, 2, 53, 78
6, 344160, Note_on_c, 2, 53, 0
6, 344160, Note_on_c, 2, 52, 78
6, 345600, Note_on_c, 2, 52, 0
6, 345600, Note_on_c, 2, 50, 78
6, 347040, Note_on_c, 2, 50, 0
6, 347040, Note_on_c, 2, 52, 78
6, 348480, Note_on_c, 2, 52, 0
6, 348480, Note_on_c, 2, 50, 78
6, 349920, Note_on_c, 2, 50, 0
6, 349920, Note_on_c, 2, 52, 78
6, 351360, Note_on_c, 2, 52, 0
6, 351360, Note_on_c, 2, 50, 78
6, 351840, Note_on_c, 2, 50, 0
6, 355200, Note_on_c, 2, 59, 78
6, 355680, Note_on_c, 2, 59, 0
6, 355680, Note_on_c, 2, 55, 78
6, 356160, Note_on_c, 2, 55, 0
6, 356160, Note_on_c, 2, 53, 78
6, 356640, Note_on_c, 2, 53, 0
6, 356640, Note_on_c, 2, 50, 78
6, 357120, Note_on_c, 2, 50, 0
6, 357120, Note_on_c, 2, 47, 78
6, 357600, Note_on_c, 2, 47, 0
6, 358560, Note_on_c, 2, 44, 78
6, 359040, Note_on_c, 2, 44, 0
6, 360000, Note_on_c, 2, 43, 78
6, 360480, Note_on_c, 2, 43, 0
6, 375840, Note_on_c, 2, 55, 78
6, 376800, Note_on_c, 2, 55, 0
6, 376800, Note_on_c, 2, 59, 78
6, 377280, Note_on_c, 2, 59, 0
6, 377280, Note_on_c, 2, 60, 78
6, 377760, Note_on_c, 2, 60, 0
6, 378240, Note_on_c, 2, 62, 78
6, 378720, Note_on_c, 2, 62, 0
6, 378720, Note_on_c, 2, 65, 78
6, 379200, Note_on_c, 2, 65, 0
6, 379680, Note_on_c, 2, 63, 78
6, 380160, Note_on_c, 2, 63, 0
6, 380160, Note_on_c, 2, 62, 78
6, 381120, Note_on_c, 2, 62, 0
6, 396000, Note_on_c, 2, 67, 78
6, 396480, Note_on_c, 2, 67, 0
6, 396480, Note_on_c, 2, 67, 78
6, 396960, Note_on_c, 2, 67, 0
6, 396960, Note_on_c, 2, 67, 78
6, 397440, Note_on_c, 2, 67, 0
6, 397440, Note_on_c, 2, 67, 78
6, 397920, Note_on_c, 2, 67, 0
6, 398880, Note_on_c, 2, 67, 78
6, 399360, Note_on_c, 2, 67, 0
6, 399360, Note_on_c, 2, 67, 78
6, 399840, Note_on_c, 2, 67, 0
6, 399840, Note_on_c, 2, 67, 78
6, 400320, Note_on_c, 2, 67, 0
6, 400320, Note_on_c, 2, 67, 78
6, 400800, Note_on_c, 2, 67, 0
6, 400800, End_track
7, 0, Start_track
7, 0, MIDI_port, 0
7, 0, Title_t, "Clarinet 2"
7, 10080, Note_on_c, 2, 62, 91
7, 11040, Note_on_c, 2, 62, 0
7, 11040, Note_on_c, 2, 60, 91
7, 11520, Note_on_c, 2, 60, 0
7, 11520, Note_on_c, 2, 59, 91
7, 12480, Note_on_c, 2, 59, 0
7, 23040, Note_on_c, 2, 60, 91
7, 24000, Note_on_c, 2, 60, 0
7, 24000, Note_on_c, 2, 62, 91
7, 24480, Note_on_c, 2, 62, 0
7, 24480, Note_on_c, 2, 62, 91
7, 25440, Note_on_c, 2, 62, 0
7, 25440, Note_on_c, 2, 60, 91
7, 25920, Note_on_c, 2, 60, 0
7, 25920, Note_on_c, 2, 59, 91
7, 27360, Note_on_c, 2, 59, 0
7, 38880, Note_on_c, 2, 46, 115
7, 39360, Note_on_c, 2, 46, 0
7, 39360, Note_on_c, 2, 46, 115
7, 39840, Note_on_c, 2, 46, 0
7, 39840, Note_on_c, 2, 46, 115
7, 40320, Note_on_c, 2, 46, 0
7, 40320, Note_on_c, 2, 46, 115
7, 41760, Note_on_c, 2, 46, 0
7, 41760, Note_on_c, 2, 46, 115
7, 42240, Note_on_c, 2, 46, 0
7, 42240, Note_on_c, 2, 46, 115
7, 42720, Note_on_c, 2, 46, 0
7, 42720, Note_on_c, 2, 46, 115
7, 43200, Note_on_c, 2, 46, 0
7, 43200, Note_on_c, 2, 46, 115
7, 44640, Note_on_c, 2, 46, 0
7, 44640, Note_on_c, 2, 46, 115
7, 45120, Note_on_c, 2, 46, 0
7, 45120, Note_on_c, 2, 46, 115
7, 45600, Note_on_c, 2, 46, 0
7, 45600, Note_on_c, 2, 46, 115
7, 46080, Note_on_c, 2, 46, 0
7, 46080, Note_on_c, 2, 46, 115
7, 47520, Note_on_c, 2, 46, 0
7, 47520, Note_on_c, 2, 58, 115
7, 48000, Note_on_c, 2, 58, 0
7, 48000, Note_on_c, 2, 56, 115
7, 48480, Note_on_c, 2, 56, 0
7, 48480, Note_on_c, 2, 54, 115
7, 48960, Note_on_c, 2, 54, 0
7, 48960, Note_on_c, 2, 53, 115
7, 50400, Note_on_c, 2, 53, 0
7, 50400, Note_on_c, 2, 54, 115
7, 51840, Note_on_c, 2, 54, 0
7, 51840, Note_on_c, 2, 51, 115
7, 53280, Note_on_c, 2, 51, 0
7, 53280, Note_on_c, 2, 54, 115
7, 53760, Note_on_c, 2, 54, 0
7, 53760, Note_on_c, 2, 53, 115
7, 54240, Note_on_c, 2, 53, 0
7, 54240, Note_on_c, 2, 51, 115
7, 54720, Note_on_c, 2, 51, 0
7, 54720, Note_on_c, 2, 50, 115
7, 55680, Note_on_c, 2, 50, 0
7, 55680, Note_on_c, 2, 59, 115
7, 56160, Note_on_c, 2, 59, 0
7, 56160, Note_on_c, 2, 58, 115
7, 58560, Note_on_c, 2, 58, 0
7, 58560, Note_on_c, 2, 59, 115
7, 59040, Note_on_c, 2, 59, 0
7, 59040, Note_on_c, 2, 58, 115
7, 60480, Note_on_c, 2, 58, 0
7, 60480, Note_on_c, 2, 46, 115
7, 61920, Note_on_c, 2, 46, 0
7, 61920, Note_on_c, 2, 46, 115
7, 63360, Note_on_c, 2, 46, 0
7, 63360, Note_on_c, 2, 46, 115
7, 65280, Note_on_c, 2, 46, 0
7, 72000, Note_on_c, 2, 58, 91
7, 72960, Note_on_c, 2, 58, 0
7, 72960, Note_on_c, 2, 57, 91
7, 73440, Note_on_c, 2, 57, 0
7, 73440, Note_on_c, 2, 60, 91
7, 74400, Note_on_c, 2, 60, 0
7, 74400, Note_on_c, 2, 58, 91
7, 74880, Note_on_c, 2, 58, 0
7, 74880, Note_on_c, 2, 57, 91
7, 75840, Note_on_c, 2, 57, 0
7, 99360, Note_on_c, 2, 55, 101
7, 99840, Note_on_c, 2, 55, 0
7, 100800, Note_on_c, 2, 55, 109
7, 101280, Note_on_c, 2, 55, 0
7, 102240, Note_on_c, 2, 55, 115
7, 102720, Note_on_c, 2, 55, 0
7, 102720, Note_on_c, 2, 55, 115
7, 103200, Note_on_c, 2, 55, 0
7, 103200, Note_on_c, 2, 55, 115
7, 103680, Note_on_c, 2, 55, 0
7, 103680, Note_on_c, 2, 55, 115
7, 105120, Note_on_c, 2, 55, 0
7, 105120, Note_on_c, 2, 55, 115
7, 105600, Note_on_c, 2, 55, 0
7, 105600, Note_on_c, 2, 55, 115
7, 106080, Note_on_c, 2, 55, 0
7, 106080, Note_on_c, 2, 55, 115
7, 106560, Note_on_c, 2, 55, 0
7, 106560, Note_on_c, 2, 55, 115
7, 108000, Note_on_c, 2, 55, 0
7, 108000, Note_on_c, 2, 55, 115
7, 108480, Note_on_c, 2, 55, 0
7, 108480, Note_on_c, 2, 55, 115
7, 108960, Note_on_c, 2, 55, 0
7, 108960, Note_on_c, 2, 55, 115
7, 109440, Note_on_c, 2, 55, 0
7, 109440, Note_on_c, 2, 55, 115
7, 110880, Note_on_c, 2, 55, 0
7, 110880, Note_on_c, 2, 67, 115
7, 111360, Note_on_c, 2, 67, 0
7, 111360, Note_on_c, 2, 65, 115
7, 111840, Note_on_c, 2, 65, 0
7, 111840, Note_on_c, 2, 63, 115
7, 112320, Note_on_c, 2, 63, 0
7, 112320, Note_on_c, 2, 62, 115
7, 113760, Note_on_c, 2, 62, 0
7, 113760, Note_on_c, 2, 60, 123
7, 114240, Note_on_c, 2, 60, 0
7, 114240, Note_on_c, 2, 60, 123
7, 114720, Note_on_c, 2, 60, 0
7, 114720, Note_on_c, 2, 60, 123
7, 115200, Note_on_c, 2, 60, 0
7, 115200, Note_on_c, 2, 60, 123
7, 116640, Note_on_c, 2, 60, 0
7, 116640, Note_on_c, 2, 60, 123
7, 117120, Note_on_c, 2, 60, 0
7, 117120, Note_on_c, 2, 60, 123
7, 117600, Note_on_c, 2, 60, 0
7, 117600, Note_on_c, 2, 60, 123
7, 118080, Note_on_c, 2, 60, 0
7, 118080, Note_on_c, 2, 60, 123
7, 119520, Note_on_c, 2, 60, 0
7, 119520, Note_on_c, 2, 55, 123
7, 120000, Note_on_c, 2, 55, 0
7, 120000, Note_on_c, 2, 55, 123
7, 120480, Note_on_c, 2, 55, 0
7, 120480, Note_on_c, 2, 55, 123
7, 120960, Note_on_c, 2, 55, 0
7, 120960, Note_on_c, 2, 56, 123
7, 122400, Note_on_c, 2, 56, 0
7, 122400, Note_on_c, 2, 60, 123
7, 122880, Note_on_c, 2, 60, 0
7, 122880, Note_on_c, 2, 58, 123
7, 123360, Note_on_c, 2, 58, 0
7, 123360, Note_on_c, 2, 56, 123
7, 123840, Note_on_c, 2, 56, 0
7, 123840, Note_on_c, 2, 55, 123
7, 125280, Note_on_c, 2, 55, 0
7, 125280, Note_on_c, 2, 56, 123
7, 126720, Note_on_c, 2, 56, 0
7, 126720, Note_on_c, 2, 53, 123
7, 128160, Note_on_c, 2, 53, 0
7, 128160, Note_on_c, 2, 56, 123
7, 128640, Note_on_c, 2, 56, 0
7, 128640, Note_on_c, 2, 55, 123
7, 129120, Note_on_c, 2, 55, 0
7, 129120, Note_on_c, 2, 53, 123
7, 129600, Note_on_c, 2, 53, 0
7, 129600, Note_on_c, 2, 52, 123
7, 132000, Note_on_c, 2, 52, 0
7, 132000, Note_on_c, 2, 53, 123
7, 132480, Note_on_c, 2, 53, 0
7, 132480, Note_on_c, 2, 52, 123
7, 134880, Note_on_c, 2, 52, 0
7, 134880, Note_on_c, 2, 53, 123
7, 135360, Note_on_c, 2, 53, 0
7, 135360, Note_on_c, 2, 52, 123
7, 136320, Note_on_c, 2, 52, 0
7, 136320, Note_on_c, 2, 53, 123
7, 136800, Note_on_c, 2, 53, 0
7, 136800, Note_on_c, 2, 52, 123
7, 137760, Note_on_c, 2, 52, 0
7, 137760, Note_on_c, 2, 53, 123
7, 138240, Note_on_c, 2, 53, 0
7, 138240, Note_on_c, 2, 52, 115
7, 140160, Note_on_c, 2, 52, 0
7, 146880, Note_on_c, 2, 55, 91
7, 147840, Note_on_c, 2, 55, 0
7, 147840, Note_on_c, 2, 59, 91
7, 148320, Note_on_c, 2, 59, 0
7, 148320, Note_on_c, 2, 62, 91
7, 149280, Note_on_c, 2, 62, 0
7, 149280, Note_on_c, 2, 60, 91
7, 149760, Note_on_c, 2, 60, 0
7, 149760, Note_on_c, 2, 59, 91
7, 150240, Note_on_c, 2, 59, 0
7, 152640, Note_on_c, 2, 55, 91
7, 153600, Note_on_c, 2, 55, 0
7, 153600, Note_on_c, 2, 60, 91
7, 154080, Note_on_c, 2, 60, 0
7, 154080, Note_on_c, 2, 63, 91
7, 155040, Note_on_c, 2, 63, 0
7, 155040, Note_on_c, 2, 62, 91
7, 155520, Note_on_c, 2, 62, 0
7, 155520, Note_on_c, 2, 60, 91
7, 156000, Note_on_c, 2, 60, 0
7, 166560, Note_on_c, 2, 50, 91
7, 167040, Note_on_c, 2, 50, 0
7, 168000, Note_on_c, 2, 48, 91
7, 168480, Note_on_c, 2, 48, 0
7, 169440, Note_on_c, 2, 50, 91
7, 169920, Note_on_c, 2, 50, 0
7, 170880, Note_on_c, 2, 48, 91
7, 171360, Note_on_c, 2, 48, 0
7, 172320, Note_on_c, 2, 50, 91
7, 172800, Note_on_c, 2, 50, 0
7, 173760, Note_on_c, 2, 48, 91
7, 174240, Note_on_c, 2, 48, 0
7, 175200, Note_on_c, 2, 50, 91
7, 175680, Note_on_c, 2, 50, 0
7, 176640, Note_on_c, 2, 48, 91
7, 177120, Note_on_c, 2, 48, 0
7, 178080, Note_on_c, 2, 50, 91
7, 178560, Note_on_c, 2, 50, 0
7, 179520, Note_on_c, 2, 48, 91
7, 180000, Note_on_c, 2, 48, 0
7, 180960, Note_on_c, 2, 48, 91
7, 181440, Note_on_c, 2, 48, 0
7, 182400, Note_on_c, 2, 47, 101
7, 182880, Note_on_c, 2, 47, 0
7, 183840, Note_on_c, 2, 48, 101
7, 184320, Note_on_c, 2, 48, 0
7, 185280, Note_on_c, 2, 48, 109
7, 185760, Note_on_c, 2, 48, 0
7, 186720, Note_on_c, 2, 48, 109
7, 187200, Note_on_c, 2, 48, 0
7, 187200, Note_on_c, 2, 48, 115
7, 188160, Note_on_c, 2, 48, 0
7, 188160, Note_on_c, 2, 48, 115
7, 188640, Note_on_c, 2, 48, 0
7, 188640, Note_on_c, 2, 51, 115
7, 189120, Note_on_c, 2, 51, 0
7, 189120, Note_on_c, 2, 51, 115
7, 189600, Note_on_c, 2, 51, 0
7, 189600, Note_on_c, 2, 50, 115
7, 190080, Note_on_c, 2, 50, 0
7, 190080, Note_on_c, 2, 51, 115
7, 190560, Note_on_c, 2, 51, 0
7, 191520, Note_on_c, 2, 62, 123
7, 192960, Note_on_c, 2, 62, 0
7, 192960, Note_on_c, 2, 63, 123
7, 194400, Note_on_c, 2, 63, 0
7, 194400, Note_on_c, 2, 62, 123
7, 195840, Note_on_c, 2, 62, 0
7, 195840, Note_on_c, 2, 60, 123
7, 197280, Note_on_c, 2, 60, 0
7, 278880, Note_on_c, 2, 57, 115
7, 279840, Note_on_c, 2, 57, 0
7, 279840, Note_on_c, 2, 48, 115
7, 280320, Note_on_c, 2, 48, 0
7, 280320, Note_on_c, 2, 55, 115
7, 281280, Note_on_c, 2, 55, 0
7, 281280, Note_on_c, 2, 48, 115
7, 281760, Note_on_c, 2, 48, 0
7, 281760, Note_on_c, 2, 53, 115
7, 282720, Note_on_c, 2, 53, 0
7, 282720, Note_on_c, 2, 48, 115
7, 283200, Note_on_c, 2, 48, 0
7, 283200, Note_on_c, 2, 52, 115
7, 283680, Note_on_c, 2, 52, 0
7, 283680, Note_on_c, 2, 48, 115
7, 284160, Note_on_c, 2, 48, 0
7, 284160, Note_on_c, 2, 57, 115
7, 284640, Note_on_c, 2, 57, 0
7, 287520, Note_on_c, 2, 55, 115
7, 288480, Note_on_c, 2, 55, 0
7, 288480, Note_on_c, 2, 48, 115
7, 288960, Note_on_c, 2, 48, 0
7, 288960, Note_on_c, 2, 55, 115
7, 289920, Note_on_c, 2, 55, 0
7, 289920, Note_on_c, 2, 53, 115
7, 290400, Note_on_c, 2, 53, 0
7, 290880, Note_on_c, 2, 62, 115
7, 292320, Note_on_c, 2, 62, 0
7, 292320, Note_on_c, 2, 60, 115
7, 293760, Note_on_c, 2, 60, 0
7, 293760, Note_on_c, 2, 59, 115
7, 295200, Note_on_c, 2, 59, 0
7, 295200, Note_on_c, 2, 60, 115
7, 296640, Note_on_c, 2, 60, 0
7, 296640, Note_on_c, 2, 59, 115
7, 298080, Note_on_c, 2, 59, 0
7, 298080, Note_on_c, 2, 60, 115
7, 299520, Note_on_c, 2, 60, 0
7, 299520, Note_on_c, 2, 59, 115
7, 300960, Note_on_c, 2, 59, 0
7, 300960, Note_on_c, 2, 55, 115
7, 301440, Note_on_c, 2, 55, 0
7, 305280, Note_on_c, 2, 53, 115
7, 305760, Note_on_c, 2, 53, 0
7, 305760, Note_on_c, 2, 53, 115
7, 306240, Note_on_c, 2, 53, 0
7, 306240, Note_on_c, 2, 53, 115
7, 306720, Note_on_c, 2, 53, 0
7, 306720, Note_on_c, 2, 53, 115
7, 307200, Note_on_c, 2, 53, 0
7, 307200, Note_on_c, 2, 53, 115
7, 307680, Note_on_c, 2, 53, 0
7, 307680, Note_on_c, 2, 53, 115
7, 308160, Note_on_c, 2, 53, 0
7, 308160, Note_on_c, 2, 52, 115
7, 308640, Note_on_c, 2, 52, 0
7, 309600, Note_on_c, 2, 52, 115
7, 310080, Note_on_c, 2, 52, 0
7, 311040, Note_on_c, 2, 52, 115
7, 311520, Note_on_c, 2, 52, 0
7, 328320, Note_on_c, 2, 55, 91
7, 329280, Note_on_c, 2, 55, 0
7, 329280, Note_on_c, 2, 53, 91
7, 329760, Note_on_c, 2, 53, 0
7, 329760, Note_on_c, 2, 52, 91
7, 330240, Note_on_c, 2, 52, 0
7, 330240, Note_on_c, 2, 48, 91
7, 330720, Note_on_c, 2, 48, 0
7, 330720, Note_on_c, 2, 57, 91
7, 331680, Note_on_c, 2, 57, 0
7, 331680, Note_on_c, 2, 48, 91
7, 332160, Note_on_c, 2, 48, 0
7, 332160, Note_on_c, 2, 55, 91
7, 333120, Note_on_c, 2, 55, 0
7, 333120, Note_on_c, 2, 48, 91
7, 333600, Note_on_c, 2, 48, 0
7, 333600, Note_on_c, 2, 53, 91
7, 334560, Note_on_c, 2, 53, 0
7, 334560, Note_on_c, 2, 48, 91
7, 335040, Note_on_c, 2, 48, 0
7, 335040, Note_on_c, 2, 52, 91
7, 335520, Note_on_c, 2, 52, 0
7, 335520, Note_on_c, 2, 48, 91
7, 336000, Note_on_c, 2, 48, 0
7, 336000, Note_on_c, 2, 53, 91
7, 336480, Note_on_c, 2, 53, 0
7, 336480, Note_on_c, 2, 57, 78
7, 336960, Note_on_c, 2, 57, 0
7, 336960, Note_on_c, 2, 53, 78
7, 338400, Note_on_c, 2, 53, 0
7, 338400, Note_on_c, 2, 52, 78
7, 339840, Note_on_c, 2, 52, 0
7, 339840, Note_on_c, 2, 48, 78
7, 341280, Note_on_c, 2, 48, 0
7, 341280, Note_on_c, 2, 48, 78
7, 342240, Note_on_c, 2, 48, 0
7, 342240, Note_on_c, 2, 53, 78
7, 342720, Note_on_c, 2, 53, 0
7, 342720, Note_on_c, 2, 50, 78
7, 344160, Note_on_c, 2, 50, 0
7, 344160, Note_on_c, 2, 48, 78
7, 345600, Note_on_c, 2, 48, 0
7, 345600, Note_on_c, 2, 47, 78
7, 347040, Note_on_c, 2, 47, 0
7, 347040, Note_on_c, 2, 48, 78
7, 348480, Note_on_c, 2, 48, 0
7, 348480, Note_on_c, 2, 47, 78
7, 349920, Note_on_c, 2, 47, 0
7, 349920, Note_on_c, 2, 48, 78
7, 351360, Note_on_c, 2, 48, 0
7, 351360, Note_on_c, 2, 47, 78
7, 351840, Note_on_c, 2, 47, 0
7, 355200, Note_on_c, 2, 59, 78
7, 355680, Note_on_c, 2, 59, 0
7, 355680, Note_on_c, 2, 55, 78
7, 356160, Note_on_c, 2, 55, 0
7, 356160, Note_on_c, 2, 53, 78
7, 356640, Note_on_c, 2, 53, 0
7, 356640, Note_on_c, 2, 50, 78
7, 357120, Note_on_c, 2, 50, 0
7, 357120, Note_on_c, 2, 47, 78
7, 357600, Note_on_c, 2, 47, 0
7, 358560, Note_on_c, 2, 44, 78
7, 359040, Note_on_c, 2, 44, 0
7, 360000, Note_on_c, 2, 43, 78
7, 360480, Note_on_c, 2, 43, 0
7, 375840, Note_on_c, 2, 50, 78
7, 377280, Note_on_c, 2, 50, 0
7, 377280, Note_on_c, 2, 48, 78
7, 377760, Note_on_c, 2, 48, 0
7, 378240, Note_on_c, 2, 59, 78
7, 378720, Note_on_c, 2, 59, 0
7, 378720, Note_on_c, 2, 62, 78
7, 379200, Note_on_c, 2, 62, 0
7, 379680, Note_on_c, 2, 60, 78
7, 380160, Note_on_c, 2, 60, 0
7, 380160, Note_on_c, 2, 59, 78
7, 381120, Note_on_c, 2, 59, 0
7, 396000, Note_on_c, 2, 67, 78
7, 396480, Note_on_c, 2, 67, 0
7, 396480, Note_on_c, 2, 67, 78
7, 396960, Note_on_c, 2, 67, 0
7, 396960, Note_on_c, 2, 67, 78
7, 397440, Note_on_c, 2, 67, 0
7, 397440, Note_on_c, 2, 67, 78
7, 397920, Note_on_c, 2, 67, 0
7, 398880, Note_on_c, 2, 67, 78
7, 399360, Note_on_c, 2, 67, 0
7, 399360, Note_on_c, 2, 67, 78
7, 399840, Note_on_c, 2, 67, 0
7, 399840, Note_on_c, 2, 67, 78
7, 400320, Note_on_c, 2, 67, 0
7, 400320, Note_on_c, 2, 67, 78
7, 400800, Note_on_c, 2, 67, 0
7, 400800, End_track
8, 0, Start_track
8, 0, MIDI_port, 0
8, 0, Title_t, "Bassoon 1"
8, 0, Program_c, 3, 70
8, 8640, Note_on_c, 3, 60, 91
8, 9600, Note_on_c, 3, 60, 0
8, 9600, Note_on_c, 3, 62, 91
8, 10080, Note_on_c, 3, 62, 0
8, 10080, Note_on_c, 3, 65, 91
8, 11040, Note_on_c, 3, 65, 0
8, 11040, Note_on_c, 3, 63, 91
8, 11520, Note_on_c, 3, 63, 0
8, 11520, Note_on_c, 3, 62, 91
8, 12480, Note_on_c, 3, 62, 0
8, 23040, Note_on_c, 3, 60, 91
8, 24000, Note_on_c, 3, 60, 0
8, 24000, Note_on_c, 3, 62, 91
8, 24480, Note_on_c, 3, 62, 0
8, 24480, Note_on_c, 3, 65, 91
8, 25440, Note_on_c, 3, 65, 0
8, 25440, Note_on_c, 3, 63, 91
8, 25920, Note_on_c, 3, 63, 0
8, 25920, Note_on_c, 3, 62, 91
8, 27360, Note_on_c, 3, 62, 0
8, 38880, Note_on_c, 3, 58, 115
8, 39360, Note_on_c, 3, 58, 0
8, 39360, Note_on_c, 3, 58, 115
8, 39840, Note_on_c, 3, 58, 0
8, 39840, Note_on_c, 3, 58, 115
8, 40320, Note_on_c, 3, 58, 0
8, 40320, Note_on_c, 3, 58, 115
8, 41760, Note_on_c, 3, 58, 0
8, 41760, Note_on_c, 3, 58, 115
8, 42240, Note_on_c, 3, 58, 0
8, 42240, Note_on_c, 3, 58, 115
8, 42720, Note_on_c, 3, 58, 0
8, 42720, Note_on_c, 3, 58, 115
8, 43200, Note_on_c, 3, 58, 0
8, 43200, Note_on_c, 3, 58, 115
8, 44640, Note_on_c, 3, 58, 0
8, 44640, Note_on_c, 3, 58, 115
8, 45120, Note_on_c, 3, 58, 0
8, 45120, Note_on_c, 3, 58, 115
8, 45600, Note_on_c, 3, 58, 0
8, 45600, Note_on_c, 3, 58, 115
8, 46080, Note_on_c, 3, 58, 0
8, 46080, Note_on_c, 3, 58, 115
8, 47520, Note_on_c, 3, 58, 0
8, 47520, Note_on_c, 3, 63, 115
8, 48960, Note_on_c, 3, 63, 0
8, 48960, Note_on_c, 3, 56, 115
8, 50400, Note_on_c, 3, 56, 0
8, 50400, Note_on_c, 3, 61, 115
8, 51840, Note_on_c, 3, 61, 0
8, 51840, Note_on_c, 3, 54, 115
8, 53280, Note_on_c, 3, 54, 0
8, 53280, Note_on_c, 3, 56, 115
8, 54720, Note_on_c, 3, 56, 0
8, 54720, Note_on_c, 3, 58, 115
8, 55680, Note_on_c, 3, 58, 0
8, 55680, Note_on_c, 3, 59, 115
8, 56160, Note_on_c, 3, 59, 0
8, 56160, Note_on_c, 3, 58, 115
8, 58560, Note_on_c, 3, 58, 0
8, 58560, Note_on_c, 3, 59, 115
8, 59040, Note_on_c, 3, 59, 0
8, 59040, Note_on_c, 3, 58, 115
8, 60000, Note_on_c, 3, 58, 0
8, 60000, Note_on_c, 3, 51, 115
8, 60480, Note_on_c, 3, 51, 0
8, 60480, Note_on_c, 3, 58, 115
8, 61440, Note_on_c, 3, 58, 0
8, 61440, Note_on_c, 3, 51, 115
8, 61920, Note_on_c, 3, 51, 0
8, 61920, Note_on_c, 3, 58, 115
8, 62880, Note_on_c, 3, 58, 0
8, 62880, Note_on_c, 3, 51, 115
8, 63360, Note_on_c, 3, 51, 0
8, 63360, Note_on_c, 3, 58, 115
8, 65280, Note_on_c, 3, 58, 0
8, 69120, Note_on_c, 3, 53, 91
8, 72000, Note_on_c, 3, 53, 0
8, 72000, Note_on_c, 3, 58, 91
8, 72960, Note_on_c, 3, 58, 0
8, 72960, Note_on_c, 3, 60, 91
8, 73440, Note_on_c, 3, 60, 0
8, 73440, Note_on_c, 3, 63, 91
8, 74400, Note_on_c, 3, 63, 0
8, 74400, Note_on_c, 3, 61, 91
8, 74880, Note_on_c, 3, 61, 0
8, 74880, Note_on_c, 3, 60, 91
8, 75840, Note_on_c, 3, 60, 0
8, 102240, Note_on_c, 3, 62, 115
8, 103680, Note_on_c, 3, 62, 0
8, 103680, Note_on_c, 3, 63, 115
8, 105120, Note_on_c, 3, 63, 0
8, 105120, Note_on_c, 3, 62, 115
8, 106560, Note_on_c, 3, 62, 0
8, 106560, Note_on_c, 3, 60, 115
8, 108000, Note_on_c, 3, 60, 0
8, 108000, Note_on_c, 3, 62, 115
8, 109440, Note_on_c, 3, 62, 0
8, 109440, Note_on_c, 3, 63, 115
8, 110880, Note_on_c, 3, 63, 0
8, 110880, Note_on_c, 3, 65, 115
8, 112320, Note_on_c, 3, 65, 0
8, 112320, Note_on_c, 3, 58, 115
8, 112800, Note_on_c, 3, 58, 0
8, 113760, Note_on_c, 3, 60, 123
8, 114240, Note_on_c, 3, 60, 0
8, 114240, Note_on_c, 3, 60, 123
8, 114720, Note_on_c, 3, 60, 0
8, 114720, Note_on_c, 3, 60, 123
8, 115200, Note_on_c, 3, 60, 0
8, 115200, Note_on_c, 3, 60, 123
8, 116640, Note_on_c, 3, 60, 0
8, 116640, Note_on_c, 3, 60, 123
8, 117120, Note_on_c, 3, 60, 0
8, 117120, Note_on_c, 3, 60, 123
8, 117600, Note_on_c, 3, 60, 0
8, 117600, Note_on_c, 3, 60, 123
8, 118080, Note_on_c, 3, 60, 0
8, 118080, Note_on_c, 3, 60, 123
8, 119520, Note_on_c, 3, 60, 0
8, 119520, Note_on_c, 3, 60, 123
8, 120000, Note_on_c, 3, 60, 0
8, 120000, Note_on_c, 3, 60, 123
8, 120480, Note_on_c, 3, 60, 0
8, 120480, Note_on_c, 3, 60, 123
8, 120960, Note_on_c, 3, 60, 0
8, 120960, Note_on_c, 3, 60, 123
8, 122400, Note_on_c, 3, 60, 0
8, 122400, Note_on_c, 3, 63, 123
8, 122880, Note_on_c, 3, 63, 0
8, 122880, Note_on_c, 3, 61, 123
8, 123360, Note_on_c, 3, 61, 0
8, 123360, Note_on_c, 3, 60, 123
8, 123840, Note_on_c, 3, 60, 0
8, 123840, Note_on_c, 3, 58, 123
8, 125280, Note_on_c, 3, 58, 0
8, 125280, Note_on_c, 3, 60, 123
8, 126720, Note_on_c, 3, 60, 0
8, 126720, Note_on_c, 3, 56, 123
8, 128160, Note_on_c, 3, 56, 0
8, 128160, Note_on_c, 3, 60, 123
8, 128640, Note_on_c, 3, 60, 0
8, 128640, Note_on_c, 3, 58, 123
8, 129120, Note_on_c, 3, 58, 0
8, 129120, Note_on_c, 3, 56, 123
8, 129600, Note_on_c, 3, 56, 0
8, 129600, Note_on_c, 3, 55, 123
8, 132000, Note_on_c, 3, 55, 0
8, 132000, Note_on_c, 3, 56, 123
8, 132480, Note_on_c, 3, 56, 0
8, 132480, Note_on_c, 3, 55, 123
8, 134880, Note_on_c, 3, 55, 0
8, 134880, Note_on_c, 3, 56, 123
8, 135360, Note_on_c, 3, 56, 0
8, 135360, Note_on_c, 3, 55, 123
8, 136320, Note_on_c, 3, 55, 0
8, 136320, Note_on_c, 3, 56, 123
8, 136800, Note_on_c, 3, 56, 0
8, 136800, Note_on_c, 3, 55, 123
8, 137760, Note_on_c, 3, 55, 0
8, 137760, Note_on_c, 3, 56, 123
8, 138240, Note_on_c, 3, 56, 0
8, 138240, Note_on_c, 3, 55, 115
8, 140160, Note_on_c, 3, 55, 0
8, 146880, Note_on_c, 3, 67, 91
8, 147840, Note_on_c, 3, 67, 0
8, 147840, Note_on_c, 3, 65, 91
8, 148320, Note_on_c, 3, 65, 0
8, 148320, Note_on_c, 3, 63, 91
8, 149280, Note_on_c, 3, 63, 0
8, 149280, Note_on_c, 3, 67, 91
8, 149760, Note_on_c, 3, 67, 0
8, 149760, Note_on_c, 3, 67, 91
8, 150240, Note_on_c, 3, 67, 0
8, 152640, Note_on_c, 3, 67, 91
8, 153600, Note_on_c, 3, 67, 0
8, 153600, Note_on_c, 3, 63, 91
8, 154080, Note_on_c, 3, 63, 0
8, 154080, Note_on_c, 3, 60, 91
8, 155040, Note_on_c, 3, 60, 0
8, 155040, Note_on_c, 3, 62, 91
8, 155520, Note_on_c, 3, 62, 0
8, 155520, Note_on_c, 3, 63, 91
8, 156000, Note_on_c, 3, 63, 0
8, 159840, Note_on_c, 3, 55, 91
8, 165120, Note_on_c, 3, 55, 0
8, 165120, Note_on_c, 3, 56, 91
8, 165600, Note_on_c, 3, 56, 0
8, 165600, Note_on_c, 3, 55, 91
8, 166560, Note_on_c, 3, 55, 0
8, 166560, Note_on_c, 3, 59, 91
8, 167040, Note_on_c, 3, 59, 0
8, 167040, Note_on_c, 3, 60, 91
8, 168000, Note_on_c, 3, 60, 0
8, 168000, Note_on_c, 3, 56, 91
8, 168480, Note_on_c, 3, 56, 0
8, 168480, Note_on_c, 3, 55, 91
8, 169440, Note_on_c, 3, 55, 0
8, 169440, Note_on_c, 3, 47, 91
8, 169920, Note_on_c, 3, 47, 0
8, 169920, Note_on_c, 3, 48, 91
8, 170880, Note_on_c, 3, 48, 0
8, 170880, Note_on_c, 3, 56, 91
8, 171360, Note_on_c, 3, 56, 0
8, 171360, Note_on_c, 3, 55, 91
8, 172320, Note_on_c, 3, 55, 0
8, 172320, Note_on_c, 3, 59, 91
8, 172800, Note_on_c, 3, 59, 0
8, 172800, Note_on_c, 3, 60, 91
8, 173760, Note_on_c, 3, 60, 0
8, 173760, Note_on_c, 3, 56, 91
8, 174240, Note_on_c, 3, 56, 0
8, 174240, Note_on_c, 3, 55, 91
8, 175200, Note_on_c, 3, 55, 0
8, 175200, Note_on_c, 3, 47, 91
8, 175680, Note_on_c, 3, 47, 0
8, 175680, Note_on_c, 3, 48, 91
8, 176640, Note_on_c, 3, 48, 0
8, 176640, Note_on_c, 3, 56, 91
8, 177120, Note_on_c, 3, 56, 0
8, 177120, Note_on_c, 3, 55, 91
8, 178080, Note_on_c, 3, 55, 0
8, 178080, Note_on_c, 3, 59, 91
8, 178560, Note_on_c, 3, 59, 0
8, 178560, Note_on_c, 3, 60, 91
8, 179520, Note_on_c, 3, 60, 0
8, 179520, Note_on_c, 3, 58, 91
8, 180000, Note_on_c, 3, 58, 0
8, 180000, Note_on_c, 3, 56, 91
8, 180960, Note_on_c, 3, 56, 0
8, 180960, Note_on_c, 3, 53, 91
8, 181440, Note_on_c, 3, 53, 0
8, 181440, Note_on_c, 3, 55, 91
8, 182400, Note_on_c, 3, 55, 0
8, 182400, Note_on_c, 3, 53, 101
8, 182880, Note_on_c, 3, 53, 0
8, 182880, Note_on_c, 3, 51, 101
8, 183840, Note_on_c, 3, 51, 0
8, 183840, Note_on_c, 3, 50, 101
8, 184320, Note_on_c, 3, 50, 0
8, 184320, Note_on_c, 3, 48, 101
8, 185280, Note_on_c, 3, 48, 0
8, 185280, Note_on_c, 3, 46, 109
8, 185760, Note_on_c, 3, 46, 0
8, 185760, Note_on_c, 3, 44, 109
8, 186720, Note_on_c, 3, 44, 0
8, 186720, Note_on_c, 3, 43, 109
8, 187200, Note_on_c, 3, 43, 0
8, 187200, Note_on_c, 3, 41, 115
8, 188160, Note_on_c, 3, 41, 0
8, 188160, Note_on_c, 3, 42, 115
8, 188640, Note_on_c, 3, 42, 0
8, 188640, Note_on_c, 3, 43, 115
8, 189120, Note_on_c, 3, 43, 0
8, 189120, Note_on_c, 3, 55, 115
8, 189600, Note_on_c, 3, 55, 0
8, 189600, Note_on_c, 3, 55, 115
8, 190080, Note_on_c, 3, 55, 0
8, 190080, Note_on_c, 3, 48, 115
8, 190560, Note_on_c, 3, 48, 0
8, 191520, Note_on_c, 3, 62, 123
8, 192960, Note_on_c, 3, 62, 0
8, 192960, Note_on_c, 3, 63, 123
8, 194400, Note_on_c, 3, 63, 0
8, 194400, Note_on_c, 3, 65, 123
8, 195840, Note_on_c, 3, 65, 0
8, 195840, Note_on_c, 3, 67, 123
8, 197280, Note_on_c, 3, 67, 0
8, 197280, Note_on_c, 3, 58, 91
8, 197760, Note_on_c, 3, 58, 0
8, 197760, Note_on_c, 3, 58, 91
8, 198240, Note_on_c, 3, 58, 0
8, 198240, Note_on_c, 3, 58, 91
8, 198720, Note_on_c, 3, 58, 0
8, 198720, Note_on_c, 3, 56, 91
8, 199200, Note_on_c, 3, 56, 0
8, 200160, Note_on_c, 3, 59, 91
8, 200640, Note_on_c, 3, 59, 0
8, 201600, Note_on_c, 3, 60, 91
8, 202080, Note_on_c, 3, 60, 0
8, 211200, Note_on_c, 3, 57, 115
8, 211680, Note_on_c, 3, 57, 0
8, 211680, Note_on_c, 3, 54, 115
8, 211920, Note_on_c, 3, 54, 0
8, 211920, Note_on_c, 3, 55, 115
8, 212160, Note_on_c, 3, 55, 0
8, 212160, Note_on_c, 3, 57, 115
8, 212400, Note_on_c, 3, 57, 0
8, 212400, Note_on_c, 3, 50, 115
8, 212640, Note_on_c, 3, 50, 0
8, 212640, Note_on_c, 3, 52, 115
8, 212880, Note_on_c, 3, 52, 0
8, 212880, Note_on_c, 3, 54, 115
8, 213120, Note_on_c, 3, 54, 0
8, 213120, Note_on_c, 3, 55, 115
8, 213360, Note_on_c, 3, 55, 0
8, 213360, Note_on_c, 3, 54, 115
8, 213600, Note_on_c, 3, 54, 0
8, 213600, Note_on_c, 3, 55, 115
8, 213840, Note_on_c, 3, 55, 0
8, 213840, Note_on_c, 3, 57, 115
8, 214080, Note_on_c, 3, 57, 0
8, 214080, Note_on_c, 3, 59, 115
8, 214320, Note_on_c, 3, 59, 0
8, 214320, Note_on_c, 3, 61, 115
8, 214560, Note_on_c, 3, 61, 0
8, 214560, Note_on_c, 3, 62, 115
8, 215520, Note_on_c, 3, 62, 0
8, 215520, Note_on_c, 3, 60, 115
8, 216000, Note_on_c, 3, 60, 0
8, 216000, Note_on_c, 3, 59, 115
8, 216480, Note_on_c, 3, 59, 0
8, 216480, Note_on_c, 3, 55, 115
8, 216960, Note_on_c, 3, 55, 0
8, 216960, Note_on_c, 3, 64, 115
8, 217440, Note_on_c, 3, 64, 0
8, 217440, Note_on_c, 3, 60, 115
8, 217920, Note_on_c, 3, 60, 0
8, 217920, Note_on_c, 3, 57, 115
8, 218400, Note_on_c, 3, 57, 0
8, 218400, Note_on_c, 3, 65, 115
8, 218880, Note_on_c, 3, 65, 0
8, 218880, Note_on_c, 3, 62, 115
8, 219360, Note_on_c, 3, 62, 0
8, 219360, Note_on_c, 3, 59, 115
8, 219840, Note_on_c, 3, 59, 0
8, 219840, Note_on_c, 3, 67, 115
8, 220320, Note_on_c, 3, 67, 0
8, 220320, Note_on_c, 3, 55, 115
8, 221760, Note_on_c, 3, 55, 0
8, 221760, Note_on_c, 3, 60, 115
8, 223200, Note_on_c, 3, 60, 0
8, 223200, Note_on_c, 3, 62, 115
8, 224640, Note_on_c, 3, 62, 0
8, 224640, Note_on_c, 3, 67, 115
8, 226080, Note_on_c, 3, 67, 0
8, 226080, Note_on_c, 3, 62, 115
8, 227040, Note_on_c, 3, 62, 0
8, 227040, Note_on_c, 3, 62, 115
8, 227280, Note_on_c, 3, 62, 0
8, 227280, Note_on_c, 3, 60, 115
8, 227520, Note_on_c, 3, 60, 0
8, 227520, Note_on_c, 3, 59, 115
8, 228000, Note_on_c, 3, 59, 0
8, 228960, Note_on_c, 3, 59, 115
8, 229440, Note_on_c, 3, 59, 0
8, 230400, Note_on_c, 3, 59, 115
8, 230880, Note_on_c, 3, 59, 0
8, 240000, Note_on_c, 3, 57, 115
8, 240480, Note_on_c, 3, 57, 0
8, 240480, Note_on_c, 3, 54, 115
8, 240720, Note_on_c, 3, 54, 0
8, 240720, Note_on_c, 3, 55, 115
8, 240960, Note_on_c, 3, 55, 0
8, 240960, Note_on_c, 3, 57, 115
8, 241200, Note_on_c, 3, 57, 0
8, 241200, Note_on_c, 3, 50, 115
8, 241440, Note_on_c, 3, 50, 0
8, 241440, Note_on_c, 3, 52, 115
8, 241680, Note_on_c, 3, 52, 0
8, 241680, Note_on_c, 3, 54, 115
8, 241920, Note_on_c, 3, 54, 0
8, 241920, Note_on_c, 3, 55, 115
8, 242160, Note_on_c, 3, 55, 0
8, 242160, Note_on_c, 3, 54, 115
8, 242400, Note_on_c, 3, 54, 0
8, 242400, Note_on_c, 3, 55, 115
8, 242640, Note_on_c, 3, 55, 0
8, 242640, Note_on_c, 3, 57, 115
8, 242880, Note_on_c, 3, 57, 0
8, 242880, Note_on_c, 3, 59, 115
8, 243120, Note_on_c, 3, 59, 0
8, 243120, Note_on_c, 3, 61, 115
8, 243360, Note_on_c, 3, 61, 0
8, 243360, Note_on_c, 3, 62, 115
8, 244320, Note_on_c, 3, 62, 0
8, 244320, Note_on_c, 3, 60, 115
8, 244800, Note_on_c, 3, 60, 0
8, 244800, Note_on_c, 3, 59, 115
8, 245280, Note_on_c, 3, 59, 0
8, 245280, Note_on_c, 3, 55, 115
8, 245760, Note_on_c, 3, 55, 0
8, 245760, Note_on_c, 3, 64, 115
8, 246240, Note_on_c, 3, 64, 0
8, 246240, Note_on_c, 3, 60, 115
8, 246720, Note_on_c, 3, 60, 0
8, 246720, Note_on_c, 3, 57, 115
8, 247200, Note_on_c, 3, 57, 0
8, 247200, Note_on_c, 3, 65, 115
8, 247680, Note_on_c, 3, 65, 0
8, 247680, Note_on_c, 3, 62, 115
8, 248160, Note_on_c, 3, 62, 0
8, 248160, Note_on_c, 3, 59, 115
8, 248640, Note_on_c, 3, 59, 0
8, 248640, Note_on_c, 3, 67, 115
8, 249120, Note_on_c, 3, 67, 0
8, 249120, Note_on_c, 3, 55, 115
8, 250560, Note_on_c, 3, 55, 0
8, 250560, Note_on_c, 3, 60, 115
8, 252000, Note_on_c, 3, 60, 0
8, 252000, Note_on_c, 3, 62, 115
8, 253440, Note_on_c, 3, 62, 0
8, 253440, Note_on_c, 3, 67, 115
8, 254880, Note_on_c, 3, 67, 0
8, 254880, Note_on_c, 3, 62, 115
8, 255840, Note_on_c, 3, 62, 0
8, 255840, Note_on_c, 3, 62, 115
8, 256080, Note_on_c, 3, 62, 0
8, 256080, Note_on_c, 3, 60, 115
8, 256320, Note_on_c, 3, 60, 0
8, 256320, Note_on_c, 3, 59, 115
8, 256800, Note_on_c, 3, 59, 0
8, 257760, Note_on_c, 3, 59, 115
8, 258240, Note_on_c, 3, 59, 0
8, 259200, Note_on_c, 3, 59, 115
8, 259680, Note_on_c, 3, 59, 0
8, 273120, Note_on_c, 3, 60, 115
8, 273600, Note_on_c, 3, 60, 0
8, 273600, Note_on_c, 3, 59, 115
8, 273840, Note_on_c, 3, 59, 0
8, 273840, Note_on_c, 3, 60, 115
8, 274080, Note_on_c, 3, 60, 0
8, 274080, Note_on_c, 3, 62, 115
8, 274320, Note_on_c, 3, 62, 0
8, 274320, Note_on_c, 3, 55, 115
8, 274560, Note_on_c, 3, 55, 0
8, 274560, Note_on_c, 3, 57, 115
8, 274800, Note_on_c, 3, 57, 0
8, 274800, Note_on_c, 3, 59, 115
8, 275040, Note_on_c, 3, 59, 0
8, 275040, Note_on_c, 3, 60, 115
8, 275280, Note_on_c, 3, 60, 0
8, 275280, Note_on_c, 3, 59, 115
8, 275520, Note_on_c, 3, 59, 0
8, 275520, Note_on_c, 3, 60, 115
8, 275760, Note_on_c, 3, 60, 0
8, 275760, Note_on_c, 3, 62, 115
8, 276000, Note_on_c, 3, 62, 0
8, 276000, Note_on_c, 3, 64, 115
8, 276240, Note_on_c, 3, 64, 0
8, 276240, Note_on_c, 3, 65, 115
8, 276480, Note_on_c, 3, 65, 0
8, 276480, Note_on_c, 3, 67, 115
8, 277440, Note_on_c, 3, 67, 0
8, 277440, Note_on_c, 3, 65, 115
8, 277920, Note_on_c, 3, 65, 0
8, 277920, Note_on_c, 3, 64, 115
8, 278400, Note_on_c, 3, 64, 0
8, 278400, Note_on_c, 3, 60, 115
8, 278880, Note_on_c, 3, 60, 0
8, 284640, Note_on_c, 3, 65, 115
8, 285600, Note_on_c, 3, 65, 0
8, 285600, Note_on_c, 3, 55, 115
8, 286080, Note_on_c, 3, 55, 0
8, 286080, Note_on_c, 3, 65, 115
8, 287040, Note_on_c, 3, 65, 0
8, 287040, Note_on_c, 3, 64, 115
8, 287520, Note_on_c, 3, 64, 0
8, 290400, Note_on_c, 3, 60, 115
8, 290880, Note_on_c, 3, 60, 0
8, 290880, Note_on_c, 3, 59, 115
8, 291120, Note_on_c, 3, 59, 0
8, 291120, Note_on_c, 3, 60, 115
8, 291360, Note_on_c, 3, 60, 0
8, 291360, Note_on_c, 3, 62, 115
8, 291600, Note_on_c, 3, 62, 0
8, 291600, Note_on_c, 3, 55, 115
8, 291840, Note_on_c, 3, 55, 0
8, 291840, Note_on_c, 3, 57, 115
8, 292080, Note_on_c, 3, 57, 0
8, 292080, Note_on_c, 3, 59, 115
8, 292320, Note_on_c, 3, 59, 0
8, 292320, Note_on_c, 3, 60, 115
8, 292560, Note_on_c, 3, 60, 0
8, 292560, Note_on_c, 3, 59, 115
8, 292800, Note_on_c, 3, 59, 0
8, 292800, Note_on_c, 3, 60, 115
8, 293040, Note_on_c, 3, 60, 0
8, 293040, Note_on_c, 3, 62, 115
8, 293280, Note_on_c, 3, 62, 0
8, 293280, Note_on_c, 3, 64, 115
8, 293520, Note_on_c, 3, 64, 0
8, 293520, Note_on_c, 3, 65, 115
8, 293760, Note_on_c, 3, 65, 0
8, 293760, Note_on_c, 3, 67, 115
8, 294720, Note_on_c, 3, 67, 0
8, 294720, Note_on_c, 3, 65, 115
8, 295200, Note_on_c, 3, 65, 0
8, 295200, Note_on_c, 3, 64, 115
8, 295680, Note_on_c, 3, 64, 0
8, 295680, Note_on_c, 3, 60, 115
8, 296160, Note_on_c, 3, 60, 0
8, 296160, Note_on_c, 3, 64, 115
8, 296640, Note_on_c, 3, 64, 0
8, 296640, Note_on_c, 3, 67, 115
8, 297600, Note_on_c, 3, 67, 0
8, 297600, Note_on_c, 3, 65, 115
8, 298080, Note_on_c, 3, 65, 0
8, 298080, Note_on_c, 3, 64, 115
8, 298560, Note_on_c, 3, 64, 0
8, 298560, Note_on_c, 3, 60, 115
8, 299040, Note_on_c, 3, 60, 0
8, 299040, Note_on_c, 3, 64, 115
8, 299520, Note_on_c, 3, 64, 0
8, 299520, Note_on_c, 3, 67, 115
8, 300480, Note_on_c, 3, 67, 0
8, 300480, Note_on_c, 3, 65, 115
8, 300960, Note_on_c, 3, 65, 0
8, 300960, Note_on_c, 3, 64, 115
8, 301440, Note_on_c, 3, 64, 0
8, 301440, Note_on_c, 3, 60, 115
8, 301920, Note_on_c, 3, 60, 0
8, 301920, Note_on_c, 3, 65, 115
8, 302400, Note_on_c, 3, 65, 0
8, 302400, Note_on_c, 3, 62, 115
8, 302880, Note_on_c, 3, 62, 0
8, 302880, Note_on_c, 3, 59, 115
8, 303360, Note_on_c, 3, 59, 0
8, 303360, Note_on_c, 3, 64, 115
8, 303840, Note_on_c, 3, 64, 0
8, 303840, Note_on_c, 3, 60, 115
8, 304320, Note_on_c, 3, 60, 0
8, 304320, Note_on_c, 3, 57, 115
8, 304800, Note_on_c, 3, 57, 0
8, 304800, Note_on_c, 3, 62, 115
8, 305280, Note_on_c, 3, 62, 0
8, 305280, Note_on_c, 3, 59, 115
8, 305760, Note_on_c, 3, 59, 0
8, 305760, Note_on_c, 3, 55, 115
8, 306240, Note_on_c, 3, 55, 0
8, 306240, Note_on_c, 3, 62, 115
8, 306720, Note_on_c, 3, 62, 0
8, 306720, Note_on_c, 3, 59, 115
8, 307200, Note_on_c, 3, 59, 0
8, 307200, Note_on_c, 3, 67, 115
8, 307680, Note_on_c, 3, 67, 0
8, 307680, Note_on_c, 3, 59, 115
8, 308160, Note_on_c, 3, 59, 0
8, 308160, Note_on_c, 3, 60, 115
8, 308640, Note_on_c, 3, 60, 0
8, 309600, Note_on_c, 3, 60, 115
8, 310080, Note_on_c, 3, 60, 0
8, 311040, Note_on_c, 3, 60, 115
8, 311520, Note_on_c, 3, 60, 0
8, 336480, Note_on_c, 3, 65, 78
8, 336960, Note_on_c, 3, 65, 0
8, 336960, Note_on_c, 3, 62, 78
8, 338400, Note_on_c, 3, 62, 0
8, 338400, Note_on_c, 3, 60, 78
8, 339840, Note_on_c, 3, 60, 0
8, 339840, Note_on_c, 3, 60, 78
8, 341280, Note_on_c, 3, 60, 0
8, 341280, Note_on_c, 3, 53, 78
8, 342720, Note_on_c, 3, 53, 0
8, 342720, Note_on_c, 3, 55, 78
8, 345600, Note_on_c, 3, 55, 0
8, 345600, Note_on_c, 3, 55, 78
8, 348480, Note_on_c, 3, 55, 0
8, 348480, Note_on_c, 3, 55, 78
8, 349920, Note_on_c, 3, 55, 0
8, 349920, Note_on_c, 3, 55, 78
8, 351360, Note_on_c, 3, 55, 0
8, 351360, Note_on_c, 3, 55, 78
8, 351840, Note_on_c, 3, 55, 0
8, 355680, Note_on_c, 3, 67, 78
8, 356160, Note_on_c, 3, 67, 0
8, 356160, Note_on_c, 3, 65, 78
8, 356640, Note_on_c, 3, 65, 0
8, 356640, Note_on_c, 3, 62, 78
8, 357120, Note_on_c, 3, 62, 0
8, 357120, Note_on_c, 3, 59, 78
8, 357600, Note_on_c, 3, 59, 0
8, 358560, Note_on_c, 3, 56, 78
8, 359040, Note_on_c, 3, 56, 0
8, 360000, Note_on_c, 3, 55, 78
8, 360480, Note_on_c, 3, 55, 0
8, 375840, Note_on_c, 3, 55, 78
8, 376800, Note_on_c, 3, 55, 0
8, 376800, Note_on_c, 3, 59, 78
8, 377280, Note_on_c, 3, 59, 0
8, 377280, Note_on_c, 3, 60, 78
8, 377760, Note_on_c, 3, 60, 0
8, 378240, Note_on_c, 3, 62, 78
8, 378720, Note_on_c, 3, 62, 0
8, 378720, Note_on_c, 3, 65, 78
8, 379200, Note_on_c, 3, 65, 0
8, 379680, Note_on_c, 3, 63, 78
8, 380160, Note_on_c, 3, 63, 0
8, 380160, Note_on_c, 3, 62, 78
8, 381120, Note_on_c, 3, 62, 0
8, 381120, Note_on_c, 3, 43, 91
8, 381600, Note_on_c, 3, 43, 0
8, 381600, Note_on_c, 3, 48, 91
8, 382080, Note_on_c, 3, 48, 0
8, 382080, Note_on_c, 3, 51, 91
8, 382560, Note_on_c, 3, 51, 0
8, 382560, Note_on_c, 3, 55, 91
8, 383040, Note_on_c, 3, 55, 0
8, 383040, Note_on_c, 3, 60, 91
8, 383520, Note_on_c, 3, 60, 0
8, 384000, Note_on_c, 3, 63, 91
8, 384480, Note_on_c, 3, 63, 0
8, 384480, Note_on_c, 3, 62, 91
8, 384960, Note_on_c, 3, 62, 0
8, 385440, Note_on_c, 3, 54, 91
8, 385920, Note_on_c, 3, 54, 0
8, 385920, Note_on_c, 3, 55, 91
8, 386400, Note_on_c, 3, 55, 0
8, 386880, Note_on_c, 3, 49, 91
8, 387360, Note_on_c, 3, 49, 0
8, 387360, Note_on_c, 3, 50, 91
8, 387840, Note_on_c, 3, 50, 0
8, 388320, Note_on_c, 3, 49, 91
8, 388800, Note_on_c, 3, 49, 0
8, 388800, Note_on_c, 3, 50, 91
8, 389280, Note_on_c, 3, 50, 0
8, 389760, Note_on_c, 3, 48, 91
8, 390240, Note_on_c, 3, 48, 0
8, 390240, Note_on_c, 3, 47, 91
8, 390720, Note_on_c, 3, 47, 0
8, 391200, Note_on_c, 3, 43, 91
8, 391680, Note_on_c, 3, 43, 0
8, 391680, Note_on_c, 3, 48, 91
8, 392160, Note_on_c, 3, 48, 0
8, 392640, Note_on_c, 3, 47, 91
8, 393120, Note_on_c, 3, 47, 0
8, 393120, Note_on_c, 3, 48, 91
8, 393600, Note_on_c, 3, 48, 0
8, 394080, Note_on_c, 3, 42, 91
8, 394560, Note_on_c, 3, 42, 0
8, 394560, Note_on_c, 3, 43, 91
8, 395040, Note_on_c, 3, 43, 0
8, 401760, Note_on_c, 3, 62, 78
8, 402240, Note_on_c, 3, 62, 0
8, 403200, Note_on_c, 3, 60, 78
8, 403680, Note_on_c, 3, 60, 0
8, 404640, Note_on_c, 3, 60, 78
8, 405120, Note_on_c, 3, 60, 0
8, 406080, Note_on_c, 3, 53, 78
8, 406560, Note_on_c, 3, 53, 0
8, 413280, Note_on_c, 3, 60, 78
8, 413760, Note_on_c, 3, 60, 0
8, 414720, Note_on_c, 3, 65, 78
8, 415200, Note_on_c, 3, 65, 0
8, 416160, Note_on_c, 3, 65, 78
8, 416640, Note_on_c, 3, 65, 0
8, 417600, Note_on_c, 3, 58, 78
8, 418080, Note_on_c, 3, 58, 0
8, 419040, Note_on_c, 3, 56, 78
8, 419520, Note_on_c, 3, 56, 0
8, 420480, Note_on_c, 3, 61, 78
8, 420960, Note_on_c, 3, 61, 0
8, 421920, Note_on_c, 3, 58, 78
8, 422400, Note_on_c, 3, 58, 0
8, 423360, Note_on_c, 3, 60, 78
8, 423840, Note_on_c, 3, 60, 0
8, 424320, Note_on_c, 3, 61, 78
8, 424800, Note_on_c, 3, 61, 0
8, 424800, Note_on_c, 3, 60, 78
8, 425280, Note_on_c, 3, 60, 0
8, 425760, Note_on_c, 3, 60, 78
8, 426240, Note_on_c, 3, 60, 0
8, 426240, Note_on_c, 3, 60, 78
8, 426720, Note_on_c, 3, 60, 0
8, 427200, Note_on_c, 3, 61, 78
8, 427680, Note_on_c, 3, 61, 0
8, 427680, Note_on_c, 3, 60, 78
8, 428160, Note_on_c, 3, 60, 0
8, 428640, Note_on_c, 3, 60, 78
8, 429120, Note_on_c, 3, 60, 0
8, 429120, Note_on_c, 3, 60, 78
8, 429600, Note_on_c, 3, 60, 0
8, 430080, Note_on_c, 3, 60, 78
8, 430560, Note_on_c, 3, 60, 0
8, 430560, Note_on_c, 3, 60, 78
8, 431040, Note_on_c, 3, 60, 0
8, 431520, Note_on_c, 3, 60, 78
8, 432000, Note_on_c, 3, 60, 0
8, 432000, Note_on_c, 3, 60, 78
8, 432480, Note_on_c, 3, 60, 0
8, 432960, Note_on_c, 3, 43, 78
8, 433440, Note_on_c, 3, 43, 0
8, 433440, Note_on_c, 3, 48, 78
8, 433920, Note_on_c, 3, 48, 0
8, 433920, Note_on_c, 3, 51, 78
8, 434400, Note_on_c, 3, 51, 0
8, 434400, Note_on_c, 3, 55, 78
8, 434880, Note_on_c, 3, 55, 0
8, 434880, Note_on_c, 3, 60, 78
8, 435360, Note_on_c, 3, 60, 0
8, 435840, Note_on_c, 3, 63, 78
8, 436320, Note_on_c, 3, 63, 0
8, 436320, Note_on_c, 3, 62, 78
8, 436800, Note_on_c, 3, 62, 0
8, 437280, Note_on_c, 3, 54, 78
8, 437760, Note_on_c, 3, 54, 0
8, 437760, Note_on_c, 3, 55, 78
8, 438240, Note_on_c, 3, 55, 0
8, 439200, Note_on_c, 3, 67, 78
8, 439680, Note_on_c, 3, 67, 0
8, 440160, Note_on_c, 3, 67, 78
8, 440640, Note_on_c, 3, 67, 0
8, 440640, Note_on_c, 3, 67, 78
8, 441120, Note_on_c, 3, 67, 0
8, 441600, Note_on_c, 3, 65, 78
8, 442080, Note_on_c, 3, 65, 0
8, 442080, Note_on_c, 3, 63, 78
8, 442560, Note_on_c, 3, 63, 0
8, 443040, Note_on_c, 3, 67, 78
8, 443520, Note_on_c, 3, 67, 0
8, 443520, Note_on_c, 3, 67, 78
8, 444000, Note_on_c, 3, 67, 0
8, 444960, Note_on_c, 3, 67, 78
8, 445440, Note_on_c, 3, 67, 0
8, 445920, Note_on_c, 3, 65, 78
8, 446400, Note_on_c, 3, 65, 0
8, 446400, Note_on_c, 3, 67, 78
8, 446880, Note_on_c, 3, 67, 0
8, 447360, Note_on_c, 3, 63, 78
8, 447840, Note_on_c, 3, 63, 0
8, 447840, Note_on_c, 3, 60, 78
8, 448320, Note_on_c, 3, 60, 0
8, 448800, Note_on_c, 3, 62, 78
8, 449280, Note_on_c, 3, 62, 0
8, 449280, Note_on_c, 3, 63, 78
8, 449760, Note_on_c, 3, 63, 0
8, 451200, Note_on_c, 3, 68, 78
8, 451680, Note_on_c, 3, 68, 0
8, 451680, Note_on_c, 3, 67, 78
8, 452160, Note_on_c, 3, 67, 0
8, 452640, Note_on_c, 3, 68, 78
8, 453120, Note_on_c, 3, 68, 0
8, 453120, Note_on_c, 3, 67, 78
8, 453600, Note_on_c, 3, 67, 0
8, 454080, Note_on_c, 3, 65, 78
8, 454560, Note_on_c, 3, 65, 0
8, 454560, Note_on_c, 3, 67, 78
8, 455040, Note_on_c, 3, 67, 0
8, 455520, Note_on_c, 3, 67, 78
8, 456000, Note_on_c, 3, 67, 0
8, 456000, Note_on_c, 3, 68, 78
8, 456480, Note_on_c, 3, 68, 0
8, 456960, Note_on_c, 3, 65, 78
8, 457440, Note_on_c, 3, 65, 0
8, 457440, Note_on_c, 3, 67, 78
8, 457920, Note_on_c, 3, 67, 0
8, 457920, Note_on_c, 3, 67, 78
8, 458400, Note_on_c, 3, 67, 0
8, 458400, Note_on_c, 3, 65, 78
8, 458880, Note_on_c, 3, 65, 0
8, 458880, Note_on_c, 3, 56, 78
8, 459360, Note_on_c, 3, 56, 0
8, 459360, Note_on_c, 3, 55, 78
8, 459840, Note_on_c, 3, 55, 0
8, 460320, Note_on_c, 3, 59, 78
8, 460800, Note_on_c, 3, 59, 0
8, 460800, Note_on_c, 3, 60, 78
8, 461280, Note_on_c, 3, 60, 0
8, 461760, Note_on_c, 3, 56, 78
8, 462240, Note_on_c, 3, 56, 0
8, 462240, Note_on_c, 3, 55, 78
8, 462720, Note_on_c, 3, 55, 0
8, 463200, Note_on_c, 3, 47, 78
8, 463680, Note_on_c, 3, 47, 0
8, 463680, Note_on_c, 3, 48, 78
8, 464160, Note_on_c, 3, 48, 0
8, 464640, Note_on_c, 3, 56, 78
8, 465120, Note_on_c, 3, 56, 0
8, 465120, Note_on_c, 3, 55, 78
8, 465600, Note_on_c, 3, 55, 0
8, 466080, Note_on_c, 3, 59, 78
8, 466560, Note_on_c, 3, 59, 0
8, 466560, Note_on_c, 3, 60, 78
8, 467040, Note_on_c, 3, 60, 0
8, 467520, Note_on_c, 3, 56, 78
8, 468000, Note_on_c, 3, 56, 0
8, 468000, Note_on_c, 3, 55, 78
8, 468480, Note_on_c, 3, 55, 0
8, 468960, Note_on_c, 3, 47, 78
8, 469440, Note_on_c, 3, 47, 0
8, 469440, Note_on_c, 3, 48, 78
8, 469920, Note_on_c, 3, 48, 0
8, 470400, Note_on_c, 3, 56, 78
8, 470880, Note_on_c, 3, 56, 0
8, 470880, Note_on_c, 3, 55, 78
8, 471360, Note_on_c, 3, 55, 0
8, 471840, Note_on_c, 3, 59, 78
8, 472320, Note_on_c, 3, 59, 0
8, 472320, Note_on_c, 3, 60, 78
8, 472800, Note_on_c, 3, 60, 0
8, 473280, Note_on_c, 3, 58, 78
8, 473760, Note_on_c, 3, 58, 0
8, 473760, Note_on_c, 3, 56, 78
8, 474240, Note_on_c, 3, 56, 0
8, 474720, Note_on_c, 3, 53, 78
8, 475200, Note_on_c, 3, 53, 0
8, 475200, Note_on_c, 3, 55, 78
8, 475680, Note_on_c, 3, 55, 0
8, 476160, Note_on_c, 3, 53, 78
8, 476640, Note_on_c, 3, 53, 0
8, 476640, Note_on_c, 3, 51, 78
8, 477120, Note_on_c, 3, 51, 0
8, 477600, Note_on_c, 3, 50, 78
8, 478080, Note_on_c, 3, 50, 0
8, 478080, Note_on_c, 3, 48, 78
8, 478560, Note_on_c, 3, 48, 0
8, 479040, Note_on_c, 3, 46, 78
8, 479520, Note_on_c, 3, 46, 0
8, 479520, Note_on_c, 3, 44, 78
8, 480000, Note_on_c, 3, 44, 0
8, 480480, Note_on_c, 3, 43, 78
8, 480960, Note_on_c, 3, 43, 0
8, 480960, Note_on_c, 3, 41, 78
8, 481440, Note_on_c, 3, 41, 0
8, 481920, Note_on_c, 3, 42, 78
8, 482400, Note_on_c, 3, 42, 0
8, 482400, Note_on_c, 3, 43, 78
8, 482880, Note_on_c, 3, 43, 0
8, 482880, Note_on_c, 3, 43, 78
8, 483360, Note_on_c, 3, 43, 0
8, 483360, Note_on_c, 3, 43, 78
8, 483840, Note_on_c, 3, 43, 0
8, 483840, Note_on_c, 3, 36, 78
8, 484320, Note_on_c, 3, 36, 0
8, 486720, Note_on_c, 3, 67, 78
8, 487200, Note_on_c, 3, 67, 0
8, 487200, Note_on_c, 3, 67, 78
8, 487680, Note_on_c, 3, 67, 0
8, 487680, Note_on_c, 3, 67, 78
8, 488160, Note_on_c, 3, 67, 0
8, 489600, Note_on_c, 3, 67, 78
8, 490080, Note_on_c, 3, 67, 0
8, 490080, Note_on_c, 3, 67, 78
8, 490560, Note_on_c, 3, 67, 0
8, 490560, Note_on_c, 3, 67, 78
8, 491040, Note_on_c, 3, 67, 0
8, 491040, Note_on_c, 3, 60, 78
8, 491520, Note_on_c, 3, 60, 0
8, 491520, Note_on_c, 3, 60, 78
8, 492000, Note_on_c, 3, 60, 0
8, 492000, Note_on_c, 3, 60, 78
8, 492480, Note_on_c, 3, 60, 0
8, 492480, Note_on_c, 3, 60, 78
8, 492960, Note_on_c, 3, 60, 0
8, 493920, Note_on_c, 3, 55, 78
8, 494400, Note_on_c, 3, 55, 0
8, 495360, Note_on_c, 3, 48, 78
8, 495840, Note_on_c, 3, 48, 0
8, 555840, Note_on_c, 3, 60, 78
8, 561600, Note_on_c, 3, 60, 0
8, 561600, Note_on_c, 3, 60, 91
8, 567360, Note_on_c, 3, 60, 0
8, 567360, End_track
9, 0, Start_track
9, 0, MIDI_port, 0
9, 0, Title_t, "Bassoon 2"
9, 8640, Note_on_c, 3, 60, 91
9, 9600, Note_on_c, 3, 60, 0
9, 9600, Note_on_c, 3, 59, 91
9, 10080, Note_on_c, 3, 59, 0
9, 10080, Note_on_c, 3, 62, 91
9, 11040, Note_on_c, 3, 62, 0
9, 11040, Note_on_c, 3, 60, 91
9, 11520, Note_on_c, 3, 60, 0
9, 11520, Note_on_c, 3, 59, 91
9, 12480, Note_on_c, 3, 59, 0
9, 23040, Note_on_c, 3, 60, 91
9, 24000, Note_on_c, 3, 60, 0
9, 24000, Note_on_c, 3, 62, 91
9, 24480, Note_on_c, 3, 62, 0
9, 24480, Note_on_c, 3, 62, 91
9, 25440, Note_on_c, 3, 62, 0
9, 25440, Note_on_c, 3, 60, 91
9, 25920, Note_on_c, 3, 60, 0
9, 25920, Note_on_c, 3, 59, 91
9, 27360, Note_on_c, 3, 59, 0
9, 38880, Note_on_c, 3, 46, 115
9, 39360, Note_on_c, 3, 46, 0
9, 39360, Note_on_c, 3, 46, 115
9, 39840, Note_on_c, 3, 46, 0
9, 39840, Note_on_c, 3, 46, 115
9, 40320, Note_on_c, 3, 46, 0
9, 40320, Note_on_c, 3, 46, 115
9, 41760, Note_on_c, 3, 46, 0
9, 41760, Note_on_c, 3, 46, 115
9, 42240, Note_on_c, 3, 46, 0
9, 42240, Note_on_c, 3, 46, 115
9, 42720, Note_on_c, 3, 46, 0
9, 42720, Note_on_c, 3, 46, 115
9, 43200, Note_on_c, 3, 46, 0
9, 43200, Note_on_c, 3, 46, 115
9, 44640, Note_on_c, 3, 46, 0
9, 44640, Note_on_c, 3, 46, 115
9, 45120, Note_on_c, 3, 46, 0
9, 45120, Note_on_c, 3, 46, 115
9, 45600, Note_on_c, 3, 46, 0
9, 45600, Note_on_c, 3, 46, 115
9, 46080, Note_on_c, 3, 46, 0
9, 46080, Note_on_c, 3, 46, 115
9, 47520, Note_on_c, 3, 46, 0
9, 47520, Note_on_c, 3, 63, 115
9, 48960, Note_on_c, 3, 63, 0
9, 48960, Note_on_c, 3, 56, 115
9, 50400, Note_on_c, 3, 56, 0
9, 50400, Note_on_c, 3, 61, 115
9, 51840, Note_on_c, 3, 61, 0
9, 51840, Note_on_c, 3, 54, 115
9, 53280, Note_on_c, 3, 54, 0
9, 53280, Note_on_c, 3, 56, 115
9, 54720, Note_on_c, 3, 56, 0
9, 54720, Note_on_c, 3, 58, 115
9, 55680, Note_on_c, 3, 58, 0
9, 55680, Note_on_c, 3, 52, 115
9, 56160, Note_on_c, 3, 52, 0
9, 56160, Note_on_c, 3, 51, 115
9, 58560, Note_on_c, 3, 51, 0
9, 58560, Note_on_c, 3, 52, 115
9, 59040, Note_on_c, 3, 52, 0
9, 59040, Note_on_c, 3, 51, 115
9, 60000, Note_on_c, 3, 51, 0
9, 60000, Note_on_c, 3, 39, 115
9, 60480, Note_on_c, 3, 39, 0
9, 60480, Note_on_c, 3, 46, 115
9, 61440, Note_on_c, 3, 46, 0
9, 61440, Note_on_c, 3, 39, 115
9, 61920, Note_on_c, 3, 39, 0
9, 61920, Note_on_c, 3, 46, 115
9, 62880, Note_on_c, 3, 46, 0
9, 62880, Note_on_c, 3, 39, 115
9, 63360, Note_on_c, 3, 39, 0
9, 63360, Note_on_c, 3, 46, 115
9, 65280, Note_on_c, 3, 46, 0
9, 69120, Note_on_c, 3, 53, 91
9, 74880, Note_on_c, 3, 53, 0
9, 74880, Note_on_c, 3, 53, 91
9, 75840, Note_on_c, 3, 53, 0
9, 102240, Note_on_c, 3, 62, 115
9, 103680, Note_on_c, 3, 62, 0
9, 103680, Note_on_c, 3, 63, 115
9, 105120, Note_on_c, 3, 63, 0
9, 105120, Note_on_c, 3, 62, 115
9, 106560, Note_on_c, 3, 62, 0
9, 106560, Note_on_c, 3, 60, 115
9, 108000, Note_on_c, 3, 60, 0
9, 108000, Note_on_c, 3, 62, 115
9, 109440, Note_on_c, 3, 62, 0
9, 109440, Note_on_c, 3, 63, 115
9, 110880, Note_on_c, 3, 63, 0
9, 110880, Note_on_c, 3, 65, 115
9, 112320, Note_on_c, 3, 65, 0
9, 112320, Note_on_c, 3, 58, 115
9, 112800, Note_on_c, 3, 58, 0
9, 113760, Note_on_c, 3, 48, 123
9, 114240, Note_on_c, 3, 48, 0
9, 114240, Note_on_c, 3, 48, 123
9, 114720, Note_on_c, 3, 48, 0
9, 114720, Note_on_c, 3, 48, 123
9, 115200, Note_on_c, 3, 48, 0
9, 115200, Note_on_c, 3, 48, 123
9, 116640, Note_on_c, 3, 48, 0
9, 116640, Note_on_c, 3, 48, 123
9, 117120, Note_on_c, 3, 48, 0
9, 117120, Note_on_c, 3, 48, 123
9, 117600, Note_on_c, 3, 48, 0
9, 117600, Note_on_c, 3, 48, 123
9, 118080, Note_on_c, 3, 48, 0
9, 118080, Note_on_c, 3, 48, 123
9, 119520, Note_on_c, 3, 48, 0
9, 119520, Note_on_c, 3, 48, 123
9, 120000, Note_on_c, 3, 48, 0
9, 120000, Note_on_c, 3, 48, 123
9, 120480, Note_on_c, 3, 48, 0
9, 120480, Note_on_c, 3, 48, 123
9, 120960, Note_on_c, 3, 48, 0
9, 120960, Note_on_c, 3, 48, 123
9, 122400, Note_on_c, 3, 48, 0
9, 122400, Note_on_c, 3, 60, 123
9, 122880, Note_on_c, 3, 60, 0
9, 122880, Note_on_c, 3, 58, 123
9, 123360, Note_on_c, 3, 58, 0
9, 123360, Note_on_c, 3, 56, 123
9, 123840, Note_on_c, 3, 56, 0
9, 123840, Note_on_c, 3, 55, 123
9, 125280, Note_on_c, 3, 55, 0
9, 125280, Note_on_c, 3, 56, 123
9, 126720, Note_on_c, 3, 56, 0
9, 126720, Note_on_c, 3, 53, 123
9, 128160, Note_on_c, 3, 53, 0
9, 128160, Note_on_c, 3, 56, 123
9, 128640, Note_on_c, 3, 56, 0
9, 128640, Note_on_c, 3, 55, 123
9, 129120, Note_on_c, 3, 55, 0
9, 129120, Note_on_c, 3, 53, 123
9, 129600, Note_on_c, 3, 53, 0
9, 129600, Note_on_c, 3, 52, 123
9, 132000, Note_on_c, 3, 52, 0
9, 132000, Note_on_c, 3, 53, 123
9, 132480, Note_on_c, 3, 53, 0
9, 132480, Note_on_c, 3, 52, 123
9, 134880, Note_on_c, 3, 52, 0
9, 134880, Note_on_c, 3, 53, 123
9, 135360, Note_on_c, 3, 53, 0
9, 135360, Note_on_c, 3, 52, 123
9, 136320, Note_on_c, 3, 52, 0
9, 136320, Note_on_c, 3, 53, 123
9, 136800, Note_on_c, 3, 53, 0
9, 136800, Note_on_c, 3, 52, 123
9, 137760, Note_on_c, 3, 52, 0
9, 137760, Note_on_c, 3, 53, 123
9, 138240, Note_on_c, 3, 53, 0
9, 138240, Note_on_c, 3, 52, 115
9, 140160, Note_on_c, 3, 52, 0
9, 146880, Note_on_c, 3, 67, 91
9, 147840, Note_on_c, 3, 67, 0
9, 147840, Note_on_c, 3, 65, 91
9, 148320, Note_on_c, 3, 65, 0
9, 148320, Note_on_c, 3, 63, 91
9, 149280, Note_on_c, 3, 63, 0
9, 149280, Note_on_c, 3, 67, 91
9, 149760, Note_on_c, 3, 67, 0
9, 149760, Note_on_c, 3, 67, 91
9, 150240, Note_on_c, 3, 67, 0
9, 152640, Note_on_c, 3, 67, 91
9, 153600, Note_on_c, 3, 67, 0
9, 153600, Note_on_c, 3, 63, 91
9, 154080, Note_on_c, 3, 63, 0
9, 154080, Note_on_c, 3, 60, 91
9, 155040, Note_on_c, 3, 60, 0
9, 155040, Note_on_c, 3, 62, 91
9, 155520, Note_on_c, 3, 62, 0
9, 155520, Note_on_c, 3, 63, 91
9, 156000, Note_on_c, 3, 63, 0
9, 159840, Note_on_c, 3, 55, 91
9, 165120, Note_on_c, 3, 55, 0
9, 165120, Note_on_c, 3, 56, 91
9, 165600, Note_on_c, 3, 56, 0
9, 165600, Note_on_c, 3, 55, 91
9, 166560, Note_on_c, 3, 55, 0
9, 166560, Note_on_c, 3, 59, 91
9, 167040, Note_on_c, 3, 59, 0
9, 167040, Note_on_c, 3, 60, 91
9, 168000, Note_on_c, 3, 60, 0
9, 168000, Note_on_c, 3, 56, 91
9, 168480, Note_on_c, 3, 56, 0
9, 168480, Note_on_c, 3, 55, 91
9, 169440, Note_on_c, 3, 55, 0
9, 169440, Note_on_c, 3, 47, 91
9, 169920, Note_on_c, 3, 47, 0
9, 169920, Note_on_c, 3, 48, 91
9, 170880, Note_on_c, 3, 48, 0
9, 170880, Note_on_c, 3, 56, 91
9, 171360, Note_on_c, 3, 56, 0
9, 171360, Note_on_c, 3, 55, 91
9, 172320, Note_on_c, 3, 55, 0
9, 172320, Note_on_c, 3, 59, 91
9, 172800, Note_on_c, 3, 59, 0
9, 172800, Note_on_c, 3, 60, 91
9, 173760, Note_on_c, 3, 60, 0
9, 173760, Note_on_c, 3, 56, 91
9, 174240, Note_on_c, 3, 56, 0
9, 174240, Note_on_c, 3, 55, 91
9, 175200, Note_on_c, 3, 55, 0
9, 175200, Note_on_c, 3, 47, 91
9, 175680, Note_on_c, 3, 47, 0
9, 175680, Note_on_c, 3, 48, 91
9, 176640, Note_on_c, 3, 48, 0
9, 176640, Note_on_c, 3, 56, 91
9, 177120, Note_on_c, 3, 56, 0
9, 177120, Note_on_c, 3, 55, 91
9, 178080, Note_on_c, 3, 55, 0
9, 178080, Note_on_c, 3, 59, 91
9, 178560, Note_on_c, 3, 59, 0
9, 178560, Note_on_c, 3, 60, 91
9, 179520, Note_on_c, 3, 60, 0
9, 179520, Note_on_c, 3, 58, 91
9, 180000, Note_on_c, 3, 58, 0
9, 180000, Note_on_c, 3, 56, 91
9, 180960, Note_on_c, 3, 56, 0
9, 180960, Note_on_c, 3, 53, 91
9, 181440, Note_on_c, 3, 53, 0
9, 181440, Note_on_c, 3, 55, 91
9, 182400, Note_on_c, 3, 55, 0
9, 182400, Note_on_c, 3, 53, 101
9, 182880, Note_on_c, 3, 53, 0
9, 182880, Note_on_c, 3, 51, 101
9, 183840, Note_on_c, 3, 51, 0
9, 183840, Note_on_c, 3, 50, 101
9, 184320, Note_on_c, 3, 50, 0
9, 184320, Note_on_c, 3, 48, 101
9, 185280, Note_on_c, 3, 48, 0
9, 185280, Note_on_c, 3, 46, 109
9, 185760, Note_on_c, 3, 46, 0
9, 185760, Note_on_c, 3, 44, 109
9, 186720, Note_on_c, 3, 44, 0
9, 186720, Note_on_c, 3, 43, 109
9, 187200, Note_on_c, 3, 43, 0
9, 187200, Note_on_c, 3, 41, 115
9, 188160, Note_on_c, 3, 41, 0
9, 188160, Note_on_c, 3, 42, 115
9, 188640, Note_on_c, 3, 42, 0
9, 188640, Note_on_c, 3, 43, 115
9, 189120, Note_on_c, 3, 43, 0
9, 189120, Note_on_c, 3, 55, 115
9, 189600, Note_on_c, 3, 55, 0
9, 189600, Note_on_c, 3, 55, 115
9, 190080, Note_on_c, 3, 55, 0
9, 190080, Note_on_c, 3, 48, 115
9, 190560, Note_on_c, 3, 48, 0
9, 191520, Note_on_c, 3, 59, 123
9, 192960, Note_on_c, 3, 59, 0
9, 192960, Note_on_c, 3, 60, 123
9, 194400, Note_on_c, 3, 60, 0
9, 194400, Note_on_c, 3, 62, 123
9, 195840, Note_on_c, 3, 62, 0
9, 195840, Note_on_c, 3, 63, 123
9, 197280, Note_on_c, 3, 63, 0
9, 197280, Note_on_c, 3, 55, 91
9, 197760, Note_on_c, 3, 55, 0
9, 197760, Note_on_c, 3, 55, 91
9, 198240, Note_on_c, 3, 55, 0
9, 198240, Note_on_c, 3, 55, 91
9, 198720, Note_on_c, 3, 55, 0
9, 198720, Note_on_c, 3, 53, 91
9, 199200, Note_on_c, 3, 53, 0
9, 200160, Note_on_c, 3, 55, 91
9, 200640, Note_on_c, 3, 55, 0
9, 201600, Note_on_c, 3, 48, 91
9, 202080, Note_on_c, 3, 48, 0
9, 211200, Note_on_c, 3, 57, 115
9, 211680, Note_on_c, 3, 57, 0
9, 211680, Note_on_c, 3, 54, 115
9, 211920, Note_on_c, 3, 54, 0
9, 211920, Note_on_c, 3, 55, 115
9, 212160, Note_on_c, 3, 55, 0
9, 212160, Note_on_c, 3, 57, 115
9, 212400, Note_on_c, 3, 57, 0
9, 212400, Note_on_c, 3, 50, 115
9, 212640, Note_on_c, 3, 50, 0
9, 212640, Note_on_c, 3, 52, 115
9, 212880, Note_on_c, 3, 52, 0
9, 212880, Note_on_c, 3, 54, 115
9, 213120, Note_on_c, 3, 54, 0
9, 213120, Note_on_c, 3, 55, 115
9, 213360, Note_on_c, 3, 55, 0
9, 213360, Note_on_c, 3, 54, 115
9, 213600, Note_on_c, 3, 54, 0
9, 213600, Note_on_c, 3, 55, 115
9, 213840, Note_on_c, 3, 55, 0
9, 213840, Note_on_c, 3, 57, 115
9, 214080, Note_on_c, 3, 57, 0
9, 214080, Note_on_c, 3, 59, 115
9, 214320, Note_on_c, 3, 59, 0
9, 214320, Note_on_c, 3, 61, 115
9, 214560, Note_on_c, 3, 61, 0
9, 214560, Note_on_c, 3, 62, 115
9, 215520, Note_on_c, 3, 62, 0
9, 215520, Note_on_c, 3, 60, 115
9, 216000, Note_on_c, 3, 60, 0
9, 216000, Note_on_c, 3, 59, 115
9, 216480, Note_on_c, 3, 59, 0
9, 216480, Note_on_c, 3, 55, 115
9, 216960, Note_on_c, 3, 55, 0
9, 216960, Note_on_c, 3, 64, 115
9, 217440, Note_on_c, 3, 64, 0
9, 217440, Note_on_c, 3, 60, 115
9, 217920, Note_on_c, 3, 60, 0
9, 217920, Note_on_c, 3, 57, 115
9, 218400, Note_on_c, 3, 57, 0
9, 218400, Note_on_c, 3, 65, 115
9, 218880, Note_on_c, 3, 65, 0
9, 218880, Note_on_c, 3, 62, 115
9, 219360, Note_on_c, 3, 62, 0
9, 219360, Note_on_c, 3, 59, 115
9, 219840, Note_on_c, 3, 59, 0
9, 219840, Note_on_c, 3, 67, 115
9, 220320, Note_on_c, 3, 67, 0
9, 220320, Note_on_c, 3, 43, 115
9, 221760, Note_on_c, 3, 43, 0
9, 221760, Note_on_c, 3, 48, 115
9, 223200, Note_on_c, 3, 48, 0
9, 223200, Note_on_c, 3, 50, 115
9, 224640, Note_on_c, 3, 50, 0
9, 224640, Note_on_c, 3, 55, 115
9, 226080, Note_on_c, 3, 55, 0
9, 226080, Note_on_c, 3, 62, 115
9, 227040, Note_on_c, 3, 62, 0
9, 227040, Note_on_c, 3, 62, 115
9, 227280, Note_on_c, 3, 62, 0
9, 227280, Note_on_c, 3, 60, 115
9, 227520, Note_on_c, 3, 60, 0
9, 227520, Note_on_c, 3, 55, 115
9, 228000, Note_on_c, 3, 55, 0
9, 228960, Note_on_c, 3, 55, 115
9, 229440, Note_on_c, 3, 55, 0
9, 230400, Note_on_c, 3, 55, 115
9, 230880, Note_on_c, 3, 55, 0
9, 240000, Note_on_c, 3, 57, 115
9, 240480, Note_on_c, 3, 57, 0
9, 240480, Note_on_c, 3, 54, 115
9, 240720, Note_on_c, 3, 54, 0
9, 240720, Note_on_c, 3, 55, 115
9, 240960, Note_on_c, 3, 55, 0
9, 240960, Note_on_c, 3, 57, 115
9, 241200, Note_on_c, 3, 57, 0
9, 241200, Note_on_c, 3, 50, 115
9, 241440, Note_on_c, 3, 50, 0
9, 241440, Note_on_c, 3, 52, 115
9, 241680, Note_on_c, 3, 52, 0
9, 241680, Note_on_c, 3, 54, 115
9, 241920, Note_on_c, 3, 54, 0
9, 241920, Note_on_c, 3, 55, 115
9, 242160, Note_on_c, 3, 55, 0
9, 242160, Note_on_c, 3, 54, 115
9, 242400, Note_on_c, 3, 54, 0
9, 242400, Note_on_c, 3, 55, 115
9, 242640, Note_on_c, 3, 55, 0
9, 242640, Note_on_c, 3, 57, 115
9, 242880, Note_on_c, 3, 57, 0
9, 242880, Note_on_c, 3, 59, 115
9, 243120, Note_on_c, 3, 59, 0
9, 243120, Note_on_c, 3, 61, 115
9, 243360, Note_on_c, 3, 61, 0
9, 243360, Note_on_c, 3, 62, 115
9, 244320, Note_on_c, 3, 62, 0
9, 244320, Note_on_c, 3, 60, 115
9, 244800, Note_on_c, 3, 60, 0
9, 244800, Note_on_c, 3, 59, 115
9, 245280, Note_on_c, 3, 59, 0
9, 245280, Note_on_c, 3, 55, 115
9, 245760, Note_on_c, 3, 55, 0
9, 245760, Note_on_c, 3, 64, 115
9, 246240, Note_on_c, 3, 64, 0
9, 246240, Note_on_c, 3, 60, 115
9, 246720, Note_on_c, 3, 60, 0
9, 246720, Note_on_c, 3, 57, 115
9, 247200, Note_on_c, 3, 57, 0
9, 247200, Note_on_c, 3, 65, 115
9, 247680, Note_on_c, 3, 65, 0
9, 247680, Note_on_c, 3, 62, 115
9, 248160, Note_on_c, 3, 62, 0
9, 248160, Note_on_c, 3, 59, 115
9, 248640, Note_on_c, 3, 59, 0
9, 248640, Note_on_c, 3, 67, 115
9, 249120, Note_on_c, 3, 67, 0
9, 249120, Note_on_c, 3, 43, 115
9, 250560, Note_on_c, 3, 43, 0
9, 250560, Note_on_c, 3, 48, 115
9, 252000, Note_on_c, 3, 48, 0
9, 252000, Note_on_c, 3, 50, 115
9, 253440, Note_on_c, 3, 50, 0
9, 253440, Note_on_c, 3, 55, 115
9, 254880, Note_on_c, 3, 55, 0
9, 254880, Note_on_c, 3, 62, 115
9, 255840, Note_on_c, 3, 62, 0
9, 255840, Note_on_c, 3, 62, 115
9, 256080, Note_on_c, 3, 62, 0
9, 256080, Note_on_c, 3, 60, 115
9, 256320, Note_on_c, 3, 60, 0
9, 256320, Note_on_c, 3, 55, 115
9, 256800, Note_on_c, 3, 55, 0
9, 257760, Note_on_c, 3, 55, 115
9, 258240, Note_on_c, 3, 55, 0
9, 259200, Note_on_c, 3, 55, 115
9, 259680, Note_on_c, 3, 55, 0
9, 273120, Note_on_c, 3, 60, 115
9, 273600, Note_on_c, 3, 60, 0
9, 273600, Note_on_c, 3, 59, 115
9, 273840, Note_on_c, 3, 59, 0
9, 273840, Note_on_c, 3, 60, 115
9, 274080, Note_on_c, 3, 60, 0
9, 274080, Note_on_c, 3, 62, 115
9, 274320, Note_on_c, 3, 62, 0
9, 274320, Note_on_c, 3, 55, 115
9, 274560, Note_on_c, 3, 55, 0
9, 274560, Note_on_c, 3, 57, 115
9, 274800, Note_on_c, 3, 57, 0
9, 274800, Note_on_c, 3, 59, 115
9, 275040, Note_on_c, 3, 59, 0
9, 275040, Note_on_c, 3, 60, 115
9, 275280, Note_on_c, 3, 60, 0
9, 275280, Note_on_c, 3, 59, 115
9, 275520, Note_on_c, 3, 59, 0
9, 275520, Note_on_c, 3, 60, 115
9, 275760, Note_on_c, 3, 60, 0
9, 275760, Note_on_c, 3, 62, 115
9, 276000, Note_on_c, 3, 62, 0
9, 276000, Note_on_c, 3, 64, 115
9, 276240, Note_on_c, 3, 64, 0
9, 276240, Note_on_c, 3, 65, 115
9, 276480, Note_on_c, 3, 65, 0
9, 276480, Note_on_c, 3, 67, 115
9, 277440, Note_on_c, 3, 67, 0
9, 277440, Note_on_c, 3, 65, 115
9, 277920, Note_on_c, 3, 65, 0
9, 277920, Note_on_c, 3, 64, 115
9, 278400, Note_on_c, 3, 64, 0
9, 278400, Note_on_c, 3, 60, 115
9, 278880, Note_on_c, 3, 60, 0
9, 284640, Note_on_c, 3, 65, 115
9, 285600, Note_on_c, 3, 65, 0
9, 285600, Note_on_c, 3, 55, 115
9, 286080, Note_on_c, 3, 55, 0
9, 286080, Note_on_c, 3, 65, 115
9, 287040, Note_on_c, 3, 65, 0
9, 287040, Note_on_c, 3, 64, 115
9, 287520, Note_on_c, 3, 64, 0
9, 290400, Note_on_c, 3, 60, 115
9, 290880, Note_on_c, 3, 60, 0
9, 290880, Note_on_c, 3, 59, 115
9, 291120, Note_on_c, 3, 59, 0
9, 291120, Note_on_c, 3, 60, 115
9, 291360, Note_on_c, 3, 60, 0
9, 291360, Note_on_c, 3, 62, 115
9, 291600, Note_on_c, 3, 62, 0
9, 291600, Note_on_c, 3, 55, 115
9, 291840, Note_on_c, 3, 55, 0
9, 291840, Note_on_c, 3, 57, 115
9, 292080, Note_on_c, 3, 57, 0
9, 292080, Note_on_c, 3, 59, 115
9, 292320, Note_on_c, 3, 59, 0
9, 292320, Note_on_c, 3, 60, 115
9, 292560, Note_on_c, 3, 60, 0
9, 292560, Note_on_c, 3, 59, 115
9, 292800, Note_on_c, 3, 59, 0
9, 292800, Note_on_c, 3, 60, 115
9, 293040, Note_on_c, 3, 60, 0
9, 293040, Note_on_c, 3, 62, 115
9, 293280, Note_on_c, 3, 62, 0
9, 293280, Note_on_c, 3, 60, 115
9, 293760, Note_on_c, 3, 60, 0
9, 293760, Note_on_c, 3, 59, 115
9, 294720, Note_on_c, 3, 59, 0
9, 294720, Note_on_c, 3, 62, 115
9, 295200, Note_on_c, 3, 62, 0
9, 295200, Note_on_c, 3, 60, 115
9, 295680, Note_on_c, 3, 60, 0
9, 295680, Note_on_c, 3, 55, 115
9, 296160, Note_on_c, 3, 55, 0
9, 296160, Note_on_c, 3, 60, 115
9, 296640, Note_on_c, 3, 60, 0
9, 296640, Note_on_c, 3, 59, 115
9, 297600, Note_on_c, 3, 59, 0
9, 297600, Note_on_c, 3, 62, 115
9, 298080, Note_on_c, 3, 62, 0
9, 298080, Note_on_c, 3, 60, 115
9, 298560, Note_on_c, 3, 60, 0
9, 298560, Note_on_c, 3, 55, 115
9, 299040, Note_on_c, 3, 55, 0
9, 299040, Note_on_c, 3, 60, 115
9, 299520, Note_on_c, 3, 60, 0
9, 299520, Note_on_c, 3, 59, 115
9, 300480, Note_on_c, 3, 59, 0
9, 300480, Note_on_c, 3, 62, 115
9, 300960, Note_on_c, 3, 62, 0
9, 300960, Note_on_c, 3, 60, 115
9, 301440, Note_on_c, 3, 60, 0
9, 301440, Note_on_c, 3, 57, 115
9, 301920, Note_on_c, 3, 57, 0
9, 301920, Note_on_c, 3, 57, 115
9, 302400, Note_on_c, 3, 57, 0
9, 302400, Note_on_c, 3, 59, 115
9, 302880, Note_on_c, 3, 59, 0
9, 302880, Note_on_c, 3, 55, 115
9, 303360, Note_on_c, 3, 55, 0
9, 303360, Note_on_c, 3, 55, 115
9, 303840, Note_on_c, 3, 55, 0
9, 303840, Note_on_c, 3, 57, 115
9, 304320, Note_on_c, 3, 57, 0
9, 304320, Note_on_c, 3, 53, 115
9, 304800, Note_on_c, 3, 53, 0
9, 304800, Note_on_c, 3, 53, 115
9, 305280, Note_on_c, 3, 53, 0
9, 305280, Note_on_c, 3, 50, 115
9, 305760, Note_on_c, 3, 50, 0
9, 305760, Note_on_c, 3, 47, 115
9, 306240, Note_on_c, 3, 47, 0
9, 306240, Note_on_c, 3, 53, 115
9, 306720, Note_on_c, 3, 53, 0
9, 306720, Note_on_c, 3, 50, 115
9, 307200, Note_on_c, 3, 50, 0
9, 307200, Note_on_c, 3, 59, 115
9, 307680, Note_on_c, 3, 59, 0
9, 307680, Note_on_c, 3, 53, 115
9, 308160, Note_on_c, 3, 53, 0
9, 308160, Note_on_c, 3, 52, 115
9, 308640, Note_on_c, 3, 52, 0
9, 309600, Note_on_c, 3, 52, 115
9, 310080, Note_on_c, 3, 52, 0
9, 311040, Note_on_c, 3, 52, 115
9, 311520, Note_on_c, 3, 52, 0
9, 336480, Note_on_c, 3, 53, 78
9, 336960, Note_on_c, 3, 53, 0
9, 336960, Note_on_c, 3, 55, 78
9, 338400, Note_on_c, 3, 55, 0
9, 338400, Note_on_c, 3, 48, 78
9, 339840, Note_on_c, 3, 48, 0
9, 339840, Note_on_c, 3, 48, 78
9, 341280, Note_on_c, 3, 48, 0
9, 341280, Note_on_c, 3, 41, 78
9, 342720, Note_on_c, 3, 41, 0
9, 342720, Note_on_c, 3, 43, 78
9, 345600, Note_on_c, 3, 43, 0
9, 345600, Note_on_c, 3, 43, 78
9, 348480, Note_on_c, 3, 43, 0
9, 348480, Note_on_c, 3, 43, 78
9, 349920, Note_on_c, 3, 43, 0
9, 349920, Note_on_c, 3, 43, 78
9, 351360, Note_on_c, 3, 43, 0
9, 351360, Note_on_c, 3, 43, 78
9, 351840, Note_on_c, 3, 43, 0
9, 355680, Note_on_c, 3, 67, 78
9, 356160, Note_on_c, 3, 67, 0
9, 356160, Note_on_c, 3, 65, 78
9, 356640, Note_on_c, 3, 65, 0
9, 356640, Note_on_c, 3, 62, 78
9, 357120, Note_on_c, 3, 62, 0
9, 357120, Note_on_c, 3, 59, 78
9, 357600, Note_on_c, 3, 59, 0
9, 358560, Note_on_c, 3, 56, 78
9, 359040, Note_on_c, 3, 56, 0
9, 360000, Note_on_c, 3, 55, 78
9, 360480, Note_on_c, 3, 55, 0
9, 375840, Note_on_c, 3, 55, 78
9, 377760, Note_on_c, 3, 55, 0
9, 378240, Note_on_c, 3, 59, 78
9, 378720, Note_on_c, 3, 59, 0
9, 378720, Note_on_c, 3, 62, 78
9, 379200, Note_on_c, 3, 62, 0
9, 379680, Note_on_c, 3, 60, 78
9, 380160, Note_on_c, 3, 60, 0
9, 380160, Note_on_c, 3, 59, 78
9, 381120, Note_on_c, 3, 59, 0
9, 381120, Note_on_c, 3, 43, 91
9, 381600, Note_on_c, 3, 43, 0
9, 381600, Note_on_c, 3, 48, 91
9, 382080, Note_on_c, 3, 48, 0
9, 382080, Note_on_c, 3, 51, 91
9, 382560, Note_on_c, 3, 51, 0
9, 382560, Note_on_c, 3, 55, 91
9, 383040, Note_on_c, 3, 55, 0
9, 383040, Note_on_c, 3, 60, 91
9, 383520, Note_on_c, 3, 60, 0
9, 384000, Note_on_c, 3, 63, 91
9, 384480, Note_on_c, 3, 63, 0
9, 384480, Note_on_c, 3, 62, 91
9, 384960, Note_on_c, 3, 62, 0
9, 385440, Note_on_c, 3, 54, 91
9, 385920, Note_on_c, 3, 54, 0
9, 385920, Note_on_c, 3, 55, 91
9, 386400, Note_on_c, 3, 55, 0
9, 386880, Note_on_c, 3, 49, 91
9, 387360, Note_on_c, 3, 49, 0
9, 387360, Note_on_c, 3, 50, 91
9, 387840, Note_on_c, 3, 50, 0
9, 388320, Note_on_c, 3, 49, 91
9, 388800, Note_on_c, 3, 49, 0
9, 388800, Note_on_c, 3, 50, 91
9, 389280, Note_on_c, 3, 50, 0
9, 389760, Note_on_c, 3, 48, 91
9, 390240, Note_on_c, 3, 48, 0
9, 390240, Note_on_c, 3, 47, 91
9, 390720, Note_on_c, 3, 47, 0
9, 391200, Note_on_c, 3, 43, 91
9, 391680, Note_on_c, 3, 43, 0
9, 391680, Note_on_c, 3, 48, 91
9, 392160, Note_on_c, 3, 48, 0
9, 392640, Note_on_c, 3, 47, 91
9, 393120, Note_on_c, 3, 47, 0
9, 393120, Note_on_c, 3, 48, 91
9, 393600, Note_on_c, 3, 48, 0
9, 394080, Note_on_c, 3, 42, 91
9, 394560, Note_on_c, 3, 42, 0
9, 394560, Note_on_c, 3, 43, 91
9, 395040, Note_on_c, 3, 43, 0
9, 401760, Note_on_c, 3, 62, 78
9, 402240, Note_on_c, 3, 62, 0
9, 403200, Note_on_c, 3, 60, 78
9, 403680, Note_on_c, 3, 60, 0
9, 404640, Note_on_c, 3, 60, 78
9, 405120, Note_on_c, 3, 60, 0
9, 406080, Note_on_c, 3, 53, 78
9, 406560, Note_on_c, 3, 53, 0
9, 413280, Note_on_c, 3, 60, 78
9, 413760, Note_on_c, 3, 60, 0
9, 414720, Note_on_c, 3, 65, 78
9, 415200, Note_on_c, 3, 65, 0
9, 416160, Note_on_c, 3, 65, 78
9, 416640, Note_on_c, 3, 65, 0
9, 417600, Note_on_c, 3, 58, 78
9, 418080, Note_on_c, 3, 58, 0
9, 419040, Note_on_c, 3, 56, 78
9, 419520, Note_on_c, 3, 56, 0
9, 420480, Note_on_c, 3, 61, 78
9, 420960, Note_on_c, 3, 61, 0
9, 421920, Note_on_c, 3, 58, 78
9, 422400, Note_on_c, 3, 58, 0
9, 423360, Note_on_c, 3, 60, 78
9, 423840, Note_on_c, 3, 60, 0
9, 424320, Note_on_c, 3, 61, 78
9, 424800, Note_on_c, 3, 61, 0
9, 424800, Note_on_c, 3, 60, 78
9, 425280, Note_on_c, 3, 60, 0
9, 425760, Note_on_c, 3, 60, 78
9, 426240, Note_on_c, 3, 60, 0
9, 426240, Note_on_c, 3, 60, 78
9, 426720, Note_on_c, 3, 60, 0
9, 427200, Note_on_c, 3, 61, 78
9, 427680, Note_on_c, 3, 61, 0
9, 427680, Note_on_c, 3, 60, 78
9, 428160, Note_on_c, 3, 60, 0
9, 428640, Note_on_c, 3, 60, 78
9, 429120, Note_on_c, 3, 60, 0
9, 429120, Note_on_c, 3, 60, 78
9, 429600, Note_on_c, 3, 60, 0
9, 430080, Note_on_c, 3, 60, 78
9, 430560, Note_on_c, 3, 60, 0
9, 430560, Note_on_c, 3, 60, 78
9, 431040, Note_on_c, 3, 60, 0
9, 431520, Note_on_c, 3, 60, 78
9, 432000, Note_on_c, 3, 60, 0
9, 432000, Note_on_c, 3, 60, 78
9, 432480, Note_on_c, 3, 60, 0
9, 432960, Note_on_c, 3, 43, 78
9, 433440, Note_on_c, 3, 43, 0
9, 433440, Note_on_c, 3, 48, 78
9, 433920, Note_on_c, 3, 48, 0
9, 433920, Note_on_c, 3, 51, 78
9, 434400, Note_on_c, 3, 51, 0
9, 434400, Note_on_c, 3, 55, 78
9, 434880, Note_on_c, 3, 55, 0
9, 434880, Note_on_c, 3, 60, 78
9, 435360, Note_on_c, 3, 60, 0
9, 435840, Note_on_c, 3, 63, 78
9, 436320, Note_on_c, 3, 63, 0
9, 436320, Note_on_c, 3, 62, 78
9, 436800, Note_on_c, 3, 62, 0
9, 437280, Note_on_c, 3, 54, 78
9, 437760, Note_on_c, 3, 54, 0
9, 437760, Note_on_c, 3, 55, 78
9, 438240, Note_on_c, 3, 55, 0
9, 439200, Note_on_c, 3, 67, 78
9, 439680, Note_on_c, 3, 67, 0
9, 440160, Note_on_c, 3, 65, 78
9, 440640, Note_on_c, 3, 65, 0
9, 440640, Note_on_c, 3, 63, 78
9, 441120, Note_on_c, 3, 63, 0
9, 441600, Note_on_c, 3, 62, 78
9, 442080, Note_on_c, 3, 62, 0
9, 442080, Note_on_c, 3, 60, 78
9, 442560, Note_on_c, 3, 60, 0
9, 443040, Note_on_c, 3, 63, 78
9, 443520, Note_on_c, 3, 63, 0
9, 443520, Note_on_c, 3, 55, 78
9, 444000, Note_on_c, 3, 55, 0
9, 444960, Note_on_c, 3, 55, 78
9, 445440, Note_on_c, 3, 55, 0
9, 445920, Note_on_c, 3, 62, 78
9, 446400, Note_on_c, 3, 62, 0
9, 446400, Note_on_c, 3, 63, 78
9, 446880, Note_on_c, 3, 63, 0
9, 447360, Note_on_c, 3, 60, 78
9, 447840, Note_on_c, 3, 60, 0
9, 447840, Note_on_c, 3, 57, 78
9, 448320, Note_on_c, 3, 57, 0
9, 448800, Note_on_c, 3, 59, 78
9, 449280, Note_on_c, 3, 59, 0
9, 449280, Note_on_c, 3, 60, 78
9, 449760, Note_on_c, 3, 60, 0
9, 451200, Note_on_c, 3, 68, 78
9, 451680, Note_on_c, 3, 68, 0
9, 451680, Note_on_c, 3, 67, 78
9, 452160, Note_on_c, 3, 67, 0
9, 452640, Note_on_c, 3, 65, 78
9, 453120, Note_on_c, 3, 65, 0
9, 453120, Note_on_c, 3, 63, 78
9, 453600, Note_on_c, 3, 63, 0
9, 454080, Note_on_c, 3, 62, 78
9, 454560, Note_on_c, 3, 62, 0
9, 454560, Note_on_c, 3, 63, 78
9, 455040, Note_on_c, 3, 63, 0
9, 455520, Note_on_c, 3, 63, 78
9, 456000, Note_on_c, 3, 63, 0
9, 456000, Note_on_c, 3, 65, 78
9, 456480, Note_on_c, 3, 65, 0
9, 456960, Note_on_c, 3, 62, 78
9, 457440, Note_on_c, 3, 62, 0
9, 457440, Note_on_c, 3, 63, 78
9, 457920, Note_on_c, 3, 63, 0
9, 457920, Note_on_c, 3, 63, 78
9, 458400, Note_on_c, 3, 63, 0
9, 458400, Note_on_c, 3, 62, 78
9, 458880, Note_on_c, 3, 62, 0
9, 458880, Note_on_c, 3, 56, 78
9, 459360, Note_on_c, 3, 56, 0
9, 459360, Note_on_c, 3, 55, 78
9, 459840, Note_on_c, 3, 55, 0
9, 460320, Note_on_c, 3, 59, 78
9, 460800, Note_on_c, 3, 59, 0
9, 460800, Note_on_c, 3, 60, 78
9, 461280, Note_on_c, 3, 60, 0
9, 461760, Note_on_c, 3, 56, 78
9, 462240, Note_on_c, 3, 56, 0
9, 462240, Note_on_c, 3, 55, 78
9, 462720, Note_on_c, 3, 55, 0
9, 463200, Note_on_c, 3, 47, 78
9, 463680, Note_on_c, 3, 47, 0
9, 463680, Note_on_c, 3, 48, 78
9, 464160, Note_on_c, 3, 48, 0
9, 464640, Note_on_c, 3, 56, 78
9, 465120, Note_on_c, 3, 56, 0
9, 465120, Note_on_c, 3, 55, 78
9, 465600, Note_on_c, 3, 55, 0
9, 466080, Note_on_c, 3, 59, 78
9, 466560, Note_on_c, 3, 59, 0
9, 466560, Note_on_c, 3, 60, 78
9, 467040, Note_on_c, 3, 60, 0
9, 467520, Note_on_c, 3, 56, 78
9, 468000, Note_on_c, 3, 56, 0
9, 468000, Note_on_c, 3, 55, 78
9, 468480, Note_on_c, 3, 55, 0
9, 468960, Note_on_c, 3, 47, 78
9, 469440, Note_on_c, 3, 47, 0
9, 469440, Note_on_c, 3, 48, 78
9, 469920, Note_on_c, 3, 48, 0
9, 470400, Note_on_c, 3, 56, 78
9, 470880, Note_on_c, 3, 56, 0
9, 470880, Note_on_c, 3, 55, 78
9, 471360, Note_on_c, 3, 55, 0
9, 471840, Note_on_c, 3, 59, 78
9, 472320, Note_on_c, 3, 59, 0
9, 472320, Note_on_c, 3, 60, 78
9, 472800, Note_on_c, 3, 60, 0
9, 473280, Note_on_c, 3, 58, 78
9, 473760, Note_on_c, 3, 58, 0
9, 473760, Note_on_c, 3, 56, 78
9, 474240, Note_on_c, 3, 56, 0
9, 474720, Note_on_c, 3, 53, 78
9, 475200, Note_on_c, 3, 53, 0
9, 475200, Note_on_c, 3, 55, 78
9, 475680, Note_on_c, 3, 55, 0
9, 476160, Note_on_c, 3, 53, 78
9, 476640, Note_on_c, 3, 53, 0
9, 476640, Note_on_c, 3, 51, 78
9, 477120, Note_on_c, 3, 51, 0
9, 477600, Note_on_c, 3, 50, 78
9, 478080, Note_on_c, 3, 50, 0
9, 478080, Note_on_c, 3, 48, 78
9, 478560, Note_on_c, 3, 48, 0
9, 479040, Note_on_c, 3, 46, 78
9, 479520, Note_on_c, 3, 46, 0
9, 479520, Note_on_c, 3, 44, 78
9, 480000, Note_on_c, 3, 44, 0
9, 480480, Note_on_c, 3, 43, 78
9, 480960, Note_on_c, 3, 43, 0
9, 480960, Note_on_c, 3, 41, 78
9, 481440, Note_on_c, 3, 41, 0
9, 481920, Note_on_c, 3, 42, 78
9, 482400, Note_on_c, 3, 42, 0
9, 482400, Note_on_c, 3, 43, 78
9, 482880, Note_on_c, 3, 43, 0
9, 482880, Note_on_c, 3, 43, 78
9, 483360, Note_on_c, 3, 43, 0
9, 483360, Note_on_c, 3, 43, 78
9, 483840, Note_on_c, 3, 43, 0
9, 483840, Note_on_c, 3, 36, 78
9, 484320, Note_on_c, 3, 36, 0
9, 486720, Note_on_c, 3, 67, 78
9, 487200, Note_on_c, 3, 67, 0
9, 487200, Note_on_c, 3, 67, 78
9, 487680, Note_on_c, 3, 67, 0
9, 487680, Note_on_c, 3, 67, 78
9, 488160, Note_on_c, 3, 67, 0
9, 489600, Note_on_c, 3, 67, 78
9, 490080, Note_on_c, 3, 67, 0
9, 490080, Note_on_c, 3, 67, 78
9, 490560, Note_on_c, 3, 67, 0
9, 490560, Note_on_c, 3, 67, 78
9, 491040, Note_on_c, 3, 67, 0
9, 491040, Note_on_c, 3, 60, 78
9, 491520, Note_on_c, 3, 60, 0
9, 491520, Note_on_c, 3, 60, 78
9, 492000, Note_on_c, 3, 60, 0
9, 492000, Note_on_c, 3, 60, 78
9, 492480, Note_on_c, 3, 60, 0
9, 492480, Note_on_c, 3, 60, 78
9, 492960, Note_on_c, 3, 60, 0
9, 493920, Note_on_c, 3, 55, 78
9, 494400, Note_on_c, 3, 55, 0
9, 495360, Note_on_c, 3, 48, 78
9, 495840, Note_on_c, 3, 48, 0
9, 555840, Note_on_c, 3, 48, 78
9, 561600, Note_on_c, 3, 48, 0
9, 561600, Note_on_c, 3, 48, 91
9, 567360, Note_on_c, 3, 48, 0
9, 567360, End_track
10, 0, Start_track
10, 0, MIDI_port, 0
10, 0, Title_t, "Horn 1"
10, 0, Program_c, 4, 60
10, 5760, Note_on_c, 4, 67, 91
10, 11520, Note_on_c, 4, 67, 0
10, 11520, Note_on_c, 4, 67, 91
10, 12480, Note_on_c, 4, 67, 0
10, 27360, Note_on_c, 4, 79, 123
10, 27840, Note_on_c, 4, 79, 0
10, 27840, Note_on_c, 4, 79, 123
10, 28320, Note_on_c, 4, 79, 0
10, 28320, Note_on_c, 4, 79, 123
10, 28800, Note_on_c, 4, 79, 0
10, 28800, Note_on_c, 4, 79, 123
10, 30240, Note_on_c, 4, 79, 0
10, 30240, Note_on_c, 4, 79, 123
10, 30720, Note_on_c, 4, 79, 0
10, 30720, Note_on_c, 4, 79, 123
10, 31200, Note_on_c, 4, 79, 0
10, 31200, Note_on_c, 4, 79, 123
10, 31680, Note_on_c, 4, 79, 0
10, 31680, Note_on_c, 4, 79, 123
10, 33120, Note_on_c, 4, 79, 0
10, 33120, Note_on_c, 4, 79, 123
10, 33600, Note_on_c, 4, 79, 0
10, 33600, Note_on_c, 4, 79, 123
10, 34080, Note_on_c, 4, 79, 0
10, 34080, Note_on_c, 4, 79, 123
10, 34560, Note_on_c, 4, 79, 0
10, 34560, Note_on_c, 4, 79, 123
10, 36000, Note_on_c, 4, 79, 0
10, 36000, Note_on_c, 4, 82, 123
10, 36480, Note_on_c, 4, 82, 0
10, 36480, Note_on_c, 4, 80, 123
10, 36960, Note_on_c, 4, 80, 0
10, 36960, Note_on_c, 4, 79, 123
10, 37440, Note_on_c, 4, 79, 0
10, 37440, Note_on_c, 4, 77, 123
10, 38880, Note_on_c, 4, 77, 0
10, 38880, Note_on_c, 4, 77, 123
10, 40320, Note_on_c, 4, 77, 0
10, 40320, Note_on_c, 4, 78, 123
10, 41760, Note_on_c, 4, 78, 0
10, 41760, Note_on_c, 4, 77, 123
10, 43200, Note_on_c, 4, 77, 0
10, 43200, Note_on_c, 4, 75, 123
10, 44640, Note_on_c, 4, 75, 0
10, 44640, Note_on_c, 4, 77, 123
10, 46080, Note_on_c, 4, 77, 0
10, 46080, Note_on_c, 4, 78, 123
10, 47520, Note_on_c, 4, 78, 0
10, 47520, Note_on_c, 4, 80, 123
10, 48960, Note_on_c, 4, 80, 0
10, 48960, Note_on_c, 4, 73, 123
10, 50400, Note_on_c, 4, 73, 0
10, 50400, Note_on_c, 4, 78, 123
10, 51840, Note_on_c, 4, 78, 0
10, 51840, Note_on_c, 4, 75, 123
10, 53280, Note_on_c, 4, 75, 0
10, 53280, Note_on_c, 4, 77, 123
10, 54720, Note_on_c, 4, 77, 0
10, 54720, Note_on_c, 4, 70, 123
10, 57120, Note_on_c, 4, 70, 0
10, 57120, Note_on_c, 4, 70, 123
10, 57600, Note_on_c, 4, 70, 0
10, 57600, Note_on_c, 4, 70, 123
10, 60000, Note_on_c, 4, 70, 0
10, 60000, Note_on_c, 4, 70, 123
10, 60480, Note_on_c, 4, 70, 0
10, 60480, Note_on_c, 4, 70, 123
10, 61920, Note_on_c, 4, 70, 0
10, 61920, Note_on_c, 4, 70, 123
10, 63360, Note_on_c, 4, 70, 0
10, 63360, Note_on_c, 4, 70, 123
10, 64800, Note_on_c, 4, 70, 0
10, 64800, Note_on_c, 4, 70, 123
10, 65280, Note_on_c, 4, 70, 0
10, 86400, Note_on_c, 4, 79, 78
10, 90720, Note_on_c, 4, 79, 0
10, 90720, Note_on_c, 4, 79, 78
10, 96480, Note_on_c, 4, 79, 0
10, 96480, Note_on_c, 4, 79, 78
10, 96960, Note_on_c, 4, 79, 0
10, 97920, Note_on_c, 4, 79, 91
10, 98400, Note_on_c, 4, 79, 0
10, 99360, Note_on_c, 4, 79, 101
10, 99840, Note_on_c, 4, 79, 0
10, 100800, Note_on_c, 4, 79, 109
10, 101280, Note_on_c, 4, 79, 0
10, 102240, Note_on_c, 4, 79, 115
10, 102720, Note_on_c, 4, 79, 0
10, 102720, Note_on_c, 4, 79, 115
10, 103200, Note_on_c, 4, 79, 0
10, 103200, Note_on_c, 4, 79, 115
10, 103680, Note_on_c, 4, 79, 0
10, 103680, Note_on_c, 4, 79, 115
10, 105120, Note_on_c, 4, 79, 0
10, 105120, Note_on_c, 4, 79, 115
10, 105600, Note_on_c, 4, 79, 0
10, 105600, Note_on_c, 4, 79, 115
10, 106080, Note_on_c, 4, 79, 0
10, 106080, Note_on_c, 4, 79, 115
10, 106560, Note_on_c, 4, 79, 0
10, 106560, Note_on_c, 4, 79, 115
10, 108000, Note_on_c, 4, 79, 0
10, 108000, Note_on_c, 4, 79, 115
10, 108480, Note_on_c, 4, 79, 0
10, 108480, Note_on_c, 4, 79, 115
10, 108960, Note_on_c, 4, 79, 0
10, 108960, Note_on_c, 4, 79, 115
10, 109440, Note_on_c, 4, 79, 0
10, 109440, Note_on_c, 4, 79, 115
10, 110880, Note_on_c, 4, 79, 0
10, 110880, Note_on_c, 4, 82, 115
10, 111360, Note_on_c, 4, 82, 0
10, 111360, Note_on_c, 4, 80, 115
10, 111840, Note_on_c, 4, 80, 0
10, 111840, Note_on_c, 4, 79, 115
10, 112320, Note_on_c, 4, 79, 0
10, 112320, Note_on_c, 4, 77, 115
10, 113760, Note_on_c, 4, 77, 0
10, 113760, Note_on_c, 4, 79, 115
10, 115200, Note_on_c, 4, 79, 0
10, 115200, Note_on_c, 4, 80, 115
10, 116640, Note_on_c, 4, 80, 0
10, 116640, Note_on_c, 4, 79, 115
10, 118080, Note_on_c, 4, 79, 0
10, 118080, Note_on_c, 4, 77, 115
10, 119520, Note_on_c, 4, 77, 0
10, 119520, Note_on_c, 4, 79, 115
10, 120960, Note_on_c, 4, 79, 0
10, 120960, Note_on_c, 4, 80, 115
10, 122400, Note_on_c, 4, 80, 0
10, 122400, Note_on_c, 4, 82, 115
10, 123840, Note_on_c, 4, 82, 0
10, 123840, Note_on_c, 4, 75, 115
10, 125280, Note_on_c, 4, 75, 0
10, 125280, Note_on_c, 4, 80, 115
10, 126720, Note_on_c, 4, 80, 0
10, 126720, Note_on_c, 4, 77, 115
10, 128160, Note_on_c, 4, 77, 0
10, 128160, Note_on_c, 4, 79, 115
10, 129600, Note_on_c, 4, 79, 0
10, 129600, Note_on_c, 4, 79, 115
10, 130080, Note_on_c, 4, 79, 0
10, 132000, Note_on_c, 4, 80, 115
10, 132480, Note_on_c, 4, 80, 0
10, 132480, Note_on_c, 4, 79, 115
10, 132960, Note_on_c, 4, 79, 0
10, 134880, Note_on_c, 4, 80, 115
10, 135360, Note_on_c, 4, 80, 0
10, 135360, Note_on_c, 4, 79, 115
10, 135840, Note_on_c, 4, 79, 0
10, 136320, Note_on_c, 4, 80, 115
10, 136800, Note_on_c, 4, 80, 0
10, 136800, Note_on_c, 4, 79, 115
10, 137280, Note_on_c, 4, 79, 0
10, 137760, Note_on_c, 4, 80, 115
10, 138240, Note_on_c, 4, 80, 0
10, 138240, Note_on_c, 4, 79, 115
10, 138720, Note_on_c, 4, 79, 0
10, 144000, Note_on_c, 4, 67, 91
10, 151200, Note_on_c, 4, 67, 0
10, 151200, Note_on_c, 4, 67, 91
10, 158400, Note_on_c, 4, 67, 0
10, 158400, Note_on_c, 4, 67, 91
10, 165600, Note_on_c, 4, 67, 0
10, 169440, Note_on_c, 4, 79, 91
10, 169920, Note_on_c, 4, 79, 0
10, 175200, Note_on_c, 4, 79, 91
10, 175680, Note_on_c, 4, 79, 0
10, 188160, Note_on_c, 4, 75, 115
10, 188640, Note_on_c, 4, 75, 0
10, 188640, Note_on_c, 4, 75, 115
10, 189120, Note_on_c, 4, 75, 0
10, 189120, Note_on_c, 4, 79, 115
10, 189600, Note_on_c, 4, 79, 0
10, 189600, Note_on_c, 4, 79, 115
10, 190080, Note_on_c, 4, 79, 0
10, 190080, Note_on_c, 4, 75, 115
10, 190560, Note_on_c, 4, 75, 0
10, 191520, Note_on_c, 4, 79, 123
10, 192000, Note_on_c, 4, 79, 0
10, 192000, Note_on_c, 4, 79, 123
10, 192480, Note_on_c, 4, 79, 0
10, 192480, Note_on_c, 4, 79, 123
10, 192960, Note_on_c, 4, 79, 0
10, 192960, Note_on_c, 4, 79, 123
10, 194400, Note_on_c, 4, 79, 0
10, 194400, Note_on_c, 4, 79, 123
10, 194880, Note_on_c, 4, 79, 0
10, 194880, Note_on_c, 4, 79, 123
10, 195360, Note_on_c, 4, 79, 0
10, 195360, Note_on_c, 4, 79, 123
10, 195840, Note_on_c, 4, 79, 0
10, 195840, Note_on_c, 4, 79, 123
10, 197280, Note_on_c, 4, 79, 0
10, 220320, Note_on_c, 4, 71, 115
10, 221760, Note_on_c, 4, 71, 0
10, 221760, Note_on_c, 4, 76, 115
10, 223200, Note_on_c, 4, 76, 0
10, 223200, Note_on_c, 4, 78, 115
10, 224640, Note_on_c, 4, 78, 0
10, 224640, Note_on_c, 4, 77, 115
10, 225600, Note_on_c, 4, 77, 0
10, 225600, Note_on_c, 4, 71, 115
10, 226080, Note_on_c, 4, 71, 0
10, 226080, Note_on_c, 4, 78, 115
10, 227520, Note_on_c, 4, 78, 0
10, 227520, Note_on_c, 4, 79, 115
10, 228000, Note_on_c, 4, 79, 0
10, 228960, Note_on_c, 4, 79, 115
10, 229440, Note_on_c, 4, 79, 0
10, 230400, Note_on_c, 4, 79, 115
10, 230880, Note_on_c, 4, 79, 0
10, 249120, Note_on_c, 4, 71, 115
10, 250560, Note_on_c, 4, 71, 0
10, 250560, Note_on_c, 4, 76, 115
10, 252000, Note_on_c, 4, 76, 0
10, 252000, Note_on_c, 4, 78, 115
10, 253440, Note_on_c, 4, 78, 0
10, 253440, Note_on_c, 4, 77, 115
10, 254400, Note_on_c, 4, 77, 0
10, 254400, Note_on_c, 4, 71, 115
10, 254880, Note_on_c, 4, 71, 0
10, 254880, Note_on_c, 4, 78, 115
10, 256320, Note_on_c, 4, 78, 0
10, 256320, Note_on_c, 4, 79, 115
10, 256800, Note_on_c, 4, 79, 0
10, 257760, Note_on_c, 4, 79, 115
10, 258240, Note_on_c, 4, 79, 0
10, 259200, Note_on_c, 4, 79, 115
10, 259680, Note_on_c, 4, 79, 0
10, 287520, Note_on_c, 4, 82, 115
10, 288480, Note_on_c, 4, 82, 0
10, 290400, Note_on_c, 4, 77, 115
10, 290880, Note_on_c, 4, 77, 0
10, 290880, Note_on_c, 4, 79, 115
10, 292320, Note_on_c, 4, 79, 0
10, 292320, Note_on_c, 4, 79, 115
10, 293760, Note_on_c, 4, 79, 0
10, 293760, Note_on_c, 4, 79, 115
10, 295200, Note_on_c, 4, 79, 0
10, 295200, Note_on_c, 4, 79, 115
10, 296640, Note_on_c, 4, 79, 0
10, 296640, Note_on_c, 4, 79, 115
10, 298080, Note_on_c, 4, 79, 0
10, 298080, Note_on_c, 4, 79, 115
10, 299520, Note_on_c, 4, 79, 0
10, 299520, Note_on_c, 4, 79, 115
10, 300000, Note_on_c, 4, 79, 0
10, 300000, Note_on_c, 4, 79, 115
10, 300480, Note_on_c, 4, 79, 0
10, 300480, Note_on_c, 4, 79, 115
10, 300960, Note_on_c, 4, 79, 0
10, 300960, Note_on_c, 4, 79, 115
10, 301440, Note_on_c, 4, 79, 0
10, 301440, Note_on_c, 4, 79, 115
10, 301920, Note_on_c, 4, 79, 0
10, 301920, Note_on_c, 4, 79, 115
10, 302400, Note_on_c, 4, 79, 0
10, 302400, Note_on_c, 4, 79, 115
10, 302880, Note_on_c, 4, 79, 0
10, 302880, Note_on_c, 4, 79, 115
10, 303360, Note_on_c, 4, 79, 0
10, 303360, Note_on_c, 4, 79, 115
10, 303840, Note_on_c, 4, 79, 0
10, 303840, Note_on_c, 4, 79, 115
10, 304320, Note_on_c, 4, 79, 0
10, 304320, Note_on_c, 4, 79, 115
10, 304800, Note_on_c, 4, 79, 0
10, 304800, Note_on_c, 4, 79, 115
10, 305280, Note_on_c, 4, 79, 0
10, 305280, Note_on_c, 4, 79, 115
10, 305760, Note_on_c, 4, 79, 0
10, 305760, Note_on_c, 4, 79, 115
10, 306240, Note_on_c, 4, 79, 0
10, 306240, Note_on_c, 4, 79, 115
10, 306720, Note_on_c, 4, 79, 0
10, 306720, Note_on_c, 4, 79, 115
10, 307200, Note_on_c, 4, 79, 0
10, 307200, Note_on_c, 4, 79, 115
10, 307680, Note_on_c, 4, 79, 0
10, 307680, Note_on_c, 4, 79, 115
10, 308160, Note_on_c, 4, 79, 0
10, 308160, Note_on_c, 4, 79, 115
10, 308640, Note_on_c, 4, 79, 0
10, 309600, Note_on_c, 4, 79, 115
10, 310080, Note_on_c, 4, 79, 0
10, 311040, Note_on_c, 4, 79, 115
10, 311520, Note_on_c, 4, 79, 0
10, 375840, Note_on_c, 4, 77, 78
10, 377280, Note_on_c, 4, 77, 0
10, 377280, Note_on_c, 4, 75, 78
10, 377760, Note_on_c, 4, 75, 0
10, 378720, Note_on_c, 4, 67, 78
10, 381120, Note_on_c, 4, 67, 0
10, 440640, Note_on_c, 4, 79, 91
10, 441120, Note_on_c, 4, 79, 0
10, 441600, Note_on_c, 4, 79, 91
10, 442080, Note_on_c, 4, 79, 0
10, 442080, Note_on_c, 4, 79, 91
10, 442560, Note_on_c, 4, 79, 0
10, 443040, Note_on_c, 4, 79, 91
10, 443520, Note_on_c, 4, 79, 0
10, 443520, Note_on_c, 4, 79, 91
10, 444000, Note_on_c, 4, 79, 0
10, 446400, Note_on_c, 4, 79, 91
10, 446880, Note_on_c, 4, 79, 0
10, 447360, Note_on_c, 4, 79, 91
10, 447840, Note_on_c, 4, 79, 0
10, 447840, Note_on_c, 4, 79, 91
10, 448320, Note_on_c, 4, 79, 0
10, 448800, Note_on_c, 4, 79, 91
10, 449280, Note_on_c, 4, 79, 0
10, 449280, Note_on_c, 4, 79, 91
10, 449760, Note_on_c, 4, 79, 0
10, 453600, Note_on_c, 4, 80, 91
10, 454080, Note_on_c, 4, 80, 0
10, 454080, Note_on_c, 4, 80, 91
10, 454560, Note_on_c, 4, 80, 0
10, 454560, Note_on_c, 4, 80, 91
10, 455040, Note_on_c, 4, 80, 0
10, 455040, Note_on_c, 4, 80, 91
10, 455520, Note_on_c, 4, 80, 0
10, 456480, Note_on_c, 4, 80, 91
10, 456960, Note_on_c, 4, 80, 0
10, 456960, Note_on_c, 4, 80, 91
10, 457440, Note_on_c, 4, 80, 0
10, 457440, Note_on_c, 4, 80, 91
10, 457920, Note_on_c, 4, 80, 0
10, 457920, Note_on_c, 4, 80, 91
10, 458400, Note_on_c, 4, 80, 0
10, 561600, Note_on_c, 4, 77, 91
10, 567360, Note_on_c, 4, 77, 0
10, 567360, End_track
11, 0, Start_track
11, 0, MIDI_port, 0
11, 0, Title_t, "Horn 2"
11, 5760, Note_on_c, 4, 67, 91
11, 11520, Note_on_c, 4, 67, 0
11, 11520, Note_on_c, 4, 67, 91
11, 12480, Note_on_c, 4, 67, 0
11, 27360, Note_on_c, 4, 79, 123
11, 27840, Note_on_c, 4, 79, 0
11, 27840, Note_on_c, 4, 79, 123
11, 28320, Note_on_c, 4, 79, 0
11, 28320, Note_on_c, 4, 79, 123
11, 28800, Note_on_c, 4, 79, 0
11, 28800, Note_on_c, 4, 79, 123
11, 30240, Note_on_c, 4, 79, 0
11, 30240, Note_on_c, 4, 79, 123
11, 30720, Note_on_c, 4, 79, 0
11, 30720, Note_on_c, 4, 79, 123
11, 31200, Note_on_c, 4, 79, 0
11, 31200, Note_on_c, 4, 79, 123
11, 31680, Note_on_c, 4, 79, 0
11, 31680, Note_on_c, 4, 79, 123
11, 33120, Note_on_c, 4, 79, 0
11, 33120, Note_on_c, 4, 79, 123
11, 33600, Note_on_c, 4, 79, 0
11, 33600, Note_on_c, 4, 79, 123
11, 34080, Note_on_c, 4, 79, 0
11, 34080, Note_on_c, 4, 79, 123
11, 34560, Note_on_c, 4, 79, 0
11, 34560, Note_on_c, 4, 75, 123
11, 36000, Note_on_c, 4, 75, 0
11, 36000, Note_on_c, 4, 79, 123
11, 36480, Note_on_c, 4, 79, 0
11, 36480, Note_on_c, 4, 77, 123
11, 36960, Note_on_c, 4, 77, 0
11, 36960, Note_on_c, 4, 75, 123
11, 37440, Note_on_c, 4, 75, 0
11, 37440, Note_on_c, 4, 70, 123
11, 38880, Note_on_c, 4, 70, 0
11, 38880, Note_on_c, 4, 77, 123
11, 40320, Note_on_c, 4, 77, 0
11, 40320, Note_on_c, 4, 78, 123
11, 41760, Note_on_c, 4, 78, 0
11, 41760, Note_on_c, 4, 77, 123
11, 43200, Note_on_c, 4, 77, 0
11, 43200, Note_on_c, 4, 75, 123
11, 44640, Note_on_c, 4, 75, 0
11, 44640, Note_on_c, 4, 77, 123
11, 46080, Note_on_c, 4, 77, 0
11, 46080, Note_on_c, 4, 78, 123
11, 47520, Note_on_c, 4, 78, 0
11, 47520, Note_on_c, 4, 80, 123
11, 48960, Note_on_c, 4, 80, 0
11, 48960, Note_on_c, 4, 73, 123
11, 50400, Note_on_c, 4, 73, 0
11, 50400, Note_on_c, 4, 78, 123
11, 51840, Note_on_c, 4, 78, 0
11, 51840, Note_on_c, 4, 75, 123
11, 53280, Note_on_c, 4, 75, 0
11, 53280, Note_on_c, 4, 77, 123
11, 54720, Note_on_c, 4, 77, 0
11, 54720, Note_on_c, 4, 58, 123
11, 57120, Note_on_c, 4, 58, 0
11, 57120, Note_on_c, 4, 58, 123
11, 57600, Note_on_c, 4, 58, 0
11, 57600, Note_on_c, 4, 58, 123
11, 60000, Note_on_c, 4, 58, 0
11, 60000, Note_on_c, 4, 58, 123
11, 60480, Note_on_c, 4, 58, 0
11, 60480, Note_on_c, 4, 58, 123
11, 61920, Note_on_c, 4, 58, 0
11, 61920, Note_on_c, 4, 58, 123
11, 63360, Note_on_c, 4, 58, 0
11, 63360, Note_on_c, 4, 58, 123
11, 64800, Note_on_c, 4, 58, 0
11, 64800, Note_on_c, 4, 58, 123
11, 65280, Note_on_c, 4, 58, 0
11, 86400, Note_on_c, 4, 67, 78
11, 92160, Note_on_c, 4, 67, 0
11, 92160, Note_on_c, 4, 67, 78
11, 96480, Note_on_c, 4, 67, 0
11, 96480, Note_on_c, 4, 67, 78
11, 96960, Note_on_c, 4, 67, 0
11, 97920, Note_on_c, 4, 67, 91
11, 98400, Note_on_c, 4, 67, 0
11, 99360, Note_on_c, 4, 67, 101
11, 99840, Note_on_c, 4, 67, 0
11, 100800, Note_on_c, 4, 67, 109
11, 101280, Note_on_c, 4, 67, 0
11, 102240, Note_on_c, 4, 67, 115
11, 102720, Note_on_c, 4, 67, 0
11, 102720, Note_on_c, 4, 67, 115
11, 103200, Note_on_c, 4, 67, 0
11, 103200, Note_on_c, 4, 67, 115
11, 103680, Note_on_c, 4, 67, 0
11, 103680, Note_on_c, 4, 67, 115
11, 105120, Note_on_c, 4, 67, 0
11, 105120, Note_on_c, 4, 67, 115
11, 105600, Note_on_c, 4, 67, 0
11, 105600, Note_on_c, 4, 67, 115
11, 106080, Note_on_c, 4, 67, 0
11, 106080, Note_on_c, 4, 67, 115
11, 106560, Note_on_c, 4, 67, 0
11, 106560, Note_on_c, 4, 67, 115
11, 108000, Note_on_c, 4, 67, 0
11, 108000, Note_on_c, 4, 67, 115
11, 108480, Note_on_c, 4, 67, 0
11, 108480, Note_on_c, 4, 67, 115
11, 108960, Note_on_c, 4, 67, 0
11, 108960, Note_on_c, 4, 67, 115
11, 109440, Note_on_c, 4, 67, 0
11, 109440, Note_on_c, 4, 67, 115
11, 110880, Note_on_c, 4, 67, 0
11, 110880, Note_on_c, 4, 79, 115
11, 111360, Note_on_c, 4, 79, 0
11, 111360, Note_on_c, 4, 77, 115
11, 111840, Note_on_c, 4, 77, 0
11, 111840, Note_on_c, 4, 75, 115
11, 112320, Note_on_c, 4, 75, 0
11, 112320, Note_on_c, 4, 70, 115
11, 113760, Note_on_c, 4, 70, 0
11, 113760, Note_on_c, 4, 79, 115
11, 115200, Note_on_c, 4, 79, 0
11, 115200, Note_on_c, 4, 80, 115
11, 116640, Note_on_c, 4, 80, 0
11, 116640, Note_on_c, 4, 79, 115
11, 118080, Note_on_c, 4, 79, 0
11, 118080, Note_on_c, 4, 77, 115
11, 119520, Note_on_c, 4, 77, 0
11, 119520, Note_on_c, 4, 79, 115
11, 120960, Note_on_c, 4, 79, 0
11, 120960, Note_on_c, 4, 80, 115
11, 122400, Note_on_c, 4, 80, 0
11, 122400, Note_on_c, 4, 82, 115
11, 123840, Note_on_c, 4, 82, 0
11, 123840, Note_on_c, 4, 75, 115
11, 125280, Note_on_c, 4, 75, 0
11, 125280, Note_on_c, 4, 80, 115
11, 126720, Note_on_c, 4, 80, 0
11, 126720, Note_on_c, 4, 77, 115
11, 128160, Note_on_c, 4, 77, 0
11, 128160, Note_on_c, 4, 79, 115
11, 129600, Note_on_c, 4, 79, 0
11, 129600, Note_on_c, 4, 79, 115
11, 130080, Note_on_c, 4, 79, 0
11, 132000, Note_on_c, 4, 80, 115
11, 132480, Note_on_c, 4, 80, 0
11, 132480, Note_on_c, 4, 79, 115
11, 132960, Note_on_c, 4, 79, 0
11, 134880, Note_on_c, 4, 80, 115
11, 135360, Note_on_c, 4, 80, 0
11, 135360, Note_on_c, 4, 79, 115
11, 135840, Note_on_c, 4, 79, 0
11, 136320, Note_on_c, 4, 80, 115
11, 136800, Note_on_c, 4, 80, 0
11, 136800, Note_on_c, 4, 79, 115
11, 137280, Note_on_c, 4, 79, 0
11, 137760, Note_on_c, 4, 80, 115
11, 138240, Note_on_c, 4, 80, 0
11, 138240, Note_on_c, 4, 79, 115
11, 138720, Note_on_c, 4, 79, 0
11, 144000, Note_on_c, 4, 67, 91
11, 149760, Note_on_c, 4, 67, 0
11, 149760, Note_on_c, 4, 67, 91
11, 156960, Note_on_c, 4, 67, 0
11, 156960, Note_on_c, 4, 67, 91
11, 161280, Note_on_c, 4, 67, 0
11, 161280, Note_on_c, 4, 67, 91
11, 165600, Note_on_c, 4, 67, 0
11, 169440, Note_on_c, 4, 67, 91
11, 169920, Note_on_c, 4, 67, 0
11, 175200, Note_on_c, 4, 67, 91
11, 175680, Note_on_c, 4, 67, 0
11, 188160, Note_on_c, 4, 63, 115
11, 188640, Note_on_c, 4, 63, 0
11, 188640, Note_on_c, 4, 63, 115
11, 189120, Note_on_c, 4, 63, 0
11, 189120, Note_on_c, 4, 67, 115
11, 189600, Note_on_c, 4, 67, 0
11, 189600, Note_on_c, 4, 67, 115
11, 190080, Note_on_c, 4, 67, 0
11, 190080, Note_on_c, 4, 63, 115
11, 190560, Note_on_c, 4, 63, 0
11, 191520, Note_on_c, 4, 67, 123
11, 192000, Note_on_c, 4, 67, 0
11, 192000, Note_on_c, 4, 67, 123
11, 192480, Note_on_c, 4, 67, 0
11, 192480, Note_on_c, 4, 67, 123
11, 192960, Note_on_c, 4, 67, 0
11, 192960, Note_on_c, 4, 67, 123
11, 194400, Note_on_c, 4, 67, 0
11, 194400, Note_on_c, 4, 67, 123
11, 194880, Note_on_c, 4, 67, 0
11, 194880, Note_on_c, 4, 67, 123
11, 195360, Note_on_c, 4, 67, 0
11, 195360, Note_on_c, 4, 67, 123
11, 195840, Note_on_c, 4, 67, 0
11, 195840, Note_on_c, 4, 67, 123
11, 197280, Note_on_c, 4, 67, 0
11, 220320, Note_on_c, 4, 59, 115
11, 221760, Note_on_c, 4, 59, 0
11, 221760, Note_on_c, 4, 64, 115
11, 223200, Note_on_c, 4, 64, 0
11, 223200, Note_on_c, 4, 78, 115
11, 224640, Note_on_c, 4, 78, 0
11, 224640, Note_on_c, 4, 77, 115
11, 225600, Note_on_c, 4, 77, 0
11, 225600, Note_on_c, 4, 71, 115
11, 226080, Note_on_c, 4, 71, 0
11, 226080, Note_on_c, 4, 78, 115
11, 227520, Note_on_c, 4, 78, 0
11, 227520, Note_on_c, 4, 67, 115
11, 228000, Note_on_c, 4, 67, 0
11, 228960, Note_on_c, 4, 67, 115
11, 229440, Note_on_c, 4, 67, 0
11, 230400, Note_on_c, 4, 67, 115
11, 230880, Note_on_c, 4, 67, 0
11, 249120, Note_on_c, 4, 59, 115
11, 250560, Note_on_c, 4, 59, 0
11, 250560, Note_on_c, 4, 64, 115
11, 252000, Note_on_c, 4, 64, 0
11, 252000, Note_on_c, 4, 78, 115
11, 253440, Note_on_c, 4, 78, 0
11, 253440, Note_on_c, 4, 77, 115
11, 254400, Note_on_c, 4, 77, 0
11, 254400, Note_on_c, 4, 71, 115
11, 254880, Note_on_c, 4, 71, 0
11, 254880, Note_on_c, 4, 78, 115
11, 256320, Note_on_c, 4, 78, 0
11, 256320, Note_on_c, 4, 67, 115
11, 256800, Note_on_c, 4, 67, 0
11, 257760, Note_on_c, 4, 67, 115
11, 258240, Note_on_c, 4, 67, 0
11, 259200, Note_on_c, 4, 67, 115
11, 259680, Note_on_c, 4, 67, 0
11, 287520, Note_on_c, 4, 79, 115
11, 288480, Note_on_c, 4, 79, 0
11, 290400, Note_on_c, 4, 77, 115
11, 290880, Note_on_c, 4, 77, 0
11, 290880, Note_on_c, 4, 79, 115
11, 292320, Note_on_c, 4, 79, 0
11, 292320, Note_on_c, 4, 79, 115
11, 293760, Note_on_c, 4, 79, 0
11, 293760, Note_on_c, 4, 79, 115
11, 295200, Note_on_c, 4, 79, 0
11, 295200, Note_on_c, 4, 79, 115
11, 296640, Note_on_c, 4, 79, 0
11, 296640, Note_on_c, 4, 79, 115
11, 298080, Note_on_c, 4, 79, 0
11, 298080, Note_on_c, 4, 79, 115
11, 299520, Note_on_c, 4, 79, 0
11, 299520, Note_on_c, 4, 79, 115
11, 300000, Note_on_c, 4, 79, 0
11, 300000, Note_on_c, 4, 79, 115
11, 300480, Note_on_c, 4, 79, 0
11, 300480, Note_on_c, 4, 79, 115
11, 300960, Note_on_c, 4, 79, 0
11, 300960, Note_on_c, 4, 79, 115
11, 301440, Note_on_c, 4, 79, 0
11, 301440, Note_on_c, 4, 79, 115
11, 301920, Note_on_c, 4, 79, 0
11, 301920, Note_on_c, 4, 79, 115
11, 302400, Note_on_c, 4, 79, 0
11, 302400, Note_on_c, 4, 79, 115
11, 302880, Note_on_c, 4, 79, 0
11, 302880, Note_on_c, 4, 79, 115
11, 303360, Note_on_c, 4, 79, 0
11, 303360, Note_on_c, 4, 79, 115
11, 303840, Note_on_c, 4, 79, 0
11, 303840, Note_on_c, 4, 79, 115
11, 304320, Note_on_c, 4, 79, 0
11, 304320, Note_on_c, 4, 79, 115
11, 304800, Note_on_c, 4, 79, 0
11, 304800, Note_on_c, 4, 79, 115
11, 305280, Note_on_c, 4, 79, 0
11, 305280, Note_on_c, 4, 79, 115
11, 305760, Note_on_c, 4, 79, 0
11, 305760, Note_on_c, 4, 79, 115
11, 306240, Note_on_c, 4, 79, 0
11, 306240, Note_on_c, 4, 79, 115
11, 306720, Note_on_c, 4, 79, 0
11, 306720, Note_on_c, 4, 79, 115
11, 307200, Note_on_c, 4, 79, 0
11, 307200, Note_on_c, 4, 79, 115
11, 307680, Note_on_c, 4, 79, 0
11, 307680, Note_on_c, 4, 79, 115
11, 308160, Note_on_c, 4, 79, 0
11, 308160, Note_on_c, 4, 79, 115
11, 308640, Note_on_c, 4, 79, 0
11, 309600, Note_on_c, 4, 79, 115
11, 310080, Note_on_c, 4, 79, 0
11, 311040, Note_on_c, 4, 79, 115
11, 311520, Note_on_c, 4, 79, 0
11, 374400, Note_on_c, 4, 67, 78
11, 381120, Note_on_c, 4, 67, 0
11, 440640, Note_on_c, 4, 79, 91
11, 441120, Note_on_c, 4, 79, 0
11, 441600, Note_on_c, 4, 79, 91
11, 442080, Note_on_c, 4, 79, 0
11, 442080, Note_on_c, 4, 79, 91
11, 442560, Note_on_c, 4, 79, 0
11, 443040, Note_on_c, 4, 79, 91
11, 443520, Note_on_c, 4, 79, 0
11, 443520, Note_on_c, 4, 79, 91
11, 444000, Note_on_c, 4, 79, 0
11, 446400, Note_on_c, 4, 79, 91
11, 446880, Note_on_c, 4, 79, 0
11, 447360, Note_on_c, 4, 79, 91
11, 447840, Note_on_c, 4, 79, 0
11, 447840, Note_on_c, 4, 79, 91
11, 448320, Note_on_c, 4, 79, 0
11, 448800, Note_on_c, 4, 79, 91
11, 449280, Note_on_c, 4, 79, 0
11, 449280, Note_on_c, 4, 79, 91
11, 449760, Note_on_c, 4, 79, 0
11, 453600, Note_on_c, 4, 80, 91
11, 454080, Note_on_c, 4, 80, 0
11, 454080, Note_on_c, 4, 80, 91
11, 454560, Note_on_c, 4, 80, 0
11, 454560, Note_on_c, 4, 80, 91
11, 455040, Note_on_c, 4, 80, 0
11, 455040, Note_on_c, 4, 80, 91
11, 455520, Note_on_c, 4, 80, 0
11, 456480, Note_on_c, 4, 80, 91
11, 456960, Note_on_c, 4, 80, 0
11, 456960, Note_on_c, 4, 80, 91
11, 457440, Note_on_c, 4, 80, 0
11, 457440, Note_on_c, 4, 80, 91
11, 457920, Note_on_c, 4, 80, 0
11, 457920, Note_on_c, 4, 80, 91
11, 458400, Note_on_c, 4, 80, 0
11, 561600, Note_on_c, 4, 70, 91
11, 567360, Note_on_c, 4, 70, 0
11, 567360, End_track
12, 0, Start_track
12, 0, MIDI_port, 0
12, 0, Title_t, "Trumpet 1"
12, 0, Program_c, 5, 56
12, 102240, Note_on_c, 5, 67, 115
12, 102720, Note_on_c, 5, 67, 0
12, 103680, Note_on_c, 5, 67, 115
12, 104160, Note_on_c, 5, 67, 0
12, 105120, Note_on_c, 5, 67, 115
12, 105600, Note_on_c, 5, 67, 0
12, 106560, Note_on_c, 5, 67, 115
12, 107040, Note_on_c, 5, 67, 0
12, 108000, Note_on_c, 5, 67, 115
12, 108480, Note_on_c, 5, 67, 0
12, 109440, Note_on_c, 5, 67, 115
12, 109920, Note_on_c, 5, 67, 0
12, 110880, Note_on_c, 5, 72, 115
12, 111360, Note_on_c, 5, 72, 0
12, 113760, Note_on_c, 5, 72, 115
12, 114240, Note_on_c, 5, 72, 0
12, 114240, Note_on_c, 5, 72, 115
12, 114720, Note_on_c, 5, 72, 0
12, 114720, Note_on_c, 5, 72, 115
12, 115200, Note_on_c, 5, 72, 0
12, 115200, Note_on_c, 5, 72, 115
12, 116640, Note_on_c, 5, 72, 0
12, 116640, Note_on_c, 5, 72, 115
12, 117120, Note_on_c, 5, 72, 0
12, 117120, Note_on_c, 5, 72, 115
12, 117600, Note_on_c, 5, 72, 0
12, 117600, Note_on_c, 5, 72, 115
12, 118080, Note_on_c, 5, 72, 0
12, 118080, Note_on_c, 5, 72, 115
12, 119520, Note_on_c, 5, 72, 0
12, 119520, Note_on_c, 5, 72, 115
12, 120000, Note_on_c, 5, 72, 0
12, 120000, Note_on_c, 5, 72, 115
12, 120480, Note_on_c, 5, 72, 0
12, 120480, Note_on_c, 5, 72, 115
12, 120960, Note_on_c, 5, 72, 0
12, 120960, Note_on_c, 5, 72, 115
12, 122400, Note_on_c, 5, 72, 0
12, 125280, Note_on_c, 5, 72, 115
12, 125760, Note_on_c, 5, 72, 0
12, 129600, Note_on_c, 5, 72, 115
12, 132000, Note_on_c, 5, 72, 0
12, 132000, Note_on_c, 5, 72, 115
12, 132480, Note_on_c, 5, 72, 0
12, 132480, Note_on_c, 5, 72, 115
12, 134880, Note_on_c, 5, 72, 0
12, 134880, Note_on_c, 5, 72, 115
12, 135360, Note_on_c, 5, 72, 0
12, 135360, Note_on_c, 5, 72, 115
12, 136800, Note_on_c, 5, 72, 0
12, 136800, Note_on_c, 5, 72, 115
12, 138240, Note_on_c, 5, 72, 0
12, 138240, Note_on_c, 5, 72, 115
12, 140160, Note_on_c, 5, 72, 0
12, 179520, Note_on_c, 5, 72, 91
12, 180000, Note_on_c, 5, 72, 0
12, 180960, Note_on_c, 5, 72, 91
12, 181440, Note_on_c, 5, 72, 0
12, 182400, Note_on_c, 5, 67, 91
12, 182880, Note_on_c, 5, 67, 0
12, 183840, Note_on_c, 5, 72, 91
12, 184320, Note_on_c, 5, 72, 0
12, 185280, Note_on_c, 5, 72, 101
12, 185760, Note_on_c, 5, 72, 0
12, 186720, Note_on_c, 5, 72, 109
12, 187200, Note_on_c, 5, 72, 0
12, 188160, Note_on_c, 5, 72, 115
12, 188640, Note_on_c, 5, 72, 0
12, 188640, Note_on_c, 5, 72, 115
12, 189120, Note_on_c, 5, 72, 0
12, 189120, Note_on_c, 5, 67, 115
12, 189600, Note_on_c, 5, 67, 0
12, 189600, Note_on_c, 5, 67, 115
12, 190080, Note_on_c, 5, 67, 0
12, 190080, Note_on_c, 5, 60, 115
12, 190560, Note_on_c, 5, 60, 0
12, 191520, Note_on_c, 5, 67, 123
12, 192000, Note_on_c, 5, 67, 0
12, 192000, Note_on_c, 5, 67, 123
12, 192480, Note_on_c, 5, 67, 0
12, 192480, Note_on_c, 5, 67, 123
12, 192960, Note_on_c, 5, 67, 0
12, 192960, Note_on_c, 5, 67, 123
12, 194400, Note_on_c, 5, 67, 0
12, 194400, Note_on_c, 5, 67, 123
12, 194880, Note_on_c, 5, 67, 0
12, 194880, Note_on_c, 5, 67, 123
12, 195360, Note_on_c, 5, 67, 0
12, 195360, Note_on_c, 5, 67, 123
12, 195840, Note_on_c, 5, 67, 0
12, 195840, Note_on_c, 5, 67, 123
12, 197280, Note_on_c, 5, 67, 0
12, 197280, Note_on_c, 5, 72, 91
12, 197760, Note_on_c, 5, 72, 0
12, 197760, Note_on_c, 5, 72, 91
12, 198240, Note_on_c, 5, 72, 0
12, 198240, Note_on_c, 5, 72, 91
12, 198720, Note_on_c, 5, 72, 0
12, 198720, Note_on_c, 5, 72, 91
12, 199200, Note_on_c, 5, 72, 0
12, 200160, Note_on_c, 5, 67, 91
12, 200640, Note_on_c, 5, 67, 0
12, 201600, Note_on_c, 5, 60, 91
12, 202080, Note_on_c, 5, 60, 0
12, 227520, Note_on_c, 5, 74, 115
12, 228000, Note_on_c, 5, 74, 0
12, 228960, Note_on_c, 5, 74, 115
12, 229440, Note_on_c, 5, 74, 0
12, 230400, Note_on_c, 5, 74, 115
12, 230880, Note_on_c, 5, 74, 0
12, 256320, Note_on_c, 5, 74, 115
12, 256800, Note_on_c, 5, 74, 0
12, 257760, Note_on_c, 5, 74, 115
12, 258240, Note_on_c, 5, 74, 0
12, 259200, Note_on_c, 5, 74, 115
12, 259680, Note_on_c, 5, 74, 0
12, 290400, Note_on_c, 5, 72, 115
12, 290880, Note_on_c, 5, 72, 0
12, 290880, Note_on_c, 5, 67, 115
12, 292320, Note_on_c, 5, 67, 0
12, 292320, Note_on_c, 5, 72, 115
12, 293760, Note_on_c, 5, 72, 0
12, 293760, Note_on_c, 5, 74, 115
12, 295200, Note_on_c, 5, 74, 0
12, 295200, Note_on_c, 5, 76, 115
12, 296640, Note_on_c, 5, 76, 0
12, 296640, Note_on_c, 5, 74, 115
12, 298080, Note_on_c, 5, 74, 0
12, 298080, Note_on_c, 5, 76, 115
12, 299520, Note_on_c, 5, 76, 0
12, 299520, Note_on_c, 5, 74, 115
12, 300960, Note_on_c, 5, 74, 0
12, 300960, Note_on_c, 5, 76, 115
12, 301440, Note_on_c, 5, 76, 0
12, 302400, Note_on_c, 5, 74, 115
12, 302880, Note_on_c, 5, 74, 0
12, 303840, Note_on_c, 5, 72, 115
12, 304320, Note_on_c, 5, 72, 0
12, 305280, Note_on_c, 5, 74, 115
12, 305760, Note_on_c, 5, 74, 0
12, 305760, Note_on_c, 5, 67, 115
12, 306240, Note_on_c, 5, 67, 0
12, 306240, Note_on_c, 5, 74, 115
12, 306720, Note_on_c, 5, 74, 0
12, 306720, Note_on_c, 5, 67, 115
12, 307200, Note_on_c, 5, 67, 0
12, 307200, Note_on_c, 5, 74, 115
12, 307680, Note_on_c, 5, 74, 0
12, 307680, Note_on_c, 5, 67, 115
12, 308160, Note_on_c, 5, 67, 0
12, 308160, Note_on_c, 5, 72, 115
12, 308640, Note_on_c, 5, 72, 0
12, 309600, Note_on_c, 5, 72, 115
12, 310080, Note_on_c, 5, 72, 0
12, 311040, Note_on_c, 5, 72, 115
12, 311520, Note_on_c, 5, 72, 0
12, 561600, Note_on_c, 5, 74, 91
12, 567360, Note_on_c, 5, 74, 0
12, 567360, End_track
13, 0, Start_track
13, 0, MIDI_port, 0
13, 0, Title_t, "Trumpet 2"
13, 102240, Note_on_c, 5, 55, 115
13, 102720, Note_on_c, 5, 55, 0
13, 103680, Note_on_c, 5, 55, 115
13, 104160, Note_on_c, 5, 55, 0
13, 105120, Note_on_c, 5, 55, 115
13, 105600, Note_on_c, 5, 55, 0
13, 106560, Note_on_c, 5, 55, 115
13, 107040, Note_on_c, 5, 55, 0
13, 108000, Note_on_c, 5, 55, 115
13, 108480, Note_on_c, 5, 55, 0
13, 109440, Note_on_c, 5, 55, 115
13, 109920, Note_on_c, 5, 55, 0
13, 110880, Note_on_c, 5, 60, 115
13, 111360, Note_on_c, 5, 60, 0
13, 113760, Note_on_c, 5, 60, 115
13, 114240, Note_on_c, 5, 60, 0
13, 114240, Note_on_c, 5, 60, 115
13, 114720, Note_on_c, 5, 60, 0
13, 114720, Note_on_c, 5, 60, 115
13, 115200, Note_on_c, 5, 60, 0
13, 115200, Note_on_c, 5, 60, 115
13, 116640, Note_on_c, 5, 60, 0
13, 116640, Note_on_c, 5, 60, 115
13, 117120, Note_on_c, 5, 60, 0
13, 117120, Note_on_c, 5, 60, 115
13, 117600, Note_on_c, 5, 60, 0
13, 117600, Note_on_c, 5, 60, 115
13, 118080, Note_on_c, 5, 60, 0
13, 118080, Note_on_c, 5, 60, 115
13, 119520, Note_on_c, 5, 60, 0
13, 119520, Note_on_c, 5, 60, 115
13, 120000, Note_on_c, 5, 60, 0
13, 120000, Note_on_c, 5, 60, 115
13, 120480, Note_on_c, 5, 60, 0
13, 120480, Note_on_c, 5, 60, 115
13, 120960, Note_on_c, 5, 60, 0
13, 120960, Note_on_c, 5, 60, 115
13, 122400, Note_on_c, 5, 60, 0
13, 125280, Note_on_c, 5, 60, 115
13, 125760, Note_on_c, 5, 60, 0
13, 129600, Note_on_c, 5, 60, 115
13, 132000, Note_on_c, 5, 60, 0
13, 132000, Note_on_c, 5, 60, 115
13, 132480, Note_on_c, 5, 60, 0
13, 132480, Note_on_c, 5, 60, 115
13, 134880, Note_on_c, 5, 60, 0
13, 134880, Note_on_c, 5, 60, 115
13, 135360, Note_on_c, 5, 60, 0
13, 135360, Note_on_c, 5, 60, 115
13, 136800, Note_on_c, 5, 60, 0
13, 136800, Note_on_c, 5, 60, 115
13, 138240, Note_on_c, 5, 60, 0
13, 138240, Note_on_c, 5, 60, 115
13, 140160, Note_on_c, 5, 60, 0
13, 179520, Note_on_c, 5, 60, 91
13, 180000, Note_on_c, 5, 60, 0
13, 180960, Note_on_c, 5, 60, 91
13, 181440, Note_on_c, 5, 60, 0
13, 182400, Note_on_c, 5, 55, 91
13, 182880, Note_on_c, 5, 55, 0
13, 183840, Note_on_c, 5, 60, 91
13, 184320, Note_on_c, 5, 60, 0
13, 185280, Note_on_c, 5, 60, 101
13, 185760, Note_on_c, 5, 60, 0
13, 186720, Note_on_c, 5, 60, 109
13, 187200, Note_on_c, 5, 60, 0
13, 188160, Note_on_c, 5, 60, 115
13, 188640, Note_on_c, 5, 60, 0
13, 188640, Note_on_c, 5, 60, 115
13, 189120, Note_on_c, 5, 60, 0
13, 189120, Note_on_c, 5, 55, 115
13, 189600, Note_on_c, 5, 55, 0
13, 189600, Note_on_c, 5, 55, 115
13, 190080, Note_on_c, 5, 55, 0
13, 190080, Note_on_c, 5, 60, 115
13, 190560, Note_on_c, 5, 60, 0
13, 191520, Note_on_c, 5, 55, 123
13, 192000, Note_on_c, 5, 55, 0
13, 192000, Note_on_c, 5, 55, 123
13, 192480, Note_on_c, 5, 55, 0
13, 192480, Note_on_c, 5, 55, 123
13, 192960, Note_on_c, 5, 55, 0
13, 192960, Note_on_c, 5, 55, 123
13, 194400, Note_on_c, 5, 55, 0
13, 194400, Note_on_c, 5, 55, 123
13, 194880, Note_on_c, 5, 55, 0
13, 194880, Note_on_c, 5, 55, 123
13, 195360, Note_on_c, 5, 55, 0
13, 195360, Note_on_c, 5, 55, 123
13, 195840, Note_on_c, 5, 55, 0
13, 195840, Note_on_c, 5, 55, 123
13, 197280, Note_on_c, 5, 55, 0
13, 197280, Note_on_c, 5, 60, 91
13, 197760, Note_on_c, 5, 60, 0
13, 197760, Note_on_c, 5, 60, 91
13, 198240, Note_on_c, 5, 60, 0
13, 198240, Note_on_c, 5, 60, 91
13, 198720, Note_on_c, 5, 60, 0
13, 198720, Note_on_c, 5, 60, 91
13, 199200, Note_on_c, 5, 60, 0
13, 200160, Note_on_c, 5, 55, 91
13, 200640, Note_on_c, 5, 55, 0
13, 201600, Note_on_c, 5, 60, 91
13, 202080, Note_on_c, 5, 60, 0
13, 227520, Note_on_c, 5, 67, 115
13, 228000, Note_on_c, 5, 67, 0
13, 228960, Note_on_c, 5, 67, 115
13, 229440, Note_on_c, 5, 67, 0
13, 230400, Note_on_c, 5, 67, 115
13, 230880, Note_on_c, 5, 67, 0
13, 256320, Note_on_c, 5, 67, 115
13, 256800, Note_on_c, 5, 67, 0
13, 257760, Note_on_c, 5, 67, 115
13, 258240, Note_on_c, 5, 67, 0
13, 259200, Note_on_c, 5, 67, 115
13, 259680, Note_on_c, 5, 67, 0
13, 290400, Note_on_c, 5, 60, 115
13, 290880, Note_on_c, 5, 60, 0
13, 290880, Note_on_c, 5, 55, 115
13, 292320, Note_on_c, 5, 55, 0
13, 292320, Note_on_c, 5, 60, 115
13, 293760, Note_on_c, 5, 60, 0
13, 293760, Note_on_c, 5, 67, 115
13, 295200, Note_on_c, 5, 67, 0
13, 295200, Note_on_c, 5, 72, 115
13, 296640, Note_on_c, 5, 72, 0
13, 296640, Note_on_c, 5, 67, 115
13, 298080, Note_on_c, 5, 67, 0
13, 298080, Note_on_c, 5, 72, 115
13, 299520, Note_on_c, 5, 72, 0
13, 299520, Note_on_c, 5, 67, 115
13, 300960, Note_on_c, 5, 67, 0
13, 300960, Note_on_c, 5, 72, 115
13, 301440, Note_on_c, 5, 72, 0
13, 302400, Note_on_c, 5, 67, 115
13, 302880, Note_on_c, 5, 67, 0
13, 303840, Note_on_c, 5, 60, 115
13, 304320, Note_on_c, 5, 60, 0
13, 305280, Note_on_c, 5, 67, 115
13, 305760, Note_on_c, 5, 67, 0
13, 305760, Note_on_c, 5, 55, 115
13, 306240, Note_on_c, 5, 55, 0
13, 306240, Note_on_c, 5, 67, 115
13, 306720, Note_on_c, 5, 67, 0
13, 306720, Note_on_c, 5, 55, 115
13, 307200, Note_on_c, 5, 55, 0
13, 307200, Note_on_c, 5, 67, 115
13, 307680, Note_on_c, 5, 67, 0
13, 307680, Note_on_c, 5, 55, 115
13, 308160, Note_on_c, 5, 55, 0
13, 308160, Note_on_c, 5, 60, 115
13, 308640, Note_on_c, 5, 60, 0
13, 309600, Note_on_c, 5, 60, 115
13, 310080, Note_on_c, 5, 60, 0
13, 311040, Note_on_c, 5, 60, 115
13, 311520, Note_on_c, 5, 60, 0
13, 561600, Note_on_c, 5, 67, 91
13, 567360, Note_on_c, 5, 67, 0
13, 567360, End_track
14, 0, Start_track
14, 0, MIDI_port, 0
14, 0, Title_t, "Timpani"
14, 0, Program_c, 6, 47
14, 102240, Note_on_c, 6, 43, 115
14, 102720, Note_on_c, 6, 43, 0
14, 103680, Note_on_c, 6, 43, 115
14, 104160, Note_on_c, 6, 43, 0
14, 105120, Note_on_c, 6, 43, 115
14, 105600, Note_on_c, 6, 43, 0
14, 106560, Note_on_c, 6, 43, 115
14, 107040, Note_on_c, 6, 43, 0
14, 108000, Note_on_c, 6, 43, 115
14, 108480, Note_on_c, 6, 43, 0
14, 109440, Note_on_c, 6, 43, 115
14, 109920, Note_on_c, 6, 43, 0
14, 110880, Note_on_c, 6, 48, 115
14, 111360, Note_on_c, 6, 48, 0
14, 113760, Note_on_c, 6, 48, 115
14, 114240, Note_on_c, 6, 48, 0
14, 114240, Note_on_c, 6, 48, 115
14, 114720, Note_on_c, 6, 48, 0
14, 114720, Note_on_c, 6, 48, 115
14, 115200, Note_on_c, 6, 48, 0
14, 115200, Note_on_c, 6, 48, 115
14, 116640, Note_on_c, 6, 48, 0
14, 116640, Note_on_c, 6, 48, 115
14, 117120, Note_on_c, 6, 48, 0
14, 117120, Note_on_c, 6, 48, 115
14, 117600, Note_on_c, 6, 48, 0
14, 117600, Note_on_c, 6, 48, 115
14, 118080, Note_on_c, 6, 48, 0
14, 118080, Note_on_c, 6, 48, 115
14, 118560, Note_on_c, 6, 48, 0
14, 119520, Note_on_c, 6, 48, 115
14, 120000, Note_on_c, 6, 48, 0
14, 120000, Note_on_c, 6, 48, 115
14, 120480, Note_on_c, 6, 48, 0
14, 120480, Note_on_c, 6, 48, 115
14, 120960, Note_on_c, 6, 48, 0
14, 120960, Note_on_c, 6, 48, 115
14, 121440, Note_on_c, 6, 48, 0
14, 125280, Note_on_c, 6, 48, 115
14, 125760, Note_on_c, 6, 48, 0
14, 129600, Note_on_c, 6, 48, 115
14, 130080, Note_on_c, 6, 48, 0
14, 132000, Note_on_c, 6, 48, 115
14, 132480, Note_on_c, 6, 48, 0
14, 132480, Note_on_c, 6, 48, 115
14, 132960, Note_on_c, 6, 48, 0
14, 134880, Note_on_c, 6, 48, 115
14, 135360, Note_on_c, 6, 48, 0
14, 135360, Note_on_c, 6, 48, 115
14, 135840, Note_on_c, 6, 48, 0
14, 136800, Note_on_c, 6, 48, 115
14, 137280, Note_on_c, 6, 48, 0
14, 138240, Note_on_c, 6, 48, 91
14, 138720, Note_on_c, 6, 48, 0
14, 161280, Note_on_c, 6, 43, 91
14, 161760, Note_on_c, 6, 43, 0
14, 161760, Note_on_c, 6, 43, 91
14, 162240, Note_on_c, 6, 43, 0
14, 162240, Note_on_c, 6, 43, 91
14, 162720, Note_on_c, 6, 43, 0
14, 162720, Note_on_c, 6, 43, 91
14, 163200, Note_on_c, 6, 43, 0
14, 164160, Note_on_c, 6, 43, 91
14, 164640, Note_on_c, 6, 43, 0
14, 164640, Note_on_c, 6, 43, 91
14, 165120, Note_on_c, 6, 43, 0
14, 165120, Note_on_c, 6, 43, 91
14, 165600, Note_on_c, 6, 43, 0
14, 165600, Note_on_c, 6, 43, 91
14, 166080, Note_on_c, 6, 43, 0
14, 179520, Note_on_c, 6, 48, 91
14, 180000, Note_on_c, 6, 48, 0
14, 180960, Note_on_c, 6, 48, 91
14, 181440, Note_on_c, 6, 48, 0
14, 182400, Note_on_c, 6, 43, 91
14, 182880, Note_on_c, 6, 43, 0
14, 183840, Note_on_c, 6, 48, 91
14, 184320, Note_on_c, 6, 48, 0
14, 185280, Note_on_c, 6, 48, 101
14, 185760, Note_on_c, 6, 48, 0
14, 186720, Note_on_c, 6, 48, 109
14, 187200, Note_on_c, 6, 48, 0
14, 188160, Note_on_c, 6, 48, 115
14, 188640, Note_on_c, 6, 48, 0
14, 188640, Note_on_c, 6, 48, 115
14, 189120, Note_on_c, 6, 48, 0
14, 189120, Note_on_c, 6, 43, 115
14, 189600, Note_on_c, 6, 43, 0
14, 189600, Note_on_c, 6, 43, 115
14, 190080, Note_on_c, 6, 43, 0
14, 190080, Note_on_c, 6, 48, 115
14, 190560, Note_on_c, 6, 48, 0
14, 191520, Note_on_c, 6, 43, 123
14, 192000, Note_on_c, 6, 43, 0
14, 192000, Note_on_c, 6, 43, 123
14, 192480, Note_on_c, 6, 43, 0
14, 192480, Note_on_c, 6, 43, 123
14, 192960, Note_on_c, 6, 43, 0
14, 192960, Note_on_c, 6, 43, 123
14, 193440, Note_on_c, 6, 43, 0
14, 194400, Note_on_c, 6, 43, 123
14, 194880, Note_on_c, 6, 43, 0
14, 194880, Note_on_c, 6, 43, 123
14, 195360, Note_on_c, 6, 43, 0
14, 195360, Note_on_c, 6, 43, 123
14, 195840, Note_on_c, 6, 43, 0
14, 195840, Note_on_c, 6, 43, 123
14, 196320, Note_on_c, 6, 43, 0
14, 197280, Note_on_c, 6, 48, 91
14, 197760, Note_on_c, 6, 48, 0
14, 197760, Note_on_c, 6, 48, 91
14, 198240, Note_on_c, 6, 48, 0
14, 198240, Note_on_c, 6, 48, 91
14, 198720, Note_on_c, 6, 48, 0
14, 198720, Note_on_c, 6, 48, 91
14, 199200, Note_on_c, 6, 48, 0
14, 200160, Note_on_c, 6, 43, 91
14, 200640, Note_on_c, 6, 43, 0
14, 201600, Note_on_c, 6, 48, 91
14, 202080, Note_on_c, 6, 48, 0
14, 220320, Note_on_c, 6, 43, 115
14, 220800, Note_on_c, 6, 43, 0
14, 221760, Note_on_c, 6, 48, 115
14, 222240, Note_on_c, 6, 48, 0
14, 224640, Note_on_c, 6, 43, 115
14, 225120, Note_on_c, 6, 43, 0
14, 227520, Note_on_c, 6, 43, 115
14, 228000, Note_on_c, 6, 43, 0
14, 228960, Note_on_c, 6, 43, 115
14, 229440, Note_on_c, 6, 43, 0
14, 230400, Note_on_c, 6, 43, 115
14, 230880, Note_on_c, 6, 43, 0
14, 249120, Note_on_c, 6, 43, 115
14, 249600, Note_on_c, 6, 43, 0
14, 250560, Note_on_c, 6, 48, 115
14, 251040, Note_on_c, 6, 48, 0
14, 253440, Note_on_c, 6, 43, 115
14, 253920, Note_on_c, 6, 43, 0
14, 256320, Note_on_c, 6, 43, 115
14, 256800, Note_on_c, 6, 43, 0
14, 257760, Note_on_c, 6, 43, 115
14, 258240, Note_on_c, 6, 43, 0
14, 259200, Note_on_c, 6, 43, 115
14, 259680, Note_on_c, 6, 43, 0
14, 290400, Note_on_c, 6, 48, 115
14, 290880, Note_on_c, 6, 48, 0
14, 290880, Note_on_c, 6, 43, 115
14, 291360, Note_on_c, 6, 43, 0
14, 292320, Note_on_c, 6, 43, 115
14, 292800, Note_on_c, 6, 43, 0
14, 293760, Note_on_c, 6, 43, 115
14, 294240, Note_on_c, 6, 43, 0
14, 295200, Note_on_c, 6, 43, 115
14, 295680, Note_on_c, 6, 43, 0
14, 296640, Note_on_c, 6, 43, 115
14, 297120, Note_on_c, 6, 43, 0
14, 298080, Note_on_c, 6, 43, 115
14, 298560, Note_on_c, 6, 43, 0
14, 299520, Note_on_c, 6, 43, 115
14, 300000, Note_on_c, 6, 43, 0
14, 300000, Note_on_c, 6, 43, 115
14, 300480, Note_on_c, 6, 43, 0
14, 300480, Note_on_c, 6, 43, 115
14, 300960, Note_on_c, 6, 43, 0
14, 300960, Note_on_c, 6, 43, 115
14, 301440, Note_on_c, 6, 43, 0
14, 301440, Note_on_c, 6, 43, 115
14, 301920, Note_on_c, 6, 43, 0
14, 301920, Note_on_c, 6, 43, 115
14, 302400, Note_on_c, 6, 43, 0
14, 302400, Note_on_c, 6, 43, 115
14, 302880, Note_on_c, 6, 43, 0
14, 302880, Note_on_c, 6, 43, 115
14, 303360, Note_on_c, 6, 43, 0
14, 303360, Note_on_c, 6, 43, 115
14, 303840, Note_on_c, 6, 43, 0
14, 303840, Note_on_c, 6, 43, 115
14, 304320, Note_on_c, 6, 43, 0
14, 304320, Note_on_c, 6, 43, 115
14, 304800, Note_on_c, 6, 43, 0
14, 304800, Note_on_c, 6, 43, 115
14, 305280, Note_on_c, 6, 43, 0
14, 305280, Note_on_c, 6, 43, 115
14, 305520, Note_on_c, 6, 43, 0
14, 305520, Note_on_c, 6, 43, 115
14, 305760, Note_on_c, 6, 43, 0
14, 305760, Note_on_c, 6, 43, 115
14, 306000, Note_on_c, 6, 43, 0
14, 306000, Note_on_c, 6, 43, 115
14, 306240, Note_on_c, 6, 43, 0
14, 306240, Note_on_c, 6, 43, 115
14, 306480, Note_on_c, 6, 43, 0
14, 306480, Note_on_c, 6, 43, 115
14, 306720, Note_on_c, 6, 43, 0
14, 306720, Note_on_c, 6, 43, 115
14, 306960, Note_on_c, 6, 43, 0
14, 306960, Note_on_c, 6, 43, 115
14, 307200, Note_on_c, 6, 43, 0
14, 307200, Note_on_c, 6, 43, 115
14, 307440, Note_on_c, 6, 43, 0
14, 307440, Note_on_c, 6, 43, 115
14, 307680, Note_on_c, 6, 43, 0
14, 307680, Note_on_c, 6, 43, 115
14, 307920, Note_on_c, 6, 43, 0
14, 307920, Note_on_c, 6, 43, 115
14, 308160, Note_on_c, 6, 43, 0
14, 308160, Note_on_c, 6, 48, 115
14, 308640, Note_on_c, 6, 48, 0
14, 309600, Note_on_c, 6, 48, 115
14, 310080, Note_on_c, 6, 48, 0
14, 311040, Note_on_c, 6, 48, 115
14, 311520, Note_on_c, 6, 48, 0
14, 495360, Note_on_c, 6, 48, 78
14, 495840, Note_on_c, 6, 48, 0
14, 496800, Note_on_c, 6, 48, 78
14, 497280, Note_on_c, 6, 48, 0
14, 497280, Note_on_c, 6, 48, 78
14, 497760, Note_on_c, 6, 48, 0
14, 497760, Note_on_c, 6, 48, 78
14, 498240, Note_on_c, 6, 48, 0
14, 498240, Note_on_c, 6, 48, 78
14, 498720, Note_on_c, 6, 48, 0
14, 499680, Note_on_c, 6, 48, 78
14, 500160, Note_on_c, 6, 48, 0
14, 500160, Note_on_c, 6, 48, 78
14, 500640, Note_on_c, 6, 48, 0
14, 500640, Note_on_c, 6, 48, 78
14, 501120, Note_on_c, 6, 48, 0
14, 501120, Note_on_c, 6, 48, 78
14, 501600, Note_on_c, 6, 48, 0
14, 502560, Note_on_c, 6, 48, 78
14, 503040, Note_on_c, 6, 48, 0
14, 504000, Note_on_c, 6, 48, 78
14, 504480, Note_on_c, 6, 48, 0
14, 505440, Note_on_c, 6, 48, 78
14, 505920, Note_on_c, 6, 48, 0
14, 506880, Note_on_c, 6, 48, 78
14, 507360, Note_on_c, 6, 48, 0
14, 507840, Note_on_c, 6, 48, 78
14, 508320, Note_on_c, 6, 48, 0
14, 508320, Note_on_c, 6, 48, 78
14, 508800, Note_on_c, 6, 48, 0
14, 509280, Note_on_c, 6, 48, 78
14, 509760, Note_on_c, 6, 48, 0
14, 509760, Note_on_c, 6, 48, 78
14, 510240, Note_on_c, 6, 48, 0
14, 510720, Note_on_c, 6, 48, 78
14, 511200, Note_on_c, 6, 48, 0
14, 511200, Note_on_c, 6, 48, 78
14, 511680, Note_on_c, 6, 48, 0
14, 512160, Note_on_c, 6, 48, 78
14, 512640, Note_on_c, 6, 48, 0
14, 512640, Note_on_c, 6, 48, 78
14, 513120, Note_on_c, 6, 48, 0
14, 513120, Note_on_c, 6, 48, 78
14, 513600, Note_on_c, 6, 48, 0
14, 513600, Note_on_c, 6, 48, 78
14, 514080, Note_on_c, 6, 48, 0
14, 514080, Note_on_c, 6, 48, 78
14, 514560, Note_on_c, 6, 48, 0
14, 514560, Note_on_c, 6, 48, 78
14, 515040, Note_on_c, 6, 48, 0
14, 515040, Note_on_c, 6, 48, 78
14, 515520, Note_on_c, 6, 48, 0
14, 515520, Note_on_c, 6, 48, 78
14, 516000, Note_on_c, 6, 48, 0
14, 516000, Note_on_c, 6, 48, 78
14, 516480, Note_on_c, 6, 48, 0
14, 516480, Note_on_c, 6, 48, 78
14, 516960, Note_on_c, 6, 48, 0
14, 516960, Note_on_c, 6, 48, 78
14, 517440, Note_on_c, 6, 48, 0
14, 517440, Note_on_c, 6, 48, 78
14, 517920, Note_on_c, 6, 48, 0
14, 517920, Note_on_c, 6, 48, 78
14, 518400, Note_on_c, 6, 48, 0
14, 518400, Note_on_c, 6, 48, 78
14, 518880, Note_on_c, 6, 48, 0
14, 518880, Note_on_c, 6, 48, 78
14, 519360, Note_on_c, 6, 48, 0
14, 519360, Note_on_c, 6, 48, 78
14, 519840, Note_on_c, 6, 48, 0
14, 519840, Note_on_c, 6, 48, 78
14, 520320, Note_on_c, 6, 48, 0
14, 520320, Note_on_c, 6, 48, 78
14, 520800, Note_on_c, 6, 48, 0
14, 520800, Note_on_c, 6, 48, 78
14, 521280, Note_on_c, 6, 48, 0
14, 521280, Note_on_c, 6, 48, 78
14, 521760, Note_on_c, 6, 48, 0
14, 521760, Note_on_c, 6, 48, 78
14, 522240, Note_on_c, 6, 48, 0
14, 522240, Note_on_c, 6, 48, 78
14, 522720, Note_on_c, 6, 48, 0
14, 522720, Note_on_c, 6, 48, 78
14, 523200, Note_on_c, 6, 48, 0
14, 523200, Note_on_c, 6, 48, 78
14, 523680, Note_on_c, 6, 48, 0
14, 523680, Note_on_c, 6, 48, 78
14, 524160, Note_on_c, 6, 48, 0
14, 524160, Note_on_c, 6, 48, 78
14, 524640, Note_on_c, 6, 48, 0
14, 524640, Note_on_c, 6, 48, 78
14, 525120, Note_on_c, 6, 48, 0
14, 525120, Note_on_c, 6, 48, 78
14, 525600, Note_on_c, 6, 48, 0
14, 525600, Note_on_c, 6, 48, 78
14, 526080, Note_on_c, 6, 48, 0
14, 526080, Note_on_c, 6, 48, 78
14, 526560, Note_on_c, 6, 48, 0
14, 526560, Note_on_c, 6, 48, 78
14, 527040, Note_on_c, 6, 48, 0
14, 527040, Note_on_c, 6, 48, 78
14, 527520, Note_on_c, 6, 48, 0
14, 527520, Note_on_c, 6, 48, 78
14, 528000, Note_on_c, 6, 48, 0
14, 528000, Note_on_c, 6, 48, 78
14, 528480, Note_on_c, 6, 48, 0
14, 528480, Note_on_c, 6, 48, 78
14, 528960, Note_on_c, 6, 48, 0
14, 528960, Note_on_c, 6, 48, 78
14, 529440, Note_on_c, 6, 48, 0
14, 529440, Note_on_c, 6, 48, 78
14, 529920, Note_on_c, 6, 48, 0
14, 529920, Note_on_c, 6, 48, 78
14, 530400, Note_on_c, 6, 48, 0
14, 530400, Note_on_c, 6, 48, 78
14, 530880, Note_on_c, 6, 48, 0
14, 530880, Note_on_c, 6, 48, 78
14, 531360, Note_on_c, 6, 48, 0
14, 531360, Note_on_c, 6, 48, 78
14, 531840, Note_on_c, 6, 48, 0
14, 531840, Note_on_c, 6, 48, 78
14, 532320, Note_on_c, 6, 48, 0
14, 532320, Note_on_c, 6, 48, 78
14, 532800, Note_on_c, 6, 48, 0
14, 532800, Note_on_c, 6, 48, 78
14, 533280, Note_on_c, 6, 48, 0
14, 533280, Note_on_c, 6, 48, 78
14, 533760, Note_on_c, 6, 48, 0
14, 533760, Note_on_c, 6, 48, 78
14, 534240, Note_on_c, 6, 48, 0
14, 534240, Note_on_c, 6, 48, 78
14, 534720, Note_on_c, 6, 48, 0
14, 534720, Note_on_c, 6, 48, 78
14, 535200, Note_on_c, 6, 48, 0
14, 535200, Note_on_c, 6, 48, 78
14, 535680, Note_on_c, 6, 48, 0
14, 535680, Note_on_c, 6, 48, 78
14, 536160, Note_on_c, 6, 48, 0
14, 536160, Note_on_c, 6, 48, 78
14, 536640, Note_on_c, 6, 48, 0
14, 536640, Note_on_c, 6, 48, 78
14, 537120, Note_on_c, 6, 48, 0
14, 537120, Note_on_c, 6, 48, 78
14, 537600, Note_on_c, 6, 48, 0
14, 537600, Note_on_c, 6, 48, 78
14, 538080, Note_on_c, 6, 48, 0
14, 538080, Note_on_c, 6, 48, 78
14, 538560, Note_on_c, 6, 48, 0
14, 538560, Note_on_c, 6, 48, 78
14, 539040, Note_on_c, 6, 48, 0
14, 539040, Note_on_c, 6, 48, 78
14, 539520, Note_on_c, 6, 48, 0
14, 539520, Note_on_c, 6, 48, 78
14, 540000, Note_on_c, 6, 48, 0
14, 540000, Note_on_c, 6, 48, 78
14, 540480, Note_on_c, 6, 48, 0
14, 540480, Note_on_c, 6, 48, 78
14, 540960, Note_on_c, 6, 48, 0
14, 540960, Note_on_c, 6, 48, 78
14, 541440, Note_on_c, 6, 48, 0
14, 541440, Note_on_c, 6, 48, 78
14, 541920, Note_on_c, 6, 48, 0
14, 541920, Note_on_c, 6, 48, 78
14, 542400, Note_on_c, 6, 48, 0
14, 542400, Note_on_c, 6, 48, 78
14, 542880, Note_on_c, 6, 48, 0
14, 542880, Note_on_c, 6, 48, 78
14, 543360, Note_on_c, 6, 48, 0
14, 543360, Note_on_c, 6, 48, 78
14, 543840, Note_on_c, 6, 48, 0
14, 543840, Note_on_c, 6, 48, 78
14, 544320, Note_on_c, 6, 48, 0
14, 544320, Note_on_c, 6, 48, 78
14, 544800, Note_on_c, 6, 48, 0
14, 544800, Note_on_c, 6, 48, 78
14, 545280, Note_on_c, 6, 48, 0
14, 545280, Note_on_c, 6, 48, 78
14, 545760, Note_on_c, 6, 48, 0
14, 545760, Note_on_c, 6, 48, 78
14, 546240, Note_on_c, 6, 48, 0
14, 546240, Note_on_c, 6, 48, 78
14, 546720, Note_on_c, 6, 48, 0
14, 546720, Note_on_c, 6, 48, 78
14, 547200, Note_on_c, 6, 48, 0
14, 547200, Note_on_c, 6, 48, 78
14, 547680, Note_on_c, 6, 48, 0
14, 547680, Note_on_c, 6, 48, 78
14, 548160, Note_on_c, 6, 48, 0
14, 548160, Note_on_c, 6, 48, 78
14, 548640, Note_on_c, 6, 48, 0
14, 548640, Note_on_c, 6, 48, 78
14, 549120, Note_on_c, 6, 48, 0
14, 549120, Note_on_c, 6, 48, 78
14, 549600, Note_on_c, 6, 48, 0
14, 549600, Note_on_c, 6, 48, 78
14, 550080, Note_on_c, 6, 48, 0
14, 550080, Note_on_c, 6, 48, 78
14, 550560, Note_on_c, 6, 48, 0
14, 550560, Note_on_c, 6, 48, 78
14, 551040, Note_on_c, 6, 48, 0
14, 551040, Note_on_c, 6, 48, 78
14, 551520, Note_on_c, 6, 48, 0
14, 551520, Note_on_c, 6, 48, 78
14, 552000, Note_on_c, 6, 48, 0
14, 552000, Note_on_c, 6, 48, 78
14, 552480, Note_on_c, 6, 48, 0
14, 552480, Note_on_c, 6, 48, 78
14, 552960, Note_on_c, 6, 48, 0
14, 552960, Note_on_c, 6, 48, 78
14, 553440, Note_on_c, 6, 48, 0
14, 553440, Note_on_c, 6, 48, 78
14, 553920, Note_on_c, 6, 48, 0
14, 553920, Note_on_c, 6, 48, 78
14, 554400, Note_on_c, 6, 48, 0
14, 554400, Note_on_c, 6, 48, 78
14, 554880, Note_on_c, 6, 48, 0
14, 554880, Note_on_c, 6, 48, 78
14, 555360, Note_on_c, 6, 48, 0
14, 555360, Note_on_c, 6, 48, 78
14, 555840, Note_on_c, 6, 48, 0
14, 555840, Note_on_c, 6, 48, 78
14, 556080, Note_on_c, 6, 48, 0
14, 556080, Note_on_c, 6, 48, 78
14, 556320, Note_on_c, 6, 48, 0
14, 556320, Note_on_c, 6, 48, 78
14, 556560, Note_on_c, 6, 48, 0
14, 556560, Note_on_c, 6, 48, 78
14, 556800, Note_on_c, 6, 48, 0
14, 556800, Note_on_c, 6, 48, 78
14, 557040, Note_on_c, 6, 48, 0
14, 557040, Note_on_c, 6, 48, 78
14, 557280, Note_on_c, 6, 48, 0
14, 557280, Note_on_c, 6, 48, 91
14, 557520, Note_on_c, 6, 48, 0
14, 557520, Note_on_c, 6, 48, 91
14, 557760, Note_on_c, 6, 48, 0
14, 557760, Note_on_c, 6, 48, 91
14, 558000, Note_on_c, 6, 48, 0
14, 558000, Note_on_c, 6, 48, 91
14, 558240, Note_on_c, 6, 48, 0
14, 558240, Note_on_c, 6, 48, 91
14, 558480, Note_on_c, 6, 48, 0
14, 558480, Note_on_c, 6, 48, 91
14, 558720, Note_on_c, 6, 48, 0
14, 558720, Note_on_c, 6, 48, 101
14, 558960, Note_on_c, 6, 48, 0
14, 558960, Note_on_c, 6, 48, 101
14, 559200, Note_on_c, 6, 48, 0
14, 559200, Note_on_c, 6, 48, 101
14, 559440, Note_on_c, 6, 48, 0
14, 559440, Note_on_c, 6, 48, 101
14, 559680, Note_on_c, 6, 48, 0
14, 559680, Note_on_c, 6, 48, 101
14, 559920, Note_on_c, 6, 48, 0
14, 559920, Note_on_c, 6, 48, 101
14, 560160, Note_on_c, 6, 48, 0
14, 560160, Note_on_c, 6, 48, 101
14, 560400, Note_on_c, 6, 48, 0
14, 560400, Note_on_c, 6, 48, 101
14, 560640, Note_on_c, 6, 48, 0
14, 560640, Note_on_c, 6, 48, 101
14, 560880, Note_on_c, 6, 48, 0
14, 560880, Note_on_c, 6, 48, 101
14, 561120, Note_on_c, 6, 48, 0
14, 561120, Note_on_c, 6, 48, 101
14, 561360, Note_on_c, 6, 48, 0
14, 561360, Note_on_c, 6, 48, 101
14, 561600, Note_on_c, 6, 48, 0
14, 561600, Note_on_c, 6, 48, 109
14, 561840, Note_on_c, 6, 48, 0
14, 561840, Note_on_c, 6, 48, 109
14, 562080, Note_on_c, 6, 48, 0
14, 562080, Note_on_c, 6, 48, 109
14, 562320, Note_on_c, 6, 48, 0
14, 562320, Note_on_c, 6, 48, 109
14, 562560, Note_on_c, 6, 48, 0
14, 562560, Note_on_c, 6, 48, 109
14, 562800, Note_on_c, 6, 48, 0
14, 562800, Note_on_c, 6, 48, 109
14, 563040, Note_on_c, 6, 48, 0
14, 563040, Note_on_c, 6, 48, 115
14, 563280, Note_on_c, 6, 48, 0
14, 563280, Note_on_c, 6, 48, 115
14, 563520, Note_on_c, 6, 48, 0
14, 563520, Note_on_c, 6, 48, 115
14, 563760, Note_on_c, 6, 48, 0
14, 563760, Note_on_c, 6, 48, 115
14, 564000, Note_on_c, 6, 48, 0
14, 564000, Note_on_c, 6, 48, 115
14, 564240, Note_on_c, 6, 48, 0
14, 564240, Note_on_c, 6, 48, 115
14, 564480, Note_on_c, 6, 48, 0
14, 564480, Note_on_c, 6, 48, 123
14, 564720, Note_on_c, 6, 48, 0
14, 564720, Note_on_c, 6, 48, 123
14, 564960, Note_on_c, 6, 48, 0
14, 564960, Note_on_c, 6, 48, 123
14, 565200, Note_on_c, 6, 48, 0
14, 565200, Note_on_c, 6, 48, 123
14, 565440, Note_on_c, 6, 48, 0
14, 565440, Note_on_c, 6, 48, 123
14, 565680, Note_on_c, 6, 48, 0
14, 565680, Note_on_c, 6, 48, 123
14, 565920, Note_on_c, 6, 48, 0
14, 565920, Note_on_c, 6, 48, 127
14, 566160, Note_on_c, 6, 48, 0
14, 566160, Note_on_c, 6, 48, 127
14, 566400, Note_on_c, 6, 48, 0
14, 566400, Note_on_c, 6, 48, 127
14, 566640, Note_on_c, 6, 48, 0
14, 566640, Note_on_c, 6, 48, 127
14, 566880, Note_on_c, 6, 48, 0
14, 566880, Note_on_c, 6, 48, 127
14, 567120, Note_on_c, 6, 48, 0
14, 567120, Note_on_c, 6, 48, 127
14, 567360, Note_on_c, 6, 48, 0
14, 567360, End_track
15, 0, Start_track
15, 0, MIDI_port, 0
15, 0, Title_t, "Violins 1"
15, 0, Program_c, 7, 48
15, 7200, Note_on_c, 7, 67, 78
15, 8160, Note_on_c, 7, 67, 0
15, 8160, Note_on_c, 7, 71, 78
15, 8640, Note_on_c, 7, 71, 0
15, 8640, Note_on_c, 7, 72, 78
15, 9600, Note_on_c, 7, 72, 0
15, 9600, Note_on_c, 7, 74, 78
15, 10080, Note_on_c, 7, 74, 0
15, 10080, Note_on_c, 7, 77, 78
15, 11040, Note_on_c, 7, 77, 0
15, 11040, Note_on_c, 7, 75, 78
15, 11520, Note_on_c, 7, 75, 0
15, 11520, Note_on_c, 7, 74, 78
15, 12480, Note_on_c, 7, 74, 0
15, 21600, Note_on_c, 7, 67, 78
15, 22560, Note_on_c, 7, 67, 0
15, 22560, Note_on_c, 7, 71, 78
15, 23040, Note_on_c, 7, 71, 0
15, 23040, Note_on_c, 7, 72, 78
15, 24000, Note_on_c, 7, 72, 0
15, 24000, Note_on_c, 7, 74, 78
15, 24480, Note_on_c, 7, 74, 0
15, 24480, Note_on_c, 7, 77, 78
15, 25440, Note_on_c, 7, 77, 0
15, 25440, Note_on_c, 7, 75, 78
15, 25920, Note_on_c, 7, 75, 0
15, 25920, Note_on_c, 7, 74, 78
15, 27360, Note_on_c, 7, 74, 0
15, 28800, Note_on_c, 7, 55, 115
15, 28800, Note_on_c, 7, 67, 115
15, 29280, Note_on_c, 7, 67, 0
15, 29280, Note_on_c, 7, 55, 0
15, 30240, Note_on_c, 7, 55, 115
15, 30240, Note_on_c, 7, 67, 115
15, 30720, Note_on_c, 7, 67, 0
15, 30720, Note_on_c, 7, 55, 0
15, 31680, Note_on_c, 7, 55, 115
15, 31680, Note_on_c, 7, 67, 115
15, 32160, Note_on_c, 7, 67, 0
15, 32160, Note_on_c, 7, 55, 0
15, 33120, Note_on_c, 7, 55, 115
15, 33120, Note_on_c, 7, 67, 115
15, 33600, Note_on_c, 7, 67, 0
15, 33600, Note_on_c, 7, 55, 0
15, 34560, Note_on_c, 7, 55, 115
15, 34560, Note_on_c, 7, 67, 115
15, 35040, Note_on_c, 7, 67, 0
15, 35040, Note_on_c, 7, 55, 0
15, 36000, Note_on_c, 7, 68, 115
15, 36480, Note_on_c, 7, 68, 0
15, 37440, Note_on_c, 7, 65, 115
15, 37920, Note_on_c, 7, 65, 0
15, 38880, Note_on_c, 7, 70, 115
15, 38880, Note_on_c, 7, 82, 115
15, 39360, Note_on_c, 7, 82, 0
15, 39360, Note_on_c, 7, 70, 0
15, 39360, Note_on_c, 7, 70, 115
15, 39360, Note_on_c, 7, 82, 115
15, 39840, Note_on_c, 7, 82, 0
15, 39840, Note_on_c, 7, 70, 0
15, 39840, Note_on_c, 7, 70, 115
15, 39840, Note_on_c, 7, 82, 115
15, 40320, Note_on_c, 7, 82, 0
15, 40320, Note_on_c, 7, 70, 0
15, 40320, Note_on_c, 7, 70, 115
15, 40320, Note_on_c, 7, 82, 115
15, 41760, Note_on_c, 7, 82, 0
15, 41760, Note_on_c, 7, 70, 0
15, 41760, Note_on_c, 7, 70, 115
15, 41760, Note_on_c, 7, 82, 115
15, 42240, Note_on_c, 7, 82, 0
15, 42240, Note_on_c, 7, 70, 0
15, 42240, Note_on_c, 7, 70, 115
15, 42240, Note_on_c, 7, 82, 115
15, 42720, Note_on_c, 7, 82, 0
15, 42720, Note_on_c, 7, 70, 0
15, 42720, Note_on_c, 7, 70, 115
15, 42720, Note_on_c, 7, 82, 115
15, 43200, Note_on_c, 7, 82, 0
15, 43200, Note_on_c, 7, 70, 0
15, 43200, Note_on_c, 7, 70, 115
15, 43200, Note_on_c, 7, 82, 115
15, 44640, Note_on_c, 7, 82, 0
15, 44640, Note_on_c, 7, 70, 0
15, 44640, Note_on_c, 7, 70, 115
15, 44640, Note_on_c, 7, 82, 115
15, 45120, Note_on_c, 7, 82, 0
15, 45120, Note_on_c, 7, 70, 0
15, 45120, Note_on_c, 7, 70, 115
15, 45120, Note_on_c, 7, 82, 115
15, 45600, Note_on_c, 7, 82, 0
15, 45600, Note_on_c, 7, 70, 0
15, 45600, Note_on_c, 7, 70, 115
15, 45600, Note_on_c, 7, 82, 115
15, 46080, Note_on_c, 7, 82, 0
15, 46080, Note_on_c, 7, 70, 0
15, 46080, Note_on_c, 7, 70, 115
15, 46080, Note_on_c, 7, 82, 115
15, 47520, Note_on_c, 7, 82, 0
15, 47520, Note_on_c, 7, 70, 0
15, 47520, Note_on_c, 7, 85, 115
15, 48000, Note_on_c, 7, 85, 0
15, 48000, Note_on_c, 7, 83, 115
15, 48480, Note_on_c, 7, 83, 0
15, 48480, Note_on_c, 7, 82, 115
15, 48960, Note_on_c, 7, 82, 0
15, 48960, Note_on_c, 7, 80, 115
15, 50400, Note_on_c, 7, 80, 0
15, 50400, Note_on_c, 7, 82, 115
15, 51840, Note_on_c, 7, 82, 0
15, 51840, Note_on_c, 7, 78, 115
15, 53280, Note_on_c, 7, 78, 0
15, 53280, Note_on_c, 7, 82, 115
15, 53760, Note_on_c, 7, 82, 0
15, 53760, Note_on_c, 7, 80, 115
15, 54240, Note_on_c, 7, 80, 0
15, 54240, Note_on_c, 7, 78, 115
15, 54720, Note_on_c, 7, 78, 0
15, 54720, Note_on_c, 7, 77, 115
15, 57120, Note_on_c, 7, 77, 0
15, 57120, Note_on_c, 7, 78, 115
15, 57600, Note_on_c, 7, 78, 0
15, 57600, Note_on_c, 7, 77, 115
15, 60000, Note_on_c, 7, 77, 0
15, 60000, Note_on_c, 7, 78, 115
15, 60480, Note_on_c, 7, 78, 0
15, 60480, Note_on_c, 7, 77, 115
15, 61440, Note_on_c, 7, 77, 0
15, 61440, Note_on_c, 7, 78, 115
15, 61920, Note_on_c, 7, 78, 0
15, 61920, Note_on_c, 7, 77, 115
15, 62880, Note_on_c, 7, 77, 0
15, 62880, Note_on_c, 7, 78, 115
15, 63360, Note_on_c, 7, 78, 0
15, 63360, Note_on_c, 7, 77, 115
15, 65280, Note_on_c, 7, 77, 0
15, 70560, Note_on_c, 7, 65, 78
15, 71520, Note_on_c, 7, 65, 0
15, 71520, Note_on_c, 7, 69, 78
15, 72000, Note_on_c, 7, 69, 0
15, 72000, Note_on_c, 7, 70, 78
15, 72960, Note_on_c, 7, 70, 0
15, 72960, Note_on_c, 7, 72, 78
15, 73440, Note_on_c, 7, 72, 0
15, 73440, Note_on_c, 7, 75, 78
15, 74400, Note_on_c, 7, 75, 0
15, 74400, Note_on_c, 7, 73, 78
15, 74880, Note_on_c, 7, 73, 0
15, 74880, Note_on_c, 7, 72, 78
15, 75840, Note_on_c, 7, 72, 0
15, 88320, Note_on_c, 7, 71, 78
15, 88800, Note_on_c, 7, 71, 0
15, 88800, Note_on_c, 7, 76, 78
15, 89280, Note_on_c, 7, 76, 0
15, 89280, Note_on_c, 7, 77, 78
15, 89760, Note_on_c, 7, 77, 0
15, 91200, Note_on_c, 7, 71, 78
15, 91680, Note_on_c, 7, 71, 0
15, 91680, Note_on_c, 7, 76, 78
15, 92160, Note_on_c, 7, 76, 0
15, 92160, Note_on_c, 7, 77, 78
15, 92640, Note_on_c, 7, 77, 0
15, 93600, Note_on_c, 7, 77, 78
15, 94080, Note_on_c, 7, 77, 0
15, 95040, Note_on_c, 7, 77, 78
15, 95520, Note_on_c, 7, 77, 0
15, 96480, Note_on_c, 7, 79, 78
15, 96960, Note_on_c, 7, 79, 0
15, 97920, Note_on_c, 7, 79, 91
15, 98400, Note_on_c, 7, 79, 0
15, 99360, Note_on_c, 7, 79, 101
15, 99840, Note_on_c, 7, 79, 0
15, 100800, Note_on_c, 7, 79, 109
15, 101280, Note_on_c, 7, 79, 0
15, 102240, Note_on_c, 7, 79, 115
15, 102720, Note_on_c, 7, 79, 0
15, 102720, Note_on_c, 7, 79, 115
15, 103200, Note_on_c, 7, 79, 0
15, 103200, Note_on_c, 7, 79, 115
15, 103680, Note_on_c, 7, 79, 0
15, 103680, Note_on_c, 7, 79, 115
15, 105120, Note_on_c, 7, 79, 0
15, 105120, Note_on_c, 7, 79, 115
15, 105600, Note_on_c, 7, 79, 0
15, 105600, Note_on_c, 7, 79, 115
15, 106080, Note_on_c, 7, 79, 0
15, 106080, Note_on_c, 7, 79, 115
15, 106560, Note_on_c, 7, 79, 0
15, 106560, Note_on_c, 7, 79, 115
15, 108000, Note_on_c, 7, 79, 0
15, 108000, Note_on_c, 7, 79, 115
15, 108480, Note_on_c, 7, 79, 0
15, 108480, Note_on_c, 7, 79, 115
15, 108960, Note_on_c, 7, 79, 0
15, 108960, Note_on_c, 7, 79, 115
15, 109440, Note_on_c, 7, 79, 0
15, 109440, Note_on_c, 7, 79, 115
15, 110880, Note_on_c, 7, 79, 0
15, 110880, Note_on_c, 7, 82, 115
15, 111360, Note_on_c, 7, 82, 0
15, 111360, Note_on_c, 7, 80, 115
15, 111840, Note_on_c, 7, 80, 0
15, 111840, Note_on_c, 7, 79, 115
15, 112320, Note_on_c, 7, 79, 0
15, 112320, Note_on_c, 7, 77, 115
15, 113760, Note_on_c, 7, 77, 0
15, 113760, Note_on_c, 7, 64, 115
15, 113760, Note_on_c, 7, 72, 115
15, 113760, Note_on_c, 7, 76, 115
15, 114240, Note_on_c, 7, 76, 0
15, 114240, Note_on_c, 7, 72, 0
15, 114240, Note_on_c, 7, 64, 0
15, 115200, Note_on_c, 7, 65, 115
15, 115200, Note_on_c, 7, 72, 115
15, 115200, Note_on_c, 7, 80, 115
15, 115680, Note_on_c, 7, 80, 0
15, 115680, Note_on_c, 7, 72, 0
15, 115680, Note_on_c, 7, 65, 0
15, 116640, Note_on_c, 7, 64, 115
15, 116640, Note_on_c, 7, 72, 115
15, 116640, Note_on_c, 7, 79, 115
15, 117120, Note_on_c, 7, 79, 0
15, 117120, Note_on_c, 7, 72, 0
15, 117120, Note_on_c, 7, 64, 0
15, 118080, Note_on_c, 7, 65, 115
15, 118080, Note_on_c, 7, 72, 115
15, 118080, Note_on_c, 7, 77, 115
15, 118560, Note_on_c, 7, 77, 0
15, 118560, Note_on_c, 7, 72, 0
15, 118560, Note_on_c, 7, 65, 0
15, 119520, Note_on_c, 7, 84, 123
15, 120000, Note_on_c, 7, 84, 0
15, 120000, Note_on_c, 7, 84, 123
15, 120480, Note_on_c, 7, 84, 0
15, 120480, Note_on_c, 7, 84, 123
15, 120960, Note_on_c, 7, 84, 0
15, 120960, Note_on_c, 7, 84, 123
15, 122400, Note_on_c, 7, 84, 0
15, 122400, Note_on_c, 7, 87, 123
15, 122880, Note_on_c, 7, 87, 0
15, 122880, Note_on_c, 7, 85, 123
15, 123360, Note_on_c, 7, 85, 0
15, 123360, Note_on_c, 7, 84, 123
15, 123840, Note_on_c, 7, 84, 0
15, 123840, Note_on_c, 7, 82, 123
15, 125280, Note_on_c, 7, 82, 0
15, 125280, Note_on_c, 7, 84, 123
15, 126720, Note_on_c, 7, 84, 0
15, 126720, Note_on_c, 7, 80, 123
15, 128160, Note_on_c, 7, 80, 0
15, 128160, Note_on_c, 7, 84, 123
15, 128640, Note_on_c, 7, 84, 0
15, 128640, Note_on_c, 7, 82, 123
15, 129120, Note_on_c, 7, 82, 0
15, 129120, Note_on_c, 7, 80, 123
15, 129600, Note_on_c, 7, 80, 0
15, 129600, Note_on_c, 7, 79, 123
15, 132000, Note_on_c, 7, 79, 0
15, 132000, Note_on_c, 7, 80, 123
15, 132480, Note_on_c, 7, 80, 0
15, 132480, Note_on_c, 7, 79, 123
15, 134880, Note_on_c, 7, 79, 0
15, 134880, Note_on_c, 7, 80, 123
15, 135360, Note_on_c, 7, 80, 0
15, 135360, Note_on_c, 7, 79, 123
15, 136320, Note_on_c, 7, 79, 0
15, 136320, Note_on_c, 7, 80, 123
15, 136800, Note_on_c, 7, 80, 0
15, 136800, Note_on_c, 7, 79, 123
15, 137760, Note_on_c, 7, 79, 0
15, 137760, Note_on_c, 7, 80, 123
15, 138240, Note_on_c, 7, 80, 0
15, 138240, Note_on_c, 7, 79, 115
15, 140160, Note_on_c, 7, 79, 0
15, 145440, Note_on_c, 7, 79, 91
15, 145920, Note_on_c, 7, 79, 0
15, 145920, Note_on_c, 7, 79, 91
15, 146400, Note_on_c, 7, 79, 0
15, 146400, Note_on_c, 7, 79, 91
15, 146880, Note_on_c, 7, 79, 0
15, 146880, Note_on_c, 7, 79, 91
15, 147360, Note_on_c, 7, 79, 0
15, 151200, Note_on_c, 7, 79, 91
15, 151680, Note_on_c, 7, 79, 0
15, 151680, Note_on_c, 7, 79, 91
15, 152160, Note_on_c, 7, 79, 0
15, 152160, Note_on_c, 7, 79, 91
15, 152640, Note_on_c, 7, 79, 0
15, 152640, Note_on_c, 7, 79, 91
15, 153120, Note_on_c, 7, 79, 0
15, 156960, Note_on_c, 7, 72, 91
15, 157920, Note_on_c, 7, 72, 0
15, 157920, Note_on_c, 7, 75, 91
15, 158400, Note_on_c, 7, 75, 0
15, 158400, Note_on_c, 7, 77, 91
15, 159360, Note_on_c, 7, 77, 0
15, 159360, Note_on_c, 7, 79, 91
15, 159840, Note_on_c, 7, 79, 0
15, 159840, Note_on_c, 7, 80, 91
15, 160800, Note_on_c, 7, 80, 0
15, 160800, Note_on_c, 7, 79, 91
15, 161280, Note_on_c, 7, 79, 0
15, 161280, Note_on_c, 7, 79, 91
15, 162240, Note_on_c, 7, 79, 0
15, 162240, Note_on_c, 7, 77, 91
15, 162720, Note_on_c, 7, 77, 0
15, 162720, Note_on_c, 7, 80, 91
15, 163680, Note_on_c, 7, 80, 0
15, 163680, Note_on_c, 7, 79, 91
15, 164160, Note_on_c, 7, 79, 0
15, 164160, Note_on_c, 7, 79, 91
15, 164640, Note_on_c, 7, 79, 0
15, 164640, Note_on_c, 7, 77, 91
15, 165120, Note_on_c, 7, 77, 0
15, 165120, Note_on_c, 7, 77, 91
15, 165600, Note_on_c, 7, 77, 0
15, 165600, Note_on_c, 7, 77, 91
15, 166080, Note_on_c, 7, 77, 0
15, 166080, Note_on_c, 7, 77, 91
15, 166560, Note_on_c, 7, 77, 0
15, 166560, Note_on_c, 7, 79, 91
15, 167040, Note_on_c, 7, 79, 0
15, 167040, Note_on_c, 7, 77, 91
15, 167280, Note_on_c, 7, 77, 0
15, 167280, Note_on_c, 7, 75, 91
15, 167520, Note_on_c, 7, 75, 0
15, 167520, Note_on_c, 7, 74, 91
15, 167760, Note_on_c, 7, 74, 0
15, 167760, Note_on_c, 7, 72, 91
15, 168000, Note_on_c, 7, 72, 0
15, 168000, Note_on_c, 7, 72, 91
15, 168480, Note_on_c, 7, 72, 0
15, 168480, Note_on_c, 7, 72, 91
15, 168720, Note_on_c, 7, 72, 0
15, 168720, Note_on_c, 7, 71, 91
15, 168960, Note_on_c, 7, 71, 0
15, 168960, Note_on_c, 7, 72, 91
15, 169200, Note_on_c, 7, 72, 0
15, 169200, Note_on_c, 7, 74, 91
15, 169440, Note_on_c, 7, 74, 0
15, 169440, Note_on_c, 7, 74, 91
15, 169920, Note_on_c, 7, 74, 0
15, 169920, Note_on_c, 7, 74, 91
15, 170160, Note_on_c, 7, 74, 0
15, 170160, Note_on_c, 7, 72, 91
15, 170400, Note_on_c, 7, 72, 0
15, 170400, Note_on_c, 7, 74, 91
15, 170640, Note_on_c, 7, 74, 0
15, 170640, Note_on_c, 7, 75, 91
15, 170880, Note_on_c, 7, 75, 0
15, 170880, Note_on_c, 7, 77, 91
15, 171360, Note_on_c, 7, 77, 0
15, 171360, Note_on_c, 7, 77, 91
15, 171840, Note_on_c, 7, 77, 0
15, 171840, Note_on_c, 7, 77, 91
15, 172320, Note_on_c, 7, 77, 0
15, 172320, Note_on_c, 7, 79, 91
15, 172800, Note_on_c, 7, 79, 0
15, 172800, Note_on_c, 7, 77, 91
15, 173040, Note_on_c, 7, 77, 0
15, 173040, Note_on_c, 7, 75, 91
15, 173280, Note_on_c, 7, 75, 0
15, 173280, Note_on_c, 7, 74, 91
15, 173520, Note_on_c, 7, 74, 0
15, 173520, Note_on_c, 7, 72, 91
15, 173760, Note_on_c, 7, 72, 0
15, 173760, Note_on_c, 7, 72, 91
15, 174240, Note_on_c, 7, 72, 0
15, 174240, Note_on_c, 7, 72, 91
15, 174480, Note_on_c, 7, 72, 0
15, 174480, Note_on_c, 7, 71, 91
15, 174720, Note_on_c, 7, 71, 0
15, 174720, Note_on_c, 7, 72, 91
15, 174960, Note_on_c, 7, 72, 0
15, 174960, Note_on_c, 7, 74, 91
15, 175200, Note_on_c, 7, 74, 0
15, 175200, Note_on_c, 7, 74, 91
15, 175680, Note_on_c, 7, 74, 0
15, 175680, Note_on_c, 7, 74, 91
15, 175920, Note_on_c, 7, 74, 0
15, 175920, Note_on_c, 7, 72, 91
15, 176160, Note_on_c, 7, 72, 0
15, 176160, Note_on_c, 7, 74, 91
15, 176400, Note_on_c, 7, 74, 0
15, 176400, Note_on_c, 7, 75, 91
15, 176640, Note_on_c, 7, 75, 0
15, 176640, Note_on_c, 7, 77, 91
15, 177120, Note_on_c, 7, 77, 0
15, 177120, Note_on_c, 7, 77, 91
15, 177600, Note_on_c, 7, 77, 0
15, 177600, Note_on_c, 7, 77, 91
15, 178080, Note_on_c, 7, 77, 0
15, 178080, Note_on_c, 7, 79, 91
15, 178560, Note_on_c, 7, 79, 0
15, 178560, Note_on_c, 7, 77, 91
15, 178800, Note_on_c, 7, 77, 0
15, 178800, Note_on_c, 7, 75, 91
15, 179040, Note_on_c, 7, 75, 0
15, 179040, Note_on_c, 7, 74, 91
15, 179280, Note_on_c, 7, 74, 0
15, 179280, Note_on_c, 7, 72, 91
15, 179520, Note_on_c, 7, 72, 0
15, 179520, Note_on_c, 7, 72, 91
15, 180000, Note_on_c, 7, 72, 0
15, 180240, Note_on_c, 7, 77, 91
15, 180480, Note_on_c, 7, 77, 0
15, 180480, Note_on_c, 7, 79, 91
15, 180720, Note_on_c, 7, 79, 0
15, 180720, Note_on_c, 7, 80, 91
15, 180960, Note_on_c, 7, 80, 0
15, 180960, Note_on_c, 7, 80, 91
15, 181440, Note_on_c, 7, 80, 0
15, 181440, Note_on_c, 7, 72, 101
15, 181680, Note_on_c, 7, 72, 0
15, 181680, Note_on_c, 7, 71, 101
15, 181920, Note_on_c, 7, 71, 0
15, 181920, Note_on_c, 7, 69, 101
15, 182160, Note_on_c, 7, 69, 0
15, 182160, Note_on_c, 7, 67, 101
15, 182400, Note_on_c, 7, 67, 0
15, 182400, Note_on_c, 7, 67, 101
15, 182880, Note_on_c, 7, 67, 0
15, 183120, Note_on_c, 7, 67, 101
15, 183360, Note_on_c, 7, 67, 0
15, 183360, Note_on_c, 7, 69, 101
15, 183600, Note_on_c, 7, 69, 0
15, 183600, Note_on_c, 7, 71, 101
15, 183840, Note_on_c, 7, 71, 0
15, 183840, Note_on_c, 7, 72, 101
15, 184320, Note_on_c, 7, 72, 0
15, 184560, Note_on_c, 7, 72, 109
15, 184800, Note_on_c, 7, 72, 0
15, 184800, Note_on_c, 7, 74, 109
15, 185040, Note_on_c, 7, 74, 0
15, 185040, Note_on_c, 7, 75, 109
15, 185280, Note_on_c, 7, 75, 0
15, 185280, Note_on_c, 7, 75, 109
15, 185760, Note_on_c, 7, 75, 0
15, 186000, Note_on_c, 7, 77, 109
15, 186240, Note_on_c, 7, 77, 0
15, 186240, Note_on_c, 7, 79, 109
15, 186480, Note_on_c, 7, 79, 0
15, 186480, Note_on_c, 7, 80, 109
15, 186720, Note_on_c, 7, 80, 0
15, 186720, Note_on_c, 7, 80, 109
15, 187200, Note_on_c, 7, 80, 0
15, 187440, Note_on_c, 7, 80, 115
15, 187680, Note_on_c, 7, 80, 0
15, 187680, Note_on_c, 7, 82, 115
15, 187920, Note_on_c, 7, 82, 0
15, 187920, Note_on_c, 7, 84, 115
15, 188160, Note_on_c, 7, 84, 0
15, 188160, Note_on_c, 7, 84, 115
15, 188640, Note_on_c, 7, 84, 0
15, 188640, Note_on_c, 7, 84, 115
15, 189120, Note_on_c, 7, 84, 0
15, 189120, Note_on_c, 7, 67, 115
15, 189120, Note_on_c, 7, 75, 115
15, 189120, Note_on_c, 7, 84, 115
15, 189600, Note_on_c, 7, 84, 0
15, 189600, Note_on_c, 7, 75, 0
15, 189600, Note_on_c, 7, 67, 0
15, 189600, Note_on_c, 7, 67, 115
15, 189600, Note_on_c, 7, 74, 115
15, 189600, Note_on_c, 7, 83, 115
15, 190080, Note_on_c, 7, 83, 0
15, 190080, Note_on_c, 7, 74, 0
15, 190080, Note_on_c, 7, 67, 0
15, 190080, Note_on_c, 7, 67, 115
15, 190080, Note_on_c, 7, 75, 115
15, 190080, Note_on_c, 7, 84, 115
15, 190560, Note_on_c, 7, 84, 0
15, 190560, Note_on_c, 7, 75, 0
15, 190560, Note_on_c, 7, 67, 0
15, 191520, Note_on_c, 7, 79, 123
15, 192000, Note_on_c, 7, 79, 0
15, 192000, Note_on_c, 7, 79, 123
15, 192480, Note_on_c, 7, 79, 0
15, 192480, Note_on_c, 7, 79, 123
15, 192960, Note_on_c, 7, 79, 0
15, 192960, Note_on_c, 7, 79, 123
15, 194400, Note_on_c, 7, 79, 0
15, 194400, Note_on_c, 7, 79, 123
15, 194880, Note_on_c, 7, 79, 0
15, 194880, Note_on_c, 7, 79, 123
15, 195360, Note_on_c, 7, 79, 0
15, 195360, Note_on_c, 7, 79, 123
15, 195840, Note_on_c, 7, 79, 0
15, 195840, Note_on_c, 7, 79, 123
15, 197280, Note_on_c, 7, 79, 0
15, 197280, Note_on_c, 7, 72, 91
15, 197760, Note_on_c, 7, 72, 0
15, 197760, Note_on_c, 7, 72, 91
15, 198240, Note_on_c, 7, 72, 0
15, 198240, Note_on_c, 7, 72, 91
15, 198720, Note_on_c, 7, 72, 0
15, 198720, Note_on_c, 7, 72, 91
15, 199200, Note_on_c, 7, 72, 0
15, 200160, Note_on_c, 7, 67, 91
15, 200640, Note_on_c, 7, 67, 0
15, 201600, Note_on_c, 7, 60, 91
15, 202080, Note_on_c, 7, 60, 0
15, 222720, Note_on_c, 7, 79, 115
15, 223200, Note_on_c, 7, 79, 0
15, 223200, Note_on_c, 7, 78, 115
15, 223440, Note_on_c, 7, 78, 0
15, 223440, Note_on_c, 7, 79, 115
15, 223680, Note_on_c, 7, 79, 0
15, 223680, Note_on_c, 7, 81, 115
15, 223920, Note_on_c, 7, 81, 0
15, 223920, Note_on_c, 7, 74, 115
15, 224160, Note_on_c, 7, 74, 0
15, 224160, Note_on_c, 7, 76, 115
15, 224400, Note_on_c, 7, 76, 0
15, 224400, Note_on_c, 7, 78, 115
15, 224640, Note_on_c, 7, 78, 0
15, 224640, Note_on_c, 7, 79, 115
15, 224880, Note_on_c, 7, 79, 0
15, 224880, Note_on_c, 7, 78, 115
15, 225120, Note_on_c, 7, 78, 0
15, 225120, Note_on_c, 7, 79, 115
15, 225360, Note_on_c, 7, 79, 0
15, 225360, Note_on_c, 7, 81, 115
15, 225600, Note_on_c, 7, 81, 0
15, 225600, Note_on_c, 7, 83, 115
15, 225840, Note_on_c, 7, 83, 0
15, 225840, Note_on_c, 7, 84, 115
15, 226080, Note_on_c, 7, 84, 0
15, 226080, Note_on_c, 7, 86, 115
15, 226320, Note_on_c, 7, 86, 0
15, 226320, Note_on_c, 7, 86, 115
15, 226560, Note_on_c, 7, 86, 0
15, 226560, Note_on_c, 7, 86, 115
15, 226800, Note_on_c, 7, 86, 0
15, 226800, Note_on_c, 7, 86, 115
15, 227040, Note_on_c, 7, 86, 0
15, 227040, Note_on_c, 7, 88, 115
15, 227280, Note_on_c, 7, 88, 0
15, 227280, Note_on_c, 7, 90, 115
15, 227520, Note_on_c, 7, 90, 0
15, 227520, Note_on_c, 7, 91, 115
15, 228000, Note_on_c, 7, 91, 0
15, 228240, Note_on_c, 7, 86, 115
15, 228480, Note_on_c, 7, 86, 0
15, 228480, Note_on_c, 7, 88, 115
15, 228720, Note_on_c, 7, 88, 0
15, 228720, Note_on_c, 7, 90, 115
15, 228960, Note_on_c, 7, 90, 0
15, 228960, Note_on_c, 7, 91, 115
15, 229440, Note_on_c, 7, 91, 0
15, 229680, Note_on_c, 7, 86, 115
15, 229920, Note_on_c, 7, 86, 0
15, 229920, Note_on_c, 7, 88, 115
15, 230160, Note_on_c, 7, 88, 0
15, 230160, Note_on_c, 7, 90, 115
15, 230400, Note_on_c, 7, 90, 0
15, 230400, Note_on_c, 7, 91, 115
15, 230880, Note_on_c, 7, 91, 0
15, 251520, Note_on_c, 7, 79, 115
15, 252000, Note_on_c, 7, 79, 0
15, 252000, Note_on_c, 7, 78, 115
15, 252240, Note_on_c, 7, 78, 0
15, 252240, Note_on_c, 7, 79, 115
15, 252480, Note_on_c, 7, 79, 0
15, 252480, Note_on_c, 7, 81, 115
15, 252720, Note_on_c, 7, 81, 0
15, 252720, Note_on_c, 7, 74, 115
15, 252960, Note_on_c, 7, 74, 0
15, 252960, Note_on_c, 7, 76, 115
15, 253200, Note_on_c, 7, 76, 0
15, 253200, Note_on_c, 7, 78, 115
15, 253440, Note_on_c, 7, 78, 0
15, 253440, Note_on_c, 7, 79, 115
15, 253680, Note_on_c, 7, 79, 0
15, 253680, Note_on_c, 7, 78, 115
15, 253920, Note_on_c, 7, 78, 0
15, 253920, Note_on_c, 7, 79, 115
15, 254160, Note_on_c, 7, 79, 0
15, 254160, Note_on_c, 7, 81, 115
15, 254400, Note_on_c, 7, 81, 0
15, 254400, Note_on_c, 7, 83, 115
15, 254640, Note_on_c, 7, 83, 0
15, 254640, Note_on_c, 7, 84, 115
15, 254880, Note_on_c, 7, 84, 0
15, 254880, Note_on_c, 7, 86, 115
15, 255120, Note_on_c, 7, 86, 0
15, 255120, Note_on_c, 7, 86, 115
15, 255360, Note_on_c, 7, 86, 0
15, 255360, Note_on_c, 7, 86, 115
15, 255600, Note_on_c, 7, 86, 0
15, 255600, Note_on_c, 7, 86, 115
15, 255840, Note_on_c, 7, 86, 0
15, 255840, Note_on_c, 7, 88, 115
15, 256080, Note_on_c, 7, 88, 0
15, 256080, Note_on_c, 7, 90, 115
15, 256320, Note_on_c, 7, 90, 0
15, 256320, Note_on_c, 7, 91, 115
15, 256800, Note_on_c, 7, 91, 0
15, 257040, Note_on_c, 7, 86, 115
15, 257280, Note_on_c, 7, 86, 0
15, 257280, Note_on_c, 7, 88, 115
15, 257520, Note_on_c, 7, 88, 0
15, 257520, Note_on_c, 7, 90, 115
15, 257760, Note_on_c, 7, 90, 0
15, 257760, Note_on_c, 7, 91, 115
15, 258240, Note_on_c, 7, 91, 0
15, 258480, Note_on_c, 7, 86, 115
15, 258720, Note_on_c, 7, 86, 0
15, 258720, Note_on_c, 7, 88, 115
15, 258960, Note_on_c, 7, 88, 0
15, 258960, Note_on_c, 7, 90, 115
15, 259200, Note_on_c, 7, 90, 0
15, 259200, Note_on_c, 7, 91, 115
15, 259680, Note_on_c, 7, 91, 0
15, 287520, Note_on_c, 7, 79, 115
15, 288000, Note_on_c, 7, 79, 0
15, 288000, Note_on_c, 7, 76, 115
15, 288240, Note_on_c, 7, 76, 0
15, 288240, Note_on_c, 7, 77, 115
15, 288480, Note_on_c, 7, 77, 0
15, 288480, Note_on_c, 7, 79, 115
15, 288720, Note_on_c, 7, 79, 0
15, 288720, Note_on_c, 7, 72, 115
15, 288960, Note_on_c, 7, 72, 0
15, 288960, Note_on_c, 7, 74, 115
15, 289200, Note_on_c, 7, 74, 0
15, 289200, Note_on_c, 7, 76, 115
15, 289440, Note_on_c, 7, 76, 0
15, 289440, Note_on_c, 7, 77, 115
15, 289680, Note_on_c, 7, 77, 0
15, 289680, Note_on_c, 7, 76, 115
15, 289920, Note_on_c, 7, 76, 0
15, 289920, Note_on_c, 7, 77, 115
15, 290160, Note_on_c, 7, 77, 0
15, 290160, Note_on_c, 7, 79, 115
15, 290400, Note_on_c, 7, 79, 0
15, 290400, Note_on_c, 7, 81, 115
15, 290640, Note_on_c, 7, 81, 0
15, 290640, Note_on_c, 7, 77, 115
15, 290880, Note_on_c, 7, 77, 0
15, 290880, Note_on_c, 7, 74, 115
15, 291120, Note_on_c, 7, 74, 0
15, 291120, Note_on_c, 7, 67, 115
15, 291360, Note_on_c, 7, 67, 0
15, 291360, Note_on_c, 7, 74, 115
15, 291600, Note_on_c, 7, 74, 0
15, 291600, Note_on_c, 7, 74, 115
15, 291840, Note_on_c, 7, 74, 0
15, 291840, Note_on_c, 7, 74, 115
15, 292080, Note_on_c, 7, 74, 0
15, 292080, Note_on_c, 7, 74, 115
15, 292320, Note_on_c, 7, 74, 0
15, 292320, Note_on_c, 7, 76, 115
15, 292560, Note_on_c, 7, 76, 0
15, 292560, Note_on_c, 7, 72, 115
15, 292800, Note_on_c, 7, 72, 0
15, 292800, Note_on_c, 7, 76, 115
15, 293040, Note_on_c, 7, 76, 0
15, 293040, Note_on_c, 7, 76, 115
15, 293280, Note_on_c, 7, 76, 0
15, 293280, Note_on_c, 7, 76, 115
15, 293520, Note_on_c, 7, 76, 0
15, 293520, Note_on_c, 7, 77, 115
15, 293760, Note_on_c, 7, 77, 0
15, 293760, Note_on_c, 7, 79, 115
15, 294000, Note_on_c, 7, 79, 0
15, 294000, Note_on_c, 7, 74, 115
15, 294240, Note_on_c, 7, 74, 0
15, 294240, Note_on_c, 7, 79, 115
15, 294480, Note_on_c, 7, 79, 0
15, 294480, Note_on_c, 7, 79, 115
15, 294720, Note_on_c, 7, 79, 0
15, 294720, Note_on_c, 7, 77, 115
15, 294960, Note_on_c, 7, 77, 0
15, 294960, Note_on_c, 7, 77, 115
15, 295200, Note_on_c, 7, 77, 0
15, 295200, Note_on_c, 7, 76, 115
15, 295440, Note_on_c, 7, 76, 0
15, 295440, Note_on_c, 7, 76, 115
15, 295680, Note_on_c, 7, 76, 0
15, 295680, Note_on_c, 7, 72, 115
15, 295920, Note_on_c, 7, 72, 0
15, 295920, Note_on_c, 7, 72, 115
15, 296160, Note_on_c, 7, 72, 0
15, 296160, Note_on_c, 7, 76, 115
15, 296400, Note_on_c, 7, 76, 0
15, 296400, Note_on_c, 7, 76, 115
15, 296640, Note_on_c, 7, 76, 0
15, 296640, Note_on_c, 7, 79, 115
15, 296880, Note_on_c, 7, 79, 0
15, 296880, Note_on_c, 7, 74, 115
15, 297120, Note_on_c, 7, 74, 0
15, 297120, Note_on_c, 7, 79, 115
15, 297360, Note_on_c, 7, 79, 0
15, 297360, Note_on_c, 7, 79, 115
15, 297600, Note_on_c, 7, 79, 0
15, 297600, Note_on_c, 7, 77, 115
15, 297840, Note_on_c, 7, 77, 0
15, 297840, Note_on_c, 7, 77, 115
15, 298080, Note_on_c, 7, 77, 0
15, 298080, Note_on_c, 7, 76, 115
15, 298320, Note_on_c, 7, 76, 0
15, 298320, Note_on_c, 7, 76, 115
15, 298560, Note_on_c, 7, 76, 0
15, 298560, Note_on_c, 7, 72, 115
15, 298800, Note_on_c, 7, 72, 0
15, 298800, Note_on_c, 7, 72, 115
15, 299040, Note_on_c, 7, 72, 0
15, 299040, Note_on_c, 7, 76, 115
15, 299280, Note_on_c, 7, 76, 0
15, 299280, Note_on_c, 7, 76, 115
15, 299520, Note_on_c, 7, 76, 0
15, 299520, Note_on_c, 7, 79, 115
15, 299760, Note_on_c, 7, 79, 0
15, 299760, Note_on_c, 7, 74, 115
15, 300000, Note_on_c, 7, 74, 0
15, 300000, Note_on_c, 7, 79, 115
15, 300240, Note_on_c, 7, 79, 0
15, 300240, Note_on_c, 7, 79, 115
15, 300480, Note_on_c, 7, 79, 0
15, 300480, Note_on_c, 7, 77, 115
15, 300720, Note_on_c, 7, 77, 0
15, 300720, Note_on_c, 7, 77, 115
15, 300960, Note_on_c, 7, 77, 0
15, 300960, Note_on_c, 7, 76, 115
15, 301200, Note_on_c, 7, 76, 0
15, 301200, Note_on_c, 7, 76, 115
15, 301440, Note_on_c, 7, 76, 0
15, 301440, Note_on_c, 7, 72, 115
15, 301680, Note_on_c, 7, 72, 0
15, 301680, Note_on_c, 7, 72, 115
15, 301920, Note_on_c, 7, 72, 0
15, 301920, Note_on_c, 7, 77, 115
15, 302160, Note_on_c, 7, 77, 0
15, 302160, Note_on_c, 7, 77, 115
15, 302400, Note_on_c, 7, 77, 0
15, 302400, Note_on_c, 7, 74, 115
15, 302640, Note_on_c, 7, 74, 0
15, 302640, Note_on_c, 7, 74, 115
15, 302880, Note_on_c, 7, 74, 0
15, 302880, Note_on_c, 7, 71, 115
15, 303120, Note_on_c, 7, 71, 0
15, 303120, Note_on_c, 7, 71, 115
15, 303360, Note_on_c, 7, 71, 0
15, 303360, Note_on_c, 7, 76, 115
15, 303600, Note_on_c, 7, 76, 0
15, 303600, Note_on_c, 7, 76, 115
15, 303840, Note_on_c, 7, 76, 0
15, 303840, Note_on_c, 7, 72, 115
15, 304080, Note_on_c, 7, 72, 0
15, 304080, Note_on_c, 7, 72, 115
15, 304320, Note_on_c, 7, 72, 0
15, 304320, Note_on_c, 7, 69, 115
15, 304560, Note_on_c, 7, 69, 0
15, 304560, Note_on_c, 7, 69, 115
15, 304800, Note_on_c, 7, 69, 0
15, 304800, Note_on_c, 7, 74, 115
15, 305040, Note_on_c, 7, 74, 0
15, 305040, Note_on_c, 7, 74, 115
15, 305280, Note_on_c, 7, 74, 0
15, 305280, Note_on_c, 7, 71, 115
15, 305520, Note_on_c, 7, 71, 0
15, 305520, Note_on_c, 7, 71, 115
15, 305760, Note_on_c, 7, 71, 0
15, 305760, Note_on_c, 7, 79, 115
15, 306000, Note_on_c, 7, 79, 0
15, 306000, Note_on_c, 7, 79, 115
15, 306240, Note_on_c, 7, 79, 0
15, 306240, Note_on_c, 7, 74, 115
15, 306480, Note_on_c, 7, 74, 0
15, 306480, Note_on_c, 7, 74, 115
15, 306720, Note_on_c, 7, 74, 0
15, 306720, Note_on_c, 7, 71, 115
15, 306960, Note_on_c, 7, 71, 0
15, 306960, Note_on_c, 7, 71, 115
15, 307200, Note_on_c, 7, 71, 0
15, 307200, Note_on_c, 7, 79, 115
15, 307440, Note_on_c, 7, 79, 0
15, 307440, Note_on_c, 7, 79, 115
15, 307680, Note_on_c, 7, 79, 0
15, 307680, Note_on_c, 7, 83, 115
15, 307920, Note_on_c, 7, 83, 0
15, 307920, Note_on_c, 7, 83, 115
15, 308160, Note_on_c, 7, 83, 0
15, 308160, Note_on_c, 7, 84, 115
15, 308640, Note_on_c, 7, 84, 0
15, 308880, Note_on_c, 7, 79, 115
15, 309120, Note_on_c, 7, 79, 0
15, 309120, Note_on_c, 7, 81, 115
15, 309360, Note_on_c, 7, 81, 0
15, 309360, Note_on_c, 7, 83, 115
15, 309600, Note_on_c, 7, 83, 0
15, 309600, Note_on_c, 7, 84, 115
15, 310080, Note_on_c, 7, 84, 0
15, 310320, Note_on_c, 7, 79, 115
15, 310560, Note_on_c, 7, 79, 0
15, 310560, Note_on_c, 7, 81, 115
15, 310800, Note_on_c, 7, 81, 0
15, 310800, Note_on_c, 7, 83, 115
15, 311040, Note_on_c, 7, 83, 0
15, 311040, Note_on_c, 7, 84, 115
15, 311520, Note_on_c, 7, 84, 0
15, 339360, Note_on_c, 7, 79, 78
15, 339840, Note_on_c, 7, 79, 0
15, 339840, Note_on_c, 7, 76, 78
15, 340080, Note_on_c, 7, 76, 0
15, 340080, Note_on_c, 7, 77, 78
15, 340320, Note_on_c, 7, 77, 0
15, 340320, Note_on_c, 7, 79, 78
15, 340560, Note_on_c, 7, 79, 0
15, 340560, Note_on_c, 7, 72, 78
15, 340800, Note_on_c, 7, 72, 0
15, 340800, Note_on_c, 7, 74, 78
15, 341040, Note_on_c, 7, 74, 0
15, 341040, Note_on_c, 7, 76, 78
15, 341280, Note_on_c, 7, 76, 0
15, 341280, Note_on_c, 7, 77, 78
15, 341520, Note_on_c, 7, 77, 0
15, 341520, Note_on_c, 7, 76, 78
15, 341760, Note_on_c, 7, 76, 0
15, 341760, Note_on_c, 7, 77, 78
15, 342000, Note_on_c, 7, 77, 0
15, 342000, Note_on_c, 7, 79, 78
15, 342240, Note_on_c, 7, 79, 0
15, 342240, Note_on_c, 7, 81, 78
15, 342480, Note_on_c, 7, 81, 0
15, 342480, Note_on_c, 7, 77, 78
15, 342720, Note_on_c, 7, 77, 0
15, 342720, Note_on_c, 7, 74, 78
15, 343200, Note_on_c, 7, 74, 0
15, 390240, Note_on_c, 7, 67, 91
15, 390720, Note_on_c, 7, 67, 0
15, 391200, Note_on_c, 7, 71, 91
15, 391680, Note_on_c, 7, 71, 0
15, 391680, Note_on_c, 7, 72, 91
15, 392160, Note_on_c, 7, 72, 0
15, 392640, Note_on_c, 7, 74, 91
15, 393120, Note_on_c, 7, 74, 0
15, 393120, Note_on_c, 7, 77, 91
15, 393600, Note_on_c, 7, 77, 0
15, 394080, Note_on_c, 7, 75, 91
15, 394560, Note_on_c, 7, 75, 0
15, 394560, Note_on_c, 7, 74, 91
15, 395040, Note_on_c, 7, 74, 0
15, 396000, Note_on_c, 7, 59, 91
15, 396120, Note_on_c, 7, 59, 0
15, 396120, Note_on_c, 7, 62, 91
15, 396240, Note_on_c, 7, 62, 0
15, 396240, Note_on_c, 7, 67, 91
15, 396480, Note_on_c, 7, 67, 0
15, 397440, Note_on_c, 7, 60, 91
15, 397560, Note_on_c, 7, 60, 0
15, 397560, Note_on_c, 7, 63, 91
15, 397680, Note_on_c, 7, 63, 0
15, 397680, Note_on_c, 7, 67, 91
15, 397920, Note_on_c, 7, 67, 0
15, 398880, Note_on_c, 7, 62, 91
15, 399000, Note_on_c, 7, 62, 0
15, 399000, Note_on_c, 7, 65, 91
15, 399120, Note_on_c, 7, 65, 0
15, 399120, Note_on_c, 7, 71, 91
15, 399360, Note_on_c, 7, 71, 0
15, 400320, Note_on_c, 7, 63, 91
15, 400440, Note_on_c, 7, 63, 0
15, 400440, Note_on_c, 7, 67, 91
15, 400560, Note_on_c, 7, 67, 0
15, 400560, Note_on_c, 7, 72, 91
15, 400800, Note_on_c, 7, 72, 0
15, 401760, Note_on_c, 7, 67, 91
15, 402240, Note_on_c, 7, 67, 0
15, 402240, Note_on_c, 7, 67, 91
15, 402720, Note_on_c, 7, 67, 0
15, 402720, Note_on_c, 7, 67, 91
15, 403200, Note_on_c, 7, 67, 0
15, 403200, Note_on_c, 7, 67, 91
15, 403680, Note_on_c, 7, 67, 0
15, 404640, Note_on_c, 7, 70, 91
15, 405120, Note_on_c, 7, 70, 0
15, 405120, Note_on_c, 7, 68, 91
15, 405600, Note_on_c, 7, 68, 0
15, 405600, Note_on_c, 7, 67, 91
15, 406080, Note_on_c, 7, 67, 0
15, 406080, Note_on_c, 7, 65, 91
15, 406560, Note_on_c, 7, 65, 0
15, 407520, Note_on_c, 7, 64, 78
15, 407640, Note_on_c, 7, 64, 0
15, 407640, Note_on_c, 7, 67, 78
15, 407760, Note_on_c, 7, 67, 0
15, 407760, Note_on_c, 7, 72, 78
15, 408000, Note_on_c, 7, 72, 0
15, 408960, Note_on_c, 7, 65, 78
15, 409080, Note_on_c, 7, 65, 0
15, 409080, Note_on_c, 7, 68, 78
15, 409200, Note_on_c, 7, 68, 0
15, 409200, Note_on_c, 7, 72, 78
15, 409440, Note_on_c, 7, 72, 0
15, 410400, Note_on_c, 7, 64, 78
15, 410520, Note_on_c, 7, 64, 0
15, 410520, Note_on_c, 7, 70, 78
15, 410640, Note_on_c, 7, 70, 0
15, 410640, Note_on_c, 7, 72, 78
15, 410880, Note_on_c, 7, 72, 0
15, 411840, Note_on_c, 7, 65, 78
15, 411960, Note_on_c, 7, 65, 0
15, 411960, Note_on_c, 7, 68, 78
15, 412080, Note_on_c, 7, 68, 0
15, 412080, Note_on_c, 7, 72, 78
15, 412320, Note_on_c, 7, 72, 0
15, 413280, Note_on_c, 7, 72, 78
15, 413760, Note_on_c, 7, 72, 0
15, 413760, Note_on_c, 7, 72, 78
15, 414240, Note_on_c, 7, 72, 0
15, 414240, Note_on_c, 7, 72, 78
15, 414720, Note_on_c, 7, 72, 0
15, 414720, Note_on_c, 7, 72, 78
15, 415200, Note_on_c, 7, 72, 0
15, 416160, Note_on_c, 7, 75, 78
15, 416640, Note_on_c, 7, 75, 0
15, 416640, Note_on_c, 7, 73, 78
15, 417120, Note_on_c, 7, 73, 0
15, 417120, Note_on_c, 7, 72, 78
15, 417600, Note_on_c, 7, 72, 0
15, 417600, Note_on_c, 7, 70, 78
15, 418080, Note_on_c, 7, 70, 0
15, 419040, Note_on_c, 7, 72, 78
15, 419520, Note_on_c, 7, 72, 0
15, 420480, Note_on_c, 7, 68, 78
15, 420960, Note_on_c, 7, 68, 0
15, 421920, Note_on_c, 7, 72, 78
15, 422400, Note_on_c, 7, 72, 0
15, 422400, Note_on_c, 7, 70, 78
15, 422880, Note_on_c, 7, 70, 0
15, 422880, Note_on_c, 7, 68, 78
15, 423360, Note_on_c, 7, 68, 0
15, 423360, Note_on_c, 7, 67, 78
15, 423840, Note_on_c, 7, 67, 0
15, 425760, Note_on_c, 7, 68, 78
15, 426240, Note_on_c, 7, 68, 0
15, 426240, Note_on_c, 7, 67, 78
15, 426720, Note_on_c, 7, 67, 0
15, 428640, Note_on_c, 7, 68, 78
15, 429120, Note_on_c, 7, 68, 0
15, 429120, Note_on_c, 7, 67, 78
15, 429600, Note_on_c, 7, 67, 0
15, 430080, Note_on_c, 7, 68, 78
15, 430560, Note_on_c, 7, 68, 0
15, 430560, Note_on_c, 7, 67, 78
15, 431040, Note_on_c, 7, 67, 0
15, 431520, Note_on_c, 7, 68, 78
15, 432000, Note_on_c, 7, 68, 0
15, 432000, Note_on_c, 7, 67, 78
15, 432480, Note_on_c, 7, 67, 0
15, 439200, Note_on_c, 7, 67, 78
15, 439680, Note_on_c, 7, 67, 0
15, 440160, Note_on_c, 7, 71, 78
15, 440640, Note_on_c, 7, 71, 0
15, 440640, Note_on_c, 7, 72, 78
15, 441120, Note_on_c, 7, 72, 0
15, 441600, Note_on_c, 7, 74, 78
15, 442080, Note_on_c, 7, 74, 0
15, 442080, Note_on_c, 7, 77, 78
15, 442560, Note_on_c, 7, 77, 0
15, 443040, Note_on_c, 7, 75, 78
15, 443520, Note_on_c, 7, 75, 0
15, 443520, Note_on_c, 7, 74, 78
15, 444000, Note_on_c, 7, 74, 0
15, 444960, Note_on_c, 7, 67, 78
15, 445440, Note_on_c, 7, 67, 0
15, 445920, Note_on_c, 7, 71, 78
15, 446400, Note_on_c, 7, 71, 0
15, 446400, Note_on_c, 7, 72, 78
15, 446880, Note_on_c, 7, 72, 0
15, 447360, Note_on_c, 7, 75, 78
15, 447840, Note_on_c, 7, 75, 0
15, 447840, Note_on_c, 7, 79, 78
15, 448320, Note_on_c, 7, 79, 0
15, 448800, Note_on_c, 7, 77, 78
15, 449280, Note_on_c, 7, 77, 0
15, 449280, Note_on_c, 7, 75, 78
15, 449760, Note_on_c, 7, 75, 0
15, 450720, Note_on_c, 7, 72, 78
15, 451200, Note_on_c, 7, 72, 0
15, 451680, Note_on_c, 7, 75, 78
15, 452160, Note_on_c, 7, 75, 0
15, 452160, Note_on_c, 7, 77, 78
15, 452640, Note_on_c, 7, 77, 0
15, 453120, Note_on_c, 7, 79, 78
15, 453600, Note_on_c, 7, 79, 0
15, 453600, Note_on_c, 7, 80, 78
15, 454080, Note_on_c, 7, 80, 0
15, 454560, Note_on_c, 7, 79, 78
15, 455040, Note_on_c, 7, 79, 0
15, 455040, Note_on_c, 7, 79, 78
15, 455520, Note_on_c, 7, 79, 0
15, 456000, Note_on_c, 7, 77, 78
15, 456480, Note_on_c, 7, 77, 0
15, 456480, Note_on_c, 7, 80, 78
15, 456960, Note_on_c, 7, 80, 0
15, 457440, Note_on_c, 7, 79, 78
15, 457920, Note_on_c, 7, 79, 0
15, 457920, Note_on_c, 7, 79, 78
15, 458400, Note_on_c, 7, 79, 0
15, 458400, Note_on_c, 7, 77, 78
15, 458880, Note_on_c, 7, 77, 0
15, 458880, Note_on_c, 7, 75, 78
15, 459360, Note_on_c, 7, 75, 0
15, 459360, Note_on_c, 7, 77, 78
15, 459840, Note_on_c, 7, 77, 0
15, 459840, Note_on_c, 7, 77, 78
15, 460320, Note_on_c, 7, 77, 0
15, 460320, Note_on_c, 7, 79, 78
15, 460800, Note_on_c, 7, 79, 0
15, 460800, Note_on_c, 7, 77, 78
15, 461040, Note_on_c, 7, 77, 0
15, 461040, Note_on_c, 7, 75, 78
15, 461280, Note_on_c, 7, 75, 0
15, 461280, Note_on_c, 7, 74, 78
15, 461760, Note_on_c, 7, 74, 0
15, 461760, Note_on_c, 7, 72, 78
15, 462240, Note_on_c, 7, 72, 0
15, 462240, Note_on_c, 7, 71, 78
15, 462720, Note_on_c, 7, 71, 0
15, 462720, Note_on_c, 7, 72, 78
15, 463200, Note_on_c, 7, 72, 0
15, 463200, Note_on_c, 7, 74, 78
15, 463680, Note_on_c, 7, 74, 0
15, 463680, Note_on_c, 7, 72, 78
15, 464160, Note_on_c, 7, 72, 0
15, 464160, Note_on_c, 7, 75, 78
15, 464640, Note_on_c, 7, 75, 0
15, 464640, Note_on_c, 7, 77, 78
15, 465120, Note_on_c, 7, 77, 0
15, 465120, Note_on_c, 7, 77, 78
15, 465600, Note_on_c, 7, 77, 0
15, 465600, Note_on_c, 7, 77, 78
15, 466080, Note_on_c, 7, 77, 0
15, 466080, Note_on_c, 7, 79, 78
15, 466560, Note_on_c, 7, 79, 0
15, 466560, Note_on_c, 7, 77, 78
15, 466800, Note_on_c, 7, 77, 0
15, 466800, Note_on_c, 7, 75, 78
15, 467040, Note_on_c, 7, 75, 0
15, 467040, Note_on_c, 7, 74, 78
15, 467520, Note_on_c, 7, 74, 0
15, 467520, Note_on_c, 7, 72, 78
15, 468000, Note_on_c, 7, 72, 0
15, 468000, Note_on_c, 7, 71, 78
15, 468480, Note_on_c, 7, 71, 0
15, 468480, Note_on_c, 7, 72, 78
15, 468960, Note_on_c, 7, 72, 0
15, 468960, Note_on_c, 7, 74, 78
15, 469440, Note_on_c, 7, 74, 0
15, 469440, Note_on_c, 7, 72, 78
15, 469920, Note_on_c, 7, 72, 0
15, 469920, Note_on_c, 7, 75, 78
15, 470400, Note_on_c, 7, 75, 0
15, 470400, Note_on_c, 7, 77, 78
15, 470880, Note_on_c, 7, 77, 0
15, 470880, Note_on_c, 7, 77, 78
15, 471360, Note_on_c, 7, 77, 0
15, 471360, Note_on_c, 7, 77, 78
15, 471840, Note_on_c, 7, 77, 0
15, 471840, Note_on_c, 7, 79, 78
15, 472320, Note_on_c, 7, 79, 0
15, 472320, Note_on_c, 7, 77, 78
15, 472560, Note_on_c, 7, 77, 0
15, 472560, Note_on_c, 7, 75, 78
15, 472800, Note_on_c, 7, 75, 0
15, 472800, Note_on_c, 7, 74, 78
15, 473280, Note_on_c, 7, 74, 0
15, 473280, Note_on_c, 7, 72, 78
15, 473760, Note_on_c, 7, 72, 0
15, 473760, Note_on_c, 7, 77, 78
15, 474240, Note_on_c, 7, 77, 0
15, 474240, Note_on_c, 7, 79, 78
15, 474720, Note_on_c, 7, 79, 0
15, 474720, Note_on_c, 7, 80, 78
15, 475200, Note_on_c, 7, 80, 0
15, 475200, Note_on_c, 7, 72, 78
15, 475440, Note_on_c, 7, 72, 0
15, 475440, Note_on_c, 7, 71, 78
15, 475680, Note_on_c, 7, 71, 0
15, 475680, Note_on_c, 7, 69, 78
15, 476160, Note_on_c, 7, 69, 0
15, 476160, Note_on_c, 7, 67, 78
15, 476640, Note_on_c, 7, 67, 0
15, 476640, Note_on_c, 7, 67, 78
15, 477120, Note_on_c, 7, 67, 0
15, 477120, Note_on_c, 7, 69, 78
15, 477600, Note_on_c, 7, 69, 0
15, 477600, Note_on_c, 7, 71, 78
15, 478080, Note_on_c, 7, 71, 0
15, 478080, Note_on_c, 7, 72, 78
15, 478560, Note_on_c, 7, 72, 0
15, 478560, Note_on_c, 7, 74, 78
15, 479040, Note_on_c, 7, 74, 0
15, 479040, Note_on_c, 7, 75, 78
15, 479520, Note_on_c, 7, 75, 0
15, 479520, Note_on_c, 7, 77, 78
15, 480000, Note_on_c, 7, 77, 0
15, 480000, Note_on_c, 7, 79, 78
15, 480480, Note_on_c, 7, 79, 0
15, 480480, Note_on_c, 7, 80, 78
15, 480960, Note_on_c, 7, 80, 0
15, 480960, Note_on_c, 7, 80, 78
15, 481440, Note_on_c, 7, 80, 0
15, 481440, Note_on_c, 7, 82, 78
15, 481920, Note_on_c, 7, 82, 0
15, 481920, Note_on_c, 7, 84, 78
15, 482400, Note_on_c, 7, 84, 0
15, 482400, Note_on_c, 7, 84, 78
15, 482880, Note_on_c, 7, 84, 0
15, 482880, Note_on_c, 7, 84, 78
15, 483360, Note_on_c, 7, 84, 0
15, 483360, Note_on_c, 7, 83, 78
15, 483840, Note_on_c, 7, 83, 0
15, 483840, Note_on_c, 7, 84, 78
15, 484320, Note_on_c, 7, 84, 0
15, 485280, Note_on_c, 7, 79, 78
15, 485760, Note_on_c, 7, 79, 0
15, 485760, Note_on_c, 7, 79, 78
15, 486240, Note_on_c, 7, 79, 0
15, 486240, Note_on_c, 7, 79, 78
15, 486720, Note_on_c, 7, 79, 0
15, 486720, Note_on_c, 7, 79, 78
15, 487200, Note_on_c, 7, 79, 0
15, 488160, Note_on_c, 7, 79, 78
15, 488640, Note_on_c, 7, 79, 0
15, 488640, Note_on_c, 7, 79, 78
15, 489120, Note_on_c, 7, 79, 0
15, 489120, Note_on_c, 7, 79, 78
15, 489600, Note_on_c, 7, 79, 0
15, 489600, Note_on_c, 7, 79, 78
15, 490080, Note_on_c, 7, 79, 0
15, 491040, Note_on_c, 7, 72, 78
15, 491520, Note_on_c, 7, 72, 0
15, 491520, Note_on_c, 7, 72, 78
15, 492000, Note_on_c, 7, 72, 0
15, 492000, Note_on_c, 7, 72, 78
15, 492480, Note_on_c, 7, 72, 0
15, 492480, Note_on_c, 7, 72, 78
15, 492960, Note_on_c, 7, 72, 0
15, 493920, Note_on_c, 7, 67, 78
15, 494400, Note_on_c, 7, 67, 0
15, 495360, Note_on_c, 7, 60, 63
15, 502560, Note_on_c, 7, 60, 0
15, 502560, Note_on_c, 7, 60, 63
15, 509760, Note_on_c, 7, 60, 0
15, 509760, Note_on_c, 7, 60, 63
15, 516960, Note_on_c, 7, 60, 0
15, 516960, Note_on_c, 7, 60, 78
15, 517440, Note_on_c, 7, 60, 0
15, 517440, Note_on_c, 7, 63, 78
15, 517920, Note_on_c, 7, 63, 0
15, 517920, Note_on_c, 7, 68, 78
15, 518400, Note_on_c, 7, 68, 0
15, 518400, Note_on_c, 7, 72, 78
15, 519360, Note_on_c, 7, 72, 0
15, 519360, Note_on_c, 7, 75, 78
15, 519840, Note_on_c, 7, 75, 0
15, 519840, Note_on_c, 7, 74, 78
15, 520800, Note_on_c, 7, 74, 0
15, 520800, Note_on_c, 7, 66, 78
15, 521280, Note_on_c, 7, 66, 0
15, 522240, Note_on_c, 7, 75, 78
15, 522720, Note_on_c, 7, 75, 0
15, 522720, Note_on_c, 7, 74, 78
15, 523680, Note_on_c, 7, 74, 0
15, 523680, Note_on_c, 7, 67, 78
15, 524160, Note_on_c, 7, 67, 0
15, 525120, Note_on_c, 7, 75, 78
15, 525600, Note_on_c, 7, 75, 0
15, 525600, Note_on_c, 7, 74, 78
15, 526560, Note_on_c, 7, 74, 0
15, 526560, Note_on_c, 7, 69, 78
15, 527040, Note_on_c, 7, 69, 0
15, 528000, Note_on_c, 7, 75, 78
15, 528480, Note_on_c, 7, 75, 0
15, 528480, Note_on_c, 7, 74, 78
15, 529440, Note_on_c, 7, 74, 0
15, 529440, Note_on_c, 7, 67, 78
15, 529920, Note_on_c, 7, 67, 0
15, 530880, Note_on_c, 7, 75, 78
15, 531360, Note_on_c, 7, 75, 0
15, 531360, Note_on_c, 7, 74, 78
15, 532320, Note_on_c, 7, 74, 0
15, 532320, Note_on_c, 7, 66, 78
15, 532800, Note_on_c, 7, 66, 0
15, 533760, Note_on_c, 7, 75, 78
15, 534240, Note_on_c, 7, 75, 0
15, 534240, Note_on_c, 7, 74, 78
15, 535200, Note_on_c, 7, 74, 0
15, 535200, Note_on_c, 7, 67, 78
15, 535680, Note_on_c, 7, 67, 0
15, 535680, Note_on_c, 7, 75, 78
15, 536640, Note_on_c, 7, 75, 0
15, 536640, Note_on_c, 7, 74, 78
15, 537120, Note_on_c, 7, 74, 0
15, 537120, Note_on_c, 7, 67, 78
15, 538080, Note_on_c, 7, 67, 0
15, 538080, Note_on_c, 7, 75, 78
15, 538560, Note_on_c, 7, 75, 0
15, 538560, Note_on_c, 7, 74, 78
15, 539520, Note_on_c, 7, 74, 0
15, 539520, Note_on_c, 7, 67, 78
15, 540000, Note_on_c, 7, 67, 0
15, 540000, Note_on_c, 7, 76, 78
15, 540960, Note_on_c, 7, 76, 0
15, 540960, Note_on_c, 7, 74, 78
15, 541440, Note_on_c, 7, 74, 0
15, 541440, Note_on_c, 7, 67, 78
15, 542400, Note_on_c, 7, 67, 0
15, 542400, Note_on_c, 7, 77, 78
15, 542880, Note_on_c, 7, 77, 0
15, 542880, Note_on_c, 7, 76, 78
15, 543840, Note_on_c, 7, 76, 0
15, 543840, Note_on_c, 7, 69, 78
15, 544320, Note_on_c, 7, 69, 0
15, 544320, Note_on_c, 7, 79, 78
15, 545280, Note_on_c, 7, 79, 0
15, 545280, Note_on_c, 7, 77, 78
15, 545760, Note_on_c, 7, 77, 0
15, 545760, Note_on_c, 7, 69, 78
15, 546720, Note_on_c, 7, 69, 0
15, 546720, Note_on_c, 7, 81, 78
15, 547200, Note_on_c, 7, 81, 0
15, 547200, Note_on_c, 7, 79, 78
15, 548160, Note_on_c, 7, 79, 0
15, 548160, Note_on_c, 7, 71, 78
15, 548640, Note_on_c, 7, 71, 0
15, 548640, Note_on_c, 7, 83, 78
15, 549600, Note_on_c, 7, 83, 0
15, 549600, Note_on_c, 7, 81, 78
15, 550080, Note_on_c, 7, 81, 0
15, 550080, Note_on_c, 7, 72, 78
15, 551040, Note_on_c, 7, 72, 0
15, 551040, Note_on_c, 7, 84, 78
15, 551520, Note_on_c, 7, 84, 0
15, 551520, Note_on_c, 7, 83, 78
15, 552480, Note_on_c, 7, 83, 0
15, 552480, Note_on_c, 7, 74, 78
15, 552960, Note_on_c, 7, 74, 0
15, 552960, Note_on_c, 7, 86, 78
15, 553920, Note_on_c, 7, 86, 0
15, 553920, Note_on_c, 7, 84, 78
15, 554400, Note_on_c, 7, 84, 0
15, 554400, Note_on_c, 7, 76, 78
15, 555360, Note_on_c, 7, 76, 0
15, 555360, Note_on_c, 7, 88, 78
15, 555840, Note_on_c, 7, 88, 0
15, 555840, Note_on_c, 7, 86, 78
15, 556800, Note_on_c, 7, 86, 0
15, 556800, Note_on_c, 7, 77, 78
15, 557280, Note_on_c, 7, 77, 0
15, 557280, Note_on_c, 7, 89, 91
15, 557520, Note_on_c, 7, 89, 0
15, 557520, Note_on_c, 7, 89, 91
15, 557760, Note_on_c, 7, 89, 0
15, 557760, Note_on_c, 7, 89, 91
15, 558000, Note_on_c, 7, 89, 0
15, 558000, Note_on_c, 7, 89, 91
15, 558240, Note_on_c, 7, 89, 0
15, 558240, Note_on_c, 7, 89, 91
15, 558480, Note_on_c, 7, 89, 0
15, 558480, Note_on_c, 7, 89, 91
15, 558720, Note_on_c, 7, 89, 0
15, 558720, Note_on_c, 7, 89, 101
15, 558960, Note_on_c, 7, 89, 0
15, 558960, Note_on_c, 7, 89, 101
15, 559200, Note_on_c, 7, 89, 0
15, 559200, Note_on_c, 7, 89, 101
15, 559440, Note_on_c, 7, 89, 0
15, 559440, Note_on_c, 7, 89, 101
15, 559680, Note_on_c, 7, 89, 0
15, 559680, Note_on_c, 7, 89, 101
15, 559920, Note_on_c, 7, 89, 0
15, 559920, Note_on_c, 7, 89, 101
15, 560160, Note_on_c, 7, 89, 0
15, 560160, Note_on_c, 7, 89, 101
15, 560400, Note_on_c, 7, 89, 0
15, 560400, Note_on_c, 7, 89, 101
15, 560640, Note_on_c, 7, 89, 0
15, 560640, Note_on_c, 7, 89, 101
15, 560880, Note_on_c, 7, 89, 0
15, 560880, Note_on_c, 7, 89, 101
15, 561120, Note_on_c, 7, 89, 0
15, 561120, Note_on_c, 7, 89, 101
15, 561360, Note_on_c, 7, 89, 0
15, 561360, Note_on_c, 7, 89, 101
15, 561600, Note_on_c, 7, 89, 0
15, 561600, Note_on_c, 7, 89, 109
15, 561840, Note_on_c, 7, 89, 0
15, 561840, Note_on_c, 7, 89, 109
15, 562080, Note_on_c, 7, 89, 0
15, 562080, Note_on_c, 7, 89, 109
15, 562320, Note_on_c, 7, 89, 0
15, 562320, Note_on_c, 7, 89, 109
15, 562560, Note_on_c, 7, 89, 0
15, 562560, Note_on_c, 7, 89, 109
15, 562800, Note_on_c, 7, 89, 0
15, 562800, Note_on_c, 7, 89, 109
15, 563040, Note_on_c, 7, 89, 0
15, 563040, Note_on_c, 7, 89, 115
15, 563280, Note_on_c, 7, 89, 0
15, 563280, Note_on_c, 7, 89, 115
15, 563520, Note_on_c, 7, 89, 0
15, 563520, Note_on_c, 7, 89, 115
15, 563760, Note_on_c, 7, 89, 0
15, 563760, Note_on_c, 7, 89, 115
15, 564000, Note_on_c, 7, 89, 0
15, 564000, Note_on_c, 7, 89, 115
15, 564240, Note_on_c, 7, 89, 0
15, 564240, Note_on_c, 7, 89, 115
15, 564480, Note_on_c, 7, 89, 0
15, 564480, Note_on_c, 7, 89, 123
15, 564720, Note_on_c, 7, 89, 0
15, 564720, Note_on_c, 7, 89, 123
15, 564960, Note_on_c, 7, 89, 0
15, 564960, Note_on_c, 7, 89, 123
15, 565200, Note_on_c, 7, 89, 0
15, 565200, Note_on_c, 7, 89, 123
15, 565440, Note_on_c, 7, 89, 0
15, 565440, Note_on_c, 7, 89, 123
15, 565680, Note_on_c, 7, 89, 0
15, 565680, Note_on_c, 7, 89, 123
15, 565920, Note_on_c, 7, 89, 0
15, 565920, Note_on_c, 7, 89, 127
15, 566160, Note_on_c, 7, 89, 0
15, 566160, Note_on_c, 7, 89, 127
15, 566400, Note_on_c, 7, 89, 0
15, 566400, Note_on_c, 7, 89, 127
15, 566640, Note_on_c, 7, 89, 0
15, 566640, Note_on_c, 7, 89, 127
15, 566880, Note_on_c, 7, 89, 0
15, 566880, Note_on_c, 7, 89, 127
15, 567120, Note_on_c, 7, 89, 0
15, 567120, Note_on_c, 7, 89, 127
15, 567360, Note_on_c, 7, 89, 0
15, 567360, End_track
16, 0, Start_track
16, 0, MIDI_port, 0
16, 0, Title_t, "Violins 2"
16, 7200, Note_on_c, 7, 65, 78
16, 8640, Note_on_c, 7, 65, 0
16, 8640, Note_on_c, 7, 63, 78
16, 9600, Note_on_c, 7, 63, 0
16, 9600, Note_on_c, 7, 71, 78
16, 10080, Note_on_c, 7, 71, 0
16, 10080, Note_on_c, 7, 74, 78
16, 11040, Note_on_c, 7, 74, 0
16, 11040, Note_on_c, 7, 72, 78
16, 11520, Note_on_c, 7, 72, 0
16, 11520, Note_on_c, 7, 71, 78
16, 12480, Note_on_c, 7, 71, 0
16, 21600, Note_on_c, 7, 65, 78
16, 23040, Note_on_c, 7, 65, 0
16, 23040, Note_on_c, 7, 63, 78
16, 24000, Note_on_c, 7, 63, 0
16, 24000, Note_on_c, 7, 62, 78
16, 24480, Note_on_c, 7, 62, 0
16, 24480, Note_on_c, 7, 62, 78
16, 25440, Note_on_c, 7, 62, 0
16, 25440, Note_on_c, 7, 60, 78
16, 25920, Note_on_c, 7, 60, 0
16, 25920, Note_on_c, 7, 59, 78
16, 27360, Note_on_c, 7, 59, 0
16, 28800, Note_on_c, 7, 63, 115
16, 29280, Note_on_c, 7, 63, 0
16, 30240, Note_on_c, 7, 65, 115
16, 30720, Note_on_c, 7, 65, 0
16, 31680, Note_on_c, 7, 63, 115
16, 32160, Note_on_c, 7, 63, 0
16, 33120, Note_on_c, 7, 65, 115
16, 33600, Note_on_c, 7, 65, 0
16, 34560, Note_on_c, 7, 63, 115
16, 35040, Note_on_c, 7, 63, 0
16, 36000, Note_on_c, 7, 65, 115
16, 36480, Note_on_c, 7, 65, 0
16, 37440, Note_on_c, 7, 62, 115
16, 37920, Note_on_c, 7, 62, 0
16, 38880, Note_on_c, 7, 77, 115
16, 39360, Note_on_c, 7, 77, 0
16, 39360, Note_on_c, 7, 77, 115
16, 39840, Note_on_c, 7, 77, 0
16, 39840, Note_on_c, 7, 77, 115
16, 40320, Note_on_c, 7, 77, 0
16, 40320, Note_on_c, 7, 78, 115
16, 41760, Note_on_c, 7, 78, 0
16, 41760, Note_on_c, 7, 77, 115
16, 42240, Note_on_c, 7, 77, 0
16, 42240, Note_on_c, 7, 77, 115
16, 42720, Note_on_c, 7, 77, 0
16, 42720, Note_on_c, 7, 77, 115
16, 43200, Note_on_c, 7, 77, 0
16, 43200, Note_on_c, 7, 75, 115
16, 44640, Note_on_c, 7, 75, 0
16, 44640, Note_on_c, 7, 77, 115
16, 45120, Note_on_c, 7, 77, 0
16, 45120, Note_on_c, 7, 77, 115
16, 45600, Note_on_c, 7, 77, 0
16, 45600, Note_on_c, 7, 77, 115
16, 46080, Note_on_c, 7, 77, 0
16, 46080, Note_on_c, 7, 78, 115
16, 47520, Note_on_c, 7, 78, 0
16, 47520, Note_on_c, 7, 82, 115
16, 48000, Note_on_c, 7, 82, 0
16, 48000, Note_on_c, 7, 80, 115
16, 48480, Note_on_c, 7, 80, 0
16, 48480, Note_on_c, 7, 78, 115
16, 48960, Note_on_c, 7, 78, 0
16, 48960, Note_on_c, 7, 77, 115
16, 50400, Note_on_c, 7, 77, 0
16, 50400, Note_on_c, 7, 78, 115
16, 51840, Note_on_c, 7, 78, 0
16, 51840, Note_on_c, 7, 75, 115
16, 53280, Note_on_c, 7, 75, 0
16, 53280, Note_on_c, 7, 78, 115
16, 53760, Note_on_c, 7, 78, 0
16, 53760, Note_on_c, 7, 77, 115
16, 54240, Note_on_c, 7, 77, 0
16, 54240, Note_on_c, 7, 75, 115
16, 54720, Note_on_c, 7, 75, 0
16, 54720, Note_on_c, 7, 74, 115
16, 57120, Note_on_c, 7, 74, 0
16, 57120, Note_on_c, 7, 75, 115
16, 57600, Note_on_c, 7, 75, 0
16, 57600, Note_on_c, 7, 74, 115
16, 60000, Note_on_c, 7, 74, 0
16, 60000, Note_on_c, 7, 75, 115
16, 60480, Note_on_c, 7, 75, 0
16, 60480, Note_on_c, 7, 74, 115
16, 61440, Note_on_c, 7, 74, 0
16, 61440, Note_on_c, 7, 75, 115
16, 61920, Note_on_c, 7, 75, 0
16, 61920, Note_on_c, 7, 74, 115
16, 62880, Note_on_c, 7, 74, 0
16, 62880, Note_on_c, 7, 75, 115
16, 63360, Note_on_c, 7, 75, 0
16, 63360, Note_on_c, 7, 74, 115
16, 65280, Note_on_c, 7, 74, 0
16, 70560, Note_on_c, 7, 63, 78
16, 72000, Note_on_c, 7, 63, 0
16, 72000, Note_on_c, 7, 61, 78
16, 72960, Note_on_c, 7, 61, 0
16, 72960, Note_on_c, 7, 60, 78
16, 73440, Note_on_c, 7, 60, 0
16, 73440, Note_on_c, 7, 63, 78
16, 74400, Note_on_c, 7, 63, 0
16, 74400, Note_on_c, 7, 61, 78
16, 74880, Note_on_c, 7, 61, 0
16, 74880, Note_on_c, 7, 60, 78
16, 75840, Note_on_c, 7, 60, 0
16, 88320, Note_on_c, 7, 59, 78
16, 88800, Note_on_c, 7, 59, 0
16, 88800, Note_on_c, 7, 64, 78
16, 89280, Note_on_c, 7, 64, 0
16, 89280, Note_on_c, 7, 65, 78
16, 89760, Note_on_c, 7, 65, 0
16, 91200, Note_on_c, 7, 59, 78
16, 91680, Note_on_c, 7, 59, 0
16, 91680, Note_on_c, 7, 64, 78
16, 92160, Note_on_c, 7, 64, 0
16, 92160, Note_on_c, 7, 65, 78
16, 92640, Note_on_c, 7, 65, 0
16, 93600, Note_on_c, 7, 65, 78
16, 94080, Note_on_c, 7, 65, 0
16, 95040, Note_on_c, 7, 65, 78
16, 95520, Note_on_c, 7, 65, 0
16, 96480, Note_on_c, 7, 67, 78
16, 96960, Note_on_c, 7, 67, 0
16, 97920, Note_on_c, 7, 67, 91
16, 98400, Note_on_c, 7, 67, 0
16, 99360, Note_on_c, 7, 67, 101
16, 99840, Note_on_c, 7, 67, 0
16, 100800, Note_on_c, 7, 67, 109
16, 101280, Note_on_c, 7, 67, 0
16, 102240, Note_on_c, 7, 74, 115
16, 102720, Note_on_c, 7, 74, 0
16, 102720, Note_on_c, 7, 74, 115
16, 103200, Note_on_c, 7, 74, 0
16, 103200, Note_on_c, 7, 74, 115
16, 103680, Note_on_c, 7, 74, 0
16, 103680, Note_on_c, 7, 75, 115
16, 105120, Note_on_c, 7, 75, 0
16, 105120, Note_on_c, 7, 74, 115
16, 105600, Note_on_c, 7, 74, 0
16, 105600, Note_on_c, 7, 74, 115
16, 106080, Note_on_c, 7, 74, 0
16, 106080, Note_on_c, 7, 74, 115
16, 106560, Note_on_c, 7, 74, 0
16, 106560, Note_on_c, 7, 72, 115
16, 108000, Note_on_c, 7, 72, 0
16, 108000, Note_on_c, 7, 74, 115
16, 108480, Note_on_c, 7, 74, 0
16, 108480, Note_on_c, 7, 74, 115
16, 108960, Note_on_c, 7, 74, 0
16, 108960, Note_on_c, 7, 74, 115
16, 109440, Note_on_c, 7, 74, 0
16, 109440, Note_on_c, 7, 75, 115
16, 110880, Note_on_c, 7, 75, 0
16, 110880, Note_on_c, 7, 79, 115
16, 111360, Note_on_c, 7, 79, 0
16, 111360, Note_on_c, 7, 77, 115
16, 111840, Note_on_c, 7, 77, 0
16, 111840, Note_on_c, 7, 75, 115
16, 112320, Note_on_c, 7, 75, 0
16, 112320, Note_on_c, 7, 74, 115
16, 113760, Note_on_c, 7, 74, 0
16, 113760, Note_on_c, 7, 55, 115
16, 113760, Note_on_c, 7, 64, 115
16, 113760, Note_on_c, 7, 72, 115
16, 114240, Note_on_c, 7, 72, 0
16, 114240, Note_on_c, 7, 64, 0
16, 114240, Note_on_c, 7, 55, 0
16, 115200, Note_on_c, 7, 56, 115
16, 115200, Note_on_c, 7, 65, 115
16, 115200, Note_on_c, 7, 72, 115
16, 115680, Note_on_c, 7, 72, 0
16, 115680, Note_on_c, 7, 65, 0
16, 115680, Note_on_c, 7, 56, 0
16, 116640, Note_on_c, 7, 64, 115
16, 116640, Note_on_c, 7, 72, 115
16, 117120, Note_on_c, 7, 72, 0
16, 117120, Note_on_c, 7, 64, 0
16, 118080, Note_on_c, 7, 65, 115
16, 118080, Note_on_c, 7, 72, 115
16, 118560, Note_on_c, 7, 72, 0
16, 118560, Note_on_c, 7, 65, 0
16, 119520, Note_on_c, 7, 72, 123
16, 119520, Note_on_c, 7, 79, 123
16, 120000, Note_on_c, 7, 79, 0
16, 120000, Note_on_c, 7, 72, 0
16, 120000, Note_on_c, 7, 72, 123
16, 120000, Note_on_c, 7, 79, 123
16, 120480, Note_on_c, 7, 79, 0
16, 120480, Note_on_c, 7, 72, 0
16, 120480, Note_on_c, 7, 72, 123
16, 120480, Note_on_c, 7, 79, 123
16, 120960, Note_on_c, 7, 79, 0
16, 120960, Note_on_c, 7, 72, 0
16, 120960, Note_on_c, 7, 72, 123
16, 120960, Note_on_c, 7, 80, 123
16, 122400, Note_on_c, 7, 80, 0
16, 122400, Note_on_c, 7, 72, 0
16, 122400, Note_on_c, 7, 84, 123
16, 122880, Note_on_c, 7, 84, 0
16, 122880, Note_on_c, 7, 82, 123
16, 123360, Note_on_c, 7, 82, 0
16, 123360, Note_on_c, 7, 80, 123
16, 123840, Note_on_c, 7, 80, 0
16, 123840, Note_on_c, 7, 79, 123
16, 125280, Note_on_c, 7, 79, 0
16, 125280, Note_on_c, 7, 80, 123
16, 126720, Note_on_c, 7, 80, 0
16, 126720, Note_on_c, 7, 77, 123
16, 128160, Note_on_c, 7, 77, 0
16, 128160, Note_on_c, 7, 80, 123
16, 128640, Note_on_c, 7, 80, 0
16, 128640, Note_on_c, 7, 79, 123
16, 129120, Note_on_c, 7, 79, 0
16, 129120, Note_on_c, 7, 77, 123
16, 129600, Note_on_c, 7, 77, 0
16, 129600, Note_on_c, 7, 76, 123
16, 132000, Note_on_c, 7, 76, 0
16, 132000, Note_on_c, 7, 77, 123
16, 132480, Note_on_c, 7, 77, 0
16, 132480, Note_on_c, 7, 76, 123
16, 134880, Note_on_c, 7, 76, 0
16, 134880, Note_on_c, 7, 77, 123
16, 135360, Note_on_c, 7, 77, 0
16, 135360, Note_on_c, 7, 76, 123
16, 136320, Note_on_c, 7, 76, 0
16, 136320, Note_on_c, 7, 77, 123
16, 136800, Note_on_c, 7, 77, 0
16, 136800, Note_on_c, 7, 76, 123
16, 137760, Note_on_c, 7, 76, 0
16, 137760, Note_on_c, 7, 77, 123
16, 138240, Note_on_c, 7, 77, 0
16, 138240, Note_on_c, 7, 76, 115
16, 140160, Note_on_c, 7, 76, 0
16, 148320, Note_on_c, 7, 67, 91
16, 148800, Note_on_c, 7, 67, 0
16, 148800, Note_on_c, 7, 67, 91
16, 149280, Note_on_c, 7, 67, 0
16, 149280, Note_on_c, 7, 67, 91
16, 149760, Note_on_c, 7, 67, 0
16, 149760, Note_on_c, 7, 67, 91
16, 150240, Note_on_c, 7, 67, 0
16, 154080, Note_on_c, 7, 67, 91
16, 154560, Note_on_c, 7, 67, 0
16, 154560, Note_on_c, 7, 67, 91
16, 155040, Note_on_c, 7, 67, 0
16, 155040, Note_on_c, 7, 67, 91
16, 155520, Note_on_c, 7, 67, 0
16, 155520, Note_on_c, 7, 67, 91
16, 156000, Note_on_c, 7, 67, 0
16, 156960, Note_on_c, 7, 72, 91
16, 157920, Note_on_c, 7, 72, 0
16, 157920, Note_on_c, 7, 72, 91
16, 158400, Note_on_c, 7, 72, 0
16, 158400, Note_on_c, 7, 74, 91
16, 159360, Note_on_c, 7, 74, 0
16, 159360, Note_on_c, 7, 75, 91
16, 159840, Note_on_c, 7, 75, 0
16, 159840, Note_on_c, 7, 77, 91
16, 160800, Note_on_c, 7, 77, 0
16, 160800, Note_on_c, 7, 75, 91
16, 161280, Note_on_c, 7, 75, 0
16, 161280, Note_on_c, 7, 75, 91
16, 162240, Note_on_c, 7, 75, 0
16, 162240, Note_on_c, 7, 74, 91
16, 162720, Note_on_c, 7, 74, 0
16, 162720, Note_on_c, 7, 77, 91
16, 163680, Note_on_c, 7, 77, 0
16, 163680, Note_on_c, 7, 75, 91
16, 164160, Note_on_c, 7, 75, 0
16, 164160, Note_on_c, 7, 75, 91
16, 164640, Note_on_c, 7, 75, 0
16, 164640, Note_on_c, 7, 74, 91
16, 165120, Note_on_c, 7, 74, 0
16, 165120, Note_on_c, 7, 65, 91
16, 165600, Note_on_c, 7, 65, 0
16, 165600, Note_on_c, 7, 65, 91
16, 166080, Note_on_c, 7, 65, 0
16, 166080, Note_on_c, 7, 65, 91
16, 166560, Note_on_c, 7, 65, 0
16, 166560, Note_on_c, 7, 67, 91
16, 167040, Note_on_c, 7, 67, 0
16, 167520, Note_on_c, 7, 63, 91
16, 168000, Note_on_c, 7, 63, 0
16, 168000, Note_on_c, 7, 65, 91
16, 168480, Note_on_c, 7, 65, 0
16, 168960, Note_on_c, 7, 65, 91
16, 169440, Note_on_c, 7, 65, 0
16, 169440, Note_on_c, 7, 62, 91
16, 169920, Note_on_c, 7, 62, 0
16, 170400, Note_on_c, 7, 63, 91
16, 170880, Note_on_c, 7, 63, 0
16, 170880, Note_on_c, 7, 65, 91
16, 171360, Note_on_c, 7, 65, 0
16, 171840, Note_on_c, 7, 65, 91
16, 172320, Note_on_c, 7, 65, 0
16, 172320, Note_on_c, 7, 67, 91
16, 172800, Note_on_c, 7, 67, 0
16, 173280, Note_on_c, 7, 63, 91
16, 173760, Note_on_c, 7, 63, 0
16, 173760, Note_on_c, 7, 65, 91
16, 174240, Note_on_c, 7, 65, 0
16, 174720, Note_on_c, 7, 65, 91
16, 175200, Note_on_c, 7, 65, 0
16, 175200, Note_on_c, 7, 62, 91
16, 175680, Note_on_c, 7, 62, 0
16, 176160, Note_on_c, 7, 63, 91
16, 176640, Note_on_c, 7, 63, 0
16, 176640, Note_on_c, 7, 65, 91
16, 177120, Note_on_c, 7, 65, 0
16, 177600, Note_on_c, 7, 62, 91
16, 178080, Note_on_c, 7, 62, 0
16, 178080, Note_on_c, 7, 67, 91
16, 178560, Note_on_c, 7, 67, 0
16, 179040, Note_on_c, 7, 63, 91
16, 179520, Note_on_c, 7, 63, 0
16, 179520, Note_on_c, 7, 67, 91
16, 180000, Note_on_c, 7, 67, 0
16, 180480, Note_on_c, 7, 65, 91
16, 180960, Note_on_c, 7, 65, 0
16, 180960, Note_on_c, 7, 68, 91
16, 181440, Note_on_c, 7, 68, 0
16, 181920, Note_on_c, 7, 59, 101
16, 182400, Note_on_c, 7, 59, 0
16, 182400, Note_on_c, 7, 62, 101
16, 182880, Note_on_c, 7, 62, 0
16, 183360, Note_on_c, 7, 60, 101
16, 183840, Note_on_c, 7, 60, 0
16, 183840, Note_on_c, 7, 63, 101
16, 184320, Note_on_c, 7, 63, 0
16, 184800, Note_on_c, 7, 63, 109
16, 185280, Note_on_c, 7, 63, 0
16, 185280, Note_on_c, 7, 67, 109
16, 185760, Note_on_c, 7, 67, 0
16, 186000, Note_on_c, 7, 65, 109
16, 186240, Note_on_c, 7, 65, 0
16, 186240, Note_on_c, 7, 67, 109
16, 186480, Note_on_c, 7, 67, 0
16, 186480, Note_on_c, 7, 68, 109
16, 186720, Note_on_c, 7, 68, 0
16, 186720, Note_on_c, 7, 68, 109
16, 187200, Note_on_c, 7, 68, 0
16, 187440, Note_on_c, 7, 68, 115
16, 187680, Note_on_c, 7, 68, 0
16, 187680, Note_on_c, 7, 70, 115
16, 187920, Note_on_c, 7, 70, 0
16, 187920, Note_on_c, 7, 72, 115
16, 188160, Note_on_c, 7, 72, 0
16, 188160, Note_on_c, 7, 72, 115
16, 188640, Note_on_c, 7, 72, 0
16, 188640, Note_on_c, 7, 72, 115
16, 189120, Note_on_c, 7, 72, 0
16, 189120, Note_on_c, 7, 67, 115
16, 189120, Note_on_c, 7, 75, 115
16, 189120, Note_on_c, 7, 84, 115
16, 189600, Note_on_c, 7, 84, 0
16, 189600, Note_on_c, 7, 75, 0
16, 189600, Note_on_c, 7, 67, 0
16, 189600, Note_on_c, 7, 67, 115
16, 189600, Note_on_c, 7, 74, 115
16, 189600, Note_on_c, 7, 83, 115
16, 190080, Note_on_c, 7, 83, 0
16, 190080, Note_on_c, 7, 74, 0
16, 190080, Note_on_c, 7, 67, 0
16, 190080, Note_on_c, 7, 67, 115
16, 190080, Note_on_c, 7, 75, 115
16, 190080, Note_on_c, 7, 84, 115
16, 190560, Note_on_c, 7, 84, 0
16, 190560, Note_on_c, 7, 75, 0
16, 190560, Note_on_c, 7, 67, 0
16, 191520, Note_on_c, 7, 74, 123
16, 192000, Note_on_c, 7, 74, 0
16, 192000, Note_on_c, 7, 74, 123
16, 192480, Note_on_c, 7, 74, 0
16, 192480, Note_on_c, 7, 74, 123
16, 192960, Note_on_c, 7, 74, 0
16, 192960, Note_on_c, 7, 75, 123
16, 194400, Note_on_c, 7, 75, 0
16, 194400, Note_on_c, 7, 74, 123
16, 194880, Note_on_c, 7, 74, 0
16, 194880, Note_on_c, 7, 74, 123
16, 195360, Note_on_c, 7, 74, 0
16, 195360, Note_on_c, 7, 74, 123
16, 195840, Note_on_c, 7, 74, 0
16, 195840, Note_on_c, 7, 72, 123
16, 197280, Note_on_c, 7, 72, 0
16, 197280, Note_on_c, 7, 70, 91
16, 197760, Note_on_c, 7, 70, 0
16, 197760, Note_on_c, 7, 70, 91
16, 198240, Note_on_c, 7, 70, 0
16, 198240, Note_on_c, 7, 70, 91
16, 198720, Note_on_c, 7, 70, 0
16, 198720, Note_on_c, 7, 68, 91
16, 199200, Note_on_c, 7, 68, 0
16, 200160, Note_on_c, 7, 62, 91
16, 200640, Note_on_c, 7, 62, 0
16, 201600, Note_on_c, 7, 60, 91
16, 202080, Note_on_c, 7, 60, 0
16, 219840, Note_on_c, 7, 72, 115
16, 220320, Note_on_c, 7, 72, 0
16, 220320, Note_on_c, 7, 71, 115
16, 220560, Note_on_c, 7, 71, 0
16, 220560, Note_on_c, 7, 72, 115
16, 220800, Note_on_c, 7, 72, 0
16, 220800, Note_on_c, 7, 74, 115
16, 221040, Note_on_c, 7, 74, 0
16, 221040, Note_on_c, 7, 67, 115
16, 221280, Note_on_c, 7, 67, 0
16, 221280, Note_on_c, 7, 69, 115
16, 221520, Note_on_c, 7, 69, 0
16, 221520, Note_on_c, 7, 71, 115
16, 221760, Note_on_c, 7, 71, 0
16, 221760, Note_on_c, 7, 72, 115
16, 222000, Note_on_c, 7, 72, 0
16, 222000, Note_on_c, 7, 71, 115
16, 222240, Note_on_c, 7, 71, 0
16, 222240, Note_on_c, 7, 72, 115
16, 222480, Note_on_c, 7, 72, 0
16, 222480, Note_on_c, 7, 74, 115
16, 222720, Note_on_c, 7, 74, 0
16, 222720, Note_on_c, 7, 76, 115
16, 222960, Note_on_c, 7, 76, 0
16, 222960, Note_on_c, 7, 74, 115
16, 223200, Note_on_c, 7, 74, 0
16, 223200, Note_on_c, 7, 72, 115
16, 223680, Note_on_c, 7, 72, 0
16, 223680, Note_on_c, 7, 66, 115
16, 224160, Note_on_c, 7, 66, 0
16, 224160, Note_on_c, 7, 69, 115
16, 224640, Note_on_c, 7, 69, 0
16, 224640, Note_on_c, 7, 62, 115
16, 225120, Note_on_c, 7, 62, 0
16, 225120, Note_on_c, 7, 71, 115
16, 225600, Note_on_c, 7, 71, 0
16, 225600, Note_on_c, 7, 67, 115
16, 226080, Note_on_c, 7, 67, 0
16, 226080, Note_on_c, 7, 74, 115
16, 226320, Note_on_c, 7, 74, 0
16, 226320, Note_on_c, 7, 74, 115
16, 226560, Note_on_c, 7, 74, 0
16, 226560, Note_on_c, 7, 74, 115
16, 226800, Note_on_c, 7, 74, 0
16, 226800, Note_on_c, 7, 74, 115
16, 227040, Note_on_c, 7, 74, 0
16, 227040, Note_on_c, 7, 76, 115
16, 227280, Note_on_c, 7, 76, 0
16, 227280, Note_on_c, 7, 78, 115
16, 227520, Note_on_c, 7, 78, 0
16, 227520, Note_on_c, 7, 71, 115
16, 227520, Note_on_c, 7, 79, 115
16, 228000, Note_on_c, 7, 79, 0
16, 228000, Note_on_c, 7, 71, 0
16, 228240, Note_on_c, 7, 74, 115
16, 228480, Note_on_c, 7, 74, 0
16, 228480, Note_on_c, 7, 76, 115
16, 228720, Note_on_c, 7, 76, 0
16, 228720, Note_on_c, 7, 78, 115
16, 228960, Note_on_c, 7, 78, 0
16, 228960, Note_on_c, 7, 71, 115
16, 228960, Note_on_c, 7, 79, 115
16, 229440, Note_on_c, 7, 79, 0
16, 229440, Note_on_c, 7, 71, 0
16, 229680, Note_on_c, 7, 74, 115
16, 229920, Note_on_c, 7, 74, 0
16, 229920, Note_on_c, 7, 76, 115
16, 230160, Note_on_c, 7, 76, 0
16, 230160, Note_on_c, 7, 78, 115
16, 230400, Note_on_c, 7, 78, 0
16, 230400, Note_on_c, 7, 62, 115
16, 230400, Note_on_c, 7, 71, 115
16, 230400, Note_on_c, 7, 79, 115
16, 230880, Note_on_c, 7, 79, 0
16, 230880, Note_on_c, 7, 71, 0
16, 230880, Note_on_c, 7, 62, 0
16, 248640, Note_on_c, 7, 72, 115
16, 249120, Note_on_c, 7, 72, 0
16, 249120, Note_on_c, 7, 71, 115
16, 249360, Note_on_c, 7, 71, 0
16, 249360, Note_on_c, 7, 72, 115
16, 249600, Note_on_c, 7, 72, 0
16, 249600, Note_on_c, 7, 74, 115
16, 249840, Note_on_c, 7, 74, 0
16, 249840, Note_on_c, 7, 67, 115
16, 250080, Note_on_c, 7, 67, 0
16, 250080, Note_on_c, 7, 69, 115
16, 250320, Note_on_c, 7, 69, 0
16, 250320, Note_on_c, 7, 71, 115
16, 250560, Note_on_c, 7, 71, 0
16, 250560, Note_on_c, 7, 72, 115
16, 250800, Note_on_c, 7, 72, 0
16, 250800, Note_on_c, 7, 71, 115
16, 251040, Note_on_c, 7, 71, 0
16, 251040, Note_on_c, 7, 72, 115
16, 251280, Note_on_c, 7, 72, 0
16, 251280, Note_on_c, 7, 74, 115
16, 251520, Note_on_c, 7, 74, 0
16, 251520, Note_on_c, 7, 76, 115
16, 251760, Note_on_c, 7, 76, 0
16, 251760, Note_on_c, 7, 74, 115
16, 252000, Note_on_c, 7, 74, 0
16, 252000, Note_on_c, 7, 72, 115
16, 252480, Note_on_c, 7, 72, 0
16, 252480, Note_on_c, 7, 66, 115
16, 252960, Note_on_c, 7, 66, 0
16, 252960, Note_on_c, 7, 69, 115
16, 253440, Note_on_c, 7, 69, 0
16, 253440, Note_on_c, 7, 62, 115
16, 253920, Note_on_c, 7, 62, 0
16, 253920, Note_on_c, 7, 71, 115
16, 254400, Note_on_c, 7, 71, 0
16, 254400, Note_on_c, 7, 67, 115
16, 254880, Note_on_c, 7, 67, 0
16, 254880, Note_on_c, 7, 74, 115
16, 255120, Note_on_c, 7, 74, 0
16, 255120, Note_on_c, 7, 74, 115
16, 255360, Note_on_c, 7, 74, 0
16, 255360, Note_on_c, 7, 74, 115
16, 255600, Note_on_c, 7, 74, 0
16, 255600, Note_on_c, 7, 74, 115
16, 255840, Note_on_c, 7, 74, 0
16, 255840, Note_on_c, 7, 76, 115
16, 256080, Note_on_c, 7, 76, 0
16, 256080, Note_on_c, 7, 78, 115
16, 256320, Note_on_c, 7, 78, 0
16, 256320, Note_on_c, 7, 71, 115
16, 256320, Note_on_c, 7, 79, 115
16, 256800, Note_on_c, 7, 79, 0
16, 256800, Note_on_c, 7, 71, 0
16, 257040, Note_on_c, 7, 74, 115
16, 257280, Note_on_c, 7, 74, 0
16, 257280, Note_on_c, 7, 76, 115
16, 257520, Note_on_c, 7, 76, 0
16, 257520, Note_on_c, 7, 78, 115
16, 257760, Note_on_c, 7, 78, 0
16, 257760, Note_on_c, 7, 71, 115
16, 257760, Note_on_c, 7, 79, 115
16, 258240, Note_on_c, 7, 79, 0
16, 258240, Note_on_c, 7, 71, 0
16, 258480, Note_on_c, 7, 74, 115
16, 258720, Note_on_c, 7, 74, 0
16, 258720, Note_on_c, 7, 76, 115
16, 258960, Note_on_c, 7, 76, 0
16, 258960, Note_on_c, 7, 78, 115
16, 259200, Note_on_c, 7, 78, 0
16, 259200, Note_on_c, 7, 62, 115
16, 259200, Note_on_c, 7, 71, 115
16, 259200, Note_on_c, 7, 79, 115
16, 259680, Note_on_c, 7, 79, 0
16, 259680, Note_on_c, 7, 71, 0
16, 259680, Note_on_c, 7, 62, 0
16, 259920, Note_on_c, 7, 62, 123
16, 260160, Note_on_c, 7, 62, 0
16, 260160, Note_on_c, 7, 64, 123
16, 260400, Note_on_c, 7, 64, 0
16, 260400, Note_on_c, 7, 66, 123
16, 260640, Note_on_c, 7, 66, 0
16, 260640, Note_on_c, 7, 67, 123
16, 261120, Note_on_c, 7, 67, 0
16, 284640, Note_on_c, 7, 72, 115
16, 285120, Note_on_c, 7, 72, 0
16, 285120, Note_on_c, 7, 71, 115
16, 285360, Note_on_c, 7, 71, 0
16, 285360, Note_on_c, 7, 72, 115
16, 285600, Note_on_c, 7, 72, 0
16, 285600, Note_on_c, 7, 74, 115
16, 285840, Note_on_c, 7, 74, 0
16, 285840, Note_on_c, 7, 67, 115
16, 286080, Note_on_c, 7, 67, 0
16, 286080, Note_on_c, 7, 69, 115
16, 286320, Note_on_c, 7, 69, 0
16, 286320, Note_on_c, 7, 71, 115
16, 286560, Note_on_c, 7, 71, 0
16, 286560, Note_on_c, 7, 72, 115
16, 286800, Note_on_c, 7, 72, 0
16, 286800, Note_on_c, 7, 71, 115
16, 287040, Note_on_c, 7, 71, 0
16, 287040, Note_on_c, 7, 72, 115
16, 287280, Note_on_c, 7, 72, 0
16, 287280, Note_on_c, 7, 74, 115
16, 287520, Note_on_c, 7, 74, 0
16, 287520, Note_on_c, 7, 76, 115
16, 287760, Note_on_c, 7, 76, 0
16, 287760, Note_on_c, 7, 77, 115
16, 288000, Note_on_c, 7, 77, 0
16, 288000, Note_on_c, 7, 79, 115
16, 288240, Note_on_c, 7, 79, 0
16, 288240, Note_on_c, 7, 77, 115
16, 288480, Note_on_c, 7, 77, 0
16, 288480, Note_on_c, 7, 76, 115
16, 288720, Note_on_c, 7, 76, 0
16, 288720, Note_on_c, 7, 74, 115
16, 288960, Note_on_c, 7, 74, 0
16, 288960, Note_on_c, 7, 72, 115
16, 289200, Note_on_c, 7, 72, 0
16, 289200, Note_on_c, 7, 70, 115
16, 289440, Note_on_c, 7, 70, 0
16, 289440, Note_on_c, 7, 69, 115
16, 289920, Note_on_c, 7, 69, 0
16, 290400, Note_on_c, 7, 77, 115
16, 290640, Note_on_c, 7, 77, 0
16, 290640, Note_on_c, 7, 69, 115
16, 290880, Note_on_c, 7, 69, 0
16, 290880, Note_on_c, 7, 71, 115
16, 291120, Note_on_c, 7, 71, 0
16, 291120, Note_on_c, 7, 67, 115
16, 291360, Note_on_c, 7, 67, 0
16, 291360, Note_on_c, 7, 71, 115
16, 291600, Note_on_c, 7, 71, 0
16, 291600, Note_on_c, 7, 71, 115
16, 291840, Note_on_c, 7, 71, 0
16, 291840, Note_on_c, 7, 71, 115
16, 292080, Note_on_c, 7, 71, 0
16, 292080, Note_on_c, 7, 71, 115
16, 292320, Note_on_c, 7, 71, 0
16, 292320, Note_on_c, 7, 72, 115
16, 292560, Note_on_c, 7, 72, 0
16, 292560, Note_on_c, 7, 67, 115
16, 292800, Note_on_c, 7, 67, 0
16, 292800, Note_on_c, 7, 72, 115
16, 293040, Note_on_c, 7, 72, 0
16, 293040, Note_on_c, 7, 72, 115
16, 293280, Note_on_c, 7, 72, 0
16, 293280, Note_on_c, 7, 72, 115
16, 293520, Note_on_c, 7, 72, 0
16, 293520, Note_on_c, 7, 74, 115
16, 293760, Note_on_c, 7, 74, 0
16, 293760, Note_on_c, 7, 71, 115
16, 294000, Note_on_c, 7, 71, 0
16, 294000, Note_on_c, 7, 67, 115
16, 294240, Note_on_c, 7, 67, 0
16, 294240, Note_on_c, 7, 71, 115
16, 294480, Note_on_c, 7, 71, 0
16, 294480, Note_on_c, 7, 71, 115
16, 294720, Note_on_c, 7, 71, 0
16, 294720, Note_on_c, 7, 74, 115
16, 294960, Note_on_c, 7, 74, 0
16, 294960, Note_on_c, 7, 74, 115
16, 295200, Note_on_c, 7, 74, 0
16, 295200, Note_on_c, 7, 72, 115
16, 295440, Note_on_c, 7, 72, 0
16, 295440, Note_on_c, 7, 72, 115
16, 295680, Note_on_c, 7, 72, 0
16, 295680, Note_on_c, 7, 67, 115
16, 295920, Note_on_c, 7, 67, 0
16, 295920, Note_on_c, 7, 67, 115
16, 296160, Note_on_c, 7, 67, 0
16, 296160, Note_on_c, 7, 72, 115
16, 296400, Note_on_c, 7, 72, 0
16, 296400, Note_on_c, 7, 72, 115
16, 296640, Note_on_c, 7, 72, 0
16, 296640, Note_on_c, 7, 71, 115
16, 296880, Note_on_c, 7, 71, 0
16, 296880, Note_on_c, 7, 67, 115
16, 297120, Note_on_c, 7, 67, 0
16, 297120, Note_on_c, 7, 71, 115
16, 297360, Note_on_c, 7, 71, 0
16, 297360, Note_on_c, 7, 71, 115
16, 297600, Note_on_c, 7, 71, 0
16, 297600, Note_on_c, 7, 74, 115
16, 297840, Note_on_c, 7, 74, 0
16, 297840, Note_on_c, 7, 74, 115
16, 298080, Note_on_c, 7, 74, 0
16, 298080, Note_on_c, 7, 72, 115
16, 298320, Note_on_c, 7, 72, 0
16, 298320, Note_on_c, 7, 72, 115
16, 298560, Note_on_c, 7, 72, 0
16, 298560, Note_on_c, 7, 67, 115
16, 298800, Note_on_c, 7, 67, 0
16, 298800, Note_on_c, 7, 67, 115
16, 299040, Note_on_c, 7, 67, 0
16, 299040, Note_on_c, 7, 72, 115
16, 299280, Note_on_c, 7, 72, 0
16, 299280, Note_on_c, 7, 72, 115
16, 299520, Note_on_c, 7, 72, 0
16, 299520, Note_on_c, 7, 71, 115
16, 299760, Note_on_c, 7, 71, 0
16, 299760, Note_on_c, 7, 67, 115
16, 300000, Note_on_c, 7, 67, 0
16, 300000, Note_on_c, 7, 71, 115
16, 300240, Note_on_c, 7, 71, 0
16, 300240, Note_on_c, 7, 71, 115
16, 300480, Note_on_c, 7, 71, 0
16, 300480, Note_on_c, 7, 74, 115
16, 300720, Note_on_c, 7, 74, 0
16, 300720, Note_on_c, 7, 74, 115
16, 300960, Note_on_c, 7, 74, 0
16, 300960, Note_on_c, 7, 72, 115
16, 301200, Note_on_c, 7, 72, 0
16, 301200, Note_on_c, 7, 68, 115
16, 301440, Note_on_c, 7, 68, 0
16, 301440, Note_on_c, 7, 69, 115
16, 301680, Note_on_c, 7, 69, 0
16, 301680, Note_on_c, 7, 69, 115
16, 301920, Note_on_c, 7, 69, 0
16, 301920, Note_on_c, 7, 69, 115
16, 302160, Note_on_c, 7, 69, 0
16, 302160, Note_on_c, 7, 69, 115
16, 302400, Note_on_c, 7, 69, 0
16, 302400, Note_on_c, 7, 71, 115
16, 302640, Note_on_c, 7, 71, 0
16, 302640, Note_on_c, 7, 66, 115
16, 302880, Note_on_c, 7, 66, 0
16, 302880, Note_on_c, 7, 67, 115
16, 303120, Note_on_c, 7, 67, 0
16, 303120, Note_on_c, 7, 67, 115
16, 303360, Note_on_c, 7, 67, 0
16, 303360, Note_on_c, 7, 67, 115
16, 303600, Note_on_c, 7, 67, 0
16, 303600, Note_on_c, 7, 67, 115
16, 303840, Note_on_c, 7, 67, 0
16, 303840, Note_on_c, 7, 69, 115
16, 304080, Note_on_c, 7, 69, 0
16, 304080, Note_on_c, 7, 64, 115
16, 304320, Note_on_c, 7, 64, 0
16, 304320, Note_on_c, 7, 65, 115
16, 304560, Note_on_c, 7, 65, 0
16, 304560, Note_on_c, 7, 65, 115
16, 304800, Note_on_c, 7, 65, 0
16, 304800, Note_on_c, 7, 65, 115
16, 305040, Note_on_c, 7, 65, 0
16, 305040, Note_on_c, 7, 65, 115
16, 305280, Note_on_c, 7, 65, 0
16, 305280, Note_on_c, 7, 65, 115
16, 305520, Note_on_c, 7, 65, 0
16, 305520, Note_on_c, 7, 65, 115
16, 305760, Note_on_c, 7, 65, 0
16, 305760, Note_on_c, 7, 65, 115
16, 306000, Note_on_c, 7, 65, 0
16, 306000, Note_on_c, 7, 65, 115
16, 306240, Note_on_c, 7, 65, 0
16, 306240, Note_on_c, 7, 67, 115
16, 306480, Note_on_c, 7, 67, 0
16, 306480, Note_on_c, 7, 67, 115
16, 306720, Note_on_c, 7, 67, 0
16, 306720, Note_on_c, 7, 67, 115
16, 306960, Note_on_c, 7, 67, 0
16, 306960, Note_on_c, 7, 67, 115
16, 307200, Note_on_c, 7, 67, 0
16, 307200, Note_on_c, 7, 71, 115
16, 307440, Note_on_c, 7, 71, 0
16, 307440, Note_on_c, 7, 71, 115
16, 307680, Note_on_c, 7, 71, 0
16, 307680, Note_on_c, 7, 79, 115
16, 307920, Note_on_c, 7, 79, 0
16, 307920, Note_on_c, 7, 79, 115
16, 308160, Note_on_c, 7, 79, 0
16, 308160, Note_on_c, 7, 79, 115
16, 308640, Note_on_c, 7, 79, 0
16, 308880, Note_on_c, 7, 71, 115
16, 309120, Note_on_c, 7, 71, 0
16, 309120, Note_on_c, 7, 72, 115
16, 309360, Note_on_c, 7, 72, 0
16, 309360, Note_on_c, 7, 74, 115
16, 309600, Note_on_c, 7, 74, 0
16, 309600, Note_on_c, 7, 76, 115
16, 310080, Note_on_c, 7, 76, 0
16, 310320, Note_on_c, 7, 71, 115
16, 310560, Note_on_c, 7, 71, 0
16, 310560, Note_on_c, 7, 72, 115
16, 310800, Note_on_c, 7, 72, 0
16, 310800, Note_on_c, 7, 74, 115
16, 311040, Note_on_c, 7, 74, 0
16, 311040, Note_on_c, 7, 76, 115
16, 311520, Note_on_c, 7, 76, 0
16, 311760, Note_on_c, 7, 67, 123
16, 312000, Note_on_c, 7, 67, 0
16, 312000, Note_on_c, 7, 69, 123
16, 312240, Note_on_c, 7, 69, 0
16, 312240, Note_on_c, 7, 71, 123
16, 312480, Note_on_c, 7, 71, 0
16, 312480, Note_on_c, 7, 69, 123
16, 312960, Note_on_c, 7, 69, 0
16, 336480, Note_on_c, 7, 72, 78
16, 336960, Note_on_c, 7, 72, 0
16, 336960, Note_on_c, 7, 71, 78
16, 337200, Note_on_c, 7, 71, 0
16, 337200, Note_on_c, 7, 72, 78
16, 337440, Note_on_c, 7, 72, 0
16, 337440, Note_on_c, 7, 74, 78
16, 337680, Note_on_c, 7, 74, 0
16, 337680, Note_on_c, 7, 67, 78
16, 337920, Note_on_c, 7, 67, 0
16, 337920, Note_on_c, 7, 69, 78
16, 338160, Note_on_c, 7, 69, 0
16, 338160, Note_on_c, 7, 71, 78
16, 338400, Note_on_c, 7, 71, 0
16, 338400, Note_on_c, 7, 72, 78
16, 338640, Note_on_c, 7, 72, 0
16, 338640, Note_on_c, 7, 71, 78
16, 338880, Note_on_c, 7, 71, 0
16, 338880, Note_on_c, 7, 72, 78
16, 339120, Note_on_c, 7, 72, 0
16, 339120, Note_on_c, 7, 74, 78
16, 339360, Note_on_c, 7, 74, 0
16, 339360, Note_on_c, 7, 76, 78
16, 339600, Note_on_c, 7, 76, 0
16, 339600, Note_on_c, 7, 77, 78
16, 339840, Note_on_c, 7, 77, 0
16, 339840, Note_on_c, 7, 79, 78
16, 340320, Note_on_c, 7, 79, 0
16, 390240, Note_on_c, 7, 65, 91
16, 390720, Note_on_c, 7, 65, 0
16, 391200, Note_on_c, 7, 62, 91
16, 391680, Note_on_c, 7, 62, 0
16, 391680, Note_on_c, 7, 63, 91
16, 392160, Note_on_c, 7, 63, 0
16, 392640, Note_on_c, 7, 62, 91
16, 393120, Note_on_c, 7, 62, 0
16, 393120, Note_on_c, 7, 62, 91
16, 393600, Note_on_c, 7, 62, 0
16, 394080, Note_on_c, 7, 60, 91
16, 394560, Note_on_c, 7, 60, 0
16, 394560, Note_on_c, 7, 59, 91
16, 395040, Note_on_c, 7, 59, 0
16, 396000, Note_on_c, 7, 62, 78
16, 396480, Note_on_c, 7, 62, 0
16, 397440, Note_on_c, 7, 63, 78
16, 397920, Note_on_c, 7, 63, 0
16, 398880, Note_on_c, 7, 65, 78
16, 399360, Note_on_c, 7, 65, 0
16, 400320, Note_on_c, 7, 67, 78
16, 400800, Note_on_c, 7, 67, 0
16, 401760, Note_on_c, 7, 62, 78
16, 401760, Note_on_c, 7, 65, 78
16, 402240, Note_on_c, 7, 65, 0
16, 402240, Note_on_c, 7, 62, 0
16, 403200, Note_on_c, 7, 60, 78
16, 403200, Note_on_c, 7, 63, 78
16, 403680, Note_on_c, 7, 63, 0
16, 403680, Note_on_c, 7, 60, 0
16, 404640, Note_on_c, 7, 67, 78
16, 405120, Note_on_c, 7, 67, 0
16, 405120, Note_on_c, 7, 65, 78
16, 405600, Note_on_c, 7, 65, 0
16, 405600, Note_on_c, 7, 63, 78
16, 406080, Note_on_c, 7, 63, 0
16, 406080, Note_on_c, 7, 62, 78
16, 406560, Note_on_c, 7, 62, 0
16, 407520, Note_on_c, 7, 67, 78
16, 408000, Note_on_c, 7, 67, 0
16, 408960, Note_on_c, 7, 68, 78
16, 409440, Note_on_c, 7, 68, 0
16, 410400, Note_on_c, 7, 70, 78
16, 410880, Note_on_c, 7, 70, 0
16, 411840, Note_on_c, 7, 68, 78
16, 412320, Note_on_c, 7, 68, 0
16, 413280, Note_on_c, 7, 67, 78
16, 413280, Note_on_c, 7, 70, 78
16, 413760, Note_on_c, 7, 70, 0
16, 413760, Note_on_c, 7, 67, 0
16, 414720, Note_on_c, 7, 68, 78
16, 415200, Note_on_c, 7, 68, 0
16, 416160, Note_on_c, 7, 72, 78
16, 416640, Note_on_c, 7, 72, 0
16, 416640, Note_on_c, 7, 70, 78
16, 417120, Note_on_c, 7, 70, 0
16, 417120, Note_on_c, 7, 68, 78
16, 417600, Note_on_c, 7, 68, 0
16, 417600, Note_on_c, 7, 67, 78
16, 418080, Note_on_c, 7, 67, 0
16, 419040, Note_on_c, 7, 68, 78
16, 419520, Note_on_c, 7, 68, 0
16, 420480, Note_on_c, 7, 65, 78
16, 420960, Note_on_c, 7, 65, 0
16, 421920, Note_on_c, 7, 68, 78
16, 422400, Note_on_c, 7, 68, 0
16, 422400, Note_on_c, 7, 67, 78
16, 422880, Note_on_c, 7, 67, 0
16, 422880, Note_on_c, 7, 65, 78
16, 423360, Note_on_c, 7, 65, 0
16, 423360, Note_on_c, 7, 64, 78
16, 423840, Note_on_c, 7, 64, 0
16, 425760, Note_on_c, 7, 65, 78
16, 426240, Note_on_c, 7, 65, 0
16, 426240, Note_on_c, 7, 64, 78
16, 426720, Note_on_c, 7, 64, 0
16, 428640, Note_on_c, 7, 65, 78
16, 429120, Note_on_c, 7, 65, 0
16, 429120, Note_on_c, 7, 64, 78
16, 429600, Note_on_c, 7, 64, 0
16, 430080, Note_on_c, 7, 65, 78
16, 430560, Note_on_c, 7, 65, 0
16, 430560, Note_on_c, 7, 64, 78
16, 431040, Note_on_c, 7, 64, 0
16, 431520, Note_on_c, 7, 65, 78
16, 432000, Note_on_c, 7, 65, 0
16, 432000, Note_on_c, 7, 64, 78
16, 432480, Note_on_c, 7, 64, 0
16, 439200, Note_on_c, 7, 67, 78
16, 439680, Note_on_c, 7, 67, 0
16, 440160, Note_on_c, 7, 67, 78
16, 440640, Note_on_c, 7, 67, 0
16, 440640, Note_on_c, 7, 67, 78
16, 441120, Note_on_c, 7, 67, 0
16, 441600, Note_on_c, 7, 71, 78
16, 442080, Note_on_c, 7, 71, 0
16, 442080, Note_on_c, 7, 74, 78
16, 442560, Note_on_c, 7, 74, 0
16, 443040, Note_on_c, 7, 72, 78
16, 443520, Note_on_c, 7, 72, 0
16, 443520, Note_on_c, 7, 71, 78
16, 444000, Note_on_c, 7, 71, 0
16, 444960, Note_on_c, 7, 67, 78
16, 445440, Note_on_c, 7, 67, 0
16, 445920, Note_on_c, 7, 65, 78
16, 446400, Note_on_c, 7, 65, 0
16, 446400, Note_on_c, 7, 67, 78
16, 446880, Note_on_c, 7, 67, 0
16, 447360, Note_on_c, 7, 72, 78
16, 447840, Note_on_c, 7, 72, 0
16, 447840, Note_on_c, 7, 75, 78
16, 448320, Note_on_c, 7, 75, 0
16, 448800, Note_on_c, 7, 74, 78
16, 449280, Note_on_c, 7, 74, 0
16, 449280, Note_on_c, 7, 72, 78
16, 449760, Note_on_c, 7, 72, 0
16, 450720, Note_on_c, 7, 72, 78
16, 451200, Note_on_c, 7, 72, 0
16, 451680, Note_on_c, 7, 72, 78
16, 452160, Note_on_c, 7, 72, 0
16, 452160, Note_on_c, 7, 72, 78
16, 452640, Note_on_c, 7, 72, 0
16, 453120, Note_on_c, 7, 75, 78
16, 453600, Note_on_c, 7, 75, 0
16, 453600, Note_on_c, 7, 77, 78
16, 454080, Note_on_c, 7, 77, 0
16, 454560, Note_on_c, 7, 75, 78
16, 455040, Note_on_c, 7, 75, 0
16, 455040, Note_on_c, 7, 75, 78
16, 455520, Note_on_c, 7, 75, 0
16, 456000, Note_on_c, 7, 74, 78
16, 456480, Note_on_c, 7, 74, 0
16, 456480, Note_on_c, 7, 77, 78
16, 456960, Note_on_c, 7, 77, 0
16, 457440, Note_on_c, 7, 75, 78
16, 457920, Note_on_c, 7, 75, 0
16, 457920, Note_on_c, 7, 75, 78
16, 458400, Note_on_c, 7, 75, 0
16, 458400, Note_on_c, 7, 74, 78
16, 458880, Note_on_c, 7, 74, 0
16, 458880, Note_on_c, 7, 74, 78
16, 459360, Note_on_c, 7, 74, 0
16, 459360, Note_on_c, 7, 74, 78
16, 459840, Note_on_c, 7, 74, 0
16, 459840, Note_on_c, 7, 62, 78
16, 460320, Note_on_c, 7, 62, 0
16, 460320, Note_on_c, 7, 67, 78
16, 460800, Note_on_c, 7, 67, 0
16, 461280, Note_on_c, 7, 60, 78
16, 461760, Note_on_c, 7, 60, 0
16, 461760, Note_on_c, 7, 65, 78
16, 462240, Note_on_c, 7, 65, 0
16, 462720, Note_on_c, 7, 62, 78
16, 463200, Note_on_c, 7, 62, 0
16, 463200, Note_on_c, 7, 67, 78
16, 463680, Note_on_c, 7, 67, 0
16, 464160, Note_on_c, 7, 60, 78
16, 464640, Note_on_c, 7, 60, 0
16, 464640, Note_on_c, 7, 65, 78
16, 465120, Note_on_c, 7, 65, 0
16, 465600, Note_on_c, 7, 62, 78
16, 466080, Note_on_c, 7, 62, 0
16, 466080, Note_on_c, 7, 67, 78
16, 466560, Note_on_c, 7, 67, 0
16, 467040, Note_on_c, 7, 60, 78
16, 467520, Note_on_c, 7, 60, 0
16, 467520, Note_on_c, 7, 65, 78
16, 468000, Note_on_c, 7, 65, 0
16, 468480, Note_on_c, 7, 62, 78
16, 468960, Note_on_c, 7, 62, 0
16, 468960, Note_on_c, 7, 67, 78
16, 469440, Note_on_c, 7, 67, 0
16, 469920, Note_on_c, 7, 60, 78
16, 470400, Note_on_c, 7, 60, 0
16, 470400, Note_on_c, 7, 65, 78
16, 470880, Note_on_c, 7, 65, 0
16, 471360, Note_on_c, 7, 62, 78
16, 471840, Note_on_c, 7, 62, 0
16, 471840, Note_on_c, 7, 67, 78
16, 472320, Note_on_c, 7, 67, 0
16, 472800, Note_on_c, 7, 60, 78
16, 473280, Note_on_c, 7, 60, 0
16, 473280, Note_on_c, 7, 63, 78
16, 473760, Note_on_c, 7, 63, 0
16, 474240, Note_on_c, 7, 60, 78
16, 474720, Note_on_c, 7, 60, 0
16, 474720, Note_on_c, 7, 68, 78
16, 475200, Note_on_c, 7, 68, 0
16, 475680, Note_on_c, 7, 59, 78
16, 476160, Note_on_c, 7, 59, 0
16, 476160, Note_on_c, 7, 62, 78
16, 476640, Note_on_c, 7, 62, 0
16, 477120, Note_on_c, 7, 55, 78
16, 477600, Note_on_c, 7, 55, 0
16, 477600, Note_on_c, 7, 65, 78
16, 478080, Note_on_c, 7, 65, 0
16, 478560, Note_on_c, 7, 60, 78
16, 479040, Note_on_c, 7, 60, 0
16, 479040, Note_on_c, 7, 72, 78
16, 479520, Note_on_c, 7, 72, 0
16, 480000, Note_on_c, 7, 60, 78
16, 480480, Note_on_c, 7, 60, 0
16, 480480, Note_on_c, 7, 72, 78
16, 480960, Note_on_c, 7, 72, 0
16, 481440, Note_on_c, 7, 60, 78
16, 481920, Note_on_c, 7, 60, 0
16, 481920, Note_on_c, 7, 75, 78
16, 482400, Note_on_c, 7, 75, 0
16, 482400, Note_on_c, 7, 75, 78
16, 482880, Note_on_c, 7, 75, 0
16, 482880, Note_on_c, 7, 75, 78
16, 483360, Note_on_c, 7, 75, 0
16, 483360, Note_on_c, 7, 74, 78
16, 483840, Note_on_c, 7, 74, 0
16, 483840, Note_on_c, 7, 72, 78
16, 484320, Note_on_c, 7, 72, 0
16, 485280, Note_on_c, 7, 67, 78
16, 485280, Note_on_c, 7, 74, 78
16, 485760, Note_on_c, 7, 74, 0
16, 485760, Note_on_c, 7, 67, 0
16, 485760, Note_on_c, 7, 67, 78
16, 485760, Note_on_c, 7, 74, 78
16, 486240, Note_on_c, 7, 74, 0
16, 486240, Note_on_c, 7, 67, 0
16, 486240, Note_on_c, 7, 67, 78
16, 486240, Note_on_c, 7, 74, 78
16, 486720, Note_on_c, 7, 74, 0
16, 486720, Note_on_c, 7, 67, 0
16, 486720, Note_on_c, 7, 67, 78
16, 486720, Note_on_c, 7, 75, 78
16, 487200, Note_on_c, 7, 75, 0
16, 487200, Note_on_c, 7, 67, 0
16, 488160, Note_on_c, 7, 65, 78
16, 488160, Note_on_c, 7, 71, 78
16, 488640, Note_on_c, 7, 71, 0
16, 488640, Note_on_c, 7, 65, 0
16, 488640, Note_on_c, 7, 65, 78
16, 488640, Note_on_c, 7, 71, 78
16, 489120, Note_on_c, 7, 71, 0
16, 489120, Note_on_c, 7, 65, 0
16, 489120, Note_on_c, 7, 65, 78
16, 489120, Note_on_c, 7, 71, 78
16, 489600, Note_on_c, 7, 71, 0
16, 489600, Note_on_c, 7, 65, 0
16, 489600, Note_on_c, 7, 63, 78
16, 489600, Note_on_c, 7, 72, 78
16, 490080, Note_on_c, 7, 72, 0
16, 490080, Note_on_c, 7, 63, 0
16, 491040, Note_on_c, 7, 67, 78
16, 491040, Note_on_c, 7, 70, 78
16, 491520, Note_on_c, 7, 70, 0
16, 491520, Note_on_c, 7, 67, 0
16, 491520, Note_on_c, 7, 67, 78
16, 491520, Note_on_c, 7, 70, 78
16, 492000, Note_on_c, 7, 70, 0
16, 492000, Note_on_c, 7, 67, 0
16, 492000, Note_on_c, 7, 67, 78
16, 492000, Note_on_c, 7, 70, 78
16, 492480, Note_on_c, 7, 70, 0
16, 492480, Note_on_c, 7, 67, 0
16, 492480, Note_on_c, 7, 68, 78
16, 492960, Note_on_c, 7, 68, 0
16, 493920, Note_on_c, 7, 59, 78
16, 493920, Note_on_c, 7, 62, 78
16, 494400, Note_on_c, 7, 62, 0
16, 494400, Note_on_c, 7, 59, 0
16, 512640, Note_on_c, 7, 60, 78
16, 519840, Note_on_c, 7, 60, 0
16, 519840, Note_on_c, 7, 60, 78
16, 527040, Note_on_c, 7, 60, 0
16, 527040, Note_on_c, 7, 60, 78
16, 534240, Note_on_c, 7, 60, 0
16, 534240, Note_on_c, 7, 60, 78
16, 541440, Note_on_c, 7, 60, 0
16, 541440, Note_on_c, 7, 60, 78
16, 548640, Note_on_c, 7, 60, 0
16, 548640, Note_on_c, 7, 60, 78
16, 552960, Note_on_c, 7, 60, 0
16, 552960, Note_on_c, 7, 60, 78
16, 557280, Note_on_c, 7, 60, 0
16, 557280, Note_on_c, 7, 80, 91
16, 557520, Note_on_c, 7, 80, 0
16, 557520, Note_on_c, 7, 80, 91
16, 557760, Note_on_c, 7, 80, 0
16, 557760, Note_on_c, 7, 80, 91
16, 558000, Note_on_c, 7, 80, 0
16, 558000, Note_on_c, 7, 80, 91
16, 558240, Note_on_c, 7, 80, 0
16, 558240, Note_on_c, 7, 80, 91
16, 558480, Note_on_c, 7, 80, 0
16, 558480, Note_on_c, 7, 80, 91
16, 558720, Note_on_c, 7, 80, 0
16, 558720, Note_on_c, 7, 81, 101
16, 558960, Note_on_c, 7, 81, 0
16, 558960, Note_on_c, 7, 81, 101
16, 559200, Note_on_c, 7, 81, 0
16, 559200, Note_on_c, 7, 81, 101
16, 559440, Note_on_c, 7, 81, 0
16, 559440, Note_on_c, 7, 81, 101
16, 559680, Note_on_c, 7, 81, 0
16, 559680, Note_on_c, 7, 81, 101
16, 559920, Note_on_c, 7, 81, 0
16, 559920, Note_on_c, 7, 81, 101
16, 560160, Note_on_c, 7, 81, 0
16, 560160, Note_on_c, 7, 81, 101
16, 560400, Note_on_c, 7, 81, 0
16, 560400, Note_on_c, 7, 81, 101
16, 560640, Note_on_c, 7, 81, 0
16, 560640, Note_on_c, 7, 81, 101
16, 560880, Note_on_c, 7, 81, 0
16, 560880, Note_on_c, 7, 81, 101
16, 561120, Note_on_c, 7, 81, 0
16, 561120, Note_on_c, 7, 81, 101
16, 561360, Note_on_c, 7, 81, 0
16, 561360, Note_on_c, 7, 81, 101
16, 561600, Note_on_c, 7, 81, 0
16, 561600, Note_on_c, 7, 83, 109
16, 561840, Note_on_c, 7, 83, 0
16, 561840, Note_on_c, 7, 83, 109
16, 562080, Note_on_c, 7, 83, 0
16, 562080, Note_on_c, 7, 83, 109
16, 562320, Note_on_c, 7, 83, 0
16, 562320, Note_on_c, 7, 83, 109
16, 562560, Note_on_c, 7, 83, 0
16, 562560, Note_on_c, 7, 83, 109
16, 562800, Note_on_c, 7, 83, 0
16, 562800, Note_on_c, 7, 83, 109
16, 563040, Note_on_c, 7, 83, 0
16, 563040, Note_on_c, 7, 83, 115
16, 563280, Note_on_c, 7, 83, 0
16, 563280, Note_on_c, 7, 83, 115
16, 563520, Note_on_c, 7, 83, 0
16, 563520, Note_on_c, 7, 83, 115
16, 563760, Note_on_c, 7, 83, 0
16, 563760, Note_on_c, 7, 83, 115
16, 564000, Note_on_c, 7, 83, 0
16, 564000, Note_on_c, 7, 83, 115
16, 564240, Note_on_c, 7, 83, 0
16, 564240, Note_on_c, 7, 83, 115
16, 564480, Note_on_c, 7, 83, 0
16, 564480, Note_on_c, 7, 83, 123
16, 564720, Note_on_c, 7, 83, 0
16, 564720, Note_on_c, 7, 83, 123
16, 564960, Note_on_c, 7, 83, 0
16, 564960, Note_on_c, 7, 83, 123
16, 565200, Note_on_c, 7, 83, 0
16, 565200, Note_on_c, 7, 83, 123
16, 565440, Note_on_c, 7, 83, 0
16, 565440, Note_on_c, 7, 83, 123
16, 565680, Note_on_c, 7, 83, 0
16, 565680, Note_on_c, 7, 83, 123
16, 565920, Note_on_c, 7, 83, 0
16, 565920, Note_on_c, 7, 83, 127
16, 566160, Note_on_c, 7, 83, 0
16, 566160, Note_on_c, 7, 83, 127
16, 566400, Note_on_c, 7, 83, 0
16, 566400, Note_on_c, 7, 83, 127
16, 566640, Note_on_c, 7, 83, 0
16, 566640, Note_on_c, 7, 83, 127
16, 566880, Note_on_c, 7, 83, 0
16, 566880, Note_on_c, 7, 83, 127
16, 567120, Note_on_c, 7, 83, 0
16, 567120, Note_on_c, 7, 83, 127
16, 567360, Note_on_c, 7, 83, 0
16, 567360, End_track
17, 0, Start_track
17, 0, MIDI_port, 0
17, 0, Title_t, "Violas"
17, 0, Program_c, 8, 48
17, 7200, Note_on_c, 8, 62, 78
17, 8640, Note_on_c, 8, 62, 0
17, 8640, Note_on_c, 8, 60, 78
17, 9600, Note_on_c, 8, 60, 0
17, 9600, Note_on_c, 8, 62, 78
17, 10080, Note_on_c, 8, 62, 0
17, 10080, Note_on_c, 8, 65, 78
17, 11040, Note_on_c, 8, 65, 0
17, 11040, Note_on_c, 8, 63, 78
17, 11520, Note_on_c, 8, 63, 0
17, 11520, Note_on_c, 8, 62, 78
17, 12480, Note_on_c, 8, 62, 0
17, 21600, Note_on_c, 8, 62, 78
17, 23040, Note_on_c, 8, 62, 0
17, 23040, Note_on_c, 8, 60, 78
17, 24000, Note_on_c, 8, 60, 0
17, 24000, Note_on_c, 8, 55, 78
17, 24480, Note_on_c, 8, 55, 0
17, 24480, Note_on_c, 8, 55, 78
17, 25440, Note_on_c, 8, 55, 0
17, 25440, Note_on_c, 8, 57, 78
17, 25920, Note_on_c, 8, 57, 0
17, 25920, Note_on_c, 8, 50, 78
17, 27360, Note_on_c, 8, 50, 0
17, 28800, Note_on_c, 8, 60, 115
17, 29280, Note_on_c, 8, 60, 0
17, 30240, Note_on_c, 8, 59, 115
17, 30720, Note_on_c, 8, 59, 0
17, 31680, Note_on_c, 8, 60, 115
17, 32160, Note_on_c, 8, 60, 0
17, 33120, Note_on_c, 8, 62, 115
17, 33600, Note_on_c, 8, 62, 0
17, 34560, Note_on_c, 8, 60, 115
17, 35040, Note_on_c, 8, 60, 0
17, 36000, Note_on_c, 8, 60, 115
17, 36480, Note_on_c, 8, 60, 0
17, 37440, Note_on_c, 8, 58, 115
17, 37920, Note_on_c, 8, 58, 0
17, 38880, Note_on_c, 8, 62, 115
17, 39360, Note_on_c, 8, 62, 0
17, 39360, Note_on_c, 8, 62, 115
17, 39840, Note_on_c, 8, 62, 0
17, 39840, Note_on_c, 8, 62, 115
17, 40320, Note_on_c, 8, 62, 0
17, 40320, Note_on_c, 8, 63, 115
17, 41760, Note_on_c, 8, 63, 0
17, 41760, Note_on_c, 8, 62, 115
17, 42240, Note_on_c, 8, 62, 0
17, 42240, Note_on_c, 8, 62, 115
17, 42720, Note_on_c, 8, 62, 0
17, 42720, Note_on_c, 8, 62, 115
17, 43200, Note_on_c, 8, 62, 0
17, 43200, Note_on_c, 8, 63, 115
17, 44640, Note_on_c, 8, 63, 0
17, 44640, Note_on_c, 8, 65, 115
17, 44640, Note_on_c, 8, 70, 115
17, 45120, Note_on_c, 8, 70, 0
17, 45120, Note_on_c, 8, 65, 0
17, 45120, Note_on_c, 8, 65, 115
17, 45120, Note_on_c, 8, 70, 115
17, 45600, Note_on_c, 8, 70, 0
17, 45600, Note_on_c, 8, 65, 0
17, 45600, Note_on_c, 8, 65, 115
17, 45600, Note_on_c, 8, 70, 115
17, 46080, Note_on_c, 8, 70, 0
17, 46080, Note_on_c, 8, 65, 0
17, 46080, Note_on_c, 8, 66, 115
17, 46080, Note_on_c, 8, 70, 115
17, 47520, Note_on_c, 8, 70, 0
17, 47520, Note_on_c, 8, 66, 0
17, 47520, Note_on_c, 8, 70, 115
17, 47520, Note_on_c, 8, 73, 115
17, 48000, Note_on_c, 8, 73, 0
17, 48000, Note_on_c, 8, 70, 0
17, 48000, Note_on_c, 8, 68, 115
17, 48000, Note_on_c, 8, 71, 115
17, 48480, Note_on_c, 8, 71, 0
17, 48480, Note_on_c, 8, 68, 0
17, 48480, Note_on_c, 8, 66, 115
17, 48480, Note_on_c, 8, 70, 115
17, 48960, Note_on_c, 8, 70, 0
17, 48960, Note_on_c, 8, 66, 0
17, 48960, Note_on_c, 8, 65, 115
17, 48960, Note_on_c, 8, 68, 115
17, 50400, Note_on_c, 8, 68, 0
17, 50400, Note_on_c, 8, 65, 0
17, 50400, Note_on_c, 8, 66, 115
17, 50400, Note_on_c, 8, 70, 115
17, 51840, Note_on_c, 8, 70, 0
17, 51840, Note_on_c, 8, 66, 0
17, 51840, Note_on_c, 8, 63, 115
17, 51840, Note_on_c, 8, 66, 115
17, 53280, Note_on_c, 8, 66, 0
17, 53280, Note_on_c, 8, 63, 0
17, 53280, Note_on_c, 8, 66, 115
17, 53280, Note_on_c, 8, 70, 115
17, 53760, Note_on_c, 8, 70, 0
17, 53760, Note_on_c, 8, 66, 0
17, 53760, Note_on_c, 8, 65, 115
17, 53760, Note_on_c, 8, 68, 115
17, 54240, Note_on_c, 8, 68, 0
17, 54240, Note_on_c, 8, 65, 0
17, 54240, Note_on_c, 8, 63, 115
17, 54240, Note_on_c, 8, 66, 115
17, 54720, Note_on_c, 8, 66, 0
17, 54720, Note_on_c, 8, 63, 0
17, 54720, Note_on_c, 8, 62, 115
17, 54720, Note_on_c, 8, 65, 115
17, 57120, Note_on_c, 8, 65, 0
17, 57120, Note_on_c, 8, 62, 0
17, 57120, Note_on_c, 8, 63, 115
17, 57120, Note_on_c, 8, 66, 115
17, 57600, Note_on_c, 8, 66, 0
17, 57600, Note_on_c, 8, 63, 0
17, 57600, Note_on_c, 8, 62, 115
17, 57600, Note_on_c, 8, 65, 115
17, 60000, Note_on_c, 8, 65, 0
17, 60000, Note_on_c, 8, 62, 0
17, 60000, Note_on_c, 8, 63, 115
17, 60000, Note_on_c, 8, 66, 115
17, 60480, Note_on_c, 8, 66, 0
17, 60480, Note_on_c, 8, 63, 0
17, 60480, Note_on_c, 8, 62, 115
17, 60480, Note_on_c, 8, 65, 115
17, 61440, Note_on_c, 8, 65, 0
17, 61440, Note_on_c, 8, 62, 0
17, 61440, Note_on_c, 8, 63, 115
17, 61440, Note_on_c, 8, 66, 115
17, 61920, Note_on_c, 8, 66, 0
17, 61920, Note_on_c, 8, 63, 0
17, 61920, Note_on_c, 8, 62, 115
17, 61920, Note_on_c, 8, 65, 115
17, 62880, Note_on_c, 8, 65, 0
17, 62880, Note_on_c, 8, 62, 0
17, 62880, Note_on_c, 8, 63, 115
17, 62880, Note_on_c, 8, 66, 115
17, 63360, Note_on_c, 8, 66, 0
17, 63360, Note_on_c, 8, 63, 0
17, 63360, Note_on_c, 8, 62, 115
17, 63360, Note_on_c, 8, 65, 115
17, 65280, Note_on_c, 8, 65, 0
17, 65280, Note_on_c, 8, 62, 0
17, 70560, Note_on_c, 8, 60, 78
17, 72000, Note_on_c, 8, 60, 0
17, 72000, Note_on_c, 8, 58, 78
17, 72960, Note_on_c, 8, 58, 0
17, 72960, Note_on_c, 8, 57, 78
17, 73440, Note_on_c, 8, 57, 0
17, 73440, Note_on_c, 8, 60, 78
17, 74400, Note_on_c, 8, 60, 0
17, 74400, Note_on_c, 8, 58, 78
17, 74880, Note_on_c, 8, 58, 0
17, 74880, Note_on_c, 8, 57, 78
17, 75840, Note_on_c, 8, 57, 0
17, 81600, Note_on_c, 8, 68, 78
17, 82080, Note_on_c, 8, 68, 0
17, 82080, Note_on_c, 8, 67, 78
17, 83040, Note_on_c, 8, 67, 0
17, 83040, Note_on_c, 8, 59, 78
17, 83520, Note_on_c, 8, 59, 0
17, 83520, Note_on_c, 8, 60, 78
17, 84480, Note_on_c, 8, 60, 0
17, 84480, Note_on_c, 8, 63, 78
17, 84960, Note_on_c, 8, 63, 0
17, 84960, Note_on_c, 8, 62, 78
17, 85920, Note_on_c, 8, 62, 0
17, 85920, Note_on_c, 8, 54, 78
17, 86400, Note_on_c, 8, 54, 0
17, 86400, Note_on_c, 8, 55, 78
17, 87360, Note_on_c, 8, 55, 0
17, 87360, Note_on_c, 8, 49, 78
17, 87840, Note_on_c, 8, 49, 0
17, 87840, Note_on_c, 8, 50, 78
17, 89280, Note_on_c, 8, 50, 0
17, 89280, Note_on_c, 8, 55, 78
17, 90240, Note_on_c, 8, 55, 0
17, 90240, Note_on_c, 8, 49, 78
17, 90720, Note_on_c, 8, 49, 0
17, 90720, Note_on_c, 8, 50, 78
17, 92160, Note_on_c, 8, 50, 0
17, 92160, Note_on_c, 8, 55, 78
17, 92640, Note_on_c, 8, 55, 0
17, 92640, Note_on_c, 8, 49, 78
17, 93120, Note_on_c, 8, 49, 0
17, 93120, Note_on_c, 8, 50, 78
17, 93600, Note_on_c, 8, 50, 0
17, 93600, Note_on_c, 8, 55, 78
17, 94080, Note_on_c, 8, 55, 0
17, 94080, Note_on_c, 8, 49, 78
17, 94560, Note_on_c, 8, 49, 0
17, 94560, Note_on_c, 8, 50, 78
17, 95040, Note_on_c, 8, 50, 0
17, 95040, Note_on_c, 8, 55, 78
17, 95520, Note_on_c, 8, 55, 0
17, 95520, Note_on_c, 8, 49, 78
17, 96000, Note_on_c, 8, 49, 0
17, 96000, Note_on_c, 8, 50, 78
17, 96480, Note_on_c, 8, 50, 0
17, 96480, Note_on_c, 8, 55, 78
17, 96960, Note_on_c, 8, 55, 0
17, 96960, Note_on_c, 8, 50, 78
17, 97440, Note_on_c, 8, 50, 0
17, 97440, Note_on_c, 8, 51, 78
17, 97920, Note_on_c, 8, 51, 0
17, 97920, Note_on_c, 8, 56, 91
17, 98400, Note_on_c, 8, 56, 0
17, 98400, Note_on_c, 8, 52, 91
17, 98880, Note_on_c, 8, 52, 0
17, 98880, Note_on_c, 8, 53, 91
17, 99360, Note_on_c, 8, 53, 0
17, 99360, Note_on_c, 8, 59, 101
17, 99840, Note_on_c, 8, 59, 0
17, 99840, Note_on_c, 8, 54, 101
17, 100320, Note_on_c, 8, 54, 0
17, 100320, Note_on_c, 8, 55, 101
17, 100800, Note_on_c, 8, 55, 0
17, 100800, Note_on_c, 8, 60, 109
17, 101280, Note_on_c, 8, 60, 0
17, 101280, Note_on_c, 8, 56, 109
17, 101760, Note_on_c, 8, 56, 0
17, 101760, Note_on_c, 8, 57, 109
17, 102240, Note_on_c, 8, 57, 0
17, 102240, Note_on_c, 8, 62, 115
17, 102720, Note_on_c, 8, 62, 0
17, 102720, Note_on_c, 8, 62, 115
17, 103200, Note_on_c, 8, 62, 0
17, 103200, Note_on_c, 8, 62, 115
17, 103680, Note_on_c, 8, 62, 0
17, 103680, Note_on_c, 8, 60, 115
17, 105120, Note_on_c, 8, 60, 0
17, 105120, Note_on_c, 8, 59, 115
17, 105600, Note_on_c, 8, 59, 0
17, 105600, Note_on_c, 8, 59, 115
17, 106080, Note_on_c, 8, 59, 0
17, 106080, Note_on_c, 8, 59, 115
17, 106560, Note_on_c, 8, 59, 0
17, 106560, Note_on_c, 8, 60, 115
17, 108000, Note_on_c, 8, 60, 0
17, 108000, Note_on_c, 8, 62, 115
17, 108000, Note_on_c, 8, 67, 115
17, 108480, Note_on_c, 8, 67, 0
17, 108480, Note_on_c, 8, 62, 0
17, 108480, Note_on_c, 8, 62, 115
17, 108480, Note_on_c, 8, 67, 115
17, 108960, Note_on_c, 8, 67, 0
17, 108960, Note_on_c, 8, 62, 0
17, 108960, Note_on_c, 8, 62, 115
17, 108960, Note_on_c, 8, 67, 115
17, 109440, Note_on_c, 8, 67, 0
17, 109440, Note_on_c, 8, 62, 0
17, 109440, Note_on_c, 8, 63, 115
17, 109440, Note_on_c, 8, 67, 115
17, 110880, Note_on_c, 8, 67, 0
17, 110880, Note_on_c, 8, 63, 0
17, 110880, Note_on_c, 8, 67, 115
17, 110880, Note_on_c, 8, 70, 115
17, 111360, Note_on_c, 8, 70, 0
17, 111360, Note_on_c, 8, 67, 0
17, 111360, Note_on_c, 8, 65, 115
17, 111360, Note_on_c, 8, 68, 115
17, 111840, Note_on_c, 8, 68, 0
17, 111840, Note_on_c, 8, 65, 0
17, 111840, Note_on_c, 8, 63, 115
17, 111840, Note_on_c, 8, 67, 115
17, 112320, Note_on_c, 8, 67, 0
17, 112320, Note_on_c, 8, 63, 0
17, 112320, Note_on_c, 8, 62, 115
17, 112320, Note_on_c, 8, 65, 115
17, 113760, Note_on_c, 8, 65, 0
17, 113760, Note_on_c, 8, 62, 0
17, 113760, Note_on_c, 8, 60, 115
17, 114240, Note_on_c, 8, 60, 0
17, 115200, Note_on_c, 8, 53, 115
17, 115680, Note_on_c, 8, 53, 0
17, 116640, Note_on_c, 8, 55, 115
17, 117120, Note_on_c, 8, 55, 0
17, 118080, Note_on_c, 8, 56, 115
17, 118560, Note_on_c, 8, 56, 0
17, 119520, Note_on_c, 8, 67, 123
17, 119520, Note_on_c, 8, 72, 123
17, 120000, Note_on_c, 8, 72, 0
17, 120000, Note_on_c, 8, 67, 0
17, 120000, Note_on_c, 8, 67, 123
17, 120000, Note_on_c, 8, 72, 123
17, 120480, Note_on_c, 8, 72, 0
17, 120480, Note_on_c, 8, 67, 0
17, 120480, Note_on_c, 8, 67, 123
17, 120480, Note_on_c, 8, 72, 123
17, 120960, Note_on_c, 8, 72, 0
17, 120960, Note_on_c, 8, 67, 0
17, 120960, Note_on_c, 8, 68, 123
17, 120960, Note_on_c, 8, 72, 123
17, 122400, Note_on_c, 8, 72, 0
17, 122400, Note_on_c, 8, 68, 0
17, 122400, Note_on_c, 8, 72, 123
17, 122400, Note_on_c, 8, 75, 123
17, 122880, Note_on_c, 8, 75, 0
17, 122880, Note_on_c, 8, 72, 0
17, 122880, Note_on_c, 8, 70, 123
17, 122880, Note_on_c, 8, 73, 123
17, 123360, Note_on_c, 8, 73, 0
17, 123360, Note_on_c, 8, 70, 0
17, 123360, Note_on_c, 8, 68, 123
17, 123360, Note_on_c, 8, 72, 123
17, 123840, Note_on_c, 8, 72, 0
17, 123840, Note_on_c, 8, 68, 0
17, 123840, Note_on_c, 8, 67, 123
17, 123840, Note_on_c, 8, 70, 123
17, 125280, Note_on_c, 8, 70, 0
17, 125280, Note_on_c, 8, 67, 0
17, 125280, Note_on_c, 8, 68, 123
17, 125280, Note_on_c, 8, 72, 123
17, 126720, Note_on_c, 8, 72, 0
17, 126720, Note_on_c, 8, 68, 0
17, 126720, Note_on_c, 8, 65, 123
17, 126720, Note_on_c, 8, 68, 123
17, 128160, Note_on_c, 8, 68, 0
17, 128160, Note_on_c, 8, 65, 0
17, 128160, Note_on_c, 8, 68, 123
17, 128160, Note_on_c, 8, 72, 123
17, 128640, Note_on_c, 8, 72, 0
17, 128640, Note_on_c, 8, 68, 0
17, 128640, Note_on_c, 8, 67, 123
17, 128640, Note_on_c, 8, 70, 123
17, 129120, Note_on_c, 8, 70, 0
17, 129120, Note_on_c, 8, 67, 0
17, 129120, Note_on_c, 8, 65, 123
17, 129120, Note_on_c, 8, 68, 123
17, 129600, Note_on_c, 8, 68, 0
17, 129600, Note_on_c, 8, 65, 0
17, 129600, Note_on_c, 8, 64, 123
17, 129600, Note_on_c, 8, 67, 123
17, 130560, Note_on_c, 8, 67, 0
17, 130560, Note_on_c, 8, 64, 0
17, 130560, Note_on_c, 8, 61, 123
17, 131040, Note_on_c, 8, 61, 0
17, 131040, Note_on_c, 8, 60, 123
17, 133440, Note_on_c, 8, 60, 0
17, 133440, Note_on_c, 8, 61, 123
17, 133920, Note_on_c, 8, 61, 0
17, 133920, Note_on_c, 8, 60, 123
17, 134880, Note_on_c, 8, 60, 0
17, 134880, Note_on_c, 8, 65, 123
17, 134880, Note_on_c, 8, 68, 123
17, 135360, Note_on_c, 8, 68, 0
17, 135360, Note_on_c, 8, 65, 0
17, 135360, Note_on_c, 8, 64, 123
17, 135360, Note_on_c, 8, 67, 123
17, 136320, Note_on_c, 8, 67, 0
17, 136320, Note_on_c, 8, 64, 0
17, 136320, Note_on_c, 8, 65, 123
17, 136320, Note_on_c, 8, 68, 123
17, 136800, Note_on_c, 8, 68, 0
17, 136800, Note_on_c, 8, 65, 0
17, 136800, Note_on_c, 8, 64, 123
17, 136800, Note_on_c, 8, 67, 123
17, 137760, Note_on_c, 8, 67, 0
17, 137760, Note_on_c, 8, 64, 0
17, 137760, Note_on_c, 8, 65, 123
17, 137760, Note_on_c, 8, 68, 123
17, 138240, Note_on_c, 8, 68, 0
17, 138240, Note_on_c, 8, 65, 0
17, 138240, Note_on_c, 8, 64, 115
17, 138240, Note_on_c, 8, 67, 115
17, 140160, Note_on_c, 8, 67, 0
17, 140160, Note_on_c, 8, 64, 0
17, 158400, Note_on_c, 8, 68, 115
17, 159360, Note_on_c, 8, 68, 0
17, 159360, Note_on_c, 8, 67, 115
17, 159840, Note_on_c, 8, 67, 0
17, 160320, Note_on_c, 8, 65, 115
17, 160800, Note_on_c, 8, 65, 0
17, 160800, Note_on_c, 8, 67, 115
17, 161280, Note_on_c, 8, 67, 0
17, 161760, Note_on_c, 8, 67, 115
17, 162240, Note_on_c, 8, 67, 0
17, 162240, Note_on_c, 8, 68, 115
17, 162720, Note_on_c, 8, 68, 0
17, 163200, Note_on_c, 8, 65, 115
17, 163680, Note_on_c, 8, 65, 0
17, 163680, Note_on_c, 8, 67, 115
17, 164160, Note_on_c, 8, 67, 0
17, 164160, Note_on_c, 8, 67, 115
17, 164640, Note_on_c, 8, 67, 0
17, 164640, Note_on_c, 8, 68, 115
17, 165120, Note_on_c, 8, 68, 0
17, 165120, Note_on_c, 8, 62, 115
17, 165600, Note_on_c, 8, 62, 0
17, 165600, Note_on_c, 8, 62, 115
17, 166080, Note_on_c, 8, 62, 0
17, 166080, Note_on_c, 8, 62, 115
17, 166560, Note_on_c, 8, 62, 0
17, 166560, Note_on_c, 8, 62, 115
17, 167040, Note_on_c, 8, 62, 0
17, 167520, Note_on_c, 8, 55, 91
17, 168000, Note_on_c, 8, 55, 0
17, 168000, Note_on_c, 8, 60, 91
17, 168480, Note_on_c, 8, 60, 0
17, 168960, Note_on_c, 8, 62, 91
17, 169440, Note_on_c, 8, 62, 0
17, 169440, Note_on_c, 8, 55, 91
17, 169920, Note_on_c, 8, 55, 0
17, 170400, Note_on_c, 8, 55, 91
17, 170880, Note_on_c, 8, 55, 0
17, 170880, Note_on_c, 8, 60, 91
17, 171360, Note_on_c, 8, 60, 0
17, 171840, Note_on_c, 8, 59, 91
17, 172320, Note_on_c, 8, 59, 0
17, 172320, Note_on_c, 8, 62, 91
17, 172800, Note_on_c, 8, 62, 0
17, 173280, Note_on_c, 8, 55, 91
17, 173760, Note_on_c, 8, 55, 0
17, 173760, Note_on_c, 8, 60, 91
17, 174240, Note_on_c, 8, 60, 0
17, 174720, Note_on_c, 8, 62, 91
17, 175200, Note_on_c, 8, 62, 0
17, 175200, Note_on_c, 8, 55, 91
17, 175680, Note_on_c, 8, 55, 0
17, 176160, Note_on_c, 8, 55, 91
17, 176640, Note_on_c, 8, 55, 0
17, 176640, Note_on_c, 8, 60, 91
17, 177120, Note_on_c, 8, 60, 0
17, 177600, Note_on_c, 8, 59, 91
17, 178080, Note_on_c, 8, 59, 0
17, 178080, Note_on_c, 8, 62, 91
17, 178560, Note_on_c, 8, 62, 0
17, 179040, Note_on_c, 8, 60, 91
17, 179520, Note_on_c, 8, 60, 0
17, 179520, Note_on_c, 8, 63, 91
17, 180000, Note_on_c, 8, 63, 0
17, 180480, Note_on_c, 8, 60, 91
17, 180960, Note_on_c, 8, 60, 0
17, 180960, Note_on_c, 8, 65, 91
17, 181440, Note_on_c, 8, 65, 0
17, 181920, Note_on_c, 8, 55, 101
17, 182400, Note_on_c, 8, 55, 0
17, 182400, Note_on_c, 8, 59, 101
17, 182880, Note_on_c, 8, 59, 0
17, 183360, Note_on_c, 8, 55, 101
17, 183840, Note_on_c, 8, 55, 0
17, 183840, Note_on_c, 8, 60, 101
17, 184320, Note_on_c, 8, 60, 0
17, 184800, Note_on_c, 8, 60, 109
17, 185280, Note_on_c, 8, 60, 0
17, 185280, Note_on_c, 8, 63, 109
17, 185760, Note_on_c, 8, 63, 0
17, 186240, Note_on_c, 8, 48, 109
17, 186720, Note_on_c, 8, 48, 0
17, 186720, Note_on_c, 8, 60, 109
17, 187200, Note_on_c, 8, 60, 0
17, 187440, Note_on_c, 8, 60, 115
17, 187680, Note_on_c, 8, 60, 0
17, 187680, Note_on_c, 8, 62, 115
17, 187920, Note_on_c, 8, 62, 0
17, 187920, Note_on_c, 8, 63, 115
17, 188160, Note_on_c, 8, 63, 0
17, 188160, Note_on_c, 8, 63, 115
17, 188640, Note_on_c, 8, 63, 0
17, 188640, Note_on_c, 8, 63, 115
17, 189120, Note_on_c, 8, 63, 0
17, 189120, Note_on_c, 8, 55, 115
17, 189120, Note_on_c, 8, 63, 115
17, 189120, Note_on_c, 8, 72, 115
17, 189600, Note_on_c, 8, 72, 0
17, 189600, Note_on_c, 8, 63, 0
17, 189600, Note_on_c, 8, 55, 0
17, 189600, Note_on_c, 8, 55, 115
17, 189600, Note_on_c, 8, 62, 115
17, 189600, Note_on_c, 8, 71, 115
17, 190080, Note_on_c, 8, 71, 0
17, 190080, Note_on_c, 8, 62, 0
17, 190080, Note_on_c, 8, 55, 0
17, 190080, Note_on_c, 8, 55, 115
17, 190080, Note_on_c, 8, 63, 115
17, 190080, Note_on_c, 8, 72, 115
17, 190560, Note_on_c, 8, 72, 0
17, 190560, Note_on_c, 8, 63, 0
17, 190560, Note_on_c, 8, 55, 0
17, 191520, Note_on_c, 8, 62, 123
17, 192000, Note_on_c, 8, 62, 0
17, 192000, Note_on_c, 8, 62, 123
17, 192480, Note_on_c, 8, 62, 0
17, 192480, Note_on_c, 8, 62, 123
17, 192960, Note_on_c, 8, 62, 0
17, 192960, Note_on_c, 8, 63, 123
17, 194400, Note_on_c, 8, 63, 0
17, 194400, Note_on_c, 8, 65, 123
17, 194880, Note_on_c, 8, 65, 0
17, 194880, Note_on_c, 8, 65, 123
17, 195360, Note_on_c, 8, 65, 0
17, 195360, Note_on_c, 8, 65, 123
17, 195840, Note_on_c, 8, 65, 0
17, 195840, Note_on_c, 8, 67, 123
17, 197280, Note_on_c, 8, 67, 0
17, 197280, Note_on_c, 8, 55, 91
17, 197760, Note_on_c, 8, 55, 0
17, 197760, Note_on_c, 8, 55, 91
17, 198240, Note_on_c, 8, 55, 0
17, 198240, Note_on_c, 8, 55, 91
17, 198720, Note_on_c, 8, 55, 0
17, 198720, Note_on_c, 8, 56, 91
17, 199200, Note_on_c, 8, 56, 0
17, 200160, Note_on_c, 8, 59, 91
17, 200640, Note_on_c, 8, 59, 0
17, 201600, Note_on_c, 8, 60, 91
17, 202080, Note_on_c, 8, 60, 0
17, 211200, Note_on_c, 8, 57, 115
17, 211680, Note_on_c, 8, 57, 0
17, 211680, Note_on_c, 8, 54, 115
17, 211920, Note_on_c, 8, 54, 0
17, 211920, Note_on_c, 8, 55, 115
17, 212160, Note_on_c, 8, 55, 0
17, 212160, Note_on_c, 8, 57, 115
17, 212400, Note_on_c, 8, 57, 0
17, 212400, Note_on_c, 8, 50, 115
17, 212640, Note_on_c, 8, 50, 0
17, 212640, Note_on_c, 8, 52, 115
17, 212880, Note_on_c, 8, 52, 0
17, 212880, Note_on_c, 8, 54, 115
17, 213120, Note_on_c, 8, 54, 0
17, 213120, Note_on_c, 8, 55, 115
17, 213360, Note_on_c, 8, 55, 0
17, 213360, Note_on_c, 8, 54, 115
17, 213600, Note_on_c, 8, 54, 0
17, 213600, Note_on_c, 8, 55, 115
17, 213840, Note_on_c, 8, 55, 0
17, 213840, Note_on_c, 8, 57, 115
17, 214080, Note_on_c, 8, 57, 0
17, 214080, Note_on_c, 8, 59, 115
17, 214320, Note_on_c, 8, 59, 0
17, 214320, Note_on_c, 8, 61, 115
17, 214560, Note_on_c, 8, 61, 0
17, 214560, Note_on_c, 8, 62, 115
17, 215520, Note_on_c, 8, 62, 0
17, 215520, Note_on_c, 8, 60, 115
17, 216000, Note_on_c, 8, 60, 0
17, 216000, Note_on_c, 8, 59, 115
17, 216480, Note_on_c, 8, 59, 0
17, 216480, Note_on_c, 8, 55, 115
17, 216960, Note_on_c, 8, 55, 0
17, 216960, Note_on_c, 8, 64, 115
17, 217440, Note_on_c, 8, 64, 0
17, 217440, Note_on_c, 8, 60, 115
17, 217920, Note_on_c, 8, 60, 0
17, 217920, Note_on_c, 8, 57, 115
17, 218400, Note_on_c, 8, 57, 0
17, 218400, Note_on_c, 8, 65, 115
17, 218880, Note_on_c, 8, 65, 0
17, 218880, Note_on_c, 8, 62, 115
17, 219360, Note_on_c, 8, 62, 0
17, 219360, Note_on_c, 8, 59, 115
17, 219840, Note_on_c, 8, 59, 0
17, 219840, Note_on_c, 8, 67, 115
17, 220800, Note_on_c, 8, 67, 0
17, 220800, Note_on_c, 8, 59, 115
17, 221040, Note_on_c, 8, 59, 0
17, 221040, Note_on_c, 8, 59, 115
17, 221280, Note_on_c, 8, 59, 0
17, 221280, Note_on_c, 8, 60, 115
17, 221520, Note_on_c, 8, 60, 0
17, 221520, Note_on_c, 8, 62, 115
17, 221760, Note_on_c, 8, 62, 0
17, 221760, Note_on_c, 8, 55, 115
17, 222240, Note_on_c, 8, 55, 0
17, 222240, Note_on_c, 8, 64, 115
17, 222480, Note_on_c, 8, 64, 0
17, 222480, Note_on_c, 8, 65, 115
17, 222720, Note_on_c, 8, 65, 0
17, 222720, Note_on_c, 8, 67, 115
17, 222960, Note_on_c, 8, 67, 0
17, 222960, Note_on_c, 8, 67, 115
17, 223200, Note_on_c, 8, 67, 0
17, 223200, Note_on_c, 8, 69, 115
17, 223440, Note_on_c, 8, 69, 0
17, 223440, Note_on_c, 8, 71, 115
17, 223680, Note_on_c, 8, 71, 0
17, 223680, Note_on_c, 8, 72, 115
17, 223920, Note_on_c, 8, 72, 0
17, 223920, Note_on_c, 8, 66, 115
17, 224160, Note_on_c, 8, 66, 0
17, 224160, Note_on_c, 8, 67, 115
17, 224400, Note_on_c, 8, 67, 0
17, 224400, Note_on_c, 8, 69, 115
17, 224640, Note_on_c, 8, 69, 0
17, 224640, Note_on_c, 8, 71, 115
17, 224880, Note_on_c, 8, 71, 0
17, 224880, Note_on_c, 8, 62, 115
17, 225120, Note_on_c, 8, 62, 0
17, 225120, Note_on_c, 8, 60, 115
17, 225360, Note_on_c, 8, 60, 0
17, 225360, Note_on_c, 8, 59, 115
17, 225600, Note_on_c, 8, 59, 0
17, 225600, Note_on_c, 8, 57, 115
17, 225840, Note_on_c, 8, 57, 0
17, 225840, Note_on_c, 8, 55, 115
17, 226080, Note_on_c, 8, 55, 0
17, 226080, Note_on_c, 8, 54, 115
17, 226320, Note_on_c, 8, 54, 0
17, 226320, Note_on_c, 8, 66, 115
17, 226560, Note_on_c, 8, 66, 0
17, 226560, Note_on_c, 8, 66, 115
17, 226800, Note_on_c, 8, 66, 0
17, 226800, Note_on_c, 8, 66, 115
17, 227040, Note_on_c, 8, 66, 0
17, 227040, Note_on_c, 8, 67, 115
17, 227280, Note_on_c, 8, 67, 0
17, 227280, Note_on_c, 8, 69, 115
17, 227520, Note_on_c, 8, 69, 0
17, 227520, Note_on_c, 8, 55, 115
17, 227520, Note_on_c, 8, 62, 115
17, 227520, Note_on_c, 8, 71, 115
17, 228000, Note_on_c, 8, 71, 0
17, 228000, Note_on_c, 8, 62, 0
17, 228000, Note_on_c, 8, 55, 0
17, 228240, Note_on_c, 8, 66, 115
17, 228480, Note_on_c, 8, 66, 0
17, 228480, Note_on_c, 8, 67, 115
17, 228720, Note_on_c, 8, 67, 0
17, 228720, Note_on_c, 8, 69, 115
17, 228960, Note_on_c, 8, 69, 0
17, 228960, Note_on_c, 8, 55, 115
17, 228960, Note_on_c, 8, 62, 115
17, 228960, Note_on_c, 8, 71, 115
17, 229440, Note_on_c, 8, 71, 0
17, 229440, Note_on_c, 8, 62, 0
17, 229440, Note_on_c, 8, 55, 0
17, 229680, Note_on_c, 8, 66, 115
17, 229920, Note_on_c, 8, 66, 0
17, 229920, Note_on_c, 8, 67, 115
17, 230160, Note_on_c, 8, 67, 0
17, 230160, Note_on_c, 8, 69, 115
17, 230400, Note_on_c, 8, 69, 0
17, 230400, Note_on_c, 8, 55, 115
17, 230400, Note_on_c, 8, 62, 115
17, 230400, Note_on_c, 8, 71, 115
17, 230880, Note_on_c, 8, 71, 0
17, 230880, Note_on_c, 8, 62, 0
17, 230880, Note_on_c, 8, 55, 0
17, 240000, Note_on_c, 8, 57, 115
17, 240480, Note_on_c, 8, 57, 0
17, 240480, Note_on_c, 8, 54, 115
17, 240720, Note_on_c, 8, 54, 0
17, 240720, Note_on_c, 8, 55, 115
17, 240960, Note_on_c, 8, 55, 0
17, 240960, Note_on_c, 8, 57, 115
17, 241200, Note_on_c, 8, 57, 0
17, 241200, Note_on_c, 8, 50, 115
17, 241440, Note_on_c, 8, 50, 0
17, 241440, Note_on_c, 8, 52, 115
17, 241680, Note_on_c, 8, 52, 0
17, 241680, Note_on_c, 8, 54, 115
17, 241920, Note_on_c, 8, 54, 0
17, 241920, Note_on_c, 8, 55, 115
17, 242160, Note_on_c, 8, 55, 0
17, 242160, Note_on_c, 8, 54, 115
17, 242400, Note_on_c, 8, 54, 0
17, 242400, Note_on_c, 8, 55, 115
17, 242640, Note_on_c, 8, 55, 0
17, 242640, Note_on_c, 8, 57, 115
17, 242880, Note_on_c, 8, 57, 0
17, 242880, Note_on_c, 8, 59, 115
17, 243120, Note_on_c, 8, 59, 0
17, 243120, Note_on_c, 8, 61, 115
17, 243360, Note_on_c, 8, 61, 0
17, 243360, Note_on_c, 8, 62, 115
17, 244320, Note_on_c, 8, 62, 0
17, 244320, Note_on_c, 8, 60, 115
17, 244800, Note_on_c, 8, 60, 0
17, 244800, Note_on_c, 8, 59, 115
17, 245280, Note_on_c, 8, 59, 0
17, 245280, Note_on_c, 8, 55, 115
17, 245760, Note_on_c, 8, 55, 0
17, 245760, Note_on_c, 8, 64, 115
17, 246240, Note_on_c, 8, 64, 0
17, 246240, Note_on_c, 8, 60, 115
17, 246720, Note_on_c, 8, 60, 0
17, 246720, Note_on_c, 8, 57, 115
17, 247200, Note_on_c, 8, 57, 0
17, 247200, Note_on_c, 8, 65, 115
17, 247680, Note_on_c, 8, 65, 0
17, 247680, Note_on_c, 8, 62, 115
17, 248160, Note_on_c, 8, 62, 0
17, 248160, Note_on_c, 8, 59, 115
17, 248640, Note_on_c, 8, 59, 0
17, 248640, Note_on_c, 8, 67, 115
17, 249600, Note_on_c, 8, 67, 0
17, 249600, Note_on_c, 8, 59, 115
17, 249840, Note_on_c, 8, 59, 0
17, 249840, Note_on_c, 8, 59, 115
17, 250080, Note_on_c, 8, 59, 0
17, 250080, Note_on_c, 8, 60, 115
17, 250320, Note_on_c, 8, 60, 0
17, 250320, Note_on_c, 8, 62, 115
17, 250560, Note_on_c, 8, 62, 0
17, 250560, Note_on_c, 8, 55, 115
17, 251040, Note_on_c, 8, 55, 0
17, 251040, Note_on_c, 8, 64, 115
17, 251280, Note_on_c, 8, 64, 0
17, 251280, Note_on_c, 8, 65, 115
17, 251520, Note_on_c, 8, 65, 0
17, 251520, Note_on_c, 8, 67, 115
17, 251760, Note_on_c, 8, 67, 0
17, 251760, Note_on_c, 8, 67, 115
17, 252000, Note_on_c, 8, 67, 0
17, 252000, Note_on_c, 8, 69, 115
17, 252240, Note_on_c, 8, 69, 0
17, 252240, Note_on_c, 8, 71, 115
17, 252480, Note_on_c, 8, 71, 0
17, 252480, Note_on_c, 8, 72, 115
17, 252720, Note_on_c, 8, 72, 0
17, 252720, Note_on_c, 8, 66, 115
17, 252960, Note_on_c, 8, 66, 0
17, 252960, Note_on_c, 8, 67, 115
17, 253200, Note_on_c, 8, 67, 0
17, 253200, Note_on_c, 8, 69, 115
17, 253440, Note_on_c, 8, 69, 0
17, 253440, Note_on_c, 8, 71, 115
17, 253680, Note_on_c, 8, 71, 0
17, 253680, Note_on_c, 8, 62, 115
17, 253920, Note_on_c, 8, 62, 0
17, 253920, Note_on_c, 8, 60, 115
17, 254160, Note_on_c, 8, 60, 0
17, 254160, Note_on_c, 8, 59, 115
17, 254400, Note_on_c, 8, 59, 0
17, 254400, Note_on_c, 8, 57, 115
17, 254640, Note_on_c, 8, 57, 0
17, 254640, Note_on_c, 8, 55, 115
17, 254880, Note_on_c, 8, 55, 0
17, 254880, Note_on_c, 8, 54, 115
17, 255120, Note_on_c, 8, 54, 0
17, 255120, Note_on_c, 8, 66, 115
17, 255360, Note_on_c, 8, 66, 0
17, 255360, Note_on_c, 8, 66, 115
17, 255600, Note_on_c, 8, 66, 0
17, 255600, Note_on_c, 8, 66, 115
17, 255840, Note_on_c, 8, 66, 0
17, 255840, Note_on_c, 8, 67, 115
17, 256080, Note_on_c, 8, 67, 0
17, 256080, Note_on_c, 8, 69, 115
17, 256320, Note_on_c, 8, 69, 0
17, 256320, Note_on_c, 8, 55, 115
17, 256320, Note_on_c, 8, 62, 115
17, 256320, Note_on_c, 8, 71, 115
17, 256800, Note_on_c, 8, 71, 0
17, 256800, Note_on_c, 8, 62, 0
17, 256800, Note_on_c, 8, 55, 0
17, 257040, Note_on_c, 8, 66, 115
17, 257280, Note_on_c, 8, 66, 0
17, 257280, Note_on_c, 8, 67, 115
17, 257520, Note_on_c, 8, 67, 0
17, 257520, Note_on_c, 8, 69, 115
17, 257760, Note_on_c, 8, 69, 0
17, 257760, Note_on_c, 8, 55, 115
17, 257760, Note_on_c, 8, 62, 115
17, 257760, Note_on_c, 8, 71, 115
17, 258240, Note_on_c, 8, 71, 0
17, 258240, Note_on_c, 8, 62, 0
17, 258240, Note_on_c, 8, 55, 0
17, 258480, Note_on_c, 8, 66, 115
17, 258720, Note_on_c, 8, 66, 0
17, 258720, Note_on_c, 8, 67, 115
17, 258960, Note_on_c, 8, 67, 0
17, 258960, Note_on_c, 8, 69, 115
17, 259200, Note_on_c, 8, 69, 0
17, 259200, Note_on_c, 8, 55, 115
17, 259200, Note_on_c, 8, 62, 115
17, 259200, Note_on_c, 8, 71, 115
17, 259680, Note_on_c, 8, 71, 0
17, 259680, Note_on_c, 8, 62, 0
17, 259680, Note_on_c, 8, 55, 0
17, 259920, Note_on_c, 8, 62, 123
17, 260160, Note_on_c, 8, 62, 0
17, 260160, Note_on_c, 8, 64, 123
17, 260400, Note_on_c, 8, 64, 0
17, 260400, Note_on_c, 8, 66, 123
17, 260640, Note_on_c, 8, 66, 0
17, 260640, Note_on_c, 8, 67, 123
17, 261120, Note_on_c, 8, 67, 0
17, 273120, Note_on_c, 8, 60, 115
17, 273600, Note_on_c, 8, 60, 0
17, 273600, Note_on_c, 8, 59, 115
17, 273840, Note_on_c, 8, 59, 0
17, 273840, Note_on_c, 8, 60, 115
17, 274080, Note_on_c, 8, 60, 0
17, 274080, Note_on_c, 8, 62, 115
17, 274320, Note_on_c, 8, 62, 0
17, 274320, Note_on_c, 8, 55, 115
17, 274560, Note_on_c, 8, 55, 0
17, 274560, Note_on_c, 8, 57, 115
17, 274800, Note_on_c, 8, 57, 0
17, 274800, Note_on_c, 8, 59, 115
17, 275040, Note_on_c, 8, 59, 0
17, 275040, Note_on_c, 8, 60, 115
17, 275280, Note_on_c, 8, 60, 0
17, 275280, Note_on_c, 8, 59, 115
17, 275520, Note_on_c, 8, 59, 0
17, 275520, Note_on_c, 8, 60, 115
17, 275760, Note_on_c, 8, 60, 0
17, 275760, Note_on_c, 8, 62, 115
17, 276000, Note_on_c, 8, 62, 0
17, 276000, Note_on_c, 8, 64, 115
17, 276240, Note_on_c, 8, 64, 0
17, 276240, Note_on_c, 8, 65, 115
17, 276480, Note_on_c, 8, 65, 0
17, 276480, Note_on_c, 8, 67, 115
17, 277440, Note_on_c, 8, 67, 0
17, 277440, Note_on_c, 8, 65, 115
17, 277920, Note_on_c, 8, 65, 0
17, 277920, Note_on_c, 8, 64, 115
17, 278400, Note_on_c, 8, 64, 0
17, 278400, Note_on_c, 8, 60, 115
17, 278880, Note_on_c, 8, 60, 0
17, 278880, Note_on_c, 8, 72, 115
17, 279840, Note_on_c, 8, 72, 0
17, 279840, Note_on_c, 8, 60, 115
17, 280320, Note_on_c, 8, 60, 0
17, 280320, Note_on_c, 8, 70, 115
17, 281280, Note_on_c, 8, 70, 0
17, 281280, Note_on_c, 8, 60, 115
17, 281760, Note_on_c, 8, 60, 0
17, 281760, Note_on_c, 8, 69, 115
17, 282720, Note_on_c, 8, 69, 0
17, 282720, Note_on_c, 8, 60, 115
17, 283200, Note_on_c, 8, 60, 0
17, 283200, Note_on_c, 8, 67, 115
17, 284160, Note_on_c, 8, 67, 0
17, 284160, Note_on_c, 8, 65, 115
17, 284640, Note_on_c, 8, 65, 0
17, 284640, Note_on_c, 8, 69, 115
17, 285120, Note_on_c, 8, 69, 0
17, 285120, Note_on_c, 8, 62, 115
17, 286560, Note_on_c, 8, 62, 0
17, 286560, Note_on_c, 8, 60, 115
17, 287520, Note_on_c, 8, 60, 0
17, 287520, Note_on_c, 8, 64, 115
17, 287760, Note_on_c, 8, 64, 0
17, 287760, Note_on_c, 8, 62, 115
17, 288000, Note_on_c, 8, 62, 0
17, 288000, Note_on_c, 8, 60, 115
17, 288720, Note_on_c, 8, 60, 0
17, 288720, Note_on_c, 8, 58, 115
17, 288960, Note_on_c, 8, 58, 0
17, 288960, Note_on_c, 8, 57, 115
17, 289200, Note_on_c, 8, 57, 0
17, 289200, Note_on_c, 8, 55, 115
17, 289440, Note_on_c, 8, 55, 0
17, 289440, Note_on_c, 8, 53, 115
17, 289920, Note_on_c, 8, 53, 0
17, 290400, Note_on_c, 8, 65, 115
17, 290400, Note_on_c, 8, 69, 115
17, 290640, Note_on_c, 8, 69, 0
17, 290640, Note_on_c, 8, 65, 0
17, 290640, Note_on_c, 8, 57, 115
17, 290640, Note_on_c, 8, 65, 115
17, 290880, Note_on_c, 8, 65, 0
17, 290880, Note_on_c, 8, 57, 0
17, 290880, Note_on_c, 8, 59, 115
17, 290880, Note_on_c, 8, 62, 115
17, 291120, Note_on_c, 8, 62, 0
17, 291120, Note_on_c, 8, 59, 0
17, 291120, Note_on_c, 8, 55, 115
17, 291120, Note_on_c, 8, 59, 115
17, 291360, Note_on_c, 8, 59, 0
17, 291360, Note_on_c, 8, 55, 0
17, 291360, Note_on_c, 8, 59, 115
17, 291360, Note_on_c, 8, 62, 115
17, 291600, Note_on_c, 8, 62, 0
17, 291600, Note_on_c, 8, 59, 0
17, 291600, Note_on_c, 8, 59, 115
17, 291600, Note_on_c, 8, 62, 115
17, 291840, Note_on_c, 8, 62, 0
17, 291840, Note_on_c, 8, 59, 0
17, 291840, Note_on_c, 8, 59, 115
17, 291840, Note_on_c, 8, 62, 115
17, 292080, Note_on_c, 8, 62, 0
17, 292080, Note_on_c, 8, 59, 0
17, 292080, Note_on_c, 8, 59, 115
17, 292080, Note_on_c, 8, 62, 115
17, 292320, Note_on_c, 8, 62, 0
17, 292320, Note_on_c, 8, 59, 0
17, 292320, Note_on_c, 8, 60, 115
17, 292320, Note_on_c, 8, 64, 115
17, 292560, Note_on_c, 8, 64, 0
17, 292560, Note_on_c, 8, 60, 0
17, 292560, Note_on_c, 8, 55, 115
17, 292560, Note_on_c, 8, 60, 115
17, 292800, Note_on_c, 8, 60, 0
17, 292800, Note_on_c, 8, 55, 0
17, 292800, Note_on_c, 8, 60, 115
17, 292800, Note_on_c, 8, 64, 115
17, 293040, Note_on_c, 8, 64, 0
17, 293040, Note_on_c, 8, 60, 0
17, 293040, Note_on_c, 8, 60, 115
17, 293040, Note_on_c, 8, 64, 115
17, 293280, Note_on_c, 8, 64, 0
17, 293280, Note_on_c, 8, 60, 0
17, 293280, Note_on_c, 8, 60, 115
17, 293280, Note_on_c, 8, 64, 115
17, 293520, Note_on_c, 8, 64, 0
17, 293520, Note_on_c, 8, 60, 0
17, 293520, Note_on_c, 8, 62, 115
17, 293520, Note_on_c, 8, 65, 115
17, 293760, Note_on_c, 8, 65, 0
17, 293760, Note_on_c, 8, 62, 0
17, 293760, Note_on_c, 8, 59, 115
17, 293760, Note_on_c, 8, 67, 115
17, 294000, Note_on_c, 8, 67, 0
17, 294000, Note_on_c, 8, 59, 0
17, 294000, Note_on_c, 8, 55, 115
17, 294000, Note_on_c, 8, 62, 115
17, 294240, Note_on_c, 8, 62, 0
17, 294240, Note_on_c, 8, 55, 0
17, 294240, Note_on_c, 8, 59, 115
17, 294240, Note_on_c, 8, 67, 115
17, 294480, Note_on_c, 8, 67, 0
17, 294480, Note_on_c, 8, 59, 0
17, 294480, Note_on_c, 8, 59, 115
17, 294480, Note_on_c, 8, 67, 115
17, 294720, Note_on_c, 8, 67, 0
17, 294720, Note_on_c, 8, 59, 0
17, 294720, Note_on_c, 8, 62, 115
17, 294720, Note_on_c, 8, 65, 115
17, 294960, Note_on_c, 8, 65, 0
17, 294960, Note_on_c, 8, 62, 0
17, 294960, Note_on_c, 8, 62, 115
17, 294960, Note_on_c, 8, 65, 115
17, 295200, Note_on_c, 8, 65, 0
17, 295200, Note_on_c, 8, 62, 0
17, 295200, Note_on_c, 8, 60, 115
17, 295200, Note_on_c, 8, 64, 115
17, 295440, Note_on_c, 8, 64, 0
17, 295440, Note_on_c, 8, 60, 0
17, 295440, Note_on_c, 8, 60, 115
17, 295440, Note_on_c, 8, 64, 115
17, 295680, Note_on_c, 8, 64, 0
17, 295680, Note_on_c, 8, 60, 0
17, 295680, Note_on_c, 8, 55, 115
17, 295680, Note_on_c, 8, 60, 115
17, 295920, Note_on_c, 8, 60, 0
17, 295920, Note_on_c, 8, 55, 0
17, 295920, Note_on_c, 8, 55, 115
17, 295920, Note_on_c, 8, 60, 115
17, 296160, Note_on_c, 8, 60, 0
17, 296160, Note_on_c, 8, 55, 0
17, 296160, Note_on_c, 8, 60, 115
17, 296160, Note_on_c, 8, 64, 115
17, 296400, Note_on_c, 8, 64, 0
17, 296400, Note_on_c, 8, 60, 0
17, 296400, Note_on_c, 8, 60, 115
17, 296400, Note_on_c, 8, 64, 115
17, 296640, Note_on_c, 8, 64, 0
17, 296640, Note_on_c, 8, 60, 0
17, 296640, Note_on_c, 8, 59, 115
17, 296640, Note_on_c, 8, 67, 115
17, 296880, Note_on_c, 8, 67, 0
17, 296880, Note_on_c, 8, 59, 0
17, 296880, Note_on_c, 8, 55, 115
17, 296880, Note_on_c, 8, 62, 115
17, 297120, Note_on_c, 8, 62, 0
17, 297120, Note_on_c, 8, 55, 0
17, 297120, Note_on_c, 8, 59, 115
17, 297120, Note_on_c, 8, 67, 115
17, 297360, Note_on_c, 8, 67, 0
17, 297360, Note_on_c, 8, 59, 0
17, 297360, Note_on_c, 8, 59, 115
17, 297360, Note_on_c, 8, 67, 115
17, 297600, Note_on_c, 8, 67, 0
17, 297600, Note_on_c, 8, 59, 0
17, 297600, Note_on_c, 8, 62, 115
17, 297600, Note_on_c, 8, 65, 115
17, 297840, Note_on_c, 8, 65, 0
17, 297840, Note_on_c, 8, 62, 0
17, 297840, Note_on_c, 8, 62, 115
17, 297840, Note_on_c, 8, 65, 115
17, 298080, Note_on_c, 8, 65, 0
17, 298080, Note_on_c, 8, 62, 0
17, 298080, Note_on_c, 8, 60, 115
17, 298080, Note_on_c, 8, 64, 115
17, 298320, Note_on_c, 8, 64, 0
17, 298320, Note_on_c, 8, 60, 0
17, 298320, Note_on_c, 8, 60, 115
17, 298320, Note_on_c, 8, 64, 115
17, 298560, Note_on_c, 8, 64, 0
17, 298560, Note_on_c, 8, 60, 0
17, 298560, Note_on_c, 8, 55, 115
17, 298560, Note_on_c, 8, 60, 115
17, 298800, Note_on_c, 8, 60, 0
17, 298800, Note_on_c, 8, 55, 0
17, 298800, Note_on_c, 8, 55, 115
17, 298800, Note_on_c, 8, 60, 115
17, 299040, Note_on_c, 8, 60, 0
17, 299040, Note_on_c, 8, 55, 0
17, 299040, Note_on_c, 8, 60, 115
17, 299040, Note_on_c, 8, 64, 115
17, 299280, Note_on_c, 8, 64, 0
17, 299280, Note_on_c, 8, 60, 0
17, 299280, Note_on_c, 8, 60, 115
17, 299280, Note_on_c, 8, 64, 115
17, 299520, Note_on_c, 8, 64, 0
17, 299520, Note_on_c, 8, 60, 0
17, 299520, Note_on_c, 8, 59, 115
17, 299520, Note_on_c, 8, 67, 115
17, 299760, Note_on_c, 8, 67, 0
17, 299760, Note_on_c, 8, 59, 0
17, 299760, Note_on_c, 8, 55, 115
17, 299760, Note_on_c, 8, 62, 115
17, 300000, Note_on_c, 8, 62, 0
17, 300000, Note_on_c, 8, 55, 0
17, 300000, Note_on_c, 8, 59, 115
17, 300000, Note_on_c, 8, 67, 115
17, 300240, Note_on_c, 8, 67, 0
17, 300240, Note_on_c, 8, 59, 0
17, 300240, Note_on_c, 8, 59, 115
17, 300240, Note_on_c, 8, 67, 115
17, 300480, Note_on_c, 8, 67, 0
17, 300480, Note_on_c, 8, 59, 0
17, 300480, Note_on_c, 8, 62, 115
17, 300480, Note_on_c, 8, 65, 115
17, 300720, Note_on_c, 8, 65, 0
17, 300720, Note_on_c, 8, 62, 0
17, 300720, Note_on_c, 8, 62, 115
17, 300720, Note_on_c, 8, 65, 115
17, 300960, Note_on_c, 8, 65, 0
17, 300960, Note_on_c, 8, 62, 0
17, 300960, Note_on_c, 8, 60, 115
17, 300960, Note_on_c, 8, 64, 115
17, 301200, Note_on_c, 8, 64, 0
17, 301200, Note_on_c, 8, 60, 0
17, 301200, Note_on_c, 8, 56, 115
17, 301200, Note_on_c, 8, 64, 115
17, 301440, Note_on_c, 8, 64, 0
17, 301440, Note_on_c, 8, 56, 0
17, 301440, Note_on_c, 8, 57, 115
17, 301440, Note_on_c, 8, 60, 115
17, 301680, Note_on_c, 8, 60, 0
17, 301680, Note_on_c, 8, 57, 0
17, 301680, Note_on_c, 8, 57, 115
17, 301680, Note_on_c, 8, 60, 115
17, 301920, Note_on_c, 8, 60, 0
17, 301920, Note_on_c, 8, 57, 0
17, 301920, Note_on_c, 8, 57, 115
17, 301920, Note_on_c, 8, 65, 115
17, 302160, Note_on_c, 8, 65, 0
17, 302160, Note_on_c, 8, 57, 0
17, 302160, Note_on_c, 8, 57, 115
17, 302160, Note_on_c, 8, 65, 115
17, 302400, Note_on_c, 8, 65, 0
17, 302400, Note_on_c, 8, 57, 0
17, 302400, Note_on_c, 8, 59, 115
17, 302400, Note_on_c, 8, 62, 115
17, 302640, Note_on_c, 8, 62, 0
17, 302640, Note_on_c, 8, 59, 0
17, 302640, Note_on_c, 8, 54, 115
17, 302640, Note_on_c, 8, 62, 115
17, 302880, Note_on_c, 8, 62, 0
17, 302880, Note_on_c, 8, 54, 0
17, 302880, Note_on_c, 8, 55, 115
17, 302880, Note_on_c, 8, 59, 115
17, 303120, Note_on_c, 8, 59, 0
17, 303120, Note_on_c, 8, 55, 0
17, 303120, Note_on_c, 8, 55, 115
17, 303120, Note_on_c, 8, 59, 115
17, 303360, Note_on_c, 8, 59, 0
17, 303360, Note_on_c, 8, 55, 0
17, 303360, Note_on_c, 8, 55, 115
17, 303360, Note_on_c, 8, 64, 115
17, 303600, Note_on_c, 8, 64, 0
17, 303600, Note_on_c, 8, 55, 0
17, 303600, Note_on_c, 8, 55, 115
17, 303600, Note_on_c, 8, 64, 115
17, 303840, Note_on_c, 8, 64, 0
17, 303840, Note_on_c, 8, 55, 0
17, 303840, Note_on_c, 8, 57, 115
17, 303840, Note_on_c, 8, 60, 115
17, 304080, Note_on_c, 8, 60, 0
17, 304080, Note_on_c, 8, 57, 0
17, 304080, Note_on_c, 8, 52, 115
17, 304080, Note_on_c, 8, 60, 115
17, 304320, Note_on_c, 8, 60, 0
17, 304320, Note_on_c, 8, 52, 0
17, 304320, Note_on_c, 8, 53, 115
17, 304320, Note_on_c, 8, 57, 115
17, 304560, Note_on_c, 8, 57, 0
17, 304560, Note_on_c, 8, 53, 0
17, 304560, Note_on_c, 8, 53, 115
17, 304560, Note_on_c, 8, 57, 115
17, 304800, Note_on_c, 8, 57, 0
17, 304800, Note_on_c, 8, 53, 0
17, 304800, Note_on_c, 8, 53, 115
17, 304800, Note_on_c, 8, 62, 115
17, 305040, Note_on_c, 8, 62, 0
17, 305040, Note_on_c, 8, 53, 0
17, 305040, Note_on_c, 8, 53, 115
17, 305040, Note_on_c, 8, 62, 115
17, 305280, Note_on_c, 8, 62, 0
17, 305280, Note_on_c, 8, 53, 0
17, 305280, Note_on_c, 8, 53, 115
17, 305280, Note_on_c, 8, 59, 115
17, 305520, Note_on_c, 8, 59, 0
17, 305520, Note_on_c, 8, 53, 0
17, 305520, Note_on_c, 8, 53, 115
17, 305520, Note_on_c, 8, 59, 115
17, 305760, Note_on_c, 8, 59, 0
17, 305760, Note_on_c, 8, 53, 0
17, 305760, Note_on_c, 8, 59, 115
17, 305760, Note_on_c, 8, 62, 115
17, 306000, Note_on_c, 8, 62, 0
17, 306000, Note_on_c, 8, 59, 0
17, 306000, Note_on_c, 8, 59, 115
17, 306000, Note_on_c, 8, 62, 115
17, 306240, Note_on_c, 8, 62, 0
17, 306240, Note_on_c, 8, 59, 0
17, 306240, Note_on_c, 8, 59, 115
17, 306240, Note_on_c, 8, 65, 115
17, 306480, Note_on_c, 8, 65, 0
17, 306480, Note_on_c, 8, 59, 0
17, 306480, Note_on_c, 8, 59, 115
17, 306480, Note_on_c, 8, 65, 115
17, 306720, Note_on_c, 8, 65, 0
17, 306720, Note_on_c, 8, 59, 0
17, 306720, Note_on_c, 8, 62, 115
17, 306720, Note_on_c, 8, 65, 115
17, 306960, Note_on_c, 8, 65, 0
17, 306960, Note_on_c, 8, 62, 0
17, 306960, Note_on_c, 8, 62, 115
17, 306960, Note_on_c, 8, 65, 115
17, 307200, Note_on_c, 8, 65, 0
17, 307200, Note_on_c, 8, 62, 0
17, 307200, Note_on_c, 8, 62, 115
17, 307200, Note_on_c, 8, 65, 115
17, 307440, Note_on_c, 8, 65, 0
17, 307440, Note_on_c, 8, 62, 0
17, 307440, Note_on_c, 8, 62, 115
17, 307440, Note_on_c, 8, 65, 115
17, 307680, Note_on_c, 8, 65, 0
17, 307680, Note_on_c, 8, 62, 0
17, 307680, Note_on_c, 8, 65, 115
17, 307680, Note_on_c, 8, 67, 115
17, 307920, Note_on_c, 8, 67, 0
17, 307920, Note_on_c, 8, 65, 0
17, 307920, Note_on_c, 8, 65, 115
17, 307920, Note_on_c, 8, 67, 115
17, 308160, Note_on_c, 8, 67, 0
17, 308160, Note_on_c, 8, 65, 0
17, 308160, Note_on_c, 8, 64, 115
17, 308160, Note_on_c, 8, 67, 115
17, 308640, Note_on_c, 8, 67, 0
17, 308640, Note_on_c, 8, 64, 0
17, 308880, Note_on_c, 8, 55, 115
17, 308880, Note_on_c, 8, 67, 115
17, 309120, Note_on_c, 8, 67, 0
17, 309120, Note_on_c, 8, 55, 0
17, 309120, Note_on_c, 8, 55, 115
17, 309120, Note_on_c, 8, 67, 115
17, 309360, Note_on_c, 8, 67, 0
17, 309360, Note_on_c, 8, 55, 0
17, 309360, Note_on_c, 8, 53, 115
17, 309360, Note_on_c, 8, 65, 115
17, 309600, Note_on_c, 8, 65, 0
17, 309600, Note_on_c, 8, 53, 0
17, 309600, Note_on_c, 8, 52, 115
17, 309600, Note_on_c, 8, 64, 115
17, 310080, Note_on_c, 8, 64, 0
17, 310080, Note_on_c, 8, 52, 0
17, 310320, Note_on_c, 8, 55, 115
17, 310320, Note_on_c, 8, 67, 115
17, 310560, Note_on_c, 8, 67, 0
17, 310560, Note_on_c, 8, 55, 0
17, 310560, Note_on_c, 8, 55, 115
17, 310560, Note_on_c, 8, 67, 115
17, 310800, Note_on_c, 8, 67, 0
17, 310800, Note_on_c, 8, 55, 0
17, 310800, Note_on_c, 8, 53, 115
17, 310800, Note_on_c, 8, 65, 115
17, 311040, Note_on_c, 8, 65, 0
17, 311040, Note_on_c, 8, 53, 0
17, 311040, Note_on_c, 8, 52, 115
17, 311040, Note_on_c, 8, 64, 115
17, 311520, Note_on_c, 8, 64, 0
17, 311520, Note_on_c, 8, 52, 0
17, 311760, Note_on_c, 8, 55, 123
17, 312000, Note_on_c, 8, 55, 0
17, 312000, Note_on_c, 8, 57, 123
17, 312240, Note_on_c, 8, 57, 0
17, 312240, Note_on_c, 8, 59, 123
17, 312480, Note_on_c, 8, 59, 0
17, 312480, Note_on_c, 8, 60, 123
17, 312960, Note_on_c, 8, 60, 0
17, 324960, Note_on_c, 8, 60, 91
17, 325440, Note_on_c, 8, 60, 0
17, 325440, Note_on_c, 8, 59, 91
17, 325680, Note_on_c, 8, 59, 0
17, 325680, Note_on_c, 8, 60, 91
17, 325920, Note_on_c, 8, 60, 0
17, 325920, Note_on_c, 8, 62, 91
17, 326160, Note_on_c, 8, 62, 0
17, 326160, Note_on_c, 8, 55, 91
17, 326400, Note_on_c, 8, 55, 0
17, 326400, Note_on_c, 8, 57, 91
17, 326640, Note_on_c, 8, 57, 0
17, 326640, Note_on_c, 8, 59, 91
17, 326880, Note_on_c, 8, 59, 0
17, 326880, Note_on_c, 8, 60, 91
17, 327120, Note_on_c, 8, 60, 0
17, 327120, Note_on_c, 8, 59, 91
17, 327360, Note_on_c, 8, 59, 0
17, 327360, Note_on_c, 8, 60, 91
17, 327600, Note_on_c, 8, 60, 0
17, 327600, Note_on_c, 8, 62, 91
17, 327840, Note_on_c, 8, 62, 0
17, 327840, Note_on_c, 8, 64, 91
17, 328080, Note_on_c, 8, 64, 0
17, 328080, Note_on_c, 8, 65, 91
17, 328320, Note_on_c, 8, 65, 0
17, 328320, Note_on_c, 8, 67, 91
17, 329280, Note_on_c, 8, 67, 0
17, 329280, Note_on_c, 8, 65, 91
17, 329760, Note_on_c, 8, 65, 0
17, 329760, Note_on_c, 8, 64, 91
17, 330240, Note_on_c, 8, 64, 0
17, 330240, Note_on_c, 8, 60, 91
17, 330720, Note_on_c, 8, 60, 0
17, 330720, Note_on_c, 8, 72, 91
17, 331680, Note_on_c, 8, 72, 0
17, 331680, Note_on_c, 8, 60, 91
17, 332160, Note_on_c, 8, 60, 0
17, 332160, Note_on_c, 8, 70, 91
17, 333120, Note_on_c, 8, 70, 0
17, 333120, Note_on_c, 8, 60, 91
17, 333600, Note_on_c, 8, 60, 0
17, 333600, Note_on_c, 8, 69, 91
17, 334560, Note_on_c, 8, 69, 0
17, 334560, Note_on_c, 8, 60, 91
17, 335040, Note_on_c, 8, 60, 0
17, 335040, Note_on_c, 8, 67, 91
17, 335520, Note_on_c, 8, 67, 0
17, 335520, Note_on_c, 8, 65, 91
17, 336000, Note_on_c, 8, 65, 0
17, 336000, Note_on_c, 8, 69, 91
17, 336480, Note_on_c, 8, 69, 0
17, 390240, Note_on_c, 8, 62, 91
17, 390720, Note_on_c, 8, 62, 0
17, 391200, Note_on_c, 8, 55, 91
17, 391680, Note_on_c, 8, 55, 0
17, 391680, Note_on_c, 8, 55, 91
17, 392160, Note_on_c, 8, 55, 0
17, 392640, Note_on_c, 8, 55, 91
17, 393120, Note_on_c, 8, 55, 0
17, 393120, Note_on_c, 8, 55, 91
17, 393600, Note_on_c, 8, 55, 0
17, 394080, Note_on_c, 8, 57, 91
17, 394560, Note_on_c, 8, 57, 0
17, 394560, Note_on_c, 8, 50, 91
17, 395040, Note_on_c, 8, 50, 0
17, 396000, Note_on_c, 8, 59, 78
17, 396480, Note_on_c, 8, 59, 0
17, 397440, Note_on_c, 8, 60, 78
17, 397920, Note_on_c, 8, 60, 0
17, 398880, Note_on_c, 8, 62, 78
17, 399360, Note_on_c, 8, 62, 0
17, 400320, Note_on_c, 8, 63, 78
17, 400800, Note_on_c, 8, 63, 0
17, 401760, Note_on_c, 8, 50, 78
17, 401880, Note_on_c, 8, 50, 0
17, 401880, Note_on_c, 8, 53, 78
17, 402000, Note_on_c, 8, 53, 0
17, 402000, Note_on_c, 8, 55, 78
17, 402240, Note_on_c, 8, 55, 0
17, 403200, Note_on_c, 8, 48, 78
17, 403320, Note_on_c, 8, 48, 0
17, 403320, Note_on_c, 8, 51, 78
17, 403440, Note_on_c, 8, 51, 0
17, 403440, Note_on_c, 8, 55, 78
17, 403680, Note_on_c, 8, 55, 0
17, 404640, Note_on_c, 8, 48, 78
17, 404760, Note_on_c, 8, 48, 0
17, 404760, Note_on_c, 8, 53, 78
17, 404880, Note_on_c, 8, 53, 0
17, 404880, Note_on_c, 8, 56, 78
17, 405120, Note_on_c, 8, 56, 0
17, 406080, Note_on_c, 8, 50, 78
17, 406200, Note_on_c, 8, 50, 0
17, 406200, Note_on_c, 8, 53, 78
17, 406320, Note_on_c, 8, 53, 0
17, 406320, Note_on_c, 8, 58, 78
17, 406560, Note_on_c, 8, 58, 0
17, 407520, Note_on_c, 8, 64, 78
17, 408000, Note_on_c, 8, 64, 0
17, 408960, Note_on_c, 8, 65, 78
17, 409440, Note_on_c, 8, 65, 0
17, 410400, Note_on_c, 8, 64, 78
17, 410880, Note_on_c, 8, 64, 0
17, 411840, Note_on_c, 8, 65, 78
17, 412320, Note_on_c, 8, 65, 0
17, 413280, Note_on_c, 8, 52, 78
17, 413400, Note_on_c, 8, 52, 0
17, 413400, Note_on_c, 8, 55, 78
17, 413520, Note_on_c, 8, 55, 0
17, 413520, Note_on_c, 8, 60, 78
17, 413760, Note_on_c, 8, 60, 0
17, 414720, Note_on_c, 8, 53, 78
17, 414840, Note_on_c, 8, 53, 0
17, 414840, Note_on_c, 8, 56, 78
17, 414960, Note_on_c, 8, 56, 0
17, 414960, Note_on_c, 8, 60, 78
17, 415200, Note_on_c, 8, 60, 0
17, 416160, Note_on_c, 8, 53, 78
17, 416280, Note_on_c, 8, 53, 0
17, 416280, Note_on_c, 8, 58, 78
17, 416400, Note_on_c, 8, 58, 0
17, 416400, Note_on_c, 8, 61, 78
17, 416640, Note_on_c, 8, 61, 0
17, 417600, Note_on_c, 8, 51, 78
17, 417720, Note_on_c, 8, 51, 0
17, 417720, Note_on_c, 8, 55, 78
17, 417840, Note_on_c, 8, 55, 0
17, 417840, Note_on_c, 8, 58, 78
17, 418080, Note_on_c, 8, 58, 0
17, 419040, Note_on_c, 8, 51, 78
17, 419160, Note_on_c, 8, 51, 0
17, 419160, Note_on_c, 8, 56, 78
17, 419280, Note_on_c, 8, 56, 0
17, 419280, Note_on_c, 8, 60, 78
17, 419520, Note_on_c, 8, 60, 0
17, 420480, Note_on_c, 8, 49, 78
17, 420600, Note_on_c, 8, 49, 0
17, 420600, Note_on_c, 8, 53, 78
17, 420720, Note_on_c, 8, 53, 0
17, 420720, Note_on_c, 8, 56, 78
17, 420960, Note_on_c, 8, 56, 0
17, 421920, Note_on_c, 8, 49, 78
17, 422040, Note_on_c, 8, 49, 0
17, 422040, Note_on_c, 8, 55, 78
17, 422160, Note_on_c, 8, 55, 0
17, 422160, Note_on_c, 8, 58, 78
17, 422400, Note_on_c, 8, 58, 0
17, 423360, Note_on_c, 8, 48, 78
17, 423480, Note_on_c, 8, 48, 0
17, 423480, Note_on_c, 8, 52, 78
17, 423600, Note_on_c, 8, 52, 0
17, 423600, Note_on_c, 8, 55, 78
17, 423840, Note_on_c, 8, 55, 0
17, 425760, Note_on_c, 8, 48, 78
17, 426240, Note_on_c, 8, 48, 0
17, 426240, Note_on_c, 8, 48, 78
17, 426360, Note_on_c, 8, 48, 0
17, 426360, Note_on_c, 8, 52, 78
17, 426480, Note_on_c, 8, 52, 0
17, 426480, Note_on_c, 8, 55, 78
17, 426720, Note_on_c, 8, 55, 0
17, 428640, Note_on_c, 8, 48, 78
17, 429120, Note_on_c, 8, 48, 0
17, 429120, Note_on_c, 8, 48, 78
17, 429240, Note_on_c, 8, 48, 0
17, 429240, Note_on_c, 8, 52, 78
17, 429360, Note_on_c, 8, 52, 0
17, 429360, Note_on_c, 8, 55, 78
17, 429600, Note_on_c, 8, 55, 0
17, 430560, Note_on_c, 8, 48, 78
17, 430680, Note_on_c, 8, 48, 0
17, 430680, Note_on_c, 8, 52, 78
17, 430800, Note_on_c, 8, 52, 0
17, 430800, Note_on_c, 8, 55, 78
17, 431040, Note_on_c, 8, 55, 0
17, 432000, Note_on_c, 8, 48, 78
17, 432120, Note_on_c, 8, 48, 0
17, 432120, Note_on_c, 8, 52, 78
17, 432240, Note_on_c, 8, 52, 0
17, 432240, Note_on_c, 8, 55, 78
17, 432480, Note_on_c, 8, 55, 0
17, 439200, Note_on_c, 8, 55, 78
17, 439320, Note_on_c, 8, 55, 0
17, 439320, Note_on_c, 8, 59, 78
17, 439440, Note_on_c, 8, 59, 0
17, 439440, Note_on_c, 8, 62, 78
17, 439680, Note_on_c, 8, 62, 0
17, 440640, Note_on_c, 8, 55, 78
17, 440760, Note_on_c, 8, 55, 0
17, 440760, Note_on_c, 8, 60, 78
17, 440880, Note_on_c, 8, 60, 0
17, 440880, Note_on_c, 8, 63, 78
17, 441120, Note_on_c, 8, 63, 0
17, 442080, Note_on_c, 8, 55, 78
17, 442200, Note_on_c, 8, 55, 0
17, 442200, Note_on_c, 8, 60, 78
17, 442320, Note_on_c, 8, 60, 0
17, 442320, Note_on_c, 8, 63, 78
17, 442560, Note_on_c, 8, 63, 0
17, 443520, Note_on_c, 8, 55, 78
17, 443640, Note_on_c, 8, 55, 0
17, 443640, Note_on_c, 8, 59, 78
17, 443760, Note_on_c, 8, 59, 0
17, 443760, Note_on_c, 8, 62, 78
17, 444000, Note_on_c, 8, 62, 0
17, 444960, Note_on_c, 8, 55, 78
17, 445080, Note_on_c, 8, 55, 0
17, 445080, Note_on_c, 8, 62, 78
17, 445200, Note_on_c, 8, 62, 0
17, 445200, Note_on_c, 8, 65, 78
17, 445440, Note_on_c, 8, 65, 0
17, 446400, Note_on_c, 8, 55, 78
17, 446520, Note_on_c, 8, 55, 0
17, 446520, Note_on_c, 8, 60, 78
17, 446640, Note_on_c, 8, 60, 0
17, 446640, Note_on_c, 8, 63, 78
17, 446880, Note_on_c, 8, 63, 0
17, 447840, Note_on_c, 8, 55, 78
17, 447960, Note_on_c, 8, 55, 0
17, 447960, Note_on_c, 8, 57, 78
17, 448080, Note_on_c, 8, 57, 0
17, 448080, Note_on_c, 8, 60, 78
17, 448320, Note_on_c, 8, 60, 0
17, 448800, Note_on_c, 8, 55, 78
17, 448920, Note_on_c, 8, 55, 0
17, 448920, Note_on_c, 8, 58, 78
17, 449040, Note_on_c, 8, 58, 0
17, 449040, Note_on_c, 8, 62, 78
17, 449280, Note_on_c, 8, 62, 0
17, 449280, Note_on_c, 8, 55, 78
17, 449400, Note_on_c, 8, 55, 0
17, 449400, Note_on_c, 8, 60, 78
17, 449520, Note_on_c, 8, 60, 0
17, 449520, Note_on_c, 8, 63, 78
17, 449760, Note_on_c, 8, 63, 0
17, 450720, Note_on_c, 8, 55, 78
17, 450840, Note_on_c, 8, 55, 0
17, 450840, Note_on_c, 8, 60, 78
17, 450960, Note_on_c, 8, 60, 0
17, 450960, Note_on_c, 8, 63, 78
17, 451200, Note_on_c, 8, 63, 0
17, 452160, Note_on_c, 8, 55, 78
17, 452280, Note_on_c, 8, 55, 0
17, 452280, Note_on_c, 8, 62, 78
17, 452400, Note_on_c, 8, 62, 0
17, 452400, Note_on_c, 8, 65, 78
17, 452640, Note_on_c, 8, 65, 0
17, 453600, Note_on_c, 8, 55, 78
17, 453720, Note_on_c, 8, 55, 0
17, 453720, Note_on_c, 8, 65, 78
17, 453840, Note_on_c, 8, 65, 0
17, 453840, Note_on_c, 8, 68, 78
17, 454080, Note_on_c, 8, 68, 0
17, 455040, Note_on_c, 8, 55, 78
17, 455160, Note_on_c, 8, 55, 0
17, 455160, Note_on_c, 8, 62, 78
17, 455280, Note_on_c, 8, 62, 0
17, 455280, Note_on_c, 8, 65, 78
17, 455520, Note_on_c, 8, 65, 0
17, 456480, Note_on_c, 8, 55, 78
17, 456600, Note_on_c, 8, 55, 0
17, 456600, Note_on_c, 8, 65, 78
17, 456720, Note_on_c, 8, 65, 0
17, 456720, Note_on_c, 8, 68, 78
17, 456960, Note_on_c, 8, 68, 0
17, 457920, Note_on_c, 8, 55, 78
17, 458040, Note_on_c, 8, 55, 0
17, 458040, Note_on_c, 8, 62, 78
17, 458160, Note_on_c, 8, 62, 0
17, 458160, Note_on_c, 8, 65, 78
17, 458400, Note_on_c, 8, 65, 0
17, 459360, Note_on_c, 8, 55, 78
17, 459480, Note_on_c, 8, 55, 0
17, 459480, Note_on_c, 8, 62, 78
17, 459600, Note_on_c, 8, 62, 0
17, 459600, Note_on_c, 8, 65, 78
17, 459840, Note_on_c, 8, 65, 0
17, 460800, Note_on_c, 8, 55, 78
17, 460920, Note_on_c, 8, 55, 0
17, 460920, Note_on_c, 8, 60, 78
17, 461040, Note_on_c, 8, 60, 0
17, 461040, Note_on_c, 8, 63, 78
17, 461280, Note_on_c, 8, 63, 0
17, 462240, Note_on_c, 8, 55, 78
17, 462360, Note_on_c, 8, 55, 0
17, 462360, Note_on_c, 8, 62, 78
17, 462480, Note_on_c, 8, 62, 0
17, 462480, Note_on_c, 8, 65, 78
17, 462720, Note_on_c, 8, 65, 0
17, 463680, Note_on_c, 8, 55, 78
17, 463800, Note_on_c, 8, 55, 0
17, 463800, Note_on_c, 8, 60, 78
17, 463920, Note_on_c, 8, 60, 0
17, 463920, Note_on_c, 8, 63, 78
17, 464160, Note_on_c, 8, 63, 0
17, 465120, Note_on_c, 8, 55, 78
17, 465240, Note_on_c, 8, 55, 0
17, 465240, Note_on_c, 8, 62, 78
17, 465360, Note_on_c, 8, 62, 0
17, 465360, Note_on_c, 8, 65, 78
17, 465600, Note_on_c, 8, 65, 0
17, 466560, Note_on_c, 8, 55, 78
17, 466680, Note_on_c, 8, 55, 0
17, 466680, Note_on_c, 8, 60, 78
17, 466800, Note_on_c, 8, 60, 0
17, 466800, Note_on_c, 8, 63, 78
17, 467040, Note_on_c, 8, 63, 0
17, 468000, Note_on_c, 8, 55, 78
17, 468120, Note_on_c, 8, 55, 0
17, 468120, Note_on_c, 8, 62, 78
17, 468240, Note_on_c, 8, 62, 0
17, 468240, Note_on_c, 8, 65, 78
17, 468480, Note_on_c, 8, 65, 0
17, 469440, Note_on_c, 8, 55, 78
17, 469560, Note_on_c, 8, 55, 0
17, 469560, Note_on_c, 8, 60, 78
17, 469680, Note_on_c, 8, 60, 0
17, 469680, Note_on_c, 8, 63, 78
17, 469920, Note_on_c, 8, 63, 0
17, 470880, Note_on_c, 8, 55, 78
17, 471000, Note_on_c, 8, 55, 0
17, 471000, Note_on_c, 8, 62, 78
17, 471120, Note_on_c, 8, 62, 0
17, 471120, Note_on_c, 8, 65, 78
17, 471360, Note_on_c, 8, 65, 0
17, 472320, Note_on_c, 8, 55, 78
17, 472440, Note_on_c, 8, 55, 0
17, 472440, Note_on_c, 8, 60, 78
17, 472560, Note_on_c, 8, 60, 0
17, 472560, Note_on_c, 8, 63, 78
17, 472800, Note_on_c, 8, 63, 0
17, 473760, Note_on_c, 8, 56, 78
17, 473880, Note_on_c, 8, 56, 0
17, 473880, Note_on_c, 8, 60, 78
17, 474000, Note_on_c, 8, 60, 0
17, 474000, Note_on_c, 8, 65, 78
17, 474240, Note_on_c, 8, 65, 0
17, 475200, Note_on_c, 8, 50, 78
17, 475320, Note_on_c, 8, 50, 0
17, 475320, Note_on_c, 8, 55, 78
17, 475440, Note_on_c, 8, 55, 0
17, 475440, Note_on_c, 8, 59, 78
17, 475680, Note_on_c, 8, 59, 0
17, 476640, Note_on_c, 8, 51, 78
17, 476760, Note_on_c, 8, 51, 0
17, 476760, Note_on_c, 8, 55, 78
17, 476880, Note_on_c, 8, 55, 0
17, 476880, Note_on_c, 8, 60, 78
17, 477120, Note_on_c, 8, 60, 0
17, 478080, Note_on_c, 8, 48, 78
17, 478200, Note_on_c, 8, 48, 0
17, 478200, Note_on_c, 8, 51, 78
17, 478320, Note_on_c, 8, 51, 0
17, 478320, Note_on_c, 8, 55, 78
17, 478560, Note_on_c, 8, 55, 0
17, 479520, Note_on_c, 8, 48, 78
17, 479640, Note_on_c, 8, 48, 0
17, 479640, Note_on_c, 8, 53, 78
17, 479760, Note_on_c, 8, 53, 0
17, 479760, Note_on_c, 8, 56, 78
17, 480000, Note_on_c, 8, 56, 0
17, 480960, Note_on_c, 8, 48, 78
17, 481080, Note_on_c, 8, 48, 0
17, 481080, Note_on_c, 8, 53, 78
17, 481200, Note_on_c, 8, 53, 0
17, 481200, Note_on_c, 8, 56, 78
17, 481440, Note_on_c, 8, 56, 0
17, 481920, Note_on_c, 8, 54, 78
17, 482400, Note_on_c, 8, 54, 0
17, 482400, Note_on_c, 8, 55, 78
17, 482880, Note_on_c, 8, 55, 0
17, 482880, Note_on_c, 8, 55, 78
17, 482880, Note_on_c, 8, 67, 78
17, 483360, Note_on_c, 8, 67, 0
17, 483360, Note_on_c, 8, 55, 0
17, 483360, Note_on_c, 8, 55, 78
17, 483360, Note_on_c, 8, 65, 78
17, 483840, Note_on_c, 8, 65, 0
17, 483840, Note_on_c, 8, 55, 0
17, 483840, Note_on_c, 8, 55, 78
17, 483840, Note_on_c, 8, 63, 78
17, 484320, Note_on_c, 8, 63, 0
17, 484320, Note_on_c, 8, 55, 0
17, 485280, Note_on_c, 8, 50, 78
17, 485400, Note_on_c, 8, 50, 0
17, 485400, Note_on_c, 8, 53, 78
17, 485520, Note_on_c, 8, 53, 0
17, 485520, Note_on_c, 8, 55, 78
17, 485760, Note_on_c, 8, 55, 0
17, 486720, Note_on_c, 8, 48, 78
17, 486840, Note_on_c, 8, 48, 0
17, 486840, Note_on_c, 8, 51, 78
17, 486960, Note_on_c, 8, 51, 0
17, 486960, Note_on_c, 8, 55, 78
17, 487200, Note_on_c, 8, 55, 0
17, 488160, Note_on_c, 8, 50, 78
17, 488280, Note_on_c, 8, 50, 0
17, 488280, Note_on_c, 8, 53, 78
17, 488400, Note_on_c, 8, 53, 0
17, 488400, Note_on_c, 8, 59, 78
17, 488640, Note_on_c, 8, 59, 0
17, 489600, Note_on_c, 8, 51, 78
17, 489720, Note_on_c, 8, 51, 0
17, 489720, Note_on_c, 8, 55, 78
17, 489840, Note_on_c, 8, 55, 0
17, 489840, Note_on_c, 8, 60, 78
17, 490080, Note_on_c, 8, 60, 0
17, 491040, Note_on_c, 8, 55, 78
17, 491160, Note_on_c, 8, 55, 0
17, 491160, Note_on_c, 8, 58, 78
17, 491280, Note_on_c, 8, 58, 0
17, 491280, Note_on_c, 8, 60, 78
17, 491520, Note_on_c, 8, 60, 0
17, 492480, Note_on_c, 8, 55, 78
17, 492600, Note_on_c, 8, 55, 0
17, 492600, Note_on_c, 8, 58, 78
17, 492720, Note_on_c, 8, 58, 0
17, 492720, Note_on_c, 8, 60, 78
17, 492960, Note_on_c, 8, 60, 0
17, 493920, Note_on_c, 8, 50, 78
17, 494040, Note_on_c, 8, 50, 0
17, 494040, Note_on_c, 8, 55, 78
17, 494160, Note_on_c, 8, 55, 0
17, 494160, Note_on_c, 8, 59, 78
17, 494400, Note_on_c, 8, 59, 0
17, 495360, Note_on_c, 8, 48, 63
17, 499680, Note_on_c, 8, 48, 0
17, 499680, Note_on_c, 8, 48, 63
17, 506880, Note_on_c, 8, 48, 0
17, 506880, Note_on_c, 8, 48, 63
17, 514080, Note_on_c, 8, 48, 0
17, 514080, Note_on_c, 8, 48, 78
17, 521280, Note_on_c, 8, 48, 0
17, 521280, Note_on_c, 8, 48, 78
17, 528480, Note_on_c, 8, 48, 0
17, 528480, Note_on_c, 8, 48, 78
17, 535680, Note_on_c, 8, 48, 0
17, 535680, Note_on_c, 8, 48, 78
17, 542880, Note_on_c, 8, 48, 0
17, 542880, Note_on_c, 8, 48, 78
17, 550080, Note_on_c, 8, 48, 0
17, 550080, Note_on_c, 8, 48, 78
17, 557280, Note_on_c, 8, 48, 0
17, 557280, Note_on_c, 8, 60, 91
17, 557520, Note_on_c, 8, 60, 0
17, 557520, Note_on_c, 8, 60, 91
17, 557760, Note_on_c, 8, 60, 0
17, 557760, Note_on_c, 8, 60, 91
17, 558000, Note_on_c, 8, 60, 0
17, 558000, Note_on_c, 8, 60, 91
17, 558240, Note_on_c, 8, 60, 0
17, 558240, Note_on_c, 8, 60, 91
17, 558480, Note_on_c, 8, 60, 0
17, 558480, Note_on_c, 8, 60, 91
17, 558720, Note_on_c, 8, 60, 0
17, 558720, Note_on_c, 8, 60, 101
17, 558960, Note_on_c, 8, 60, 0
17, 558960, Note_on_c, 8, 60, 101
17, 559200, Note_on_c, 8, 60, 0
17, 559200, Note_on_c, 8, 60, 101
17, 559440, Note_on_c, 8, 60, 0
17, 559440, Note_on_c, 8, 60, 101
17, 559680, Note_on_c, 8, 60, 0
17, 559680, Note_on_c, 8, 60, 101
17, 559920, Note_on_c, 8, 60, 0
17, 559920, Note_on_c, 8, 60, 101
17, 560160, Note_on_c, 8, 60, 0
17, 560160, Note_on_c, 8, 60, 101
17, 560400, Note_on_c, 8, 60, 0
17, 560400, Note_on_c, 8, 60, 101
17, 560640, Note_on_c, 8, 60, 0
17, 560640, Note_on_c, 8, 60, 101
17, 560880, Note_on_c, 8, 60, 0
17, 560880, Note_on_c, 8, 60, 101
17, 561120, Note_on_c, 8, 60, 0
17, 561120, Note_on_c, 8, 60, 101
17, 561360, Note_on_c, 8, 60, 0
17, 561360, Note_on_c, 8, 60, 101
17, 561600, Note_on_c, 8, 60, 0
17, 561600, Note_on_c, 8, 62, 109
17, 561840, Note_on_c, 8, 62, 0
17, 561840, Note_on_c, 8, 62, 109
17, 562080, Note_on_c, 8, 62, 0
17, 562080, Note_on_c, 8, 62, 109
17, 562320, Note_on_c, 8, 62, 0
17, 562320, Note_on_c, 8, 62, 109
17, 562560, Note_on_c, 8, 62, 0
17, 562560, Note_on_c, 8, 62, 109
17, 562800, Note_on_c, 8, 62, 0
17, 562800, Note_on_c, 8, 62, 109
17, 563040, Note_on_c, 8, 62, 0
17, 563040, Note_on_c, 8, 62, 115
17, 563280, Note_on_c, 8, 62, 0
17, 563280, Note_on_c, 8, 62, 115
17, 563520, Note_on_c, 8, 62, 0
17, 563520, Note_on_c, 8, 62, 115
17, 563760, Note_on_c, 8, 62, 0
17, 563760, Note_on_c, 8, 62, 115
17, 564000, Note_on_c, 8, 62, 0
17, 564000, Note_on_c, 8, 62, 115
17, 564240, Note_on_c, 8, 62, 0
17, 564240, Note_on_c, 8, 62, 115
17, 564480, Note_on_c, 8, 62, 0
17, 564480, Note_on_c, 8, 62, 123
17, 564720, Note_on_c, 8, 62, 0
17, 564720, Note_on_c, 8, 62, 123
17, 564960, Note_on_c, 8, 62, 0
17, 564960, Note_on_c, 8, 62, 123
17, 565200, Note_on_c, 8, 62, 0
17, 565200, Note_on_c, 8, 62, 123
17, 565440, Note_on_c, 8, 62, 0
17, 565440, Note_on_c, 8, 62, 123
17, 565680, Note_on_c, 8, 62, 0
17, 565680, Note_on_c, 8, 62, 123
17, 565920, Note_on_c, 8, 62, 0
17, 565920, Note_on_c, 8, 62, 127
17, 566160, Note_on_c, 8, 62, 0
17, 566160, Note_on_c, 8, 62, 127
17, 566400, Note_on_c, 8, 62, 0
17, 566400, Note_on_c, 8, 62, 127
17, 566640, Note_on_c, 8, 62, 0
17, 566640, Note_on_c, 8, 62, 127
17, 566880, Note_on_c, 8, 62, 0
17, 566880, Note_on_c, 8, 62, 127
17, 567120, Note_on_c, 8, 62, 0
17, 567120, Note_on_c, 8, 62, 127
17, 567360, Note_on_c, 8, 62, 0
17, 567360, End_track
18, 0, Start_track
18, 0, MIDI_port, 0
18, 0, Title_t, "Cellos"
18, 0, Program_c, 10, 48
18, 960, Note_on_c, 10, 43, 78
18, 1440, Note_on_c, 10, 43, 0
18, 1440, Note_on_c, 10, 48, 78
18, 1920, Note_on_c, 10, 48, 0
18, 1920, Note_on_c, 10, 51, 78
18, 2400, Note_on_c, 10, 51, 0
18, 2400, Note_on_c, 10, 55, 78
18, 2880, Note_on_c, 10, 55, 0
18, 2880, Note_on_c, 10, 60, 78
18, 3840, Note_on_c, 10, 60, 0
18, 3840, Note_on_c, 10, 63, 78
18, 4320, Note_on_c, 10, 63, 0
18, 4320, Note_on_c, 10, 62, 78
18, 5280, Note_on_c, 10, 62, 0
18, 5280, Note_on_c, 10, 54, 78
18, 5760, Note_on_c, 10, 54, 0
18, 5760, Note_on_c, 10, 55, 78
18, 8640, Note_on_c, 10, 55, 0
18, 8640, Note_on_c, 10, 48, 78
18, 11520, Note_on_c, 10, 48, 0
18, 11520, Note_on_c, 10, 43, 78
18, 12480, Note_on_c, 10, 43, 0
18, 12480, Note_on_c, 10, 43, 78
18, 12960, Note_on_c, 10, 43, 0
18, 12960, Note_on_c, 10, 48, 78
18, 13440, Note_on_c, 10, 48, 0
18, 13440, Note_on_c, 10, 51, 78
18, 13920, Note_on_c, 10, 51, 0
18, 13920, Note_on_c, 10, 55, 78
18, 14400, Note_on_c, 10, 55, 0
18, 14400, Note_on_c, 10, 60, 78
18, 15360, Note_on_c, 10, 60, 0
18, 15360, Note_on_c, 10, 63, 78
18, 15840, Note_on_c, 10, 63, 0
18, 15840, Note_on_c, 10, 62, 78
18, 16800, Note_on_c, 10, 62, 0
18, 16800, Note_on_c, 10, 54, 78
18, 17280, Note_on_c, 10, 54, 0
18, 17280, Note_on_c, 10, 55, 78
18, 18240, Note_on_c, 10, 55, 0
18, 18240, Note_on_c, 10, 49, 78
18, 18720, Note_on_c, 10, 49, 0
18, 18720, Note_on_c, 10, 50, 78
18, 21120, Note_on_c, 10, 50, 0
18, 21120, Note_on_c, 10, 48, 78
18, 21600, Note_on_c, 10, 48, 0
18, 21600, Note_on_c, 10, 47, 78
18, 22560, Note_on_c, 10, 47, 0
18, 22560, Note_on_c, 10, 43, 78
18, 23040, Note_on_c, 10, 43, 0
18, 23040, Note_on_c, 10, 48, 78
18, 24000, Note_on_c, 10, 48, 0
18, 24000, Note_on_c, 10, 47, 78
18, 24480, Note_on_c, 10, 47, 0
18, 24480, Note_on_c, 10, 48, 78
18, 25440, Note_on_c, 10, 48, 0
18, 25440, Note_on_c, 10, 42, 78
18, 25920, Note_on_c, 10, 42, 0
18, 25920, Note_on_c, 10, 43, 78
18, 27360, Note_on_c, 10, 43, 0
18, 28800, Note_on_c, 10, 48, 115
18, 29280, Note_on_c, 10, 48, 0
18, 30240, Note_on_c, 10, 50, 115
18, 30720, Note_on_c, 10, 50, 0
18, 31680, Note_on_c, 10, 51, 115
18, 32160, Note_on_c, 10, 51, 0
18, 33120, Note_on_c, 10, 47, 115
18, 33600, Note_on_c, 10, 47, 0
18, 34560, Note_on_c, 10, 48, 115
18, 35040, Note_on_c, 10, 48, 0
18, 35520, Note_on_c, 10, 46, 115
18, 36000, Note_on_c, 10, 46, 0
18, 36000, Note_on_c, 10, 44, 115
18, 36480, Note_on_c, 10, 44, 0
18, 36960, Note_on_c, 10, 44, 115
18, 37440, Note_on_c, 10, 44, 0
18, 37440, Note_on_c, 10, 46, 115
18, 37920, Note_on_c, 10, 46, 0
18, 38880, Note_on_c, 10, 46, 115
18, 40320, Note_on_c, 10, 46, 0
18, 40320, Note_on_c, 10, 51, 115
18, 41760, Note_on_c, 10, 51, 0
18, 41760, Note_on_c, 10, 53, 115
18, 43200, Note_on_c, 10, 53, 0
18, 43200, Note_on_c, 10, 54, 115
18, 44640, Note_on_c, 10, 54, 0
18, 44640, Note_on_c, 10, 50, 115
18, 46080, Note_on_c, 10, 50, 0
18, 46080, Note_on_c, 10, 51, 115
18, 47040, Note_on_c, 10, 51, 0
18, 47040, Note_on_c, 10, 49, 115
18, 47520, Note_on_c, 10, 49, 0
18, 47520, Note_on_c, 10, 47, 115
18, 48480, Note_on_c, 10, 47, 0
18, 48480, Note_on_c, 10, 47, 115
18, 48960, Note_on_c, 10, 47, 0
18, 48960, Note_on_c, 10, 49, 115
18, 50400, Note_on_c, 10, 49, 0
18, 50400, Note_on_c, 10, 42, 115
18, 51840, Note_on_c, 10, 42, 0
18, 51840, Note_on_c, 10, 47, 115
18, 52800, Note_on_c, 10, 47, 0
18, 52800, Note_on_c, 10, 46, 115
18, 53280, Note_on_c, 10, 46, 0
18, 53280, Note_on_c, 10, 44, 115
18, 54240, Note_on_c, 10, 44, 0
18, 54240, Note_on_c, 10, 44, 115
18, 54720, Note_on_c, 10, 44, 0
18, 54720, Note_on_c, 10, 46, 115
18, 57120, Note_on_c, 10, 46, 0
18, 57120, Note_on_c, 10, 39, 115
18, 57600, Note_on_c, 10, 39, 0
18, 57600, Note_on_c, 10, 46, 115
18, 60000, Note_on_c, 10, 46, 0
18, 60000, Note_on_c, 10, 39, 115
18, 60480, Note_on_c, 10, 39, 0
18, 60480, Note_on_c, 10, 46, 115
18, 61440, Note_on_c, 10, 46, 0
18, 61440, Note_on_c, 10, 39, 115
18, 61920, Note_on_c, 10, 39, 0
18, 61920, Note_on_c, 10, 46, 115
18, 62880, Note_on_c, 10, 46, 0
18, 62880, Note_on_c, 10, 39, 115
18, 63360, Note_on_c, 10, 39, 0
18, 63360, Note_on_c, 10, 46, 115
18, 65280, Note_on_c, 10, 46, 0
18, 65280, Note_on_c, 10, 49, 78
18, 65760, Note_on_c, 10, 49, 0
18, 65760, Note_on_c, 10, 53, 78
18, 66240, Note_on_c, 10, 53, 0
18, 66240, Note_on_c, 10, 58, 78
18, 67200, Note_on_c, 10, 58, 0
18, 67200, Note_on_c, 10, 61, 78
18, 67680, Note_on_c, 10, 61, 0
18, 67680, Note_on_c, 10, 60, 78
18, 68640, Note_on_c, 10, 60, 0
18, 68640, Note_on_c, 10, 52, 78
18, 69120, Note_on_c, 10, 52, 0
18, 69120, Note_on_c, 10, 53, 78
18, 72000, Note_on_c, 10, 53, 0
18, 72000, Note_on_c, 10, 46, 78
18, 74880, Note_on_c, 10, 46, 0
18, 74880, Note_on_c, 10, 41, 78
18, 75840, Note_on_c, 10, 41, 0
18, 75840, Note_on_c, 10, 41, 78
18, 76320, Note_on_c, 10, 41, 0
18, 76320, Note_on_c, 10, 46, 78
18, 76800, Note_on_c, 10, 46, 0
18, 76800, Note_on_c, 10, 49, 78
18, 77280, Note_on_c, 10, 49, 0
18, 77280, Note_on_c, 10, 53, 78
18, 77760, Note_on_c, 10, 53, 0
18, 77760, Note_on_c, 10, 58, 78
18, 78720, Note_on_c, 10, 58, 0
18, 78720, Note_on_c, 10, 61, 78
18, 79200, Note_on_c, 10, 61, 0
18, 79200, Note_on_c, 10, 60, 78
18, 80160, Note_on_c, 10, 60, 0
18, 80160, Note_on_c, 10, 52, 78
18, 80640, Note_on_c, 10, 52, 0
18, 80640, Note_on_c, 10, 53, 78
18, 81600, Note_on_c, 10, 53, 0
18, 81600, Note_on_c, 10, 68, 78
18, 82080, Note_on_c, 10, 68, 0
18, 82080, Note_on_c, 10, 67, 78
18, 83040, Note_on_c, 10, 67, 0
18, 83040, Note_on_c, 10, 59, 78
18, 83520, Note_on_c, 10, 59, 0
18, 83520, Note_on_c, 10, 60, 78
18, 84480, Note_on_c, 10, 60, 0
18, 84480, Note_on_c, 10, 63, 78
18, 84960, Note_on_c, 10, 63, 0
18, 84960, Note_on_c, 10, 62, 78
18, 85920, Note_on_c, 10, 62, 0
18, 85920, Note_on_c, 10, 54, 78
18, 86400, Note_on_c, 10, 54, 0
18, 86400, Note_on_c, 10, 55, 78
18, 87360, Note_on_c, 10, 55, 0
18, 87360, Note_on_c, 10, 49, 78
18, 87840, Note_on_c, 10, 49, 0
18, 87840, Note_on_c, 10, 50, 78
18, 89280, Note_on_c, 10, 50, 0
18, 89280, Note_on_c, 10, 55, 78
18, 90240, Note_on_c, 10, 55, 0
18, 90240, Note_on_c, 10, 49, 78
18, 90720, Note_on_c, 10, 49, 0
18, 90720, Note_on_c, 10, 50, 78
18, 92160, Note_on_c, 10, 50, 0
18, 92160, Note_on_c, 10, 55, 78
18, 92640, Note_on_c, 10, 55, 0
18, 92640, Note_on_c, 10, 49, 78
18, 93120, Note_on_c, 10, 49, 0
18, 93120, Note_on_c, 10, 50, 78
18, 93600, Note_on_c, 10, 50, 0
18, 93600, Note_on_c, 10, 55, 78
18, 94080, Note_on_c, 10, 55, 0
18, 94080, Note_on_c, 10, 49, 78
18, 94560, Note_on_c, 10, 49, 0
18, 94560, Note_on_c, 10, 50, 78
18, 95040, Note_on_c, 10, 50, 0
18, 95040, Note_on_c, 10, 55, 78
18, 95520, Note_on_c, 10, 55, 0
18, 95520, Note_on_c, 10, 49, 78
18, 96000, Note_on_c, 10, 49, 0
18, 96000, Note_on_c, 10, 50, 78
18, 96480, Note_on_c, 10, 50, 0
18, 96480, Note_on_c, 10, 55, 78
18, 96960, Note_on_c, 10, 55, 0
18, 96960, Note_on_c, 10, 50, 78
18, 97440, Note_on_c, 10, 50, 0
18, 97440, Note_on_c, 10, 51, 78
18, 97920, Note_on_c, 10, 51, 0
18, 97920, Note_on_c, 10, 56, 91
18, 98400, Note_on_c, 10, 56, 0
18, 98400, Note_on_c, 10, 52, 91
18, 98880, Note_on_c, 10, 52, 0
18, 98880, Note_on_c, 10, 53, 91
18, 99360, Note_on_c, 10, 53, 0
18, 99360, Note_on_c, 10, 59, 101
18, 99840, Note_on_c, 10, 59, 0
18, 99840, Note_on_c, 10, 54, 101
18, 100320, Note_on_c, 10, 54, 0
18, 100320, Note_on_c, 10, 55, 101
18, 100800, Note_on_c, 10, 55, 0
18, 100800, Note_on_c, 10, 60, 109
18, 101280, Note_on_c, 10, 60, 0
18, 101280, Note_on_c, 10, 56, 109
18, 101760, Note_on_c, 10, 56, 0
18, 101760, Note_on_c, 10, 57, 109
18, 102240, Note_on_c, 10, 57, 0
18, 102240, Note_on_c, 10, 59, 115
18, 103680, Note_on_c, 10, 59, 0
18, 103680, Note_on_c, 10, 60, 115
18, 105120, Note_on_c, 10, 60, 0
18, 105120, Note_on_c, 10, 62, 115
18, 106560, Note_on_c, 10, 62, 0
18, 106560, Note_on_c, 10, 63, 115
18, 108000, Note_on_c, 10, 63, 0
18, 108000, Note_on_c, 10, 59, 115
18, 109440, Note_on_c, 10, 59, 0
18, 109440, Note_on_c, 10, 60, 115
18, 110400, Note_on_c, 10, 60, 0
18, 110400, Note_on_c, 10, 58, 115
18, 110880, Note_on_c, 10, 58, 0
18, 110880, Note_on_c, 10, 56, 115
18, 111840, Note_on_c, 10, 56, 0
18, 111840, Note_on_c, 10, 56, 115
18, 112320, Note_on_c, 10, 56, 0
18, 112320, Note_on_c, 10, 58, 115
18, 113760, Note_on_c, 10, 58, 0
18, 113760, Note_on_c, 10, 48, 115
18, 115200, Note_on_c, 10, 48, 0
18, 115200, Note_on_c, 10, 53, 115
18, 116640, Note_on_c, 10, 53, 0
18, 116640, Note_on_c, 10, 55, 115
18, 118080, Note_on_c, 10, 55, 0
18, 118080, Note_on_c, 10, 56, 115
18, 119520, Note_on_c, 10, 56, 0
18, 119520, Note_on_c, 10, 52, 115
18, 120960, Note_on_c, 10, 52, 0
18, 120960, Note_on_c, 10, 53, 115
18, 121920, Note_on_c, 10, 53, 0
18, 121920, Note_on_c, 10, 51, 115
18, 122400, Note_on_c, 10, 51, 0
18, 122400, Note_on_c, 10, 49, 115
18, 123360, Note_on_c, 10, 49, 0
18, 123360, Note_on_c, 10, 49, 115
18, 123840, Note_on_c, 10, 49, 0
18, 123840, Note_on_c, 10, 51, 115
18, 125280, Note_on_c, 10, 51, 0
18, 125280, Note_on_c, 10, 44, 115
18, 126720, Note_on_c, 10, 44, 0
18, 126720, Note_on_c, 10, 49, 115
18, 127680, Note_on_c, 10, 49, 0
18, 127680, Note_on_c, 10, 48, 115
18, 128160, Note_on_c, 10, 48, 0
18, 128160, Note_on_c, 10, 46, 115
18, 129120, Note_on_c, 10, 46, 0
18, 129120, Note_on_c, 10, 46, 115
18, 129600, Note_on_c, 10, 46, 0
18, 129600, Note_on_c, 10, 48, 115
18, 132000, Note_on_c, 10, 48, 0
18, 132000, Note_on_c, 10, 41, 115
18, 132480, Note_on_c, 10, 41, 0
18, 132480, Note_on_c, 10, 48, 115
18, 134880, Note_on_c, 10, 48, 0
18, 134880, Note_on_c, 10, 41, 115
18, 135360, Note_on_c, 10, 41, 0
18, 135360, Note_on_c, 10, 48, 115
18, 136320, Note_on_c, 10, 48, 0
18, 136320, Note_on_c, 10, 41, 115
18, 136800, Note_on_c, 10, 41, 0
18, 136800, Note_on_c, 10, 48, 115
18, 137760, Note_on_c, 10, 48, 0
18, 137760, Note_on_c, 10, 41, 115
18, 138240, Note_on_c, 10, 41, 0
18, 138240, Note_on_c, 10, 48, 115
18, 140160, Note_on_c, 10, 48, 0
18, 140160, Note_on_c, 10, 51, 78
18, 140640, Note_on_c, 10, 51, 0
18, 140640, Note_on_c, 10, 55, 78
18, 141120, Note_on_c, 10, 55, 0
18, 141120, Note_on_c, 10, 60, 78
18, 142080, Note_on_c, 10, 60, 0
18, 142080, Note_on_c, 10, 63, 78
18, 142560, Note_on_c, 10, 63, 0
18, 142560, Note_on_c, 10, 62, 78
18, 143520, Note_on_c, 10, 62, 0
18, 143520, Note_on_c, 10, 54, 78
18, 144000, Note_on_c, 10, 54, 0
18, 144000, Note_on_c, 10, 55, 78
18, 145440, Note_on_c, 10, 55, 0
18, 145440, Note_on_c, 10, 67, 115
18, 146400, Note_on_c, 10, 67, 0
18, 146400, Note_on_c, 10, 65, 91
18, 146880, Note_on_c, 10, 65, 0
18, 146880, Note_on_c, 10, 63, 91
18, 147840, Note_on_c, 10, 63, 0
18, 147840, Note_on_c, 10, 62, 91
18, 148320, Note_on_c, 10, 62, 0
18, 148320, Note_on_c, 10, 60, 91
18, 149280, Note_on_c, 10, 60, 0
18, 149280, Note_on_c, 10, 63, 91
18, 149760, Note_on_c, 10, 63, 0
18, 149760, Note_on_c, 10, 67, 91
18, 150240, Note_on_c, 10, 67, 0
18, 150720, Note_on_c, 10, 43, 91
18, 151200, Note_on_c, 10, 43, 0
18, 151200, Note_on_c, 10, 67, 115
18, 152160, Note_on_c, 10, 67, 0
18, 152160, Note_on_c, 10, 65, 91
18, 152640, Note_on_c, 10, 65, 0
18, 152640, Note_on_c, 10, 63, 91
18, 153600, Note_on_c, 10, 63, 0
18, 153600, Note_on_c, 10, 62, 91
18, 154080, Note_on_c, 10, 62, 0
18, 154080, Note_on_c, 10, 57, 91
18, 155040, Note_on_c, 10, 57, 0
18, 155040, Note_on_c, 10, 59, 91
18, 155520, Note_on_c, 10, 59, 0
18, 155520, Note_on_c, 10, 60, 91
18, 156000, Note_on_c, 10, 60, 0
18, 156480, Note_on_c, 10, 43, 91
18, 156960, Note_on_c, 10, 43, 0
18, 156960, Note_on_c, 10, 68, 115
18, 157920, Note_on_c, 10, 68, 0
18, 157920, Note_on_c, 10, 67, 91
18, 158400, Note_on_c, 10, 67, 0
18, 158400, Note_on_c, 10, 65, 91
18, 159360, Note_on_c, 10, 65, 0
18, 159360, Note_on_c, 10, 63, 91
18, 159840, Note_on_c, 10, 63, 0
18, 160320, Note_on_c, 10, 62, 91
18, 160800, Note_on_c, 10, 62, 0
18, 160800, Note_on_c, 10, 63, 91
18, 161280, Note_on_c, 10, 63, 0
18, 161760, Note_on_c, 10, 63, 91
18, 162240, Note_on_c, 10, 63, 0
18, 162240, Note_on_c, 10, 65, 91
18, 162720, Note_on_c, 10, 65, 0
18, 163200, Note_on_c, 10, 62, 91
18, 163680, Note_on_c, 10, 62, 0
18, 163680, Note_on_c, 10, 63, 91
18, 164160, Note_on_c, 10, 63, 0
18, 164160, Note_on_c, 10, 63, 91
18, 164640, Note_on_c, 10, 63, 0
18, 164640, Note_on_c, 10, 65, 91
18, 165120, Note_on_c, 10, 65, 0
18, 165120, Note_on_c, 10, 56, 91
18, 165600, Note_on_c, 10, 56, 0
18, 165600, Note_on_c, 10, 55, 91
18, 166560, Note_on_c, 10, 55, 0
18, 166560, Note_on_c, 10, 59, 91
18, 167040, Note_on_c, 10, 59, 0
18, 167040, Note_on_c, 10, 60, 91
18, 168000, Note_on_c, 10, 60, 0
18, 168000, Note_on_c, 10, 56, 91
18, 168480, Note_on_c, 10, 56, 0
18, 168480, Note_on_c, 10, 55, 91
18, 169440, Note_on_c, 10, 55, 0
18, 169440, Note_on_c, 10, 47, 91
18, 169920, Note_on_c, 10, 47, 0
18, 169920, Note_on_c, 10, 48, 91
18, 170880, Note_on_c, 10, 48, 0
18, 170880, Note_on_c, 10, 56, 91
18, 171360, Note_on_c, 10, 56, 0
18, 171360, Note_on_c, 10, 55, 91
18, 172320, Note_on_c, 10, 55, 0
18, 172320, Note_on_c, 10, 59, 91
18, 172800, Note_on_c, 10, 59, 0
18, 172800, Note_on_c, 10, 60, 91
18, 173760, Note_on_c, 10, 60, 0
18, 173760, Note_on_c, 10, 56, 91
18, 174240, Note_on_c, 10, 56, 0
18, 174240, Note_on_c, 10, 55, 91
18, 175200, Note_on_c, 10, 55, 0
18, 175200, Note_on_c, 10, 47, 91
18, 175680, Note_on_c, 10, 47, 0
18, 175680, Note_on_c, 10, 48, 91
18, 176640, Note_on_c, 10, 48, 0
18, 176640, Note_on_c, 10, 56, 91
18, 177120, Note_on_c, 10, 56, 0
18, 177120, Note_on_c, 10, 55, 91
18, 178080, Note_on_c, 10, 55, 0
18, 178080, Note_on_c, 10, 59, 91
18, 178560, Note_on_c, 10, 59, 0
18, 178560, Note_on_c, 10, 60, 91
18, 179520, Note_on_c, 10, 60, 0
18, 179520, Note_on_c, 10, 58, 91
18, 180000, Note_on_c, 10, 58, 0
18, 180000, Note_on_c, 10, 56, 91
18, 180960, Note_on_c, 10, 56, 0
18, 180960, Note_on_c, 10, 53, 91
18, 181440, Note_on_c, 10, 53, 0
18, 181440, Note_on_c, 10, 55, 101
18, 182400, Note_on_c, 10, 55, 0
18, 182400, Note_on_c, 10, 53, 101
18, 182880, Note_on_c, 10, 53, 0
18, 182880, Note_on_c, 10, 51, 101
18, 183840, Note_on_c, 10, 51, 0
18, 183840, Note_on_c, 10, 50, 101
18, 184320, Note_on_c, 10, 50, 0
18, 184320, Note_on_c, 10, 48, 109
18, 185280, Note_on_c, 10, 48, 0
18, 185280, Note_on_c, 10, 46, 109
18, 185760, Note_on_c, 10, 46, 0
18, 185760, Note_on_c, 10, 44, 109
18, 186720, Note_on_c, 10, 44, 0
18, 186720, Note_on_c, 10, 43, 109
18, 187200, Note_on_c, 10, 43, 0
18, 187200, Note_on_c, 10, 41, 115
18, 188160, Note_on_c, 10, 41, 0
18, 188160, Note_on_c, 10, 42, 115
18, 188640, Note_on_c, 10, 42, 0
18, 188640, Note_on_c, 10, 43, 115
18, 189120, Note_on_c, 10, 43, 0
18, 189120, Note_on_c, 10, 55, 115
18, 189600, Note_on_c, 10, 55, 0
18, 189600, Note_on_c, 10, 55, 115
18, 190080, Note_on_c, 10, 55, 0
18, 190080, Note_on_c, 10, 48, 115
18, 190560, Note_on_c, 10, 48, 0
18, 191520, Note_on_c, 10, 47, 123
18, 192960, Note_on_c, 10, 47, 0
18, 192960, Note_on_c, 10, 48, 123
18, 194400, Note_on_c, 10, 48, 0
18, 194400, Note_on_c, 10, 50, 123
18, 195840, Note_on_c, 10, 50, 0
18, 195840, Note_on_c, 10, 39, 123
18, 197280, Note_on_c, 10, 39, 0
18, 197280, Note_on_c, 10, 40, 91
18, 197760, Note_on_c, 10, 40, 0
18, 197760, Note_on_c, 10, 40, 91
18, 198240, Note_on_c, 10, 40, 0
18, 198240, Note_on_c, 10, 40, 91
18, 198720, Note_on_c, 10, 40, 0
18, 198720, Note_on_c, 10, 41, 91
18, 199200, Note_on_c, 10, 41, 0
18, 200160, Note_on_c, 10, 43, 91
18, 200640, Note_on_c, 10, 43, 0
18, 201600, Note_on_c, 10, 48, 91
18, 202080, Note_on_c, 10, 48, 0
18, 202560, Note_on_c, 10, 48, 115
18, 203040, Note_on_c, 10, 48, 0
18, 203040, Note_on_c, 10, 47, 115
18, 203280, Note_on_c, 10, 47, 0
18, 203280, Note_on_c, 10, 48, 115
18, 203520, Note_on_c, 10, 48, 0
18, 203520, Note_on_c, 10, 50, 115
18, 203760, Note_on_c, 10, 50, 0
18, 203760, Note_on_c, 10, 43, 115
18, 204000, Note_on_c, 10, 43, 0
18, 204000, Note_on_c, 10, 45, 115
18, 204240, Note_on_c, 10, 45, 0
18, 204240, Note_on_c, 10, 47, 115
18, 204480, Note_on_c, 10, 47, 0
18, 204480, Note_on_c, 10, 48, 115
18, 204720, Note_on_c, 10, 48, 0
18, 204720, Note_on_c, 10, 47, 115
18, 204960, Note_on_c, 10, 47, 0
18, 204960, Note_on_c, 10, 48, 115
18, 205200, Note_on_c, 10, 48, 0
18, 205200, Note_on_c, 10, 50, 115
18, 205440, Note_on_c, 10, 50, 0
18, 205440, Note_on_c, 10, 52, 115
18, 205680, Note_on_c, 10, 52, 0
18, 205680, Note_on_c, 10, 53, 115
18, 205920, Note_on_c, 10, 53, 0
18, 205920, Note_on_c, 10, 55, 115
18, 206880, Note_on_c, 10, 55, 0
18, 206880, Note_on_c, 10, 53, 115
18, 207360, Note_on_c, 10, 53, 0
18, 207360, Note_on_c, 10, 52, 115
18, 207840, Note_on_c, 10, 52, 0
18, 207840, Note_on_c, 10, 48, 115
18, 208320, Note_on_c, 10, 48, 0
18, 208320, Note_on_c, 10, 57, 115
18, 208800, Note_on_c, 10, 57, 0
18, 208800, Note_on_c, 10, 53, 115
18, 209280, Note_on_c, 10, 53, 0
18, 209280, Note_on_c, 10, 50, 115
18, 209760, Note_on_c, 10, 50, 0
18, 209760, Note_on_c, 10, 59, 115
18, 210240, Note_on_c, 10, 59, 0
18, 210240, Note_on_c, 10, 55, 115
18, 210720, Note_on_c, 10, 55, 0
18, 210720, Note_on_c, 10, 52, 115
18, 211200, Note_on_c, 10, 52, 0
18, 211200, Note_on_c, 10, 60, 115
18, 211680, Note_on_c, 10, 60, 0
18, 211680, Note_on_c, 10, 57, 115
18, 212160, Note_on_c, 10, 57, 0
18, 212160, Note_on_c, 10, 62, 115
18, 212640, Note_on_c, 10, 62, 0
18, 212640, Note_on_c, 10, 60, 115
18, 213120, Note_on_c, 10, 60, 0
18, 213120, Note_on_c, 10, 59, 115
18, 213600, Note_on_c, 10, 59, 0
18, 213600, Note_on_c, 10, 55, 115
18, 214080, Note_on_c, 10, 55, 0
18, 214080, Note_on_c, 10, 52, 115
18, 214560, Note_on_c, 10, 52, 0
18, 214560, Note_on_c, 10, 54, 115
18, 215040, Note_on_c, 10, 54, 0
18, 215040, Note_on_c, 10, 50, 115
18, 215520, Note_on_c, 10, 50, 0
18, 215520, Note_on_c, 10, 54, 115
18, 216000, Note_on_c, 10, 54, 0
18, 216000, Note_on_c, 10, 55, 115
18, 216480, Note_on_c, 10, 55, 0
18, 216480, Note_on_c, 10, 52, 115
18, 216960, Note_on_c, 10, 52, 0
18, 216960, Note_on_c, 10, 56, 115
18, 217440, Note_on_c, 10, 56, 0
18, 217440, Note_on_c, 10, 57, 115
18, 217920, Note_on_c, 10, 57, 0
18, 217920, Note_on_c, 10, 53, 115
18, 218400, Note_on_c, 10, 53, 0
18, 218400, Note_on_c, 10, 57, 115
18, 218880, Note_on_c, 10, 57, 0
18, 218880, Note_on_c, 10, 59, 115
18, 219360, Note_on_c, 10, 59, 0
18, 219360, Note_on_c, 10, 55, 115
18, 219840, Note_on_c, 10, 55, 0
18, 219840, Note_on_c, 10, 64, 115
18, 220320, Note_on_c, 10, 64, 0
18, 220320, Note_on_c, 10, 65, 115
18, 220800, Note_on_c, 10, 65, 0
18, 220800, Note_on_c, 10, 55, 115
18, 221280, Note_on_c, 10, 55, 0
18, 221280, Note_on_c, 10, 65, 115
18, 221760, Note_on_c, 10, 65, 0
18, 221760, Note_on_c, 10, 64, 115
18, 222240, Note_on_c, 10, 64, 0
18, 222240, Note_on_c, 10, 60, 115
18, 222720, Note_on_c, 10, 60, 0
18, 222720, Note_on_c, 10, 59, 115
18, 223200, Note_on_c, 10, 59, 0
18, 223200, Note_on_c, 10, 57, 115
18, 223680, Note_on_c, 10, 57, 0
18, 223680, Note_on_c, 10, 50, 115
18, 224160, Note_on_c, 10, 50, 0
18, 224160, Note_on_c, 10, 60, 115
18, 224640, Note_on_c, 10, 60, 0
18, 224640, Note_on_c, 10, 59, 115
18, 225120, Note_on_c, 10, 59, 0
18, 225120, Note_on_c, 10, 55, 115
18, 225600, Note_on_c, 10, 55, 0
18, 225600, Note_on_c, 10, 52, 115
18, 226080, Note_on_c, 10, 52, 0
18, 226080, Note_on_c, 10, 50, 115
18, 226320, Note_on_c, 10, 50, 0
18, 226320, Note_on_c, 10, 49, 115
18, 226560, Note_on_c, 10, 49, 0
18, 226560, Note_on_c, 10, 50, 115
18, 226800, Note_on_c, 10, 50, 0
18, 226800, Note_on_c, 10, 48, 115
18, 227040, Note_on_c, 10, 48, 0
18, 227040, Note_on_c, 10, 47, 115
18, 227280, Note_on_c, 10, 47, 0
18, 227280, Note_on_c, 10, 45, 115
18, 227520, Note_on_c, 10, 45, 0
18, 227520, Note_on_c, 10, 43, 115
18, 227760, Note_on_c, 10, 43, 0
18, 227760, Note_on_c, 10, 47, 115
18, 228000, Note_on_c, 10, 47, 0
18, 228000, Note_on_c, 10, 50, 115
18, 228240, Note_on_c, 10, 50, 0
18, 228240, Note_on_c, 10, 48, 115
18, 228480, Note_on_c, 10, 48, 0
18, 228480, Note_on_c, 10, 47, 115
18, 228720, Note_on_c, 10, 47, 0
18, 228720, Note_on_c, 10, 45, 115
18, 228960, Note_on_c, 10, 45, 0
18, 228960, Note_on_c, 10, 43, 115
18, 229200, Note_on_c, 10, 43, 0
18, 229200, Note_on_c, 10, 47, 115
18, 229440, Note_on_c, 10, 47, 0
18, 229440, Note_on_c, 10, 50, 115
18, 229680, Note_on_c, 10, 50, 0
18, 229680, Note_on_c, 10, 48, 115
18, 229920, Note_on_c, 10, 48, 0
18, 229920, Note_on_c, 10, 47, 115
18, 230160, Note_on_c, 10, 47, 0
18, 230160, Note_on_c, 10, 45, 115
18, 230400, Note_on_c, 10, 45, 0
18, 230400, Note_on_c, 10, 43, 115
18, 230880, Note_on_c, 10, 43, 0
18, 231360, Note_on_c, 10, 48, 115
18, 231840, Note_on_c, 10, 48, 0
18, 231840, Note_on_c, 10, 47, 115
18, 232080, Note_on_c, 10, 47, 0
18, 232080, Note_on_c, 10, 48, 115
18, 232320, Note_on_c, 10, 48, 0
18, 232320, Note_on_c, 10, 50, 115
18, 232560, Note_on_c, 10, 50, 0
18, 232560, Note_on_c, 10, 43, 115
18, 232800, Note_on_c, 10, 43, 0
18, 232800, Note_on_c, 10, 45, 115
18, 233040, Note_on_c, 10, 45, 0
18, 233040, Note_on_c, 10, 47, 115
18, 233280, Note_on_c, 10, 47, 0
18, 233280, Note_on_c, 10, 48, 115
18, 233520, Note_on_c, 10, 48, 0
18, 233520, Note_on_c, 10, 47, 115
18, 233760, Note_on_c, 10, 47, 0
18, 233760, Note_on_c, 10, 48, 115
18, 234000, Note_on_c, 10, 48, 0
18, 234000, Note_on_c, 10, 50, 115
18, 234240, Note_on_c, 10, 50, 0
18, 234240, Note_on_c, 10, 52, 115
18, 234480, Note_on_c, 10, 52, 0
18, 234480, Note_on_c, 10, 53, 115
18, 234720, Note_on_c, 10, 53, 0
18, 234720, Note_on_c, 10, 55, 115
18, 235680, Note_on_c, 10, 55, 0
18, 235680, Note_on_c, 10, 53, 115
18, 236160, Note_on_c, 10, 53, 0
18, 236160, Note_on_c, 10, 52, 115
18, 236640, Note_on_c, 10, 52, 0
18, 236640, Note_on_c, 10, 48, 115
18, 237120, Note_on_c, 10, 48, 0
18, 237120, Note_on_c, 10, 57, 115
18, 237600, Note_on_c, 10, 57, 0
18, 237600, Note_on_c, 10, 53, 115
18, 238080, Note_on_c, 10, 53, 0
18, 238080, Note_on_c, 10, 50, 115
18, 238560, Note_on_c, 10, 50, 0
18, 238560, Note_on_c, 10, 59, 115
18, 239040, Note_on_c, 10, 59, 0
18, 239040, Note_on_c, 10, 55, 115
18, 239520, Note_on_c, 10, 55, 0
18, 239520, Note_on_c, 10, 52, 115
18, 240000, Note_on_c, 10, 52, 0
18, 240000, Note_on_c, 10, 60, 115
18, 240480, Note_on_c, 10, 60, 0
18, 240480, Note_on_c, 10, 57, 115
18, 240960, Note_on_c, 10, 57, 0
18, 240960, Note_on_c, 10, 62, 115
18, 241440, Note_on_c, 10, 62, 0
18, 241440, Note_on_c, 10, 60, 115
18, 241920, Note_on_c, 10, 60, 0
18, 241920, Note_on_c, 10, 59, 115
18, 242400, Note_on_c, 10, 59, 0
18, 242400, Note_on_c, 10, 55, 115
18, 242880, Note_on_c, 10, 55, 0
18, 242880, Note_on_c, 10, 52, 115
18, 243360, Note_on_c, 10, 52, 0
18, 243360, Note_on_c, 10, 54, 115
18, 243840, Note_on_c, 10, 54, 0
18, 243840, Note_on_c, 10, 50, 115
18, 244320, Note_on_c, 10, 50, 0
18, 244320, Note_on_c, 10, 54, 115
18, 244800, Note_on_c, 10, 54, 0
18, 244800, Note_on_c, 10, 55, 115
18, 245280, Note_on_c, 10, 55, 0
18, 245280, Note_on_c, 10, 52, 115
18, 245760, Note_on_c, 10, 52, 0
18, 245760, Note_on_c, 10, 56, 115
18, 246240, Note_on_c, 10, 56, 0
18, 246240, Note_on_c, 10, 57, 115
18, 246720, Note_on_c, 10, 57, 0
18, 246720, Note_on_c, 10, 53, 115
18, 247200, Note_on_c, 10, 53, 0
18, 247200, Note_on_c, 10, 57, 115
18, 247680, Note_on_c, 10, 57, 0
18, 247680, Note_on_c, 10, 59, 115
18, 248160, Note_on_c, 10, 59, 0
18, 248160, Note_on_c, 10, 55, 115
18, 248640, Note_on_c, 10, 55, 0
18, 248640, Note_on_c, 10, 64, 115
18, 249120, Note_on_c, 10, 64, 0
18, 249120, Note_on_c, 10, 65, 115
18, 249600, Note_on_c, 10, 65, 0
18, 249600, Note_on_c, 10, 55, 115
18, 250080, Note_on_c, 10, 55, 0
18, 250080, Note_on_c, 10, 65, 115
18, 250560, Note_on_c, 10, 65, 0
18, 250560, Note_on_c, 10, 64, 115
18, 251040, Note_on_c, 10, 64, 0
18, 251040, Note_on_c, 10, 60, 115
18, 251520, Note_on_c, 10, 60, 0
18, 251520, Note_on_c, 10, 59, 115
18, 252000, Note_on_c, 10, 59, 0
18, 252000, Note_on_c, 10, 57, 115
18, 252480, Note_on_c, 10, 57, 0
18, 252480, Note_on_c, 10, 50, 115
18, 252960, Note_on_c, 10, 50, 0
18, 252960, Note_on_c, 10, 60, 115
18, 253440, Note_on_c, 10, 60, 0
18, 253440, Note_on_c, 10, 59, 115
18, 253920, Note_on_c, 10, 59, 0
18, 253920, Note_on_c, 10, 55, 115
18, 254400, Note_on_c, 10, 55, 0
18, 254400, Note_on_c, 10, 52, 115
18, 254880, Note_on_c, 10, 52, 0
18, 254880, Note_on_c, 10, 50, 115
18, 255120, Note_on_c, 10, 50, 0
18, 255120, Note_on_c, 10, 49, 115
18, 255360, Note_on_c, 10, 49, 0
18, 255360, Note_on_c, 10, 50, 115
18, 255600, Note_on_c, 10, 50, 0
18, 255600, Note_on_c, 10, 48, 115
18, 255840, Note_on_c, 10, 48, 0
18, 255840, Note_on_c, 10, 47, 115
18, 256080, Note_on_c, 10, 47, 0
18, 256080, Note_on_c, 10, 45, 115
18, 256320, Note_on_c, 10, 45, 0
18, 256320, Note_on_c, 10, 43, 115
18, 256560, Note_on_c, 10, 43, 0
18, 256560, Note_on_c, 10, 47, 115
18, 256800, Note_on_c, 10, 47, 0
18, 256800, Note_on_c, 10, 50, 115
18, 257040, Note_on_c, 10, 50, 0
18, 257040, Note_on_c, 10, 48, 115
18, 257280, Note_on_c, 10, 48, 0
18, 257280, Note_on_c, 10, 47, 115
18, 257520, Note_on_c, 10, 47, 0
18, 257520, Note_on_c, 10, 45, 115
18, 257760, Note_on_c, 10, 45, 0
18, 257760, Note_on_c, 10, 43, 115
18, 258000, Note_on_c, 10, 43, 0
18, 258000, Note_on_c, 10, 47, 115
18, 258240, Note_on_c, 10, 47, 0
18, 258240, Note_on_c, 10, 50, 115
18, 258480, Note_on_c, 10, 50, 0
18, 258480, Note_on_c, 10, 48, 115
18, 258720, Note_on_c, 10, 48, 0
18, 258720, Note_on_c, 10, 47, 115
18, 258960, Note_on_c, 10, 47, 0
18, 258960, Note_on_c, 10, 45, 115
18, 259200, Note_on_c, 10, 45, 0
18, 259200, Note_on_c, 10, 43, 115
18, 259680, Note_on_c, 10, 43, 0
18, 261600, Note_on_c, 10, 55, 115
18, 262080, Note_on_c, 10, 55, 0
18, 262080, Note_on_c, 10, 53, 115
18, 262320, Note_on_c, 10, 53, 0
18, 262320, Note_on_c, 10, 55, 115
18, 262560, Note_on_c, 10, 55, 0
18, 262560, Note_on_c, 10, 57, 115
18, 262800, Note_on_c, 10, 57, 0
18, 262800, Note_on_c, 10, 50, 115
18, 263040, Note_on_c, 10, 50, 0
18, 263040, Note_on_c, 10, 52, 115
18, 263280, Note_on_c, 10, 52, 0
18, 263280, Note_on_c, 10, 53, 115
18, 263520, Note_on_c, 10, 53, 0
18, 264480, Note_on_c, 10, 55, 115
18, 264960, Note_on_c, 10, 55, 0
18, 264960, Note_on_c, 10, 53, 115
18, 265200, Note_on_c, 10, 53, 0
18, 265200, Note_on_c, 10, 55, 115
18, 265440, Note_on_c, 10, 55, 0
18, 265440, Note_on_c, 10, 57, 115
18, 265680, Note_on_c, 10, 57, 0
18, 265680, Note_on_c, 10, 50, 115
18, 265920, Note_on_c, 10, 50, 0
18, 265920, Note_on_c, 10, 52, 115
18, 266160, Note_on_c, 10, 52, 0
18, 266160, Note_on_c, 10, 53, 115
18, 266400, Note_on_c, 10, 53, 0
18, 267360, Note_on_c, 10, 55, 115
18, 267840, Note_on_c, 10, 55, 0
18, 267840, Note_on_c, 10, 53, 115
18, 268080, Note_on_c, 10, 53, 0
18, 268080, Note_on_c, 10, 55, 115
18, 268320, Note_on_c, 10, 55, 0
18, 268320, Note_on_c, 10, 57, 115
18, 268560, Note_on_c, 10, 57, 0
18, 268560, Note_on_c, 10, 50, 115
18, 268800, Note_on_c, 10, 50, 0
18, 268800, Note_on_c, 10, 52, 115
18, 269040, Note_on_c, 10, 52, 0
18, 269040, Note_on_c, 10, 53, 115
18, 269280, Note_on_c, 10, 53, 0
18, 269280, Note_on_c, 10, 47, 115
18, 269520, Note_on_c, 10, 47, 0
18, 269520, Note_on_c, 10, 48, 115
18, 269760, Note_on_c, 10, 48, 0
18, 269760, Note_on_c, 10, 50, 115
18, 270000, Note_on_c, 10, 50, 0
18, 270000, Note_on_c, 10, 43, 115
18, 270240, Note_on_c, 10, 43, 0
18, 270240, Note_on_c, 10, 45, 115
18, 270480, Note_on_c, 10, 45, 0
18, 270480, Note_on_c, 10, 47, 115
18, 270720, Note_on_c, 10, 47, 0
18, 270720, Note_on_c, 10, 45, 115
18, 270960, Note_on_c, 10, 45, 0
18, 270960, Note_on_c, 10, 47, 115
18, 271200, Note_on_c, 10, 47, 0
18, 271200, Note_on_c, 10, 48, 115
18, 271440, Note_on_c, 10, 48, 0
18, 271440, Note_on_c, 10, 47, 115
18, 271680, Note_on_c, 10, 47, 0
18, 271680, Note_on_c, 10, 48, 115
18, 271920, Note_on_c, 10, 48, 0
18, 271920, Note_on_c, 10, 50, 115
18, 272160, Note_on_c, 10, 50, 0
18, 272160, Note_on_c, 10, 48, 115
18, 272400, Note_on_c, 10, 48, 0
18, 272400, Note_on_c, 10, 50, 115
18, 272640, Note_on_c, 10, 50, 0
18, 272640, Note_on_c, 10, 52, 115
18, 272880, Note_on_c, 10, 52, 0
18, 272880, Note_on_c, 10, 50, 115
18, 273120, Note_on_c, 10, 50, 0
18, 273120, Note_on_c, 10, 52, 115
18, 273360, Note_on_c, 10, 52, 0
18, 273360, Note_on_c, 10, 53, 115
18, 273600, Note_on_c, 10, 53, 0
18, 273600, Note_on_c, 10, 55, 115
18, 274560, Note_on_c, 10, 55, 0
18, 274560, Note_on_c, 10, 53, 115
18, 275040, Note_on_c, 10, 53, 0
18, 275040, Note_on_c, 10, 52, 115
18, 275520, Note_on_c, 10, 52, 0
18, 275520, Note_on_c, 10, 48, 115
18, 276000, Note_on_c, 10, 48, 0
18, 276000, Note_on_c, 10, 47, 115
18, 276480, Note_on_c, 10, 47, 0
18, 276480, Note_on_c, 10, 45, 115
18, 276960, Note_on_c, 10, 45, 0
18, 276960, Note_on_c, 10, 47, 115
18, 277440, Note_on_c, 10, 47, 0
18, 277440, Note_on_c, 10, 43, 115
18, 277920, Note_on_c, 10, 43, 0
18, 277920, Note_on_c, 10, 48, 115
18, 278400, Note_on_c, 10, 48, 0
18, 278400, Note_on_c, 10, 52, 115
18, 278880, Note_on_c, 10, 52, 0
18, 278880, Note_on_c, 10, 53, 115
18, 279360, Note_on_c, 10, 53, 0
18, 279360, Note_on_c, 10, 52, 115
18, 279600, Note_on_c, 10, 52, 0
18, 279600, Note_on_c, 10, 53, 115
18, 279840, Note_on_c, 10, 53, 0
18, 279840, Note_on_c, 10, 55, 115
18, 280080, Note_on_c, 10, 55, 0
18, 280080, Note_on_c, 10, 48, 115
18, 280320, Note_on_c, 10, 48, 0
18, 280320, Note_on_c, 10, 50, 115
18, 280560, Note_on_c, 10, 50, 0
18, 280560, Note_on_c, 10, 52, 115
18, 280800, Note_on_c, 10, 52, 0
18, 280800, Note_on_c, 10, 53, 115
18, 281040, Note_on_c, 10, 53, 0
18, 281040, Note_on_c, 10, 52, 115
18, 281280, Note_on_c, 10, 52, 0
18, 281280, Note_on_c, 10, 53, 115
18, 281520, Note_on_c, 10, 53, 0
18, 281520, Note_on_c, 10, 55, 115
18, 281760, Note_on_c, 10, 55, 0
18, 281760, Note_on_c, 10, 57, 115
18, 282000, Note_on_c, 10, 57, 0
18, 282000, Note_on_c, 10, 58, 115
18, 282240, Note_on_c, 10, 58, 0
18, 282240, Note_on_c, 10, 60, 115
18, 283200, Note_on_c, 10, 60, 0
18, 283200, Note_on_c, 10, 58, 115
18, 283680, Note_on_c, 10, 58, 0
18, 283680, Note_on_c, 10, 57, 115
18, 284160, Note_on_c, 10, 57, 0
18, 284160, Note_on_c, 10, 53, 115
18, 284640, Note_on_c, 10, 53, 0
18, 285120, Note_on_c, 10, 55, 115
18, 286560, Note_on_c, 10, 55, 0
18, 286560, Note_on_c, 10, 48, 115
18, 288000, Note_on_c, 10, 48, 0
18, 288000, Note_on_c, 10, 60, 115
18, 289440, Note_on_c, 10, 60, 0
18, 289440, Note_on_c, 10, 53, 115
18, 290400, Note_on_c, 10, 53, 0
18, 290400, Note_on_c, 10, 53, 115
18, 290880, Note_on_c, 10, 53, 0
18, 290880, Note_on_c, 10, 55, 115
18, 291360, Note_on_c, 10, 55, 0
18, 291360, Note_on_c, 10, 43, 115
18, 291840, Note_on_c, 10, 43, 0
18, 291840, Note_on_c, 10, 55, 115
18, 292800, Note_on_c, 10, 55, 0
18, 292800, Note_on_c, 10, 43, 115
18, 293280, Note_on_c, 10, 43, 0
18, 293280, Note_on_c, 10, 55, 115
18, 294240, Note_on_c, 10, 55, 0
18, 294240, Note_on_c, 10, 43, 115
18, 294720, Note_on_c, 10, 43, 0
18, 294720, Note_on_c, 10, 55, 115
18, 295680, Note_on_c, 10, 55, 0
18, 295680, Note_on_c, 10, 43, 115
18, 296160, Note_on_c, 10, 43, 0
18, 296160, Note_on_c, 10, 55, 115
18, 297120, Note_on_c, 10, 55, 0
18, 297120, Note_on_c, 10, 43, 115
18, 297600, Note_on_c, 10, 43, 0
18, 297600, Note_on_c, 10, 55, 115
18, 298560, Note_on_c, 10, 55, 0
18, 298560, Note_on_c, 10, 43, 115
18, 299040, Note_on_c, 10, 43, 0
18, 299040, Note_on_c, 10, 55, 115
18, 299520, Note_on_c, 10, 55, 0
18, 299520, Note_on_c, 10, 55, 115
18, 299760, Note_on_c, 10, 55, 0
18, 299760, Note_on_c, 10, 55, 115
18, 300000, Note_on_c, 10, 55, 0
18, 300000, Note_on_c, 10, 59, 115
18, 300240, Note_on_c, 10, 59, 0
18, 300240, Note_on_c, 10, 59, 115
18, 300480, Note_on_c, 10, 59, 0
18, 300480, Note_on_c, 10, 62, 115
18, 300720, Note_on_c, 10, 62, 0
18, 300720, Note_on_c, 10, 62, 115
18, 300960, Note_on_c, 10, 62, 0
18, 300960, Note_on_c, 10, 60, 115
18, 301200, Note_on_c, 10, 60, 0
18, 301200, Note_on_c, 10, 56, 115
18, 301440, Note_on_c, 10, 56, 0
18, 301440, Note_on_c, 10, 57, 115
18, 301680, Note_on_c, 10, 57, 0
18, 301680, Note_on_c, 10, 57, 115
18, 301920, Note_on_c, 10, 57, 0
18, 301920, Note_on_c, 10, 57, 115
18, 302160, Note_on_c, 10, 57, 0
18, 302160, Note_on_c, 10, 57, 115
18, 302400, Note_on_c, 10, 57, 0
18, 302400, Note_on_c, 10, 59, 115
18, 302640, Note_on_c, 10, 59, 0
18, 302640, Note_on_c, 10, 54, 115
18, 302880, Note_on_c, 10, 54, 0
18, 302880, Note_on_c, 10, 55, 115
18, 303120, Note_on_c, 10, 55, 0
18, 303120, Note_on_c, 10, 55, 115
18, 303360, Note_on_c, 10, 55, 0
18, 303360, Note_on_c, 10, 55, 115
18, 303600, Note_on_c, 10, 55, 0
18, 303600, Note_on_c, 10, 55, 115
18, 303840, Note_on_c, 10, 55, 0
18, 303840, Note_on_c, 10, 57, 115
18, 304080, Note_on_c, 10, 57, 0
18, 304080, Note_on_c, 10, 52, 115
18, 304320, Note_on_c, 10, 52, 0
18, 304320, Note_on_c, 10, 53, 115
18, 304560, Note_on_c, 10, 53, 0
18, 304560, Note_on_c, 10, 53, 115
18, 304800, Note_on_c, 10, 53, 0
18, 304800, Note_on_c, 10, 53, 115
18, 305040, Note_on_c, 10, 53, 0
18, 305040, Note_on_c, 10, 53, 115
18, 305280, Note_on_c, 10, 53, 0
18, 305280, Note_on_c, 10, 55, 115
18, 305760, Note_on_c, 10, 55, 0
18, 305760, Note_on_c, 10, 43, 115
18, 306240, Note_on_c, 10, 43, 0
18, 306240, Note_on_c, 10, 43, 115
18, 306720, Note_on_c, 10, 43, 0
18, 306720, Note_on_c, 10, 43, 115
18, 306960, Note_on_c, 10, 43, 0
18, 306960, Note_on_c, 10, 43, 115
18, 307200, Note_on_c, 10, 43, 0
18, 307200, Note_on_c, 10, 41, 115
18, 307440, Note_on_c, 10, 41, 0
18, 307440, Note_on_c, 10, 41, 115
18, 307680, Note_on_c, 10, 41, 0
18, 307680, Note_on_c, 10, 38, 115
18, 307920, Note_on_c, 10, 38, 0
18, 307920, Note_on_c, 10, 38, 115
18, 308160, Note_on_c, 10, 38, 0
18, 308160, Note_on_c, 10, 36, 115
18, 308400, Note_on_c, 10, 36, 0
18, 308400, Note_on_c, 10, 40, 115
18, 308640, Note_on_c, 10, 40, 0
18, 308640, Note_on_c, 10, 43, 115
18, 308880, Note_on_c, 10, 43, 0
18, 308880, Note_on_c, 10, 41, 115
18, 309120, Note_on_c, 10, 41, 0
18, 309120, Note_on_c, 10, 40, 115
18, 309360, Note_on_c, 10, 40, 0
18, 309360, Note_on_c, 10, 38, 115
18, 309600, Note_on_c, 10, 38, 0
18, 309600, Note_on_c, 10, 36, 115
18, 309840, Note_on_c, 10, 36, 0
18, 309840, Note_on_c, 10, 40, 115
18, 310080, Note_on_c, 10, 40, 0
18, 310080, Note_on_c, 10, 43, 115
18, 310320, Note_on_c, 10, 43, 0
18, 310320, Note_on_c, 10, 41, 115
18, 310560, Note_on_c, 10, 41, 0
18, 310560, Note_on_c, 10, 40, 115
18, 310800, Note_on_c, 10, 40, 0
18, 310800, Note_on_c, 10, 38, 115
18, 311040, Note_on_c, 10, 38, 0
18, 311040, Note_on_c, 10, 36, 115
18, 311520, Note_on_c, 10, 36, 0
18, 313440, Note_on_c, 10, 55, 115
18, 313920, Note_on_c, 10, 55, 0
18, 313920, Note_on_c, 10, 53, 115
18, 314160, Note_on_c, 10, 53, 0
18, 314160, Note_on_c, 10, 55, 115
18, 314400, Note_on_c, 10, 55, 0
18, 314400, Note_on_c, 10, 57, 115
18, 314640, Note_on_c, 10, 57, 0
18, 314640, Note_on_c, 10, 50, 115
18, 314880, Note_on_c, 10, 50, 0
18, 314880, Note_on_c, 10, 52, 115
18, 315120, Note_on_c, 10, 52, 0
18, 315120, Note_on_c, 10, 53, 115
18, 315360, Note_on_c, 10, 53, 0
18, 316320, Note_on_c, 10, 55, 115
18, 316800, Note_on_c, 10, 55, 0
18, 316800, Note_on_c, 10, 53, 115
18, 317040, Note_on_c, 10, 53, 0
18, 317040, Note_on_c, 10, 55, 115
18, 317280, Note_on_c, 10, 55, 0
18, 317280, Note_on_c, 10, 57, 115
18, 317520, Note_on_c, 10, 57, 0
18, 317520, Note_on_c, 10, 50, 115
18, 317760, Note_on_c, 10, 50, 0
18, 317760, Note_on_c, 10, 52, 115
18, 318000, Note_on_c, 10, 52, 0
18, 318000, Note_on_c, 10, 53, 115
18, 318240, Note_on_c, 10, 53, 0
18, 319200, Note_on_c, 10, 55, 91
18, 319680, Note_on_c, 10, 55, 0
18, 319680, Note_on_c, 10, 53, 91
18, 319920, Note_on_c, 10, 53, 0
18, 319920, Note_on_c, 10, 55, 91
18, 320160, Note_on_c, 10, 55, 0
18, 320160, Note_on_c, 10, 57, 91
18, 320400, Note_on_c, 10, 57, 0
18, 320400, Note_on_c, 10, 50, 91
18, 320640, Note_on_c, 10, 50, 0
18, 320640, Note_on_c, 10, 52, 91
18, 320880, Note_on_c, 10, 52, 0
18, 320880, Note_on_c, 10, 53, 91
18, 321120, Note_on_c, 10, 53, 0
18, 321120, Note_on_c, 10, 47, 91
18, 321360, Note_on_c, 10, 47, 0
18, 321360, Note_on_c, 10, 48, 91
18, 321600, Note_on_c, 10, 48, 0
18, 321600, Note_on_c, 10, 50, 91
18, 321840, Note_on_c, 10, 50, 0
18, 321840, Note_on_c, 10, 43, 91
18, 322080, Note_on_c, 10, 43, 0
18, 322080, Note_on_c, 10, 45, 91
18, 322320, Note_on_c, 10, 45, 0
18, 322320, Note_on_c, 10, 47, 91
18, 322560, Note_on_c, 10, 47, 0
18, 322560, Note_on_c, 10, 45, 91
18, 322800, Note_on_c, 10, 45, 0
18, 322800, Note_on_c, 10, 47, 91
18, 323040, Note_on_c, 10, 47, 0
18, 323040, Note_on_c, 10, 48, 91
18, 323280, Note_on_c, 10, 48, 0
18, 323280, Note_on_c, 10, 47, 91
18, 323520, Note_on_c, 10, 47, 0
18, 323520, Note_on_c, 10, 48, 91
18, 323760, Note_on_c, 10, 48, 0
18, 323760, Note_on_c, 10, 50, 91
18, 324000, Note_on_c, 10, 50, 0
18, 324000, Note_on_c, 10, 48, 91
18, 324240, Note_on_c, 10, 48, 0
18, 324240, Note_on_c, 10, 50, 91
18, 324480, Note_on_c, 10, 50, 0
18, 324480, Note_on_c, 10, 52, 91
18, 324720, Note_on_c, 10, 52, 0
18, 324720, Note_on_c, 10, 50, 91
18, 324960, Note_on_c, 10, 50, 0
18, 324960, Note_on_c, 10, 52, 91
18, 325200, Note_on_c, 10, 52, 0
18, 325200, Note_on_c, 10, 53, 91
18, 325440, Note_on_c, 10, 53, 0
18, 325440, Note_on_c, 10, 55, 91
18, 326400, Note_on_c, 10, 55, 0
18, 326400, Note_on_c, 10, 53, 91
18, 326880, Note_on_c, 10, 53, 0
18, 326880, Note_on_c, 10, 52, 91
18, 327360, Note_on_c, 10, 52, 0
18, 327360, Note_on_c, 10, 48, 91
18, 327840, Note_on_c, 10, 48, 0
18, 327840, Note_on_c, 10, 47, 91
18, 328320, Note_on_c, 10, 47, 0
18, 328320, Note_on_c, 10, 45, 91
18, 328800, Note_on_c, 10, 45, 0
18, 328800, Note_on_c, 10, 47, 91
18, 329280, Note_on_c, 10, 47, 0
18, 329280, Note_on_c, 10, 43, 91
18, 329760, Note_on_c, 10, 43, 0
18, 329760, Note_on_c, 10, 48, 91
18, 330240, Note_on_c, 10, 48, 0
18, 330240, Note_on_c, 10, 52, 91
18, 330720, Note_on_c, 10, 52, 0
18, 330720, Note_on_c, 10, 53, 91
18, 331200, Note_on_c, 10, 53, 0
18, 331200, Note_on_c, 10, 52, 91
18, 331440, Note_on_c, 10, 52, 0
18, 331440, Note_on_c, 10, 53, 91
18, 331680, Note_on_c, 10, 53, 0
18, 331680, Note_on_c, 10, 55, 91
18, 331920, Note_on_c, 10, 55, 0
18, 331920, Note_on_c, 10, 48, 91
18, 332160, Note_on_c, 10, 48, 0
18, 332160, Note_on_c, 10, 50, 91
18, 332400, Note_on_c, 10, 50, 0
18, 332400, Note_on_c, 10, 52, 91
18, 332640, Note_on_c, 10, 52, 0
18, 332640, Note_on_c, 10, 53, 91
18, 332880, Note_on_c, 10, 53, 0
18, 332880, Note_on_c, 10, 52, 91
18, 333120, Note_on_c, 10, 52, 0
18, 333120, Note_on_c, 10, 53, 91
18, 333360, Note_on_c, 10, 53, 0
18, 333360, Note_on_c, 10, 55, 91
18, 333600, Note_on_c, 10, 55, 0
18, 333600, Note_on_c, 10, 57, 91
18, 333840, Note_on_c, 10, 57, 0
18, 333840, Note_on_c, 10, 58, 91
18, 334080, Note_on_c, 10, 58, 0
18, 334080, Note_on_c, 10, 60, 91
18, 335040, Note_on_c, 10, 60, 0
18, 335040, Note_on_c, 10, 58, 91
18, 335520, Note_on_c, 10, 58, 0
18, 335520, Note_on_c, 10, 57, 91
18, 336000, Note_on_c, 10, 57, 0
18, 336000, Note_on_c, 10, 53, 91
18, 336480, Note_on_c, 10, 53, 0
18, 336960, Note_on_c, 10, 55, 91
18, 337440, Note_on_c, 10, 55, 0
18, 338400, Note_on_c, 10, 48, 91
18, 338880, Note_on_c, 10, 48, 0
18, 339840, Note_on_c, 10, 48, 91
18, 340320, Note_on_c, 10, 48, 0
18, 341280, Note_on_c, 10, 41, 91
18, 341760, Note_on_c, 10, 41, 0
18, 342720, Note_on_c, 10, 43, 91
18, 343200, Note_on_c, 10, 43, 0
18, 361440, Note_on_c, 10, 54, 91
18, 361920, Note_on_c, 10, 54, 0
18, 362880, Note_on_c, 10, 53, 91
18, 363360, Note_on_c, 10, 53, 0
18, 364320, Note_on_c, 10, 51, 91
18, 364800, Note_on_c, 10, 51, 0
18, 365760, Note_on_c, 10, 50, 91
18, 366240, Note_on_c, 10, 50, 0
18, 366720, Note_on_c, 10, 56, 91
18, 367200, Note_on_c, 10, 56, 0
18, 367200, Note_on_c, 10, 55, 91
18, 367680, Note_on_c, 10, 55, 0
18, 368160, Note_on_c, 10, 43, 78
18, 368640, Note_on_c, 10, 43, 0
18, 368640, Note_on_c, 10, 48, 78
18, 370560, Note_on_c, 10, 48, 0
18, 370560, Note_on_c, 10, 51, 78
18, 371040, Note_on_c, 10, 51, 0
18, 371040, Note_on_c, 10, 55, 78
18, 371520, Note_on_c, 10, 55, 0
18, 371520, Note_on_c, 10, 60, 78
18, 372000, Note_on_c, 10, 60, 0
18, 372480, Note_on_c, 10, 63, 78
18, 372960, Note_on_c, 10, 63, 0
18, 372960, Note_on_c, 10, 62, 78
18, 373440, Note_on_c, 10, 62, 0
18, 373920, Note_on_c, 10, 54, 78
18, 374400, Note_on_c, 10, 54, 0
18, 374400, Note_on_c, 10, 55, 78
18, 377280, Note_on_c, 10, 55, 0
18, 377280, Note_on_c, 10, 48, 78
18, 380160, Note_on_c, 10, 48, 0
18, 380160, Note_on_c, 10, 43, 78
18, 381120, Note_on_c, 10, 43, 0
18, 381120, Note_on_c, 10, 43, 91
18, 381600, Note_on_c, 10, 43, 0
18, 381600, Note_on_c, 10, 48, 91
18, 382080, Note_on_c, 10, 48, 0
18, 382080, Note_on_c, 10, 51, 91
18, 382560, Note_on_c, 10, 51, 0
18, 382560, Note_on_c, 10, 55, 91
18, 383040, Note_on_c, 10, 55, 0
18, 383040, Note_on_c, 10, 60, 91
18, 383520, Note_on_c, 10, 60, 0
18, 384000, Note_on_c, 10, 63, 91
18, 384480, Note_on_c, 10, 63, 0
18, 384480, Note_on_c, 10, 62, 91
18, 384960, Note_on_c, 10, 62, 0
18, 385440, Note_on_c, 10, 54, 91
18, 385920, Note_on_c, 10, 54, 0
18, 385920, Note_on_c, 10, 55, 91
18, 386400, Note_on_c, 10, 55, 0
18, 386880, Note_on_c, 10, 49, 91
18, 387360, Note_on_c, 10, 49, 0
18, 387360, Note_on_c, 10, 50, 91
18, 387840, Note_on_c, 10, 50, 0
18, 388320, Note_on_c, 10, 49, 91
18, 388800, Note_on_c, 10, 49, 0
18, 388800, Note_on_c, 10, 50, 91
18, 389280, Note_on_c, 10, 50, 0
18, 389760, Note_on_c, 10, 48, 91
18, 390240, Note_on_c, 10, 48, 0
18, 390240, Note_on_c, 10, 47, 91
18, 390720, Note_on_c, 10, 47, 0
18, 391200, Note_on_c, 10, 43, 91
18, 391680, Note_on_c, 10, 43, 0
18, 391680, Note_on_c, 10, 48, 91
18, 392160, Note_on_c, 10, 48, 0
18, 392640, Note_on_c, 10, 47, 91
18, 393120, Note_on_c, 10, 47, 0
18, 393120, Note_on_c, 10, 48, 91
18, 393600, Note_on_c, 10, 48, 0
18, 394080, Note_on_c, 10, 42, 91
18, 394560, Note_on_c, 10, 42, 0
18, 394560, Note_on_c, 10, 43, 91
18, 395040, Note_on_c, 10, 43, 0
18, 396000, Note_on_c, 10, 59, 78
18, 396480, Note_on_c, 10, 59, 0
18, 397440, Note_on_c, 10, 60, 78
18, 397920, Note_on_c, 10, 60, 0
18, 398880, Note_on_c, 10, 62, 78
18, 399360, Note_on_c, 10, 62, 0
18, 400320, Note_on_c, 10, 63, 78
18, 400800, Note_on_c, 10, 63, 0
18, 401760, Note_on_c, 10, 47, 78
18, 402240, Note_on_c, 10, 47, 0
18, 403200, Note_on_c, 10, 48, 78
18, 403680, Note_on_c, 10, 48, 0
18, 404160, Note_on_c, 10, 46, 78
18, 404640, Note_on_c, 10, 46, 0
18, 404640, Note_on_c, 10, 44, 78
18, 405120, Note_on_c, 10, 44, 0
18, 405600, Note_on_c, 10, 44, 78
18, 406080, Note_on_c, 10, 44, 0
18, 406080, Note_on_c, 10, 46, 78
18, 406560, Note_on_c, 10, 46, 0
18, 407520, Note_on_c, 10, 60, 78
18, 408000, Note_on_c, 10, 60, 0
18, 408960, Note_on_c, 10, 65, 78
18, 409440, Note_on_c, 10, 65, 0
18, 410400, Note_on_c, 10, 67, 78
18, 410880, Note_on_c, 10, 67, 0
18, 411840, Note_on_c, 10, 68, 78
18, 412320, Note_on_c, 10, 68, 0
18, 413280, Note_on_c, 10, 52, 78
18, 413760, Note_on_c, 10, 52, 0
18, 414720, Note_on_c, 10, 53, 78
18, 415200, Note_on_c, 10, 53, 0
18, 416160, Note_on_c, 10, 49, 78
18, 416640, Note_on_c, 10, 49, 0
18, 417120, Note_on_c, 10, 49, 78
18, 417600, Note_on_c, 10, 49, 0
18, 417600, Note_on_c, 10, 51, 78
18, 418080, Note_on_c, 10, 51, 0
18, 419040, Note_on_c, 10, 44, 78
18, 419520, Note_on_c, 10, 44, 0
18, 420480, Note_on_c, 10, 49, 78
18, 420960, Note_on_c, 10, 49, 0
18, 421440, Note_on_c, 10, 48, 78
18, 421920, Note_on_c, 10, 48, 0
18, 421920, Note_on_c, 10, 46, 78
18, 422400, Note_on_c, 10, 46, 0
18, 422880, Note_on_c, 10, 46, 78
18, 423360, Note_on_c, 10, 46, 0
18, 423360, Note_on_c, 10, 48, 78
18, 423840, Note_on_c, 10, 48, 0
18, 425760, Note_on_c, 10, 41, 78
18, 426240, Note_on_c, 10, 41, 0
18, 426240, Note_on_c, 10, 48, 78
18, 426720, Note_on_c, 10, 48, 0
18, 428640, Note_on_c, 10, 41, 78
18, 429120, Note_on_c, 10, 41, 0
18, 429120, Note_on_c, 10, 48, 78
18, 429600, Note_on_c, 10, 48, 0
18, 430080, Note_on_c, 10, 41, 78
18, 430560, Note_on_c, 10, 41, 0
18, 430560, Note_on_c, 10, 48, 78
18, 431040, Note_on_c, 10, 48, 0
18, 431520, Note_on_c, 10, 41, 78
18, 432000, Note_on_c, 10, 41, 0
18, 432000, Note_on_c, 10, 48, 78
18, 432480, Note_on_c, 10, 48, 0
18, 432960, Note_on_c, 10, 43, 78
18, 433440, Note_on_c, 10, 43, 0
18, 433440, Note_on_c, 10, 48, 78
18, 433920, Note_on_c, 10, 48, 0
18, 433920, Note_on_c, 10, 51, 78
18, 434400, Note_on_c, 10, 51, 0
18, 434400, Note_on_c, 10, 55, 78
18, 434880, Note_on_c, 10, 55, 0
18, 434880, Note_on_c, 10, 60, 78
18, 435360, Note_on_c, 10, 60, 0
18, 435840, Note_on_c, 10, 63, 78
18, 436320, Note_on_c, 10, 63, 0
18, 436320, Note_on_c, 10, 62, 78
18, 436800, Note_on_c, 10, 62, 0
18, 437280, Note_on_c, 10, 54, 78
18, 437760, Note_on_c, 10, 54, 0
18, 437760, Note_on_c, 10, 55, 78
18, 438240, Note_on_c, 10, 55, 0
18, 439200, Note_on_c, 10, 55, 78
18, 439680, Note_on_c, 10, 55, 0
18, 440160, Note_on_c, 10, 55, 78
18, 440640, Note_on_c, 10, 55, 0
18, 440640, Note_on_c, 10, 55, 78
18, 441120, Note_on_c, 10, 55, 0
18, 441600, Note_on_c, 10, 55, 78
18, 442080, Note_on_c, 10, 55, 0
18, 442080, Note_on_c, 10, 55, 78
18, 442560, Note_on_c, 10, 55, 0
18, 443040, Note_on_c, 10, 55, 78
18, 443520, Note_on_c, 10, 55, 0
18, 443520, Note_on_c, 10, 55, 78
18, 444000, Note_on_c, 10, 55, 0
18, 444480, Note_on_c, 10, 43, 78
18, 444960, Note_on_c, 10, 43, 0
18, 444960, Note_on_c, 10, 55, 78
18, 445440, Note_on_c, 10, 55, 0
18, 445920, Note_on_c, 10, 55, 78
18, 446400, Note_on_c, 10, 55, 0
18, 446400, Note_on_c, 10, 55, 78
18, 446880, Note_on_c, 10, 55, 0
18, 447360, Note_on_c, 10, 55, 78
18, 447840, Note_on_c, 10, 55, 0
18, 447840, Note_on_c, 10, 55, 78
18, 448320, Note_on_c, 10, 55, 0
18, 448800, Note_on_c, 10, 55, 78
18, 449280, Note_on_c, 10, 55, 0
18, 449280, Note_on_c, 10, 55, 78
18, 449760, Note_on_c, 10, 55, 0
18, 450240, Note_on_c, 10, 43, 78
18, 450720, Note_on_c, 10, 43, 0
18, 450720, Note_on_c, 10, 55, 78
18, 451200, Note_on_c, 10, 55, 0
18, 451680, Note_on_c, 10, 55, 78
18, 452160, Note_on_c, 10, 55, 0
18, 452160, Note_on_c, 10, 55, 78
18, 452640, Note_on_c, 10, 55, 0
18, 453120, Note_on_c, 10, 55, 78
18, 453600, Note_on_c, 10, 55, 0
18, 453600, Note_on_c, 10, 55, 78
18, 454080, Note_on_c, 10, 55, 0
18, 455040, Note_on_c, 10, 55, 78
18, 455520, Note_on_c, 10, 55, 0
18, 456000, Note_on_c, 10, 55, 78
18, 456480, Note_on_c, 10, 55, 0
18, 456480, Note_on_c, 10, 55, 78
18, 456960, Note_on_c, 10, 55, 0
18, 457920, Note_on_c, 10, 55, 78
18, 458400, Note_on_c, 10, 55, 0
18, 458880, Note_on_c, 10, 56, 78
18, 459360, Note_on_c, 10, 56, 0
18, 459360, Note_on_c, 10, 55, 78
18, 459840, Note_on_c, 10, 55, 0
18, 460320, Note_on_c, 10, 59, 78
18, 460800, Note_on_c, 10, 59, 0
18, 460800, Note_on_c, 10, 60, 78
18, 461280, Note_on_c, 10, 60, 0
18, 461760, Note_on_c, 10, 56, 78
18, 462240, Note_on_c, 10, 56, 0
18, 462240, Note_on_c, 10, 55, 78
18, 462720, Note_on_c, 10, 55, 0
18, 463200, Note_on_c, 10, 47, 78
18, 463680, Note_on_c, 10, 47, 0
18, 463680, Note_on_c, 10, 48, 78
18, 464160, Note_on_c, 10, 48, 0
18, 464640, Note_on_c, 10, 56, 78
18, 465120, Note_on_c, 10, 56, 0
18, 465120, Note_on_c, 10, 55, 78
18, 465600, Note_on_c, 10, 55, 0
18, 466080, Note_on_c, 10, 59, 78
18, 466560, Note_on_c, 10, 59, 0
18, 466560, Note_on_c, 10, 60, 78
18, 467040, Note_on_c, 10, 60, 0
18, 467520, Note_on_c, 10, 56, 78
18, 468000, Note_on_c, 10, 56, 0
18, 468000, Note_on_c, 10, 55, 78
18, 468480, Note_on_c, 10, 55, 0
18, 468960, Note_on_c, 10, 47, 78
18, 469440, Note_on_c, 10, 47, 0
18, 469440, Note_on_c, 10, 48, 78
18, 469920, Note_on_c, 10, 48, 0
18, 470400, Note_on_c, 10, 56, 78
18, 470880, Note_on_c, 10, 56, 0
18, 470880, Note_on_c, 10, 55, 78
18, 471360, Note_on_c, 10, 55, 0
18, 471840, Note_on_c, 10, 59, 78
18, 472320, Note_on_c, 10, 59, 0
18, 472320, Note_on_c, 10, 60, 78
18, 472800, Note_on_c, 10, 60, 0
18, 473280, Note_on_c, 10, 58, 78
18, 473760, Note_on_c, 10, 58, 0
18, 473760, Note_on_c, 10, 56, 78
18, 474240, Note_on_c, 10, 56, 0
18, 474720, Note_on_c, 10, 53, 78
18, 475200, Note_on_c, 10, 53, 0
18, 475200, Note_on_c, 10, 55, 78
18, 475680, Note_on_c, 10, 55, 0
18, 476160, Note_on_c, 10, 53, 78
18, 476640, Note_on_c, 10, 53, 0
18, 476640, Note_on_c, 10, 51, 78
18, 477120, Note_on_c, 10, 51, 0
18, 477600, Note_on_c, 10, 50, 78
18, 478080, Note_on_c, 10, 50, 0
18, 478080, Note_on_c, 10, 48, 78
18, 478560, Note_on_c, 10, 48, 0
18, 479040, Note_on_c, 10, 46, 78
18, 479520, Note_on_c, 10, 46, 0
18, 479520, Note_on_c, 10, 44, 78
18, 480000, Note_on_c, 10, 44, 0
18, 480480, Note_on_c, 10, 43, 78
18, 480960, Note_on_c, 10, 43, 0
18, 480960, Note_on_c, 10, 41, 78
18, 481440, Note_on_c, 10, 41, 0
18, 481920, Note_on_c, 10, 42, 78
18, 482400, Note_on_c, 10, 42, 0
18, 482400, Note_on_c, 10, 43, 78
18, 482880, Note_on_c, 10, 43, 0
18, 482880, Note_on_c, 10, 43, 78
18, 483360, Note_on_c, 10, 43, 0
18, 483360, Note_on_c, 10, 43, 78
18, 483840, Note_on_c, 10, 43, 0
18, 483840, Note_on_c, 10, 36, 78
18, 484320, Note_on_c, 10, 36, 0
18, 485280, Note_on_c, 10, 47, 78
18, 485760, Note_on_c, 10, 47, 0
18, 485760, Note_on_c, 10, 47, 78
18, 486240, Note_on_c, 10, 47, 0
18, 486240, Note_on_c, 10, 47, 78
18, 486720, Note_on_c, 10, 47, 0
18, 486720, Note_on_c, 10, 48, 78
18, 487200, Note_on_c, 10, 48, 0
18, 488160, Note_on_c, 10, 50, 78
18, 488640, Note_on_c, 10, 50, 0
18, 488640, Note_on_c, 10, 50, 78
18, 489120, Note_on_c, 10, 50, 0
18, 489120, Note_on_c, 10, 50, 78
18, 489600, Note_on_c, 10, 50, 0
18, 489600, Note_on_c, 10, 51, 78
18, 490080, Note_on_c, 10, 51, 0
18, 491040, Note_on_c, 10, 40, 78
18, 491520, Note_on_c, 10, 40, 0
18, 491520, Note_on_c, 10, 40, 78
18, 492000, Note_on_c, 10, 40, 0
18, 492000, Note_on_c, 10, 40, 78
18, 492480, Note_on_c, 10, 40, 0
18, 492480, Note_on_c, 10, 41, 78
18, 492960, Note_on_c, 10, 41, 0
18, 493920, Note_on_c, 10, 43, 78
18, 494400, Note_on_c, 10, 43, 0
18, 495360, Note_on_c, 10, 44, 63
18, 499680, Note_on_c, 10, 44, 0
18, 499680, Note_on_c, 10, 44, 63
18, 506880, Note_on_c, 10, 44, 0
18, 506880, Note_on_c, 10, 44, 63
18, 514080, Note_on_c, 10, 44, 0
18, 514080, Note_on_c, 10, 44, 78
18, 517440, Note_on_c, 10, 44, 0
18, 517440, Note_on_c, 10, 44, 78
18, 517920, Note_on_c, 10, 44, 0
18, 517920, Note_on_c, 10, 44, 78
18, 518400, Note_on_c, 10, 44, 0
18, 518400, Note_on_c, 10, 44, 78
18, 518880, Note_on_c, 10, 44, 0
18, 518880, Note_on_c, 10, 44, 78
18, 519360, Note_on_c, 10, 44, 0
18, 519360, Note_on_c, 10, 44, 78
18, 519840, Note_on_c, 10, 44, 0
18, 519840, Note_on_c, 10, 44, 78
18, 520320, Note_on_c, 10, 44, 0
18, 521760, Note_on_c, 10, 43, 78
18, 522240, Note_on_c, 10, 43, 0
18, 522240, Note_on_c, 10, 43, 78
18, 522720, Note_on_c, 10, 43, 0
18, 522720, Note_on_c, 10, 43, 78
18, 523200, Note_on_c, 10, 43, 0
18, 524640, Note_on_c, 10, 42, 78
18, 525120, Note_on_c, 10, 42, 0
18, 525120, Note_on_c, 10, 42, 78
18, 525600, Note_on_c, 10, 42, 0
18, 525600, Note_on_c, 10, 41, 78
18, 526080, Note_on_c, 10, 41, 0
18, 527520, Note_on_c, 10, 43, 78
18, 528000, Note_on_c, 10, 43, 0
18, 528000, Note_on_c, 10, 43, 78
18, 528480, Note_on_c, 10, 43, 0
18, 528480, Note_on_c, 10, 43, 78
18, 528960, Note_on_c, 10, 43, 0
18, 530400, Note_on_c, 10, 44, 78
18, 530880, Note_on_c, 10, 44, 0
18, 530880, Note_on_c, 10, 44, 78
18, 531360, Note_on_c, 10, 44, 0
18, 531360, Note_on_c, 10, 44, 78
18, 531840, Note_on_c, 10, 44, 0
18, 533280, Note_on_c, 10, 43, 78
18, 533760, Note_on_c, 10, 43, 0
18, 533760, Note_on_c, 10, 43, 78
18, 534240, Note_on_c, 10, 43, 0
18, 534240, Note_on_c, 10, 43, 78
18, 534720, Note_on_c, 10, 43, 0
18, 534720, Note_on_c, 10, 43, 78
18, 535200, Note_on_c, 10, 43, 0
18, 535200, Note_on_c, 10, 43, 78
18, 535680, Note_on_c, 10, 43, 0
18, 535680, Note_on_c, 10, 43, 78
18, 536160, Note_on_c, 10, 43, 0
18, 536160, Note_on_c, 10, 43, 78
18, 536640, Note_on_c, 10, 43, 0
18, 536640, Note_on_c, 10, 43, 78
18, 537120, Note_on_c, 10, 43, 0
18, 537120, Note_on_c, 10, 43, 78
18, 537600, Note_on_c, 10, 43, 0
18, 537600, Note_on_c, 10, 43, 78
18, 538080, Note_on_c, 10, 43, 0
18, 538080, Note_on_c, 10, 43, 78
18, 538560, Note_on_c, 10, 43, 0
18, 538560, Note_on_c, 10, 43, 78
18, 539040, Note_on_c, 10, 43, 0
18, 539040, Note_on_c, 10, 43, 78
18, 539520, Note_on_c, 10, 43, 0
18, 539520, Note_on_c, 10, 43, 78
18, 540000, Note_on_c, 10, 43, 0
18, 540000, Note_on_c, 10, 43, 78
18, 540480, Note_on_c, 10, 43, 0
18, 540480, Note_on_c, 10, 43, 78
18, 540960, Note_on_c, 10, 43, 0
18, 540960, Note_on_c, 10, 43, 78
18, 541440, Note_on_c, 10, 43, 0
18, 541440, Note_on_c, 10, 43, 78
18, 541920, Note_on_c, 10, 43, 0
18, 541920, Note_on_c, 10, 43, 78
18, 542400, Note_on_c, 10, 43, 0
18, 542400, Note_on_c, 10, 43, 78
18, 542880, Note_on_c, 10, 43, 0
18, 542880, Note_on_c, 10, 43, 78
18, 543360, Note_on_c, 10, 43, 0
18, 543360, Note_on_c, 10, 43, 78
18, 543840, Note_on_c, 10, 43, 0
18, 543840, Note_on_c, 10, 43, 78
18, 544320, Note_on_c, 10, 43, 0
18, 544320, Note_on_c, 10, 43, 78
18, 544800, Note_on_c, 10, 43, 0
18, 544800, Note_on_c, 10, 43, 78
18, 545280, Note_on_c, 10, 43, 0
18, 545280, Note_on_c, 10, 43, 78
18, 545760, Note_on_c, 10, 43, 0
18, 545760, Note_on_c, 10, 43, 78
18, 546240, Note_on_c, 10, 43, 0
18, 546240, Note_on_c, 10, 43, 78
18, 546720, Note_on_c, 10, 43, 0
18, 546720, Note_on_c, 10, 43, 78
18, 547200, Note_on_c, 10, 43, 0
18, 547200, Note_on_c, 10, 43, 78
18, 547680, Note_on_c, 10, 43, 0
18, 547680, Note_on_c, 10, 43, 78
18, 548160, Note_on_c, 10, 43, 0
18, 548160, Note_on_c, 10, 43, 78
18, 548640, Note_on_c, 10, 43, 0
18, 548640, Note_on_c, 10, 43, 78
18, 549120, Note_on_c, 10, 43, 0
18, 549120, Note_on_c, 10, 43, 78
18, 549600, Note_on_c, 10, 43, 0
18, 549600, Note_on_c, 10, 43, 78
18, 550080, Note_on_c, 10, 43, 0
18, 550080, Note_on_c, 10, 43, 78
18, 550560, Note_on_c, 10, 43, 0
18, 550560, Note_on_c, 10, 43, 78
18, 551040, Note_on_c, 10, 43, 0
18, 551040, Note_on_c, 10, 43, 78
18, 551520, Note_on_c, 10, 43, 0
18, 551520, Note_on_c, 10, 43, 78
18, 552000, Note_on_c, 10, 43, 0
18, 552000, Note_on_c, 10, 43, 78
18, 552480, Note_on_c, 10, 43, 0
18, 552480, Note_on_c, 10, 43, 78
18, 552960, Note_on_c, 10, 43, 0
18, 552960, Note_on_c, 10, 43, 78
18, 553440, Note_on_c, 10, 43, 0
18, 553440, Note_on_c, 10, 43, 78
18, 553920, Note_on_c, 10, 43, 0
18, 553920, Note_on_c, 10, 43, 78
18, 554400, Note_on_c, 10, 43, 0
18, 554400, Note_on_c, 10, 43, 78
18, 554880, Note_on_c, 10, 43, 0
18, 554880, Note_on_c, 10, 43, 78
18, 555360, Note_on_c, 10, 43, 0
18, 555360, Note_on_c, 10, 43, 78
18, 555840, Note_on_c, 10, 43, 0
18, 555840, Note_on_c, 10, 43, 91
18, 556080, Note_on_c, 10, 43, 0
18, 556080, Note_on_c, 10, 43, 91
18, 556320, Note_on_c, 10, 43, 0
18, 556320, Note_on_c, 10, 43, 91
18, 556560, Note_on_c, 10, 43, 0
18, 556560, Note_on_c, 10, 43, 91
18, 556800, Note_on_c, 10, 43, 0
18, 556800, Note_on_c, 10, 43, 91
18, 557040, Note_on_c, 10, 43, 0
18, 557040, Note_on_c, 10, 43, 91
18, 557280, Note_on_c, 10, 43, 0
18, 557280, Note_on_c, 10, 43, 91
18, 557520, Note_on_c, 10, 43, 0
18, 557520, Note_on_c, 10, 43, 91
18, 557760, Note_on_c, 10, 43, 0
18, 557760, Note_on_c, 10, 43, 91
18, 558000, Note_on_c, 10, 43, 0
18, 558000, Note_on_c, 10, 43, 91
18, 558240, Note_on_c, 10, 43, 0
18, 558240, Note_on_c, 10, 43, 91
18, 558480, Note_on_c, 10, 43, 0
18, 558480, Note_on_c, 10, 43, 91
18, 558720, Note_on_c, 10, 43, 0
18, 558720, Note_on_c, 10, 43, 101
18, 558960, Note_on_c, 10, 43, 0
18, 558960, Note_on_c, 10, 43, 101
18, 559200, Note_on_c, 10, 43, 0
18, 559200, Note_on_c, 10, 43, 101
18, 559440, Note_on_c, 10, 43, 0
18, 559440, Note_on_c, 10, 43, 101
18, 559680, Note_on_c, 10, 43, 0
18, 559680, Note_on_c, 10, 43, 101
18, 559920, Note_on_c, 10, 43, 0
18, 559920, Note_on_c, 10, 43, 101
18, 560160, Note_on_c, 10, 43, 0
18, 560160, Note_on_c, 10, 43, 101
18, 560400, Note_on_c, 10, 43, 0
18, 560400, Note_on_c, 10, 43, 101
18, 560640, Note_on_c, 10, 43, 0
18, 560640, Note_on_c, 10, 43, 101
18, 560880, Note_on_c, 10, 43, 0
18, 560880, Note_on_c, 10, 43, 101
18, 561120, Note_on_c, 10, 43, 0
18, 561120, Note_on_c, 10, 43, 101
18, 561360, Note_on_c, 10, 43, 0
18, 561360, Note_on_c, 10, 43, 101
18, 561600, Note_on_c, 10, 43, 0
18, 561600, Note_on_c, 10, 43, 109
18, 561840, Note_on_c, 10, 43, 0
18, 561840, Note_on_c, 10, 43, 109
18, 562080, Note_on_c, 10, 43, 0
18, 562080, Note_on_c, 10, 43, 109
18, 562320, Note_on_c, 10, 43, 0
18, 562320, Note_on_c, 10, 43, 109
18, 562560, Note_on_c, 10, 43, 0
18, 562560, Note_on_c, 10, 43, 109
18, 562800, Note_on_c, 10, 43, 0
18, 562800, Note_on_c, 10, 43, 109
18, 563040, Note_on_c, 10, 43, 0
18, 563040, Note_on_c, 10, 43, 115
18, 563280, Note_on_c, 10, 43, 0
18, 563280, Note_on_c, 10, 43, 115
18, 563520, Note_on_c, 10, 43, 0
18, 563520, Note_on_c, 10, 43, 115
18, 563760, Note_on_c, 10, 43, 0
18, 563760, Note_on_c, 10, 43, 115
18, 564000, Note_on_c, 10, 43, 0
18, 564000, Note_on_c, 10, 43, 115
18, 564240, Note_on_c, 10, 43, 0
18, 564240, Note_on_c, 10, 43, 115
18, 564480, Note_on_c, 10, 43, 0
18, 564480, Note_on_c, 10, 43, 123
18, 564720, Note_on_c, 10, 43, 0
18, 564720, Note_on_c, 10, 43, 123
18, 564960, Note_on_c, 10, 43, 0
18, 564960, Note_on_c, 10, 43, 123
18, 565200, Note_on_c, 10, 43, 0
18, 565200, Note_on_c, 10, 43, 123
18, 565440, Note_on_c, 10, 43, 0
18, 565440, Note_on_c, 10, 43, 123
18, 565680, Note_on_c, 10, 43, 0
18, 565680, Note_on_c, 10, 43, 123
18, 565920, Note_on_c, 10, 43, 0
18, 565920, Note_on_c, 10, 43, 127
18, 566160, Note_on_c, 10, 43, 0
18, 566160, Note_on_c, 10, 43, 127
18, 566400, Note_on_c, 10, 43, 0
18, 566400, Note_on_c, 10, 43, 127
18, 566640, Note_on_c, 10, 43, 0
18, 566640, Note_on_c, 10, 43, 127
18, 566880, Note_on_c, 10, 43, 0
18, 566880, Note_on_c, 10, 43, 127
18, 567120, Note_on_c, 10, 43, 0
18, 567120, Note_on_c, 10, 43, 127
18, 567360, Note_on_c, 10, 43, 0
18, 567360, End_track
19, 0, Start_track
19, 0, MIDI_port, 0
19, 0, Title_t, "Double Basses"
19, 0, Program_c, 11, 43
19, 960, Note_on_c, 11, 31, 78
19, 1440, Note_on_c, 11, 31, 0
19, 1440, Note_on_c, 11, 36, 78
19, 1920, Note_on_c, 11, 36, 0
19, 1920, Note_on_c, 11, 39, 78
19, 2400, Note_on_c, 11, 39, 0
19, 2400, Note_on_c, 11, 43, 78
19, 2880, Note_on_c, 11, 43, 0
19, 2880, Note_on_c, 11, 48, 78
19, 3840, Note_on_c, 11, 48, 0
19, 3840, Note_on_c, 11, 51, 78
19, 4320, Note_on_c, 11, 51, 0
19, 4320, Note_on_c, 11, 50, 78
19, 5280, Note_on_c, 11, 50, 0
19, 5280, Note_on_c, 11, 42, 78
19, 5760, Note_on_c, 11, 42, 0
19, 5760, Note_on_c, 11, 43, 78
19, 8640, Note_on_c, 11, 43, 0
19, 8640, Note_on_c, 11, 36, 78
19, 11520, Note_on_c, 11, 36, 0
19, 11520, Note_on_c, 11, 31, 78
19, 12480, Note_on_c, 11, 31, 0
19, 12480, Note_on_c, 11, 31, 78
19, 12960, Note_on_c, 11, 31, 0
19, 12960, Note_on_c, 11, 36, 78
19, 13440, Note_on_c, 11, 36, 0
19, 13440, Note_on_c, 11, 39, 78
19, 13920, Note_on_c, 11, 39, 0
19, 13920, Note_on_c, 11, 43, 78
19, 14400, Note_on_c, 11, 43, 0
19, 14400, Note_on_c, 11, 48, 78
19, 15360, Note_on_c, 11, 48, 0
19, 15360, Note_on_c, 11, 51, 78
19, 15840, Note_on_c, 11, 51, 0
19, 15840, Note_on_c, 11, 50, 78
19, 16800, Note_on_c, 11, 50, 0
19, 16800, Note_on_c, 11, 42, 78
19, 17280, Note_on_c, 11, 42, 0
19, 17280, Note_on_c, 11, 43, 78
19, 18240, Note_on_c, 11, 43, 0
19, 18240, Note_on_c, 11, 37, 78
19, 18720, Note_on_c, 11, 37, 0
19, 18720, Note_on_c, 11, 38, 78
19, 21120, Note_on_c, 11, 38, 0
19, 21120, Note_on_c, 11, 36, 78
19, 21600, Note_on_c, 11, 36, 0
19, 21600, Note_on_c, 11, 35, 78
19, 22560, Note_on_c, 11, 35, 0
19, 22560, Note_on_c, 11, 31, 78
19, 23040, Note_on_c, 11, 31, 0
19, 23040, Note_on_c, 11, 36, 78
19, 24000, Note_on_c, 11, 36, 0
19, 24000, Note_on_c, 11, 35, 78
19, 24480, Note_on_c, 11, 35, 0
19, 24480, Note_on_c, 11, 36, 78
19, 25440, Note_on_c, 11, 36, 0
19, 25440, Note_on_c, 11, 30, 78
19, 25920, Note_on_c, 11, 30, 0
19, 25920, Note_on_c, 11, 31, 78
19, 27360, Note_on_c, 11, 31, 0
19, 28800, Note_on_c, 11, 36, 115
19, 29280, Note_on_c, 11, 36, 0
19, 30240, Note_on_c, 11, 38, 115
19, 30720, Note_on_c, 11, 38, 0
19, 31680, Note_on_c, 11, 39, 115
19, 32160, Note_on_c, 11, 39, 0
19, 33120, Note_on_c, 11, 35, 115
19, 33600, Note_on_c, 11, 35, 0
19, 34560, Note_on_c, 11, 36, 115
19, 35040, Note_on_c, 11, 36, 0
19, 35520, Note_on_c, 11, 34, 115
19, 36000, Note_on_c, 11, 34, 0
19, 36000, Note_on_c, 11, 32, 115
19, 36480, Note_on_c, 11, 32, 0
19, 36960, Note_on_c, 11, 32, 115
19, 37440, Note_on_c, 11, 32, 0
19, 37440, Note_on_c, 11, 34, 115
19, 37920, Note_on_c, 11, 34, 0
19, 38880, Note_on_c, 11, 34, 115
19, 40320, Note_on_c, 11, 34, 0
19, 40320, Note_on_c, 11, 39, 115
19, 41760, Note_on_c, 11, 39, 0
19, 41760, Note_on_c, 11, 41, 115
19, 43200, Note_on_c, 11, 41, 0
19, 43200, Note_on_c, 11, 42, 115
19, 44640, Note_on_c, 11, 42, 0
19, 44640, Note_on_c, 11, 38, 115
19, 46080, Note_on_c, 11, 38, 0
19, 46080, Note_on_c, 11, 39, 115
19, 47040, Note_on_c, 11, 39, 0
19, 47040, Note_on_c, 11, 37, 115
19, 47520, Note_on_c, 11, 37, 0
19, 47520, Note_on_c, 11, 35, 115
19, 48480, Note_on_c, 11, 35, 0
19, 48480, Note_on_c, 11, 35, 115
19, 48960, Note_on_c, 11, 35, 0
19, 48960, Note_on_c, 11, 37, 115
19, 50400, Note_on_c, 11, 37, 0
19, 50400, Note_on_c, 11, 30, 115
19, 51840, Note_on_c, 11, 30, 0
19, 51840, Note_on_c, 11, 35, 115
19, 52800, Note_on_c, 11, 35, 0
19, 52800, Note_on_c, 11, 34, 115
19, 53280, Note_on_c, 11, 34, 0
19, 53280, Note_on_c, 11, 32, 115
19, 54240, Note_on_c, 11, 32, 0
19, 54240, Note_on_c, 11, 32, 115
19, 54720, Note_on_c, 11, 32, 0
19, 54720, Note_on_c, 11, 34, 115
19, 57120, Note_on_c, 11, 34, 0
19, 57120, Note_on_c, 11, 27, 115
19, 57600, Note_on_c, 11, 27, 0
19, 57600, Note_on_c, 11, 34, 115
19, 60000, Note_on_c, 11, 34, 0
19, 60000, Note_on_c, 11, 27, 115
19, 60480, Note_on_c, 11, 27, 0
19, 60480, Note_on_c, 11, 34, 115
19, 61440, Note_on_c, 11, 34, 0
19, 61440, Note_on_c, 11, 27, 115
19, 61920, Note_on_c, 11, 27, 0
19, 61920, Note_on_c, 11, 34, 115
19, 62880, Note_on_c, 11, 34, 0
19, 62880, Note_on_c, 11, 27, 115
19, 63360, Note_on_c, 11, 27, 0
19, 63360, Note_on_c, 11, 34, 115
19, 65280, Note_on_c, 11, 34, 0
19, 65280, Note_on_c, 11, 37, 78
19, 65760, Note_on_c, 11, 37, 0
19, 65760, Note_on_c, 11, 41, 78
19, 66240, Note_on_c, 11, 41, 0
19, 66240, Note_on_c, 11, 46, 78
19, 67200, Note_on_c, 11, 46, 0
19, 67200, Note_on_c, 11, 49, 78
19, 67680, Note_on_c, 11, 49, 0
19, 67680, Note_on_c, 11, 48, 78
19, 68640, Note_on_c, 11, 48, 0
19, 68640, Note_on_c, 11, 40, 78
19, 69120, Note_on_c, 11, 40, 0
19, 69120, Note_on_c, 11, 41, 78
19, 72000, Note_on_c, 11, 41, 0
19, 72000, Note_on_c, 11, 34, 78
19, 74880, Note_on_c, 11, 34, 0
19, 74880, Note_on_c, 11, 29, 78
19, 75840, Note_on_c, 11, 29, 0
19, 75840, Note_on_c, 11, 29, 78
19, 76320, Note_on_c, 11, 29, 0
19, 76320, Note_on_c, 11, 34, 78
19, 76800, Note_on_c, 11, 34, 0
19, 76800, Note_on_c, 11, 37, 78
19, 77280, Note_on_c, 11, 37, 0
19, 77280, Note_on_c, 11, 41, 78
19, 77760, Note_on_c, 11, 41, 0
19, 77760, Note_on_c, 11, 46, 78
19, 78720, Note_on_c, 11, 46, 0
19, 78720, Note_on_c, 11, 49, 78
19, 79200, Note_on_c, 11, 49, 0
19, 79200, Note_on_c, 11, 48, 78
19, 80160, Note_on_c, 11, 48, 0
19, 80160, Note_on_c, 11, 40, 78
19, 80640, Note_on_c, 11, 40, 0
19, 80640, Note_on_c, 11, 41, 78
19, 81600, Note_on_c, 11, 41, 0
19, 81600, Note_on_c, 11, 56, 78
19, 82080, Note_on_c, 11, 56, 0
19, 82080, Note_on_c, 11, 55, 78
19, 83040, Note_on_c, 11, 55, 0
19, 83040, Note_on_c, 11, 47, 78
19, 83520, Note_on_c, 11, 47, 0
19, 83520, Note_on_c, 11, 48, 78
19, 84480, Note_on_c, 11, 48, 0
19, 84480, Note_on_c, 11, 51, 78
19, 84960, Note_on_c, 11, 51, 0
19, 84960, Note_on_c, 11, 50, 78
19, 85920, Note_on_c, 11, 50, 0
19, 85920, Note_on_c, 11, 42, 78
19, 86400, Note_on_c, 11, 42, 0
19, 86400, Note_on_c, 11, 43, 78
19, 87360, Note_on_c, 11, 43, 0
19, 87360, Note_on_c, 11, 37, 78
19, 87840, Note_on_c, 11, 37, 0
19, 87840, Note_on_c, 11, 38, 78
19, 89280, Note_on_c, 11, 38, 0
19, 89280, Note_on_c, 11, 43, 78
19, 90240, Note_on_c, 11, 43, 0
19, 90240, Note_on_c, 11, 37, 78
19, 90720, Note_on_c, 11, 37, 0
19, 90720, Note_on_c, 11, 38, 78
19, 92160, Note_on_c, 11, 38, 0
19, 92160, Note_on_c, 11, 43, 78
19, 92640, Note_on_c, 11, 43, 0
19, 92640, Note_on_c, 11, 37, 78
19, 93120, Note_on_c, 11, 37, 0
19, 93120, Note_on_c, 11, 38, 78
19, 93600, Note_on_c, 11, 38, 0
19, 93600, Note_on_c, 11, 43, 78
19, 94080, Note_on_c, 11, 43, 0
19, 94080, Note_on_c, 11, 37, 78
19, 94560, Note_on_c, 11, 37, 0
19, 94560, Note_on_c, 11, 38, 78
19, 95040, Note_on_c, 11, 38, 0
19, 95040, Note_on_c, 11, 43, 78
19, 95520, Note_on_c, 11, 43, 0
19, 95520, Note_on_c, 11, 37, 78
19, 96000, Note_on_c, 11, 37, 0
19, 96000, Note_on_c, 11, 38, 78
19, 96480, Note_on_c, 11, 38, 0
19, 96480, Note_on_c, 11, 43, 78
19, 96960, Note_on_c, 11, 43, 0
19, 96960, Note_on_c, 11, 38, 78
19, 97440, Note_on_c, 11, 38, 0
19, 97440, Note_on_c, 11, 39, 78
19, 97920, Note_on_c, 11, 39, 0
19, 97920, Note_on_c, 11, 44, 91
19, 98400, Note_on_c, 11, 44, 0
19, 98400, Note_on_c, 11, 40, 91
19, 98880, Note_on_c, 11, 40, 0
19, 98880, Note_on_c, 11, 41, 91
19, 99360, Note_on_c, 11, 41, 0
19, 99360, Note_on_c, 11, 47, 101
19, 99840, Note_on_c, 11, 47, 0
19, 99840, Note_on_c, 11, 42, 101
19, 100320, Note_on_c, 11, 42, 0
19, 100320, Note_on_c, 11, 43, 101
19, 100800, Note_on_c, 11, 43, 0
19, 100800, Note_on_c, 11, 48, 109
19, 101280, Note_on_c, 11, 48, 0
19, 101280, Note_on_c, 11, 44, 109
19, 101760, Note_on_c, 11, 44, 0
19, 101760, Note_on_c, 11, 45, 109
19, 102240, Note_on_c, 11, 45, 0
19, 102240, Note_on_c, 11, 47, 115
19, 103680, Note_on_c, 11, 47, 0
19, 103680, Note_on_c, 11, 48, 115
19, 105120, Note_on_c, 11, 48, 0
19, 105120, Note_on_c, 11, 50, 115
19, 106560, Note_on_c, 11, 50, 0
19, 106560, Note_on_c, 11, 51, 115
19, 108000, Note_on_c, 11, 51, 0
19, 108000, Note_on_c, 11, 47, 115
19, 109440, Note_on_c, 11, 47, 0
19, 109440, Note_on_c, 11, 48, 115
19, 110400, Note_on_c, 11, 48, 0
19, 110400, Note_on_c, 11, 46, 115
19, 110880, Note_on_c, 11, 46, 0
19, 110880, Note_on_c, 11, 44, 115
19, 111840, Note_on_c, 11, 44, 0
19, 111840, Note_on_c, 11, 44, 115
19, 112320, Note_on_c, 11, 44, 0
19, 112320, Note_on_c, 11, 46, 115
19, 113760, Note_on_c, 11, 46, 0
19, 113760, Note_on_c, 11, 36, 115
19, 115200, Note_on_c, 11, 36, 0
19, 115200, Note_on_c, 11, 41, 115
19, 116640, Note_on_c, 11, 41, 0
19, 116640, Note_on_c, 11, 43, 115
19, 118080, Note_on_c, 11, 43, 0
19, 118080, Note_on_c, 11, 44, 115
19, 119520, Note_on_c, 11, 44, 0
19, 119520, Note_on_c, 11, 40, 115
19, 120960, Note_on_c, 11, 40, 0
19, 120960, Note_on_c, 11, 41, 115
19, 121920, Note_on_c, 11, 41, 0
19, 121920, Note_on_c, 11, 39, 115
19, 122400, Note_on_c, 11, 39, 0
19, 122400, Note_on_c, 11, 37, 115
19, 123360, Note_on_c, 11, 37, 0
19, 123360, Note_on_c, 11, 37, 115
19, 123840, Note_on_c, 11, 37, 0
19, 123840, Note_on_c, 11, 39, 115
19, 125280, Note_on_c, 11, 39, 0
19, 125280, Note_on_c, 11, 32, 115
19, 126720, Note_on_c, 11, 32, 0
19, 126720, Note_on_c, 11, 37, 115
19, 127680, Note_on_c, 11, 37, 0
19, 127680, Note_on_c, 11, 36, 115
19, 128160, Note_on_c, 11, 36, 0
19, 128160, Note_on_c, 11, 34, 115
19, 129120, Note_on_c, 11, 34, 0
19, 129120, Note_on_c, 11, 34, 115
19, 129600, Note_on_c, 11, 34, 0
19, 129600, Note_on_c, 11, 36, 115
19, 132000, Note_on_c, 11, 36, 0
19, 132000, Note_on_c, 11, 29, 115
19, 132480, Note_on_c, 11, 29, 0
19, 132480, Note_on_c, 11, 36, 115
19, 134880, Note_on_c, 11, 36, 0
19, 134880, Note_on_c, 11, 29, 115
19, 135360, Note_on_c, 11, 29, 0
19, 135360, Note_on_c, 11, 36, 115
19, 136320, Note_on_c, 11, 36, 0
19, 136320, Note_on_c, 11, 29, 115
19, 136800, Note_on_c, 11, 29, 0
19, 136800, Note_on_c, 11, 36, 115
19, 137760, Note_on_c, 11, 36, 0
19, 137760, Note_on_c, 11, 29, 115
19, 138240, Note_on_c, 11, 29, 0
19, 138240, Note_on_c, 11, 36, 115
19, 140160, Note_on_c, 11, 36, 0
19, 140160, Note_on_c, 11, 39, 78
19, 140640, Note_on_c, 11, 39, 0
19, 140640, Note_on_c, 11, 43, 78
19, 141120, Note_on_c, 11, 43, 0
19, 141120, Note_on_c, 11, 48, 78
19, 142080, Note_on_c, 11, 48, 0
19, 142080, Note_on_c, 11, 51, 78
19, 142560, Note_on_c, 11, 51, 0
19, 142560, Note_on_c, 11, 50, 78
19, 143520, Note_on_c, 11, 50, 0
19, 143520, Note_on_c, 11, 42, 78
19, 144000, Note_on_c, 11, 42, 0
19, 144000, Note_on_c, 11, 43, 78
19, 144480, Note_on_c, 11, 43, 0
19, 150720, Note_on_c, 11, 31, 78
19, 151200, Note_on_c, 11, 31, 0
19, 156480, Note_on_c, 11, 31, 78
19, 156960, Note_on_c, 11, 31, 0
19, 184320, Note_on_c, 11, 36, 109
19, 185280, Note_on_c, 11, 36, 0
19, 185280, Note_on_c, 11, 34, 109
19, 185760, Note_on_c, 11, 34, 0
19, 185760, Note_on_c, 11, 32, 109
19, 186720, Note_on_c, 11, 32, 0
19, 186720, Note_on_c, 11, 31, 109
19, 187200, Note_on_c, 11, 31, 0
19, 187200, Note_on_c, 11, 29, 115
19, 188160, Note_on_c, 11, 29, 0
19, 188160, Note_on_c, 11, 30, 115
19, 188640, Note_on_c, 11, 30, 0
19, 188640, Note_on_c, 11, 31, 115
19, 189120, Note_on_c, 11, 31, 0
19, 189120, Note_on_c, 11, 43, 115
19, 189600, Note_on_c, 11, 43, 0
19, 189600, Note_on_c, 11, 43, 115
19, 190080, Note_on_c, 11, 43, 0
19, 190080, Note_on_c, 11, 36, 115
19, 190560, Note_on_c, 11, 36, 0
19, 191520, Note_on_c, 11, 35, 123
19, 192960, Note_on_c, 11, 35, 0
19, 192960, Note_on_c, 11, 36, 123
19, 194400, Note_on_c, 11, 36, 0
19, 194400, Note_on_c, 11, 38, 123
19, 195840, Note_on_c, 11, 38, 0
19, 195840, Note_on_c, 11, 27, 123
19, 197280, Note_on_c, 11, 27, 0
19, 197280, Note_on_c, 11, 28, 91
19, 197760, Note_on_c, 11, 28, 0
19, 197760, Note_on_c, 11, 28, 91
19, 198240, Note_on_c, 11, 28, 0
19, 198240, Note_on_c, 11, 28, 91
19, 198720, Note_on_c, 11, 28, 0
19, 198720, Note_on_c, 11, 29, 91
19, 199200, Note_on_c, 11, 29, 0
19, 200160, Note_on_c, 11, 31, 91
19, 200640, Note_on_c, 11, 31, 0
19, 201600, Note_on_c, 11, 36, 91
19, 202080, Note_on_c, 11, 36, 0
19, 202560, Note_on_c, 11, 36, 115
19, 203040, Note_on_c, 11, 36, 0
19, 203040, Note_on_c, 11, 35, 115
19, 203280, Note_on_c, 11, 35, 0
19, 203280, Note_on_c, 11, 36, 115
19, 203520, Note_on_c, 11, 36, 0
19, 203520, Note_on_c, 11, 38, 115
19, 203760, Note_on_c, 11, 38, 0
19, 203760, Note_on_c, 11, 31, 115
19, 204000, Note_on_c, 11, 31, 0
19, 204000, Note_on_c, 11, 33, 115
19, 204240, Note_on_c, 11, 33, 0
19, 204240, Note_on_c, 11, 35, 115
19, 204480, Note_on_c, 11, 35, 0
19, 204480, Note_on_c, 11, 36, 115
19, 204720, Note_on_c, 11, 36, 0
19, 204720, Note_on_c, 11, 35, 115
19, 204960, Note_on_c, 11, 35, 0
19, 204960, Note_on_c, 11, 36, 115
19, 205200, Note_on_c, 11, 36, 0
19, 205200, Note_on_c, 11, 38, 115
19, 205440, Note_on_c, 11, 38, 0
19, 205440, Note_on_c, 11, 40, 115
19, 205680, Note_on_c, 11, 40, 0
19, 205680, Note_on_c, 11, 41, 115
19, 205920, Note_on_c, 11, 41, 0
19, 205920, Note_on_c, 11, 43, 115
19, 206880, Note_on_c, 11, 43, 0
19, 206880, Note_on_c, 11, 41, 115
19, 207360, Note_on_c, 11, 41, 0
19, 207360, Note_on_c, 11, 40, 115
19, 207840, Note_on_c, 11, 40, 0
19, 207840, Note_on_c, 11, 36, 115
19, 208320, Note_on_c, 11, 36, 0
19, 208320, Note_on_c, 11, 45, 115
19, 208800, Note_on_c, 11, 45, 0
19, 208800, Note_on_c, 11, 41, 115
19, 209280, Note_on_c, 11, 41, 0
19, 209280, Note_on_c, 11, 38, 115
19, 209760, Note_on_c, 11, 38, 0
19, 209760, Note_on_c, 11, 47, 115
19, 210240, Note_on_c, 11, 47, 0
19, 210240, Note_on_c, 11, 43, 115
19, 210720, Note_on_c, 11, 43, 0
19, 210720, Note_on_c, 11, 40, 115
19, 211200, Note_on_c, 11, 40, 0
19, 211200, Note_on_c, 11, 48, 115
19, 211680, Note_on_c, 11, 48, 0
19, 211680, Note_on_c, 11, 45, 115
19, 212160, Note_on_c, 11, 45, 0
19, 212160, Note_on_c, 11, 50, 115
19, 212640, Note_on_c, 11, 50, 0
19, 212640, Note_on_c, 11, 48, 115
19, 213120, Note_on_c, 11, 48, 0
19, 213120, Note_on_c, 11, 47, 115
19, 213600, Note_on_c, 11, 47, 0
19, 213600, Note_on_c, 11, 43, 115
19, 214080, Note_on_c, 11, 43, 0
19, 214080, Note_on_c, 11, 40, 115
19, 214560, Note_on_c, 11, 40, 0
19, 214560, Note_on_c, 11, 42, 115
19, 215040, Note_on_c, 11, 42, 0
19, 215040, Note_on_c, 11, 38, 115
19, 215520, Note_on_c, 11, 38, 0
19, 215520, Note_on_c, 11, 42, 115
19, 216000, Note_on_c, 11, 42, 0
19, 216000, Note_on_c, 11, 43, 115
19, 216480, Note_on_c, 11, 43, 0
19, 216480, Note_on_c, 11, 40, 115
19, 216960, Note_on_c, 11, 40, 0
19, 216960, Note_on_c, 11, 44, 115
19, 217440, Note_on_c, 11, 44, 0
19, 217440, Note_on_c, 11, 45, 115
19, 217920, Note_on_c, 11, 45, 0
19, 217920, Note_on_c, 11, 41, 115
19, 218400, Note_on_c, 11, 41, 0
19, 218400, Note_on_c, 11, 45, 115
19, 218880, Note_on_c, 11, 45, 0
19, 218880, Note_on_c, 11, 47, 115
19, 219360, Note_on_c, 11, 47, 0
19, 219360, Note_on_c, 11, 43, 115
19, 219840, Note_on_c, 11, 43, 0
19, 219840, Note_on_c, 11, 52, 115
19, 220320, Note_on_c, 11, 52, 0
19, 220320, Note_on_c, 11, 53, 115
19, 220800, Note_on_c, 11, 53, 0
19, 220800, Note_on_c, 11, 43, 115
19, 221280, Note_on_c, 11, 43, 0
19, 221280, Note_on_c, 11, 53, 115
19, 221760, Note_on_c, 11, 53, 0
19, 221760, Note_on_c, 11, 52, 115
19, 222240, Note_on_c, 11, 52, 0
19, 222240, Note_on_c, 11, 48, 115
19, 222720, Note_on_c, 11, 48, 0
19, 222720, Note_on_c, 11, 47, 115
19, 223200, Note_on_c, 11, 47, 0
19, 223200, Note_on_c, 11, 45, 115
19, 223680, Note_on_c, 11, 45, 0
19, 223680, Note_on_c, 11, 38, 115
19, 224160, Note_on_c, 11, 38, 0
19, 224160, Note_on_c, 11, 48, 115
19, 224640, Note_on_c, 11, 48, 0
19, 224640, Note_on_c, 11, 47, 115
19, 225120, Note_on_c, 11, 47, 0
19, 225120, Note_on_c, 11, 43, 115
19, 225600, Note_on_c, 11, 43, 0
19, 225600, Note_on_c, 11, 40, 115
19, 226080, Note_on_c, 11, 40, 0
19, 226080, Note_on_c, 11, 38, 115
19, 226320, Note_on_c, 11, 38, 0
19, 226320, Note_on_c, 11, 37, 115
19, 226560, Note_on_c, 11, 37, 0
19, 226560, Note_on_c, 11, 38, 115
19, 226800, Note_on_c, 11, 38, 0
19, 226800, Note_on_c, 11, 36, 115
19, 227040, Note_on_c, 11, 36, 0
19, 227040, Note_on_c, 11, 35, 115
19, 227280, Note_on_c, 11, 35, 0
19, 227280, Note_on_c, 11, 33, 115
19, 227520, Note_on_c, 11, 33, 0
19, 227520, Note_on_c, 11, 31, 115
19, 227760, Note_on_c, 11, 31, 0
19, 227760, Note_on_c, 11, 35, 115
19, 228000, Note_on_c, 11, 35, 0
19, 228000, Note_on_c, 11, 38, 115
19, 228240, Note_on_c, 11, 38, 0
19, 228240, Note_on_c, 11, 36, 115
19, 228480, Note_on_c, 11, 36, 0
19, 228480, Note_on_c, 11, 35, 115
19, 228720, Note_on_c, 11, 35, 0
19, 228720, Note_on_c, 11, 33, 115
19, 228960, Note_on_c, 11, 33, 0
19, 228960, Note_on_c, 11, 31, 115
19, 229200, Note_on_c, 11, 31, 0
19, 229200, Note_on_c, 11, 35, 115
19, 229440, Note_on_c, 11, 35, 0
19, 229440, Note_on_c, 11, 38, 115
19, 229680, Note_on_c, 11, 38, 0
19, 229680, Note_on_c, 11, 36, 115
19, 229920, Note_on_c, 11, 36, 0
19, 229920, Note_on_c, 11, 35, 115
19, 230160, Note_on_c, 11, 35, 0
19, 230160, Note_on_c, 11, 33, 115
19, 230400, Note_on_c, 11, 33, 0
19, 230400, Note_on_c, 11, 31, 115
19, 230880, Note_on_c, 11, 31, 0
19, 231360, Note_on_c, 11, 36, 115
19, 231840, Note_on_c, 11, 36, 0
19, 231840, Note_on_c, 11, 35, 115
19, 232080, Note_on_c, 11, 35, 0
19, 232080, Note_on_c, 11, 36, 115
19, 232320, Note_on_c, 11, 36, 0
19, 232320, Note_on_c, 11, 38, 115
19, 232560, Note_on_c, 11, 38, 0
19, 232560, Note_on_c, 11, 31, 115
19, 232800, Note_on_c, 11, 31, 0
19, 232800, Note_on_c, 11, 33, 115
19, 233040, Note_on_c, 11, 33, 0
19, 233040, Note_on_c, 11, 35, 115
19, 233280, Note_on_c, 11, 35, 0
19, 233280, Note_on_c, 11, 36, 115
19, 233520, Note_on_c, 11, 36, 0
19, 233520, Note_on_c, 11, 35, 115
19, 233760, Note_on_c, 11, 35, 0
19, 233760, Note_on_c, 11, 36, 115
19, 234000, Note_on_c, 11, 36, 0
19, 234000, Note_on_c, 11, 38, 115
19, 234240, Note_on_c, 11, 38, 0
19, 234240, Note_on_c, 11, 40, 115
19, 234480, Note_on_c, 11, 40, 0
19, 234480, Note_on_c, 11, 41, 115
19, 234720, Note_on_c, 11, 41, 0
19, 234720, Note_on_c, 11, 43, 115
19, 235680, Note_on_c, 11, 43, 0
19, 235680, Note_on_c, 11, 41, 115
19, 236160, Note_on_c, 11, 41, 0
19, 236160, Note_on_c, 11, 40, 115
19, 236640, Note_on_c, 11, 40, 0
19, 236640, Note_on_c, 11, 36, 115
19, 237120, Note_on_c, 11, 36, 0
19, 237120, Note_on_c, 11, 45, 115
19, 237600, Note_on_c, 11, 45, 0
19, 237600, Note_on_c, 11, 41, 115
19, 238080, Note_on_c, 11, 41, 0
19, 238080, Note_on_c, 11, 38, 115
19, 238560, Note_on_c, 11, 38, 0
19, 238560, Note_on_c, 11, 47, 115
19, 239040, Note_on_c, 11, 47, 0
19, 239040, Note_on_c, 11, 43, 115
19, 239520, Note_on_c, 11, 43, 0
19, 239520, Note_on_c, 11, 40, 115
19, 240000, Note_on_c, 11, 40, 0
19, 240000, Note_on_c, 11, 48, 115
19, 240480, Note_on_c, 11, 48, 0
19, 240480, Note_on_c, 11, 45, 115
19, 240960, Note_on_c, 11, 45, 0
19, 240960, Note_on_c, 11, 50, 115
19, 241440, Note_on_c, 11, 50, 0
19, 241440, Note_on_c, 11, 48, 115
19, 241920, Note_on_c, 11, 48, 0
19, 241920, Note_on_c, 11, 47, 115
19, 242400, Note_on_c, 11, 47, 0
19, 242400, Note_on_c, 11, 43, 115
19, 242880, Note_on_c, 11, 43, 0
19, 242880, Note_on_c, 11, 40, 115
19, 243360, Note_on_c, 11, 40, 0
19, 243360, Note_on_c, 11, 42, 115
19, 243840, Note_on_c, 11, 42, 0
19, 243840, Note_on_c, 11, 38, 115
19, 244320, Note_on_c, 11, 38, 0
19, 244320, Note_on_c, 11, 42, 115
19, 244800, Note_on_c, 11, 42, 0
19, 244800, Note_on_c, 11, 43, 115
19, 245280, Note_on_c, 11, 43, 0
19, 245280, Note_on_c, 11, 40, 115
19, 245760, Note_on_c, 11, 40, 0
19, 245760, Note_on_c, 11, 44, 115
19, 246240, Note_on_c, 11, 44, 0
19, 246240, Note_on_c, 11, 45, 115
19, 246720, Note_on_c, 11, 45, 0
19, 246720, Note_on_c, 11, 41, 115
19, 247200, Note_on_c, 11, 41, 0
19, 247200, Note_on_c, 11, 45, 115
19, 247680, Note_on_c, 11, 45, 0
19, 247680, Note_on_c, 11, 47, 115
19, 248160, Note_on_c, 11, 47, 0
19, 248160, Note_on_c, 11, 43, 115
19, 248640, Note_on_c, 11, 43, 0
19, 248640, Note_on_c, 11, 52, 115
19, 249120, Note_on_c, 11, 52, 0
19, 249120, Note_on_c, 11, 53, 115
19, 249600, Note_on_c, 11, 53, 0
19, 249600, Note_on_c, 11, 43, 115
19, 250080, Note_on_c, 11, 43, 0
19, 250080, Note_on_c, 11, 53, 115
19, 250560, Note_on_c, 11, 53, 0
19, 250560, Note_on_c, 11, 52, 115
19, 251040, Note_on_c, 11, 52, 0
19, 251040, Note_on_c, 11, 48, 115
19, 251520, Note_on_c, 11, 48, 0
19, 251520, Note_on_c, 11, 47, 115
19, 252000, Note_on_c, 11, 47, 0
19, 252000, Note_on_c, 11, 45, 115
19, 252480, Note_on_c, 11, 45, 0
19, 252480, Note_on_c, 11, 38, 115
19, 252960, Note_on_c, 11, 38, 0
19, 252960, Note_on_c, 11, 48, 115
19, 253440, Note_on_c, 11, 48, 0
19, 253440, Note_on_c, 11, 47, 115
19, 253920, Note_on_c, 11, 47, 0
19, 253920, Note_on_c, 11, 43, 115
19, 254400, Note_on_c, 11, 43, 0
19, 254400, Note_on_c, 11, 40, 115
19, 254880, Note_on_c, 11, 40, 0
19, 254880, Note_on_c, 11, 38, 115
19, 255120, Note_on_c, 11, 38, 0
19, 255120, Note_on_c, 11, 37, 115
19, 255360, Note_on_c, 11, 37, 0
19, 255360, Note_on_c, 11, 38, 115
19, 255600, Note_on_c, 11, 38, 0
19, 255600, Note_on_c, 11, 36, 115
19, 255840, Note_on_c, 11, 36, 0
19, 255840, Note_on_c, 11, 35, 115
19, 256080, Note_on_c, 11, 35, 0
19, 256080, Note_on_c, 11, 33, 115
19, 256320, Note_on_c, 11, 33, 0
19, 256320, Note_on_c, 11, 31, 115
19, 256560, Note_on_c, 11, 31, 0
19, 256560, Note_on_c, 11, 35, 115
19, 256800, Note_on_c, 11, 35, 0
19, 256800, Note_on_c, 11, 38, 115
19, 257040, Note_on_c, 11, 38, 0
19, 257040, Note_on_c, 11, 36, 115
19, 257280, Note_on_c, 11, 36, 0
19, 257280, Note_on_c, 11, 35, 115
19, 257520, Note_on_c, 11, 35, 0
19, 257520, Note_on_c, 11, 33, 115
19, 257760, Note_on_c, 11, 33, 0
19, 257760, Note_on_c, 11, 31, 115
19, 258000, Note_on_c, 11, 31, 0
19, 258000, Note_on_c, 11, 35, 115
19, 258240, Note_on_c, 11, 35, 0
19, 258240, Note_on_c, 11, 38, 115
19, 258480, Note_on_c, 11, 38, 0
19, 258480, Note_on_c, 11, 36, 115
19, 258720, Note_on_c, 11, 36, 0
19, 258720, Note_on_c, 11, 35, 115
19, 258960, Note_on_c, 11, 35, 0
19, 258960, Note_on_c, 11, 33, 115
19, 259200, Note_on_c, 11, 33, 0
19, 259200, Note_on_c, 11, 31, 115
19, 259680, Note_on_c, 11, 31, 0
19, 261600, Note_on_c, 11, 43, 115
19, 262080, Note_on_c, 11, 43, 0
19, 262080, Note_on_c, 11, 41, 115
19, 262320, Note_on_c, 11, 41, 0
19, 262320, Note_on_c, 11, 43, 115
19, 262560, Note_on_c, 11, 43, 0
19, 262560, Note_on_c, 11, 45, 115
19, 262800, Note_on_c, 11, 45, 0
19, 262800, Note_on_c, 11, 38, 115
19, 263040, Note_on_c, 11, 38, 0
19, 263040, Note_on_c, 11, 40, 115
19, 263280, Note_on_c, 11, 40, 0
19, 263280, Note_on_c, 11, 41, 115
19, 263520, Note_on_c, 11, 41, 0
19, 264480, Note_on_c, 11, 43, 115
19, 264960, Note_on_c, 11, 43, 0
19, 264960, Note_on_c, 11, 41, 115
19, 265200, Note_on_c, 11, 41, 0
19, 265200, Note_on_c, 11, 43, 115
19, 265440, Note_on_c, 11, 43, 0
19, 265440, Note_on_c, 11, 45, 115
19, 265680, Note_on_c, 11, 45, 0
19, 265680, Note_on_c, 11, 38, 115
19, 265920, Note_on_c, 11, 38, 0
19, 265920, Note_on_c, 11, 40, 115
19, 266160, Note_on_c, 11, 40, 0
19, 266160, Note_on_c, 11, 41, 115
19, 266400, Note_on_c, 11, 41, 0
19, 267360, Note_on_c, 11, 43, 115
19, 267840, Note_on_c, 11, 43, 0
19, 267840, Note_on_c, 11, 41, 115
19, 268080, Note_on_c, 11, 41, 0
19, 268080, Note_on_c, 11, 43, 115
19, 268320, Note_on_c, 11, 43, 0
19, 268320, Note_on_c, 11, 45, 115
19, 268560, Note_on_c, 11, 45, 0
19, 268560, Note_on_c, 11, 38, 115
19, 268800, Note_on_c, 11, 38, 0
19, 268800, Note_on_c, 11, 40, 115
19, 269040, Note_on_c, 11, 40, 0
19, 269040, Note_on_c, 11, 41, 115
19, 269280, Note_on_c, 11, 41, 0
19, 269280, Note_on_c, 11, 35, 115
19, 269520, Note_on_c, 11, 35, 0
19, 269520, Note_on_c, 11, 36, 115
19, 269760, Note_on_c, 11, 36, 0
19, 269760, Note_on_c, 11, 38, 115
19, 270000, Note_on_c, 11, 38, 0
19, 270000, Note_on_c, 11, 31, 115
19, 270240, Note_on_c, 11, 31, 0
19, 270240, Note_on_c, 11, 33, 115
19, 270480, Note_on_c, 11, 33, 0
19, 270480, Note_on_c, 11, 35, 115
19, 270720, Note_on_c, 11, 35, 0
19, 270720, Note_on_c, 11, 33, 115
19, 270960, Note_on_c, 11, 33, 0
19, 270960, Note_on_c, 11, 35, 115
19, 271200, Note_on_c, 11, 35, 0
19, 271200, Note_on_c, 11, 36, 115
19, 271440, Note_on_c, 11, 36, 0
19, 271440, Note_on_c, 11, 35, 115
19, 271680, Note_on_c, 11, 35, 0
19, 271680, Note_on_c, 11, 36, 115
19, 271920, Note_on_c, 11, 36, 0
19, 271920, Note_on_c, 11, 38, 115
19, 272160, Note_on_c, 11, 38, 0
19, 272160, Note_on_c, 11, 36, 115
19, 272400, Note_on_c, 11, 36, 0
19, 272400, Note_on_c, 11, 38, 115
19, 272640, Note_on_c, 11, 38, 0
19, 272640, Note_on_c, 11, 40, 115
19, 272880, Note_on_c, 11, 40, 0
19, 272880, Note_on_c, 11, 38, 115
19, 273120, Note_on_c, 11, 38, 0
19, 273120, Note_on_c, 11, 40, 115
19, 273360, Note_on_c, 11, 40, 0
19, 273360, Note_on_c, 11, 41, 115
19, 273600, Note_on_c, 11, 41, 0
19, 273600, Note_on_c, 11, 43, 115
19, 274560, Note_on_c, 11, 43, 0
19, 274560, Note_on_c, 11, 41, 115
19, 275040, Note_on_c, 11, 41, 0
19, 275040, Note_on_c, 11, 40, 115
19, 275520, Note_on_c, 11, 40, 0
19, 275520, Note_on_c, 11, 36, 115
19, 276000, Note_on_c, 11, 36, 0
19, 276000, Note_on_c, 11, 35, 115
19, 276480, Note_on_c, 11, 35, 0
19, 276480, Note_on_c, 11, 33, 115
19, 276960, Note_on_c, 11, 33, 0
19, 276960, Note_on_c, 11, 35, 115
19, 277440, Note_on_c, 11, 35, 0
19, 277440, Note_on_c, 11, 31, 115
19, 277920, Note_on_c, 11, 31, 0
19, 277920, Note_on_c, 11, 36, 115
19, 278400, Note_on_c, 11, 36, 0
19, 278400, Note_on_c, 11, 40, 115
19, 278880, Note_on_c, 11, 40, 0
19, 278880, Note_on_c, 11, 41, 115
19, 279360, Note_on_c, 11, 41, 0
19, 279360, Note_on_c, 11, 40, 115
19, 279600, Note_on_c, 11, 40, 0
19, 279600, Note_on_c, 11, 41, 115
19, 279840, Note_on_c, 11, 41, 0
19, 279840, Note_on_c, 11, 43, 115
19, 280080, Note_on_c, 11, 43, 0
19, 280080, Note_on_c, 11, 36, 115
19, 280320, Note_on_c, 11, 36, 0
19, 280320, Note_on_c, 11, 38, 115
19, 280560, Note_on_c, 11, 38, 0
19, 280560, Note_on_c, 11, 40, 115
19, 280800, Note_on_c, 11, 40, 0
19, 280800, Note_on_c, 11, 41, 115
19, 281040, Note_on_c, 11, 41, 0
19, 281040, Note_on_c, 11, 40, 115
19, 281280, Note_on_c, 11, 40, 0
19, 281280, Note_on_c, 11, 41, 115
19, 281520, Note_on_c, 11, 41, 0
19, 281520, Note_on_c, 11, 43, 115
19, 281760, Note_on_c, 11, 43, 0
19, 281760, Note_on_c, 11, 45, 115
19, 282000, Note_on_c, 11, 45, 0
19, 282000, Note_on_c, 11, 46, 115
19, 282240, Note_on_c, 11, 46, 0
19, 282240, Note_on_c, 11, 48, 115
19, 283200, Note_on_c, 11, 48, 0
19, 283200, Note_on_c, 11, 46, 115
19, 283680, Note_on_c, 11, 46, 0
19, 283680, Note_on_c, 11, 45, 115
19, 284160, Note_on_c, 11, 45, 0
19, 284160, Note_on_c, 11, 41, 115
19, 284640, Note_on_c, 11, 41, 0
19, 285120, Note_on_c, 11, 43, 115
19, 286560, Note_on_c, 11, 43, 0
19, 286560, Note_on_c, 11, 36, 115
19, 288000, Note_on_c, 11, 36, 0
19, 288000, Note_on_c, 11, 48, 115
19, 289440, Note_on_c, 11, 48, 0
19, 289440, Note_on_c, 11, 41, 115
19, 290400, Note_on_c, 11, 41, 0
19, 290400, Note_on_c, 11, 41, 115
19, 290880, Note_on_c, 11, 41, 0
19, 290880, Note_on_c, 11, 43, 115
19, 291360, Note_on_c, 11, 43, 0
19, 291360, Note_on_c, 11, 31, 115
19, 291840, Note_on_c, 11, 31, 0
19, 291840, Note_on_c, 11, 43, 115
19, 292800, Note_on_c, 11, 43, 0
19, 292800, Note_on_c, 11, 31, 115
19, 293280, Note_on_c, 11, 31, 0
19, 293280, Note_on_c, 11, 43, 115
19, 294240, Note_on_c, 11, 43, 0
19, 294240, Note_on_c, 11, 31, 115
19, 294720, Note_on_c, 11, 31, 0
19, 294720, Note_on_c, 11, 43, 115
19, 295680, Note_on_c, 11, 43, 0
19, 295680, Note_on_c, 11, 31, 115
19, 296160, Note_on_c, 11, 31, 0
19, 296160, Note_on_c, 11, 43, 115
19, 297120, Note_on_c, 11, 43, 0
19, 297120, Note_on_c, 11, 31, 115
19, 297600, Note_on_c, 11, 31, 0
19, 297600, Note_on_c, 11, 43, 115
19, 298560, Note_on_c, 11, 43, 0
19, 298560, Note_on_c, 11, 31, 115
19, 299040, Note_on_c, 11, 31, 0
19, 299040, Note_on_c, 11, 43, 115
19, 300000, Note_on_c, 11, 43, 0
19, 300000, Note_on_c, 11, 31, 115
19, 300480, Note_on_c, 11, 31, 0
19, 300480, Note_on_c, 11, 43, 115
19, 300960, Note_on_c, 11, 43, 0
19, 300960, Note_on_c, 11, 31, 115
19, 301440, Note_on_c, 11, 31, 0
19, 301440, Note_on_c, 11, 43, 115
19, 301920, Note_on_c, 11, 43, 0
19, 301920, Note_on_c, 11, 31, 115
19, 302400, Note_on_c, 11, 31, 0
19, 302400, Note_on_c, 11, 43, 115
19, 302880, Note_on_c, 11, 43, 0
19, 302880, Note_on_c, 11, 31, 115
19, 303360, Note_on_c, 11, 31, 0
19, 303360, Note_on_c, 11, 43, 115
19, 303840, Note_on_c, 11, 43, 0
19, 303840, Note_on_c, 11, 31, 115
19, 304320, Note_on_c, 11, 31, 0
19, 304320, Note_on_c, 11, 43, 115
19, 304800, Note_on_c, 11, 43, 0
19, 304800, Note_on_c, 11, 31, 115
19, 305280, Note_on_c, 11, 31, 0
19, 305280, Note_on_c, 11, 43, 115
19, 305760, Note_on_c, 11, 43, 0
19, 305760, Note_on_c, 11, 43, 115
19, 306240, Note_on_c, 11, 43, 0
19, 306240, Note_on_c, 11, 43, 115
19, 306720, Note_on_c, 11, 43, 0
19, 306720, Note_on_c, 11, 43, 115
19, 307200, Note_on_c, 11, 43, 0
19, 307200, Note_on_c, 11, 41, 115
19, 307680, Note_on_c, 11, 41, 0
19, 307680, Note_on_c, 11, 38, 115
19, 308160, Note_on_c, 11, 38, 0
19, 308160, Note_on_c, 11, 36, 115
19, 308400, Note_on_c, 11, 36, 0
19, 308400, Note_on_c, 11, 40, 115
19, 308640, Note_on_c, 11, 40, 0
19, 308640, Note_on_c, 11, 43, 115
19, 308880, Note_on_c, 11, 43, 0
19, 308880, Note_on_c, 11, 41, 115
19, 309120, Note_on_c, 11, 41, 0
19, 309120, Note_on_c, 11, 40, 115
19, 309360, Note_on_c, 11, 40, 0
19, 309360, Note_on_c, 11, 38, 115
19, 309600, Note_on_c, 11, 38, 0
19, 309600, Note_on_c, 11, 36, 115
19, 309840, Note_on_c, 11, 36, 0
19, 309840, Note_on_c, 11, 40, 115
19, 310080, Note_on_c, 11, 40, 0
19, 310080, Note_on_c, 11, 43, 115
19, 310320, Note_on_c, 11, 43, 0
19, 310320, Note_on_c, 11, 41, 115
19, 310560, Note_on_c, 11, 41, 0
19, 310560, Note_on_c, 11, 40, 115
19, 310800, Note_on_c, 11, 40, 0
19, 310800, Note_on_c, 11, 38, 115
19, 311040, Note_on_c, 11, 38, 0
19, 311040, Note_on_c, 11, 36, 115
19, 311520, Note_on_c, 11, 36, 0
19, 324000, Note_on_c, 11, 36, 91
19, 324240, Note_on_c, 11, 36, 0
19, 324240, Note_on_c, 11, 38, 91
19, 324480, Note_on_c, 11, 38, 0
19, 324480, Note_on_c, 11, 40, 91
19, 324720, Note_on_c, 11, 40, 0
19, 324720, Note_on_c, 11, 38, 91
19, 324960, Note_on_c, 11, 38, 0
19, 324960, Note_on_c, 11, 40, 91
19, 325200, Note_on_c, 11, 40, 0
19, 325200, Note_on_c, 11, 41, 91
19, 325440, Note_on_c, 11, 41, 0
19, 325440, Note_on_c, 11, 43, 91
19, 326400, Note_on_c, 11, 43, 0
19, 326400, Note_on_c, 11, 41, 91
19, 326880, Note_on_c, 11, 41, 0
19, 326880, Note_on_c, 11, 40, 91
19, 327360, Note_on_c, 11, 40, 0
19, 327360, Note_on_c, 11, 36, 91
19, 327840, Note_on_c, 11, 36, 0
19, 327840, Note_on_c, 11, 35, 91
19, 328320, Note_on_c, 11, 35, 0
19, 328320, Note_on_c, 11, 33, 91
19, 328800, Note_on_c, 11, 33, 0
19, 328800, Note_on_c, 11, 35, 91
19, 329280, Note_on_c, 11, 35, 0
19, 329280, Note_on_c, 11, 31, 91
19, 329760, Note_on_c, 11, 31, 0
19, 329760, Note_on_c, 11, 36, 91
19, 330240, Note_on_c, 11, 36, 0
19, 330240, Note_on_c, 11, 40, 91
19, 330720, Note_on_c, 11, 40, 0
19, 330720, Note_on_c, 11, 41, 91
19, 331200, Note_on_c, 11, 41, 0
19, 331200, Note_on_c, 11, 40, 91
19, 331440, Note_on_c, 11, 40, 0
19, 331440, Note_on_c, 11, 41, 91
19, 331680, Note_on_c, 11, 41, 0
19, 331680, Note_on_c, 11, 43, 91
19, 331920, Note_on_c, 11, 43, 0
19, 331920, Note_on_c, 11, 36, 91
19, 332160, Note_on_c, 11, 36, 0
19, 332160, Note_on_c, 11, 38, 91
19, 332400, Note_on_c, 11, 38, 0
19, 332400, Note_on_c, 11, 40, 91
19, 332640, Note_on_c, 11, 40, 0
19, 332640, Note_on_c, 11, 41, 91
19, 332880, Note_on_c, 11, 41, 0
19, 332880, Note_on_c, 11, 40, 91
19, 333120, Note_on_c, 11, 40, 0
19, 333120, Note_on_c, 11, 41, 91
19, 333360, Note_on_c, 11, 41, 0
19, 333360, Note_on_c, 11, 43, 91
19, 333600, Note_on_c, 11, 43, 0
19, 333600, Note_on_c, 11, 45, 91
19, 333840, Note_on_c, 11, 45, 0
19, 333840, Note_on_c, 11, 46, 91
19, 334080, Note_on_c, 11, 46, 0
19, 334080, Note_on_c, 11, 48, 91
19, 335040, Note_on_c, 11, 48, 0
19, 335040, Note_on_c, 11, 46, 91
19, 335520, Note_on_c, 11, 46, 0
19, 335520, Note_on_c, 11, 45, 91
19, 336000, Note_on_c, 11, 45, 0
19, 336000, Note_on_c, 11, 41, 91
19, 336480, Note_on_c, 11, 41, 0
19, 336960, Note_on_c, 11, 43, 91
19, 337440, Note_on_c, 11, 43, 0
19, 338400, Note_on_c, 11, 36, 91
19, 338880, Note_on_c, 11, 36, 0
19, 339840, Note_on_c, 11, 36, 91
19, 340320, Note_on_c, 11, 36, 0
19, 341280, Note_on_c, 11, 29, 91
19, 341760, Note_on_c, 11, 29, 0
19, 342720, Note_on_c, 11, 31, 91
19, 343200, Note_on_c, 11, 31, 0
19, 361440, Note_on_c, 11, 42, 91
19, 361920, Note_on_c, 11, 42, 0
19, 362880, Note_on_c, 11, 41, 91
19, 363360, Note_on_c, 11, 41, 0
19, 364320, Note_on_c, 11, 39, 91
19, 364800, Note_on_c, 11, 39, 0
19, 365760, Note_on_c, 11, 38, 91
19, 366240, Note_on_c, 11, 38, 0
19, 366720, Note_on_c, 11, 44, 91
19, 367200, Note_on_c, 11, 44, 0
19, 367200, Note_on_c, 11, 43, 91
19, 367680, Note_on_c, 11, 43, 0
19, 368160, Note_on_c, 11, 31, 78
19, 368640, Note_on_c, 11, 31, 0
19, 368640, Note_on_c, 11, 36, 78
19, 370560, Note_on_c, 11, 36, 0
19, 370560, Note_on_c, 11, 39, 78
19, 371040, Note_on_c, 11, 39, 0
19, 371040, Note_on_c, 11, 43, 78
19, 371520, Note_on_c, 11, 43, 0
19, 371520, Note_on_c, 11, 48, 78
19, 372000, Note_on_c, 11, 48, 0
19, 372480, Note_on_c, 11, 51, 78
19, 372960, Note_on_c, 11, 51, 0
19, 372960, Note_on_c, 11, 50, 78
19, 373440, Note_on_c, 11, 50, 0
19, 373920, Note_on_c, 11, 42, 78
19, 374400, Note_on_c, 11, 42, 0
19, 374400, Note_on_c, 11, 43, 78
19, 377280, Note_on_c, 11, 43, 0
19, 377280, Note_on_c, 11, 36, 78
19, 380160, Note_on_c, 11, 36, 0
19, 380160, Note_on_c, 11, 31, 78
19, 381120, Note_on_c, 11, 31, 0
19, 495360, Note_on_c, 11, 32, 63
19, 499680, Note_on_c, 11, 32, 0
19, 499680, Note_on_c, 11, 32, 63
19, 506880, Note_on_c, 11, 32, 0
19, 506880, Note_on_c, 11, 32, 63
19, 514080, Note_on_c, 11, 32, 0
19, 514080, Note_on_c, 11, 32, 78
19, 517440, Note_on_c, 11, 32, 0
19, 517440, Note_on_c, 11, 32, 78
19, 517920, Note_on_c, 11, 32, 0
19, 517920, Note_on_c, 11, 32, 78
19, 518400, Note_on_c, 11, 32, 0
19, 518400, Note_on_c, 11, 32, 78
19, 518880, Note_on_c, 11, 32, 0
19, 518880, Note_on_c, 11, 32, 78
19, 519360, Note_on_c, 11, 32, 0
19, 519360, Note_on_c, 11, 32, 78
19, 519840, Note_on_c, 11, 32, 0
19, 519840, Note_on_c, 11, 32, 78
19, 520320, Note_on_c, 11, 32, 0
19, 521760, Note_on_c, 11, 31, 78
19, 522240, Note_on_c, 11, 31, 0
19, 522240, Note_on_c, 11, 31, 78
19, 522720, Note_on_c, 11, 31, 0
19, 522720, Note_on_c, 11, 31, 78
19, 523200, Note_on_c, 11, 31, 0
19, 524640, Note_on_c, 11, 30, 78
19, 525120, Note_on_c, 11, 30, 0
19, 525120, Note_on_c, 11, 30, 78
19, 525600, Note_on_c, 11, 30, 0
19, 525600, Note_on_c, 11, 29, 78
19, 526080, Note_on_c, 11, 29, 0
19, 527520, Note_on_c, 11, 31, 78
19, 528000, Note_on_c, 11, 31, 0
19, 528000, Note_on_c, 11, 31, 78
19, 528480, Note_on_c, 11, 31, 0
19, 528480, Note_on_c, 11, 31, 78
19, 528960, Note_on_c, 11, 31, 0
19, 530400, Note_on_c, 11, 32, 78
19, 530880, Note_on_c, 11, 32, 0
19, 530880, Note_on_c, 11, 32, 78
19, 531360, Note_on_c, 11, 32, 0
19, 531360, Note_on_c, 11, 32, 78
19, 531840, Note_on_c, 11, 32, 0
19, 533280, Note_on_c, 11, 31, 78
19, 533760, Note_on_c, 11, 31, 0
19, 533760, Note_on_c, 11, 31, 78
19, 534240, Note_on_c, 11, 31, 0
19, 534240, Note_on_c, 11, 31, 78
19, 534720, Note_on_c, 11, 31, 0
19, 534720, Note_on_c, 11, 31, 78
19, 535200, Note_on_c, 11, 31, 0
19, 535200, Note_on_c, 11, 31, 78
19, 535680, Note_on_c, 11, 31, 0
19, 535680, Note_on_c, 11, 31, 78
19, 536160, Note_on_c, 11, 31, 0
19, 536160, Note_on_c, 11, 31, 78
19, 536640, Note_on_c, 11, 31, 0
19, 536640, Note_on_c, 11, 31, 78
19, 537120, Note_on_c, 11, 31, 0
19, 537120, Note_on_c, 11, 31, 78
19, 537600, Note_on_c, 11, 31, 0
19, 537600, Note_on_c, 11, 31, 78
19, 538080, Note_on_c, 11, 31, 0
19, 538080, Note_on_c, 11, 31, 78
19, 538560, Note_on_c, 11, 31, 0
19, 538560, Note_on_c, 11, 31, 78
19, 539040, Note_on_c, 11, 31, 0
19, 539040, Note_on_c, 11, 31, 78
19, 539520, Note_on_c, 11, 31, 0
19, 539520, Note_on_c, 11, 31, 78
19, 540000, Note_on_c, 11, 31, 0
19, 540000, Note_on_c, 11, 31, 78
19, 540480, Note_on_c, 11, 31, 0
19, 540480, Note_on_c, 11, 31, 78
19, 540960, Note_on_c, 11, 31, 0
19, 540960, Note_on_c, 11, 31, 78
19, 541440, Note_on_c, 11, 31, 0
19, 541440, Note_on_c, 11, 31, 78
19, 541920, Note_on_c, 11, 31, 0
19, 541920, Note_on_c, 11, 31, 78
19, 542400, Note_on_c, 11, 31, 0
19, 542400, Note_on_c, 11, 31, 78
19, 542880, Note_on_c, 11, 31, 0
19, 542880, Note_on_c, 11, 31, 78
19, 543360, Note_on_c, 11, 31, 0
19, 543360, Note_on_c, 11, 31, 78
19, 543840, Note_on_c, 11, 31, 0
19, 543840, Note_on_c, 11, 31, 78
19, 544320, Note_on_c, 11, 31, 0
19, 544320, Note_on_c, 11, 31, 78
19, 544800, Note_on_c, 11, 31, 0
19, 544800, Note_on_c, 11, 31, 78
19, 545280, Note_on_c, 11, 31, 0
19, 545280, Note_on_c, 11, 31, 78
19, 545760, Note_on_c, 11, 31, 0
19, 545760, Note_on_c, 11, 31, 78
19, 546240, Note_on_c, 11, 31, 0
19, 546240, Note_on_c, 11, 31, 78
19, 546720, Note_on_c, 11, 31, 0
19, 546720, Note_on_c, 11, 31, 78
19, 547200, Note_on_c, 11, 31, 0
19, 547200, Note_on_c, 11, 31, 78
19, 547680, Note_on_c, 11, 31, 0
19, 547680, Note_on_c, 11, 31, 78
19, 548160, Note_on_c, 11, 31, 0
19, 548160, Note_on_c, 11, 31, 78
19, 548640, Note_on_c, 11, 31, 0
19, 548640, Note_on_c, 11, 31, 78
19, 549120, Note_on_c, 11, 31, 0
19, 549120, Note_on_c, 11, 31, 78
19, 549600, Note_on_c, 11, 31, 0
19, 549600, Note_on_c, 11, 31, 78
19, 550080, Note_on_c, 11, 31, 0
19, 550080, Note_on_c, 11, 31, 78
19, 550560, Note_on_c, 11, 31, 0
19, 550560, Note_on_c, 11, 31, 78
19, 551040, Note_on_c, 11, 31, 0
19, 551040, Note_on_c, 11, 31, 78
19, 551520, Note_on_c, 11, 31, 0
19, 551520, Note_on_c, 11, 31, 78
19, 552000, Note_on_c, 11, 31, 0
19, 552000, Note_on_c, 11, 31, 78
19, 552480, Note_on_c, 11, 31, 0
19, 552480, Note_on_c, 11, 31, 78
19, 552960, Note_on_c, 11, 31, 0
19, 552960, Note_on_c, 11, 31, 78
19, 553440, Note_on_c, 11, 31, 0
19, 553440, Note_on_c, 11, 31, 78
19, 553920, Note_on_c, 11, 31, 0
19, 553920, Note_on_c, 11, 31, 78
19, 554400, Note_on_c, 11, 31, 0
19, 554400, Note_on_c, 11, 31, 78
19, 554880, Note_on_c, 11, 31, 0
19, 554880, Note_on_c, 11, 31, 78
19, 555360, Note_on_c, 11, 31, 0
19, 555360, Note_on_c, 11, 31, 78
19, 555840, Note_on_c, 11, 31, 0
19, 555840, Note_on_c, 11, 31, 91
19, 556080, Note_on_c, 11, 31, 0
19, 556080, Note_on_c, 11, 31, 91
19, 556320, Note_on_c, 11, 31, 0
19, 556320, Note_on_c, 11, 31, 91
19, 556560, Note_on_c, 11, 31, 0
19, 556560, Note_on_c, 11, 31, 91
19, 556800, Note_on_c, 11, 31, 0
19, 556800, Note_on_c, 11, 31, 91
19, 557040, Note_on_c, 11, 31, 0
19, 557040, Note_on_c, 11, 31, 91
19, 557280, Note_on_c, 11, 31, 0
19, 557280, Note_on_c, 11, 31, 91
19, 557520, Note_on_c, 11, 31, 0
19, 557520, Note_on_c, 11, 31, 91
19, 557760, Note_on_c, 11, 31, 0
19, 557760, Note_on_c, 11, 31, 91
19, 558000, Note_on_c, 11, 31, 0
19, 558000, Note_on_c, 11, 31, 91
19, 558240, Note_on_c, 11, 31, 0
19, 558240, Note_on_c, 11, 31, 91
19, 558480, Note_on_c, 11, 31, 0
19, 558480, Note_on_c, 11, 31, 91
19, 558720, Note_on_c, 11, 31, 0
19, 558720, Note_on_c, 11, 31, 101
19, 558960, Note_on_c, 11, 31, 0
19, 558960, Note_on_c, 11, 31, 101
19, 559200, Note_on_c, 11, 31, 0
19, 559200, Note_on_c, 11, 31, 101
19, 559440, Note_on_c, 11, 31, 0
19, 559440, Note_on_c, 11, 31, 101
19, 559680, Note_on_c, 11, 31, 0
19, 559680, Note_on_c, 11, 31, 101
19, 559920, Note_on_c, 11, 31, 0
19, 559920, Note_on_c, 11, 31, 101
19, 560160, Note_on_c, 11, 31, 0
19, 560160, Note_on_c, 11, 31, 101
19, 560400, Note_on_c, 11, 31, 0
19, 560400, Note_on_c, 11, 31, 101
19, 560640, Note_on_c, 11, 31, 0
19, 560640, Note_on_c, 11, 31, 101
19, 560880, Note_on_c, 11, 31, 0
19, 560880, Note_on_c, 11, 31, 101
19, 561120, Note_on_c, 11, 31, 0
19, 561120, Note_on_c, 11, 31, 101
19, 561360, Note_on_c, 11, 31, 0
19, 561360, Note_on_c, 11, 31, 101
19, 561600, Note_on_c, 11, 31, 0
19, 561600, Note_on_c, 11, 31, 109
19, 561840, Note_on_c, 11, 31, 0
19, 561840, Note_on_c, 11, 31, 109
19, 562080, Note_on_c, 11, 31, 0
19, 562080, Note_on_c, 11, 31, 109
19, 562320, Note_on_c, 11, 31, 0
19, 562320, Note_on_c, 11, 31, 109
19, 562560, Note_on_c, 11, 31, 0
19, 562560, Note_on_c, 11, 31, 109
19, 562800, Note_on_c, 11, 31, 0
19, 562800, Note_on_c, 11, 31, 109
19, 563040, Note_on_c, 11, 31, 0
19, 563040, Note_on_c, 11, 31, 115
19, 563280, Note_on_c, 11, 31, 0
19, 563280, Note_on_c, 11, 31, 115
19, 563520, Note_on_c, 11, 31, 0
19, 563520, Note_on_c, 11, 31, 115
19, 563760, Note_on_c, 11, 31, 0
19, 563760, Note_on_c, 11, 31, 115
19, 564000, Note_on_c, 11, 31, 0
19, 564000, Note_on_c, 11, 31, 115
19, 564240, Note_on_c, 11, 31, 0
19, 564240, Note_on_c, 11, 31, 115
19, 564480, Note_on_c, 11, 31, 0
19, 564480, Note_on_c, 11, 31, 123
19, 564720, Note_on_c, 11, 31, 0
19, 564720, Note_on_c, 11, 31, 123
19, 564960, Note_on_c, 11, 31, 0
19, 564960, Note_on_c, 11, 31, 123
19, 565200, Note_on_c, 11, 31, 0
19, 565200, Note_on_c, 11, 31, 123
19, 565440, Note_on_c, 11, 31, 0
19, 565440, Note_on_c, 11, 31, 123
19, 565680, Note_on_c, 11, 31, 0
19, 565680, Note_on_c, 11, 31, 123
19, 565920, Note_on_c, 11, 31, 0
19, 565920, Note_on_c, 11, 31, 127
19, 566160, Note_on_c, 11, 31, 0
19, 566160, Note_on_c, 11, 31, 127
19, 566400, Note_on_c, 11, 31, 0
19, 566400, Note_on_c, 11, 31, 127
19, 566640, Note_on_c, 11, 31, 0
19, 566640, Note_on_c, 11, 31, 127
19, 566880, Note_on_c, 11, 31, 0
19, 566880, Note_on_c, 11, 31, 127
19, 567120, Note_on_c, 11, 31, 0
19, 567120, Note_on_c, 11, 31, 127
19, 567360, Note_on_c, 11, 31, 0
19, 567360, End_track
0, 0, End_of_file
