0, 0, Header, 1, 19, 480
1, 0, Start_track
1, 0, Time_signature, 3, 3, 12, 8
1, 0, Key_signature, 0, "major"
1, 0, Tempo, 1304347
1, 147600, Tempo, 1034482
1, 158400, Tempo, 1304347
1, 158400, End_track
2, 0, Start_track
2, 0, MIDI_port, 0
2, 0, Title_t, "Flute 1"
2, 0, Program_c, 0, 73
2, 7680, Note_on_c, 0, 80, 91
2, 7860, Note_on_c, 0, 80, 0
2, 7860, Note_on_c, 0, 84, 91
2, 7920, Note_on_c, 0, 84, 0
2, 7920, Note_on_c, 0, 87, 115
2, 8640, Note_on_c, 0, 87, 0
2, 8640, Note_on_c, 0, 85, 91
2, 8880, Note_on_c, 0, 85, 0
2, 8880, Note_on_c, 0, 84, 91
2, 9360, Note_on_c, 0, 84, 0
2, 9360, Note_on_c, 0, 82, 91
2, 9600, Note_on_c, 0, 82, 0
2, 9600, Note_on_c, 0, 80, 91
2, 10080, Note_on_c, 0, 80, 0
2, 10080, Note_on_c, 0, 79, 91
2, 10560, Note_on_c, 0, 79, 0
2, 10560, Note_on_c, 0, 79, 91
2, 10640, Note_on_c, 0, 79, 0
2, 10640, Note_on_c, 0, 80, 91
2, 10720, Note_on_c, 0, 80, 0
2, 10720, Note_on_c, 0, 82, 91
2, 10800, Note_on_c, 0, 82, 0
2, 10800, Note_on_c, 0, 80, 91
2, 11040, Note_on_c, 0, 80, 0
2, 14160, Note_on_c, 0, 79, 91
2, 14240, Note_on_c, 0, 79, 0
2, 14240, Note_on_c, 0, 80, 91
2, 14320, Note_on_c, 0, 80, 0
2, 14320, Note_on_c, 0, 82, 91
2, 14400, Note_on_c, 0, 82, 0
2, 14400, Note_on_c, 0, 80, 91
2, 14640, Note_on_c, 0, 80, 0
2, 14880, Note_on_c, 0, 82, 115
2, 15120, Note_on_c, 0, 82, 0
2, 15120, Note_on_c, 0, 80, 115
2, 15240, Note_on_c, 0, 80, 0
2, 15360, Note_on_c, 0, 80, 91
2, 15480, Note_on_c, 0, 80, 0
2, 15600, Note_on_c, 0, 80, 91
2, 15720, Note_on_c, 0, 80, 0
2, 15840, Note_on_c, 0, 80, 91
2, 16080, Note_on_c, 0, 80, 0
2, 20640, Note_on_c, 0, 87, 78
2, 20820, Note_on_c, 0, 87, 0
2, 20820, Note_on_c, 0, 89, 78
2, 20880, Note_on_c, 0, 89, 0
2, 20880, Note_on_c, 0, 90, 123
2, 21600, Note_on_c, 0, 90, 0
2, 21600, Note_on_c, 0, 91, 123
2, 21780, Note_on_c, 0, 91, 0
2, 21780, Note_on_c, 0, 88, 123
2, 21840, Note_on_c, 0, 88, 0
2, 21840, Note_on_c, 0, 84, 123
2, 22080, Note_on_c, 0, 84, 0
2, 22080, Note_on_c, 0, 86, 123
2, 22320, Note_on_c, 0, 86, 0
2, 22320, Note_on_c, 0, 84, 123
2, 22560, Note_on_c, 0, 84, 0
2, 42600, Note_on_c, 0, 79, 91
2, 42720, Note_on_c, 0, 79, 0
2, 42720, Note_on_c, 0, 82, 91
2, 42780, Note_on_c, 0, 82, 0
2, 42780, Note_on_c, 0, 80, 101
2, 42840, Note_on_c, 0, 80, 0
2, 42840, Note_on_c, 0, 79, 101
2, 42960, Note_on_c, 0, 79, 0
2, 42960, Note_on_c, 0, 80, 109
2, 43080, Note_on_c, 0, 80, 0
2, 43080, Note_on_c, 0, 84, 109
2, 43200, Note_on_c, 0, 84, 0
2, 43200, Note_on_c, 0, 86, 115
2, 43320, Note_on_c, 0, 86, 0
2, 43320, Note_on_c, 0, 87, 115
2, 43440, Note_on_c, 0, 87, 0
2, 43440, Note_on_c, 0, 89, 109
2, 43560, Note_on_c, 0, 89, 0
2, 43560, Note_on_c, 0, 87, 109
2, 43680, Note_on_c, 0, 87, 0
2, 43680, Note_on_c, 0, 86, 101
2, 43800, Note_on_c, 0, 86, 0
2, 43800, Note_on_c, 0, 87, 101
2, 43920, Note_on_c, 0, 87, 0
2, 43920, Note_on_c, 0, 85, 91
2, 44160, Note_on_c, 0, 85, 0
2, 44160, Note_on_c, 0, 84, 91
2, 44640, Note_on_c, 0, 84, 0
2, 44640, Note_on_c, 0, 82, 91
2, 44880, Note_on_c, 0, 82, 0
2, 44880, Note_on_c, 0, 80, 91
2, 45360, Note_on_c, 0, 80, 0
2, 45360, Note_on_c, 0, 79, 91
2, 45840, Note_on_c, 0, 79, 0
2, 45840, Note_on_c, 0, 79, 91
2, 45920, Note_on_c, 0, 79, 0
2, 45920, Note_on_c, 0, 80, 91
2, 46000, Note_on_c, 0, 80, 0
2, 46000, Note_on_c, 0, 82, 91
2, 46080, Note_on_c, 0, 82, 0
2, 46080, Note_on_c, 0, 80, 91
2, 46320, Note_on_c, 0, 80, 0
2, 49440, Note_on_c, 0, 79, 91
2, 49520, Note_on_c, 0, 79, 0
2, 49520, Note_on_c, 0, 80, 101
2, 49600, Note_on_c, 0, 80, 0
2, 49600, Note_on_c, 0, 82, 109
2, 49680, Note_on_c, 0, 82, 0
2, 49680, Note_on_c, 0, 80, 91
2, 49920, Note_on_c, 0, 80, 0
2, 50160, Note_on_c, 0, 82, 115
2, 50400, Note_on_c, 0, 82, 0
2, 50400, Note_on_c, 0, 80, 115
2, 50520, Note_on_c, 0, 80, 0
2, 50640, Note_on_c, 0, 80, 91
2, 50760, Note_on_c, 0, 80, 0
2, 50880, Note_on_c, 0, 80, 91
2, 51000, Note_on_c, 0, 80, 0
2, 51120, Note_on_c, 0, 80, 91
2, 51360, Note_on_c, 0, 80, 0
2, 55920, Note_on_c, 0, 87, 78
2, 56100, Note_on_c, 0, 87, 0
2, 56100, Note_on_c, 0, 89, 78
2, 56160, Note_on_c, 0, 89, 0
2, 56160, Note_on_c, 0, 90, 123
2, 56880, Note_on_c, 0, 90, 0
2, 56880, Note_on_c, 0, 91, 123
2, 57060, Note_on_c, 0, 91, 0
2, 57060, Note_on_c, 0, 88, 123
2, 57120, Note_on_c, 0, 88, 0
2, 57120, Note_on_c, 0, 84, 123
2, 57360, Note_on_c, 0, 84, 0
2, 57360, Note_on_c, 0, 86, 123
2, 57600, Note_on_c, 0, 86, 0
2, 57600, Note_on_c, 0, 84, 123
2, 57840, Note_on_c, 0, 84, 0
2, 70440, Note_on_c, 0, 75, 123
2, 70560, Note_on_c, 0, 75, 0
2, 70560, Note_on_c, 0, 87, 115
2, 71280, Note_on_c, 0, 87, 0
2, 71280, Note_on_c, 0, 87, 91
2, 73440, Note_on_c, 0, 87, 0
2, 73440, Note_on_c, 0, 88, 91
2, 74160, Note_on_c, 0, 88, 0
2, 74160, Note_on_c, 0, 89, 91
2, 75120, Note_on_c, 0, 89, 0
2, 75120, Note_on_c, 0, 87, 78
2, 76320, Note_on_c, 0, 87, 0
2, 76320, Note_on_c, 0, 84, 78
2, 76560, Note_on_c, 0, 84, 0
2, 82200, Note_on_c, 0, 84, 115
2, 82320, Note_on_c, 0, 84, 0
2, 82320, Note_on_c, 0, 84, 115
2, 82440, Note_on_c, 0, 84, 0
2, 82440, Note_on_c, 0, 84, 115
2, 82560, Note_on_c, 0, 84, 0
2, 82560, Note_on_c, 0, 84, 115
2, 82680, Note_on_c, 0, 84, 0
2, 82680, Note_on_c, 0, 84, 115
2, 82800, Note_on_c, 0, 84, 0
2, 82800, Note_on_c, 0, 84, 115
2, 82920, Note_on_c, 0, 84, 0
2, 82920, Note_on_c, 0, 84, 115
2, 83040, Note_on_c, 0, 84, 0
2, 83040, Note_on_c, 0, 84, 115
2, 83160, Note_on_c, 0, 84, 0
2, 83160, Note_on_c, 0, 84, 115
2, 83280, Note_on_c, 0, 84, 0
2, 83280, Note_on_c, 0, 84, 115
2, 83400, Note_on_c, 0, 84, 0
2, 83400, Note_on_c, 0, 84, 115
2, 83520, Note_on_c, 0, 84, 0
2, 83520, Note_on_c, 0, 84, 115
2, 83640, Note_on_c, 0, 84, 0
2, 83640, Note_on_c, 0, 84, 115
2, 83760, Note_on_c, 0, 84, 0
2, 83760, Note_on_c, 0, 85, 115
2, 83880, Note_on_c, 0, 85, 0
2, 83880, Note_on_c, 0, 85, 115
2, 84000, Note_on_c, 0, 85, 0
2, 84000, Note_on_c, 0, 85, 115
2, 84120, Note_on_c, 0, 85, 0
2, 84120, Note_on_c, 0, 85, 115
2, 84240, Note_on_c, 0, 85, 0
2, 84240, Note_on_c, 0, 85, 115
2, 84360, Note_on_c, 0, 85, 0
2, 84360, Note_on_c, 0, 85, 115
2, 84480, Note_on_c, 0, 85, 0
2, 84480, Note_on_c, 0, 85, 115
2, 84600, Note_on_c, 0, 85, 0
2, 84600, Note_on_c, 0, 85, 115
2, 84720, Note_on_c, 0, 85, 0
2, 84720, Note_on_c, 0, 86, 115
2, 84840, Note_on_c, 0, 86, 0
2, 84840, Note_on_c, 0, 86, 115
2, 84960, Note_on_c, 0, 86, 0
2, 84960, Note_on_c, 0, 88, 115
2, 85080, Note_on_c, 0, 88, 0
2, 85080, Note_on_c, 0, 88, 115
2, 85200, Note_on_c, 0, 88, 0
2, 85200, Note_on_c, 0, 88, 115
2, 85320, Note_on_c, 0, 88, 0
2, 85320, Note_on_c, 0, 88, 115
2, 85440, Note_on_c, 0, 88, 0
2, 85440, Note_on_c, 0, 88, 115
2, 85560, Note_on_c, 0, 88, 0
2, 85560, Note_on_c, 0, 88, 115
2, 85680, Note_on_c, 0, 88, 0
2, 85680, Note_on_c, 0, 89, 115
2, 85800, Note_on_c, 0, 89, 0
2, 85800, Note_on_c, 0, 89, 115
2, 85920, Note_on_c, 0, 89, 0
2, 85920, Note_on_c, 0, 89, 115
2, 86040, Note_on_c, 0, 89, 0
2, 86040, Note_on_c, 0, 89, 115
2, 86160, Note_on_c, 0, 89, 0
2, 86160, Note_on_c, 0, 89, 115
2, 86280, Note_on_c, 0, 89, 0
2, 86280, Note_on_c, 0, 89, 115
2, 86400, Note_on_c, 0, 89, 0
2, 86400, Note_on_c, 0, 89, 115
2, 86520, Note_on_c, 0, 89, 0
2, 86520, Note_on_c, 0, 87, 115
2, 86640, Note_on_c, 0, 87, 0
2, 86640, Note_on_c, 0, 87, 115
2, 86760, Note_on_c, 0, 87, 0
2, 86760, Note_on_c, 0, 87, 115
2, 86880, Note_on_c, 0, 87, 0
2, 86880, Note_on_c, 0, 87, 115
2, 87000, Note_on_c, 0, 87, 0
2, 87000, Note_on_c, 0, 87, 115
2, 87120, Note_on_c, 0, 87, 0
2, 87120, Note_on_c, 0, 87, 115
2, 87840, Note_on_c, 0, 87, 0
2, 87840, Note_on_c, 0, 75, 115
2, 88200, Note_on_c, 0, 75, 0
2, 88200, Note_on_c, 0, 77, 115
2, 88260, Note_on_c, 0, 77, 0
2, 88260, Note_on_c, 0, 79, 115
2, 88320, Note_on_c, 0, 79, 0
2, 88320, Note_on_c, 0, 80, 115
2, 88380, Note_on_c, 0, 80, 0
2, 88380, Note_on_c, 0, 82, 115
2, 88440, Note_on_c, 0, 82, 0
2, 88440, Note_on_c, 0, 84, 115
2, 88500, Note_on_c, 0, 84, 0
2, 88500, Note_on_c, 0, 86, 115
2, 88560, Note_on_c, 0, 86, 0
2, 88560, Note_on_c, 0, 87, 115
2, 89040, Note_on_c, 0, 87, 0
2, 94800, Note_on_c, 0, 68, 115
2, 94920, Note_on_c, 0, 68, 0
2, 94920, Note_on_c, 0, 74, 115
2, 95040, Note_on_c, 0, 74, 0
2, 95040, Note_on_c, 0, 77, 115
2, 95280, Note_on_c, 0, 77, 0
2, 95280, Note_on_c, 0, 77, 115
2, 95400, Note_on_c, 0, 77, 0
2, 95400, Note_on_c, 0, 75, 115
2, 95520, Note_on_c, 0, 75, 0
2, 95520, Note_on_c, 0, 74, 115
2, 95640, Note_on_c, 0, 74, 0
2, 95640, Note_on_c, 0, 77, 115
2, 95760, Note_on_c, 0, 77, 0
2, 95760, Note_on_c, 0, 80, 115
2, 96000, Note_on_c, 0, 80, 0
2, 96000, Note_on_c, 0, 80, 115
2, 96120, Note_on_c, 0, 80, 0
2, 96120, Note_on_c, 0, 79, 115
2, 96240, Note_on_c, 0, 79, 0
2, 96240, Note_on_c, 0, 77, 115
2, 96360, Note_on_c, 0, 77, 0
2, 96360, Note_on_c, 0, 80, 115
2, 96480, Note_on_c, 0, 80, 0
2, 96480, Note_on_c, 0, 84, 115
2, 96720, Note_on_c, 0, 84, 0
2, 96720, Note_on_c, 0, 84, 115
2, 96840, Note_on_c, 0, 84, 0
2, 96840, Note_on_c, 0, 82, 115
2, 96960, Note_on_c, 0, 82, 0
2, 96960, Note_on_c, 0, 80, 115
2, 97080, Note_on_c, 0, 80, 0
2, 97080, Note_on_c, 0, 79, 115
2, 97200, Note_on_c, 0, 79, 0
2, 97200, Note_on_c, 0, 77, 115
2, 97440, Note_on_c, 0, 77, 0
2, 97440, Note_on_c, 0, 77, 115
2, 97560, Note_on_c, 0, 77, 0
2, 97560, Note_on_c, 0, 79, 115
2, 97680, Note_on_c, 0, 79, 0
2, 97680, Note_on_c, 0, 80, 115
2, 97800, Note_on_c, 0, 80, 0
2, 97800, Note_on_c, 0, 82, 115
2, 97920, Note_on_c, 0, 82, 0
2, 97920, Note_on_c, 0, 84, 115
2, 98040, Note_on_c, 0, 84, 0
2, 98040, Note_on_c, 0, 82, 115
2, 98160, Note_on_c, 0, 82, 0
2, 98160, Note_on_c, 0, 80, 115
2, 98280, Note_on_c, 0, 80, 0
2, 98280, Note_on_c, 0, 79, 115
2, 98400, Note_on_c, 0, 79, 0
2, 98400, Note_on_c, 0, 77, 123
2, 98520, Note_on_c, 0, 77, 0
2, 98520, Note_on_c, 0, 79, 123
2, 98640, Note_on_c, 0, 79, 0
2, 98640, Note_on_c, 0, 80, 123
2, 98760, Note_on_c, 0, 80, 0
2, 98760, Note_on_c, 0, 82, 123
2, 98880, Note_on_c, 0, 82, 0
2, 98880, Note_on_c, 0, 84, 123
2, 99000, Note_on_c, 0, 84, 0
2, 99000, Note_on_c, 0, 84, 115
2, 99120, Note_on_c, 0, 84, 0
2, 99120, Note_on_c, 0, 82, 115
2, 99240, Note_on_c, 0, 82, 0
2, 99240, Note_on_c, 0, 80, 115
2, 99360, Note_on_c, 0, 80, 0
2, 99360, Note_on_c, 0, 79, 115
2, 100200, Note_on_c, 0, 79, 0
2, 100200, Note_on_c, 0, 80, 115
2, 100320, Note_on_c, 0, 80, 0
2, 100320, Note_on_c, 0, 82, 115
2, 100440, Note_on_c, 0, 82, 0
2, 100440, Note_on_c, 0, 84, 115
2, 100560, Note_on_c, 0, 84, 0
2, 100560, Note_on_c, 0, 85, 115
2, 100680, Note_on_c, 0, 85, 0
2, 100680, Note_on_c, 0, 87, 115
2, 100800, Note_on_c, 0, 87, 0
2, 100800, Note_on_c, 0, 89, 115
2, 101040, Note_on_c, 0, 89, 0
2, 101040, Note_on_c, 0, 89, 115
2, 101160, Note_on_c, 0, 89, 0
2, 101160, Note_on_c, 0, 87, 115
2, 101280, Note_on_c, 0, 87, 0
2, 101280, Note_on_c, 0, 85, 115
2, 101400, Note_on_c, 0, 85, 0
2, 101400, Note_on_c, 0, 84, 115
2, 101520, Note_on_c, 0, 84, 0
2, 101520, Note_on_c, 0, 82, 123
2, 101640, Note_on_c, 0, 82, 0
2, 101640, Note_on_c, 0, 84, 123
2, 101760, Note_on_c, 0, 84, 0
2, 101760, Note_on_c, 0, 85, 123
2, 101880, Note_on_c, 0, 85, 0
2, 101880, Note_on_c, 0, 87, 123
2, 102000, Note_on_c, 0, 87, 0
2, 102000, Note_on_c, 0, 89, 123
2, 102120, Note_on_c, 0, 89, 0
2, 102120, Note_on_c, 0, 87, 123
2, 102240, Note_on_c, 0, 87, 0
2, 102240, Note_on_c, 0, 85, 115
2, 102360, Note_on_c, 0, 85, 0
2, 102360, Note_on_c, 0, 84, 115
2, 102480, Note_on_c, 0, 84, 0
2, 102480, Note_on_c, 0, 82, 115
2, 102600, Note_on_c, 0, 82, 0
2, 102600, Note_on_c, 0, 89, 115
2, 102720, Note_on_c, 0, 89, 0
2, 102720, Note_on_c, 0, 87, 115
2, 102840, Note_on_c, 0, 87, 0
2, 102840, Note_on_c, 0, 85, 115
2, 102960, Note_on_c, 0, 85, 0
2, 102960, Note_on_c, 0, 84, 115
2, 103080, Note_on_c, 0, 84, 0
2, 103080, Note_on_c, 0, 87, 115
2, 103200, Note_on_c, 0, 87, 0
2, 103200, Note_on_c, 0, 85, 115
2, 103320, Note_on_c, 0, 85, 0
2, 103320, Note_on_c, 0, 84, 115
2, 103440, Note_on_c, 0, 84, 0
2, 103440, Note_on_c, 0, 82, 115
2, 103560, Note_on_c, 0, 82, 0
2, 104040, Note_on_c, 0, 84, 115
2, 104160, Note_on_c, 0, 84, 0
2, 104160, Note_on_c, 0, 82, 115
2, 104280, Note_on_c, 0, 82, 0
2, 104280, Note_on_c, 0, 80, 115
2, 104400, Note_on_c, 0, 80, 0
2, 104400, Note_on_c, 0, 79, 115
2, 104520, Note_on_c, 0, 79, 0
2, 104520, Note_on_c, 0, 79, 115
2, 104640, Note_on_c, 0, 79, 0
2, 104640, Note_on_c, 0, 79, 115
2, 104760, Note_on_c, 0, 79, 0
2, 104760, Note_on_c, 0, 79, 115
2, 104880, Note_on_c, 0, 79, 0
2, 104880, Note_on_c, 0, 79, 115
2, 105000, Note_on_c, 0, 79, 0
2, 105000, Note_on_c, 0, 79, 115
2, 105120, Note_on_c, 0, 79, 0
2, 105120, Note_on_c, 0, 79, 115
2, 105240, Note_on_c, 0, 79, 0
2, 105240, Note_on_c, 0, 79, 115
2, 105360, Note_on_c, 0, 79, 0
2, 105360, Note_on_c, 0, 79, 115
2, 105480, Note_on_c, 0, 79, 0
2, 105480, Note_on_c, 0, 79, 115
2, 105600, Note_on_c, 0, 79, 0
2, 106320, Note_on_c, 0, 76, 123
2, 106500, Note_on_c, 0, 76, 0
2, 106500, Note_on_c, 0, 79, 123
2, 106560, Note_on_c, 0, 79, 0
2, 106560, Note_on_c, 0, 84, 123
2, 106800, Note_on_c, 0, 84, 0
2, 106800, Note_on_c, 0, 84, 123
2, 107040, Note_on_c, 0, 84, 0
2, 107040, Note_on_c, 0, 86, 123
2, 107280, Note_on_c, 0, 86, 0
2, 107280, Note_on_c, 0, 88, 123
2, 108480, Note_on_c, 0, 88, 0
2, 108480, Note_on_c, 0, 84, 123
2, 108660, Note_on_c, 0, 84, 0
2, 108660, Note_on_c, 0, 86, 123
2, 108720, Note_on_c, 0, 86, 0
2, 108720, Note_on_c, 0, 88, 123
2, 108960, Note_on_c, 0, 88, 0
2, 108960, Note_on_c, 0, 88, 123
2, 109200, Note_on_c, 0, 88, 0
2, 109200, Note_on_c, 0, 89, 123
2, 109440, Note_on_c, 0, 89, 0
2, 109440, Note_on_c, 0, 91, 123
2, 110640, Note_on_c, 0, 91, 0
2, 110640, Note_on_c, 0, 88, 123
2, 110820, Note_on_c, 0, 88, 0
2, 110820, Note_on_c, 0, 89, 123
2, 110880, Note_on_c, 0, 89, 0
2, 110880, Note_on_c, 0, 91, 123
2, 111360, Note_on_c, 0, 91, 0
2, 111360, Note_on_c, 0, 88, 123
2, 111540, Note_on_c, 0, 88, 0
2, 111540, Note_on_c, 0, 89, 123
2, 111600, Note_on_c, 0, 89, 0
2, 111600, Note_on_c, 0, 91, 123
2, 112080, Note_on_c, 0, 91, 0
2, 112080, Note_on_c, 0, 88, 123
2, 112260, Note_on_c, 0, 88, 0
2, 112260, Note_on_c, 0, 89, 123
2, 112320, Note_on_c, 0, 89, 0
2, 112320, Note_on_c, 0, 91, 91
2, 114000, Note_on_c, 0, 91, 0
2, 120000, Note_on_c, 0, 75, 91
2, 120120, Note_on_c, 0, 75, 0
2, 120180, Note_on_c, 0, 80, 91
2, 120240, Note_on_c, 0, 80, 0
2, 120240, Note_on_c, 0, 83, 91
2, 120480, Note_on_c, 0, 83, 0
2, 120480, Note_on_c, 0, 83, 91
2, 120600, Note_on_c, 0, 83, 0
2, 120660, Note_on_c, 0, 82, 91
2, 120720, Note_on_c, 0, 82, 0
2, 120720, Note_on_c, 0, 80, 91
2, 120840, Note_on_c, 0, 80, 0
2, 120900, Note_on_c, 0, 83, 91
2, 120960, Note_on_c, 0, 83, 0
2, 120960, Note_on_c, 0, 79, 91
2, 121440, Note_on_c, 0, 79, 0
2, 121440, Note_on_c, 0, 80, 91
2, 121560, Note_on_c, 0, 80, 0
2, 121620, Note_on_c, 0, 82, 91
2, 121680, Note_on_c, 0, 82, 0
2, 121680, Note_on_c, 0, 83, 91
2, 121920, Note_on_c, 0, 83, 0
2, 121920, Note_on_c, 0, 83, 91
2, 122040, Note_on_c, 0, 83, 0
2, 122100, Note_on_c, 0, 82, 91
2, 122160, Note_on_c, 0, 82, 0
2, 122160, Note_on_c, 0, 80, 91
2, 122280, Note_on_c, 0, 80, 0
2, 122340, Note_on_c, 0, 83, 91
2, 122400, Note_on_c, 0, 83, 0
2, 122400, Note_on_c, 0, 85, 91
2, 122880, Note_on_c, 0, 85, 0
2, 122880, Note_on_c, 0, 83, 91
2, 123000, Note_on_c, 0, 83, 0
2, 123060, Note_on_c, 0, 85, 91
2, 123120, Note_on_c, 0, 85, 0
2, 123120, Note_on_c, 0, 87, 91
2, 123360, Note_on_c, 0, 87, 0
2, 123360, Note_on_c, 0, 87, 91
2, 123480, Note_on_c, 0, 87, 0
2, 123540, Note_on_c, 0, 85, 91
2, 123600, Note_on_c, 0, 85, 0
2, 123600, Note_on_c, 0, 83, 91
2, 123720, Note_on_c, 0, 83, 0
2, 123780, Note_on_c, 0, 87, 91
2, 123840, Note_on_c, 0, 87, 0
2, 123840, Note_on_c, 0, 85, 91
2, 124320, Note_on_c, 0, 85, 0
2, 124320, Note_on_c, 0, 87, 91
2, 124440, Note_on_c, 0, 87, 0
2, 124500, Note_on_c, 0, 85, 91
2, 124560, Note_on_c, 0, 85, 0
2, 124560, Note_on_c, 0, 83, 91
2, 124800, Note_on_c, 0, 83, 0
2, 124800, Note_on_c, 0, 83, 91
2, 124920, Note_on_c, 0, 83, 0
2, 124980, Note_on_c, 0, 82, 91
2, 125040, Note_on_c, 0, 82, 0
2, 125040, Note_on_c, 0, 80, 91
2, 125160, Note_on_c, 0, 80, 0
2, 125220, Note_on_c, 0, 83, 91
2, 125280, Note_on_c, 0, 83, 0
2, 125280, Note_on_c, 0, 82, 91
2, 125640, Note_on_c, 0, 82, 0
2, 125640, Note_on_c, 0, 83, 91
2, 125760, Note_on_c, 0, 83, 0
2, 125760, Note_on_c, 0, 80, 91
2, 125880, Note_on_c, 0, 80, 0
2, 125880, Note_on_c, 0, 83, 91
2, 126000, Note_on_c, 0, 83, 0
2, 126000, Note_on_c, 0, 82, 91
2, 126360, Note_on_c, 0, 82, 0
2, 126360, Note_on_c, 0, 83, 91
2, 126480, Note_on_c, 0, 83, 0
2, 126480, Note_on_c, 0, 80, 91
2, 126600, Note_on_c, 0, 80, 0
2, 126600, Note_on_c, 0, 83, 91
2, 126720, Note_on_c, 0, 83, 0
2, 126720, Note_on_c, 0, 82, 115
2, 126840, Note_on_c, 0, 82, 0
2, 126840, Note_on_c, 0, 75, 115
2, 127080, Note_on_c, 0, 75, 0
2, 127080, Note_on_c, 0, 74, 91
2, 127200, Note_on_c, 0, 74, 0
2, 127200, Note_on_c, 0, 75, 91
2, 127320, Note_on_c, 0, 75, 0
2, 127320, Note_on_c, 0, 76, 91
2, 127440, Note_on_c, 0, 76, 0
2, 127440, Note_on_c, 0, 77, 91
2, 127560, Note_on_c, 0, 77, 0
2, 127560, Note_on_c, 0, 78, 91
2, 127680, Note_on_c, 0, 78, 0
2, 127680, Note_on_c, 0, 79, 91
2, 127800, Note_on_c, 0, 79, 0
2, 127800, Note_on_c, 0, 80, 91
2, 127920, Note_on_c, 0, 80, 0
2, 127920, Note_on_c, 0, 81, 91
2, 128040, Note_on_c, 0, 81, 0
2, 128040, Note_on_c, 0, 82, 91
2, 128160, Note_on_c, 0, 82, 0
2, 128160, Note_on_c, 0, 84, 91
2, 128280, Note_on_c, 0, 84, 0
2, 128280, Note_on_c, 0, 85, 91
2, 128400, Note_on_c, 0, 85, 0
2, 128400, Note_on_c, 0, 87, 91
2, 128520, Note_on_c, 0, 87, 0
2, 128520, Note_on_c, 0, 89, 91
2, 128640, Note_on_c, 0, 89, 0
2, 128640, Note_on_c, 0, 81, 91
2, 128760, Note_on_c, 0, 81, 0
2, 128760, Note_on_c, 0, 82, 91
2, 128880, Note_on_c, 0, 82, 0
2, 128880, Note_on_c, 0, 84, 91
2, 129000, Note_on_c, 0, 84, 0
2, 129000, Note_on_c, 0, 85, 91
2, 129120, Note_on_c, 0, 85, 0
2, 132720, Note_on_c, 0, 70, 91
2, 132780, Note_on_c, 0, 70, 0
2, 132780, Note_on_c, 0, 72, 91
2, 132840, Note_on_c, 0, 72, 0
2, 132840, Note_on_c, 0, 73, 101
2, 132900, Note_on_c, 0, 73, 0
2, 132900, Note_on_c, 0, 75, 101
2, 132960, Note_on_c, 0, 75, 0
2, 132960, Note_on_c, 0, 77, 109
2, 133020, Note_on_c, 0, 77, 0
2, 133020, Note_on_c, 0, 79, 109
2, 133080, Note_on_c, 0, 79, 0
2, 133080, Note_on_c, 0, 80, 115
2, 133140, Note_on_c, 0, 80, 0
2, 133140, Note_on_c, 0, 82, 115
2, 133200, Note_on_c, 0, 82, 0
2, 133200, Note_on_c, 0, 84, 123
2, 134100, Note_on_c, 0, 84, 0
2, 134100, Note_on_c, 0, 82, 123
2, 134160, Note_on_c, 0, 82, 0
2, 134160, Note_on_c, 0, 80, 123
2, 134340, Note_on_c, 0, 80, 0
2, 134340, Note_on_c, 0, 84, 123
2, 134400, Note_on_c, 0, 84, 0
2, 134400, Note_on_c, 0, 77, 123
2, 134880, Note_on_c, 0, 77, 0
2, 134880, Note_on_c, 0, 85, 123
2, 135060, Note_on_c, 0, 85, 0
2, 135060, Note_on_c, 0, 84, 123
2, 135120, Note_on_c, 0, 84, 0
2, 135120, Note_on_c, 0, 82, 123
2, 135300, Note_on_c, 0, 82, 0
2, 135300, Note_on_c, 0, 85, 123
2, 135360, Note_on_c, 0, 85, 0
2, 135360, Note_on_c, 0, 79, 123
2, 135540, Note_on_c, 0, 79, 0
2, 135540, Note_on_c, 0, 82, 123
2, 135600, Note_on_c, 0, 82, 0
2, 135600, Note_on_c, 0, 76, 123
2, 135780, Note_on_c, 0, 76, 0
2, 135780, Note_on_c, 0, 79, 123
2, 135840, Note_on_c, 0, 79, 0
2, 135840, Note_on_c, 0, 84, 123
2, 136320, Note_on_c, 0, 84, 0
2, 136320, Note_on_c, 0, 85, 123
2, 136500, Note_on_c, 0, 85, 0
2, 136500, Note_on_c, 0, 82, 123
2, 136560, Note_on_c, 0, 82, 0
2, 136560, Note_on_c, 0, 89, 123
2, 136800, Note_on_c, 0, 89, 0
2, 136800, Note_on_c, 0, 82, 123
2, 137040, Note_on_c, 0, 82, 0
2, 137040, Note_on_c, 0, 84, 123
2, 137220, Note_on_c, 0, 84, 0
2, 137220, Note_on_c, 0, 80, 123
2, 137280, Note_on_c, 0, 80, 0
2, 137280, Note_on_c, 0, 87, 123
2, 137520, Note_on_c, 0, 87, 0
2, 137520, Note_on_c, 0, 87, 123
2, 137760, Note_on_c, 0, 87, 0
2, 138240, Note_on_c, 0, 84, 123
2, 138480, Note_on_c, 0, 84, 0
2, 138960, Note_on_c, 0, 82, 123
2, 139080, Note_on_c, 0, 82, 0
2, 139320, Note_on_c, 0, 70, 123
2, 139380, Note_on_c, 0, 70, 0
2, 139380, Note_on_c, 0, 72, 123
2, 139440, Note_on_c, 0, 72, 0
2, 139440, Note_on_c, 0, 73, 123
2, 139500, Note_on_c, 0, 73, 0
2, 139500, Note_on_c, 0, 75, 123
2, 139560, Note_on_c, 0, 75, 0
2, 139560, Note_on_c, 0, 77, 123
2, 139620, Note_on_c, 0, 77, 0
2, 139620, Note_on_c, 0, 79, 123
2, 139680, Note_on_c, 0, 79, 0
2, 139680, Note_on_c, 0, 80, 123
2, 139920, Note_on_c, 0, 80, 0
2, 140160, Note_on_c, 0, 80, 123
2, 140340, Note_on_c, 0, 80, 0
2, 140340, Note_on_c, 0, 84, 123
2, 140400, Note_on_c, 0, 84, 0
2, 140400, Note_on_c, 0, 87, 123
2, 140640, Note_on_c, 0, 87, 0
2, 141120, Note_on_c, 0, 85, 91
2, 141360, Note_on_c, 0, 85, 0
2, 141360, Note_on_c, 0, 84, 91
2, 141840, Note_on_c, 0, 84, 0
2, 141840, Note_on_c, 0, 82, 91
2, 142080, Note_on_c, 0, 82, 0
2, 142080, Note_on_c, 0, 80, 91
2, 142560, Note_on_c, 0, 80, 0
2, 142560, Note_on_c, 0, 79, 91
2, 143040, Note_on_c, 0, 79, 0
2, 143040, Note_on_c, 0, 79, 91
2, 143120, Note_on_c, 0, 79, 0
2, 143120, Note_on_c, 0, 80, 91
2, 143200, Note_on_c, 0, 80, 0
2, 143200, Note_on_c, 0, 82, 91
2, 143280, Note_on_c, 0, 82, 0
2, 143280, Note_on_c, 0, 80, 91
2, 143520, Note_on_c, 0, 80, 0
2, 146640, Note_on_c, 0, 79, 91
2, 146720, Note_on_c, 0, 79, 0
2, 146720, Note_on_c, 0, 80, 91
2, 146800, Note_on_c, 0, 80, 0
2, 146800, Note_on_c, 0, 82, 91
2, 146880, Note_on_c, 0, 82, 0
2, 146880, Note_on_c, 0, 80, 91
2, 147120, Note_on_c, 0, 80, 0
2, 154560, Note_on_c, 0, 75, 115
2, 154800, Note_on_c, 0, 75, 0
2, 154800, Note_on_c, 0, 72, 115
2, 155040, Note_on_c, 0, 72, 0
2, 156000, Note_on_c, 0, 82, 115
2, 156240, Note_on_c, 0, 82, 0
2, 156240, Note_on_c, 0, 84, 115
2, 156480, Note_on_c, 0, 84, 0
2, 156880, Note_on_c, 0, 72, 115
2, 156960, Note_on_c, 0, 72, 0
2, 156960, Note_on_c, 0, 75, 123
2, 157040, Note_on_c, 0, 75, 0
2, 157040, Note_on_c, 0, 80, 123
2, 157120, Note_on_c, 0, 80, 0
2, 157120, Note_on_c, 0, 84, 123
2, 157200, Note_on_c, 0, 84, 0
2, 157200, Note_on_c, 0, 87, 109
2, 158400, Note_on_c, 0, 87, 0
2, 158400, Note_on_c, 0, 85, 91
2, 158640, Note_on_c, 0, 85, 0
2, 158640, Note_on_c, 0, 84, 91
2, 159120, Note_on_c, 0, 84, 0
2, 159120, Note_on_c, 0, 82, 91
2, 159360, Note_on_c, 0, 82, 0
2, 159360, Note_on_c, 0, 80, 91
2, 159840, Note_on_c, 0, 80, 0
2, 159840, Note_on_c, 0, 79, 91
2, 160320, Note_on_c, 0, 79, 0
2, 160320, Note_on_c, 0, 79, 91
2, 160400, Note_on_c, 0, 79, 0
2, 160400, Note_on_c, 0, 80, 91
2, 160480, Note_on_c, 0, 80, 0
2, 160480, Note_on_c, 0, 82, 91
2, 160560, Note_on_c, 0, 82, 0
2, 160560, Note_on_c, 0, 80, 91
2, 160800, Note_on_c, 0, 80, 0
2, 162600, Note_on_c, 0, 87, 115
2, 162720, Note_on_c, 0, 87, 0
2, 162720, Note_on_c, 0, 87, 115
2, 162840, Note_on_c, 0, 87, 0
2, 162840, Note_on_c, 0, 85, 115
2, 162960, Note_on_c, 0, 85, 0
2, 162960, Note_on_c, 0, 84, 115
2, 163320, Note_on_c, 0, 84, 0
2, 173280, Note_on_c, 0, 80, 115
2, 173360, Note_on_c, 0, 80, 0
2, 173360, Note_on_c, 0, 80, 115
2, 173440, Note_on_c, 0, 80, 0
2, 173440, Note_on_c, 0, 80, 115
2, 173520, Note_on_c, 0, 80, 0
2, 173520, Note_on_c, 0, 80, 115
2, 173600, Note_on_c, 0, 80, 0
2, 173600, Note_on_c, 0, 80, 115
2, 173680, Note_on_c, 0, 80, 0
2, 173680, Note_on_c, 0, 80, 115
2, 173760, Note_on_c, 0, 80, 0
2, 173760, Note_on_c, 0, 80, 115
2, 173840, Note_on_c, 0, 80, 0
2, 173840, Note_on_c, 0, 80, 115
2, 173920, Note_on_c, 0, 80, 0
2, 173920, Note_on_c, 0, 80, 115
2, 174000, Note_on_c, 0, 80, 0
2, 174000, Note_on_c, 0, 80, 115
2, 174080, Note_on_c, 0, 80, 0
2, 174080, Note_on_c, 0, 84, 115
2, 174160, Note_on_c, 0, 84, 0
2, 174160, Note_on_c, 0, 87, 115
2, 174240, Note_on_c, 0, 87, 0
2, 174240, Note_on_c, 0, 92, 123
2, 174480, Note_on_c, 0, 92, 0
2, 174720, Note_on_c, 0, 80, 123
2, 174900, Note_on_c, 0, 80, 0
2, 174900, Note_on_c, 0, 84, 123
2, 174960, Note_on_c, 0, 84, 0
2, 174960, Note_on_c, 0, 87, 123
2, 175680, Note_on_c, 0, 87, 0
2, 175680, Note_on_c, 0, 84, 123
2, 175920, Note_on_c, 0, 84, 0
2, 176160, Note_on_c, 0, 87, 91
2, 176400, Note_on_c, 0, 87, 0
2, 176400, Note_on_c, 0, 84, 91
2, 176640, Note_on_c, 0, 84, 0
2, 176880, Note_on_c, 0, 80, 115
2, 177060, Note_on_c, 0, 80, 0
2, 177060, Note_on_c, 0, 84, 115
2, 177120, Note_on_c, 0, 84, 0
2, 177120, Note_on_c, 0, 87, 123
2, 177840, Note_on_c, 0, 87, 0
2, 177840, Note_on_c, 0, 80, 123
2, 178080, Note_on_c, 0, 80, 0
2, 178080, End_track
3, 0, Start_track
3, 0, MIDI_port, 0
3, 0, Title_t, "Flute 2"
3, 7680, Note_on_c, 0, 80, 91
3, 7860, Note_on_c, 0, 80, 0
3, 7860, Note_on_c, 0, 84, 91
3, 7920, Note_on_c, 0, 84, 0
3, 7920, Note_on_c, 0, 87, 115
3, 8640, Note_on_c, 0, 87, 0
3, 8640, Note_on_c, 0, 85, 91
3, 8880, Note_on_c, 0, 85, 0
3, 8880, Note_on_c, 0, 84, 91
3, 9360, Note_on_c, 0, 84, 0
3, 9360, Note_on_c, 0, 82, 91
3, 9600, Note_on_c, 0, 82, 0
3, 9600, Note_on_c, 0, 80, 91
3, 10080, Note_on_c, 0, 80, 0
3, 10080, Note_on_c, 0, 79, 91
3, 10560, Note_on_c, 0, 79, 0
3, 10560, Note_on_c, 0, 79, 91
3, 10640, Note_on_c, 0, 79, 0
3, 10640, Note_on_c, 0, 80, 91
3, 10720, Note_on_c, 0, 80, 0
3, 10720, Note_on_c, 0, 82, 91
3, 10800, Note_on_c, 0, 82, 0
3, 10800, Note_on_c, 0, 80, 91
3, 11040, Note_on_c, 0, 80, 0
3, 14880, Note_on_c, 0, 79, 115
3, 15120, Note_on_c, 0, 79, 0
3, 15120, Note_on_c, 0, 80, 115
3, 15240, Note_on_c, 0, 80, 0
3, 15360, Note_on_c, 0, 68, 91
3, 15480, Note_on_c, 0, 68, 0
3, 15600, Note_on_c, 0, 68, 91
3, 15720, Note_on_c, 0, 68, 0
3, 15840, Note_on_c, 0, 68, 91
3, 16080, Note_on_c, 0, 68, 0
3, 20640, Note_on_c, 0, 87, 78
3, 20820, Note_on_c, 0, 87, 0
3, 20820, Note_on_c, 0, 89, 78
3, 20880, Note_on_c, 0, 89, 0
3, 20880, Note_on_c, 0, 87, 123
3, 21600, Note_on_c, 0, 87, 0
3, 21600, Note_on_c, 0, 88, 123
3, 21780, Note_on_c, 0, 88, 0
3, 21780, Note_on_c, 0, 84, 123
3, 21840, Note_on_c, 0, 84, 0
3, 21840, Note_on_c, 0, 79, 123
3, 22080, Note_on_c, 0, 79, 0
3, 22080, Note_on_c, 0, 83, 123
3, 22320, Note_on_c, 0, 83, 0
3, 22320, Note_on_c, 0, 76, 123
3, 22560, Note_on_c, 0, 76, 0
3, 42600, Note_on_c, 0, 79, 91
3, 42720, Note_on_c, 0, 79, 0
3, 42720, Note_on_c, 0, 82, 91
3, 42780, Note_on_c, 0, 82, 0
3, 42780, Note_on_c, 0, 80, 101
3, 42840, Note_on_c, 0, 80, 0
3, 42840, Note_on_c, 0, 79, 101
3, 42960, Note_on_c, 0, 79, 0
3, 42960, Note_on_c, 0, 80, 109
3, 43080, Note_on_c, 0, 80, 0
3, 43080, Note_on_c, 0, 84, 109
3, 43200, Note_on_c, 0, 84, 0
3, 43200, Note_on_c, 0, 86, 115
3, 43320, Note_on_c, 0, 86, 0
3, 43320, Note_on_c, 0, 87, 115
3, 43440, Note_on_c, 0, 87, 0
3, 43440, Note_on_c, 0, 89, 109
3, 43560, Note_on_c, 0, 89, 0
3, 43560, Note_on_c, 0, 87, 109
3, 43680, Note_on_c, 0, 87, 0
3, 43680, Note_on_c, 0, 86, 101
3, 43800, Note_on_c, 0, 86, 0
3, 43800, Note_on_c, 0, 87, 101
3, 43920, Note_on_c, 0, 87, 0
3, 43920, Note_on_c, 0, 85, 91
3, 44160, Note_on_c, 0, 85, 0
3, 44160, Note_on_c, 0, 84, 91
3, 44640, Note_on_c, 0, 84, 0
3, 44640, Note_on_c, 0, 82, 91
3, 44880, Note_on_c, 0, 82, 0
3, 44880, Note_on_c, 0, 80, 91
3, 45360, Note_on_c, 0, 80, 0
3, 45360, Note_on_c, 0, 79, 91
3, 45840, Note_on_c, 0, 79, 0
3, 45840, Note_on_c, 0, 79, 91
3, 45920, Note_on_c, 0, 79, 0
3, 45920, Note_on_c, 0, 80, 91
3, 46000, Note_on_c, 0, 80, 0
3, 46000, Note_on_c, 0, 82, 91
3, 46080, Note_on_c, 0, 82, 0
3, 46080, Note_on_c, 0, 80, 91
3, 46320, Note_on_c, 0, 80, 0
3, 49440, Note_on_c, 0, 79, 91
3, 49520, Note_on_c, 0, 79, 0
3, 49520, Note_on_c, 0, 80, 101
3, 49600, Note_on_c, 0, 80, 0
3, 49600, Note_on_c, 0, 82, 109
3, 49680, Note_on_c, 0, 82, 0
3, 49680, Note_on_c, 0, 80, 91
3, 49920, Note_on_c, 0, 80, 0
3, 50160, Note_on_c, 0, 79, 115
3, 50400, Note_on_c, 0, 79, 0
3, 50400, Note_on_c, 0, 80, 115
3, 50520, Note_on_c, 0, 80, 0
3, 50640, Note_on_c, 0, 68, 91
3, 50760, Note_on_c, 0, 68, 0
3, 50880, Note_on_c, 0, 68, 91
3, 51000, Note_on_c, 0, 68, 0
3, 51120, Note_on_c, 0, 68, 91
3, 51360, Note_on_c, 0, 68, 0
3, 55920, Note_on_c, 0, 87, 78
3, 56100, Note_on_c, 0, 87, 0
3, 56100, Note_on_c, 0, 89, 78
3, 56160, Note_on_c, 0, 89, 0
3, 56160, Note_on_c, 0, 87, 123
3, 56880, Note_on_c, 0, 87, 0
3, 56880, Note_on_c, 0, 88, 123
3, 57060, Note_on_c, 0, 88, 0
3, 57060, Note_on_c, 0, 84, 123
3, 57120, Note_on_c, 0, 84, 0
3, 57120, Note_on_c, 0, 79, 123
3, 57360, Note_on_c, 0, 79, 0
3, 57360, Note_on_c, 0, 83, 123
3, 57600, Note_on_c, 0, 83, 0
3, 57600, Note_on_c, 0, 76, 123
3, 57840, Note_on_c, 0, 76, 0
3, 70440, Note_on_c, 0, 75, 123
3, 70560, Note_on_c, 0, 75, 0
3, 70560, Note_on_c, 0, 87, 115
3, 71280, Note_on_c, 0, 87, 0
3, 71280, Note_on_c, 0, 87, 91
3, 73440, Note_on_c, 0, 87, 0
3, 73440, Note_on_c, 0, 88, 91
3, 74160, Note_on_c, 0, 88, 0
3, 74160, Note_on_c, 0, 89, 91
3, 75120, Note_on_c, 0, 89, 0
3, 75120, Note_on_c, 0, 87, 78
3, 76320, Note_on_c, 0, 87, 0
3, 76320, Note_on_c, 0, 84, 78
3, 76560, Note_on_c, 0, 84, 0
3, 82200, Note_on_c, 0, 80, 115
3, 82320, Note_on_c, 0, 80, 0
3, 82320, Note_on_c, 0, 80, 115
3, 82440, Note_on_c, 0, 80, 0
3, 82440, Note_on_c, 0, 80, 115
3, 82560, Note_on_c, 0, 80, 0
3, 82560, Note_on_c, 0, 80, 115
3, 82680, Note_on_c, 0, 80, 0
3, 82680, Note_on_c, 0, 80, 115
3, 82800, Note_on_c, 0, 80, 0
3, 82800, Note_on_c, 0, 80, 115
3, 82920, Note_on_c, 0, 80, 0
3, 82920, Note_on_c, 0, 80, 115
3, 83040, Note_on_c, 0, 80, 0
3, 83040, Note_on_c, 0, 80, 115
3, 83160, Note_on_c, 0, 80, 0
3, 83160, Note_on_c, 0, 80, 115
3, 83280, Note_on_c, 0, 80, 0
3, 83280, Note_on_c, 0, 80, 115
3, 83400, Note_on_c, 0, 80, 0
3, 83400, Note_on_c, 0, 80, 115
3, 83520, Note_on_c, 0, 80, 0
3, 83520, Note_on_c, 0, 81, 115
3, 83640, Note_on_c, 0, 81, 0
3, 83640, Note_on_c, 0, 81, 115
3, 83760, Note_on_c, 0, 81, 0
3, 83760, Note_on_c, 0, 82, 115
3, 83880, Note_on_c, 0, 82, 0
3, 83880, Note_on_c, 0, 82, 115
3, 84000, Note_on_c, 0, 82, 0
3, 84000, Note_on_c, 0, 82, 115
3, 84120, Note_on_c, 0, 82, 0
3, 84120, Note_on_c, 0, 82, 115
3, 84240, Note_on_c, 0, 82, 0
3, 84240, Note_on_c, 0, 82, 115
3, 84360, Note_on_c, 0, 82, 0
3, 84360, Note_on_c, 0, 82, 115
3, 84480, Note_on_c, 0, 82, 0
3, 84480, Note_on_c, 0, 82, 115
3, 84600, Note_on_c, 0, 82, 0
3, 84600, Note_on_c, 0, 82, 115
3, 84720, Note_on_c, 0, 82, 0
3, 84720, Note_on_c, 0, 83, 115
3, 84840, Note_on_c, 0, 83, 0
3, 84840, Note_on_c, 0, 83, 115
3, 84960, Note_on_c, 0, 83, 0
3, 84960, Note_on_c, 0, 84, 115
3, 85080, Note_on_c, 0, 84, 0
3, 85080, Note_on_c, 0, 84, 115
3, 85200, Note_on_c, 0, 84, 0
3, 85200, Note_on_c, 0, 84, 115
3, 85320, Note_on_c, 0, 84, 0
3, 85320, Note_on_c, 0, 84, 115
3, 85440, Note_on_c, 0, 84, 0
3, 85440, Note_on_c, 0, 84, 115
3, 85560, Note_on_c, 0, 84, 0
3, 85560, Note_on_c, 0, 84, 115
3, 85680, Note_on_c, 0, 84, 0
3, 85680, Note_on_c, 0, 84, 115
3, 85800, Note_on_c, 0, 84, 0
3, 85800, Note_on_c, 0, 87, 115
3, 85920, Note_on_c, 0, 87, 0
3, 85920, Note_on_c, 0, 85, 115
3, 86040, Note_on_c, 0, 85, 0
3, 86040, Note_on_c, 0, 85, 115
3, 86160, Note_on_c, 0, 85, 0
3, 86160, Note_on_c, 0, 85, 115
3, 86280, Note_on_c, 0, 85, 0
3, 86280, Note_on_c, 0, 85, 115
3, 86400, Note_on_c, 0, 85, 0
3, 86400, Note_on_c, 0, 85, 115
3, 86520, Note_on_c, 0, 85, 0
3, 86520, Note_on_c, 0, 85, 115
3, 86640, Note_on_c, 0, 85, 0
3, 86640, Note_on_c, 0, 84, 115
3, 86760, Note_on_c, 0, 84, 0
3, 86760, Note_on_c, 0, 84, 115
3, 86880, Note_on_c, 0, 84, 0
3, 86880, Note_on_c, 0, 84, 115
3, 87000, Note_on_c, 0, 84, 0
3, 87000, Note_on_c, 0, 84, 115
3, 87120, Note_on_c, 0, 84, 0
3, 87120, Note_on_c, 0, 82, 115
3, 87840, Note_on_c, 0, 82, 0
3, 87840, Note_on_c, 0, 63, 115
3, 88200, Note_on_c, 0, 63, 0
3, 88200, Note_on_c, 0, 65, 115
3, 88260, Note_on_c, 0, 65, 0
3, 88260, Note_on_c, 0, 67, 115
3, 88320, Note_on_c, 0, 67, 0
3, 88320, Note_on_c, 0, 68, 115
3, 88380, Note_on_c, 0, 68, 0
3, 88380, Note_on_c, 0, 70, 115
3, 88440, Note_on_c, 0, 70, 0
3, 88440, Note_on_c, 0, 72, 115
3, 88500, Note_on_c, 0, 72, 0
3, 88500, Note_on_c, 0, 74, 115
3, 88560, Note_on_c, 0, 74, 0
3, 88560, Note_on_c, 0, 75, 115
3, 89040, Note_on_c, 0, 75, 0
3, 94800, Note_on_c, 0, 68, 115
3, 94920, Note_on_c, 0, 68, 0
3, 94920, Note_on_c, 0, 74, 115
3, 95040, Note_on_c, 0, 74, 0
3, 95040, Note_on_c, 0, 77, 115
3, 95280, Note_on_c, 0, 77, 0
3, 95280, Note_on_c, 0, 77, 115
3, 95400, Note_on_c, 0, 77, 0
3, 95400, Note_on_c, 0, 75, 115
3, 95520, Note_on_c, 0, 75, 0
3, 95520, Note_on_c, 0, 74, 115
3, 95640, Note_on_c, 0, 74, 0
3, 95640, Note_on_c, 0, 77, 115
3, 95760, Note_on_c, 0, 77, 0
3, 95760, Note_on_c, 0, 80, 115
3, 96000, Note_on_c, 0, 80, 0
3, 96000, Note_on_c, 0, 80, 115
3, 96120, Note_on_c, 0, 80, 0
3, 96120, Note_on_c, 0, 79, 115
3, 96240, Note_on_c, 0, 79, 0
3, 96240, Note_on_c, 0, 77, 115
3, 96360, Note_on_c, 0, 77, 0
3, 96360, Note_on_c, 0, 80, 115
3, 96480, Note_on_c, 0, 80, 0
3, 96480, Note_on_c, 0, 84, 115
3, 96720, Note_on_c, 0, 84, 0
3, 96720, Note_on_c, 0, 84, 115
3, 96840, Note_on_c, 0, 84, 0
3, 96840, Note_on_c, 0, 82, 115
3, 96960, Note_on_c, 0, 82, 0
3, 96960, Note_on_c, 0, 80, 115
3, 97080, Note_on_c, 0, 80, 0
3, 97080, Note_on_c, 0, 79, 115
3, 97200, Note_on_c, 0, 79, 0
3, 97200, Note_on_c, 0, 77, 115
3, 97440, Note_on_c, 0, 77, 0
3, 97440, Note_on_c, 0, 77, 115
3, 97560, Note_on_c, 0, 77, 0
3, 97560, Note_on_c, 0, 79, 115
3, 97680, Note_on_c, 0, 79, 0
3, 97680, Note_on_c, 0, 80, 115
3, 97800, Note_on_c, 0, 80, 0
3, 97800, Note_on_c, 0, 82, 115
3, 97920, Note_on_c, 0, 82, 0
3, 97920, Note_on_c, 0, 84, 115
3, 98040, Note_on_c, 0, 84, 0
3, 98040, Note_on_c, 0, 82, 115
3, 98160, Note_on_c, 0, 82, 0
3, 98160, Note_on_c, 0, 80, 115
3, 98280, Note_on_c, 0, 80, 0
3, 98280, Note_on_c, 0, 79, 115
3, 98400, Note_on_c, 0, 79, 0
3, 98400, Note_on_c, 0, 77, 123
3, 98520, Note_on_c, 0, 77, 0
3, 98520, Note_on_c, 0, 79, 123
3, 98640, Note_on_c, 0, 79, 0
3, 98640, Note_on_c, 0, 80, 123
3, 98760, Note_on_c, 0, 80, 0
3, 98760, Note_on_c, 0, 82, 123
3, 98880, Note_on_c, 0, 82, 0
3, 98880, Note_on_c, 0, 84, 123
3, 99000, Note_on_c, 0, 84, 0
3, 99000, Note_on_c, 0, 84, 115
3, 99120, Note_on_c, 0, 84, 0
3, 99120, Note_on_c, 0, 82, 115
3, 99240, Note_on_c, 0, 82, 0
3, 99240, Note_on_c, 0, 80, 115
3, 99360, Note_on_c, 0, 80, 0
3, 99360, Note_on_c, 0, 79, 115
3, 100200, Note_on_c, 0, 79, 0
3, 100200, Note_on_c, 0, 80, 115
3, 100320, Note_on_c, 0, 80, 0
3, 100320, Note_on_c, 0, 82, 115
3, 100440, Note_on_c, 0, 82, 0
3, 100440, Note_on_c, 0, 84, 115
3, 100560, Note_on_c, 0, 84, 0
3, 100560, Note_on_c, 0, 85, 115
3, 100680, Note_on_c, 0, 85, 0
3, 100680, Note_on_c, 0, 87, 115
3, 100800, Note_on_c, 0, 87, 0
3, 100800, Note_on_c, 0, 89, 115
3, 101040, Note_on_c, 0, 89, 0
3, 101040, Note_on_c, 0, 89, 115
3, 101160, Note_on_c, 0, 89, 0
3, 101160, Note_on_c, 0, 87, 115
3, 101280, Note_on_c, 0, 87, 0
3, 101280, Note_on_c, 0, 85, 115
3, 101400, Note_on_c, 0, 85, 0
3, 101400, Note_on_c, 0, 84, 115
3, 101520, Note_on_c, 0, 84, 0
3, 101520, Note_on_c, 0, 82, 123
3, 101640, Note_on_c, 0, 82, 0
3, 101640, Note_on_c, 0, 84, 123
3, 101760, Note_on_c, 0, 84, 0
3, 101760, Note_on_c, 0, 85, 123
3, 101880, Note_on_c, 0, 85, 0
3, 101880, Note_on_c, 0, 87, 123
3, 102000, Note_on_c, 0, 87, 0
3, 102000, Note_on_c, 0, 89, 123
3, 102120, Note_on_c, 0, 89, 0
3, 102120, Note_on_c, 0, 87, 123
3, 102240, Note_on_c, 0, 87, 0
3, 102240, Note_on_c, 0, 85, 115
3, 102360, Note_on_c, 0, 85, 0
3, 102360, Note_on_c, 0, 84, 115
3, 102480, Note_on_c, 0, 84, 0
3, 102480, Note_on_c, 0, 82, 115
3, 102600, Note_on_c, 0, 82, 0
3, 102600, Note_on_c, 0, 89, 115
3, 102720, Note_on_c, 0, 89, 0
3, 102720, Note_on_c, 0, 87, 115
3, 102840, Note_on_c, 0, 87, 0
3, 102840, Note_on_c, 0, 85, 115
3, 102960, Note_on_c, 0, 85, 0
3, 102960, Note_on_c, 0, 84, 115
3, 103080, Note_on_c, 0, 84, 0
3, 103080, Note_on_c, 0, 87, 115
3, 103200, Note_on_c, 0, 87, 0
3, 103200, Note_on_c, 0, 85, 115
3, 103320, Note_on_c, 0, 85, 0
3, 103320, Note_on_c, 0, 84, 115
3, 103440, Note_on_c, 0, 84, 0
3, 103440, Note_on_c, 0, 82, 115
3, 103560, Note_on_c, 0, 82, 0
3, 104040, Note_on_c, 0, 84, 115
3, 104160, Note_on_c, 0, 84, 0
3, 104160, Note_on_c, 0, 82, 115
3, 104280, Note_on_c, 0, 82, 0
3, 104280, Note_on_c, 0, 80, 115
3, 104400, Note_on_c, 0, 80, 0
3, 104400, Note_on_c, 0, 79, 115
3, 104520, Note_on_c, 0, 79, 0
3, 104520, Note_on_c, 0, 79, 115
3, 104640, Note_on_c, 0, 79, 0
3, 104640, Note_on_c, 0, 79, 115
3, 104760, Note_on_c, 0, 79, 0
3, 104760, Note_on_c, 0, 79, 115
3, 104880, Note_on_c, 0, 79, 0
3, 104880, Note_on_c, 0, 79, 115
3, 105000, Note_on_c, 0, 79, 0
3, 105000, Note_on_c, 0, 79, 115
3, 105120, Note_on_c, 0, 79, 0
3, 105120, Note_on_c, 0, 79, 115
3, 105240, Note_on_c, 0, 79, 0
3, 105240, Note_on_c, 0, 79, 115
3, 105360, Note_on_c, 0, 79, 0
3, 105360, Note_on_c, 0, 79, 115
3, 105480, Note_on_c, 0, 79, 0
3, 105480, Note_on_c, 0, 79, 115
3, 105600, Note_on_c, 0, 79, 0
3, 106320, Note_on_c, 0, 76, 123
3, 106500, Note_on_c, 0, 76, 0
3, 106500, Note_on_c, 0, 79, 123
3, 106560, Note_on_c, 0, 79, 0
3, 106560, Note_on_c, 0, 76, 123
3, 106800, Note_on_c, 0, 76, 0
3, 106800, Note_on_c, 0, 76, 123
3, 107040, Note_on_c, 0, 76, 0
3, 107040, Note_on_c, 0, 83, 123
3, 107280, Note_on_c, 0, 83, 0
3, 107280, Note_on_c, 0, 84, 123
3, 108480, Note_on_c, 0, 84, 0
3, 108480, Note_on_c, 0, 76, 123
3, 108660, Note_on_c, 0, 76, 0
3, 108660, Note_on_c, 0, 83, 123
3, 108720, Note_on_c, 0, 83, 0
3, 108720, Note_on_c, 0, 84, 123
3, 108960, Note_on_c, 0, 84, 0
3, 108960, Note_on_c, 0, 84, 123
3, 109200, Note_on_c, 0, 84, 0
3, 109200, Note_on_c, 0, 86, 123
3, 109440, Note_on_c, 0, 86, 0
3, 109440, Note_on_c, 0, 88, 123
3, 110640, Note_on_c, 0, 88, 0
3, 110640, Note_on_c, 0, 84, 123
3, 110820, Note_on_c, 0, 84, 0
3, 110820, Note_on_c, 0, 86, 123
3, 110880, Note_on_c, 0, 86, 0
3, 110880, Note_on_c, 0, 88, 123
3, 111360, Note_on_c, 0, 88, 0
3, 111360, Note_on_c, 0, 84, 123
3, 111540, Note_on_c, 0, 84, 0
3, 111540, Note_on_c, 0, 86, 123
3, 111600, Note_on_c, 0, 86, 0
3, 111600, Note_on_c, 0, 88, 123
3, 112080, Note_on_c, 0, 88, 0
3, 112080, Note_on_c, 0, 84, 123
3, 112260, Note_on_c, 0, 84, 0
3, 112260, Note_on_c, 0, 86, 123
3, 112320, Note_on_c, 0, 86, 0
3, 112320, Note_on_c, 0, 88, 91
3, 114000, Note_on_c, 0, 88, 0
3, 120000, Note_on_c, 0, 75, 91
3, 120120, Note_on_c, 0, 75, 0
3, 120180, Note_on_c, 0, 80, 91
3, 120240, Note_on_c, 0, 80, 0
3, 120240, Note_on_c, 0, 83, 91
3, 120480, Note_on_c, 0, 83, 0
3, 120480, Note_on_c, 0, 83, 91
3, 120600, Note_on_c, 0, 83, 0
3, 120660, Note_on_c, 0, 82, 91
3, 120720, Note_on_c, 0, 82, 0
3, 120720, Note_on_c, 0, 80, 91
3, 120840, Note_on_c, 0, 80, 0
3, 120900, Note_on_c, 0, 83, 91
3, 120960, Note_on_c, 0, 83, 0
3, 120960, Note_on_c, 0, 79, 91
3, 121440, Note_on_c, 0, 79, 0
3, 121440, Note_on_c, 0, 80, 91
3, 121560, Note_on_c, 0, 80, 0
3, 121620, Note_on_c, 0, 82, 91
3, 121680, Note_on_c, 0, 82, 0
3, 121680, Note_on_c, 0, 83, 91
3, 121920, Note_on_c, 0, 83, 0
3, 121920, Note_on_c, 0, 83, 91
3, 122040, Note_on_c, 0, 83, 0
3, 122100, Note_on_c, 0, 82, 91
3, 122160, Note_on_c, 0, 82, 0
3, 122160, Note_on_c, 0, 80, 91
3, 122280, Note_on_c, 0, 80, 0
3, 122340, Note_on_c, 0, 83, 91
3, 122400, Note_on_c, 0, 83, 0
3, 122400, Note_on_c, 0, 85, 91
3, 122880, Note_on_c, 0, 85, 0
3, 122880, Note_on_c, 0, 83, 91
3, 123000, Note_on_c, 0, 83, 0
3, 123060, Note_on_c, 0, 85, 91
3, 123120, Note_on_c, 0, 85, 0
3, 123120, Note_on_c, 0, 87, 91
3, 123360, Note_on_c, 0, 87, 0
3, 123360, Note_on_c, 0, 87, 91
3, 123480, Note_on_c, 0, 87, 0
3, 123540, Note_on_c, 0, 85, 91
3, 123600, Note_on_c, 0, 85, 0
3, 123600, Note_on_c, 0, 83, 91
3, 123720, Note_on_c, 0, 83, 0
3, 123780, Note_on_c, 0, 87, 91
3, 123840, Note_on_c, 0, 87, 0
3, 123840, Note_on_c, 0, 85, 91
3, 124320, Note_on_c, 0, 85, 0
3, 124320, Note_on_c, 0, 87, 91
3, 124440, Note_on_c, 0, 87, 0
3, 124500, Note_on_c, 0, 85, 91
3, 124560, Note_on_c, 0, 85, 0
3, 124560, Note_on_c, 0, 83, 91
3, 124800, Note_on_c, 0, 83, 0
3, 124800, Note_on_c, 0, 83, 91
3, 124920, Note_on_c, 0, 83, 0
3, 124980, Note_on_c, 0, 82, 91
3, 125040, Note_on_c, 0, 82, 0
3, 125040, Note_on_c, 0, 80, 91
3, 125160, Note_on_c, 0, 80, 0
3, 125220, Note_on_c, 0, 83, 91
3, 125280, Note_on_c, 0, 83, 0
3, 125880, Note_on_c, 0, 80, 91
3, 126000, Note_on_c, 0, 80, 0
3, 126000, Note_on_c, 0, 79, 91
3, 126360, Note_on_c, 0, 79, 0
3, 126360, Note_on_c, 0, 80, 91
3, 126480, Note_on_c, 0, 80, 0
3, 126480, Note_on_c, 0, 75, 91
3, 126600, Note_on_c, 0, 75, 0
3, 126600, Note_on_c, 0, 80, 91
3, 126720, Note_on_c, 0, 80, 0
3, 126720, Note_on_c, 0, 79, 115
3, 126840, Note_on_c, 0, 79, 0
3, 127440, Note_on_c, 0, 77, 91
3, 127560, Note_on_c, 0, 77, 0
3, 127560, Note_on_c, 0, 78, 91
3, 127680, Note_on_c, 0, 78, 0
3, 127680, Note_on_c, 0, 79, 91
3, 127800, Note_on_c, 0, 79, 0
3, 127800, Note_on_c, 0, 80, 91
3, 127920, Note_on_c, 0, 80, 0
3, 127920, Note_on_c, 0, 81, 91
3, 128040, Note_on_c, 0, 81, 0
3, 128040, Note_on_c, 0, 82, 91
3, 128160, Note_on_c, 0, 82, 0
3, 128160, Note_on_c, 0, 84, 91
3, 128280, Note_on_c, 0, 84, 0
3, 128280, Note_on_c, 0, 85, 91
3, 128400, Note_on_c, 0, 85, 0
3, 128400, Note_on_c, 0, 87, 91
3, 128520, Note_on_c, 0, 87, 0
3, 128520, Note_on_c, 0, 89, 91
3, 128640, Note_on_c, 0, 89, 0
3, 128640, Note_on_c, 0, 81, 91
3, 128760, Note_on_c, 0, 81, 0
3, 128760, Note_on_c, 0, 82, 91
3, 128880, Note_on_c, 0, 82, 0
3, 128880, Note_on_c, 0, 84, 91
3, 129000, Note_on_c, 0, 84, 0
3, 129000, Note_on_c, 0, 85, 91
3, 129120, Note_on_c, 0, 85, 0
3, 132720, Note_on_c, 0, 70, 91
3, 132780, Note_on_c, 0, 70, 0
3, 132780, Note_on_c, 0, 72, 91
3, 132840, Note_on_c, 0, 72, 0
3, 132840, Note_on_c, 0, 73, 101
3, 132900, Note_on_c, 0, 73, 0
3, 132900, Note_on_c, 0, 75, 101
3, 132960, Note_on_c, 0, 75, 0
3, 132960, Note_on_c, 0, 77, 109
3, 133020, Note_on_c, 0, 77, 0
3, 133020, Note_on_c, 0, 79, 109
3, 133080, Note_on_c, 0, 79, 0
3, 133080, Note_on_c, 0, 80, 115
3, 133140, Note_on_c, 0, 80, 0
3, 133140, Note_on_c, 0, 82, 115
3, 133200, Note_on_c, 0, 82, 0
3, 133200, Note_on_c, 0, 84, 123
3, 134100, Note_on_c, 0, 84, 0
3, 134100, Note_on_c, 0, 82, 123
3, 134160, Note_on_c, 0, 82, 0
3, 134160, Note_on_c, 0, 80, 123
3, 134340, Note_on_c, 0, 80, 0
3, 134340, Note_on_c, 0, 84, 123
3, 134400, Note_on_c, 0, 84, 0
3, 134400, Note_on_c, 0, 77, 123
3, 134880, Note_on_c, 0, 77, 0
3, 134880, Note_on_c, 0, 85, 123
3, 135060, Note_on_c, 0, 85, 0
3, 135060, Note_on_c, 0, 84, 123
3, 135120, Note_on_c, 0, 84, 0
3, 135120, Note_on_c, 0, 82, 123
3, 135300, Note_on_c, 0, 82, 0
3, 135300, Note_on_c, 0, 85, 123
3, 135360, Note_on_c, 0, 85, 0
3, 135360, Note_on_c, 0, 79, 123
3, 135540, Note_on_c, 0, 79, 0
3, 135540, Note_on_c, 0, 82, 123
3, 135600, Note_on_c, 0, 82, 0
3, 135600, Note_on_c, 0, 76, 123
3, 135780, Note_on_c, 0, 76, 0
3, 135780, Note_on_c, 0, 79, 123
3, 135840, Note_on_c, 0, 79, 0
3, 135840, Note_on_c, 0, 84, 123
3, 136320, Note_on_c, 0, 84, 0
3, 136320, Note_on_c, 0, 85, 123
3, 136500, Note_on_c, 0, 85, 0
3, 136500, Note_on_c, 0, 82, 123
3, 136560, Note_on_c, 0, 82, 0
3, 136560, Note_on_c, 0, 89, 123
3, 136800, Note_on_c, 0, 89, 0
3, 136800, Note_on_c, 0, 82, 123
3, 137040, Note_on_c, 0, 82, 0
3, 137040, Note_on_c, 0, 84, 123
3, 137220, Note_on_c, 0, 84, 0
3, 137220, Note_on_c, 0, 80, 123
3, 137280, Note_on_c, 0, 80, 0
3, 137280, Note_on_c, 0, 87, 123
3, 137520, Note_on_c, 0, 87, 0
3, 137520, Note_on_c, 0, 82, 123
3, 137760, Note_on_c, 0, 82, 0
3, 138240, Note_on_c, 0, 80, 123
3, 138480, Note_on_c, 0, 80, 0
3, 138960, Note_on_c, 0, 79, 123
3, 139200, Note_on_c, 0, 79, 0
3, 140160, Note_on_c, 0, 68, 123
3, 140340, Note_on_c, 0, 68, 0
3, 140340, Note_on_c, 0, 72, 123
3, 140400, Note_on_c, 0, 72, 0
3, 140400, Note_on_c, 0, 75, 123
3, 140640, Note_on_c, 0, 75, 0
3, 141120, Note_on_c, 0, 85, 91
3, 141360, Note_on_c, 0, 85, 0
3, 141360, Note_on_c, 0, 84, 91
3, 141840, Note_on_c, 0, 84, 0
3, 141840, Note_on_c, 0, 82, 91
3, 142080, Note_on_c, 0, 82, 0
3, 142080, Note_on_c, 0, 80, 91
3, 142560, Note_on_c, 0, 80, 0
3, 142560, Note_on_c, 0, 79, 91
3, 143040, Note_on_c, 0, 79, 0
3, 143040, Note_on_c, 0, 79, 91
3, 143120, Note_on_c, 0, 79, 0
3, 143120, Note_on_c, 0, 80, 91
3, 143200, Note_on_c, 0, 80, 0
3, 143200, Note_on_c, 0, 82, 91
3, 143280, Note_on_c, 0, 82, 0
3, 143280, Note_on_c, 0, 80, 91
3, 143520, Note_on_c, 0, 80, 0
3, 146640, Note_on_c, 0, 79, 91
3, 146720, Note_on_c, 0, 79, 0
3, 146720, Note_on_c, 0, 80, 91
3, 146800, Note_on_c, 0, 80, 0
3, 146800, Note_on_c, 0, 82, 91
3, 146880, Note_on_c, 0, 82, 0
3, 146880, Note_on_c, 0, 80, 91
3, 147120, Note_on_c, 0, 80, 0
3, 154560, Note_on_c, 0, 70, 115
3, 154800, Note_on_c, 0, 70, 0
3, 154800, Note_on_c, 0, 72, 115
3, 155040, Note_on_c, 0, 72, 0
3, 156000, Note_on_c, 0, 79, 115
3, 156240, Note_on_c, 0, 79, 0
3, 156240, Note_on_c, 0, 80, 115
3, 156480, Note_on_c, 0, 80, 0
3, 156880, Note_on_c, 0, 72, 115
3, 156960, Note_on_c, 0, 72, 0
3, 156960, Note_on_c, 0, 75, 123
3, 157040, Note_on_c, 0, 75, 0
3, 157040, Note_on_c, 0, 80, 123
3, 157120, Note_on_c, 0, 80, 0
3, 157120, Note_on_c, 0, 84, 123
3, 157200, Note_on_c, 0, 84, 0
3, 157200, Note_on_c, 0, 87, 109
3, 158400, Note_on_c, 0, 87, 0
3, 158400, Note_on_c, 0, 85, 91
3, 158640, Note_on_c, 0, 85, 0
3, 158640, Note_on_c, 0, 84, 91
3, 159120, Note_on_c, 0, 84, 0
3, 159120, Note_on_c, 0, 82, 91
3, 159360, Note_on_c, 0, 82, 0
3, 159360, Note_on_c, 0, 80, 91
3, 159840, Note_on_c, 0, 80, 0
3, 159840, Note_on_c, 0, 79, 91
3, 160320, Note_on_c, 0, 79, 0
3, 160320, Note_on_c, 0, 79, 91
3, 160400, Note_on_c, 0, 79, 0
3, 160400, Note_on_c, 0, 80, 91
3, 160480, Note_on_c, 0, 80, 0
3, 160480, Note_on_c, 0, 82, 91
3, 160560, Note_on_c, 0, 82, 0
3, 160560, Note_on_c, 0, 80, 91
3, 160800, Note_on_c, 0, 80, 0
3, 162600, Note_on_c, 0, 87, 115
3, 162720, Note_on_c, 0, 87, 0
3, 162720, Note_on_c, 0, 87, 115
3, 162840, Note_on_c, 0, 87, 0
3, 162840, Note_on_c, 0, 85, 115
3, 162960, Note_on_c, 0, 85, 0
3, 162960, Note_on_c, 0, 84, 115
3, 163320, Note_on_c, 0, 84, 0
3, 173280, Note_on_c, 0, 80, 115
3, 173360, Note_on_c, 0, 80, 0
3, 173360, Note_on_c, 0, 80, 115
3, 173440, Note_on_c, 0, 80, 0
3, 173440, Note_on_c, 0, 80, 115
3, 173520, Note_on_c, 0, 80, 0
3, 173520, Note_on_c, 0, 80, 115
3, 173600, Note_on_c, 0, 80, 0
3, 173600, Note_on_c, 0, 80, 115
3, 173680, Note_on_c, 0, 80, 0
3, 173680, Note_on_c, 0, 80, 115
3, 173760, Note_on_c, 0, 80, 0
3, 173760, Note_on_c, 0, 80, 115
3, 173840, Note_on_c, 0, 80, 0
3, 173840, Note_on_c, 0, 80, 115
3, 173920, Note_on_c, 0, 80, 0
3, 173920, Note_on_c, 0, 80, 115
3, 174000, Note_on_c, 0, 80, 0
3, 174000, Note_on_c, 0, 80, 115
3, 174080, Note_on_c, 0, 80, 0
3, 174080, Note_on_c, 0, 72, 115
3, 174160, Note_on_c, 0, 72, 0
3, 174160, Note_on_c, 0, 75, 115
3, 174240, Note_on_c, 0, 75, 0
3, 174240, Note_on_c, 0, 80, 123
3, 174480, Note_on_c, 0, 80, 0
3, 174960, Note_on_c, 0, 75, 123
3, 175680, Note_on_c, 0, 75, 0
3, 175680, Note_on_c, 0, 72, 123
3, 175920, Note_on_c, 0, 72, 0
3, 176160, Note_on_c, 0, 79, 91
3, 176400, Note_on_c, 0, 79, 0
3, 176400, Note_on_c, 0, 80, 91
3, 176640, Note_on_c, 0, 80, 0
3, 176880, Note_on_c, 0, 80, 115
3, 177060, Note_on_c, 0, 80, 0
3, 177060, Note_on_c, 0, 84, 115
3, 177120, Note_on_c, 0, 84, 0
3, 177120, Note_on_c, 0, 75, 123
3, 177840, Note_on_c, 0, 75, 0
3, 177840, Note_on_c, 0, 68, 123
3, 178080, Note_on_c, 0, 68, 0
3, 178080, End_track
4, 0, Start_track
4, 0, MIDI_port, 0
4, 0, Title_t, "Oboe 1"
4, 0, Program_c, 1, 68
4, 7680, Note_on_c, 1, 63, 91
4, 7920, Note_on_c, 1, 63, 0
4, 7920, Note_on_c, 1, 63, 115
4, 8400, Note_on_c, 1, 63, 0
4, 8400, Note_on_c, 1, 65, 109
4, 8520, Note_on_c, 1, 65, 0
4, 8520, Note_on_c, 1, 67, 101
4, 8640, Note_on_c, 1, 67, 0
4, 8640, Note_on_c, 1, 68, 91
4, 9360, Note_on_c, 1, 68, 0
4, 9360, Note_on_c, 1, 63, 91
4, 10080, Note_on_c, 1, 63, 0
4, 10080, Note_on_c, 1, 63, 91
4, 10320, Note_on_c, 1, 63, 0
4, 10320, Note_on_c, 1, 63, 91
4, 10560, Note_on_c, 1, 63, 0
4, 10560, Note_on_c, 1, 63, 91
4, 10800, Note_on_c, 1, 63, 0
4, 10800, Note_on_c, 1, 63, 91
4, 11040, Note_on_c, 1, 63, 0
4, 14160, Note_on_c, 1, 63, 91
4, 14640, Note_on_c, 1, 63, 0
4, 14880, Note_on_c, 1, 67, 115
4, 15120, Note_on_c, 1, 67, 0
4, 15120, Note_on_c, 1, 68, 115
4, 15240, Note_on_c, 1, 68, 0
4, 15360, Note_on_c, 1, 63, 91
4, 15480, Note_on_c, 1, 63, 0
4, 15600, Note_on_c, 1, 63, 91
4, 15720, Note_on_c, 1, 63, 0
4, 15840, Note_on_c, 1, 63, 91
4, 16080, Note_on_c, 1, 63, 0
4, 20640, Note_on_c, 1, 63, 78
4, 20820, Note_on_c, 1, 63, 0
4, 20820, Note_on_c, 1, 65, 78
4, 20880, Note_on_c, 1, 65, 0
4, 20880, Note_on_c, 1, 66, 123
4, 21600, Note_on_c, 1, 66, 0
4, 21600, Note_on_c, 1, 67, 123
4, 21780, Note_on_c, 1, 67, 0
4, 21780, Note_on_c, 1, 64, 123
4, 21840, Note_on_c, 1, 64, 0
4, 21840, Note_on_c, 1, 60, 123
4, 22080, Note_on_c, 1, 60, 0
4, 22080, Note_on_c, 1, 62, 123
4, 22320, Note_on_c, 1, 62, 0
4, 22320, Note_on_c, 1, 60, 123
4, 22560, Note_on_c, 1, 60, 0
4, 22800, Note_on_c, 1, 52, 123
4, 22980, Note_on_c, 1, 52, 0
4, 22980, Note_on_c, 1, 55, 123
4, 23040, Note_on_c, 1, 55, 0
4, 23040, Note_on_c, 1, 60, 123
4, 23280, Note_on_c, 1, 60, 0
4, 23280, Note_on_c, 1, 60, 123
4, 23520, Note_on_c, 1, 60, 0
4, 23520, Note_on_c, 1, 62, 123
4, 23760, Note_on_c, 1, 62, 0
4, 23760, Note_on_c, 1, 64, 123
4, 24240, Note_on_c, 1, 64, 0
4, 24240, Note_on_c, 1, 60, 123
4, 24420, Note_on_c, 1, 60, 0
4, 24420, Note_on_c, 1, 62, 123
4, 24480, Note_on_c, 1, 62, 0
4, 24480, Note_on_c, 1, 64, 123
4, 24720, Note_on_c, 1, 64, 0
4, 24720, Note_on_c, 1, 64, 123
4, 24960, Note_on_c, 1, 64, 0
4, 24960, Note_on_c, 1, 65, 123
4, 25200, Note_on_c, 1, 65, 0
4, 25200, Note_on_c, 1, 67, 123
4, 25680, Note_on_c, 1, 67, 0
4, 25680, Note_on_c, 1, 64, 123
4, 25860, Note_on_c, 1, 64, 0
4, 25860, Note_on_c, 1, 65, 123
4, 25920, Note_on_c, 1, 65, 0
4, 25920, Note_on_c, 1, 67, 123
4, 26400, Note_on_c, 1, 67, 0
4, 26400, Note_on_c, 1, 64, 123
4, 26580, Note_on_c, 1, 64, 0
4, 26580, Note_on_c, 1, 65, 123
4, 26640, Note_on_c, 1, 65, 0
4, 26640, Note_on_c, 1, 67, 91
4, 27600, Note_on_c, 1, 67, 0
4, 40320, Note_on_c, 1, 58, 115
4, 40560, Note_on_c, 1, 58, 0
4, 40560, Note_on_c, 1, 58, 115
4, 40800, Note_on_c, 1, 58, 0
4, 40800, Note_on_c, 1, 58, 115
4, 41040, Note_on_c, 1, 58, 0
4, 41040, Note_on_c, 1, 60, 91
4, 41520, Note_on_c, 1, 60, 0
4, 42840, Note_on_c, 1, 63, 91
4, 42960, Note_on_c, 1, 63, 0
4, 42960, Note_on_c, 1, 63, 101
4, 43080, Note_on_c, 1, 63, 0
4, 43080, Note_on_c, 1, 63, 109
4, 43200, Note_on_c, 1, 63, 0
4, 43200, Note_on_c, 1, 63, 115
4, 43680, Note_on_c, 1, 63, 0
4, 43680, Note_on_c, 1, 65, 109
4, 43800, Note_on_c, 1, 65, 0
4, 43800, Note_on_c, 1, 67, 101
4, 43920, Note_on_c, 1, 67, 0
4, 43920, Note_on_c, 1, 68, 91
4, 44640, Note_on_c, 1, 68, 0
4, 44640, Note_on_c, 1, 63, 91
4, 45360, Note_on_c, 1, 63, 0
4, 45360, Note_on_c, 1, 63, 91
4, 45600, Note_on_c, 1, 63, 0
4, 45600, Note_on_c, 1, 63, 91
4, 45840, Note_on_c, 1, 63, 0
4, 45840, Note_on_c, 1, 63, 91
4, 46080, Note_on_c, 1, 63, 0
4, 46080, Note_on_c, 1, 63, 91
4, 46320, Note_on_c, 1, 63, 0
4, 49440, Note_on_c, 1, 63, 91
4, 49920, Note_on_c, 1, 63, 0
4, 50160, Note_on_c, 1, 67, 115
4, 50400, Note_on_c, 1, 67, 0
4, 50400, Note_on_c, 1, 68, 115
4, 50520, Note_on_c, 1, 68, 0
4, 50640, Note_on_c, 1, 63, 91
4, 50760, Note_on_c, 1, 63, 0
4, 50880, Note_on_c, 1, 63, 91
4, 51000, Note_on_c, 1, 63, 0
4, 51120, Note_on_c, 1, 63, 91
4, 51360, Note_on_c, 1, 63, 0
4, 55920, Note_on_c, 1, 63, 78
4, 56100, Note_on_c, 1, 63, 0
4, 56100, Note_on_c, 1, 65, 78
4, 56160, Note_on_c, 1, 65, 0
4, 56160, Note_on_c, 1, 66, 123
4, 56880, Note_on_c, 1, 66, 0
4, 56880, Note_on_c, 1, 67, 123
4, 57060, Note_on_c, 1, 67, 0
4, 57060, Note_on_c, 1, 64, 123
4, 57120, Note_on_c, 1, 64, 0
4, 57120, Note_on_c, 1, 60, 123
4, 57360, Note_on_c, 1, 60, 0
4, 57360, Note_on_c, 1, 62, 123
4, 57600, Note_on_c, 1, 62, 0
4, 57600, Note_on_c, 1, 60, 123
4, 57840, Note_on_c, 1, 60, 0
4, 58080, Note_on_c, 1, 52, 123
4, 58260, Note_on_c, 1, 52, 0
4, 58260, Note_on_c, 1, 55, 123
4, 58320, Note_on_c, 1, 55, 0
4, 58320, Note_on_c, 1, 60, 123
4, 58560, Note_on_c, 1, 60, 0
4, 58560, Note_on_c, 1, 60, 123
4, 58800, Note_on_c, 1, 60, 0
4, 58800, Note_on_c, 1, 62, 123
4, 59040, Note_on_c, 1, 62, 0
4, 59040, Note_on_c, 1, 64, 123
4, 59520, Note_on_c, 1, 64, 0
4, 59520, Note_on_c, 1, 60, 123
4, 59700, Note_on_c, 1, 60, 0
4, 59700, Note_on_c, 1, 62, 123
4, 59760, Note_on_c, 1, 62, 0
4, 59760, Note_on_c, 1, 64, 123
4, 60000, Note_on_c, 1, 64, 0
4, 60000, Note_on_c, 1, 64, 123
4, 60240, Note_on_c, 1, 64, 0
4, 60240, Note_on_c, 1, 65, 123
4, 60480, Note_on_c, 1, 65, 0
4, 60480, Note_on_c, 1, 67, 123
4, 60960, Note_on_c, 1, 67, 0
4, 60960, Note_on_c, 1, 64, 123
4, 61140, Note_on_c, 1, 64, 0
4, 61140, Note_on_c, 1, 65, 123
4, 61200, Note_on_c, 1, 65, 0
4, 61200, Note_on_c, 1, 67, 123
4, 61680, Note_on_c, 1, 67, 0
4, 61680, Note_on_c, 1, 64, 123
4, 61860, Note_on_c, 1, 64, 0
4, 61860, Note_on_c, 1, 65, 123
4, 61920, Note_on_c, 1, 65, 0
4, 61920, Note_on_c, 1, 67, 101
4, 62880, Note_on_c, 1, 67, 0
4, 70440, Note_on_c, 1, 63, 123
4, 70560, Note_on_c, 1, 63, 0
4, 70560, Note_on_c, 1, 63, 115
4, 71280, Note_on_c, 1, 63, 0
4, 71280, Note_on_c, 1, 63, 91
4, 73440, Note_on_c, 1, 63, 0
4, 73440, Note_on_c, 1, 64, 91
4, 74160, Note_on_c, 1, 64, 0
4, 74160, Note_on_c, 1, 65, 91
4, 75120, Note_on_c, 1, 65, 0
4, 75120, Note_on_c, 1, 63, 78
4, 76320, Note_on_c, 1, 63, 0
4, 76320, Note_on_c, 1, 60, 78
4, 76560, Note_on_c, 1, 60, 0
4, 82200, Note_on_c, 1, 63, 115
4, 82320, Note_on_c, 1, 63, 0
4, 82320, Note_on_c, 1, 63, 115
4, 82440, Note_on_c, 1, 63, 0
4, 82440, Note_on_c, 1, 63, 115
4, 82560, Note_on_c, 1, 63, 0
4, 82560, Note_on_c, 1, 63, 115
4, 82680, Note_on_c, 1, 63, 0
4, 82680, Note_on_c, 1, 63, 115
4, 82800, Note_on_c, 1, 63, 0
4, 82800, Note_on_c, 1, 63, 115
4, 82920, Note_on_c, 1, 63, 0
4, 82920, Note_on_c, 1, 63, 115
4, 83040, Note_on_c, 1, 63, 0
4, 83040, Note_on_c, 1, 63, 115
4, 83160, Note_on_c, 1, 63, 0
4, 83160, Note_on_c, 1, 63, 115
4, 83280, Note_on_c, 1, 63, 0
4, 83280, Note_on_c, 1, 63, 115
4, 83400, Note_on_c, 1, 63, 0
4, 83400, Note_on_c, 1, 63, 115
4, 83520, Note_on_c, 1, 63, 0
4, 83520, Note_on_c, 1, 65, 115
4, 83640, Note_on_c, 1, 65, 0
4, 83640, Note_on_c, 1, 65, 115
4, 83760, Note_on_c, 1, 65, 0
4, 83760, Note_on_c, 1, 65, 115
4, 83880, Note_on_c, 1, 65, 0
4, 83880, Note_on_c, 1, 65, 115
4, 84000, Note_on_c, 1, 65, 0
4, 84000, Note_on_c, 1, 65, 115
4, 84120, Note_on_c, 1, 65, 0
4, 84120, Note_on_c, 1, 65, 115
4, 84240, Note_on_c, 1, 65, 0
4, 84240, Note_on_c, 1, 65, 115
4, 84360, Note_on_c, 1, 65, 0
4, 84360, Note_on_c, 1, 65, 115
4, 84480, Note_on_c, 1, 65, 0
4, 84480, Note_on_c, 1, 65, 115
4, 84600, Note_on_c, 1, 65, 0
4, 84600, Note_on_c, 1, 65, 115
4, 84720, Note_on_c, 1, 65, 0
4, 84720, Note_on_c, 1, 67, 115
4, 84840, Note_on_c, 1, 67, 0
4, 84840, Note_on_c, 1, 67, 115
4, 84960, Note_on_c, 1, 67, 0
4, 84960, Note_on_c, 1, 67, 115
4, 85080, Note_on_c, 1, 67, 0
4, 85080, Note_on_c, 1, 67, 115
4, 85200, Note_on_c, 1, 67, 0
4, 85200, Note_on_c, 1, 67, 115
4, 85320, Note_on_c, 1, 67, 0
4, 85320, Note_on_c, 1, 67, 115
4, 85440, Note_on_c, 1, 67, 0
4, 85440, Note_on_c, 1, 67, 115
4, 85560, Note_on_c, 1, 67, 0
4, 85560, Note_on_c, 1, 67, 115
4, 85680, Note_on_c, 1, 67, 0
4, 85680, Note_on_c, 1, 65, 115
4, 85800, Note_on_c, 1, 65, 0
4, 85800, Note_on_c, 1, 72, 115
4, 85920, Note_on_c, 1, 72, 0
4, 85920, Note_on_c, 1, 72, 115
4, 86040, Note_on_c, 1, 72, 0
4, 86040, Note_on_c, 1, 72, 115
4, 86160, Note_on_c, 1, 72, 0
4, 86160, Note_on_c, 1, 70, 115
4, 86280, Note_on_c, 1, 70, 0
4, 86280, Note_on_c, 1, 70, 115
4, 86400, Note_on_c, 1, 70, 0
4, 86400, Note_on_c, 1, 70, 115
4, 86520, Note_on_c, 1, 70, 0
4, 86520, Note_on_c, 1, 70, 115
4, 86640, Note_on_c, 1, 70, 0
4, 86640, Note_on_c, 1, 70, 115
4, 86760, Note_on_c, 1, 70, 0
4, 86760, Note_on_c, 1, 70, 115
4, 86880, Note_on_c, 1, 70, 0
4, 86880, Note_on_c, 1, 68, 115
4, 87000, Note_on_c, 1, 68, 0
4, 87000, Note_on_c, 1, 68, 115
4, 87120, Note_on_c, 1, 68, 0
4, 87120, Note_on_c, 1, 67, 115
4, 87840, Note_on_c, 1, 67, 0
4, 87840, Note_on_c, 1, 51, 115
4, 88200, Note_on_c, 1, 51, 0
4, 88200, Note_on_c, 1, 53, 115
4, 88260, Note_on_c, 1, 53, 0
4, 88260, Note_on_c, 1, 55, 115
4, 88320, Note_on_c, 1, 55, 0
4, 88320, Note_on_c, 1, 56, 115
4, 88380, Note_on_c, 1, 56, 0
4, 88380, Note_on_c, 1, 58, 115
4, 88440, Note_on_c, 1, 58, 0
4, 88440, Note_on_c, 1, 60, 115
4, 88500, Note_on_c, 1, 60, 0
4, 88500, Note_on_c, 1, 62, 115
4, 88560, Note_on_c, 1, 62, 0
4, 88560, Note_on_c, 1, 63, 115
4, 89040, Note_on_c, 1, 63, 0
4, 95520, Note_on_c, 1, 56, 115
4, 95640, Note_on_c, 1, 56, 0
4, 95640, Note_on_c, 1, 62, 115
4, 95760, Note_on_c, 1, 62, 0
4, 95760, Note_on_c, 1, 65, 115
4, 96000, Note_on_c, 1, 65, 0
4, 96000, Note_on_c, 1, 65, 115
4, 96120, Note_on_c, 1, 65, 0
4, 96120, Note_on_c, 1, 63, 115
4, 96240, Note_on_c, 1, 63, 0
4, 96240, Note_on_c, 1, 62, 115
4, 96360, Note_on_c, 1, 62, 0
4, 96360, Note_on_c, 1, 65, 115
4, 96480, Note_on_c, 1, 65, 0
4, 96480, Note_on_c, 1, 68, 115
4, 96720, Note_on_c, 1, 68, 0
4, 96720, Note_on_c, 1, 68, 115
4, 96840, Note_on_c, 1, 68, 0
4, 96840, Note_on_c, 1, 67, 115
4, 96960, Note_on_c, 1, 67, 0
4, 96960, Note_on_c, 1, 65, 115
4, 97080, Note_on_c, 1, 65, 0
4, 97080, Note_on_c, 1, 63, 115
4, 97200, Note_on_c, 1, 63, 0
4, 97200, Note_on_c, 1, 62, 115
4, 97440, Note_on_c, 1, 62, 0
4, 97440, Note_on_c, 1, 62, 115
4, 97560, Note_on_c, 1, 62, 0
4, 97560, Note_on_c, 1, 63, 115
4, 97680, Note_on_c, 1, 63, 0
4, 97680, Note_on_c, 1, 65, 115
4, 97800, Note_on_c, 1, 65, 0
4, 97800, Note_on_c, 1, 67, 115
4, 97920, Note_on_c, 1, 67, 0
4, 97920, Note_on_c, 1, 68, 115
4, 98040, Note_on_c, 1, 68, 0
4, 98040, Note_on_c, 1, 67, 115
4, 98160, Note_on_c, 1, 67, 0
4, 98160, Note_on_c, 1, 65, 115
4, 98280, Note_on_c, 1, 65, 0
4, 98280, Note_on_c, 1, 63, 115
4, 98400, Note_on_c, 1, 63, 0
4, 98400, Note_on_c, 1, 62, 123
4, 98520, Note_on_c, 1, 62, 0
4, 98520, Note_on_c, 1, 63, 123
4, 98640, Note_on_c, 1, 63, 0
4, 98640, Note_on_c, 1, 65, 123
4, 98760, Note_on_c, 1, 65, 0
4, 98760, Note_on_c, 1, 67, 123
4, 98880, Note_on_c, 1, 67, 0
4, 98880, Note_on_c, 1, 68, 123
4, 99000, Note_on_c, 1, 68, 0
4, 99000, Note_on_c, 1, 68, 115
4, 99120, Note_on_c, 1, 68, 0
4, 99120, Note_on_c, 1, 67, 115
4, 99240, Note_on_c, 1, 67, 0
4, 99240, Note_on_c, 1, 65, 115
4, 99360, Note_on_c, 1, 65, 0
4, 99360, Note_on_c, 1, 63, 115
4, 100200, Note_on_c, 1, 63, 0
4, 100200, Note_on_c, 1, 65, 115
4, 100320, Note_on_c, 1, 65, 0
4, 100320, Note_on_c, 1, 67, 115
4, 100440, Note_on_c, 1, 67, 0
4, 100440, Note_on_c, 1, 68, 115
4, 100560, Note_on_c, 1, 68, 0
4, 100560, Note_on_c, 1, 70, 115
4, 100680, Note_on_c, 1, 70, 0
4, 100680, Note_on_c, 1, 72, 115
4, 100800, Note_on_c, 1, 72, 0
4, 100800, Note_on_c, 1, 73, 115
4, 101040, Note_on_c, 1, 73, 0
4, 101040, Note_on_c, 1, 73, 115
4, 101160, Note_on_c, 1, 73, 0
4, 101160, Note_on_c, 1, 72, 115
4, 101280, Note_on_c, 1, 72, 0
4, 101280, Note_on_c, 1, 70, 115
4, 101400, Note_on_c, 1, 70, 0
4, 101400, Note_on_c, 1, 68, 115
4, 101520, Note_on_c, 1, 68, 0
4, 101520, Note_on_c, 1, 67, 123
4, 101640, Note_on_c, 1, 67, 0
4, 101640, Note_on_c, 1, 68, 123
4, 101760, Note_on_c, 1, 68, 0
4, 101760, Note_on_c, 1, 70, 123
4, 101880, Note_on_c, 1, 70, 0
4, 101880, Note_on_c, 1, 72, 123
4, 102000, Note_on_c, 1, 72, 0
4, 102000, Note_on_c, 1, 73, 123
4, 102120, Note_on_c, 1, 73, 0
4, 102120, Note_on_c, 1, 72, 123
4, 102240, Note_on_c, 1, 72, 0
4, 102240, Note_on_c, 1, 70, 115
4, 102360, Note_on_c, 1, 70, 0
4, 102360, Note_on_c, 1, 68, 115
4, 102480, Note_on_c, 1, 68, 0
4, 102480, Note_on_c, 1, 67, 115
4, 102600, Note_on_c, 1, 67, 0
4, 102600, Note_on_c, 1, 73, 115
4, 102720, Note_on_c, 1, 73, 0
4, 102720, Note_on_c, 1, 72, 115
4, 102840, Note_on_c, 1, 72, 0
4, 102840, Note_on_c, 1, 70, 115
4, 102960, Note_on_c, 1, 70, 0
4, 102960, Note_on_c, 1, 68, 115
4, 103080, Note_on_c, 1, 68, 0
4, 103080, Note_on_c, 1, 72, 115
4, 103200, Note_on_c, 1, 72, 0
4, 103200, Note_on_c, 1, 70, 115
4, 103320, Note_on_c, 1, 70, 0
4, 103320, Note_on_c, 1, 68, 115
4, 103440, Note_on_c, 1, 68, 0
4, 103440, Note_on_c, 1, 67, 115
4, 103560, Note_on_c, 1, 67, 0
4, 104040, Note_on_c, 1, 68, 115
4, 104160, Note_on_c, 1, 68, 0
4, 104160, Note_on_c, 1, 67, 115
4, 104280, Note_on_c, 1, 67, 0
4, 104280, Note_on_c, 1, 65, 115
4, 104400, Note_on_c, 1, 65, 0
4, 104400, Note_on_c, 1, 65, 115
4, 104520, Note_on_c, 1, 65, 0
4, 104520, Note_on_c, 1, 65, 115
4, 104640, Note_on_c, 1, 65, 0
4, 104640, Note_on_c, 1, 65, 115
4, 104760, Note_on_c, 1, 65, 0
4, 104760, Note_on_c, 1, 65, 115
4, 104880, Note_on_c, 1, 65, 0
4, 104880, Note_on_c, 1, 65, 115
4, 105000, Note_on_c, 1, 65, 0
4, 105000, Note_on_c, 1, 65, 115
4, 105120, Note_on_c, 1, 65, 0
4, 105120, Note_on_c, 1, 65, 115
4, 105240, Note_on_c, 1, 65, 0
4, 105240, Note_on_c, 1, 65, 115
4, 105360, Note_on_c, 1, 65, 0
4, 105360, Note_on_c, 1, 65, 115
4, 105480, Note_on_c, 1, 65, 0
4, 105480, Note_on_c, 1, 65, 115
4, 105600, Note_on_c, 1, 65, 0
4, 106320, Note_on_c, 1, 52, 123
4, 106500, Note_on_c, 1, 52, 0
4, 106500, Note_on_c, 1, 55, 123
4, 106560, Note_on_c, 1, 55, 0
4, 106560, Note_on_c, 1, 60, 123
4, 106800, Note_on_c, 1, 60, 0
4, 106800, Note_on_c, 1, 60, 123
4, 107040, Note_on_c, 1, 60, 0
4, 107040, Note_on_c, 1, 62, 123
4, 107280, Note_on_c, 1, 62, 0
4, 107280, Note_on_c, 1, 64, 123
4, 108480, Note_on_c, 1, 64, 0
4, 108480, Note_on_c, 1, 60, 123
4, 108660, Note_on_c, 1, 60, 0
4, 108660, Note_on_c, 1, 62, 123
4, 108720, Note_on_c, 1, 62, 0
4, 108720, Note_on_c, 1, 64, 123
4, 108960, Note_on_c, 1, 64, 0
4, 108960, Note_on_c, 1, 64, 123
4, 109200, Note_on_c, 1, 64, 0
4, 109200, Note_on_c, 1, 65, 123
4, 109440, Note_on_c, 1, 65, 0
4, 109440, Note_on_c, 1, 67, 123
4, 110640, Note_on_c, 1, 67, 0
4, 110640, Note_on_c, 1, 64, 123
4, 110820, Note_on_c, 1, 64, 0
4, 110820, Note_on_c, 1, 65, 123
4, 110880, Note_on_c, 1, 65, 0
4, 110880, Note_on_c, 1, 67, 123
4, 111360, Note_on_c, 1, 67, 0
4, 111360, Note_on_c, 1, 64, 123
4, 111540, Note_on_c, 1, 64, 0
4, 111540, Note_on_c, 1, 65, 123
4, 111600, Note_on_c, 1, 65, 0
4, 111600, Note_on_c, 1, 67, 123
4, 112080, Note_on_c, 1, 67, 0
4, 112080, Note_on_c, 1, 64, 123
4, 112260, Note_on_c, 1, 64, 0
4, 112260, Note_on_c, 1, 65, 123
4, 112320, Note_on_c, 1, 65, 0
4, 112320, Note_on_c, 1, 67, 91
4, 114000, Note_on_c, 1, 67, 0
4, 120480, Note_on_c, 1, 63, 91
4, 120600, Note_on_c, 1, 63, 0
4, 121200, Note_on_c, 1, 63, 91
4, 121320, Note_on_c, 1, 63, 0
4, 121920, Note_on_c, 1, 63, 91
4, 122040, Note_on_c, 1, 63, 0
4, 122640, Note_on_c, 1, 66, 91
4, 122760, Note_on_c, 1, 66, 0
4, 123360, Note_on_c, 1, 66, 91
4, 123480, Note_on_c, 1, 66, 0
4, 124080, Note_on_c, 1, 66, 91
4, 124200, Note_on_c, 1, 66, 0
4, 124800, Note_on_c, 1, 63, 91
4, 124920, Note_on_c, 1, 63, 0
4, 125520, Note_on_c, 1, 63, 91
4, 125640, Note_on_c, 1, 63, 0
4, 126240, Note_on_c, 1, 63, 91
4, 126480, Note_on_c, 1, 63, 0
4, 126600, Note_on_c, 1, 63, 91
4, 126720, Note_on_c, 1, 63, 0
4, 126720, Note_on_c, 1, 63, 115
4, 126840, Note_on_c, 1, 63, 0
4, 126840, Note_on_c, 1, 63, 115
4, 127080, Note_on_c, 1, 63, 0
4, 132840, Note_on_c, 1, 63, 101
4, 132960, Note_on_c, 1, 63, 0
4, 132960, Note_on_c, 1, 63, 109
4, 133080, Note_on_c, 1, 63, 0
4, 133080, Note_on_c, 1, 63, 115
4, 133200, Note_on_c, 1, 63, 0
4, 133200, Note_on_c, 1, 63, 123
4, 133920, Note_on_c, 1, 63, 0
4, 133920, Note_on_c, 1, 65, 123
4, 134640, Note_on_c, 1, 65, 0
4, 134640, Note_on_c, 1, 67, 123
4, 135360, Note_on_c, 1, 67, 0
4, 135360, Note_on_c, 1, 67, 123
4, 136080, Note_on_c, 1, 67, 0
4, 136080, Note_on_c, 1, 65, 123
4, 136800, Note_on_c, 1, 65, 0
4, 136800, Note_on_c, 1, 63, 123
4, 137520, Note_on_c, 1, 63, 0
4, 137520, Note_on_c, 1, 70, 123
4, 137760, Note_on_c, 1, 70, 0
4, 138240, Note_on_c, 1, 72, 123
4, 138480, Note_on_c, 1, 72, 0
4, 138960, Note_on_c, 1, 70, 123
4, 139200, Note_on_c, 1, 70, 0
4, 139680, Note_on_c, 1, 72, 123
4, 139920, Note_on_c, 1, 72, 0
4, 140160, Note_on_c, 1, 56, 123
4, 140340, Note_on_c, 1, 56, 0
4, 140340, Note_on_c, 1, 60, 123
4, 140400, Note_on_c, 1, 60, 0
4, 140400, Note_on_c, 1, 63, 101
4, 140880, Note_on_c, 1, 63, 0
4, 140880, Note_on_c, 1, 65, 101
4, 141000, Note_on_c, 1, 65, 0
4, 141000, Note_on_c, 1, 67, 101
4, 141120, Note_on_c, 1, 67, 0
4, 141120, Note_on_c, 1, 68, 91
4, 141840, Note_on_c, 1, 68, 0
4, 141840, Note_on_c, 1, 63, 91
4, 142560, Note_on_c, 1, 63, 0
4, 142560, Note_on_c, 1, 63, 91
4, 142800, Note_on_c, 1, 63, 0
4, 142800, Note_on_c, 1, 63, 91
4, 143040, Note_on_c, 1, 63, 0
4, 143040, Note_on_c, 1, 63, 91
4, 143280, Note_on_c, 1, 63, 0
4, 143280, Note_on_c, 1, 63, 91
4, 143520, Note_on_c, 1, 63, 0
4, 151320, Note_on_c, 1, 63, 91
4, 151380, Note_on_c, 1, 63, 0
4, 151380, Note_on_c, 1, 65, 91
4, 151440, Note_on_c, 1, 65, 0
4, 151440, Note_on_c, 1, 66, 91
4, 151680, Note_on_c, 1, 66, 0
4, 152040, Note_on_c, 1, 61, 91
4, 152100, Note_on_c, 1, 61, 0
4, 152100, Note_on_c, 1, 63, 91
4, 152160, Note_on_c, 1, 63, 0
4, 152160, Note_on_c, 1, 65, 91
4, 152400, Note_on_c, 1, 65, 0
4, 152760, Note_on_c, 1, 61, 91
4, 152820, Note_on_c, 1, 61, 0
4, 152820, Note_on_c, 1, 63, 91
4, 152880, Note_on_c, 1, 63, 0
4, 152880, Note_on_c, 1, 64, 91
4, 153120, Note_on_c, 1, 64, 0
4, 153360, Note_on_c, 1, 63, 91
4, 153600, Note_on_c, 1, 63, 0
4, 154560, Note_on_c, 1, 63, 115
4, 154800, Note_on_c, 1, 63, 0
4, 154800, Note_on_c, 1, 60, 115
4, 155040, Note_on_c, 1, 60, 0
4, 156000, Note_on_c, 1, 70, 115
4, 156240, Note_on_c, 1, 70, 0
4, 156240, Note_on_c, 1, 72, 115
4, 156480, Note_on_c, 1, 72, 0
4, 156960, Note_on_c, 1, 63, 123
4, 157200, Note_on_c, 1, 63, 0
4, 157200, Note_on_c, 1, 63, 109
4, 157440, Note_on_c, 1, 63, 0
4, 157920, Note_on_c, 1, 63, 101
4, 158160, Note_on_c, 1, 63, 0
4, 158160, Note_on_c, 1, 65, 101
4, 158280, Note_on_c, 1, 65, 0
4, 158280, Note_on_c, 1, 67, 101
4, 158400, Note_on_c, 1, 67, 0
4, 158400, Note_on_c, 1, 68, 91
4, 159120, Note_on_c, 1, 68, 0
4, 159120, Note_on_c, 1, 63, 91
4, 159840, Note_on_c, 1, 63, 0
4, 159840, Note_on_c, 1, 63, 91
4, 160080, Note_on_c, 1, 63, 0
4, 160080, Note_on_c, 1, 63, 91
4, 160320, Note_on_c, 1, 63, 0
4, 160320, Note_on_c, 1, 63, 91
4, 160560, Note_on_c, 1, 63, 0
4, 160560, Note_on_c, 1, 63, 91
4, 160800, Note_on_c, 1, 63, 0
4, 162600, Note_on_c, 1, 63, 115
4, 162720, Note_on_c, 1, 63, 0
4, 162720, Note_on_c, 1, 67, 115
4, 162960, Note_on_c, 1, 67, 0
4, 162960, Note_on_c, 1, 68, 115
4, 163320, Note_on_c, 1, 68, 0
4, 173280, Note_on_c, 1, 63, 115
4, 173360, Note_on_c, 1, 63, 0
4, 173360, Note_on_c, 1, 63, 115
4, 173440, Note_on_c, 1, 63, 0
4, 173440, Note_on_c, 1, 63, 115
4, 173520, Note_on_c, 1, 63, 0
4, 173520, Note_on_c, 1, 63, 115
4, 173600, Note_on_c, 1, 63, 0
4, 173600, Note_on_c, 1, 63, 115
4, 173680, Note_on_c, 1, 63, 0
4, 173680, Note_on_c, 1, 63, 115
4, 173760, Note_on_c, 1, 63, 0
4, 173760, Note_on_c, 1, 63, 115
4, 173840, Note_on_c, 1, 63, 0
4, 173840, Note_on_c, 1, 63, 115
4, 173920, Note_on_c, 1, 63, 0
4, 173920, Note_on_c, 1, 63, 115
4, 174000, Note_on_c, 1, 63, 0
4, 174000, Note_on_c, 1, 63, 115
4, 174080, Note_on_c, 1, 63, 0
4, 174080, Note_on_c, 1, 63, 115
4, 174160, Note_on_c, 1, 63, 0
4, 174160, Note_on_c, 1, 63, 115
4, 174240, Note_on_c, 1, 63, 0
4, 174240, Note_on_c, 1, 63, 123
4, 174480, Note_on_c, 1, 63, 0
4, 174960, Note_on_c, 1, 63, 123
4, 175680, Note_on_c, 1, 63, 0
4, 175680, Note_on_c, 1, 60, 123
4, 175920, Note_on_c, 1, 60, 0
4, 176160, Note_on_c, 1, 63, 91
4, 176400, Note_on_c, 1, 63, 0
4, 176400, Note_on_c, 1, 60, 91
4, 176640, Note_on_c, 1, 60, 0
4, 176880, Note_on_c, 1, 56, 115
4, 177060, Note_on_c, 1, 56, 0
4, 177060, Note_on_c, 1, 60, 115
4, 177120, Note_on_c, 1, 60, 0
4, 177120, Note_on_c, 1, 63, 123
4, 177840, Note_on_c, 1, 63, 0
4, 177840, Note_on_c, 1, 68, 123
4, 178080, Note_on_c, 1, 68, 0
4, 178080, End_track
5, 0, Start_track
5, 0, MIDI_port, 0
5, 0, Title_t, "Oboe 2"
5, 7680, Note_on_c, 1, 63, 91
5, 7920, Note_on_c, 1, 63, 0
5, 7920, Note_on_c, 1, 63, 115
5, 8400, Note_on_c, 1, 63, 0
5, 8400, Note_on_c, 1, 65, 109
5, 8520, Note_on_c, 1, 65, 0
5, 8520, Note_on_c, 1, 67, 101
5, 8640, Note_on_c, 1, 67, 0
5, 8640, Note_on_c, 1, 68, 91
5, 9360, Note_on_c, 1, 68, 0
5, 9360, Note_on_c, 1, 63, 91
5, 10080, Note_on_c, 1, 63, 0
5, 10080, Note_on_c, 1, 63, 91
5, 10320, Note_on_c, 1, 63, 0
5, 10320, Note_on_c, 1, 63, 91
5, 10560, Note_on_c, 1, 63, 0
5, 10560, Note_on_c, 1, 63, 91
5, 10800, Note_on_c, 1, 63, 0
5, 10800, Note_on_c, 1, 63, 91
5, 11040, Note_on_c, 1, 63, 0
5, 14880, Note_on_c, 1, 58, 115
5, 15120, Note_on_c, 1, 58, 0
5, 15120, Note_on_c, 1, 60, 115
5, 15240, Note_on_c, 1, 60, 0
5, 15360, Note_on_c, 1, 60, 91
5, 15480, Note_on_c, 1, 60, 0
5, 15600, Note_on_c, 1, 60, 91
5, 15720, Note_on_c, 1, 60, 0
5, 15840, Note_on_c, 1, 60, 91
5, 16080, Note_on_c, 1, 60, 0
5, 20640, Note_on_c, 1, 63, 78
5, 20820, Note_on_c, 1, 63, 0
5, 20820, Note_on_c, 1, 65, 78
5, 20880, Note_on_c, 1, 65, 0
5, 20880, Note_on_c, 1, 63, 123
5, 21600, Note_on_c, 1, 63, 0
5, 21600, Note_on_c, 1, 64, 123
5, 21780, Note_on_c, 1, 64, 0
5, 21780, Note_on_c, 1, 60, 123
5, 21840, Note_on_c, 1, 60, 0
5, 21840, Note_on_c, 1, 55, 123
5, 22080, Note_on_c, 1, 55, 0
5, 22080, Note_on_c, 1, 59, 123
5, 22320, Note_on_c, 1, 59, 0
5, 22320, Note_on_c, 1, 55, 123
5, 22560, Note_on_c, 1, 55, 0
5, 22800, Note_on_c, 1, 52, 123
5, 22980, Note_on_c, 1, 52, 0
5, 22980, Note_on_c, 1, 55, 123
5, 23040, Note_on_c, 1, 55, 0
5, 23040, Note_on_c, 1, 52, 123
5, 23280, Note_on_c, 1, 52, 0
5, 23280, Note_on_c, 1, 52, 123
5, 23520, Note_on_c, 1, 52, 0
5, 23520, Note_on_c, 1, 55, 123
5, 23760, Note_on_c, 1, 55, 0
5, 23760, Note_on_c, 1, 60, 123
5, 24240, Note_on_c, 1, 60, 0
5, 24240, Note_on_c, 1, 52, 123
5, 24420, Note_on_c, 1, 52, 0
5, 24420, Note_on_c, 1, 55, 123
5, 24480, Note_on_c, 1, 55, 0
5, 24480, Note_on_c, 1, 60, 123
5, 24720, Note_on_c, 1, 60, 0
5, 24720, Note_on_c, 1, 60, 123
5, 24960, Note_on_c, 1, 60, 0
5, 24960, Note_on_c, 1, 62, 123
5, 25200, Note_on_c, 1, 62, 0
5, 25200, Note_on_c, 1, 64, 123
5, 25680, Note_on_c, 1, 64, 0
5, 25680, Note_on_c, 1, 60, 123
5, 25860, Note_on_c, 1, 60, 0
5, 25860, Note_on_c, 1, 62, 123
5, 25920, Note_on_c, 1, 62, 0
5, 25920, Note_on_c, 1, 64, 123
5, 26400, Note_on_c, 1, 64, 0
5, 26400, Note_on_c, 1, 60, 123
5, 26580, Note_on_c, 1, 60, 0
5, 26580, Note_on_c, 1, 62, 123
5, 26640, Note_on_c, 1, 62, 0
5, 26640, Note_on_c, 1, 64, 91
5, 27600, Note_on_c, 1, 64, 0
5, 40320, Note_on_c, 1, 55, 115
5, 40560, Note_on_c, 1, 55, 0
5, 40560, Note_on_c, 1, 55, 115
5, 40800, Note_on_c, 1, 55, 0
5, 40800, Note_on_c, 1, 55, 115
5, 41040, Note_on_c, 1, 55, 0
5, 41040, Note_on_c, 1, 56, 91
5, 41520, Note_on_c, 1, 56, 0
5, 42840, Note_on_c, 1, 63, 91
5, 42960, Note_on_c, 1, 63, 0
5, 42960, Note_on_c, 1, 63, 101
5, 43080, Note_on_c, 1, 63, 0
5, 43080, Note_on_c, 1, 63, 109
5, 43200, Note_on_c, 1, 63, 0
5, 43200, Note_on_c, 1, 63, 115
5, 43680, Note_on_c, 1, 63, 0
5, 43680, Note_on_c, 1, 65, 109
5, 43800, Note_on_c, 1, 65, 0
5, 43800, Note_on_c, 1, 67, 101
5, 43920, Note_on_c, 1, 67, 0
5, 43920, Note_on_c, 1, 68, 91
5, 44640, Note_on_c, 1, 68, 0
5, 44640, Note_on_c, 1, 63, 91
5, 45360, Note_on_c, 1, 63, 0
5, 45360, Note_on_c, 1, 63, 91
5, 45600, Note_on_c, 1, 63, 0
5, 45600, Note_on_c, 1, 63, 91
5, 45840, Note_on_c, 1, 63, 0
5, 45840, Note_on_c, 1, 63, 91
5, 46080, Note_on_c, 1, 63, 0
5, 46080, Note_on_c, 1, 63, 91
5, 46320, Note_on_c, 1, 63, 0
5, 49440, Note_on_c, 1, 63, 91
5, 49920, Note_on_c, 1, 63, 0
5, 50160, Note_on_c, 1, 58, 115
5, 50400, Note_on_c, 1, 58, 0
5, 50400, Note_on_c, 1, 60, 115
5, 50520, Note_on_c, 1, 60, 0
5, 50640, Note_on_c, 1, 60, 91
5, 50760, Note_on_c, 1, 60, 0
5, 50880, Note_on_c, 1, 60, 91
5, 51000, Note_on_c, 1, 60, 0
5, 51120, Note_on_c, 1, 60, 91
5, 51360, Note_on_c, 1, 60, 0
5, 55920, Note_on_c, 1, 63, 78
5, 56100, Note_on_c, 1, 63, 0
5, 56100, Note_on_c, 1, 65, 78
5, 56160, Note_on_c, 1, 65, 0
5, 56160, Note_on_c, 1, 63, 123
5, 56880, Note_on_c, 1, 63, 0
5, 56880, Note_on_c, 1, 64, 123
5, 57060, Note_on_c, 1, 64, 0
5, 57060, Note_on_c, 1, 60, 123
5, 57120, Note_on_c, 1, 60, 0
5, 57120, Note_on_c, 1, 55, 123
5, 57360, Note_on_c, 1, 55, 0
5, 57360, Note_on_c, 1, 59, 123
5, 57600, Note_on_c, 1, 59, 0
5, 57600, Note_on_c, 1, 55, 123
5, 57840, Note_on_c, 1, 55, 0
5, 58080, Note_on_c, 1, 52, 123
5, 58260, Note_on_c, 1, 52, 0
5, 58260, Note_on_c, 1, 55, 123
5, 58320, Note_on_c, 1, 55, 0
5, 58320, Note_on_c, 1, 52, 123
5, 58560, Note_on_c, 1, 52, 0
5, 58560, Note_on_c, 1, 52, 123
5, 58800, Note_on_c, 1, 52, 0
5, 58800, Note_on_c, 1, 55, 123
5, 59040, Note_on_c, 1, 55, 0
5, 59040, Note_on_c, 1, 60, 123
5, 59520, Note_on_c, 1, 60, 0
5, 59520, Note_on_c, 1, 52, 123
5, 59700, Note_on_c, 1, 52, 0
5, 59700, Note_on_c, 1, 55, 123
5, 59760, Note_on_c, 1, 55, 0
5, 59760, Note_on_c, 1, 60, 123
5, 60000, Note_on_c, 1, 60, 0
5, 60000, Note_on_c, 1, 60, 123
5, 60240, Note_on_c, 1, 60, 0
5, 60240, Note_on_c, 1, 62, 123
5, 60480, Note_on_c, 1, 62, 0
5, 60480, Note_on_c, 1, 64, 123
5, 60960, Note_on_c, 1, 64, 0
5, 60960, Note_on_c, 1, 60, 123
5, 61140, Note_on_c, 1, 60, 0
5, 61140, Note_on_c, 1, 62, 123
5, 61200, Note_on_c, 1, 62, 0
5, 61200, Note_on_c, 1, 64, 123
5, 61680, Note_on_c, 1, 64, 0
5, 61680, Note_on_c, 1, 60, 123
5, 61860, Note_on_c, 1, 60, 0
5, 61860, Note_on_c, 1, 62, 123
5, 61920, Note_on_c, 1, 62, 0
5, 61920, Note_on_c, 1, 64, 101
5, 62880, Note_on_c, 1, 64, 0
5, 70440, Note_on_c, 1, 63, 123
5, 70560, Note_on_c, 1, 63, 0
5, 70560, Note_on_c, 1, 63, 115
5, 71280, Note_on_c, 1, 63, 0
5, 71280, Note_on_c, 1, 63, 91
5, 73440, Note_on_c, 1, 63, 0
5, 73440, Note_on_c, 1, 64, 91
5, 74160, Note_on_c, 1, 64, 0
5, 74160, Note_on_c, 1, 65, 91
5, 75120, Note_on_c, 1, 65, 0
5, 75120, Note_on_c, 1, 63, 78
5, 76320, Note_on_c, 1, 63, 0
5, 76320, Note_on_c, 1, 60, 78
5, 76560, Note_on_c, 1, 60, 0
5, 82200, Note_on_c, 1, 60, 115
5, 82320, Note_on_c, 1, 60, 0
5, 82320, Note_on_c, 1, 60, 115
5, 82440, Note_on_c, 1, 60, 0
5, 82440, Note_on_c, 1, 60, 115
5, 82560, Note_on_c, 1, 60, 0
5, 82560, Note_on_c, 1, 60, 115
5, 82680, Note_on_c, 1, 60, 0
5, 82680, Note_on_c, 1, 60, 115
5, 82800, Note_on_c, 1, 60, 0
5, 82800, Note_on_c, 1, 60, 115
5, 82920, Note_on_c, 1, 60, 0
5, 82920, Note_on_c, 1, 60, 115
5, 83040, Note_on_c, 1, 60, 0
5, 83040, Note_on_c, 1, 60, 115
5, 83160, Note_on_c, 1, 60, 0
5, 83160, Note_on_c, 1, 60, 115
5, 83280, Note_on_c, 1, 60, 0
5, 83280, Note_on_c, 1, 60, 115
5, 83400, Note_on_c, 1, 60, 0
5, 83400, Note_on_c, 1, 60, 115
5, 83520, Note_on_c, 1, 60, 0
5, 83520, Note_on_c, 1, 63, 115
5, 83640, Note_on_c, 1, 63, 0
5, 83640, Note_on_c, 1, 63, 115
5, 83760, Note_on_c, 1, 63, 0
5, 83760, Note_on_c, 1, 61, 115
5, 83880, Note_on_c, 1, 61, 0
5, 83880, Note_on_c, 1, 61, 115
5, 84000, Note_on_c, 1, 61, 0
5, 84000, Note_on_c, 1, 61, 115
5, 84120, Note_on_c, 1, 61, 0
5, 84120, Note_on_c, 1, 61, 115
5, 84240, Note_on_c, 1, 61, 0
5, 84240, Note_on_c, 1, 61, 115
5, 84360, Note_on_c, 1, 61, 0
5, 84360, Note_on_c, 1, 61, 115
5, 84480, Note_on_c, 1, 61, 0
5, 84480, Note_on_c, 1, 61, 115
5, 84600, Note_on_c, 1, 61, 0
5, 84600, Note_on_c, 1, 61, 115
5, 84720, Note_on_c, 1, 61, 0
5, 84720, Note_on_c, 1, 62, 115
5, 84840, Note_on_c, 1, 62, 0
5, 84840, Note_on_c, 1, 62, 115
5, 84960, Note_on_c, 1, 62, 0
5, 84960, Note_on_c, 1, 64, 115
5, 85080, Note_on_c, 1, 64, 0
5, 85080, Note_on_c, 1, 64, 115
5, 85200, Note_on_c, 1, 64, 0
5, 85200, Note_on_c, 1, 64, 115
5, 85320, Note_on_c, 1, 64, 0
5, 85320, Note_on_c, 1, 64, 115
5, 85440, Note_on_c, 1, 64, 0
5, 85440, Note_on_c, 1, 64, 115
5, 85560, Note_on_c, 1, 64, 0
5, 85560, Note_on_c, 1, 64, 115
5, 85680, Note_on_c, 1, 64, 0
5, 85680, Note_on_c, 1, 63, 115
5, 85800, Note_on_c, 1, 63, 0
5, 85800, Note_on_c, 1, 63, 115
5, 85920, Note_on_c, 1, 63, 0
5, 85920, Note_on_c, 1, 61, 115
5, 86040, Note_on_c, 1, 61, 0
5, 86040, Note_on_c, 1, 61, 115
5, 86160, Note_on_c, 1, 61, 0
5, 86160, Note_on_c, 1, 61, 115
5, 86280, Note_on_c, 1, 61, 0
5, 86280, Note_on_c, 1, 61, 115
5, 86400, Note_on_c, 1, 61, 0
5, 86400, Note_on_c, 1, 61, 115
5, 86520, Note_on_c, 1, 61, 0
5, 86520, Note_on_c, 1, 61, 115
5, 86640, Note_on_c, 1, 61, 0
5, 86640, Note_on_c, 1, 60, 115
5, 86760, Note_on_c, 1, 60, 0
5, 86760, Note_on_c, 1, 60, 115
5, 86880, Note_on_c, 1, 60, 0
5, 86880, Note_on_c, 1, 60, 115
5, 87000, Note_on_c, 1, 60, 0
5, 87000, Note_on_c, 1, 60, 115
5, 87120, Note_on_c, 1, 60, 0
5, 87120, Note_on_c, 1, 63, 115
5, 87840, Note_on_c, 1, 63, 0
5, 87840, Note_on_c, 1, 51, 115
5, 88200, Note_on_c, 1, 51, 0
5, 88200, Note_on_c, 1, 53, 115
5, 88260, Note_on_c, 1, 53, 0
5, 88260, Note_on_c, 1, 55, 115
5, 88320, Note_on_c, 1, 55, 0
5, 88320, Note_on_c, 1, 56, 115
5, 88380, Note_on_c, 1, 56, 0
5, 88380, Note_on_c, 1, 58, 115
5, 88440, Note_on_c, 1, 58, 0
5, 88440, Note_on_c, 1, 60, 115
5, 88500, Note_on_c, 1, 60, 0
5, 88500, Note_on_c, 1, 62, 115
5, 88560, Note_on_c, 1, 62, 0
5, 88560, Note_on_c, 1, 63, 115
5, 89040, Note_on_c, 1, 63, 0
5, 95520, Note_on_c, 1, 56, 115
5, 95640, Note_on_c, 1, 56, 0
5, 95640, Note_on_c, 1, 62, 115
5, 95760, Note_on_c, 1, 62, 0
5, 95760, Note_on_c, 1, 65, 115
5, 96000, Note_on_c, 1, 65, 0
5, 96000, Note_on_c, 1, 65, 115
5, 96120, Note_on_c, 1, 65, 0
5, 96120, Note_on_c, 1, 63, 115
5, 96240, Note_on_c, 1, 63, 0
5, 96240, Note_on_c, 1, 62, 115
5, 96360, Note_on_c, 1, 62, 0
5, 96360, Note_on_c, 1, 65, 115
5, 96480, Note_on_c, 1, 65, 0
5, 96480, Note_on_c, 1, 68, 115
5, 96720, Note_on_c, 1, 68, 0
5, 96720, Note_on_c, 1, 68, 115
5, 96840, Note_on_c, 1, 68, 0
5, 96840, Note_on_c, 1, 67, 115
5, 96960, Note_on_c, 1, 67, 0
5, 96960, Note_on_c, 1, 65, 115
5, 97080, Note_on_c, 1, 65, 0
5, 97080, Note_on_c, 1, 63, 115
5, 97200, Note_on_c, 1, 63, 0
5, 97200, Note_on_c, 1, 62, 115
5, 97440, Note_on_c, 1, 62, 0
5, 97440, Note_on_c, 1, 62, 115
5, 97560, Note_on_c, 1, 62, 0
5, 97560, Note_on_c, 1, 63, 115
5, 97680, Note_on_c, 1, 63, 0
5, 97680, Note_on_c, 1, 65, 115
5, 97800, Note_on_c, 1, 65, 0
5, 97800, Note_on_c, 1, 67, 115
5, 97920, Note_on_c, 1, 67, 0
5, 97920, Note_on_c, 1, 68, 115
5, 98040, Note_on_c, 1, 68, 0
5, 98040, Note_on_c, 1, 67, 115
5, 98160, Note_on_c, 1, 67, 0
5, 98160, Note_on_c, 1, 65, 115
5, 98280, Note_on_c, 1, 65, 0
5, 98280, Note_on_c, 1, 63, 115
5, 98400, Note_on_c, 1, 63, 0
5, 98400, Note_on_c, 1, 62, 123
5, 98520, Note_on_c, 1, 62, 0
5, 98520, Note_on_c, 1, 63, 123
5, 98640, Note_on_c, 1, 63, 0
5, 98640, Note_on_c, 1, 65, 123
5, 98760, Note_on_c, 1, 65, 0
5, 98760, Note_on_c, 1, 67, 123
5, 98880, Note_on_c, 1, 67, 0
5, 98880, Note_on_c, 1, 68, 123
5, 99000, Note_on_c, 1, 68, 0
5, 99000, Note_on_c, 1, 68, 115
5, 99120, Note_on_c, 1, 68, 0
5, 99120, Note_on_c, 1, 67, 115
5, 99240, Note_on_c, 1, 67, 0
5, 99240, Note_on_c, 1, 65, 115
5, 99360, Note_on_c, 1, 65, 0
5, 99360, Note_on_c, 1, 63, 115
5, 100200, Note_on_c, 1, 63, 0
5, 100200, Note_on_c, 1, 65, 115
5, 100320, Note_on_c, 1, 65, 0
5, 100320, Note_on_c, 1, 67, 115
5, 100440, Note_on_c, 1, 67, 0
5, 100440, Note_on_c, 1, 68, 115
5, 100560, Note_on_c, 1, 68, 0
5, 100560, Note_on_c, 1, 70, 115
5, 100680, Note_on_c, 1, 70, 0
5, 100680, Note_on_c, 1, 72, 115
5, 100800, Note_on_c, 1, 72, 0
5, 100800, Note_on_c, 1, 73, 115
5, 101040, Note_on_c, 1, 73, 0
5, 101040, Note_on_c, 1, 73, 115
5, 101160, Note_on_c, 1, 73, 0
5, 101160, Note_on_c, 1, 72, 115
5, 101280, Note_on_c, 1, 72, 0
5, 101280, Note_on_c, 1, 70, 115
5, 101400, Note_on_c, 1, 70, 0
5, 101400, Note_on_c, 1, 68, 115
5, 101520, Note_on_c, 1, 68, 0
5, 101520, Note_on_c, 1, 67, 123
5, 101640, Note_on_c, 1, 67, 0
5, 101640, Note_on_c, 1, 68, 123
5, 101760, Note_on_c, 1, 68, 0
5, 101760, Note_on_c, 1, 70, 123
5, 101880, Note_on_c, 1, 70, 0
5, 101880, Note_on_c, 1, 72, 123
5, 102000, Note_on_c, 1, 72, 0
5, 102000, Note_on_c, 1, 73, 123
5, 102120, Note_on_c, 1, 73, 0
5, 102120, Note_on_c, 1, 72, 123
5, 102240, Note_on_c, 1, 72, 0
5, 102240, Note_on_c, 1, 70, 115
5, 102360, Note_on_c, 1, 70, 0
5, 102360, Note_on_c, 1, 68, 115
5, 102480, Note_on_c, 1, 68, 0
5, 102480, Note_on_c, 1, 67, 115
5, 102600, Note_on_c, 1, 67, 0
5, 102600, Note_on_c, 1, 73, 115
5, 102720, Note_on_c, 1, 73, 0
5, 102720, Note_on_c, 1, 72, 115
5, 102840, Note_on_c, 1, 72, 0
5, 102840, Note_on_c, 1, 70, 115
5, 102960, Note_on_c, 1, 70, 0
5, 102960, Note_on_c, 1, 68, 115
5, 103080, Note_on_c, 1, 68, 0
5, 103080, Note_on_c, 1, 72, 115
5, 103200, Note_on_c, 1, 72, 0
5, 103200, Note_on_c, 1, 70, 115
5, 103320, Note_on_c, 1, 70, 0
5, 103320, Note_on_c, 1, 68, 115
5, 103440, Note_on_c, 1, 68, 0
5, 103440, Note_on_c, 1, 67, 115
5, 103560, Note_on_c, 1, 67, 0
5, 104040, Note_on_c, 1, 68, 115
5, 104160, Note_on_c, 1, 68, 0
5, 104160, Note_on_c, 1, 67, 115
5, 104280, Note_on_c, 1, 67, 0
5, 104280, Note_on_c, 1, 65, 115
5, 104400, Note_on_c, 1, 65, 0
5, 104400, Note_on_c, 1, 65, 115
5, 104520, Note_on_c, 1, 65, 0
5, 104520, Note_on_c, 1, 65, 115
5, 104640, Note_on_c, 1, 65, 0
5, 104640, Note_on_c, 1, 65, 115
5, 104760, Note_on_c, 1, 65, 0
5, 104760, Note_on_c, 1, 65, 115
5, 104880, Note_on_c, 1, 65, 0
5, 104880, Note_on_c, 1, 65, 115
5, 105000, Note_on_c, 1, 65, 0
5, 105000, Note_on_c, 1, 65, 115
5, 105120, Note_on_c, 1, 65, 0
5, 105120, Note_on_c, 1, 65, 115
5, 105240, Note_on_c, 1, 65, 0
5, 105240, Note_on_c, 1, 65, 115
5, 105360, Note_on_c, 1, 65, 0
5, 105360, Note_on_c, 1, 65, 115
5, 105480, Note_on_c, 1, 65, 0
5, 105480, Note_on_c, 1, 65, 115
5, 105600, Note_on_c, 1, 65, 0
5, 106320, Note_on_c, 1, 52, 123
5, 106500, Note_on_c, 1, 52, 0
5, 106500, Note_on_c, 1, 55, 123
5, 106560, Note_on_c, 1, 55, 0
5, 106560, Note_on_c, 1, 52, 123
5, 106800, Note_on_c, 1, 52, 0
5, 106800, Note_on_c, 1, 52, 123
5, 107040, Note_on_c, 1, 52, 0
5, 107040, Note_on_c, 1, 59, 123
5, 107280, Note_on_c, 1, 59, 0
5, 107280, Note_on_c, 1, 60, 123
5, 108480, Note_on_c, 1, 60, 0
5, 108480, Note_on_c, 1, 52, 123
5, 108660, Note_on_c, 1, 52, 0
5, 108660, Note_on_c, 1, 59, 123
5, 108720, Note_on_c, 1, 59, 0
5, 108720, Note_on_c, 1, 60, 123
5, 108960, Note_on_c, 1, 60, 0
5, 108960, Note_on_c, 1, 60, 123
5, 109200, Note_on_c, 1, 60, 0
5, 109200, Note_on_c, 1, 62, 123
5, 109440, Note_on_c, 1, 62, 0
5, 109440, Note_on_c, 1, 64, 123
5, 110640, Note_on_c, 1, 64, 0
5, 110640, Note_on_c, 1, 60, 123
5, 110820, Note_on_c, 1, 60, 0
5, 110820, Note_on_c, 1, 62, 123
5, 110880, Note_on_c, 1, 62, 0
5, 110880, Note_on_c, 1, 64, 123
5, 111360, Note_on_c, 1, 64, 0
5, 111360, Note_on_c, 1, 60, 123
5, 111540, Note_on_c, 1, 60, 0
5, 111540, Note_on_c, 1, 62, 123
5, 111600, Note_on_c, 1, 62, 0
5, 111600, Note_on_c, 1, 64, 123
5, 112080, Note_on_c, 1, 64, 0
5, 112080, Note_on_c, 1, 60, 123
5, 112260, Note_on_c, 1, 60, 0
5, 112260, Note_on_c, 1, 62, 123
5, 112320, Note_on_c, 1, 62, 0
5, 112320, Note_on_c, 1, 64, 91
5, 114000, Note_on_c, 1, 64, 0
5, 120480, Note_on_c, 1, 63, 91
5, 120600, Note_on_c, 1, 63, 0
5, 121200, Note_on_c, 1, 63, 91
5, 121320, Note_on_c, 1, 63, 0
5, 121920, Note_on_c, 1, 63, 91
5, 122040, Note_on_c, 1, 63, 0
5, 122640, Note_on_c, 1, 66, 91
5, 122760, Note_on_c, 1, 66, 0
5, 123360, Note_on_c, 1, 66, 91
5, 123480, Note_on_c, 1, 66, 0
5, 124080, Note_on_c, 1, 66, 91
5, 124200, Note_on_c, 1, 66, 0
5, 124800, Note_on_c, 1, 63, 91
5, 124920, Note_on_c, 1, 63, 0
5, 125520, Note_on_c, 1, 63, 91
5, 125640, Note_on_c, 1, 63, 0
5, 126240, Note_on_c, 1, 63, 91
5, 126480, Note_on_c, 1, 63, 0
5, 126600, Note_on_c, 1, 63, 91
5, 126720, Note_on_c, 1, 63, 0
5, 126720, Note_on_c, 1, 63, 115
5, 126840, Note_on_c, 1, 63, 0
5, 126840, Note_on_c, 1, 63, 115
5, 127080, Note_on_c, 1, 63, 0
5, 132840, Note_on_c, 1, 51, 101
5, 132960, Note_on_c, 1, 51, 0
5, 132960, Note_on_c, 1, 51, 109
5, 133080, Note_on_c, 1, 51, 0
5, 133080, Note_on_c, 1, 51, 115
5, 133200, Note_on_c, 1, 51, 0
5, 133200, Note_on_c, 1, 51, 123
5, 133920, Note_on_c, 1, 51, 0
5, 133920, Note_on_c, 1, 53, 123
5, 134640, Note_on_c, 1, 53, 0
5, 134640, Note_on_c, 1, 65, 123
5, 135360, Note_on_c, 1, 65, 0
5, 135360, Note_on_c, 1, 64, 123
5, 135840, Note_on_c, 1, 64, 0
5, 135840, Note_on_c, 1, 60, 123
5, 136320, Note_on_c, 1, 60, 0
5, 136320, Note_on_c, 1, 61, 123
5, 136800, Note_on_c, 1, 61, 0
5, 136800, Note_on_c, 1, 58, 123
5, 137040, Note_on_c, 1, 58, 0
5, 137040, Note_on_c, 1, 60, 123
5, 137520, Note_on_c, 1, 60, 0
5, 137520, Note_on_c, 1, 63, 123
5, 137760, Note_on_c, 1, 63, 0
5, 138240, Note_on_c, 1, 63, 123
5, 138480, Note_on_c, 1, 63, 0
5, 138960, Note_on_c, 1, 63, 123
5, 139200, Note_on_c, 1, 63, 0
5, 139680, Note_on_c, 1, 63, 123
5, 139920, Note_on_c, 1, 63, 0
5, 140160, Note_on_c, 1, 56, 123
5, 140340, Note_on_c, 1, 56, 0
5, 140340, Note_on_c, 1, 60, 123
5, 140400, Note_on_c, 1, 60, 0
5, 140400, Note_on_c, 1, 63, 123
5, 140640, Note_on_c, 1, 63, 0
5, 141120, Note_on_c, 1, 68, 91
5, 141840, Note_on_c, 1, 68, 0
5, 141840, Note_on_c, 1, 63, 91
5, 142560, Note_on_c, 1, 63, 0
5, 142560, Note_on_c, 1, 63, 91
5, 142800, Note_on_c, 1, 63, 0
5, 142800, Note_on_c, 1, 63, 91
5, 143040, Note_on_c, 1, 63, 0
5, 143040, Note_on_c, 1, 63, 91
5, 143280, Note_on_c, 1, 63, 0
5, 143280, Note_on_c, 1, 63, 91
5, 143520, Note_on_c, 1, 63, 0
5, 151320, Note_on_c, 1, 63, 91
5, 151380, Note_on_c, 1, 63, 0
5, 151380, Note_on_c, 1, 65, 91
5, 151440, Note_on_c, 1, 65, 0
5, 151440, Note_on_c, 1, 66, 91
5, 151680, Note_on_c, 1, 66, 0
5, 152040, Note_on_c, 1, 61, 91
5, 152100, Note_on_c, 1, 61, 0
5, 152100, Note_on_c, 1, 63, 91
5, 152160, Note_on_c, 1, 63, 0
5, 152160, Note_on_c, 1, 65, 91
5, 152400, Note_on_c, 1, 65, 0
5, 152760, Note_on_c, 1, 61, 91
5, 152820, Note_on_c, 1, 61, 0
5, 152820, Note_on_c, 1, 63, 91
5, 152880, Note_on_c, 1, 63, 0
5, 152880, Note_on_c, 1, 64, 91
5, 153120, Note_on_c, 1, 64, 0
5, 153360, Note_on_c, 1, 63, 91
5, 153600, Note_on_c, 1, 63, 0
5, 154560, Note_on_c, 1, 58, 115
5, 154800, Note_on_c, 1, 58, 0
5, 154800, Note_on_c, 1, 56, 115
5, 155040, Note_on_c, 1, 56, 0
5, 156000, Note_on_c, 1, 67, 115
5, 156240, Note_on_c, 1, 67, 0
5, 156240, Note_on_c, 1, 68, 115
5, 156480, Note_on_c, 1, 68, 0
5, 156960, Note_on_c, 1, 60, 123
5, 157200, Note_on_c, 1, 60, 0
5, 157200, Note_on_c, 1, 58, 109
5, 157440, Note_on_c, 1, 58, 0
5, 157920, Note_on_c, 1, 63, 101
5, 158160, Note_on_c, 1, 63, 0
5, 158160, Note_on_c, 1, 65, 101
5, 158280, Note_on_c, 1, 65, 0
5, 158280, Note_on_c, 1, 67, 101
5, 158400, Note_on_c, 1, 67, 0
5, 158400, Note_on_c, 1, 68, 91
5, 159120, Note_on_c, 1, 68, 0
5, 159120, Note_on_c, 1, 63, 91
5, 159840, Note_on_c, 1, 63, 0
5, 159840, Note_on_c, 1, 63, 91
5, 160080, Note_on_c, 1, 63, 0
5, 160080, Note_on_c, 1, 63, 91
5, 160320, Note_on_c, 1, 63, 0
5, 160320, Note_on_c, 1, 63, 91
5, 160560, Note_on_c, 1, 63, 0
5, 160560, Note_on_c, 1, 63, 91
5, 160800, Note_on_c, 1, 63, 0
5, 162600, Note_on_c, 1, 63, 115
5, 162720, Note_on_c, 1, 63, 0
5, 162720, Note_on_c, 1, 63, 115
5, 162960, Note_on_c, 1, 63, 0
5, 162960, Note_on_c, 1, 63, 115
5, 163320, Note_on_c, 1, 63, 0
5, 173280, Note_on_c, 1, 60, 115
5, 173360, Note_on_c, 1, 60, 0
5, 173360, Note_on_c, 1, 60, 115
5, 173440, Note_on_c, 1, 60, 0
5, 173440, Note_on_c, 1, 60, 115
5, 173520, Note_on_c, 1, 60, 0
5, 173520, Note_on_c, 1, 60, 115
5, 173600, Note_on_c, 1, 60, 0
5, 173600, Note_on_c, 1, 60, 115
5, 173680, Note_on_c, 1, 60, 0
5, 173680, Note_on_c, 1, 60, 115
5, 173760, Note_on_c, 1, 60, 0
5, 173760, Note_on_c, 1, 60, 115
5, 173840, Note_on_c, 1, 60, 0
5, 173840, Note_on_c, 1, 60, 115
5, 173920, Note_on_c, 1, 60, 0
5, 173920, Note_on_c, 1, 60, 115
5, 174000, Note_on_c, 1, 60, 0
5, 174000, Note_on_c, 1, 60, 115
5, 174080, Note_on_c, 1, 60, 0
5, 174080, Note_on_c, 1, 60, 115
5, 174160, Note_on_c, 1, 60, 0
5, 174160, Note_on_c, 1, 60, 115
5, 174240, Note_on_c, 1, 60, 0
5, 174240, Note_on_c, 1, 60, 123
5, 174480, Note_on_c, 1, 60, 0
5, 174960, Note_on_c, 1, 63, 123
5, 175680, Note_on_c, 1, 63, 0
5, 175680, Note_on_c, 1, 60, 123
5, 175920, Note_on_c, 1, 60, 0
5, 176160, Note_on_c, 1, 55, 91
5, 176400, Note_on_c, 1, 55, 0
5, 176400, Note_on_c, 1, 56, 91
5, 176640, Note_on_c, 1, 56, 0
5, 176880, Note_on_c, 1, 56, 115
5, 177060, Note_on_c, 1, 56, 0
5, 177060, Note_on_c, 1, 60, 115
5, 177120, Note_on_c, 1, 60, 0
5, 177120, Note_on_c, 1, 63, 123
5, 177840, Note_on_c, 1, 63, 0
5, 177840, Note_on_c, 1, 60, 123
5, 178080, Note_on_c, 1, 60, 0
5, 178080, End_track
6, 0, Start_track
6, 0, MIDI_port, 0
6, 0, Title_t, "Clarinet 1"
6, 0, Program_c, 2, 71
6, 7680, Note_on_c, 2, 63, 91
6, 7860, Note_on_c, 2, 63, 0
6, 7860, Note_on_c, 2, 60, 91
6, 7920, Note_on_c, 2, 60, 0
6, 7920, Note_on_c, 2, 63, 115
6, 8640, Note_on_c, 2, 63, 0
6, 8640, Note_on_c, 2, 61, 91
6, 8880, Note_on_c, 2, 61, 0
6, 8880, Note_on_c, 2, 60, 91
6, 9360, Note_on_c, 2, 60, 0
6, 9360, Note_on_c, 2, 58, 91
6, 9600, Note_on_c, 2, 58, 0
6, 9600, Note_on_c, 2, 56, 91
6, 10080, Note_on_c, 2, 56, 0
6, 10080, Note_on_c, 2, 61, 91
6, 10320, Note_on_c, 2, 61, 0
6, 10320, Note_on_c, 2, 61, 91
6, 10560, Note_on_c, 2, 61, 0
6, 10560, Note_on_c, 2, 61, 91
6, 10800, Note_on_c, 2, 61, 0
6, 10800, Note_on_c, 2, 60, 91
6, 11040, Note_on_c, 2, 60, 0
6, 12720, Note_on_c, 2, 51, 91
6, 12960, Note_on_c, 2, 51, 0
6, 12960, Note_on_c, 2, 51, 115
6, 13200, Note_on_c, 2, 51, 0
6, 13200, Note_on_c, 2, 51, 115
6, 13440, Note_on_c, 2, 51, 0
6, 13440, Note_on_c, 2, 51, 115
6, 13680, Note_on_c, 2, 51, 0
6, 13680, Note_on_c, 2, 51, 91
6, 13920, Note_on_c, 2, 51, 0
6, 14160, Note_on_c, 2, 61, 91
6, 14400, Note_on_c, 2, 61, 0
6, 14400, Note_on_c, 2, 60, 91
6, 14640, Note_on_c, 2, 60, 0
6, 14880, Note_on_c, 2, 46, 115
6, 15120, Note_on_c, 2, 46, 0
6, 15120, Note_on_c, 2, 48, 115
6, 15240, Note_on_c, 2, 48, 0
6, 15360, Note_on_c, 2, 48, 91
6, 15480, Note_on_c, 2, 48, 0
6, 15600, Note_on_c, 2, 48, 91
6, 15720, Note_on_c, 2, 48, 0
6, 15840, Note_on_c, 2, 48, 91
6, 16080, Note_on_c, 2, 48, 0
6, 16320, Note_on_c, 2, 51, 91
6, 16500, Note_on_c, 2, 51, 0
6, 16500, Note_on_c, 2, 55, 91
6, 16560, Note_on_c, 2, 55, 0
6, 16560, Note_on_c, 2, 56, 91
6, 16800, Note_on_c, 2, 56, 0
6, 16800, Note_on_c, 2, 56, 91
6, 17040, Note_on_c, 2, 56, 0
6, 17040, Note_on_c, 2, 58, 91
6, 17280, Note_on_c, 2, 58, 0
6, 17280, Note_on_c, 2, 60, 91
6, 17760, Note_on_c, 2, 60, 0
6, 17760, Note_on_c, 2, 56, 91
6, 17940, Note_on_c, 2, 56, 0
6, 17940, Note_on_c, 2, 58, 91
6, 18000, Note_on_c, 2, 58, 0
6, 18000, Note_on_c, 2, 60, 91
6, 18240, Note_on_c, 2, 60, 0
6, 18240, Note_on_c, 2, 60, 91
6, 18480, Note_on_c, 2, 60, 0
6, 18480, Note_on_c, 2, 61, 91
6, 18720, Note_on_c, 2, 61, 0
6, 18720, Note_on_c, 2, 63, 91
6, 19200, Note_on_c, 2, 63, 0
6, 19200, Note_on_c, 2, 63, 78
6, 19920, Note_on_c, 2, 63, 0
6, 19920, Note_on_c, 2, 63, 78
6, 20640, Note_on_c, 2, 63, 0
6, 20880, Note_on_c, 2, 60, 123
6, 21600, Note_on_c, 2, 60, 0
6, 21600, Note_on_c, 2, 60, 123
6, 21840, Note_on_c, 2, 60, 0
6, 21840, Note_on_c, 2, 55, 123
6, 22080, Note_on_c, 2, 55, 0
6, 22080, Note_on_c, 2, 55, 123
6, 22320, Note_on_c, 2, 55, 0
6, 22320, Note_on_c, 2, 55, 123
6, 22560, Note_on_c, 2, 55, 0
6, 35280, Note_on_c, 2, 63, 91
6, 38160, Note_on_c, 2, 63, 0
6, 38160, Note_on_c, 2, 64, 91
6, 38880, Note_on_c, 2, 64, 0
6, 38880, Note_on_c, 2, 65, 91
6, 39840, Note_on_c, 2, 65, 0
6, 39840, Note_on_c, 2, 63, 91
6, 40440, Note_on_c, 2, 63, 0
6, 40440, Note_on_c, 2, 63, 115
6, 40560, Note_on_c, 2, 63, 0
6, 40560, Note_on_c, 2, 65, 115
6, 40680, Note_on_c, 2, 65, 0
6, 40680, Note_on_c, 2, 63, 115
6, 40800, Note_on_c, 2, 63, 0
6, 40800, Note_on_c, 2, 62, 115
6, 40920, Note_on_c, 2, 62, 0
6, 40920, Note_on_c, 2, 63, 115
6, 41040, Note_on_c, 2, 63, 0
6, 41040, Note_on_c, 2, 60, 91
6, 41520, Note_on_c, 2, 60, 0
6, 42840, Note_on_c, 2, 63, 91
6, 42960, Note_on_c, 2, 63, 0
6, 42960, Note_on_c, 2, 63, 101
6, 43080, Note_on_c, 2, 63, 0
6, 43080, Note_on_c, 2, 60, 109
6, 43200, Note_on_c, 2, 60, 0
6, 43200, Note_on_c, 2, 63, 115
6, 43920, Note_on_c, 2, 63, 0
6, 43920, Note_on_c, 2, 61, 91
6, 44160, Note_on_c, 2, 61, 0
6, 44160, Note_on_c, 2, 60, 91
6, 44640, Note_on_c, 2, 60, 0
6, 44640, Note_on_c, 2, 58, 91
6, 44880, Note_on_c, 2, 58, 0
6, 44880, Note_on_c, 2, 56, 91
6, 45360, Note_on_c, 2, 56, 0
6, 45360, Note_on_c, 2, 61, 91
6, 45600, Note_on_c, 2, 61, 0
6, 45600, Note_on_c, 2, 61, 91
6, 45840, Note_on_c, 2, 61, 0
6, 45840, Note_on_c, 2, 61, 91
6, 46080, Note_on_c, 2, 61, 0
6, 46080, Note_on_c, 2, 60, 91
6, 46320, Note_on_c, 2, 60, 0
6, 48000, Note_on_c, 2, 51, 91
6, 48240, Note_on_c, 2, 51, 0
6, 48240, Note_on_c, 2, 51, 91
6, 48480, Note_on_c, 2, 51, 0
6, 48480, Note_on_c, 2, 51, 91
6, 48720, Note_on_c, 2, 51, 0
6, 48720, Note_on_c, 2, 51, 91
6, 48960, Note_on_c, 2, 51, 0
6, 48960, Note_on_c, 2, 51, 91
6, 49200, Note_on_c, 2, 51, 0
6, 49440, Note_on_c, 2, 61, 101
6, 49680, Note_on_c, 2, 61, 0
6, 49680, Note_on_c, 2, 60, 109
6, 49920, Note_on_c, 2, 60, 0
6, 50160, Note_on_c, 2, 46, 115
6, 50400, Note_on_c, 2, 46, 0
6, 50400, Note_on_c, 2, 48, 115
6, 50520, Note_on_c, 2, 48, 0
6, 50640, Note_on_c, 2, 48, 91
6, 50760, Note_on_c, 2, 48, 0
6, 50880, Note_on_c, 2, 48, 91
6, 51000, Note_on_c, 2, 48, 0
6, 51120, Note_on_c, 2, 48, 91
6, 51360, Note_on_c, 2, 48, 0
6, 51600, Note_on_c, 2, 51, 91
6, 51780, Note_on_c, 2, 51, 0
6, 51780, Note_on_c, 2, 55, 91
6, 51840, Note_on_c, 2, 55, 0
6, 51840, Note_on_c, 2, 56, 91
6, 52080, Note_on_c, 2, 56, 0
6, 52080, Note_on_c, 2, 56, 91
6, 52320, Note_on_c, 2, 56, 0
6, 52320, Note_on_c, 2, 58, 91
6, 52560, Note_on_c, 2, 58, 0
6, 52560, Note_on_c, 2, 60, 91
6, 53040, Note_on_c, 2, 60, 0
6, 53040, Note_on_c, 2, 56, 91
6, 53220, Note_on_c, 2, 56, 0
6, 53220, Note_on_c, 2, 58, 91
6, 53280, Note_on_c, 2, 58, 0
6, 53280, Note_on_c, 2, 60, 91
6, 53520, Note_on_c, 2, 60, 0
6, 53520, Note_on_c, 2, 60, 91
6, 53760, Note_on_c, 2, 60, 0
6, 53760, Note_on_c, 2, 61, 91
6, 54000, Note_on_c, 2, 61, 0
6, 54000, Note_on_c, 2, 63, 91
6, 54480, Note_on_c, 2, 63, 0
6, 54480, Note_on_c, 2, 63, 78
6, 55200, Note_on_c, 2, 63, 0
6, 55200, Note_on_c, 2, 63, 78
6, 55920, Note_on_c, 2, 63, 0
6, 56160, Note_on_c, 2, 60, 123
6, 56880, Note_on_c, 2, 60, 0
6, 56880, Note_on_c, 2, 60, 123
6, 57120, Note_on_c, 2, 60, 0
6, 57120, Note_on_c, 2, 55, 123
6, 57360, Note_on_c, 2, 55, 0
6, 57360, Note_on_c, 2, 55, 123
6, 57600, Note_on_c, 2, 55, 0
6, 57600, Note_on_c, 2, 55, 123
6, 57840, Note_on_c, 2, 55, 0
6, 70200, Note_on_c, 2, 51, 123
6, 70320, Note_on_c, 2, 51, 0
6, 70320, Note_on_c, 2, 63, 123
6, 70440, Note_on_c, 2, 63, 0
6, 77400, Note_on_c, 2, 48, 91
6, 77520, Note_on_c, 2, 48, 0
6, 77520, Note_on_c, 2, 60, 91
6, 77640, Note_on_c, 2, 60, 0
6, 78120, Note_on_c, 2, 53, 91
6, 78240, Note_on_c, 2, 53, 0
6, 78240, Note_on_c, 2, 65, 91
6, 78360, Note_on_c, 2, 65, 0
6, 78840, Note_on_c, 2, 49, 91
6, 78960, Note_on_c, 2, 49, 0
6, 78960, Note_on_c, 2, 61, 91
6, 79080, Note_on_c, 2, 61, 0
6, 79560, Note_on_c, 2, 48, 91
6, 79680, Note_on_c, 2, 48, 0
6, 79680, Note_on_c, 2, 60, 91
6, 79800, Note_on_c, 2, 60, 0
6, 80280, Note_on_c, 2, 49, 91
6, 80400, Note_on_c, 2, 49, 0
6, 80400, Note_on_c, 2, 61, 91
6, 80520, Note_on_c, 2, 61, 0
6, 81000, Note_on_c, 2, 48, 91
6, 81120, Note_on_c, 2, 48, 0
6, 81120, Note_on_c, 2, 60, 91
6, 81240, Note_on_c, 2, 60, 0
6, 81720, Note_on_c, 2, 51, 91
6, 81840, Note_on_c, 2, 51, 0
6, 81840, Note_on_c, 2, 63, 91
6, 81960, Note_on_c, 2, 63, 0
6, 81960, Note_on_c, 2, 63, 91
6, 82080, Note_on_c, 2, 63, 0
6, 82080, Note_on_c, 2, 60, 91
6, 82200, Note_on_c, 2, 60, 0
6, 82200, Note_on_c, 2, 60, 115
6, 82320, Note_on_c, 2, 60, 0
6, 82320, Note_on_c, 2, 60, 115
6, 82440, Note_on_c, 2, 60, 0
6, 82440, Note_on_c, 2, 60, 115
6, 82560, Note_on_c, 2, 60, 0
6, 82560, Note_on_c, 2, 60, 115
6, 82680, Note_on_c, 2, 60, 0
6, 82680, Note_on_c, 2, 60, 115
6, 82800, Note_on_c, 2, 60, 0
6, 82800, Note_on_c, 2, 60, 115
6, 82920, Note_on_c, 2, 60, 0
6, 82920, Note_on_c, 2, 60, 115
6, 83040, Note_on_c, 2, 60, 0
6, 83040, Note_on_c, 2, 60, 115
6, 83160, Note_on_c, 2, 60, 0
6, 83160, Note_on_c, 2, 60, 115
6, 83280, Note_on_c, 2, 60, 0
6, 83280, Note_on_c, 2, 60, 115
6, 83400, Note_on_c, 2, 60, 0
6, 83400, Note_on_c, 2, 60, 115
6, 83520, Note_on_c, 2, 60, 0
6, 83520, Note_on_c, 2, 60, 115
6, 83640, Note_on_c, 2, 60, 0
6, 83640, Note_on_c, 2, 60, 115
6, 83760, Note_on_c, 2, 60, 0
6, 83760, Note_on_c, 2, 61, 115
6, 83880, Note_on_c, 2, 61, 0
6, 83880, Note_on_c, 2, 61, 115
6, 84000, Note_on_c, 2, 61, 0
6, 84000, Note_on_c, 2, 61, 115
6, 84120, Note_on_c, 2, 61, 0
6, 84120, Note_on_c, 2, 61, 115
6, 84240, Note_on_c, 2, 61, 0
6, 84240, Note_on_c, 2, 61, 115
6, 84360, Note_on_c, 2, 61, 0
6, 84360, Note_on_c, 2, 61, 115
6, 84480, Note_on_c, 2, 61, 0
6, 84480, Note_on_c, 2, 61, 115
6, 84600, Note_on_c, 2, 61, 0
6, 84600, Note_on_c, 2, 61, 115
6, 84720, Note_on_c, 2, 61, 0
6, 84720, Note_on_c, 2, 62, 115
6, 84840, Note_on_c, 2, 62, 0
6, 84840, Note_on_c, 2, 62, 115
6, 84960, Note_on_c, 2, 62, 0
6, 84960, Note_on_c, 2, 60, 115
6, 85080, Note_on_c, 2, 60, 0
6, 85080, Note_on_c, 2, 60, 115
6, 85200, Note_on_c, 2, 60, 0
6, 85200, Note_on_c, 2, 60, 115
6, 85320, Note_on_c, 2, 60, 0
6, 85320, Note_on_c, 2, 60, 115
6, 85440, Note_on_c, 2, 60, 0
6, 85440, Note_on_c, 2, 60, 115
6, 85560, Note_on_c, 2, 60, 0
6, 85560, Note_on_c, 2, 60, 115
6, 85680, Note_on_c, 2, 60, 0
6, 85680, Note_on_c, 2, 63, 115
6, 85800, Note_on_c, 2, 63, 0
6, 85800, Note_on_c, 2, 63, 115
6, 85920, Note_on_c, 2, 63, 0
6, 85920, Note_on_c, 2, 61, 115
6, 86040, Note_on_c, 2, 61, 0
6, 86040, Note_on_c, 2, 61, 115
6, 86160, Note_on_c, 2, 61, 0
6, 86160, Note_on_c, 2, 61, 115
6, 86280, Note_on_c, 2, 61, 0
6, 86280, Note_on_c, 2, 61, 115
6, 86400, Note_on_c, 2, 61, 0
6, 86400, Note_on_c, 2, 61, 115
6, 86520, Note_on_c, 2, 61, 0
6, 86520, Note_on_c, 2, 61, 115
6, 86640, Note_on_c, 2, 61, 0
6, 86640, Note_on_c, 2, 60, 115
6, 86760, Note_on_c, 2, 60, 0
6, 86760, Note_on_c, 2, 60, 115
6, 86880, Note_on_c, 2, 60, 0
6, 86880, Note_on_c, 2, 60, 115
6, 87000, Note_on_c, 2, 60, 0
6, 87000, Note_on_c, 2, 60, 115
6, 87120, Note_on_c, 2, 60, 0
6, 87120, Note_on_c, 2, 58, 115
6, 87840, Note_on_c, 2, 58, 0
6, 87840, Note_on_c, 2, 51, 115
6, 88200, Note_on_c, 2, 51, 0
6, 88200, Note_on_c, 2, 53, 115
6, 88260, Note_on_c, 2, 53, 0
6, 88260, Note_on_c, 2, 55, 115
6, 88320, Note_on_c, 2, 55, 0
6, 88320, Note_on_c, 2, 56, 115
6, 88380, Note_on_c, 2, 56, 0
6, 88380, Note_on_c, 2, 58, 115
6, 88440, Note_on_c, 2, 58, 0
6, 88440, Note_on_c, 2, 60, 115
6, 88500, Note_on_c, 2, 60, 0
6, 88500, Note_on_c, 2, 62, 115
6, 88560, Note_on_c, 2, 62, 0
6, 88560, Note_on_c, 2, 63, 115
6, 89040, Note_on_c, 2, 63, 0
6, 91920, Note_on_c, 2, 51, 115
6, 92040, Note_on_c, 2, 51, 0
6, 92040, Note_on_c, 2, 55, 115
6, 92160, Note_on_c, 2, 55, 0
6, 92160, Note_on_c, 2, 58, 115
6, 92400, Note_on_c, 2, 58, 0
6, 92400, Note_on_c, 2, 58, 115
6, 92520, Note_on_c, 2, 58, 0
6, 92520, Note_on_c, 2, 56, 115
6, 92640, Note_on_c, 2, 56, 0
6, 92640, Note_on_c, 2, 55, 115
6, 92760, Note_on_c, 2, 55, 0
6, 92760, Note_on_c, 2, 58, 115
6, 92880, Note_on_c, 2, 58, 0
6, 92880, Note_on_c, 2, 61, 115
6, 93360, Note_on_c, 2, 61, 0
6, 96240, Note_on_c, 2, 60, 91
6, 96360, Note_on_c, 2, 60, 0
6, 96360, Note_on_c, 2, 56, 91
6, 96480, Note_on_c, 2, 56, 0
6, 96480, Note_on_c, 2, 53, 91
6, 96720, Note_on_c, 2, 53, 0
6, 96720, Note_on_c, 2, 53, 91
6, 96840, Note_on_c, 2, 53, 0
6, 96840, Note_on_c, 2, 55, 91
6, 96960, Note_on_c, 2, 55, 0
6, 96960, Note_on_c, 2, 56, 91
6, 97080, Note_on_c, 2, 56, 0
6, 97080, Note_on_c, 2, 58, 91
6, 97200, Note_on_c, 2, 58, 0
6, 97200, Note_on_c, 2, 60, 91
6, 97440, Note_on_c, 2, 60, 0
6, 97440, Note_on_c, 2, 60, 91
6, 97560, Note_on_c, 2, 60, 0
6, 97560, Note_on_c, 2, 58, 91
6, 97680, Note_on_c, 2, 58, 0
6, 97680, Note_on_c, 2, 56, 91
6, 97800, Note_on_c, 2, 56, 0
6, 97800, Note_on_c, 2, 55, 91
6, 97920, Note_on_c, 2, 55, 0
6, 97920, Note_on_c, 2, 53, 115
6, 98040, Note_on_c, 2, 53, 0
6, 98040, Note_on_c, 2, 55, 115
6, 98160, Note_on_c, 2, 55, 0
6, 98160, Note_on_c, 2, 56, 115
6, 98280, Note_on_c, 2, 56, 0
6, 98280, Note_on_c, 2, 58, 115
6, 98400, Note_on_c, 2, 58, 0
6, 98400, Note_on_c, 2, 60, 123
6, 98520, Note_on_c, 2, 60, 0
6, 98520, Note_on_c, 2, 58, 123
6, 98640, Note_on_c, 2, 58, 0
6, 98640, Note_on_c, 2, 56, 123
6, 98760, Note_on_c, 2, 56, 0
6, 98760, Note_on_c, 2, 55, 123
6, 98880, Note_on_c, 2, 55, 0
6, 98880, Note_on_c, 2, 53, 123
6, 99000, Note_on_c, 2, 53, 0
6, 99000, Note_on_c, 2, 50, 115
6, 99120, Note_on_c, 2, 50, 0
6, 99120, Note_on_c, 2, 51, 115
6, 99240, Note_on_c, 2, 51, 0
6, 99240, Note_on_c, 2, 53, 115
6, 99360, Note_on_c, 2, 53, 0
6, 99360, Note_on_c, 2, 55, 115
6, 99480, Note_on_c, 2, 55, 0
6, 99480, Note_on_c, 2, 56, 115
6, 99600, Note_on_c, 2, 56, 0
6, 99600, Note_on_c, 2, 58, 115
6, 99720, Note_on_c, 2, 58, 0
6, 99720, Note_on_c, 2, 60, 115
6, 99840, Note_on_c, 2, 60, 0
6, 99840, Note_on_c, 2, 61, 115
6, 99960, Note_on_c, 2, 61, 0
6, 99960, Note_on_c, 2, 63, 115
6, 100080, Note_on_c, 2, 63, 0
6, 100080, Note_on_c, 2, 65, 115
6, 100320, Note_on_c, 2, 65, 0
6, 100320, Note_on_c, 2, 65, 115
6, 100440, Note_on_c, 2, 65, 0
6, 100440, Note_on_c, 2, 63, 115
6, 100560, Note_on_c, 2, 63, 0
6, 100560, Note_on_c, 2, 61, 115
6, 100680, Note_on_c, 2, 61, 0
6, 100680, Note_on_c, 2, 60, 115
6, 100800, Note_on_c, 2, 60, 0
6, 100800, Note_on_c, 2, 58, 115
6, 101040, Note_on_c, 2, 58, 0
6, 101040, Note_on_c, 2, 58, 115
6, 101160, Note_on_c, 2, 58, 0
6, 101160, Note_on_c, 2, 60, 115
6, 101280, Note_on_c, 2, 60, 0
6, 101280, Note_on_c, 2, 61, 115
6, 101400, Note_on_c, 2, 61, 0
6, 101400, Note_on_c, 2, 63, 115
6, 101520, Note_on_c, 2, 63, 0
6, 101520, Note_on_c, 2, 65, 123
6, 101640, Note_on_c, 2, 65, 0
6, 101640, Note_on_c, 2, 63, 123
6, 101760, Note_on_c, 2, 63, 0
6, 101760, Note_on_c, 2, 61, 123
6, 101880, Note_on_c, 2, 61, 0
6, 101880, Note_on_c, 2, 60, 123
6, 102000, Note_on_c, 2, 60, 0
6, 102000, Note_on_c, 2, 58, 123
6, 102120, Note_on_c, 2, 58, 0
6, 102120, Note_on_c, 2, 60, 123
6, 102240, Note_on_c, 2, 60, 0
6, 102240, Note_on_c, 2, 61, 115
6, 102360, Note_on_c, 2, 61, 0
6, 102360, Note_on_c, 2, 63, 115
6, 102480, Note_on_c, 2, 63, 0
6, 102480, Note_on_c, 2, 65, 115
6, 102600, Note_on_c, 2, 65, 0
6, 102600, Note_on_c, 2, 58, 115
6, 102720, Note_on_c, 2, 58, 0
6, 102720, Note_on_c, 2, 60, 115
6, 102840, Note_on_c, 2, 60, 0
6, 102840, Note_on_c, 2, 61, 115
6, 102960, Note_on_c, 2, 61, 0
6, 102960, Note_on_c, 2, 63, 115
6, 103080, Note_on_c, 2, 63, 0
6, 103080, Note_on_c, 2, 56, 115
6, 103200, Note_on_c, 2, 56, 0
6, 103200, Note_on_c, 2, 58, 115
6, 103320, Note_on_c, 2, 58, 0
6, 103320, Note_on_c, 2, 60, 115
6, 103440, Note_on_c, 2, 60, 0
6, 103440, Note_on_c, 2, 61, 115
6, 103560, Note_on_c, 2, 61, 0
6, 104040, Note_on_c, 2, 56, 115
6, 104160, Note_on_c, 2, 56, 0
6, 104160, Note_on_c, 2, 58, 115
6, 104280, Note_on_c, 2, 58, 0
6, 104280, Note_on_c, 2, 60, 115
6, 104400, Note_on_c, 2, 60, 0
6, 104400, Note_on_c, 2, 61, 115
6, 104520, Note_on_c, 2, 61, 0
6, 104520, Note_on_c, 2, 61, 115
6, 104640, Note_on_c, 2, 61, 0
6, 104640, Note_on_c, 2, 61, 115
6, 104760, Note_on_c, 2, 61, 0
6, 104760, Note_on_c, 2, 61, 115
6, 104880, Note_on_c, 2, 61, 0
6, 104880, Note_on_c, 2, 61, 115
6, 105000, Note_on_c, 2, 61, 0
6, 105000, Note_on_c, 2, 61, 115
6, 105120, Note_on_c, 2, 61, 0
6, 105120, Note_on_c, 2, 62, 115
6, 105240, Note_on_c, 2, 62, 0
6, 105240, Note_on_c, 2, 62, 115
6, 105360, Note_on_c, 2, 62, 0
6, 105360, Note_on_c, 2, 62, 115
6, 105480, Note_on_c, 2, 62, 0
6, 105480, Note_on_c, 2, 62, 115
6, 105600, Note_on_c, 2, 62, 0
6, 106560, Note_on_c, 2, 48, 123
6, 106800, Note_on_c, 2, 48, 0
6, 106800, Note_on_c, 2, 48, 123
6, 107040, Note_on_c, 2, 48, 0
6, 107040, Note_on_c, 2, 50, 123
6, 107280, Note_on_c, 2, 50, 0
6, 107280, Note_on_c, 2, 52, 123
6, 108480, Note_on_c, 2, 52, 0
6, 108480, Note_on_c, 2, 48, 123
6, 108660, Note_on_c, 2, 48, 0
6, 108660, Note_on_c, 2, 50, 123
6, 108720, Note_on_c, 2, 50, 0
6, 108720, Note_on_c, 2, 52, 123
6, 108960, Note_on_c, 2, 52, 0
6, 108960, Note_on_c, 2, 52, 123
6, 109200, Note_on_c, 2, 52, 0
6, 109200, Note_on_c, 2, 53, 123
6, 109440, Note_on_c, 2, 53, 0
6, 109440, Note_on_c, 2, 55, 123
6, 110640, Note_on_c, 2, 55, 0
6, 110640, Note_on_c, 2, 52, 123
6, 110820, Note_on_c, 2, 52, 0
6, 110820, Note_on_c, 2, 53, 123
6, 110880, Note_on_c, 2, 53, 0
6, 110880, Note_on_c, 2, 55, 123
6, 111360, Note_on_c, 2, 55, 0
6, 111360, Note_on_c, 2, 52, 123
6, 111540, Note_on_c, 2, 52, 0
6, 111540, Note_on_c, 2, 53, 123
6, 111600, Note_on_c, 2, 53, 0
6, 111600, Note_on_c, 2, 55, 123
6, 112080, Note_on_c, 2, 55, 0
6, 112080, Note_on_c, 2, 52, 123
6, 112260, Note_on_c, 2, 52, 0
6, 112260, Note_on_c, 2, 53, 123
6, 112320, Note_on_c, 2, 53, 0
6, 112320, Note_on_c, 2, 55, 123
6, 112560, Note_on_c, 2, 55, 0
6, 120000, Note_on_c, 2, 51, 91
6, 120120, Note_on_c, 2, 51, 0
6, 120180, Note_on_c, 2, 56, 91
6, 120240, Note_on_c, 2, 56, 0
6, 120240, Note_on_c, 2, 59, 91
6, 120480, Note_on_c, 2, 59, 0
6, 120480, Note_on_c, 2, 59, 91
6, 120600, Note_on_c, 2, 59, 0
6, 120660, Note_on_c, 2, 58, 91
6, 120720, Note_on_c, 2, 58, 0
6, 120720, Note_on_c, 2, 56, 91
6, 120840, Note_on_c, 2, 56, 0
6, 120900, Note_on_c, 2, 59, 91
6, 120960, Note_on_c, 2, 59, 0
6, 120960, Note_on_c, 2, 55, 91
6, 121440, Note_on_c, 2, 55, 0
6, 121440, Note_on_c, 2, 56, 91
6, 121560, Note_on_c, 2, 56, 0
6, 121620, Note_on_c, 2, 58, 91
6, 121680, Note_on_c, 2, 58, 0
6, 121680, Note_on_c, 2, 59, 91
6, 121920, Note_on_c, 2, 59, 0
6, 121920, Note_on_c, 2, 59, 91
6, 122040, Note_on_c, 2, 59, 0
6, 122100, Note_on_c, 2, 58, 91
6, 122160, Note_on_c, 2, 58, 0
6, 122160, Note_on_c, 2, 56, 91
6, 122280, Note_on_c, 2, 56, 0
6, 122340, Note_on_c, 2, 59, 91
6, 122400, Note_on_c, 2, 59, 0
6, 122400, Note_on_c, 2, 61, 91
6, 122880, Note_on_c, 2, 61, 0
6, 122880, Note_on_c, 2, 59, 91
6, 123000, Note_on_c, 2, 59, 0
6, 123060, Note_on_c, 2, 61, 91
6, 123120, Note_on_c, 2, 61, 0
6, 123120, Note_on_c, 2, 63, 91
6, 123360, Note_on_c, 2, 63, 0
6, 123360, Note_on_c, 2, 63, 91
6, 123480, Note_on_c, 2, 63, 0
6, 123540, Note_on_c, 2, 61, 91
6, 123600, Note_on_c, 2, 61, 0
6, 123600, Note_on_c, 2, 59, 91
6, 123720, Note_on_c, 2, 59, 0
6, 123780, Note_on_c, 2, 63, 91
6, 123840, Note_on_c, 2, 63, 0
6, 123840, Note_on_c, 2, 61, 91
6, 124320, Note_on_c, 2, 61, 0
6, 124320, Note_on_c, 2, 63, 91
6, 124440, Note_on_c, 2, 63, 0
6, 124500, Note_on_c, 2, 61, 91
6, 124560, Note_on_c, 2, 61, 0
6, 124560, Note_on_c, 2, 59, 91
6, 124800, Note_on_c, 2, 59, 0
6, 124800, Note_on_c, 2, 59, 91
6, 124920, Note_on_c, 2, 59, 0
6, 124980, Note_on_c, 2, 58, 91
6, 125040, Note_on_c, 2, 58, 0
6, 125040, Note_on_c, 2, 56, 91
6, 125160, Note_on_c, 2, 56, 0
6, 125220, Note_on_c, 2, 59, 91
6, 125280, Note_on_c, 2, 59, 0
6, 125280, Note_on_c, 2, 58, 91
6, 125640, Note_on_c, 2, 58, 0
6, 125640, Note_on_c, 2, 59, 91
6, 125760, Note_on_c, 2, 59, 0
6, 125760, Note_on_c, 2, 56, 91
6, 125880, Note_on_c, 2, 56, 0
6, 125880, Note_on_c, 2, 59, 91
6, 126000, Note_on_c, 2, 59, 0
6, 126000, Note_on_c, 2, 58, 91
6, 126360, Note_on_c, 2, 58, 0
6, 126360, Note_on_c, 2, 59, 91
6, 126480, Note_on_c, 2, 59, 0
6, 126480, Note_on_c, 2, 56, 91
6, 126600, Note_on_c, 2, 56, 0
6, 126600, Note_on_c, 2, 59, 91
6, 126720, Note_on_c, 2, 59, 0
6, 126720, Note_on_c, 2, 58, 115
6, 126840, Note_on_c, 2, 58, 0
6, 126840, Note_on_c, 2, 63, 115
6, 126960, Note_on_c, 2, 63, 0
6, 127920, Note_on_c, 2, 57, 91
6, 128040, Note_on_c, 2, 57, 0
6, 128040, Note_on_c, 2, 58, 91
6, 128160, Note_on_c, 2, 58, 0
6, 128160, Note_on_c, 2, 60, 91
6, 128280, Note_on_c, 2, 60, 0
6, 128280, Note_on_c, 2, 61, 91
6, 128400, Note_on_c, 2, 61, 0
6, 128400, Note_on_c, 2, 63, 91
6, 128520, Note_on_c, 2, 63, 0
6, 128520, Note_on_c, 2, 65, 91
6, 128640, Note_on_c, 2, 65, 0
6, 128640, Note_on_c, 2, 57, 91
6, 128760, Note_on_c, 2, 57, 0
6, 128760, Note_on_c, 2, 58, 91
6, 128880, Note_on_c, 2, 58, 0
6, 128880, Note_on_c, 2, 60, 91
6, 129000, Note_on_c, 2, 60, 0
6, 129000, Note_on_c, 2, 61, 91
6, 129120, Note_on_c, 2, 61, 0
6, 132720, Note_on_c, 2, 46, 91
6, 132780, Note_on_c, 2, 46, 0
6, 132780, Note_on_c, 2, 48, 91
6, 132840, Note_on_c, 2, 48, 0
6, 132840, Note_on_c, 2, 49, 101
6, 132900, Note_on_c, 2, 49, 0
6, 132900, Note_on_c, 2, 51, 101
6, 132960, Note_on_c, 2, 51, 0
6, 132960, Note_on_c, 2, 53, 109
6, 133020, Note_on_c, 2, 53, 0
6, 133020, Note_on_c, 2, 55, 109
6, 133080, Note_on_c, 2, 55, 0
6, 133080, Note_on_c, 2, 56, 115
6, 133140, Note_on_c, 2, 56, 0
6, 133140, Note_on_c, 2, 58, 115
6, 133200, Note_on_c, 2, 58, 0
6, 133200, Note_on_c, 2, 60, 123
6, 134100, Note_on_c, 2, 60, 0
6, 134100, Note_on_c, 2, 58, 123
6, 134160, Note_on_c, 2, 58, 0
6, 134160, Note_on_c, 2, 56, 123
6, 134340, Note_on_c, 2, 56, 0
6, 134340, Note_on_c, 2, 60, 123
6, 134400, Note_on_c, 2, 60, 0
6, 134400, Note_on_c, 2, 53, 123
6, 134880, Note_on_c, 2, 53, 0
6, 134880, Note_on_c, 2, 61, 123
6, 135060, Note_on_c, 2, 61, 0
6, 135060, Note_on_c, 2, 60, 123
6, 135120, Note_on_c, 2, 60, 0
6, 135120, Note_on_c, 2, 58, 123
6, 135300, Note_on_c, 2, 58, 0
6, 135300, Note_on_c, 2, 61, 123
6, 135360, Note_on_c, 2, 61, 0
6, 135360, Note_on_c, 2, 55, 123
6, 135540, Note_on_c, 2, 55, 0
6, 135540, Note_on_c, 2, 58, 123
6, 135600, Note_on_c, 2, 58, 0
6, 135600, Note_on_c, 2, 52, 123
6, 135780, Note_on_c, 2, 52, 0
6, 135780, Note_on_c, 2, 55, 123
6, 135840, Note_on_c, 2, 55, 0
6, 135840, Note_on_c, 2, 60, 123
6, 136320, Note_on_c, 2, 60, 0
6, 136320, Note_on_c, 2, 61, 123
6, 136500, Note_on_c, 2, 61, 0
6, 136500, Note_on_c, 2, 58, 123
6, 136560, Note_on_c, 2, 58, 0
6, 136560, Note_on_c, 2, 65, 123
6, 136800, Note_on_c, 2, 65, 0
6, 136800, Note_on_c, 2, 58, 123
6, 137040, Note_on_c, 2, 58, 0
6, 137040, Note_on_c, 2, 60, 123
6, 137220, Note_on_c, 2, 60, 0
6, 137220, Note_on_c, 2, 56, 123
6, 137280, Note_on_c, 2, 56, 0
6, 137280, Note_on_c, 2, 63, 123
6, 137520, Note_on_c, 2, 63, 0
6, 137520, Note_on_c, 2, 63, 123
6, 137760, Note_on_c, 2, 63, 0
6, 138240, Note_on_c, 2, 63, 123
6, 138480, Note_on_c, 2, 63, 0
6, 138960, Note_on_c, 2, 51, 123
6, 139020, Note_on_c, 2, 51, 0
6, 139020, Note_on_c, 2, 50, 123
6, 139080, Note_on_c, 2, 50, 0
6, 139080, Note_on_c, 2, 51, 123
6, 139140, Note_on_c, 2, 51, 0
6, 139140, Note_on_c, 2, 53, 123
6, 139200, Note_on_c, 2, 53, 0
6, 139200, Note_on_c, 2, 55, 123
6, 139260, Note_on_c, 2, 55, 0
6, 139260, Note_on_c, 2, 56, 123
6, 139320, Note_on_c, 2, 56, 0
6, 139320, Note_on_c, 2, 58, 123
6, 139380, Note_on_c, 2, 58, 0
6, 139380, Note_on_c, 2, 60, 123
6, 139440, Note_on_c, 2, 60, 0
6, 139440, Note_on_c, 2, 61, 123
6, 139500, Note_on_c, 2, 61, 0
6, 139500, Note_on_c, 2, 63, 123
6, 139560, Note_on_c, 2, 63, 0
6, 139560, Note_on_c, 2, 65, 123
6, 139620, Note_on_c, 2, 65, 0
6, 139620, Note_on_c, 2, 67, 123
6, 139680, Note_on_c, 2, 67, 0
6, 139680, Note_on_c, 2, 68, 123
6, 139920, Note_on_c, 2, 68, 0
6, 140160, Note_on_c, 2, 56, 123
6, 140340, Note_on_c, 2, 56, 0
6, 140340, Note_on_c, 2, 60, 123
6, 140400, Note_on_c, 2, 60, 0
6, 140400, Note_on_c, 2, 63, 101
6, 141120, Note_on_c, 2, 63, 0
6, 141120, Note_on_c, 2, 61, 91
6, 141360, Note_on_c, 2, 61, 0
6, 141360, Note_on_c, 2, 60, 91
6, 141840, Note_on_c, 2, 60, 0
6, 141840, Note_on_c, 2, 58, 91
6, 142080, Note_on_c, 2, 58, 0
6, 142080, Note_on_c, 2, 56, 91
6, 142560, Note_on_c, 2, 56, 0
6, 142560, Note_on_c, 2, 61, 91
6, 142800, Note_on_c, 2, 61, 0
6, 142800, Note_on_c, 2, 61, 91
6, 143040, Note_on_c, 2, 61, 0
6, 143040, Note_on_c, 2, 61, 91
6, 143280, Note_on_c, 2, 61, 0
6, 143280, Note_on_c, 2, 60, 91
6, 143520, Note_on_c, 2, 60, 0
6, 146640, Note_on_c, 2, 61, 91
6, 146720, Note_on_c, 2, 61, 0
6, 146720, Note_on_c, 2, 60, 91
6, 146800, Note_on_c, 2, 60, 0
6, 146800, Note_on_c, 2, 61, 91
6, 146880, Note_on_c, 2, 61, 0
6, 146880, Note_on_c, 2, 60, 91
6, 147120, Note_on_c, 2, 60, 0
6, 154560, Note_on_c, 2, 63, 115
6, 154800, Note_on_c, 2, 63, 0
6, 154800, Note_on_c, 2, 60, 115
6, 155040, Note_on_c, 2, 60, 0
6, 156000, Note_on_c, 2, 63, 115
6, 156480, Note_on_c, 2, 63, 0
6, 156560, Note_on_c, 2, 44, 91
6, 156640, Note_on_c, 2, 44, 0
6, 156640, Note_on_c, 2, 48, 91
6, 156720, Note_on_c, 2, 48, 0
6, 156720, Note_on_c, 2, 51, 101
6, 156800, Note_on_c, 2, 51, 0
6, 156800, Note_on_c, 2, 56, 109
6, 156880, Note_on_c, 2, 56, 0
6, 156880, Note_on_c, 2, 60, 115
6, 156960, Note_on_c, 2, 60, 0
6, 156960, Note_on_c, 2, 51, 123
6, 157040, Note_on_c, 2, 51, 0
6, 157040, Note_on_c, 2, 56, 123
6, 157120, Note_on_c, 2, 56, 0
6, 157120, Note_on_c, 2, 60, 123
6, 157200, Note_on_c, 2, 60, 0
6, 157200, Note_on_c, 2, 63, 123
6, 157440, Note_on_c, 2, 63, 0
6, 157680, Note_on_c, 2, 58, 109
6, 157920, Note_on_c, 2, 58, 0
6, 157920, Note_on_c, 2, 63, 109
6, 158400, Note_on_c, 2, 63, 0
6, 158400, Note_on_c, 2, 61, 91
6, 158640, Note_on_c, 2, 61, 0
6, 158640, Note_on_c, 2, 60, 91
6, 159120, Note_on_c, 2, 60, 0
6, 159120, Note_on_c, 2, 58, 91
6, 159360, Note_on_c, 2, 58, 0
6, 159360, Note_on_c, 2, 56, 91
6, 159840, Note_on_c, 2, 56, 0
6, 159840, Note_on_c, 2, 61, 91
6, 160080, Note_on_c, 2, 61, 0
6, 160080, Note_on_c, 2, 61, 91
6, 160320, Note_on_c, 2, 61, 0
6, 160320, Note_on_c, 2, 61, 91
6, 160560, Note_on_c, 2, 61, 0
6, 160560, Note_on_c, 2, 60, 91
6, 160800, Note_on_c, 2, 60, 0
6, 162600, Note_on_c, 2, 63, 115
6, 162720, Note_on_c, 2, 63, 0
6, 162720, Note_on_c, 2, 63, 115
6, 162840, Note_on_c, 2, 63, 0
6, 162840, Note_on_c, 2, 61, 115
6, 162960, Note_on_c, 2, 61, 0
6, 162960, Note_on_c, 2, 60, 115
6, 163320, Note_on_c, 2, 60, 0
6, 165360, Note_on_c, 2, 51, 91
6, 165480, Note_on_c, 2, 51, 0
6, 165480, Note_on_c, 2, 56, 91
6, 165600, Note_on_c, 2, 56, 0
6, 165600, Note_on_c, 2, 60, 91
6, 165840, Note_on_c, 2, 60, 0
6, 165840, Note_on_c, 2, 60, 91
6, 165960, Note_on_c, 2, 60, 0
6, 165960, Note_on_c, 2, 58, 91
6, 166080, Note_on_c, 2, 58, 0
6, 166080, Note_on_c, 2, 56, 91
6, 166260, Note_on_c, 2, 56, 0
6, 166260, Note_on_c, 2, 60, 91
6, 166320, Note_on_c, 2, 60, 0
6, 166320, Note_on_c, 2, 63, 91
6, 166800, Note_on_c, 2, 63, 0
6, 166800, Note_on_c, 2, 56, 91
6, 166920, Note_on_c, 2, 56, 0
6, 166920, Note_on_c, 2, 60, 91
6, 167040, Note_on_c, 2, 60, 0
6, 167040, Note_on_c, 2, 63, 91
6, 167280, Note_on_c, 2, 63, 0
6, 167280, Note_on_c, 2, 63, 91
6, 167400, Note_on_c, 2, 63, 0
6, 167400, Note_on_c, 2, 61, 91
6, 167520, Note_on_c, 2, 61, 0
6, 167520, Note_on_c, 2, 60, 91
6, 167700, Note_on_c, 2, 60, 0
6, 167700, Note_on_c, 2, 63, 91
6, 167760, Note_on_c, 2, 63, 0
6, 167760, Note_on_c, 2, 68, 91
6, 170640, Note_on_c, 2, 68, 0
6, 170640, Note_on_c, 2, 68, 101
6, 170880, Note_on_c, 2, 68, 0
6, 170880, Note_on_c, 2, 68, 101
6, 171120, Note_on_c, 2, 68, 0
6, 171120, Note_on_c, 2, 68, 101
6, 171360, Note_on_c, 2, 68, 0
6, 171360, Note_on_c, 2, 68, 109
6, 171600, Note_on_c, 2, 68, 0
6, 171600, Note_on_c, 2, 68, 109
6, 171840, Note_on_c, 2, 68, 0
6, 171840, Note_on_c, 2, 68, 109
6, 172080, Note_on_c, 2, 68, 0
6, 172080, Note_on_c, 2, 68, 115
6, 172160, Note_on_c, 2, 68, 0
6, 172160, Note_on_c, 2, 68, 115
6, 172240, Note_on_c, 2, 68, 0
6, 172240, Note_on_c, 2, 68, 115
6, 172320, Note_on_c, 2, 68, 0
6, 172320, Note_on_c, 2, 68, 115
6, 172400, Note_on_c, 2, 68, 0
6, 172400, Note_on_c, 2, 68, 115
6, 172480, Note_on_c, 2, 68, 0
6, 172480, Note_on_c, 2, 68, 115
6, 172560, Note_on_c, 2, 68, 0
6, 172560, Note_on_c, 2, 68, 115
6, 172640, Note_on_c, 2, 68, 0
6, 172640, Note_on_c, 2, 68, 115
6, 172720, Note_on_c, 2, 68, 0
6, 172720, Note_on_c, 2, 68, 115
6, 172800, Note_on_c, 2, 68, 0
6, 172800, Note_on_c, 2, 68, 115
6, 172880, Note_on_c, 2, 68, 0
6, 172880, Note_on_c, 2, 68, 115
6, 172960, Note_on_c, 2, 68, 0
6, 172960, Note_on_c, 2, 68, 115
6, 173040, Note_on_c, 2, 68, 0
6, 173040, Note_on_c, 2, 68, 115
6, 173120, Note_on_c, 2, 68, 0
6, 173120, Note_on_c, 2, 68, 115
6, 173200, Note_on_c, 2, 68, 0
6, 173200, Note_on_c, 2, 68, 115
6, 173280, Note_on_c, 2, 68, 0
6, 173280, Note_on_c, 2, 68, 115
6, 173360, Note_on_c, 2, 68, 0
6, 173360, Note_on_c, 2, 68, 115
6, 173440, Note_on_c, 2, 68, 0
6, 173440, Note_on_c, 2, 68, 115
6, 173520, Note_on_c, 2, 68, 0
6, 173520, Note_on_c, 2, 68, 115
6, 173600, Note_on_c, 2, 68, 0
6, 173600, Note_on_c, 2, 68, 115
6, 173680, Note_on_c, 2, 68, 0
6, 173680, Note_on_c, 2, 68, 115
6, 173760, Note_on_c, 2, 68, 0
6, 173760, Note_on_c, 2, 68, 115
6, 173840, Note_on_c, 2, 68, 0
6, 173840, Note_on_c, 2, 68, 115
6, 173920, Note_on_c, 2, 68, 0
6, 173920, Note_on_c, 2, 68, 115
6, 174000, Note_on_c, 2, 68, 0
6, 174000, Note_on_c, 2, 56, 115
6, 174080, Note_on_c, 2, 56, 0
6, 174080, Note_on_c, 2, 60, 115
6, 174160, Note_on_c, 2, 60, 0
6, 174160, Note_on_c, 2, 63, 115
6, 174240, Note_on_c, 2, 63, 0
6, 174240, Note_on_c, 2, 68, 123
6, 174480, Note_on_c, 2, 68, 0
6, 174720, Note_on_c, 2, 56, 123
6, 174900, Note_on_c, 2, 56, 0
6, 174900, Note_on_c, 2, 60, 123
6, 174960, Note_on_c, 2, 60, 0
6, 174960, Note_on_c, 2, 63, 123
6, 175680, Note_on_c, 2, 63, 0
6, 175680, Note_on_c, 2, 60, 123
6, 175920, Note_on_c, 2, 60, 0
6, 176160, Note_on_c, 2, 58, 91
6, 176400, Note_on_c, 2, 58, 0
6, 176400, Note_on_c, 2, 60, 91
6, 176640, Note_on_c, 2, 60, 0
6, 176880, Note_on_c, 2, 56, 115
6, 177060, Note_on_c, 2, 56, 0
6, 177060, Note_on_c, 2, 60, 115
6, 177120, Note_on_c, 2, 60, 0
6, 177120, Note_on_c, 2, 63, 123
6, 177840, Note_on_c, 2, 63, 0
6, 177840, Note_on_c, 2, 56, 123
6, 178080, Note_on_c, 2, 56, 0
6, 178080, End_track
7, 0, Start_track
7, 0, MIDI_port, 0
7, 0, Title_t, "Clarinet 2"
7, 7680, Note_on_c, 2, 60, 91
7, 7860, Note_on_c, 2, 60, 0
7, 7860, Note_on_c, 2, 56, 91
7, 7920, Note_on_c, 2, 56, 0
7, 7920, Note_on_c, 2, 58, 115
7, 8640, Note_on_c, 2, 58, 0
7, 8640, Note_on_c, 2, 56, 91
7, 9360, Note_on_c, 2, 56, 0
7, 9360, Note_on_c, 2, 51, 91
7, 10080, Note_on_c, 2, 51, 0
7, 10080, Note_on_c, 2, 58, 91
7, 10320, Note_on_c, 2, 58, 0
7, 10320, Note_on_c, 2, 58, 91
7, 10560, Note_on_c, 2, 58, 0
7, 10560, Note_on_c, 2, 58, 91
7, 10740, Note_on_c, 2, 58, 0
7, 10740, Note_on_c, 2, 55, 91
7, 10800, Note_on_c, 2, 55, 0
7, 10800, Note_on_c, 2, 56, 91
7, 11040, Note_on_c, 2, 56, 0
7, 12720, Note_on_c, 2, 48, 91
7, 12960, Note_on_c, 2, 48, 0
7, 12960, Note_on_c, 2, 49, 115
7, 13200, Note_on_c, 2, 49, 0
7, 13200, Note_on_c, 2, 49, 115
7, 13440, Note_on_c, 2, 49, 0
7, 13440, Note_on_c, 2, 49, 115
7, 13680, Note_on_c, 2, 49, 0
7, 13680, Note_on_c, 2, 48, 91
7, 13920, Note_on_c, 2, 48, 0
7, 14160, Note_on_c, 2, 58, 91
7, 14340, Note_on_c, 2, 58, 0
7, 14340, Note_on_c, 2, 55, 91
7, 14400, Note_on_c, 2, 55, 0
7, 14400, Note_on_c, 2, 56, 91
7, 14640, Note_on_c, 2, 56, 0
7, 14880, Note_on_c, 2, 43, 115
7, 15120, Note_on_c, 2, 43, 0
7, 15120, Note_on_c, 2, 44, 115
7, 15240, Note_on_c, 2, 44, 0
7, 15360, Note_on_c, 2, 44, 91
7, 15480, Note_on_c, 2, 44, 0
7, 15600, Note_on_c, 2, 44, 91
7, 15720, Note_on_c, 2, 44, 0
7, 15840, Note_on_c, 2, 44, 91
7, 16080, Note_on_c, 2, 44, 0
7, 16560, Note_on_c, 2, 51, 91
7, 16800, Note_on_c, 2, 51, 0
7, 16800, Note_on_c, 2, 51, 91
7, 17040, Note_on_c, 2, 51, 0
7, 17040, Note_on_c, 2, 55, 91
7, 17280, Note_on_c, 2, 55, 0
7, 17280, Note_on_c, 2, 56, 91
7, 17760, Note_on_c, 2, 56, 0
7, 17760, Note_on_c, 2, 51, 91
7, 17940, Note_on_c, 2, 51, 0
7, 17940, Note_on_c, 2, 55, 91
7, 18000, Note_on_c, 2, 55, 0
7, 18000, Note_on_c, 2, 56, 91
7, 18240, Note_on_c, 2, 56, 0
7, 18240, Note_on_c, 2, 56, 91
7, 18480, Note_on_c, 2, 56, 0
7, 18480, Note_on_c, 2, 58, 91
7, 18720, Note_on_c, 2, 58, 0
7, 18720, Note_on_c, 2, 60, 91
7, 19200, Note_on_c, 2, 60, 0
7, 19200, Note_on_c, 2, 60, 78
7, 19920, Note_on_c, 2, 60, 0
7, 19920, Note_on_c, 2, 60, 78
7, 20640, Note_on_c, 2, 60, 0
7, 20880, Note_on_c, 2, 51, 123
7, 21600, Note_on_c, 2, 51, 0
7, 21600, Note_on_c, 2, 52, 123
7, 21840, Note_on_c, 2, 52, 0
7, 21840, Note_on_c, 2, 52, 123
7, 22080, Note_on_c, 2, 52, 0
7, 22080, Note_on_c, 2, 53, 123
7, 22320, Note_on_c, 2, 53, 0
7, 22320, Note_on_c, 2, 52, 123
7, 22560, Note_on_c, 2, 52, 0
7, 35280, Note_on_c, 2, 63, 91
7, 38160, Note_on_c, 2, 63, 0
7, 38160, Note_on_c, 2, 64, 91
7, 38880, Note_on_c, 2, 64, 0
7, 38880, Note_on_c, 2, 65, 91
7, 39840, Note_on_c, 2, 65, 0
7, 40320, Note_on_c, 2, 55, 115
7, 40560, Note_on_c, 2, 55, 0
7, 40560, Note_on_c, 2, 55, 115
7, 40800, Note_on_c, 2, 55, 0
7, 40800, Note_on_c, 2, 55, 115
7, 41040, Note_on_c, 2, 55, 0
7, 41040, Note_on_c, 2, 60, 91
7, 41520, Note_on_c, 2, 60, 0
7, 42840, Note_on_c, 2, 60, 91
7, 42960, Note_on_c, 2, 60, 0
7, 42960, Note_on_c, 2, 60, 101
7, 43080, Note_on_c, 2, 60, 0
7, 43080, Note_on_c, 2, 56, 109
7, 43200, Note_on_c, 2, 56, 0
7, 43200, Note_on_c, 2, 58, 115
7, 43920, Note_on_c, 2, 58, 0
7, 43920, Note_on_c, 2, 56, 91
7, 44640, Note_on_c, 2, 56, 0
7, 44640, Note_on_c, 2, 51, 91
7, 45360, Note_on_c, 2, 51, 0
7, 45360, Note_on_c, 2, 58, 91
7, 45600, Note_on_c, 2, 58, 0
7, 45600, Note_on_c, 2, 58, 91
7, 45840, Note_on_c, 2, 58, 0
7, 45840, Note_on_c, 2, 58, 91
7, 46020, Note_on_c, 2, 58, 0
7, 46020, Note_on_c, 2, 55, 91
7, 46080, Note_on_c, 2, 55, 0
7, 46080, Note_on_c, 2, 56, 91
7, 46320, Note_on_c, 2, 56, 0
7, 48000, Note_on_c, 2, 48, 91
7, 48240, Note_on_c, 2, 48, 0
7, 48240, Note_on_c, 2, 49, 91
7, 48480, Note_on_c, 2, 49, 0
7, 48480, Note_on_c, 2, 49, 91
7, 48720, Note_on_c, 2, 49, 0
7, 48720, Note_on_c, 2, 49, 91
7, 48960, Note_on_c, 2, 49, 0
7, 48960, Note_on_c, 2, 48, 91
7, 49200, Note_on_c, 2, 48, 0
7, 49440, Note_on_c, 2, 58, 101
7, 49620, Note_on_c, 2, 58, 0
7, 49620, Note_on_c, 2, 55, 101
7, 49680, Note_on_c, 2, 55, 0
7, 49680, Note_on_c, 2, 56, 109
7, 49920, Note_on_c, 2, 56, 0
7, 50160, Note_on_c, 2, 43, 115
7, 50400, Note_on_c, 2, 43, 0
7, 50400, Note_on_c, 2, 44, 115
7, 50520, Note_on_c, 2, 44, 0
7, 50640, Note_on_c, 2, 44, 91
7, 50760, Note_on_c, 2, 44, 0
7, 50880, Note_on_c, 2, 44, 91
7, 51000, Note_on_c, 2, 44, 0
7, 51120, Note_on_c, 2, 44, 91
7, 51360, Note_on_c, 2, 44, 0
7, 51840, Note_on_c, 2, 51, 91
7, 52080, Note_on_c, 2, 51, 0
7, 52080, Note_on_c, 2, 51, 91
7, 52320, Note_on_c, 2, 51, 0
7, 52320, Note_on_c, 2, 55, 91
7, 52560, Note_on_c, 2, 55, 0
7, 52560, Note_on_c, 2, 56, 91
7, 53040, Note_on_c, 2, 56, 0
7, 53040, Note_on_c, 2, 51, 91
7, 53220, Note_on_c, 2, 51, 0
7, 53220, Note_on_c, 2, 55, 91
7, 53280, Note_on_c, 2, 55, 0
7, 53280, Note_on_c, 2, 56, 91
7, 53520, Note_on_c, 2, 56, 0
7, 53520, Note_on_c, 2, 56, 91
7, 53760, Note_on_c, 2, 56, 0
7, 53760, Note_on_c, 2, 58, 91
7, 54000, Note_on_c, 2, 58, 0
7, 54000, Note_on_c, 2, 60, 91
7, 54480, Note_on_c, 2, 60, 0
7, 54480, Note_on_c, 2, 60, 78
7, 55200, Note_on_c, 2, 60, 0
7, 55200, Note_on_c, 2, 60, 78
7, 55920, Note_on_c, 2, 60, 0
7, 56160, Note_on_c, 2, 51, 123
7, 56880, Note_on_c, 2, 51, 0
7, 56880, Note_on_c, 2, 52, 123
7, 57120, Note_on_c, 2, 52, 0
7, 57120, Note_on_c, 2, 52, 123
7, 57360, Note_on_c, 2, 52, 0
7, 57360, Note_on_c, 2, 53, 123
7, 57600, Note_on_c, 2, 53, 0
7, 57600, Note_on_c, 2, 52, 123
7, 57840, Note_on_c, 2, 52, 0
7, 70200, Note_on_c, 2, 51, 123
7, 70320, Note_on_c, 2, 51, 0
7, 70320, Note_on_c, 2, 63, 123
7, 70440, Note_on_c, 2, 63, 0
7, 77400, Note_on_c, 2, 48, 91
7, 77520, Note_on_c, 2, 48, 0
7, 77520, Note_on_c, 2, 60, 91
7, 77640, Note_on_c, 2, 60, 0
7, 78120, Note_on_c, 2, 53, 91
7, 78240, Note_on_c, 2, 53, 0
7, 78240, Note_on_c, 2, 65, 91
7, 78360, Note_on_c, 2, 65, 0
7, 78840, Note_on_c, 2, 49, 91
7, 78960, Note_on_c, 2, 49, 0
7, 78960, Note_on_c, 2, 61, 91
7, 79080, Note_on_c, 2, 61, 0
7, 79560, Note_on_c, 2, 48, 91
7, 79680, Note_on_c, 2, 48, 0
7, 79680, Note_on_c, 2, 60, 91
7, 79800, Note_on_c, 2, 60, 0
7, 80280, Note_on_c, 2, 49, 91
7, 80400, Note_on_c, 2, 49, 0
7, 80400, Note_on_c, 2, 61, 91
7, 80520, Note_on_c, 2, 61, 0
7, 81000, Note_on_c, 2, 48, 91
7, 81120, Note_on_c, 2, 48, 0
7, 81120, Note_on_c, 2, 60, 91
7, 81240, Note_on_c, 2, 60, 0
7, 81720, Note_on_c, 2, 51, 91
7, 81840, Note_on_c, 2, 51, 0
7, 81840, Note_on_c, 2, 63, 91
7, 81960, Note_on_c, 2, 63, 0
7, 81960, Note_on_c, 2, 63, 91
7, 82080, Note_on_c, 2, 63, 0
7, 82200, Note_on_c, 2, 56, 115
7, 82320, Note_on_c, 2, 56, 0
7, 82320, Note_on_c, 2, 56, 115
7, 82440, Note_on_c, 2, 56, 0
7, 82440, Note_on_c, 2, 56, 115
7, 82560, Note_on_c, 2, 56, 0
7, 82560, Note_on_c, 2, 56, 115
7, 82680, Note_on_c, 2, 56, 0
7, 82680, Note_on_c, 2, 56, 115
7, 82800, Note_on_c, 2, 56, 0
7, 82800, Note_on_c, 2, 56, 115
7, 82920, Note_on_c, 2, 56, 0
7, 82920, Note_on_c, 2, 56, 115
7, 83040, Note_on_c, 2, 56, 0
7, 83040, Note_on_c, 2, 56, 115
7, 83160, Note_on_c, 2, 56, 0
7, 83160, Note_on_c, 2, 56, 115
7, 83280, Note_on_c, 2, 56, 0
7, 83280, Note_on_c, 2, 56, 115
7, 83400, Note_on_c, 2, 56, 0
7, 83400, Note_on_c, 2, 56, 115
7, 83520, Note_on_c, 2, 56, 0
7, 83520, Note_on_c, 2, 57, 115
7, 83640, Note_on_c, 2, 57, 0
7, 83640, Note_on_c, 2, 57, 115
7, 83760, Note_on_c, 2, 57, 0
7, 83760, Note_on_c, 2, 58, 115
7, 83880, Note_on_c, 2, 58, 0
7, 83880, Note_on_c, 2, 58, 115
7, 84000, Note_on_c, 2, 58, 0
7, 84000, Note_on_c, 2, 58, 115
7, 84120, Note_on_c, 2, 58, 0
7, 84120, Note_on_c, 2, 58, 115
7, 84240, Note_on_c, 2, 58, 0
7, 84240, Note_on_c, 2, 58, 115
7, 84360, Note_on_c, 2, 58, 0
7, 84360, Note_on_c, 2, 58, 115
7, 84480, Note_on_c, 2, 58, 0
7, 84480, Note_on_c, 2, 58, 115
7, 84600, Note_on_c, 2, 58, 0
7, 84600, Note_on_c, 2, 58, 115
7, 84720, Note_on_c, 2, 58, 0
7, 84720, Note_on_c, 2, 59, 115
7, 84840, Note_on_c, 2, 59, 0
7, 84840, Note_on_c, 2, 59, 115
7, 84960, Note_on_c, 2, 59, 0
7, 84960, Note_on_c, 2, 55, 115
7, 85080, Note_on_c, 2, 55, 0
7, 85080, Note_on_c, 2, 55, 115
7, 85200, Note_on_c, 2, 55, 0
7, 85200, Note_on_c, 2, 55, 115
7, 85320, Note_on_c, 2, 55, 0
7, 85320, Note_on_c, 2, 55, 115
7, 85440, Note_on_c, 2, 55, 0
7, 85440, Note_on_c, 2, 55, 115
7, 85560, Note_on_c, 2, 55, 0
7, 85560, Note_on_c, 2, 55, 115
7, 85680, Note_on_c, 2, 55, 0
7, 85680, Note_on_c, 2, 60, 115
7, 85800, Note_on_c, 2, 60, 0
7, 85800, Note_on_c, 2, 60, 115
7, 85920, Note_on_c, 2, 60, 0
7, 85920, Note_on_c, 2, 60, 115
7, 86040, Note_on_c, 2, 60, 0
7, 86040, Note_on_c, 2, 60, 115
7, 86160, Note_on_c, 2, 60, 0
7, 86160, Note_on_c, 2, 58, 115
7, 86280, Note_on_c, 2, 58, 0
7, 86280, Note_on_c, 2, 58, 115
7, 86400, Note_on_c, 2, 58, 0
7, 86400, Note_on_c, 2, 58, 115
7, 86520, Note_on_c, 2, 58, 0
7, 86520, Note_on_c, 2, 58, 115
7, 86640, Note_on_c, 2, 58, 0
7, 86640, Note_on_c, 2, 58, 115
7, 86760, Note_on_c, 2, 58, 0
7, 86760, Note_on_c, 2, 58, 115
7, 86880, Note_on_c, 2, 58, 0
7, 86880, Note_on_c, 2, 56, 115
7, 87000, Note_on_c, 2, 56, 0
7, 87000, Note_on_c, 2, 56, 115
7, 87120, Note_on_c, 2, 56, 0
7, 87120, Note_on_c, 2, 55, 115
7, 87840, Note_on_c, 2, 55, 0
7, 87840, Note_on_c, 2, 51, 115
7, 88200, Note_on_c, 2, 51, 0
7, 88200, Note_on_c, 2, 53, 115
7, 88260, Note_on_c, 2, 53, 0
7, 88260, Note_on_c, 2, 55, 115
7, 88320, Note_on_c, 2, 55, 0
7, 88320, Note_on_c, 2, 56, 115
7, 88380, Note_on_c, 2, 56, 0
7, 88380, Note_on_c, 2, 58, 115
7, 88440, Note_on_c, 2, 58, 0
7, 88440, Note_on_c, 2, 60, 115
7, 88500, Note_on_c, 2, 60, 0
7, 88500, Note_on_c, 2, 62, 115
7, 88560, Note_on_c, 2, 62, 0
7, 88560, Note_on_c, 2, 63, 115
7, 89040, Note_on_c, 2, 63, 0
7, 91920, Note_on_c, 2, 51, 115
7, 92040, Note_on_c, 2, 51, 0
7, 92040, Note_on_c, 2, 55, 115
7, 92160, Note_on_c, 2, 55, 0
7, 92160, Note_on_c, 2, 58, 115
7, 92400, Note_on_c, 2, 58, 0
7, 92400, Note_on_c, 2, 58, 115
7, 92520, Note_on_c, 2, 58, 0
7, 92520, Note_on_c, 2, 56, 115
7, 92640, Note_on_c, 2, 56, 0
7, 92640, Note_on_c, 2, 55, 115
7, 92760, Note_on_c, 2, 55, 0
7, 92760, Note_on_c, 2, 58, 115
7, 92880, Note_on_c, 2, 58, 0
7, 92880, Note_on_c, 2, 61, 115
7, 93360, Note_on_c, 2, 61, 0
7, 96240, Note_on_c, 2, 56, 91
7, 96360, Note_on_c, 2, 56, 0
7, 96360, Note_on_c, 2, 53, 91
7, 96480, Note_on_c, 2, 53, 0
7, 96480, Note_on_c, 2, 50, 91
7, 96720, Note_on_c, 2, 50, 0
7, 96720, Note_on_c, 2, 50, 91
7, 96840, Note_on_c, 2, 50, 0
7, 96840, Note_on_c, 2, 51, 91
7, 96960, Note_on_c, 2, 51, 0
7, 96960, Note_on_c, 2, 53, 91
7, 97080, Note_on_c, 2, 53, 0
7, 97080, Note_on_c, 2, 55, 91
7, 97200, Note_on_c, 2, 55, 0
7, 97200, Note_on_c, 2, 56, 91
7, 97440, Note_on_c, 2, 56, 0
7, 97440, Note_on_c, 2, 56, 91
7, 97560, Note_on_c, 2, 56, 0
7, 97560, Note_on_c, 2, 55, 91
7, 97680, Note_on_c, 2, 55, 0
7, 97680, Note_on_c, 2, 53, 91
7, 97800, Note_on_c, 2, 53, 0
7, 97800, Note_on_c, 2, 51, 91
7, 97920, Note_on_c, 2, 51, 0
7, 97920, Note_on_c, 2, 50, 115
7, 98040, Note_on_c, 2, 50, 0
7, 98040, Note_on_c, 2, 51, 115
7, 98160, Note_on_c, 2, 51, 0
7, 98160, Note_on_c, 2, 53, 115
7, 98280, Note_on_c, 2, 53, 0
7, 98280, Note_on_c, 2, 55, 115
7, 98400, Note_on_c, 2, 55, 0
7, 98400, Note_on_c, 2, 56, 123
7, 98520, Note_on_c, 2, 56, 0
7, 98520, Note_on_c, 2, 55, 123
7, 98640, Note_on_c, 2, 55, 0
7, 98640, Note_on_c, 2, 53, 123
7, 98760, Note_on_c, 2, 53, 0
7, 98760, Note_on_c, 2, 51, 123
7, 98880, Note_on_c, 2, 51, 0
7, 98880, Note_on_c, 2, 50, 123
7, 99000, Note_on_c, 2, 50, 0
7, 99000, Note_on_c, 2, 46, 115
7, 99120, Note_on_c, 2, 46, 0
7, 99120, Note_on_c, 2, 48, 115
7, 99240, Note_on_c, 2, 48, 0
7, 99240, Note_on_c, 2, 50, 115
7, 99360, Note_on_c, 2, 50, 0
7, 99360, Note_on_c, 2, 51, 115
7, 99480, Note_on_c, 2, 51, 0
7, 99480, Note_on_c, 2, 53, 115
7, 99600, Note_on_c, 2, 53, 0
7, 99600, Note_on_c, 2, 55, 115
7, 99720, Note_on_c, 2, 55, 0
7, 99720, Note_on_c, 2, 56, 115
7, 99840, Note_on_c, 2, 56, 0
7, 99840, Note_on_c, 2, 58, 115
7, 99960, Note_on_c, 2, 58, 0
7, 99960, Note_on_c, 2, 60, 115
7, 100080, Note_on_c, 2, 60, 0
7, 100080, Note_on_c, 2, 61, 115
7, 100320, Note_on_c, 2, 61, 0
7, 100320, Note_on_c, 2, 61, 115
7, 100440, Note_on_c, 2, 61, 0
7, 100440, Note_on_c, 2, 60, 115
7, 100560, Note_on_c, 2, 60, 0
7, 100560, Note_on_c, 2, 58, 115
7, 100680, Note_on_c, 2, 58, 0
7, 100680, Note_on_c, 2, 56, 115
7, 100800, Note_on_c, 2, 56, 0
7, 100800, Note_on_c, 2, 55, 115
7, 101040, Note_on_c, 2, 55, 0
7, 101040, Note_on_c, 2, 55, 115
7, 101160, Note_on_c, 2, 55, 0
7, 101160, Note_on_c, 2, 56, 115
7, 101280, Note_on_c, 2, 56, 0
7, 101280, Note_on_c, 2, 58, 115
7, 101400, Note_on_c, 2, 58, 0
7, 101400, Note_on_c, 2, 60, 115
7, 101520, Note_on_c, 2, 60, 0
7, 101520, Note_on_c, 2, 61, 123
7, 101640, Note_on_c, 2, 61, 0
7, 101640, Note_on_c, 2, 60, 123
7, 101760, Note_on_c, 2, 60, 0
7, 101760, Note_on_c, 2, 58, 123
7, 101880, Note_on_c, 2, 58, 0
7, 101880, Note_on_c, 2, 56, 123
7, 102000, Note_on_c, 2, 56, 0
7, 102000, Note_on_c, 2, 55, 123
7, 102120, Note_on_c, 2, 55, 0
7, 102120, Note_on_c, 2, 56, 123
7, 102240, Note_on_c, 2, 56, 0
7, 102240, Note_on_c, 2, 58, 115
7, 102360, Note_on_c, 2, 58, 0
7, 102360, Note_on_c, 2, 60, 115
7, 102480, Note_on_c, 2, 60, 0
7, 102480, Note_on_c, 2, 61, 115
7, 102600, Note_on_c, 2, 61, 0
7, 102600, Note_on_c, 2, 55, 115
7, 102720, Note_on_c, 2, 55, 0
7, 102720, Note_on_c, 2, 56, 115
7, 102840, Note_on_c, 2, 56, 0
7, 102840, Note_on_c, 2, 58, 115
7, 102960, Note_on_c, 2, 58, 0
7, 102960, Note_on_c, 2, 60, 115
7, 103080, Note_on_c, 2, 60, 0
7, 103080, Note_on_c, 2, 53, 115
7, 103200, Note_on_c, 2, 53, 0
7, 103200, Note_on_c, 2, 55, 115
7, 103320, Note_on_c, 2, 55, 0
7, 103320, Note_on_c, 2, 56, 115
7, 103440, Note_on_c, 2, 56, 0
7, 103440, Note_on_c, 2, 58, 115
7, 103560, Note_on_c, 2, 58, 0
7, 104040, Note_on_c, 2, 53, 115
7, 104160, Note_on_c, 2, 53, 0
7, 104160, Note_on_c, 2, 55, 115
7, 104280, Note_on_c, 2, 55, 0
7, 104280, Note_on_c, 2, 56, 115
7, 104400, Note_on_c, 2, 56, 0
7, 104400, Note_on_c, 2, 58, 115
7, 104520, Note_on_c, 2, 58, 0
7, 104520, Note_on_c, 2, 58, 115
7, 104640, Note_on_c, 2, 58, 0
7, 104640, Note_on_c, 2, 58, 115
7, 104760, Note_on_c, 2, 58, 0
7, 104760, Note_on_c, 2, 58, 115
7, 104880, Note_on_c, 2, 58, 0
7, 104880, Note_on_c, 2, 58, 115
7, 105000, Note_on_c, 2, 58, 0
7, 105000, Note_on_c, 2, 58, 115
7, 105120, Note_on_c, 2, 58, 0
7, 105120, Note_on_c, 2, 59, 115
7, 105240, Note_on_c, 2, 59, 0
7, 105240, Note_on_c, 2, 59, 115
7, 105360, Note_on_c, 2, 59, 0
7, 105360, Note_on_c, 2, 59, 115
7, 105480, Note_on_c, 2, 59, 0
7, 105480, Note_on_c, 2, 59, 115
7, 105600, Note_on_c, 2, 59, 0
7, 106560, Note_on_c, 2, 48, 123
7, 106800, Note_on_c, 2, 48, 0
7, 106800, Note_on_c, 2, 48, 123
7, 107040, Note_on_c, 2, 48, 0
7, 107040, Note_on_c, 2, 47, 123
7, 107280, Note_on_c, 2, 47, 0
7, 107280, Note_on_c, 2, 48, 123
7, 108480, Note_on_c, 2, 48, 0
7, 108480, Note_on_c, 2, 48, 123
7, 108660, Note_on_c, 2, 48, 0
7, 108660, Note_on_c, 2, 47, 123
7, 108720, Note_on_c, 2, 47, 0
7, 108720, Note_on_c, 2, 48, 123
7, 108960, Note_on_c, 2, 48, 0
7, 108960, Note_on_c, 2, 48, 123
7, 109200, Note_on_c, 2, 48, 0
7, 109200, Note_on_c, 2, 50, 123
7, 109440, Note_on_c, 2, 50, 0
7, 109440, Note_on_c, 2, 52, 123
7, 110640, Note_on_c, 2, 52, 0
7, 110640, Note_on_c, 2, 48, 123
7, 110820, Note_on_c, 2, 48, 0
7, 110820, Note_on_c, 2, 50, 123
7, 110880, Note_on_c, 2, 50, 0
7, 110880, Note_on_c, 2, 52, 123
7, 111360, Note_on_c, 2, 52, 0
7, 111360, Note_on_c, 2, 48, 123
7, 111540, Note_on_c, 2, 48, 0
7, 111540, Note_on_c, 2, 50, 123
7, 111600, Note_on_c, 2, 50, 0
7, 111600, Note_on_c, 2, 52, 123
7, 112080, Note_on_c, 2, 52, 0
7, 112080, Note_on_c, 2, 48, 123
7, 112260, Note_on_c, 2, 48, 0
7, 112260, Note_on_c, 2, 50, 123
7, 112320, Note_on_c, 2, 50, 0
7, 112320, Note_on_c, 2, 52, 123
7, 112560, Note_on_c, 2, 52, 0
7, 120000, Note_on_c, 2, 51, 91
7, 120120, Note_on_c, 2, 51, 0
7, 120180, Note_on_c, 2, 56, 91
7, 120240, Note_on_c, 2, 56, 0
7, 120240, Note_on_c, 2, 59, 91
7, 120480, Note_on_c, 2, 59, 0
7, 120480, Note_on_c, 2, 59, 91
7, 120600, Note_on_c, 2, 59, 0
7, 120660, Note_on_c, 2, 58, 91
7, 120720, Note_on_c, 2, 58, 0
7, 120720, Note_on_c, 2, 56, 91
7, 120840, Note_on_c, 2, 56, 0
7, 120900, Note_on_c, 2, 59, 91
7, 120960, Note_on_c, 2, 59, 0
7, 120960, Note_on_c, 2, 55, 91
7, 121440, Note_on_c, 2, 55, 0
7, 121440, Note_on_c, 2, 56, 91
7, 121560, Note_on_c, 2, 56, 0
7, 121620, Note_on_c, 2, 58, 91
7, 121680, Note_on_c, 2, 58, 0
7, 121680, Note_on_c, 2, 59, 91
7, 121920, Note_on_c, 2, 59, 0
7, 121920, Note_on_c, 2, 59, 91
7, 122040, Note_on_c, 2, 59, 0
7, 122100, Note_on_c, 2, 58, 91
7, 122160, Note_on_c, 2, 58, 0
7, 122160, Note_on_c, 2, 56, 91
7, 122280, Note_on_c, 2, 56, 0
7, 122340, Note_on_c, 2, 59, 91
7, 122400, Note_on_c, 2, 59, 0
7, 122400, Note_on_c, 2, 61, 91
7, 122880, Note_on_c, 2, 61, 0
7, 122880, Note_on_c, 2, 59, 91
7, 123000, Note_on_c, 2, 59, 0
7, 123060, Note_on_c, 2, 61, 91
7, 123120, Note_on_c, 2, 61, 0
7, 123120, Note_on_c, 2, 63, 91
7, 123360, Note_on_c, 2, 63, 0
7, 123360, Note_on_c, 2, 63, 91
7, 123480, Note_on_c, 2, 63, 0
7, 123540, Note_on_c, 2, 61, 91
7, 123600, Note_on_c, 2, 61, 0
7, 123600, Note_on_c, 2, 59, 91
7, 123720, Note_on_c, 2, 59, 0
7, 123780, Note_on_c, 2, 63, 91
7, 123840, Note_on_c, 2, 63, 0
7, 123840, Note_on_c, 2, 61, 91
7, 124320, Note_on_c, 2, 61, 0
7, 124320, Note_on_c, 2, 63, 91
7, 124440, Note_on_c, 2, 63, 0
7, 124500, Note_on_c, 2, 61, 91
7, 124560, Note_on_c, 2, 61, 0
7, 124560, Note_on_c, 2, 59, 91
7, 124800, Note_on_c, 2, 59, 0
7, 124800, Note_on_c, 2, 59, 91
7, 124920, Note_on_c, 2, 59, 0
7, 124980, Note_on_c, 2, 58, 91
7, 125040, Note_on_c, 2, 58, 0
7, 125040, Note_on_c, 2, 56, 91
7, 125160, Note_on_c, 2, 56, 0
7, 125220, Note_on_c, 2, 59, 91
7, 125280, Note_on_c, 2, 59, 0
7, 125880, Note_on_c, 2, 56, 91
7, 126000, Note_on_c, 2, 56, 0
7, 126000, Note_on_c, 2, 55, 91
7, 126360, Note_on_c, 2, 55, 0
7, 126360, Note_on_c, 2, 56, 91
7, 126480, Note_on_c, 2, 56, 0
7, 126480, Note_on_c, 2, 51, 91
7, 126600, Note_on_c, 2, 51, 0
7, 126600, Note_on_c, 2, 56, 91
7, 126720, Note_on_c, 2, 56, 0
7, 126720, Note_on_c, 2, 55, 115
7, 126840, Note_on_c, 2, 55, 0
7, 126840, Note_on_c, 2, 55, 115
7, 126960, Note_on_c, 2, 55, 0
7, 127920, Note_on_c, 2, 57, 91
7, 128040, Note_on_c, 2, 57, 0
7, 128040, Note_on_c, 2, 58, 91
7, 128160, Note_on_c, 2, 58, 0
7, 128160, Note_on_c, 2, 60, 91
7, 128280, Note_on_c, 2, 60, 0
7, 128280, Note_on_c, 2, 61, 91
7, 128400, Note_on_c, 2, 61, 0
7, 128400, Note_on_c, 2, 63, 91
7, 128520, Note_on_c, 2, 63, 0
7, 128520, Note_on_c, 2, 65, 91
7, 128640, Note_on_c, 2, 65, 0
7, 128640, Note_on_c, 2, 57, 91
7, 128760, Note_on_c, 2, 57, 0
7, 128760, Note_on_c, 2, 58, 91
7, 128880, Note_on_c, 2, 58, 0
7, 128880, Note_on_c, 2, 60, 91
7, 129000, Note_on_c, 2, 60, 0
7, 129000, Note_on_c, 2, 61, 91
7, 129120, Note_on_c, 2, 61, 0
7, 132720, Note_on_c, 2, 46, 91
7, 132780, Note_on_c, 2, 46, 0
7, 132780, Note_on_c, 2, 48, 91
7, 132840, Note_on_c, 2, 48, 0
7, 132840, Note_on_c, 2, 49, 101
7, 132900, Note_on_c, 2, 49, 0
7, 132900, Note_on_c, 2, 51, 101
7, 132960, Note_on_c, 2, 51, 0
7, 132960, Note_on_c, 2, 53, 109
7, 133020, Note_on_c, 2, 53, 0
7, 133020, Note_on_c, 2, 55, 109
7, 133080, Note_on_c, 2, 55, 0
7, 133080, Note_on_c, 2, 56, 115
7, 133140, Note_on_c, 2, 56, 0
7, 133140, Note_on_c, 2, 58, 115
7, 133200, Note_on_c, 2, 58, 0
7, 133200, Note_on_c, 2, 60, 123
7, 134100, Note_on_c, 2, 60, 0
7, 134100, Note_on_c, 2, 58, 123
7, 134160, Note_on_c, 2, 58, 0
7, 134160, Note_on_c, 2, 56, 123
7, 134340, Note_on_c, 2, 56, 0
7, 134340, Note_on_c, 2, 60, 123
7, 134400, Note_on_c, 2, 60, 0
7, 134400, Note_on_c, 2, 53, 123
7, 134880, Note_on_c, 2, 53, 0
7, 134880, Note_on_c, 2, 61, 123
7, 135060, Note_on_c, 2, 61, 0
7, 135060, Note_on_c, 2, 60, 123
7, 135120, Note_on_c, 2, 60, 0
7, 135120, Note_on_c, 2, 58, 123
7, 135300, Note_on_c, 2, 58, 0
7, 135300, Note_on_c, 2, 61, 123
7, 135360, Note_on_c, 2, 61, 0
7, 135360, Note_on_c, 2, 55, 123
7, 135540, Note_on_c, 2, 55, 0
7, 135540, Note_on_c, 2, 58, 123
7, 135600, Note_on_c, 2, 58, 0
7, 135600, Note_on_c, 2, 52, 123
7, 135780, Note_on_c, 2, 52, 0
7, 135780, Note_on_c, 2, 55, 123
7, 135840, Note_on_c, 2, 55, 0
7, 135840, Note_on_c, 2, 60, 123
7, 136320, Note_on_c, 2, 60, 0
7, 136320, Note_on_c, 2, 61, 123
7, 136500, Note_on_c, 2, 61, 0
7, 136500, Note_on_c, 2, 58, 123
7, 136560, Note_on_c, 2, 58, 0
7, 136560, Note_on_c, 2, 65, 123
7, 136800, Note_on_c, 2, 65, 0
7, 136800, Note_on_c, 2, 58, 123
7, 137040, Note_on_c, 2, 58, 0
7, 137040, Note_on_c, 2, 60, 123
7, 137220, Note_on_c, 2, 60, 0
7, 137220, Note_on_c, 2, 56, 123
7, 137280, Note_on_c, 2, 56, 0
7, 137280, Note_on_c, 2, 63, 123
7, 137520, Note_on_c, 2, 63, 0
7, 137520, Note_on_c, 2, 58, 123
7, 137760, Note_on_c, 2, 58, 0
7, 138240, Note_on_c, 2, 60, 123
7, 138480, Note_on_c, 2, 60, 0
7, 138960, Note_on_c, 2, 51, 123
7, 139020, Note_on_c, 2, 51, 0
7, 139020, Note_on_c, 2, 50, 123
7, 139080, Note_on_c, 2, 50, 0
7, 139080, Note_on_c, 2, 51, 123
7, 139140, Note_on_c, 2, 51, 0
7, 139140, Note_on_c, 2, 53, 123
7, 139200, Note_on_c, 2, 53, 0
7, 139200, Note_on_c, 2, 55, 123
7, 139260, Note_on_c, 2, 55, 0
7, 139260, Note_on_c, 2, 56, 123
7, 139320, Note_on_c, 2, 56, 0
7, 139320, Note_on_c, 2, 46, 123
7, 139380, Note_on_c, 2, 46, 0
7, 139380, Note_on_c, 2, 48, 123
7, 139440, Note_on_c, 2, 48, 0
7, 139440, Note_on_c, 2, 49, 123
7, 139500, Note_on_c, 2, 49, 0
7, 139500, Note_on_c, 2, 51, 123
7, 139560, Note_on_c, 2, 51, 0
7, 139560, Note_on_c, 2, 53, 123
7, 139620, Note_on_c, 2, 53, 0
7, 139620, Note_on_c, 2, 55, 123
7, 139680, Note_on_c, 2, 55, 0
7, 139680, Note_on_c, 2, 56, 123
7, 139920, Note_on_c, 2, 56, 0
7, 140160, Note_on_c, 2, 44, 123
7, 140340, Note_on_c, 2, 44, 0
7, 140340, Note_on_c, 2, 48, 123
7, 140400, Note_on_c, 2, 48, 0
7, 140400, Note_on_c, 2, 51, 123
7, 140640, Note_on_c, 2, 51, 0
7, 141120, Note_on_c, 2, 56, 91
7, 141840, Note_on_c, 2, 56, 0
7, 141840, Note_on_c, 2, 51, 91
7, 142560, Note_on_c, 2, 51, 0
7, 142560, Note_on_c, 2, 58, 91
7, 142800, Note_on_c, 2, 58, 0
7, 142800, Note_on_c, 2, 58, 91
7, 143040, Note_on_c, 2, 58, 0
7, 143040, Note_on_c, 2, 58, 91
7, 143220, Note_on_c, 2, 58, 0
7, 143220, Note_on_c, 2, 55, 91
7, 143280, Note_on_c, 2, 55, 0
7, 143280, Note_on_c, 2, 56, 91
7, 143520, Note_on_c, 2, 56, 0
7, 146640, Note_on_c, 2, 61, 91
7, 146720, Note_on_c, 2, 61, 0
7, 146720, Note_on_c, 2, 60, 91
7, 146800, Note_on_c, 2, 60, 0
7, 146800, Note_on_c, 2, 61, 91
7, 146880, Note_on_c, 2, 61, 0
7, 146880, Note_on_c, 2, 60, 91
7, 147120, Note_on_c, 2, 60, 0
7, 154560, Note_on_c, 2, 55, 115
7, 154800, Note_on_c, 2, 55, 0
7, 154800, Note_on_c, 2, 56, 115
7, 155040, Note_on_c, 2, 56, 0
7, 156000, Note_on_c, 2, 58, 115
7, 156240, Note_on_c, 2, 58, 0
7, 156240, Note_on_c, 2, 60, 115
7, 156480, Note_on_c, 2, 60, 0
7, 156880, Note_on_c, 2, 48, 115
7, 156960, Note_on_c, 2, 48, 0
7, 156960, Note_on_c, 2, 51, 123
7, 157040, Note_on_c, 2, 51, 0
7, 157040, Note_on_c, 2, 56, 123
7, 157120, Note_on_c, 2, 56, 0
7, 157120, Note_on_c, 2, 60, 123
7, 157200, Note_on_c, 2, 60, 0
7, 157200, Note_on_c, 2, 63, 123
7, 157440, Note_on_c, 2, 63, 0
7, 157440, Note_on_c, 2, 55, 109
7, 158400, Note_on_c, 2, 55, 0
7, 158400, Note_on_c, 2, 56, 91
7, 159120, Note_on_c, 2, 56, 0
7, 159120, Note_on_c, 2, 51, 91
7, 159840, Note_on_c, 2, 51, 0
7, 159840, Note_on_c, 2, 58, 91
7, 160080, Note_on_c, 2, 58, 0
7, 160080, Note_on_c, 2, 58, 91
7, 160320, Note_on_c, 2, 58, 0
7, 160320, Note_on_c, 2, 58, 91
7, 160500, Note_on_c, 2, 58, 0
7, 160500, Note_on_c, 2, 55, 91
7, 160560, Note_on_c, 2, 55, 0
7, 160560, Note_on_c, 2, 56, 91
7, 160800, Note_on_c, 2, 56, 0
7, 162600, Note_on_c, 2, 63, 115
7, 162720, Note_on_c, 2, 63, 0
7, 162720, Note_on_c, 2, 55, 115
7, 162960, Note_on_c, 2, 55, 0
7, 162960, Note_on_c, 2, 56, 115
7, 163320, Note_on_c, 2, 56, 0
7, 165360, Note_on_c, 2, 51, 91
7, 165480, Note_on_c, 2, 51, 0
7, 165480, Note_on_c, 2, 56, 91
7, 165600, Note_on_c, 2, 56, 0
7, 165600, Note_on_c, 2, 56, 91
7, 165840, Note_on_c, 2, 56, 0
7, 165840, Note_on_c, 2, 56, 91
7, 165960, Note_on_c, 2, 56, 0
7, 165960, Note_on_c, 2, 51, 91
7, 166080, Note_on_c, 2, 51, 0
7, 166080, Note_on_c, 2, 48, 91
7, 166260, Note_on_c, 2, 48, 0
7, 166260, Note_on_c, 2, 56, 91
7, 166320, Note_on_c, 2, 56, 0
7, 166320, Note_on_c, 2, 60, 91
7, 166800, Note_on_c, 2, 60, 0
7, 166800, Note_on_c, 2, 48, 91
7, 166920, Note_on_c, 2, 48, 0
7, 166920, Note_on_c, 2, 56, 91
7, 167040, Note_on_c, 2, 56, 0
7, 167040, Note_on_c, 2, 60, 91
7, 167280, Note_on_c, 2, 60, 0
7, 167280, Note_on_c, 2, 60, 91
7, 167400, Note_on_c, 2, 60, 0
7, 167400, Note_on_c, 2, 58, 91
7, 167520, Note_on_c, 2, 58, 0
7, 167520, Note_on_c, 2, 56, 91
7, 167700, Note_on_c, 2, 56, 0
7, 167700, Note_on_c, 2, 60, 91
7, 167760, Note_on_c, 2, 60, 0
7, 167760, Note_on_c, 2, 60, 91
7, 170640, Note_on_c, 2, 60, 0
7, 170640, Note_on_c, 2, 60, 101
7, 170880, Note_on_c, 2, 60, 0
7, 170880, Note_on_c, 2, 60, 101
7, 171120, Note_on_c, 2, 60, 0
7, 171120, Note_on_c, 2, 60, 101
7, 171360, Note_on_c, 2, 60, 0
7, 171360, Note_on_c, 2, 60, 109
7, 171600, Note_on_c, 2, 60, 0
7, 171600, Note_on_c, 2, 60, 109
7, 171840, Note_on_c, 2, 60, 0
7, 171840, Note_on_c, 2, 60, 109
7, 172080, Note_on_c, 2, 60, 0
7, 172080, Note_on_c, 2, 60, 115
7, 172160, Note_on_c, 2, 60, 0
7, 172160, Note_on_c, 2, 60, 115
7, 172240, Note_on_c, 2, 60, 0
7, 172240, Note_on_c, 2, 60, 115
7, 172320, Note_on_c, 2, 60, 0
7, 172320, Note_on_c, 2, 60, 115
7, 172400, Note_on_c, 2, 60, 0
7, 172400, Note_on_c, 2, 60, 115
7, 172480, Note_on_c, 2, 60, 0
7, 172480, Note_on_c, 2, 60, 115
7, 172560, Note_on_c, 2, 60, 0
7, 172560, Note_on_c, 2, 60, 115
7, 172640, Note_on_c, 2, 60, 0
7, 172640, Note_on_c, 2, 60, 115
7, 172720, Note_on_c, 2, 60, 0
7, 172720, Note_on_c, 2, 60, 115
7, 172800, Note_on_c, 2, 60, 0
7, 172800, Note_on_c, 2, 60, 115
7, 172880, Note_on_c, 2, 60, 0
7, 172880, Note_on_c, 2, 60, 115
7, 172960, Note_on_c, 2, 60, 0
7, 172960, Note_on_c, 2, 60, 115
7, 173040, Note_on_c, 2, 60, 0
7, 173040, Note_on_c, 2, 60, 115
7, 173120, Note_on_c, 2, 60, 0
7, 173120, Note_on_c, 2, 60, 115
7, 173200, Note_on_c, 2, 60, 0
7, 173200, Note_on_c, 2, 60, 115
7, 173280, Note_on_c, 2, 60, 0
7, 173280, Note_on_c, 2, 60, 115
7, 173360, Note_on_c, 2, 60, 0
7, 173360, Note_on_c, 2, 60, 115
7, 173440, Note_on_c, 2, 60, 0
7, 173440, Note_on_c, 2, 60, 115
7, 173520, Note_on_c, 2, 60, 0
7, 173520, Note_on_c, 2, 60, 115
7, 173600, Note_on_c, 2, 60, 0
7, 173600, Note_on_c, 2, 60, 115
7, 173680, Note_on_c, 2, 60, 0
7, 173680, Note_on_c, 2, 60, 115
7, 173760, Note_on_c, 2, 60, 0
7, 173760, Note_on_c, 2, 60, 115
7, 173840, Note_on_c, 2, 60, 0
7, 173840, Note_on_c, 2, 60, 115
7, 173920, Note_on_c, 2, 60, 0
7, 173920, Note_on_c, 2, 60, 115
7, 174000, Note_on_c, 2, 60, 0
7, 174000, Note_on_c, 2, 56, 115
7, 174080, Note_on_c, 2, 56, 0
7, 174080, Note_on_c, 2, 60, 115
7, 174160, Note_on_c, 2, 60, 0
7, 174160, Note_on_c, 2, 63, 115
7, 174240, Note_on_c, 2, 63, 0
7, 174240, Note_on_c, 2, 56, 123
7, 174480, Note_on_c, 2, 56, 0
7, 174720, Note_on_c, 2, 56, 123
7, 174900, Note_on_c, 2, 56, 0
7, 174900, Note_on_c, 2, 60, 123
7, 174960, Note_on_c, 2, 60, 0
7, 174960, Note_on_c, 2, 63, 123
7, 175680, Note_on_c, 2, 63, 0
7, 175680, Note_on_c, 2, 60, 123
7, 175920, Note_on_c, 2, 60, 0
7, 176160, Note_on_c, 2, 55, 91
7, 176400, Note_on_c, 2, 55, 0
7, 176400, Note_on_c, 2, 56, 91
7, 176640, Note_on_c, 2, 56, 0
7, 176880, Note_on_c, 2, 56, 115
7, 177060, Note_on_c, 2, 56, 0
7, 177060, Note_on_c, 2, 60, 115
7, 177120, Note_on_c, 2, 60, 0
7, 177120, Note_on_c, 2, 63, 123
7, 177840, Note_on_c, 2, 63, 0
7, 177840, Note_on_c, 2, 56, 123
7, 178080, Note_on_c, 2, 56, 0
7, 178080, End_track
8, 0, Start_track
8, 0, MIDI_port, 0
8, 0, Title_t, "Bassoon 1"
8, 0, Program_c, 3, 70
8, 6240, Note_on_c, 3, 56, 91
8, 6420, Note_on_c, 3, 56, 0
8, 6420, Note_on_c, 3, 60, 91
8, 6480, Note_on_c, 3, 60, 0
8, 6480, Note_on_c, 3, 63, 115
8, 7200, Note_on_c, 3, 63, 0
8, 7200, Note_on_c, 3, 60, 91
8, 7440, Note_on_c, 3, 60, 0
8, 7680, Note_on_c, 3, 68, 91
8, 7860, Note_on_c, 3, 68, 0
8, 7860, Note_on_c, 3, 67, 91
8, 7920, Note_on_c, 3, 67, 0
8, 7920, Note_on_c, 3, 67, 115
8, 8640, Note_on_c, 3, 67, 0
8, 8640, Note_on_c, 3, 65, 91
8, 9360, Note_on_c, 3, 65, 0
8, 9360, Note_on_c, 3, 60, 91
8, 10080, Note_on_c, 3, 60, 0
8, 10080, Note_on_c, 3, 63, 91
8, 10320, Note_on_c, 3, 63, 0
8, 10320, Note_on_c, 3, 63, 91
8, 10560, Note_on_c, 3, 63, 0
8, 10560, Note_on_c, 3, 63, 91
8, 10800, Note_on_c, 3, 63, 0
8, 10800, Note_on_c, 3, 63, 91
8, 11040, Note_on_c, 3, 63, 0
8, 11520, Note_on_c, 3, 56, 91
8, 12240, Note_on_c, 3, 56, 0
8, 12240, Note_on_c, 3, 56, 91
8, 12960, Note_on_c, 3, 56, 0
8, 12960, Note_on_c, 3, 58, 115
8, 13200, Note_on_c, 3, 58, 0
8, 13200, Note_on_c, 3, 58, 115
8, 13440, Note_on_c, 3, 58, 0
8, 13440, Note_on_c, 3, 58, 115
8, 13620, Note_on_c, 3, 58, 0
8, 13620, Note_on_c, 3, 55, 115
8, 13680, Note_on_c, 3, 55, 0
8, 13680, Note_on_c, 3, 56, 91
8, 13920, Note_on_c, 3, 56, 0
8, 14160, Note_on_c, 3, 63, 91
8, 14640, Note_on_c, 3, 63, 0
8, 14880, Note_on_c, 3, 63, 115
8, 15360, Note_on_c, 3, 63, 0
8, 15480, Note_on_c, 3, 60, 91
8, 15600, Note_on_c, 3, 60, 0
8, 15720, Note_on_c, 3, 60, 91
8, 15840, Note_on_c, 3, 60, 0
8, 15840, Note_on_c, 3, 56, 91
8, 16080, Note_on_c, 3, 56, 0
8, 16320, Note_on_c, 3, 51, 91
8, 16500, Note_on_c, 3, 51, 0
8, 16500, Note_on_c, 3, 55, 91
8, 16560, Note_on_c, 3, 55, 0
8, 16560, Note_on_c, 3, 56, 91
8, 16800, Note_on_c, 3, 56, 0
8, 16800, Note_on_c, 3, 56, 91
8, 17040, Note_on_c, 3, 56, 0
8, 17040, Note_on_c, 3, 58, 91
8, 17280, Note_on_c, 3, 58, 0
8, 17280, Note_on_c, 3, 60, 91
8, 17760, Note_on_c, 3, 60, 0
8, 17760, Note_on_c, 3, 56, 91
8, 17940, Note_on_c, 3, 56, 0
8, 17940, Note_on_c, 3, 58, 91
8, 18000, Note_on_c, 3, 58, 0
8, 18000, Note_on_c, 3, 60, 91
8, 18240, Note_on_c, 3, 60, 0
8, 18240, Note_on_c, 3, 60, 91
8, 18480, Note_on_c, 3, 60, 0
8, 18480, Note_on_c, 3, 61, 91
8, 18720, Note_on_c, 3, 61, 0
8, 18720, Note_on_c, 3, 63, 91
8, 19200, Note_on_c, 3, 63, 0
8, 20640, Note_on_c, 3, 63, 78
8, 20820, Note_on_c, 3, 63, 0
8, 20820, Note_on_c, 3, 65, 78
8, 20880, Note_on_c, 3, 65, 0
8, 20880, Note_on_c, 3, 66, 123
8, 21600, Note_on_c, 3, 66, 0
8, 21600, Note_on_c, 3, 67, 123
8, 21780, Note_on_c, 3, 67, 0
8, 21780, Note_on_c, 3, 64, 123
8, 21840, Note_on_c, 3, 64, 0
8, 21840, Note_on_c, 3, 60, 123
8, 22080, Note_on_c, 3, 60, 0
8, 22080, Note_on_c, 3, 62, 123
8, 22320, Note_on_c, 3, 62, 0
8, 22320, Note_on_c, 3, 60, 123
8, 22560, Note_on_c, 3, 60, 0
8, 28080, Note_on_c, 3, 55, 78
8, 29760, Note_on_c, 3, 55, 0
8, 29760, Note_on_c, 3, 58, 78
8, 30240, Note_on_c, 3, 58, 0
8, 30240, Note_on_c, 3, 59, 78
8, 31680, Note_on_c, 3, 59, 0
8, 31680, Note_on_c, 3, 59, 78
8, 32400, Note_on_c, 3, 59, 0
8, 32400, Note_on_c, 3, 64, 91
8, 33120, Note_on_c, 3, 64, 0
8, 33120, Note_on_c, 3, 63, 101
8, 33840, Note_on_c, 3, 63, 0
8, 33840, Note_on_c, 3, 61, 109
8, 34560, Note_on_c, 3, 61, 0
8, 34560, Note_on_c, 3, 58, 115
8, 34800, Note_on_c, 3, 58, 0
8, 35040, Note_on_c, 3, 63, 115
8, 35280, Note_on_c, 3, 63, 0
8, 40320, Note_on_c, 3, 58, 115
8, 40560, Note_on_c, 3, 58, 0
8, 40560, Note_on_c, 3, 58, 115
8, 40800, Note_on_c, 3, 58, 0
8, 40800, Note_on_c, 3, 58, 115
8, 41040, Note_on_c, 3, 58, 0
8, 41040, Note_on_c, 3, 60, 91
8, 41160, Note_on_c, 3, 60, 0
8, 41160, Note_on_c, 3, 55, 91
8, 41280, Note_on_c, 3, 55, 0
8, 41280, Note_on_c, 3, 58, 91
8, 41340, Note_on_c, 3, 58, 0
8, 41340, Note_on_c, 3, 56, 91
8, 41400, Note_on_c, 3, 56, 0
8, 41400, Note_on_c, 3, 55, 91
8, 41520, Note_on_c, 3, 55, 0
8, 41520, Note_on_c, 3, 56, 91
8, 41640, Note_on_c, 3, 56, 0
8, 41640, Note_on_c, 3, 60, 91
8, 41760, Note_on_c, 3, 60, 0
8, 41760, Note_on_c, 3, 62, 91
8, 41880, Note_on_c, 3, 62, 0
8, 41880, Note_on_c, 3, 63, 91
8, 42000, Note_on_c, 3, 63, 0
8, 42000, Note_on_c, 3, 65, 91
8, 42120, Note_on_c, 3, 65, 0
8, 42120, Note_on_c, 3, 63, 91
8, 42240, Note_on_c, 3, 63, 0
8, 42240, Note_on_c, 3, 62, 91
8, 42360, Note_on_c, 3, 62, 0
8, 42360, Note_on_c, 3, 63, 91
8, 42480, Note_on_c, 3, 63, 0
8, 42480, Note_on_c, 3, 60, 91
8, 42720, Note_on_c, 3, 60, 0
8, 42840, Note_on_c, 3, 68, 91
8, 42960, Note_on_c, 3, 68, 0
8, 42960, Note_on_c, 3, 68, 101
8, 43080, Note_on_c, 3, 68, 0
8, 43080, Note_on_c, 3, 68, 109
8, 43200, Note_on_c, 3, 68, 0
8, 43200, Note_on_c, 3, 67, 109
8, 43920, Note_on_c, 3, 67, 0
8, 43920, Note_on_c, 3, 65, 91
8, 44640, Note_on_c, 3, 65, 0
8, 44640, Note_on_c, 3, 60, 91
8, 45360, Note_on_c, 3, 60, 0
8, 45360, Note_on_c, 3, 63, 91
8, 45600, Note_on_c, 3, 63, 0
8, 45600, Note_on_c, 3, 63, 91
8, 45840, Note_on_c, 3, 63, 0
8, 45840, Note_on_c, 3, 63, 91
8, 46080, Note_on_c, 3, 63, 0
8, 46080, Note_on_c, 3, 63, 91
8, 46320, Note_on_c, 3, 63, 0
8, 46800, Note_on_c, 3, 63, 91
8, 47520, Note_on_c, 3, 63, 0
8, 47520, Note_on_c, 3, 63, 101
8, 48240, Note_on_c, 3, 63, 0
8, 48240, Note_on_c, 3, 65, 115
8, 48480, Note_on_c, 3, 65, 0
8, 48480, Note_on_c, 3, 65, 115
8, 48720, Note_on_c, 3, 65, 0
8, 48720, Note_on_c, 3, 65, 115
8, 48900, Note_on_c, 3, 65, 0
8, 48900, Note_on_c, 3, 61, 115
8, 48960, Note_on_c, 3, 61, 0
8, 48960, Note_on_c, 3, 63, 91
8, 49200, Note_on_c, 3, 63, 0
8, 49440, Note_on_c, 3, 63, 101
8, 49920, Note_on_c, 3, 63, 0
8, 50160, Note_on_c, 3, 63, 115
8, 50520, Note_on_c, 3, 63, 0
8, 50640, Note_on_c, 3, 60, 91
8, 50760, Note_on_c, 3, 60, 0
8, 50880, Note_on_c, 3, 60, 91
8, 51000, Note_on_c, 3, 60, 0
8, 51120, Note_on_c, 3, 56, 91
8, 51360, Note_on_c, 3, 56, 0
8, 51600, Note_on_c, 3, 51, 91
8, 51780, Note_on_c, 3, 51, 0
8, 51780, Note_on_c, 3, 55, 91
8, 51840, Note_on_c, 3, 55, 0
8, 51840, Note_on_c, 3, 56, 91
8, 52080, Note_on_c, 3, 56, 0
8, 52080, Note_on_c, 3, 56, 91
8, 52320, Note_on_c, 3, 56, 0
8, 52320, Note_on_c, 3, 58, 91
8, 52560, Note_on_c, 3, 58, 0
8, 52560, Note_on_c, 3, 60, 91
8, 53040, Note_on_c, 3, 60, 0
8, 53040, Note_on_c, 3, 56, 91
8, 53220, Note_on_c, 3, 56, 0
8, 53220, Note_on_c, 3, 58, 91
8, 53280, Note_on_c, 3, 58, 0
8, 53280, Note_on_c, 3, 60, 91
8, 53520, Note_on_c, 3, 60, 0
8, 53520, Note_on_c, 3, 60, 91
8, 53760, Note_on_c, 3, 60, 0
8, 53760, Note_on_c, 3, 61, 91
8, 54000, Note_on_c, 3, 61, 0
8, 54000, Note_on_c, 3, 63, 91
8, 54480, Note_on_c, 3, 63, 0
8, 55920, Note_on_c, 3, 63, 78
8, 56100, Note_on_c, 3, 63, 0
8, 56100, Note_on_c, 3, 65, 78
8, 56160, Note_on_c, 3, 65, 0
8, 56160, Note_on_c, 3, 66, 123
8, 56880, Note_on_c, 3, 66, 0
8, 56880, Note_on_c, 3, 67, 123
8, 57060, Note_on_c, 3, 67, 0
8, 57060, Note_on_c, 3, 64, 123
8, 57120, Note_on_c, 3, 64, 0
8, 57120, Note_on_c, 3, 60, 123
8, 57360, Note_on_c, 3, 60, 0
8, 57360, Note_on_c, 3, 62, 123
8, 57600, Note_on_c, 3, 62, 0
8, 57600, Note_on_c, 3, 60, 123
8, 57840, Note_on_c, 3, 60, 0
8, 63360, Note_on_c, 3, 55, 78
8, 65040, Note_on_c, 3, 55, 0
8, 65040, Note_on_c, 3, 58, 78
8, 65520, Note_on_c, 3, 58, 0
8, 65520, Note_on_c, 3, 59, 78
8, 66960, Note_on_c, 3, 59, 0
8, 66960, Note_on_c, 3, 59, 78
8, 67680, Note_on_c, 3, 59, 0
8, 67680, Note_on_c, 3, 64, 91
8, 68400, Note_on_c, 3, 64, 0
8, 68400, Note_on_c, 3, 63, 101
8, 69120, Note_on_c, 3, 63, 0
8, 69120, Note_on_c, 3, 61, 109
8, 69840, Note_on_c, 3, 61, 0
8, 69840, Note_on_c, 3, 58, 115
8, 69960, Note_on_c, 3, 58, 0
8, 69960, Note_on_c, 3, 51, 123
8, 70080, Note_on_c, 3, 51, 0
8, 70080, Note_on_c, 3, 63, 123
8, 70200, Note_on_c, 3, 63, 0
8, 70560, Note_on_c, 3, 63, 115
8, 71280, Note_on_c, 3, 63, 0
8, 71280, Note_on_c, 3, 63, 91
8, 73440, Note_on_c, 3, 63, 0
8, 73440, Note_on_c, 3, 64, 91
8, 74160, Note_on_c, 3, 64, 0
8, 74160, Note_on_c, 3, 65, 91
8, 75120, Note_on_c, 3, 65, 0
8, 75120, Note_on_c, 3, 63, 78
8, 76320, Note_on_c, 3, 63, 0
8, 76320, Note_on_c, 3, 60, 78
8, 76560, Note_on_c, 3, 60, 0
8, 77160, Note_on_c, 3, 48, 91
8, 77280, Note_on_c, 3, 48, 0
8, 77280, Note_on_c, 3, 60, 91
8, 77400, Note_on_c, 3, 60, 0
8, 77880, Note_on_c, 3, 53, 91
8, 78000, Note_on_c, 3, 53, 0
8, 78000, Note_on_c, 3, 65, 91
8, 78120, Note_on_c, 3, 65, 0
8, 78600, Note_on_c, 3, 49, 91
8, 78720, Note_on_c, 3, 49, 0
8, 78720, Note_on_c, 3, 61, 91
8, 78840, Note_on_c, 3, 61, 0
8, 79320, Note_on_c, 3, 48, 91
8, 79440, Note_on_c, 3, 48, 0
8, 79440, Note_on_c, 3, 60, 91
8, 79560, Note_on_c, 3, 60, 0
8, 80040, Note_on_c, 3, 53, 91
8, 80160, Note_on_c, 3, 53, 0
8, 80160, Note_on_c, 3, 65, 91
8, 80280, Note_on_c, 3, 65, 0
8, 80760, Note_on_c, 3, 51, 91
8, 80880, Note_on_c, 3, 51, 0
8, 80880, Note_on_c, 3, 63, 91
8, 81000, Note_on_c, 3, 63, 0
8, 81480, Note_on_c, 3, 51, 91
8, 81600, Note_on_c, 3, 51, 0
8, 81600, Note_on_c, 3, 63, 91
8, 81720, Note_on_c, 3, 63, 0
8, 81960, Note_on_c, 3, 63, 91
8, 82080, Note_on_c, 3, 63, 0
8, 82080, Note_on_c, 3, 60, 91
8, 82200, Note_on_c, 3, 60, 0
8, 82200, Note_on_c, 3, 63, 115
8, 82320, Note_on_c, 3, 63, 0
8, 82320, Note_on_c, 3, 63, 115
8, 82440, Note_on_c, 3, 63, 0
8, 82440, Note_on_c, 3, 63, 115
8, 82560, Note_on_c, 3, 63, 0
8, 82560, Note_on_c, 3, 63, 115
8, 82680, Note_on_c, 3, 63, 0
8, 82680, Note_on_c, 3, 63, 115
8, 82800, Note_on_c, 3, 63, 0
8, 82800, Note_on_c, 3, 63, 115
8, 82920, Note_on_c, 3, 63, 0
8, 82920, Note_on_c, 3, 63, 115
8, 83040, Note_on_c, 3, 63, 0
8, 83040, Note_on_c, 3, 63, 115
8, 83160, Note_on_c, 3, 63, 0
8, 83160, Note_on_c, 3, 63, 115
8, 83280, Note_on_c, 3, 63, 0
8, 83280, Note_on_c, 3, 63, 115
8, 83400, Note_on_c, 3, 63, 0
8, 83400, Note_on_c, 3, 63, 115
8, 83520, Note_on_c, 3, 63, 0
8, 83520, Note_on_c, 3, 63, 115
8, 83640, Note_on_c, 3, 63, 0
8, 83640, Note_on_c, 3, 63, 115
8, 83760, Note_on_c, 3, 63, 0
8, 83760, Note_on_c, 3, 61, 115
8, 83880, Note_on_c, 3, 61, 0
8, 83880, Note_on_c, 3, 61, 115
8, 84000, Note_on_c, 3, 61, 0
8, 84000, Note_on_c, 3, 61, 115
8, 84120, Note_on_c, 3, 61, 0
8, 84120, Note_on_c, 3, 61, 115
8, 84240, Note_on_c, 3, 61, 0
8, 84240, Note_on_c, 3, 61, 115
8, 84360, Note_on_c, 3, 61, 0
8, 84360, Note_on_c, 3, 61, 115
8, 84480, Note_on_c, 3, 61, 0
8, 84480, Note_on_c, 3, 61, 115
8, 84600, Note_on_c, 3, 61, 0
8, 84600, Note_on_c, 3, 61, 115
8, 84720, Note_on_c, 3, 61, 0
8, 84720, Note_on_c, 3, 62, 115
8, 84840, Note_on_c, 3, 62, 0
8, 84840, Note_on_c, 3, 62, 115
8, 84960, Note_on_c, 3, 62, 0
8, 84960, Note_on_c, 3, 64, 115
8, 85080, Note_on_c, 3, 64, 0
8, 85080, Note_on_c, 3, 64, 115
8, 85200, Note_on_c, 3, 64, 0
8, 85200, Note_on_c, 3, 64, 115
8, 85320, Note_on_c, 3, 64, 0
8, 85320, Note_on_c, 3, 64, 115
8, 85440, Note_on_c, 3, 64, 0
8, 85440, Note_on_c, 3, 64, 115
8, 85560, Note_on_c, 3, 64, 0
8, 85560, Note_on_c, 3, 64, 115
8, 85680, Note_on_c, 3, 64, 0
8, 85680, Note_on_c, 3, 63, 115
8, 85800, Note_on_c, 3, 63, 0
8, 85800, Note_on_c, 3, 63, 115
8, 85920, Note_on_c, 3, 63, 0
8, 85920, Note_on_c, 3, 61, 115
8, 86040, Note_on_c, 3, 61, 0
8, 86040, Note_on_c, 3, 61, 115
8, 86160, Note_on_c, 3, 61, 0
8, 86160, Note_on_c, 3, 61, 115
8, 86280, Note_on_c, 3, 61, 0
8, 86280, Note_on_c, 3, 61, 115
8, 86400, Note_on_c, 3, 61, 0
8, 86400, Note_on_c, 3, 61, 115
8, 86520, Note_on_c, 3, 61, 0
8, 86520, Note_on_c, 3, 61, 115
8, 86640, Note_on_c, 3, 61, 0
8, 86640, Note_on_c, 3, 60, 115
8, 86760, Note_on_c, 3, 60, 0
8, 86760, Note_on_c, 3, 60, 115
8, 86880, Note_on_c, 3, 60, 0
8, 86880, Note_on_c, 3, 60, 115
8, 87000, Note_on_c, 3, 60, 0
8, 87000, Note_on_c, 3, 60, 115
8, 87120, Note_on_c, 3, 60, 0
8, 87120, Note_on_c, 3, 58, 115
8, 87840, Note_on_c, 3, 58, 0
8, 87840, Note_on_c, 3, 51, 115
8, 88200, Note_on_c, 3, 51, 0
8, 88200, Note_on_c, 3, 53, 115
8, 88260, Note_on_c, 3, 53, 0
8, 88260, Note_on_c, 3, 55, 115
8, 88320, Note_on_c, 3, 55, 0
8, 88320, Note_on_c, 3, 56, 115
8, 88380, Note_on_c, 3, 56, 0
8, 88380, Note_on_c, 3, 58, 115
8, 88440, Note_on_c, 3, 58, 0
8, 88440, Note_on_c, 3, 60, 115
8, 88500, Note_on_c, 3, 60, 0
8, 88500, Note_on_c, 3, 62, 115
8, 88560, Note_on_c, 3, 62, 0
8, 88560, Note_on_c, 3, 63, 115
8, 89040, Note_on_c, 3, 63, 0
8, 93360, Note_on_c, 3, 51, 115
8, 93480, Note_on_c, 3, 51, 0
8, 93480, Note_on_c, 3, 56, 115
8, 93600, Note_on_c, 3, 56, 0
8, 93600, Note_on_c, 3, 60, 115
8, 93840, Note_on_c, 3, 60, 0
8, 93840, Note_on_c, 3, 60, 115
8, 93960, Note_on_c, 3, 60, 0
8, 93960, Note_on_c, 3, 58, 115
8, 94080, Note_on_c, 3, 58, 0
8, 94080, Note_on_c, 3, 56, 115
8, 94200, Note_on_c, 3, 56, 0
8, 94200, Note_on_c, 3, 60, 115
8, 94320, Note_on_c, 3, 60, 0
8, 94320, Note_on_c, 3, 63, 115
8, 94800, Note_on_c, 3, 63, 0
8, 106320, Note_on_c, 3, 52, 123
8, 106500, Note_on_c, 3, 52, 0
8, 106500, Note_on_c, 3, 55, 123
8, 106560, Note_on_c, 3, 55, 0
8, 106560, Note_on_c, 3, 60, 123
8, 106800, Note_on_c, 3, 60, 0
8, 106800, Note_on_c, 3, 60, 123
8, 107040, Note_on_c, 3, 60, 0
8, 107040, Note_on_c, 3, 59, 123
8, 107280, Note_on_c, 3, 59, 0
8, 107280, Note_on_c, 3, 60, 123
8, 108480, Note_on_c, 3, 60, 0
8, 108480, Note_on_c, 3, 60, 123
8, 108660, Note_on_c, 3, 60, 0
8, 108660, Note_on_c, 3, 59, 123
8, 108720, Note_on_c, 3, 59, 0
8, 108720, Note_on_c, 3, 60, 123
8, 108960, Note_on_c, 3, 60, 0
8, 108960, Note_on_c, 3, 52, 123
8, 109200, Note_on_c, 3, 52, 0
8, 109200, Note_on_c, 3, 53, 123
8, 109440, Note_on_c, 3, 53, 0
8, 109440, Note_on_c, 3, 55, 123
8, 110640, Note_on_c, 3, 55, 0
8, 110640, Note_on_c, 3, 52, 123
8, 110820, Note_on_c, 3, 52, 0
8, 110820, Note_on_c, 3, 53, 123
8, 110880, Note_on_c, 3, 53, 0
8, 110880, Note_on_c, 3, 55, 123
8, 111360, Note_on_c, 3, 55, 0
8, 111360, Note_on_c, 3, 52, 123
8, 111540, Note_on_c, 3, 52, 0
8, 111540, Note_on_c, 3, 53, 123
8, 111600, Note_on_c, 3, 53, 0
8, 111600, Note_on_c, 3, 55, 123
8, 112080, Note_on_c, 3, 55, 0
8, 112080, Note_on_c, 3, 52, 123
8, 112260, Note_on_c, 3, 52, 0
8, 112260, Note_on_c, 3, 53, 123
8, 112320, Note_on_c, 3, 53, 0
8, 112320, Note_on_c, 3, 55, 91
8, 114000, Note_on_c, 3, 55, 0
8, 120000, Note_on_c, 3, 51, 91
8, 120120, Note_on_c, 3, 51, 0
8, 120180, Note_on_c, 3, 56, 91
8, 120240, Note_on_c, 3, 56, 0
8, 120240, Note_on_c, 3, 59, 91
8, 120480, Note_on_c, 3, 59, 0
8, 120480, Note_on_c, 3, 59, 91
8, 120600, Note_on_c, 3, 59, 0
8, 120660, Note_on_c, 3, 58, 91
8, 120720, Note_on_c, 3, 58, 0
8, 120720, Note_on_c, 3, 56, 91
8, 120840, Note_on_c, 3, 56, 0
8, 120900, Note_on_c, 3, 59, 91
8, 120960, Note_on_c, 3, 59, 0
8, 120960, Note_on_c, 3, 55, 91
8, 121440, Note_on_c, 3, 55, 0
8, 121440, Note_on_c, 3, 56, 91
8, 121560, Note_on_c, 3, 56, 0
8, 121620, Note_on_c, 3, 58, 91
8, 121680, Note_on_c, 3, 58, 0
8, 121680, Note_on_c, 3, 59, 91
8, 121920, Note_on_c, 3, 59, 0
8, 121920, Note_on_c, 3, 59, 91
8, 122040, Note_on_c, 3, 59, 0
8, 122100, Note_on_c, 3, 58, 91
8, 122160, Note_on_c, 3, 58, 0
8, 122160, Note_on_c, 3, 56, 91
8, 122280, Note_on_c, 3, 56, 0
8, 122340, Note_on_c, 3, 59, 91
8, 122400, Note_on_c, 3, 59, 0
8, 122400, Note_on_c, 3, 61, 91
8, 122880, Note_on_c, 3, 61, 0
8, 122880, Note_on_c, 3, 59, 91
8, 123000, Note_on_c, 3, 59, 0
8, 123060, Note_on_c, 3, 61, 91
8, 123120, Note_on_c, 3, 61, 0
8, 123120, Note_on_c, 3, 63, 91
8, 123360, Note_on_c, 3, 63, 0
8, 123360, Note_on_c, 3, 63, 91
8, 123480, Note_on_c, 3, 63, 0
8, 123540, Note_on_c, 3, 61, 91
8, 123600, Note_on_c, 3, 61, 0
8, 123600, Note_on_c, 3, 59, 91
8, 123720, Note_on_c, 3, 59, 0
8, 123780, Note_on_c, 3, 63, 91
8, 123840, Note_on_c, 3, 63, 0
8, 123840, Note_on_c, 3, 61, 91
8, 124320, Note_on_c, 3, 61, 0
8, 124320, Note_on_c, 3, 63, 91
8, 124440, Note_on_c, 3, 63, 0
8, 124500, Note_on_c, 3, 61, 91
8, 124560, Note_on_c, 3, 61, 0
8, 124560, Note_on_c, 3, 59, 91
8, 124800, Note_on_c, 3, 59, 0
8, 124800, Note_on_c, 3, 59, 91
8, 124920, Note_on_c, 3, 59, 0
8, 124980, Note_on_c, 3, 58, 91
8, 125040, Note_on_c, 3, 58, 0
8, 125040, Note_on_c, 3, 56, 91
8, 125160, Note_on_c, 3, 56, 0
8, 125220, Note_on_c, 3, 59, 91
8, 125280, Note_on_c, 3, 59, 0
8, 125280, Note_on_c, 3, 58, 91
8, 125640, Note_on_c, 3, 58, 0
8, 125640, Note_on_c, 3, 59, 91
8, 125760, Note_on_c, 3, 59, 0
8, 125760, Note_on_c, 3, 56, 91
8, 125880, Note_on_c, 3, 56, 0
8, 125880, Note_on_c, 3, 59, 91
8, 126000, Note_on_c, 3, 59, 0
8, 126000, Note_on_c, 3, 58, 91
8, 126360, Note_on_c, 3, 58, 0
8, 126360, Note_on_c, 3, 59, 91
8, 126480, Note_on_c, 3, 59, 0
8, 126480, Note_on_c, 3, 56, 91
8, 126600, Note_on_c, 3, 56, 0
8, 126600, Note_on_c, 3, 59, 91
8, 126720, Note_on_c, 3, 59, 0
8, 126720, Note_on_c, 3, 58, 115
8, 126840, Note_on_c, 3, 58, 0
8, 126840, Note_on_c, 3, 63, 115
8, 126960, Note_on_c, 3, 63, 0
8, 132720, Note_on_c, 3, 46, 91
8, 132780, Note_on_c, 3, 46, 0
8, 132780, Note_on_c, 3, 48, 91
8, 132840, Note_on_c, 3, 48, 0
8, 132840, Note_on_c, 3, 49, 101
8, 132900, Note_on_c, 3, 49, 0
8, 132900, Note_on_c, 3, 51, 101
8, 132960, Note_on_c, 3, 51, 0
8, 132960, Note_on_c, 3, 53, 109
8, 133020, Note_on_c, 3, 53, 0
8, 133020, Note_on_c, 3, 55, 109
8, 133080, Note_on_c, 3, 55, 0
8, 133080, Note_on_c, 3, 56, 115
8, 133140, Note_on_c, 3, 56, 0
8, 133140, Note_on_c, 3, 58, 115
8, 133200, Note_on_c, 3, 58, 0
8, 133200, Note_on_c, 3, 60, 123
8, 134100, Note_on_c, 3, 60, 0
8, 134100, Note_on_c, 3, 58, 123
8, 134160, Note_on_c, 3, 58, 0
8, 134160, Note_on_c, 3, 56, 123
8, 134340, Note_on_c, 3, 56, 0
8, 134340, Note_on_c, 3, 60, 123
8, 134400, Note_on_c, 3, 60, 0
8, 134400, Note_on_c, 3, 53, 123
8, 134880, Note_on_c, 3, 53, 0
8, 134880, Note_on_c, 3, 61, 123
8, 135060, Note_on_c, 3, 61, 0
8, 135060, Note_on_c, 3, 60, 123
8, 135120, Note_on_c, 3, 60, 0
8, 135120, Note_on_c, 3, 58, 123
8, 135300, Note_on_c, 3, 58, 0
8, 135300, Note_on_c, 3, 61, 123
8, 135360, Note_on_c, 3, 61, 0
8, 135360, Note_on_c, 3, 55, 123
8, 135540, Note_on_c, 3, 55, 0
8, 135540, Note_on_c, 3, 58, 123
8, 135600, Note_on_c, 3, 58, 0
8, 135600, Note_on_c, 3, 52, 123
8, 135780, Note_on_c, 3, 52, 0
8, 135780, Note_on_c, 3, 55, 123
8, 135840, Note_on_c, 3, 55, 0
8, 135840, Note_on_c, 3, 60, 123
8, 136320, Note_on_c, 3, 60, 0
8, 136320, Note_on_c, 3, 61, 123
8, 136500, Note_on_c, 3, 61, 0
8, 136500, Note_on_c, 3, 58, 123
8, 136560, Note_on_c, 3, 58, 0
8, 136560, Note_on_c, 3, 65, 123
8, 136800, Note_on_c, 3, 65, 0
8, 136800, Note_on_c, 3, 58, 123
8, 137040, Note_on_c, 3, 58, 0
8, 137040, Note_on_c, 3, 60, 123
8, 137220, Note_on_c, 3, 60, 0
8, 137220, Note_on_c, 3, 56, 123
8, 137280, Note_on_c, 3, 56, 0
8, 137280, Note_on_c, 3, 63, 123
8, 137520, Note_on_c, 3, 63, 0
8, 137520, Note_on_c, 3, 58, 123
8, 137760, Note_on_c, 3, 58, 0
8, 138240, Note_on_c, 3, 60, 123
8, 138480, Note_on_c, 3, 60, 0
8, 138960, Note_on_c, 3, 51, 123
8, 139020, Note_on_c, 3, 51, 0
8, 139020, Note_on_c, 3, 50, 123
8, 139080, Note_on_c, 3, 50, 0
8, 139080, Note_on_c, 3, 51, 123
8, 139140, Note_on_c, 3, 51, 0
8, 139140, Note_on_c, 3, 53, 123
8, 139200, Note_on_c, 3, 53, 0
8, 139200, Note_on_c, 3, 55, 123
8, 139260, Note_on_c, 3, 55, 0
8, 139260, Note_on_c, 3, 56, 123
8, 139320, Note_on_c, 3, 56, 0
8, 139320, Note_on_c, 3, 58, 123
8, 139380, Note_on_c, 3, 58, 0
8, 139380, Note_on_c, 3, 60, 123
8, 139440, Note_on_c, 3, 60, 0
8, 139440, Note_on_c, 3, 61, 123
8, 139500, Note_on_c, 3, 61, 0
8, 139500, Note_on_c, 3, 51, 123
8, 139560, Note_on_c, 3, 51, 0
8, 139560, Note_on_c, 3, 53, 123
8, 139620, Note_on_c, 3, 53, 0
8, 139620, Note_on_c, 3, 55, 123
8, 139680, Note_on_c, 3, 55, 0
8, 139680, Note_on_c, 3, 56, 123
8, 139920, Note_on_c, 3, 56, 0
8, 140160, Note_on_c, 3, 56, 123
8, 140340, Note_on_c, 3, 56, 0
8, 140340, Note_on_c, 3, 60, 123
8, 140400, Note_on_c, 3, 60, 0
8, 140400, Note_on_c, 3, 63, 101
8, 141120, Note_on_c, 3, 63, 0
8, 141120, Note_on_c, 3, 65, 91
8, 141840, Note_on_c, 3, 65, 0
8, 141840, Note_on_c, 3, 60, 91
8, 142560, Note_on_c, 3, 60, 0
8, 142560, Note_on_c, 3, 63, 91
8, 142800, Note_on_c, 3, 63, 0
8, 142800, Note_on_c, 3, 63, 91
8, 143040, Note_on_c, 3, 63, 0
8, 143040, Note_on_c, 3, 63, 91
8, 143280, Note_on_c, 3, 63, 0
8, 143280, Note_on_c, 3, 63, 91
8, 143520, Note_on_c, 3, 63, 0
8, 146640, Note_on_c, 3, 63, 91
8, 146880, Note_on_c, 3, 63, 0
8, 146880, Note_on_c, 3, 63, 91
8, 147120, Note_on_c, 3, 63, 0
8, 148080, Note_on_c, 3, 60, 91
8, 148200, Note_on_c, 3, 60, 0
8, 148200, Note_on_c, 3, 63, 91
8, 148320, Note_on_c, 3, 63, 0
8, 148320, Note_on_c, 3, 66, 91
8, 148560, Note_on_c, 3, 66, 0
8, 148560, Note_on_c, 3, 66, 91
8, 148680, Note_on_c, 3, 66, 0
8, 148680, Note_on_c, 3, 65, 91
8, 148800, Note_on_c, 3, 65, 0
8, 148800, Note_on_c, 3, 63, 91
8, 148920, Note_on_c, 3, 63, 0
8, 148920, Note_on_c, 3, 66, 91
8, 149040, Note_on_c, 3, 66, 0
8, 149040, Note_on_c, 3, 65, 91
8, 149520, Note_on_c, 3, 65, 0
8, 149520, Note_on_c, 3, 61, 91
8, 149640, Note_on_c, 3, 61, 0
8, 149640, Note_on_c, 3, 63, 91
8, 149760, Note_on_c, 3, 63, 0
8, 149760, Note_on_c, 3, 64, 91
8, 150000, Note_on_c, 3, 64, 0
8, 150000, Note_on_c, 3, 64, 91
8, 150120, Note_on_c, 3, 64, 0
8, 150120, Note_on_c, 3, 63, 91
8, 150240, Note_on_c, 3, 63, 0
8, 150240, Note_on_c, 3, 61, 91
8, 150360, Note_on_c, 3, 61, 0
8, 150360, Note_on_c, 3, 64, 91
8, 150480, Note_on_c, 3, 64, 0
8, 150480, Note_on_c, 3, 63, 91
8, 150960, Note_on_c, 3, 63, 0
8, 151440, Note_on_c, 3, 60, 91
8, 151680, Note_on_c, 3, 60, 0
8, 152160, Note_on_c, 3, 61, 91
8, 152400, Note_on_c, 3, 61, 0
8, 152880, Note_on_c, 3, 61, 91
8, 153120, Note_on_c, 3, 61, 0
8, 153360, Note_on_c, 3, 60, 91
8, 153600, Note_on_c, 3, 60, 0
8, 154560, Note_on_c, 3, 63, 115
8, 154800, Note_on_c, 3, 63, 0
8, 154800, Note_on_c, 3, 60, 115
8, 155040, Note_on_c, 3, 60, 0
8, 156000, Note_on_c, 3, 58, 115
8, 156240, Note_on_c, 3, 58, 0
8, 156240, Note_on_c, 3, 60, 115
8, 156480, Note_on_c, 3, 60, 0
8, 156560, Note_on_c, 3, 44, 91
8, 156640, Note_on_c, 3, 44, 0
8, 156640, Note_on_c, 3, 48, 91
8, 156720, Note_on_c, 3, 48, 0
8, 156720, Note_on_c, 3, 51, 101
8, 156800, Note_on_c, 3, 51, 0
8, 156800, Note_on_c, 3, 56, 109
8, 156880, Note_on_c, 3, 56, 0
8, 156880, Note_on_c, 3, 60, 115
8, 156960, Note_on_c, 3, 60, 0
8, 156960, Note_on_c, 3, 51, 123
8, 157040, Note_on_c, 3, 51, 0
8, 157040, Note_on_c, 3, 56, 123
8, 157120, Note_on_c, 3, 56, 0
8, 157120, Note_on_c, 3, 60, 123
8, 157200, Note_on_c, 3, 60, 0
8, 157200, Note_on_c, 3, 63, 123
8, 157440, Note_on_c, 3, 63, 0
8, 158400, Note_on_c, 3, 65, 91
8, 159120, Note_on_c, 3, 65, 0
8, 159120, Note_on_c, 3, 63, 91
8, 159840, Note_on_c, 3, 63, 0
8, 159840, Note_on_c, 3, 63, 91
8, 160080, Note_on_c, 3, 63, 0
8, 160080, Note_on_c, 3, 63, 91
8, 160320, Note_on_c, 3, 63, 0
8, 160320, Note_on_c, 3, 63, 91
8, 160560, Note_on_c, 3, 63, 0
8, 160560, Note_on_c, 3, 63, 91
8, 160800, Note_on_c, 3, 63, 0
8, 161280, Note_on_c, 3, 56, 91
8, 161880, Note_on_c, 3, 56, 0
8, 161880, Note_on_c, 3, 60, 91
8, 162000, Note_on_c, 3, 60, 0
8, 162000, Note_on_c, 3, 65, 91
8, 162240, Note_on_c, 3, 65, 0
8, 162240, Note_on_c, 3, 63, 91
8, 162600, Note_on_c, 3, 63, 0
8, 162600, Note_on_c, 3, 63, 115
8, 162720, Note_on_c, 3, 63, 0
8, 162720, Note_on_c, 3, 63, 115
8, 162840, Note_on_c, 3, 63, 0
8, 162840, Note_on_c, 3, 61, 115
8, 162960, Note_on_c, 3, 61, 0
8, 162960, Note_on_c, 3, 60, 115
8, 163320, Note_on_c, 3, 60, 0
8, 165360, Note_on_c, 3, 51, 91
8, 165480, Note_on_c, 3, 51, 0
8, 165480, Note_on_c, 3, 56, 91
8, 165600, Note_on_c, 3, 56, 0
8, 165600, Note_on_c, 3, 60, 91
8, 165840, Note_on_c, 3, 60, 0
8, 165840, Note_on_c, 3, 60, 91
8, 165960, Note_on_c, 3, 60, 0
8, 165960, Note_on_c, 3, 58, 91
8, 166080, Note_on_c, 3, 58, 0
8, 166080, Note_on_c, 3, 56, 91
8, 166260, Note_on_c, 3, 56, 0
8, 166260, Note_on_c, 3, 60, 91
8, 166320, Note_on_c, 3, 60, 0
8, 166320, Note_on_c, 3, 63, 91
8, 166800, Note_on_c, 3, 63, 0
8, 166800, Note_on_c, 3, 56, 91
8, 166920, Note_on_c, 3, 56, 0
8, 166920, Note_on_c, 3, 60, 91
8, 167040, Note_on_c, 3, 60, 0
8, 167040, Note_on_c, 3, 63, 91
8, 167280, Note_on_c, 3, 63, 0
8, 167280, Note_on_c, 3, 63, 91
8, 167400, Note_on_c, 3, 63, 0
8, 167400, Note_on_c, 3, 61, 91
8, 167520, Note_on_c, 3, 61, 0
8, 167520, Note_on_c, 3, 60, 91
8, 167700, Note_on_c, 3, 60, 0
8, 167700, Note_on_c, 3, 63, 91
8, 167760, Note_on_c, 3, 63, 0
8, 167760, Note_on_c, 3, 63, 91
8, 170640, Note_on_c, 3, 63, 0
8, 170640, Note_on_c, 3, 63, 101
8, 170880, Note_on_c, 3, 63, 0
8, 170880, Note_on_c, 3, 63, 101
8, 171120, Note_on_c, 3, 63, 0
8, 171120, Note_on_c, 3, 63, 101
8, 171360, Note_on_c, 3, 63, 0
8, 171360, Note_on_c, 3, 63, 109
8, 171600, Note_on_c, 3, 63, 0
8, 171600, Note_on_c, 3, 63, 109
8, 171840, Note_on_c, 3, 63, 0
8, 171840, Note_on_c, 3, 63, 109
8, 172080, Note_on_c, 3, 63, 0
8, 172080, Note_on_c, 3, 63, 115
8, 172160, Note_on_c, 3, 63, 0
8, 172160, Note_on_c, 3, 63, 115
8, 172240, Note_on_c, 3, 63, 0
8, 172240, Note_on_c, 3, 63, 115
8, 172320, Note_on_c, 3, 63, 0
8, 172320, Note_on_c, 3, 63, 115
8, 172400, Note_on_c, 3, 63, 0
8, 172400, Note_on_c, 3, 63, 115
8, 172480, Note_on_c, 3, 63, 0
8, 172480, Note_on_c, 3, 63, 115
8, 172560, Note_on_c, 3, 63, 0
8, 172560, Note_on_c, 3, 63, 115
8, 172640, Note_on_c, 3, 63, 0
8, 172640, Note_on_c, 3, 63, 115
8, 172720, Note_on_c, 3, 63, 0
8, 172720, Note_on_c, 3, 63, 115
8, 172800, Note_on_c, 3, 63, 0
8, 172800, Note_on_c, 3, 63, 115
8, 172880, Note_on_c, 3, 63, 0
8, 172880, Note_on_c, 3, 63, 115
8, 172960, Note_on_c, 3, 63, 0
8, 172960, Note_on_c, 3, 63, 115
8, 173040, Note_on_c, 3, 63, 0
8, 173040, Note_on_c, 3, 63, 115
8, 173120, Note_on_c, 3, 63, 0
8, 173120, Note_on_c, 3, 63, 115
8, 173200, Note_on_c, 3, 63, 0
8, 173200, Note_on_c, 3, 63, 115
8, 173280, Note_on_c, 3, 63, 0
8, 173280, Note_on_c, 3, 63, 115
8, 173360, Note_on_c, 3, 63, 0
8, 173360, Note_on_c, 3, 63, 115
8, 173440, Note_on_c, 3, 63, 0
8, 173440, Note_on_c, 3, 63, 115
8, 173520, Note_on_c, 3, 63, 0
8, 173520, Note_on_c, 3, 63, 115
8, 173600, Note_on_c, 3, 63, 0
8, 173600, Note_on_c, 3, 63, 115
8, 173680, Note_on_c, 3, 63, 0
8, 173680, Note_on_c, 3, 63, 115
8, 173760, Note_on_c, 3, 63, 0
8, 173760, Note_on_c, 3, 63, 115
8, 173840, Note_on_c, 3, 63, 0
8, 173840, Note_on_c, 3, 63, 115
8, 173920, Note_on_c, 3, 63, 0
8, 173920, Note_on_c, 3, 63, 115
8, 174000, Note_on_c, 3, 63, 0
8, 174000, Note_on_c, 3, 56, 115
8, 174080, Note_on_c, 3, 56, 0
8, 174080, Note_on_c, 3, 60, 115
8, 174160, Note_on_c, 3, 60, 0
8, 174160, Note_on_c, 3, 63, 115
8, 174240, Note_on_c, 3, 63, 0
8, 174240, Note_on_c, 3, 68, 123
8, 174480, Note_on_c, 3, 68, 0
8, 174720, Note_on_c, 3, 56, 123
8, 174900, Note_on_c, 3, 56, 0
8, 174900, Note_on_c, 3, 60, 123
8, 174960, Note_on_c, 3, 60, 0
8, 174960, Note_on_c, 3, 63, 123
8, 175680, Note_on_c, 3, 63, 0
8, 175680, Note_on_c, 3, 60, 123
8, 175920, Note_on_c, 3, 60, 0
8, 176160, Note_on_c, 3, 63, 91
8, 176400, Note_on_c, 3, 63, 0
8, 176400, Note_on_c, 3, 60, 91
8, 176640, Note_on_c, 3, 60, 0
8, 176880, Note_on_c, 3, 56, 115
8, 177060, Note_on_c, 3, 56, 0
8, 177060, Note_on_c, 3, 60, 115
8, 177120, Note_on_c, 3, 60, 0
8, 177120, Note_on_c, 3, 63, 123
8, 177840, Note_on_c, 3, 63, 0
8, 177840, Note_on_c, 3, 56, 123
8, 178080, Note_on_c, 3, 56, 0
8, 178080, End_track
9, 0, Start_track
9, 0, MIDI_port, 0
9, 0, Title_t, "Bassoon 2"
9, 6240, Note_on_c, 3, 56, 91
9, 6420, Note_on_c, 3, 56, 0
9, 6420, Note_on_c, 3, 60, 91
9, 6480, Note_on_c, 3, 60, 0
9, 6480, Note_on_c, 3, 63, 115
9, 7200, Note_on_c, 3, 63, 0
9, 7200, Note_on_c, 3, 60, 91
9, 7440, Note_on_c, 3, 60, 0
9, 7680, Note_on_c, 3, 68, 91
9, 7860, Note_on_c, 3, 68, 0
9, 7860, Note_on_c, 3, 67, 91
9, 7920, Note_on_c, 3, 67, 0
9, 7920, Note_on_c, 3, 63, 115
9, 8640, Note_on_c, 3, 63, 0
9, 8640, Note_on_c, 3, 65, 91
9, 9360, Note_on_c, 3, 65, 0
9, 9360, Note_on_c, 3, 60, 91
9, 10080, Note_on_c, 3, 60, 0
9, 10080, Note_on_c, 3, 63, 91
9, 10320, Note_on_c, 3, 63, 0
9, 10320, Note_on_c, 3, 63, 91
9, 10560, Note_on_c, 3, 63, 0
9, 10560, Note_on_c, 3, 63, 91
9, 10800, Note_on_c, 3, 63, 0
9, 10800, Note_on_c, 3, 56, 91
9, 11040, Note_on_c, 3, 56, 0
9, 11520, Note_on_c, 3, 44, 91
9, 12240, Note_on_c, 3, 44, 0
9, 12240, Note_on_c, 3, 51, 91
9, 12960, Note_on_c, 3, 51, 0
9, 12960, Note_on_c, 3, 51, 115
9, 13200, Note_on_c, 3, 51, 0
9, 13200, Note_on_c, 3, 51, 115
9, 13440, Note_on_c, 3, 51, 0
9, 13440, Note_on_c, 3, 51, 115
9, 13680, Note_on_c, 3, 51, 0
9, 13680, Note_on_c, 3, 51, 91
9, 13920, Note_on_c, 3, 51, 0
9, 14160, Note_on_c, 3, 63, 91
9, 14400, Note_on_c, 3, 63, 0
9, 14400, Note_on_c, 3, 56, 91
9, 14640, Note_on_c, 3, 56, 0
9, 14880, Note_on_c, 3, 51, 115
9, 15360, Note_on_c, 3, 51, 0
9, 15480, Note_on_c, 3, 51, 91
9, 15600, Note_on_c, 3, 51, 0
9, 15720, Note_on_c, 3, 51, 91
9, 15840, Note_on_c, 3, 51, 0
9, 15840, Note_on_c, 3, 48, 91
9, 16080, Note_on_c, 3, 48, 0
9, 16560, Note_on_c, 3, 48, 91
9, 16800, Note_on_c, 3, 48, 0
9, 16800, Note_on_c, 3, 48, 91
9, 17040, Note_on_c, 3, 48, 0
9, 17040, Note_on_c, 3, 51, 91
9, 17280, Note_on_c, 3, 51, 0
9, 17280, Note_on_c, 3, 56, 91
9, 17760, Note_on_c, 3, 56, 0
9, 17760, Note_on_c, 3, 48, 91
9, 17940, Note_on_c, 3, 48, 0
9, 17940, Note_on_c, 3, 51, 91
9, 18000, Note_on_c, 3, 51, 0
9, 18000, Note_on_c, 3, 56, 91
9, 18240, Note_on_c, 3, 56, 0
9, 18240, Note_on_c, 3, 56, 91
9, 18480, Note_on_c, 3, 56, 0
9, 18480, Note_on_c, 3, 58, 91
9, 18720, Note_on_c, 3, 58, 0
9, 18720, Note_on_c, 3, 60, 91
9, 19200, Note_on_c, 3, 60, 0
9, 20640, Note_on_c, 3, 63, 78
9, 20820, Note_on_c, 3, 63, 0
9, 20820, Note_on_c, 3, 65, 78
9, 20880, Note_on_c, 3, 65, 0
9, 20880, Note_on_c, 3, 60, 123
9, 21600, Note_on_c, 3, 60, 0
9, 21600, Note_on_c, 3, 64, 123
9, 21780, Note_on_c, 3, 64, 0
9, 21780, Note_on_c, 3, 60, 123
9, 21840, Note_on_c, 3, 60, 0
9, 21840, Note_on_c, 3, 55, 123
9, 22080, Note_on_c, 3, 55, 0
9, 22080, Note_on_c, 3, 59, 123
9, 22320, Note_on_c, 3, 59, 0
9, 22320, Note_on_c, 3, 60, 123
9, 22560, Note_on_c, 3, 60, 0
9, 28080, Note_on_c, 3, 52, 78
9, 30240, Note_on_c, 3, 52, 0
9, 30240, Note_on_c, 3, 52, 78
9, 30960, Note_on_c, 3, 52, 0
9, 30960, Note_on_c, 3, 51, 78
9, 31680, Note_on_c, 3, 51, 0
9, 31680, Note_on_c, 3, 50, 78
9, 32400, Note_on_c, 3, 50, 0
9, 32400, Note_on_c, 3, 49, 91
9, 33120, Note_on_c, 3, 49, 0
9, 33120, Note_on_c, 3, 48, 101
9, 33840, Note_on_c, 3, 48, 0
9, 33840, Note_on_c, 3, 49, 109
9, 34560, Note_on_c, 3, 49, 0
9, 34560, Note_on_c, 3, 51, 115
9, 34800, Note_on_c, 3, 51, 0
9, 35040, Note_on_c, 3, 63, 115
9, 35280, Note_on_c, 3, 63, 0
9, 40320, Note_on_c, 3, 51, 115
9, 40560, Note_on_c, 3, 51, 0
9, 40560, Note_on_c, 3, 51, 115
9, 40800, Note_on_c, 3, 51, 0
9, 40800, Note_on_c, 3, 51, 115
9, 41040, Note_on_c, 3, 51, 0
9, 41040, Note_on_c, 3, 51, 91
9, 41160, Note_on_c, 3, 51, 0
9, 42840, Note_on_c, 3, 68, 91
9, 42960, Note_on_c, 3, 68, 0
9, 42960, Note_on_c, 3, 68, 101
9, 43080, Note_on_c, 3, 68, 0
9, 43080, Note_on_c, 3, 68, 109
9, 43200, Note_on_c, 3, 68, 0
9, 43200, Note_on_c, 3, 63, 109
9, 43920, Note_on_c, 3, 63, 0
9, 43920, Note_on_c, 3, 65, 91
9, 44640, Note_on_c, 3, 65, 0
9, 44640, Note_on_c, 3, 60, 91
9, 45360, Note_on_c, 3, 60, 0
9, 45360, Note_on_c, 3, 63, 91
9, 45600, Note_on_c, 3, 63, 0
9, 45600, Note_on_c, 3, 63, 91
9, 45840, Note_on_c, 3, 63, 0
9, 45840, Note_on_c, 3, 63, 91
9, 46080, Note_on_c, 3, 63, 0
9, 46080, Note_on_c, 3, 63, 91
9, 46320, Note_on_c, 3, 63, 0
9, 46800, Note_on_c, 3, 51, 91
9, 47520, Note_on_c, 3, 51, 0
9, 47520, Note_on_c, 3, 58, 101
9, 48240, Note_on_c, 3, 58, 0
9, 48240, Note_on_c, 3, 58, 115
9, 48480, Note_on_c, 3, 58, 0
9, 48480, Note_on_c, 3, 58, 115
9, 48720, Note_on_c, 3, 58, 0
9, 48720, Note_on_c, 3, 58, 115
9, 48960, Note_on_c, 3, 58, 0
9, 48960, Note_on_c, 3, 58, 91
9, 49200, Note_on_c, 3, 58, 0
9, 49440, Note_on_c, 3, 63, 101
9, 49680, Note_on_c, 3, 63, 0
9, 49680, Note_on_c, 3, 56, 109
9, 49920, Note_on_c, 3, 56, 0
9, 50160, Note_on_c, 3, 51, 115
9, 50520, Note_on_c, 3, 51, 0
9, 50640, Note_on_c, 3, 51, 91
9, 50760, Note_on_c, 3, 51, 0
9, 50880, Note_on_c, 3, 51, 91
9, 51000, Note_on_c, 3, 51, 0
9, 51120, Note_on_c, 3, 48, 91
9, 51360, Note_on_c, 3, 48, 0
9, 51840, Note_on_c, 3, 48, 91
9, 52080, Note_on_c, 3, 48, 0
9, 52080, Note_on_c, 3, 48, 91
9, 52320, Note_on_c, 3, 48, 0
9, 52320, Note_on_c, 3, 51, 91
9, 52560, Note_on_c, 3, 51, 0
9, 52560, Note_on_c, 3, 56, 91
9, 53040, Note_on_c, 3, 56, 0
9, 53040, Note_on_c, 3, 48, 91
9, 53220, Note_on_c, 3, 48, 0
9, 53220, Note_on_c, 3, 51, 91
9, 53280, Note_on_c, 3, 51, 0
9, 53280, Note_on_c, 3, 56, 91
9, 53520, Note_on_c, 3, 56, 0
9, 53520, Note_on_c, 3, 56, 91
9, 53760, Note_on_c, 3, 56, 0
9, 53760, Note_on_c, 3, 58, 91
9, 54000, Note_on_c, 3, 58, 0
9, 54000, Note_on_c, 3, 60, 91
9, 54480, Note_on_c, 3, 60, 0
9, 55920, Note_on_c, 3, 63, 78
9, 56100, Note_on_c, 3, 63, 0
9, 56100, Note_on_c, 3, 65, 78
9, 56160, Note_on_c, 3, 65, 0
9, 56160, Note_on_c, 3, 60, 123
9, 56880, Note_on_c, 3, 60, 0
9, 56880, Note_on_c, 3, 64, 123
9, 57060, Note_on_c, 3, 64, 0
9, 57060, Note_on_c, 3, 60, 123
9, 57120, Note_on_c, 3, 60, 0
9, 57120, Note_on_c, 3, 55, 123
9, 57360, Note_on_c, 3, 55, 0
9, 57360, Note_on_c, 3, 59, 123
9, 57600, Note_on_c, 3, 59, 0
9, 57600, Note_on_c, 3, 60, 123
9, 57840, Note_on_c, 3, 60, 0
9, 63360, Note_on_c, 3, 52, 78
9, 66240, Note_on_c, 3, 52, 0
9, 66240, Note_on_c, 3, 51, 78
9, 66960, Note_on_c, 3, 51, 0
9, 66960, Note_on_c, 3, 50, 78
9, 67680, Note_on_c, 3, 50, 0
9, 67680, Note_on_c, 3, 49, 91
9, 68400, Note_on_c, 3, 49, 0
9, 68400, Note_on_c, 3, 48, 101
9, 69120, Note_on_c, 3, 48, 0
9, 69120, Note_on_c, 3, 49, 109
9, 69840, Note_on_c, 3, 49, 0
9, 69840, Note_on_c, 3, 51, 115
9, 69960, Note_on_c, 3, 51, 0
9, 69960, Note_on_c, 3, 51, 123
9, 70080, Note_on_c, 3, 51, 0
9, 70080, Note_on_c, 3, 63, 123
9, 70200, Note_on_c, 3, 63, 0
9, 70560, Note_on_c, 3, 63, 115
9, 71280, Note_on_c, 3, 63, 0
9, 71280, Note_on_c, 3, 63, 91
9, 73440, Note_on_c, 3, 63, 0
9, 73440, Note_on_c, 3, 64, 91
9, 74160, Note_on_c, 3, 64, 0
9, 74160, Note_on_c, 3, 65, 91
9, 75120, Note_on_c, 3, 65, 0
9, 75120, Note_on_c, 3, 63, 78
9, 76320, Note_on_c, 3, 63, 0
9, 76320, Note_on_c, 3, 60, 78
9, 76560, Note_on_c, 3, 60, 0
9, 77160, Note_on_c, 3, 48, 91
9, 77280, Note_on_c, 3, 48, 0
9, 77280, Note_on_c, 3, 60, 91
9, 77400, Note_on_c, 3, 60, 0
9, 77880, Note_on_c, 3, 53, 91
9, 78000, Note_on_c, 3, 53, 0
9, 78000, Note_on_c, 3, 65, 91
9, 78120, Note_on_c, 3, 65, 0
9, 78600, Note_on_c, 3, 49, 91
9, 78720, Note_on_c, 3, 49, 0
9, 78720, Note_on_c, 3, 61, 91
9, 78840, Note_on_c, 3, 61, 0
9, 79320, Note_on_c, 3, 48, 91
9, 79440, Note_on_c, 3, 48, 0
9, 79440, Note_on_c, 3, 60, 91
9, 79560, Note_on_c, 3, 60, 0
9, 80040, Note_on_c, 3, 53, 91
9, 80160, Note_on_c, 3, 53, 0
9, 80160, Note_on_c, 3, 65, 91
9, 80280, Note_on_c, 3, 65, 0
9, 80760, Note_on_c, 3, 51, 91
9, 80880, Note_on_c, 3, 51, 0
9, 80880, Note_on_c, 3, 63, 91
9, 81000, Note_on_c, 3, 63, 0
9, 81480, Note_on_c, 3, 51, 91
9, 81600, Note_on_c, 3, 51, 0
9, 81600, Note_on_c, 3, 63, 91
9, 81720, Note_on_c, 3, 63, 0
9, 81960, Note_on_c, 3, 63, 91
9, 82080, Note_on_c, 3, 63, 0
9, 82200, Note_on_c, 3, 60, 115
9, 82320, Note_on_c, 3, 60, 0
9, 82320, Note_on_c, 3, 60, 115
9, 82440, Note_on_c, 3, 60, 0
9, 82440, Note_on_c, 3, 60, 115
9, 82560, Note_on_c, 3, 60, 0
9, 82560, Note_on_c, 3, 60, 115
9, 82680, Note_on_c, 3, 60, 0
9, 82680, Note_on_c, 3, 60, 115
9, 82800, Note_on_c, 3, 60, 0
9, 82800, Note_on_c, 3, 60, 115
9, 82920, Note_on_c, 3, 60, 0
9, 82920, Note_on_c, 3, 60, 115
9, 83040, Note_on_c, 3, 60, 0
9, 83040, Note_on_c, 3, 60, 115
9, 83160, Note_on_c, 3, 60, 0
9, 83160, Note_on_c, 3, 60, 115
9, 83280, Note_on_c, 3, 60, 0
9, 83280, Note_on_c, 3, 60, 115
9, 83400, Note_on_c, 3, 60, 0
9, 83400, Note_on_c, 3, 60, 115
9, 83520, Note_on_c, 3, 60, 0
9, 83520, Note_on_c, 3, 60, 115
9, 83640, Note_on_c, 3, 60, 0
9, 83640, Note_on_c, 3, 60, 115
9, 83760, Note_on_c, 3, 60, 0
9, 83760, Note_on_c, 3, 58, 115
9, 83880, Note_on_c, 3, 58, 0
9, 83880, Note_on_c, 3, 58, 115
9, 84000, Note_on_c, 3, 58, 0
9, 84000, Note_on_c, 3, 58, 115
9, 84120, Note_on_c, 3, 58, 0
9, 84120, Note_on_c, 3, 58, 115
9, 84240, Note_on_c, 3, 58, 0
9, 84240, Note_on_c, 3, 58, 115
9, 84360, Note_on_c, 3, 58, 0
9, 84360, Note_on_c, 3, 58, 115
9, 84480, Note_on_c, 3, 58, 0
9, 84480, Note_on_c, 3, 58, 115
9, 84600, Note_on_c, 3, 58, 0
9, 84600, Note_on_c, 3, 58, 115
9, 84720, Note_on_c, 3, 58, 0
9, 84720, Note_on_c, 3, 59, 115
9, 84840, Note_on_c, 3, 59, 0
9, 84840, Note_on_c, 3, 59, 115
9, 84960, Note_on_c, 3, 59, 0
9, 84960, Note_on_c, 3, 60, 115
9, 85080, Note_on_c, 3, 60, 0
9, 85080, Note_on_c, 3, 60, 115
9, 85200, Note_on_c, 3, 60, 0
9, 85200, Note_on_c, 3, 60, 115
9, 85320, Note_on_c, 3, 60, 0
9, 85320, Note_on_c, 3, 60, 115
9, 85440, Note_on_c, 3, 60, 0
9, 85440, Note_on_c, 3, 60, 115
9, 85560, Note_on_c, 3, 60, 0
9, 85560, Note_on_c, 3, 60, 115
9, 85680, Note_on_c, 3, 60, 0
9, 85680, Note_on_c, 3, 60, 115
9, 85800, Note_on_c, 3, 60, 0
9, 85800, Note_on_c, 3, 60, 115
9, 85920, Note_on_c, 3, 60, 0
9, 85920, Note_on_c, 3, 60, 115
9, 86040, Note_on_c, 3, 60, 0
9, 86040, Note_on_c, 3, 60, 115
9, 86160, Note_on_c, 3, 60, 0
9, 86160, Note_on_c, 3, 58, 115
9, 86280, Note_on_c, 3, 58, 0
9, 86280, Note_on_c, 3, 58, 115
9, 86400, Note_on_c, 3, 58, 0
9, 86400, Note_on_c, 3, 58, 115
9, 86520, Note_on_c, 3, 58, 0
9, 86520, Note_on_c, 3, 58, 115
9, 86640, Note_on_c, 3, 58, 0
9, 86640, Note_on_c, 3, 58, 115
9, 86760, Note_on_c, 3, 58, 0
9, 86760, Note_on_c, 3, 58, 115
9, 86880, Note_on_c, 3, 58, 0
9, 86880, Note_on_c, 3, 56, 115
9, 87000, Note_on_c, 3, 56, 0
9, 87000, Note_on_c, 3, 56, 115
9, 87120, Note_on_c, 3, 56, 0
9, 87120, Note_on_c, 3, 55, 115
9, 87840, Note_on_c, 3, 55, 0
9, 87840, Note_on_c, 3, 51, 115
9, 88200, Note_on_c, 3, 51, 0
9, 88200, Note_on_c, 3, 53, 115
9, 88260, Note_on_c, 3, 53, 0
9, 88260, Note_on_c, 3, 55, 115
9, 88320, Note_on_c, 3, 55, 0
9, 88320, Note_on_c, 3, 56, 115
9, 88380, Note_on_c, 3, 56, 0
9, 88380, Note_on_c, 3, 58, 115
9, 88440, Note_on_c, 3, 58, 0
9, 88440, Note_on_c, 3, 60, 115
9, 88500, Note_on_c, 3, 60, 0
9, 88500, Note_on_c, 3, 62, 115
9, 88560, Note_on_c, 3, 62, 0
9, 88560, Note_on_c, 3, 51, 115
9, 89040, Note_on_c, 3, 51, 0
9, 93360, Note_on_c, 3, 51, 115
9, 93480, Note_on_c, 3, 51, 0
9, 93480, Note_on_c, 3, 56, 115
9, 93600, Note_on_c, 3, 56, 0
9, 93600, Note_on_c, 3, 60, 115
9, 93840, Note_on_c, 3, 60, 0
9, 93840, Note_on_c, 3, 60, 115
9, 93960, Note_on_c, 3, 60, 0
9, 93960, Note_on_c, 3, 58, 115
9, 94080, Note_on_c, 3, 58, 0
9, 94080, Note_on_c, 3, 56, 115
9, 94200, Note_on_c, 3, 56, 0
9, 94200, Note_on_c, 3, 60, 115
9, 94320, Note_on_c, 3, 60, 0
9, 94320, Note_on_c, 3, 63, 115
9, 94800, Note_on_c, 3, 63, 0
9, 106320, Note_on_c, 3, 52, 123
9, 106500, Note_on_c, 3, 52, 0
9, 106500, Note_on_c, 3, 55, 123
9, 106560, Note_on_c, 3, 55, 0
9, 106560, Note_on_c, 3, 52, 123
9, 106800, Note_on_c, 3, 52, 0
9, 106800, Note_on_c, 3, 52, 123
9, 107040, Note_on_c, 3, 52, 0
9, 107040, Note_on_c, 3, 50, 123
9, 107280, Note_on_c, 3, 50, 0
9, 107280, Note_on_c, 3, 52, 123
9, 108480, Note_on_c, 3, 52, 0
9, 108480, Note_on_c, 3, 52, 123
9, 108660, Note_on_c, 3, 52, 0
9, 108660, Note_on_c, 3, 50, 123
9, 108720, Note_on_c, 3, 50, 0
9, 108720, Note_on_c, 3, 52, 123
9, 108960, Note_on_c, 3, 52, 0
9, 108960, Note_on_c, 3, 48, 123
9, 109200, Note_on_c, 3, 48, 0
9, 109200, Note_on_c, 3, 50, 123
9, 109440, Note_on_c, 3, 50, 0
9, 109440, Note_on_c, 3, 52, 123
9, 110640, Note_on_c, 3, 52, 0
9, 110640, Note_on_c, 3, 48, 123
9, 110820, Note_on_c, 3, 48, 0
9, 110820, Note_on_c, 3, 50, 123
9, 110880, Note_on_c, 3, 50, 0
9, 110880, Note_on_c, 3, 52, 123
9, 111360, Note_on_c, 3, 52, 0
9, 111360, Note_on_c, 3, 48, 123
9, 111540, Note_on_c, 3, 48, 0
9, 111540, Note_on_c, 3, 50, 123
9, 111600, Note_on_c, 3, 50, 0
9, 111600, Note_on_c, 3, 52, 123
9, 112080, Note_on_c, 3, 52, 0
9, 112080, Note_on_c, 3, 48, 123
9, 112260, Note_on_c, 3, 48, 0
9, 112260, Note_on_c, 3, 50, 123
9, 112320, Note_on_c, 3, 50, 0
9, 112320, Note_on_c, 3, 52, 91
9, 114000, Note_on_c, 3, 52, 0
9, 120000, Note_on_c, 3, 51, 91
9, 120120, Note_on_c, 3, 51, 0
9, 120180, Note_on_c, 3, 56, 91
9, 120240, Note_on_c, 3, 56, 0
9, 120240, Note_on_c, 3, 59, 91
9, 120480, Note_on_c, 3, 59, 0
9, 120480, Note_on_c, 3, 59, 91
9, 120600, Note_on_c, 3, 59, 0
9, 120660, Note_on_c, 3, 58, 91
9, 120720, Note_on_c, 3, 58, 0
9, 120720, Note_on_c, 3, 56, 91
9, 120840, Note_on_c, 3, 56, 0
9, 120900, Note_on_c, 3, 59, 91
9, 120960, Note_on_c, 3, 59, 0
9, 120960, Note_on_c, 3, 55, 91
9, 121440, Note_on_c, 3, 55, 0
9, 121440, Note_on_c, 3, 56, 91
9, 121560, Note_on_c, 3, 56, 0
9, 121620, Note_on_c, 3, 58, 91
9, 121680, Note_on_c, 3, 58, 0
9, 121680, Note_on_c, 3, 59, 91
9, 121920, Note_on_c, 3, 59, 0
9, 121920, Note_on_c, 3, 59, 91
9, 122040, Note_on_c, 3, 59, 0
9, 122100, Note_on_c, 3, 58, 91
9, 122160, Note_on_c, 3, 58, 0
9, 122160, Note_on_c, 3, 56, 91
9, 122280, Note_on_c, 3, 56, 0
9, 122340, Note_on_c, 3, 59, 91
9, 122400, Note_on_c, 3, 59, 0
9, 122400, Note_on_c, 3, 61, 91
9, 122880, Note_on_c, 3, 61, 0
9, 122880, Note_on_c, 3, 59, 91
9, 123000, Note_on_c, 3, 59, 0
9, 123060, Note_on_c, 3, 61, 91
9, 123120, Note_on_c, 3, 61, 0
9, 123120, Note_on_c, 3, 63, 91
9, 123360, Note_on_c, 3, 63, 0
9, 123360, Note_on_c, 3, 63, 91
9, 123480, Note_on_c, 3, 63, 0
9, 123540, Note_on_c, 3, 61, 91
9, 123600, Note_on_c, 3, 61, 0
9, 123600, Note_on_c, 3, 59, 91
9, 123720, Note_on_c, 3, 59, 0
9, 123780, Note_on_c, 3, 63, 91
9, 123840, Note_on_c, 3, 63, 0
9, 123840, Note_on_c, 3, 61, 91
9, 124320, Note_on_c, 3, 61, 0
9, 124320, Note_on_c, 3, 63, 91
9, 124440, Note_on_c, 3, 63, 0
9, 124500, Note_on_c, 3, 61, 91
9, 124560, Note_on_c, 3, 61, 0
9, 124560, Note_on_c, 3, 59, 91
9, 124800, Note_on_c, 3, 59, 0
9, 124800, Note_on_c, 3, 59, 91
9, 124920, Note_on_c, 3, 59, 0
9, 124980, Note_on_c, 3, 58, 91
9, 125040, Note_on_c, 3, 58, 0
9, 125040, Note_on_c, 3, 56, 91
9, 125160, Note_on_c, 3, 56, 0
9, 125220, Note_on_c, 3, 59, 91
9, 125280, Note_on_c, 3, 59, 0
9, 125280, Note_on_c, 3, 51, 91
9, 125880, Note_on_c, 3, 51, 0
9, 125880, Note_on_c, 3, 56, 91
9, 126000, Note_on_c, 3, 56, 0
9, 126000, Note_on_c, 3, 55, 91
9, 126360, Note_on_c, 3, 55, 0
9, 126360, Note_on_c, 3, 56, 91
9, 126480, Note_on_c, 3, 56, 0
9, 126480, Note_on_c, 3, 51, 91
9, 126600, Note_on_c, 3, 51, 0
9, 126600, Note_on_c, 3, 56, 91
9, 126720, Note_on_c, 3, 56, 0
9, 126720, Note_on_c, 3, 55, 115
9, 126840, Note_on_c, 3, 55, 0
9, 126840, Note_on_c, 3, 55, 115
9, 126960, Note_on_c, 3, 55, 0
9, 132720, Note_on_c, 3, 46, 91
9, 132780, Note_on_c, 3, 46, 0
9, 132780, Note_on_c, 3, 48, 91
9, 132840, Note_on_c, 3, 48, 0
9, 132840, Note_on_c, 3, 49, 101
9, 132900, Note_on_c, 3, 49, 0
9, 132900, Note_on_c, 3, 51, 101
9, 132960, Note_on_c, 3, 51, 0
9, 132960, Note_on_c, 3, 53, 109
9, 133020, Note_on_c, 3, 53, 0
9, 133020, Note_on_c, 3, 55, 109
9, 133080, Note_on_c, 3, 55, 0
9, 133080, Note_on_c, 3, 56, 115
9, 133140, Note_on_c, 3, 56, 0
9, 133140, Note_on_c, 3, 58, 115
9, 133200, Note_on_c, 3, 58, 0
9, 133200, Note_on_c, 3, 60, 123
9, 134100, Note_on_c, 3, 60, 0
9, 134100, Note_on_c, 3, 58, 123
9, 134160, Note_on_c, 3, 58, 0
9, 134160, Note_on_c, 3, 56, 123
9, 134340, Note_on_c, 3, 56, 0
9, 134340, Note_on_c, 3, 60, 123
9, 134400, Note_on_c, 3, 60, 0
9, 134400, Note_on_c, 3, 53, 123
9, 134880, Note_on_c, 3, 53, 0
9, 134880, Note_on_c, 3, 61, 123
9, 135060, Note_on_c, 3, 61, 0
9, 135060, Note_on_c, 3, 60, 123
9, 135120, Note_on_c, 3, 60, 0
9, 135120, Note_on_c, 3, 58, 123
9, 135300, Note_on_c, 3, 58, 0
9, 135300, Note_on_c, 3, 61, 123
9, 135360, Note_on_c, 3, 61, 0
9, 135360, Note_on_c, 3, 55, 123
9, 135540, Note_on_c, 3, 55, 0
9, 135540, Note_on_c, 3, 58, 123
9, 135600, Note_on_c, 3, 58, 0
9, 135600, Note_on_c, 3, 52, 123
9, 135780, Note_on_c, 3, 52, 0
9, 135780, Note_on_c, 3, 55, 123
9, 135840, Note_on_c, 3, 55, 0
9, 135840, Note_on_c, 3, 60, 123
9, 136320, Note_on_c, 3, 60, 0
9, 136320, Note_on_c, 3, 61, 123
9, 136500, Note_on_c, 3, 61, 0
9, 136500, Note_on_c, 3, 58, 123
9, 136560, Note_on_c, 3, 58, 0
9, 136560, Note_on_c, 3, 65, 123
9, 136800, Note_on_c, 3, 65, 0
9, 136800, Note_on_c, 3, 58, 123
9, 137040, Note_on_c, 3, 58, 0
9, 137040, Note_on_c, 3, 60, 123
9, 137220, Note_on_c, 3, 60, 0
9, 137220, Note_on_c, 3, 56, 123
9, 137280, Note_on_c, 3, 56, 0
9, 137280, Note_on_c, 3, 63, 123
9, 137520, Note_on_c, 3, 63, 0
9, 137520, Note_on_c, 3, 55, 123
9, 137760, Note_on_c, 3, 55, 0
9, 138240, Note_on_c, 3, 56, 123
9, 138480, Note_on_c, 3, 56, 0
9, 139500, Note_on_c, 3, 51, 123
9, 139560, Note_on_c, 3, 51, 0
9, 139560, Note_on_c, 3, 53, 123
9, 139620, Note_on_c, 3, 53, 0
9, 139620, Note_on_c, 3, 55, 123
9, 139680, Note_on_c, 3, 55, 0
9, 139680, Note_on_c, 3, 44, 123
9, 139920, Note_on_c, 3, 44, 0
9, 140160, Note_on_c, 3, 44, 123
9, 140340, Note_on_c, 3, 44, 0
9, 140340, Note_on_c, 3, 48, 123
9, 140400, Note_on_c, 3, 48, 0
9, 140400, Note_on_c, 3, 63, 101
9, 141120, Note_on_c, 3, 63, 0
9, 141120, Note_on_c, 3, 65, 91
9, 141840, Note_on_c, 3, 65, 0
9, 141840, Note_on_c, 3, 60, 91
9, 142560, Note_on_c, 3, 60, 0
9, 142560, Note_on_c, 3, 63, 91
9, 142800, Note_on_c, 3, 63, 0
9, 142800, Note_on_c, 3, 63, 91
9, 143040, Note_on_c, 3, 63, 0
9, 143040, Note_on_c, 3, 63, 91
9, 143280, Note_on_c, 3, 63, 0
9, 143280, Note_on_c, 3, 56, 91
9, 143520, Note_on_c, 3, 56, 0
9, 146640, Note_on_c, 3, 51, 91
9, 146880, Note_on_c, 3, 51, 0
9, 146880, Note_on_c, 3, 51, 91
9, 147120, Note_on_c, 3, 51, 0
9, 148080, Note_on_c, 3, 60, 91
9, 148200, Note_on_c, 3, 60, 0
9, 148200, Note_on_c, 3, 63, 91
9, 148320, Note_on_c, 3, 63, 0
9, 148320, Note_on_c, 3, 66, 91
9, 148560, Note_on_c, 3, 66, 0
9, 148560, Note_on_c, 3, 66, 91
9, 148680, Note_on_c, 3, 66, 0
9, 148680, Note_on_c, 3, 65, 91
9, 148800, Note_on_c, 3, 65, 0
9, 148800, Note_on_c, 3, 63, 91
9, 148920, Note_on_c, 3, 63, 0
9, 148920, Note_on_c, 3, 66, 91
9, 149040, Note_on_c, 3, 66, 0
9, 149040, Note_on_c, 3, 65, 91
9, 149520, Note_on_c, 3, 65, 0
9, 149520, Note_on_c, 3, 61, 91
9, 149640, Note_on_c, 3, 61, 0
9, 149640, Note_on_c, 3, 63, 91
9, 149760, Note_on_c, 3, 63, 0
9, 149760, Note_on_c, 3, 64, 91
9, 150000, Note_on_c, 3, 64, 0
9, 150000, Note_on_c, 3, 64, 91
9, 150120, Note_on_c, 3, 64, 0
9, 150120, Note_on_c, 3, 63, 91
9, 150240, Note_on_c, 3, 63, 0
9, 150240, Note_on_c, 3, 61, 91
9, 150360, Note_on_c, 3, 61, 0
9, 150360, Note_on_c, 3, 64, 91
9, 150480, Note_on_c, 3, 64, 0
9, 150960, Note_on_c, 3, 44, 78
9, 151080, Note_on_c, 3, 44, 0
9, 151080, Note_on_c, 3, 44, 78
9, 151200, Note_on_c, 3, 44, 0
9, 151200, Note_on_c, 3, 44, 78
9, 151320, Note_on_c, 3, 44, 0
9, 151320, Note_on_c, 3, 44, 78
9, 151440, Note_on_c, 3, 44, 0
9, 151440, Note_on_c, 3, 44, 78
9, 151560, Note_on_c, 3, 44, 0
9, 151560, Note_on_c, 3, 44, 78
9, 151680, Note_on_c, 3, 44, 0
9, 151680, Note_on_c, 3, 44, 78
9, 151800, Note_on_c, 3, 44, 0
9, 151800, Note_on_c, 3, 44, 78
9, 151920, Note_on_c, 3, 44, 0
9, 151920, Note_on_c, 3, 44, 78
9, 152040, Note_on_c, 3, 44, 0
9, 152040, Note_on_c, 3, 44, 78
9, 152160, Note_on_c, 3, 44, 0
9, 152160, Note_on_c, 3, 44, 78
9, 152280, Note_on_c, 3, 44, 0
9, 152280, Note_on_c, 3, 44, 78
9, 152400, Note_on_c, 3, 44, 0
9, 152400, Note_on_c, 3, 44, 78
9, 152520, Note_on_c, 3, 44, 0
9, 152520, Note_on_c, 3, 44, 78
9, 152640, Note_on_c, 3, 44, 0
9, 152640, Note_on_c, 3, 44, 78
9, 152760, Note_on_c, 3, 44, 0
9, 152760, Note_on_c, 3, 44, 78
9, 152880, Note_on_c, 3, 44, 0
9, 152880, Note_on_c, 3, 44, 78
9, 153000, Note_on_c, 3, 44, 0
9, 153000, Note_on_c, 3, 44, 78
9, 153120, Note_on_c, 3, 44, 0
9, 153120, Note_on_c, 3, 44, 78
9, 153240, Note_on_c, 3, 44, 0
9, 153240, Note_on_c, 3, 44, 78
9, 153360, Note_on_c, 3, 44, 0
9, 153360, Note_on_c, 3, 44, 78
9, 153600, Note_on_c, 3, 44, 0
9, 154560, Note_on_c, 3, 55, 115
9, 154800, Note_on_c, 3, 55, 0
9, 154800, Note_on_c, 3, 56, 115
9, 155040, Note_on_c, 3, 56, 0
9, 156000, Note_on_c, 3, 55, 115
9, 156240, Note_on_c, 3, 55, 0
9, 156240, Note_on_c, 3, 56, 115
9, 156480, Note_on_c, 3, 56, 0
9, 156880, Note_on_c, 3, 48, 115
9, 156960, Note_on_c, 3, 48, 0
9, 156960, Note_on_c, 3, 51, 123
9, 157040, Note_on_c, 3, 51, 0
9, 157040, Note_on_c, 3, 56, 123
9, 157120, Note_on_c, 3, 56, 0
9, 157120, Note_on_c, 3, 60, 123
9, 157200, Note_on_c, 3, 60, 0
9, 157200, Note_on_c, 3, 63, 123
9, 157440, Note_on_c, 3, 63, 0
9, 158400, Note_on_c, 3, 65, 91
9, 159120, Note_on_c, 3, 65, 0
9, 159120, Note_on_c, 3, 63, 91
9, 159840, Note_on_c, 3, 63, 0
9, 159840, Note_on_c, 3, 63, 91
9, 160080, Note_on_c, 3, 63, 0
9, 160080, Note_on_c, 3, 63, 91
9, 160320, Note_on_c, 3, 63, 0
9, 160320, Note_on_c, 3, 63, 91
9, 160560, Note_on_c, 3, 63, 0
9, 160560, Note_on_c, 3, 56, 91
9, 160800, Note_on_c, 3, 56, 0
9, 161280, Note_on_c, 3, 44, 91
9, 161880, Note_on_c, 3, 44, 0
9, 161880, Note_on_c, 3, 56, 91
9, 162000, Note_on_c, 3, 56, 0
9, 162000, Note_on_c, 3, 61, 91
9, 162240, Note_on_c, 3, 61, 0
9, 162240, Note_on_c, 3, 60, 91
9, 162600, Note_on_c, 3, 60, 0
9, 162600, Note_on_c, 3, 60, 115
9, 162720, Note_on_c, 3, 60, 0
9, 162720, Note_on_c, 3, 55, 115
9, 162960, Note_on_c, 3, 55, 0
9, 162960, Note_on_c, 3, 56, 115
9, 163320, Note_on_c, 3, 56, 0
9, 165360, Note_on_c, 3, 51, 91
9, 165480, Note_on_c, 3, 51, 0
9, 165480, Note_on_c, 3, 56, 91
9, 165600, Note_on_c, 3, 56, 0
9, 165600, Note_on_c, 3, 56, 91
9, 165840, Note_on_c, 3, 56, 0
9, 165840, Note_on_c, 3, 56, 91
9, 165960, Note_on_c, 3, 56, 0
9, 165960, Note_on_c, 3, 51, 91
9, 166080, Note_on_c, 3, 51, 0
9, 166080, Note_on_c, 3, 48, 91
9, 166260, Note_on_c, 3, 48, 0
9, 166260, Note_on_c, 3, 56, 91
9, 166320, Note_on_c, 3, 56, 0
9, 166320, Note_on_c, 3, 60, 91
9, 166800, Note_on_c, 3, 60, 0
9, 166800, Note_on_c, 3, 48, 91
9, 166920, Note_on_c, 3, 48, 0
9, 166920, Note_on_c, 3, 56, 91
9, 167040, Note_on_c, 3, 56, 0
9, 167040, Note_on_c, 3, 60, 91
9, 167280, Note_on_c, 3, 60, 0
9, 167280, Note_on_c, 3, 60, 91
9, 167400, Note_on_c, 3, 60, 0
9, 167400, Note_on_c, 3, 58, 91
9, 167520, Note_on_c, 3, 58, 0
9, 167520, Note_on_c, 3, 56, 91
9, 167700, Note_on_c, 3, 56, 0
9, 167700, Note_on_c, 3, 60, 91
9, 167760, Note_on_c, 3, 60, 0
9, 167760, Note_on_c, 3, 56, 91
9, 170640, Note_on_c, 3, 56, 0
9, 170640, Note_on_c, 3, 56, 101
9, 170880, Note_on_c, 3, 56, 0
9, 170880, Note_on_c, 3, 56, 101
9, 171120, Note_on_c, 3, 56, 0
9, 171120, Note_on_c, 3, 56, 101
9, 171360, Note_on_c, 3, 56, 0
9, 171360, Note_on_c, 3, 56, 109
9, 171600, Note_on_c, 3, 56, 0
9, 171600, Note_on_c, 3, 56, 109
9, 171840, Note_on_c, 3, 56, 0
9, 171840, Note_on_c, 3, 56, 109
9, 172080, Note_on_c, 3, 56, 0
9, 172080, Note_on_c, 3, 56, 115
9, 172160, Note_on_c, 3, 56, 0
9, 172160, Note_on_c, 3, 56, 115
9, 172240, Note_on_c, 3, 56, 0
9, 172240, Note_on_c, 3, 56, 115
9, 172320, Note_on_c, 3, 56, 0
9, 172320, Note_on_c, 3, 56, 115
9, 172400, Note_on_c, 3, 56, 0
9, 172400, Note_on_c, 3, 56, 115
9, 172480, Note_on_c, 3, 56, 0
9, 172480, Note_on_c, 3, 56, 115
9, 172560, Note_on_c, 3, 56, 0
9, 172560, Note_on_c, 3, 56, 115
9, 172640, Note_on_c, 3, 56, 0
9, 172640, Note_on_c, 3, 56, 115
9, 172720, Note_on_c, 3, 56, 0
9, 172720, Note_on_c, 3, 56, 115
9, 172800, Note_on_c, 3, 56, 0
9, 172800, Note_on_c, 3, 56, 115
9, 172880, Note_on_c, 3, 56, 0
9, 172880, Note_on_c, 3, 56, 115
9, 172960, Note_on_c, 3, 56, 0
9, 172960, Note_on_c, 3, 56, 115
9, 173040, Note_on_c, 3, 56, 0
9, 173040, Note_on_c, 3, 56, 115
9, 173120, Note_on_c, 3, 56, 0
9, 173120, Note_on_c, 3, 56, 115
9, 173200, Note_on_c, 3, 56, 0
9, 173200, Note_on_c, 3, 56, 115
9, 173280, Note_on_c, 3, 56, 0
9, 173280, Note_on_c, 3, 56, 115
9, 173360, Note_on_c, 3, 56, 0
9, 173360, Note_on_c, 3, 56, 115
9, 173440, Note_on_c, 3, 56, 0
9, 173440, Note_on_c, 3, 56, 115
9, 173520, Note_on_c, 3, 56, 0
9, 173520, Note_on_c, 3, 56, 115
9, 173600, Note_on_c, 3, 56, 0
9, 173600, Note_on_c, 3, 56, 115
9, 173680, Note_on_c, 3, 56, 0
9, 173680, Note_on_c, 3, 56, 115
9, 173760, Note_on_c, 3, 56, 0
9, 173760, Note_on_c, 3, 56, 115
9, 173840, Note_on_c, 3, 56, 0
9, 173840, Note_on_c, 3, 56, 115
9, 173920, Note_on_c, 3, 56, 0
9, 173920, Note_on_c, 3, 56, 115
9, 174000, Note_on_c, 3, 56, 0
9, 174000, Note_on_c, 3, 56, 115
9, 174080, Note_on_c, 3, 56, 0
9, 174080, Note_on_c, 3, 60, 115
9, 174160, Note_on_c, 3, 60, 0
9, 174160, Note_on_c, 3, 63, 115
9, 174240, Note_on_c, 3, 63, 0
9, 174240, Note_on_c, 3, 56, 115
9, 174480, Note_on_c, 3, 56, 0
9, 174720, Note_on_c, 3, 56, 115
9, 174900, Note_on_c, 3, 56, 0
9, 174900, Note_on_c, 3, 60, 115
9, 174960, Note_on_c, 3, 60, 0
9, 174960, Note_on_c, 3, 63, 115
9, 175680, Note_on_c, 3, 63, 0
9, 175680, Note_on_c, 3, 60, 115
9, 175920, Note_on_c, 3, 60, 0
9, 176160, Note_on_c, 3, 55, 91
9, 176400, Note_on_c, 3, 55, 0
9, 176400, Note_on_c, 3, 56, 91
9, 176640, Note_on_c, 3, 56, 0
9, 176880, Note_on_c, 3, 56, 115
9, 177060, Note_on_c, 3, 56, 0
9, 177060, Note_on_c, 3, 60, 115
9, 177120, Note_on_c, 3, 60, 0
9, 177120, Note_on_c, 3, 63, 123
9, 177840, Note_on_c, 3, 63, 0
9, 177840, Note_on_c, 3, 56, 123
9, 178080, Note_on_c, 3, 56, 0
9, 178080, End_track
10, 0, Start_track
10, 0, MIDI_port, 0
10, 0, Title_t, "Horn 1"
10, 0, Program_c, 4, 60
10, 20880, Note_on_c, 4, 72, 123
10, 21600, Note_on_c, 4, 72, 0
10, 21600, Note_on_c, 4, 72, 123
10, 21840, Note_on_c, 4, 72, 0
10, 21840, Note_on_c, 4, 72, 123
10, 22080, Note_on_c, 4, 72, 0
10, 22080, Note_on_c, 4, 74, 123
10, 22320, Note_on_c, 4, 74, 0
10, 22320, Note_on_c, 4, 72, 123
10, 22560, Note_on_c, 4, 72, 0
10, 22800, Note_on_c, 4, 64, 123
10, 22980, Note_on_c, 4, 64, 0
10, 22980, Note_on_c, 4, 67, 123
10, 23040, Note_on_c, 4, 67, 0
10, 23040, Note_on_c, 4, 72, 123
10, 23280, Note_on_c, 4, 72, 0
10, 23280, Note_on_c, 4, 72, 123
10, 23520, Note_on_c, 4, 72, 0
10, 23520, Note_on_c, 4, 74, 123
10, 23760, Note_on_c, 4, 74, 0
10, 23760, Note_on_c, 4, 76, 123
10, 24240, Note_on_c, 4, 76, 0
10, 24240, Note_on_c, 4, 72, 123
10, 24420, Note_on_c, 4, 72, 0
10, 24420, Note_on_c, 4, 74, 123
10, 24480, Note_on_c, 4, 74, 0
10, 24480, Note_on_c, 4, 76, 123
10, 24720, Note_on_c, 4, 76, 0
10, 24720, Note_on_c, 4, 76, 123
10, 24960, Note_on_c, 4, 76, 0
10, 24960, Note_on_c, 4, 77, 123
10, 25200, Note_on_c, 4, 77, 0
10, 25200, Note_on_c, 4, 79, 123
10, 25680, Note_on_c, 4, 79, 0
10, 25680, Note_on_c, 4, 76, 123
10, 25860, Note_on_c, 4, 76, 0
10, 25860, Note_on_c, 4, 77, 123
10, 25920, Note_on_c, 4, 77, 0
10, 25920, Note_on_c, 4, 79, 123
10, 26400, Note_on_c, 4, 79, 0
10, 26400, Note_on_c, 4, 76, 123
10, 26580, Note_on_c, 4, 76, 0
10, 26580, Note_on_c, 4, 77, 123
10, 26640, Note_on_c, 4, 77, 0
10, 26640, Note_on_c, 4, 79, 78
10, 28320, Note_on_c, 4, 79, 0
10, 56160, Note_on_c, 4, 72, 123
10, 56880, Note_on_c, 4, 72, 0
10, 56880, Note_on_c, 4, 72, 123
10, 57120, Note_on_c, 4, 72, 0
10, 57120, Note_on_c, 4, 72, 123
10, 57360, Note_on_c, 4, 72, 0
10, 57360, Note_on_c, 4, 74, 123
10, 57600, Note_on_c, 4, 74, 0
10, 57600, Note_on_c, 4, 72, 123
10, 57840, Note_on_c, 4, 72, 0
10, 58080, Note_on_c, 4, 64, 123
10, 58260, Note_on_c, 4, 64, 0
10, 58260, Note_on_c, 4, 67, 123
10, 58320, Note_on_c, 4, 67, 0
10, 58320, Note_on_c, 4, 72, 123
10, 58560, Note_on_c, 4, 72, 0
10, 58560, Note_on_c, 4, 72, 123
10, 58800, Note_on_c, 4, 72, 0
10, 58800, Note_on_c, 4, 74, 123
10, 59040, Note_on_c, 4, 74, 0
10, 59040, Note_on_c, 4, 76, 123
10, 59520, Note_on_c, 4, 76, 0
10, 59520, Note_on_c, 4, 72, 123
10, 59700, Note_on_c, 4, 72, 0
10, 59700, Note_on_c, 4, 74, 123
10, 59760, Note_on_c, 4, 74, 0
10, 59760, Note_on_c, 4, 76, 123
10, 60000, Note_on_c, 4, 76, 0
10, 60000, Note_on_c, 4, 76, 123
10, 60240, Note_on_c, 4, 76, 0
10, 60240, Note_on_c, 4, 77, 123
10, 60480, Note_on_c, 4, 77, 0
10, 60480, Note_on_c, 4, 79, 123
10, 60960, Note_on_c, 4, 79, 0
10, 60960, Note_on_c, 4, 76, 123
10, 61140, Note_on_c, 4, 76, 0
10, 61140, Note_on_c, 4, 77, 123
10, 61200, Note_on_c, 4, 77, 0
10, 61200, Note_on_c, 4, 79, 123
10, 61680, Note_on_c, 4, 79, 0
10, 61680, Note_on_c, 4, 76, 123
10, 61860, Note_on_c, 4, 76, 0
10, 61860, Note_on_c, 4, 77, 123
10, 61920, Note_on_c, 4, 77, 0
10, 61920, Note_on_c, 4, 79, 101
10, 63600, Note_on_c, 4, 79, 0
10, 82200, Note_on_c, 4, 72, 115
10, 82320, Note_on_c, 4, 72, 0
10, 82320, Note_on_c, 4, 72, 115
10, 82440, Note_on_c, 4, 72, 0
10, 82440, Note_on_c, 4, 72, 115
10, 82560, Note_on_c, 4, 72, 0
10, 82560, Note_on_c, 4, 72, 115
10, 82680, Note_on_c, 4, 72, 0
10, 82680, Note_on_c, 4, 72, 115
10, 82800, Note_on_c, 4, 72, 0
10, 82800, Note_on_c, 4, 72, 115
10, 82920, Note_on_c, 4, 72, 0
10, 82920, Note_on_c, 4, 72, 115
10, 83040, Note_on_c, 4, 72, 0
10, 83040, Note_on_c, 4, 72, 115
10, 83160, Note_on_c, 4, 72, 0
10, 83160, Note_on_c, 4, 72, 115
10, 83280, Note_on_c, 4, 72, 0
10, 83280, Note_on_c, 4, 72, 115
10, 83400, Note_on_c, 4, 72, 0
10, 83400, Note_on_c, 4, 72, 115
10, 83520, Note_on_c, 4, 72, 0
10, 83520, Note_on_c, 4, 77, 115
10, 83640, Note_on_c, 4, 77, 0
10, 83640, Note_on_c, 4, 77, 115
10, 83760, Note_on_c, 4, 77, 0
10, 83760, Note_on_c, 4, 77, 115
10, 83880, Note_on_c, 4, 77, 0
10, 83880, Note_on_c, 4, 77, 115
10, 84000, Note_on_c, 4, 77, 0
10, 84000, Note_on_c, 4, 77, 115
10, 84120, Note_on_c, 4, 77, 0
10, 84120, Note_on_c, 4, 77, 115
10, 84240, Note_on_c, 4, 77, 0
10, 84240, Note_on_c, 4, 77, 115
10, 84360, Note_on_c, 4, 77, 0
10, 84360, Note_on_c, 4, 77, 115
10, 84480, Note_on_c, 4, 77, 0
10, 84480, Note_on_c, 4, 77, 115
10, 84600, Note_on_c, 4, 77, 0
10, 84600, Note_on_c, 4, 77, 115
10, 84720, Note_on_c, 4, 77, 0
10, 84720, Note_on_c, 4, 79, 115
10, 84840, Note_on_c, 4, 79, 0
10, 84840, Note_on_c, 4, 79, 115
10, 84960, Note_on_c, 4, 79, 0
10, 84960, Note_on_c, 4, 79, 115
10, 85080, Note_on_c, 4, 79, 0
10, 85080, Note_on_c, 4, 79, 115
10, 85200, Note_on_c, 4, 79, 0
10, 85200, Note_on_c, 4, 79, 115
10, 85320, Note_on_c, 4, 79, 0
10, 85320, Note_on_c, 4, 79, 115
10, 85440, Note_on_c, 4, 79, 0
10, 85440, Note_on_c, 4, 79, 115
10, 85560, Note_on_c, 4, 79, 0
10, 85560, Note_on_c, 4, 79, 115
10, 85680, Note_on_c, 4, 79, 0
10, 85680, Note_on_c, 4, 77, 115
10, 85800, Note_on_c, 4, 77, 0
10, 85800, Note_on_c, 4, 77, 115
10, 85920, Note_on_c, 4, 77, 0
10, 85920, Note_on_c, 4, 77, 115
10, 86040, Note_on_c, 4, 77, 0
10, 86040, Note_on_c, 4, 77, 115
10, 86160, Note_on_c, 4, 77, 0
10, 86160, Note_on_c, 4, 77, 115
10, 86280, Note_on_c, 4, 77, 0
10, 86280, Note_on_c, 4, 77, 115
10, 86400, Note_on_c, 4, 77, 0
10, 86400, Note_on_c, 4, 79, 115
10, 86520, Note_on_c, 4, 79, 0
10, 86520, Note_on_c, 4, 67, 115
10, 86640, Note_on_c, 4, 67, 0
10, 86640, Note_on_c, 4, 72, 115
10, 86760, Note_on_c, 4, 72, 0
10, 86760, Note_on_c, 4, 72, 115
10, 86880, Note_on_c, 4, 72, 0
10, 86880, Note_on_c, 4, 72, 115
10, 87000, Note_on_c, 4, 72, 0
10, 87000, Note_on_c, 4, 72, 115
10, 87120, Note_on_c, 4, 72, 0
10, 87120, Note_on_c, 4, 67, 115
10, 87360, Note_on_c, 4, 67, 0
10, 105600, Note_on_c, 4, 79, 115
10, 105720, Note_on_c, 4, 79, 0
10, 105720, Note_on_c, 4, 79, 115
10, 105840, Note_on_c, 4, 79, 0
10, 105840, Note_on_c, 4, 79, 115
10, 105960, Note_on_c, 4, 79, 0
10, 105960, Note_on_c, 4, 79, 115
10, 106080, Note_on_c, 4, 79, 0
10, 106080, Note_on_c, 4, 79, 115
10, 106200, Note_on_c, 4, 79, 0
10, 106200, Note_on_c, 4, 79, 115
10, 106320, Note_on_c, 4, 79, 0
10, 106320, Note_on_c, 4, 72, 123
10, 106440, Note_on_c, 4, 72, 0
10, 106440, Note_on_c, 4, 72, 123
10, 106560, Note_on_c, 4, 72, 0
10, 106560, Note_on_c, 4, 72, 123
10, 106800, Note_on_c, 4, 72, 0
10, 106800, Note_on_c, 4, 72, 123
10, 107040, Note_on_c, 4, 72, 0
10, 107040, Note_on_c, 4, 74, 123
10, 107280, Note_on_c, 4, 74, 0
10, 107280, Note_on_c, 4, 76, 123
10, 108480, Note_on_c, 4, 76, 0
10, 108480, Note_on_c, 4, 72, 123
10, 108660, Note_on_c, 4, 72, 0
10, 108660, Note_on_c, 4, 74, 123
10, 108720, Note_on_c, 4, 74, 0
10, 108720, Note_on_c, 4, 76, 123
10, 108960, Note_on_c, 4, 76, 0
10, 108960, Note_on_c, 4, 76, 123
10, 109200, Note_on_c, 4, 76, 0
10, 109200, Note_on_c, 4, 77, 123
10, 109440, Note_on_c, 4, 77, 0
10, 109440, Note_on_c, 4, 79, 123
10, 110640, Note_on_c, 4, 79, 0
10, 110640, Note_on_c, 4, 76, 123
10, 110820, Note_on_c, 4, 76, 0
10, 110820, Note_on_c, 4, 77, 123
10, 110880, Note_on_c, 4, 77, 0
10, 110880, Note_on_c, 4, 79, 123
10, 111360, Note_on_c, 4, 79, 0
10, 111360, Note_on_c, 4, 76, 123
10, 111540, Note_on_c, 4, 76, 0
10, 111540, Note_on_c, 4, 77, 123
10, 111600, Note_on_c, 4, 77, 0
10, 111600, Note_on_c, 4, 79, 123
10, 112080, Note_on_c, 4, 79, 0
10, 112080, Note_on_c, 4, 76, 123
10, 112260, Note_on_c, 4, 76, 0
10, 112260, Note_on_c, 4, 77, 123
10, 112320, Note_on_c, 4, 77, 0
10, 112320, Note_on_c, 4, 79, 91
10, 114000, Note_on_c, 4, 79, 0
10, 133200, Note_on_c, 4, 72, 123
10, 133920, Note_on_c, 4, 72, 0
10, 133920, Note_on_c, 4, 77, 123
10, 134640, Note_on_c, 4, 77, 0
10, 134640, Note_on_c, 4, 79, 123
10, 135360, Note_on_c, 4, 79, 0
10, 135360, Note_on_c, 4, 79, 123
10, 136080, Note_on_c, 4, 79, 0
10, 136080, Note_on_c, 4, 77, 123
10, 136800, Note_on_c, 4, 77, 0
10, 136800, Note_on_c, 4, 79, 123
10, 137040, Note_on_c, 4, 79, 0
10, 137040, Note_on_c, 4, 84, 123
10, 137520, Note_on_c, 4, 84, 0
10, 137520, Note_on_c, 4, 79, 123
10, 138240, Note_on_c, 4, 79, 0
10, 138240, Note_on_c, 4, 84, 123
10, 138960, Note_on_c, 4, 84, 0
10, 138960, Note_on_c, 4, 79, 123
10, 139680, Note_on_c, 4, 79, 0
10, 139680, Note_on_c, 4, 72, 123
10, 140400, Note_on_c, 4, 72, 0
10, 154560, Note_on_c, 4, 79, 115
10, 154800, Note_on_c, 4, 79, 0
10, 154800, Note_on_c, 4, 72, 115
10, 155040, Note_on_c, 4, 72, 0
10, 156240, Note_on_c, 4, 72, 115
10, 156480, Note_on_c, 4, 72, 0
10, 173280, Note_on_c, 4, 72, 115
10, 173360, Note_on_c, 4, 72, 0
10, 173360, Note_on_c, 4, 72, 115
10, 173440, Note_on_c, 4, 72, 0
10, 173440, Note_on_c, 4, 72, 115
10, 173520, Note_on_c, 4, 72, 0
10, 173520, Note_on_c, 4, 72, 115
10, 173600, Note_on_c, 4, 72, 0
10, 173600, Note_on_c, 4, 72, 115
10, 173680, Note_on_c, 4, 72, 0
10, 173680, Note_on_c, 4, 72, 115
10, 173760, Note_on_c, 4, 72, 0
10, 173760, Note_on_c, 4, 72, 115
10, 173840, Note_on_c, 4, 72, 0
10, 173840, Note_on_c, 4, 72, 115
10, 173920, Note_on_c, 4, 72, 0
10, 173920, Note_on_c, 4, 72, 115
10, 174000, Note_on_c, 4, 72, 0
10, 174000, Note_on_c, 4, 72, 115
10, 174080, Note_on_c, 4, 72, 0
10, 174080, Note_on_c, 4, 72, 115
10, 174160, Note_on_c, 4, 72, 0
10, 174160, Note_on_c, 4, 72, 115
10, 174240, Note_on_c, 4, 72, 0
10, 174240, Note_on_c, 4, 72, 115
10, 174480, Note_on_c, 4, 72, 0
10, 175680, Note_on_c, 4, 72, 115
10, 175920, Note_on_c, 4, 72, 0
10, 177840, Note_on_c, 4, 72, 123
10, 178080, Note_on_c, 4, 72, 0
10, 178080, End_track
11, 0, Start_track
11, 0, MIDI_port, 0
11, 0, Title_t, "Horn 2"
11, 20880, Note_on_c, 4, 60, 123
11, 21600, Note_on_c, 4, 60, 0
11, 21600, Note_on_c, 4, 60, 123
11, 21840, Note_on_c, 4, 60, 0
11, 21840, Note_on_c, 4, 64, 123
11, 22080, Note_on_c, 4, 64, 0
11, 22080, Note_on_c, 4, 67, 123
11, 22320, Note_on_c, 4, 67, 0
11, 22320, Note_on_c, 4, 64, 123
11, 22560, Note_on_c, 4, 64, 0
11, 22800, Note_on_c, 4, 64, 123
11, 22980, Note_on_c, 4, 64, 0
11, 22980, Note_on_c, 4, 67, 123
11, 23040, Note_on_c, 4, 67, 0
11, 23040, Note_on_c, 4, 64, 123
11, 23280, Note_on_c, 4, 64, 0
11, 23280, Note_on_c, 4, 64, 123
11, 23520, Note_on_c, 4, 64, 0
11, 23520, Note_on_c, 4, 67, 123
11, 23760, Note_on_c, 4, 67, 0
11, 23760, Note_on_c, 4, 72, 123
11, 24240, Note_on_c, 4, 72, 0
11, 24240, Note_on_c, 4, 64, 123
11, 24420, Note_on_c, 4, 64, 0
11, 24420, Note_on_c, 4, 67, 123
11, 24480, Note_on_c, 4, 67, 0
11, 24480, Note_on_c, 4, 72, 123
11, 24720, Note_on_c, 4, 72, 0
11, 24720, Note_on_c, 4, 72, 123
11, 24960, Note_on_c, 4, 72, 0
11, 24960, Note_on_c, 4, 74, 123
11, 25200, Note_on_c, 4, 74, 0
11, 25200, Note_on_c, 4, 76, 123
11, 25680, Note_on_c, 4, 76, 0
11, 25680, Note_on_c, 4, 72, 123
11, 25860, Note_on_c, 4, 72, 0
11, 25860, Note_on_c, 4, 74, 123
11, 25920, Note_on_c, 4, 74, 0
11, 25920, Note_on_c, 4, 76, 123
11, 26400, Note_on_c, 4, 76, 0
11, 26400, Note_on_c, 4, 72, 123
11, 26580, Note_on_c, 4, 72, 0
11, 26580, Note_on_c, 4, 74, 123
11, 26640, Note_on_c, 4, 74, 0
11, 26640, Note_on_c, 4, 76, 78
11, 28320, Note_on_c, 4, 76, 0
11, 56160, Note_on_c, 4, 60, 123
11, 56880, Note_on_c, 4, 60, 0
11, 56880, Note_on_c, 4, 60, 123
11, 57120, Note_on_c, 4, 60, 0
11, 57120, Note_on_c, 4, 64, 123
11, 57360, Note_on_c, 4, 64, 0
11, 57360, Note_on_c, 4, 67, 123
11, 57600, Note_on_c, 4, 67, 0
11, 57600, Note_on_c, 4, 64, 123
11, 57840, Note_on_c, 4, 64, 0
11, 58080, Note_on_c, 4, 64, 123
11, 58260, Note_on_c, 4, 64, 0
11, 58260, Note_on_c, 4, 67, 123
11, 58320, Note_on_c, 4, 67, 0
11, 58320, Note_on_c, 4, 64, 123
11, 58560, Note_on_c, 4, 64, 0
11, 58560, Note_on_c, 4, 64, 123
11, 58800, Note_on_c, 4, 64, 0
11, 58800, Note_on_c, 4, 67, 123
11, 59040, Note_on_c, 4, 67, 0
11, 59040, Note_on_c, 4, 72, 123
11, 59520, Note_on_c, 4, 72, 0
11, 59520, Note_on_c, 4, 64, 123
11, 59700, Note_on_c, 4, 64, 0
11, 59700, Note_on_c, 4, 67, 123
11, 59760, Note_on_c, 4, 67, 0
11, 59760, Note_on_c, 4, 72, 123
11, 60000, Note_on_c, 4, 72, 0
11, 60000, Note_on_c, 4, 72, 123
11, 60240, Note_on_c, 4, 72, 0
11, 60240, Note_on_c, 4, 74, 123
11, 60480, Note_on_c, 4, 74, 0
11, 60480, Note_on_c, 4, 76, 123
11, 60960, Note_on_c, 4, 76, 0
11, 60960, Note_on_c, 4, 72, 123
11, 61140, Note_on_c, 4, 72, 0
11, 61140, Note_on_c, 4, 74, 123
11, 61200, Note_on_c, 4, 74, 0
11, 61200, Note_on_c, 4, 76, 123
11, 61680, Note_on_c, 4, 76, 0
11, 61680, Note_on_c, 4, 72, 123
11, 61860, Note_on_c, 4, 72, 0
11, 61860, Note_on_c, 4, 74, 123
11, 61920, Note_on_c, 4, 74, 0
11, 61920, Note_on_c, 4, 76, 101
11, 63600, Note_on_c, 4, 76, 0
11, 82200, Note_on_c, 4, 72, 115
11, 82320, Note_on_c, 4, 72, 0
11, 82320, Note_on_c, 4, 72, 115
11, 82440, Note_on_c, 4, 72, 0
11, 82440, Note_on_c, 4, 72, 115
11, 82560, Note_on_c, 4, 72, 0
11, 82560, Note_on_c, 4, 72, 115
11, 82680, Note_on_c, 4, 72, 0
11, 82680, Note_on_c, 4, 72, 115
11, 82800, Note_on_c, 4, 72, 0
11, 82800, Note_on_c, 4, 72, 115
11, 82920, Note_on_c, 4, 72, 0
11, 82920, Note_on_c, 4, 72, 115
11, 83040, Note_on_c, 4, 72, 0
11, 83040, Note_on_c, 4, 72, 115
11, 83160, Note_on_c, 4, 72, 0
11, 83160, Note_on_c, 4, 72, 115
11, 83280, Note_on_c, 4, 72, 0
11, 83280, Note_on_c, 4, 72, 115
11, 83400, Note_on_c, 4, 72, 0
11, 83400, Note_on_c, 4, 72, 115
11, 83520, Note_on_c, 4, 72, 0
11, 83520, Note_on_c, 4, 77, 115
11, 83640, Note_on_c, 4, 77, 0
11, 83640, Note_on_c, 4, 77, 115
11, 83760, Note_on_c, 4, 77, 0
11, 83760, Note_on_c, 4, 77, 115
11, 83880, Note_on_c, 4, 77, 0
11, 83880, Note_on_c, 4, 77, 115
11, 84000, Note_on_c, 4, 77, 0
11, 84000, Note_on_c, 4, 77, 115
11, 84120, Note_on_c, 4, 77, 0
11, 84120, Note_on_c, 4, 77, 115
11, 84240, Note_on_c, 4, 77, 0
11, 84240, Note_on_c, 4, 77, 115
11, 84360, Note_on_c, 4, 77, 0
11, 84360, Note_on_c, 4, 77, 115
11, 84480, Note_on_c, 4, 77, 0
11, 84480, Note_on_c, 4, 77, 115
11, 84600, Note_on_c, 4, 77, 0
11, 84600, Note_on_c, 4, 77, 115
11, 84720, Note_on_c, 4, 77, 0
11, 84720, Note_on_c, 4, 67, 115
11, 84840, Note_on_c, 4, 67, 0
11, 84840, Note_on_c, 4, 67, 115
11, 84960, Note_on_c, 4, 67, 0
11, 84960, Note_on_c, 4, 72, 115
11, 85080, Note_on_c, 4, 72, 0
11, 85080, Note_on_c, 4, 72, 115
11, 85200, Note_on_c, 4, 72, 0
11, 85200, Note_on_c, 4, 72, 115
11, 85320, Note_on_c, 4, 72, 0
11, 85320, Note_on_c, 4, 72, 115
11, 85440, Note_on_c, 4, 72, 0
11, 85440, Note_on_c, 4, 72, 115
11, 85560, Note_on_c, 4, 72, 0
11, 85560, Note_on_c, 4, 72, 115
11, 85680, Note_on_c, 4, 72, 0
11, 85680, Note_on_c, 4, 77, 115
11, 85800, Note_on_c, 4, 77, 0
11, 85800, Note_on_c, 4, 77, 115
11, 85920, Note_on_c, 4, 77, 0
11, 85920, Note_on_c, 4, 77, 115
11, 86040, Note_on_c, 4, 77, 0
11, 86040, Note_on_c, 4, 77, 115
11, 86160, Note_on_c, 4, 77, 0
11, 86160, Note_on_c, 4, 77, 115
11, 86280, Note_on_c, 4, 77, 0
11, 86280, Note_on_c, 4, 77, 115
11, 86400, Note_on_c, 4, 77, 0
11, 86400, Note_on_c, 4, 79, 115
11, 86520, Note_on_c, 4, 79, 0
11, 86520, Note_on_c, 4, 67, 115
11, 86640, Note_on_c, 4, 67, 0
11, 86640, Note_on_c, 4, 60, 115
11, 86760, Note_on_c, 4, 60, 0
11, 86760, Note_on_c, 4, 60, 115
11, 86880, Note_on_c, 4, 60, 0
11, 86880, Note_on_c, 4, 60, 115
11, 87000, Note_on_c, 4, 60, 0
11, 87000, Note_on_c, 4, 60, 115
11, 87120, Note_on_c, 4, 60, 0
11, 87120, Note_on_c, 4, 67, 115
11, 87360, Note_on_c, 4, 67, 0
11, 105600, Note_on_c, 4, 67, 115
11, 105720, Note_on_c, 4, 67, 0
11, 105720, Note_on_c, 4, 67, 115
11, 105840, Note_on_c, 4, 67, 0
11, 105840, Note_on_c, 4, 67, 115
11, 105960, Note_on_c, 4, 67, 0
11, 105960, Note_on_c, 4, 67, 115
11, 106080, Note_on_c, 4, 67, 0
11, 106080, Note_on_c, 4, 67, 115
11, 106200, Note_on_c, 4, 67, 0
11, 106200, Note_on_c, 4, 67, 115
11, 106320, Note_on_c, 4, 67, 0
11, 106320, Note_on_c, 4, 60, 123
11, 106440, Note_on_c, 4, 60, 0
11, 106440, Note_on_c, 4, 60, 123
11, 106560, Note_on_c, 4, 60, 0
11, 106560, Note_on_c, 4, 60, 123
11, 106800, Note_on_c, 4, 60, 0
11, 106800, Note_on_c, 4, 64, 123
11, 107040, Note_on_c, 4, 64, 0
11, 107040, Note_on_c, 4, 67, 123
11, 107280, Note_on_c, 4, 67, 0
11, 107280, Note_on_c, 4, 72, 123
11, 108480, Note_on_c, 4, 72, 0
11, 108480, Note_on_c, 4, 64, 123
11, 108660, Note_on_c, 4, 64, 0
11, 108660, Note_on_c, 4, 67, 123
11, 108720, Note_on_c, 4, 67, 0
11, 108720, Note_on_c, 4, 72, 123
11, 108960, Note_on_c, 4, 72, 0
11, 108960, Note_on_c, 4, 72, 123
11, 109200, Note_on_c, 4, 72, 0
11, 109200, Note_on_c, 4, 74, 123
11, 109440, Note_on_c, 4, 74, 0
11, 109440, Note_on_c, 4, 76, 123
11, 110640, Note_on_c, 4, 76, 0
11, 110640, Note_on_c, 4, 72, 123
11, 110820, Note_on_c, 4, 72, 0
11, 110820, Note_on_c, 4, 74, 123
11, 110880, Note_on_c, 4, 74, 0
11, 110880, Note_on_c, 4, 76, 123
11, 111360, Note_on_c, 4, 76, 0
11, 111360, Note_on_c, 4, 72, 123
11, 111540, Note_on_c, 4, 72, 0
11, 111540, Note_on_c, 4, 74, 123
11, 111600, Note_on_c, 4, 74, 0
11, 111600, Note_on_c, 4, 76, 123
11, 112080, Note_on_c, 4, 76, 0
11, 112080, Note_on_c, 4, 72, 123
11, 112260, Note_on_c, 4, 72, 0
11, 112260, Note_on_c, 4, 74, 123
11, 112320, Note_on_c, 4, 74, 0
11, 112320, Note_on_c, 4, 76, 91
11, 114000, Note_on_c, 4, 76, 0
11, 133200, Note_on_c, 4, 60, 123
11, 133920, Note_on_c, 4, 60, 0
11, 133920, Note_on_c, 4, 77, 123
11, 134640, Note_on_c, 4, 77, 0
11, 134640, Note_on_c, 4, 77, 123
11, 135360, Note_on_c, 4, 77, 0
11, 135360, Note_on_c, 4, 72, 123
11, 136080, Note_on_c, 4, 72, 0
11, 136080, Note_on_c, 4, 77, 123
11, 136800, Note_on_c, 4, 77, 0
11, 136800, Note_on_c, 4, 79, 123
11, 137040, Note_on_c, 4, 79, 0
11, 137040, Note_on_c, 4, 72, 123
11, 137520, Note_on_c, 4, 72, 0
11, 137520, Note_on_c, 4, 79, 123
11, 138240, Note_on_c, 4, 79, 0
11, 138240, Note_on_c, 4, 72, 123
11, 138960, Note_on_c, 4, 72, 0
11, 138960, Note_on_c, 4, 79, 123
11, 139680, Note_on_c, 4, 79, 0
11, 139680, Note_on_c, 4, 72, 123
11, 140400, Note_on_c, 4, 72, 0
11, 154560, Note_on_c, 4, 79, 115
11, 154800, Note_on_c, 4, 79, 0
11, 154800, Note_on_c, 4, 72, 115
11, 155040, Note_on_c, 4, 72, 0
11, 156240, Note_on_c, 4, 72, 115
11, 156480, Note_on_c, 4, 72, 0
11, 173280, Note_on_c, 4, 72, 115
11, 173360, Note_on_c, 4, 72, 0
11, 173360, Note_on_c, 4, 72, 115
11, 173440, Note_on_c, 4, 72, 0
11, 173440, Note_on_c, 4, 72, 115
11, 173520, Note_on_c, 4, 72, 0
11, 173520, Note_on_c, 4, 72, 115
11, 173600, Note_on_c, 4, 72, 0
11, 173600, Note_on_c, 4, 72, 115
11, 173680, Note_on_c, 4, 72, 0
11, 173680, Note_on_c, 4, 72, 115
11, 173760, Note_on_c, 4, 72, 0
11, 173760, Note_on_c, 4, 72, 115
11, 173840, Note_on_c, 4, 72, 0
11, 173840, Note_on_c, 4, 72, 115
11, 173920, Note_on_c, 4, 72, 0
11, 173920, Note_on_c, 4, 72, 115
11, 174000, Note_on_c, 4, 72, 0
11, 174000, Note_on_c, 4, 72, 115
11, 174080, Note_on_c, 4, 72, 0
11, 174080, Note_on_c, 4, 72, 115
11, 174160, Note_on_c, 4, 72, 0
11, 174160, Note_on_c, 4, 72, 115
11, 174240, Note_on_c, 4, 72, 0
11, 174240, Note_on_c, 4, 72, 115
11, 174480, Note_on_c, 4, 72, 0
11, 175680, Note_on_c, 4, 72, 115
11, 175920, Note_on_c, 4, 72, 0
11, 177840, Note_on_c, 4, 72, 123
11, 178080, Note_on_c, 4, 72, 0
11, 178080, End_track
12, 0, Start_track
12, 0, MIDI_port, 0
12, 0, Title_t, "Trumpet 1"
12, 0, Program_c, 5, 56
12, 20880, Note_on_c, 5, 72, 123
12, 21600, Note_on_c, 5, 72, 0
12, 21600, Note_on_c, 5, 72, 123
12, 21840, Note_on_c, 5, 72, 0
12, 21840, Note_on_c, 5, 72, 123
12, 22080, Note_on_c, 5, 72, 0
12, 22080, Note_on_c, 5, 74, 123
12, 22320, Note_on_c, 5, 74, 0
12, 22320, Note_on_c, 5, 72, 123
12, 22560, Note_on_c, 5, 72, 0
12, 22800, Note_on_c, 5, 64, 123
12, 22980, Note_on_c, 5, 64, 0
12, 22980, Note_on_c, 5, 67, 123
12, 23040, Note_on_c, 5, 67, 0
12, 23040, Note_on_c, 5, 72, 123
12, 23280, Note_on_c, 5, 72, 0
12, 23280, Note_on_c, 5, 72, 123
12, 23520, Note_on_c, 5, 72, 0
12, 23520, Note_on_c, 5, 74, 123
12, 23760, Note_on_c, 5, 74, 0
12, 23760, Note_on_c, 5, 76, 123
12, 24240, Note_on_c, 5, 76, 0
12, 24240, Note_on_c, 5, 72, 123
12, 24420, Note_on_c, 5, 72, 0
12, 24420, Note_on_c, 5, 74, 123
12, 24480, Note_on_c, 5, 74, 0
12, 24480, Note_on_c, 5, 76, 123
12, 24720, Note_on_c, 5, 76, 0
12, 24720, Note_on_c, 5, 76, 123
12, 24960, Note_on_c, 5, 76, 0
12, 24960, Note_on_c, 5, 77, 123
12, 25200, Note_on_c, 5, 77, 0
12, 25200, Note_on_c, 5, 79, 123
12, 25680, Note_on_c, 5, 79, 0
12, 25680, Note_on_c, 5, 76, 123
12, 25860, Note_on_c, 5, 76, 0
12, 25860, Note_on_c, 5, 77, 123
12, 25920, Note_on_c, 5, 77, 0
12, 25920, Note_on_c, 5, 79, 123
12, 26400, Note_on_c, 5, 79, 0
12, 26400, Note_on_c, 5, 76, 123
12, 26580, Note_on_c, 5, 76, 0
12, 26580, Note_on_c, 5, 77, 123
12, 26640, Note_on_c, 5, 77, 0
12, 26640, Note_on_c, 5, 79, 78
12, 27600, Note_on_c, 5, 79, 0
12, 56160, Note_on_c, 5, 72, 123
12, 56880, Note_on_c, 5, 72, 0
12, 56880, Note_on_c, 5, 72, 123
12, 57120, Note_on_c, 5, 72, 0
12, 57120, Note_on_c, 5, 72, 123
12, 57360, Note_on_c, 5, 72, 0
12, 57360, Note_on_c, 5, 74, 123
12, 57600, Note_on_c, 5, 74, 0
12, 57600, Note_on_c, 5, 72, 123
12, 57840, Note_on_c, 5, 72, 0
12, 58080, Note_on_c, 5, 64, 123
12, 58260, Note_on_c, 5, 64, 0
12, 58260, Note_on_c, 5, 67, 123
12, 58320, Note_on_c, 5, 67, 0
12, 58320, Note_on_c, 5, 72, 123
12, 58560, Note_on_c, 5, 72, 0
12, 58560, Note_on_c, 5, 72, 123
12, 58800, Note_on_c, 5, 72, 0
12, 58800, Note_on_c, 5, 74, 123
12, 59040, Note_on_c, 5, 74, 0
12, 59040, Note_on_c, 5, 76, 123
12, 59520, Note_on_c, 5, 76, 0
12, 59520, Note_on_c, 5, 72, 123
12, 59700, Note_on_c, 5, 72, 0
12, 59700, Note_on_c, 5, 74, 123
12, 59760, Note_on_c, 5, 74, 0
12, 59760, Note_on_c, 5, 76, 123
12, 60000, Note_on_c, 5, 76, 0
12, 60000, Note_on_c, 5, 76, 123
12, 60240, Note_on_c, 5, 76, 0
12, 60240, Note_on_c, 5, 77, 123
12, 60480, Note_on_c, 5, 77, 0
12, 60480, Note_on_c, 5, 79, 123
12, 60960, Note_on_c, 5, 79, 0
12, 60960, Note_on_c, 5, 76, 123
12, 61140, Note_on_c, 5, 76, 0
12, 61140, Note_on_c, 5, 77, 123
12, 61200, Note_on_c, 5, 77, 0
12, 61200, Note_on_c, 5, 79, 123
12, 61680, Note_on_c, 5, 79, 0
12, 61680, Note_on_c, 5, 76, 123
12, 61860, Note_on_c, 5, 76, 0
12, 61860, Note_on_c, 5, 77, 123
12, 61920, Note_on_c, 5, 77, 0
12, 61920, Note_on_c, 5, 79, 101
12, 62880, Note_on_c, 5, 79, 0
12, 82200, Note_on_c, 5, 72, 115
12, 82320, Note_on_c, 5, 72, 0
12, 82320, Note_on_c, 5, 72, 115
12, 82440, Note_on_c, 5, 72, 0
12, 82440, Note_on_c, 5, 72, 115
12, 82560, Note_on_c, 5, 72, 0
12, 82560, Note_on_c, 5, 72, 115
12, 82680, Note_on_c, 5, 72, 0
12, 82680, Note_on_c, 5, 72, 115
12, 82800, Note_on_c, 5, 72, 0
12, 82800, Note_on_c, 5, 72, 115
12, 82920, Note_on_c, 5, 72, 0
12, 82920, Note_on_c, 5, 72, 115
12, 83040, Note_on_c, 5, 72, 0
12, 83040, Note_on_c, 5, 72, 115
12, 83160, Note_on_c, 5, 72, 0
12, 83160, Note_on_c, 5, 72, 115
12, 83280, Note_on_c, 5, 72, 0
12, 83280, Note_on_c, 5, 72, 115
12, 83400, Note_on_c, 5, 72, 0
12, 83400, Note_on_c, 5, 72, 115
12, 83520, Note_on_c, 5, 72, 0
12, 84720, Note_on_c, 5, 67, 115
12, 84840, Note_on_c, 5, 67, 0
12, 84840, Note_on_c, 5, 67, 115
12, 84960, Note_on_c, 5, 67, 0
12, 84960, Note_on_c, 5, 72, 115
12, 85080, Note_on_c, 5, 72, 0
12, 85080, Note_on_c, 5, 72, 115
12, 85200, Note_on_c, 5, 72, 0
12, 85200, Note_on_c, 5, 72, 115
12, 85320, Note_on_c, 5, 72, 0
12, 85320, Note_on_c, 5, 72, 115
12, 85440, Note_on_c, 5, 72, 0
12, 85440, Note_on_c, 5, 72, 115
12, 85560, Note_on_c, 5, 72, 0
12, 85560, Note_on_c, 5, 72, 115
12, 85680, Note_on_c, 5, 72, 0
12, 86640, Note_on_c, 5, 72, 115
12, 86760, Note_on_c, 5, 72, 0
12, 86760, Note_on_c, 5, 72, 115
12, 86880, Note_on_c, 5, 72, 0
12, 86880, Note_on_c, 5, 72, 115
12, 87000, Note_on_c, 5, 72, 0
12, 87000, Note_on_c, 5, 72, 115
12, 87120, Note_on_c, 5, 72, 0
12, 87120, Note_on_c, 5, 67, 115
12, 87360, Note_on_c, 5, 67, 0
12, 106320, Note_on_c, 5, 72, 123
12, 106440, Note_on_c, 5, 72, 0
12, 106440, Note_on_c, 5, 72, 123
12, 106560, Note_on_c, 5, 72, 0
12, 106560, Note_on_c, 5, 72, 123
12, 106800, Note_on_c, 5, 72, 0
12, 106800, Note_on_c, 5, 72, 123
12, 107040, Note_on_c, 5, 72, 0
12, 107040, Note_on_c, 5, 74, 123
12, 107280, Note_on_c, 5, 74, 0
12, 107280, Note_on_c, 5, 76, 123
12, 108480, Note_on_c, 5, 76, 0
12, 108480, Note_on_c, 5, 72, 123
12, 108660, Note_on_c, 5, 72, 0
12, 108660, Note_on_c, 5, 74, 123
12, 108720, Note_on_c, 5, 74, 0
12, 108720, Note_on_c, 5, 76, 123
12, 108960, Note_on_c, 5, 76, 0
12, 108960, Note_on_c, 5, 76, 123
12, 109200, Note_on_c, 5, 76, 0
12, 109200, Note_on_c, 5, 77, 123
12, 109440, Note_on_c, 5, 77, 0
12, 109440, Note_on_c, 5, 79, 123
12, 110640, Note_on_c, 5, 79, 0
12, 110640, Note_on_c, 5, 76, 123
12, 110820, Note_on_c, 5, 76, 0
12, 110820, Note_on_c, 5, 77, 123
12, 110880, Note_on_c, 5, 77, 0
12, 110880, Note_on_c, 5, 79, 123
12, 111360, Note_on_c, 5, 79, 0
12, 111360, Note_on_c, 5, 76, 123
12, 111540, Note_on_c, 5, 76, 0
12, 111540, Note_on_c, 5, 77, 123
12, 111600, Note_on_c, 5, 77, 0
12, 111600, Note_on_c, 5, 79, 123
12, 112080, Note_on_c, 5, 79, 0
12, 112080, Note_on_c, 5, 76, 123
12, 112260, Note_on_c, 5, 76, 0
12, 112260, Note_on_c, 5, 77, 123
12, 112320, Note_on_c, 5, 77, 0
12, 112320, Note_on_c, 5, 79, 91
12, 114000, Note_on_c, 5, 79, 0
12, 133200, Note_on_c, 5, 72, 123
12, 133920, Note_on_c, 5, 72, 0
12, 134640, Note_on_c, 5, 67, 123
12, 134880, Note_on_c, 5, 67, 0
12, 134880, Note_on_c, 5, 67, 123
12, 135120, Note_on_c, 5, 67, 0
12, 135120, Note_on_c, 5, 67, 123
12, 135360, Note_on_c, 5, 67, 0
12, 135360, Note_on_c, 5, 72, 123
12, 135600, Note_on_c, 5, 72, 0
12, 135600, Note_on_c, 5, 72, 123
12, 135840, Note_on_c, 5, 72, 0
12, 135840, Note_on_c, 5, 72, 123
12, 136080, Note_on_c, 5, 72, 0
12, 136320, Note_on_c, 5, 77, 123
12, 136560, Note_on_c, 5, 77, 0
12, 136560, Note_on_c, 5, 77, 123
12, 136800, Note_on_c, 5, 77, 0
12, 136800, Note_on_c, 5, 67, 123
12, 137040, Note_on_c, 5, 67, 0
12, 137040, Note_on_c, 5, 72, 123
12, 137280, Note_on_c, 5, 72, 0
12, 137280, Note_on_c, 5, 72, 123
12, 137520, Note_on_c, 5, 72, 0
12, 137520, Note_on_c, 5, 67, 123
12, 137760, Note_on_c, 5, 67, 0
12, 138240, Note_on_c, 5, 72, 123
12, 138480, Note_on_c, 5, 72, 0
12, 139680, Note_on_c, 5, 72, 123
12, 139920, Note_on_c, 5, 72, 0
12, 154800, Note_on_c, 5, 72, 115
12, 155040, Note_on_c, 5, 72, 0
12, 156240, Note_on_c, 5, 72, 115
12, 156480, Note_on_c, 5, 72, 0
12, 173280, Note_on_c, 5, 72, 115
12, 173360, Note_on_c, 5, 72, 0
12, 173360, Note_on_c, 5, 72, 115
12, 173440, Note_on_c, 5, 72, 0
12, 173440, Note_on_c, 5, 72, 115
12, 173520, Note_on_c, 5, 72, 0
12, 173520, Note_on_c, 5, 72, 115
12, 173760, Note_on_c, 5, 72, 0
12, 173760, Note_on_c, 5, 72, 115
12, 174000, Note_on_c, 5, 72, 0
12, 174000, Note_on_c, 5, 72, 115
12, 174240, Note_on_c, 5, 72, 0
12, 174240, Note_on_c, 5, 72, 115
12, 174480, Note_on_c, 5, 72, 0
12, 175680, Note_on_c, 5, 72, 115
12, 175920, Note_on_c, 5, 72, 0
12, 177840, Note_on_c, 5, 72, 123
12, 178080, Note_on_c, 5, 72, 0
12, 178080, End_track
13, 0, Start_track
13, 0, MIDI_port, 0
13, 0, Title_t, "Trumpet 2"
13, 20880, Note_on_c, 5, 60, 123
13, 21600, Note_on_c, 5, 60, 0
13, 21600, Note_on_c, 5, 60, 123
13, 21840, Note_on_c, 5, 60, 0
13, 21840, Note_on_c, 5, 64, 123
13, 22080, Note_on_c, 5, 64, 0
13, 22080, Note_on_c, 5, 67, 123
13, 22320, Note_on_c, 5, 67, 0
13, 22320, Note_on_c, 5, 64, 123
13, 22560, Note_on_c, 5, 64, 0
13, 22800, Note_on_c, 5, 64, 123
13, 22980, Note_on_c, 5, 64, 0
13, 22980, Note_on_c, 5, 67, 123
13, 23040, Note_on_c, 5, 67, 0
13, 23040, Note_on_c, 5, 64, 123
13, 23280, Note_on_c, 5, 64, 0
13, 23280, Note_on_c, 5, 64, 123
13, 23520, Note_on_c, 5, 64, 0
13, 23520, Note_on_c, 5, 67, 123
13, 23760, Note_on_c, 5, 67, 0
13, 23760, Note_on_c, 5, 72, 123
13, 24240, Note_on_c, 5, 72, 0
13, 24240, Note_on_c, 5, 64, 123
13, 24420, Note_on_c, 5, 64, 0
13, 24420, Note_on_c, 5, 67, 123
13, 24480, Note_on_c, 5, 67, 0
13, 24480, Note_on_c, 5, 72, 123
13, 24720, Note_on_c, 5, 72, 0
13, 24720, Note_on_c, 5, 72, 123
13, 24960, Note_on_c, 5, 72, 0
13, 24960, Note_on_c, 5, 74, 123
13, 25200, Note_on_c, 5, 74, 0
13, 25200, Note_on_c, 5, 76, 123
13, 25680, Note_on_c, 5, 76, 0
13, 25680, Note_on_c, 5, 72, 123
13, 25860, Note_on_c, 5, 72, 0
13, 25860, Note_on_c, 5, 74, 123
13, 25920, Note_on_c, 5, 74, 0
13, 25920, Note_on_c, 5, 76, 123
13, 26400, Note_on_c, 5, 76, 0
13, 26400, Note_on_c, 5, 72, 123
13, 26580, Note_on_c, 5, 72, 0
13, 26580, Note_on_c, 5, 74, 123
13, 26640, Note_on_c, 5, 74, 0
13, 26640, Note_on_c, 5, 76, 78
13, 27600, Note_on_c, 5, 76, 0
13, 56160, Note_on_c, 5, 60, 123
13, 56880, Note_on_c, 5, 60, 0
13, 56880, Note_on_c, 5, 60, 123
13, 57120, Note_on_c, 5, 60, 0
13, 57120, Note_on_c, 5, 64, 123
13, 57360, Note_on_c, 5, 64, 0
13, 57360, Note_on_c, 5, 67, 123
13, 57600, Note_on_c, 5, 67, 0
13, 57600, Note_on_c, 5, 64, 123
13, 57840, Note_on_c, 5, 64, 0
13, 58080, Note_on_c, 5, 64, 123
13, 58260, Note_on_c, 5, 64, 0
13, 58260, Note_on_c, 5, 67, 123
13, 58320, Note_on_c, 5, 67, 0
13, 58320, Note_on_c, 5, 64, 123
13, 58560, Note_on_c, 5, 64, 0
13, 58560, Note_on_c, 5, 64, 123
13, 58800, Note_on_c, 5, 64, 0
13, 58800, Note_on_c, 5, 67, 123
13, 59040, Note_on_c, 5, 67, 0
13, 59040, Note_on_c, 5, 72, 123
13, 59520, Note_on_c, 5, 72, 0
13, 59520, Note_on_c, 5, 64, 123
13, 59700, Note_on_c, 5, 64, 0
13, 59700, Note_on_c, 5, 67, 123
13, 59760, Note_on_c, 5, 67, 0
13, 59760, Note_on_c, 5, 72, 123
13, 60000, Note_on_c, 5, 72, 0
13, 60000, Note_on_c, 5, 72, 123
13, 60240, Note_on_c, 5, 72, 0
13, 60240, Note_on_c, 5, 74, 123
13, 60480, Note_on_c, 5, 74, 0
13, 60480, Note_on_c, 5, 76, 123
13, 60960, Note_on_c, 5, 76, 0
13, 60960, Note_on_c, 5, 72, 123
13, 61140, Note_on_c, 5, 72, 0
13, 61140, Note_on_c, 5, 74, 123
13, 61200, Note_on_c, 5, 74, 0
13, 61200, Note_on_c, 5, 76, 123
13, 61680, Note_on_c, 5, 76, 0
13, 61680, Note_on_c, 5, 72, 123
13, 61860, Note_on_c, 5, 72, 0
13, 61860, Note_on_c, 5, 74, 123
13, 61920, Note_on_c, 5, 74, 0
13, 61920, Note_on_c, 5, 76, 101
13, 62880, Note_on_c, 5, 76, 0
13, 82200, Note_on_c, 5, 60, 115
13, 82320, Note_on_c, 5, 60, 0
13, 82320, Note_on_c, 5, 60, 115
13, 82440, Note_on_c, 5, 60, 0
13, 82440, Note_on_c, 5, 60, 115
13, 82560, Note_on_c, 5, 60, 0
13, 82560, Note_on_c, 5, 60, 115
13, 82680, Note_on_c, 5, 60, 0
13, 82680, Note_on_c, 5, 60, 115
13, 82800, Note_on_c, 5, 60, 0
13, 82800, Note_on_c, 5, 60, 115
13, 82920, Note_on_c, 5, 60, 0
13, 82920, Note_on_c, 5, 60, 115
13, 83040, Note_on_c, 5, 60, 0
13, 83040, Note_on_c, 5, 60, 115
13, 83160, Note_on_c, 5, 60, 0
13, 83160, Note_on_c, 5, 60, 115
13, 83280, Note_on_c, 5, 60, 0
13, 83280, Note_on_c, 5, 60, 115
13, 83400, Note_on_c, 5, 60, 0
13, 83400, Note_on_c, 5, 60, 115
13, 83520, Note_on_c, 5, 60, 0
13, 84720, Note_on_c, 5, 67, 115
13, 84840, Note_on_c, 5, 67, 0
13, 84840, Note_on_c, 5, 67, 115
13, 84960, Note_on_c, 5, 67, 0
13, 84960, Note_on_c, 5, 60, 115
13, 85080, Note_on_c, 5, 60, 0
13, 85080, Note_on_c, 5, 60, 115
13, 85200, Note_on_c, 5, 60, 0
13, 85200, Note_on_c, 5, 60, 115
13, 85320, Note_on_c, 5, 60, 0
13, 85320, Note_on_c, 5, 60, 115
13, 85440, Note_on_c, 5, 60, 0
13, 85440, Note_on_c, 5, 60, 115
13, 85560, Note_on_c, 5, 60, 0
13, 85560, Note_on_c, 5, 60, 115
13, 85680, Note_on_c, 5, 60, 0
13, 86640, Note_on_c, 5, 60, 115
13, 86760, Note_on_c, 5, 60, 0
13, 86760, Note_on_c, 5, 60, 115
13, 86880, Note_on_c, 5, 60, 0
13, 86880, Note_on_c, 5, 60, 115
13, 87000, Note_on_c, 5, 60, 0
13, 87000, Note_on_c, 5, 60, 115
13, 87120, Note_on_c, 5, 60, 0
13, 87120, Note_on_c, 5, 55, 115
13, 87360, Note_on_c, 5, 55, 0
13, 106320, Note_on_c, 5, 60, 123
13, 106440, Note_on_c, 5, 60, 0
13, 106440, Note_on_c, 5, 60, 123
13, 106560, Note_on_c, 5, 60, 0
13, 106560, Note_on_c, 5, 60, 123
13, 106800, Note_on_c, 5, 60, 0
13, 106800, Note_on_c, 5, 64, 123
13, 107040, Note_on_c, 5, 64, 0
13, 107040, Note_on_c, 5, 67, 123
13, 107280, Note_on_c, 5, 67, 0
13, 107280, Note_on_c, 5, 72, 123
13, 108480, Note_on_c, 5, 72, 0
13, 108480, Note_on_c, 5, 64, 123
13, 108660, Note_on_c, 5, 64, 0
13, 108660, Note_on_c, 5, 67, 123
13, 108720, Note_on_c, 5, 67, 0
13, 108720, Note_on_c, 5, 72, 123
13, 108960, Note_on_c, 5, 72, 0
13, 108960, Note_on_c, 5, 72, 123
13, 109200, Note_on_c, 5, 72, 0
13, 109200, Note_on_c, 5, 74, 123
13, 109440, Note_on_c, 5, 74, 0
13, 109440, Note_on_c, 5, 76, 123
13, 110640, Note_on_c, 5, 76, 0
13, 110640, Note_on_c, 5, 72, 123
13, 110820, Note_on_c, 5, 72, 0
13, 110820, Note_on_c, 5, 74, 123
13, 110880, Note_on_c, 5, 74, 0
13, 110880, Note_on_c, 5, 76, 123
13, 111360, Note_on_c, 5, 76, 0
13, 111360, Note_on_c, 5, 72, 123
13, 111540, Note_on_c, 5, 72, 0
13, 111540, Note_on_c, 5, 74, 123
13, 111600, Note_on_c, 5, 74, 0
13, 111600, Note_on_c, 5, 76, 123
13, 112080, Note_on_c, 5, 76, 0
13, 112080, Note_on_c, 5, 72, 123
13, 112260, Note_on_c, 5, 72, 0
13, 112260, Note_on_c, 5, 74, 123
13, 112320, Note_on_c, 5, 74, 0
13, 112320, Note_on_c, 5, 76, 91
13, 114000, Note_on_c, 5, 76, 0
13, 133200, Note_on_c, 5, 60, 123
13, 133920, Note_on_c, 5, 60, 0
13, 134640, Note_on_c, 5, 55, 123
13, 134880, Note_on_c, 5, 55, 0
13, 134880, Note_on_c, 5, 55, 123
13, 135120, Note_on_c, 5, 55, 0
13, 135120, Note_on_c, 5, 55, 123
13, 135360, Note_on_c, 5, 55, 0
13, 135360, Note_on_c, 5, 60, 123
13, 135600, Note_on_c, 5, 60, 0
13, 135600, Note_on_c, 5, 60, 123
13, 135840, Note_on_c, 5, 60, 0
13, 135840, Note_on_c, 5, 60, 123
13, 136080, Note_on_c, 5, 60, 0
13, 136320, Note_on_c, 5, 77, 123
13, 136560, Note_on_c, 5, 77, 0
13, 136560, Note_on_c, 5, 77, 123
13, 136800, Note_on_c, 5, 77, 0
13, 136800, Note_on_c, 5, 55, 123
13, 137040, Note_on_c, 5, 55, 0
13, 137040, Note_on_c, 5, 60, 123
13, 137280, Note_on_c, 5, 60, 0
13, 137280, Note_on_c, 5, 60, 123
13, 137520, Note_on_c, 5, 60, 0
13, 137520, Note_on_c, 5, 55, 123
13, 137760, Note_on_c, 5, 55, 0
13, 138240, Note_on_c, 5, 60, 123
13, 138480, Note_on_c, 5, 60, 0
13, 139680, Note_on_c, 5, 60, 123
13, 139920, Note_on_c, 5, 60, 0
13, 154800, Note_on_c, 5, 60, 115
13, 155040, Note_on_c, 5, 60, 0
13, 156240, Note_on_c, 5, 60, 115
13, 156480, Note_on_c, 5, 60, 0
13, 173280, Note_on_c, 5, 60, 115
13, 173360, Note_on_c, 5, 60, 0
13, 173360, Note_on_c, 5, 60, 115
13, 173440, Note_on_c, 5, 60, 0
13, 173440, Note_on_c, 5, 60, 115
13, 173520, Note_on_c, 5, 60, 0
13, 173520, Note_on_c, 5, 60, 115
13, 173760, Note_on_c, 5, 60, 0
13, 173760, Note_on_c, 5, 60, 115
13, 174000, Note_on_c, 5, 60, 0
13, 174000, Note_on_c, 5, 60, 115
13, 174240, Note_on_c, 5, 60, 0
13, 174240, Note_on_c, 5, 60, 115
13, 174480, Note_on_c, 5, 60, 0
13, 175680, Note_on_c, 5, 60, 115
13, 175920, Note_on_c, 5, 60, 0
13, 177840, Note_on_c, 5, 60, 123
13, 178080, Note_on_c, 5, 60, 0
13, 178080, End_track
14, 0, Start_track
14, 0, MIDI_port, 0
14, 0, Title_t, "Timpani"
14, 0, Program_c, 6, 47
14, 20880, Note_on_c, 6, 48, 123
14, 20910, Note_on_c, 6, 48, 0
14, 20910, Note_on_c, 6, 48, 123
14, 20940, Note_on_c, 6, 48, 0
14, 20940, Note_on_c, 6, 48, 123
14, 20970, Note_on_c, 6, 48, 0
14, 20970, Note_on_c, 6, 48, 123
14, 21000, Note_on_c, 6, 48, 0
14, 21000, Note_on_c, 6, 48, 123
14, 21030, Note_on_c, 6, 48, 0
14, 21030, Note_on_c, 6, 48, 123
14, 21060, Note_on_c, 6, 48, 0
14, 21060, Note_on_c, 6, 48, 123
14, 21090, Note_on_c, 6, 48, 0
14, 21090, Note_on_c, 6, 48, 123
14, 21120, Note_on_c, 6, 48, 0
14, 21120, Note_on_c, 6, 48, 123
14, 21150, Note_on_c, 6, 48, 0
14, 21150, Note_on_c, 6, 48, 123
14, 21180, Note_on_c, 6, 48, 0
14, 21180, Note_on_c, 6, 48, 123
14, 21210, Note_on_c, 6, 48, 0
14, 21210, Note_on_c, 6, 48, 123
14, 21240, Note_on_c, 6, 48, 0
14, 21240, Note_on_c, 6, 48, 123
14, 21270, Note_on_c, 6, 48, 0
14, 21270, Note_on_c, 6, 48, 123
14, 21300, Note_on_c, 6, 48, 0
14, 21300, Note_on_c, 6, 48, 123
14, 21330, Note_on_c, 6, 48, 0
14, 21330, Note_on_c, 6, 48, 123
14, 21360, Note_on_c, 6, 48, 0
14, 21360, Note_on_c, 6, 48, 123
14, 21390, Note_on_c, 6, 48, 0
14, 21390, Note_on_c, 6, 48, 123
14, 21420, Note_on_c, 6, 48, 0
14, 21420, Note_on_c, 6, 48, 123
14, 21450, Note_on_c, 6, 48, 0
14, 21450, Note_on_c, 6, 48, 123
14, 21480, Note_on_c, 6, 48, 0
14, 21480, Note_on_c, 6, 48, 123
14, 21510, Note_on_c, 6, 48, 0
14, 21510, Note_on_c, 6, 48, 123
14, 21540, Note_on_c, 6, 48, 0
14, 21540, Note_on_c, 6, 48, 123
14, 21570, Note_on_c, 6, 48, 0
14, 21570, Note_on_c, 6, 48, 123
14, 21600, Note_on_c, 6, 48, 0
14, 21600, Note_on_c, 6, 43, 123
14, 21840, Note_on_c, 6, 43, 0
14, 21840, Note_on_c, 6, 43, 123
14, 22080, Note_on_c, 6, 43, 0
14, 22080, Note_on_c, 6, 43, 123
14, 22320, Note_on_c, 6, 43, 0
14, 22320, Note_on_c, 6, 48, 123
14, 22560, Note_on_c, 6, 48, 0
14, 23040, Note_on_c, 6, 48, 123
14, 23280, Note_on_c, 6, 48, 0
14, 23280, Note_on_c, 6, 48, 123
14, 23520, Note_on_c, 6, 48, 0
14, 23520, Note_on_c, 6, 43, 123
14, 23760, Note_on_c, 6, 43, 0
14, 23760, Note_on_c, 6, 48, 123
14, 24000, Note_on_c, 6, 48, 0
14, 24240, Note_on_c, 6, 48, 123
14, 24420, Note_on_c, 6, 48, 0
14, 24420, Note_on_c, 6, 48, 123
14, 24480, Note_on_c, 6, 48, 0
14, 24480, Note_on_c, 6, 48, 123
14, 24720, Note_on_c, 6, 48, 0
14, 24720, Note_on_c, 6, 48, 123
14, 24960, Note_on_c, 6, 48, 0
14, 24960, Note_on_c, 6, 48, 123
14, 25200, Note_on_c, 6, 48, 0
14, 25200, Note_on_c, 6, 48, 123
14, 25230, Note_on_c, 6, 48, 0
14, 25230, Note_on_c, 6, 48, 123
14, 25260, Note_on_c, 6, 48, 0
14, 25260, Note_on_c, 6, 48, 123
14, 25290, Note_on_c, 6, 48, 0
14, 25290, Note_on_c, 6, 48, 123
14, 25320, Note_on_c, 6, 48, 0
14, 25320, Note_on_c, 6, 48, 123
14, 25350, Note_on_c, 6, 48, 0
14, 25350, Note_on_c, 6, 48, 123
14, 25380, Note_on_c, 6, 48, 0
14, 25380, Note_on_c, 6, 48, 123
14, 25410, Note_on_c, 6, 48, 0
14, 25410, Note_on_c, 6, 48, 123
14, 25440, Note_on_c, 6, 48, 0
14, 25440, Note_on_c, 6, 48, 123
14, 25470, Note_on_c, 6, 48, 0
14, 25470, Note_on_c, 6, 48, 123
14, 25500, Note_on_c, 6, 48, 0
14, 25500, Note_on_c, 6, 48, 123
14, 25530, Note_on_c, 6, 48, 0
14, 25530, Note_on_c, 6, 48, 123
14, 25560, Note_on_c, 6, 48, 0
14, 25560, Note_on_c, 6, 48, 123
14, 25590, Note_on_c, 6, 48, 0
14, 25590, Note_on_c, 6, 48, 123
14, 25620, Note_on_c, 6, 48, 0
14, 25620, Note_on_c, 6, 48, 123
14, 25650, Note_on_c, 6, 48, 0
14, 25650, Note_on_c, 6, 48, 123
14, 25680, Note_on_c, 6, 48, 0
14, 25680, Note_on_c, 6, 48, 123
14, 25860, Note_on_c, 6, 48, 0
14, 25860, Note_on_c, 6, 48, 123
14, 25920, Note_on_c, 6, 48, 0
14, 25920, Note_on_c, 6, 48, 123
14, 25950, Note_on_c, 6, 48, 0
14, 25950, Note_on_c, 6, 48, 123
14, 25980, Note_on_c, 6, 48, 0
14, 25980, Note_on_c, 6, 48, 123
14, 26010, Note_on_c, 6, 48, 0
14, 26010, Note_on_c, 6, 48, 123
14, 26040, Note_on_c, 6, 48, 0
14, 26040, Note_on_c, 6, 48, 123
14, 26070, Note_on_c, 6, 48, 0
14, 26070, Note_on_c, 6, 48, 123
14, 26100, Note_on_c, 6, 48, 0
14, 26100, Note_on_c, 6, 48, 123
14, 26130, Note_on_c, 6, 48, 0
14, 26130, Note_on_c, 6, 48, 123
14, 26160, Note_on_c, 6, 48, 0
14, 26160, Note_on_c, 6, 48, 123
14, 26190, Note_on_c, 6, 48, 0
14, 26190, Note_on_c, 6, 48, 123
14, 26220, Note_on_c, 6, 48, 0
14, 26220, Note_on_c, 6, 48, 123
14, 26250, Note_on_c, 6, 48, 0
14, 26250, Note_on_c, 6, 48, 123
14, 26280, Note_on_c, 6, 48, 0
14, 26280, Note_on_c, 6, 48, 123
14, 26310, Note_on_c, 6, 48, 0
14, 26310, Note_on_c, 6, 48, 123
14, 26340, Note_on_c, 6, 48, 0
14, 26340, Note_on_c, 6, 48, 123
14, 26370, Note_on_c, 6, 48, 0
14, 26370, Note_on_c, 6, 48, 123
14, 26400, Note_on_c, 6, 48, 0
14, 26400, Note_on_c, 6, 48, 123
14, 26580, Note_on_c, 6, 48, 0
14, 26580, Note_on_c, 6, 48, 123
14, 26640, Note_on_c, 6, 48, 0
14, 26640, Note_on_c, 6, 48, 123
14, 26880, Note_on_c, 6, 48, 0
14, 56160, Note_on_c, 6, 48, 123
14, 56220, Note_on_c, 6, 48, 0
14, 56220, Note_on_c, 6, 48, 123
14, 56280, Note_on_c, 6, 48, 0
14, 56280, Note_on_c, 6, 48, 123
14, 56340, Note_on_c, 6, 48, 0
14, 56340, Note_on_c, 6, 48, 123
14, 56400, Note_on_c, 6, 48, 0
14, 56400, Note_on_c, 6, 48, 123
14, 56460, Note_on_c, 6, 48, 0
14, 56460, Note_on_c, 6, 48, 123
14, 56520, Note_on_c, 6, 48, 0
14, 56520, Note_on_c, 6, 48, 123
14, 56580, Note_on_c, 6, 48, 0
14, 56580, Note_on_c, 6, 48, 123
14, 56640, Note_on_c, 6, 48, 0
14, 56640, Note_on_c, 6, 48, 123
14, 56700, Note_on_c, 6, 48, 0
14, 56700, Note_on_c, 6, 48, 123
14, 56760, Note_on_c, 6, 48, 0
14, 56760, Note_on_c, 6, 48, 123
14, 56820, Note_on_c, 6, 48, 0
14, 56820, Note_on_c, 6, 48, 123
14, 56880, Note_on_c, 6, 48, 0
14, 56880, Note_on_c, 6, 43, 123
14, 57120, Note_on_c, 6, 43, 0
14, 57120, Note_on_c, 6, 43, 123
14, 57360, Note_on_c, 6, 43, 0
14, 57360, Note_on_c, 6, 43, 123
14, 57600, Note_on_c, 6, 43, 0
14, 57600, Note_on_c, 6, 48, 123
14, 57840, Note_on_c, 6, 48, 0
14, 58320, Note_on_c, 6, 48, 123
14, 58560, Note_on_c, 6, 48, 0
14, 58560, Note_on_c, 6, 48, 123
14, 58800, Note_on_c, 6, 48, 0
14, 58800, Note_on_c, 6, 43, 123
14, 59040, Note_on_c, 6, 43, 0
14, 59040, Note_on_c, 6, 48, 123
14, 59280, Note_on_c, 6, 48, 0
14, 59520, Note_on_c, 6, 48, 123
14, 59700, Note_on_c, 6, 48, 0
14, 59700, Note_on_c, 6, 48, 123
14, 59760, Note_on_c, 6, 48, 0
14, 59760, Note_on_c, 6, 48, 123
14, 60000, Note_on_c, 6, 48, 0
14, 60000, Note_on_c, 6, 48, 123
14, 60240, Note_on_c, 6, 48, 0
14, 60240, Note_on_c, 6, 48, 123
14, 60480, Note_on_c, 6, 48, 0
14, 60480, Note_on_c, 6, 48, 123
14, 60540, Note_on_c, 6, 48, 0
14, 60540, Note_on_c, 6, 48, 123
14, 60600, Note_on_c, 6, 48, 0
14, 60600, Note_on_c, 6, 48, 123
14, 60660, Note_on_c, 6, 48, 0
14, 60660, Note_on_c, 6, 48, 123
14, 60720, Note_on_c, 6, 48, 0
14, 60720, Note_on_c, 6, 48, 123
14, 60780, Note_on_c, 6, 48, 0
14, 60780, Note_on_c, 6, 48, 123
14, 60840, Note_on_c, 6, 48, 0
14, 60840, Note_on_c, 6, 48, 123
14, 60900, Note_on_c, 6, 48, 0
14, 60900, Note_on_c, 6, 48, 123
14, 60960, Note_on_c, 6, 48, 0
14, 60960, Note_on_c, 6, 48, 115
14, 61140, Note_on_c, 6, 48, 0
14, 61140, Note_on_c, 6, 48, 115
14, 61200, Note_on_c, 6, 48, 0
14, 61200, Note_on_c, 6, 48, 115
14, 61680, Note_on_c, 6, 48, 0
14, 61680, Note_on_c, 6, 48, 115
14, 61860, Note_on_c, 6, 48, 0
14, 61860, Note_on_c, 6, 48, 115
14, 61920, Note_on_c, 6, 48, 0
14, 61920, Note_on_c, 6, 48, 115
14, 62160, Note_on_c, 6, 48, 0
14, 82200, Note_on_c, 6, 48, 115
14, 82320, Note_on_c, 6, 48, 0
14, 82320, Note_on_c, 6, 48, 115
14, 82440, Note_on_c, 6, 48, 0
14, 82440, Note_on_c, 6, 48, 115
14, 82560, Note_on_c, 6, 48, 0
14, 82560, Note_on_c, 6, 48, 115
14, 82680, Note_on_c, 6, 48, 0
14, 82680, Note_on_c, 6, 48, 115
14, 82800, Note_on_c, 6, 48, 0
14, 82800, Note_on_c, 6, 48, 115
14, 82920, Note_on_c, 6, 48, 0
14, 82920, Note_on_c, 6, 48, 115
14, 83040, Note_on_c, 6, 48, 0
14, 83040, Note_on_c, 6, 48, 115
14, 83160, Note_on_c, 6, 48, 0
14, 83160, Note_on_c, 6, 48, 115
14, 83280, Note_on_c, 6, 48, 0
14, 83280, Note_on_c, 6, 48, 115
14, 83400, Note_on_c, 6, 48, 0
14, 83400, Note_on_c, 6, 48, 115
14, 83520, Note_on_c, 6, 48, 0
14, 84720, Note_on_c, 6, 43, 115
14, 84840, Note_on_c, 6, 43, 0
14, 84840, Note_on_c, 6, 43, 115
14, 84960, Note_on_c, 6, 43, 0
14, 84960, Note_on_c, 6, 48, 115
14, 85080, Note_on_c, 6, 48, 0
14, 85080, Note_on_c, 6, 48, 115
14, 85200, Note_on_c, 6, 48, 0
14, 85200, Note_on_c, 6, 48, 115
14, 85320, Note_on_c, 6, 48, 0
14, 85320, Note_on_c, 6, 48, 115
14, 85440, Note_on_c, 6, 48, 0
14, 85440, Note_on_c, 6, 48, 115
14, 85560, Note_on_c, 6, 48, 0
14, 85560, Note_on_c, 6, 48, 115
14, 85680, Note_on_c, 6, 48, 0
14, 86640, Note_on_c, 6, 48, 115
14, 86760, Note_on_c, 6, 48, 0
14, 86760, Note_on_c, 6, 48, 115
14, 86880, Note_on_c, 6, 48, 0
14, 86880, Note_on_c, 6, 48, 115
14, 87000, Note_on_c, 6, 48, 0
14, 87000, Note_on_c, 6, 48, 115
14, 87120, Note_on_c, 6, 48, 0
14, 87120, Note_on_c, 6, 43, 115
14, 87360, Note_on_c, 6, 43, 0
14, 106320, Note_on_c, 6, 48, 123
14, 106440, Note_on_c, 6, 48, 0
14, 106440, Note_on_c, 6, 48, 123
14, 106560, Note_on_c, 6, 48, 0
14, 106560, Note_on_c, 6, 48, 123
14, 106800, Note_on_c, 6, 48, 0
14, 106800, Note_on_c, 6, 48, 123
14, 107040, Note_on_c, 6, 48, 0
14, 107040, Note_on_c, 6, 43, 123
14, 107280, Note_on_c, 6, 43, 0
14, 107280, Note_on_c, 6, 48, 123
14, 107340, Note_on_c, 6, 48, 0
14, 107340, Note_on_c, 6, 48, 123
14, 107400, Note_on_c, 6, 48, 0
14, 107400, Note_on_c, 6, 48, 123
14, 107460, Note_on_c, 6, 48, 0
14, 107460, Note_on_c, 6, 48, 123
14, 107520, Note_on_c, 6, 48, 0
14, 107520, Note_on_c, 6, 48, 123
14, 107580, Note_on_c, 6, 48, 0
14, 107580, Note_on_c, 6, 48, 123
14, 107640, Note_on_c, 6, 48, 0
14, 107640, Note_on_c, 6, 48, 123
14, 107700, Note_on_c, 6, 48, 0
14, 107700, Note_on_c, 6, 48, 123
14, 107760, Note_on_c, 6, 48, 0
14, 107760, Note_on_c, 6, 48, 123
14, 107820, Note_on_c, 6, 48, 0
14, 107820, Note_on_c, 6, 48, 123
14, 107880, Note_on_c, 6, 48, 0
14, 107880, Note_on_c, 6, 48, 123
14, 107940, Note_on_c, 6, 48, 0
14, 107940, Note_on_c, 6, 48, 123
14, 108000, Note_on_c, 6, 48, 0
14, 108000, Note_on_c, 6, 48, 123
14, 108240, Note_on_c, 6, 48, 0
14, 108480, Note_on_c, 6, 48, 123
14, 108660, Note_on_c, 6, 48, 0
14, 108660, Note_on_c, 6, 43, 123
14, 108720, Note_on_c, 6, 43, 0
14, 108720, Note_on_c, 6, 48, 123
14, 108960, Note_on_c, 6, 48, 0
14, 108960, Note_on_c, 6, 48, 123
14, 109200, Note_on_c, 6, 48, 0
14, 109200, Note_on_c, 6, 48, 123
14, 109440, Note_on_c, 6, 48, 0
14, 109440, Note_on_c, 6, 48, 123
14, 109500, Note_on_c, 6, 48, 0
14, 109500, Note_on_c, 6, 48, 123
14, 109560, Note_on_c, 6, 48, 0
14, 109560, Note_on_c, 6, 48, 123
14, 109620, Note_on_c, 6, 48, 0
14, 109620, Note_on_c, 6, 48, 123
14, 109680, Note_on_c, 6, 48, 0
14, 109680, Note_on_c, 6, 48, 123
14, 109740, Note_on_c, 6, 48, 0
14, 109740, Note_on_c, 6, 48, 123
14, 109800, Note_on_c, 6, 48, 0
14, 109800, Note_on_c, 6, 48, 123
14, 109860, Note_on_c, 6, 48, 0
14, 109860, Note_on_c, 6, 48, 123
14, 109920, Note_on_c, 6, 48, 0
14, 109920, Note_on_c, 6, 48, 123
14, 109980, Note_on_c, 6, 48, 0
14, 109980, Note_on_c, 6, 48, 123
14, 110040, Note_on_c, 6, 48, 0
14, 110040, Note_on_c, 6, 48, 123
14, 110100, Note_on_c, 6, 48, 0
14, 110100, Note_on_c, 6, 48, 123
14, 110160, Note_on_c, 6, 48, 0
14, 110160, Note_on_c, 6, 48, 123
14, 110400, Note_on_c, 6, 48, 0
14, 110640, Note_on_c, 6, 48, 123
14, 110820, Note_on_c, 6, 48, 0
14, 110820, Note_on_c, 6, 48, 123
14, 110880, Note_on_c, 6, 48, 0
14, 110880, Note_on_c, 6, 48, 123
14, 110940, Note_on_c, 6, 48, 0
14, 110940, Note_on_c, 6, 48, 123
14, 111000, Note_on_c, 6, 48, 0
14, 111000, Note_on_c, 6, 48, 123
14, 111060, Note_on_c, 6, 48, 0
14, 111060, Note_on_c, 6, 48, 123
14, 111120, Note_on_c, 6, 48, 0
14, 111120, Note_on_c, 6, 48, 123
14, 111360, Note_on_c, 6, 48, 0
14, 111360, Note_on_c, 6, 48, 123
14, 111540, Note_on_c, 6, 48, 0
14, 111540, Note_on_c, 6, 48, 123
14, 111600, Note_on_c, 6, 48, 0
14, 111600, Note_on_c, 6, 48, 123
14, 111660, Note_on_c, 6, 48, 0
14, 111660, Note_on_c, 6, 48, 123
14, 111720, Note_on_c, 6, 48, 0
14, 111720, Note_on_c, 6, 48, 123
14, 111780, Note_on_c, 6, 48, 0
14, 111780, Note_on_c, 6, 48, 123
14, 111840, Note_on_c, 6, 48, 0
14, 111840, Note_on_c, 6, 48, 123
14, 112080, Note_on_c, 6, 48, 0
14, 112080, Note_on_c, 6, 48, 123
14, 112260, Note_on_c, 6, 48, 0
14, 112260, Note_on_c, 6, 48, 123
14, 112320, Note_on_c, 6, 48, 0
14, 112320, Note_on_c, 6, 48, 123
14, 112380, Note_on_c, 6, 48, 0
14, 112380, Note_on_c, 6, 48, 123
14, 112440, Note_on_c, 6, 48, 0
14, 112440, Note_on_c, 6, 48, 123
14, 112500, Note_on_c, 6, 48, 0
14, 112500, Note_on_c, 6, 48, 123
14, 112560, Note_on_c, 6, 48, 0
14, 112560, Note_on_c, 6, 48, 123
14, 112620, Note_on_c, 6, 48, 0
14, 112620, Note_on_c, 6, 48, 123
14, 112680, Note_on_c, 6, 48, 0
14, 112680, Note_on_c, 6, 48, 123
14, 112740, Note_on_c, 6, 48, 0
14, 112740, Note_on_c, 6, 48, 123
14, 112800, Note_on_c, 6, 48, 0
14, 112800, Note_on_c, 6, 48, 115
14, 112860, Note_on_c, 6, 48, 0
14, 112860, Note_on_c, 6, 48, 115
14, 112920, Note_on_c, 6, 48, 0
14, 112920, Note_on_c, 6, 48, 115
14, 112980, Note_on_c, 6, 48, 0
14, 112980, Note_on_c, 6, 48, 115
14, 113040, Note_on_c, 6, 48, 0
14, 113040, Note_on_c, 6, 48, 115
14, 113100, Note_on_c, 6, 48, 0
14, 113100, Note_on_c, 6, 48, 115
14, 113160, Note_on_c, 6, 48, 0
14, 113160, Note_on_c, 6, 48, 115
14, 113220, Note_on_c, 6, 48, 0
14, 113220, Note_on_c, 6, 48, 109
14, 113280, Note_on_c, 6, 48, 0
14, 113280, Note_on_c, 6, 48, 109
14, 113340, Note_on_c, 6, 48, 0
14, 113340, Note_on_c, 6, 48, 109
14, 113400, Note_on_c, 6, 48, 0
14, 113400, Note_on_c, 6, 48, 109
14, 113460, Note_on_c, 6, 48, 0
14, 113460, Note_on_c, 6, 48, 109
14, 113520, Note_on_c, 6, 48, 0
14, 113520, Note_on_c, 6, 48, 101
14, 113580, Note_on_c, 6, 48, 0
14, 113580, Note_on_c, 6, 48, 101
14, 113640, Note_on_c, 6, 48, 0
14, 113640, Note_on_c, 6, 48, 101
14, 113700, Note_on_c, 6, 48, 0
14, 113700, Note_on_c, 6, 48, 101
14, 113760, Note_on_c, 6, 48, 0
14, 113760, Note_on_c, 6, 48, 91
14, 114000, Note_on_c, 6, 48, 0
14, 133200, Note_on_c, 6, 48, 123
14, 133440, Note_on_c, 6, 48, 0
14, 134640, Note_on_c, 6, 43, 123
14, 134880, Note_on_c, 6, 43, 0
14, 134880, Note_on_c, 6, 43, 123
14, 135120, Note_on_c, 6, 43, 0
14, 135120, Note_on_c, 6, 43, 123
14, 135360, Note_on_c, 6, 43, 0
14, 135360, Note_on_c, 6, 48, 123
14, 135600, Note_on_c, 6, 48, 0
14, 135600, Note_on_c, 6, 48, 123
14, 135840, Note_on_c, 6, 48, 0
14, 135840, Note_on_c, 6, 48, 123
14, 136080, Note_on_c, 6, 48, 0
14, 136800, Note_on_c, 6, 43, 123
14, 137040, Note_on_c, 6, 43, 0
14, 137040, Note_on_c, 6, 48, 123
14, 137280, Note_on_c, 6, 48, 0
14, 137280, Note_on_c, 6, 48, 123
14, 137520, Note_on_c, 6, 48, 0
14, 137520, Note_on_c, 6, 43, 123
14, 137760, Note_on_c, 6, 43, 0
14, 138240, Note_on_c, 6, 48, 123
14, 138480, Note_on_c, 6, 48, 0
14, 139680, Note_on_c, 6, 48, 123
14, 139920, Note_on_c, 6, 48, 0
14, 154800, Note_on_c, 6, 48, 115
14, 155040, Note_on_c, 6, 48, 0
14, 156240, Note_on_c, 6, 48, 115
14, 156480, Note_on_c, 6, 48, 0
14, 173280, Note_on_c, 6, 48, 115
14, 173360, Note_on_c, 6, 48, 0
14, 173360, Note_on_c, 6, 48, 115
14, 173440, Note_on_c, 6, 48, 0
14, 173440, Note_on_c, 6, 48, 115
14, 173520, Note_on_c, 6, 48, 0
14, 173520, Note_on_c, 6, 48, 115
14, 173760, Note_on_c, 6, 48, 0
14, 173760, Note_on_c, 6, 48, 115
14, 174000, Note_on_c, 6, 48, 0
14, 174000, Note_on_c, 6, 48, 115
14, 174240, Note_on_c, 6, 48, 0
14, 174240, Note_on_c, 6, 48, 115
14, 174480, Note_on_c, 6, 48, 0
14, 175680, Note_on_c, 6, 48, 115
14, 175920, Note_on_c, 6, 48, 0
14, 177840, Note_on_c, 6, 48, 123
14, 178080, Note_on_c, 6, 48, 0
14, 178080, End_track
15, 0, Start_track
15, 0, MIDI_port, 0
15, 0, Title_t, "Violins 1"
15, 0, Program_c, 7, 48
15, 6240, Note_on_c, 7, 68, 91
15, 6420, Note_on_c, 7, 68, 0
15, 6420, Note_on_c, 7, 72, 91
15, 6480, Note_on_c, 7, 72, 0
15, 6480, Note_on_c, 7, 75, 115
15, 7200, Note_on_c, 7, 75, 0
15, 7200, Note_on_c, 7, 72, 91
15, 7440, Note_on_c, 7, 72, 0
15, 11160, Note_on_c, 7, 68, 91
15, 11280, Note_on_c, 7, 68, 0
15, 11280, Note_on_c, 7, 72, 91
15, 11400, Note_on_c, 7, 72, 0
15, 11400, Note_on_c, 7, 75, 91
15, 11520, Note_on_c, 7, 75, 0
15, 11520, Note_on_c, 7, 75, 91
15, 11640, Note_on_c, 7, 75, 0
15, 11640, Note_on_c, 7, 73, 91
15, 11760, Note_on_c, 7, 73, 0
15, 11760, Note_on_c, 7, 72, 91
15, 12120, Note_on_c, 7, 72, 0
15, 12120, Note_on_c, 7, 72, 91
15, 12240, Note_on_c, 7, 72, 0
15, 12240, Note_on_c, 7, 72, 91
15, 12360, Note_on_c, 7, 72, 0
15, 12360, Note_on_c, 7, 70, 91
15, 12480, Note_on_c, 7, 70, 0
15, 12480, Note_on_c, 7, 68, 91
15, 12840, Note_on_c, 7, 68, 0
15, 12840, Note_on_c, 7, 68, 91
15, 12960, Note_on_c, 7, 68, 0
15, 12960, Note_on_c, 7, 67, 115
15, 13440, Note_on_c, 7, 67, 0
15, 13440, Note_on_c, 7, 67, 115
15, 13520, Note_on_c, 7, 67, 0
15, 13520, Note_on_c, 7, 68, 115
15, 13600, Note_on_c, 7, 68, 0
15, 13600, Note_on_c, 7, 70, 115
15, 13680, Note_on_c, 7, 70, 0
15, 13680, Note_on_c, 7, 68, 91
15, 13920, Note_on_c, 7, 68, 0
15, 14880, Note_on_c, 7, 67, 115
15, 14960, Note_on_c, 7, 67, 0
15, 14960, Note_on_c, 7, 68, 115
15, 15040, Note_on_c, 7, 68, 0
15, 15040, Note_on_c, 7, 70, 115
15, 15120, Note_on_c, 7, 70, 0
15, 15120, Note_on_c, 7, 68, 115
15, 15240, Note_on_c, 7, 68, 0
15, 15360, Note_on_c, 7, 68, 91
15, 15480, Note_on_c, 7, 68, 0
15, 15600, Note_on_c, 7, 68, 91
15, 15720, Note_on_c, 7, 68, 0
15, 15840, Note_on_c, 7, 68, 91
15, 16080, Note_on_c, 7, 68, 0
15, 16800, Note_on_c, 7, 68, 91
15, 17040, Note_on_c, 7, 68, 0
15, 17040, Note_on_c, 7, 70, 91
15, 17280, Note_on_c, 7, 70, 0
15, 17280, Note_on_c, 7, 72, 91
15, 17520, Note_on_c, 7, 72, 0
15, 18240, Note_on_c, 7, 72, 91
15, 18480, Note_on_c, 7, 72, 0
15, 18480, Note_on_c, 7, 73, 91
15, 18720, Note_on_c, 7, 73, 0
15, 18720, Note_on_c, 7, 75, 91
15, 18960, Note_on_c, 7, 75, 0
15, 19200, Note_on_c, 7, 75, 78
15, 19380, Note_on_c, 7, 75, 0
15, 19380, Note_on_c, 7, 77, 78
15, 19440, Note_on_c, 7, 77, 0
15, 19440, Note_on_c, 7, 78, 78
15, 19920, Note_on_c, 7, 78, 0
15, 19920, Note_on_c, 7, 75, 78
15, 20100, Note_on_c, 7, 75, 0
15, 20100, Note_on_c, 7, 77, 78
15, 20160, Note_on_c, 7, 77, 0
15, 20160, Note_on_c, 7, 78, 78
15, 20640, Note_on_c, 7, 78, 0
15, 20640, Note_on_c, 7, 75, 78
15, 20820, Note_on_c, 7, 75, 0
15, 20820, Note_on_c, 7, 77, 78
15, 20880, Note_on_c, 7, 77, 0
15, 20880, Note_on_c, 7, 78, 123
15, 21600, Note_on_c, 7, 78, 0
15, 21600, Note_on_c, 7, 79, 123
15, 21780, Note_on_c, 7, 79, 0
15, 21780, Note_on_c, 7, 76, 123
15, 21840, Note_on_c, 7, 76, 0
15, 21840, Note_on_c, 7, 55, 123
15, 21840, Note_on_c, 7, 64, 123
15, 21840, Note_on_c, 7, 72, 123
15, 22080, Note_on_c, 7, 72, 0
15, 22080, Note_on_c, 7, 64, 0
15, 22080, Note_on_c, 7, 55, 0
15, 22080, Note_on_c, 7, 55, 123
15, 22080, Note_on_c, 7, 65, 123
15, 22080, Note_on_c, 7, 74, 123
15, 22320, Note_on_c, 7, 74, 0
15, 22320, Note_on_c, 7, 65, 0
15, 22320, Note_on_c, 7, 55, 0
15, 22320, Note_on_c, 7, 55, 123
15, 22320, Note_on_c, 7, 64, 123
15, 22320, Note_on_c, 7, 72, 123
15, 22560, Note_on_c, 7, 72, 0
15, 22560, Note_on_c, 7, 64, 0
15, 22560, Note_on_c, 7, 55, 0
15, 23040, Note_on_c, 7, 64, 123
15, 23120, Note_on_c, 7, 64, 0
15, 23120, Note_on_c, 7, 72, 123
15, 23200, Note_on_c, 7, 72, 0
15, 23200, Note_on_c, 7, 67, 123
15, 23280, Note_on_c, 7, 67, 0
15, 23280, Note_on_c, 7, 64, 123
15, 23360, Note_on_c, 7, 64, 0
15, 23360, Note_on_c, 7, 72, 123
15, 23440, Note_on_c, 7, 72, 0
15, 23440, Note_on_c, 7, 67, 123
15, 23520, Note_on_c, 7, 67, 0
15, 23520, Note_on_c, 7, 67, 123
15, 23600, Note_on_c, 7, 67, 0
15, 23600, Note_on_c, 7, 74, 123
15, 23680, Note_on_c, 7, 74, 0
15, 23680, Note_on_c, 7, 71, 123
15, 23760, Note_on_c, 7, 71, 0
15, 23760, Note_on_c, 7, 67, 123
15, 23840, Note_on_c, 7, 67, 0
15, 23840, Note_on_c, 7, 76, 123
15, 23920, Note_on_c, 7, 76, 0
15, 23920, Note_on_c, 7, 72, 123
15, 24000, Note_on_c, 7, 72, 0
15, 24000, Note_on_c, 7, 67, 123
15, 24080, Note_on_c, 7, 67, 0
15, 24080, Note_on_c, 7, 64, 123
15, 24160, Note_on_c, 7, 64, 0
15, 24160, Note_on_c, 7, 60, 123
15, 24240, Note_on_c, 7, 60, 0
15, 24240, Note_on_c, 7, 67, 123
15, 24320, Note_on_c, 7, 67, 0
15, 24320, Note_on_c, 7, 72, 123
15, 24400, Note_on_c, 7, 72, 0
15, 24400, Note_on_c, 7, 74, 123
15, 24480, Note_on_c, 7, 74, 0
15, 24480, Note_on_c, 7, 67, 123
15, 24560, Note_on_c, 7, 67, 0
15, 24560, Note_on_c, 7, 76, 123
15, 24640, Note_on_c, 7, 76, 0
15, 24640, Note_on_c, 7, 72, 123
15, 24720, Note_on_c, 7, 72, 0
15, 24720, Note_on_c, 7, 67, 123
15, 24800, Note_on_c, 7, 67, 0
15, 24800, Note_on_c, 7, 76, 123
15, 24880, Note_on_c, 7, 76, 0
15, 24880, Note_on_c, 7, 72, 123
15, 24960, Note_on_c, 7, 72, 0
15, 24960, Note_on_c, 7, 67, 123
15, 25040, Note_on_c, 7, 67, 0
15, 25040, Note_on_c, 7, 77, 123
15, 25120, Note_on_c, 7, 77, 0
15, 25120, Note_on_c, 7, 74, 123
15, 25200, Note_on_c, 7, 74, 0
15, 25200, Note_on_c, 7, 67, 123
15, 25280, Note_on_c, 7, 67, 0
15, 25280, Note_on_c, 7, 79, 123
15, 25360, Note_on_c, 7, 79, 0
15, 25360, Note_on_c, 7, 76, 123
15, 25440, Note_on_c, 7, 76, 0
15, 25440, Note_on_c, 7, 72, 123
15, 25520, Note_on_c, 7, 72, 0
15, 25520, Note_on_c, 7, 67, 123
15, 25600, Note_on_c, 7, 67, 0
15, 25600, Note_on_c, 7, 64, 123
15, 25680, Note_on_c, 7, 64, 0
15, 25680, Note_on_c, 7, 60, 123
15, 25760, Note_on_c, 7, 60, 0
15, 25760, Note_on_c, 7, 76, 123
15, 25840, Note_on_c, 7, 76, 0
15, 25840, Note_on_c, 7, 77, 123
15, 25920, Note_on_c, 7, 77, 0
15, 25920, Note_on_c, 7, 60, 123
15, 26000, Note_on_c, 7, 60, 0
15, 26000, Note_on_c, 7, 79, 123
15, 26080, Note_on_c, 7, 79, 0
15, 26080, Note_on_c, 7, 76, 123
15, 26160, Note_on_c, 7, 76, 0
15, 26160, Note_on_c, 7, 72, 123
15, 26240, Note_on_c, 7, 72, 0
15, 26240, Note_on_c, 7, 67, 123
15, 26320, Note_on_c, 7, 67, 0
15, 26320, Note_on_c, 7, 64, 123
15, 26400, Note_on_c, 7, 64, 0
15, 26400, Note_on_c, 7, 60, 123
15, 26480, Note_on_c, 7, 60, 0
15, 26480, Note_on_c, 7, 76, 123
15, 26560, Note_on_c, 7, 76, 0
15, 26560, Note_on_c, 7, 77, 123
15, 26640, Note_on_c, 7, 77, 0
15, 26640, Note_on_c, 7, 64, 123
15, 26640, Note_on_c, 7, 72, 123
15, 26640, Note_on_c, 7, 79, 123
15, 26880, Note_on_c, 7, 79, 0
15, 26880, Note_on_c, 7, 72, 0
15, 26880, Note_on_c, 7, 64, 0
15, 27840, Note_on_c, 7, 70, 78
15, 28020, Note_on_c, 7, 70, 0
15, 28020, Note_on_c, 7, 72, 78
15, 28080, Note_on_c, 7, 72, 0
15, 28080, Note_on_c, 7, 73, 78
15, 28560, Note_on_c, 7, 73, 0
15, 28560, Note_on_c, 7, 70, 78
15, 28740, Note_on_c, 7, 70, 0
15, 28740, Note_on_c, 7, 72, 78
15, 28800, Note_on_c, 7, 72, 0
15, 28800, Note_on_c, 7, 73, 78
15, 29280, Note_on_c, 7, 73, 0
15, 29280, Note_on_c, 7, 70, 78
15, 29460, Note_on_c, 7, 70, 0
15, 29460, Note_on_c, 7, 72, 78
15, 29520, Note_on_c, 7, 72, 0
15, 29520, Note_on_c, 7, 73, 78
15, 30240, Note_on_c, 7, 73, 0
15, 30240, Note_on_c, 7, 74, 78
15, 30960, Note_on_c, 7, 74, 0
15, 30960, Note_on_c, 7, 75, 78
15, 31680, Note_on_c, 7, 75, 0
15, 31680, Note_on_c, 7, 77, 78
15, 32400, Note_on_c, 7, 77, 0
15, 32400, Note_on_c, 7, 79, 91
15, 33120, Note_on_c, 7, 79, 0
15, 33120, Note_on_c, 7, 80, 101
15, 33840, Note_on_c, 7, 80, 0
15, 33840, Note_on_c, 7, 77, 109
15, 34560, Note_on_c, 7, 77, 0
15, 34560, Note_on_c, 7, 75, 115
15, 34800, Note_on_c, 7, 75, 0
15, 35760, Note_on_c, 7, 72, 91
15, 36000, Note_on_c, 7, 72, 0
15, 36000, Note_on_c, 7, 72, 91
15, 36240, Note_on_c, 7, 72, 0
15, 36720, Note_on_c, 7, 65, 91
15, 36960, Note_on_c, 7, 65, 0
15, 37440, Note_on_c, 7, 73, 91
15, 37680, Note_on_c, 7, 73, 0
15, 37680, Note_on_c, 7, 70, 91
15, 37920, Note_on_c, 7, 70, 0
15, 37920, Note_on_c, 7, 73, 91
15, 38160, Note_on_c, 7, 73, 0
15, 38160, Note_on_c, 7, 67, 91
15, 38400, Note_on_c, 7, 67, 0
15, 38640, Note_on_c, 7, 72, 91
15, 38880, Note_on_c, 7, 72, 0
15, 38880, Note_on_c, 7, 72, 91
15, 39120, Note_on_c, 7, 72, 0
15, 39120, Note_on_c, 7, 73, 91
15, 39360, Note_on_c, 7, 73, 0
15, 39600, Note_on_c, 7, 70, 91
15, 39840, Note_on_c, 7, 70, 0
15, 39840, Note_on_c, 7, 72, 91
15, 40080, Note_on_c, 7, 72, 0
15, 40320, Note_on_c, 7, 63, 115
15, 40560, Note_on_c, 7, 63, 0
15, 40560, Note_on_c, 7, 63, 115
15, 40800, Note_on_c, 7, 63, 0
15, 40800, Note_on_c, 7, 63, 115
15, 41040, Note_on_c, 7, 63, 0
15, 41040, Note_on_c, 7, 56, 91
15, 41160, Note_on_c, 7, 56, 0
15, 41160, Note_on_c, 7, 67, 109
15, 41280, Note_on_c, 7, 67, 0
15, 41280, Note_on_c, 7, 70, 109
15, 41340, Note_on_c, 7, 70, 0
15, 41340, Note_on_c, 7, 68, 109
15, 41400, Note_on_c, 7, 68, 0
15, 41400, Note_on_c, 7, 67, 109
15, 41520, Note_on_c, 7, 67, 0
15, 41520, Note_on_c, 7, 68, 109
15, 41640, Note_on_c, 7, 68, 0
15, 41640, Note_on_c, 7, 72, 109
15, 41760, Note_on_c, 7, 72, 0
15, 41760, Note_on_c, 7, 74, 115
15, 41880, Note_on_c, 7, 74, 0
15, 41880, Note_on_c, 7, 75, 115
15, 42000, Note_on_c, 7, 75, 0
15, 42000, Note_on_c, 7, 77, 115
15, 42120, Note_on_c, 7, 77, 0
15, 42120, Note_on_c, 7, 75, 115
15, 42240, Note_on_c, 7, 75, 0
15, 42240, Note_on_c, 7, 74, 115
15, 42360, Note_on_c, 7, 74, 0
15, 42360, Note_on_c, 7, 75, 115
15, 42480, Note_on_c, 7, 75, 0
15, 42480, Note_on_c, 7, 72, 91
15, 42720, Note_on_c, 7, 72, 0
15, 46440, Note_on_c, 7, 68, 91
15, 46560, Note_on_c, 7, 68, 0
15, 46560, Note_on_c, 7, 72, 91
15, 46680, Note_on_c, 7, 72, 0
15, 46680, Note_on_c, 7, 75, 91
15, 46800, Note_on_c, 7, 75, 0
15, 46800, Note_on_c, 7, 75, 91
15, 46920, Note_on_c, 7, 75, 0
15, 46920, Note_on_c, 7, 73, 91
15, 47040, Note_on_c, 7, 73, 0
15, 47040, Note_on_c, 7, 72, 91
15, 47400, Note_on_c, 7, 72, 0
15, 47400, Note_on_c, 7, 72, 91
15, 47520, Note_on_c, 7, 72, 0
15, 47520, Note_on_c, 7, 72, 101
15, 47640, Note_on_c, 7, 72, 0
15, 47640, Note_on_c, 7, 70, 101
15, 47760, Note_on_c, 7, 70, 0
15, 47760, Note_on_c, 7, 68, 109
15, 48120, Note_on_c, 7, 68, 0
15, 48120, Note_on_c, 7, 68, 109
15, 48240, Note_on_c, 7, 68, 0
15, 48240, Note_on_c, 7, 67, 115
15, 48720, Note_on_c, 7, 67, 0
15, 48720, Note_on_c, 7, 67, 115
15, 48800, Note_on_c, 7, 67, 0
15, 48800, Note_on_c, 7, 68, 115
15, 48880, Note_on_c, 7, 68, 0
15, 48880, Note_on_c, 7, 70, 115
15, 48960, Note_on_c, 7, 70, 0
15, 48960, Note_on_c, 7, 68, 91
15, 49200, Note_on_c, 7, 68, 0
15, 50160, Note_on_c, 7, 67, 115
15, 50240, Note_on_c, 7, 67, 0
15, 50240, Note_on_c, 7, 68, 115
15, 50320, Note_on_c, 7, 68, 0
15, 50320, Note_on_c, 7, 70, 115
15, 50400, Note_on_c, 7, 70, 0
15, 50400, Note_on_c, 7, 68, 115
15, 50520, Note_on_c, 7, 68, 0
15, 50640, Note_on_c, 7, 68, 91
15, 50760, Note_on_c, 7, 68, 0
15, 50880, Note_on_c, 7, 68, 91
15, 51000, Note_on_c, 7, 68, 0
15, 51120, Note_on_c, 7, 68, 91
15, 51360, Note_on_c, 7, 68, 0
15, 52080, Note_on_c, 7, 68, 91
15, 52320, Note_on_c, 7, 68, 0
15, 52320, Note_on_c, 7, 70, 91
15, 52560, Note_on_c, 7, 70, 0
15, 52560, Note_on_c, 7, 72, 91
15, 52800, Note_on_c, 7, 72, 0
15, 53520, Note_on_c, 7, 72, 91
15, 53760, Note_on_c, 7, 72, 0
15, 53760, Note_on_c, 7, 73, 91
15, 54000, Note_on_c, 7, 73, 0
15, 54000, Note_on_c, 7, 75, 91
15, 54240, Note_on_c, 7, 75, 0
15, 54480, Note_on_c, 7, 75, 78
15, 54660, Note_on_c, 7, 75, 0
15, 54660, Note_on_c, 7, 77, 78
15, 54720, Note_on_c, 7, 77, 0
15, 54720, Note_on_c, 7, 78, 78
15, 55200, Note_on_c, 7, 78, 0
15, 55200, Note_on_c, 7, 75, 78
15, 55380, Note_on_c, 7, 75, 0
15, 55380, Note_on_c, 7, 77, 78
15, 55440, Note_on_c, 7, 77, 0
15, 55440, Note_on_c, 7, 78, 78
15, 55920, Note_on_c, 7, 78, 0
15, 55920, Note_on_c, 7, 75, 78
15, 56100, Note_on_c, 7, 75, 0
15, 56100, Note_on_c, 7, 77, 78
15, 56160, Note_on_c, 7, 77, 0
15, 56160, Note_on_c, 7, 78, 123
15, 56880, Note_on_c, 7, 78, 0
15, 56880, Note_on_c, 7, 79, 123
15, 57060, Note_on_c, 7, 79, 0
15, 57060, Note_on_c, 7, 76, 123
15, 57120, Note_on_c, 7, 76, 0
15, 57120, Note_on_c, 7, 55, 123
15, 57120, Note_on_c, 7, 64, 123
15, 57120, Note_on_c, 7, 64, 123
15, 57120, Note_on_c, 7, 72, 123
15, 57360, Note_on_c, 7, 72, 0
15, 57360, Note_on_c, 7, 55, 0
15, 57360, Note_on_c, 7, 64, 0
15, 57360, Note_on_c, 7, 64, 0
15, 57360, Note_on_c, 7, 55, 123
15, 57360, Note_on_c, 7, 65, 123
15, 57360, Note_on_c, 7, 74, 123
15, 57600, Note_on_c, 7, 74, 0
15, 57600, Note_on_c, 7, 65, 0
15, 57600, Note_on_c, 7, 55, 0
15, 57600, Note_on_c, 7, 55, 123
15, 57600, Note_on_c, 7, 64, 123
15, 57600, Note_on_c, 7, 72, 123
15, 57840, Note_on_c, 7, 72, 0
15, 57840, Note_on_c, 7, 64, 0
15, 57840, Note_on_c, 7, 55, 0
15, 58320, Note_on_c, 7, 64, 123
15, 58380, Note_on_c, 7, 64, 0
15, 58380, Note_on_c, 7, 67, 123
15, 58440, Note_on_c, 7, 67, 0
15, 58440, Note_on_c, 7, 72, 123
15, 58500, Note_on_c, 7, 72, 0
15, 58500, Note_on_c, 7, 67, 123
15, 58560, Note_on_c, 7, 67, 0
15, 58560, Note_on_c, 7, 64, 123
15, 58620, Note_on_c, 7, 64, 0
15, 58620, Note_on_c, 7, 67, 123
15, 58680, Note_on_c, 7, 67, 0
15, 58680, Note_on_c, 7, 72, 123
15, 58740, Note_on_c, 7, 72, 0
15, 58740, Note_on_c, 7, 67, 123
15, 58800, Note_on_c, 7, 67, 0
15, 58800, Note_on_c, 7, 67, 123
15, 58860, Note_on_c, 7, 67, 0
15, 58860, Note_on_c, 7, 71, 123
15, 58920, Note_on_c, 7, 71, 0
15, 58920, Note_on_c, 7, 74, 123
15, 58980, Note_on_c, 7, 74, 0
15, 58980, Note_on_c, 7, 71, 123
15, 59040, Note_on_c, 7, 71, 0
15, 59040, Note_on_c, 7, 67, 123
15, 59100, Note_on_c, 7, 67, 0
15, 59100, Note_on_c, 7, 72, 123
15, 59160, Note_on_c, 7, 72, 0
15, 59160, Note_on_c, 7, 76, 123
15, 59220, Note_on_c, 7, 76, 0
15, 59220, Note_on_c, 7, 72, 123
15, 59280, Note_on_c, 7, 72, 0
15, 59280, Note_on_c, 7, 67, 123
15, 59340, Note_on_c, 7, 67, 0
15, 59340, Note_on_c, 7, 72, 123
15, 59400, Note_on_c, 7, 72, 0
15, 59400, Note_on_c, 7, 67, 123
15, 59460, Note_on_c, 7, 67, 0
15, 59460, Note_on_c, 7, 64, 123
15, 59520, Note_on_c, 7, 64, 0
15, 59520, Note_on_c, 7, 60, 123
15, 59580, Note_on_c, 7, 60, 0
15, 59580, Note_on_c, 7, 67, 123
15, 59640, Note_on_c, 7, 67, 0
15, 59640, Note_on_c, 7, 72, 123
15, 59700, Note_on_c, 7, 72, 0
15, 59700, Note_on_c, 7, 74, 123
15, 59760, Note_on_c, 7, 74, 0
15, 59760, Note_on_c, 7, 67, 123
15, 59820, Note_on_c, 7, 67, 0
15, 59820, Note_on_c, 7, 72, 123
15, 59880, Note_on_c, 7, 72, 0
15, 59880, Note_on_c, 7, 76, 123
15, 59940, Note_on_c, 7, 76, 0
15, 59940, Note_on_c, 7, 72, 123
15, 60000, Note_on_c, 7, 72, 0
15, 60000, Note_on_c, 7, 67, 123
15, 60060, Note_on_c, 7, 67, 0
15, 60060, Note_on_c, 7, 72, 123
15, 60120, Note_on_c, 7, 72, 0
15, 60120, Note_on_c, 7, 76, 123
15, 60180, Note_on_c, 7, 76, 0
15, 60180, Note_on_c, 7, 72, 123
15, 60240, Note_on_c, 7, 72, 0
15, 60240, Note_on_c, 7, 67, 123
15, 60300, Note_on_c, 7, 67, 0
15, 60300, Note_on_c, 7, 74, 123
15, 60360, Note_on_c, 7, 74, 0
15, 60360, Note_on_c, 7, 77, 123
15, 60420, Note_on_c, 7, 77, 0
15, 60420, Note_on_c, 7, 74, 123
15, 60480, Note_on_c, 7, 74, 0
15, 60480, Note_on_c, 7, 67, 123
15, 60540, Note_on_c, 7, 67, 0
15, 60540, Note_on_c, 7, 76, 123
15, 60600, Note_on_c, 7, 76, 0
15, 60600, Note_on_c, 7, 79, 123
15, 60660, Note_on_c, 7, 79, 0
15, 60660, Note_on_c, 7, 76, 123
15, 60720, Note_on_c, 7, 76, 0
15, 60720, Note_on_c, 7, 72, 123
15, 60780, Note_on_c, 7, 72, 0
15, 60780, Note_on_c, 7, 67, 123
15, 60840, Note_on_c, 7, 67, 0
15, 60840, Note_on_c, 7, 64, 123
15, 60900, Note_on_c, 7, 64, 0
15, 60900, Note_on_c, 7, 67, 123
15, 60960, Note_on_c, 7, 67, 0
15, 60960, Note_on_c, 7, 60, 123
15, 61020, Note_on_c, 7, 60, 0
15, 61020, Note_on_c, 7, 72, 123
15, 61080, Note_on_c, 7, 72, 0
15, 61080, Note_on_c, 7, 76, 123
15, 61140, Note_on_c, 7, 76, 0
15, 61140, Note_on_c, 7, 77, 123
15, 61200, Note_on_c, 7, 77, 0
15, 61200, Note_on_c, 7, 67, 123
15, 61260, Note_on_c, 7, 67, 0
15, 61260, Note_on_c, 7, 76, 123
15, 61320, Note_on_c, 7, 76, 0
15, 61320, Note_on_c, 7, 79, 123
15, 61380, Note_on_c, 7, 79, 0
15, 61380, Note_on_c, 7, 76, 123
15, 61440, Note_on_c, 7, 76, 0
15, 61440, Note_on_c, 7, 72, 123
15, 61500, Note_on_c, 7, 72, 0
15, 61500, Note_on_c, 7, 67, 123
15, 61560, Note_on_c, 7, 67, 0
15, 61560, Note_on_c, 7, 64, 123
15, 61620, Note_on_c, 7, 64, 0
15, 61620, Note_on_c, 7, 67, 123
15, 61680, Note_on_c, 7, 67, 0
15, 61680, Note_on_c, 7, 60, 123
15, 61740, Note_on_c, 7, 60, 0
15, 61740, Note_on_c, 7, 72, 123
15, 61800, Note_on_c, 7, 72, 0
15, 61800, Note_on_c, 7, 76, 123
15, 61860, Note_on_c, 7, 76, 0
15, 61860, Note_on_c, 7, 77, 123
15, 61920, Note_on_c, 7, 77, 0
15, 61920, Note_on_c, 7, 64, 123
15, 61920, Note_on_c, 7, 72, 123
15, 61920, Note_on_c, 7, 79, 123
15, 62160, Note_on_c, 7, 79, 0
15, 62160, Note_on_c, 7, 72, 0
15, 62160, Note_on_c, 7, 64, 0
15, 63120, Note_on_c, 7, 70, 78
15, 63300, Note_on_c, 7, 70, 0
15, 63300, Note_on_c, 7, 72, 78
15, 63360, Note_on_c, 7, 72, 0
15, 63360, Note_on_c, 7, 73, 78
15, 63840, Note_on_c, 7, 73, 0
15, 63840, Note_on_c, 7, 70, 78
15, 64020, Note_on_c, 7, 70, 0
15, 64020, Note_on_c, 7, 72, 78
15, 64080, Note_on_c, 7, 72, 0
15, 64080, Note_on_c, 7, 73, 78
15, 64560, Note_on_c, 7, 73, 0
15, 64560, Note_on_c, 7, 70, 78
15, 64740, Note_on_c, 7, 70, 0
15, 64740, Note_on_c, 7, 72, 78
15, 64800, Note_on_c, 7, 72, 0
15, 64800, Note_on_c, 7, 73, 78
15, 65520, Note_on_c, 7, 73, 0
15, 65520, Note_on_c, 7, 74, 78
15, 66240, Note_on_c, 7, 74, 0
15, 66240, Note_on_c, 7, 75, 78
15, 66960, Note_on_c, 7, 75, 0
15, 66960, Note_on_c, 7, 77, 78
15, 67680, Note_on_c, 7, 77, 0
15, 67680, Note_on_c, 7, 79, 78
15, 68400, Note_on_c, 7, 79, 0
15, 68400, Note_on_c, 7, 80, 101
15, 69120, Note_on_c, 7, 80, 0
15, 69120, Note_on_c, 7, 77, 109
15, 69840, Note_on_c, 7, 77, 0
15, 69840, Note_on_c, 7, 75, 115
15, 69960, Note_on_c, 7, 75, 0
15, 71040, Note_on_c, 7, 72, 91
15, 71280, Note_on_c, 7, 72, 0
15, 71280, Note_on_c, 7, 72, 91
15, 71520, Note_on_c, 7, 72, 0
15, 71520, Note_on_c, 7, 72, 91
15, 71760, Note_on_c, 7, 72, 0
15, 71880, Note_on_c, 7, 72, 91
15, 72000, Note_on_c, 7, 72, 0
15, 72000, Note_on_c, 7, 65, 91
15, 72240, Note_on_c, 7, 65, 0
15, 72240, Note_on_c, 7, 65, 91
15, 72480, Note_on_c, 7, 65, 0
15, 72600, Note_on_c, 7, 65, 91
15, 72720, Note_on_c, 7, 65, 0
15, 72720, Note_on_c, 7, 73, 91
15, 72960, Note_on_c, 7, 73, 0
15, 72960, Note_on_c, 7, 73, 91
15, 73200, Note_on_c, 7, 73, 0
15, 73320, Note_on_c, 7, 73, 91
15, 73440, Note_on_c, 7, 73, 0
15, 73440, Note_on_c, 7, 72, 91
15, 73680, Note_on_c, 7, 72, 0
15, 73680, Note_on_c, 7, 72, 91
15, 73920, Note_on_c, 7, 72, 0
15, 74040, Note_on_c, 7, 72, 91
15, 74160, Note_on_c, 7, 72, 0
15, 74160, Note_on_c, 7, 72, 91
15, 74400, Note_on_c, 7, 72, 0
15, 74400, Note_on_c, 7, 73, 91
15, 74640, Note_on_c, 7, 73, 0
15, 74760, Note_on_c, 7, 73, 91
15, 74880, Note_on_c, 7, 73, 0
15, 74880, Note_on_c, 7, 70, 91
15, 75120, Note_on_c, 7, 70, 0
15, 75120, Note_on_c, 7, 72, 91
15, 75360, Note_on_c, 7, 72, 0
15, 75480, Note_on_c, 7, 72, 91
15, 75600, Note_on_c, 7, 72, 0
15, 75600, Note_on_c, 7, 70, 78
15, 75840, Note_on_c, 7, 70, 0
15, 75840, Note_on_c, 7, 70, 78
15, 76080, Note_on_c, 7, 70, 0
15, 76080, Note_on_c, 7, 70, 78
15, 76320, Note_on_c, 7, 70, 0
15, 76320, Note_on_c, 7, 72, 78
15, 76380, Note_on_c, 7, 72, 0
15, 76380, Note_on_c, 7, 63, 101
15, 76440, Note_on_c, 7, 63, 0
15, 76440, Note_on_c, 7, 61, 101
15, 76500, Note_on_c, 7, 61, 0
15, 76500, Note_on_c, 7, 60, 101
15, 76560, Note_on_c, 7, 60, 0
15, 76560, Note_on_c, 7, 61, 101
15, 76620, Note_on_c, 7, 61, 0
15, 76620, Note_on_c, 7, 63, 101
15, 76680, Note_on_c, 7, 63, 0
15, 76680, Note_on_c, 7, 65, 101
15, 76740, Note_on_c, 7, 65, 0
15, 76740, Note_on_c, 7, 67, 101
15, 76800, Note_on_c, 7, 67, 0
15, 76800, Note_on_c, 7, 70, 101
15, 76830, Note_on_c, 7, 70, 0
15, 76830, Note_on_c, 7, 68, 101
15, 76860, Note_on_c, 7, 68, 0
15, 76860, Note_on_c, 7, 67, 101
15, 76920, Note_on_c, 7, 67, 0
15, 76920, Note_on_c, 7, 68, 101
15, 76980, Note_on_c, 7, 68, 0
15, 76980, Note_on_c, 7, 70, 101
15, 77040, Note_on_c, 7, 70, 0
15, 77040, Note_on_c, 7, 72, 101
15, 77100, Note_on_c, 7, 72, 0
15, 77100, Note_on_c, 7, 70, 101
15, 77160, Note_on_c, 7, 70, 0
15, 77160, Note_on_c, 7, 68, 101
15, 77220, Note_on_c, 7, 68, 0
15, 77220, Note_on_c, 7, 67, 101
15, 77280, Note_on_c, 7, 67, 0
15, 77280, Note_on_c, 7, 68, 101
15, 77340, Note_on_c, 7, 68, 0
15, 77340, Note_on_c, 7, 70, 101
15, 77400, Note_on_c, 7, 70, 0
15, 77400, Note_on_c, 7, 68, 101
15, 77460, Note_on_c, 7, 68, 0
15, 77460, Note_on_c, 7, 67, 101
15, 77520, Note_on_c, 7, 67, 0
15, 77520, Note_on_c, 7, 68, 101
15, 77580, Note_on_c, 7, 68, 0
15, 77580, Note_on_c, 7, 70, 101
15, 77640, Note_on_c, 7, 70, 0
15, 77640, Note_on_c, 7, 72, 101
15, 77700, Note_on_c, 7, 72, 0
15, 77700, Note_on_c, 7, 68, 101
15, 77760, Note_on_c, 7, 68, 0
15, 77760, Note_on_c, 7, 65, 101
15, 77820, Note_on_c, 7, 65, 0
15, 77820, Note_on_c, 7, 67, 101
15, 77880, Note_on_c, 7, 67, 0
15, 77880, Note_on_c, 7, 65, 101
15, 77940, Note_on_c, 7, 65, 0
15, 77940, Note_on_c, 7, 64, 101
15, 78000, Note_on_c, 7, 64, 0
15, 78000, Note_on_c, 7, 65, 101
15, 78060, Note_on_c, 7, 65, 0
15, 78060, Note_on_c, 7, 69, 101
15, 78120, Note_on_c, 7, 69, 0
15, 78120, Note_on_c, 7, 70, 101
15, 78180, Note_on_c, 7, 70, 0
15, 78180, Note_on_c, 7, 69, 101
15, 78240, Note_on_c, 7, 69, 0
15, 78240, Note_on_c, 7, 70, 101
15, 78300, Note_on_c, 7, 70, 0
15, 78300, Note_on_c, 7, 72, 101
15, 78360, Note_on_c, 7, 72, 0
15, 78360, Note_on_c, 7, 73, 101
15, 78420, Note_on_c, 7, 73, 0
15, 78420, Note_on_c, 7, 72, 101
15, 78480, Note_on_c, 7, 72, 0
15, 78480, Note_on_c, 7, 73, 101
15, 78540, Note_on_c, 7, 73, 0
15, 78540, Note_on_c, 7, 72, 101
15, 78600, Note_on_c, 7, 72, 0
15, 78600, Note_on_c, 7, 73, 101
15, 78660, Note_on_c, 7, 73, 0
15, 78660, Note_on_c, 7, 72, 101
15, 78720, Note_on_c, 7, 72, 0
15, 78720, Note_on_c, 7, 70, 101
15, 78780, Note_on_c, 7, 70, 0
15, 78780, Note_on_c, 7, 73, 101
15, 78840, Note_on_c, 7, 73, 0
15, 78840, Note_on_c, 7, 68, 101
15, 78900, Note_on_c, 7, 68, 0
15, 78900, Note_on_c, 7, 73, 101
15, 78960, Note_on_c, 7, 73, 0
15, 78960, Note_on_c, 7, 67, 101
15, 79020, Note_on_c, 7, 67, 0
15, 79020, Note_on_c, 7, 73, 101
15, 79080, Note_on_c, 7, 73, 0
15, 79080, Note_on_c, 7, 65, 101
15, 79140, Note_on_c, 7, 65, 0
15, 79140, Note_on_c, 7, 73, 101
15, 79200, Note_on_c, 7, 73, 0
15, 79200, Note_on_c, 7, 64, 101
15, 79260, Note_on_c, 7, 64, 0
15, 79260, Note_on_c, 7, 72, 101
15, 79320, Note_on_c, 7, 72, 0
15, 79320, Note_on_c, 7, 67, 101
15, 79380, Note_on_c, 7, 67, 0
15, 79380, Note_on_c, 7, 72, 101
15, 79440, Note_on_c, 7, 72, 0
15, 79440, Note_on_c, 7, 71, 101
15, 79500, Note_on_c, 7, 71, 0
15, 79500, Note_on_c, 7, 72, 101
15, 79560, Note_on_c, 7, 72, 0
15, 79560, Note_on_c, 7, 67, 101
15, 79620, Note_on_c, 7, 67, 0
15, 79620, Note_on_c, 7, 72, 101
15, 79680, Note_on_c, 7, 72, 0
15, 79680, Note_on_c, 7, 70, 101
15, 79740, Note_on_c, 7, 70, 0
15, 79740, Note_on_c, 7, 72, 101
15, 79800, Note_on_c, 7, 72, 0
15, 79800, Note_on_c, 7, 67, 101
15, 79860, Note_on_c, 7, 67, 0
15, 79860, Note_on_c, 7, 72, 101
15, 79920, Note_on_c, 7, 72, 0
15, 79920, Note_on_c, 7, 69, 101
15, 79980, Note_on_c, 7, 69, 0
15, 79980, Note_on_c, 7, 72, 101
15, 80040, Note_on_c, 7, 72, 0
15, 80040, Note_on_c, 7, 65, 101
15, 80100, Note_on_c, 7, 65, 0
15, 80100, Note_on_c, 7, 72, 101
15, 80160, Note_on_c, 7, 72, 0
15, 80160, Note_on_c, 7, 70, 101
15, 80220, Note_on_c, 7, 70, 0
15, 80220, Note_on_c, 7, 73, 101
15, 80280, Note_on_c, 7, 73, 0
15, 80280, Note_on_c, 7, 65, 101
15, 80340, Note_on_c, 7, 65, 0
15, 80340, Note_on_c, 7, 73, 101
15, 80400, Note_on_c, 7, 73, 0
15, 80400, Note_on_c, 7, 70, 101
15, 80460, Note_on_c, 7, 70, 0
15, 80460, Note_on_c, 7, 73, 101
15, 80520, Note_on_c, 7, 73, 0
15, 80520, Note_on_c, 7, 68, 101
15, 80580, Note_on_c, 7, 68, 0
15, 80580, Note_on_c, 7, 73, 101
15, 80640, Note_on_c, 7, 73, 0
15, 80640, Note_on_c, 7, 67, 101
15, 80700, Note_on_c, 7, 67, 0
15, 80700, Note_on_c, 7, 70, 101
15, 80760, Note_on_c, 7, 70, 0
15, 80760, Note_on_c, 7, 63, 101
15, 80820, Note_on_c, 7, 63, 0
15, 80820, Note_on_c, 7, 70, 101
15, 80880, Note_on_c, 7, 70, 0
15, 80880, Note_on_c, 7, 68, 101
15, 80940, Note_on_c, 7, 68, 0
15, 80940, Note_on_c, 7, 72, 101
15, 81000, Note_on_c, 7, 72, 0
15, 81000, Note_on_c, 7, 63, 101
15, 81060, Note_on_c, 7, 63, 0
15, 81060, Note_on_c, 7, 72, 101
15, 81120, Note_on_c, 7, 72, 0
15, 81120, Note_on_c, 7, 68, 101
15, 81180, Note_on_c, 7, 68, 0
15, 81180, Note_on_c, 7, 72, 101
15, 81240, Note_on_c, 7, 72, 0
15, 81240, Note_on_c, 7, 63, 101
15, 81300, Note_on_c, 7, 63, 0
15, 81300, Note_on_c, 7, 72, 101
15, 81360, Note_on_c, 7, 72, 0
15, 81360, Note_on_c, 7, 67, 101
15, 81420, Note_on_c, 7, 67, 0
15, 81420, Note_on_c, 7, 75, 101
15, 81480, Note_on_c, 7, 75, 0
15, 81480, Note_on_c, 7, 70, 101
15, 81540, Note_on_c, 7, 70, 0
15, 81540, Note_on_c, 7, 75, 101
15, 81600, Note_on_c, 7, 75, 0
15, 81600, Note_on_c, 7, 67, 101
15, 81660, Note_on_c, 7, 67, 0
15, 81660, Note_on_c, 7, 75, 101
15, 81720, Note_on_c, 7, 75, 0
15, 81720, Note_on_c, 7, 70, 101
15, 81780, Note_on_c, 7, 70, 0
15, 81780, Note_on_c, 7, 75, 101
15, 81840, Note_on_c, 7, 75, 0
15, 81840, Note_on_c, 7, 67, 101
15, 81900, Note_on_c, 7, 67, 0
15, 81900, Note_on_c, 7, 75, 101
15, 81960, Note_on_c, 7, 75, 0
15, 81960, Note_on_c, 7, 70, 101
15, 82020, Note_on_c, 7, 70, 0
15, 82020, Note_on_c, 7, 75, 101
15, 82080, Note_on_c, 7, 75, 0
15, 82080, Note_on_c, 7, 72, 101
15, 82200, Note_on_c, 7, 72, 0
15, 82200, Note_on_c, 7, 75, 115
15, 82200, Note_on_c, 7, 84, 115
15, 82320, Note_on_c, 7, 84, 0
15, 82320, Note_on_c, 7, 75, 0
15, 82320, Note_on_c, 7, 75, 115
15, 82320, Note_on_c, 7, 84, 115
15, 82440, Note_on_c, 7, 84, 0
15, 82440, Note_on_c, 7, 75, 0
15, 82440, Note_on_c, 7, 75, 115
15, 82440, Note_on_c, 7, 84, 115
15, 82560, Note_on_c, 7, 84, 0
15, 82560, Note_on_c, 7, 75, 0
15, 82560, Note_on_c, 7, 75, 115
15, 82560, Note_on_c, 7, 84, 115
15, 82680, Note_on_c, 7, 84, 0
15, 82680, Note_on_c, 7, 75, 0
15, 82680, Note_on_c, 7, 75, 115
15, 82680, Note_on_c, 7, 84, 115
15, 82800, Note_on_c, 7, 84, 0
15, 82800, Note_on_c, 7, 75, 0
15, 82800, Note_on_c, 7, 75, 115
15, 82800, Note_on_c, 7, 84, 115
15, 82920, Note_on_c, 7, 84, 0
15, 82920, Note_on_c, 7, 75, 0
15, 82920, Note_on_c, 7, 75, 115
15, 82920, Note_on_c, 7, 84, 115
15, 83040, Note_on_c, 7, 84, 0
15, 83040, Note_on_c, 7, 75, 0
15, 83040, Note_on_c, 7, 75, 115
15, 83040, Note_on_c, 7, 84, 115
15, 83160, Note_on_c, 7, 84, 0
15, 83160, Note_on_c, 7, 75, 0
15, 83160, Note_on_c, 7, 75, 115
15, 83160, Note_on_c, 7, 84, 115
15, 83280, Note_on_c, 7, 84, 0
15, 83280, Note_on_c, 7, 75, 0
15, 83280, Note_on_c, 7, 75, 115
15, 83280, Note_on_c, 7, 84, 115
15, 83400, Note_on_c, 7, 84, 0
15, 83400, Note_on_c, 7, 75, 0
15, 83400, Note_on_c, 7, 75, 115
15, 83400, Note_on_c, 7, 84, 115
15, 83520, Note_on_c, 7, 84, 0
15, 83520, Note_on_c, 7, 75, 0
15, 83520, Note_on_c, 7, 75, 115
15, 83520, Note_on_c, 7, 84, 115
15, 83640, Note_on_c, 7, 84, 0
15, 83640, Note_on_c, 7, 75, 0
15, 83640, Note_on_c, 7, 75, 115
15, 83640, Note_on_c, 7, 84, 115
15, 83760, Note_on_c, 7, 84, 0
15, 83760, Note_on_c, 7, 75, 0
15, 83760, Note_on_c, 7, 82, 115
15, 83880, Note_on_c, 7, 82, 0
15, 83880, Note_on_c, 7, 82, 115
15, 84000, Note_on_c, 7, 82, 0
15, 84000, Note_on_c, 7, 82, 115
15, 84120, Note_on_c, 7, 82, 0
15, 84120, Note_on_c, 7, 82, 115
15, 84240, Note_on_c, 7, 82, 0
15, 84240, Note_on_c, 7, 82, 115
15, 84360, Note_on_c, 7, 82, 0
15, 84360, Note_on_c, 7, 82, 115
15, 84480, Note_on_c, 7, 82, 0
15, 84480, Note_on_c, 7, 82, 115
15, 84600, Note_on_c, 7, 82, 0
15, 84600, Note_on_c, 7, 82, 115
15, 84720, Note_on_c, 7, 82, 0
15, 84720, Note_on_c, 7, 83, 115
15, 84840, Note_on_c, 7, 83, 0
15, 84840, Note_on_c, 7, 83, 115
15, 84960, Note_on_c, 7, 83, 0
15, 84960, Note_on_c, 7, 84, 115
15, 85080, Note_on_c, 7, 84, 0
15, 85080, Note_on_c, 7, 84, 115
15, 85200, Note_on_c, 7, 84, 0
15, 85200, Note_on_c, 7, 84, 115
15, 85320, Note_on_c, 7, 84, 0
15, 85320, Note_on_c, 7, 84, 115
15, 85440, Note_on_c, 7, 84, 0
15, 85440, Note_on_c, 7, 84, 115
15, 85560, Note_on_c, 7, 84, 0
15, 85560, Note_on_c, 7, 84, 115
15, 85680, Note_on_c, 7, 84, 0
15, 85680, Note_on_c, 7, 84, 115
15, 85800, Note_on_c, 7, 84, 0
15, 85800, Note_on_c, 7, 84, 115
15, 85920, Note_on_c, 7, 84, 0
15, 85920, Note_on_c, 7, 84, 115
15, 86040, Note_on_c, 7, 84, 0
15, 86040, Note_on_c, 7, 84, 115
15, 86160, Note_on_c, 7, 84, 0
15, 86160, Note_on_c, 7, 82, 115
15, 86280, Note_on_c, 7, 82, 0
15, 86280, Note_on_c, 7, 82, 115
15, 86400, Note_on_c, 7, 82, 0
15, 86400, Note_on_c, 7, 82, 115
15, 86520, Note_on_c, 7, 82, 0
15, 86520, Note_on_c, 7, 82, 115
15, 86640, Note_on_c, 7, 82, 0
15, 86640, Note_on_c, 7, 82, 115
15, 86760, Note_on_c, 7, 82, 0
15, 86760, Note_on_c, 7, 82, 115
15, 86880, Note_on_c, 7, 82, 0
15, 86880, Note_on_c, 7, 82, 115
15, 87000, Note_on_c, 7, 82, 0
15, 87000, Note_on_c, 7, 82, 115
15, 87120, Note_on_c, 7, 82, 0
15, 87120, Note_on_c, 7, 63, 115
15, 87120, Note_on_c, 7, 70, 115
15, 87120, Note_on_c, 7, 79, 115
15, 87360, Note_on_c, 7, 70, 0
15, 87360, Note_on_c, 7, 63, 0
15, 87420, Note_on_c, 7, 79, 0
15, 87420, Note_on_c, 7, 63, 115
15, 87480, Note_on_c, 7, 63, 0
15, 87480, Note_on_c, 7, 65, 115
15, 87540, Note_on_c, 7, 65, 0
15, 87540, Note_on_c, 7, 67, 115
15, 87600, Note_on_c, 7, 67, 0
15, 87600, Note_on_c, 7, 68, 115
15, 87660, Note_on_c, 7, 68, 0
15, 87660, Note_on_c, 7, 70, 115
15, 87720, Note_on_c, 7, 70, 0
15, 87720, Note_on_c, 7, 72, 115
15, 87780, Note_on_c, 7, 72, 0
15, 87780, Note_on_c, 7, 74, 115
15, 87840, Note_on_c, 7, 74, 0
15, 87840, Note_on_c, 7, 75, 115
15, 88200, Note_on_c, 7, 75, 0
15, 88200, Note_on_c, 7, 77, 115
15, 88260, Note_on_c, 7, 77, 0
15, 88260, Note_on_c, 7, 79, 115
15, 88320, Note_on_c, 7, 79, 0
15, 88320, Note_on_c, 7, 80, 115
15, 88380, Note_on_c, 7, 80, 0
15, 88380, Note_on_c, 7, 82, 115
15, 88440, Note_on_c, 7, 82, 0
15, 88440, Note_on_c, 7, 84, 115
15, 88500, Note_on_c, 7, 84, 0
15, 88500, Note_on_c, 7, 86, 115
15, 88560, Note_on_c, 7, 86, 0
15, 88560, Note_on_c, 7, 87, 115
15, 89040, Note_on_c, 7, 87, 0
15, 89040, Note_on_c, 7, 61, 78
15, 89280, Note_on_c, 7, 61, 0
15, 89280, Note_on_c, 7, 61, 78
15, 89520, Note_on_c, 7, 61, 0
15, 89760, Note_on_c, 7, 61, 78
15, 90000, Note_on_c, 7, 61, 0
15, 90000, Note_on_c, 7, 61, 78
15, 90240, Note_on_c, 7, 61, 0
15, 90480, Note_on_c, 7, 61, 78
15, 90720, Note_on_c, 7, 61, 0
15, 90720, Note_on_c, 7, 61, 78
15, 90960, Note_on_c, 7, 61, 0
15, 91200, Note_on_c, 7, 61, 78
15, 91440, Note_on_c, 7, 61, 0
15, 91440, Note_on_c, 7, 61, 78
15, 91680, Note_on_c, 7, 61, 0
15, 91920, Note_on_c, 7, 61, 78
15, 92160, Note_on_c, 7, 61, 0
15, 92160, Note_on_c, 7, 61, 78
15, 92400, Note_on_c, 7, 61, 0
15, 92640, Note_on_c, 7, 61, 78
15, 92880, Note_on_c, 7, 61, 0
15, 92880, Note_on_c, 7, 61, 78
15, 93120, Note_on_c, 7, 61, 0
15, 93360, Note_on_c, 7, 60, 78
15, 93600, Note_on_c, 7, 60, 0
15, 93600, Note_on_c, 7, 60, 78
15, 93840, Note_on_c, 7, 60, 0
15, 94080, Note_on_c, 7, 60, 78
15, 94320, Note_on_c, 7, 60, 0
15, 94320, Note_on_c, 7, 60, 78
15, 94560, Note_on_c, 7, 60, 0
15, 94800, Note_on_c, 7, 56, 78
15, 94800, Note_on_c, 7, 65, 78
15, 95040, Note_on_c, 7, 65, 0
15, 95040, Note_on_c, 7, 56, 0
15, 95040, Note_on_c, 7, 56, 115
15, 95040, Note_on_c, 7, 65, 115
15, 95280, Note_on_c, 7, 65, 0
15, 95280, Note_on_c, 7, 56, 0
15, 103560, Note_on_c, 7, 73, 91
15, 103680, Note_on_c, 7, 73, 0
15, 103680, Note_on_c, 7, 72, 91
15, 103800, Note_on_c, 7, 72, 0
15, 103800, Note_on_c, 7, 70, 91
15, 103920, Note_on_c, 7, 70, 0
15, 103920, Note_on_c, 7, 68, 91
15, 104040, Note_on_c, 7, 68, 0
15, 106320, Note_on_c, 7, 64, 123
15, 106500, Note_on_c, 7, 64, 0
15, 106500, Note_on_c, 7, 67, 123
15, 106560, Note_on_c, 7, 67, 0
15, 106560, Note_on_c, 7, 55, 123
15, 106560, Note_on_c, 7, 64, 123
15, 106560, Note_on_c, 7, 72, 123
15, 106800, Note_on_c, 7, 72, 0
15, 106800, Note_on_c, 7, 64, 0
15, 106800, Note_on_c, 7, 55, 0
15, 106800, Note_on_c, 7, 55, 123
15, 106800, Note_on_c, 7, 64, 123
15, 106800, Note_on_c, 7, 72, 123
15, 107040, Note_on_c, 7, 72, 0
15, 107040, Note_on_c, 7, 64, 0
15, 107040, Note_on_c, 7, 55, 0
15, 107040, Note_on_c, 7, 59, 123
15, 107040, Note_on_c, 7, 67, 123
15, 107040, Note_on_c, 7, 74, 123
15, 107280, Note_on_c, 7, 74, 0
15, 107280, Note_on_c, 7, 67, 0
15, 107280, Note_on_c, 7, 59, 0
15, 107280, Note_on_c, 7, 60, 123
15, 107280, Note_on_c, 7, 67, 123
15, 107280, Note_on_c, 7, 76, 123
15, 108000, Note_on_c, 7, 67, 0
15, 108000, Note_on_c, 7, 60, 0
15, 108480, Note_on_c, 7, 76, 0
15, 108480, Note_on_c, 7, 72, 123
15, 108660, Note_on_c, 7, 72, 0
15, 108660, Note_on_c, 7, 74, 123
15, 108720, Note_on_c, 7, 74, 0
15, 108720, Note_on_c, 7, 64, 123
15, 108720, Note_on_c, 7, 72, 123
15, 108720, Note_on_c, 7, 76, 123
15, 108960, Note_on_c, 7, 76, 0
15, 108960, Note_on_c, 7, 72, 0
15, 108960, Note_on_c, 7, 64, 0
15, 108960, Note_on_c, 7, 64, 123
15, 108960, Note_on_c, 7, 72, 123
15, 108960, Note_on_c, 7, 76, 123
15, 109200, Note_on_c, 7, 76, 0
15, 109200, Note_on_c, 7, 72, 0
15, 109200, Note_on_c, 7, 64, 0
15, 109200, Note_on_c, 7, 65, 123
15, 109200, Note_on_c, 7, 72, 123
15, 109200, Note_on_c, 7, 77, 123
15, 109440, Note_on_c, 7, 77, 0
15, 109440, Note_on_c, 7, 72, 0
15, 109440, Note_on_c, 7, 65, 0
15, 109440, Note_on_c, 7, 64, 123
15, 109440, Note_on_c, 7, 72, 123
15, 109440, Note_on_c, 7, 79, 123
15, 110160, Note_on_c, 7, 72, 0
15, 110160, Note_on_c, 7, 64, 0
15, 110640, Note_on_c, 7, 79, 0
15, 110640, Note_on_c, 7, 76, 123
15, 110820, Note_on_c, 7, 76, 0
15, 110820, Note_on_c, 7, 77, 123
15, 110880, Note_on_c, 7, 77, 0
15, 110880, Note_on_c, 7, 64, 123
15, 110880, Note_on_c, 7, 72, 123
15, 110880, Note_on_c, 7, 79, 123
15, 111360, Note_on_c, 7, 79, 0
15, 111360, Note_on_c, 7, 72, 0
15, 111360, Note_on_c, 7, 64, 0
15, 111360, Note_on_c, 7, 76, 123
15, 111540, Note_on_c, 7, 76, 0
15, 111540, Note_on_c, 7, 77, 123
15, 111600, Note_on_c, 7, 77, 0
15, 111600, Note_on_c, 7, 64, 123
15, 111600, Note_on_c, 7, 72, 123
15, 111600, Note_on_c, 7, 79, 123
15, 112080, Note_on_c, 7, 79, 0
15, 112080, Note_on_c, 7, 72, 0
15, 112080, Note_on_c, 7, 64, 0
15, 112080, Note_on_c, 7, 76, 123
15, 112260, Note_on_c, 7, 76, 0
15, 112260, Note_on_c, 7, 77, 123
15, 112320, Note_on_c, 7, 77, 0
15, 112320, Note_on_c, 7, 64, 123
15, 112320, Note_on_c, 7, 72, 123
15, 112320, Note_on_c, 7, 79, 123
15, 112800, Note_on_c, 7, 79, 0
15, 112800, Note_on_c, 7, 72, 0
15, 112800, Note_on_c, 7, 64, 0
15, 113520, Note_on_c, 7, 60, 91
15, 113700, Note_on_c, 7, 60, 0
15, 113700, Note_on_c, 7, 64, 91
15, 113760, Note_on_c, 7, 64, 0
15, 113760, Note_on_c, 7, 67, 91
15, 114000, Note_on_c, 7, 67, 0
15, 114240, Note_on_c, 7, 60, 91
15, 114420, Note_on_c, 7, 60, 0
15, 114420, Note_on_c, 7, 65, 91
15, 114480, Note_on_c, 7, 65, 0
15, 114480, Note_on_c, 7, 68, 91
15, 114720, Note_on_c, 7, 68, 0
15, 114960, Note_on_c, 7, 63, 91
15, 115140, Note_on_c, 7, 63, 0
15, 115140, Note_on_c, 7, 67, 91
15, 115200, Note_on_c, 7, 67, 0
15, 115200, Note_on_c, 7, 70, 91
15, 115280, Note_on_c, 7, 70, 0
15, 115280, Note_on_c, 7, 63, 91
15, 115360, Note_on_c, 7, 63, 0
15, 115360, Note_on_c, 7, 67, 91
15, 115440, Note_on_c, 7, 67, 0
15, 115440, Note_on_c, 7, 70, 91
15, 115520, Note_on_c, 7, 70, 0
15, 115520, Note_on_c, 7, 63, 91
15, 115600, Note_on_c, 7, 63, 0
15, 115600, Note_on_c, 7, 67, 91
15, 115680, Note_on_c, 7, 67, 0
15, 115680, Note_on_c, 7, 70, 91
15, 115760, Note_on_c, 7, 70, 0
15, 115760, Note_on_c, 7, 63, 91
15, 115840, Note_on_c, 7, 63, 0
15, 115840, Note_on_c, 7, 67, 91
15, 115920, Note_on_c, 7, 67, 0
15, 115920, Note_on_c, 7, 70, 91
15, 116000, Note_on_c, 7, 70, 0
15, 116000, Note_on_c, 7, 63, 91
15, 116080, Note_on_c, 7, 63, 0
15, 116080, Note_on_c, 7, 67, 91
15, 116160, Note_on_c, 7, 67, 0
15, 116160, Note_on_c, 7, 70, 91
15, 116240, Note_on_c, 7, 70, 0
15, 116240, Note_on_c, 7, 63, 91
15, 116320, Note_on_c, 7, 63, 0
15, 116320, Note_on_c, 7, 67, 91
15, 116400, Note_on_c, 7, 67, 0
15, 116400, Note_on_c, 7, 70, 91
15, 116480, Note_on_c, 7, 70, 0
15, 116480, Note_on_c, 7, 63, 91
15, 116560, Note_on_c, 7, 63, 0
15, 116560, Note_on_c, 7, 67, 91
15, 116640, Note_on_c, 7, 67, 0
15, 116640, Note_on_c, 7, 70, 78
15, 116700, Note_on_c, 7, 70, 0
15, 116700, Note_on_c, 7, 67, 78
15, 116760, Note_on_c, 7, 67, 0
15, 116760, Note_on_c, 7, 63, 78
15, 116820, Note_on_c, 7, 63, 0
15, 116820, Note_on_c, 7, 67, 78
15, 116880, Note_on_c, 7, 67, 0
15, 116880, Note_on_c, 7, 70, 78
15, 116940, Note_on_c, 7, 70, 0
15, 116940, Note_on_c, 7, 67, 78
15, 117000, Note_on_c, 7, 67, 0
15, 117000, Note_on_c, 7, 63, 78
15, 117060, Note_on_c, 7, 63, 0
15, 117060, Note_on_c, 7, 67, 78
15, 117120, Note_on_c, 7, 67, 0
15, 117120, Note_on_c, 7, 70, 78
15, 117180, Note_on_c, 7, 70, 0
15, 117180, Note_on_c, 7, 67, 78
15, 117240, Note_on_c, 7, 67, 0
15, 117240, Note_on_c, 7, 63, 78
15, 117300, Note_on_c, 7, 63, 0
15, 117300, Note_on_c, 7, 67, 78
15, 117360, Note_on_c, 7, 67, 0
15, 117360, Note_on_c, 7, 70, 78
15, 117600, Note_on_c, 7, 70, 0
15, 118080, Note_on_c, 7, 70, 78
15, 118140, Note_on_c, 7, 70, 0
15, 118140, Note_on_c, 7, 67, 78
15, 118200, Note_on_c, 7, 67, 0
15, 118200, Note_on_c, 7, 63, 78
15, 118260, Note_on_c, 7, 63, 0
15, 118260, Note_on_c, 7, 67, 78
15, 118320, Note_on_c, 7, 67, 0
15, 118320, Note_on_c, 7, 70, 78
15, 118380, Note_on_c, 7, 70, 0
15, 118380, Note_on_c, 7, 67, 78
15, 118440, Note_on_c, 7, 67, 0
15, 118440, Note_on_c, 7, 63, 78
15, 118500, Note_on_c, 7, 63, 0
15, 118500, Note_on_c, 7, 67, 78
15, 118560, Note_on_c, 7, 67, 0
15, 118560, Note_on_c, 7, 70, 78
15, 118620, Note_on_c, 7, 70, 0
15, 118620, Note_on_c, 7, 67, 78
15, 118680, Note_on_c, 7, 67, 0
15, 118680, Note_on_c, 7, 63, 78
15, 118740, Note_on_c, 7, 63, 0
15, 118740, Note_on_c, 7, 67, 78
15, 118800, Note_on_c, 7, 67, 0
15, 118800, Note_on_c, 7, 70, 78
15, 118860, Note_on_c, 7, 70, 0
15, 118860, Note_on_c, 7, 67, 78
15, 118920, Note_on_c, 7, 67, 0
15, 118920, Note_on_c, 7, 63, 78
15, 118980, Note_on_c, 7, 63, 0
15, 118980, Note_on_c, 7, 67, 78
15, 119040, Note_on_c, 7, 67, 0
15, 119040, Note_on_c, 7, 70, 78
15, 119100, Note_on_c, 7, 70, 0
15, 119100, Note_on_c, 7, 67, 78
15, 119160, Note_on_c, 7, 67, 0
15, 119160, Note_on_c, 7, 63, 78
15, 119220, Note_on_c, 7, 63, 0
15, 119220, Note_on_c, 7, 67, 78
15, 119280, Note_on_c, 7, 67, 0
15, 119280, Note_on_c, 7, 70, 78
15, 119340, Note_on_c, 7, 70, 0
15, 119340, Note_on_c, 7, 67, 78
15, 119400, Note_on_c, 7, 67, 0
15, 119400, Note_on_c, 7, 63, 78
15, 119460, Note_on_c, 7, 63, 0
15, 119460, Note_on_c, 7, 67, 78
15, 119520, Note_on_c, 7, 67, 0
15, 119520, Note_on_c, 7, 70, 78
15, 119580, Note_on_c, 7, 70, 0
15, 119580, Note_on_c, 7, 67, 78
15, 119640, Note_on_c, 7, 67, 0
15, 119640, Note_on_c, 7, 63, 78
15, 119700, Note_on_c, 7, 63, 0
15, 119700, Note_on_c, 7, 67, 78
15, 119760, Note_on_c, 7, 67, 0
15, 119760, Note_on_c, 7, 70, 78
15, 119820, Note_on_c, 7, 70, 0
15, 119820, Note_on_c, 7, 67, 78
15, 119880, Note_on_c, 7, 67, 0
15, 119880, Note_on_c, 7, 63, 78
15, 119940, Note_on_c, 7, 63, 0
15, 119940, Note_on_c, 7, 67, 78
15, 120000, Note_on_c, 7, 67, 0
15, 120000, Note_on_c, 7, 72, 78
15, 120060, Note_on_c, 7, 72, 0
15, 120060, Note_on_c, 7, 68, 78
15, 120120, Note_on_c, 7, 68, 0
15, 120120, Note_on_c, 7, 63, 78
15, 120180, Note_on_c, 7, 63, 0
15, 120180, Note_on_c, 7, 68, 78
15, 120240, Note_on_c, 7, 68, 0
15, 120240, Note_on_c, 7, 71, 78
15, 120300, Note_on_c, 7, 71, 0
15, 120300, Note_on_c, 7, 68, 78
15, 120360, Note_on_c, 7, 68, 0
15, 120360, Note_on_c, 7, 63, 78
15, 120420, Note_on_c, 7, 63, 0
15, 120420, Note_on_c, 7, 68, 78
15, 120480, Note_on_c, 7, 68, 0
15, 120480, Note_on_c, 7, 71, 78
15, 120540, Note_on_c, 7, 71, 0
15, 120540, Note_on_c, 7, 68, 78
15, 120600, Note_on_c, 7, 68, 0
15, 120600, Note_on_c, 7, 63, 78
15, 120660, Note_on_c, 7, 63, 0
15, 120660, Note_on_c, 7, 68, 78
15, 120720, Note_on_c, 7, 68, 0
15, 120720, Note_on_c, 7, 71, 78
15, 120780, Note_on_c, 7, 71, 0
15, 120780, Note_on_c, 7, 68, 78
15, 120840, Note_on_c, 7, 68, 0
15, 120840, Note_on_c, 7, 63, 78
15, 120900, Note_on_c, 7, 63, 0
15, 120900, Note_on_c, 7, 68, 78
15, 120960, Note_on_c, 7, 68, 0
15, 120960, Note_on_c, 7, 70, 78
15, 121020, Note_on_c, 7, 70, 0
15, 121020, Note_on_c, 7, 67, 78
15, 121080, Note_on_c, 7, 67, 0
15, 121080, Note_on_c, 7, 63, 78
15, 121140, Note_on_c, 7, 63, 0
15, 121140, Note_on_c, 7, 67, 78
15, 121200, Note_on_c, 7, 67, 0
15, 121200, Note_on_c, 7, 70, 78
15, 121260, Note_on_c, 7, 70, 0
15, 121260, Note_on_c, 7, 67, 78
15, 121320, Note_on_c, 7, 67, 0
15, 121320, Note_on_c, 7, 63, 78
15, 121380, Note_on_c, 7, 63, 0
15, 121380, Note_on_c, 7, 67, 78
15, 121440, Note_on_c, 7, 67, 0
15, 121440, Note_on_c, 7, 70, 78
15, 121500, Note_on_c, 7, 70, 0
15, 121500, Note_on_c, 7, 67, 78
15, 121560, Note_on_c, 7, 67, 0
15, 121560, Note_on_c, 7, 63, 78
15, 121620, Note_on_c, 7, 63, 0
15, 121620, Note_on_c, 7, 67, 78
15, 121680, Note_on_c, 7, 67, 0
15, 121680, Note_on_c, 7, 71, 78
15, 121740, Note_on_c, 7, 71, 0
15, 121740, Note_on_c, 7, 68, 78
15, 121800, Note_on_c, 7, 68, 0
15, 121800, Note_on_c, 7, 63, 78
15, 121860, Note_on_c, 7, 63, 0
15, 121860, Note_on_c, 7, 68, 78
15, 121920, Note_on_c, 7, 68, 0
15, 121920, Note_on_c, 7, 71, 78
15, 121980, Note_on_c, 7, 71, 0
15, 121980, Note_on_c, 7, 68, 78
15, 122040, Note_on_c, 7, 68, 0
15, 122040, Note_on_c, 7, 63, 78
15, 122100, Note_on_c, 7, 63, 0
15, 122100, Note_on_c, 7, 68, 78
15, 122160, Note_on_c, 7, 68, 0
15, 122160, Note_on_c, 7, 71, 78
15, 122220, Note_on_c, 7, 71, 0
15, 122220, Note_on_c, 7, 68, 78
15, 122280, Note_on_c, 7, 68, 0
15, 122280, Note_on_c, 7, 63, 78
15, 122340, Note_on_c, 7, 63, 0
15, 122340, Note_on_c, 7, 71, 78
15, 122400, Note_on_c, 7, 71, 0
15, 122400, Note_on_c, 7, 73, 78
15, 122460, Note_on_c, 7, 73, 0
15, 122460, Note_on_c, 7, 70, 78
15, 122520, Note_on_c, 7, 70, 0
15, 122520, Note_on_c, 7, 66, 78
15, 122580, Note_on_c, 7, 66, 0
15, 122580, Note_on_c, 7, 70, 78
15, 122640, Note_on_c, 7, 70, 0
15, 122640, Note_on_c, 7, 73, 78
15, 122700, Note_on_c, 7, 73, 0
15, 122700, Note_on_c, 7, 70, 78
15, 122760, Note_on_c, 7, 70, 0
15, 122760, Note_on_c, 7, 66, 78
15, 122820, Note_on_c, 7, 66, 0
15, 122820, Note_on_c, 7, 70, 78
15, 122880, Note_on_c, 7, 70, 0
15, 122880, Note_on_c, 7, 73, 78
15, 122940, Note_on_c, 7, 73, 0
15, 122940, Note_on_c, 7, 70, 78
15, 123000, Note_on_c, 7, 70, 0
15, 123000, Note_on_c, 7, 66, 78
15, 123060, Note_on_c, 7, 66, 0
15, 123060, Note_on_c, 7, 70, 78
15, 123120, Note_on_c, 7, 70, 0
15, 123120, Note_on_c, 7, 75, 78
15, 123180, Note_on_c, 7, 75, 0
15, 123180, Note_on_c, 7, 71, 78
15, 123240, Note_on_c, 7, 71, 0
15, 123240, Note_on_c, 7, 66, 78
15, 123300, Note_on_c, 7, 66, 0
15, 123300, Note_on_c, 7, 71, 78
15, 123360, Note_on_c, 7, 71, 0
15, 123360, Note_on_c, 7, 75, 78
15, 123420, Note_on_c, 7, 75, 0
15, 123420, Note_on_c, 7, 71, 78
15, 123480, Note_on_c, 7, 71, 0
15, 123480, Note_on_c, 7, 66, 78
15, 123540, Note_on_c, 7, 66, 0
15, 123540, Note_on_c, 7, 71, 78
15, 123600, Note_on_c, 7, 71, 0
15, 123600, Note_on_c, 7, 75, 78
15, 123660, Note_on_c, 7, 75, 0
15, 123660, Note_on_c, 7, 71, 78
15, 123720, Note_on_c, 7, 71, 0
15, 123720, Note_on_c, 7, 66, 78
15, 123780, Note_on_c, 7, 66, 0
15, 123780, Note_on_c, 7, 75, 78
15, 123840, Note_on_c, 7, 75, 0
15, 123840, Note_on_c, 7, 73, 78
15, 123900, Note_on_c, 7, 73, 0
15, 123900, Note_on_c, 7, 70, 78
15, 123960, Note_on_c, 7, 70, 0
15, 123960, Note_on_c, 7, 66, 78
15, 124020, Note_on_c, 7, 66, 0
15, 124020, Note_on_c, 7, 70, 78
15, 124080, Note_on_c, 7, 70, 0
15, 124080, Note_on_c, 7, 73, 78
15, 124140, Note_on_c, 7, 73, 0
15, 124140, Note_on_c, 7, 70, 78
15, 124200, Note_on_c, 7, 70, 0
15, 124200, Note_on_c, 7, 66, 78
15, 124260, Note_on_c, 7, 66, 0
15, 124260, Note_on_c, 7, 70, 78
15, 124320, Note_on_c, 7, 70, 0
15, 124320, Note_on_c, 7, 73, 78
15, 124380, Note_on_c, 7, 73, 0
15, 124380, Note_on_c, 7, 70, 78
15, 124440, Note_on_c, 7, 70, 0
15, 124440, Note_on_c, 7, 66, 78
15, 124500, Note_on_c, 7, 66, 0
15, 124500, Note_on_c, 7, 73, 78
15, 124560, Note_on_c, 7, 73, 0
15, 124560, Note_on_c, 7, 71, 78
15, 124620, Note_on_c, 7, 71, 0
15, 124620, Note_on_c, 7, 68, 78
15, 124680, Note_on_c, 7, 68, 0
15, 124680, Note_on_c, 7, 63, 78
15, 124740, Note_on_c, 7, 63, 0
15, 124740, Note_on_c, 7, 68, 78
15, 124800, Note_on_c, 7, 68, 0
15, 124800, Note_on_c, 7, 71, 78
15, 124860, Note_on_c, 7, 71, 0
15, 124860, Note_on_c, 7, 68, 78
15, 124920, Note_on_c, 7, 68, 0
15, 124920, Note_on_c, 7, 63, 78
15, 124980, Note_on_c, 7, 63, 0
15, 124980, Note_on_c, 7, 68, 78
15, 125040, Note_on_c, 7, 68, 0
15, 125040, Note_on_c, 7, 71, 78
15, 125100, Note_on_c, 7, 71, 0
15, 125100, Note_on_c, 7, 68, 78
15, 125160, Note_on_c, 7, 68, 0
15, 125160, Note_on_c, 7, 63, 78
15, 125220, Note_on_c, 7, 63, 0
15, 125220, Note_on_c, 7, 71, 78
15, 125280, Note_on_c, 7, 71, 0
15, 125280, Note_on_c, 7, 70, 91
15, 125340, Note_on_c, 7, 70, 0
15, 125340, Note_on_c, 7, 67, 91
15, 125400, Note_on_c, 7, 67, 0
15, 125400, Note_on_c, 7, 63, 91
15, 125460, Note_on_c, 7, 63, 0
15, 125460, Note_on_c, 7, 67, 91
15, 125520, Note_on_c, 7, 67, 0
15, 125520, Note_on_c, 7, 70, 91
15, 125580, Note_on_c, 7, 70, 0
15, 125580, Note_on_c, 7, 63, 91
15, 125640, Note_on_c, 7, 63, 0
15, 125640, Note_on_c, 7, 71, 91
15, 125700, Note_on_c, 7, 71, 0
15, 125700, Note_on_c, 7, 63, 91
15, 125760, Note_on_c, 7, 63, 0
15, 125760, Note_on_c, 7, 68, 101
15, 125820, Note_on_c, 7, 68, 0
15, 125820, Note_on_c, 7, 63, 101
15, 125880, Note_on_c, 7, 63, 0
15, 125880, Note_on_c, 7, 71, 101
15, 125940, Note_on_c, 7, 71, 0
15, 125940, Note_on_c, 7, 63, 101
15, 126000, Note_on_c, 7, 63, 0
15, 126000, Note_on_c, 7, 70, 101
15, 126060, Note_on_c, 7, 70, 0
15, 126060, Note_on_c, 7, 67, 101
15, 126120, Note_on_c, 7, 67, 0
15, 126120, Note_on_c, 7, 63, 101
15, 126180, Note_on_c, 7, 63, 0
15, 126180, Note_on_c, 7, 67, 101
15, 126240, Note_on_c, 7, 67, 0
15, 126240, Note_on_c, 7, 70, 109
15, 126300, Note_on_c, 7, 70, 0
15, 126300, Note_on_c, 7, 63, 109
15, 126360, Note_on_c, 7, 63, 0
15, 126360, Note_on_c, 7, 71, 109
15, 126420, Note_on_c, 7, 71, 0
15, 126420, Note_on_c, 7, 63, 109
15, 126480, Note_on_c, 7, 63, 0
15, 126480, Note_on_c, 7, 68, 109
15, 126540, Note_on_c, 7, 68, 0
15, 126540, Note_on_c, 7, 63, 109
15, 126600, Note_on_c, 7, 63, 0
15, 126600, Note_on_c, 7, 71, 109
15, 126660, Note_on_c, 7, 71, 0
15, 126660, Note_on_c, 7, 63, 109
15, 126720, Note_on_c, 7, 63, 0
15, 126720, Note_on_c, 7, 70, 115
15, 126840, Note_on_c, 7, 70, 0
15, 126840, Note_on_c, 7, 63, 115
15, 126840, Note_on_c, 7, 75, 115
15, 126960, Note_on_c, 7, 75, 0
15, 126960, Note_on_c, 7, 63, 0
15, 129120, Note_on_c, 7, 72, 91
15, 129240, Note_on_c, 7, 72, 0
15, 129240, Note_on_c, 7, 73, 91
15, 129360, Note_on_c, 7, 73, 0
15, 129360, Note_on_c, 7, 75, 91
15, 129480, Note_on_c, 7, 75, 0
15, 129480, Note_on_c, 7, 77, 91
15, 129600, Note_on_c, 7, 77, 0
15, 129600, Note_on_c, 7, 69, 91
15, 129720, Note_on_c, 7, 69, 0
15, 129720, Note_on_c, 7, 70, 91
15, 129840, Note_on_c, 7, 70, 0
15, 129840, Note_on_c, 7, 72, 91
15, 129960, Note_on_c, 7, 72, 0
15, 129960, Note_on_c, 7, 73, 91
15, 130080, Note_on_c, 7, 73, 0
15, 132300, Note_on_c, 7, 75, 91
15, 132360, Note_on_c, 7, 75, 0
15, 132360, Note_on_c, 7, 77, 91
15, 132420, Note_on_c, 7, 77, 0
15, 132420, Note_on_c, 7, 79, 91
15, 132480, Note_on_c, 7, 79, 0
15, 132480, Note_on_c, 7, 80, 101
15, 132540, Note_on_c, 7, 80, 0
15, 132540, Note_on_c, 7, 82, 101
15, 132600, Note_on_c, 7, 82, 0
15, 132600, Note_on_c, 7, 84, 109
15, 132660, Note_on_c, 7, 84, 0
15, 132660, Note_on_c, 7, 85, 109
15, 132720, Note_on_c, 7, 85, 0
15, 132720, Note_on_c, 7, 87, 115
15, 133080, Note_on_c, 7, 87, 0
15, 133080, Note_on_c, 7, 85, 115
15, 133200, Note_on_c, 7, 85, 0
15, 133200, Note_on_c, 7, 84, 123
15, 133440, Note_on_c, 7, 84, 0
15, 133440, Note_on_c, 7, 84, 123
15, 133620, Note_on_c, 7, 84, 0
15, 133620, Note_on_c, 7, 82, 123
15, 133680, Note_on_c, 7, 82, 0
15, 133680, Note_on_c, 7, 80, 123
15, 133860, Note_on_c, 7, 80, 0
15, 133860, Note_on_c, 7, 84, 123
15, 133920, Note_on_c, 7, 84, 0
15, 133920, Note_on_c, 7, 77, 123
15, 134340, Note_on_c, 7, 77, 0
15, 134340, Note_on_c, 7, 81, 123
15, 134400, Note_on_c, 7, 81, 0
15, 134400, Note_on_c, 7, 82, 123
15, 134580, Note_on_c, 7, 82, 0
15, 134580, Note_on_c, 7, 84, 123
15, 134640, Note_on_c, 7, 84, 0
15, 134640, Note_on_c, 7, 85, 123
15, 134820, Note_on_c, 7, 85, 0
15, 134820, Note_on_c, 7, 84, 123
15, 134880, Note_on_c, 7, 84, 0
15, 134880, Note_on_c, 7, 82, 123
15, 135060, Note_on_c, 7, 82, 0
15, 135060, Note_on_c, 7, 85, 123
15, 135120, Note_on_c, 7, 85, 0
15, 135120, Note_on_c, 7, 79, 123
15, 135300, Note_on_c, 7, 79, 0
15, 135300, Note_on_c, 7, 82, 123
15, 135360, Note_on_c, 7, 82, 0
15, 135360, Note_on_c, 7, 76, 123
15, 135540, Note_on_c, 7, 76, 0
15, 135540, Note_on_c, 7, 79, 123
15, 135600, Note_on_c, 7, 79, 0
15, 135600, Note_on_c, 7, 84, 123
15, 136020, Note_on_c, 7, 84, 0
15, 136020, Note_on_c, 7, 82, 123
15, 136080, Note_on_c, 7, 82, 0
15, 136080, Note_on_c, 7, 81, 123
15, 136260, Note_on_c, 7, 81, 0
15, 136260, Note_on_c, 7, 77, 123
15, 136320, Note_on_c, 7, 77, 0
15, 136320, Note_on_c, 7, 82, 123
15, 136680, Note_on_c, 7, 82, 0
15, 136680, Note_on_c, 7, 85, 123
15, 136800, Note_on_c, 7, 85, 0
15, 136800, Note_on_c, 7, 79, 123
15, 136980, Note_on_c, 7, 79, 0
15, 136980, Note_on_c, 7, 75, 123
15, 137040, Note_on_c, 7, 75, 0
15, 137040, Note_on_c, 7, 80, 123
15, 137280, Note_on_c, 7, 80, 0
15, 137280, Note_on_c, 7, 80, 123
15, 137460, Note_on_c, 7, 80, 0
15, 137460, Note_on_c, 7, 84, 123
15, 137520, Note_on_c, 7, 84, 0
15, 137520, Note_on_c, 7, 87, 123
15, 138240, Note_on_c, 7, 87, 0
15, 138240, Note_on_c, 7, 84, 123
15, 138300, Note_on_c, 7, 84, 0
15, 138300, Note_on_c, 7, 56, 123
15, 138360, Note_on_c, 7, 56, 0
15, 138360, Note_on_c, 7, 58, 123
15, 138420, Note_on_c, 7, 58, 0
15, 138420, Note_on_c, 7, 60, 123
15, 138480, Note_on_c, 7, 60, 0
15, 138480, Note_on_c, 7, 61, 123
15, 138540, Note_on_c, 7, 61, 0
15, 138540, Note_on_c, 7, 63, 123
15, 138600, Note_on_c, 7, 63, 0
15, 138600, Note_on_c, 7, 65, 123
15, 138660, Note_on_c, 7, 65, 0
15, 138660, Note_on_c, 7, 67, 123
15, 138720, Note_on_c, 7, 67, 0
15, 138720, Note_on_c, 7, 68, 123
15, 138780, Note_on_c, 7, 68, 0
15, 138780, Note_on_c, 7, 70, 123
15, 138840, Note_on_c, 7, 70, 0
15, 138840, Note_on_c, 7, 72, 123
15, 138900, Note_on_c, 7, 72, 0
15, 138900, Note_on_c, 7, 73, 123
15, 138960, Note_on_c, 7, 73, 0
15, 138960, Note_on_c, 7, 63, 123
15, 138960, Note_on_c, 7, 75, 123
15, 139200, Note_on_c, 7, 75, 0
15, 139200, Note_on_c, 7, 63, 0
15, 139680, Note_on_c, 7, 56, 123
15, 139680, Note_on_c, 7, 63, 123
15, 139680, Note_on_c, 7, 72, 123
15, 139740, Note_on_c, 7, 72, 0
15, 139740, Note_on_c, 7, 63, 0
15, 139740, Note_on_c, 7, 56, 0
15, 139740, Note_on_c, 7, 68, 123
15, 139800, Note_on_c, 7, 68, 0
15, 139800, Note_on_c, 7, 70, 123
15, 139860, Note_on_c, 7, 70, 0
15, 139860, Note_on_c, 7, 72, 123
15, 139920, Note_on_c, 7, 72, 0
15, 139920, Note_on_c, 7, 73, 123
15, 139980, Note_on_c, 7, 73, 0
15, 139980, Note_on_c, 7, 75, 123
15, 140040, Note_on_c, 7, 75, 0
15, 140040, Note_on_c, 7, 77, 123
15, 140100, Note_on_c, 7, 77, 0
15, 140100, Note_on_c, 7, 79, 123
15, 140160, Note_on_c, 7, 79, 0
15, 140160, Note_on_c, 7, 80, 123
15, 140220, Note_on_c, 7, 80, 0
15, 140220, Note_on_c, 7, 82, 123
15, 140280, Note_on_c, 7, 82, 0
15, 140280, Note_on_c, 7, 84, 123
15, 140340, Note_on_c, 7, 84, 0
15, 140340, Note_on_c, 7, 85, 123
15, 140400, Note_on_c, 7, 85, 0
15, 140400, Note_on_c, 7, 87, 123
15, 140640, Note_on_c, 7, 87, 0
15, 143640, Note_on_c, 7, 68, 91
15, 143760, Note_on_c, 7, 68, 0
15, 143760, Note_on_c, 7, 72, 91
15, 143880, Note_on_c, 7, 72, 0
15, 143880, Note_on_c, 7, 75, 91
15, 144000, Note_on_c, 7, 75, 0
15, 144000, Note_on_c, 7, 75, 91
15, 144120, Note_on_c, 7, 75, 0
15, 144120, Note_on_c, 7, 73, 91
15, 144240, Note_on_c, 7, 73, 0
15, 144240, Note_on_c, 7, 72, 91
15, 144600, Note_on_c, 7, 72, 0
15, 144600, Note_on_c, 7, 72, 91
15, 144720, Note_on_c, 7, 72, 0
15, 144720, Note_on_c, 7, 72, 91
15, 144840, Note_on_c, 7, 72, 0
15, 144840, Note_on_c, 7, 70, 91
15, 144960, Note_on_c, 7, 70, 0
15, 144960, Note_on_c, 7, 68, 91
15, 145320, Note_on_c, 7, 68, 0
15, 145320, Note_on_c, 7, 68, 91
15, 145440, Note_on_c, 7, 68, 0
15, 145440, Note_on_c, 7, 67, 91
15, 145920, Note_on_c, 7, 67, 0
15, 145920, Note_on_c, 7, 67, 91
15, 146000, Note_on_c, 7, 67, 0
15, 146000, Note_on_c, 7, 68, 91
15, 146080, Note_on_c, 7, 68, 0
15, 146080, Note_on_c, 7, 70, 91
15, 146160, Note_on_c, 7, 70, 0
15, 146160, Note_on_c, 7, 68, 91
15, 146400, Note_on_c, 7, 68, 0
15, 146640, Note_on_c, 7, 67, 91
15, 146720, Note_on_c, 7, 67, 0
15, 146720, Note_on_c, 7, 68, 91
15, 146800, Note_on_c, 7, 68, 0
15, 146800, Note_on_c, 7, 70, 91
15, 146880, Note_on_c, 7, 70, 0
15, 146880, Note_on_c, 7, 68, 91
15, 147120, Note_on_c, 7, 68, 0
15, 147360, Note_on_c, 7, 67, 91
15, 147440, Note_on_c, 7, 67, 0
15, 147440, Note_on_c, 7, 68, 91
15, 147520, Note_on_c, 7, 68, 0
15, 147520, Note_on_c, 7, 70, 91
15, 147600, Note_on_c, 7, 70, 0
15, 147600, Note_on_c, 7, 68, 91
15, 147720, Note_on_c, 7, 68, 0
15, 147720, Note_on_c, 7, 68, 78
15, 147840, Note_on_c, 7, 68, 0
15, 147960, Note_on_c, 7, 68, 78
15, 148080, Note_on_c, 7, 68, 0
15, 148200, Note_on_c, 7, 68, 78
15, 148320, Note_on_c, 7, 68, 0
15, 148440, Note_on_c, 7, 68, 78
15, 148560, Note_on_c, 7, 68, 0
15, 148680, Note_on_c, 7, 68, 78
15, 148800, Note_on_c, 7, 68, 0
15, 148920, Note_on_c, 7, 68, 78
15, 149040, Note_on_c, 7, 68, 0
15, 149160, Note_on_c, 7, 68, 78
15, 149280, Note_on_c, 7, 68, 0
15, 149400, Note_on_c, 7, 68, 78
15, 149520, Note_on_c, 7, 68, 0
15, 149640, Note_on_c, 7, 68, 78
15, 149760, Note_on_c, 7, 68, 0
15, 149880, Note_on_c, 7, 67, 78
15, 150000, Note_on_c, 7, 67, 0
15, 150120, Note_on_c, 7, 67, 78
15, 150240, Note_on_c, 7, 67, 0
15, 150360, Note_on_c, 7, 67, 78
15, 150480, Note_on_c, 7, 67, 0
15, 150600, Note_on_c, 7, 68, 78
15, 150720, Note_on_c, 7, 68, 0
15, 150840, Note_on_c, 7, 68, 78
15, 150960, Note_on_c, 7, 68, 0
15, 151080, Note_on_c, 7, 68, 78
15, 151200, Note_on_c, 7, 68, 0
15, 151320, Note_on_c, 7, 68, 78
15, 151440, Note_on_c, 7, 68, 0
15, 151560, Note_on_c, 7, 68, 78
15, 151680, Note_on_c, 7, 68, 0
15, 151800, Note_on_c, 7, 68, 78
15, 151920, Note_on_c, 7, 68, 0
15, 152040, Note_on_c, 7, 68, 78
15, 152160, Note_on_c, 7, 68, 0
15, 152280, Note_on_c, 7, 68, 78
15, 152400, Note_on_c, 7, 68, 0
15, 152520, Note_on_c, 7, 68, 78
15, 152640, Note_on_c, 7, 68, 0
15, 152760, Note_on_c, 7, 58, 78
15, 152760, Note_on_c, 7, 67, 78
15, 152880, Note_on_c, 7, 67, 0
15, 152880, Note_on_c, 7, 58, 0
15, 153000, Note_on_c, 7, 58, 78
15, 153000, Note_on_c, 7, 67, 78
15, 153120, Note_on_c, 7, 67, 0
15, 153120, Note_on_c, 7, 58, 0
15, 153240, Note_on_c, 7, 58, 78
15, 153240, Note_on_c, 7, 67, 78
15, 153360, Note_on_c, 7, 67, 0
15, 153360, Note_on_c, 7, 58, 0
15, 153360, Note_on_c, 7, 60, 78
15, 153360, Note_on_c, 7, 68, 78
15, 153600, Note_on_c, 7, 68, 0
15, 153600, Note_on_c, 7, 60, 0
15, 153780, Note_on_c, 7, 56, 101
15, 153840, Note_on_c, 7, 56, 0
15, 153840, Note_on_c, 7, 60, 101
15, 154020, Note_on_c, 7, 60, 0
15, 154020, Note_on_c, 7, 63, 101
15, 154080, Note_on_c, 7, 63, 0
15, 154080, Note_on_c, 7, 68, 109
15, 154320, Note_on_c, 7, 68, 0
15, 154320, Note_on_c, 7, 72, 109
15, 154560, Note_on_c, 7, 72, 0
15, 154560, Note_on_c, 7, 75, 115
15, 154800, Note_on_c, 7, 75, 0
15, 154800, Note_on_c, 7, 72, 115
15, 155040, Note_on_c, 7, 72, 0
15, 155220, Note_on_c, 7, 56, 91
15, 155280, Note_on_c, 7, 56, 0
15, 155280, Note_on_c, 7, 60, 91
15, 155460, Note_on_c, 7, 60, 0
15, 155460, Note_on_c, 7, 63, 91
15, 155520, Note_on_c, 7, 63, 0
15, 155520, Note_on_c, 7, 68, 101
15, 155600, Note_on_c, 7, 68, 0
15, 155600, Note_on_c, 7, 72, 101
15, 155680, Note_on_c, 7, 72, 0
15, 155680, Note_on_c, 7, 75, 101
15, 155760, Note_on_c, 7, 75, 0
15, 155760, Note_on_c, 7, 80, 109
15, 156000, Note_on_c, 7, 80, 0
15, 156000, Note_on_c, 7, 82, 115
15, 156240, Note_on_c, 7, 82, 0
15, 156240, Note_on_c, 7, 84, 115
15, 156480, Note_on_c, 7, 84, 0
15, 156560, Note_on_c, 7, 56, 91
15, 156640, Note_on_c, 7, 56, 0
15, 156640, Note_on_c, 7, 60, 91
15, 156720, Note_on_c, 7, 60, 0
15, 156720, Note_on_c, 7, 63, 101
15, 156800, Note_on_c, 7, 63, 0
15, 156800, Note_on_c, 7, 68, 109
15, 156880, Note_on_c, 7, 68, 0
15, 156880, Note_on_c, 7, 72, 115
15, 156960, Note_on_c, 7, 72, 0
15, 156960, Note_on_c, 7, 75, 123
15, 157040, Note_on_c, 7, 75, 0
15, 157040, Note_on_c, 7, 80, 123
15, 157120, Note_on_c, 7, 80, 0
15, 157120, Note_on_c, 7, 84, 123
15, 157200, Note_on_c, 7, 84, 0
15, 157200, Note_on_c, 7, 87, 123
15, 157440, Note_on_c, 7, 87, 0
15, 160920, Note_on_c, 7, 68, 91
15, 161040, Note_on_c, 7, 68, 0
15, 161040, Note_on_c, 7, 72, 91
15, 161160, Note_on_c, 7, 72, 0
15, 161160, Note_on_c, 7, 75, 91
15, 161280, Note_on_c, 7, 75, 0
15, 161280, Note_on_c, 7, 75, 91
15, 161400, Note_on_c, 7, 75, 0
15, 161400, Note_on_c, 7, 73, 91
15, 161520, Note_on_c, 7, 73, 0
15, 161520, Note_on_c, 7, 72, 101
15, 161880, Note_on_c, 7, 72, 0
15, 161880, Note_on_c, 7, 72, 109
15, 162000, Note_on_c, 7, 72, 0
15, 162000, Note_on_c, 7, 79, 115
15, 162120, Note_on_c, 7, 79, 0
15, 162120, Note_on_c, 7, 77, 115
15, 162240, Note_on_c, 7, 77, 0
15, 162240, Note_on_c, 7, 75, 115
15, 162600, Note_on_c, 7, 75, 0
15, 162600, Note_on_c, 7, 75, 115
15, 162720, Note_on_c, 7, 75, 0
15, 162720, Note_on_c, 7, 75, 115
15, 162840, Note_on_c, 7, 75, 0
15, 162840, Note_on_c, 7, 73, 115
15, 162960, Note_on_c, 7, 73, 0
15, 162960, Note_on_c, 7, 72, 115
15, 163320, Note_on_c, 7, 72, 0
15, 163320, Note_on_c, 7, 72, 101
15, 163440, Note_on_c, 7, 72, 0
15, 163440, Note_on_c, 7, 70, 91
15, 163680, Note_on_c, 7, 70, 0
15, 164160, Note_on_c, 7, 63, 78
15, 164400, Note_on_c, 7, 63, 0
15, 164880, Note_on_c, 7, 68, 78
15, 166080, Note_on_c, 7, 68, 0
15, 166080, Note_on_c, 7, 68, 78
15, 166260, Note_on_c, 7, 68, 0
15, 166260, Note_on_c, 7, 72, 78
15, 166320, Note_on_c, 7, 72, 0
15, 166320, Note_on_c, 7, 75, 78
15, 167520, Note_on_c, 7, 75, 0
15, 167520, Note_on_c, 7, 72, 78
15, 167700, Note_on_c, 7, 72, 0
15, 167700, Note_on_c, 7, 75, 78
15, 167760, Note_on_c, 7, 75, 0
15, 167760, Note_on_c, 7, 80, 78
15, 168240, Note_on_c, 7, 80, 0
15, 168240, Note_on_c, 7, 72, 78
15, 168420, Note_on_c, 7, 72, 0
15, 168420, Note_on_c, 7, 75, 78
15, 168480, Note_on_c, 7, 75, 0
15, 168480, Note_on_c, 7, 80, 78
15, 168960, Note_on_c, 7, 80, 0
15, 173280, Note_on_c, 7, 68, 115
15, 173360, Note_on_c, 7, 68, 0
15, 173360, Note_on_c, 7, 60, 115
15, 173440, Note_on_c, 7, 60, 0
15, 173440, Note_on_c, 7, 63, 115
15, 173520, Note_on_c, 7, 63, 0
15, 173520, Note_on_c, 7, 68, 115
15, 173600, Note_on_c, 7, 68, 0
15, 173600, Note_on_c, 7, 60, 115
15, 173680, Note_on_c, 7, 60, 0
15, 173680, Note_on_c, 7, 63, 115
15, 173760, Note_on_c, 7, 63, 0
15, 173760, Note_on_c, 7, 68, 115
15, 173840, Note_on_c, 7, 68, 0
15, 173840, Note_on_c, 7, 72, 115
15, 173920, Note_on_c, 7, 72, 0
15, 173920, Note_on_c, 7, 75, 115
15, 174000, Note_on_c, 7, 75, 0
15, 174000, Note_on_c, 7, 72, 115
15, 174000, Note_on_c, 7, 80, 115
15, 174080, Note_on_c, 7, 80, 0
15, 174080, Note_on_c, 7, 72, 0
15, 174080, Note_on_c, 7, 72, 115
15, 174080, Note_on_c, 7, 80, 115
15, 174160, Note_on_c, 7, 80, 0
15, 174160, Note_on_c, 7, 72, 0
15, 174160, Note_on_c, 7, 72, 115
15, 174160, Note_on_c, 7, 80, 115
15, 174240, Note_on_c, 7, 80, 0
15, 174240, Note_on_c, 7, 72, 0
15, 174240, Note_on_c, 7, 72, 123
15, 174240, Note_on_c, 7, 80, 123
15, 174480, Note_on_c, 7, 80, 0
15, 174480, Note_on_c, 7, 72, 0
15, 174960, Note_on_c, 7, 67, 123
15, 174960, Note_on_c, 7, 75, 123
15, 174960, Note_on_c, 7, 82, 123
15, 175200, Note_on_c, 7, 82, 0
15, 175200, Note_on_c, 7, 75, 0
15, 175200, Note_on_c, 7, 67, 0
15, 175680, Note_on_c, 7, 68, 123
15, 175680, Note_on_c, 7, 75, 123
15, 175680, Note_on_c, 7, 84, 123
15, 175920, Note_on_c, 7, 84, 0
15, 175920, Note_on_c, 7, 75, 0
15, 175920, Note_on_c, 7, 68, 0
15, 176160, Note_on_c, 7, 67, 91
15, 176160, Note_on_c, 7, 75, 91
15, 176160, Note_on_c, 7, 82, 91
15, 176400, Note_on_c, 7, 82, 0
15, 176400, Note_on_c, 7, 75, 0
15, 176400, Note_on_c, 7, 67, 0
15, 176400, Note_on_c, 7, 68, 91
15, 176400, Note_on_c, 7, 75, 91
15, 176400, Note_on_c, 7, 84, 91
15, 176640, Note_on_c, 7, 84, 0
15, 176640, Note_on_c, 7, 75, 0
15, 176640, Note_on_c, 7, 68, 0
15, 177120, Note_on_c, 7, 63, 123
15, 177120, Note_on_c, 7, 70, 123
15, 177120, Note_on_c, 7, 79, 123
15, 177360, Note_on_c, 7, 79, 0
15, 177360, Note_on_c, 7, 70, 0
15, 177360, Note_on_c, 7, 63, 0
15, 177840, Note_on_c, 7, 56, 123
15, 177840, Note_on_c, 7, 63, 123
15, 177840, Note_on_c, 7, 72, 123
15, 177840, Note_on_c, 7, 80, 123
15, 178080, Note_on_c, 7, 80, 0
15, 178080, Note_on_c, 7, 56, 0
15, 178080, Note_on_c, 7, 63, 0
15, 178080, Note_on_c, 7, 72, 0
15, 178080, End_track
16, 0, Start_track
16, 0, MIDI_port, 0
16, 0, Title_t, "Violins 2"
16, 6240, Note_on_c, 7, 63, 91
16, 6420, Note_on_c, 7, 63, 0
16, 6420, Note_on_c, 7, 60, 91
16, 6480, Note_on_c, 7, 60, 0
16, 6480, Note_on_c, 7, 58, 115
16, 7200, Note_on_c, 7, 58, 0
16, 7200, Note_on_c, 7, 60, 91
16, 7440, Note_on_c, 7, 60, 0
16, 11160, Note_on_c, 7, 56, 91
16, 11280, Note_on_c, 7, 56, 0
16, 11280, Note_on_c, 7, 60, 91
16, 11400, Note_on_c, 7, 60, 0
16, 11400, Note_on_c, 7, 63, 91
16, 11520, Note_on_c, 7, 63, 0
16, 11520, Note_on_c, 7, 63, 91
16, 11640, Note_on_c, 7, 63, 0
16, 11640, Note_on_c, 7, 61, 91
16, 11760, Note_on_c, 7, 61, 0
16, 11760, Note_on_c, 7, 60, 91
16, 12120, Note_on_c, 7, 60, 0
16, 12120, Note_on_c, 7, 60, 91
16, 12240, Note_on_c, 7, 60, 0
16, 12240, Note_on_c, 7, 60, 91
16, 12360, Note_on_c, 7, 60, 0
16, 12360, Note_on_c, 7, 58, 91
16, 12480, Note_on_c, 7, 58, 0
16, 12480, Note_on_c, 7, 56, 91
16, 12840, Note_on_c, 7, 56, 0
16, 12840, Note_on_c, 7, 56, 91
16, 12960, Note_on_c, 7, 56, 0
16, 12960, Note_on_c, 7, 55, 115
16, 13440, Note_on_c, 7, 55, 0
16, 13440, Note_on_c, 7, 55, 115
16, 13520, Note_on_c, 7, 55, 0
16, 13520, Note_on_c, 7, 56, 115
16, 13600, Note_on_c, 7, 56, 0
16, 13600, Note_on_c, 7, 58, 115
16, 13680, Note_on_c, 7, 58, 0
16, 13680, Note_on_c, 7, 56, 91
16, 13920, Note_on_c, 7, 56, 0
16, 14880, Note_on_c, 7, 58, 115
16, 14960, Note_on_c, 7, 58, 0
16, 14960, Note_on_c, 7, 56, 115
16, 15040, Note_on_c, 7, 56, 0
16, 15040, Note_on_c, 7, 55, 115
16, 15120, Note_on_c, 7, 55, 0
16, 15120, Note_on_c, 7, 56, 115
16, 15240, Note_on_c, 7, 56, 0
16, 15360, Note_on_c, 7, 56, 91
16, 15480, Note_on_c, 7, 56, 0
16, 15600, Note_on_c, 7, 56, 91
16, 15720, Note_on_c, 7, 56, 0
16, 15840, Note_on_c, 7, 56, 91
16, 16080, Note_on_c, 7, 56, 0
16, 16800, Note_on_c, 7, 63, 91
16, 17040, Note_on_c, 7, 63, 0
16, 17040, Note_on_c, 7, 67, 91
16, 17280, Note_on_c, 7, 67, 0
16, 17280, Note_on_c, 7, 68, 91
16, 17520, Note_on_c, 7, 68, 0
16, 18240, Note_on_c, 7, 68, 91
16, 18480, Note_on_c, 7, 68, 0
16, 18480, Note_on_c, 7, 70, 91
16, 18720, Note_on_c, 7, 70, 0
16, 18720, Note_on_c, 7, 72, 91
16, 18960, Note_on_c, 7, 72, 0
16, 19680, Note_on_c, 7, 69, 78
16, 20160, Note_on_c, 7, 69, 0
16, 20400, Note_on_c, 7, 69, 78
16, 20880, Note_on_c, 7, 69, 0
16, 20880, Note_on_c, 7, 75, 123
16, 21600, Note_on_c, 7, 75, 0
16, 21600, Note_on_c, 7, 76, 123
16, 21780, Note_on_c, 7, 76, 0
16, 21780, Note_on_c, 7, 72, 123
16, 21840, Note_on_c, 7, 72, 0
16, 21840, Note_on_c, 7, 67, 123
16, 22080, Note_on_c, 7, 67, 0
16, 22080, Note_on_c, 7, 55, 123
16, 22080, Note_on_c, 7, 65, 123
16, 22080, Note_on_c, 7, 71, 123
16, 22320, Note_on_c, 7, 71, 0
16, 22320, Note_on_c, 7, 65, 0
16, 22320, Note_on_c, 7, 55, 0
16, 22320, Note_on_c, 7, 55, 123
16, 22320, Note_on_c, 7, 64, 123
16, 22320, Note_on_c, 7, 72, 123
16, 22560, Note_on_c, 7, 72, 0
16, 22560, Note_on_c, 7, 64, 0
16, 22560, Note_on_c, 7, 55, 0
16, 23040, Note_on_c, 7, 64, 123
16, 23120, Note_on_c, 7, 64, 0
16, 23120, Note_on_c, 7, 72, 123
16, 23200, Note_on_c, 7, 72, 0
16, 23200, Note_on_c, 7, 67, 123
16, 23280, Note_on_c, 7, 67, 0
16, 23280, Note_on_c, 7, 64, 123
16, 23360, Note_on_c, 7, 64, 0
16, 23360, Note_on_c, 7, 72, 123
16, 23440, Note_on_c, 7, 72, 0
16, 23440, Note_on_c, 7, 67, 123
16, 23520, Note_on_c, 7, 67, 0
16, 23520, Note_on_c, 7, 67, 123
16, 23600, Note_on_c, 7, 67, 0
16, 23600, Note_on_c, 7, 74, 123
16, 23680, Note_on_c, 7, 74, 0
16, 23680, Note_on_c, 7, 71, 123
16, 23760, Note_on_c, 7, 71, 0
16, 23760, Note_on_c, 7, 67, 123
16, 23840, Note_on_c, 7, 67, 0
16, 23840, Note_on_c, 7, 76, 123
16, 23920, Note_on_c, 7, 76, 0
16, 23920, Note_on_c, 7, 72, 123
16, 24000, Note_on_c, 7, 72, 0
16, 24000, Note_on_c, 7, 67, 123
16, 24080, Note_on_c, 7, 67, 0
16, 24080, Note_on_c, 7, 64, 123
16, 24160, Note_on_c, 7, 64, 0
16, 24160, Note_on_c, 7, 60, 123
16, 24240, Note_on_c, 7, 60, 0
16, 24240, Note_on_c, 7, 67, 123
16, 24320, Note_on_c, 7, 67, 0
16, 24320, Note_on_c, 7, 72, 123
16, 24400, Note_on_c, 7, 72, 0
16, 24400, Note_on_c, 7, 74, 123
16, 24480, Note_on_c, 7, 74, 0
16, 24480, Note_on_c, 7, 67, 123
16, 24560, Note_on_c, 7, 67, 0
16, 24560, Note_on_c, 7, 76, 123
16, 24640, Note_on_c, 7, 76, 0
16, 24640, Note_on_c, 7, 72, 123
16, 24720, Note_on_c, 7, 72, 0
16, 24720, Note_on_c, 7, 67, 123
16, 24800, Note_on_c, 7, 67, 0
16, 24800, Note_on_c, 7, 76, 123
16, 24880, Note_on_c, 7, 76, 0
16, 24880, Note_on_c, 7, 72, 123
16, 24960, Note_on_c, 7, 72, 0
16, 24960, Note_on_c, 7, 67, 123
16, 25040, Note_on_c, 7, 67, 0
16, 25040, Note_on_c, 7, 77, 123
16, 25120, Note_on_c, 7, 77, 0
16, 25120, Note_on_c, 7, 74, 123
16, 25200, Note_on_c, 7, 74, 0
16, 25200, Note_on_c, 7, 67, 123
16, 25280, Note_on_c, 7, 67, 0
16, 25280, Note_on_c, 7, 79, 123
16, 25360, Note_on_c, 7, 79, 0
16, 25360, Note_on_c, 7, 76, 123
16, 25440, Note_on_c, 7, 76, 0
16, 25440, Note_on_c, 7, 72, 123
16, 25520, Note_on_c, 7, 72, 0
16, 25520, Note_on_c, 7, 67, 123
16, 25600, Note_on_c, 7, 67, 0
16, 25600, Note_on_c, 7, 64, 123
16, 25680, Note_on_c, 7, 64, 0
16, 25680, Note_on_c, 7, 60, 123
16, 25760, Note_on_c, 7, 60, 0
16, 25760, Note_on_c, 7, 76, 123
16, 25840, Note_on_c, 7, 76, 0
16, 25840, Note_on_c, 7, 77, 123
16, 25920, Note_on_c, 7, 77, 0
16, 25920, Note_on_c, 7, 60, 123
16, 26000, Note_on_c, 7, 60, 0
16, 26000, Note_on_c, 7, 79, 123
16, 26080, Note_on_c, 7, 79, 0
16, 26080, Note_on_c, 7, 76, 123
16, 26160, Note_on_c, 7, 76, 0
16, 26160, Note_on_c, 7, 72, 123
16, 26240, Note_on_c, 7, 72, 0
16, 26240, Note_on_c, 7, 67, 123
16, 26320, Note_on_c, 7, 67, 0
16, 26320, Note_on_c, 7, 64, 123
16, 26400, Note_on_c, 7, 64, 0
16, 26400, Note_on_c, 7, 60, 123
16, 26480, Note_on_c, 7, 60, 0
16, 26480, Note_on_c, 7, 72, 123
16, 26560, Note_on_c, 7, 72, 0
16, 26560, Note_on_c, 7, 74, 123
16, 26640, Note_on_c, 7, 74, 0
16, 26640, Note_on_c, 7, 76, 123
16, 26880, Note_on_c, 7, 76, 0
16, 27840, Note_on_c, 7, 70, 78
16, 28560, Note_on_c, 7, 70, 0
16, 28560, Note_on_c, 7, 70, 78
16, 29280, Note_on_c, 7, 70, 0
16, 29280, Note_on_c, 7, 70, 78
16, 30240, Note_on_c, 7, 70, 0
16, 30240, Note_on_c, 7, 71, 78
16, 31680, Note_on_c, 7, 71, 0
16, 31680, Note_on_c, 7, 71, 78
16, 32400, Note_on_c, 7, 71, 0
16, 32400, Note_on_c, 7, 70, 91
16, 33120, Note_on_c, 7, 70, 0
16, 33120, Note_on_c, 7, 68, 101
16, 34560, Note_on_c, 7, 68, 0
16, 34560, Note_on_c, 7, 67, 115
16, 34800, Note_on_c, 7, 67, 0
16, 35760, Note_on_c, 7, 60, 91
16, 36000, Note_on_c, 7, 60, 0
16, 36000, Note_on_c, 7, 60, 91
16, 36240, Note_on_c, 7, 60, 0
16, 36720, Note_on_c, 7, 65, 91
16, 36960, Note_on_c, 7, 65, 0
16, 37440, Note_on_c, 7, 61, 91
16, 37680, Note_on_c, 7, 61, 0
16, 37680, Note_on_c, 7, 58, 91
16, 37920, Note_on_c, 7, 58, 0
16, 37920, Note_on_c, 7, 61, 91
16, 38160, Note_on_c, 7, 61, 0
16, 38160, Note_on_c, 7, 55, 91
16, 38400, Note_on_c, 7, 55, 0
16, 38640, Note_on_c, 7, 60, 91
16, 38880, Note_on_c, 7, 60, 0
16, 38880, Note_on_c, 7, 60, 91
16, 39120, Note_on_c, 7, 60, 0
16, 39120, Note_on_c, 7, 61, 91
16, 39360, Note_on_c, 7, 61, 0
16, 39600, Note_on_c, 7, 58, 91
16, 39840, Note_on_c, 7, 58, 0
16, 39840, Note_on_c, 7, 60, 91
16, 40080, Note_on_c, 7, 60, 0
16, 40320, Note_on_c, 7, 55, 115
16, 40560, Note_on_c, 7, 55, 0
16, 40560, Note_on_c, 7, 55, 115
16, 40800, Note_on_c, 7, 55, 0
16, 40800, Note_on_c, 7, 55, 115
16, 41040, Note_on_c, 7, 55, 0
16, 41040, Note_on_c, 7, 63, 91
16, 41040, Note_on_c, 7, 72, 91
16, 41280, Note_on_c, 7, 72, 0
16, 41280, Note_on_c, 7, 63, 0
16, 41400, Note_on_c, 7, 63, 91
16, 41520, Note_on_c, 7, 63, 0
16, 41520, Note_on_c, 7, 63, 101
16, 41640, Note_on_c, 7, 63, 0
16, 41640, Note_on_c, 7, 60, 109
16, 41760, Note_on_c, 7, 60, 0
16, 41760, Note_on_c, 7, 58, 115
16, 42480, Note_on_c, 7, 58, 0
16, 42480, Note_on_c, 7, 60, 91
16, 42720, Note_on_c, 7, 60, 0
16, 46440, Note_on_c, 7, 56, 91
16, 46560, Note_on_c, 7, 56, 0
16, 46560, Note_on_c, 7, 60, 91
16, 46680, Note_on_c, 7, 60, 0
16, 46680, Note_on_c, 7, 63, 91
16, 46800, Note_on_c, 7, 63, 0
16, 46800, Note_on_c, 7, 63, 91
16, 46920, Note_on_c, 7, 63, 0
16, 46920, Note_on_c, 7, 61, 91
16, 47040, Note_on_c, 7, 61, 0
16, 47040, Note_on_c, 7, 60, 91
16, 47400, Note_on_c, 7, 60, 0
16, 47400, Note_on_c, 7, 60, 91
16, 47520, Note_on_c, 7, 60, 0
16, 47520, Note_on_c, 7, 60, 101
16, 47640, Note_on_c, 7, 60, 0
16, 47640, Note_on_c, 7, 58, 101
16, 47760, Note_on_c, 7, 58, 0
16, 47760, Note_on_c, 7, 56, 109
16, 48120, Note_on_c, 7, 56, 0
16, 48120, Note_on_c, 7, 56, 109
16, 48240, Note_on_c, 7, 56, 0
16, 48240, Note_on_c, 7, 55, 115
16, 48720, Note_on_c, 7, 55, 0
16, 48720, Note_on_c, 7, 55, 115
16, 48800, Note_on_c, 7, 55, 0
16, 48800, Note_on_c, 7, 56, 115
16, 48880, Note_on_c, 7, 56, 0
16, 48880, Note_on_c, 7, 58, 115
16, 48960, Note_on_c, 7, 58, 0
16, 48960, Note_on_c, 7, 56, 91
16, 49200, Note_on_c, 7, 56, 0
16, 50160, Note_on_c, 7, 58, 115
16, 50240, Note_on_c, 7, 58, 0
16, 50240, Note_on_c, 7, 56, 115
16, 50320, Note_on_c, 7, 56, 0
16, 50320, Note_on_c, 7, 55, 115
16, 50400, Note_on_c, 7, 55, 0
16, 50400, Note_on_c, 7, 56, 115
16, 50520, Note_on_c, 7, 56, 0
16, 50640, Note_on_c, 7, 56, 91
16, 50760, Note_on_c, 7, 56, 0
16, 50880, Note_on_c, 7, 56, 91
16, 51000, Note_on_c, 7, 56, 0
16, 51120, Note_on_c, 7, 56, 91
16, 51360, Note_on_c, 7, 56, 0
16, 52080, Note_on_c, 7, 63, 91
16, 52320, Note_on_c, 7, 63, 0
16, 52320, Note_on_c, 7, 67, 91
16, 52560, Note_on_c, 7, 67, 0
16, 52560, Note_on_c, 7, 68, 91
16, 52800, Note_on_c, 7, 68, 0
16, 53520, Note_on_c, 7, 68, 91
16, 53760, Note_on_c, 7, 68, 0
16, 53760, Note_on_c, 7, 70, 91
16, 54000, Note_on_c, 7, 70, 0
16, 54000, Note_on_c, 7, 72, 91
16, 54240, Note_on_c, 7, 72, 0
16, 54780, Note_on_c, 7, 69, 101
16, 54840, Note_on_c, 7, 69, 0
16, 54840, Note_on_c, 7, 69, 101
16, 54900, Note_on_c, 7, 69, 0
16, 54900, Note_on_c, 7, 69, 101
16, 54960, Note_on_c, 7, 69, 0
16, 54960, Note_on_c, 7, 69, 101
16, 55080, Note_on_c, 7, 69, 0
16, 55080, Note_on_c, 7, 69, 101
16, 55200, Note_on_c, 7, 69, 0
16, 55200, Note_on_c, 7, 69, 101
16, 55320, Note_on_c, 7, 69, 0
16, 55500, Note_on_c, 7, 69, 101
16, 55560, Note_on_c, 7, 69, 0
16, 55560, Note_on_c, 7, 69, 101
16, 55620, Note_on_c, 7, 69, 0
16, 55620, Note_on_c, 7, 69, 101
16, 55680, Note_on_c, 7, 69, 0
16, 55680, Note_on_c, 7, 69, 101
16, 55800, Note_on_c, 7, 69, 0
16, 55800, Note_on_c, 7, 69, 101
16, 55920, Note_on_c, 7, 69, 0
16, 55920, Note_on_c, 7, 69, 101
16, 56040, Note_on_c, 7, 69, 0
16, 56160, Note_on_c, 7, 75, 123
16, 56220, Note_on_c, 7, 75, 0
16, 56220, Note_on_c, 7, 75, 123
16, 56280, Note_on_c, 7, 75, 0
16, 56280, Note_on_c, 7, 75, 123
16, 56340, Note_on_c, 7, 75, 0
16, 56340, Note_on_c, 7, 75, 123
16, 56400, Note_on_c, 7, 75, 0
16, 56400, Note_on_c, 7, 75, 123
16, 56460, Note_on_c, 7, 75, 0
16, 56460, Note_on_c, 7, 75, 123
16, 56520, Note_on_c, 7, 75, 0
16, 56520, Note_on_c, 7, 75, 123
16, 56580, Note_on_c, 7, 75, 0
16, 56580, Note_on_c, 7, 75, 123
16, 56640, Note_on_c, 7, 75, 0
16, 56640, Note_on_c, 7, 75, 123
16, 56700, Note_on_c, 7, 75, 0
16, 56700, Note_on_c, 7, 75, 123
16, 56760, Note_on_c, 7, 75, 0
16, 56760, Note_on_c, 7, 75, 123
16, 56820, Note_on_c, 7, 75, 0
16, 56820, Note_on_c, 7, 75, 123
16, 56880, Note_on_c, 7, 75, 0
16, 56880, Note_on_c, 7, 76, 123
16, 56940, Note_on_c, 7, 76, 0
16, 56940, Note_on_c, 7, 76, 123
16, 57000, Note_on_c, 7, 76, 0
16, 57000, Note_on_c, 7, 76, 123
16, 57060, Note_on_c, 7, 76, 0
16, 57060, Note_on_c, 7, 72, 123
16, 57120, Note_on_c, 7, 72, 0
16, 57120, Note_on_c, 7, 67, 123
16, 57180, Note_on_c, 7, 67, 0
16, 57180, Note_on_c, 7, 67, 123
16, 57240, Note_on_c, 7, 67, 0
16, 57240, Note_on_c, 7, 67, 123
16, 57300, Note_on_c, 7, 67, 0
16, 57300, Note_on_c, 7, 64, 123
16, 57360, Note_on_c, 7, 64, 0
16, 57360, Note_on_c, 7, 65, 123
16, 57360, Note_on_c, 7, 71, 123
16, 57360, Note_on_c, 7, 71, 123
16, 57420, Note_on_c, 7, 71, 0
16, 57420, Note_on_c, 7, 71, 0
16, 57420, Note_on_c, 7, 65, 0
16, 57420, Note_on_c, 7, 65, 123
16, 57420, Note_on_c, 7, 71, 123
16, 57420, Note_on_c, 7, 71, 123
16, 57480, Note_on_c, 7, 71, 0
16, 57480, Note_on_c, 7, 71, 0
16, 57480, Note_on_c, 7, 65, 0
16, 57480, Note_on_c, 7, 65, 123
16, 57480, Note_on_c, 7, 71, 123
16, 57480, Note_on_c, 7, 71, 123
16, 57540, Note_on_c, 7, 71, 0
16, 57540, Note_on_c, 7, 71, 0
16, 57540, Note_on_c, 7, 65, 0
16, 57540, Note_on_c, 7, 65, 123
16, 57540, Note_on_c, 7, 71, 123
16, 57540, Note_on_c, 7, 71, 123
16, 57600, Note_on_c, 7, 71, 0
16, 57600, Note_on_c, 7, 71, 0
16, 57600, Note_on_c, 7, 65, 0
16, 57600, Note_on_c, 7, 64, 123
16, 57600, Note_on_c, 7, 72, 123
16, 57840, Note_on_c, 7, 72, 0
16, 57840, Note_on_c, 7, 64, 0
16, 58320, Note_on_c, 7, 64, 123
16, 58380, Note_on_c, 7, 64, 0
16, 58380, Note_on_c, 7, 67, 123
16, 58440, Note_on_c, 7, 67, 0
16, 58440, Note_on_c, 7, 72, 123
16, 58500, Note_on_c, 7, 72, 0
16, 58500, Note_on_c, 7, 67, 123
16, 58560, Note_on_c, 7, 67, 0
16, 58560, Note_on_c, 7, 64, 123
16, 58620, Note_on_c, 7, 64, 0
16, 58620, Note_on_c, 7, 67, 123
16, 58680, Note_on_c, 7, 67, 0
16, 58680, Note_on_c, 7, 72, 123
16, 58740, Note_on_c, 7, 72, 0
16, 58740, Note_on_c, 7, 67, 123
16, 58800, Note_on_c, 7, 67, 0
16, 58800, Note_on_c, 7, 67, 123
16, 58860, Note_on_c, 7, 67, 0
16, 58860, Note_on_c, 7, 71, 123
16, 58920, Note_on_c, 7, 71, 0
16, 58920, Note_on_c, 7, 74, 123
16, 58980, Note_on_c, 7, 74, 0
16, 58980, Note_on_c, 7, 71, 123
16, 59040, Note_on_c, 7, 71, 0
16, 59040, Note_on_c, 7, 67, 123
16, 59100, Note_on_c, 7, 67, 0
16, 59100, Note_on_c, 7, 72, 123
16, 59160, Note_on_c, 7, 72, 0
16, 59160, Note_on_c, 7, 76, 123
16, 59220, Note_on_c, 7, 76, 0
16, 59220, Note_on_c, 7, 72, 123
16, 59280, Note_on_c, 7, 72, 0
16, 59280, Note_on_c, 7, 67, 123
16, 59340, Note_on_c, 7, 67, 0
16, 59340, Note_on_c, 7, 72, 123
16, 59400, Note_on_c, 7, 72, 0
16, 59400, Note_on_c, 7, 67, 123
16, 59460, Note_on_c, 7, 67, 0
16, 59460, Note_on_c, 7, 64, 123
16, 59520, Note_on_c, 7, 64, 0
16, 59520, Note_on_c, 7, 60, 123
16, 59580, Note_on_c, 7, 60, 0
16, 59580, Note_on_c, 7, 67, 123
16, 59640, Note_on_c, 7, 67, 0
16, 59640, Note_on_c, 7, 72, 123
16, 59700, Note_on_c, 7, 72, 0
16, 59700, Note_on_c, 7, 74, 123
16, 59760, Note_on_c, 7, 74, 0
16, 59760, Note_on_c, 7, 67, 123
16, 59820, Note_on_c, 7, 67, 0
16, 59820, Note_on_c, 7, 72, 123
16, 59880, Note_on_c, 7, 72, 0
16, 59880, Note_on_c, 7, 76, 123
16, 59940, Note_on_c, 7, 76, 0
16, 59940, Note_on_c, 7, 72, 123
16, 60000, Note_on_c, 7, 72, 0
16, 60000, Note_on_c, 7, 67, 123
16, 60060, Note_on_c, 7, 67, 0
16, 60060, Note_on_c, 7, 72, 123
16, 60120, Note_on_c, 7, 72, 0
16, 60120, Note_on_c, 7, 76, 123
16, 60180, Note_on_c, 7, 76, 0
16, 60180, Note_on_c, 7, 72, 123
16, 60240, Note_on_c, 7, 72, 0
16, 60240, Note_on_c, 7, 67, 123
16, 60300, Note_on_c, 7, 67, 0
16, 60300, Note_on_c, 7, 74, 123
16, 60360, Note_on_c, 7, 74, 0
16, 60360, Note_on_c, 7, 77, 123
16, 60420, Note_on_c, 7, 77, 0
16, 60420, Note_on_c, 7, 74, 123
16, 60480, Note_on_c, 7, 74, 0
16, 60480, Note_on_c, 7, 67, 123
16, 60540, Note_on_c, 7, 67, 0
16, 60540, Note_on_c, 7, 76, 123
16, 60600, Note_on_c, 7, 76, 0
16, 60600, Note_on_c, 7, 79, 123
16, 60660, Note_on_c, 7, 79, 0
16, 60660, Note_on_c, 7, 76, 123
16, 60720, Note_on_c, 7, 76, 0
16, 60720, Note_on_c, 7, 72, 123
16, 60780, Note_on_c, 7, 72, 0
16, 60780, Note_on_c, 7, 67, 123
16, 60840, Note_on_c, 7, 67, 0
16, 60840, Note_on_c, 7, 64, 123
16, 60900, Note_on_c, 7, 64, 0
16, 60900, Note_on_c, 7, 67, 123
16, 60960, Note_on_c, 7, 67, 0
16, 60960, Note_on_c, 7, 60, 123
16, 61020, Note_on_c, 7, 60, 0
16, 61020, Note_on_c, 7, 72, 123
16, 61080, Note_on_c, 7, 72, 0
16, 61080, Note_on_c, 7, 76, 123
16, 61140, Note_on_c, 7, 76, 0
16, 61140, Note_on_c, 7, 77, 123
16, 61200, Note_on_c, 7, 77, 0
16, 61200, Note_on_c, 7, 67, 123
16, 61260, Note_on_c, 7, 67, 0
16, 61260, Note_on_c, 7, 76, 123
16, 61320, Note_on_c, 7, 76, 0
16, 61320, Note_on_c, 7, 79, 123
16, 61380, Note_on_c, 7, 79, 0
16, 61380, Note_on_c, 7, 76, 123
16, 61440, Note_on_c, 7, 76, 0
16, 61440, Note_on_c, 7, 72, 123
16, 61500, Note_on_c, 7, 72, 0
16, 61500, Note_on_c, 7, 67, 123
16, 61560, Note_on_c, 7, 67, 0
16, 61560, Note_on_c, 7, 64, 123
16, 61620, Note_on_c, 7, 64, 0
16, 61620, Note_on_c, 7, 67, 123
16, 61680, Note_on_c, 7, 67, 0
16, 61680, Note_on_c, 7, 60, 123
16, 61740, Note_on_c, 7, 60, 0
16, 61740, Note_on_c, 7, 72, 123
16, 61800, Note_on_c, 7, 72, 0
16, 61800, Note_on_c, 7, 72, 123
16, 61860, Note_on_c, 7, 72, 0
16, 61860, Note_on_c, 7, 74, 123
16, 61920, Note_on_c, 7, 74, 0
16, 61920, Note_on_c, 7, 76, 123
16, 62160, Note_on_c, 7, 76, 0
16, 63120, Note_on_c, 7, 70, 78
16, 63840, Note_on_c, 7, 70, 0
16, 63840, Note_on_c, 7, 70, 78
16, 64560, Note_on_c, 7, 70, 0
16, 64560, Note_on_c, 7, 70, 78
16, 65520, Note_on_c, 7, 70, 0
16, 65520, Note_on_c, 7, 71, 78
16, 66240, Note_on_c, 7, 71, 0
16, 66240, Note_on_c, 7, 71, 78
16, 66960, Note_on_c, 7, 71, 0
16, 66960, Note_on_c, 7, 71, 78
16, 67680, Note_on_c, 7, 71, 0
16, 67680, Note_on_c, 7, 70, 78
16, 68400, Note_on_c, 7, 70, 0
16, 68400, Note_on_c, 7, 68, 101
16, 69840, Note_on_c, 7, 68, 0
16, 69840, Note_on_c, 7, 67, 115
16, 69960, Note_on_c, 7, 67, 0
16, 71040, Note_on_c, 7, 60, 91
16, 71280, Note_on_c, 7, 60, 0
16, 71280, Note_on_c, 7, 60, 91
16, 71520, Note_on_c, 7, 60, 0
16, 71520, Note_on_c, 7, 60, 91
16, 71760, Note_on_c, 7, 60, 0
16, 71880, Note_on_c, 7, 60, 91
16, 72000, Note_on_c, 7, 60, 0
16, 72000, Note_on_c, 7, 65, 91
16, 72240, Note_on_c, 7, 65, 0
16, 72240, Note_on_c, 7, 65, 91
16, 72480, Note_on_c, 7, 65, 0
16, 72600, Note_on_c, 7, 65, 91
16, 72720, Note_on_c, 7, 65, 0
16, 72720, Note_on_c, 7, 61, 91
16, 72960, Note_on_c, 7, 61, 0
16, 72960, Note_on_c, 7, 61, 91
16, 73200, Note_on_c, 7, 61, 0
16, 73320, Note_on_c, 7, 61, 91
16, 73440, Note_on_c, 7, 61, 0
16, 73440, Note_on_c, 7, 60, 91
16, 73680, Note_on_c, 7, 60, 0
16, 73680, Note_on_c, 7, 60, 91
16, 73920, Note_on_c, 7, 60, 0
16, 74040, Note_on_c, 7, 60, 91
16, 74160, Note_on_c, 7, 60, 0
16, 74160, Note_on_c, 7, 69, 91
16, 74400, Note_on_c, 7, 69, 0
16, 74400, Note_on_c, 7, 70, 91
16, 74640, Note_on_c, 7, 70, 0
16, 74760, Note_on_c, 7, 70, 91
16, 74880, Note_on_c, 7, 70, 0
16, 74880, Note_on_c, 7, 67, 91
16, 75120, Note_on_c, 7, 67, 0
16, 75120, Note_on_c, 7, 68, 91
16, 75360, Note_on_c, 7, 68, 0
16, 75480, Note_on_c, 7, 68, 91
16, 75600, Note_on_c, 7, 68, 0
16, 75600, Note_on_c, 7, 67, 78
16, 75840, Note_on_c, 7, 67, 0
16, 75840, Note_on_c, 7, 67, 78
16, 75840, Note_on_c, 7, 70, 78
16, 76080, Note_on_c, 7, 70, 0
16, 76080, Note_on_c, 7, 67, 0
16, 76080, Note_on_c, 7, 55, 78
16, 76080, Note_on_c, 7, 63, 78
16, 76080, Note_on_c, 7, 70, 78
16, 76320, Note_on_c, 7, 70, 0
16, 76320, Note_on_c, 7, 63, 0
16, 76320, Note_on_c, 7, 55, 0
16, 76320, Note_on_c, 7, 56, 78
16, 76320, Note_on_c, 7, 63, 78
16, 76320, Note_on_c, 7, 72, 78
16, 76560, Note_on_c, 7, 72, 0
16, 76560, Note_on_c, 7, 63, 0
16, 76560, Note_on_c, 7, 56, 0
16, 77040, Note_on_c, 7, 68, 78
16, 78000, Note_on_c, 7, 68, 0
16, 78000, Note_on_c, 7, 70, 78
16, 79200, Note_on_c, 7, 70, 0
16, 79200, Note_on_c, 7, 67, 78
16, 79680, Note_on_c, 7, 67, 0
16, 79680, Note_on_c, 7, 72, 78
16, 80160, Note_on_c, 7, 72, 0
16, 80160, Note_on_c, 7, 73, 78
16, 80640, Note_on_c, 7, 73, 0
16, 80640, Note_on_c, 7, 70, 78
16, 80880, Note_on_c, 7, 70, 0
16, 80880, Note_on_c, 7, 72, 78
16, 81360, Note_on_c, 7, 72, 0
16, 81360, Note_on_c, 7, 63, 78
16, 81360, Note_on_c, 7, 70, 78
16, 82080, Note_on_c, 7, 70, 0
16, 82080, Note_on_c, 7, 63, 0
16, 82080, Note_on_c, 7, 63, 78
16, 82080, Note_on_c, 7, 72, 78
16, 82200, Note_on_c, 7, 72, 0
16, 82200, Note_on_c, 7, 63, 0
16, 82200, Note_on_c, 7, 63, 115
16, 82200, Note_on_c, 7, 72, 115
16, 82320, Note_on_c, 7, 72, 0
16, 82320, Note_on_c, 7, 63, 0
16, 82320, Note_on_c, 7, 63, 115
16, 82320, Note_on_c, 7, 72, 115
16, 82440, Note_on_c, 7, 72, 0
16, 82440, Note_on_c, 7, 63, 0
16, 82440, Note_on_c, 7, 63, 115
16, 82440, Note_on_c, 7, 72, 115
16, 82560, Note_on_c, 7, 72, 0
16, 82560, Note_on_c, 7, 63, 0
16, 82560, Note_on_c, 7, 63, 115
16, 82560, Note_on_c, 7, 72, 115
16, 82680, Note_on_c, 7, 72, 0
16, 82680, Note_on_c, 7, 63, 0
16, 82680, Note_on_c, 7, 63, 115
16, 82680, Note_on_c, 7, 72, 115
16, 82800, Note_on_c, 7, 72, 0
16, 82800, Note_on_c, 7, 63, 0
16, 82800, Note_on_c, 7, 63, 115
16, 82800, Note_on_c, 7, 72, 115
16, 82920, Note_on_c, 7, 72, 0
16, 82920, Note_on_c, 7, 63, 0
16, 82920, Note_on_c, 7, 63, 115
16, 82920, Note_on_c, 7, 72, 115
16, 83040, Note_on_c, 7, 72, 0
16, 83040, Note_on_c, 7, 63, 0
16, 83040, Note_on_c, 7, 63, 115
16, 83040, Note_on_c, 7, 72, 115
16, 83160, Note_on_c, 7, 72, 0
16, 83160, Note_on_c, 7, 63, 0
16, 83160, Note_on_c, 7, 63, 115
16, 83160, Note_on_c, 7, 72, 115
16, 83280, Note_on_c, 7, 72, 0
16, 83280, Note_on_c, 7, 63, 0
16, 83280, Note_on_c, 7, 63, 115
16, 83280, Note_on_c, 7, 72, 115
16, 83400, Note_on_c, 7, 72, 0
16, 83400, Note_on_c, 7, 63, 0
16, 83400, Note_on_c, 7, 63, 115
16, 83400, Note_on_c, 7, 72, 115
16, 83520, Note_on_c, 7, 72, 0
16, 83520, Note_on_c, 7, 63, 0
16, 83520, Note_on_c, 7, 63, 115
16, 83520, Note_on_c, 7, 72, 115
16, 83640, Note_on_c, 7, 72, 0
16, 83640, Note_on_c, 7, 63, 0
16, 83640, Note_on_c, 7, 75, 115
16, 83760, Note_on_c, 7, 75, 0
16, 83760, Note_on_c, 7, 73, 115
16, 83880, Note_on_c, 7, 73, 0
16, 83880, Note_on_c, 7, 73, 115
16, 84000, Note_on_c, 7, 73, 0
16, 84000, Note_on_c, 7, 73, 115
16, 84120, Note_on_c, 7, 73, 0
16, 84120, Note_on_c, 7, 73, 115
16, 84240, Note_on_c, 7, 73, 0
16, 84240, Note_on_c, 7, 73, 115
16, 84360, Note_on_c, 7, 73, 0
16, 84360, Note_on_c, 7, 73, 115
16, 84480, Note_on_c, 7, 73, 0
16, 84480, Note_on_c, 7, 73, 115
16, 84600, Note_on_c, 7, 73, 0
16, 84600, Note_on_c, 7, 73, 115
16, 84720, Note_on_c, 7, 73, 0
16, 84720, Note_on_c, 7, 74, 115
16, 84840, Note_on_c, 7, 74, 0
16, 84840, Note_on_c, 7, 74, 115
16, 84960, Note_on_c, 7, 74, 0
16, 84960, Note_on_c, 7, 76, 115
16, 85080, Note_on_c, 7, 76, 0
16, 85080, Note_on_c, 7, 72, 115
16, 85080, Note_on_c, 7, 76, 115
16, 85200, Note_on_c, 7, 76, 0
16, 85200, Note_on_c, 7, 72, 0
16, 85200, Note_on_c, 7, 72, 115
16, 85200, Note_on_c, 7, 76, 115
16, 85320, Note_on_c, 7, 76, 0
16, 85320, Note_on_c, 7, 72, 0
16, 85320, Note_on_c, 7, 72, 115
16, 85320, Note_on_c, 7, 76, 115
16, 85440, Note_on_c, 7, 76, 0
16, 85440, Note_on_c, 7, 72, 0
16, 85440, Note_on_c, 7, 72, 115
16, 85440, Note_on_c, 7, 76, 115
16, 85560, Note_on_c, 7, 76, 0
16, 85560, Note_on_c, 7, 72, 0
16, 85560, Note_on_c, 7, 72, 115
16, 85560, Note_on_c, 7, 76, 115
16, 85680, Note_on_c, 7, 76, 0
16, 85680, Note_on_c, 7, 72, 0
16, 85680, Note_on_c, 7, 75, 115
16, 85800, Note_on_c, 7, 75, 0
16, 85800, Note_on_c, 7, 75, 115
16, 85920, Note_on_c, 7, 75, 0
16, 85920, Note_on_c, 7, 73, 115
16, 86040, Note_on_c, 7, 73, 0
16, 86040, Note_on_c, 7, 73, 115
16, 86160, Note_on_c, 7, 73, 0
16, 86160, Note_on_c, 7, 73, 115
16, 86280, Note_on_c, 7, 73, 0
16, 86280, Note_on_c, 7, 73, 115
16, 86400, Note_on_c, 7, 73, 0
16, 86400, Note_on_c, 7, 73, 115
16, 86520, Note_on_c, 7, 73, 0
16, 86520, Note_on_c, 7, 73, 115
16, 86640, Note_on_c, 7, 73, 0
16, 86640, Note_on_c, 7, 72, 115
16, 86760, Note_on_c, 7, 72, 0
16, 86760, Note_on_c, 7, 72, 115
16, 86880, Note_on_c, 7, 72, 0
16, 86880, Note_on_c, 7, 72, 115
16, 87000, Note_on_c, 7, 72, 0
16, 87000, Note_on_c, 7, 72, 115
16, 87120, Note_on_c, 7, 72, 0
16, 87120, Note_on_c, 7, 63, 115
16, 87120, Note_on_c, 7, 70, 115
16, 87420, Note_on_c, 7, 70, 0
16, 87420, Note_on_c, 7, 63, 0
16, 87420, Note_on_c, 7, 63, 115
16, 87480, Note_on_c, 7, 63, 0
16, 87480, Note_on_c, 7, 65, 115
16, 87540, Note_on_c, 7, 65, 0
16, 87540, Note_on_c, 7, 67, 115
16, 87600, Note_on_c, 7, 67, 0
16, 87600, Note_on_c, 7, 68, 115
16, 87660, Note_on_c, 7, 68, 0
16, 87660, Note_on_c, 7, 70, 115
16, 87720, Note_on_c, 7, 70, 0
16, 87720, Note_on_c, 7, 72, 115
16, 87780, Note_on_c, 7, 72, 0
16, 87780, Note_on_c, 7, 74, 115
16, 87840, Note_on_c, 7, 74, 0
16, 87840, Note_on_c, 7, 75, 115
16, 88200, Note_on_c, 7, 75, 0
16, 88200, Note_on_c, 7, 77, 115
16, 88260, Note_on_c, 7, 77, 0
16, 88260, Note_on_c, 7, 79, 115
16, 88320, Note_on_c, 7, 79, 0
16, 88320, Note_on_c, 7, 80, 115
16, 88380, Note_on_c, 7, 80, 0
16, 88380, Note_on_c, 7, 82, 115
16, 88440, Note_on_c, 7, 82, 0
16, 88440, Note_on_c, 7, 84, 115
16, 88500, Note_on_c, 7, 84, 0
16, 88500, Note_on_c, 7, 86, 115
16, 88560, Note_on_c, 7, 86, 0
16, 88560, Note_on_c, 7, 87, 115
16, 89040, Note_on_c, 7, 87, 0
16, 89040, Note_on_c, 7, 58, 78
16, 89280, Note_on_c, 7, 58, 0
16, 89280, Note_on_c, 7, 58, 78
16, 89520, Note_on_c, 7, 58, 0
16, 89760, Note_on_c, 7, 58, 78
16, 90000, Note_on_c, 7, 58, 0
16, 90000, Note_on_c, 7, 58, 78
16, 90240, Note_on_c, 7, 58, 0
16, 90480, Note_on_c, 7, 58, 78
16, 90720, Note_on_c, 7, 58, 0
16, 90720, Note_on_c, 7, 58, 78
16, 90960, Note_on_c, 7, 58, 0
16, 91200, Note_on_c, 7, 58, 78
16, 91440, Note_on_c, 7, 58, 0
16, 91440, Note_on_c, 7, 58, 78
16, 91680, Note_on_c, 7, 58, 0
16, 91920, Note_on_c, 7, 58, 78
16, 92160, Note_on_c, 7, 58, 0
16, 92160, Note_on_c, 7, 58, 78
16, 92400, Note_on_c, 7, 58, 0
16, 92640, Note_on_c, 7, 58, 78
16, 92880, Note_on_c, 7, 58, 0
16, 92880, Note_on_c, 7, 58, 78
16, 93120, Note_on_c, 7, 58, 0
16, 93360, Note_on_c, 7, 56, 78
16, 93600, Note_on_c, 7, 56, 0
16, 93600, Note_on_c, 7, 56, 78
16, 93840, Note_on_c, 7, 56, 0
16, 94080, Note_on_c, 7, 56, 78
16, 94320, Note_on_c, 7, 56, 0
16, 94320, Note_on_c, 7, 56, 78
16, 94560, Note_on_c, 7, 56, 0
16, 94800, Note_on_c, 7, 62, 78
16, 95040, Note_on_c, 7, 62, 0
16, 95040, Note_on_c, 7, 62, 115
16, 95280, Note_on_c, 7, 62, 0
16, 103560, Note_on_c, 7, 70, 91
16, 103680, Note_on_c, 7, 70, 0
16, 103680, Note_on_c, 7, 68, 91
16, 103800, Note_on_c, 7, 68, 0
16, 103800, Note_on_c, 7, 67, 91
16, 103920, Note_on_c, 7, 67, 0
16, 103920, Note_on_c, 7, 65, 91
16, 104040, Note_on_c, 7, 65, 0
16, 106320, Note_on_c, 7, 64, 123
16, 106500, Note_on_c, 7, 64, 0
16, 106500, Note_on_c, 7, 67, 123
16, 106560, Note_on_c, 7, 67, 0
16, 106560, Note_on_c, 7, 55, 123
16, 106560, Note_on_c, 7, 64, 123
16, 106560, Note_on_c, 7, 72, 123
16, 106800, Note_on_c, 7, 72, 0
16, 106800, Note_on_c, 7, 64, 0
16, 106800, Note_on_c, 7, 55, 0
16, 106800, Note_on_c, 7, 55, 123
16, 106800, Note_on_c, 7, 64, 123
16, 106800, Note_on_c, 7, 72, 123
16, 107040, Note_on_c, 7, 72, 0
16, 107040, Note_on_c, 7, 64, 0
16, 107040, Note_on_c, 7, 55, 0
16, 107040, Note_on_c, 7, 55, 123
16, 107040, Note_on_c, 7, 62, 123
16, 107040, Note_on_c, 7, 71, 123
16, 107280, Note_on_c, 7, 71, 0
16, 107280, Note_on_c, 7, 62, 0
16, 107280, Note_on_c, 7, 55, 0
16, 107280, Note_on_c, 7, 55, 123
16, 107280, Note_on_c, 7, 64, 123
16, 107280, Note_on_c, 7, 72, 123
16, 108000, Note_on_c, 7, 64, 0
16, 108000, Note_on_c, 7, 55, 0
16, 108480, Note_on_c, 7, 72, 0
16, 108480, Note_on_c, 7, 64, 123
16, 108660, Note_on_c, 7, 64, 0
16, 108660, Note_on_c, 7, 71, 123
16, 108720, Note_on_c, 7, 71, 0
16, 108720, Note_on_c, 7, 55, 123
16, 108720, Note_on_c, 7, 64, 123
16, 108720, Note_on_c, 7, 72, 123
16, 108960, Note_on_c, 7, 72, 0
16, 108960, Note_on_c, 7, 64, 0
16, 108960, Note_on_c, 7, 55, 0
16, 108960, Note_on_c, 7, 55, 123
16, 108960, Note_on_c, 7, 64, 123
16, 108960, Note_on_c, 7, 72, 123
16, 109200, Note_on_c, 7, 72, 0
16, 109200, Note_on_c, 7, 64, 0
16, 109200, Note_on_c, 7, 55, 0
16, 109200, Note_on_c, 7, 55, 123
16, 109200, Note_on_c, 7, 65, 123
16, 109200, Note_on_c, 7, 74, 123
16, 109440, Note_on_c, 7, 74, 0
16, 109440, Note_on_c, 7, 65, 0
16, 109440, Note_on_c, 7, 55, 0
16, 109440, Note_on_c, 7, 55, 123
16, 109440, Note_on_c, 7, 67, 123
16, 109440, Note_on_c, 7, 76, 123
16, 110160, Note_on_c, 7, 67, 0
16, 110160, Note_on_c, 7, 55, 0
16, 110640, Note_on_c, 7, 76, 0
16, 110640, Note_on_c, 7, 72, 123
16, 110820, Note_on_c, 7, 72, 0
16, 110820, Note_on_c, 7, 74, 123
16, 110880, Note_on_c, 7, 74, 0
16, 110880, Note_on_c, 7, 55, 123
16, 110880, Note_on_c, 7, 67, 123
16, 110880, Note_on_c, 7, 76, 123
16, 111360, Note_on_c, 7, 76, 0
16, 111360, Note_on_c, 7, 67, 0
16, 111360, Note_on_c, 7, 55, 0
16, 111360, Note_on_c, 7, 72, 123
16, 111540, Note_on_c, 7, 72, 0
16, 111540, Note_on_c, 7, 74, 123
16, 111600, Note_on_c, 7, 74, 0
16, 111600, Note_on_c, 7, 55, 123
16, 111600, Note_on_c, 7, 67, 123
16, 111600, Note_on_c, 7, 76, 123
16, 112080, Note_on_c, 7, 76, 0
16, 112080, Note_on_c, 7, 67, 0
16, 112080, Note_on_c, 7, 55, 0
16, 112080, Note_on_c, 7, 72, 123
16, 112260, Note_on_c, 7, 72, 0
16, 112260, Note_on_c, 7, 74, 123
16, 112320, Note_on_c, 7, 74, 0
16, 112320, Note_on_c, 7, 55, 123
16, 112320, Note_on_c, 7, 67, 123
16, 112320, Note_on_c, 7, 76, 123
16, 112800, Note_on_c, 7, 76, 0
16, 112800, Note_on_c, 7, 67, 0
16, 112800, Note_on_c, 7, 55, 0
16, 113760, Note_on_c, 7, 55, 91
16, 113760, Note_on_c, 7, 64, 91
16, 114000, Note_on_c, 7, 64, 0
16, 114000, Note_on_c, 7, 55, 0
16, 114480, Note_on_c, 7, 56, 91
16, 114480, Note_on_c, 7, 65, 91
16, 114720, Note_on_c, 7, 65, 0
16, 114720, Note_on_c, 7, 56, 0
16, 115200, Note_on_c, 7, 58, 91
16, 115200, Note_on_c, 7, 67, 91
16, 115440, Note_on_c, 7, 67, 0
16, 115440, Note_on_c, 7, 58, 0
16, 120000, Note_on_c, 7, 59, 78
16, 120240, Note_on_c, 7, 59, 0
16, 120240, Note_on_c, 7, 59, 78
16, 120480, Note_on_c, 7, 59, 0
16, 120480, Note_on_c, 7, 59, 78
16, 120720, Note_on_c, 7, 59, 0
16, 120720, Note_on_c, 7, 59, 78
16, 120960, Note_on_c, 7, 59, 0
16, 120960, Note_on_c, 7, 58, 78
16, 121200, Note_on_c, 7, 58, 0
16, 121200, Note_on_c, 7, 58, 78
16, 121440, Note_on_c, 7, 58, 0
16, 121440, Note_on_c, 7, 58, 78
16, 121680, Note_on_c, 7, 58, 0
16, 121680, Note_on_c, 7, 59, 78
16, 121920, Note_on_c, 7, 59, 0
16, 121920, Note_on_c, 7, 59, 78
16, 122160, Note_on_c, 7, 59, 0
16, 122160, Note_on_c, 7, 59, 78
16, 122400, Note_on_c, 7, 59, 0
16, 122400, Note_on_c, 7, 61, 78
16, 122640, Note_on_c, 7, 61, 0
16, 122640, Note_on_c, 7, 61, 78
16, 122880, Note_on_c, 7, 61, 0
16, 122880, Note_on_c, 7, 61, 78
16, 123120, Note_on_c, 7, 61, 0
16, 123120, Note_on_c, 7, 63, 78
16, 123360, Note_on_c, 7, 63, 0
16, 123360, Note_on_c, 7, 63, 78
16, 123600, Note_on_c, 7, 63, 0
16, 123600, Note_on_c, 7, 63, 78
16, 123840, Note_on_c, 7, 63, 0
16, 123840, Note_on_c, 7, 61, 78
16, 124080, Note_on_c, 7, 61, 0
16, 124080, Note_on_c, 7, 61, 78
16, 124320, Note_on_c, 7, 61, 0
16, 124320, Note_on_c, 7, 61, 78
16, 124560, Note_on_c, 7, 61, 0
16, 124560, Note_on_c, 7, 59, 78
16, 124800, Note_on_c, 7, 59, 0
16, 124800, Note_on_c, 7, 59, 78
16, 125040, Note_on_c, 7, 59, 0
16, 125040, Note_on_c, 7, 59, 78
16, 125280, Note_on_c, 7, 59, 0
16, 125280, Note_on_c, 7, 58, 91
16, 125520, Note_on_c, 7, 58, 0
16, 125520, Note_on_c, 7, 58, 91
16, 125640, Note_on_c, 7, 58, 0
16, 125640, Note_on_c, 7, 59, 91
16, 125760, Note_on_c, 7, 59, 0
16, 125760, Note_on_c, 7, 59, 101
16, 125880, Note_on_c, 7, 59, 0
16, 125880, Note_on_c, 7, 59, 101
16, 126000, Note_on_c, 7, 59, 0
16, 126000, Note_on_c, 7, 58, 101
16, 126240, Note_on_c, 7, 58, 0
16, 126240, Note_on_c, 7, 58, 109
16, 126360, Note_on_c, 7, 58, 0
16, 126360, Note_on_c, 7, 59, 109
16, 126480, Note_on_c, 7, 59, 0
16, 126480, Note_on_c, 7, 59, 109
16, 126600, Note_on_c, 7, 59, 0
16, 126600, Note_on_c, 7, 59, 109
16, 126720, Note_on_c, 7, 59, 0
16, 126720, Note_on_c, 7, 58, 115
16, 126840, Note_on_c, 7, 58, 0
16, 126840, Note_on_c, 7, 51, 115
16, 126840, Note_on_c, 7, 63, 115
16, 126960, Note_on_c, 7, 63, 0
16, 126960, Note_on_c, 7, 51, 0
16, 129120, Note_on_c, 7, 60, 91
16, 129240, Note_on_c, 7, 60, 0
16, 129240, Note_on_c, 7, 61, 91
16, 129360, Note_on_c, 7, 61, 0
16, 129360, Note_on_c, 7, 63, 91
16, 129480, Note_on_c, 7, 63, 0
16, 129480, Note_on_c, 7, 65, 91
16, 129600, Note_on_c, 7, 65, 0
16, 129600, Note_on_c, 7, 57, 91
16, 129720, Note_on_c, 7, 57, 0
16, 129720, Note_on_c, 7, 58, 91
16, 129840, Note_on_c, 7, 58, 0
16, 129840, Note_on_c, 7, 60, 91
16, 129960, Note_on_c, 7, 60, 0
16, 129960, Note_on_c, 7, 61, 91
16, 130080, Note_on_c, 7, 61, 0
16, 131580, Note_on_c, 7, 63, 91
16, 131640, Note_on_c, 7, 63, 0
16, 131640, Note_on_c, 7, 65, 91
16, 131700, Note_on_c, 7, 65, 0
16, 131700, Note_on_c, 7, 67, 91
16, 131760, Note_on_c, 7, 67, 0
16, 131760, Note_on_c, 7, 68, 91
16, 131820, Note_on_c, 7, 68, 0
16, 131820, Note_on_c, 7, 70, 91
16, 131880, Note_on_c, 7, 70, 0
16, 131880, Note_on_c, 7, 72, 91
16, 131940, Note_on_c, 7, 72, 0
16, 131940, Note_on_c, 7, 73, 91
16, 132000, Note_on_c, 7, 73, 0
16, 132000, Note_on_c, 7, 75, 91
16, 132360, Note_on_c, 7, 75, 0
16, 132600, Note_on_c, 7, 75, 101
16, 132840, Note_on_c, 7, 75, 0
16, 132840, Note_on_c, 7, 75, 109
16, 133080, Note_on_c, 7, 75, 0
16, 133080, Note_on_c, 7, 73, 115
16, 133200, Note_on_c, 7, 73, 0
16, 133200, Note_on_c, 7, 63, 123
16, 133200, Note_on_c, 7, 72, 123
16, 133440, Note_on_c, 7, 72, 0
16, 133440, Note_on_c, 7, 63, 0
16, 133440, Note_on_c, 7, 72, 123
16, 133620, Note_on_c, 7, 72, 0
16, 133620, Note_on_c, 7, 70, 123
16, 133680, Note_on_c, 7, 70, 0
16, 133680, Note_on_c, 7, 68, 123
16, 133860, Note_on_c, 7, 68, 0
16, 133860, Note_on_c, 7, 72, 123
16, 133920, Note_on_c, 7, 72, 0
16, 133920, Note_on_c, 7, 65, 123
16, 134340, Note_on_c, 7, 65, 0
16, 134340, Note_on_c, 7, 69, 123
16, 134400, Note_on_c, 7, 69, 0
16, 134400, Note_on_c, 7, 70, 123
16, 134580, Note_on_c, 7, 70, 0
16, 134580, Note_on_c, 7, 72, 123
16, 134640, Note_on_c, 7, 72, 0
16, 134640, Note_on_c, 7, 73, 123
16, 134820, Note_on_c, 7, 73, 0
16, 134820, Note_on_c, 7, 72, 123
16, 134880, Note_on_c, 7, 72, 0
16, 134880, Note_on_c, 7, 70, 123
16, 135060, Note_on_c, 7, 70, 0
16, 135060, Note_on_c, 7, 73, 123
16, 135120, Note_on_c, 7, 73, 0
16, 135120, Note_on_c, 7, 67, 123
16, 135300, Note_on_c, 7, 67, 0
16, 135300, Note_on_c, 7, 70, 123
16, 135360, Note_on_c, 7, 70, 0
16, 135360, Note_on_c, 7, 64, 123
16, 135540, Note_on_c, 7, 64, 0
16, 135540, Note_on_c, 7, 67, 123
16, 135600, Note_on_c, 7, 67, 0
16, 135600, Note_on_c, 7, 72, 123
16, 136020, Note_on_c, 7, 72, 0
16, 136020, Note_on_c, 7, 70, 123
16, 136080, Note_on_c, 7, 70, 0
16, 136080, Note_on_c, 7, 69, 123
16, 136260, Note_on_c, 7, 69, 0
16, 136260, Note_on_c, 7, 65, 123
16, 136320, Note_on_c, 7, 65, 0
16, 136320, Note_on_c, 7, 70, 123
16, 136680, Note_on_c, 7, 70, 0
16, 136680, Note_on_c, 7, 73, 123
16, 136800, Note_on_c, 7, 73, 0
16, 136800, Note_on_c, 7, 67, 123
16, 136980, Note_on_c, 7, 67, 0
16, 136980, Note_on_c, 7, 63, 123
16, 137040, Note_on_c, 7, 63, 0
16, 137040, Note_on_c, 7, 68, 123
16, 137280, Note_on_c, 7, 68, 0
16, 137280, Note_on_c, 7, 68, 123
16, 137460, Note_on_c, 7, 68, 0
16, 137460, Note_on_c, 7, 72, 123
16, 137520, Note_on_c, 7, 72, 0
16, 137520, Note_on_c, 7, 75, 123
16, 138240, Note_on_c, 7, 75, 0
16, 138240, Note_on_c, 7, 72, 123
16, 138300, Note_on_c, 7, 72, 0
16, 138300, Note_on_c, 7, 60, 123
16, 138300, Note_on_c, 7, 63, 123
16, 138360, Note_on_c, 7, 63, 0
16, 138360, Note_on_c, 7, 60, 0
16, 138360, Note_on_c, 7, 60, 123
16, 138360, Note_on_c, 7, 63, 123
16, 138420, Note_on_c, 7, 63, 0
16, 138420, Note_on_c, 7, 60, 0
16, 138420, Note_on_c, 7, 60, 123
16, 138420, Note_on_c, 7, 63, 123
16, 138480, Note_on_c, 7, 63, 0
16, 138480, Note_on_c, 7, 60, 0
16, 138480, Note_on_c, 7, 60, 123
16, 138480, Note_on_c, 7, 63, 123
16, 138540, Note_on_c, 7, 63, 0
16, 138540, Note_on_c, 7, 60, 0
16, 138540, Note_on_c, 7, 60, 123
16, 138540, Note_on_c, 7, 63, 123
16, 138600, Note_on_c, 7, 63, 0
16, 138600, Note_on_c, 7, 60, 0
16, 138600, Note_on_c, 7, 60, 123
16, 138600, Note_on_c, 7, 63, 123
16, 138660, Note_on_c, 7, 63, 0
16, 138660, Note_on_c, 7, 60, 0
16, 138660, Note_on_c, 7, 60, 123
16, 138660, Note_on_c, 7, 63, 123
16, 138720, Note_on_c, 7, 63, 0
16, 138720, Note_on_c, 7, 60, 0
16, 138720, Note_on_c, 7, 60, 123
16, 138720, Note_on_c, 7, 63, 123
16, 138780, Note_on_c, 7, 63, 0
16, 138780, Note_on_c, 7, 60, 0
16, 138780, Note_on_c, 7, 60, 123
16, 138780, Note_on_c, 7, 63, 123
16, 138840, Note_on_c, 7, 63, 0
16, 138840, Note_on_c, 7, 60, 0
16, 138840, Note_on_c, 7, 60, 123
16, 138840, Note_on_c, 7, 63, 123
16, 138900, Note_on_c, 7, 63, 0
16, 138900, Note_on_c, 7, 60, 0
16, 138900, Note_on_c, 7, 60, 123
16, 138900, Note_on_c, 7, 63, 123
16, 138960, Note_on_c, 7, 63, 0
16, 138960, Note_on_c, 7, 60, 0
16, 138960, Note_on_c, 7, 58, 123
16, 138960, Note_on_c, 7, 63, 123
16, 139020, Note_on_c, 7, 63, 0
16, 139020, Note_on_c, 7, 58, 0
16, 139020, Note_on_c, 7, 58, 123
16, 139020, Note_on_c, 7, 63, 123
16, 139080, Note_on_c, 7, 63, 0
16, 139080, Note_on_c, 7, 58, 0
16, 139080, Note_on_c, 7, 58, 123
16, 139080, Note_on_c, 7, 63, 123
16, 139140, Note_on_c, 7, 63, 0
16, 139140, Note_on_c, 7, 58, 0
16, 139140, Note_on_c, 7, 58, 123
16, 139140, Note_on_c, 7, 63, 123
16, 139200, Note_on_c, 7, 63, 0
16, 139200, Note_on_c, 7, 58, 0
16, 139200, Note_on_c, 7, 58, 123
16, 139200, Note_on_c, 7, 63, 123
16, 139260, Note_on_c, 7, 63, 0
16, 139260, Note_on_c, 7, 58, 0
16, 139260, Note_on_c, 7, 58, 123
16, 139260, Note_on_c, 7, 63, 123
16, 139320, Note_on_c, 7, 63, 0
16, 139320, Note_on_c, 7, 58, 0
16, 139320, Note_on_c, 7, 58, 123
16, 139320, Note_on_c, 7, 63, 123
16, 139380, Note_on_c, 7, 63, 0
16, 139380, Note_on_c, 7, 58, 0
16, 139380, Note_on_c, 7, 58, 123
16, 139380, Note_on_c, 7, 63, 123
16, 139440, Note_on_c, 7, 63, 0
16, 139440, Note_on_c, 7, 58, 0
16, 139440, Note_on_c, 7, 58, 123
16, 139440, Note_on_c, 7, 63, 123
16, 139500, Note_on_c, 7, 63, 0
16, 139500, Note_on_c, 7, 58, 0
16, 139500, Note_on_c, 7, 58, 123
16, 139500, Note_on_c, 7, 63, 123
16, 139560, Note_on_c, 7, 63, 0
16, 139560, Note_on_c, 7, 58, 0
16, 139560, Note_on_c, 7, 58, 123
16, 139560, Note_on_c, 7, 63, 123
16, 139620, Note_on_c, 7, 63, 0
16, 139620, Note_on_c, 7, 58, 0
16, 139620, Note_on_c, 7, 58, 123
16, 139620, Note_on_c, 7, 63, 123
16, 139680, Note_on_c, 7, 63, 0
16, 139680, Note_on_c, 7, 58, 0
16, 139680, Note_on_c, 7, 60, 123
16, 139680, Note_on_c, 7, 63, 123
16, 139740, Note_on_c, 7, 63, 0
16, 139740, Note_on_c, 7, 60, 0
16, 139740, Note_on_c, 7, 56, 123
16, 139800, Note_on_c, 7, 56, 0
16, 139800, Note_on_c, 7, 58, 123
16, 139860, Note_on_c, 7, 58, 0
16, 139860, Note_on_c, 7, 60, 123
16, 139920, Note_on_c, 7, 60, 0
16, 139920, Note_on_c, 7, 61, 123
16, 139980, Note_on_c, 7, 61, 0
16, 139980, Note_on_c, 7, 63, 123
16, 140040, Note_on_c, 7, 63, 0
16, 140040, Note_on_c, 7, 65, 123
16, 140100, Note_on_c, 7, 65, 0
16, 140100, Note_on_c, 7, 67, 123
16, 140160, Note_on_c, 7, 67, 0
16, 140160, Note_on_c, 7, 68, 123
16, 140220, Note_on_c, 7, 68, 0
16, 140220, Note_on_c, 7, 70, 123
16, 140280, Note_on_c, 7, 70, 0
16, 140280, Note_on_c, 7, 72, 123
16, 140340, Note_on_c, 7, 72, 0
16, 140340, Note_on_c, 7, 73, 123
16, 140400, Note_on_c, 7, 73, 0
16, 140400, Note_on_c, 7, 75, 123
16, 140640, Note_on_c, 7, 75, 0
16, 144000, Note_on_c, 7, 56, 91
16, 144000, Note_on_c, 7, 68, 91
16, 144720, Note_on_c, 7, 68, 0
16, 144720, Note_on_c, 7, 56, 0
16, 144720, Note_on_c, 7, 63, 91
16, 145440, Note_on_c, 7, 63, 0
16, 145440, Note_on_c, 7, 61, 91
16, 145440, Note_on_c, 7, 63, 91
16, 145680, Note_on_c, 7, 63, 0
16, 145680, Note_on_c, 7, 61, 0
16, 145680, Note_on_c, 7, 61, 91
16, 145680, Note_on_c, 7, 63, 91
16, 145920, Note_on_c, 7, 63, 0
16, 145920, Note_on_c, 7, 61, 0
16, 145920, Note_on_c, 7, 61, 91
16, 145920, Note_on_c, 7, 63, 91
16, 146160, Note_on_c, 7, 63, 0
16, 146160, Note_on_c, 7, 61, 0
16, 146160, Note_on_c, 7, 60, 91
16, 146160, Note_on_c, 7, 63, 91
16, 146400, Note_on_c, 7, 63, 0
16, 146400, Note_on_c, 7, 60, 0
16, 146640, Note_on_c, 7, 61, 91
16, 146880, Note_on_c, 7, 61, 0
16, 146880, Note_on_c, 7, 60, 91
16, 147120, Note_on_c, 7, 60, 0
16, 147360, Note_on_c, 7, 58, 91
16, 147440, Note_on_c, 7, 58, 0
16, 147440, Note_on_c, 7, 56, 91
16, 147520, Note_on_c, 7, 56, 0
16, 147520, Note_on_c, 7, 58, 91
16, 147600, Note_on_c, 7, 58, 0
16, 147600, Note_on_c, 7, 56, 91
16, 147720, Note_on_c, 7, 56, 0
16, 147720, Note_on_c, 7, 63, 78
16, 147840, Note_on_c, 7, 63, 0
16, 147960, Note_on_c, 7, 63, 78
16, 148080, Note_on_c, 7, 63, 0
16, 148200, Note_on_c, 7, 63, 78
16, 148320, Note_on_c, 7, 63, 0
16, 148440, Note_on_c, 7, 63, 78
16, 148560, Note_on_c, 7, 63, 0
16, 148680, Note_on_c, 7, 63, 78
16, 148800, Note_on_c, 7, 63, 0
16, 148920, Note_on_c, 7, 63, 78
16, 149040, Note_on_c, 7, 63, 0
16, 149160, Note_on_c, 7, 65, 78
16, 149280, Note_on_c, 7, 65, 0
16, 149400, Note_on_c, 7, 65, 78
16, 149520, Note_on_c, 7, 65, 0
16, 149640, Note_on_c, 7, 65, 78
16, 149760, Note_on_c, 7, 65, 0
16, 149880, Note_on_c, 7, 65, 78
16, 150000, Note_on_c, 7, 65, 0
16, 150120, Note_on_c, 7, 65, 78
16, 150240, Note_on_c, 7, 65, 0
16, 150360, Note_on_c, 7, 65, 78
16, 150480, Note_on_c, 7, 65, 0
16, 150600, Note_on_c, 7, 63, 78
16, 150720, Note_on_c, 7, 63, 0
16, 150840, Note_on_c, 7, 63, 78
16, 150960, Note_on_c, 7, 63, 0
16, 151080, Note_on_c, 7, 63, 78
16, 151200, Note_on_c, 7, 63, 0
16, 151320, Note_on_c, 7, 60, 78
16, 151320, Note_on_c, 7, 63, 78
16, 151440, Note_on_c, 7, 63, 0
16, 151440, Note_on_c, 7, 60, 0
16, 151560, Note_on_c, 7, 60, 78
16, 151560, Note_on_c, 7, 63, 78
16, 151680, Note_on_c, 7, 63, 0
16, 151680, Note_on_c, 7, 60, 0
16, 151800, Note_on_c, 7, 60, 78
16, 151800, Note_on_c, 7, 63, 78
16, 151920, Note_on_c, 7, 63, 0
16, 151920, Note_on_c, 7, 60, 0
16, 152040, Note_on_c, 7, 61, 78
16, 152040, Note_on_c, 7, 65, 78
16, 152160, Note_on_c, 7, 65, 0
16, 152160, Note_on_c, 7, 61, 0
16, 152280, Note_on_c, 7, 61, 78
16, 152280, Note_on_c, 7, 65, 78
16, 152400, Note_on_c, 7, 65, 0
16, 152400, Note_on_c, 7, 61, 0
16, 152520, Note_on_c, 7, 61, 78
16, 152520, Note_on_c, 7, 65, 78
16, 152640, Note_on_c, 7, 65, 0
16, 152640, Note_on_c, 7, 61, 0
16, 152760, Note_on_c, 7, 61, 78
16, 152880, Note_on_c, 7, 61, 0
16, 153000, Note_on_c, 7, 61, 78
16, 153120, Note_on_c, 7, 61, 0
16, 153240, Note_on_c, 7, 61, 78
16, 153360, Note_on_c, 7, 61, 0
16, 153360, Note_on_c, 7, 60, 78
16, 153420, Note_on_c, 7, 60, 0
16, 153420, Note_on_c, 7, 60, 78
16, 153420, Note_on_c, 7, 63, 78
16, 153480, Note_on_c, 7, 63, 0
16, 153480, Note_on_c, 7, 60, 0
16, 153480, Note_on_c, 7, 60, 78
16, 153480, Note_on_c, 7, 63, 78
16, 153540, Note_on_c, 7, 63, 0
16, 153540, Note_on_c, 7, 60, 0
16, 153540, Note_on_c, 7, 60, 78
16, 153540, Note_on_c, 7, 63, 78
16, 153600, Note_on_c, 7, 63, 0
16, 153600, Note_on_c, 7, 60, 0
16, 153600, Note_on_c, 7, 60, 101
16, 153600, Note_on_c, 7, 63, 101
16, 153660, Note_on_c, 7, 63, 0
16, 153660, Note_on_c, 7, 60, 0
16, 153660, Note_on_c, 7, 60, 101
16, 153660, Note_on_c, 7, 63, 101
16, 153720, Note_on_c, 7, 63, 0
16, 153720, Note_on_c, 7, 60, 0
16, 153720, Note_on_c, 7, 60, 101
16, 153720, Note_on_c, 7, 63, 101
16, 153780, Note_on_c, 7, 63, 0
16, 153780, Note_on_c, 7, 60, 0
16, 153780, Note_on_c, 7, 60, 101
16, 153780, Note_on_c, 7, 63, 101
16, 153840, Note_on_c, 7, 63, 0
16, 153840, Note_on_c, 7, 60, 0
16, 153840, Note_on_c, 7, 60, 101
16, 153840, Note_on_c, 7, 63, 101
16, 153900, Note_on_c, 7, 63, 0
16, 153900, Note_on_c, 7, 60, 0
16, 153900, Note_on_c, 7, 60, 101
16, 153900, Note_on_c, 7, 63, 101
16, 153960, Note_on_c, 7, 63, 0
16, 153960, Note_on_c, 7, 60, 0
16, 153960, Note_on_c, 7, 60, 109
16, 153960, Note_on_c, 7, 63, 109
16, 154020, Note_on_c, 7, 63, 0
16, 154020, Note_on_c, 7, 60, 0
16, 154020, Note_on_c, 7, 60, 109
16, 154020, Note_on_c, 7, 63, 109
16, 154080, Note_on_c, 7, 63, 0
16, 154080, Note_on_c, 7, 60, 0
16, 154080, Note_on_c, 7, 60, 109
16, 154080, Note_on_c, 7, 63, 109
16, 154140, Note_on_c, 7, 63, 0
16, 154140, Note_on_c, 7, 60, 0
16, 154140, Note_on_c, 7, 60, 109
16, 154140, Note_on_c, 7, 63, 109
16, 154200, Note_on_c, 7, 63, 0
16, 154200, Note_on_c, 7, 60, 0
16, 154200, Note_on_c, 7, 60, 109
16, 154200, Note_on_c, 7, 63, 109
16, 154260, Note_on_c, 7, 63, 0
16, 154260, Note_on_c, 7, 60, 0
16, 154260, Note_on_c, 7, 60, 109
16, 154260, Note_on_c, 7, 63, 109
16, 154320, Note_on_c, 7, 63, 0
16, 154320, Note_on_c, 7, 60, 0
16, 154320, Note_on_c, 7, 60, 109
16, 154320, Note_on_c, 7, 63, 109
16, 154380, Note_on_c, 7, 63, 0
16, 154380, Note_on_c, 7, 60, 0
16, 154380, Note_on_c, 7, 60, 109
16, 154380, Note_on_c, 7, 63, 109
16, 154440, Note_on_c, 7, 63, 0
16, 154440, Note_on_c, 7, 60, 0
16, 154440, Note_on_c, 7, 60, 109
16, 154440, Note_on_c, 7, 63, 109
16, 154500, Note_on_c, 7, 63, 0
16, 154500, Note_on_c, 7, 60, 0
16, 154500, Note_on_c, 7, 60, 109
16, 154500, Note_on_c, 7, 63, 109
16, 154560, Note_on_c, 7, 63, 0
16, 154560, Note_on_c, 7, 60, 0
16, 154560, Note_on_c, 7, 58, 115
16, 154560, Note_on_c, 7, 63, 115
16, 154620, Note_on_c, 7, 63, 0
16, 154620, Note_on_c, 7, 58, 0
16, 154620, Note_on_c, 7, 58, 115
16, 154620, Note_on_c, 7, 63, 115
16, 154680, Note_on_c, 7, 63, 0
16, 154680, Note_on_c, 7, 58, 0
16, 154680, Note_on_c, 7, 58, 115
16, 154680, Note_on_c, 7, 63, 115
16, 154740, Note_on_c, 7, 63, 0
16, 154740, Note_on_c, 7, 58, 0
16, 154740, Note_on_c, 7, 58, 115
16, 154740, Note_on_c, 7, 63, 115
16, 154800, Note_on_c, 7, 63, 0
16, 154800, Note_on_c, 7, 58, 0
16, 154800, Note_on_c, 7, 60, 115
16, 154800, Note_on_c, 7, 63, 115
16, 154860, Note_on_c, 7, 63, 0
16, 154860, Note_on_c, 7, 60, 0
16, 154860, Note_on_c, 7, 60, 115
16, 154860, Note_on_c, 7, 63, 115
16, 154920, Note_on_c, 7, 63, 0
16, 154920, Note_on_c, 7, 60, 0
16, 154920, Note_on_c, 7, 60, 115
16, 154920, Note_on_c, 7, 63, 115
16, 154980, Note_on_c, 7, 63, 0
16, 154980, Note_on_c, 7, 60, 0
16, 154980, Note_on_c, 7, 60, 115
16, 154980, Note_on_c, 7, 63, 115
16, 155040, Note_on_c, 7, 63, 0
16, 155040, Note_on_c, 7, 60, 0
16, 155040, Note_on_c, 7, 60, 91
16, 155040, Note_on_c, 7, 63, 91
16, 155100, Note_on_c, 7, 63, 0
16, 155100, Note_on_c, 7, 60, 0
16, 155100, Note_on_c, 7, 60, 91
16, 155100, Note_on_c, 7, 63, 91
16, 155160, Note_on_c, 7, 63, 0
16, 155160, Note_on_c, 7, 60, 0
16, 155160, Note_on_c, 7, 60, 91
16, 155160, Note_on_c, 7, 63, 91
16, 155220, Note_on_c, 7, 63, 0
16, 155220, Note_on_c, 7, 60, 0
16, 155220, Note_on_c, 7, 60, 91
16, 155220, Note_on_c, 7, 63, 91
16, 155280, Note_on_c, 7, 63, 0
16, 155280, Note_on_c, 7, 60, 0
16, 155280, Note_on_c, 7, 60, 91
16, 155280, Note_on_c, 7, 63, 91
16, 155340, Note_on_c, 7, 63, 0
16, 155340, Note_on_c, 7, 60, 0
16, 155340, Note_on_c, 7, 60, 91
16, 155340, Note_on_c, 7, 63, 91
16, 155400, Note_on_c, 7, 63, 0
16, 155400, Note_on_c, 7, 60, 0
16, 155400, Note_on_c, 7, 60, 91
16, 155400, Note_on_c, 7, 63, 91
16, 155460, Note_on_c, 7, 63, 0
16, 155460, Note_on_c, 7, 60, 0
16, 155460, Note_on_c, 7, 60, 91
16, 155460, Note_on_c, 7, 63, 91
16, 155520, Note_on_c, 7, 63, 0
16, 155520, Note_on_c, 7, 60, 0
16, 155520, Note_on_c, 7, 60, 101
16, 155520, Note_on_c, 7, 63, 101
16, 155580, Note_on_c, 7, 63, 0
16, 155580, Note_on_c, 7, 60, 0
16, 155580, Note_on_c, 7, 60, 101
16, 155580, Note_on_c, 7, 63, 101
16, 155640, Note_on_c, 7, 63, 0
16, 155640, Note_on_c, 7, 60, 0
16, 155640, Note_on_c, 7, 60, 101
16, 155640, Note_on_c, 7, 63, 101
16, 155700, Note_on_c, 7, 63, 0
16, 155700, Note_on_c, 7, 60, 0
16, 155700, Note_on_c, 7, 60, 101
16, 155700, Note_on_c, 7, 63, 101
16, 155760, Note_on_c, 7, 63, 0
16, 155760, Note_on_c, 7, 60, 0
16, 155760, Note_on_c, 7, 60, 109
16, 155760, Note_on_c, 7, 63, 109
16, 155820, Note_on_c, 7, 63, 0
16, 155820, Note_on_c, 7, 60, 0
16, 155820, Note_on_c, 7, 60, 109
16, 155820, Note_on_c, 7, 63, 109
16, 155880, Note_on_c, 7, 63, 0
16, 155880, Note_on_c, 7, 60, 0
16, 155880, Note_on_c, 7, 60, 109
16, 155880, Note_on_c, 7, 63, 109
16, 155940, Note_on_c, 7, 63, 0
16, 155940, Note_on_c, 7, 60, 0
16, 155940, Note_on_c, 7, 60, 109
16, 155940, Note_on_c, 7, 63, 109
16, 156000, Note_on_c, 7, 63, 0
16, 156000, Note_on_c, 7, 60, 0
16, 156000, Note_on_c, 7, 58, 115
16, 156000, Note_on_c, 7, 63, 115
16, 156060, Note_on_c, 7, 63, 0
16, 156060, Note_on_c, 7, 58, 0
16, 156060, Note_on_c, 7, 58, 115
16, 156060, Note_on_c, 7, 63, 115
16, 156120, Note_on_c, 7, 63, 0
16, 156120, Note_on_c, 7, 58, 0
16, 156120, Note_on_c, 7, 58, 115
16, 156120, Note_on_c, 7, 63, 115
16, 156180, Note_on_c, 7, 63, 0
16, 156180, Note_on_c, 7, 58, 0
16, 156180, Note_on_c, 7, 58, 115
16, 156180, Note_on_c, 7, 63, 115
16, 156240, Note_on_c, 7, 63, 0
16, 156240, Note_on_c, 7, 58, 0
16, 156240, Note_on_c, 7, 60, 115
16, 156240, Note_on_c, 7, 63, 115
16, 156300, Note_on_c, 7, 63, 0
16, 156300, Note_on_c, 7, 60, 0
16, 156300, Note_on_c, 7, 60, 115
16, 156300, Note_on_c, 7, 63, 115
16, 156360, Note_on_c, 7, 63, 0
16, 156360, Note_on_c, 7, 60, 0
16, 156360, Note_on_c, 7, 60, 115
16, 156360, Note_on_c, 7, 63, 115
16, 156420, Note_on_c, 7, 63, 0
16, 156420, Note_on_c, 7, 60, 0
16, 156420, Note_on_c, 7, 60, 115
16, 156420, Note_on_c, 7, 63, 115
16, 156480, Note_on_c, 7, 63, 0
16, 156480, Note_on_c, 7, 60, 0
16, 156480, Note_on_c, 7, 60, 91
16, 156480, Note_on_c, 7, 63, 91
16, 156540, Note_on_c, 7, 63, 0
16, 156540, Note_on_c, 7, 60, 0
16, 156540, Note_on_c, 7, 60, 91
16, 156540, Note_on_c, 7, 63, 91
16, 156600, Note_on_c, 7, 63, 0
16, 156600, Note_on_c, 7, 60, 0
16, 156600, Note_on_c, 7, 60, 101
16, 156600, Note_on_c, 7, 63, 101
16, 156660, Note_on_c, 7, 63, 0
16, 156660, Note_on_c, 7, 60, 0
16, 156660, Note_on_c, 7, 60, 101
16, 156660, Note_on_c, 7, 63, 101
16, 156720, Note_on_c, 7, 63, 0
16, 156720, Note_on_c, 7, 60, 0
16, 156720, Note_on_c, 7, 60, 109
16, 156720, Note_on_c, 7, 63, 109
16, 156780, Note_on_c, 7, 63, 0
16, 156780, Note_on_c, 7, 60, 0
16, 156780, Note_on_c, 7, 60, 109
16, 156780, Note_on_c, 7, 63, 109
16, 156840, Note_on_c, 7, 63, 0
16, 156840, Note_on_c, 7, 60, 0
16, 156840, Note_on_c, 7, 60, 115
16, 156840, Note_on_c, 7, 63, 115
16, 156900, Note_on_c, 7, 63, 0
16, 156900, Note_on_c, 7, 60, 0
16, 156900, Note_on_c, 7, 60, 115
16, 156900, Note_on_c, 7, 63, 115
16, 156960, Note_on_c, 7, 63, 0
16, 156960, Note_on_c, 7, 60, 0
16, 156960, Note_on_c, 7, 60, 123
16, 156960, Note_on_c, 7, 63, 123
16, 157020, Note_on_c, 7, 63, 0
16, 157020, Note_on_c, 7, 60, 0
16, 157020, Note_on_c, 7, 60, 123
16, 157020, Note_on_c, 7, 63, 123
16, 157080, Note_on_c, 7, 63, 0
16, 157080, Note_on_c, 7, 60, 0
16, 157080, Note_on_c, 7, 60, 123
16, 157080, Note_on_c, 7, 63, 123
16, 157140, Note_on_c, 7, 63, 0
16, 157140, Note_on_c, 7, 60, 0
16, 157140, Note_on_c, 7, 60, 123
16, 157140, Note_on_c, 7, 63, 123
16, 157200, Note_on_c, 7, 63, 0
16, 157200, Note_on_c, 7, 60, 0
16, 157200, Note_on_c, 7, 58, 123
16, 157200, Note_on_c, 7, 63, 123
16, 157440, Note_on_c, 7, 63, 0
16, 157440, Note_on_c, 7, 58, 0
16, 161280, Note_on_c, 7, 68, 101
16, 161880, Note_on_c, 7, 68, 0
16, 161880, Note_on_c, 7, 68, 109
16, 162000, Note_on_c, 7, 68, 0
16, 162000, Note_on_c, 7, 75, 115
16, 162120, Note_on_c, 7, 75, 0
16, 162120, Note_on_c, 7, 73, 115
16, 162240, Note_on_c, 7, 73, 0
16, 162240, Note_on_c, 7, 72, 115
16, 162600, Note_on_c, 7, 72, 0
16, 162600, Note_on_c, 7, 72, 115
16, 162720, Note_on_c, 7, 72, 0
16, 162720, Note_on_c, 7, 67, 115
16, 162960, Note_on_c, 7, 67, 0
16, 162960, Note_on_c, 7, 68, 115
16, 163320, Note_on_c, 7, 68, 0
16, 163320, Note_on_c, 7, 63, 101
16, 163440, Note_on_c, 7, 63, 0
16, 163440, Note_on_c, 7, 61, 91
16, 163680, Note_on_c, 7, 61, 0
16, 164160, Note_on_c, 7, 61, 78
16, 164400, Note_on_c, 7, 61, 0
16, 164880, Note_on_c, 7, 60, 78
16, 166080, Note_on_c, 7, 60, 0
16, 166080, Note_on_c, 7, 60, 78
16, 166260, Note_on_c, 7, 60, 0
16, 166260, Note_on_c, 7, 68, 78
16, 166320, Note_on_c, 7, 68, 0
16, 166320, Note_on_c, 7, 72, 78
16, 167520, Note_on_c, 7, 72, 0
16, 167520, Note_on_c, 7, 68, 78
16, 167700, Note_on_c, 7, 68, 0
16, 167700, Note_on_c, 7, 72, 78
16, 167760, Note_on_c, 7, 72, 0
16, 167760, Note_on_c, 7, 72, 78
16, 168960, Note_on_c, 7, 72, 0
16, 168960, Note_on_c, 7, 60, 78
16, 169140, Note_on_c, 7, 60, 0
16, 169140, Note_on_c, 7, 63, 78
16, 169200, Note_on_c, 7, 63, 0
16, 169200, Note_on_c, 7, 68, 78
16, 169680, Note_on_c, 7, 68, 0
16, 173280, Note_on_c, 7, 68, 115
16, 173360, Note_on_c, 7, 68, 0
16, 173360, Note_on_c, 7, 60, 115
16, 173440, Note_on_c, 7, 60, 0
16, 173440, Note_on_c, 7, 63, 115
16, 173520, Note_on_c, 7, 63, 0
16, 173520, Note_on_c, 7, 68, 115
16, 173600, Note_on_c, 7, 68, 0
16, 173600, Note_on_c, 7, 63, 115
16, 173600, Note_on_c, 7, 72, 115
16, 173680, Note_on_c, 7, 72, 0
16, 173680, Note_on_c, 7, 63, 0
16, 173680, Note_on_c, 7, 63, 115
16, 173680, Note_on_c, 7, 72, 115
16, 173760, Note_on_c, 7, 72, 0
16, 173760, Note_on_c, 7, 63, 0
16, 173760, Note_on_c, 7, 63, 115
16, 173760, Note_on_c, 7, 72, 115
16, 173840, Note_on_c, 7, 72, 0
16, 173840, Note_on_c, 7, 63, 0
16, 173840, Note_on_c, 7, 63, 115
16, 173840, Note_on_c, 7, 72, 115
16, 173920, Note_on_c, 7, 72, 0
16, 173920, Note_on_c, 7, 63, 0
16, 173920, Note_on_c, 7, 63, 115
16, 173920, Note_on_c, 7, 72, 115
16, 174000, Note_on_c, 7, 72, 0
16, 174000, Note_on_c, 7, 63, 0
16, 174000, Note_on_c, 7, 63, 115
16, 174000, Note_on_c, 7, 72, 115
16, 174080, Note_on_c, 7, 72, 0
16, 174080, Note_on_c, 7, 63, 0
16, 174080, Note_on_c, 7, 63, 115
16, 174080, Note_on_c, 7, 72, 115
16, 174160, Note_on_c, 7, 72, 0
16, 174160, Note_on_c, 7, 63, 0
16, 174160, Note_on_c, 7, 63, 115
16, 174160, Note_on_c, 7, 72, 115
16, 174240, Note_on_c, 7, 72, 0
16, 174240, Note_on_c, 7, 63, 0
16, 174240, Note_on_c, 7, 63, 123
16, 174240, Note_on_c, 7, 72, 123
16, 174480, Note_on_c, 7, 72, 0
16, 174480, Note_on_c, 7, 63, 0
16, 174960, Note_on_c, 7, 63, 123
16, 174960, Note_on_c, 7, 70, 123
16, 174960, Note_on_c, 7, 79, 123
16, 175200, Note_on_c, 7, 79, 0
16, 175200, Note_on_c, 7, 70, 0
16, 175200, Note_on_c, 7, 63, 0
16, 175680, Note_on_c, 7, 63, 123
16, 175680, Note_on_c, 7, 72, 123
16, 175680, Note_on_c, 7, 80, 123
16, 175920, Note_on_c, 7, 80, 0
16, 175920, Note_on_c, 7, 72, 0
16, 175920, Note_on_c, 7, 63, 0
16, 176160, Note_on_c, 7, 63, 91
16, 176160, Note_on_c, 7, 70, 91
16, 176160, Note_on_c, 7, 79, 91
16, 176400, Note_on_c, 7, 79, 0
16, 176400, Note_on_c, 7, 70, 0
16, 176400, Note_on_c, 7, 63, 0
16, 176400, Note_on_c, 7, 63, 91
16, 176400, Note_on_c, 7, 72, 91
16, 176400, Note_on_c, 7, 80, 91
16, 176640, Note_on_c, 7, 80, 0
16, 176640, Note_on_c, 7, 72, 0
16, 176640, Note_on_c, 7, 63, 0
16, 177120, Note_on_c, 7, 63, 123
16, 177120, Note_on_c, 7, 70, 123
16, 177120, Note_on_c, 7, 79, 123
16, 177360, Note_on_c, 7, 79, 0
16, 177360, Note_on_c, 7, 70, 0
16, 177360, Note_on_c, 7, 63, 0
16, 177840, Note_on_c, 7, 56, 123
16, 177840, Note_on_c, 7, 63, 123
16, 177840, Note_on_c, 7, 72, 123
16, 177840, Note_on_c, 7, 80, 123
16, 178080, Note_on_c, 7, 80, 0
16, 178080, Note_on_c, 7, 56, 0
16, 178080, Note_on_c, 7, 63, 0
16, 178080, Note_on_c, 7, 72, 0
16, 178080, End_track
17, 0, Start_track
17, 0, MIDI_port, 0
17, 0, Title_t, "Violas"
17, 0, Program_c, 8, 48
17, 480, Note_on_c, 8, 51, 91
17, 660, Note_on_c, 8, 51, 0
17, 660, Note_on_c, 8, 56, 91
17, 720, Note_on_c, 8, 56, 0
17, 720, Note_on_c, 8, 60, 91
17, 960, Note_on_c, 8, 60, 0
17, 960, Note_on_c, 8, 60, 91
17, 1140, Note_on_c, 8, 60, 0
17, 1140, Note_on_c, 8, 58, 91
17, 1200, Note_on_c, 8, 58, 0
17, 1200, Note_on_c, 8, 56, 91
17, 1380, Note_on_c, 8, 56, 0
17, 1380, Note_on_c, 8, 60, 91
17, 1440, Note_on_c, 8, 60, 0
17, 1440, Note_on_c, 8, 53, 91
17, 1860, Note_on_c, 8, 53, 0
17, 1860, Note_on_c, 8, 57, 91
17, 1920, Note_on_c, 8, 57, 0
17, 1920, Note_on_c, 8, 58, 91
17, 2100, Note_on_c, 8, 58, 0
17, 2100, Note_on_c, 8, 60, 91
17, 2160, Note_on_c, 8, 60, 0
17, 2160, Note_on_c, 8, 61, 91
17, 2340, Note_on_c, 8, 61, 0
17, 2340, Note_on_c, 8, 60, 91
17, 2400, Note_on_c, 8, 60, 0
17, 2400, Note_on_c, 8, 58, 91
17, 2580, Note_on_c, 8, 58, 0
17, 2580, Note_on_c, 8, 61, 91
17, 2640, Note_on_c, 8, 61, 0
17, 2640, Note_on_c, 8, 55, 91
17, 2820, Note_on_c, 8, 55, 0
17, 2820, Note_on_c, 8, 58, 91
17, 2880, Note_on_c, 8, 58, 0
17, 2880, Note_on_c, 8, 52, 91
17, 3060, Note_on_c, 8, 52, 0
17, 3060, Note_on_c, 8, 55, 91
17, 3120, Note_on_c, 8, 55, 0
17, 3120, Note_on_c, 8, 60, 91
17, 3540, Note_on_c, 8, 60, 0
17, 3540, Note_on_c, 8, 58, 91
17, 3600, Note_on_c, 8, 58, 0
17, 3600, Note_on_c, 8, 57, 91
17, 3780, Note_on_c, 8, 57, 0
17, 3780, Note_on_c, 8, 53, 91
17, 3840, Note_on_c, 8, 53, 0
17, 3840, Note_on_c, 8, 58, 91
17, 4200, Note_on_c, 8, 58, 0
17, 4200, Note_on_c, 8, 61, 91
17, 4320, Note_on_c, 8, 61, 0
17, 4320, Note_on_c, 8, 55, 91
17, 4500, Note_on_c, 8, 55, 0
17, 4500, Note_on_c, 8, 51, 91
17, 4560, Note_on_c, 8, 51, 0
17, 4560, Note_on_c, 8, 56, 91
17, 4800, Note_on_c, 8, 56, 0
17, 4800, Note_on_c, 8, 56, 91
17, 4980, Note_on_c, 8, 56, 0
17, 4980, Note_on_c, 8, 60, 91
17, 5040, Note_on_c, 8, 60, 0
17, 5040, Note_on_c, 8, 63, 115
17, 5760, Note_on_c, 8, 63, 0
17, 5760, Note_on_c, 8, 60, 91
17, 6000, Note_on_c, 8, 60, 0
17, 6240, Note_on_c, 8, 51, 91
17, 6240, Note_on_c, 8, 60, 91
17, 6420, Note_on_c, 8, 60, 0
17, 6420, Note_on_c, 8, 51, 0
17, 6420, Note_on_c, 8, 51, 91
17, 6420, Note_on_c, 8, 56, 91
17, 6480, Note_on_c, 8, 56, 0
17, 6480, Note_on_c, 8, 51, 0
17, 6480, Note_on_c, 8, 51, 115
17, 6480, Note_on_c, 8, 55, 115
17, 7200, Note_on_c, 8, 55, 0
17, 7200, Note_on_c, 8, 51, 0
17, 7200, Note_on_c, 8, 51, 91
17, 7200, Note_on_c, 8, 56, 91
17, 7440, Note_on_c, 8, 56, 0
17, 7440, Note_on_c, 8, 51, 0
17, 11520, Note_on_c, 8, 68, 91
17, 12240, Note_on_c, 8, 68, 0
17, 12240, Note_on_c, 8, 63, 91
17, 12960, Note_on_c, 8, 63, 0
17, 12960, Note_on_c, 8, 58, 115
17, 12960, Note_on_c, 8, 61, 115
17, 13200, Note_on_c, 8, 61, 0
17, 13200, Note_on_c, 8, 58, 0
17, 13200, Note_on_c, 8, 58, 115
17, 13200, Note_on_c, 8, 61, 115
17, 13440, Note_on_c, 8, 61, 0
17, 13440, Note_on_c, 8, 58, 0
17, 13440, Note_on_c, 8, 58, 115
17, 13440, Note_on_c, 8, 61, 115
17, 13620, Note_on_c, 8, 61, 0
17, 13620, Note_on_c, 8, 58, 0
17, 13620, Note_on_c, 8, 55, 115
17, 13620, Note_on_c, 8, 58, 115
17, 13680, Note_on_c, 8, 58, 0
17, 13680, Note_on_c, 8, 55, 0
17, 13680, Note_on_c, 8, 56, 91
17, 13920, Note_on_c, 8, 56, 0
17, 14880, Note_on_c, 8, 49, 115
17, 14960, Note_on_c, 8, 49, 0
17, 14960, Note_on_c, 8, 48, 115
17, 15040, Note_on_c, 8, 48, 0
17, 15040, Note_on_c, 8, 49, 115
17, 15120, Note_on_c, 8, 49, 0
17, 15120, Note_on_c, 8, 48, 115
17, 15240, Note_on_c, 8, 48, 0
17, 15360, Note_on_c, 8, 48, 91
17, 15480, Note_on_c, 8, 48, 0
17, 15600, Note_on_c, 8, 48, 91
17, 15720, Note_on_c, 8, 48, 0
17, 15840, Note_on_c, 8, 48, 91
17, 16080, Note_on_c, 8, 48, 0
17, 16560, Note_on_c, 8, 48, 109
17, 16640, Note_on_c, 8, 48, 0
17, 16640, Note_on_c, 8, 56, 109
17, 16720, Note_on_c, 8, 56, 0
17, 16720, Note_on_c, 8, 51, 109
17, 16800, Note_on_c, 8, 51, 0
17, 16800, Note_on_c, 8, 48, 109
17, 16880, Note_on_c, 8, 48, 0
17, 16880, Note_on_c, 8, 56, 109
17, 16960, Note_on_c, 8, 56, 0
17, 16960, Note_on_c, 8, 51, 109
17, 17040, Note_on_c, 8, 51, 0
17, 17040, Note_on_c, 8, 51, 109
17, 17120, Note_on_c, 8, 51, 0
17, 17120, Note_on_c, 8, 58, 109
17, 17200, Note_on_c, 8, 58, 0
17, 17200, Note_on_c, 8, 55, 109
17, 17280, Note_on_c, 8, 55, 0
17, 17280, Note_on_c, 8, 51, 109
17, 17360, Note_on_c, 8, 51, 0
17, 17360, Note_on_c, 8, 60, 109
17, 17440, Note_on_c, 8, 60, 0
17, 17440, Note_on_c, 8, 56, 109
17, 17520, Note_on_c, 8, 56, 0
17, 17520, Note_on_c, 8, 51, 109
17, 17600, Note_on_c, 8, 51, 0
17, 17600, Note_on_c, 8, 56, 109
17, 17680, Note_on_c, 8, 56, 0
17, 17680, Note_on_c, 8, 48, 109
17, 17760, Note_on_c, 8, 48, 0
17, 17760, Note_on_c, 8, 51, 109
17, 17840, Note_on_c, 8, 51, 0
17, 17840, Note_on_c, 8, 56, 109
17, 17920, Note_on_c, 8, 56, 0
17, 17920, Note_on_c, 8, 58, 109
17, 18000, Note_on_c, 8, 58, 0
17, 18000, Note_on_c, 8, 51, 109
17, 18080, Note_on_c, 8, 51, 0
17, 18080, Note_on_c, 8, 60, 109
17, 18160, Note_on_c, 8, 60, 0
17, 18160, Note_on_c, 8, 56, 109
17, 18240, Note_on_c, 8, 56, 0
17, 18240, Note_on_c, 8, 51, 109
17, 18320, Note_on_c, 8, 51, 0
17, 18320, Note_on_c, 8, 60, 109
17, 18400, Note_on_c, 8, 60, 0
17, 18400, Note_on_c, 8, 56, 109
17, 18480, Note_on_c, 8, 56, 0
17, 18480, Note_on_c, 8, 51, 109
17, 18560, Note_on_c, 8, 51, 0
17, 18560, Note_on_c, 8, 61, 109
17, 18640, Note_on_c, 8, 61, 0
17, 18640, Note_on_c, 8, 58, 109
17, 18720, Note_on_c, 8, 58, 0
17, 18720, Note_on_c, 8, 51, 109
17, 18800, Note_on_c, 8, 51, 0
17, 18800, Note_on_c, 8, 63, 109
17, 18880, Note_on_c, 8, 63, 0
17, 18880, Note_on_c, 8, 60, 109
17, 18960, Note_on_c, 8, 60, 0
17, 18960, Note_on_c, 8, 56, 109
17, 19040, Note_on_c, 8, 56, 0
17, 19040, Note_on_c, 8, 60, 109
17, 19120, Note_on_c, 8, 60, 0
17, 19120, Note_on_c, 8, 63, 109
17, 19200, Note_on_c, 8, 63, 0
17, 19200, Note_on_c, 8, 68, 109
17, 19440, Note_on_c, 8, 68, 0
17, 19680, Note_on_c, 8, 69, 78
17, 20160, Note_on_c, 8, 69, 0
17, 20400, Note_on_c, 8, 69, 78
17, 20880, Note_on_c, 8, 69, 0
17, 20880, Note_on_c, 8, 72, 123
17, 21600, Note_on_c, 8, 72, 0
17, 21600, Note_on_c, 8, 72, 123
17, 21780, Note_on_c, 8, 72, 0
17, 21780, Note_on_c, 8, 67, 123
17, 21840, Note_on_c, 8, 67, 0
17, 21840, Note_on_c, 8, 64, 123
17, 22080, Note_on_c, 8, 64, 0
17, 22080, Note_on_c, 8, 55, 123
17, 22080, Note_on_c, 8, 65, 123
17, 22320, Note_on_c, 8, 65, 0
17, 22320, Note_on_c, 8, 55, 0
17, 22320, Note_on_c, 8, 48, 123
17, 22320, Note_on_c, 8, 55, 123
17, 22320, Note_on_c, 8, 64, 123
17, 22560, Note_on_c, 8, 64, 0
17, 22560, Note_on_c, 8, 55, 0
17, 22560, Note_on_c, 8, 48, 0
17, 23040, Note_on_c, 8, 52, 123
17, 23120, Note_on_c, 8, 52, 0
17, 23120, Note_on_c, 8, 60, 123
17, 23200, Note_on_c, 8, 60, 0
17, 23200, Note_on_c, 8, 55, 123
17, 23280, Note_on_c, 8, 55, 0
17, 23280, Note_on_c, 8, 52, 123
17, 23360, Note_on_c, 8, 52, 0
17, 23360, Note_on_c, 8, 60, 123
17, 23440, Note_on_c, 8, 60, 0
17, 23440, Note_on_c, 8, 55, 123
17, 23520, Note_on_c, 8, 55, 0
17, 23520, Note_on_c, 8, 55, 123
17, 23600, Note_on_c, 8, 55, 0
17, 23600, Note_on_c, 8, 62, 123
17, 23680, Note_on_c, 8, 62, 0
17, 23680, Note_on_c, 8, 59, 123
17, 23760, Note_on_c, 8, 59, 0
17, 23760, Note_on_c, 8, 55, 123
17, 23840, Note_on_c, 8, 55, 0
17, 23840, Note_on_c, 8, 64, 123
17, 23920, Note_on_c, 8, 64, 0
17, 23920, Note_on_c, 8, 60, 123
17, 24000, Note_on_c, 8, 60, 0
17, 24000, Note_on_c, 8, 55, 123
17, 24080, Note_on_c, 8, 55, 0
17, 24080, Note_on_c, 8, 52, 123
17, 24160, Note_on_c, 8, 52, 0
17, 24160, Note_on_c, 8, 48, 123
17, 24240, Note_on_c, 8, 48, 0
17, 24240, Note_on_c, 8, 55, 123
17, 24320, Note_on_c, 8, 55, 0
17, 24320, Note_on_c, 8, 60, 123
17, 24400, Note_on_c, 8, 60, 0
17, 24400, Note_on_c, 8, 62, 123
17, 24480, Note_on_c, 8, 62, 0
17, 24480, Note_on_c, 8, 55, 123
17, 24560, Note_on_c, 8, 55, 0
17, 24560, Note_on_c, 8, 64, 123
17, 24640, Note_on_c, 8, 64, 0
17, 24640, Note_on_c, 8, 60, 123
17, 24720, Note_on_c, 8, 60, 0
17, 24720, Note_on_c, 8, 55, 123
17, 24800, Note_on_c, 8, 55, 0
17, 24800, Note_on_c, 8, 64, 123
17, 24880, Note_on_c, 8, 64, 0
17, 24880, Note_on_c, 8, 60, 123
17, 24960, Note_on_c, 8, 60, 0
17, 24960, Note_on_c, 8, 55, 123
17, 25040, Note_on_c, 8, 55, 0
17, 25040, Note_on_c, 8, 65, 123
17, 25120, Note_on_c, 8, 65, 0
17, 25120, Note_on_c, 8, 62, 123
17, 25200, Note_on_c, 8, 62, 0
17, 25200, Note_on_c, 8, 55, 123
17, 25280, Note_on_c, 8, 55, 0
17, 25280, Note_on_c, 8, 67, 123
17, 25360, Note_on_c, 8, 67, 0
17, 25360, Note_on_c, 8, 64, 123
17, 25440, Note_on_c, 8, 64, 0
17, 25440, Note_on_c, 8, 60, 123
17, 25520, Note_on_c, 8, 60, 0
17, 25520, Note_on_c, 8, 55, 123
17, 25600, Note_on_c, 8, 55, 0
17, 25600, Note_on_c, 8, 52, 123
17, 25680, Note_on_c, 8, 52, 0
17, 25680, Note_on_c, 8, 48, 123
17, 25760, Note_on_c, 8, 48, 0
17, 25760, Note_on_c, 8, 64, 123
17, 25840, Note_on_c, 8, 64, 0
17, 25840, Note_on_c, 8, 65, 123
17, 25920, Note_on_c, 8, 65, 0
17, 25920, Note_on_c, 8, 48, 123
17, 26000, Note_on_c, 8, 48, 0
17, 26000, Note_on_c, 8, 67, 123
17, 26080, Note_on_c, 8, 67, 0
17, 26080, Note_on_c, 8, 64, 123
17, 26160, Note_on_c, 8, 64, 0
17, 26160, Note_on_c, 8, 60, 123
17, 26240, Note_on_c, 8, 60, 0
17, 26240, Note_on_c, 8, 55, 123
17, 26320, Note_on_c, 8, 55, 0
17, 26320, Note_on_c, 8, 52, 123
17, 26400, Note_on_c, 8, 52, 0
17, 26400, Note_on_c, 8, 48, 123
17, 26480, Note_on_c, 8, 48, 0
17, 26480, Note_on_c, 8, 60, 123
17, 26480, Note_on_c, 8, 64, 123
17, 26560, Note_on_c, 8, 64, 0
17, 26560, Note_on_c, 8, 60, 0
17, 26560, Note_on_c, 8, 62, 123
17, 26560, Note_on_c, 8, 65, 123
17, 26640, Note_on_c, 8, 65, 0
17, 26640, Note_on_c, 8, 62, 0
17, 26640, Note_on_c, 8, 64, 123
17, 26640, Note_on_c, 8, 67, 123
17, 26880, Note_on_c, 8, 67, 0
17, 26880, Note_on_c, 8, 64, 0
17, 27840, Note_on_c, 8, 67, 78
17, 28560, Note_on_c, 8, 67, 0
17, 28560, Note_on_c, 8, 67, 78
17, 29280, Note_on_c, 8, 67, 0
17, 29280, Note_on_c, 8, 67, 78
17, 30240, Note_on_c, 8, 67, 0
17, 30240, Note_on_c, 8, 68, 78
17, 31680, Note_on_c, 8, 68, 0
17, 31680, Note_on_c, 8, 68, 78
17, 32400, Note_on_c, 8, 68, 0
17, 32400, Note_on_c, 8, 64, 91
17, 33120, Note_on_c, 8, 64, 0
17, 33120, Note_on_c, 8, 63, 101
17, 33840, Note_on_c, 8, 63, 0
17, 33840, Note_on_c, 8, 61, 109
17, 34560, Note_on_c, 8, 61, 0
17, 34560, Note_on_c, 8, 58, 115
17, 34800, Note_on_c, 8, 58, 0
17, 34800, Note_on_c, 8, 51, 115
17, 35040, Note_on_c, 8, 51, 0
17, 35760, Note_on_c, 8, 51, 91
17, 35880, Note_on_c, 8, 51, 0
17, 35880, Note_on_c, 8, 56, 91
17, 36000, Note_on_c, 8, 56, 0
17, 36000, Note_on_c, 8, 60, 91
17, 36120, Note_on_c, 8, 60, 0
17, 36120, Note_on_c, 8, 58, 91
17, 36240, Note_on_c, 8, 58, 0
17, 36240, Note_on_c, 8, 56, 91
17, 36360, Note_on_c, 8, 56, 0
17, 36360, Note_on_c, 8, 55, 91
17, 36480, Note_on_c, 8, 55, 0
17, 36480, Note_on_c, 8, 56, 91
17, 36600, Note_on_c, 8, 56, 0
17, 36600, Note_on_c, 8, 60, 91
17, 36720, Note_on_c, 8, 60, 0
17, 36720, Note_on_c, 8, 53, 91
17, 36840, Note_on_c, 8, 53, 0
17, 36840, Note_on_c, 8, 57, 91
17, 36960, Note_on_c, 8, 57, 0
17, 36960, Note_on_c, 8, 58, 91
17, 37080, Note_on_c, 8, 58, 0
17, 37080, Note_on_c, 8, 57, 91
17, 37200, Note_on_c, 8, 57, 0
17, 37200, Note_on_c, 8, 58, 91
17, 37320, Note_on_c, 8, 58, 0
17, 37320, Note_on_c, 8, 60, 91
17, 37440, Note_on_c, 8, 60, 0
17, 37440, Note_on_c, 8, 61, 91
17, 37560, Note_on_c, 8, 61, 0
17, 37560, Note_on_c, 8, 60, 91
17, 37680, Note_on_c, 8, 60, 0
17, 37680, Note_on_c, 8, 58, 91
17, 37800, Note_on_c, 8, 58, 0
17, 37800, Note_on_c, 8, 61, 91
17, 37920, Note_on_c, 8, 61, 0
17, 37920, Note_on_c, 8, 55, 91
17, 38040, Note_on_c, 8, 55, 0
17, 38040, Note_on_c, 8, 58, 91
17, 38160, Note_on_c, 8, 58, 0
17, 38160, Note_on_c, 8, 52, 91
17, 38280, Note_on_c, 8, 52, 0
17, 38280, Note_on_c, 8, 55, 91
17, 38400, Note_on_c, 8, 55, 0
17, 38400, Note_on_c, 8, 60, 91
17, 38520, Note_on_c, 8, 60, 0
17, 38520, Note_on_c, 8, 55, 91
17, 38640, Note_on_c, 8, 55, 0
17, 38640, Note_on_c, 8, 60, 91
17, 38760, Note_on_c, 8, 60, 0
17, 38760, Note_on_c, 8, 58, 91
17, 38880, Note_on_c, 8, 58, 0
17, 38880, Note_on_c, 8, 57, 91
17, 39000, Note_on_c, 8, 57, 0
17, 39000, Note_on_c, 8, 53, 91
17, 39120, Note_on_c, 8, 53, 0
17, 39120, Note_on_c, 8, 58, 91
17, 39240, Note_on_c, 8, 58, 0
17, 39240, Note_on_c, 8, 60, 91
17, 39360, Note_on_c, 8, 60, 0
17, 39360, Note_on_c, 8, 61, 91
17, 39480, Note_on_c, 8, 61, 0
17, 39480, Note_on_c, 8, 58, 91
17, 39600, Note_on_c, 8, 58, 0
17, 39600, Note_on_c, 8, 55, 91
17, 39720, Note_on_c, 8, 55, 0
17, 39720, Note_on_c, 8, 51, 91
17, 39840, Note_on_c, 8, 51, 0
17, 39840, Note_on_c, 8, 58, 91
17, 39900, Note_on_c, 8, 58, 0
17, 39900, Note_on_c, 8, 56, 91
17, 39960, Note_on_c, 8, 56, 0
17, 39960, Note_on_c, 8, 55, 91
17, 40080, Note_on_c, 8, 55, 0
17, 40080, Note_on_c, 8, 56, 91
17, 40200, Note_on_c, 8, 56, 0
17, 40200, Note_on_c, 8, 60, 91
17, 40320, Note_on_c, 8, 60, 0
17, 40320, Note_on_c, 8, 62, 115
17, 40440, Note_on_c, 8, 62, 0
17, 40440, Note_on_c, 8, 63, 115
17, 40560, Note_on_c, 8, 63, 0
17, 40560, Note_on_c, 8, 65, 115
17, 40680, Note_on_c, 8, 65, 0
17, 40680, Note_on_c, 8, 63, 115
17, 40800, Note_on_c, 8, 63, 0
17, 40800, Note_on_c, 8, 62, 115
17, 40920, Note_on_c, 8, 62, 0
17, 40920, Note_on_c, 8, 63, 115
17, 41040, Note_on_c, 8, 63, 0
17, 41040, Note_on_c, 8, 60, 91
17, 41280, Note_on_c, 8, 60, 0
17, 41400, Note_on_c, 8, 60, 91
17, 41520, Note_on_c, 8, 60, 0
17, 41520, Note_on_c, 8, 60, 101
17, 41640, Note_on_c, 8, 60, 0
17, 41640, Note_on_c, 8, 56, 109
17, 41760, Note_on_c, 8, 56, 0
17, 41760, Note_on_c, 8, 51, 115
17, 41760, Note_on_c, 8, 55, 115
17, 42480, Note_on_c, 8, 55, 0
17, 42480, Note_on_c, 8, 51, 0
17, 42480, Note_on_c, 8, 51, 91
17, 42480, Note_on_c, 8, 56, 91
17, 42720, Note_on_c, 8, 56, 0
17, 42720, Note_on_c, 8, 51, 0
17, 46800, Note_on_c, 8, 68, 91
17, 47520, Note_on_c, 8, 68, 0
17, 47520, Note_on_c, 8, 63, 101
17, 48240, Note_on_c, 8, 63, 0
17, 48240, Note_on_c, 8, 58, 115
17, 48240, Note_on_c, 8, 61, 115
17, 48480, Note_on_c, 8, 61, 0
17, 48480, Note_on_c, 8, 58, 0
17, 48480, Note_on_c, 8, 58, 115
17, 48480, Note_on_c, 8, 61, 115
17, 48720, Note_on_c, 8, 61, 0
17, 48720, Note_on_c, 8, 58, 0
17, 48720, Note_on_c, 8, 58, 115
17, 48720, Note_on_c, 8, 61, 115
17, 48900, Note_on_c, 8, 61, 0
17, 48900, Note_on_c, 8, 58, 0
17, 48900, Note_on_c, 8, 55, 115
17, 48900, Note_on_c, 8, 61, 115
17, 48960, Note_on_c, 8, 61, 0
17, 48960, Note_on_c, 8, 55, 0
17, 48960, Note_on_c, 8, 56, 91
17, 48960, Note_on_c, 8, 60, 91
17, 49200, Note_on_c, 8, 60, 0
17, 49200, Note_on_c, 8, 56, 0
17, 50160, Note_on_c, 8, 49, 115
17, 50240, Note_on_c, 8, 49, 0
17, 50240, Note_on_c, 8, 48, 115
17, 50320, Note_on_c, 8, 48, 0
17, 50320, Note_on_c, 8, 49, 115
17, 50400, Note_on_c, 8, 49, 0
17, 50400, Note_on_c, 8, 48, 115
17, 50520, Note_on_c, 8, 48, 0
17, 50640, Note_on_c, 8, 48, 91
17, 50760, Note_on_c, 8, 48, 0
17, 50880, Note_on_c, 8, 48, 91
17, 51000, Note_on_c, 8, 48, 0
17, 51120, Note_on_c, 8, 48, 91
17, 51360, Note_on_c, 8, 48, 0
17, 51840, Note_on_c, 8, 48, 115
17, 51900, Note_on_c, 8, 48, 0
17, 51900, Note_on_c, 8, 51, 115
17, 51960, Note_on_c, 8, 51, 0
17, 51960, Note_on_c, 8, 56, 115
17, 52020, Note_on_c, 8, 56, 0
17, 52020, Note_on_c, 8, 51, 115
17, 52080, Note_on_c, 8, 51, 0
17, 52080, Note_on_c, 8, 48, 115
17, 52140, Note_on_c, 8, 48, 0
17, 52140, Note_on_c, 8, 51, 115
17, 52200, Note_on_c, 8, 51, 0
17, 52200, Note_on_c, 8, 56, 115
17, 52260, Note_on_c, 8, 56, 0
17, 52260, Note_on_c, 8, 51, 115
17, 52320, Note_on_c, 8, 51, 0
17, 52320, Note_on_c, 8, 51, 115
17, 52380, Note_on_c, 8, 51, 0
17, 52380, Note_on_c, 8, 55, 115
17, 52440, Note_on_c, 8, 55, 0
17, 52440, Note_on_c, 8, 58, 115
17, 52500, Note_on_c, 8, 58, 0
17, 52500, Note_on_c, 8, 55, 115
17, 52560, Note_on_c, 8, 55, 0
17, 52560, Note_on_c, 8, 51, 115
17, 52620, Note_on_c, 8, 51, 0
17, 52620, Note_on_c, 8, 56, 115
17, 52680, Note_on_c, 8, 56, 0
17, 52680, Note_on_c, 8, 60, 115
17, 52740, Note_on_c, 8, 60, 0
17, 52740, Note_on_c, 8, 56, 115
17, 52800, Note_on_c, 8, 56, 0
17, 52800, Note_on_c, 8, 51, 115
17, 52860, Note_on_c, 8, 51, 0
17, 52860, Note_on_c, 8, 56, 115
17, 52920, Note_on_c, 8, 56, 0
17, 52920, Note_on_c, 8, 51, 115
17, 52980, Note_on_c, 8, 51, 0
17, 52980, Note_on_c, 8, 48, 115
17, 53040, Note_on_c, 8, 48, 0
17, 53040, Note_on_c, 8, 48, 115
17, 53100, Note_on_c, 8, 48, 0
17, 53100, Note_on_c, 8, 56, 115
17, 53160, Note_on_c, 8, 56, 0
17, 53160, Note_on_c, 8, 51, 115
17, 53220, Note_on_c, 8, 51, 0
17, 53220, Note_on_c, 8, 58, 115
17, 53280, Note_on_c, 8, 58, 0
17, 53280, Note_on_c, 8, 51, 115
17, 53340, Note_on_c, 8, 51, 0
17, 53340, Note_on_c, 8, 56, 115
17, 53400, Note_on_c, 8, 56, 0
17, 53400, Note_on_c, 8, 60, 115
17, 53460, Note_on_c, 8, 60, 0
17, 53460, Note_on_c, 8, 56, 115
17, 53520, Note_on_c, 8, 56, 0
17, 53520, Note_on_c, 8, 51, 115
17, 53580, Note_on_c, 8, 51, 0
17, 53580, Note_on_c, 8, 56, 115
17, 53640, Note_on_c, 8, 56, 0
17, 53640, Note_on_c, 8, 60, 115
17, 53700, Note_on_c, 8, 60, 0
17, 53700, Note_on_c, 8, 56, 115
17, 53760, Note_on_c, 8, 56, 0
17, 53760, Note_on_c, 8, 51, 115
17, 53820, Note_on_c, 8, 51, 0
17, 53820, Note_on_c, 8, 58, 115
17, 53880, Note_on_c, 8, 58, 0
17, 53880, Note_on_c, 8, 61, 115
17, 53940, Note_on_c, 8, 61, 0
17, 53940, Note_on_c, 8, 58, 115
17, 54000, Note_on_c, 8, 58, 0
17, 54000, Note_on_c, 8, 51, 115
17, 54060, Note_on_c, 8, 51, 0
17, 54060, Note_on_c, 8, 56, 115
17, 54120, Note_on_c, 8, 56, 0
17, 54120, Note_on_c, 8, 63, 115
17, 54180, Note_on_c, 8, 63, 0
17, 54180, Note_on_c, 8, 60, 115
17, 54240, Note_on_c, 8, 60, 0
17, 54240, Note_on_c, 8, 56, 115
17, 54300, Note_on_c, 8, 56, 0
17, 54300, Note_on_c, 8, 60, 115
17, 54360, Note_on_c, 8, 60, 0
17, 54360, Note_on_c, 8, 63, 115
17, 54420, Note_on_c, 8, 63, 0
17, 54420, Note_on_c, 8, 67, 115
17, 54480, Note_on_c, 8, 67, 0
17, 54480, Note_on_c, 8, 68, 115
17, 54720, Note_on_c, 8, 68, 0
17, 54780, Note_on_c, 8, 69, 101
17, 54840, Note_on_c, 8, 69, 0
17, 54840, Note_on_c, 8, 69, 101
17, 54900, Note_on_c, 8, 69, 0
17, 54900, Note_on_c, 8, 69, 101
17, 54960, Note_on_c, 8, 69, 0
17, 54960, Note_on_c, 8, 69, 101
17, 55080, Note_on_c, 8, 69, 0
17, 55080, Note_on_c, 8, 69, 101
17, 55200, Note_on_c, 8, 69, 0
17, 55200, Note_on_c, 8, 69, 101
17, 55320, Note_on_c, 8, 69, 0
17, 55500, Note_on_c, 8, 69, 101
17, 55560, Note_on_c, 8, 69, 0
17, 55560, Note_on_c, 8, 69, 101
17, 55620, Note_on_c, 8, 69, 0
17, 55620, Note_on_c, 8, 69, 101
17, 55680, Note_on_c, 8, 69, 0
17, 55680, Note_on_c, 8, 69, 101
17, 55800, Note_on_c, 8, 69, 0
17, 55800, Note_on_c, 8, 69, 101
17, 55920, Note_on_c, 8, 69, 0
17, 55920, Note_on_c, 8, 69, 101
17, 56040, Note_on_c, 8, 69, 0
17, 56160, Note_on_c, 8, 72, 123
17, 56220, Note_on_c, 8, 72, 0
17, 56220, Note_on_c, 8, 72, 123
17, 56280, Note_on_c, 8, 72, 0
17, 56280, Note_on_c, 8, 72, 123
17, 56340, Note_on_c, 8, 72, 0
17, 56340, Note_on_c, 8, 72, 123
17, 56400, Note_on_c, 8, 72, 0
17, 56400, Note_on_c, 8, 72, 123
17, 56460, Note_on_c, 8, 72, 0
17, 56460, Note_on_c, 8, 72, 123
17, 56520, Note_on_c, 8, 72, 0
17, 56520, Note_on_c, 8, 72, 123
17, 56580, Note_on_c, 8, 72, 0
17, 56580, Note_on_c, 8, 72, 123
17, 56640, Note_on_c, 8, 72, 0
17, 56640, Note_on_c, 8, 72, 123
17, 56700, Note_on_c, 8, 72, 0
17, 56700, Note_on_c, 8, 72, 123
17, 56760, Note_on_c, 8, 72, 0
17, 56760, Note_on_c, 8, 72, 123
17, 56820, Note_on_c, 8, 72, 0
17, 56820, Note_on_c, 8, 72, 123
17, 56880, Note_on_c, 8, 72, 0
17, 56880, Note_on_c, 8, 72, 123
17, 56940, Note_on_c, 8, 72, 0
17, 56940, Note_on_c, 8, 72, 123
17, 57000, Note_on_c, 8, 72, 0
17, 57000, Note_on_c, 8, 72, 123
17, 57060, Note_on_c, 8, 72, 0
17, 57060, Note_on_c, 8, 67, 123
17, 57120, Note_on_c, 8, 67, 0
17, 57120, Note_on_c, 8, 64, 123
17, 57180, Note_on_c, 8, 64, 0
17, 57180, Note_on_c, 8, 64, 123
17, 57240, Note_on_c, 8, 64, 0
17, 57240, Note_on_c, 8, 64, 123
17, 57300, Note_on_c, 8, 64, 0
17, 57300, Note_on_c, 8, 60, 123
17, 57360, Note_on_c, 8, 60, 0
17, 57360, Note_on_c, 8, 67, 123
17, 57420, Note_on_c, 8, 67, 0
17, 57420, Note_on_c, 8, 55, 123
17, 57480, Note_on_c, 8, 55, 0
17, 57480, Note_on_c, 8, 67, 123
17, 57540, Note_on_c, 8, 67, 0
17, 57540, Note_on_c, 8, 67, 123
17, 57600, Note_on_c, 8, 67, 0
17, 57600, Note_on_c, 8, 60, 123
17, 57840, Note_on_c, 8, 60, 0
17, 58320, Note_on_c, 8, 52, 123
17, 58380, Note_on_c, 8, 52, 0
17, 58380, Note_on_c, 8, 55, 123
17, 58440, Note_on_c, 8, 55, 0
17, 58440, Note_on_c, 8, 60, 123
17, 58500, Note_on_c, 8, 60, 0
17, 58500, Note_on_c, 8, 55, 123
17, 58560, Note_on_c, 8, 55, 0
17, 58560, Note_on_c, 8, 52, 123
17, 58620, Note_on_c, 8, 52, 0
17, 58620, Note_on_c, 8, 55, 123
17, 58680, Note_on_c, 8, 55, 0
17, 58680, Note_on_c, 8, 60, 123
17, 58740, Note_on_c, 8, 60, 0
17, 58740, Note_on_c, 8, 55, 123
17, 58800, Note_on_c, 8, 55, 0
17, 58800, Note_on_c, 8, 55, 123
17, 58860, Note_on_c, 8, 55, 0
17, 58860, Note_on_c, 8, 59, 123
17, 58920, Note_on_c, 8, 59, 0
17, 58920, Note_on_c, 8, 62, 123
17, 58980, Note_on_c, 8, 62, 0
17, 58980, Note_on_c, 8, 59, 123
17, 59040, Note_on_c, 8, 59, 0
17, 59040, Note_on_c, 8, 55, 123
17, 59100, Note_on_c, 8, 55, 0
17, 59100, Note_on_c, 8, 60, 123
17, 59160, Note_on_c, 8, 60, 0
17, 59160, Note_on_c, 8, 64, 123
17, 59220, Note_on_c, 8, 64, 0
17, 59220, Note_on_c, 8, 60, 123
17, 59280, Note_on_c, 8, 60, 0
17, 59280, Note_on_c, 8, 55, 123
17, 59340, Note_on_c, 8, 55, 0
17, 59340, Note_on_c, 8, 60, 123
17, 59400, Note_on_c, 8, 60, 0
17, 59400, Note_on_c, 8, 55, 123
17, 59460, Note_on_c, 8, 55, 0
17, 59460, Note_on_c, 8, 52, 123
17, 59520, Note_on_c, 8, 52, 0
17, 59520, Note_on_c, 8, 48, 123
17, 59580, Note_on_c, 8, 48, 0
17, 59580, Note_on_c, 8, 55, 123
17, 59640, Note_on_c, 8, 55, 0
17, 59640, Note_on_c, 8, 60, 123
17, 59700, Note_on_c, 8, 60, 0
17, 59700, Note_on_c, 8, 62, 123
17, 59760, Note_on_c, 8, 62, 0
17, 59760, Note_on_c, 8, 55, 123
17, 59820, Note_on_c, 8, 55, 0
17, 59820, Note_on_c, 8, 60, 123
17, 59880, Note_on_c, 8, 60, 0
17, 59880, Note_on_c, 8, 64, 123
17, 59940, Note_on_c, 8, 64, 0
17, 59940, Note_on_c, 8, 60, 123
17, 60000, Note_on_c, 8, 60, 0
17, 60000, Note_on_c, 8, 55, 123
17, 60060, Note_on_c, 8, 55, 0
17, 60060, Note_on_c, 8, 60, 123
17, 60120, Note_on_c, 8, 60, 0
17, 60120, Note_on_c, 8, 64, 123
17, 60180, Note_on_c, 8, 64, 0
17, 60180, Note_on_c, 8, 60, 123
17, 60240, Note_on_c, 8, 60, 0
17, 60240, Note_on_c, 8, 55, 123
17, 60300, Note_on_c, 8, 55, 0
17, 60300, Note_on_c, 8, 62, 123
17, 60360, Note_on_c, 8, 62, 0
17, 60360, Note_on_c, 8, 65, 123
17, 60420, Note_on_c, 8, 65, 0
17, 60420, Note_on_c, 8, 62, 123
17, 60480, Note_on_c, 8, 62, 0
17, 60480, Note_on_c, 8, 55, 123
17, 60540, Note_on_c, 8, 55, 0
17, 60540, Note_on_c, 8, 64, 123
17, 60600, Note_on_c, 8, 64, 0
17, 60600, Note_on_c, 8, 67, 123
17, 60660, Note_on_c, 8, 67, 0
17, 60660, Note_on_c, 8, 64, 123
17, 60720, Note_on_c, 8, 64, 0
17, 60720, Note_on_c, 8, 60, 123
17, 60780, Note_on_c, 8, 60, 0
17, 60780, Note_on_c, 8, 55, 123
17, 60840, Note_on_c, 8, 55, 0
17, 60840, Note_on_c, 8, 52, 123
17, 60900, Note_on_c, 8, 52, 0
17, 60900, Note_on_c, 8, 55, 123
17, 60960, Note_on_c, 8, 55, 0
17, 60960, Note_on_c, 8, 48, 123
17, 61020, Note_on_c, 8, 48, 0
17, 61020, Note_on_c, 8, 60, 123
17, 61080, Note_on_c, 8, 60, 0
17, 61080, Note_on_c, 8, 64, 123
17, 61140, Note_on_c, 8, 64, 0
17, 61140, Note_on_c, 8, 65, 123
17, 61200, Note_on_c, 8, 65, 0
17, 61200, Note_on_c, 8, 55, 123
17, 61260, Note_on_c, 8, 55, 0
17, 61260, Note_on_c, 8, 64, 123
17, 61320, Note_on_c, 8, 64, 0
17, 61320, Note_on_c, 8, 67, 123
17, 61380, Note_on_c, 8, 67, 0
17, 61380, Note_on_c, 8, 64, 123
17, 61440, Note_on_c, 8, 64, 0
17, 61440, Note_on_c, 8, 60, 123
17, 61500, Note_on_c, 8, 60, 0
17, 61500, Note_on_c, 8, 55, 123
17, 61560, Note_on_c, 8, 55, 0
17, 61560, Note_on_c, 8, 52, 123
17, 61620, Note_on_c, 8, 52, 0
17, 61620, Note_on_c, 8, 55, 123
17, 61680, Note_on_c, 8, 55, 0
17, 61680, Note_on_c, 8, 48, 123
17, 61740, Note_on_c, 8, 48, 0
17, 61740, Note_on_c, 8, 60, 123
17, 61800, Note_on_c, 8, 60, 0
17, 61800, Note_on_c, 8, 60, 123
17, 61800, Note_on_c, 8, 64, 123
17, 61860, Note_on_c, 8, 64, 0
17, 61860, Note_on_c, 8, 60, 0
17, 61860, Note_on_c, 8, 62, 123
17, 61860, Note_on_c, 8, 65, 123
17, 61920, Note_on_c, 8, 65, 0
17, 61920, Note_on_c, 8, 62, 0
17, 61920, Note_on_c, 8, 64, 123
17, 61920, Note_on_c, 8, 67, 123
17, 62160, Note_on_c, 8, 67, 0
17, 62160, Note_on_c, 8, 64, 0
17, 63120, Note_on_c, 8, 67, 78
17, 63840, Note_on_c, 8, 67, 0
17, 63840, Note_on_c, 8, 67, 78
17, 64560, Note_on_c, 8, 67, 0
17, 64560, Note_on_c, 8, 67, 78
17, 65520, Note_on_c, 8, 67, 0
17, 65520, Note_on_c, 8, 68, 78
17, 66960, Note_on_c, 8, 68, 0
17, 66960, Note_on_c, 8, 68, 78
17, 67680, Note_on_c, 8, 68, 0
17, 67680, Note_on_c, 8, 64, 78
17, 68400, Note_on_c, 8, 64, 0
17, 68400, Note_on_c, 8, 63, 101
17, 69120, Note_on_c, 8, 63, 0
17, 69120, Note_on_c, 8, 61, 109
17, 69840, Note_on_c, 8, 61, 0
17, 69840, Note_on_c, 8, 58, 115
17, 69960, Note_on_c, 8, 58, 0
17, 69960, Note_on_c, 8, 51, 123
17, 70080, Note_on_c, 8, 51, 0
17, 70080, Note_on_c, 8, 63, 123
17, 70200, Note_on_c, 8, 63, 0
17, 71040, Note_on_c, 8, 51, 101
17, 71100, Note_on_c, 8, 51, 0
17, 71100, Note_on_c, 8, 55, 101
17, 71160, Note_on_c, 8, 55, 0
17, 71160, Note_on_c, 8, 56, 101
17, 71220, Note_on_c, 8, 56, 0
17, 71220, Note_on_c, 8, 58, 101
17, 71280, Note_on_c, 8, 58, 0
17, 71280, Note_on_c, 8, 60, 101
17, 71340, Note_on_c, 8, 60, 0
17, 71340, Note_on_c, 8, 58, 101
17, 71400, Note_on_c, 8, 58, 0
17, 71400, Note_on_c, 8, 56, 101
17, 71460, Note_on_c, 8, 56, 0
17, 71460, Note_on_c, 8, 55, 101
17, 71520, Note_on_c, 8, 55, 0
17, 71520, Note_on_c, 8, 56, 101
17, 71580, Note_on_c, 8, 56, 0
17, 71580, Note_on_c, 8, 58, 101
17, 71640, Note_on_c, 8, 58, 0
17, 71640, Note_on_c, 8, 56, 101
17, 71700, Note_on_c, 8, 56, 0
17, 71700, Note_on_c, 8, 55, 101
17, 71760, Note_on_c, 8, 55, 0
17, 71760, Note_on_c, 8, 56, 101
17, 71820, Note_on_c, 8, 56, 0
17, 71820, Note_on_c, 8, 58, 101
17, 71880, Note_on_c, 8, 58, 0
17, 71880, Note_on_c, 8, 60, 101
17, 71940, Note_on_c, 8, 60, 0
17, 71940, Note_on_c, 8, 56, 101
17, 72000, Note_on_c, 8, 56, 0
17, 72000, Note_on_c, 8, 53, 101
17, 72060, Note_on_c, 8, 53, 0
17, 72060, Note_on_c, 8, 55, 101
17, 72120, Note_on_c, 8, 55, 0
17, 72120, Note_on_c, 8, 53, 101
17, 72180, Note_on_c, 8, 53, 0
17, 72180, Note_on_c, 8, 52, 101
17, 72240, Note_on_c, 8, 52, 0
17, 72240, Note_on_c, 8, 53, 101
17, 72300, Note_on_c, 8, 53, 0
17, 72300, Note_on_c, 8, 57, 101
17, 72360, Note_on_c, 8, 57, 0
17, 72360, Note_on_c, 8, 58, 101
17, 72420, Note_on_c, 8, 58, 0
17, 72420, Note_on_c, 8, 57, 101
17, 72480, Note_on_c, 8, 57, 0
17, 72480, Note_on_c, 8, 58, 101
17, 72540, Note_on_c, 8, 58, 0
17, 72540, Note_on_c, 8, 60, 101
17, 72600, Note_on_c, 8, 60, 0
17, 72600, Note_on_c, 8, 61, 101
17, 72660, Note_on_c, 8, 61, 0
17, 72660, Note_on_c, 8, 60, 101
17, 72720, Note_on_c, 8, 60, 0
17, 72720, Note_on_c, 8, 61, 101
17, 72780, Note_on_c, 8, 61, 0
17, 72780, Note_on_c, 8, 60, 101
17, 72840, Note_on_c, 8, 60, 0
17, 72840, Note_on_c, 8, 61, 101
17, 72900, Note_on_c, 8, 61, 0
17, 72900, Note_on_c, 8, 60, 101
17, 72960, Note_on_c, 8, 60, 0
17, 72960, Note_on_c, 8, 58, 101
17, 73020, Note_on_c, 8, 58, 0
17, 73020, Note_on_c, 8, 61, 101
17, 73080, Note_on_c, 8, 61, 0
17, 73080, Note_on_c, 8, 56, 101
17, 73140, Note_on_c, 8, 56, 0
17, 73140, Note_on_c, 8, 61, 101
17, 73200, Note_on_c, 8, 61, 0
17, 73200, Note_on_c, 8, 55, 101
17, 73260, Note_on_c, 8, 55, 0
17, 73260, Note_on_c, 8, 61, 101
17, 73320, Note_on_c, 8, 61, 0
17, 73320, Note_on_c, 8, 53, 101
17, 73380, Note_on_c, 8, 53, 0
17, 73380, Note_on_c, 8, 61, 101
17, 73440, Note_on_c, 8, 61, 0
17, 73440, Note_on_c, 8, 52, 101
17, 73500, Note_on_c, 8, 52, 0
17, 73500, Note_on_c, 8, 55, 101
17, 73560, Note_on_c, 8, 55, 0
17, 73560, Note_on_c, 8, 57, 101
17, 73620, Note_on_c, 8, 57, 0
17, 73620, Note_on_c, 8, 59, 101
17, 73680, Note_on_c, 8, 59, 0
17, 73680, Note_on_c, 8, 60, 101
17, 73740, Note_on_c, 8, 60, 0
17, 73740, Note_on_c, 8, 55, 101
17, 73800, Note_on_c, 8, 55, 0
17, 73800, Note_on_c, 8, 57, 101
17, 73860, Note_on_c, 8, 57, 0
17, 73860, Note_on_c, 8, 59, 101
17, 73920, Note_on_c, 8, 59, 0
17, 73920, Note_on_c, 8, 60, 101
17, 73980, Note_on_c, 8, 60, 0
17, 73980, Note_on_c, 8, 55, 101
17, 74040, Note_on_c, 8, 55, 0
17, 74040, Note_on_c, 8, 60, 101
17, 74100, Note_on_c, 8, 60, 0
17, 74100, Note_on_c, 8, 58, 101
17, 74160, Note_on_c, 8, 58, 0
17, 74160, Note_on_c, 8, 57, 101
17, 74220, Note_on_c, 8, 57, 0
17, 74220, Note_on_c, 8, 60, 101
17, 74280, Note_on_c, 8, 60, 0
17, 74280, Note_on_c, 8, 53, 101
17, 74340, Note_on_c, 8, 53, 0
17, 74340, Note_on_c, 8, 60, 101
17, 74400, Note_on_c, 8, 60, 0
17, 74400, Note_on_c, 8, 58, 101
17, 74460, Note_on_c, 8, 58, 0
17, 74460, Note_on_c, 8, 61, 101
17, 74520, Note_on_c, 8, 61, 0
17, 74520, Note_on_c, 8, 53, 101
17, 74580, Note_on_c, 8, 53, 0
17, 74580, Note_on_c, 8, 61, 101
17, 74640, Note_on_c, 8, 61, 0
17, 74640, Note_on_c, 8, 58, 101
17, 74700, Note_on_c, 8, 58, 0
17, 74700, Note_on_c, 8, 61, 101
17, 74760, Note_on_c, 8, 61, 0
17, 74760, Note_on_c, 8, 56, 101
17, 74820, Note_on_c, 8, 56, 0
17, 74820, Note_on_c, 8, 61, 101
17, 74880, Note_on_c, 8, 61, 0
17, 74880, Note_on_c, 8, 55, 101
17, 74940, Note_on_c, 8, 55, 0
17, 74940, Note_on_c, 8, 58, 101
17, 75000, Note_on_c, 8, 58, 0
17, 75000, Note_on_c, 8, 51, 101
17, 75060, Note_on_c, 8, 51, 0
17, 75060, Note_on_c, 8, 58, 101
17, 75120, Note_on_c, 8, 58, 0
17, 75120, Note_on_c, 8, 56, 101
17, 75180, Note_on_c, 8, 56, 0
17, 75180, Note_on_c, 8, 60, 101
17, 75240, Note_on_c, 8, 60, 0
17, 75240, Note_on_c, 8, 51, 101
17, 75300, Note_on_c, 8, 51, 0
17, 75300, Note_on_c, 8, 60, 101
17, 75360, Note_on_c, 8, 60, 0
17, 75360, Note_on_c, 8, 56, 101
17, 75420, Note_on_c, 8, 56, 0
17, 75420, Note_on_c, 8, 60, 101
17, 75480, Note_on_c, 8, 60, 0
17, 75480, Note_on_c, 8, 51, 101
17, 75540, Note_on_c, 8, 51, 0
17, 75540, Note_on_c, 8, 60, 101
17, 75600, Note_on_c, 8, 60, 0
17, 75600, Note_on_c, 8, 55, 91
17, 75660, Note_on_c, 8, 55, 0
17, 75660, Note_on_c, 8, 63, 91
17, 75720, Note_on_c, 8, 63, 0
17, 75720, Note_on_c, 8, 58, 91
17, 75780, Note_on_c, 8, 58, 0
17, 75780, Note_on_c, 8, 63, 91
17, 75840, Note_on_c, 8, 63, 0
17, 75840, Note_on_c, 8, 55, 91
17, 75900, Note_on_c, 8, 55, 0
17, 75900, Note_on_c, 8, 63, 91
17, 75960, Note_on_c, 8, 63, 0
17, 75960, Note_on_c, 8, 58, 91
17, 76020, Note_on_c, 8, 58, 0
17, 76020, Note_on_c, 8, 63, 91
17, 76080, Note_on_c, 8, 63, 0
17, 76080, Note_on_c, 8, 55, 91
17, 76140, Note_on_c, 8, 55, 0
17, 76140, Note_on_c, 8, 63, 91
17, 76200, Note_on_c, 8, 63, 0
17, 76200, Note_on_c, 8, 58, 91
17, 76260, Note_on_c, 8, 58, 0
17, 76260, Note_on_c, 8, 63, 91
17, 76320, Note_on_c, 8, 63, 0
17, 76320, Note_on_c, 8, 60, 91
17, 76560, Note_on_c, 8, 60, 0
17, 77040, Note_on_c, 8, 51, 78
17, 77160, Note_on_c, 8, 51, 0
17, 77160, Note_on_c, 8, 56, 78
17, 77280, Note_on_c, 8, 56, 0
17, 77280, Note_on_c, 8, 51, 78
17, 77400, Note_on_c, 8, 51, 0
17, 77400, Note_on_c, 8, 56, 78
17, 77520, Note_on_c, 8, 56, 0
17, 77520, Note_on_c, 8, 51, 78
17, 77640, Note_on_c, 8, 51, 0
17, 77640, Note_on_c, 8, 56, 78
17, 77760, Note_on_c, 8, 56, 0
17, 77760, Note_on_c, 8, 53, 78
17, 77880, Note_on_c, 8, 53, 0
17, 77880, Note_on_c, 8, 56, 78
17, 78000, Note_on_c, 8, 56, 0
17, 78000, Note_on_c, 8, 53, 78
17, 78120, Note_on_c, 8, 53, 0
17, 78120, Note_on_c, 8, 56, 78
17, 78240, Note_on_c, 8, 56, 0
17, 78240, Note_on_c, 8, 53, 78
17, 78360, Note_on_c, 8, 53, 0
17, 78360, Note_on_c, 8, 56, 78
17, 78480, Note_on_c, 8, 56, 0
17, 78480, Note_on_c, 8, 53, 78
17, 78600, Note_on_c, 8, 53, 0
17, 78600, Note_on_c, 8, 55, 78
17, 78720, Note_on_c, 8, 55, 0
17, 78720, Note_on_c, 8, 53, 78
17, 78840, Note_on_c, 8, 53, 0
17, 78840, Note_on_c, 8, 55, 78
17, 78960, Note_on_c, 8, 55, 0
17, 78960, Note_on_c, 8, 53, 78
17, 79080, Note_on_c, 8, 53, 0
17, 79080, Note_on_c, 8, 55, 78
17, 79200, Note_on_c, 8, 55, 0
17, 79200, Note_on_c, 8, 55, 78
17, 79320, Note_on_c, 8, 55, 0
17, 79320, Note_on_c, 8, 60, 78
17, 79440, Note_on_c, 8, 60, 0
17, 79440, Note_on_c, 8, 55, 78
17, 79560, Note_on_c, 8, 55, 0
17, 79560, Note_on_c, 8, 60, 78
17, 79680, Note_on_c, 8, 60, 0
17, 79680, Note_on_c, 8, 55, 78
17, 79800, Note_on_c, 8, 55, 0
17, 79800, Note_on_c, 8, 60, 78
17, 79920, Note_on_c, 8, 60, 0
17, 79920, Note_on_c, 8, 53, 78
17, 80040, Note_on_c, 8, 53, 0
17, 80040, Note_on_c, 8, 60, 78
17, 80160, Note_on_c, 8, 60, 0
17, 80160, Note_on_c, 8, 53, 78
17, 80280, Note_on_c, 8, 53, 0
17, 80280, Note_on_c, 8, 58, 78
17, 80400, Note_on_c, 8, 58, 0
17, 80400, Note_on_c, 8, 53, 78
17, 80520, Note_on_c, 8, 53, 0
17, 80520, Note_on_c, 8, 58, 78
17, 80640, Note_on_c, 8, 58, 0
17, 80640, Note_on_c, 8, 51, 78
17, 80760, Note_on_c, 8, 51, 0
17, 80760, Note_on_c, 8, 58, 78
17, 80880, Note_on_c, 8, 58, 0
17, 80880, Note_on_c, 8, 51, 78
17, 81000, Note_on_c, 8, 51, 0
17, 81000, Note_on_c, 8, 56, 78
17, 81120, Note_on_c, 8, 56, 0
17, 81120, Note_on_c, 8, 51, 78
17, 81240, Note_on_c, 8, 51, 0
17, 81240, Note_on_c, 8, 56, 78
17, 81360, Note_on_c, 8, 56, 0
17, 81360, Note_on_c, 8, 51, 78
17, 81480, Note_on_c, 8, 51, 0
17, 81480, Note_on_c, 8, 55, 78
17, 81600, Note_on_c, 8, 55, 0
17, 81600, Note_on_c, 8, 51, 78
17, 81720, Note_on_c, 8, 51, 0
17, 81720, Note_on_c, 8, 55, 78
17, 81840, Note_on_c, 8, 55, 0
17, 81840, Note_on_c, 8, 51, 78
17, 81960, Note_on_c, 8, 51, 0
17, 81960, Note_on_c, 8, 55, 78
17, 82080, Note_on_c, 8, 55, 0
17, 82080, Note_on_c, 8, 56, 78
17, 82200, Note_on_c, 8, 56, 0
17, 82200, Note_on_c, 8, 56, 115
17, 82200, Note_on_c, 8, 60, 115
17, 82320, Note_on_c, 8, 60, 0
17, 82320, Note_on_c, 8, 56, 0
17, 82320, Note_on_c, 8, 56, 115
17, 82320, Note_on_c, 8, 60, 115
17, 82440, Note_on_c, 8, 60, 0
17, 82440, Note_on_c, 8, 56, 0
17, 82440, Note_on_c, 8, 56, 115
17, 82440, Note_on_c, 8, 60, 115
17, 82560, Note_on_c, 8, 60, 0
17, 82560, Note_on_c, 8, 56, 0
17, 82560, Note_on_c, 8, 56, 115
17, 82560, Note_on_c, 8, 60, 115
17, 82680, Note_on_c, 8, 60, 0
17, 82680, Note_on_c, 8, 56, 0
17, 82680, Note_on_c, 8, 56, 115
17, 82680, Note_on_c, 8, 60, 115
17, 82800, Note_on_c, 8, 60, 0
17, 82800, Note_on_c, 8, 56, 0
17, 82800, Note_on_c, 8, 56, 115
17, 82800, Note_on_c, 8, 60, 115
17, 82920, Note_on_c, 8, 60, 0
17, 82920, Note_on_c, 8, 56, 0
17, 82920, Note_on_c, 8, 56, 115
17, 82920, Note_on_c, 8, 60, 115
17, 83040, Note_on_c, 8, 60, 0
17, 83040, Note_on_c, 8, 56, 0
17, 83040, Note_on_c, 8, 56, 115
17, 83040, Note_on_c, 8, 60, 115
17, 83160, Note_on_c, 8, 60, 0
17, 83160, Note_on_c, 8, 56, 0
17, 83160, Note_on_c, 8, 56, 115
17, 83160, Note_on_c, 8, 60, 115
17, 83280, Note_on_c, 8, 60, 0
17, 83280, Note_on_c, 8, 56, 0
17, 83280, Note_on_c, 8, 56, 115
17, 83280, Note_on_c, 8, 60, 115
17, 83400, Note_on_c, 8, 60, 0
17, 83400, Note_on_c, 8, 56, 0
17, 83400, Note_on_c, 8, 56, 115
17, 83400, Note_on_c, 8, 60, 115
17, 83520, Note_on_c, 8, 60, 0
17, 83520, Note_on_c, 8, 56, 0
17, 83520, Note_on_c, 8, 57, 115
17, 83520, Note_on_c, 8, 60, 115
17, 83640, Note_on_c, 8, 60, 0
17, 83640, Note_on_c, 8, 57, 0
17, 83640, Note_on_c, 8, 57, 115
17, 83640, Note_on_c, 8, 60, 115
17, 83760, Note_on_c, 8, 60, 0
17, 83760, Note_on_c, 8, 57, 0
17, 83760, Note_on_c, 8, 58, 115
17, 83760, Note_on_c, 8, 61, 115
17, 83880, Note_on_c, 8, 61, 0
17, 83880, Note_on_c, 8, 58, 0
17, 83880, Note_on_c, 8, 58, 115
17, 83880, Note_on_c, 8, 61, 115
17, 84000, Note_on_c, 8, 61, 0
17, 84000, Note_on_c, 8, 58, 0
17, 84000, Note_on_c, 8, 58, 115
17, 84000, Note_on_c, 8, 61, 115
17, 84120, Note_on_c, 8, 61, 0
17, 84120, Note_on_c, 8, 58, 0
17, 84120, Note_on_c, 8, 58, 115
17, 84120, Note_on_c, 8, 61, 115
17, 84240, Note_on_c, 8, 61, 0
17, 84240, Note_on_c, 8, 58, 0
17, 84240, Note_on_c, 8, 58, 115
17, 84240, Note_on_c, 8, 61, 115
17, 84360, Note_on_c, 8, 61, 0
17, 84360, Note_on_c, 8, 58, 0
17, 84360, Note_on_c, 8, 58, 115
17, 84360, Note_on_c, 8, 61, 115
17, 84480, Note_on_c, 8, 61, 0
17, 84480, Note_on_c, 8, 58, 0
17, 84480, Note_on_c, 8, 58, 115
17, 84480, Note_on_c, 8, 61, 115
17, 84600, Note_on_c, 8, 61, 0
17, 84600, Note_on_c, 8, 58, 0
17, 84600, Note_on_c, 8, 56, 115
17, 84600, Note_on_c, 8, 61, 115
17, 84720, Note_on_c, 8, 61, 0
17, 84720, Note_on_c, 8, 56, 0
17, 84720, Note_on_c, 8, 55, 115
17, 84720, Note_on_c, 8, 62, 115
17, 84840, Note_on_c, 8, 62, 0
17, 84840, Note_on_c, 8, 55, 0
17, 84840, Note_on_c, 8, 53, 115
17, 84840, Note_on_c, 8, 55, 115
17, 84960, Note_on_c, 8, 55, 0
17, 84960, Note_on_c, 8, 53, 0
17, 84960, Note_on_c, 8, 52, 115
17, 84960, Note_on_c, 8, 55, 115
17, 85080, Note_on_c, 8, 55, 0
17, 85080, Note_on_c, 8, 52, 0
17, 85080, Note_on_c, 8, 48, 115
17, 85080, Note_on_c, 8, 60, 115
17, 85200, Note_on_c, 8, 60, 0
17, 85200, Note_on_c, 8, 48, 0
17, 85200, Note_on_c, 8, 48, 115
17, 85200, Note_on_c, 8, 60, 115
17, 85320, Note_on_c, 8, 60, 0
17, 85320, Note_on_c, 8, 48, 0
17, 85320, Note_on_c, 8, 48, 115
17, 85320, Note_on_c, 8, 60, 115
17, 85440, Note_on_c, 8, 60, 0
17, 85440, Note_on_c, 8, 48, 0
17, 85440, Note_on_c, 8, 48, 115
17, 85440, Note_on_c, 8, 60, 115
17, 85560, Note_on_c, 8, 60, 0
17, 85560, Note_on_c, 8, 48, 0
17, 85560, Note_on_c, 8, 48, 115
17, 85560, Note_on_c, 8, 60, 115
17, 85680, Note_on_c, 8, 60, 0
17, 85680, Note_on_c, 8, 48, 0
17, 85680, Note_on_c, 8, 57, 115
17, 85680, Note_on_c, 8, 60, 115
17, 85800, Note_on_c, 8, 60, 0
17, 85800, Note_on_c, 8, 57, 0
17, 85800, Note_on_c, 8, 57, 115
17, 85800, Note_on_c, 8, 60, 115
17, 85920, Note_on_c, 8, 60, 0
17, 85920, Note_on_c, 8, 57, 0
17, 85920, Note_on_c, 8, 58, 115
17, 86040, Note_on_c, 8, 58, 0
17, 86040, Note_on_c, 8, 58, 115
17, 86160, Note_on_c, 8, 58, 0
17, 86160, Note_on_c, 8, 58, 115
17, 86280, Note_on_c, 8, 58, 0
17, 86280, Note_on_c, 8, 58, 115
17, 86400, Note_on_c, 8, 58, 0
17, 86400, Note_on_c, 8, 55, 115
17, 86400, Note_on_c, 8, 58, 115
17, 86520, Note_on_c, 8, 58, 0
17, 86520, Note_on_c, 8, 55, 0
17, 86520, Note_on_c, 8, 55, 115
17, 86520, Note_on_c, 8, 58, 115
17, 86640, Note_on_c, 8, 58, 0
17, 86640, Note_on_c, 8, 55, 0
17, 86640, Note_on_c, 8, 56, 115
17, 86640, Note_on_c, 8, 60, 115
17, 86760, Note_on_c, 8, 60, 0
17, 86760, Note_on_c, 8, 56, 0
17, 86760, Note_on_c, 8, 51, 115
17, 86760, Note_on_c, 8, 63, 115
17, 86880, Note_on_c, 8, 63, 0
17, 86880, Note_on_c, 8, 51, 0
17, 86880, Note_on_c, 8, 51, 115
17, 86880, Note_on_c, 8, 63, 115
17, 87000, Note_on_c, 8, 63, 0
17, 87000, Note_on_c, 8, 51, 0
17, 87000, Note_on_c, 8, 51, 115
17, 87000, Note_on_c, 8, 63, 115
17, 87120, Note_on_c, 8, 63, 0
17, 87120, Note_on_c, 8, 51, 0
17, 87120, Note_on_c, 8, 51, 115
17, 87120, Note_on_c, 8, 63, 115
17, 87420, Note_on_c, 8, 63, 0
17, 87420, Note_on_c, 8, 51, 0
17, 87420, Note_on_c, 8, 51, 115
17, 87480, Note_on_c, 8, 51, 0
17, 87480, Note_on_c, 8, 53, 115
17, 87540, Note_on_c, 8, 53, 0
17, 87540, Note_on_c, 8, 55, 115
17, 87600, Note_on_c, 8, 55, 0
17, 87600, Note_on_c, 8, 56, 115
17, 87660, Note_on_c, 8, 56, 0
17, 87660, Note_on_c, 8, 58, 115
17, 87720, Note_on_c, 8, 58, 0
17, 87720, Note_on_c, 8, 60, 115
17, 87780, Note_on_c, 8, 60, 0
17, 87780, Note_on_c, 8, 62, 115
17, 87840, Note_on_c, 8, 62, 0
17, 87840, Note_on_c, 8, 63, 115
17, 88200, Note_on_c, 8, 63, 0
17, 88200, Note_on_c, 8, 65, 115
17, 88260, Note_on_c, 8, 65, 0
17, 88260, Note_on_c, 8, 67, 115
17, 88320, Note_on_c, 8, 67, 0
17, 88320, Note_on_c, 8, 68, 115
17, 88380, Note_on_c, 8, 68, 0
17, 88380, Note_on_c, 8, 70, 115
17, 88440, Note_on_c, 8, 70, 0
17, 88440, Note_on_c, 8, 72, 115
17, 88500, Note_on_c, 8, 72, 0
17, 88500, Note_on_c, 8, 74, 115
17, 88560, Note_on_c, 8, 74, 0
17, 88560, Note_on_c, 8, 75, 115
17, 89040, Note_on_c, 8, 75, 0
17, 89040, Note_on_c, 8, 55, 78
17, 89280, Note_on_c, 8, 55, 0
17, 89280, Note_on_c, 8, 55, 78
17, 89520, Note_on_c, 8, 55, 0
17, 89760, Note_on_c, 8, 55, 78
17, 90000, Note_on_c, 8, 55, 0
17, 90000, Note_on_c, 8, 55, 78
17, 90240, Note_on_c, 8, 55, 0
17, 90480, Note_on_c, 8, 55, 78
17, 90720, Note_on_c, 8, 55, 0
17, 90720, Note_on_c, 8, 55, 78
17, 90960, Note_on_c, 8, 55, 0
17, 91200, Note_on_c, 8, 55, 78
17, 91440, Note_on_c, 8, 55, 0
17, 91440, Note_on_c, 8, 55, 78
17, 91680, Note_on_c, 8, 55, 0
17, 91920, Note_on_c, 8, 55, 78
17, 92160, Note_on_c, 8, 55, 0
17, 92160, Note_on_c, 8, 55, 78
17, 92400, Note_on_c, 8, 55, 0
17, 92640, Note_on_c, 8, 55, 78
17, 92880, Note_on_c, 8, 55, 0
17, 92880, Note_on_c, 8, 55, 78
17, 93120, Note_on_c, 8, 55, 0
17, 93360, Note_on_c, 8, 51, 78
17, 93600, Note_on_c, 8, 51, 0
17, 93600, Note_on_c, 8, 51, 78
17, 93840, Note_on_c, 8, 51, 0
17, 94080, Note_on_c, 8, 51, 78
17, 94320, Note_on_c, 8, 51, 0
17, 94320, Note_on_c, 8, 51, 78
17, 94560, Note_on_c, 8, 51, 0
17, 94800, Note_on_c, 8, 51, 78
17, 95040, Note_on_c, 8, 51, 0
17, 95040, Note_on_c, 8, 51, 115
17, 95280, Note_on_c, 8, 51, 0
17, 103560, Note_on_c, 8, 55, 91
17, 103680, Note_on_c, 8, 55, 0
17, 103680, Note_on_c, 8, 56, 91
17, 103800, Note_on_c, 8, 56, 0
17, 103800, Note_on_c, 8, 58, 91
17, 103920, Note_on_c, 8, 58, 0
17, 103920, Note_on_c, 8, 60, 91
17, 104040, Note_on_c, 8, 60, 0
17, 106320, Note_on_c, 8, 52, 123
17, 106500, Note_on_c, 8, 52, 0
17, 106500, Note_on_c, 8, 55, 123
17, 106560, Note_on_c, 8, 55, 0
17, 106560, Note_on_c, 8, 60, 123
17, 106800, Note_on_c, 8, 60, 0
17, 106800, Note_on_c, 8, 60, 123
17, 107040, Note_on_c, 8, 60, 0
17, 107040, Note_on_c, 8, 55, 123
17, 107280, Note_on_c, 8, 55, 0
17, 107280, Note_on_c, 8, 48, 123
17, 107280, Note_on_c, 8, 60, 123
17, 108480, Note_on_c, 8, 60, 0
17, 108480, Note_on_c, 8, 48, 0
17, 108480, Note_on_c, 8, 60, 123
17, 108660, Note_on_c, 8, 60, 0
17, 108660, Note_on_c, 8, 55, 123
17, 108720, Note_on_c, 8, 55, 0
17, 108720, Note_on_c, 8, 48, 123
17, 108720, Note_on_c, 8, 60, 123
17, 108960, Note_on_c, 8, 60, 0
17, 108960, Note_on_c, 8, 48, 0
17, 108960, Note_on_c, 8, 48, 123
17, 108960, Note_on_c, 8, 60, 123
17, 109200, Note_on_c, 8, 60, 0
17, 109200, Note_on_c, 8, 48, 0
17, 109200, Note_on_c, 8, 48, 123
17, 109200, Note_on_c, 8, 60, 123
17, 109440, Note_on_c, 8, 60, 0
17, 109440, Note_on_c, 8, 48, 0
17, 109440, Note_on_c, 8, 48, 123
17, 109440, Note_on_c, 8, 60, 123
17, 110640, Note_on_c, 8, 60, 0
17, 110640, Note_on_c, 8, 48, 0
17, 110640, Note_on_c, 8, 48, 123
17, 110640, Note_on_c, 8, 60, 123
17, 110820, Note_on_c, 8, 60, 0
17, 110820, Note_on_c, 8, 48, 0
17, 110820, Note_on_c, 8, 48, 123
17, 110820, Note_on_c, 8, 60, 123
17, 110880, Note_on_c, 8, 60, 0
17, 110880, Note_on_c, 8, 48, 0
17, 110880, Note_on_c, 8, 48, 123
17, 110880, Note_on_c, 8, 60, 123
17, 111360, Note_on_c, 8, 60, 0
17, 111360, Note_on_c, 8, 48, 0
17, 111360, Note_on_c, 8, 48, 123
17, 111360, Note_on_c, 8, 60, 123
17, 111540, Note_on_c, 8, 60, 0
17, 111540, Note_on_c, 8, 48, 0
17, 111540, Note_on_c, 8, 48, 123
17, 111540, Note_on_c, 8, 60, 123
17, 111600, Note_on_c, 8, 60, 0
17, 111600, Note_on_c, 8, 48, 0
17, 111600, Note_on_c, 8, 48, 123
17, 111600, Note_on_c, 8, 60, 123
17, 112080, Note_on_c, 8, 60, 0
17, 112080, Note_on_c, 8, 48, 0
17, 112080, Note_on_c, 8, 48, 123
17, 112080, Note_on_c, 8, 60, 123
17, 112260, Note_on_c, 8, 60, 0
17, 112260, Note_on_c, 8, 48, 0
17, 112260, Note_on_c, 8, 48, 123
17, 112260, Note_on_c, 8, 60, 123
17, 112320, Note_on_c, 8, 60, 0
17, 112320, Note_on_c, 8, 48, 0
17, 112320, Note_on_c, 8, 48, 123
17, 112320, Note_on_c, 8, 60, 123
17, 112800, Note_on_c, 8, 60, 0
17, 112800, Note_on_c, 8, 48, 0
17, 113520, Note_on_c, 8, 48, 91
17, 113700, Note_on_c, 8, 48, 0
17, 113700, Note_on_c, 8, 52, 91
17, 113760, Note_on_c, 8, 52, 0
17, 113760, Note_on_c, 8, 55, 91
17, 114000, Note_on_c, 8, 55, 0
17, 114240, Note_on_c, 8, 48, 91
17, 114420, Note_on_c, 8, 48, 0
17, 114420, Note_on_c, 8, 53, 91
17, 114480, Note_on_c, 8, 53, 0
17, 114480, Note_on_c, 8, 56, 91
17, 114720, Note_on_c, 8, 56, 0
17, 114960, Note_on_c, 8, 51, 91
17, 115140, Note_on_c, 8, 51, 0
17, 115140, Note_on_c, 8, 55, 91
17, 115200, Note_on_c, 8, 55, 0
17, 115200, Note_on_c, 8, 58, 91
17, 115280, Note_on_c, 8, 58, 0
17, 115280, Note_on_c, 8, 51, 91
17, 115360, Note_on_c, 8, 51, 0
17, 115360, Note_on_c, 8, 55, 91
17, 115440, Note_on_c, 8, 55, 0
17, 115440, Note_on_c, 8, 58, 91
17, 115520, Note_on_c, 8, 58, 0
17, 115520, Note_on_c, 8, 51, 91
17, 115600, Note_on_c, 8, 51, 0
17, 115600, Note_on_c, 8, 55, 91
17, 115680, Note_on_c, 8, 55, 0
17, 115680, Note_on_c, 8, 58, 91
17, 115760, Note_on_c, 8, 58, 0
17, 115760, Note_on_c, 8, 51, 91
17, 115840, Note_on_c, 8, 51, 0
17, 115840, Note_on_c, 8, 55, 91
17, 115920, Note_on_c, 8, 55, 0
17, 115920, Note_on_c, 8, 58, 91
17, 116000, Note_on_c, 8, 58, 0
17, 116000, Note_on_c, 8, 51, 91
17, 116080, Note_on_c, 8, 51, 0
17, 116080, Note_on_c, 8, 55, 91
17, 116160, Note_on_c, 8, 55, 0
17, 116160, Note_on_c, 8, 58, 91
17, 116240, Note_on_c, 8, 58, 0
17, 116240, Note_on_c, 8, 51, 91
17, 116320, Note_on_c, 8, 51, 0
17, 116320, Note_on_c, 8, 55, 91
17, 116400, Note_on_c, 8, 55, 0
17, 116400, Note_on_c, 8, 58, 91
17, 116480, Note_on_c, 8, 58, 0
17, 116480, Note_on_c, 8, 51, 91
17, 116560, Note_on_c, 8, 51, 0
17, 116560, Note_on_c, 8, 55, 91
17, 116640, Note_on_c, 8, 55, 0
17, 116640, Note_on_c, 8, 58, 78
17, 116700, Note_on_c, 8, 58, 0
17, 116700, Note_on_c, 8, 55, 78
17, 116760, Note_on_c, 8, 55, 0
17, 116760, Note_on_c, 8, 51, 78
17, 116820, Note_on_c, 8, 51, 0
17, 116820, Note_on_c, 8, 55, 78
17, 116880, Note_on_c, 8, 55, 0
17, 116880, Note_on_c, 8, 58, 78
17, 116940, Note_on_c, 8, 58, 0
17, 116940, Note_on_c, 8, 55, 78
17, 117000, Note_on_c, 8, 55, 0
17, 117000, Note_on_c, 8, 51, 78
17, 117060, Note_on_c, 8, 51, 0
17, 117060, Note_on_c, 8, 55, 78
17, 117120, Note_on_c, 8, 55, 0
17, 117120, Note_on_c, 8, 58, 78
17, 117180, Note_on_c, 8, 58, 0
17, 117180, Note_on_c, 8, 55, 78
17, 117240, Note_on_c, 8, 55, 0
17, 117240, Note_on_c, 8, 51, 78
17, 117300, Note_on_c, 8, 51, 0
17, 117300, Note_on_c, 8, 55, 78
17, 117360, Note_on_c, 8, 55, 0
17, 117360, Note_on_c, 8, 58, 78
17, 117600, Note_on_c, 8, 58, 0
17, 120000, Note_on_c, 8, 51, 78
17, 120000, Note_on_c, 8, 56, 78
17, 120240, Note_on_c, 8, 56, 0
17, 120240, Note_on_c, 8, 51, 0
17, 120240, Note_on_c, 8, 51, 78
17, 120240, Note_on_c, 8, 56, 78
17, 120480, Note_on_c, 8, 56, 0
17, 120480, Note_on_c, 8, 51, 0
17, 120480, Note_on_c, 8, 51, 78
17, 120480, Note_on_c, 8, 56, 78
17, 120720, Note_on_c, 8, 56, 0
17, 120720, Note_on_c, 8, 51, 0
17, 120720, Note_on_c, 8, 51, 78
17, 120720, Note_on_c, 8, 56, 78
17, 120960, Note_on_c, 8, 56, 0
17, 120960, Note_on_c, 8, 51, 0
17, 120960, Note_on_c, 8, 51, 78
17, 120960, Note_on_c, 8, 55, 78
17, 121200, Note_on_c, 8, 55, 0
17, 121200, Note_on_c, 8, 51, 0
17, 121200, Note_on_c, 8, 51, 78
17, 121200, Note_on_c, 8, 55, 78
17, 121440, Note_on_c, 8, 55, 0
17, 121440, Note_on_c, 8, 51, 0
17, 121440, Note_on_c, 8, 51, 78
17, 121440, Note_on_c, 8, 55, 78
17, 121680, Note_on_c, 8, 55, 0
17, 121680, Note_on_c, 8, 51, 0
17, 121680, Note_on_c, 8, 51, 78
17, 121680, Note_on_c, 8, 56, 78
17, 121920, Note_on_c, 8, 56, 0
17, 121920, Note_on_c, 8, 51, 0
17, 121920, Note_on_c, 8, 51, 78
17, 121920, Note_on_c, 8, 56, 78
17, 122160, Note_on_c, 8, 56, 0
17, 122160, Note_on_c, 8, 51, 0
17, 122160, Note_on_c, 8, 51, 78
17, 122160, Note_on_c, 8, 56, 78
17, 122400, Note_on_c, 8, 56, 0
17, 122400, Note_on_c, 8, 51, 0
17, 122400, Note_on_c, 8, 54, 78
17, 122400, Note_on_c, 8, 58, 78
17, 122640, Note_on_c, 8, 58, 0
17, 122640, Note_on_c, 8, 54, 0
17, 122640, Note_on_c, 8, 54, 78
17, 122640, Note_on_c, 8, 58, 78
17, 122880, Note_on_c, 8, 58, 0
17, 122880, Note_on_c, 8, 54, 0
17, 122880, Note_on_c, 8, 54, 78
17, 122880, Note_on_c, 8, 58, 78
17, 123120, Note_on_c, 8, 58, 0
17, 123120, Note_on_c, 8, 54, 0
17, 123120, Note_on_c, 8, 54, 78
17, 123120, Note_on_c, 8, 59, 78
17, 123360, Note_on_c, 8, 59, 0
17, 123360, Note_on_c, 8, 54, 0
17, 123360, Note_on_c, 8, 54, 78
17, 123360, Note_on_c, 8, 59, 78
17, 123600, Note_on_c, 8, 59, 0
17, 123600, Note_on_c, 8, 54, 0
17, 123600, Note_on_c, 8, 54, 78
17, 123600, Note_on_c, 8, 59, 78
17, 123840, Note_on_c, 8, 59, 0
17, 123840, Note_on_c, 8, 54, 0
17, 123840, Note_on_c, 8, 54, 78
17, 123840, Note_on_c, 8, 58, 78
17, 124080, Note_on_c, 8, 58, 0
17, 124080, Note_on_c, 8, 54, 0
17, 124080, Note_on_c, 8, 54, 78
17, 124080, Note_on_c, 8, 58, 78
17, 124320, Note_on_c, 8, 58, 0
17, 124320, Note_on_c, 8, 54, 0
17, 124320, Note_on_c, 8, 54, 78
17, 124320, Note_on_c, 8, 58, 78
17, 124560, Note_on_c, 8, 58, 0
17, 124560, Note_on_c, 8, 54, 0
17, 124560, Note_on_c, 8, 51, 78
17, 124560, Note_on_c, 8, 56, 78
17, 124800, Note_on_c, 8, 56, 0
17, 124800, Note_on_c, 8, 51, 0
17, 124800, Note_on_c, 8, 51, 78
17, 124800, Note_on_c, 8, 56, 78
17, 125040, Note_on_c, 8, 56, 0
17, 125040, Note_on_c, 8, 51, 0
17, 125040, Note_on_c, 8, 51, 78
17, 125040, Note_on_c, 8, 56, 78
17, 125280, Note_on_c, 8, 56, 0
17, 125280, Note_on_c, 8, 51, 0
17, 125280, Note_on_c, 8, 51, 91
17, 125280, Note_on_c, 8, 55, 91
17, 125520, Note_on_c, 8, 55, 0
17, 125520, Note_on_c, 8, 51, 0
17, 125520, Note_on_c, 8, 51, 91
17, 125520, Note_on_c, 8, 55, 91
17, 125640, Note_on_c, 8, 55, 0
17, 125640, Note_on_c, 8, 51, 0
17, 125640, Note_on_c, 8, 51, 91
17, 125640, Note_on_c, 8, 56, 91
17, 125760, Note_on_c, 8, 56, 0
17, 125760, Note_on_c, 8, 51, 0
17, 125760, Note_on_c, 8, 51, 101
17, 125760, Note_on_c, 8, 56, 101
17, 125880, Note_on_c, 8, 56, 0
17, 125880, Note_on_c, 8, 51, 0
17, 125880, Note_on_c, 8, 51, 101
17, 125880, Note_on_c, 8, 56, 101
17, 126000, Note_on_c, 8, 56, 0
17, 126000, Note_on_c, 8, 51, 0
17, 126000, Note_on_c, 8, 51, 101
17, 126000, Note_on_c, 8, 55, 101
17, 126240, Note_on_c, 8, 55, 0
17, 126240, Note_on_c, 8, 51, 0
17, 126240, Note_on_c, 8, 51, 109
17, 126240, Note_on_c, 8, 55, 109
17, 126360, Note_on_c, 8, 55, 0
17, 126360, Note_on_c, 8, 51, 0
17, 126360, Note_on_c, 8, 51, 109
17, 126360, Note_on_c, 8, 56, 109
17, 126480, Note_on_c, 8, 56, 0
17, 126480, Note_on_c, 8, 51, 0
17, 126480, Note_on_c, 8, 51, 109
17, 126480, Note_on_c, 8, 56, 109
17, 126600, Note_on_c, 8, 56, 0
17, 126600, Note_on_c, 8, 51, 0
17, 126600, Note_on_c, 8, 51, 109
17, 126600, Note_on_c, 8, 56, 109
17, 126720, Note_on_c, 8, 56, 0
17, 126720, Note_on_c, 8, 51, 0
17, 126720, Note_on_c, 8, 51, 115
17, 126720, Note_on_c, 8, 55, 115
17, 126840, Note_on_c, 8, 55, 0
17, 126840, Note_on_c, 8, 51, 0
17, 126840, Note_on_c, 8, 51, 115
17, 126840, Note_on_c, 8, 55, 115
17, 126960, Note_on_c, 8, 55, 0
17, 126960, Note_on_c, 8, 51, 0
17, 130860, Note_on_c, 8, 51, 91
17, 130920, Note_on_c, 8, 51, 0
17, 130920, Note_on_c, 8, 53, 91
17, 130980, Note_on_c, 8, 53, 0
17, 130980, Note_on_c, 8, 55, 91
17, 131040, Note_on_c, 8, 55, 0
17, 131040, Note_on_c, 8, 56, 91
17, 131100, Note_on_c, 8, 56, 0
17, 131100, Note_on_c, 8, 58, 91
17, 131160, Note_on_c, 8, 58, 0
17, 131160, Note_on_c, 8, 60, 91
17, 131220, Note_on_c, 8, 60, 0
17, 131220, Note_on_c, 8, 61, 91
17, 131280, Note_on_c, 8, 61, 0
17, 131280, Note_on_c, 8, 63, 91
17, 131640, Note_on_c, 8, 63, 0
17, 132360, Note_on_c, 8, 51, 91
17, 132360, Note_on_c, 8, 63, 91
17, 132480, Note_on_c, 8, 63, 0
17, 132480, Note_on_c, 8, 51, 0
17, 132480, Note_on_c, 8, 51, 101
17, 132480, Note_on_c, 8, 63, 101
17, 132600, Note_on_c, 8, 63, 0
17, 132600, Note_on_c, 8, 51, 0
17, 132600, Note_on_c, 8, 51, 101
17, 132600, Note_on_c, 8, 63, 101
17, 132720, Note_on_c, 8, 63, 0
17, 132720, Note_on_c, 8, 51, 0
17, 132720, Note_on_c, 8, 51, 109
17, 132720, Note_on_c, 8, 63, 109
17, 132840, Note_on_c, 8, 63, 0
17, 132840, Note_on_c, 8, 51, 0
17, 132840, Note_on_c, 8, 51, 109
17, 132840, Note_on_c, 8, 63, 109
17, 132960, Note_on_c, 8, 63, 0
17, 132960, Note_on_c, 8, 51, 0
17, 132960, Note_on_c, 8, 51, 115
17, 132960, Note_on_c, 8, 63, 115
17, 133080, Note_on_c, 8, 63, 0
17, 133080, Note_on_c, 8, 51, 0
17, 133080, Note_on_c, 8, 51, 115
17, 133080, Note_on_c, 8, 63, 115
17, 133200, Note_on_c, 8, 63, 0
17, 133200, Note_on_c, 8, 51, 0
17, 133200, Note_on_c, 8, 51, 123
17, 133200, Note_on_c, 8, 60, 123
17, 133200, Note_on_c, 8, 63, 123
17, 133260, Note_on_c, 8, 63, 0
17, 133260, Note_on_c, 8, 60, 0
17, 133260, Note_on_c, 8, 51, 0
17, 133260, Note_on_c, 8, 51, 123
17, 133260, Note_on_c, 8, 60, 123
17, 133260, Note_on_c, 8, 63, 123
17, 133320, Note_on_c, 8, 63, 0
17, 133320, Note_on_c, 8, 60, 0
17, 133320, Note_on_c, 8, 51, 0
17, 133320, Note_on_c, 8, 51, 123
17, 133320, Note_on_c, 8, 60, 123
17, 133320, Note_on_c, 8, 63, 123
17, 133380, Note_on_c, 8, 63, 0
17, 133380, Note_on_c, 8, 60, 0
17, 133380, Note_on_c, 8, 51, 0
17, 133380, Note_on_c, 8, 51, 123
17, 133380, Note_on_c, 8, 60, 123
17, 133380, Note_on_c, 8, 63, 123
17, 133440, Note_on_c, 8, 63, 0
17, 133440, Note_on_c, 8, 60, 0
17, 133440, Note_on_c, 8, 51, 0
17, 133440, Note_on_c, 8, 51, 123
17, 133440, Note_on_c, 8, 60, 123
17, 133440, Note_on_c, 8, 63, 123
17, 133500, Note_on_c, 8, 63, 0
17, 133500, Note_on_c, 8, 60, 0
17, 133500, Note_on_c, 8, 51, 0
17, 133500, Note_on_c, 8, 51, 123
17, 133500, Note_on_c, 8, 60, 123
17, 133500, Note_on_c, 8, 63, 123
17, 133560, Note_on_c, 8, 63, 0
17, 133560, Note_on_c, 8, 60, 0
17, 133560, Note_on_c, 8, 51, 0
17, 133560, Note_on_c, 8, 51, 123
17, 133560, Note_on_c, 8, 60, 123
17, 133560, Note_on_c, 8, 63, 123
17, 133620, Note_on_c, 8, 63, 0
17, 133620, Note_on_c, 8, 60, 0
17, 133620, Note_on_c, 8, 51, 0
17, 133620, Note_on_c, 8, 51, 123
17, 133620, Note_on_c, 8, 60, 123
17, 133620, Note_on_c, 8, 63, 123
17, 133680, Note_on_c, 8, 63, 0
17, 133680, Note_on_c, 8, 60, 0
17, 133680, Note_on_c, 8, 51, 0
17, 133680, Note_on_c, 8, 51, 123
17, 133680, Note_on_c, 8, 60, 123
17, 133680, Note_on_c, 8, 63, 123
17, 133740, Note_on_c, 8, 63, 0
17, 133740, Note_on_c, 8, 60, 0
17, 133740, Note_on_c, 8, 51, 0
17, 133740, Note_on_c, 8, 51, 123
17, 133740, Note_on_c, 8, 60, 123
17, 133740, Note_on_c, 8, 63, 123
17, 133800, Note_on_c, 8, 63, 0
17, 133800, Note_on_c, 8, 60, 0
17, 133800, Note_on_c, 8, 51, 0
17, 133800, Note_on_c, 8, 51, 123
17, 133800, Note_on_c, 8, 60, 123
17, 133800, Note_on_c, 8, 63, 123
17, 133860, Note_on_c, 8, 63, 0
17, 133860, Note_on_c, 8, 60, 0
17, 133860, Note_on_c, 8, 51, 0
17, 133860, Note_on_c, 8, 51, 123
17, 133860, Note_on_c, 8, 60, 123
17, 133860, Note_on_c, 8, 63, 123
17, 133920, Note_on_c, 8, 63, 0
17, 133920, Note_on_c, 8, 60, 0
17, 133920, Note_on_c, 8, 51, 0
17, 133920, Note_on_c, 8, 53, 123
17, 133920, Note_on_c, 8, 65, 123
17, 133980, Note_on_c, 8, 65, 0
17, 133980, Note_on_c, 8, 53, 0
17, 133980, Note_on_c, 8, 53, 123
17, 133980, Note_on_c, 8, 65, 123
17, 134040, Note_on_c, 8, 65, 0
17, 134040, Note_on_c, 8, 53, 0
17, 134040, Note_on_c, 8, 53, 123
17, 134040, Note_on_c, 8, 65, 123
17, 134100, Note_on_c, 8, 65, 0
17, 134100, Note_on_c, 8, 53, 0
17, 134100, Note_on_c, 8, 53, 123
17, 134100, Note_on_c, 8, 65, 123
17, 134160, Note_on_c, 8, 65, 0
17, 134160, Note_on_c, 8, 53, 0
17, 134160, Note_on_c, 8, 53, 123
17, 134160, Note_on_c, 8, 65, 123
17, 134220, Note_on_c, 8, 65, 0
17, 134220, Note_on_c, 8, 53, 0
17, 134220, Note_on_c, 8, 53, 123
17, 134220, Note_on_c, 8, 65, 123
17, 134280, Note_on_c, 8, 65, 0
17, 134280, Note_on_c, 8, 53, 0
17, 134280, Note_on_c, 8, 53, 123
17, 134280, Note_on_c, 8, 65, 123
17, 134340, Note_on_c, 8, 65, 0
17, 134340, Note_on_c, 8, 53, 0
17, 134340, Note_on_c, 8, 53, 123
17, 134340, Note_on_c, 8, 65, 123
17, 134400, Note_on_c, 8, 65, 0
17, 134400, Note_on_c, 8, 53, 0
17, 134400, Note_on_c, 8, 53, 123
17, 134400, Note_on_c, 8, 65, 123
17, 134460, Note_on_c, 8, 65, 0
17, 134460, Note_on_c, 8, 53, 0
17, 134460, Note_on_c, 8, 53, 123
17, 134460, Note_on_c, 8, 65, 123
17, 134520, Note_on_c, 8, 65, 0
17, 134520, Note_on_c, 8, 53, 0
17, 134520, Note_on_c, 8, 53, 123
17, 134520, Note_on_c, 8, 65, 123
17, 134580, Note_on_c, 8, 65, 0
17, 134580, Note_on_c, 8, 53, 0
17, 134580, Note_on_c, 8, 53, 123
17, 134580, Note_on_c, 8, 65, 123
17, 134640, Note_on_c, 8, 65, 0
17, 134640, Note_on_c, 8, 53, 0
17, 134640, Note_on_c, 8, 58, 123
17, 134640, Note_on_c, 8, 61, 123
17, 134700, Note_on_c, 8, 61, 0
17, 134700, Note_on_c, 8, 58, 0
17, 134700, Note_on_c, 8, 58, 123
17, 134700, Note_on_c, 8, 61, 123
17, 134760, Note_on_c, 8, 61, 0
17, 134760, Note_on_c, 8, 58, 0
17, 134760, Note_on_c, 8, 58, 123
17, 134760, Note_on_c, 8, 61, 123
17, 134820, Note_on_c, 8, 61, 0
17, 134820, Note_on_c, 8, 58, 0
17, 134820, Note_on_c, 8, 58, 123
17, 134820, Note_on_c, 8, 61, 123
17, 134880, Note_on_c, 8, 61, 0
17, 134880, Note_on_c, 8, 58, 0
17, 134880, Note_on_c, 8, 49, 123
17, 134880, Note_on_c, 8, 61, 123
17, 134940, Note_on_c, 8, 61, 0
17, 134940, Note_on_c, 8, 49, 0
17, 134940, Note_on_c, 8, 49, 123
17, 134940, Note_on_c, 8, 61, 123
17, 135000, Note_on_c, 8, 61, 0
17, 135000, Note_on_c, 8, 49, 0
17, 135000, Note_on_c, 8, 49, 123
17, 135000, Note_on_c, 8, 61, 123
17, 135060, Note_on_c, 8, 61, 0
17, 135060, Note_on_c, 8, 49, 0
17, 135060, Note_on_c, 8, 49, 123
17, 135060, Note_on_c, 8, 61, 123
17, 135120, Note_on_c, 8, 61, 0
17, 135120, Note_on_c, 8, 49, 0
17, 135120, Note_on_c, 8, 49, 123
17, 135120, Note_on_c, 8, 61, 123
17, 135180, Note_on_c, 8, 61, 0
17, 135180, Note_on_c, 8, 49, 0
17, 135180, Note_on_c, 8, 49, 123
17, 135180, Note_on_c, 8, 61, 123
17, 135240, Note_on_c, 8, 61, 0
17, 135240, Note_on_c, 8, 49, 0
17, 135240, Note_on_c, 8, 49, 123
17, 135240, Note_on_c, 8, 61, 123
17, 135300, Note_on_c, 8, 61, 0
17, 135300, Note_on_c, 8, 49, 0
17, 135300, Note_on_c, 8, 49, 123
17, 135300, Note_on_c, 8, 61, 123
17, 135360, Note_on_c, 8, 61, 0
17, 135360, Note_on_c, 8, 49, 0
17, 135360, Note_on_c, 8, 48, 123
17, 135360, Note_on_c, 8, 60, 123
17, 135420, Note_on_c, 8, 60, 0
17, 135420, Note_on_c, 8, 48, 0
17, 135420, Note_on_c, 8, 52, 123
17, 135420, Note_on_c, 8, 55, 123
17, 135480, Note_on_c, 8, 55, 0
17, 135480, Note_on_c, 8, 52, 0
17, 135480, Note_on_c, 8, 52, 123
17, 135480, Note_on_c, 8, 55, 123
17, 135540, Note_on_c, 8, 55, 0
17, 135540, Note_on_c, 8, 52, 0
17, 135540, Note_on_c, 8, 52, 123
17, 135540, Note_on_c, 8, 55, 123
17, 135600, Note_on_c, 8, 55, 0
17, 135600, Note_on_c, 8, 52, 0
17, 135600, Note_on_c, 8, 52, 123
17, 135600, Note_on_c, 8, 55, 123
17, 135660, Note_on_c, 8, 55, 0
17, 135660, Note_on_c, 8, 52, 0
17, 135660, Note_on_c, 8, 52, 123
17, 135660, Note_on_c, 8, 55, 123
17, 135720, Note_on_c, 8, 55, 0
17, 135720, Note_on_c, 8, 52, 0
17, 135720, Note_on_c, 8, 52, 123
17, 135720, Note_on_c, 8, 55, 123
17, 135780, Note_on_c, 8, 55, 0
17, 135780, Note_on_c, 8, 52, 0
17, 135780, Note_on_c, 8, 52, 123
17, 135780, Note_on_c, 8, 55, 123
17, 135840, Note_on_c, 8, 55, 0
17, 135840, Note_on_c, 8, 52, 0
17, 135840, Note_on_c, 8, 52, 123
17, 135840, Note_on_c, 8, 55, 123
17, 135900, Note_on_c, 8, 55, 0
17, 135900, Note_on_c, 8, 52, 0
17, 135900, Note_on_c, 8, 55, 123
17, 135900, Note_on_c, 8, 60, 123
17, 135960, Note_on_c, 8, 60, 0
17, 135960, Note_on_c, 8, 55, 0
17, 135960, Note_on_c, 8, 55, 123
17, 135960, Note_on_c, 8, 60, 123
17, 136020, Note_on_c, 8, 60, 0
17, 136020, Note_on_c, 8, 55, 0
17, 136020, Note_on_c, 8, 55, 123
17, 136020, Note_on_c, 8, 60, 123
17, 136080, Note_on_c, 8, 60, 0
17, 136080, Note_on_c, 8, 55, 0
17, 136080, Note_on_c, 8, 57, 123
17, 136080, Note_on_c, 8, 60, 123
17, 136140, Note_on_c, 8, 60, 0
17, 136140, Note_on_c, 8, 57, 0
17, 136140, Note_on_c, 8, 53, 123
17, 136140, Note_on_c, 8, 57, 123
17, 136200, Note_on_c, 8, 57, 0
17, 136200, Note_on_c, 8, 53, 0
17, 136200, Note_on_c, 8, 53, 123
17, 136200, Note_on_c, 8, 57, 123
17, 136260, Note_on_c, 8, 57, 0
17, 136260, Note_on_c, 8, 53, 0
17, 136260, Note_on_c, 8, 53, 123
17, 136260, Note_on_c, 8, 57, 123
17, 136320, Note_on_c, 8, 57, 0
17, 136320, Note_on_c, 8, 53, 0
17, 136320, Note_on_c, 8, 53, 123
17, 136320, Note_on_c, 8, 65, 123
17, 136380, Note_on_c, 8, 65, 0
17, 136380, Note_on_c, 8, 53, 0
17, 136380, Note_on_c, 8, 53, 123
17, 136380, Note_on_c, 8, 65, 123
17, 136440, Note_on_c, 8, 65, 0
17, 136440, Note_on_c, 8, 53, 0
17, 136440, Note_on_c, 8, 53, 123
17, 136440, Note_on_c, 8, 65, 123
17, 136500, Note_on_c, 8, 65, 0
17, 136500, Note_on_c, 8, 53, 0
17, 136500, Note_on_c, 8, 53, 123
17, 136500, Note_on_c, 8, 65, 123
17, 136560, Note_on_c, 8, 65, 0
17, 136560, Note_on_c, 8, 53, 0
17, 136560, Note_on_c, 8, 49, 123
17, 136560, Note_on_c, 8, 61, 123
17, 136620, Note_on_c, 8, 61, 0
17, 136620, Note_on_c, 8, 49, 0
17, 136620, Note_on_c, 8, 49, 123
17, 136620, Note_on_c, 8, 61, 123
17, 136680, Note_on_c, 8, 61, 0
17, 136680, Note_on_c, 8, 49, 0
17, 136680, Note_on_c, 8, 49, 123
17, 136680, Note_on_c, 8, 61, 123
17, 136740, Note_on_c, 8, 61, 0
17, 136740, Note_on_c, 8, 49, 0
17, 136740, Note_on_c, 8, 49, 123
17, 136740, Note_on_c, 8, 61, 123
17, 136800, Note_on_c, 8, 61, 0
17, 136800, Note_on_c, 8, 49, 0
17, 136800, Note_on_c, 8, 51, 123
17, 136800, Note_on_c, 8, 63, 123
17, 136860, Note_on_c, 8, 63, 0
17, 136860, Note_on_c, 8, 51, 0
17, 136860, Note_on_c, 8, 51, 123
17, 136860, Note_on_c, 8, 63, 123
17, 136920, Note_on_c, 8, 63, 0
17, 136920, Note_on_c, 8, 51, 0
17, 136920, Note_on_c, 8, 51, 123
17, 136920, Note_on_c, 8, 63, 123
17, 136980, Note_on_c, 8, 63, 0
17, 136980, Note_on_c, 8, 51, 0
17, 136980, Note_on_c, 8, 51, 123
17, 136980, Note_on_c, 8, 63, 123
17, 137040, Note_on_c, 8, 63, 0
17, 137040, Note_on_c, 8, 51, 0
17, 137040, Note_on_c, 8, 51, 123
17, 137040, Note_on_c, 8, 63, 123
17, 137100, Note_on_c, 8, 63, 0
17, 137100, Note_on_c, 8, 51, 0
17, 137100, Note_on_c, 8, 51, 123
17, 137100, Note_on_c, 8, 63, 123
17, 137160, Note_on_c, 8, 63, 0
17, 137160, Note_on_c, 8, 51, 0
17, 137160, Note_on_c, 8, 51, 123
17, 137160, Note_on_c, 8, 63, 123
17, 137220, Note_on_c, 8, 63, 0
17, 137220, Note_on_c, 8, 51, 0
17, 137220, Note_on_c, 8, 51, 123
17, 137220, Note_on_c, 8, 63, 123
17, 137280, Note_on_c, 8, 63, 0
17, 137280, Note_on_c, 8, 51, 0
17, 137280, Note_on_c, 8, 48, 123
17, 137280, Note_on_c, 8, 60, 123
17, 137340, Note_on_c, 8, 60, 0
17, 137340, Note_on_c, 8, 48, 0
17, 137340, Note_on_c, 8, 48, 123
17, 137340, Note_on_c, 8, 60, 123
17, 137400, Note_on_c, 8, 60, 0
17, 137400, Note_on_c, 8, 48, 0
17, 137400, Note_on_c, 8, 48, 123
17, 137400, Note_on_c, 8, 60, 123
17, 137460, Note_on_c, 8, 60, 0
17, 137460, Note_on_c, 8, 48, 0
17, 137460, Note_on_c, 8, 48, 123
17, 137460, Note_on_c, 8, 60, 123
17, 137520, Note_on_c, 8, 60, 0
17, 137520, Note_on_c, 8, 48, 0
17, 137520, Note_on_c, 8, 51, 123
17, 137520, Note_on_c, 8, 55, 123
17, 137520, Note_on_c, 8, 58, 123
17, 137520, Note_on_c, 8, 63, 123
17, 137580, Note_on_c, 8, 63, 0
17, 137580, Note_on_c, 8, 51, 0
17, 137580, Note_on_c, 8, 55, 0
17, 137580, Note_on_c, 8, 58, 0
17, 137580, Note_on_c, 8, 51, 123
17, 137580, Note_on_c, 8, 55, 123
17, 137580, Note_on_c, 8, 58, 123
17, 137580, Note_on_c, 8, 63, 123
17, 137640, Note_on_c, 8, 63, 0
17, 137640, Note_on_c, 8, 51, 0
17, 137640, Note_on_c, 8, 55, 0
17, 137640, Note_on_c, 8, 58, 0
17, 137640, Note_on_c, 8, 51, 123
17, 137640, Note_on_c, 8, 55, 123
17, 137640, Note_on_c, 8, 58, 123
17, 137640, Note_on_c, 8, 63, 123
17, 137700, Note_on_c, 8, 63, 0
17, 137700, Note_on_c, 8, 51, 0
17, 137700, Note_on_c, 8, 55, 0
17, 137700, Note_on_c, 8, 58, 0
17, 137700, Note_on_c, 8, 51, 123
17, 137700, Note_on_c, 8, 55, 123
17, 137700, Note_on_c, 8, 58, 123
17, 137700, Note_on_c, 8, 63, 123
17, 137760, Note_on_c, 8, 63, 0
17, 137760, Note_on_c, 8, 51, 0
17, 137760, Note_on_c, 8, 55, 0
17, 137760, Note_on_c, 8, 58, 0
17, 137760, Note_on_c, 8, 51, 123
17, 137760, Note_on_c, 8, 55, 123
17, 137760, Note_on_c, 8, 58, 123
17, 137760, Note_on_c, 8, 63, 123
17, 137820, Note_on_c, 8, 63, 0
17, 137820, Note_on_c, 8, 51, 0
17, 137820, Note_on_c, 8, 55, 0
17, 137820, Note_on_c, 8, 58, 0
17, 137820, Note_on_c, 8, 51, 123
17, 137820, Note_on_c, 8, 55, 123
17, 137820, Note_on_c, 8, 58, 123
17, 137820, Note_on_c, 8, 63, 123
17, 137880, Note_on_c, 8, 63, 0
17, 137880, Note_on_c, 8, 51, 0
17, 137880, Note_on_c, 8, 55, 0
17, 137880, Note_on_c, 8, 58, 0
17, 137880, Note_on_c, 8, 51, 123
17, 137880, Note_on_c, 8, 55, 123
17, 137880, Note_on_c, 8, 58, 123
17, 137880, Note_on_c, 8, 63, 123
17, 137940, Note_on_c, 8, 63, 0
17, 137940, Note_on_c, 8, 51, 0
17, 137940, Note_on_c, 8, 55, 0
17, 137940, Note_on_c, 8, 58, 0
17, 137940, Note_on_c, 8, 51, 123
17, 137940, Note_on_c, 8, 55, 123
17, 137940, Note_on_c, 8, 58, 123
17, 137940, Note_on_c, 8, 63, 123
17, 138000, Note_on_c, 8, 63, 0
17, 138000, Note_on_c, 8, 51, 0
17, 138000, Note_on_c, 8, 55, 0
17, 138000, Note_on_c, 8, 58, 0
17, 138000, Note_on_c, 8, 51, 123
17, 138000, Note_on_c, 8, 55, 123
17, 138000, Note_on_c, 8, 58, 123
17, 138000, Note_on_c, 8, 63, 123
17, 138060, Note_on_c, 8, 63, 0
17, 138060, Note_on_c, 8, 51, 0
17, 138060, Note_on_c, 8, 55, 0
17, 138060, Note_on_c, 8, 58, 0
17, 138060, Note_on_c, 8, 51, 123
17, 138060, Note_on_c, 8, 55, 123
17, 138060, Note_on_c, 8, 58, 123
17, 138060, Note_on_c, 8, 63, 123
17, 138120, Note_on_c, 8, 63, 0
17, 138120, Note_on_c, 8, 51, 0
17, 138120, Note_on_c, 8, 55, 0
17, 138120, Note_on_c, 8, 58, 0
17, 138120, Note_on_c, 8, 51, 123
17, 138120, Note_on_c, 8, 55, 123
17, 138120, Note_on_c, 8, 58, 123
17, 138120, Note_on_c, 8, 63, 123
17, 138180, Note_on_c, 8, 63, 0
17, 138180, Note_on_c, 8, 51, 0
17, 138180, Note_on_c, 8, 55, 0
17, 138180, Note_on_c, 8, 58, 0
17, 138180, Note_on_c, 8, 51, 123
17, 138180, Note_on_c, 8, 55, 123
17, 138180, Note_on_c, 8, 58, 123
17, 138180, Note_on_c, 8, 63, 123
17, 138240, Note_on_c, 8, 63, 0
17, 138240, Note_on_c, 8, 51, 0
17, 138240, Note_on_c, 8, 55, 0
17, 138240, Note_on_c, 8, 58, 0
17, 138240, Note_on_c, 8, 56, 123
17, 138240, Note_on_c, 8, 60, 123
17, 138240, Note_on_c, 8, 63, 123
17, 138300, Note_on_c, 8, 63, 0
17, 138300, Note_on_c, 8, 60, 0
17, 138300, Note_on_c, 8, 56, 0
17, 138300, Note_on_c, 8, 51, 123
17, 138300, Note_on_c, 8, 56, 123
17, 138360, Note_on_c, 8, 56, 0
17, 138360, Note_on_c, 8, 51, 0
17, 138360, Note_on_c, 8, 51, 123
17, 138360, Note_on_c, 8, 56, 123
17, 138420, Note_on_c, 8, 56, 0
17, 138420, Note_on_c, 8, 51, 0
17, 138420, Note_on_c, 8, 51, 123
17, 138420, Note_on_c, 8, 56, 123
17, 138480, Note_on_c, 8, 56, 0
17, 138480, Note_on_c, 8, 51, 0
17, 138480, Note_on_c, 8, 51, 123
17, 138480, Note_on_c, 8, 56, 123
17, 138540, Note_on_c, 8, 56, 0
17, 138540, Note_on_c, 8, 51, 0
17, 138540, Note_on_c, 8, 51, 123
17, 138540, Note_on_c, 8, 56, 123
17, 138600, Note_on_c, 8, 56, 0
17, 138600, Note_on_c, 8, 51, 0
17, 138600, Note_on_c, 8, 51, 123
17, 138600, Note_on_c, 8, 56, 123
17, 138660, Note_on_c, 8, 56, 0
17, 138660, Note_on_c, 8, 51, 0
17, 138660, Note_on_c, 8, 51, 123
17, 138660, Note_on_c, 8, 56, 123
17, 138720, Note_on_c, 8, 56, 0
17, 138720, Note_on_c, 8, 51, 0
17, 138720, Note_on_c, 8, 51, 123
17, 138720, Note_on_c, 8, 56, 123
17, 138780, Note_on_c, 8, 56, 0
17, 138780, Note_on_c, 8, 51, 0
17, 138780, Note_on_c, 8, 51, 123
17, 138780, Note_on_c, 8, 56, 123
17, 138840, Note_on_c, 8, 56, 0
17, 138840, Note_on_c, 8, 51, 0
17, 138840, Note_on_c, 8, 51, 123
17, 138840, Note_on_c, 8, 56, 123
17, 138900, Note_on_c, 8, 56, 0
17, 138900, Note_on_c, 8, 51, 0
17, 138900, Note_on_c, 8, 51, 123
17, 138900, Note_on_c, 8, 56, 123
17, 138960, Note_on_c, 8, 56, 0
17, 138960, Note_on_c, 8, 51, 0
17, 138960, Note_on_c, 8, 51, 123
17, 138960, Note_on_c, 8, 55, 123
17, 139020, Note_on_c, 8, 55, 0
17, 139020, Note_on_c, 8, 51, 0
17, 139020, Note_on_c, 8, 51, 123
17, 139020, Note_on_c, 8, 55, 123
17, 139080, Note_on_c, 8, 55, 0
17, 139080, Note_on_c, 8, 51, 0
17, 139080, Note_on_c, 8, 51, 123
17, 139080, Note_on_c, 8, 55, 123
17, 139140, Note_on_c, 8, 55, 0
17, 139140, Note_on_c, 8, 51, 0
17, 139140, Note_on_c, 8, 51, 123
17, 139140, Note_on_c, 8, 55, 123
17, 139200, Note_on_c, 8, 55, 0
17, 139200, Note_on_c, 8, 51, 0
17, 139200, Note_on_c, 8, 51, 123
17, 139200, Note_on_c, 8, 55, 123
17, 139260, Note_on_c, 8, 55, 0
17, 139260, Note_on_c, 8, 51, 0
17, 139260, Note_on_c, 8, 51, 123
17, 139260, Note_on_c, 8, 55, 123
17, 139320, Note_on_c, 8, 55, 0
17, 139320, Note_on_c, 8, 51, 0
17, 139320, Note_on_c, 8, 51, 123
17, 139320, Note_on_c, 8, 55, 123
17, 139380, Note_on_c, 8, 55, 0
17, 139380, Note_on_c, 8, 51, 0
17, 139380, Note_on_c, 8, 51, 123
17, 139380, Note_on_c, 8, 55, 123
17, 139440, Note_on_c, 8, 55, 0
17, 139440, Note_on_c, 8, 51, 0
17, 139440, Note_on_c, 8, 51, 123
17, 139440, Note_on_c, 8, 55, 123
17, 139500, Note_on_c, 8, 55, 0
17, 139500, Note_on_c, 8, 51, 0
17, 139500, Note_on_c, 8, 51, 123
17, 139500, Note_on_c, 8, 55, 123
17, 139560, Note_on_c, 8, 55, 0
17, 139560, Note_on_c, 8, 51, 0
17, 139560, Note_on_c, 8, 51, 123
17, 139560, Note_on_c, 8, 55, 123
17, 139620, Note_on_c, 8, 55, 0
17, 139620, Note_on_c, 8, 51, 0
17, 139620, Note_on_c, 8, 51, 123
17, 139620, Note_on_c, 8, 55, 123
17, 139680, Note_on_c, 8, 55, 0
17, 139680, Note_on_c, 8, 51, 0
17, 139680, Note_on_c, 8, 56, 123
17, 139740, Note_on_c, 8, 56, 0
17, 139740, Note_on_c, 8, 56, 123
17, 139800, Note_on_c, 8, 56, 0
17, 139800, Note_on_c, 8, 58, 123
17, 139860, Note_on_c, 8, 58, 0
17, 139860, Note_on_c, 8, 48, 123
17, 139920, Note_on_c, 8, 48, 0
17, 139920, Note_on_c, 8, 49, 123
17, 139980, Note_on_c, 8, 49, 0
17, 139980, Note_on_c, 8, 51, 123
17, 140040, Note_on_c, 8, 51, 0
17, 140040, Note_on_c, 8, 53, 123
17, 140100, Note_on_c, 8, 53, 0
17, 140100, Note_on_c, 8, 55, 123
17, 140160, Note_on_c, 8, 55, 0
17, 140160, Note_on_c, 8, 56, 123
17, 140220, Note_on_c, 8, 56, 0
17, 140220, Note_on_c, 8, 58, 123
17, 140280, Note_on_c, 8, 58, 0
17, 140280, Note_on_c, 8, 60, 123
17, 140340, Note_on_c, 8, 60, 0
17, 140340, Note_on_c, 8, 61, 123
17, 140400, Note_on_c, 8, 61, 0
17, 140400, Note_on_c, 8, 63, 123
17, 140640, Note_on_c, 8, 63, 0
17, 143640, Note_on_c, 8, 56, 91
17, 143760, Note_on_c, 8, 56, 0
17, 143760, Note_on_c, 8, 60, 91
17, 143880, Note_on_c, 8, 60, 0
17, 143880, Note_on_c, 8, 63, 91
17, 144000, Note_on_c, 8, 63, 0
17, 144000, Note_on_c, 8, 63, 91
17, 144120, Note_on_c, 8, 63, 0
17, 144120, Note_on_c, 8, 61, 91
17, 144240, Note_on_c, 8, 61, 0
17, 144240, Note_on_c, 8, 60, 91
17, 144600, Note_on_c, 8, 60, 0
17, 144600, Note_on_c, 8, 60, 91
17, 144720, Note_on_c, 8, 60, 0
17, 144720, Note_on_c, 8, 60, 91
17, 144840, Note_on_c, 8, 60, 0
17, 144840, Note_on_c, 8, 58, 91
17, 144960, Note_on_c, 8, 58, 0
17, 144960, Note_on_c, 8, 56, 91
17, 145320, Note_on_c, 8, 56, 0
17, 145320, Note_on_c, 8, 56, 91
17, 145440, Note_on_c, 8, 56, 0
17, 145440, Note_on_c, 8, 58, 91
17, 145680, Note_on_c, 8, 58, 0
17, 145680, Note_on_c, 8, 58, 91
17, 145920, Note_on_c, 8, 58, 0
17, 145920, Note_on_c, 8, 58, 91
17, 146100, Note_on_c, 8, 58, 0
17, 146100, Note_on_c, 8, 55, 91
17, 146160, Note_on_c, 8, 55, 0
17, 146160, Note_on_c, 8, 56, 91
17, 146400, Note_on_c, 8, 56, 0
17, 146640, Note_on_c, 8, 58, 91
17, 146820, Note_on_c, 8, 58, 0
17, 146820, Note_on_c, 8, 55, 91
17, 146880, Note_on_c, 8, 55, 0
17, 146880, Note_on_c, 8, 56, 91
17, 147120, Note_on_c, 8, 56, 0
17, 147360, Note_on_c, 8, 49, 91
17, 147440, Note_on_c, 8, 49, 0
17, 147440, Note_on_c, 8, 48, 91
17, 147520, Note_on_c, 8, 48, 0
17, 147520, Note_on_c, 8, 49, 91
17, 147600, Note_on_c, 8, 49, 0
17, 147600, Note_on_c, 8, 48, 91
17, 147720, Note_on_c, 8, 48, 0
17, 147720, Note_on_c, 8, 60, 78
17, 147840, Note_on_c, 8, 60, 0
17, 147960, Note_on_c, 8, 60, 78
17, 148080, Note_on_c, 8, 60, 0
17, 148200, Note_on_c, 8, 60, 78
17, 148320, Note_on_c, 8, 60, 0
17, 148440, Note_on_c, 8, 60, 78
17, 148560, Note_on_c, 8, 60, 0
17, 148680, Note_on_c, 8, 60, 78
17, 148800, Note_on_c, 8, 60, 0
17, 148920, Note_on_c, 8, 60, 78
17, 149040, Note_on_c, 8, 60, 0
17, 149160, Note_on_c, 8, 61, 78
17, 149280, Note_on_c, 8, 61, 0
17, 149400, Note_on_c, 8, 61, 78
17, 149520, Note_on_c, 8, 61, 0
17, 149640, Note_on_c, 8, 61, 78
17, 149760, Note_on_c, 8, 61, 0
17, 149880, Note_on_c, 8, 61, 78
17, 150000, Note_on_c, 8, 61, 0
17, 150120, Note_on_c, 8, 61, 78
17, 150240, Note_on_c, 8, 61, 0
17, 150360, Note_on_c, 8, 61, 78
17, 150480, Note_on_c, 8, 61, 0
17, 150600, Note_on_c, 8, 60, 78
17, 150720, Note_on_c, 8, 60, 0
17, 150840, Note_on_c, 8, 60, 78
17, 150960, Note_on_c, 8, 60, 0
17, 150960, Note_on_c, 8, 51, 78
17, 151080, Note_on_c, 8, 51, 0
17, 151080, Note_on_c, 8, 53, 78
17, 151200, Note_on_c, 8, 53, 0
17, 151200, Note_on_c, 8, 54, 78
17, 151320, Note_on_c, 8, 54, 0
17, 151320, Note_on_c, 8, 53, 78
17, 151440, Note_on_c, 8, 53, 0
17, 151440, Note_on_c, 8, 51, 78
17, 151560, Note_on_c, 8, 51, 0
17, 151560, Note_on_c, 8, 53, 78
17, 151680, Note_on_c, 8, 53, 0
17, 151680, Note_on_c, 8, 54, 78
17, 151800, Note_on_c, 8, 54, 0
17, 151800, Note_on_c, 8, 51, 78
17, 151920, Note_on_c, 8, 51, 0
17, 151920, Note_on_c, 8, 53, 78
17, 152040, Note_on_c, 8, 53, 0
17, 152040, Note_on_c, 8, 51, 78
17, 152160, Note_on_c, 8, 51, 0
17, 152160, Note_on_c, 8, 49, 78
17, 152280, Note_on_c, 8, 49, 0
17, 152280, Note_on_c, 8, 51, 78
17, 152400, Note_on_c, 8, 51, 0
17, 152400, Note_on_c, 8, 53, 78
17, 152520, Note_on_c, 8, 53, 0
17, 152520, Note_on_c, 8, 49, 78
17, 152640, Note_on_c, 8, 49, 0
17, 152640, Note_on_c, 8, 52, 78
17, 152760, Note_on_c, 8, 52, 0
17, 152760, Note_on_c, 8, 51, 78
17, 152880, Note_on_c, 8, 51, 0
17, 152880, Note_on_c, 8, 49, 78
17, 153000, Note_on_c, 8, 49, 0
17, 153000, Note_on_c, 8, 51, 78
17, 153120, Note_on_c, 8, 51, 0
17, 153120, Note_on_c, 8, 52, 78
17, 153240, Note_on_c, 8, 52, 0
17, 153240, Note_on_c, 8, 49, 78
17, 153360, Note_on_c, 8, 49, 0
17, 153360, Note_on_c, 8, 51, 78
17, 153420, Note_on_c, 8, 51, 0
17, 153420, Note_on_c, 8, 51, 78
17, 153420, Note_on_c, 8, 56, 78
17, 153480, Note_on_c, 8, 56, 0
17, 153480, Note_on_c, 8, 51, 0
17, 153480, Note_on_c, 8, 51, 78
17, 153480, Note_on_c, 8, 56, 78
17, 153540, Note_on_c, 8, 56, 0
17, 153540, Note_on_c, 8, 51, 0
17, 153540, Note_on_c, 8, 51, 78
17, 153540, Note_on_c, 8, 56, 78
17, 153600, Note_on_c, 8, 56, 0
17, 153600, Note_on_c, 8, 51, 0
17, 153600, Note_on_c, 8, 51, 101
17, 153600, Note_on_c, 8, 56, 101
17, 153660, Note_on_c, 8, 56, 0
17, 153660, Note_on_c, 8, 51, 0
17, 153660, Note_on_c, 8, 51, 101
17, 153660, Note_on_c, 8, 56, 101
17, 153720, Note_on_c, 8, 56, 0
17, 153720, Note_on_c, 8, 51, 0
17, 153720, Note_on_c, 8, 51, 101
17, 153720, Note_on_c, 8, 56, 101
17, 153780, Note_on_c, 8, 56, 0
17, 153780, Note_on_c, 8, 51, 0
17, 153780, Note_on_c, 8, 51, 101
17, 153780, Note_on_c, 8, 56, 101
17, 153840, Note_on_c, 8, 56, 0
17, 153840, Note_on_c, 8, 51, 0
17, 153840, Note_on_c, 8, 51, 101
17, 153840, Note_on_c, 8, 56, 101
17, 153900, Note_on_c, 8, 56, 0
17, 153900, Note_on_c, 8, 51, 0
17, 153900, Note_on_c, 8, 51, 101
17, 153900, Note_on_c, 8, 56, 101
17, 153960, Note_on_c, 8, 56, 0
17, 153960, Note_on_c, 8, 51, 0
17, 153960, Note_on_c, 8, 51, 109
17, 153960, Note_on_c, 8, 56, 109
17, 154020, Note_on_c, 8, 56, 0
17, 154020, Note_on_c, 8, 51, 0
17, 154020, Note_on_c, 8, 51, 109
17, 154020, Note_on_c, 8, 56, 109
17, 154080, Note_on_c, 8, 56, 0
17, 154080, Note_on_c, 8, 51, 0
17, 154080, Note_on_c, 8, 51, 109
17, 154080, Note_on_c, 8, 56, 109
17, 154140, Note_on_c, 8, 56, 0
17, 154140, Note_on_c, 8, 51, 0
17, 154140, Note_on_c, 8, 51, 109
17, 154140, Note_on_c, 8, 56, 109
17, 154200, Note_on_c, 8, 56, 0
17, 154200, Note_on_c, 8, 51, 0
17, 154200, Note_on_c, 8, 51, 109
17, 154200, Note_on_c, 8, 56, 109
17, 154260, Note_on_c, 8, 56, 0
17, 154260, Note_on_c, 8, 51, 0
17, 154260, Note_on_c, 8, 51, 109
17, 154260, Note_on_c, 8, 56, 109
17, 154320, Note_on_c, 8, 56, 0
17, 154320, Note_on_c, 8, 51, 0
17, 154320, Note_on_c, 8, 51, 109
17, 154320, Note_on_c, 8, 56, 109
17, 154380, Note_on_c, 8, 56, 0
17, 154380, Note_on_c, 8, 51, 0
17, 154380, Note_on_c, 8, 51, 109
17, 154380, Note_on_c, 8, 56, 109
17, 154440, Note_on_c, 8, 56, 0
17, 154440, Note_on_c, 8, 51, 0
17, 154440, Note_on_c, 8, 51, 109
17, 154440, Note_on_c, 8, 56, 109
17, 154500, Note_on_c, 8, 56, 0
17, 154500, Note_on_c, 8, 51, 0
17, 154500, Note_on_c, 8, 51, 109
17, 154500, Note_on_c, 8, 56, 109
17, 154560, Note_on_c, 8, 56, 0
17, 154560, Note_on_c, 8, 51, 0
17, 154560, Note_on_c, 8, 51, 115
17, 154560, Note_on_c, 8, 55, 115
17, 154620, Note_on_c, 8, 55, 0
17, 154620, Note_on_c, 8, 51, 0
17, 154620, Note_on_c, 8, 51, 115
17, 154620, Note_on_c, 8, 55, 115
17, 154680, Note_on_c, 8, 55, 0
17, 154680, Note_on_c, 8, 51, 0
17, 154680, Note_on_c, 8, 51, 115
17, 154680, Note_on_c, 8, 55, 115
17, 154740, Note_on_c, 8, 55, 0
17, 154740, Note_on_c, 8, 51, 0
17, 154740, Note_on_c, 8, 51, 115
17, 154740, Note_on_c, 8, 55, 115
17, 154800, Note_on_c, 8, 55, 0
17, 154800, Note_on_c, 8, 51, 0
17, 154800, Note_on_c, 8, 51, 115
17, 154800, Note_on_c, 8, 56, 115
17, 154860, Note_on_c, 8, 56, 0
17, 154860, Note_on_c, 8, 51, 0
17, 154860, Note_on_c, 8, 51, 115
17, 154860, Note_on_c, 8, 56, 115
17, 154920, Note_on_c, 8, 56, 0
17, 154920, Note_on_c, 8, 51, 0
17, 154920, Note_on_c, 8, 51, 115
17, 154920, Note_on_c, 8, 56, 115
17, 154980, Note_on_c, 8, 56, 0
17, 154980, Note_on_c, 8, 51, 0
17, 154980, Note_on_c, 8, 51, 115
17, 154980, Note_on_c, 8, 56, 115
17, 155040, Note_on_c, 8, 56, 0
17, 155040, Note_on_c, 8, 51, 0
17, 155040, Note_on_c, 8, 51, 91
17, 155040, Note_on_c, 8, 56, 91
17, 155100, Note_on_c, 8, 56, 0
17, 155100, Note_on_c, 8, 51, 0
17, 155100, Note_on_c, 8, 51, 91
17, 155100, Note_on_c, 8, 56, 91
17, 155160, Note_on_c, 8, 56, 0
17, 155160, Note_on_c, 8, 51, 0
17, 155160, Note_on_c, 8, 51, 91
17, 155160, Note_on_c, 8, 56, 91
17, 155220, Note_on_c, 8, 56, 0
17, 155220, Note_on_c, 8, 51, 0
17, 155220, Note_on_c, 8, 51, 91
17, 155220, Note_on_c, 8, 56, 91
17, 155280, Note_on_c, 8, 56, 0
17, 155280, Note_on_c, 8, 51, 0
17, 155280, Note_on_c, 8, 51, 91
17, 155280, Note_on_c, 8, 56, 91
17, 155340, Note_on_c, 8, 56, 0
17, 155340, Note_on_c, 8, 51, 0
17, 155340, Note_on_c, 8, 51, 91
17, 155340, Note_on_c, 8, 56, 91
17, 155400, Note_on_c, 8, 56, 0
17, 155400, Note_on_c, 8, 51, 0
17, 155400, Note_on_c, 8, 51, 91
17, 155400, Note_on_c, 8, 56, 91
17, 155460, Note_on_c, 8, 56, 0
17, 155460, Note_on_c, 8, 51, 0
17, 155460, Note_on_c, 8, 51, 91
17, 155460, Note_on_c, 8, 56, 91
17, 155520, Note_on_c, 8, 56, 0
17, 155520, Note_on_c, 8, 51, 0
17, 155520, Note_on_c, 8, 51, 101
17, 155520, Note_on_c, 8, 56, 101
17, 155580, Note_on_c, 8, 56, 0
17, 155580, Note_on_c, 8, 51, 0
17, 155580, Note_on_c, 8, 51, 101
17, 155580, Note_on_c, 8, 56, 101
17, 155640, Note_on_c, 8, 56, 0
17, 155640, Note_on_c, 8, 51, 0
17, 155640, Note_on_c, 8, 51, 101
17, 155640, Note_on_c, 8, 56, 101
17, 155700, Note_on_c, 8, 56, 0
17, 155700, Note_on_c, 8, 51, 0
17, 155700, Note_on_c, 8, 51, 101
17, 155700, Note_on_c, 8, 56, 101
17, 155760, Note_on_c, 8, 56, 0
17, 155760, Note_on_c, 8, 51, 0
17, 155760, Note_on_c, 8, 51, 109
17, 155760, Note_on_c, 8, 56, 109
17, 155820, Note_on_c, 8, 56, 0
17, 155820, Note_on_c, 8, 51, 0
17, 155820, Note_on_c, 8, 51, 109
17, 155820, Note_on_c, 8, 56, 109
17, 155880, Note_on_c, 8, 56, 0
17, 155880, Note_on_c, 8, 51, 0
17, 155880, Note_on_c, 8, 51, 109
17, 155880, Note_on_c, 8, 56, 109
17, 155940, Note_on_c, 8, 56, 0
17, 155940, Note_on_c, 8, 51, 0
17, 155940, Note_on_c, 8, 51, 109
17, 155940, Note_on_c, 8, 56, 109
17, 156000, Note_on_c, 8, 56, 0
17, 156000, Note_on_c, 8, 51, 0
17, 156000, Note_on_c, 8, 51, 115
17, 156000, Note_on_c, 8, 55, 115
17, 156060, Note_on_c, 8, 55, 0
17, 156060, Note_on_c, 8, 51, 0
17, 156060, Note_on_c, 8, 51, 115
17, 156060, Note_on_c, 8, 55, 115
17, 156120, Note_on_c, 8, 55, 0
17, 156120, Note_on_c, 8, 51, 0
17, 156120, Note_on_c, 8, 51, 115
17, 156120, Note_on_c, 8, 55, 115
17, 156180, Note_on_c, 8, 55, 0
17, 156180, Note_on_c, 8, 51, 0
17, 156180, Note_on_c, 8, 51, 115
17, 156180, Note_on_c, 8, 55, 115
17, 156240, Note_on_c, 8, 55, 0
17, 156240, Note_on_c, 8, 51, 0
17, 156240, Note_on_c, 8, 51, 115
17, 156240, Note_on_c, 8, 56, 115
17, 156300, Note_on_c, 8, 56, 0
17, 156300, Note_on_c, 8, 51, 0
17, 156300, Note_on_c, 8, 51, 115
17, 156300, Note_on_c, 8, 56, 115
17, 156360, Note_on_c, 8, 56, 0
17, 156360, Note_on_c, 8, 51, 0
17, 156360, Note_on_c, 8, 51, 115
17, 156360, Note_on_c, 8, 56, 115
17, 156420, Note_on_c, 8, 56, 0
17, 156420, Note_on_c, 8, 51, 0
17, 156420, Note_on_c, 8, 51, 115
17, 156420, Note_on_c, 8, 56, 115
17, 156480, Note_on_c, 8, 56, 0
17, 156480, Note_on_c, 8, 51, 0
17, 156480, Note_on_c, 8, 51, 91
17, 156480, Note_on_c, 8, 56, 91
17, 156540, Note_on_c, 8, 56, 0
17, 156540, Note_on_c, 8, 51, 0
17, 156540, Note_on_c, 8, 51, 91
17, 156540, Note_on_c, 8, 56, 91
17, 156600, Note_on_c, 8, 56, 0
17, 156600, Note_on_c, 8, 51, 0
17, 156600, Note_on_c, 8, 51, 101
17, 156600, Note_on_c, 8, 56, 101
17, 156660, Note_on_c, 8, 56, 0
17, 156660, Note_on_c, 8, 51, 0
17, 156660, Note_on_c, 8, 51, 101
17, 156660, Note_on_c, 8, 56, 101
17, 156720, Note_on_c, 8, 56, 0
17, 156720, Note_on_c, 8, 51, 0
17, 156720, Note_on_c, 8, 51, 109
17, 156720, Note_on_c, 8, 56, 109
17, 156780, Note_on_c, 8, 56, 0
17, 156780, Note_on_c, 8, 51, 0
17, 156780, Note_on_c, 8, 51, 109
17, 156780, Note_on_c, 8, 56, 109
17, 156840, Note_on_c, 8, 56, 0
17, 156840, Note_on_c, 8, 51, 0
17, 156840, Note_on_c, 8, 51, 115
17, 156840, Note_on_c, 8, 56, 115
17, 156900, Note_on_c, 8, 56, 0
17, 156900, Note_on_c, 8, 51, 0
17, 156900, Note_on_c, 8, 51, 115
17, 156900, Note_on_c, 8, 56, 115
17, 156960, Note_on_c, 8, 56, 0
17, 156960, Note_on_c, 8, 51, 0
17, 156960, Note_on_c, 8, 51, 123
17, 156960, Note_on_c, 8, 56, 123
17, 157020, Note_on_c, 8, 56, 0
17, 157020, Note_on_c, 8, 51, 0
17, 157020, Note_on_c, 8, 51, 123
17, 157020, Note_on_c, 8, 56, 123
17, 157080, Note_on_c, 8, 56, 0
17, 157080, Note_on_c, 8, 51, 0
17, 157080, Note_on_c, 8, 51, 123
17, 157080, Note_on_c, 8, 56, 123
17, 157140, Note_on_c, 8, 56, 0
17, 157140, Note_on_c, 8, 51, 0
17, 157140, Note_on_c, 8, 51, 123
17, 157140, Note_on_c, 8, 56, 123
17, 157200, Note_on_c, 8, 56, 0
17, 157200, Note_on_c, 8, 51, 0
17, 157200, Note_on_c, 8, 51, 123
17, 157200, Note_on_c, 8, 55, 123
17, 157440, Note_on_c, 8, 55, 0
17, 157440, Note_on_c, 8, 51, 0
17, 160920, Note_on_c, 8, 56, 91
17, 161040, Note_on_c, 8, 56, 0
17, 161040, Note_on_c, 8, 60, 91
17, 161160, Note_on_c, 8, 60, 0
17, 161160, Note_on_c, 8, 63, 91
17, 161280, Note_on_c, 8, 63, 0
17, 161280, Note_on_c, 8, 56, 101
17, 161280, Note_on_c, 8, 63, 101
17, 161400, Note_on_c, 8, 63, 0
17, 161400, Note_on_c, 8, 56, 0
17, 161400, Note_on_c, 8, 61, 101
17, 161520, Note_on_c, 8, 61, 0
17, 161520, Note_on_c, 8, 60, 101
17, 161880, Note_on_c, 8, 60, 0
17, 161880, Note_on_c, 8, 56, 109
17, 161880, Note_on_c, 8, 60, 109
17, 162000, Note_on_c, 8, 60, 0
17, 162000, Note_on_c, 8, 56, 0
17, 162000, Note_on_c, 8, 63, 115
17, 162000, Note_on_c, 8, 67, 115
17, 162120, Note_on_c, 8, 67, 0
17, 162120, Note_on_c, 8, 63, 0
17, 162120, Note_on_c, 8, 61, 115
17, 162120, Note_on_c, 8, 65, 115
17, 162240, Note_on_c, 8, 65, 0
17, 162240, Note_on_c, 8, 61, 0
17, 162240, Note_on_c, 8, 60, 115
17, 162240, Note_on_c, 8, 63, 115
17, 162600, Note_on_c, 8, 63, 0
17, 162600, Note_on_c, 8, 60, 0
17, 162600, Note_on_c, 8, 51, 115
17, 162600, Note_on_c, 8, 63, 115
17, 162720, Note_on_c, 8, 63, 0
17, 162720, Note_on_c, 8, 51, 0
17, 162720, Note_on_c, 8, 51, 115
17, 162720, Note_on_c, 8, 63, 115
17, 162960, Note_on_c, 8, 63, 0
17, 162960, Note_on_c, 8, 51, 0
17, 162960, Note_on_c, 8, 51, 115
17, 162960, Note_on_c, 8, 63, 115
17, 163320, Note_on_c, 8, 63, 0
17, 163320, Note_on_c, 8, 51, 0
17, 163320, Note_on_c, 8, 51, 101
17, 163440, Note_on_c, 8, 51, 0
17, 163440, Note_on_c, 8, 53, 91
17, 163680, Note_on_c, 8, 53, 0
17, 164160, Note_on_c, 8, 55, 78
17, 164400, Note_on_c, 8, 55, 0
17, 164880, Note_on_c, 8, 51, 78
17, 166080, Note_on_c, 8, 51, 0
17, 166080, Note_on_c, 8, 51, 78
17, 166260, Note_on_c, 8, 51, 0
17, 166260, Note_on_c, 8, 51, 78
17, 166320, Note_on_c, 8, 51, 0
17, 166320, Note_on_c, 8, 51, 78
17, 167520, Note_on_c, 8, 51, 0
17, 167520, Note_on_c, 8, 51, 78
17, 167700, Note_on_c, 8, 51, 0
17, 167700, Note_on_c, 8, 51, 78
17, 167760, Note_on_c, 8, 51, 0
17, 167760, Note_on_c, 8, 51, 78
17, 169680, Note_on_c, 8, 51, 0
17, 169680, Note_on_c, 8, 48, 91
17, 169860, Note_on_c, 8, 48, 0
17, 169860, Note_on_c, 8, 51, 91
17, 169920, Note_on_c, 8, 51, 0
17, 169920, Note_on_c, 8, 56, 91
17, 170400, Note_on_c, 8, 56, 0
17, 170400, Note_on_c, 8, 48, 91
17, 170580, Note_on_c, 8, 48, 0
17, 170580, Note_on_c, 8, 51, 91
17, 170640, Note_on_c, 8, 51, 0
17, 170640, Note_on_c, 8, 56, 91
17, 170880, Note_on_c, 8, 56, 0
17, 170880, Note_on_c, 8, 48, 101
17, 171060, Note_on_c, 8, 48, 0
17, 171060, Note_on_c, 8, 51, 101
17, 171120, Note_on_c, 8, 51, 0
17, 171120, Note_on_c, 8, 56, 101
17, 171360, Note_on_c, 8, 56, 0
17, 171360, Note_on_c, 8, 48, 109
17, 171540, Note_on_c, 8, 48, 0
17, 171540, Note_on_c, 8, 51, 109
17, 171600, Note_on_c, 8, 51, 0
17, 171600, Note_on_c, 8, 56, 109
17, 171840, Note_on_c, 8, 56, 0
17, 171840, Note_on_c, 8, 48, 109
17, 172020, Note_on_c, 8, 48, 0
17, 172020, Note_on_c, 8, 51, 109
17, 172080, Note_on_c, 8, 51, 0
17, 172080, Note_on_c, 8, 56, 115
17, 172160, Note_on_c, 8, 56, 0
17, 172160, Note_on_c, 8, 48, 115
17, 172240, Note_on_c, 8, 48, 0
17, 172240, Note_on_c, 8, 51, 115
17, 172320, Note_on_c, 8, 51, 0
17, 172320, Note_on_c, 8, 56, 115
17, 172400, Note_on_c, 8, 56, 0
17, 172400, Note_on_c, 8, 48, 115
17, 172480, Note_on_c, 8, 48, 0
17, 172480, Note_on_c, 8, 51, 115
17, 172560, Note_on_c, 8, 51, 0
17, 172560, Note_on_c, 8, 56, 115
17, 172640, Note_on_c, 8, 56, 0
17, 172640, Note_on_c, 8, 48, 115
17, 172720, Note_on_c, 8, 48, 0
17, 172720, Note_on_c, 8, 51, 115
17, 172800, Note_on_c, 8, 51, 0
17, 172800, Note_on_c, 8, 56, 115
17, 172880, Note_on_c, 8, 56, 0
17, 172880, Note_on_c, 8, 48, 115
17, 172960, Note_on_c, 8, 48, 0
17, 172960, Note_on_c, 8, 51, 115
17, 173040, Note_on_c, 8, 51, 0
17, 173040, Note_on_c, 8, 56, 115
17, 173120, Note_on_c, 8, 56, 0
17, 173120, Note_on_c, 8, 60, 115
17, 173200, Note_on_c, 8, 60, 0
17, 173200, Note_on_c, 8, 63, 115
17, 173280, Note_on_c, 8, 63, 0
17, 173280, Note_on_c, 8, 68, 115
17, 173360, Note_on_c, 8, 68, 0
17, 173360, Note_on_c, 8, 60, 115
17, 173360, Note_on_c, 8, 63, 115
17, 173440, Note_on_c, 8, 63, 0
17, 173440, Note_on_c, 8, 60, 0
17, 173440, Note_on_c, 8, 60, 115
17, 173440, Note_on_c, 8, 63, 115
17, 173520, Note_on_c, 8, 63, 0
17, 173520, Note_on_c, 8, 60, 0
17, 173520, Note_on_c, 8, 60, 115
17, 173520, Note_on_c, 8, 63, 115
17, 173600, Note_on_c, 8, 63, 0
17, 173600, Note_on_c, 8, 60, 0
17, 173600, Note_on_c, 8, 60, 115
17, 173600, Note_on_c, 8, 63, 115
17, 173680, Note_on_c, 8, 63, 0
17, 173680, Note_on_c, 8, 60, 0
17, 173680, Note_on_c, 8, 60, 115
17, 173680, Note_on_c, 8, 63, 115
17, 173760, Note_on_c, 8, 63, 0
17, 173760, Note_on_c, 8, 60, 0
17, 173760, Note_on_c, 8, 60, 115
17, 173760, Note_on_c, 8, 63, 115
17, 173840, Note_on_c, 8, 63, 0
17, 173840, Note_on_c, 8, 60, 0
17, 173840, Note_on_c, 8, 60, 115
17, 173840, Note_on_c, 8, 63, 115
17, 173920, Note_on_c, 8, 63, 0
17, 173920, Note_on_c, 8, 60, 0
17, 173920, Note_on_c, 8, 60, 115
17, 173920, Note_on_c, 8, 63, 115
17, 174000, Note_on_c, 8, 63, 0
17, 174000, Note_on_c, 8, 60, 0
17, 174000, Note_on_c, 8, 60, 115
17, 174000, Note_on_c, 8, 63, 115
17, 174080, Note_on_c, 8, 63, 0
17, 174080, Note_on_c, 8, 60, 0
17, 174080, Note_on_c, 8, 60, 115
17, 174080, Note_on_c, 8, 63, 115
17, 174160, Note_on_c, 8, 63, 0
17, 174160, Note_on_c, 8, 60, 0
17, 174160, Note_on_c, 8, 60, 115
17, 174160, Note_on_c, 8, 63, 115
17, 174240, Note_on_c, 8, 63, 0
17, 174240, Note_on_c, 8, 60, 0
17, 174240, Note_on_c, 8, 60, 123
17, 174240, Note_on_c, 8, 63, 123
17, 174480, Note_on_c, 8, 63, 0
17, 174480, Note_on_c, 8, 60, 0
17, 174960, Note_on_c, 8, 63, 123
17, 175200, Note_on_c, 8, 63, 0
17, 175680, Note_on_c, 8, 68, 123
17, 175920, Note_on_c, 8, 68, 0
17, 176160, Note_on_c, 8, 63, 91
17, 176400, Note_on_c, 8, 63, 0
17, 176400, Note_on_c, 8, 68, 91
17, 176640, Note_on_c, 8, 68, 0
17, 177120, Note_on_c, 8, 63, 123
17, 177360, Note_on_c, 8, 63, 0
17, 177840, Note_on_c, 8, 56, 123
17, 178080, Note_on_c, 8, 56, 0
17, 178080, End_track
18, 0, Start_track
18, 0, MIDI_port, 0
18, 0, Title_t, "Cellos"
18, 0, Program_c, 10, 48
18, 480, Note_on_c, 10, 51, 91
18, 660, Note_on_c, 10, 51, 0
18, 660, Note_on_c, 10, 56, 91
18, 720, Note_on_c, 10, 56, 0
18, 720, Note_on_c, 10, 60, 91
18, 960, Note_on_c, 10, 60, 0
18, 960, Note_on_c, 10, 60, 91
18, 1140, Note_on_c, 10, 60, 0
18, 1140, Note_on_c, 10, 58, 91
18, 1200, Note_on_c, 10, 58, 0
18, 1200, Note_on_c, 10, 56, 91
18, 1380, Note_on_c, 10, 56, 0
18, 1380, Note_on_c, 10, 60, 91
18, 1440, Note_on_c, 10, 60, 0
18, 1440, Note_on_c, 10, 53, 91
18, 1860, Note_on_c, 10, 53, 0
18, 1860, Note_on_c, 10, 57, 91
18, 1920, Note_on_c, 10, 57, 0
18, 1920, Note_on_c, 10, 58, 91
18, 2100, Note_on_c, 10, 58, 0
18, 2100, Note_on_c, 10, 60, 91
18, 2160, Note_on_c, 10, 60, 0
18, 2160, Note_on_c, 10, 61, 91
18, 2340, Note_on_c, 10, 61, 0
18, 2340, Note_on_c, 10, 60, 91
18, 2400, Note_on_c, 10, 60, 0
18, 2400, Note_on_c, 10, 58, 91
18, 2580, Note_on_c, 10, 58, 0
18, 2580, Note_on_c, 10, 61, 91
18, 2640, Note_on_c, 10, 61, 0
18, 2640, Note_on_c, 10, 55, 91
18, 2820, Note_on_c, 10, 55, 0
18, 2820, Note_on_c, 10, 58, 91
18, 2880, Note_on_c, 10, 58, 0
18, 2880, Note_on_c, 10, 52, 91
18, 3060, Note_on_c, 10, 52, 0
18, 3060, Note_on_c, 10, 55, 91
18, 3120, Note_on_c, 10, 55, 0
18, 3120, Note_on_c, 10, 60, 91
18, 3540, Note_on_c, 10, 60, 0
18, 3540, Note_on_c, 10, 58, 91
18, 3600, Note_on_c, 10, 58, 0
18, 3600, Note_on_c, 10, 57, 91
18, 3780, Note_on_c, 10, 57, 0
18, 3780, Note_on_c, 10, 53, 91
18, 3840, Note_on_c, 10, 53, 0
18, 3840, Note_on_c, 10, 58, 91
18, 4200, Note_on_c, 10, 58, 0
18, 4200, Note_on_c, 10, 61, 91
18, 4320, Note_on_c, 10, 61, 0
18, 4320, Note_on_c, 10, 55, 91
18, 4500, Note_on_c, 10, 55, 0
18, 4500, Note_on_c, 10, 51, 91
18, 4560, Note_on_c, 10, 51, 0
18, 4560, Note_on_c, 10, 56, 91
18, 4800, Note_on_c, 10, 56, 0
18, 4800, Note_on_c, 10, 56, 91
18, 4980, Note_on_c, 10, 56, 0
18, 4980, Note_on_c, 10, 60, 91
18, 5040, Note_on_c, 10, 60, 0
18, 5040, Note_on_c, 10, 63, 115
18, 5760, Note_on_c, 10, 63, 0
18, 5760, Note_on_c, 10, 60, 91
18, 6000, Note_on_c, 10, 60, 0
18, 6240, Note_on_c, 10, 48, 91
18, 6420, Note_on_c, 10, 48, 0
18, 6420, Note_on_c, 10, 44, 91
18, 6480, Note_on_c, 10, 44, 0
18, 6480, Note_on_c, 10, 39, 115
18, 7200, Note_on_c, 10, 39, 0
18, 7200, Note_on_c, 10, 44, 91
18, 7440, Note_on_c, 10, 44, 0
18, 11520, Note_on_c, 10, 53, 91
18, 12240, Note_on_c, 10, 53, 0
18, 12240, Note_on_c, 10, 48, 91
18, 12960, Note_on_c, 10, 48, 0
18, 12960, Note_on_c, 10, 51, 115
18, 13200, Note_on_c, 10, 51, 0
18, 13200, Note_on_c, 10, 51, 115
18, 13440, Note_on_c, 10, 51, 0
18, 13440, Note_on_c, 10, 51, 115
18, 13680, Note_on_c, 10, 51, 0
18, 13680, Note_on_c, 10, 44, 91
18, 13920, Note_on_c, 10, 44, 0
18, 14880, Note_on_c, 10, 51, 115
18, 15120, Note_on_c, 10, 51, 0
18, 15120, Note_on_c, 10, 44, 115
18, 15240, Note_on_c, 10, 44, 0
18, 15360, Note_on_c, 10, 44, 91
18, 15480, Note_on_c, 10, 44, 0
18, 15600, Note_on_c, 10, 44, 91
18, 15720, Note_on_c, 10, 44, 0
18, 15840, Note_on_c, 10, 44, 91
18, 16080, Note_on_c, 10, 44, 0
18, 16560, Note_on_c, 10, 56, 91
18, 16800, Note_on_c, 10, 56, 0
18, 16800, Note_on_c, 10, 56, 91
18, 17040, Note_on_c, 10, 56, 0
18, 17040, Note_on_c, 10, 51, 91
18, 17280, Note_on_c, 10, 51, 0
18, 17280, Note_on_c, 10, 44, 91
18, 17520, Note_on_c, 10, 44, 0
18, 18000, Note_on_c, 10, 56, 91
18, 18240, Note_on_c, 10, 56, 0
18, 18240, Note_on_c, 10, 56, 91
18, 18480, Note_on_c, 10, 56, 0
18, 18480, Note_on_c, 10, 56, 91
18, 18720, Note_on_c, 10, 56, 0
18, 18720, Note_on_c, 10, 56, 91
18, 19200, Note_on_c, 10, 56, 0
18, 20880, Note_on_c, 10, 44, 123
18, 21600, Note_on_c, 10, 44, 0
18, 21600, Note_on_c, 10, 43, 123
18, 21840, Note_on_c, 10, 43, 0
18, 21840, Note_on_c, 10, 43, 123
18, 22080, Note_on_c, 10, 43, 0
18, 22080, Note_on_c, 10, 43, 123
18, 22320, Note_on_c, 10, 43, 0
18, 22320, Note_on_c, 10, 48, 123
18, 22560, Note_on_c, 10, 48, 0
18, 22560, Note_on_c, 10, 36, 123
18, 22800, Note_on_c, 10, 36, 0
18, 23040, Note_on_c, 10, 48, 123
18, 23280, Note_on_c, 10, 48, 0
18, 23280, Note_on_c, 10, 48, 123
18, 23520, Note_on_c, 10, 48, 0
18, 23520, Note_on_c, 10, 43, 123
18, 23760, Note_on_c, 10, 43, 0
18, 23760, Note_on_c, 10, 48, 123
18, 24240, Note_on_c, 10, 48, 0
18, 24240, Note_on_c, 10, 48, 123
18, 24420, Note_on_c, 10, 48, 0
18, 24420, Note_on_c, 10, 48, 123
18, 24480, Note_on_c, 10, 48, 0
18, 24480, Note_on_c, 10, 48, 123
18, 24720, Note_on_c, 10, 48, 0
18, 24720, Note_on_c, 10, 48, 123
18, 24960, Note_on_c, 10, 48, 0
18, 24960, Note_on_c, 10, 48, 123
18, 25200, Note_on_c, 10, 48, 0
18, 25200, Note_on_c, 10, 48, 123
18, 25680, Note_on_c, 10, 48, 0
18, 25680, Note_on_c, 10, 48, 123
18, 25860, Note_on_c, 10, 48, 0
18, 25860, Note_on_c, 10, 48, 123
18, 25920, Note_on_c, 10, 48, 0
18, 25920, Note_on_c, 10, 48, 123
18, 26400, Note_on_c, 10, 48, 0
18, 26400, Note_on_c, 10, 48, 123
18, 26580, Note_on_c, 10, 48, 0
18, 26580, Note_on_c, 10, 48, 123
18, 26640, Note_on_c, 10, 48, 0
18, 26640, Note_on_c, 10, 48, 123
18, 26880, Note_on_c, 10, 48, 0
18, 28320, Note_on_c, 10, 40, 123
18, 28800, Note_on_c, 10, 40, 0
18, 29040, Note_on_c, 10, 40, 101
18, 30960, Note_on_c, 10, 40, 0
18, 30960, Note_on_c, 10, 39, 101
18, 31680, Note_on_c, 10, 39, 0
18, 31680, Note_on_c, 10, 38, 101
18, 32400, Note_on_c, 10, 38, 0
18, 32400, Note_on_c, 10, 37, 101
18, 33120, Note_on_c, 10, 37, 0
18, 33120, Note_on_c, 10, 36, 109
18, 33840, Note_on_c, 10, 36, 0
18, 33840, Note_on_c, 10, 37, 109
18, 34560, Note_on_c, 10, 37, 0
18, 34560, Note_on_c, 10, 39, 115
18, 34800, Note_on_c, 10, 39, 0
18, 34800, Note_on_c, 10, 51, 115
18, 35040, Note_on_c, 10, 51, 0
18, 35760, Note_on_c, 10, 51, 91
18, 35880, Note_on_c, 10, 51, 0
18, 35880, Note_on_c, 10, 56, 91
18, 36000, Note_on_c, 10, 56, 0
18, 36000, Note_on_c, 10, 60, 91
18, 36120, Note_on_c, 10, 60, 0
18, 36120, Note_on_c, 10, 58, 91
18, 36240, Note_on_c, 10, 58, 0
18, 36240, Note_on_c, 10, 56, 91
18, 36360, Note_on_c, 10, 56, 0
18, 36360, Note_on_c, 10, 55, 91
18, 36480, Note_on_c, 10, 55, 0
18, 36480, Note_on_c, 10, 56, 91
18, 36600, Note_on_c, 10, 56, 0
18, 36600, Note_on_c, 10, 60, 91
18, 36720, Note_on_c, 10, 60, 0
18, 36720, Note_on_c, 10, 53, 91
18, 36840, Note_on_c, 10, 53, 0
18, 36840, Note_on_c, 10, 57, 91
18, 36960, Note_on_c, 10, 57, 0
18, 36960, Note_on_c, 10, 58, 91
18, 37080, Note_on_c, 10, 58, 0
18, 37080, Note_on_c, 10, 57, 91
18, 37200, Note_on_c, 10, 57, 0
18, 37200, Note_on_c, 10, 58, 91
18, 37320, Note_on_c, 10, 58, 0
18, 37320, Note_on_c, 10, 60, 91
18, 37440, Note_on_c, 10, 60, 0
18, 37440, Note_on_c, 10, 61, 91
18, 37560, Note_on_c, 10, 61, 0
18, 37560, Note_on_c, 10, 60, 91
18, 37680, Note_on_c, 10, 60, 0
18, 37680, Note_on_c, 10, 58, 91
18, 37800, Note_on_c, 10, 58, 0
18, 37800, Note_on_c, 10, 61, 91
18, 37920, Note_on_c, 10, 61, 0
18, 37920, Note_on_c, 10, 55, 91
18, 38040, Note_on_c, 10, 55, 0
18, 38040, Note_on_c, 10, 58, 91
18, 38160, Note_on_c, 10, 58, 0
18, 38160, Note_on_c, 10, 52, 91
18, 38280, Note_on_c, 10, 52, 0
18, 38280, Note_on_c, 10, 55, 91
18, 38400, Note_on_c, 10, 55, 0
18, 38400, Note_on_c, 10, 60, 91
18, 38520, Note_on_c, 10, 60, 0
18, 38520, Note_on_c, 10, 55, 91
18, 38640, Note_on_c, 10, 55, 0
18, 38640, Note_on_c, 10, 60, 91
18, 38760, Note_on_c, 10, 60, 0
18, 38760, Note_on_c, 10, 58, 91
18, 38880, Note_on_c, 10, 58, 0
18, 38880, Note_on_c, 10, 57, 91
18, 39000, Note_on_c, 10, 57, 0
18, 39000, Note_on_c, 10, 53, 91
18, 39120, Note_on_c, 10, 53, 0
18, 39120, Note_on_c, 10, 58, 91
18, 39240, Note_on_c, 10, 58, 0
18, 39240, Note_on_c, 10, 60, 91
18, 39360, Note_on_c, 10, 60, 0
18, 39360, Note_on_c, 10, 61, 91
18, 39480, Note_on_c, 10, 61, 0
18, 39480, Note_on_c, 10, 58, 91
18, 39600, Note_on_c, 10, 58, 0
18, 39600, Note_on_c, 10, 55, 91
18, 39720, Note_on_c, 10, 55, 0
18, 39720, Note_on_c, 10, 51, 91
18, 39840, Note_on_c, 10, 51, 0
18, 39840, Note_on_c, 10, 58, 91
18, 39900, Note_on_c, 10, 58, 0
18, 39900, Note_on_c, 10, 56, 91
18, 39960, Note_on_c, 10, 56, 0
18, 39960, Note_on_c, 10, 55, 91
18, 40080, Note_on_c, 10, 55, 0
18, 40080, Note_on_c, 10, 56, 91
18, 40200, Note_on_c, 10, 56, 0
18, 40200, Note_on_c, 10, 60, 91
18, 40320, Note_on_c, 10, 60, 0
18, 40320, Note_on_c, 10, 62, 115
18, 40440, Note_on_c, 10, 62, 0
18, 40440, Note_on_c, 10, 63, 115
18, 40560, Note_on_c, 10, 63, 0
18, 40560, Note_on_c, 10, 65, 115
18, 40680, Note_on_c, 10, 65, 0
18, 40680, Note_on_c, 10, 63, 115
18, 40800, Note_on_c, 10, 63, 0
18, 40800, Note_on_c, 10, 62, 115
18, 40920, Note_on_c, 10, 62, 0
18, 40920, Note_on_c, 10, 63, 115
18, 41040, Note_on_c, 10, 63, 0
18, 41040, Note_on_c, 10, 60, 91
18, 41280, Note_on_c, 10, 60, 0
18, 41400, Note_on_c, 10, 48, 91
18, 41520, Note_on_c, 10, 48, 0
18, 41520, Note_on_c, 10, 48, 101
18, 41640, Note_on_c, 10, 48, 0
18, 41640, Note_on_c, 10, 44, 109
18, 41760, Note_on_c, 10, 44, 0
18, 41760, Note_on_c, 10, 39, 115
18, 42480, Note_on_c, 10, 39, 0
18, 42480, Note_on_c, 10, 44, 91
18, 42720, Note_on_c, 10, 44, 0
18, 46800, Note_on_c, 10, 53, 91
18, 47520, Note_on_c, 10, 53, 0
18, 47520, Note_on_c, 10, 48, 101
18, 48240, Note_on_c, 10, 48, 0
18, 48240, Note_on_c, 10, 51, 115
18, 48480, Note_on_c, 10, 51, 0
18, 48480, Note_on_c, 10, 51, 115
18, 48720, Note_on_c, 10, 51, 0
18, 48720, Note_on_c, 10, 51, 115
18, 48960, Note_on_c, 10, 51, 0
18, 48960, Note_on_c, 10, 44, 91
18, 49200, Note_on_c, 10, 44, 0
18, 50160, Note_on_c, 10, 51, 115
18, 50400, Note_on_c, 10, 51, 0
18, 50400, Note_on_c, 10, 44, 115
18, 50520, Note_on_c, 10, 44, 0
18, 50640, Note_on_c, 10, 44, 91
18, 50760, Note_on_c, 10, 44, 0
18, 50880, Note_on_c, 10, 44, 91
18, 51000, Note_on_c, 10, 44, 0
18, 51120, Note_on_c, 10, 44, 91
18, 51360, Note_on_c, 10, 44, 0
18, 51840, Note_on_c, 10, 56, 91
18, 52080, Note_on_c, 10, 56, 0
18, 52080, Note_on_c, 10, 56, 91
18, 52320, Note_on_c, 10, 56, 0
18, 52320, Note_on_c, 10, 51, 91
18, 52560, Note_on_c, 10, 51, 0
18, 52560, Note_on_c, 10, 44, 91
18, 52800, Note_on_c, 10, 44, 0
18, 53280, Note_on_c, 10, 44, 91
18, 53520, Note_on_c, 10, 44, 0
18, 53520, Note_on_c, 10, 56, 91
18, 53760, Note_on_c, 10, 56, 0
18, 53760, Note_on_c, 10, 56, 91
18, 54000, Note_on_c, 10, 56, 0
18, 54000, Note_on_c, 10, 56, 91
18, 54240, Note_on_c, 10, 56, 0
18, 56160, Note_on_c, 10, 44, 123
18, 56220, Note_on_c, 10, 44, 0
18, 56220, Note_on_c, 10, 44, 123
18, 56280, Note_on_c, 10, 44, 0
18, 56280, Note_on_c, 10, 44, 123
18, 56340, Note_on_c, 10, 44, 0
18, 56340, Note_on_c, 10, 44, 123
18, 56400, Note_on_c, 10, 44, 0
18, 56400, Note_on_c, 10, 44, 123
18, 56460, Note_on_c, 10, 44, 0
18, 56460, Note_on_c, 10, 44, 123
18, 56520, Note_on_c, 10, 44, 0
18, 56520, Note_on_c, 10, 44, 123
18, 56580, Note_on_c, 10, 44, 0
18, 56580, Note_on_c, 10, 44, 123
18, 56640, Note_on_c, 10, 44, 0
18, 56640, Note_on_c, 10, 44, 123
18, 56700, Note_on_c, 10, 44, 0
18, 56700, Note_on_c, 10, 44, 123
18, 56760, Note_on_c, 10, 44, 0
18, 56760, Note_on_c, 10, 44, 123
18, 56820, Note_on_c, 10, 44, 0
18, 56820, Note_on_c, 10, 44, 123
18, 56880, Note_on_c, 10, 44, 0
18, 56880, Note_on_c, 10, 43, 123
18, 57000, Note_on_c, 10, 43, 0
18, 57000, Note_on_c, 10, 48, 123
18, 57060, Note_on_c, 10, 48, 0
18, 57060, Note_on_c, 10, 52, 123
18, 57120, Note_on_c, 10, 52, 0
18, 57120, Note_on_c, 10, 55, 123
18, 57360, Note_on_c, 10, 55, 0
18, 57360, Note_on_c, 10, 43, 123
18, 57600, Note_on_c, 10, 43, 0
18, 57600, Note_on_c, 10, 48, 123
18, 57840, Note_on_c, 10, 48, 0
18, 57840, Note_on_c, 10, 36, 123
18, 58080, Note_on_c, 10, 36, 0
18, 58320, Note_on_c, 10, 48, 123
18, 58560, Note_on_c, 10, 48, 0
18, 58560, Note_on_c, 10, 48, 123
18, 58800, Note_on_c, 10, 48, 0
18, 58800, Note_on_c, 10, 43, 123
18, 59040, Note_on_c, 10, 43, 0
18, 59040, Note_on_c, 10, 48, 123
18, 59520, Note_on_c, 10, 48, 0
18, 59520, Note_on_c, 10, 48, 123
18, 59700, Note_on_c, 10, 48, 0
18, 59700, Note_on_c, 10, 48, 123
18, 59760, Note_on_c, 10, 48, 0
18, 59760, Note_on_c, 10, 48, 123
18, 60000, Note_on_c, 10, 48, 0
18, 60000, Note_on_c, 10, 48, 123
18, 60240, Note_on_c, 10, 48, 0
18, 60240, Note_on_c, 10, 48, 123
18, 60480, Note_on_c, 10, 48, 0
18, 60480, Note_on_c, 10, 48, 123
18, 60960, Note_on_c, 10, 48, 0
18, 60960, Note_on_c, 10, 48, 123
18, 61140, Note_on_c, 10, 48, 0
18, 61140, Note_on_c, 10, 48, 123
18, 61200, Note_on_c, 10, 48, 0
18, 61200, Note_on_c, 10, 48, 123
18, 61680, Note_on_c, 10, 48, 0
18, 61680, Note_on_c, 10, 48, 123
18, 61860, Note_on_c, 10, 48, 0
18, 61860, Note_on_c, 10, 48, 123
18, 61920, Note_on_c, 10, 48, 0
18, 61920, Note_on_c, 10, 48, 123
18, 62160, Note_on_c, 10, 48, 0
18, 63420, Note_on_c, 10, 40, 101
18, 63480, Note_on_c, 10, 40, 0
18, 63480, Note_on_c, 10, 40, 101
18, 63540, Note_on_c, 10, 40, 0
18, 63540, Note_on_c, 10, 40, 101
18, 63600, Note_on_c, 10, 40, 0
18, 63600, Note_on_c, 10, 40, 101
18, 63720, Note_on_c, 10, 40, 0
18, 63720, Note_on_c, 10, 40, 101
18, 63840, Note_on_c, 10, 40, 0
18, 63840, Note_on_c, 10, 40, 101
18, 63960, Note_on_c, 10, 40, 0
18, 64140, Note_on_c, 10, 40, 101
18, 64200, Note_on_c, 10, 40, 0
18, 64200, Note_on_c, 10, 40, 101
18, 64260, Note_on_c, 10, 40, 0
18, 64260, Note_on_c, 10, 40, 101
18, 64320, Note_on_c, 10, 40, 0
18, 64320, Note_on_c, 10, 40, 101
18, 64440, Note_on_c, 10, 40, 0
18, 64440, Note_on_c, 10, 40, 101
18, 64560, Note_on_c, 10, 40, 0
18, 64560, Note_on_c, 10, 40, 101
18, 64680, Note_on_c, 10, 40, 0
18, 64860, Note_on_c, 10, 40, 101
18, 64920, Note_on_c, 10, 40, 0
18, 64920, Note_on_c, 10, 40, 101
18, 64980, Note_on_c, 10, 40, 0
18, 64980, Note_on_c, 10, 40, 101
18, 65040, Note_on_c, 10, 40, 0
18, 65040, Note_on_c, 10, 40, 101
18, 65160, Note_on_c, 10, 40, 0
18, 65160, Note_on_c, 10, 40, 101
18, 65280, Note_on_c, 10, 40, 0
18, 65280, Note_on_c, 10, 40, 101
18, 65400, Note_on_c, 10, 40, 0
18, 65580, Note_on_c, 10, 40, 101
18, 65640, Note_on_c, 10, 40, 0
18, 65640, Note_on_c, 10, 40, 101
18, 65700, Note_on_c, 10, 40, 0
18, 65700, Note_on_c, 10, 40, 101
18, 65760, Note_on_c, 10, 40, 0
18, 65760, Note_on_c, 10, 40, 101
18, 65880, Note_on_c, 10, 40, 0
18, 65880, Note_on_c, 10, 40, 101
18, 66000, Note_on_c, 10, 40, 0
18, 66000, Note_on_c, 10, 40, 101
18, 66120, Note_on_c, 10, 40, 0
18, 66300, Note_on_c, 10, 39, 101
18, 66360, Note_on_c, 10, 39, 0
18, 66360, Note_on_c, 10, 39, 101
18, 66420, Note_on_c, 10, 39, 0
18, 66420, Note_on_c, 10, 39, 101
18, 66480, Note_on_c, 10, 39, 0
18, 66480, Note_on_c, 10, 39, 101
18, 66600, Note_on_c, 10, 39, 0
18, 66600, Note_on_c, 10, 39, 101
18, 66720, Note_on_c, 10, 39, 0
18, 66720, Note_on_c, 10, 39, 101
18, 66840, Note_on_c, 10, 39, 0
18, 67020, Note_on_c, 10, 38, 101
18, 67080, Note_on_c, 10, 38, 0
18, 67080, Note_on_c, 10, 38, 101
18, 67140, Note_on_c, 10, 38, 0
18, 67140, Note_on_c, 10, 38, 101
18, 67200, Note_on_c, 10, 38, 0
18, 67200, Note_on_c, 10, 38, 101
18, 67320, Note_on_c, 10, 38, 0
18, 67320, Note_on_c, 10, 38, 101
18, 67440, Note_on_c, 10, 38, 0
18, 67440, Note_on_c, 10, 38, 101
18, 67560, Note_on_c, 10, 38, 0
18, 67740, Note_on_c, 10, 37, 101
18, 67800, Note_on_c, 10, 37, 0
18, 67800, Note_on_c, 10, 37, 101
18, 67860, Note_on_c, 10, 37, 0
18, 67860, Note_on_c, 10, 37, 101
18, 67920, Note_on_c, 10, 37, 0
18, 67920, Note_on_c, 10, 37, 101
18, 68040, Note_on_c, 10, 37, 0
18, 68040, Note_on_c, 10, 37, 101
18, 68160, Note_on_c, 10, 37, 0
18, 68160, Note_on_c, 10, 37, 101
18, 68280, Note_on_c, 10, 37, 0
18, 68460, Note_on_c, 10, 36, 101
18, 68520, Note_on_c, 10, 36, 0
18, 68520, Note_on_c, 10, 36, 101
18, 68580, Note_on_c, 10, 36, 0
18, 68580, Note_on_c, 10, 36, 101
18, 68640, Note_on_c, 10, 36, 0
18, 68640, Note_on_c, 10, 36, 101
18, 68760, Note_on_c, 10, 36, 0
18, 68760, Note_on_c, 10, 36, 101
18, 68880, Note_on_c, 10, 36, 0
18, 68880, Note_on_c, 10, 36, 101
18, 69000, Note_on_c, 10, 36, 0
18, 69180, Note_on_c, 10, 37, 91
18, 69240, Note_on_c, 10, 37, 0
18, 69240, Note_on_c, 10, 37, 91
18, 69300, Note_on_c, 10, 37, 0
18, 69300, Note_on_c, 10, 37, 101
18, 69360, Note_on_c, 10, 37, 0
18, 69360, Note_on_c, 10, 37, 101
18, 69480, Note_on_c, 10, 37, 0
18, 69480, Note_on_c, 10, 37, 109
18, 69600, Note_on_c, 10, 37, 0
18, 69600, Note_on_c, 10, 37, 109
18, 69720, Note_on_c, 10, 37, 0
18, 69840, Note_on_c, 10, 39, 115
18, 69960, Note_on_c, 10, 39, 0
18, 69960, Note_on_c, 10, 51, 123
18, 70080, Note_on_c, 10, 51, 0
18, 70080, Note_on_c, 10, 60, 123
18, 70200, Note_on_c, 10, 60, 0
18, 71040, Note_on_c, 10, 51, 101
18, 71100, Note_on_c, 10, 51, 0
18, 71100, Note_on_c, 10, 55, 101
18, 71160, Note_on_c, 10, 55, 0
18, 71160, Note_on_c, 10, 56, 101
18, 71220, Note_on_c, 10, 56, 0
18, 71220, Note_on_c, 10, 58, 101
18, 71280, Note_on_c, 10, 58, 0
18, 71280, Note_on_c, 10, 60, 101
18, 71340, Note_on_c, 10, 60, 0
18, 71340, Note_on_c, 10, 58, 101
18, 71400, Note_on_c, 10, 58, 0
18, 71400, Note_on_c, 10, 56, 101
18, 71460, Note_on_c, 10, 56, 0
18, 71460, Note_on_c, 10, 55, 101
18, 71520, Note_on_c, 10, 55, 0
18, 71520, Note_on_c, 10, 56, 101
18, 71580, Note_on_c, 10, 56, 0
18, 71580, Note_on_c, 10, 58, 101
18, 71640, Note_on_c, 10, 58, 0
18, 71640, Note_on_c, 10, 56, 101
18, 71700, Note_on_c, 10, 56, 0
18, 71700, Note_on_c, 10, 55, 101
18, 71760, Note_on_c, 10, 55, 0
18, 71760, Note_on_c, 10, 56, 101
18, 71820, Note_on_c, 10, 56, 0
18, 71820, Note_on_c, 10, 58, 101
18, 71880, Note_on_c, 10, 58, 0
18, 71880, Note_on_c, 10, 60, 101
18, 71940, Note_on_c, 10, 60, 0
18, 71940, Note_on_c, 10, 56, 101
18, 72000, Note_on_c, 10, 56, 0
18, 72000, Note_on_c, 10, 53, 101
18, 72060, Note_on_c, 10, 53, 0
18, 72060, Note_on_c, 10, 55, 101
18, 72120, Note_on_c, 10, 55, 0
18, 72120, Note_on_c, 10, 53, 101
18, 72180, Note_on_c, 10, 53, 0
18, 72180, Note_on_c, 10, 52, 101
18, 72240, Note_on_c, 10, 52, 0
18, 72240, Note_on_c, 10, 53, 101
18, 72300, Note_on_c, 10, 53, 0
18, 72300, Note_on_c, 10, 57, 101
18, 72360, Note_on_c, 10, 57, 0
18, 72360, Note_on_c, 10, 58, 101
18, 72420, Note_on_c, 10, 58, 0
18, 72420, Note_on_c, 10, 57, 101
18, 72480, Note_on_c, 10, 57, 0
18, 72480, Note_on_c, 10, 58, 101
18, 72540, Note_on_c, 10, 58, 0
18, 72540, Note_on_c, 10, 60, 101
18, 72600, Note_on_c, 10, 60, 0
18, 72600, Note_on_c, 10, 61, 101
18, 72660, Note_on_c, 10, 61, 0
18, 72660, Note_on_c, 10, 60, 101
18, 72720, Note_on_c, 10, 60, 0
18, 72720, Note_on_c, 10, 61, 101
18, 72780, Note_on_c, 10, 61, 0
18, 72780, Note_on_c, 10, 60, 101
18, 72840, Note_on_c, 10, 60, 0
18, 72840, Note_on_c, 10, 61, 101
18, 72900, Note_on_c, 10, 61, 0
18, 72900, Note_on_c, 10, 60, 101
18, 72960, Note_on_c, 10, 60, 0
18, 72960, Note_on_c, 10, 58, 101
18, 73020, Note_on_c, 10, 58, 0
18, 73020, Note_on_c, 10, 61, 101
18, 73080, Note_on_c, 10, 61, 0
18, 73080, Note_on_c, 10, 56, 101
18, 73140, Note_on_c, 10, 56, 0
18, 73140, Note_on_c, 10, 61, 101
18, 73200, Note_on_c, 10, 61, 0
18, 73200, Note_on_c, 10, 55, 101
18, 73260, Note_on_c, 10, 55, 0
18, 73260, Note_on_c, 10, 61, 101
18, 73320, Note_on_c, 10, 61, 0
18, 73320, Note_on_c, 10, 53, 101
18, 73380, Note_on_c, 10, 53, 0
18, 73380, Note_on_c, 10, 61, 101
18, 73440, Note_on_c, 10, 61, 0
18, 73440, Note_on_c, 10, 52, 101
18, 73500, Note_on_c, 10, 52, 0
18, 73500, Note_on_c, 10, 55, 101
18, 73560, Note_on_c, 10, 55, 0
18, 73560, Note_on_c, 10, 57, 101
18, 73620, Note_on_c, 10, 57, 0
18, 73620, Note_on_c, 10, 59, 101
18, 73680, Note_on_c, 10, 59, 0
18, 73680, Note_on_c, 10, 60, 101
18, 73740, Note_on_c, 10, 60, 0
18, 73740, Note_on_c, 10, 55, 101
18, 73800, Note_on_c, 10, 55, 0
18, 73800, Note_on_c, 10, 57, 101
18, 73860, Note_on_c, 10, 57, 0
18, 73860, Note_on_c, 10, 59, 101
18, 73920, Note_on_c, 10, 59, 0
18, 73920, Note_on_c, 10, 60, 101
18, 73980, Note_on_c, 10, 60, 0
18, 73980, Note_on_c, 10, 55, 101
18, 74040, Note_on_c, 10, 55, 0
18, 74040, Note_on_c, 10, 60, 101
18, 74100, Note_on_c, 10, 60, 0
18, 74100, Note_on_c, 10, 58, 101
18, 74160, Note_on_c, 10, 58, 0
18, 74160, Note_on_c, 10, 57, 101
18, 74220, Note_on_c, 10, 57, 0
18, 74220, Note_on_c, 10, 60, 101
18, 74280, Note_on_c, 10, 60, 0
18, 74280, Note_on_c, 10, 53, 101
18, 74340, Note_on_c, 10, 53, 0
18, 74340, Note_on_c, 10, 60, 101
18, 74400, Note_on_c, 10, 60, 0
18, 74400, Note_on_c, 10, 58, 101
18, 74460, Note_on_c, 10, 58, 0
18, 74460, Note_on_c, 10, 61, 101
18, 74520, Note_on_c, 10, 61, 0
18, 74520, Note_on_c, 10, 53, 101
18, 74580, Note_on_c, 10, 53, 0
18, 74580, Note_on_c, 10, 61, 101
18, 74640, Note_on_c, 10, 61, 0
18, 74640, Note_on_c, 10, 58, 101
18, 74700, Note_on_c, 10, 58, 0
18, 74700, Note_on_c, 10, 61, 101
18, 74760, Note_on_c, 10, 61, 0
18, 74760, Note_on_c, 10, 56, 101
18, 74820, Note_on_c, 10, 56, 0
18, 74820, Note_on_c, 10, 61, 101
18, 74880, Note_on_c, 10, 61, 0
18, 74880, Note_on_c, 10, 55, 101
18, 74940, Note_on_c, 10, 55, 0
18, 74940, Note_on_c, 10, 58, 101
18, 75000, Note_on_c, 10, 58, 0
18, 75000, Note_on_c, 10, 51, 101
18, 75060, Note_on_c, 10, 51, 0
18, 75060, Note_on_c, 10, 58, 101
18, 75120, Note_on_c, 10, 58, 0
18, 75120, Note_on_c, 10, 56, 101
18, 75180, Note_on_c, 10, 56, 0
18, 75180, Note_on_c, 10, 60, 101
18, 75240, Note_on_c, 10, 60, 0
18, 75240, Note_on_c, 10, 51, 101
18, 75300, Note_on_c, 10, 51, 0
18, 75300, Note_on_c, 10, 60, 101
18, 75360, Note_on_c, 10, 60, 0
18, 75360, Note_on_c, 10, 56, 101
18, 75420, Note_on_c, 10, 56, 0
18, 75420, Note_on_c, 10, 60, 101
18, 75480, Note_on_c, 10, 60, 0
18, 75480, Note_on_c, 10, 51, 101
18, 75540, Note_on_c, 10, 51, 0
18, 75540, Note_on_c, 10, 60, 101
18, 75600, Note_on_c, 10, 60, 0
18, 75600, Note_on_c, 10, 55, 91
18, 75660, Note_on_c, 10, 55, 0
18, 75660, Note_on_c, 10, 63, 91
18, 75720, Note_on_c, 10, 63, 0
18, 75720, Note_on_c, 10, 58, 91
18, 75780, Note_on_c, 10, 58, 0
18, 75780, Note_on_c, 10, 63, 91
18, 75840, Note_on_c, 10, 63, 0
18, 75840, Note_on_c, 10, 55, 91
18, 75900, Note_on_c, 10, 55, 0
18, 75900, Note_on_c, 10, 63, 91
18, 75960, Note_on_c, 10, 63, 0
18, 75960, Note_on_c, 10, 58, 91
18, 76020, Note_on_c, 10, 58, 0
18, 76020, Note_on_c, 10, 63, 91
18, 76080, Note_on_c, 10, 63, 0
18, 76080, Note_on_c, 10, 55, 91
18, 76140, Note_on_c, 10, 55, 0
18, 76140, Note_on_c, 10, 63, 91
18, 76200, Note_on_c, 10, 63, 0
18, 76200, Note_on_c, 10, 58, 91
18, 76260, Note_on_c, 10, 58, 0
18, 76260, Note_on_c, 10, 63, 91
18, 76320, Note_on_c, 10, 63, 0
18, 76320, Note_on_c, 10, 60, 91
18, 76560, Note_on_c, 10, 60, 0
18, 77040, Note_on_c, 10, 48, 78
18, 77160, Note_on_c, 10, 48, 0
18, 77160, Note_on_c, 10, 51, 78
18, 77280, Note_on_c, 10, 51, 0
18, 77280, Note_on_c, 10, 48, 78
18, 77400, Note_on_c, 10, 48, 0
18, 77400, Note_on_c, 10, 51, 78
18, 77520, Note_on_c, 10, 51, 0
18, 77520, Note_on_c, 10, 48, 78
18, 77640, Note_on_c, 10, 48, 0
18, 77640, Note_on_c, 10, 51, 78
18, 77760, Note_on_c, 10, 51, 0
18, 77760, Note_on_c, 10, 49, 78
18, 77880, Note_on_c, 10, 49, 0
18, 77880, Note_on_c, 10, 53, 78
18, 78000, Note_on_c, 10, 53, 0
18, 78000, Note_on_c, 10, 49, 78
18, 78120, Note_on_c, 10, 49, 0
18, 78120, Note_on_c, 10, 53, 78
18, 78240, Note_on_c, 10, 53, 0
18, 78240, Note_on_c, 10, 49, 78
18, 78360, Note_on_c, 10, 49, 0
18, 78360, Note_on_c, 10, 53, 78
18, 78480, Note_on_c, 10, 53, 0
18, 78480, Note_on_c, 10, 49, 78
18, 78600, Note_on_c, 10, 49, 0
18, 78600, Note_on_c, 10, 53, 78
18, 78720, Note_on_c, 10, 53, 0
18, 78720, Note_on_c, 10, 49, 78
18, 78840, Note_on_c, 10, 49, 0
18, 78840, Note_on_c, 10, 53, 78
18, 78960, Note_on_c, 10, 53, 0
18, 78960, Note_on_c, 10, 49, 78
18, 79080, Note_on_c, 10, 49, 0
18, 79080, Note_on_c, 10, 53, 78
18, 79200, Note_on_c, 10, 53, 0
18, 79200, Note_on_c, 10, 52, 78
18, 79320, Note_on_c, 10, 52, 0
18, 79320, Note_on_c, 10, 55, 78
18, 79440, Note_on_c, 10, 55, 0
18, 79440, Note_on_c, 10, 52, 78
18, 79560, Note_on_c, 10, 52, 0
18, 79560, Note_on_c, 10, 55, 78
18, 79680, Note_on_c, 10, 55, 0
18, 79680, Note_on_c, 10, 52, 78
18, 79800, Note_on_c, 10, 52, 0
18, 79800, Note_on_c, 10, 55, 78
18, 79920, Note_on_c, 10, 55, 0
18, 79920, Note_on_c, 10, 51, 78
18, 80040, Note_on_c, 10, 51, 0
18, 80040, Note_on_c, 10, 53, 78
18, 80160, Note_on_c, 10, 53, 0
18, 80160, Note_on_c, 10, 49, 78
18, 80280, Note_on_c, 10, 49, 0
18, 80280, Note_on_c, 10, 53, 78
18, 80400, Note_on_c, 10, 53, 0
18, 80400, Note_on_c, 10, 49, 78
18, 80520, Note_on_c, 10, 49, 0
18, 80520, Note_on_c, 10, 53, 78
18, 80640, Note_on_c, 10, 53, 0
18, 80640, Note_on_c, 10, 49, 78
18, 80760, Note_on_c, 10, 49, 0
18, 80760, Note_on_c, 10, 51, 78
18, 80880, Note_on_c, 10, 51, 0
18, 80880, Note_on_c, 10, 48, 78
18, 81000, Note_on_c, 10, 48, 0
18, 81000, Note_on_c, 10, 51, 78
18, 81120, Note_on_c, 10, 51, 0
18, 81120, Note_on_c, 10, 48, 78
18, 81240, Note_on_c, 10, 48, 0
18, 81240, Note_on_c, 10, 51, 78
18, 81360, Note_on_c, 10, 51, 0
18, 81360, Note_on_c, 10, 39, 78
18, 81360, Note_on_c, 10, 46, 78
18, 81480, Note_on_c, 10, 46, 0
18, 81480, Note_on_c, 10, 39, 0
18, 81480, Note_on_c, 10, 51, 78
18, 81600, Note_on_c, 10, 51, 0
18, 81600, Note_on_c, 10, 39, 78
18, 81600, Note_on_c, 10, 46, 78
18, 81720, Note_on_c, 10, 46, 0
18, 81720, Note_on_c, 10, 39, 0
18, 81720, Note_on_c, 10, 51, 78
18, 81840, Note_on_c, 10, 51, 0
18, 81840, Note_on_c, 10, 39, 78
18, 81840, Note_on_c, 10, 46, 78
18, 81960, Note_on_c, 10, 46, 0
18, 81960, Note_on_c, 10, 39, 0
18, 81960, Note_on_c, 10, 51, 78
18, 82080, Note_on_c, 10, 51, 0
18, 82080, Note_on_c, 10, 44, 78
18, 82320, Note_on_c, 10, 44, 0
18, 82380, Note_on_c, 10, 51, 115
18, 82440, Note_on_c, 10, 51, 0
18, 82440, Note_on_c, 10, 53, 115
18, 82500, Note_on_c, 10, 53, 0
18, 82500, Note_on_c, 10, 55, 115
18, 82560, Note_on_c, 10, 55, 0
18, 82560, Note_on_c, 10, 58, 115
18, 82590, Note_on_c, 10, 58, 0
18, 82590, Note_on_c, 10, 56, 115
18, 82620, Note_on_c, 10, 56, 0
18, 82620, Note_on_c, 10, 55, 115
18, 82680, Note_on_c, 10, 55, 0
18, 82680, Note_on_c, 10, 56, 115
18, 82740, Note_on_c, 10, 56, 0
18, 82740, Note_on_c, 10, 58, 115
18, 82800, Note_on_c, 10, 58, 0
18, 82800, Note_on_c, 10, 60, 115
18, 82860, Note_on_c, 10, 60, 0
18, 82860, Note_on_c, 10, 58, 115
18, 82920, Note_on_c, 10, 58, 0
18, 82920, Note_on_c, 10, 56, 115
18, 82980, Note_on_c, 10, 56, 0
18, 82980, Note_on_c, 10, 55, 115
18, 83040, Note_on_c, 10, 55, 0
18, 83040, Note_on_c, 10, 56, 115
18, 83100, Note_on_c, 10, 56, 0
18, 83100, Note_on_c, 10, 58, 115
18, 83160, Note_on_c, 10, 58, 0
18, 83160, Note_on_c, 10, 56, 115
18, 83220, Note_on_c, 10, 56, 0
18, 83220, Note_on_c, 10, 55, 115
18, 83280, Note_on_c, 10, 55, 0
18, 83280, Note_on_c, 10, 56, 115
18, 83340, Note_on_c, 10, 56, 0
18, 83340, Note_on_c, 10, 58, 115
18, 83400, Note_on_c, 10, 58, 0
18, 83400, Note_on_c, 10, 60, 115
18, 83460, Note_on_c, 10, 60, 0
18, 83460, Note_on_c, 10, 56, 115
18, 83520, Note_on_c, 10, 56, 0
18, 83520, Note_on_c, 10, 53, 115
18, 83580, Note_on_c, 10, 53, 0
18, 83580, Note_on_c, 10, 55, 115
18, 83640, Note_on_c, 10, 55, 0
18, 83640, Note_on_c, 10, 53, 115
18, 83700, Note_on_c, 10, 53, 0
18, 83700, Note_on_c, 10, 52, 115
18, 83760, Note_on_c, 10, 52, 0
18, 83760, Note_on_c, 10, 53, 115
18, 83820, Note_on_c, 10, 53, 0
18, 83820, Note_on_c, 10, 57, 115
18, 83880, Note_on_c, 10, 57, 0
18, 83880, Note_on_c, 10, 58, 115
18, 83940, Note_on_c, 10, 58, 0
18, 83940, Note_on_c, 10, 57, 115
18, 84000, Note_on_c, 10, 57, 0
18, 84000, Note_on_c, 10, 58, 115
18, 84060, Note_on_c, 10, 58, 0
18, 84060, Note_on_c, 10, 60, 115
18, 84120, Note_on_c, 10, 60, 0
18, 84120, Note_on_c, 10, 61, 115
18, 84180, Note_on_c, 10, 61, 0
18, 84180, Note_on_c, 10, 60, 115
18, 84240, Note_on_c, 10, 60, 0
18, 84240, Note_on_c, 10, 61, 115
18, 84300, Note_on_c, 10, 61, 0
18, 84300, Note_on_c, 10, 60, 115
18, 84360, Note_on_c, 10, 60, 0
18, 84360, Note_on_c, 10, 61, 115
18, 84420, Note_on_c, 10, 61, 0
18, 84420, Note_on_c, 10, 60, 115
18, 84480, Note_on_c, 10, 60, 0
18, 84480, Note_on_c, 10, 58, 115
18, 84540, Note_on_c, 10, 58, 0
18, 84540, Note_on_c, 10, 61, 115
18, 84600, Note_on_c, 10, 61, 0
18, 84600, Note_on_c, 10, 56, 115
18, 84660, Note_on_c, 10, 56, 0
18, 84660, Note_on_c, 10, 58, 115
18, 84720, Note_on_c, 10, 58, 0
18, 84720, Note_on_c, 10, 55, 115
18, 84780, Note_on_c, 10, 55, 0
18, 84780, Note_on_c, 10, 56, 115
18, 84840, Note_on_c, 10, 56, 0
18, 84840, Note_on_c, 10, 53, 115
18, 84900, Note_on_c, 10, 53, 0
18, 84900, Note_on_c, 10, 55, 115
18, 84960, Note_on_c, 10, 55, 0
18, 84960, Note_on_c, 10, 52, 115
18, 85020, Note_on_c, 10, 52, 0
18, 85020, Note_on_c, 10, 53, 115
18, 85080, Note_on_c, 10, 53, 0
18, 85080, Note_on_c, 10, 55, 115
18, 85140, Note_on_c, 10, 55, 0
18, 85140, Note_on_c, 10, 52, 115
18, 85200, Note_on_c, 10, 52, 0
18, 85200, Note_on_c, 10, 48, 115
18, 85260, Note_on_c, 10, 48, 0
18, 85260, Note_on_c, 10, 52, 115
18, 85320, Note_on_c, 10, 52, 0
18, 85320, Note_on_c, 10, 55, 115
18, 85380, Note_on_c, 10, 55, 0
18, 85380, Note_on_c, 10, 59, 115
18, 85440, Note_on_c, 10, 59, 0
18, 85440, Note_on_c, 10, 60, 115
18, 85500, Note_on_c, 10, 60, 0
18, 85500, Note_on_c, 10, 55, 115
18, 85560, Note_on_c, 10, 55, 0
18, 85560, Note_on_c, 10, 60, 115
18, 85620, Note_on_c, 10, 60, 0
18, 85620, Note_on_c, 10, 58, 115
18, 85680, Note_on_c, 10, 58, 0
18, 85680, Note_on_c, 10, 57, 115
18, 85740, Note_on_c, 10, 57, 0
18, 85740, Note_on_c, 10, 55, 115
18, 85800, Note_on_c, 10, 55, 0
18, 85800, Note_on_c, 10, 57, 115
18, 85860, Note_on_c, 10, 57, 0
18, 85860, Note_on_c, 10, 53, 115
18, 85920, Note_on_c, 10, 53, 0
18, 85920, Note_on_c, 10, 58, 115
18, 85980, Note_on_c, 10, 58, 0
18, 85980, Note_on_c, 10, 60, 115
18, 86040, Note_on_c, 10, 60, 0
18, 86040, Note_on_c, 10, 58, 115
18, 86100, Note_on_c, 10, 58, 0
18, 86100, Note_on_c, 10, 57, 115
18, 86160, Note_on_c, 10, 57, 0
18, 86160, Note_on_c, 10, 58, 115
18, 86220, Note_on_c, 10, 58, 0
18, 86220, Note_on_c, 10, 60, 115
18, 86280, Note_on_c, 10, 60, 0
18, 86280, Note_on_c, 10, 61, 115
18, 86340, Note_on_c, 10, 61, 0
18, 86340, Note_on_c, 10, 58, 115
18, 86400, Note_on_c, 10, 58, 0
18, 86400, Note_on_c, 10, 55, 115
18, 86460, Note_on_c, 10, 55, 0
18, 86460, Note_on_c, 10, 53, 115
18, 86520, Note_on_c, 10, 53, 0
18, 86520, Note_on_c, 10, 55, 115
18, 86580, Note_on_c, 10, 55, 0
18, 86580, Note_on_c, 10, 51, 115
18, 86640, Note_on_c, 10, 51, 0
18, 86640, Note_on_c, 10, 56, 115
18, 86700, Note_on_c, 10, 56, 0
18, 86700, Note_on_c, 10, 46, 115
18, 86760, Note_on_c, 10, 46, 0
18, 86760, Note_on_c, 10, 44, 115
18, 86820, Note_on_c, 10, 44, 0
18, 86820, Note_on_c, 10, 43, 115
18, 86880, Note_on_c, 10, 43, 0
18, 86880, Note_on_c, 10, 44, 115
18, 86940, Note_on_c, 10, 44, 0
18, 86940, Note_on_c, 10, 46, 115
18, 87000, Note_on_c, 10, 46, 0
18, 87000, Note_on_c, 10, 48, 115
18, 87060, Note_on_c, 10, 48, 0
18, 87060, Note_on_c, 10, 50, 115
18, 87120, Note_on_c, 10, 50, 0
18, 87120, Note_on_c, 10, 51, 115
18, 87840, Note_on_c, 10, 51, 0
18, 87840, Note_on_c, 10, 51, 115
18, 88200, Note_on_c, 10, 51, 0
18, 88200, Note_on_c, 10, 53, 115
18, 88260, Note_on_c, 10, 53, 0
18, 88260, Note_on_c, 10, 55, 115
18, 88320, Note_on_c, 10, 55, 0
18, 88320, Note_on_c, 10, 56, 115
18, 88380, Note_on_c, 10, 56, 0
18, 88380, Note_on_c, 10, 58, 115
18, 88440, Note_on_c, 10, 58, 0
18, 88440, Note_on_c, 10, 60, 115
18, 88500, Note_on_c, 10, 60, 0
18, 88500, Note_on_c, 10, 62, 115
18, 88560, Note_on_c, 10, 62, 0
18, 88560, Note_on_c, 10, 63, 115
18, 89040, Note_on_c, 10, 63, 0
18, 89040, Note_on_c, 10, 51, 78
18, 89280, Note_on_c, 10, 51, 0
18, 89280, Note_on_c, 10, 51, 78
18, 89520, Note_on_c, 10, 51, 0
18, 89760, Note_on_c, 10, 51, 78
18, 90000, Note_on_c, 10, 51, 0
18, 90000, Note_on_c, 10, 51, 78
18, 90240, Note_on_c, 10, 51, 0
18, 90480, Note_on_c, 10, 51, 78
18, 90720, Note_on_c, 10, 51, 0
18, 90720, Note_on_c, 10, 51, 78
18, 90960, Note_on_c, 10, 51, 0
18, 91200, Note_on_c, 10, 51, 78
18, 91440, Note_on_c, 10, 51, 0
18, 91440, Note_on_c, 10, 51, 78
18, 91680, Note_on_c, 10, 51, 0
18, 91920, Note_on_c, 10, 51, 78
18, 92160, Note_on_c, 10, 51, 0
18, 92160, Note_on_c, 10, 51, 78
18, 92400, Note_on_c, 10, 51, 0
18, 92640, Note_on_c, 10, 51, 78
18, 92880, Note_on_c, 10, 51, 0
18, 92880, Note_on_c, 10, 51, 78
18, 93120, Note_on_c, 10, 51, 0
18, 93360, Note_on_c, 10, 51, 78
18, 93600, Note_on_c, 10, 51, 0
18, 93600, Note_on_c, 10, 51, 78
18, 93840, Note_on_c, 10, 51, 0
18, 94080, Note_on_c, 10, 51, 78
18, 94320, Note_on_c, 10, 51, 0
18, 94320, Note_on_c, 10, 51, 78
18, 94560, Note_on_c, 10, 51, 0
18, 94800, Note_on_c, 10, 51, 78
18, 95040, Note_on_c, 10, 51, 0
18, 95040, Note_on_c, 10, 51, 115
18, 95280, Note_on_c, 10, 51, 0
18, 103560, Note_on_c, 10, 52, 91
18, 103680, Note_on_c, 10, 52, 0
18, 103680, Note_on_c, 10, 53, 91
18, 103800, Note_on_c, 10, 53, 0
18, 103800, Note_on_c, 10, 55, 91
18, 103920, Note_on_c, 10, 55, 0
18, 103920, Note_on_c, 10, 56, 91
18, 104040, Note_on_c, 10, 56, 0
18, 106320, Note_on_c, 10, 48, 123
18, 106500, Note_on_c, 10, 48, 0
18, 106500, Note_on_c, 10, 48, 123
18, 106560, Note_on_c, 10, 48, 0
18, 106560, Note_on_c, 10, 48, 123
18, 106800, Note_on_c, 10, 48, 0
18, 106800, Note_on_c, 10, 48, 123
18, 107040, Note_on_c, 10, 48, 0
18, 107040, Note_on_c, 10, 43, 123
18, 107280, Note_on_c, 10, 43, 0
18, 107280, Note_on_c, 10, 48, 123
18, 108480, Note_on_c, 10, 48, 0
18, 108480, Note_on_c, 10, 48, 123
18, 108660, Note_on_c, 10, 48, 0
18, 108660, Note_on_c, 10, 43, 123
18, 108720, Note_on_c, 10, 43, 0
18, 108720, Note_on_c, 10, 48, 123
18, 108960, Note_on_c, 10, 48, 0
18, 108960, Note_on_c, 10, 48, 123
18, 109200, Note_on_c, 10, 48, 0
18, 109200, Note_on_c, 10, 48, 123
18, 109440, Note_on_c, 10, 48, 0
18, 109440, Note_on_c, 10, 48, 123
18, 110640, Note_on_c, 10, 48, 0
18, 110640, Note_on_c, 10, 48, 123
18, 110820, Note_on_c, 10, 48, 0
18, 110820, Note_on_c, 10, 48, 123
18, 110880, Note_on_c, 10, 48, 0
18, 110880, Note_on_c, 10, 48, 123
18, 111360, Note_on_c, 10, 48, 0
18, 111360, Note_on_c, 10, 48, 123
18, 111540, Note_on_c, 10, 48, 0
18, 111540, Note_on_c, 10, 48, 123
18, 111600, Note_on_c, 10, 48, 0
18, 111600, Note_on_c, 10, 48, 123
18, 112080, Note_on_c, 10, 48, 0
18, 112080, Note_on_c, 10, 48, 123
18, 112260, Note_on_c, 10, 48, 0
18, 112260, Note_on_c, 10, 48, 123
18, 112320, Note_on_c, 10, 48, 0
18, 112320, Note_on_c, 10, 48, 123
18, 113760, Note_on_c, 10, 48, 0
18, 113760, Note_on_c, 10, 48, 91
18, 114000, Note_on_c, 10, 48, 0
18, 114480, Note_on_c, 10, 53, 91
18, 114720, Note_on_c, 10, 53, 0
18, 115200, Note_on_c, 10, 51, 91
18, 115440, Note_on_c, 10, 51, 0
18, 117360, Note_on_c, 10, 46, 91
18, 117420, Note_on_c, 10, 46, 0
18, 117420, Note_on_c, 10, 43, 91
18, 117480, Note_on_c, 10, 43, 0
18, 117480, Note_on_c, 10, 39, 91
18, 117540, Note_on_c, 10, 39, 0
18, 117540, Note_on_c, 10, 43, 91
18, 117600, Note_on_c, 10, 43, 0
18, 117600, Note_on_c, 10, 46, 91
18, 117660, Note_on_c, 10, 46, 0
18, 117660, Note_on_c, 10, 43, 91
18, 117720, Note_on_c, 10, 43, 0
18, 117720, Note_on_c, 10, 39, 91
18, 117780, Note_on_c, 10, 39, 0
18, 117780, Note_on_c, 10, 43, 91
18, 117840, Note_on_c, 10, 43, 0
18, 117840, Note_on_c, 10, 46, 91
18, 117900, Note_on_c, 10, 46, 0
18, 117900, Note_on_c, 10, 43, 91
18, 117960, Note_on_c, 10, 43, 0
18, 117960, Note_on_c, 10, 39, 91
18, 118020, Note_on_c, 10, 39, 0
18, 118020, Note_on_c, 10, 43, 91
18, 118080, Note_on_c, 10, 43, 0
18, 118080, Note_on_c, 10, 46, 91
18, 118320, Note_on_c, 10, 46, 0
18, 120000, Note_on_c, 10, 44, 78
18, 120240, Note_on_c, 10, 44, 0
18, 120240, Note_on_c, 10, 44, 78
18, 120480, Note_on_c, 10, 44, 0
18, 120480, Note_on_c, 10, 44, 78
18, 120720, Note_on_c, 10, 44, 0
18, 120720, Note_on_c, 10, 44, 78
18, 120960, Note_on_c, 10, 44, 0
18, 120960, Note_on_c, 10, 51, 78
18, 121200, Note_on_c, 10, 51, 0
18, 121200, Note_on_c, 10, 51, 78
18, 121440, Note_on_c, 10, 51, 0
18, 121440, Note_on_c, 10, 51, 78
18, 121680, Note_on_c, 10, 51, 0
18, 121680, Note_on_c, 10, 56, 78
18, 121920, Note_on_c, 10, 56, 0
18, 121920, Note_on_c, 10, 56, 78
18, 122160, Note_on_c, 10, 56, 0
18, 122160, Note_on_c, 10, 56, 78
18, 122400, Note_on_c, 10, 56, 0
18, 122400, Note_on_c, 10, 54, 78
18, 122640, Note_on_c, 10, 54, 0
18, 122640, Note_on_c, 10, 54, 78
18, 122880, Note_on_c, 10, 54, 0
18, 122880, Note_on_c, 10, 54, 78
18, 123120, Note_on_c, 10, 54, 0
18, 123120, Note_on_c, 10, 59, 78
18, 123360, Note_on_c, 10, 59, 0
18, 123360, Note_on_c, 10, 59, 78
18, 123600, Note_on_c, 10, 59, 0
18, 123600, Note_on_c, 10, 59, 78
18, 123840, Note_on_c, 10, 59, 0
18, 123840, Note_on_c, 10, 54, 78
18, 124080, Note_on_c, 10, 54, 0
18, 124080, Note_on_c, 10, 54, 78
18, 124320, Note_on_c, 10, 54, 0
18, 124320, Note_on_c, 10, 54, 78
18, 124560, Note_on_c, 10, 54, 0
18, 124560, Note_on_c, 10, 56, 78
18, 124800, Note_on_c, 10, 56, 0
18, 124800, Note_on_c, 10, 56, 78
18, 125040, Note_on_c, 10, 56, 0
18, 125040, Note_on_c, 10, 56, 78
18, 125280, Note_on_c, 10, 56, 0
18, 125280, Note_on_c, 10, 51, 91
18, 125520, Note_on_c, 10, 51, 0
18, 125520, Note_on_c, 10, 51, 91
18, 125640, Note_on_c, 10, 51, 0
18, 125640, Note_on_c, 10, 44, 91
18, 125760, Note_on_c, 10, 44, 0
18, 125760, Note_on_c, 10, 56, 101
18, 125880, Note_on_c, 10, 56, 0
18, 125880, Note_on_c, 10, 56, 101
18, 126000, Note_on_c, 10, 56, 0
18, 126000, Note_on_c, 10, 51, 101
18, 126240, Note_on_c, 10, 51, 0
18, 126240, Note_on_c, 10, 51, 109
18, 126360, Note_on_c, 10, 51, 0
18, 126360, Note_on_c, 10, 51, 109
18, 126480, Note_on_c, 10, 51, 0
18, 126480, Note_on_c, 10, 56, 109
18, 126600, Note_on_c, 10, 56, 0
18, 126600, Note_on_c, 10, 44, 109
18, 126720, Note_on_c, 10, 44, 0
18, 126720, Note_on_c, 10, 51, 115
18, 126840, Note_on_c, 10, 51, 0
18, 126840, Note_on_c, 10, 51, 115
18, 126960, Note_on_c, 10, 51, 0
18, 130080, Note_on_c, 10, 57, 78
18, 130200, Note_on_c, 10, 57, 0
18, 130200, Note_on_c, 10, 58, 78
18, 130320, Note_on_c, 10, 58, 0
18, 130320, Note_on_c, 10, 60, 78
18, 130440, Note_on_c, 10, 60, 0
18, 130440, Note_on_c, 10, 61, 78
18, 130560, Note_on_c, 10, 61, 0
18, 130560, Note_on_c, 10, 63, 78
18, 130680, Note_on_c, 10, 63, 0
18, 130680, Note_on_c, 10, 65, 78
18, 130800, Note_on_c, 10, 65, 0
18, 130800, Note_on_c, 10, 63, 78
18, 130920, Note_on_c, 10, 63, 0
18, 130920, Note_on_c, 10, 61, 78
18, 131040, Note_on_c, 10, 61, 0
18, 131040, Note_on_c, 10, 60, 91
18, 131160, Note_on_c, 10, 60, 0
18, 131160, Note_on_c, 10, 58, 91
18, 131280, Note_on_c, 10, 58, 0
18, 131280, Note_on_c, 10, 56, 91
18, 131400, Note_on_c, 10, 56, 0
18, 131400, Note_on_c, 10, 55, 91
18, 131520, Note_on_c, 10, 55, 0
18, 131520, Note_on_c, 10, 53, 91
18, 131640, Note_on_c, 10, 53, 0
18, 131640, Note_on_c, 10, 51, 91
18, 131760, Note_on_c, 10, 51, 0
18, 131760, Note_on_c, 10, 49, 91
18, 131880, Note_on_c, 10, 49, 0
18, 131880, Note_on_c, 10, 48, 91
18, 132000, Note_on_c, 10, 48, 0
18, 132000, Note_on_c, 10, 46, 91
18, 132120, Note_on_c, 10, 46, 0
18, 132120, Note_on_c, 10, 44, 91
18, 132240, Note_on_c, 10, 44, 0
18, 132240, Note_on_c, 10, 43, 91
18, 132360, Note_on_c, 10, 43, 0
18, 132360, Note_on_c, 10, 41, 91
18, 132480, Note_on_c, 10, 41, 0
18, 132480, Note_on_c, 10, 39, 101
18, 132600, Note_on_c, 10, 39, 0
18, 132600, Note_on_c, 10, 49, 101
18, 132720, Note_on_c, 10, 49, 0
18, 132720, Note_on_c, 10, 48, 109
18, 132840, Note_on_c, 10, 48, 0
18, 132840, Note_on_c, 10, 46, 109
18, 132960, Note_on_c, 10, 46, 0
18, 132960, Note_on_c, 10, 44, 115
18, 133080, Note_on_c, 10, 44, 0
18, 133080, Note_on_c, 10, 43, 115
18, 133200, Note_on_c, 10, 43, 0
18, 133200, Note_on_c, 10, 44, 123
18, 133260, Note_on_c, 10, 44, 0
18, 133260, Note_on_c, 10, 44, 123
18, 133320, Note_on_c, 10, 44, 0
18, 133320, Note_on_c, 10, 44, 123
18, 133380, Note_on_c, 10, 44, 0
18, 133380, Note_on_c, 10, 44, 123
18, 133440, Note_on_c, 10, 44, 0
18, 133440, Note_on_c, 10, 44, 123
18, 133500, Note_on_c, 10, 44, 0
18, 133500, Note_on_c, 10, 44, 123
18, 133560, Note_on_c, 10, 44, 0
18, 133560, Note_on_c, 10, 44, 123
18, 133620, Note_on_c, 10, 44, 0
18, 133620, Note_on_c, 10, 44, 123
18, 133680, Note_on_c, 10, 44, 0
18, 133680, Note_on_c, 10, 44, 123
18, 133740, Note_on_c, 10, 44, 0
18, 133740, Note_on_c, 10, 44, 123
18, 133800, Note_on_c, 10, 44, 0
18, 133800, Note_on_c, 10, 44, 123
18, 133860, Note_on_c, 10, 44, 0
18, 133860, Note_on_c, 10, 44, 123
18, 133920, Note_on_c, 10, 44, 0
18, 133920, Note_on_c, 10, 49, 123
18, 133980, Note_on_c, 10, 49, 0
18, 133980, Note_on_c, 10, 49, 123
18, 134040, Note_on_c, 10, 49, 0
18, 134040, Note_on_c, 10, 49, 123
18, 134100, Note_on_c, 10, 49, 0
18, 134100, Note_on_c, 10, 49, 123
18, 134160, Note_on_c, 10, 49, 0
18, 134160, Note_on_c, 10, 49, 123
18, 134220, Note_on_c, 10, 49, 0
18, 134220, Note_on_c, 10, 49, 123
18, 134280, Note_on_c, 10, 49, 0
18, 134280, Note_on_c, 10, 49, 123
18, 134340, Note_on_c, 10, 49, 0
18, 134340, Note_on_c, 10, 49, 123
18, 134400, Note_on_c, 10, 49, 0
18, 134400, Note_on_c, 10, 49, 123
18, 134460, Note_on_c, 10, 49, 0
18, 134460, Note_on_c, 10, 49, 123
18, 134520, Note_on_c, 10, 49, 0
18, 134520, Note_on_c, 10, 49, 123
18, 134580, Note_on_c, 10, 49, 0
18, 134580, Note_on_c, 10, 49, 123
18, 134640, Note_on_c, 10, 49, 0
18, 134640, Note_on_c, 10, 46, 123
18, 134700, Note_on_c, 10, 46, 0
18, 134700, Note_on_c, 10, 46, 123
18, 134760, Note_on_c, 10, 46, 0
18, 134760, Note_on_c, 10, 46, 123
18, 134820, Note_on_c, 10, 46, 0
18, 134820, Note_on_c, 10, 46, 123
18, 134880, Note_on_c, 10, 46, 0
18, 134880, Note_on_c, 10, 43, 123
18, 134940, Note_on_c, 10, 43, 0
18, 134940, Note_on_c, 10, 43, 123
18, 135000, Note_on_c, 10, 43, 0
18, 135000, Note_on_c, 10, 43, 123
18, 135060, Note_on_c, 10, 43, 0
18, 135060, Note_on_c, 10, 43, 123
18, 135120, Note_on_c, 10, 43, 0
18, 135120, Note_on_c, 10, 46, 123
18, 135180, Note_on_c, 10, 46, 0
18, 135180, Note_on_c, 10, 46, 123
18, 135240, Note_on_c, 10, 46, 0
18, 135240, Note_on_c, 10, 46, 123
18, 135300, Note_on_c, 10, 46, 0
18, 135300, Note_on_c, 10, 46, 123
18, 135360, Note_on_c, 10, 46, 0
18, 135360, Note_on_c, 10, 48, 123
18, 135420, Note_on_c, 10, 48, 0
18, 135420, Note_on_c, 10, 48, 123
18, 135480, Note_on_c, 10, 48, 0
18, 135480, Note_on_c, 10, 48, 123
18, 135540, Note_on_c, 10, 48, 0
18, 135540, Note_on_c, 10, 48, 123
18, 135600, Note_on_c, 10, 48, 0
18, 135600, Note_on_c, 10, 48, 123
18, 135660, Note_on_c, 10, 48, 0
18, 135660, Note_on_c, 10, 48, 123
18, 135720, Note_on_c, 10, 48, 0
18, 135720, Note_on_c, 10, 48, 123
18, 135780, Note_on_c, 10, 48, 0
18, 135780, Note_on_c, 10, 48, 123
18, 135840, Note_on_c, 10, 48, 0
18, 135840, Note_on_c, 10, 48, 123
18, 135900, Note_on_c, 10, 48, 0
18, 135900, Note_on_c, 10, 48, 123
18, 135960, Note_on_c, 10, 48, 0
18, 135960, Note_on_c, 10, 48, 123
18, 136020, Note_on_c, 10, 48, 0
18, 136020, Note_on_c, 10, 48, 123
18, 136080, Note_on_c, 10, 48, 0
18, 136080, Note_on_c, 10, 51, 123
18, 136140, Note_on_c, 10, 51, 0
18, 136140, Note_on_c, 10, 51, 123
18, 136200, Note_on_c, 10, 51, 0
18, 136200, Note_on_c, 10, 51, 123
18, 136260, Note_on_c, 10, 51, 0
18, 136260, Note_on_c, 10, 51, 123
18, 136320, Note_on_c, 10, 51, 0
18, 136320, Note_on_c, 10, 49, 123
18, 136380, Note_on_c, 10, 49, 0
18, 136380, Note_on_c, 10, 49, 123
18, 136440, Note_on_c, 10, 49, 0
18, 136440, Note_on_c, 10, 49, 123
18, 136500, Note_on_c, 10, 49, 0
18, 136500, Note_on_c, 10, 49, 123
18, 136560, Note_on_c, 10, 49, 0
18, 136560, Note_on_c, 10, 46, 123
18, 136620, Note_on_c, 10, 46, 0
18, 136620, Note_on_c, 10, 46, 123
18, 136680, Note_on_c, 10, 46, 0
18, 136680, Note_on_c, 10, 46, 123
18, 136740, Note_on_c, 10, 46, 0
18, 136740, Note_on_c, 10, 46, 123
18, 136800, Note_on_c, 10, 46, 0
18, 136800, Note_on_c, 10, 49, 123
18, 136860, Note_on_c, 10, 49, 0
18, 136860, Note_on_c, 10, 49, 123
18, 136920, Note_on_c, 10, 49, 0
18, 136920, Note_on_c, 10, 49, 123
18, 136980, Note_on_c, 10, 49, 0
18, 136980, Note_on_c, 10, 49, 123
18, 137040, Note_on_c, 10, 49, 0
18, 137040, Note_on_c, 10, 48, 123
18, 137100, Note_on_c, 10, 48, 0
18, 137100, Note_on_c, 10, 48, 123
18, 137160, Note_on_c, 10, 48, 0
18, 137160, Note_on_c, 10, 48, 123
18, 137220, Note_on_c, 10, 48, 0
18, 137220, Note_on_c, 10, 48, 123
18, 137280, Note_on_c, 10, 48, 0
18, 137280, Note_on_c, 10, 44, 123
18, 137340, Note_on_c, 10, 44, 0
18, 137340, Note_on_c, 10, 44, 123
18, 137400, Note_on_c, 10, 44, 0
18, 137400, Note_on_c, 10, 44, 123
18, 137460, Note_on_c, 10, 44, 0
18, 137460, Note_on_c, 10, 44, 123
18, 137520, Note_on_c, 10, 44, 0
18, 137520, Note_on_c, 10, 39, 123
18, 137580, Note_on_c, 10, 39, 0
18, 137580, Note_on_c, 10, 38, 123
18, 137640, Note_on_c, 10, 38, 0
18, 137640, Note_on_c, 10, 39, 123
18, 137700, Note_on_c, 10, 39, 0
18, 137700, Note_on_c, 10, 41, 123
18, 137760, Note_on_c, 10, 41, 0
18, 137760, Note_on_c, 10, 43, 123
18, 137820, Note_on_c, 10, 43, 0
18, 137820, Note_on_c, 10, 44, 123
18, 137880, Note_on_c, 10, 44, 0
18, 137880, Note_on_c, 10, 46, 123
18, 137940, Note_on_c, 10, 46, 0
18, 137940, Note_on_c, 10, 48, 123
18, 138000, Note_on_c, 10, 48, 0
18, 138000, Note_on_c, 10, 49, 123
18, 138060, Note_on_c, 10, 49, 0
18, 138060, Note_on_c, 10, 51, 123
18, 138120, Note_on_c, 10, 51, 0
18, 138120, Note_on_c, 10, 53, 123
18, 138180, Note_on_c, 10, 53, 0
18, 138180, Note_on_c, 10, 55, 123
18, 138240, Note_on_c, 10, 55, 0
18, 138240, Note_on_c, 10, 56, 123
18, 138480, Note_on_c, 10, 56, 0
18, 138720, Note_on_c, 10, 56, 123
18, 138900, Note_on_c, 10, 56, 0
18, 138900, Note_on_c, 10, 60, 123
18, 138960, Note_on_c, 10, 60, 0
18, 138960, Note_on_c, 10, 63, 123
18, 139680, Note_on_c, 10, 63, 0
18, 139680, Note_on_c, 10, 60, 123
18, 139740, Note_on_c, 10, 60, 0
18, 139740, Note_on_c, 10, 44, 123
18, 139800, Note_on_c, 10, 44, 0
18, 139800, Note_on_c, 10, 46, 123
18, 139860, Note_on_c, 10, 46, 0
18, 139860, Note_on_c, 10, 48, 123
18, 139920, Note_on_c, 10, 48, 0
18, 139920, Note_on_c, 10, 49, 123
18, 139980, Note_on_c, 10, 49, 0
18, 139980, Note_on_c, 10, 51, 123
18, 140040, Note_on_c, 10, 51, 0
18, 140040, Note_on_c, 10, 53, 123
18, 140100, Note_on_c, 10, 53, 0
18, 140100, Note_on_c, 10, 55, 123
18, 140160, Note_on_c, 10, 55, 0
18, 140160, Note_on_c, 10, 56, 123
18, 140220, Note_on_c, 10, 56, 0
18, 140220, Note_on_c, 10, 58, 123
18, 140280, Note_on_c, 10, 58, 0
18, 140280, Note_on_c, 10, 60, 123
18, 140340, Note_on_c, 10, 60, 0
18, 140340, Note_on_c, 10, 61, 123
18, 140400, Note_on_c, 10, 61, 0
18, 140400, Note_on_c, 10, 63, 123
18, 140640, Note_on_c, 10, 63, 0
18, 144000, Note_on_c, 10, 53, 91
18, 144720, Note_on_c, 10, 53, 0
18, 144720, Note_on_c, 10, 48, 91
18, 145440, Note_on_c, 10, 48, 0
18, 145440, Note_on_c, 10, 51, 91
18, 145680, Note_on_c, 10, 51, 0
18, 145680, Note_on_c, 10, 51, 91
18, 145920, Note_on_c, 10, 51, 0
18, 145920, Note_on_c, 10, 51, 91
18, 146160, Note_on_c, 10, 51, 0
18, 146160, Note_on_c, 10, 44, 91
18, 146400, Note_on_c, 10, 44, 0
18, 146640, Note_on_c, 10, 51, 91
18, 146880, Note_on_c, 10, 51, 0
18, 146880, Note_on_c, 10, 44, 91
18, 147120, Note_on_c, 10, 44, 0
18, 147360, Note_on_c, 10, 39, 91
18, 147600, Note_on_c, 10, 39, 0
18, 147600, Note_on_c, 10, 44, 91
18, 147720, Note_on_c, 10, 44, 0
18, 147840, Note_on_c, 10, 44, 78
18, 147960, Note_on_c, 10, 44, 0
18, 148080, Note_on_c, 10, 44, 78
18, 148200, Note_on_c, 10, 44, 0
18, 148320, Note_on_c, 10, 44, 78
18, 148440, Note_on_c, 10, 44, 0
18, 148560, Note_on_c, 10, 44, 78
18, 148680, Note_on_c, 10, 44, 0
18, 148800, Note_on_c, 10, 44, 78
18, 148920, Note_on_c, 10, 44, 0
18, 149040, Note_on_c, 10, 44, 78
18, 149160, Note_on_c, 10, 44, 0
18, 149280, Note_on_c, 10, 44, 78
18, 149400, Note_on_c, 10, 44, 0
18, 149520, Note_on_c, 10, 44, 78
18, 149640, Note_on_c, 10, 44, 0
18, 149760, Note_on_c, 10, 44, 78
18, 149880, Note_on_c, 10, 44, 0
18, 150000, Note_on_c, 10, 44, 78
18, 150120, Note_on_c, 10, 44, 0
18, 150240, Note_on_c, 10, 44, 78
18, 150360, Note_on_c, 10, 44, 0
18, 150480, Note_on_c, 10, 44, 78
18, 150600, Note_on_c, 10, 44, 0
18, 150720, Note_on_c, 10, 44, 78
18, 150840, Note_on_c, 10, 44, 0
18, 150960, Note_on_c, 10, 51, 78
18, 151080, Note_on_c, 10, 51, 0
18, 151080, Note_on_c, 10, 53, 78
18, 151200, Note_on_c, 10, 53, 0
18, 151200, Note_on_c, 10, 54, 78
18, 151320, Note_on_c, 10, 54, 0
18, 151320, Note_on_c, 10, 53, 78
18, 151440, Note_on_c, 10, 53, 0
18, 151440, Note_on_c, 10, 51, 78
18, 151560, Note_on_c, 10, 51, 0
18, 151560, Note_on_c, 10, 53, 78
18, 151680, Note_on_c, 10, 53, 0
18, 151680, Note_on_c, 10, 54, 78
18, 151800, Note_on_c, 10, 54, 0
18, 151800, Note_on_c, 10, 51, 78
18, 151920, Note_on_c, 10, 51, 0
18, 151920, Note_on_c, 10, 53, 78
18, 152040, Note_on_c, 10, 53, 0
18, 152040, Note_on_c, 10, 51, 78
18, 152160, Note_on_c, 10, 51, 0
18, 152160, Note_on_c, 10, 49, 78
18, 152280, Note_on_c, 10, 49, 0
18, 152280, Note_on_c, 10, 51, 78
18, 152400, Note_on_c, 10, 51, 0
18, 152400, Note_on_c, 10, 53, 78
18, 152520, Note_on_c, 10, 53, 0
18, 152520, Note_on_c, 10, 49, 78
18, 152640, Note_on_c, 10, 49, 0
18, 152640, Note_on_c, 10, 52, 78
18, 152760, Note_on_c, 10, 52, 0
18, 152760, Note_on_c, 10, 51, 78
18, 152880, Note_on_c, 10, 51, 0
18, 152880, Note_on_c, 10, 49, 78
18, 153000, Note_on_c, 10, 49, 0
18, 153000, Note_on_c, 10, 51, 78
18, 153120, Note_on_c, 10, 51, 0
18, 153120, Note_on_c, 10, 52, 78
18, 153240, Note_on_c, 10, 52, 0
18, 153240, Note_on_c, 10, 49, 78
18, 153360, Note_on_c, 10, 49, 0
18, 153360, Note_on_c, 10, 51, 78
18, 153600, Note_on_c, 10, 51, 0
18, 153780, Note_on_c, 10, 44, 101
18, 153840, Note_on_c, 10, 44, 0
18, 153840, Note_on_c, 10, 48, 101
18, 154020, Note_on_c, 10, 48, 0
18, 154020, Note_on_c, 10, 51, 101
18, 154080, Note_on_c, 10, 51, 0
18, 154080, Note_on_c, 10, 56, 109
18, 154320, Note_on_c, 10, 56, 0
18, 154320, Note_on_c, 10, 60, 109
18, 154560, Note_on_c, 10, 60, 0
18, 154560, Note_on_c, 10, 63, 115
18, 154800, Note_on_c, 10, 63, 0
18, 154800, Note_on_c, 10, 60, 115
18, 155040, Note_on_c, 10, 60, 0
18, 155220, Note_on_c, 10, 44, 91
18, 155280, Note_on_c, 10, 44, 0
18, 155280, Note_on_c, 10, 48, 91
18, 155460, Note_on_c, 10, 48, 0
18, 155460, Note_on_c, 10, 51, 91
18, 155520, Note_on_c, 10, 51, 0
18, 155520, Note_on_c, 10, 56, 101
18, 155600, Note_on_c, 10, 56, 0
18, 155600, Note_on_c, 10, 60, 101
18, 155680, Note_on_c, 10, 60, 0
18, 155680, Note_on_c, 10, 63, 101
18, 155760, Note_on_c, 10, 63, 0
18, 155760, Note_on_c, 10, 56, 109
18, 156000, Note_on_c, 10, 56, 0
18, 156000, Note_on_c, 10, 51, 115
18, 156240, Note_on_c, 10, 51, 0
18, 156240, Note_on_c, 10, 56, 115
18, 156480, Note_on_c, 10, 56, 0
18, 156560, Note_on_c, 10, 44, 91
18, 156640, Note_on_c, 10, 44, 0
18, 156640, Note_on_c, 10, 48, 91
18, 156720, Note_on_c, 10, 48, 0
18, 156720, Note_on_c, 10, 51, 101
18, 156800, Note_on_c, 10, 51, 0
18, 156800, Note_on_c, 10, 56, 109
18, 156880, Note_on_c, 10, 56, 0
18, 156880, Note_on_c, 10, 60, 115
18, 156960, Note_on_c, 10, 60, 0
18, 156960, Note_on_c, 10, 51, 123
18, 157040, Note_on_c, 10, 51, 0
18, 157040, Note_on_c, 10, 56, 123
18, 157120, Note_on_c, 10, 56, 0
18, 157120, Note_on_c, 10, 60, 123
18, 157200, Note_on_c, 10, 60, 0
18, 157200, Note_on_c, 10, 63, 123
18, 157440, Note_on_c, 10, 63, 0
18, 161280, Note_on_c, 10, 53, 101
18, 162000, Note_on_c, 10, 53, 0
18, 162000, Note_on_c, 10, 49, 115
18, 162240, Note_on_c, 10, 49, 0
18, 162240, Note_on_c, 10, 56, 115
18, 162600, Note_on_c, 10, 56, 0
18, 162600, Note_on_c, 10, 56, 115
18, 162720, Note_on_c, 10, 56, 0
18, 162720, Note_on_c, 10, 58, 115
18, 162960, Note_on_c, 10, 58, 0
18, 162960, Note_on_c, 10, 60, 115
18, 163320, Note_on_c, 10, 60, 0
18, 163320, Note_on_c, 10, 48, 101
18, 163440, Note_on_c, 10, 48, 0
18, 163440, Note_on_c, 10, 49, 91
18, 163680, Note_on_c, 10, 49, 0
18, 164160, Note_on_c, 10, 51, 78
18, 164400, Note_on_c, 10, 51, 0
18, 164880, Note_on_c, 10, 44, 78
18, 166080, Note_on_c, 10, 44, 0
18, 166080, Note_on_c, 10, 44, 78
18, 166260, Note_on_c, 10, 44, 0
18, 166260, Note_on_c, 10, 44, 78
18, 166320, Note_on_c, 10, 44, 0
18, 166320, Note_on_c, 10, 44, 78
18, 167520, Note_on_c, 10, 44, 0
18, 167520, Note_on_c, 10, 44, 78
18, 167700, Note_on_c, 10, 44, 0
18, 167700, Note_on_c, 10, 44, 78
18, 167760, Note_on_c, 10, 44, 0
18, 167760, Note_on_c, 10, 44, 78
18, 169680, Note_on_c, 10, 44, 0
18, 169680, Note_on_c, 10, 36, 91
18, 169860, Note_on_c, 10, 36, 0
18, 169860, Note_on_c, 10, 39, 91
18, 169920, Note_on_c, 10, 39, 0
18, 169920, Note_on_c, 10, 44, 91
18, 170400, Note_on_c, 10, 44, 0
18, 170400, Note_on_c, 10, 36, 91
18, 170580, Note_on_c, 10, 36, 0
18, 170580, Note_on_c, 10, 39, 91
18, 170640, Note_on_c, 10, 39, 0
18, 170640, Note_on_c, 10, 44, 91
18, 170880, Note_on_c, 10, 44, 0
18, 170880, Note_on_c, 10, 36, 101
18, 171060, Note_on_c, 10, 36, 0
18, 171060, Note_on_c, 10, 39, 101
18, 171120, Note_on_c, 10, 39, 0
18, 171120, Note_on_c, 10, 44, 101
18, 171360, Note_on_c, 10, 44, 0
18, 171360, Note_on_c, 10, 36, 109
18, 171540, Note_on_c, 10, 36, 0
18, 171540, Note_on_c, 10, 39, 109
18, 171600, Note_on_c, 10, 39, 0
18, 171600, Note_on_c, 10, 44, 109
18, 171840, Note_on_c, 10, 44, 0
18, 171840, Note_on_c, 10, 36, 109
18, 172020, Note_on_c, 10, 36, 0
18, 172020, Note_on_c, 10, 39, 109
18, 172080, Note_on_c, 10, 39, 0
18, 172080, Note_on_c, 10, 44, 115
18, 172160, Note_on_c, 10, 44, 0
18, 172160, Note_on_c, 10, 36, 115
18, 172240, Note_on_c, 10, 36, 0
18, 172240, Note_on_c, 10, 39, 115
18, 172320, Note_on_c, 10, 39, 0
18, 172320, Note_on_c, 10, 44, 115
18, 172400, Note_on_c, 10, 44, 0
18, 172400, Note_on_c, 10, 36, 115
18, 172480, Note_on_c, 10, 36, 0
18, 172480, Note_on_c, 10, 39, 115
18, 172560, Note_on_c, 10, 39, 0
18, 172560, Note_on_c, 10, 44, 115
18, 172640, Note_on_c, 10, 44, 0
18, 172640, Note_on_c, 10, 36, 115
18, 172720, Note_on_c, 10, 36, 0
18, 172720, Note_on_c, 10, 39, 115
18, 172800, Note_on_c, 10, 39, 0
18, 172800, Note_on_c, 10, 44, 115
18, 172880, Note_on_c, 10, 44, 0
18, 172880, Note_on_c, 10, 36, 115
18, 172960, Note_on_c, 10, 36, 0
18, 172960, Note_on_c, 10, 39, 115
18, 173040, Note_on_c, 10, 39, 0
18, 173040, Note_on_c, 10, 44, 115
18, 173120, Note_on_c, 10, 44, 0
18, 173120, Note_on_c, 10, 48, 115
18, 173200, Note_on_c, 10, 48, 0
18, 173200, Note_on_c, 10, 51, 115
18, 173280, Note_on_c, 10, 51, 0
18, 173280, Note_on_c, 10, 56, 115
18, 173360, Note_on_c, 10, 56, 0
18, 173360, Note_on_c, 10, 56, 115
18, 173440, Note_on_c, 10, 56, 0
18, 173440, Note_on_c, 10, 56, 115
18, 173520, Note_on_c, 10, 56, 0
18, 173520, Note_on_c, 10, 56, 115
18, 173600, Note_on_c, 10, 56, 0
18, 173600, Note_on_c, 10, 56, 115
18, 173680, Note_on_c, 10, 56, 0
18, 173680, Note_on_c, 10, 56, 115
18, 173760, Note_on_c, 10, 56, 0
18, 173760, Note_on_c, 10, 51, 115
18, 173840, Note_on_c, 10, 51, 0
18, 173840, Note_on_c, 10, 51, 115
18, 173920, Note_on_c, 10, 51, 0
18, 173920, Note_on_c, 10, 51, 115
18, 174000, Note_on_c, 10, 51, 0
18, 174000, Note_on_c, 10, 48, 115
18, 174080, Note_on_c, 10, 48, 0
18, 174080, Note_on_c, 10, 48, 115
18, 174160, Note_on_c, 10, 48, 0
18, 174160, Note_on_c, 10, 48, 115
18, 174240, Note_on_c, 10, 48, 0
18, 174240, Note_on_c, 10, 44, 123
18, 174480, Note_on_c, 10, 44, 0
18, 174960, Note_on_c, 10, 51, 123
18, 175200, Note_on_c, 10, 51, 0
18, 175680, Note_on_c, 10, 56, 123
18, 175920, Note_on_c, 10, 56, 0
18, 176160, Note_on_c, 10, 51, 91
18, 176400, Note_on_c, 10, 51, 0
18, 176400, Note_on_c, 10, 56, 91
18, 176640, Note_on_c, 10, 56, 0
18, 177120, Note_on_c, 10, 51, 123
18, 177360, Note_on_c, 10, 51, 0
18, 177840, Note_on_c, 10, 44, 123
18, 178080, Note_on_c, 10, 44, 0
18, 178080, End_track
19, 0, Start_track
19, 0, MIDI_port, 0
19, 0, Title_t, "Double Basses"
19, 0, Program_c, 11, 43
19, 720, Note_on_c, 11, 32, 91
19, 1200, Note_on_c, 11, 32, 0
19, 1440, Note_on_c, 11, 37, 91
19, 1920, Note_on_c, 11, 37, 0
19, 2160, Note_on_c, 11, 34, 91
19, 2400, Note_on_c, 11, 34, 0
19, 2400, Note_on_c, 11, 31, 91
19, 2640, Note_on_c, 11, 31, 0
19, 2640, Note_on_c, 11, 34, 91
19, 2880, Note_on_c, 11, 34, 0
19, 2880, Note_on_c, 11, 36, 91
19, 3360, Note_on_c, 11, 36, 0
19, 3600, Note_on_c, 11, 41, 91
19, 3840, Note_on_c, 11, 41, 0
19, 3840, Note_on_c, 11, 31, 91
19, 4080, Note_on_c, 11, 31, 0
19, 4320, Note_on_c, 11, 39, 91
19, 4560, Note_on_c, 11, 39, 0
19, 4560, Note_on_c, 11, 32, 91
19, 4800, Note_on_c, 11, 32, 0
19, 5040, Note_on_c, 11, 27, 101
19, 5280, Note_on_c, 11, 27, 0
19, 5760, Note_on_c, 11, 32, 91
19, 6000, Note_on_c, 11, 32, 0
19, 6240, Note_on_c, 11, 36, 91
19, 6420, Note_on_c, 11, 36, 0
19, 6420, Note_on_c, 11, 32, 91
19, 6480, Note_on_c, 11, 32, 0
19, 6480, Note_on_c, 11, 27, 115
19, 7200, Note_on_c, 11, 27, 0
19, 7200, Note_on_c, 11, 32, 91
19, 7440, Note_on_c, 11, 32, 0
19, 11520, Note_on_c, 11, 41, 91
19, 12240, Note_on_c, 11, 41, 0
19, 12240, Note_on_c, 11, 36, 91
19, 12960, Note_on_c, 11, 36, 0
19, 12960, Note_on_c, 11, 39, 115
19, 13200, Note_on_c, 11, 39, 0
19, 13200, Note_on_c, 11, 39, 115
19, 13440, Note_on_c, 11, 39, 0
19, 13440, Note_on_c, 11, 39, 115
19, 13680, Note_on_c, 11, 39, 0
19, 13680, Note_on_c, 11, 32, 91
19, 13920, Note_on_c, 11, 32, 0
19, 14880, Note_on_c, 11, 39, 115
19, 15120, Note_on_c, 11, 39, 0
19, 15120, Note_on_c, 11, 32, 115
19, 15240, Note_on_c, 11, 32, 0
19, 15360, Note_on_c, 11, 32, 91
19, 15480, Note_on_c, 11, 32, 0
19, 15600, Note_on_c, 11, 32, 91
19, 15720, Note_on_c, 11, 32, 0
19, 15840, Note_on_c, 11, 32, 91
19, 16080, Note_on_c, 11, 32, 0
19, 16560, Note_on_c, 11, 44, 91
19, 16800, Note_on_c, 11, 44, 0
19, 16800, Note_on_c, 11, 44, 91
19, 17040, Note_on_c, 11, 44, 0
19, 17040, Note_on_c, 11, 39, 91
19, 17280, Note_on_c, 11, 39, 0
19, 17280, Note_on_c, 11, 32, 91
19, 17520, Note_on_c, 11, 32, 0
19, 18000, Note_on_c, 11, 44, 91
19, 18240, Note_on_c, 11, 44, 0
19, 18240, Note_on_c, 11, 44, 91
19, 18480, Note_on_c, 11, 44, 0
19, 18480, Note_on_c, 11, 44, 91
19, 18720, Note_on_c, 11, 44, 0
19, 18720, Note_on_c, 11, 44, 91
19, 19200, Note_on_c, 11, 44, 0
19, 20880, Note_on_c, 11, 32, 123
19, 21600, Note_on_c, 11, 32, 0
19, 21600, Note_on_c, 11, 31, 123
19, 21840, Note_on_c, 11, 31, 0
19, 21840, Note_on_c, 11, 31, 123
19, 22080, Note_on_c, 11, 31, 0
19, 22080, Note_on_c, 11, 31, 123
19, 22320, Note_on_c, 11, 31, 0
19, 22320, Note_on_c, 11, 36, 123
19, 22560, Note_on_c, 11, 36, 0
19, 22560, Note_on_c, 11, 36, 123
19, 22800, Note_on_c, 11, 36, 0
19, 23040, Note_on_c, 11, 36, 123
19, 23280, Note_on_c, 11, 36, 0
19, 23280, Note_on_c, 11, 36, 123
19, 23520, Note_on_c, 11, 36, 0
19, 23520, Note_on_c, 11, 31, 123
19, 23760, Note_on_c, 11, 31, 0
19, 23760, Note_on_c, 11, 36, 123
19, 24240, Note_on_c, 11, 36, 0
19, 24240, Note_on_c, 11, 36, 123
19, 24420, Note_on_c, 11, 36, 0
19, 24420, Note_on_c, 11, 36, 123
19, 24480, Note_on_c, 11, 36, 0
19, 24480, Note_on_c, 11, 36, 123
19, 24720, Note_on_c, 11, 36, 0
19, 24720, Note_on_c, 11, 36, 123
19, 24960, Note_on_c, 11, 36, 0
19, 24960, Note_on_c, 11, 36, 123
19, 25200, Note_on_c, 11, 36, 0
19, 25200, Note_on_c, 11, 36, 123
19, 25680, Note_on_c, 11, 36, 0
19, 25680, Note_on_c, 11, 36, 123
19, 25860, Note_on_c, 11, 36, 0
19, 25860, Note_on_c, 11, 36, 123
19, 25920, Note_on_c, 11, 36, 0
19, 25920, Note_on_c, 11, 36, 123
19, 26400, Note_on_c, 11, 36, 0
19, 26400, Note_on_c, 11, 36, 123
19, 26580, Note_on_c, 11, 36, 0
19, 26580, Note_on_c, 11, 36, 123
19, 26640, Note_on_c, 11, 36, 0
19, 26640, Note_on_c, 11, 36, 123
19, 26880, Note_on_c, 11, 36, 0
19, 34560, Note_on_c, 11, 39, 115
19, 34800, Note_on_c, 11, 39, 0
19, 35760, Note_on_c, 11, 32, 91
19, 36000, Note_on_c, 11, 32, 0
19, 36000, Note_on_c, 11, 32, 91
19, 36480, Note_on_c, 11, 32, 0
19, 36720, Note_on_c, 11, 37, 91
19, 37200, Note_on_c, 11, 37, 0
19, 37440, Note_on_c, 11, 34, 91
19, 37680, Note_on_c, 11, 34, 0
19, 37680, Note_on_c, 11, 31, 91
19, 37920, Note_on_c, 11, 31, 0
19, 37920, Note_on_c, 11, 34, 91
19, 38160, Note_on_c, 11, 34, 0
19, 38160, Note_on_c, 11, 36, 91
19, 38400, Note_on_c, 11, 36, 0
19, 38640, Note_on_c, 11, 36, 91
19, 38880, Note_on_c, 11, 36, 0
19, 38880, Note_on_c, 11, 41, 91
19, 39120, Note_on_c, 11, 41, 0
19, 39120, Note_on_c, 11, 34, 91
19, 39360, Note_on_c, 11, 34, 0
19, 39600, Note_on_c, 11, 39, 91
19, 39840, Note_on_c, 11, 39, 0
19, 39840, Note_on_c, 11, 32, 91
19, 40080, Note_on_c, 11, 32, 0
19, 40320, Note_on_c, 11, 27, 115
19, 40560, Note_on_c, 11, 27, 0
19, 40560, Note_on_c, 11, 27, 115
19, 40800, Note_on_c, 11, 27, 0
19, 40800, Note_on_c, 11, 27, 115
19, 41040, Note_on_c, 11, 27, 0
19, 41040, Note_on_c, 11, 32, 91
19, 41280, Note_on_c, 11, 32, 0
19, 41400, Note_on_c, 11, 36, 91
19, 41520, Note_on_c, 11, 36, 0
19, 41520, Note_on_c, 11, 36, 101
19, 41640, Note_on_c, 11, 36, 0
19, 41640, Note_on_c, 11, 32, 109
19, 41760, Note_on_c, 11, 32, 0
19, 41760, Note_on_c, 11, 27, 115
19, 42480, Note_on_c, 11, 27, 0
19, 42480, Note_on_c, 11, 32, 91
19, 42720, Note_on_c, 11, 32, 0
19, 46800, Note_on_c, 11, 41, 91
19, 47520, Note_on_c, 11, 41, 0
19, 47520, Note_on_c, 11, 36, 101
19, 48240, Note_on_c, 11, 36, 0
19, 48240, Note_on_c, 11, 39, 115
19, 48480, Note_on_c, 11, 39, 0
19, 48480, Note_on_c, 11, 39, 115
19, 48720, Note_on_c, 11, 39, 0
19, 48720, Note_on_c, 11, 39, 115
19, 48960, Note_on_c, 11, 39, 0
19, 48960, Note_on_c, 11, 32, 91
19, 49200, Note_on_c, 11, 32, 0
19, 50160, Note_on_c, 11, 39, 115
19, 50400, Note_on_c, 11, 39, 0
19, 50400, Note_on_c, 11, 32, 115
19, 50520, Note_on_c, 11, 32, 0
19, 50640, Note_on_c, 11, 32, 91
19, 50760, Note_on_c, 11, 32, 0
19, 50880, Note_on_c, 11, 32, 91
19, 51000, Note_on_c, 11, 32, 0
19, 51120, Note_on_c, 11, 32, 91
19, 51360, Note_on_c, 11, 32, 0
19, 51840, Note_on_c, 11, 44, 91
19, 52080, Note_on_c, 11, 44, 0
19, 52080, Note_on_c, 11, 44, 91
19, 52320, Note_on_c, 11, 44, 0
19, 52320, Note_on_c, 11, 39, 91
19, 52560, Note_on_c, 11, 39, 0
19, 52560, Note_on_c, 11, 32, 91
19, 52800, Note_on_c, 11, 32, 0
19, 53280, Note_on_c, 11, 32, 91
19, 53520, Note_on_c, 11, 32, 0
19, 53520, Note_on_c, 11, 44, 91
19, 53760, Note_on_c, 11, 44, 0
19, 53760, Note_on_c, 11, 44, 91
19, 54000, Note_on_c, 11, 44, 0
19, 54000, Note_on_c, 11, 44, 91
19, 54240, Note_on_c, 11, 44, 0
19, 56160, Note_on_c, 11, 32, 123
19, 56220, Note_on_c, 11, 32, 0
19, 56220, Note_on_c, 11, 32, 123
19, 56280, Note_on_c, 11, 32, 0
19, 56280, Note_on_c, 11, 32, 123
19, 56340, Note_on_c, 11, 32, 0
19, 56340, Note_on_c, 11, 32, 123
19, 56400, Note_on_c, 11, 32, 0
19, 56400, Note_on_c, 11, 32, 123
19, 56460, Note_on_c, 11, 32, 0
19, 56460, Note_on_c, 11, 32, 123
19, 56520, Note_on_c, 11, 32, 0
19, 56520, Note_on_c, 11, 32, 123
19, 56580, Note_on_c, 11, 32, 0
19, 56580, Note_on_c, 11, 32, 123
19, 56640, Note_on_c, 11, 32, 0
19, 56640, Note_on_c, 11, 32, 123
19, 56700, Note_on_c, 11, 32, 0
19, 56700, Note_on_c, 11, 32, 123
19, 56760, Note_on_c, 11, 32, 0
19, 56760, Note_on_c, 11, 32, 123
19, 56820, Note_on_c, 11, 32, 0
19, 56820, Note_on_c, 11, 32, 123
19, 56880, Note_on_c, 11, 32, 0
19, 56880, Note_on_c, 11, 31, 123
19, 57000, Note_on_c, 11, 31, 0
19, 57000, Note_on_c, 11, 36, 123
19, 57060, Note_on_c, 11, 36, 0
19, 57060, Note_on_c, 11, 40, 123
19, 57120, Note_on_c, 11, 40, 0
19, 57120, Note_on_c, 11, 43, 123
19, 57360, Note_on_c, 11, 43, 0
19, 57360, Note_on_c, 11, 31, 123
19, 57600, Note_on_c, 11, 31, 0
19, 57600, Note_on_c, 11, 36, 123
19, 57840, Note_on_c, 11, 36, 0
19, 57840, Note_on_c, 11, 36, 123
19, 58080, Note_on_c, 11, 36, 0
19, 58320, Note_on_c, 11, 36, 123
19, 58560, Note_on_c, 11, 36, 0
19, 58560, Note_on_c, 11, 36, 123
19, 58800, Note_on_c, 11, 36, 0
19, 58800, Note_on_c, 11, 31, 123
19, 59040, Note_on_c, 11, 31, 0
19, 59040, Note_on_c, 11, 36, 123
19, 59520, Note_on_c, 11, 36, 0
19, 59520, Note_on_c, 11, 36, 123
19, 59700, Note_on_c, 11, 36, 0
19, 59700, Note_on_c, 11, 36, 123
19, 59760, Note_on_c, 11, 36, 0
19, 59760, Note_on_c, 11, 36, 123
19, 60000, Note_on_c, 11, 36, 0
19, 60000, Note_on_c, 11, 36, 123
19, 60240, Note_on_c, 11, 36, 0
19, 60240, Note_on_c, 11, 36, 123
19, 60480, Note_on_c, 11, 36, 0
19, 60480, Note_on_c, 11, 36, 123
19, 60960, Note_on_c, 11, 36, 0
19, 60960, Note_on_c, 11, 36, 123
19, 61140, Note_on_c, 11, 36, 0
19, 61140, Note_on_c, 11, 36, 123
19, 61200, Note_on_c, 11, 36, 0
19, 61200, Note_on_c, 11, 36, 123
19, 61680, Note_on_c, 11, 36, 0
19, 61680, Note_on_c, 11, 36, 123
19, 61860, Note_on_c, 11, 36, 0
19, 61860, Note_on_c, 11, 36, 123
19, 61920, Note_on_c, 11, 36, 0
19, 61920, Note_on_c, 11, 36, 123
19, 62160, Note_on_c, 11, 36, 0
19, 69840, Note_on_c, 11, 39, 115
19, 70080, Note_on_c, 11, 39, 0
19, 71040, Note_on_c, 11, 32, 91
19, 71280, Note_on_c, 11, 32, 0
19, 71280, Note_on_c, 11, 32, 91
19, 71520, Note_on_c, 11, 32, 0
19, 71520, Note_on_c, 11, 32, 91
19, 71760, Note_on_c, 11, 32, 0
19, 71880, Note_on_c, 11, 32, 91
19, 72000, Note_on_c, 11, 32, 0
19, 72000, Note_on_c, 11, 37, 91
19, 72240, Note_on_c, 11, 37, 0
19, 72240, Note_on_c, 11, 37, 91
19, 72480, Note_on_c, 11, 37, 0
19, 72600, Note_on_c, 11, 37, 91
19, 72720, Note_on_c, 11, 37, 0
19, 72720, Note_on_c, 11, 34, 91
19, 72960, Note_on_c, 11, 34, 0
19, 72960, Note_on_c, 11, 34, 91
19, 73200, Note_on_c, 11, 34, 0
19, 73320, Note_on_c, 11, 34, 91
19, 73440, Note_on_c, 11, 34, 0
19, 73440, Note_on_c, 11, 36, 91
19, 73680, Note_on_c, 11, 36, 0
19, 73680, Note_on_c, 11, 36, 91
19, 73920, Note_on_c, 11, 36, 0
19, 74040, Note_on_c, 11, 36, 91
19, 74160, Note_on_c, 11, 36, 0
19, 74160, Note_on_c, 11, 41, 91
19, 74400, Note_on_c, 11, 41, 0
19, 74400, Note_on_c, 11, 34, 91
19, 74640, Note_on_c, 11, 34, 0
19, 74760, Note_on_c, 11, 34, 91
19, 74880, Note_on_c, 11, 34, 0
19, 74880, Note_on_c, 11, 39, 91
19, 75120, Note_on_c, 11, 39, 0
19, 75120, Note_on_c, 11, 32, 91
19, 75360, Note_on_c, 11, 32, 0
19, 75480, Note_on_c, 11, 32, 91
19, 75600, Note_on_c, 11, 32, 0
19, 75600, Note_on_c, 11, 27, 91
19, 75840, Note_on_c, 11, 27, 0
19, 75840, Note_on_c, 11, 27, 91
19, 76080, Note_on_c, 11, 27, 0
19, 76080, Note_on_c, 11, 27, 91
19, 76320, Note_on_c, 11, 27, 0
19, 76320, Note_on_c, 11, 32, 91
19, 76560, Note_on_c, 11, 32, 0
19, 77040, Note_on_c, 11, 32, 78
19, 77760, Note_on_c, 11, 32, 0
19, 77760, Note_on_c, 11, 37, 78
19, 78480, Note_on_c, 11, 37, 0
19, 78480, Note_on_c, 11, 34, 78
19, 79200, Note_on_c, 11, 34, 0
19, 79200, Note_on_c, 11, 36, 78
19, 79920, Note_on_c, 11, 36, 0
19, 79920, Note_on_c, 11, 41, 78
19, 80160, Note_on_c, 11, 41, 0
19, 80160, Note_on_c, 11, 34, 78
19, 80640, Note_on_c, 11, 34, 0
19, 80640, Note_on_c, 11, 39, 78
19, 80880, Note_on_c, 11, 39, 0
19, 80880, Note_on_c, 11, 32, 78
19, 81360, Note_on_c, 11, 32, 0
19, 81360, Note_on_c, 11, 27, 78
19, 82080, Note_on_c, 11, 27, 0
19, 82080, Note_on_c, 11, 32, 78
19, 82320, Note_on_c, 11, 32, 0
19, 82380, Note_on_c, 11, 39, 115
19, 82440, Note_on_c, 11, 39, 0
19, 82440, Note_on_c, 11, 41, 115
19, 82500, Note_on_c, 11, 41, 0
19, 82500, Note_on_c, 11, 43, 115
19, 82560, Note_on_c, 11, 43, 0
19, 82560, Note_on_c, 11, 46, 115
19, 82590, Note_on_c, 11, 46, 0
19, 82590, Note_on_c, 11, 44, 115
19, 82620, Note_on_c, 11, 44, 0
19, 82620, Note_on_c, 11, 43, 115
19, 82680, Note_on_c, 11, 43, 0
19, 82680, Note_on_c, 11, 44, 115
19, 82740, Note_on_c, 11, 44, 0
19, 82740, Note_on_c, 11, 46, 115
19, 82800, Note_on_c, 11, 46, 0
19, 82800, Note_on_c, 11, 48, 115
19, 82860, Note_on_c, 11, 48, 0
19, 82860, Note_on_c, 11, 46, 115
19, 82920, Note_on_c, 11, 46, 0
19, 82920, Note_on_c, 11, 44, 115
19, 82980, Note_on_c, 11, 44, 0
19, 82980, Note_on_c, 11, 43, 115
19, 83040, Note_on_c, 11, 43, 0
19, 83040, Note_on_c, 11, 44, 115
19, 83100, Note_on_c, 11, 44, 0
19, 83100, Note_on_c, 11, 46, 115
19, 83160, Note_on_c, 11, 46, 0
19, 83160, Note_on_c, 11, 44, 115
19, 83220, Note_on_c, 11, 44, 0
19, 83220, Note_on_c, 11, 43, 115
19, 83280, Note_on_c, 11, 43, 0
19, 83280, Note_on_c, 11, 44, 115
19, 83340, Note_on_c, 11, 44, 0
19, 83340, Note_on_c, 11, 46, 115
19, 83400, Note_on_c, 11, 46, 0
19, 83400, Note_on_c, 11, 48, 115
19, 83460, Note_on_c, 11, 48, 0
19, 83460, Note_on_c, 11, 44, 115
19, 83520, Note_on_c, 11, 44, 0
19, 83520, Note_on_c, 11, 41, 115
19, 83580, Note_on_c, 11, 41, 0
19, 83580, Note_on_c, 11, 43, 115
19, 83640, Note_on_c, 11, 43, 0
19, 83640, Note_on_c, 11, 41, 115
19, 83700, Note_on_c, 11, 41, 0
19, 83700, Note_on_c, 11, 40, 115
19, 83760, Note_on_c, 11, 40, 0
19, 83760, Note_on_c, 11, 41, 115
19, 83820, Note_on_c, 11, 41, 0
19, 83820, Note_on_c, 11, 45, 115
19, 83880, Note_on_c, 11, 45, 0
19, 83880, Note_on_c, 11, 46, 115
19, 83940, Note_on_c, 11, 46, 0
19, 83940, Note_on_c, 11, 45, 115
19, 84000, Note_on_c, 11, 45, 0
19, 84000, Note_on_c, 11, 46, 115
19, 84060, Note_on_c, 11, 46, 0
19, 84060, Note_on_c, 11, 48, 115
19, 84120, Note_on_c, 11, 48, 0
19, 84120, Note_on_c, 11, 49, 115
19, 84180, Note_on_c, 11, 49, 0
19, 84180, Note_on_c, 11, 48, 115
19, 84240, Note_on_c, 11, 48, 0
19, 84240, Note_on_c, 11, 49, 115
19, 84300, Note_on_c, 11, 49, 0
19, 84300, Note_on_c, 11, 48, 115
19, 84360, Note_on_c, 11, 48, 0
19, 84360, Note_on_c, 11, 49, 115
19, 84420, Note_on_c, 11, 49, 0
19, 84420, Note_on_c, 11, 48, 115
19, 84480, Note_on_c, 11, 48, 0
19, 84480, Note_on_c, 11, 46, 115
19, 84540, Note_on_c, 11, 46, 0
19, 84540, Note_on_c, 11, 49, 115
19, 84600, Note_on_c, 11, 49, 0
19, 84600, Note_on_c, 11, 44, 115
19, 84660, Note_on_c, 11, 44, 0
19, 84660, Note_on_c, 11, 46, 115
19, 84720, Note_on_c, 11, 46, 0
19, 84720, Note_on_c, 11, 43, 115
19, 84780, Note_on_c, 11, 43, 0
19, 84780, Note_on_c, 11, 44, 115
19, 84840, Note_on_c, 11, 44, 0
19, 84840, Note_on_c, 11, 41, 115
19, 84900, Note_on_c, 11, 41, 0
19, 84900, Note_on_c, 11, 43, 115
19, 84960, Note_on_c, 11, 43, 0
19, 84960, Note_on_c, 11, 40, 115
19, 85020, Note_on_c, 11, 40, 0
19, 85020, Note_on_c, 11, 41, 115
19, 85080, Note_on_c, 11, 41, 0
19, 85080, Note_on_c, 11, 43, 115
19, 85140, Note_on_c, 11, 43, 0
19, 85140, Note_on_c, 11, 40, 115
19, 85200, Note_on_c, 11, 40, 0
19, 85200, Note_on_c, 11, 36, 115
19, 85260, Note_on_c, 11, 36, 0
19, 85260, Note_on_c, 11, 40, 115
19, 85320, Note_on_c, 11, 40, 0
19, 85320, Note_on_c, 11, 43, 115
19, 85380, Note_on_c, 11, 43, 0
19, 85380, Note_on_c, 11, 47, 115
19, 85440, Note_on_c, 11, 47, 0
19, 85440, Note_on_c, 11, 48, 115
19, 85500, Note_on_c, 11, 48, 0
19, 85500, Note_on_c, 11, 43, 115
19, 85560, Note_on_c, 11, 43, 0
19, 85560, Note_on_c, 11, 48, 115
19, 85620, Note_on_c, 11, 48, 0
19, 85620, Note_on_c, 11, 46, 115
19, 85680, Note_on_c, 11, 46, 0
19, 85680, Note_on_c, 11, 45, 115
19, 85740, Note_on_c, 11, 45, 0
19, 85740, Note_on_c, 11, 43, 115
19, 85800, Note_on_c, 11, 43, 0
19, 85800, Note_on_c, 11, 45, 115
19, 85860, Note_on_c, 11, 45, 0
19, 85860, Note_on_c, 11, 41, 115
19, 85920, Note_on_c, 11, 41, 0
19, 85920, Note_on_c, 11, 46, 115
19, 85980, Note_on_c, 11, 46, 0
19, 85980, Note_on_c, 11, 48, 115
19, 86040, Note_on_c, 11, 48, 0
19, 86040, Note_on_c, 11, 46, 115
19, 86100, Note_on_c, 11, 46, 0
19, 86100, Note_on_c, 11, 45, 115
19, 86160, Note_on_c, 11, 45, 0
19, 86160, Note_on_c, 11, 46, 115
19, 86220, Note_on_c, 11, 46, 0
19, 86220, Note_on_c, 11, 48, 115
19, 86280, Note_on_c, 11, 48, 0
19, 86280, Note_on_c, 11, 49, 115
19, 86340, Note_on_c, 11, 49, 0
19, 86340, Note_on_c, 11, 46, 115
19, 86400, Note_on_c, 11, 46, 0
19, 86400, Note_on_c, 11, 43, 115
19, 86460, Note_on_c, 11, 43, 0
19, 86460, Note_on_c, 11, 41, 115
19, 86520, Note_on_c, 11, 41, 0
19, 86520, Note_on_c, 11, 43, 115
19, 86580, Note_on_c, 11, 43, 0
19, 86580, Note_on_c, 11, 39, 115
19, 86640, Note_on_c, 11, 39, 0
19, 86640, Note_on_c, 11, 44, 115
19, 86700, Note_on_c, 11, 44, 0
19, 86700, Note_on_c, 11, 34, 115
19, 86760, Note_on_c, 11, 34, 0
19, 86760, Note_on_c, 11, 32, 115
19, 86820, Note_on_c, 11, 32, 0
19, 86820, Note_on_c, 11, 31, 115
19, 86880, Note_on_c, 11, 31, 0
19, 86880, Note_on_c, 11, 32, 115
19, 86940, Note_on_c, 11, 32, 0
19, 86940, Note_on_c, 11, 34, 115
19, 87000, Note_on_c, 11, 34, 0
19, 87000, Note_on_c, 11, 36, 115
19, 87060, Note_on_c, 11, 36, 0
19, 87060, Note_on_c, 11, 38, 115
19, 87120, Note_on_c, 11, 38, 0
19, 87120, Note_on_c, 11, 39, 115
19, 87840, Note_on_c, 11, 39, 0
19, 87840, Note_on_c, 11, 39, 115
19, 88200, Note_on_c, 11, 39, 0
19, 88200, Note_on_c, 11, 41, 115
19, 88260, Note_on_c, 11, 41, 0
19, 88260, Note_on_c, 11, 43, 115
19, 88320, Note_on_c, 11, 43, 0
19, 88320, Note_on_c, 11, 44, 115
19, 88380, Note_on_c, 11, 44, 0
19, 88380, Note_on_c, 11, 46, 115
19, 88440, Note_on_c, 11, 46, 0
19, 88440, Note_on_c, 11, 48, 115
19, 88500, Note_on_c, 11, 48, 0
19, 88500, Note_on_c, 11, 50, 115
19, 88560, Note_on_c, 11, 50, 0
19, 88560, Note_on_c, 11, 51, 115
19, 89040, Note_on_c, 11, 51, 0
19, 89040, Note_on_c, 11, 39, 78
19, 89280, Note_on_c, 11, 39, 0
19, 89280, Note_on_c, 11, 39, 78
19, 89520, Note_on_c, 11, 39, 0
19, 89760, Note_on_c, 11, 39, 78
19, 90000, Note_on_c, 11, 39, 0
19, 90000, Note_on_c, 11, 39, 78
19, 90240, Note_on_c, 11, 39, 0
19, 90480, Note_on_c, 11, 39, 78
19, 90720, Note_on_c, 11, 39, 0
19, 90720, Note_on_c, 11, 39, 78
19, 90960, Note_on_c, 11, 39, 0
19, 91200, Note_on_c, 11, 39, 78
19, 91440, Note_on_c, 11, 39, 0
19, 91440, Note_on_c, 11, 39, 78
19, 91680, Note_on_c, 11, 39, 0
19, 91920, Note_on_c, 11, 39, 78
19, 92160, Note_on_c, 11, 39, 0
19, 92160, Note_on_c, 11, 39, 78
19, 92400, Note_on_c, 11, 39, 0
19, 92640, Note_on_c, 11, 39, 78
19, 92880, Note_on_c, 11, 39, 0
19, 92880, Note_on_c, 11, 39, 78
19, 93120, Note_on_c, 11, 39, 0
19, 93360, Note_on_c, 11, 39, 78
19, 93600, Note_on_c, 11, 39, 0
19, 93600, Note_on_c, 11, 39, 78
19, 93840, Note_on_c, 11, 39, 0
19, 94080, Note_on_c, 11, 39, 78
19, 94320, Note_on_c, 11, 39, 0
19, 94320, Note_on_c, 11, 39, 78
19, 94560, Note_on_c, 11, 39, 0
19, 94800, Note_on_c, 11, 39, 78
19, 95040, Note_on_c, 11, 39, 0
19, 95040, Note_on_c, 11, 39, 115
19, 95280, Note_on_c, 11, 39, 0
19, 103560, Note_on_c, 11, 40, 91
19, 103680, Note_on_c, 11, 40, 0
19, 103680, Note_on_c, 11, 41, 91
19, 103800, Note_on_c, 11, 41, 0
19, 103800, Note_on_c, 11, 43, 91
19, 103920, Note_on_c, 11, 43, 0
19, 103920, Note_on_c, 11, 44, 91
19, 104040, Note_on_c, 11, 44, 0
19, 106320, Note_on_c, 11, 36, 123
19, 106500, Note_on_c, 11, 36, 0
19, 106500, Note_on_c, 11, 36, 123
19, 106560, Note_on_c, 11, 36, 0
19, 106560, Note_on_c, 11, 36, 123
19, 106800, Note_on_c, 11, 36, 0
19, 106800, Note_on_c, 11, 36, 123
19, 107040, Note_on_c, 11, 36, 0
19, 107040, Note_on_c, 11, 31, 123
19, 107280, Note_on_c, 11, 31, 0
19, 107280, Note_on_c, 11, 36, 123
19, 108480, Note_on_c, 11, 36, 0
19, 108480, Note_on_c, 11, 36, 123
19, 108660, Note_on_c, 11, 36, 0
19, 108660, Note_on_c, 11, 31, 123
19, 108720, Note_on_c, 11, 31, 0
19, 108720, Note_on_c, 11, 36, 123
19, 108960, Note_on_c, 11, 36, 0
19, 108960, Note_on_c, 11, 36, 123
19, 109200, Note_on_c, 11, 36, 0
19, 109200, Note_on_c, 11, 36, 123
19, 109440, Note_on_c, 11, 36, 0
19, 109440, Note_on_c, 11, 36, 123
19, 110640, Note_on_c, 11, 36, 0
19, 110640, Note_on_c, 11, 36, 123
19, 110820, Note_on_c, 11, 36, 0
19, 110820, Note_on_c, 11, 36, 123
19, 110880, Note_on_c, 11, 36, 0
19, 110880, Note_on_c, 11, 36, 123
19, 111360, Note_on_c, 11, 36, 0
19, 111360, Note_on_c, 11, 36, 123
19, 111540, Note_on_c, 11, 36, 0
19, 111540, Note_on_c, 11, 36, 123
19, 111600, Note_on_c, 11, 36, 0
19, 111600, Note_on_c, 11, 36, 123
19, 112080, Note_on_c, 11, 36, 0
19, 112080, Note_on_c, 11, 36, 123
19, 112260, Note_on_c, 11, 36, 0
19, 112260, Note_on_c, 11, 36, 123
19, 112320, Note_on_c, 11, 36, 0
19, 112320, Note_on_c, 11, 36, 123
19, 113760, Note_on_c, 11, 36, 0
19, 113760, Note_on_c, 11, 36, 91
19, 114000, Note_on_c, 11, 36, 0
19, 114480, Note_on_c, 11, 41, 91
19, 114720, Note_on_c, 11, 41, 0
19, 115200, Note_on_c, 11, 39, 91
19, 115440, Note_on_c, 11, 39, 0
19, 120000, Note_on_c, 11, 32, 78
19, 120240, Note_on_c, 11, 32, 0
19, 120240, Note_on_c, 11, 32, 78
19, 120480, Note_on_c, 11, 32, 0
19, 120480, Note_on_c, 11, 32, 78
19, 120720, Note_on_c, 11, 32, 0
19, 120720, Note_on_c, 11, 32, 78
19, 120960, Note_on_c, 11, 32, 0
19, 120960, Note_on_c, 11, 39, 78
19, 121200, Note_on_c, 11, 39, 0
19, 121200, Note_on_c, 11, 39, 78
19, 121440, Note_on_c, 11, 39, 0
19, 121440, Note_on_c, 11, 39, 78
19, 121680, Note_on_c, 11, 39, 0
19, 121680, Note_on_c, 11, 44, 78
19, 121920, Note_on_c, 11, 44, 0
19, 121920, Note_on_c, 11, 44, 78
19, 122160, Note_on_c, 11, 44, 0
19, 122160, Note_on_c, 11, 44, 78
19, 122400, Note_on_c, 11, 44, 0
19, 122400, Note_on_c, 11, 42, 78
19, 122640, Note_on_c, 11, 42, 0
19, 122640, Note_on_c, 11, 42, 78
19, 122880, Note_on_c, 11, 42, 0
19, 122880, Note_on_c, 11, 42, 78
19, 123120, Note_on_c, 11, 42, 0
19, 123120, Note_on_c, 11, 47, 78
19, 123360, Note_on_c, 11, 47, 0
19, 123360, Note_on_c, 11, 47, 78
19, 123600, Note_on_c, 11, 47, 0
19, 123600, Note_on_c, 11, 47, 78
19, 123840, Note_on_c, 11, 47, 0
19, 123840, Note_on_c, 11, 42, 78
19, 124080, Note_on_c, 11, 42, 0
19, 124080, Note_on_c, 11, 42, 78
19, 124320, Note_on_c, 11, 42, 0
19, 124320, Note_on_c, 11, 42, 78
19, 124560, Note_on_c, 11, 42, 0
19, 124560, Note_on_c, 11, 44, 78
19, 124800, Note_on_c, 11, 44, 0
19, 124800, Note_on_c, 11, 44, 78
19, 125040, Note_on_c, 11, 44, 0
19, 125040, Note_on_c, 11, 44, 78
19, 125280, Note_on_c, 11, 44, 0
19, 125280, Note_on_c, 11, 39, 91
19, 125520, Note_on_c, 11, 39, 0
19, 125520, Note_on_c, 11, 39, 91
19, 125640, Note_on_c, 11, 39, 0
19, 125640, Note_on_c, 11, 32, 91
19, 125760, Note_on_c, 11, 32, 0
19, 125760, Note_on_c, 11, 44, 101
19, 125880, Note_on_c, 11, 44, 0
19, 125880, Note_on_c, 11, 44, 101
19, 126000, Note_on_c, 11, 44, 0
19, 126000, Note_on_c, 11, 39, 101
19, 126240, Note_on_c, 11, 39, 0
19, 126240, Note_on_c, 11, 39, 109
19, 126360, Note_on_c, 11, 39, 0
19, 126360, Note_on_c, 11, 39, 109
19, 126480, Note_on_c, 11, 39, 0
19, 126480, Note_on_c, 11, 44, 109
19, 126600, Note_on_c, 11, 44, 0
19, 126600, Note_on_c, 11, 32, 109
19, 126720, Note_on_c, 11, 32, 0
19, 126720, Note_on_c, 11, 39, 115
19, 126840, Note_on_c, 11, 39, 0
19, 126840, Note_on_c, 11, 39, 115
19, 126960, Note_on_c, 11, 39, 0
19, 130080, Note_on_c, 11, 45, 78
19, 130200, Note_on_c, 11, 45, 0
19, 130200, Note_on_c, 11, 46, 78
19, 130320, Note_on_c, 11, 46, 0
19, 130320, Note_on_c, 11, 48, 78
19, 130440, Note_on_c, 11, 48, 0
19, 130440, Note_on_c, 11, 49, 78
19, 130560, Note_on_c, 11, 49, 0
19, 130560, Note_on_c, 11, 51, 78
19, 130680, Note_on_c, 11, 51, 0
19, 130680, Note_on_c, 11, 53, 78
19, 130800, Note_on_c, 11, 53, 0
19, 130800, Note_on_c, 11, 51, 78
19, 130920, Note_on_c, 11, 51, 0
19, 130920, Note_on_c, 11, 49, 78
19, 131040, Note_on_c, 11, 49, 0
19, 131040, Note_on_c, 11, 48, 91
19, 131160, Note_on_c, 11, 48, 0
19, 131160, Note_on_c, 11, 46, 91
19, 131280, Note_on_c, 11, 46, 0
19, 131280, Note_on_c, 11, 44, 91
19, 131400, Note_on_c, 11, 44, 0
19, 131400, Note_on_c, 11, 43, 91
19, 131520, Note_on_c, 11, 43, 0
19, 131520, Note_on_c, 11, 41, 91
19, 131640, Note_on_c, 11, 41, 0
19, 131640, Note_on_c, 11, 39, 91
19, 131760, Note_on_c, 11, 39, 0
19, 131760, Note_on_c, 11, 37, 91
19, 131880, Note_on_c, 11, 37, 0
19, 131880, Note_on_c, 11, 36, 91
19, 132000, Note_on_c, 11, 36, 0
19, 132000, Note_on_c, 11, 34, 91
19, 132120, Note_on_c, 11, 34, 0
19, 132120, Note_on_c, 11, 32, 91
19, 132240, Note_on_c, 11, 32, 0
19, 132240, Note_on_c, 11, 31, 91
19, 132360, Note_on_c, 11, 31, 0
19, 132360, Note_on_c, 11, 29, 91
19, 132480, Note_on_c, 11, 29, 0
19, 132480, Note_on_c, 11, 27, 101
19, 132600, Note_on_c, 11, 27, 0
19, 132600, Note_on_c, 11, 37, 101
19, 132720, Note_on_c, 11, 37, 0
19, 132720, Note_on_c, 11, 36, 109
19, 132840, Note_on_c, 11, 36, 0
19, 132840, Note_on_c, 11, 34, 109
19, 132960, Note_on_c, 11, 34, 0
19, 132960, Note_on_c, 11, 32, 115
19, 133080, Note_on_c, 11, 32, 0
19, 133080, Note_on_c, 11, 31, 115
19, 133200, Note_on_c, 11, 31, 0
19, 133200, Note_on_c, 11, 32, 123
19, 133260, Note_on_c, 11, 32, 0
19, 133260, Note_on_c, 11, 32, 123
19, 133320, Note_on_c, 11, 32, 0
19, 133320, Note_on_c, 11, 32, 123
19, 133380, Note_on_c, 11, 32, 0
19, 133380, Note_on_c, 11, 32, 123
19, 133440, Note_on_c, 11, 32, 0
19, 133440, Note_on_c, 11, 32, 123
19, 133500, Note_on_c, 11, 32, 0
19, 133500, Note_on_c, 11, 32, 123
19, 133560, Note_on_c, 11, 32, 0
19, 133560, Note_on_c, 11, 32, 123
19, 133620, Note_on_c, 11, 32, 0
19, 133620, Note_on_c, 11, 32, 123
19, 133680, Note_on_c, 11, 32, 0
19, 133680, Note_on_c, 11, 32, 123
19, 133740, Note_on_c, 11, 32, 0
19, 133740, Note_on_c, 11, 32, 123
19, 133800, Note_on_c, 11, 32, 0
19, 133800, Note_on_c, 11, 32, 123
19, 133860, Note_on_c, 11, 32, 0
19, 133860, Note_on_c, 11, 32, 123
19, 133920, Note_on_c, 11, 32, 0
19, 133920, Note_on_c, 11, 37, 123
19, 133980, Note_on_c, 11, 37, 0
19, 133980, Note_on_c, 11, 37, 123
19, 134040, Note_on_c, 11, 37, 0
19, 134040, Note_on_c, 11, 37, 123
19, 134100, Note_on_c, 11, 37, 0
19, 134100, Note_on_c, 11, 37, 123
19, 134160, Note_on_c, 11, 37, 0
19, 134160, Note_on_c, 11, 37, 123
19, 134220, Note_on_c, 11, 37, 0
19, 134220, Note_on_c, 11, 37, 123
19, 134280, Note_on_c, 11, 37, 0
19, 134280, Note_on_c, 11, 37, 123
19, 134340, Note_on_c, 11, 37, 0
19, 134340, Note_on_c, 11, 37, 123
19, 134400, Note_on_c, 11, 37, 0
19, 134400, Note_on_c, 11, 37, 123
19, 134460, Note_on_c, 11, 37, 0
19, 134460, Note_on_c, 11, 37, 123
19, 134520, Note_on_c, 11, 37, 0
19, 134520, Note_on_c, 11, 37, 123
19, 134580, Note_on_c, 11, 37, 0
19, 134580, Note_on_c, 11, 37, 123
19, 134640, Note_on_c, 11, 37, 0
19, 134640, Note_on_c, 11, 34, 123
19, 134700, Note_on_c, 11, 34, 0
19, 134700, Note_on_c, 11, 34, 123
19, 134760, Note_on_c, 11, 34, 0
19, 134760, Note_on_c, 11, 34, 123
19, 134820, Note_on_c, 11, 34, 0
19, 134820, Note_on_c, 11, 34, 123
19, 134880, Note_on_c, 11, 34, 0
19, 134880, Note_on_c, 11, 31, 123
19, 134940, Note_on_c, 11, 31, 0
19, 134940, Note_on_c, 11, 31, 123
19, 135000, Note_on_c, 11, 31, 0
19, 135000, Note_on_c, 11, 31, 123
19, 135060, Note_on_c, 11, 31, 0
19, 135060, Note_on_c, 11, 31, 123
19, 135120, Note_on_c, 11, 31, 0
19, 135120, Note_on_c, 11, 34, 123
19, 135180, Note_on_c, 11, 34, 0
19, 135180, Note_on_c, 11, 34, 123
19, 135240, Note_on_c, 11, 34, 0
19, 135240, Note_on_c, 11, 34, 123
19, 135300, Note_on_c, 11, 34, 0
19, 135300, Note_on_c, 11, 34, 123
19, 135360, Note_on_c, 11, 34, 0
19, 135360, Note_on_c, 11, 36, 123
19, 135420, Note_on_c, 11, 36, 0
19, 135420, Note_on_c, 11, 36, 123
19, 135480, Note_on_c, 11, 36, 0
19, 135480, Note_on_c, 11, 36, 123
19, 135540, Note_on_c, 11, 36, 0
19, 135540, Note_on_c, 11, 36, 123
19, 135600, Note_on_c, 11, 36, 0
19, 135600, Note_on_c, 11, 36, 123
19, 135660, Note_on_c, 11, 36, 0
19, 135660, Note_on_c, 11, 36, 123
19, 135720, Note_on_c, 11, 36, 0
19, 135720, Note_on_c, 11, 36, 123
19, 135780, Note_on_c, 11, 36, 0
19, 135780, Note_on_c, 11, 36, 123
19, 135840, Note_on_c, 11, 36, 0
19, 135840, Note_on_c, 11, 36, 123
19, 135900, Note_on_c, 11, 36, 0
19, 135900, Note_on_c, 11, 36, 123
19, 135960, Note_on_c, 11, 36, 0
19, 135960, Note_on_c, 11, 36, 123
19, 136020, Note_on_c, 11, 36, 0
19, 136020, Note_on_c, 11, 36, 123
19, 136080, Note_on_c, 11, 36, 0
19, 136080, Note_on_c, 11, 39, 123
19, 136140, Note_on_c, 11, 39, 0
19, 136140, Note_on_c, 11, 39, 123
19, 136200, Note_on_c, 11, 39, 0
19, 136200, Note_on_c, 11, 39, 123
19, 136260, Note_on_c, 11, 39, 0
19, 136260, Note_on_c, 11, 39, 123
19, 136320, Note_on_c, 11, 39, 0
19, 136320, Note_on_c, 11, 37, 123
19, 136380, Note_on_c, 11, 37, 0
19, 136380, Note_on_c, 11, 37, 123
19, 136440, Note_on_c, 11, 37, 0
19, 136440, Note_on_c, 11, 37, 123
19, 136500, Note_on_c, 11, 37, 0
19, 136500, Note_on_c, 11, 37, 123
19, 136560, Note_on_c, 11, 37, 0
19, 136560, Note_on_c, 11, 34, 123
19, 136620, Note_on_c, 11, 34, 0
19, 136620, Note_on_c, 11, 34, 123
19, 136680, Note_on_c, 11, 34, 0
19, 136680, Note_on_c, 11, 34, 123
19, 136740, Note_on_c, 11, 34, 0
19, 136740, Note_on_c, 11, 34, 123
19, 136800, Note_on_c, 11, 34, 0
19, 136800, Note_on_c, 11, 37, 123
19, 136860, Note_on_c, 11, 37, 0
19, 136860, Note_on_c, 11, 37, 123
19, 136920, Note_on_c, 11, 37, 0
19, 136920, Note_on_c, 11, 37, 123
19, 136980, Note_on_c, 11, 37, 0
19, 136980, Note_on_c, 11, 37, 123
19, 137040, Note_on_c, 11, 37, 0
19, 137040, Note_on_c, 11, 36, 123
19, 137100, Note_on_c, 11, 36, 0
19, 137100, Note_on_c, 11, 36, 123
19, 137160, Note_on_c, 11, 36, 0
19, 137160, Note_on_c, 11, 36, 123
19, 137220, Note_on_c, 11, 36, 0
19, 137220, Note_on_c, 11, 36, 123
19, 137280, Note_on_c, 11, 36, 0
19, 137280, Note_on_c, 11, 32, 123
19, 137340, Note_on_c, 11, 32, 0
19, 137340, Note_on_c, 11, 32, 123
19, 137400, Note_on_c, 11, 32, 0
19, 137400, Note_on_c, 11, 32, 123
19, 137460, Note_on_c, 11, 32, 0
19, 137460, Note_on_c, 11, 32, 123
19, 137520, Note_on_c, 11, 32, 0
19, 137520, Note_on_c, 11, 27, 123
19, 137580, Note_on_c, 11, 27, 0
19, 137580, Note_on_c, 11, 26, 123
19, 137640, Note_on_c, 11, 26, 0
19, 137640, Note_on_c, 11, 27, 123
19, 137700, Note_on_c, 11, 27, 0
19, 137700, Note_on_c, 11, 29, 123
19, 137760, Note_on_c, 11, 29, 0
19, 137760, Note_on_c, 11, 31, 123
19, 137820, Note_on_c, 11, 31, 0
19, 137820, Note_on_c, 11, 32, 123
19, 137880, Note_on_c, 11, 32, 0
19, 137880, Note_on_c, 11, 34, 123
19, 137940, Note_on_c, 11, 34, 0
19, 137940, Note_on_c, 11, 36, 123
19, 138000, Note_on_c, 11, 36, 0
19, 138000, Note_on_c, 11, 37, 123
19, 138060, Note_on_c, 11, 37, 0
19, 138060, Note_on_c, 11, 39, 123
19, 138120, Note_on_c, 11, 39, 0
19, 138120, Note_on_c, 11, 41, 123
19, 138180, Note_on_c, 11, 41, 0
19, 138180, Note_on_c, 11, 43, 123
19, 138240, Note_on_c, 11, 43, 0
19, 138240, Note_on_c, 11, 44, 123
19, 138480, Note_on_c, 11, 44, 0
19, 138720, Note_on_c, 11, 44, 123
19, 138900, Note_on_c, 11, 44, 0
19, 138900, Note_on_c, 11, 48, 123
19, 138960, Note_on_c, 11, 48, 0
19, 138960, Note_on_c, 11, 51, 123
19, 139680, Note_on_c, 11, 51, 0
19, 139680, Note_on_c, 11, 48, 123
19, 139740, Note_on_c, 11, 48, 0
19, 139740, Note_on_c, 11, 32, 123
19, 139800, Note_on_c, 11, 32, 0
19, 139800, Note_on_c, 11, 34, 123
19, 139860, Note_on_c, 11, 34, 0
19, 139860, Note_on_c, 11, 36, 123
19, 139920, Note_on_c, 11, 36, 0
19, 139920, Note_on_c, 11, 37, 123
19, 139980, Note_on_c, 11, 37, 0
19, 139980, Note_on_c, 11, 39, 123
19, 140040, Note_on_c, 11, 39, 0
19, 140040, Note_on_c, 11, 41, 123
19, 140100, Note_on_c, 11, 41, 0
19, 140100, Note_on_c, 11, 43, 123
19, 140160, Note_on_c, 11, 43, 0
19, 140160, Note_on_c, 11, 44, 123
19, 140220, Note_on_c, 11, 44, 0
19, 140220, Note_on_c, 11, 46, 123
19, 140280, Note_on_c, 11, 46, 0
19, 140280, Note_on_c, 11, 48, 123
19, 140340, Note_on_c, 11, 48, 0
19, 140340, Note_on_c, 11, 49, 123
19, 140400, Note_on_c, 11, 49, 0
19, 140400, Note_on_c, 11, 51, 123
19, 140640, Note_on_c, 11, 51, 0
19, 144000, Note_on_c, 11, 41, 91
19, 144720, Note_on_c, 11, 41, 0
19, 144720, Note_on_c, 11, 36, 91
19, 145440, Note_on_c, 11, 36, 0
19, 145440, Note_on_c, 11, 39, 91
19, 145680, Note_on_c, 11, 39, 0
19, 145680, Note_on_c, 11, 39, 91
19, 145920, Note_on_c, 11, 39, 0
19, 145920, Note_on_c, 11, 39, 91
19, 146160, Note_on_c, 11, 39, 0
19, 146160, Note_on_c, 11, 32, 91
19, 146400, Note_on_c, 11, 32, 0
19, 146640, Note_on_c, 11, 39, 91
19, 146880, Note_on_c, 11, 39, 0
19, 146880, Note_on_c, 11, 32, 91
19, 147120, Note_on_c, 11, 32, 0
19, 147360, Note_on_c, 11, 27, 91
19, 147600, Note_on_c, 11, 27, 0
19, 147600, Note_on_c, 11, 32, 91
19, 147720, Note_on_c, 11, 32, 0
19, 147840, Note_on_c, 11, 32, 78
19, 147960, Note_on_c, 11, 32, 0
19, 148080, Note_on_c, 11, 32, 78
19, 148200, Note_on_c, 11, 32, 0
19, 148320, Note_on_c, 11, 32, 78
19, 148440, Note_on_c, 11, 32, 0
19, 148560, Note_on_c, 11, 32, 78
19, 148680, Note_on_c, 11, 32, 0
19, 148800, Note_on_c, 11, 32, 78
19, 148920, Note_on_c, 11, 32, 0
19, 149040, Note_on_c, 11, 32, 78
19, 149160, Note_on_c, 11, 32, 0
19, 149280, Note_on_c, 11, 32, 78
19, 149400, Note_on_c, 11, 32, 0
19, 149520, Note_on_c, 11, 32, 78
19, 149640, Note_on_c, 11, 32, 0
19, 149760, Note_on_c, 11, 32, 78
19, 149880, Note_on_c, 11, 32, 0
19, 150000, Note_on_c, 11, 32, 78
19, 150120, Note_on_c, 11, 32, 0
19, 150240, Note_on_c, 11, 32, 78
19, 150360, Note_on_c, 11, 32, 0
19, 150480, Note_on_c, 11, 32, 78
19, 150600, Note_on_c, 11, 32, 0
19, 150720, Note_on_c, 11, 32, 78
19, 150840, Note_on_c, 11, 32, 0
19, 150960, Note_on_c, 11, 32, 78
19, 151080, Note_on_c, 11, 32, 0
19, 151200, Note_on_c, 11, 32, 78
19, 151320, Note_on_c, 11, 32, 0
19, 151440, Note_on_c, 11, 32, 78
19, 151560, Note_on_c, 11, 32, 0
19, 151680, Note_on_c, 11, 32, 78
19, 151800, Note_on_c, 11, 32, 0
19, 151920, Note_on_c, 11, 32, 78
19, 152040, Note_on_c, 11, 32, 0
19, 152160, Note_on_c, 11, 32, 78
19, 152280, Note_on_c, 11, 32, 0
19, 152400, Note_on_c, 11, 32, 78
19, 152520, Note_on_c, 11, 32, 0
19, 152640, Note_on_c, 11, 32, 78
19, 152760, Note_on_c, 11, 32, 0
19, 152880, Note_on_c, 11, 32, 78
19, 153000, Note_on_c, 11, 32, 0
19, 153120, Note_on_c, 11, 32, 78
19, 153240, Note_on_c, 11, 32, 0
19, 153360, Note_on_c, 11, 32, 78
19, 153600, Note_on_c, 11, 32, 0
19, 154560, Note_on_c, 11, 43, 115
19, 154800, Note_on_c, 11, 43, 0
19, 154800, Note_on_c, 11, 44, 115
19, 155040, Note_on_c, 11, 44, 0
19, 156000, Note_on_c, 11, 39, 115
19, 156240, Note_on_c, 11, 39, 0
19, 156240, Note_on_c, 11, 44, 115
19, 156480, Note_on_c, 11, 44, 0
19, 156800, Note_on_c, 11, 32, 115
19, 156880, Note_on_c, 11, 32, 0
19, 156880, Note_on_c, 11, 36, 115
19, 156960, Note_on_c, 11, 36, 0
19, 156960, Note_on_c, 11, 39, 123
19, 157040, Note_on_c, 11, 39, 0
19, 157040, Note_on_c, 11, 44, 123
19, 157120, Note_on_c, 11, 44, 0
19, 157120, Note_on_c, 11, 48, 123
19, 157200, Note_on_c, 11, 48, 0
19, 157200, Note_on_c, 11, 51, 123
19, 157440, Note_on_c, 11, 51, 0
19, 161280, Note_on_c, 11, 41, 101
19, 162000, Note_on_c, 11, 41, 0
19, 162000, Note_on_c, 11, 37, 115
19, 162240, Note_on_c, 11, 37, 0
19, 162240, Note_on_c, 11, 44, 115
19, 162600, Note_on_c, 11, 44, 0
19, 162600, Note_on_c, 11, 44, 115
19, 162720, Note_on_c, 11, 44, 0
19, 162720, Note_on_c, 11, 46, 115
19, 162960, Note_on_c, 11, 46, 0
19, 162960, Note_on_c, 11, 48, 115
19, 163320, Note_on_c, 11, 48, 0
19, 163320, Note_on_c, 11, 36, 101
19, 163440, Note_on_c, 11, 36, 0
19, 163440, Note_on_c, 11, 37, 91
19, 163680, Note_on_c, 11, 37, 0
19, 164160, Note_on_c, 11, 39, 78
19, 164400, Note_on_c, 11, 39, 0
19, 164880, Note_on_c, 11, 32, 78
19, 166080, Note_on_c, 11, 32, 0
19, 166080, Note_on_c, 11, 32, 78
19, 166260, Note_on_c, 11, 32, 0
19, 166260, Note_on_c, 11, 32, 78
19, 166320, Note_on_c, 11, 32, 0
19, 166320, Note_on_c, 11, 32, 78
19, 167520, Note_on_c, 11, 32, 0
19, 167520, Note_on_c, 11, 32, 78
19, 167700, Note_on_c, 11, 32, 0
19, 167700, Note_on_c, 11, 32, 78
19, 167760, Note_on_c, 11, 32, 0
19, 167760, Note_on_c, 11, 32, 78
19, 169680, Note_on_c, 11, 32, 0
19, 169680, Note_on_c, 11, 36, 91
19, 169860, Note_on_c, 11, 36, 0
19, 169860, Note_on_c, 11, 39, 91
19, 169920, Note_on_c, 11, 39, 0
19, 169920, Note_on_c, 11, 44, 91
19, 170400, Note_on_c, 11, 44, 0
19, 170400, Note_on_c, 11, 36, 91
19, 170580, Note_on_c, 11, 36, 0
19, 170580, Note_on_c, 11, 39, 91
19, 170640, Note_on_c, 11, 39, 0
19, 170640, Note_on_c, 11, 44, 91
19, 170880, Note_on_c, 11, 44, 0
19, 170880, Note_on_c, 11, 36, 101
19, 171060, Note_on_c, 11, 36, 0
19, 171060, Note_on_c, 11, 39, 101
19, 171120, Note_on_c, 11, 39, 0
19, 171120, Note_on_c, 11, 44, 101
19, 171360, Note_on_c, 11, 44, 0
19, 171360, Note_on_c, 11, 36, 109
19, 171540, Note_on_c, 11, 36, 0
19, 171540, Note_on_c, 11, 39, 109
19, 171600, Note_on_c, 11, 39, 0
19, 171600, Note_on_c, 11, 44, 109
19, 171840, Note_on_c, 11, 44, 0
19, 171840, Note_on_c, 11, 36, 109
19, 172020, Note_on_c, 11, 36, 0
19, 172020, Note_on_c, 11, 39, 109
19, 172080, Note_on_c, 11, 39, 0
19, 172080, Note_on_c, 11, 44, 115
19, 172160, Note_on_c, 11, 44, 0
19, 172160, Note_on_c, 11, 36, 115
19, 172240, Note_on_c, 11, 36, 0
19, 172240, Note_on_c, 11, 39, 115
19, 172320, Note_on_c, 11, 39, 0
19, 172320, Note_on_c, 11, 44, 115
19, 172400, Note_on_c, 11, 44, 0
19, 172400, Note_on_c, 11, 36, 115
19, 172480, Note_on_c, 11, 36, 0
19, 172480, Note_on_c, 11, 39, 115
19, 172560, Note_on_c, 11, 39, 0
19, 172560, Note_on_c, 11, 44, 115
19, 172640, Note_on_c, 11, 44, 0
19, 172640, Note_on_c, 11, 36, 115
19, 172720, Note_on_c, 11, 36, 0
19, 172720, Note_on_c, 11, 39, 115
19, 172800, Note_on_c, 11, 39, 0
19, 172800, Note_on_c, 11, 44, 115
19, 172880, Note_on_c, 11, 44, 0
19, 172880, Note_on_c, 11, 36, 115
19, 172960, Note_on_c, 11, 36, 0
19, 172960, Note_on_c, 11, 39, 115
19, 173040, Note_on_c, 11, 39, 0
19, 173040, Note_on_c, 11, 32, 115
19, 173120, Note_on_c, 11, 32, 0
19, 173120, Note_on_c, 11, 36, 115
19, 173200, Note_on_c, 11, 36, 0
19, 173200, Note_on_c, 11, 39, 115
19, 173280, Note_on_c, 11, 39, 0
19, 173280, Note_on_c, 11, 44, 115
19, 173360, Note_on_c, 11, 44, 0
19, 173360, Note_on_c, 11, 44, 115
19, 173440, Note_on_c, 11, 44, 0
19, 173440, Note_on_c, 11, 44, 115
19, 173520, Note_on_c, 11, 44, 0
19, 173520, Note_on_c, 11, 44, 115
19, 173600, Note_on_c, 11, 44, 0
19, 173600, Note_on_c, 11, 44, 115
19, 173680, Note_on_c, 11, 44, 0
19, 173680, Note_on_c, 11, 44, 115
19, 173760, Note_on_c, 11, 44, 0
19, 173760, Note_on_c, 11, 39, 115
19, 173840, Note_on_c, 11, 39, 0
19, 173840, Note_on_c, 11, 39, 115
19, 173920, Note_on_c, 11, 39, 0
19, 173920, Note_on_c, 11, 39, 115
19, 174000, Note_on_c, 11, 39, 0
19, 174000, Note_on_c, 11, 36, 115
19, 174080, Note_on_c, 11, 36, 0
19, 174080, Note_on_c, 11, 36, 115
19, 174160, Note_on_c, 11, 36, 0
19, 174160, Note_on_c, 11, 36, 115
19, 174240, Note_on_c, 11, 36, 0
19, 174240, Note_on_c, 11, 32, 123
19, 174480, Note_on_c, 11, 32, 0
19, 174960, Note_on_c, 11, 39, 123
19, 175200, Note_on_c, 11, 39, 0
19, 175680, Note_on_c, 11, 44, 123
19, 175920, Note_on_c, 11, 44, 0
19, 176160, Note_on_c, 11, 39, 91
19, 176400, Note_on_c, 11, 39, 0
19, 176400, Note_on_c, 11, 44, 91
19, 176640, Note_on_c, 11, 44, 0
19, 177120, Note_on_c, 11, 39, 123
19, 177360, Note_on_c, 11, 39, 0
19, 177840, Note_on_c, 11, 32, 123
19, 178080, Note_on_c, 11, 32, 0
19, 178080, End_track
0, 0, End_of_file
