0, 0, Header, 1, 7, 120
1, 0, Start_track
1, 0, Time_signature, 3, 2, 24, 8
1, 0, Key_signature, 0, "major"
1, 0, Tempo, 240000
1, 360, Tempo, 480000
1, 48240, Tempo, 540540
1, 49335, Tempo, 555555
1, 49815, Tempo, 588235
1, 49815, End_track
2, 0, Start_track
2, 0, MIDI_port, 0
2, 0, Title_t, "Sonata VI"
2, 0, Program_c, 0, 85
2, 0, Control_c, 0, 10, 69
2, 0, Control_c, 0, 0, 0
2, 0, Control_c, 0, 121, 0
2, 420, Note_on_c, 0, 88, 95
2, 450, Note_on_c, 0, 88, 0
2, 450, Note_on_c, 0, 87, 95
2, 480, Note_on_c, 0, 87, 0
2, 480, Note_on_c, 0, 88, 95
2, 510, Note_on_c, 0, 88, 0
2, 540, Note_on_c, 0, 83, 95
2, 570, Note_on_c, 0, 83, 0
2, 600, Note_on_c, 0, 80, 95
2, 630, Note_on_c, 0, 80, 0
2, 660, Note_on_c, 0, 83, 95
2, 690, Note_on_c, 0, 83, 0
2, 720, Note_on_c, 0, 76, 95
2, 750, Note_on_c, 0, 76, 0
2, 750, Note_on_c, 0, 78, 95
2, 780, Note_on_c, 0, 78, 0
2, 780, Note_on_c, 0, 76, 95
2, 810, Note_on_c, 0, 76, 0
2, 810, Note_on_c, 0, 75, 95
2, 840, Note_on_c, 0, 75, 0
2, 840, Note_on_c, 0, 76, 95
2, 870, Note_on_c, 0, 76, 0
2, 900, Note_on_c, 0, 71, 95
2, 930, Note_on_c, 0, 71, 0
2, 960, Note_on_c, 0, 68, 95
2, 990, Note_on_c, 0, 68, 0
2, 1020, Note_on_c, 0, 71, 95
2, 1050, Note_on_c, 0, 71, 0
2, 1080, Note_on_c, 0, 64, 85
2, 1110, Note_on_c, 0, 64, 0
2, 1110, Note_on_c, 0, 71, 85
2, 1140, Note_on_c, 0, 71, 0
2, 1140, Note_on_c, 0, 66, 85
2, 1170, Note_on_c, 0, 66, 0
2, 1170, Note_on_c, 0, 71, 85
2, 1200, Note_on_c, 0, 71, 0
2, 1200, Note_on_c, 0, 68, 85
2, 1230, Note_on_c, 0, 68, 0
2, 1230, Note_on_c, 0, 71, 85
2, 1260, Note_on_c, 0, 71, 0
2, 1260, Note_on_c, 0, 69, 85
2, 1290, Note_on_c, 0, 69, 0
2, 1290, Note_on_c, 0, 71, 85
2, 1320, Note_on_c, 0, 71, 0
2, 1320, Note_on_c, 0, 68, 85
2, 1350, Note_on_c, 0, 68, 0
2, 1350, Note_on_c, 0, 71, 85
2, 1380, Note_on_c, 0, 71, 0
2, 1380, Note_on_c, 0, 66, 85
2, 1410, Note_on_c, 0, 66, 0
2, 1410, Note_on_c, 0, 71, 85
2, 1440, Note_on_c, 0, 71, 0
2, 1440, Note_on_c, 0, 64, 85
2, 1470, Note_on_c, 0, 64, 0
2, 1470, Note_on_c, 0, 76, 95
2, 1500, Note_on_c, 0, 76, 0
2, 1500, Note_on_c, 0, 75, 95
2, 1530, Note_on_c, 0, 75, 0
2, 1530, Note_on_c, 0, 73, 95
2, 1560, Note_on_c, 0, 73, 0
2, 1560, Note_on_c, 0, 71, 95
2, 1590, Note_on_c, 0, 71, 0
2, 1590, Note_on_c, 0, 76, 95
2, 1620, Note_on_c, 0, 76, 0
2, 1620, Note_on_c, 0, 75, 95
2, 1650, Note_on_c, 0, 75, 0
2, 1650, Note_on_c, 0, 73, 95
2, 1680, Note_on_c, 0, 73, 0
2, 1680, Note_on_c, 0, 71, 95
2, 1710, Note_on_c, 0, 71, 0
2, 1710, Note_on_c, 0, 69, 95
2, 1740, Note_on_c, 0, 69, 0
2, 1740, Note_on_c, 0, 68, 95
2, 1770, Note_on_c, 0, 68, 0
2, 1770, Note_on_c, 0, 66, 95
2, 1800, Note_on_c, 0, 66, 0
2, 1800, Note_on_c, 0, 64, 85
2, 1830, Note_on_c, 0, 64, 0
2, 1830, Note_on_c, 0, 71, 85
2, 1860, Note_on_c, 0, 71, 0
2, 1860, Note_on_c, 0, 66, 85
2, 1890, Note_on_c, 0, 66, 0
2, 1890, Note_on_c, 0, 71, 85
2, 1920, Note_on_c, 0, 71, 0
2, 1920, Note_on_c, 0, 68, 85
2, 1950, Note_on_c, 0, 68, 0
2, 1950, Note_on_c, 0, 71, 85
2, 1980, Note_on_c, 0, 71, 0
2, 1980, Note_on_c, 0, 69, 85
2, 2010, Note_on_c, 0, 69, 0
2, 2010, Note_on_c, 0, 71, 85
2, 2040, Note_on_c, 0, 71, 0
2, 2040, Note_on_c, 0, 68, 85
2, 2070, Note_on_c, 0, 68, 0
2, 2070, Note_on_c, 0, 71, 85
2, 2100, Note_on_c, 0, 71, 0
2, 2100, Note_on_c, 0, 66, 85
2, 2130, Note_on_c, 0, 66, 0
2, 2130, Note_on_c, 0, 71, 85
2, 2160, Note_on_c, 0, 71, 0
2, 2160, Note_on_c, 0, 64, 85
2, 2190, Note_on_c, 0, 64, 0
2, 2190, Note_on_c, 0, 76, 95
2, 2220, Note_on_c, 0, 76, 0
2, 2220, Note_on_c, 0, 75, 95
2, 2250, Note_on_c, 0, 75, 0
2, 2250, Note_on_c, 0, 73, 95
2, 2280, Note_on_c, 0, 73, 0
2, 2280, Note_on_c, 0, 71, 95
2, 2310, Note_on_c, 0, 71, 0
2, 2310, Note_on_c, 0, 76, 95
2, 2340, Note_on_c, 0, 76, 0
2, 2340, Note_on_c, 0, 75, 95
2, 2370, Note_on_c, 0, 75, 0
2, 2370, Note_on_c, 0, 73, 95
2, 2400, Note_on_c, 0, 73, 0
2, 2400, Note_on_c, 0, 71, 95
2, 2430, Note_on_c, 0, 71, 0
2, 2430, Note_on_c, 0, 69, 95
2, 2460, Note_on_c, 0, 69, 0
2, 2460, Note_on_c, 0, 68, 95
2, 2490, Note_on_c, 0, 68, 0
2, 2490, Note_on_c, 0, 66, 95
2, 2520, Note_on_c, 0, 66, 0
2, 2520, Note_on_c, 0, 64, 95
2, 2550, Note_on_c, 0, 64, 0
2, 2550, Note_on_c, 0, 66, 95
2, 2580, Note_on_c, 0, 66, 0
2, 2580, Note_on_c, 0, 68, 95
2, 2610, Note_on_c, 0, 68, 0
2, 2610, Note_on_c, 0, 69, 95
2, 2640, Note_on_c, 0, 69, 0
2, 2640, Note_on_c, 0, 71, 95
2, 2670, Note_on_c, 0, 71, 0
2, 2670, Note_on_c, 0, 73, 95
2, 2700, Note_on_c, 0, 73, 0
2, 2700, Note_on_c, 0, 75, 95
2, 2730, Note_on_c, 0, 75, 0
2, 2730, Note_on_c, 0, 76, 95
2, 2760, Note_on_c, 0, 76, 0
2, 2760, Note_on_c, 0, 78, 95
2, 2790, Note_on_c, 0, 78, 0
2, 2790, Note_on_c, 0, 80, 95
2, 2820, Note_on_c, 0, 80, 0
2, 2820, Note_on_c, 0, 81, 95
2, 2850, Note_on_c, 0, 81, 0
2, 2850, Note_on_c, 0, 78, 95
2, 2880, Note_on_c, 0, 78, 0
2, 2880, Note_on_c, 0, 80, 95
2, 2910, Note_on_c, 0, 80, 0
2, 2910, Note_on_c, 0, 83, 95
2, 2940, Note_on_c, 0, 83, 0
2, 2940, Note_on_c, 0, 76, 95
2, 2970, Note_on_c, 0, 76, 0
2, 2970, Note_on_c, 0, 78, 95
2, 3000, Note_on_c, 0, 78, 0
2, 3000, Note_on_c, 0, 80, 95
2, 3030, Note_on_c, 0, 80, 0
2, 3030, Note_on_c, 0, 81, 95
2, 3060, Note_on_c, 0, 81, 0
2, 3060, Note_on_c, 0, 83, 95
2, 3090, Note_on_c, 0, 83, 0
2, 3090, Note_on_c, 0, 85, 95
2, 3120, Note_on_c, 0, 85, 0
2, 3120, Note_on_c, 0, 87, 95
2, 3150, Note_on_c, 0, 87, 0
2, 3150, Note_on_c, 0, 88, 95
2, 3180, Note_on_c, 0, 88, 0
2, 3180, Note_on_c, 0, 85, 95
2, 3210, Note_on_c, 0, 85, 0
2, 3210, Note_on_c, 0, 87, 95
2, 3240, Note_on_c, 0, 87, 0
2, 3240, Note_on_c, 0, 88, 95
2, 3270, Note_on_c, 0, 88, 0
2, 3270, Note_on_c, 0, 83, 85
2, 3300, Note_on_c, 0, 83, 0
2, 3300, Note_on_c, 0, 81, 85
2, 3330, Note_on_c, 0, 81, 0
2, 3330, Note_on_c, 0, 83, 85
2, 3360, Note_on_c, 0, 83, 0
2, 3360, Note_on_c, 0, 80, 85
2, 3390, Note_on_c, 0, 80, 0
2, 3390, Note_on_c, 0, 83, 85
2, 3420, Note_on_c, 0, 83, 0
2, 3420, Note_on_c, 0, 81, 85
2, 3450, Note_on_c, 0, 81, 0
2, 3450, Note_on_c, 0, 83, 85
2, 3480, Note_on_c, 0, 83, 0
2, 3480, Note_on_c, 0, 80, 85
2, 3510, Note_on_c, 0, 80, 0
2, 3510, Note_on_c, 0, 83, 85
2, 3540, Note_on_c, 0, 83, 0
2, 3540, Note_on_c, 0, 78, 85
2, 3570, Note_on_c, 0, 78, 0
2, 3570, Note_on_c, 0, 83, 85
2, 3600, Note_on_c, 0, 83, 0
2, 3600, Note_on_c, 0, 76, 85
2, 3630, Note_on_c, 0, 76, 0
2, 3630, Note_on_c, 0, 88, 95
2, 3660, Note_on_c, 0, 88, 0
2, 3660, Note_on_c, 0, 87, 95
2, 3690, Note_on_c, 0, 87, 0
2, 3690, Note_on_c, 0, 85, 95
2, 3720, Note_on_c, 0, 85, 0
2, 3720, Note_on_c, 0, 83, 95
2, 3750, Note_on_c, 0, 83, 0
2, 3750, Note_on_c, 0, 76, 95
2, 3780, Note_on_c, 0, 76, 0
2, 3780, Note_on_c, 0, 85, 95
2, 3810, Note_on_c, 0, 85, 0
2, 3810, Note_on_c, 0, 76, 95
2, 3840, Note_on_c, 0, 76, 0
2, 3840, Note_on_c, 0, 83, 95
2, 3870, Note_on_c, 0, 83, 0
2, 3870, Note_on_c, 0, 76, 95
2, 3900, Note_on_c, 0, 76, 0
2, 3900, Note_on_c, 0, 81, 95
2, 3930, Note_on_c, 0, 81, 0
2, 3930, Note_on_c, 0, 76, 95
2, 3960, Note_on_c, 0, 76, 0
2, 3960, Note_on_c, 0, 80, 85
2, 3990, Note_on_c, 0, 80, 0
2, 3990, Note_on_c, 0, 83, 85
2, 4020, Note_on_c, 0, 83, 0
2, 4020, Note_on_c, 0, 78, 85
2, 4050, Note_on_c, 0, 78, 0
2, 4050, Note_on_c, 0, 83, 85
2, 4080, Note_on_c, 0, 83, 0
2, 4080, Note_on_c, 0, 80, 85
2, 4110, Note_on_c, 0, 80, 0
2, 4110, Note_on_c, 0, 83, 85
2, 4140, Note_on_c, 0, 83, 0
2, 4140, Note_on_c, 0, 81, 85
2, 4170, Note_on_c, 0, 81, 0
2, 4170, Note_on_c, 0, 83, 85
2, 4200, Note_on_c, 0, 83, 0
2, 4200, Note_on_c, 0, 80, 85
2, 4230, Note_on_c, 0, 80, 0
2, 4230, Note_on_c, 0, 83, 85
2, 4260, Note_on_c, 0, 83, 0
2, 4260, Note_on_c, 0, 78, 85
2, 4290, Note_on_c, 0, 78, 0
2, 4290, Note_on_c, 0, 83, 85
2, 4320, Note_on_c, 0, 83, 0
2, 4320, Note_on_c, 0, 76, 85
2, 4350, Note_on_c, 0, 76, 0
2, 4350, Note_on_c, 0, 88, 95
2, 4380, Note_on_c, 0, 88, 0
2, 4380, Note_on_c, 0, 87, 95
2, 4410, Note_on_c, 0, 87, 0
2, 4410, Note_on_c, 0, 85, 95
2, 4440, Note_on_c, 0, 85, 0
2, 4440, Note_on_c, 0, 83, 95
2, 4470, Note_on_c, 0, 83, 0
2, 4470, Note_on_c, 0, 76, 95
2, 4500, Note_on_c, 0, 76, 0
2, 4500, Note_on_c, 0, 85, 95
2, 4530, Note_on_c, 0, 85, 0
2, 4530, Note_on_c, 0, 76, 95
2, 4560, Note_on_c, 0, 76, 0
2, 4560, Note_on_c, 0, 83, 95
2, 4590, Note_on_c, 0, 83, 0
2, 4590, Note_on_c, 0, 76, 95
2, 4620, Note_on_c, 0, 76, 0
2, 4620, Note_on_c, 0, 81, 95
2, 4650, Note_on_c, 0, 81, 0
2, 4650, Note_on_c, 0, 76, 95
2, 4680, Note_on_c, 0, 76, 0
2, 4680, Note_on_c, 0, 80, 85
2, 4710, Note_on_c, 0, 80, 0
2, 4710, Note_on_c, 0, 76, 85
2, 4740, Note_on_c, 0, 76, 0
2, 4740, Note_on_c, 0, 76, 85
2, 4770, Note_on_c, 0, 76, 0
2, 4770, Note_on_c, 0, 76, 85
2, 4800, Note_on_c, 0, 76, 0
2, 4800, Note_on_c, 0, 75, 85
2, 4830, Note_on_c, 0, 75, 0
2, 4830, Note_on_c, 0, 76, 85
2, 4860, Note_on_c, 0, 76, 0
2, 4860, Note_on_c, 0, 76, 85
2, 4890, Note_on_c, 0, 76, 0
2, 4890, Note_on_c, 0, 76, 85
2, 4920, Note_on_c, 0, 76, 0
2, 4920, Note_on_c, 0, 78, 85
2, 4950, Note_on_c, 0, 78, 0
2, 4950, Note_on_c, 0, 76, 85
2, 4980, Note_on_c, 0, 76, 0
2, 4980, Note_on_c, 0, 75, 85
2, 5010, Note_on_c, 0, 75, 0
2, 5010, Note_on_c, 0, 76, 85
2, 5040, Note_on_c, 0, 76, 0
2, 5040, Note_on_c, 0, 76, 85
2, 5070, Note_on_c, 0, 76, 0
2, 5070, Note_on_c, 0, 76, 85
2, 5100, Note_on_c, 0, 76, 0
2, 5100, Note_on_c, 0, 80, 95
2, 5130, Note_on_c, 0, 80, 0
2, 5130, Note_on_c, 0, 76, 95
2, 5160, Note_on_c, 0, 76, 0
2, 5160, Note_on_c, 0, 78, 95
2, 5190, Note_on_c, 0, 78, 0
2, 5190, Note_on_c, 0, 76, 95
2, 5220, Note_on_c, 0, 76, 0
2, 5220, Note_on_c, 0, 80, 95
2, 5250, Note_on_c, 0, 80, 0
2, 5250, Note_on_c, 0, 76, 95
2, 5280, Note_on_c, 0, 76, 0
2, 5280, Note_on_c, 0, 81, 95
2, 5310, Note_on_c, 0, 81, 0
2, 5310, Note_on_c, 0, 76, 95
2, 5340, Note_on_c, 0, 76, 0
2, 5340, Note_on_c, 0, 78, 95
2, 5370, Note_on_c, 0, 78, 0
2, 5370, Note_on_c, 0, 76, 95
2, 5400, Note_on_c, 0, 76, 0
2, 5400, Note_on_c, 0, 80, 85
2, 5430, Note_on_c, 0, 80, 0
2, 5430, Note_on_c, 0, 76, 85
2, 5460, Note_on_c, 0, 76, 0
2, 5460, Note_on_c, 0, 76, 85
2, 5490, Note_on_c, 0, 76, 0
2, 5490, Note_on_c, 0, 76, 85
2, 5520, Note_on_c, 0, 76, 0
2, 5520, Note_on_c, 0, 75, 85
2, 5550, Note_on_c, 0, 75, 0
2, 5550, Note_on_c, 0, 76, 85
2, 5580, Note_on_c, 0, 76, 0
2, 5580, Note_on_c, 0, 76, 85
2, 5610, Note_on_c, 0, 76, 0
2, 5610, Note_on_c, 0, 76, 85
2, 5640, Note_on_c, 0, 76, 0
2, 5640, Note_on_c, 0, 78, 85
2, 5670, Note_on_c, 0, 78, 0
2, 5670, Note_on_c, 0, 76, 85
2, 5700, Note_on_c, 0, 76, 0
2, 5700, Note_on_c, 0, 75, 85
2, 5730, Note_on_c, 0, 75, 0
2, 5730, Note_on_c, 0, 76, 85
2, 5760, Note_on_c, 0, 76, 0
2, 5760, Note_on_c, 0, 76, 85
2, 5790, Note_on_c, 0, 76, 0
2, 5790, Note_on_c, 0, 76, 85
2, 5820, Note_on_c, 0, 76, 0
2, 5820, Note_on_c, 0, 80, 95
2, 5850, Note_on_c, 0, 80, 0
2, 5850, Note_on_c, 0, 76, 95
2, 5880, Note_on_c, 0, 76, 0
2, 5880, Note_on_c, 0, 78, 95
2, 5910, Note_on_c, 0, 78, 0
2, 5910, Note_on_c, 0, 76, 95
2, 5940, Note_on_c, 0, 76, 0
2, 5940, Note_on_c, 0, 80, 95
2, 5970, Note_on_c, 0, 80, 0
2, 5970, Note_on_c, 0, 76, 95
2, 6000, Note_on_c, 0, 76, 0
2, 6000, Note_on_c, 0, 81, 95
2, 6030, Note_on_c, 0, 81, 0
2, 6030, Note_on_c, 0, 76, 95
2, 6060, Note_on_c, 0, 76, 0
2, 6060, Note_on_c, 0, 78, 95
2, 6090, Note_on_c, 0, 78, 0
2, 6090, Note_on_c, 0, 76, 95
2, 6120, Note_on_c, 0, 76, 0
2, 6120, Note_on_c, 0, 80, 90
2, 6150, Note_on_c, 0, 80, 0
2, 6150, Note_on_c, 0, 76, 90
2, 6180, Note_on_c, 0, 76, 0
2, 6180, Note_on_c, 0, 80, 90
2, 6210, Note_on_c, 0, 80, 0
2, 6210, Note_on_c, 0, 76, 90
2, 6240, Note_on_c, 0, 76, 0
2, 6240, Note_on_c, 0, 80, 90
2, 6270, Note_on_c, 0, 80, 0
2, 6270, Note_on_c, 0, 76, 90
2, 6300, Note_on_c, 0, 76, 0
2, 6300, Note_on_c, 0, 80, 90
2, 6330, Note_on_c, 0, 80, 0
2, 6330, Note_on_c, 0, 76, 90
2, 6360, Note_on_c, 0, 76, 0
2, 6360, Note_on_c, 0, 80, 90
2, 6390, Note_on_c, 0, 80, 0
2, 6390, Note_on_c, 0, 76, 90
2, 6420, Note_on_c, 0, 76, 0
2, 6420, Note_on_c, 0, 80, 90
2, 6450, Note_on_c, 0, 80, 0
2, 6450, Note_on_c, 0, 76, 90
2, 6480, Note_on_c, 0, 76, 0
2, 6480, Note_on_c, 0, 80, 90
2, 6510, Note_on_c, 0, 80, 0
2, 6510, Note_on_c, 0, 76, 90
2, 6540, Note_on_c, 0, 76, 0
2, 6540, Note_on_c, 0, 80, 90
2, 6570, Note_on_c, 0, 80, 0
2, 6570, Note_on_c, 0, 75, 90
2, 6600, Note_on_c, 0, 75, 0
2, 6600, Note_on_c, 0, 80, 90
2, 6630, Note_on_c, 0, 80, 0
2, 6630, Note_on_c, 0, 76, 90
2, 6660, Note_on_c, 0, 76, 0
2, 6660, Note_on_c, 0, 80, 90
2, 6690, Note_on_c, 0, 80, 0
2, 6690, Note_on_c, 0, 75, 90
2, 6720, Note_on_c, 0, 75, 0
2, 6720, Note_on_c, 0, 80, 90
2, 6750, Note_on_c, 0, 80, 0
2, 6750, Note_on_c, 0, 76, 90
2, 6780, Note_on_c, 0, 76, 0
2, 6780, Note_on_c, 0, 80, 90
2, 6810, Note_on_c, 0, 80, 0
2, 6810, Note_on_c, 0, 75, 90
2, 6840, Note_on_c, 0, 75, 0
2, 6840, Note_on_c, 0, 80, 95
2, 6870, Note_on_c, 0, 80, 0
2, 6870, Note_on_c, 0, 76, 95
2, 6900, Note_on_c, 0, 76, 0
2, 6900, Note_on_c, 0, 80, 95
2, 6930, Note_on_c, 0, 80, 0
2, 6930, Note_on_c, 0, 74, 95
2, 6960, Note_on_c, 0, 74, 0
2, 6960, Note_on_c, 0, 80, 95
2, 6990, Note_on_c, 0, 80, 0
2, 6990, Note_on_c, 0, 76, 95
2, 7020, Note_on_c, 0, 76, 0
2, 7020, Note_on_c, 0, 80, 95
2, 7050, Note_on_c, 0, 80, 0
2, 7050, Note_on_c, 0, 74, 95
2, 7080, Note_on_c, 0, 74, 0
2, 7080, Note_on_c, 0, 80, 95
2, 7110, Note_on_c, 0, 80, 0
2, 7110, Note_on_c, 0, 76, 95
2, 7140, Note_on_c, 0, 76, 0
2, 7140, Note_on_c, 0, 80, 95
2, 7170, Note_on_c, 0, 80, 0
2, 7170, Note_on_c, 0, 74, 95
2, 7200, Note_on_c, 0, 74, 0
2, 7200, Note_on_c, 0, 81, 100
2, 7230, Note_on_c, 0, 81, 0
2, 7230, Note_on_c, 0, 76, 100
2, 7260, Note_on_c, 0, 76, 0
2, 7260, Note_on_c, 0, 81, 100
2, 7290, Note_on_c, 0, 81, 0
2, 7290, Note_on_c, 0, 73, 100
2, 7320, Note_on_c, 0, 73, 0
2, 7320, Note_on_c, 0, 81, 100
2, 7350, Note_on_c, 0, 81, 0
2, 7350, Note_on_c, 0, 76, 100
2, 7380, Note_on_c, 0, 76, 0
2, 7380, Note_on_c, 0, 81, 100
2, 7410, Note_on_c, 0, 81, 0
2, 7410, Note_on_c, 0, 73, 100
2, 7440, Note_on_c, 0, 73, 0
2, 7440, Note_on_c, 0, 81, 100
2, 7470, Note_on_c, 0, 81, 0
2, 7470, Note_on_c, 0, 76, 100
2, 7500, Note_on_c, 0, 76, 0
2, 7500, Note_on_c, 0, 81, 100
2, 7530, Note_on_c, 0, 81, 0
2, 7530, Note_on_c, 0, 73, 100
2, 7560, Note_on_c, 0, 73, 0
2, 7560, Note_on_c, 0, 81, 100
2, 7590, Note_on_c, 0, 81, 0
2, 7590, Note_on_c, 0, 76, 100
2, 7620, Note_on_c, 0, 76, 0
2, 7620, Note_on_c, 0, 81, 100
2, 7650, Note_on_c, 0, 81, 0
2, 7650, Note_on_c, 0, 71, 100
2, 7680, Note_on_c, 0, 71, 0
2, 7680, Note_on_c, 0, 81, 100
2, 7710, Note_on_c, 0, 81, 0
2, 7710, Note_on_c, 0, 76, 100
2, 7740, Note_on_c, 0, 76, 0
2, 7740, Note_on_c, 0, 81, 100
2, 7770, Note_on_c, 0, 81, 0
2, 7770, Note_on_c, 0, 71, 100
2, 7800, Note_on_c, 0, 71, 0
2, 7800, Note_on_c, 0, 81, 100
2, 7830, Note_on_c, 0, 81, 0
2, 7830, Note_on_c, 0, 76, 100
2, 7860, Note_on_c, 0, 76, 0
2, 7860, Note_on_c, 0, 81, 100
2, 7890, Note_on_c, 0, 81, 0
2, 7890, Note_on_c, 0, 71, 100
2, 7920, Note_on_c, 0, 71, 0
2, 7920, Note_on_c, 0, 80, 100
2, 7950, Note_on_c, 0, 80, 0
2, 7950, Note_on_c, 0, 76, 100
2, 7980, Note_on_c, 0, 76, 0
2, 7980, Note_on_c, 0, 80, 100
2, 8010, Note_on_c, 0, 80, 0
2, 8010, Note_on_c, 0, 71, 100
2, 8040, Note_on_c, 0, 71, 0
2, 8040, Note_on_c, 0, 80, 100
2, 8070, Note_on_c, 0, 80, 0
2, 8070, Note_on_c, 0, 76, 100
2, 8100, Note_on_c, 0, 76, 0
2, 8100, Note_on_c, 0, 80, 100
2, 8130, Note_on_c, 0, 80, 0
2, 8130, Note_on_c, 0, 71, 100
2, 8160, Note_on_c, 0, 71, 0
2, 8160, Note_on_c, 0, 80, 100
2, 8190, Note_on_c, 0, 80, 0
2, 8190, Note_on_c, 0, 76, 100
2, 8220, Note_on_c, 0, 76, 0
2, 8220, Note_on_c, 0, 80, 100
2, 8250, Note_on_c, 0, 80, 0
2, 8250, Note_on_c, 0, 71, 100
2, 8280, Note_on_c, 0, 71, 0
2, 8280, Note_on_c, 0, 80, 95
2, 8310, Note_on_c, 0, 80, 0
2, 8310, Note_on_c, 0, 76, 95
2, 8340, Note_on_c, 0, 76, 0
2, 8340, Note_on_c, 0, 80, 95
2, 8370, Note_on_c, 0, 80, 0
2, 8370, Note_on_c, 0, 69, 95
2, 8400, Note_on_c, 0, 69, 0
2, 8400, Note_on_c, 0, 80, 95
2, 8430, Note_on_c, 0, 80, 0
2, 8430, Note_on_c, 0, 76, 95
2, 8460, Note_on_c, 0, 76, 0
2, 8460, Note_on_c, 0, 80, 95
2, 8490, Note_on_c, 0, 80, 0
2, 8490, Note_on_c, 0, 69, 95
2, 8520, Note_on_c, 0, 69, 0
2, 8520, Note_on_c, 0, 80, 95
2, 8550, Note_on_c, 0, 80, 0
2, 8550, Note_on_c, 0, 76, 95
2, 8580, Note_on_c, 0, 76, 0
2, 8580, Note_on_c, 0, 80, 95
2, 8610, Note_on_c, 0, 80, 0
2, 8610, Note_on_c, 0, 69, 95
2, 8640, Note_on_c, 0, 69, 0
2, 8640, Note_on_c, 0, 78, 95
2, 8670, Note_on_c, 0, 78, 0
2, 8670, Note_on_c, 0, 76, 95
2, 8700, Note_on_c, 0, 76, 0
2, 8700, Note_on_c, 0, 78, 95
2, 8730, Note_on_c, 0, 78, 0
2, 8730, Note_on_c, 0, 69, 95
2, 8760, Note_on_c, 0, 69, 0
2, 8760, Note_on_c, 0, 78, 95
2, 8790, Note_on_c, 0, 78, 0
2, 8790, Note_on_c, 0, 76, 95
2, 8820, Note_on_c, 0, 76, 0
2, 8820, Note_on_c, 0, 78, 95
2, 8850, Note_on_c, 0, 78, 0
2, 8850, Note_on_c, 0, 69, 95
2, 8880, Note_on_c, 0, 69, 0
2, 8880, Note_on_c, 0, 78, 95
2, 8910, Note_on_c, 0, 78, 0
2, 8910, Note_on_c, 0, 76, 95
2, 8940, Note_on_c, 0, 76, 0
2, 8940, Note_on_c, 0, 78, 95
2, 8970, Note_on_c, 0, 78, 0
2, 8970, Note_on_c, 0, 69, 95
2, 9000, Note_on_c, 0, 69, 0
2, 9000, Note_on_c, 0, 78, 90
2, 9030, Note_on_c, 0, 78, 0
2, 9030, Note_on_c, 0, 76, 90
2, 9060, Note_on_c, 0, 76, 0
2, 9060, Note_on_c, 0, 78, 90
2, 9090, Note_on_c, 0, 78, 0
2, 9090, Note_on_c, 0, 68, 90
2, 9120, Note_on_c, 0, 68, 0
2, 9120, Note_on_c, 0, 78, 90
2, 9150, Note_on_c, 0, 78, 0
2, 9150, Note_on_c, 0, 76, 90
2, 9180, Note_on_c, 0, 76, 0
2, 9180, Note_on_c, 0, 78, 90
2, 9210, Note_on_c, 0, 78, 0
2, 9210, Note_on_c, 0, 68, 90
2, 9240, Note_on_c, 0, 68, 0
2, 9240, Note_on_c, 0, 78, 90
2, 9270, Note_on_c, 0, 78, 0
2, 9270, Note_on_c, 0, 76, 90
2, 9300, Note_on_c, 0, 76, 0
2, 9300, Note_on_c, 0, 78, 90
2, 9330, Note_on_c, 0, 78, 0
2, 9330, Note_on_c, 0, 68, 90
2, 9360, Note_on_c, 0, 68, 0
2, 9360, Note_on_c, 0, 76, 90
2, 9390, Note_on_c, 0, 76, 0
2, 9390, Note_on_c, 0, 76, 90
2, 9420, Note_on_c, 0, 76, 0
2, 9420, Note_on_c, 0, 76, 90
2, 9450, Note_on_c, 0, 76, 0
2, 9450, Note_on_c, 0, 68, 90
2, 9480, Note_on_c, 0, 68, 0
2, 9480, Note_on_c, 0, 76, 90
2, 9510, Note_on_c, 0, 76, 0
2, 9510, Note_on_c, 0, 76, 90
2, 9540, Note_on_c, 0, 76, 0
2, 9540, Note_on_c, 0, 76, 90
2, 9570, Note_on_c, 0, 76, 0
2, 9570, Note_on_c, 0, 68, 90
2, 9600, Note_on_c, 0, 68, 0
2, 9600, Note_on_c, 0, 76, 90
2, 9630, Note_on_c, 0, 76, 0
2, 9630, Note_on_c, 0, 76, 90
2, 9660, Note_on_c, 0, 76, 0
2, 9660, Note_on_c, 0, 76, 90
2, 9690, Note_on_c, 0, 76, 0
2, 9690, Note_on_c, 0, 68, 90
2, 9720, Note_on_c, 0, 68, 0
2, 9720, Note_on_c, 0, 76, 85
2, 9750, Note_on_c, 0, 76, 0
2, 9750, Note_on_c, 0, 76, 85
2, 9780, Note_on_c, 0, 76, 0
2, 9780, Note_on_c, 0, 76, 85
2, 9810, Note_on_c, 0, 76, 0
2, 9810, Note_on_c, 0, 66, 85
2, 9840, Note_on_c, 0, 66, 0
2, 9840, Note_on_c, 0, 76, 85
2, 9870, Note_on_c, 0, 76, 0
2, 9870, Note_on_c, 0, 76, 85
2, 9900, Note_on_c, 0, 76, 0
2, 9900, Note_on_c, 0, 76, 85
2, 9930, Note_on_c, 0, 76, 0
2, 9930, Note_on_c, 0, 66, 85
2, 9960, Note_on_c, 0, 66, 0
2, 9960, Note_on_c, 0, 76, 85
2, 9990, Note_on_c, 0, 76, 0
2, 9990, Note_on_c, 0, 76, 85
2, 10020, Note_on_c, 0, 76, 0
2, 10020, Note_on_c, 0, 76, 85
2, 10050, Note_on_c, 0, 76, 0
2, 10050, Note_on_c, 0, 66, 85
2, 10080, Note_on_c, 0, 66, 0
2, 10080, Note_on_c, 0, 75, 85
2, 10110, Note_on_c, 0, 75, 0
2, 10110, Note_on_c, 0, 76, 85
2, 10140, Note_on_c, 0, 76, 0
2, 10140, Note_on_c, 0, 75, 85
2, 10170, Note_on_c, 0, 75, 0
2, 10170, Note_on_c, 0, 66, 85
2, 10200, Note_on_c, 0, 66, 0
2, 10200, Note_on_c, 0, 75, 85
2, 10230, Note_on_c, 0, 75, 0
2, 10230, Note_on_c, 0, 76, 85
2, 10260, Note_on_c, 0, 76, 0
2, 10260, Note_on_c, 0, 75, 85
2, 10290, Note_on_c, 0, 75, 0
2, 10290, Note_on_c, 0, 66, 85
2, 10320, Note_on_c, 0, 66, 0
2, 10320, Note_on_c, 0, 75, 85
2, 10350, Note_on_c, 0, 75, 0
2, 10350, Note_on_c, 0, 76, 85
2, 10380, Note_on_c, 0, 76, 0
2, 10380, Note_on_c, 0, 75, 85
2, 10410, Note_on_c, 0, 75, 0
2, 10410, Note_on_c, 0, 66, 85
2, 10440, Note_on_c, 0, 66, 0
2, 10440, Note_on_c, 0, 64, 80
2, 10470, Note_on_c, 0, 64, 0
2, 10470, Note_on_c, 0, 66, 80
2, 10500, Note_on_c, 0, 66, 0
2, 10500, Note_on_c, 0, 64, 80
2, 10530, Note_on_c, 0, 64, 0
2, 10530, Note_on_c, 0, 66, 80
2, 10560, Note_on_c, 0, 66, 0
2, 10560, Note_on_c, 0, 68, 80
2, 10590, Note_on_c, 0, 68, 0
2, 10590, Note_on_c, 0, 71, 80
2, 10620, Note_on_c, 0, 71, 0
2, 10620, Note_on_c, 0, 64, 80
2, 10650, Note_on_c, 0, 64, 0
2, 10650, Note_on_c, 0, 66, 80
2, 10680, Note_on_c, 0, 66, 0
2, 10680, Note_on_c, 0, 68, 80
2, 10710, Note_on_c, 0, 68, 0
2, 10710, Note_on_c, 0, 71, 80
2, 10740, Note_on_c, 0, 71, 0
2, 10740, Note_on_c, 0, 64, 80
2, 10770, Note_on_c, 0, 64, 0
2, 10770, Note_on_c, 0, 66, 80
2, 10800, Note_on_c, 0, 66, 0
2, 10800, Note_on_c, 0, 68, 80
2, 10830, Note_on_c, 0, 68, 0
2, 10830, Note_on_c, 0, 69, 80
2, 10860, Note_on_c, 0, 69, 0
2, 10860, Note_on_c, 0, 68, 80
2, 10890, Note_on_c, 0, 68, 0
2, 10890, Note_on_c, 0, 69, 80
2, 10920, Note_on_c, 0, 69, 0
2, 10920, Note_on_c, 0, 71, 85
2, 10950, Note_on_c, 0, 71, 0
2, 10950, Note_on_c, 0, 76, 85
2, 10980, Note_on_c, 0, 76, 0
2, 10980, Note_on_c, 0, 68, 85
2, 11010, Note_on_c, 0, 68, 0
2, 11010, Note_on_c, 0, 69, 85
2, 11040, Note_on_c, 0, 69, 0
2, 11040, Note_on_c, 0, 71, 85
2, 11070, Note_on_c, 0, 71, 0
2, 11070, Note_on_c, 0, 76, 85
2, 11100, Note_on_c, 0, 76, 0
2, 11100, Note_on_c, 0, 68, 85
2, 11130, Note_on_c, 0, 68, 0
2, 11130, Note_on_c, 0, 69, 85
2, 11160, Note_on_c, 0, 69, 0
2, 11160, Note_on_c, 0, 71, 85
2, 11190, Note_on_c, 0, 71, 0
2, 11190, Note_on_c, 0, 73, 85
2, 11220, Note_on_c, 0, 73, 0
2, 11220, Note_on_c, 0, 71, 85
2, 11250, Note_on_c, 0, 71, 0
2, 11250, Note_on_c, 0, 73, 85
2, 11280, Note_on_c, 0, 73, 0
2, 11280, Note_on_c, 0, 74, 90
2, 11310, Note_on_c, 0, 74, 0
2, 11310, Note_on_c, 0, 80, 90
2, 11340, Note_on_c, 0, 80, 0
2, 11340, Note_on_c, 0, 71, 90
2, 11370, Note_on_c, 0, 71, 0
2, 11370, Note_on_c, 0, 73, 90
2, 11400, Note_on_c, 0, 73, 0
2, 11400, Note_on_c, 0, 74, 90
2, 11430, Note_on_c, 0, 74, 0
2, 11430, Note_on_c, 0, 80, 90
2, 11460, Note_on_c, 0, 80, 0
2, 11460, Note_on_c, 0, 71, 90
2, 11490, Note_on_c, 0, 71, 0
2, 11490, Note_on_c, 0, 73, 90
2, 11520, Note_on_c, 0, 73, 0
2, 11520, Note_on_c, 0, 74, 95
2, 11550, Note_on_c, 0, 74, 0
2, 11550, Note_on_c, 0, 83, 95
2, 11580, Note_on_c, 0, 83, 0
2, 11580, Note_on_c, 0, 80, 95
2, 11610, Note_on_c, 0, 80, 0
2, 11610, Note_on_c, 0, 76, 95
2, 11640, Note_on_c, 0, 76, 0
2, 11640, Note_on_c, 0, 74, 95
2, 11670, Note_on_c, 0, 74, 0
2, 11670, Note_on_c, 0, 71, 95
2, 11700, Note_on_c, 0, 71, 0
2, 11700, Note_on_c, 0, 68, 95
2, 11730, Note_on_c, 0, 68, 0
2, 11730, Note_on_c, 0, 64, 95
2, 11760, Note_on_c, 0, 64, 0
2, 11760, Note_on_c, 0, 62, 95
2, 11790, Note_on_c, 0, 62, 0
2, 11790, Note_on_c, 0, 61, 95
2, 11820, Note_on_c, 0, 61, 0
2, 11820, Note_on_c, 0, 62, 95
2, 11850, Note_on_c, 0, 62, 0
2, 11850, Note_on_c, 0, 59, 95
2, 11880, Note_on_c, 0, 59, 0
2, 11880, Note_on_c, 0, 61, 80
2, 11910, Note_on_c, 0, 61, 0
2, 11910, Note_on_c, 0, 63, 80
2, 11940, Note_on_c, 0, 63, 0
2, 11940, Note_on_c, 0, 61, 80
2, 11970, Note_on_c, 0, 61, 0
2, 11970, Note_on_c, 0, 63, 80
2, 12000, Note_on_c, 0, 63, 0
2, 12000, Note_on_c, 0, 65, 80
2, 12030, Note_on_c, 0, 65, 0
2, 12030, Note_on_c, 0, 68, 80
2, 12060, Note_on_c, 0, 68, 0
2, 12060, Note_on_c, 0, 61, 80
2, 12090, Note_on_c, 0, 61, 0
2, 12090, Note_on_c, 0, 63, 80
2, 12120, Note_on_c, 0, 63, 0
2, 12120, Note_on_c, 0, 65, 80
2, 12150, Note_on_c, 0, 65, 0
2, 12150, Note_on_c, 0, 68, 80
2, 12180, Note_on_c, 0, 68, 0
2, 12180, Note_on_c, 0, 61, 80
2, 12210, Note_on_c, 0, 61, 0
2, 12210, Note_on_c, 0, 63, 80
2, 12240, Note_on_c, 0, 63, 0
2, 12240, Note_on_c, 0, 65, 80
2, 12270, Note_on_c, 0, 65, 0
2, 12270, Note_on_c, 0, 66, 80
2, 12300, Note_on_c, 0, 66, 0
2, 12300, Note_on_c, 0, 65, 80
2, 12330, Note_on_c, 0, 65, 0
2, 12330, Note_on_c, 0, 66, 80
2, 12360, Note_on_c, 0, 66, 0
2, 12360, Note_on_c, 0, 68, 85
2, 12390, Note_on_c, 0, 68, 0
2, 12390, Note_on_c, 0, 73, 85
2, 12420, Note_on_c, 0, 73, 0
2, 12420, Note_on_c, 0, 65, 85
2, 12450, Note_on_c, 0, 65, 0
2, 12450, Note_on_c, 0, 66, 85
2, 12480, Note_on_c, 0, 66, 0
2, 12480, Note_on_c, 0, 68, 85
2, 12510, Note_on_c, 0, 68, 0
2, 12510, Note_on_c, 0, 73, 85
2, 12540, Note_on_c, 0, 73, 0
2, 12540, Note_on_c, 0, 65, 85
2, 12570, Note_on_c, 0, 65, 0
2, 12570, Note_on_c, 0, 66, 85
2, 12600, Note_on_c, 0, 66, 0
2, 12600, Note_on_c, 0, 68, 85
2, 12630, Note_on_c, 0, 68, 0
2, 12630, Note_on_c, 0, 69, 85
2, 12660, Note_on_c, 0, 69, 0
2, 12660, Note_on_c, 0, 68, 85
2, 12690, Note_on_c, 0, 68, 0
2, 12690, Note_on_c, 0, 69, 85
2, 12720, Note_on_c, 0, 69, 0
2, 12720, Note_on_c, 0, 71, 90
2, 12750, Note_on_c, 0, 71, 0
2, 12750, Note_on_c, 0, 77, 90
2, 12780, Note_on_c, 0, 77, 0
2, 12780, Note_on_c, 0, 68, 90
2, 12810, Note_on_c, 0, 68, 0
2, 12810, Note_on_c, 0, 69, 90
2, 12840, Note_on_c, 0, 69, 0
2, 12840, Note_on_c, 0, 71, 90
2, 12870, Note_on_c, 0, 71, 0
2, 12870, Note_on_c, 0, 77, 90
2, 12900, Note_on_c, 0, 77, 0
2, 12900, Note_on_c, 0, 68, 90
2, 12930, Note_on_c, 0, 68, 0
2, 12930, Note_on_c, 0, 69, 90
2, 12960, Note_on_c, 0, 69, 0
2, 12960, Note_on_c, 0, 71, 90
2, 12990, Note_on_c, 0, 71, 0
2, 12990, Note_on_c, 0, 80, 90
2, 13020, Note_on_c, 0, 80, 0
2, 13020, Note_on_c, 0, 77, 90
2, 13050, Note_on_c, 0, 77, 0
2, 13050, Note_on_c, 0, 73, 90
2, 13080, Note_on_c, 0, 73, 0
2, 13080, Note_on_c, 0, 83, 95
2, 13110, Note_on_c, 0, 83, 0
2, 13110, Note_on_c, 0, 80, 95
2, 13140, Note_on_c, 0, 80, 0
2, 13140, Note_on_c, 0, 81, 95
2, 13170, Note_on_c, 0, 81, 0
2, 13170, Note_on_c, 0, 78, 95
2, 13200, Note_on_c, 0, 78, 0
2, 13200, Note_on_c, 0, 77, 95
2, 13230, Note_on_c, 0, 77, 0
2, 13230, Note_on_c, 0, 80, 95
2, 13260, Note_on_c, 0, 80, 0
2, 13260, Note_on_c, 0, 73, 95
2, 13290, Note_on_c, 0, 73, 0
2, 13290, Note_on_c, 0, 71, 95
2, 13320, Note_on_c, 0, 71, 0
2, 13320, Note_on_c, 0, 69, 95
2, 13350, Note_on_c, 0, 69, 0
2, 13350, Note_on_c, 0, 73, 95
2, 13380, Note_on_c, 0, 73, 0
2, 13380, Note_on_c, 0, 69, 95
2, 13410, Note_on_c, 0, 69, 0
2, 13410, Note_on_c, 0, 66, 95
2, 13440, Note_on_c, 0, 66, 0
2, 13440, Note_on_c, 0, 78, 95
2, 13470, Note_on_c, 0, 78, 0
2, 13470, Note_on_c, 0, 75, 95
2, 13500, Note_on_c, 0, 75, 0
2, 13500, Note_on_c, 0, 76, 95
2, 13530, Note_on_c, 0, 76, 0
2, 13530, Note_on_c, 0, 73, 95
2, 13560, Note_on_c, 0, 73, 0
2, 13560, Note_on_c, 0, 72, 95
2, 13590, Note_on_c, 0, 72, 0
2, 13590, Note_on_c, 0, 75, 95
2, 13620, Note_on_c, 0, 75, 0
2, 13620, Note_on_c, 0, 68, 95
2, 13650, Note_on_c, 0, 68, 0
2, 13650, Note_on_c, 0, 66, 95
2, 13680, Note_on_c, 0, 66, 0
2, 13680, Note_on_c, 0, 64, 95
2, 13710, Note_on_c, 0, 64, 0
2, 13710, Note_on_c, 0, 68, 95
2, 13740, Note_on_c, 0, 68, 0
2, 13740, Note_on_c, 0, 64, 95
2, 13770, Note_on_c, 0, 64, 0
2, 13770, Note_on_c, 0, 61, 95
2, 13800, Note_on_c, 0, 61, 0
2, 13800, Note_on_c, 0, 64, 95
2, 13830, Note_on_c, 0, 64, 0
2, 13830, Note_on_c, 0, 68, 95
2, 13860, Note_on_c, 0, 68, 0
2, 13860, Note_on_c, 0, 73, 95
2, 13890, Note_on_c, 0, 73, 0
2, 13890, Note_on_c, 0, 68, 95
2, 13920, Note_on_c, 0, 68, 0
2, 13920, Note_on_c, 0, 76, 95
2, 13950, Note_on_c, 0, 76, 0
2, 13950, Note_on_c, 0, 73, 95
2, 13980, Note_on_c, 0, 73, 0
2, 13980, Note_on_c, 0, 80, 95
2, 14010, Note_on_c, 0, 80, 0
2, 14010, Note_on_c, 0, 73, 95
2, 14040, Note_on_c, 0, 73, 0
2, 14040, Note_on_c, 0, 72, 95
2, 14070, Note_on_c, 0, 72, 0
2, 14070, Note_on_c, 0, 75, 95
2, 14100, Note_on_c, 0, 75, 0
2, 14100, Note_on_c, 0, 72, 95
2, 14130, Note_on_c, 0, 72, 0
2, 14130, Note_on_c, 0, 68, 95
2, 14160, Note_on_c, 0, 68, 0
2, 14160, Note_on_c, 0, 80, 95
2, 14190, Note_on_c, 0, 80, 0
2, 14190, Note_on_c, 0, 79, 95
2, 14220, Note_on_c, 0, 79, 0
2, 14220, Note_on_c, 0, 80, 95
2, 14250, Note_on_c, 0, 80, 0
2, 14250, Note_on_c, 0, 79, 95
2, 14280, Note_on_c, 0, 79, 0
2, 14280, Note_on_c, 0, 80, 95
2, 14310, Note_on_c, 0, 80, 0
2, 14310, Note_on_c, 0, 75, 95
2, 14340, Note_on_c, 0, 75, 0
2, 14340, Note_on_c, 0, 76, 95
2, 14370, Note_on_c, 0, 76, 0
2, 14370, Note_on_c, 0, 73, 95
2, 14400, Note_on_c, 0, 73, 0
2, 14400, Note_on_c, 0, 72, 95
2, 14430, Note_on_c, 0, 72, 0
2, 14430, Note_on_c, 0, 75, 95
2, 14460, Note_on_c, 0, 75, 0
2, 14460, Note_on_c, 0, 72, 95
2, 14490, Note_on_c, 0, 72, 0
2, 14490, Note_on_c, 0, 68, 95
2, 14520, Note_on_c, 0, 68, 0
2, 14520, Note_on_c, 0, 78, 100
2, 14550, Note_on_c, 0, 78, 0
2, 14550, Note_on_c, 0, 77, 100
2, 14580, Note_on_c, 0, 77, 0
2, 14580, Note_on_c, 0, 78, 100
2, 14610, Note_on_c, 0, 78, 0
2, 14610, Note_on_c, 0, 77, 100
2, 14640, Note_on_c, 0, 77, 0
2, 14640, Note_on_c, 0, 78, 100
2, 14670, Note_on_c, 0, 78, 0
2, 14670, Note_on_c, 0, 75, 100
2, 14700, Note_on_c, 0, 75, 0
2, 14700, Note_on_c, 0, 76, 100
2, 14730, Note_on_c, 0, 76, 0
2, 14730, Note_on_c, 0, 73, 100
2, 14760, Note_on_c, 0, 73, 0
2, 14760, Note_on_c, 0, 72, 100
2, 14790, Note_on_c, 0, 72, 0
2, 14790, Note_on_c, 0, 75, 100
2, 14820, Note_on_c, 0, 75, 0
2, 14820, Note_on_c, 0, 72, 100
2, 14850, Note_on_c, 0, 72, 0
2, 14850, Note_on_c, 0, 68, 100
2, 14880, Note_on_c, 0, 68, 0
2, 14880, Note_on_c, 0, 69, 100
2, 14910, Note_on_c, 0, 69, 0
2, 14910, Note_on_c, 0, 68, 100
2, 14940, Note_on_c, 0, 68, 0
2, 14940, Note_on_c, 0, 69, 100
2, 14970, Note_on_c, 0, 69, 0
2, 14970, Note_on_c, 0, 68, 100
2, 15000, Note_on_c, 0, 68, 0
2, 15000, Note_on_c, 0, 69, 100
2, 15030, Note_on_c, 0, 69, 0
2, 15030, Note_on_c, 0, 63, 100
2, 15060, Note_on_c, 0, 63, 0
2, 15060, Note_on_c, 0, 64, 100
2, 15090, Note_on_c, 0, 64, 0
2, 15090, Note_on_c, 0, 61, 100
2, 15120, Note_on_c, 0, 61, 0
2, 15120, Note_on_c, 0, 60, 100
2, 15150, Note_on_c, 0, 60, 0
2, 15150, Note_on_c, 0, 66, 100
2, 15180, Note_on_c, 0, 66, 0
2, 15180, Note_on_c, 0, 61, 100
2, 15210, Note_on_c, 0, 61, 0
2, 15210, Note_on_c, 0, 66, 100
2, 15240, Note_on_c, 0, 66, 0
2, 15240, Note_on_c, 0, 63, 100
2, 15270, Note_on_c, 0, 63, 0
2, 15270, Note_on_c, 0, 66, 100
2, 15300, Note_on_c, 0, 66, 0
2, 15300, Note_on_c, 0, 61, 100
2, 15330, Note_on_c, 0, 61, 0
2, 15330, Note_on_c, 0, 66, 100
2, 15360, Note_on_c, 0, 66, 0
2, 15360, Note_on_c, 0, 60, 100
2, 15390, Note_on_c, 0, 60, 0
2, 15390, Note_on_c, 0, 66, 100
2, 15420, Note_on_c, 0, 66, 0
2, 15420, Note_on_c, 0, 63, 100
2, 15450, Note_on_c, 0, 63, 0
2, 15450, Note_on_c, 0, 66, 100
2, 15480, Note_on_c, 0, 66, 0
2, 15480, Note_on_c, 0, 56, 100
2, 15510, Note_on_c, 0, 56, 0
2, 15510, Note_on_c, 0, 66, 90
2, 15540, Note_on_c, 0, 66, 0
2, 15540, Note_on_c, 0, 75, 90
2, 15570, Note_on_c, 0, 75, 0
2, 15570, Note_on_c, 0, 66, 90
2, 15600, Note_on_c, 0, 66, 0
2, 15600, Note_on_c, 0, 72, 90
2, 15630, Note_on_c, 0, 72, 0
2, 15630, Note_on_c, 0, 66, 90
2, 15660, Note_on_c, 0, 66, 0
2, 15660, Note_on_c, 0, 75, 90
2, 15690, Note_on_c, 0, 75, 0
2, 15690, Note_on_c, 0, 66, 90
2, 15720, Note_on_c, 0, 66, 0
2, 15720, Note_on_c, 0, 72, 90
2, 15750, Note_on_c, 0, 72, 0
2, 15750, Note_on_c, 0, 66, 90
2, 15780, Note_on_c, 0, 66, 0
2, 15780, Note_on_c, 0, 75, 90
2, 15810, Note_on_c, 0, 75, 0
2, 15810, Note_on_c, 0, 66, 90
2, 15840, Note_on_c, 0, 66, 0
2, 15840, Note_on_c, 0, 56, 90
2, 15870, Note_on_c, 0, 56, 0
2, 15870, Note_on_c, 0, 64, 90
2, 15900, Note_on_c, 0, 64, 0
2, 15900, Note_on_c, 0, 73, 90
2, 15930, Note_on_c, 0, 73, 0
2, 15930, Note_on_c, 0, 64, 90
2, 15960, Note_on_c, 0, 64, 0
2, 15960, Note_on_c, 0, 76, 90
2, 15990, Note_on_c, 0, 76, 0
2, 15990, Note_on_c, 0, 64, 90
2, 16020, Note_on_c, 0, 64, 0
2, 16020, Note_on_c, 0, 73, 90
2, 16050, Note_on_c, 0, 73, 0
2, 16050, Note_on_c, 0, 64, 90
2, 16080, Note_on_c, 0, 64, 0
2, 16080, Note_on_c, 0, 76, 90
2, 16110, Note_on_c, 0, 76, 0
2, 16110, Note_on_c, 0, 64, 90
2, 16140, Note_on_c, 0, 64, 0
2, 16140, Note_on_c, 0, 73, 90
2, 16170, Note_on_c, 0, 73, 0
2, 16170, Note_on_c, 0, 64, 90
2, 16200, Note_on_c, 0, 64, 0
2, 16200, Note_on_c, 0, 56, 85
2, 16230, Note_on_c, 0, 56, 0
2, 16230, Note_on_c, 0, 66, 85
2, 16260, Note_on_c, 0, 66, 0
2, 16260, Note_on_c, 0, 75, 85
2, 16290, Note_on_c, 0, 75, 0
2, 16290, Note_on_c, 0, 66, 85
2, 16320, Note_on_c, 0, 66, 0
2, 16320, Note_on_c, 0, 72, 85
2, 16350, Note_on_c, 0, 72, 0
2, 16350, Note_on_c, 0, 66, 85
2, 16380, Note_on_c, 0, 66, 0
2, 16380, Note_on_c, 0, 75, 85
2, 16410, Note_on_c, 0, 75, 0
2, 16410, Note_on_c, 0, 66, 85
2, 16440, Note_on_c, 0, 66, 0
2, 16440, Note_on_c, 0, 72, 85
2, 16470, Note_on_c, 0, 72, 0
2, 16470, Note_on_c, 0, 66, 85
2, 16500, Note_on_c, 0, 66, 0
2, 16500, Note_on_c, 0, 75, 85
2, 16530, Note_on_c, 0, 75, 0
2, 16530, Note_on_c, 0, 66, 85
2, 16560, Note_on_c, 0, 66, 0
2, 16560, Note_on_c, 0, 56, 85
2, 16590, Note_on_c, 0, 56, 0
2, 16590, Note_on_c, 0, 64, 85
2, 16620, Note_on_c, 0, 64, 0
2, 16620, Note_on_c, 0, 73, 85
2, 16650, Note_on_c, 0, 73, 0
2, 16650, Note_on_c, 0, 64, 85
2, 16680, Note_on_c, 0, 64, 0
2, 16680, Note_on_c, 0, 76, 85
2, 16710, Note_on_c, 0, 76, 0
2, 16710, Note_on_c, 0, 64, 85
2, 16740, Note_on_c, 0, 64, 0
2, 16740, Note_on_c, 0, 73, 85
2, 16770, Note_on_c, 0, 73, 0
2, 16770, Note_on_c, 0, 64, 85
2, 16800, Note_on_c, 0, 64, 0
2, 16800, Note_on_c, 0, 76, 85
2, 16830, Note_on_c, 0, 76, 0
2, 16830, Note_on_c, 0, 64, 85
2, 16860, Note_on_c, 0, 64, 0
2, 16860, Note_on_c, 0, 73, 85
2, 16890, Note_on_c, 0, 73, 0
2, 16890, Note_on_c, 0, 64, 85
2, 16920, Note_on_c, 0, 64, 0
2, 16920, Note_on_c, 0, 56, 95
2, 16950, Note_on_c, 0, 56, 0
2, 16950, Note_on_c, 0, 67, 95
2, 16980, Note_on_c, 0, 67, 0
2, 16980, Note_on_c, 0, 73, 95
2, 17010, Note_on_c, 0, 73, 0
2, 17010, Note_on_c, 0, 67, 95
2, 17040, Note_on_c, 0, 67, 0
2, 17040, Note_on_c, 0, 76, 95
2, 17070, Note_on_c, 0, 76, 0
2, 17070, Note_on_c, 0, 67, 95
2, 17100, Note_on_c, 0, 67, 0
2, 17100, Note_on_c, 0, 73, 95
2, 17130, Note_on_c, 0, 73, 0
2, 17130, Note_on_c, 0, 67, 95
2, 17160, Note_on_c, 0, 67, 0
2, 17160, Note_on_c, 0, 76, 95
2, 17190, Note_on_c, 0, 76, 0
2, 17190, Note_on_c, 0, 67, 95
2, 17220, Note_on_c, 0, 67, 0
2, 17220, Note_on_c, 0, 73, 95
2, 17250, Note_on_c, 0, 73, 0
2, 17250, Note_on_c, 0, 67, 95
2, 17280, Note_on_c, 0, 67, 0
2, 17280, Note_on_c, 0, 56, 95
2, 17310, Note_on_c, 0, 56, 0
2, 17310, Note_on_c, 0, 67, 95
2, 17340, Note_on_c, 0, 67, 0
2, 17340, Note_on_c, 0, 73, 95
2, 17370, Note_on_c, 0, 73, 0
2, 17370, Note_on_c, 0, 67, 95
2, 17400, Note_on_c, 0, 67, 0
2, 17400, Note_on_c, 0, 76, 95
2, 17430, Note_on_c, 0, 76, 0
2, 17430, Note_on_c, 0, 67, 95
2, 17460, Note_on_c, 0, 67, 0
2, 17460, Note_on_c, 0, 73, 95
2, 17490, Note_on_c, 0, 73, 0
2, 17490, Note_on_c, 0, 67, 95
2, 17520, Note_on_c, 0, 67, 0
2, 17520, Note_on_c, 0, 76, 95
2, 17550, Note_on_c, 0, 76, 0
2, 17550, Note_on_c, 0, 67, 95
2, 17580, Note_on_c, 0, 67, 0
2, 17580, Note_on_c, 0, 73, 95
2, 17610, Note_on_c, 0, 73, 0
2, 17610, Note_on_c, 0, 67, 95
2, 17640, Note_on_c, 0, 67, 0
2, 17640, Note_on_c, 0, 56, 90
2, 17670, Note_on_c, 0, 56, 0
2, 17670, Note_on_c, 0, 68, 90
2, 17700, Note_on_c, 0, 68, 0
2, 17700, Note_on_c, 0, 73, 90
2, 17730, Note_on_c, 0, 73, 0
2, 17730, Note_on_c, 0, 68, 90
2, 17760, Note_on_c, 0, 68, 0
2, 17760, Note_on_c, 0, 75, 90
2, 17790, Note_on_c, 0, 75, 0
2, 17790, Note_on_c, 0, 68, 90
2, 17820, Note_on_c, 0, 68, 0
2, 17820, Note_on_c, 0, 73, 90
2, 17850, Note_on_c, 0, 73, 0
2, 17850, Note_on_c, 0, 68, 90
2, 17880, Note_on_c, 0, 68, 0
2, 17880, Note_on_c, 0, 75, 90
2, 17910, Note_on_c, 0, 75, 0
2, 17910, Note_on_c, 0, 68, 90
2, 17940, Note_on_c, 0, 68, 0
2, 17940, Note_on_c, 0, 73, 90
2, 17970, Note_on_c, 0, 73, 0
2, 17970, Note_on_c, 0, 68, 90
2, 18000, Note_on_c, 0, 68, 0
2, 18000, Note_on_c, 0, 56, 85
2, 18030, Note_on_c, 0, 56, 0
2, 18030, Note_on_c, 0, 66, 85
2, 18060, Note_on_c, 0, 66, 0
2, 18060, Note_on_c, 0, 72, 85
2, 18090, Note_on_c, 0, 72, 0
2, 18090, Note_on_c, 0, 66, 85
2, 18120, Note_on_c, 0, 66, 0
2, 18120, Note_on_c, 0, 75, 85
2, 18150, Note_on_c, 0, 75, 0
2, 18150, Note_on_c, 0, 66, 85
2, 18180, Note_on_c, 0, 66, 0
2, 18180, Note_on_c, 0, 72, 85
2, 18210, Note_on_c, 0, 72, 0
2, 18210, Note_on_c, 0, 66, 85
2, 18240, Note_on_c, 0, 66, 0
2, 18240, Note_on_c, 0, 75, 85
2, 18270, Note_on_c, 0, 75, 0
2, 18270, Note_on_c, 0, 66, 85
2, 18300, Note_on_c, 0, 66, 0
2, 18300, Note_on_c, 0, 72, 85
2, 18330, Note_on_c, 0, 72, 0
2, 18330, Note_on_c, 0, 66, 85
2, 18360, Note_on_c, 0, 66, 0
2, 18360, Note_on_c, 0, 61, 95
2, 18390, Note_on_c, 0, 61, 0
2, 18390, Note_on_c, 0, 73, 95
2, 18420, Note_on_c, 0, 73, 0
2, 18420, Note_on_c, 0, 71, 95
2, 18450, Note_on_c, 0, 71, 0
2, 18450, Note_on_c, 0, 69, 95
2, 18480, Note_on_c, 0, 69, 0
2, 18480, Note_on_c, 0, 68, 95
2, 18510, Note_on_c, 0, 68, 0
2, 18510, Note_on_c, 0, 73, 95
2, 18540, Note_on_c, 0, 73, 0
2, 18540, Note_on_c, 0, 68, 95
2, 18570, Note_on_c, 0, 68, 0
2, 18570, Note_on_c, 0, 66, 95
2, 18600, Note_on_c, 0, 66, 0
2, 18600, Note_on_c, 0, 64, 95
2, 18630, Note_on_c, 0, 64, 0
2, 18630, Note_on_c, 0, 68, 95
2, 18660, Note_on_c, 0, 68, 0
2, 18660, Note_on_c, 0, 64, 95
2, 18690, Note_on_c, 0, 64, 0
2, 18690, Note_on_c, 0, 63, 95
2, 18720, Note_on_c, 0, 63, 0
2, 18720, Note_on_c, 0, 61, 95
2, 18750, Note_on_c, 0, 61, 0
2, 18750, Note_on_c, 0, 73, 95
2, 18780, Note_on_c, 0, 73, 0
2, 18780, Note_on_c, 0, 68, 95
2, 18810, Note_on_c, 0, 68, 0
2, 18810, Note_on_c, 0, 66, 95
2, 18840, Note_on_c, 0, 66, 0
2, 18840, Note_on_c, 0, 64, 95
2, 18870, Note_on_c, 0, 64, 0
2, 18870, Note_on_c, 0, 68, 95
2, 18900, Note_on_c, 0, 68, 0
2, 18900, Note_on_c, 0, 64, 95
2, 18930, Note_on_c, 0, 64, 0
2, 18930, Note_on_c, 0, 63, 95
2, 18960, Note_on_c, 0, 63, 0
2, 18960, Note_on_c, 0, 61, 95
2, 18990, Note_on_c, 0, 61, 0
2, 18990, Note_on_c, 0, 64, 95
2, 19020, Note_on_c, 0, 64, 0
2, 19020, Note_on_c, 0, 61, 95
2, 19050, Note_on_c, 0, 61, 0
2, 19050, Note_on_c, 0, 59, 95
2, 19080, Note_on_c, 0, 59, 0
2, 19080, Note_on_c, 0, 58, 95
2, 19110, Note_on_c, 0, 58, 0
2, 19110, Note_on_c, 0, 66, 85
2, 19140, Note_on_c, 0, 66, 0
2, 19140, Note_on_c, 0, 73, 85
2, 19170, Note_on_c, 0, 73, 0
2, 19170, Note_on_c, 0, 66, 85
2, 19200, Note_on_c, 0, 66, 0
2, 19200, Note_on_c, 0, 76, 85
2, 19230, Note_on_c, 0, 76, 0
2, 19230, Note_on_c, 0, 66, 85
2, 19260, Note_on_c, 0, 66, 0
2, 19260, Note_on_c, 0, 73, 85
2, 19290, Note_on_c, 0, 73, 0
2, 19290, Note_on_c, 0, 66, 85
2, 19320, Note_on_c, 0, 66, 0
2, 19320, Note_on_c, 0, 76, 85
2, 19350, Note_on_c, 0, 76, 0
2, 19350, Note_on_c, 0, 66, 85
2, 19380, Note_on_c, 0, 66, 0
2, 19380, Note_on_c, 0, 73, 85
2, 19410, Note_on_c, 0, 73, 0
2, 19410, Note_on_c, 0, 66, 85
2, 19440, Note_on_c, 0, 66, 0
2, 19440, Note_on_c, 0, 58, 85
2, 19470, Note_on_c, 0, 58, 0
2, 19470, Note_on_c, 0, 66, 85
2, 19500, Note_on_c, 0, 66, 0
2, 19500, Note_on_c, 0, 76, 85
2, 19530, Note_on_c, 0, 76, 0
2, 19530, Note_on_c, 0, 66, 85
2, 19560, Note_on_c, 0, 66, 0
2, 19560, Note_on_c, 0, 73, 85
2, 19590, Note_on_c, 0, 73, 0
2, 19590, Note_on_c, 0, 66, 85
2, 19620, Note_on_c, 0, 66, 0
2, 19620, Note_on_c, 0, 76, 85
2, 19650, Note_on_c, 0, 76, 0
2, 19650, Note_on_c, 0, 66, 85
2, 19680, Note_on_c, 0, 66, 0
2, 19680, Note_on_c, 0, 73, 85
2, 19710, Note_on_c, 0, 73, 0
2, 19710, Note_on_c, 0, 66, 85
2, 19740, Note_on_c, 0, 66, 0
2, 19740, Note_on_c, 0, 76, 85
2, 19770, Note_on_c, 0, 76, 0
2, 19770, Note_on_c, 0, 66, 85
2, 19800, Note_on_c, 0, 66, 0
2, 19800, Note_on_c, 0, 59, 85
2, 19830, Note_on_c, 0, 59, 0
2, 19830, Note_on_c, 0, 83, 95
2, 19860, Note_on_c, 0, 83, 0
2, 19860, Note_on_c, 0, 82, 95
2, 19890, Note_on_c, 0, 82, 0
2, 19890, Note_on_c, 0, 80, 95
2, 19920, Note_on_c, 0, 80, 0
2, 19920, Note_on_c, 0, 78, 95
2, 19950, Note_on_c, 0, 78, 0
2, 19950, Note_on_c, 0, 83, 95
2, 19980, Note_on_c, 0, 83, 0
2, 19980, Note_on_c, 0, 78, 95
2, 20010, Note_on_c, 0, 78, 0
2, 20010, Note_on_c, 0, 76, 95
2, 20040, Note_on_c, 0, 76, 0
2, 20040, Note_on_c, 0, 75, 95
2, 20070, Note_on_c, 0, 75, 0
2, 20070, Note_on_c, 0, 78, 95
2, 20100, Note_on_c, 0, 78, 0
2, 20100, Note_on_c, 0, 75, 95
2, 20130, Note_on_c, 0, 75, 0
2, 20130, Note_on_c, 0, 73, 95
2, 20160, Note_on_c, 0, 73, 0
2, 20160, Note_on_c, 0, 71, 95
2, 20190, Note_on_c, 0, 71, 0
2, 20190, Note_on_c, 0, 83, 95
2, 20220, Note_on_c, 0, 83, 0
2, 20220, Note_on_c, 0, 78, 95
2, 20250, Note_on_c, 0, 78, 0
2, 20250, Note_on_c, 0, 76, 95
2, 20280, Note_on_c, 0, 76, 0
2, 20280, Note_on_c, 0, 75, 95
2, 20310, Note_on_c, 0, 75, 0
2, 20310, Note_on_c, 0, 78, 95
2, 20340, Note_on_c, 0, 78, 0
2, 20340, Note_on_c, 0, 75, 95
2, 20370, Note_on_c, 0, 75, 0
2, 20370, Note_on_c, 0, 73, 95
2, 20400, Note_on_c, 0, 73, 0
2, 20400, Note_on_c, 0, 71, 95
2, 20430, Note_on_c, 0, 71, 0
2, 20430, Note_on_c, 0, 75, 95
2, 20460, Note_on_c, 0, 75, 0
2, 20460, Note_on_c, 0, 71, 95
2, 20490, Note_on_c, 0, 71, 0
2, 20490, Note_on_c, 0, 69, 95
2, 20520, Note_on_c, 0, 69, 0
2, 20520, Note_on_c, 0, 68, 95
2, 20550, Note_on_c, 0, 68, 0
2, 20550, Note_on_c, 0, 74, 95
2, 20580, Note_on_c, 0, 74, 0
2, 20580, Note_on_c, 0, 76, 95
2, 20610, Note_on_c, 0, 76, 0
2, 20610, Note_on_c, 0, 74, 95
2, 20640, Note_on_c, 0, 74, 0
2, 20640, Note_on_c, 0, 80, 95
2, 20670, Note_on_c, 0, 80, 0
2, 20670, Note_on_c, 0, 74, 95
2, 20700, Note_on_c, 0, 74, 0
2, 20700, Note_on_c, 0, 83, 95
2, 20730, Note_on_c, 0, 83, 0
2, 20730, Note_on_c, 0, 74, 95
2, 20760, Note_on_c, 0, 74, 0
2, 20760, Note_on_c, 0, 80, 95
2, 20790, Note_on_c, 0, 80, 0
2, 20790, Note_on_c, 0, 74, 95
2, 20820, Note_on_c, 0, 74, 0
2, 20820, Note_on_c, 0, 76, 95
2, 20850, Note_on_c, 0, 76, 0
2, 20850, Note_on_c, 0, 74, 95
2, 20880, Note_on_c, 0, 74, 0
2, 20880, Note_on_c, 0, 68, 85
2, 20910, Note_on_c, 0, 68, 0
2, 20910, Note_on_c, 0, 74, 85
2, 20940, Note_on_c, 0, 74, 0
2, 20940, Note_on_c, 0, 76, 85
2, 20970, Note_on_c, 0, 76, 0
2, 20970, Note_on_c, 0, 74, 85
2, 21000, Note_on_c, 0, 74, 0
2, 21000, Note_on_c, 0, 68, 85
2, 21030, Note_on_c, 0, 68, 0
2, 21030, Note_on_c, 0, 74, 85
2, 21060, Note_on_c, 0, 74, 0
2, 21060, Note_on_c, 0, 66, 85
2, 21090, Note_on_c, 0, 66, 0
2, 21090, Note_on_c, 0, 74, 85
2, 21120, Note_on_c, 0, 74, 0
2, 21120, Note_on_c, 0, 68, 85
2, 21150, Note_on_c, 0, 68, 0
2, 21150, Note_on_c, 0, 74, 85
2, 21180, Note_on_c, 0, 74, 0
2, 21180, Note_on_c, 0, 64, 85
2, 21210, Note_on_c, 0, 64, 0
2, 21210, Note_on_c, 0, 74, 85
2, 21240, Note_on_c, 0, 74, 0
2, 21240, Note_on_c, 0, 73, 95
2, 21270, Note_on_c, 0, 73, 0
2, 21270, Note_on_c, 0, 76, 95
2, 21300, Note_on_c, 0, 76, 0
2, 21300, Note_on_c, 0, 81, 95
2, 21330, Note_on_c, 0, 81, 0
2, 21330, Note_on_c, 0, 80, 95
2, 21360, Note_on_c, 0, 80, 0
2, 21360, Note_on_c, 0, 81, 95
2, 21390, Note_on_c, 0, 81, 0
2, 21390, Note_on_c, 0, 76, 95
2, 21420, Note_on_c, 0, 76, 0
2, 21420, Note_on_c, 0, 74, 95
2, 21450, Note_on_c, 0, 74, 0
2, 21450, Note_on_c, 0, 76, 95
2, 21480, Note_on_c, 0, 76, 0
2, 21480, Note_on_c, 0, 73, 95
2, 21510, Note_on_c, 0, 73, 0
2, 21510, Note_on_c, 0, 76, 95
2, 21540, Note_on_c, 0, 76, 0
2, 21540, Note_on_c, 0, 71, 95
2, 21570, Note_on_c, 0, 71, 0
2, 21570, Note_on_c, 0, 76, 95
2, 21600, Note_on_c, 0, 76, 0
2, 21600, Note_on_c, 0, 69, 95
2, 21630, Note_on_c, 0, 69, 0
2, 21630, Note_on_c, 0, 81, 95
2, 21660, Note_on_c, 0, 81, 0
2, 21660, Note_on_c, 0, 80, 95
2, 21690, Note_on_c, 0, 80, 0
2, 21690, Note_on_c, 0, 78, 95
2, 21720, Note_on_c, 0, 78, 0
2, 21720, Note_on_c, 0, 76, 95
2, 21750, Note_on_c, 0, 76, 0
2, 21750, Note_on_c, 0, 69, 95
2, 21780, Note_on_c, 0, 69, 0
2, 21780, Note_on_c, 0, 78, 95
2, 21810, Note_on_c, 0, 78, 0
2, 21810, Note_on_c, 0, 69, 95
2, 21840, Note_on_c, 0, 69, 0
2, 21840, Note_on_c, 0, 76, 95
2, 21870, Note_on_c, 0, 76, 0
2, 21870, Note_on_c, 0, 69, 95
2, 21900, Note_on_c, 0, 69, 0
2, 21900, Note_on_c, 0, 74, 95
2, 21930, Note_on_c, 0, 74, 0
2, 21930, Note_on_c, 0, 69, 95
2, 21960, Note_on_c, 0, 69, 0
2, 21960, Note_on_c, 0, 73, 85
2, 21990, Note_on_c, 0, 73, 0
2, 21990, Note_on_c, 0, 76, 85
2, 22020, Note_on_c, 0, 76, 0
2, 22020, Note_on_c, 0, 71, 85
2, 22050, Note_on_c, 0, 71, 0
2, 22050, Note_on_c, 0, 76, 85
2, 22080, Note_on_c, 0, 76, 0
2, 22080, Note_on_c, 0, 73, 85
2, 22110, Note_on_c, 0, 73, 0
2, 22110, Note_on_c, 0, 76, 85
2, 22140, Note_on_c, 0, 76, 0
2, 22140, Note_on_c, 0, 74, 85
2, 22170, Note_on_c, 0, 74, 0
2, 22170, Note_on_c, 0, 76, 85
2, 22200, Note_on_c, 0, 76, 0
2, 22200, Note_on_c, 0, 73, 85
2, 22230, Note_on_c, 0, 73, 0
2, 22230, Note_on_c, 0, 76, 85
2, 22260, Note_on_c, 0, 76, 0
2, 22260, Note_on_c, 0, 71, 85
2, 22290, Note_on_c, 0, 71, 0
2, 22290, Note_on_c, 0, 76, 85
2, 22320, Note_on_c, 0, 76, 0
2, 22320, Note_on_c, 0, 69, 85
2, 22350, Note_on_c, 0, 69, 0
2, 22350, Note_on_c, 0, 81, 95
2, 22380, Note_on_c, 0, 81, 0
2, 22380, Note_on_c, 0, 80, 95
2, 22410, Note_on_c, 0, 80, 0
2, 22410, Note_on_c, 0, 78, 95
2, 22440, Note_on_c, 0, 78, 0
2, 22440, Note_on_c, 0, 76, 95
2, 22470, Note_on_c, 0, 76, 0
2, 22470, Note_on_c, 0, 69, 95
2, 22500, Note_on_c, 0, 69, 0
2, 22500, Note_on_c, 0, 78, 95
2, 22530, Note_on_c, 0, 78, 0
2, 22530, Note_on_c, 0, 69, 95
2, 22560, Note_on_c, 0, 69, 0
2, 22560, Note_on_c, 0, 76, 95
2, 22590, Note_on_c, 0, 76, 0
2, 22590, Note_on_c, 0, 69, 95
2, 22620, Note_on_c, 0, 69, 0
2, 22620, Note_on_c, 0, 74, 95
2, 22650, Note_on_c, 0, 74, 0
2, 22650, Note_on_c, 0, 69, 95
2, 22680, Note_on_c, 0, 69, 0
2, 22680, Note_on_c, 0, 73, 85
2, 22710, Note_on_c, 0, 73, 0
2, 22710, Note_on_c, 0, 69, 85
2, 22740, Note_on_c, 0, 69, 0
2, 22740, Note_on_c, 0, 69, 85
2, 22770, Note_on_c, 0, 69, 0
2, 22770, Note_on_c, 0, 69, 85
2, 22800, Note_on_c, 0, 69, 0
2, 22800, Note_on_c, 0, 68, 85
2, 22830, Note_on_c, 0, 68, 0
2, 22830, Note_on_c, 0, 69, 85
2, 22860, Note_on_c, 0, 69, 0
2, 22860, Note_on_c, 0, 69, 85
2, 22890, Note_on_c, 0, 69, 0
2, 22890, Note_on_c, 0, 69, 85
2, 22920, Note_on_c, 0, 69, 0
2, 22920, Note_on_c, 0, 71, 85
2, 22950, Note_on_c, 0, 71, 0
2, 22950, Note_on_c, 0, 69, 85
2, 22980, Note_on_c, 0, 69, 0
2, 22980, Note_on_c, 0, 68, 85
2, 23010, Note_on_c, 0, 68, 0
2, 23010, Note_on_c, 0, 69, 85
2, 23040, Note_on_c, 0, 69, 0
2, 23040, Note_on_c, 0, 69, 85
2, 23070, Note_on_c, 0, 69, 0
2, 23070, Note_on_c, 0, 69, 85
2, 23100, Note_on_c, 0, 69, 0
2, 23100, Note_on_c, 0, 73, 95
2, 23130, Note_on_c, 0, 73, 0
2, 23130, Note_on_c, 0, 69, 95
2, 23160, Note_on_c, 0, 69, 0
2, 23160, Note_on_c, 0, 71, 95
2, 23190, Note_on_c, 0, 71, 0
2, 23190, Note_on_c, 0, 69, 95
2, 23220, Note_on_c, 0, 69, 0
2, 23220, Note_on_c, 0, 73, 95
2, 23250, Note_on_c, 0, 73, 0
2, 23250, Note_on_c, 0, 69, 95
2, 23280, Note_on_c, 0, 69, 0
2, 23280, Note_on_c, 0, 74, 95
2, 23310, Note_on_c, 0, 74, 0
2, 23310, Note_on_c, 0, 69, 95
2, 23340, Note_on_c, 0, 69, 0
2, 23340, Note_on_c, 0, 71, 95
2, 23370, Note_on_c, 0, 71, 0
2, 23370, Note_on_c, 0, 69, 95
2, 23400, Note_on_c, 0, 69, 0
2, 23400, Note_on_c, 0, 73, 85
2, 23430, Note_on_c, 0, 73, 0
2, 23430, Note_on_c, 0, 69, 85
2, 23460, Note_on_c, 0, 69, 0
2, 23460, Note_on_c, 0, 69, 85
2, 23490, Note_on_c, 0, 69, 0
2, 23490, Note_on_c, 0, 69, 85
2, 23520, Note_on_c, 0, 69, 0
2, 23520, Note_on_c, 0, 68, 85
2, 23550, Note_on_c, 0, 68, 0
2, 23550, Note_on_c, 0, 69, 85
2, 23580, Note_on_c, 0, 69, 0
2, 23580, Note_on_c, 0, 69, 85
2, 23610, Note_on_c, 0, 69, 0
2, 23610, Note_on_c, 0, 69, 85
2, 23640, Note_on_c, 0, 69, 0
2, 23640, Note_on_c, 0, 71, 85
2, 23670, Note_on_c, 0, 71, 0
2, 23670, Note_on_c, 0, 69, 85
2, 23700, Note_on_c, 0, 69, 0
2, 23700, Note_on_c, 0, 68, 85
2, 23730, Note_on_c, 0, 68, 0
2, 23730, Note_on_c, 0, 69, 85
2, 23760, Note_on_c, 0, 69, 0
2, 23760, Note_on_c, 0, 69, 85
2, 23790, Note_on_c, 0, 69, 0
2, 23790, Note_on_c, 0, 69, 85
2, 23820, Note_on_c, 0, 69, 0
2, 23820, Note_on_c, 0, 73, 95
2, 23850, Note_on_c, 0, 73, 0
2, 23850, Note_on_c, 0, 69, 95
2, 23880, Note_on_c, 0, 69, 0
2, 23880, Note_on_c, 0, 71, 95
2, 23910, Note_on_c, 0, 71, 0
2, 23910, Note_on_c, 0, 69, 95
2, 23940, Note_on_c, 0, 69, 0
2, 23940, Note_on_c, 0, 73, 95
2, 23970, Note_on_c, 0, 73, 0
2, 23970, Note_on_c, 0, 69, 95
2, 24000, Note_on_c, 0, 69, 0
2, 24000, Note_on_c, 0, 74, 95
2, 24030, Note_on_c, 0, 74, 0
2, 24030, Note_on_c, 0, 69, 95
2, 24060, Note_on_c, 0, 69, 0
2, 24060, Note_on_c, 0, 71, 95
2, 24090, Note_on_c, 0, 71, 0
2, 24090, Note_on_c, 0, 69, 95
2, 24120, Note_on_c, 0, 69, 0
2, 24120, Note_on_c, 0, 73, 90
2, 24150, Note_on_c, 0, 73, 0
2, 24150, Note_on_c, 0, 69, 90
2, 24180, Note_on_c, 0, 69, 0
2, 24180, Note_on_c, 0, 73, 90
2, 24210, Note_on_c, 0, 73, 0
2, 24210, Note_on_c, 0, 69, 90
2, 24240, Note_on_c, 0, 69, 0
2, 24240, Note_on_c, 0, 73, 90
2, 24270, Note_on_c, 0, 73, 0
2, 24270, Note_on_c, 0, 69, 90
2, 24300, Note_on_c, 0, 69, 0
2, 24300, Note_on_c, 0, 73, 90
2, 24330, Note_on_c, 0, 73, 0
2, 24330, Note_on_c, 0, 69, 90
2, 24360, Note_on_c, 0, 69, 0
2, 24360, Note_on_c, 0, 73, 90
2, 24390, Note_on_c, 0, 73, 0
2, 24390, Note_on_c, 0, 69, 90
2, 24420, Note_on_c, 0, 69, 0
2, 24420, Note_on_c, 0, 73, 90
2, 24450, Note_on_c, 0, 73, 0
2, 24450, Note_on_c, 0, 69, 90
2, 24480, Note_on_c, 0, 69, 0
2, 24480, Note_on_c, 0, 73, 90
2, 24510, Note_on_c, 0, 73, 0
2, 24510, Note_on_c, 0, 69, 90
2, 24540, Note_on_c, 0, 69, 0
2, 24540, Note_on_c, 0, 73, 90
2, 24570, Note_on_c, 0, 73, 0
2, 24570, Note_on_c, 0, 68, 90
2, 24600, Note_on_c, 0, 68, 0
2, 24600, Note_on_c, 0, 73, 90
2, 24630, Note_on_c, 0, 73, 0
2, 24630, Note_on_c, 0, 69, 90
2, 24660, Note_on_c, 0, 69, 0
2, 24660, Note_on_c, 0, 73, 90
2, 24690, Note_on_c, 0, 73, 0
2, 24690, Note_on_c, 0, 68, 90
2, 24720, Note_on_c, 0, 68, 0
2, 24720, Note_on_c, 0, 73, 90
2, 24750, Note_on_c, 0, 73, 0
2, 24750, Note_on_c, 0, 69, 90
2, 24780, Note_on_c, 0, 69, 0
2, 24780, Note_on_c, 0, 73, 90
2, 24810, Note_on_c, 0, 73, 0
2, 24810, Note_on_c, 0, 68, 90
2, 24840, Note_on_c, 0, 68, 0
2, 24840, Note_on_c, 0, 73, 95
2, 24870, Note_on_c, 0, 73, 0
2, 24870, Note_on_c, 0, 69, 95
2, 24900, Note_on_c, 0, 69, 0
2, 24900, Note_on_c, 0, 73, 95
2, 24930, Note_on_c, 0, 73, 0
2, 24930, Note_on_c, 0, 67, 95
2, 24960, Note_on_c, 0, 67, 0
2, 24960, Note_on_c, 0, 73, 95
2, 24990, Note_on_c, 0, 73, 0
2, 24990, Note_on_c, 0, 69, 95
2, 25020, Note_on_c, 0, 69, 0
2, 25020, Note_on_c, 0, 73, 95
2, 25050, Note_on_c, 0, 73, 0
2, 25050, Note_on_c, 0, 67, 95
2, 25080, Note_on_c, 0, 67, 0
2, 25080, Note_on_c, 0, 73, 95
2, 25110, Note_on_c, 0, 73, 0
2, 25110, Note_on_c, 0, 69, 95
2, 25140, Note_on_c, 0, 69, 0
2, 25140, Note_on_c, 0, 73, 95
2, 25170, Note_on_c, 0, 73, 0
2, 25170, Note_on_c, 0, 67, 95
2, 25200, Note_on_c, 0, 67, 0
2, 25200, Note_on_c, 0, 74, 100
2, 25230, Note_on_c, 0, 74, 0
2, 25230, Note_on_c, 0, 69, 100
2, 25260, Note_on_c, 0, 69, 0
2, 25260, Note_on_c, 0, 74, 100
2, 25290, Note_on_c, 0, 74, 0
2, 25290, Note_on_c, 0, 66, 100
2, 25320, Note_on_c, 0, 66, 0
2, 25320, Note_on_c, 0, 74, 100
2, 25350, Note_on_c, 0, 74, 0
2, 25350, Note_on_c, 0, 69, 100
2, 25380, Note_on_c, 0, 69, 0
2, 25380, Note_on_c, 0, 74, 100
2, 25410, Note_on_c, 0, 74, 0
2, 25410, Note_on_c, 0, 66, 100
2, 25440, Note_on_c, 0, 66, 0
2, 25440, Note_on_c, 0, 74, 100
2, 25470, Note_on_c, 0, 74, 0
2, 25470, Note_on_c, 0, 69, 100
2, 25500, Note_on_c, 0, 69, 0
2, 25500, Note_on_c, 0, 74, 100
2, 25530, Note_on_c, 0, 74, 0
2, 25530, Note_on_c, 0, 66, 100
2, 25560, Note_on_c, 0, 66, 0
2, 25560, Note_on_c, 0, 74, 100
2, 25590, Note_on_c, 0, 74, 0
2, 25590, Note_on_c, 0, 69, 100
2, 25620, Note_on_c, 0, 69, 0
2, 25620, Note_on_c, 0, 74, 100
2, 25650, Note_on_c, 0, 74, 0
2, 25650, Note_on_c, 0, 64, 100
2, 25680, Note_on_c, 0, 64, 0
2, 25680, Note_on_c, 0, 74, 100
2, 25710, Note_on_c, 0, 74, 0
2, 25710, Note_on_c, 0, 69, 100
2, 25740, Note_on_c, 0, 69, 0
2, 25740, Note_on_c, 0, 74, 100
2, 25770, Note_on_c, 0, 74, 0
2, 25770, Note_on_c, 0, 64, 100
2, 25800, Note_on_c, 0, 64, 0
2, 25800, Note_on_c, 0, 74, 100
2, 25830, Note_on_c, 0, 74, 0
2, 25830, Note_on_c, 0, 69, 100
2, 25860, Note_on_c, 0, 69, 0
2, 25860, Note_on_c, 0, 74, 100
2, 25890, Note_on_c, 0, 74, 0
2, 25890, Note_on_c, 0, 64, 100
2, 25920, Note_on_c, 0, 64, 0
2, 25920, Note_on_c, 0, 73, 100
2, 25950, Note_on_c, 0, 73, 0
2, 25950, Note_on_c, 0, 69, 100
2, 25980, Note_on_c, 0, 69, 0
2, 25980, Note_on_c, 0, 73, 100
2, 26010, Note_on_c, 0, 73, 0
2, 26010, Note_on_c, 0, 64, 100
2, 26040, Note_on_c, 0, 64, 0
2, 26040, Note_on_c, 0, 73, 100
2, 26070, Note_on_c, 0, 73, 0
2, 26070, Note_on_c, 0, 69, 100
2, 26100, Note_on_c, 0, 69, 0
2, 26100, Note_on_c, 0, 73, 100
2, 26130, Note_on_c, 0, 73, 0
2, 26130, Note_on_c, 0, 64, 100
2, 26160, Note_on_c, 0, 64, 0
2, 26160, Note_on_c, 0, 73, 100
2, 26190, Note_on_c, 0, 73, 0
2, 26190, Note_on_c, 0, 69, 100
2, 26220, Note_on_c, 0, 69, 0
2, 26220, Note_on_c, 0, 73, 100
2, 26250, Note_on_c, 0, 73, 0
2, 26250, Note_on_c, 0, 64, 100
2, 26280, Note_on_c, 0, 64, 0
2, 26280, Note_on_c, 0, 73, 95
2, 26310, Note_on_c, 0, 73, 0
2, 26310, Note_on_c, 0, 69, 95
2, 26340, Note_on_c, 0, 69, 0
2, 26340, Note_on_c, 0, 73, 95
2, 26370, Note_on_c, 0, 73, 0
2, 26370, Note_on_c, 0, 62, 95
2, 26400, Note_on_c, 0, 62, 0
2, 26400, Note_on_c, 0, 73, 95
2, 26430, Note_on_c, 0, 73, 0
2, 26430, Note_on_c, 0, 69, 95
2, 26460, Note_on_c, 0, 69, 0
2, 26460, Note_on_c, 0, 73, 95
2, 26490, Note_on_c, 0, 73, 0
2, 26490, Note_on_c, 0, 62, 95
2, 26520, Note_on_c, 0, 62, 0
2, 26520, Note_on_c, 0, 73, 95
2, 26550, Note_on_c, 0, 73, 0
2, 26550, Note_on_c, 0, 69, 95
2, 26580, Note_on_c, 0, 69, 0
2, 26580, Note_on_c, 0, 73, 95
2, 26610, Note_on_c, 0, 73, 0
2, 26610, Note_on_c, 0, 62, 95
2, 26640, Note_on_c, 0, 62, 0
2, 26640, Note_on_c, 0, 71, 95
2, 26670, Note_on_c, 0, 71, 0
2, 26670, Note_on_c, 0, 69, 95
2, 26700, Note_on_c, 0, 69, 0
2, 26700, Note_on_c, 0, 71, 95
2, 26730, Note_on_c, 0, 71, 0
2, 26730, Note_on_c, 0, 62, 95
2, 26760, Note_on_c, 0, 62, 0
2, 26760, Note_on_c, 0, 71, 95
2, 26790, Note_on_c, 0, 71, 0
2, 26790, Note_on_c, 0, 69, 95
2, 26820, Note_on_c, 0, 69, 0
2, 26820, Note_on_c, 0, 71, 95
2, 26850, Note_on_c, 0, 71, 0
2, 26850, Note_on_c, 0, 62, 95
2, 26880, Note_on_c, 0, 62, 0
2, 26880, Note_on_c, 0, 71, 95
2, 26910, Note_on_c, 0, 71, 0
2, 26910, Note_on_c, 0, 69, 95
2, 26940, Note_on_c, 0, 69, 0
2, 26940, Note_on_c, 0, 71, 95
2, 26970, Note_on_c, 0, 71, 0
2, 26970, Note_on_c, 0, 62, 95
2, 27000, Note_on_c, 0, 62, 0
2, 27000, Note_on_c, 0, 71, 90
2, 27030, Note_on_c, 0, 71, 0
2, 27030, Note_on_c, 0, 69, 90
2, 27060, Note_on_c, 0, 69, 0
2, 27060, Note_on_c, 0, 71, 90
2, 27090, Note_on_c, 0, 71, 0
2, 27090, Note_on_c, 0, 61, 90
2, 27120, Note_on_c, 0, 61, 0
2, 27120, Note_on_c, 0, 71, 90
2, 27150, Note_on_c, 0, 71, 0
2, 27150, Note_on_c, 0, 69, 90
2, 27180, Note_on_c, 0, 69, 0
2, 27180, Note_on_c, 0, 71, 90
2, 27210, Note_on_c, 0, 71, 0
2, 27210, Note_on_c, 0, 61, 90
2, 27240, Note_on_c, 0, 61, 0
2, 27240, Note_on_c, 0, 71, 90
2, 27270, Note_on_c, 0, 71, 0
2, 27270, Note_on_c, 0, 69, 90
2, 27300, Note_on_c, 0, 69, 0
2, 27300, Note_on_c, 0, 71, 90
2, 27330, Note_on_c, 0, 71, 0
2, 27330, Note_on_c, 0, 61, 90
2, 27360, Note_on_c, 0, 61, 0
2, 27360, Note_on_c, 0, 69, 90
2, 27390, Note_on_c, 0, 69, 0
2, 27390, Note_on_c, 0, 69, 90
2, 27420, Note_on_c, 0, 69, 0
2, 27420, Note_on_c, 0, 69, 90
2, 27450, Note_on_c, 0, 69, 0
2, 27450, Note_on_c, 0, 61, 90
2, 27480, Note_on_c, 0, 61, 0
2, 27480, Note_on_c, 0, 69, 90
2, 27510, Note_on_c, 0, 69, 0
2, 27510, Note_on_c, 0, 69, 90
2, 27540, Note_on_c, 0, 69, 0
2, 27540, Note_on_c, 0, 69, 90
2, 27570, Note_on_c, 0, 69, 0
2, 27570, Note_on_c, 0, 61, 90
2, 27600, Note_on_c, 0, 61, 0
2, 27600, Note_on_c, 0, 69, 90
2, 27630, Note_on_c, 0, 69, 0
2, 27630, Note_on_c, 0, 69, 90
2, 27660, Note_on_c, 0, 69, 0
2, 27660, Note_on_c, 0, 69, 90
2, 27690, Note_on_c, 0, 69, 0
2, 27690, Note_on_c, 0, 61, 90
2, 27720, Note_on_c, 0, 61, 0
2, 27720, Note_on_c, 0, 69, 85
2, 27750, Note_on_c, 0, 69, 0
2, 27750, Note_on_c, 0, 69, 85
2, 27780, Note_on_c, 0, 69, 0
2, 27780, Note_on_c, 0, 69, 85
2, 27810, Note_on_c, 0, 69, 0
2, 27810, Note_on_c, 0, 59, 85
2, 27840, Note_on_c, 0, 59, 0
2, 27840, Note_on_c, 0, 69, 85
2, 27870, Note_on_c, 0, 69, 0
2, 27870, Note_on_c, 0, 69, 85
2, 27900, Note_on_c, 0, 69, 0
2, 27900, Note_on_c, 0, 69, 85
2, 27930, Note_on_c, 0, 69, 0
2, 27930, Note_on_c, 0, 59, 85
2, 27960, Note_on_c, 0, 59, 0
2, 27960, Note_on_c, 0, 69, 85
2, 27990, Note_on_c, 0, 69, 0
2, 27990, Note_on_c, 0, 69, 85
2, 28020, Note_on_c, 0, 69, 0
2, 28020, Note_on_c, 0, 69, 85
2, 28050, Note_on_c, 0, 69, 0
2, 28050, Note_on_c, 0, 59, 85
2, 28080, Note_on_c, 0, 59, 0
2, 28080, Note_on_c, 0, 68, 85
2, 28110, Note_on_c, 0, 68, 0
2, 28110, Note_on_c, 0, 69, 85
2, 28140, Note_on_c, 0, 69, 0
2, 28140, Note_on_c, 0, 68, 85
2, 28170, Note_on_c, 0, 68, 0
2, 28170, Note_on_c, 0, 59, 85
2, 28200, Note_on_c, 0, 59, 0
2, 28200, Note_on_c, 0, 68, 85
2, 28230, Note_on_c, 0, 68, 0
2, 28230, Note_on_c, 0, 69, 85
2, 28260, Note_on_c, 0, 69, 0
2, 28260, Note_on_c, 0, 68, 85
2, 28290, Note_on_c, 0, 68, 0
2, 28290, Note_on_c, 0, 59, 85
2, 28320, Note_on_c, 0, 59, 0
2, 28320, Note_on_c, 0, 68, 85
2, 28350, Note_on_c, 0, 68, 0
2, 28350, Note_on_c, 0, 69, 85
2, 28380, Note_on_c, 0, 69, 0
2, 28380, Note_on_c, 0, 68, 85
2, 28410, Note_on_c, 0, 68, 0
2, 28410, Note_on_c, 0, 59, 85
2, 28440, Note_on_c, 0, 59, 0
2, 28440, Note_on_c, 0, 57, 80
2, 28470, Note_on_c, 0, 57, 0
2, 28470, Note_on_c, 0, 59, 80
2, 28500, Note_on_c, 0, 59, 0
2, 28500, Note_on_c, 0, 57, 80
2, 28530, Note_on_c, 0, 57, 0
2, 28530, Note_on_c, 0, 59, 80
2, 28560, Note_on_c, 0, 59, 0
2, 28560, Note_on_c, 0, 61, 80
2, 28590, Note_on_c, 0, 61, 0
2, 28590, Note_on_c, 0, 64, 80
2, 28620, Note_on_c, 0, 64, 0
2, 28620, Note_on_c, 0, 57, 80
2, 28650, Note_on_c, 0, 57, 0
2, 28650, Note_on_c, 0, 59, 80
2, 28680, Note_on_c, 0, 59, 0
2, 28680, Note_on_c, 0, 61, 80
2, 28710, Note_on_c, 0, 61, 0
2, 28710, Note_on_c, 0, 64, 80
2, 28740, Note_on_c, 0, 64, 0
2, 28740, Note_on_c, 0, 57, 80
2, 28770, Note_on_c, 0, 57, 0
2, 28770, Note_on_c, 0, 59, 80
2, 28800, Note_on_c, 0, 59, 0
2, 28800, Note_on_c, 0, 61, 80
2, 28830, Note_on_c, 0, 61, 0
2, 28830, Note_on_c, 0, 62, 80
2, 28860, Note_on_c, 0, 62, 0
2, 28860, Note_on_c, 0, 61, 80
2, 28890, Note_on_c, 0, 61, 0
2, 28890, Note_on_c, 0, 62, 80
2, 28920, Note_on_c, 0, 62, 0
2, 28920, Note_on_c, 0, 64, 85
2, 28950, Note_on_c, 0, 64, 0
2, 28950, Note_on_c, 0, 69, 85
2, 28980, Note_on_c, 0, 69, 0
2, 28980, Note_on_c, 0, 61, 85
2, 29010, Note_on_c, 0, 61, 0
2, 29010, Note_on_c, 0, 62, 85
2, 29040, Note_on_c, 0, 62, 0
2, 29040, Note_on_c, 0, 64, 85
2, 29070, Note_on_c, 0, 64, 0
2, 29070, Note_on_c, 0, 69, 85
2, 29100, Note_on_c, 0, 69, 0
2, 29100, Note_on_c, 0, 61, 85
2, 29130, Note_on_c, 0, 61, 0
2, 29130, Note_on_c, 0, 62, 85
2, 29160, Note_on_c, 0, 62, 0
2, 29160, Note_on_c, 0, 64, 85
2, 29190, Note_on_c, 0, 64, 0
2, 29190, Note_on_c, 0, 66, 85
2, 29220, Note_on_c, 0, 66, 0
2, 29220, Note_on_c, 0, 64, 85
2, 29250, Note_on_c, 0, 64, 0
2, 29250, Note_on_c, 0, 66, 85
2, 29280, Note_on_c, 0, 66, 0
2, 29280, Note_on_c, 0, 67, 90
2, 29310, Note_on_c, 0, 67, 0
2, 29310, Note_on_c, 0, 73, 90
2, 29340, Note_on_c, 0, 73, 0
2, 29340, Note_on_c, 0, 64, 90
2, 29370, Note_on_c, 0, 64, 0
2, 29370, Note_on_c, 0, 66, 90
2, 29400, Note_on_c, 0, 66, 0
2, 29400, Note_on_c, 0, 67, 90
2, 29430, Note_on_c, 0, 67, 0
2, 29430, Note_on_c, 0, 73, 90
2, 29460, Note_on_c, 0, 73, 0
2, 29460, Note_on_c, 0, 64, 90
2, 29490, Note_on_c, 0, 64, 0
2, 29490, Note_on_c, 0, 66, 90
2, 29520, Note_on_c, 0, 66, 0
2, 29520, Note_on_c, 0, 67, 95
2, 29550, Note_on_c, 0, 67, 0
2, 29550, Note_on_c, 0, 76, 95
2, 29580, Note_on_c, 0, 76, 0
2, 29580, Note_on_c, 0, 73, 95
2, 29610, Note_on_c, 0, 73, 0
2, 29610, Note_on_c, 0, 74, 95
2, 29640, Note_on_c, 0, 74, 0
2, 29640, Note_on_c, 0, 76, 95
2, 29670, Note_on_c, 0, 76, 0
2, 29670, Note_on_c, 0, 73, 95
2, 29700, Note_on_c, 0, 73, 0
2, 29700, Note_on_c, 0, 70, 95
2, 29730, Note_on_c, 0, 70, 0
2, 29730, Note_on_c, 0, 71, 95
2, 29760, Note_on_c, 0, 71, 0
2, 29760, Note_on_c, 0, 73, 95
2, 29790, Note_on_c, 0, 73, 0
2, 29790, Note_on_c, 0, 70, 95
2, 29820, Note_on_c, 0, 70, 0
2, 29820, Note_on_c, 0, 66, 95
2, 29850, Note_on_c, 0, 66, 0
2, 29850, Note_on_c, 0, 64, 95
2, 29880, Note_on_c, 0, 64, 0
2, 29880, Note_on_c, 0, 62, 80
2, 29910, Note_on_c, 0, 62, 0
2, 29910, Note_on_c, 0, 61, 80
2, 29940, Note_on_c, 0, 61, 0
2, 29940, Note_on_c, 0, 59, 80
2, 29970, Note_on_c, 0, 59, 0
2, 29970, Note_on_c, 0, 61, 80
2, 30000, Note_on_c, 0, 61, 0
2, 30000, Note_on_c, 0, 62, 80
2, 30030, Note_on_c, 0, 62, 0
2, 30030, Note_on_c, 0, 66, 80
2, 30060, Note_on_c, 0, 66, 0
2, 30060, Note_on_c, 0, 59, 80
2, 30090, Note_on_c, 0, 59, 0
2, 30090, Note_on_c, 0, 61, 80
2, 30120, Note_on_c, 0, 61, 0
2, 30120, Note_on_c, 0, 62, 80
2, 30150, Note_on_c, 0, 62, 0
2, 30150, Note_on_c, 0, 66, 80
2, 30180, Note_on_c, 0, 66, 0
2, 30180, Note_on_c, 0, 59, 80
2, 30210, Note_on_c, 0, 59, 0
2, 30210, Note_on_c, 0, 61, 80
2, 30240, Note_on_c, 0, 61, 0
2, 30240, Note_on_c, 0, 62, 80
2, 30270, Note_on_c, 0, 62, 0
2, 30270, Note_on_c, 0, 64, 80
2, 30300, Note_on_c, 0, 64, 0
2, 30300, Note_on_c, 0, 62, 80
2, 30330, Note_on_c, 0, 62, 0
2, 30330, Note_on_c, 0, 64, 80
2, 30360, Note_on_c, 0, 64, 0
2, 30360, Note_on_c, 0, 66, 85
2, 30390, Note_on_c, 0, 66, 0
2, 30390, Note_on_c, 0, 71, 85
2, 30420, Note_on_c, 0, 71, 0
2, 30420, Note_on_c, 0, 62, 85
2, 30450, Note_on_c, 0, 62, 0
2, 30450, Note_on_c, 0, 64, 85
2, 30480, Note_on_c, 0, 64, 0
2, 30480, Note_on_c, 0, 66, 85
2, 30510, Note_on_c, 0, 66, 0
2, 30510, Note_on_c, 0, 71, 85
2, 30540, Note_on_c, 0, 71, 0
2, 30540, Note_on_c, 0, 62, 85
2, 30570, Note_on_c, 0, 62, 0
2, 30570, Note_on_c, 0, 64, 85
2, 30600, Note_on_c, 0, 64, 0
2, 30600, Note_on_c, 0, 66, 85
2, 30630, Note_on_c, 0, 66, 0
2, 30630, Note_on_c, 0, 68, 85
2, 30660, Note_on_c, 0, 68, 0
2, 30660, Note_on_c, 0, 66, 85
2, 30690, Note_on_c, 0, 66, 0
2, 30690, Note_on_c, 0, 68, 85
2, 30720, Note_on_c, 0, 68, 0
2, 30720, Note_on_c, 0, 69, 85
2, 30750, Note_on_c, 0, 69, 0
2, 30750, Note_on_c, 0, 75, 85
2, 30780, Note_on_c, 0, 75, 0
2, 30780, Note_on_c, 0, 66, 85
2, 30810, Note_on_c, 0, 66, 0
2, 30810, Note_on_c, 0, 68, 85
2, 30840, Note_on_c, 0, 68, 0
2, 30840, Note_on_c, 0, 69, 85
2, 30870, Note_on_c, 0, 69, 0
2, 30870, Note_on_c, 0, 75, 85
2, 30900, Note_on_c, 0, 75, 0
2, 30900, Note_on_c, 0, 66, 85
2, 30930, Note_on_c, 0, 66, 0
2, 30930, Note_on_c, 0, 68, 85
2, 30960, Note_on_c, 0, 68, 0
2, 30960, Note_on_c, 0, 69, 85
2, 30990, Note_on_c, 0, 69, 0
2, 30990, Note_on_c, 0, 78, 85
2, 31020, Note_on_c, 0, 78, 0
2, 31020, Note_on_c, 0, 75, 85
2, 31050, Note_on_c, 0, 75, 0
2, 31050, Note_on_c, 0, 76, 85
2, 31080, Note_on_c, 0, 76, 0
2, 31080, Note_on_c, 0, 78, 85
2, 31110, Note_on_c, 0, 78, 0
2, 31110, Note_on_c, 0, 75, 85
2, 31140, Note_on_c, 0, 75, 0
2, 31140, Note_on_c, 0, 72, 85
2, 31170, Note_on_c, 0, 72, 0
2, 31170, Note_on_c, 0, 73, 85
2, 31200, Note_on_c, 0, 73, 0
2, 31200, Note_on_c, 0, 75, 85
2, 31230, Note_on_c, 0, 75, 0
2, 31230, Note_on_c, 0, 72, 85
2, 31260, Note_on_c, 0, 72, 0
2, 31260, Note_on_c, 0, 68, 85
2, 31290, Note_on_c, 0, 68, 0
2, 31290, Note_on_c, 0, 66, 85
2, 31320, Note_on_c, 0, 66, 0
2, 31320, Note_on_c, 0, 65, 85
2, 31350, Note_on_c, 0, 65, 0
2, 31350, Note_on_c, 0, 83, 90
2, 31380, Note_on_c, 0, 83, 0
2, 31380, Note_on_c, 0, 80, 90
2, 31410, Note_on_c, 0, 80, 0
2, 31410, Note_on_c, 0, 81, 90
2, 31440, Note_on_c, 0, 81, 0
2, 31440, Note_on_c, 0, 83, 90
2, 31470, Note_on_c, 0, 83, 0
2, 31470, Note_on_c, 0, 80, 90
2, 31500, Note_on_c, 0, 80, 0
2, 31500, Note_on_c, 0, 77, 90
2, 31530, Note_on_c, 0, 77, 0
2, 31530, Note_on_c, 0, 78, 90
2, 31560, Note_on_c, 0, 78, 0
2, 31560, Note_on_c, 0, 80, 90
2, 31590, Note_on_c, 0, 80, 0
2, 31590, Note_on_c, 0, 77, 90
2, 31620, Note_on_c, 0, 77, 0
2, 31620, Note_on_c, 0, 73, 90
2, 31650, Note_on_c, 0, 73, 0
2, 31650, Note_on_c, 0, 71, 90
2, 31680, Note_on_c, 0, 71, 0
2, 31680, Note_on_c, 0, 69, 90
2, 31710, Note_on_c, 0, 69, 0
2, 31710, Note_on_c, 0, 85, 95
2, 31740, Note_on_c, 0, 85, 0
2, 31740, Note_on_c, 0, 81, 95
2, 31770, Note_on_c, 0, 81, 0
2, 31770, Note_on_c, 0, 83, 95
2, 31800, Note_on_c, 0, 83, 0
2, 31800, Note_on_c, 0, 85, 95
2, 31830, Note_on_c, 0, 85, 0
2, 31830, Note_on_c, 0, 81, 95
2, 31860, Note_on_c, 0, 81, 0
2, 31860, Note_on_c, 0, 78, 95
2, 31890, Note_on_c, 0, 78, 0
2, 31890, Note_on_c, 0, 80, 95
2, 31920, Note_on_c, 0, 80, 0
2, 31920, Note_on_c, 0, 81, 95
2, 31950, Note_on_c, 0, 81, 0
2, 31950, Note_on_c, 0, 78, 95
2, 31980, Note_on_c, 0, 78, 0
2, 31980, Note_on_c, 0, 74, 95
2, 32010, Note_on_c, 0, 74, 0
2, 32010, Note_on_c, 0, 73, 95
2, 32040, Note_on_c, 0, 73, 0
2, 32040, Note_on_c, 0, 71, 95
2, 32070, Note_on_c, 0, 71, 0
2, 32070, Note_on_c, 0, 86, 100
2, 32100, Note_on_c, 0, 86, 0
2, 32100, Note_on_c, 0, 83, 100
2, 32130, Note_on_c, 0, 83, 0
2, 32130, Note_on_c, 0, 85, 100
2, 32160, Note_on_c, 0, 85, 0
2, 32160, Note_on_c, 0, 86, 100
2, 32190, Note_on_c, 0, 86, 0
2, 32190, Note_on_c, 0, 83, 100
2, 32220, Note_on_c, 0, 83, 0
2, 32220, Note_on_c, 0, 80, 100
2, 32250, Note_on_c, 0, 80, 0
2, 32250, Note_on_c, 0, 81, 100
2, 32280, Note_on_c, 0, 81, 0
2, 32280, Note_on_c, 0, 83, 100
2, 32310, Note_on_c, 0, 83, 0
2, 32310, Note_on_c, 0, 80, 100
2, 32340, Note_on_c, 0, 80, 0
2, 32340, Note_on_c, 0, 77, 100
2, 32370, Note_on_c, 0, 77, 0
2, 32370, Note_on_c, 0, 80, 100
2, 32400, Note_on_c, 0, 80, 0
2, 32400, Note_on_c, 0, 73, 95
2, 32430, Note_on_c, 0, 73, 0
2, 32430, Note_on_c, 0, 75, 95
2, 32460, Note_on_c, 0, 75, 0
2, 32460, Note_on_c, 0, 73, 95
2, 32490, Note_on_c, 0, 73, 0
2, 32490, Note_on_c, 0, 75, 95
2, 32520, Note_on_c, 0, 75, 0
2, 32520, Note_on_c, 0, 77, 95
2, 32550, Note_on_c, 0, 77, 0
2, 32550, Note_on_c, 0, 80, 95
2, 32580, Note_on_c, 0, 80, 0
2, 32580, Note_on_c, 0, 73, 95
2, 32610, Note_on_c, 0, 73, 0
2, 32610, Note_on_c, 0, 75, 95
2, 32640, Note_on_c, 0, 75, 0
2, 32640, Note_on_c, 0, 77, 95
2, 32670, Note_on_c, 0, 77, 0
2, 32670, Note_on_c, 0, 80, 95
2, 32700, Note_on_c, 0, 80, 0
2, 32700, Note_on_c, 0, 73, 95
2, 32730, Note_on_c, 0, 73, 0
2, 32730, Note_on_c, 0, 75, 95
2, 32760, Note_on_c, 0, 75, 0
2, 32760, Note_on_c, 0, 77, 95
2, 32790, Note_on_c, 0, 77, 0
2, 32790, Note_on_c, 0, 78, 95
2, 32820, Note_on_c, 0, 78, 0
2, 32820, Note_on_c, 0, 77, 95
2, 32850, Note_on_c, 0, 77, 0
2, 32850, Note_on_c, 0, 78, 95
2, 32880, Note_on_c, 0, 78, 0
2, 32880, Note_on_c, 0, 80, 95
2, 32910, Note_on_c, 0, 80, 0
2, 32910, Note_on_c, 0, 83, 95
2, 32940, Note_on_c, 0, 83, 0
2, 32940, Note_on_c, 0, 77, 95
2, 32970, Note_on_c, 0, 77, 0
2, 32970, Note_on_c, 0, 78, 95
2, 33000, Note_on_c, 0, 78, 0
2, 33000, Note_on_c, 0, 80, 95
2, 33030, Note_on_c, 0, 80, 0
2, 33030, Note_on_c, 0, 83, 95
2, 33060, Note_on_c, 0, 83, 0
2, 33060, Note_on_c, 0, 77, 95
2, 33090, Note_on_c, 0, 77, 0
2, 33090, Note_on_c, 0, 78, 95
2, 33120, Note_on_c, 0, 78, 0
2, 33120, Note_on_c, 0, 80, 95
2, 33150, Note_on_c, 0, 80, 0
2, 33150, Note_on_c, 0, 81, 95
2, 33180, Note_on_c, 0, 81, 0
2, 33180, Note_on_c, 0, 80, 95
2, 33210, Note_on_c, 0, 80, 0
2, 33210, Note_on_c, 0, 81, 95
2, 33240, Note_on_c, 0, 81, 0
2, 33240, Note_on_c, 0, 83, 95
2, 33270, Note_on_c, 0, 83, 0
2, 33270, Note_on_c, 0, 86, 95
2, 33300, Note_on_c, 0, 86, 0
2, 33300, Note_on_c, 0, 80, 95
2, 33330, Note_on_c, 0, 80, 0
2, 33330, Note_on_c, 0, 81, 95
2, 33360, Note_on_c, 0, 81, 0
2, 33360, Note_on_c, 0, 83, 95
2, 33390, Note_on_c, 0, 83, 0
2, 33390, Note_on_c, 0, 86, 95
2, 33420, Note_on_c, 0, 86, 0
2, 33420, Note_on_c, 0, 80, 95
2, 33450, Note_on_c, 0, 80, 0
2, 33450, Note_on_c, 0, 81, 95
2, 33480, Note_on_c, 0, 81, 0
2, 33480, Note_on_c, 0, 83, 100
2, 33510, Note_on_c, 0, 83, 0
2, 33510, Note_on_c, 0, 86, 100
2, 33540, Note_on_c, 0, 86, 0
2, 33540, Note_on_c, 0, 83, 100
2, 33570, Note_on_c, 0, 83, 0
2, 33570, Note_on_c, 0, 80, 100
2, 33600, Note_on_c, 0, 80, 0
2, 33600, Note_on_c, 0, 77, 100
2, 33630, Note_on_c, 0, 77, 0
2, 33630, Note_on_c, 0, 83, 100
2, 33660, Note_on_c, 0, 83, 0
2, 33660, Note_on_c, 0, 80, 100
2, 33690, Note_on_c, 0, 80, 0
2, 33690, Note_on_c, 0, 77, 100
2, 33720, Note_on_c, 0, 77, 0
2, 33720, Note_on_c, 0, 73, 100
2, 33750, Note_on_c, 0, 73, 0
2, 33750, Note_on_c, 0, 83, 100
2, 33780, Note_on_c, 0, 83, 0
2, 33780, Note_on_c, 0, 81, 100
2, 33810, Note_on_c, 0, 81, 0
2, 33810, Note_on_c, 0, 80, 100
2, 33840, Note_on_c, 0, 80, 0
2, 33840, Note_on_c, 0, 78, 100
2, 33870, Note_on_c, 0, 78, 0
2, 33870, Note_on_c, 0, 80, 100
2, 33900, Note_on_c, 0, 80, 0
2, 33900, Note_on_c, 0, 81, 100
2, 33930, Note_on_c, 0, 81, 0
2, 33930, Note_on_c, 0, 78, 100
2, 33960, Note_on_c, 0, 78, 0
2, 33960, Note_on_c, 0, 71, 100
2, 33990, Note_on_c, 0, 71, 0
2, 33990, Note_on_c, 0, 81, 100
2, 34020, Note_on_c, 0, 81, 0
2, 34020, Note_on_c, 0, 80, 100
2, 34050, Note_on_c, 0, 80, 0
2, 34050, Note_on_c, 0, 78, 100
2, 34080, Note_on_c, 0, 78, 0
2, 34080, Note_on_c, 0, 73, 95
2, 34110, Note_on_c, 0, 73, 0
2, 34110, Note_on_c, 0, 80, 95
2, 34140, Note_on_c, 0, 80, 0
2, 34140, Note_on_c, 0, 78, 95
2, 34170, Note_on_c, 0, 78, 0
2, 34170, Note_on_c, 0, 77, 95
2, 34200, Note_on_c, 0, 77, 0
2, 34200, Note_on_c, 0, 74, 95
2, 34230, Note_on_c, 0, 74, 0
2, 34230, Note_on_c, 0, 76, 95
2, 34260, Note_on_c, 0, 76, 0
2, 34260, Note_on_c, 0, 78, 95
2, 34290, Note_on_c, 0, 78, 0
2, 34290, Note_on_c, 0, 74, 95
2, 34320, Note_on_c, 0, 74, 0
2, 34320, Note_on_c, 0, 68, 95
2, 34350, Note_on_c, 0, 68, 0
2, 34350, Note_on_c, 0, 78, 95
2, 34380, Note_on_c, 0, 78, 0
2, 34380, Note_on_c, 0, 76, 95
2, 34410, Note_on_c, 0, 76, 0
2, 34410, Note_on_c, 0, 74, 95
2, 34440, Note_on_c, 0, 74, 0
2, 34440, Note_on_c, 0, 70, 95
2, 34470, Note_on_c, 0, 70, 0
2, 34470, Note_on_c, 0, 76, 95
2, 34500, Note_on_c, 0, 76, 0
2, 34500, Note_on_c, 0, 74, 95
2, 34530, Note_on_c, 0, 74, 0
2, 34530, Note_on_c, 0, 73, 95
2, 34560, Note_on_c, 0, 73, 0
2, 34560, Note_on_c, 0, 71, 95
2, 34590, Note_on_c, 0, 71, 0
2, 34590, Note_on_c, 0, 73, 95
2, 34620, Note_on_c, 0, 73, 0
2, 34620, Note_on_c, 0, 74, 95
2, 34650, Note_on_c, 0, 74, 0
2, 34650, Note_on_c, 0, 71, 95
2, 34680, Note_on_c, 0, 71, 0
2, 34680, Note_on_c, 0, 65, 95
2, 34710, Note_on_c, 0, 65, 0
2, 34710, Note_on_c, 0, 74, 95
2, 34740, Note_on_c, 0, 74, 0
2, 34740, Note_on_c, 0, 73, 95
2, 34770, Note_on_c, 0, 73, 0
2, 34770, Note_on_c, 0, 71, 95
2, 34800, Note_on_c, 0, 71, 0
2, 34800, Note_on_c, 0, 66, 95
2, 34830, Note_on_c, 0, 66, 0
2, 34830, Note_on_c, 0, 73, 95
2, 34860, Note_on_c, 0, 73, 0
2, 34860, Note_on_c, 0, 71, 95
2, 34890, Note_on_c, 0, 71, 0
2, 34890, Note_on_c, 0, 69, 95
2, 34920, Note_on_c, 0, 69, 0
2, 34920, Note_on_c, 0, 68, 90
2, 34950, Note_on_c, 0, 68, 0
2, 34950, Note_on_c, 0, 69, 90
2, 34980, Note_on_c, 0, 69, 0
2, 34980, Note_on_c, 0, 71, 90
2, 35010, Note_on_c, 0, 71, 0
2, 35010, Note_on_c, 0, 69, 90
2, 35040, Note_on_c, 0, 69, 0
2, 35040, Note_on_c, 0, 68, 90
2, 35070, Note_on_c, 0, 68, 0
2, 35070, Note_on_c, 0, 71, 90
2, 35100, Note_on_c, 0, 71, 0
2, 35100, Note_on_c, 0, 69, 95
2, 35130, Note_on_c, 0, 69, 0
2, 35130, Note_on_c, 0, 71, 95
2, 35160, Note_on_c, 0, 71, 0
2, 35160, Note_on_c, 0, 68, 95
2, 35190, Note_on_c, 0, 68, 0
2, 35190, Note_on_c, 0, 71, 95
2, 35220, Note_on_c, 0, 71, 0
2, 35220, Note_on_c, 0, 66, 95
2, 35250, Note_on_c, 0, 66, 0
2, 35250, Note_on_c, 0, 71, 95
2, 35280, Note_on_c, 0, 71, 0
2, 35280, Note_on_c, 0, 65, 95
2, 35310, Note_on_c, 0, 65, 0
2, 35310, Note_on_c, 0, 66, 95
2, 35340, Note_on_c, 0, 66, 0
2, 35340, Note_on_c, 0, 68, 95
2, 35370, Note_on_c, 0, 68, 0
2, 35370, Note_on_c, 0, 69, 95
2, 35400, Note_on_c, 0, 69, 0
2, 35400, Note_on_c, 0, 71, 95
2, 35430, Note_on_c, 0, 71, 0
2, 35430, Note_on_c, 0, 65, 95
2, 35460, Note_on_c, 0, 65, 0
2, 35460, Note_on_c, 0, 74, 95
2, 35490, Note_on_c, 0, 74, 0
2, 35490, Note_on_c, 0, 65, 95
2, 35520, Note_on_c, 0, 65, 0
2, 35520, Note_on_c, 0, 73, 95
2, 35550, Note_on_c, 0, 73, 0
2, 35550, Note_on_c, 0, 65, 95
2, 35580, Note_on_c, 0, 65, 0
2, 35580, Note_on_c, 0, 71, 95
2, 35610, Note_on_c, 0, 71, 0
2, 35610, Note_on_c, 0, 65, 95
2, 35640, Note_on_c, 0, 65, 0
2, 35640, Note_on_c, 0, 66, 85
2, 35670, Note_on_c, 0, 66, 0
2, 35670, Note_on_c, 0, 69, 85
2, 35700, Note_on_c, 0, 69, 0
2, 35700, Note_on_c, 0, 66, 85
2, 35730, Note_on_c, 0, 66, 0
2, 35730, Note_on_c, 0, 61, 85
2, 35760, Note_on_c, 0, 61, 0
2, 35760, Note_on_c, 0, 57, 85
2, 35790, Note_on_c, 0, 57, 0
2, 35790, Note_on_c, 0, 61, 85
2, 35820, Note_on_c, 0, 61, 0
2, 35820, Note_on_c, 0, 66, 95
2, 35850, Note_on_c, 0, 66, 0
2, 35850, Note_on_c, 0, 61, 95
2, 35880, Note_on_c, 0, 61, 0
2, 35880, Note_on_c, 0, 69, 95
2, 35910, Note_on_c, 0, 69, 0
2, 35910, Note_on_c, 0, 61, 95
2, 35940, Note_on_c, 0, 61, 0
2, 35940, Note_on_c, 0, 66, 95
2, 35970, Note_on_c, 0, 66, 0
2, 35970, Note_on_c, 0, 61, 95
2, 36000, Note_on_c, 0, 61, 0
2, 36000, Note_on_c, 0, 65, 85
2, 36030, Note_on_c, 0, 65, 0
2, 36030, Note_on_c, 0, 68, 85
2, 36060, Note_on_c, 0, 68, 0
2, 36060, Note_on_c, 0, 65, 85
2, 36090, Note_on_c, 0, 65, 0
2, 36090, Note_on_c, 0, 61, 85
2, 36120, Note_on_c, 0, 61, 0
2, 36120, Note_on_c, 0, 65, 85
2, 36150, Note_on_c, 0, 65, 0
2, 36150, Note_on_c, 0, 68, 85
2, 36180, Note_on_c, 0, 68, 0
2, 36180, Note_on_c, 0, 73, 95
2, 36210, Note_on_c, 0, 73, 0
2, 36210, Note_on_c, 0, 68, 95
2, 36240, Note_on_c, 0, 68, 0
2, 36240, Note_on_c, 0, 77, 95
2, 36270, Note_on_c, 0, 77, 0
2, 36270, Note_on_c, 0, 73, 95
2, 36300, Note_on_c, 0, 73, 0
2, 36300, Note_on_c, 0, 80, 95
2, 36330, Note_on_c, 0, 80, 0
2, 36330, Note_on_c, 0, 71, 95
2, 36360, Note_on_c, 0, 71, 0
2, 36360, Note_on_c, 0, 69, 85
2, 36390, Note_on_c, 0, 69, 0
2, 36390, Note_on_c, 0, 73, 85
2, 36420, Note_on_c, 0, 73, 0
2, 36420, Note_on_c, 0, 69, 85
2, 36450, Note_on_c, 0, 69, 0
2, 36450, Note_on_c, 0, 66, 85
2, 36480, Note_on_c, 0, 66, 0
2, 36480, Note_on_c, 0, 69, 85
2, 36510, Note_on_c, 0, 69, 0
2, 36510, Note_on_c, 0, 73, 85
2, 36540, Note_on_c, 0, 73, 0
2, 36540, Note_on_c, 0, 78, 95
2, 36570, Note_on_c, 0, 78, 0
2, 36570, Note_on_c, 0, 73, 95
2, 36600, Note_on_c, 0, 73, 0
2, 36600, Note_on_c, 0, 81, 95
2, 36630, Note_on_c, 0, 81, 0
2, 36630, Note_on_c, 0, 78, 95
2, 36660, Note_on_c, 0, 78, 0
2, 36660, Note_on_c, 0, 85, 95
2, 36690, Note_on_c, 0, 85, 0
2, 36690, Note_on_c, 0, 78, 95
2, 36720, Note_on_c, 0, 78, 0
2, 36720, Note_on_c, 0, 77, 85
2, 36750, Note_on_c, 0, 77, 0
2, 36750, Note_on_c, 0, 80, 85
2, 36780, Note_on_c, 0, 80, 0
2, 36780, Note_on_c, 0, 77, 85
2, 36810, Note_on_c, 0, 77, 0
2, 36810, Note_on_c, 0, 73, 85
2, 36840, Note_on_c, 0, 73, 0
2, 36840, Note_on_c, 0, 85, 100
2, 36870, Note_on_c, 0, 85, 0
2, 36870, Note_on_c, 0, 84, 100
2, 36900, Note_on_c, 0, 84, 0
2, 36900, Note_on_c, 0, 85, 100
2, 36930, Note_on_c, 0, 85, 0
2, 36930, Note_on_c, 0, 84, 100
2, 36960, Note_on_c, 0, 84, 0
2, 36960, Note_on_c, 0, 85, 100
2, 36990, Note_on_c, 0, 85, 0
2, 36990, Note_on_c, 0, 80, 100
2, 37020, Note_on_c, 0, 80, 0
2, 37020, Note_on_c, 0, 81, 100
2, 37050, Note_on_c, 0, 81, 0
2, 37050, Note_on_c, 0, 78, 100
2, 37080, Note_on_c, 0, 78, 0
2, 37080, Note_on_c, 0, 77, 100
2, 37110, Note_on_c, 0, 77, 0
2, 37110, Note_on_c, 0, 80, 100
2, 37140, Note_on_c, 0, 80, 0
2, 37140, Note_on_c, 0, 77, 100
2, 37170, Note_on_c, 0, 77, 0
2, 37170, Note_on_c, 0, 73, 100
2, 37200, Note_on_c, 0, 73, 0
2, 37200, Note_on_c, 0, 83, 100
2, 37230, Note_on_c, 0, 83, 0
2, 37230, Note_on_c, 0, 82, 100
2, 37260, Note_on_c, 0, 82, 0
2, 37260, Note_on_c, 0, 83, 100
2, 37290, Note_on_c, 0, 83, 0
2, 37290, Note_on_c, 0, 82, 100
2, 37320, Note_on_c, 0, 82, 0
2, 37320, Note_on_c, 0, 83, 100
2, 37350, Note_on_c, 0, 83, 0
2, 37350, Note_on_c, 0, 80, 100
2, 37380, Note_on_c, 0, 80, 0
2, 37380, Note_on_c, 0, 81, 100
2, 37410, Note_on_c, 0, 81, 0
2, 37410, Note_on_c, 0, 78, 100
2, 37440, Note_on_c, 0, 78, 0
2, 37440, Note_on_c, 0, 77, 100
2, 37470, Note_on_c, 0, 77, 0
2, 37470, Note_on_c, 0, 80, 100
2, 37500, Note_on_c, 0, 80, 0
2, 37500, Note_on_c, 0, 77, 100
2, 37530, Note_on_c, 0, 77, 0
2, 37530, Note_on_c, 0, 73, 100
2, 37560, Note_on_c, 0, 73, 0
2, 37560, Note_on_c, 0, 74, 95
2, 37590, Note_on_c, 0, 74, 0
2, 37590, Note_on_c, 0, 73, 95
2, 37620, Note_on_c, 0, 73, 0
2, 37620, Note_on_c, 0, 74, 95
2, 37650, Note_on_c, 0, 74, 0
2, 37650, Note_on_c, 0, 73, 95
2, 37680, Note_on_c, 0, 73, 0
2, 37680, Note_on_c, 0, 74, 95
2, 37710, Note_on_c, 0, 74, 0
2, 37710, Note_on_c, 0, 68, 95
2, 37740, Note_on_c, 0, 68, 0
2, 37740, Note_on_c, 0, 69, 95
2, 37770, Note_on_c, 0, 69, 0
2, 37770, Note_on_c, 0, 66, 95
2, 37800, Note_on_c, 0, 66, 0
2, 37800, Note_on_c, 0, 65, 95
2, 37830, Note_on_c, 0, 65, 0
2, 37830, Note_on_c, 0, 68, 95
2, 37860, Note_on_c, 0, 68, 0
2, 37860, Note_on_c, 0, 73, 95
2, 37890, Note_on_c, 0, 73, 0
2, 37890, Note_on_c, 0, 83, 95
2, 37920, Note_on_c, 0, 83, 0
2, 37920, Note_on_c, 0, 83, 95
2, 37950, Note_on_c, 0, 83, 0
2, 37950, Note_on_c, 0, 78, 95
2, 37980, Note_on_c, 0, 78, 0
2, 37980, Note_on_c, 0, 81, 95
2, 38010, Note_on_c, 0, 81, 0
2, 38010, Note_on_c, 0, 78, 95
2, 38040, Note_on_c, 0, 78, 0
2, 38040, Note_on_c, 0, 77, 95
2, 38070, Note_on_c, 0, 77, 0
2, 38070, Note_on_c, 0, 80, 95
2, 38100, Note_on_c, 0, 80, 0
2, 38100, Note_on_c, 0, 73, 95
2, 38130, Note_on_c, 0, 73, 0
2, 38130, Note_on_c, 0, 71, 95
2, 38160, Note_on_c, 0, 71, 0
2, 38160, Note_on_c, 0, 69, 95
2, 38190, Note_on_c, 0, 69, 0
2, 38190, Note_on_c, 0, 73, 95
2, 38220, Note_on_c, 0, 73, 0
2, 38220, Note_on_c, 0, 78, 95
2, 38250, Note_on_c, 0, 78, 0
2, 38250, Note_on_c, 0, 85, 95
2, 38280, Note_on_c, 0, 85, 0
2, 38280, Note_on_c, 0, 85, 95
2, 38310, Note_on_c, 0, 85, 0
2, 38310, Note_on_c, 0, 81, 95
2, 38340, Note_on_c, 0, 81, 0
2, 38340, Note_on_c, 0, 83, 95
2, 38370, Note_on_c, 0, 83, 0
2, 38370, Note_on_c, 0, 80, 95
2, 38400, Note_on_c, 0, 80, 0
2, 38400, Note_on_c, 0, 78, 95
2, 38430, Note_on_c, 0, 78, 0
2, 38430, Note_on_c, 0, 81, 95
2, 38460, Note_on_c, 0, 81, 0
2, 38460, Note_on_c, 0, 74, 95
2, 38490, Note_on_c, 0, 74, 0
2, 38490, Note_on_c, 0, 73, 95
2, 38520, Note_on_c, 0, 73, 0
2, 38520, Note_on_c, 0, 71, 95
2, 38550, Note_on_c, 0, 71, 0
2, 38550, Note_on_c, 0, 74, 95
2, 38580, Note_on_c, 0, 74, 0
2, 38580, Note_on_c, 0, 67, 95
2, 38610, Note_on_c, 0, 67, 0
2, 38610, Note_on_c, 0, 66, 95
2, 38640, Note_on_c, 0, 66, 0
2, 38640, Note_on_c, 0, 65, 95
2, 38670, Note_on_c, 0, 65, 0
2, 38670, Note_on_c, 0, 68, 95
2, 38700, Note_on_c, 0, 68, 0
2, 38700, Note_on_c, 0, 61, 95
2, 38730, Note_on_c, 0, 61, 0
2, 38730, Note_on_c, 0, 59, 95
2, 38760, Note_on_c, 0, 59, 0
2, 38760, Note_on_c, 0, 57, 95
2, 38790, Note_on_c, 0, 57, 0
2, 38790, Note_on_c, 0, 61, 95
2, 38820, Note_on_c, 0, 61, 0
2, 38820, Note_on_c, 0, 66, 95
2, 38850, Note_on_c, 0, 66, 0
2, 38850, Note_on_c, 0, 68, 95
2, 38880, Note_on_c, 0, 68, 0
2, 38880, Note_on_c, 0, 69, 90
2, 38910, Note_on_c, 0, 69, 0
2, 38910, Note_on_c, 0, 66, 90
2, 38940, Note_on_c, 0, 66, 0
2, 38940, Note_on_c, 0, 71, 90
2, 38970, Note_on_c, 0, 71, 0
2, 38970, Note_on_c, 0, 66, 90
2, 39000, Note_on_c, 0, 66, 0
2, 39000, Note_on_c, 0, 73, 90
2, 39030, Note_on_c, 0, 73, 0
2, 39030, Note_on_c, 0, 66, 90
2, 39060, Note_on_c, 0, 66, 0
2, 39060, Note_on_c, 0, 74, 90
2, 39090, Note_on_c, 0, 74, 0
2, 39090, Note_on_c, 0, 66, 90
2, 39120, Note_on_c, 0, 66, 0
2, 39120, Note_on_c, 0, 61, 90
2, 39150, Note_on_c, 0, 61, 0
2, 39150, Note_on_c, 0, 66, 90
2, 39180, Note_on_c, 0, 66, 0
2, 39180, Note_on_c, 0, 68, 90
2, 39210, Note_on_c, 0, 68, 0
2, 39210, Note_on_c, 0, 65, 90
2, 39240, Note_on_c, 0, 65, 0
2, 39240, Note_on_c, 0, 66, 85
2, 39270, Note_on_c, 0, 66, 0
2, 39270, Note_on_c, 0, 69, 85
2, 39300, Note_on_c, 0, 69, 0
2, 39300, Note_on_c, 0, 68, 85
2, 39330, Note_on_c, 0, 68, 0
2, 39330, Note_on_c, 0, 69, 85
2, 39360, Note_on_c, 0, 69, 0
2, 39360, Note_on_c, 0, 69, 95
2, 39390, Note_on_c, 0, 69, 0
2, 39390, Note_on_c, 0, 69, 95
2, 39420, Note_on_c, 0, 69, 0
2, 39420, Note_on_c, 0, 68, 95
2, 39450, Note_on_c, 0, 68, 0
2, 39450, Note_on_c, 0, 69, 95
2, 39480, Note_on_c, 0, 69, 0
2, 39480, Note_on_c, 0, 66, 85
2, 39510, Note_on_c, 0, 66, 0
2, 39510, Note_on_c, 0, 69, 85
2, 39540, Note_on_c, 0, 69, 0
2, 39540, Note_on_c, 0, 64, 85
2, 39570, Note_on_c, 0, 64, 0
2, 39570, Note_on_c, 0, 69, 85
2, 39600, Note_on_c, 0, 69, 0
2, 39600, Note_on_c, 0, 63, 85
2, 39630, Note_on_c, 0, 63, 0
2, 39630, Note_on_c, 0, 69, 85
2, 39660, Note_on_c, 0, 69, 0
2, 39660, Note_on_c, 0, 64, 85
2, 39690, Note_on_c, 0, 64, 0
2, 39690, Note_on_c, 0, 69, 85
2, 39720, Note_on_c, 0, 69, 0
2, 39720, Note_on_c, 0, 66, 95
2, 39750, Note_on_c, 0, 66, 0
2, 39750, Note_on_c, 0, 69, 95
2, 39780, Note_on_c, 0, 69, 0
2, 39780, Note_on_c, 0, 68, 95
2, 39810, Note_on_c, 0, 68, 0
2, 39810, Note_on_c, 0, 69, 95
2, 39840, Note_on_c, 0, 69, 0
2, 39840, Note_on_c, 0, 69, 85
2, 39870, Note_on_c, 0, 69, 0
2, 39870, Note_on_c, 0, 69, 85
2, 39900, Note_on_c, 0, 69, 0
2, 39900, Note_on_c, 0, 66, 85
2, 39930, Note_on_c, 0, 66, 0
2, 39930, Note_on_c, 0, 69, 85
2, 39960, Note_on_c, 0, 69, 0
2, 39960, Note_on_c, 0, 68, 85
2, 39990, Note_on_c, 0, 68, 0
2, 39990, Note_on_c, 0, 69, 85
2, 40020, Note_on_c, 0, 69, 0
2, 40020, Note_on_c, 0, 68, 85
2, 40050, Note_on_c, 0, 68, 0
2, 40050, Note_on_c, 0, 66, 85
2, 40080, Note_on_c, 0, 66, 0
2, 40080, Note_on_c, 0, 64, 95
2, 40110, Note_on_c, 0, 64, 0
2, 40110, Note_on_c, 0, 76, 95
2, 40140, Note_on_c, 0, 76, 0
2, 40140, Note_on_c, 0, 75, 95
2, 40170, Note_on_c, 0, 75, 0
2, 40170, Note_on_c, 0, 76, 95
2, 40200, Note_on_c, 0, 76, 0
2, 40200, Note_on_c, 0, 73, 85
2, 40230, Note_on_c, 0, 73, 0
2, 40230, Note_on_c, 0, 76, 85
2, 40260, Note_on_c, 0, 76, 0
2, 40260, Note_on_c, 0, 71, 85
2, 40290, Note_on_c, 0, 71, 0
2, 40290, Note_on_c, 0, 76, 85
2, 40320, Note_on_c, 0, 76, 0
2, 40320, Note_on_c, 0, 70, 85
2, 40350, Note_on_c, 0, 70, 0
2, 40350, Note_on_c, 0, 76, 85
2, 40380, Note_on_c, 0, 76, 0
2, 40380, Note_on_c, 0, 71, 85
2, 40410, Note_on_c, 0, 71, 0
2, 40410, Note_on_c, 0, 76, 85
2, 40440, Note_on_c, 0, 76, 0
2, 40440, Note_on_c, 0, 73, 95
2, 40470, Note_on_c, 0, 73, 0
2, 40470, Note_on_c, 0, 76, 95
2, 40500, Note_on_c, 0, 76, 0
2, 40500, Note_on_c, 0, 75, 95
2, 40530, Note_on_c, 0, 75, 0
2, 40530, Note_on_c, 0, 76, 95
2, 40560, Note_on_c, 0, 76, 0
2, 40560, Note_on_c, 0, 76, 85
2, 40590, Note_on_c, 0, 76, 0
2, 40590, Note_on_c, 0, 76, 85
2, 40620, Note_on_c, 0, 76, 0
2, 40620, Note_on_c, 0, 70, 85
2, 40650, Note_on_c, 0, 70, 0
2, 40650, Note_on_c, 0, 76, 85
2, 40680, Note_on_c, 0, 76, 0
2, 40680, Note_on_c, 0, 75, 85
2, 40710, Note_on_c, 0, 75, 0
2, 40710, Note_on_c, 0, 76, 85
2, 40740, Note_on_c, 0, 76, 0
2, 40740, Note_on_c, 0, 75, 85
2, 40770, Note_on_c, 0, 75, 0
2, 40770, Note_on_c, 0, 73, 85
2, 40800, Note_on_c, 0, 73, 0
2, 40800, Note_on_c, 0, 71, 95
2, 40830, Note_on_c, 0, 71, 0
2, 40830, Note_on_c, 0, 73, 95
2, 40860, Note_on_c, 0, 73, 0
2, 40860, Note_on_c, 0, 75, 95
2, 40890, Note_on_c, 0, 75, 0
2, 40890, Note_on_c, 0, 76, 95
2, 40920, Note_on_c, 0, 76, 0
2, 40920, Note_on_c, 0, 78, 95
2, 40950, Note_on_c, 0, 78, 0
2, 40950, Note_on_c, 0, 80, 95
2, 40980, Note_on_c, 0, 80, 0
2, 40980, Note_on_c, 0, 81, 95
2, 41010, Note_on_c, 0, 81, 0
2, 41010, Note_on_c, 0, 78, 95
2, 41040, Note_on_c, 0, 78, 0
2, 41040, Note_on_c, 0, 83, 95
2, 41070, Note_on_c, 0, 83, 0
2, 41070, Note_on_c, 0, 71, 90
2, 41100, Note_on_c, 0, 71, 0
2, 41100, Note_on_c, 0, 69, 90
2, 41130, Note_on_c, 0, 69, 0
2, 41130, Note_on_c, 0, 71, 90
2, 41160, Note_on_c, 0, 71, 0
2, 41160, Note_on_c, 0, 68, 90
2, 41190, Note_on_c, 0, 68, 0
2, 41190, Note_on_c, 0, 71, 90
2, 41220, Note_on_c, 0, 71, 0
2, 41220, Note_on_c, 0, 66, 90
2, 41250, Note_on_c, 0, 66, 0
2, 41250, Note_on_c, 0, 71, 90
2, 41280, Note_on_c, 0, 71, 0
2, 41280, Note_on_c, 0, 64, 90
2, 41310, Note_on_c, 0, 64, 0
2, 41310, Note_on_c, 0, 71, 90
2, 41340, Note_on_c, 0, 71, 0
2, 41340, Note_on_c, 0, 62, 90
2, 41370, Note_on_c, 0, 62, 0
2, 41370, Note_on_c, 0, 71, 90
2, 41400, Note_on_c, 0, 71, 0
2, 41400, Note_on_c, 0, 61, 90
2, 41430, Note_on_c, 0, 61, 0
2, 41430, Note_on_c, 0, 64, 95
2, 41460, Note_on_c, 0, 64, 0
2, 41460, Note_on_c, 0, 66, 95
2, 41490, Note_on_c, 0, 66, 0
2, 41490, Note_on_c, 0, 68, 95
2, 41520, Note_on_c, 0, 68, 0
2, 41520, Note_on_c, 0, 69, 95
2, 41550, Note_on_c, 0, 69, 0
2, 41550, Note_on_c, 0, 71, 95
2, 41580, Note_on_c, 0, 71, 0
2, 41580, Note_on_c, 0, 73, 95
2, 41610, Note_on_c, 0, 73, 0
2, 41610, Note_on_c, 0, 74, 95
2, 41640, Note_on_c, 0, 74, 0
2, 41640, Note_on_c, 0, 76, 95
2, 41670, Note_on_c, 0, 76, 0
2, 41670, Note_on_c, 0, 78, 95
2, 41700, Note_on_c, 0, 78, 0
2, 41700, Note_on_c, 0, 80, 95
2, 41730, Note_on_c, 0, 80, 0
2, 41730, Note_on_c, 0, 76, 95
2, 41760, Note_on_c, 0, 76, 0
2, 41760, Note_on_c, 0, 81, 95
2, 41790, Note_on_c, 0, 81, 0
2, 41790, Note_on_c, 0, 69, 90
2, 41820, Note_on_c, 0, 69, 0
2, 41820, Note_on_c, 0, 68, 90
2, 41850, Note_on_c, 0, 68, 0
2, 41850, Note_on_c, 0, 69, 90
2, 41880, Note_on_c, 0, 69, 0
2, 41880, Note_on_c, 0, 66, 90
2, 41910, Note_on_c, 0, 66, 0
2, 41910, Note_on_c, 0, 69, 90
2, 41940, Note_on_c, 0, 69, 0
2, 41940, Note_on_c, 0, 64, 90
2, 41970, Note_on_c, 0, 64, 0
2, 41970, Note_on_c, 0, 69, 90
2, 42000, Note_on_c, 0, 69, 0
2, 42000, Note_on_c, 0, 63, 90
2, 42030, Note_on_c, 0, 63, 0
2, 42030, Note_on_c, 0, 69, 90
2, 42060, Note_on_c, 0, 69, 0
2, 42060, Note_on_c, 0, 61, 90
2, 42090, Note_on_c, 0, 61, 0
2, 42090, Note_on_c, 0, 69, 90
2, 42120, Note_on_c, 0, 69, 0
2, 42120, Note_on_c, 0, 59, 90
2, 42150, Note_on_c, 0, 59, 0
2, 42150, Note_on_c, 0, 63, 95
2, 42180, Note_on_c, 0, 63, 0
2, 42180, Note_on_c, 0, 64, 95
2, 42210, Note_on_c, 0, 64, 0
2, 42210, Note_on_c, 0, 66, 95
2, 42240, Note_on_c, 0, 66, 0
2, 42240, Note_on_c, 0, 68, 95
2, 42270, Note_on_c, 0, 68, 0
2, 42270, Note_on_c, 0, 69, 95
2, 42300, Note_on_c, 0, 69, 0
2, 42300, Note_on_c, 0, 71, 95
2, 42330, Note_on_c, 0, 71, 0
2, 42330, Note_on_c, 0, 73, 95
2, 42360, Note_on_c, 0, 73, 0
2, 42360, Note_on_c, 0, 75, 95
2, 42390, Note_on_c, 0, 75, 0
2, 42390, Note_on_c, 0, 76, 95
2, 42420, Note_on_c, 0, 76, 0
2, 42420, Note_on_c, 0, 78, 95
2, 42450, Note_on_c, 0, 78, 0
2, 42450, Note_on_c, 0, 75, 95
2, 42480, Note_on_c, 0, 75, 0
2, 42480, Note_on_c, 0, 80, 95
2, 42510, Note_on_c, 0, 80, 0
2, 42510, Note_on_c, 0, 64, 90
2, 42540, Note_on_c, 0, 64, 0
2, 42540, Note_on_c, 0, 62, 90
2, 42570, Note_on_c, 0, 62, 0
2, 42570, Note_on_c, 0, 64, 90
2, 42600, Note_on_c, 0, 64, 0
2, 42600, Note_on_c, 0, 61, 90
2, 42630, Note_on_c, 0, 61, 0
2, 42630, Note_on_c, 0, 64, 90
2, 42660, Note_on_c, 0, 64, 0
2, 42660, Note_on_c, 0, 59, 90
2, 42690, Note_on_c, 0, 59, 0
2, 42690, Note_on_c, 0, 64, 90
2, 42720, Note_on_c, 0, 64, 0
2, 42720, Note_on_c, 0, 57, 90
2, 42750, Note_on_c, 0, 57, 0
2, 42750, Note_on_c, 0, 64, 90
2, 42780, Note_on_c, 0, 64, 0
2, 42780, Note_on_c, 0, 56, 90
2, 42810, Note_on_c, 0, 56, 0
2, 42810, Note_on_c, 0, 64, 90
2, 42840, Note_on_c, 0, 64, 0
2, 42840, Note_on_c, 0, 57, 90
2, 42870, Note_on_c, 0, 57, 0
2, 42870, Note_on_c, 0, 64, 95
2, 42900, Note_on_c, 0, 64, 0
2, 42900, Note_on_c, 0, 73, 95
2, 42930, Note_on_c, 0, 73, 0
2, 42930, Note_on_c, 0, 71, 95
2, 42960, Note_on_c, 0, 71, 0
2, 42960, Note_on_c, 0, 73, 95
2, 42990, Note_on_c, 0, 73, 0
2, 42990, Note_on_c, 0, 76, 95
2, 43020, Note_on_c, 0, 76, 0
2, 43020, Note_on_c, 0, 81, 95
2, 43050, Note_on_c, 0, 81, 0
2, 43050, Note_on_c, 0, 80, 95
2, 43080, Note_on_c, 0, 80, 0
2, 43080, Note_on_c, 0, 81, 95
2, 43110, Note_on_c, 0, 81, 0
2, 43110, Note_on_c, 0, 78, 95
2, 43140, Note_on_c, 0, 78, 0
2, 43140, Note_on_c, 0, 73, 95
2, 43170, Note_on_c, 0, 73, 0
2, 43170, Note_on_c, 0, 76, 95
2, 43200, Note_on_c, 0, 76, 0
2, 43200, Note_on_c, 0, 59, 95
2, 43230, Note_on_c, 0, 59, 0
2, 43230, Note_on_c, 0, 66, 95
2, 43260, Note_on_c, 0, 66, 0
2, 43260, Note_on_c, 0, 75, 95
2, 43290, Note_on_c, 0, 75, 0
2, 43290, Note_on_c, 0, 73, 95
2, 43320, Note_on_c, 0, 73, 0
2, 43320, Note_on_c, 0, 75, 95
2, 43350, Note_on_c, 0, 75, 0
2, 43350, Note_on_c, 0, 78, 95
2, 43380, Note_on_c, 0, 78, 0
2, 43380, Note_on_c, 0, 81, 95
2, 43410, Note_on_c, 0, 81, 0
2, 43410, Note_on_c, 0, 80, 95
2, 43440, Note_on_c, 0, 80, 0
2, 43440, Note_on_c, 0, 81, 95
2, 43470, Note_on_c, 0, 81, 0
2, 43470, Note_on_c, 0, 78, 95
2, 43500, Note_on_c, 0, 78, 0
2, 43500, Note_on_c, 0, 75, 95
2, 43530, Note_on_c, 0, 75, 0
2, 43530, Note_on_c, 0, 78, 95
2, 43560, Note_on_c, 0, 78, 0
2, 43560, Note_on_c, 0, 59, 95
2, 43590, Note_on_c, 0, 59, 0
2, 43590, Note_on_c, 0, 68, 95
2, 43620, Note_on_c, 0, 68, 0
2, 43620, Note_on_c, 0, 71, 95
2, 43650, Note_on_c, 0, 71, 0
2, 43650, Note_on_c, 0, 69, 95
2, 43680, Note_on_c, 0, 69, 0
2, 43680, Note_on_c, 0, 71, 95
2, 43710, Note_on_c, 0, 71, 0
2, 43710, Note_on_c, 0, 76, 95
2, 43740, Note_on_c, 0, 76, 0
2, 43740, Note_on_c, 0, 80, 95
2, 43770, Note_on_c, 0, 80, 0
2, 43770, Note_on_c, 0, 78, 95
2, 43800, Note_on_c, 0, 78, 0
2, 43800, Note_on_c, 0, 80, 95
2, 43830, Note_on_c, 0, 80, 0
2, 43830, Note_on_c, 0, 76, 95
2, 43860, Note_on_c, 0, 76, 0
2, 43860, Note_on_c, 0, 71, 95
2, 43890, Note_on_c, 0, 71, 0
2, 43890, Note_on_c, 0, 76, 95
2, 43920, Note_on_c, 0, 76, 0
2, 43920, Note_on_c, 0, 59, 95
2, 43950, Note_on_c, 0, 59, 0
2, 43950, Note_on_c, 0, 70, 95
2, 43980, Note_on_c, 0, 70, 0
2, 43980, Note_on_c, 0, 73, 95
2, 44010, Note_on_c, 0, 73, 0
2, 44010, Note_on_c, 0, 71, 95
2, 44040, Note_on_c, 0, 71, 0
2, 44040, Note_on_c, 0, 73, 95
2, 44070, Note_on_c, 0, 73, 0
2, 44070, Note_on_c, 0, 76, 95
2, 44100, Note_on_c, 0, 76, 0
2, 44100, Note_on_c, 0, 82, 95
2, 44130, Note_on_c, 0, 82, 0
2, 44130, Note_on_c, 0, 80, 95
2, 44160, Note_on_c, 0, 80, 0
2, 44160, Note_on_c, 0, 82, 95
2, 44190, Note_on_c, 0, 82, 0
2, 44190, Note_on_c, 0, 76, 95
2, 44220, Note_on_c, 0, 76, 0
2, 44220, Note_on_c, 0, 73, 95
2, 44250, Note_on_c, 0, 73, 0
2, 44250, Note_on_c, 0, 76, 95
2, 44280, Note_on_c, 0, 76, 0
2, 44280, Note_on_c, 0, 75, 95
2, 44310, Note_on_c, 0, 75, 0
2, 44310, Note_on_c, 0, 83, 100
2, 44340, Note_on_c, 0, 83, 0
2, 44340, Note_on_c, 0, 82, 100
2, 44370, Note_on_c, 0, 82, 0
2, 44370, Note_on_c, 0, 80, 100
2, 44400, Note_on_c, 0, 80, 0
2, 44400, Note_on_c, 0, 78, 100
2, 44430, Note_on_c, 0, 78, 0
2, 44430, Note_on_c, 0, 83, 100
2, 44460, Note_on_c, 0, 83, 0
2, 44460, Note_on_c, 0, 78, 100
2, 44490, Note_on_c, 0, 78, 0
2, 44490, Note_on_c, 0, 76, 100
2, 44520, Note_on_c, 0, 76, 0
2, 44520, Note_on_c, 0, 75, 100
2, 44550, Note_on_c, 0, 75, 0
2, 44550, Note_on_c, 0, 78, 100
2, 44580, Note_on_c, 0, 78, 0
2, 44580, Note_on_c, 0, 75, 100
2, 44610, Note_on_c, 0, 75, 0
2, 44610, Note_on_c, 0, 73, 100
2, 44640, Note_on_c, 0, 73, 0
2, 44640, Note_on_c, 0, 71, 100
2, 44670, Note_on_c, 0, 71, 0
2, 44670, Note_on_c, 0, 83, 100
2, 44700, Note_on_c, 0, 83, 0
2, 44700, Note_on_c, 0, 81, 100
2, 44730, Note_on_c, 0, 81, 0
2, 44730, Note_on_c, 0, 80, 100
2, 44760, Note_on_c, 0, 80, 0
2, 44760, Note_on_c, 0, 78, 100
2, 44790, Note_on_c, 0, 78, 0
2, 44790, Note_on_c, 0, 81, 100
2, 44820, Note_on_c, 0, 81, 0
2, 44820, Note_on_c, 0, 78, 100
2, 44850, Note_on_c, 0, 78, 0
2, 44850, Note_on_c, 0, 76, 100
2, 44880, Note_on_c, 0, 76, 0
2, 44880, Note_on_c, 0, 75, 100
2, 44910, Note_on_c, 0, 75, 0
2, 44910, Note_on_c, 0, 78, 100
2, 44940, Note_on_c, 0, 78, 0
2, 44940, Note_on_c, 0, 75, 100
2, 44970, Note_on_c, 0, 75, 0
2, 44970, Note_on_c, 0, 73, 100
2, 45000, Note_on_c, 0, 73, 0
2, 45000, Note_on_c, 0, 71, 100
2, 45030, Note_on_c, 0, 71, 0
2, 45030, Note_on_c, 0, 81, 95
2, 45060, Note_on_c, 0, 81, 0
2, 45060, Note_on_c, 0, 80, 95
2, 45090, Note_on_c, 0, 80, 0
2, 45090, Note_on_c, 0, 78, 95
2, 45120, Note_on_c, 0, 78, 0
2, 45120, Note_on_c, 0, 76, 95
2, 45150, Note_on_c, 0, 76, 0
2, 45150, Note_on_c, 0, 80, 95
2, 45180, Note_on_c, 0, 80, 0
2, 45180, Note_on_c, 0, 76, 95
2, 45210, Note_on_c, 0, 76, 0
2, 45210, Note_on_c, 0, 75, 95
2, 45240, Note_on_c, 0, 75, 0
2, 45240, Note_on_c, 0, 73, 95
2, 45270, Note_on_c, 0, 73, 0
2, 45270, Note_on_c, 0, 76, 95
2, 45300, Note_on_c, 0, 76, 0
2, 45300, Note_on_c, 0, 73, 95
2, 45330, Note_on_c, 0, 73, 0
2, 45330, Note_on_c, 0, 71, 95
2, 45360, Note_on_c, 0, 71, 0
2, 45360, Note_on_c, 0, 69, 95
2, 45390, Note_on_c, 0, 69, 0
2, 45390, Note_on_c, 0, 80, 95
2, 45420, Note_on_c, 0, 80, 0
2, 45420, Note_on_c, 0, 78, 95
2, 45450, Note_on_c, 0, 78, 0
2, 45450, Note_on_c, 0, 76, 95
2, 45480, Note_on_c, 0, 76, 0
2, 45480, Note_on_c, 0, 75, 95
2, 45510, Note_on_c, 0, 75, 0
2, 45510, Note_on_c, 0, 78, 95
2, 45540, Note_on_c, 0, 78, 0
2, 45540, Note_on_c, 0, 75, 95
2, 45570, Note_on_c, 0, 75, 0
2, 45570, Note_on_c, 0, 73, 95
2, 45600, Note_on_c, 0, 73, 0
2, 45600, Note_on_c, 0, 71, 95
2, 45630, Note_on_c, 0, 71, 0
2, 45630, Note_on_c, 0, 75, 95
2, 45660, Note_on_c, 0, 75, 0
2, 45660, Note_on_c, 0, 71, 95
2, 45690, Note_on_c, 0, 71, 0
2, 45690, Note_on_c, 0, 69, 95
2, 45720, Note_on_c, 0, 69, 0
2, 45720, Note_on_c, 0, 68, 95
2, 45750, Note_on_c, 0, 68, 0
2, 45750, Note_on_c, 0, 76, 95
2, 45780, Note_on_c, 0, 76, 0
2, 45780, Note_on_c, 0, 73, 95
2, 45810, Note_on_c, 0, 73, 0
2, 45810, Note_on_c, 0, 71, 95
2, 45840, Note_on_c, 0, 71, 0
2, 45840, Note_on_c, 0, 69, 95
2, 45870, Note_on_c, 0, 69, 0
2, 45870, Note_on_c, 0, 73, 95
2, 45900, Note_on_c, 0, 73, 0
2, 45900, Note_on_c, 0, 69, 95
2, 45930, Note_on_c, 0, 69, 0
2, 45930, Note_on_c, 0, 68, 95
2, 45960, Note_on_c, 0, 68, 0
2, 45960, Note_on_c, 0, 66, 95
2, 45990, Note_on_c, 0, 66, 0
2, 45990, Note_on_c, 0, 69, 95
2, 46020, Note_on_c, 0, 69, 0
2, 46020, Note_on_c, 0, 66, 95
2, 46050, Note_on_c, 0, 66, 0
2, 46050, Note_on_c, 0, 64, 95
2, 46080, Note_on_c, 0, 64, 0
2, 46080, Note_on_c, 0, 63, 95
2, 46110, Note_on_c, 0, 63, 0
2, 46110, Note_on_c, 0, 66, 95
2, 46140, Note_on_c, 0, 66, 0
2, 46140, Note_on_c, 0, 69, 95
2, 46170, Note_on_c, 0, 69, 0
2, 46170, Note_on_c, 0, 73, 95
2, 46200, Note_on_c, 0, 73, 0
2, 46200, Note_on_c, 0, 71, 95
2, 46230, Note_on_c, 0, 71, 0
2, 46230, Note_on_c, 0, 75, 95
2, 46260, Note_on_c, 0, 75, 0
2, 46260, Note_on_c, 0, 78, 95
2, 46290, Note_on_c, 0, 78, 0
2, 46290, Note_on_c, 0, 80, 95
2, 46320, Note_on_c, 0, 80, 0
2, 46320, Note_on_c, 0, 81, 95
2, 46350, Note_on_c, 0, 81, 0
2, 46350, Note_on_c, 0, 80, 95
2, 46380, Note_on_c, 0, 80, 0
2, 46380, Note_on_c, 0, 81, 95
2, 46410, Note_on_c, 0, 81, 0
2, 46410, Note_on_c, 0, 78, 95
2, 46440, Note_on_c, 0, 78, 0
2, 46440, Note_on_c, 0, 80, 100
2, 46470, Note_on_c, 0, 80, 0
2, 46470, Note_on_c, 0, 76, 100
2, 46500, Note_on_c, 0, 76, 0
2, 46500, Note_on_c, 0, 80, 100
2, 46530, Note_on_c, 0, 80, 0
2, 46530, Note_on_c, 0, 83, 100
2, 46560, Note_on_c, 0, 83, 0
2, 46560, Note_on_c, 0, 88, 100
2, 46590, Note_on_c, 0, 88, 0
2, 46590, Note_on_c, 0, 83, 100
2, 46620, Note_on_c, 0, 83, 0
2, 46620, Note_on_c, 0, 80, 100
2, 46650, Note_on_c, 0, 80, 0
2, 46650, Note_on_c, 0, 76, 100
2, 46680, Note_on_c, 0, 76, 0
2, 46680, Note_on_c, 0, 71, 100
2, 46710, Note_on_c, 0, 71, 0
2, 46710, Note_on_c, 0, 76, 100
2, 46740, Note_on_c, 0, 76, 0
2, 46740, Note_on_c, 0, 88, 100
2, 46770, Note_on_c, 0, 88, 0
2, 46770, Note_on_c, 0, 87, 100
2, 46800, Note_on_c, 0, 87, 0
2, 46800, Note_on_c, 0, 88, 100
2, 46830, Note_on_c, 0, 88, 0
2, 46830, Note_on_c, 0, 83, 100
2, 46860, Note_on_c, 0, 83, 0
2, 46860, Note_on_c, 0, 80, 100
2, 46890, Note_on_c, 0, 80, 0
2, 46890, Note_on_c, 0, 76, 100
2, 46920, Note_on_c, 0, 76, 0
2, 46920, Note_on_c, 0, 74, 95
2, 46950, Note_on_c, 0, 74, 0
2, 46950, Note_on_c, 0, 76, 95
2, 46980, Note_on_c, 0, 76, 0
2, 46980, Note_on_c, 0, 73, 95
2, 47010, Note_on_c, 0, 73, 0
2, 47010, Note_on_c, 0, 76, 95
2, 47040, Note_on_c, 0, 76, 0
2, 47040, Note_on_c, 0, 74, 95
2, 47070, Note_on_c, 0, 74, 0
2, 47070, Note_on_c, 0, 76, 95
2, 47100, Note_on_c, 0, 76, 0
2, 47100, Note_on_c, 0, 71, 95
2, 47130, Note_on_c, 0, 71, 0
2, 47130, Note_on_c, 0, 76, 95
2, 47160, Note_on_c, 0, 76, 0
2, 47160, Note_on_c, 0, 73, 95
2, 47190, Note_on_c, 0, 73, 0
2, 47190, Note_on_c, 0, 76, 95
2, 47220, Note_on_c, 0, 76, 0
2, 47220, Note_on_c, 0, 81, 95
2, 47250, Note_on_c, 0, 81, 0
2, 47250, Note_on_c, 0, 76, 95
2, 47280, Note_on_c, 0, 76, 0
2, 47280, Note_on_c, 0, 73, 95
2, 47310, Note_on_c, 0, 73, 0
2, 47310, Note_on_c, 0, 76, 95
2, 47340, Note_on_c, 0, 76, 0
2, 47340, Note_on_c, 0, 71, 95
2, 47370, Note_on_c, 0, 71, 0
2, 47370, Note_on_c, 0, 76, 95
2, 47400, Note_on_c, 0, 76, 0
2, 47400, Note_on_c, 0, 73, 95
2, 47430, Note_on_c, 0, 73, 0
2, 47430, Note_on_c, 0, 76, 95
2, 47460, Note_on_c, 0, 76, 0
2, 47460, Note_on_c, 0, 69, 95
2, 47490, Note_on_c, 0, 69, 0
2, 47490, Note_on_c, 0, 76, 95
2, 47520, Note_on_c, 0, 76, 0
2, 47520, Note_on_c, 0, 71, 95
2, 47550, Note_on_c, 0, 71, 0
2, 47550, Note_on_c, 0, 76, 95
2, 47580, Note_on_c, 0, 76, 0
2, 47580, Note_on_c, 0, 80, 95
2, 47610, Note_on_c, 0, 80, 0
2, 47610, Note_on_c, 0, 76, 95
2, 47640, Note_on_c, 0, 76, 0
2, 47640, Note_on_c, 0, 71, 95
2, 47670, Note_on_c, 0, 71, 0
2, 47670, Note_on_c, 0, 76, 95
2, 47700, Note_on_c, 0, 76, 0
2, 47700, Note_on_c, 0, 69, 95
2, 47730, Note_on_c, 0, 69, 0
2, 47730, Note_on_c, 0, 76, 95
2, 47760, Note_on_c, 0, 76, 0
2, 47760, Note_on_c, 0, 71, 95
2, 47790, Note_on_c, 0, 71, 0
2, 47790, Note_on_c, 0, 76, 95
2, 47820, Note_on_c, 0, 76, 0
2, 47820, Note_on_c, 0, 68, 95
2, 47850, Note_on_c, 0, 68, 0
2, 47850, Note_on_c, 0, 76, 95
2, 47880, Note_on_c, 0, 76, 0
2, 47880, Note_on_c, 0, 69, 95
2, 47910, Note_on_c, 0, 69, 0
2, 47910, Note_on_c, 0, 76, 95
2, 47940, Note_on_c, 0, 76, 0
2, 47940, Note_on_c, 0, 78, 95
2, 47970, Note_on_c, 0, 78, 0
2, 47970, Note_on_c, 0, 76, 95
2, 48000, Note_on_c, 0, 76, 0
2, 48000, Note_on_c, 0, 75, 95
2, 48030, Note_on_c, 0, 75, 0
2, 48030, Note_on_c, 0, 76, 95
2, 48060, Note_on_c, 0, 76, 0
2, 48060, Note_on_c, 0, 76, 95
2, 48090, Note_on_c, 0, 76, 0
2, 48090, Note_on_c, 0, 76, 95
2, 48120, Note_on_c, 0, 76, 0
2, 48120, Note_on_c, 0, 78, 95
2, 48150, Note_on_c, 0, 78, 0
2, 48150, Note_on_c, 0, 76, 95
2, 48180, Note_on_c, 0, 76, 0
2, 48180, Note_on_c, 0, 80, 95
2, 48210, Note_on_c, 0, 80, 0
2, 48210, Note_on_c, 0, 76, 95
2, 48240, Note_on_c, 0, 76, 0
2, 48240, Note_on_c, 0, 81, 95
2, 48420, Note_on_c, 0, 81, 0
2, 48420, Note_on_c, 0, 83, 95
2, 48480, Note_on_c, 0, 83, 0
2, 48480, Note_on_c, 0, 80, 95
2, 48600, Note_on_c, 0, 80, 0
2, 48600, Note_on_c, 0, 57, 95
2, 48630, Note_on_c, 0, 57, 0
2, 48630, Note_on_c, 0, 81, 95
2, 48660, Note_on_c, 0, 81, 0
2, 48660, Note_on_c, 0, 80, 95
2, 48690, Note_on_c, 0, 80, 0
2, 48690, Note_on_c, 0, 81, 95
2, 48720, Note_on_c, 0, 81, 0
2, 48720, Note_on_c, 0, 78, 95
2, 48750, Note_on_c, 0, 78, 0
2, 48750, Note_on_c, 0, 78, 95
2, 48765, Note_on_c, 0, 78, 0
2, 48765, Note_on_c, 0, 80, 95
2, 48780, Note_on_c, 0, 80, 0
2, 48780, Note_on_c, 0, 78, 95
2, 48795, Note_on_c, 0, 78, 0
2, 48795, Note_on_c, 0, 80, 95
2, 48810, Note_on_c, 0, 80, 0
2, 48810, Note_on_c, 0, 78, 95
2, 48825, Note_on_c, 0, 78, 0
2, 48825, Note_on_c, 0, 80, 95
2, 48840, Note_on_c, 0, 80, 0
2, 48840, Note_on_c, 0, 78, 95
2, 48855, Note_on_c, 0, 78, 0
2, 48855, Note_on_c, 0, 80, 95
2, 48870, Note_on_c, 0, 80, 0
2, 48870, Note_on_c, 0, 78, 95
2, 48885, Note_on_c, 0, 78, 0
2, 48885, Note_on_c, 0, 80, 95
2, 48900, Note_on_c, 0, 80, 0
2, 48900, Note_on_c, 0, 78, 95
2, 48915, Note_on_c, 0, 78, 0
2, 48915, Note_on_c, 0, 76, 95
2, 48975, Note_on_c, 0, 76, 0
2, 48975, Note_on_c, 0, 76, 100
2, 49005, Note_on_c, 0, 76, 0
2, 49005, Note_on_c, 0, 88, 100
2, 49035, Note_on_c, 0, 88, 0
2, 49035, Note_on_c, 0, 87, 100
2, 49065, Note_on_c, 0, 87, 0
2, 49065, Note_on_c, 0, 85, 100
2, 49095, Note_on_c, 0, 85, 0
2, 49095, Note_on_c, 0, 83, 100
2, 49125, Note_on_c, 0, 83, 0
2, 49125, Note_on_c, 0, 88, 100
2, 49155, Note_on_c, 0, 88, 0
2, 49155, Note_on_c, 0, 81, 100
2, 49185, Note_on_c, 0, 81, 0
2, 49185, Note_on_c, 0, 88, 100
2, 49215, Note_on_c, 0, 88, 0
2, 49215, Note_on_c, 0, 80, 100
2, 49245, Note_on_c, 0, 80, 0
2, 49245, Note_on_c, 0, 88, 100
2, 49275, Note_on_c, 0, 88, 0
2, 49275, Note_on_c, 0, 78, 100
2, 49305, Note_on_c, 0, 78, 0
2, 49305, Note_on_c, 0, 88, 100
2, 49335, Note_on_c, 0, 88, 0
2, 49335, Note_on_c, 0, 76, 100
2, 49365, Note_on_c, 0, 76, 0
2, 49365, Note_on_c, 0, 76, 100
2, 49395, Note_on_c, 0, 76, 0
2, 49395, Note_on_c, 0, 75, 100
2, 49425, Note_on_c, 0, 75, 0
2, 49425, Note_on_c, 0, 73, 100
2, 49455, Note_on_c, 0, 73, 0
2, 49455, Note_on_c, 0, 71, 100
2, 49485, Note_on_c, 0, 71, 0
2, 49485, Note_on_c, 0, 76, 100
2, 49515, Note_on_c, 0, 76, 0
2, 49515, Note_on_c, 0, 69, 100
2, 49545, Note_on_c, 0, 69, 0
2, 49545, Note_on_c, 0, 76, 100
2, 49575, Note_on_c, 0, 76, 0
2, 49575, Note_on_c, 0, 68, 100
2, 49605, Note_on_c, 0, 68, 0
2, 49605, Note_on_c, 0, 76, 100
2, 49635, Note_on_c, 0, 76, 0
2, 49635, Note_on_c, 0, 66, 100
2, 49665, Note_on_c, 0, 66, 0
2, 49665, Note_on_c, 0, 76, 100
2, 49695, Note_on_c, 0, 76, 0
2, 49695, Note_on_c, 0, 64, 100
2, 49725, Note_on_c, 0, 64, 0
2, 49725, Note_on_c, 0, 68, 100
2, 49755, Note_on_c, 0, 68, 0
2, 49755, Note_on_c, 0, 71, 100
2, 49785, Note_on_c, 0, 71, 0
2, 49785, Note_on_c, 0, 75, 100
2, 49815, Note_on_c, 0, 75, 0
2, 49815, Note_on_c, 0, 76, 100
2, 49845, Note_on_c, 0, 76, 0
2, 49845, Note_on_c, 0, 80, 100
2, 49875, Note_on_c, 0, 80, 0
2, 49875, Note_on_c, 0, 83, 100
2, 49905, Note_on_c, 0, 83, 0
2, 49905, Note_on_c, 0, 87, 100
2, 49935, Note_on_c, 0, 87, 0
2, 49935, Note_on_c, 0, 88, 100
2, 50100, Note_on_c, 0, 88, 0
2, 50100, End_track
3, 0, Start_track
3, 0, MIDI_port, 0
3, 0, Title_t, "for solo violin"
3, 0, Program_c, 0, 85
3, 0, Control_c, 0, 10, 69
3, 0, Control_c, 0, 0, 0
3, 0, Control_c, 0, 121, 0
3, 48240, Note_on_c, 0, 75, 64
3, 48420, Note_on_c, 0, 75, 0
3, 48480, Note_on_c, 0, 71, 64
3, 48600, Note_on_c, 0, 71, 0
3, 48720, Note_on_c, 0, 71, 64
3, 48960, Note_on_c, 0, 71, 0
3, 48960, End_track
4, 0, Start_track
4, 0, MIDI_port, 0
4, 0, Title_t, "1st mvmnt -"
4, 0, Program_c, 0, 85
4, 0, Control_c, 0, 10, 69
4, 0, Control_c, 0, 0, 0
4, 0, Control_c, 0, 121, 0
4, 48240, Note_on_c, 0, 66, 64
4, 48240, Note_on_c, 0, 59, 64
4, 48360, Note_on_c, 0, 59, 0
4, 48360, Note_on_c, 0, 66, 0
4, 48480, Note_on_c, 0, 64, 64
4, 48600, Note_on_c, 0, 64, 0
4, 48600, End_track
5, 0, Start_track
5, 0, MIDI_port, 0
5, 0, Title_t, "Preludio"
5, 0, Program_c, 1, 91
5, 0, Control_c, 1, 10, 59
5, 0, Control_c, 1, 0, 0
5, 0, Control_c, 1, 121, 0
5, 420, Note_on_c, 1, 88, 95
5, 450, Note_on_c, 1, 88, 0
5, 450, Note_on_c, 1, 87, 95
5, 480, Note_on_c, 1, 87, 0
5, 480, Note_on_c, 1, 88, 95
5, 510, Note_on_c, 1, 88, 0
5, 540, Note_on_c, 1, 83, 95
5, 570, Note_on_c, 1, 83, 0
5, 600, Note_on_c, 1, 80, 95
5, 630, Note_on_c, 1, 80, 0
5, 660, Note_on_c, 1, 83, 95
5, 690, Note_on_c, 1, 83, 0
5, 720, Note_on_c, 1, 76, 95
5, 750, Note_on_c, 1, 76, 0
5, 750, Note_on_c, 1, 78, 95
5, 780, Note_on_c, 1, 78, 0
5, 780, Note_on_c, 1, 76, 95
5, 810, Note_on_c, 1, 76, 0
5, 810, Note_on_c, 1, 75, 95
5, 840, Note_on_c, 1, 75, 0
5, 840, Note_on_c, 1, 76, 95
5, 870, Note_on_c, 1, 76, 0
5, 900, Note_on_c, 1, 71, 95
5, 930, Note_on_c, 1, 71, 0
5, 960, Note_on_c, 1, 68, 95
5, 990, Note_on_c, 1, 68, 0
5, 1020, Note_on_c, 1, 71, 95
5, 1050, Note_on_c, 1, 71, 0
5, 1080, Note_on_c, 1, 64, 85
5, 1110, Note_on_c, 1, 64, 0
5, 1110, Note_on_c, 1, 71, 85
5, 1140, Note_on_c, 1, 71, 0
5, 1140, Note_on_c, 1, 66, 85
5, 1170, Note_on_c, 1, 66, 0
5, 1170, Note_on_c, 1, 71, 85
5, 1200, Note_on_c, 1, 71, 0
5, 1200, Note_on_c, 1, 68, 85
5, 1230, Note_on_c, 1, 68, 0
5, 1230, Note_on_c, 1, 71, 85
5, 1260, Note_on_c, 1, 71, 0
5, 1260, Note_on_c, 1, 69, 85
5, 1290, Note_on_c, 1, 69, 0
5, 1290, Note_on_c, 1, 71, 85
5, 1320, Note_on_c, 1, 71, 0
5, 1320, Note_on_c, 1, 68, 85
5, 1350, Note_on_c, 1, 68, 0
5, 1350, Note_on_c, 1, 71, 85
5, 1380, Note_on_c, 1, 71, 0
5, 1380, Note_on_c, 1, 66, 85
5, 1410, Note_on_c, 1, 66, 0
5, 1410, Note_on_c, 1, 71, 85
5, 1440, Note_on_c, 1, 71, 0
5, 1440, Note_on_c, 1, 64, 85
5, 1470, Note_on_c, 1, 64, 0
5, 1470, Note_on_c, 1, 76, 95
5, 1500, Note_on_c, 1, 76, 0
5, 1500, Note_on_c, 1, 75, 95
5, 1530, Note_on_c, 1, 75, 0
5, 1530, Note_on_c, 1, 73, 95
5, 1560, Note_on_c, 1, 73, 0
5, 1560, Note_on_c, 1, 71, 95
5, 1590, Note_on_c, 1, 71, 0
5, 1590, Note_on_c, 1, 76, 95
5, 1620, Note_on_c, 1, 76, 0
5, 1620, Note_on_c, 1, 75, 95
5, 1650, Note_on_c, 1, 75, 0
5, 1650, Note_on_c, 1, 73, 95
5, 1680, Note_on_c, 1, 73, 0
5, 1680, Note_on_c, 1, 71, 95
5, 1710, Note_on_c, 1, 71, 0
5, 1710, Note_on_c, 1, 69, 95
5, 1740, Note_on_c, 1, 69, 0
5, 1740, Note_on_c, 1, 68, 95
5, 1770, Note_on_c, 1, 68, 0
5, 1770, Note_on_c, 1, 66, 95
5, 1800, Note_on_c, 1, 66, 0
5, 1800, Note_on_c, 1, 64, 85
5, 1830, Note_on_c, 1, 64, 0
5, 1830, Note_on_c, 1, 71, 85
5, 1860, Note_on_c, 1, 71, 0
5, 1860, Note_on_c, 1, 66, 85
5, 1890, Note_on_c, 1, 66, 0
5, 1890, Note_on_c, 1, 71, 85
5, 1920, Note_on_c, 1, 71, 0
5, 1920, Note_on_c, 1, 68, 85
5, 1950, Note_on_c, 1, 68, 0
5, 1950, Note_on_c, 1, 71, 85
5, 1980, Note_on_c, 1, 71, 0
5, 1980, Note_on_c, 1, 69, 85
5, 2010, Note_on_c, 1, 69, 0
5, 2010, Note_on_c, 1, 71, 85
5, 2040, Note_on_c, 1, 71, 0
5, 2040, Note_on_c, 1, 68, 85
5, 2070, Note_on_c, 1, 68, 0
5, 2070, Note_on_c, 1, 71, 85
5, 2100, Note_on_c, 1, 71, 0
5, 2100, Note_on_c, 1, 66, 85
5, 2130, Note_on_c, 1, 66, 0
5, 2130, Note_on_c, 1, 71, 85
5, 2160, Note_on_c, 1, 71, 0
5, 2160, Note_on_c, 1, 64, 85
5, 2190, Note_on_c, 1, 64, 0
5, 2190, Note_on_c, 1, 76, 95
5, 2220, Note_on_c, 1, 76, 0
5, 2220, Note_on_c, 1, 75, 95
5, 2250, Note_on_c, 1, 75, 0
5, 2250, Note_on_c, 1, 73, 95
5, 2280, Note_on_c, 1, 73, 0
5, 2280, Note_on_c, 1, 71, 95
5, 2310, Note_on_c, 1, 71, 0
5, 2310, Note_on_c, 1, 76, 95
5, 2340, Note_on_c, 1, 76, 0
5, 2340, Note_on_c, 1, 75, 95
5, 2370, Note_on_c, 1, 75, 0
5, 2370, Note_on_c, 1, 73, 95
5, 2400, Note_on_c, 1, 73, 0
5, 2400, Note_on_c, 1, 71, 95
5, 2430, Note_on_c, 1, 71, 0
5, 2430, Note_on_c, 1, 69, 95
5, 2460, Note_on_c, 1, 69, 0
5, 2460, Note_on_c, 1, 68, 95
5, 2490, Note_on_c, 1, 68, 0
5, 2490, Note_on_c, 1, 66, 95
5, 2520, Note_on_c, 1, 66, 0
5, 2520, Note_on_c, 1, 64, 95
5, 2550, Note_on_c, 1, 64, 0
5, 2550, Note_on_c, 1, 66, 95
5, 2580, Note_on_c, 1, 66, 0
5, 2580, Note_on_c, 1, 68, 95
5, 2610, Note_on_c, 1, 68, 0
5, 2610, Note_on_c, 1, 69, 95
5, 2640, Note_on_c, 1, 69, 0
5, 2640, Note_on_c, 1, 71, 95
5, 2670, Note_on_c, 1, 71, 0
5, 2670, Note_on_c, 1, 73, 95
5, 2700, Note_on_c, 1, 73, 0
5, 2700, Note_on_c, 1, 75, 95
5, 2730, Note_on_c, 1, 75, 0
5, 2730, Note_on_c, 1, 76, 95
5, 2760, Note_on_c, 1, 76, 0
5, 2760, Note_on_c, 1, 78, 95
5, 2790, Note_on_c, 1, 78, 0
5, 2790, Note_on_c, 1, 80, 95
5, 2820, Note_on_c, 1, 80, 0
5, 2820, Note_on_c, 1, 81, 95
5, 2850, Note_on_c, 1, 81, 0
5, 2850, Note_on_c, 1, 78, 95
5, 2880, Note_on_c, 1, 78, 0
5, 2880, Note_on_c, 1, 80, 95
5, 2910, Note_on_c, 1, 80, 0
5, 2910, Note_on_c, 1, 83, 95
5, 2940, Note_on_c, 1, 83, 0
5, 2940, Note_on_c, 1, 76, 95
5, 2970, Note_on_c, 1, 76, 0
5, 2970, Note_on_c, 1, 78, 95
5, 3000, Note_on_c, 1, 78, 0
5, 3000, Note_on_c, 1, 80, 95
5, 3030, Note_on_c, 1, 80, 0
5, 3030, Note_on_c, 1, 81, 95
5, 3060, Note_on_c, 1, 81, 0
5, 3060, Note_on_c, 1, 83, 95
5, 3090, Note_on_c, 1, 83, 0
5, 3090, Note_on_c, 1, 85, 95
5, 3120, Note_on_c, 1, 85, 0
5, 3120, Note_on_c, 1, 87, 95
5, 3150, Note_on_c, 1, 87, 0
5, 3150, Note_on_c, 1, 88, 95
5, 3180, Note_on_c, 1, 88, 0
5, 3180, Note_on_c, 1, 85, 95
5, 3210, Note_on_c, 1, 85, 0
5, 3210, Note_on_c, 1, 87, 95
5, 3240, Note_on_c, 1, 87, 0
5, 3240, Note_on_c, 1, 88, 95
5, 3270, Note_on_c, 1, 88, 0
5, 3270, Note_on_c, 1, 83, 85
5, 3300, Note_on_c, 1, 83, 0
5, 3300, Note_on_c, 1, 81, 85
5, 3330, Note_on_c, 1, 81, 0
5, 3330, Note_on_c, 1, 83, 85
5, 3360, Note_on_c, 1, 83, 0
5, 3360, Note_on_c, 1, 80, 85
5, 3390, Note_on_c, 1, 80, 0
5, 3390, Note_on_c, 1, 83, 85
5, 3420, Note_on_c, 1, 83, 0
5, 3420, Note_on_c, 1, 81, 85
5, 3450, Note_on_c, 1, 81, 0
5, 3450, Note_on_c, 1, 83, 85
5, 3480, Note_on_c, 1, 83, 0
5, 3480, Note_on_c, 1, 80, 85
5, 3510, Note_on_c, 1, 80, 0
5, 3510, Note_on_c, 1, 83, 85
5, 3540, Note_on_c, 1, 83, 0
5, 3540, Note_on_c, 1, 78, 85
5, 3570, Note_on_c, 1, 78, 0
5, 3570, Note_on_c, 1, 83, 85
5, 3600, Note_on_c, 1, 83, 0
5, 3600, Note_on_c, 1, 76, 85
5, 3630, Note_on_c, 1, 76, 0
5, 3630, Note_on_c, 1, 88, 95
5, 3660, Note_on_c, 1, 88, 0
5, 3660, Note_on_c, 1, 87, 95
5, 3690, Note_on_c, 1, 87, 0
5, 3690, Note_on_c, 1, 85, 95
5, 3720, Note_on_c, 1, 85, 0
5, 3720, Note_on_c, 1, 83, 95
5, 3750, Note_on_c, 1, 83, 0
5, 3750, Note_on_c, 1, 76, 95
5, 3780, Note_on_c, 1, 76, 0
5, 3780, Note_on_c, 1, 85, 95
5, 3810, Note_on_c, 1, 85, 0
5, 3810, Note_on_c, 1, 76, 95
5, 3840, Note_on_c, 1, 76, 0
5, 3840, Note_on_c, 1, 83, 95
5, 3870, Note_on_c, 1, 83, 0
5, 3870, Note_on_c, 1, 76, 95
5, 3900, Note_on_c, 1, 76, 0
5, 3900, Note_on_c, 1, 81, 95
5, 3930, Note_on_c, 1, 81, 0
5, 3930, Note_on_c, 1, 76, 95
5, 3960, Note_on_c, 1, 76, 0
5, 3960, Note_on_c, 1, 80, 85
5, 3990, Note_on_c, 1, 80, 0
5, 3990, Note_on_c, 1, 83, 85
5, 4020, Note_on_c, 1, 83, 0
5, 4020, Note_on_c, 1, 78, 85
5, 4050, Note_on_c, 1, 78, 0
5, 4050, Note_on_c, 1, 83, 85
5, 4080, Note_on_c, 1, 83, 0
5, 4080, Note_on_c, 1, 80, 85
5, 4110, Note_on_c, 1, 80, 0
5, 4110, Note_on_c, 1, 83, 85
5, 4140, Note_on_c, 1, 83, 0
5, 4140, Note_on_c, 1, 81, 85
5, 4170, Note_on_c, 1, 81, 0
5, 4170, Note_on_c, 1, 83, 85
5, 4200, Note_on_c, 1, 83, 0
5, 4200, Note_on_c, 1, 80, 85
5, 4230, Note_on_c, 1, 80, 0
5, 4230, Note_on_c, 1, 83, 85
5, 4260, Note_on_c, 1, 83, 0
5, 4260, Note_on_c, 1, 78, 85
5, 4290, Note_on_c, 1, 78, 0
5, 4290, Note_on_c, 1, 83, 85
5, 4320, Note_on_c, 1, 83, 0
5, 4320, Note_on_c, 1, 76, 85
5, 4350, Note_on_c, 1, 76, 0
5, 4350, Note_on_c, 1, 88, 95
5, 4380, Note_on_c, 1, 88, 0
5, 4380, Note_on_c, 1, 87, 95
5, 4410, Note_on_c, 1, 87, 0
5, 4410, Note_on_c, 1, 85, 95
5, 4440, Note_on_c, 1, 85, 0
5, 4440, Note_on_c, 1, 83, 95
5, 4470, Note_on_c, 1, 83, 0
5, 4470, Note_on_c, 1, 76, 95
5, 4500, Note_on_c, 1, 76, 0
5, 4500, Note_on_c, 1, 85, 95
5, 4530, Note_on_c, 1, 85, 0
5, 4530, Note_on_c, 1, 76, 95
5, 4560, Note_on_c, 1, 76, 0
5, 4560, Note_on_c, 1, 83, 95
5, 4590, Note_on_c, 1, 83, 0
5, 4590, Note_on_c, 1, 76, 95
5, 4620, Note_on_c, 1, 76, 0
5, 4620, Note_on_c, 1, 81, 95
5, 4650, Note_on_c, 1, 81, 0
5, 4650, Note_on_c, 1, 76, 95
5, 4680, Note_on_c, 1, 76, 0
5, 4680, Note_on_c, 1, 80, 85
5, 4710, Note_on_c, 1, 80, 0
5, 4710, Note_on_c, 1, 76, 85
5, 4740, Note_on_c, 1, 76, 0
5, 4740, Note_on_c, 1, 76, 85
5, 4770, Note_on_c, 1, 76, 0
5, 4770, Note_on_c, 1, 76, 85
5, 4800, Note_on_c, 1, 76, 0
5, 4800, Note_on_c, 1, 75, 85
5, 4830, Note_on_c, 1, 75, 0
5, 4830, Note_on_c, 1, 76, 85
5, 4860, Note_on_c, 1, 76, 0
5, 4860, Note_on_c, 1, 76, 85
5, 4890, Note_on_c, 1, 76, 0
5, 4890, Note_on_c, 1, 76, 85
5, 4920, Note_on_c, 1, 76, 0
5, 4920, Note_on_c, 1, 78, 85
5, 4950, Note_on_c, 1, 78, 0
5, 4950, Note_on_c, 1, 76, 85
5, 4980, Note_on_c, 1, 76, 0
5, 4980, Note_on_c, 1, 75, 85
5, 5010, Note_on_c, 1, 75, 0
5, 5010, Note_on_c, 1, 76, 85
5, 5040, Note_on_c, 1, 76, 0
5, 5040, Note_on_c, 1, 76, 85
5, 5070, Note_on_c, 1, 76, 0
5, 5070, Note_on_c, 1, 76, 85
5, 5100, Note_on_c, 1, 76, 0
5, 5100, Note_on_c, 1, 80, 95
5, 5130, Note_on_c, 1, 80, 0
5, 5130, Note_on_c, 1, 76, 95
5, 5160, Note_on_c, 1, 76, 0
5, 5160, Note_on_c, 1, 78, 95
5, 5190, Note_on_c, 1, 78, 0
5, 5190, Note_on_c, 1, 76, 95
5, 5220, Note_on_c, 1, 76, 0
5, 5220, Note_on_c, 1, 80, 95
5, 5250, Note_on_c, 1, 80, 0
5, 5250, Note_on_c, 1, 76, 95
5, 5280, Note_on_c, 1, 76, 0
5, 5280, Note_on_c, 1, 81, 95
5, 5310, Note_on_c, 1, 81, 0
5, 5310, Note_on_c, 1, 76, 95
5, 5340, Note_on_c, 1, 76, 0
5, 5340, Note_on_c, 1, 78, 95
5, 5370, Note_on_c, 1, 78, 0
5, 5370, Note_on_c, 1, 76, 95
5, 5400, Note_on_c, 1, 76, 0
5, 5400, Note_on_c, 1, 80, 85
5, 5430, Note_on_c, 1, 80, 0
5, 5430, Note_on_c, 1, 76, 85
5, 5460, Note_on_c, 1, 76, 0
5, 5460, Note_on_c, 1, 76, 85
5, 5490, Note_on_c, 1, 76, 0
5, 5490, Note_on_c, 1, 76, 85
5, 5520, Note_on_c, 1, 76, 0
5, 5520, Note_on_c, 1, 75, 85
5, 5550, Note_on_c, 1, 75, 0
5, 5550, Note_on_c, 1, 76, 85
5, 5580, Note_on_c, 1, 76, 0
5, 5580, Note_on_c, 1, 76, 85
5, 5610, Note_on_c, 1, 76, 0
5, 5610, Note_on_c, 1, 76, 85
5, 5640, Note_on_c, 1, 76, 0
5, 5640, Note_on_c, 1, 78, 85
5, 5670, Note_on_c, 1, 78, 0
5, 5670, Note_on_c, 1, 76, 85
5, 5700, Note_on_c, 1, 76, 0
5, 5700, Note_on_c, 1, 75, 85
5, 5730, Note_on_c, 1, 75, 0
5, 5730, Note_on_c, 1, 76, 85
5, 5760, Note_on_c, 1, 76, 0
5, 5760, Note_on_c, 1, 76, 85
5, 5790, Note_on_c, 1, 76, 0
5, 5790, Note_on_c, 1, 76, 85
5, 5820, Note_on_c, 1, 76, 0
5, 5820, Note_on_c, 1, 80, 95
5, 5850, Note_on_c, 1, 80, 0
5, 5850, Note_on_c, 1, 76, 95
5, 5880, Note_on_c, 1, 76, 0
5, 5880, Note_on_c, 1, 78, 95
5, 5910, Note_on_c, 1, 78, 0
5, 5910, Note_on_c, 1, 76, 95
5, 5940, Note_on_c, 1, 76, 0
5, 5940, Note_on_c, 1, 80, 95
5, 5970, Note_on_c, 1, 80, 0
5, 5970, Note_on_c, 1, 76, 95
5, 6000, Note_on_c, 1, 76, 0
5, 6000, Note_on_c, 1, 81, 95
5, 6030, Note_on_c, 1, 81, 0
5, 6030, Note_on_c, 1, 76, 95
5, 6060, Note_on_c, 1, 76, 0
5, 6060, Note_on_c, 1, 78, 95
5, 6090, Note_on_c, 1, 78, 0
5, 6090, Note_on_c, 1, 76, 95
5, 6120, Note_on_c, 1, 76, 0
5, 6120, Note_on_c, 1, 80, 90
5, 6150, Note_on_c, 1, 80, 0
5, 6150, Note_on_c, 1, 76, 90
5, 6180, Note_on_c, 1, 76, 0
5, 6180, Note_on_c, 1, 80, 90
5, 6210, Note_on_c, 1, 80, 0
5, 6210, Note_on_c, 1, 76, 90
5, 6240, Note_on_c, 1, 76, 0
5, 6240, Note_on_c, 1, 80, 90
5, 6270, Note_on_c, 1, 80, 0
5, 6270, Note_on_c, 1, 76, 90
5, 6300, Note_on_c, 1, 76, 0
5, 6300, Note_on_c, 1, 80, 90
5, 6330, Note_on_c, 1, 80, 0
5, 6330, Note_on_c, 1, 76, 90
5, 6360, Note_on_c, 1, 76, 0
5, 6360, Note_on_c, 1, 80, 90
5, 6390, Note_on_c, 1, 80, 0
5, 6390, Note_on_c, 1, 76, 90
5, 6420, Note_on_c, 1, 76, 0
5, 6420, Note_on_c, 1, 80, 90
5, 6450, Note_on_c, 1, 80, 0
5, 6450, Note_on_c, 1, 76, 90
5, 6480, Note_on_c, 1, 76, 0
5, 6480, Note_on_c, 1, 80, 90
5, 6510, Note_on_c, 1, 80, 0
5, 6510, Note_on_c, 1, 76, 90
5, 6540, Note_on_c, 1, 76, 0
5, 6540, Note_on_c, 1, 80, 90
5, 6570, Note_on_c, 1, 80, 0
5, 6570, Note_on_c, 1, 75, 90
5, 6600, Note_on_c, 1, 75, 0
5, 6600, Note_on_c, 1, 80, 90
5, 6630, Note_on_c, 1, 80, 0
5, 6630, Note_on_c, 1, 76, 90
5, 6660, Note_on_c, 1, 76, 0
5, 6660, Note_on_c, 1, 80, 90
5, 6690, Note_on_c, 1, 80, 0
5, 6690, Note_on_c, 1, 75, 90
5, 6720, Note_on_c, 1, 75, 0
5, 6720, Note_on_c, 1, 80, 90
5, 6750, Note_on_c, 1, 80, 0
5, 6750, Note_on_c, 1, 76, 90
5, 6780, Note_on_c, 1, 76, 0
5, 6780, Note_on_c, 1, 80, 90
5, 6810, Note_on_c, 1, 80, 0
5, 6810, Note_on_c, 1, 75, 90
5, 6840, Note_on_c, 1, 75, 0
5, 6840, Note_on_c, 1, 80, 95
5, 6870, Note_on_c, 1, 80, 0
5, 6870, Note_on_c, 1, 76, 95
5, 6900, Note_on_c, 1, 76, 0
5, 6900, Note_on_c, 1, 80, 95
5, 6930, Note_on_c, 1, 80, 0
5, 6930, Note_on_c, 1, 74, 95
5, 6960, Note_on_c, 1, 74, 0
5, 6960, Note_on_c, 1, 80, 95
5, 6990, Note_on_c, 1, 80, 0
5, 6990, Note_on_c, 1, 76, 95
5, 7020, Note_on_c, 1, 76, 0
5, 7020, Note_on_c, 1, 80, 95
5, 7050, Note_on_c, 1, 80, 0
5, 7050, Note_on_c, 1, 74, 95
5, 7080, Note_on_c, 1, 74, 0
5, 7080, Note_on_c, 1, 80, 95
5, 7110, Note_on_c, 1, 80, 0
5, 7110, Note_on_c, 1, 76, 95
5, 7140, Note_on_c, 1, 76, 0
5, 7140, Note_on_c, 1, 80, 95
5, 7170, Note_on_c, 1, 80, 0
5, 7170, Note_on_c, 1, 74, 95
5, 7200, Note_on_c, 1, 74, 0
5, 7200, Note_on_c, 1, 81, 100
5, 7230, Note_on_c, 1, 81, 0
5, 7230, Note_on_c, 1, 76, 100
5, 7260, Note_on_c, 1, 76, 0
5, 7260, Note_on_c, 1, 81, 100
5, 7290, Note_on_c, 1, 81, 0
5, 7290, Note_on_c, 1, 73, 100
5, 7320, Note_on_c, 1, 73, 0
5, 7320, Note_on_c, 1, 81, 100
5, 7350, Note_on_c, 1, 81, 0
5, 7350, Note_on_c, 1, 76, 100
5, 7380, Note_on_c, 1, 76, 0
5, 7380, Note_on_c, 1, 81, 100
5, 7410, Note_on_c, 1, 81, 0
5, 7410, Note_on_c, 1, 73, 100
5, 7440, Note_on_c, 1, 73, 0
5, 7440, Note_on_c, 1, 81, 100
5, 7470, Note_on_c, 1, 81, 0
5, 7470, Note_on_c, 1, 76, 100
5, 7500, Note_on_c, 1, 76, 0
5, 7500, Note_on_c, 1, 81, 100
5, 7530, Note_on_c, 1, 81, 0
5, 7530, Note_on_c, 1, 73, 100
5, 7560, Note_on_c, 1, 73, 0
5, 7560, Note_on_c, 1, 81, 100
5, 7590, Note_on_c, 1, 81, 0
5, 7590, Note_on_c, 1, 76, 100
5, 7620, Note_on_c, 1, 76, 0
5, 7620, Note_on_c, 1, 81, 100
5, 7650, Note_on_c, 1, 81, 0
5, 7650, Note_on_c, 1, 71, 100
5, 7680, Note_on_c, 1, 71, 0
5, 7680, Note_on_c, 1, 81, 100
5, 7710, Note_on_c, 1, 81, 0
5, 7710, Note_on_c, 1, 76, 100
5, 7740, Note_on_c, 1, 76, 0
5, 7740, Note_on_c, 1, 81, 100
5, 7770, Note_on_c, 1, 81, 0
5, 7770, Note_on_c, 1, 71, 100
5, 7800, Note_on_c, 1, 71, 0
5, 7800, Note_on_c, 1, 81, 100
5, 7830, Note_on_c, 1, 81, 0
5, 7830, Note_on_c, 1, 76, 100
5, 7860, Note_on_c, 1, 76, 0
5, 7860, Note_on_c, 1, 81, 100
5, 7890, Note_on_c, 1, 81, 0
5, 7890, Note_on_c, 1, 71, 100
5, 7920, Note_on_c, 1, 71, 0
5, 7920, Note_on_c, 1, 80, 100
5, 7950, Note_on_c, 1, 80, 0
5, 7950, Note_on_c, 1, 76, 100
5, 7980, Note_on_c, 1, 76, 0
5, 7980, Note_on_c, 1, 80, 100
5, 8010, Note_on_c, 1, 80, 0
5, 8010, Note_on_c, 1, 71, 100
5, 8040, Note_on_c, 1, 71, 0
5, 8040, Note_on_c, 1, 80, 100
5, 8070, Note_on_c, 1, 80, 0
5, 8070, Note_on_c, 1, 76, 100
5, 8100, Note_on_c, 1, 76, 0
5, 8100, Note_on_c, 1, 80, 100
5, 8130, Note_on_c, 1, 80, 0
5, 8130, Note_on_c, 1, 71, 100
5, 8160, Note_on_c, 1, 71, 0
5, 8160, Note_on_c, 1, 80, 100
5, 8190, Note_on_c, 1, 80, 0
5, 8190, Note_on_c, 1, 76, 100
5, 8220, Note_on_c, 1, 76, 0
5, 8220, Note_on_c, 1, 80, 100
5, 8250, Note_on_c, 1, 80, 0
5, 8250, Note_on_c, 1, 71, 100
5, 8280, Note_on_c, 1, 71, 0
5, 8280, Note_on_c, 1, 80, 95
5, 8310, Note_on_c, 1, 80, 0
5, 8310, Note_on_c, 1, 76, 95
5, 8340, Note_on_c, 1, 76, 0
5, 8340, Note_on_c, 1, 80, 95
5, 8370, Note_on_c, 1, 80, 0
5, 8370, Note_on_c, 1, 69, 95
5, 8400, Note_on_c, 1, 69, 0
5, 8400, Note_on_c, 1, 80, 95
5, 8430, Note_on_c, 1, 80, 0
5, 8430, Note_on_c, 1, 76, 95
5, 8460, Note_on_c, 1, 76, 0
5, 8460, Note_on_c, 1, 80, 95
5, 8490, Note_on_c, 1, 80, 0
5, 8490, Note_on_c, 1, 69, 95
5, 8520, Note_on_c, 1, 69, 0
5, 8520, Note_on_c, 1, 80, 95
5, 8550, Note_on_c, 1, 80, 0
5, 8550, Note_on_c, 1, 76, 95
5, 8580, Note_on_c, 1, 76, 0
5, 8580, Note_on_c, 1, 80, 95
5, 8610, Note_on_c, 1, 80, 0
5, 8610, Note_on_c, 1, 69, 95
5, 8640, Note_on_c, 1, 69, 0
5, 8640, Note_on_c, 1, 78, 95
5, 8670, Note_on_c, 1, 78, 0
5, 8670, Note_on_c, 1, 76, 95
5, 8700, Note_on_c, 1, 76, 0
5, 8700, Note_on_c, 1, 78, 95
5, 8730, Note_on_c, 1, 78, 0
5, 8730, Note_on_c, 1, 69, 95
5, 8760, Note_on_c, 1, 69, 0
5, 8760, Note_on_c, 1, 78, 95
5, 8790, Note_on_c, 1, 78, 0
5, 8790, Note_on_c, 1, 76, 95
5, 8820, Note_on_c, 1, 76, 0
5, 8820, Note_on_c, 1, 78, 95
5, 8850, Note_on_c, 1, 78, 0
5, 8850, Note_on_c, 1, 69, 95
5, 8880, Note_on_c, 1, 69, 0
5, 8880, Note_on_c, 1, 78, 95
5, 8910, Note_on_c, 1, 78, 0
5, 8910, Note_on_c, 1, 76, 95
5, 8940, Note_on_c, 1, 76, 0
5, 8940, Note_on_c, 1, 78, 95
5, 8970, Note_on_c, 1, 78, 0
5, 8970, Note_on_c, 1, 69, 95
5, 9000, Note_on_c, 1, 69, 0
5, 9000, Note_on_c, 1, 78, 90
5, 9030, Note_on_c, 1, 78, 0
5, 9030, Note_on_c, 1, 76, 90
5, 9060, Note_on_c, 1, 76, 0
5, 9060, Note_on_c, 1, 78, 90
5, 9090, Note_on_c, 1, 78, 0
5, 9090, Note_on_c, 1, 68, 90
5, 9120, Note_on_c, 1, 68, 0
5, 9120, Note_on_c, 1, 78, 90
5, 9150, Note_on_c, 1, 78, 0
5, 9150, Note_on_c, 1, 76, 90
5, 9180, Note_on_c, 1, 76, 0
5, 9180, Note_on_c, 1, 78, 90
5, 9210, Note_on_c, 1, 78, 0
5, 9210, Note_on_c, 1, 68, 90
5, 9240, Note_on_c, 1, 68, 0
5, 9240, Note_on_c, 1, 78, 90
5, 9270, Note_on_c, 1, 78, 0
5, 9270, Note_on_c, 1, 76, 90
5, 9300, Note_on_c, 1, 76, 0
5, 9300, Note_on_c, 1, 78, 90
5, 9330, Note_on_c, 1, 78, 0
5, 9330, Note_on_c, 1, 68, 90
5, 9360, Note_on_c, 1, 68, 0
5, 9360, Note_on_c, 1, 76, 90
5, 9390, Note_on_c, 1, 76, 0
5, 9390, Note_on_c, 1, 76, 90
5, 9420, Note_on_c, 1, 76, 0
5, 9420, Note_on_c, 1, 76, 90
5, 9450, Note_on_c, 1, 76, 0
5, 9450, Note_on_c, 1, 68, 90
5, 9480, Note_on_c, 1, 68, 0
5, 9480, Note_on_c, 1, 76, 90
5, 9510, Note_on_c, 1, 76, 0
5, 9510, Note_on_c, 1, 76, 90
5, 9540, Note_on_c, 1, 76, 0
5, 9540, Note_on_c, 1, 76, 90
5, 9570, Note_on_c, 1, 76, 0
5, 9570, Note_on_c, 1, 68, 90
5, 9600, Note_on_c, 1, 68, 0
5, 9600, Note_on_c, 1, 76, 90
5, 9630, Note_on_c, 1, 76, 0
5, 9630, Note_on_c, 1, 76, 90
5, 9660, Note_on_c, 1, 76, 0
5, 9660, Note_on_c, 1, 76, 90
5, 9690, Note_on_c, 1, 76, 0
5, 9690, Note_on_c, 1, 68, 90
5, 9720, Note_on_c, 1, 68, 0
5, 9720, Note_on_c, 1, 76, 85
5, 9750, Note_on_c, 1, 76, 0
5, 9750, Note_on_c, 1, 76, 85
5, 9780, Note_on_c, 1, 76, 0
5, 9780, Note_on_c, 1, 76, 85
5, 9810, Note_on_c, 1, 76, 0
5, 9810, Note_on_c, 1, 66, 85
5, 9840, Note_on_c, 1, 66, 0
5, 9840, Note_on_c, 1, 76, 85
5, 9870, Note_on_c, 1, 76, 0
5, 9870, Note_on_c, 1, 76, 85
5, 9900, Note_on_c, 1, 76, 0
5, 9900, Note_on_c, 1, 76, 85
5, 9930, Note_on_c, 1, 76, 0
5, 9930, Note_on_c, 1, 66, 85
5, 9960, Note_on_c, 1, 66, 0
5, 9960, Note_on_c, 1, 76, 85
5, 9990, Note_on_c, 1, 76, 0
5, 9990, Note_on_c, 1, 76, 85
5, 10020, Note_on_c, 1, 76, 0
5, 10020, Note_on_c, 1, 76, 85
5, 10050, Note_on_c, 1, 76, 0
5, 10050, Note_on_c, 1, 66, 85
5, 10080, Note_on_c, 1, 66, 0
5, 10080, Note_on_c, 1, 75, 85
5, 10110, Note_on_c, 1, 75, 0
5, 10110, Note_on_c, 1, 76, 85
5, 10140, Note_on_c, 1, 76, 0
5, 10140, Note_on_c, 1, 75, 85
5, 10170, Note_on_c, 1, 75, 0
5, 10170, Note_on_c, 1, 66, 85
5, 10200, Note_on_c, 1, 66, 0
5, 10200, Note_on_c, 1, 75, 85
5, 10230, Note_on_c, 1, 75, 0
5, 10230, Note_on_c, 1, 76, 85
5, 10260, Note_on_c, 1, 76, 0
5, 10260, Note_on_c, 1, 75, 85
5, 10290, Note_on_c, 1, 75, 0
5, 10290, Note_on_c, 1, 66, 85
5, 10320, Note_on_c, 1, 66, 0
5, 10320, Note_on_c, 1, 75, 85
5, 10350, Note_on_c, 1, 75, 0
5, 10350, Note_on_c, 1, 76, 85
5, 10380, Note_on_c, 1, 76, 0
5, 10380, Note_on_c, 1, 75, 85
5, 10410, Note_on_c, 1, 75, 0
5, 10410, Note_on_c, 1, 66, 85
5, 10440, Note_on_c, 1, 66, 0
5, 10440, Note_on_c, 1, 64, 80
5, 10470, Note_on_c, 1, 64, 0
5, 10470, Note_on_c, 1, 66, 80
5, 10500, Note_on_c, 1, 66, 0
5, 10500, Note_on_c, 1, 64, 80
5, 10530, Note_on_c, 1, 64, 0
5, 10530, Note_on_c, 1, 66, 80
5, 10560, Note_on_c, 1, 66, 0
5, 10560, Note_on_c, 1, 68, 80
5, 10590, Note_on_c, 1, 68, 0
5, 10590, Note_on_c, 1, 71, 80
5, 10620, Note_on_c, 1, 71, 0
5, 10620, Note_on_c, 1, 64, 80
5, 10650, Note_on_c, 1, 64, 0
5, 10650, Note_on_c, 1, 66, 80
5, 10680, Note_on_c, 1, 66, 0
5, 10680, Note_on_c, 1, 68, 80
5, 10710, Note_on_c, 1, 68, 0
5, 10710, Note_on_c, 1, 71, 80
5, 10740, Note_on_c, 1, 71, 0
5, 10740, Note_on_c, 1, 64, 80
5, 10770, Note_on_c, 1, 64, 0
5, 10770, Note_on_c, 1, 66, 80
5, 10800, Note_on_c, 1, 66, 0
5, 10800, Note_on_c, 1, 68, 80
5, 10830, Note_on_c, 1, 68, 0
5, 10830, Note_on_c, 1, 69, 80
5, 10860, Note_on_c, 1, 69, 0
5, 10860, Note_on_c, 1, 68, 80
5, 10890, Note_on_c, 1, 68, 0
5, 10890, Note_on_c, 1, 69, 80
5, 10920, Note_on_c, 1, 69, 0
5, 10920, Note_on_c, 1, 71, 85
5, 10950, Note_on_c, 1, 71, 0
5, 10950, Note_on_c, 1, 76, 85
5, 10980, Note_on_c, 1, 76, 0
5, 10980, Note_on_c, 1, 68, 85
5, 11010, Note_on_c, 1, 68, 0
5, 11010, Note_on_c, 1, 69, 85
5, 11040, Note_on_c, 1, 69, 0
5, 11040, Note_on_c, 1, 71, 85
5, 11070, Note_on_c, 1, 71, 0
5, 11070, Note_on_c, 1, 76, 85
5, 11100, Note_on_c, 1, 76, 0
5, 11100, Note_on_c, 1, 68, 85
5, 11130, Note_on_c, 1, 68, 0
5, 11130, Note_on_c, 1, 69, 85
5, 11160, Note_on_c, 1, 69, 0
5, 11160, Note_on_c, 1, 71, 85
5, 11190, Note_on_c, 1, 71, 0
5, 11190, Note_on_c, 1, 73, 85
5, 11220, Note_on_c, 1, 73, 0
5, 11220, Note_on_c, 1, 71, 85
5, 11250, Note_on_c, 1, 71, 0
5, 11250, Note_on_c, 1, 73, 85
5, 11280, Note_on_c, 1, 73, 0
5, 11280, Note_on_c, 1, 74, 90
5, 11310, Note_on_c, 1, 74, 0
5, 11310, Note_on_c, 1, 80, 90
5, 11340, Note_on_c, 1, 80, 0
5, 11340, Note_on_c, 1, 71, 90
5, 11370, Note_on_c, 1, 71, 0
5, 11370, Note_on_c, 1, 73, 90
5, 11400, Note_on_c, 1, 73, 0
5, 11400, Note_on_c, 1, 74, 90
5, 11430, Note_on_c, 1, 74, 0
5, 11430, Note_on_c, 1, 80, 90
5, 11460, Note_on_c, 1, 80, 0
5, 11460, Note_on_c, 1, 71, 90
5, 11490, Note_on_c, 1, 71, 0
5, 11490, Note_on_c, 1, 73, 90
5, 11520, Note_on_c, 1, 73, 0
5, 11520, Note_on_c, 1, 74, 95
5, 11550, Note_on_c, 1, 74, 0
5, 11550, Note_on_c, 1, 83, 95
5, 11580, Note_on_c, 1, 83, 0
5, 11580, Note_on_c, 1, 80, 95
5, 11610, Note_on_c, 1, 80, 0
5, 11610, Note_on_c, 1, 76, 95
5, 11640, Note_on_c, 1, 76, 0
5, 11640, Note_on_c, 1, 74, 95
5, 11670, Note_on_c, 1, 74, 0
5, 11670, Note_on_c, 1, 71, 95
5, 11700, Note_on_c, 1, 71, 0
5, 11700, Note_on_c, 1, 68, 95
5, 11730, Note_on_c, 1, 68, 0
5, 11730, Note_on_c, 1, 64, 95
5, 11760, Note_on_c, 1, 64, 0
5, 11760, Note_on_c, 1, 62, 95
5, 11790, Note_on_c, 1, 62, 0
5, 11790, Note_on_c, 1, 61, 95
5, 11820, Note_on_c, 1, 61, 0
5, 11820, Note_on_c, 1, 62, 95
5, 11850, Note_on_c, 1, 62, 0
5, 11850, Note_on_c, 1, 59, 95
5, 11880, Note_on_c, 1, 59, 0
5, 11880, Note_on_c, 1, 61, 80
5, 11910, Note_on_c, 1, 61, 0
5, 11910, Note_on_c, 1, 63, 80
5, 11940, Note_on_c, 1, 63, 0
5, 11940, Note_on_c, 1, 61, 80
5, 11970, Note_on_c, 1, 61, 0
5, 11970, Note_on_c, 1, 63, 80
5, 12000, Note_on_c, 1, 63, 0
5, 12000, Note_on_c, 1, 65, 80
5, 12030, Note_on_c, 1, 65, 0
5, 12030, Note_on_c, 1, 68, 80
5, 12060, Note_on_c, 1, 68, 0
5, 12060, Note_on_c, 1, 61, 80
5, 12090, Note_on_c, 1, 61, 0
5, 12090, Note_on_c, 1, 63, 80
5, 12120, Note_on_c, 1, 63, 0
5, 12120, Note_on_c, 1, 65, 80
5, 12150, Note_on_c, 1, 65, 0
5, 12150, Note_on_c, 1, 68, 80
5, 12180, Note_on_c, 1, 68, 0
5, 12180, Note_on_c, 1, 61, 80
5, 12210, Note_on_c, 1, 61, 0
5, 12210, Note_on_c, 1, 63, 80
5, 12240, Note_on_c, 1, 63, 0
5, 12240, Note_on_c, 1, 65, 80
5, 12270, Note_on_c, 1, 65, 0
5, 12270, Note_on_c, 1, 66, 80
5, 12300, Note_on_c, 1, 66, 0
5, 12300, Note_on_c, 1, 65, 80
5, 12330, Note_on_c, 1, 65, 0
5, 12330, Note_on_c, 1, 66, 80
5, 12360, Note_on_c, 1, 66, 0
5, 12360, Note_on_c, 1, 68, 85
5, 12390, Note_on_c, 1, 68, 0
5, 12390, Note_on_c, 1, 73, 85
5, 12420, Note_on_c, 1, 73, 0
5, 12420, Note_on_c, 1, 65, 85
5, 12450, Note_on_c, 1, 65, 0
5, 12450, Note_on_c, 1, 66, 85
5, 12480, Note_on_c, 1, 66, 0
5, 12480, Note_on_c, 1, 68, 85
5, 12510, Note_on_c, 1, 68, 0
5, 12510, Note_on_c, 1, 73, 85
5, 12540, Note_on_c, 1, 73, 0
5, 12540, Note_on_c, 1, 65, 85
5, 12570, Note_on_c, 1, 65, 0
5, 12570, Note_on_c, 1, 66, 85
5, 12600, Note_on_c, 1, 66, 0
5, 12600, Note_on_c, 1, 68, 85
5, 12630, Note_on_c, 1, 68, 0
5, 12630, Note_on_c, 1, 69, 85
5, 12660, Note_on_c, 1, 69, 0
5, 12660, Note_on_c, 1, 68, 85
5, 12690, Note_on_c, 1, 68, 0
5, 12690, Note_on_c, 1, 69, 85
5, 12720, Note_on_c, 1, 69, 0
5, 12720, Note_on_c, 1, 71, 90
5, 12750, Note_on_c, 1, 71, 0
5, 12750, Note_on_c, 1, 77, 90
5, 12780, Note_on_c, 1, 77, 0
5, 12780, Note_on_c, 1, 68, 90
5, 12810, Note_on_c, 1, 68, 0
5, 12810, Note_on_c, 1, 69, 90
5, 12840, Note_on_c, 1, 69, 0
5, 12840, Note_on_c, 1, 71, 90
5, 12870, Note_on_c, 1, 71, 0
5, 12870, Note_on_c, 1, 77, 90
5, 12900, Note_on_c, 1, 77, 0
5, 12900, Note_on_c, 1, 68, 90
5, 12930, Note_on_c, 1, 68, 0
5, 12930, Note_on_c, 1, 69, 90
5, 12960, Note_on_c, 1, 69, 0
5, 12960, Note_on_c, 1, 71, 90
5, 12990, Note_on_c, 1, 71, 0
5, 12990, Note_on_c, 1, 80, 90
5, 13020, Note_on_c, 1, 80, 0
5, 13020, Note_on_c, 1, 77, 90
5, 13050, Note_on_c, 1, 77, 0
5, 13050, Note_on_c, 1, 73, 90
5, 13080, Note_on_c, 1, 73, 0
5, 13080, Note_on_c, 1, 83, 95
5, 13110, Note_on_c, 1, 83, 0
5, 13110, Note_on_c, 1, 80, 95
5, 13140, Note_on_c, 1, 80, 0
5, 13140, Note_on_c, 1, 81, 95
5, 13170, Note_on_c, 1, 81, 0
5, 13170, Note_on_c, 1, 78, 95
5, 13200, Note_on_c, 1, 78, 0
5, 13200, Note_on_c, 1, 77, 95
5, 13230, Note_on_c, 1, 77, 0
5, 13230, Note_on_c, 1, 80, 95
5, 13260, Note_on_c, 1, 80, 0
5, 13260, Note_on_c, 1, 73, 95
5, 13290, Note_on_c, 1, 73, 0
5, 13290, Note_on_c, 1, 71, 95
5, 13320, Note_on_c, 1, 71, 0
5, 13320, Note_on_c, 1, 69, 95
5, 13350, Note_on_c, 1, 69, 0
5, 13350, Note_on_c, 1, 73, 95
5, 13380, Note_on_c, 1, 73, 0
5, 13380, Note_on_c, 1, 69, 95
5, 13410, Note_on_c, 1, 69, 0
5, 13410, Note_on_c, 1, 66, 95
5, 13440, Note_on_c, 1, 66, 0
5, 13440, Note_on_c, 1, 78, 95
5, 13470, Note_on_c, 1, 78, 0
5, 13470, Note_on_c, 1, 75, 95
5, 13500, Note_on_c, 1, 75, 0
5, 13500, Note_on_c, 1, 76, 95
5, 13530, Note_on_c, 1, 76, 0
5, 13530, Note_on_c, 1, 73, 95
5, 13560, Note_on_c, 1, 73, 0
5, 13560, Note_on_c, 1, 72, 95
5, 13590, Note_on_c, 1, 72, 0
5, 13590, Note_on_c, 1, 75, 95
5, 13620, Note_on_c, 1, 75, 0
5, 13620, Note_on_c, 1, 68, 95
5, 13650, Note_on_c, 1, 68, 0
5, 13650, Note_on_c, 1, 66, 95
5, 13680, Note_on_c, 1, 66, 0
5, 13680, Note_on_c, 1, 64, 95
5, 13710, Note_on_c, 1, 64, 0
5, 13710, Note_on_c, 1, 68, 95
5, 13740, Note_on_c, 1, 68, 0
5, 13740, Note_on_c, 1, 64, 95
5, 13770, Note_on_c, 1, 64, 0
5, 13770, Note_on_c, 1, 61, 95
5, 13800, Note_on_c, 1, 61, 0
5, 13800, Note_on_c, 1, 64, 95
5, 13830, Note_on_c, 1, 64, 0
5, 13830, Note_on_c, 1, 68, 95
5, 13860, Note_on_c, 1, 68, 0
5, 13860, Note_on_c, 1, 73, 95
5, 13890, Note_on_c, 1, 73, 0
5, 13890, Note_on_c, 1, 68, 95
5, 13920, Note_on_c, 1, 68, 0
5, 13920, Note_on_c, 1, 76, 95
5, 13950, Note_on_c, 1, 76, 0
5, 13950, Note_on_c, 1, 73, 95
5, 13980, Note_on_c, 1, 73, 0
5, 13980, Note_on_c, 1, 80, 95
5, 14010, Note_on_c, 1, 80, 0
5, 14010, Note_on_c, 1, 73, 95
5, 14040, Note_on_c, 1, 73, 0
5, 14040, Note_on_c, 1, 72, 95
5, 14070, Note_on_c, 1, 72, 0
5, 14070, Note_on_c, 1, 75, 95
5, 14100, Note_on_c, 1, 75, 0
5, 14100, Note_on_c, 1, 72, 95
5, 14130, Note_on_c, 1, 72, 0
5, 14130, Note_on_c, 1, 68, 95
5, 14160, Note_on_c, 1, 68, 0
5, 14160, Note_on_c, 1, 80, 95
5, 14190, Note_on_c, 1, 80, 0
5, 14190, Note_on_c, 1, 79, 95
5, 14220, Note_on_c, 1, 79, 0
5, 14220, Note_on_c, 1, 80, 95
5, 14250, Note_on_c, 1, 80, 0
5, 14250, Note_on_c, 1, 79, 95
5, 14280, Note_on_c, 1, 79, 0
5, 14280, Note_on_c, 1, 80, 95
5, 14310, Note_on_c, 1, 80, 0
5, 14310, Note_on_c, 1, 75, 95
5, 14340, Note_on_c, 1, 75, 0
5, 14340, Note_on_c, 1, 76, 95
5, 14370, Note_on_c, 1, 76, 0
5, 14370, Note_on_c, 1, 73, 95
5, 14400, Note_on_c, 1, 73, 0
5, 14400, Note_on_c, 1, 72, 95
5, 14430, Note_on_c, 1, 72, 0
5, 14430, Note_on_c, 1, 75, 95
5, 14460, Note_on_c, 1, 75, 0
5, 14460, Note_on_c, 1, 72, 95
5, 14490, Note_on_c, 1, 72, 0
5, 14490, Note_on_c, 1, 68, 95
5, 14520, Note_on_c, 1, 68, 0
5, 14520, Note_on_c, 1, 78, 100
5, 14550, Note_on_c, 1, 78, 0
5, 14550, Note_on_c, 1, 77, 100
5, 14580, Note_on_c, 1, 77, 0
5, 14580, Note_on_c, 1, 78, 100
5, 14610, Note_on_c, 1, 78, 0
5, 14610, Note_on_c, 1, 77, 100
5, 14640, Note_on_c, 1, 77, 0
5, 14640, Note_on_c, 1, 78, 100
5, 14670, Note_on_c, 1, 78, 0
5, 14670, Note_on_c, 1, 75, 100
5, 14700, Note_on_c, 1, 75, 0
5, 14700, Note_on_c, 1, 76, 100
5, 14730, Note_on_c, 1, 76, 0
5, 14730, Note_on_c, 1, 73, 100
5, 14760, Note_on_c, 1, 73, 0
5, 14760, Note_on_c, 1, 72, 100
5, 14790, Note_on_c, 1, 72, 0
5, 14790, Note_on_c, 1, 75, 100
5, 14820, Note_on_c, 1, 75, 0
5, 14820, Note_on_c, 1, 72, 100
5, 14850, Note_on_c, 1, 72, 0
5, 14850, Note_on_c, 1, 68, 100
5, 14880, Note_on_c, 1, 68, 0
5, 14880, Note_on_c, 1, 69, 100
5, 14910, Note_on_c, 1, 69, 0
5, 14910, Note_on_c, 1, 68, 100
5, 14940, Note_on_c, 1, 68, 0
5, 14940, Note_on_c, 1, 69, 100
5, 14970, Note_on_c, 1, 69, 0
5, 14970, Note_on_c, 1, 68, 100
5, 15000, Note_on_c, 1, 68, 0
5, 15000, Note_on_c, 1, 69, 100
5, 15030, Note_on_c, 1, 69, 0
5, 15030, Note_on_c, 1, 63, 100
5, 15060, Note_on_c, 1, 63, 0
5, 15060, Note_on_c, 1, 64, 100
5, 15090, Note_on_c, 1, 64, 0
5, 15090, Note_on_c, 1, 61, 100
5, 15120, Note_on_c, 1, 61, 0
5, 15120, Note_on_c, 1, 60, 100
5, 15150, Note_on_c, 1, 60, 0
5, 15150, Note_on_c, 1, 66, 100
5, 15180, Note_on_c, 1, 66, 0
5, 15180, Note_on_c, 1, 61, 100
5, 15210, Note_on_c, 1, 61, 0
5, 15210, Note_on_c, 1, 66, 100
5, 15240, Note_on_c, 1, 66, 0
5, 15240, Note_on_c, 1, 63, 100
5, 15270, Note_on_c, 1, 63, 0
5, 15270, Note_on_c, 1, 66, 100
5, 15300, Note_on_c, 1, 66, 0
5, 15300, Note_on_c, 1, 61, 100
5, 15330, Note_on_c, 1, 61, 0
5, 15330, Note_on_c, 1, 66, 100
5, 15360, Note_on_c, 1, 66, 0
5, 15360, Note_on_c, 1, 60, 100
5, 15390, Note_on_c, 1, 60, 0
5, 15390, Note_on_c, 1, 66, 100
5, 15420, Note_on_c, 1, 66, 0
5, 15420, Note_on_c, 1, 63, 100
5, 15450, Note_on_c, 1, 63, 0
5, 15450, Note_on_c, 1, 66, 100
5, 15480, Note_on_c, 1, 66, 0
5, 15480, Note_on_c, 1, 56, 100
5, 15510, Note_on_c, 1, 56, 0
5, 15510, Note_on_c, 1, 66, 90
5, 15540, Note_on_c, 1, 66, 0
5, 15540, Note_on_c, 1, 75, 90
5, 15570, Note_on_c, 1, 75, 0
5, 15570, Note_on_c, 1, 66, 90
5, 15600, Note_on_c, 1, 66, 0
5, 15600, Note_on_c, 1, 72, 90
5, 15630, Note_on_c, 1, 72, 0
5, 15630, Note_on_c, 1, 66, 90
5, 15660, Note_on_c, 1, 66, 0
5, 15660, Note_on_c, 1, 75, 90
5, 15690, Note_on_c, 1, 75, 0
5, 15690, Note_on_c, 1, 66, 90
5, 15720, Note_on_c, 1, 66, 0
5, 15720, Note_on_c, 1, 72, 90
5, 15750, Note_on_c, 1, 72, 0
5, 15750, Note_on_c, 1, 66, 90
5, 15780, Note_on_c, 1, 66, 0
5, 15780, Note_on_c, 1, 75, 90
5, 15810, Note_on_c, 1, 75, 0
5, 15810, Note_on_c, 1, 66, 90
5, 15840, Note_on_c, 1, 66, 0
5, 15840, Note_on_c, 1, 56, 90
5, 15870, Note_on_c, 1, 56, 0
5, 15870, Note_on_c, 1, 64, 90
5, 15900, Note_on_c, 1, 64, 0
5, 15900, Note_on_c, 1, 73, 90
5, 15930, Note_on_c, 1, 73, 0
5, 15930, Note_on_c, 1, 64, 90
5, 15960, Note_on_c, 1, 64, 0
5, 15960, Note_on_c, 1, 76, 90
5, 15990, Note_on_c, 1, 76, 0
5, 15990, Note_on_c, 1, 64, 90
5, 16020, Note_on_c, 1, 64, 0
5, 16020, Note_on_c, 1, 73, 90
5, 16050, Note_on_c, 1, 73, 0
5, 16050, Note_on_c, 1, 64, 90
5, 16080, Note_on_c, 1, 64, 0
5, 16080, Note_on_c, 1, 76, 90
5, 16110, Note_on_c, 1, 76, 0
5, 16110, Note_on_c, 1, 64, 90
5, 16140, Note_on_c, 1, 64, 0
5, 16140, Note_on_c, 1, 73, 90
5, 16170, Note_on_c, 1, 73, 0
5, 16170, Note_on_c, 1, 64, 90
5, 16200, Note_on_c, 1, 64, 0
5, 16200, Note_on_c, 1, 56, 85
5, 16230, Note_on_c, 1, 56, 0
5, 16230, Note_on_c, 1, 66, 85
5, 16260, Note_on_c, 1, 66, 0
5, 16260, Note_on_c, 1, 75, 85
5, 16290, Note_on_c, 1, 75, 0
5, 16290, Note_on_c, 1, 66, 85
5, 16320, Note_on_c, 1, 66, 0
5, 16320, Note_on_c, 1, 72, 85
5, 16350, Note_on_c, 1, 72, 0
5, 16350, Note_on_c, 1, 66, 85
5, 16380, Note_on_c, 1, 66, 0
5, 16380, Note_on_c, 1, 75, 85
5, 16410, Note_on_c, 1, 75, 0
5, 16410, Note_on_c, 1, 66, 85
5, 16440, Note_on_c, 1, 66, 0
5, 16440, Note_on_c, 1, 72, 85
5, 16470, Note_on_c, 1, 72, 0
5, 16470, Note_on_c, 1, 66, 85
5, 16500, Note_on_c, 1, 66, 0
5, 16500, Note_on_c, 1, 75, 85
5, 16530, Note_on_c, 1, 75, 0
5, 16530, Note_on_c, 1, 66, 85
5, 16560, Note_on_c, 1, 66, 0
5, 16560, Note_on_c, 1, 56, 85
5, 16590, Note_on_c, 1, 56, 0
5, 16590, Note_on_c, 1, 64, 85
5, 16620, Note_on_c, 1, 64, 0
5, 16620, Note_on_c, 1, 73, 85
5, 16650, Note_on_c, 1, 73, 0
5, 16650, Note_on_c, 1, 64, 85
5, 16680, Note_on_c, 1, 64, 0
5, 16680, Note_on_c, 1, 76, 85
5, 16710, Note_on_c, 1, 76, 0
5, 16710, Note_on_c, 1, 64, 85
5, 16740, Note_on_c, 1, 64, 0
5, 16740, Note_on_c, 1, 73, 85
5, 16770, Note_on_c, 1, 73, 0
5, 16770, Note_on_c, 1, 64, 85
5, 16800, Note_on_c, 1, 64, 0
5, 16800, Note_on_c, 1, 76, 85
5, 16830, Note_on_c, 1, 76, 0
5, 16830, Note_on_c, 1, 64, 85
5, 16860, Note_on_c, 1, 64, 0
5, 16860, Note_on_c, 1, 73, 85
5, 16890, Note_on_c, 1, 73, 0
5, 16890, Note_on_c, 1, 64, 85
5, 16920, Note_on_c, 1, 64, 0
5, 16920, Note_on_c, 1, 56, 95
5, 16950, Note_on_c, 1, 56, 0
5, 16950, Note_on_c, 1, 67, 95
5, 16980, Note_on_c, 1, 67, 0
5, 16980, Note_on_c, 1, 73, 95
5, 17010, Note_on_c, 1, 73, 0
5, 17010, Note_on_c, 1, 67, 95
5, 17040, Note_on_c, 1, 67, 0
5, 17040, Note_on_c, 1, 76, 95
5, 17070, Note_on_c, 1, 76, 0
5, 17070, Note_on_c, 1, 67, 95
5, 17100, Note_on_c, 1, 67, 0
5, 17100, Note_on_c, 1, 73, 95
5, 17130, Note_on_c, 1, 73, 0
5, 17130, Note_on_c, 1, 67, 95
5, 17160, Note_on_c, 1, 67, 0
5, 17160, Note_on_c, 1, 76, 95
5, 17190, Note_on_c, 1, 76, 0
5, 17190, Note_on_c, 1, 67, 95
5, 17220, Note_on_c, 1, 67, 0
5, 17220, Note_on_c, 1, 73, 95
5, 17250, Note_on_c, 1, 73, 0
5, 17250, Note_on_c, 1, 67, 95
5, 17280, Note_on_c, 1, 67, 0
5, 17280, Note_on_c, 1, 56, 95
5, 17310, Note_on_c, 1, 56, 0
5, 17310, Note_on_c, 1, 67, 95
5, 17340, Note_on_c, 1, 67, 0
5, 17340, Note_on_c, 1, 73, 95
5, 17370, Note_on_c, 1, 73, 0
5, 17370, Note_on_c, 1, 67, 95
5, 17400, Note_on_c, 1, 67, 0
5, 17400, Note_on_c, 1, 76, 95
5, 17430, Note_on_c, 1, 76, 0
5, 17430, Note_on_c, 1, 67, 95
5, 17460, Note_on_c, 1, 67, 0
5, 17460, Note_on_c, 1, 73, 95
5, 17490, Note_on_c, 1, 73, 0
5, 17490, Note_on_c, 1, 67, 95
5, 17520, Note_on_c, 1, 67, 0
5, 17520, Note_on_c, 1, 76, 95
5, 17550, Note_on_c, 1, 76, 0
5, 17550, Note_on_c, 1, 67, 95
5, 17580, Note_on_c, 1, 67, 0
5, 17580, Note_on_c, 1, 73, 95
5, 17610, Note_on_c, 1, 73, 0
5, 17610, Note_on_c, 1, 67, 95
5, 17640, Note_on_c, 1, 67, 0
5, 17640, Note_on_c, 1, 56, 90
5, 17670, Note_on_c, 1, 56, 0
5, 17670, Note_on_c, 1, 68, 90
5, 17700, Note_on_c, 1, 68, 0
5, 17700, Note_on_c, 1, 73, 90
5, 17730, Note_on_c, 1, 73, 0
5, 17730, Note_on_c, 1, 68, 90
5, 17760, Note_on_c, 1, 68, 0
5, 17760, Note_on_c, 1, 75, 90
5, 17790, Note_on_c, 1, 75, 0
5, 17790, Note_on_c, 1, 68, 90
5, 17820, Note_on_c, 1, 68, 0
5, 17820, Note_on_c, 1, 73, 90
5, 17850, Note_on_c, 1, 73, 0
5, 17850, Note_on_c, 1, 68, 90
5, 17880, Note_on_c, 1, 68, 0
5, 17880, Note_on_c, 1, 75, 90
5, 17910, Note_on_c, 1, 75, 0
5, 17910, Note_on_c, 1, 68, 90
5, 17940, Note_on_c, 1, 68, 0
5, 17940, Note_on_c, 1, 73, 90
5, 17970, Note_on_c, 1, 73, 0
5, 17970, Note_on_c, 1, 68, 90
5, 18000, Note_on_c, 1, 68, 0
5, 18000, Note_on_c, 1, 56, 85
5, 18030, Note_on_c, 1, 56, 0
5, 18030, Note_on_c, 1, 66, 85
5, 18060, Note_on_c, 1, 66, 0
5, 18060, Note_on_c, 1, 72, 85
5, 18090, Note_on_c, 1, 72, 0
5, 18090, Note_on_c, 1, 66, 85
5, 18120, Note_on_c, 1, 66, 0
5, 18120, Note_on_c, 1, 75, 85
5, 18150, Note_on_c, 1, 75, 0
5, 18150, Note_on_c, 1, 66, 85
5, 18180, Note_on_c, 1, 66, 0
5, 18180, Note_on_c, 1, 72, 85
5, 18210, Note_on_c, 1, 72, 0
5, 18210, Note_on_c, 1, 66, 85
5, 18240, Note_on_c, 1, 66, 0
5, 18240, Note_on_c, 1, 75, 85
5, 18270, Note_on_c, 1, 75, 0
5, 18270, Note_on_c, 1, 66, 85
5, 18300, Note_on_c, 1, 66, 0
5, 18300, Note_on_c, 1, 72, 85
5, 18330, Note_on_c, 1, 72, 0
5, 18330, Note_on_c, 1, 66, 85
5, 18360, Note_on_c, 1, 66, 0
5, 18360, Note_on_c, 1, 61, 95
5, 18390, Note_on_c, 1, 61, 0
5, 18390, Note_on_c, 1, 73, 95
5, 18420, Note_on_c, 1, 73, 0
5, 18420, Note_on_c, 1, 71, 95
5, 18450, Note_on_c, 1, 71, 0
5, 18450, Note_on_c, 1, 69, 95
5, 18480, Note_on_c, 1, 69, 0
5, 18480, Note_on_c, 1, 68, 95
5, 18510, Note_on_c, 1, 68, 0
5, 18510, Note_on_c, 1, 73, 95
5, 18540, Note_on_c, 1, 73, 0
5, 18540, Note_on_c, 1, 68, 95
5, 18570, Note_on_c, 1, 68, 0
5, 18570, Note_on_c, 1, 66, 95
5, 18600, Note_on_c, 1, 66, 0
5, 18600, Note_on_c, 1, 64, 95
5, 18630, Note_on_c, 1, 64, 0
5, 18630, Note_on_c, 1, 68, 95
5, 18660, Note_on_c, 1, 68, 0
5, 18660, Note_on_c, 1, 64, 95
5, 18690, Note_on_c, 1, 64, 0
5, 18690, Note_on_c, 1, 63, 95
5, 18720, Note_on_c, 1, 63, 0
5, 18720, Note_on_c, 1, 61, 95
5, 18750, Note_on_c, 1, 61, 0
5, 18750, Note_on_c, 1, 73, 95
5, 18780, Note_on_c, 1, 73, 0
5, 18780, Note_on_c, 1, 68, 95
5, 18810, Note_on_c, 1, 68, 0
5, 18810, Note_on_c, 1, 66, 95
5, 18840, Note_on_c, 1, 66, 0
5, 18840, Note_on_c, 1, 64, 95
5, 18870, Note_on_c, 1, 64, 0
5, 18870, Note_on_c, 1, 68, 95
5, 18900, Note_on_c, 1, 68, 0
5, 18900, Note_on_c, 1, 64, 95
5, 18930, Note_on_c, 1, 64, 0
5, 18930, Note_on_c, 1, 63, 95
5, 18960, Note_on_c, 1, 63, 0
5, 18960, Note_on_c, 1, 61, 95
5, 18990, Note_on_c, 1, 61, 0
5, 18990, Note_on_c, 1, 64, 95
5, 19020, Note_on_c, 1, 64, 0
5, 19020, Note_on_c, 1, 61, 95
5, 19050, Note_on_c, 1, 61, 0
5, 19050, Note_on_c, 1, 59, 95
5, 19080, Note_on_c, 1, 59, 0
5, 19080, Note_on_c, 1, 58, 95
5, 19110, Note_on_c, 1, 58, 0
5, 19110, Note_on_c, 1, 66, 85
5, 19140, Note_on_c, 1, 66, 0
5, 19140, Note_on_c, 1, 73, 85
5, 19170, Note_on_c, 1, 73, 0
5, 19170, Note_on_c, 1, 66, 85
5, 19200, Note_on_c, 1, 66, 0
5, 19200, Note_on_c, 1, 76, 85
5, 19230, Note_on_c, 1, 76, 0
5, 19230, Note_on_c, 1, 66, 85
5, 19260, Note_on_c, 1, 66, 0
5, 19260, Note_on_c, 1, 73, 85
5, 19290, Note_on_c, 1, 73, 0
5, 19290, Note_on_c, 1, 66, 85
5, 19320, Note_on_c, 1, 66, 0
5, 19320, Note_on_c, 1, 76, 85
5, 19350, Note_on_c, 1, 76, 0
5, 19350, Note_on_c, 1, 66, 85
5, 19380, Note_on_c, 1, 66, 0
5, 19380, Note_on_c, 1, 73, 85
5, 19410, Note_on_c, 1, 73, 0
5, 19410, Note_on_c, 1, 66, 85
5, 19440, Note_on_c, 1, 66, 0
5, 19440, Note_on_c, 1, 58, 85
5, 19470, Note_on_c, 1, 58, 0
5, 19470, Note_on_c, 1, 66, 85
5, 19500, Note_on_c, 1, 66, 0
5, 19500, Note_on_c, 1, 76, 85
5, 19530, Note_on_c, 1, 76, 0
5, 19530, Note_on_c, 1, 66, 85
5, 19560, Note_on_c, 1, 66, 0
5, 19560, Note_on_c, 1, 73, 85
5, 19590, Note_on_c, 1, 73, 0
5, 19590, Note_on_c, 1, 66, 85
5, 19620, Note_on_c, 1, 66, 0
5, 19620, Note_on_c, 1, 76, 85
5, 19650, Note_on_c, 1, 76, 0
5, 19650, Note_on_c, 1, 66, 85
5, 19680, Note_on_c, 1, 66, 0
5, 19680, Note_on_c, 1, 73, 85
5, 19710, Note_on_c, 1, 73, 0
5, 19710, Note_on_c, 1, 66, 85
5, 19740, Note_on_c, 1, 66, 0
5, 19740, Note_on_c, 1, 76, 85
5, 19770, Note_on_c, 1, 76, 0
5, 19770, Note_on_c, 1, 66, 85
5, 19800, Note_on_c, 1, 66, 0
5, 19800, Note_on_c, 1, 59, 85
5, 19830, Note_on_c, 1, 59, 0
5, 19830, Note_on_c, 1, 83, 95
5, 19860, Note_on_c, 1, 83, 0
5, 19860, Note_on_c, 1, 82, 95
5, 19890, Note_on_c, 1, 82, 0
5, 19890, Note_on_c, 1, 80, 95
5, 19920, Note_on_c, 1, 80, 0
5, 19920, Note_on_c, 1, 78, 95
5, 19950, Note_on_c, 1, 78, 0
5, 19950, Note_on_c, 1, 83, 95
5, 19980, Note_on_c, 1, 83, 0
5, 19980, Note_on_c, 1, 78, 95
5, 20010, Note_on_c, 1, 78, 0
5, 20010, Note_on_c, 1, 76, 95
5, 20040, Note_on_c, 1, 76, 0
5, 20040, Note_on_c, 1, 75, 95
5, 20070, Note_on_c, 1, 75, 0
5, 20070, Note_on_c, 1, 78, 95
5, 20100, Note_on_c, 1, 78, 0
5, 20100, Note_on_c, 1, 75, 95
5, 20130, Note_on_c, 1, 75, 0
5, 20130, Note_on_c, 1, 73, 95
5, 20160, Note_on_c, 1, 73, 0
5, 20160, Note_on_c, 1, 71, 95
5, 20190, Note_on_c, 1, 71, 0
5, 20190, Note_on_c, 1, 83, 95
5, 20220, Note_on_c, 1, 83, 0
5, 20220, Note_on_c, 1, 78, 95
5, 20250, Note_on_c, 1, 78, 0
5, 20250, Note_on_c, 1, 76, 95
5, 20280, Note_on_c, 1, 76, 0
5, 20280, Note_on_c, 1, 75, 95
5, 20310, Note_on_c, 1, 75, 0
5, 20310, Note_on_c, 1, 78, 95
5, 20340, Note_on_c, 1, 78, 0
5, 20340, Note_on_c, 1, 75, 95
5, 20370, Note_on_c, 1, 75, 0
5, 20370, Note_on_c, 1, 73, 95
5, 20400, Note_on_c, 1, 73, 0
5, 20400, Note_on_c, 1, 71, 95
5, 20430, Note_on_c, 1, 71, 0
5, 20430, Note_on_c, 1, 75, 95
5, 20460, Note_on_c, 1, 75, 0
5, 20460, Note_on_c, 1, 71, 95
5, 20490, Note_on_c, 1, 71, 0
5, 20490, Note_on_c, 1, 69, 95
5, 20520, Note_on_c, 1, 69, 0
5, 20520, Note_on_c, 1, 68, 95
5, 20550, Note_on_c, 1, 68, 0
5, 20550, Note_on_c, 1, 74, 95
5, 20580, Note_on_c, 1, 74, 0
5, 20580, Note_on_c, 1, 76, 95
5, 20610, Note_on_c, 1, 76, 0
5, 20610, Note_on_c, 1, 74, 95
5, 20640, Note_on_c, 1, 74, 0
5, 20640, Note_on_c, 1, 80, 95
5, 20670, Note_on_c, 1, 80, 0
5, 20670, Note_on_c, 1, 74, 95
5, 20700, Note_on_c, 1, 74, 0
5, 20700, Note_on_c, 1, 83, 95
5, 20730, Note_on_c, 1, 83, 0
5, 20730, Note_on_c, 1, 74, 95
5, 20760, Note_on_c, 1, 74, 0
5, 20760, Note_on_c, 1, 80, 95
5, 20790, Note_on_c, 1, 80, 0
5, 20790, Note_on_c, 1, 74, 95
5, 20820, Note_on_c, 1, 74, 0
5, 20820, Note_on_c, 1, 76, 95
5, 20850, Note_on_c, 1, 76, 0
5, 20850, Note_on_c, 1, 74, 95
5, 20880, Note_on_c, 1, 74, 0
5, 20880, Note_on_c, 1, 68, 85
5, 20910, Note_on_c, 1, 68, 0
5, 20910, Note_on_c, 1, 74, 85
5, 20940, Note_on_c, 1, 74, 0
5, 20940, Note_on_c, 1, 76, 85
5, 20970, Note_on_c, 1, 76, 0
5, 20970, Note_on_c, 1, 74, 85
5, 21000, Note_on_c, 1, 74, 0
5, 21000, Note_on_c, 1, 68, 85
5, 21030, Note_on_c, 1, 68, 0
5, 21030, Note_on_c, 1, 74, 85
5, 21060, Note_on_c, 1, 74, 0
5, 21060, Note_on_c, 1, 66, 85
5, 21090, Note_on_c, 1, 66, 0
5, 21090, Note_on_c, 1, 74, 85
5, 21120, Note_on_c, 1, 74, 0
5, 21120, Note_on_c, 1, 68, 85
5, 21150, Note_on_c, 1, 68, 0
5, 21150, Note_on_c, 1, 74, 85
5, 21180, Note_on_c, 1, 74, 0
5, 21180, Note_on_c, 1, 64, 85
5, 21210, Note_on_c, 1, 64, 0
5, 21210, Note_on_c, 1, 74, 85
5, 21240, Note_on_c, 1, 74, 0
5, 21240, Note_on_c, 1, 73, 95
5, 21270, Note_on_c, 1, 73, 0
5, 21270, Note_on_c, 1, 76, 95
5, 21300, Note_on_c, 1, 76, 0
5, 21300, Note_on_c, 1, 81, 95
5, 21330, Note_on_c, 1, 81, 0
5, 21330, Note_on_c, 1, 80, 95
5, 21360, Note_on_c, 1, 80, 0
5, 21360, Note_on_c, 1, 81, 95
5, 21390, Note_on_c, 1, 81, 0
5, 21390, Note_on_c, 1, 76, 95
5, 21420, Note_on_c, 1, 76, 0
5, 21420, Note_on_c, 1, 74, 95
5, 21450, Note_on_c, 1, 74, 0
5, 21450, Note_on_c, 1, 76, 95
5, 21480, Note_on_c, 1, 76, 0
5, 21480, Note_on_c, 1, 73, 95
5, 21510, Note_on_c, 1, 73, 0
5, 21510, Note_on_c, 1, 76, 95
5, 21540, Note_on_c, 1, 76, 0
5, 21540, Note_on_c, 1, 71, 95
5, 21570, Note_on_c, 1, 71, 0
5, 21570, Note_on_c, 1, 76, 95
5, 21600, Note_on_c, 1, 76, 0
5, 21600, Note_on_c, 1, 69, 95
5, 21630, Note_on_c, 1, 69, 0
5, 21630, Note_on_c, 1, 81, 95
5, 21660, Note_on_c, 1, 81, 0
5, 21660, Note_on_c, 1, 80, 95
5, 21690, Note_on_c, 1, 80, 0
5, 21690, Note_on_c, 1, 78, 95
5, 21720, Note_on_c, 1, 78, 0
5, 21720, Note_on_c, 1, 76, 95
5, 21750, Note_on_c, 1, 76, 0
5, 21750, Note_on_c, 1, 69, 95
5, 21780, Note_on_c, 1, 69, 0
5, 21780, Note_on_c, 1, 78, 95
5, 21810, Note_on_c, 1, 78, 0
5, 21810, Note_on_c, 1, 69, 95
5, 21840, Note_on_c, 1, 69, 0
5, 21840, Note_on_c, 1, 76, 95
5, 21870, Note_on_c, 1, 76, 0
5, 21870, Note_on_c, 1, 69, 95
5, 21900, Note_on_c, 1, 69, 0
5, 21900, Note_on_c, 1, 74, 95
5, 21930, Note_on_c, 1, 74, 0
5, 21930, Note_on_c, 1, 69, 95
5, 21960, Note_on_c, 1, 69, 0
5, 21960, Note_on_c, 1, 73, 85
5, 21990, Note_on_c, 1, 73, 0
5, 21990, Note_on_c, 1, 76, 85
5, 22020, Note_on_c, 1, 76, 0
5, 22020, Note_on_c, 1, 71, 85
5, 22050, Note_on_c, 1, 71, 0
5, 22050, Note_on_c, 1, 76, 85
5, 22080, Note_on_c, 1, 76, 0
5, 22080, Note_on_c, 1, 73, 85
5, 22110, Note_on_c, 1, 73, 0
5, 22110, Note_on_c, 1, 76, 85
5, 22140, Note_on_c, 1, 76, 0
5, 22140, Note_on_c, 1, 74, 85
5, 22170, Note_on_c, 1, 74, 0
5, 22170, Note_on_c, 1, 76, 85
5, 22200, Note_on_c, 1, 76, 0
5, 22200, Note_on_c, 1, 73, 85
5, 22230, Note_on_c, 1, 73, 0
5, 22230, Note_on_c, 1, 76, 85
5, 22260, Note_on_c, 1, 76, 0
5, 22260, Note_on_c, 1, 71, 85
5, 22290, Note_on_c, 1, 71, 0
5, 22290, Note_on_c, 1, 76, 85
5, 22320, Note_on_c, 1, 76, 0
5, 22320, Note_on_c, 1, 69, 85
5, 22350, Note_on_c, 1, 69, 0
5, 22350, Note_on_c, 1, 81, 95
5, 22380, Note_on_c, 1, 81, 0
5, 22380, Note_on_c, 1, 80, 95
5, 22410, Note_on_c, 1, 80, 0
5, 22410, Note_on_c, 1, 78, 95
5, 22440, Note_on_c, 1, 78, 0
5, 22440, Note_on_c, 1, 76, 95
5, 22470, Note_on_c, 1, 76, 0
5, 22470, Note_on_c, 1, 69, 95
5, 22500, Note_on_c, 1, 69, 0
5, 22500, Note_on_c, 1, 78, 95
5, 22530, Note_on_c, 1, 78, 0
5, 22530, Note_on_c, 1, 69, 95
5, 22560, Note_on_c, 1, 69, 0
5, 22560, Note_on_c, 1, 76, 95
5, 22590, Note_on_c, 1, 76, 0
5, 22590, Note_on_c, 1, 69, 95
5, 22620, Note_on_c, 1, 69, 0
5, 22620, Note_on_c, 1, 74, 95
5, 22650, Note_on_c, 1, 74, 0
5, 22650, Note_on_c, 1, 69, 95
5, 22680, Note_on_c, 1, 69, 0
5, 22680, Note_on_c, 1, 73, 85
5, 22710, Note_on_c, 1, 73, 0
5, 22710, Note_on_c, 1, 69, 85
5, 22740, Note_on_c, 1, 69, 0
5, 22740, Note_on_c, 1, 69, 85
5, 22770, Note_on_c, 1, 69, 0
5, 22770, Note_on_c, 1, 69, 85
5, 22800, Note_on_c, 1, 69, 0
5, 22800, Note_on_c, 1, 68, 85
5, 22830, Note_on_c, 1, 68, 0
5, 22830, Note_on_c, 1, 69, 85
5, 22860, Note_on_c, 1, 69, 0
5, 22860, Note_on_c, 1, 69, 85
5, 22890, Note_on_c, 1, 69, 0
5, 22890, Note_on_c, 1, 69, 85
5, 22920, Note_on_c, 1, 69, 0
5, 22920, Note_on_c, 1, 71, 85
5, 22950, Note_on_c, 1, 71, 0
5, 22950, Note_on_c, 1, 69, 85
5, 22980, Note_on_c, 1, 69, 0
5, 22980, Note_on_c, 1, 68, 85
5, 23010, Note_on_c, 1, 68, 0
5, 23010, Note_on_c, 1, 69, 85
5, 23040, Note_on_c, 1, 69, 0
5, 23040, Note_on_c, 1, 69, 85
5, 23070, Note_on_c, 1, 69, 0
5, 23070, Note_on_c, 1, 69, 85
5, 23100, Note_on_c, 1, 69, 0
5, 23100, Note_on_c, 1, 73, 95
5, 23130, Note_on_c, 1, 73, 0
5, 23130, Note_on_c, 1, 69, 95
5, 23160, Note_on_c, 1, 69, 0
5, 23160, Note_on_c, 1, 71, 95
5, 23190, Note_on_c, 1, 71, 0
5, 23190, Note_on_c, 1, 69, 95
5, 23220, Note_on_c, 1, 69, 0
5, 23220, Note_on_c, 1, 73, 95
5, 23250, Note_on_c, 1, 73, 0
5, 23250, Note_on_c, 1, 69, 95
5, 23280, Note_on_c, 1, 69, 0
5, 23280, Note_on_c, 1, 74, 95
5, 23310, Note_on_c, 1, 74, 0
5, 23310, Note_on_c, 1, 69, 95
5, 23340, Note_on_c, 1, 69, 0
5, 23340, Note_on_c, 1, 71, 95
5, 23370, Note_on_c, 1, 71, 0
5, 23370, Note_on_c, 1, 69, 95
5, 23400, Note_on_c, 1, 69, 0
5, 23400, Note_on_c, 1, 73, 85
5, 23430, Note_on_c, 1, 73, 0
5, 23430, Note_on_c, 1, 69, 85
5, 23460, Note_on_c, 1, 69, 0
5, 23460, Note_on_c, 1, 69, 85
5, 23490, Note_on_c, 1, 69, 0
5, 23490, Note_on_c, 1, 69, 85
5, 23520, Note_on_c, 1, 69, 0
5, 23520, Note_on_c, 1, 68, 85
5, 23550, Note_on_c, 1, 68, 0
5, 23550, Note_on_c, 1, 69, 85
5, 23580, Note_on_c, 1, 69, 0
5, 23580, Note_on_c, 1, 69, 85
5, 23610, Note_on_c, 1, 69, 0
5, 23610, Note_on_c, 1, 69, 85
5, 23640, Note_on_c, 1, 69, 0
5, 23640, Note_on_c, 1, 71, 85
5, 23670, Note_on_c, 1, 71, 0
5, 23670, Note_on_c, 1, 69, 85
5, 23700, Note_on_c, 1, 69, 0
5, 23700, Note_on_c, 1, 68, 85
5, 23730, Note_on_c, 1, 68, 0
5, 23730, Note_on_c, 1, 69, 85
5, 23760, Note_on_c, 1, 69, 0
5, 23760, Note_on_c, 1, 69, 85
5, 23790, Note_on_c, 1, 69, 0
5, 23790, Note_on_c, 1, 69, 85
5, 23820, Note_on_c, 1, 69, 0
5, 23820, Note_on_c, 1, 73, 95
5, 23850, Note_on_c, 1, 73, 0
5, 23850, Note_on_c, 1, 69, 95
5, 23880, Note_on_c, 1, 69, 0
5, 23880, Note_on_c, 1, 71, 95
5, 23910, Note_on_c, 1, 71, 0
5, 23910, Note_on_c, 1, 69, 95
5, 23940, Note_on_c, 1, 69, 0
5, 23940, Note_on_c, 1, 73, 95
5, 23970, Note_on_c, 1, 73, 0
5, 23970, Note_on_c, 1, 69, 95
5, 24000, Note_on_c, 1, 69, 0
5, 24000, Note_on_c, 1, 74, 95
5, 24030, Note_on_c, 1, 74, 0
5, 24030, Note_on_c, 1, 69, 95
5, 24060, Note_on_c, 1, 69, 0
5, 24060, Note_on_c, 1, 71, 95
5, 24090, Note_on_c, 1, 71, 0
5, 24090, Note_on_c, 1, 69, 95
5, 24120, Note_on_c, 1, 69, 0
5, 24120, Note_on_c, 1, 73, 90
5, 24150, Note_on_c, 1, 73, 0
5, 24150, Note_on_c, 1, 69, 90
5, 24180, Note_on_c, 1, 69, 0
5, 24180, Note_on_c, 1, 73, 90
5, 24210, Note_on_c, 1, 73, 0
5, 24210, Note_on_c, 1, 69, 90
5, 24240, Note_on_c, 1, 69, 0
5, 24240, Note_on_c, 1, 73, 90
5, 24270, Note_on_c, 1, 73, 0
5, 24270, Note_on_c, 1, 69, 90
5, 24300, Note_on_c, 1, 69, 0
5, 24300, Note_on_c, 1, 73, 90
5, 24330, Note_on_c, 1, 73, 0
5, 24330, Note_on_c, 1, 69, 90
5, 24360, Note_on_c, 1, 69, 0
5, 24360, Note_on_c, 1, 73, 90
5, 24390, Note_on_c, 1, 73, 0
5, 24390, Note_on_c, 1, 69, 90
5, 24420, Note_on_c, 1, 69, 0
5, 24420, Note_on_c, 1, 73, 90
5, 24450, Note_on_c, 1, 73, 0
5, 24450, Note_on_c, 1, 69, 90
5, 24480, Note_on_c, 1, 69, 0
5, 24480, Note_on_c, 1, 73, 90
5, 24510, Note_on_c, 1, 73, 0
5, 24510, Note_on_c, 1, 69, 90
5, 24540, Note_on_c, 1, 69, 0
5, 24540, Note_on_c, 1, 73, 90
5, 24570, Note_on_c, 1, 73, 0
5, 24570, Note_on_c, 1, 68, 90
5, 24600, Note_on_c, 1, 68, 0
5, 24600, Note_on_c, 1, 73, 90
5, 24630, Note_on_c, 1, 73, 0
5, 24630, Note_on_c, 1, 69, 90
5, 24660, Note_on_c, 1, 69, 0
5, 24660, Note_on_c, 1, 73, 90
5, 24690, Note_on_c, 1, 73, 0
5, 24690, Note_on_c, 1, 68, 90
5, 24720, Note_on_c, 1, 68, 0
5, 24720, Note_on_c, 1, 73, 90
5, 24750, Note_on_c, 1, 73, 0
5, 24750, Note_on_c, 1, 69, 90
5, 24780, Note_on_c, 1, 69, 0
5, 24780, Note_on_c, 1, 73, 90
5, 24810, Note_on_c, 1, 73, 0
5, 24810, Note_on_c, 1, 68, 90
5, 24840, Note_on_c, 1, 68, 0
5, 24840, Note_on_c, 1, 73, 95
5, 24870, Note_on_c, 1, 73, 0
5, 24870, Note_on_c, 1, 69, 95
5, 24900, Note_on_c, 1, 69, 0
5, 24900, Note_on_c, 1, 73, 95
5, 24930, Note_on_c, 1, 73, 0
5, 24930, Note_on_c, 1, 67, 95
5, 24960, Note_on_c, 1, 67, 0
5, 24960, Note_on_c, 1, 73, 95
5, 24990, Note_on_c, 1, 73, 0
5, 24990, Note_on_c, 1, 69, 95
5, 25020, Note_on_c, 1, 69, 0
5, 25020, Note_on_c, 1, 73, 95
5, 25050, Note_on_c, 1, 73, 0
5, 25050, Note_on_c, 1, 67, 95
5, 25080, Note_on_c, 1, 67, 0
5, 25080, Note_on_c, 1, 73, 95
5, 25110, Note_on_c, 1, 73, 0
5, 25110, Note_on_c, 1, 69, 95
5, 25140, Note_on_c, 1, 69, 0
5, 25140, Note_on_c, 1, 73, 95
5, 25170, Note_on_c, 1, 73, 0
5, 25170, Note_on_c, 1, 67, 95
5, 25200, Note_on_c, 1, 67, 0
5, 25200, Note_on_c, 1, 74, 100
5, 25230, Note_on_c, 1, 74, 0
5, 25230, Note_on_c, 1, 69, 100
5, 25260, Note_on_c, 1, 69, 0
5, 25260, Note_on_c, 1, 74, 100
5, 25290, Note_on_c, 1, 74, 0
5, 25290, Note_on_c, 1, 66, 100
5, 25320, Note_on_c, 1, 66, 0
5, 25320, Note_on_c, 1, 74, 100
5, 25350, Note_on_c, 1, 74, 0
5, 25350, Note_on_c, 1, 69, 100
5, 25380, Note_on_c, 1, 69, 0
5, 25380, Note_on_c, 1, 74, 100
5, 25410, Note_on_c, 1, 74, 0
5, 25410, Note_on_c, 1, 66, 100
5, 25440, Note_on_c, 1, 66, 0
5, 25440, Note_on_c, 1, 74, 100
5, 25470, Note_on_c, 1, 74, 0
5, 25470, Note_on_c, 1, 69, 100
5, 25500, Note_on_c, 1, 69, 0
5, 25500, Note_on_c, 1, 74, 100
5, 25530, Note_on_c, 1, 74, 0
5, 25530, Note_on_c, 1, 66, 100
5, 25560, Note_on_c, 1, 66, 0
5, 25560, Note_on_c, 1, 74, 100
5, 25590, Note_on_c, 1, 74, 0
5, 25590, Note_on_c, 1, 69, 100
5, 25620, Note_on_c, 1, 69, 0
5, 25620, Note_on_c, 1, 74, 100
5, 25650, Note_on_c, 1, 74, 0
5, 25650, Note_on_c, 1, 64, 100
5, 25680, Note_on_c, 1, 64, 0
5, 25680, Note_on_c, 1, 74, 100
5, 25710, Note_on_c, 1, 74, 0
5, 25710, Note_on_c, 1, 69, 100
5, 25740, Note_on_c, 1, 69, 0
5, 25740, Note_on_c, 1, 74, 100
5, 25770, Note_on_c, 1, 74, 0
5, 25770, Note_on_c, 1, 64, 100
5, 25800, Note_on_c, 1, 64, 0
5, 25800, Note_on_c, 1, 74, 100
5, 25830, Note_on_c, 1, 74, 0
5, 25830, Note_on_c, 1, 69, 100
5, 25860, Note_on_c, 1, 69, 0
5, 25860, Note_on_c, 1, 74, 100
5, 25890, Note_on_c, 1, 74, 0
5, 25890, Note_on_c, 1, 64, 100
5, 25920, Note_on_c, 1, 64, 0
5, 25920, Note_on_c, 1, 73, 100
5, 25950, Note_on_c, 1, 73, 0
5, 25950, Note_on_c, 1, 69, 100
5, 25980, Note_on_c, 1, 69, 0
5, 25980, Note_on_c, 1, 73, 100
5, 26010, Note_on_c, 1, 73, 0
5, 26010, Note_on_c, 1, 64, 100
5, 26040, Note_on_c, 1, 64, 0
5, 26040, Note_on_c, 1, 73, 100
5, 26070, Note_on_c, 1, 73, 0
5, 26070, Note_on_c, 1, 69, 100
5, 26100, Note_on_c, 1, 69, 0
5, 26100, Note_on_c, 1, 73, 100
5, 26130, Note_on_c, 1, 73, 0
5, 26130, Note_on_c, 1, 64, 100
5, 26160, Note_on_c, 1, 64, 0
5, 26160, Note_on_c, 1, 73, 100
5, 26190, Note_on_c, 1, 73, 0
5, 26190, Note_on_c, 1, 69, 100
5, 26220, Note_on_c, 1, 69, 0
5, 26220, Note_on_c, 1, 73, 100
5, 26250, Note_on_c, 1, 73, 0
5, 26250, Note_on_c, 1, 64, 100
5, 26280, Note_on_c, 1, 64, 0
5, 26280, Note_on_c, 1, 73, 95
5, 26310, Note_on_c, 1, 73, 0
5, 26310, Note_on_c, 1, 69, 95
5, 26340, Note_on_c, 1, 69, 0
5, 26340, Note_on_c, 1, 73, 95
5, 26370, Note_on_c, 1, 73, 0
5, 26370, Note_on_c, 1, 62, 95
5, 26400, Note_on_c, 1, 62, 0
5, 26400, Note_on_c, 1, 73, 95
5, 26430, Note_on_c, 1, 73, 0
5, 26430, Note_on_c, 1, 69, 95
5, 26460, Note_on_c, 1, 69, 0
5, 26460, Note_on_c, 1, 73, 95
5, 26490, Note_on_c, 1, 73, 0
5, 26490, Note_on_c, 1, 62, 95
5, 26520, Note_on_c, 1, 62, 0
5, 26520, Note_on_c, 1, 73, 95
5, 26550, Note_on_c, 1, 73, 0
5, 26550, Note_on_c, 1, 69, 95
5, 26580, Note_on_c, 1, 69, 0
5, 26580, Note_on_c, 1, 73, 95
5, 26610, Note_on_c, 1, 73, 0
5, 26610, Note_on_c, 1, 62, 95
5, 26640, Note_on_c, 1, 62, 0
5, 26640, Note_on_c, 1, 71, 95
5, 26670, Note_on_c, 1, 71, 0
5, 26670, Note_on_c, 1, 69, 95
5, 26700, Note_on_c, 1, 69, 0
5, 26700, Note_on_c, 1, 71, 95
5, 26730, Note_on_c, 1, 71, 0
5, 26730, Note_on_c, 1, 62, 95
5, 26760, Note_on_c, 1, 62, 0
5, 26760, Note_on_c, 1, 71, 95
5, 26790, Note_on_c, 1, 71, 0
5, 26790, Note_on_c, 1, 69, 95
5, 26820, Note_on_c, 1, 69, 0
5, 26820, Note_on_c, 1, 71, 95
5, 26850, Note_on_c, 1, 71, 0
5, 26850, Note_on_c, 1, 62, 95
5, 26880, Note_on_c, 1, 62, 0
5, 26880, Note_on_c, 1, 71, 95
5, 26910, Note_on_c, 1, 71, 0
5, 26910, Note_on_c, 1, 69, 95
5, 26940, Note_on_c, 1, 69, 0
5, 26940, Note_on_c, 1, 71, 95
5, 26970, Note_on_c, 1, 71, 0
5, 26970, Note_on_c, 1, 62, 95
5, 27000, Note_on_c, 1, 62, 0
5, 27000, Note_on_c, 1, 71, 90
5, 27030, Note_on_c, 1, 71, 0
5, 27030, Note_on_c, 1, 69, 90
5, 27060, Note_on_c, 1, 69, 0
5, 27060, Note_on_c, 1, 71, 90
5, 27090, Note_on_c, 1, 71, 0
5, 27090, Note_on_c, 1, 61, 90
5, 27120, Note_on_c, 1, 61, 0
5, 27120, Note_on_c, 1, 71, 90
5, 27150, Note_on_c, 1, 71, 0
5, 27150, Note_on_c, 1, 69, 90
5, 27180, Note_on_c, 1, 69, 0
5, 27180, Note_on_c, 1, 71, 90
5, 27210, Note_on_c, 1, 71, 0
5, 27210, Note_on_c, 1, 61, 90
5, 27240, Note_on_c, 1, 61, 0
5, 27240, Note_on_c, 1, 71, 90
5, 27270, Note_on_c, 1, 71, 0
5, 27270, Note_on_c, 1, 69, 90
5, 27300, Note_on_c, 1, 69, 0
5, 27300, Note_on_c, 1, 71, 90
5, 27330, Note_on_c, 1, 71, 0
5, 27330, Note_on_c, 1, 61, 90
5, 27360, Note_on_c, 1, 61, 0
5, 27360, Note_on_c, 1, 69, 90
5, 27390, Note_on_c, 1, 69, 0
5, 27390, Note_on_c, 1, 69, 90
5, 27420, Note_on_c, 1, 69, 0
5, 27420, Note_on_c, 1, 69, 90
5, 27450, Note_on_c, 1, 69, 0
5, 27450, Note_on_c, 1, 61, 90
5, 27480, Note_on_c, 1, 61, 0
5, 27480, Note_on_c, 1, 69, 90
5, 27510, Note_on_c, 1, 69, 0
5, 27510, Note_on_c, 1, 69, 90
5, 27540, Note_on_c, 1, 69, 0
5, 27540, Note_on_c, 1, 69, 90
5, 27570, Note_on_c, 1, 69, 0
5, 27570, Note_on_c, 1, 61, 90
5, 27600, Note_on_c, 1, 61, 0
5, 27600, Note_on_c, 1, 69, 90
5, 27630, Note_on_c, 1, 69, 0
5, 27630, Note_on_c, 1, 69, 90
5, 27660, Note_on_c, 1, 69, 0
5, 27660, Note_on_c, 1, 69, 90
5, 27690, Note_on_c, 1, 69, 0
5, 27690, Note_on_c, 1, 61, 90
5, 27720, Note_on_c, 1, 61, 0
5, 27720, Note_on_c, 1, 69, 85
5, 27750, Note_on_c, 1, 69, 0
5, 27750, Note_on_c, 1, 69, 85
5, 27780, Note_on_c, 1, 69, 0
5, 27780, Note_on_c, 1, 69, 85
5, 27810, Note_on_c, 1, 69, 0
5, 27810, Note_on_c, 1, 59, 85
5, 27840, Note_on_c, 1, 59, 0
5, 27840, Note_on_c, 1, 69, 85
5, 27870, Note_on_c, 1, 69, 0
5, 27870, Note_on_c, 1, 69, 85
5, 27900, Note_on_c, 1, 69, 0
5, 27900, Note_on_c, 1, 69, 85
5, 27930, Note_on_c, 1, 69, 0
5, 27930, Note_on_c, 1, 59, 85
5, 27960, Note_on_c, 1, 59, 0
5, 27960, Note_on_c, 1, 69, 85
5, 27990, Note_on_c, 1, 69, 0
5, 27990, Note_on_c, 1, 69, 85
5, 28020, Note_on_c, 1, 69, 0
5, 28020, Note_on_c, 1, 69, 85
5, 28050, Note_on_c, 1, 69, 0
5, 28050, Note_on_c, 1, 59, 85
5, 28080, Note_on_c, 1, 59, 0
5, 28080, Note_on_c, 1, 68, 85
5, 28110, Note_on_c, 1, 68, 0
5, 28110, Note_on_c, 1, 69, 85
5, 28140, Note_on_c, 1, 69, 0
5, 28140, Note_on_c, 1, 68, 85
5, 28170, Note_on_c, 1, 68, 0
5, 28170, Note_on_c, 1, 59, 85
5, 28200, Note_on_c, 1, 59, 0
5, 28200, Note_on_c, 1, 68, 85
5, 28230, Note_on_c, 1, 68, 0
5, 28230, Note_on_c, 1, 69, 85
5, 28260, Note_on_c, 1, 69, 0
5, 28260, Note_on_c, 1, 68, 85
5, 28290, Note_on_c, 1, 68, 0
5, 28290, Note_on_c, 1, 59, 85
5, 28320, Note_on_c, 1, 59, 0
5, 28320, Note_on_c, 1, 68, 85
5, 28350, Note_on_c, 1, 68, 0
5, 28350, Note_on_c, 1, 69, 85
5, 28380, Note_on_c, 1, 69, 0
5, 28380, Note_on_c, 1, 68, 85
5, 28410, Note_on_c, 1, 68, 0
5, 28410, Note_on_c, 1, 59, 85
5, 28440, Note_on_c, 1, 59, 0
5, 28440, Note_on_c, 1, 57, 80
5, 28470, Note_on_c, 1, 57, 0
5, 28470, Note_on_c, 1, 59, 80
5, 28500, Note_on_c, 1, 59, 0
5, 28500, Note_on_c, 1, 57, 80
5, 28530, Note_on_c, 1, 57, 0
5, 28530, Note_on_c, 1, 59, 80
5, 28560, Note_on_c, 1, 59, 0
5, 28560, Note_on_c, 1, 61, 80
5, 28590, Note_on_c, 1, 61, 0
5, 28590, Note_on_c, 1, 64, 80
5, 28620, Note_on_c, 1, 64, 0
5, 28620, Note_on_c, 1, 57, 80
5, 28650, Note_on_c, 1, 57, 0
5, 28650, Note_on_c, 1, 59, 80
5, 28680, Note_on_c, 1, 59, 0
5, 28680, Note_on_c, 1, 61, 80
5, 28710, Note_on_c, 1, 61, 0
5, 28710, Note_on_c, 1, 64, 80
5, 28740, Note_on_c, 1, 64, 0
5, 28740, Note_on_c, 1, 57, 80
5, 28770, Note_on_c, 1, 57, 0
5, 28770, Note_on_c, 1, 59, 80
5, 28800, Note_on_c, 1, 59, 0
5, 28800, Note_on_c, 1, 61, 80
5, 28830, Note_on_c, 1, 61, 0
5, 28830, Note_on_c, 1, 62, 80
5, 28860, Note_on_c, 1, 62, 0
5, 28860, Note_on_c, 1, 61, 80
5, 28890, Note_on_c, 1, 61, 0
5, 28890, Note_on_c, 1, 62, 80
5, 28920, Note_on_c, 1, 62, 0
5, 28920, Note_on_c, 1, 64, 85
5, 28950, Note_on_c, 1, 64, 0
5, 28950, Note_on_c, 1, 69, 85
5, 28980, Note_on_c, 1, 69, 0
5, 28980, Note_on_c, 1, 61, 85
5, 29010, Note_on_c, 1, 61, 0
5, 29010, Note_on_c, 1, 62, 85
5, 29040, Note_on_c, 1, 62, 0
5, 29040, Note_on_c, 1, 64, 85
5, 29070, Note_on_c, 1, 64, 0
5, 29070, Note_on_c, 1, 69, 85
5, 29100, Note_on_c, 1, 69, 0
5, 29100, Note_on_c, 1, 61, 85
5, 29130, Note_on_c, 1, 61, 0
5, 29130, Note_on_c, 1, 62, 85
5, 29160, Note_on_c, 1, 62, 0
5, 29160, Note_on_c, 1, 64, 85
5, 29190, Note_on_c, 1, 64, 0
5, 29190, Note_on_c, 1, 66, 85
5, 29220, Note_on_c, 1, 66, 0
5, 29220, Note_on_c, 1, 64, 85
5, 29250, Note_on_c, 1, 64, 0
5, 29250, Note_on_c, 1, 66, 85
5, 29280, Note_on_c, 1, 66, 0
5, 29280, Note_on_c, 1, 67, 90
5, 29310, Note_on_c, 1, 67, 0
5, 29310, Note_on_c, 1, 73, 90
5, 29340, Note_on_c, 1, 73, 0
5, 29340, Note_on_c, 1, 64, 90
5, 29370, Note_on_c, 1, 64, 0
5, 29370, Note_on_c, 1, 66, 90
5, 29400, Note_on_c, 1, 66, 0
5, 29400, Note_on_c, 1, 67, 90
5, 29430, Note_on_c, 1, 67, 0
5, 29430, Note_on_c, 1, 73, 90
5, 29460, Note_on_c, 1, 73, 0
5, 29460, Note_on_c, 1, 64, 90
5, 29490, Note_on_c, 1, 64, 0
5, 29490, Note_on_c, 1, 66, 90
5, 29520, Note_on_c, 1, 66, 0
5, 29520, Note_on_c, 1, 67, 95
5, 29550, Note_on_c, 1, 67, 0
5, 29550, Note_on_c, 1, 76, 95
5, 29580, Note_on_c, 1, 76, 0
5, 29580, Note_on_c, 1, 73, 95
5, 29610, Note_on_c, 1, 73, 0
5, 29610, Note_on_c, 1, 74, 95
5, 29640, Note_on_c, 1, 74, 0
5, 29640, Note_on_c, 1, 76, 95
5, 29670, Note_on_c, 1, 76, 0
5, 29670, Note_on_c, 1, 73, 95
5, 29700, Note_on_c, 1, 73, 0
5, 29700, Note_on_c, 1, 70, 95
5, 29730, Note_on_c, 1, 70, 0
5, 29730, Note_on_c, 1, 71, 95
5, 29760, Note_on_c, 1, 71, 0
5, 29760, Note_on_c, 1, 73, 95
5, 29790, Note_on_c, 1, 73, 0
5, 29790, Note_on_c, 1, 70, 95
5, 29820, Note_on_c, 1, 70, 0
5, 29820, Note_on_c, 1, 66, 95
5, 29850, Note_on_c, 1, 66, 0
5, 29850, Note_on_c, 1, 64, 95
5, 29880, Note_on_c, 1, 64, 0
5, 29880, Note_on_c, 1, 62, 80
5, 29910, Note_on_c, 1, 62, 0
5, 29910, Note_on_c, 1, 61, 80
5, 29940, Note_on_c, 1, 61, 0
5, 29940, Note_on_c, 1, 59, 80
5, 29970, Note_on_c, 1, 59, 0
5, 29970, Note_on_c, 1, 61, 80
5, 30000, Note_on_c, 1, 61, 0
5, 30000, Note_on_c, 1, 62, 80
5, 30030, Note_on_c, 1, 62, 0
5, 30030, Note_on_c, 1, 66, 80
5, 30060, Note_on_c, 1, 66, 0
5, 30060, Note_on_c, 1, 59, 80
5, 30090, Note_on_c, 1, 59, 0
5, 30090, Note_on_c, 1, 61, 80
5, 30120, Note_on_c, 1, 61, 0
5, 30120, Note_on_c, 1, 62, 80
5, 30150, Note_on_c, 1, 62, 0
5, 30150, Note_on_c, 1, 66, 80
5, 30180, Note_on_c, 1, 66, 0
5, 30180, Note_on_c, 1, 59, 80
5, 30210, Note_on_c, 1, 59, 0
5, 30210, Note_on_c, 1, 61, 80
5, 30240, Note_on_c, 1, 61, 0
5, 30240, Note_on_c, 1, 62, 80
5, 30270, Note_on_c, 1, 62, 0
5, 30270, Note_on_c, 1, 64, 80
5, 30300, Note_on_c, 1, 64, 0
5, 30300, Note_on_c, 1, 62, 80
5, 30330, Note_on_c, 1, 62, 0
5, 30330, Note_on_c, 1, 64, 80
5, 30360, Note_on_c, 1, 64, 0
5, 30360, Note_on_c, 1, 66, 85
5, 30390, Note_on_c, 1, 66, 0
5, 30390, Note_on_c, 1, 71, 85
5, 30420, Note_on_c, 1, 71, 0
5, 30420, Note_on_c, 1, 62, 85
5, 30450, Note_on_c, 1, 62, 0
5, 30450, Note_on_c, 1, 64, 85
5, 30480, Note_on_c, 1, 64, 0
5, 30480, Note_on_c, 1, 66, 85
5, 30510, Note_on_c, 1, 66, 0
5, 30510, Note_on_c, 1, 71, 85
5, 30540, Note_on_c, 1, 71, 0
5, 30540, Note_on_c, 1, 62, 85
5, 30570, Note_on_c, 1, 62, 0
5, 30570, Note_on_c, 1, 64, 85
5, 30600, Note_on_c, 1, 64, 0
5, 30600, Note_on_c, 1, 66, 85
5, 30630, Note_on_c, 1, 66, 0
5, 30630, Note_on_c, 1, 68, 85
5, 30660, Note_on_c, 1, 68, 0
5, 30660, Note_on_c, 1, 66, 85
5, 30690, Note_on_c, 1, 66, 0
5, 30690, Note_on_c, 1, 68, 85
5, 30720, Note_on_c, 1, 68, 0
5, 30720, Note_on_c, 1, 69, 85
5, 30750, Note_on_c, 1, 69, 0
5, 30750, Note_on_c, 1, 75, 85
5, 30780, Note_on_c, 1, 75, 0
5, 30780, Note_on_c, 1, 66, 85
5, 30810, Note_on_c, 1, 66, 0
5, 30810, Note_on_c, 1, 68, 85
5, 30840, Note_on_c, 1, 68, 0
5, 30840, Note_on_c, 1, 69, 85
5, 30870, Note_on_c, 1, 69, 0
5, 30870, Note_on_c, 1, 75, 85
5, 30900, Note_on_c, 1, 75, 0
5, 30900, Note_on_c, 1, 66, 85
5, 30930, Note_on_c, 1, 66, 0
5, 30930, Note_on_c, 1, 68, 85
5, 30960, Note_on_c, 1, 68, 0
5, 30960, Note_on_c, 1, 69, 85
5, 30990, Note_on_c, 1, 69, 0
5, 30990, Note_on_c, 1, 78, 85
5, 31020, Note_on_c, 1, 78, 0
5, 31020, Note_on_c, 1, 75, 85
5, 31050, Note_on_c, 1, 75, 0
5, 31050, Note_on_c, 1, 76, 85
5, 31080, Note_on_c, 1, 76, 0
5, 31080, Note_on_c, 1, 78, 85
5, 31110, Note_on_c, 1, 78, 0
5, 31110, Note_on_c, 1, 75, 85
5, 31140, Note_on_c, 1, 75, 0
5, 31140, Note_on_c, 1, 72, 85
5, 31170, Note_on_c, 1, 72, 0
5, 31170, Note_on_c, 1, 73, 85
5, 31200, Note_on_c, 1, 73, 0
5, 31200, Note_on_c, 1, 75, 85
5, 31230, Note_on_c, 1, 75, 0
5, 31230, Note_on_c, 1, 72, 85
5, 31260, Note_on_c, 1, 72, 0
5, 31260, Note_on_c, 1, 68, 85
5, 31290, Note_on_c, 1, 68, 0
5, 31290, Note_on_c, 1, 66, 85
5, 31320, Note_on_c, 1, 66, 0
5, 31320, Note_on_c, 1, 65, 85
5, 31350, Note_on_c, 1, 65, 0
5, 31350, Note_on_c, 1, 83, 90
5, 31380, Note_on_c, 1, 83, 0
5, 31380, Note_on_c, 1, 80, 90
5, 31410, Note_on_c, 1, 80, 0
5, 31410, Note_on_c, 1, 81, 90
5, 31440, Note_on_c, 1, 81, 0
5, 31440, Note_on_c, 1, 83, 90
5, 31470, Note_on_c, 1, 83, 0
5, 31470, Note_on_c, 1, 80, 90
5, 31500, Note_on_c, 1, 80, 0
5, 31500, Note_on_c, 1, 77, 90
5, 31530, Note_on_c, 1, 77, 0
5, 31530, Note_on_c, 1, 78, 90
5, 31560, Note_on_c, 1, 78, 0
5, 31560, Note_on_c, 1, 80, 90
5, 31590, Note_on_c, 1, 80, 0
5, 31590, Note_on_c, 1, 77, 90
5, 31620, Note_on_c, 1, 77, 0
5, 31620, Note_on_c, 1, 73, 90
5, 31650, Note_on_c, 1, 73, 0
5, 31650, Note_on_c, 1, 71, 90
5, 31680, Note_on_c, 1, 71, 0
5, 31680, Note_on_c, 1, 69, 90
5, 31710, Note_on_c, 1, 69, 0
5, 31710, Note_on_c, 1, 85, 95
5, 31740, Note_on_c, 1, 85, 0
5, 31740, Note_on_c, 1, 81, 95
5, 31770, Note_on_c, 1, 81, 0
5, 31770, Note_on_c, 1, 83, 95
5, 31800, Note_on_c, 1, 83, 0
5, 31800, Note_on_c, 1, 85, 95
5, 31830, Note_on_c, 1, 85, 0
5, 31830, Note_on_c, 1, 81, 95
5, 31860, Note_on_c, 1, 81, 0
5, 31860, Note_on_c, 1, 78, 95
5, 31890, Note_on_c, 1, 78, 0
5, 31890, Note_on_c, 1, 80, 95
5, 31920, Note_on_c, 1, 80, 0
5, 31920, Note_on_c, 1, 81, 95
5, 31950, Note_on_c, 1, 81, 0
5, 31950, Note_on_c, 1, 78, 95
5, 31980, Note_on_c, 1, 78, 0
5, 31980, Note_on_c, 1, 74, 95
5, 32010, Note_on_c, 1, 74, 0
5, 32010, Note_on_c, 1, 73, 95
5, 32040, Note_on_c, 1, 73, 0
5, 32040, Note_on_c, 1, 71, 95
5, 32070, Note_on_c, 1, 71, 0
5, 32070, Note_on_c, 1, 86, 100
5, 32100, Note_on_c, 1, 86, 0
5, 32100, Note_on_c, 1, 83, 100
5, 32130, Note_on_c, 1, 83, 0
5, 32130, Note_on_c, 1, 85, 100
5, 32160, Note_on_c, 1, 85, 0
5, 32160, Note_on_c, 1, 86, 100
5, 32190, Note_on_c, 1, 86, 0
5, 32190, Note_on_c, 1, 83, 100
5, 32220, Note_on_c, 1, 83, 0
5, 32220, Note_on_c, 1, 80, 100
5, 32250, Note_on_c, 1, 80, 0
5, 32250, Note_on_c, 1, 81, 100
5, 32280, Note_on_c, 1, 81, 0
5, 32280, Note_on_c, 1, 83, 100
5, 32310, Note_on_c, 1, 83, 0
5, 32310, Note_on_c, 1, 80, 100
5, 32340, Note_on_c, 1, 80, 0
5, 32340, Note_on_c, 1, 77, 100
5, 32370, Note_on_c, 1, 77, 0
5, 32370, Note_on_c, 1, 80, 100
5, 32400, Note_on_c, 1, 80, 0
5, 32400, Note_on_c, 1, 73, 95
5, 32430, Note_on_c, 1, 73, 0
5, 32430, Note_on_c, 1, 75, 95
5, 32460, Note_on_c, 1, 75, 0
5, 32460, Note_on_c, 1, 73, 95
5, 32490, Note_on_c, 1, 73, 0
5, 32490, Note_on_c, 1, 75, 95
5, 32520, Note_on_c, 1, 75, 0
5, 32520, Note_on_c, 1, 77, 95
5, 32550, Note_on_c, 1, 77, 0
5, 32550, Note_on_c, 1, 80, 95
5, 32580, Note_on_c, 1, 80, 0
5, 32580, Note_on_c, 1, 73, 95
5, 32610, Note_on_c, 1, 73, 0
5, 32610, Note_on_c, 1, 75, 95
5, 32640, Note_on_c, 1, 75, 0
5, 32640, Note_on_c, 1, 77, 95
5, 32670, Note_on_c, 1, 77, 0
5, 32670, Note_on_c, 1, 80, 95
5, 32700, Note_on_c, 1, 80, 0
5, 32700, Note_on_c, 1, 73, 95
5, 32730, Note_on_c, 1, 73, 0
5, 32730, Note_on_c, 1, 75, 95
5, 32760, Note_on_c, 1, 75, 0
5, 32760, Note_on_c, 1, 77, 95
5, 32790, Note_on_c, 1, 77, 0
5, 32790, Note_on_c, 1, 78, 95
5, 32820, Note_on_c, 1, 78, 0
5, 32820, Note_on_c, 1, 77, 95
5, 32850, Note_on_c, 1, 77, 0
5, 32850, Note_on_c, 1, 78, 95
5, 32880, Note_on_c, 1, 78, 0
5, 32880, Note_on_c, 1, 80, 95
5, 32910, Note_on_c, 1, 80, 0
5, 32910, Note_on_c, 1, 83, 95
5, 32940, Note_on_c, 1, 83, 0
5, 32940, Note_on_c, 1, 77, 95
5, 32970, Note_on_c, 1, 77, 0
5, 32970, Note_on_c, 1, 78, 95
5, 33000, Note_on_c, 1, 78, 0
5, 33000, Note_on_c, 1, 80, 95
5, 33030, Note_on_c, 1, 80, 0
5, 33030, Note_on_c, 1, 83, 95
5, 33060, Note_on_c, 1, 83, 0
5, 33060, Note_on_c, 1, 77, 95
5, 33090, Note_on_c, 1, 77, 0
5, 33090, Note_on_c, 1, 78, 95
5, 33120, Note_on_c, 1, 78, 0
5, 33120, Note_on_c, 1, 80, 95
5, 33150, Note_on_c, 1, 80, 0
5, 33150, Note_on_c, 1, 81, 95
5, 33180, Note_on_c, 1, 81, 0
5, 33180, Note_on_c, 1, 80, 95
5, 33210, Note_on_c, 1, 80, 0
5, 33210, Note_on_c, 1, 81, 95
5, 33240, Note_on_c, 1, 81, 0
5, 33240, Note_on_c, 1, 83, 95
5, 33270, Note_on_c, 1, 83, 0
5, 33270, Note_on_c, 1, 86, 95
5, 33300, Note_on_c, 1, 86, 0
5, 33300, Note_on_c, 1, 80, 95
5, 33330, Note_on_c, 1, 80, 0
5, 33330, Note_on_c, 1, 81, 95
5, 33360, Note_on_c, 1, 81, 0
5, 33360, Note_on_c, 1, 83, 95
5, 33390, Note_on_c, 1, 83, 0
5, 33390, Note_on_c, 1, 86, 95
5, 33420, Note_on_c, 1, 86, 0
5, 33420, Note_on_c, 1, 80, 95
5, 33450, Note_on_c, 1, 80, 0
5, 33450, Note_on_c, 1, 81, 95
5, 33480, Note_on_c, 1, 81, 0
5, 33480, Note_on_c, 1, 83, 100
5, 33510, Note_on_c, 1, 83, 0
5, 33510, Note_on_c, 1, 86, 100
5, 33540, Note_on_c, 1, 86, 0
5, 33540, Note_on_c, 1, 83, 100
5, 33570, Note_on_c, 1, 83, 0
5, 33570, Note_on_c, 1, 80, 100
5, 33600, Note_on_c, 1, 80, 0
5, 33600, Note_on_c, 1, 77, 100
5, 33630, Note_on_c, 1, 77, 0
5, 33630, Note_on_c, 1, 83, 100
5, 33660, Note_on_c, 1, 83, 0
5, 33660, Note_on_c, 1, 80, 100
5, 33690, Note_on_c, 1, 80, 0
5, 33690, Note_on_c, 1, 77, 100
5, 33720, Note_on_c, 1, 77, 0
5, 33720, Note_on_c, 1, 73, 100
5, 33750, Note_on_c, 1, 73, 0
5, 33750, Note_on_c, 1, 83, 100
5, 33780, Note_on_c, 1, 83, 0
5, 33780, Note_on_c, 1, 81, 100
5, 33810, Note_on_c, 1, 81, 0
5, 33810, Note_on_c, 1, 80, 100
5, 33840, Note_on_c, 1, 80, 0
5, 33840, Note_on_c, 1, 78, 100
5, 33870, Note_on_c, 1, 78, 0
5, 33870, Note_on_c, 1, 80, 100
5, 33900, Note_on_c, 1, 80, 0
5, 33900, Note_on_c, 1, 81, 100
5, 33930, Note_on_c, 1, 81, 0
5, 33930, Note_on_c, 1, 78, 100
5, 33960, Note_on_c, 1, 78, 0
5, 33960, Note_on_c, 1, 71, 100
5, 33990, Note_on_c, 1, 71, 0
5, 33990, Note_on_c, 1, 81, 100
5, 34020, Note_on_c, 1, 81, 0
5, 34020, Note_on_c, 1, 80, 100
5, 34050, Note_on_c, 1, 80, 0
5, 34050, Note_on_c, 1, 78, 100
5, 34080, Note_on_c, 1, 78, 0
5, 34080, Note_on_c, 1, 73, 95
5, 34110, Note_on_c, 1, 73, 0
5, 34110, Note_on_c, 1, 80, 95
5, 34140, Note_on_c, 1, 80, 0
5, 34140, Note_on_c, 1, 78, 95
5, 34170, Note_on_c, 1, 78, 0
5, 34170, Note_on_c, 1, 77, 95
5, 34200, Note_on_c, 1, 77, 0
5, 34200, Note_on_c, 1, 74, 95
5, 34230, Note_on_c, 1, 74, 0
5, 34230, Note_on_c, 1, 76, 95
5, 34260, Note_on_c, 1, 76, 0
5, 34260, Note_on_c, 1, 78, 95
5, 34290, Note_on_c, 1, 78, 0
5, 34290, Note_on_c, 1, 74, 95
5, 34320, Note_on_c, 1, 74, 0
5, 34320, Note_on_c, 1, 68, 95
5, 34350, Note_on_c, 1, 68, 0
5, 34350, Note_on_c, 1, 78, 95
5, 34380, Note_on_c, 1, 78, 0
5, 34380, Note_on_c, 1, 76, 95
5, 34410, Note_on_c, 1, 76, 0
5, 34410, Note_on_c, 1, 74, 95
5, 34440, Note_on_c, 1, 74, 0
5, 34440, Note_on_c, 1, 70, 95
5, 34470, Note_on_c, 1, 70, 0
5, 34470, Note_on_c, 1, 76, 95
5, 34500, Note_on_c, 1, 76, 0
5, 34500, Note_on_c, 1, 74, 95
5, 34530, Note_on_c, 1, 74, 0
5, 34530, Note_on_c, 1, 73, 95
5, 34560, Note_on_c, 1, 73, 0
5, 34560, Note_on_c, 1, 71, 95
5, 34590, Note_on_c, 1, 71, 0
5, 34590, Note_on_c, 1, 73, 95
5, 34620, Note_on_c, 1, 73, 0
5, 34620, Note_on_c, 1, 74, 95
5, 34650, Note_on_c, 1, 74, 0
5, 34650, Note_on_c, 1, 71, 95
5, 34680, Note_on_c, 1, 71, 0
5, 34680, Note_on_c, 1, 65, 95
5, 34710, Note_on_c, 1, 65, 0
5, 34710, Note_on_c, 1, 74, 95
5, 34740, Note_on_c, 1, 74, 0
5, 34740, Note_on_c, 1, 73, 95
5, 34770, Note_on_c, 1, 73, 0
5, 34770, Note_on_c, 1, 71, 95
5, 34800, Note_on_c, 1, 71, 0
5, 34800, Note_on_c, 1, 66, 95
5, 34830, Note_on_c, 1, 66, 0
5, 34830, Note_on_c, 1, 73, 95
5, 34860, Note_on_c, 1, 73, 0
5, 34860, Note_on_c, 1, 71, 95
5, 34890, Note_on_c, 1, 71, 0
5, 34890, Note_on_c, 1, 69, 95
5, 34920, Note_on_c, 1, 69, 0
5, 34920, Note_on_c, 1, 68, 90
5, 34950, Note_on_c, 1, 68, 0
5, 34950, Note_on_c, 1, 69, 90
5, 34980, Note_on_c, 1, 69, 0
5, 34980, Note_on_c, 1, 71, 90
5, 35010, Note_on_c, 1, 71, 0
5, 35010, Note_on_c, 1, 69, 90
5, 35040, Note_on_c, 1, 69, 0
5, 35040, Note_on_c, 1, 68, 90
5, 35070, Note_on_c, 1, 68, 0
5, 35070, Note_on_c, 1, 71, 90
5, 35100, Note_on_c, 1, 71, 0
5, 35100, Note_on_c, 1, 69, 95
5, 35130, Note_on_c, 1, 69, 0
5, 35130, Note_on_c, 1, 71, 95
5, 35160, Note_on_c, 1, 71, 0
5, 35160, Note_on_c, 1, 68, 95
5, 35190, Note_on_c, 1, 68, 0
5, 35190, Note_on_c, 1, 71, 95
5, 35220, Note_on_c, 1, 71, 0
5, 35220, Note_on_c, 1, 66, 95
5, 35250, Note_on_c, 1, 66, 0
5, 35250, Note_on_c, 1, 71, 95
5, 35280, Note_on_c, 1, 71, 0
5, 35280, Note_on_c, 1, 65, 95
5, 35310, Note_on_c, 1, 65, 0
5, 35310, Note_on_c, 1, 66, 95
5, 35340, Note_on_c, 1, 66, 0
5, 35340, Note_on_c, 1, 68, 95
5, 35370, Note_on_c, 1, 68, 0
5, 35370, Note_on_c, 1, 69, 95
5, 35400, Note_on_c, 1, 69, 0
5, 35400, Note_on_c, 1, 71, 95
5, 35430, Note_on_c, 1, 71, 0
5, 35430, Note_on_c, 1, 65, 95
5, 35460, Note_on_c, 1, 65, 0
5, 35460, Note_on_c, 1, 74, 95
5, 35490, Note_on_c, 1, 74, 0
5, 35490, Note_on_c, 1, 65, 95
5, 35520, Note_on_c, 1, 65, 0
5, 35520, Note_on_c, 1, 73, 95
5, 35550, Note_on_c, 1, 73, 0
5, 35550, Note_on_c, 1, 65, 95
5, 35580, Note_on_c, 1, 65, 0
5, 35580, Note_on_c, 1, 71, 95
5, 35610, Note_on_c, 1, 71, 0
5, 35610, Note_on_c, 1, 65, 95
5, 35640, Note_on_c, 1, 65, 0
5, 35640, Note_on_c, 1, 66, 85
5, 35670, Note_on_c, 1, 66, 0
5, 35670, Note_on_c, 1, 69, 85
5, 35700, Note_on_c, 1, 69, 0
5, 35700, Note_on_c, 1, 66, 85
5, 35730, Note_on_c, 1, 66, 0
5, 35730, Note_on_c, 1, 61, 85
5, 35760, Note_on_c, 1, 61, 0
5, 35760, Note_on_c, 1, 57, 85
5, 35790, Note_on_c, 1, 57, 0
5, 35790, Note_on_c, 1, 61, 85
5, 35820, Note_on_c, 1, 61, 0
5, 35820, Note_on_c, 1, 66, 95
5, 35850, Note_on_c, 1, 66, 0
5, 35850, Note_on_c, 1, 61, 95
5, 35880, Note_on_c, 1, 61, 0
5, 35880, Note_on_c, 1, 69, 95
5, 35910, Note_on_c, 1, 69, 0
5, 35910, Note_on_c, 1, 61, 95
5, 35940, Note_on_c, 1, 61, 0
5, 35940, Note_on_c, 1, 66, 95
5, 35970, Note_on_c, 1, 66, 0
5, 35970, Note_on_c, 1, 61, 95
5, 36000, Note_on_c, 1, 61, 0
5, 36000, Note_on_c, 1, 65, 85
5, 36030, Note_on_c, 1, 65, 0
5, 36030, Note_on_c, 1, 68, 85
5, 36060, Note_on_c, 1, 68, 0
5, 36060, Note_on_c, 1, 65, 85
5, 36090, Note_on_c, 1, 65, 0
5, 36090, Note_on_c, 1, 61, 85
5, 36120, Note_on_c, 1, 61, 0
5, 36120, Note_on_c, 1, 65, 85
5, 36150, Note_on_c, 1, 65, 0
5, 36150, Note_on_c, 1, 68, 85
5, 36180, Note_on_c, 1, 68, 0
5, 36180, Note_on_c, 1, 73, 95
5, 36210, Note_on_c, 1, 73, 0
5, 36210, Note_on_c, 1, 68, 95
5, 36240, Note_on_c, 1, 68, 0
5, 36240, Note_on_c, 1, 77, 95
5, 36270, Note_on_c, 1, 77, 0
5, 36270, Note_on_c, 1, 73, 95
5, 36300, Note_on_c, 1, 73, 0
5, 36300, Note_on_c, 1, 80, 95
5, 36330, Note_on_c, 1, 80, 0
5, 36330, Note_on_c, 1, 71, 95
5, 36360, Note_on_c, 1, 71, 0
5, 36360, Note_on_c, 1, 69, 85
5, 36390, Note_on_c, 1, 69, 0
5, 36390, Note_on_c, 1, 73, 85
5, 36420, Note_on_c, 1, 73, 0
5, 36420, Note_on_c, 1, 69, 85
5, 36450, Note_on_c, 1, 69, 0
5, 36450, Note_on_c, 1, 66, 85
5, 36480, Note_on_c, 1, 66, 0
5, 36480, Note_on_c, 1, 69, 85
5, 36510, Note_on_c, 1, 69, 0
5, 36510, Note_on_c, 1, 73, 85
5, 36540, Note_on_c, 1, 73, 0
5, 36540, Note_on_c, 1, 78, 95
5, 36570, Note_on_c, 1, 78, 0
5, 36570, Note_on_c, 1, 73, 95
5, 36600, Note_on_c, 1, 73, 0
5, 36600, Note_on_c, 1, 81, 95
5, 36630, Note_on_c, 1, 81, 0
5, 36630, Note_on_c, 1, 78, 95
5, 36660, Note_on_c, 1, 78, 0
5, 36660, Note_on_c, 1, 85, 95
5, 36690, Note_on_c, 1, 85, 0
5, 36690, Note_on_c, 1, 78, 95
5, 36720, Note_on_c, 1, 78, 0
5, 36720, Note_on_c, 1, 77, 85
5, 36750, Note_on_c, 1, 77, 0
5, 36750, Note_on_c, 1, 80, 85
5, 36780, Note_on_c, 1, 80, 0
5, 36780, Note_on_c, 1, 77, 85
5, 36810, Note_on_c, 1, 77, 0
5, 36810, Note_on_c, 1, 73, 85
5, 36840, Note_on_c, 1, 73, 0
5, 36840, Note_on_c, 1, 85, 100
5, 36870, Note_on_c, 1, 85, 0
5, 36870, Note_on_c, 1, 84, 100
5, 36900, Note_on_c, 1, 84, 0
5, 36900, Note_on_c, 1, 85, 100
5, 36930, Note_on_c, 1, 85, 0
5, 36930, Note_on_c, 1, 84, 100
5, 36960, Note_on_c, 1, 84, 0
5, 36960, Note_on_c, 1, 85, 100
5, 36990, Note_on_c, 1, 85, 0
5, 36990, Note_on_c, 1, 80, 100
5, 37020, Note_on_c, 1, 80, 0
5, 37020, Note_on_c, 1, 81, 100
5, 37050, Note_on_c, 1, 81, 0
5, 37050, Note_on_c, 1, 78, 100
5, 37080, Note_on_c, 1, 78, 0
5, 37080, Note_on_c, 1, 77, 100
5, 37110, Note_on_c, 1, 77, 0
5, 37110, Note_on_c, 1, 80, 100
5, 37140, Note_on_c, 1, 80, 0
5, 37140, Note_on_c, 1, 77, 100
5, 37170, Note_on_c, 1, 77, 0
5, 37170, Note_on_c, 1, 73, 100
5, 37200, Note_on_c, 1, 73, 0
5, 37200, Note_on_c, 1, 83, 100
5, 37230, Note_on_c, 1, 83, 0
5, 37230, Note_on_c, 1, 82, 100
5, 37260, Note_on_c, 1, 82, 0
5, 37260, Note_on_c, 1, 83, 100
5, 37290, Note_on_c, 1, 83, 0
5, 37290, Note_on_c, 1, 82, 100
5, 37320, Note_on_c, 1, 82, 0
5, 37320, Note_on_c, 1, 83, 100
5, 37350, Note_on_c, 1, 83, 0
5, 37350, Note_on_c, 1, 80, 100
5, 37380, Note_on_c, 1, 80, 0
5, 37380, Note_on_c, 1, 81, 100
5, 37410, Note_on_c, 1, 81, 0
5, 37410, Note_on_c, 1, 78, 100
5, 37440, Note_on_c, 1, 78, 0
5, 37440, Note_on_c, 1, 77, 100
5, 37470, Note_on_c, 1, 77, 0
5, 37470, Note_on_c, 1, 80, 100
5, 37500, Note_on_c, 1, 80, 0
5, 37500, Note_on_c, 1, 77, 100
5, 37530, Note_on_c, 1, 77, 0
5, 37530, Note_on_c, 1, 73, 100
5, 37560, Note_on_c, 1, 73, 0
5, 37560, Note_on_c, 1, 74, 95
5, 37590, Note_on_c, 1, 74, 0
5, 37590, Note_on_c, 1, 73, 95
5, 37620, Note_on_c, 1, 73, 0
5, 37620, Note_on_c, 1, 74, 95
5, 37650, Note_on_c, 1, 74, 0
5, 37650, Note_on_c, 1, 73, 95
5, 37680, Note_on_c, 1, 73, 0
5, 37680, Note_on_c, 1, 74, 95
5, 37710, Note_on_c, 1, 74, 0
5, 37710, Note_on_c, 1, 68, 95
5, 37740, Note_on_c, 1, 68, 0
5, 37740, Note_on_c, 1, 69, 95
5, 37770, Note_on_c, 1, 69, 0
5, 37770, Note_on_c, 1, 66, 95
5, 37800, Note_on_c, 1, 66, 0
5, 37800, Note_on_c, 1, 65, 95
5, 37830, Note_on_c, 1, 65, 0
5, 37830, Note_on_c, 1, 68, 95
5, 37860, Note_on_c, 1, 68, 0
5, 37860, Note_on_c, 1, 73, 95
5, 37890, Note_on_c, 1, 73, 0
5, 37890, Note_on_c, 1, 83, 95
5, 37920, Note_on_c, 1, 83, 0
5, 37920, Note_on_c, 1, 83, 95
5, 37950, Note_on_c, 1, 83, 0
5, 37950, Note_on_c, 1, 78, 95
5, 37980, Note_on_c, 1, 78, 0
5, 37980, Note_on_c, 1, 81, 95
5, 38010, Note_on_c, 1, 81, 0
5, 38010, Note_on_c, 1, 78, 95
5, 38040, Note_on_c, 1, 78, 0
5, 38040, Note_on_c, 1, 77, 95
5, 38070, Note_on_c, 1, 77, 0
5, 38070, Note_on_c, 1, 80, 95
5, 38100, Note_on_c, 1, 80, 0
5, 38100, Note_on_c, 1, 73, 95
5, 38130, Note_on_c, 1, 73, 0
5, 38130, Note_on_c, 1, 71, 95
5, 38160, Note_on_c, 1, 71, 0
5, 38160, Note_on_c, 1, 69, 95
5, 38190, Note_on_c, 1, 69, 0
5, 38190, Note_on_c, 1, 73, 95
5, 38220, Note_on_c, 1, 73, 0
5, 38220, Note_on_c, 1, 78, 95
5, 38250, Note_on_c, 1, 78, 0
5, 38250, Note_on_c, 1, 85, 95
5, 38280, Note_on_c, 1, 85, 0
5, 38280, Note_on_c, 1, 85, 95
5, 38310, Note_on_c, 1, 85, 0
5, 38310, Note_on_c, 1, 81, 95
5, 38340, Note_on_c, 1, 81, 0
5, 38340, Note_on_c, 1, 83, 95
5, 38370, Note_on_c, 1, 83, 0
5, 38370, Note_on_c, 1, 80, 95
5, 38400, Note_on_c, 1, 80, 0
5, 38400, Note_on_c, 1, 78, 95
5, 38430, Note_on_c, 1, 78, 0
5, 38430, Note_on_c, 1, 81, 95
5, 38460, Note_on_c, 1, 81, 0
5, 38460, Note_on_c, 1, 74, 95
5, 38490, Note_on_c, 1, 74, 0
5, 38490, Note_on_c, 1, 73, 95
5, 38520, Note_on_c, 1, 73, 0
5, 38520, Note_on_c, 1, 71, 95
5, 38550, Note_on_c, 1, 71, 0
5, 38550, Note_on_c, 1, 74, 95
5, 38580, Note_on_c, 1, 74, 0
5, 38580, Note_on_c, 1, 67, 95
5, 38610, Note_on_c, 1, 67, 0
5, 38610, Note_on_c, 1, 66, 95
5, 38640, Note_on_c, 1, 66, 0
5, 38640, Note_on_c, 1, 65, 95
5, 38670, Note_on_c, 1, 65, 0
5, 38670, Note_on_c, 1, 68, 95
5, 38700, Note_on_c, 1, 68, 0
5, 38700, Note_on_c, 1, 61, 95
5, 38730, Note_on_c, 1, 61, 0
5, 38730, Note_on_c, 1, 59, 95
5, 38760, Note_on_c, 1, 59, 0
5, 38760, Note_on_c, 1, 57, 95
5, 38790, Note_on_c, 1, 57, 0
5, 38790, Note_on_c, 1, 61, 95
5, 38820, Note_on_c, 1, 61, 0
5, 38820, Note_on_c, 1, 66, 95
5, 38850, Note_on_c, 1, 66, 0
5, 38850, Note_on_c, 1, 68, 95
5, 38880, Note_on_c, 1, 68, 0
5, 38880, Note_on_c, 1, 69, 90
5, 38910, Note_on_c, 1, 69, 0
5, 38910, Note_on_c, 1, 66, 90
5, 38940, Note_on_c, 1, 66, 0
5, 38940, Note_on_c, 1, 71, 90
5, 38970, Note_on_c, 1, 71, 0
5, 38970, Note_on_c, 1, 66, 90
5, 39000, Note_on_c, 1, 66, 0
5, 39000, Note_on_c, 1, 73, 90
5, 39030, Note_on_c, 1, 73, 0
5, 39030, Note_on_c, 1, 66, 90
5, 39060, Note_on_c, 1, 66, 0
5, 39060, Note_on_c, 1, 74, 90
5, 39090, Note_on_c, 1, 74, 0
5, 39090, Note_on_c, 1, 66, 90
5, 39120, Note_on_c, 1, 66, 0
5, 39120, Note_on_c, 1, 61, 90
5, 39150, Note_on_c, 1, 61, 0
5, 39150, Note_on_c, 1, 66, 90
5, 39180, Note_on_c, 1, 66, 0
5, 39180, Note_on_c, 1, 68, 90
5, 39210, Note_on_c, 1, 68, 0
5, 39210, Note_on_c, 1, 65, 90
5, 39240, Note_on_c, 1, 65, 0
5, 39240, Note_on_c, 1, 66, 85
5, 39270, Note_on_c, 1, 66, 0
5, 39270, Note_on_c, 1, 69, 85
5, 39300, Note_on_c, 1, 69, 0
5, 39300, Note_on_c, 1, 68, 85
5, 39330, Note_on_c, 1, 68, 0
5, 39330, Note_on_c, 1, 69, 85
5, 39360, Note_on_c, 1, 69, 0
5, 39360, Note_on_c, 1, 69, 95
5, 39390, Note_on_c, 1, 69, 0
5, 39390, Note_on_c, 1, 69, 95
5, 39420, Note_on_c, 1, 69, 0
5, 39420, Note_on_c, 1, 68, 95
5, 39450, Note_on_c, 1, 68, 0
5, 39450, Note_on_c, 1, 69, 95
5, 39480, Note_on_c, 1, 69, 0
5, 39480, Note_on_c, 1, 66, 85
5, 39510, Note_on_c, 1, 66, 0
5, 39510, Note_on_c, 1, 69, 85
5, 39540, Note_on_c, 1, 69, 0
5, 39540, Note_on_c, 1, 64, 85
5, 39570, Note_on_c, 1, 64, 0
5, 39570, Note_on_c, 1, 69, 85
5, 39600, Note_on_c, 1, 69, 0
5, 39600, Note_on_c, 1, 63, 85
5, 39630, Note_on_c, 1, 63, 0
5, 39630, Note_on_c, 1, 69, 85
5, 39660, Note_on_c, 1, 69, 0
5, 39660, Note_on_c, 1, 64, 85
5, 39690, Note_on_c, 1, 64, 0
5, 39690, Note_on_c, 1, 69, 85
5, 39720, Note_on_c, 1, 69, 0
5, 39720, Note_on_c, 1, 66, 95
5, 39750, Note_on_c, 1, 66, 0
5, 39750, Note_on_c, 1, 69, 95
5, 39780, Note_on_c, 1, 69, 0
5, 39780, Note_on_c, 1, 68, 95
5, 39810, Note_on_c, 1, 68, 0
5, 39810, Note_on_c, 1, 69, 95
5, 39840, Note_on_c, 1, 69, 0
5, 39840, Note_on_c, 1, 69, 85
5, 39870, Note_on_c, 1, 69, 0
5, 39870, Note_on_c, 1, 69, 85
5, 39900, Note_on_c, 1, 69, 0
5, 39900, Note_on_c, 1, 66, 85
5, 39930, Note_on_c, 1, 66, 0
5, 39930, Note_on_c, 1, 69, 85
5, 39960, Note_on_c, 1, 69, 0
5, 39960, Note_on_c, 1, 68, 85
5, 39990, Note_on_c, 1, 68, 0
5, 39990, Note_on_c, 1, 69, 85
5, 40020, Note_on_c, 1, 69, 0
5, 40020, Note_on_c, 1, 68, 85
5, 40050, Note_on_c, 1, 68, 0
5, 40050, Note_on_c, 1, 66, 85
5, 40080, Note_on_c, 1, 66, 0
5, 40080, Note_on_c, 1, 64, 95
5, 40110, Note_on_c, 1, 64, 0
5, 40110, Note_on_c, 1, 76, 95
5, 40140, Note_on_c, 1, 76, 0
5, 40140, Note_on_c, 1, 75, 95
5, 40170, Note_on_c, 1, 75, 0
5, 40170, Note_on_c, 1, 76, 95
5, 40200, Note_on_c, 1, 76, 0
5, 40200, Note_on_c, 1, 73, 85
5, 40230, Note_on_c, 1, 73, 0
5, 40230, Note_on_c, 1, 76, 85
5, 40260, Note_on_c, 1, 76, 0
5, 40260, Note_on_c, 1, 71, 85
5, 40290, Note_on_c, 1, 71, 0
5, 40290, Note_on_c, 1, 76, 85
5, 40320, Note_on_c, 1, 76, 0
5, 40320, Note_on_c, 1, 70, 85
5, 40350, Note_on_c, 1, 70, 0
5, 40350, Note_on_c, 1, 76, 85
5, 40380, Note_on_c, 1, 76, 0
5, 40380, Note_on_c, 1, 71, 85
5, 40410, Note_on_c, 1, 71, 0
5, 40410, Note_on_c, 1, 76, 85
5, 40440, Note_on_c, 1, 76, 0
5, 40440, Note_on_c, 1, 73, 95
5, 40470, Note_on_c, 1, 73, 0
5, 40470, Note_on_c, 1, 76, 95
5, 40500, Note_on_c, 1, 76, 0
5, 40500, Note_on_c, 1, 75, 95
5, 40530, Note_on_c, 1, 75, 0
5, 40530, Note_on_c, 1, 76, 95
5, 40560, Note_on_c, 1, 76, 0
5, 40560, Note_on_c, 1, 76, 85
5, 40590, Note_on_c, 1, 76, 0
5, 40590, Note_on_c, 1, 76, 85
5, 40620, Note_on_c, 1, 76, 0
5, 40620, Note_on_c, 1, 70, 85
5, 40650, Note_on_c, 1, 70, 0
5, 40650, Note_on_c, 1, 76, 85
5, 40680, Note_on_c, 1, 76, 0
5, 40680, Note_on_c, 1, 75, 85
5, 40710, Note_on_c, 1, 75, 0
5, 40710, Note_on_c, 1, 76, 85
5, 40740, Note_on_c, 1, 76, 0
5, 40740, Note_on_c, 1, 75, 85
5, 40770, Note_on_c, 1, 75, 0
5, 40770, Note_on_c, 1, 73, 85
5, 40800, Note_on_c, 1, 73, 0
5, 40800, Note_on_c, 1, 71, 95
5, 40830, Note_on_c, 1, 71, 0
5, 40830, Note_on_c, 1, 73, 95
5, 40860, Note_on_c, 1, 73, 0
5, 40860, Note_on_c, 1, 75, 95
5, 40890, Note_on_c, 1, 75, 0
5, 40890, Note_on_c, 1, 76, 95
5, 40920, Note_on_c, 1, 76, 0
5, 40920, Note_on_c, 1, 78, 95
5, 40950, Note_on_c, 1, 78, 0
5, 40950, Note_on_c, 1, 80, 95
5, 40980, Note_on_c, 1, 80, 0
5, 40980, Note_on_c, 1, 81, 95
5, 41010, Note_on_c, 1, 81, 0
5, 41010, Note_on_c, 1, 78, 95
5, 41040, Note_on_c, 1, 78, 0
5, 41040, Note_on_c, 1, 83, 95
5, 41070, Note_on_c, 1, 83, 0
5, 41070, Note_on_c, 1, 71, 90
5, 41100, Note_on_c, 1, 71, 0
5, 41100, Note_on_c, 1, 69, 90
5, 41130, Note_on_c, 1, 69, 0
5, 41130, Note_on_c, 1, 71, 90
5, 41160, Note_on_c, 1, 71, 0
5, 41160, Note_on_c, 1, 68, 90
5, 41190, Note_on_c, 1, 68, 0
5, 41190, Note_on_c, 1, 71, 90
5, 41220, Note_on_c, 1, 71, 0
5, 41220, Note_on_c, 1, 66, 90
5, 41250, Note_on_c, 1, 66, 0
5, 41250, Note_on_c, 1, 71, 90
5, 41280, Note_on_c, 1, 71, 0
5, 41280, Note_on_c, 1, 64, 90
5, 41310, Note_on_c, 1, 64, 0
5, 41310, Note_on_c, 1, 71, 90
5, 41340, Note_on_c, 1, 71, 0
5, 41340, Note_on_c, 1, 62, 90
5, 41370, Note_on_c, 1, 62, 0
5, 41370, Note_on_c, 1, 71, 90
5, 41400, Note_on_c, 1, 71, 0
5, 41400, Note_on_c, 1, 61, 90
5, 41430, Note_on_c, 1, 61, 0
5, 41430, Note_on_c, 1, 64, 95
5, 41460, Note_on_c, 1, 64, 0
5, 41460, Note_on_c, 1, 66, 95
5, 41490, Note_on_c, 1, 66, 0
5, 41490, Note_on_c, 1, 68, 95
5, 41520, Note_on_c, 1, 68, 0
5, 41520, Note_on_c, 1, 69, 95
5, 41550, Note_on_c, 1, 69, 0
5, 41550, Note_on_c, 1, 71, 95
5, 41580, Note_on_c, 1, 71, 0
5, 41580, Note_on_c, 1, 73, 95
5, 41610, Note_on_c, 1, 73, 0
5, 41610, Note_on_c, 1, 74, 95
5, 41640, Note_on_c, 1, 74, 0
5, 41640, Note_on_c, 1, 76, 95
5, 41670, Note_on_c, 1, 76, 0
5, 41670, Note_on_c, 1, 78, 95
5, 41700, Note_on_c, 1, 78, 0
5, 41700, Note_on_c, 1, 80, 95
5, 41730, Note_on_c, 1, 80, 0
5, 41730, Note_on_c, 1, 76, 95
5, 41760, Note_on_c, 1, 76, 0
5, 41760, Note_on_c, 1, 81, 95
5, 41790, Note_on_c, 1, 81, 0
5, 41790, Note_on_c, 1, 69, 90
5, 41820, Note_on_c, 1, 69, 0
5, 41820, Note_on_c, 1, 68, 90
5, 41850, Note_on_c, 1, 68, 0
5, 41850, Note_on_c, 1, 69, 90
5, 41880, Note_on_c, 1, 69, 0
5, 41880, Note_on_c, 1, 66, 90
5, 41910, Note_on_c, 1, 66, 0
5, 41910, Note_on_c, 1, 69, 90
5, 41940, Note_on_c, 1, 69, 0
5, 41940, Note_on_c, 1, 64, 90
5, 41970, Note_on_c, 1, 64, 0
5, 41970, Note_on_c, 1, 69, 90
5, 42000, Note_on_c, 1, 69, 0
5, 42000, Note_on_c, 1, 63, 90
5, 42030, Note_on_c, 1, 63, 0
5, 42030, Note_on_c, 1, 69, 90
5, 42060, Note_on_c, 1, 69, 0
5, 42060, Note_on_c, 1, 61, 90
5, 42090, Note_on_c, 1, 61, 0
5, 42090, Note_on_c, 1, 69, 90
5, 42120, Note_on_c, 1, 69, 0
5, 42120, Note_on_c, 1, 59, 90
5, 42150, Note_on_c, 1, 59, 0
5, 42150, Note_on_c, 1, 63, 95
5, 42180, Note_on_c, 1, 63, 0
5, 42180, Note_on_c, 1, 64, 95
5, 42210, Note_on_c, 1, 64, 0
5, 42210, Note_on_c, 1, 66, 95
5, 42240, Note_on_c, 1, 66, 0
5, 42240, Note_on_c, 1, 68, 95
5, 42270, Note_on_c, 1, 68, 0
5, 42270, Note_on_c, 1, 69, 95
5, 42300, Note_on_c, 1, 69, 0
5, 42300, Note_on_c, 1, 71, 95
5, 42330, Note_on_c, 1, 71, 0
5, 42330, Note_on_c, 1, 73, 95
5, 42360, Note_on_c, 1, 73, 0
5, 42360, Note_on_c, 1, 75, 95
5, 42390, Note_on_c, 1, 75, 0
5, 42390, Note_on_c, 1, 76, 95
5, 42420, Note_on_c, 1, 76, 0
5, 42420, Note_on_c, 1, 78, 95
5, 42450, Note_on_c, 1, 78, 0
5, 42450, Note_on_c, 1, 75, 95
5, 42480, Note_on_c, 1, 75, 0
5, 42480, Note_on_c, 1, 80, 95
5, 42510, Note_on_c, 1, 80, 0
5, 42510, Note_on_c, 1, 64, 90
5, 42540, Note_on_c, 1, 64, 0
5, 42540, Note_on_c, 1, 62, 90
5, 42570, Note_on_c, 1, 62, 0
5, 42570, Note_on_c, 1, 64, 90
5, 42600, Note_on_c, 1, 64, 0
5, 42600, Note_on_c, 1, 61, 90
5, 42630, Note_on_c, 1, 61, 0
5, 42630, Note_on_c, 1, 64, 90
5, 42660, Note_on_c, 1, 64, 0
5, 42660, Note_on_c, 1, 59, 90
5, 42690, Note_on_c, 1, 59, 0
5, 42690, Note_on_c, 1, 64, 90
5, 42720, Note_on_c, 1, 64, 0
5, 42720, Note_on_c, 1, 57, 90
5, 42750, Note_on_c, 1, 57, 0
5, 42750, Note_on_c, 1, 64, 90
5, 42780, Note_on_c, 1, 64, 0
5, 42780, Note_on_c, 1, 56, 90
5, 42810, Note_on_c, 1, 56, 0
5, 42810, Note_on_c, 1, 64, 90
5, 42840, Note_on_c, 1, 64, 0
5, 42840, Note_on_c, 1, 57, 90
5, 42870, Note_on_c, 1, 57, 0
5, 42870, Note_on_c, 1, 64, 95
5, 42900, Note_on_c, 1, 64, 0
5, 42900, Note_on_c, 1, 73, 95
5, 42930, Note_on_c, 1, 73, 0
5, 42930, Note_on_c, 1, 71, 95
5, 42960, Note_on_c, 1, 71, 0
5, 42960, Note_on_c, 1, 73, 95
5, 42990, Note_on_c, 1, 73, 0
5, 42990, Note_on_c, 1, 76, 95
5, 43020, Note_on_c, 1, 76, 0
5, 43020, Note_on_c, 1, 81, 95
5, 43050, Note_on_c, 1, 81, 0
5, 43050, Note_on_c, 1, 80, 95
5, 43080, Note_on_c, 1, 80, 0
5, 43080, Note_on_c, 1, 81, 95
5, 43110, Note_on_c, 1, 81, 0
5, 43110, Note_on_c, 1, 78, 95
5, 43140, Note_on_c, 1, 78, 0
5, 43140, Note_on_c, 1, 73, 95
5, 43170, Note_on_c, 1, 73, 0
5, 43170, Note_on_c, 1, 76, 95
5, 43200, Note_on_c, 1, 76, 0
5, 43200, Note_on_c, 1, 59, 95
5, 43230, Note_on_c, 1, 59, 0
5, 43230, Note_on_c, 1, 66, 95
5, 43260, Note_on_c, 1, 66, 0
5, 43260, Note_on_c, 1, 75, 95
5, 43290, Note_on_c, 1, 75, 0
5, 43290, Note_on_c, 1, 73, 95
5, 43320, Note_on_c, 1, 73, 0
5, 43320, Note_on_c, 1, 75, 95
5, 43350, Note_on_c, 1, 75, 0
5, 43350, Note_on_c, 1, 78, 95
5, 43380, Note_on_c, 1, 78, 0
5, 43380, Note_on_c, 1, 81, 95
5, 43410, Note_on_c, 1, 81, 0
5, 43410, Note_on_c, 1, 80, 95
5, 43440, Note_on_c, 1, 80, 0
5, 43440, Note_on_c, 1, 81, 95
5, 43470, Note_on_c, 1, 81, 0
5, 43470, Note_on_c, 1, 78, 95
5, 43500, Note_on_c, 1, 78, 0
5, 43500, Note_on_c, 1, 75, 95
5, 43530, Note_on_c, 1, 75, 0
5, 43530, Note_on_c, 1, 78, 95
5, 43560, Note_on_c, 1, 78, 0
5, 43560, Note_on_c, 1, 59, 95
5, 43590, Note_on_c, 1, 59, 0
5, 43590, Note_on_c, 1, 68, 95
5, 43620, Note_on_c, 1, 68, 0
5, 43620, Note_on_c, 1, 71, 95
5, 43650, Note_on_c, 1, 71, 0
5, 43650, Note_on_c, 1, 69, 95
5, 43680, Note_on_c, 1, 69, 0
5, 43680, Note_on_c, 1, 71, 95
5, 43710, Note_on_c, 1, 71, 0
5, 43710, Note_on_c, 1, 76, 95
5, 43740, Note_on_c, 1, 76, 0
5, 43740, Note_on_c, 1, 80, 95
5, 43770, Note_on_c, 1, 80, 0
5, 43770, Note_on_c, 1, 78, 95
5, 43800, Note_on_c, 1, 78, 0
5, 43800, Note_on_c, 1, 80, 95
5, 43830, Note_on_c, 1, 80, 0
5, 43830, Note_on_c, 1, 76, 95
5, 43860, Note_on_c, 1, 76, 0
5, 43860, Note_on_c, 1, 71, 95
5, 43890, Note_on_c, 1, 71, 0
5, 43890, Note_on_c, 1, 76, 95
5, 43920, Note_on_c, 1, 76, 0
5, 43920, Note_on_c, 1, 59, 95
5, 43950, Note_on_c, 1, 59, 0
5, 43950, Note_on_c, 1, 70, 95
5, 43980, Note_on_c, 1, 70, 0
5, 43980, Note_on_c, 1, 73, 95
5, 44010, Note_on_c, 1, 73, 0
5, 44010, Note_on_c, 1, 71, 95
5, 44040, Note_on_c, 1, 71, 0
5, 44040, Note_on_c, 1, 73, 95
5, 44070, Note_on_c, 1, 73, 0
5, 44070, Note_on_c, 1, 76, 95
5, 44100, Note_on_c, 1, 76, 0
5, 44100, Note_on_c, 1, 82, 95
5, 44130, Note_on_c, 1, 82, 0
5, 44130, Note_on_c, 1, 80, 95
5, 44160, Note_on_c, 1, 80, 0
5, 44160, Note_on_c, 1, 82, 95
5, 44190, Note_on_c, 1, 82, 0
5, 44190, Note_on_c, 1, 76, 95
5, 44220, Note_on_c, 1, 76, 0
5, 44220, Note_on_c, 1, 73, 95
5, 44250, Note_on_c, 1, 73, 0
5, 44250, Note_on_c, 1, 76, 95
5, 44280, Note_on_c, 1, 76, 0
5, 44280, Note_on_c, 1, 75, 95
5, 44310, Note_on_c, 1, 75, 0
5, 44310, Note_on_c, 1, 83, 100
5, 44340, Note_on_c, 1, 83, 0
5, 44340, Note_on_c, 1, 82, 100
5, 44370, Note_on_c, 1, 82, 0
5, 44370, Note_on_c, 1, 80, 100
5, 44400, Note_on_c, 1, 80, 0
5, 44400, Note_on_c, 1, 78, 100
5, 44430, Note_on_c, 1, 78, 0
5, 44430, Note_on_c, 1, 83, 100
5, 44460, Note_on_c, 1, 83, 0
5, 44460, Note_on_c, 1, 78, 100
5, 44490, Note_on_c, 1, 78, 0
5, 44490, Note_on_c, 1, 76, 100
5, 44520, Note_on_c, 1, 76, 0
5, 44520, Note_on_c, 1, 75, 100
5, 44550, Note_on_c, 1, 75, 0
5, 44550, Note_on_c, 1, 78, 100
5, 44580, Note_on_c, 1, 78, 0
5, 44580, Note_on_c, 1, 75, 100
5, 44610, Note_on_c, 1, 75, 0
5, 44610, Note_on_c, 1, 73, 100
5, 44640, Note_on_c, 1, 73, 0
5, 44640, Note_on_c, 1, 71, 100
5, 44670, Note_on_c, 1, 71, 0
5, 44670, Note_on_c, 1, 83, 100
5, 44700, Note_on_c, 1, 83, 0
5, 44700, Note_on_c, 1, 81, 100
5, 44730, Note_on_c, 1, 81, 0
5, 44730, Note_on_c, 1, 80, 100
5, 44760, Note_on_c, 1, 80, 0
5, 44760, Note_on_c, 1, 78, 100
5, 44790, Note_on_c, 1, 78, 0
5, 44790, Note_on_c, 1, 81, 100
5, 44820, Note_on_c, 1, 81, 0
5, 44820, Note_on_c, 1, 78, 100
5, 44850, Note_on_c, 1, 78, 0
5, 44850, Note_on_c, 1, 76, 100
5, 44880, Note_on_c, 1, 76, 0
5, 44880, Note_on_c, 1, 75, 100
5, 44910, Note_on_c, 1, 75, 0
5, 44910, Note_on_c, 1, 78, 100
5, 44940, Note_on_c, 1, 78, 0
5, 44940, Note_on_c, 1, 75, 100
5, 44970, Note_on_c, 1, 75, 0
5, 44970, Note_on_c, 1, 73, 100
5, 45000, Note_on_c, 1, 73, 0
5, 45000, Note_on_c, 1, 71, 100
5, 45030, Note_on_c, 1, 71, 0
5, 45030, Note_on_c, 1, 81, 95
5, 45060, Note_on_c, 1, 81, 0
5, 45060, Note_on_c, 1, 80, 95
5, 45090, Note_on_c, 1, 80, 0
5, 45090, Note_on_c, 1, 78, 95
5, 45120, Note_on_c, 1, 78, 0
5, 45120, Note_on_c, 1, 76, 95
5, 45150, Note_on_c, 1, 76, 0
5, 45150, Note_on_c, 1, 80, 95
5, 45180, Note_on_c, 1, 80, 0
5, 45180, Note_on_c, 1, 76, 95
5, 45210, Note_on_c, 1, 76, 0
5, 45210, Note_on_c, 1, 75, 95
5, 45240, Note_on_c, 1, 75, 0
5, 45240, Note_on_c, 1, 73, 95
5, 45270, Note_on_c, 1, 73, 0
5, 45270, Note_on_c, 1, 76, 95
5, 45300, Note_on_c, 1, 76, 0
5, 45300, Note_on_c, 1, 73, 95
5, 45330, Note_on_c, 1, 73, 0
5, 45330, Note_on_c, 1, 71, 95
5, 45360, Note_on_c, 1, 71, 0
5, 45360, Note_on_c, 1, 69, 95
5, 45390, Note_on_c, 1, 69, 0
5, 45390, Note_on_c, 1, 80, 95
5, 45420, Note_on_c, 1, 80, 0
5, 45420, Note_on_c, 1, 78, 95
5, 45450, Note_on_c, 1, 78, 0
5, 45450, Note_on_c, 1, 76, 95
5, 45480, Note_on_c, 1, 76, 0
5, 45480, Note_on_c, 1, 75, 95
5, 45510, Note_on_c, 1, 75, 0
5, 45510, Note_on_c, 1, 78, 95
5, 45540, Note_on_c, 1, 78, 0
5, 45540, Note_on_c, 1, 75, 95
5, 45570, Note_on_c, 1, 75, 0
5, 45570, Note_on_c, 1, 73, 95
5, 45600, Note_on_c, 1, 73, 0
5, 45600, Note_on_c, 1, 71, 95
5, 45630, Note_on_c, 1, 71, 0
5, 45630, Note_on_c, 1, 75, 95
5, 45660, Note_on_c, 1, 75, 0
5, 45660, Note_on_c, 1, 71, 95
5, 45690, Note_on_c, 1, 71, 0
5, 45690, Note_on_c, 1, 69, 95
5, 45720, Note_on_c, 1, 69, 0
5, 45720, Note_on_c, 1, 68, 95
5, 45750, Note_on_c, 1, 68, 0
5, 45750, Note_on_c, 1, 76, 95
5, 45780, Note_on_c, 1, 76, 0
5, 45780, Note_on_c, 1, 73, 95
5, 45810, Note_on_c, 1, 73, 0
5, 45810, Note_on_c, 1, 71, 95
5, 45840, Note_on_c, 1, 71, 0
5, 45840, Note_on_c, 1, 69, 95
5, 45870, Note_on_c, 1, 69, 0
5, 45870, Note_on_c, 1, 73, 95
5, 45900, Note_on_c, 1, 73, 0
5, 45900, Note_on_c, 1, 69, 95
5, 45930, Note_on_c, 1, 69, 0
5, 45930, Note_on_c, 1, 68, 95
5, 45960, Note_on_c, 1, 68, 0
5, 45960, Note_on_c, 1, 66, 95
5, 45990, Note_on_c, 1, 66, 0
5, 45990, Note_on_c, 1, 69, 95
5, 46020, Note_on_c, 1, 69, 0
5, 46020, Note_on_c, 1, 66, 95
5, 46050, Note_on_c, 1, 66, 0
5, 46050, Note_on_c, 1, 64, 95
5, 46080, Note_on_c, 1, 64, 0
5, 46080, Note_on_c, 1, 63, 95
5, 46110, Note_on_c, 1, 63, 0
5, 46110, Note_on_c, 1, 66, 95
5, 46140, Note_on_c, 1, 66, 0
5, 46140, Note_on_c, 1, 69, 95
5, 46170, Note_on_c, 1, 69, 0
5, 46170, Note_on_c, 1, 73, 95
5, 46200, Note_on_c, 1, 73, 0
5, 46200, Note_on_c, 1, 71, 95
5, 46230, Note_on_c, 1, 71, 0
5, 46230, Note_on_c, 1, 75, 95
5, 46260, Note_on_c, 1, 75, 0
5, 46260, Note_on_c, 1, 78, 95
5, 46290, Note_on_c, 1, 78, 0
5, 46290, Note_on_c, 1, 80, 95
5, 46320, Note_on_c, 1, 80, 0
5, 46320, Note_on_c, 1, 81, 95
5, 46350, Note_on_c, 1, 81, 0
5, 46350, Note_on_c, 1, 80, 95
5, 46380, Note_on_c, 1, 80, 0
5, 46380, Note_on_c, 1, 81, 95
5, 46410, Note_on_c, 1, 81, 0
5, 46410, Note_on_c, 1, 78, 95
5, 46440, Note_on_c, 1, 78, 0
5, 46440, Note_on_c, 1, 80, 100
5, 46470, Note_on_c, 1, 80, 0
5, 46470, Note_on_c, 1, 76, 100
5, 46500, Note_on_c, 1, 76, 0
5, 46500, Note_on_c, 1, 80, 100
5, 46530, Note_on_c, 1, 80, 0
5, 46530, Note_on_c, 1, 83, 100
5, 46560, Note_on_c, 1, 83, 0
5, 46560, Note_on_c, 1, 88, 100
5, 46590, Note_on_c, 1, 88, 0
5, 46590, Note_on_c, 1, 83, 100
5, 46620, Note_on_c, 1, 83, 0
5, 46620, Note_on_c, 1, 80, 100
5, 46650, Note_on_c, 1, 80, 0
5, 46650, Note_on_c, 1, 76, 100
5, 46680, Note_on_c, 1, 76, 0
5, 46680, Note_on_c, 1, 71, 100
5, 46710, Note_on_c, 1, 71, 0
5, 46710, Note_on_c, 1, 76, 100
5, 46740, Note_on_c, 1, 76, 0
5, 46740, Note_on_c, 1, 88, 100
5, 46770, Note_on_c, 1, 88, 0
5, 46770, Note_on_c, 1, 87, 100
5, 46800, Note_on_c, 1, 87, 0
5, 46800, Note_on_c, 1, 88, 100
5, 46830, Note_on_c, 1, 88, 0
5, 46830, Note_on_c, 1, 83, 100
5, 46860, Note_on_c, 1, 83, 0
5, 46860, Note_on_c, 1, 80, 100
5, 46890, Note_on_c, 1, 80, 0
5, 46890, Note_on_c, 1, 76, 100
5, 46920, Note_on_c, 1, 76, 0
5, 46920, Note_on_c, 1, 74, 95
5, 46950, Note_on_c, 1, 74, 0
5, 46950, Note_on_c, 1, 76, 95
5, 46980, Note_on_c, 1, 76, 0
5, 46980, Note_on_c, 1, 73, 95
5, 47010, Note_on_c, 1, 73, 0
5, 47010, Note_on_c, 1, 76, 95
5, 47040, Note_on_c, 1, 76, 0
5, 47040, Note_on_c, 1, 74, 95
5, 47070, Note_on_c, 1, 74, 0
5, 47070, Note_on_c, 1, 76, 95
5, 47100, Note_on_c, 1, 76, 0
5, 47100, Note_on_c, 1, 71, 95
5, 47130, Note_on_c, 1, 71, 0
5, 47130, Note_on_c, 1, 76, 95
5, 47160, Note_on_c, 1, 76, 0
5, 47160, Note_on_c, 1, 73, 95
5, 47190, Note_on_c, 1, 73, 0
5, 47190, Note_on_c, 1, 76, 95
5, 47220, Note_on_c, 1, 76, 0
5, 47220, Note_on_c, 1, 81, 95
5, 47250, Note_on_c, 1, 81, 0
5, 47250, Note_on_c, 1, 76, 95
5, 47280, Note_on_c, 1, 76, 0
5, 47280, Note_on_c, 1, 73, 95
5, 47310, Note_on_c, 1, 73, 0
5, 47310, Note_on_c, 1, 76, 95
5, 47340, Note_on_c, 1, 76, 0
5, 47340, Note_on_c, 1, 71, 95
5, 47370, Note_on_c, 1, 71, 0
5, 47370, Note_on_c, 1, 76, 95
5, 47400, Note_on_c, 1, 76, 0
5, 47400, Note_on_c, 1, 73, 95
5, 47430, Note_on_c, 1, 73, 0
5, 47430, Note_on_c, 1, 76, 95
5, 47460, Note_on_c, 1, 76, 0
5, 47460, Note_on_c, 1, 69, 95
5, 47490, Note_on_c, 1, 69, 0
5, 47490, Note_on_c, 1, 76, 95
5, 47520, Note_on_c, 1, 76, 0
5, 47520, Note_on_c, 1, 71, 95
5, 47550, Note_on_c, 1, 71, 0
5, 47550, Note_on_c, 1, 76, 95
5, 47580, Note_on_c, 1, 76, 0
5, 47580, Note_on_c, 1, 80, 95
5, 47610, Note_on_c, 1, 80, 0
5, 47610, Note_on_c, 1, 76, 95
5, 47640, Note_on_c, 1, 76, 0
5, 47640, Note_on_c, 1, 71, 95
5, 47670, Note_on_c, 1, 71, 0
5, 47670, Note_on_c, 1, 76, 95
5, 47700, Note_on_c, 1, 76, 0
5, 47700, Note_on_c, 1, 69, 95
5, 47730, Note_on_c, 1, 69, 0
5, 47730, Note_on_c, 1, 76, 95
5, 47760, Note_on_c, 1, 76, 0
5, 47760, Note_on_c, 1, 71, 95
5, 47790, Note_on_c, 1, 71, 0
5, 47790, Note_on_c, 1, 76, 95
5, 47820, Note_on_c, 1, 76, 0
5, 47820, Note_on_c, 1, 68, 95
5, 47850, Note_on_c, 1, 68, 0
5, 47850, Note_on_c, 1, 76, 95
5, 47880, Note_on_c, 1, 76, 0
5, 47880, Note_on_c, 1, 69, 95
5, 47910, Note_on_c, 1, 69, 0
5, 47910, Note_on_c, 1, 76, 95
5, 47940, Note_on_c, 1, 76, 0
5, 47940, Note_on_c, 1, 78, 95
5, 47970, Note_on_c, 1, 78, 0
5, 47970, Note_on_c, 1, 76, 95
5, 48000, Note_on_c, 1, 76, 0
5, 48000, Note_on_c, 1, 75, 95
5, 48030, Note_on_c, 1, 75, 0
5, 48030, Note_on_c, 1, 76, 95
5, 48060, Note_on_c, 1, 76, 0
5, 48060, Note_on_c, 1, 76, 95
5, 48090, Note_on_c, 1, 76, 0
5, 48090, Note_on_c, 1, 76, 95
5, 48120, Note_on_c, 1, 76, 0
5, 48120, Note_on_c, 1, 78, 95
5, 48150, Note_on_c, 1, 78, 0
5, 48150, Note_on_c, 1, 76, 95
5, 48180, Note_on_c, 1, 76, 0
5, 48180, Note_on_c, 1, 80, 95
5, 48210, Note_on_c, 1, 80, 0
5, 48210, Note_on_c, 1, 76, 95
5, 48240, Note_on_c, 1, 76, 0
5, 48240, Note_on_c, 1, 81, 95
5, 48420, Note_on_c, 1, 81, 0
5, 48420, Note_on_c, 1, 83, 95
5, 48480, Note_on_c, 1, 83, 0
5, 48480, Note_on_c, 1, 80, 95
5, 48600, Note_on_c, 1, 80, 0
5, 48600, Note_on_c, 1, 57, 95
5, 48630, Note_on_c, 1, 57, 0
5, 48630, Note_on_c, 1, 81, 95
5, 48660, Note_on_c, 1, 81, 0
5, 48660, Note_on_c, 1, 80, 95
5, 48690, Note_on_c, 1, 80, 0
5, 48690, Note_on_c, 1, 81, 95
5, 48720, Note_on_c, 1, 81, 0
5, 48720, Note_on_c, 1, 78, 95
5, 48750, Note_on_c, 1, 78, 0
5, 48750, Note_on_c, 1, 78, 95
5, 48765, Note_on_c, 1, 78, 0
5, 48765, Note_on_c, 1, 80, 95
5, 48780, Note_on_c, 1, 80, 0
5, 48780, Note_on_c, 1, 78, 95
5, 48795, Note_on_c, 1, 78, 0
5, 48795, Note_on_c, 1, 80, 95
5, 48810, Note_on_c, 1, 80, 0
5, 48810, Note_on_c, 1, 78, 95
5, 48825, Note_on_c, 1, 78, 0
5, 48825, Note_on_c, 1, 80, 95
5, 48840, Note_on_c, 1, 80, 0
5, 48840, Note_on_c, 1, 78, 95
5, 48855, Note_on_c, 1, 78, 0
5, 48855, Note_on_c, 1, 80, 95
5, 48870, Note_on_c, 1, 80, 0
5, 48870, Note_on_c, 1, 78, 95
5, 48885, Note_on_c, 1, 78, 0
5, 48885, Note_on_c, 1, 80, 95
5, 48900, Note_on_c, 1, 80, 0
5, 48900, Note_on_c, 1, 78, 95
5, 48915, Note_on_c, 1, 78, 0
5, 48915, Note_on_c, 1, 76, 95
5, 48975, Note_on_c, 1, 76, 0
5, 48975, Note_on_c, 1, 76, 100
5, 49005, Note_on_c, 1, 76, 0
5, 49005, Note_on_c, 1, 88, 100
5, 49035, Note_on_c, 1, 88, 0
5, 49035, Note_on_c, 1, 87, 100
5, 49065, Note_on_c, 1, 87, 0
5, 49065, Note_on_c, 1, 85, 100
5, 49095, Note_on_c, 1, 85, 0
5, 49095, Note_on_c, 1, 83, 100
5, 49125, Note_on_c, 1, 83, 0
5, 49125, Note_on_c, 1, 88, 100
5, 49155, Note_on_c, 1, 88, 0
5, 49155, Note_on_c, 1, 81, 100
5, 49185, Note_on_c, 1, 81, 0
5, 49185, Note_on_c, 1, 88, 100
5, 49215, Note_on_c, 1, 88, 0
5, 49215, Note_on_c, 1, 80, 100
5, 49245, Note_on_c, 1, 80, 0
5, 49245, Note_on_c, 1, 88, 100
5, 49275, Note_on_c, 1, 88, 0
5, 49275, Note_on_c, 1, 78, 100
5, 49305, Note_on_c, 1, 78, 0
5, 49305, Note_on_c, 1, 88, 100
5, 49335, Note_on_c, 1, 88, 0
5, 49335, Note_on_c, 1, 76, 100
5, 49365, Note_on_c, 1, 76, 0
5, 49365, Note_on_c, 1, 76, 100
5, 49395, Note_on_c, 1, 76, 0
5, 49395, Note_on_c, 1, 75, 100
5, 49425, Note_on_c, 1, 75, 0
5, 49425, Note_on_c, 1, 73, 100
5, 49455, Note_on_c, 1, 73, 0
5, 49455, Note_on_c, 1, 71, 100
5, 49485, Note_on_c, 1, 71, 0
5, 49485, Note_on_c, 1, 76, 100
5, 49515, Note_on_c, 1, 76, 0
5, 49515, Note_on_c, 1, 69, 100
5, 49545, Note_on_c, 1, 69, 0
5, 49545, Note_on_c, 1, 76, 100
5, 49575, Note_on_c, 1, 76, 0
5, 49575, Note_on_c, 1, 68, 100
5, 49605, Note_on_c, 1, 68, 0
5, 49605, Note_on_c, 1, 76, 100
5, 49635, Note_on_c, 1, 76, 0
5, 49635, Note_on_c, 1, 66, 100
5, 49665, Note_on_c, 1, 66, 0
5, 49665, Note_on_c, 1, 76, 100
5, 49695, Note_on_c, 1, 76, 0
5, 49695, Note_on_c, 1, 64, 100
5, 49725, Note_on_c, 1, 64, 0
5, 49725, Note_on_c, 1, 68, 100
5, 49755, Note_on_c, 1, 68, 0
5, 49755, Note_on_c, 1, 71, 100
5, 49785, Note_on_c, 1, 71, 0
5, 49785, Note_on_c, 1, 75, 100
5, 49815, Note_on_c, 1, 75, 0
5, 49815, Note_on_c, 1, 76, 100
5, 49845, Note_on_c, 1, 76, 0
5, 49845, Note_on_c, 1, 80, 100
5, 49875, Note_on_c, 1, 80, 0
5, 49875, Note_on_c, 1, 83, 100
5, 49905, Note_on_c, 1, 83, 0
5, 49905, Note_on_c, 1, 87, 100
5, 49935, Note_on_c, 1, 87, 0
5, 49935, Note_on_c, 1, 88, 100
5, 50100, Note_on_c, 1, 88, 0
5, 50100, End_track
6, 0, Start_track
6, 0, MIDI_port, 0
6, 0, Title_t, "J.S. Bach"
6, 0, Program_c, 1, 91
6, 0, Control_c, 1, 10, 59
6, 0, Control_c, 1, 0, 0
6, 0, Control_c, 1, 121, 0
6, 48240, Note_on_c, 1, 75, 64
6, 48420, Note_on_c, 1, 75, 0
6, 48480, Note_on_c, 1, 71, 64
6, 48600, Note_on_c, 1, 71, 0
6, 48720, Note_on_c, 1, 71, 64
6, 48960, Note_on_c, 1, 71, 0
6, 48960, End_track
7, 0, Start_track
7, 0, MIDI_port, 0
7, 0, Title_t, "V. Phillips"
7, 0, Program_c, 1, 91
7, 0, Control_c, 1, 10, 59
7, 0, Control_c, 1, 0, 0
7, 0, Control_c, 1, 121, 0
7, 48240, Note_on_c, 1, 66, 64
7, 48240, Note_on_c, 1, 59, 64
7, 48360, Note_on_c, 1, 59, 0
7, 48360, Note_on_c, 1, 66, 0
7, 48480, Note_on_c, 1, 64, 64
7, 48600, Note_on_c, 1, 64, 0
7, 48600, End_track
0, 0, End_of_file
