0, 0, Header, 1, 14, 120
1, 0, Start_track
1, 0, Sequencer_specific, 3, 0, 0, 65
1, 0, Time_signature, 3, 2, 24, 8
1, 0, Key_signature, 0, "major"
1, 0, Tempo, 555555
1, 0, Marker_t, "Seq-1"
1, 0, Marker_t, "Piano"
1, 0, Marker_t, "Piano"
1, 0, Marker_t, "Brahms Sonata No.1 for Violin and Piano in G major Op78"
1, 0, Marker_t, "Vivace ma non troppo"
1, 0, Marker_t, "Recorded by Dr. Chew"
1, 0, Marker_t, "Creative Labs. Inc"
1, 0, Marker_t, "Brahms Sonata No.1 for Violin and Piano in G major Op78"
1, 0, Marker_t, "Vivace ma non troppo"
1, 0, Marker_t, "Recorded by Dr. Chew"
1, 0, Marker_t, "Creative Labs. Inc"
1, 0, Marker_t, "Brahms Sonata No.1 for Violin and Piano in G major Op78"
1, 0, Marker_t, "Vivace ma non troppo"
1, 0, Marker_t, "Recorded by Dr. Chew"
1, 0, Marker_t, "Creative Labs. Inc"
1, 0, Marker_t, "Brahms Sonata No.1 for Violin and Piano in G major Op78"
1, 0, Marker_t, "Vivace ma non troppo"
1, 0, Marker_t, "Recorded by Dr. Chew"
1, 0, Marker_t, "Creative Labs Inc. (c) 1992"
1, 22320, Tempo, 571428
1, 22678, Tempo, 571428
1, 22686, Tempo, 576923
1, 22700, Tempo, 588235
1, 22728, Tempo, 600000
1, 22764, Tempo, 606060
1, 22776, Tempo, 612244
1, 22800, Tempo, 625000
1, 22828, Tempo, 638297
1, 22872, Tempo, 652173
1, 22908, Tempo, 666666
1, 22924, Tempo, 674157
1, 22936, Tempo, 681818
1, 22968, Tempo, 689655
1, 22980, Tempo, 697674
1, 23008, Tempo, 705882
1, 23014, Tempo, 714285
1, 23036, Tempo, 731707
1, 23042, Tempo, 659340
1, 23044, Tempo, 645161
1, 23044, End_track
2, 0, Start_track
2, 0, MIDI_port, 0
2, 0, Title_t, "Piano               "
2, 0, Program_c, 0, 1
2, 0, Control_c, 0, 7, 120
2, 0, Control_c, 0, 10, 60
2, 360, Control_c, 0, 1, 0
2, 360, Control_c, 0, 93, 30
2, 360, Control_c, 0, 91, 60
2, 360, Control_c, 0, 64, 0
2, 360, Control_c, 0, 7, 120
2, 360, Note_on_c, 0, 67, 101
2, 390, Note_on_c, 0, 66, 116
2, 393, Note_on_c, 0, 67, 0
2, 416, Note_on_c, 0, 66, 0
2, 420, Note_on_c, 0, 67, 112
2, 510, Note_on_c, 0, 62, 93
2, 526, Note_on_c, 0, 67, 0
2, 540, Note_on_c, 0, 64, 106
2, 546, Note_on_c, 0, 62, 0
2, 568, Note_on_c, 0, 64, 0
2, 570, Note_on_c, 0, 66, 99
2, 595, Note_on_c, 0, 66, 0
2, 600, Note_on_c, 0, 67, 106
2, 630, Note_on_c, 0, 69, 113
2, 635, Note_on_c, 0, 67, 0
2, 660, Note_on_c, 0, 71, 111
2, 660, Note_on_c, 0, 69, 0
2, 690, Note_on_c, 0, 73, 112
2, 690, Note_on_c, 0, 71, 0
2, 718, Note_on_c, 0, 73, 0
2, 720, Note_on_c, 0, 74, 113
2, 750, Note_on_c, 0, 73, 105
2, 756, Note_on_c, 0, 74, 0
2, 776, Note_on_c, 0, 73, 0
2, 780, Note_on_c, 0, 74, 117
2, 870, Note_on_c, 0, 69, 114
2, 881, Note_on_c, 0, 74, 0
2, 900, Note_on_c, 0, 71, 114
2, 905, Note_on_c, 0, 69, 0
2, 930, Note_on_c, 0, 73, 112
2, 933, Note_on_c, 0, 71, 0
2, 958, Note_on_c, 0, 73, 0
2, 960, Note_on_c, 0, 74, 110
2, 990, Note_on_c, 0, 76, 99
2, 995, Note_on_c, 0, 74, 0
2, 1020, Note_on_c, 0, 78, 107
2, 1025, Note_on_c, 0, 76, 0
2, 1045, Note_on_c, 0, 78, 0
2, 1050, Note_on_c, 0, 74, 97
2, 1080, Note_on_c, 0, 79, 103
2, 1088, Note_on_c, 0, 74, 0
2, 1110, Note_on_c, 0, 78, 98
2, 1117, Note_on_c, 0, 79, 0
2, 1135, Note_on_c, 0, 78, 0
2, 1140, Note_on_c, 0, 79, 107
2, 1230, Note_on_c, 0, 78, 106
2, 1248, Note_on_c, 0, 79, 0
2, 1260, Note_on_c, 0, 76, 98
2, 1260, Note_on_c, 0, 78, 0
2, 1290, Note_on_c, 0, 74, 101
2, 1290, Note_on_c, 0, 76, 0
2, 1320, Note_on_c, 0, 73, 112
2, 1323, Note_on_c, 0, 74, 0
2, 1347, Note_on_c, 0, 73, 0
2, 1350, Note_on_c, 0, 76, 103
2, 1380, Note_on_c, 0, 69, 106
2, 1381, Note_on_c, 0, 76, 0
2, 1410, Note_on_c, 0, 67, 101
2, 1410, Note_on_c, 0, 69, 0
2, 1440, Note_on_c, 0, 66, 110
2, 1440, Note_on_c, 0, 67, 0
2, 1470, Note_on_c, 0, 69, 107
2, 1471, Note_on_c, 0, 66, 0
2, 1497, Note_on_c, 0, 69, 0
2, 1500, Note_on_c, 0, 62, 110
2, 1530, Note_on_c, 0, 61, 104
2, 1533, Note_on_c, 0, 62, 0
2, 1560, Note_on_c, 0, 62, 100
2, 1561, Note_on_c, 0, 61, 0
2, 1590, Note_on_c, 0, 66, 99
2, 1590, Note_on_c, 0, 62, 0
2, 1617, Note_on_c, 0, 66, 0
2, 1620, Note_on_c, 0, 57, 101
2, 1650, Note_on_c, 0, 55, 93
2, 1658, Note_on_c, 0, 57, 0
2, 1680, Note_on_c, 0, 54, 106
2, 1685, Note_on_c, 0, 55, 0
2, 1710, Note_on_c, 0, 57, 87
2, 1710, Note_on_c, 0, 54, 0
2, 1740, Note_on_c, 0, 50, 97
2, 1743, Note_on_c, 0, 57, 0
2, 1788, Note_on_c, 0, 50, 0
2, 1860, Note_on_c, 0, 74, 111
2, 1890, Note_on_c, 0, 72, 108
2, 1890, Note_on_c, 0, 74, 0
2, 1920, Note_on_c, 0, 74, 114
2, 1926, Note_on_c, 0, 72, 0
2, 1946, Note_on_c, 0, 74, 0
2, 1980, Note_on_c, 0, 67, 101
2, 1999, Note_on_c, 0, 67, 0
2, 2040, Note_on_c, 0, 59, 97
2, 2065, Note_on_c, 0, 59, 0
2, 2100, Note_on_c, 0, 74, 94
2, 2134, Note_on_c, 0, 74, 0
2, 2220, Note_on_c, 0, 76, 101
2, 2250, Note_on_c, 0, 74, 101
2, 2251, Note_on_c, 0, 76, 0
2, 2280, Note_on_c, 0, 76, 117
2, 2283, Note_on_c, 0, 74, 0
2, 2303, Note_on_c, 0, 76, 0
2, 2340, Note_on_c, 0, 69, 113
2, 2365, Note_on_c, 0, 69, 0
2, 2400, Note_on_c, 0, 60, 121
2, 2424, Note_on_c, 0, 60, 0
2, 2460, Note_on_c, 0, 76, 98
2, 2486, Note_on_c, 0, 76, 0
2, 2580, Note_on_c, 0, 78, 107
2, 2608, Note_on_c, 0, 78, 0
2, 2610, Note_on_c, 0, 76, 102
2, 2640, Note_on_c, 0, 78, 120
2, 2648, Note_on_c, 0, 76, 0
2, 2700, Note_on_c, 0, 74, 107
2, 2704, Note_on_c, 0, 78, 0
2, 2760, Note_on_c, 0, 81, 122
2, 2765, Note_on_c, 0, 74, 0
2, 2813, Note_on_c, 0, 81, 0
2, 2820, Note_on_c, 0, 72, 109
2, 2940, Note_on_c, 0, 71, 114
2, 2945, Note_on_c, 0, 72, 0
2, 2993, Note_on_c, 0, 71, 0
2, 3030, Note_on_c, 0, 67, 99
2, 3060, Note_on_c, 0, 71, 103
2, 3068, Note_on_c, 0, 67, 0
2, 3090, Note_on_c, 0, 74, 111
2, 3091, Note_on_c, 0, 71, 0
2, 3116, Note_on_c, 0, 74, 0
2, 3120, Note_on_c, 0, 79, 112
2, 3150, Note_on_c, 0, 74, 104
2, 3154, Note_on_c, 0, 79, 0
2, 3180, Note_on_c, 0, 79, 113
2, 3188, Note_on_c, 0, 74, 0
2, 3210, Note_on_c, 0, 81, 108
2, 3215, Note_on_c, 0, 79, 0
2, 3240, Note_on_c, 0, 83, 116
2, 3240, Note_on_c, 0, 81, 0
2, 3270, Note_on_c, 0, 79, 113
2, 3277, Note_on_c, 0, 83, 0
2, 3300, Note_on_c, 0, 74, 109
2, 3302, Note_on_c, 0, 79, 0
2, 3330, Note_on_c, 0, 71, 98
2, 3331, Note_on_c, 0, 74, 0
2, 3360, Note_on_c, 0, 67, 106
2, 3360, Note_on_c, 0, 71, 0
2, 3387, Note_on_c, 0, 67, 0
2, 3390, Note_on_c, 0, 71, 101
2, 3420, Note_on_c, 0, 74, 104
2, 3428, Note_on_c, 0, 71, 0
2, 3450, Note_on_c, 0, 79, 99
2, 3457, Note_on_c, 0, 74, 0
2, 3480, Note_on_c, 0, 83, 106
2, 3480, Note_on_c, 0, 79, 0
2, 3510, Note_on_c, 0, 79, 99
2, 3517, Note_on_c, 0, 83, 0
2, 3540, Note_on_c, 0, 78, 103
2, 3548, Note_on_c, 0, 79, 0
2, 3568, Note_on_c, 0, 78, 0
2, 3570, Note_on_c, 0, 76, 94
2, 3600, Note_on_c, 0, 81, 99
2, 3600, Note_on_c, 0, 76, 0
2, 3630, Note_on_c, 0, 76, 97
2, 3638, Note_on_c, 0, 81, 0
2, 3660, Note_on_c, 0, 73, 108
2, 3664, Note_on_c, 0, 76, 0
2, 3690, Note_on_c, 0, 69, 104
2, 3691, Note_on_c, 0, 73, 0
2, 3720, Note_on_c, 0, 66, 103
2, 3723, Note_on_c, 0, 69, 0
2, 3750, Note_on_c, 0, 69, 101
2, 3752, Note_on_c, 0, 66, 0
2, 3780, Note_on_c, 0, 73, 103
2, 3788, Note_on_c, 0, 69, 0
2, 3810, Note_on_c, 0, 76, 101
2, 3817, Note_on_c, 0, 73, 0
2, 3840, Note_on_c, 0, 81, 108
2, 3847, Note_on_c, 0, 76, 0
2, 3870, Note_on_c, 0, 78, 107
2, 3885, Note_on_c, 0, 81, 0
2, 3900, Note_on_c, 0, 76, 107
2, 3903, Note_on_c, 0, 78, 0
2, 3929, Note_on_c, 0, 76, 0
2, 3930, Note_on_c, 0, 74, 104
2, 3960, Note_on_c, 0, 79, 107
2, 3966, Note_on_c, 0, 74, 0
2, 3990, Note_on_c, 0, 74, 107
2, 4002, Note_on_c, 0, 79, 0
2, 4020, Note_on_c, 0, 71, 105
2, 4023, Note_on_c, 0, 74, 0
2, 4048, Note_on_c, 0, 71, 0
2, 4050, Note_on_c, 0, 67, 105
2, 4080, Note_on_c, 0, 64, 100
2, 4086, Note_on_c, 0, 67, 0
2, 4108, Note_on_c, 0, 64, 0
2, 4110, Note_on_c, 0, 67, 98
2, 4140, Note_on_c, 0, 71, 106
2, 4148, Note_on_c, 0, 67, 0
2, 4170, Note_on_c, 0, 74, 111
2, 4178, Note_on_c, 0, 71, 0
2, 4200, Note_on_c, 0, 79, 116
2, 4204, Note_on_c, 0, 74, 0
2, 4230, Note_on_c, 0, 78, 108
2, 4242, Note_on_c, 0, 79, 0
2, 4260, Note_on_c, 0, 76, 102
2, 4263, Note_on_c, 0, 78, 0
2, 4290, Note_on_c, 0, 74, 97
2, 4293, Note_on_c, 0, 76, 0
2, 4320, Note_on_c, 0, 73, 113
2, 4323, Note_on_c, 0, 74, 0
2, 4350, Note_on_c, 0, 67, 108
2, 4352, Note_on_c, 0, 73, 0
2, 4380, Note_on_c, 0, 64, 105
2, 4382, Note_on_c, 0, 67, 0
2, 4410, Note_on_c, 0, 61, 101
2, 4412, Note_on_c, 0, 64, 0
2, 4440, Note_on_c, 0, 57, 102
2, 4440, Note_on_c, 0, 61, 0
2, 4470, Note_on_c, 0, 61, 105
2, 4478, Note_on_c, 0, 57, 0
2, 4500, Note_on_c, 0, 64, 107
2, 4501, Note_on_c, 0, 61, 0
2, 4530, Note_on_c, 0, 67, 106
2, 4530, Note_on_c, 0, 64, 0
2, 4560, Note_on_c, 0, 73, 115
2, 4561, Note_on_c, 0, 67, 0
2, 4590, Note_on_c, 0, 76, 113
2, 4595, Note_on_c, 0, 73, 0
2, 4620, Note_on_c, 0, 74, 113
2, 4627, Note_on_c, 0, 76, 0
2, 4650, Note_on_c, 0, 73, 118
2, 4655, Note_on_c, 0, 74, 0
2, 4680, Note_on_c, 0, 74, 114
2, 4683, Note_on_c, 0, 73, 0
2, 4728, Note_on_c, 0, 74, 0
2, 4740, Note_on_c, 0, 54, 109
2, 4762, Note_on_c, 0, 54, 0
2, 4800, Note_on_c, 0, 54, 118
2, 4830, Note_on_c, 0, 54, 0
2, 4860, Note_on_c, 0, 69, 120
2, 4920, Note_on_c, 0, 74, 117
2, 4923, Note_on_c, 0, 69, 0
2, 4980, Note_on_c, 0, 78, 113
2, 4990, Note_on_c, 0, 74, 0
2, 5038, Note_on_c, 0, 78, 0
2, 5040, Note_on_c, 0, 71, 114
2, 5100, Note_on_c, 0, 55, 120
2, 5103, Note_on_c, 0, 71, 0
2, 5126, Note_on_c, 0, 55, 0
2, 5160, Note_on_c, 0, 55, 127
2, 5189, Note_on_c, 0, 55, 0
2, 5220, Note_on_c, 0, 71, 123
2, 5280, Note_on_c, 0, 76, 108
2, 5292, Note_on_c, 0, 71, 0
2, 5336, Note_on_c, 0, 76, 0
2, 5340, Note_on_c, 0, 79, 111
2, 5377, Note_on_c, 0, 79, 0
2, 5400, Note_on_c, 0, 73, 116
2, 5430, Note_on_c, 0, 76, 106
2, 5434, Note_on_c, 0, 73, 0
2, 5460, Note_on_c, 0, 69, 116
2, 5462, Note_on_c, 0, 76, 0
2, 5486, Note_on_c, 0, 69, 0
2, 5490, Note_on_c, 0, 67, 102
2, 5520, Note_on_c, 0, 66, 112
2, 5521, Note_on_c, 0, 67, 0
2, 5547, Note_on_c, 0, 66, 0
2, 5550, Note_on_c, 0, 69, 111
2, 5580, Note_on_c, 0, 74, 110
2, 5590, Note_on_c, 0, 69, 0
2, 5610, Note_on_c, 0, 78, 108
2, 5618, Note_on_c, 0, 74, 0
2, 5635, Note_on_c, 0, 78, 0
2, 5640, Note_on_c, 0, 79, 116
2, 5670, Note_on_c, 0, 76, 109
2, 5680, Note_on_c, 0, 79, 0
2, 5700, Note_on_c, 0, 74, 103
2, 5701, Note_on_c, 0, 76, 0
2, 5730, Note_on_c, 0, 73, 112
2, 5732, Note_on_c, 0, 74, 0
2, 5760, Note_on_c, 0, 78, 114
2, 5765, Note_on_c, 0, 73, 0
2, 5790, Note_on_c, 0, 74, 107
2, 5795, Note_on_c, 0, 78, 0
2, 5820, Note_on_c, 0, 73, 112
2, 5823, Note_on_c, 0, 74, 0
2, 5847, Note_on_c, 0, 73, 0
2, 5850, Note_on_c, 0, 71, 106
2, 5880, Note_on_c, 0, 69, 101
2, 5887, Note_on_c, 0, 71, 0
2, 5910, Note_on_c, 0, 67, 97
2, 5916, Note_on_c, 0, 69, 0
2, 5940, Note_on_c, 0, 66, 105
2, 5941, Note_on_c, 0, 67, 0
2, 5968, Note_on_c, 0, 66, 0
2, 5970, Note_on_c, 0, 64, 101
2, 6000, Note_on_c, 0, 62, 99
2, 6012, Note_on_c, 0, 64, 0
2, 6073, Note_on_c, 0, 62, 0
2, 11880, Note_on_c, 0, 78, 110
2, 11910, Note_on_c, 0, 79, 97
2, 11917, Note_on_c, 0, 78, 0
2, 11940, Note_on_c, 0, 81, 116
2, 11940, Note_on_c, 0, 79, 0
2, 12030, Note_on_c, 0, 83, 116
2, 12045, Note_on_c, 0, 81, 0
2, 12060, Note_on_c, 0, 81, 109
2, 12061, Note_on_c, 0, 83, 0
2, 12090, Note_on_c, 0, 79, 104
2, 12098, Note_on_c, 0, 81, 0
2, 12120, Note_on_c, 0, 78, 108
2, 12126, Note_on_c, 0, 79, 0
2, 12148, Note_on_c, 0, 78, 0
2, 12150, Note_on_c, 0, 76, 100
2, 12180, Note_on_c, 0, 74, 108
2, 12190, Note_on_c, 0, 76, 0
2, 12210, Note_on_c, 0, 72, 101
2, 12212, Note_on_c, 0, 74, 0
2, 12240, Note_on_c, 0, 71, 116
2, 12245, Note_on_c, 0, 72, 0
2, 12270, Note_on_c, 0, 72, 122
2, 12280, Note_on_c, 0, 71, 0
2, 12300, Note_on_c, 0, 74, 124
2, 12306, Note_on_c, 0, 72, 0
2, 12390, Note_on_c, 0, 76, 119
2, 12403, Note_on_c, 0, 74, 0
2, 12420, Note_on_c, 0, 74, 112
2, 12422, Note_on_c, 0, 76, 0
2, 12450, Note_on_c, 0, 72, 107
2, 12454, Note_on_c, 0, 74, 0
2, 12480, Note_on_c, 0, 71, 104
2, 12488, Note_on_c, 0, 72, 0
2, 12505, Note_on_c, 0, 71, 0
2, 12510, Note_on_c, 0, 69, 102
2, 12540, Note_on_c, 0, 67, 98
2, 12541, Note_on_c, 0, 69, 0
2, 12570, Note_on_c, 0, 66, 94
2, 12572, Note_on_c, 0, 67, 0
2, 12600, Note_on_c, 0, 64, 96
2, 12600, Note_on_c, 0, 66, 0
2, 12630, Note_on_c, 0, 68, 103
2, 12638, Note_on_c, 0, 64, 0
2, 12657, Note_on_c, 0, 68, 0
2, 12660, Note_on_c, 0, 69, 96
2, 12687, Note_on_c, 0, 69, 0
2, 12690, Note_on_c, 0, 71, 101
2, 12720, Note_on_c, 0, 69, 110
2, 12726, Note_on_c, 0, 71, 0
2, 12750, Note_on_c, 0, 64, 98
2, 12755, Note_on_c, 0, 69, 0
2, 12780, Note_on_c, 0, 69, 118
2, 12786, Note_on_c, 0, 64, 0
2, 12806, Note_on_c, 0, 69, 0
2, 12810, Note_on_c, 0, 71, 104
2, 12840, Note_on_c, 0, 72, 118
2, 12844, Note_on_c, 0, 71, 0
2, 12870, Note_on_c, 0, 69, 117
2, 12870, Note_on_c, 0, 72, 0
2, 12900, Note_on_c, 0, 75, 120
2, 12911, Note_on_c, 0, 69, 0
2, 12930, Note_on_c, 0, 76, 122
2, 12935, Note_on_c, 0, 75, 0
2, 12960, Note_on_c, 0, 78, 124
2, 12970, Note_on_c, 0, 76, 0
2, 12990, Note_on_c, 0, 76, 119
2, 12999, Note_on_c, 0, 78, 0
2, 13020, Note_on_c, 0, 75, 116
2, 13030, Note_on_c, 0, 76, 0
2, 13050, Note_on_c, 0, 73, 114
2, 13052, Note_on_c, 0, 75, 0
2, 13080, Note_on_c, 0, 71, 105
2, 13091, Note_on_c, 0, 73, 0
2, 13350, Note_on_c, 0, 75, 100
2, 13374, Note_on_c, 0, 71, 0
2, 13380, Note_on_c, 0, 76, 102
2, 13385, Note_on_c, 0, 75, 0
2, 13470, Note_on_c, 0, 63, 92
2, 13470, Note_on_c, 0, 76, 0
2, 13499, Note_on_c, 0, 63, 0
2, 13500, Note_on_c, 0, 64, 95
2, 13590, Note_on_c, 0, 51, 89
2, 13590, Note_on_c, 0, 64, 0
2, 13620, Note_on_c, 0, 52, 89
2, 13620, Note_on_c, 0, 51, 0
2, 13680, Note_on_c, 0, 52, 0
2, 13710, Note_on_c, 0, 80, 100
2, 13740, Note_on_c, 0, 81, 102
2, 13745, Note_on_c, 0, 80, 0
2, 13830, Note_on_c, 0, 68, 92
2, 13830, Note_on_c, 0, 81, 0
2, 13859, Note_on_c, 0, 68, 0
2, 13860, Note_on_c, 0, 69, 95
2, 13950, Note_on_c, 0, 56, 89
2, 13950, Note_on_c, 0, 69, 0
2, 13980, Note_on_c, 0, 57, 89
2, 13980, Note_on_c, 0, 56, 0
2, 14070, Note_on_c, 0, 59, 88
2, 14085, Note_on_c, 0, 57, 0
2, 14100, Note_on_c, 0, 60, 93
2, 14105, Note_on_c, 0, 59, 0
2, 14130, Note_on_c, 0, 65, 100
2, 14134, Note_on_c, 0, 60, 0
2, 14160, Note_on_c, 0, 59, 101
2, 14160, Note_on_c, 0, 65, 0
2, 14190, Note_on_c, 0, 63, 104
2, 14196, Note_on_c, 0, 59, 0
2, 14220, Note_on_c, 0, 64, 103
2, 14221, Note_on_c, 0, 63, 0
2, 14249, Note_on_c, 0, 64, 0
2, 14250, Note_on_c, 0, 67, 111
2, 14280, Note_on_c, 0, 66, 102
2, 14288, Note_on_c, 0, 67, 0
2, 14310, Note_on_c, 0, 64, 102
2, 14313, Note_on_c, 0, 66, 0
2, 14339, Note_on_c, 0, 64, 0
2, 14340, Note_on_c, 0, 63, 95
2, 14370, Note_on_c, 0, 69, 104
2, 14372, Note_on_c, 0, 63, 0
2, 14400, Note_on_c, 0, 67, 102
2, 14400, Note_on_c, 0, 69, 0
2, 14430, Note_on_c, 0, 66, 98
2, 14435, Note_on_c, 0, 67, 0
2, 14460, Note_on_c, 0, 64, 102
2, 14460, Note_on_c, 0, 66, 0
2, 14490, Note_on_c, 0, 63, 98
2, 14493, Note_on_c, 0, 64, 0
2, 14520, Note_on_c, 0, 64, 106
2, 14523, Note_on_c, 0, 63, 0
2, 14550, Note_on_c, 0, 67, 98
2, 14554, Note_on_c, 0, 64, 0
2, 14577, Note_on_c, 0, 67, 0
2, 14580, Note_on_c, 0, 59, 103
2, 14610, Note_on_c, 0, 57, 91
2, 14620, Note_on_c, 0, 59, 0
2, 14640, Note_on_c, 0, 55, 96
2, 14645, Note_on_c, 0, 57, 0
2, 14670, Note_on_c, 0, 59, 92
2, 14673, Note_on_c, 0, 55, 0
2, 14700, Note_on_c, 0, 52, 102
2, 14703, Note_on_c, 0, 59, 0
2, 14736, Note_on_c, 0, 52, 0
2, 14820, Note_on_c, 0, 76, 107
2, 14841, Note_on_c, 0, 76, 0
2, 14880, Note_on_c, 0, 72, 122
2, 14918, Note_on_c, 0, 72, 0
2, 14940, Note_on_c, 0, 76, 114
2, 14961, Note_on_c, 0, 76, 0
2, 15000, Note_on_c, 0, 81, 108
2, 15028, Note_on_c, 0, 81, 0
2, 15060, Note_on_c, 0, 69, 113
2, 15085, Note_on_c, 0, 69, 0
2, 15180, Note_on_c, 0, 74, 119
2, 15218, Note_on_c, 0, 74, 0
2, 15240, Note_on_c, 0, 71, 108
2, 15275, Note_on_c, 0, 71, 0
2, 15300, Note_on_c, 0, 74, 106
2, 15323, Note_on_c, 0, 74, 0
2, 15360, Note_on_c, 0, 79, 108
2, 15393, Note_on_c, 0, 79, 0
2, 15420, Note_on_c, 0, 67, 103
2, 15459, Note_on_c, 0, 67, 0
2, 15480, Note_on_c, 0, 72, 112
2, 15510, Note_on_c, 0, 69, 110
2, 15513, Note_on_c, 0, 72, 0
2, 15540, Note_on_c, 0, 64, 103
2, 15541, Note_on_c, 0, 69, 0
2, 15570, Note_on_c, 0, 60, 104
2, 15570, Note_on_c, 0, 64, 0
2, 15600, Note_on_c, 0, 57, 99
2, 15605, Note_on_c, 0, 60, 0
2, 15624, Note_on_c, 0, 57, 0
2, 15630, Note_on_c, 0, 60, 103
2, 15660, Note_on_c, 0, 64, 106
2, 15670, Note_on_c, 0, 60, 0
2, 15690, Note_on_c, 0, 69, 120
2, 15695, Note_on_c, 0, 64, 0
2, 15720, Note_on_c, 0, 72, 123
2, 15723, Note_on_c, 0, 69, 0
2, 15750, Note_on_c, 0, 69, 119
2, 15751, Note_on_c, 0, 72, 0
2, 15780, Note_on_c, 0, 72, 117
2, 15788, Note_on_c, 0, 69, 0
2, 15810, Note_on_c, 0, 76, 116
2, 15816, Note_on_c, 0, 72, 0
2, 15840, Note_on_c, 0, 78, 115
2, 15845, Note_on_c, 0, 76, 0
2, 15870, Note_on_c, 0, 72, 113
2, 15878, Note_on_c, 0, 78, 0
2, 15895, Note_on_c, 0, 72, 0
2, 15900, Note_on_c, 0, 69, 114
2, 15926, Note_on_c, 0, 69, 0
2, 15930, Note_on_c, 0, 66, 100
2, 15960, Note_on_c, 0, 62, 109
2, 15963, Note_on_c, 0, 66, 0
2, 15990, Note_on_c, 0, 66, 105
2, 15992, Note_on_c, 0, 62, 0
2, 16016, Note_on_c, 0, 66, 0
2, 16020, Note_on_c, 0, 69, 117
2, 16046, Note_on_c, 0, 69, 0
2, 16050, Note_on_c, 0, 72, 113
2, 16073, Note_on_c, 0, 72, 0
2, 16080, Note_on_c, 0, 78, 120
2, 16110, Note_on_c, 0, 72, 114
2, 16112, Note_on_c, 0, 78, 0
2, 16140, Note_on_c, 0, 78, 120
2, 16155, Note_on_c, 0, 72, 0
2, 16170, Note_on_c, 0, 81, 123
2, 16175, Note_on_c, 0, 78, 0
2, 16200, Note_on_c, 0, 83, 127
2, 16203, Note_on_c, 0, 81, 0
2, 16230, Note_on_c, 0, 79, 116
2, 16246, Note_on_c, 0, 83, 0
2, 16260, Note_on_c, 0, 74, 117
2, 16263, Note_on_c, 0, 79, 0
2, 16290, Note_on_c, 0, 71, 114
2, 16293, Note_on_c, 0, 74, 0
2, 16320, Note_on_c, 0, 67, 118
2, 16325, Note_on_c, 0, 71, 0
2, 16346, Note_on_c, 0, 67, 0
2, 16350, Note_on_c, 0, 71, 122
2, 16380, Note_on_c, 0, 74, 122
2, 16391, Note_on_c, 0, 71, 0
2, 16410, Note_on_c, 0, 79, 124
2, 16418, Note_on_c, 0, 74, 0
2, 16440, Note_on_c, 0, 83, 127
2, 16443, Note_on_c, 0, 79, 0
2, 16470, Note_on_c, 0, 77, 123
2, 16475, Note_on_c, 0, 83, 0
2, 16500, Note_on_c, 0, 83, 127
2, 16512, Note_on_c, 0, 77, 0
2, 16530, Note_on_c, 0, 86, 127
2, 16536, Note_on_c, 0, 83, 0
2, 16560, Note_on_c, 0, 76, 127
2, 16565, Note_on_c, 0, 86, 0
2, 16590, Note_on_c, 0, 86, 127
2, 16600, Note_on_c, 0, 76, 0
2, 16620, Note_on_c, 0, 84, 127
2, 16626, Note_on_c, 0, 86, 0
2, 16650, Note_on_c, 0, 76, 118
2, 16655, Note_on_c, 0, 84, 0
2, 16680, Note_on_c, 0, 74, 127
2, 16680, Note_on_c, 0, 76, 0
2, 16710, Note_on_c, 0, 84, 127
2, 16721, Note_on_c, 0, 74, 0
2, 16740, Note_on_c, 0, 83, 120
2, 16747, Note_on_c, 0, 84, 0
2, 16770, Note_on_c, 0, 74, 114
2, 16770, Note_on_c, 0, 83, 0
2, 16800, Note_on_c, 0, 72, 127
2, 16800, Note_on_c, 0, 74, 0
2, 16830, Note_on_c, 0, 76, 126
2, 16845, Note_on_c, 0, 72, 0
2, 16860, Note_on_c, 0, 78, 127
2, 16873, Note_on_c, 0, 76, 0
2, 16890, Note_on_c, 0, 79, 116
2, 16895, Note_on_c, 0, 78, 0
2, 16920, Note_on_c, 0, 81, 127
2, 16920, Note_on_c, 0, 79, 0
2, 16950, Note_on_c, 0, 72, 123
2, 16953, Note_on_c, 0, 81, 0
2, 16980, Note_on_c, 0, 71, 126
2, 16993, Note_on_c, 0, 72, 0
2, 17010, Note_on_c, 0, 69, 120
2, 17011, Note_on_c, 0, 71, 0
2, 17040, Note_on_c, 0, 71, 127
2, 17051, Note_on_c, 0, 69, 0
2, 17070, Note_on_c, 0, 74, 114
2, 17077, Note_on_c, 0, 71, 0
2, 17100, Note_on_c, 0, 71, 120
2, 17107, Note_on_c, 0, 74, 0
2, 17128, Note_on_c, 0, 71, 0
2, 17130, Note_on_c, 0, 67, 111
2, 17160, Note_on_c, 0, 72, 119
2, 17170, Note_on_c, 0, 67, 0
2, 17190, Note_on_c, 0, 69, 113
2, 17200, Note_on_c, 0, 72, 0
2, 17220, Note_on_c, 0, 67, 114
2, 17232, Note_on_c, 0, 69, 0
2, 17250, Note_on_c, 0, 66, 112
2, 17250, Note_on_c, 0, 67, 0
2, 17280, Note_on_c, 0, 71, 122
2, 17283, Note_on_c, 0, 66, 0
2, 17310, Note_on_c, 0, 67, 113
2, 17314, Note_on_c, 0, 71, 0
2, 17340, Note_on_c, 0, 66, 107
2, 17345, Note_on_c, 0, 67, 0
2, 17370, Note_on_c, 0, 64, 107
2, 17378, Note_on_c, 0, 66, 0
2, 17400, Note_on_c, 0, 62, 113
2, 17401, Note_on_c, 0, 64, 0
2, 17430, Note_on_c, 0, 60, 109
2, 17441, Note_on_c, 0, 62, 0
2, 17460, Note_on_c, 0, 59, 104
2, 17465, Note_on_c, 0, 60, 0
2, 17490, Note_on_c, 0, 57, 96
2, 17491, Note_on_c, 0, 59, 0
2, 17520, Note_on_c, 0, 55, 102
2, 17531, Note_on_c, 0, 57, 0
2, 17625, Note_on_c, 0, 55, 0
2, 23400, Control_c, 0, 1, 0
2, 23400, End_track
3, 0, Start_track
3, 0, MIDI_port, 0
3, 0, Title_t, "Piano               "
3, 0, Program_c, 1, 1
3, 0, Control_c, 1, 7, 120
3, 0, Control_c, 1, 10, 20
3, 360, Control_c, 1, 121, 0
3, 360, Control_c, 1, 91, 69
3, 360, Control_c, 1, 93, 10
3, 360, Control_c, 1, 7, 120
3, 360, Note_on_c, 1, 43, 103
3, 396, Note_on_c, 1, 43, 0
3, 420, Note_on_c, 1, 59, 87
3, 442, Note_on_c, 1, 59, 0
3, 450, Note_on_c, 1, 57, 83
3, 476, Note_on_c, 1, 57, 0
3, 480, Note_on_c, 1, 59, 96
3, 506, Note_on_c, 1, 59, 0
3, 540, Note_on_c, 1, 55, 113
3, 575, Note_on_c, 1, 55, 0
3, 600, Note_on_c, 1, 43, 109
3, 628, Note_on_c, 1, 43, 0
3, 660, Note_on_c, 1, 55, 113
3, 686, Note_on_c, 1, 55, 0
3, 720, Note_on_c, 1, 42, 107
3, 756, Note_on_c, 1, 42, 0
3, 780, Note_on_c, 1, 54, 103
3, 806, Note_on_c, 1, 54, 0
3, 810, Note_on_c, 1, 52, 86
3, 840, Note_on_c, 1, 54, 95
3, 842, Note_on_c, 1, 52, 0
3, 870, Note_on_c, 1, 54, 0
3, 900, Note_on_c, 1, 50, 103
3, 939, Note_on_c, 1, 50, 0
3, 960, Note_on_c, 1, 42, 106
3, 1000, Note_on_c, 1, 42, 0
3, 1020, Note_on_c, 1, 50, 103
3, 1055, Note_on_c, 1, 50, 0
3, 1080, Note_on_c, 1, 40, 110
3, 1125, Note_on_c, 1, 40, 0
3, 1140, Note_on_c, 1, 52, 112
3, 1169, Note_on_c, 1, 52, 0
3, 1170, Note_on_c, 1, 50, 94
3, 1200, Note_on_c, 1, 52, 109
3, 1207, Note_on_c, 1, 50, 0
3, 1228, Note_on_c, 1, 52, 0
3, 1260, Note_on_c, 1, 55, 106
3, 1281, Note_on_c, 1, 55, 0
3, 1320, Note_on_c, 1, 45, 110
3, 1350, Note_on_c, 1, 45, 0
3, 1380, Note_on_c, 1, 61, 98
3, 1402, Note_on_c, 1, 61, 0
3, 1440, Note_on_c, 1, 50, 107
3, 1473, Note_on_c, 1, 50, 0
3, 1500, Note_on_c, 1, 54, 117
3, 1528, Note_on_c, 1, 54, 0
3, 1530, Note_on_c, 1, 52, 87
3, 1560, Note_on_c, 1, 54, 104
3, 1566, Note_on_c, 1, 52, 0
3, 1580, Note_on_c, 1, 54, 0
3, 1620, Note_on_c, 1, 50, 101
3, 1645, Note_on_c, 1, 50, 0
3, 1680, Note_on_c, 1, 38, 104
3, 1713, Note_on_c, 1, 38, 0
3, 1770, Note_on_c, 1, 48, 93
3, 1788, Note_on_c, 1, 48, 0
3, 1800, Note_on_c, 1, 47, 96
3, 1825, Note_on_c, 1, 47, 0
3, 1830, Note_on_c, 1, 45, 94
3, 1859, Note_on_c, 1, 45, 0
3, 1860, Note_on_c, 1, 47, 94
3, 1950, Note_on_c, 1, 50, 84
3, 1973, Note_on_c, 1, 47, 0
3, 1975, Note_on_c, 1, 50, 0
3, 1980, Note_on_c, 1, 52, 97
3, 2010, Note_on_c, 1, 54, 95
3, 2014, Note_on_c, 1, 52, 0
3, 2038, Note_on_c, 1, 54, 0
3, 2040, Note_on_c, 1, 55, 101
3, 2070, Note_on_c, 1, 57, 82
3, 2081, Note_on_c, 1, 55, 0
3, 2100, Note_on_c, 1, 59, 86
3, 2105, Note_on_c, 1, 57, 0
3, 2130, Note_on_c, 1, 55, 100
3, 2133, Note_on_c, 1, 59, 0
3, 2158, Note_on_c, 1, 55, 0
3, 2160, Note_on_c, 1, 48, 88
3, 2190, Note_on_c, 1, 47, 87
3, 2193, Note_on_c, 1, 48, 0
3, 2220, Note_on_c, 1, 48, 96
3, 2225, Note_on_c, 1, 47, 0
3, 2310, Note_on_c, 1, 52, 98
3, 2310, Note_on_c, 1, 48, 0
3, 2340, Note_on_c, 1, 54, 111
3, 2341, Note_on_c, 1, 52, 0
3, 2370, Note_on_c, 1, 55, 107
3, 2371, Note_on_c, 1, 54, 0
3, 2400, Note_on_c, 1, 57, 101
3, 2400, Note_on_c, 1, 55, 0
3, 2430, Note_on_c, 1, 59, 87
3, 2430, Note_on_c, 1, 57, 0
3, 2460, Note_on_c, 1, 60, 118
3, 2460, Note_on_c, 1, 59, 0
3, 2490, Note_on_c, 1, 57, 88
3, 2491, Note_on_c, 1, 60, 0
3, 2520, Note_on_c, 1, 50, 96
3, 2520, Note_on_c, 1, 57, 0
3, 2550, Note_on_c, 1, 49, 94
3, 2552, Note_on_c, 1, 50, 0
3, 2580, Note_on_c, 1, 50, 109
3, 2585, Note_on_c, 1, 49, 0
3, 2670, Note_on_c, 1, 57, 89
3, 2682, Note_on_c, 1, 50, 0
3, 2700, Note_on_c, 1, 59, 100
3, 2714, Note_on_c, 1, 57, 0
3, 2730, Note_on_c, 1, 60, 113
3, 2739, Note_on_c, 1, 59, 0
3, 2760, Note_on_c, 1, 62, 86
3, 2762, Note_on_c, 1, 60, 0
3, 2790, Note_on_c, 1, 64, 83
3, 2799, Note_on_c, 1, 62, 0
3, 2820, Note_on_c, 1, 66, 98
3, 2825, Note_on_c, 1, 64, 0
3, 2849, Note_on_c, 1, 66, 0
3, 2850, Note_on_c, 1, 62, 76
3, 2880, Note_on_c, 1, 67, 97
3, 2891, Note_on_c, 1, 62, 0
3, 2910, Note_on_c, 1, 66, 92
3, 2912, Note_on_c, 1, 67, 0
3, 2940, Note_on_c, 1, 67, 88
3, 2941, Note_on_c, 1, 66, 0
3, 2970, Note_on_c, 1, 62, 82
3, 2971, Note_on_c, 1, 67, 0
3, 3000, Note_on_c, 1, 59, 88
3, 3000, Note_on_c, 1, 62, 0
3, 3030, Note_on_c, 1, 62, 65
3, 3036, Note_on_c, 1, 59, 0
3, 3060, Note_on_c, 1, 55, 83
3, 3065, Note_on_c, 1, 62, 0
3, 3090, Note_on_c, 1, 59, 82
3, 3094, Note_on_c, 1, 55, 0
3, 3120, Note_on_c, 1, 50, 97
3, 3121, Note_on_c, 1, 59, 0
3, 3150, Note_on_c, 1, 55, 97
3, 3154, Note_on_c, 1, 50, 0
3, 3180, Note_on_c, 1, 47, 93
3, 3186, Note_on_c, 1, 55, 0
3, 3210, Note_on_c, 1, 50, 96
3, 3218, Note_on_c, 1, 47, 0
3, 3240, Note_on_c, 1, 43, 94
3, 3248, Note_on_c, 1, 50, 0
3, 3279, Note_on_c, 1, 43, 0
3, 3300, Note_on_c, 1, 55, 107
3, 3339, Note_on_c, 1, 55, 0
3, 3360, Note_on_c, 1, 59, 86
3, 3395, Note_on_c, 1, 59, 0
3, 3420, Note_on_c, 1, 55, 109
3, 3463, Note_on_c, 1, 55, 0
3, 3480, Note_on_c, 1, 43, 87
3, 3523, Note_on_c, 1, 43, 0
3, 3540, Note_on_c, 1, 55, 98
3, 3581, Note_on_c, 1, 55, 0
3, 3600, Note_on_c, 1, 42, 98
3, 3648, Note_on_c, 1, 42, 0
3, 3660, Note_on_c, 1, 54, 106
3, 3695, Note_on_c, 1, 54, 0
3, 3720, Note_on_c, 1, 57, 86
3, 3756, Note_on_c, 1, 57, 0
3, 3780, Note_on_c, 1, 54, 107
3, 3826, Note_on_c, 1, 54, 0
3, 3840, Note_on_c, 1, 42, 102
3, 3879, Note_on_c, 1, 42, 0
3, 3900, Note_on_c, 1, 54, 110
3, 3943, Note_on_c, 1, 54, 0
3, 3960, Note_on_c, 1, 40, 112
3, 3998, Note_on_c, 1, 40, 0
3, 4020, Note_on_c, 1, 52, 103
3, 4056, Note_on_c, 1, 52, 0
3, 4080, Note_on_c, 1, 55, 104
3, 4116, Note_on_c, 1, 55, 0
3, 4140, Note_on_c, 1, 52, 106
3, 4179, Note_on_c, 1, 52, 0
3, 4200, Note_on_c, 1, 40, 107
3, 4239, Note_on_c, 1, 40, 0
3, 4260, Note_on_c, 1, 55, 107
3, 4303, Note_on_c, 1, 55, 0
3, 4320, Note_on_c, 1, 45, 103
3, 4363, Note_on_c, 1, 45, 0
3, 4380, Note_on_c, 1, 52, 96
3, 4413, Note_on_c, 1, 52, 0
3, 4440, Note_on_c, 1, 55, 101
3, 4468, Note_on_c, 1, 55, 0
3, 4500, Note_on_c, 1, 52, 106
3, 4530, Note_on_c, 1, 52, 0
3, 4560, Note_on_c, 1, 45, 112
3, 4591, Note_on_c, 1, 45, 0
3, 4620, Note_on_c, 1, 55, 106
3, 4641, Note_on_c, 1, 55, 0
3, 4680, Note_on_c, 1, 54, 98
3, 4710, Note_on_c, 1, 57, 88
3, 4710, Note_on_c, 1, 54, 0
3, 4740, Note_on_c, 1, 62, 71
3, 4766, Note_on_c, 1, 57, 0
3, 4770, Note_on_c, 1, 66, 89
3, 4772, Note_on_c, 1, 62, 0
3, 4800, Note_on_c, 1, 69, 103
3, 4806, Note_on_c, 1, 66, 0
3, 4830, Note_on_c, 1, 66, 95
3, 4836, Note_on_c, 1, 69, 0
3, 4860, Note_on_c, 1, 62, 73
3, 4861, Note_on_c, 1, 66, 0
3, 4890, Note_on_c, 1, 57, 80
3, 4891, Note_on_c, 1, 62, 0
3, 4920, Note_on_c, 1, 54, 95
3, 4923, Note_on_c, 1, 57, 0
3, 4945, Note_on_c, 1, 54, 0
3, 4950, Note_on_c, 1, 57, 74
3, 4980, Note_on_c, 1, 50, 92
3, 4981, Note_on_c, 1, 57, 0
3, 5010, Note_on_c, 1, 54, 89
3, 5014, Note_on_c, 1, 50, 0
3, 5040, Note_on_c, 1, 55, 98
3, 5045, Note_on_c, 1, 54, 0
3, 5070, Note_on_c, 1, 59, 91
3, 5076, Note_on_c, 1, 55, 0
3, 5100, Note_on_c, 1, 62, 86
3, 5111, Note_on_c, 1, 59, 0
3, 5130, Note_on_c, 1, 67, 96
3, 5140, Note_on_c, 1, 62, 0
3, 5160, Note_on_c, 1, 71, 107
3, 5171, Note_on_c, 1, 67, 0
3, 5190, Note_on_c, 1, 67, 92
3, 5193, Note_on_c, 1, 71, 0
3, 5219, Note_on_c, 1, 67, 0
3, 5220, Note_on_c, 1, 62, 73
3, 5250, Note_on_c, 1, 59, 87
3, 5251, Note_on_c, 1, 62, 0
3, 5278, Note_on_c, 1, 59, 0
3, 5280, Note_on_c, 1, 55, 104
3, 5310, Note_on_c, 1, 59, 71
3, 5310, Note_on_c, 1, 55, 0
3, 5336, Note_on_c, 1, 59, 0
3, 5340, Note_on_c, 1, 52, 89
3, 5370, Note_on_c, 1, 55, 101
3, 5372, Note_on_c, 1, 52, 0
3, 5400, Note_on_c, 1, 57, 87
3, 5403, Note_on_c, 1, 55, 0
3, 5443, Note_on_c, 1, 57, 0
3, 5460, Note_on_c, 1, 61, 91
3, 5497, Note_on_c, 1, 61, 0
3, 5520, Note_on_c, 1, 62, 78
3, 5548, Note_on_c, 1, 62, 0
3, 5550, Note_on_c, 1, 57, 78
3, 5580, Note_on_c, 1, 54, 85
3, 5588, Note_on_c, 1, 57, 0
3, 5608, Note_on_c, 1, 54, 0
3, 5610, Note_on_c, 1, 50, 79
3, 5640, Note_on_c, 1, 57, 87
3, 5646, Note_on_c, 1, 50, 0
3, 5687, Note_on_c, 1, 57, 0
3, 5700, Note_on_c, 1, 45, 112
3, 5760, Note_on_c, 1, 38, 88
3, 5761, Note_on_c, 1, 45, 0
3, 5790, Note_on_c, 1, 50, 83
3, 5800, Note_on_c, 1, 38, 0
3, 5820, Note_on_c, 1, 52, 92
3, 5821, Note_on_c, 1, 50, 0
3, 5850, Note_on_c, 1, 54, 94
3, 5857, Note_on_c, 1, 52, 0
3, 5880, Note_on_c, 1, 55, 113
3, 5881, Note_on_c, 1, 54, 0
3, 5910, Note_on_c, 1, 57, 100
3, 5920, Note_on_c, 1, 55, 0
3, 5940, Note_on_c, 1, 59, 97
3, 5943, Note_on_c, 1, 57, 0
3, 5970, Note_on_c, 1, 61, 99
3, 5970, Note_on_c, 1, 59, 0
3, 6000, Note_on_c, 1, 62, 76
3, 6008, Note_on_c, 1, 61, 0
3, 6089, Note_on_c, 1, 62, 0
3, 11880, Note_on_c, 1, 38, 91
3, 11933, Note_on_c, 1, 38, 0
3, 11940, Note_on_c, 1, 54, 98
3, 11966, Note_on_c, 1, 54, 0
3, 11970, Note_on_c, 1, 52, 89
3, 12000, Note_on_c, 1, 54, 90
3, 12005, Note_on_c, 1, 52, 0
3, 12021, Note_on_c, 1, 54, 0
3, 12060, Note_on_c, 1, 50, 87
3, 12091, Note_on_c, 1, 50, 0
3, 12120, Note_on_c, 1, 38, 86
3, 12146, Note_on_c, 1, 38, 0
3, 12180, Note_on_c, 1, 54, 107
3, 12208, Note_on_c, 1, 54, 0
3, 12240, Note_on_c, 1, 43, 94
3, 12281, Note_on_c, 1, 43, 0
3, 12300, Note_on_c, 1, 59, 98
3, 12329, Note_on_c, 1, 59, 0
3, 12330, Note_on_c, 1, 57, 80
3, 12360, Note_on_c, 1, 59, 89
3, 12363, Note_on_c, 1, 57, 0
3, 12383, Note_on_c, 1, 59, 0
3, 12420, Note_on_c, 1, 55, 106
3, 12456, Note_on_c, 1, 55, 0
3, 12480, Note_on_c, 1, 43, 93
3, 12512, Note_on_c, 1, 43, 0
3, 12540, Note_on_c, 1, 59, 96
3, 12576, Note_on_c, 1, 59, 0
3, 12600, Note_on_c, 1, 48, 92
3, 12644, Note_on_c, 1, 48, 0
3, 12660, Note_on_c, 1, 60, 120
3, 12690, Note_on_c, 1, 59, 83
3, 12690, Note_on_c, 1, 60, 0
3, 12720, Note_on_c, 1, 60, 113
3, 12725, Note_on_c, 1, 59, 0
3, 12746, Note_on_c, 1, 60, 0
3, 12780, Note_on_c, 1, 54, 94
3, 12812, Note_on_c, 1, 54, 0
3, 12840, Note_on_c, 1, 57, 82
3, 12871, Note_on_c, 1, 57, 0
3, 12900, Note_on_c, 1, 60, 113
3, 12928, Note_on_c, 1, 60, 0
3, 12960, Note_on_c, 1, 57, 100
3, 12996, Note_on_c, 1, 57, 0
3, 13020, Note_on_c, 1, 54, 110
3, 13040, Note_on_c, 1, 54, 0
3, 13080, Note_on_c, 1, 51, 103
3, 13109, Note_on_c, 1, 51, 0
3, 13110, Note_on_c, 1, 47, 86
3, 13140, Note_on_c, 1, 51, 97
3, 13140, Note_on_c, 1, 47, 0
3, 13170, Note_on_c, 1, 54, 104
3, 13175, Note_on_c, 1, 51, 0
3, 13200, Note_on_c, 1, 59, 87
3, 13202, Note_on_c, 1, 54, 0
3, 13230, Note_on_c, 1, 63, 94
3, 13241, Note_on_c, 1, 59, 0
3, 13260, Note_on_c, 1, 66, 98
3, 13271, Note_on_c, 1, 63, 0
3, 13290, Note_on_c, 1, 69, 93
3, 13293, Note_on_c, 1, 66, 0
3, 13320, Note_on_c, 1, 67, 91
3, 13320, Note_on_c, 1, 69, 0
3, 13410, Note_on_c, 1, 66, 87
3, 13410, Note_on_c, 1, 67, 0
3, 13440, Note_on_c, 1, 67, 88
3, 13440, Note_on_c, 1, 66, 0
3, 13530, Note_on_c, 1, 54, 79
3, 13533, Note_on_c, 1, 67, 0
3, 13560, Note_on_c, 1, 55, 84
3, 13567, Note_on_c, 1, 54, 0
3, 13650, Note_on_c, 1, 47, 79
3, 13650, Note_on_c, 1, 55, 0
3, 13680, Note_on_c, 1, 48, 91
3, 13680, Note_on_c, 1, 47, 0
3, 13770, Note_on_c, 1, 71, 87
3, 13770, Note_on_c, 1, 48, 0
3, 13800, Note_on_c, 1, 72, 88
3, 13800, Note_on_c, 1, 71, 0
3, 13890, Note_on_c, 1, 59, 79
3, 13893, Note_on_c, 1, 72, 0
3, 13920, Note_on_c, 1, 60, 84
3, 13927, Note_on_c, 1, 59, 0
3, 14010, Note_on_c, 1, 52, 79
3, 14010, Note_on_c, 1, 60, 0
3, 14040, Note_on_c, 1, 51, 90
3, 14040, Note_on_c, 1, 52, 0
3, 14070, Note_on_c, 1, 51, 0
3, 14100, Note_on_c, 1, 57, 92
3, 14121, Note_on_c, 1, 57, 0
3, 14160, Note_on_c, 1, 55, 101
3, 14185, Note_on_c, 1, 55, 0
3, 14220, Note_on_c, 1, 46, 97
3, 14247, Note_on_c, 1, 46, 0
3, 14280, Note_on_c, 1, 47, 104
3, 14313, Note_on_c, 1, 47, 0
3, 14340, Note_on_c, 1, 54, 103
3, 14360, Note_on_c, 1, 54, 0
3, 14400, Note_on_c, 1, 52, 104
3, 14438, Note_on_c, 1, 52, 0
3, 14460, Note_on_c, 1, 55, 103
3, 14485, Note_on_c, 1, 55, 0
3, 14490, Note_on_c, 1, 54, 97
3, 14518, Note_on_c, 1, 54, 0
3, 14520, Note_on_c, 1, 55, 105
3, 14550, Note_on_c, 1, 55, 0
3, 14580, Note_on_c, 1, 52, 100
3, 14611, Note_on_c, 1, 52, 0
3, 14640, Note_on_c, 1, 40, 110
3, 14671, Note_on_c, 1, 40, 0
3, 14730, Note_on_c, 1, 50, 107
3, 14746, Note_on_c, 1, 50, 0
3, 14760, Note_on_c, 1, 48, 92
3, 14790, Note_on_c, 1, 52, 87
3, 14792, Note_on_c, 1, 48, 0
3, 14820, Note_on_c, 1, 57, 91
3, 14820, Note_on_c, 1, 52, 0
3, 14850, Note_on_c, 1, 60, 94
3, 14857, Note_on_c, 1, 57, 0
3, 14880, Note_on_c, 1, 64, 93
3, 14880, Note_on_c, 1, 60, 0
3, 14910, Note_on_c, 1, 60, 83
3, 14915, Note_on_c, 1, 64, 0
3, 14940, Note_on_c, 1, 57, 83
3, 14944, Note_on_c, 1, 60, 0
3, 14970, Note_on_c, 1, 52, 86
3, 14970, Note_on_c, 1, 57, 0
3, 15000, Note_on_c, 1, 48, 88
3, 15000, Note_on_c, 1, 52, 0
3, 15030, Note_on_c, 1, 52, 83
3, 15030, Note_on_c, 1, 48, 0
3, 15060, Note_on_c, 1, 50, 81
3, 15060, Note_on_c, 1, 52, 0
3, 15090, Note_on_c, 1, 48, 78
3, 15093, Note_on_c, 1, 50, 0
3, 15120, Note_on_c, 1, 47, 94
3, 15120, Note_on_c, 1, 48, 0
3, 15150, Note_on_c, 1, 50, 84
3, 15154, Note_on_c, 1, 47, 0
3, 15180, Note_on_c, 1, 55, 93
3, 15207, Note_on_c, 1, 50, 0
3, 15210, Note_on_c, 1, 59, 86
3, 15224, Note_on_c, 1, 55, 0
3, 15240, Note_on_c, 1, 62, 86
3, 15248, Note_on_c, 1, 59, 0
3, 15270, Note_on_c, 1, 59, 76
3, 15274, Note_on_c, 1, 62, 0
3, 15300, Note_on_c, 1, 55, 84
3, 15301, Note_on_c, 1, 59, 0
3, 15330, Note_on_c, 1, 50, 88
3, 15334, Note_on_c, 1, 55, 0
3, 15358, Note_on_c, 1, 50, 0
3, 15360, Note_on_c, 1, 47, 91
3, 15390, Note_on_c, 1, 50, 83
3, 15391, Note_on_c, 1, 47, 0
3, 15420, Note_on_c, 1, 48, 88
3, 15426, Note_on_c, 1, 50, 0
3, 15450, Note_on_c, 1, 47, 76
3, 15456, Note_on_c, 1, 48, 0
3, 15480, Note_on_c, 1, 45, 94
3, 15488, Note_on_c, 1, 47, 0
3, 15513, Note_on_c, 1, 45, 0
3, 15540, Note_on_c, 1, 48, 83
3, 15577, Note_on_c, 1, 48, 0
3, 15600, Note_on_c, 1, 52, 93
3, 15638, Note_on_c, 1, 52, 0
3, 15660, Note_on_c, 1, 55, 93
3, 15690, Note_on_c, 1, 55, 0
3, 15720, Note_on_c, 1, 54, 95
3, 15750, Note_on_c, 1, 54, 0
3, 15780, Note_on_c, 1, 52, 88
3, 15816, Note_on_c, 1, 52, 0
3, 15840, Note_on_c, 1, 50, 98
3, 15872, Note_on_c, 1, 50, 0
3, 15900, Note_on_c, 1, 54, 103
3, 15935, Note_on_c, 1, 54, 0
3, 15960, Note_on_c, 1, 57, 102
3, 15987, Note_on_c, 1, 57, 0
3, 16020, Note_on_c, 1, 60, 104
3, 16063, Note_on_c, 1, 60, 0
3, 16080, Note_on_c, 1, 59, 96
3, 16123, Note_on_c, 1, 59, 0
3, 16140, Note_on_c, 1, 57, 86
3, 16178, Note_on_c, 1, 57, 0
3, 16200, Note_on_c, 1, 55, 89
3, 16237, Note_on_c, 1, 55, 0
3, 16260, Note_on_c, 1, 59, 87
3, 16297, Note_on_c, 1, 59, 0
3, 16320, Note_on_c, 1, 62, 93
3, 16357, Note_on_c, 1, 62, 0
3, 16380, Note_on_c, 1, 65, 90
3, 16417, Note_on_c, 1, 65, 0
3, 16440, Note_on_c, 1, 64, 97
3, 16470, Note_on_c, 1, 64, 0
3, 16500, Note_on_c, 1, 62, 91
3, 16537, Note_on_c, 1, 62, 0
3, 16560, Note_on_c, 1, 60, 96
3, 16597, Note_on_c, 1, 60, 0
3, 16620, Note_on_c, 1, 64, 93
3, 16663, Note_on_c, 1, 64, 0
3, 16680, Note_on_c, 1, 66, 90
3, 16710, Note_on_c, 1, 66, 0
3, 16740, Note_on_c, 1, 68, 90
3, 16777, Note_on_c, 1, 68, 0
3, 16800, Note_on_c, 1, 69, 98
3, 16837, Note_on_c, 1, 69, 0
3, 16860, Note_on_c, 1, 67, 90
3, 16903, Note_on_c, 1, 67, 0
3, 16920, Note_on_c, 1, 66, 107
3, 16952, Note_on_c, 1, 66, 0
3, 16980, Note_on_c, 1, 62, 103
3, 17008, Note_on_c, 1, 62, 0
3, 17040, Note_on_c, 1, 67, 97
3, 17069, Note_on_c, 1, 67, 0
3, 17100, Note_on_c, 1, 55, 103
3, 17130, Note_on_c, 1, 55, 0
3, 17160, Note_on_c, 1, 62, 106
3, 17191, Note_on_c, 1, 62, 0
3, 17220, Note_on_c, 1, 50, 110
3, 17248, Note_on_c, 1, 50, 0
3, 17280, Note_on_c, 1, 55, 113
3, 17310, Note_on_c, 1, 43, 102
3, 17316, Note_on_c, 1, 55, 0
3, 17340, Note_on_c, 1, 45, 103
3, 17346, Note_on_c, 1, 43, 0
3, 17370, Note_on_c, 1, 47, 106
3, 17373, Note_on_c, 1, 45, 0
3, 17400, Note_on_c, 1, 48, 107
3, 17406, Note_on_c, 1, 47, 0
3, 17430, Note_on_c, 1, 50, 109
3, 17433, Note_on_c, 1, 48, 0
3, 17460, Note_on_c, 1, 52, 101
3, 17465, Note_on_c, 1, 50, 0
3, 17490, Note_on_c, 1, 54, 109
3, 17497, Note_on_c, 1, 52, 0
3, 17520, Note_on_c, 1, 55, 111
3, 17525, Note_on_c, 1, 54, 0
3, 17593, Note_on_c, 1, 55, 0
3, 23400, Control_c, 1, 64, 0
3, 23400, End_track
4, 0, Start_track
4, 0, MIDI_port, 0
4, 0, Title_t, "Piano               "
4, 0, Program_c, 0, 1
4, 0, Control_c, 0, 7, 120
4, 0, Control_c, 0, 10, 80
4, 6120, Note_on_c, 0, 67, 101
4, 6150, Note_on_c, 0, 66, 116
4, 6153, Note_on_c, 0, 67, 0
4, 6176, Note_on_c, 0, 66, 0
4, 6180, Note_on_c, 0, 67, 112
4, 6270, Note_on_c, 0, 62, 93
4, 6286, Note_on_c, 0, 67, 0
4, 6300, Note_on_c, 0, 64, 106
4, 6306, Note_on_c, 0, 62, 0
4, 6328, Note_on_c, 0, 64, 0
4, 6330, Note_on_c, 0, 66, 99
4, 6355, Note_on_c, 0, 66, 0
4, 6360, Note_on_c, 0, 67, 106
4, 6390, Note_on_c, 0, 69, 113
4, 6395, Note_on_c, 0, 67, 0
4, 6420, Note_on_c, 0, 71, 111
4, 6420, Note_on_c, 0, 69, 0
4, 6450, Note_on_c, 0, 73, 112
4, 6450, Note_on_c, 0, 71, 0
4, 6478, Note_on_c, 0, 73, 0
4, 6480, Note_on_c, 0, 74, 113
4, 6510, Note_on_c, 0, 73, 105
4, 6516, Note_on_c, 0, 74, 0
4, 6536, Note_on_c, 0, 73, 0
4, 6540, Note_on_c, 0, 74, 117
4, 6630, Note_on_c, 0, 69, 114
4, 6641, Note_on_c, 0, 74, 0
4, 6660, Note_on_c, 0, 71, 114
4, 6665, Note_on_c, 0, 69, 0
4, 6690, Note_on_c, 0, 73, 112
4, 6693, Note_on_c, 0, 71, 0
4, 6718, Note_on_c, 0, 73, 0
4, 6720, Note_on_c, 0, 74, 110
4, 6750, Note_on_c, 0, 76, 99
4, 6755, Note_on_c, 0, 74, 0
4, 6780, Note_on_c, 0, 78, 107
4, 6785, Note_on_c, 0, 76, 0
4, 6805, Note_on_c, 0, 78, 0
4, 6810, Note_on_c, 0, 74, 97
4, 6840, Note_on_c, 0, 79, 103
4, 6848, Note_on_c, 0, 74, 0
4, 6870, Note_on_c, 0, 78, 98
4, 6877, Note_on_c, 0, 79, 0
4, 6895, Note_on_c, 0, 78, 0
4, 6900, Note_on_c, 0, 79, 107
4, 6990, Note_on_c, 0, 78, 106
4, 7008, Note_on_c, 0, 79, 0
4, 7020, Note_on_c, 0, 76, 98
4, 7020, Note_on_c, 0, 78, 0
4, 7050, Note_on_c, 0, 74, 101
4, 7050, Note_on_c, 0, 76, 0
4, 7080, Note_on_c, 0, 73, 112
4, 7083, Note_on_c, 0, 74, 0
4, 7107, Note_on_c, 0, 73, 0
4, 7110, Note_on_c, 0, 76, 103
4, 7140, Note_on_c, 0, 69, 106
4, 7141, Note_on_c, 0, 76, 0
4, 7170, Note_on_c, 0, 67, 101
4, 7170, Note_on_c, 0, 69, 0
4, 7200, Note_on_c, 0, 66, 110
4, 7200, Note_on_c, 0, 67, 0
4, 7230, Note_on_c, 0, 69, 107
4, 7231, Note_on_c, 0, 66, 0
4, 7257, Note_on_c, 0, 69, 0
4, 7260, Note_on_c, 0, 62, 110
4, 7290, Note_on_c, 0, 61, 104
4, 7293, Note_on_c, 0, 62, 0
4, 7320, Note_on_c, 0, 62, 100
4, 7321, Note_on_c, 0, 61, 0
4, 7350, Note_on_c, 0, 66, 99
4, 7350, Note_on_c, 0, 62, 0
4, 7377, Note_on_c, 0, 66, 0
4, 7380, Note_on_c, 0, 57, 101
4, 7410, Note_on_c, 0, 55, 93
4, 7418, Note_on_c, 0, 57, 0
4, 7440, Note_on_c, 0, 54, 106
4, 7445, Note_on_c, 0, 55, 0
4, 7470, Note_on_c, 0, 57, 87
4, 7470, Note_on_c, 0, 54, 0
4, 7500, Note_on_c, 0, 50, 97
4, 7503, Note_on_c, 0, 57, 0
4, 7548, Note_on_c, 0, 50, 0
4, 7620, Note_on_c, 0, 74, 111
4, 7650, Note_on_c, 0, 72, 108
4, 7650, Note_on_c, 0, 74, 0
4, 7680, Note_on_c, 0, 74, 114
4, 7686, Note_on_c, 0, 72, 0
4, 7706, Note_on_c, 0, 74, 0
4, 7740, Note_on_c, 0, 67, 101
4, 7759, Note_on_c, 0, 67, 0
4, 7800, Note_on_c, 0, 59, 97
4, 7825, Note_on_c, 0, 59, 0
4, 7860, Note_on_c, 0, 74, 94
4, 7894, Note_on_c, 0, 74, 0
4, 7980, Note_on_c, 0, 76, 101
4, 8010, Note_on_c, 0, 74, 101
4, 8011, Note_on_c, 0, 76, 0
4, 8040, Note_on_c, 0, 76, 117
4, 8043, Note_on_c, 0, 74, 0
4, 8063, Note_on_c, 0, 76, 0
4, 8100, Note_on_c, 0, 69, 113
4, 8125, Note_on_c, 0, 69, 0
4, 8160, Note_on_c, 0, 60, 121
4, 8184, Note_on_c, 0, 60, 0
4, 8220, Note_on_c, 0, 76, 98
4, 8246, Note_on_c, 0, 76, 0
4, 8340, Note_on_c, 0, 78, 107
4, 8368, Note_on_c, 0, 78, 0
4, 8370, Note_on_c, 0, 76, 102
4, 8400, Note_on_c, 0, 78, 120
4, 8408, Note_on_c, 0, 76, 0
4, 8460, Note_on_c, 0, 74, 107
4, 8464, Note_on_c, 0, 78, 0
4, 8520, Note_on_c, 0, 81, 122
4, 8525, Note_on_c, 0, 74, 0
4, 8573, Note_on_c, 0, 81, 0
4, 8580, Note_on_c, 0, 72, 109
4, 8700, Note_on_c, 0, 71, 114
4, 8705, Note_on_c, 0, 72, 0
4, 8753, Note_on_c, 0, 71, 0
4, 8790, Note_on_c, 0, 67, 99
4, 8820, Note_on_c, 0, 71, 103
4, 8828, Note_on_c, 0, 67, 0
4, 8850, Note_on_c, 0, 74, 111
4, 8851, Note_on_c, 0, 71, 0
4, 8876, Note_on_c, 0, 74, 0
4, 8880, Note_on_c, 0, 79, 112
4, 8910, Note_on_c, 0, 74, 104
4, 8914, Note_on_c, 0, 79, 0
4, 8940, Note_on_c, 0, 79, 113
4, 8948, Note_on_c, 0, 74, 0
4, 8970, Note_on_c, 0, 81, 108
4, 8975, Note_on_c, 0, 79, 0
4, 9000, Note_on_c, 0, 83, 116
4, 9000, Note_on_c, 0, 81, 0
4, 9030, Note_on_c, 0, 79, 113
4, 9037, Note_on_c, 0, 83, 0
4, 9060, Note_on_c, 0, 74, 109
4, 9062, Note_on_c, 0, 79, 0
4, 9090, Note_on_c, 0, 71, 98
4, 9091, Note_on_c, 0, 74, 0
4, 9120, Note_on_c, 0, 67, 106
4, 9120, Note_on_c, 0, 71, 0
4, 9147, Note_on_c, 0, 67, 0
4, 9150, Note_on_c, 0, 71, 101
4, 9180, Note_on_c, 0, 74, 104
4, 9188, Note_on_c, 0, 71, 0
4, 9210, Note_on_c, 0, 79, 99
4, 9217, Note_on_c, 0, 74, 0
4, 9240, Note_on_c, 0, 83, 106
4, 9240, Note_on_c, 0, 79, 0
4, 9270, Note_on_c, 0, 79, 99
4, 9277, Note_on_c, 0, 83, 0
4, 9300, Note_on_c, 0, 78, 103
4, 9308, Note_on_c, 0, 79, 0
4, 9328, Note_on_c, 0, 78, 0
4, 9330, Note_on_c, 0, 76, 94
4, 9360, Note_on_c, 0, 81, 99
4, 9360, Note_on_c, 0, 76, 0
4, 9390, Note_on_c, 0, 76, 97
4, 9398, Note_on_c, 0, 81, 0
4, 9420, Note_on_c, 0, 73, 108
4, 9424, Note_on_c, 0, 76, 0
4, 9450, Note_on_c, 0, 69, 104
4, 9451, Note_on_c, 0, 73, 0
4, 9480, Note_on_c, 0, 66, 103
4, 9483, Note_on_c, 0, 69, 0
4, 9510, Note_on_c, 0, 69, 101
4, 9512, Note_on_c, 0, 66, 0
4, 9540, Note_on_c, 0, 73, 103
4, 9548, Note_on_c, 0, 69, 0
4, 9570, Note_on_c, 0, 76, 101
4, 9577, Note_on_c, 0, 73, 0
4, 9600, Note_on_c, 0, 81, 108
4, 9607, Note_on_c, 0, 76, 0
4, 9630, Note_on_c, 0, 78, 107
4, 9645, Note_on_c, 0, 81, 0
4, 9660, Note_on_c, 0, 76, 107
4, 9663, Note_on_c, 0, 78, 0
4, 9689, Note_on_c, 0, 76, 0
4, 9690, Note_on_c, 0, 74, 104
4, 9720, Note_on_c, 0, 79, 107
4, 9726, Note_on_c, 0, 74, 0
4, 9750, Note_on_c, 0, 74, 107
4, 9762, Note_on_c, 0, 79, 0
4, 9780, Note_on_c, 0, 71, 105
4, 9783, Note_on_c, 0, 74, 0
4, 9808, Note_on_c, 0, 71, 0
4, 9810, Note_on_c, 0, 67, 105
4, 9840, Note_on_c, 0, 64, 100
4, 9846, Note_on_c, 0, 67, 0
4, 9868, Note_on_c, 0, 64, 0
4, 9870, Note_on_c, 0, 67, 98
4, 9900, Note_on_c, 0, 71, 106
4, 9908, Note_on_c, 0, 67, 0
4, 9930, Note_on_c, 0, 74, 111
4, 9938, Note_on_c, 0, 71, 0
4, 9960, Note_on_c, 0, 79, 116
4, 9964, Note_on_c, 0, 74, 0
4, 9990, Note_on_c, 0, 78, 108
4, 10002, Note_on_c, 0, 79, 0
4, 10020, Note_on_c, 0, 76, 102
4, 10023, Note_on_c, 0, 78, 0
4, 10050, Note_on_c, 0, 74, 97
4, 10053, Note_on_c, 0, 76, 0
4, 10080, Note_on_c, 0, 73, 113
4, 10083, Note_on_c, 0, 74, 0
4, 10110, Note_on_c, 0, 67, 108
4, 10112, Note_on_c, 0, 73, 0
4, 10140, Note_on_c, 0, 64, 105
4, 10142, Note_on_c, 0, 67, 0
4, 10170, Note_on_c, 0, 61, 101
4, 10172, Note_on_c, 0, 64, 0
4, 10200, Note_on_c, 0, 57, 102
4, 10200, Note_on_c, 0, 61, 0
4, 10230, Note_on_c, 0, 61, 105
4, 10238, Note_on_c, 0, 57, 0
4, 10260, Note_on_c, 0, 64, 107
4, 10261, Note_on_c, 0, 61, 0
4, 10290, Note_on_c, 0, 67, 106
4, 10290, Note_on_c, 0, 64, 0
4, 10320, Note_on_c, 0, 73, 115
4, 10321, Note_on_c, 0, 67, 0
4, 10350, Note_on_c, 0, 76, 113
4, 10355, Note_on_c, 0, 73, 0
4, 10380, Note_on_c, 0, 74, 113
4, 10387, Note_on_c, 0, 76, 0
4, 10410, Note_on_c, 0, 73, 118
4, 10415, Note_on_c, 0, 74, 0
4, 10440, Note_on_c, 0, 74, 114
4, 10443, Note_on_c, 0, 73, 0
4, 10488, Note_on_c, 0, 74, 0
4, 10500, Note_on_c, 0, 54, 109
4, 10522, Note_on_c, 0, 54, 0
4, 10560, Note_on_c, 0, 54, 118
4, 10590, Note_on_c, 0, 54, 0
4, 10620, Note_on_c, 0, 69, 120
4, 10680, Note_on_c, 0, 74, 117
4, 10683, Note_on_c, 0, 69, 0
4, 10740, Note_on_c, 0, 78, 113
4, 10750, Note_on_c, 0, 74, 0
4, 10798, Note_on_c, 0, 78, 0
4, 10800, Note_on_c, 0, 71, 114
4, 10860, Note_on_c, 0, 55, 120
4, 10863, Note_on_c, 0, 71, 0
4, 10886, Note_on_c, 0, 55, 0
4, 10920, Note_on_c, 0, 55, 127
4, 10949, Note_on_c, 0, 55, 0
4, 10980, Note_on_c, 0, 71, 123
4, 11040, Note_on_c, 0, 76, 108
4, 11052, Note_on_c, 0, 71, 0
4, 11096, Note_on_c, 0, 76, 0
4, 11100, Note_on_c, 0, 79, 111
4, 11137, Note_on_c, 0, 79, 0
4, 11160, Note_on_c, 0, 73, 116
4, 11190, Note_on_c, 0, 76, 106
4, 11194, Note_on_c, 0, 73, 0
4, 11220, Note_on_c, 0, 69, 116
4, 11222, Note_on_c, 0, 76, 0
4, 11246, Note_on_c, 0, 69, 0
4, 11250, Note_on_c, 0, 67, 102
4, 11280, Note_on_c, 0, 66, 112
4, 11281, Note_on_c, 0, 67, 0
4, 11307, Note_on_c, 0, 66, 0
4, 11310, Note_on_c, 0, 69, 111
4, 11340, Note_on_c, 0, 74, 110
4, 11350, Note_on_c, 0, 69, 0
4, 11370, Note_on_c, 0, 78, 108
4, 11378, Note_on_c, 0, 74, 0
4, 11395, Note_on_c, 0, 78, 0
4, 11400, Note_on_c, 0, 79, 116
4, 11430, Note_on_c, 0, 76, 109
4, 11440, Note_on_c, 0, 79, 0
4, 11460, Note_on_c, 0, 74, 103
4, 11461, Note_on_c, 0, 76, 0
4, 11490, Note_on_c, 0, 73, 112
4, 11492, Note_on_c, 0, 74, 0
4, 11520, Note_on_c, 0, 78, 114
4, 11520, Note_on_c, 0, 73, 0
4, 11550, Note_on_c, 0, 74, 107
4, 11555, Note_on_c, 0, 78, 0
4, 11580, Note_on_c, 0, 73, 112
4, 11583, Note_on_c, 0, 74, 0
4, 11607, Note_on_c, 0, 73, 0
4, 11610, Note_on_c, 0, 71, 106
4, 11640, Note_on_c, 0, 69, 101
4, 11647, Note_on_c, 0, 71, 0
4, 11670, Note_on_c, 0, 67, 97
4, 11676, Note_on_c, 0, 69, 0
4, 11700, Note_on_c, 0, 66, 105
4, 11701, Note_on_c, 0, 67, 0
4, 11728, Note_on_c, 0, 66, 0
4, 11730, Note_on_c, 0, 64, 101
4, 11760, Note_on_c, 0, 62, 99
4, 11772, Note_on_c, 0, 64, 0
4, 11833, Note_on_c, 0, 62, 0
4, 17640, Note_on_c, 0, 78, 110
4, 17670, Note_on_c, 0, 79, 97
4, 17677, Note_on_c, 0, 78, 0
4, 17700, Note_on_c, 0, 81, 116
4, 17700, Note_on_c, 0, 79, 0
4, 17790, Note_on_c, 0, 83, 116
4, 17805, Note_on_c, 0, 81, 0
4, 17820, Note_on_c, 0, 81, 109
4, 17821, Note_on_c, 0, 83, 0
4, 17850, Note_on_c, 0, 79, 104
4, 17858, Note_on_c, 0, 81, 0
4, 17880, Note_on_c, 0, 78, 108
4, 17886, Note_on_c, 0, 79, 0
4, 17908, Note_on_c, 0, 78, 0
4, 17910, Note_on_c, 0, 76, 100
4, 17940, Note_on_c, 0, 74, 108
4, 17950, Note_on_c, 0, 76, 0
4, 17970, Note_on_c, 0, 72, 101
4, 17972, Note_on_c, 0, 74, 0
4, 18000, Note_on_c, 0, 71, 116
4, 18005, Note_on_c, 0, 72, 0
4, 18030, Note_on_c, 0, 72, 122
4, 18040, Note_on_c, 0, 71, 0
4, 18060, Note_on_c, 0, 74, 124
4, 18066, Note_on_c, 0, 72, 0
4, 18150, Note_on_c, 0, 76, 119
4, 18163, Note_on_c, 0, 74, 0
4, 18180, Note_on_c, 0, 74, 112
4, 18182, Note_on_c, 0, 76, 0
4, 18210, Note_on_c, 0, 72, 107
4, 18214, Note_on_c, 0, 74, 0
4, 18240, Note_on_c, 0, 71, 104
4, 18248, Note_on_c, 0, 72, 0
4, 18265, Note_on_c, 0, 71, 0
4, 18270, Note_on_c, 0, 69, 102
4, 18300, Note_on_c, 0, 67, 98
4, 18301, Note_on_c, 0, 69, 0
4, 18330, Note_on_c, 0, 66, 94
4, 18332, Note_on_c, 0, 67, 0
4, 18360, Note_on_c, 0, 64, 96
4, 18360, Note_on_c, 0, 66, 0
4, 18390, Note_on_c, 0, 68, 103
4, 18398, Note_on_c, 0, 64, 0
4, 18417, Note_on_c, 0, 68, 0
4, 18420, Note_on_c, 0, 69, 96
4, 18447, Note_on_c, 0, 69, 0
4, 18450, Note_on_c, 0, 71, 101
4, 18480, Note_on_c, 0, 69, 110
4, 18486, Note_on_c, 0, 71, 0
4, 18510, Note_on_c, 0, 64, 98
4, 18515, Note_on_c, 0, 69, 0
4, 18540, Note_on_c, 0, 69, 118
4, 18546, Note_on_c, 0, 64, 0
4, 18566, Note_on_c, 0, 69, 0
4, 18570, Note_on_c, 0, 71, 104
4, 18600, Note_on_c, 0, 72, 118
4, 18604, Note_on_c, 0, 71, 0
4, 18630, Note_on_c, 0, 69, 117
4, 18630, Note_on_c, 0, 72, 0
4, 18660, Note_on_c, 0, 75, 120
4, 18671, Note_on_c, 0, 69, 0
4, 18690, Note_on_c, 0, 76, 122
4, 18695, Note_on_c, 0, 75, 0
4, 18720, Note_on_c, 0, 78, 124
4, 18730, Note_on_c, 0, 76, 0
4, 18750, Note_on_c, 0, 76, 119
4, 18759, Note_on_c, 0, 78, 0
4, 18780, Note_on_c, 0, 75, 116
4, 18790, Note_on_c, 0, 76, 0
4, 18810, Note_on_c, 0, 73, 114
4, 18812, Note_on_c, 0, 75, 0
4, 18840, Note_on_c, 0, 71, 105
4, 18851, Note_on_c, 0, 73, 0
4, 19110, Note_on_c, 0, 75, 100
4, 19134, Note_on_c, 0, 71, 0
4, 19140, Note_on_c, 0, 76, 102
4, 19145, Note_on_c, 0, 75, 0
4, 19230, Note_on_c, 0, 63, 92
4, 19230, Note_on_c, 0, 76, 0
4, 19259, Note_on_c, 0, 63, 0
4, 19260, Note_on_c, 0, 64, 95
4, 19350, Note_on_c, 0, 51, 89
4, 19350, Note_on_c, 0, 64, 0
4, 19380, Note_on_c, 0, 52, 89
4, 19380, Note_on_c, 0, 51, 0
4, 19440, Note_on_c, 0, 52, 0
4, 19470, Note_on_c, 0, 80, 100
4, 19500, Note_on_c, 0, 81, 102
4, 19505, Note_on_c, 0, 80, 0
4, 19590, Note_on_c, 0, 68, 92
4, 19590, Note_on_c, 0, 81, 0
4, 19619, Note_on_c, 0, 68, 0
4, 19620, Note_on_c, 0, 69, 95
4, 19710, Note_on_c, 0, 56, 89
4, 19710, Note_on_c, 0, 69, 0
4, 19740, Note_on_c, 0, 57, 89
4, 19740, Note_on_c, 0, 56, 0
4, 19830, Note_on_c, 0, 59, 88
4, 19845, Note_on_c, 0, 57, 0
4, 19860, Note_on_c, 0, 60, 93
4, 19865, Note_on_c, 0, 59, 0
4, 19890, Note_on_c, 0, 65, 100
4, 19894, Note_on_c, 0, 60, 0
4, 19920, Note_on_c, 0, 59, 101
4, 19920, Note_on_c, 0, 65, 0
4, 19950, Note_on_c, 0, 63, 104
4, 19956, Note_on_c, 0, 59, 0
4, 19980, Note_on_c, 0, 64, 103
4, 19981, Note_on_c, 0, 63, 0
4, 20009, Note_on_c, 0, 64, 0
4, 20010, Note_on_c, 0, 67, 111
4, 20040, Note_on_c, 0, 66, 102
4, 20048, Note_on_c, 0, 67, 0
4, 20070, Note_on_c, 0, 64, 102
4, 20073, Note_on_c, 0, 66, 0
4, 20099, Note_on_c, 0, 64, 0
4, 20100, Note_on_c, 0, 63, 95
4, 20130, Note_on_c, 0, 69, 104
4, 20132, Note_on_c, 0, 63, 0
4, 20160, Note_on_c, 0, 67, 102
4, 20160, Note_on_c, 0, 69, 0
4, 20190, Note_on_c, 0, 66, 98
4, 20195, Note_on_c, 0, 67, 0
4, 20220, Note_on_c, 0, 64, 102
4, 20220, Note_on_c, 0, 66, 0
4, 20250, Note_on_c, 0, 63, 98
4, 20253, Note_on_c, 0, 64, 0
4, 20280, Note_on_c, 0, 64, 106
4, 20283, Note_on_c, 0, 63, 0
4, 20310, Note_on_c, 0, 67, 98
4, 20314, Note_on_c, 0, 64, 0
4, 20337, Note_on_c, 0, 67, 0
4, 20340, Note_on_c, 0, 59, 103
4, 20370, Note_on_c, 0, 57, 91
4, 20380, Note_on_c, 0, 59, 0
4, 20400, Note_on_c, 0, 55, 96
4, 20405, Note_on_c, 0, 57, 0
4, 20430, Note_on_c, 0, 59, 92
4, 20433, Note_on_c, 0, 55, 0
4, 20460, Note_on_c, 0, 52, 102
4, 20463, Note_on_c, 0, 59, 0
4, 20496, Note_on_c, 0, 52, 0
4, 20580, Note_on_c, 0, 76, 107
4, 20601, Note_on_c, 0, 76, 0
4, 20640, Note_on_c, 0, 72, 122
4, 20678, Note_on_c, 0, 72, 0
4, 20700, Note_on_c, 0, 76, 114
4, 20721, Note_on_c, 0, 76, 0
4, 20760, Note_on_c, 0, 81, 108
4, 20788, Note_on_c, 0, 81, 0
4, 20820, Note_on_c, 0, 69, 113
4, 20845, Note_on_c, 0, 69, 0
4, 20940, Note_on_c, 0, 74, 119
4, 20978, Note_on_c, 0, 74, 0
4, 21000, Note_on_c, 0, 71, 108
4, 21035, Note_on_c, 0, 71, 0
4, 21060, Note_on_c, 0, 74, 106
4, 21083, Note_on_c, 0, 74, 0
4, 21120, Note_on_c, 0, 79, 108
4, 21153, Note_on_c, 0, 79, 0
4, 21180, Note_on_c, 0, 67, 103
4, 21219, Note_on_c, 0, 67, 0
4, 21240, Note_on_c, 0, 72, 112
4, 21270, Note_on_c, 0, 69, 110
4, 21273, Note_on_c, 0, 72, 0
4, 21300, Note_on_c, 0, 64, 103
4, 21301, Note_on_c, 0, 69, 0
4, 21330, Note_on_c, 0, 60, 104
4, 21330, Note_on_c, 0, 64, 0
4, 21360, Note_on_c, 0, 57, 99
4, 21365, Note_on_c, 0, 60, 0
4, 21384, Note_on_c, 0, 57, 0
4, 21390, Note_on_c, 0, 60, 103
4, 21420, Note_on_c, 0, 64, 106
4, 21430, Note_on_c, 0, 60, 0
4, 21450, Note_on_c, 0, 69, 120
4, 21455, Note_on_c, 0, 64, 0
4, 21480, Note_on_c, 0, 72, 123
4, 21483, Note_on_c, 0, 69, 0
4, 21510, Note_on_c, 0, 69, 119
4, 21511, Note_on_c, 0, 72, 0
4, 21540, Note_on_c, 0, 72, 117
4, 21548, Note_on_c, 0, 69, 0
4, 21570, Note_on_c, 0, 76, 116
4, 21576, Note_on_c, 0, 72, 0
4, 21600, Note_on_c, 0, 78, 115
4, 21605, Note_on_c, 0, 76, 0
4, 21630, Note_on_c, 0, 72, 113
4, 21638, Note_on_c, 0, 78, 0
4, 21655, Note_on_c, 0, 72, 0
4, 21660, Note_on_c, 0, 69, 114
4, 21686, Note_on_c, 0, 69, 0
4, 21690, Note_on_c, 0, 66, 100
4, 21720, Note_on_c, 0, 62, 109
4, 21723, Note_on_c, 0, 66, 0
4, 21750, Note_on_c, 0, 66, 105
4, 21752, Note_on_c, 0, 62, 0
4, 21776, Note_on_c, 0, 66, 0
4, 21780, Note_on_c, 0, 69, 117
4, 21806, Note_on_c, 0, 69, 0
4, 21810, Note_on_c, 0, 72, 113
4, 21833, Note_on_c, 0, 72, 0
4, 21840, Note_on_c, 0, 78, 120
4, 21870, Note_on_c, 0, 72, 114
4, 21872, Note_on_c, 0, 78, 0
4, 21900, Note_on_c, 0, 78, 120
4, 21915, Note_on_c, 0, 72, 0
4, 21930, Note_on_c, 0, 81, 123
4, 21935, Note_on_c, 0, 78, 0
4, 21960, Note_on_c, 0, 83, 127
4, 21963, Note_on_c, 0, 81, 0
4, 21990, Note_on_c, 0, 79, 116
4, 22006, Note_on_c, 0, 83, 0
4, 22020, Note_on_c, 0, 74, 117
4, 22023, Note_on_c, 0, 79, 0
4, 22050, Note_on_c, 0, 71, 114
4, 22053, Note_on_c, 0, 74, 0
4, 22080, Note_on_c, 0, 67, 118
4, 22085, Note_on_c, 0, 71, 0
4, 22106, Note_on_c, 0, 67, 0
4, 22110, Note_on_c, 0, 71, 122
4, 22140, Note_on_c, 0, 74, 122
4, 22151, Note_on_c, 0, 71, 0
4, 22170, Note_on_c, 0, 79, 124
4, 22178, Note_on_c, 0, 74, 0
4, 22200, Note_on_c, 0, 83, 127
4, 22203, Note_on_c, 0, 79, 0
4, 22230, Note_on_c, 0, 77, 123
4, 22235, Note_on_c, 0, 83, 0
4, 22260, Note_on_c, 0, 83, 127
4, 22272, Note_on_c, 0, 77, 0
4, 22290, Note_on_c, 0, 86, 127
4, 22296, Note_on_c, 0, 83, 0
4, 22320, Note_on_c, 0, 76, 127
4, 22325, Note_on_c, 0, 86, 0
4, 22350, Note_on_c, 0, 86, 127
4, 22360, Note_on_c, 0, 76, 0
4, 22380, Note_on_c, 0, 84, 127
4, 22386, Note_on_c, 0, 86, 0
4, 22410, Note_on_c, 0, 76, 118
4, 22415, Note_on_c, 0, 84, 0
4, 22440, Note_on_c, 0, 74, 127
4, 22440, Note_on_c, 0, 76, 0
4, 22470, Note_on_c, 0, 84, 127
4, 22481, Note_on_c, 0, 74, 0
4, 22500, Note_on_c, 0, 83, 120
4, 22507, Note_on_c, 0, 84, 0
4, 22530, Note_on_c, 0, 74, 114
4, 22530, Note_on_c, 0, 83, 0
4, 22560, Note_on_c, 0, 72, 127
4, 22560, Note_on_c, 0, 74, 0
4, 22590, Note_on_c, 0, 76, 126
4, 22605, Note_on_c, 0, 72, 0
4, 22620, Note_on_c, 0, 78, 127
4, 22633, Note_on_c, 0, 76, 0
4, 22650, Note_on_c, 0, 79, 116
4, 22655, Note_on_c, 0, 78, 0
4, 22680, Note_on_c, 0, 81, 127
4, 22680, Note_on_c, 0, 79, 0
4, 22710, Note_on_c, 0, 72, 123
4, 22713, Note_on_c, 0, 81, 0
4, 22740, Note_on_c, 0, 71, 126
4, 22753, Note_on_c, 0, 72, 0
4, 22770, Note_on_c, 0, 69, 120
4, 22771, Note_on_c, 0, 71, 0
4, 22800, Note_on_c, 0, 71, 127
4, 22811, Note_on_c, 0, 69, 0
4, 22830, Note_on_c, 0, 74, 114
4, 22837, Note_on_c, 0, 71, 0
4, 22860, Note_on_c, 0, 71, 120
4, 22867, Note_on_c, 0, 74, 0
4, 22888, Note_on_c, 0, 71, 0
4, 22890, Note_on_c, 0, 67, 111
4, 22920, Note_on_c, 0, 72, 119
4, 22930, Note_on_c, 0, 67, 0
4, 22950, Note_on_c, 0, 69, 113
4, 22960, Note_on_c, 0, 72, 0
4, 22980, Note_on_c, 0, 67, 114
4, 22992, Note_on_c, 0, 69, 0
4, 23010, Note_on_c, 0, 66, 112
4, 23010, Note_on_c, 0, 67, 0
4, 23040, Note_on_c, 0, 71, 122
4, 23043, Note_on_c, 0, 66, 0
4, 23070, Note_on_c, 0, 67, 113
4, 23074, Note_on_c, 0, 71, 0
4, 23100, Note_on_c, 0, 66, 107
4, 23105, Note_on_c, 0, 67, 0
4, 23130, Note_on_c, 0, 64, 107
4, 23138, Note_on_c, 0, 66, 0
4, 23160, Note_on_c, 0, 62, 113
4, 23161, Note_on_c, 0, 64, 0
4, 23190, Note_on_c, 0, 60, 109
4, 23201, Note_on_c, 0, 62, 0
4, 23220, Note_on_c, 0, 59, 104
4, 23225, Note_on_c, 0, 60, 0
4, 23250, Note_on_c, 0, 57, 96
4, 23251, Note_on_c, 0, 59, 0
4, 23280, Note_on_c, 0, 55, 102
4, 23291, Note_on_c, 0, 57, 0
4, 23385, Note_on_c, 0, 55, 0
4, 23400, Control_c, 0, 91, 0
4, 23400, End_track
5, 0, Start_track
5, 0, MIDI_port, 0
5, 0, Title_t, "Piano               "
5, 0, Program_c, 1, 1
5, 0, Control_c, 1, 7, 120
5, 0, Control_c, 1, 10, 30
5, 6120, Note_on_c, 1, 43, 103
5, 6156, Note_on_c, 1, 43, 0
5, 6180, Note_on_c, 1, 59, 87
5, 6202, Note_on_c, 1, 59, 0
5, 6210, Note_on_c, 1, 57, 83
5, 6236, Note_on_c, 1, 57, 0
5, 6240, Note_on_c, 1, 59, 96
5, 6266, Note_on_c, 1, 59, 0
5, 6300, Note_on_c, 1, 55, 113
5, 6335, Note_on_c, 1, 55, 0
5, 6360, Note_on_c, 1, 43, 109
5, 6388, Note_on_c, 1, 43, 0
5, 6420, Note_on_c, 1, 55, 113
5, 6446, Note_on_c, 1, 55, 0
5, 6480, Note_on_c, 1, 42, 107
5, 6516, Note_on_c, 1, 42, 0
5, 6540, Note_on_c, 1, 54, 103
5, 6566, Note_on_c, 1, 54, 0
5, 6570, Note_on_c, 1, 52, 86
5, 6600, Note_on_c, 1, 54, 95
5, 6602, Note_on_c, 1, 52, 0
5, 6630, Note_on_c, 1, 54, 0
5, 6660, Note_on_c, 1, 50, 103
5, 6699, Note_on_c, 1, 50, 0
5, 6720, Note_on_c, 1, 42, 106
5, 6760, Note_on_c, 1, 42, 0
5, 6780, Note_on_c, 1, 50, 103
5, 6815, Note_on_c, 1, 50, 0
5, 6840, Note_on_c, 1, 40, 110
5, 6885, Note_on_c, 1, 40, 0
5, 6900, Note_on_c, 1, 52, 112
5, 6929, Note_on_c, 1, 52, 0
5, 6930, Note_on_c, 1, 50, 94
5, 6960, Note_on_c, 1, 52, 109
5, 6967, Note_on_c, 1, 50, 0
5, 6988, Note_on_c, 1, 52, 0
5, 7020, Note_on_c, 1, 55, 106
5, 7041, Note_on_c, 1, 55, 0
5, 7080, Note_on_c, 1, 45, 110
5, 7110, Note_on_c, 1, 45, 0
5, 7140, Note_on_c, 1, 61, 98
5, 7162, Note_on_c, 1, 61, 0
5, 7200, Note_on_c, 1, 50, 107
5, 7233, Note_on_c, 1, 50, 0
5, 7260, Note_on_c, 1, 54, 117
5, 7288, Note_on_c, 1, 54, 0
5, 7290, Note_on_c, 1, 52, 87
5, 7320, Note_on_c, 1, 54, 104
5, 7326, Note_on_c, 1, 52, 0
5, 7340, Note_on_c, 1, 54, 0
5, 7380, Note_on_c, 1, 50, 101
5, 7405, Note_on_c, 1, 50, 0
5, 7440, Note_on_c, 1, 38, 104
5, 7473, Note_on_c, 1, 38, 0
5, 7530, Note_on_c, 1, 48, 93
5, 7548, Note_on_c, 1, 48, 0
5, 7560, Note_on_c, 1, 47, 96
5, 7585, Note_on_c, 1, 47, 0
5, 7590, Note_on_c, 1, 45, 94
5, 7619, Note_on_c, 1, 45, 0
5, 7620, Note_on_c, 1, 47, 94
5, 7710, Note_on_c, 1, 50, 84
5, 7733, Note_on_c, 1, 47, 0
5, 7735, Note_on_c, 1, 50, 0
5, 7740, Note_on_c, 1, 52, 97
5, 7770, Note_on_c, 1, 54, 95
5, 7774, Note_on_c, 1, 52, 0
5, 7798, Note_on_c, 1, 54, 0
5, 7800, Note_on_c, 1, 55, 101
5, 7830, Note_on_c, 1, 57, 82
5, 7841, Note_on_c, 1, 55, 0
5, 7860, Note_on_c, 1, 59, 86
5, 7865, Note_on_c, 1, 57, 0
5, 7890, Note_on_c, 1, 55, 100
5, 7893, Note_on_c, 1, 59, 0
5, 7918, Note_on_c, 1, 55, 0
5, 7920, Note_on_c, 1, 48, 88
5, 7950, Note_on_c, 1, 47, 87
5, 7953, Note_on_c, 1, 48, 0
5, 7980, Note_on_c, 1, 48, 96
5, 7985, Note_on_c, 1, 47, 0
5, 8070, Note_on_c, 1, 52, 98
5, 8070, Note_on_c, 1, 48, 0
5, 8100, Note_on_c, 1, 54, 111
5, 8101, Note_on_c, 1, 52, 0
5, 8130, Note_on_c, 1, 55, 107
5, 8131, Note_on_c, 1, 54, 0
5, 8160, Note_on_c, 1, 57, 101
5, 8160, Note_on_c, 1, 55, 0
5, 8190, Note_on_c, 1, 59, 87
5, 8190, Note_on_c, 1, 57, 0
5, 8220, Note_on_c, 1, 60, 118
5, 8220, Note_on_c, 1, 59, 0
5, 8250, Note_on_c, 1, 57, 88
5, 8251, Note_on_c, 1, 60, 0
5, 8280, Note_on_c, 1, 50, 96
5, 8280, Note_on_c, 1, 57, 0
5, 8310, Note_on_c, 1, 49, 94
5, 8312, Note_on_c, 1, 50, 0
5, 8340, Note_on_c, 1, 50, 109
5, 8345, Note_on_c, 1, 49, 0
5, 8430, Note_on_c, 1, 57, 89
5, 8442, Note_on_c, 1, 50, 0
5, 8460, Note_on_c, 1, 59, 100
5, 8474, Note_on_c, 1, 57, 0
5, 8490, Note_on_c, 1, 60, 113
5, 8499, Note_on_c, 1, 59, 0
5, 8520, Note_on_c, 1, 62, 86
5, 8522, Note_on_c, 1, 60, 0
5, 8550, Note_on_c, 1, 64, 83
5, 8559, Note_on_c, 1, 62, 0
5, 8580, Note_on_c, 1, 66, 98
5, 8585, Note_on_c, 1, 64, 0
5, 8609, Note_on_c, 1, 66, 0
5, 8610, Note_on_c, 1, 62, 76
5, 8640, Note_on_c, 1, 67, 97
5, 8651, Note_on_c, 1, 62, 0
5, 8670, Note_on_c, 1, 66, 92
5, 8672, Note_on_c, 1, 67, 0
5, 8700, Note_on_c, 1, 67, 88
5, 8701, Note_on_c, 1, 66, 0
5, 8730, Note_on_c, 1, 62, 82
5, 8731, Note_on_c, 1, 67, 0
5, 8760, Note_on_c, 1, 59, 88
5, 8760, Note_on_c, 1, 62, 0
5, 8790, Note_on_c, 1, 62, 65
5, 8796, Note_on_c, 1, 59, 0
5, 8820, Note_on_c, 1, 55, 83
5, 8825, Note_on_c, 1, 62, 0
5, 8850, Note_on_c, 1, 59, 82
5, 8854, Note_on_c, 1, 55, 0
5, 8880, Note_on_c, 1, 50, 97
5, 8881, Note_on_c, 1, 59, 0
5, 8910, Note_on_c, 1, 55, 97
5, 8914, Note_on_c, 1, 50, 0
5, 8940, Note_on_c, 1, 47, 93
5, 8946, Note_on_c, 1, 55, 0
5, 8970, Note_on_c, 1, 50, 96
5, 8978, Note_on_c, 1, 47, 0
5, 9000, Note_on_c, 1, 43, 94
5, 9008, Note_on_c, 1, 50, 0
5, 9039, Note_on_c, 1, 43, 0
5, 9060, Note_on_c, 1, 55, 107
5, 9099, Note_on_c, 1, 55, 0
5, 9120, Note_on_c, 1, 59, 86
5, 9155, Note_on_c, 1, 59, 0
5, 9180, Note_on_c, 1, 55, 109
5, 9223, Note_on_c, 1, 55, 0
5, 9240, Note_on_c, 1, 43, 87
5, 9283, Note_on_c, 1, 43, 0
5, 9300, Note_on_c, 1, 55, 98
5, 9341, Note_on_c, 1, 55, 0
5, 9360, Note_on_c, 1, 42, 98
5, 9408, Note_on_c, 1, 42, 0
5, 9420, Note_on_c, 1, 54, 106
5, 9455, Note_on_c, 1, 54, 0
5, 9480, Note_on_c, 1, 57, 86
5, 9516, Note_on_c, 1, 57, 0
5, 9540, Note_on_c, 1, 54, 107
5, 9586, Note_on_c, 1, 54, 0
5, 9600, Note_on_c, 1, 42, 102
5, 9639, Note_on_c, 1, 42, 0
5, 9660, Note_on_c, 1, 54, 110
5, 9703, Note_on_c, 1, 54, 0
5, 9720, Note_on_c, 1, 40, 112
5, 9758, Note_on_c, 1, 40, 0
5, 9780, Note_on_c, 1, 52, 103
5, 9816, Note_on_c, 1, 52, 0
5, 9840, Note_on_c, 1, 55, 104
5, 9876, Note_on_c, 1, 55, 0
5, 9900, Note_on_c, 1, 52, 106
5, 9939, Note_on_c, 1, 52, 0
5, 9960, Note_on_c, 1, 40, 107
5, 9999, Note_on_c, 1, 40, 0
5, 10020, Note_on_c, 1, 55, 107
5, 10063, Note_on_c, 1, 55, 0
5, 10080, Note_on_c, 1, 45, 103
5, 10123, Note_on_c, 1, 45, 0
5, 10140, Note_on_c, 1, 52, 96
5, 10173, Note_on_c, 1, 52, 0
5, 10200, Note_on_c, 1, 55, 101
5, 10228, Note_on_c, 1, 55, 0
5, 10260, Note_on_c, 1, 52, 106
5, 10290, Note_on_c, 1, 52, 0
5, 10320, Note_on_c, 1, 45, 112
5, 10351, Note_on_c, 1, 45, 0
5, 10380, Note_on_c, 1, 55, 106
5, 10401, Note_on_c, 1, 55, 0
5, 10440, Note_on_c, 1, 54, 98
5, 10470, Note_on_c, 1, 57, 88
5, 10470, Note_on_c, 1, 54, 0
5, 10500, Note_on_c, 1, 62, 71
5, 10526, Note_on_c, 1, 57, 0
5, 10530, Note_on_c, 1, 66, 89
5, 10532, Note_on_c, 1, 62, 0
5, 10560, Note_on_c, 1, 69, 103
5, 10566, Note_on_c, 1, 66, 0
5, 10590, Note_on_c, 1, 66, 95
5, 10596, Note_on_c, 1, 69, 0
5, 10620, Note_on_c, 1, 62, 73
5, 10621, Note_on_c, 1, 66, 0
5, 10650, Note_on_c, 1, 57, 80
5, 10651, Note_on_c, 1, 62, 0
5, 10680, Note_on_c, 1, 54, 95
5, 10683, Note_on_c, 1, 57, 0
5, 10705, Note_on_c, 1, 54, 0
5, 10710, Note_on_c, 1, 57, 74
5, 10740, Note_on_c, 1, 50, 92
5, 10741, Note_on_c, 1, 57, 0
5, 10770, Note_on_c, 1, 54, 89
5, 10774, Note_on_c, 1, 50, 0
5, 10800, Note_on_c, 1, 55, 98
5, 10805, Note_on_c, 1, 54, 0
5, 10830, Note_on_c, 1, 59, 91
5, 10836, Note_on_c, 1, 55, 0
5, 10860, Note_on_c, 1, 62, 86
5, 10871, Note_on_c, 1, 59, 0
5, 10890, Note_on_c, 1, 67, 96
5, 10900, Note_on_c, 1, 62, 0
5, 10920, Note_on_c, 1, 71, 107
5, 10931, Note_on_c, 1, 67, 0
5, 10950, Note_on_c, 1, 67, 92
5, 10953, Note_on_c, 1, 71, 0
5, 10979, Note_on_c, 1, 67, 0
5, 10980, Note_on_c, 1, 62, 73
5, 11010, Note_on_c, 1, 59, 87
5, 11011, Note_on_c, 1, 62, 0
5, 11038, Note_on_c, 1, 59, 0
5, 11040, Note_on_c, 1, 55, 104
5, 11070, Note_on_c, 1, 59, 71
5, 11070, Note_on_c, 1, 55, 0
5, 11096, Note_on_c, 1, 59, 0
5, 11100, Note_on_c, 1, 52, 89
5, 11130, Note_on_c, 1, 55, 101
5, 11132, Note_on_c, 1, 52, 0
5, 11160, Note_on_c, 1, 57, 87
5, 11163, Note_on_c, 1, 55, 0
5, 11203, Note_on_c, 1, 57, 0
5, 11220, Note_on_c, 1, 61, 91
5, 11257, Note_on_c, 1, 61, 0
5, 11280, Note_on_c, 1, 62, 78
5, 11308, Note_on_c, 1, 62, 0
5, 11310, Note_on_c, 1, 57, 78
5, 11340, Note_on_c, 1, 54, 85
5, 11348, Note_on_c, 1, 57, 0
5, 11368, Note_on_c, 1, 54, 0
5, 11370, Note_on_c, 1, 50, 79
5, 11400, Note_on_c, 1, 57, 87
5, 11406, Note_on_c, 1, 50, 0
5, 11447, Note_on_c, 1, 57, 0
5, 11460, Note_on_c, 1, 45, 112
5, 11520, Note_on_c, 1, 38, 88
5, 11520, Note_on_c, 1, 45, 0
5, 11550, Note_on_c, 1, 50, 83
5, 11560, Note_on_c, 1, 38, 0
5, 11580, Note_on_c, 1, 52, 92
5, 11581, Note_on_c, 1, 50, 0
5, 11610, Note_on_c, 1, 54, 94
5, 11617, Note_on_c, 1, 52, 0
5, 11640, Note_on_c, 1, 55, 113
5, 11641, Note_on_c, 1, 54, 0
5, 11670, Note_on_c, 1, 57, 100
5, 11680, Note_on_c, 1, 55, 0
5, 11700, Note_on_c, 1, 59, 97
5, 11703, Note_on_c, 1, 57, 0
5, 11730, Note_on_c, 1, 61, 99
5, 11730, Note_on_c, 1, 59, 0
5, 11760, Note_on_c, 1, 62, 76
5, 11768, Note_on_c, 1, 61, 0
5, 11849, Note_on_c, 1, 62, 0
5, 17640, Note_on_c, 1, 38, 91
5, 17693, Note_on_c, 1, 38, 0
5, 17700, Note_on_c, 1, 54, 98
5, 17726, Note_on_c, 1, 54, 0
5, 17730, Note_on_c, 1, 52, 89
5, 17760, Note_on_c, 1, 54, 90
5, 17765, Note_on_c, 1, 52, 0
5, 17781, Note_on_c, 1, 54, 0
5, 17820, Note_on_c, 1, 50, 87
5, 17851, Note_on_c, 1, 50, 0
5, 17880, Note_on_c, 1, 38, 86
5, 17906, Note_on_c, 1, 38, 0
5, 17940, Note_on_c, 1, 54, 107
5, 17968, Note_on_c, 1, 54, 0
5, 18000, Note_on_c, 1, 43, 94
5, 18041, Note_on_c, 1, 43, 0
5, 18060, Note_on_c, 1, 59, 98
5, 18089, Note_on_c, 1, 59, 0
5, 18090, Note_on_c, 1, 57, 80
5, 18120, Note_on_c, 1, 59, 89
5, 18123, Note_on_c, 1, 57, 0
5, 18143, Note_on_c, 1, 59, 0
5, 18180, Note_on_c, 1, 55, 106
5, 18216, Note_on_c, 1, 55, 0
5, 18240, Note_on_c, 1, 43, 93
5, 18272, Note_on_c, 1, 43, 0
5, 18300, Note_on_c, 1, 59, 96
5, 18336, Note_on_c, 1, 59, 0
5, 18360, Note_on_c, 1, 48, 92
5, 18404, Note_on_c, 1, 48, 0
5, 18420, Note_on_c, 1, 60, 120
5, 18450, Note_on_c, 1, 59, 83
5, 18450, Note_on_c, 1, 60, 0
5, 18480, Note_on_c, 1, 60, 113
5, 18485, Note_on_c, 1, 59, 0
5, 18506, Note_on_c, 1, 60, 0
5, 18540, Note_on_c, 1, 54, 94
5, 18572, Note_on_c, 1, 54, 0
5, 18600, Note_on_c, 1, 57, 82
5, 18631, Note_on_c, 1, 57, 0
5, 18660, Note_on_c, 1, 60, 113
5, 18688, Note_on_c, 1, 60, 0
5, 18720, Note_on_c, 1, 57, 100
5, 18756, Note_on_c, 1, 57, 0
5, 18780, Note_on_c, 1, 54, 110
5, 18800, Note_on_c, 1, 54, 0
5, 18840, Note_on_c, 1, 51, 103
5, 18869, Note_on_c, 1, 51, 0
5, 18870, Note_on_c, 1, 47, 86
5, 18900, Note_on_c, 1, 51, 97
5, 18900, Note_on_c, 1, 47, 0
5, 18930, Note_on_c, 1, 54, 104
5, 18935, Note_on_c, 1, 51, 0
5, 18960, Note_on_c, 1, 59, 87
5, 18962, Note_on_c, 1, 54, 0
5, 18990, Note_on_c, 1, 63, 94
5, 19001, Note_on_c, 1, 59, 0
5, 19020, Note_on_c, 1, 66, 98
5, 19031, Note_on_c, 1, 63, 0
5, 19050, Note_on_c, 1, 69, 93
5, 19053, Note_on_c, 1, 66, 0
5, 19080, Note_on_c, 1, 67, 91
5, 19080, Note_on_c, 1, 69, 0
5, 19170, Note_on_c, 1, 66, 87
5, 19170, Note_on_c, 1, 67, 0
5, 19200, Note_on_c, 1, 67, 88
5, 19200, Note_on_c, 1, 66, 0
5, 19290, Note_on_c, 1, 54, 79
5, 19293, Note_on_c, 1, 67, 0
5, 19320, Note_on_c, 1, 55, 84
5, 19327, Note_on_c, 1, 54, 0
5, 19410, Note_on_c, 1, 47, 79
5, 19410, Note_on_c, 1, 55, 0
5, 19440, Note_on_c, 1, 48, 91
5, 19440, Note_on_c, 1, 47, 0
5, 19530, Note_on_c, 1, 71, 87
5, 19530, Note_on_c, 1, 48, 0
5, 19560, Note_on_c, 1, 72, 88
5, 19560, Note_on_c, 1, 71, 0
5, 19650, Note_on_c, 1, 59, 79
5, 19653, Note_on_c, 1, 72, 0
5, 19680, Note_on_c, 1, 60, 84
5, 19687, Note_on_c, 1, 59, 0
5, 19770, Note_on_c, 1, 52, 79
5, 19770, Note_on_c, 1, 60, 0
5, 19800, Note_on_c, 1, 51, 110
5, 19800, Note_on_c, 1, 52, 0
5, 19830, Note_on_c, 1, 51, 0
5, 19860, Note_on_c, 1, 57, 92
5, 19881, Note_on_c, 1, 57, 0
5, 19920, Note_on_c, 1, 55, 101
5, 19945, Note_on_c, 1, 55, 0
5, 19980, Note_on_c, 1, 46, 107
5, 20007, Note_on_c, 1, 46, 0
5, 20040, Note_on_c, 1, 47, 104
5, 20073, Note_on_c, 1, 47, 0
5, 20100, Note_on_c, 1, 54, 103
5, 20120, Note_on_c, 1, 54, 0
5, 20160, Note_on_c, 1, 52, 104
5, 20198, Note_on_c, 1, 52, 0
5, 20220, Note_on_c, 1, 55, 103
5, 20245, Note_on_c, 1, 55, 0
5, 20250, Note_on_c, 1, 54, 97
5, 20278, Note_on_c, 1, 54, 0
5, 20280, Note_on_c, 1, 55, 105
5, 20310, Note_on_c, 1, 55, 0
5, 20340, Note_on_c, 1, 52, 100
5, 20371, Note_on_c, 1, 52, 0
5, 20400, Note_on_c, 1, 40, 110
5, 20431, Note_on_c, 1, 40, 0
5, 20490, Note_on_c, 1, 50, 107
5, 20506, Note_on_c, 1, 50, 0
5, 20520, Note_on_c, 1, 48, 92
5, 20550, Note_on_c, 1, 52, 87
5, 20552, Note_on_c, 1, 48, 0
5, 20580, Note_on_c, 1, 57, 91
5, 20580, Note_on_c, 1, 52, 0
5, 20610, Note_on_c, 1, 60, 94
5, 20617, Note_on_c, 1, 57, 0
5, 20640, Note_on_c, 1, 64, 93
5, 20640, Note_on_c, 1, 60, 0
5, 20670, Note_on_c, 1, 60, 83
5, 20675, Note_on_c, 1, 64, 0
5, 20700, Note_on_c, 1, 57, 83
5, 20704, Note_on_c, 1, 60, 0
5, 20730, Note_on_c, 1, 52, 86
5, 20730, Note_on_c, 1, 57, 0
5, 20760, Note_on_c, 1, 48, 88
5, 20760, Note_on_c, 1, 52, 0
5, 20790, Note_on_c, 1, 52, 83
5, 20790, Note_on_c, 1, 48, 0
5, 20820, Note_on_c, 1, 50, 81
5, 20820, Note_on_c, 1, 52, 0
5, 20850, Note_on_c, 1, 48, 78
5, 20853, Note_on_c, 1, 50, 0
5, 20880, Note_on_c, 1, 47, 94
5, 20880, Note_on_c, 1, 48, 0
5, 20910, Note_on_c, 1, 50, 84
5, 20914, Note_on_c, 1, 47, 0
5, 20940, Note_on_c, 1, 55, 93
5, 20967, Note_on_c, 1, 50, 0
5, 20970, Note_on_c, 1, 59, 86
5, 20984, Note_on_c, 1, 55, 0
5, 21000, Note_on_c, 1, 62, 86
5, 21008, Note_on_c, 1, 59, 0
5, 21030, Note_on_c, 1, 59, 76
5, 21034, Note_on_c, 1, 62, 0
5, 21060, Note_on_c, 1, 55, 84
5, 21061, Note_on_c, 1, 59, 0
5, 21090, Note_on_c, 1, 50, 88
5, 21094, Note_on_c, 1, 55, 0
5, 21118, Note_on_c, 1, 50, 0
5, 21120, Note_on_c, 1, 47, 91
5, 21150, Note_on_c, 1, 50, 83
5, 21151, Note_on_c, 1, 47, 0
5, 21180, Note_on_c, 1, 48, 88
5, 21186, Note_on_c, 1, 50, 0
5, 21210, Note_on_c, 1, 47, 76
5, 21216, Note_on_c, 1, 48, 0
5, 21240, Note_on_c, 1, 45, 94
5, 21248, Note_on_c, 1, 47, 0
5, 21273, Note_on_c, 1, 45, 0
5, 21300, Note_on_c, 1, 48, 83
5, 21337, Note_on_c, 1, 48, 0
5, 21360, Note_on_c, 1, 52, 93
5, 21398, Note_on_c, 1, 52, 0
5, 21420, Note_on_c, 1, 55, 93
5, 21450, Note_on_c, 1, 55, 0
5, 21480, Note_on_c, 1, 54, 95
5, 21510, Note_on_c, 1, 54, 0
5, 21540, Note_on_c, 1, 52, 88
5, 21576, Note_on_c, 1, 52, 0
5, 21600, Note_on_c, 1, 50, 98
5, 21632, Note_on_c, 1, 50, 0
5, 21660, Note_on_c, 1, 54, 103
5, 21695, Note_on_c, 1, 54, 0
5, 21720, Note_on_c, 1, 57, 102
5, 21747, Note_on_c, 1, 57, 0
5, 21780, Note_on_c, 1, 60, 104
5, 21823, Note_on_c, 1, 60, 0
5, 21840, Note_on_c, 1, 59, 96
5, 21883, Note_on_c, 1, 59, 0
5, 21900, Note_on_c, 1, 57, 86
5, 21938, Note_on_c, 1, 57, 0
5, 21960, Note_on_c, 1, 55, 89
5, 21997, Note_on_c, 1, 55, 0
5, 22020, Note_on_c, 1, 59, 87
5, 22057, Note_on_c, 1, 59, 0
5, 22080, Note_on_c, 1, 62, 93
5, 22117, Note_on_c, 1, 62, 0
5, 22140, Note_on_c, 1, 65, 90
5, 22177, Note_on_c, 1, 65, 0
5, 22200, Note_on_c, 1, 64, 97
5, 22230, Note_on_c, 1, 64, 0
5, 22260, Note_on_c, 1, 62, 91
5, 22297, Note_on_c, 1, 62, 0
5, 22320, Note_on_c, 1, 60, 96
5, 22357, Note_on_c, 1, 60, 0
5, 22380, Note_on_c, 1, 64, 93
5, 22423, Note_on_c, 1, 64, 0
5, 22440, Note_on_c, 1, 66, 90
5, 22470, Note_on_c, 1, 66, 0
5, 22500, Note_on_c, 1, 68, 90
5, 22537, Note_on_c, 1, 68, 0
5, 22560, Note_on_c, 1, 69, 98
5, 22597, Note_on_c, 1, 69, 0
5, 22620, Note_on_c, 1, 67, 90
5, 22663, Note_on_c, 1, 67, 0
5, 22680, Note_on_c, 1, 66, 107
5, 22712, Note_on_c, 1, 66, 0
5, 22740, Note_on_c, 1, 62, 103
5, 22768, Note_on_c, 1, 62, 0
5, 22800, Note_on_c, 1, 67, 97
5, 22829, Note_on_c, 1, 67, 0
5, 22860, Note_on_c, 1, 55, 103
5, 22890, Note_on_c, 1, 55, 0
5, 22920, Note_on_c, 1, 62, 106
5, 22951, Note_on_c, 1, 62, 0
5, 22980, Note_on_c, 1, 50, 110
5, 23008, Note_on_c, 1, 50, 0
5, 23040, Note_on_c, 1, 55, 113
5, 23070, Note_on_c, 1, 43, 102
5, 23076, Note_on_c, 1, 55, 0
5, 23100, Note_on_c, 1, 45, 103
5, 23106, Note_on_c, 1, 43, 0
5, 23130, Note_on_c, 1, 47, 106
5, 23133, Note_on_c, 1, 45, 0
5, 23160, Note_on_c, 1, 48, 107
5, 23166, Note_on_c, 1, 47, 0
5, 23190, Note_on_c, 1, 50, 109
5, 23193, Note_on_c, 1, 48, 0
5, 23220, Note_on_c, 1, 52, 101
5, 23225, Note_on_c, 1, 50, 0
5, 23250, Note_on_c, 1, 54, 109
5, 23257, Note_on_c, 1, 52, 0
5, 23280, Note_on_c, 1, 55, 111
5, 23285, Note_on_c, 1, 54, 0
5, 23353, Note_on_c, 1, 55, 0
5, 23400, Control_c, 1, 93, 0
5, 23400, End_track
6, 0, Start_track
6, 0, MIDI_port, 0
6, 0, Title_t, "Piano               "
6, 0, Program_c, 12, 0
6, 0, Control_c, 12, 7, 127
6, 0, Control_c, 12, 10, 64
6, 360, Control_c, 12, 121, 0
6, 360, Control_c, 12, 93, 30
6, 360, Control_c, 12, 91, 60
6, 360, Control_c, 12, 64, 0
6, 360, Control_c, 12, 7, 120
6, 360, Note_on_c, 12, 67, 101
6, 390, Note_on_c, 12, 66, 116
6, 393, Note_on_c, 12, 67, 0
6, 416, Note_on_c, 12, 66, 0
6, 420, Note_on_c, 12, 67, 112
6, 510, Note_on_c, 12, 62, 93
6, 526, Note_on_c, 12, 67, 0
6, 540, Note_on_c, 12, 64, 106
6, 546, Note_on_c, 12, 62, 0
6, 568, Note_on_c, 12, 64, 0
6, 570, Note_on_c, 12, 66, 99
6, 595, Note_on_c, 12, 66, 0
6, 600, Note_on_c, 12, 67, 106
6, 630, Note_on_c, 12, 69, 113
6, 635, Note_on_c, 12, 67, 0
6, 660, Note_on_c, 12, 71, 111
6, 660, Note_on_c, 12, 69, 0
6, 690, Note_on_c, 12, 73, 112
6, 690, Note_on_c, 12, 71, 0
6, 718, Note_on_c, 12, 73, 0
6, 720, Note_on_c, 12, 74, 113
6, 750, Note_on_c, 12, 73, 105
6, 756, Note_on_c, 12, 74, 0
6, 776, Note_on_c, 12, 73, 0
6, 780, Note_on_c, 12, 74, 117
6, 870, Note_on_c, 12, 69, 114
6, 881, Note_on_c, 12, 74, 0
6, 900, Note_on_c, 12, 71, 114
6, 905, Note_on_c, 12, 69, 0
6, 930, Note_on_c, 12, 73, 112
6, 933, Note_on_c, 12, 71, 0
6, 958, Note_on_c, 12, 73, 0
6, 960, Note_on_c, 12, 74, 110
6, 990, Note_on_c, 12, 76, 99
6, 995, Note_on_c, 12, 74, 0
6, 1020, Note_on_c, 12, 78, 107
6, 1025, Note_on_c, 12, 76, 0
6, 1045, Note_on_c, 12, 78, 0
6, 1050, Note_on_c, 12, 74, 97
6, 1080, Note_on_c, 12, 79, 103
6, 1088, Note_on_c, 12, 74, 0
6, 1110, Note_on_c, 12, 78, 98
6, 1117, Note_on_c, 12, 79, 0
6, 1135, Note_on_c, 12, 78, 0
6, 1140, Note_on_c, 12, 79, 107
6, 1230, Note_on_c, 12, 78, 106
6, 1248, Note_on_c, 12, 79, 0
6, 1260, Note_on_c, 12, 76, 98
6, 1260, Note_on_c, 12, 78, 0
6, 1290, Note_on_c, 12, 74, 101
6, 1290, Note_on_c, 12, 76, 0
6, 1320, Note_on_c, 12, 73, 112
6, 1323, Note_on_c, 12, 74, 0
6, 1347, Note_on_c, 12, 73, 0
6, 1350, Note_on_c, 12, 76, 103
6, 1380, Note_on_c, 12, 69, 106
6, 1381, Note_on_c, 12, 76, 0
6, 1410, Note_on_c, 12, 67, 101
6, 1410, Note_on_c, 12, 69, 0
6, 1440, Note_on_c, 12, 66, 110
6, 1440, Note_on_c, 12, 67, 0
6, 1470, Note_on_c, 12, 69, 107
6, 1471, Note_on_c, 12, 66, 0
6, 1497, Note_on_c, 12, 69, 0
6, 1500, Note_on_c, 12, 62, 110
6, 1530, Note_on_c, 12, 61, 104
6, 1533, Note_on_c, 12, 62, 0
6, 1560, Note_on_c, 12, 62, 100
6, 1561, Note_on_c, 12, 61, 0
6, 1590, Note_on_c, 12, 66, 99
6, 1590, Note_on_c, 12, 62, 0
6, 1617, Note_on_c, 12, 66, 0
6, 1620, Note_on_c, 12, 57, 101
6, 1650, Note_on_c, 12, 55, 93
6, 1658, Note_on_c, 12, 57, 0
6, 1680, Note_on_c, 12, 54, 106
6, 1685, Note_on_c, 12, 55, 0
6, 1710, Note_on_c, 12, 57, 87
6, 1710, Note_on_c, 12, 54, 0
6, 1740, Note_on_c, 12, 50, 97
6, 1743, Note_on_c, 12, 57, 0
6, 1788, Note_on_c, 12, 50, 0
6, 1860, Note_on_c, 12, 74, 111
6, 1890, Note_on_c, 12, 72, 108
6, 1890, Note_on_c, 12, 74, 0
6, 1920, Note_on_c, 12, 74, 114
6, 1926, Note_on_c, 12, 72, 0
6, 1946, Note_on_c, 12, 74, 0
6, 1980, Note_on_c, 12, 67, 101
6, 1999, Note_on_c, 12, 67, 0
6, 2040, Note_on_c, 12, 59, 97
6, 2065, Note_on_c, 12, 59, 0
6, 2100, Note_on_c, 12, 74, 94
6, 2134, Note_on_c, 12, 74, 0
6, 2220, Note_on_c, 12, 76, 101
6, 2250, Note_on_c, 12, 74, 101
6, 2251, Note_on_c, 12, 76, 0
6, 2280, Note_on_c, 12, 76, 117
6, 2283, Note_on_c, 12, 74, 0
6, 2303, Note_on_c, 12, 76, 0
6, 2340, Note_on_c, 12, 69, 113
6, 2365, Note_on_c, 12, 69, 0
6, 2400, Note_on_c, 12, 60, 121
6, 2424, Note_on_c, 12, 60, 0
6, 2460, Note_on_c, 12, 76, 98
6, 2486, Note_on_c, 12, 76, 0
6, 2580, Note_on_c, 12, 78, 107
6, 2608, Note_on_c, 12, 78, 0
6, 2610, Note_on_c, 12, 76, 102
6, 2640, Note_on_c, 12, 78, 120
6, 2648, Note_on_c, 12, 76, 0
6, 2700, Note_on_c, 12, 74, 107
6, 2704, Note_on_c, 12, 78, 0
6, 2760, Note_on_c, 12, 81, 122
6, 2765, Note_on_c, 12, 74, 0
6, 2813, Note_on_c, 12, 81, 0
6, 2820, Note_on_c, 12, 72, 109
6, 2940, Note_on_c, 12, 71, 114
6, 2945, Note_on_c, 12, 72, 0
6, 2993, Note_on_c, 12, 71, 0
6, 3030, Note_on_c, 12, 67, 99
6, 3060, Note_on_c, 12, 71, 103
6, 3068, Note_on_c, 12, 67, 0
6, 3090, Note_on_c, 12, 74, 111
6, 3091, Note_on_c, 12, 71, 0
6, 3116, Note_on_c, 12, 74, 0
6, 3120, Note_on_c, 12, 79, 112
6, 3150, Note_on_c, 12, 74, 104
6, 3154, Note_on_c, 12, 79, 0
6, 3180, Note_on_c, 12, 79, 113
6, 3188, Note_on_c, 12, 74, 0
6, 3210, Note_on_c, 12, 81, 108
6, 3215, Note_on_c, 12, 79, 0
6, 3240, Note_on_c, 12, 83, 116
6, 3240, Note_on_c, 12, 81, 0
6, 3270, Note_on_c, 12, 79, 113
6, 3277, Note_on_c, 12, 83, 0
6, 3300, Note_on_c, 12, 74, 109
6, 3302, Note_on_c, 12, 79, 0
6, 3330, Note_on_c, 12, 71, 98
6, 3331, Note_on_c, 12, 74, 0
6, 3360, Note_on_c, 12, 67, 106
6, 3360, Note_on_c, 12, 71, 0
6, 3387, Note_on_c, 12, 67, 0
6, 3390, Note_on_c, 12, 71, 101
6, 3420, Note_on_c, 12, 74, 104
6, 3428, Note_on_c, 12, 71, 0
6, 3450, Note_on_c, 12, 79, 99
6, 3457, Note_on_c, 12, 74, 0
6, 3480, Note_on_c, 12, 83, 106
6, 3480, Note_on_c, 12, 79, 0
6, 3510, Note_on_c, 12, 79, 99
6, 3517, Note_on_c, 12, 83, 0
6, 3540, Note_on_c, 12, 78, 103
6, 3548, Note_on_c, 12, 79, 0
6, 3568, Note_on_c, 12, 78, 0
6, 3570, Note_on_c, 12, 76, 94
6, 3600, Note_on_c, 12, 81, 99
6, 3600, Note_on_c, 12, 76, 0
6, 3630, Note_on_c, 12, 76, 97
6, 3638, Note_on_c, 12, 81, 0
6, 3660, Note_on_c, 12, 73, 108
6, 3664, Note_on_c, 12, 76, 0
6, 3690, Note_on_c, 12, 69, 104
6, 3691, Note_on_c, 12, 73, 0
6, 3720, Note_on_c, 12, 66, 103
6, 3723, Note_on_c, 12, 69, 0
6, 3750, Note_on_c, 12, 69, 101
6, 3752, Note_on_c, 12, 66, 0
6, 3780, Note_on_c, 12, 73, 103
6, 3788, Note_on_c, 12, 69, 0
6, 3810, Note_on_c, 12, 76, 101
6, 3817, Note_on_c, 12, 73, 0
6, 3840, Note_on_c, 12, 81, 108
6, 3847, Note_on_c, 12, 76, 0
6, 3870, Note_on_c, 12, 78, 107
6, 3885, Note_on_c, 12, 81, 0
6, 3900, Note_on_c, 12, 76, 107
6, 3903, Note_on_c, 12, 78, 0
6, 3929, Note_on_c, 12, 76, 0
6, 3930, Note_on_c, 12, 74, 104
6, 3960, Note_on_c, 12, 79, 107
6, 3966, Note_on_c, 12, 74, 0
6, 3990, Note_on_c, 12, 74, 107
6, 4002, Note_on_c, 12, 79, 0
6, 4020, Note_on_c, 12, 71, 105
6, 4023, Note_on_c, 12, 74, 0
6, 4048, Note_on_c, 12, 71, 0
6, 4050, Note_on_c, 12, 67, 105
6, 4080, Note_on_c, 12, 64, 100
6, 4086, Note_on_c, 12, 67, 0
6, 4108, Note_on_c, 12, 64, 0
6, 4110, Note_on_c, 12, 67, 98
6, 4140, Note_on_c, 12, 71, 106
6, 4148, Note_on_c, 12, 67, 0
6, 4170, Note_on_c, 12, 74, 111
6, 4178, Note_on_c, 12, 71, 0
6, 4200, Note_on_c, 12, 79, 116
6, 4204, Note_on_c, 12, 74, 0
6, 4230, Note_on_c, 12, 78, 108
6, 4242, Note_on_c, 12, 79, 0
6, 4260, Note_on_c, 12, 76, 102
6, 4263, Note_on_c, 12, 78, 0
6, 4290, Note_on_c, 12, 74, 97
6, 4293, Note_on_c, 12, 76, 0
6, 4320, Note_on_c, 12, 73, 113
6, 4323, Note_on_c, 12, 74, 0
6, 4350, Note_on_c, 12, 67, 108
6, 4352, Note_on_c, 12, 73, 0
6, 4380, Note_on_c, 12, 64, 105
6, 4382, Note_on_c, 12, 67, 0
6, 4410, Note_on_c, 12, 61, 101
6, 4412, Note_on_c, 12, 64, 0
6, 4440, Note_on_c, 12, 57, 102
6, 4440, Note_on_c, 12, 61, 0
6, 4470, Note_on_c, 12, 61, 105
6, 4478, Note_on_c, 12, 57, 0
6, 4500, Note_on_c, 12, 64, 107
6, 4501, Note_on_c, 12, 61, 0
6, 4530, Note_on_c, 12, 67, 106
6, 4530, Note_on_c, 12, 64, 0
6, 4560, Note_on_c, 12, 73, 115
6, 4561, Note_on_c, 12, 67, 0
6, 4590, Note_on_c, 12, 76, 113
6, 4595, Note_on_c, 12, 73, 0
6, 4620, Note_on_c, 12, 74, 113
6, 4627, Note_on_c, 12, 76, 0
6, 4650, Note_on_c, 12, 73, 118
6, 4655, Note_on_c, 12, 74, 0
6, 4680, Note_on_c, 12, 74, 114
6, 4683, Note_on_c, 12, 73, 0
6, 4728, Note_on_c, 12, 74, 0
6, 4740, Note_on_c, 12, 54, 109
6, 4762, Note_on_c, 12, 54, 0
6, 4800, Note_on_c, 12, 54, 118
6, 4830, Note_on_c, 12, 54, 0
6, 4860, Note_on_c, 12, 69, 120
6, 4920, Note_on_c, 12, 74, 117
6, 4923, Note_on_c, 12, 69, 0
6, 4980, Note_on_c, 12, 78, 113
6, 4990, Note_on_c, 12, 74, 0
6, 5038, Note_on_c, 12, 78, 0
6, 5040, Note_on_c, 12, 71, 114
6, 5100, Note_on_c, 12, 55, 120
6, 5103, Note_on_c, 12, 71, 0
6, 5126, Note_on_c, 12, 55, 0
6, 5160, Note_on_c, 12, 55, 127
6, 5189, Note_on_c, 12, 55, 0
6, 5220, Note_on_c, 12, 71, 123
6, 5280, Note_on_c, 12, 76, 108
6, 5292, Note_on_c, 12, 71, 0
6, 5336, Note_on_c, 12, 76, 0
6, 5340, Note_on_c, 12, 79, 111
6, 5377, Note_on_c, 12, 79, 0
6, 5400, Note_on_c, 12, 73, 116
6, 5430, Note_on_c, 12, 76, 106
6, 5434, Note_on_c, 12, 73, 0
6, 5460, Note_on_c, 12, 69, 116
6, 5462, Note_on_c, 12, 76, 0
6, 5486, Note_on_c, 12, 69, 0
6, 5490, Note_on_c, 12, 67, 102
6, 5520, Note_on_c, 12, 66, 112
6, 5521, Note_on_c, 12, 67, 0
6, 5547, Note_on_c, 12, 66, 0
6, 5550, Note_on_c, 12, 69, 111
6, 5580, Note_on_c, 12, 74, 110
6, 5590, Note_on_c, 12, 69, 0
6, 5610, Note_on_c, 12, 78, 108
6, 5618, Note_on_c, 12, 74, 0
6, 5635, Note_on_c, 12, 78, 0
6, 5640, Note_on_c, 12, 79, 116
6, 5670, Note_on_c, 12, 76, 109
6, 5680, Note_on_c, 12, 79, 0
6, 5700, Note_on_c, 12, 74, 103
6, 5701, Note_on_c, 12, 76, 0
6, 5730, Note_on_c, 12, 73, 112
6, 5732, Note_on_c, 12, 74, 0
6, 5760, Note_on_c, 12, 78, 114
6, 5765, Note_on_c, 12, 73, 0
6, 5790, Note_on_c, 12, 74, 107
6, 5795, Note_on_c, 12, 78, 0
6, 5820, Note_on_c, 12, 73, 112
6, 5823, Note_on_c, 12, 74, 0
6, 5847, Note_on_c, 12, 73, 0
6, 5850, Note_on_c, 12, 71, 106
6, 5880, Note_on_c, 12, 69, 101
6, 5887, Note_on_c, 12, 71, 0
6, 5910, Note_on_c, 12, 67, 97
6, 5916, Note_on_c, 12, 69, 0
6, 5940, Note_on_c, 12, 66, 105
6, 5941, Note_on_c, 12, 67, 0
6, 5968, Note_on_c, 12, 66, 0
6, 5970, Note_on_c, 12, 64, 101
6, 6000, Note_on_c, 12, 62, 99
6, 6012, Note_on_c, 12, 64, 0
6, 6073, Note_on_c, 12, 62, 0
6, 11880, Note_on_c, 12, 78, 110
6, 11910, Note_on_c, 12, 79, 97
6, 11917, Note_on_c, 12, 78, 0
6, 11940, Note_on_c, 12, 81, 116
6, 11940, Note_on_c, 12, 79, 0
6, 12030, Note_on_c, 12, 83, 116
6, 12045, Note_on_c, 12, 81, 0
6, 12060, Note_on_c, 12, 81, 109
6, 12061, Note_on_c, 12, 83, 0
6, 12090, Note_on_c, 12, 79, 104
6, 12098, Note_on_c, 12, 81, 0
6, 12120, Note_on_c, 12, 78, 108
6, 12126, Note_on_c, 12, 79, 0
6, 12148, Note_on_c, 12, 78, 0
6, 12150, Note_on_c, 12, 76, 100
6, 12180, Note_on_c, 12, 74, 108
6, 12190, Note_on_c, 12, 76, 0
6, 12210, Note_on_c, 12, 72, 101
6, 12212, Note_on_c, 12, 74, 0
6, 12240, Note_on_c, 12, 71, 116
6, 12245, Note_on_c, 12, 72, 0
6, 12270, Note_on_c, 12, 72, 122
6, 12280, Note_on_c, 12, 71, 0
6, 12300, Note_on_c, 12, 74, 124
6, 12306, Note_on_c, 12, 72, 0
6, 12390, Note_on_c, 12, 76, 119
6, 12403, Note_on_c, 12, 74, 0
6, 12420, Note_on_c, 12, 74, 112
6, 12422, Note_on_c, 12, 76, 0
6, 12450, Note_on_c, 12, 72, 107
6, 12454, Note_on_c, 12, 74, 0
6, 12480, Note_on_c, 12, 71, 104
6, 12488, Note_on_c, 12, 72, 0
6, 12505, Note_on_c, 12, 71, 0
6, 12510, Note_on_c, 12, 69, 102
6, 12540, Note_on_c, 12, 67, 98
6, 12541, Note_on_c, 12, 69, 0
6, 12570, Note_on_c, 12, 66, 94
6, 12572, Note_on_c, 12, 67, 0
6, 12600, Note_on_c, 12, 64, 96
6, 12600, Note_on_c, 12, 66, 0
6, 12630, Note_on_c, 12, 68, 103
6, 12638, Note_on_c, 12, 64, 0
6, 12657, Note_on_c, 12, 68, 0
6, 12660, Note_on_c, 12, 69, 96
6, 12687, Note_on_c, 12, 69, 0
6, 12690, Note_on_c, 12, 71, 101
6, 12720, Note_on_c, 12, 69, 110
6, 12726, Note_on_c, 12, 71, 0
6, 12750, Note_on_c, 12, 64, 98
6, 12755, Note_on_c, 12, 69, 0
6, 12780, Note_on_c, 12, 69, 118
6, 12786, Note_on_c, 12, 64, 0
6, 12806, Note_on_c, 12, 69, 0
6, 12810, Note_on_c, 12, 71, 104
6, 12840, Note_on_c, 12, 72, 118
6, 12844, Note_on_c, 12, 71, 0
6, 12870, Note_on_c, 12, 69, 117
6, 12870, Note_on_c, 12, 72, 0
6, 12900, Note_on_c, 12, 75, 120
6, 12911, Note_on_c, 12, 69, 0
6, 12930, Note_on_c, 12, 76, 122
6, 12935, Note_on_c, 12, 75, 0
6, 12960, Note_on_c, 12, 78, 124
6, 12970, Note_on_c, 12, 76, 0
6, 12990, Note_on_c, 12, 76, 119
6, 12999, Note_on_c, 12, 78, 0
6, 13020, Note_on_c, 12, 75, 116
6, 13030, Note_on_c, 12, 76, 0
6, 13050, Note_on_c, 12, 73, 114
6, 13052, Note_on_c, 12, 75, 0
6, 13080, Note_on_c, 12, 71, 105
6, 13091, Note_on_c, 12, 73, 0
6, 13350, Note_on_c, 12, 75, 100
6, 13374, Note_on_c, 12, 71, 0
6, 13380, Note_on_c, 12, 76, 102
6, 13385, Note_on_c, 12, 75, 0
6, 13470, Note_on_c, 12, 63, 92
6, 13470, Note_on_c, 12, 76, 0
6, 13499, Note_on_c, 12, 63, 0
6, 13500, Note_on_c, 12, 64, 95
6, 13590, Note_on_c, 12, 51, 89
6, 13590, Note_on_c, 12, 64, 0
6, 13620, Note_on_c, 12, 52, 89
6, 13620, Note_on_c, 12, 51, 0
6, 13680, Note_on_c, 12, 52, 0
6, 13710, Note_on_c, 12, 80, 100
6, 13740, Note_on_c, 12, 81, 102
6, 13745, Note_on_c, 12, 80, 0
6, 13830, Note_on_c, 12, 68, 92
6, 13830, Note_on_c, 12, 81, 0
6, 13859, Note_on_c, 12, 68, 0
6, 13860, Note_on_c, 12, 69, 95
6, 13950, Note_on_c, 12, 56, 89
6, 13950, Note_on_c, 12, 69, 0
6, 13980, Note_on_c, 12, 57, 89
6, 13980, Note_on_c, 12, 56, 0
6, 14070, Note_on_c, 12, 59, 88
6, 14085, Note_on_c, 12, 57, 0
6, 14100, Note_on_c, 12, 60, 93
6, 14105, Note_on_c, 12, 59, 0
6, 14130, Note_on_c, 12, 65, 100
6, 14134, Note_on_c, 12, 60, 0
6, 14160, Note_on_c, 12, 59, 101
6, 14160, Note_on_c, 12, 65, 0
6, 14190, Note_on_c, 12, 63, 104
6, 14196, Note_on_c, 12, 59, 0
6, 14220, Note_on_c, 12, 64, 103
6, 14221, Note_on_c, 12, 63, 0
6, 14249, Note_on_c, 12, 64, 0
6, 14250, Note_on_c, 12, 67, 111
6, 14280, Note_on_c, 12, 66, 102
6, 14288, Note_on_c, 12, 67, 0
6, 14310, Note_on_c, 12, 64, 102
6, 14313, Note_on_c, 12, 66, 0
6, 14339, Note_on_c, 12, 64, 0
6, 14340, Note_on_c, 12, 63, 95
6, 14370, Note_on_c, 12, 69, 104
6, 14372, Note_on_c, 12, 63, 0
6, 14400, Note_on_c, 12, 67, 102
6, 14400, Note_on_c, 12, 69, 0
6, 14430, Note_on_c, 12, 66, 98
6, 14435, Note_on_c, 12, 67, 0
6, 14460, Note_on_c, 12, 64, 102
6, 14460, Note_on_c, 12, 66, 0
6, 14490, Note_on_c, 12, 63, 98
6, 14493, Note_on_c, 12, 64, 0
6, 14520, Note_on_c, 12, 64, 106
6, 14523, Note_on_c, 12, 63, 0
6, 14550, Note_on_c, 12, 67, 98
6, 14554, Note_on_c, 12, 64, 0
6, 14577, Note_on_c, 12, 67, 0
6, 14580, Note_on_c, 12, 59, 103
6, 14610, Note_on_c, 12, 57, 91
6, 14620, Note_on_c, 12, 59, 0
6, 14640, Note_on_c, 12, 55, 96
6, 14645, Note_on_c, 12, 57, 0
6, 14670, Note_on_c, 12, 59, 92
6, 14673, Note_on_c, 12, 55, 0
6, 14700, Note_on_c, 12, 52, 102
6, 14703, Note_on_c, 12, 59, 0
6, 14736, Note_on_c, 12, 52, 0
6, 14820, Note_on_c, 12, 76, 107
6, 14841, Note_on_c, 12, 76, 0
6, 14880, Note_on_c, 12, 72, 122
6, 14918, Note_on_c, 12, 72, 0
6, 14940, Note_on_c, 12, 76, 114
6, 14961, Note_on_c, 12, 76, 0
6, 15000, Note_on_c, 12, 81, 108
6, 15028, Note_on_c, 12, 81, 0
6, 15060, Note_on_c, 12, 69, 113
6, 15085, Note_on_c, 12, 69, 0
6, 15180, Note_on_c, 12, 74, 119
6, 15218, Note_on_c, 12, 74, 0
6, 15240, Note_on_c, 12, 71, 108
6, 15275, Note_on_c, 12, 71, 0
6, 15300, Note_on_c, 12, 74, 106
6, 15323, Note_on_c, 12, 74, 0
6, 15360, Note_on_c, 12, 79, 108
6, 15393, Note_on_c, 12, 79, 0
6, 15420, Note_on_c, 12, 67, 103
6, 15459, Note_on_c, 12, 67, 0
6, 15480, Note_on_c, 12, 72, 112
6, 15510, Note_on_c, 12, 69, 110
6, 15513, Note_on_c, 12, 72, 0
6, 15540, Note_on_c, 12, 64, 103
6, 15541, Note_on_c, 12, 69, 0
6, 15570, Note_on_c, 12, 60, 104
6, 15570, Note_on_c, 12, 64, 0
6, 15600, Note_on_c, 12, 57, 99
6, 15605, Note_on_c, 12, 60, 0
6, 15624, Note_on_c, 12, 57, 0
6, 15630, Note_on_c, 12, 60, 103
6, 15660, Note_on_c, 12, 64, 106
6, 15670, Note_on_c, 12, 60, 0
6, 15690, Note_on_c, 12, 69, 120
6, 15695, Note_on_c, 12, 64, 0
6, 15720, Note_on_c, 12, 72, 123
6, 15723, Note_on_c, 12, 69, 0
6, 15750, Note_on_c, 12, 69, 119
6, 15751, Note_on_c, 12, 72, 0
6, 15780, Note_on_c, 12, 72, 117
6, 15788, Note_on_c, 12, 69, 0
6, 15810, Note_on_c, 12, 76, 116
6, 15816, Note_on_c, 12, 72, 0
6, 15840, Note_on_c, 12, 78, 115
6, 15845, Note_on_c, 12, 76, 0
6, 15870, Note_on_c, 12, 72, 113
6, 15878, Note_on_c, 12, 78, 0
6, 15895, Note_on_c, 12, 72, 0
6, 15900, Note_on_c, 12, 69, 114
6, 15926, Note_on_c, 12, 69, 0
6, 15930, Note_on_c, 12, 66, 100
6, 15960, Note_on_c, 12, 62, 109
6, 15963, Note_on_c, 12, 66, 0
6, 15990, Note_on_c, 12, 66, 105
6, 15992, Note_on_c, 12, 62, 0
6, 16016, Note_on_c, 12, 66, 0
6, 16020, Note_on_c, 12, 69, 117
6, 16046, Note_on_c, 12, 69, 0
6, 16050, Note_on_c, 12, 72, 113
6, 16073, Note_on_c, 12, 72, 0
6, 16080, Note_on_c, 12, 78, 120
6, 16110, Note_on_c, 12, 72, 114
6, 16112, Note_on_c, 12, 78, 0
6, 16140, Note_on_c, 12, 78, 120
6, 16155, Note_on_c, 12, 72, 0
6, 16170, Note_on_c, 12, 81, 123
6, 16175, Note_on_c, 12, 78, 0
6, 16200, Note_on_c, 12, 83, 127
6, 16203, Note_on_c, 12, 81, 0
6, 16230, Note_on_c, 12, 79, 116
6, 16246, Note_on_c, 12, 83, 0
6, 16260, Note_on_c, 12, 74, 117
6, 16263, Note_on_c, 12, 79, 0
6, 16290, Note_on_c, 12, 71, 114
6, 16293, Note_on_c, 12, 74, 0
6, 16320, Note_on_c, 12, 67, 118
6, 16325, Note_on_c, 12, 71, 0
6, 16346, Note_on_c, 12, 67, 0
6, 16350, Note_on_c, 12, 71, 122
6, 16380, Note_on_c, 12, 74, 122
6, 16391, Note_on_c, 12, 71, 0
6, 16410, Note_on_c, 12, 79, 124
6, 16418, Note_on_c, 12, 74, 0
6, 16440, Note_on_c, 12, 83, 127
6, 16443, Note_on_c, 12, 79, 0
6, 16470, Note_on_c, 12, 77, 123
6, 16475, Note_on_c, 12, 83, 0
6, 16500, Note_on_c, 12, 83, 127
6, 16512, Note_on_c, 12, 77, 0
6, 16530, Note_on_c, 12, 86, 127
6, 16536, Note_on_c, 12, 83, 0
6, 16560, Note_on_c, 12, 76, 127
6, 16565, Note_on_c, 12, 86, 0
6, 16590, Note_on_c, 12, 86, 127
6, 16600, Note_on_c, 12, 76, 0
6, 16620, Note_on_c, 12, 84, 127
6, 16626, Note_on_c, 12, 86, 0
6, 16650, Note_on_c, 12, 76, 118
6, 16655, Note_on_c, 12, 84, 0
6, 16680, Note_on_c, 12, 74, 127
6, 16680, Note_on_c, 12, 76, 0
6, 16710, Note_on_c, 12, 84, 127
6, 16721, Note_on_c, 12, 74, 0
6, 16740, Note_on_c, 12, 83, 120
6, 16747, Note_on_c, 12, 84, 0
6, 16770, Note_on_c, 12, 74, 114
6, 16770, Note_on_c, 12, 83, 0
6, 16800, Note_on_c, 12, 72, 127
6, 16800, Note_on_c, 12, 74, 0
6, 16830, Note_on_c, 12, 76, 126
6, 16845, Note_on_c, 12, 72, 0
6, 16860, Note_on_c, 12, 78, 127
6, 16873, Note_on_c, 12, 76, 0
6, 16890, Note_on_c, 12, 79, 116
6, 16895, Note_on_c, 12, 78, 0
6, 16920, Note_on_c, 12, 81, 127
6, 16920, Note_on_c, 12, 79, 0
6, 16950, Note_on_c, 12, 72, 123
6, 16953, Note_on_c, 12, 81, 0
6, 16980, Note_on_c, 12, 71, 126
6, 16993, Note_on_c, 12, 72, 0
6, 17010, Note_on_c, 12, 69, 120
6, 17011, Note_on_c, 12, 71, 0
6, 17040, Note_on_c, 12, 71, 127
6, 17051, Note_on_c, 12, 69, 0
6, 17070, Note_on_c, 12, 74, 114
6, 17077, Note_on_c, 12, 71, 0
6, 17100, Note_on_c, 12, 71, 120
6, 17107, Note_on_c, 12, 74, 0
6, 17128, Note_on_c, 12, 71, 0
6, 17130, Note_on_c, 12, 67, 111
6, 17160, Note_on_c, 12, 72, 119
6, 17170, Note_on_c, 12, 67, 0
6, 17190, Note_on_c, 12, 69, 113
6, 17200, Note_on_c, 12, 72, 0
6, 17220, Note_on_c, 12, 67, 114
6, 17232, Note_on_c, 12, 69, 0
6, 17250, Note_on_c, 12, 66, 112
6, 17250, Note_on_c, 12, 67, 0
6, 17280, Note_on_c, 12, 71, 122
6, 17283, Note_on_c, 12, 66, 0
6, 17310, Note_on_c, 12, 67, 113
6, 17314, Note_on_c, 12, 71, 0
6, 17340, Note_on_c, 12, 66, 107
6, 17345, Note_on_c, 12, 67, 0
6, 17370, Note_on_c, 12, 64, 107
6, 17378, Note_on_c, 12, 66, 0
6, 17400, Note_on_c, 12, 62, 113
6, 17401, Note_on_c, 12, 64, 0
6, 17430, Note_on_c, 12, 60, 109
6, 17441, Note_on_c, 12, 62, 0
6, 17460, Note_on_c, 12, 59, 104
6, 17465, Note_on_c, 12, 60, 0
6, 17490, Note_on_c, 12, 57, 96
6, 17491, Note_on_c, 12, 59, 0
6, 17520, Note_on_c, 12, 55, 102
6, 17531, Note_on_c, 12, 57, 0
6, 17625, Note_on_c, 12, 55, 0
6, 23400, Control_c, 12, 1, 0
6, 23400, End_track
7, 0, Start_track
7, 0, MIDI_port, 0
7, 0, Title_t, "Piano               "
7, 0, Program_c, 12, 0
7, 0, Control_c, 12, 7, 127
7, 0, Control_c, 12, 10, 64
7, 360, Control_c, 12, 121, 0
7, 360, Control_c, 12, 91, 69
7, 360, Control_c, 12, 93, 10
7, 360, Control_c, 12, 7, 120
7, 360, Note_on_c, 12, 43, 103
7, 396, Note_on_c, 12, 43, 0
7, 420, Note_on_c, 12, 59, 87
7, 442, Note_on_c, 12, 59, 0
7, 450, Note_on_c, 12, 57, 83
7, 476, Note_on_c, 12, 57, 0
7, 480, Note_on_c, 12, 59, 96
7, 506, Note_on_c, 12, 59, 0
7, 540, Note_on_c, 12, 55, 113
7, 575, Note_on_c, 12, 55, 0
7, 600, Note_on_c, 12, 43, 109
7, 628, Note_on_c, 12, 43, 0
7, 660, Note_on_c, 12, 55, 113
7, 686, Note_on_c, 12, 55, 0
7, 720, Note_on_c, 12, 42, 107
7, 756, Note_on_c, 12, 42, 0
7, 780, Note_on_c, 12, 54, 103
7, 806, Note_on_c, 12, 54, 0
7, 810, Note_on_c, 12, 52, 86
7, 840, Note_on_c, 12, 54, 95
7, 842, Note_on_c, 12, 52, 0
7, 870, Note_on_c, 12, 54, 0
7, 900, Note_on_c, 12, 50, 103
7, 939, Note_on_c, 12, 50, 0
7, 960, Note_on_c, 12, 42, 106
7, 1000, Note_on_c, 12, 42, 0
7, 1020, Note_on_c, 12, 50, 103
7, 1055, Note_on_c, 12, 50, 0
7, 1080, Note_on_c, 12, 40, 110
7, 1125, Note_on_c, 12, 40, 0
7, 1140, Note_on_c, 12, 52, 112
7, 1169, Note_on_c, 12, 52, 0
7, 1170, Note_on_c, 12, 50, 94
7, 1200, Note_on_c, 12, 52, 109
7, 1207, Note_on_c, 12, 50, 0
7, 1228, Note_on_c, 12, 52, 0
7, 1260, Note_on_c, 12, 55, 106
7, 1281, Note_on_c, 12, 55, 0
7, 1320, Note_on_c, 12, 45, 110
7, 1350, Note_on_c, 12, 45, 0
7, 1380, Note_on_c, 12, 61, 98
7, 1402, Note_on_c, 12, 61, 0
7, 1440, Note_on_c, 12, 50, 107
7, 1473, Note_on_c, 12, 50, 0
7, 1500, Note_on_c, 12, 54, 117
7, 1528, Note_on_c, 12, 54, 0
7, 1530, Note_on_c, 12, 52, 87
7, 1560, Note_on_c, 12, 54, 104
7, 1566, Note_on_c, 12, 52, 0
7, 1580, Note_on_c, 12, 54, 0
7, 1620, Note_on_c, 12, 50, 101
7, 1645, Note_on_c, 12, 50, 0
7, 1680, Note_on_c, 12, 38, 104
7, 1713, Note_on_c, 12, 38, 0
7, 1770, Note_on_c, 12, 48, 93
7, 1788, Note_on_c, 12, 48, 0
7, 1800, Note_on_c, 12, 47, 96
7, 1825, Note_on_c, 12, 47, 0
7, 1830, Note_on_c, 12, 45, 94
7, 1859, Note_on_c, 12, 45, 0
7, 1860, Note_on_c, 12, 47, 94
7, 1950, Note_on_c, 12, 50, 84
7, 1973, Note_on_c, 12, 47, 0
7, 1975, Note_on_c, 12, 50, 0
7, 1980, Note_on_c, 12, 52, 97
7, 2010, Note_on_c, 12, 54, 95
7, 2014, Note_on_c, 12, 52, 0
7, 2038, Note_on_c, 12, 54, 0
7, 2040, Note_on_c, 12, 55, 101
7, 2070, Note_on_c, 12, 57, 82
7, 2081, Note_on_c, 12, 55, 0
7, 2100, Note_on_c, 12, 59, 86
7, 2105, Note_on_c, 12, 57, 0
7, 2130, Note_on_c, 12, 55, 100
7, 2133, Note_on_c, 12, 59, 0
7, 2158, Note_on_c, 12, 55, 0
7, 2160, Note_on_c, 12, 48, 88
7, 2190, Note_on_c, 12, 47, 87
7, 2193, Note_on_c, 12, 48, 0
7, 2220, Note_on_c, 12, 48, 96
7, 2225, Note_on_c, 12, 47, 0
7, 2310, Note_on_c, 12, 52, 98
7, 2310, Note_on_c, 12, 48, 0
7, 2340, Note_on_c, 12, 54, 111
7, 2341, Note_on_c, 12, 52, 0
7, 2370, Note_on_c, 12, 55, 107
7, 2371, Note_on_c, 12, 54, 0
7, 2400, Note_on_c, 12, 57, 101
7, 2400, Note_on_c, 12, 55, 0
7, 2430, Note_on_c, 12, 59, 87
7, 2430, Note_on_c, 12, 57, 0
7, 2460, Note_on_c, 12, 60, 118
7, 2460, Note_on_c, 12, 59, 0
7, 2490, Note_on_c, 12, 57, 88
7, 2491, Note_on_c, 12, 60, 0
7, 2520, Note_on_c, 12, 50, 96
7, 2520, Note_on_c, 12, 57, 0
7, 2550, Note_on_c, 12, 49, 94
7, 2552, Note_on_c, 12, 50, 0
7, 2580, Note_on_c, 12, 50, 109
7, 2585, Note_on_c, 12, 49, 0
7, 2670, Note_on_c, 12, 57, 89
7, 2682, Note_on_c, 12, 50, 0
7, 2700, Note_on_c, 12, 59, 100
7, 2714, Note_on_c, 12, 57, 0
7, 2730, Note_on_c, 12, 60, 113
7, 2739, Note_on_c, 12, 59, 0
7, 2760, Note_on_c, 12, 62, 86
7, 2762, Note_on_c, 12, 60, 0
7, 2790, Note_on_c, 12, 64, 83
7, 2799, Note_on_c, 12, 62, 0
7, 2820, Note_on_c, 12, 66, 98
7, 2825, Note_on_c, 12, 64, 0
7, 2849, Note_on_c, 12, 66, 0
7, 2850, Note_on_c, 12, 62, 76
7, 2880, Note_on_c, 12, 67, 97
7, 2891, Note_on_c, 12, 62, 0
7, 2910, Note_on_c, 12, 66, 92
7, 2912, Note_on_c, 12, 67, 0
7, 2940, Note_on_c, 12, 67, 88
7, 2941, Note_on_c, 12, 66, 0
7, 2970, Note_on_c, 12, 62, 82
7, 2971, Note_on_c, 12, 67, 0
7, 3000, Note_on_c, 12, 59, 88
7, 3000, Note_on_c, 12, 62, 0
7, 3030, Note_on_c, 12, 62, 65
7, 3036, Note_on_c, 12, 59, 0
7, 3060, Note_on_c, 12, 55, 83
7, 3065, Note_on_c, 12, 62, 0
7, 3090, Note_on_c, 12, 59, 82
7, 3094, Note_on_c, 12, 55, 0
7, 3120, Note_on_c, 12, 50, 97
7, 3121, Note_on_c, 12, 59, 0
7, 3150, Note_on_c, 12, 55, 97
7, 3154, Note_on_c, 12, 50, 0
7, 3180, Note_on_c, 12, 47, 93
7, 3186, Note_on_c, 12, 55, 0
7, 3210, Note_on_c, 12, 50, 96
7, 3218, Note_on_c, 12, 47, 0
7, 3240, Note_on_c, 12, 43, 94
7, 3248, Note_on_c, 12, 50, 0
7, 3279, Note_on_c, 12, 43, 0
7, 3300, Note_on_c, 12, 55, 107
7, 3339, Note_on_c, 12, 55, 0
7, 3360, Note_on_c, 12, 59, 86
7, 3395, Note_on_c, 12, 59, 0
7, 3420, Note_on_c, 12, 55, 109
7, 3463, Note_on_c, 12, 55, 0
7, 3480, Note_on_c, 12, 43, 87
7, 3523, Note_on_c, 12, 43, 0
7, 3540, Note_on_c, 12, 55, 98
7, 3581, Note_on_c, 12, 55, 0
7, 3600, Note_on_c, 12, 42, 98
7, 3648, Note_on_c, 12, 42, 0
7, 3660, Note_on_c, 12, 54, 106
7, 3695, Note_on_c, 12, 54, 0
7, 3720, Note_on_c, 12, 57, 86
7, 3756, Note_on_c, 12, 57, 0
7, 3780, Note_on_c, 12, 54, 107
7, 3826, Note_on_c, 12, 54, 0
7, 3840, Note_on_c, 12, 42, 102
7, 3879, Note_on_c, 12, 42, 0
7, 3900, Note_on_c, 12, 54, 110
7, 3943, Note_on_c, 12, 54, 0
7, 3960, Note_on_c, 12, 40, 112
7, 3998, Note_on_c, 12, 40, 0
7, 4020, Note_on_c, 12, 52, 103
7, 4056, Note_on_c, 12, 52, 0
7, 4080, Note_on_c, 12, 55, 104
7, 4116, Note_on_c, 12, 55, 0
7, 4140, Note_on_c, 12, 52, 106
7, 4179, Note_on_c, 12, 52, 0
7, 4200, Note_on_c, 12, 40, 107
7, 4239, Note_on_c, 12, 40, 0
7, 4260, Note_on_c, 12, 55, 107
7, 4303, Note_on_c, 12, 55, 0
7, 4320, Note_on_c, 12, 45, 103
7, 4363, Note_on_c, 12, 45, 0
7, 4380, Note_on_c, 12, 52, 96
7, 4413, Note_on_c, 12, 52, 0
7, 4440, Note_on_c, 12, 55, 101
7, 4468, Note_on_c, 12, 55, 0
7, 4500, Note_on_c, 12, 52, 106
7, 4530, Note_on_c, 12, 52, 0
7, 4560, Note_on_c, 12, 45, 112
7, 4591, Note_on_c, 12, 45, 0
7, 4620, Note_on_c, 12, 55, 106
7, 4641, Note_on_c, 12, 55, 0
7, 4680, Note_on_c, 12, 54, 98
7, 4710, Note_on_c, 12, 57, 88
7, 4710, Note_on_c, 12, 54, 0
7, 4740, Note_on_c, 12, 62, 71
7, 4766, Note_on_c, 12, 57, 0
7, 4770, Note_on_c, 12, 66, 89
7, 4772, Note_on_c, 12, 62, 0
7, 4800, Note_on_c, 12, 69, 103
7, 4806, Note_on_c, 12, 66, 0
7, 4830, Note_on_c, 12, 66, 95
7, 4836, Note_on_c, 12, 69, 0
7, 4860, Note_on_c, 12, 62, 73
7, 4861, Note_on_c, 12, 66, 0
7, 4890, Note_on_c, 12, 57, 80
7, 4891, Note_on_c, 12, 62, 0
7, 4920, Note_on_c, 12, 54, 95
7, 4923, Note_on_c, 12, 57, 0
7, 4945, Note_on_c, 12, 54, 0
7, 4950, Note_on_c, 12, 57, 74
7, 4980, Note_on_c, 12, 50, 92
7, 4981, Note_on_c, 12, 57, 0
7, 5010, Note_on_c, 12, 54, 89
7, 5014, Note_on_c, 12, 50, 0
7, 5040, Note_on_c, 12, 55, 98
7, 5045, Note_on_c, 12, 54, 0
7, 5070, Note_on_c, 12, 59, 91
7, 5076, Note_on_c, 12, 55, 0
7, 5100, Note_on_c, 12, 62, 86
7, 5111, Note_on_c, 12, 59, 0
7, 5130, Note_on_c, 12, 67, 96
7, 5140, Note_on_c, 12, 62, 0
7, 5160, Note_on_c, 12, 71, 107
7, 5171, Note_on_c, 12, 67, 0
7, 5190, Note_on_c, 12, 67, 92
7, 5193, Note_on_c, 12, 71, 0
7, 5219, Note_on_c, 12, 67, 0
7, 5220, Note_on_c, 12, 62, 73
7, 5250, Note_on_c, 12, 59, 87
7, 5251, Note_on_c, 12, 62, 0
7, 5278, Note_on_c, 12, 59, 0
7, 5280, Note_on_c, 12, 55, 104
7, 5310, Note_on_c, 12, 59, 71
7, 5310, Note_on_c, 12, 55, 0
7, 5336, Note_on_c, 12, 59, 0
7, 5340, Note_on_c, 12, 52, 89
7, 5370, Note_on_c, 12, 55, 101
7, 5372, Note_on_c, 12, 52, 0
7, 5400, Note_on_c, 12, 57, 87
7, 5403, Note_on_c, 12, 55, 0
7, 5443, Note_on_c, 12, 57, 0
7, 5460, Note_on_c, 12, 61, 91
7, 5497, Note_on_c, 12, 61, 0
7, 5520, Note_on_c, 12, 62, 78
7, 5548, Note_on_c, 12, 62, 0
7, 5550, Note_on_c, 12, 57, 78
7, 5580, Note_on_c, 12, 54, 85
7, 5588, Note_on_c, 12, 57, 0
7, 5608, Note_on_c, 12, 54, 0
7, 5610, Note_on_c, 12, 50, 79
7, 5640, Note_on_c, 12, 57, 87
7, 5646, Note_on_c, 12, 50, 0
7, 5687, Note_on_c, 12, 57, 0
7, 5700, Note_on_c, 12, 45, 112
7, 5760, Note_on_c, 12, 38, 88
7, 5761, Note_on_c, 12, 45, 0
7, 5790, Note_on_c, 12, 50, 83
7, 5800, Note_on_c, 12, 38, 0
7, 5820, Note_on_c, 12, 52, 92
7, 5821, Note_on_c, 12, 50, 0
7, 5850, Note_on_c, 12, 54, 94
7, 5857, Note_on_c, 12, 52, 0
7, 5880, Note_on_c, 12, 55, 113
7, 5881, Note_on_c, 12, 54, 0
7, 5910, Note_on_c, 12, 57, 100
7, 5920, Note_on_c, 12, 55, 0
7, 5940, Note_on_c, 12, 59, 97
7, 5943, Note_on_c, 12, 57, 0
7, 5970, Note_on_c, 12, 61, 99
7, 5970, Note_on_c, 12, 59, 0
7, 6000, Note_on_c, 12, 62, 76
7, 6008, Note_on_c, 12, 61, 0
7, 6089, Note_on_c, 12, 62, 0
7, 11880, Note_on_c, 12, 38, 91
7, 11933, Note_on_c, 12, 38, 0
7, 11940, Note_on_c, 12, 54, 98
7, 11966, Note_on_c, 12, 54, 0
7, 11970, Note_on_c, 12, 52, 89
7, 12000, Note_on_c, 12, 54, 90
7, 12005, Note_on_c, 12, 52, 0
7, 12021, Note_on_c, 12, 54, 0
7, 12060, Note_on_c, 12, 50, 87
7, 12091, Note_on_c, 12, 50, 0
7, 12120, Note_on_c, 12, 38, 86
7, 12146, Note_on_c, 12, 38, 0
7, 12180, Note_on_c, 12, 54, 107
7, 12208, Note_on_c, 12, 54, 0
7, 12240, Note_on_c, 12, 43, 94
7, 12281, Note_on_c, 12, 43, 0
7, 12300, Note_on_c, 12, 59, 98
7, 12329, Note_on_c, 12, 59, 0
7, 12330, Note_on_c, 12, 57, 80
7, 12360, Note_on_c, 12, 59, 89
7, 12363, Note_on_c, 12, 57, 0
7, 12383, Note_on_c, 12, 59, 0
7, 12420, Note_on_c, 12, 55, 106
7, 12456, Note_on_c, 12, 55, 0
7, 12480, Note_on_c, 12, 43, 93
7, 12512, Note_on_c, 12, 43, 0
7, 12540, Note_on_c, 12, 59, 96
7, 12576, Note_on_c, 12, 59, 0
7, 12600, Note_on_c, 12, 48, 92
7, 12644, Note_on_c, 12, 48, 0
7, 12660, Note_on_c, 12, 60, 120
7, 12690, Note_on_c, 12, 59, 83
7, 12690, Note_on_c, 12, 60, 0
7, 12720, Note_on_c, 12, 60, 113
7, 12725, Note_on_c, 12, 59, 0
7, 12746, Note_on_c, 12, 60, 0
7, 12780, Note_on_c, 12, 54, 94
7, 12812, Note_on_c, 12, 54, 0
7, 12840, Note_on_c, 12, 57, 82
7, 12871, Note_on_c, 12, 57, 0
7, 12900, Note_on_c, 12, 60, 113
7, 12928, Note_on_c, 12, 60, 0
7, 12960, Note_on_c, 12, 57, 100
7, 12996, Note_on_c, 12, 57, 0
7, 13020, Note_on_c, 12, 54, 110
7, 13040, Note_on_c, 12, 54, 0
7, 13080, Note_on_c, 12, 51, 103
7, 13109, Note_on_c, 12, 51, 0
7, 13110, Note_on_c, 12, 47, 86
7, 13140, Note_on_c, 12, 51, 97
7, 13140, Note_on_c, 12, 47, 0
7, 13170, Note_on_c, 12, 54, 104
7, 13175, Note_on_c, 12, 51, 0
7, 13200, Note_on_c, 12, 59, 87
7, 13202, Note_on_c, 12, 54, 0
7, 13230, Note_on_c, 12, 63, 94
7, 13241, Note_on_c, 12, 59, 0
7, 13260, Note_on_c, 12, 66, 98
7, 13271, Note_on_c, 12, 63, 0
7, 13290, Note_on_c, 12, 69, 93
7, 13293, Note_on_c, 12, 66, 0
7, 13320, Note_on_c, 12, 67, 91
7, 13320, Note_on_c, 12, 69, 0
7, 13410, Note_on_c, 12, 66, 87
7, 13410, Note_on_c, 12, 67, 0
7, 13440, Note_on_c, 12, 67, 88
7, 13440, Note_on_c, 12, 66, 0
7, 13530, Note_on_c, 12, 54, 79
7, 13533, Note_on_c, 12, 67, 0
7, 13560, Note_on_c, 12, 55, 84
7, 13567, Note_on_c, 12, 54, 0
7, 13650, Note_on_c, 12, 47, 79
7, 13650, Note_on_c, 12, 55, 0
7, 13680, Note_on_c, 12, 48, 91
7, 13680, Note_on_c, 12, 47, 0
7, 13770, Note_on_c, 12, 71, 87
7, 13770, Note_on_c, 12, 48, 0
7, 13800, Note_on_c, 12, 72, 88
7, 13800, Note_on_c, 12, 71, 0
7, 13890, Note_on_c, 12, 59, 79
7, 13893, Note_on_c, 12, 72, 0
7, 13920, Note_on_c, 12, 60, 84
7, 13927, Note_on_c, 12, 59, 0
7, 14010, Note_on_c, 12, 52, 79
7, 14010, Note_on_c, 12, 60, 0
7, 14040, Note_on_c, 12, 51, 90
7, 14040, Note_on_c, 12, 52, 0
7, 14070, Note_on_c, 12, 51, 0
7, 14100, Note_on_c, 12, 57, 92
7, 14121, Note_on_c, 12, 57, 0
7, 14160, Note_on_c, 12, 55, 101
7, 14185, Note_on_c, 12, 55, 0
7, 14220, Note_on_c, 12, 46, 97
7, 14247, Note_on_c, 12, 46, 0
7, 14280, Note_on_c, 12, 47, 104
7, 14313, Note_on_c, 12, 47, 0
7, 14340, Note_on_c, 12, 54, 103
7, 14360, Note_on_c, 12, 54, 0
7, 14400, Note_on_c, 12, 52, 104
7, 14438, Note_on_c, 12, 52, 0
7, 14460, Note_on_c, 12, 55, 103
7, 14485, Note_on_c, 12, 55, 0
7, 14490, Note_on_c, 12, 54, 97
7, 14518, Note_on_c, 12, 54, 0
7, 14520, Note_on_c, 12, 55, 105
7, 14550, Note_on_c, 12, 55, 0
7, 14580, Note_on_c, 12, 52, 100
7, 14611, Note_on_c, 12, 52, 0
7, 14640, Note_on_c, 12, 40, 110
7, 14671, Note_on_c, 12, 40, 0
7, 14730, Note_on_c, 12, 50, 107
7, 14746, Note_on_c, 12, 50, 0
7, 14760, Note_on_c, 12, 48, 92
7, 14790, Note_on_c, 12, 52, 87
7, 14792, Note_on_c, 12, 48, 0
7, 14820, Note_on_c, 12, 57, 91
7, 14820, Note_on_c, 12, 52, 0
7, 14850, Note_on_c, 12, 60, 94
7, 14857, Note_on_c, 12, 57, 0
7, 14880, Note_on_c, 12, 64, 93
7, 14880, Note_on_c, 12, 60, 0
7, 14910, Note_on_c, 12, 60, 83
7, 14915, Note_on_c, 12, 64, 0
7, 14940, Note_on_c, 12, 57, 83
7, 14944, Note_on_c, 12, 60, 0
7, 14970, Note_on_c, 12, 52, 86
7, 14970, Note_on_c, 12, 57, 0
7, 15000, Note_on_c, 12, 48, 88
7, 15000, Note_on_c, 12, 52, 0
7, 15030, Note_on_c, 12, 52, 83
7, 15030, Note_on_c, 12, 48, 0
7, 15060, Note_on_c, 12, 50, 81
7, 15060, Note_on_c, 12, 52, 0
7, 15090, Note_on_c, 12, 48, 78
7, 15093, Note_on_c, 12, 50, 0
7, 15120, Note_on_c, 12, 47, 94
7, 15120, Note_on_c, 12, 48, 0
7, 15150, Note_on_c, 12, 50, 84
7, 15154, Note_on_c, 12, 47, 0
7, 15180, Note_on_c, 12, 55, 93
7, 15207, Note_on_c, 12, 50, 0
7, 15210, Note_on_c, 12, 59, 86
7, 15224, Note_on_c, 12, 55, 0
7, 15240, Note_on_c, 12, 62, 86
7, 15248, Note_on_c, 12, 59, 0
7, 15270, Note_on_c, 12, 59, 76
7, 15274, Note_on_c, 12, 62, 0
7, 15300, Note_on_c, 12, 55, 84
7, 15301, Note_on_c, 12, 59, 0
7, 15330, Note_on_c, 12, 50, 88
7, 15334, Note_on_c, 12, 55, 0
7, 15358, Note_on_c, 12, 50, 0
7, 15360, Note_on_c, 12, 47, 91
7, 15390, Note_on_c, 12, 50, 83
7, 15391, Note_on_c, 12, 47, 0
7, 15420, Note_on_c, 12, 48, 88
7, 15426, Note_on_c, 12, 50, 0
7, 15450, Note_on_c, 12, 47, 76
7, 15456, Note_on_c, 12, 48, 0
7, 15480, Note_on_c, 12, 45, 94
7, 15488, Note_on_c, 12, 47, 0
7, 15513, Note_on_c, 12, 45, 0
7, 15540, Note_on_c, 12, 48, 83
7, 15577, Note_on_c, 12, 48, 0
7, 15600, Note_on_c, 12, 52, 93
7, 15638, Note_on_c, 12, 52, 0
7, 15660, Note_on_c, 12, 55, 93
7, 15690, Note_on_c, 12, 55, 0
7, 15720, Note_on_c, 12, 54, 95
7, 15750, Note_on_c, 12, 54, 0
7, 15780, Note_on_c, 12, 52, 88
7, 15816, Note_on_c, 12, 52, 0
7, 15840, Note_on_c, 12, 50, 98
7, 15872, Note_on_c, 12, 50, 0
7, 15900, Note_on_c, 12, 54, 103
7, 15935, Note_on_c, 12, 54, 0
7, 15960, Note_on_c, 12, 57, 102
7, 15987, Note_on_c, 12, 57, 0
7, 16020, Note_on_c, 12, 60, 104
7, 16063, Note_on_c, 12, 60, 0
7, 16080, Note_on_c, 12, 59, 96
7, 16123, Note_on_c, 12, 59, 0
7, 16140, Note_on_c, 12, 57, 86
7, 16178, Note_on_c, 12, 57, 0
7, 16200, Note_on_c, 12, 55, 89
7, 16237, Note_on_c, 12, 55, 0
7, 16260, Note_on_c, 12, 59, 87
7, 16297, Note_on_c, 12, 59, 0
7, 16320, Note_on_c, 12, 62, 93
7, 16357, Note_on_c, 12, 62, 0
7, 16380, Note_on_c, 12, 65, 90
7, 16417, Note_on_c, 12, 65, 0
7, 16440, Note_on_c, 12, 64, 97
7, 16470, Note_on_c, 12, 64, 0
7, 16500, Note_on_c, 12, 62, 91
7, 16537, Note_on_c, 12, 62, 0
7, 16560, Note_on_c, 12, 60, 96
7, 16597, Note_on_c, 12, 60, 0
7, 16620, Note_on_c, 12, 64, 93
7, 16663, Note_on_c, 12, 64, 0
7, 16680, Note_on_c, 12, 66, 90
7, 16710, Note_on_c, 12, 66, 0
7, 16740, Note_on_c, 12, 68, 90
7, 16777, Note_on_c, 12, 68, 0
7, 16800, Note_on_c, 12, 69, 98
7, 16837, Note_on_c, 12, 69, 0
7, 16860, Note_on_c, 12, 67, 90
7, 16903, Note_on_c, 12, 67, 0
7, 16920, Note_on_c, 12, 66, 107
7, 16952, Note_on_c, 12, 66, 0
7, 16980, Note_on_c, 12, 62, 103
7, 17008, Note_on_c, 12, 62, 0
7, 17040, Note_on_c, 12, 67, 97
7, 17069, Note_on_c, 12, 67, 0
7, 17100, Note_on_c, 12, 55, 103
7, 17130, Note_on_c, 12, 55, 0
7, 17160, Note_on_c, 12, 62, 106
7, 17191, Note_on_c, 12, 62, 0
7, 17220, Note_on_c, 12, 50, 110
7, 17248, Note_on_c, 12, 50, 0
7, 17280, Note_on_c, 12, 55, 113
7, 17310, Note_on_c, 12, 43, 102
7, 17316, Note_on_c, 12, 55, 0
7, 17340, Note_on_c, 12, 45, 103
7, 17346, Note_on_c, 12, 43, 0
7, 17370, Note_on_c, 12, 47, 106
7, 17373, Note_on_c, 12, 45, 0
7, 17400, Note_on_c, 12, 48, 107
7, 17406, Note_on_c, 12, 47, 0
7, 17430, Note_on_c, 12, 50, 109
7, 17433, Note_on_c, 12, 48, 0
7, 17460, Note_on_c, 12, 52, 101
7, 17465, Note_on_c, 12, 50, 0
7, 17490, Note_on_c, 12, 54, 109
7, 17497, Note_on_c, 12, 52, 0
7, 17520, Note_on_c, 12, 55, 111
7, 17525, Note_on_c, 12, 54, 0
7, 17593, Note_on_c, 12, 55, 0
7, 23400, Control_c, 12, 64, 0
7, 23400, End_track
8, 0, Start_track
8, 0, MIDI_port, 0
8, 0, Title_t, "Piano               "
8, 0, Program_c, 12, 0
8, 0, Control_c, 12, 7, 127
8, 0, Control_c, 12, 10, 64
8, 6120, Note_on_c, 12, 67, 101
8, 6150, Note_on_c, 12, 66, 116
8, 6153, Note_on_c, 12, 67, 0
8, 6176, Note_on_c, 12, 66, 0
8, 6180, Note_on_c, 12, 67, 112
8, 6270, Note_on_c, 12, 62, 93
8, 6286, Note_on_c, 12, 67, 0
8, 6300, Note_on_c, 12, 64, 106
8, 6306, Note_on_c, 12, 62, 0
8, 6328, Note_on_c, 12, 64, 0
8, 6330, Note_on_c, 12, 66, 99
8, 6355, Note_on_c, 12, 66, 0
8, 6360, Note_on_c, 12, 67, 106
8, 6390, Note_on_c, 12, 69, 113
8, 6395, Note_on_c, 12, 67, 0
8, 6420, Note_on_c, 12, 71, 111
8, 6420, Note_on_c, 12, 69, 0
8, 6450, Note_on_c, 12, 73, 112
8, 6450, Note_on_c, 12, 71, 0
8, 6478, Note_on_c, 12, 73, 0
8, 6480, Note_on_c, 12, 74, 113
8, 6510, Note_on_c, 12, 73, 105
8, 6516, Note_on_c, 12, 74, 0
8, 6536, Note_on_c, 12, 73, 0
8, 6540, Note_on_c, 12, 74, 117
8, 6630, Note_on_c, 12, 69, 114
8, 6641, Note_on_c, 12, 74, 0
8, 6660, Note_on_c, 12, 71, 114
8, 6665, Note_on_c, 12, 69, 0
8, 6690, Note_on_c, 12, 73, 112
8, 6693, Note_on_c, 12, 71, 0
8, 6718, Note_on_c, 12, 73, 0
8, 6720, Note_on_c, 12, 74, 110
8, 6750, Note_on_c, 12, 76, 99
8, 6755, Note_on_c, 12, 74, 0
8, 6780, Note_on_c, 12, 78, 107
8, 6785, Note_on_c, 12, 76, 0
8, 6805, Note_on_c, 12, 78, 0
8, 6810, Note_on_c, 12, 74, 97
8, 6840, Note_on_c, 12, 79, 103
8, 6848, Note_on_c, 12, 74, 0
8, 6870, Note_on_c, 12, 78, 98
8, 6877, Note_on_c, 12, 79, 0
8, 6895, Note_on_c, 12, 78, 0
8, 6900, Note_on_c, 12, 79, 107
8, 6990, Note_on_c, 12, 78, 106
8, 7008, Note_on_c, 12, 79, 0
8, 7020, Note_on_c, 12, 76, 98
8, 7020, Note_on_c, 12, 78, 0
8, 7050, Note_on_c, 12, 74, 101
8, 7050, Note_on_c, 12, 76, 0
8, 7080, Note_on_c, 12, 73, 112
8, 7083, Note_on_c, 12, 74, 0
8, 7107, Note_on_c, 12, 73, 0
8, 7110, Note_on_c, 12, 76, 103
8, 7140, Note_on_c, 12, 69, 106
8, 7141, Note_on_c, 12, 76, 0
8, 7170, Note_on_c, 12, 67, 101
8, 7170, Note_on_c, 12, 69, 0
8, 7200, Note_on_c, 12, 66, 110
8, 7200, Note_on_c, 12, 67, 0
8, 7230, Note_on_c, 12, 69, 107
8, 7231, Note_on_c, 12, 66, 0
8, 7257, Note_on_c, 12, 69, 0
8, 7260, Note_on_c, 12, 62, 110
8, 7290, Note_on_c, 12, 61, 104
8, 7293, Note_on_c, 12, 62, 0
8, 7320, Note_on_c, 12, 62, 100
8, 7321, Note_on_c, 12, 61, 0
8, 7350, Note_on_c, 12, 66, 99
8, 7350, Note_on_c, 12, 62, 0
8, 7377, Note_on_c, 12, 66, 0
8, 7380, Note_on_c, 12, 57, 101
8, 7410, Note_on_c, 12, 55, 93
8, 7418, Note_on_c, 12, 57, 0
8, 7440, Note_on_c, 12, 54, 106
8, 7445, Note_on_c, 12, 55, 0
8, 7470, Note_on_c, 12, 57, 87
8, 7470, Note_on_c, 12, 54, 0
8, 7500, Note_on_c, 12, 50, 97
8, 7503, Note_on_c, 12, 57, 0
8, 7548, Note_on_c, 12, 50, 0
8, 7620, Note_on_c, 12, 74, 111
8, 7650, Note_on_c, 12, 72, 108
8, 7650, Note_on_c, 12, 74, 0
8, 7680, Note_on_c, 12, 74, 114
8, 7686, Note_on_c, 12, 72, 0
8, 7706, Note_on_c, 12, 74, 0
8, 7740, Note_on_c, 12, 67, 101
8, 7759, Note_on_c, 12, 67, 0
8, 7800, Note_on_c, 12, 59, 97
8, 7825, Note_on_c, 12, 59, 0
8, 7860, Note_on_c, 12, 74, 94
8, 7894, Note_on_c, 12, 74, 0
8, 7980, Note_on_c, 12, 76, 101
8, 8010, Note_on_c, 12, 74, 101
8, 8011, Note_on_c, 12, 76, 0
8, 8040, Note_on_c, 12, 76, 117
8, 8043, Note_on_c, 12, 74, 0
8, 8063, Note_on_c, 12, 76, 0
8, 8100, Note_on_c, 12, 69, 113
8, 8125, Note_on_c, 12, 69, 0
8, 8160, Note_on_c, 12, 60, 121
8, 8184, Note_on_c, 12, 60, 0
8, 8220, Note_on_c, 12, 76, 98
8, 8246, Note_on_c, 12, 76, 0
8, 8340, Note_on_c, 12, 78, 107
8, 8368, Note_on_c, 12, 78, 0
8, 8370, Note_on_c, 12, 76, 102
8, 8400, Note_on_c, 12, 78, 120
8, 8408, Note_on_c, 12, 76, 0
8, 8460, Note_on_c, 12, 74, 107
8, 8464, Note_on_c, 12, 78, 0
8, 8520, Note_on_c, 12, 81, 122
8, 8525, Note_on_c, 12, 74, 0
8, 8573, Note_on_c, 12, 81, 0
8, 8580, Note_on_c, 12, 72, 109
8, 8700, Note_on_c, 12, 71, 114
8, 8705, Note_on_c, 12, 72, 0
8, 8753, Note_on_c, 12, 71, 0
8, 8790, Note_on_c, 12, 67, 99
8, 8820, Note_on_c, 12, 71, 103
8, 8828, Note_on_c, 12, 67, 0
8, 8850, Note_on_c, 12, 74, 111
8, 8851, Note_on_c, 12, 71, 0
8, 8876, Note_on_c, 12, 74, 0
8, 8880, Note_on_c, 12, 79, 112
8, 8910, Note_on_c, 12, 74, 104
8, 8914, Note_on_c, 12, 79, 0
8, 8940, Note_on_c, 12, 79, 113
8, 8948, Note_on_c, 12, 74, 0
8, 8970, Note_on_c, 12, 81, 108
8, 8975, Note_on_c, 12, 79, 0
8, 9000, Note_on_c, 12, 83, 116
8, 9000, Note_on_c, 12, 81, 0
8, 9030, Note_on_c, 12, 79, 113
8, 9037, Note_on_c, 12, 83, 0
8, 9060, Note_on_c, 12, 74, 109
8, 9062, Note_on_c, 12, 79, 0
8, 9090, Note_on_c, 12, 71, 98
8, 9091, Note_on_c, 12, 74, 0
8, 9120, Note_on_c, 12, 67, 106
8, 9120, Note_on_c, 12, 71, 0
8, 9147, Note_on_c, 12, 67, 0
8, 9150, Note_on_c, 12, 71, 101
8, 9180, Note_on_c, 12, 74, 104
8, 9188, Note_on_c, 12, 71, 0
8, 9210, Note_on_c, 12, 79, 99
8, 9217, Note_on_c, 12, 74, 0
8, 9240, Note_on_c, 12, 83, 106
8, 9240, Note_on_c, 12, 79, 0
8, 9270, Note_on_c, 12, 79, 99
8, 9277, Note_on_c, 12, 83, 0
8, 9300, Note_on_c, 12, 78, 103
8, 9308, Note_on_c, 12, 79, 0
8, 9328, Note_on_c, 12, 78, 0
8, 9330, Note_on_c, 12, 76, 94
8, 9360, Note_on_c, 12, 81, 99
8, 9360, Note_on_c, 12, 76, 0
8, 9390, Note_on_c, 12, 76, 97
8, 9398, Note_on_c, 12, 81, 0
8, 9420, Note_on_c, 12, 73, 108
8, 9424, Note_on_c, 12, 76, 0
8, 9450, Note_on_c, 12, 69, 104
8, 9451, Note_on_c, 12, 73, 0
8, 9480, Note_on_c, 12, 66, 103
8, 9483, Note_on_c, 12, 69, 0
8, 9510, Note_on_c, 12, 69, 101
8, 9512, Note_on_c, 12, 66, 0
8, 9540, Note_on_c, 12, 73, 103
8, 9548, Note_on_c, 12, 69, 0
8, 9570, Note_on_c, 12, 76, 101
8, 9577, Note_on_c, 12, 73, 0
8, 9600, Note_on_c, 12, 81, 108
8, 9607, Note_on_c, 12, 76, 0
8, 9630, Note_on_c, 12, 78, 107
8, 9645, Note_on_c, 12, 81, 0
8, 9660, Note_on_c, 12, 76, 107
8, 9663, Note_on_c, 12, 78, 0
8, 9689, Note_on_c, 12, 76, 0
8, 9690, Note_on_c, 12, 74, 104
8, 9720, Note_on_c, 12, 79, 107
8, 9726, Note_on_c, 12, 74, 0
8, 9750, Note_on_c, 12, 74, 107
8, 9762, Note_on_c, 12, 79, 0
8, 9780, Note_on_c, 12, 71, 105
8, 9783, Note_on_c, 12, 74, 0
8, 9808, Note_on_c, 12, 71, 0
8, 9810, Note_on_c, 12, 67, 105
8, 9840, Note_on_c, 12, 64, 100
8, 9846, Note_on_c, 12, 67, 0
8, 9868, Note_on_c, 12, 64, 0
8, 9870, Note_on_c, 12, 67, 98
8, 9900, Note_on_c, 12, 71, 106
8, 9908, Note_on_c, 12, 67, 0
8, 9930, Note_on_c, 12, 74, 111
8, 9938, Note_on_c, 12, 71, 0
8, 9960, Note_on_c, 12, 79, 116
8, 9964, Note_on_c, 12, 74, 0
8, 9990, Note_on_c, 12, 78, 108
8, 10002, Note_on_c, 12, 79, 0
8, 10020, Note_on_c, 12, 76, 102
8, 10023, Note_on_c, 12, 78, 0
8, 10050, Note_on_c, 12, 74, 97
8, 10053, Note_on_c, 12, 76, 0
8, 10080, Note_on_c, 12, 73, 113
8, 10083, Note_on_c, 12, 74, 0
8, 10110, Note_on_c, 12, 67, 108
8, 10112, Note_on_c, 12, 73, 0
8, 10140, Note_on_c, 12, 64, 105
8, 10142, Note_on_c, 12, 67, 0
8, 10170, Note_on_c, 12, 61, 101
8, 10172, Note_on_c, 12, 64, 0
8, 10200, Note_on_c, 12, 57, 102
8, 10200, Note_on_c, 12, 61, 0
8, 10230, Note_on_c, 12, 61, 105
8, 10238, Note_on_c, 12, 57, 0
8, 10260, Note_on_c, 12, 64, 107
8, 10261, Note_on_c, 12, 61, 0
8, 10290, Note_on_c, 12, 67, 106
8, 10290, Note_on_c, 12, 64, 0
8, 10320, Note_on_c, 12, 73, 115
8, 10321, Note_on_c, 12, 67, 0
8, 10350, Note_on_c, 12, 76, 113
8, 10355, Note_on_c, 12, 73, 0
8, 10380, Note_on_c, 12, 74, 113
8, 10387, Note_on_c, 12, 76, 0
8, 10410, Note_on_c, 12, 73, 118
8, 10415, Note_on_c, 12, 74, 0
8, 10440, Note_on_c, 12, 74, 114
8, 10443, Note_on_c, 12, 73, 0
8, 10488, Note_on_c, 12, 74, 0
8, 10500, Note_on_c, 12, 54, 109
8, 10522, Note_on_c, 12, 54, 0
8, 10560, Note_on_c, 12, 54, 118
8, 10590, Note_on_c, 12, 54, 0
8, 10620, Note_on_c, 12, 69, 120
8, 10680, Note_on_c, 12, 74, 117
8, 10683, Note_on_c, 12, 69, 0
8, 10740, Note_on_c, 12, 78, 113
8, 10750, Note_on_c, 12, 74, 0
8, 10798, Note_on_c, 12, 78, 0
8, 10800, Note_on_c, 12, 71, 114
8, 10860, Note_on_c, 12, 55, 120
8, 10863, Note_on_c, 12, 71, 0
8, 10886, Note_on_c, 12, 55, 0
8, 10920, Note_on_c, 12, 55, 127
8, 10949, Note_on_c, 12, 55, 0
8, 10980, Note_on_c, 12, 71, 123
8, 11040, Note_on_c, 12, 76, 108
8, 11052, Note_on_c, 12, 71, 0
8, 11096, Note_on_c, 12, 76, 0
8, 11100, Note_on_c, 12, 79, 111
8, 11137, Note_on_c, 12, 79, 0
8, 11160, Note_on_c, 12, 73, 116
8, 11190, Note_on_c, 12, 76, 106
8, 11194, Note_on_c, 12, 73, 0
8, 11220, Note_on_c, 12, 69, 116
8, 11222, Note_on_c, 12, 76, 0
8, 11246, Note_on_c, 12, 69, 0
8, 11250, Note_on_c, 12, 67, 102
8, 11280, Note_on_c, 12, 66, 112
8, 11281, Note_on_c, 12, 67, 0
8, 11307, Note_on_c, 12, 66, 0
8, 11310, Note_on_c, 12, 69, 111
8, 11340, Note_on_c, 12, 74, 110
8, 11350, Note_on_c, 12, 69, 0
8, 11370, Note_on_c, 12, 78, 108
8, 11378, Note_on_c, 12, 74, 0
8, 11395, Note_on_c, 12, 78, 0
8, 11400, Note_on_c, 12, 79, 116
8, 11430, Note_on_c, 12, 76, 109
8, 11440, Note_on_c, 12, 79, 0
8, 11460, Note_on_c, 12, 74, 103
8, 11461, Note_on_c, 12, 76, 0
8, 11490, Note_on_c, 12, 73, 112
8, 11492, Note_on_c, 12, 74, 0
8, 11520, Note_on_c, 12, 78, 114
8, 11520, Note_on_c, 12, 73, 0
8, 11550, Note_on_c, 12, 74, 107
8, 11555, Note_on_c, 12, 78, 0
8, 11580, Note_on_c, 12, 73, 112
8, 11583, Note_on_c, 12, 74, 0
8, 11607, Note_on_c, 12, 73, 0
8, 11610, Note_on_c, 12, 71, 106
8, 11640, Note_on_c, 12, 69, 101
8, 11647, Note_on_c, 12, 71, 0
8, 11670, Note_on_c, 12, 67, 97
8, 11676, Note_on_c, 12, 69, 0
8, 11700, Note_on_c, 12, 66, 105
8, 11701, Note_on_c, 12, 67, 0
8, 11728, Note_on_c, 12, 66, 0
8, 11730, Note_on_c, 12, 64, 101
8, 11760, Note_on_c, 12, 62, 99
8, 11772, Note_on_c, 12, 64, 0
8, 11833, Note_on_c, 12, 62, 0
8, 17640, Note_on_c, 12, 78, 110
8, 17670, Note_on_c, 12, 79, 97
8, 17677, Note_on_c, 12, 78, 0
8, 17700, Note_on_c, 12, 81, 116
8, 17700, Note_on_c, 12, 79, 0
8, 17790, Note_on_c, 12, 83, 116
8, 17805, Note_on_c, 12, 81, 0
8, 17820, Note_on_c, 12, 81, 109
8, 17821, Note_on_c, 12, 83, 0
8, 17850, Note_on_c, 12, 79, 104
8, 17858, Note_on_c, 12, 81, 0
8, 17880, Note_on_c, 12, 78, 108
8, 17886, Note_on_c, 12, 79, 0
8, 17908, Note_on_c, 12, 78, 0
8, 17910, Note_on_c, 12, 76, 100
8, 17940, Note_on_c, 12, 74, 108
8, 17950, Note_on_c, 12, 76, 0
8, 17970, Note_on_c, 12, 72, 101
8, 17972, Note_on_c, 12, 74, 0
8, 18000, Note_on_c, 12, 71, 116
8, 18005, Note_on_c, 12, 72, 0
8, 18030, Note_on_c, 12, 72, 122
8, 18040, Note_on_c, 12, 71, 0
8, 18060, Note_on_c, 12, 74, 124
8, 18066, Note_on_c, 12, 72, 0
8, 18150, Note_on_c, 12, 76, 119
8, 18163, Note_on_c, 12, 74, 0
8, 18180, Note_on_c, 12, 74, 112
8, 18182, Note_on_c, 12, 76, 0
8, 18210, Note_on_c, 12, 72, 107
8, 18214, Note_on_c, 12, 74, 0
8, 18240, Note_on_c, 12, 71, 104
8, 18248, Note_on_c, 12, 72, 0
8, 18265, Note_on_c, 12, 71, 0
8, 18270, Note_on_c, 12, 69, 102
8, 18300, Note_on_c, 12, 67, 98
8, 18301, Note_on_c, 12, 69, 0
8, 18330, Note_on_c, 12, 66, 94
8, 18332, Note_on_c, 12, 67, 0
8, 18360, Note_on_c, 12, 64, 96
8, 18360, Note_on_c, 12, 66, 0
8, 18390, Note_on_c, 12, 68, 103
8, 18398, Note_on_c, 12, 64, 0
8, 18417, Note_on_c, 12, 68, 0
8, 18420, Note_on_c, 12, 69, 96
8, 18447, Note_on_c, 12, 69, 0
8, 18450, Note_on_c, 12, 71, 101
8, 18480, Note_on_c, 12, 69, 110
8, 18486, Note_on_c, 12, 71, 0
8, 18510, Note_on_c, 12, 64, 98
8, 18515, Note_on_c, 12, 69, 0
8, 18540, Note_on_c, 12, 69, 118
8, 18546, Note_on_c, 12, 64, 0
8, 18566, Note_on_c, 12, 69, 0
8, 18570, Note_on_c, 12, 71, 104
8, 18600, Note_on_c, 12, 72, 118
8, 18604, Note_on_c, 12, 71, 0
8, 18630, Note_on_c, 12, 69, 117
8, 18630, Note_on_c, 12, 72, 0
8, 18660, Note_on_c, 12, 75, 120
8, 18671, Note_on_c, 12, 69, 0
8, 18690, Note_on_c, 12, 76, 122
8, 18695, Note_on_c, 12, 75, 0
8, 18720, Note_on_c, 12, 78, 124
8, 18730, Note_on_c, 12, 76, 0
8, 18750, Note_on_c, 12, 76, 119
8, 18759, Note_on_c, 12, 78, 0
8, 18780, Note_on_c, 12, 75, 116
8, 18790, Note_on_c, 12, 76, 0
8, 18810, Note_on_c, 12, 73, 114
8, 18812, Note_on_c, 12, 75, 0
8, 18840, Note_on_c, 12, 71, 105
8, 18851, Note_on_c, 12, 73, 0
8, 19110, Note_on_c, 12, 75, 100
8, 19134, Note_on_c, 12, 71, 0
8, 19140, Note_on_c, 12, 76, 102
8, 19145, Note_on_c, 12, 75, 0
8, 19230, Note_on_c, 12, 63, 92
8, 19230, Note_on_c, 12, 76, 0
8, 19259, Note_on_c, 12, 63, 0
8, 19260, Note_on_c, 12, 64, 95
8, 19350, Note_on_c, 12, 51, 89
8, 19350, Note_on_c, 12, 64, 0
8, 19380, Note_on_c, 12, 52, 89
8, 19380, Note_on_c, 12, 51, 0
8, 19440, Note_on_c, 12, 52, 0
8, 19470, Note_on_c, 12, 80, 100
8, 19500, Note_on_c, 12, 81, 102
8, 19505, Note_on_c, 12, 80, 0
8, 19590, Note_on_c, 12, 68, 92
8, 19590, Note_on_c, 12, 81, 0
8, 19619, Note_on_c, 12, 68, 0
8, 19620, Note_on_c, 12, 69, 95
8, 19710, Note_on_c, 12, 56, 89
8, 19710, Note_on_c, 12, 69, 0
8, 19740, Note_on_c, 12, 57, 89
8, 19740, Note_on_c, 12, 56, 0
8, 19830, Note_on_c, 12, 59, 88
8, 19845, Note_on_c, 12, 57, 0
8, 19860, Note_on_c, 12, 60, 93
8, 19865, Note_on_c, 12, 59, 0
8, 19890, Note_on_c, 12, 65, 100
8, 19894, Note_on_c, 12, 60, 0
8, 19920, Note_on_c, 12, 59, 101
8, 19920, Note_on_c, 12, 65, 0
8, 19950, Note_on_c, 12, 63, 104
8, 19956, Note_on_c, 12, 59, 0
8, 19980, Note_on_c, 12, 64, 103
8, 19981, Note_on_c, 12, 63, 0
8, 20009, Note_on_c, 12, 64, 0
8, 20010, Note_on_c, 12, 67, 111
8, 20040, Note_on_c, 12, 66, 102
8, 20048, Note_on_c, 12, 67, 0
8, 20070, Note_on_c, 12, 64, 102
8, 20073, Note_on_c, 12, 66, 0
8, 20099, Note_on_c, 12, 64, 0
8, 20100, Note_on_c, 12, 63, 95
8, 20130, Note_on_c, 12, 69, 104
8, 20132, Note_on_c, 12, 63, 0
8, 20160, Note_on_c, 12, 67, 102
8, 20160, Note_on_c, 12, 69, 0
8, 20190, Note_on_c, 12, 66, 98
8, 20195, Note_on_c, 12, 67, 0
8, 20220, Note_on_c, 12, 64, 102
8, 20220, Note_on_c, 12, 66, 0
8, 20250, Note_on_c, 12, 63, 98
8, 20253, Note_on_c, 12, 64, 0
8, 20280, Note_on_c, 12, 64, 106
8, 20283, Note_on_c, 12, 63, 0
8, 20310, Note_on_c, 12, 67, 98
8, 20314, Note_on_c, 12, 64, 0
8, 20337, Note_on_c, 12, 67, 0
8, 20340, Note_on_c, 12, 59, 103
8, 20370, Note_on_c, 12, 57, 91
8, 20380, Note_on_c, 12, 59, 0
8, 20400, Note_on_c, 12, 55, 96
8, 20405, Note_on_c, 12, 57, 0
8, 20430, Note_on_c, 12, 59, 92
8, 20433, Note_on_c, 12, 55, 0
8, 20460, Note_on_c, 12, 52, 102
8, 20463, Note_on_c, 12, 59, 0
8, 20496, Note_on_c, 12, 52, 0
8, 20580, Note_on_c, 12, 76, 107
8, 20601, Note_on_c, 12, 76, 0
8, 20640, Note_on_c, 12, 72, 122
8, 20678, Note_on_c, 12, 72, 0
8, 20700, Note_on_c, 12, 76, 114
8, 20721, Note_on_c, 12, 76, 0
8, 20760, Note_on_c, 12, 81, 108
8, 20788, Note_on_c, 12, 81, 0
8, 20820, Note_on_c, 12, 69, 113
8, 20845, Note_on_c, 12, 69, 0
8, 20940, Note_on_c, 12, 74, 119
8, 20978, Note_on_c, 12, 74, 0
8, 21000, Note_on_c, 12, 71, 108
8, 21035, Note_on_c, 12, 71, 0
8, 21060, Note_on_c, 12, 74, 106
8, 21083, Note_on_c, 12, 74, 0
8, 21120, Note_on_c, 12, 79, 108
8, 21153, Note_on_c, 12, 79, 0
8, 21180, Note_on_c, 12, 67, 103
8, 21219, Note_on_c, 12, 67, 0
8, 21240, Note_on_c, 12, 72, 112
8, 21270, Note_on_c, 12, 69, 110
8, 21273, Note_on_c, 12, 72, 0
8, 21300, Note_on_c, 12, 64, 103
8, 21301, Note_on_c, 12, 69, 0
8, 21330, Note_on_c, 12, 60, 104
8, 21330, Note_on_c, 12, 64, 0
8, 21360, Note_on_c, 12, 57, 99
8, 21365, Note_on_c, 12, 60, 0
8, 21384, Note_on_c, 12, 57, 0
8, 21390, Note_on_c, 12, 60, 103
8, 21420, Note_on_c, 12, 64, 106
8, 21430, Note_on_c, 12, 60, 0
8, 21450, Note_on_c, 12, 69, 120
8, 21455, Note_on_c, 12, 64, 0
8, 21480, Note_on_c, 12, 72, 123
8, 21483, Note_on_c, 12, 69, 0
8, 21510, Note_on_c, 12, 69, 119
8, 21511, Note_on_c, 12, 72, 0
8, 21540, Note_on_c, 12, 72, 117
8, 21548, Note_on_c, 12, 69, 0
8, 21570, Note_on_c, 12, 76, 116
8, 21576, Note_on_c, 12, 72, 0
8, 21600, Note_on_c, 12, 78, 115
8, 21605, Note_on_c, 12, 76, 0
8, 21630, Note_on_c, 12, 72, 113
8, 21638, Note_on_c, 12, 78, 0
8, 21655, Note_on_c, 12, 72, 0
8, 21660, Note_on_c, 12, 69, 114
8, 21686, Note_on_c, 12, 69, 0
8, 21690, Note_on_c, 12, 66, 100
8, 21720, Note_on_c, 12, 62, 109
8, 21723, Note_on_c, 12, 66, 0
8, 21750, Note_on_c, 12, 66, 105
8, 21752, Note_on_c, 12, 62, 0
8, 21776, Note_on_c, 12, 66, 0
8, 21780, Note_on_c, 12, 69, 117
8, 21806, Note_on_c, 12, 69, 0
8, 21810, Note_on_c, 12, 72, 113
8, 21833, Note_on_c, 12, 72, 0
8, 21840, Note_on_c, 12, 78, 120
8, 21870, Note_on_c, 12, 72, 114
8, 21872, Note_on_c, 12, 78, 0
8, 21900, Note_on_c, 12, 78, 120
8, 21915, Note_on_c, 12, 72, 0
8, 21930, Note_on_c, 12, 81, 123
8, 21935, Note_on_c, 12, 78, 0
8, 21960, Note_on_c, 12, 83, 127
8, 21963, Note_on_c, 12, 81, 0
8, 21990, Note_on_c, 12, 79, 116
8, 22006, Note_on_c, 12, 83, 0
8, 22020, Note_on_c, 12, 74, 117
8, 22023, Note_on_c, 12, 79, 0
8, 22050, Note_on_c, 12, 71, 114
8, 22053, Note_on_c, 12, 74, 0
8, 22080, Note_on_c, 12, 67, 118
8, 22085, Note_on_c, 12, 71, 0
8, 22106, Note_on_c, 12, 67, 0
8, 22110, Note_on_c, 12, 71, 122
8, 22140, Note_on_c, 12, 74, 122
8, 22151, Note_on_c, 12, 71, 0
8, 22170, Note_on_c, 12, 79, 124
8, 22178, Note_on_c, 12, 74, 0
8, 22200, Note_on_c, 12, 83, 127
8, 22203, Note_on_c, 12, 79, 0
8, 22230, Note_on_c, 12, 77, 123
8, 22235, Note_on_c, 12, 83, 0
8, 22260, Note_on_c, 12, 83, 127
8, 22272, Note_on_c, 12, 77, 0
8, 22290, Note_on_c, 12, 86, 127
8, 22296, Note_on_c, 12, 83, 0
8, 22320, Note_on_c, 12, 76, 127
8, 22325, Note_on_c, 12, 86, 0
8, 22350, Note_on_c, 12, 86, 127
8, 22360, Note_on_c, 12, 76, 0
8, 22380, Note_on_c, 12, 84, 127
8, 22386, Note_on_c, 12, 86, 0
8, 22410, Note_on_c, 12, 76, 118
8, 22415, Note_on_c, 12, 84, 0
8, 22440, Note_on_c, 12, 74, 127
8, 22440, Note_on_c, 12, 76, 0
8, 22470, Note_on_c, 12, 84, 127
8, 22481, Note_on_c, 12, 74, 0
8, 22500, Note_on_c, 12, 83, 120
8, 22507, Note_on_c, 12, 84, 0
8, 22530, Note_on_c, 12, 74, 114
8, 22530, Note_on_c, 12, 83, 0
8, 22560, Note_on_c, 12, 72, 127
8, 22560, Note_on_c, 12, 74, 0
8, 22590, Note_on_c, 12, 76, 126
8, 22605, Note_on_c, 12, 72, 0
8, 22620, Note_on_c, 12, 78, 127
8, 22633, Note_on_c, 12, 76, 0
8, 22650, Note_on_c, 12, 79, 116
8, 22655, Note_on_c, 12, 78, 0
8, 22680, Note_on_c, 12, 81, 127
8, 22680, Note_on_c, 12, 79, 0
8, 22710, Note_on_c, 12, 72, 123
8, 22713, Note_on_c, 12, 81, 0
8, 22740, Note_on_c, 12, 71, 126
8, 22753, Note_on_c, 12, 72, 0
8, 22770, Note_on_c, 12, 69, 120
8, 22771, Note_on_c, 12, 71, 0
8, 22800, Note_on_c, 12, 71, 127
8, 22811, Note_on_c, 12, 69, 0
8, 22830, Note_on_c, 12, 74, 114
8, 22837, Note_on_c, 12, 71, 0
8, 22860, Note_on_c, 12, 71, 120
8, 22867, Note_on_c, 12, 74, 0
8, 22888, Note_on_c, 12, 71, 0
8, 22890, Note_on_c, 12, 67, 111
8, 22920, Note_on_c, 12, 72, 119
8, 22930, Note_on_c, 12, 67, 0
8, 22950, Note_on_c, 12, 69, 113
8, 22960, Note_on_c, 12, 72, 0
8, 22980, Note_on_c, 12, 67, 114
8, 22992, Note_on_c, 12, 69, 0
8, 23010, Note_on_c, 12, 66, 112
8, 23010, Note_on_c, 12, 67, 0
8, 23040, Note_on_c, 12, 71, 122
8, 23043, Note_on_c, 12, 66, 0
8, 23070, Note_on_c, 12, 67, 113
8, 23074, Note_on_c, 12, 71, 0
8, 23100, Note_on_c, 12, 66, 107
8, 23105, Note_on_c, 12, 67, 0
8, 23130, Note_on_c, 12, 64, 107
8, 23138, Note_on_c, 12, 66, 0
8, 23160, Note_on_c, 12, 62, 113
8, 23161, Note_on_c, 12, 64, 0
8, 23190, Note_on_c, 12, 60, 109
8, 23201, Note_on_c, 12, 62, 0
8, 23220, Note_on_c, 12, 59, 104
8, 23225, Note_on_c, 12, 60, 0
8, 23250, Note_on_c, 12, 57, 96
8, 23251, Note_on_c, 12, 59, 0
8, 23280, Note_on_c, 12, 55, 102
8, 23291, Note_on_c, 12, 57, 0
8, 23385, Note_on_c, 12, 55, 0
8, 23400, Control_c, 12, 91, 0
8, 23400, End_track
9, 0, Start_track
9, 0, MIDI_port, 0
9, 0, Title_t, "Piano               "
9, 0, Program_c, 12, 0
9, 0, Control_c, 12, 7, 127
9, 0, Control_c, 12, 10, 64
9, 6120, Note_on_c, 12, 43, 103
9, 6156, Note_on_c, 12, 43, 0
9, 6180, Note_on_c, 12, 59, 87
9, 6202, Note_on_c, 12, 59, 0
9, 6210, Note_on_c, 12, 57, 83
9, 6236, Note_on_c, 12, 57, 0
9, 6240, Note_on_c, 12, 59, 96
9, 6266, Note_on_c, 12, 59, 0
9, 6300, Note_on_c, 12, 55, 113
9, 6335, Note_on_c, 12, 55, 0
9, 6360, Note_on_c, 12, 43, 109
9, 6388, Note_on_c, 12, 43, 0
9, 6420, Note_on_c, 12, 55, 113
9, 6446, Note_on_c, 12, 55, 0
9, 6480, Note_on_c, 12, 42, 107
9, 6516, Note_on_c, 12, 42, 0
9, 6540, Note_on_c, 12, 54, 103
9, 6566, Note_on_c, 12, 54, 0
9, 6570, Note_on_c, 12, 52, 86
9, 6600, Note_on_c, 12, 54, 95
9, 6602, Note_on_c, 12, 52, 0
9, 6630, Note_on_c, 12, 54, 0
9, 6660, Note_on_c, 12, 50, 103
9, 6699, Note_on_c, 12, 50, 0
9, 6720, Note_on_c, 12, 42, 106
9, 6760, Note_on_c, 12, 42, 0
9, 6780, Note_on_c, 12, 50, 103
9, 6815, Note_on_c, 12, 50, 0
9, 6840, Note_on_c, 12, 40, 110
9, 6885, Note_on_c, 12, 40, 0
9, 6900, Note_on_c, 12, 52, 112
9, 6929, Note_on_c, 12, 52, 0
9, 6930, Note_on_c, 12, 50, 94
9, 6960, Note_on_c, 12, 52, 109
9, 6967, Note_on_c, 12, 50, 0
9, 6988, Note_on_c, 12, 52, 0
9, 7020, Note_on_c, 12, 55, 106
9, 7041, Note_on_c, 12, 55, 0
9, 7080, Note_on_c, 12, 45, 110
9, 7110, Note_on_c, 12, 45, 0
9, 7140, Note_on_c, 12, 61, 98
9, 7162, Note_on_c, 12, 61, 0
9, 7200, Note_on_c, 12, 50, 107
9, 7233, Note_on_c, 12, 50, 0
9, 7260, Note_on_c, 12, 54, 117
9, 7288, Note_on_c, 12, 54, 0
9, 7290, Note_on_c, 12, 52, 87
9, 7320, Note_on_c, 12, 54, 104
9, 7326, Note_on_c, 12, 52, 0
9, 7340, Note_on_c, 12, 54, 0
9, 7380, Note_on_c, 12, 50, 101
9, 7405, Note_on_c, 12, 50, 0
9, 7440, Note_on_c, 12, 38, 104
9, 7473, Note_on_c, 12, 38, 0
9, 7530, Note_on_c, 12, 48, 93
9, 7548, Note_on_c, 12, 48, 0
9, 7560, Note_on_c, 12, 47, 96
9, 7585, Note_on_c, 12, 47, 0
9, 7590, Note_on_c, 12, 45, 94
9, 7619, Note_on_c, 12, 45, 0
9, 7620, Note_on_c, 12, 47, 94
9, 7710, Note_on_c, 12, 50, 84
9, 7733, Note_on_c, 12, 47, 0
9, 7735, Note_on_c, 12, 50, 0
9, 7740, Note_on_c, 12, 52, 97
9, 7770, Note_on_c, 12, 54, 95
9, 7774, Note_on_c, 12, 52, 0
9, 7798, Note_on_c, 12, 54, 0
9, 7800, Note_on_c, 12, 55, 101
9, 7830, Note_on_c, 12, 57, 82
9, 7841, Note_on_c, 12, 55, 0
9, 7860, Note_on_c, 12, 59, 86
9, 7865, Note_on_c, 12, 57, 0
9, 7890, Note_on_c, 12, 55, 100
9, 7893, Note_on_c, 12, 59, 0
9, 7918, Note_on_c, 12, 55, 0
9, 7920, Note_on_c, 12, 48, 88
9, 7950, Note_on_c, 12, 47, 87
9, 7953, Note_on_c, 12, 48, 0
9, 7980, Note_on_c, 12, 48, 96
9, 7985, Note_on_c, 12, 47, 0
9, 8070, Note_on_c, 12, 52, 98
9, 8070, Note_on_c, 12, 48, 0
9, 8100, Note_on_c, 12, 54, 111
9, 8101, Note_on_c, 12, 52, 0
9, 8130, Note_on_c, 12, 55, 107
9, 8131, Note_on_c, 12, 54, 0
9, 8160, Note_on_c, 12, 57, 101
9, 8160, Note_on_c, 12, 55, 0
9, 8190, Note_on_c, 12, 59, 87
9, 8190, Note_on_c, 12, 57, 0
9, 8220, Note_on_c, 12, 60, 118
9, 8220, Note_on_c, 12, 59, 0
9, 8250, Note_on_c, 12, 57, 88
9, 8251, Note_on_c, 12, 60, 0
9, 8280, Note_on_c, 12, 50, 96
9, 8280, Note_on_c, 12, 57, 0
9, 8310, Note_on_c, 12, 49, 94
9, 8312, Note_on_c, 12, 50, 0
9, 8340, Note_on_c, 12, 50, 109
9, 8345, Note_on_c, 12, 49, 0
9, 8430, Note_on_c, 12, 57, 89
9, 8442, Note_on_c, 12, 50, 0
9, 8460, Note_on_c, 12, 59, 100
9, 8474, Note_on_c, 12, 57, 0
9, 8490, Note_on_c, 12, 60, 113
9, 8499, Note_on_c, 12, 59, 0
9, 8520, Note_on_c, 12, 62, 86
9, 8522, Note_on_c, 12, 60, 0
9, 8550, Note_on_c, 12, 64, 83
9, 8559, Note_on_c, 12, 62, 0
9, 8580, Note_on_c, 12, 66, 98
9, 8585, Note_on_c, 12, 64, 0
9, 8609, Note_on_c, 12, 66, 0
9, 8610, Note_on_c, 12, 62, 76
9, 8640, Note_on_c, 12, 67, 97
9, 8651, Note_on_c, 12, 62, 0
9, 8670, Note_on_c, 12, 66, 92
9, 8672, Note_on_c, 12, 67, 0
9, 8700, Note_on_c, 12, 67, 88
9, 8701, Note_on_c, 12, 66, 0
9, 8730, Note_on_c, 12, 62, 82
9, 8731, Note_on_c, 12, 67, 0
9, 8760, Note_on_c, 12, 59, 88
9, 8760, Note_on_c, 12, 62, 0
9, 8790, Note_on_c, 12, 62, 65
9, 8796, Note_on_c, 12, 59, 0
9, 8820, Note_on_c, 12, 55, 83
9, 8825, Note_on_c, 12, 62, 0
9, 8850, Note_on_c, 12, 59, 82
9, 8854, Note_on_c, 12, 55, 0
9, 8880, Note_on_c, 12, 50, 97
9, 8881, Note_on_c, 12, 59, 0
9, 8910, Note_on_c, 12, 55, 97
9, 8914, Note_on_c, 12, 50, 0
9, 8940, Note_on_c, 12, 47, 93
9, 8946, Note_on_c, 12, 55, 0
9, 8970, Note_on_c, 12, 50, 96
9, 8978, Note_on_c, 12, 47, 0
9, 9000, Note_on_c, 12, 43, 94
9, 9008, Note_on_c, 12, 50, 0
9, 9039, Note_on_c, 12, 43, 0
9, 9060, Note_on_c, 12, 55, 107
9, 9099, Note_on_c, 12, 55, 0
9, 9120, Note_on_c, 12, 59, 86
9, 9155, Note_on_c, 12, 59, 0
9, 9180, Note_on_c, 12, 55, 109
9, 9223, Note_on_c, 12, 55, 0
9, 9240, Note_on_c, 12, 43, 87
9, 9283, Note_on_c, 12, 43, 0
9, 9300, Note_on_c, 12, 55, 98
9, 9341, Note_on_c, 12, 55, 0
9, 9360, Note_on_c, 12, 42, 98
9, 9408, Note_on_c, 12, 42, 0
9, 9420, Note_on_c, 12, 54, 106
9, 9455, Note_on_c, 12, 54, 0
9, 9480, Note_on_c, 12, 57, 86
9, 9516, Note_on_c, 12, 57, 0
9, 9540, Note_on_c, 12, 54, 107
9, 9586, Note_on_c, 12, 54, 0
9, 9600, Note_on_c, 12, 42, 102
9, 9639, Note_on_c, 12, 42, 0
9, 9660, Note_on_c, 12, 54, 110
9, 9703, Note_on_c, 12, 54, 0
9, 9720, Note_on_c, 12, 40, 112
9, 9758, Note_on_c, 12, 40, 0
9, 9780, Note_on_c, 12, 52, 103
9, 9816, Note_on_c, 12, 52, 0
9, 9840, Note_on_c, 12, 55, 104
9, 9876, Note_on_c, 12, 55, 0
9, 9900, Note_on_c, 12, 52, 106
9, 9939, Note_on_c, 12, 52, 0
9, 9960, Note_on_c, 12, 40, 107
9, 9999, Note_on_c, 12, 40, 0
9, 10020, Note_on_c, 12, 55, 107
9, 10063, Note_on_c, 12, 55, 0
9, 10080, Note_on_c, 12, 45, 103
9, 10123, Note_on_c, 12, 45, 0
9, 10140, Note_on_c, 12, 52, 96
9, 10173, Note_on_c, 12, 52, 0
9, 10200, Note_on_c, 12, 55, 101
9, 10228, Note_on_c, 12, 55, 0
9, 10260, Note_on_c, 12, 52, 106
9, 10290, Note_on_c, 12, 52, 0
9, 10320, Note_on_c, 12, 45, 112
9, 10351, Note_on_c, 12, 45, 0
9, 10380, Note_on_c, 12, 55, 106
9, 10401, Note_on_c, 12, 55, 0
9, 10440, Note_on_c, 12, 54, 98
9, 10470, Note_on_c, 12, 57, 88
9, 10470, Note_on_c, 12, 54, 0
9, 10500, Note_on_c, 12, 62, 71
9, 10526, Note_on_c, 12, 57, 0
9, 10530, Note_on_c, 12, 66, 89
9, 10532, Note_on_c, 12, 62, 0
9, 10560, Note_on_c, 12, 69, 103
9, 10566, Note_on_c, 12, 66, 0
9, 10590, Note_on_c, 12, 66, 95
9, 10596, Note_on_c, 12, 69, 0
9, 10620, Note_on_c, 12, 62, 73
9, 10621, Note_on_c, 12, 66, 0
9, 10650, Note_on_c, 12, 57, 80
9, 10651, Note_on_c, 12, 62, 0
9, 10680, Note_on_c, 12, 54, 95
9, 10683, Note_on_c, 12, 57, 0
9, 10705, Note_on_c, 12, 54, 0
9, 10710, Note_on_c, 12, 57, 74
9, 10740, Note_on_c, 12, 50, 92
9, 10741, Note_on_c, 12, 57, 0
9, 10770, Note_on_c, 12, 54, 89
9, 10774, Note_on_c, 12, 50, 0
9, 10800, Note_on_c, 12, 55, 98
9, 10805, Note_on_c, 12, 54, 0
9, 10830, Note_on_c, 12, 59, 91
9, 10836, Note_on_c, 12, 55, 0
9, 10860, Note_on_c, 12, 62, 86
9, 10871, Note_on_c, 12, 59, 0
9, 10890, Note_on_c, 12, 67, 96
9, 10900, Note_on_c, 12, 62, 0
9, 10920, Note_on_c, 12, 71, 107
9, 10931, Note_on_c, 12, 67, 0
9, 10950, Note_on_c, 12, 67, 92
9, 10953, Note_on_c, 12, 71, 0
9, 10979, Note_on_c, 12, 67, 0
9, 10980, Note_on_c, 12, 62, 73
9, 11010, Note_on_c, 12, 59, 87
9, 11011, Note_on_c, 12, 62, 0
9, 11038, Note_on_c, 12, 59, 0
9, 11040, Note_on_c, 12, 55, 104
9, 11070, Note_on_c, 12, 59, 71
9, 11070, Note_on_c, 12, 55, 0
9, 11096, Note_on_c, 12, 59, 0
9, 11100, Note_on_c, 12, 52, 89
9, 11130, Note_on_c, 12, 55, 101
9, 11132, Note_on_c, 12, 52, 0
9, 11160, Note_on_c, 12, 57, 87
9, 11163, Note_on_c, 12, 55, 0
9, 11203, Note_on_c, 12, 57, 0
9, 11220, Note_on_c, 12, 61, 91
9, 11257, Note_on_c, 12, 61, 0
9, 11280, Note_on_c, 12, 62, 78
9, 11308, Note_on_c, 12, 62, 0
9, 11310, Note_on_c, 12, 57, 78
9, 11340, Note_on_c, 12, 54, 85
9, 11348, Note_on_c, 12, 57, 0
9, 11368, Note_on_c, 12, 54, 0
9, 11370, Note_on_c, 12, 50, 79
9, 11400, Note_on_c, 12, 57, 87
9, 11406, Note_on_c, 12, 50, 0
9, 11447, Note_on_c, 12, 57, 0
9, 11460, Note_on_c, 12, 45, 112
9, 11520, Note_on_c, 12, 38, 88
9, 11520, Note_on_c, 12, 45, 0
9, 11550, Note_on_c, 12, 50, 83
9, 11560, Note_on_c, 12, 38, 0
9, 11580, Note_on_c, 12, 52, 92
9, 11581, Note_on_c, 12, 50, 0
9, 11610, Note_on_c, 12, 54, 94
9, 11617, Note_on_c, 12, 52, 0
9, 11640, Note_on_c, 12, 55, 113
9, 11641, Note_on_c, 12, 54, 0
9, 11670, Note_on_c, 12, 57, 100
9, 11680, Note_on_c, 12, 55, 0
9, 11700, Note_on_c, 12, 59, 97
9, 11703, Note_on_c, 12, 57, 0
9, 11730, Note_on_c, 12, 61, 99
9, 11730, Note_on_c, 12, 59, 0
9, 11760, Note_on_c, 12, 62, 76
9, 11768, Note_on_c, 12, 61, 0
9, 11849, Note_on_c, 12, 62, 0
9, 17640, Note_on_c, 12, 38, 91
9, 17693, Note_on_c, 12, 38, 0
9, 17700, Note_on_c, 12, 54, 98
9, 17726, Note_on_c, 12, 54, 0
9, 17730, Note_on_c, 12, 52, 89
9, 17760, Note_on_c, 12, 54, 90
9, 17765, Note_on_c, 12, 52, 0
9, 17781, Note_on_c, 12, 54, 0
9, 17820, Note_on_c, 12, 50, 87
9, 17851, Note_on_c, 12, 50, 0
9, 17880, Note_on_c, 12, 38, 86
9, 17906, Note_on_c, 12, 38, 0
9, 17940, Note_on_c, 12, 54, 107
9, 17968, Note_on_c, 12, 54, 0
9, 18000, Note_on_c, 12, 43, 94
9, 18041, Note_on_c, 12, 43, 0
9, 18060, Note_on_c, 12, 59, 98
9, 18089, Note_on_c, 12, 59, 0
9, 18090, Note_on_c, 12, 57, 80
9, 18120, Note_on_c, 12, 59, 89
9, 18123, Note_on_c, 12, 57, 0
9, 18143, Note_on_c, 12, 59, 0
9, 18180, Note_on_c, 12, 55, 106
9, 18216, Note_on_c, 12, 55, 0
9, 18240, Note_on_c, 12, 43, 93
9, 18272, Note_on_c, 12, 43, 0
9, 18300, Note_on_c, 12, 59, 96
9, 18336, Note_on_c, 12, 59, 0
9, 18360, Note_on_c, 12, 48, 92
9, 18404, Note_on_c, 12, 48, 0
9, 18420, Note_on_c, 12, 60, 120
9, 18450, Note_on_c, 12, 59, 83
9, 18450, Note_on_c, 12, 60, 0
9, 18480, Note_on_c, 12, 60, 113
9, 18485, Note_on_c, 12, 59, 0
9, 18506, Note_on_c, 12, 60, 0
9, 18540, Note_on_c, 12, 54, 94
9, 18572, Note_on_c, 12, 54, 0
9, 18600, Note_on_c, 12, 57, 82
9, 18631, Note_on_c, 12, 57, 0
9, 18660, Note_on_c, 12, 60, 113
9, 18688, Note_on_c, 12, 60, 0
9, 18720, Note_on_c, 12, 57, 100
9, 18756, Note_on_c, 12, 57, 0
9, 18780, Note_on_c, 12, 54, 110
9, 18800, Note_on_c, 12, 54, 0
9, 18840, Note_on_c, 12, 51, 103
9, 18869, Note_on_c, 12, 51, 0
9, 18870, Note_on_c, 12, 47, 86
9, 18900, Note_on_c, 12, 51, 97
9, 18900, Note_on_c, 12, 47, 0
9, 18930, Note_on_c, 12, 54, 104
9, 18935, Note_on_c, 12, 51, 0
9, 18960, Note_on_c, 12, 59, 87
9, 18962, Note_on_c, 12, 54, 0
9, 18990, Note_on_c, 12, 63, 94
9, 19001, Note_on_c, 12, 59, 0
9, 19020, Note_on_c, 12, 66, 98
9, 19031, Note_on_c, 12, 63, 0
9, 19050, Note_on_c, 12, 69, 93
9, 19053, Note_on_c, 12, 66, 0
9, 19080, Note_on_c, 12, 67, 91
9, 19080, Note_on_c, 12, 69, 0
9, 19170, Note_on_c, 12, 66, 87
9, 19170, Note_on_c, 12, 67, 0
9, 19200, Note_on_c, 12, 67, 88
9, 19200, Note_on_c, 12, 66, 0
9, 19290, Note_on_c, 12, 54, 79
9, 19293, Note_on_c, 12, 67, 0
9, 19320, Note_on_c, 12, 55, 84
9, 19327, Note_on_c, 12, 54, 0
9, 19410, Note_on_c, 12, 47, 79
9, 19410, Note_on_c, 12, 55, 0
9, 19440, Note_on_c, 12, 48, 91
9, 19440, Note_on_c, 12, 47, 0
9, 19530, Note_on_c, 12, 71, 87
9, 19530, Note_on_c, 12, 48, 0
9, 19560, Note_on_c, 12, 72, 88
9, 19560, Note_on_c, 12, 71, 0
9, 19650, Note_on_c, 12, 59, 79
9, 19653, Note_on_c, 12, 72, 0
9, 19680, Note_on_c, 12, 60, 84
9, 19687, Note_on_c, 12, 59, 0
9, 19770, Note_on_c, 12, 52, 79
9, 19770, Note_on_c, 12, 60, 0
9, 19800, Note_on_c, 12, 51, 110
9, 19800, Note_on_c, 12, 52, 0
9, 19830, Note_on_c, 12, 51, 0
9, 19860, Note_on_c, 12, 57, 92
9, 19881, Note_on_c, 12, 57, 0
9, 19920, Note_on_c, 12, 55, 101
9, 19945, Note_on_c, 12, 55, 0
9, 19980, Note_on_c, 12, 46, 107
9, 20007, Note_on_c, 12, 46, 0
9, 20040, Note_on_c, 12, 47, 104
9, 20073, Note_on_c, 12, 47, 0
9, 20100, Note_on_c, 12, 54, 103
9, 20120, Note_on_c, 12, 54, 0
9, 20160, Note_on_c, 12, 52, 104
9, 20198, Note_on_c, 12, 52, 0
9, 20220, Note_on_c, 12, 55, 103
9, 20245, Note_on_c, 12, 55, 0
9, 20250, Note_on_c, 12, 54, 97
9, 20278, Note_on_c, 12, 54, 0
9, 20280, Note_on_c, 12, 55, 105
9, 20310, Note_on_c, 12, 55, 0
9, 20340, Note_on_c, 12, 52, 100
9, 20371, Note_on_c, 12, 52, 0
9, 20400, Note_on_c, 12, 40, 110
9, 20431, Note_on_c, 12, 40, 0
9, 20490, Note_on_c, 12, 50, 107
9, 20506, Note_on_c, 12, 50, 0
9, 20520, Note_on_c, 12, 48, 92
9, 20550, Note_on_c, 12, 52, 87
9, 20552, Note_on_c, 12, 48, 0
9, 20580, Note_on_c, 12, 57, 91
9, 20580, Note_on_c, 12, 52, 0
9, 20610, Note_on_c, 12, 60, 94
9, 20617, Note_on_c, 12, 57, 0
9, 20640, Note_on_c, 12, 64, 93
9, 20640, Note_on_c, 12, 60, 0
9, 20670, Note_on_c, 12, 60, 83
9, 20675, Note_on_c, 12, 64, 0
9, 20700, Note_on_c, 12, 57, 83
9, 20704, Note_on_c, 12, 60, 0
9, 20730, Note_on_c, 12, 52, 86
9, 20730, Note_on_c, 12, 57, 0
9, 20760, Note_on_c, 12, 48, 88
9, 20760, Note_on_c, 12, 52, 0
9, 20790, Note_on_c, 12, 52, 83
9, 20790, Note_on_c, 12, 48, 0
9, 20820, Note_on_c, 12, 50, 81
9, 20820, Note_on_c, 12, 52, 0
9, 20850, Note_on_c, 12, 48, 78
9, 20853, Note_on_c, 12, 50, 0
9, 20880, Note_on_c, 12, 47, 94
9, 20880, Note_on_c, 12, 48, 0
9, 20910, Note_on_c, 12, 50, 84
9, 20914, Note_on_c, 12, 47, 0
9, 20940, Note_on_c, 12, 55, 93
9, 20967, Note_on_c, 12, 50, 0
9, 20970, Note_on_c, 12, 59, 86
9, 20984, Note_on_c, 12, 55, 0
9, 21000, Note_on_c, 12, 62, 86
9, 21008, Note_on_c, 12, 59, 0
9, 21030, Note_on_c, 12, 59, 76
9, 21034, Note_on_c, 12, 62, 0
9, 21060, Note_on_c, 12, 55, 84
9, 21061, Note_on_c, 12, 59, 0
9, 21090, Note_on_c, 12, 50, 88
9, 21094, Note_on_c, 12, 55, 0
9, 21118, Note_on_c, 12, 50, 0
9, 21120, Note_on_c, 12, 47, 91
9, 21150, Note_on_c, 12, 50, 83
9, 21151, Note_on_c, 12, 47, 0
9, 21180, Note_on_c, 12, 48, 88
9, 21186, Note_on_c, 12, 50, 0
9, 21210, Note_on_c, 12, 47, 76
9, 21216, Note_on_c, 12, 48, 0
9, 21240, Note_on_c, 12, 45, 94
9, 21248, Note_on_c, 12, 47, 0
9, 21273, Note_on_c, 12, 45, 0
9, 21300, Note_on_c, 12, 48, 83
9, 21337, Note_on_c, 12, 48, 0
9, 21360, Note_on_c, 12, 52, 93
9, 21398, Note_on_c, 12, 52, 0
9, 21420, Note_on_c, 12, 55, 93
9, 21450, Note_on_c, 12, 55, 0
9, 21480, Note_on_c, 12, 54, 95
9, 21510, Note_on_c, 12, 54, 0
9, 21540, Note_on_c, 12, 52, 88
9, 21576, Note_on_c, 12, 52, 0
9, 21600, Note_on_c, 12, 50, 98
9, 21632, Note_on_c, 12, 50, 0
9, 21660, Note_on_c, 12, 54, 103
9, 21695, Note_on_c, 12, 54, 0
9, 21720, Note_on_c, 12, 57, 102
9, 21747, Note_on_c, 12, 57, 0
9, 21780, Note_on_c, 12, 60, 104
9, 21823, Note_on_c, 12, 60, 0
9, 21840, Note_on_c, 12, 59, 96
9, 21883, Note_on_c, 12, 59, 0
9, 21900, Note_on_c, 12, 57, 86
9, 21938, Note_on_c, 12, 57, 0
9, 21960, Note_on_c, 12, 55, 89
9, 21997, Note_on_c, 12, 55, 0
9, 22020, Note_on_c, 12, 59, 87
9, 22057, Note_on_c, 12, 59, 0
9, 22080, Note_on_c, 12, 62, 93
9, 22117, Note_on_c, 12, 62, 0
9, 22140, Note_on_c, 12, 65, 90
9, 22177, Note_on_c, 12, 65, 0
9, 22200, Note_on_c, 12, 64, 97
9, 22230, Note_on_c, 12, 64, 0
9, 22260, Note_on_c, 12, 62, 91
9, 22297, Note_on_c, 12, 62, 0
9, 22320, Note_on_c, 12, 60, 96
9, 22357, Note_on_c, 12, 60, 0
9, 22380, Note_on_c, 12, 64, 93
9, 22423, Note_on_c, 12, 64, 0
9, 22440, Note_on_c, 12, 66, 90
9, 22470, Note_on_c, 12, 66, 0
9, 22500, Note_on_c, 12, 68, 90
9, 22537, Note_on_c, 12, 68, 0
9, 22560, Note_on_c, 12, 69, 98
9, 22597, Note_on_c, 12, 69, 0
9, 22620, Note_on_c, 12, 67, 90
9, 22663, Note_on_c, 12, 67, 0
9, 22680, Note_on_c, 12, 66, 107
9, 22712, Note_on_c, 12, 66, 0
9, 22740, Note_on_c, 12, 62, 103
9, 22768, Note_on_c, 12, 62, 0
9, 22800, Note_on_c, 12, 67, 97
9, 22829, Note_on_c, 12, 67, 0
9, 22860, Note_on_c, 12, 55, 103
9, 22890, Note_on_c, 12, 55, 0
9, 22920, Note_on_c, 12, 62, 106
9, 22951, Note_on_c, 12, 62, 0
9, 22980, Note_on_c, 12, 50, 110
9, 23008, Note_on_c, 12, 50, 0
9, 23040, Note_on_c, 12, 55, 113
9, 23070, Note_on_c, 12, 43, 102
9, 23076, Note_on_c, 12, 55, 0
9, 23100, Note_on_c, 12, 45, 103
9, 23106, Note_on_c, 12, 43, 0
9, 23130, Note_on_c, 12, 47, 106
9, 23133, Note_on_c, 12, 45, 0
9, 23160, Note_on_c, 12, 48, 107
9, 23166, Note_on_c, 12, 47, 0
9, 23190, Note_on_c, 12, 50, 109
9, 23193, Note_on_c, 12, 48, 0
9, 23220, Note_on_c, 12, 52, 101
9, 23225, Note_on_c, 12, 50, 0
9, 23250, Note_on_c, 12, 54, 109
9, 23257, Note_on_c, 12, 52, 0
9, 23280, Note_on_c, 12, 55, 111
9, 23285, Note_on_c, 12, 54, 0
9, 23353, Note_on_c, 12, 55, 0
9, 23400, Control_c, 12, 93, 0
9, 23400, End_track
10, 0, Start_track
10, 0, MIDI_port, 0
10, 0, Title_t, "Creative            "
10, 0, End_track
11, 0, Start_track
11, 0, MIDI_port, 0
11, 0, Title_t, "Labs Inc  (c)1994      "
11, 0, End_track
12, 0, Start_track
12, 0, MIDI_port, 0
12, 0, Title_t, "Recorded by Dr.Chew "
12, 0, End_track
13, 0, Start_track
13, 0, MIDI_port, 0
13, 0, Title_t, "Bach                "
13, 0, End_track
14, 0, Start_track
14, 0, MIDI_port, 0
14, 0, Title_t, "Goldberg Variation  "
14, 0, End_track
0, 0, End_of_file
