0, 0, Header, 1, 19, 480
1, 0, Start_track
1, 0, Time_signature, 2, 2, 24, 8
1, 0, Key_signature, 0, "major"
1, 0, Tempo, 300000
1, 960, Tempo, 600000
1, 1920, Tempo, 300000
1, 3840, Tempo, 500000
1, 4800, Tempo, 288461
1, 19680, Tempo, 1666666
1, 20160, Tempo, 285714
1, 22080, Tempo, 666666
1, 23040, Tempo, 285714
1, 33600, Tempo, 283018
1, 37440, Tempo, 280373
1, 41280, Tempo, 277777
1, 55680, Tempo, 288461
1, 64320, Tempo, 283018
1, 68160, Tempo, 277777
1, 119040, Tempo, 300000
1, 120000, Tempo, 600000
1, 120960, Tempo, 300000
1, 122880, Tempo, 500000
1, 123840, Tempo, 283018
1, 138720, Tempo, 1200000
1, 139200, Tempo, 285714
1, 141120, Tempo, 666666
1, 142080, Tempo, 285714
1, 152640, Tempo, 283018
1, 156480, Tempo, 280373
1, 160320, Tempo, 277777
1, 174720, Tempo, 288461
1, 183360, Tempo, 283018
1, 187200, Tempo, 277777
1, 240000, Tempo, 500000
1, 240960, Tempo, 285714
1, 244800, Tempo, 291262
1, 248640, Tempo, 300000
1, 321600, Tempo, 306122
1, 348480, Tempo, 283018
1, 357120, Tempo, 375000
1, 358080, Tempo, 283018
1, 360000, Tempo, 600000
1, 360960, Tempo, 283018
1, 376320, Time_signature, 8, 2, 24, 8
1, 376320, Tempo, 300000
1, 377280, Tempo, 333333
1, 378240, Tempo, 428571
1, 380160, Time_signature, 2, 2, 24, 8
1, 380160, Tempo, 277777
1, 392640, Tempo, 275229
1, 398400, Tempo, 272727
1, 409920, Tempo, 294117
1, 425280, Tempo, 288461
1, 432960, Tempo, 283018
1, 450240, Tempo, 277777
1, 581760, Tempo, 545454
1, 582720, Tempo, 277777
1, 584640, Tempo, 600000
1, 585600, Tempo, 283018
1, 585600, End_track
2, 0, Start_track
2, 0, MIDI_port, 0
2, 0, Title_t, "Flute 1"
2, 0, Program_c, 0, 73
2, 16560, Note_on_c, 0, 91, 91
2, 16800, Note_on_c, 0, 91, 0
2, 16800, Note_on_c, 0, 91, 101
2, 17040, Note_on_c, 0, 91, 0
2, 17040, Note_on_c, 0, 89, 109
2, 17280, Note_on_c, 0, 89, 0
2, 17280, Note_on_c, 0, 87, 115
2, 17760, Note_on_c, 0, 87, 0
2, 18240, Note_on_c, 0, 84, 115
2, 18720, Note_on_c, 0, 84, 0
2, 19200, Note_on_c, 0, 91, 115
2, 19680, Note_on_c, 0, 91, 0
2, 20400, Note_on_c, 0, 80, 123
2, 20640, Note_on_c, 0, 80, 0
2, 20640, Note_on_c, 0, 80, 123
2, 20880, Note_on_c, 0, 80, 0
2, 20880, Note_on_c, 0, 80, 123
2, 21120, Note_on_c, 0, 80, 0
2, 21120, Note_on_c, 0, 77, 123
2, 23040, Note_on_c, 0, 77, 0
2, 36480, Note_on_c, 0, 84, 123
2, 36960, Note_on_c, 0, 84, 0
2, 37440, Note_on_c, 0, 84, 123
2, 37920, Note_on_c, 0, 84, 0
2, 38400, Note_on_c, 0, 84, 123
2, 38880, Note_on_c, 0, 84, 0
2, 39360, Note_on_c, 0, 84, 123
2, 39840, Note_on_c, 0, 84, 0
2, 40320, Note_on_c, 0, 86, 123
2, 40800, Note_on_c, 0, 86, 0
2, 41280, Note_on_c, 0, 87, 115
2, 45120, Note_on_c, 0, 87, 0
2, 45120, Note_on_c, 0, 89, 115
2, 48480, Note_on_c, 0, 89, 0
2, 48480, Note_on_c, 0, 87, 115
2, 48960, Note_on_c, 0, 87, 0
2, 48960, Note_on_c, 0, 87, 123
2, 52800, Note_on_c, 0, 87, 0
2, 52800, Note_on_c, 0, 90, 123
2, 53280, Note_on_c, 0, 90, 0
2, 54720, Note_on_c, 0, 82, 123
2, 55200, Note_on_c, 0, 82, 0
2, 67200, Note_on_c, 0, 82, 91
2, 67680, Note_on_c, 0, 82, 0
2, 67680, Note_on_c, 0, 87, 91
2, 68160, Note_on_c, 0, 87, 0
2, 68160, Note_on_c, 0, 86, 91
2, 68640, Note_on_c, 0, 86, 0
2, 68640, Note_on_c, 0, 87, 91
2, 69120, Note_on_c, 0, 87, 0
2, 69120, Note_on_c, 0, 89, 91
2, 69600, Note_on_c, 0, 89, 0
2, 69600, Note_on_c, 0, 84, 91
2, 70080, Note_on_c, 0, 84, 0
2, 70080, Note_on_c, 0, 84, 91
2, 70560, Note_on_c, 0, 84, 0
2, 70560, Note_on_c, 0, 82, 91
2, 71040, Note_on_c, 0, 82, 0
2, 86400, Note_on_c, 0, 87, 91
2, 86880, Note_on_c, 0, 87, 0
2, 86880, Note_on_c, 0, 89, 91
2, 87360, Note_on_c, 0, 89, 0
2, 87360, Note_on_c, 0, 90, 101
2, 87840, Note_on_c, 0, 90, 0
2, 87840, Note_on_c, 0, 89, 109
2, 88320, Note_on_c, 0, 89, 0
2, 88320, Note_on_c, 0, 90, 115
2, 88800, Note_on_c, 0, 90, 0
2, 88800, Note_on_c, 0, 90, 115
2, 89280, Note_on_c, 0, 90, 0
2, 89280, Note_on_c, 0, 89, 123
2, 90720, Note_on_c, 0, 89, 0
2, 90720, Note_on_c, 0, 89, 123
2, 91200, Note_on_c, 0, 89, 0
2, 91200, Note_on_c, 0, 91, 123
2, 91680, Note_on_c, 0, 91, 0
2, 92160, Note_on_c, 0, 89, 123
2, 92640, Note_on_c, 0, 89, 0
2, 93120, Note_on_c, 0, 87, 123
2, 93600, Note_on_c, 0, 87, 0
2, 94080, Note_on_c, 0, 87, 123
2, 94560, Note_on_c, 0, 87, 0
2, 95040, Note_on_c, 0, 87, 123
2, 95520, Note_on_c, 0, 87, 0
2, 96000, Note_on_c, 0, 86, 123
2, 96480, Note_on_c, 0, 86, 0
2, 96960, Note_on_c, 0, 89, 123
2, 98880, Note_on_c, 0, 89, 0
2, 98880, Note_on_c, 0, 91, 123
2, 99360, Note_on_c, 0, 91, 0
2, 99360, Note_on_c, 0, 91, 123
2, 99840, Note_on_c, 0, 91, 0
2, 100320, Note_on_c, 0, 86, 123
2, 100800, Note_on_c, 0, 86, 0
2, 101280, Note_on_c, 0, 87, 123
2, 101760, Note_on_c, 0, 87, 0
2, 102240, Note_on_c, 0, 87, 123
2, 102720, Note_on_c, 0, 87, 0
2, 103200, Note_on_c, 0, 87, 123
2, 103680, Note_on_c, 0, 87, 0
2, 104160, Note_on_c, 0, 87, 123
2, 104640, Note_on_c, 0, 87, 0
2, 104640, Note_on_c, 0, 87, 123
2, 104880, Note_on_c, 0, 87, 0
2, 104880, Note_on_c, 0, 91, 123
2, 105120, Note_on_c, 0, 91, 0
2, 105120, Note_on_c, 0, 91, 123
2, 105360, Note_on_c, 0, 91, 0
2, 105360, Note_on_c, 0, 91, 123
2, 105600, Note_on_c, 0, 91, 0
2, 105600, Note_on_c, 0, 87, 123
2, 105840, Note_on_c, 0, 87, 0
2, 105840, Note_on_c, 0, 82, 123
2, 106080, Note_on_c, 0, 82, 0
2, 106080, Note_on_c, 0, 82, 123
2, 106320, Note_on_c, 0, 82, 0
2, 106320, Note_on_c, 0, 82, 123
2, 106560, Note_on_c, 0, 82, 0
2, 106560, Note_on_c, 0, 79, 123
2, 106800, Note_on_c, 0, 79, 0
2, 106800, Note_on_c, 0, 75, 123
2, 107040, Note_on_c, 0, 75, 0
2, 107040, Note_on_c, 0, 75, 123
2, 107280, Note_on_c, 0, 75, 0
2, 107280, Note_on_c, 0, 75, 123
2, 107520, Note_on_c, 0, 75, 0
2, 107520, Note_on_c, 0, 70, 123
2, 108720, Note_on_c, 0, 70, 0
2, 108720, Note_on_c, 0, 91, 123
2, 108960, Note_on_c, 0, 91, 0
2, 108960, Note_on_c, 0, 91, 123
2, 109200, Note_on_c, 0, 91, 0
2, 109200, Note_on_c, 0, 91, 123
2, 109440, Note_on_c, 0, 91, 0
2, 109440, Note_on_c, 0, 87, 123
2, 109680, Note_on_c, 0, 87, 0
2, 109680, Note_on_c, 0, 82, 123
2, 109920, Note_on_c, 0, 82, 0
2, 109920, Note_on_c, 0, 82, 123
2, 110160, Note_on_c, 0, 82, 0
2, 110160, Note_on_c, 0, 82, 123
2, 110400, Note_on_c, 0, 82, 0
2, 110400, Note_on_c, 0, 79, 123
2, 110640, Note_on_c, 0, 79, 0
2, 110640, Note_on_c, 0, 75, 123
2, 110880, Note_on_c, 0, 75, 0
2, 110880, Note_on_c, 0, 75, 123
2, 111120, Note_on_c, 0, 75, 0
2, 111120, Note_on_c, 0, 75, 123
2, 111360, Note_on_c, 0, 75, 0
2, 111360, Note_on_c, 0, 70, 123
2, 112800, Note_on_c, 0, 70, 0
2, 113520, Note_on_c, 0, 82, 123
2, 113760, Note_on_c, 0, 82, 0
2, 113760, Note_on_c, 0, 82, 123
2, 114000, Note_on_c, 0, 82, 0
2, 114000, Note_on_c, 0, 82, 123
2, 114240, Note_on_c, 0, 82, 0
2, 114240, Note_on_c, 0, 82, 123
2, 114720, Note_on_c, 0, 82, 0
2, 115440, Note_on_c, 0, 86, 123
2, 115680, Note_on_c, 0, 86, 0
2, 115680, Note_on_c, 0, 86, 123
2, 115920, Note_on_c, 0, 86, 0
2, 115920, Note_on_c, 0, 86, 123
2, 116160, Note_on_c, 0, 86, 0
2, 116160, Note_on_c, 0, 87, 123
2, 116640, Note_on_c, 0, 87, 0
2, 135600, Note_on_c, 0, 91, 91
2, 135840, Note_on_c, 0, 91, 0
2, 135840, Note_on_c, 0, 91, 101
2, 136080, Note_on_c, 0, 91, 0
2, 136080, Note_on_c, 0, 89, 109
2, 136320, Note_on_c, 0, 89, 0
2, 136320, Note_on_c, 0, 87, 115
2, 136800, Note_on_c, 0, 87, 0
2, 137280, Note_on_c, 0, 84, 115
2, 137760, Note_on_c, 0, 84, 0
2, 138240, Note_on_c, 0, 91, 115
2, 138720, Note_on_c, 0, 91, 0
2, 139440, Note_on_c, 0, 80, 123
2, 139680, Note_on_c, 0, 80, 0
2, 139680, Note_on_c, 0, 80, 123
2, 139920, Note_on_c, 0, 80, 0
2, 139920, Note_on_c, 0, 80, 123
2, 140160, Note_on_c, 0, 80, 0
2, 140160, Note_on_c, 0, 77, 123
2, 142080, Note_on_c, 0, 77, 0
2, 155520, Note_on_c, 0, 84, 123
2, 156000, Note_on_c, 0, 84, 0
2, 156480, Note_on_c, 0, 84, 123
2, 156960, Note_on_c, 0, 84, 0
2, 157440, Note_on_c, 0, 84, 123
2, 157920, Note_on_c, 0, 84, 0
2, 158400, Note_on_c, 0, 84, 123
2, 158880, Note_on_c, 0, 84, 0
2, 159360, Note_on_c, 0, 86, 123
2, 159840, Note_on_c, 0, 86, 0
2, 160320, Note_on_c, 0, 87, 115
2, 164160, Note_on_c, 0, 87, 0
2, 164160, Note_on_c, 0, 89, 115
2, 167520, Note_on_c, 0, 89, 0
2, 167520, Note_on_c, 0, 87, 115
2, 168000, Note_on_c, 0, 87, 0
2, 168000, Note_on_c, 0, 87, 123
2, 171840, Note_on_c, 0, 87, 0
2, 171840, Note_on_c, 0, 90, 123
2, 172320, Note_on_c, 0, 90, 0
2, 173760, Note_on_c, 0, 82, 123
2, 174240, Note_on_c, 0, 82, 0
2, 186240, Note_on_c, 0, 82, 91
2, 186720, Note_on_c, 0, 82, 0
2, 186720, Note_on_c, 0, 87, 91
2, 187200, Note_on_c, 0, 87, 0
2, 187200, Note_on_c, 0, 86, 91
2, 187680, Note_on_c, 0, 86, 0
2, 187680, Note_on_c, 0, 87, 91
2, 188160, Note_on_c, 0, 87, 0
2, 188160, Note_on_c, 0, 89, 91
2, 188640, Note_on_c, 0, 89, 0
2, 188640, Note_on_c, 0, 84, 91
2, 189120, Note_on_c, 0, 84, 0
2, 189120, Note_on_c, 0, 84, 91
2, 189600, Note_on_c, 0, 84, 0
2, 189600, Note_on_c, 0, 82, 91
2, 190080, Note_on_c, 0, 82, 0
2, 205440, Note_on_c, 0, 87, 91
2, 205920, Note_on_c, 0, 87, 0
2, 205920, Note_on_c, 0, 89, 91
2, 206400, Note_on_c, 0, 89, 0
2, 206400, Note_on_c, 0, 90, 101
2, 206880, Note_on_c, 0, 90, 0
2, 206880, Note_on_c, 0, 89, 109
2, 207360, Note_on_c, 0, 89, 0
2, 207360, Note_on_c, 0, 90, 115
2, 207840, Note_on_c, 0, 90, 0
2, 207840, Note_on_c, 0, 90, 115
2, 208320, Note_on_c, 0, 90, 0
2, 208320, Note_on_c, 0, 89, 123
2, 209760, Note_on_c, 0, 89, 0
2, 209760, Note_on_c, 0, 89, 123
2, 210240, Note_on_c, 0, 89, 0
2, 210240, Note_on_c, 0, 91, 123
2, 210720, Note_on_c, 0, 91, 0
2, 211200, Note_on_c, 0, 89, 123
2, 211680, Note_on_c, 0, 89, 0
2, 212160, Note_on_c, 0, 87, 123
2, 212640, Note_on_c, 0, 87, 0
2, 213120, Note_on_c, 0, 87, 123
2, 213600, Note_on_c, 0, 87, 0
2, 214080, Note_on_c, 0, 87, 123
2, 214560, Note_on_c, 0, 87, 0
2, 215040, Note_on_c, 0, 86, 123
2, 215520, Note_on_c, 0, 86, 0
2, 216000, Note_on_c, 0, 89, 123
2, 217920, Note_on_c, 0, 89, 0
2, 217920, Note_on_c, 0, 91, 123
2, 218400, Note_on_c, 0, 91, 0
2, 218400, Note_on_c, 0, 91, 123
2, 218880, Note_on_c, 0, 91, 0
2, 219360, Note_on_c, 0, 86, 123
2, 219840, Note_on_c, 0, 86, 0
2, 220320, Note_on_c, 0, 87, 123
2, 220800, Note_on_c, 0, 87, 0
2, 221280, Note_on_c, 0, 87, 123
2, 221760, Note_on_c, 0, 87, 0
2, 222240, Note_on_c, 0, 87, 123
2, 222720, Note_on_c, 0, 87, 0
2, 223200, Note_on_c, 0, 87, 123
2, 223680, Note_on_c, 0, 87, 0
2, 223680, Note_on_c, 0, 87, 123
2, 223920, Note_on_c, 0, 87, 0
2, 223920, Note_on_c, 0, 91, 123
2, 224160, Note_on_c, 0, 91, 0
2, 224160, Note_on_c, 0, 91, 123
2, 224400, Note_on_c, 0, 91, 0
2, 224400, Note_on_c, 0, 91, 123
2, 224640, Note_on_c, 0, 91, 0
2, 224640, Note_on_c, 0, 87, 123
2, 224880, Note_on_c, 0, 87, 0
2, 224880, Note_on_c, 0, 82, 123
2, 225120, Note_on_c, 0, 82, 0
2, 225120, Note_on_c, 0, 82, 123
2, 225360, Note_on_c, 0, 82, 0
2, 225360, Note_on_c, 0, 82, 123
2, 225600, Note_on_c, 0, 82, 0
2, 225600, Note_on_c, 0, 79, 123
2, 225840, Note_on_c, 0, 79, 0
2, 225840, Note_on_c, 0, 75, 123
2, 226080, Note_on_c, 0, 75, 0
2, 226080, Note_on_c, 0, 75, 123
2, 226320, Note_on_c, 0, 75, 0
2, 226320, Note_on_c, 0, 75, 123
2, 226560, Note_on_c, 0, 75, 0
2, 226560, Note_on_c, 0, 70, 123
2, 227760, Note_on_c, 0, 70, 0
2, 227760, Note_on_c, 0, 91, 123
2, 228000, Note_on_c, 0, 91, 0
2, 228000, Note_on_c, 0, 91, 123
2, 228240, Note_on_c, 0, 91, 0
2, 228240, Note_on_c, 0, 91, 123
2, 228480, Note_on_c, 0, 91, 0
2, 228480, Note_on_c, 0, 87, 123
2, 228720, Note_on_c, 0, 87, 0
2, 228720, Note_on_c, 0, 82, 123
2, 228960, Note_on_c, 0, 82, 0
2, 228960, Note_on_c, 0, 82, 123
2, 229200, Note_on_c, 0, 82, 0
2, 229200, Note_on_c, 0, 82, 123
2, 229440, Note_on_c, 0, 82, 0
2, 229440, Note_on_c, 0, 79, 123
2, 229680, Note_on_c, 0, 79, 0
2, 229680, Note_on_c, 0, 75, 123
2, 229920, Note_on_c, 0, 75, 0
2, 229920, Note_on_c, 0, 75, 123
2, 230160, Note_on_c, 0, 75, 0
2, 230160, Note_on_c, 0, 75, 123
2, 230400, Note_on_c, 0, 75, 0
2, 230400, Note_on_c, 0, 70, 123
2, 231840, Note_on_c, 0, 70, 0
2, 232560, Note_on_c, 0, 82, 123
2, 232800, Note_on_c, 0, 82, 0
2, 232800, Note_on_c, 0, 82, 123
2, 233040, Note_on_c, 0, 82, 0
2, 233040, Note_on_c, 0, 82, 123
2, 233280, Note_on_c, 0, 82, 0
2, 233280, Note_on_c, 0, 82, 123
2, 233760, Note_on_c, 0, 82, 0
2, 234480, Note_on_c, 0, 86, 123
2, 234720, Note_on_c, 0, 86, 0
2, 234720, Note_on_c, 0, 86, 123
2, 234960, Note_on_c, 0, 86, 0
2, 234960, Note_on_c, 0, 86, 123
2, 235200, Note_on_c, 0, 86, 0
2, 235200, Note_on_c, 0, 87, 123
2, 235680, Note_on_c, 0, 87, 0
2, 265200, Note_on_c, 0, 86, 91
2, 265440, Note_on_c, 0, 86, 0
2, 265440, Note_on_c, 0, 86, 91
2, 265680, Note_on_c, 0, 86, 0
2, 265680, Note_on_c, 0, 84, 91
2, 265920, Note_on_c, 0, 84, 0
2, 265920, Note_on_c, 0, 82, 91
2, 266880, Note_on_c, 0, 82, 0
2, 266880, Note_on_c, 0, 81, 91
2, 267120, Note_on_c, 0, 81, 0
2, 267120, Note_on_c, 0, 86, 91
2, 267360, Note_on_c, 0, 86, 0
2, 267360, Note_on_c, 0, 86, 91
2, 267600, Note_on_c, 0, 86, 0
2, 267600, Note_on_c, 0, 84, 91
2, 267840, Note_on_c, 0, 84, 0
2, 267840, Note_on_c, 0, 82, 91
2, 268800, Note_on_c, 0, 82, 0
2, 268800, Note_on_c, 0, 81, 91
2, 269760, Note_on_c, 0, 81, 0
2, 269760, Note_on_c, 0, 82, 91
2, 270960, Note_on_c, 0, 82, 0
2, 270960, Note_on_c, 0, 79, 91
2, 271200, Note_on_c, 0, 79, 0
2, 271200, Note_on_c, 0, 81, 91
2, 271440, Note_on_c, 0, 81, 0
2, 271440, Note_on_c, 0, 82, 91
2, 271680, Note_on_c, 0, 82, 0
2, 271680, Note_on_c, 0, 84, 91
2, 272160, Note_on_c, 0, 84, 0
2, 272880, Note_on_c, 0, 78, 91
2, 273120, Note_on_c, 0, 78, 0
2, 273120, Note_on_c, 0, 81, 91
2, 273360, Note_on_c, 0, 81, 0
2, 273360, Note_on_c, 0, 82, 91
2, 273600, Note_on_c, 0, 82, 0
2, 273600, Note_on_c, 0, 84, 91
2, 274080, Note_on_c, 0, 84, 0
2, 274800, Note_on_c, 0, 81, 91
2, 275040, Note_on_c, 0, 81, 0
2, 275040, Note_on_c, 0, 82, 91
2, 275280, Note_on_c, 0, 82, 0
2, 275280, Note_on_c, 0, 84, 91
2, 275520, Note_on_c, 0, 84, 0
2, 275520, Note_on_c, 0, 86, 91
2, 276000, Note_on_c, 0, 86, 0
2, 276720, Note_on_c, 0, 79, 91
2, 276960, Note_on_c, 0, 79, 0
2, 276960, Note_on_c, 0, 82, 91
2, 277200, Note_on_c, 0, 82, 0
2, 277200, Note_on_c, 0, 84, 91
2, 277440, Note_on_c, 0, 84, 0
2, 277440, Note_on_c, 0, 86, 91
2, 277920, Note_on_c, 0, 86, 0
2, 278640, Note_on_c, 0, 82, 91
2, 278880, Note_on_c, 0, 82, 0
2, 278880, Note_on_c, 0, 84, 101
2, 279120, Note_on_c, 0, 84, 0
2, 279120, Note_on_c, 0, 86, 109
2, 279360, Note_on_c, 0, 86, 0
2, 279360, Note_on_c, 0, 87, 115
2, 281280, Note_on_c, 0, 87, 0
2, 281280, Note_on_c, 0, 87, 115
2, 281760, Note_on_c, 0, 87, 0
2, 282480, Note_on_c, 0, 88, 115
2, 282720, Note_on_c, 0, 88, 0
2, 282720, Note_on_c, 0, 88, 115
2, 282960, Note_on_c, 0, 88, 0
2, 282960, Note_on_c, 0, 88, 115
2, 283200, Note_on_c, 0, 88, 0
2, 283200, Note_on_c, 0, 88, 115
2, 285120, Note_on_c, 0, 88, 0
2, 285120, Note_on_c, 0, 88, 115
2, 285600, Note_on_c, 0, 88, 0
2, 286320, Note_on_c, 0, 86, 115
2, 286560, Note_on_c, 0, 86, 0
2, 286560, Note_on_c, 0, 86, 115
2, 286800, Note_on_c, 0, 86, 0
2, 286800, Note_on_c, 0, 86, 115
2, 287040, Note_on_c, 0, 86, 0
2, 287040, Note_on_c, 0, 86, 115
2, 287520, Note_on_c, 0, 86, 0
2, 288480, Note_on_c, 0, 85, 115
2, 288720, Note_on_c, 0, 85, 0
2, 288720, Note_on_c, 0, 85, 115
2, 288960, Note_on_c, 0, 85, 0
2, 288960, Note_on_c, 0, 85, 115
2, 289440, Note_on_c, 0, 85, 0
2, 289440, Note_on_c, 0, 86, 115
2, 289680, Note_on_c, 0, 86, 0
2, 289680, Note_on_c, 0, 86, 115
2, 289920, Note_on_c, 0, 86, 0
2, 289920, Note_on_c, 0, 86, 115
2, 290400, Note_on_c, 0, 86, 0
2, 297120, Note_on_c, 0, 86, 115
2, 297360, Note_on_c, 0, 86, 0
2, 297360, Note_on_c, 0, 86, 115
2, 297600, Note_on_c, 0, 86, 0
2, 297600, Note_on_c, 0, 91, 115
2, 298080, Note_on_c, 0, 91, 0
2, 304800, Note_on_c, 0, 86, 115
2, 305040, Note_on_c, 0, 86, 0
2, 305040, Note_on_c, 0, 86, 115
2, 305280, Note_on_c, 0, 86, 0
2, 305280, Note_on_c, 0, 88, 115
2, 305520, Note_on_c, 0, 88, 0
2, 305520, Note_on_c, 0, 84, 123
2, 305760, Note_on_c, 0, 84, 0
2, 305760, Note_on_c, 0, 84, 123
2, 306000, Note_on_c, 0, 84, 0
2, 306000, Note_on_c, 0, 84, 123
2, 306240, Note_on_c, 0, 84, 0
2, 306240, Note_on_c, 0, 77, 123
2, 307200, Note_on_c, 0, 77, 0
2, 307200, Note_on_c, 0, 79, 123
2, 308160, Note_on_c, 0, 79, 0
2, 310080, Note_on_c, 0, 77, 123
2, 311040, Note_on_c, 0, 77, 0
2, 311040, Note_on_c, 0, 79, 123
2, 312000, Note_on_c, 0, 79, 0
2, 313920, Note_on_c, 0, 77, 123
2, 314880, Note_on_c, 0, 77, 0
2, 314880, Note_on_c, 0, 78, 123
2, 315840, Note_on_c, 0, 78, 0
2, 317760, Note_on_c, 0, 81, 123
2, 318720, Note_on_c, 0, 81, 0
2, 318720, Note_on_c, 0, 82, 123
2, 319680, Note_on_c, 0, 82, 0
2, 320640, Note_on_c, 0, 83, 115
2, 321600, Note_on_c, 0, 83, 0
2, 322560, Note_on_c, 0, 85, 109
2, 323520, Note_on_c, 0, 85, 0
2, 324480, Note_on_c, 0, 85, 101
2, 325440, Note_on_c, 0, 85, 0
2, 326400, Note_on_c, 0, 85, 91
2, 327360, Note_on_c, 0, 85, 0
2, 328320, Note_on_c, 0, 85, 91
2, 329280, Note_on_c, 0, 85, 0
2, 330240, Note_on_c, 0, 86, 78
2, 331200, Note_on_c, 0, 86, 0
2, 332160, Note_on_c, 0, 86, 78
2, 333120, Note_on_c, 0, 86, 0
2, 334080, Note_on_c, 0, 86, 78
2, 335040, Note_on_c, 0, 86, 0
2, 336000, Note_on_c, 0, 86, 78
2, 336960, Note_on_c, 0, 86, 0
2, 337200, Note_on_c, 0, 86, 123
2, 337440, Note_on_c, 0, 86, 0
2, 337440, Note_on_c, 0, 86, 123
2, 337680, Note_on_c, 0, 86, 0
2, 337680, Note_on_c, 0, 86, 123
2, 337920, Note_on_c, 0, 86, 0
2, 337920, Note_on_c, 0, 86, 123
2, 338880, Note_on_c, 0, 86, 0
2, 338880, Note_on_c, 0, 86, 123
2, 339840, Note_on_c, 0, 86, 0
2, 339840, Note_on_c, 0, 86, 123
2, 340800, Note_on_c, 0, 86, 0
2, 340800, Note_on_c, 0, 86, 123
2, 341760, Note_on_c, 0, 86, 0
2, 341760, Note_on_c, 0, 86, 78
2, 342720, Note_on_c, 0, 86, 0
2, 343680, Note_on_c, 0, 86, 78
2, 344640, Note_on_c, 0, 86, 0
2, 345600, Note_on_c, 0, 86, 78
2, 346560, Note_on_c, 0, 86, 0
2, 347520, Note_on_c, 0, 86, 78
2, 348480, Note_on_c, 0, 86, 0
2, 349680, Note_on_c, 0, 92, 123
2, 349920, Note_on_c, 0, 92, 0
2, 349920, Note_on_c, 0, 92, 123
2, 350160, Note_on_c, 0, 92, 0
2, 350160, Note_on_c, 0, 92, 123
2, 350400, Note_on_c, 0, 92, 0
2, 350400, Note_on_c, 0, 89, 123
2, 351600, Note_on_c, 0, 89, 0
2, 351600, Note_on_c, 0, 92, 123
2, 351840, Note_on_c, 0, 92, 0
2, 351840, Note_on_c, 0, 92, 123
2, 352080, Note_on_c, 0, 92, 0
2, 352080, Note_on_c, 0, 92, 123
2, 352320, Note_on_c, 0, 92, 0
2, 352320, Note_on_c, 0, 89, 123
2, 353520, Note_on_c, 0, 89, 0
2, 353520, Note_on_c, 0, 92, 123
2, 353760, Note_on_c, 0, 92, 0
2, 353760, Note_on_c, 0, 92, 123
2, 354000, Note_on_c, 0, 92, 0
2, 354000, Note_on_c, 0, 92, 123
2, 354240, Note_on_c, 0, 92, 0
2, 354240, Note_on_c, 0, 89, 123
2, 354480, Note_on_c, 0, 89, 0
2, 354480, Note_on_c, 0, 92, 123
2, 354720, Note_on_c, 0, 92, 0
2, 354720, Note_on_c, 0, 92, 123
2, 354960, Note_on_c, 0, 92, 0
2, 354960, Note_on_c, 0, 92, 123
2, 355200, Note_on_c, 0, 92, 0
2, 355200, Note_on_c, 0, 89, 123
2, 355440, Note_on_c, 0, 89, 0
2, 355440, Note_on_c, 0, 92, 123
2, 355680, Note_on_c, 0, 92, 0
2, 355680, Note_on_c, 0, 92, 123
2, 355920, Note_on_c, 0, 92, 0
2, 355920, Note_on_c, 0, 92, 123
2, 356160, Note_on_c, 0, 92, 0
2, 356160, Note_on_c, 0, 89, 123
2, 356400, Note_on_c, 0, 89, 0
2, 356400, Note_on_c, 0, 91, 123
2, 356640, Note_on_c, 0, 91, 0
2, 356640, Note_on_c, 0, 91, 123
2, 356880, Note_on_c, 0, 91, 0
2, 356880, Note_on_c, 0, 91, 123
2, 357120, Note_on_c, 0, 91, 0
2, 357120, Note_on_c, 0, 91, 123
2, 358080, Note_on_c, 0, 91, 0
2, 358320, Note_on_c, 0, 91, 123
2, 358560, Note_on_c, 0, 91, 0
2, 358560, Note_on_c, 0, 91, 123
2, 358800, Note_on_c, 0, 91, 0
2, 358800, Note_on_c, 0, 91, 123
2, 359040, Note_on_c, 0, 91, 0
2, 359040, Note_on_c, 0, 91, 123
2, 360960, Note_on_c, 0, 91, 0
2, 367680, Note_on_c, 0, 65, 91
2, 369600, Note_on_c, 0, 65, 0
2, 369600, Note_on_c, 0, 63, 91
2, 370080, Note_on_c, 0, 63, 0
2, 374400, Note_on_c, 0, 84, 91
2, 375360, Note_on_c, 0, 84, 0
2, 375360, Note_on_c, 0, 83, 115
2, 375840, Note_on_c, 0, 83, 0
2, 393600, Note_on_c, 0, 84, 115
2, 394080, Note_on_c, 0, 84, 0
2, 394560, Note_on_c, 0, 84, 115
2, 395040, Note_on_c, 0, 84, 0
2, 395520, Note_on_c, 0, 84, 115
2, 396000, Note_on_c, 0, 84, 0
2, 396480, Note_on_c, 0, 84, 115
2, 396960, Note_on_c, 0, 84, 0
2, 397440, Note_on_c, 0, 86, 115
2, 397920, Note_on_c, 0, 86, 0
2, 398400, Note_on_c, 0, 87, 115
2, 402240, Note_on_c, 0, 87, 0
2, 402240, Note_on_c, 0, 89, 115
2, 405600, Note_on_c, 0, 89, 0
2, 405600, Note_on_c, 0, 87, 115
2, 406080, Note_on_c, 0, 87, 0
2, 406080, Note_on_c, 0, 90, 123
2, 409920, Note_on_c, 0, 90, 0
2, 409920, Note_on_c, 0, 90, 123
2, 410400, Note_on_c, 0, 90, 0
2, 411840, Note_on_c, 0, 91, 123
2, 412320, Note_on_c, 0, 91, 0
2, 420480, Note_on_c, 0, 79, 91
2, 420960, Note_on_c, 0, 79, 0
2, 420960, Note_on_c, 0, 84, 91
2, 421440, Note_on_c, 0, 84, 0
2, 421440, Note_on_c, 0, 83, 91
2, 421920, Note_on_c, 0, 83, 0
2, 421920, Note_on_c, 0, 84, 91
2, 422400, Note_on_c, 0, 84, 0
2, 422400, Note_on_c, 0, 86, 91
2, 422880, Note_on_c, 0, 86, 0
2, 422880, Note_on_c, 0, 81, 91
2, 423360, Note_on_c, 0, 81, 0
2, 423360, Note_on_c, 0, 81, 91
2, 423840, Note_on_c, 0, 81, 0
2, 423840, Note_on_c, 0, 79, 91
2, 424320, Note_on_c, 0, 79, 0
2, 428160, Note_on_c, 0, 79, 91
2, 428640, Note_on_c, 0, 79, 0
2, 428640, Note_on_c, 0, 84, 91
2, 429120, Note_on_c, 0, 84, 0
2, 429120, Note_on_c, 0, 83, 91
2, 429600, Note_on_c, 0, 83, 0
2, 429600, Note_on_c, 0, 84, 91
2, 430080, Note_on_c, 0, 84, 0
2, 430080, Note_on_c, 0, 86, 91
2, 430560, Note_on_c, 0, 86, 0
2, 430560, Note_on_c, 0, 81, 91
2, 431040, Note_on_c, 0, 81, 0
2, 431040, Note_on_c, 0, 81, 91
2, 431520, Note_on_c, 0, 81, 0
2, 431520, Note_on_c, 0, 79, 91
2, 432000, Note_on_c, 0, 79, 0
2, 433920, Note_on_c, 0, 82, 91
2, 434400, Note_on_c, 0, 82, 0
2, 434400, Note_on_c, 0, 84, 91
2, 434880, Note_on_c, 0, 84, 0
2, 434880, Note_on_c, 0, 82, 91
2, 435360, Note_on_c, 0, 82, 0
2, 435360, Note_on_c, 0, 81, 91
2, 435840, Note_on_c, 0, 81, 0
2, 437760, Note_on_c, 0, 84, 91
2, 438240, Note_on_c, 0, 84, 0
2, 438240, Note_on_c, 0, 86, 91
2, 438720, Note_on_c, 0, 86, 0
2, 438720, Note_on_c, 0, 84, 91
2, 439200, Note_on_c, 0, 84, 0
2, 439200, Note_on_c, 0, 83, 91
2, 439680, Note_on_c, 0, 83, 0
2, 446400, Note_on_c, 0, 92, 91
2, 446880, Note_on_c, 0, 92, 0
2, 446880, Note_on_c, 0, 91, 91
2, 447360, Note_on_c, 0, 91, 0
2, 447360, Note_on_c, 0, 90, 91
2, 447840, Note_on_c, 0, 90, 0
2, 447840, Note_on_c, 0, 91, 91
2, 448320, Note_on_c, 0, 91, 0
2, 448320, Note_on_c, 0, 93, 101
2, 448800, Note_on_c, 0, 93, 0
2, 448800, Note_on_c, 0, 91, 101
2, 449280, Note_on_c, 0, 91, 0
2, 449280, Note_on_c, 0, 90, 101
2, 449760, Note_on_c, 0, 90, 0
2, 449760, Note_on_c, 0, 91, 101
2, 450240, Note_on_c, 0, 91, 0
2, 450240, Note_on_c, 0, 93, 109
2, 450720, Note_on_c, 0, 93, 0
2, 450720, Note_on_c, 0, 91, 109
2, 451200, Note_on_c, 0, 91, 0
2, 451200, Note_on_c, 0, 90, 109
2, 451680, Note_on_c, 0, 90, 0
2, 451680, Note_on_c, 0, 91, 109
2, 452160, Note_on_c, 0, 91, 0
2, 452160, Note_on_c, 0, 90, 115
2, 452640, Note_on_c, 0, 90, 0
2, 452640, Note_on_c, 0, 91, 115
2, 453120, Note_on_c, 0, 91, 0
2, 453120, Note_on_c, 0, 90, 115
2, 453600, Note_on_c, 0, 90, 0
2, 453600, Note_on_c, 0, 91, 115
2, 454080, Note_on_c, 0, 91, 0
2, 454080, Note_on_c, 0, 91, 123
2, 455520, Note_on_c, 0, 91, 0
2, 455520, Note_on_c, 0, 91, 123
2, 456000, Note_on_c, 0, 91, 0
2, 456000, Note_on_c, 0, 91, 123
2, 456480, Note_on_c, 0, 91, 0
2, 456960, Note_on_c, 0, 91, 123
2, 457440, Note_on_c, 0, 91, 0
2, 457920, Note_on_c, 0, 91, 123
2, 458400, Note_on_c, 0, 91, 0
2, 458880, Note_on_c, 0, 93, 123
2, 459360, Note_on_c, 0, 93, 0
2, 459840, Note_on_c, 0, 91, 123
2, 460320, Note_on_c, 0, 91, 0
2, 460800, Note_on_c, 0, 91, 123
2, 461040, Note_on_c, 0, 91, 0
2, 461040, Note_on_c, 0, 90, 123
2, 461280, Note_on_c, 0, 90, 0
2, 461280, Note_on_c, 0, 91, 123
2, 461520, Note_on_c, 0, 91, 0
2, 461520, Note_on_c, 0, 90, 123
2, 461760, Note_on_c, 0, 90, 0
2, 461760, Note_on_c, 0, 91, 123
2, 463680, Note_on_c, 0, 91, 0
2, 463680, Note_on_c, 0, 91, 123
2, 464160, Note_on_c, 0, 91, 0
2, 464160, Note_on_c, 0, 91, 123
2, 464640, Note_on_c, 0, 91, 0
2, 465120, Note_on_c, 0, 91, 123
2, 465600, Note_on_c, 0, 91, 0
2, 466080, Note_on_c, 0, 91, 123
2, 466560, Note_on_c, 0, 91, 0
2, 467040, Note_on_c, 0, 89, 123
2, 467520, Note_on_c, 0, 89, 0
2, 468000, Note_on_c, 0, 91, 123
2, 468480, Note_on_c, 0, 91, 0
2, 468960, Note_on_c, 0, 91, 123
2, 469440, Note_on_c, 0, 91, 0
2, 469440, Note_on_c, 0, 84, 123
2, 469680, Note_on_c, 0, 84, 0
2, 469680, Note_on_c, 0, 88, 123
2, 469920, Note_on_c, 0, 88, 0
2, 469920, Note_on_c, 0, 88, 123
2, 470160, Note_on_c, 0, 88, 0
2, 470160, Note_on_c, 0, 88, 123
2, 470400, Note_on_c, 0, 88, 0
2, 470400, Note_on_c, 0, 84, 123
2, 470640, Note_on_c, 0, 84, 0
2, 470640, Note_on_c, 0, 79, 123
2, 470880, Note_on_c, 0, 79, 0
2, 470880, Note_on_c, 0, 79, 123
2, 471120, Note_on_c, 0, 79, 0
2, 471120, Note_on_c, 0, 79, 123
2, 471360, Note_on_c, 0, 79, 0
2, 471360, Note_on_c, 0, 76, 123
2, 471600, Note_on_c, 0, 76, 0
2, 471600, Note_on_c, 0, 72, 123
2, 471840, Note_on_c, 0, 72, 0
2, 471840, Note_on_c, 0, 72, 123
2, 472080, Note_on_c, 0, 72, 0
2, 472080, Note_on_c, 0, 72, 123
2, 472320, Note_on_c, 0, 72, 0
2, 472320, Note_on_c, 0, 67, 123
2, 473520, Note_on_c, 0, 67, 0
2, 473520, Note_on_c, 0, 88, 123
2, 473760, Note_on_c, 0, 88, 0
2, 473760, Note_on_c, 0, 88, 123
2, 474000, Note_on_c, 0, 88, 0
2, 474000, Note_on_c, 0, 88, 123
2, 474240, Note_on_c, 0, 88, 0
2, 474240, Note_on_c, 0, 84, 123
2, 474480, Note_on_c, 0, 84, 0
2, 474480, Note_on_c, 0, 79, 123
2, 474720, Note_on_c, 0, 79, 0
2, 474720, Note_on_c, 0, 79, 123
2, 474960, Note_on_c, 0, 79, 0
2, 474960, Note_on_c, 0, 79, 123
2, 475200, Note_on_c, 0, 79, 0
2, 475200, Note_on_c, 0, 76, 123
2, 475440, Note_on_c, 0, 76, 0
2, 475440, Note_on_c, 0, 72, 123
2, 475680, Note_on_c, 0, 72, 0
2, 475680, Note_on_c, 0, 72, 123
2, 475920, Note_on_c, 0, 72, 0
2, 475920, Note_on_c, 0, 72, 123
2, 476160, Note_on_c, 0, 72, 0
2, 476160, Note_on_c, 0, 67, 123
2, 476400, Note_on_c, 0, 67, 0
2, 476400, Note_on_c, 0, 79, 123
2, 476640, Note_on_c, 0, 79, 0
2, 476640, Note_on_c, 0, 79, 123
2, 476880, Note_on_c, 0, 79, 0
2, 476880, Note_on_c, 0, 79, 123
2, 477120, Note_on_c, 0, 79, 0
2, 477120, Note_on_c, 0, 79, 123
2, 477600, Note_on_c, 0, 79, 0
2, 478320, Note_on_c, 0, 79, 123
2, 478560, Note_on_c, 0, 79, 0
2, 478560, Note_on_c, 0, 79, 123
2, 478800, Note_on_c, 0, 79, 0
2, 478800, Note_on_c, 0, 79, 123
2, 479040, Note_on_c, 0, 79, 0
2, 479040, Note_on_c, 0, 79, 123
2, 479520, Note_on_c, 0, 79, 0
2, 480240, Note_on_c, 0, 83, 123
2, 480480, Note_on_c, 0, 83, 0
2, 480480, Note_on_c, 0, 83, 123
2, 480720, Note_on_c, 0, 83, 0
2, 480720, Note_on_c, 0, 83, 123
2, 480960, Note_on_c, 0, 83, 0
2, 480960, Note_on_c, 0, 84, 123
2, 481200, Note_on_c, 0, 84, 0
2, 481200, Note_on_c, 0, 84, 123
2, 481440, Note_on_c, 0, 84, 0
2, 481440, Note_on_c, 0, 84, 123
2, 481680, Note_on_c, 0, 84, 0
2, 481680, Note_on_c, 0, 84, 123
2, 481920, Note_on_c, 0, 84, 0
2, 481920, Note_on_c, 0, 84, 123
2, 483120, Note_on_c, 0, 84, 0
2, 483120, Note_on_c, 0, 84, 123
2, 483360, Note_on_c, 0, 84, 0
2, 483360, Note_on_c, 0, 84, 123
2, 483600, Note_on_c, 0, 84, 0
2, 483600, Note_on_c, 0, 84, 123
2, 483840, Note_on_c, 0, 84, 0
2, 483840, Note_on_c, 0, 84, 123
2, 485040, Note_on_c, 0, 84, 0
2, 485040, Note_on_c, 0, 84, 123
2, 485280, Note_on_c, 0, 84, 0
2, 485280, Note_on_c, 0, 84, 123
2, 485520, Note_on_c, 0, 84, 0
2, 485520, Note_on_c, 0, 84, 123
2, 485760, Note_on_c, 0, 84, 0
2, 485760, Note_on_c, 0, 84, 123
2, 486960, Note_on_c, 0, 84, 0
2, 486960, Note_on_c, 0, 84, 123
2, 487200, Note_on_c, 0, 84, 0
2, 487200, Note_on_c, 0, 84, 123
2, 487440, Note_on_c, 0, 84, 0
2, 487440, Note_on_c, 0, 84, 123
2, 487680, Note_on_c, 0, 84, 0
2, 487680, Note_on_c, 0, 84, 123
2, 488640, Note_on_c, 0, 84, 0
2, 488640, Note_on_c, 0, 85, 123
2, 492480, Note_on_c, 0, 85, 0
2, 492480, Note_on_c, 0, 85, 123
2, 492960, Note_on_c, 0, 85, 0
2, 496560, Note_on_c, 0, 87, 123
2, 496800, Note_on_c, 0, 87, 0
2, 496800, Note_on_c, 0, 87, 123
2, 497040, Note_on_c, 0, 87, 0
2, 497040, Note_on_c, 0, 87, 123
2, 497280, Note_on_c, 0, 87, 0
2, 497280, Note_on_c, 0, 87, 123
2, 501120, Note_on_c, 0, 87, 0
2, 501120, Note_on_c, 0, 87, 123
2, 501600, Note_on_c, 0, 87, 0
2, 502320, Note_on_c, 0, 84, 123
2, 502560, Note_on_c, 0, 84, 0
2, 502560, Note_on_c, 0, 84, 123
2, 502800, Note_on_c, 0, 84, 0
2, 502800, Note_on_c, 0, 84, 123
2, 503040, Note_on_c, 0, 84, 0
2, 503040, Note_on_c, 0, 87, 123
2, 503520, Note_on_c, 0, 87, 0
2, 506880, Note_on_c, 0, 89, 115
2, 508800, Note_on_c, 0, 89, 0
2, 510720, Note_on_c, 0, 89, 115
2, 512640, Note_on_c, 0, 89, 0
2, 514560, Note_on_c, 0, 87, 115
2, 515040, Note_on_c, 0, 87, 0
2, 515040, Note_on_c, 0, 89, 115
2, 515520, Note_on_c, 0, 89, 0
2, 515520, Note_on_c, 0, 86, 115
2, 516000, Note_on_c, 0, 86, 0
2, 516000, Note_on_c, 0, 87, 115
2, 516480, Note_on_c, 0, 87, 0
2, 516480, Note_on_c, 0, 84, 115
2, 516960, Note_on_c, 0, 84, 0
2, 516960, Note_on_c, 0, 86, 115
2, 517440, Note_on_c, 0, 86, 0
2, 517440, Note_on_c, 0, 82, 115
2, 517920, Note_on_c, 0, 82, 0
2, 517920, Note_on_c, 0, 84, 115
2, 518400, Note_on_c, 0, 84, 0
2, 518400, Note_on_c, 0, 80, 115
2, 518880, Note_on_c, 0, 80, 0
2, 518880, Note_on_c, 0, 82, 115
2, 519360, Note_on_c, 0, 82, 0
2, 519360, Note_on_c, 0, 79, 115
2, 519840, Note_on_c, 0, 79, 0
2, 519840, Note_on_c, 0, 80, 115
2, 520320, Note_on_c, 0, 80, 0
2, 520320, Note_on_c, 0, 77, 115
2, 520800, Note_on_c, 0, 77, 0
2, 520800, Note_on_c, 0, 79, 115
2, 521280, Note_on_c, 0, 79, 0
2, 521280, Note_on_c, 0, 79, 115
2, 521760, Note_on_c, 0, 79, 0
2, 521760, Note_on_c, 0, 79, 115
2, 522240, Note_on_c, 0, 79, 0
2, 522240, Note_on_c, 0, 79, 115
2, 522720, Note_on_c, 0, 79, 0
2, 522720, Note_on_c, 0, 79, 115
2, 523200, Note_on_c, 0, 79, 0
2, 523200, Note_on_c, 0, 79, 115
2, 523680, Note_on_c, 0, 79, 0
2, 523680, Note_on_c, 0, 84, 115
2, 524160, Note_on_c, 0, 84, 0
2, 524160, Note_on_c, 0, 84, 115
2, 524640, Note_on_c, 0, 84, 0
2, 524640, Note_on_c, 0, 84, 115
2, 525120, Note_on_c, 0, 84, 0
2, 525120, Note_on_c, 0, 84, 115
2, 525600, Note_on_c, 0, 84, 0
2, 525600, Note_on_c, 0, 89, 115
2, 526080, Note_on_c, 0, 89, 0
2, 526080, Note_on_c, 0, 89, 115
2, 526560, Note_on_c, 0, 89, 0
2, 526560, Note_on_c, 0, 89, 115
2, 527040, Note_on_c, 0, 89, 0
2, 527040, Note_on_c, 0, 89, 115
2, 527520, Note_on_c, 0, 89, 0
2, 527520, Note_on_c, 0, 89, 115
2, 528000, Note_on_c, 0, 89, 0
2, 528000, Note_on_c, 0, 87, 115
2, 529920, Note_on_c, 0, 87, 0
2, 529920, Note_on_c, 0, 89, 115
2, 531840, Note_on_c, 0, 89, 0
2, 531840, Note_on_c, 0, 91, 115
2, 533760, Note_on_c, 0, 91, 0
2, 533760, Note_on_c, 0, 89, 115
2, 535680, Note_on_c, 0, 89, 0
2, 535680, Note_on_c, 0, 89, 115
2, 536640, Note_on_c, 0, 89, 0
2, 536640, Note_on_c, 0, 91, 115
2, 537600, Note_on_c, 0, 91, 0
2, 537600, Note_on_c, 0, 91, 115
2, 538080, Note_on_c, 0, 91, 0
2, 538560, Note_on_c, 0, 92, 115
2, 539040, Note_on_c, 0, 92, 0
2, 539520, Note_on_c, 0, 92, 115
2, 540000, Note_on_c, 0, 92, 0
2, 540480, Note_on_c, 0, 92, 115
2, 540960, Note_on_c, 0, 92, 0
2, 541440, Note_on_c, 0, 91, 115
2, 541920, Note_on_c, 0, 91, 0
2, 542400, Note_on_c, 0, 91, 115
2, 542880, Note_on_c, 0, 91, 0
2, 543360, Note_on_c, 0, 84, 123
2, 544320, Note_on_c, 0, 84, 0
2, 544320, Note_on_c, 0, 86, 123
2, 544800, Note_on_c, 0, 86, 0
2, 544800, Note_on_c, 0, 87, 123
2, 545280, Note_on_c, 0, 87, 0
2, 545280, Note_on_c, 0, 89, 123
2, 545760, Note_on_c, 0, 89, 0
2, 545760, Note_on_c, 0, 86, 123
2, 546240, Note_on_c, 0, 86, 0
2, 548160, Note_on_c, 0, 89, 123
2, 548640, Note_on_c, 0, 89, 0
2, 548640, Note_on_c, 0, 91, 123
2, 549120, Note_on_c, 0, 91, 0
2, 549120, Note_on_c, 0, 92, 123
2, 549600, Note_on_c, 0, 92, 0
2, 549600, Note_on_c, 0, 89, 123
2, 550080, Note_on_c, 0, 89, 0
2, 552000, Note_on_c, 0, 84, 123
2, 552480, Note_on_c, 0, 84, 0
2, 552480, Note_on_c, 0, 86, 123
2, 552960, Note_on_c, 0, 86, 0
2, 552960, Note_on_c, 0, 87, 123
2, 553440, Note_on_c, 0, 87, 0
2, 553440, Note_on_c, 0, 84, 123
2, 553920, Note_on_c, 0, 84, 0
2, 555840, Note_on_c, 0, 84, 123
2, 556320, Note_on_c, 0, 84, 0
2, 556320, Note_on_c, 0, 86, 123
2, 556800, Note_on_c, 0, 86, 0
2, 556800, Note_on_c, 0, 87, 123
2, 557280, Note_on_c, 0, 87, 0
2, 557280, Note_on_c, 0, 86, 123
2, 557760, Note_on_c, 0, 86, 0
2, 557760, Note_on_c, 0, 84, 123
2, 558240, Note_on_c, 0, 84, 0
2, 558240, Note_on_c, 0, 82, 123
2, 558720, Note_on_c, 0, 82, 0
2, 558720, Note_on_c, 0, 80, 123
2, 559200, Note_on_c, 0, 80, 0
2, 559200, Note_on_c, 0, 79, 123
2, 559680, Note_on_c, 0, 79, 0
2, 560640, Note_on_c, 0, 80, 123
2, 561120, Note_on_c, 0, 80, 0
2, 561120, Note_on_c, 0, 79, 123
2, 561600, Note_on_c, 0, 79, 0
2, 561600, Note_on_c, 0, 92, 123
2, 562080, Note_on_c, 0, 92, 0
2, 562080, Note_on_c, 0, 91, 123
2, 562560, Note_on_c, 0, 91, 0
2, 563040, Note_on_c, 0, 91, 123
2, 563520, Note_on_c, 0, 91, 0
2, 564000, Note_on_c, 0, 91, 123
2, 564480, Note_on_c, 0, 91, 0
2, 567360, Note_on_c, 0, 80, 123
2, 567840, Note_on_c, 0, 80, 0
2, 567840, Note_on_c, 0, 79, 123
2, 568320, Note_on_c, 0, 79, 0
2, 569280, Note_on_c, 0, 92, 123
2, 569760, Note_on_c, 0, 92, 0
2, 569760, Note_on_c, 0, 91, 123
2, 570240, Note_on_c, 0, 91, 0
2, 570720, Note_on_c, 0, 91, 123
2, 571200, Note_on_c, 0, 91, 0
2, 571680, Note_on_c, 0, 91, 123
2, 572160, Note_on_c, 0, 91, 0
2, 572160, Note_on_c, 0, 84, 123
2, 572640, Note_on_c, 0, 84, 0
2, 573360, Note_on_c, 0, 91, 123
2, 573600, Note_on_c, 0, 91, 0
2, 573600, Note_on_c, 0, 91, 123
2, 573840, Note_on_c, 0, 91, 0
2, 573840, Note_on_c, 0, 91, 123
2, 574080, Note_on_c, 0, 91, 0
2, 574080, Note_on_c, 0, 91, 123
2, 577920, Note_on_c, 0, 91, 0
2, 577920, Note_on_c, 0, 91, 123
2, 578400, Note_on_c, 0, 91, 0
2, 579120, Note_on_c, 0, 91, 123
2, 579360, Note_on_c, 0, 91, 0
2, 579360, Note_on_c, 0, 91, 123
2, 579600, Note_on_c, 0, 91, 0
2, 579600, Note_on_c, 0, 91, 123
2, 579840, Note_on_c, 0, 91, 0
2, 579840, Note_on_c, 0, 91, 123
2, 580080, Note_on_c, 0, 91, 0
2, 580080, Note_on_c, 0, 91, 123
2, 580320, Note_on_c, 0, 91, 0
2, 580320, Note_on_c, 0, 91, 123
2, 580560, Note_on_c, 0, 91, 0
2, 580560, Note_on_c, 0, 91, 123
2, 580800, Note_on_c, 0, 91, 0
2, 580800, Note_on_c, 0, 91, 123
2, 581040, Note_on_c, 0, 91, 0
2, 581040, Note_on_c, 0, 91, 123
2, 581280, Note_on_c, 0, 91, 0
2, 581280, Note_on_c, 0, 91, 123
2, 581520, Note_on_c, 0, 91, 0
2, 581520, Note_on_c, 0, 91, 123
2, 581760, Note_on_c, 0, 91, 0
2, 581760, Note_on_c, 0, 91, 123
2, 582720, Note_on_c, 0, 91, 0
2, 582960, Note_on_c, 0, 91, 123
2, 583200, Note_on_c, 0, 91, 0
2, 583200, Note_on_c, 0, 91, 123
2, 583440, Note_on_c, 0, 91, 0
2, 583440, Note_on_c, 0, 91, 123
2, 583680, Note_on_c, 0, 91, 0
2, 583680, Note_on_c, 0, 91, 123
2, 585600, Note_on_c, 0, 91, 0
2, 593520, Note_on_c, 0, 86, 123
2, 593760, Note_on_c, 0, 86, 0
2, 593760, Note_on_c, 0, 86, 123
2, 594000, Note_on_c, 0, 86, 0
2, 594000, Note_on_c, 0, 86, 123
2, 594240, Note_on_c, 0, 86, 0
2, 594240, Note_on_c, 0, 87, 123
2, 594720, Note_on_c, 0, 87, 0
2, 595440, Note_on_c, 0, 86, 123
2, 595680, Note_on_c, 0, 86, 0
2, 595680, Note_on_c, 0, 86, 123
2, 595920, Note_on_c, 0, 86, 0
2, 595920, Note_on_c, 0, 86, 123
2, 596160, Note_on_c, 0, 86, 0
2, 596160, Note_on_c, 0, 87, 123
2, 596640, Note_on_c, 0, 87, 0
2, 597360, Note_on_c, 0, 86, 123
2, 597600, Note_on_c, 0, 86, 0
2, 597600, Note_on_c, 0, 86, 123
2, 597840, Note_on_c, 0, 86, 0
2, 597840, Note_on_c, 0, 86, 123
2, 598080, Note_on_c, 0, 86, 0
2, 598080, Note_on_c, 0, 87, 123
2, 598560, Note_on_c, 0, 87, 0
2, 598560, Note_on_c, 0, 91, 123
2, 599040, Note_on_c, 0, 91, 0
2, 599040, Note_on_c, 0, 91, 123
2, 599520, Note_on_c, 0, 91, 0
2, 599520, Note_on_c, 0, 91, 123
2, 600000, Note_on_c, 0, 91, 0
2, 600000, Note_on_c, 0, 91, 123
2, 600480, Note_on_c, 0, 91, 0
2, 600480, Note_on_c, 0, 91, 123
2, 600960, Note_on_c, 0, 91, 0
2, 600960, Note_on_c, 0, 91, 123
2, 601440, Note_on_c, 0, 91, 0
2, 601440, Note_on_c, 0, 91, 123
2, 601920, Note_on_c, 0, 91, 0
2, 601920, Note_on_c, 0, 91, 123
2, 602400, Note_on_c, 0, 91, 0
2, 602880, Note_on_c, 0, 83, 123
2, 603360, Note_on_c, 0, 83, 0
2, 603840, Note_on_c, 0, 84, 123
2, 604320, Note_on_c, 0, 84, 0
2, 604320, End_track
3, 0, Start_track
3, 0, MIDI_port, 0
3, 0, Title_t, "Flute 2"
3, 16560, Note_on_c, 0, 86, 91
3, 16800, Note_on_c, 0, 86, 0
3, 16800, Note_on_c, 0, 86, 101
3, 17040, Note_on_c, 0, 86, 0
3, 17040, Note_on_c, 0, 86, 109
3, 17280, Note_on_c, 0, 86, 0
3, 17280, Note_on_c, 0, 84, 115
3, 17760, Note_on_c, 0, 84, 0
3, 18240, Note_on_c, 0, 84, 115
3, 18720, Note_on_c, 0, 84, 0
3, 19200, Note_on_c, 0, 83, 115
3, 19680, Note_on_c, 0, 83, 0
3, 20400, Note_on_c, 0, 80, 123
3, 20640, Note_on_c, 0, 80, 0
3, 20640, Note_on_c, 0, 80, 123
3, 20880, Note_on_c, 0, 80, 0
3, 20880, Note_on_c, 0, 80, 123
3, 21120, Note_on_c, 0, 80, 0
3, 21120, Note_on_c, 0, 77, 123
3, 23040, Note_on_c, 0, 77, 0
3, 36480, Note_on_c, 0, 84, 123
3, 36960, Note_on_c, 0, 84, 0
3, 37440, Note_on_c, 0, 84, 123
3, 37920, Note_on_c, 0, 84, 0
3, 38400, Note_on_c, 0, 84, 123
3, 38880, Note_on_c, 0, 84, 0
3, 39360, Note_on_c, 0, 84, 123
3, 39840, Note_on_c, 0, 84, 0
3, 40320, Note_on_c, 0, 83, 123
3, 40800, Note_on_c, 0, 83, 0
3, 41280, Note_on_c, 0, 84, 115
3, 45120, Note_on_c, 0, 84, 0
3, 45120, Note_on_c, 0, 86, 115
3, 48480, Note_on_c, 0, 86, 0
3, 48480, Note_on_c, 0, 84, 115
3, 48960, Note_on_c, 0, 84, 0
3, 48960, Note_on_c, 0, 84, 123
3, 52800, Note_on_c, 0, 84, 0
3, 52800, Note_on_c, 0, 81, 123
3, 53280, Note_on_c, 0, 81, 0
3, 54720, Note_on_c, 0, 82, 123
3, 55200, Note_on_c, 0, 82, 0
3, 67200, Note_on_c, 0, 82, 91
3, 67680, Note_on_c, 0, 82, 0
3, 67680, Note_on_c, 0, 87, 91
3, 68160, Note_on_c, 0, 87, 0
3, 68160, Note_on_c, 0, 86, 91
3, 68640, Note_on_c, 0, 86, 0
3, 68640, Note_on_c, 0, 87, 91
3, 69120, Note_on_c, 0, 87, 0
3, 69120, Note_on_c, 0, 89, 91
3, 69600, Note_on_c, 0, 89, 0
3, 69600, Note_on_c, 0, 84, 91
3, 70080, Note_on_c, 0, 84, 0
3, 70080, Note_on_c, 0, 84, 91
3, 70560, Note_on_c, 0, 84, 0
3, 70560, Note_on_c, 0, 82, 91
3, 71040, Note_on_c, 0, 82, 0
3, 86400, Note_on_c, 0, 87, 91
3, 86880, Note_on_c, 0, 87, 0
3, 86880, Note_on_c, 0, 89, 91
3, 87360, Note_on_c, 0, 89, 0
3, 87360, Note_on_c, 0, 90, 101
3, 87840, Note_on_c, 0, 90, 0
3, 87840, Note_on_c, 0, 89, 109
3, 88320, Note_on_c, 0, 89, 0
3, 88320, Note_on_c, 0, 90, 115
3, 88800, Note_on_c, 0, 90, 0
3, 88800, Note_on_c, 0, 90, 115
3, 89280, Note_on_c, 0, 90, 0
3, 89280, Note_on_c, 0, 82, 123
3, 90720, Note_on_c, 0, 82, 0
3, 90720, Note_on_c, 0, 82, 123
3, 91200, Note_on_c, 0, 82, 0
3, 91200, Note_on_c, 0, 82, 123
3, 91680, Note_on_c, 0, 82, 0
3, 92160, Note_on_c, 0, 82, 123
3, 92640, Note_on_c, 0, 82, 0
3, 93120, Note_on_c, 0, 82, 123
3, 93600, Note_on_c, 0, 82, 0
3, 94080, Note_on_c, 0, 84, 123
3, 94560, Note_on_c, 0, 84, 0
3, 95040, Note_on_c, 0, 82, 123
3, 95520, Note_on_c, 0, 82, 0
3, 96000, Note_on_c, 0, 82, 123
3, 96480, Note_on_c, 0, 82, 0
3, 96960, Note_on_c, 0, 82, 123
3, 98880, Note_on_c, 0, 82, 0
3, 98880, Note_on_c, 0, 82, 123
3, 99360, Note_on_c, 0, 82, 0
3, 99360, Note_on_c, 0, 82, 123
3, 99840, Note_on_c, 0, 82, 0
3, 100320, Note_on_c, 0, 82, 123
3, 100800, Note_on_c, 0, 82, 0
3, 101280, Note_on_c, 0, 82, 123
3, 101760, Note_on_c, 0, 82, 0
3, 102240, Note_on_c, 0, 80, 123
3, 102720, Note_on_c, 0, 80, 0
3, 103200, Note_on_c, 0, 82, 123
3, 103680, Note_on_c, 0, 82, 0
3, 104160, Note_on_c, 0, 82, 123
3, 104640, Note_on_c, 0, 82, 0
3, 104640, Note_on_c, 0, 82, 123
3, 104880, Note_on_c, 0, 82, 0
3, 104880, Note_on_c, 0, 91, 123
3, 105120, Note_on_c, 0, 91, 0
3, 105120, Note_on_c, 0, 91, 123
3, 105360, Note_on_c, 0, 91, 0
3, 105360, Note_on_c, 0, 91, 123
3, 105600, Note_on_c, 0, 91, 0
3, 105600, Note_on_c, 0, 87, 123
3, 105840, Note_on_c, 0, 87, 0
3, 105840, Note_on_c, 0, 82, 123
3, 106080, Note_on_c, 0, 82, 0
3, 106080, Note_on_c, 0, 82, 123
3, 106320, Note_on_c, 0, 82, 0
3, 106320, Note_on_c, 0, 82, 123
3, 106560, Note_on_c, 0, 82, 0
3, 106560, Note_on_c, 0, 79, 123
3, 106800, Note_on_c, 0, 79, 0
3, 106800, Note_on_c, 0, 75, 123
3, 107040, Note_on_c, 0, 75, 0
3, 107040, Note_on_c, 0, 75, 123
3, 107280, Note_on_c, 0, 75, 0
3, 107280, Note_on_c, 0, 75, 123
3, 107520, Note_on_c, 0, 75, 0
3, 107520, Note_on_c, 0, 70, 123
3, 108720, Note_on_c, 0, 70, 0
3, 108720, Note_on_c, 0, 91, 123
3, 108960, Note_on_c, 0, 91, 0
3, 108960, Note_on_c, 0, 91, 123
3, 109200, Note_on_c, 0, 91, 0
3, 109200, Note_on_c, 0, 91, 123
3, 109440, Note_on_c, 0, 91, 0
3, 109440, Note_on_c, 0, 87, 123
3, 109680, Note_on_c, 0, 87, 0
3, 109680, Note_on_c, 0, 82, 123
3, 109920, Note_on_c, 0, 82, 0
3, 109920, Note_on_c, 0, 82, 123
3, 110160, Note_on_c, 0, 82, 0
3, 110160, Note_on_c, 0, 82, 123
3, 110400, Note_on_c, 0, 82, 0
3, 110400, Note_on_c, 0, 79, 123
3, 110640, Note_on_c, 0, 79, 0
3, 110640, Note_on_c, 0, 75, 123
3, 110880, Note_on_c, 0, 75, 0
3, 110880, Note_on_c, 0, 75, 123
3, 111120, Note_on_c, 0, 75, 0
3, 111120, Note_on_c, 0, 75, 123
3, 111360, Note_on_c, 0, 75, 0
3, 111360, Note_on_c, 0, 70, 123
3, 112800, Note_on_c, 0, 70, 0
3, 113520, Note_on_c, 0, 82, 123
3, 113760, Note_on_c, 0, 82, 0
3, 113760, Note_on_c, 0, 82, 123
3, 114000, Note_on_c, 0, 82, 0
3, 114000, Note_on_c, 0, 82, 123
3, 114240, Note_on_c, 0, 82, 0
3, 114240, Note_on_c, 0, 82, 123
3, 114720, Note_on_c, 0, 82, 0
3, 115440, Note_on_c, 0, 77, 123
3, 115680, Note_on_c, 0, 77, 0
3, 115680, Note_on_c, 0, 77, 123
3, 115920, Note_on_c, 0, 77, 0
3, 115920, Note_on_c, 0, 77, 123
3, 116160, Note_on_c, 0, 77, 0
3, 116160, Note_on_c, 0, 79, 123
3, 116640, Note_on_c, 0, 79, 0
3, 135600, Note_on_c, 0, 86, 91
3, 135840, Note_on_c, 0, 86, 0
3, 135840, Note_on_c, 0, 86, 101
3, 136080, Note_on_c, 0, 86, 0
3, 136080, Note_on_c, 0, 86, 109
3, 136320, Note_on_c, 0, 86, 0
3, 136320, Note_on_c, 0, 84, 115
3, 136800, Note_on_c, 0, 84, 0
3, 137280, Note_on_c, 0, 84, 115
3, 137760, Note_on_c, 0, 84, 0
3, 138240, Note_on_c, 0, 83, 115
3, 138720, Note_on_c, 0, 83, 0
3, 139440, Note_on_c, 0, 80, 123
3, 139680, Note_on_c, 0, 80, 0
3, 139680, Note_on_c, 0, 80, 123
3, 139920, Note_on_c, 0, 80, 0
3, 139920, Note_on_c, 0, 80, 123
3, 140160, Note_on_c, 0, 80, 0
3, 140160, Note_on_c, 0, 77, 123
3, 142080, Note_on_c, 0, 77, 0
3, 155520, Note_on_c, 0, 84, 123
3, 156000, Note_on_c, 0, 84, 0
3, 156480, Note_on_c, 0, 84, 123
3, 156960, Note_on_c, 0, 84, 0
3, 157440, Note_on_c, 0, 84, 123
3, 157920, Note_on_c, 0, 84, 0
3, 158400, Note_on_c, 0, 84, 123
3, 158880, Note_on_c, 0, 84, 0
3, 159360, Note_on_c, 0, 83, 123
3, 159840, Note_on_c, 0, 83, 0
3, 160320, Note_on_c, 0, 84, 115
3, 164160, Note_on_c, 0, 84, 0
3, 164160, Note_on_c, 0, 86, 115
3, 167520, Note_on_c, 0, 86, 0
3, 167520, Note_on_c, 0, 84, 115
3, 168000, Note_on_c, 0, 84, 0
3, 168000, Note_on_c, 0, 84, 123
3, 171840, Note_on_c, 0, 84, 0
3, 171840, Note_on_c, 0, 81, 123
3, 172320, Note_on_c, 0, 81, 0
3, 173760, Note_on_c, 0, 82, 123
3, 174240, Note_on_c, 0, 82, 0
3, 186240, Note_on_c, 0, 82, 91
3, 186720, Note_on_c, 0, 82, 0
3, 186720, Note_on_c, 0, 87, 91
3, 187200, Note_on_c, 0, 87, 0
3, 187200, Note_on_c, 0, 86, 91
3, 187680, Note_on_c, 0, 86, 0
3, 187680, Note_on_c, 0, 87, 91
3, 188160, Note_on_c, 0, 87, 0
3, 188160, Note_on_c, 0, 89, 91
3, 188640, Note_on_c, 0, 89, 0
3, 188640, Note_on_c, 0, 84, 91
3, 189120, Note_on_c, 0, 84, 0
3, 189120, Note_on_c, 0, 84, 91
3, 189600, Note_on_c, 0, 84, 0
3, 189600, Note_on_c, 0, 82, 91
3, 190080, Note_on_c, 0, 82, 0
3, 205440, Note_on_c, 0, 87, 91
3, 205920, Note_on_c, 0, 87, 0
3, 205920, Note_on_c, 0, 89, 91
3, 206400, Note_on_c, 0, 89, 0
3, 206400, Note_on_c, 0, 90, 101
3, 206880, Note_on_c, 0, 90, 0
3, 206880, Note_on_c, 0, 89, 109
3, 207360, Note_on_c, 0, 89, 0
3, 207360, Note_on_c, 0, 90, 115
3, 207840, Note_on_c, 0, 90, 0
3, 207840, Note_on_c, 0, 90, 115
3, 208320, Note_on_c, 0, 90, 0
3, 208320, Note_on_c, 0, 82, 123
3, 209760, Note_on_c, 0, 82, 0
3, 209760, Note_on_c, 0, 82, 123
3, 210240, Note_on_c, 0, 82, 0
3, 210240, Note_on_c, 0, 82, 123
3, 210720, Note_on_c, 0, 82, 0
3, 211200, Note_on_c, 0, 82, 123
3, 211680, Note_on_c, 0, 82, 0
3, 212160, Note_on_c, 0, 82, 123
3, 212640, Note_on_c, 0, 82, 0
3, 213120, Note_on_c, 0, 84, 123
3, 213600, Note_on_c, 0, 84, 0
3, 214080, Note_on_c, 0, 82, 123
3, 214560, Note_on_c, 0, 82, 0
3, 215040, Note_on_c, 0, 82, 123
3, 215520, Note_on_c, 0, 82, 0
3, 216000, Note_on_c, 0, 82, 123
3, 217920, Note_on_c, 0, 82, 0
3, 217920, Note_on_c, 0, 82, 123
3, 218400, Note_on_c, 0, 82, 0
3, 218400, Note_on_c, 0, 82, 123
3, 218880, Note_on_c, 0, 82, 0
3, 219360, Note_on_c, 0, 82, 123
3, 219840, Note_on_c, 0, 82, 0
3, 220320, Note_on_c, 0, 82, 123
3, 220800, Note_on_c, 0, 82, 0
3, 221280, Note_on_c, 0, 80, 123
3, 221760, Note_on_c, 0, 80, 0
3, 222240, Note_on_c, 0, 82, 123
3, 222720, Note_on_c, 0, 82, 0
3, 223200, Note_on_c, 0, 82, 123
3, 223680, Note_on_c, 0, 82, 0
3, 223680, Note_on_c, 0, 82, 123
3, 223920, Note_on_c, 0, 82, 0
3, 223920, Note_on_c, 0, 91, 123
3, 224160, Note_on_c, 0, 91, 0
3, 224160, Note_on_c, 0, 91, 123
3, 224400, Note_on_c, 0, 91, 0
3, 224400, Note_on_c, 0, 91, 123
3, 224640, Note_on_c, 0, 91, 0
3, 224640, Note_on_c, 0, 87, 123
3, 224880, Note_on_c, 0, 87, 0
3, 224880, Note_on_c, 0, 82, 123
3, 225120, Note_on_c, 0, 82, 0
3, 225120, Note_on_c, 0, 82, 123
3, 225360, Note_on_c, 0, 82, 0
3, 225360, Note_on_c, 0, 82, 123
3, 225600, Note_on_c, 0, 82, 0
3, 225600, Note_on_c, 0, 79, 123
3, 225840, Note_on_c, 0, 79, 0
3, 225840, Note_on_c, 0, 75, 123
3, 226080, Note_on_c, 0, 75, 0
3, 226080, Note_on_c, 0, 75, 123
3, 226320, Note_on_c, 0, 75, 0
3, 226320, Note_on_c, 0, 75, 123
3, 226560, Note_on_c, 0, 75, 0
3, 226560, Note_on_c, 0, 70, 123
3, 227760, Note_on_c, 0, 70, 0
3, 227760, Note_on_c, 0, 91, 123
3, 228000, Note_on_c, 0, 91, 0
3, 228000, Note_on_c, 0, 91, 123
3, 228240, Note_on_c, 0, 91, 0
3, 228240, Note_on_c, 0, 91, 123
3, 228480, Note_on_c, 0, 91, 0
3, 228480, Note_on_c, 0, 87, 123
3, 228720, Note_on_c, 0, 87, 0
3, 228720, Note_on_c, 0, 82, 123
3, 228960, Note_on_c, 0, 82, 0
3, 228960, Note_on_c, 0, 82, 123
3, 229200, Note_on_c, 0, 82, 0
3, 229200, Note_on_c, 0, 82, 123
3, 229440, Note_on_c, 0, 82, 0
3, 229440, Note_on_c, 0, 79, 123
3, 229680, Note_on_c, 0, 79, 0
3, 229680, Note_on_c, 0, 75, 123
3, 229920, Note_on_c, 0, 75, 0
3, 229920, Note_on_c, 0, 75, 123
3, 230160, Note_on_c, 0, 75, 0
3, 230160, Note_on_c, 0, 75, 123
3, 230400, Note_on_c, 0, 75, 0
3, 230400, Note_on_c, 0, 70, 123
3, 231840, Note_on_c, 0, 70, 0
3, 232560, Note_on_c, 0, 82, 123
3, 232800, Note_on_c, 0, 82, 0
3, 232800, Note_on_c, 0, 82, 123
3, 233040, Note_on_c, 0, 82, 0
3, 233040, Note_on_c, 0, 82, 123
3, 233280, Note_on_c, 0, 82, 0
3, 233280, Note_on_c, 0, 82, 123
3, 233760, Note_on_c, 0, 82, 0
3, 234480, Note_on_c, 0, 77, 123
3, 234720, Note_on_c, 0, 77, 0
3, 234720, Note_on_c, 0, 77, 123
3, 234960, Note_on_c, 0, 77, 0
3, 234960, Note_on_c, 0, 77, 123
3, 235200, Note_on_c, 0, 77, 0
3, 235200, Note_on_c, 0, 79, 123
3, 235680, Note_on_c, 0, 79, 0
3, 265200, Note_on_c, 0, 86, 91
3, 265440, Note_on_c, 0, 86, 0
3, 265440, Note_on_c, 0, 86, 91
3, 265680, Note_on_c, 0, 86, 0
3, 265680, Note_on_c, 0, 84, 91
3, 265920, Note_on_c, 0, 84, 0
3, 265920, Note_on_c, 0, 82, 91
3, 266880, Note_on_c, 0, 82, 0
3, 266880, Note_on_c, 0, 81, 91
3, 267120, Note_on_c, 0, 81, 0
3, 267120, Note_on_c, 0, 86, 91
3, 267360, Note_on_c, 0, 86, 0
3, 267360, Note_on_c, 0, 86, 91
3, 267600, Note_on_c, 0, 86, 0
3, 267600, Note_on_c, 0, 84, 91
3, 267840, Note_on_c, 0, 84, 0
3, 267840, Note_on_c, 0, 82, 91
3, 268800, Note_on_c, 0, 82, 0
3, 268800, Note_on_c, 0, 81, 91
3, 269760, Note_on_c, 0, 81, 0
3, 269760, Note_on_c, 0, 82, 91
3, 270960, Note_on_c, 0, 82, 0
3, 270960, Note_on_c, 0, 79, 91
3, 271200, Note_on_c, 0, 79, 0
3, 271200, Note_on_c, 0, 81, 91
3, 271440, Note_on_c, 0, 81, 0
3, 271440, Note_on_c, 0, 82, 91
3, 271680, Note_on_c, 0, 82, 0
3, 271680, Note_on_c, 0, 84, 91
3, 272160, Note_on_c, 0, 84, 0
3, 272880, Note_on_c, 0, 78, 91
3, 273120, Note_on_c, 0, 78, 0
3, 273120, Note_on_c, 0, 81, 91
3, 273360, Note_on_c, 0, 81, 0
3, 273360, Note_on_c, 0, 82, 91
3, 273600, Note_on_c, 0, 82, 0
3, 273600, Note_on_c, 0, 84, 91
3, 274080, Note_on_c, 0, 84, 0
3, 274800, Note_on_c, 0, 81, 91
3, 275040, Note_on_c, 0, 81, 0
3, 275040, Note_on_c, 0, 82, 91
3, 275280, Note_on_c, 0, 82, 0
3, 275280, Note_on_c, 0, 84, 91
3, 275520, Note_on_c, 0, 84, 0
3, 275520, Note_on_c, 0, 86, 91
3, 276000, Note_on_c, 0, 86, 0
3, 276720, Note_on_c, 0, 79, 91
3, 276960, Note_on_c, 0, 79, 0
3, 276960, Note_on_c, 0, 82, 91
3, 277200, Note_on_c, 0, 82, 0
3, 277200, Note_on_c, 0, 84, 91
3, 277440, Note_on_c, 0, 84, 0
3, 277440, Note_on_c, 0, 86, 91
3, 277920, Note_on_c, 0, 86, 0
3, 278640, Note_on_c, 0, 82, 91
3, 278880, Note_on_c, 0, 82, 0
3, 278880, Note_on_c, 0, 84, 101
3, 279120, Note_on_c, 0, 84, 0
3, 279120, Note_on_c, 0, 86, 109
3, 279360, Note_on_c, 0, 86, 0
3, 279360, Note_on_c, 0, 81, 115
3, 281280, Note_on_c, 0, 81, 0
3, 281280, Note_on_c, 0, 81, 115
3, 281760, Note_on_c, 0, 81, 0
3, 282480, Note_on_c, 0, 79, 115
3, 282720, Note_on_c, 0, 79, 0
3, 282720, Note_on_c, 0, 79, 115
3, 282960, Note_on_c, 0, 79, 0
3, 282960, Note_on_c, 0, 79, 115
3, 283200, Note_on_c, 0, 79, 0
3, 283200, Note_on_c, 0, 79, 115
3, 285120, Note_on_c, 0, 79, 0
3, 285120, Note_on_c, 0, 79, 115
3, 285600, Note_on_c, 0, 79, 0
3, 286320, Note_on_c, 0, 82, 115
3, 286560, Note_on_c, 0, 82, 0
3, 286560, Note_on_c, 0, 82, 115
3, 286800, Note_on_c, 0, 82, 0
3, 286800, Note_on_c, 0, 82, 115
3, 287040, Note_on_c, 0, 82, 0
3, 287040, Note_on_c, 0, 82, 115
3, 287520, Note_on_c, 0, 82, 0
3, 288480, Note_on_c, 0, 73, 115
3, 288720, Note_on_c, 0, 73, 0
3, 288720, Note_on_c, 0, 73, 115
3, 288960, Note_on_c, 0, 73, 0
3, 288960, Note_on_c, 0, 73, 115
3, 289440, Note_on_c, 0, 73, 0
3, 289440, Note_on_c, 0, 74, 115
3, 289680, Note_on_c, 0, 74, 0
3, 289680, Note_on_c, 0, 74, 115
3, 289920, Note_on_c, 0, 74, 0
3, 289920, Note_on_c, 0, 74, 115
3, 290400, Note_on_c, 0, 74, 0
3, 297120, Note_on_c, 0, 86, 115
3, 297360, Note_on_c, 0, 86, 0
3, 297360, Note_on_c, 0, 86, 115
3, 297600, Note_on_c, 0, 86, 0
3, 297600, Note_on_c, 0, 86, 115
3, 298080, Note_on_c, 0, 86, 0
3, 304800, Note_on_c, 0, 83, 115
3, 305040, Note_on_c, 0, 83, 0
3, 305040, Note_on_c, 0, 83, 115
3, 305280, Note_on_c, 0, 83, 0
3, 305280, Note_on_c, 0, 84, 115
3, 305520, Note_on_c, 0, 84, 0
3, 305520, Note_on_c, 0, 84, 123
3, 305760, Note_on_c, 0, 84, 0
3, 305760, Note_on_c, 0, 84, 123
3, 306000, Note_on_c, 0, 84, 0
3, 306000, Note_on_c, 0, 84, 123
3, 306240, Note_on_c, 0, 84, 0
3, 306240, Note_on_c, 0, 77, 123
3, 307200, Note_on_c, 0, 77, 0
3, 307200, Note_on_c, 0, 79, 123
3, 308160, Note_on_c, 0, 79, 0
3, 310080, Note_on_c, 0, 77, 123
3, 311040, Note_on_c, 0, 77, 0
3, 311040, Note_on_c, 0, 79, 123
3, 312000, Note_on_c, 0, 79, 0
3, 313920, Note_on_c, 0, 77, 123
3, 314880, Note_on_c, 0, 77, 0
3, 314880, Note_on_c, 0, 78, 123
3, 315840, Note_on_c, 0, 78, 0
3, 317760, Note_on_c, 0, 81, 123
3, 318720, Note_on_c, 0, 81, 0
3, 318720, Note_on_c, 0, 82, 123
3, 319680, Note_on_c, 0, 82, 0
3, 320640, Note_on_c, 0, 83, 115
3, 321600, Note_on_c, 0, 83, 0
3, 322560, Note_on_c, 0, 85, 109
3, 323520, Note_on_c, 0, 85, 0
3, 324480, Note_on_c, 0, 85, 101
3, 325440, Note_on_c, 0, 85, 0
3, 326400, Note_on_c, 0, 85, 91
3, 327360, Note_on_c, 0, 85, 0
3, 328320, Note_on_c, 0, 85, 91
3, 329280, Note_on_c, 0, 85, 0
3, 330240, Note_on_c, 0, 86, 78
3, 331200, Note_on_c, 0, 86, 0
3, 332160, Note_on_c, 0, 86, 78
3, 333120, Note_on_c, 0, 86, 0
3, 334080, Note_on_c, 0, 86, 78
3, 335040, Note_on_c, 0, 86, 0
3, 336000, Note_on_c, 0, 86, 78
3, 336960, Note_on_c, 0, 86, 0
3, 337200, Note_on_c, 0, 86, 123
3, 337440, Note_on_c, 0, 86, 0
3, 337440, Note_on_c, 0, 86, 123
3, 337680, Note_on_c, 0, 86, 0
3, 337680, Note_on_c, 0, 86, 123
3, 337920, Note_on_c, 0, 86, 0
3, 337920, Note_on_c, 0, 83, 123
3, 338880, Note_on_c, 0, 83, 0
3, 338880, Note_on_c, 0, 84, 123
3, 339840, Note_on_c, 0, 84, 0
3, 339840, Note_on_c, 0, 81, 123
3, 341760, Note_on_c, 0, 81, 0
3, 341760, Note_on_c, 0, 86, 78
3, 342720, Note_on_c, 0, 86, 0
3, 343680, Note_on_c, 0, 86, 78
3, 344640, Note_on_c, 0, 86, 0
3, 345600, Note_on_c, 0, 86, 78
3, 346560, Note_on_c, 0, 86, 0
3, 347520, Note_on_c, 0, 86, 78
3, 348480, Note_on_c, 0, 86, 0
3, 349680, Note_on_c, 0, 80, 123
3, 349920, Note_on_c, 0, 80, 0
3, 349920, Note_on_c, 0, 80, 123
3, 350160, Note_on_c, 0, 80, 0
3, 350160, Note_on_c, 0, 80, 123
3, 350400, Note_on_c, 0, 80, 0
3, 350400, Note_on_c, 0, 77, 123
3, 351600, Note_on_c, 0, 77, 0
3, 351600, Note_on_c, 0, 80, 123
3, 351840, Note_on_c, 0, 80, 0
3, 351840, Note_on_c, 0, 80, 123
3, 352080, Note_on_c, 0, 80, 0
3, 352080, Note_on_c, 0, 80, 123
3, 352320, Note_on_c, 0, 80, 0
3, 352320, Note_on_c, 0, 77, 123
3, 353520, Note_on_c, 0, 77, 0
3, 353520, Note_on_c, 0, 80, 123
3, 353760, Note_on_c, 0, 80, 0
3, 353760, Note_on_c, 0, 80, 123
3, 354000, Note_on_c, 0, 80, 0
3, 354000, Note_on_c, 0, 80, 123
3, 354240, Note_on_c, 0, 80, 0
3, 354240, Note_on_c, 0, 77, 123
3, 354480, Note_on_c, 0, 77, 0
3, 354480, Note_on_c, 0, 80, 123
3, 354720, Note_on_c, 0, 80, 0
3, 354720, Note_on_c, 0, 80, 123
3, 354960, Note_on_c, 0, 80, 0
3, 354960, Note_on_c, 0, 80, 123
3, 355200, Note_on_c, 0, 80, 0
3, 355200, Note_on_c, 0, 77, 123
3, 355440, Note_on_c, 0, 77, 0
3, 355440, Note_on_c, 0, 80, 123
3, 355680, Note_on_c, 0, 80, 0
3, 355680, Note_on_c, 0, 80, 123
3, 355920, Note_on_c, 0, 80, 0
3, 355920, Note_on_c, 0, 80, 123
3, 356160, Note_on_c, 0, 80, 0
3, 356160, Note_on_c, 0, 77, 123
3, 356400, Note_on_c, 0, 77, 0
3, 356400, Note_on_c, 0, 79, 123
3, 356640, Note_on_c, 0, 79, 0
3, 356640, Note_on_c, 0, 79, 123
3, 356880, Note_on_c, 0, 79, 0
3, 356880, Note_on_c, 0, 79, 123
3, 357120, Note_on_c, 0, 79, 0
3, 357120, Note_on_c, 0, 87, 123
3, 358080, Note_on_c, 0, 87, 0
3, 358320, Note_on_c, 0, 89, 123
3, 358560, Note_on_c, 0, 89, 0
3, 358560, Note_on_c, 0, 89, 123
3, 358800, Note_on_c, 0, 89, 0
3, 358800, Note_on_c, 0, 89, 123
3, 359040, Note_on_c, 0, 89, 0
3, 359040, Note_on_c, 0, 86, 123
3, 360960, Note_on_c, 0, 86, 0
3, 367680, Note_on_c, 0, 65, 91
3, 369600, Note_on_c, 0, 65, 0
3, 369600, Note_on_c, 0, 63, 91
3, 370080, Note_on_c, 0, 63, 0
3, 374400, Note_on_c, 0, 78, 91
3, 375360, Note_on_c, 0, 78, 0
3, 375360, Note_on_c, 0, 79, 115
3, 375840, Note_on_c, 0, 79, 0
3, 393600, Note_on_c, 0, 84, 115
3, 394080, Note_on_c, 0, 84, 0
3, 394560, Note_on_c, 0, 84, 115
3, 395040, Note_on_c, 0, 84, 0
3, 395520, Note_on_c, 0, 84, 115
3, 396000, Note_on_c, 0, 84, 0
3, 396480, Note_on_c, 0, 84, 115
3, 396960, Note_on_c, 0, 84, 0
3, 397440, Note_on_c, 0, 83, 115
3, 397920, Note_on_c, 0, 83, 0
3, 398400, Note_on_c, 0, 84, 115
3, 402240, Note_on_c, 0, 84, 0
3, 402240, Note_on_c, 0, 86, 115
3, 405600, Note_on_c, 0, 86, 0
3, 405600, Note_on_c, 0, 84, 115
3, 406080, Note_on_c, 0, 84, 0
3, 406080, Note_on_c, 0, 84, 123
3, 409920, Note_on_c, 0, 84, 0
3, 409920, Note_on_c, 0, 84, 123
3, 410400, Note_on_c, 0, 84, 0
3, 411840, Note_on_c, 0, 79, 123
3, 412320, Note_on_c, 0, 79, 0
3, 420480, Note_on_c, 0, 79, 91
3, 420960, Note_on_c, 0, 79, 0
3, 420960, Note_on_c, 0, 84, 91
3, 421440, Note_on_c, 0, 84, 0
3, 421440, Note_on_c, 0, 83, 91
3, 421920, Note_on_c, 0, 83, 0
3, 421920, Note_on_c, 0, 84, 91
3, 422400, Note_on_c, 0, 84, 0
3, 422400, Note_on_c, 0, 86, 91
3, 422880, Note_on_c, 0, 86, 0
3, 422880, Note_on_c, 0, 81, 91
3, 423360, Note_on_c, 0, 81, 0
3, 423360, Note_on_c, 0, 81, 91
3, 423840, Note_on_c, 0, 81, 0
3, 423840, Note_on_c, 0, 79, 91
3, 424320, Note_on_c, 0, 79, 0
3, 428160, Note_on_c, 0, 79, 91
3, 428640, Note_on_c, 0, 79, 0
3, 428640, Note_on_c, 0, 84, 91
3, 429120, Note_on_c, 0, 84, 0
3, 429120, Note_on_c, 0, 83, 91
3, 429600, Note_on_c, 0, 83, 0
3, 429600, Note_on_c, 0, 84, 91
3, 430080, Note_on_c, 0, 84, 0
3, 430080, Note_on_c, 0, 86, 91
3, 430560, Note_on_c, 0, 86, 0
3, 430560, Note_on_c, 0, 81, 91
3, 431040, Note_on_c, 0, 81, 0
3, 431040, Note_on_c, 0, 81, 91
3, 431520, Note_on_c, 0, 81, 0
3, 431520, Note_on_c, 0, 79, 91
3, 432000, Note_on_c, 0, 79, 0
3, 433920, Note_on_c, 0, 82, 91
3, 434400, Note_on_c, 0, 82, 0
3, 434400, Note_on_c, 0, 84, 91
3, 434880, Note_on_c, 0, 84, 0
3, 434880, Note_on_c, 0, 82, 91
3, 435360, Note_on_c, 0, 82, 0
3, 435360, Note_on_c, 0, 81, 91
3, 435840, Note_on_c, 0, 81, 0
3, 437760, Note_on_c, 0, 84, 91
3, 438240, Note_on_c, 0, 84, 0
3, 438240, Note_on_c, 0, 86, 91
3, 438720, Note_on_c, 0, 86, 0
3, 438720, Note_on_c, 0, 84, 91
3, 439200, Note_on_c, 0, 84, 0
3, 439200, Note_on_c, 0, 83, 91
3, 439680, Note_on_c, 0, 83, 0
3, 446400, Note_on_c, 0, 92, 91
3, 446880, Note_on_c, 0, 92, 0
3, 446880, Note_on_c, 0, 91, 91
3, 447360, Note_on_c, 0, 91, 0
3, 447360, Note_on_c, 0, 90, 91
3, 447840, Note_on_c, 0, 90, 0
3, 447840, Note_on_c, 0, 91, 91
3, 448320, Note_on_c, 0, 91, 0
3, 448320, Note_on_c, 0, 93, 101
3, 448800, Note_on_c, 0, 93, 0
3, 448800, Note_on_c, 0, 91, 101
3, 449280, Note_on_c, 0, 91, 0
3, 449280, Note_on_c, 0, 90, 101
3, 449760, Note_on_c, 0, 90, 0
3, 449760, Note_on_c, 0, 91, 101
3, 450240, Note_on_c, 0, 91, 0
3, 450240, Note_on_c, 0, 93, 109
3, 450720, Note_on_c, 0, 93, 0
3, 450720, Note_on_c, 0, 91, 109
3, 451200, Note_on_c, 0, 91, 0
3, 451200, Note_on_c, 0, 90, 109
3, 451680, Note_on_c, 0, 90, 0
3, 451680, Note_on_c, 0, 91, 109
3, 452160, Note_on_c, 0, 91, 0
3, 452160, Note_on_c, 0, 90, 115
3, 452640, Note_on_c, 0, 90, 0
3, 452640, Note_on_c, 0, 91, 115
3, 453120, Note_on_c, 0, 91, 0
3, 453120, Note_on_c, 0, 90, 115
3, 453600, Note_on_c, 0, 90, 0
3, 453600, Note_on_c, 0, 91, 115
3, 454080, Note_on_c, 0, 91, 0
3, 454080, Note_on_c, 0, 89, 123
3, 455520, Note_on_c, 0, 89, 0
3, 455520, Note_on_c, 0, 89, 123
3, 456000, Note_on_c, 0, 89, 0
3, 456000, Note_on_c, 0, 88, 123
3, 456480, Note_on_c, 0, 88, 0
3, 456960, Note_on_c, 0, 83, 123
3, 457440, Note_on_c, 0, 83, 0
3, 457920, Note_on_c, 0, 84, 123
3, 458400, Note_on_c, 0, 84, 0
3, 458880, Note_on_c, 0, 84, 123
3, 459360, Note_on_c, 0, 84, 0
3, 459840, Note_on_c, 0, 88, 123
3, 460320, Note_on_c, 0, 88, 0
3, 460800, Note_on_c, 0, 83, 123
3, 461280, Note_on_c, 0, 83, 0
3, 461760, Note_on_c, 0, 89, 123
3, 463680, Note_on_c, 0, 89, 0
3, 463680, Note_on_c, 0, 88, 123
3, 464160, Note_on_c, 0, 88, 0
3, 464160, Note_on_c, 0, 88, 123
3, 464640, Note_on_c, 0, 88, 0
3, 465120, Note_on_c, 0, 83, 123
3, 465600, Note_on_c, 0, 83, 0
3, 466080, Note_on_c, 0, 84, 123
3, 466560, Note_on_c, 0, 84, 0
3, 467040, Note_on_c, 0, 86, 123
3, 467520, Note_on_c, 0, 86, 0
3, 468000, Note_on_c, 0, 88, 123
3, 468480, Note_on_c, 0, 88, 0
3, 468960, Note_on_c, 0, 86, 123
3, 469440, Note_on_c, 0, 86, 0
3, 469440, Note_on_c, 0, 84, 123
3, 469680, Note_on_c, 0, 84, 0
3, 469680, Note_on_c, 0, 88, 123
3, 469920, Note_on_c, 0, 88, 0
3, 469920, Note_on_c, 0, 88, 123
3, 470160, Note_on_c, 0, 88, 0
3, 470160, Note_on_c, 0, 88, 123
3, 470400, Note_on_c, 0, 88, 0
3, 470400, Note_on_c, 0, 84, 123
3, 470640, Note_on_c, 0, 84, 0
3, 470640, Note_on_c, 0, 79, 123
3, 470880, Note_on_c, 0, 79, 0
3, 470880, Note_on_c, 0, 79, 123
3, 471120, Note_on_c, 0, 79, 0
3, 471120, Note_on_c, 0, 79, 123
3, 471360, Note_on_c, 0, 79, 0
3, 471360, Note_on_c, 0, 76, 123
3, 471600, Note_on_c, 0, 76, 0
3, 471600, Note_on_c, 0, 72, 123
3, 471840, Note_on_c, 0, 72, 0
3, 471840, Note_on_c, 0, 72, 123
3, 472080, Note_on_c, 0, 72, 0
3, 472080, Note_on_c, 0, 72, 123
3, 472320, Note_on_c, 0, 72, 0
3, 472320, Note_on_c, 0, 67, 123
3, 473520, Note_on_c, 0, 67, 0
3, 473520, Note_on_c, 0, 88, 123
3, 473760, Note_on_c, 0, 88, 0
3, 473760, Note_on_c, 0, 88, 123
3, 474000, Note_on_c, 0, 88, 0
3, 474000, Note_on_c, 0, 88, 123
3, 474240, Note_on_c, 0, 88, 0
3, 474240, Note_on_c, 0, 84, 123
3, 474480, Note_on_c, 0, 84, 0
3, 474480, Note_on_c, 0, 79, 123
3, 474720, Note_on_c, 0, 79, 0
3, 474720, Note_on_c, 0, 79, 123
3, 474960, Note_on_c, 0, 79, 0
3, 474960, Note_on_c, 0, 79, 123
3, 475200, Note_on_c, 0, 79, 0
3, 475200, Note_on_c, 0, 76, 123
3, 475440, Note_on_c, 0, 76, 0
3, 475440, Note_on_c, 0, 72, 123
3, 475680, Note_on_c, 0, 72, 0
3, 475680, Note_on_c, 0, 72, 123
3, 475920, Note_on_c, 0, 72, 0
3, 475920, Note_on_c, 0, 72, 123
3, 476160, Note_on_c, 0, 72, 0
3, 476160, Note_on_c, 0, 67, 123
3, 476400, Note_on_c, 0, 67, 0
3, 476400, Note_on_c, 0, 74, 123
3, 476640, Note_on_c, 0, 74, 0
3, 476640, Note_on_c, 0, 74, 123
3, 476880, Note_on_c, 0, 74, 0
3, 476880, Note_on_c, 0, 74, 123
3, 477120, Note_on_c, 0, 74, 0
3, 477120, Note_on_c, 0, 76, 123
3, 477600, Note_on_c, 0, 76, 0
3, 478320, Note_on_c, 0, 74, 123
3, 478560, Note_on_c, 0, 74, 0
3, 478560, Note_on_c, 0, 74, 123
3, 478800, Note_on_c, 0, 74, 0
3, 478800, Note_on_c, 0, 74, 123
3, 479040, Note_on_c, 0, 74, 0
3, 479040, Note_on_c, 0, 76, 123
3, 479520, Note_on_c, 0, 76, 0
3, 480240, Note_on_c, 0, 74, 123
3, 480480, Note_on_c, 0, 74, 0
3, 480480, Note_on_c, 0, 74, 123
3, 480720, Note_on_c, 0, 74, 0
3, 480720, Note_on_c, 0, 74, 123
3, 480960, Note_on_c, 0, 74, 0
3, 480960, Note_on_c, 0, 76, 123
3, 481200, Note_on_c, 0, 76, 0
3, 481200, Note_on_c, 0, 72, 123
3, 481440, Note_on_c, 0, 72, 0
3, 481440, Note_on_c, 0, 72, 123
3, 481680, Note_on_c, 0, 72, 0
3, 481680, Note_on_c, 0, 72, 123
3, 481920, Note_on_c, 0, 72, 0
3, 481920, Note_on_c, 0, 72, 123
3, 483120, Note_on_c, 0, 72, 0
3, 483120, Note_on_c, 0, 72, 123
3, 483360, Note_on_c, 0, 72, 0
3, 483360, Note_on_c, 0, 72, 123
3, 483600, Note_on_c, 0, 72, 0
3, 483600, Note_on_c, 0, 72, 123
3, 483840, Note_on_c, 0, 72, 0
3, 483840, Note_on_c, 0, 72, 123
3, 485040, Note_on_c, 0, 72, 0
3, 485040, Note_on_c, 0, 72, 123
3, 485280, Note_on_c, 0, 72, 0
3, 485280, Note_on_c, 0, 72, 123
3, 485520, Note_on_c, 0, 72, 0
3, 485520, Note_on_c, 0, 72, 123
3, 485760, Note_on_c, 0, 72, 0
3, 485760, Note_on_c, 0, 72, 123
3, 486960, Note_on_c, 0, 72, 0
3, 486960, Note_on_c, 0, 72, 123
3, 487200, Note_on_c, 0, 72, 0
3, 487200, Note_on_c, 0, 72, 123
3, 487440, Note_on_c, 0, 72, 0
3, 487440, Note_on_c, 0, 72, 123
3, 487680, Note_on_c, 0, 72, 0
3, 487680, Note_on_c, 0, 72, 123
3, 488640, Note_on_c, 0, 72, 0
3, 488640, Note_on_c, 0, 80, 123
3, 492480, Note_on_c, 0, 80, 0
3, 492480, Note_on_c, 0, 80, 123
3, 492960, Note_on_c, 0, 80, 0
3, 496560, Note_on_c, 0, 84, 123
3, 496800, Note_on_c, 0, 84, 0
3, 496800, Note_on_c, 0, 84, 123
3, 497040, Note_on_c, 0, 84, 0
3, 497040, Note_on_c, 0, 84, 123
3, 497280, Note_on_c, 0, 84, 0
3, 497280, Note_on_c, 0, 84, 123
3, 501120, Note_on_c, 0, 84, 0
3, 501120, Note_on_c, 0, 84, 123
3, 501600, Note_on_c, 0, 84, 0
3, 502320, Note_on_c, 0, 84, 123
3, 502560, Note_on_c, 0, 84, 0
3, 502560, Note_on_c, 0, 84, 123
3, 502800, Note_on_c, 0, 84, 0
3, 502800, Note_on_c, 0, 84, 123
3, 503040, Note_on_c, 0, 84, 0
3, 503040, Note_on_c, 0, 87, 123
3, 503520, Note_on_c, 0, 87, 0
3, 506880, Note_on_c, 0, 83, 115
3, 508800, Note_on_c, 0, 83, 0
3, 510720, Note_on_c, 0, 83, 115
3, 512640, Note_on_c, 0, 83, 0
3, 514560, Note_on_c, 0, 87, 115
3, 515040, Note_on_c, 0, 87, 0
3, 515040, Note_on_c, 0, 89, 115
3, 515520, Note_on_c, 0, 89, 0
3, 515520, Note_on_c, 0, 86, 115
3, 516000, Note_on_c, 0, 86, 0
3, 516000, Note_on_c, 0, 87, 115
3, 516480, Note_on_c, 0, 87, 0
3, 516480, Note_on_c, 0, 84, 115
3, 516960, Note_on_c, 0, 84, 0
3, 516960, Note_on_c, 0, 86, 115
3, 517440, Note_on_c, 0, 86, 0
3, 517440, Note_on_c, 0, 82, 115
3, 517920, Note_on_c, 0, 82, 0
3, 517920, Note_on_c, 0, 84, 115
3, 518400, Note_on_c, 0, 84, 0
3, 518400, Note_on_c, 0, 80, 115
3, 518880, Note_on_c, 0, 80, 0
3, 518880, Note_on_c, 0, 82, 115
3, 519360, Note_on_c, 0, 82, 0
3, 519360, Note_on_c, 0, 79, 115
3, 519840, Note_on_c, 0, 79, 0
3, 519840, Note_on_c, 0, 80, 115
3, 520320, Note_on_c, 0, 80, 0
3, 520320, Note_on_c, 0, 77, 115
3, 520800, Note_on_c, 0, 77, 0
3, 520800, Note_on_c, 0, 79, 115
3, 521280, Note_on_c, 0, 79, 0
3, 521280, Note_on_c, 0, 79, 115
3, 521760, Note_on_c, 0, 79, 0
3, 521760, Note_on_c, 0, 79, 115
3, 522240, Note_on_c, 0, 79, 0
3, 522240, Note_on_c, 0, 79, 115
3, 522720, Note_on_c, 0, 79, 0
3, 522720, Note_on_c, 0, 79, 115
3, 523200, Note_on_c, 0, 79, 0
3, 523200, Note_on_c, 0, 79, 115
3, 523680, Note_on_c, 0, 79, 0
3, 523680, Note_on_c, 0, 84, 115
3, 524160, Note_on_c, 0, 84, 0
3, 524160, Note_on_c, 0, 84, 115
3, 524640, Note_on_c, 0, 84, 0
3, 524640, Note_on_c, 0, 84, 115
3, 525120, Note_on_c, 0, 84, 0
3, 525120, Note_on_c, 0, 84, 115
3, 525600, Note_on_c, 0, 84, 0
3, 525600, Note_on_c, 0, 83, 115
3, 526080, Note_on_c, 0, 83, 0
3, 526080, Note_on_c, 0, 84, 115
3, 526560, Note_on_c, 0, 84, 0
3, 526560, Note_on_c, 0, 83, 115
3, 527040, Note_on_c, 0, 83, 0
3, 527040, Note_on_c, 0, 84, 115
3, 527520, Note_on_c, 0, 84, 0
3, 527520, Note_on_c, 0, 86, 115
3, 528000, Note_on_c, 0, 86, 0
3, 528000, Note_on_c, 0, 84, 115
3, 529920, Note_on_c, 0, 84, 0
3, 529920, Note_on_c, 0, 84, 115
3, 531840, Note_on_c, 0, 84, 0
3, 531840, Note_on_c, 0, 84, 115
3, 533760, Note_on_c, 0, 84, 0
3, 533760, Note_on_c, 0, 84, 115
3, 535680, Note_on_c, 0, 84, 0
3, 535680, Note_on_c, 0, 86, 115
3, 536640, Note_on_c, 0, 86, 0
3, 536640, Note_on_c, 0, 86, 115
3, 537600, Note_on_c, 0, 86, 0
3, 537600, Note_on_c, 0, 87, 115
3, 538080, Note_on_c, 0, 87, 0
3, 538560, Note_on_c, 0, 87, 115
3, 539040, Note_on_c, 0, 87, 0
3, 539520, Note_on_c, 0, 86, 115
3, 540000, Note_on_c, 0, 86, 0
3, 540480, Note_on_c, 0, 86, 115
3, 540960, Note_on_c, 0, 86, 0
3, 541440, Note_on_c, 0, 86, 115
3, 541920, Note_on_c, 0, 86, 0
3, 542400, Note_on_c, 0, 86, 115
3, 542880, Note_on_c, 0, 86, 0
3, 543360, Note_on_c, 0, 84, 123
3, 544320, Note_on_c, 0, 84, 0
3, 544320, Note_on_c, 0, 86, 123
3, 544800, Note_on_c, 0, 86, 0
3, 544800, Note_on_c, 0, 87, 123
3, 545280, Note_on_c, 0, 87, 0
3, 545280, Note_on_c, 0, 89, 123
3, 545760, Note_on_c, 0, 89, 0
3, 545760, Note_on_c, 0, 86, 123
3, 546240, Note_on_c, 0, 86, 0
3, 548160, Note_on_c, 0, 77, 123
3, 548640, Note_on_c, 0, 77, 0
3, 548640, Note_on_c, 0, 79, 123
3, 549120, Note_on_c, 0, 79, 0
3, 549120, Note_on_c, 0, 80, 123
3, 549600, Note_on_c, 0, 80, 0
3, 549600, Note_on_c, 0, 77, 123
3, 550080, Note_on_c, 0, 77, 0
3, 552000, Note_on_c, 0, 81, 123
3, 552480, Note_on_c, 0, 81, 0
3, 552480, Note_on_c, 0, 83, 123
3, 552960, Note_on_c, 0, 83, 0
3, 552960, Note_on_c, 0, 84, 123
3, 553440, Note_on_c, 0, 84, 0
3, 553440, Note_on_c, 0, 79, 123
3, 553920, Note_on_c, 0, 79, 0
3, 555840, Note_on_c, 0, 81, 123
3, 556320, Note_on_c, 0, 81, 0
3, 556320, Note_on_c, 0, 83, 123
3, 556800, Note_on_c, 0, 83, 0
3, 556800, Note_on_c, 0, 84, 123
3, 557280, Note_on_c, 0, 84, 0
3, 557280, Note_on_c, 0, 82, 123
3, 557760, Note_on_c, 0, 82, 0
3, 557760, Note_on_c, 0, 80, 123
3, 558240, Note_on_c, 0, 80, 0
3, 558240, Note_on_c, 0, 79, 123
3, 558720, Note_on_c, 0, 79, 0
3, 558720, Note_on_c, 0, 77, 123
3, 559200, Note_on_c, 0, 77, 0
3, 559200, Note_on_c, 0, 75, 123
3, 559680, Note_on_c, 0, 75, 0
3, 560640, Note_on_c, 0, 77, 123
3, 561120, Note_on_c, 0, 77, 0
3, 561120, Note_on_c, 0, 75, 123
3, 561600, Note_on_c, 0, 75, 0
3, 561600, Note_on_c, 0, 89, 123
3, 562080, Note_on_c, 0, 89, 0
3, 562080, Note_on_c, 0, 87, 123
3, 562560, Note_on_c, 0, 87, 0
3, 563040, Note_on_c, 0, 84, 123
3, 563520, Note_on_c, 0, 84, 0
3, 564000, Note_on_c, 0, 84, 123
3, 564480, Note_on_c, 0, 84, 0
3, 567360, Note_on_c, 0, 80, 123
3, 567840, Note_on_c, 0, 80, 0
3, 567840, Note_on_c, 0, 79, 123
3, 568320, Note_on_c, 0, 79, 0
3, 569280, Note_on_c, 0, 89, 123
3, 569760, Note_on_c, 0, 89, 0
3, 569760, Note_on_c, 0, 87, 123
3, 570240, Note_on_c, 0, 87, 0
3, 570720, Note_on_c, 0, 87, 123
3, 571200, Note_on_c, 0, 87, 0
3, 571680, Note_on_c, 0, 86, 123
3, 572160, Note_on_c, 0, 86, 0
3, 572160, Note_on_c, 0, 84, 123
3, 572640, Note_on_c, 0, 84, 0
3, 573360, Note_on_c, 0, 86, 123
3, 573600, Note_on_c, 0, 86, 0
3, 573600, Note_on_c, 0, 86, 123
3, 573840, Note_on_c, 0, 86, 0
3, 573840, Note_on_c, 0, 86, 123
3, 574080, Note_on_c, 0, 86, 0
3, 574080, Note_on_c, 0, 86, 123
3, 575520, Note_on_c, 0, 86, 0
3, 575520, Note_on_c, 0, 87, 123
3, 576000, Note_on_c, 0, 87, 0
3, 576000, Note_on_c, 0, 89, 123
3, 576480, Note_on_c, 0, 89, 0
3, 576480, Note_on_c, 0, 86, 123
3, 576960, Note_on_c, 0, 86, 0
3, 576960, Note_on_c, 0, 87, 123
3, 577440, Note_on_c, 0, 87, 0
3, 577440, Note_on_c, 0, 89, 123
3, 577920, Note_on_c, 0, 89, 0
3, 577920, Note_on_c, 0, 87, 123
3, 578400, Note_on_c, 0, 87, 0
3, 579120, Note_on_c, 0, 79, 123
3, 579360, Note_on_c, 0, 79, 0
3, 579360, Note_on_c, 0, 79, 123
3, 579600, Note_on_c, 0, 79, 0
3, 579600, Note_on_c, 0, 79, 123
3, 579840, Note_on_c, 0, 79, 0
3, 579840, Note_on_c, 0, 79, 123
3, 580080, Note_on_c, 0, 79, 0
3, 580080, Note_on_c, 0, 79, 123
3, 580320, Note_on_c, 0, 79, 0
3, 580320, Note_on_c, 0, 79, 123
3, 580560, Note_on_c, 0, 79, 0
3, 580560, Note_on_c, 0, 79, 123
3, 580800, Note_on_c, 0, 79, 0
3, 580800, Note_on_c, 0, 79, 123
3, 581040, Note_on_c, 0, 79, 0
3, 581040, Note_on_c, 0, 79, 123
3, 581280, Note_on_c, 0, 79, 0
3, 581280, Note_on_c, 0, 79, 123
3, 581520, Note_on_c, 0, 79, 0
3, 581520, Note_on_c, 0, 79, 123
3, 581760, Note_on_c, 0, 79, 0
3, 581760, Note_on_c, 0, 87, 123
3, 582720, Note_on_c, 0, 87, 0
3, 582960, Note_on_c, 0, 89, 123
3, 583200, Note_on_c, 0, 89, 0
3, 583200, Note_on_c, 0, 89, 123
3, 583440, Note_on_c, 0, 89, 0
3, 583440, Note_on_c, 0, 89, 123
3, 583680, Note_on_c, 0, 89, 0
3, 583680, Note_on_c, 0, 89, 123
3, 585600, Note_on_c, 0, 89, 0
3, 593520, Note_on_c, 0, 83, 123
3, 593760, Note_on_c, 0, 83, 0
3, 593760, Note_on_c, 0, 83, 123
3, 594000, Note_on_c, 0, 83, 0
3, 594000, Note_on_c, 0, 83, 123
3, 594240, Note_on_c, 0, 83, 0
3, 594240, Note_on_c, 0, 84, 123
3, 594720, Note_on_c, 0, 84, 0
3, 595440, Note_on_c, 0, 83, 123
3, 595680, Note_on_c, 0, 83, 0
3, 595680, Note_on_c, 0, 83, 123
3, 595920, Note_on_c, 0, 83, 0
3, 595920, Note_on_c, 0, 83, 123
3, 596160, Note_on_c, 0, 83, 0
3, 596160, Note_on_c, 0, 84, 123
3, 596640, Note_on_c, 0, 84, 0
3, 597360, Note_on_c, 0, 83, 123
3, 597600, Note_on_c, 0, 83, 0
3, 597600, Note_on_c, 0, 83, 123
3, 597840, Note_on_c, 0, 83, 0
3, 597840, Note_on_c, 0, 83, 123
3, 598080, Note_on_c, 0, 83, 0
3, 598080, Note_on_c, 0, 84, 123
3, 598560, Note_on_c, 0, 84, 0
3, 598560, Note_on_c, 0, 86, 123
3, 599040, Note_on_c, 0, 86, 0
3, 599040, Note_on_c, 0, 87, 123
3, 599520, Note_on_c, 0, 87, 0
3, 599520, Note_on_c, 0, 86, 123
3, 600000, Note_on_c, 0, 86, 0
3, 600000, Note_on_c, 0, 87, 123
3, 600480, Note_on_c, 0, 87, 0
3, 600480, Note_on_c, 0, 86, 123
3, 600960, Note_on_c, 0, 86, 0
3, 600960, Note_on_c, 0, 87, 123
3, 601440, Note_on_c, 0, 87, 0
3, 601440, Note_on_c, 0, 86, 123
3, 601920, Note_on_c, 0, 86, 0
3, 601920, Note_on_c, 0, 87, 123
3, 602400, Note_on_c, 0, 87, 0
3, 602880, Note_on_c, 0, 79, 123
3, 603360, Note_on_c, 0, 79, 0
3, 603840, Note_on_c, 0, 79, 123
3, 604320, Note_on_c, 0, 79, 0
3, 604320, End_track
4, 0, Start_track
4, 0, MIDI_port, 0
4, 0, Title_t, "Oboe 1"
4, 0, Program_c, 1, 68
4, 16560, Note_on_c, 1, 67, 91
4, 16800, Note_on_c, 1, 67, 0
4, 16800, Note_on_c, 1, 67, 101
4, 17040, Note_on_c, 1, 67, 0
4, 17040, Note_on_c, 1, 65, 109
4, 17280, Note_on_c, 1, 65, 0
4, 17280, Note_on_c, 1, 63, 115
4, 17760, Note_on_c, 1, 63, 0
4, 18240, Note_on_c, 1, 66, 115
4, 18720, Note_on_c, 1, 66, 0
4, 19200, Note_on_c, 1, 67, 115
4, 19680, Note_on_c, 1, 67, 0
4, 20400, Note_on_c, 1, 68, 123
4, 20640, Note_on_c, 1, 68, 0
4, 20640, Note_on_c, 1, 68, 123
4, 20880, Note_on_c, 1, 68, 0
4, 20880, Note_on_c, 1, 68, 123
4, 21120, Note_on_c, 1, 68, 0
4, 21120, Note_on_c, 1, 65, 123
4, 23040, Note_on_c, 1, 65, 0
4, 30000, Note_on_c, 1, 65, 91
4, 30240, Note_on_c, 1, 65, 0
4, 30240, Note_on_c, 1, 65, 91
4, 30480, Note_on_c, 1, 65, 0
4, 30480, Note_on_c, 1, 65, 91
4, 30720, Note_on_c, 1, 65, 0
4, 30720, Note_on_c, 1, 63, 91
4, 31200, Note_on_c, 1, 63, 0
4, 33600, Note_on_c, 1, 67, 91
4, 35040, Note_on_c, 1, 67, 0
4, 35520, Note_on_c, 1, 68, 91
4, 36000, Note_on_c, 1, 68, 0
4, 36480, Note_on_c, 1, 67, 91
4, 36960, Note_on_c, 1, 67, 0
4, 37440, Note_on_c, 1, 68, 91
4, 37920, Note_on_c, 1, 68, 0
4, 38400, Note_on_c, 1, 70, 91
4, 38880, Note_on_c, 1, 70, 0
4, 39360, Note_on_c, 1, 68, 91
4, 39840, Note_on_c, 1, 68, 0
4, 40320, Note_on_c, 1, 68, 91
4, 40800, Note_on_c, 1, 68, 0
4, 41280, Note_on_c, 1, 67, 115
4, 45120, Note_on_c, 1, 67, 0
4, 45120, Note_on_c, 1, 67, 115
4, 48480, Note_on_c, 1, 67, 0
4, 48480, Note_on_c, 1, 67, 115
4, 48960, Note_on_c, 1, 67, 0
4, 48960, Note_on_c, 1, 66, 123
4, 52800, Note_on_c, 1, 66, 0
4, 52800, Note_on_c, 1, 66, 123
4, 53280, Note_on_c, 1, 66, 0
4, 54720, Note_on_c, 1, 65, 123
4, 55200, Note_on_c, 1, 65, 0
4, 79680, Note_on_c, 1, 72, 91
4, 81600, Note_on_c, 1, 72, 0
4, 81600, Note_on_c, 1, 70, 91
4, 83520, Note_on_c, 1, 70, 0
4, 83520, Note_on_c, 1, 69, 91
4, 87840, Note_on_c, 1, 69, 0
4, 87840, Note_on_c, 1, 69, 109
4, 88320, Note_on_c, 1, 69, 0
4, 88320, Note_on_c, 1, 69, 115
4, 88800, Note_on_c, 1, 69, 0
4, 88800, Note_on_c, 1, 69, 115
4, 89280, Note_on_c, 1, 69, 0
4, 89280, Note_on_c, 1, 68, 123
4, 90720, Note_on_c, 1, 68, 0
4, 90720, Note_on_c, 1, 68, 123
4, 91200, Note_on_c, 1, 68, 0
4, 91200, Note_on_c, 1, 67, 123
4, 91680, Note_on_c, 1, 67, 0
4, 92160, Note_on_c, 1, 68, 123
4, 92640, Note_on_c, 1, 68, 0
4, 93120, Note_on_c, 1, 70, 123
4, 93600, Note_on_c, 1, 70, 0
4, 94080, Note_on_c, 1, 72, 123
4, 94560, Note_on_c, 1, 72, 0
4, 95040, Note_on_c, 1, 67, 123
4, 95520, Note_on_c, 1, 67, 0
4, 96000, Note_on_c, 1, 65, 123
4, 96480, Note_on_c, 1, 65, 0
4, 96960, Note_on_c, 1, 68, 123
4, 98880, Note_on_c, 1, 68, 0
4, 98880, Note_on_c, 1, 67, 123
4, 99360, Note_on_c, 1, 67, 0
4, 99360, Note_on_c, 1, 67, 123
4, 99840, Note_on_c, 1, 67, 0
4, 100320, Note_on_c, 1, 65, 123
4, 100800, Note_on_c, 1, 65, 0
4, 101280, Note_on_c, 1, 67, 123
4, 101760, Note_on_c, 1, 67, 0
4, 102240, Note_on_c, 1, 65, 123
4, 102720, Note_on_c, 1, 65, 0
4, 103200, Note_on_c, 1, 67, 123
4, 103680, Note_on_c, 1, 67, 0
4, 104160, Note_on_c, 1, 65, 123
4, 104640, Note_on_c, 1, 65, 0
4, 104640, Note_on_c, 1, 67, 123
4, 104880, Note_on_c, 1, 67, 0
4, 104880, Note_on_c, 1, 67, 123
4, 105120, Note_on_c, 1, 67, 0
4, 105120, Note_on_c, 1, 67, 123
4, 105360, Note_on_c, 1, 67, 0
4, 105360, Note_on_c, 1, 67, 123
4, 105600, Note_on_c, 1, 67, 0
4, 105600, Note_on_c, 1, 63, 123
4, 105840, Note_on_c, 1, 63, 0
4, 105840, Note_on_c, 1, 70, 123
4, 106080, Note_on_c, 1, 70, 0
4, 106080, Note_on_c, 1, 70, 123
4, 106320, Note_on_c, 1, 70, 0
4, 106320, Note_on_c, 1, 70, 123
4, 106560, Note_on_c, 1, 70, 0
4, 106560, Note_on_c, 1, 67, 123
4, 106800, Note_on_c, 1, 67, 0
4, 106800, Note_on_c, 1, 63, 123
4, 107040, Note_on_c, 1, 63, 0
4, 107040, Note_on_c, 1, 63, 123
4, 107280, Note_on_c, 1, 63, 0
4, 107280, Note_on_c, 1, 63, 123
4, 107520, Note_on_c, 1, 63, 0
4, 107520, Note_on_c, 1, 58, 123
4, 108720, Note_on_c, 1, 58, 0
4, 108720, Note_on_c, 1, 67, 123
4, 108960, Note_on_c, 1, 67, 0
4, 108960, Note_on_c, 1, 67, 123
4, 109200, Note_on_c, 1, 67, 0
4, 109200, Note_on_c, 1, 67, 123
4, 109440, Note_on_c, 1, 67, 0
4, 109440, Note_on_c, 1, 63, 123
4, 109680, Note_on_c, 1, 63, 0
4, 109680, Note_on_c, 1, 70, 123
4, 109920, Note_on_c, 1, 70, 0
4, 109920, Note_on_c, 1, 70, 123
4, 110160, Note_on_c, 1, 70, 0
4, 110160, Note_on_c, 1, 70, 123
4, 110400, Note_on_c, 1, 70, 0
4, 110400, Note_on_c, 1, 67, 123
4, 110640, Note_on_c, 1, 67, 0
4, 110640, Note_on_c, 1, 63, 123
4, 110880, Note_on_c, 1, 63, 0
4, 110880, Note_on_c, 1, 63, 123
4, 111120, Note_on_c, 1, 63, 0
4, 111120, Note_on_c, 1, 63, 123
4, 111360, Note_on_c, 1, 63, 0
4, 111360, Note_on_c, 1, 58, 123
4, 112800, Note_on_c, 1, 58, 0
4, 113520, Note_on_c, 1, 65, 123
4, 113760, Note_on_c, 1, 65, 0
4, 113760, Note_on_c, 1, 65, 123
4, 114000, Note_on_c, 1, 65, 0
4, 114000, Note_on_c, 1, 65, 123
4, 114240, Note_on_c, 1, 65, 0
4, 114240, Note_on_c, 1, 67, 123
4, 114720, Note_on_c, 1, 67, 0
4, 115440, Note_on_c, 1, 70, 123
4, 115680, Note_on_c, 1, 70, 0
4, 115680, Note_on_c, 1, 70, 123
4, 115920, Note_on_c, 1, 70, 0
4, 115920, Note_on_c, 1, 70, 123
4, 116160, Note_on_c, 1, 70, 0
4, 116160, Note_on_c, 1, 67, 123
4, 116640, Note_on_c, 1, 67, 0
4, 135600, Note_on_c, 1, 67, 91
4, 135840, Note_on_c, 1, 67, 0
4, 135840, Note_on_c, 1, 67, 101
4, 136080, Note_on_c, 1, 67, 0
4, 136080, Note_on_c, 1, 65, 109
4, 136320, Note_on_c, 1, 65, 0
4, 136320, Note_on_c, 1, 63, 115
4, 136800, Note_on_c, 1, 63, 0
4, 137280, Note_on_c, 1, 66, 115
4, 137760, Note_on_c, 1, 66, 0
4, 138240, Note_on_c, 1, 67, 115
4, 138720, Note_on_c, 1, 67, 0
4, 139440, Note_on_c, 1, 68, 123
4, 139680, Note_on_c, 1, 68, 0
4, 139680, Note_on_c, 1, 68, 123
4, 139920, Note_on_c, 1, 68, 0
4, 139920, Note_on_c, 1, 68, 123
4, 140160, Note_on_c, 1, 68, 0
4, 140160, Note_on_c, 1, 65, 123
4, 142080, Note_on_c, 1, 65, 0
4, 149040, Note_on_c, 1, 65, 91
4, 149280, Note_on_c, 1, 65, 0
4, 149280, Note_on_c, 1, 65, 91
4, 149520, Note_on_c, 1, 65, 0
4, 149520, Note_on_c, 1, 65, 91
4, 149760, Note_on_c, 1, 65, 0
4, 149760, Note_on_c, 1, 63, 91
4, 150240, Note_on_c, 1, 63, 0
4, 152640, Note_on_c, 1, 67, 91
4, 154080, Note_on_c, 1, 67, 0
4, 154560, Note_on_c, 1, 68, 91
4, 155040, Note_on_c, 1, 68, 0
4, 155520, Note_on_c, 1, 67, 91
4, 156000, Note_on_c, 1, 67, 0
4, 156480, Note_on_c, 1, 68, 91
4, 156960, Note_on_c, 1, 68, 0
4, 157440, Note_on_c, 1, 70, 91
4, 157920, Note_on_c, 1, 70, 0
4, 158400, Note_on_c, 1, 68, 91
4, 158880, Note_on_c, 1, 68, 0
4, 159360, Note_on_c, 1, 68, 91
4, 159840, Note_on_c, 1, 68, 0
4, 160320, Note_on_c, 1, 67, 115
4, 164160, Note_on_c, 1, 67, 0
4, 164160, Note_on_c, 1, 67, 115
4, 167520, Note_on_c, 1, 67, 0
4, 167520, Note_on_c, 1, 67, 115
4, 168000, Note_on_c, 1, 67, 0
4, 168000, Note_on_c, 1, 66, 123
4, 171840, Note_on_c, 1, 66, 0
4, 171840, Note_on_c, 1, 66, 123
4, 172320, Note_on_c, 1, 66, 0
4, 173760, Note_on_c, 1, 65, 123
4, 174240, Note_on_c, 1, 65, 0
4, 198720, Note_on_c, 1, 72, 91
4, 200640, Note_on_c, 1, 72, 0
4, 200640, Note_on_c, 1, 70, 91
4, 202560, Note_on_c, 1, 70, 0
4, 202560, Note_on_c, 1, 69, 91
4, 206880, Note_on_c, 1, 69, 0
4, 206880, Note_on_c, 1, 69, 109
4, 207360, Note_on_c, 1, 69, 0
4, 207360, Note_on_c, 1, 69, 115
4, 207840, Note_on_c, 1, 69, 0
4, 207840, Note_on_c, 1, 69, 115
4, 208320, Note_on_c, 1, 69, 0
4, 208320, Note_on_c, 1, 68, 123
4, 209760, Note_on_c, 1, 68, 0
4, 209760, Note_on_c, 1, 68, 123
4, 210240, Note_on_c, 1, 68, 0
4, 210240, Note_on_c, 1, 67, 123
4, 210720, Note_on_c, 1, 67, 0
4, 211200, Note_on_c, 1, 68, 123
4, 211680, Note_on_c, 1, 68, 0
4, 212160, Note_on_c, 1, 70, 123
4, 212640, Note_on_c, 1, 70, 0
4, 213120, Note_on_c, 1, 72, 123
4, 213600, Note_on_c, 1, 72, 0
4, 214080, Note_on_c, 1, 67, 123
4, 214560, Note_on_c, 1, 67, 0
4, 215040, Note_on_c, 1, 65, 123
4, 215520, Note_on_c, 1, 65, 0
4, 216000, Note_on_c, 1, 68, 123
4, 217920, Note_on_c, 1, 68, 0
4, 217920, Note_on_c, 1, 67, 123
4, 218400, Note_on_c, 1, 67, 0
4, 218400, Note_on_c, 1, 67, 123
4, 218880, Note_on_c, 1, 67, 0
4, 219360, Note_on_c, 1, 65, 123
4, 219840, Note_on_c, 1, 65, 0
4, 220320, Note_on_c, 1, 67, 123
4, 220800, Note_on_c, 1, 67, 0
4, 221280, Note_on_c, 1, 65, 123
4, 221760, Note_on_c, 1, 65, 0
4, 222240, Note_on_c, 1, 67, 123
4, 222720, Note_on_c, 1, 67, 0
4, 223200, Note_on_c, 1, 65, 123
4, 223680, Note_on_c, 1, 65, 0
4, 223680, Note_on_c, 1, 67, 123
4, 223920, Note_on_c, 1, 67, 0
4, 223920, Note_on_c, 1, 67, 123
4, 224160, Note_on_c, 1, 67, 0
4, 224160, Note_on_c, 1, 67, 123
4, 224400, Note_on_c, 1, 67, 0
4, 224400, Note_on_c, 1, 67, 123
4, 224640, Note_on_c, 1, 67, 0
4, 224640, Note_on_c, 1, 63, 123
4, 224880, Note_on_c, 1, 63, 0
4, 224880, Note_on_c, 1, 70, 123
4, 225120, Note_on_c, 1, 70, 0
4, 225120, Note_on_c, 1, 70, 123
4, 225360, Note_on_c, 1, 70, 0
4, 225360, Note_on_c, 1, 70, 123
4, 225600, Note_on_c, 1, 70, 0
4, 225600, Note_on_c, 1, 67, 123
4, 225840, Note_on_c, 1, 67, 0
4, 225840, Note_on_c, 1, 63, 123
4, 226080, Note_on_c, 1, 63, 0
4, 226080, Note_on_c, 1, 63, 123
4, 226320, Note_on_c, 1, 63, 0
4, 226320, Note_on_c, 1, 63, 123
4, 226560, Note_on_c, 1, 63, 0
4, 226560, Note_on_c, 1, 58, 123
4, 227760, Note_on_c, 1, 58, 0
4, 227760, Note_on_c, 1, 67, 123
4, 228000, Note_on_c, 1, 67, 0
4, 228000, Note_on_c, 1, 67, 123
4, 228240, Note_on_c, 1, 67, 0
4, 228240, Note_on_c, 1, 67, 123
4, 228480, Note_on_c, 1, 67, 0
4, 228480, Note_on_c, 1, 63, 123
4, 228720, Note_on_c, 1, 63, 0
4, 228720, Note_on_c, 1, 70, 123
4, 228960, Note_on_c, 1, 70, 0
4, 228960, Note_on_c, 1, 70, 123
4, 229200, Note_on_c, 1, 70, 0
4, 229200, Note_on_c, 1, 70, 123
4, 229440, Note_on_c, 1, 70, 0
4, 229440, Note_on_c, 1, 67, 123
4, 229680, Note_on_c, 1, 67, 0
4, 229680, Note_on_c, 1, 63, 123
4, 229920, Note_on_c, 1, 63, 0
4, 229920, Note_on_c, 1, 63, 123
4, 230160, Note_on_c, 1, 63, 0
4, 230160, Note_on_c, 1, 63, 123
4, 230400, Note_on_c, 1, 63, 0
4, 230400, Note_on_c, 1, 58, 123
4, 231840, Note_on_c, 1, 58, 0
4, 232560, Note_on_c, 1, 65, 123
4, 232800, Note_on_c, 1, 65, 0
4, 232800, Note_on_c, 1, 65, 123
4, 233040, Note_on_c, 1, 65, 0
4, 233040, Note_on_c, 1, 65, 123
4, 233280, Note_on_c, 1, 65, 0
4, 233280, Note_on_c, 1, 67, 123
4, 233760, Note_on_c, 1, 67, 0
4, 234480, Note_on_c, 1, 70, 123
4, 234720, Note_on_c, 1, 70, 0
4, 234720, Note_on_c, 1, 70, 123
4, 234960, Note_on_c, 1, 70, 0
4, 234960, Note_on_c, 1, 70, 123
4, 235200, Note_on_c, 1, 70, 0
4, 235200, Note_on_c, 1, 67, 123
4, 235680, Note_on_c, 1, 67, 0
4, 265200, Note_on_c, 1, 66, 91
4, 265440, Note_on_c, 1, 66, 0
4, 265440, Note_on_c, 1, 66, 91
4, 265680, Note_on_c, 1, 66, 0
4, 265680, Note_on_c, 1, 69, 91
4, 265920, Note_on_c, 1, 69, 0
4, 265920, Note_on_c, 1, 67, 91
4, 266880, Note_on_c, 1, 67, 0
4, 266880, Note_on_c, 1, 66, 91
4, 267120, Note_on_c, 1, 66, 0
4, 267120, Note_on_c, 1, 66, 91
4, 267360, Note_on_c, 1, 66, 0
4, 267360, Note_on_c, 1, 66, 91
4, 267600, Note_on_c, 1, 66, 0
4, 267600, Note_on_c, 1, 69, 91
4, 267840, Note_on_c, 1, 69, 0
4, 267840, Note_on_c, 1, 67, 91
4, 268800, Note_on_c, 1, 67, 0
4, 268800, Note_on_c, 1, 66, 91
4, 269760, Note_on_c, 1, 66, 0
4, 269760, Note_on_c, 1, 67, 91
4, 270960, Note_on_c, 1, 67, 0
4, 271680, Note_on_c, 1, 66, 91
4, 272160, Note_on_c, 1, 66, 0
4, 273600, Note_on_c, 1, 66, 91
4, 274080, Note_on_c, 1, 66, 0
4, 275520, Note_on_c, 1, 67, 91
4, 276000, Note_on_c, 1, 67, 0
4, 277440, Note_on_c, 1, 67, 91
4, 277920, Note_on_c, 1, 67, 0
4, 278640, Note_on_c, 1, 67, 91
4, 278880, Note_on_c, 1, 67, 0
4, 278880, Note_on_c, 1, 69, 101
4, 279120, Note_on_c, 1, 69, 0
4, 279120, Note_on_c, 1, 70, 109
4, 279360, Note_on_c, 1, 70, 0
4, 279360, Note_on_c, 1, 69, 115
4, 281280, Note_on_c, 1, 69, 0
4, 281280, Note_on_c, 1, 69, 115
4, 281760, Note_on_c, 1, 69, 0
4, 282480, Note_on_c, 1, 70, 115
4, 282720, Note_on_c, 1, 70, 0
4, 282720, Note_on_c, 1, 70, 115
4, 282960, Note_on_c, 1, 70, 0
4, 282960, Note_on_c, 1, 70, 115
4, 283200, Note_on_c, 1, 70, 0
4, 283200, Note_on_c, 1, 70, 115
4, 285120, Note_on_c, 1, 70, 0
4, 285120, Note_on_c, 1, 70, 115
4, 285600, Note_on_c, 1, 70, 0
4, 286320, Note_on_c, 1, 70, 115
4, 286560, Note_on_c, 1, 70, 0
4, 286560, Note_on_c, 1, 70, 115
4, 286800, Note_on_c, 1, 70, 0
4, 286800, Note_on_c, 1, 70, 115
4, 287040, Note_on_c, 1, 70, 0
4, 287040, Note_on_c, 1, 70, 115
4, 287520, Note_on_c, 1, 70, 0
4, 288480, Note_on_c, 1, 70, 115
4, 288720, Note_on_c, 1, 70, 0
4, 288720, Note_on_c, 1, 70, 115
4, 288960, Note_on_c, 1, 70, 0
4, 288960, Note_on_c, 1, 70, 115
4, 289440, Note_on_c, 1, 70, 0
4, 289440, Note_on_c, 1, 69, 115
4, 289680, Note_on_c, 1, 69, 0
4, 289680, Note_on_c, 1, 69, 115
4, 289920, Note_on_c, 1, 69, 0
4, 289920, Note_on_c, 1, 69, 115
4, 290400, Note_on_c, 1, 69, 0
4, 296160, Note_on_c, 1, 66, 115
4, 296400, Note_on_c, 1, 66, 0
4, 296400, Note_on_c, 1, 66, 115
4, 296640, Note_on_c, 1, 66, 0
4, 296640, Note_on_c, 1, 66, 115
4, 297120, Note_on_c, 1, 66, 0
4, 297120, Note_on_c, 1, 69, 115
4, 297360, Note_on_c, 1, 69, 0
4, 297360, Note_on_c, 1, 69, 115
4, 297600, Note_on_c, 1, 69, 0
4, 297600, Note_on_c, 1, 71, 115
4, 298080, Note_on_c, 1, 71, 0
4, 303840, Note_on_c, 1, 65, 115
4, 304080, Note_on_c, 1, 65, 0
4, 304080, Note_on_c, 1, 65, 115
4, 304320, Note_on_c, 1, 65, 0
4, 304320, Note_on_c, 1, 65, 115
4, 304800, Note_on_c, 1, 65, 0
4, 305520, Note_on_c, 1, 72, 123
4, 305760, Note_on_c, 1, 72, 0
4, 305760, Note_on_c, 1, 72, 123
4, 306000, Note_on_c, 1, 72, 0
4, 306000, Note_on_c, 1, 72, 123
4, 306240, Note_on_c, 1, 72, 0
4, 306240, Note_on_c, 1, 65, 123
4, 307200, Note_on_c, 1, 65, 0
4, 307200, Note_on_c, 1, 67, 123
4, 308160, Note_on_c, 1, 67, 0
4, 310080, Note_on_c, 1, 65, 123
4, 311040, Note_on_c, 1, 65, 0
4, 311040, Note_on_c, 1, 67, 123
4, 312000, Note_on_c, 1, 67, 0
4, 313920, Note_on_c, 1, 65, 123
4, 314880, Note_on_c, 1, 65, 0
4, 314880, Note_on_c, 1, 66, 123
4, 315840, Note_on_c, 1, 66, 0
4, 317760, Note_on_c, 1, 69, 123
4, 318720, Note_on_c, 1, 69, 0
4, 318720, Note_on_c, 1, 70, 123
4, 319680, Note_on_c, 1, 70, 0
4, 326400, Note_on_c, 1, 69, 91
4, 327360, Note_on_c, 1, 69, 0
4, 328320, Note_on_c, 1, 69, 91
4, 329280, Note_on_c, 1, 69, 0
4, 330240, Note_on_c, 1, 69, 78
4, 331200, Note_on_c, 1, 69, 0
4, 332160, Note_on_c, 1, 69, 78
4, 333120, Note_on_c, 1, 69, 0
4, 334080, Note_on_c, 1, 69, 78
4, 335040, Note_on_c, 1, 69, 0
4, 336000, Note_on_c, 1, 69, 78
4, 336960, Note_on_c, 1, 69, 0
4, 337200, Note_on_c, 1, 74, 123
4, 337440, Note_on_c, 1, 74, 0
4, 337440, Note_on_c, 1, 74, 123
4, 337680, Note_on_c, 1, 74, 0
4, 337680, Note_on_c, 1, 74, 123
4, 337920, Note_on_c, 1, 74, 0
4, 337920, Note_on_c, 1, 71, 123
4, 338880, Note_on_c, 1, 71, 0
4, 338880, Note_on_c, 1, 72, 123
4, 339840, Note_on_c, 1, 72, 0
4, 339840, Note_on_c, 1, 69, 123
4, 341760, Note_on_c, 1, 69, 0
4, 341760, Note_on_c, 1, 68, 78
4, 342720, Note_on_c, 1, 68, 0
4, 343680, Note_on_c, 1, 68, 78
4, 344640, Note_on_c, 1, 68, 0
4, 345600, Note_on_c, 1, 68, 78
4, 346560, Note_on_c, 1, 68, 0
4, 347520, Note_on_c, 1, 68, 78
4, 348480, Note_on_c, 1, 68, 0
4, 349680, Note_on_c, 1, 68, 123
4, 349920, Note_on_c, 1, 68, 0
4, 349920, Note_on_c, 1, 68, 123
4, 350160, Note_on_c, 1, 68, 0
4, 350160, Note_on_c, 1, 68, 123
4, 350400, Note_on_c, 1, 68, 0
4, 350400, Note_on_c, 1, 65, 123
4, 351600, Note_on_c, 1, 65, 0
4, 351600, Note_on_c, 1, 68, 123
4, 351840, Note_on_c, 1, 68, 0
4, 351840, Note_on_c, 1, 68, 123
4, 352080, Note_on_c, 1, 68, 0
4, 352080, Note_on_c, 1, 68, 123
4, 352320, Note_on_c, 1, 68, 0
4, 352320, Note_on_c, 1, 65, 123
4, 353520, Note_on_c, 1, 65, 0
4, 353520, Note_on_c, 1, 68, 123
4, 353760, Note_on_c, 1, 68, 0
4, 353760, Note_on_c, 1, 68, 123
4, 354000, Note_on_c, 1, 68, 0
4, 354000, Note_on_c, 1, 68, 123
4, 354240, Note_on_c, 1, 68, 0
4, 354240, Note_on_c, 1, 65, 123
4, 354480, Note_on_c, 1, 65, 0
4, 354480, Note_on_c, 1, 68, 123
4, 354720, Note_on_c, 1, 68, 0
4, 354720, Note_on_c, 1, 68, 123
4, 354960, Note_on_c, 1, 68, 0
4, 354960, Note_on_c, 1, 68, 123
4, 355200, Note_on_c, 1, 68, 0
4, 355200, Note_on_c, 1, 65, 123
4, 355440, Note_on_c, 1, 65, 0
4, 355440, Note_on_c, 1, 68, 123
4, 355680, Note_on_c, 1, 68, 0
4, 355680, Note_on_c, 1, 68, 123
4, 355920, Note_on_c, 1, 68, 0
4, 355920, Note_on_c, 1, 68, 123
4, 356160, Note_on_c, 1, 68, 0
4, 356160, Note_on_c, 1, 65, 123
4, 356400, Note_on_c, 1, 65, 0
4, 356400, Note_on_c, 1, 67, 123
4, 356640, Note_on_c, 1, 67, 0
4, 356640, Note_on_c, 1, 67, 123
4, 356880, Note_on_c, 1, 67, 0
4, 356880, Note_on_c, 1, 67, 123
4, 357120, Note_on_c, 1, 67, 0
4, 357120, Note_on_c, 1, 67, 123
4, 358080, Note_on_c, 1, 67, 0
4, 358320, Note_on_c, 1, 67, 123
4, 358560, Note_on_c, 1, 67, 0
4, 358560, Note_on_c, 1, 67, 123
4, 358800, Note_on_c, 1, 67, 0
4, 358800, Note_on_c, 1, 67, 123
4, 359040, Note_on_c, 1, 67, 0
4, 359040, Note_on_c, 1, 67, 123
4, 360960, Note_on_c, 1, 67, 0
4, 361920, Note_on_c, 1, 60, 91
4, 365760, Note_on_c, 1, 60, 0
4, 365760, Note_on_c, 1, 62, 91
4, 369600, Note_on_c, 1, 62, 0
4, 369600, Note_on_c, 1, 63, 91
4, 370560, Note_on_c, 1, 63, 0
4, 370560, Note_on_c, 1, 62, 91
4, 371520, Note_on_c, 1, 62, 0
4, 371520, Note_on_c, 1, 60, 91
4, 372480, Note_on_c, 1, 60, 0
4, 372480, Note_on_c, 1, 58, 91
4, 372960, Note_on_c, 1, 58, 0
4, 372960, Note_on_c, 1, 60, 91
4, 373200, Note_on_c, 1, 60, 0
4, 373200, Note_on_c, 1, 62, 91
4, 373440, Note_on_c, 1, 62, 0
4, 373440, Note_on_c, 1, 63, 91
4, 374400, Note_on_c, 1, 63, 0
4, 374400, Note_on_c, 1, 60, 91
4, 375360, Note_on_c, 1, 60, 0
4, 375360, Note_on_c, 1, 67, 115
4, 375840, Note_on_c, 1, 67, 0
4, 376800, Note_on_c, 1, 65, 109
4, 377280, Note_on_c, 1, 65, 0
4, 377280, Note_on_c, 1, 63, 109
4, 377760, Note_on_c, 1, 63, 0
4, 377760, Note_on_c, 1, 62, 101
4, 378240, Note_on_c, 1, 62, 0
4, 378240, Note_on_c, 1, 63, 101
4, 378360, Note_on_c, 1, 63, 0
4, 378360, Note_on_c, 1, 62, 91
4, 378480, Note_on_c, 1, 62, 0
4, 378480, Note_on_c, 1, 60, 91
4, 378600, Note_on_c, 1, 60, 0
4, 378600, Note_on_c, 1, 62, 91
4, 378720, Note_on_c, 1, 62, 0
4, 378720, Note_on_c, 1, 65, 78
4, 379200, Note_on_c, 1, 65, 0
4, 379200, Note_on_c, 1, 63, 78
4, 379680, Note_on_c, 1, 63, 0
4, 379680, Note_on_c, 1, 62, 63
4, 380160, Note_on_c, 1, 62, 0
4, 381120, Note_on_c, 1, 65, 91
4, 384000, Note_on_c, 1, 65, 0
4, 384000, Note_on_c, 1, 63, 91
4, 384480, Note_on_c, 1, 63, 0
4, 385920, Note_on_c, 1, 71, 91
4, 387840, Note_on_c, 1, 71, 0
4, 387840, Note_on_c, 1, 72, 115
4, 388320, Note_on_c, 1, 72, 0
4, 389760, Note_on_c, 1, 68, 115
4, 390240, Note_on_c, 1, 68, 0
4, 390960, Note_on_c, 1, 67, 115
4, 391200, Note_on_c, 1, 67, 0
4, 391200, Note_on_c, 1, 67, 115
4, 391440, Note_on_c, 1, 67, 0
4, 391440, Note_on_c, 1, 67, 115
4, 391680, Note_on_c, 1, 67, 0
4, 391680, Note_on_c, 1, 67, 115
4, 392160, Note_on_c, 1, 67, 0
4, 392640, Note_on_c, 1, 68, 115
4, 393120, Note_on_c, 1, 68, 0
4, 393600, Note_on_c, 1, 67, 115
4, 394080, Note_on_c, 1, 67, 0
4, 394560, Note_on_c, 1, 68, 115
4, 395040, Note_on_c, 1, 68, 0
4, 395520, Note_on_c, 1, 70, 115
4, 396000, Note_on_c, 1, 70, 0
4, 396480, Note_on_c, 1, 68, 115
4, 396960, Note_on_c, 1, 68, 0
4, 397440, Note_on_c, 1, 68, 115
4, 397920, Note_on_c, 1, 68, 0
4, 398400, Note_on_c, 1, 67, 115
4, 402240, Note_on_c, 1, 67, 0
4, 402240, Note_on_c, 1, 67, 115
4, 405600, Note_on_c, 1, 67, 0
4, 405600, Note_on_c, 1, 67, 115
4, 406080, Note_on_c, 1, 67, 0
4, 406080, Note_on_c, 1, 69, 123
4, 409920, Note_on_c, 1, 69, 0
4, 409920, Note_on_c, 1, 69, 123
4, 410400, Note_on_c, 1, 69, 0
4, 411840, Note_on_c, 1, 67, 123
4, 412320, Note_on_c, 1, 67, 0
4, 420480, Note_on_c, 1, 64, 91
4, 421440, Note_on_c, 1, 64, 0
4, 421440, Note_on_c, 1, 65, 91
4, 422400, Note_on_c, 1, 65, 0
4, 422400, Note_on_c, 1, 65, 91
4, 423360, Note_on_c, 1, 65, 0
4, 423360, Note_on_c, 1, 64, 91
4, 424320, Note_on_c, 1, 64, 0
4, 428160, Note_on_c, 1, 64, 91
4, 429120, Note_on_c, 1, 64, 0
4, 429120, Note_on_c, 1, 65, 91
4, 430080, Note_on_c, 1, 65, 0
4, 430080, Note_on_c, 1, 65, 91
4, 431040, Note_on_c, 1, 65, 0
4, 431040, Note_on_c, 1, 64, 91
4, 432000, Note_on_c, 1, 64, 0
4, 454080, Note_on_c, 1, 71, 123
4, 455520, Note_on_c, 1, 71, 0
4, 455520, Note_on_c, 1, 74, 123
4, 456000, Note_on_c, 1, 74, 0
4, 456000, Note_on_c, 1, 72, 123
4, 456480, Note_on_c, 1, 72, 0
4, 456960, Note_on_c, 1, 67, 123
4, 457440, Note_on_c, 1, 67, 0
4, 457920, Note_on_c, 1, 67, 123
4, 458400, Note_on_c, 1, 67, 0
4, 458880, Note_on_c, 1, 72, 123
4, 459360, Note_on_c, 1, 72, 0
4, 459840, Note_on_c, 1, 72, 123
4, 460320, Note_on_c, 1, 72, 0
4, 460800, Note_on_c, 1, 71, 123
4, 461280, Note_on_c, 1, 71, 0
4, 461760, Note_on_c, 1, 74, 123
4, 463680, Note_on_c, 1, 74, 0
4, 463680, Note_on_c, 1, 72, 123
4, 464160, Note_on_c, 1, 72, 0
4, 464160, Note_on_c, 1, 72, 123
4, 464640, Note_on_c, 1, 72, 0
4, 465120, Note_on_c, 1, 71, 123
4, 465600, Note_on_c, 1, 71, 0
4, 466080, Note_on_c, 1, 72, 123
4, 466560, Note_on_c, 1, 72, 0
4, 467040, Note_on_c, 1, 72, 123
4, 467520, Note_on_c, 1, 72, 0
4, 468000, Note_on_c, 1, 72, 123
4, 468480, Note_on_c, 1, 72, 0
4, 468960, Note_on_c, 1, 71, 123
4, 469440, Note_on_c, 1, 71, 0
4, 469440, Note_on_c, 1, 72, 123
4, 469680, Note_on_c, 1, 72, 0
4, 469680, Note_on_c, 1, 64, 123
4, 469920, Note_on_c, 1, 64, 0
4, 469920, Note_on_c, 1, 64, 123
4, 470160, Note_on_c, 1, 64, 0
4, 470160, Note_on_c, 1, 64, 123
4, 470400, Note_on_c, 1, 64, 0
4, 470400, Note_on_c, 1, 60, 123
4, 470640, Note_on_c, 1, 60, 0
4, 470640, Note_on_c, 1, 67, 123
4, 470880, Note_on_c, 1, 67, 0
4, 470880, Note_on_c, 1, 67, 123
4, 471120, Note_on_c, 1, 67, 0
4, 471120, Note_on_c, 1, 67, 123
4, 471360, Note_on_c, 1, 67, 0
4, 471360, Note_on_c, 1, 64, 123
4, 471600, Note_on_c, 1, 64, 0
4, 471600, Note_on_c, 1, 60, 123
4, 471840, Note_on_c, 1, 60, 0
4, 471840, Note_on_c, 1, 60, 123
4, 472080, Note_on_c, 1, 60, 0
4, 472080, Note_on_c, 1, 60, 123
4, 472320, Note_on_c, 1, 60, 0
4, 472320, Note_on_c, 1, 55, 123
4, 473520, Note_on_c, 1, 55, 0
4, 473520, Note_on_c, 1, 64, 123
4, 473760, Note_on_c, 1, 64, 0
4, 473760, Note_on_c, 1, 64, 123
4, 474000, Note_on_c, 1, 64, 0
4, 474000, Note_on_c, 1, 64, 123
4, 474240, Note_on_c, 1, 64, 0
4, 474240, Note_on_c, 1, 60, 123
4, 474480, Note_on_c, 1, 60, 0
4, 474480, Note_on_c, 1, 67, 123
4, 474720, Note_on_c, 1, 67, 0
4, 474720, Note_on_c, 1, 67, 123
4, 474960, Note_on_c, 1, 67, 0
4, 474960, Note_on_c, 1, 67, 123
4, 475200, Note_on_c, 1, 67, 0
4, 475200, Note_on_c, 1, 64, 123
4, 475440, Note_on_c, 1, 64, 0
4, 475440, Note_on_c, 1, 60, 123
4, 475680, Note_on_c, 1, 60, 0
4, 475680, Note_on_c, 1, 60, 123
4, 475920, Note_on_c, 1, 60, 0
4, 475920, Note_on_c, 1, 60, 123
4, 476160, Note_on_c, 1, 60, 0
4, 476160, Note_on_c, 1, 55, 123
4, 476400, Note_on_c, 1, 55, 0
4, 476400, Note_on_c, 1, 62, 123
4, 476640, Note_on_c, 1, 62, 0
4, 476640, Note_on_c, 1, 62, 123
4, 476880, Note_on_c, 1, 62, 0
4, 476880, Note_on_c, 1, 62, 123
4, 477120, Note_on_c, 1, 62, 0
4, 477120, Note_on_c, 1, 64, 123
4, 477600, Note_on_c, 1, 64, 0
4, 478320, Note_on_c, 1, 62, 123
4, 478560, Note_on_c, 1, 62, 0
4, 478560, Note_on_c, 1, 62, 123
4, 478800, Note_on_c, 1, 62, 0
4, 478800, Note_on_c, 1, 62, 123
4, 479040, Note_on_c, 1, 62, 0
4, 479040, Note_on_c, 1, 64, 123
4, 479520, Note_on_c, 1, 64, 0
4, 480240, Note_on_c, 1, 67, 123
4, 480480, Note_on_c, 1, 67, 0
4, 480480, Note_on_c, 1, 67, 123
4, 480720, Note_on_c, 1, 67, 0
4, 480720, Note_on_c, 1, 67, 123
4, 480960, Note_on_c, 1, 67, 0
4, 480960, Note_on_c, 1, 67, 123
4, 481200, Note_on_c, 1, 67, 0
4, 481200, Note_on_c, 1, 72, 123
4, 481440, Note_on_c, 1, 72, 0
4, 481440, Note_on_c, 1, 72, 123
4, 481680, Note_on_c, 1, 72, 0
4, 481680, Note_on_c, 1, 72, 123
4, 481920, Note_on_c, 1, 72, 0
4, 481920, Note_on_c, 1, 72, 123
4, 483120, Note_on_c, 1, 72, 0
4, 483120, Note_on_c, 1, 72, 123
4, 483360, Note_on_c, 1, 72, 0
4, 483360, Note_on_c, 1, 72, 123
4, 483600, Note_on_c, 1, 72, 0
4, 483600, Note_on_c, 1, 72, 123
4, 483840, Note_on_c, 1, 72, 0
4, 483840, Note_on_c, 1, 72, 123
4, 485040, Note_on_c, 1, 72, 0
4, 485040, Note_on_c, 1, 72, 123
4, 485280, Note_on_c, 1, 72, 0
4, 485280, Note_on_c, 1, 72, 123
4, 485520, Note_on_c, 1, 72, 0
4, 485520, Note_on_c, 1, 72, 123
4, 485760, Note_on_c, 1, 72, 0
4, 485760, Note_on_c, 1, 72, 123
4, 486960, Note_on_c, 1, 72, 0
4, 486960, Note_on_c, 1, 72, 123
4, 487200, Note_on_c, 1, 72, 0
4, 487200, Note_on_c, 1, 72, 123
4, 487440, Note_on_c, 1, 72, 0
4, 487440, Note_on_c, 1, 72, 123
4, 487680, Note_on_c, 1, 72, 0
4, 487680, Note_on_c, 1, 72, 123
4, 488640, Note_on_c, 1, 72, 0
4, 488640, Note_on_c, 1, 73, 123
4, 489120, Note_on_c, 1, 73, 0
4, 489120, Note_on_c, 1, 68, 123
4, 492480, Note_on_c, 1, 68, 0
4, 492480, Note_on_c, 1, 68, 123
4, 492960, Note_on_c, 1, 68, 0
4, 496560, Note_on_c, 1, 69, 123
4, 496800, Note_on_c, 1, 69, 0
4, 496800, Note_on_c, 1, 69, 123
4, 497040, Note_on_c, 1, 69, 0
4, 497040, Note_on_c, 1, 69, 123
4, 497280, Note_on_c, 1, 69, 0
4, 497280, Note_on_c, 1, 69, 123
4, 501120, Note_on_c, 1, 69, 0
4, 501120, Note_on_c, 1, 69, 123
4, 501600, Note_on_c, 1, 69, 0
4, 502320, Note_on_c, 1, 60, 123
4, 502560, Note_on_c, 1, 60, 0
4, 502560, Note_on_c, 1, 60, 123
4, 502800, Note_on_c, 1, 60, 0
4, 502800, Note_on_c, 1, 60, 123
4, 503040, Note_on_c, 1, 60, 0
4, 503040, Note_on_c, 1, 63, 123
4, 503520, Note_on_c, 1, 63, 0
4, 506880, Note_on_c, 1, 71, 115
4, 508800, Note_on_c, 1, 71, 0
4, 510720, Note_on_c, 1, 71, 115
4, 512640, Note_on_c, 1, 71, 0
4, 516480, Note_on_c, 1, 72, 115
4, 516960, Note_on_c, 1, 72, 0
4, 516960, Note_on_c, 1, 74, 115
4, 517440, Note_on_c, 1, 74, 0
4, 517440, Note_on_c, 1, 70, 115
4, 517920, Note_on_c, 1, 70, 0
4, 517920, Note_on_c, 1, 72, 115
4, 518400, Note_on_c, 1, 72, 0
4, 518400, Note_on_c, 1, 68, 115
4, 518880, Note_on_c, 1, 68, 0
4, 518880, Note_on_c, 1, 70, 115
4, 519360, Note_on_c, 1, 70, 0
4, 519360, Note_on_c, 1, 67, 115
4, 519840, Note_on_c, 1, 67, 0
4, 519840, Note_on_c, 1, 68, 115
4, 520320, Note_on_c, 1, 68, 0
4, 520320, Note_on_c, 1, 65, 115
4, 520800, Note_on_c, 1, 65, 0
4, 520800, Note_on_c, 1, 63, 115
4, 521280, Note_on_c, 1, 63, 0
4, 521280, Note_on_c, 1, 62, 115
4, 521760, Note_on_c, 1, 62, 0
4, 521760, Note_on_c, 1, 63, 115
4, 522240, Note_on_c, 1, 63, 0
4, 522240, Note_on_c, 1, 65, 115
4, 522720, Note_on_c, 1, 65, 0
4, 522720, Note_on_c, 1, 63, 115
4, 523200, Note_on_c, 1, 63, 0
4, 523200, Note_on_c, 1, 65, 115
4, 523680, Note_on_c, 1, 65, 0
4, 523680, Note_on_c, 1, 67, 115
4, 524160, Note_on_c, 1, 67, 0
4, 524160, Note_on_c, 1, 68, 115
4, 524640, Note_on_c, 1, 68, 0
4, 524640, Note_on_c, 1, 67, 115
4, 525120, Note_on_c, 1, 67, 0
4, 525120, Note_on_c, 1, 68, 115
4, 525600, Note_on_c, 1, 68, 0
4, 525600, Note_on_c, 1, 65, 115
4, 526080, Note_on_c, 1, 65, 0
4, 526080, Note_on_c, 1, 65, 115
4, 526560, Note_on_c, 1, 65, 0
4, 526560, Note_on_c, 1, 65, 115
4, 527040, Note_on_c, 1, 65, 0
4, 527040, Note_on_c, 1, 65, 115
4, 527520, Note_on_c, 1, 65, 0
4, 527520, Note_on_c, 1, 65, 115
4, 528000, Note_on_c, 1, 65, 0
4, 528000, Note_on_c, 1, 63, 115
4, 529920, Note_on_c, 1, 63, 0
4, 529920, Note_on_c, 1, 65, 115
4, 531840, Note_on_c, 1, 65, 0
4, 531840, Note_on_c, 1, 67, 115
4, 533760, Note_on_c, 1, 67, 0
4, 533760, Note_on_c, 1, 68, 115
4, 534720, Note_on_c, 1, 68, 0
4, 534720, Note_on_c, 1, 65, 115
4, 535680, Note_on_c, 1, 65, 0
4, 535680, Note_on_c, 1, 65, 115
4, 536640, Note_on_c, 1, 65, 0
4, 536640, Note_on_c, 1, 67, 115
4, 537600, Note_on_c, 1, 67, 0
4, 537600, Note_on_c, 1, 67, 115
4, 538080, Note_on_c, 1, 67, 0
4, 538560, Note_on_c, 1, 72, 115
4, 539040, Note_on_c, 1, 72, 0
4, 539520, Note_on_c, 1, 72, 115
4, 540000, Note_on_c, 1, 72, 0
4, 540480, Note_on_c, 1, 72, 115
4, 540960, Note_on_c, 1, 72, 0
4, 541440, Note_on_c, 1, 72, 115
4, 541920, Note_on_c, 1, 72, 0
4, 542400, Note_on_c, 1, 71, 115
4, 542880, Note_on_c, 1, 71, 0
4, 543360, Note_on_c, 1, 72, 123
4, 544320, Note_on_c, 1, 72, 0
4, 544320, Note_on_c, 1, 72, 123
4, 544800, Note_on_c, 1, 72, 0
4, 544800, Note_on_c, 1, 72, 123
4, 545280, Note_on_c, 1, 72, 0
4, 545280, Note_on_c, 1, 72, 123
4, 546240, Note_on_c, 1, 72, 0
4, 548160, Note_on_c, 1, 72, 123
4, 548640, Note_on_c, 1, 72, 0
4, 548640, Note_on_c, 1, 72, 123
4, 549120, Note_on_c, 1, 72, 0
4, 549120, Note_on_c, 1, 72, 123
4, 550080, Note_on_c, 1, 72, 0
4, 552000, Note_on_c, 1, 67, 123
4, 552480, Note_on_c, 1, 67, 0
4, 552480, Note_on_c, 1, 67, 123
4, 552960, Note_on_c, 1, 67, 0
4, 552960, Note_on_c, 1, 67, 123
4, 553920, Note_on_c, 1, 67, 0
4, 555840, Note_on_c, 1, 67, 123
4, 556320, Note_on_c, 1, 67, 0
4, 556320, Note_on_c, 1, 67, 123
4, 556800, Note_on_c, 1, 67, 0
4, 556800, Note_on_c, 1, 67, 123
4, 557760, Note_on_c, 1, 67, 0
4, 557760, Note_on_c, 1, 72, 123
4, 558240, Note_on_c, 1, 72, 0
4, 558240, Note_on_c, 1, 70, 123
4, 558720, Note_on_c, 1, 70, 0
4, 558720, Note_on_c, 1, 68, 123
4, 559200, Note_on_c, 1, 68, 0
4, 559200, Note_on_c, 1, 67, 123
4, 559680, Note_on_c, 1, 67, 0
4, 560640, Note_on_c, 1, 68, 123
4, 561120, Note_on_c, 1, 68, 0
4, 561120, Note_on_c, 1, 67, 123
4, 561600, Note_on_c, 1, 67, 0
4, 561600, Note_on_c, 1, 72, 123
4, 562080, Note_on_c, 1, 72, 0
4, 562080, Note_on_c, 1, 72, 123
4, 562560, Note_on_c, 1, 72, 0
4, 563040, Note_on_c, 1, 72, 123
4, 563520, Note_on_c, 1, 72, 0
4, 564000, Note_on_c, 1, 71, 123
4, 564480, Note_on_c, 1, 71, 0
4, 567360, Note_on_c, 1, 68, 123
4, 567840, Note_on_c, 1, 68, 0
4, 567840, Note_on_c, 1, 67, 123
4, 568320, Note_on_c, 1, 67, 0
4, 569280, Note_on_c, 1, 72, 123
4, 569760, Note_on_c, 1, 72, 0
4, 569760, Note_on_c, 1, 72, 123
4, 570240, Note_on_c, 1, 72, 0
4, 570720, Note_on_c, 1, 72, 123
4, 571200, Note_on_c, 1, 72, 0
4, 571680, Note_on_c, 1, 71, 123
4, 572160, Note_on_c, 1, 71, 0
4, 572160, Note_on_c, 1, 72, 123
4, 572640, Note_on_c, 1, 72, 0
4, 573360, Note_on_c, 1, 71, 123
4, 573600, Note_on_c, 1, 71, 0
4, 573600, Note_on_c, 1, 71, 123
4, 573840, Note_on_c, 1, 71, 0
4, 573840, Note_on_c, 1, 71, 123
4, 574080, Note_on_c, 1, 71, 0
4, 574080, Note_on_c, 1, 71, 123
4, 575520, Note_on_c, 1, 71, 0
4, 575520, Note_on_c, 1, 72, 123
4, 576000, Note_on_c, 1, 72, 0
4, 576000, Note_on_c, 1, 74, 123
4, 576480, Note_on_c, 1, 74, 0
4, 576480, Note_on_c, 1, 71, 123
4, 576960, Note_on_c, 1, 71, 0
4, 576960, Note_on_c, 1, 72, 123
4, 577440, Note_on_c, 1, 72, 0
4, 577440, Note_on_c, 1, 74, 123
4, 577920, Note_on_c, 1, 74, 0
4, 577920, Note_on_c, 1, 72, 123
4, 578400, Note_on_c, 1, 72, 0
4, 579120, Note_on_c, 1, 67, 123
4, 579360, Note_on_c, 1, 67, 0
4, 579360, Note_on_c, 1, 67, 123
4, 579600, Note_on_c, 1, 67, 0
4, 579600, Note_on_c, 1, 67, 123
4, 579840, Note_on_c, 1, 67, 0
4, 579840, Note_on_c, 1, 67, 123
4, 580080, Note_on_c, 1, 67, 0
4, 580080, Note_on_c, 1, 67, 123
4, 580320, Note_on_c, 1, 67, 0
4, 580320, Note_on_c, 1, 67, 123
4, 580560, Note_on_c, 1, 67, 0
4, 580560, Note_on_c, 1, 67, 123
4, 580800, Note_on_c, 1, 67, 0
4, 580800, Note_on_c, 1, 67, 123
4, 581040, Note_on_c, 1, 67, 0
4, 581040, Note_on_c, 1, 67, 123
4, 581280, Note_on_c, 1, 67, 0
4, 581280, Note_on_c, 1, 67, 123
4, 581520, Note_on_c, 1, 67, 0
4, 581520, Note_on_c, 1, 67, 123
4, 581760, Note_on_c, 1, 67, 0
4, 581760, Note_on_c, 1, 67, 123
4, 582720, Note_on_c, 1, 67, 0
4, 582960, Note_on_c, 1, 67, 123
4, 583200, Note_on_c, 1, 67, 0
4, 583200, Note_on_c, 1, 67, 123
4, 583440, Note_on_c, 1, 67, 0
4, 583440, Note_on_c, 1, 67, 123
4, 583680, Note_on_c, 1, 67, 0
4, 583680, Note_on_c, 1, 67, 123
4, 585600, Note_on_c, 1, 67, 0
4, 588960, Note_on_c, 1, 68, 91
4, 589440, Note_on_c, 1, 68, 0
4, 589440, Note_on_c, 1, 67, 91
4, 590400, Note_on_c, 1, 67, 0
4, 592800, Note_on_c, 1, 68, 91
4, 593280, Note_on_c, 1, 68, 0
4, 593280, Note_on_c, 1, 67, 91
4, 593520, Note_on_c, 1, 67, 0
4, 593520, Note_on_c, 1, 67, 123
4, 593760, Note_on_c, 1, 67, 0
4, 593760, Note_on_c, 1, 67, 123
4, 594000, Note_on_c, 1, 67, 0
4, 594000, Note_on_c, 1, 67, 123
4, 594240, Note_on_c, 1, 67, 0
4, 594240, Note_on_c, 1, 67, 123
4, 594720, Note_on_c, 1, 67, 0
4, 595440, Note_on_c, 1, 71, 123
4, 595680, Note_on_c, 1, 71, 0
4, 595680, Note_on_c, 1, 71, 123
4, 595920, Note_on_c, 1, 71, 0
4, 595920, Note_on_c, 1, 71, 123
4, 596160, Note_on_c, 1, 71, 0
4, 596160, Note_on_c, 1, 72, 123
4, 596640, Note_on_c, 1, 72, 0
4, 597360, Note_on_c, 1, 71, 123
4, 597600, Note_on_c, 1, 71, 0
4, 597600, Note_on_c, 1, 71, 123
4, 597840, Note_on_c, 1, 71, 0
4, 597840, Note_on_c, 1, 71, 123
4, 598080, Note_on_c, 1, 71, 0
4, 598080, Note_on_c, 1, 72, 123
4, 598560, Note_on_c, 1, 72, 0
4, 598560, Note_on_c, 1, 71, 123
4, 599040, Note_on_c, 1, 71, 0
4, 599040, Note_on_c, 1, 72, 123
4, 599520, Note_on_c, 1, 72, 0
4, 599520, Note_on_c, 1, 71, 123
4, 600000, Note_on_c, 1, 71, 0
4, 600000, Note_on_c, 1, 72, 123
4, 600480, Note_on_c, 1, 72, 0
4, 600480, Note_on_c, 1, 71, 123
4, 600960, Note_on_c, 1, 71, 0
4, 600960, Note_on_c, 1, 72, 123
4, 601440, Note_on_c, 1, 72, 0
4, 601440, Note_on_c, 1, 71, 123
4, 601920, Note_on_c, 1, 71, 0
4, 601920, Note_on_c, 1, 72, 123
4, 602400, Note_on_c, 1, 72, 0
4, 602880, Note_on_c, 1, 71, 123
4, 603360, Note_on_c, 1, 71, 0
4, 603840, Note_on_c, 1, 72, 123
4, 604320, Note_on_c, 1, 72, 0
4, 604320, End_track
5, 0, Start_track
5, 0, MIDI_port, 0
5, 0, Title_t, "Oboe 2"
5, 16560, Note_on_c, 1, 62, 91
5, 16800, Note_on_c, 1, 62, 0
5, 16800, Note_on_c, 1, 62, 101
5, 17040, Note_on_c, 1, 62, 0
5, 17040, Note_on_c, 1, 62, 109
5, 17280, Note_on_c, 1, 62, 0
5, 17280, Note_on_c, 1, 60, 115
5, 17760, Note_on_c, 1, 60, 0
5, 18240, Note_on_c, 1, 60, 115
5, 18720, Note_on_c, 1, 60, 0
5, 19200, Note_on_c, 1, 59, 115
5, 19680, Note_on_c, 1, 59, 0
5, 20400, Note_on_c, 1, 68, 123
5, 20640, Note_on_c, 1, 68, 0
5, 20640, Note_on_c, 1, 68, 123
5, 20880, Note_on_c, 1, 68, 0
5, 20880, Note_on_c, 1, 68, 123
5, 21120, Note_on_c, 1, 68, 0
5, 21120, Note_on_c, 1, 65, 123
5, 23040, Note_on_c, 1, 65, 0
5, 30000, Note_on_c, 1, 65, 91
5, 30240, Note_on_c, 1, 65, 0
5, 30240, Note_on_c, 1, 65, 91
5, 30480, Note_on_c, 1, 65, 0
5, 30480, Note_on_c, 1, 65, 91
5, 30720, Note_on_c, 1, 65, 0
5, 30720, Note_on_c, 1, 63, 91
5, 31200, Note_on_c, 1, 63, 0
5, 33600, Note_on_c, 1, 63, 91
5, 35040, Note_on_c, 1, 63, 0
5, 35520, Note_on_c, 1, 65, 91
5, 36000, Note_on_c, 1, 65, 0
5, 36480, Note_on_c, 1, 64, 91
5, 36960, Note_on_c, 1, 64, 0
5, 37440, Note_on_c, 1, 65, 91
5, 37920, Note_on_c, 1, 65, 0
5, 38400, Note_on_c, 1, 67, 91
5, 38880, Note_on_c, 1, 67, 0
5, 39360, Note_on_c, 1, 65, 91
5, 39840, Note_on_c, 1, 65, 0
5, 40320, Note_on_c, 1, 65, 91
5, 40800, Note_on_c, 1, 65, 0
5, 41280, Note_on_c, 1, 63, 115
5, 45120, Note_on_c, 1, 63, 0
5, 45120, Note_on_c, 1, 65, 115
5, 48480, Note_on_c, 1, 65, 0
5, 48480, Note_on_c, 1, 63, 115
5, 48960, Note_on_c, 1, 63, 0
5, 48960, Note_on_c, 1, 63, 123
5, 52800, Note_on_c, 1, 63, 0
5, 52800, Note_on_c, 1, 63, 123
5, 53280, Note_on_c, 1, 63, 0
5, 54720, Note_on_c, 1, 58, 123
5, 55200, Note_on_c, 1, 58, 0
5, 79680, Note_on_c, 1, 72, 91
5, 81600, Note_on_c, 1, 72, 0
5, 81600, Note_on_c, 1, 70, 91
5, 83520, Note_on_c, 1, 70, 0
5, 83520, Note_on_c, 1, 69, 91
5, 87840, Note_on_c, 1, 69, 0
5, 87840, Note_on_c, 1, 69, 109
5, 88320, Note_on_c, 1, 69, 0
5, 88320, Note_on_c, 1, 69, 115
5, 88800, Note_on_c, 1, 69, 0
5, 88800, Note_on_c, 1, 69, 115
5, 89280, Note_on_c, 1, 69, 0
5, 89280, Note_on_c, 1, 65, 123
5, 90720, Note_on_c, 1, 65, 0
5, 90720, Note_on_c, 1, 65, 123
5, 91200, Note_on_c, 1, 65, 0
5, 91200, Note_on_c, 1, 63, 123
5, 91680, Note_on_c, 1, 63, 0
5, 92160, Note_on_c, 1, 68, 123
5, 92640, Note_on_c, 1, 68, 0
5, 93120, Note_on_c, 1, 63, 123
5, 93600, Note_on_c, 1, 63, 0
5, 94080, Note_on_c, 1, 63, 123
5, 94560, Note_on_c, 1, 63, 0
5, 95040, Note_on_c, 1, 63, 123
5, 95520, Note_on_c, 1, 63, 0
5, 96000, Note_on_c, 1, 62, 123
5, 96480, Note_on_c, 1, 62, 0
5, 96960, Note_on_c, 1, 65, 123
5, 98880, Note_on_c, 1, 65, 0
5, 98880, Note_on_c, 1, 63, 123
5, 99360, Note_on_c, 1, 63, 0
5, 99360, Note_on_c, 1, 63, 123
5, 99840, Note_on_c, 1, 63, 0
5, 100320, Note_on_c, 1, 62, 123
5, 100800, Note_on_c, 1, 62, 0
5, 101280, Note_on_c, 1, 63, 123
5, 101760, Note_on_c, 1, 63, 0
5, 102240, Note_on_c, 1, 63, 123
5, 102720, Note_on_c, 1, 63, 0
5, 103200, Note_on_c, 1, 63, 123
5, 103680, Note_on_c, 1, 63, 0
5, 104160, Note_on_c, 1, 62, 123
5, 104640, Note_on_c, 1, 62, 0
5, 104640, Note_on_c, 1, 63, 123
5, 104880, Note_on_c, 1, 63, 0
5, 104880, Note_on_c, 1, 67, 123
5, 105120, Note_on_c, 1, 67, 0
5, 105120, Note_on_c, 1, 67, 123
5, 105360, Note_on_c, 1, 67, 0
5, 105360, Note_on_c, 1, 67, 123
5, 105600, Note_on_c, 1, 67, 0
5, 105600, Note_on_c, 1, 63, 123
5, 105840, Note_on_c, 1, 63, 0
5, 105840, Note_on_c, 1, 70, 123
5, 106080, Note_on_c, 1, 70, 0
5, 106080, Note_on_c, 1, 70, 123
5, 106320, Note_on_c, 1, 70, 0
5, 106320, Note_on_c, 1, 70, 123
5, 106560, Note_on_c, 1, 70, 0
5, 106560, Note_on_c, 1, 67, 123
5, 106800, Note_on_c, 1, 67, 0
5, 106800, Note_on_c, 1, 63, 123
5, 107040, Note_on_c, 1, 63, 0
5, 107040, Note_on_c, 1, 63, 123
5, 107280, Note_on_c, 1, 63, 0
5, 107280, Note_on_c, 1, 63, 123
5, 107520, Note_on_c, 1, 63, 0
5, 107520, Note_on_c, 1, 58, 123
5, 108720, Note_on_c, 1, 58, 0
5, 108720, Note_on_c, 1, 67, 123
5, 108960, Note_on_c, 1, 67, 0
5, 108960, Note_on_c, 1, 67, 123
5, 109200, Note_on_c, 1, 67, 0
5, 109200, Note_on_c, 1, 67, 123
5, 109440, Note_on_c, 1, 67, 0
5, 109440, Note_on_c, 1, 63, 123
5, 109680, Note_on_c, 1, 63, 0
5, 109680, Note_on_c, 1, 70, 123
5, 109920, Note_on_c, 1, 70, 0
5, 109920, Note_on_c, 1, 70, 123
5, 110160, Note_on_c, 1, 70, 0
5, 110160, Note_on_c, 1, 70, 123
5, 110400, Note_on_c, 1, 70, 0
5, 110400, Note_on_c, 1, 67, 123
5, 110640, Note_on_c, 1, 67, 0
5, 110640, Note_on_c, 1, 63, 123
5, 110880, Note_on_c, 1, 63, 0
5, 110880, Note_on_c, 1, 63, 123
5, 111120, Note_on_c, 1, 63, 0
5, 111120, Note_on_c, 1, 63, 123
5, 111360, Note_on_c, 1, 63, 0
5, 111360, Note_on_c, 1, 58, 123
5, 112800, Note_on_c, 1, 58, 0
5, 113520, Note_on_c, 1, 62, 123
5, 113760, Note_on_c, 1, 62, 0
5, 113760, Note_on_c, 1, 62, 123
5, 114000, Note_on_c, 1, 62, 0
5, 114000, Note_on_c, 1, 62, 123
5, 114240, Note_on_c, 1, 62, 0
5, 114240, Note_on_c, 1, 63, 123
5, 114720, Note_on_c, 1, 63, 0
5, 115440, Note_on_c, 1, 65, 123
5, 115680, Note_on_c, 1, 65, 0
5, 115680, Note_on_c, 1, 65, 123
5, 115920, Note_on_c, 1, 65, 0
5, 115920, Note_on_c, 1, 65, 123
5, 116160, Note_on_c, 1, 65, 0
5, 116160, Note_on_c, 1, 63, 123
5, 116640, Note_on_c, 1, 63, 0
5, 135600, Note_on_c, 1, 62, 91
5, 135840, Note_on_c, 1, 62, 0
5, 135840, Note_on_c, 1, 62, 101
5, 136080, Note_on_c, 1, 62, 0
5, 136080, Note_on_c, 1, 62, 109
5, 136320, Note_on_c, 1, 62, 0
5, 136320, Note_on_c, 1, 60, 115
5, 136800, Note_on_c, 1, 60, 0
5, 137280, Note_on_c, 1, 60, 115
5, 137760, Note_on_c, 1, 60, 0
5, 138240, Note_on_c, 1, 59, 115
5, 138720, Note_on_c, 1, 59, 0
5, 139440, Note_on_c, 1, 68, 123
5, 139680, Note_on_c, 1, 68, 0
5, 139680, Note_on_c, 1, 68, 123
5, 139920, Note_on_c, 1, 68, 0
5, 139920, Note_on_c, 1, 68, 123
5, 140160, Note_on_c, 1, 68, 0
5, 140160, Note_on_c, 1, 65, 123
5, 142080, Note_on_c, 1, 65, 0
5, 149040, Note_on_c, 1, 65, 91
5, 149280, Note_on_c, 1, 65, 0
5, 149280, Note_on_c, 1, 65, 91
5, 149520, Note_on_c, 1, 65, 0
5, 149520, Note_on_c, 1, 65, 91
5, 149760, Note_on_c, 1, 65, 0
5, 149760, Note_on_c, 1, 63, 91
5, 150240, Note_on_c, 1, 63, 0
5, 152640, Note_on_c, 1, 63, 91
5, 154080, Note_on_c, 1, 63, 0
5, 154560, Note_on_c, 1, 65, 91
5, 155040, Note_on_c, 1, 65, 0
5, 155520, Note_on_c, 1, 64, 91
5, 156000, Note_on_c, 1, 64, 0
5, 156480, Note_on_c, 1, 65, 91
5, 156960, Note_on_c, 1, 65, 0
5, 157440, Note_on_c, 1, 67, 91
5, 157920, Note_on_c, 1, 67, 0
5, 158400, Note_on_c, 1, 65, 91
5, 158880, Note_on_c, 1, 65, 0
5, 159360, Note_on_c, 1, 65, 91
5, 159840, Note_on_c, 1, 65, 0
5, 160320, Note_on_c, 1, 63, 115
5, 164160, Note_on_c, 1, 63, 0
5, 164160, Note_on_c, 1, 65, 115
5, 167520, Note_on_c, 1, 65, 0
5, 167520, Note_on_c, 1, 63, 115
5, 168000, Note_on_c, 1, 63, 0
5, 168000, Note_on_c, 1, 63, 123
5, 171840, Note_on_c, 1, 63, 0
5, 171840, Note_on_c, 1, 63, 123
5, 172320, Note_on_c, 1, 63, 0
5, 173760, Note_on_c, 1, 58, 123
5, 174240, Note_on_c, 1, 58, 0
5, 198720, Note_on_c, 1, 72, 91
5, 200640, Note_on_c, 1, 72, 0
5, 200640, Note_on_c, 1, 70, 91
5, 202560, Note_on_c, 1, 70, 0
5, 202560, Note_on_c, 1, 69, 91
5, 206880, Note_on_c, 1, 69, 0
5, 206880, Note_on_c, 1, 69, 109
5, 207360, Note_on_c, 1, 69, 0
5, 207360, Note_on_c, 1, 69, 115
5, 207840, Note_on_c, 1, 69, 0
5, 207840, Note_on_c, 1, 69, 115
5, 208320, Note_on_c, 1, 69, 0
5, 208320, Note_on_c, 1, 65, 123
5, 209760, Note_on_c, 1, 65, 0
5, 209760, Note_on_c, 1, 65, 123
5, 210240, Note_on_c, 1, 65, 0
5, 210240, Note_on_c, 1, 63, 123
5, 210720, Note_on_c, 1, 63, 0
5, 211200, Note_on_c, 1, 68, 123
5, 211680, Note_on_c, 1, 68, 0
5, 212160, Note_on_c, 1, 63, 123
5, 212640, Note_on_c, 1, 63, 0
5, 213120, Note_on_c, 1, 63, 123
5, 213600, Note_on_c, 1, 63, 0
5, 214080, Note_on_c, 1, 63, 123
5, 214560, Note_on_c, 1, 63, 0
5, 215040, Note_on_c, 1, 62, 123
5, 215520, Note_on_c, 1, 62, 0
5, 216000, Note_on_c, 1, 65, 123
5, 217920, Note_on_c, 1, 65, 0
5, 217920, Note_on_c, 1, 63, 123
5, 218400, Note_on_c, 1, 63, 0
5, 218400, Note_on_c, 1, 63, 123
5, 218880, Note_on_c, 1, 63, 0
5, 219360, Note_on_c, 1, 62, 123
5, 219840, Note_on_c, 1, 62, 0
5, 220320, Note_on_c, 1, 63, 123
5, 220800, Note_on_c, 1, 63, 0
5, 221280, Note_on_c, 1, 63, 123
5, 221760, Note_on_c, 1, 63, 0
5, 222240, Note_on_c, 1, 63, 123
5, 222720, Note_on_c, 1, 63, 0
5, 223200, Note_on_c, 1, 62, 123
5, 223680, Note_on_c, 1, 62, 0
5, 223680, Note_on_c, 1, 63, 123
5, 223920, Note_on_c, 1, 63, 0
5, 223920, Note_on_c, 1, 67, 123
5, 224160, Note_on_c, 1, 67, 0
5, 224160, Note_on_c, 1, 67, 123
5, 224400, Note_on_c, 1, 67, 0
5, 224400, Note_on_c, 1, 67, 123
5, 224640, Note_on_c, 1, 67, 0
5, 224640, Note_on_c, 1, 63, 123
5, 224880, Note_on_c, 1, 63, 0
5, 224880, Note_on_c, 1, 70, 123
5, 225120, Note_on_c, 1, 70, 0
5, 225120, Note_on_c, 1, 70, 123
5, 225360, Note_on_c, 1, 70, 0
5, 225360, Note_on_c, 1, 70, 123
5, 225600, Note_on_c, 1, 70, 0
5, 225600, Note_on_c, 1, 67, 123
5, 225840, Note_on_c, 1, 67, 0
5, 225840, Note_on_c, 1, 63, 123
5, 226080, Note_on_c, 1, 63, 0
5, 226080, Note_on_c, 1, 63, 123
5, 226320, Note_on_c, 1, 63, 0
5, 226320, Note_on_c, 1, 63, 123
5, 226560, Note_on_c, 1, 63, 0
5, 226560, Note_on_c, 1, 58, 123
5, 227760, Note_on_c, 1, 58, 0
5, 227760, Note_on_c, 1, 67, 123
5, 228000, Note_on_c, 1, 67, 0
5, 228000, Note_on_c, 1, 67, 123
5, 228240, Note_on_c, 1, 67, 0
5, 228240, Note_on_c, 1, 67, 123
5, 228480, Note_on_c, 1, 67, 0
5, 228480, Note_on_c, 1, 63, 123
5, 228720, Note_on_c, 1, 63, 0
5, 228720, Note_on_c, 1, 70, 123
5, 228960, Note_on_c, 1, 70, 0
5, 228960, Note_on_c, 1, 70, 123
5, 229200, Note_on_c, 1, 70, 0
5, 229200, Note_on_c, 1, 70, 123
5, 229440, Note_on_c, 1, 70, 0
5, 229440, Note_on_c, 1, 67, 123
5, 229680, Note_on_c, 1, 67, 0
5, 229680, Note_on_c, 1, 63, 123
5, 229920, Note_on_c, 1, 63, 0
5, 229920, Note_on_c, 1, 63, 123
5, 230160, Note_on_c, 1, 63, 0
5, 230160, Note_on_c, 1, 63, 123
5, 230400, Note_on_c, 1, 63, 0
5, 230400, Note_on_c, 1, 58, 123
5, 231840, Note_on_c, 1, 58, 0
5, 232560, Note_on_c, 1, 62, 123
5, 232800, Note_on_c, 1, 62, 0
5, 232800, Note_on_c, 1, 62, 123
5, 233040, Note_on_c, 1, 62, 0
5, 233040, Note_on_c, 1, 62, 123
5, 233280, Note_on_c, 1, 62, 0
5, 233280, Note_on_c, 1, 63, 123
5, 233760, Note_on_c, 1, 63, 0
5, 234480, Note_on_c, 1, 65, 123
5, 234720, Note_on_c, 1, 65, 0
5, 234720, Note_on_c, 1, 65, 123
5, 234960, Note_on_c, 1, 65, 0
5, 234960, Note_on_c, 1, 65, 123
5, 235200, Note_on_c, 1, 65, 0
5, 235200, Note_on_c, 1, 63, 123
5, 235680, Note_on_c, 1, 63, 0
5, 265200, Note_on_c, 1, 66, 91
5, 265440, Note_on_c, 1, 66, 0
5, 265440, Note_on_c, 1, 66, 91
5, 265680, Note_on_c, 1, 66, 0
5, 265680, Note_on_c, 1, 69, 91
5, 265920, Note_on_c, 1, 69, 0
5, 265920, Note_on_c, 1, 67, 91
5, 266880, Note_on_c, 1, 67, 0
5, 266880, Note_on_c, 1, 66, 91
5, 267120, Note_on_c, 1, 66, 0
5, 267120, Note_on_c, 1, 66, 91
5, 267360, Note_on_c, 1, 66, 0
5, 267360, Note_on_c, 1, 66, 91
5, 267600, Note_on_c, 1, 66, 0
5, 267600, Note_on_c, 1, 69, 91
5, 267840, Note_on_c, 1, 69, 0
5, 267840, Note_on_c, 1, 67, 91
5, 268800, Note_on_c, 1, 67, 0
5, 268800, Note_on_c, 1, 66, 91
5, 269760, Note_on_c, 1, 66, 0
5, 269760, Note_on_c, 1, 67, 91
5, 270960, Note_on_c, 1, 67, 0
5, 271680, Note_on_c, 1, 60, 91
5, 272160, Note_on_c, 1, 60, 0
5, 273600, Note_on_c, 1, 60, 91
5, 274080, Note_on_c, 1, 60, 0
5, 275520, Note_on_c, 1, 55, 91
5, 276000, Note_on_c, 1, 55, 0
5, 277440, Note_on_c, 1, 62, 91
5, 277920, Note_on_c, 1, 62, 0
5, 279360, Note_on_c, 1, 66, 115
5, 281280, Note_on_c, 1, 66, 0
5, 281280, Note_on_c, 1, 66, 115
5, 281760, Note_on_c, 1, 66, 0
5, 282480, Note_on_c, 1, 67, 115
5, 282720, Note_on_c, 1, 67, 0
5, 282720, Note_on_c, 1, 67, 115
5, 282960, Note_on_c, 1, 67, 0
5, 282960, Note_on_c, 1, 67, 115
5, 283200, Note_on_c, 1, 67, 0
5, 283200, Note_on_c, 1, 67, 115
5, 285120, Note_on_c, 1, 67, 0
5, 285120, Note_on_c, 1, 67, 115
5, 285600, Note_on_c, 1, 67, 0
5, 286320, Note_on_c, 1, 67, 115
5, 286560, Note_on_c, 1, 67, 0
5, 286560, Note_on_c, 1, 67, 115
5, 286800, Note_on_c, 1, 67, 0
5, 286800, Note_on_c, 1, 67, 115
5, 287040, Note_on_c, 1, 67, 0
5, 287040, Note_on_c, 1, 67, 115
5, 287520, Note_on_c, 1, 67, 0
5, 288480, Note_on_c, 1, 67, 115
5, 288720, Note_on_c, 1, 67, 0
5, 288720, Note_on_c, 1, 67, 115
5, 288960, Note_on_c, 1, 67, 0
5, 288960, Note_on_c, 1, 67, 115
5, 289440, Note_on_c, 1, 67, 0
5, 289440, Note_on_c, 1, 62, 115
5, 289680, Note_on_c, 1, 62, 0
5, 289680, Note_on_c, 1, 62, 115
5, 289920, Note_on_c, 1, 62, 0
5, 289920, Note_on_c, 1, 62, 115
5, 290400, Note_on_c, 1, 62, 0
5, 296160, Note_on_c, 1, 66, 115
5, 296400, Note_on_c, 1, 66, 0
5, 296400, Note_on_c, 1, 66, 115
5, 296640, Note_on_c, 1, 66, 0
5, 296640, Note_on_c, 1, 66, 115
5, 297120, Note_on_c, 1, 66, 0
5, 297120, Note_on_c, 1, 66, 115
5, 297360, Note_on_c, 1, 66, 0
5, 297360, Note_on_c, 1, 66, 115
5, 297600, Note_on_c, 1, 66, 0
5, 297600, Note_on_c, 1, 67, 115
5, 298080, Note_on_c, 1, 67, 0
5, 303840, Note_on_c, 1, 65, 115
5, 304080, Note_on_c, 1, 65, 0
5, 304080, Note_on_c, 1, 65, 115
5, 304320, Note_on_c, 1, 65, 0
5, 304320, Note_on_c, 1, 65, 115
5, 304800, Note_on_c, 1, 65, 0
5, 305520, Note_on_c, 1, 60, 123
5, 305760, Note_on_c, 1, 60, 0
5, 305760, Note_on_c, 1, 60, 123
5, 306000, Note_on_c, 1, 60, 0
5, 306000, Note_on_c, 1, 60, 123
5, 306240, Note_on_c, 1, 60, 0
5, 306240, Note_on_c, 1, 65, 123
5, 307200, Note_on_c, 1, 65, 0
5, 307200, Note_on_c, 1, 67, 123
5, 308160, Note_on_c, 1, 67, 0
5, 310080, Note_on_c, 1, 53, 123
5, 311040, Note_on_c, 1, 53, 0
5, 311040, Note_on_c, 1, 55, 123
5, 312000, Note_on_c, 1, 55, 0
5, 313920, Note_on_c, 1, 65, 123
5, 314880, Note_on_c, 1, 65, 0
5, 314880, Note_on_c, 1, 66, 123
5, 315840, Note_on_c, 1, 66, 0
5, 317760, Note_on_c, 1, 69, 123
5, 318720, Note_on_c, 1, 69, 0
5, 318720, Note_on_c, 1, 70, 123
5, 319680, Note_on_c, 1, 70, 0
5, 326400, Note_on_c, 1, 69, 91
5, 327360, Note_on_c, 1, 69, 0
5, 328320, Note_on_c, 1, 69, 91
5, 329280, Note_on_c, 1, 69, 0
5, 330240, Note_on_c, 1, 69, 78
5, 331200, Note_on_c, 1, 69, 0
5, 332160, Note_on_c, 1, 69, 78
5, 333120, Note_on_c, 1, 69, 0
5, 334080, Note_on_c, 1, 69, 78
5, 335040, Note_on_c, 1, 69, 0
5, 336000, Note_on_c, 1, 69, 78
5, 336960, Note_on_c, 1, 69, 0
5, 337200, Note_on_c, 1, 62, 123
5, 337440, Note_on_c, 1, 62, 0
5, 337440, Note_on_c, 1, 62, 123
5, 337680, Note_on_c, 1, 62, 0
5, 337680, Note_on_c, 1, 62, 123
5, 337920, Note_on_c, 1, 62, 0
5, 337920, Note_on_c, 1, 59, 123
5, 338880, Note_on_c, 1, 59, 0
5, 338880, Note_on_c, 1, 60, 123
5, 339840, Note_on_c, 1, 60, 0
5, 339840, Note_on_c, 1, 57, 123
5, 341760, Note_on_c, 1, 57, 0
5, 341760, Note_on_c, 1, 68, 78
5, 342720, Note_on_c, 1, 68, 0
5, 343680, Note_on_c, 1, 68, 78
5, 344640, Note_on_c, 1, 68, 0
5, 345600, Note_on_c, 1, 68, 78
5, 346560, Note_on_c, 1, 68, 0
5, 347520, Note_on_c, 1, 68, 78
5, 348480, Note_on_c, 1, 68, 0
5, 349680, Note_on_c, 1, 68, 123
5, 349920, Note_on_c, 1, 68, 0
5, 349920, Note_on_c, 1, 68, 123
5, 350160, Note_on_c, 1, 68, 0
5, 350160, Note_on_c, 1, 68, 123
5, 350400, Note_on_c, 1, 68, 0
5, 350400, Note_on_c, 1, 65, 123
5, 351600, Note_on_c, 1, 65, 0
5, 351600, Note_on_c, 1, 68, 123
5, 351840, Note_on_c, 1, 68, 0
5, 351840, Note_on_c, 1, 68, 123
5, 352080, Note_on_c, 1, 68, 0
5, 352080, Note_on_c, 1, 68, 123
5, 352320, Note_on_c, 1, 68, 0
5, 352320, Note_on_c, 1, 65, 123
5, 353520, Note_on_c, 1, 65, 0
5, 353520, Note_on_c, 1, 68, 123
5, 353760, Note_on_c, 1, 68, 0
5, 353760, Note_on_c, 1, 68, 123
5, 354000, Note_on_c, 1, 68, 0
5, 354000, Note_on_c, 1, 68, 123
5, 354240, Note_on_c, 1, 68, 0
5, 354240, Note_on_c, 1, 65, 123
5, 354480, Note_on_c, 1, 65, 0
5, 354480, Note_on_c, 1, 68, 123
5, 354720, Note_on_c, 1, 68, 0
5, 354720, Note_on_c, 1, 68, 123
5, 354960, Note_on_c, 1, 68, 0
5, 354960, Note_on_c, 1, 68, 123
5, 355200, Note_on_c, 1, 68, 0
5, 355200, Note_on_c, 1, 65, 123
5, 355440, Note_on_c, 1, 65, 0
5, 355440, Note_on_c, 1, 68, 123
5, 355680, Note_on_c, 1, 68, 0
5, 355680, Note_on_c, 1, 68, 123
5, 355920, Note_on_c, 1, 68, 0
5, 355920, Note_on_c, 1, 68, 123
5, 356160, Note_on_c, 1, 68, 0
5, 356160, Note_on_c, 1, 65, 123
5, 356400, Note_on_c, 1, 65, 0
5, 356400, Note_on_c, 1, 55, 123
5, 356640, Note_on_c, 1, 55, 0
5, 356640, Note_on_c, 1, 55, 123
5, 356880, Note_on_c, 1, 55, 0
5, 356880, Note_on_c, 1, 55, 123
5, 357120, Note_on_c, 1, 55, 0
5, 357120, Note_on_c, 1, 63, 123
5, 358080, Note_on_c, 1, 63, 0
5, 358320, Note_on_c, 1, 65, 123
5, 358560, Note_on_c, 1, 65, 0
5, 358560, Note_on_c, 1, 65, 123
5, 358800, Note_on_c, 1, 65, 0
5, 358800, Note_on_c, 1, 65, 123
5, 359040, Note_on_c, 1, 65, 0
5, 359040, Note_on_c, 1, 62, 123
5, 360960, Note_on_c, 1, 62, 0
5, 361920, Note_on_c, 1, 60, 91
5, 365760, Note_on_c, 1, 60, 0
5, 365760, Note_on_c, 1, 62, 91
5, 369600, Note_on_c, 1, 62, 0
5, 369600, Note_on_c, 1, 63, 91
5, 370560, Note_on_c, 1, 63, 0
5, 370560, Note_on_c, 1, 62, 91
5, 371520, Note_on_c, 1, 62, 0
5, 371520, Note_on_c, 1, 60, 91
5, 372480, Note_on_c, 1, 60, 0
5, 372480, Note_on_c, 1, 58, 91
5, 372960, Note_on_c, 1, 58, 0
5, 372960, Note_on_c, 1, 60, 91
5, 373200, Note_on_c, 1, 60, 0
5, 373200, Note_on_c, 1, 62, 91
5, 373440, Note_on_c, 1, 62, 0
5, 373440, Note_on_c, 1, 63, 91
5, 374400, Note_on_c, 1, 63, 0
5, 374400, Note_on_c, 1, 60, 91
5, 375360, Note_on_c, 1, 60, 0
5, 375360, Note_on_c, 1, 67, 88
5, 380103, Note_on_c, 1, 67, 0
5, 381120, Note_on_c, 1, 62, 91
5, 384000, Note_on_c, 1, 62, 0
5, 384000, Note_on_c, 1, 60, 91
5, 384480, Note_on_c, 1, 60, 0
5, 385920, Note_on_c, 1, 71, 91
5, 387840, Note_on_c, 1, 71, 0
5, 387840, Note_on_c, 1, 72, 115
5, 388320, Note_on_c, 1, 72, 0
5, 389760, Note_on_c, 1, 65, 115
5, 390240, Note_on_c, 1, 65, 0
5, 390960, Note_on_c, 1, 63, 115
5, 391200, Note_on_c, 1, 63, 0
5, 391200, Note_on_c, 1, 63, 115
5, 391440, Note_on_c, 1, 63, 0
5, 391440, Note_on_c, 1, 63, 115
5, 391680, Note_on_c, 1, 63, 0
5, 391680, Note_on_c, 1, 63, 115
5, 392160, Note_on_c, 1, 63, 0
5, 392640, Note_on_c, 1, 65, 115
5, 393120, Note_on_c, 1, 65, 0
5, 393600, Note_on_c, 1, 64, 115
5, 394080, Note_on_c, 1, 64, 0
5, 394560, Note_on_c, 1, 65, 115
5, 395040, Note_on_c, 1, 65, 0
5, 395520, Note_on_c, 1, 67, 115
5, 396000, Note_on_c, 1, 67, 0
5, 396480, Note_on_c, 1, 65, 115
5, 396960, Note_on_c, 1, 65, 0
5, 397440, Note_on_c, 1, 65, 115
5, 397920, Note_on_c, 1, 65, 0
5, 398400, Note_on_c, 1, 63, 115
5, 402240, Note_on_c, 1, 63, 0
5, 402240, Note_on_c, 1, 65, 115
5, 405600, Note_on_c, 1, 65, 0
5, 405600, Note_on_c, 1, 63, 115
5, 406080, Note_on_c, 1, 63, 0
5, 406080, Note_on_c, 1, 66, 123
5, 409920, Note_on_c, 1, 66, 0
5, 409920, Note_on_c, 1, 66, 123
5, 410400, Note_on_c, 1, 66, 0
5, 411840, Note_on_c, 1, 62, 123
5, 412320, Note_on_c, 1, 62, 0
5, 420480, Note_on_c, 1, 60, 91
5, 421440, Note_on_c, 1, 60, 0
5, 421440, Note_on_c, 1, 62, 91
5, 422400, Note_on_c, 1, 62, 0
5, 422400, Note_on_c, 1, 59, 91
5, 423360, Note_on_c, 1, 59, 0
5, 423360, Note_on_c, 1, 60, 91
5, 424320, Note_on_c, 1, 60, 0
5, 428160, Note_on_c, 1, 60, 91
5, 429120, Note_on_c, 1, 60, 0
5, 429120, Note_on_c, 1, 62, 91
5, 430080, Note_on_c, 1, 62, 0
5, 430080, Note_on_c, 1, 59, 91
5, 431040, Note_on_c, 1, 59, 0
5, 431040, Note_on_c, 1, 60, 91
5, 432000, Note_on_c, 1, 60, 0
5, 454080, Note_on_c, 1, 67, 123
5, 455520, Note_on_c, 1, 67, 0
5, 455520, Note_on_c, 1, 67, 123
5, 456000, Note_on_c, 1, 67, 0
5, 456000, Note_on_c, 1, 67, 123
5, 456480, Note_on_c, 1, 67, 0
5, 456960, Note_on_c, 1, 65, 123
5, 457440, Note_on_c, 1, 65, 0
5, 457920, Note_on_c, 1, 60, 123
5, 458400, Note_on_c, 1, 60, 0
5, 458880, Note_on_c, 1, 62, 123
5, 459360, Note_on_c, 1, 62, 0
5, 459840, Note_on_c, 1, 64, 123
5, 460320, Note_on_c, 1, 64, 0
5, 460800, Note_on_c, 1, 62, 123
5, 461280, Note_on_c, 1, 62, 0
5, 461760, Note_on_c, 1, 65, 123
5, 463680, Note_on_c, 1, 65, 0
5, 463680, Note_on_c, 1, 64, 123
5, 464160, Note_on_c, 1, 64, 0
5, 464160, Note_on_c, 1, 64, 123
5, 464640, Note_on_c, 1, 64, 0
5, 465120, Note_on_c, 1, 62, 123
5, 465600, Note_on_c, 1, 62, 0
5, 466080, Note_on_c, 1, 64, 123
5, 466560, Note_on_c, 1, 64, 0
5, 467040, Note_on_c, 1, 62, 123
5, 467520, Note_on_c, 1, 62, 0
5, 468000, Note_on_c, 1, 64, 123
5, 468480, Note_on_c, 1, 64, 0
5, 468960, Note_on_c, 1, 62, 123
5, 469440, Note_on_c, 1, 62, 0
5, 469440, Note_on_c, 1, 64, 123
5, 469680, Note_on_c, 1, 64, 0
5, 469680, Note_on_c, 1, 64, 123
5, 469920, Note_on_c, 1, 64, 0
5, 469920, Note_on_c, 1, 64, 123
5, 470160, Note_on_c, 1, 64, 0
5, 470160, Note_on_c, 1, 64, 123
5, 470400, Note_on_c, 1, 64, 0
5, 470400, Note_on_c, 1, 60, 123
5, 470640, Note_on_c, 1, 60, 0
5, 470640, Note_on_c, 1, 67, 123
5, 470880, Note_on_c, 1, 67, 0
5, 470880, Note_on_c, 1, 67, 123
5, 471120, Note_on_c, 1, 67, 0
5, 471120, Note_on_c, 1, 67, 123
5, 471360, Note_on_c, 1, 67, 0
5, 471360, Note_on_c, 1, 64, 123
5, 471600, Note_on_c, 1, 64, 0
5, 471600, Note_on_c, 1, 60, 123
5, 471840, Note_on_c, 1, 60, 0
5, 471840, Note_on_c, 1, 60, 123
5, 472080, Note_on_c, 1, 60, 0
5, 472080, Note_on_c, 1, 60, 123
5, 472320, Note_on_c, 1, 60, 0
5, 472320, Note_on_c, 1, 55, 123
5, 473520, Note_on_c, 1, 55, 0
5, 473520, Note_on_c, 1, 64, 123
5, 473760, Note_on_c, 1, 64, 0
5, 473760, Note_on_c, 1, 64, 123
5, 474000, Note_on_c, 1, 64, 0
5, 474000, Note_on_c, 1, 64, 123
5, 474240, Note_on_c, 1, 64, 0
5, 474240, Note_on_c, 1, 60, 123
5, 474480, Note_on_c, 1, 60, 0
5, 474480, Note_on_c, 1, 67, 123
5, 474720, Note_on_c, 1, 67, 0
5, 474720, Note_on_c, 1, 67, 123
5, 474960, Note_on_c, 1, 67, 0
5, 474960, Note_on_c, 1, 67, 123
5, 475200, Note_on_c, 1, 67, 0
5, 475200, Note_on_c, 1, 64, 123
5, 475440, Note_on_c, 1, 64, 0
5, 475440, Note_on_c, 1, 60, 123
5, 475680, Note_on_c, 1, 60, 0
5, 475680, Note_on_c, 1, 60, 123
5, 475920, Note_on_c, 1, 60, 0
5, 475920, Note_on_c, 1, 60, 123
5, 476160, Note_on_c, 1, 60, 0
5, 476160, Note_on_c, 1, 55, 123
5, 476400, Note_on_c, 1, 55, 0
5, 476400, Note_on_c, 1, 59, 123
5, 476640, Note_on_c, 1, 59, 0
5, 476640, Note_on_c, 1, 59, 123
5, 476880, Note_on_c, 1, 59, 0
5, 476880, Note_on_c, 1, 59, 123
5, 477120, Note_on_c, 1, 59, 0
5, 477120, Note_on_c, 1, 60, 123
5, 477600, Note_on_c, 1, 60, 0
5, 478320, Note_on_c, 1, 59, 123
5, 478560, Note_on_c, 1, 59, 0
5, 478560, Note_on_c, 1, 59, 123
5, 478800, Note_on_c, 1, 59, 0
5, 478800, Note_on_c, 1, 59, 123
5, 479040, Note_on_c, 1, 59, 0
5, 479040, Note_on_c, 1, 60, 123
5, 479520, Note_on_c, 1, 60, 0
5, 480240, Note_on_c, 1, 62, 123
5, 480480, Note_on_c, 1, 62, 0
5, 480480, Note_on_c, 1, 62, 123
5, 480720, Note_on_c, 1, 62, 0
5, 480720, Note_on_c, 1, 62, 123
5, 480960, Note_on_c, 1, 62, 0
5, 480960, Note_on_c, 1, 64, 123
5, 481200, Note_on_c, 1, 64, 0
5, 481200, Note_on_c, 1, 60, 123
5, 481440, Note_on_c, 1, 60, 0
5, 481440, Note_on_c, 1, 60, 123
5, 481680, Note_on_c, 1, 60, 0
5, 481680, Note_on_c, 1, 60, 123
5, 481920, Note_on_c, 1, 60, 0
5, 481920, Note_on_c, 1, 60, 123
5, 483120, Note_on_c, 1, 60, 0
5, 483120, Note_on_c, 1, 60, 123
5, 483360, Note_on_c, 1, 60, 0
5, 483360, Note_on_c, 1, 60, 123
5, 483600, Note_on_c, 1, 60, 0
5, 483600, Note_on_c, 1, 60, 123
5, 483840, Note_on_c, 1, 60, 0
5, 483840, Note_on_c, 1, 60, 123
5, 485040, Note_on_c, 1, 60, 0
5, 485040, Note_on_c, 1, 60, 123
5, 485280, Note_on_c, 1, 60, 0
5, 485280, Note_on_c, 1, 60, 123
5, 485520, Note_on_c, 1, 60, 0
5, 485520, Note_on_c, 1, 60, 123
5, 485760, Note_on_c, 1, 60, 0
5, 485760, Note_on_c, 1, 60, 123
5, 486960, Note_on_c, 1, 60, 0
5, 486960, Note_on_c, 1, 60, 123
5, 487200, Note_on_c, 1, 60, 0
5, 487200, Note_on_c, 1, 60, 123
5, 487440, Note_on_c, 1, 60, 0
5, 487440, Note_on_c, 1, 60, 123
5, 487680, Note_on_c, 1, 60, 0
5, 487680, Note_on_c, 1, 60, 123
5, 488640, Note_on_c, 1, 60, 0
5, 488640, Note_on_c, 1, 61, 123
5, 492480, Note_on_c, 1, 61, 0
5, 492480, Note_on_c, 1, 61, 123
5, 492960, Note_on_c, 1, 61, 0
5, 496560, Note_on_c, 1, 63, 123
5, 496800, Note_on_c, 1, 63, 0
5, 496800, Note_on_c, 1, 63, 123
5, 497040, Note_on_c, 1, 63, 0
5, 497040, Note_on_c, 1, 63, 123
5, 497280, Note_on_c, 1, 63, 0
5, 497280, Note_on_c, 1, 63, 123
5, 501120, Note_on_c, 1, 63, 0
5, 501120, Note_on_c, 1, 63, 123
5, 501600, Note_on_c, 1, 63, 0
5, 502320, Note_on_c, 1, 60, 123
5, 502560, Note_on_c, 1, 60, 0
5, 502560, Note_on_c, 1, 60, 123
5, 502800, Note_on_c, 1, 60, 0
5, 502800, Note_on_c, 1, 60, 123
5, 503040, Note_on_c, 1, 60, 0
5, 503040, Note_on_c, 1, 63, 123
5, 503520, Note_on_c, 1, 63, 0
5, 506880, Note_on_c, 1, 65, 115
5, 508800, Note_on_c, 1, 65, 0
5, 510720, Note_on_c, 1, 65, 115
5, 512640, Note_on_c, 1, 65, 0
5, 516480, Note_on_c, 1, 60, 115
5, 516960, Note_on_c, 1, 60, 0
5, 516960, Note_on_c, 1, 62, 115
5, 517440, Note_on_c, 1, 62, 0
5, 517440, Note_on_c, 1, 58, 115
5, 517920, Note_on_c, 1, 58, 0
5, 517920, Note_on_c, 1, 60, 115
5, 518400, Note_on_c, 1, 60, 0
5, 518400, Note_on_c, 1, 56, 115
5, 518880, Note_on_c, 1, 56, 0
5, 518880, Note_on_c, 1, 58, 115
5, 519360, Note_on_c, 1, 58, 0
5, 519360, Note_on_c, 1, 55, 115
5, 519840, Note_on_c, 1, 55, 0
5, 519840, Note_on_c, 1, 68, 115
5, 520320, Note_on_c, 1, 68, 0
5, 520320, Note_on_c, 1, 65, 115
5, 520800, Note_on_c, 1, 65, 0
5, 520800, Note_on_c, 1, 63, 115
5, 521280, Note_on_c, 1, 63, 0
5, 521280, Note_on_c, 1, 62, 115
5, 521760, Note_on_c, 1, 62, 0
5, 521760, Note_on_c, 1, 63, 115
5, 522240, Note_on_c, 1, 63, 0
5, 522240, Note_on_c, 1, 65, 115
5, 522720, Note_on_c, 1, 65, 0
5, 522720, Note_on_c, 1, 63, 115
5, 523200, Note_on_c, 1, 63, 0
5, 523200, Note_on_c, 1, 65, 115
5, 523680, Note_on_c, 1, 65, 0
5, 523680, Note_on_c, 1, 67, 115
5, 524160, Note_on_c, 1, 67, 0
5, 524160, Note_on_c, 1, 68, 115
5, 524640, Note_on_c, 1, 68, 0
5, 524640, Note_on_c, 1, 67, 115
5, 525120, Note_on_c, 1, 67, 0
5, 525120, Note_on_c, 1, 68, 115
5, 525600, Note_on_c, 1, 68, 0
5, 525600, Note_on_c, 1, 59, 115
5, 526080, Note_on_c, 1, 59, 0
5, 526080, Note_on_c, 1, 60, 115
5, 526560, Note_on_c, 1, 60, 0
5, 526560, Note_on_c, 1, 59, 115
5, 527040, Note_on_c, 1, 59, 0
5, 527040, Note_on_c, 1, 60, 115
5, 527520, Note_on_c, 1, 60, 0
5, 527520, Note_on_c, 1, 62, 115
5, 528000, Note_on_c, 1, 62, 0
5, 528000, Note_on_c, 1, 60, 115
5, 529920, Note_on_c, 1, 60, 0
5, 529920, Note_on_c, 1, 60, 115
5, 531840, Note_on_c, 1, 60, 0
5, 531840, Note_on_c, 1, 60, 115
5, 533760, Note_on_c, 1, 60, 0
5, 533760, Note_on_c, 1, 60, 115
5, 535680, Note_on_c, 1, 60, 0
5, 535680, Note_on_c, 1, 59, 115
5, 536640, Note_on_c, 1, 59, 0
5, 536640, Note_on_c, 1, 62, 115
5, 537600, Note_on_c, 1, 62, 0
5, 537600, Note_on_c, 1, 63, 115
5, 538080, Note_on_c, 1, 63, 0
5, 538560, Note_on_c, 1, 63, 115
5, 539040, Note_on_c, 1, 63, 0
5, 539520, Note_on_c, 1, 68, 115
5, 540000, Note_on_c, 1, 68, 0
5, 540480, Note_on_c, 1, 68, 115
5, 540960, Note_on_c, 1, 68, 0
5, 541440, Note_on_c, 1, 67, 115
5, 541920, Note_on_c, 1, 67, 0
5, 542400, Note_on_c, 1, 67, 115
5, 542880, Note_on_c, 1, 67, 0
5, 543360, Note_on_c, 1, 60, 123
5, 544320, Note_on_c, 1, 60, 0
5, 544320, Note_on_c, 1, 60, 123
5, 544800, Note_on_c, 1, 60, 0
5, 544800, Note_on_c, 1, 60, 123
5, 545280, Note_on_c, 1, 60, 0
5, 545280, Note_on_c, 1, 60, 123
5, 546240, Note_on_c, 1, 60, 0
5, 548160, Note_on_c, 1, 60, 123
5, 548640, Note_on_c, 1, 60, 0
5, 548640, Note_on_c, 1, 60, 123
5, 549120, Note_on_c, 1, 60, 0
5, 549120, Note_on_c, 1, 60, 123
5, 550080, Note_on_c, 1, 60, 0
5, 552000, Note_on_c, 1, 55, 123
5, 552480, Note_on_c, 1, 55, 0
5, 552480, Note_on_c, 1, 55, 123
5, 552960, Note_on_c, 1, 55, 0
5, 552960, Note_on_c, 1, 55, 123
5, 553920, Note_on_c, 1, 55, 0
5, 555840, Note_on_c, 1, 55, 123
5, 556320, Note_on_c, 1, 55, 0
5, 556320, Note_on_c, 1, 55, 123
5, 556800, Note_on_c, 1, 55, 0
5, 556800, Note_on_c, 1, 55, 123
5, 557760, Note_on_c, 1, 55, 0
5, 557760, Note_on_c, 1, 68, 123
5, 558240, Note_on_c, 1, 68, 0
5, 558240, Note_on_c, 1, 67, 123
5, 558720, Note_on_c, 1, 67, 0
5, 558720, Note_on_c, 1, 65, 123
5, 559200, Note_on_c, 1, 65, 0
5, 559200, Note_on_c, 1, 63, 123
5, 559680, Note_on_c, 1, 63, 0
5, 560640, Note_on_c, 1, 65, 123
5, 561120, Note_on_c, 1, 65, 0
5, 561120, Note_on_c, 1, 63, 123
5, 561600, Note_on_c, 1, 63, 0
5, 561600, Note_on_c, 1, 65, 123
5, 562080, Note_on_c, 1, 65, 0
5, 562080, Note_on_c, 1, 63, 123
5, 562560, Note_on_c, 1, 63, 0
5, 563040, Note_on_c, 1, 63, 123
5, 563520, Note_on_c, 1, 63, 0
5, 564000, Note_on_c, 1, 62, 123
5, 564480, Note_on_c, 1, 62, 0
5, 567360, Note_on_c, 1, 65, 123
5, 567840, Note_on_c, 1, 65, 0
5, 567840, Note_on_c, 1, 63, 123
5, 568320, Note_on_c, 1, 63, 0
5, 569280, Note_on_c, 1, 65, 123
5, 569760, Note_on_c, 1, 65, 0
5, 569760, Note_on_c, 1, 63, 123
5, 570240, Note_on_c, 1, 63, 0
5, 570720, Note_on_c, 1, 63, 123
5, 571200, Note_on_c, 1, 63, 0
5, 571680, Note_on_c, 1, 62, 123
5, 572160, Note_on_c, 1, 62, 0
5, 572160, Note_on_c, 1, 63, 123
5, 572640, Note_on_c, 1, 63, 0
5, 573360, Note_on_c, 1, 62, 123
5, 573600, Note_on_c, 1, 62, 0
5, 573600, Note_on_c, 1, 62, 123
5, 573840, Note_on_c, 1, 62, 0
5, 573840, Note_on_c, 1, 62, 123
5, 574080, Note_on_c, 1, 62, 0
5, 574080, Note_on_c, 1, 62, 123
5, 575520, Note_on_c, 1, 62, 0
5, 575520, Note_on_c, 1, 63, 123
5, 576000, Note_on_c, 1, 63, 0
5, 576000, Note_on_c, 1, 65, 123
5, 576480, Note_on_c, 1, 65, 0
5, 576480, Note_on_c, 1, 62, 123
5, 576960, Note_on_c, 1, 62, 0
5, 576960, Note_on_c, 1, 63, 123
5, 577440, Note_on_c, 1, 63, 0
5, 577440, Note_on_c, 1, 65, 123
5, 577920, Note_on_c, 1, 65, 0
5, 577920, Note_on_c, 1, 63, 123
5, 578400, Note_on_c, 1, 63, 0
5, 579120, Note_on_c, 1, 67, 123
5, 579360, Note_on_c, 1, 67, 0
5, 579360, Note_on_c, 1, 67, 123
5, 579600, Note_on_c, 1, 67, 0
5, 579600, Note_on_c, 1, 67, 123
5, 579840, Note_on_c, 1, 67, 0
5, 579840, Note_on_c, 1, 67, 123
5, 580080, Note_on_c, 1, 67, 0
5, 580080, Note_on_c, 1, 67, 123
5, 580320, Note_on_c, 1, 67, 0
5, 580320, Note_on_c, 1, 67, 123
5, 580560, Note_on_c, 1, 67, 0
5, 580560, Note_on_c, 1, 67, 123
5, 580800, Note_on_c, 1, 67, 0
5, 580800, Note_on_c, 1, 67, 123
5, 581040, Note_on_c, 1, 67, 0
5, 581040, Note_on_c, 1, 67, 123
5, 581280, Note_on_c, 1, 67, 0
5, 581280, Note_on_c, 1, 67, 123
5, 581520, Note_on_c, 1, 67, 0
5, 581520, Note_on_c, 1, 67, 123
5, 581760, Note_on_c, 1, 67, 0
5, 581760, Note_on_c, 1, 63, 123
5, 582720, Note_on_c, 1, 63, 0
5, 582960, Note_on_c, 1, 65, 123
5, 583200, Note_on_c, 1, 65, 0
5, 583200, Note_on_c, 1, 65, 123
5, 583440, Note_on_c, 1, 65, 0
5, 583440, Note_on_c, 1, 65, 123
5, 583680, Note_on_c, 1, 65, 0
5, 583680, Note_on_c, 1, 62, 123
5, 585600, Note_on_c, 1, 62, 0
5, 588960, Note_on_c, 1, 68, 91
5, 589440, Note_on_c, 1, 68, 0
5, 589440, Note_on_c, 1, 67, 91
5, 590400, Note_on_c, 1, 67, 0
5, 592800, Note_on_c, 1, 68, 91
5, 593280, Note_on_c, 1, 68, 0
5, 593280, Note_on_c, 1, 67, 91
5, 593520, Note_on_c, 1, 67, 0
5, 593520, Note_on_c, 1, 62, 123
5, 593760, Note_on_c, 1, 62, 0
5, 593760, Note_on_c, 1, 62, 123
5, 594000, Note_on_c, 1, 62, 0
5, 594000, Note_on_c, 1, 62, 123
5, 594240, Note_on_c, 1, 62, 0
5, 594240, Note_on_c, 1, 63, 123
5, 594720, Note_on_c, 1, 63, 0
5, 595440, Note_on_c, 1, 62, 123
5, 595680, Note_on_c, 1, 62, 0
5, 595680, Note_on_c, 1, 62, 123
5, 595920, Note_on_c, 1, 62, 0
5, 595920, Note_on_c, 1, 62, 123
5, 596160, Note_on_c, 1, 62, 0
5, 596160, Note_on_c, 1, 63, 123
5, 596640, Note_on_c, 1, 63, 0
5, 597360, Note_on_c, 1, 62, 123
5, 597600, Note_on_c, 1, 62, 0
5, 597600, Note_on_c, 1, 62, 123
5, 597840, Note_on_c, 1, 62, 0
5, 597840, Note_on_c, 1, 62, 123
5, 598080, Note_on_c, 1, 62, 0
5, 598080, Note_on_c, 1, 63, 123
5, 598560, Note_on_c, 1, 63, 0
5, 598560, Note_on_c, 1, 62, 123
5, 599040, Note_on_c, 1, 62, 0
5, 599040, Note_on_c, 1, 63, 123
5, 599520, Note_on_c, 1, 63, 0
5, 599520, Note_on_c, 1, 62, 123
5, 600000, Note_on_c, 1, 62, 0
5, 600000, Note_on_c, 1, 63, 123
5, 600480, Note_on_c, 1, 63, 0
5, 600480, Note_on_c, 1, 62, 123
5, 600960, Note_on_c, 1, 62, 0
5, 600960, Note_on_c, 1, 63, 123
5, 601440, Note_on_c, 1, 63, 0
5, 601440, Note_on_c, 1, 62, 123
5, 601920, Note_on_c, 1, 62, 0
5, 601920, Note_on_c, 1, 63, 123
5, 602400, Note_on_c, 1, 63, 0
5, 602880, Note_on_c, 1, 62, 123
5, 603360, Note_on_c, 1, 62, 0
5, 603840, Note_on_c, 1, 63, 123
5, 604320, Note_on_c, 1, 63, 0
5, 604320, End_track
6, 0, Start_track
6, 0, MIDI_port, 0
6, 0, Title_t, "Clarinet 1"
6, 0, Program_c, 2, 71
6, 240, Note_on_c, 2, 55, 123
6, 480, Note_on_c, 2, 55, 0
6, 480, Note_on_c, 2, 55, 123
6, 720, Note_on_c, 2, 55, 0
6, 720, Note_on_c, 2, 55, 123
6, 960, Note_on_c, 2, 55, 0
6, 960, Note_on_c, 2, 51, 123
6, 1920, Note_on_c, 2, 51, 0
6, 2160, Note_on_c, 2, 53, 123
6, 2400, Note_on_c, 2, 53, 0
6, 2400, Note_on_c, 2, 53, 123
6, 2640, Note_on_c, 2, 53, 0
6, 2640, Note_on_c, 2, 53, 123
6, 2880, Note_on_c, 2, 53, 0
6, 2880, Note_on_c, 2, 50, 123
6, 4800, Note_on_c, 2, 50, 0
6, 16560, Note_on_c, 2, 47, 91
6, 16800, Note_on_c, 2, 47, 0
6, 16800, Note_on_c, 2, 50, 101
6, 17040, Note_on_c, 2, 50, 0
6, 17040, Note_on_c, 2, 55, 109
6, 17280, Note_on_c, 2, 55, 0
6, 17280, Note_on_c, 2, 55, 115
6, 17760, Note_on_c, 2, 55, 0
6, 18240, Note_on_c, 2, 54, 115
6, 18720, Note_on_c, 2, 54, 0
6, 19200, Note_on_c, 2, 50, 115
6, 19680, Note_on_c, 2, 50, 0
6, 20400, Note_on_c, 2, 56, 123
6, 20640, Note_on_c, 2, 56, 0
6, 20640, Note_on_c, 2, 56, 123
6, 20880, Note_on_c, 2, 56, 0
6, 20880, Note_on_c, 2, 56, 123
6, 21120, Note_on_c, 2, 56, 0
6, 21120, Note_on_c, 2, 53, 123
6, 23040, Note_on_c, 2, 53, 0
6, 30000, Note_on_c, 2, 62, 91
6, 30240, Note_on_c, 2, 62, 0
6, 30240, Note_on_c, 2, 62, 91
6, 30480, Note_on_c, 2, 62, 0
6, 30480, Note_on_c, 2, 62, 91
6, 30720, Note_on_c, 2, 62, 0
6, 30720, Note_on_c, 2, 60, 91
6, 31200, Note_on_c, 2, 60, 0
6, 35520, Note_on_c, 2, 56, 91
6, 36000, Note_on_c, 2, 56, 0
6, 36480, Note_on_c, 2, 55, 91
6, 36960, Note_on_c, 2, 55, 0
6, 37440, Note_on_c, 2, 56, 91
6, 37920, Note_on_c, 2, 56, 0
6, 38400, Note_on_c, 2, 58, 91
6, 38880, Note_on_c, 2, 58, 0
6, 39360, Note_on_c, 2, 56, 91
6, 39840, Note_on_c, 2, 56, 0
6, 40320, Note_on_c, 2, 53, 91
6, 40800, Note_on_c, 2, 53, 0
6, 41280, Note_on_c, 2, 55, 115
6, 45120, Note_on_c, 2, 55, 0
6, 45120, Note_on_c, 2, 53, 115
6, 48480, Note_on_c, 2, 53, 0
6, 48480, Note_on_c, 2, 51, 115
6, 48960, Note_on_c, 2, 51, 0
6, 48960, Note_on_c, 2, 63, 123
6, 52800, Note_on_c, 2, 63, 0
6, 52800, Note_on_c, 2, 63, 123
6, 53280, Note_on_c, 2, 63, 0
6, 54720, Note_on_c, 2, 58, 123
6, 55200, Note_on_c, 2, 58, 0
6, 63360, Note_on_c, 2, 58, 91
6, 63840, Note_on_c, 2, 58, 0
6, 63840, Note_on_c, 2, 63, 91
6, 64320, Note_on_c, 2, 63, 0
6, 64320, Note_on_c, 2, 62, 91
6, 64800, Note_on_c, 2, 62, 0
6, 64800, Note_on_c, 2, 63, 91
6, 65280, Note_on_c, 2, 63, 0
6, 65280, Note_on_c, 2, 65, 91
6, 65760, Note_on_c, 2, 65, 0
6, 65760, Note_on_c, 2, 60, 91
6, 66240, Note_on_c, 2, 60, 0
6, 66240, Note_on_c, 2, 60, 91
6, 66720, Note_on_c, 2, 60, 0
6, 66720, Note_on_c, 2, 58, 91
6, 67200, Note_on_c, 2, 58, 0
6, 78720, Note_on_c, 2, 63, 91
6, 81600, Note_on_c, 2, 63, 0
6, 81600, Note_on_c, 2, 63, 91
6, 83520, Note_on_c, 2, 63, 0
6, 83520, Note_on_c, 2, 63, 91
6, 87840, Note_on_c, 2, 63, 0
6, 87840, Note_on_c, 2, 63, 109
6, 88320, Note_on_c, 2, 63, 0
6, 88320, Note_on_c, 2, 63, 115
6, 88800, Note_on_c, 2, 63, 0
6, 88800, Note_on_c, 2, 63, 115
6, 89280, Note_on_c, 2, 63, 0
6, 89280, Note_on_c, 2, 58, 123
6, 90720, Note_on_c, 2, 58, 0
6, 90720, Note_on_c, 2, 58, 123
6, 91200, Note_on_c, 2, 58, 0
6, 91200, Note_on_c, 2, 58, 123
6, 91680, Note_on_c, 2, 58, 0
6, 92160, Note_on_c, 2, 58, 123
6, 92640, Note_on_c, 2, 58, 0
6, 93120, Note_on_c, 2, 58, 123
6, 93600, Note_on_c, 2, 58, 0
6, 94080, Note_on_c, 2, 60, 123
6, 94560, Note_on_c, 2, 60, 0
6, 95040, Note_on_c, 2, 58, 123
6, 95520, Note_on_c, 2, 58, 0
6, 96000, Note_on_c, 2, 58, 123
6, 96240, Note_on_c, 2, 58, 0
6, 96240, Note_on_c, 2, 69, 123
6, 96480, Note_on_c, 2, 69, 0
6, 96480, Note_on_c, 2, 70, 123
6, 96720, Note_on_c, 2, 70, 0
6, 96720, Note_on_c, 2, 69, 123
6, 96960, Note_on_c, 2, 69, 0
6, 96960, Note_on_c, 2, 70, 123
6, 97200, Note_on_c, 2, 70, 0
6, 97200, Note_on_c, 2, 69, 123
6, 97440, Note_on_c, 2, 69, 0
6, 97440, Note_on_c, 2, 70, 123
6, 97680, Note_on_c, 2, 70, 0
6, 97680, Note_on_c, 2, 69, 123
6, 97920, Note_on_c, 2, 69, 0
6, 97920, Note_on_c, 2, 70, 123
6, 98160, Note_on_c, 2, 70, 0
6, 98160, Note_on_c, 2, 72, 123
6, 98400, Note_on_c, 2, 72, 0
6, 98400, Note_on_c, 2, 70, 123
6, 98640, Note_on_c, 2, 70, 0
6, 98640, Note_on_c, 2, 68, 123
6, 98880, Note_on_c, 2, 68, 0
6, 98880, Note_on_c, 2, 67, 123
6, 99360, Note_on_c, 2, 67, 0
6, 99360, Note_on_c, 2, 67, 123
6, 99840, Note_on_c, 2, 67, 0
6, 100320, Note_on_c, 2, 62, 123
6, 100800, Note_on_c, 2, 62, 0
6, 101280, Note_on_c, 2, 63, 123
6, 101760, Note_on_c, 2, 63, 0
6, 102240, Note_on_c, 2, 56, 123
6, 102720, Note_on_c, 2, 56, 0
6, 103200, Note_on_c, 2, 55, 123
6, 103680, Note_on_c, 2, 55, 0
6, 104160, Note_on_c, 2, 62, 123
6, 104640, Note_on_c, 2, 62, 0
6, 104640, Note_on_c, 2, 63, 123
6, 104880, Note_on_c, 2, 63, 0
6, 104880, Note_on_c, 2, 67, 123
6, 105120, Note_on_c, 2, 67, 0
6, 105120, Note_on_c, 2, 67, 123
6, 105360, Note_on_c, 2, 67, 0
6, 105360, Note_on_c, 2, 67, 123
6, 105600, Note_on_c, 2, 67, 0
6, 105600, Note_on_c, 2, 63, 123
6, 105840, Note_on_c, 2, 63, 0
6, 105840, Note_on_c, 2, 70, 123
6, 106080, Note_on_c, 2, 70, 0
6, 106080, Note_on_c, 2, 70, 123
6, 106320, Note_on_c, 2, 70, 0
6, 106320, Note_on_c, 2, 70, 123
6, 106560, Note_on_c, 2, 70, 0
6, 106560, Note_on_c, 2, 67, 123
6, 106800, Note_on_c, 2, 67, 0
6, 106800, Note_on_c, 2, 63, 123
6, 107040, Note_on_c, 2, 63, 0
6, 107040, Note_on_c, 2, 63, 123
6, 107280, Note_on_c, 2, 63, 0
6, 107280, Note_on_c, 2, 63, 123
6, 107520, Note_on_c, 2, 63, 0
6, 107520, Note_on_c, 2, 58, 123
6, 108720, Note_on_c, 2, 58, 0
6, 108720, Note_on_c, 2, 67, 123
6, 108960, Note_on_c, 2, 67, 0
6, 108960, Note_on_c, 2, 67, 123
6, 109200, Note_on_c, 2, 67, 0
6, 109200, Note_on_c, 2, 67, 123
6, 109440, Note_on_c, 2, 67, 0
6, 109440, Note_on_c, 2, 63, 123
6, 109680, Note_on_c, 2, 63, 0
6, 109680, Note_on_c, 2, 70, 123
6, 109920, Note_on_c, 2, 70, 0
6, 109920, Note_on_c, 2, 70, 123
6, 110160, Note_on_c, 2, 70, 0
6, 110160, Note_on_c, 2, 70, 123
6, 110400, Note_on_c, 2, 70, 0
6, 110400, Note_on_c, 2, 67, 123
6, 110640, Note_on_c, 2, 67, 0
6, 110640, Note_on_c, 2, 63, 123
6, 110880, Note_on_c, 2, 63, 0
6, 110880, Note_on_c, 2, 63, 123
6, 111120, Note_on_c, 2, 63, 0
6, 111120, Note_on_c, 2, 63, 123
6, 111360, Note_on_c, 2, 63, 0
6, 111360, Note_on_c, 2, 58, 123
6, 112800, Note_on_c, 2, 58, 0
6, 113520, Note_on_c, 2, 62, 123
6, 113760, Note_on_c, 2, 62, 0
6, 113760, Note_on_c, 2, 62, 123
6, 114000, Note_on_c, 2, 62, 0
6, 114000, Note_on_c, 2, 62, 123
6, 114240, Note_on_c, 2, 62, 0
6, 114240, Note_on_c, 2, 63, 123
6, 114720, Note_on_c, 2, 63, 0
6, 115440, Note_on_c, 2, 65, 123
6, 115680, Note_on_c, 2, 65, 0
6, 115680, Note_on_c, 2, 65, 123
6, 115920, Note_on_c, 2, 65, 0
6, 115920, Note_on_c, 2, 65, 123
6, 116160, Note_on_c, 2, 65, 0
6, 116160, Note_on_c, 2, 63, 123
6, 116640, Note_on_c, 2, 63, 0
6, 119280, Note_on_c, 2, 55, 123
6, 119520, Note_on_c, 2, 55, 0
6, 119520, Note_on_c, 2, 55, 123
6, 119760, Note_on_c, 2, 55, 0
6, 119760, Note_on_c, 2, 55, 123
6, 120000, Note_on_c, 2, 55, 0
6, 120000, Note_on_c, 2, 51, 123
6, 120960, Note_on_c, 2, 51, 0
6, 121200, Note_on_c, 2, 53, 123
6, 121440, Note_on_c, 2, 53, 0
6, 121440, Note_on_c, 2, 53, 123
6, 121680, Note_on_c, 2, 53, 0
6, 121680, Note_on_c, 2, 53, 123
6, 121920, Note_on_c, 2, 53, 0
6, 121920, Note_on_c, 2, 50, 123
6, 123840, Note_on_c, 2, 50, 0
6, 135600, Note_on_c, 2, 47, 91
6, 135840, Note_on_c, 2, 47, 0
6, 135840, Note_on_c, 2, 50, 101
6, 136080, Note_on_c, 2, 50, 0
6, 136080, Note_on_c, 2, 55, 109
6, 136320, Note_on_c, 2, 55, 0
6, 136320, Note_on_c, 2, 55, 115
6, 136800, Note_on_c, 2, 55, 0
6, 137280, Note_on_c, 2, 54, 115
6, 137760, Note_on_c, 2, 54, 0
6, 138240, Note_on_c, 2, 50, 115
6, 138720, Note_on_c, 2, 50, 0
6, 139440, Note_on_c, 2, 56, 123
6, 139680, Note_on_c, 2, 56, 0
6, 139680, Note_on_c, 2, 56, 123
6, 139920, Note_on_c, 2, 56, 0
6, 139920, Note_on_c, 2, 56, 123
6, 140160, Note_on_c, 2, 56, 0
6, 140160, Note_on_c, 2, 53, 123
6, 142080, Note_on_c, 2, 53, 0
6, 149040, Note_on_c, 2, 62, 91
6, 149280, Note_on_c, 2, 62, 0
6, 149280, Note_on_c, 2, 62, 91
6, 149520, Note_on_c, 2, 62, 0
6, 149520, Note_on_c, 2, 62, 91
6, 149760, Note_on_c, 2, 62, 0
6, 149760, Note_on_c, 2, 60, 91
6, 150240, Note_on_c, 2, 60, 0
6, 154560, Note_on_c, 2, 56, 91
6, 155040, Note_on_c, 2, 56, 0
6, 155520, Note_on_c, 2, 55, 91
6, 156000, Note_on_c, 2, 55, 0
6, 156480, Note_on_c, 2, 56, 91
6, 156960, Note_on_c, 2, 56, 0
6, 157440, Note_on_c, 2, 58, 91
6, 157920, Note_on_c, 2, 58, 0
6, 158400, Note_on_c, 2, 56, 91
6, 158880, Note_on_c, 2, 56, 0
6, 159360, Note_on_c, 2, 53, 91
6, 159840, Note_on_c, 2, 53, 0
6, 160320, Note_on_c, 2, 55, 115
6, 164160, Note_on_c, 2, 55, 0
6, 164160, Note_on_c, 2, 53, 115
6, 167520, Note_on_c, 2, 53, 0
6, 167520, Note_on_c, 2, 51, 115
6, 168000, Note_on_c, 2, 51, 0
6, 168000, Note_on_c, 2, 63, 123
6, 171840, Note_on_c, 2, 63, 0
6, 171840, Note_on_c, 2, 63, 123
6, 172320, Note_on_c, 2, 63, 0
6, 173760, Note_on_c, 2, 58, 123
6, 174240, Note_on_c, 2, 58, 0
6, 182400, Note_on_c, 2, 58, 91
6, 182880, Note_on_c, 2, 58, 0
6, 182880, Note_on_c, 2, 63, 91
6, 183360, Note_on_c, 2, 63, 0
6, 183360, Note_on_c, 2, 62, 91
6, 183840, Note_on_c, 2, 62, 0
6, 183840, Note_on_c, 2, 63, 91
6, 184320, Note_on_c, 2, 63, 0
6, 184320, Note_on_c, 2, 65, 91
6, 184800, Note_on_c, 2, 65, 0
6, 184800, Note_on_c, 2, 60, 91
6, 185280, Note_on_c, 2, 60, 0
6, 185280, Note_on_c, 2, 60, 91
6, 185760, Note_on_c, 2, 60, 0
6, 185760, Note_on_c, 2, 58, 91
6, 186240, Note_on_c, 2, 58, 0
6, 197760, Note_on_c, 2, 63, 91
6, 200640, Note_on_c, 2, 63, 0
6, 200640, Note_on_c, 2, 63, 91
6, 202560, Note_on_c, 2, 63, 0
6, 202560, Note_on_c, 2, 63, 91
6, 206880, Note_on_c, 2, 63, 0
6, 206880, Note_on_c, 2, 63, 109
6, 207360, Note_on_c, 2, 63, 0
6, 207360, Note_on_c, 2, 63, 115
6, 207840, Note_on_c, 2, 63, 0
6, 207840, Note_on_c, 2, 63, 115
6, 208320, Note_on_c, 2, 63, 0
6, 208320, Note_on_c, 2, 58, 123
6, 209760, Note_on_c, 2, 58, 0
6, 209760, Note_on_c, 2, 58, 123
6, 210240, Note_on_c, 2, 58, 0
6, 210240, Note_on_c, 2, 58, 123
6, 210720, Note_on_c, 2, 58, 0
6, 211200, Note_on_c, 2, 58, 123
6, 211680, Note_on_c, 2, 58, 0
6, 212160, Note_on_c, 2, 58, 123
6, 212640, Note_on_c, 2, 58, 0
6, 213120, Note_on_c, 2, 60, 123
6, 213600, Note_on_c, 2, 60, 0
6, 214080, Note_on_c, 2, 58, 123
6, 214560, Note_on_c, 2, 58, 0
6, 215040, Note_on_c, 2, 58, 123
6, 215280, Note_on_c, 2, 58, 0
6, 215280, Note_on_c, 2, 69, 123
6, 215520, Note_on_c, 2, 69, 0
6, 215520, Note_on_c, 2, 70, 123
6, 215760, Note_on_c, 2, 70, 0
6, 215760, Note_on_c, 2, 69, 123
6, 216000, Note_on_c, 2, 69, 0
6, 216000, Note_on_c, 2, 70, 123
6, 216240, Note_on_c, 2, 70, 0
6, 216240, Note_on_c, 2, 69, 123
6, 216480, Note_on_c, 2, 69, 0
6, 216480, Note_on_c, 2, 70, 123
6, 216720, Note_on_c, 2, 70, 0
6, 216720, Note_on_c, 2, 69, 123
6, 216960, Note_on_c, 2, 69, 0
6, 216960, Note_on_c, 2, 70, 123
6, 217200, Note_on_c, 2, 70, 0
6, 217200, Note_on_c, 2, 72, 123
6, 217440, Note_on_c, 2, 72, 0
6, 217440, Note_on_c, 2, 70, 123
6, 217680, Note_on_c, 2, 70, 0
6, 217680, Note_on_c, 2, 68, 123
6, 217920, Note_on_c, 2, 68, 0
6, 217920, Note_on_c, 2, 67, 123
6, 218400, Note_on_c, 2, 67, 0
6, 218400, Note_on_c, 2, 67, 123
6, 218880, Note_on_c, 2, 67, 0
6, 219360, Note_on_c, 2, 62, 123
6, 219840, Note_on_c, 2, 62, 0
6, 220320, Note_on_c, 2, 63, 123
6, 220800, Note_on_c, 2, 63, 0
6, 221280, Note_on_c, 2, 56, 123
6, 221760, Note_on_c, 2, 56, 0
6, 222240, Note_on_c, 2, 55, 123
6, 222720, Note_on_c, 2, 55, 0
6, 223200, Note_on_c, 2, 62, 123
6, 223680, Note_on_c, 2, 62, 0
6, 223680, Note_on_c, 2, 63, 123
6, 223920, Note_on_c, 2, 63, 0
6, 223920, Note_on_c, 2, 67, 123
6, 224160, Note_on_c, 2, 67, 0
6, 224160, Note_on_c, 2, 67, 123
6, 224400, Note_on_c, 2, 67, 0
6, 224400, Note_on_c, 2, 67, 123
6, 224640, Note_on_c, 2, 67, 0
6, 224640, Note_on_c, 2, 63, 123
6, 224880, Note_on_c, 2, 63, 0
6, 224880, Note_on_c, 2, 70, 123
6, 225120, Note_on_c, 2, 70, 0
6, 225120, Note_on_c, 2, 70, 123
6, 225360, Note_on_c, 2, 70, 0
6, 225360, Note_on_c, 2, 70, 123
6, 225600, Note_on_c, 2, 70, 0
6, 225600, Note_on_c, 2, 67, 123
6, 225840, Note_on_c, 2, 67, 0
6, 225840, Note_on_c, 2, 63, 123
6, 226080, Note_on_c, 2, 63, 0
6, 226080, Note_on_c, 2, 63, 123
6, 226320, Note_on_c, 2, 63, 0
6, 226320, Note_on_c, 2, 63, 123
6, 226560, Note_on_c, 2, 63, 0
6, 226560, Note_on_c, 2, 58, 123
6, 227760, Note_on_c, 2, 58, 0
6, 227760, Note_on_c, 2, 67, 123
6, 228000, Note_on_c, 2, 67, 0
6, 228000, Note_on_c, 2, 67, 123
6, 228240, Note_on_c, 2, 67, 0
6, 228240, Note_on_c, 2, 67, 123
6, 228480, Note_on_c, 2, 67, 0
6, 228480, Note_on_c, 2, 63, 123
6, 228720, Note_on_c, 2, 63, 0
6, 228720, Note_on_c, 2, 70, 123
6, 228960, Note_on_c, 2, 70, 0
6, 228960, Note_on_c, 2, 70, 123
6, 229200, Note_on_c, 2, 70, 0
6, 229200, Note_on_c, 2, 70, 123
6, 229440, Note_on_c, 2, 70, 0
6, 229440, Note_on_c, 2, 67, 123
6, 229680, Note_on_c, 2, 67, 0
6, 229680, Note_on_c, 2, 63, 123
6, 229920, Note_on_c, 2, 63, 0
6, 229920, Note_on_c, 2, 63, 123
6, 230160, Note_on_c, 2, 63, 0
6, 230160, Note_on_c, 2, 63, 123
6, 230400, Note_on_c, 2, 63, 0
6, 230400, Note_on_c, 2, 58, 123
6, 231840, Note_on_c, 2, 58, 0
6, 232560, Note_on_c, 2, 62, 123
6, 232800, Note_on_c, 2, 62, 0
6, 232800, Note_on_c, 2, 62, 123
6, 233040, Note_on_c, 2, 62, 0
6, 233040, Note_on_c, 2, 62, 123
6, 233280, Note_on_c, 2, 62, 0
6, 233280, Note_on_c, 2, 63, 123
6, 233760, Note_on_c, 2, 63, 0
6, 234480, Note_on_c, 2, 65, 123
6, 234720, Note_on_c, 2, 65, 0
6, 234720, Note_on_c, 2, 65, 123
6, 234960, Note_on_c, 2, 65, 0
6, 234960, Note_on_c, 2, 65, 123
6, 235200, Note_on_c, 2, 65, 0
6, 235200, Note_on_c, 2, 63, 123
6, 235680, Note_on_c, 2, 63, 0
6, 238320, Note_on_c, 2, 58, 123
6, 238560, Note_on_c, 2, 58, 0
6, 238560, Note_on_c, 2, 58, 123
6, 238800, Note_on_c, 2, 58, 0
6, 238800, Note_on_c, 2, 58, 123
6, 239040, Note_on_c, 2, 58, 0
6, 239040, Note_on_c, 2, 55, 123
6, 241920, Note_on_c, 2, 55, 0
6, 243120, Note_on_c, 2, 61, 91
6, 243360, Note_on_c, 2, 61, 0
6, 243360, Note_on_c, 2, 61, 91
6, 243600, Note_on_c, 2, 61, 0
6, 243600, Note_on_c, 2, 61, 91
6, 243840, Note_on_c, 2, 61, 0
6, 243840, Note_on_c, 2, 60, 91
6, 246960, Note_on_c, 2, 60, 0
6, 246960, Note_on_c, 2, 61, 91
6, 247200, Note_on_c, 2, 61, 0
6, 247200, Note_on_c, 2, 61, 91
6, 247440, Note_on_c, 2, 61, 0
6, 247440, Note_on_c, 2, 61, 91
6, 247680, Note_on_c, 2, 61, 0
6, 247680, Note_on_c, 2, 60, 91
6, 250560, Note_on_c, 2, 60, 0
6, 250560, Note_on_c, 2, 60, 91
6, 254880, Note_on_c, 2, 60, 0
6, 258240, Note_on_c, 2, 63, 91
6, 259200, Note_on_c, 2, 63, 0
6, 259200, Note_on_c, 2, 62, 91
6, 260160, Note_on_c, 2, 62, 0
6, 260160, Note_on_c, 2, 63, 91
6, 261120, Note_on_c, 2, 63, 0
6, 261120, Note_on_c, 2, 62, 91
6, 262080, Note_on_c, 2, 62, 0
6, 262080, Note_on_c, 2, 63, 91
6, 262560, Note_on_c, 2, 63, 0
6, 265200, Note_on_c, 2, 62, 91
6, 265440, Note_on_c, 2, 62, 0
6, 265440, Note_on_c, 2, 62, 91
6, 265680, Note_on_c, 2, 62, 0
6, 265680, Note_on_c, 2, 60, 91
6, 265920, Note_on_c, 2, 60, 0
6, 265920, Note_on_c, 2, 58, 91
6, 266880, Note_on_c, 2, 58, 0
6, 266880, Note_on_c, 2, 57, 91
6, 267120, Note_on_c, 2, 57, 0
6, 267120, Note_on_c, 2, 62, 91
6, 267360, Note_on_c, 2, 62, 0
6, 267360, Note_on_c, 2, 62, 91
6, 267600, Note_on_c, 2, 62, 0
6, 267600, Note_on_c, 2, 60, 91
6, 267840, Note_on_c, 2, 60, 0
6, 267840, Note_on_c, 2, 58, 91
6, 268800, Note_on_c, 2, 58, 0
6, 268800, Note_on_c, 2, 57, 91
6, 269760, Note_on_c, 2, 57, 0
6, 269760, Note_on_c, 2, 58, 91
6, 270960, Note_on_c, 2, 58, 0
6, 270960, Note_on_c, 2, 55, 91
6, 271200, Note_on_c, 2, 55, 0
6, 271200, Note_on_c, 2, 57, 91
6, 271440, Note_on_c, 2, 57, 0
6, 271440, Note_on_c, 2, 58, 91
6, 271680, Note_on_c, 2, 58, 0
6, 271680, Note_on_c, 2, 60, 91
6, 272160, Note_on_c, 2, 60, 0
6, 272880, Note_on_c, 2, 54, 91
6, 273120, Note_on_c, 2, 54, 0
6, 273120, Note_on_c, 2, 57, 91
6, 273360, Note_on_c, 2, 57, 0
6, 273360, Note_on_c, 2, 58, 91
6, 273600, Note_on_c, 2, 58, 0
6, 273600, Note_on_c, 2, 60, 91
6, 274080, Note_on_c, 2, 60, 0
6, 274800, Note_on_c, 2, 57, 91
6, 275040, Note_on_c, 2, 57, 0
6, 275040, Note_on_c, 2, 58, 91
6, 275280, Note_on_c, 2, 58, 0
6, 275280, Note_on_c, 2, 60, 91
6, 275520, Note_on_c, 2, 60, 0
6, 275520, Note_on_c, 2, 62, 91
6, 276000, Note_on_c, 2, 62, 0
6, 276720, Note_on_c, 2, 55, 91
6, 276960, Note_on_c, 2, 55, 0
6, 276960, Note_on_c, 2, 58, 91
6, 277200, Note_on_c, 2, 58, 0
6, 277200, Note_on_c, 2, 60, 91
6, 277440, Note_on_c, 2, 60, 0
6, 277440, Note_on_c, 2, 62, 91
6, 277920, Note_on_c, 2, 62, 0
6, 278640, Note_on_c, 2, 58, 91
6, 278880, Note_on_c, 2, 58, 0
6, 278880, Note_on_c, 2, 60, 101
6, 279120, Note_on_c, 2, 60, 0
6, 279120, Note_on_c, 2, 62, 109
6, 279360, Note_on_c, 2, 62, 0
6, 279360, Note_on_c, 2, 57, 115
6, 281280, Note_on_c, 2, 57, 0
6, 281280, Note_on_c, 2, 57, 115
6, 281760, Note_on_c, 2, 57, 0
6, 282480, Note_on_c, 2, 58, 115
6, 282720, Note_on_c, 2, 58, 0
6, 282720, Note_on_c, 2, 58, 115
6, 282960, Note_on_c, 2, 58, 0
6, 282960, Note_on_c, 2, 58, 115
6, 283200, Note_on_c, 2, 58, 0
6, 283200, Note_on_c, 2, 58, 115
6, 285120, Note_on_c, 2, 58, 0
6, 285120, Note_on_c, 2, 58, 115
6, 285600, Note_on_c, 2, 58, 0
6, 286320, Note_on_c, 2, 58, 115
6, 286560, Note_on_c, 2, 58, 0
6, 286560, Note_on_c, 2, 58, 115
6, 286800, Note_on_c, 2, 58, 0
6, 286800, Note_on_c, 2, 58, 115
6, 287040, Note_on_c, 2, 58, 0
6, 287040, Note_on_c, 2, 58, 115
6, 287520, Note_on_c, 2, 58, 0
6, 288480, Note_on_c, 2, 58, 115
6, 288720, Note_on_c, 2, 58, 0
6, 288720, Note_on_c, 2, 58, 115
6, 288960, Note_on_c, 2, 58, 0
6, 288960, Note_on_c, 2, 58, 115
6, 289440, Note_on_c, 2, 58, 0
6, 289440, Note_on_c, 2, 57, 115
6, 289680, Note_on_c, 2, 57, 0
6, 289680, Note_on_c, 2, 57, 115
6, 289920, Note_on_c, 2, 57, 0
6, 289920, Note_on_c, 2, 57, 115
6, 290400, Note_on_c, 2, 57, 0
6, 295200, Note_on_c, 2, 60, 115
6, 295440, Note_on_c, 2, 60, 0
6, 295440, Note_on_c, 2, 60, 115
6, 295680, Note_on_c, 2, 60, 0
6, 295680, Note_on_c, 2, 60, 115
6, 296160, Note_on_c, 2, 60, 0
6, 297120, Note_on_c, 2, 57, 115
6, 297360, Note_on_c, 2, 57, 0
6, 297360, Note_on_c, 2, 57, 115
6, 297600, Note_on_c, 2, 57, 0
6, 297600, Note_on_c, 2, 59, 115
6, 298080, Note_on_c, 2, 59, 0
6, 302880, Note_on_c, 2, 59, 115
6, 303120, Note_on_c, 2, 59, 0
6, 303120, Note_on_c, 2, 59, 115
6, 303360, Note_on_c, 2, 59, 0
6, 303360, Note_on_c, 2, 59, 115
6, 303840, Note_on_c, 2, 59, 0
6, 304800, Note_on_c, 2, 62, 115
6, 305040, Note_on_c, 2, 62, 0
6, 305040, Note_on_c, 2, 62, 115
6, 305280, Note_on_c, 2, 62, 0
6, 305280, Note_on_c, 2, 64, 115
6, 305520, Note_on_c, 2, 64, 0
6, 305520, Note_on_c, 2, 72, 123
6, 305760, Note_on_c, 2, 72, 0
6, 305760, Note_on_c, 2, 72, 123
6, 306000, Note_on_c, 2, 72, 0
6, 306000, Note_on_c, 2, 72, 123
6, 306240, Note_on_c, 2, 72, 0
6, 306240, Note_on_c, 2, 65, 123
6, 307200, Note_on_c, 2, 65, 0
6, 307200, Note_on_c, 2, 67, 123
6, 308160, Note_on_c, 2, 67, 0
6, 310080, Note_on_c, 2, 65, 123
6, 311040, Note_on_c, 2, 65, 0
6, 311040, Note_on_c, 2, 67, 123
6, 312000, Note_on_c, 2, 67, 0
6, 313920, Note_on_c, 2, 60, 123
6, 314880, Note_on_c, 2, 60, 0
6, 314880, Note_on_c, 2, 61, 123
6, 315840, Note_on_c, 2, 61, 0
6, 317760, Note_on_c, 2, 63, 123
6, 318720, Note_on_c, 2, 63, 0
6, 318720, Note_on_c, 2, 61, 123
6, 319680, Note_on_c, 2, 61, 0
6, 320640, Note_on_c, 2, 59, 115
6, 321600, Note_on_c, 2, 59, 0
6, 322560, Note_on_c, 2, 61, 109
6, 323520, Note_on_c, 2, 61, 0
6, 324480, Note_on_c, 2, 61, 101
6, 325440, Note_on_c, 2, 61, 0
6, 326400, Note_on_c, 2, 61, 91
6, 327360, Note_on_c, 2, 61, 0
6, 328320, Note_on_c, 2, 61, 91
6, 329280, Note_on_c, 2, 61, 0
6, 330240, Note_on_c, 2, 62, 78
6, 331200, Note_on_c, 2, 62, 0
6, 332160, Note_on_c, 2, 62, 78
6, 333120, Note_on_c, 2, 62, 0
6, 334080, Note_on_c, 2, 62, 78
6, 335040, Note_on_c, 2, 62, 0
6, 336000, Note_on_c, 2, 62, 78
6, 336960, Note_on_c, 2, 62, 0
6, 337200, Note_on_c, 2, 62, 123
6, 337440, Note_on_c, 2, 62, 0
6, 337440, Note_on_c, 2, 62, 123
6, 337680, Note_on_c, 2, 62, 0
6, 337680, Note_on_c, 2, 62, 123
6, 337920, Note_on_c, 2, 62, 0
6, 337920, Note_on_c, 2, 59, 123
6, 338880, Note_on_c, 2, 59, 0
6, 338880, Note_on_c, 2, 60, 123
6, 339840, Note_on_c, 2, 60, 0
6, 339840, Note_on_c, 2, 57, 123
6, 341760, Note_on_c, 2, 57, 0
6, 341760, Note_on_c, 2, 62, 78
6, 342720, Note_on_c, 2, 62, 0
6, 343680, Note_on_c, 2, 62, 78
6, 344640, Note_on_c, 2, 62, 0
6, 345600, Note_on_c, 2, 62, 78
6, 346560, Note_on_c, 2, 62, 0
6, 347520, Note_on_c, 2, 62, 78
6, 348480, Note_on_c, 2, 62, 0
6, 349680, Note_on_c, 2, 68, 123
6, 349920, Note_on_c, 2, 68, 0
6, 349920, Note_on_c, 2, 68, 123
6, 350160, Note_on_c, 2, 68, 0
6, 350160, Note_on_c, 2, 68, 123
6, 350400, Note_on_c, 2, 68, 0
6, 350400, Note_on_c, 2, 65, 123
6, 351600, Note_on_c, 2, 65, 0
6, 351600, Note_on_c, 2, 68, 123
6, 351840, Note_on_c, 2, 68, 0
6, 351840, Note_on_c, 2, 68, 123
6, 352080, Note_on_c, 2, 68, 0
6, 352080, Note_on_c, 2, 68, 123
6, 352320, Note_on_c, 2, 68, 0
6, 352320, Note_on_c, 2, 65, 123
6, 353520, Note_on_c, 2, 65, 0
6, 353520, Note_on_c, 2, 68, 123
6, 353760, Note_on_c, 2, 68, 0
6, 353760, Note_on_c, 2, 68, 123
6, 354000, Note_on_c, 2, 68, 0
6, 354000, Note_on_c, 2, 68, 123
6, 354240, Note_on_c, 2, 68, 0
6, 354240, Note_on_c, 2, 65, 123
6, 354480, Note_on_c, 2, 65, 0
6, 354480, Note_on_c, 2, 68, 123
6, 354720, Note_on_c, 2, 68, 0
6, 354720, Note_on_c, 2, 68, 123
6, 354960, Note_on_c, 2, 68, 0
6, 354960, Note_on_c, 2, 68, 123
6, 355200, Note_on_c, 2, 68, 0
6, 355200, Note_on_c, 2, 65, 123
6, 355440, Note_on_c, 2, 65, 0
6, 355440, Note_on_c, 2, 68, 123
6, 355680, Note_on_c, 2, 68, 0
6, 355680, Note_on_c, 2, 68, 123
6, 355920, Note_on_c, 2, 68, 0
6, 355920, Note_on_c, 2, 68, 123
6, 356160, Note_on_c, 2, 68, 0
6, 356160, Note_on_c, 2, 65, 123
6, 356400, Note_on_c, 2, 65, 0
6, 356400, Note_on_c, 2, 67, 123
6, 356640, Note_on_c, 2, 67, 0
6, 356640, Note_on_c, 2, 67, 123
6, 356880, Note_on_c, 2, 67, 0
6, 356880, Note_on_c, 2, 67, 123
6, 357120, Note_on_c, 2, 67, 0
6, 357120, Note_on_c, 2, 63, 123
6, 358080, Note_on_c, 2, 63, 0
6, 358320, Note_on_c, 2, 65, 123
6, 358560, Note_on_c, 2, 65, 0
6, 358560, Note_on_c, 2, 65, 123
6, 358800, Note_on_c, 2, 65, 0
6, 358800, Note_on_c, 2, 65, 123
6, 359040, Note_on_c, 2, 65, 0
6, 359040, Note_on_c, 2, 62, 123
6, 360960, Note_on_c, 2, 62, 0
6, 363840, Note_on_c, 2, 55, 91
6, 365760, Note_on_c, 2, 55, 0
6, 365760, Note_on_c, 2, 55, 91
6, 366240, Note_on_c, 2, 55, 0
6, 367680, Note_on_c, 2, 55, 91
6, 369600, Note_on_c, 2, 55, 0
6, 369600, Note_on_c, 2, 55, 91
6, 370080, Note_on_c, 2, 55, 0
6, 374400, Note_on_c, 2, 54, 91
6, 375360, Note_on_c, 2, 54, 0
6, 375360, Note_on_c, 2, 55, 115
6, 375840, Note_on_c, 2, 55, 0
6, 387840, Note_on_c, 2, 60, 115
6, 388320, Note_on_c, 2, 60, 0
6, 392640, Note_on_c, 2, 56, 115
6, 393120, Note_on_c, 2, 56, 0
6, 393600, Note_on_c, 2, 55, 115
6, 394080, Note_on_c, 2, 55, 0
6, 394560, Note_on_c, 2, 56, 115
6, 395040, Note_on_c, 2, 56, 0
6, 395520, Note_on_c, 2, 58, 115
6, 396000, Note_on_c, 2, 58, 0
6, 396480, Note_on_c, 2, 56, 115
6, 396960, Note_on_c, 2, 56, 0
6, 397440, Note_on_c, 2, 53, 115
6, 397920, Note_on_c, 2, 53, 0
6, 398400, Note_on_c, 2, 55, 115
6, 402240, Note_on_c, 2, 55, 0
6, 402240, Note_on_c, 2, 53, 115
6, 405600, Note_on_c, 2, 53, 0
6, 405600, Note_on_c, 2, 51, 115
6, 406080, Note_on_c, 2, 51, 0
6, 406080, Note_on_c, 2, 63, 123
6, 409920, Note_on_c, 2, 63, 0
6, 409920, Note_on_c, 2, 63, 123
6, 410400, Note_on_c, 2, 63, 0
6, 411840, Note_on_c, 2, 62, 123
6, 412320, Note_on_c, 2, 62, 0
6, 433920, Note_on_c, 2, 58, 91
6, 434400, Note_on_c, 2, 58, 0
6, 434400, Note_on_c, 2, 60, 91
6, 434880, Note_on_c, 2, 60, 0
6, 434880, Note_on_c, 2, 58, 91
6, 435360, Note_on_c, 2, 58, 0
6, 435360, Note_on_c, 2, 57, 91
6, 435840, Note_on_c, 2, 57, 0
6, 437760, Note_on_c, 2, 60, 91
6, 438240, Note_on_c, 2, 60, 0
6, 438240, Note_on_c, 2, 62, 91
6, 438720, Note_on_c, 2, 62, 0
6, 438720, Note_on_c, 2, 60, 91
6, 439200, Note_on_c, 2, 60, 0
6, 439200, Note_on_c, 2, 59, 91
6, 439680, Note_on_c, 2, 59, 0
6, 444480, Note_on_c, 2, 68, 91
6, 444960, Note_on_c, 2, 68, 0
6, 444960, Note_on_c, 2, 67, 91
6, 445440, Note_on_c, 2, 67, 0
6, 445440, Note_on_c, 2, 65, 91
6, 445920, Note_on_c, 2, 65, 0
6, 445920, Note_on_c, 2, 67, 91
6, 446400, Note_on_c, 2, 67, 0
6, 446400, Note_on_c, 2, 68, 91
6, 446880, Note_on_c, 2, 68, 0
6, 446880, Note_on_c, 2, 67, 91
6, 447360, Note_on_c, 2, 67, 0
6, 447360, Note_on_c, 2, 66, 101
6, 447840, Note_on_c, 2, 66, 0
6, 447840, Note_on_c, 2, 67, 101
6, 448320, Note_on_c, 2, 67, 0
6, 448320, Note_on_c, 2, 69, 101
6, 448800, Note_on_c, 2, 69, 0
6, 448800, Note_on_c, 2, 67, 101
6, 449280, Note_on_c, 2, 67, 0
6, 449280, Note_on_c, 2, 66, 101
6, 449760, Note_on_c, 2, 66, 0
6, 449760, Note_on_c, 2, 67, 101
6, 450240, Note_on_c, 2, 67, 0
6, 450240, Note_on_c, 2, 69, 109
6, 450720, Note_on_c, 2, 69, 0
6, 450720, Note_on_c, 2, 67, 109
6, 451200, Note_on_c, 2, 67, 0
6, 451200, Note_on_c, 2, 66, 109
6, 451680, Note_on_c, 2, 66, 0
6, 451680, Note_on_c, 2, 67, 109
6, 452160, Note_on_c, 2, 67, 0
6, 452160, Note_on_c, 2, 66, 115
6, 452640, Note_on_c, 2, 66, 0
6, 452640, Note_on_c, 2, 67, 115
6, 453120, Note_on_c, 2, 67, 0
6, 453120, Note_on_c, 2, 66, 115
6, 453600, Note_on_c, 2, 66, 0
6, 453600, Note_on_c, 2, 67, 115
6, 454080, Note_on_c, 2, 67, 0
6, 454080, Note_on_c, 2, 67, 123
6, 455520, Note_on_c, 2, 67, 0
6, 455520, Note_on_c, 2, 67, 123
6, 456000, Note_on_c, 2, 67, 0
6, 456000, Note_on_c, 2, 67, 123
6, 456480, Note_on_c, 2, 67, 0
6, 456960, Note_on_c, 2, 65, 123
6, 457440, Note_on_c, 2, 65, 0
6, 457920, Note_on_c, 2, 64, 123
6, 458400, Note_on_c, 2, 64, 0
6, 458880, Note_on_c, 2, 62, 123
6, 459360, Note_on_c, 2, 62, 0
6, 459840, Note_on_c, 2, 64, 123
6, 460320, Note_on_c, 2, 64, 0
6, 460800, Note_on_c, 2, 62, 123
6, 461280, Note_on_c, 2, 62, 0
6, 461760, Note_on_c, 2, 65, 123
6, 463680, Note_on_c, 2, 65, 0
6, 463680, Note_on_c, 2, 64, 123
6, 464160, Note_on_c, 2, 64, 0
6, 464160, Note_on_c, 2, 64, 123
6, 464640, Note_on_c, 2, 64, 0
6, 465120, Note_on_c, 2, 62, 123
6, 465600, Note_on_c, 2, 62, 0
6, 466080, Note_on_c, 2, 64, 123
6, 466560, Note_on_c, 2, 64, 0
6, 467040, Note_on_c, 2, 62, 123
6, 467520, Note_on_c, 2, 62, 0
6, 468000, Note_on_c, 2, 64, 123
6, 468480, Note_on_c, 2, 64, 0
6, 468960, Note_on_c, 2, 62, 123
6, 469440, Note_on_c, 2, 62, 0
6, 469440, Note_on_c, 2, 60, 123
6, 469680, Note_on_c, 2, 60, 0
6, 469680, Note_on_c, 2, 64, 123
6, 469920, Note_on_c, 2, 64, 0
6, 469920, Note_on_c, 2, 64, 123
6, 470160, Note_on_c, 2, 64, 0
6, 470160, Note_on_c, 2, 64, 123
6, 470400, Note_on_c, 2, 64, 0
6, 470400, Note_on_c, 2, 60, 123
6, 470640, Note_on_c, 2, 60, 0
6, 470640, Note_on_c, 2, 67, 123
6, 470880, Note_on_c, 2, 67, 0
6, 470880, Note_on_c, 2, 67, 123
6, 471120, Note_on_c, 2, 67, 0
6, 471120, Note_on_c, 2, 67, 123
6, 471360, Note_on_c, 2, 67, 0
6, 471360, Note_on_c, 2, 64, 123
6, 471600, Note_on_c, 2, 64, 0
6, 471600, Note_on_c, 2, 60, 123
6, 471840, Note_on_c, 2, 60, 0
6, 471840, Note_on_c, 2, 60, 123
6, 472080, Note_on_c, 2, 60, 0
6, 472080, Note_on_c, 2, 60, 123
6, 472320, Note_on_c, 2, 60, 0
6, 472320, Note_on_c, 2, 55, 123
6, 473520, Note_on_c, 2, 55, 0
6, 473520, Note_on_c, 2, 64, 123
6, 473760, Note_on_c, 2, 64, 0
6, 473760, Note_on_c, 2, 64, 123
6, 474000, Note_on_c, 2, 64, 0
6, 474000, Note_on_c, 2, 64, 123
6, 474240, Note_on_c, 2, 64, 0
6, 474240, Note_on_c, 2, 60, 123
6, 474480, Note_on_c, 2, 60, 0
6, 474480, Note_on_c, 2, 67, 123
6, 474720, Note_on_c, 2, 67, 0
6, 474720, Note_on_c, 2, 67, 123
6, 474960, Note_on_c, 2, 67, 0
6, 474960, Note_on_c, 2, 67, 123
6, 475200, Note_on_c, 2, 67, 0
6, 475200, Note_on_c, 2, 64, 123
6, 475440, Note_on_c, 2, 64, 0
6, 475440, Note_on_c, 2, 60, 123
6, 475680, Note_on_c, 2, 60, 0
6, 475680, Note_on_c, 2, 60, 123
6, 475920, Note_on_c, 2, 60, 0
6, 475920, Note_on_c, 2, 60, 123
6, 476160, Note_on_c, 2, 60, 0
6, 476160, Note_on_c, 2, 55, 123
6, 476400, Note_on_c, 2, 55, 0
6, 476400, Note_on_c, 2, 59, 123
6, 476640, Note_on_c, 2, 59, 0
6, 476640, Note_on_c, 2, 59, 123
6, 476880, Note_on_c, 2, 59, 0
6, 476880, Note_on_c, 2, 59, 123
6, 477120, Note_on_c, 2, 59, 0
6, 477120, Note_on_c, 2, 60, 123
6, 477600, Note_on_c, 2, 60, 0
6, 478320, Note_on_c, 2, 59, 123
6, 478560, Note_on_c, 2, 59, 0
6, 478560, Note_on_c, 2, 59, 123
6, 478800, Note_on_c, 2, 59, 0
6, 478800, Note_on_c, 2, 59, 123
6, 479040, Note_on_c, 2, 59, 0
6, 479040, Note_on_c, 2, 60, 123
6, 479520, Note_on_c, 2, 60, 0
6, 480240, Note_on_c, 2, 62, 123
6, 480480, Note_on_c, 2, 62, 0
6, 480480, Note_on_c, 2, 62, 123
6, 480720, Note_on_c, 2, 62, 0
6, 480720, Note_on_c, 2, 62, 123
6, 480960, Note_on_c, 2, 62, 0
6, 480960, Note_on_c, 2, 64, 123
6, 481200, Note_on_c, 2, 64, 0
6, 481200, Note_on_c, 2, 60, 123
6, 481440, Note_on_c, 2, 60, 0
6, 481440, Note_on_c, 2, 60, 123
6, 481680, Note_on_c, 2, 60, 0
6, 481680, Note_on_c, 2, 60, 123
6, 481920, Note_on_c, 2, 60, 0
6, 481920, Note_on_c, 2, 60, 123
6, 483120, Note_on_c, 2, 60, 0
6, 483120, Note_on_c, 2, 60, 123
6, 483360, Note_on_c, 2, 60, 0
6, 483360, Note_on_c, 2, 60, 123
6, 483600, Note_on_c, 2, 60, 0
6, 483600, Note_on_c, 2, 60, 123
6, 483840, Note_on_c, 2, 60, 0
6, 483840, Note_on_c, 2, 60, 123
6, 485040, Note_on_c, 2, 60, 0
6, 485040, Note_on_c, 2, 60, 123
6, 485280, Note_on_c, 2, 60, 0
6, 485280, Note_on_c, 2, 60, 123
6, 485520, Note_on_c, 2, 60, 0
6, 485520, Note_on_c, 2, 60, 123
6, 485760, Note_on_c, 2, 60, 0
6, 485760, Note_on_c, 2, 60, 123
6, 486960, Note_on_c, 2, 60, 0
6, 486960, Note_on_c, 2, 60, 123
6, 487200, Note_on_c, 2, 60, 0
6, 487200, Note_on_c, 2, 60, 123
6, 487440, Note_on_c, 2, 60, 0
6, 487440, Note_on_c, 2, 60, 123
6, 487680, Note_on_c, 2, 60, 0
6, 487680, Note_on_c, 2, 60, 123
6, 488640, Note_on_c, 2, 60, 0
6, 488640, Note_on_c, 2, 61, 123
6, 492480, Note_on_c, 2, 61, 0
6, 492480, Note_on_c, 2, 61, 123
6, 492960, Note_on_c, 2, 61, 0
6, 493680, Note_on_c, 2, 53, 91
6, 493920, Note_on_c, 2, 53, 0
6, 493920, Note_on_c, 2, 53, 91
6, 494160, Note_on_c, 2, 53, 0
6, 494160, Note_on_c, 2, 53, 91
6, 494400, Note_on_c, 2, 53, 0
6, 494400, Note_on_c, 2, 56, 91
6, 494880, Note_on_c, 2, 56, 0
6, 496560, Note_on_c, 2, 60, 123
6, 496800, Note_on_c, 2, 60, 0
6, 496800, Note_on_c, 2, 60, 123
6, 497040, Note_on_c, 2, 60, 0
6, 497040, Note_on_c, 2, 60, 123
6, 497280, Note_on_c, 2, 60, 0
6, 497280, Note_on_c, 2, 60, 123
6, 501120, Note_on_c, 2, 60, 0
6, 501120, Note_on_c, 2, 60, 123
6, 501600, Note_on_c, 2, 60, 0
6, 502320, Note_on_c, 2, 60, 123
6, 502560, Note_on_c, 2, 60, 0
6, 502560, Note_on_c, 2, 60, 123
6, 502800, Note_on_c, 2, 60, 0
6, 502800, Note_on_c, 2, 60, 123
6, 503040, Note_on_c, 2, 60, 0
6, 503040, Note_on_c, 2, 63, 123
6, 503520, Note_on_c, 2, 63, 0
6, 506880, Note_on_c, 2, 68, 115
6, 508320, Note_on_c, 2, 68, 0
6, 508320, Note_on_c, 2, 67, 115
6, 508800, Note_on_c, 2, 67, 0
6, 510720, Note_on_c, 2, 68, 115
6, 512160, Note_on_c, 2, 68, 0
6, 512160, Note_on_c, 2, 67, 115
6, 512640, Note_on_c, 2, 67, 0
6, 514560, Note_on_c, 2, 63, 115
6, 515040, Note_on_c, 2, 63, 0
6, 515040, Note_on_c, 2, 65, 115
6, 515520, Note_on_c, 2, 65, 0
6, 515520, Note_on_c, 2, 62, 115
6, 516000, Note_on_c, 2, 62, 0
6, 516000, Note_on_c, 2, 63, 115
6, 516480, Note_on_c, 2, 63, 0
6, 516480, Note_on_c, 2, 60, 115
6, 516960, Note_on_c, 2, 60, 0
6, 516960, Note_on_c, 2, 62, 115
6, 517440, Note_on_c, 2, 62, 0
6, 517440, Note_on_c, 2, 58, 115
6, 517920, Note_on_c, 2, 58, 0
6, 517920, Note_on_c, 2, 60, 115
6, 518400, Note_on_c, 2, 60, 0
6, 518400, Note_on_c, 2, 56, 115
6, 518880, Note_on_c, 2, 56, 0
6, 518880, Note_on_c, 2, 58, 115
6, 519360, Note_on_c, 2, 58, 0
6, 519360, Note_on_c, 2, 55, 115
6, 519840, Note_on_c, 2, 55, 0
6, 519840, Note_on_c, 2, 56, 115
6, 520320, Note_on_c, 2, 56, 0
6, 520320, Note_on_c, 2, 53, 115
6, 520800, Note_on_c, 2, 53, 0
6, 520800, Note_on_c, 2, 55, 115
6, 521280, Note_on_c, 2, 55, 0
6, 521280, Note_on_c, 2, 55, 115
6, 521760, Note_on_c, 2, 55, 0
6, 521760, Note_on_c, 2, 55, 115
6, 522240, Note_on_c, 2, 55, 0
6, 522240, Note_on_c, 2, 55, 115
6, 522720, Note_on_c, 2, 55, 0
6, 522720, Note_on_c, 2, 55, 115
6, 523200, Note_on_c, 2, 55, 0
6, 523200, Note_on_c, 2, 55, 115
6, 523680, Note_on_c, 2, 55, 0
6, 523680, Note_on_c, 2, 60, 115
6, 524160, Note_on_c, 2, 60, 0
6, 524160, Note_on_c, 2, 60, 115
6, 524640, Note_on_c, 2, 60, 0
6, 524640, Note_on_c, 2, 60, 115
6, 525120, Note_on_c, 2, 60, 0
6, 525120, Note_on_c, 2, 60, 115
6, 525600, Note_on_c, 2, 60, 0
6, 525600, Note_on_c, 2, 59, 115
6, 526080, Note_on_c, 2, 59, 0
6, 526080, Note_on_c, 2, 60, 115
6, 526560, Note_on_c, 2, 60, 0
6, 526560, Note_on_c, 2, 59, 115
6, 527040, Note_on_c, 2, 59, 0
6, 527040, Note_on_c, 2, 60, 115
6, 527520, Note_on_c, 2, 60, 0
6, 527520, Note_on_c, 2, 62, 115
6, 528000, Note_on_c, 2, 62, 0
6, 528000, Note_on_c, 2, 60, 115
6, 529920, Note_on_c, 2, 60, 0
6, 529920, Note_on_c, 2, 60, 115
6, 531840, Note_on_c, 2, 60, 0
6, 531840, Note_on_c, 2, 60, 115
6, 533760, Note_on_c, 2, 60, 0
6, 533760, Note_on_c, 2, 60, 115
6, 535680, Note_on_c, 2, 60, 0
6, 535680, Note_on_c, 2, 59, 115
6, 536640, Note_on_c, 2, 59, 0
6, 536640, Note_on_c, 2, 59, 115
6, 537600, Note_on_c, 2, 59, 0
6, 537600, Note_on_c, 2, 60, 115
6, 538080, Note_on_c, 2, 60, 0
6, 538560, Note_on_c, 2, 60, 115
6, 539040, Note_on_c, 2, 60, 0
6, 539520, Note_on_c, 2, 60, 115
6, 540000, Note_on_c, 2, 60, 0
6, 540480, Note_on_c, 2, 62, 115
6, 540960, Note_on_c, 2, 62, 0
6, 541440, Note_on_c, 2, 62, 115
6, 541920, Note_on_c, 2, 62, 0
6, 542400, Note_on_c, 2, 62, 115
6, 542880, Note_on_c, 2, 62, 0
6, 543360, Note_on_c, 2, 60, 123
6, 544320, Note_on_c, 2, 60, 0
6, 544320, Note_on_c, 2, 62, 123
6, 544800, Note_on_c, 2, 62, 0
6, 544800, Note_on_c, 2, 63, 123
6, 545280, Note_on_c, 2, 63, 0
6, 545280, Note_on_c, 2, 65, 123
6, 545760, Note_on_c, 2, 65, 0
6, 545760, Note_on_c, 2, 62, 123
6, 546240, Note_on_c, 2, 62, 0
6, 548160, Note_on_c, 2, 65, 123
6, 548640, Note_on_c, 2, 65, 0
6, 548640, Note_on_c, 2, 67, 123
6, 549120, Note_on_c, 2, 67, 0
6, 549120, Note_on_c, 2, 68, 123
6, 549600, Note_on_c, 2, 68, 0
6, 549600, Note_on_c, 2, 65, 123
6, 550080, Note_on_c, 2, 65, 0
6, 552000, Note_on_c, 2, 60, 123
6, 552480, Note_on_c, 2, 60, 0
6, 552480, Note_on_c, 2, 62, 123
6, 552960, Note_on_c, 2, 62, 0
6, 552960, Note_on_c, 2, 63, 123
6, 553440, Note_on_c, 2, 63, 0
6, 553440, Note_on_c, 2, 60, 123
6, 553920, Note_on_c, 2, 60, 0
6, 555840, Note_on_c, 2, 60, 123
6, 556320, Note_on_c, 2, 60, 0
6, 556320, Note_on_c, 2, 62, 123
6, 556800, Note_on_c, 2, 62, 0
6, 556800, Note_on_c, 2, 63, 123
6, 557280, Note_on_c, 2, 63, 0
6, 557280, Note_on_c, 2, 62, 123
6, 557760, Note_on_c, 2, 62, 0
6, 557760, Note_on_c, 2, 60, 123
6, 558240, Note_on_c, 2, 60, 0
6, 558240, Note_on_c, 2, 58, 123
6, 558720, Note_on_c, 2, 58, 0
6, 558720, Note_on_c, 2, 56, 123
6, 559200, Note_on_c, 2, 56, 0
6, 559200, Note_on_c, 2, 55, 123
6, 559680, Note_on_c, 2, 55, 0
6, 560640, Note_on_c, 2, 60, 123
6, 561120, Note_on_c, 2, 60, 0
6, 561120, Note_on_c, 2, 60, 123
6, 561600, Note_on_c, 2, 60, 0
6, 561600, Note_on_c, 2, 68, 123
6, 562080, Note_on_c, 2, 68, 0
6, 562080, Note_on_c, 2, 67, 123
6, 562560, Note_on_c, 2, 67, 0
6, 563040, Note_on_c, 2, 63, 123
6, 563520, Note_on_c, 2, 63, 0
6, 564000, Note_on_c, 2, 67, 123
6, 564480, Note_on_c, 2, 67, 0
6, 567360, Note_on_c, 2, 60, 123
6, 567840, Note_on_c, 2, 60, 0
6, 567840, Note_on_c, 2, 60, 123
6, 568320, Note_on_c, 2, 60, 0
6, 569280, Note_on_c, 2, 56, 123
6, 569760, Note_on_c, 2, 56, 0
6, 569760, Note_on_c, 2, 55, 123
6, 570240, Note_on_c, 2, 55, 0
6, 570720, Note_on_c, 2, 67, 123
6, 571200, Note_on_c, 2, 67, 0
6, 571680, Note_on_c, 2, 67, 123
6, 572160, Note_on_c, 2, 67, 0
6, 572160, Note_on_c, 2, 60, 123
6, 572640, Note_on_c, 2, 60, 0
6, 573360, Note_on_c, 2, 62, 123
6, 573600, Note_on_c, 2, 62, 0
6, 573600, Note_on_c, 2, 62, 123
6, 573840, Note_on_c, 2, 62, 0
6, 573840, Note_on_c, 2, 62, 123
6, 574080, Note_on_c, 2, 62, 0
6, 574080, Note_on_c, 2, 62, 123
6, 575520, Note_on_c, 2, 62, 0
6, 575520, Note_on_c, 2, 63, 123
6, 576000, Note_on_c, 2, 63, 0
6, 576000, Note_on_c, 2, 65, 123
6, 576480, Note_on_c, 2, 65, 0
6, 576480, Note_on_c, 2, 62, 123
6, 576960, Note_on_c, 2, 62, 0
6, 576960, Note_on_c, 2, 63, 123
6, 577440, Note_on_c, 2, 63, 0
6, 577440, Note_on_c, 2, 65, 123
6, 577920, Note_on_c, 2, 65, 0
6, 577920, Note_on_c, 2, 63, 123
6, 578400, Note_on_c, 2, 63, 0
6, 579120, Note_on_c, 2, 67, 123
6, 579360, Note_on_c, 2, 67, 0
6, 579360, Note_on_c, 2, 67, 123
6, 579600, Note_on_c, 2, 67, 0
6, 579600, Note_on_c, 2, 67, 123
6, 579840, Note_on_c, 2, 67, 0
6, 579840, Note_on_c, 2, 67, 123
6, 580080, Note_on_c, 2, 67, 0
6, 580080, Note_on_c, 2, 67, 123
6, 580320, Note_on_c, 2, 67, 0
6, 580320, Note_on_c, 2, 67, 123
6, 580560, Note_on_c, 2, 67, 0
6, 580560, Note_on_c, 2, 67, 123
6, 580800, Note_on_c, 2, 67, 0
6, 580800, Note_on_c, 2, 67, 123
6, 581040, Note_on_c, 2, 67, 0
6, 581040, Note_on_c, 2, 67, 123
6, 581280, Note_on_c, 2, 67, 0
6, 581280, Note_on_c, 2, 67, 123
6, 581520, Note_on_c, 2, 67, 0
6, 581520, Note_on_c, 2, 67, 123
6, 581760, Note_on_c, 2, 67, 0
6, 581760, Note_on_c, 2, 63, 123
6, 582720, Note_on_c, 2, 63, 0
6, 582960, Note_on_c, 2, 65, 123
6, 583200, Note_on_c, 2, 65, 0
6, 583200, Note_on_c, 2, 65, 123
6, 583440, Note_on_c, 2, 65, 0
6, 583440, Note_on_c, 2, 65, 123
6, 583680, Note_on_c, 2, 65, 0
6, 583680, Note_on_c, 2, 62, 123
6, 585600, Note_on_c, 2, 62, 0
6, 587040, Note_on_c, 2, 56, 91
6, 587520, Note_on_c, 2, 56, 0
6, 587520, Note_on_c, 2, 55, 91
6, 588000, Note_on_c, 2, 55, 0
6, 588000, Note_on_c, 2, 63, 91
6, 588480, Note_on_c, 2, 63, 0
6, 588480, Note_on_c, 2, 60, 91
6, 589920, Note_on_c, 2, 60, 0
6, 590880, Note_on_c, 2, 56, 91
6, 591360, Note_on_c, 2, 56, 0
6, 591360, Note_on_c, 2, 55, 91
6, 591840, Note_on_c, 2, 55, 0
6, 591840, Note_on_c, 2, 63, 91
6, 592320, Note_on_c, 2, 63, 0
6, 592320, Note_on_c, 2, 60, 91
6, 593520, Note_on_c, 2, 60, 0
6, 593520, Note_on_c, 2, 62, 123
6, 593760, Note_on_c, 2, 62, 0
6, 593760, Note_on_c, 2, 62, 123
6, 594000, Note_on_c, 2, 62, 0
6, 594000, Note_on_c, 2, 62, 123
6, 594240, Note_on_c, 2, 62, 0
6, 594240, Note_on_c, 2, 63, 123
6, 594720, Note_on_c, 2, 63, 0
6, 595440, Note_on_c, 2, 62, 123
6, 595680, Note_on_c, 2, 62, 0
6, 595680, Note_on_c, 2, 62, 123
6, 595920, Note_on_c, 2, 62, 0
6, 595920, Note_on_c, 2, 62, 123
6, 596160, Note_on_c, 2, 62, 0
6, 596160, Note_on_c, 2, 63, 123
6, 596640, Note_on_c, 2, 63, 0
6, 597360, Note_on_c, 2, 62, 123
6, 597600, Note_on_c, 2, 62, 0
6, 597600, Note_on_c, 2, 62, 123
6, 597840, Note_on_c, 2, 62, 0
6, 597840, Note_on_c, 2, 62, 123
6, 598080, Note_on_c, 2, 62, 0
6, 598080, Note_on_c, 2, 63, 123
6, 598560, Note_on_c, 2, 63, 0
6, 598560, Note_on_c, 2, 62, 123
6, 599040, Note_on_c, 2, 62, 0
6, 599040, Note_on_c, 2, 63, 123
6, 599520, Note_on_c, 2, 63, 0
6, 599520, Note_on_c, 2, 62, 123
6, 600000, Note_on_c, 2, 62, 0
6, 600000, Note_on_c, 2, 63, 123
6, 600480, Note_on_c, 2, 63, 0
6, 600480, Note_on_c, 2, 62, 123
6, 600960, Note_on_c, 2, 62, 0
6, 600960, Note_on_c, 2, 63, 123
6, 601440, Note_on_c, 2, 63, 0
6, 601440, Note_on_c, 2, 62, 123
6, 601920, Note_on_c, 2, 62, 0
6, 601920, Note_on_c, 2, 63, 123
6, 602400, Note_on_c, 2, 63, 0
6, 602880, Note_on_c, 2, 62, 123
6, 603360, Note_on_c, 2, 62, 0
6, 603840, Note_on_c, 2, 60, 123
6, 604320, Note_on_c, 2, 60, 0
6, 604320, End_track
7, 0, Start_track
7, 0, MIDI_port, 0
7, 0, Title_t, "Clarinet 2"
7, 240, Note_on_c, 2, 55, 123
7, 480, Note_on_c, 2, 55, 0
7, 480, Note_on_c, 2, 55, 123
7, 720, Note_on_c, 2, 55, 0
7, 720, Note_on_c, 2, 55, 123
7, 960, Note_on_c, 2, 55, 0
7, 960, Note_on_c, 2, 51, 123
7, 1920, Note_on_c, 2, 51, 0
7, 2160, Note_on_c, 2, 53, 123
7, 2400, Note_on_c, 2, 53, 0
7, 2400, Note_on_c, 2, 53, 123
7, 2640, Note_on_c, 2, 53, 0
7, 2640, Note_on_c, 2, 53, 123
7, 2880, Note_on_c, 2, 53, 0
7, 2880, Note_on_c, 2, 50, 123
7, 4800, Note_on_c, 2, 50, 0
7, 16560, Note_on_c, 2, 43, 91
7, 16800, Note_on_c, 2, 43, 0
7, 16800, Note_on_c, 2, 47, 101
7, 17040, Note_on_c, 2, 47, 0
7, 17040, Note_on_c, 2, 50, 109
7, 17280, Note_on_c, 2, 50, 0
7, 17280, Note_on_c, 2, 51, 115
7, 17760, Note_on_c, 2, 51, 0
7, 18240, Note_on_c, 2, 48, 115
7, 18720, Note_on_c, 2, 48, 0
7, 19200, Note_on_c, 2, 47, 115
7, 19680, Note_on_c, 2, 47, 0
7, 20400, Note_on_c, 2, 56, 123
7, 20640, Note_on_c, 2, 56, 0
7, 20640, Note_on_c, 2, 56, 123
7, 20880, Note_on_c, 2, 56, 0
7, 20880, Note_on_c, 2, 56, 123
7, 21120, Note_on_c, 2, 56, 0
7, 21120, Note_on_c, 2, 53, 123
7, 23040, Note_on_c, 2, 53, 0
7, 30000, Note_on_c, 2, 62, 91
7, 30240, Note_on_c, 2, 62, 0
7, 30240, Note_on_c, 2, 62, 91
7, 30480, Note_on_c, 2, 62, 0
7, 30480, Note_on_c, 2, 62, 91
7, 30720, Note_on_c, 2, 62, 0
7, 30720, Note_on_c, 2, 60, 91
7, 31200, Note_on_c, 2, 60, 0
7, 35520, Note_on_c, 2, 53, 91
7, 36000, Note_on_c, 2, 53, 0
7, 36480, Note_on_c, 2, 52, 91
7, 36960, Note_on_c, 2, 52, 0
7, 37440, Note_on_c, 2, 53, 91
7, 37920, Note_on_c, 2, 53, 0
7, 38400, Note_on_c, 2, 55, 91
7, 38880, Note_on_c, 2, 55, 0
7, 39360, Note_on_c, 2, 53, 91
7, 39840, Note_on_c, 2, 53, 0
7, 40320, Note_on_c, 2, 50, 91
7, 40800, Note_on_c, 2, 50, 0
7, 41280, Note_on_c, 2, 51, 115
7, 45120, Note_on_c, 2, 51, 0
7, 45120, Note_on_c, 2, 50, 115
7, 48480, Note_on_c, 2, 50, 0
7, 48480, Note_on_c, 2, 48, 115
7, 48960, Note_on_c, 2, 48, 0
7, 48960, Note_on_c, 2, 54, 123
7, 52800, Note_on_c, 2, 54, 0
7, 52800, Note_on_c, 2, 54, 123
7, 53280, Note_on_c, 2, 54, 0
7, 54720, Note_on_c, 2, 58, 123
7, 55200, Note_on_c, 2, 58, 0
7, 63360, Note_on_c, 2, 58, 91
7, 63840, Note_on_c, 2, 58, 0
7, 63840, Note_on_c, 2, 63, 91
7, 64320, Note_on_c, 2, 63, 0
7, 64320, Note_on_c, 2, 62, 91
7, 64800, Note_on_c, 2, 62, 0
7, 64800, Note_on_c, 2, 63, 91
7, 65280, Note_on_c, 2, 63, 0
7, 65280, Note_on_c, 2, 65, 91
7, 65760, Note_on_c, 2, 65, 0
7, 65760, Note_on_c, 2, 60, 91
7, 66240, Note_on_c, 2, 60, 0
7, 66240, Note_on_c, 2, 60, 91
7, 66720, Note_on_c, 2, 60, 0
7, 66720, Note_on_c, 2, 58, 91
7, 67200, Note_on_c, 2, 58, 0
7, 78720, Note_on_c, 2, 60, 91
7, 81600, Note_on_c, 2, 60, 0
7, 81600, Note_on_c, 2, 58, 91
7, 83520, Note_on_c, 2, 58, 0
7, 83520, Note_on_c, 2, 57, 91
7, 87840, Note_on_c, 2, 57, 0
7, 87840, Note_on_c, 2, 57, 109
7, 88320, Note_on_c, 2, 57, 0
7, 88320, Note_on_c, 2, 57, 115
7, 88800, Note_on_c, 2, 57, 0
7, 88800, Note_on_c, 2, 57, 115
7, 89280, Note_on_c, 2, 57, 0
7, 89280, Note_on_c, 2, 56, 123
7, 90720, Note_on_c, 2, 56, 0
7, 90720, Note_on_c, 2, 53, 123
7, 91200, Note_on_c, 2, 53, 0
7, 91200, Note_on_c, 2, 55, 123
7, 91680, Note_on_c, 2, 55, 0
7, 92160, Note_on_c, 2, 56, 123
7, 92640, Note_on_c, 2, 56, 0
7, 93120, Note_on_c, 2, 55, 123
7, 93600, Note_on_c, 2, 55, 0
7, 94080, Note_on_c, 2, 53, 123
7, 94560, Note_on_c, 2, 53, 0
7, 95040, Note_on_c, 2, 55, 123
7, 95520, Note_on_c, 2, 55, 0
7, 96000, Note_on_c, 2, 53, 123
7, 96240, Note_on_c, 2, 53, 0
7, 96240, Note_on_c, 2, 57, 123
7, 96480, Note_on_c, 2, 57, 0
7, 96480, Note_on_c, 2, 58, 123
7, 96720, Note_on_c, 2, 58, 0
7, 96720, Note_on_c, 2, 57, 123
7, 96960, Note_on_c, 2, 57, 0
7, 96960, Note_on_c, 2, 58, 123
7, 97200, Note_on_c, 2, 58, 0
7, 97200, Note_on_c, 2, 57, 123
7, 97440, Note_on_c, 2, 57, 0
7, 97440, Note_on_c, 2, 58, 123
7, 97680, Note_on_c, 2, 58, 0
7, 97680, Note_on_c, 2, 57, 123
7, 97920, Note_on_c, 2, 57, 0
7, 97920, Note_on_c, 2, 58, 123
7, 98160, Note_on_c, 2, 58, 0
7, 98160, Note_on_c, 2, 60, 123
7, 98400, Note_on_c, 2, 60, 0
7, 98400, Note_on_c, 2, 58, 123
7, 98640, Note_on_c, 2, 58, 0
7, 98640, Note_on_c, 2, 56, 123
7, 98880, Note_on_c, 2, 56, 0
7, 98880, Note_on_c, 2, 55, 123
7, 99360, Note_on_c, 2, 55, 0
7, 99360, Note_on_c, 2, 55, 123
7, 99840, Note_on_c, 2, 55, 0
7, 100320, Note_on_c, 2, 53, 123
7, 100800, Note_on_c, 2, 53, 0
7, 101280, Note_on_c, 2, 55, 123
7, 101760, Note_on_c, 2, 55, 0
7, 102240, Note_on_c, 2, 53, 123
7, 102720, Note_on_c, 2, 53, 0
7, 103200, Note_on_c, 2, 51, 123
7, 103680, Note_on_c, 2, 51, 0
7, 104160, Note_on_c, 2, 53, 123
7, 104640, Note_on_c, 2, 53, 0
7, 104640, Note_on_c, 2, 55, 123
7, 104880, Note_on_c, 2, 55, 0
7, 104880, Note_on_c, 2, 67, 123
7, 105120, Note_on_c, 2, 67, 0
7, 105120, Note_on_c, 2, 67, 123
7, 105360, Note_on_c, 2, 67, 0
7, 105360, Note_on_c, 2, 67, 123
7, 105600, Note_on_c, 2, 67, 0
7, 105600, Note_on_c, 2, 63, 123
7, 105840, Note_on_c, 2, 63, 0
7, 105840, Note_on_c, 2, 58, 123
7, 106080, Note_on_c, 2, 58, 0
7, 106080, Note_on_c, 2, 58, 123
7, 106320, Note_on_c, 2, 58, 0
7, 106320, Note_on_c, 2, 58, 123
7, 106560, Note_on_c, 2, 58, 0
7, 106560, Note_on_c, 2, 55, 123
7, 106800, Note_on_c, 2, 55, 0
7, 106800, Note_on_c, 2, 51, 123
7, 107040, Note_on_c, 2, 51, 0
7, 107040, Note_on_c, 2, 51, 123
7, 107280, Note_on_c, 2, 51, 0
7, 107280, Note_on_c, 2, 51, 123
7, 107520, Note_on_c, 2, 51, 0
7, 107520, Note_on_c, 2, 46, 123
7, 108720, Note_on_c, 2, 46, 0
7, 108720, Note_on_c, 2, 67, 123
7, 108960, Note_on_c, 2, 67, 0
7, 108960, Note_on_c, 2, 67, 123
7, 109200, Note_on_c, 2, 67, 0
7, 109200, Note_on_c, 2, 67, 123
7, 109440, Note_on_c, 2, 67, 0
7, 109440, Note_on_c, 2, 63, 123
7, 109680, Note_on_c, 2, 63, 0
7, 109680, Note_on_c, 2, 58, 123
7, 109920, Note_on_c, 2, 58, 0
7, 109920, Note_on_c, 2, 58, 123
7, 110160, Note_on_c, 2, 58, 0
7, 110160, Note_on_c, 2, 58, 123
7, 110400, Note_on_c, 2, 58, 0
7, 110400, Note_on_c, 2, 55, 123
7, 110640, Note_on_c, 2, 55, 0
7, 110640, Note_on_c, 2, 51, 123
7, 110880, Note_on_c, 2, 51, 0
7, 110880, Note_on_c, 2, 51, 123
7, 111120, Note_on_c, 2, 51, 0
7, 111120, Note_on_c, 2, 51, 123
7, 111360, Note_on_c, 2, 51, 0
7, 111360, Note_on_c, 2, 46, 123
7, 112800, Note_on_c, 2, 46, 0
7, 113520, Note_on_c, 2, 53, 123
7, 113760, Note_on_c, 2, 53, 0
7, 113760, Note_on_c, 2, 53, 123
7, 114000, Note_on_c, 2, 53, 0
7, 114000, Note_on_c, 2, 53, 123
7, 114240, Note_on_c, 2, 53, 0
7, 114240, Note_on_c, 2, 55, 123
7, 114720, Note_on_c, 2, 55, 0
7, 115440, Note_on_c, 2, 62, 123
7, 115680, Note_on_c, 2, 62, 0
7, 115680, Note_on_c, 2, 62, 123
7, 115920, Note_on_c, 2, 62, 0
7, 115920, Note_on_c, 2, 62, 123
7, 116160, Note_on_c, 2, 62, 0
7, 116160, Note_on_c, 2, 55, 123
7, 116640, Note_on_c, 2, 55, 0
7, 119280, Note_on_c, 2, 55, 123
7, 119520, Note_on_c, 2, 55, 0
7, 119520, Note_on_c, 2, 55, 123
7, 119760, Note_on_c, 2, 55, 0
7, 119760, Note_on_c, 2, 55, 123
7, 120000, Note_on_c, 2, 55, 0
7, 120000, Note_on_c, 2, 51, 123
7, 120960, Note_on_c, 2, 51, 0
7, 121200, Note_on_c, 2, 53, 123
7, 121440, Note_on_c, 2, 53, 0
7, 121440, Note_on_c, 2, 53, 123
7, 121680, Note_on_c, 2, 53, 0
7, 121680, Note_on_c, 2, 53, 123
7, 121920, Note_on_c, 2, 53, 0
7, 121920, Note_on_c, 2, 50, 123
7, 123840, Note_on_c, 2, 50, 0
7, 135600, Note_on_c, 2, 43, 91
7, 135840, Note_on_c, 2, 43, 0
7, 135840, Note_on_c, 2, 47, 101
7, 136080, Note_on_c, 2, 47, 0
7, 136080, Note_on_c, 2, 50, 109
7, 136320, Note_on_c, 2, 50, 0
7, 136320, Note_on_c, 2, 51, 115
7, 136800, Note_on_c, 2, 51, 0
7, 137280, Note_on_c, 2, 48, 115
7, 137760, Note_on_c, 2, 48, 0
7, 138240, Note_on_c, 2, 47, 115
7, 138720, Note_on_c, 2, 47, 0
7, 139440, Note_on_c, 2, 56, 123
7, 139680, Note_on_c, 2, 56, 0
7, 139680, Note_on_c, 2, 56, 123
7, 139920, Note_on_c, 2, 56, 0
7, 139920, Note_on_c, 2, 56, 123
7, 140160, Note_on_c, 2, 56, 0
7, 140160, Note_on_c, 2, 53, 123
7, 142080, Note_on_c, 2, 53, 0
7, 149040, Note_on_c, 2, 62, 91
7, 149280, Note_on_c, 2, 62, 0
7, 149280, Note_on_c, 2, 62, 91
7, 149520, Note_on_c, 2, 62, 0
7, 149520, Note_on_c, 2, 62, 91
7, 149760, Note_on_c, 2, 62, 0
7, 149760, Note_on_c, 2, 60, 91
7, 150240, Note_on_c, 2, 60, 0
7, 154560, Note_on_c, 2, 53, 91
7, 155040, Note_on_c, 2, 53, 0
7, 155520, Note_on_c, 2, 52, 91
7, 156000, Note_on_c, 2, 52, 0
7, 156480, Note_on_c, 2, 53, 91
7, 156960, Note_on_c, 2, 53, 0
7, 157440, Note_on_c, 2, 55, 91
7, 157920, Note_on_c, 2, 55, 0
7, 158400, Note_on_c, 2, 53, 91
7, 158880, Note_on_c, 2, 53, 0
7, 159360, Note_on_c, 2, 50, 91
7, 159840, Note_on_c, 2, 50, 0
7, 160320, Note_on_c, 2, 51, 115
7, 164160, Note_on_c, 2, 51, 0
7, 164160, Note_on_c, 2, 50, 115
7, 167520, Note_on_c, 2, 50, 0
7, 167520, Note_on_c, 2, 48, 115
7, 168000, Note_on_c, 2, 48, 0
7, 168000, Note_on_c, 2, 54, 123
7, 171840, Note_on_c, 2, 54, 0
7, 171840, Note_on_c, 2, 54, 123
7, 172320, Note_on_c, 2, 54, 0
7, 173760, Note_on_c, 2, 58, 123
7, 174240, Note_on_c, 2, 58, 0
7, 182400, Note_on_c, 2, 58, 91
7, 182880, Note_on_c, 2, 58, 0
7, 182880, Note_on_c, 2, 63, 91
7, 183360, Note_on_c, 2, 63, 0
7, 183360, Note_on_c, 2, 62, 91
7, 183840, Note_on_c, 2, 62, 0
7, 183840, Note_on_c, 2, 63, 91
7, 184320, Note_on_c, 2, 63, 0
7, 184320, Note_on_c, 2, 65, 91
7, 184800, Note_on_c, 2, 65, 0
7, 184800, Note_on_c, 2, 60, 91
7, 185280, Note_on_c, 2, 60, 0
7, 185280, Note_on_c, 2, 60, 91
7, 185760, Note_on_c, 2, 60, 0
7, 185760, Note_on_c, 2, 58, 91
7, 186240, Note_on_c, 2, 58, 0
7, 197760, Note_on_c, 2, 60, 91
7, 200640, Note_on_c, 2, 60, 0
7, 200640, Note_on_c, 2, 58, 91
7, 202560, Note_on_c, 2, 58, 0
7, 202560, Note_on_c, 2, 57, 91
7, 206880, Note_on_c, 2, 57, 0
7, 206880, Note_on_c, 2, 57, 109
7, 207360, Note_on_c, 2, 57, 0
7, 207360, Note_on_c, 2, 57, 115
7, 207840, Note_on_c, 2, 57, 0
7, 207840, Note_on_c, 2, 57, 115
7, 208320, Note_on_c, 2, 57, 0
7, 208320, Note_on_c, 2, 56, 123
7, 209760, Note_on_c, 2, 56, 0
7, 209760, Note_on_c, 2, 53, 123
7, 210240, Note_on_c, 2, 53, 0
7, 210240, Note_on_c, 2, 55, 123
7, 210720, Note_on_c, 2, 55, 0
7, 211200, Note_on_c, 2, 56, 123
7, 211680, Note_on_c, 2, 56, 0
7, 212160, Note_on_c, 2, 55, 123
7, 212640, Note_on_c, 2, 55, 0
7, 213120, Note_on_c, 2, 53, 123
7, 213600, Note_on_c, 2, 53, 0
7, 214080, Note_on_c, 2, 55, 123
7, 214560, Note_on_c, 2, 55, 0
7, 215040, Note_on_c, 2, 53, 123
7, 215280, Note_on_c, 2, 53, 0
7, 215280, Note_on_c, 2, 57, 123
7, 215520, Note_on_c, 2, 57, 0
7, 215520, Note_on_c, 2, 58, 123
7, 215760, Note_on_c, 2, 58, 0
7, 215760, Note_on_c, 2, 57, 123
7, 216000, Note_on_c, 2, 57, 0
7, 216000, Note_on_c, 2, 58, 123
7, 216240, Note_on_c, 2, 58, 0
7, 216240, Note_on_c, 2, 57, 123
7, 216480, Note_on_c, 2, 57, 0
7, 216480, Note_on_c, 2, 58, 123
7, 216720, Note_on_c, 2, 58, 0
7, 216720, Note_on_c, 2, 57, 123
7, 216960, Note_on_c, 2, 57, 0
7, 216960, Note_on_c, 2, 58, 123
7, 217200, Note_on_c, 2, 58, 0
7, 217200, Note_on_c, 2, 60, 123
7, 217440, Note_on_c, 2, 60, 0
7, 217440, Note_on_c, 2, 58, 123
7, 217680, Note_on_c, 2, 58, 0
7, 217680, Note_on_c, 2, 56, 123
7, 217920, Note_on_c, 2, 56, 0
7, 217920, Note_on_c, 2, 55, 123
7, 218400, Note_on_c, 2, 55, 0
7, 218400, Note_on_c, 2, 55, 123
7, 218880, Note_on_c, 2, 55, 0
7, 219360, Note_on_c, 2, 53, 123
7, 219840, Note_on_c, 2, 53, 0
7, 220320, Note_on_c, 2, 55, 123
7, 220800, Note_on_c, 2, 55, 0
7, 221280, Note_on_c, 2, 53, 123
7, 221760, Note_on_c, 2, 53, 0
7, 222240, Note_on_c, 2, 51, 123
7, 222720, Note_on_c, 2, 51, 0
7, 223200, Note_on_c, 2, 53, 123
7, 223680, Note_on_c, 2, 53, 0
7, 223680, Note_on_c, 2, 55, 123
7, 223920, Note_on_c, 2, 55, 0
7, 223920, Note_on_c, 2, 67, 123
7, 224160, Note_on_c, 2, 67, 0
7, 224160, Note_on_c, 2, 67, 123
7, 224400, Note_on_c, 2, 67, 0
7, 224400, Note_on_c, 2, 67, 123
7, 224640, Note_on_c, 2, 67, 0
7, 224640, Note_on_c, 2, 63, 123
7, 224880, Note_on_c, 2, 63, 0
7, 224880, Note_on_c, 2, 58, 123
7, 225120, Note_on_c, 2, 58, 0
7, 225120, Note_on_c, 2, 58, 123
7, 225360, Note_on_c, 2, 58, 0
7, 225360, Note_on_c, 2, 58, 123
7, 225600, Note_on_c, 2, 58, 0
7, 225600, Note_on_c, 2, 55, 123
7, 225840, Note_on_c, 2, 55, 0
7, 225840, Note_on_c, 2, 51, 123
7, 226080, Note_on_c, 2, 51, 0
7, 226080, Note_on_c, 2, 51, 123
7, 226320, Note_on_c, 2, 51, 0
7, 226320, Note_on_c, 2, 51, 123
7, 226560, Note_on_c, 2, 51, 0
7, 226560, Note_on_c, 2, 46, 123
7, 227760, Note_on_c, 2, 46, 0
7, 227760, Note_on_c, 2, 67, 123
7, 228000, Note_on_c, 2, 67, 0
7, 228000, Note_on_c, 2, 67, 123
7, 228240, Note_on_c, 2, 67, 0
7, 228240, Note_on_c, 2, 67, 123
7, 228480, Note_on_c, 2, 67, 0
7, 228480, Note_on_c, 2, 63, 123
7, 228720, Note_on_c, 2, 63, 0
7, 228720, Note_on_c, 2, 58, 123
7, 228960, Note_on_c, 2, 58, 0
7, 228960, Note_on_c, 2, 58, 123
7, 229200, Note_on_c, 2, 58, 0
7, 229200, Note_on_c, 2, 58, 123
7, 229440, Note_on_c, 2, 58, 0
7, 229440, Note_on_c, 2, 55, 123
7, 229680, Note_on_c, 2, 55, 0
7, 229680, Note_on_c, 2, 51, 123
7, 229920, Note_on_c, 2, 51, 0
7, 229920, Note_on_c, 2, 51, 123
7, 230160, Note_on_c, 2, 51, 0
7, 230160, Note_on_c, 2, 51, 123
7, 230400, Note_on_c, 2, 51, 0
7, 230400, Note_on_c, 2, 46, 123
7, 231840, Note_on_c, 2, 46, 0
7, 232560, Note_on_c, 2, 53, 123
7, 232800, Note_on_c, 2, 53, 0
7, 232800, Note_on_c, 2, 53, 123
7, 233040, Note_on_c, 2, 53, 0
7, 233040, Note_on_c, 2, 53, 123
7, 233280, Note_on_c, 2, 53, 0
7, 233280, Note_on_c, 2, 55, 123
7, 233760, Note_on_c, 2, 55, 0
7, 234480, Note_on_c, 2, 62, 123
7, 234720, Note_on_c, 2, 62, 0
7, 234720, Note_on_c, 2, 62, 123
7, 234960, Note_on_c, 2, 62, 0
7, 234960, Note_on_c, 2, 62, 123
7, 235200, Note_on_c, 2, 62, 0
7, 235200, Note_on_c, 2, 55, 123
7, 235680, Note_on_c, 2, 55, 0
7, 238320, Note_on_c, 2, 58, 123
7, 238560, Note_on_c, 2, 58, 0
7, 238560, Note_on_c, 2, 58, 123
7, 238800, Note_on_c, 2, 58, 0
7, 238800, Note_on_c, 2, 58, 123
7, 239040, Note_on_c, 2, 58, 0
7, 239040, Note_on_c, 2, 55, 123
7, 241920, Note_on_c, 2, 55, 0
7, 243120, Note_on_c, 2, 61, 91
7, 243360, Note_on_c, 2, 61, 0
7, 243360, Note_on_c, 2, 61, 91
7, 243600, Note_on_c, 2, 61, 0
7, 243600, Note_on_c, 2, 61, 91
7, 243840, Note_on_c, 2, 61, 0
7, 243840, Note_on_c, 2, 60, 91
7, 246960, Note_on_c, 2, 60, 0
7, 246960, Note_on_c, 2, 61, 91
7, 247200, Note_on_c, 2, 61, 0
7, 247200, Note_on_c, 2, 61, 91
7, 247440, Note_on_c, 2, 61, 0
7, 247440, Note_on_c, 2, 61, 91
7, 247680, Note_on_c, 2, 61, 0
7, 247680, Note_on_c, 2, 60, 91
7, 250560, Note_on_c, 2, 60, 0
7, 250560, Note_on_c, 2, 56, 91
7, 251520, Note_on_c, 2, 56, 0
7, 251520, Note_on_c, 2, 55, 91
7, 252480, Note_on_c, 2, 55, 0
7, 252480, Note_on_c, 2, 56, 91
7, 253440, Note_on_c, 2, 56, 0
7, 253440, Note_on_c, 2, 55, 91
7, 254400, Note_on_c, 2, 55, 0
7, 254400, Note_on_c, 2, 56, 91
7, 254880, Note_on_c, 2, 56, 0
7, 258240, Note_on_c, 2, 60, 91
7, 259200, Note_on_c, 2, 60, 0
7, 259200, Note_on_c, 2, 59, 91
7, 260160, Note_on_c, 2, 59, 0
7, 260160, Note_on_c, 2, 60, 91
7, 261120, Note_on_c, 2, 60, 0
7, 261120, Note_on_c, 2, 59, 91
7, 262080, Note_on_c, 2, 59, 0
7, 262080, Note_on_c, 2, 60, 91
7, 262560, Note_on_c, 2, 60, 0
7, 265200, Note_on_c, 2, 54, 91
7, 265440, Note_on_c, 2, 54, 0
7, 265440, Note_on_c, 2, 54, 91
7, 265680, Note_on_c, 2, 54, 0
7, 265680, Note_on_c, 2, 57, 91
7, 265920, Note_on_c, 2, 57, 0
7, 265920, Note_on_c, 2, 55, 91
7, 266880, Note_on_c, 2, 55, 0
7, 266880, Note_on_c, 2, 54, 91
7, 267120, Note_on_c, 2, 54, 0
7, 267120, Note_on_c, 2, 54, 91
7, 267360, Note_on_c, 2, 54, 0
7, 267360, Note_on_c, 2, 54, 91
7, 267600, Note_on_c, 2, 54, 0
7, 267600, Note_on_c, 2, 57, 91
7, 267840, Note_on_c, 2, 57, 0
7, 267840, Note_on_c, 2, 55, 91
7, 268800, Note_on_c, 2, 55, 0
7, 268800, Note_on_c, 2, 54, 91
7, 269760, Note_on_c, 2, 54, 0
7, 269760, Note_on_c, 2, 55, 91
7, 270960, Note_on_c, 2, 55, 0
7, 271680, Note_on_c, 2, 54, 91
7, 272160, Note_on_c, 2, 54, 0
7, 273600, Note_on_c, 2, 54, 91
7, 274080, Note_on_c, 2, 54, 0
7, 275520, Note_on_c, 2, 55, 91
7, 276000, Note_on_c, 2, 55, 0
7, 277440, Note_on_c, 2, 55, 91
7, 277920, Note_on_c, 2, 55, 0
7, 278640, Note_on_c, 2, 55, 91
7, 278880, Note_on_c, 2, 55, 0
7, 278880, Note_on_c, 2, 57, 101
7, 279120, Note_on_c, 2, 57, 0
7, 279120, Note_on_c, 2, 58, 109
7, 279360, Note_on_c, 2, 58, 0
7, 279360, Note_on_c, 2, 54, 115
7, 281280, Note_on_c, 2, 54, 0
7, 281280, Note_on_c, 2, 54, 115
7, 281760, Note_on_c, 2, 54, 0
7, 282480, Note_on_c, 2, 55, 115
7, 282720, Note_on_c, 2, 55, 0
7, 282720, Note_on_c, 2, 55, 115
7, 282960, Note_on_c, 2, 55, 0
7, 282960, Note_on_c, 2, 55, 115
7, 283200, Note_on_c, 2, 55, 0
7, 283200, Note_on_c, 2, 55, 115
7, 285120, Note_on_c, 2, 55, 0
7, 285120, Note_on_c, 2, 55, 115
7, 285600, Note_on_c, 2, 55, 0
7, 286320, Note_on_c, 2, 55, 115
7, 286560, Note_on_c, 2, 55, 0
7, 286560, Note_on_c, 2, 55, 115
7, 286800, Note_on_c, 2, 55, 0
7, 286800, Note_on_c, 2, 55, 115
7, 287040, Note_on_c, 2, 55, 0
7, 287040, Note_on_c, 2, 55, 115
7, 287520, Note_on_c, 2, 55, 0
7, 288480, Note_on_c, 2, 55, 115
7, 288720, Note_on_c, 2, 55, 0
7, 288720, Note_on_c, 2, 55, 115
7, 288960, Note_on_c, 2, 55, 0
7, 288960, Note_on_c, 2, 55, 115
7, 289440, Note_on_c, 2, 55, 0
7, 289440, Note_on_c, 2, 50, 115
7, 289680, Note_on_c, 2, 50, 0
7, 289680, Note_on_c, 2, 50, 115
7, 289920, Note_on_c, 2, 50, 0
7, 289920, Note_on_c, 2, 50, 115
7, 290400, Note_on_c, 2, 50, 0
7, 295200, Note_on_c, 2, 60, 115
7, 295440, Note_on_c, 2, 60, 0
7, 295440, Note_on_c, 2, 60, 115
7, 295680, Note_on_c, 2, 60, 0
7, 295680, Note_on_c, 2, 60, 115
7, 296160, Note_on_c, 2, 60, 0
7, 297120, Note_on_c, 2, 54, 115
7, 297360, Note_on_c, 2, 54, 0
7, 297360, Note_on_c, 2, 54, 115
7, 297600, Note_on_c, 2, 54, 0
7, 297600, Note_on_c, 2, 55, 115
7, 298080, Note_on_c, 2, 55, 0
7, 302880, Note_on_c, 2, 59, 115
7, 303120, Note_on_c, 2, 59, 0
7, 303120, Note_on_c, 2, 59, 115
7, 303360, Note_on_c, 2, 59, 0
7, 303360, Note_on_c, 2, 59, 115
7, 303840, Note_on_c, 2, 59, 0
7, 304800, Note_on_c, 2, 59, 115
7, 305040, Note_on_c, 2, 59, 0
7, 305040, Note_on_c, 2, 59, 115
7, 305280, Note_on_c, 2, 59, 0
7, 305280, Note_on_c, 2, 60, 115
7, 305520, Note_on_c, 2, 60, 0
7, 305520, Note_on_c, 2, 60, 123
7, 305760, Note_on_c, 2, 60, 0
7, 305760, Note_on_c, 2, 60, 123
7, 306000, Note_on_c, 2, 60, 0
7, 306000, Note_on_c, 2, 60, 123
7, 306240, Note_on_c, 2, 60, 0
7, 306240, Note_on_c, 2, 53, 123
7, 307200, Note_on_c, 2, 53, 0
7, 307200, Note_on_c, 2, 55, 123
7, 308160, Note_on_c, 2, 55, 0
7, 310080, Note_on_c, 2, 53, 123
7, 311040, Note_on_c, 2, 53, 0
7, 311040, Note_on_c, 2, 55, 123
7, 312000, Note_on_c, 2, 55, 0
7, 313920, Note_on_c, 2, 56, 123
7, 314880, Note_on_c, 2, 56, 0
7, 314880, Note_on_c, 2, 54, 123
7, 315840, Note_on_c, 2, 54, 0
7, 317760, Note_on_c, 2, 57, 123
7, 318720, Note_on_c, 2, 57, 0
7, 318720, Note_on_c, 2, 58, 123
7, 319680, Note_on_c, 2, 58, 0
7, 320640, Note_on_c, 2, 59, 115
7, 321600, Note_on_c, 2, 59, 0
7, 322560, Note_on_c, 2, 56, 109
7, 323520, Note_on_c, 2, 56, 0
7, 324480, Note_on_c, 2, 57, 101
7, 325440, Note_on_c, 2, 57, 0
7, 326400, Note_on_c, 2, 57, 91
7, 327360, Note_on_c, 2, 57, 0
7, 328320, Note_on_c, 2, 57, 91
7, 329280, Note_on_c, 2, 57, 0
7, 330240, Note_on_c, 2, 57, 78
7, 331200, Note_on_c, 2, 57, 0
7, 332160, Note_on_c, 2, 57, 78
7, 333120, Note_on_c, 2, 57, 0
7, 334080, Note_on_c, 2, 57, 78
7, 335040, Note_on_c, 2, 57, 0
7, 336000, Note_on_c, 2, 57, 78
7, 336960, Note_on_c, 2, 57, 0
7, 337200, Note_on_c, 2, 62, 123
7, 337440, Note_on_c, 2, 62, 0
7, 337440, Note_on_c, 2, 62, 123
7, 337680, Note_on_c, 2, 62, 0
7, 337680, Note_on_c, 2, 62, 123
7, 337920, Note_on_c, 2, 62, 0
7, 337920, Note_on_c, 2, 59, 123
7, 338880, Note_on_c, 2, 59, 0
7, 338880, Note_on_c, 2, 60, 123
7, 339840, Note_on_c, 2, 60, 0
7, 339840, Note_on_c, 2, 57, 123
7, 341760, Note_on_c, 2, 57, 0
7, 341760, Note_on_c, 2, 56, 78
7, 342720, Note_on_c, 2, 56, 0
7, 343680, Note_on_c, 2, 56, 78
7, 344640, Note_on_c, 2, 56, 0
7, 345600, Note_on_c, 2, 56, 78
7, 346560, Note_on_c, 2, 56, 0
7, 347520, Note_on_c, 2, 56, 78
7, 348480, Note_on_c, 2, 56, 0
7, 349680, Note_on_c, 2, 56, 123
7, 349920, Note_on_c, 2, 56, 0
7, 349920, Note_on_c, 2, 56, 123
7, 350160, Note_on_c, 2, 56, 0
7, 350160, Note_on_c, 2, 56, 123
7, 350400, Note_on_c, 2, 56, 0
7, 350400, Note_on_c, 2, 53, 123
7, 351600, Note_on_c, 2, 53, 0
7, 351600, Note_on_c, 2, 56, 123
7, 351840, Note_on_c, 2, 56, 0
7, 351840, Note_on_c, 2, 56, 123
7, 352080, Note_on_c, 2, 56, 0
7, 352080, Note_on_c, 2, 56, 123
7, 352320, Note_on_c, 2, 56, 0
7, 352320, Note_on_c, 2, 53, 123
7, 353520, Note_on_c, 2, 53, 0
7, 353520, Note_on_c, 2, 56, 123
7, 353760, Note_on_c, 2, 56, 0
7, 353760, Note_on_c, 2, 56, 123
7, 354000, Note_on_c, 2, 56, 0
7, 354000, Note_on_c, 2, 56, 123
7, 354240, Note_on_c, 2, 56, 0
7, 354240, Note_on_c, 2, 53, 123
7, 354480, Note_on_c, 2, 53, 0
7, 354480, Note_on_c, 2, 56, 123
7, 354720, Note_on_c, 2, 56, 0
7, 354720, Note_on_c, 2, 56, 123
7, 354960, Note_on_c, 2, 56, 0
7, 354960, Note_on_c, 2, 56, 123
7, 355200, Note_on_c, 2, 56, 0
7, 355200, Note_on_c, 2, 53, 123
7, 355440, Note_on_c, 2, 53, 0
7, 355440, Note_on_c, 2, 56, 123
7, 355680, Note_on_c, 2, 56, 0
7, 355680, Note_on_c, 2, 56, 123
7, 355920, Note_on_c, 2, 56, 0
7, 355920, Note_on_c, 2, 56, 123
7, 356160, Note_on_c, 2, 56, 0
7, 356160, Note_on_c, 2, 53, 123
7, 356400, Note_on_c, 2, 53, 0
7, 356400, Note_on_c, 2, 55, 123
7, 356640, Note_on_c, 2, 55, 0
7, 356640, Note_on_c, 2, 55, 123
7, 356880, Note_on_c, 2, 55, 0
7, 356880, Note_on_c, 2, 55, 123
7, 357120, Note_on_c, 2, 55, 0
7, 357120, Note_on_c, 2, 51, 123
7, 358080, Note_on_c, 2, 51, 0
7, 358320, Note_on_c, 2, 53, 123
7, 358560, Note_on_c, 2, 53, 0
7, 358560, Note_on_c, 2, 53, 123
7, 358800, Note_on_c, 2, 53, 0
7, 358800, Note_on_c, 2, 53, 123
7, 359040, Note_on_c, 2, 53, 0
7, 359040, Note_on_c, 2, 50, 123
7, 360960, Note_on_c, 2, 50, 0
7, 363840, Note_on_c, 2, 51, 91
7, 365760, Note_on_c, 2, 51, 0
7, 365760, Note_on_c, 2, 50, 91
7, 366240, Note_on_c, 2, 50, 0
7, 367680, Note_on_c, 2, 50, 91
7, 369600, Note_on_c, 2, 50, 0
7, 369600, Note_on_c, 2, 50, 91
7, 370080, Note_on_c, 2, 50, 0
7, 374400, Note_on_c, 2, 48, 91
7, 375360, Note_on_c, 2, 48, 0
7, 375360, Note_on_c, 2, 47, 115
7, 375840, Note_on_c, 2, 47, 0
7, 387840, Note_on_c, 2, 60, 115
7, 388320, Note_on_c, 2, 60, 0
7, 392640, Note_on_c, 2, 53, 115
7, 393120, Note_on_c, 2, 53, 0
7, 393600, Note_on_c, 2, 52, 115
7, 394080, Note_on_c, 2, 52, 0
7, 394560, Note_on_c, 2, 53, 115
7, 395040, Note_on_c, 2, 53, 0
7, 395520, Note_on_c, 2, 55, 115
7, 396000, Note_on_c, 2, 55, 0
7, 396480, Note_on_c, 2, 53, 115
7, 396960, Note_on_c, 2, 53, 0
7, 397440, Note_on_c, 2, 50, 115
7, 397920, Note_on_c, 2, 50, 0
7, 398400, Note_on_c, 2, 51, 115
7, 402240, Note_on_c, 2, 51, 0
7, 402240, Note_on_c, 2, 50, 115
7, 405600, Note_on_c, 2, 50, 0
7, 405600, Note_on_c, 2, 48, 115
7, 406080, Note_on_c, 2, 48, 0
7, 406080, Note_on_c, 2, 54, 123
7, 409920, Note_on_c, 2, 54, 0
7, 409920, Note_on_c, 2, 57, 123
7, 410400, Note_on_c, 2, 57, 0
7, 411840, Note_on_c, 2, 59, 123
7, 412320, Note_on_c, 2, 59, 0
7, 433920, Note_on_c, 2, 58, 91
7, 434400, Note_on_c, 2, 58, 0
7, 434400, Note_on_c, 2, 60, 91
7, 434880, Note_on_c, 2, 60, 0
7, 434880, Note_on_c, 2, 58, 91
7, 435360, Note_on_c, 2, 58, 0
7, 435360, Note_on_c, 2, 57, 91
7, 435840, Note_on_c, 2, 57, 0
7, 437760, Note_on_c, 2, 60, 91
7, 438240, Note_on_c, 2, 60, 0
7, 438240, Note_on_c, 2, 62, 91
7, 438720, Note_on_c, 2, 62, 0
7, 438720, Note_on_c, 2, 60, 91
7, 439200, Note_on_c, 2, 60, 0
7, 439200, Note_on_c, 2, 59, 91
7, 439680, Note_on_c, 2, 59, 0
7, 444480, Note_on_c, 2, 56, 91
7, 444960, Note_on_c, 2, 56, 0
7, 444960, Note_on_c, 2, 55, 91
7, 445440, Note_on_c, 2, 55, 0
7, 445440, Note_on_c, 2, 53, 91
7, 445920, Note_on_c, 2, 53, 0
7, 445920, Note_on_c, 2, 55, 91
7, 446400, Note_on_c, 2, 55, 0
7, 446400, Note_on_c, 2, 56, 91
7, 446880, Note_on_c, 2, 56, 0
7, 446880, Note_on_c, 2, 55, 91
7, 447360, Note_on_c, 2, 55, 0
7, 447360, Note_on_c, 2, 54, 101
7, 447840, Note_on_c, 2, 54, 0
7, 447840, Note_on_c, 2, 55, 101
7, 448320, Note_on_c, 2, 55, 0
7, 448320, Note_on_c, 2, 57, 101
7, 448800, Note_on_c, 2, 57, 0
7, 448800, Note_on_c, 2, 55, 101
7, 449280, Note_on_c, 2, 55, 0
7, 449280, Note_on_c, 2, 54, 101
7, 449760, Note_on_c, 2, 54, 0
7, 449760, Note_on_c, 2, 55, 101
7, 450240, Note_on_c, 2, 55, 0
7, 450240, Note_on_c, 2, 57, 109
7, 450720, Note_on_c, 2, 57, 0
7, 450720, Note_on_c, 2, 55, 109
7, 451200, Note_on_c, 2, 55, 0
7, 451200, Note_on_c, 2, 54, 109
7, 451680, Note_on_c, 2, 54, 0
7, 451680, Note_on_c, 2, 55, 109
7, 452160, Note_on_c, 2, 55, 0
7, 452160, Note_on_c, 2, 54, 115
7, 452640, Note_on_c, 2, 54, 0
7, 452640, Note_on_c, 2, 55, 115
7, 453120, Note_on_c, 2, 55, 0
7, 453120, Note_on_c, 2, 54, 115
7, 453600, Note_on_c, 2, 54, 0
7, 453600, Note_on_c, 2, 55, 115
7, 454080, Note_on_c, 2, 55, 0
7, 454080, Note_on_c, 2, 65, 123
7, 455520, Note_on_c, 2, 65, 0
7, 455520, Note_on_c, 2, 62, 123
7, 456000, Note_on_c, 2, 62, 0
7, 456000, Note_on_c, 2, 64, 123
7, 456480, Note_on_c, 2, 64, 0
7, 456960, Note_on_c, 2, 59, 123
7, 457440, Note_on_c, 2, 59, 0
7, 457920, Note_on_c, 2, 60, 123
7, 458400, Note_on_c, 2, 60, 0
7, 458880, Note_on_c, 2, 60, 123
7, 459360, Note_on_c, 2, 60, 0
7, 459840, Note_on_c, 2, 60, 123
7, 460320, Note_on_c, 2, 60, 0
7, 460800, Note_on_c, 2, 59, 123
7, 461280, Note_on_c, 2, 59, 0
7, 461760, Note_on_c, 2, 62, 123
7, 463680, Note_on_c, 2, 62, 0
7, 463680, Note_on_c, 2, 60, 123
7, 464160, Note_on_c, 2, 60, 0
7, 464160, Note_on_c, 2, 60, 123
7, 464640, Note_on_c, 2, 60, 0
7, 465120, Note_on_c, 2, 59, 123
7, 465600, Note_on_c, 2, 59, 0
7, 466080, Note_on_c, 2, 60, 123
7, 466560, Note_on_c, 2, 60, 0
7, 467040, Note_on_c, 2, 60, 123
7, 467520, Note_on_c, 2, 60, 0
7, 468000, Note_on_c, 2, 60, 123
7, 468480, Note_on_c, 2, 60, 0
7, 468960, Note_on_c, 2, 59, 123
7, 469440, Note_on_c, 2, 59, 0
7, 469440, Note_on_c, 2, 52, 123
7, 469680, Note_on_c, 2, 52, 0
7, 469680, Note_on_c, 2, 52, 123
7, 469920, Note_on_c, 2, 52, 0
7, 469920, Note_on_c, 2, 52, 123
7, 470160, Note_on_c, 2, 52, 0
7, 470160, Note_on_c, 2, 52, 123
7, 470400, Note_on_c, 2, 52, 0
7, 470400, Note_on_c, 2, 48, 123
7, 470640, Note_on_c, 2, 48, 0
7, 470640, Note_on_c, 2, 55, 123
7, 470880, Note_on_c, 2, 55, 0
7, 470880, Note_on_c, 2, 55, 123
7, 471120, Note_on_c, 2, 55, 0
7, 471120, Note_on_c, 2, 55, 123
7, 471360, Note_on_c, 2, 55, 0
7, 471360, Note_on_c, 2, 52, 123
7, 471600, Note_on_c, 2, 52, 0
7, 471600, Note_on_c, 2, 48, 123
7, 471840, Note_on_c, 2, 48, 0
7, 471840, Note_on_c, 2, 48, 123
7, 472080, Note_on_c, 2, 48, 0
7, 472080, Note_on_c, 2, 48, 123
7, 472320, Note_on_c, 2, 48, 0
7, 472320, Note_on_c, 2, 43, 123
7, 473520, Note_on_c, 2, 43, 0
7, 473520, Note_on_c, 2, 52, 123
7, 473760, Note_on_c, 2, 52, 0
7, 473760, Note_on_c, 2, 52, 123
7, 474000, Note_on_c, 2, 52, 0
7, 474000, Note_on_c, 2, 52, 123
7, 474240, Note_on_c, 2, 52, 0
7, 474240, Note_on_c, 2, 48, 123
7, 474480, Note_on_c, 2, 48, 0
7, 474480, Note_on_c, 2, 55, 123
7, 474720, Note_on_c, 2, 55, 0
7, 474720, Note_on_c, 2, 55, 123
7, 474960, Note_on_c, 2, 55, 0
7, 474960, Note_on_c, 2, 55, 123
7, 475200, Note_on_c, 2, 55, 0
7, 475200, Note_on_c, 2, 52, 123
7, 475440, Note_on_c, 2, 52, 0
7, 475440, Note_on_c, 2, 48, 123
7, 475680, Note_on_c, 2, 48, 0
7, 475680, Note_on_c, 2, 48, 123
7, 475920, Note_on_c, 2, 48, 0
7, 475920, Note_on_c, 2, 48, 123
7, 476160, Note_on_c, 2, 48, 0
7, 476160, Note_on_c, 2, 43, 123
7, 476400, Note_on_c, 2, 43, 0
7, 476400, Note_on_c, 2, 55, 123
7, 476640, Note_on_c, 2, 55, 0
7, 476640, Note_on_c, 2, 55, 123
7, 476880, Note_on_c, 2, 55, 0
7, 476880, Note_on_c, 2, 55, 123
7, 477120, Note_on_c, 2, 55, 0
7, 477120, Note_on_c, 2, 55, 123
7, 477600, Note_on_c, 2, 55, 0
7, 478320, Note_on_c, 2, 55, 123
7, 478560, Note_on_c, 2, 55, 0
7, 478560, Note_on_c, 2, 55, 123
7, 478800, Note_on_c, 2, 55, 0
7, 478800, Note_on_c, 2, 55, 123
7, 479040, Note_on_c, 2, 55, 0
7, 479040, Note_on_c, 2, 55, 123
7, 479520, Note_on_c, 2, 55, 0
7, 480240, Note_on_c, 2, 59, 123
7, 480480, Note_on_c, 2, 59, 0
7, 480480, Note_on_c, 2, 59, 123
7, 480720, Note_on_c, 2, 59, 0
7, 480720, Note_on_c, 2, 59, 123
7, 480960, Note_on_c, 2, 59, 0
7, 480960, Note_on_c, 2, 60, 123
7, 481200, Note_on_c, 2, 60, 0
7, 481200, Note_on_c, 2, 48, 123
7, 481440, Note_on_c, 2, 48, 0
7, 481440, Note_on_c, 2, 48, 123
7, 481680, Note_on_c, 2, 48, 0
7, 481680, Note_on_c, 2, 48, 123
7, 481920, Note_on_c, 2, 48, 0
7, 481920, Note_on_c, 2, 48, 123
7, 483120, Note_on_c, 2, 48, 0
7, 483120, Note_on_c, 2, 48, 123
7, 483360, Note_on_c, 2, 48, 0
7, 483360, Note_on_c, 2, 48, 123
7, 483600, Note_on_c, 2, 48, 0
7, 483600, Note_on_c, 2, 48, 123
7, 483840, Note_on_c, 2, 48, 0
7, 483840, Note_on_c, 2, 48, 123
7, 485040, Note_on_c, 2, 48, 0
7, 485040, Note_on_c, 2, 48, 123
7, 485280, Note_on_c, 2, 48, 0
7, 485280, Note_on_c, 2, 48, 123
7, 485520, Note_on_c, 2, 48, 0
7, 485520, Note_on_c, 2, 48, 123
7, 485760, Note_on_c, 2, 48, 0
7, 485760, Note_on_c, 2, 48, 123
7, 486960, Note_on_c, 2, 48, 0
7, 486960, Note_on_c, 2, 48, 123
7, 487200, Note_on_c, 2, 48, 0
7, 487200, Note_on_c, 2, 48, 123
7, 487440, Note_on_c, 2, 48, 0
7, 487440, Note_on_c, 2, 48, 123
7, 487680, Note_on_c, 2, 48, 0
7, 487680, Note_on_c, 2, 48, 123
7, 488640, Note_on_c, 2, 48, 0
7, 488640, Note_on_c, 2, 56, 123
7, 492480, Note_on_c, 2, 56, 0
7, 492480, Note_on_c, 2, 56, 123
7, 492960, Note_on_c, 2, 56, 0
7, 493680, Note_on_c, 2, 53, 91
7, 493920, Note_on_c, 2, 53, 0
7, 493920, Note_on_c, 2, 53, 91
7, 494160, Note_on_c, 2, 53, 0
7, 494160, Note_on_c, 2, 53, 91
7, 494400, Note_on_c, 2, 53, 0
7, 494400, Note_on_c, 2, 56, 91
7, 494880, Note_on_c, 2, 56, 0
7, 496560, Note_on_c, 2, 57, 123
7, 496800, Note_on_c, 2, 57, 0
7, 496800, Note_on_c, 2, 57, 123
7, 497040, Note_on_c, 2, 57, 0
7, 497040, Note_on_c, 2, 57, 123
7, 497280, Note_on_c, 2, 57, 0
7, 497280, Note_on_c, 2, 57, 123
7, 501120, Note_on_c, 2, 57, 0
7, 501120, Note_on_c, 2, 57, 123
7, 501600, Note_on_c, 2, 57, 0
7, 502320, Note_on_c, 2, 48, 123
7, 502560, Note_on_c, 2, 48, 0
7, 502560, Note_on_c, 2, 48, 123
7, 502800, Note_on_c, 2, 48, 0
7, 502800, Note_on_c, 2, 48, 123
7, 503040, Note_on_c, 2, 48, 0
7, 503040, Note_on_c, 2, 51, 123
7, 503520, Note_on_c, 2, 51, 0
7, 506880, Note_on_c, 2, 59, 115
7, 508800, Note_on_c, 2, 59, 0
7, 510720, Note_on_c, 2, 59, 115
7, 512640, Note_on_c, 2, 59, 0
7, 514560, Note_on_c, 2, 63, 115
7, 515040, Note_on_c, 2, 63, 0
7, 515040, Note_on_c, 2, 65, 115
7, 515520, Note_on_c, 2, 65, 0
7, 515520, Note_on_c, 2, 62, 115
7, 516000, Note_on_c, 2, 62, 0
7, 516000, Note_on_c, 2, 63, 115
7, 516480, Note_on_c, 2, 63, 0
7, 516480, Note_on_c, 2, 60, 115
7, 516960, Note_on_c, 2, 60, 0
7, 516960, Note_on_c, 2, 62, 115
7, 517440, Note_on_c, 2, 62, 0
7, 517440, Note_on_c, 2, 58, 115
7, 517920, Note_on_c, 2, 58, 0
7, 517920, Note_on_c, 2, 60, 115
7, 518400, Note_on_c, 2, 60, 0
7, 518400, Note_on_c, 2, 56, 115
7, 518880, Note_on_c, 2, 56, 0
7, 518880, Note_on_c, 2, 58, 115
7, 519360, Note_on_c, 2, 58, 0
7, 519360, Note_on_c, 2, 55, 115
7, 519840, Note_on_c, 2, 55, 0
7, 519840, Note_on_c, 2, 56, 115
7, 520320, Note_on_c, 2, 56, 0
7, 520320, Note_on_c, 2, 53, 115
7, 520800, Note_on_c, 2, 53, 0
7, 520800, Note_on_c, 2, 51, 115
7, 521280, Note_on_c, 2, 51, 0
7, 521280, Note_on_c, 2, 50, 115
7, 521760, Note_on_c, 2, 50, 0
7, 521760, Note_on_c, 2, 51, 115
7, 522240, Note_on_c, 2, 51, 0
7, 522240, Note_on_c, 2, 53, 115
7, 522720, Note_on_c, 2, 53, 0
7, 522720, Note_on_c, 2, 51, 115
7, 523200, Note_on_c, 2, 51, 0
7, 523200, Note_on_c, 2, 53, 115
7, 523680, Note_on_c, 2, 53, 0
7, 523680, Note_on_c, 2, 55, 115
7, 524160, Note_on_c, 2, 55, 0
7, 524160, Note_on_c, 2, 56, 115
7, 524640, Note_on_c, 2, 56, 0
7, 524640, Note_on_c, 2, 55, 115
7, 525120, Note_on_c, 2, 55, 0
7, 525120, Note_on_c, 2, 56, 115
7, 525600, Note_on_c, 2, 56, 0
7, 525600, Note_on_c, 2, 47, 115
7, 526080, Note_on_c, 2, 47, 0
7, 526080, Note_on_c, 2, 48, 115
7, 526560, Note_on_c, 2, 48, 0
7, 526560, Note_on_c, 2, 47, 115
7, 527040, Note_on_c, 2, 47, 0
7, 527040, Note_on_c, 2, 48, 115
7, 527520, Note_on_c, 2, 48, 0
7, 527520, Note_on_c, 2, 50, 115
7, 528000, Note_on_c, 2, 50, 0
7, 528000, Note_on_c, 2, 51, 115
7, 529920, Note_on_c, 2, 51, 0
7, 529920, Note_on_c, 2, 53, 115
7, 531840, Note_on_c, 2, 53, 0
7, 531840, Note_on_c, 2, 55, 115
7, 533760, Note_on_c, 2, 55, 0
7, 533760, Note_on_c, 2, 56, 115
7, 534720, Note_on_c, 2, 56, 0
7, 534720, Note_on_c, 2, 53, 115
7, 535680, Note_on_c, 2, 53, 0
7, 535680, Note_on_c, 2, 53, 115
7, 536640, Note_on_c, 2, 53, 0
7, 536640, Note_on_c, 2, 55, 115
7, 537600, Note_on_c, 2, 55, 0
7, 537600, Note_on_c, 2, 55, 115
7, 538080, Note_on_c, 2, 55, 0
7, 538560, Note_on_c, 2, 56, 115
7, 539040, Note_on_c, 2, 56, 0
7, 539520, Note_on_c, 2, 56, 115
7, 540000, Note_on_c, 2, 56, 0
7, 540480, Note_on_c, 2, 60, 115
7, 540960, Note_on_c, 2, 60, 0
7, 541440, Note_on_c, 2, 60, 115
7, 541920, Note_on_c, 2, 60, 0
7, 542400, Note_on_c, 2, 59, 115
7, 542880, Note_on_c, 2, 59, 0
7, 543360, Note_on_c, 2, 60, 123
7, 544320, Note_on_c, 2, 60, 0
7, 544320, Note_on_c, 2, 62, 123
7, 544800, Note_on_c, 2, 62, 0
7, 544800, Note_on_c, 2, 63, 123
7, 545280, Note_on_c, 2, 63, 0
7, 545280, Note_on_c, 2, 65, 123
7, 545760, Note_on_c, 2, 65, 0
7, 545760, Note_on_c, 2, 62, 123
7, 546240, Note_on_c, 2, 62, 0
7, 548160, Note_on_c, 2, 65, 123
7, 548640, Note_on_c, 2, 65, 0
7, 548640, Note_on_c, 2, 67, 123
7, 549120, Note_on_c, 2, 67, 0
7, 549120, Note_on_c, 2, 68, 123
7, 549600, Note_on_c, 2, 68, 0
7, 549600, Note_on_c, 2, 65, 123
7, 550080, Note_on_c, 2, 65, 0
7, 552000, Note_on_c, 2, 57, 123
7, 552480, Note_on_c, 2, 57, 0
7, 552480, Note_on_c, 2, 59, 123
7, 552960, Note_on_c, 2, 59, 0
7, 552960, Note_on_c, 2, 60, 123
7, 553440, Note_on_c, 2, 60, 0
7, 553440, Note_on_c, 2, 55, 123
7, 553920, Note_on_c, 2, 55, 0
7, 555840, Note_on_c, 2, 57, 123
7, 556320, Note_on_c, 2, 57, 0
7, 556320, Note_on_c, 2, 59, 123
7, 556800, Note_on_c, 2, 59, 0
7, 556800, Note_on_c, 2, 60, 123
7, 557280, Note_on_c, 2, 60, 0
7, 557280, Note_on_c, 2, 58, 123
7, 557760, Note_on_c, 2, 58, 0
7, 557760, Note_on_c, 2, 56, 123
7, 558240, Note_on_c, 2, 56, 0
7, 558240, Note_on_c, 2, 55, 123
7, 558720, Note_on_c, 2, 55, 0
7, 558720, Note_on_c, 2, 53, 123
7, 559200, Note_on_c, 2, 53, 0
7, 559200, Note_on_c, 2, 51, 123
7, 559680, Note_on_c, 2, 51, 0
7, 560640, Note_on_c, 2, 48, 123
7, 561120, Note_on_c, 2, 48, 0
7, 561120, Note_on_c, 2, 48, 123
7, 561600, Note_on_c, 2, 48, 0
7, 561600, Note_on_c, 2, 65, 123
7, 562080, Note_on_c, 2, 65, 0
7, 562080, Note_on_c, 2, 63, 123
7, 562560, Note_on_c, 2, 63, 0
7, 563040, Note_on_c, 2, 60, 123
7, 563520, Note_on_c, 2, 60, 0
7, 564000, Note_on_c, 2, 59, 123
7, 564480, Note_on_c, 2, 59, 0
7, 567360, Note_on_c, 2, 48, 123
7, 567840, Note_on_c, 2, 48, 0
7, 567840, Note_on_c, 2, 48, 123
7, 568320, Note_on_c, 2, 48, 0
7, 569280, Note_on_c, 2, 53, 123
7, 569760, Note_on_c, 2, 53, 0
7, 569760, Note_on_c, 2, 51, 123
7, 570240, Note_on_c, 2, 51, 0
7, 570720, Note_on_c, 2, 63, 123
7, 571200, Note_on_c, 2, 63, 0
7, 571680, Note_on_c, 2, 62, 123
7, 572160, Note_on_c, 2, 62, 0
7, 572160, Note_on_c, 2, 60, 123
7, 572640, Note_on_c, 2, 60, 0
7, 573360, Note_on_c, 2, 59, 123
7, 573600, Note_on_c, 2, 59, 0
7, 573600, Note_on_c, 2, 59, 123
7, 573840, Note_on_c, 2, 59, 0
7, 573840, Note_on_c, 2, 59, 123
7, 574080, Note_on_c, 2, 59, 0
7, 574080, Note_on_c, 2, 59, 123
7, 575520, Note_on_c, 2, 59, 0
7, 575520, Note_on_c, 2, 60, 123
7, 576000, Note_on_c, 2, 60, 0
7, 576000, Note_on_c, 2, 62, 123
7, 576480, Note_on_c, 2, 62, 0
7, 576480, Note_on_c, 2, 59, 123
7, 576960, Note_on_c, 2, 59, 0
7, 576960, Note_on_c, 2, 60, 123
7, 577440, Note_on_c, 2, 60, 0
7, 577440, Note_on_c, 2, 62, 123
7, 577920, Note_on_c, 2, 62, 0
7, 577920, Note_on_c, 2, 60, 123
7, 578400, Note_on_c, 2, 60, 0
7, 579120, Note_on_c, 2, 55, 123
7, 579360, Note_on_c, 2, 55, 0
7, 579360, Note_on_c, 2, 55, 123
7, 579600, Note_on_c, 2, 55, 0
7, 579600, Note_on_c, 2, 55, 123
7, 579840, Note_on_c, 2, 55, 0
7, 579840, Note_on_c, 2, 55, 123
7, 580080, Note_on_c, 2, 55, 0
7, 580080, Note_on_c, 2, 55, 123
7, 580320, Note_on_c, 2, 55, 0
7, 580320, Note_on_c, 2, 55, 123
7, 580560, Note_on_c, 2, 55, 0
7, 580560, Note_on_c, 2, 55, 123
7, 580800, Note_on_c, 2, 55, 0
7, 580800, Note_on_c, 2, 55, 123
7, 581040, Note_on_c, 2, 55, 0
7, 581040, Note_on_c, 2, 55, 123
7, 581280, Note_on_c, 2, 55, 0
7, 581280, Note_on_c, 2, 55, 123
7, 581520, Note_on_c, 2, 55, 0
7, 581520, Note_on_c, 2, 55, 123
7, 581760, Note_on_c, 2, 55, 0
7, 581760, Note_on_c, 2, 51, 123
7, 582720, Note_on_c, 2, 51, 0
7, 582960, Note_on_c, 2, 53, 123
7, 583200, Note_on_c, 2, 53, 0
7, 583200, Note_on_c, 2, 53, 123
7, 583440, Note_on_c, 2, 53, 0
7, 583440, Note_on_c, 2, 53, 123
7, 583680, Note_on_c, 2, 53, 0
7, 583680, Note_on_c, 2, 50, 123
7, 585600, Note_on_c, 2, 50, 0
7, 587040, Note_on_c, 2, 56, 91
7, 587520, Note_on_c, 2, 56, 0
7, 587520, Note_on_c, 2, 55, 91
7, 588000, Note_on_c, 2, 55, 0
7, 588000, Note_on_c, 2, 63, 91
7, 588480, Note_on_c, 2, 63, 0
7, 588480, Note_on_c, 2, 60, 91
7, 589920, Note_on_c, 2, 60, 0
7, 590880, Note_on_c, 2, 56, 91
7, 591360, Note_on_c, 2, 56, 0
7, 591360, Note_on_c, 2, 55, 91
7, 591840, Note_on_c, 2, 55, 0
7, 591840, Note_on_c, 2, 63, 91
7, 592320, Note_on_c, 2, 63, 0
7, 592320, Note_on_c, 2, 60, 91
7, 593520, Note_on_c, 2, 60, 0
7, 593520, Note_on_c, 2, 59, 123
7, 593760, Note_on_c, 2, 59, 0
7, 593760, Note_on_c, 2, 59, 123
7, 594000, Note_on_c, 2, 59, 0
7, 594000, Note_on_c, 2, 59, 123
7, 594240, Note_on_c, 2, 59, 0
7, 594240, Note_on_c, 2, 60, 123
7, 594720, Note_on_c, 2, 60, 0
7, 595440, Note_on_c, 2, 59, 123
7, 595680, Note_on_c, 2, 59, 0
7, 595680, Note_on_c, 2, 59, 123
7, 595920, Note_on_c, 2, 59, 0
7, 595920, Note_on_c, 2, 59, 123
7, 596160, Note_on_c, 2, 59, 0
7, 596160, Note_on_c, 2, 60, 123
7, 596640, Note_on_c, 2, 60, 0
7, 597360, Note_on_c, 2, 59, 123
7, 597600, Note_on_c, 2, 59, 0
7, 597600, Note_on_c, 2, 59, 123
7, 597840, Note_on_c, 2, 59, 0
7, 597840, Note_on_c, 2, 59, 123
7, 598080, Note_on_c, 2, 59, 0
7, 598080, Note_on_c, 2, 60, 123
7, 598560, Note_on_c, 2, 60, 0
7, 598560, Note_on_c, 2, 59, 123
7, 599040, Note_on_c, 2, 59, 0
7, 599040, Note_on_c, 2, 60, 123
7, 599520, Note_on_c, 2, 60, 0
7, 599520, Note_on_c, 2, 59, 123
7, 600000, Note_on_c, 2, 59, 0
7, 600000, Note_on_c, 2, 60, 123
7, 600480, Note_on_c, 2, 60, 0
7, 600480, Note_on_c, 2, 59, 123
7, 600960, Note_on_c, 2, 59, 0
7, 600960, Note_on_c, 2, 60, 123
7, 601440, Note_on_c, 2, 60, 0
7, 601440, Note_on_c, 2, 59, 123
7, 601920, Note_on_c, 2, 59, 0
7, 601920, Note_on_c, 2, 60, 123
7, 602400, Note_on_c, 2, 60, 0
7, 602880, Note_on_c, 2, 59, 123
7, 603360, Note_on_c, 2, 59, 0
7, 603840, Note_on_c, 2, 60, 123
7, 604320, Note_on_c, 2, 60, 0
7, 604320, End_track
8, 0, Start_track
8, 0, MIDI_port, 0
8, 0, Title_t, "Bassoon 1"
8, 0, Program_c, 3, 70
8, 5760, Note_on_c, 3, 60, 91
8, 9600, Note_on_c, 3, 60, 0
8, 9600, Note_on_c, 3, 59, 91
8, 13440, Note_on_c, 3, 59, 0
8, 13440, Note_on_c, 3, 60, 91
8, 14400, Note_on_c, 3, 60, 0
8, 14400, Note_on_c, 3, 59, 91
8, 15360, Note_on_c, 3, 59, 0
8, 15360, Note_on_c, 3, 60, 91
8, 16320, Note_on_c, 3, 60, 0
8, 16320, Note_on_c, 3, 59, 91
8, 16560, Note_on_c, 3, 59, 0
8, 16560, Note_on_c, 3, 59, 91
8, 16800, Note_on_c, 3, 59, 0
8, 16800, Note_on_c, 3, 59, 101
8, 17040, Note_on_c, 3, 59, 0
8, 17040, Note_on_c, 3, 59, 109
8, 17280, Note_on_c, 3, 59, 0
8, 17280, Note_on_c, 3, 60, 115
8, 17760, Note_on_c, 3, 60, 0
8, 18240, Note_on_c, 3, 44, 115
8, 18720, Note_on_c, 3, 44, 0
8, 19200, Note_on_c, 3, 43, 115
8, 19680, Note_on_c, 3, 43, 0
8, 20400, Note_on_c, 3, 44, 123
8, 20640, Note_on_c, 3, 44, 0
8, 20640, Note_on_c, 3, 44, 123
8, 20880, Note_on_c, 3, 44, 0
8, 20880, Note_on_c, 3, 44, 123
8, 21120, Note_on_c, 3, 44, 0
8, 21120, Note_on_c, 3, 41, 123
8, 23040, Note_on_c, 3, 41, 0
8, 33600, Note_on_c, 3, 67, 123
8, 35040, Note_on_c, 3, 67, 0
8, 35520, Note_on_c, 3, 59, 123
8, 36000, Note_on_c, 3, 59, 0
8, 36480, Note_on_c, 3, 58, 123
8, 36960, Note_on_c, 3, 58, 0
8, 37440, Note_on_c, 3, 56, 123
8, 37920, Note_on_c, 3, 56, 0
8, 38400, Note_on_c, 3, 52, 123
8, 38880, Note_on_c, 3, 52, 0
8, 39360, Note_on_c, 3, 53, 123
8, 39840, Note_on_c, 3, 53, 0
8, 40320, Note_on_c, 3, 60, 123
8, 40800, Note_on_c, 3, 60, 0
8, 41280, Note_on_c, 3, 51, 115
8, 45120, Note_on_c, 3, 51, 0
8, 45120, Note_on_c, 3, 50, 115
8, 48480, Note_on_c, 3, 50, 0
8, 48480, Note_on_c, 3, 51, 115
8, 48960, Note_on_c, 3, 51, 0
8, 48960, Note_on_c, 3, 57, 123
8, 52800, Note_on_c, 3, 57, 0
8, 52800, Note_on_c, 3, 57, 123
8, 53280, Note_on_c, 3, 57, 0
8, 54720, Note_on_c, 3, 53, 123
8, 55200, Note_on_c, 3, 53, 0
8, 63360, Note_on_c, 3, 58, 91
8, 64320, Note_on_c, 3, 58, 0
8, 64320, Note_on_c, 3, 56, 91
8, 65280, Note_on_c, 3, 56, 0
8, 65280, Note_on_c, 3, 53, 91
8, 66240, Note_on_c, 3, 53, 0
8, 66240, Note_on_c, 3, 55, 91
8, 67200, Note_on_c, 3, 55, 0
8, 67200, Note_on_c, 3, 58, 91
8, 68160, Note_on_c, 3, 58, 0
8, 68160, Note_on_c, 3, 56, 91
8, 69120, Note_on_c, 3, 56, 0
8, 69120, Note_on_c, 3, 53, 91
8, 70080, Note_on_c, 3, 53, 0
8, 70080, Note_on_c, 3, 55, 91
8, 71040, Note_on_c, 3, 55, 0
8, 71040, Note_on_c, 3, 58, 91
8, 72000, Note_on_c, 3, 58, 0
8, 72000, Note_on_c, 3, 55, 91
8, 72960, Note_on_c, 3, 55, 0
8, 72960, Note_on_c, 3, 52, 91
8, 73920, Note_on_c, 3, 52, 0
8, 73920, Note_on_c, 3, 56, 91
8, 74880, Note_on_c, 3, 56, 0
8, 74880, Note_on_c, 3, 61, 91
8, 75840, Note_on_c, 3, 61, 0
8, 75840, Note_on_c, 3, 58, 91
8, 76800, Note_on_c, 3, 58, 0
8, 76800, Note_on_c, 3, 55, 91
8, 77760, Note_on_c, 3, 55, 0
8, 77760, Note_on_c, 3, 60, 91
8, 78720, Note_on_c, 3, 60, 0
8, 78720, Note_on_c, 3, 56, 91
8, 79680, Note_on_c, 3, 56, 0
8, 79680, Note_on_c, 3, 57, 91
8, 81600, Note_on_c, 3, 57, 0
8, 81600, Note_on_c, 3, 58, 91
8, 83520, Note_on_c, 3, 58, 0
8, 83520, Note_on_c, 3, 59, 91
8, 85440, Note_on_c, 3, 59, 0
8, 85440, Note_on_c, 3, 60, 91
8, 87840, Note_on_c, 3, 60, 0
8, 87840, Note_on_c, 3, 60, 109
8, 88320, Note_on_c, 3, 60, 0
8, 88320, Note_on_c, 3, 60, 115
8, 88800, Note_on_c, 3, 60, 0
8, 88800, Note_on_c, 3, 60, 115
8, 89280, Note_on_c, 3, 60, 0
8, 89280, Note_on_c, 3, 62, 123
8, 90720, Note_on_c, 3, 62, 0
8, 90720, Note_on_c, 3, 53, 123
8, 91200, Note_on_c, 3, 53, 0
8, 91200, Note_on_c, 3, 55, 123
8, 91680, Note_on_c, 3, 55, 0
8, 92160, Note_on_c, 3, 56, 123
8, 92640, Note_on_c, 3, 56, 0
8, 93120, Note_on_c, 3, 58, 123
8, 93600, Note_on_c, 3, 58, 0
8, 94080, Note_on_c, 3, 60, 123
8, 94560, Note_on_c, 3, 60, 0
8, 95040, Note_on_c, 3, 58, 123
8, 95520, Note_on_c, 3, 58, 0
8, 96000, Note_on_c, 3, 46, 123
8, 96480, Note_on_c, 3, 46, 0
8, 96960, Note_on_c, 3, 68, 123
8, 98400, Note_on_c, 3, 68, 0
8, 98400, Note_on_c, 3, 65, 123
8, 98880, Note_on_c, 3, 65, 0
8, 98880, Note_on_c, 3, 67, 123
8, 99360, Note_on_c, 3, 67, 0
8, 99360, Note_on_c, 3, 67, 123
8, 99840, Note_on_c, 3, 67, 0
8, 100320, Note_on_c, 3, 65, 123
8, 100800, Note_on_c, 3, 65, 0
8, 101280, Note_on_c, 3, 63, 123
8, 101760, Note_on_c, 3, 63, 0
8, 102240, Note_on_c, 3, 60, 123
8, 102720, Note_on_c, 3, 60, 0
8, 103200, Note_on_c, 3, 58, 123
8, 103680, Note_on_c, 3, 58, 0
8, 104160, Note_on_c, 3, 58, 123
8, 104640, Note_on_c, 3, 58, 0
8, 104640, Note_on_c, 3, 63, 123
8, 104880, Note_on_c, 3, 63, 0
8, 104880, Note_on_c, 3, 67, 123
8, 105120, Note_on_c, 3, 67, 0
8, 105120, Note_on_c, 3, 67, 123
8, 105360, Note_on_c, 3, 67, 0
8, 105360, Note_on_c, 3, 67, 123
8, 105600, Note_on_c, 3, 67, 0
8, 105600, Note_on_c, 3, 63, 123
8, 105840, Note_on_c, 3, 63, 0
8, 105840, Note_on_c, 3, 58, 123
8, 106080, Note_on_c, 3, 58, 0
8, 106080, Note_on_c, 3, 58, 123
8, 106320, Note_on_c, 3, 58, 0
8, 106320, Note_on_c, 3, 58, 123
8, 106560, Note_on_c, 3, 58, 0
8, 106560, Note_on_c, 3, 55, 123
8, 106800, Note_on_c, 3, 55, 0
8, 106800, Note_on_c, 3, 51, 123
8, 107040, Note_on_c, 3, 51, 0
8, 107040, Note_on_c, 3, 51, 123
8, 107280, Note_on_c, 3, 51, 0
8, 107280, Note_on_c, 3, 51, 123
8, 107520, Note_on_c, 3, 51, 0
8, 107520, Note_on_c, 3, 46, 123
8, 108720, Note_on_c, 3, 46, 0
8, 108720, Note_on_c, 3, 67, 123
8, 108960, Note_on_c, 3, 67, 0
8, 108960, Note_on_c, 3, 67, 123
8, 109200, Note_on_c, 3, 67, 0
8, 109200, Note_on_c, 3, 67, 123
8, 109440, Note_on_c, 3, 67, 0
8, 109440, Note_on_c, 3, 63, 123
8, 109680, Note_on_c, 3, 63, 0
8, 109680, Note_on_c, 3, 58, 123
8, 109920, Note_on_c, 3, 58, 0
8, 109920, Note_on_c, 3, 58, 123
8, 110160, Note_on_c, 3, 58, 0
8, 110160, Note_on_c, 3, 58, 123
8, 110400, Note_on_c, 3, 58, 0
8, 110400, Note_on_c, 3, 55, 123
8, 110640, Note_on_c, 3, 55, 0
8, 110640, Note_on_c, 3, 51, 123
8, 110880, Note_on_c, 3, 51, 0
8, 110880, Note_on_c, 3, 51, 123
8, 111120, Note_on_c, 3, 51, 0
8, 111120, Note_on_c, 3, 51, 123
8, 111360, Note_on_c, 3, 51, 0
8, 111360, Note_on_c, 3, 46, 123
8, 112800, Note_on_c, 3, 46, 0
8, 113520, Note_on_c, 3, 62, 123
8, 113760, Note_on_c, 3, 62, 0
8, 113760, Note_on_c, 3, 62, 123
8, 114000, Note_on_c, 3, 62, 0
8, 114000, Note_on_c, 3, 62, 123
8, 114240, Note_on_c, 3, 62, 0
8, 114240, Note_on_c, 3, 63, 123
8, 114720, Note_on_c, 3, 63, 0
8, 115440, Note_on_c, 3, 46, 123
8, 115680, Note_on_c, 3, 46, 0
8, 115680, Note_on_c, 3, 46, 123
8, 115920, Note_on_c, 3, 46, 0
8, 115920, Note_on_c, 3, 46, 123
8, 116160, Note_on_c, 3, 46, 0
8, 116160, Note_on_c, 3, 51, 123
8, 116640, Note_on_c, 3, 51, 0
8, 124800, Note_on_c, 3, 60, 91
8, 128640, Note_on_c, 3, 60, 0
8, 128640, Note_on_c, 3, 59, 91
8, 132480, Note_on_c, 3, 59, 0
8, 132480, Note_on_c, 3, 60, 91
8, 133440, Note_on_c, 3, 60, 0
8, 133440, Note_on_c, 3, 59, 91
8, 134400, Note_on_c, 3, 59, 0
8, 134400, Note_on_c, 3, 60, 91
8, 135360, Note_on_c, 3, 60, 0
8, 135360, Note_on_c, 3, 59, 91
8, 135600, Note_on_c, 3, 59, 0
8, 135600, Note_on_c, 3, 59, 91
8, 135840, Note_on_c, 3, 59, 0
8, 135840, Note_on_c, 3, 59, 101
8, 136080, Note_on_c, 3, 59, 0
8, 136080, Note_on_c, 3, 59, 109
8, 136320, Note_on_c, 3, 59, 0
8, 136320, Note_on_c, 3, 60, 115
8, 136800, Note_on_c, 3, 60, 0
8, 137280, Note_on_c, 3, 44, 115
8, 137760, Note_on_c, 3, 44, 0
8, 138240, Note_on_c, 3, 43, 115
8, 138720, Note_on_c, 3, 43, 0
8, 139440, Note_on_c, 3, 44, 123
8, 139680, Note_on_c, 3, 44, 0
8, 139680, Note_on_c, 3, 44, 123
8, 139920, Note_on_c, 3, 44, 0
8, 139920, Note_on_c, 3, 44, 123
8, 140160, Note_on_c, 3, 44, 0
8, 140160, Note_on_c, 3, 41, 123
8, 142080, Note_on_c, 3, 41, 0
8, 152640, Note_on_c, 3, 67, 123
8, 154080, Note_on_c, 3, 67, 0
8, 154560, Note_on_c, 3, 59, 123
8, 155040, Note_on_c, 3, 59, 0
8, 155520, Note_on_c, 3, 58, 123
8, 156000, Note_on_c, 3, 58, 0
8, 156480, Note_on_c, 3, 56, 123
8, 156960, Note_on_c, 3, 56, 0
8, 157440, Note_on_c, 3, 52, 123
8, 157920, Note_on_c, 3, 52, 0
8, 158400, Note_on_c, 3, 53, 123
8, 158880, Note_on_c, 3, 53, 0
8, 159360, Note_on_c, 3, 60, 123
8, 159840, Note_on_c, 3, 60, 0
8, 160320, Note_on_c, 3, 51, 115
8, 164160, Note_on_c, 3, 51, 0
8, 164160, Note_on_c, 3, 50, 115
8, 167520, Note_on_c, 3, 50, 0
8, 167520, Note_on_c, 3, 51, 115
8, 168000, Note_on_c, 3, 51, 0
8, 168000, Note_on_c, 3, 57, 123
8, 171840, Note_on_c, 3, 57, 0
8, 171840, Note_on_c, 3, 57, 123
8, 172320, Note_on_c, 3, 57, 0
8, 173760, Note_on_c, 3, 53, 123
8, 174240, Note_on_c, 3, 53, 0
8, 182400, Note_on_c, 3, 58, 91
8, 183360, Note_on_c, 3, 58, 0
8, 183360, Note_on_c, 3, 56, 91
8, 184320, Note_on_c, 3, 56, 0
8, 184320, Note_on_c, 3, 53, 91
8, 185280, Note_on_c, 3, 53, 0
8, 185280, Note_on_c, 3, 55, 91
8, 186240, Note_on_c, 3, 55, 0
8, 186240, Note_on_c, 3, 58, 91
8, 187200, Note_on_c, 3, 58, 0
8, 187200, Note_on_c, 3, 56, 91
8, 188160, Note_on_c, 3, 56, 0
8, 188160, Note_on_c, 3, 53, 91
8, 189120, Note_on_c, 3, 53, 0
8, 189120, Note_on_c, 3, 55, 91
8, 190080, Note_on_c, 3, 55, 0
8, 190080, Note_on_c, 3, 58, 91
8, 191040, Note_on_c, 3, 58, 0
8, 191040, Note_on_c, 3, 55, 91
8, 192000, Note_on_c, 3, 55, 0
8, 192000, Note_on_c, 3, 52, 91
8, 192960, Note_on_c, 3, 52, 0
8, 192960, Note_on_c, 3, 56, 91
8, 193920, Note_on_c, 3, 56, 0
8, 193920, Note_on_c, 3, 61, 91
8, 194880, Note_on_c, 3, 61, 0
8, 194880, Note_on_c, 3, 58, 91
8, 195840, Note_on_c, 3, 58, 0
8, 195840, Note_on_c, 3, 55, 91
8, 196800, Note_on_c, 3, 55, 0
8, 196800, Note_on_c, 3, 60, 91
8, 197760, Note_on_c, 3, 60, 0
8, 197760, Note_on_c, 3, 56, 91
8, 198720, Note_on_c, 3, 56, 0
8, 198720, Note_on_c, 3, 57, 91
8, 200640, Note_on_c, 3, 57, 0
8, 200640, Note_on_c, 3, 58, 91
8, 202560, Note_on_c, 3, 58, 0
8, 202560, Note_on_c, 3, 59, 91
8, 204480, Note_on_c, 3, 59, 0
8, 204480, Note_on_c, 3, 60, 91
8, 206880, Note_on_c, 3, 60, 0
8, 206880, Note_on_c, 3, 60, 109
8, 207360, Note_on_c, 3, 60, 0
8, 207360, Note_on_c, 3, 60, 115
8, 207840, Note_on_c, 3, 60, 0
8, 207840, Note_on_c, 3, 60, 115
8, 208320, Note_on_c, 3, 60, 0
8, 208320, Note_on_c, 3, 62, 123
8, 209760, Note_on_c, 3, 62, 0
8, 209760, Note_on_c, 3, 53, 123
8, 210240, Note_on_c, 3, 53, 0
8, 210240, Note_on_c, 3, 55, 123
8, 210720, Note_on_c, 3, 55, 0
8, 211200, Note_on_c, 3, 56, 123
8, 211680, Note_on_c, 3, 56, 0
8, 212160, Note_on_c, 3, 58, 123
8, 212640, Note_on_c, 3, 58, 0
8, 213120, Note_on_c, 3, 60, 123
8, 213600, Note_on_c, 3, 60, 0
8, 214080, Note_on_c, 3, 58, 123
8, 214560, Note_on_c, 3, 58, 0
8, 215040, Note_on_c, 3, 46, 123
8, 215520, Note_on_c, 3, 46, 0
8, 216000, Note_on_c, 3, 68, 123
8, 217440, Note_on_c, 3, 68, 0
8, 217440, Note_on_c, 3, 65, 123
8, 217920, Note_on_c, 3, 65, 0
8, 217920, Note_on_c, 3, 67, 123
8, 218400, Note_on_c, 3, 67, 0
8, 218400, Note_on_c, 3, 67, 123
8, 218880, Note_on_c, 3, 67, 0
8, 219360, Note_on_c, 3, 65, 123
8, 219840, Note_on_c, 3, 65, 0
8, 220320, Note_on_c, 3, 63, 123
8, 220800, Note_on_c, 3, 63, 0
8, 221280, Note_on_c, 3, 60, 123
8, 221760, Note_on_c, 3, 60, 0
8, 222240, Note_on_c, 3, 58, 123
8, 222720, Note_on_c, 3, 58, 0
8, 223200, Note_on_c, 3, 58, 123
8, 223680, Note_on_c, 3, 58, 0
8, 223680, Note_on_c, 3, 63, 123
8, 223920, Note_on_c, 3, 63, 0
8, 223920, Note_on_c, 3, 67, 123
8, 224160, Note_on_c, 3, 67, 0
8, 224160, Note_on_c, 3, 67, 123
8, 224400, Note_on_c, 3, 67, 0
8, 224400, Note_on_c, 3, 67, 123
8, 224640, Note_on_c, 3, 67, 0
8, 224640, Note_on_c, 3, 63, 123
8, 224880, Note_on_c, 3, 63, 0
8, 224880, Note_on_c, 3, 58, 123
8, 225120, Note_on_c, 3, 58, 0
8, 225120, Note_on_c, 3, 58, 123
8, 225360, Note_on_c, 3, 58, 0
8, 225360, Note_on_c, 3, 58, 123
8, 225600, Note_on_c, 3, 58, 0
8, 225600, Note_on_c, 3, 55, 123
8, 225840, Note_on_c, 3, 55, 0
8, 225840, Note_on_c, 3, 51, 123
8, 226080, Note_on_c, 3, 51, 0
8, 226080, Note_on_c, 3, 51, 123
8, 226320, Note_on_c, 3, 51, 0
8, 226320, Note_on_c, 3, 51, 123
8, 226560, Note_on_c, 3, 51, 0
8, 226560, Note_on_c, 3, 46, 123
8, 227760, Note_on_c, 3, 46, 0
8, 227760, Note_on_c, 3, 67, 123
8, 228000, Note_on_c, 3, 67, 0
8, 228000, Note_on_c, 3, 67, 123
8, 228240, Note_on_c, 3, 67, 0
8, 228240, Note_on_c, 3, 67, 123
8, 228480, Note_on_c, 3, 67, 0
8, 228480, Note_on_c, 3, 63, 123
8, 228720, Note_on_c, 3, 63, 0
8, 228720, Note_on_c, 3, 58, 123
8, 228960, Note_on_c, 3, 58, 0
8, 228960, Note_on_c, 3, 58, 123
8, 229200, Note_on_c, 3, 58, 0
8, 229200, Note_on_c, 3, 58, 123
8, 229440, Note_on_c, 3, 58, 0
8, 229440, Note_on_c, 3, 55, 123
8, 229680, Note_on_c, 3, 55, 0
8, 229680, Note_on_c, 3, 51, 123
8, 229920, Note_on_c, 3, 51, 0
8, 229920, Note_on_c, 3, 51, 123
8, 230160, Note_on_c, 3, 51, 0
8, 230160, Note_on_c, 3, 51, 123
8, 230400, Note_on_c, 3, 51, 0
8, 230400, Note_on_c, 3, 46, 123
8, 231840, Note_on_c, 3, 46, 0
8, 232560, Note_on_c, 3, 62, 123
8, 232800, Note_on_c, 3, 62, 0
8, 232800, Note_on_c, 3, 62, 123
8, 233040, Note_on_c, 3, 62, 0
8, 233040, Note_on_c, 3, 62, 123
8, 233280, Note_on_c, 3, 62, 0
8, 233280, Note_on_c, 3, 63, 123
8, 233760, Note_on_c, 3, 63, 0
8, 234480, Note_on_c, 3, 46, 123
8, 234720, Note_on_c, 3, 46, 0
8, 234720, Note_on_c, 3, 46, 123
8, 234960, Note_on_c, 3, 46, 0
8, 234960, Note_on_c, 3, 46, 123
8, 235200, Note_on_c, 3, 46, 0
8, 235200, Note_on_c, 3, 51, 123
8, 235680, Note_on_c, 3, 51, 0
8, 239040, Note_on_c, 3, 67, 123
8, 241920, Note_on_c, 3, 67, 0
8, 242880, Note_on_c, 3, 65, 91
8, 246720, Note_on_c, 3, 65, 0
8, 246720, Note_on_c, 3, 64, 91
8, 250560, Note_on_c, 3, 64, 0
8, 250560, Note_on_c, 3, 65, 91
8, 251520, Note_on_c, 3, 65, 0
8, 251520, Note_on_c, 3, 64, 91
8, 252480, Note_on_c, 3, 64, 0
8, 252480, Note_on_c, 3, 65, 91
8, 253440, Note_on_c, 3, 65, 0
8, 253440, Note_on_c, 3, 64, 91
8, 254400, Note_on_c, 3, 64, 0
8, 254400, Note_on_c, 3, 65, 91
8, 254880, Note_on_c, 3, 65, 0
8, 258240, Note_on_c, 3, 63, 91
8, 259200, Note_on_c, 3, 63, 0
8, 259200, Note_on_c, 3, 62, 91
8, 260160, Note_on_c, 3, 62, 0
8, 260160, Note_on_c, 3, 63, 91
8, 261120, Note_on_c, 3, 63, 0
8, 261120, Note_on_c, 3, 62, 91
8, 262080, Note_on_c, 3, 62, 0
8, 262080, Note_on_c, 3, 63, 91
8, 262560, Note_on_c, 3, 63, 0
8, 263280, Note_on_c, 3, 63, 91
8, 263520, Note_on_c, 3, 63, 0
8, 263520, Note_on_c, 3, 63, 91
8, 263760, Note_on_c, 3, 63, 0
8, 263760, Note_on_c, 3, 62, 91
8, 264000, Note_on_c, 3, 62, 0
8, 264000, Note_on_c, 3, 60, 91
8, 264240, Note_on_c, 3, 60, 0
8, 264240, Note_on_c, 3, 60, 91
8, 264480, Note_on_c, 3, 60, 0
8, 264480, Note_on_c, 3, 60, 91
8, 264720, Note_on_c, 3, 60, 0
8, 264720, Note_on_c, 3, 58, 91
8, 264960, Note_on_c, 3, 58, 0
8, 264960, Note_on_c, 3, 57, 91
8, 265200, Note_on_c, 3, 57, 0
8, 265200, Note_on_c, 3, 62, 91
8, 265440, Note_on_c, 3, 62, 0
8, 265440, Note_on_c, 3, 62, 91
8, 265680, Note_on_c, 3, 62, 0
8, 265680, Note_on_c, 3, 60, 91
8, 265920, Note_on_c, 3, 60, 0
8, 265920, Note_on_c, 3, 58, 91
8, 266880, Note_on_c, 3, 58, 0
8, 266880, Note_on_c, 3, 57, 91
8, 267120, Note_on_c, 3, 57, 0
8, 267120, Note_on_c, 3, 62, 91
8, 267360, Note_on_c, 3, 62, 0
8, 267360, Note_on_c, 3, 62, 91
8, 267600, Note_on_c, 3, 62, 0
8, 267600, Note_on_c, 3, 60, 91
8, 267840, Note_on_c, 3, 60, 0
8, 267840, Note_on_c, 3, 58, 91
8, 268800, Note_on_c, 3, 58, 0
8, 268800, Note_on_c, 3, 57, 91
8, 269760, Note_on_c, 3, 57, 0
8, 269760, Note_on_c, 3, 58, 91
8, 270240, Note_on_c, 3, 58, 0
8, 270960, Note_on_c, 3, 55, 91
8, 271200, Note_on_c, 3, 55, 0
8, 271200, Note_on_c, 3, 57, 91
8, 271440, Note_on_c, 3, 57, 0
8, 271440, Note_on_c, 3, 58, 91
8, 271680, Note_on_c, 3, 58, 0
8, 271680, Note_on_c, 3, 60, 91
8, 272160, Note_on_c, 3, 60, 0
8, 272880, Note_on_c, 3, 54, 91
8, 273120, Note_on_c, 3, 54, 0
8, 273120, Note_on_c, 3, 57, 91
8, 273360, Note_on_c, 3, 57, 0
8, 273360, Note_on_c, 3, 58, 91
8, 273600, Note_on_c, 3, 58, 0
8, 273600, Note_on_c, 3, 60, 91
8, 274080, Note_on_c, 3, 60, 0
8, 274800, Note_on_c, 3, 57, 91
8, 275040, Note_on_c, 3, 57, 0
8, 275040, Note_on_c, 3, 58, 91
8, 275280, Note_on_c, 3, 58, 0
8, 275280, Note_on_c, 3, 60, 91
8, 275520, Note_on_c, 3, 60, 0
8, 275520, Note_on_c, 3, 62, 91
8, 276000, Note_on_c, 3, 62, 0
8, 276720, Note_on_c, 3, 55, 91
8, 276960, Note_on_c, 3, 55, 0
8, 276960, Note_on_c, 3, 58, 91
8, 277200, Note_on_c, 3, 58, 0
8, 277200, Note_on_c, 3, 60, 91
8, 277440, Note_on_c, 3, 60, 0
8, 277440, Note_on_c, 3, 62, 91
8, 277920, Note_on_c, 3, 62, 0
8, 278640, Note_on_c, 3, 58, 91
8, 278880, Note_on_c, 3, 58, 0
8, 278880, Note_on_c, 3, 60, 101
8, 279120, Note_on_c, 3, 60, 0
8, 279120, Note_on_c, 3, 62, 109
8, 279360, Note_on_c, 3, 62, 0
8, 279360, Note_on_c, 3, 57, 115
8, 281280, Note_on_c, 3, 57, 0
8, 281280, Note_on_c, 3, 57, 115
8, 281760, Note_on_c, 3, 57, 0
8, 282480, Note_on_c, 3, 61, 115
8, 282720, Note_on_c, 3, 61, 0
8, 282720, Note_on_c, 3, 61, 115
8, 282960, Note_on_c, 3, 61, 0
8, 282960, Note_on_c, 3, 61, 115
8, 283200, Note_on_c, 3, 61, 0
8, 283200, Note_on_c, 3, 61, 115
8, 285120, Note_on_c, 3, 61, 0
8, 285120, Note_on_c, 3, 61, 115
8, 285600, Note_on_c, 3, 61, 0
8, 286320, Note_on_c, 3, 62, 115
8, 286560, Note_on_c, 3, 62, 0
8, 286560, Note_on_c, 3, 62, 115
8, 286800, Note_on_c, 3, 62, 0
8, 286800, Note_on_c, 3, 62, 115
8, 287040, Note_on_c, 3, 62, 0
8, 287040, Note_on_c, 3, 62, 115
8, 287520, Note_on_c, 3, 62, 0
8, 288480, Note_on_c, 3, 64, 115
8, 288720, Note_on_c, 3, 64, 0
8, 288720, Note_on_c, 3, 64, 115
8, 288960, Note_on_c, 3, 64, 0
8, 288960, Note_on_c, 3, 64, 115
8, 289440, Note_on_c, 3, 64, 0
8, 289440, Note_on_c, 3, 66, 115
8, 289680, Note_on_c, 3, 66, 0
8, 289680, Note_on_c, 3, 66, 115
8, 289920, Note_on_c, 3, 66, 0
8, 289920, Note_on_c, 3, 66, 115
8, 290400, Note_on_c, 3, 66, 0
8, 294240, Note_on_c, 3, 66, 115
8, 294480, Note_on_c, 3, 66, 0
8, 294480, Note_on_c, 3, 66, 115
8, 294720, Note_on_c, 3, 66, 0
8, 294720, Note_on_c, 3, 66, 115
8, 295200, Note_on_c, 3, 66, 0
8, 297120, Note_on_c, 3, 62, 115
8, 297360, Note_on_c, 3, 62, 0
8, 297360, Note_on_c, 3, 62, 115
8, 297600, Note_on_c, 3, 62, 0
8, 297600, Note_on_c, 3, 55, 115
8, 298080, Note_on_c, 3, 55, 0
8, 300960, Note_on_c, 3, 59, 115
8, 301200, Note_on_c, 3, 59, 0
8, 301200, Note_on_c, 3, 59, 115
8, 301440, Note_on_c, 3, 59, 0
8, 301440, Note_on_c, 3, 59, 115
8, 301920, Note_on_c, 3, 59, 0
8, 305520, Note_on_c, 3, 60, 123
8, 305760, Note_on_c, 3, 60, 0
8, 305760, Note_on_c, 3, 60, 123
8, 306000, Note_on_c, 3, 60, 0
8, 306000, Note_on_c, 3, 60, 123
8, 306240, Note_on_c, 3, 60, 0
8, 306240, Note_on_c, 3, 60, 123
8, 307200, Note_on_c, 3, 60, 0
8, 307200, Note_on_c, 3, 61, 123
8, 308160, Note_on_c, 3, 61, 0
8, 310080, Note_on_c, 3, 60, 123
8, 311040, Note_on_c, 3, 60, 0
8, 311040, Note_on_c, 3, 61, 123
8, 312000, Note_on_c, 3, 61, 0
8, 313920, Note_on_c, 3, 60, 123
8, 314880, Note_on_c, 3, 60, 0
8, 314880, Note_on_c, 3, 61, 123
8, 315840, Note_on_c, 3, 61, 0
8, 317760, Note_on_c, 3, 63, 123
8, 318720, Note_on_c, 3, 63, 0
8, 318720, Note_on_c, 3, 65, 123
8, 319680, Note_on_c, 3, 65, 0
8, 320640, Note_on_c, 3, 66, 115
8, 321600, Note_on_c, 3, 66, 0
8, 322560, Note_on_c, 3, 68, 109
8, 323520, Note_on_c, 3, 68, 0
8, 324480, Note_on_c, 3, 69, 101
8, 325440, Note_on_c, 3, 69, 0
8, 326400, Note_on_c, 3, 69, 91
8, 327360, Note_on_c, 3, 69, 0
8, 328320, Note_on_c, 3, 69, 91
8, 329280, Note_on_c, 3, 69, 0
8, 330240, Note_on_c, 3, 69, 78
8, 331200, Note_on_c, 3, 69, 0
8, 332160, Note_on_c, 3, 69, 78
8, 333120, Note_on_c, 3, 69, 0
8, 334080, Note_on_c, 3, 69, 78
8, 335040, Note_on_c, 3, 69, 0
8, 336000, Note_on_c, 3, 69, 78
8, 336960, Note_on_c, 3, 69, 0
8, 337200, Note_on_c, 3, 62, 123
8, 337440, Note_on_c, 3, 62, 0
8, 337440, Note_on_c, 3, 62, 123
8, 337680, Note_on_c, 3, 62, 0
8, 337680, Note_on_c, 3, 62, 123
8, 337920, Note_on_c, 3, 62, 0
8, 337920, Note_on_c, 3, 59, 123
8, 338880, Note_on_c, 3, 59, 0
8, 338880, Note_on_c, 3, 60, 123
8, 339840, Note_on_c, 3, 60, 0
8, 339840, Note_on_c, 3, 57, 123
8, 341760, Note_on_c, 3, 57, 0
8, 341760, Note_on_c, 3, 65, 78
8, 342720, Note_on_c, 3, 65, 0
8, 343680, Note_on_c, 3, 65, 78
8, 344640, Note_on_c, 3, 65, 0
8, 345600, Note_on_c, 3, 65, 78
8, 346560, Note_on_c, 3, 65, 0
8, 347520, Note_on_c, 3, 65, 78
8, 348480, Note_on_c, 3, 65, 0
8, 348720, Note_on_c, 3, 56, 123
8, 348960, Note_on_c, 3, 56, 0
8, 348960, Note_on_c, 3, 56, 123
8, 349200, Note_on_c, 3, 56, 0
8, 349200, Note_on_c, 3, 56, 123
8, 349440, Note_on_c, 3, 56, 0
8, 349440, Note_on_c, 3, 53, 123
8, 350640, Note_on_c, 3, 53, 0
8, 350640, Note_on_c, 3, 56, 123
8, 350880, Note_on_c, 3, 56, 0
8, 350880, Note_on_c, 3, 56, 123
8, 351120, Note_on_c, 3, 56, 0
8, 351120, Note_on_c, 3, 56, 123
8, 351360, Note_on_c, 3, 56, 0
8, 351360, Note_on_c, 3, 53, 123
8, 352560, Note_on_c, 3, 53, 0
8, 352560, Note_on_c, 3, 56, 123
8, 352800, Note_on_c, 3, 56, 0
8, 352800, Note_on_c, 3, 56, 123
8, 353040, Note_on_c, 3, 56, 0
8, 353040, Note_on_c, 3, 56, 123
8, 353280, Note_on_c, 3, 56, 0
8, 353280, Note_on_c, 3, 53, 123
8, 353520, Note_on_c, 3, 53, 0
8, 353520, Note_on_c, 3, 56, 123
8, 353760, Note_on_c, 3, 56, 0
8, 353760, Note_on_c, 3, 56, 123
8, 354000, Note_on_c, 3, 56, 0
8, 354000, Note_on_c, 3, 56, 123
8, 354240, Note_on_c, 3, 56, 0
8, 354240, Note_on_c, 3, 53, 123
8, 354480, Note_on_c, 3, 53, 0
8, 354480, Note_on_c, 3, 56, 123
8, 354720, Note_on_c, 3, 56, 0
8, 354720, Note_on_c, 3, 56, 123
8, 354960, Note_on_c, 3, 56, 0
8, 354960, Note_on_c, 3, 56, 123
8, 355200, Note_on_c, 3, 56, 0
8, 355200, Note_on_c, 3, 53, 123
8, 355440, Note_on_c, 3, 53, 0
8, 355440, Note_on_c, 3, 56, 123
8, 355680, Note_on_c, 3, 56, 0
8, 355680, Note_on_c, 3, 56, 123
8, 355920, Note_on_c, 3, 56, 0
8, 355920, Note_on_c, 3, 56, 123
8, 356160, Note_on_c, 3, 56, 0
8, 356160, Note_on_c, 3, 53, 123
8, 356400, Note_on_c, 3, 53, 0
8, 356400, Note_on_c, 3, 55, 123
8, 356640, Note_on_c, 3, 55, 0
8, 356640, Note_on_c, 3, 55, 123
8, 356880, Note_on_c, 3, 55, 0
8, 356880, Note_on_c, 3, 55, 123
8, 357120, Note_on_c, 3, 55, 0
8, 357120, Note_on_c, 3, 51, 123
8, 358080, Note_on_c, 3, 51, 0
8, 358320, Note_on_c, 3, 53, 123
8, 358560, Note_on_c, 3, 53, 0
8, 358560, Note_on_c, 3, 53, 123
8, 358800, Note_on_c, 3, 53, 0
8, 358800, Note_on_c, 3, 53, 123
8, 359040, Note_on_c, 3, 53, 0
8, 359040, Note_on_c, 3, 50, 123
8, 360960, Note_on_c, 3, 50, 0
8, 361920, Note_on_c, 3, 60, 91
8, 364320, Note_on_c, 3, 60, 0
8, 364320, Note_on_c, 3, 60, 91
8, 364800, Note_on_c, 3, 60, 0
8, 364800, Note_on_c, 3, 63, 91
8, 365280, Note_on_c, 3, 63, 0
8, 365280, Note_on_c, 3, 60, 91
8, 365760, Note_on_c, 3, 60, 0
8, 365760, Note_on_c, 3, 59, 91
8, 368160, Note_on_c, 3, 59, 0
8, 368160, Note_on_c, 3, 55, 91
8, 368640, Note_on_c, 3, 55, 0
8, 368640, Note_on_c, 3, 59, 91
8, 369120, Note_on_c, 3, 59, 0
8, 369120, Note_on_c, 3, 55, 91
8, 369600, Note_on_c, 3, 55, 0
8, 369600, Note_on_c, 3, 60, 91
8, 370560, Note_on_c, 3, 60, 0
8, 370560, Note_on_c, 3, 59, 91
8, 371520, Note_on_c, 3, 59, 0
8, 371520, Note_on_c, 3, 60, 91
8, 372480, Note_on_c, 3, 60, 0
8, 372480, Note_on_c, 3, 55, 91
8, 373440, Note_on_c, 3, 55, 0
8, 373440, Note_on_c, 3, 60, 91
8, 374400, Note_on_c, 3, 60, 0
8, 374400, Note_on_c, 3, 56, 91
8, 375360, Note_on_c, 3, 56, 0
8, 375360, Note_on_c, 3, 55, 115
8, 375840, Note_on_c, 3, 55, 0
8, 384960, Note_on_c, 3, 62, 91
8, 387840, Note_on_c, 3, 62, 0
8, 387840, Note_on_c, 3, 60, 115
8, 388320, Note_on_c, 3, 60, 0
8, 389040, Note_on_c, 3, 68, 115
8, 389280, Note_on_c, 3, 68, 0
8, 389280, Note_on_c, 3, 68, 115
8, 389520, Note_on_c, 3, 68, 0
8, 389520, Note_on_c, 3, 68, 115
8, 389760, Note_on_c, 3, 68, 0
8, 389760, Note_on_c, 3, 68, 115
8, 390240, Note_on_c, 3, 68, 0
8, 390960, Note_on_c, 3, 67, 115
8, 391200, Note_on_c, 3, 67, 0
8, 391200, Note_on_c, 3, 67, 115
8, 391440, Note_on_c, 3, 67, 0
8, 391440, Note_on_c, 3, 67, 115
8, 391680, Note_on_c, 3, 67, 0
8, 391680, Note_on_c, 3, 67, 115
8, 392160, Note_on_c, 3, 67, 0
8, 392640, Note_on_c, 3, 59, 115
8, 393120, Note_on_c, 3, 59, 0
8, 393600, Note_on_c, 3, 58, 115
8, 394080, Note_on_c, 3, 58, 0
8, 394560, Note_on_c, 3, 56, 115
8, 395040, Note_on_c, 3, 56, 0
8, 395520, Note_on_c, 3, 52, 115
8, 396000, Note_on_c, 3, 52, 0
8, 396480, Note_on_c, 3, 53, 115
8, 396960, Note_on_c, 3, 53, 0
8, 397440, Note_on_c, 3, 60, 115
8, 397920, Note_on_c, 3, 60, 0
8, 398400, Note_on_c, 3, 51, 115
8, 402240, Note_on_c, 3, 51, 0
8, 402240, Note_on_c, 3, 50, 115
8, 405600, Note_on_c, 3, 50, 0
8, 405600, Note_on_c, 3, 51, 115
8, 406080, Note_on_c, 3, 51, 0
8, 406080, Note_on_c, 3, 63, 123
8, 409920, Note_on_c, 3, 63, 0
8, 409920, Note_on_c, 3, 63, 123
8, 410400, Note_on_c, 3, 63, 0
8, 411840, Note_on_c, 3, 62, 123
8, 412320, Note_on_c, 3, 62, 0
8, 413040, Note_on_c, 3, 67, 123
8, 413280, Note_on_c, 3, 67, 0
8, 413280, Note_on_c, 3, 67, 123
8, 413520, Note_on_c, 3, 67, 0
8, 413520, Note_on_c, 3, 67, 123
8, 413760, Note_on_c, 3, 67, 0
8, 413760, Note_on_c, 3, 60, 123
8, 414720, Note_on_c, 3, 60, 0
8, 414720, Note_on_c, 3, 62, 123
8, 415680, Note_on_c, 3, 62, 0
8, 415680, Note_on_c, 3, 55, 91
8, 420480, Note_on_c, 3, 55, 0
8, 420480, Note_on_c, 3, 67, 91
8, 421440, Note_on_c, 3, 67, 0
8, 421440, Note_on_c, 3, 65, 91
8, 422400, Note_on_c, 3, 65, 0
8, 422400, Note_on_c, 3, 62, 91
8, 423360, Note_on_c, 3, 62, 0
8, 423360, Note_on_c, 3, 64, 91
8, 424320, Note_on_c, 3, 64, 0
8, 424320, Note_on_c, 3, 55, 91
8, 425280, Note_on_c, 3, 55, 0
8, 425280, Note_on_c, 3, 53, 91
8, 426240, Note_on_c, 3, 53, 0
8, 426240, Note_on_c, 3, 50, 91
8, 427200, Note_on_c, 3, 50, 0
8, 427200, Note_on_c, 3, 52, 91
8, 428160, Note_on_c, 3, 52, 0
8, 428160, Note_on_c, 3, 67, 91
8, 429120, Note_on_c, 3, 67, 0
8, 429120, Note_on_c, 3, 65, 91
8, 430080, Note_on_c, 3, 65, 0
8, 430080, Note_on_c, 3, 62, 91
8, 431040, Note_on_c, 3, 62, 0
8, 431040, Note_on_c, 3, 64, 91
8, 432000, Note_on_c, 3, 64, 0
8, 432000, Note_on_c, 3, 58, 91
8, 432960, Note_on_c, 3, 58, 0
8, 432960, Note_on_c, 3, 55, 91
8, 433920, Note_on_c, 3, 55, 0
8, 433920, Note_on_c, 3, 52, 91
8, 434880, Note_on_c, 3, 52, 0
8, 434880, Note_on_c, 3, 53, 91
8, 435840, Note_on_c, 3, 53, 0
8, 435840, Note_on_c, 3, 60, 91
8, 436800, Note_on_c, 3, 60, 0
8, 436800, Note_on_c, 3, 57, 91
8, 437760, Note_on_c, 3, 57, 0
8, 437760, Note_on_c, 3, 54, 91
8, 438720, Note_on_c, 3, 54, 0
8, 438720, Note_on_c, 3, 55, 91
8, 439680, Note_on_c, 3, 55, 0
8, 439680, Note_on_c, 3, 56, 91
8, 442560, Note_on_c, 3, 56, 0
8, 442560, Note_on_c, 3, 59, 91
8, 444480, Note_on_c, 3, 59, 0
8, 444480, Note_on_c, 3, 62, 91
8, 448320, Note_on_c, 3, 62, 0
8, 448320, Note_on_c, 3, 62, 101
8, 450240, Note_on_c, 3, 62, 0
8, 450240, Note_on_c, 3, 62, 109
8, 454080, Note_on_c, 3, 62, 0
8, 454080, Note_on_c, 3, 65, 123
8, 455520, Note_on_c, 3, 65, 0
8, 455520, Note_on_c, 3, 65, 123
8, 456000, Note_on_c, 3, 65, 0
8, 456000, Note_on_c, 3, 64, 123
8, 456480, Note_on_c, 3, 64, 0
8, 456960, Note_on_c, 3, 65, 123
8, 457440, Note_on_c, 3, 65, 0
8, 457920, Note_on_c, 3, 64, 123
8, 458400, Note_on_c, 3, 64, 0
8, 458880, Note_on_c, 3, 65, 123
8, 459360, Note_on_c, 3, 65, 0
8, 459840, Note_on_c, 3, 67, 123
8, 460320, Note_on_c, 3, 67, 0
8, 460800, Note_on_c, 3, 55, 123
8, 461280, Note_on_c, 3, 55, 0
8, 461760, Note_on_c, 3, 50, 123
8, 463680, Note_on_c, 3, 50, 0
8, 463680, Note_on_c, 3, 52, 123
8, 464160, Note_on_c, 3, 52, 0
8, 464160, Note_on_c, 3, 52, 123
8, 464640, Note_on_c, 3, 52, 0
8, 465120, Note_on_c, 3, 53, 123
8, 465600, Note_on_c, 3, 53, 0
8, 466080, Note_on_c, 3, 55, 123
8, 466560, Note_on_c, 3, 55, 0
8, 467040, Note_on_c, 3, 57, 123
8, 467520, Note_on_c, 3, 57, 0
8, 468000, Note_on_c, 3, 60, 123
8, 468480, Note_on_c, 3, 60, 0
8, 468960, Note_on_c, 3, 59, 123
8, 469440, Note_on_c, 3, 59, 0
8, 469440, Note_on_c, 3, 60, 123
8, 469680, Note_on_c, 3, 60, 0
8, 469680, Note_on_c, 3, 64, 123
8, 469920, Note_on_c, 3, 64, 0
8, 469920, Note_on_c, 3, 64, 123
8, 470160, Note_on_c, 3, 64, 0
8, 470160, Note_on_c, 3, 64, 123
8, 470400, Note_on_c, 3, 64, 0
8, 470400, Note_on_c, 3, 60, 123
8, 470640, Note_on_c, 3, 60, 0
8, 470640, Note_on_c, 3, 67, 123
8, 470880, Note_on_c, 3, 67, 0
8, 470880, Note_on_c, 3, 67, 123
8, 471120, Note_on_c, 3, 67, 0
8, 471120, Note_on_c, 3, 67, 123
8, 471360, Note_on_c, 3, 67, 0
8, 471360, Note_on_c, 3, 64, 123
8, 471600, Note_on_c, 3, 64, 0
8, 471600, Note_on_c, 3, 60, 123
8, 471840, Note_on_c, 3, 60, 0
8, 471840, Note_on_c, 3, 60, 123
8, 472080, Note_on_c, 3, 60, 0
8, 472080, Note_on_c, 3, 60, 123
8, 472320, Note_on_c, 3, 60, 0
8, 472320, Note_on_c, 3, 55, 123
8, 473520, Note_on_c, 3, 55, 0
8, 473520, Note_on_c, 3, 64, 123
8, 473760, Note_on_c, 3, 64, 0
8, 473760, Note_on_c, 3, 64, 123
8, 474000, Note_on_c, 3, 64, 0
8, 474000, Note_on_c, 3, 64, 123
8, 474240, Note_on_c, 3, 64, 0
8, 474240, Note_on_c, 3, 60, 123
8, 474480, Note_on_c, 3, 60, 0
8, 474480, Note_on_c, 3, 67, 123
8, 474720, Note_on_c, 3, 67, 0
8, 474720, Note_on_c, 3, 67, 123
8, 474960, Note_on_c, 3, 67, 0
8, 474960, Note_on_c, 3, 67, 123
8, 475200, Note_on_c, 3, 67, 0
8, 475200, Note_on_c, 3, 64, 123
8, 475440, Note_on_c, 3, 64, 0
8, 475440, Note_on_c, 3, 60, 123
8, 475680, Note_on_c, 3, 60, 0
8, 475680, Note_on_c, 3, 60, 123
8, 475920, Note_on_c, 3, 60, 0
8, 475920, Note_on_c, 3, 60, 123
8, 476160, Note_on_c, 3, 60, 0
8, 476160, Note_on_c, 3, 55, 123
8, 476400, Note_on_c, 3, 55, 0
8, 476400, Note_on_c, 3, 62, 123
8, 476640, Note_on_c, 3, 62, 0
8, 476640, Note_on_c, 3, 62, 123
8, 476880, Note_on_c, 3, 62, 0
8, 476880, Note_on_c, 3, 62, 123
8, 477120, Note_on_c, 3, 62, 0
8, 477120, Note_on_c, 3, 64, 123
8, 477600, Note_on_c, 3, 64, 0
8, 478320, Note_on_c, 3, 62, 123
8, 478560, Note_on_c, 3, 62, 0
8, 478560, Note_on_c, 3, 62, 123
8, 478800, Note_on_c, 3, 62, 0
8, 478800, Note_on_c, 3, 62, 123
8, 479040, Note_on_c, 3, 62, 0
8, 479040, Note_on_c, 3, 64, 123
8, 479520, Note_on_c, 3, 64, 0
8, 480240, Note_on_c, 3, 62, 123
8, 480480, Note_on_c, 3, 62, 0
8, 480480, Note_on_c, 3, 62, 123
8, 480720, Note_on_c, 3, 62, 0
8, 480720, Note_on_c, 3, 62, 123
8, 480960, Note_on_c, 3, 62, 0
8, 480960, Note_on_c, 3, 60, 123
8, 481200, Note_on_c, 3, 60, 0
8, 481200, Note_on_c, 3, 60, 123
8, 481440, Note_on_c, 3, 60, 0
8, 481440, Note_on_c, 3, 60, 123
8, 481680, Note_on_c, 3, 60, 0
8, 481680, Note_on_c, 3, 60, 123
8, 481920, Note_on_c, 3, 60, 0
8, 481920, Note_on_c, 3, 60, 123
8, 483120, Note_on_c, 3, 60, 0
8, 483120, Note_on_c, 3, 60, 123
8, 483360, Note_on_c, 3, 60, 0
8, 483360, Note_on_c, 3, 60, 123
8, 483600, Note_on_c, 3, 60, 0
8, 483600, Note_on_c, 3, 60, 123
8, 483840, Note_on_c, 3, 60, 0
8, 483840, Note_on_c, 3, 60, 123
8, 485040, Note_on_c, 3, 60, 0
8, 485040, Note_on_c, 3, 60, 123
8, 485280, Note_on_c, 3, 60, 0
8, 485280, Note_on_c, 3, 60, 123
8, 485520, Note_on_c, 3, 60, 0
8, 485520, Note_on_c, 3, 60, 123
8, 485760, Note_on_c, 3, 60, 0
8, 485760, Note_on_c, 3, 60, 123
8, 486960, Note_on_c, 3, 60, 0
8, 486960, Note_on_c, 3, 60, 123
8, 487200, Note_on_c, 3, 60, 0
8, 487200, Note_on_c, 3, 60, 123
8, 487440, Note_on_c, 3, 60, 0
8, 487440, Note_on_c, 3, 60, 123
8, 487680, Note_on_c, 3, 60, 0
8, 487680, Note_on_c, 3, 60, 123
8, 487920, Note_on_c, 3, 60, 0
8, 487920, Note_on_c, 3, 56, 123
8, 488160, Note_on_c, 3, 56, 0
8, 488160, Note_on_c, 3, 56, 123
8, 488400, Note_on_c, 3, 56, 0
8, 488400, Note_on_c, 3, 56, 123
8, 488640, Note_on_c, 3, 56, 0
8, 488640, Note_on_c, 3, 56, 123
8, 492480, Note_on_c, 3, 56, 0
8, 492480, Note_on_c, 3, 56, 123
8, 492960, Note_on_c, 3, 56, 0
8, 493680, Note_on_c, 3, 65, 91
8, 493920, Note_on_c, 3, 65, 0
8, 493920, Note_on_c, 3, 65, 91
8, 494160, Note_on_c, 3, 65, 0
8, 494160, Note_on_c, 3, 65, 91
8, 494400, Note_on_c, 3, 65, 0
8, 494400, Note_on_c, 3, 68, 91
8, 494880, Note_on_c, 3, 68, 0
8, 496560, Note_on_c, 3, 57, 123
8, 496800, Note_on_c, 3, 57, 0
8, 496800, Note_on_c, 3, 57, 123
8, 497040, Note_on_c, 3, 57, 0
8, 497040, Note_on_c, 3, 57, 123
8, 497280, Note_on_c, 3, 57, 0
8, 497280, Note_on_c, 3, 57, 123
8, 501120, Note_on_c, 3, 57, 0
8, 501120, Note_on_c, 3, 57, 123
8, 501600, Note_on_c, 3, 57, 0
8, 502320, Note_on_c, 3, 60, 123
8, 502560, Note_on_c, 3, 60, 0
8, 502560, Note_on_c, 3, 60, 123
8, 502800, Note_on_c, 3, 60, 0
8, 502800, Note_on_c, 3, 60, 123
8, 503040, Note_on_c, 3, 60, 0
8, 503040, Note_on_c, 3, 63, 123
8, 503520, Note_on_c, 3, 63, 0
8, 504240, Note_on_c, 3, 67, 115
8, 504480, Note_on_c, 3, 67, 0
8, 504480, Note_on_c, 3, 67, 115
8, 504720, Note_on_c, 3, 67, 0
8, 504720, Note_on_c, 3, 67, 115
8, 504960, Note_on_c, 3, 67, 0
8, 504960, Note_on_c, 3, 63, 115
8, 505920, Note_on_c, 3, 63, 0
8, 505920, Note_on_c, 3, 65, 115
8, 506880, Note_on_c, 3, 65, 0
8, 506880, Note_on_c, 3, 62, 115
8, 508080, Note_on_c, 3, 62, 0
8, 508080, Note_on_c, 3, 67, 115
8, 508320, Note_on_c, 3, 67, 0
8, 508320, Note_on_c, 3, 67, 115
8, 508560, Note_on_c, 3, 67, 0
8, 508560, Note_on_c, 3, 67, 115
8, 508800, Note_on_c, 3, 67, 0
8, 508800, Note_on_c, 3, 63, 115
8, 509760, Note_on_c, 3, 63, 0
8, 509760, Note_on_c, 3, 65, 115
8, 510720, Note_on_c, 3, 65, 0
8, 510720, Note_on_c, 3, 62, 115
8, 511920, Note_on_c, 3, 62, 0
8, 511920, Note_on_c, 3, 67, 115
8, 512160, Note_on_c, 3, 67, 0
8, 512160, Note_on_c, 3, 67, 115
8, 512400, Note_on_c, 3, 67, 0
8, 512400, Note_on_c, 3, 67, 115
8, 512640, Note_on_c, 3, 67, 0
8, 512640, Note_on_c, 3, 63, 115
8, 513120, Note_on_c, 3, 63, 0
8, 513120, Note_on_c, 3, 65, 115
8, 513600, Note_on_c, 3, 65, 0
8, 513600, Note_on_c, 3, 62, 115
8, 514080, Note_on_c, 3, 62, 0
8, 514080, Note_on_c, 3, 63, 115
8, 514560, Note_on_c, 3, 63, 0
8, 514560, Note_on_c, 3, 60, 115
8, 515040, Note_on_c, 3, 60, 0
8, 515040, Note_on_c, 3, 62, 115
8, 515520, Note_on_c, 3, 62, 0
8, 515520, Note_on_c, 3, 58, 115
8, 516000, Note_on_c, 3, 58, 0
8, 516000, Note_on_c, 3, 60, 115
8, 516480, Note_on_c, 3, 60, 0
8, 516480, Note_on_c, 3, 56, 115
8, 516960, Note_on_c, 3, 56, 0
8, 516960, Note_on_c, 3, 58, 115
8, 517440, Note_on_c, 3, 58, 0
8, 517440, Note_on_c, 3, 55, 115
8, 517920, Note_on_c, 3, 55, 0
8, 517920, Note_on_c, 3, 56, 115
8, 518400, Note_on_c, 3, 56, 0
8, 518400, Note_on_c, 3, 53, 115
8, 518880, Note_on_c, 3, 53, 0
8, 518880, Note_on_c, 3, 55, 115
8, 519360, Note_on_c, 3, 55, 0
8, 519360, Note_on_c, 3, 51, 115
8, 519840, Note_on_c, 3, 51, 0
8, 519840, Note_on_c, 3, 53, 115
8, 520320, Note_on_c, 3, 53, 0
8, 520320, Note_on_c, 3, 50, 115
8, 520800, Note_on_c, 3, 50, 0
8, 520800, Note_on_c, 3, 48, 115
8, 521280, Note_on_c, 3, 48, 0
8, 521280, Note_on_c, 3, 47, 115
8, 521760, Note_on_c, 3, 47, 0
8, 521760, Note_on_c, 3, 48, 115
8, 522240, Note_on_c, 3, 48, 0
8, 522240, Note_on_c, 3, 50, 115
8, 522720, Note_on_c, 3, 50, 0
8, 522720, Note_on_c, 3, 48, 115
8, 523200, Note_on_c, 3, 48, 0
8, 523200, Note_on_c, 3, 50, 115
8, 523680, Note_on_c, 3, 50, 0
8, 523680, Note_on_c, 3, 52, 115
8, 524160, Note_on_c, 3, 52, 0
8, 524160, Note_on_c, 3, 53, 115
8, 524640, Note_on_c, 3, 53, 0
8, 524640, Note_on_c, 3, 52, 115
8, 525120, Note_on_c, 3, 52, 0
8, 525120, Note_on_c, 3, 53, 115
8, 525600, Note_on_c, 3, 53, 0
8, 525600, Note_on_c, 3, 55, 115
8, 526080, Note_on_c, 3, 55, 0
8, 526080, Note_on_c, 3, 56, 115
8, 526560, Note_on_c, 3, 56, 0
8, 526560, Note_on_c, 3, 55, 115
8, 527040, Note_on_c, 3, 55, 0
8, 527040, Note_on_c, 3, 57, 115
8, 527520, Note_on_c, 3, 57, 0
8, 527520, Note_on_c, 3, 59, 115
8, 528000, Note_on_c, 3, 59, 0
8, 528000, Note_on_c, 3, 60, 115
8, 529920, Note_on_c, 3, 60, 0
8, 529920, Note_on_c, 3, 56, 115
8, 531840, Note_on_c, 3, 56, 0
8, 531840, Note_on_c, 3, 51, 115
8, 533760, Note_on_c, 3, 51, 0
8, 533760, Note_on_c, 3, 53, 115
8, 534720, Note_on_c, 3, 53, 0
8, 534720, Note_on_c, 3, 51, 115
8, 535680, Note_on_c, 3, 51, 0
8, 535680, Note_on_c, 3, 50, 115
8, 536640, Note_on_c, 3, 50, 0
8, 536640, Note_on_c, 3, 53, 115
8, 537600, Note_on_c, 3, 53, 0
8, 537600, Note_on_c, 3, 51, 115
8, 538080, Note_on_c, 3, 51, 0
8, 538560, Note_on_c, 3, 48, 115
8, 539040, Note_on_c, 3, 48, 0
8, 539520, Note_on_c, 3, 53, 115
8, 540000, Note_on_c, 3, 53, 0
8, 540480, Note_on_c, 3, 50, 115
8, 540960, Note_on_c, 3, 50, 0
8, 541440, Note_on_c, 3, 55, 115
8, 541920, Note_on_c, 3, 55, 0
8, 542400, Note_on_c, 3, 43, 115
8, 542880, Note_on_c, 3, 43, 0
8, 543360, Note_on_c, 3, 60, 123
8, 544320, Note_on_c, 3, 60, 0
8, 544320, Note_on_c, 3, 62, 123
8, 544800, Note_on_c, 3, 62, 0
8, 544800, Note_on_c, 3, 63, 123
8, 545280, Note_on_c, 3, 63, 0
8, 545280, Note_on_c, 3, 65, 123
8, 545760, Note_on_c, 3, 65, 0
8, 545760, Note_on_c, 3, 62, 123
8, 546240, Note_on_c, 3, 62, 0
8, 548160, Note_on_c, 3, 65, 123
8, 548640, Note_on_c, 3, 65, 0
8, 548640, Note_on_c, 3, 67, 123
8, 549120, Note_on_c, 3, 67, 0
8, 549120, Note_on_c, 3, 68, 123
8, 549600, Note_on_c, 3, 68, 0
8, 549600, Note_on_c, 3, 65, 123
8, 550080, Note_on_c, 3, 65, 0
8, 552000, Note_on_c, 3, 60, 123
8, 552480, Note_on_c, 3, 60, 0
8, 552480, Note_on_c, 3, 62, 123
8, 552960, Note_on_c, 3, 62, 0
8, 552960, Note_on_c, 3, 63, 123
8, 553440, Note_on_c, 3, 63, 0
8, 553440, Note_on_c, 3, 60, 123
8, 553920, Note_on_c, 3, 60, 0
8, 555840, Note_on_c, 3, 60, 123
8, 556320, Note_on_c, 3, 60, 0
8, 556320, Note_on_c, 3, 62, 123
8, 556800, Note_on_c, 3, 62, 0
8, 556800, Note_on_c, 3, 63, 123
8, 557280, Note_on_c, 3, 63, 0
8, 557280, Note_on_c, 3, 62, 123
8, 557760, Note_on_c, 3, 62, 0
8, 557760, Note_on_c, 3, 60, 123
8, 558240, Note_on_c, 3, 60, 0
8, 558240, Note_on_c, 3, 58, 123
8, 558720, Note_on_c, 3, 58, 0
8, 558720, Note_on_c, 3, 56, 123
8, 559200, Note_on_c, 3, 56, 0
8, 559200, Note_on_c, 3, 55, 123
8, 559680, Note_on_c, 3, 55, 0
8, 560640, Note_on_c, 3, 56, 123
8, 561120, Note_on_c, 3, 56, 0
8, 561120, Note_on_c, 3, 55, 123
8, 561600, Note_on_c, 3, 55, 0
8, 561600, Note_on_c, 3, 56, 123
8, 562080, Note_on_c, 3, 56, 0
8, 562080, Note_on_c, 3, 55, 123
8, 562560, Note_on_c, 3, 55, 0
8, 563040, Note_on_c, 3, 63, 123
8, 563520, Note_on_c, 3, 63, 0
8, 564000, Note_on_c, 3, 62, 123
8, 564480, Note_on_c, 3, 62, 0
8, 567360, Note_on_c, 3, 56, 123
8, 567840, Note_on_c, 3, 56, 0
8, 567840, Note_on_c, 3, 55, 123
8, 568320, Note_on_c, 3, 55, 0
8, 569280, Note_on_c, 3, 56, 123
8, 569760, Note_on_c, 3, 56, 0
8, 569760, Note_on_c, 3, 55, 123
8, 570240, Note_on_c, 3, 55, 0
8, 570720, Note_on_c, 3, 60, 123
8, 571200, Note_on_c, 3, 60, 0
8, 571680, Note_on_c, 3, 59, 123
8, 572160, Note_on_c, 3, 59, 0
8, 572160, Note_on_c, 3, 60, 123
8, 572640, Note_on_c, 3, 60, 0
8, 573360, Note_on_c, 3, 65, 123
8, 573600, Note_on_c, 3, 65, 0
8, 573600, Note_on_c, 3, 65, 123
8, 573840, Note_on_c, 3, 65, 0
8, 573840, Note_on_c, 3, 65, 123
8, 574080, Note_on_c, 3, 65, 0
8, 574080, Note_on_c, 3, 65, 123
8, 575520, Note_on_c, 3, 65, 0
8, 575520, Note_on_c, 3, 63, 123
8, 576000, Note_on_c, 3, 63, 0
8, 576000, Note_on_c, 3, 62, 123
8, 576480, Note_on_c, 3, 62, 0
8, 576480, Note_on_c, 3, 65, 123
8, 576960, Note_on_c, 3, 65, 0
8, 576960, Note_on_c, 3, 63, 123
8, 577440, Note_on_c, 3, 63, 0
8, 577440, Note_on_c, 3, 62, 123
8, 577920, Note_on_c, 3, 62, 0
8, 577920, Note_on_c, 3, 63, 123
8, 578400, Note_on_c, 3, 63, 0
8, 579120, Note_on_c, 3, 55, 123
8, 579360, Note_on_c, 3, 55, 0
8, 579360, Note_on_c, 3, 55, 123
8, 579600, Note_on_c, 3, 55, 0
8, 579600, Note_on_c, 3, 55, 123
8, 579840, Note_on_c, 3, 55, 0
8, 579840, Note_on_c, 3, 55, 123
8, 580080, Note_on_c, 3, 55, 0
8, 580080, Note_on_c, 3, 55, 123
8, 580320, Note_on_c, 3, 55, 0
8, 580320, Note_on_c, 3, 55, 123
8, 580560, Note_on_c, 3, 55, 0
8, 580560, Note_on_c, 3, 55, 123
8, 580800, Note_on_c, 3, 55, 0
8, 580800, Note_on_c, 3, 55, 123
8, 581040, Note_on_c, 3, 55, 0
8, 581040, Note_on_c, 3, 55, 123
8, 581280, Note_on_c, 3, 55, 0
8, 581280, Note_on_c, 3, 55, 123
8, 581520, Note_on_c, 3, 55, 0
8, 581520, Note_on_c, 3, 55, 123
8, 581760, Note_on_c, 3, 55, 0
8, 581760, Note_on_c, 3, 51, 123
8, 582720, Note_on_c, 3, 51, 0
8, 582960, Note_on_c, 3, 53, 123
8, 583200, Note_on_c, 3, 53, 0
8, 583200, Note_on_c, 3, 53, 123
8, 583440, Note_on_c, 3, 53, 0
8, 583440, Note_on_c, 3, 53, 123
8, 583680, Note_on_c, 3, 53, 0
8, 583680, Note_on_c, 3, 50, 123
8, 585600, Note_on_c, 3, 50, 0
8, 586080, Note_on_c, 3, 67, 91
8, 586560, Note_on_c, 3, 67, 0
8, 586560, Note_on_c, 3, 63, 91
8, 589920, Note_on_c, 3, 63, 0
8, 589920, Note_on_c, 3, 67, 91
8, 590400, Note_on_c, 3, 67, 0
8, 590400, Note_on_c, 3, 63, 91
8, 593520, Note_on_c, 3, 63, 0
8, 593520, Note_on_c, 3, 62, 123
8, 593760, Note_on_c, 3, 62, 0
8, 593760, Note_on_c, 3, 62, 123
8, 594000, Note_on_c, 3, 62, 0
8, 594000, Note_on_c, 3, 62, 123
8, 594240, Note_on_c, 3, 62, 0
8, 594240, Note_on_c, 3, 63, 123
8, 594720, Note_on_c, 3, 63, 0
8, 595440, Note_on_c, 3, 62, 123
8, 595680, Note_on_c, 3, 62, 0
8, 595680, Note_on_c, 3, 62, 123
8, 595920, Note_on_c, 3, 62, 0
8, 595920, Note_on_c, 3, 62, 123
8, 596160, Note_on_c, 3, 62, 0
8, 596160, Note_on_c, 3, 63, 123
8, 596640, Note_on_c, 3, 63, 0
8, 597360, Note_on_c, 3, 62, 123
8, 597600, Note_on_c, 3, 62, 0
8, 597600, Note_on_c, 3, 62, 123
8, 597840, Note_on_c, 3, 62, 0
8, 597840, Note_on_c, 3, 62, 123
8, 598080, Note_on_c, 3, 62, 0
8, 598080, Note_on_c, 3, 63, 123
8, 598560, Note_on_c, 3, 63, 0
8, 598560, Note_on_c, 3, 62, 123
8, 599040, Note_on_c, 3, 62, 0
8, 599040, Note_on_c, 3, 63, 123
8, 599520, Note_on_c, 3, 63, 0
8, 599520, Note_on_c, 3, 62, 123
8, 600000, Note_on_c, 3, 62, 0
8, 600000, Note_on_c, 3, 63, 123
8, 600480, Note_on_c, 3, 63, 0
8, 600480, Note_on_c, 3, 62, 123
8, 600960, Note_on_c, 3, 62, 0
8, 600960, Note_on_c, 3, 63, 123
8, 601440, Note_on_c, 3, 63, 0
8, 601440, Note_on_c, 3, 62, 123
8, 601920, Note_on_c, 3, 62, 0
8, 601920, Note_on_c, 3, 63, 123
8, 602400, Note_on_c, 3, 63, 0
8, 602880, Note_on_c, 3, 59, 123
8, 603360, Note_on_c, 3, 59, 0
8, 603840, Note_on_c, 3, 60, 123
8, 604320, Note_on_c, 3, 60, 0
8, 604320, End_track
9, 0, Start_track
9, 0, MIDI_port, 0
9, 0, Title_t, "Bassoon 2"
9, 5760, Note_on_c, 3, 60, 91
9, 9600, Note_on_c, 3, 60, 0
9, 9600, Note_on_c, 3, 59, 91
9, 13440, Note_on_c, 3, 59, 0
9, 13440, Note_on_c, 3, 60, 91
9, 14400, Note_on_c, 3, 60, 0
9, 14400, Note_on_c, 3, 59, 91
9, 15360, Note_on_c, 3, 59, 0
9, 15360, Note_on_c, 3, 60, 91
9, 16320, Note_on_c, 3, 60, 0
9, 16320, Note_on_c, 3, 59, 91
9, 16560, Note_on_c, 3, 59, 0
9, 16560, Note_on_c, 3, 59, 91
9, 16800, Note_on_c, 3, 59, 0
9, 16800, Note_on_c, 3, 59, 101
9, 17040, Note_on_c, 3, 59, 0
9, 17040, Note_on_c, 3, 59, 109
9, 17280, Note_on_c, 3, 59, 0
9, 17280, Note_on_c, 3, 60, 115
9, 17760, Note_on_c, 3, 60, 0
9, 18240, Note_on_c, 3, 44, 115
9, 18720, Note_on_c, 3, 44, 0
9, 19200, Note_on_c, 3, 43, 115
9, 19680, Note_on_c, 3, 43, 0
9, 20400, Note_on_c, 3, 44, 123
9, 20640, Note_on_c, 3, 44, 0
9, 20640, Note_on_c, 3, 44, 123
9, 20880, Note_on_c, 3, 44, 0
9, 20880, Note_on_c, 3, 44, 123
9, 21120, Note_on_c, 3, 44, 0
9, 21120, Note_on_c, 3, 41, 123
9, 23040, Note_on_c, 3, 41, 0
9, 33600, Note_on_c, 3, 63, 123
9, 35040, Note_on_c, 3, 63, 0
9, 35520, Note_on_c, 3, 59, 123
9, 36000, Note_on_c, 3, 59, 0
9, 36480, Note_on_c, 3, 48, 123
9, 36960, Note_on_c, 3, 48, 0
9, 37440, Note_on_c, 3, 48, 123
9, 37920, Note_on_c, 3, 48, 0
9, 38400, Note_on_c, 3, 48, 123
9, 38880, Note_on_c, 3, 48, 0
9, 39360, Note_on_c, 3, 48, 123
9, 39840, Note_on_c, 3, 48, 0
9, 40320, Note_on_c, 3, 48, 123
9, 40800, Note_on_c, 3, 48, 0
9, 41280, Note_on_c, 3, 48, 115
9, 45120, Note_on_c, 3, 48, 0
9, 45120, Note_on_c, 3, 47, 115
9, 48480, Note_on_c, 3, 47, 0
9, 48480, Note_on_c, 3, 48, 115
9, 48960, Note_on_c, 3, 48, 0
9, 48960, Note_on_c, 3, 51, 123
9, 52800, Note_on_c, 3, 51, 0
9, 52800, Note_on_c, 3, 51, 123
9, 53280, Note_on_c, 3, 51, 0
9, 54720, Note_on_c, 3, 50, 123
9, 55200, Note_on_c, 3, 50, 0
9, 63360, Note_on_c, 3, 55, 91
9, 64320, Note_on_c, 3, 55, 0
9, 64320, Note_on_c, 3, 53, 91
9, 65280, Note_on_c, 3, 53, 0
9, 65280, Note_on_c, 3, 46, 91
9, 66240, Note_on_c, 3, 46, 0
9, 66240, Note_on_c, 3, 51, 91
9, 67200, Note_on_c, 3, 51, 0
9, 67200, Note_on_c, 3, 55, 91
9, 68160, Note_on_c, 3, 55, 0
9, 68160, Note_on_c, 3, 53, 91
9, 69120, Note_on_c, 3, 53, 0
9, 69120, Note_on_c, 3, 46, 91
9, 70080, Note_on_c, 3, 46, 0
9, 70080, Note_on_c, 3, 51, 91
9, 71040, Note_on_c, 3, 51, 0
9, 71040, Note_on_c, 3, 55, 91
9, 72000, Note_on_c, 3, 55, 0
9, 72000, Note_on_c, 3, 52, 91
9, 72960, Note_on_c, 3, 52, 0
9, 72960, Note_on_c, 3, 48, 91
9, 73920, Note_on_c, 3, 48, 0
9, 73920, Note_on_c, 3, 53, 91
9, 74880, Note_on_c, 3, 53, 0
9, 74880, Note_on_c, 3, 56, 91
9, 75840, Note_on_c, 3, 56, 0
9, 75840, Note_on_c, 3, 55, 91
9, 76800, Note_on_c, 3, 55, 0
9, 76800, Note_on_c, 3, 51, 91
9, 77760, Note_on_c, 3, 51, 0
9, 77760, Note_on_c, 3, 56, 91
9, 78720, Note_on_c, 3, 56, 0
9, 78720, Note_on_c, 3, 44, 91
9, 79680, Note_on_c, 3, 44, 0
9, 79680, Note_on_c, 3, 45, 91
9, 81600, Note_on_c, 3, 45, 0
9, 81600, Note_on_c, 3, 46, 91
9, 83520, Note_on_c, 3, 46, 0
9, 83520, Note_on_c, 3, 47, 91
9, 85440, Note_on_c, 3, 47, 0
9, 85440, Note_on_c, 3, 48, 91
9, 87840, Note_on_c, 3, 48, 0
9, 87840, Note_on_c, 3, 48, 109
9, 88320, Note_on_c, 3, 48, 0
9, 88320, Note_on_c, 3, 48, 115
9, 88800, Note_on_c, 3, 48, 0
9, 88800, Note_on_c, 3, 48, 115
9, 89280, Note_on_c, 3, 48, 0
9, 89280, Note_on_c, 3, 50, 123
9, 90720, Note_on_c, 3, 50, 0
9, 90720, Note_on_c, 3, 50, 123
9, 91200, Note_on_c, 3, 50, 0
9, 91200, Note_on_c, 3, 51, 123
9, 91680, Note_on_c, 3, 51, 0
9, 92160, Note_on_c, 3, 53, 123
9, 92640, Note_on_c, 3, 53, 0
9, 93120, Note_on_c, 3, 55, 123
9, 93600, Note_on_c, 3, 55, 0
9, 94080, Note_on_c, 3, 56, 123
9, 94560, Note_on_c, 3, 56, 0
9, 95040, Note_on_c, 3, 58, 123
9, 95520, Note_on_c, 3, 58, 0
9, 96000, Note_on_c, 3, 46, 123
9, 96480, Note_on_c, 3, 46, 0
9, 96960, Note_on_c, 3, 65, 123
9, 98400, Note_on_c, 3, 65, 0
9, 98400, Note_on_c, 3, 58, 123
9, 98880, Note_on_c, 3, 58, 0
9, 98880, Note_on_c, 3, 63, 123
9, 99360, Note_on_c, 3, 63, 0
9, 99360, Note_on_c, 3, 63, 123
9, 99840, Note_on_c, 3, 63, 0
9, 100320, Note_on_c, 3, 58, 123
9, 100800, Note_on_c, 3, 58, 0
9, 101280, Note_on_c, 3, 58, 123
9, 101760, Note_on_c, 3, 58, 0
9, 102240, Note_on_c, 3, 56, 123
9, 102720, Note_on_c, 3, 56, 0
9, 103200, Note_on_c, 3, 55, 123
9, 103680, Note_on_c, 3, 55, 0
9, 104160, Note_on_c, 3, 46, 123
9, 104640, Note_on_c, 3, 46, 0
9, 104640, Note_on_c, 3, 51, 123
9, 104880, Note_on_c, 3, 51, 0
9, 104880, Note_on_c, 3, 67, 123
9, 105120, Note_on_c, 3, 67, 0
9, 105120, Note_on_c, 3, 67, 123
9, 105360, Note_on_c, 3, 67, 0
9, 105360, Note_on_c, 3, 67, 123
9, 105600, Note_on_c, 3, 67, 0
9, 105600, Note_on_c, 3, 63, 123
9, 105840, Note_on_c, 3, 63, 0
9, 105840, Note_on_c, 3, 58, 123
9, 106080, Note_on_c, 3, 58, 0
9, 106080, Note_on_c, 3, 58, 123
9, 106320, Note_on_c, 3, 58, 0
9, 106320, Note_on_c, 3, 58, 123
9, 106560, Note_on_c, 3, 58, 0
9, 106560, Note_on_c, 3, 55, 123
9, 106800, Note_on_c, 3, 55, 0
9, 106800, Note_on_c, 3, 51, 123
9, 107040, Note_on_c, 3, 51, 0
9, 107040, Note_on_c, 3, 51, 123
9, 107280, Note_on_c, 3, 51, 0
9, 107280, Note_on_c, 3, 51, 123
9, 107520, Note_on_c, 3, 51, 0
9, 107520, Note_on_c, 3, 46, 123
9, 108720, Note_on_c, 3, 46, 0
9, 108720, Note_on_c, 3, 67, 123
9, 108960, Note_on_c, 3, 67, 0
9, 108960, Note_on_c, 3, 67, 123
9, 109200, Note_on_c, 3, 67, 0
9, 109200, Note_on_c, 3, 67, 123
9, 109440, Note_on_c, 3, 67, 0
9, 109440, Note_on_c, 3, 63, 123
9, 109680, Note_on_c, 3, 63, 0
9, 109680, Note_on_c, 3, 58, 123
9, 109920, Note_on_c, 3, 58, 0
9, 109920, Note_on_c, 3, 58, 123
9, 110160, Note_on_c, 3, 58, 0
9, 110160, Note_on_c, 3, 58, 123
9, 110400, Note_on_c, 3, 58, 0
9, 110400, Note_on_c, 3, 55, 123
9, 110640, Note_on_c, 3, 55, 0
9, 110640, Note_on_c, 3, 51, 123
9, 110880, Note_on_c, 3, 51, 0
9, 110880, Note_on_c, 3, 51, 123
9, 111120, Note_on_c, 3, 51, 0
9, 111120, Note_on_c, 3, 51, 123
9, 111360, Note_on_c, 3, 51, 0
9, 111360, Note_on_c, 3, 46, 123
9, 112800, Note_on_c, 3, 46, 0
9, 113520, Note_on_c, 3, 58, 123
9, 113760, Note_on_c, 3, 58, 0
9, 113760, Note_on_c, 3, 58, 123
9, 114000, Note_on_c, 3, 58, 0
9, 114000, Note_on_c, 3, 58, 123
9, 114240, Note_on_c, 3, 58, 0
9, 114240, Note_on_c, 3, 58, 123
9, 114720, Note_on_c, 3, 58, 0
9, 115440, Note_on_c, 3, 46, 123
9, 115680, Note_on_c, 3, 46, 0
9, 115680, Note_on_c, 3, 46, 123
9, 115920, Note_on_c, 3, 46, 0
9, 115920, Note_on_c, 3, 46, 123
9, 116160, Note_on_c, 3, 46, 0
9, 116160, Note_on_c, 3, 51, 123
9, 116640, Note_on_c, 3, 51, 0
9, 124800, Note_on_c, 3, 60, 91
9, 128640, Note_on_c, 3, 60, 0
9, 128640, Note_on_c, 3, 59, 91
9, 132480, Note_on_c, 3, 59, 0
9, 132480, Note_on_c, 3, 60, 91
9, 133440, Note_on_c, 3, 60, 0
9, 133440, Note_on_c, 3, 59, 91
9, 134400, Note_on_c, 3, 59, 0
9, 134400, Note_on_c, 3, 60, 91
9, 135360, Note_on_c, 3, 60, 0
9, 135360, Note_on_c, 3, 59, 91
9, 135600, Note_on_c, 3, 59, 0
9, 135600, Note_on_c, 3, 59, 91
9, 135840, Note_on_c, 3, 59, 0
9, 135840, Note_on_c, 3, 59, 101
9, 136080, Note_on_c, 3, 59, 0
9, 136080, Note_on_c, 3, 59, 109
9, 136320, Note_on_c, 3, 59, 0
9, 136320, Note_on_c, 3, 60, 115
9, 136800, Note_on_c, 3, 60, 0
9, 137280, Note_on_c, 3, 44, 115
9, 137760, Note_on_c, 3, 44, 0
9, 138240, Note_on_c, 3, 43, 115
9, 138720, Note_on_c, 3, 43, 0
9, 139440, Note_on_c, 3, 44, 123
9, 139680, Note_on_c, 3, 44, 0
9, 139680, Note_on_c, 3, 44, 123
9, 139920, Note_on_c, 3, 44, 0
9, 139920, Note_on_c, 3, 44, 123
9, 140160, Note_on_c, 3, 44, 0
9, 140160, Note_on_c, 3, 41, 123
9, 142080, Note_on_c, 3, 41, 0
9, 152640, Note_on_c, 3, 63, 123
9, 154080, Note_on_c, 3, 63, 0
9, 154560, Note_on_c, 3, 59, 123
9, 155040, Note_on_c, 3, 59, 0
9, 155520, Note_on_c, 3, 48, 123
9, 156000, Note_on_c, 3, 48, 0
9, 156480, Note_on_c, 3, 48, 123
9, 156960, Note_on_c, 3, 48, 0
9, 157440, Note_on_c, 3, 48, 123
9, 157920, Note_on_c, 3, 48, 0
9, 158400, Note_on_c, 3, 48, 123
9, 158880, Note_on_c, 3, 48, 0
9, 159360, Note_on_c, 3, 48, 123
9, 159840, Note_on_c, 3, 48, 0
9, 160320, Note_on_c, 3, 48, 115
9, 164160, Note_on_c, 3, 48, 0
9, 164160, Note_on_c, 3, 47, 115
9, 167520, Note_on_c, 3, 47, 0
9, 167520, Note_on_c, 3, 48, 115
9, 168000, Note_on_c, 3, 48, 0
9, 168000, Note_on_c, 3, 51, 123
9, 171840, Note_on_c, 3, 51, 0
9, 171840, Note_on_c, 3, 51, 123
9, 172320, Note_on_c, 3, 51, 0
9, 173760, Note_on_c, 3, 50, 123
9, 174240, Note_on_c, 3, 50, 0
9, 182400, Note_on_c, 3, 55, 91
9, 183360, Note_on_c, 3, 55, 0
9, 183360, Note_on_c, 3, 53, 91
9, 184320, Note_on_c, 3, 53, 0
9, 184320, Note_on_c, 3, 46, 91
9, 185280, Note_on_c, 3, 46, 0
9, 185280, Note_on_c, 3, 51, 91
9, 186240, Note_on_c, 3, 51, 0
9, 186240, Note_on_c, 3, 55, 91
9, 187200, Note_on_c, 3, 55, 0
9, 187200, Note_on_c, 3, 53, 91
9, 188160, Note_on_c, 3, 53, 0
9, 188160, Note_on_c, 3, 46, 91
9, 189120, Note_on_c, 3, 46, 0
9, 189120, Note_on_c, 3, 51, 91
9, 190080, Note_on_c, 3, 51, 0
9, 190080, Note_on_c, 3, 55, 91
9, 191040, Note_on_c, 3, 55, 0
9, 191040, Note_on_c, 3, 52, 91
9, 192000, Note_on_c, 3, 52, 0
9, 192000, Note_on_c, 3, 48, 91
9, 192960, Note_on_c, 3, 48, 0
9, 192960, Note_on_c, 3, 53, 91
9, 193920, Note_on_c, 3, 53, 0
9, 193920, Note_on_c, 3, 56, 91
9, 194880, Note_on_c, 3, 56, 0
9, 194880, Note_on_c, 3, 55, 91
9, 195840, Note_on_c, 3, 55, 0
9, 195840, Note_on_c, 3, 51, 91
9, 196800, Note_on_c, 3, 51, 0
9, 196800, Note_on_c, 3, 56, 91
9, 197760, Note_on_c, 3, 56, 0
9, 197760, Note_on_c, 3, 44, 91
9, 198720, Note_on_c, 3, 44, 0
9, 198720, Note_on_c, 3, 45, 91
9, 200640, Note_on_c, 3, 45, 0
9, 200640, Note_on_c, 3, 46, 91
9, 202560, Note_on_c, 3, 46, 0
9, 202560, Note_on_c, 3, 47, 91
9, 204480, Note_on_c, 3, 47, 0
9, 204480, Note_on_c, 3, 48, 91
9, 206880, Note_on_c, 3, 48, 0
9, 206880, Note_on_c, 3, 48, 109
9, 207360, Note_on_c, 3, 48, 0
9, 207360, Note_on_c, 3, 48, 115
9, 207840, Note_on_c, 3, 48, 0
9, 207840, Note_on_c, 3, 48, 115
9, 208320, Note_on_c, 3, 48, 0
9, 208320, Note_on_c, 3, 50, 123
9, 209760, Note_on_c, 3, 50, 0
9, 209760, Note_on_c, 3, 50, 123
9, 210240, Note_on_c, 3, 50, 0
9, 210240, Note_on_c, 3, 51, 123
9, 210720, Note_on_c, 3, 51, 0
9, 211200, Note_on_c, 3, 53, 123
9, 211680, Note_on_c, 3, 53, 0
9, 212160, Note_on_c, 3, 55, 123
9, 212640, Note_on_c, 3, 55, 0
9, 213120, Note_on_c, 3, 56, 123
9, 213600, Note_on_c, 3, 56, 0
9, 214080, Note_on_c, 3, 58, 123
9, 214560, Note_on_c, 3, 58, 0
9, 215040, Note_on_c, 3, 46, 123
9, 215520, Note_on_c, 3, 46, 0
9, 216000, Note_on_c, 3, 65, 123
9, 217440, Note_on_c, 3, 65, 0
9, 217440, Note_on_c, 3, 58, 123
9, 217920, Note_on_c, 3, 58, 0
9, 217920, Note_on_c, 3, 63, 123
9, 218400, Note_on_c, 3, 63, 0
9, 218400, Note_on_c, 3, 63, 123
9, 218880, Note_on_c, 3, 63, 0
9, 219360, Note_on_c, 3, 58, 123
9, 219840, Note_on_c, 3, 58, 0
9, 220320, Note_on_c, 3, 58, 123
9, 220800, Note_on_c, 3, 58, 0
9, 221280, Note_on_c, 3, 56, 123
9, 221760, Note_on_c, 3, 56, 0
9, 222240, Note_on_c, 3, 55, 123
9, 222720, Note_on_c, 3, 55, 0
9, 223200, Note_on_c, 3, 46, 123
9, 223680, Note_on_c, 3, 46, 0
9, 223680, Note_on_c, 3, 51, 123
9, 223920, Note_on_c, 3, 51, 0
9, 223920, Note_on_c, 3, 67, 123
9, 224160, Note_on_c, 3, 67, 0
9, 224160, Note_on_c, 3, 67, 123
9, 224400, Note_on_c, 3, 67, 0
9, 224400, Note_on_c, 3, 67, 123
9, 224640, Note_on_c, 3, 67, 0
9, 224640, Note_on_c, 3, 63, 123
9, 224880, Note_on_c, 3, 63, 0
9, 224880, Note_on_c, 3, 58, 123
9, 225120, Note_on_c, 3, 58, 0
9, 225120, Note_on_c, 3, 58, 123
9, 225360, Note_on_c, 3, 58, 0
9, 225360, Note_on_c, 3, 58, 123
9, 225600, Note_on_c, 3, 58, 0
9, 225600, Note_on_c, 3, 55, 123
9, 225840, Note_on_c, 3, 55, 0
9, 225840, Note_on_c, 3, 51, 123
9, 226080, Note_on_c, 3, 51, 0
9, 226080, Note_on_c, 3, 51, 123
9, 226320, Note_on_c, 3, 51, 0
9, 226320, Note_on_c, 3, 51, 123
9, 226560, Note_on_c, 3, 51, 0
9, 226560, Note_on_c, 3, 46, 123
9, 227760, Note_on_c, 3, 46, 0
9, 227760, Note_on_c, 3, 67, 123
9, 228000, Note_on_c, 3, 67, 0
9, 228000, Note_on_c, 3, 67, 123
9, 228240, Note_on_c, 3, 67, 0
9, 228240, Note_on_c, 3, 67, 123
9, 228480, Note_on_c, 3, 67, 0
9, 228480, Note_on_c, 3, 63, 123
9, 228720, Note_on_c, 3, 63, 0
9, 228720, Note_on_c, 3, 58, 123
9, 228960, Note_on_c, 3, 58, 0
9, 228960, Note_on_c, 3, 58, 123
9, 229200, Note_on_c, 3, 58, 0
9, 229200, Note_on_c, 3, 58, 123
9, 229440, Note_on_c, 3, 58, 0
9, 229440, Note_on_c, 3, 55, 123
9, 229680, Note_on_c, 3, 55, 0
9, 229680, Note_on_c, 3, 51, 123
9, 229920, Note_on_c, 3, 51, 0
9, 229920, Note_on_c, 3, 51, 123
9, 230160, Note_on_c, 3, 51, 0
9, 230160, Note_on_c, 3, 51, 123
9, 230400, Note_on_c, 3, 51, 0
9, 230400, Note_on_c, 3, 46, 123
9, 231840, Note_on_c, 3, 46, 0
9, 232560, Note_on_c, 3, 58, 123
9, 232800, Note_on_c, 3, 58, 0
9, 232800, Note_on_c, 3, 58, 123
9, 233040, Note_on_c, 3, 58, 0
9, 233040, Note_on_c, 3, 58, 123
9, 233280, Note_on_c, 3, 58, 0
9, 233280, Note_on_c, 3, 58, 123
9, 233760, Note_on_c, 3, 58, 0
9, 234480, Note_on_c, 3, 46, 123
9, 234720, Note_on_c, 3, 46, 0
9, 234720, Note_on_c, 3, 46, 123
9, 234960, Note_on_c, 3, 46, 0
9, 234960, Note_on_c, 3, 46, 123
9, 235200, Note_on_c, 3, 46, 0
9, 235200, Note_on_c, 3, 51, 123
9, 235680, Note_on_c, 3, 51, 0
9, 239040, Note_on_c, 3, 67, 123
9, 241920, Note_on_c, 3, 67, 0
9, 242880, Note_on_c, 3, 53, 91
9, 246720, Note_on_c, 3, 53, 0
9, 246720, Note_on_c, 3, 52, 91
9, 250560, Note_on_c, 3, 52, 0
9, 250560, Note_on_c, 3, 53, 91
9, 251520, Note_on_c, 3, 53, 0
9, 251520, Note_on_c, 3, 52, 91
9, 252480, Note_on_c, 3, 52, 0
9, 252480, Note_on_c, 3, 53, 91
9, 253440, Note_on_c, 3, 53, 0
9, 253440, Note_on_c, 3, 52, 91
9, 254400, Note_on_c, 3, 52, 0
9, 254400, Note_on_c, 3, 53, 91
9, 254880, Note_on_c, 3, 53, 0
9, 258240, Note_on_c, 3, 60, 91
9, 259200, Note_on_c, 3, 60, 0
9, 259200, Note_on_c, 3, 59, 91
9, 260160, Note_on_c, 3, 59, 0
9, 260160, Note_on_c, 3, 60, 91
9, 261120, Note_on_c, 3, 60, 0
9, 261120, Note_on_c, 3, 59, 91
9, 262080, Note_on_c, 3, 59, 0
9, 262080, Note_on_c, 3, 60, 91
9, 262560, Note_on_c, 3, 60, 0
9, 263280, Note_on_c, 3, 63, 91
9, 263520, Note_on_c, 3, 63, 0
9, 263520, Note_on_c, 3, 63, 91
9, 263760, Note_on_c, 3, 63, 0
9, 263760, Note_on_c, 3, 62, 91
9, 264000, Note_on_c, 3, 62, 0
9, 264000, Note_on_c, 3, 60, 91
9, 264240, Note_on_c, 3, 60, 0
9, 264240, Note_on_c, 3, 60, 91
9, 264480, Note_on_c, 3, 60, 0
9, 264480, Note_on_c, 3, 60, 91
9, 264720, Note_on_c, 3, 60, 0
9, 264720, Note_on_c, 3, 58, 91
9, 264960, Note_on_c, 3, 58, 0
9, 264960, Note_on_c, 3, 57, 91
9, 265200, Note_on_c, 3, 57, 0
9, 265200, Note_on_c, 3, 54, 91
9, 265440, Note_on_c, 3, 54, 0
9, 265440, Note_on_c, 3, 54, 91
9, 265680, Note_on_c, 3, 54, 0
9, 265680, Note_on_c, 3, 57, 91
9, 265920, Note_on_c, 3, 57, 0
9, 265920, Note_on_c, 3, 55, 91
9, 266880, Note_on_c, 3, 55, 0
9, 266880, Note_on_c, 3, 54, 91
9, 267120, Note_on_c, 3, 54, 0
9, 267120, Note_on_c, 3, 54, 91
9, 267360, Note_on_c, 3, 54, 0
9, 267360, Note_on_c, 3, 54, 91
9, 267600, Note_on_c, 3, 54, 0
9, 267600, Note_on_c, 3, 57, 91
9, 267840, Note_on_c, 3, 57, 0
9, 267840, Note_on_c, 3, 55, 91
9, 268800, Note_on_c, 3, 55, 0
9, 268800, Note_on_c, 3, 54, 91
9, 269760, Note_on_c, 3, 54, 0
9, 269760, Note_on_c, 3, 55, 91
9, 270240, Note_on_c, 3, 55, 0
9, 270720, Note_on_c, 3, 43, 91
9, 270960, Note_on_c, 3, 43, 0
9, 270960, Note_on_c, 3, 43, 91
9, 271200, Note_on_c, 3, 43, 0
9, 271200, Note_on_c, 3, 43, 91
9, 271440, Note_on_c, 3, 43, 0
9, 271440, Note_on_c, 3, 43, 91
9, 271680, Note_on_c, 3, 43, 0
9, 271680, Note_on_c, 3, 45, 91
9, 272880, Note_on_c, 3, 45, 0
9, 272880, Note_on_c, 3, 45, 91
9, 273120, Note_on_c, 3, 45, 0
9, 273120, Note_on_c, 3, 45, 91
9, 273360, Note_on_c, 3, 45, 0
9, 273360, Note_on_c, 3, 45, 91
9, 273600, Note_on_c, 3, 45, 0
9, 273600, Note_on_c, 3, 45, 91
9, 274800, Note_on_c, 3, 45, 0
9, 274800, Note_on_c, 3, 45, 91
9, 275040, Note_on_c, 3, 45, 0
9, 275040, Note_on_c, 3, 45, 91
9, 275280, Note_on_c, 3, 45, 0
9, 275280, Note_on_c, 3, 45, 91
9, 275520, Note_on_c, 3, 45, 0
9, 275520, Note_on_c, 3, 46, 91
9, 276720, Note_on_c, 3, 46, 0
9, 276720, Note_on_c, 3, 46, 91
9, 276960, Note_on_c, 3, 46, 0
9, 276960, Note_on_c, 3, 46, 91
9, 277200, Note_on_c, 3, 46, 0
9, 277200, Note_on_c, 3, 46, 91
9, 277440, Note_on_c, 3, 46, 0
9, 277440, Note_on_c, 3, 46, 91
9, 278400, Note_on_c, 3, 46, 0
9, 278640, Note_on_c, 3, 55, 91
9, 278880, Note_on_c, 3, 55, 0
9, 278880, Note_on_c, 3, 57, 101
9, 279120, Note_on_c, 3, 57, 0
9, 279120, Note_on_c, 3, 58, 109
9, 279360, Note_on_c, 3, 58, 0
9, 279360, Note_on_c, 3, 54, 115
9, 281280, Note_on_c, 3, 54, 0
9, 281280, Note_on_c, 3, 54, 115
9, 281760, Note_on_c, 3, 54, 0
9, 282480, Note_on_c, 3, 49, 115
9, 282720, Note_on_c, 3, 49, 0
9, 282720, Note_on_c, 3, 49, 115
9, 282960, Note_on_c, 3, 49, 0
9, 282960, Note_on_c, 3, 49, 115
9, 283200, Note_on_c, 3, 49, 0
9, 283200, Note_on_c, 3, 49, 115
9, 285120, Note_on_c, 3, 49, 0
9, 285120, Note_on_c, 3, 61, 115
9, 285600, Note_on_c, 3, 61, 0
9, 286320, Note_on_c, 3, 50, 115
9, 286560, Note_on_c, 3, 50, 0
9, 286560, Note_on_c, 3, 50, 115
9, 286800, Note_on_c, 3, 50, 0
9, 286800, Note_on_c, 3, 50, 115
9, 287040, Note_on_c, 3, 50, 0
9, 287040, Note_on_c, 3, 50, 115
9, 287520, Note_on_c, 3, 50, 0
9, 288480, Note_on_c, 3, 52, 115
9, 288720, Note_on_c, 3, 52, 0
9, 288720, Note_on_c, 3, 52, 115
9, 288960, Note_on_c, 3, 52, 0
9, 288960, Note_on_c, 3, 52, 115
9, 289440, Note_on_c, 3, 52, 0
9, 289440, Note_on_c, 3, 54, 115
9, 289680, Note_on_c, 3, 54, 0
9, 289680, Note_on_c, 3, 54, 115
9, 289920, Note_on_c, 3, 54, 0
9, 289920, Note_on_c, 3, 54, 115
9, 290400, Note_on_c, 3, 54, 0
9, 294240, Note_on_c, 3, 66, 115
9, 294480, Note_on_c, 3, 66, 0
9, 294480, Note_on_c, 3, 66, 115
9, 294720, Note_on_c, 3, 66, 0
9, 294720, Note_on_c, 3, 66, 115
9, 295200, Note_on_c, 3, 66, 0
9, 297120, Note_on_c, 3, 50, 115
9, 297360, Note_on_c, 3, 50, 0
9, 297360, Note_on_c, 3, 50, 115
9, 297600, Note_on_c, 3, 50, 0
9, 297600, Note_on_c, 3, 43, 115
9, 298080, Note_on_c, 3, 43, 0
9, 300960, Note_on_c, 3, 59, 115
9, 301200, Note_on_c, 3, 59, 0
9, 301200, Note_on_c, 3, 59, 115
9, 301440, Note_on_c, 3, 59, 0
9, 301440, Note_on_c, 3, 59, 115
9, 301920, Note_on_c, 3, 59, 0
9, 305520, Note_on_c, 3, 60, 123
9, 305760, Note_on_c, 3, 60, 0
9, 305760, Note_on_c, 3, 60, 123
9, 306000, Note_on_c, 3, 60, 0
9, 306000, Note_on_c, 3, 60, 123
9, 306240, Note_on_c, 3, 60, 0
9, 306240, Note_on_c, 3, 56, 123
9, 307200, Note_on_c, 3, 56, 0
9, 307200, Note_on_c, 3, 58, 123
9, 308160, Note_on_c, 3, 58, 0
9, 310080, Note_on_c, 3, 56, 123
9, 311040, Note_on_c, 3, 56, 0
9, 311040, Note_on_c, 3, 58, 123
9, 312000, Note_on_c, 3, 58, 0
9, 313920, Note_on_c, 3, 56, 123
9, 314880, Note_on_c, 3, 56, 0
9, 314880, Note_on_c, 3, 58, 123
9, 315840, Note_on_c, 3, 58, 0
9, 317760, Note_on_c, 3, 60, 123
9, 318720, Note_on_c, 3, 60, 0
9, 318720, Note_on_c, 3, 61, 123
9, 319680, Note_on_c, 3, 61, 0
9, 320640, Note_on_c, 3, 63, 115
9, 321600, Note_on_c, 3, 63, 0
9, 322560, Note_on_c, 3, 65, 109
9, 323520, Note_on_c, 3, 65, 0
9, 324480, Note_on_c, 3, 66, 101
9, 325440, Note_on_c, 3, 66, 0
9, 326400, Note_on_c, 3, 66, 91
9, 327360, Note_on_c, 3, 66, 0
9, 328320, Note_on_c, 3, 66, 91
9, 329280, Note_on_c, 3, 66, 0
9, 330240, Note_on_c, 3, 66, 78
9, 331200, Note_on_c, 3, 66, 0
9, 332160, Note_on_c, 3, 66, 78
9, 333120, Note_on_c, 3, 66, 0
9, 334080, Note_on_c, 3, 66, 78
9, 335040, Note_on_c, 3, 66, 0
9, 336000, Note_on_c, 3, 66, 78
9, 336960, Note_on_c, 3, 66, 0
9, 337200, Note_on_c, 3, 50, 123
9, 337440, Note_on_c, 3, 50, 0
9, 337440, Note_on_c, 3, 50, 123
9, 337680, Note_on_c, 3, 50, 0
9, 337680, Note_on_c, 3, 50, 123
9, 337920, Note_on_c, 3, 50, 0
9, 337920, Note_on_c, 3, 47, 123
9, 338880, Note_on_c, 3, 47, 0
9, 338880, Note_on_c, 3, 48, 123
9, 339840, Note_on_c, 3, 48, 0
9, 339840, Note_on_c, 3, 45, 123
9, 341760, Note_on_c, 3, 45, 0
9, 341760, Note_on_c, 3, 59, 78
9, 342720, Note_on_c, 3, 59, 0
9, 343680, Note_on_c, 3, 59, 78
9, 344640, Note_on_c, 3, 59, 0
9, 345600, Note_on_c, 3, 59, 78
9, 346560, Note_on_c, 3, 59, 0
9, 347520, Note_on_c, 3, 59, 78
9, 348480, Note_on_c, 3, 59, 0
9, 348720, Note_on_c, 3, 44, 123
9, 348960, Note_on_c, 3, 44, 0
9, 348960, Note_on_c, 3, 44, 123
9, 349200, Note_on_c, 3, 44, 0
9, 349200, Note_on_c, 3, 44, 123
9, 349440, Note_on_c, 3, 44, 0
9, 349440, Note_on_c, 3, 41, 123
9, 350640, Note_on_c, 3, 41, 0
9, 350640, Note_on_c, 3, 44, 123
9, 350880, Note_on_c, 3, 44, 0
9, 350880, Note_on_c, 3, 44, 123
9, 351120, Note_on_c, 3, 44, 0
9, 351120, Note_on_c, 3, 44, 123
9, 351360, Note_on_c, 3, 44, 0
9, 351360, Note_on_c, 3, 41, 123
9, 352560, Note_on_c, 3, 41, 0
9, 352560, Note_on_c, 3, 44, 123
9, 352800, Note_on_c, 3, 44, 0
9, 352800, Note_on_c, 3, 44, 123
9, 353040, Note_on_c, 3, 44, 0
9, 353040, Note_on_c, 3, 44, 123
9, 353280, Note_on_c, 3, 44, 0
9, 353280, Note_on_c, 3, 41, 123
9, 353520, Note_on_c, 3, 41, 0
9, 353520, Note_on_c, 3, 44, 123
9, 353760, Note_on_c, 3, 44, 0
9, 353760, Note_on_c, 3, 44, 123
9, 354000, Note_on_c, 3, 44, 0
9, 354000, Note_on_c, 3, 44, 123
9, 354240, Note_on_c, 3, 44, 0
9, 354240, Note_on_c, 3, 41, 123
9, 354480, Note_on_c, 3, 41, 0
9, 354480, Note_on_c, 3, 44, 123
9, 354720, Note_on_c, 3, 44, 0
9, 354720, Note_on_c, 3, 44, 123
9, 354960, Note_on_c, 3, 44, 0
9, 354960, Note_on_c, 3, 44, 123
9, 355200, Note_on_c, 3, 44, 0
9, 355200, Note_on_c, 3, 41, 123
9, 355440, Note_on_c, 3, 41, 0
9, 355440, Note_on_c, 3, 44, 123
9, 355680, Note_on_c, 3, 44, 0
9, 355680, Note_on_c, 3, 44, 123
9, 355920, Note_on_c, 3, 44, 0
9, 355920, Note_on_c, 3, 44, 123
9, 356160, Note_on_c, 3, 44, 0
9, 356160, Note_on_c, 3, 41, 123
9, 356400, Note_on_c, 3, 41, 0
9, 356400, Note_on_c, 3, 43, 123
9, 356640, Note_on_c, 3, 43, 0
9, 356640, Note_on_c, 3, 43, 123
9, 356880, Note_on_c, 3, 43, 0
9, 356880, Note_on_c, 3, 43, 123
9, 357120, Note_on_c, 3, 43, 0
9, 357120, Note_on_c, 3, 39, 123
9, 358080, Note_on_c, 3, 39, 0
9, 358320, Note_on_c, 3, 41, 123
9, 358560, Note_on_c, 3, 41, 0
9, 358560, Note_on_c, 3, 41, 123
9, 358800, Note_on_c, 3, 41, 0
9, 358800, Note_on_c, 3, 41, 123
9, 359040, Note_on_c, 3, 41, 0
9, 359040, Note_on_c, 3, 38, 123
9, 360960, Note_on_c, 3, 38, 0
9, 361920, Note_on_c, 3, 48, 91
9, 364320, Note_on_c, 3, 48, 0
9, 364320, Note_on_c, 3, 48, 91
9, 364800, Note_on_c, 3, 48, 0
9, 364800, Note_on_c, 3, 51, 91
9, 365280, Note_on_c, 3, 51, 0
9, 365280, Note_on_c, 3, 48, 91
9, 365760, Note_on_c, 3, 48, 0
9, 365760, Note_on_c, 3, 47, 91
9, 368160, Note_on_c, 3, 47, 0
9, 368160, Note_on_c, 3, 43, 91
9, 368640, Note_on_c, 3, 43, 0
9, 368640, Note_on_c, 3, 47, 91
9, 369120, Note_on_c, 3, 47, 0
9, 369120, Note_on_c, 3, 43, 91
9, 369600, Note_on_c, 3, 43, 0
9, 369600, Note_on_c, 3, 48, 91
9, 370560, Note_on_c, 3, 48, 0
9, 370560, Note_on_c, 3, 47, 91
9, 371520, Note_on_c, 3, 47, 0
9, 371520, Note_on_c, 3, 48, 91
9, 372480, Note_on_c, 3, 48, 0
9, 372480, Note_on_c, 3, 43, 91
9, 373440, Note_on_c, 3, 43, 0
9, 373440, Note_on_c, 3, 48, 91
9, 374400, Note_on_c, 3, 48, 0
9, 374400, Note_on_c, 3, 44, 91
9, 375360, Note_on_c, 3, 44, 0
9, 375360, Note_on_c, 3, 43, 115
9, 375840, Note_on_c, 3, 43, 0
9, 384960, Note_on_c, 3, 62, 91
9, 387840, Note_on_c, 3, 62, 0
9, 387840, Note_on_c, 3, 60, 115
9, 388320, Note_on_c, 3, 60, 0
9, 389040, Note_on_c, 3, 65, 115
9, 389280, Note_on_c, 3, 65, 0
9, 389280, Note_on_c, 3, 65, 115
9, 389520, Note_on_c, 3, 65, 0
9, 389520, Note_on_c, 3, 65, 115
9, 389760, Note_on_c, 3, 65, 0
9, 389760, Note_on_c, 3, 65, 115
9, 390240, Note_on_c, 3, 65, 0
9, 390960, Note_on_c, 3, 63, 115
9, 391200, Note_on_c, 3, 63, 0
9, 391200, Note_on_c, 3, 63, 115
9, 391440, Note_on_c, 3, 63, 0
9, 391440, Note_on_c, 3, 63, 115
9, 391680, Note_on_c, 3, 63, 0
9, 391680, Note_on_c, 3, 63, 115
9, 392160, Note_on_c, 3, 63, 0
9, 392640, Note_on_c, 3, 59, 115
9, 393120, Note_on_c, 3, 59, 0
9, 393600, Note_on_c, 3, 48, 115
9, 394080, Note_on_c, 3, 48, 0
9, 394560, Note_on_c, 3, 48, 115
9, 395040, Note_on_c, 3, 48, 0
9, 395520, Note_on_c, 3, 48, 115
9, 396000, Note_on_c, 3, 48, 0
9, 396480, Note_on_c, 3, 48, 115
9, 396960, Note_on_c, 3, 48, 0
9, 397440, Note_on_c, 3, 48, 115
9, 397920, Note_on_c, 3, 48, 0
9, 398400, Note_on_c, 3, 48, 115
9, 402240, Note_on_c, 3, 48, 0
9, 402240, Note_on_c, 3, 47, 115
9, 405600, Note_on_c, 3, 47, 0
9, 405600, Note_on_c, 3, 48, 115
9, 406080, Note_on_c, 3, 48, 0
9, 406080, Note_on_c, 3, 60, 123
9, 409920, Note_on_c, 3, 60, 0
9, 409920, Note_on_c, 3, 60, 123
9, 410400, Note_on_c, 3, 60, 0
9, 411840, Note_on_c, 3, 59, 123
9, 412320, Note_on_c, 3, 59, 0
9, 413040, Note_on_c, 3, 67, 123
9, 413280, Note_on_c, 3, 67, 0
9, 413280, Note_on_c, 3, 67, 123
9, 413520, Note_on_c, 3, 67, 0
9, 413520, Note_on_c, 3, 67, 123
9, 413760, Note_on_c, 3, 67, 0
9, 413760, Note_on_c, 3, 60, 123
9, 414720, Note_on_c, 3, 60, 0
9, 414720, Note_on_c, 3, 62, 123
9, 415680, Note_on_c, 3, 62, 0
9, 415680, Note_on_c, 3, 55, 91
9, 420480, Note_on_c, 3, 55, 0
9, 420480, Note_on_c, 3, 64, 91
9, 421440, Note_on_c, 3, 64, 0
9, 421440, Note_on_c, 3, 62, 91
9, 422400, Note_on_c, 3, 62, 0
9, 422400, Note_on_c, 3, 55, 91
9, 423360, Note_on_c, 3, 55, 0
9, 423360, Note_on_c, 3, 60, 91
9, 424320, Note_on_c, 3, 60, 0
9, 424320, Note_on_c, 3, 52, 91
9, 425280, Note_on_c, 3, 52, 0
9, 425280, Note_on_c, 3, 50, 91
9, 426240, Note_on_c, 3, 50, 0
9, 426240, Note_on_c, 3, 43, 91
9, 427200, Note_on_c, 3, 43, 0
9, 427200, Note_on_c, 3, 48, 91
9, 428160, Note_on_c, 3, 48, 0
9, 428160, Note_on_c, 3, 64, 91
9, 429120, Note_on_c, 3, 64, 0
9, 429120, Note_on_c, 3, 62, 91
9, 430080, Note_on_c, 3, 62, 0
9, 430080, Note_on_c, 3, 55, 91
9, 431040, Note_on_c, 3, 55, 0
9, 431040, Note_on_c, 3, 60, 91
9, 432000, Note_on_c, 3, 60, 0
9, 432000, Note_on_c, 3, 55, 91
9, 432960, Note_on_c, 3, 55, 0
9, 432960, Note_on_c, 3, 52, 91
9, 433920, Note_on_c, 3, 52, 0
9, 433920, Note_on_c, 3, 48, 91
9, 434880, Note_on_c, 3, 48, 0
9, 434880, Note_on_c, 3, 53, 91
9, 435840, Note_on_c, 3, 53, 0
9, 435840, Note_on_c, 3, 57, 91
9, 436800, Note_on_c, 3, 57, 0
9, 436800, Note_on_c, 3, 54, 91
9, 437760, Note_on_c, 3, 54, 0
9, 437760, Note_on_c, 3, 50, 91
9, 438720, Note_on_c, 3, 50, 0
9, 438720, Note_on_c, 3, 55, 91
9, 439680, Note_on_c, 3, 55, 0
9, 439680, Note_on_c, 3, 44, 91
9, 442560, Note_on_c, 3, 44, 0
9, 442560, Note_on_c, 3, 47, 91
9, 444480, Note_on_c, 3, 47, 0
9, 444480, Note_on_c, 3, 50, 91
9, 448320, Note_on_c, 3, 50, 0
9, 448320, Note_on_c, 3, 50, 101
9, 450240, Note_on_c, 3, 50, 0
9, 450240, Note_on_c, 3, 50, 109
9, 454080, Note_on_c, 3, 50, 0
9, 454080, Note_on_c, 3, 62, 123
9, 455520, Note_on_c, 3, 62, 0
9, 455520, Note_on_c, 3, 59, 123
9, 456000, Note_on_c, 3, 59, 0
9, 456000, Note_on_c, 3, 60, 123
9, 456480, Note_on_c, 3, 60, 0
9, 456960, Note_on_c, 3, 59, 123
9, 457440, Note_on_c, 3, 59, 0
9, 457920, Note_on_c, 3, 60, 123
9, 458400, Note_on_c, 3, 60, 0
9, 458880, Note_on_c, 3, 53, 123
9, 459360, Note_on_c, 3, 53, 0
9, 459840, Note_on_c, 3, 55, 123
9, 460320, Note_on_c, 3, 55, 0
9, 460800, Note_on_c, 3, 43, 123
9, 461280, Note_on_c, 3, 43, 0
9, 461760, Note_on_c, 3, 47, 123
9, 463680, Note_on_c, 3, 47, 0
9, 463680, Note_on_c, 3, 48, 123
9, 464160, Note_on_c, 3, 48, 0
9, 464160, Note_on_c, 3, 48, 123
9, 464640, Note_on_c, 3, 48, 0
9, 465120, Note_on_c, 3, 50, 123
9, 465600, Note_on_c, 3, 50, 0
9, 466080, Note_on_c, 3, 52, 123
9, 466560, Note_on_c, 3, 52, 0
9, 467040, Note_on_c, 3, 53, 123
9, 467520, Note_on_c, 3, 53, 0
9, 468000, Note_on_c, 3, 55, 123
9, 468480, Note_on_c, 3, 55, 0
9, 468960, Note_on_c, 3, 55, 123
9, 469440, Note_on_c, 3, 55, 0
9, 469440, Note_on_c, 3, 55, 123
9, 469680, Note_on_c, 3, 55, 0
9, 469680, Note_on_c, 3, 52, 123
9, 469920, Note_on_c, 3, 52, 0
9, 469920, Note_on_c, 3, 52, 123
9, 470160, Note_on_c, 3, 52, 0
9, 470160, Note_on_c, 3, 52, 123
9, 470400, Note_on_c, 3, 52, 0
9, 470400, Note_on_c, 3, 48, 123
9, 470640, Note_on_c, 3, 48, 0
9, 470640, Note_on_c, 3, 55, 123
9, 470880, Note_on_c, 3, 55, 0
9, 470880, Note_on_c, 3, 55, 123
9, 471120, Note_on_c, 3, 55, 0
9, 471120, Note_on_c, 3, 55, 123
9, 471360, Note_on_c, 3, 55, 0
9, 471360, Note_on_c, 3, 52, 123
9, 471600, Note_on_c, 3, 52, 0
9, 471600, Note_on_c, 3, 48, 123
9, 471840, Note_on_c, 3, 48, 0
9, 471840, Note_on_c, 3, 48, 123
9, 472080, Note_on_c, 3, 48, 0
9, 472080, Note_on_c, 3, 48, 123
9, 472320, Note_on_c, 3, 48, 0
9, 472320, Note_on_c, 3, 43, 123
9, 473520, Note_on_c, 3, 43, 0
9, 473520, Note_on_c, 3, 64, 123
9, 473760, Note_on_c, 3, 64, 0
9, 473760, Note_on_c, 3, 64, 123
9, 474000, Note_on_c, 3, 64, 0
9, 474000, Note_on_c, 3, 64, 123
9, 474240, Note_on_c, 3, 64, 0
9, 474240, Note_on_c, 3, 60, 123
9, 474480, Note_on_c, 3, 60, 0
9, 474480, Note_on_c, 3, 55, 123
9, 474720, Note_on_c, 3, 55, 0
9, 474720, Note_on_c, 3, 55, 123
9, 474960, Note_on_c, 3, 55, 0
9, 474960, Note_on_c, 3, 55, 123
9, 475200, Note_on_c, 3, 55, 0
9, 475200, Note_on_c, 3, 52, 123
9, 475440, Note_on_c, 3, 52, 0
9, 475440, Note_on_c, 3, 48, 123
9, 475680, Note_on_c, 3, 48, 0
9, 475680, Note_on_c, 3, 48, 123
9, 475920, Note_on_c, 3, 48, 0
9, 475920, Note_on_c, 3, 48, 123
9, 476160, Note_on_c, 3, 48, 0
9, 476160, Note_on_c, 3, 43, 123
9, 476400, Note_on_c, 3, 43, 0
9, 476400, Note_on_c, 3, 59, 123
9, 476640, Note_on_c, 3, 59, 0
9, 476640, Note_on_c, 3, 59, 123
9, 476880, Note_on_c, 3, 59, 0
9, 476880, Note_on_c, 3, 59, 123
9, 477120, Note_on_c, 3, 59, 0
9, 477120, Note_on_c, 3, 60, 123
9, 477600, Note_on_c, 3, 60, 0
9, 478320, Note_on_c, 3, 59, 123
9, 478560, Note_on_c, 3, 59, 0
9, 478560, Note_on_c, 3, 59, 123
9, 478800, Note_on_c, 3, 59, 0
9, 478800, Note_on_c, 3, 59, 123
9, 479040, Note_on_c, 3, 59, 0
9, 479040, Note_on_c, 3, 60, 123
9, 479520, Note_on_c, 3, 60, 0
9, 480240, Note_on_c, 3, 55, 123
9, 480480, Note_on_c, 3, 55, 0
9, 480480, Note_on_c, 3, 55, 123
9, 480720, Note_on_c, 3, 55, 0
9, 480720, Note_on_c, 3, 55, 123
9, 480960, Note_on_c, 3, 55, 0
9, 480960, Note_on_c, 3, 48, 123
9, 481200, Note_on_c, 3, 48, 0
9, 481200, Note_on_c, 3, 48, 123
9, 481440, Note_on_c, 3, 48, 0
9, 481440, Note_on_c, 3, 48, 123
9, 481680, Note_on_c, 3, 48, 0
9, 481680, Note_on_c, 3, 48, 123
9, 481920, Note_on_c, 3, 48, 0
9, 481920, Note_on_c, 3, 48, 123
9, 483120, Note_on_c, 3, 48, 0
9, 483120, Note_on_c, 3, 48, 123
9, 483360, Note_on_c, 3, 48, 0
9, 483360, Note_on_c, 3, 48, 123
9, 483600, Note_on_c, 3, 48, 0
9, 483600, Note_on_c, 3, 48, 123
9, 483840, Note_on_c, 3, 48, 0
9, 483840, Note_on_c, 3, 48, 123
9, 485040, Note_on_c, 3, 48, 0
9, 485040, Note_on_c, 3, 48, 123
9, 485280, Note_on_c, 3, 48, 0
9, 485280, Note_on_c, 3, 48, 123
9, 485520, Note_on_c, 3, 48, 0
9, 485520, Note_on_c, 3, 48, 123
9, 485760, Note_on_c, 3, 48, 0
9, 485760, Note_on_c, 3, 48, 123
9, 486960, Note_on_c, 3, 48, 0
9, 486960, Note_on_c, 3, 48, 123
9, 487200, Note_on_c, 3, 48, 0
9, 487200, Note_on_c, 3, 48, 123
9, 487440, Note_on_c, 3, 48, 0
9, 487440, Note_on_c, 3, 48, 123
9, 487680, Note_on_c, 3, 48, 0
9, 487680, Note_on_c, 3, 48, 123
9, 487920, Note_on_c, 3, 48, 0
9, 487920, Note_on_c, 3, 53, 123
9, 488160, Note_on_c, 3, 53, 0
9, 488160, Note_on_c, 3, 53, 123
9, 488400, Note_on_c, 3, 53, 0
9, 488400, Note_on_c, 3, 53, 123
9, 488640, Note_on_c, 3, 53, 0
9, 488640, Note_on_c, 3, 53, 123
9, 492480, Note_on_c, 3, 53, 0
9, 492480, Note_on_c, 3, 53, 123
9, 492960, Note_on_c, 3, 53, 0
9, 493680, Note_on_c, 3, 65, 91
9, 493920, Note_on_c, 3, 65, 0
9, 493920, Note_on_c, 3, 65, 91
9, 494160, Note_on_c, 3, 65, 0
9, 494160, Note_on_c, 3, 65, 91
9, 494400, Note_on_c, 3, 65, 0
9, 494400, Note_on_c, 3, 68, 91
9, 494880, Note_on_c, 3, 68, 0
9, 496560, Note_on_c, 3, 54, 123
9, 496800, Note_on_c, 3, 54, 0
9, 496800, Note_on_c, 3, 54, 123
9, 497040, Note_on_c, 3, 54, 0
9, 497040, Note_on_c, 3, 54, 123
9, 497280, Note_on_c, 3, 54, 0
9, 497280, Note_on_c, 3, 54, 123
9, 501120, Note_on_c, 3, 54, 0
9, 501120, Note_on_c, 3, 54, 123
9, 501600, Note_on_c, 3, 54, 0
9, 502320, Note_on_c, 3, 60, 123
9, 502560, Note_on_c, 3, 60, 0
9, 502560, Note_on_c, 3, 60, 123
9, 502800, Note_on_c, 3, 60, 0
9, 502800, Note_on_c, 3, 60, 123
9, 503040, Note_on_c, 3, 60, 0
9, 503040, Note_on_c, 3, 63, 123
9, 503520, Note_on_c, 3, 63, 0
9, 504240, Note_on_c, 3, 67, 115
9, 504480, Note_on_c, 3, 67, 0
9, 504480, Note_on_c, 3, 67, 115
9, 504720, Note_on_c, 3, 67, 0
9, 504720, Note_on_c, 3, 67, 115
9, 504960, Note_on_c, 3, 67, 0
9, 504960, Note_on_c, 3, 63, 115
9, 505920, Note_on_c, 3, 63, 0
9, 505920, Note_on_c, 3, 65, 115
9, 506880, Note_on_c, 3, 65, 0
9, 506880, Note_on_c, 3, 62, 115
9, 508080, Note_on_c, 3, 62, 0
9, 508080, Note_on_c, 3, 67, 115
9, 508320, Note_on_c, 3, 67, 0
9, 508320, Note_on_c, 3, 67, 115
9, 508560, Note_on_c, 3, 67, 0
9, 508560, Note_on_c, 3, 67, 115
9, 508800, Note_on_c, 3, 67, 0
9, 508800, Note_on_c, 3, 63, 115
9, 509760, Note_on_c, 3, 63, 0
9, 509760, Note_on_c, 3, 65, 115
9, 510720, Note_on_c, 3, 65, 0
9, 510720, Note_on_c, 3, 62, 115
9, 511920, Note_on_c, 3, 62, 0
9, 511920, Note_on_c, 3, 67, 115
9, 512160, Note_on_c, 3, 67, 0
9, 512160, Note_on_c, 3, 67, 115
9, 512400, Note_on_c, 3, 67, 0
9, 512400, Note_on_c, 3, 67, 115
9, 512640, Note_on_c, 3, 67, 0
9, 512640, Note_on_c, 3, 63, 115
9, 513120, Note_on_c, 3, 63, 0
9, 513120, Note_on_c, 3, 65, 115
9, 513600, Note_on_c, 3, 65, 0
9, 513600, Note_on_c, 3, 62, 115
9, 514080, Note_on_c, 3, 62, 0
9, 514080, Note_on_c, 3, 63, 115
9, 514560, Note_on_c, 3, 63, 0
9, 514560, Note_on_c, 3, 60, 115
9, 515040, Note_on_c, 3, 60, 0
9, 515040, Note_on_c, 3, 62, 115
9, 515520, Note_on_c, 3, 62, 0
9, 515520, Note_on_c, 3, 58, 115
9, 516000, Note_on_c, 3, 58, 0
9, 516000, Note_on_c, 3, 60, 115
9, 516480, Note_on_c, 3, 60, 0
9, 516480, Note_on_c, 3, 56, 115
9, 516960, Note_on_c, 3, 56, 0
9, 516960, Note_on_c, 3, 58, 115
9, 517440, Note_on_c, 3, 58, 0
9, 517440, Note_on_c, 3, 55, 115
9, 517920, Note_on_c, 3, 55, 0
9, 517920, Note_on_c, 3, 56, 115
9, 518400, Note_on_c, 3, 56, 0
9, 518400, Note_on_c, 3, 53, 115
9, 518880, Note_on_c, 3, 53, 0
9, 518880, Note_on_c, 3, 55, 115
9, 519360, Note_on_c, 3, 55, 0
9, 519360, Note_on_c, 3, 51, 115
9, 519840, Note_on_c, 3, 51, 0
9, 519840, Note_on_c, 3, 53, 115
9, 520320, Note_on_c, 3, 53, 0
9, 520320, Note_on_c, 3, 50, 115
9, 520800, Note_on_c, 3, 50, 0
9, 520800, Note_on_c, 3, 48, 115
9, 521280, Note_on_c, 3, 48, 0
9, 521280, Note_on_c, 3, 47, 115
9, 521760, Note_on_c, 3, 47, 0
9, 521760, Note_on_c, 3, 48, 115
9, 522240, Note_on_c, 3, 48, 0
9, 522240, Note_on_c, 3, 50, 115
9, 522720, Note_on_c, 3, 50, 0
9, 522720, Note_on_c, 3, 48, 115
9, 523200, Note_on_c, 3, 48, 0
9, 523200, Note_on_c, 3, 50, 115
9, 523680, Note_on_c, 3, 50, 0
9, 523680, Note_on_c, 3, 52, 115
9, 524160, Note_on_c, 3, 52, 0
9, 524160, Note_on_c, 3, 53, 115
9, 524640, Note_on_c, 3, 53, 0
9, 524640, Note_on_c, 3, 52, 115
9, 525120, Note_on_c, 3, 52, 0
9, 525120, Note_on_c, 3, 53, 115
9, 525600, Note_on_c, 3, 53, 0
9, 525600, Note_on_c, 3, 55, 115
9, 526080, Note_on_c, 3, 55, 0
9, 526080, Note_on_c, 3, 44, 115
9, 526560, Note_on_c, 3, 44, 0
9, 526560, Note_on_c, 3, 43, 115
9, 527040, Note_on_c, 3, 43, 0
9, 527040, Note_on_c, 3, 45, 115
9, 527520, Note_on_c, 3, 45, 0
9, 527520, Note_on_c, 3, 47, 115
9, 528000, Note_on_c, 3, 47, 0
9, 528000, Note_on_c, 3, 48, 115
9, 529920, Note_on_c, 3, 48, 0
9, 529920, Note_on_c, 3, 44, 115
9, 531840, Note_on_c, 3, 44, 0
9, 531840, Note_on_c, 3, 39, 115
9, 533760, Note_on_c, 3, 39, 0
9, 533760, Note_on_c, 3, 41, 115
9, 534720, Note_on_c, 3, 41, 0
9, 534720, Note_on_c, 3, 39, 115
9, 535680, Note_on_c, 3, 39, 0
9, 535680, Note_on_c, 3, 38, 115
9, 536640, Note_on_c, 3, 38, 0
9, 536640, Note_on_c, 3, 41, 115
9, 537600, Note_on_c, 3, 41, 0
9, 537600, Note_on_c, 3, 39, 115
9, 538080, Note_on_c, 3, 39, 0
9, 538560, Note_on_c, 3, 36, 115
9, 539040, Note_on_c, 3, 36, 0
9, 539520, Note_on_c, 3, 41, 115
9, 540000, Note_on_c, 3, 41, 0
9, 540480, Note_on_c, 3, 38, 115
9, 540960, Note_on_c, 3, 38, 0
9, 541440, Note_on_c, 3, 43, 115
9, 541920, Note_on_c, 3, 43, 0
9, 542400, Note_on_c, 3, 43, 115
9, 542880, Note_on_c, 3, 43, 0
9, 543360, Note_on_c, 3, 48, 123
9, 544320, Note_on_c, 3, 48, 0
9, 544320, Note_on_c, 3, 50, 123
9, 544800, Note_on_c, 3, 50, 0
9, 544800, Note_on_c, 3, 51, 123
9, 545280, Note_on_c, 3, 51, 0
9, 545280, Note_on_c, 3, 53, 123
9, 545760, Note_on_c, 3, 53, 0
9, 545760, Note_on_c, 3, 50, 123
9, 546240, Note_on_c, 3, 50, 0
9, 548160, Note_on_c, 3, 53, 123
9, 548640, Note_on_c, 3, 53, 0
9, 548640, Note_on_c, 3, 55, 123
9, 549120, Note_on_c, 3, 55, 0
9, 549120, Note_on_c, 3, 56, 123
9, 549600, Note_on_c, 3, 56, 0
9, 549600, Note_on_c, 3, 53, 123
9, 550080, Note_on_c, 3, 53, 0
9, 552000, Note_on_c, 3, 57, 123
9, 552480, Note_on_c, 3, 57, 0
9, 552480, Note_on_c, 3, 59, 123
9, 552960, Note_on_c, 3, 59, 0
9, 552960, Note_on_c, 3, 60, 123
9, 553440, Note_on_c, 3, 60, 0
9, 553440, Note_on_c, 3, 55, 123
9, 553920, Note_on_c, 3, 55, 0
9, 555840, Note_on_c, 3, 57, 123
9, 556320, Note_on_c, 3, 57, 0
9, 556320, Note_on_c, 3, 59, 123
9, 556800, Note_on_c, 3, 59, 0
9, 556800, Note_on_c, 3, 60, 123
9, 557280, Note_on_c, 3, 60, 0
9, 557280, Note_on_c, 3, 55, 123
9, 557760, Note_on_c, 3, 55, 0
9, 557760, Note_on_c, 3, 56, 123
9, 558240, Note_on_c, 3, 56, 0
9, 558240, Note_on_c, 3, 51, 123
9, 558720, Note_on_c, 3, 51, 0
9, 558720, Note_on_c, 3, 53, 123
9, 559200, Note_on_c, 3, 53, 0
9, 559200, Note_on_c, 3, 48, 123
9, 559680, Note_on_c, 3, 48, 0
9, 560640, Note_on_c, 3, 53, 123
9, 561120, Note_on_c, 3, 53, 0
9, 561120, Note_on_c, 3, 48, 123
9, 561600, Note_on_c, 3, 48, 0
9, 561600, Note_on_c, 3, 53, 123
9, 562080, Note_on_c, 3, 53, 0
9, 562080, Note_on_c, 3, 51, 123
9, 562560, Note_on_c, 3, 51, 0
9, 563040, Note_on_c, 3, 60, 123
9, 563520, Note_on_c, 3, 60, 0
9, 564000, Note_on_c, 3, 59, 123
9, 564480, Note_on_c, 3, 59, 0
9, 567360, Note_on_c, 3, 53, 123
9, 567840, Note_on_c, 3, 53, 0
9, 567840, Note_on_c, 3, 51, 123
9, 568320, Note_on_c, 3, 51, 0
9, 569280, Note_on_c, 3, 53, 123
9, 569760, Note_on_c, 3, 53, 0
9, 569760, Note_on_c, 3, 51, 123
9, 570240, Note_on_c, 3, 51, 0
9, 570720, Note_on_c, 3, 55, 123
9, 571200, Note_on_c, 3, 55, 0
9, 571680, Note_on_c, 3, 55, 123
9, 572160, Note_on_c, 3, 55, 0
9, 572160, Note_on_c, 3, 48, 123
9, 572640, Note_on_c, 3, 48, 0
9, 573360, Note_on_c, 3, 62, 123
9, 573600, Note_on_c, 3, 62, 0
9, 573600, Note_on_c, 3, 62, 123
9, 573840, Note_on_c, 3, 62, 0
9, 573840, Note_on_c, 3, 62, 123
9, 574080, Note_on_c, 3, 62, 0
9, 574080, Note_on_c, 3, 62, 123
9, 575520, Note_on_c, 3, 62, 0
9, 575520, Note_on_c, 3, 60, 123
9, 576000, Note_on_c, 3, 60, 0
9, 576000, Note_on_c, 3, 59, 123
9, 576480, Note_on_c, 3, 59, 0
9, 576480, Note_on_c, 3, 62, 123
9, 576960, Note_on_c, 3, 62, 0
9, 576960, Note_on_c, 3, 60, 123
9, 577440, Note_on_c, 3, 60, 0
9, 577440, Note_on_c, 3, 59, 123
9, 577920, Note_on_c, 3, 59, 0
9, 577920, Note_on_c, 3, 60, 123
9, 578400, Note_on_c, 3, 60, 0
9, 579120, Note_on_c, 3, 43, 123
9, 579360, Note_on_c, 3, 43, 0
9, 579360, Note_on_c, 3, 43, 123
9, 579600, Note_on_c, 3, 43, 0
9, 579600, Note_on_c, 3, 43, 123
9, 579840, Note_on_c, 3, 43, 0
9, 579840, Note_on_c, 3, 43, 123
9, 580080, Note_on_c, 3, 43, 0
9, 580080, Note_on_c, 3, 43, 123
9, 580320, Note_on_c, 3, 43, 0
9, 580320, Note_on_c, 3, 43, 123
9, 580560, Note_on_c, 3, 43, 0
9, 580560, Note_on_c, 3, 43, 123
9, 580800, Note_on_c, 3, 43, 0
9, 580800, Note_on_c, 3, 43, 123
9, 581040, Note_on_c, 3, 43, 0
9, 581040, Note_on_c, 3, 43, 123
9, 581280, Note_on_c, 3, 43, 0
9, 581280, Note_on_c, 3, 43, 123
9, 581520, Note_on_c, 3, 43, 0
9, 581520, Note_on_c, 3, 43, 123
9, 581760, Note_on_c, 3, 43, 0
9, 581760, Note_on_c, 3, 39, 123
9, 582720, Note_on_c, 3, 39, 0
9, 582960, Note_on_c, 3, 41, 123
9, 583200, Note_on_c, 3, 41, 0
9, 583200, Note_on_c, 3, 41, 123
9, 583440, Note_on_c, 3, 41, 0
9, 583440, Note_on_c, 3, 41, 123
9, 583680, Note_on_c, 3, 41, 0
9, 583680, Note_on_c, 3, 38, 123
9, 585600, Note_on_c, 3, 38, 0
9, 586080, Note_on_c, 3, 67, 91
9, 586560, Note_on_c, 3, 67, 0
9, 586560, Note_on_c, 3, 63, 91
9, 589920, Note_on_c, 3, 63, 0
9, 589920, Note_on_c, 3, 67, 91
9, 590400, Note_on_c, 3, 67, 0
9, 590400, Note_on_c, 3, 63, 91
9, 593520, Note_on_c, 3, 63, 0
9, 593520, Note_on_c, 3, 59, 123
9, 593760, Note_on_c, 3, 59, 0
9, 593760, Note_on_c, 3, 59, 123
9, 594000, Note_on_c, 3, 59, 0
9, 594000, Note_on_c, 3, 59, 123
9, 594240, Note_on_c, 3, 59, 0
9, 594240, Note_on_c, 3, 60, 123
9, 594720, Note_on_c, 3, 60, 0
9, 595440, Note_on_c, 3, 59, 123
9, 595680, Note_on_c, 3, 59, 0
9, 595680, Note_on_c, 3, 59, 123
9, 595920, Note_on_c, 3, 59, 0
9, 595920, Note_on_c, 3, 59, 123
9, 596160, Note_on_c, 3, 59, 0
9, 596160, Note_on_c, 3, 60, 123
9, 596640, Note_on_c, 3, 60, 0
9, 597360, Note_on_c, 3, 59, 123
9, 597600, Note_on_c, 3, 59, 0
9, 597600, Note_on_c, 3, 59, 123
9, 597840, Note_on_c, 3, 59, 0
9, 597840, Note_on_c, 3, 59, 123
9, 598080, Note_on_c, 3, 59, 0
9, 598080, Note_on_c, 3, 60, 123
9, 598560, Note_on_c, 3, 60, 0
9, 598560, Note_on_c, 3, 59, 123
9, 599040, Note_on_c, 3, 59, 0
9, 599040, Note_on_c, 3, 60, 123
9, 599520, Note_on_c, 3, 60, 0
9, 599520, Note_on_c, 3, 59, 123
9, 600000, Note_on_c, 3, 59, 0
9, 600000, Note_on_c, 3, 60, 123
9, 600480, Note_on_c, 3, 60, 0
9, 600480, Note_on_c, 3, 59, 123
9, 600960, Note_on_c, 3, 59, 0
9, 600960, Note_on_c, 3, 60, 123
9, 601440, Note_on_c, 3, 60, 0
9, 601440, Note_on_c, 3, 59, 123
9, 601920, Note_on_c, 3, 59, 0
9, 601920, Note_on_c, 3, 60, 123
9, 602400, Note_on_c, 3, 60, 0
9, 602880, Note_on_c, 3, 55, 123
9, 603360, Note_on_c, 3, 55, 0
9, 603840, Note_on_c, 3, 48, 123
9, 604320, Note_on_c, 3, 48, 0
9, 604320, End_track
10, 0, Start_track
10, 0, MIDI_port, 0
10, 0, Title_t, "Horn 1"
10, 0, Program_c, 4, 60
10, 16560, Note_on_c, 4, 79, 91
10, 16800, Note_on_c, 4, 79, 0
10, 16800, Note_on_c, 4, 79, 101
10, 17040, Note_on_c, 4, 79, 0
10, 17040, Note_on_c, 4, 79, 109
10, 17280, Note_on_c, 4, 79, 0
10, 17280, Note_on_c, 4, 79, 115
10, 17760, Note_on_c, 4, 79, 0
10, 18240, Note_on_c, 4, 75, 115
10, 18720, Note_on_c, 4, 75, 0
10, 19200, Note_on_c, 4, 79, 115
10, 19680, Note_on_c, 4, 79, 0
10, 20400, Note_on_c, 4, 80, 123
10, 20640, Note_on_c, 4, 80, 0
10, 20640, Note_on_c, 4, 80, 123
10, 20880, Note_on_c, 4, 80, 0
10, 20880, Note_on_c, 4, 80, 123
10, 21120, Note_on_c, 4, 80, 0
10, 21120, Note_on_c, 4, 77, 123
10, 23040, Note_on_c, 4, 77, 0
10, 30000, Note_on_c, 4, 79, 91
10, 30240, Note_on_c, 4, 79, 0
10, 30240, Note_on_c, 4, 79, 91
10, 30480, Note_on_c, 4, 79, 0
10, 30480, Note_on_c, 4, 79, 91
10, 30720, Note_on_c, 4, 79, 0
10, 30720, Note_on_c, 4, 79, 91
10, 31200, Note_on_c, 4, 79, 0
10, 31680, Note_on_c, 4, 80, 91
10, 33120, Note_on_c, 4, 80, 0
10, 40320, Note_on_c, 4, 80, 115
10, 40800, Note_on_c, 4, 80, 0
10, 41280, Note_on_c, 4, 79, 115
10, 45120, Note_on_c, 4, 79, 0
10, 45120, Note_on_c, 4, 79, 115
10, 48480, Note_on_c, 4, 79, 0
10, 48480, Note_on_c, 4, 79, 115
10, 48960, Note_on_c, 4, 79, 0
10, 48960, Note_on_c, 4, 78, 123
10, 52800, Note_on_c, 4, 78, 0
10, 52800, Note_on_c, 4, 78, 123
10, 53280, Note_on_c, 4, 78, 0
10, 54720, Note_on_c, 4, 77, 123
10, 55200, Note_on_c, 4, 77, 0
10, 55920, Note_on_c, 4, 82, 123
10, 56160, Note_on_c, 4, 82, 0
10, 56160, Note_on_c, 4, 82, 123
10, 56400, Note_on_c, 4, 82, 0
10, 56400, Note_on_c, 4, 82, 123
10, 56640, Note_on_c, 4, 82, 0
10, 56640, Note_on_c, 4, 75, 123
10, 57600, Note_on_c, 4, 75, 0
10, 57600, Note_on_c, 4, 77, 123
10, 58560, Note_on_c, 4, 77, 0
10, 58560, Note_on_c, 4, 70, 123
10, 60480, Note_on_c, 4, 70, 0
10, 60480, Note_on_c, 4, 70, 91
10, 65280, Note_on_c, 4, 70, 0
10, 65280, Note_on_c, 4, 70, 91
10, 70080, Note_on_c, 4, 70, 0
10, 70080, Note_on_c, 4, 70, 91
10, 71040, Note_on_c, 4, 70, 0
10, 78720, Note_on_c, 4, 75, 91
10, 83520, Note_on_c, 4, 75, 0
10, 83520, Note_on_c, 4, 75, 91
10, 87840, Note_on_c, 4, 75, 0
10, 87840, Note_on_c, 4, 75, 109
10, 88320, Note_on_c, 4, 75, 0
10, 88320, Note_on_c, 4, 75, 115
10, 88800, Note_on_c, 4, 75, 0
10, 88800, Note_on_c, 4, 75, 115
10, 89280, Note_on_c, 4, 75, 0
10, 89280, Note_on_c, 4, 77, 123
10, 90720, Note_on_c, 4, 77, 0
10, 90720, Note_on_c, 4, 70, 123
10, 91200, Note_on_c, 4, 70, 0
10, 91200, Note_on_c, 4, 70, 123
10, 91680, Note_on_c, 4, 70, 0
10, 92160, Note_on_c, 4, 70, 123
10, 92640, Note_on_c, 4, 70, 0
10, 93120, Note_on_c, 4, 70, 123
10, 93600, Note_on_c, 4, 70, 0
10, 94080, Note_on_c, 4, 75, 123
10, 94560, Note_on_c, 4, 75, 0
10, 95040, Note_on_c, 4, 79, 123
10, 95520, Note_on_c, 4, 79, 0
10, 96000, Note_on_c, 4, 77, 123
10, 96480, Note_on_c, 4, 77, 0
10, 96480, Note_on_c, 4, 70, 123
10, 99360, Note_on_c, 4, 70, 0
10, 99360, Note_on_c, 4, 70, 123
10, 99840, Note_on_c, 4, 70, 0
10, 100320, Note_on_c, 4, 70, 123
10, 100800, Note_on_c, 4, 70, 0
10, 101280, Note_on_c, 4, 75, 123
10, 101760, Note_on_c, 4, 75, 0
10, 102240, Note_on_c, 4, 75, 123
10, 102720, Note_on_c, 4, 75, 0
10, 103200, Note_on_c, 4, 75, 123
10, 103680, Note_on_c, 4, 75, 0
10, 104160, Note_on_c, 4, 70, 123
10, 104640, Note_on_c, 4, 70, 0
10, 104640, Note_on_c, 4, 75, 123
10, 105120, Note_on_c, 4, 75, 0
10, 105840, Note_on_c, 4, 82, 123
10, 106080, Note_on_c, 4, 82, 0
10, 106080, Note_on_c, 4, 82, 123
10, 106320, Note_on_c, 4, 82, 0
10, 106320, Note_on_c, 4, 82, 123
10, 106560, Note_on_c, 4, 82, 0
10, 106560, Note_on_c, 4, 79, 123
10, 106800, Note_on_c, 4, 79, 0
10, 106800, Note_on_c, 4, 75, 123
10, 107040, Note_on_c, 4, 75, 0
10, 107040, Note_on_c, 4, 75, 123
10, 107280, Note_on_c, 4, 75, 0
10, 107280, Note_on_c, 4, 75, 123
10, 107520, Note_on_c, 4, 75, 0
10, 107520, Note_on_c, 4, 70, 123
10, 108960, Note_on_c, 4, 70, 0
10, 109680, Note_on_c, 4, 82, 123
10, 109920, Note_on_c, 4, 82, 0
10, 109920, Note_on_c, 4, 82, 123
10, 110160, Note_on_c, 4, 82, 0
10, 110160, Note_on_c, 4, 82, 123
10, 110400, Note_on_c, 4, 82, 0
10, 110400, Note_on_c, 4, 79, 123
10, 110640, Note_on_c, 4, 79, 0
10, 110640, Note_on_c, 4, 75, 123
10, 110880, Note_on_c, 4, 75, 0
10, 110880, Note_on_c, 4, 75, 123
10, 111120, Note_on_c, 4, 75, 0
10, 111120, Note_on_c, 4, 75, 123
10, 111360, Note_on_c, 4, 75, 0
10, 111360, Note_on_c, 4, 70, 123
10, 112800, Note_on_c, 4, 70, 0
10, 113520, Note_on_c, 4, 70, 123
10, 113760, Note_on_c, 4, 70, 0
10, 113760, Note_on_c, 4, 70, 123
10, 114000, Note_on_c, 4, 70, 0
10, 114000, Note_on_c, 4, 70, 123
10, 114240, Note_on_c, 4, 70, 0
10, 114240, Note_on_c, 4, 75, 123
10, 114720, Note_on_c, 4, 75, 0
10, 115440, Note_on_c, 4, 77, 123
10, 115680, Note_on_c, 4, 77, 0
10, 115680, Note_on_c, 4, 77, 123
10, 115920, Note_on_c, 4, 77, 0
10, 115920, Note_on_c, 4, 77, 123
10, 116160, Note_on_c, 4, 77, 0
10, 116160, Note_on_c, 4, 75, 123
10, 116640, Note_on_c, 4, 75, 0
10, 135600, Note_on_c, 4, 79, 91
10, 135840, Note_on_c, 4, 79, 0
10, 135840, Note_on_c, 4, 79, 101
10, 136080, Note_on_c, 4, 79, 0
10, 136080, Note_on_c, 4, 79, 109
10, 136320, Note_on_c, 4, 79, 0
10, 136320, Note_on_c, 4, 79, 115
10, 136800, Note_on_c, 4, 79, 0
10, 137280, Note_on_c, 4, 75, 115
10, 137760, Note_on_c, 4, 75, 0
10, 138240, Note_on_c, 4, 79, 115
10, 138720, Note_on_c, 4, 79, 0
10, 139440, Note_on_c, 4, 80, 123
10, 139680, Note_on_c, 4, 80, 0
10, 139680, Note_on_c, 4, 80, 123
10, 139920, Note_on_c, 4, 80, 0
10, 139920, Note_on_c, 4, 80, 123
10, 140160, Note_on_c, 4, 80, 0
10, 140160, Note_on_c, 4, 77, 123
10, 142080, Note_on_c, 4, 77, 0
10, 149040, Note_on_c, 4, 79, 91
10, 149280, Note_on_c, 4, 79, 0
10, 149280, Note_on_c, 4, 79, 91
10, 149520, Note_on_c, 4, 79, 0
10, 149520, Note_on_c, 4, 79, 91
10, 149760, Note_on_c, 4, 79, 0
10, 149760, Note_on_c, 4, 79, 91
10, 150240, Note_on_c, 4, 79, 0
10, 150720, Note_on_c, 4, 80, 91
10, 152160, Note_on_c, 4, 80, 0
10, 159360, Note_on_c, 4, 80, 115
10, 159840, Note_on_c, 4, 80, 0
10, 160320, Note_on_c, 4, 79, 115
10, 164160, Note_on_c, 4, 79, 0
10, 164160, Note_on_c, 4, 79, 115
10, 167520, Note_on_c, 4, 79, 0
10, 167520, Note_on_c, 4, 79, 115
10, 168000, Note_on_c, 4, 79, 0
10, 168000, Note_on_c, 4, 78, 123
10, 171840, Note_on_c, 4, 78, 0
10, 171840, Note_on_c, 4, 78, 123
10, 172320, Note_on_c, 4, 78, 0
10, 173760, Note_on_c, 4, 77, 123
10, 174240, Note_on_c, 4, 77, 0
10, 174960, Note_on_c, 4, 82, 123
10, 175200, Note_on_c, 4, 82, 0
10, 175200, Note_on_c, 4, 82, 123
10, 175440, Note_on_c, 4, 82, 0
10, 175440, Note_on_c, 4, 82, 123
10, 175680, Note_on_c, 4, 82, 0
10, 175680, Note_on_c, 4, 75, 123
10, 176640, Note_on_c, 4, 75, 0
10, 176640, Note_on_c, 4, 77, 123
10, 177600, Note_on_c, 4, 77, 0
10, 177600, Note_on_c, 4, 70, 123
10, 179520, Note_on_c, 4, 70, 0
10, 179520, Note_on_c, 4, 70, 91
10, 184320, Note_on_c, 4, 70, 0
10, 184320, Note_on_c, 4, 70, 91
10, 189120, Note_on_c, 4, 70, 0
10, 189120, Note_on_c, 4, 70, 91
10, 190080, Note_on_c, 4, 70, 0
10, 197760, Note_on_c, 4, 75, 91
10, 202560, Note_on_c, 4, 75, 0
10, 202560, Note_on_c, 4, 75, 91
10, 206880, Note_on_c, 4, 75, 0
10, 206880, Note_on_c, 4, 75, 109
10, 207360, Note_on_c, 4, 75, 0
10, 207360, Note_on_c, 4, 75, 115
10, 207840, Note_on_c, 4, 75, 0
10, 207840, Note_on_c, 4, 75, 115
10, 208320, Note_on_c, 4, 75, 0
10, 208320, Note_on_c, 4, 77, 123
10, 209760, Note_on_c, 4, 77, 0
10, 209760, Note_on_c, 4, 70, 123
10, 210240, Note_on_c, 4, 70, 0
10, 210240, Note_on_c, 4, 70, 123
10, 210720, Note_on_c, 4, 70, 0
10, 211200, Note_on_c, 4, 70, 123
10, 211680, Note_on_c, 4, 70, 0
10, 212160, Note_on_c, 4, 70, 123
10, 212640, Note_on_c, 4, 70, 0
10, 213120, Note_on_c, 4, 75, 123
10, 213600, Note_on_c, 4, 75, 0
10, 214080, Note_on_c, 4, 79, 123
10, 214560, Note_on_c, 4, 79, 0
10, 215040, Note_on_c, 4, 77, 123
10, 215520, Note_on_c, 4, 77, 0
10, 215520, Note_on_c, 4, 70, 123
10, 218400, Note_on_c, 4, 70, 0
10, 218400, Note_on_c, 4, 70, 123
10, 218880, Note_on_c, 4, 70, 0
10, 219360, Note_on_c, 4, 70, 123
10, 219840, Note_on_c, 4, 70, 0
10, 220320, Note_on_c, 4, 75, 123
10, 220800, Note_on_c, 4, 75, 0
10, 221280, Note_on_c, 4, 75, 123
10, 221760, Note_on_c, 4, 75, 0
10, 222240, Note_on_c, 4, 75, 123
10, 222720, Note_on_c, 4, 75, 0
10, 223200, Note_on_c, 4, 70, 123
10, 223680, Note_on_c, 4, 70, 0
10, 223680, Note_on_c, 4, 75, 123
10, 224160, Note_on_c, 4, 75, 0
10, 224880, Note_on_c, 4, 82, 123
10, 225120, Note_on_c, 4, 82, 0
10, 225120, Note_on_c, 4, 82, 123
10, 225360, Note_on_c, 4, 82, 0
10, 225360, Note_on_c, 4, 82, 123
10, 225600, Note_on_c, 4, 82, 0
10, 225600, Note_on_c, 4, 79, 123
10, 225840, Note_on_c, 4, 79, 0
10, 225840, Note_on_c, 4, 75, 123
10, 226080, Note_on_c, 4, 75, 0
10, 226080, Note_on_c, 4, 75, 123
10, 226320, Note_on_c, 4, 75, 0
10, 226320, Note_on_c, 4, 75, 123
10, 226560, Note_on_c, 4, 75, 0
10, 226560, Note_on_c, 4, 70, 123
10, 228000, Note_on_c, 4, 70, 0
10, 228720, Note_on_c, 4, 82, 123
10, 228960, Note_on_c, 4, 82, 0
10, 228960, Note_on_c, 4, 82, 123
10, 229200, Note_on_c, 4, 82, 0
10, 229200, Note_on_c, 4, 82, 123
10, 229440, Note_on_c, 4, 82, 0
10, 229440, Note_on_c, 4, 79, 123
10, 229680, Note_on_c, 4, 79, 0
10, 229680, Note_on_c, 4, 75, 123
10, 229920, Note_on_c, 4, 75, 0
10, 229920, Note_on_c, 4, 75, 123
10, 230160, Note_on_c, 4, 75, 0
10, 230160, Note_on_c, 4, 75, 123
10, 230400, Note_on_c, 4, 75, 0
10, 230400, Note_on_c, 4, 70, 123
10, 231840, Note_on_c, 4, 70, 0
10, 232560, Note_on_c, 4, 70, 123
10, 232800, Note_on_c, 4, 70, 0
10, 232800, Note_on_c, 4, 70, 123
10, 233040, Note_on_c, 4, 70, 0
10, 233040, Note_on_c, 4, 70, 123
10, 233280, Note_on_c, 4, 70, 0
10, 233280, Note_on_c, 4, 75, 123
10, 233760, Note_on_c, 4, 75, 0
10, 234480, Note_on_c, 4, 77, 123
10, 234720, Note_on_c, 4, 77, 0
10, 234720, Note_on_c, 4, 77, 123
10, 234960, Note_on_c, 4, 77, 0
10, 234960, Note_on_c, 4, 77, 123
10, 235200, Note_on_c, 4, 77, 0
10, 235200, Note_on_c, 4, 75, 123
10, 235680, Note_on_c, 4, 75, 0
10, 238320, Note_on_c, 4, 82, 123
10, 238560, Note_on_c, 4, 82, 0
10, 238560, Note_on_c, 4, 82, 123
10, 238800, Note_on_c, 4, 82, 0
10, 238800, Note_on_c, 4, 82, 123
10, 239040, Note_on_c, 4, 82, 0
10, 239040, Note_on_c, 4, 79, 123
10, 241920, Note_on_c, 4, 79, 0
10, 255840, Note_on_c, 4, 75, 78
10, 256320, Note_on_c, 4, 75, 0
10, 256320, Note_on_c, 4, 77, 78
10, 256800, Note_on_c, 4, 77, 0
10, 256800, Note_on_c, 4, 78, 78
10, 257280, Note_on_c, 4, 78, 0
10, 257280, Note_on_c, 4, 79, 91
10, 260160, Note_on_c, 4, 79, 0
10, 260160, Note_on_c, 4, 79, 91
10, 262560, Note_on_c, 4, 79, 0
10, 270000, Note_on_c, 4, 79, 91
10, 270240, Note_on_c, 4, 79, 0
10, 270240, Note_on_c, 4, 79, 91
10, 270480, Note_on_c, 4, 79, 0
10, 270480, Note_on_c, 4, 79, 91
10, 270720, Note_on_c, 4, 79, 0
10, 270720, Note_on_c, 4, 79, 91
10, 271200, Note_on_c, 4, 79, 0
10, 271920, Note_on_c, 4, 75, 91
10, 272160, Note_on_c, 4, 75, 0
10, 272160, Note_on_c, 4, 75, 91
10, 272400, Note_on_c, 4, 75, 0
10, 272400, Note_on_c, 4, 75, 91
10, 272640, Note_on_c, 4, 75, 0
10, 272640, Note_on_c, 4, 75, 91
10, 273120, Note_on_c, 4, 75, 0
10, 273840, Note_on_c, 4, 75, 91
10, 274080, Note_on_c, 4, 75, 0
10, 274080, Note_on_c, 4, 75, 91
10, 274320, Note_on_c, 4, 75, 0
10, 274320, Note_on_c, 4, 75, 91
10, 274560, Note_on_c, 4, 75, 0
10, 274560, Note_on_c, 4, 75, 91
10, 275040, Note_on_c, 4, 75, 0
10, 275760, Note_on_c, 4, 79, 91
10, 276000, Note_on_c, 4, 79, 0
10, 276000, Note_on_c, 4, 79, 91
10, 276240, Note_on_c, 4, 79, 0
10, 276240, Note_on_c, 4, 79, 91
10, 276480, Note_on_c, 4, 79, 0
10, 276480, Note_on_c, 4, 79, 91
10, 276960, Note_on_c, 4, 79, 0
10, 277680, Note_on_c, 4, 79, 91
10, 277920, Note_on_c, 4, 79, 0
10, 277920, Note_on_c, 4, 79, 91
10, 278160, Note_on_c, 4, 79, 0
10, 278160, Note_on_c, 4, 79, 91
10, 278400, Note_on_c, 4, 79, 0
10, 278400, Note_on_c, 4, 79, 91
10, 278880, Note_on_c, 4, 79, 0
10, 278880, Note_on_c, 4, 79, 91
10, 279360, Note_on_c, 4, 79, 0
10, 279360, Note_on_c, 4, 75, 115
10, 281280, Note_on_c, 4, 75, 0
10, 281280, Note_on_c, 4, 75, 115
10, 281760, Note_on_c, 4, 75, 0
10, 282480, Note_on_c, 4, 79, 115
10, 282720, Note_on_c, 4, 79, 0
10, 282720, Note_on_c, 4, 79, 115
10, 282960, Note_on_c, 4, 79, 0
10, 282960, Note_on_c, 4, 79, 115
10, 283200, Note_on_c, 4, 79, 0
10, 283200, Note_on_c, 4, 79, 115
10, 285120, Note_on_c, 4, 79, 0
10, 285120, Note_on_c, 4, 79, 115
10, 285600, Note_on_c, 4, 79, 0
10, 286320, Note_on_c, 4, 79, 115
10, 286560, Note_on_c, 4, 79, 0
10, 286560, Note_on_c, 4, 79, 115
10, 286800, Note_on_c, 4, 79, 0
10, 286800, Note_on_c, 4, 79, 115
10, 287040, Note_on_c, 4, 79, 0
10, 287040, Note_on_c, 4, 79, 115
10, 287520, Note_on_c, 4, 79, 0
10, 301920, Note_on_c, 4, 77, 115
10, 302160, Note_on_c, 4, 77, 0
10, 302160, Note_on_c, 4, 77, 115
10, 302400, Note_on_c, 4, 77, 0
10, 302400, Note_on_c, 4, 77, 115
10, 302880, Note_on_c, 4, 77, 0
10, 304800, Note_on_c, 4, 79, 115
10, 305040, Note_on_c, 4, 79, 0
10, 305040, Note_on_c, 4, 79, 115
10, 305280, Note_on_c, 4, 79, 0
10, 305280, Note_on_c, 4, 79, 115
10, 305760, Note_on_c, 4, 79, 0
10, 306240, Note_on_c, 4, 77, 115
10, 307200, Note_on_c, 4, 77, 0
10, 307200, Note_on_c, 4, 79, 115
10, 308160, Note_on_c, 4, 79, 0
10, 310080, Note_on_c, 4, 77, 115
10, 311040, Note_on_c, 4, 77, 0
10, 311040, Note_on_c, 4, 79, 115
10, 312000, Note_on_c, 4, 79, 0
10, 313920, Note_on_c, 4, 77, 115
10, 314880, Note_on_c, 4, 77, 0
10, 314880, Note_on_c, 4, 78, 115
10, 315840, Note_on_c, 4, 78, 0
10, 317760, Note_on_c, 4, 77, 115
10, 318720, Note_on_c, 4, 77, 0
10, 318720, Note_on_c, 4, 77, 115
10, 319680, Note_on_c, 4, 77, 0
10, 342720, Note_on_c, 4, 80, 78
10, 343680, Note_on_c, 4, 80, 0
10, 344640, Note_on_c, 4, 80, 78
10, 345600, Note_on_c, 4, 80, 0
10, 346560, Note_on_c, 4, 80, 78
10, 347520, Note_on_c, 4, 80, 0
10, 348720, Note_on_c, 4, 80, 123
10, 348960, Note_on_c, 4, 80, 0
10, 348960, Note_on_c, 4, 80, 123
10, 349200, Note_on_c, 4, 80, 0
10, 349200, Note_on_c, 4, 80, 123
10, 349440, Note_on_c, 4, 80, 0
10, 349440, Note_on_c, 4, 77, 123
10, 350640, Note_on_c, 4, 77, 0
10, 350640, Note_on_c, 4, 80, 123
10, 350880, Note_on_c, 4, 80, 0
10, 350880, Note_on_c, 4, 80, 123
10, 351120, Note_on_c, 4, 80, 0
10, 351120, Note_on_c, 4, 80, 123
10, 351360, Note_on_c, 4, 80, 0
10, 351360, Note_on_c, 4, 77, 123
10, 352560, Note_on_c, 4, 77, 0
10, 352560, Note_on_c, 4, 80, 123
10, 352800, Note_on_c, 4, 80, 0
10, 352800, Note_on_c, 4, 80, 123
10, 353040, Note_on_c, 4, 80, 0
10, 353040, Note_on_c, 4, 80, 123
10, 353280, Note_on_c, 4, 80, 0
10, 353280, Note_on_c, 4, 77, 123
10, 353760, Note_on_c, 4, 77, 0
10, 353760, Note_on_c, 4, 80, 123
10, 354240, Note_on_c, 4, 80, 0
10, 354240, Note_on_c, 4, 77, 123
10, 354720, Note_on_c, 4, 77, 0
10, 354720, Note_on_c, 4, 80, 123
10, 355200, Note_on_c, 4, 80, 0
10, 355200, Note_on_c, 4, 77, 123
10, 355680, Note_on_c, 4, 77, 0
10, 355680, Note_on_c, 4, 80, 123
10, 356160, Note_on_c, 4, 80, 0
10, 356160, Note_on_c, 4, 77, 123
10, 356400, Note_on_c, 4, 77, 0
10, 356400, Note_on_c, 4, 79, 123
10, 356640, Note_on_c, 4, 79, 0
10, 356640, Note_on_c, 4, 79, 123
10, 356880, Note_on_c, 4, 79, 0
10, 356880, Note_on_c, 4, 79, 123
10, 357120, Note_on_c, 4, 79, 0
10, 357120, Note_on_c, 4, 75, 123
10, 358080, Note_on_c, 4, 75, 0
10, 358320, Note_on_c, 4, 79, 123
10, 358560, Note_on_c, 4, 79, 0
10, 358560, Note_on_c, 4, 79, 123
10, 358800, Note_on_c, 4, 79, 0
10, 358800, Note_on_c, 4, 79, 123
10, 359040, Note_on_c, 4, 79, 0
10, 359040, Note_on_c, 4, 79, 123
10, 360960, Note_on_c, 4, 79, 0
10, 384960, Note_on_c, 4, 77, 91
10, 387840, Note_on_c, 4, 77, 0
10, 387840, Note_on_c, 4, 75, 115
10, 388320, Note_on_c, 4, 75, 0
10, 389040, Note_on_c, 4, 80, 115
10, 389280, Note_on_c, 4, 80, 0
10, 389280, Note_on_c, 4, 80, 115
10, 389520, Note_on_c, 4, 80, 0
10, 389520, Note_on_c, 4, 80, 115
10, 389760, Note_on_c, 4, 80, 0
10, 389760, Note_on_c, 4, 80, 115
10, 390240, Note_on_c, 4, 80, 0
10, 390960, Note_on_c, 4, 79, 115
10, 391200, Note_on_c, 4, 79, 0
10, 391200, Note_on_c, 4, 79, 115
10, 391440, Note_on_c, 4, 79, 0
10, 391440, Note_on_c, 4, 79, 115
10, 391680, Note_on_c, 4, 79, 0
10, 391680, Note_on_c, 4, 79, 115
10, 392160, Note_on_c, 4, 79, 0
10, 397440, Note_on_c, 4, 80, 115
10, 397920, Note_on_c, 4, 80, 0
10, 398400, Note_on_c, 4, 79, 115
10, 402240, Note_on_c, 4, 79, 0
10, 402240, Note_on_c, 4, 79, 115
10, 405600, Note_on_c, 4, 79, 0
10, 405600, Note_on_c, 4, 79, 115
10, 406080, Note_on_c, 4, 79, 0
10, 406080, Note_on_c, 4, 75, 123
10, 409920, Note_on_c, 4, 75, 0
10, 409920, Note_on_c, 4, 75, 123
10, 410400, Note_on_c, 4, 75, 0
10, 411840, Note_on_c, 4, 79, 123
10, 412320, Note_on_c, 4, 79, 0
10, 415680, Note_on_c, 4, 67, 91
10, 420480, Note_on_c, 4, 67, 0
10, 420480, Note_on_c, 4, 67, 91
10, 425280, Note_on_c, 4, 67, 0
10, 425280, Note_on_c, 4, 67, 91
10, 430080, Note_on_c, 4, 67, 0
10, 430080, Note_on_c, 4, 67, 91
10, 431040, Note_on_c, 4, 67, 0
10, 450720, Note_on_c, 4, 77, 101
10, 451200, Note_on_c, 4, 77, 0
10, 451680, Note_on_c, 4, 77, 109
10, 452160, Note_on_c, 4, 77, 0
10, 452640, Note_on_c, 4, 77, 115
10, 453120, Note_on_c, 4, 77, 0
10, 453600, Note_on_c, 4, 77, 115
10, 454080, Note_on_c, 4, 77, 0
10, 454080, Note_on_c, 4, 79, 123
10, 455520, Note_on_c, 4, 79, 0
10, 455520, Note_on_c, 4, 79, 123
10, 456000, Note_on_c, 4, 79, 0
10, 456000, Note_on_c, 4, 79, 123
10, 456480, Note_on_c, 4, 79, 0
10, 456960, Note_on_c, 4, 79, 123
10, 457440, Note_on_c, 4, 79, 0
10, 457920, Note_on_c, 4, 79, 123
10, 458400, Note_on_c, 4, 79, 0
10, 458880, Note_on_c, 4, 77, 123
10, 459360, Note_on_c, 4, 77, 0
10, 459840, Note_on_c, 4, 79, 123
10, 460320, Note_on_c, 4, 79, 0
10, 460800, Note_on_c, 4, 79, 123
10, 461280, Note_on_c, 4, 79, 0
10, 461760, Note_on_c, 4, 79, 123
10, 463680, Note_on_c, 4, 79, 0
10, 463680, Note_on_c, 4, 79, 123
10, 464160, Note_on_c, 4, 79, 0
10, 464160, Note_on_c, 4, 79, 123
10, 464640, Note_on_c, 4, 79, 0
10, 465120, Note_on_c, 4, 79, 123
10, 465600, Note_on_c, 4, 79, 0
10, 466080, Note_on_c, 4, 79, 123
10, 466560, Note_on_c, 4, 79, 0
10, 467040, Note_on_c, 4, 77, 123
10, 467520, Note_on_c, 4, 77, 0
10, 468000, Note_on_c, 4, 79, 123
10, 468480, Note_on_c, 4, 79, 0
10, 468960, Note_on_c, 4, 79, 123
10, 469440, Note_on_c, 4, 79, 0
10, 469440, Note_on_c, 4, 79, 123
10, 469920, Note_on_c, 4, 79, 0
10, 472560, Note_on_c, 4, 79, 123
10, 472800, Note_on_c, 4, 79, 0
10, 472800, Note_on_c, 4, 79, 123
10, 473040, Note_on_c, 4, 79, 0
10, 473040, Note_on_c, 4, 79, 123
10, 473280, Note_on_c, 4, 79, 0
10, 473280, Note_on_c, 4, 79, 123
10, 473760, Note_on_c, 4, 79, 0
10, 476400, Note_on_c, 4, 79, 123
10, 476640, Note_on_c, 4, 79, 0
10, 476640, Note_on_c, 4, 79, 123
10, 476880, Note_on_c, 4, 79, 0
10, 476880, Note_on_c, 4, 79, 123
10, 477120, Note_on_c, 4, 79, 0
10, 477120, Note_on_c, 4, 79, 123
10, 477600, Note_on_c, 4, 79, 0
10, 478320, Note_on_c, 4, 79, 123
10, 478560, Note_on_c, 4, 79, 0
10, 478560, Note_on_c, 4, 79, 123
10, 478800, Note_on_c, 4, 79, 0
10, 478800, Note_on_c, 4, 79, 123
10, 479040, Note_on_c, 4, 79, 0
10, 479040, Note_on_c, 4, 79, 123
10, 479520, Note_on_c, 4, 79, 0
10, 480240, Note_on_c, 4, 79, 123
10, 480480, Note_on_c, 4, 79, 0
10, 480480, Note_on_c, 4, 79, 123
10, 480720, Note_on_c, 4, 79, 0
10, 480720, Note_on_c, 4, 79, 123
10, 480960, Note_on_c, 4, 79, 0
10, 480960, Note_on_c, 4, 79, 123
10, 481440, Note_on_c, 4, 79, 0
10, 482880, Note_on_c, 4, 77, 123
10, 483360, Note_on_c, 4, 77, 0
10, 484800, Note_on_c, 4, 79, 123
10, 485280, Note_on_c, 4, 79, 0
10, 486720, Note_on_c, 4, 80, 123
10, 487200, Note_on_c, 4, 80, 0
10, 488640, Note_on_c, 4, 80, 123
10, 492480, Note_on_c, 4, 80, 0
10, 492480, Note_on_c, 4, 80, 123
10, 492960, Note_on_c, 4, 80, 0
10, 493680, Note_on_c, 4, 77, 91
10, 493920, Note_on_c, 4, 77, 0
10, 493920, Note_on_c, 4, 77, 91
10, 494160, Note_on_c, 4, 77, 0
10, 494160, Note_on_c, 4, 77, 91
10, 494400, Note_on_c, 4, 77, 0
10, 494400, Note_on_c, 4, 80, 91
10, 494880, Note_on_c, 4, 80, 0
10, 496560, Note_on_c, 4, 75, 123
10, 496800, Note_on_c, 4, 75, 0
10, 496800, Note_on_c, 4, 75, 123
10, 497040, Note_on_c, 4, 75, 0
10, 497040, Note_on_c, 4, 75, 123
10, 497280, Note_on_c, 4, 75, 0
10, 497280, Note_on_c, 4, 75, 123
10, 501120, Note_on_c, 4, 75, 0
10, 501120, Note_on_c, 4, 75, 123
10, 501600, Note_on_c, 4, 75, 0
10, 506880, Note_on_c, 4, 80, 115
10, 508320, Note_on_c, 4, 80, 0
10, 508320, Note_on_c, 4, 79, 115
10, 508800, Note_on_c, 4, 79, 0
10, 510720, Note_on_c, 4, 80, 115
10, 512160, Note_on_c, 4, 80, 0
10, 512160, Note_on_c, 4, 79, 115
10, 512640, Note_on_c, 4, 79, 0
10, 518400, Note_on_c, 4, 80, 115
10, 518880, Note_on_c, 4, 80, 0
10, 518880, Note_on_c, 4, 82, 115
10, 519360, Note_on_c, 4, 82, 0
10, 519360, Note_on_c, 4, 79, 115
10, 519840, Note_on_c, 4, 79, 0
10, 519840, Note_on_c, 4, 80, 115
10, 520320, Note_on_c, 4, 80, 0
10, 520320, Note_on_c, 4, 77, 115
10, 520800, Note_on_c, 4, 77, 0
10, 521760, Note_on_c, 4, 75, 115
10, 522240, Note_on_c, 4, 75, 0
10, 522240, Note_on_c, 4, 77, 115
10, 522720, Note_on_c, 4, 77, 0
10, 523680, Note_on_c, 4, 79, 115
10, 524160, Note_on_c, 4, 79, 0
10, 524160, Note_on_c, 4, 80, 115
10, 524640, Note_on_c, 4, 80, 0
10, 524640, Note_on_c, 4, 79, 115
10, 525120, Note_on_c, 4, 79, 0
10, 525120, Note_on_c, 4, 80, 115
10, 525600, Note_on_c, 4, 80, 0
10, 525600, Note_on_c, 4, 79, 115
10, 526080, Note_on_c, 4, 79, 0
10, 526560, Note_on_c, 4, 79, 115
10, 527040, Note_on_c, 4, 79, 0
10, 527040, Note_on_c, 4, 79, 115
10, 527520, Note_on_c, 4, 79, 0
10, 527520, Note_on_c, 4, 79, 115
10, 528000, Note_on_c, 4, 79, 0
10, 528000, Note_on_c, 4, 75, 115
10, 529920, Note_on_c, 4, 75, 0
10, 529920, Note_on_c, 4, 77, 115
10, 531840, Note_on_c, 4, 77, 0
10, 531840, Note_on_c, 4, 79, 115
10, 533760, Note_on_c, 4, 79, 0
10, 533760, Note_on_c, 4, 80, 115
10, 534720, Note_on_c, 4, 80, 0
10, 534720, Note_on_c, 4, 77, 115
10, 535200, Note_on_c, 4, 77, 0
10, 535200, Note_on_c, 4, 77, 115
10, 535680, Note_on_c, 4, 77, 0
10, 535680, Note_on_c, 4, 77, 115
10, 536640, Note_on_c, 4, 77, 0
10, 536640, Note_on_c, 4, 79, 115
10, 537600, Note_on_c, 4, 79, 0
10, 537600, Note_on_c, 4, 79, 115
10, 538080, Note_on_c, 4, 79, 0
10, 538560, Note_on_c, 4, 80, 115
10, 539040, Note_on_c, 4, 80, 0
10, 539520, Note_on_c, 4, 80, 115
10, 540000, Note_on_c, 4, 80, 0
10, 540480, Note_on_c, 4, 80, 115
10, 540960, Note_on_c, 4, 80, 0
10, 541440, Note_on_c, 4, 79, 115
10, 541920, Note_on_c, 4, 79, 0
10, 542400, Note_on_c, 4, 79, 115
10, 542880, Note_on_c, 4, 79, 0
10, 552000, Note_on_c, 4, 79, 115
10, 552480, Note_on_c, 4, 79, 0
10, 552480, Note_on_c, 4, 79, 115
10, 552960, Note_on_c, 4, 79, 0
10, 552960, Note_on_c, 4, 79, 115
10, 553920, Note_on_c, 4, 79, 0
10, 555840, Note_on_c, 4, 79, 115
10, 556320, Note_on_c, 4, 79, 0
10, 556320, Note_on_c, 4, 79, 115
10, 556800, Note_on_c, 4, 79, 0
10, 556800, Note_on_c, 4, 79, 115
10, 557760, Note_on_c, 4, 79, 0
10, 557760, Note_on_c, 4, 75, 115
10, 558240, Note_on_c, 4, 75, 0
10, 558240, Note_on_c, 4, 75, 115
10, 558720, Note_on_c, 4, 75, 0
10, 558720, Note_on_c, 4, 77, 115
10, 559200, Note_on_c, 4, 77, 0
10, 559200, Note_on_c, 4, 75, 115
10, 559680, Note_on_c, 4, 75, 0
10, 560640, Note_on_c, 4, 80, 115
10, 561120, Note_on_c, 4, 80, 0
10, 561120, Note_on_c, 4, 79, 115
10, 561600, Note_on_c, 4, 79, 0
10, 561600, Note_on_c, 4, 80, 115
10, 562080, Note_on_c, 4, 80, 0
10, 562080, Note_on_c, 4, 79, 115
10, 562560, Note_on_c, 4, 79, 0
10, 563040, Note_on_c, 4, 75, 115
10, 563520, Note_on_c, 4, 75, 0
10, 564000, Note_on_c, 4, 79, 115
10, 564480, Note_on_c, 4, 79, 0
10, 566400, Note_on_c, 4, 80, 115
10, 566880, Note_on_c, 4, 80, 0
10, 566880, Note_on_c, 4, 79, 115
10, 567360, Note_on_c, 4, 79, 0
10, 567360, Note_on_c, 4, 80, 115
10, 567840, Note_on_c, 4, 80, 0
10, 567840, Note_on_c, 4, 79, 115
10, 568320, Note_on_c, 4, 79, 0
10, 568320, Note_on_c, 4, 80, 115
10, 568800, Note_on_c, 4, 80, 0
10, 568800, Note_on_c, 4, 79, 115
10, 569280, Note_on_c, 4, 79, 0
10, 569280, Note_on_c, 4, 80, 115
10, 569760, Note_on_c, 4, 80, 0
10, 569760, Note_on_c, 4, 79, 115
10, 570240, Note_on_c, 4, 79, 0
10, 570720, Note_on_c, 4, 79, 115
10, 571200, Note_on_c, 4, 79, 0
10, 571680, Note_on_c, 4, 79, 115
10, 572160, Note_on_c, 4, 79, 0
10, 572160, Note_on_c, 4, 79, 115
10, 572640, Note_on_c, 4, 79, 0
10, 576480, Note_on_c, 4, 79, 115
10, 576960, Note_on_c, 4, 79, 0
10, 576960, Note_on_c, 4, 79, 115
10, 577440, Note_on_c, 4, 79, 0
10, 577440, Note_on_c, 4, 79, 115
10, 577920, Note_on_c, 4, 79, 0
10, 577920, Note_on_c, 4, 75, 115
10, 578400, Note_on_c, 4, 75, 0
10, 579120, Note_on_c, 4, 79, 115
10, 579360, Note_on_c, 4, 79, 0
10, 579360, Note_on_c, 4, 79, 115
10, 579600, Note_on_c, 4, 79, 0
10, 579600, Note_on_c, 4, 79, 115
10, 579840, Note_on_c, 4, 79, 0
10, 579840, Note_on_c, 4, 79, 115
10, 580080, Note_on_c, 4, 79, 0
10, 580080, Note_on_c, 4, 79, 115
10, 580320, Note_on_c, 4, 79, 0
10, 580320, Note_on_c, 4, 79, 115
10, 580560, Note_on_c, 4, 79, 0
10, 580560, Note_on_c, 4, 79, 115
10, 580800, Note_on_c, 4, 79, 0
10, 580800, Note_on_c, 4, 79, 115
10, 581040, Note_on_c, 4, 79, 0
10, 581040, Note_on_c, 4, 79, 115
10, 581280, Note_on_c, 4, 79, 0
10, 581280, Note_on_c, 4, 79, 115
10, 581520, Note_on_c, 4, 79, 0
10, 581520, Note_on_c, 4, 79, 115
10, 581760, Note_on_c, 4, 79, 0
10, 581760, Note_on_c, 4, 75, 123
10, 582720, Note_on_c, 4, 75, 0
10, 582960, Note_on_c, 4, 79, 123
10, 583200, Note_on_c, 4, 79, 0
10, 583200, Note_on_c, 4, 79, 123
10, 583440, Note_on_c, 4, 79, 0
10, 583440, Note_on_c, 4, 79, 123
10, 583680, Note_on_c, 4, 79, 0
10, 583680, Note_on_c, 4, 79, 123
10, 585600, Note_on_c, 4, 79, 0
10, 593520, Note_on_c, 4, 79, 123
10, 593760, Note_on_c, 4, 79, 0
10, 593760, Note_on_c, 4, 79, 123
10, 594000, Note_on_c, 4, 79, 0
10, 594000, Note_on_c, 4, 79, 123
10, 594240, Note_on_c, 4, 79, 0
10, 594240, Note_on_c, 4, 79, 123
10, 594720, Note_on_c, 4, 79, 0
10, 595440, Note_on_c, 4, 79, 123
10, 595680, Note_on_c, 4, 79, 0
10, 595680, Note_on_c, 4, 79, 123
10, 595920, Note_on_c, 4, 79, 0
10, 595920, Note_on_c, 4, 79, 123
10, 596160, Note_on_c, 4, 79, 0
10, 596160, Note_on_c, 4, 79, 123
10, 596640, Note_on_c, 4, 79, 0
10, 597360, Note_on_c, 4, 79, 123
10, 597600, Note_on_c, 4, 79, 0
10, 597600, Note_on_c, 4, 79, 123
10, 597840, Note_on_c, 4, 79, 0
10, 597840, Note_on_c, 4, 79, 123
10, 598080, Note_on_c, 4, 79, 0
10, 598080, Note_on_c, 4, 79, 123
10, 598560, Note_on_c, 4, 79, 0
10, 598560, Note_on_c, 4, 79, 123
10, 599040, Note_on_c, 4, 79, 0
10, 599040, Note_on_c, 4, 79, 123
10, 599520, Note_on_c, 4, 79, 0
10, 599520, Note_on_c, 4, 79, 123
10, 600000, Note_on_c, 4, 79, 0
10, 600000, Note_on_c, 4, 79, 123
10, 600480, Note_on_c, 4, 79, 0
10, 600480, Note_on_c, 4, 79, 123
10, 600960, Note_on_c, 4, 79, 0
10, 600960, Note_on_c, 4, 79, 123
10, 601440, Note_on_c, 4, 79, 0
10, 601440, Note_on_c, 4, 79, 123
10, 601920, Note_on_c, 4, 79, 0
10, 601920, Note_on_c, 4, 79, 123
10, 602400, Note_on_c, 4, 79, 0
10, 602880, Note_on_c, 4, 79, 123
10, 603360, Note_on_c, 4, 79, 0
10, 603840, Note_on_c, 4, 79, 123
10, 604320, Note_on_c, 4, 79, 0
10, 604320, End_track
11, 0, Start_track
11, 0, MIDI_port, 0
11, 0, Title_t, "Horn 2"
11, 16560, Note_on_c, 4, 79, 91
11, 16800, Note_on_c, 4, 79, 0
11, 16800, Note_on_c, 4, 79, 101
11, 17040, Note_on_c, 4, 79, 0
11, 17040, Note_on_c, 4, 79, 109
11, 17280, Note_on_c, 4, 79, 0
11, 17280, Note_on_c, 4, 79, 115
11, 17760, Note_on_c, 4, 79, 0
11, 18240, Note_on_c, 4, 63, 115
11, 18720, Note_on_c, 4, 63, 0
11, 19200, Note_on_c, 4, 67, 115
11, 19680, Note_on_c, 4, 67, 0
11, 20400, Note_on_c, 4, 80, 123
11, 20640, Note_on_c, 4, 80, 0
11, 20640, Note_on_c, 4, 80, 123
11, 20880, Note_on_c, 4, 80, 0
11, 20880, Note_on_c, 4, 80, 123
11, 21120, Note_on_c, 4, 80, 0
11, 21120, Note_on_c, 4, 77, 123
11, 23040, Note_on_c, 4, 77, 0
11, 30000, Note_on_c, 4, 67, 91
11, 30240, Note_on_c, 4, 67, 0
11, 30240, Note_on_c, 4, 67, 91
11, 30480, Note_on_c, 4, 67, 0
11, 30480, Note_on_c, 4, 67, 91
11, 30720, Note_on_c, 4, 67, 0
11, 30720, Note_on_c, 4, 67, 91
11, 31200, Note_on_c, 4, 67, 0
11, 31680, Note_on_c, 4, 77, 91
11, 33120, Note_on_c, 4, 77, 0
11, 40320, Note_on_c, 4, 77, 115
11, 40800, Note_on_c, 4, 77, 0
11, 41280, Note_on_c, 4, 75, 115
11, 45120, Note_on_c, 4, 75, 0
11, 45120, Note_on_c, 4, 77, 115
11, 48480, Note_on_c, 4, 77, 0
11, 48480, Note_on_c, 4, 75, 115
11, 48960, Note_on_c, 4, 75, 0
11, 48960, Note_on_c, 4, 75, 123
11, 52800, Note_on_c, 4, 75, 0
11, 52800, Note_on_c, 4, 75, 123
11, 53280, Note_on_c, 4, 75, 0
11, 54720, Note_on_c, 4, 70, 123
11, 55200, Note_on_c, 4, 70, 0
11, 55920, Note_on_c, 4, 82, 123
11, 56160, Note_on_c, 4, 82, 0
11, 56160, Note_on_c, 4, 82, 123
11, 56400, Note_on_c, 4, 82, 0
11, 56400, Note_on_c, 4, 82, 123
11, 56640, Note_on_c, 4, 82, 0
11, 56640, Note_on_c, 4, 75, 123
11, 57600, Note_on_c, 4, 75, 0
11, 57600, Note_on_c, 4, 77, 123
11, 58560, Note_on_c, 4, 77, 0
11, 58560, Note_on_c, 4, 70, 123
11, 60480, Note_on_c, 4, 70, 0
11, 60480, Note_on_c, 4, 70, 91
11, 65280, Note_on_c, 4, 70, 0
11, 65280, Note_on_c, 4, 70, 91
11, 70080, Note_on_c, 4, 70, 0
11, 70080, Note_on_c, 4, 70, 91
11, 71040, Note_on_c, 4, 70, 0
11, 78720, Note_on_c, 4, 63, 91
11, 83520, Note_on_c, 4, 63, 0
11, 83520, Note_on_c, 4, 63, 91
11, 87840, Note_on_c, 4, 63, 0
11, 87840, Note_on_c, 4, 63, 109
11, 88320, Note_on_c, 4, 63, 0
11, 88320, Note_on_c, 4, 63, 115
11, 88800, Note_on_c, 4, 63, 0
11, 88800, Note_on_c, 4, 63, 115
11, 89280, Note_on_c, 4, 63, 0
11, 89280, Note_on_c, 4, 70, 123
11, 90720, Note_on_c, 4, 70, 0
11, 90720, Note_on_c, 4, 58, 123
11, 91200, Note_on_c, 4, 58, 0
11, 91200, Note_on_c, 4, 58, 123
11, 91680, Note_on_c, 4, 58, 0
11, 92160, Note_on_c, 4, 58, 123
11, 92640, Note_on_c, 4, 58, 0
11, 93120, Note_on_c, 4, 58, 123
11, 93600, Note_on_c, 4, 58, 0
11, 94080, Note_on_c, 4, 63, 123
11, 94560, Note_on_c, 4, 63, 0
11, 95040, Note_on_c, 4, 75, 123
11, 95520, Note_on_c, 4, 75, 0
11, 96000, Note_on_c, 4, 70, 123
11, 96480, Note_on_c, 4, 70, 0
11, 96480, Note_on_c, 4, 58, 123
11, 99360, Note_on_c, 4, 58, 0
11, 99360, Note_on_c, 4, 58, 123
11, 99840, Note_on_c, 4, 58, 0
11, 100320, Note_on_c, 4, 58, 123
11, 100800, Note_on_c, 4, 58, 0
11, 101280, Note_on_c, 4, 63, 123
11, 101760, Note_on_c, 4, 63, 0
11, 102240, Note_on_c, 4, 63, 123
11, 102720, Note_on_c, 4, 63, 0
11, 103200, Note_on_c, 4, 63, 123
11, 103680, Note_on_c, 4, 63, 0
11, 104160, Note_on_c, 4, 58, 123
11, 104640, Note_on_c, 4, 58, 0
11, 104640, Note_on_c, 4, 63, 123
11, 105120, Note_on_c, 4, 63, 0
11, 105840, Note_on_c, 4, 70, 123
11, 106080, Note_on_c, 4, 70, 0
11, 106080, Note_on_c, 4, 70, 123
11, 106320, Note_on_c, 4, 70, 0
11, 106320, Note_on_c, 4, 70, 123
11, 106560, Note_on_c, 4, 70, 0
11, 106560, Note_on_c, 4, 67, 123
11, 106800, Note_on_c, 4, 67, 0
11, 106800, Note_on_c, 4, 63, 123
11, 107040, Note_on_c, 4, 63, 0
11, 107040, Note_on_c, 4, 63, 123
11, 107280, Note_on_c, 4, 63, 0
11, 107280, Note_on_c, 4, 63, 123
11, 107520, Note_on_c, 4, 63, 0
11, 107520, Note_on_c, 4, 58, 123
11, 108960, Note_on_c, 4, 58, 0
11, 109680, Note_on_c, 4, 70, 123
11, 109920, Note_on_c, 4, 70, 0
11, 109920, Note_on_c, 4, 70, 123
11, 110160, Note_on_c, 4, 70, 0
11, 110160, Note_on_c, 4, 70, 123
11, 110400, Note_on_c, 4, 70, 0
11, 110400, Note_on_c, 4, 67, 123
11, 110640, Note_on_c, 4, 67, 0
11, 110640, Note_on_c, 4, 63, 123
11, 110880, Note_on_c, 4, 63, 0
11, 110880, Note_on_c, 4, 63, 123
11, 111120, Note_on_c, 4, 63, 0
11, 111120, Note_on_c, 4, 63, 123
11, 111360, Note_on_c, 4, 63, 0
11, 111360, Note_on_c, 4, 58, 123
11, 112800, Note_on_c, 4, 58, 0
11, 113520, Note_on_c, 4, 58, 123
11, 113760, Note_on_c, 4, 58, 0
11, 113760, Note_on_c, 4, 58, 123
11, 114000, Note_on_c, 4, 58, 0
11, 114000, Note_on_c, 4, 58, 123
11, 114240, Note_on_c, 4, 58, 0
11, 114240, Note_on_c, 4, 63, 123
11, 114720, Note_on_c, 4, 63, 0
11, 115440, Note_on_c, 4, 70, 123
11, 115680, Note_on_c, 4, 70, 0
11, 115680, Note_on_c, 4, 70, 123
11, 115920, Note_on_c, 4, 70, 0
11, 115920, Note_on_c, 4, 70, 123
11, 116160, Note_on_c, 4, 70, 0
11, 116160, Note_on_c, 4, 63, 123
11, 116640, Note_on_c, 4, 63, 0
11, 135600, Note_on_c, 4, 79, 91
11, 135840, Note_on_c, 4, 79, 0
11, 135840, Note_on_c, 4, 79, 101
11, 136080, Note_on_c, 4, 79, 0
11, 136080, Note_on_c, 4, 79, 109
11, 136320, Note_on_c, 4, 79, 0
11, 136320, Note_on_c, 4, 79, 115
11, 136800, Note_on_c, 4, 79, 0
11, 137280, Note_on_c, 4, 63, 115
11, 137760, Note_on_c, 4, 63, 0
11, 138240, Note_on_c, 4, 67, 115
11, 138720, Note_on_c, 4, 67, 0
11, 139440, Note_on_c, 4, 80, 123
11, 139680, Note_on_c, 4, 80, 0
11, 139680, Note_on_c, 4, 80, 123
11, 139920, Note_on_c, 4, 80, 0
11, 139920, Note_on_c, 4, 80, 123
11, 140160, Note_on_c, 4, 80, 0
11, 140160, Note_on_c, 4, 77, 123
11, 142080, Note_on_c, 4, 77, 0
11, 149040, Note_on_c, 4, 67, 91
11, 149280, Note_on_c, 4, 67, 0
11, 149280, Note_on_c, 4, 67, 91
11, 149520, Note_on_c, 4, 67, 0
11, 149520, Note_on_c, 4, 67, 91
11, 149760, Note_on_c, 4, 67, 0
11, 149760, Note_on_c, 4, 67, 91
11, 150240, Note_on_c, 4, 67, 0
11, 150720, Note_on_c, 4, 77, 91
11, 152160, Note_on_c, 4, 77, 0
11, 159360, Note_on_c, 4, 77, 115
11, 159840, Note_on_c, 4, 77, 0
11, 160320, Note_on_c, 4, 75, 115
11, 164160, Note_on_c, 4, 75, 0
11, 164160, Note_on_c, 4, 77, 115
11, 167520, Note_on_c, 4, 77, 0
11, 167520, Note_on_c, 4, 75, 115
11, 168000, Note_on_c, 4, 75, 0
11, 168000, Note_on_c, 4, 75, 123
11, 171840, Note_on_c, 4, 75, 0
11, 171840, Note_on_c, 4, 75, 123
11, 172320, Note_on_c, 4, 75, 0
11, 173760, Note_on_c, 4, 70, 123
11, 174240, Note_on_c, 4, 70, 0
11, 174960, Note_on_c, 4, 82, 123
11, 175200, Note_on_c, 4, 82, 0
11, 175200, Note_on_c, 4, 82, 123
11, 175440, Note_on_c, 4, 82, 0
11, 175440, Note_on_c, 4, 82, 123
11, 175680, Note_on_c, 4, 82, 0
11, 175680, Note_on_c, 4, 75, 123
11, 176640, Note_on_c, 4, 75, 0
11, 176640, Note_on_c, 4, 77, 123
11, 177600, Note_on_c, 4, 77, 0
11, 177600, Note_on_c, 4, 70, 123
11, 179520, Note_on_c, 4, 70, 0
11, 179520, Note_on_c, 4, 70, 91
11, 184320, Note_on_c, 4, 70, 0
11, 184320, Note_on_c, 4, 70, 91
11, 189120, Note_on_c, 4, 70, 0
11, 189120, Note_on_c, 4, 70, 91
11, 190080, Note_on_c, 4, 70, 0
11, 197760, Note_on_c, 4, 63, 91
11, 202560, Note_on_c, 4, 63, 0
11, 202560, Note_on_c, 4, 63, 91
11, 206880, Note_on_c, 4, 63, 0
11, 206880, Note_on_c, 4, 63, 109
11, 207360, Note_on_c, 4, 63, 0
11, 207360, Note_on_c, 4, 63, 115
11, 207840, Note_on_c, 4, 63, 0
11, 207840, Note_on_c, 4, 63, 115
11, 208320, Note_on_c, 4, 63, 0
11, 208320, Note_on_c, 4, 70, 123
11, 209760, Note_on_c, 4, 70, 0
11, 209760, Note_on_c, 4, 58, 123
11, 210240, Note_on_c, 4, 58, 0
11, 210240, Note_on_c, 4, 58, 123
11, 210720, Note_on_c, 4, 58, 0
11, 211200, Note_on_c, 4, 58, 123
11, 211680, Note_on_c, 4, 58, 0
11, 212160, Note_on_c, 4, 58, 123
11, 212640, Note_on_c, 4, 58, 0
11, 213120, Note_on_c, 4, 63, 123
11, 213600, Note_on_c, 4, 63, 0
11, 214080, Note_on_c, 4, 75, 123
11, 214560, Note_on_c, 4, 75, 0
11, 215040, Note_on_c, 4, 70, 123
11, 215520, Note_on_c, 4, 70, 0
11, 215520, Note_on_c, 4, 58, 123
11, 218400, Note_on_c, 4, 58, 0
11, 218400, Note_on_c, 4, 58, 123
11, 218880, Note_on_c, 4, 58, 0
11, 219360, Note_on_c, 4, 58, 123
11, 219840, Note_on_c, 4, 58, 0
11, 220320, Note_on_c, 4, 63, 123
11, 220800, Note_on_c, 4, 63, 0
11, 221280, Note_on_c, 4, 63, 123
11, 221760, Note_on_c, 4, 63, 0
11, 222240, Note_on_c, 4, 63, 123
11, 222720, Note_on_c, 4, 63, 0
11, 223200, Note_on_c, 4, 58, 123
11, 223680, Note_on_c, 4, 58, 0
11, 223680, Note_on_c, 4, 63, 123
11, 224160, Note_on_c, 4, 63, 0
11, 224880, Note_on_c, 4, 70, 123
11, 225120, Note_on_c, 4, 70, 0
11, 225120, Note_on_c, 4, 70, 123
11, 225360, Note_on_c, 4, 70, 0
11, 225360, Note_on_c, 4, 70, 123
11, 225600, Note_on_c, 4, 70, 0
11, 225600, Note_on_c, 4, 67, 123
11, 225840, Note_on_c, 4, 67, 0
11, 225840, Note_on_c, 4, 63, 123
11, 226080, Note_on_c, 4, 63, 0
11, 226080, Note_on_c, 4, 63, 123
11, 226320, Note_on_c, 4, 63, 0
11, 226320, Note_on_c, 4, 63, 123
11, 226560, Note_on_c, 4, 63, 0
11, 226560, Note_on_c, 4, 58, 123
11, 228000, Note_on_c, 4, 58, 0
11, 228720, Note_on_c, 4, 70, 123
11, 228960, Note_on_c, 4, 70, 0
11, 228960, Note_on_c, 4, 70, 123
11, 229200, Note_on_c, 4, 70, 0
11, 229200, Note_on_c, 4, 70, 123
11, 229440, Note_on_c, 4, 70, 0
11, 229440, Note_on_c, 4, 67, 123
11, 229680, Note_on_c, 4, 67, 0
11, 229680, Note_on_c, 4, 63, 123
11, 229920, Note_on_c, 4, 63, 0
11, 229920, Note_on_c, 4, 63, 123
11, 230160, Note_on_c, 4, 63, 0
11, 230160, Note_on_c, 4, 63, 123
11, 230400, Note_on_c, 4, 63, 0
11, 230400, Note_on_c, 4, 58, 123
11, 231840, Note_on_c, 4, 58, 0
11, 232560, Note_on_c, 4, 58, 123
11, 232800, Note_on_c, 4, 58, 0
11, 232800, Note_on_c, 4, 58, 123
11, 233040, Note_on_c, 4, 58, 0
11, 233040, Note_on_c, 4, 58, 123
11, 233280, Note_on_c, 4, 58, 0
11, 233280, Note_on_c, 4, 63, 123
11, 233760, Note_on_c, 4, 63, 0
11, 234480, Note_on_c, 4, 70, 123
11, 234720, Note_on_c, 4, 70, 0
11, 234720, Note_on_c, 4, 70, 123
11, 234960, Note_on_c, 4, 70, 0
11, 234960, Note_on_c, 4, 70, 123
11, 235200, Note_on_c, 4, 70, 0
11, 235200, Note_on_c, 4, 63, 123
11, 235680, Note_on_c, 4, 63, 0
11, 238320, Note_on_c, 4, 82, 123
11, 238560, Note_on_c, 4, 82, 0
11, 238560, Note_on_c, 4, 82, 123
11, 238800, Note_on_c, 4, 82, 0
11, 238800, Note_on_c, 4, 82, 123
11, 239040, Note_on_c, 4, 82, 0
11, 239040, Note_on_c, 4, 79, 123
11, 241920, Note_on_c, 4, 79, 0
11, 255840, Note_on_c, 4, 75, 78
11, 256320, Note_on_c, 4, 75, 0
11, 256320, Note_on_c, 4, 77, 78
11, 256800, Note_on_c, 4, 77, 0
11, 256800, Note_on_c, 4, 78, 78
11, 257280, Note_on_c, 4, 78, 0
11, 257280, Note_on_c, 4, 67, 91
11, 260160, Note_on_c, 4, 67, 0
11, 260160, Note_on_c, 4, 67, 91
11, 262560, Note_on_c, 4, 67, 0
11, 270000, Note_on_c, 4, 67, 91
11, 270240, Note_on_c, 4, 67, 0
11, 270240, Note_on_c, 4, 67, 91
11, 270480, Note_on_c, 4, 67, 0
11, 270480, Note_on_c, 4, 67, 91
11, 270720, Note_on_c, 4, 67, 0
11, 270720, Note_on_c, 4, 67, 91
11, 271200, Note_on_c, 4, 67, 0
11, 271920, Note_on_c, 4, 63, 91
11, 272160, Note_on_c, 4, 63, 0
11, 272160, Note_on_c, 4, 63, 91
11, 272400, Note_on_c, 4, 63, 0
11, 272400, Note_on_c, 4, 63, 91
11, 272640, Note_on_c, 4, 63, 0
11, 272640, Note_on_c, 4, 63, 91
11, 273120, Note_on_c, 4, 63, 0
11, 273840, Note_on_c, 4, 63, 91
11, 274080, Note_on_c, 4, 63, 0
11, 274080, Note_on_c, 4, 63, 91
11, 274320, Note_on_c, 4, 63, 0
11, 274320, Note_on_c, 4, 63, 91
11, 274560, Note_on_c, 4, 63, 0
11, 274560, Note_on_c, 4, 63, 91
11, 275040, Note_on_c, 4, 63, 0
11, 275760, Note_on_c, 4, 67, 91
11, 276000, Note_on_c, 4, 67, 0
11, 276000, Note_on_c, 4, 67, 91
11, 276240, Note_on_c, 4, 67, 0
11, 276240, Note_on_c, 4, 67, 91
11, 276480, Note_on_c, 4, 67, 0
11, 276480, Note_on_c, 4, 67, 91
11, 276960, Note_on_c, 4, 67, 0
11, 277680, Note_on_c, 4, 67, 91
11, 277920, Note_on_c, 4, 67, 0
11, 277920, Note_on_c, 4, 67, 91
11, 278160, Note_on_c, 4, 67, 0
11, 278160, Note_on_c, 4, 67, 91
11, 278400, Note_on_c, 4, 67, 0
11, 278400, Note_on_c, 4, 67, 91
11, 278880, Note_on_c, 4, 67, 0
11, 278880, Note_on_c, 4, 67, 91
11, 279360, Note_on_c, 4, 67, 0
11, 279360, Note_on_c, 4, 63, 115
11, 281280, Note_on_c, 4, 63, 0
11, 281280, Note_on_c, 4, 63, 115
11, 281760, Note_on_c, 4, 63, 0
11, 282480, Note_on_c, 4, 67, 115
11, 282720, Note_on_c, 4, 67, 0
11, 282720, Note_on_c, 4, 67, 115
11, 282960, Note_on_c, 4, 67, 0
11, 282960, Note_on_c, 4, 67, 115
11, 283200, Note_on_c, 4, 67, 0
11, 283200, Note_on_c, 4, 67, 115
11, 285120, Note_on_c, 4, 67, 0
11, 285120, Note_on_c, 4, 67, 115
11, 285600, Note_on_c, 4, 67, 0
11, 286320, Note_on_c, 4, 67, 115
11, 286560, Note_on_c, 4, 67, 0
11, 286560, Note_on_c, 4, 67, 115
11, 286800, Note_on_c, 4, 67, 0
11, 286800, Note_on_c, 4, 67, 115
11, 287040, Note_on_c, 4, 67, 0
11, 287040, Note_on_c, 4, 67, 115
11, 287520, Note_on_c, 4, 67, 0
11, 301920, Note_on_c, 4, 77, 115
11, 302160, Note_on_c, 4, 77, 0
11, 302160, Note_on_c, 4, 77, 115
11, 302400, Note_on_c, 4, 77, 0
11, 302400, Note_on_c, 4, 77, 115
11, 302880, Note_on_c, 4, 77, 0
11, 304800, Note_on_c, 4, 79, 115
11, 305040, Note_on_c, 4, 79, 0
11, 305040, Note_on_c, 4, 79, 115
11, 305280, Note_on_c, 4, 79, 0
11, 305280, Note_on_c, 4, 79, 115
11, 305760, Note_on_c, 4, 79, 0
11, 306240, Note_on_c, 4, 77, 115
11, 307200, Note_on_c, 4, 77, 0
11, 307200, Note_on_c, 4, 79, 115
11, 308160, Note_on_c, 4, 79, 0
11, 310080, Note_on_c, 4, 77, 115
11, 311040, Note_on_c, 4, 77, 0
11, 311040, Note_on_c, 4, 79, 115
11, 312000, Note_on_c, 4, 79, 0
11, 313920, Note_on_c, 4, 77, 115
11, 314880, Note_on_c, 4, 77, 0
11, 314880, Note_on_c, 4, 78, 115
11, 315840, Note_on_c, 4, 78, 0
11, 317760, Note_on_c, 4, 77, 115
11, 318720, Note_on_c, 4, 77, 0
11, 318720, Note_on_c, 4, 77, 115
11, 319680, Note_on_c, 4, 77, 0
11, 342720, Note_on_c, 4, 77, 78
11, 343680, Note_on_c, 4, 77, 0
11, 344640, Note_on_c, 4, 77, 78
11, 345600, Note_on_c, 4, 77, 0
11, 346560, Note_on_c, 4, 77, 78
11, 347520, Note_on_c, 4, 77, 0
11, 348720, Note_on_c, 4, 80, 123
11, 348960, Note_on_c, 4, 80, 0
11, 348960, Note_on_c, 4, 80, 123
11, 349200, Note_on_c, 4, 80, 0
11, 349200, Note_on_c, 4, 80, 123
11, 349440, Note_on_c, 4, 80, 0
11, 349440, Note_on_c, 4, 77, 123
11, 350640, Note_on_c, 4, 77, 0
11, 350640, Note_on_c, 4, 80, 123
11, 350880, Note_on_c, 4, 80, 0
11, 350880, Note_on_c, 4, 80, 123
11, 351120, Note_on_c, 4, 80, 0
11, 351120, Note_on_c, 4, 80, 123
11, 351360, Note_on_c, 4, 80, 0
11, 351360, Note_on_c, 4, 77, 123
11, 352560, Note_on_c, 4, 77, 0
11, 352560, Note_on_c, 4, 80, 123
11, 352800, Note_on_c, 4, 80, 0
11, 352800, Note_on_c, 4, 80, 123
11, 353040, Note_on_c, 4, 80, 0
11, 353040, Note_on_c, 4, 80, 123
11, 353280, Note_on_c, 4, 80, 0
11, 353280, Note_on_c, 4, 77, 123
11, 353760, Note_on_c, 4, 77, 0
11, 353760, Note_on_c, 4, 80, 123
11, 354240, Note_on_c, 4, 80, 0
11, 354240, Note_on_c, 4, 77, 123
11, 354720, Note_on_c, 4, 77, 0
11, 354720, Note_on_c, 4, 80, 123
11, 355200, Note_on_c, 4, 80, 0
11, 355200, Note_on_c, 4, 77, 123
11, 355680, Note_on_c, 4, 77, 0
11, 355680, Note_on_c, 4, 80, 123
11, 356160, Note_on_c, 4, 80, 0
11, 356160, Note_on_c, 4, 77, 123
11, 356400, Note_on_c, 4, 77, 0
11, 356400, Note_on_c, 4, 79, 123
11, 356640, Note_on_c, 4, 79, 0
11, 356640, Note_on_c, 4, 79, 123
11, 356880, Note_on_c, 4, 79, 0
11, 356880, Note_on_c, 4, 79, 123
11, 357120, Note_on_c, 4, 79, 0
11, 357120, Note_on_c, 4, 75, 123
11, 358080, Note_on_c, 4, 75, 0
11, 358320, Note_on_c, 4, 67, 123
11, 358560, Note_on_c, 4, 67, 0
11, 358560, Note_on_c, 4, 67, 123
11, 358800, Note_on_c, 4, 67, 0
11, 358800, Note_on_c, 4, 67, 123
11, 359040, Note_on_c, 4, 67, 0
11, 359040, Note_on_c, 4, 67, 123
11, 360960, Note_on_c, 4, 67, 0
11, 384960, Note_on_c, 4, 77, 91
11, 387840, Note_on_c, 4, 77, 0
11, 387840, Note_on_c, 4, 75, 115
11, 388320, Note_on_c, 4, 75, 0
11, 389040, Note_on_c, 4, 77, 115
11, 389280, Note_on_c, 4, 77, 0
11, 389280, Note_on_c, 4, 77, 115
11, 389520, Note_on_c, 4, 77, 0
11, 389520, Note_on_c, 4, 77, 115
11, 389760, Note_on_c, 4, 77, 0
11, 389760, Note_on_c, 4, 77, 115
11, 390240, Note_on_c, 4, 77, 0
11, 390960, Note_on_c, 4, 75, 115
11, 391200, Note_on_c, 4, 75, 0
11, 391200, Note_on_c, 4, 75, 115
11, 391440, Note_on_c, 4, 75, 0
11, 391440, Note_on_c, 4, 75, 115
11, 391680, Note_on_c, 4, 75, 0
11, 391680, Note_on_c, 4, 75, 115
11, 392160, Note_on_c, 4, 75, 0
11, 397440, Note_on_c, 4, 77, 115
11, 397920, Note_on_c, 4, 77, 0
11, 398400, Note_on_c, 4, 75, 115
11, 402240, Note_on_c, 4, 75, 0
11, 402240, Note_on_c, 4, 77, 115
11, 405600, Note_on_c, 4, 77, 0
11, 405600, Note_on_c, 4, 75, 115
11, 406080, Note_on_c, 4, 75, 0
11, 406080, Note_on_c, 4, 63, 123
11, 409920, Note_on_c, 4, 63, 0
11, 409920, Note_on_c, 4, 63, 123
11, 410400, Note_on_c, 4, 63, 0
11, 411840, Note_on_c, 4, 67, 123
11, 412320, Note_on_c, 4, 67, 0
11, 415680, Note_on_c, 4, 67, 91
11, 420480, Note_on_c, 4, 67, 0
11, 420480, Note_on_c, 4, 67, 91
11, 425280, Note_on_c, 4, 67, 0
11, 425280, Note_on_c, 4, 67, 91
11, 430080, Note_on_c, 4, 67, 0
11, 430080, Note_on_c, 4, 67, 91
11, 431040, Note_on_c, 4, 67, 0
11, 450720, Note_on_c, 4, 77, 101
11, 451200, Note_on_c, 4, 77, 0
11, 451680, Note_on_c, 4, 77, 109
11, 452160, Note_on_c, 4, 77, 0
11, 452640, Note_on_c, 4, 77, 115
11, 453120, Note_on_c, 4, 77, 0
11, 453600, Note_on_c, 4, 77, 115
11, 454080, Note_on_c, 4, 77, 0
11, 454080, Note_on_c, 4, 79, 123
11, 455520, Note_on_c, 4, 79, 0
11, 455520, Note_on_c, 4, 79, 123
11, 456000, Note_on_c, 4, 79, 0
11, 456000, Note_on_c, 4, 79, 123
11, 456480, Note_on_c, 4, 79, 0
11, 456960, Note_on_c, 4, 77, 123
11, 457440, Note_on_c, 4, 77, 0
11, 457920, Note_on_c, 4, 79, 123
11, 458400, Note_on_c, 4, 79, 0
11, 458880, Note_on_c, 4, 77, 123
11, 459360, Note_on_c, 4, 77, 0
11, 459840, Note_on_c, 4, 79, 123
11, 460320, Note_on_c, 4, 79, 0
11, 460800, Note_on_c, 4, 79, 123
11, 461280, Note_on_c, 4, 79, 0
11, 461760, Note_on_c, 4, 67, 123
11, 463680, Note_on_c, 4, 67, 0
11, 463680, Note_on_c, 4, 67, 123
11, 464160, Note_on_c, 4, 67, 0
11, 464160, Note_on_c, 4, 67, 123
11, 464640, Note_on_c, 4, 67, 0
11, 465120, Note_on_c, 4, 67, 123
11, 465600, Note_on_c, 4, 67, 0
11, 466080, Note_on_c, 4, 67, 123
11, 466560, Note_on_c, 4, 67, 0
11, 467040, Note_on_c, 4, 77, 123
11, 467520, Note_on_c, 4, 77, 0
11, 468000, Note_on_c, 4, 79, 123
11, 468480, Note_on_c, 4, 79, 0
11, 468960, Note_on_c, 4, 79, 123
11, 469440, Note_on_c, 4, 79, 0
11, 469440, Note_on_c, 4, 79, 123
11, 469920, Note_on_c, 4, 79, 0
11, 472560, Note_on_c, 4, 79, 123
11, 472800, Note_on_c, 4, 79, 0
11, 472800, Note_on_c, 4, 79, 123
11, 473040, Note_on_c, 4, 79, 0
11, 473040, Note_on_c, 4, 79, 123
11, 473280, Note_on_c, 4, 79, 0
11, 473280, Note_on_c, 4, 79, 123
11, 473760, Note_on_c, 4, 79, 0
11, 476400, Note_on_c, 4, 79, 123
11, 476640, Note_on_c, 4, 79, 0
11, 476640, Note_on_c, 4, 79, 123
11, 476880, Note_on_c, 4, 79, 0
11, 476880, Note_on_c, 4, 79, 123
11, 477120, Note_on_c, 4, 79, 0
11, 477120, Note_on_c, 4, 79, 123
11, 477600, Note_on_c, 4, 79, 0
11, 478320, Note_on_c, 4, 67, 123
11, 478560, Note_on_c, 4, 67, 0
11, 478560, Note_on_c, 4, 67, 123
11, 478800, Note_on_c, 4, 67, 0
11, 478800, Note_on_c, 4, 67, 123
11, 479040, Note_on_c, 4, 67, 0
11, 479040, Note_on_c, 4, 67, 123
11, 479520, Note_on_c, 4, 67, 0
11, 480240, Note_on_c, 4, 67, 123
11, 480480, Note_on_c, 4, 67, 0
11, 480480, Note_on_c, 4, 67, 123
11, 480720, Note_on_c, 4, 67, 0
11, 480720, Note_on_c, 4, 67, 123
11, 480960, Note_on_c, 4, 67, 0
11, 480960, Note_on_c, 4, 79, 123
11, 481440, Note_on_c, 4, 79, 0
11, 482880, Note_on_c, 4, 77, 123
11, 483360, Note_on_c, 4, 77, 0
11, 484800, Note_on_c, 4, 79, 123
11, 485280, Note_on_c, 4, 79, 0
11, 486720, Note_on_c, 4, 80, 123
11, 487200, Note_on_c, 4, 80, 0
11, 488640, Note_on_c, 4, 77, 123
11, 492480, Note_on_c, 4, 77, 0
11, 492480, Note_on_c, 4, 77, 123
11, 492960, Note_on_c, 4, 77, 0
11, 493680, Note_on_c, 4, 77, 91
11, 493920, Note_on_c, 4, 77, 0
11, 493920, Note_on_c, 4, 77, 91
11, 494160, Note_on_c, 4, 77, 0
11, 494160, Note_on_c, 4, 77, 91
11, 494400, Note_on_c, 4, 77, 0
11, 494400, Note_on_c, 4, 80, 91
11, 494880, Note_on_c, 4, 80, 0
11, 496560, Note_on_c, 4, 75, 123
11, 496800, Note_on_c, 4, 75, 0
11, 496800, Note_on_c, 4, 75, 123
11, 497040, Note_on_c, 4, 75, 0
11, 497040, Note_on_c, 4, 75, 123
11, 497280, Note_on_c, 4, 75, 0
11, 497280, Note_on_c, 4, 75, 123
11, 501120, Note_on_c, 4, 75, 0
11, 501120, Note_on_c, 4, 75, 123
11, 501600, Note_on_c, 4, 75, 0
11, 506880, Note_on_c, 4, 77, 115
11, 508800, Note_on_c, 4, 77, 0
11, 510720, Note_on_c, 4, 77, 115
11, 512640, Note_on_c, 4, 77, 0
11, 518400, Note_on_c, 4, 80, 115
11, 518880, Note_on_c, 4, 80, 0
11, 518880, Note_on_c, 4, 82, 115
11, 519360, Note_on_c, 4, 82, 0
11, 519360, Note_on_c, 4, 79, 115
11, 519840, Note_on_c, 4, 79, 0
11, 519840, Note_on_c, 4, 80, 115
11, 520320, Note_on_c, 4, 80, 0
11, 520320, Note_on_c, 4, 77, 115
11, 520800, Note_on_c, 4, 77, 0
11, 521760, Note_on_c, 4, 75, 115
11, 522240, Note_on_c, 4, 75, 0
11, 522240, Note_on_c, 4, 77, 115
11, 522720, Note_on_c, 4, 77, 0
11, 523680, Note_on_c, 4, 79, 115
11, 524160, Note_on_c, 4, 79, 0
11, 524160, Note_on_c, 4, 80, 115
11, 524640, Note_on_c, 4, 80, 0
11, 524640, Note_on_c, 4, 79, 115
11, 525120, Note_on_c, 4, 79, 0
11, 525120, Note_on_c, 4, 80, 115
11, 525600, Note_on_c, 4, 80, 0
11, 525600, Note_on_c, 4, 79, 115
11, 526080, Note_on_c, 4, 79, 0
11, 526560, Note_on_c, 4, 79, 115
11, 527040, Note_on_c, 4, 79, 0
11, 527040, Note_on_c, 4, 77, 115
11, 527520, Note_on_c, 4, 77, 0
11, 527520, Note_on_c, 4, 77, 115
11, 528000, Note_on_c, 4, 77, 0
11, 528000, Note_on_c, 4, 75, 115
11, 529920, Note_on_c, 4, 75, 0
11, 529920, Note_on_c, 4, 77, 115
11, 531840, Note_on_c, 4, 77, 0
11, 531840, Note_on_c, 4, 79, 115
11, 533760, Note_on_c, 4, 79, 0
11, 533760, Note_on_c, 4, 80, 115
11, 534720, Note_on_c, 4, 80, 0
11, 534720, Note_on_c, 4, 77, 115
11, 535200, Note_on_c, 4, 77, 0
11, 535200, Note_on_c, 4, 77, 115
11, 535680, Note_on_c, 4, 77, 0
11, 535680, Note_on_c, 4, 77, 115
11, 536640, Note_on_c, 4, 77, 0
11, 536640, Note_on_c, 4, 79, 115
11, 537600, Note_on_c, 4, 79, 0
11, 537600, Note_on_c, 4, 79, 115
11, 538080, Note_on_c, 4, 79, 0
11, 538560, Note_on_c, 4, 80, 115
11, 539040, Note_on_c, 4, 80, 0
11, 539520, Note_on_c, 4, 77, 115
11, 540000, Note_on_c, 4, 77, 0
11, 540480, Note_on_c, 4, 77, 115
11, 540960, Note_on_c, 4, 77, 0
11, 541440, Note_on_c, 4, 79, 115
11, 541920, Note_on_c, 4, 79, 0
11, 542400, Note_on_c, 4, 79, 115
11, 542880, Note_on_c, 4, 79, 0
11, 552000, Note_on_c, 4, 79, 115
11, 552480, Note_on_c, 4, 79, 0
11, 552480, Note_on_c, 4, 79, 115
11, 552960, Note_on_c, 4, 79, 0
11, 552960, Note_on_c, 4, 79, 115
11, 553920, Note_on_c, 4, 79, 0
11, 555840, Note_on_c, 4, 79, 115
11, 556320, Note_on_c, 4, 79, 0
11, 556320, Note_on_c, 4, 79, 115
11, 556800, Note_on_c, 4, 79, 0
11, 556800, Note_on_c, 4, 79, 115
11, 557760, Note_on_c, 4, 79, 0
11, 557760, Note_on_c, 4, 75, 115
11, 558240, Note_on_c, 4, 75, 0
11, 558240, Note_on_c, 4, 75, 115
11, 558720, Note_on_c, 4, 75, 0
11, 558720, Note_on_c, 4, 77, 115
11, 559200, Note_on_c, 4, 77, 0
11, 559200, Note_on_c, 4, 63, 115
11, 559680, Note_on_c, 4, 63, 0
11, 560640, Note_on_c, 4, 77, 115
11, 561120, Note_on_c, 4, 77, 0
11, 561120, Note_on_c, 4, 75, 115
11, 561600, Note_on_c, 4, 75, 0
11, 561600, Note_on_c, 4, 77, 115
11, 562080, Note_on_c, 4, 77, 0
11, 562080, Note_on_c, 4, 75, 115
11, 562560, Note_on_c, 4, 75, 0
11, 563040, Note_on_c, 4, 75, 115
11, 563520, Note_on_c, 4, 75, 0
11, 564000, Note_on_c, 4, 79, 115
11, 564480, Note_on_c, 4, 79, 0
11, 566400, Note_on_c, 4, 77, 115
11, 566880, Note_on_c, 4, 77, 0
11, 566880, Note_on_c, 4, 75, 115
11, 567360, Note_on_c, 4, 75, 0
11, 567360, Note_on_c, 4, 77, 115
11, 567840, Note_on_c, 4, 77, 0
11, 567840, Note_on_c, 4, 75, 115
11, 568320, Note_on_c, 4, 75, 0
11, 568320, Note_on_c, 4, 77, 115
11, 568800, Note_on_c, 4, 77, 0
11, 568800, Note_on_c, 4, 75, 115
11, 569280, Note_on_c, 4, 75, 0
11, 569280, Note_on_c, 4, 77, 115
11, 569760, Note_on_c, 4, 77, 0
11, 569760, Note_on_c, 4, 75, 115
11, 570240, Note_on_c, 4, 75, 0
11, 570720, Note_on_c, 4, 79, 115
11, 571200, Note_on_c, 4, 79, 0
11, 571680, Note_on_c, 4, 79, 115
11, 572160, Note_on_c, 4, 79, 0
11, 572160, Note_on_c, 4, 75, 115
11, 572640, Note_on_c, 4, 75, 0
11, 576480, Note_on_c, 4, 77, 115
11, 576960, Note_on_c, 4, 77, 0
11, 576960, Note_on_c, 4, 75, 115
11, 577440, Note_on_c, 4, 75, 0
11, 577440, Note_on_c, 4, 77, 115
11, 577920, Note_on_c, 4, 77, 0
11, 577920, Note_on_c, 4, 75, 115
11, 578400, Note_on_c, 4, 75, 0
11, 579120, Note_on_c, 4, 79, 115
11, 579360, Note_on_c, 4, 79, 0
11, 579360, Note_on_c, 4, 79, 115
11, 579600, Note_on_c, 4, 79, 0
11, 579600, Note_on_c, 4, 79, 115
11, 579840, Note_on_c, 4, 79, 0
11, 579840, Note_on_c, 4, 79, 115
11, 580080, Note_on_c, 4, 79, 0
11, 580080, Note_on_c, 4, 79, 115
11, 580320, Note_on_c, 4, 79, 0
11, 580320, Note_on_c, 4, 79, 115
11, 580560, Note_on_c, 4, 79, 0
11, 580560, Note_on_c, 4, 79, 115
11, 580800, Note_on_c, 4, 79, 0
11, 580800, Note_on_c, 4, 79, 115
11, 581040, Note_on_c, 4, 79, 0
11, 581040, Note_on_c, 4, 79, 115
11, 581280, Note_on_c, 4, 79, 0
11, 581280, Note_on_c, 4, 79, 115
11, 581520, Note_on_c, 4, 79, 0
11, 581520, Note_on_c, 4, 79, 115
11, 581760, Note_on_c, 4, 79, 0
11, 581760, Note_on_c, 4, 75, 123
11, 582720, Note_on_c, 4, 75, 0
11, 582960, Note_on_c, 4, 79, 123
11, 583200, Note_on_c, 4, 79, 0
11, 583200, Note_on_c, 4, 79, 123
11, 583440, Note_on_c, 4, 79, 0
11, 583440, Note_on_c, 4, 79, 123
11, 583680, Note_on_c, 4, 79, 0
11, 583680, Note_on_c, 4, 79, 123
11, 585600, Note_on_c, 4, 79, 0
11, 593520, Note_on_c, 4, 79, 123
11, 593760, Note_on_c, 4, 79, 0
11, 593760, Note_on_c, 4, 79, 123
11, 594000, Note_on_c, 4, 79, 0
11, 594000, Note_on_c, 4, 79, 123
11, 594240, Note_on_c, 4, 79, 0
11, 594240, Note_on_c, 4, 79, 123
11, 594720, Note_on_c, 4, 79, 0
11, 595440, Note_on_c, 4, 79, 123
11, 595680, Note_on_c, 4, 79, 0
11, 595680, Note_on_c, 4, 79, 123
11, 595920, Note_on_c, 4, 79, 0
11, 595920, Note_on_c, 4, 79, 123
11, 596160, Note_on_c, 4, 79, 0
11, 596160, Note_on_c, 4, 79, 123
11, 596640, Note_on_c, 4, 79, 0
11, 597360, Note_on_c, 4, 79, 123
11, 597600, Note_on_c, 4, 79, 0
11, 597600, Note_on_c, 4, 79, 123
11, 597840, Note_on_c, 4, 79, 0
11, 597840, Note_on_c, 4, 79, 123
11, 598080, Note_on_c, 4, 79, 0
11, 598080, Note_on_c, 4, 79, 123
11, 598560, Note_on_c, 4, 79, 0
11, 598560, Note_on_c, 4, 79, 123
11, 599040, Note_on_c, 4, 79, 0
11, 599040, Note_on_c, 4, 79, 123
11, 599520, Note_on_c, 4, 79, 0
11, 599520, Note_on_c, 4, 79, 123
11, 600000, Note_on_c, 4, 79, 0
11, 600000, Note_on_c, 4, 79, 123
11, 600480, Note_on_c, 4, 79, 0
11, 600480, Note_on_c, 4, 79, 123
11, 600960, Note_on_c, 4, 79, 0
11, 600960, Note_on_c, 4, 79, 123
11, 601440, Note_on_c, 4, 79, 0
11, 601440, Note_on_c, 4, 79, 123
11, 601920, Note_on_c, 4, 79, 0
11, 601920, Note_on_c, 4, 79, 123
11, 602400, Note_on_c, 4, 79, 0
11, 602880, Note_on_c, 4, 79, 123
11, 603360, Note_on_c, 4, 79, 0
11, 603840, Note_on_c, 4, 79, 123
11, 604320, Note_on_c, 4, 79, 0
11, 604320, End_track
12, 0, Start_track
12, 0, MIDI_port, 0
12, 0, Title_t, "Trumpet 1"
12, 0, Program_c, 5, 56
12, 16560, Note_on_c, 5, 67, 91
12, 16800, Note_on_c, 5, 67, 0
12, 16800, Note_on_c, 5, 67, 101
12, 17040, Note_on_c, 5, 67, 0
12, 17040, Note_on_c, 5, 67, 109
12, 17280, Note_on_c, 5, 67, 0
12, 17280, Note_on_c, 5, 72, 115
12, 17760, Note_on_c, 5, 72, 0
12, 18240, Note_on_c, 5, 72, 115
12, 18720, Note_on_c, 5, 72, 0
12, 19200, Note_on_c, 5, 67, 115
12, 19680, Note_on_c, 5, 67, 0
12, 40320, Note_on_c, 5, 72, 115
12, 40800, Note_on_c, 5, 72, 0
12, 41280, Note_on_c, 5, 72, 115
12, 41760, Note_on_c, 5, 72, 0
12, 44640, Note_on_c, 5, 72, 115
12, 44880, Note_on_c, 5, 72, 0
12, 44880, Note_on_c, 5, 72, 115
12, 45120, Note_on_c, 5, 72, 0
12, 45120, Note_on_c, 5, 67, 115
12, 45600, Note_on_c, 5, 67, 0
12, 48480, Note_on_c, 5, 72, 115
12, 48720, Note_on_c, 5, 72, 0
12, 48720, Note_on_c, 5, 72, 115
12, 48960, Note_on_c, 5, 72, 0
12, 48960, Note_on_c, 5, 72, 123
12, 52800, Note_on_c, 5, 72, 0
12, 52800, Note_on_c, 5, 72, 123
12, 53280, Note_on_c, 5, 72, 0
12, 89280, Note_on_c, 5, 77, 123
12, 90720, Note_on_c, 5, 77, 0
12, 93120, Note_on_c, 5, 67, 115
12, 93600, Note_on_c, 5, 67, 0
12, 94080, Note_on_c, 5, 72, 115
12, 94560, Note_on_c, 5, 72, 0
12, 96960, Note_on_c, 5, 77, 123
12, 98880, Note_on_c, 5, 77, 0
12, 98880, Note_on_c, 5, 79, 123
12, 99360, Note_on_c, 5, 79, 0
12, 99360, Note_on_c, 5, 79, 123
12, 99840, Note_on_c, 5, 79, 0
12, 101280, Note_on_c, 5, 67, 123
12, 101760, Note_on_c, 5, 67, 0
12, 102240, Note_on_c, 5, 72, 123
12, 102720, Note_on_c, 5, 72, 0
12, 135600, Note_on_c, 5, 67, 91
12, 135840, Note_on_c, 5, 67, 0
12, 135840, Note_on_c, 5, 67, 101
12, 136080, Note_on_c, 5, 67, 0
12, 136080, Note_on_c, 5, 67, 109
12, 136320, Note_on_c, 5, 67, 0
12, 136320, Note_on_c, 5, 72, 115
12, 136800, Note_on_c, 5, 72, 0
12, 137280, Note_on_c, 5, 72, 115
12, 137760, Note_on_c, 5, 72, 0
12, 138240, Note_on_c, 5, 67, 115
12, 138720, Note_on_c, 5, 67, 0
12, 159360, Note_on_c, 5, 72, 115
12, 159840, Note_on_c, 5, 72, 0
12, 160320, Note_on_c, 5, 72, 115
12, 160800, Note_on_c, 5, 72, 0
12, 163680, Note_on_c, 5, 72, 115
12, 163920, Note_on_c, 5, 72, 0
12, 163920, Note_on_c, 5, 72, 115
12, 164160, Note_on_c, 5, 72, 0
12, 164160, Note_on_c, 5, 67, 115
12, 164640, Note_on_c, 5, 67, 0
12, 167520, Note_on_c, 5, 72, 115
12, 167760, Note_on_c, 5, 72, 0
12, 167760, Note_on_c, 5, 72, 115
12, 168000, Note_on_c, 5, 72, 0
12, 168000, Note_on_c, 5, 72, 123
12, 171840, Note_on_c, 5, 72, 0
12, 171840, Note_on_c, 5, 72, 123
12, 172320, Note_on_c, 5, 72, 0
12, 208320, Note_on_c, 5, 77, 123
12, 209760, Note_on_c, 5, 77, 0
12, 212160, Note_on_c, 5, 67, 115
12, 212640, Note_on_c, 5, 67, 0
12, 213120, Note_on_c, 5, 72, 115
12, 213600, Note_on_c, 5, 72, 0
12, 216000, Note_on_c, 5, 77, 123
12, 217920, Note_on_c, 5, 77, 0
12, 217920, Note_on_c, 5, 79, 123
12, 218400, Note_on_c, 5, 79, 0
12, 218400, Note_on_c, 5, 79, 123
12, 218880, Note_on_c, 5, 79, 0
12, 220320, Note_on_c, 5, 67, 123
12, 220800, Note_on_c, 5, 67, 0
12, 221280, Note_on_c, 5, 72, 123
12, 221760, Note_on_c, 5, 72, 0
12, 269760, Note_on_c, 5, 67, 78
12, 270240, Note_on_c, 5, 67, 0
12, 271680, Note_on_c, 5, 60, 78
12, 272160, Note_on_c, 5, 60, 0
12, 273600, Note_on_c, 5, 60, 78
12, 274080, Note_on_c, 5, 60, 0
12, 275520, Note_on_c, 5, 67, 78
12, 276000, Note_on_c, 5, 67, 0
12, 277440, Note_on_c, 5, 67, 78
12, 277920, Note_on_c, 5, 67, 0
12, 279360, Note_on_c, 5, 72, 115
12, 281280, Note_on_c, 5, 72, 0
12, 281280, Note_on_c, 5, 72, 115
12, 281760, Note_on_c, 5, 72, 0
12, 282480, Note_on_c, 5, 76, 115
12, 282720, Note_on_c, 5, 76, 0
12, 282720, Note_on_c, 5, 76, 115
12, 282960, Note_on_c, 5, 76, 0
12, 282960, Note_on_c, 5, 76, 115
12, 283200, Note_on_c, 5, 76, 0
12, 283200, Note_on_c, 5, 76, 115
12, 285120, Note_on_c, 5, 76, 0
12, 285120, Note_on_c, 5, 76, 115
12, 285600, Note_on_c, 5, 76, 0
12, 286320, Note_on_c, 5, 79, 115
12, 286560, Note_on_c, 5, 79, 0
12, 286560, Note_on_c, 5, 79, 115
12, 286800, Note_on_c, 5, 79, 0
12, 286800, Note_on_c, 5, 79, 115
12, 287040, Note_on_c, 5, 79, 0
12, 287040, Note_on_c, 5, 79, 115
12, 287520, Note_on_c, 5, 79, 0
12, 288480, Note_on_c, 5, 79, 115
12, 288720, Note_on_c, 5, 79, 0
12, 288720, Note_on_c, 5, 79, 115
12, 288960, Note_on_c, 5, 79, 0
12, 288960, Note_on_c, 5, 79, 115
12, 289440, Note_on_c, 5, 79, 0
12, 289920, Note_on_c, 5, 74, 115
12, 290400, Note_on_c, 5, 74, 0
12, 293280, Note_on_c, 5, 60, 115
12, 293520, Note_on_c, 5, 60, 0
12, 293520, Note_on_c, 5, 60, 115
12, 293760, Note_on_c, 5, 60, 0
12, 293760, Note_on_c, 5, 60, 115
12, 294240, Note_on_c, 5, 60, 0
12, 297120, Note_on_c, 5, 74, 115
12, 297360, Note_on_c, 5, 74, 0
12, 297360, Note_on_c, 5, 74, 115
12, 297600, Note_on_c, 5, 74, 0
12, 297600, Note_on_c, 5, 74, 115
12, 298080, Note_on_c, 5, 74, 0
12, 304800, Note_on_c, 5, 67, 115
12, 305040, Note_on_c, 5, 67, 0
12, 305040, Note_on_c, 5, 67, 115
12, 305280, Note_on_c, 5, 67, 0
12, 305280, Note_on_c, 5, 72, 115
12, 305760, Note_on_c, 5, 72, 0
12, 306240, Note_on_c, 5, 60, 115
12, 307200, Note_on_c, 5, 60, 0
12, 307200, Note_on_c, 5, 60, 115
12, 308160, Note_on_c, 5, 60, 0
12, 310080, Note_on_c, 5, 60, 115
12, 311040, Note_on_c, 5, 60, 0
12, 311040, Note_on_c, 5, 60, 115
12, 312000, Note_on_c, 5, 60, 0
12, 337200, Note_on_c, 5, 74, 123
12, 337440, Note_on_c, 5, 74, 0
12, 337440, Note_on_c, 5, 74, 123
12, 337680, Note_on_c, 5, 74, 0
12, 337680, Note_on_c, 5, 74, 123
12, 337920, Note_on_c, 5, 74, 0
12, 337920, Note_on_c, 5, 74, 123
12, 338880, Note_on_c, 5, 74, 0
12, 338880, Note_on_c, 5, 74, 123
12, 339840, Note_on_c, 5, 74, 0
12, 339840, Note_on_c, 5, 74, 123
12, 341760, Note_on_c, 5, 74, 0
12, 356400, Note_on_c, 5, 79, 123
12, 356640, Note_on_c, 5, 79, 0
12, 356640, Note_on_c, 5, 79, 123
12, 356880, Note_on_c, 5, 79, 0
12, 356880, Note_on_c, 5, 79, 123
12, 357120, Note_on_c, 5, 79, 0
12, 357120, Note_on_c, 5, 79, 123
12, 358080, Note_on_c, 5, 79, 0
12, 358320, Note_on_c, 5, 79, 123
12, 358560, Note_on_c, 5, 79, 0
12, 358560, Note_on_c, 5, 79, 123
12, 358800, Note_on_c, 5, 79, 0
12, 358800, Note_on_c, 5, 79, 123
12, 359040, Note_on_c, 5, 79, 0
12, 359040, Note_on_c, 5, 79, 123
12, 360960, Note_on_c, 5, 79, 0
12, 374400, Note_on_c, 5, 72, 91
12, 374880, Note_on_c, 5, 72, 0
12, 375360, Note_on_c, 5, 67, 115
12, 375840, Note_on_c, 5, 67, 0
12, 388800, Note_on_c, 5, 72, 115
12, 389280, Note_on_c, 5, 72, 0
12, 390720, Note_on_c, 5, 72, 115
12, 391200, Note_on_c, 5, 72, 0
12, 397440, Note_on_c, 5, 72, 115
12, 397920, Note_on_c, 5, 72, 0
12, 398400, Note_on_c, 5, 72, 115
12, 398880, Note_on_c, 5, 72, 0
12, 401760, Note_on_c, 5, 72, 115
12, 402000, Note_on_c, 5, 72, 0
12, 402000, Note_on_c, 5, 72, 115
12, 402240, Note_on_c, 5, 72, 0
12, 402240, Note_on_c, 5, 67, 115
12, 402720, Note_on_c, 5, 67, 0
12, 405600, Note_on_c, 5, 72, 115
12, 405840, Note_on_c, 5, 72, 0
12, 405840, Note_on_c, 5, 72, 115
12, 406080, Note_on_c, 5, 72, 0
12, 406080, Note_on_c, 5, 72, 123
12, 409920, Note_on_c, 5, 72, 0
12, 409920, Note_on_c, 5, 72, 123
12, 410400, Note_on_c, 5, 72, 0
12, 411840, Note_on_c, 5, 67, 123
12, 412320, Note_on_c, 5, 67, 0
12, 454080, Note_on_c, 5, 74, 123
12, 455520, Note_on_c, 5, 74, 0
12, 455520, Note_on_c, 5, 74, 123
12, 456000, Note_on_c, 5, 74, 0
12, 456000, Note_on_c, 5, 72, 123
12, 456480, Note_on_c, 5, 72, 0
12, 456960, Note_on_c, 5, 67, 123
12, 457440, Note_on_c, 5, 67, 0
12, 457920, Note_on_c, 5, 72, 123
12, 458400, Note_on_c, 5, 72, 0
12, 458880, Note_on_c, 5, 72, 123
12, 459360, Note_on_c, 5, 72, 0
12, 459840, Note_on_c, 5, 72, 123
12, 460320, Note_on_c, 5, 72, 0
12, 460800, Note_on_c, 5, 67, 123
12, 461280, Note_on_c, 5, 67, 0
12, 461760, Note_on_c, 5, 74, 123
12, 463680, Note_on_c, 5, 74, 0
12, 463680, Note_on_c, 5, 76, 123
12, 464160, Note_on_c, 5, 76, 0
12, 464160, Note_on_c, 5, 72, 123
12, 464640, Note_on_c, 5, 72, 0
12, 465120, Note_on_c, 5, 67, 123
12, 465600, Note_on_c, 5, 67, 0
12, 466080, Note_on_c, 5, 72, 123
12, 466560, Note_on_c, 5, 72, 0
12, 467040, Note_on_c, 5, 72, 123
12, 467520, Note_on_c, 5, 72, 0
12, 468000, Note_on_c, 5, 76, 123
12, 468480, Note_on_c, 5, 76, 0
12, 468960, Note_on_c, 5, 74, 123
12, 469440, Note_on_c, 5, 74, 0
12, 469440, Note_on_c, 5, 72, 123
12, 469920, Note_on_c, 5, 72, 0
12, 472560, Note_on_c, 5, 67, 123
12, 472800, Note_on_c, 5, 67, 0
12, 472800, Note_on_c, 5, 67, 123
12, 473040, Note_on_c, 5, 67, 0
12, 473040, Note_on_c, 5, 67, 123
12, 473280, Note_on_c, 5, 67, 0
12, 473280, Note_on_c, 5, 72, 123
12, 473760, Note_on_c, 5, 72, 0
12, 476400, Note_on_c, 5, 67, 123
12, 476640, Note_on_c, 5, 67, 0
12, 476640, Note_on_c, 5, 67, 123
12, 476880, Note_on_c, 5, 67, 0
12, 476880, Note_on_c, 5, 67, 123
12, 477120, Note_on_c, 5, 67, 0
12, 477120, Note_on_c, 5, 72, 123
12, 477600, Note_on_c, 5, 72, 0
12, 478320, Note_on_c, 5, 67, 123
12, 478560, Note_on_c, 5, 67, 0
12, 478560, Note_on_c, 5, 67, 123
12, 478800, Note_on_c, 5, 67, 0
12, 478800, Note_on_c, 5, 67, 123
12, 479040, Note_on_c, 5, 67, 0
12, 479040, Note_on_c, 5, 72, 123
12, 479520, Note_on_c, 5, 72, 0
12, 480240, Note_on_c, 5, 67, 123
12, 480480, Note_on_c, 5, 67, 0
12, 480480, Note_on_c, 5, 67, 123
12, 480720, Note_on_c, 5, 67, 0
12, 480720, Note_on_c, 5, 67, 123
12, 480960, Note_on_c, 5, 67, 0
12, 480960, Note_on_c, 5, 72, 123
12, 481200, Note_on_c, 5, 72, 0
12, 481200, Note_on_c, 5, 72, 123
12, 481440, Note_on_c, 5, 72, 0
12, 481440, Note_on_c, 5, 72, 123
12, 481680, Note_on_c, 5, 72, 0
12, 481680, Note_on_c, 5, 72, 123
12, 481920, Note_on_c, 5, 72, 0
12, 481920, Note_on_c, 5, 72, 123
12, 483120, Note_on_c, 5, 72, 0
12, 483120, Note_on_c, 5, 72, 123
12, 483360, Note_on_c, 5, 72, 0
12, 483360, Note_on_c, 5, 72, 123
12, 483600, Note_on_c, 5, 72, 0
12, 483600, Note_on_c, 5, 72, 123
12, 483840, Note_on_c, 5, 72, 0
12, 483840, Note_on_c, 5, 72, 123
12, 485040, Note_on_c, 5, 72, 0
12, 485040, Note_on_c, 5, 72, 123
12, 485280, Note_on_c, 5, 72, 0
12, 485280, Note_on_c, 5, 72, 123
12, 485520, Note_on_c, 5, 72, 0
12, 485520, Note_on_c, 5, 72, 123
12, 485760, Note_on_c, 5, 72, 0
12, 485760, Note_on_c, 5, 72, 123
12, 486960, Note_on_c, 5, 72, 0
12, 486960, Note_on_c, 5, 72, 123
12, 487200, Note_on_c, 5, 72, 0
12, 487200, Note_on_c, 5, 72, 123
12, 487440, Note_on_c, 5, 72, 0
12, 487440, Note_on_c, 5, 72, 123
12, 487680, Note_on_c, 5, 72, 0
12, 487680, Note_on_c, 5, 72, 123
12, 488640, Note_on_c, 5, 72, 0
12, 496560, Note_on_c, 5, 72, 123
12, 496800, Note_on_c, 5, 72, 0
12, 496800, Note_on_c, 5, 72, 123
12, 497040, Note_on_c, 5, 72, 0
12, 497040, Note_on_c, 5, 72, 123
12, 497280, Note_on_c, 5, 72, 0
12, 497280, Note_on_c, 5, 72, 123
12, 501120, Note_on_c, 5, 72, 0
12, 501120, Note_on_c, 5, 72, 123
12, 501600, Note_on_c, 5, 72, 0
12, 502320, Note_on_c, 5, 72, 123
12, 502560, Note_on_c, 5, 72, 0
12, 502560, Note_on_c, 5, 72, 123
12, 502800, Note_on_c, 5, 72, 0
12, 502800, Note_on_c, 5, 72, 123
12, 503040, Note_on_c, 5, 72, 0
12, 503040, Note_on_c, 5, 72, 123
12, 503520, Note_on_c, 5, 72, 0
12, 504960, Note_on_c, 5, 67, 115
12, 505440, Note_on_c, 5, 67, 0
12, 508800, Note_on_c, 5, 67, 115
12, 509280, Note_on_c, 5, 67, 0
12, 520800, Note_on_c, 5, 67, 115
12, 521280, Note_on_c, 5, 67, 0
12, 521280, Note_on_c, 5, 67, 115
12, 521760, Note_on_c, 5, 67, 0
12, 521760, Note_on_c, 5, 67, 115
12, 522240, Note_on_c, 5, 67, 0
12, 522240, Note_on_c, 5, 67, 115
12, 522720, Note_on_c, 5, 67, 0
12, 522720, Note_on_c, 5, 67, 115
12, 523200, Note_on_c, 5, 67, 0
12, 523200, Note_on_c, 5, 67, 115
12, 523680, Note_on_c, 5, 67, 0
12, 523680, Note_on_c, 5, 72, 115
12, 524160, Note_on_c, 5, 72, 0
12, 524160, Note_on_c, 5, 72, 115
12, 524640, Note_on_c, 5, 72, 0
12, 524640, Note_on_c, 5, 72, 115
12, 525120, Note_on_c, 5, 72, 0
12, 525120, Note_on_c, 5, 72, 115
12, 525600, Note_on_c, 5, 72, 0
12, 525600, Note_on_c, 5, 67, 115
12, 526080, Note_on_c, 5, 67, 0
12, 526080, Note_on_c, 5, 67, 115
12, 526560, Note_on_c, 5, 67, 0
12, 526560, Note_on_c, 5, 67, 115
12, 527040, Note_on_c, 5, 67, 0
12, 527040, Note_on_c, 5, 67, 115
12, 527520, Note_on_c, 5, 67, 0
12, 527520, Note_on_c, 5, 67, 115
12, 528000, Note_on_c, 5, 67, 0
12, 528000, Note_on_c, 5, 72, 115
12, 529920, Note_on_c, 5, 72, 0
12, 529920, Note_on_c, 5, 72, 115
12, 531840, Note_on_c, 5, 72, 0
12, 531840, Note_on_c, 5, 72, 115
12, 533760, Note_on_c, 5, 72, 0
12, 533760, Note_on_c, 5, 72, 115
12, 535680, Note_on_c, 5, 72, 0
12, 535680, Note_on_c, 5, 67, 115
12, 536640, Note_on_c, 5, 67, 0
12, 536640, Note_on_c, 5, 67, 115
12, 537600, Note_on_c, 5, 67, 0
12, 537600, Note_on_c, 5, 72, 115
12, 538080, Note_on_c, 5, 72, 0
12, 538560, Note_on_c, 5, 72, 115
12, 539040, Note_on_c, 5, 72, 0
12, 539520, Note_on_c, 5, 72, 115
12, 540000, Note_on_c, 5, 72, 0
12, 540480, Note_on_c, 5, 72, 115
12, 540960, Note_on_c, 5, 72, 0
12, 541440, Note_on_c, 5, 67, 115
12, 541920, Note_on_c, 5, 67, 0
12, 542400, Note_on_c, 5, 67, 115
12, 542880, Note_on_c, 5, 67, 0
12, 543360, Note_on_c, 5, 72, 115
12, 544320, Note_on_c, 5, 72, 0
12, 544320, Note_on_c, 5, 72, 115
12, 544800, Note_on_c, 5, 72, 0
12, 544800, Note_on_c, 5, 72, 115
12, 545280, Note_on_c, 5, 72, 0
12, 545280, Note_on_c, 5, 72, 115
12, 546240, Note_on_c, 5, 72, 0
12, 546240, Note_on_c, 5, 72, 115
12, 546720, Note_on_c, 5, 72, 0
12, 546720, Note_on_c, 5, 72, 115
12, 547200, Note_on_c, 5, 72, 0
12, 547200, Note_on_c, 5, 72, 115
12, 548160, Note_on_c, 5, 72, 0
12, 548160, Note_on_c, 5, 72, 115
12, 548640, Note_on_c, 5, 72, 0
12, 548640, Note_on_c, 5, 72, 115
12, 549120, Note_on_c, 5, 72, 0
12, 549120, Note_on_c, 5, 72, 115
12, 550080, Note_on_c, 5, 72, 0
12, 550080, Note_on_c, 5, 67, 115
12, 550560, Note_on_c, 5, 67, 0
12, 550560, Note_on_c, 5, 67, 115
12, 551040, Note_on_c, 5, 67, 0
12, 551040, Note_on_c, 5, 67, 115
12, 552000, Note_on_c, 5, 67, 0
12, 552000, Note_on_c, 5, 67, 115
12, 552480, Note_on_c, 5, 67, 0
12, 552480, Note_on_c, 5, 67, 115
12, 552960, Note_on_c, 5, 67, 0
12, 552960, Note_on_c, 5, 67, 115
12, 553920, Note_on_c, 5, 67, 0
12, 553920, Note_on_c, 5, 67, 115
12, 554400, Note_on_c, 5, 67, 0
12, 554400, Note_on_c, 5, 67, 115
12, 554880, Note_on_c, 5, 67, 0
12, 554880, Note_on_c, 5, 67, 115
12, 555840, Note_on_c, 5, 67, 0
12, 555840, Note_on_c, 5, 67, 115
12, 556320, Note_on_c, 5, 67, 0
12, 556320, Note_on_c, 5, 67, 115
12, 556800, Note_on_c, 5, 67, 0
12, 556800, Note_on_c, 5, 67, 115
12, 557280, Note_on_c, 5, 67, 0
12, 559680, Note_on_c, 5, 72, 115
12, 560160, Note_on_c, 5, 72, 0
12, 560160, Note_on_c, 5, 72, 115
12, 560640, Note_on_c, 5, 72, 0
12, 561600, Note_on_c, 5, 72, 115
12, 562080, Note_on_c, 5, 72, 0
12, 562080, Note_on_c, 5, 72, 115
12, 562560, Note_on_c, 5, 72, 0
12, 563040, Note_on_c, 5, 67, 115
12, 563520, Note_on_c, 5, 67, 0
12, 564000, Note_on_c, 5, 67, 115
12, 564480, Note_on_c, 5, 67, 0
12, 566400, Note_on_c, 5, 72, 115
12, 566880, Note_on_c, 5, 72, 0
12, 566880, Note_on_c, 5, 72, 115
12, 567360, Note_on_c, 5, 72, 0
12, 567360, Note_on_c, 5, 72, 115
12, 567840, Note_on_c, 5, 72, 0
12, 567840, Note_on_c, 5, 72, 115
12, 568320, Note_on_c, 5, 72, 0
12, 568320, Note_on_c, 5, 72, 115
12, 568800, Note_on_c, 5, 72, 0
12, 568800, Note_on_c, 5, 72, 115
12, 569280, Note_on_c, 5, 72, 0
12, 569280, Note_on_c, 5, 72, 115
12, 569760, Note_on_c, 5, 72, 0
12, 569760, Note_on_c, 5, 72, 115
12, 570240, Note_on_c, 5, 72, 0
12, 570720, Note_on_c, 5, 67, 115
12, 571200, Note_on_c, 5, 67, 0
12, 571680, Note_on_c, 5, 67, 115
12, 572160, Note_on_c, 5, 67, 0
12, 572160, Note_on_c, 5, 72, 115
12, 572640, Note_on_c, 5, 72, 0
12, 577200, Note_on_c, 5, 67, 115
12, 577440, Note_on_c, 5, 67, 0
12, 577440, Note_on_c, 5, 67, 115
12, 577680, Note_on_c, 5, 67, 0
12, 577680, Note_on_c, 5, 67, 115
12, 577920, Note_on_c, 5, 67, 0
12, 577920, Note_on_c, 5, 72, 115
12, 578400, Note_on_c, 5, 72, 0
12, 581040, Note_on_c, 5, 67, 115
12, 581280, Note_on_c, 5, 67, 0
12, 581280, Note_on_c, 5, 67, 115
12, 581520, Note_on_c, 5, 67, 0
12, 581520, Note_on_c, 5, 67, 115
12, 581760, Note_on_c, 5, 67, 0
12, 581760, Note_on_c, 5, 67, 123
12, 582720, Note_on_c, 5, 67, 0
12, 582960, Note_on_c, 5, 67, 123
12, 583200, Note_on_c, 5, 67, 0
12, 583200, Note_on_c, 5, 67, 123
12, 583440, Note_on_c, 5, 67, 0
12, 583440, Note_on_c, 5, 67, 123
12, 583680, Note_on_c, 5, 67, 0
12, 583680, Note_on_c, 5, 67, 123
12, 585600, Note_on_c, 5, 67, 0
12, 593520, Note_on_c, 5, 67, 123
12, 593760, Note_on_c, 5, 67, 0
12, 593760, Note_on_c, 5, 67, 123
12, 594000, Note_on_c, 5, 67, 0
12, 594000, Note_on_c, 5, 67, 123
12, 594240, Note_on_c, 5, 67, 0
12, 594240, Note_on_c, 5, 72, 123
12, 594720, Note_on_c, 5, 72, 0
12, 595440, Note_on_c, 5, 67, 123
12, 595680, Note_on_c, 5, 67, 0
12, 595680, Note_on_c, 5, 67, 123
12, 595920, Note_on_c, 5, 67, 0
12, 595920, Note_on_c, 5, 67, 123
12, 596160, Note_on_c, 5, 67, 0
12, 596160, Note_on_c, 5, 72, 123
12, 596640, Note_on_c, 5, 72, 0
12, 597360, Note_on_c, 5, 67, 123
12, 597600, Note_on_c, 5, 67, 0
12, 597600, Note_on_c, 5, 67, 123
12, 597840, Note_on_c, 5, 67, 0
12, 597840, Note_on_c, 5, 67, 123
12, 598080, Note_on_c, 5, 67, 0
12, 598080, Note_on_c, 5, 72, 123
12, 598560, Note_on_c, 5, 72, 0
12, 598560, Note_on_c, 5, 67, 123
12, 599040, Note_on_c, 5, 67, 0
12, 599040, Note_on_c, 5, 72, 123
12, 599520, Note_on_c, 5, 72, 0
12, 599520, Note_on_c, 5, 67, 123
12, 600000, Note_on_c, 5, 67, 0
12, 600000, Note_on_c, 5, 72, 123
12, 600480, Note_on_c, 5, 72, 0
12, 600480, Note_on_c, 5, 67, 123
12, 600960, Note_on_c, 5, 67, 0
12, 600960, Note_on_c, 5, 72, 123
12, 601440, Note_on_c, 5, 72, 0
12, 601440, Note_on_c, 5, 67, 123
12, 601920, Note_on_c, 5, 67, 0
12, 601920, Note_on_c, 5, 72, 123
12, 602400, Note_on_c, 5, 72, 0
12, 602880, Note_on_c, 5, 67, 123
12, 603360, Note_on_c, 5, 67, 0
12, 603840, Note_on_c, 5, 60, 123
12, 604320, Note_on_c, 5, 60, 0
12, 604320, End_track
13, 0, Start_track
13, 0, MIDI_port, 0
13, 0, Title_t, "Trumpet 2"
13, 16560, Note_on_c, 5, 55, 91
13, 16800, Note_on_c, 5, 55, 0
13, 16800, Note_on_c, 5, 55, 101
13, 17040, Note_on_c, 5, 55, 0
13, 17040, Note_on_c, 5, 55, 109
13, 17280, Note_on_c, 5, 55, 0
13, 17280, Note_on_c, 5, 60, 115
13, 17760, Note_on_c, 5, 60, 0
13, 18240, Note_on_c, 5, 60, 115
13, 18720, Note_on_c, 5, 60, 0
13, 19200, Note_on_c, 5, 55, 115
13, 19680, Note_on_c, 5, 55, 0
13, 40320, Note_on_c, 5, 60, 115
13, 40800, Note_on_c, 5, 60, 0
13, 41280, Note_on_c, 5, 60, 115
13, 41760, Note_on_c, 5, 60, 0
13, 44640, Note_on_c, 5, 60, 115
13, 44880, Note_on_c, 5, 60, 0
13, 44880, Note_on_c, 5, 60, 115
13, 45120, Note_on_c, 5, 60, 0
13, 45120, Note_on_c, 5, 55, 115
13, 45600, Note_on_c, 5, 55, 0
13, 48480, Note_on_c, 5, 60, 115
13, 48720, Note_on_c, 5, 60, 0
13, 48720, Note_on_c, 5, 60, 115
13, 48960, Note_on_c, 5, 60, 0
13, 48960, Note_on_c, 5, 60, 123
13, 52800, Note_on_c, 5, 60, 0
13, 52800, Note_on_c, 5, 60, 123
13, 53280, Note_on_c, 5, 60, 0
13, 89280, Note_on_c, 5, 77, 123
13, 90720, Note_on_c, 5, 77, 0
13, 93120, Note_on_c, 5, 55, 115
13, 93600, Note_on_c, 5, 55, 0
13, 94080, Note_on_c, 5, 60, 115
13, 94560, Note_on_c, 5, 60, 0
13, 96960, Note_on_c, 5, 77, 123
13, 98880, Note_on_c, 5, 77, 0
13, 98880, Note_on_c, 5, 79, 123
13, 99360, Note_on_c, 5, 79, 0
13, 99360, Note_on_c, 5, 67, 123
13, 99840, Note_on_c, 5, 67, 0
13, 101280, Note_on_c, 5, 55, 123
13, 101760, Note_on_c, 5, 55, 0
13, 102240, Note_on_c, 5, 60, 123
13, 102720, Note_on_c, 5, 60, 0
13, 135600, Note_on_c, 5, 55, 91
13, 135840, Note_on_c, 5, 55, 0
13, 135840, Note_on_c, 5, 55, 101
13, 136080, Note_on_c, 5, 55, 0
13, 136080, Note_on_c, 5, 55, 109
13, 136320, Note_on_c, 5, 55, 0
13, 136320, Note_on_c, 5, 60, 115
13, 136800, Note_on_c, 5, 60, 0
13, 137280, Note_on_c, 5, 60, 115
13, 137760, Note_on_c, 5, 60, 0
13, 138240, Note_on_c, 5, 55, 115
13, 138720, Note_on_c, 5, 55, 0
13, 159360, Note_on_c, 5, 60, 115
13, 159840, Note_on_c, 5, 60, 0
13, 160320, Note_on_c, 5, 60, 115
13, 160800, Note_on_c, 5, 60, 0
13, 163680, Note_on_c, 5, 60, 115
13, 163920, Note_on_c, 5, 60, 0
13, 163920, Note_on_c, 5, 60, 115
13, 164160, Note_on_c, 5, 60, 0
13, 164160, Note_on_c, 5, 55, 115
13, 164640, Note_on_c, 5, 55, 0
13, 167520, Note_on_c, 5, 60, 115
13, 167760, Note_on_c, 5, 60, 0
13, 167760, Note_on_c, 5, 60, 115
13, 168000, Note_on_c, 5, 60, 0
13, 168000, Note_on_c, 5, 60, 123
13, 171840, Note_on_c, 5, 60, 0
13, 171840, Note_on_c, 5, 60, 123
13, 172320, Note_on_c, 5, 60, 0
13, 208320, Note_on_c, 5, 77, 123
13, 209760, Note_on_c, 5, 77, 0
13, 212160, Note_on_c, 5, 55, 115
13, 212640, Note_on_c, 5, 55, 0
13, 213120, Note_on_c, 5, 60, 115
13, 213600, Note_on_c, 5, 60, 0
13, 216000, Note_on_c, 5, 77, 123
13, 217920, Note_on_c, 5, 77, 0
13, 217920, Note_on_c, 5, 79, 123
13, 218400, Note_on_c, 5, 79, 0
13, 218400, Note_on_c, 5, 67, 123
13, 218880, Note_on_c, 5, 67, 0
13, 220320, Note_on_c, 5, 55, 123
13, 220800, Note_on_c, 5, 55, 0
13, 221280, Note_on_c, 5, 60, 123
13, 221760, Note_on_c, 5, 60, 0
13, 269760, Note_on_c, 5, 55, 78
13, 270240, Note_on_c, 5, 55, 0
13, 271680, Note_on_c, 5, 60, 78
13, 272160, Note_on_c, 5, 60, 0
13, 273600, Note_on_c, 5, 60, 78
13, 274080, Note_on_c, 5, 60, 0
13, 275520, Note_on_c, 5, 55, 78
13, 276000, Note_on_c, 5, 55, 0
13, 277440, Note_on_c, 5, 55, 78
13, 277920, Note_on_c, 5, 55, 0
13, 279360, Note_on_c, 5, 72, 115
13, 281280, Note_on_c, 5, 72, 0
13, 281280, Note_on_c, 5, 60, 115
13, 281760, Note_on_c, 5, 60, 0
13, 282480, Note_on_c, 5, 64, 115
13, 282720, Note_on_c, 5, 64, 0
13, 282720, Note_on_c, 5, 64, 115
13, 282960, Note_on_c, 5, 64, 0
13, 282960, Note_on_c, 5, 64, 115
13, 283200, Note_on_c, 5, 64, 0
13, 283200, Note_on_c, 5, 64, 115
13, 285120, Note_on_c, 5, 64, 0
13, 285120, Note_on_c, 5, 64, 115
13, 285600, Note_on_c, 5, 64, 0
13, 286320, Note_on_c, 5, 67, 115
13, 286560, Note_on_c, 5, 67, 0
13, 286560, Note_on_c, 5, 67, 115
13, 286800, Note_on_c, 5, 67, 0
13, 286800, Note_on_c, 5, 67, 115
13, 287040, Note_on_c, 5, 67, 0
13, 287040, Note_on_c, 5, 67, 115
13, 287520, Note_on_c, 5, 67, 0
13, 288480, Note_on_c, 5, 67, 115
13, 288720, Note_on_c, 5, 67, 0
13, 288720, Note_on_c, 5, 67, 115
13, 288960, Note_on_c, 5, 67, 0
13, 288960, Note_on_c, 5, 67, 115
13, 289440, Note_on_c, 5, 67, 0
13, 289920, Note_on_c, 5, 74, 115
13, 290400, Note_on_c, 5, 74, 0
13, 293280, Note_on_c, 5, 60, 115
13, 293520, Note_on_c, 5, 60, 0
13, 293520, Note_on_c, 5, 60, 115
13, 293760, Note_on_c, 5, 60, 0
13, 293760, Note_on_c, 5, 60, 115
13, 294240, Note_on_c, 5, 60, 0
13, 297120, Note_on_c, 5, 74, 115
13, 297360, Note_on_c, 5, 74, 0
13, 297360, Note_on_c, 5, 74, 115
13, 297600, Note_on_c, 5, 74, 0
13, 297600, Note_on_c, 5, 67, 115
13, 298080, Note_on_c, 5, 67, 0
13, 304800, Note_on_c, 5, 55, 115
13, 305040, Note_on_c, 5, 55, 0
13, 305040, Note_on_c, 5, 55, 115
13, 305280, Note_on_c, 5, 55, 0
13, 305280, Note_on_c, 5, 60, 115
13, 305760, Note_on_c, 5, 60, 0
13, 306240, Note_on_c, 5, 60, 115
13, 307200, Note_on_c, 5, 60, 0
13, 307200, Note_on_c, 5, 60, 115
13, 308160, Note_on_c, 5, 60, 0
13, 310080, Note_on_c, 5, 60, 115
13, 311040, Note_on_c, 5, 60, 0
13, 311040, Note_on_c, 5, 60, 115
13, 312000, Note_on_c, 5, 60, 0
13, 337200, Note_on_c, 5, 74, 123
13, 337440, Note_on_c, 5, 74, 0
13, 337440, Note_on_c, 5, 74, 123
13, 337680, Note_on_c, 5, 74, 0
13, 337680, Note_on_c, 5, 74, 123
13, 337920, Note_on_c, 5, 74, 0
13, 337920, Note_on_c, 5, 74, 123
13, 338880, Note_on_c, 5, 74, 0
13, 338880, Note_on_c, 5, 74, 123
13, 339840, Note_on_c, 5, 74, 0
13, 339840, Note_on_c, 5, 74, 123
13, 341760, Note_on_c, 5, 74, 0
13, 356400, Note_on_c, 5, 79, 123
13, 356640, Note_on_c, 5, 79, 0
13, 356640, Note_on_c, 5, 79, 123
13, 356880, Note_on_c, 5, 79, 0
13, 356880, Note_on_c, 5, 79, 123
13, 357120, Note_on_c, 5, 79, 0
13, 357120, Note_on_c, 5, 79, 123
13, 358080, Note_on_c, 5, 79, 0
13, 358320, Note_on_c, 5, 79, 123
13, 358560, Note_on_c, 5, 79, 0
13, 358560, Note_on_c, 5, 79, 123
13, 358800, Note_on_c, 5, 79, 0
13, 358800, Note_on_c, 5, 79, 123
13, 359040, Note_on_c, 5, 79, 0
13, 359040, Note_on_c, 5, 79, 123
13, 360960, Note_on_c, 5, 79, 0
13, 374400, Note_on_c, 5, 60, 91
13, 374880, Note_on_c, 5, 60, 0
13, 375360, Note_on_c, 5, 55, 115
13, 375840, Note_on_c, 5, 55, 0
13, 388800, Note_on_c, 5, 60, 115
13, 389280, Note_on_c, 5, 60, 0
13, 390720, Note_on_c, 5, 60, 115
13, 391200, Note_on_c, 5, 60, 0
13, 397440, Note_on_c, 5, 60, 115
13, 397920, Note_on_c, 5, 60, 0
13, 398400, Note_on_c, 5, 60, 115
13, 398880, Note_on_c, 5, 60, 0
13, 401760, Note_on_c, 5, 60, 115
13, 402000, Note_on_c, 5, 60, 0
13, 402000, Note_on_c, 5, 60, 115
13, 402240, Note_on_c, 5, 60, 0
13, 402240, Note_on_c, 5, 55, 115
13, 402720, Note_on_c, 5, 55, 0
13, 405600, Note_on_c, 5, 60, 115
13, 405840, Note_on_c, 5, 60, 0
13, 405840, Note_on_c, 5, 60, 115
13, 406080, Note_on_c, 5, 60, 0
13, 406080, Note_on_c, 5, 60, 123
13, 409920, Note_on_c, 5, 60, 0
13, 409920, Note_on_c, 5, 60, 123
13, 410400, Note_on_c, 5, 60, 0
13, 411840, Note_on_c, 5, 55, 123
13, 412320, Note_on_c, 5, 55, 0
13, 454080, Note_on_c, 5, 67, 123
13, 455520, Note_on_c, 5, 67, 0
13, 455520, Note_on_c, 5, 67, 123
13, 456000, Note_on_c, 5, 67, 0
13, 456000, Note_on_c, 5, 64, 123
13, 456480, Note_on_c, 5, 64, 0
13, 456960, Note_on_c, 5, 55, 123
13, 457440, Note_on_c, 5, 55, 0
13, 457920, Note_on_c, 5, 60, 123
13, 458400, Note_on_c, 5, 60, 0
13, 458880, Note_on_c, 5, 60, 123
13, 459360, Note_on_c, 5, 60, 0
13, 459840, Note_on_c, 5, 60, 123
13, 460320, Note_on_c, 5, 60, 0
13, 460800, Note_on_c, 5, 55, 123
13, 461280, Note_on_c, 5, 55, 0
13, 461760, Note_on_c, 5, 67, 123
13, 463680, Note_on_c, 5, 67, 0
13, 463680, Note_on_c, 5, 72, 123
13, 464160, Note_on_c, 5, 72, 0
13, 464160, Note_on_c, 5, 60, 123
13, 464640, Note_on_c, 5, 60, 0
13, 465120, Note_on_c, 5, 55, 123
13, 465600, Note_on_c, 5, 55, 0
13, 466080, Note_on_c, 5, 60, 123
13, 466560, Note_on_c, 5, 60, 0
13, 467040, Note_on_c, 5, 60, 123
13, 467520, Note_on_c, 5, 60, 0
13, 468000, Note_on_c, 5, 72, 123
13, 468480, Note_on_c, 5, 72, 0
13, 468960, Note_on_c, 5, 67, 123
13, 469440, Note_on_c, 5, 67, 0
13, 469440, Note_on_c, 5, 64, 123
13, 469920, Note_on_c, 5, 64, 0
13, 472560, Note_on_c, 5, 55, 123
13, 472800, Note_on_c, 5, 55, 0
13, 472800, Note_on_c, 5, 55, 123
13, 473040, Note_on_c, 5, 55, 0
13, 473040, Note_on_c, 5, 55, 123
13, 473280, Note_on_c, 5, 55, 0
13, 473280, Note_on_c, 5, 60, 123
13, 473760, Note_on_c, 5, 60, 0
13, 476400, Note_on_c, 5, 55, 123
13, 476640, Note_on_c, 5, 55, 0
13, 476640, Note_on_c, 5, 55, 123
13, 476880, Note_on_c, 5, 55, 0
13, 476880, Note_on_c, 5, 55, 123
13, 477120, Note_on_c, 5, 55, 0
13, 477120, Note_on_c, 5, 60, 123
13, 477600, Note_on_c, 5, 60, 0
13, 478320, Note_on_c, 5, 55, 123
13, 478560, Note_on_c, 5, 55, 0
13, 478560, Note_on_c, 5, 55, 123
13, 478800, Note_on_c, 5, 55, 0
13, 478800, Note_on_c, 5, 55, 123
13, 479040, Note_on_c, 5, 55, 0
13, 479040, Note_on_c, 5, 60, 123
13, 479520, Note_on_c, 5, 60, 0
13, 480240, Note_on_c, 5, 55, 123
13, 480480, Note_on_c, 5, 55, 0
13, 480480, Note_on_c, 5, 55, 123
13, 480720, Note_on_c, 5, 55, 0
13, 480720, Note_on_c, 5, 55, 123
13, 480960, Note_on_c, 5, 55, 0
13, 480960, Note_on_c, 5, 60, 123
13, 481200, Note_on_c, 5, 60, 0
13, 481200, Note_on_c, 5, 60, 123
13, 481440, Note_on_c, 5, 60, 0
13, 481440, Note_on_c, 5, 60, 123
13, 481680, Note_on_c, 5, 60, 0
13, 481680, Note_on_c, 5, 60, 123
13, 481920, Note_on_c, 5, 60, 0
13, 481920, Note_on_c, 5, 60, 123
13, 483120, Note_on_c, 5, 60, 0
13, 483120, Note_on_c, 5, 60, 123
13, 483360, Note_on_c, 5, 60, 0
13, 483360, Note_on_c, 5, 60, 123
13, 483600, Note_on_c, 5, 60, 0
13, 483600, Note_on_c, 5, 60, 123
13, 483840, Note_on_c, 5, 60, 0
13, 483840, Note_on_c, 5, 60, 123
13, 485040, Note_on_c, 5, 60, 0
13, 485040, Note_on_c, 5, 60, 123
13, 485280, Note_on_c, 5, 60, 0
13, 485280, Note_on_c, 5, 60, 123
13, 485520, Note_on_c, 5, 60, 0
13, 485520, Note_on_c, 5, 60, 123
13, 485760, Note_on_c, 5, 60, 0
13, 485760, Note_on_c, 5, 60, 123
13, 486960, Note_on_c, 5, 60, 0
13, 486960, Note_on_c, 5, 60, 123
13, 487200, Note_on_c, 5, 60, 0
13, 487200, Note_on_c, 5, 60, 123
13, 487440, Note_on_c, 5, 60, 0
13, 487440, Note_on_c, 5, 60, 123
13, 487680, Note_on_c, 5, 60, 0
13, 487680, Note_on_c, 5, 60, 123
13, 488640, Note_on_c, 5, 60, 0
13, 496560, Note_on_c, 5, 60, 123
13, 496800, Note_on_c, 5, 60, 0
13, 496800, Note_on_c, 5, 60, 123
13, 497040, Note_on_c, 5, 60, 0
13, 497040, Note_on_c, 5, 60, 123
13, 497280, Note_on_c, 5, 60, 0
13, 497280, Note_on_c, 5, 60, 123
13, 501120, Note_on_c, 5, 60, 0
13, 501120, Note_on_c, 5, 60, 123
13, 501600, Note_on_c, 5, 60, 0
13, 502320, Note_on_c, 5, 60, 123
13, 502560, Note_on_c, 5, 60, 0
13, 502560, Note_on_c, 5, 60, 123
13, 502800, Note_on_c, 5, 60, 0
13, 502800, Note_on_c, 5, 60, 123
13, 503040, Note_on_c, 5, 60, 0
13, 503040, Note_on_c, 5, 60, 123
13, 503520, Note_on_c, 5, 60, 0
13, 504960, Note_on_c, 5, 55, 115
13, 505440, Note_on_c, 5, 55, 0
13, 508800, Note_on_c, 5, 55, 115
13, 509280, Note_on_c, 5, 55, 0
13, 520800, Note_on_c, 5, 55, 115
13, 521280, Note_on_c, 5, 55, 0
13, 521280, Note_on_c, 5, 55, 115
13, 521760, Note_on_c, 5, 55, 0
13, 521760, Note_on_c, 5, 55, 115
13, 522240, Note_on_c, 5, 55, 0
13, 522240, Note_on_c, 5, 55, 115
13, 522720, Note_on_c, 5, 55, 0
13, 522720, Note_on_c, 5, 55, 115
13, 523200, Note_on_c, 5, 55, 0
13, 523200, Note_on_c, 5, 55, 115
13, 523680, Note_on_c, 5, 55, 0
13, 523680, Note_on_c, 5, 60, 115
13, 524160, Note_on_c, 5, 60, 0
13, 524160, Note_on_c, 5, 60, 115
13, 524640, Note_on_c, 5, 60, 0
13, 524640, Note_on_c, 5, 60, 115
13, 525120, Note_on_c, 5, 60, 0
13, 525120, Note_on_c, 5, 60, 115
13, 525600, Note_on_c, 5, 60, 0
13, 525600, Note_on_c, 5, 55, 115
13, 526080, Note_on_c, 5, 55, 0
13, 526080, Note_on_c, 5, 55, 115
13, 526560, Note_on_c, 5, 55, 0
13, 526560, Note_on_c, 5, 55, 115
13, 527040, Note_on_c, 5, 55, 0
13, 527040, Note_on_c, 5, 55, 115
13, 527520, Note_on_c, 5, 55, 0
13, 527520, Note_on_c, 5, 55, 115
13, 528000, Note_on_c, 5, 55, 0
13, 528000, Note_on_c, 5, 60, 115
13, 529920, Note_on_c, 5, 60, 0
13, 529920, Note_on_c, 5, 60, 115
13, 531840, Note_on_c, 5, 60, 0
13, 531840, Note_on_c, 5, 60, 115
13, 533760, Note_on_c, 5, 60, 0
13, 533760, Note_on_c, 5, 60, 115
13, 535680, Note_on_c, 5, 60, 0
13, 535680, Note_on_c, 5, 55, 115
13, 536640, Note_on_c, 5, 55, 0
13, 536640, Note_on_c, 5, 55, 115
13, 537600, Note_on_c, 5, 55, 0
13, 537600, Note_on_c, 5, 60, 115
13, 538080, Note_on_c, 5, 60, 0
13, 538560, Note_on_c, 5, 60, 115
13, 539040, Note_on_c, 5, 60, 0
13, 539520, Note_on_c, 5, 60, 115
13, 540000, Note_on_c, 5, 60, 0
13, 540480, Note_on_c, 5, 60, 115
13, 540960, Note_on_c, 5, 60, 0
13, 541440, Note_on_c, 5, 55, 115
13, 541920, Note_on_c, 5, 55, 0
13, 542400, Note_on_c, 5, 55, 115
13, 542880, Note_on_c, 5, 55, 0
13, 543360, Note_on_c, 5, 60, 115
13, 544320, Note_on_c, 5, 60, 0
13, 544320, Note_on_c, 5, 60, 115
13, 544800, Note_on_c, 5, 60, 0
13, 544800, Note_on_c, 5, 60, 115
13, 545280, Note_on_c, 5, 60, 0
13, 545280, Note_on_c, 5, 60, 115
13, 546240, Note_on_c, 5, 60, 0
13, 546240, Note_on_c, 5, 60, 115
13, 546720, Note_on_c, 5, 60, 0
13, 546720, Note_on_c, 5, 60, 115
13, 547200, Note_on_c, 5, 60, 0
13, 547200, Note_on_c, 5, 60, 115
13, 548160, Note_on_c, 5, 60, 0
13, 548160, Note_on_c, 5, 60, 115
13, 548640, Note_on_c, 5, 60, 0
13, 548640, Note_on_c, 5, 60, 115
13, 549120, Note_on_c, 5, 60, 0
13, 549120, Note_on_c, 5, 60, 115
13, 550080, Note_on_c, 5, 60, 0
13, 550080, Note_on_c, 5, 55, 115
13, 550560, Note_on_c, 5, 55, 0
13, 550560, Note_on_c, 5, 55, 115
13, 551040, Note_on_c, 5, 55, 0
13, 551040, Note_on_c, 5, 55, 115
13, 552000, Note_on_c, 5, 55, 0
13, 552000, Note_on_c, 5, 55, 115
13, 552480, Note_on_c, 5, 55, 0
13, 552480, Note_on_c, 5, 55, 115
13, 552960, Note_on_c, 5, 55, 0
13, 552960, Note_on_c, 5, 55, 115
13, 553920, Note_on_c, 5, 55, 0
13, 553920, Note_on_c, 5, 55, 115
13, 554400, Note_on_c, 5, 55, 0
13, 554400, Note_on_c, 5, 55, 115
13, 554880, Note_on_c, 5, 55, 0
13, 554880, Note_on_c, 5, 55, 115
13, 555840, Note_on_c, 5, 55, 0
13, 555840, Note_on_c, 5, 55, 115
13, 556320, Note_on_c, 5, 55, 0
13, 556320, Note_on_c, 5, 55, 115
13, 556800, Note_on_c, 5, 55, 0
13, 556800, Note_on_c, 5, 60, 115
13, 557280, Note_on_c, 5, 60, 0
13, 559680, Note_on_c, 5, 60, 115
13, 560160, Note_on_c, 5, 60, 0
13, 560160, Note_on_c, 5, 60, 115
13, 560640, Note_on_c, 5, 60, 0
13, 561600, Note_on_c, 5, 60, 115
13, 562080, Note_on_c, 5, 60, 0
13, 562080, Note_on_c, 5, 60, 115
13, 562560, Note_on_c, 5, 60, 0
13, 563040, Note_on_c, 5, 55, 115
13, 563520, Note_on_c, 5, 55, 0
13, 564000, Note_on_c, 5, 55, 115
13, 564480, Note_on_c, 5, 55, 0
13, 566400, Note_on_c, 5, 60, 115
13, 566880, Note_on_c, 5, 60, 0
13, 566880, Note_on_c, 5, 60, 115
13, 567360, Note_on_c, 5, 60, 0
13, 567360, Note_on_c, 5, 60, 115
13, 567840, Note_on_c, 5, 60, 0
13, 567840, Note_on_c, 5, 60, 115
13, 568320, Note_on_c, 5, 60, 0
13, 568320, Note_on_c, 5, 60, 115
13, 568800, Note_on_c, 5, 60, 0
13, 568800, Note_on_c, 5, 60, 115
13, 569280, Note_on_c, 5, 60, 0
13, 569280, Note_on_c, 5, 60, 115
13, 569760, Note_on_c, 5, 60, 0
13, 569760, Note_on_c, 5, 60, 115
13, 570240, Note_on_c, 5, 60, 0
13, 570720, Note_on_c, 5, 55, 115
13, 571200, Note_on_c, 5, 55, 0
13, 571680, Note_on_c, 5, 55, 115
13, 572160, Note_on_c, 5, 55, 0
13, 572160, Note_on_c, 5, 60, 115
13, 572640, Note_on_c, 5, 60, 0
13, 577200, Note_on_c, 5, 55, 115
13, 577440, Note_on_c, 5, 55, 0
13, 577440, Note_on_c, 5, 55, 115
13, 577680, Note_on_c, 5, 55, 0
13, 577680, Note_on_c, 5, 55, 115
13, 577920, Note_on_c, 5, 55, 0
13, 577920, Note_on_c, 5, 60, 115
13, 578400, Note_on_c, 5, 60, 0
13, 581040, Note_on_c, 5, 55, 115
13, 581280, Note_on_c, 5, 55, 0
13, 581280, Note_on_c, 5, 55, 115
13, 581520, Note_on_c, 5, 55, 0
13, 581520, Note_on_c, 5, 55, 115
13, 581760, Note_on_c, 5, 55, 0
13, 581760, Note_on_c, 5, 55, 123
13, 582720, Note_on_c, 5, 55, 0
13, 582960, Note_on_c, 5, 55, 123
13, 583200, Note_on_c, 5, 55, 0
13, 583200, Note_on_c, 5, 55, 123
13, 583440, Note_on_c, 5, 55, 0
13, 583440, Note_on_c, 5, 55, 123
13, 583680, Note_on_c, 5, 55, 0
13, 583680, Note_on_c, 5, 55, 123
13, 585600, Note_on_c, 5, 55, 0
13, 593520, Note_on_c, 5, 55, 123
13, 593760, Note_on_c, 5, 55, 0
13, 593760, Note_on_c, 5, 55, 123
13, 594000, Note_on_c, 5, 55, 0
13, 594000, Note_on_c, 5, 55, 123
13, 594240, Note_on_c, 5, 55, 0
13, 594240, Note_on_c, 5, 60, 123
13, 594720, Note_on_c, 5, 60, 0
13, 595440, Note_on_c, 5, 55, 123
13, 595680, Note_on_c, 5, 55, 0
13, 595680, Note_on_c, 5, 55, 123
13, 595920, Note_on_c, 5, 55, 0
13, 595920, Note_on_c, 5, 55, 123
13, 596160, Note_on_c, 5, 55, 0
13, 596160, Note_on_c, 5, 60, 123
13, 596640, Note_on_c, 5, 60, 0
13, 597360, Note_on_c, 5, 55, 123
13, 597600, Note_on_c, 5, 55, 0
13, 597600, Note_on_c, 5, 55, 123
13, 597840, Note_on_c, 5, 55, 0
13, 597840, Note_on_c, 5, 55, 123
13, 598080, Note_on_c, 5, 55, 0
13, 598080, Note_on_c, 5, 60, 123
13, 598560, Note_on_c, 5, 60, 0
13, 598560, Note_on_c, 5, 55, 123
13, 599040, Note_on_c, 5, 55, 0
13, 599040, Note_on_c, 5, 60, 123
13, 599520, Note_on_c, 5, 60, 0
13, 599520, Note_on_c, 5, 55, 123
13, 600000, Note_on_c, 5, 55, 0
13, 600000, Note_on_c, 5, 60, 123
13, 600480, Note_on_c, 5, 60, 0
13, 600480, Note_on_c, 5, 55, 123
13, 600960, Note_on_c, 5, 55, 0
13, 600960, Note_on_c, 5, 60, 123
13, 601440, Note_on_c, 5, 60, 0
13, 601440, Note_on_c, 5, 55, 123
13, 601920, Note_on_c, 5, 55, 0
13, 601920, Note_on_c, 5, 60, 123
13, 602400, Note_on_c, 5, 60, 0
13, 602880, Note_on_c, 5, 55, 123
13, 603360, Note_on_c, 5, 55, 0
13, 603840, Note_on_c, 5, 60, 123
13, 604320, Note_on_c, 5, 60, 0
13, 604320, End_track
14, 0, Start_track
14, 0, MIDI_port, 0
14, 0, Title_t, "Tympani"
14, 0, Program_c, 6, 47
14, 16560, Note_on_c, 6, 43, 91
14, 16800, Note_on_c, 6, 43, 0
14, 16800, Note_on_c, 6, 43, 101
14, 17040, Note_on_c, 6, 43, 0
14, 17040, Note_on_c, 6, 43, 109
14, 17280, Note_on_c, 6, 43, 0
14, 17280, Note_on_c, 6, 48, 115
14, 17760, Note_on_c, 6, 48, 0
14, 18240, Note_on_c, 6, 48, 115
14, 18720, Note_on_c, 6, 48, 0
14, 19200, Note_on_c, 6, 43, 115
14, 19680, Note_on_c, 6, 43, 0
14, 40320, Note_on_c, 6, 48, 115
14, 40800, Note_on_c, 6, 48, 0
14, 41280, Note_on_c, 6, 48, 115
14, 41760, Note_on_c, 6, 48, 0
14, 44640, Note_on_c, 6, 48, 115
14, 44880, Note_on_c, 6, 48, 0
14, 44880, Note_on_c, 6, 48, 115
14, 45120, Note_on_c, 6, 48, 0
14, 45120, Note_on_c, 6, 43, 115
14, 45600, Note_on_c, 6, 43, 0
14, 48480, Note_on_c, 6, 48, 115
14, 48720, Note_on_c, 6, 48, 0
14, 48720, Note_on_c, 6, 48, 115
14, 48960, Note_on_c, 6, 48, 0
14, 48960, Note_on_c, 6, 48, 123
14, 49200, Note_on_c, 6, 48, 0
14, 49200, Note_on_c, 6, 48, 123
14, 49440, Note_on_c, 6, 48, 0
14, 49440, Note_on_c, 6, 48, 123
14, 49680, Note_on_c, 6, 48, 0
14, 49680, Note_on_c, 6, 48, 123
14, 49920, Note_on_c, 6, 48, 0
14, 49920, Note_on_c, 6, 48, 123
14, 50160, Note_on_c, 6, 48, 0
14, 50160, Note_on_c, 6, 48, 123
14, 50400, Note_on_c, 6, 48, 0
14, 50400, Note_on_c, 6, 48, 123
14, 50640, Note_on_c, 6, 48, 0
14, 50640, Note_on_c, 6, 48, 123
14, 50880, Note_on_c, 6, 48, 0
14, 50880, Note_on_c, 6, 48, 123
14, 51120, Note_on_c, 6, 48, 0
14, 51120, Note_on_c, 6, 48, 123
14, 51360, Note_on_c, 6, 48, 0
14, 51360, Note_on_c, 6, 48, 123
14, 51600, Note_on_c, 6, 48, 0
14, 51600, Note_on_c, 6, 48, 123
14, 51840, Note_on_c, 6, 48, 0
14, 51840, Note_on_c, 6, 48, 123
14, 52080, Note_on_c, 6, 48, 0
14, 52080, Note_on_c, 6, 48, 123
14, 52320, Note_on_c, 6, 48, 0
14, 52320, Note_on_c, 6, 48, 123
14, 52560, Note_on_c, 6, 48, 0
14, 52560, Note_on_c, 6, 48, 123
14, 52800, Note_on_c, 6, 48, 0
14, 52800, Note_on_c, 6, 48, 123
14, 53280, Note_on_c, 6, 48, 0
14, 93120, Note_on_c, 6, 43, 115
14, 93600, Note_on_c, 6, 43, 0
14, 94080, Note_on_c, 6, 48, 115
14, 94560, Note_on_c, 6, 48, 0
14, 99360, Note_on_c, 6, 43, 115
14, 99840, Note_on_c, 6, 43, 0
14, 101280, Note_on_c, 6, 43, 115
14, 101760, Note_on_c, 6, 43, 0
14, 102240, Note_on_c, 6, 48, 115
14, 102720, Note_on_c, 6, 48, 0
14, 135600, Note_on_c, 6, 43, 91
14, 135840, Note_on_c, 6, 43, 0
14, 135840, Note_on_c, 6, 43, 101
14, 136080, Note_on_c, 6, 43, 0
14, 136080, Note_on_c, 6, 43, 109
14, 136320, Note_on_c, 6, 43, 0
14, 136320, Note_on_c, 6, 48, 115
14, 136800, Note_on_c, 6, 48, 0
14, 137280, Note_on_c, 6, 48, 115
14, 137760, Note_on_c, 6, 48, 0
14, 138240, Note_on_c, 6, 43, 115
14, 138720, Note_on_c, 6, 43, 0
14, 159360, Note_on_c, 6, 48, 115
14, 159840, Note_on_c, 6, 48, 0
14, 160320, Note_on_c, 6, 48, 115
14, 160800, Note_on_c, 6, 48, 0
14, 163680, Note_on_c, 6, 48, 115
14, 163920, Note_on_c, 6, 48, 0
14, 163920, Note_on_c, 6, 48, 115
14, 164160, Note_on_c, 6, 48, 0
14, 164160, Note_on_c, 6, 43, 115
14, 164640, Note_on_c, 6, 43, 0
14, 167520, Note_on_c, 6, 48, 115
14, 167760, Note_on_c, 6, 48, 0
14, 167760, Note_on_c, 6, 48, 115
14, 168000, Note_on_c, 6, 48, 0
14, 168000, Note_on_c, 6, 48, 123
14, 168240, Note_on_c, 6, 48, 0
14, 168240, Note_on_c, 6, 48, 123
14, 168480, Note_on_c, 6, 48, 0
14, 168480, Note_on_c, 6, 48, 123
14, 168720, Note_on_c, 6, 48, 0
14, 168720, Note_on_c, 6, 48, 123
14, 168960, Note_on_c, 6, 48, 0
14, 168960, Note_on_c, 6, 48, 123
14, 169200, Note_on_c, 6, 48, 0
14, 169200, Note_on_c, 6, 48, 123
14, 169440, Note_on_c, 6, 48, 0
14, 169440, Note_on_c, 6, 48, 123
14, 169680, Note_on_c, 6, 48, 0
14, 169680, Note_on_c, 6, 48, 123
14, 169920, Note_on_c, 6, 48, 0
14, 169920, Note_on_c, 6, 48, 123
14, 170160, Note_on_c, 6, 48, 0
14, 170160, Note_on_c, 6, 48, 123
14, 170400, Note_on_c, 6, 48, 0
14, 170400, Note_on_c, 6, 48, 123
14, 170640, Note_on_c, 6, 48, 0
14, 170640, Note_on_c, 6, 48, 123
14, 170880, Note_on_c, 6, 48, 0
14, 170880, Note_on_c, 6, 48, 123
14, 171120, Note_on_c, 6, 48, 0
14, 171120, Note_on_c, 6, 48, 123
14, 171360, Note_on_c, 6, 48, 0
14, 171360, Note_on_c, 6, 48, 123
14, 171600, Note_on_c, 6, 48, 0
14, 171600, Note_on_c, 6, 48, 123
14, 171840, Note_on_c, 6, 48, 0
14, 171840, Note_on_c, 6, 48, 123
14, 172320, Note_on_c, 6, 48, 0
14, 212160, Note_on_c, 6, 43, 115
14, 212640, Note_on_c, 6, 43, 0
14, 213120, Note_on_c, 6, 48, 115
14, 213600, Note_on_c, 6, 48, 0
14, 218400, Note_on_c, 6, 43, 115
14, 218880, Note_on_c, 6, 43, 0
14, 220320, Note_on_c, 6, 43, 115
14, 220800, Note_on_c, 6, 43, 0
14, 221280, Note_on_c, 6, 48, 115
14, 221760, Note_on_c, 6, 48, 0
14, 269760, Note_on_c, 6, 43, 78
14, 270240, Note_on_c, 6, 43, 0
14, 271680, Note_on_c, 6, 48, 78
14, 272160, Note_on_c, 6, 48, 0
14, 273600, Note_on_c, 6, 48, 78
14, 274080, Note_on_c, 6, 48, 0
14, 275520, Note_on_c, 6, 43, 78
14, 276000, Note_on_c, 6, 43, 0
14, 277440, Note_on_c, 6, 43, 78
14, 277920, Note_on_c, 6, 43, 0
14, 279360, Note_on_c, 6, 48, 115
14, 279600, Note_on_c, 6, 48, 0
14, 279600, Note_on_c, 6, 48, 115
14, 279840, Note_on_c, 6, 48, 0
14, 279840, Note_on_c, 6, 48, 115
14, 280080, Note_on_c, 6, 48, 0
14, 280080, Note_on_c, 6, 48, 115
14, 280320, Note_on_c, 6, 48, 0
14, 280320, Note_on_c, 6, 48, 115
14, 280560, Note_on_c, 6, 48, 0
14, 280560, Note_on_c, 6, 48, 115
14, 280800, Note_on_c, 6, 48, 0
14, 280800, Note_on_c, 6, 48, 115
14, 281040, Note_on_c, 6, 48, 0
14, 281040, Note_on_c, 6, 48, 115
14, 281280, Note_on_c, 6, 48, 0
14, 281280, Note_on_c, 6, 48, 115
14, 281760, Note_on_c, 6, 48, 0
14, 282480, Note_on_c, 6, 43, 115
14, 282720, Note_on_c, 6, 43, 0
14, 282720, Note_on_c, 6, 43, 115
14, 282960, Note_on_c, 6, 43, 0
14, 282960, Note_on_c, 6, 43, 115
14, 283200, Note_on_c, 6, 43, 0
14, 283200, Note_on_c, 6, 43, 115
14, 283440, Note_on_c, 6, 43, 0
14, 283440, Note_on_c, 6, 43, 115
14, 283680, Note_on_c, 6, 43, 0
14, 283680, Note_on_c, 6, 43, 115
14, 283920, Note_on_c, 6, 43, 0
14, 283920, Note_on_c, 6, 43, 115
14, 284160, Note_on_c, 6, 43, 0
14, 284160, Note_on_c, 6, 43, 115
14, 284400, Note_on_c, 6, 43, 0
14, 284400, Note_on_c, 6, 43, 115
14, 284640, Note_on_c, 6, 43, 0
14, 284640, Note_on_c, 6, 43, 115
14, 284880, Note_on_c, 6, 43, 0
14, 284880, Note_on_c, 6, 43, 115
14, 285120, Note_on_c, 6, 43, 0
14, 285120, Note_on_c, 6, 43, 115
14, 285600, Note_on_c, 6, 43, 0
14, 286320, Note_on_c, 6, 43, 115
14, 286560, Note_on_c, 6, 43, 0
14, 286560, Note_on_c, 6, 43, 115
14, 286800, Note_on_c, 6, 43, 0
14, 286800, Note_on_c, 6, 43, 115
14, 287040, Note_on_c, 6, 43, 0
14, 287040, Note_on_c, 6, 43, 115
14, 287520, Note_on_c, 6, 43, 0
14, 288480, Note_on_c, 6, 43, 115
14, 288720, Note_on_c, 6, 43, 0
14, 288720, Note_on_c, 6, 43, 115
14, 288960, Note_on_c, 6, 43, 0
14, 288960, Note_on_c, 6, 43, 115
14, 289440, Note_on_c, 6, 43, 0
14, 297600, Note_on_c, 6, 43, 115
14, 298080, Note_on_c, 6, 43, 0
14, 304800, Note_on_c, 6, 43, 115
14, 305040, Note_on_c, 6, 43, 0
14, 305040, Note_on_c, 6, 43, 115
14, 305280, Note_on_c, 6, 43, 0
14, 305280, Note_on_c, 6, 48, 115
14, 305760, Note_on_c, 6, 48, 0
14, 356400, Note_on_c, 6, 43, 123
14, 356640, Note_on_c, 6, 43, 0
14, 356640, Note_on_c, 6, 43, 123
14, 356880, Note_on_c, 6, 43, 0
14, 356880, Note_on_c, 6, 43, 123
14, 357120, Note_on_c, 6, 43, 0
14, 357120, Note_on_c, 6, 43, 123
14, 358080, Note_on_c, 6, 43, 0
14, 358320, Note_on_c, 6, 43, 123
14, 358560, Note_on_c, 6, 43, 0
14, 358560, Note_on_c, 6, 43, 123
14, 358800, Note_on_c, 6, 43, 0
14, 358800, Note_on_c, 6, 43, 123
14, 359040, Note_on_c, 6, 43, 0
14, 359040, Note_on_c, 6, 43, 123
14, 359160, Note_on_c, 6, 43, 0
14, 359160, Note_on_c, 6, 43, 123
14, 359280, Note_on_c, 6, 43, 0
14, 359280, Note_on_c, 6, 43, 123
14, 359400, Note_on_c, 6, 43, 0
14, 359400, Note_on_c, 6, 43, 123
14, 359520, Note_on_c, 6, 43, 0
14, 359520, Note_on_c, 6, 43, 123
14, 359640, Note_on_c, 6, 43, 0
14, 359640, Note_on_c, 6, 43, 123
14, 359760, Note_on_c, 6, 43, 0
14, 359760, Note_on_c, 6, 43, 123
14, 359880, Note_on_c, 6, 43, 0
14, 359880, Note_on_c, 6, 43, 123
14, 360000, Note_on_c, 6, 43, 0
14, 360000, Note_on_c, 6, 43, 123
14, 360120, Note_on_c, 6, 43, 0
14, 360120, Note_on_c, 6, 43, 123
14, 360240, Note_on_c, 6, 43, 0
14, 360240, Note_on_c, 6, 43, 123
14, 360360, Note_on_c, 6, 43, 0
14, 360360, Note_on_c, 6, 43, 123
14, 360480, Note_on_c, 6, 43, 0
14, 360480, Note_on_c, 6, 43, 123
14, 360600, Note_on_c, 6, 43, 0
14, 360600, Note_on_c, 6, 43, 123
14, 360720, Note_on_c, 6, 43, 0
14, 360720, Note_on_c, 6, 43, 123
14, 360840, Note_on_c, 6, 43, 0
14, 360840, Note_on_c, 6, 43, 123
14, 360960, Note_on_c, 6, 43, 0
14, 374400, Note_on_c, 6, 48, 91
14, 374880, Note_on_c, 6, 48, 0
14, 375360, Note_on_c, 6, 43, 115
14, 375840, Note_on_c, 6, 43, 0
14, 388800, Note_on_c, 6, 48, 115
14, 389280, Note_on_c, 6, 48, 0
14, 390720, Note_on_c, 6, 48, 115
14, 391200, Note_on_c, 6, 48, 0
14, 397440, Note_on_c, 6, 48, 115
14, 397920, Note_on_c, 6, 48, 0
14, 398400, Note_on_c, 6, 48, 115
14, 398880, Note_on_c, 6, 48, 0
14, 401760, Note_on_c, 6, 48, 115
14, 402000, Note_on_c, 6, 48, 0
14, 402000, Note_on_c, 6, 48, 115
14, 402240, Note_on_c, 6, 48, 0
14, 402240, Note_on_c, 6, 43, 115
14, 402720, Note_on_c, 6, 43, 0
14, 405600, Note_on_c, 6, 48, 115
14, 405840, Note_on_c, 6, 48, 0
14, 405840, Note_on_c, 6, 48, 115
14, 406080, Note_on_c, 6, 48, 0
14, 406080, Note_on_c, 6, 48, 123
14, 406320, Note_on_c, 6, 48, 0
14, 406320, Note_on_c, 6, 48, 123
14, 406560, Note_on_c, 6, 48, 0
14, 406560, Note_on_c, 6, 48, 123
14, 406800, Note_on_c, 6, 48, 0
14, 406800, Note_on_c, 6, 48, 123
14, 407040, Note_on_c, 6, 48, 0
14, 407040, Note_on_c, 6, 48, 123
14, 407280, Note_on_c, 6, 48, 0
14, 407280, Note_on_c, 6, 48, 123
14, 407520, Note_on_c, 6, 48, 0
14, 407520, Note_on_c, 6, 48, 123
14, 407760, Note_on_c, 6, 48, 0
14, 407760, Note_on_c, 6, 48, 123
14, 408000, Note_on_c, 6, 48, 0
14, 408000, Note_on_c, 6, 48, 123
14, 408240, Note_on_c, 6, 48, 0
14, 408240, Note_on_c, 6, 48, 123
14, 408480, Note_on_c, 6, 48, 0
14, 408480, Note_on_c, 6, 48, 123
14, 408720, Note_on_c, 6, 48, 0
14, 408720, Note_on_c, 6, 48, 123
14, 408960, Note_on_c, 6, 48, 0
14, 408960, Note_on_c, 6, 48, 123
14, 409200, Note_on_c, 6, 48, 0
14, 409200, Note_on_c, 6, 48, 123
14, 409440, Note_on_c, 6, 48, 0
14, 409440, Note_on_c, 6, 48, 123
14, 409680, Note_on_c, 6, 48, 0
14, 409680, Note_on_c, 6, 48, 123
14, 409920, Note_on_c, 6, 48, 0
14, 409920, Note_on_c, 6, 48, 123
14, 410400, Note_on_c, 6, 48, 0
14, 411840, Note_on_c, 6, 43, 123
14, 412320, Note_on_c, 6, 43, 0
14, 422640, Note_on_c, 6, 43, 91
14, 422880, Note_on_c, 6, 43, 0
14, 422880, Note_on_c, 6, 43, 91
14, 423120, Note_on_c, 6, 43, 0
14, 423120, Note_on_c, 6, 43, 91
14, 423360, Note_on_c, 6, 43, 0
14, 423360, Note_on_c, 6, 48, 91
14, 423840, Note_on_c, 6, 48, 0
14, 430320, Note_on_c, 6, 43, 91
14, 430560, Note_on_c, 6, 43, 0
14, 430560, Note_on_c, 6, 43, 91
14, 430800, Note_on_c, 6, 43, 0
14, 430800, Note_on_c, 6, 43, 91
14, 431040, Note_on_c, 6, 43, 0
14, 431040, Note_on_c, 6, 48, 91
14, 431520, Note_on_c, 6, 48, 0
14, 454080, Note_on_c, 6, 43, 123
14, 455520, Note_on_c, 6, 43, 0
14, 455520, Note_on_c, 6, 43, 123
14, 456000, Note_on_c, 6, 43, 0
14, 456000, Note_on_c, 6, 48, 123
14, 456480, Note_on_c, 6, 48, 0
14, 456960, Note_on_c, 6, 43, 123
14, 457440, Note_on_c, 6, 43, 0
14, 457920, Note_on_c, 6, 48, 123
14, 458400, Note_on_c, 6, 48, 0
14, 458880, Note_on_c, 6, 48, 123
14, 459360, Note_on_c, 6, 48, 0
14, 459840, Note_on_c, 6, 43, 123
14, 460320, Note_on_c, 6, 43, 0
14, 460800, Note_on_c, 6, 43, 123
14, 461280, Note_on_c, 6, 43, 0
14, 461760, Note_on_c, 6, 43, 123
14, 463680, Note_on_c, 6, 43, 0
14, 463680, Note_on_c, 6, 48, 123
14, 464160, Note_on_c, 6, 48, 0
14, 464160, Note_on_c, 6, 48, 123
14, 464640, Note_on_c, 6, 48, 0
14, 465120, Note_on_c, 6, 43, 123
14, 465600, Note_on_c, 6, 43, 0
14, 466080, Note_on_c, 6, 48, 123
14, 466560, Note_on_c, 6, 48, 0
14, 467040, Note_on_c, 6, 48, 123
14, 467520, Note_on_c, 6, 48, 0
14, 468000, Note_on_c, 6, 43, 123
14, 468480, Note_on_c, 6, 43, 0
14, 468960, Note_on_c, 6, 43, 123
14, 469440, Note_on_c, 6, 43, 0
14, 469440, Note_on_c, 6, 48, 123
14, 469920, Note_on_c, 6, 48, 0
14, 472560, Note_on_c, 6, 43, 123
14, 472800, Note_on_c, 6, 43, 0
14, 472800, Note_on_c, 6, 43, 123
14, 473040, Note_on_c, 6, 43, 0
14, 473040, Note_on_c, 6, 43, 123
14, 473280, Note_on_c, 6, 43, 0
14, 473280, Note_on_c, 6, 48, 123
14, 473760, Note_on_c, 6, 48, 0
14, 476400, Note_on_c, 6, 43, 123
14, 476640, Note_on_c, 6, 43, 0
14, 476640, Note_on_c, 6, 43, 123
14, 476880, Note_on_c, 6, 43, 0
14, 476880, Note_on_c, 6, 43, 123
14, 477120, Note_on_c, 6, 43, 0
14, 477120, Note_on_c, 6, 48, 123
14, 477600, Note_on_c, 6, 48, 0
14, 478320, Note_on_c, 6, 43, 123
14, 478560, Note_on_c, 6, 43, 0
14, 478560, Note_on_c, 6, 43, 123
14, 478800, Note_on_c, 6, 43, 0
14, 478800, Note_on_c, 6, 43, 123
14, 479040, Note_on_c, 6, 43, 0
14, 479040, Note_on_c, 6, 48, 123
14, 479520, Note_on_c, 6, 48, 0
14, 480240, Note_on_c, 6, 43, 123
14, 480480, Note_on_c, 6, 43, 0
14, 480480, Note_on_c, 6, 43, 123
14, 480720, Note_on_c, 6, 43, 0
14, 480720, Note_on_c, 6, 43, 123
14, 480960, Note_on_c, 6, 43, 0
14, 480960, Note_on_c, 6, 48, 123
14, 481200, Note_on_c, 6, 48, 0
14, 481200, Note_on_c, 6, 48, 123
14, 481440, Note_on_c, 6, 48, 0
14, 481440, Note_on_c, 6, 48, 123
14, 481680, Note_on_c, 6, 48, 0
14, 481680, Note_on_c, 6, 48, 123
14, 481920, Note_on_c, 6, 48, 0
14, 481920, Note_on_c, 6, 48, 123
14, 482400, Note_on_c, 6, 48, 0
14, 483120, Note_on_c, 6, 48, 123
14, 483360, Note_on_c, 6, 48, 0
14, 483360, Note_on_c, 6, 48, 123
14, 483600, Note_on_c, 6, 48, 0
14, 483600, Note_on_c, 6, 48, 123
14, 483840, Note_on_c, 6, 48, 0
14, 483840, Note_on_c, 6, 48, 123
14, 484320, Note_on_c, 6, 48, 0
14, 485040, Note_on_c, 6, 48, 123
14, 485280, Note_on_c, 6, 48, 0
14, 485280, Note_on_c, 6, 48, 123
14, 485520, Note_on_c, 6, 48, 0
14, 485520, Note_on_c, 6, 48, 123
14, 485760, Note_on_c, 6, 48, 0
14, 485760, Note_on_c, 6, 48, 123
14, 486240, Note_on_c, 6, 48, 0
14, 486960, Note_on_c, 6, 48, 123
14, 487200, Note_on_c, 6, 48, 0
14, 487200, Note_on_c, 6, 48, 123
14, 487440, Note_on_c, 6, 48, 0
14, 487440, Note_on_c, 6, 48, 123
14, 487680, Note_on_c, 6, 48, 0
14, 487680, Note_on_c, 6, 48, 123
14, 488160, Note_on_c, 6, 48, 0
14, 496560, Note_on_c, 6, 48, 123
14, 496800, Note_on_c, 6, 48, 0
14, 496800, Note_on_c, 6, 48, 123
14, 497040, Note_on_c, 6, 48, 0
14, 497040, Note_on_c, 6, 48, 123
14, 497280, Note_on_c, 6, 48, 0
14, 497280, Note_on_c, 6, 48, 123
14, 497520, Note_on_c, 6, 48, 0
14, 497520, Note_on_c, 6, 48, 123
14, 497760, Note_on_c, 6, 48, 0
14, 497760, Note_on_c, 6, 48, 123
14, 498000, Note_on_c, 6, 48, 0
14, 498000, Note_on_c, 6, 48, 123
14, 498240, Note_on_c, 6, 48, 0
14, 498240, Note_on_c, 6, 48, 123
14, 498480, Note_on_c, 6, 48, 0
14, 498480, Note_on_c, 6, 48, 123
14, 498720, Note_on_c, 6, 48, 0
14, 498720, Note_on_c, 6, 48, 123
14, 498960, Note_on_c, 6, 48, 0
14, 498960, Note_on_c, 6, 48, 123
14, 499200, Note_on_c, 6, 48, 0
14, 499200, Note_on_c, 6, 48, 123
14, 499440, Note_on_c, 6, 48, 0
14, 499440, Note_on_c, 6, 48, 123
14, 499680, Note_on_c, 6, 48, 0
14, 499680, Note_on_c, 6, 48, 123
14, 499920, Note_on_c, 6, 48, 0
14, 499920, Note_on_c, 6, 48, 123
14, 500160, Note_on_c, 6, 48, 0
14, 500160, Note_on_c, 6, 48, 123
14, 500400, Note_on_c, 6, 48, 0
14, 500400, Note_on_c, 6, 48, 123
14, 500640, Note_on_c, 6, 48, 0
14, 500640, Note_on_c, 6, 48, 123
14, 500880, Note_on_c, 6, 48, 0
14, 500880, Note_on_c, 6, 48, 123
14, 501120, Note_on_c, 6, 48, 0
14, 501120, Note_on_c, 6, 48, 123
14, 501600, Note_on_c, 6, 48, 0
14, 502320, Note_on_c, 6, 48, 123
14, 502560, Note_on_c, 6, 48, 0
14, 502560, Note_on_c, 6, 48, 123
14, 502800, Note_on_c, 6, 48, 0
14, 502800, Note_on_c, 6, 48, 123
14, 503040, Note_on_c, 6, 48, 0
14, 503040, Note_on_c, 6, 48, 123
14, 503520, Note_on_c, 6, 48, 0
14, 504960, Note_on_c, 6, 43, 115
14, 505440, Note_on_c, 6, 43, 0
14, 508800, Note_on_c, 6, 43, 115
14, 509280, Note_on_c, 6, 43, 0
14, 520800, Note_on_c, 6, 43, 115
14, 521280, Note_on_c, 6, 43, 0
14, 521280, Note_on_c, 6, 43, 115
14, 521760, Note_on_c, 6, 43, 0
14, 521760, Note_on_c, 6, 43, 115
14, 522240, Note_on_c, 6, 43, 0
14, 522240, Note_on_c, 6, 43, 115
14, 522720, Note_on_c, 6, 43, 0
14, 522720, Note_on_c, 6, 43, 115
14, 523200, Note_on_c, 6, 43, 0
14, 523200, Note_on_c, 6, 43, 115
14, 523680, Note_on_c, 6, 43, 0
14, 523680, Note_on_c, 6, 48, 115
14, 524160, Note_on_c, 6, 48, 0
14, 524160, Note_on_c, 6, 48, 115
14, 524640, Note_on_c, 6, 48, 0
14, 524640, Note_on_c, 6, 48, 115
14, 525120, Note_on_c, 6, 48, 0
14, 525120, Note_on_c, 6, 48, 115
14, 525600, Note_on_c, 6, 48, 0
14, 525600, Note_on_c, 6, 43, 115
14, 526080, Note_on_c, 6, 43, 0
14, 526080, Note_on_c, 6, 43, 115
14, 526560, Note_on_c, 6, 43, 0
14, 526560, Note_on_c, 6, 43, 115
14, 527040, Note_on_c, 6, 43, 0
14, 527040, Note_on_c, 6, 43, 115
14, 527520, Note_on_c, 6, 43, 0
14, 527520, Note_on_c, 6, 43, 115
14, 528000, Note_on_c, 6, 43, 0
14, 528000, Note_on_c, 6, 48, 115
14, 528240, Note_on_c, 6, 48, 0
14, 528240, Note_on_c, 6, 48, 115
14, 528480, Note_on_c, 6, 48, 0
14, 528480, Note_on_c, 6, 48, 115
14, 528720, Note_on_c, 6, 48, 0
14, 528720, Note_on_c, 6, 48, 115
14, 528960, Note_on_c, 6, 48, 0
14, 528960, Note_on_c, 6, 48, 115
14, 529440, Note_on_c, 6, 48, 0
14, 529920, Note_on_c, 6, 48, 115
14, 530160, Note_on_c, 6, 48, 0
14, 530160, Note_on_c, 6, 48, 115
14, 530400, Note_on_c, 6, 48, 0
14, 530400, Note_on_c, 6, 48, 115
14, 530640, Note_on_c, 6, 48, 0
14, 530640, Note_on_c, 6, 48, 115
14, 530880, Note_on_c, 6, 48, 0
14, 530880, Note_on_c, 6, 48, 115
14, 531360, Note_on_c, 6, 48, 0
14, 531840, Note_on_c, 6, 48, 115
14, 532080, Note_on_c, 6, 48, 0
14, 532080, Note_on_c, 6, 48, 115
14, 532320, Note_on_c, 6, 48, 0
14, 532320, Note_on_c, 6, 48, 115
14, 532560, Note_on_c, 6, 48, 0
14, 532560, Note_on_c, 6, 48, 115
14, 532800, Note_on_c, 6, 48, 0
14, 532800, Note_on_c, 6, 48, 115
14, 533280, Note_on_c, 6, 48, 0
14, 533760, Note_on_c, 6, 48, 115
14, 534000, Note_on_c, 6, 48, 0
14, 534000, Note_on_c, 6, 48, 115
14, 534240, Note_on_c, 6, 48, 0
14, 534240, Note_on_c, 6, 48, 115
14, 534480, Note_on_c, 6, 48, 0
14, 534480, Note_on_c, 6, 48, 115
14, 534720, Note_on_c, 6, 48, 0
14, 534720, Note_on_c, 6, 48, 115
14, 535200, Note_on_c, 6, 48, 0
14, 535680, Note_on_c, 6, 43, 115
14, 535920, Note_on_c, 6, 43, 0
14, 535920, Note_on_c, 6, 43, 115
14, 536160, Note_on_c, 6, 43, 0
14, 536160, Note_on_c, 6, 43, 115
14, 536400, Note_on_c, 6, 43, 0
14, 536400, Note_on_c, 6, 43, 115
14, 536640, Note_on_c, 6, 43, 0
14, 536640, Note_on_c, 6, 43, 115
14, 537120, Note_on_c, 6, 43, 0
14, 537600, Note_on_c, 6, 48, 115
14, 538080, Note_on_c, 6, 48, 0
14, 538560, Note_on_c, 6, 48, 115
14, 539040, Note_on_c, 6, 48, 0
14, 539520, Note_on_c, 6, 48, 115
14, 540000, Note_on_c, 6, 48, 0
14, 540480, Note_on_c, 6, 48, 115
14, 540960, Note_on_c, 6, 48, 0
14, 541440, Note_on_c, 6, 43, 115
14, 541920, Note_on_c, 6, 43, 0
14, 542400, Note_on_c, 6, 43, 115
14, 542880, Note_on_c, 6, 43, 0
14, 543360, Note_on_c, 6, 48, 115
14, 543840, Note_on_c, 6, 48, 0
14, 544320, Note_on_c, 6, 48, 115
14, 544800, Note_on_c, 6, 48, 0
14, 545280, Note_on_c, 6, 48, 115
14, 545760, Note_on_c, 6, 48, 0
14, 546240, Note_on_c, 6, 48, 115
14, 546720, Note_on_c, 6, 48, 0
14, 546720, Note_on_c, 6, 48, 115
14, 547200, Note_on_c, 6, 48, 0
14, 547200, Note_on_c, 6, 48, 115
14, 547680, Note_on_c, 6, 48, 0
14, 548160, Note_on_c, 6, 48, 115
14, 548640, Note_on_c, 6, 48, 0
14, 548640, Note_on_c, 6, 48, 115
14, 549120, Note_on_c, 6, 48, 0
14, 549120, Note_on_c, 6, 48, 115
14, 549600, Note_on_c, 6, 48, 0
14, 550080, Note_on_c, 6, 43, 115
14, 550560, Note_on_c, 6, 43, 0
14, 550560, Note_on_c, 6, 43, 115
14, 551040, Note_on_c, 6, 43, 0
14, 551040, Note_on_c, 6, 43, 115
14, 551520, Note_on_c, 6, 43, 0
14, 553920, Note_on_c, 6, 43, 115
14, 554400, Note_on_c, 6, 43, 0
14, 554400, Note_on_c, 6, 43, 115
14, 554880, Note_on_c, 6, 43, 0
14, 554880, Note_on_c, 6, 43, 115
14, 555360, Note_on_c, 6, 43, 0
14, 559680, Note_on_c, 6, 48, 115
14, 560160, Note_on_c, 6, 48, 0
14, 560160, Note_on_c, 6, 48, 115
14, 560640, Note_on_c, 6, 48, 0
14, 561600, Note_on_c, 6, 48, 115
14, 562080, Note_on_c, 6, 48, 0
14, 562080, Note_on_c, 6, 48, 115
14, 562560, Note_on_c, 6, 48, 0
14, 563040, Note_on_c, 6, 43, 115
14, 563520, Note_on_c, 6, 43, 0
14, 564000, Note_on_c, 6, 43, 115
14, 564480, Note_on_c, 6, 43, 0
14, 566400, Note_on_c, 6, 48, 115
14, 566880, Note_on_c, 6, 48, 0
14, 566880, Note_on_c, 6, 48, 115
14, 567360, Note_on_c, 6, 48, 0
14, 567360, Note_on_c, 6, 48, 115
14, 567840, Note_on_c, 6, 48, 0
14, 567840, Note_on_c, 6, 48, 115
14, 568320, Note_on_c, 6, 48, 0
14, 568320, Note_on_c, 6, 48, 115
14, 568800, Note_on_c, 6, 48, 0
14, 568800, Note_on_c, 6, 48, 115
14, 569280, Note_on_c, 6, 48, 0
14, 569280, Note_on_c, 6, 48, 115
14, 569760, Note_on_c, 6, 48, 0
14, 569760, Note_on_c, 6, 48, 115
14, 570240, Note_on_c, 6, 48, 0
14, 570720, Note_on_c, 6, 43, 115
14, 571200, Note_on_c, 6, 43, 0
14, 571680, Note_on_c, 6, 43, 115
14, 572160, Note_on_c, 6, 43, 0
14, 572160, Note_on_c, 6, 48, 115
14, 572640, Note_on_c, 6, 48, 0
14, 577200, Note_on_c, 6, 43, 115
14, 577440, Note_on_c, 6, 43, 0
14, 577440, Note_on_c, 6, 43, 115
14, 577680, Note_on_c, 6, 43, 0
14, 577680, Note_on_c, 6, 43, 115
14, 577920, Note_on_c, 6, 43, 0
14, 577920, Note_on_c, 6, 48, 115
14, 578400, Note_on_c, 6, 48, 0
14, 581040, Note_on_c, 6, 43, 115
14, 581280, Note_on_c, 6, 43, 0
14, 581280, Note_on_c, 6, 43, 115
14, 581520, Note_on_c, 6, 43, 0
14, 581520, Note_on_c, 6, 43, 115
14, 581760, Note_on_c, 6, 43, 0
14, 581760, Note_on_c, 6, 43, 123
14, 582720, Note_on_c, 6, 43, 0
14, 582960, Note_on_c, 6, 43, 123
14, 583200, Note_on_c, 6, 43, 0
14, 583200, Note_on_c, 6, 43, 123
14, 583440, Note_on_c, 6, 43, 0
14, 583440, Note_on_c, 6, 43, 123
14, 583680, Note_on_c, 6, 43, 0
14, 583680, Note_on_c, 6, 43, 123
14, 583800, Note_on_c, 6, 43, 0
14, 583800, Note_on_c, 6, 43, 123
14, 583920, Note_on_c, 6, 43, 0
14, 583920, Note_on_c, 6, 43, 123
14, 584040, Note_on_c, 6, 43, 0
14, 584040, Note_on_c, 6, 43, 123
14, 584160, Note_on_c, 6, 43, 0
14, 584160, Note_on_c, 6, 43, 123
14, 584280, Note_on_c, 6, 43, 0
14, 584280, Note_on_c, 6, 43, 123
14, 584400, Note_on_c, 6, 43, 0
14, 584400, Note_on_c, 6, 43, 123
14, 584520, Note_on_c, 6, 43, 0
14, 584520, Note_on_c, 6, 43, 123
14, 584640, Note_on_c, 6, 43, 0
14, 584640, Note_on_c, 6, 43, 123
14, 584760, Note_on_c, 6, 43, 0
14, 584760, Note_on_c, 6, 43, 123
14, 584880, Note_on_c, 6, 43, 0
14, 584880, Note_on_c, 6, 43, 123
14, 585000, Note_on_c, 6, 43, 0
14, 585000, Note_on_c, 6, 43, 123
14, 585120, Note_on_c, 6, 43, 0
14, 585120, Note_on_c, 6, 43, 123
14, 585240, Note_on_c, 6, 43, 0
14, 585240, Note_on_c, 6, 43, 123
14, 585360, Note_on_c, 6, 43, 0
14, 585360, Note_on_c, 6, 43, 123
14, 585480, Note_on_c, 6, 43, 0
14, 585480, Note_on_c, 6, 43, 123
14, 585600, Note_on_c, 6, 43, 0
14, 593520, Note_on_c, 6, 43, 123
14, 593760, Note_on_c, 6, 43, 0
14, 593760, Note_on_c, 6, 43, 123
14, 594000, Note_on_c, 6, 43, 0
14, 594000, Note_on_c, 6, 43, 123
14, 594240, Note_on_c, 6, 43, 0
14, 594240, Note_on_c, 6, 48, 123
14, 594720, Note_on_c, 6, 48, 0
14, 595440, Note_on_c, 6, 43, 123
14, 595680, Note_on_c, 6, 43, 0
14, 595680, Note_on_c, 6, 43, 123
14, 595920, Note_on_c, 6, 43, 0
14, 595920, Note_on_c, 6, 43, 123
14, 596160, Note_on_c, 6, 43, 0
14, 596160, Note_on_c, 6, 48, 123
14, 596640, Note_on_c, 6, 48, 0
14, 597360, Note_on_c, 6, 43, 123
14, 597600, Note_on_c, 6, 43, 0
14, 597600, Note_on_c, 6, 43, 123
14, 597840, Note_on_c, 6, 43, 0
14, 597840, Note_on_c, 6, 43, 123
14, 598080, Note_on_c, 6, 43, 0
14, 598080, Note_on_c, 6, 48, 123
14, 598560, Note_on_c, 6, 48, 0
14, 598560, Note_on_c, 6, 43, 123
14, 599040, Note_on_c, 6, 43, 0
14, 599040, Note_on_c, 6, 48, 123
14, 599520, Note_on_c, 6, 48, 0
14, 599520, Note_on_c, 6, 43, 123
14, 600000, Note_on_c, 6, 43, 0
14, 600000, Note_on_c, 6, 48, 123
14, 600480, Note_on_c, 6, 48, 0
14, 600480, Note_on_c, 6, 43, 123
14, 600960, Note_on_c, 6, 43, 0
14, 600960, Note_on_c, 6, 48, 123
14, 601440, Note_on_c, 6, 48, 0
14, 601440, Note_on_c, 6, 43, 123
14, 601920, Note_on_c, 6, 43, 0
14, 601920, Note_on_c, 6, 48, 123
14, 602400, Note_on_c, 6, 48, 0
14, 602880, Note_on_c, 6, 43, 123
14, 603360, Note_on_c, 6, 43, 0
14, 603840, Note_on_c, 6, 48, 123
14, 604320, Note_on_c, 6, 48, 0
14, 604320, End_track
15, 0, Start_track
15, 0, MIDI_port, 0
15, 0, Title_t, "Violins 1"
15, 0, Program_c, 7, 48
15, 240, Note_on_c, 7, 67, 123
15, 480, Note_on_c, 7, 67, 0
15, 480, Note_on_c, 7, 67, 123
15, 720, Note_on_c, 7, 67, 0
15, 720, Note_on_c, 7, 67, 123
15, 960, Note_on_c, 7, 67, 0
15, 960, Note_on_c, 7, 63, 123
15, 1920, Note_on_c, 7, 63, 0
15, 2160, Note_on_c, 7, 65, 123
15, 2400, Note_on_c, 7, 65, 0
15, 2400, Note_on_c, 7, 65, 123
15, 2640, Note_on_c, 7, 65, 0
15, 2640, Note_on_c, 7, 65, 123
15, 2880, Note_on_c, 7, 65, 0
15, 2880, Note_on_c, 7, 62, 123
15, 4800, Note_on_c, 7, 62, 0
15, 6960, Note_on_c, 7, 75, 91
15, 7200, Note_on_c, 7, 75, 0
15, 7200, Note_on_c, 7, 75, 91
15, 7440, Note_on_c, 7, 75, 0
15, 7440, Note_on_c, 7, 75, 91
15, 7680, Note_on_c, 7, 75, 0
15, 7680, Note_on_c, 7, 72, 91
15, 9120, Note_on_c, 7, 72, 0
15, 10800, Note_on_c, 7, 77, 91
15, 11040, Note_on_c, 7, 77, 0
15, 11040, Note_on_c, 7, 77, 91
15, 11280, Note_on_c, 7, 77, 0
15, 11280, Note_on_c, 7, 77, 91
15, 11520, Note_on_c, 7, 77, 0
15, 11520, Note_on_c, 7, 74, 91
15, 12720, Note_on_c, 7, 74, 0
15, 12720, Note_on_c, 7, 79, 91
15, 12960, Note_on_c, 7, 79, 0
15, 12960, Note_on_c, 7, 79, 91
15, 13200, Note_on_c, 7, 79, 0
15, 13200, Note_on_c, 7, 77, 91
15, 13440, Note_on_c, 7, 77, 0
15, 13440, Note_on_c, 7, 75, 91
15, 14400, Note_on_c, 7, 75, 0
15, 14400, Note_on_c, 7, 74, 91
15, 14640, Note_on_c, 7, 74, 0
15, 14640, Note_on_c, 7, 79, 91
15, 14880, Note_on_c, 7, 79, 0
15, 14880, Note_on_c, 7, 79, 91
15, 15120, Note_on_c, 7, 79, 0
15, 15120, Note_on_c, 7, 77, 91
15, 15360, Note_on_c, 7, 77, 0
15, 15360, Note_on_c, 7, 75, 91
15, 16320, Note_on_c, 7, 75, 0
15, 16320, Note_on_c, 7, 74, 91
15, 16560, Note_on_c, 7, 74, 0
15, 16560, Note_on_c, 7, 79, 91
15, 16800, Note_on_c, 7, 79, 0
15, 16800, Note_on_c, 7, 79, 101
15, 17040, Note_on_c, 7, 79, 0
15, 17040, Note_on_c, 7, 77, 109
15, 17280, Note_on_c, 7, 77, 0
15, 17280, Note_on_c, 7, 75, 115
15, 17760, Note_on_c, 7, 75, 0
15, 18240, Note_on_c, 7, 56, 115
15, 18240, Note_on_c, 7, 66, 115
15, 18240, Note_on_c, 7, 72, 115
15, 18720, Note_on_c, 7, 72, 0
15, 18720, Note_on_c, 7, 66, 0
15, 18720, Note_on_c, 7, 56, 0
15, 19200, Note_on_c, 7, 79, 123
15, 20160, Note_on_c, 7, 79, 0
15, 20400, Note_on_c, 7, 68, 123
15, 20640, Note_on_c, 7, 68, 0
15, 20640, Note_on_c, 7, 68, 123
15, 20880, Note_on_c, 7, 68, 0
15, 20880, Note_on_c, 7, 68, 123
15, 21120, Note_on_c, 7, 68, 0
15, 21120, Note_on_c, 7, 65, 123
15, 23040, Note_on_c, 7, 65, 0
15, 23280, Note_on_c, 7, 68, 91
15, 23520, Note_on_c, 7, 68, 0
15, 23520, Note_on_c, 7, 68, 91
15, 23760, Note_on_c, 7, 68, 0
15, 23760, Note_on_c, 7, 68, 91
15, 24000, Note_on_c, 7, 68, 0
15, 24000, Note_on_c, 7, 65, 91
15, 26880, Note_on_c, 7, 65, 0
15, 26880, Note_on_c, 7, 63, 91
15, 27120, Note_on_c, 7, 63, 0
15, 27120, Note_on_c, 7, 68, 91
15, 27360, Note_on_c, 7, 68, 0
15, 27360, Note_on_c, 7, 68, 91
15, 27600, Note_on_c, 7, 68, 0
15, 27600, Note_on_c, 7, 68, 91
15, 27840, Note_on_c, 7, 68, 0
15, 27840, Note_on_c, 7, 65, 91
15, 30720, Note_on_c, 7, 65, 0
15, 30720, Note_on_c, 7, 63, 91
15, 30960, Note_on_c, 7, 63, 0
15, 30960, Note_on_c, 7, 67, 91
15, 31200, Note_on_c, 7, 67, 0
15, 31200, Note_on_c, 7, 72, 91
15, 31440, Note_on_c, 7, 72, 0
15, 31440, Note_on_c, 7, 72, 91
15, 31680, Note_on_c, 7, 72, 0
15, 31680, Note_on_c, 7, 72, 91
15, 32640, Note_on_c, 7, 72, 0
15, 32640, Note_on_c, 7, 71, 101
15, 32880, Note_on_c, 7, 71, 0
15, 32880, Note_on_c, 7, 71, 101
15, 33120, Note_on_c, 7, 71, 0
15, 33120, Note_on_c, 7, 71, 109
15, 33360, Note_on_c, 7, 71, 0
15, 33360, Note_on_c, 7, 74, 109
15, 33600, Note_on_c, 7, 74, 0
15, 33600, Note_on_c, 7, 74, 115
15, 34560, Note_on_c, 7, 74, 0
15, 34560, Note_on_c, 7, 72, 123
15, 34800, Note_on_c, 7, 72, 0
15, 34800, Note_on_c, 7, 72, 123
15, 35040, Note_on_c, 7, 72, 0
15, 35040, Note_on_c, 7, 72, 123
15, 35280, Note_on_c, 7, 72, 0
15, 35280, Note_on_c, 7, 75, 123
15, 35520, Note_on_c, 7, 75, 0
15, 35520, Note_on_c, 7, 75, 123
15, 35760, Note_on_c, 7, 75, 0
15, 35760, Note_on_c, 7, 74, 123
15, 36000, Note_on_c, 7, 74, 0
15, 36000, Note_on_c, 7, 74, 123
15, 36240, Note_on_c, 7, 74, 0
15, 36240, Note_on_c, 7, 77, 123
15, 36480, Note_on_c, 7, 77, 0
15, 36480, Note_on_c, 7, 77, 123
15, 36720, Note_on_c, 7, 77, 0
15, 36720, Note_on_c, 7, 76, 123
15, 36960, Note_on_c, 7, 76, 0
15, 36960, Note_on_c, 7, 76, 123
15, 37200, Note_on_c, 7, 76, 0
15, 37200, Note_on_c, 7, 79, 123
15, 37440, Note_on_c, 7, 79, 0
15, 37440, Note_on_c, 7, 79, 123
15, 37680, Note_on_c, 7, 79, 0
15, 37680, Note_on_c, 7, 77, 123
15, 37920, Note_on_c, 7, 77, 0
15, 37920, Note_on_c, 7, 77, 123
15, 38160, Note_on_c, 7, 77, 0
15, 38160, Note_on_c, 7, 80, 123
15, 38400, Note_on_c, 7, 80, 0
15, 38400, Note_on_c, 7, 80, 123
15, 38640, Note_on_c, 7, 80, 0
15, 38640, Note_on_c, 7, 79, 123
15, 38880, Note_on_c, 7, 79, 0
15, 38880, Note_on_c, 7, 79, 123
15, 39120, Note_on_c, 7, 79, 0
15, 39120, Note_on_c, 7, 82, 123
15, 39360, Note_on_c, 7, 82, 0
15, 39360, Note_on_c, 7, 82, 123
15, 39600, Note_on_c, 7, 82, 0
15, 39600, Note_on_c, 7, 80, 123
15, 39840, Note_on_c, 7, 80, 0
15, 39840, Note_on_c, 7, 80, 123
15, 40080, Note_on_c, 7, 80, 0
15, 40080, Note_on_c, 7, 84, 123
15, 40320, Note_on_c, 7, 84, 0
15, 40320, Note_on_c, 7, 84, 123
15, 40560, Note_on_c, 7, 84, 0
15, 40560, Note_on_c, 7, 83, 123
15, 40800, Note_on_c, 7, 83, 0
15, 40800, Note_on_c, 7, 83, 123
15, 41040, Note_on_c, 7, 83, 0
15, 41040, Note_on_c, 7, 86, 123
15, 41280, Note_on_c, 7, 86, 0
15, 41280, Note_on_c, 7, 84, 123
15, 41520, Note_on_c, 7, 84, 0
15, 41520, Note_on_c, 7, 87, 123
15, 41760, Note_on_c, 7, 87, 0
15, 41760, Note_on_c, 7, 87, 123
15, 42000, Note_on_c, 7, 87, 0
15, 42000, Note_on_c, 7, 87, 123
15, 42240, Note_on_c, 7, 87, 0
15, 42240, Note_on_c, 7, 84, 123
15, 42480, Note_on_c, 7, 84, 0
15, 42480, Note_on_c, 7, 79, 123
15, 42720, Note_on_c, 7, 79, 0
15, 42720, Note_on_c, 7, 79, 123
15, 42960, Note_on_c, 7, 79, 0
15, 42960, Note_on_c, 7, 79, 123
15, 43200, Note_on_c, 7, 79, 0
15, 43200, Note_on_c, 7, 75, 123
15, 43440, Note_on_c, 7, 75, 0
15, 43440, Note_on_c, 7, 72, 123
15, 43680, Note_on_c, 7, 72, 0
15, 43680, Note_on_c, 7, 67, 123
15, 43920, Note_on_c, 7, 67, 0
15, 43920, Note_on_c, 7, 67, 123
15, 44160, Note_on_c, 7, 67, 0
15, 44160, Note_on_c, 7, 63, 123
15, 44400, Note_on_c, 7, 63, 0
15, 44400, Note_on_c, 7, 60, 123
15, 44640, Note_on_c, 7, 60, 0
15, 44640, Note_on_c, 7, 60, 123
15, 44880, Note_on_c, 7, 60, 0
15, 44880, Note_on_c, 7, 60, 123
15, 45120, Note_on_c, 7, 60, 0
15, 45120, Note_on_c, 7, 59, 123
15, 45360, Note_on_c, 7, 59, 0
15, 45360, Note_on_c, 7, 89, 123
15, 45600, Note_on_c, 7, 89, 0
15, 45600, Note_on_c, 7, 86, 123
15, 45840, Note_on_c, 7, 86, 0
15, 45840, Note_on_c, 7, 86, 123
15, 46080, Note_on_c, 7, 86, 0
15, 46080, Note_on_c, 7, 83, 123
15, 46320, Note_on_c, 7, 83, 0
15, 46320, Note_on_c, 7, 79, 123
15, 46560, Note_on_c, 7, 79, 0
15, 46560, Note_on_c, 7, 77, 123
15, 46800, Note_on_c, 7, 77, 0
15, 46800, Note_on_c, 7, 77, 123
15, 47040, Note_on_c, 7, 77, 0
15, 47040, Note_on_c, 7, 74, 123
15, 47280, Note_on_c, 7, 74, 0
15, 47280, Note_on_c, 7, 71, 123
15, 47520, Note_on_c, 7, 71, 0
15, 47520, Note_on_c, 7, 67, 123
15, 47760, Note_on_c, 7, 67, 0
15, 47760, Note_on_c, 7, 65, 123
15, 48000, Note_on_c, 7, 65, 0
15, 48000, Note_on_c, 7, 62, 123
15, 48240, Note_on_c, 7, 62, 0
15, 48240, Note_on_c, 7, 59, 123
15, 48480, Note_on_c, 7, 59, 0
15, 48480, Note_on_c, 7, 60, 123
15, 48720, Note_on_c, 7, 60, 0
15, 48720, Note_on_c, 7, 60, 123
15, 48960, Note_on_c, 7, 60, 0
15, 48960, Note_on_c, 7, 60, 123
15, 49200, Note_on_c, 7, 60, 0
15, 49200, Note_on_c, 7, 87, 123
15, 49440, Note_on_c, 7, 87, 0
15, 49440, Note_on_c, 7, 87, 123
15, 49680, Note_on_c, 7, 87, 0
15, 49680, Note_on_c, 7, 87, 123
15, 49920, Note_on_c, 7, 87, 0
15, 49920, Note_on_c, 7, 84, 123
15, 50160, Note_on_c, 7, 84, 0
15, 50160, Note_on_c, 7, 81, 123
15, 50400, Note_on_c, 7, 81, 0
15, 50400, Note_on_c, 7, 81, 123
15, 50640, Note_on_c, 7, 81, 0
15, 50640, Note_on_c, 7, 81, 123
15, 50880, Note_on_c, 7, 81, 0
15, 50880, Note_on_c, 7, 78, 123
15, 51120, Note_on_c, 7, 78, 0
15, 51120, Note_on_c, 7, 75, 123
15, 51360, Note_on_c, 7, 75, 0
15, 51360, Note_on_c, 7, 75, 123
15, 51600, Note_on_c, 7, 75, 0
15, 51600, Note_on_c, 7, 75, 123
15, 51840, Note_on_c, 7, 75, 0
15, 51840, Note_on_c, 7, 72, 123
15, 52080, Note_on_c, 7, 72, 0
15, 52080, Note_on_c, 7, 57, 123
15, 52080, Note_on_c, 7, 69, 123
15, 52320, Note_on_c, 7, 69, 0
15, 52320, Note_on_c, 7, 57, 0
15, 52320, Note_on_c, 7, 57, 123
15, 52320, Note_on_c, 7, 69, 123
15, 52560, Note_on_c, 7, 69, 0
15, 52560, Note_on_c, 7, 57, 0
15, 52560, Note_on_c, 7, 57, 123
15, 52560, Note_on_c, 7, 69, 123
15, 52800, Note_on_c, 7, 69, 0
15, 52800, Note_on_c, 7, 57, 0
15, 52800, Note_on_c, 7, 57, 123
15, 52800, Note_on_c, 7, 69, 123
15, 53280, Note_on_c, 7, 69, 0
15, 53280, Note_on_c, 7, 57, 0
15, 54720, Note_on_c, 7, 58, 123
15, 54720, Note_on_c, 7, 65, 123
15, 54720, Note_on_c, 7, 70, 123
15, 55200, Note_on_c, 7, 70, 0
15, 55200, Note_on_c, 7, 65, 0
15, 55200, Note_on_c, 7, 58, 0
15, 59520, Note_on_c, 7, 70, 91
15, 60000, Note_on_c, 7, 70, 0
15, 60000, Note_on_c, 7, 75, 91
15, 60480, Note_on_c, 7, 75, 0
15, 60480, Note_on_c, 7, 74, 91
15, 60960, Note_on_c, 7, 74, 0
15, 60960, Note_on_c, 7, 75, 91
15, 61440, Note_on_c, 7, 75, 0
15, 61440, Note_on_c, 7, 77, 91
15, 61920, Note_on_c, 7, 77, 0
15, 61920, Note_on_c, 7, 72, 91
15, 62400, Note_on_c, 7, 72, 0
15, 62400, Note_on_c, 7, 72, 91
15, 62880, Note_on_c, 7, 72, 0
15, 62880, Note_on_c, 7, 70, 91
15, 63360, Note_on_c, 7, 70, 0
15, 67200, Note_on_c, 7, 70, 91
15, 67680, Note_on_c, 7, 70, 0
15, 67680, Note_on_c, 7, 75, 91
15, 68160, Note_on_c, 7, 75, 0
15, 68160, Note_on_c, 7, 74, 91
15, 68640, Note_on_c, 7, 74, 0
15, 68640, Note_on_c, 7, 75, 91
15, 69120, Note_on_c, 7, 75, 0
15, 69120, Note_on_c, 7, 77, 91
15, 69600, Note_on_c, 7, 77, 0
15, 69600, Note_on_c, 7, 72, 91
15, 70080, Note_on_c, 7, 72, 0
15, 70080, Note_on_c, 7, 72, 91
15, 70560, Note_on_c, 7, 72, 0
15, 70560, Note_on_c, 7, 70, 91
15, 71040, Note_on_c, 7, 70, 0
15, 71040, Note_on_c, 7, 70, 91
15, 71520, Note_on_c, 7, 70, 0
15, 71520, Note_on_c, 7, 72, 91
15, 72000, Note_on_c, 7, 72, 0
15, 72000, Note_on_c, 7, 73, 91
15, 72480, Note_on_c, 7, 73, 0
15, 72480, Note_on_c, 7, 72, 91
15, 72960, Note_on_c, 7, 72, 0
15, 72960, Note_on_c, 7, 70, 91
15, 73440, Note_on_c, 7, 70, 0
15, 73440, Note_on_c, 7, 72, 91
15, 73920, Note_on_c, 7, 72, 0
15, 73920, Note_on_c, 7, 70, 91
15, 74400, Note_on_c, 7, 70, 0
15, 74400, Note_on_c, 7, 68, 91
15, 74880, Note_on_c, 7, 68, 0
15, 74880, Note_on_c, 7, 73, 91
15, 75360, Note_on_c, 7, 73, 0
15, 75360, Note_on_c, 7, 75, 91
15, 75840, Note_on_c, 7, 75, 0
15, 75840, Note_on_c, 7, 77, 91
15, 76320, Note_on_c, 7, 77, 0
15, 76320, Note_on_c, 7, 75, 91
15, 76800, Note_on_c, 7, 75, 0
15, 76800, Note_on_c, 7, 73, 91
15, 77280, Note_on_c, 7, 73, 0
15, 77280, Note_on_c, 7, 75, 91
15, 77760, Note_on_c, 7, 75, 0
15, 77760, Note_on_c, 7, 73, 91
15, 78240, Note_on_c, 7, 73, 0
15, 78240, Note_on_c, 7, 72, 91
15, 78720, Note_on_c, 7, 72, 0
15, 78720, Note_on_c, 7, 75, 91
15, 79200, Note_on_c, 7, 75, 0
15, 79200, Note_on_c, 7, 77, 91
15, 79680, Note_on_c, 7, 77, 0
15, 79680, Note_on_c, 7, 78, 91
15, 80160, Note_on_c, 7, 78, 0
15, 80160, Note_on_c, 7, 77, 91
15, 80640, Note_on_c, 7, 77, 0
15, 80640, Note_on_c, 7, 75, 91
15, 81120, Note_on_c, 7, 75, 0
15, 81120, Note_on_c, 7, 77, 91
15, 81600, Note_on_c, 7, 77, 0
15, 81600, Note_on_c, 7, 78, 91
15, 82080, Note_on_c, 7, 78, 0
15, 82080, Note_on_c, 7, 77, 91
15, 82560, Note_on_c, 7, 77, 0
15, 82560, Note_on_c, 7, 75, 91
15, 83040, Note_on_c, 7, 75, 0
15, 83040, Note_on_c, 7, 77, 91
15, 83520, Note_on_c, 7, 77, 0
15, 83520, Note_on_c, 7, 78, 101
15, 84000, Note_on_c, 7, 78, 0
15, 84000, Note_on_c, 7, 77, 101
15, 84480, Note_on_c, 7, 77, 0
15, 84480, Note_on_c, 7, 75, 101
15, 84960, Note_on_c, 7, 75, 0
15, 84960, Note_on_c, 7, 77, 101
15, 85440, Note_on_c, 7, 77, 0
15, 85440, Note_on_c, 7, 78, 109
15, 85920, Note_on_c, 7, 78, 0
15, 85920, Note_on_c, 7, 77, 109
15, 86400, Note_on_c, 7, 77, 0
15, 86400, Note_on_c, 7, 75, 109
15, 86880, Note_on_c, 7, 75, 0
15, 86880, Note_on_c, 7, 77, 109
15, 87360, Note_on_c, 7, 77, 0
15, 87360, Note_on_c, 7, 78, 115
15, 87840, Note_on_c, 7, 78, 0
15, 87840, Note_on_c, 7, 77, 115
15, 88320, Note_on_c, 7, 77, 0
15, 88320, Note_on_c, 7, 78, 115
15, 88800, Note_on_c, 7, 78, 0
15, 88800, Note_on_c, 7, 81, 115
15, 89280, Note_on_c, 7, 81, 0
15, 89280, Note_on_c, 7, 70, 123
15, 89280, Note_on_c, 7, 82, 123
15, 90480, Note_on_c, 7, 82, 0
15, 90480, Note_on_c, 7, 70, 0
15, 90480, Note_on_c, 7, 84, 123
15, 90720, Note_on_c, 7, 84, 0
15, 90720, Note_on_c, 7, 82, 123
15, 90960, Note_on_c, 7, 82, 0
15, 90960, Note_on_c, 7, 80, 123
15, 91200, Note_on_c, 7, 80, 0
15, 91200, Note_on_c, 7, 80, 123
15, 91440, Note_on_c, 7, 80, 0
15, 91440, Note_on_c, 7, 79, 123
15, 91680, Note_on_c, 7, 79, 0
15, 91680, Note_on_c, 7, 77, 123
15, 91920, Note_on_c, 7, 77, 0
15, 91920, Note_on_c, 7, 75, 123
15, 92160, Note_on_c, 7, 75, 0
15, 92160, Note_on_c, 7, 75, 123
15, 92400, Note_on_c, 7, 75, 0
15, 92400, Note_on_c, 7, 74, 123
15, 92640, Note_on_c, 7, 74, 0
15, 92640, Note_on_c, 7, 72, 123
15, 92880, Note_on_c, 7, 72, 0
15, 92880, Note_on_c, 7, 74, 123
15, 93120, Note_on_c, 7, 74, 0
15, 93120, Note_on_c, 7, 77, 123
15, 93360, Note_on_c, 7, 77, 0
15, 93360, Note_on_c, 7, 75, 123
15, 93600, Note_on_c, 7, 75, 0
15, 93600, Note_on_c, 7, 70, 123
15, 93840, Note_on_c, 7, 70, 0
15, 93840, Note_on_c, 7, 67, 123
15, 94080, Note_on_c, 7, 67, 0
15, 94080, Note_on_c, 7, 74, 123
15, 94320, Note_on_c, 7, 74, 0
15, 94320, Note_on_c, 7, 72, 123
15, 94560, Note_on_c, 7, 72, 0
15, 94560, Note_on_c, 7, 68, 123
15, 94800, Note_on_c, 7, 68, 0
15, 94800, Note_on_c, 7, 65, 123
15, 95040, Note_on_c, 7, 65, 0
15, 95040, Note_on_c, 7, 72, 123
15, 95280, Note_on_c, 7, 72, 0
15, 95280, Note_on_c, 7, 70, 123
15, 95520, Note_on_c, 7, 70, 0
15, 95520, Note_on_c, 7, 67, 123
15, 95760, Note_on_c, 7, 67, 0
15, 95760, Note_on_c, 7, 63, 123
15, 96000, Note_on_c, 7, 63, 0
15, 96000, Note_on_c, 7, 58, 123
15, 96240, Note_on_c, 7, 58, 0
15, 96240, Note_on_c, 7, 81, 123
15, 96480, Note_on_c, 7, 81, 0
15, 96480, Note_on_c, 7, 82, 123
15, 96720, Note_on_c, 7, 82, 0
15, 96720, Note_on_c, 7, 81, 123
15, 96960, Note_on_c, 7, 81, 0
15, 96960, Note_on_c, 7, 82, 123
15, 97200, Note_on_c, 7, 82, 0
15, 97200, Note_on_c, 7, 81, 123
15, 97440, Note_on_c, 7, 81, 0
15, 97440, Note_on_c, 7, 82, 123
15, 97680, Note_on_c, 7, 82, 0
15, 97680, Note_on_c, 7, 81, 123
15, 97920, Note_on_c, 7, 81, 0
15, 97920, Note_on_c, 7, 82, 123
15, 98160, Note_on_c, 7, 82, 0
15, 98160, Note_on_c, 7, 84, 123
15, 98400, Note_on_c, 7, 84, 0
15, 98400, Note_on_c, 7, 82, 123
15, 98640, Note_on_c, 7, 82, 0
15, 98640, Note_on_c, 7, 80, 123
15, 98880, Note_on_c, 7, 80, 0
15, 98880, Note_on_c, 7, 80, 123
15, 99120, Note_on_c, 7, 80, 0
15, 99120, Note_on_c, 7, 79, 123
15, 99360, Note_on_c, 7, 79, 0
15, 99360, Note_on_c, 7, 77, 123
15, 99600, Note_on_c, 7, 77, 0
15, 99600, Note_on_c, 7, 75, 123
15, 99840, Note_on_c, 7, 75, 0
15, 99840, Note_on_c, 7, 75, 123
15, 100080, Note_on_c, 7, 75, 0
15, 100080, Note_on_c, 7, 74, 123
15, 100320, Note_on_c, 7, 74, 0
15, 100320, Note_on_c, 7, 72, 123
15, 100560, Note_on_c, 7, 72, 0
15, 100560, Note_on_c, 7, 74, 123
15, 100800, Note_on_c, 7, 74, 0
15, 100800, Note_on_c, 7, 77, 123
15, 101040, Note_on_c, 7, 77, 0
15, 101040, Note_on_c, 7, 75, 123
15, 101280, Note_on_c, 7, 75, 0
15, 101280, Note_on_c, 7, 70, 123
15, 101520, Note_on_c, 7, 70, 0
15, 101520, Note_on_c, 7, 67, 123
15, 101760, Note_on_c, 7, 67, 0
15, 101760, Note_on_c, 7, 74, 123
15, 102000, Note_on_c, 7, 74, 0
15, 102000, Note_on_c, 7, 72, 123
15, 102240, Note_on_c, 7, 72, 0
15, 102240, Note_on_c, 7, 68, 123
15, 102480, Note_on_c, 7, 68, 0
15, 102480, Note_on_c, 7, 65, 123
15, 102720, Note_on_c, 7, 65, 0
15, 102720, Note_on_c, 7, 72, 123
15, 102960, Note_on_c, 7, 72, 0
15, 102960, Note_on_c, 7, 70, 123
15, 103200, Note_on_c, 7, 70, 0
15, 103200, Note_on_c, 7, 67, 123
15, 103440, Note_on_c, 7, 67, 0
15, 103440, Note_on_c, 7, 63, 123
15, 103680, Note_on_c, 7, 63, 0
15, 103680, Note_on_c, 7, 58, 123
15, 103920, Note_on_c, 7, 58, 0
15, 103920, Note_on_c, 7, 70, 123
15, 104160, Note_on_c, 7, 70, 0
15, 104160, Note_on_c, 7, 82, 123
15, 104400, Note_on_c, 7, 82, 0
15, 104400, Note_on_c, 7, 82, 123
15, 104640, Note_on_c, 7, 82, 0
15, 104640, Note_on_c, 7, 75, 123
15, 107760, Note_on_c, 7, 75, 0
15, 107760, Note_on_c, 7, 77, 123
15, 108000, Note_on_c, 7, 77, 0
15, 108000, Note_on_c, 7, 77, 123
15, 108240, Note_on_c, 7, 77, 0
15, 108240, Note_on_c, 7, 77, 123
15, 108480, Note_on_c, 7, 77, 0
15, 108480, Note_on_c, 7, 79, 123
15, 111600, Note_on_c, 7, 79, 0
15, 111600, Note_on_c, 7, 70, 123
15, 111600, Note_on_c, 7, 82, 123
15, 111840, Note_on_c, 7, 82, 0
15, 111840, Note_on_c, 7, 70, 0
15, 111840, Note_on_c, 7, 70, 123
15, 111840, Note_on_c, 7, 82, 123
15, 112080, Note_on_c, 7, 82, 0
15, 112080, Note_on_c, 7, 70, 0
15, 112080, Note_on_c, 7, 70, 123
15, 112080, Note_on_c, 7, 82, 123
15, 112320, Note_on_c, 7, 82, 0
15, 112320, Note_on_c, 7, 70, 0
15, 112320, Note_on_c, 7, 70, 123
15, 112320, Note_on_c, 7, 82, 123
15, 112800, Note_on_c, 7, 82, 0
15, 112800, Note_on_c, 7, 70, 0
15, 113520, Note_on_c, 7, 70, 123
15, 113520, Note_on_c, 7, 82, 123
15, 113760, Note_on_c, 7, 82, 0
15, 113760, Note_on_c, 7, 70, 0
15, 113760, Note_on_c, 7, 70, 123
15, 113760, Note_on_c, 7, 82, 123
15, 114000, Note_on_c, 7, 82, 0
15, 114000, Note_on_c, 7, 70, 0
15, 114000, Note_on_c, 7, 70, 123
15, 114000, Note_on_c, 7, 82, 123
15, 114240, Note_on_c, 7, 82, 0
15, 114240, Note_on_c, 7, 70, 0
15, 114240, Note_on_c, 7, 70, 123
15, 114240, Note_on_c, 7, 82, 123
15, 114720, Note_on_c, 7, 82, 0
15, 114720, Note_on_c, 7, 70, 0
15, 115440, Note_on_c, 7, 77, 123
15, 115440, Note_on_c, 7, 86, 123
15, 115680, Note_on_c, 7, 86, 0
15, 115680, Note_on_c, 7, 77, 0
15, 115680, Note_on_c, 7, 77, 123
15, 115680, Note_on_c, 7, 86, 123
15, 115920, Note_on_c, 7, 86, 0
15, 115920, Note_on_c, 7, 77, 0
15, 115920, Note_on_c, 7, 77, 123
15, 115920, Note_on_c, 7, 86, 123
15, 116160, Note_on_c, 7, 86, 0
15, 116160, Note_on_c, 7, 77, 0
15, 116160, Note_on_c, 7, 79, 123
15, 116160, Note_on_c, 7, 87, 123
15, 116640, Note_on_c, 7, 87, 0
15, 116640, Note_on_c, 7, 79, 0
15, 119280, Note_on_c, 7, 67, 123
15, 119520, Note_on_c, 7, 67, 0
15, 119520, Note_on_c, 7, 67, 123
15, 119760, Note_on_c, 7, 67, 0
15, 119760, Note_on_c, 7, 67, 123
15, 120000, Note_on_c, 7, 67, 0
15, 120000, Note_on_c, 7, 63, 123
15, 120960, Note_on_c, 7, 63, 0
15, 121200, Note_on_c, 7, 65, 123
15, 121440, Note_on_c, 7, 65, 0
15, 121440, Note_on_c, 7, 65, 123
15, 121680, Note_on_c, 7, 65, 0
15, 121680, Note_on_c, 7, 65, 123
15, 121920, Note_on_c, 7, 65, 0
15, 121920, Note_on_c, 7, 62, 123
15, 123840, Note_on_c, 7, 62, 0
15, 126000, Note_on_c, 7, 75, 91
15, 126240, Note_on_c, 7, 75, 0
15, 126240, Note_on_c, 7, 75, 91
15, 126480, Note_on_c, 7, 75, 0
15, 126480, Note_on_c, 7, 75, 91
15, 126720, Note_on_c, 7, 75, 0
15, 126720, Note_on_c, 7, 72, 91
15, 128160, Note_on_c, 7, 72, 0
15, 129840, Note_on_c, 7, 77, 91
15, 130080, Note_on_c, 7, 77, 0
15, 130080, Note_on_c, 7, 77, 91
15, 130320, Note_on_c, 7, 77, 0
15, 130320, Note_on_c, 7, 77, 91
15, 130560, Note_on_c, 7, 77, 0
15, 130560, Note_on_c, 7, 74, 91
15, 131760, Note_on_c, 7, 74, 0
15, 131760, Note_on_c, 7, 79, 91
15, 132000, Note_on_c, 7, 79, 0
15, 132000, Note_on_c, 7, 79, 91
15, 132240, Note_on_c, 7, 79, 0
15, 132240, Note_on_c, 7, 77, 91
15, 132480, Note_on_c, 7, 77, 0
15, 132480, Note_on_c, 7, 75, 91
15, 133440, Note_on_c, 7, 75, 0
15, 133440, Note_on_c, 7, 74, 91
15, 133680, Note_on_c, 7, 74, 0
15, 133680, Note_on_c, 7, 79, 91
15, 133920, Note_on_c, 7, 79, 0
15, 133920, Note_on_c, 7, 79, 91
15, 134160, Note_on_c, 7, 79, 0
15, 134160, Note_on_c, 7, 77, 91
15, 134400, Note_on_c, 7, 77, 0
15, 134400, Note_on_c, 7, 75, 91
15, 135360, Note_on_c, 7, 75, 0
15, 135360, Note_on_c, 7, 74, 91
15, 135600, Note_on_c, 7, 74, 0
15, 135600, Note_on_c, 7, 79, 91
15, 135840, Note_on_c, 7, 79, 0
15, 135840, Note_on_c, 7, 79, 101
15, 136080, Note_on_c, 7, 79, 0
15, 136080, Note_on_c, 7, 77, 109
15, 136320, Note_on_c, 7, 77, 0
15, 136320, Note_on_c, 7, 75, 115
15, 136800, Note_on_c, 7, 75, 0
15, 137280, Note_on_c, 7, 56, 115
15, 137280, Note_on_c, 7, 66, 115
15, 137280, Note_on_c, 7, 72, 115
15, 137760, Note_on_c, 7, 72, 0
15, 137760, Note_on_c, 7, 66, 0
15, 137760, Note_on_c, 7, 56, 0
15, 138240, Note_on_c, 7, 79, 123
15, 139200, Note_on_c, 7, 79, 0
15, 139440, Note_on_c, 7, 68, 123
15, 139680, Note_on_c, 7, 68, 0
15, 139680, Note_on_c, 7, 68, 123
15, 139920, Note_on_c, 7, 68, 0
15, 139920, Note_on_c, 7, 68, 123
15, 140160, Note_on_c, 7, 68, 0
15, 140160, Note_on_c, 7, 65, 123
15, 142080, Note_on_c, 7, 65, 0
15, 142320, Note_on_c, 7, 68, 91
15, 142560, Note_on_c, 7, 68, 0
15, 142560, Note_on_c, 7, 68, 91
15, 142800, Note_on_c, 7, 68, 0
15, 142800, Note_on_c, 7, 68, 91
15, 143040, Note_on_c, 7, 68, 0
15, 143040, Note_on_c, 7, 65, 91
15, 145920, Note_on_c, 7, 65, 0
15, 145920, Note_on_c, 7, 63, 91
15, 146160, Note_on_c, 7, 63, 0
15, 146160, Note_on_c, 7, 68, 91
15, 146400, Note_on_c, 7, 68, 0
15, 146400, Note_on_c, 7, 68, 91
15, 146640, Note_on_c, 7, 68, 0
15, 146640, Note_on_c, 7, 68, 91
15, 146880, Note_on_c, 7, 68, 0
15, 146880, Note_on_c, 7, 65, 91
15, 149760, Note_on_c, 7, 65, 0
15, 149760, Note_on_c, 7, 63, 91
15, 150000, Note_on_c, 7, 63, 0
15, 150000, Note_on_c, 7, 67, 91
15, 150240, Note_on_c, 7, 67, 0
15, 150240, Note_on_c, 7, 72, 91
15, 150480, Note_on_c, 7, 72, 0
15, 150480, Note_on_c, 7, 72, 91
15, 150720, Note_on_c, 7, 72, 0
15, 150720, Note_on_c, 7, 72, 91
15, 151680, Note_on_c, 7, 72, 0
15, 151680, Note_on_c, 7, 71, 101
15, 151920, Note_on_c, 7, 71, 0
15, 151920, Note_on_c, 7, 71, 101
15, 152160, Note_on_c, 7, 71, 0
15, 152160, Note_on_c, 7, 71, 109
15, 152400, Note_on_c, 7, 71, 0
15, 152400, Note_on_c, 7, 74, 109
15, 152640, Note_on_c, 7, 74, 0
15, 152640, Note_on_c, 7, 74, 115
15, 153600, Note_on_c, 7, 74, 0
15, 153600, Note_on_c, 7, 72, 123
15, 153840, Note_on_c, 7, 72, 0
15, 153840, Note_on_c, 7, 72, 123
15, 154080, Note_on_c, 7, 72, 0
15, 154080, Note_on_c, 7, 72, 123
15, 154320, Note_on_c, 7, 72, 0
15, 154320, Note_on_c, 7, 75, 123
15, 154560, Note_on_c, 7, 75, 0
15, 154560, Note_on_c, 7, 75, 123
15, 154800, Note_on_c, 7, 75, 0
15, 154800, Note_on_c, 7, 74, 123
15, 155040, Note_on_c, 7, 74, 0
15, 155040, Note_on_c, 7, 74, 123
15, 155280, Note_on_c, 7, 74, 0
15, 155280, Note_on_c, 7, 77, 123
15, 155520, Note_on_c, 7, 77, 0
15, 155520, Note_on_c, 7, 77, 123
15, 155760, Note_on_c, 7, 77, 0
15, 155760, Note_on_c, 7, 76, 123
15, 156000, Note_on_c, 7, 76, 0
15, 156000, Note_on_c, 7, 76, 123
15, 156240, Note_on_c, 7, 76, 0
15, 156240, Note_on_c, 7, 79, 123
15, 156480, Note_on_c, 7, 79, 0
15, 156480, Note_on_c, 7, 79, 123
15, 156720, Note_on_c, 7, 79, 0
15, 156720, Note_on_c, 7, 77, 123
15, 156960, Note_on_c, 7, 77, 0
15, 156960, Note_on_c, 7, 77, 123
15, 157200, Note_on_c, 7, 77, 0
15, 157200, Note_on_c, 7, 80, 123
15, 157440, Note_on_c, 7, 80, 0
15, 157440, Note_on_c, 7, 80, 123
15, 157680, Note_on_c, 7, 80, 0
15, 157680, Note_on_c, 7, 79, 123
15, 157920, Note_on_c, 7, 79, 0
15, 157920, Note_on_c, 7, 79, 123
15, 158160, Note_on_c, 7, 79, 0
15, 158160, Note_on_c, 7, 82, 123
15, 158400, Note_on_c, 7, 82, 0
15, 158400, Note_on_c, 7, 82, 123
15, 158640, Note_on_c, 7, 82, 0
15, 158640, Note_on_c, 7, 80, 123
15, 158880, Note_on_c, 7, 80, 0
15, 158880, Note_on_c, 7, 80, 123
15, 159120, Note_on_c, 7, 80, 0
15, 159120, Note_on_c, 7, 84, 123
15, 159360, Note_on_c, 7, 84, 0
15, 159360, Note_on_c, 7, 84, 123
15, 159600, Note_on_c, 7, 84, 0
15, 159600, Note_on_c, 7, 83, 123
15, 159840, Note_on_c, 7, 83, 0
15, 159840, Note_on_c, 7, 83, 123
15, 160080, Note_on_c, 7, 83, 0
15, 160080, Note_on_c, 7, 86, 123
15, 160320, Note_on_c, 7, 86, 0
15, 160320, Note_on_c, 7, 84, 123
15, 160560, Note_on_c, 7, 84, 0
15, 160560, Note_on_c, 7, 87, 123
15, 160800, Note_on_c, 7, 87, 0
15, 160800, Note_on_c, 7, 87, 123
15, 161040, Note_on_c, 7, 87, 0
15, 161040, Note_on_c, 7, 87, 123
15, 161280, Note_on_c, 7, 87, 0
15, 161280, Note_on_c, 7, 84, 123
15, 161520, Note_on_c, 7, 84, 0
15, 161520, Note_on_c, 7, 79, 123
15, 161760, Note_on_c, 7, 79, 0
15, 161760, Note_on_c, 7, 79, 123
15, 162000, Note_on_c, 7, 79, 0
15, 162000, Note_on_c, 7, 79, 123
15, 162240, Note_on_c, 7, 79, 0
15, 162240, Note_on_c, 7, 75, 123
15, 162480, Note_on_c, 7, 75, 0
15, 162480, Note_on_c, 7, 72, 123
15, 162720, Note_on_c, 7, 72, 0
15, 162720, Note_on_c, 7, 67, 123
15, 162960, Note_on_c, 7, 67, 0
15, 162960, Note_on_c, 7, 67, 123
15, 163200, Note_on_c, 7, 67, 0
15, 163200, Note_on_c, 7, 63, 123
15, 163440, Note_on_c, 7, 63, 0
15, 163440, Note_on_c, 7, 60, 123
15, 163680, Note_on_c, 7, 60, 0
15, 163680, Note_on_c, 7, 60, 123
15, 163920, Note_on_c, 7, 60, 0
15, 163920, Note_on_c, 7, 60, 123
15, 164160, Note_on_c, 7, 60, 0
15, 164160, Note_on_c, 7, 59, 123
15, 164400, Note_on_c, 7, 59, 0
15, 164400, Note_on_c, 7, 89, 123
15, 164640, Note_on_c, 7, 89, 0
15, 164640, Note_on_c, 7, 86, 123
15, 164880, Note_on_c, 7, 86, 0
15, 164880, Note_on_c, 7, 86, 123
15, 165120, Note_on_c, 7, 86, 0
15, 165120, Note_on_c, 7, 83, 123
15, 165360, Note_on_c, 7, 83, 0
15, 165360, Note_on_c, 7, 79, 123
15, 165600, Note_on_c, 7, 79, 0
15, 165600, Note_on_c, 7, 77, 123
15, 165840, Note_on_c, 7, 77, 0
15, 165840, Note_on_c, 7, 77, 123
15, 166080, Note_on_c, 7, 77, 0
15, 166080, Note_on_c, 7, 74, 123
15, 166320, Note_on_c, 7, 74, 0
15, 166320, Note_on_c, 7, 71, 123
15, 166560, Note_on_c, 7, 71, 0
15, 166560, Note_on_c, 7, 67, 123
15, 166800, Note_on_c, 7, 67, 0
15, 166800, Note_on_c, 7, 65, 123
15, 167040, Note_on_c, 7, 65, 0
15, 167040, Note_on_c, 7, 62, 123
15, 167280, Note_on_c, 7, 62, 0
15, 167280, Note_on_c, 7, 59, 123
15, 167520, Note_on_c, 7, 59, 0
15, 167520, Note_on_c, 7, 60, 123
15, 167760, Note_on_c, 7, 60, 0
15, 167760, Note_on_c, 7, 60, 123
15, 168000, Note_on_c, 7, 60, 0
15, 168000, Note_on_c, 7, 60, 123
15, 168240, Note_on_c, 7, 60, 0
15, 168240, Note_on_c, 7, 87, 123
15, 168480, Note_on_c, 7, 87, 0
15, 168480, Note_on_c, 7, 87, 123
15, 168720, Note_on_c, 7, 87, 0
15, 168720, Note_on_c, 7, 87, 123
15, 168960, Note_on_c, 7, 87, 0
15, 168960, Note_on_c, 7, 84, 123
15, 169200, Note_on_c, 7, 84, 0
15, 169200, Note_on_c, 7, 81, 123
15, 169440, Note_on_c, 7, 81, 0
15, 169440, Note_on_c, 7, 81, 123
15, 169680, Note_on_c, 7, 81, 0
15, 169680, Note_on_c, 7, 81, 123
15, 169920, Note_on_c, 7, 81, 0
15, 169920, Note_on_c, 7, 78, 123
15, 170160, Note_on_c, 7, 78, 0
15, 170160, Note_on_c, 7, 75, 123
15, 170400, Note_on_c, 7, 75, 0
15, 170400, Note_on_c, 7, 75, 123
15, 170640, Note_on_c, 7, 75, 0
15, 170640, Note_on_c, 7, 75, 123
15, 170880, Note_on_c, 7, 75, 0
15, 170880, Note_on_c, 7, 72, 123
15, 171120, Note_on_c, 7, 72, 0
15, 171120, Note_on_c, 7, 57, 123
15, 171120, Note_on_c, 7, 69, 123
15, 171360, Note_on_c, 7, 69, 0
15, 171360, Note_on_c, 7, 57, 0
15, 171360, Note_on_c, 7, 57, 123
15, 171360, Note_on_c, 7, 69, 123
15, 171600, Note_on_c, 7, 69, 0
15, 171600, Note_on_c, 7, 57, 0
15, 171600, Note_on_c, 7, 57, 123
15, 171600, Note_on_c, 7, 69, 123
15, 171840, Note_on_c, 7, 69, 0
15, 171840, Note_on_c, 7, 57, 0
15, 171840, Note_on_c, 7, 57, 123
15, 171840, Note_on_c, 7, 69, 123
15, 172320, Note_on_c, 7, 69, 0
15, 172320, Note_on_c, 7, 57, 0
15, 173760, Note_on_c, 7, 58, 123
15, 173760, Note_on_c, 7, 65, 123
15, 173760, Note_on_c, 7, 70, 123
15, 174240, Note_on_c, 7, 70, 0
15, 174240, Note_on_c, 7, 65, 0
15, 174240, Note_on_c, 7, 58, 0
15, 178560, Note_on_c, 7, 70, 91
15, 179040, Note_on_c, 7, 70, 0
15, 179040, Note_on_c, 7, 75, 91
15, 179520, Note_on_c, 7, 75, 0
15, 179520, Note_on_c, 7, 74, 91
15, 180000, Note_on_c, 7, 74, 0
15, 180000, Note_on_c, 7, 75, 91
15, 180480, Note_on_c, 7, 75, 0
15, 180480, Note_on_c, 7, 77, 91
15, 180960, Note_on_c, 7, 77, 0
15, 180960, Note_on_c, 7, 72, 91
15, 181440, Note_on_c, 7, 72, 0
15, 181440, Note_on_c, 7, 72, 91
15, 181920, Note_on_c, 7, 72, 0
15, 181920, Note_on_c, 7, 70, 91
15, 182400, Note_on_c, 7, 70, 0
15, 186240, Note_on_c, 7, 70, 91
15, 186720, Note_on_c, 7, 70, 0
15, 186720, Note_on_c, 7, 75, 91
15, 187200, Note_on_c, 7, 75, 0
15, 187200, Note_on_c, 7, 74, 91
15, 187680, Note_on_c, 7, 74, 0
15, 187680, Note_on_c, 7, 75, 91
15, 188160, Note_on_c, 7, 75, 0
15, 188160, Note_on_c, 7, 77, 91
15, 188640, Note_on_c, 7, 77, 0
15, 188640, Note_on_c, 7, 72, 91
15, 189120, Note_on_c, 7, 72, 0
15, 189120, Note_on_c, 7, 72, 91
15, 189600, Note_on_c, 7, 72, 0
15, 189600, Note_on_c, 7, 70, 91
15, 190080, Note_on_c, 7, 70, 0
15, 190080, Note_on_c, 7, 70, 91
15, 190560, Note_on_c, 7, 70, 0
15, 190560, Note_on_c, 7, 72, 91
15, 191040, Note_on_c, 7, 72, 0
15, 191040, Note_on_c, 7, 73, 91
15, 191520, Note_on_c, 7, 73, 0
15, 191520, Note_on_c, 7, 72, 91
15, 192000, Note_on_c, 7, 72, 0
15, 192000, Note_on_c, 7, 70, 91
15, 192480, Note_on_c, 7, 70, 0
15, 192480, Note_on_c, 7, 72, 91
15, 192960, Note_on_c, 7, 72, 0
15, 192960, Note_on_c, 7, 70, 91
15, 193440, Note_on_c, 7, 70, 0
15, 193440, Note_on_c, 7, 68, 91
15, 193920, Note_on_c, 7, 68, 0
15, 193920, Note_on_c, 7, 73, 91
15, 194400, Note_on_c, 7, 73, 0
15, 194400, Note_on_c, 7, 75, 91
15, 194880, Note_on_c, 7, 75, 0
15, 194880, Note_on_c, 7, 77, 91
15, 195360, Note_on_c, 7, 77, 0
15, 195360, Note_on_c, 7, 75, 91
15, 195840, Note_on_c, 7, 75, 0
15, 195840, Note_on_c, 7, 73, 91
15, 196320, Note_on_c, 7, 73, 0
15, 196320, Note_on_c, 7, 75, 91
15, 196800, Note_on_c, 7, 75, 0
15, 196800, Note_on_c, 7, 73, 91
15, 197280, Note_on_c, 7, 73, 0
15, 197280, Note_on_c, 7, 72, 91
15, 197760, Note_on_c, 7, 72, 0
15, 197760, Note_on_c, 7, 75, 91
15, 198240, Note_on_c, 7, 75, 0
15, 198240, Note_on_c, 7, 77, 91
15, 198720, Note_on_c, 7, 77, 0
15, 198720, Note_on_c, 7, 78, 91
15, 199200, Note_on_c, 7, 78, 0
15, 199200, Note_on_c, 7, 77, 91
15, 199680, Note_on_c, 7, 77, 0
15, 199680, Note_on_c, 7, 75, 91
15, 200160, Note_on_c, 7, 75, 0
15, 200160, Note_on_c, 7, 77, 91
15, 200640, Note_on_c, 7, 77, 0
15, 200640, Note_on_c, 7, 78, 91
15, 201120, Note_on_c, 7, 78, 0
15, 201120, Note_on_c, 7, 77, 91
15, 201600, Note_on_c, 7, 77, 0
15, 201600, Note_on_c, 7, 75, 91
15, 202080, Note_on_c, 7, 75, 0
15, 202080, Note_on_c, 7, 77, 91
15, 202560, Note_on_c, 7, 77, 0
15, 202560, Note_on_c, 7, 78, 101
15, 203040, Note_on_c, 7, 78, 0
15, 203040, Note_on_c, 7, 77, 101
15, 203520, Note_on_c, 7, 77, 0
15, 203520, Note_on_c, 7, 75, 101
15, 204000, Note_on_c, 7, 75, 0
15, 204000, Note_on_c, 7, 77, 101
15, 204480, Note_on_c, 7, 77, 0
15, 204480, Note_on_c, 7, 78, 109
15, 204960, Note_on_c, 7, 78, 0
15, 204960, Note_on_c, 7, 77, 109
15, 205440, Note_on_c, 7, 77, 0
15, 205440, Note_on_c, 7, 75, 109
15, 205920, Note_on_c, 7, 75, 0
15, 205920, Note_on_c, 7, 77, 109
15, 206400, Note_on_c, 7, 77, 0
15, 206400, Note_on_c, 7, 78, 115
15, 206880, Note_on_c, 7, 78, 0
15, 206880, Note_on_c, 7, 77, 115
15, 207360, Note_on_c, 7, 77, 0
15, 207360, Note_on_c, 7, 78, 115
15, 207840, Note_on_c, 7, 78, 0
15, 207840, Note_on_c, 7, 81, 115
15, 208320, Note_on_c, 7, 81, 0
15, 208320, Note_on_c, 7, 70, 123
15, 208320, Note_on_c, 7, 82, 123
15, 209520, Note_on_c, 7, 82, 0
15, 209520, Note_on_c, 7, 70, 0
15, 209520, Note_on_c, 7, 84, 123
15, 209760, Note_on_c, 7, 84, 0
15, 209760, Note_on_c, 7, 82, 123
15, 210000, Note_on_c, 7, 82, 0
15, 210000, Note_on_c, 7, 80, 123
15, 210240, Note_on_c, 7, 80, 0
15, 210240, Note_on_c, 7, 80, 123
15, 210480, Note_on_c, 7, 80, 0
15, 210480, Note_on_c, 7, 79, 123
15, 210720, Note_on_c, 7, 79, 0
15, 210720, Note_on_c, 7, 77, 123
15, 210960, Note_on_c, 7, 77, 0
15, 210960, Note_on_c, 7, 75, 123
15, 211200, Note_on_c, 7, 75, 0
15, 211200, Note_on_c, 7, 75, 123
15, 211440, Note_on_c, 7, 75, 0
15, 211440, Note_on_c, 7, 74, 123
15, 211680, Note_on_c, 7, 74, 0
15, 211680, Note_on_c, 7, 72, 123
15, 211920, Note_on_c, 7, 72, 0
15, 211920, Note_on_c, 7, 74, 123
15, 212160, Note_on_c, 7, 74, 0
15, 212160, Note_on_c, 7, 77, 123
15, 212400, Note_on_c, 7, 77, 0
15, 212400, Note_on_c, 7, 75, 123
15, 212640, Note_on_c, 7, 75, 0
15, 212640, Note_on_c, 7, 70, 123
15, 212880, Note_on_c, 7, 70, 0
15, 212880, Note_on_c, 7, 67, 123
15, 213120, Note_on_c, 7, 67, 0
15, 213120, Note_on_c, 7, 74, 123
15, 213360, Note_on_c, 7, 74, 0
15, 213360, Note_on_c, 7, 72, 123
15, 213600, Note_on_c, 7, 72, 0
15, 213600, Note_on_c, 7, 68, 123
15, 213840, Note_on_c, 7, 68, 0
15, 213840, Note_on_c, 7, 65, 123
15, 214080, Note_on_c, 7, 65, 0
15, 214080, Note_on_c, 7, 72, 123
15, 214320, Note_on_c, 7, 72, 0
15, 214320, Note_on_c, 7, 70, 123
15, 214560, Note_on_c, 7, 70, 0
15, 214560, Note_on_c, 7, 67, 123
15, 214800, Note_on_c, 7, 67, 0
15, 214800, Note_on_c, 7, 63, 123
15, 215040, Note_on_c, 7, 63, 0
15, 215040, Note_on_c, 7, 58, 123
15, 215280, Note_on_c, 7, 58, 0
15, 215280, Note_on_c, 7, 81, 123
15, 215520, Note_on_c, 7, 81, 0
15, 215520, Note_on_c, 7, 82, 123
15, 215760, Note_on_c, 7, 82, 0
15, 215760, Note_on_c, 7, 81, 123
15, 216000, Note_on_c, 7, 81, 0
15, 216000, Note_on_c, 7, 82, 123
15, 216240, Note_on_c, 7, 82, 0
15, 216240, Note_on_c, 7, 81, 123
15, 216480, Note_on_c, 7, 81, 0
15, 216480, Note_on_c, 7, 82, 123
15, 216720, Note_on_c, 7, 82, 0
15, 216720, Note_on_c, 7, 81, 123
15, 216960, Note_on_c, 7, 81, 0
15, 216960, Note_on_c, 7, 82, 123
15, 217200, Note_on_c, 7, 82, 0
15, 217200, Note_on_c, 7, 84, 123
15, 217440, Note_on_c, 7, 84, 0
15, 217440, Note_on_c, 7, 82, 123
15, 217680, Note_on_c, 7, 82, 0
15, 217680, Note_on_c, 7, 80, 123
15, 217920, Note_on_c, 7, 80, 0
15, 217920, Note_on_c, 7, 80, 123
15, 218160, Note_on_c, 7, 80, 0
15, 218160, Note_on_c, 7, 79, 123
15, 218400, Note_on_c, 7, 79, 0
15, 218400, Note_on_c, 7, 77, 123
15, 218640, Note_on_c, 7, 77, 0
15, 218640, Note_on_c, 7, 75, 123
15, 218880, Note_on_c, 7, 75, 0
15, 218880, Note_on_c, 7, 75, 123
15, 219120, Note_on_c, 7, 75, 0
15, 219120, Note_on_c, 7, 74, 123
15, 219360, Note_on_c, 7, 74, 0
15, 219360, Note_on_c, 7, 72, 123
15, 219600, Note_on_c, 7, 72, 0
15, 219600, Note_on_c, 7, 74, 123
15, 219840, Note_on_c, 7, 74, 0
15, 219840, Note_on_c, 7, 77, 123
15, 220080, Note_on_c, 7, 77, 0
15, 220080, Note_on_c, 7, 75, 123
15, 220320, Note_on_c, 7, 75, 0
15, 220320, Note_on_c, 7, 70, 123
15, 220560, Note_on_c, 7, 70, 0
15, 220560, Note_on_c, 7, 67, 123
15, 220800, Note_on_c, 7, 67, 0
15, 220800, Note_on_c, 7, 74, 123
15, 221040, Note_on_c, 7, 74, 0
15, 221040, Note_on_c, 7, 72, 123
15, 221280, Note_on_c, 7, 72, 0
15, 221280, Note_on_c, 7, 68, 123
15, 221520, Note_on_c, 7, 68, 0
15, 221520, Note_on_c, 7, 65, 123
15, 221760, Note_on_c, 7, 65, 0
15, 221760, Note_on_c, 7, 72, 123
15, 222000, Note_on_c, 7, 72, 0
15, 222000, Note_on_c, 7, 70, 123
15, 222240, Note_on_c, 7, 70, 0
15, 222240, Note_on_c, 7, 67, 123
15, 222480, Note_on_c, 7, 67, 0
15, 222480, Note_on_c, 7, 63, 123
15, 222720, Note_on_c, 7, 63, 0
15, 222720, Note_on_c, 7, 58, 123
15, 222960, Note_on_c, 7, 58, 0
15, 222960, Note_on_c, 7, 70, 123
15, 223200, Note_on_c, 7, 70, 0
15, 223200, Note_on_c, 7, 82, 123
15, 223440, Note_on_c, 7, 82, 0
15, 223440, Note_on_c, 7, 82, 123
15, 223680, Note_on_c, 7, 82, 0
15, 223680, Note_on_c, 7, 75, 123
15, 226800, Note_on_c, 7, 75, 0
15, 226800, Note_on_c, 7, 77, 123
15, 227040, Note_on_c, 7, 77, 0
15, 227040, Note_on_c, 7, 77, 123
15, 227280, Note_on_c, 7, 77, 0
15, 227280, Note_on_c, 7, 77, 123
15, 227520, Note_on_c, 7, 77, 0
15, 227520, Note_on_c, 7, 79, 123
15, 230640, Note_on_c, 7, 79, 0
15, 230640, Note_on_c, 7, 70, 123
15, 230640, Note_on_c, 7, 82, 123
15, 230880, Note_on_c, 7, 82, 0
15, 230880, Note_on_c, 7, 70, 0
15, 230880, Note_on_c, 7, 70, 123
15, 230880, Note_on_c, 7, 82, 123
15, 231120, Note_on_c, 7, 82, 0
15, 231120, Note_on_c, 7, 70, 0
15, 231120, Note_on_c, 7, 70, 123
15, 231120, Note_on_c, 7, 82, 123
15, 231360, Note_on_c, 7, 82, 0
15, 231360, Note_on_c, 7, 70, 0
15, 231360, Note_on_c, 7, 70, 123
15, 231360, Note_on_c, 7, 82, 123
15, 231840, Note_on_c, 7, 82, 0
15, 231840, Note_on_c, 7, 70, 0
15, 232560, Note_on_c, 7, 70, 123
15, 232560, Note_on_c, 7, 82, 123
15, 232800, Note_on_c, 7, 82, 0
15, 232800, Note_on_c, 7, 70, 0
15, 232800, Note_on_c, 7, 70, 123
15, 232800, Note_on_c, 7, 82, 123
15, 233040, Note_on_c, 7, 82, 0
15, 233040, Note_on_c, 7, 70, 0
15, 233040, Note_on_c, 7, 70, 123
15, 233040, Note_on_c, 7, 82, 123
15, 233280, Note_on_c, 7, 82, 0
15, 233280, Note_on_c, 7, 70, 0
15, 233280, Note_on_c, 7, 70, 123
15, 233280, Note_on_c, 7, 82, 123
15, 233760, Note_on_c, 7, 82, 0
15, 233760, Note_on_c, 7, 70, 0
15, 234480, Note_on_c, 7, 77, 123
15, 234480, Note_on_c, 7, 86, 123
15, 234720, Note_on_c, 7, 86, 0
15, 234720, Note_on_c, 7, 77, 0
15, 234720, Note_on_c, 7, 77, 123
15, 234720, Note_on_c, 7, 86, 123
15, 234960, Note_on_c, 7, 86, 0
15, 234960, Note_on_c, 7, 77, 0
15, 234960, Note_on_c, 7, 77, 123
15, 234960, Note_on_c, 7, 86, 123
15, 235200, Note_on_c, 7, 86, 0
15, 235200, Note_on_c, 7, 77, 0
15, 235200, Note_on_c, 7, 79, 123
15, 235200, Note_on_c, 7, 87, 123
15, 235680, Note_on_c, 7, 87, 0
15, 235680, Note_on_c, 7, 79, 0
15, 239280, Note_on_c, 7, 61, 123
15, 239520, Note_on_c, 7, 61, 0
15, 239520, Note_on_c, 7, 61, 123
15, 239760, Note_on_c, 7, 61, 0
15, 239760, Note_on_c, 7, 61, 123
15, 240000, Note_on_c, 7, 61, 0
15, 240000, Note_on_c, 7, 60, 123
15, 241920, Note_on_c, 7, 60, 0
15, 244080, Note_on_c, 7, 80, 91
15, 244320, Note_on_c, 7, 80, 0
15, 244320, Note_on_c, 7, 80, 91
15, 244560, Note_on_c, 7, 80, 0
15, 244560, Note_on_c, 7, 80, 91
15, 244800, Note_on_c, 7, 80, 0
15, 244800, Note_on_c, 7, 77, 91
15, 246240, Note_on_c, 7, 77, 0
15, 247920, Note_on_c, 7, 82, 91
15, 248160, Note_on_c, 7, 82, 0
15, 248160, Note_on_c, 7, 82, 91
15, 248400, Note_on_c, 7, 82, 0
15, 248400, Note_on_c, 7, 82, 91
15, 248640, Note_on_c, 7, 82, 0
15, 248640, Note_on_c, 7, 79, 91
15, 249840, Note_on_c, 7, 79, 0
15, 249840, Note_on_c, 7, 84, 91
15, 250080, Note_on_c, 7, 84, 0
15, 250080, Note_on_c, 7, 84, 91
15, 250320, Note_on_c, 7, 84, 0
15, 250320, Note_on_c, 7, 82, 91
15, 250560, Note_on_c, 7, 82, 0
15, 250560, Note_on_c, 7, 80, 91
15, 251520, Note_on_c, 7, 80, 0
15, 251520, Note_on_c, 7, 79, 91
15, 251760, Note_on_c, 7, 79, 0
15, 251760, Note_on_c, 7, 84, 91
15, 252000, Note_on_c, 7, 84, 0
15, 252000, Note_on_c, 7, 84, 91
15, 252240, Note_on_c, 7, 84, 0
15, 252240, Note_on_c, 7, 82, 91
15, 252480, Note_on_c, 7, 82, 0
15, 252480, Note_on_c, 7, 80, 91
15, 253440, Note_on_c, 7, 80, 0
15, 253440, Note_on_c, 7, 79, 91
15, 253680, Note_on_c, 7, 79, 0
15, 253680, Note_on_c, 7, 84, 91
15, 253920, Note_on_c, 7, 84, 0
15, 253920, Note_on_c, 7, 84, 91
15, 254160, Note_on_c, 7, 84, 0
15, 254160, Note_on_c, 7, 82, 91
15, 254400, Note_on_c, 7, 82, 0
15, 254400, Note_on_c, 7, 80, 91
15, 254640, Note_on_c, 7, 80, 0
15, 254640, Note_on_c, 7, 80, 91
15, 254880, Note_on_c, 7, 80, 0
15, 254880, Note_on_c, 7, 80, 91
15, 255120, Note_on_c, 7, 80, 0
15, 255120, Note_on_c, 7, 79, 91
15, 255360, Note_on_c, 7, 79, 0
15, 255360, Note_on_c, 7, 77, 91
15, 255600, Note_on_c, 7, 77, 0
15, 255600, Note_on_c, 7, 77, 91
15, 255840, Note_on_c, 7, 77, 0
15, 255840, Note_on_c, 7, 77, 91
15, 256080, Note_on_c, 7, 77, 0
15, 256080, Note_on_c, 7, 75, 91
15, 256320, Note_on_c, 7, 75, 0
15, 256320, Note_on_c, 7, 74, 91
15, 256560, Note_on_c, 7, 74, 0
15, 256560, Note_on_c, 7, 74, 91
15, 256800, Note_on_c, 7, 74, 0
15, 256800, Note_on_c, 7, 74, 91
15, 257040, Note_on_c, 7, 74, 0
15, 257040, Note_on_c, 7, 72, 91
15, 257280, Note_on_c, 7, 72, 0
15, 257280, Note_on_c, 7, 71, 91
15, 257760, Note_on_c, 7, 71, 0
15, 258480, Note_on_c, 7, 75, 91
15, 258720, Note_on_c, 7, 75, 0
15, 258720, Note_on_c, 7, 75, 91
15, 258960, Note_on_c, 7, 75, 0
15, 258960, Note_on_c, 7, 77, 91
15, 259200, Note_on_c, 7, 77, 0
15, 259200, Note_on_c, 7, 79, 91
15, 260400, Note_on_c, 7, 79, 0
15, 260400, Note_on_c, 7, 75, 91
15, 260640, Note_on_c, 7, 75, 0
15, 260640, Note_on_c, 7, 75, 91
15, 260880, Note_on_c, 7, 75, 0
15, 260880, Note_on_c, 7, 77, 91
15, 261120, Note_on_c, 7, 77, 0
15, 261120, Note_on_c, 7, 79, 91
15, 263040, Note_on_c, 7, 79, 0
15, 263040, Note_on_c, 7, 81, 91
15, 263520, Note_on_c, 7, 81, 0
15, 263520, Note_on_c, 7, 82, 91
15, 264000, Note_on_c, 7, 82, 0
15, 264000, Note_on_c, 7, 84, 91
15, 264480, Note_on_c, 7, 84, 0
15, 264480, Note_on_c, 7, 85, 91
15, 264960, Note_on_c, 7, 85, 0
15, 264960, Note_on_c, 7, 74, 91
15, 264960, Note_on_c, 7, 86, 91
15, 269760, Note_on_c, 7, 86, 0
15, 269760, Note_on_c, 7, 74, 0
15, 270000, Note_on_c, 7, 79, 91
15, 270240, Note_on_c, 7, 79, 0
15, 270240, Note_on_c, 7, 79, 91
15, 270480, Note_on_c, 7, 79, 0
15, 270480, Note_on_c, 7, 81, 91
15, 270720, Note_on_c, 7, 81, 0
15, 270720, Note_on_c, 7, 82, 91
15, 271200, Note_on_c, 7, 82, 0
15, 271920, Note_on_c, 7, 78, 91
15, 272160, Note_on_c, 7, 78, 0
15, 272160, Note_on_c, 7, 81, 91
15, 272400, Note_on_c, 7, 81, 0
15, 272400, Note_on_c, 7, 82, 91
15, 272640, Note_on_c, 7, 82, 0
15, 272640, Note_on_c, 7, 84, 91
15, 273120, Note_on_c, 7, 84, 0
15, 273840, Note_on_c, 7, 78, 91
15, 274080, Note_on_c, 7, 78, 0
15, 274080, Note_on_c, 7, 81, 91
15, 274320, Note_on_c, 7, 81, 0
15, 274320, Note_on_c, 7, 82, 91
15, 274560, Note_on_c, 7, 82, 0
15, 274560, Note_on_c, 7, 84, 91
15, 275040, Note_on_c, 7, 84, 0
15, 275760, Note_on_c, 7, 79, 91
15, 276000, Note_on_c, 7, 79, 0
15, 276000, Note_on_c, 7, 82, 91
15, 276240, Note_on_c, 7, 82, 0
15, 276240, Note_on_c, 7, 84, 91
15, 276480, Note_on_c, 7, 84, 0
15, 276480, Note_on_c, 7, 86, 91
15, 276960, Note_on_c, 7, 86, 0
15, 277680, Note_on_c, 7, 79, 91
15, 277920, Note_on_c, 7, 79, 0
15, 277920, Note_on_c, 7, 82, 91
15, 278160, Note_on_c, 7, 82, 0
15, 278160, Note_on_c, 7, 84, 101
15, 278400, Note_on_c, 7, 84, 0
15, 278400, Note_on_c, 7, 86, 101
15, 278640, Note_on_c, 7, 86, 0
15, 278640, Note_on_c, 7, 82, 109
15, 278880, Note_on_c, 7, 82, 0
15, 278880, Note_on_c, 7, 84, 109
15, 279120, Note_on_c, 7, 84, 0
15, 279120, Note_on_c, 7, 86, 109
15, 279360, Note_on_c, 7, 86, 0
15, 279360, Note_on_c, 7, 75, 115
15, 279360, Note_on_c, 7, 87, 115
15, 279600, Note_on_c, 7, 87, 0
15, 279600, Note_on_c, 7, 75, 0
15, 279600, Note_on_c, 7, 75, 115
15, 279600, Note_on_c, 7, 87, 115
15, 279840, Note_on_c, 7, 87, 0
15, 279840, Note_on_c, 7, 75, 0
15, 279840, Note_on_c, 7, 75, 115
15, 279840, Note_on_c, 7, 87, 115
15, 280080, Note_on_c, 7, 87, 0
15, 280080, Note_on_c, 7, 75, 0
15, 280080, Note_on_c, 7, 75, 115
15, 280080, Note_on_c, 7, 87, 115
15, 280320, Note_on_c, 7, 87, 0
15, 280320, Note_on_c, 7, 75, 0
15, 280320, Note_on_c, 7, 75, 115
15, 280320, Note_on_c, 7, 87, 115
15, 280560, Note_on_c, 7, 87, 0
15, 280560, Note_on_c, 7, 75, 0
15, 280560, Note_on_c, 7, 75, 115
15, 280560, Note_on_c, 7, 87, 115
15, 280800, Note_on_c, 7, 87, 0
15, 280800, Note_on_c, 7, 75, 0
15, 280800, Note_on_c, 7, 75, 115
15, 280800, Note_on_c, 7, 87, 115
15, 281040, Note_on_c, 7, 87, 0
15, 281040, Note_on_c, 7, 75, 0
15, 281040, Note_on_c, 7, 75, 115
15, 281040, Note_on_c, 7, 87, 115
15, 281280, Note_on_c, 7, 87, 0
15, 281280, Note_on_c, 7, 75, 0
15, 281280, Note_on_c, 7, 75, 115
15, 281280, Note_on_c, 7, 87, 115
15, 281760, Note_on_c, 7, 87, 0
15, 281760, Note_on_c, 7, 75, 0
15, 282480, Note_on_c, 7, 76, 115
15, 282480, Note_on_c, 7, 88, 115
15, 282720, Note_on_c, 7, 88, 0
15, 282720, Note_on_c, 7, 76, 0
15, 282720, Note_on_c, 7, 76, 115
15, 282720, Note_on_c, 7, 88, 115
15, 282960, Note_on_c, 7, 88, 0
15, 282960, Note_on_c, 7, 76, 0
15, 282960, Note_on_c, 7, 76, 115
15, 282960, Note_on_c, 7, 88, 115
15, 283200, Note_on_c, 7, 88, 0
15, 283200, Note_on_c, 7, 76, 0
15, 283200, Note_on_c, 7, 76, 115
15, 283200, Note_on_c, 7, 88, 115
15, 283440, Note_on_c, 7, 88, 0
15, 283440, Note_on_c, 7, 76, 0
15, 283440, Note_on_c, 7, 76, 115
15, 283440, Note_on_c, 7, 88, 115
15, 283680, Note_on_c, 7, 88, 0
15, 283680, Note_on_c, 7, 76, 0
15, 283680, Note_on_c, 7, 76, 115
15, 283680, Note_on_c, 7, 88, 115
15, 283920, Note_on_c, 7, 88, 0
15, 283920, Note_on_c, 7, 76, 0
15, 283920, Note_on_c, 7, 76, 115
15, 283920, Note_on_c, 7, 88, 115
15, 284160, Note_on_c, 7, 88, 0
15, 284160, Note_on_c, 7, 76, 0
15, 284160, Note_on_c, 7, 76, 115
15, 284160, Note_on_c, 7, 88, 115
15, 284400, Note_on_c, 7, 88, 0
15, 284400, Note_on_c, 7, 76, 0
15, 284400, Note_on_c, 7, 76, 115
15, 284400, Note_on_c, 7, 88, 115
15, 284640, Note_on_c, 7, 88, 0
15, 284640, Note_on_c, 7, 76, 0
15, 284640, Note_on_c, 7, 76, 115
15, 284640, Note_on_c, 7, 88, 115
15, 284880, Note_on_c, 7, 88, 0
15, 284880, Note_on_c, 7, 76, 0
15, 284880, Note_on_c, 7, 76, 115
15, 284880, Note_on_c, 7, 88, 115
15, 285120, Note_on_c, 7, 88, 0
15, 285120, Note_on_c, 7, 76, 0
15, 285120, Note_on_c, 7, 76, 115
15, 285120, Note_on_c, 7, 88, 115
15, 285600, Note_on_c, 7, 88, 0
15, 285600, Note_on_c, 7, 76, 0
15, 286320, Note_on_c, 7, 70, 115
15, 286320, Note_on_c, 7, 79, 115
15, 286560, Note_on_c, 7, 79, 0
15, 286560, Note_on_c, 7, 70, 0
15, 286560, Note_on_c, 7, 70, 115
15, 286560, Note_on_c, 7, 79, 115
15, 286800, Note_on_c, 7, 79, 0
15, 286800, Note_on_c, 7, 70, 0
15, 286800, Note_on_c, 7, 70, 115
15, 286800, Note_on_c, 7, 79, 115
15, 287040, Note_on_c, 7, 79, 0
15, 287040, Note_on_c, 7, 70, 0
15, 287040, Note_on_c, 7, 70, 115
15, 287040, Note_on_c, 7, 79, 115
15, 287520, Note_on_c, 7, 79, 0
15, 287520, Note_on_c, 7, 70, 0
15, 288480, Note_on_c, 7, 85, 115
15, 288720, Note_on_c, 7, 85, 0
15, 288720, Note_on_c, 7, 85, 115
15, 288960, Note_on_c, 7, 85, 0
15, 288960, Note_on_c, 7, 85, 115
15, 289440, Note_on_c, 7, 85, 0
15, 289440, Note_on_c, 7, 86, 115
15, 289680, Note_on_c, 7, 86, 0
15, 289680, Note_on_c, 7, 86, 115
15, 289920, Note_on_c, 7, 86, 0
15, 289920, Note_on_c, 7, 86, 115
15, 290160, Note_on_c, 7, 86, 0
15, 290160, Note_on_c, 7, 86, 123
15, 290400, Note_on_c, 7, 86, 0
15, 290400, Note_on_c, 7, 86, 123
15, 290640, Note_on_c, 7, 86, 0
15, 290640, Note_on_c, 7, 86, 123
15, 290880, Note_on_c, 7, 86, 0
15, 290880, Note_on_c, 7, 79, 123
15, 291840, Note_on_c, 7, 79, 0
15, 291840, Note_on_c, 7, 81, 123
15, 292800, Note_on_c, 7, 81, 0
15, 292800, Note_on_c, 7, 74, 123
15, 296160, Note_on_c, 7, 74, 0
15, 296160, Note_on_c, 7, 78, 123
15, 296400, Note_on_c, 7, 78, 0
15, 296400, Note_on_c, 7, 78, 123
15, 296640, Note_on_c, 7, 78, 0
15, 296640, Note_on_c, 7, 81, 123
15, 297120, Note_on_c, 7, 81, 0
15, 297120, Note_on_c, 7, 86, 123
15, 297360, Note_on_c, 7, 86, 0
15, 297360, Note_on_c, 7, 86, 123
15, 297600, Note_on_c, 7, 86, 0
15, 297600, Note_on_c, 7, 83, 123
15, 297840, Note_on_c, 7, 83, 0
15, 297840, Note_on_c, 7, 79, 123
15, 298080, Note_on_c, 7, 79, 0
15, 298080, Note_on_c, 7, 79, 123
15, 298320, Note_on_c, 7, 79, 0
15, 298320, Note_on_c, 7, 79, 123
15, 298560, Note_on_c, 7, 79, 0
15, 298560, Note_on_c, 7, 72, 123
15, 299520, Note_on_c, 7, 72, 0
15, 299520, Note_on_c, 7, 74, 123
15, 300480, Note_on_c, 7, 74, 0
15, 300480, Note_on_c, 7, 67, 123
15, 303840, Note_on_c, 7, 67, 0
15, 303840, Note_on_c, 7, 71, 123
15, 304080, Note_on_c, 7, 71, 0
15, 304080, Note_on_c, 7, 71, 123
15, 304320, Note_on_c, 7, 71, 0
15, 304320, Note_on_c, 7, 74, 123
15, 304800, Note_on_c, 7, 74, 0
15, 304800, Note_on_c, 7, 79, 123
15, 305040, Note_on_c, 7, 79, 0
15, 305040, Note_on_c, 7, 79, 123
15, 305280, Note_on_c, 7, 79, 0
15, 305280, Note_on_c, 7, 76, 123
15, 305760, Note_on_c, 7, 76, 0
15, 308160, Note_on_c, 7, 55, 123
15, 308160, Note_on_c, 7, 64, 123
15, 309120, Note_on_c, 7, 64, 0
15, 309120, Note_on_c, 7, 55, 0
15, 309120, Note_on_c, 7, 56, 123
15, 309120, Note_on_c, 7, 65, 123
15, 310080, Note_on_c, 7, 65, 0
15, 310080, Note_on_c, 7, 56, 0
15, 312000, Note_on_c, 7, 55, 123
15, 312000, Note_on_c, 7, 64, 123
15, 312960, Note_on_c, 7, 64, 0
15, 312960, Note_on_c, 7, 55, 0
15, 312960, Note_on_c, 7, 56, 123
15, 312960, Note_on_c, 7, 65, 123
15, 313920, Note_on_c, 7, 65, 0
15, 313920, Note_on_c, 7, 56, 0
15, 315840, Note_on_c, 7, 66, 123
15, 316800, Note_on_c, 7, 66, 0
15, 316800, Note_on_c, 7, 69, 123
15, 317760, Note_on_c, 7, 69, 0
15, 319680, Note_on_c, 7, 70, 123
15, 320640, Note_on_c, 7, 70, 0
15, 321600, Note_on_c, 7, 71, 115
15, 322560, Note_on_c, 7, 71, 0
15, 323520, Note_on_c, 7, 73, 109
15, 324480, Note_on_c, 7, 73, 0
15, 325440, Note_on_c, 7, 61, 101
15, 326400, Note_on_c, 7, 61, 0
15, 327360, Note_on_c, 7, 61, 91
15, 328320, Note_on_c, 7, 61, 0
15, 329280, Note_on_c, 7, 61, 91
15, 330240, Note_on_c, 7, 61, 0
15, 331200, Note_on_c, 7, 62, 78
15, 332160, Note_on_c, 7, 62, 0
15, 333120, Note_on_c, 7, 62, 78
15, 334080, Note_on_c, 7, 62, 0
15, 335040, Note_on_c, 7, 62, 78
15, 336000, Note_on_c, 7, 62, 0
15, 336960, Note_on_c, 7, 62, 123
15, 337200, Note_on_c, 7, 62, 0
15, 337200, Note_on_c, 7, 74, 123
15, 337440, Note_on_c, 7, 74, 0
15, 337440, Note_on_c, 7, 74, 123
15, 337680, Note_on_c, 7, 74, 0
15, 337680, Note_on_c, 7, 74, 123
15, 337920, Note_on_c, 7, 74, 0
15, 337920, Note_on_c, 7, 71, 123
15, 338880, Note_on_c, 7, 71, 0
15, 338880, Note_on_c, 7, 72, 123
15, 339840, Note_on_c, 7, 72, 0
15, 339840, Note_on_c, 7, 69, 123
15, 341760, Note_on_c, 7, 69, 0
15, 342720, Note_on_c, 7, 62, 78
15, 343680, Note_on_c, 7, 62, 0
15, 344640, Note_on_c, 7, 62, 78
15, 345600, Note_on_c, 7, 62, 0
15, 346560, Note_on_c, 7, 62, 78
15, 347520, Note_on_c, 7, 62, 0
15, 348480, Note_on_c, 7, 62, 115
15, 348960, Note_on_c, 7, 62, 0
15, 349680, Note_on_c, 7, 80, 123
15, 349920, Note_on_c, 7, 80, 0
15, 349920, Note_on_c, 7, 80, 123
15, 350160, Note_on_c, 7, 80, 0
15, 350160, Note_on_c, 7, 80, 123
15, 350400, Note_on_c, 7, 80, 0
15, 350400, Note_on_c, 7, 77, 123
15, 351600, Note_on_c, 7, 77, 0
15, 351600, Note_on_c, 7, 80, 123
15, 351840, Note_on_c, 7, 80, 0
15, 351840, Note_on_c, 7, 80, 123
15, 352080, Note_on_c, 7, 80, 0
15, 352080, Note_on_c, 7, 80, 123
15, 352320, Note_on_c, 7, 80, 0
15, 352320, Note_on_c, 7, 77, 123
15, 353520, Note_on_c, 7, 77, 0
15, 353520, Note_on_c, 7, 80, 123
15, 353760, Note_on_c, 7, 80, 0
15, 353760, Note_on_c, 7, 80, 123
15, 354000, Note_on_c, 7, 80, 0
15, 354000, Note_on_c, 7, 80, 123
15, 354240, Note_on_c, 7, 80, 0
15, 354240, Note_on_c, 7, 77, 123
15, 354480, Note_on_c, 7, 77, 0
15, 354480, Note_on_c, 7, 80, 123
15, 354720, Note_on_c, 7, 80, 0
15, 354720, Note_on_c, 7, 80, 123
15, 354960, Note_on_c, 7, 80, 0
15, 354960, Note_on_c, 7, 80, 123
15, 355200, Note_on_c, 7, 80, 0
15, 355200, Note_on_c, 7, 77, 123
15, 355440, Note_on_c, 7, 77, 0
15, 355440, Note_on_c, 7, 80, 123
15, 355680, Note_on_c, 7, 80, 0
15, 355680, Note_on_c, 7, 80, 123
15, 355920, Note_on_c, 7, 80, 0
15, 355920, Note_on_c, 7, 80, 123
15, 356160, Note_on_c, 7, 80, 0
15, 356160, Note_on_c, 7, 77, 123
15, 356400, Note_on_c, 7, 77, 0
15, 356400, Note_on_c, 7, 79, 123
15, 356640, Note_on_c, 7, 79, 0
15, 356640, Note_on_c, 7, 79, 123
15, 356880, Note_on_c, 7, 79, 0
15, 356880, Note_on_c, 7, 79, 123
15, 357120, Note_on_c, 7, 79, 0
15, 357120, Note_on_c, 7, 75, 123
15, 358080, Note_on_c, 7, 75, 0
15, 358320, Note_on_c, 7, 77, 123
15, 358560, Note_on_c, 7, 77, 0
15, 358560, Note_on_c, 7, 77, 123
15, 358800, Note_on_c, 7, 77, 0
15, 358800, Note_on_c, 7, 77, 123
15, 359040, Note_on_c, 7, 77, 0
15, 359040, Note_on_c, 7, 74, 123
15, 360960, Note_on_c, 7, 74, 0
15, 362160, Note_on_c, 7, 68, 91
15, 362400, Note_on_c, 7, 68, 0
15, 362400, Note_on_c, 7, 68, 91
15, 362640, Note_on_c, 7, 68, 0
15, 362640, Note_on_c, 7, 68, 91
15, 362880, Note_on_c, 7, 68, 0
15, 362880, Note_on_c, 7, 67, 91
15, 363120, Note_on_c, 7, 67, 0
15, 363120, Note_on_c, 7, 75, 91
15, 363360, Note_on_c, 7, 75, 0
15, 363360, Note_on_c, 7, 75, 91
15, 363600, Note_on_c, 7, 75, 0
15, 363600, Note_on_c, 7, 75, 91
15, 363840, Note_on_c, 7, 75, 0
15, 363840, Note_on_c, 7, 72, 91
15, 364320, Note_on_c, 7, 72, 0
15, 366000, Note_on_c, 7, 68, 91
15, 366240, Note_on_c, 7, 68, 0
15, 366240, Note_on_c, 7, 68, 91
15, 366480, Note_on_c, 7, 68, 0
15, 366480, Note_on_c, 7, 68, 91
15, 366720, Note_on_c, 7, 68, 0
15, 366720, Note_on_c, 7, 67, 91
15, 366960, Note_on_c, 7, 67, 0
15, 366960, Note_on_c, 7, 77, 91
15, 367200, Note_on_c, 7, 77, 0
15, 367200, Note_on_c, 7, 77, 91
15, 367440, Note_on_c, 7, 77, 0
15, 367440, Note_on_c, 7, 77, 91
15, 367680, Note_on_c, 7, 77, 0
15, 367680, Note_on_c, 7, 74, 91
15, 368880, Note_on_c, 7, 74, 0
15, 368880, Note_on_c, 7, 79, 91
15, 369120, Note_on_c, 7, 79, 0
15, 369120, Note_on_c, 7, 79, 91
15, 369360, Note_on_c, 7, 79, 0
15, 369360, Note_on_c, 7, 77, 91
15, 369600, Note_on_c, 7, 77, 0
15, 369600, Note_on_c, 7, 75, 91
15, 370560, Note_on_c, 7, 75, 0
15, 370560, Note_on_c, 7, 74, 91
15, 370800, Note_on_c, 7, 74, 0
15, 370800, Note_on_c, 7, 79, 91
15, 371040, Note_on_c, 7, 79, 0
15, 371040, Note_on_c, 7, 79, 91
15, 371280, Note_on_c, 7, 79, 0
15, 371280, Note_on_c, 7, 77, 91
15, 371520, Note_on_c, 7, 77, 0
15, 371520, Note_on_c, 7, 75, 91
15, 372480, Note_on_c, 7, 75, 0
15, 372480, Note_on_c, 7, 74, 91
15, 372720, Note_on_c, 7, 74, 0
15, 372720, Note_on_c, 7, 79, 91
15, 372960, Note_on_c, 7, 79, 0
15, 372960, Note_on_c, 7, 79, 91
15, 373200, Note_on_c, 7, 79, 0
15, 373200, Note_on_c, 7, 77, 91
15, 373440, Note_on_c, 7, 77, 0
15, 373440, Note_on_c, 7, 75, 91
15, 373920, Note_on_c, 7, 75, 0
15, 374400, Note_on_c, 7, 56, 91
15, 374400, Note_on_c, 7, 66, 91
15, 374400, Note_on_c, 7, 72, 91
15, 374880, Note_on_c, 7, 72, 0
15, 374880, Note_on_c, 7, 66, 0
15, 374880, Note_on_c, 7, 56, 0
15, 375360, Note_on_c, 7, 55, 123
15, 375360, Note_on_c, 7, 62, 123
15, 375360, Note_on_c, 7, 71, 123
15, 375360, Note_on_c, 7, 79, 123
15, 375840, Note_on_c, 7, 79, 0
15, 375840, Note_on_c, 7, 55, 0
15, 375840, Note_on_c, 7, 62, 0
15, 375840, Note_on_c, 7, 71, 0
15, 380400, Note_on_c, 7, 68, 91
15, 380640, Note_on_c, 7, 68, 0
15, 380640, Note_on_c, 7, 68, 91
15, 380880, Note_on_c, 7, 68, 0
15, 380880, Note_on_c, 7, 68, 91
15, 381120, Note_on_c, 7, 68, 0
15, 381120, Note_on_c, 7, 65, 91
15, 384000, Note_on_c, 7, 65, 0
15, 384000, Note_on_c, 7, 63, 91
15, 384240, Note_on_c, 7, 63, 0
15, 384240, Note_on_c, 7, 68, 91
15, 384480, Note_on_c, 7, 68, 0
15, 384480, Note_on_c, 7, 68, 91
15, 384720, Note_on_c, 7, 68, 0
15, 384720, Note_on_c, 7, 68, 91
15, 384960, Note_on_c, 7, 68, 0
15, 384960, Note_on_c, 7, 65, 101
15, 385200, Note_on_c, 7, 65, 0
15, 385200, Note_on_c, 7, 62, 101
15, 385440, Note_on_c, 7, 62, 0
15, 385440, Note_on_c, 7, 62, 101
15, 385680, Note_on_c, 7, 62, 0
15, 385680, Note_on_c, 7, 62, 101
15, 385920, Note_on_c, 7, 62, 0
15, 385920, Note_on_c, 7, 59, 101
15, 386160, Note_on_c, 7, 59, 0
15, 386160, Note_on_c, 7, 56, 101
15, 386400, Note_on_c, 7, 56, 0
15, 386400, Note_on_c, 7, 56, 109
15, 386640, Note_on_c, 7, 56, 0
15, 386640, Note_on_c, 7, 56, 109
15, 386880, Note_on_c, 7, 56, 0
15, 386880, Note_on_c, 7, 55, 109
15, 387120, Note_on_c, 7, 55, 0
15, 387120, Note_on_c, 7, 71, 109
15, 387360, Note_on_c, 7, 71, 0
15, 387360, Note_on_c, 7, 71, 109
15, 387600, Note_on_c, 7, 71, 0
15, 387600, Note_on_c, 7, 71, 109
15, 387840, Note_on_c, 7, 71, 0
15, 387840, Note_on_c, 7, 72, 115
15, 388080, Note_on_c, 7, 72, 0
15, 388080, Note_on_c, 7, 67, 115
15, 388320, Note_on_c, 7, 67, 0
15, 388320, Note_on_c, 7, 72, 115
15, 388560, Note_on_c, 7, 72, 0
15, 388560, Note_on_c, 7, 72, 115
15, 388800, Note_on_c, 7, 72, 0
15, 388800, Note_on_c, 7, 72, 115
15, 389760, Note_on_c, 7, 72, 0
15, 389760, Note_on_c, 7, 71, 115
15, 390000, Note_on_c, 7, 71, 0
15, 390000, Note_on_c, 7, 71, 115
15, 390240, Note_on_c, 7, 71, 0
15, 390240, Note_on_c, 7, 71, 115
15, 390480, Note_on_c, 7, 71, 0
15, 390480, Note_on_c, 7, 74, 115
15, 390720, Note_on_c, 7, 74, 0
15, 390720, Note_on_c, 7, 74, 115
15, 391680, Note_on_c, 7, 74, 0
15, 391680, Note_on_c, 7, 72, 115
15, 391920, Note_on_c, 7, 72, 0
15, 391920, Note_on_c, 7, 72, 115
15, 392160, Note_on_c, 7, 72, 0
15, 392160, Note_on_c, 7, 72, 115
15, 392400, Note_on_c, 7, 72, 0
15, 392400, Note_on_c, 7, 75, 115
15, 392640, Note_on_c, 7, 75, 0
15, 392640, Note_on_c, 7, 75, 115
15, 392880, Note_on_c, 7, 75, 0
15, 392880, Note_on_c, 7, 74, 115
15, 393120, Note_on_c, 7, 74, 0
15, 393120, Note_on_c, 7, 74, 115
15, 393360, Note_on_c, 7, 74, 0
15, 393360, Note_on_c, 7, 77, 115
15, 393600, Note_on_c, 7, 77, 0
15, 393600, Note_on_c, 7, 77, 115
15, 393840, Note_on_c, 7, 77, 0
15, 393840, Note_on_c, 7, 76, 115
15, 394080, Note_on_c, 7, 76, 0
15, 394080, Note_on_c, 7, 76, 115
15, 394320, Note_on_c, 7, 76, 0
15, 394320, Note_on_c, 7, 79, 115
15, 394560, Note_on_c, 7, 79, 0
15, 394560, Note_on_c, 7, 79, 115
15, 394800, Note_on_c, 7, 79, 0
15, 394800, Note_on_c, 7, 77, 115
15, 395040, Note_on_c, 7, 77, 0
15, 395040, Note_on_c, 7, 77, 115
15, 395280, Note_on_c, 7, 77, 0
15, 395280, Note_on_c, 7, 80, 115
15, 395520, Note_on_c, 7, 80, 0
15, 395520, Note_on_c, 7, 80, 115
15, 395760, Note_on_c, 7, 80, 0
15, 395760, Note_on_c, 7, 79, 115
15, 396000, Note_on_c, 7, 79, 0
15, 396000, Note_on_c, 7, 79, 115
15, 396240, Note_on_c, 7, 79, 0
15, 396240, Note_on_c, 7, 82, 115
15, 396480, Note_on_c, 7, 82, 0
15, 396480, Note_on_c, 7, 82, 115
15, 396720, Note_on_c, 7, 82, 0
15, 396720, Note_on_c, 7, 80, 115
15, 396960, Note_on_c, 7, 80, 0
15, 396960, Note_on_c, 7, 80, 115
15, 397200, Note_on_c, 7, 80, 0
15, 397200, Note_on_c, 7, 84, 115
15, 397440, Note_on_c, 7, 84, 0
15, 397440, Note_on_c, 7, 84, 115
15, 397680, Note_on_c, 7, 84, 0
15, 397680, Note_on_c, 7, 83, 115
15, 397920, Note_on_c, 7, 83, 0
15, 397920, Note_on_c, 7, 83, 115
15, 398160, Note_on_c, 7, 83, 0
15, 398160, Note_on_c, 7, 86, 115
15, 398400, Note_on_c, 7, 86, 0
15, 398400, Note_on_c, 7, 84, 123
15, 398640, Note_on_c, 7, 84, 0
15, 398640, Note_on_c, 7, 87, 123
15, 398880, Note_on_c, 7, 87, 0
15, 398880, Note_on_c, 7, 87, 123
15, 399120, Note_on_c, 7, 87, 0
15, 399120, Note_on_c, 7, 87, 123
15, 399360, Note_on_c, 7, 87, 0
15, 399360, Note_on_c, 7, 84, 123
15, 399600, Note_on_c, 7, 84, 0
15, 399600, Note_on_c, 7, 79, 123
15, 399840, Note_on_c, 7, 79, 0
15, 399840, Note_on_c, 7, 79, 123
15, 400080, Note_on_c, 7, 79, 0
15, 400080, Note_on_c, 7, 79, 123
15, 400320, Note_on_c, 7, 79, 0
15, 400320, Note_on_c, 7, 75, 123
15, 400560, Note_on_c, 7, 75, 0
15, 400560, Note_on_c, 7, 72, 123
15, 400800, Note_on_c, 7, 72, 0
15, 400800, Note_on_c, 7, 67, 123
15, 401040, Note_on_c, 7, 67, 0
15, 401040, Note_on_c, 7, 67, 123
15, 401280, Note_on_c, 7, 67, 0
15, 401280, Note_on_c, 7, 63, 123
15, 401520, Note_on_c, 7, 63, 0
15, 401520, Note_on_c, 7, 60, 123
15, 401760, Note_on_c, 7, 60, 0
15, 401760, Note_on_c, 7, 60, 123
15, 402000, Note_on_c, 7, 60, 0
15, 402000, Note_on_c, 7, 60, 123
15, 402240, Note_on_c, 7, 60, 0
15, 402240, Note_on_c, 7, 59, 123
15, 402480, Note_on_c, 7, 59, 0
15, 402480, Note_on_c, 7, 89, 123
15, 402720, Note_on_c, 7, 89, 0
15, 402720, Note_on_c, 7, 86, 123
15, 402960, Note_on_c, 7, 86, 0
15, 402960, Note_on_c, 7, 86, 123
15, 403200, Note_on_c, 7, 86, 0
15, 403200, Note_on_c, 7, 83, 123
15, 403440, Note_on_c, 7, 83, 0
15, 403440, Note_on_c, 7, 79, 123
15, 403680, Note_on_c, 7, 79, 0
15, 403680, Note_on_c, 7, 77, 123
15, 403920, Note_on_c, 7, 77, 0
15, 403920, Note_on_c, 7, 77, 123
15, 404160, Note_on_c, 7, 77, 0
15, 404160, Note_on_c, 7, 74, 123
15, 404400, Note_on_c, 7, 74, 0
15, 404400, Note_on_c, 7, 71, 123
15, 404640, Note_on_c, 7, 71, 0
15, 404640, Note_on_c, 7, 67, 123
15, 404880, Note_on_c, 7, 67, 0
15, 404880, Note_on_c, 7, 65, 123
15, 405120, Note_on_c, 7, 65, 0
15, 405120, Note_on_c, 7, 62, 123
15, 405360, Note_on_c, 7, 62, 0
15, 405360, Note_on_c, 7, 59, 123
15, 405600, Note_on_c, 7, 59, 0
15, 405600, Note_on_c, 7, 60, 123
15, 405840, Note_on_c, 7, 60, 0
15, 405840, Note_on_c, 7, 60, 123
15, 406080, Note_on_c, 7, 60, 0
15, 406080, Note_on_c, 7, 60, 123
15, 406320, Note_on_c, 7, 60, 0
15, 406320, Note_on_c, 7, 87, 123
15, 406560, Note_on_c, 7, 87, 0
15, 406560, Note_on_c, 7, 87, 123
15, 406800, Note_on_c, 7, 87, 0
15, 406800, Note_on_c, 7, 87, 123
15, 407040, Note_on_c, 7, 87, 0
15, 407040, Note_on_c, 7, 84, 123
15, 407280, Note_on_c, 7, 84, 0
15, 407280, Note_on_c, 7, 81, 123
15, 407520, Note_on_c, 7, 81, 0
15, 407520, Note_on_c, 7, 81, 123
15, 407760, Note_on_c, 7, 81, 0
15, 407760, Note_on_c, 7, 81, 123
15, 408000, Note_on_c, 7, 81, 0
15, 408000, Note_on_c, 7, 78, 123
15, 408240, Note_on_c, 7, 78, 0
15, 408240, Note_on_c, 7, 75, 123
15, 408480, Note_on_c, 7, 75, 0
15, 408480, Note_on_c, 7, 75, 123
15, 408720, Note_on_c, 7, 75, 0
15, 408720, Note_on_c, 7, 75, 123
15, 408960, Note_on_c, 7, 75, 0
15, 408960, Note_on_c, 7, 72, 123
15, 409200, Note_on_c, 7, 72, 0
15, 409200, Note_on_c, 7, 69, 123
15, 409440, Note_on_c, 7, 69, 0
15, 409440, Note_on_c, 7, 69, 123
15, 409680, Note_on_c, 7, 69, 0
15, 409680, Note_on_c, 7, 69, 123
15, 409920, Note_on_c, 7, 69, 0
15, 409920, Note_on_c, 7, 66, 123
15, 410400, Note_on_c, 7, 66, 0
15, 411840, Note_on_c, 7, 55, 123
15, 411840, Note_on_c, 7, 67, 123
15, 412320, Note_on_c, 7, 67, 0
15, 412320, Note_on_c, 7, 55, 0
15, 416640, Note_on_c, 7, 67, 91
15, 417120, Note_on_c, 7, 67, 0
15, 417120, Note_on_c, 7, 72, 91
15, 417600, Note_on_c, 7, 72, 0
15, 417600, Note_on_c, 7, 71, 91
15, 418080, Note_on_c, 7, 71, 0
15, 418080, Note_on_c, 7, 72, 91
15, 418560, Note_on_c, 7, 72, 0
15, 418560, Note_on_c, 7, 74, 91
15, 419040, Note_on_c, 7, 74, 0
15, 419040, Note_on_c, 7, 69, 91
15, 419520, Note_on_c, 7, 69, 0
15, 419520, Note_on_c, 7, 69, 91
15, 420000, Note_on_c, 7, 69, 0
15, 420000, Note_on_c, 7, 67, 91
15, 420480, Note_on_c, 7, 67, 0
15, 424320, Note_on_c, 7, 67, 91
15, 424800, Note_on_c, 7, 67, 0
15, 424800, Note_on_c, 7, 72, 91
15, 425280, Note_on_c, 7, 72, 0
15, 425280, Note_on_c, 7, 71, 91
15, 425760, Note_on_c, 7, 71, 0
15, 425760, Note_on_c, 7, 72, 91
15, 426240, Note_on_c, 7, 72, 0
15, 426240, Note_on_c, 7, 74, 91
15, 426720, Note_on_c, 7, 74, 0
15, 426720, Note_on_c, 7, 69, 91
15, 427200, Note_on_c, 7, 69, 0
15, 427200, Note_on_c, 7, 69, 91
15, 427680, Note_on_c, 7, 69, 0
15, 427680, Note_on_c, 7, 67, 91
15, 428160, Note_on_c, 7, 67, 0
15, 432000, Note_on_c, 7, 70, 91
15, 432480, Note_on_c, 7, 70, 0
15, 432480, Note_on_c, 7, 72, 91
15, 432960, Note_on_c, 7, 72, 0
15, 432960, Note_on_c, 7, 73, 91
15, 433440, Note_on_c, 7, 73, 0
15, 433440, Note_on_c, 7, 72, 91
15, 433920, Note_on_c, 7, 72, 0
15, 435840, Note_on_c, 7, 72, 91
15, 436320, Note_on_c, 7, 72, 0
15, 436320, Note_on_c, 7, 74, 91
15, 436800, Note_on_c, 7, 74, 0
15, 436800, Note_on_c, 7, 75, 91
15, 437280, Note_on_c, 7, 75, 0
15, 437280, Note_on_c, 7, 74, 91
15, 437760, Note_on_c, 7, 74, 0
15, 439680, Note_on_c, 7, 77, 91
15, 440160, Note_on_c, 7, 77, 0
15, 440160, Note_on_c, 7, 79, 91
15, 440640, Note_on_c, 7, 79, 0
15, 440640, Note_on_c, 7, 80, 91
15, 441120, Note_on_c, 7, 80, 0
15, 441120, Note_on_c, 7, 79, 91
15, 441600, Note_on_c, 7, 79, 0
15, 441600, Note_on_c, 7, 77, 91
15, 442080, Note_on_c, 7, 77, 0
15, 442080, Note_on_c, 7, 79, 91
15, 442560, Note_on_c, 7, 79, 0
15, 442560, Note_on_c, 7, 80, 101
15, 443040, Note_on_c, 7, 80, 0
15, 443040, Note_on_c, 7, 79, 101
15, 443520, Note_on_c, 7, 79, 0
15, 443520, Note_on_c, 7, 77, 101
15, 444000, Note_on_c, 7, 77, 0
15, 444000, Note_on_c, 7, 79, 101
15, 444480, Note_on_c, 7, 79, 0
15, 444480, Note_on_c, 7, 80, 101
15, 444960, Note_on_c, 7, 80, 0
15, 444960, Note_on_c, 7, 79, 101
15, 445440, Note_on_c, 7, 79, 0
15, 445440, Note_on_c, 7, 77, 101
15, 445920, Note_on_c, 7, 77, 0
15, 445920, Note_on_c, 7, 79, 101
15, 446400, Note_on_c, 7, 79, 0
15, 446400, Note_on_c, 7, 80, 109
15, 446880, Note_on_c, 7, 80, 0
15, 446880, Note_on_c, 7, 79, 109
15, 447360, Note_on_c, 7, 79, 0
15, 447360, Note_on_c, 7, 78, 109
15, 447840, Note_on_c, 7, 78, 0
15, 447840, Note_on_c, 7, 79, 109
15, 448320, Note_on_c, 7, 79, 0
15, 448320, Note_on_c, 7, 81, 109
15, 448800, Note_on_c, 7, 81, 0
15, 448800, Note_on_c, 7, 79, 109
15, 449280, Note_on_c, 7, 79, 0
15, 449280, Note_on_c, 7, 78, 109
15, 449760, Note_on_c, 7, 78, 0
15, 449760, Note_on_c, 7, 79, 109
15, 450240, Note_on_c, 7, 79, 0
15, 450240, Note_on_c, 7, 81, 115
15, 450720, Note_on_c, 7, 81, 0
15, 450720, Note_on_c, 7, 79, 115
15, 451200, Note_on_c, 7, 79, 0
15, 451200, Note_on_c, 7, 78, 115
15, 451680, Note_on_c, 7, 78, 0
15, 451680, Note_on_c, 7, 79, 115
15, 452160, Note_on_c, 7, 79, 0
15, 452160, Note_on_c, 7, 78, 115
15, 452640, Note_on_c, 7, 78, 0
15, 452640, Note_on_c, 7, 79, 115
15, 453120, Note_on_c, 7, 79, 0
15, 453120, Note_on_c, 7, 78, 115
15, 453600, Note_on_c, 7, 78, 0
15, 453600, Note_on_c, 7, 79, 115
15, 454080, Note_on_c, 7, 79, 0
15, 454080, Note_on_c, 7, 79, 123
15, 455280, Note_on_c, 7, 79, 0
15, 455280, Note_on_c, 7, 81, 123
15, 455520, Note_on_c, 7, 81, 0
15, 455520, Note_on_c, 7, 79, 123
15, 455760, Note_on_c, 7, 79, 0
15, 455760, Note_on_c, 7, 77, 123
15, 456000, Note_on_c, 7, 77, 0
15, 456000, Note_on_c, 7, 77, 123
15, 456240, Note_on_c, 7, 77, 0
15, 456240, Note_on_c, 7, 76, 123
15, 456480, Note_on_c, 7, 76, 0
15, 456480, Note_on_c, 7, 74, 123
15, 456720, Note_on_c, 7, 74, 0
15, 456720, Note_on_c, 7, 72, 123
15, 456960, Note_on_c, 7, 72, 0
15, 456960, Note_on_c, 7, 72, 123
15, 457200, Note_on_c, 7, 72, 0
15, 457200, Note_on_c, 7, 71, 123
15, 457440, Note_on_c, 7, 71, 0
15, 457440, Note_on_c, 7, 69, 123
15, 457680, Note_on_c, 7, 69, 0
15, 457680, Note_on_c, 7, 71, 123
15, 457920, Note_on_c, 7, 71, 0
15, 457920, Note_on_c, 7, 74, 123
15, 458160, Note_on_c, 7, 74, 0
15, 458160, Note_on_c, 7, 72, 123
15, 458400, Note_on_c, 7, 72, 0
15, 458400, Note_on_c, 7, 67, 123
15, 458640, Note_on_c, 7, 67, 0
15, 458640, Note_on_c, 7, 64, 123
15, 458880, Note_on_c, 7, 64, 0
15, 458880, Note_on_c, 7, 71, 123
15, 459120, Note_on_c, 7, 71, 0
15, 459120, Note_on_c, 7, 69, 123
15, 459360, Note_on_c, 7, 69, 0
15, 459360, Note_on_c, 7, 65, 123
15, 459600, Note_on_c, 7, 65, 0
15, 459600, Note_on_c, 7, 62, 123
15, 459840, Note_on_c, 7, 62, 0
15, 459840, Note_on_c, 7, 69, 123
15, 460080, Note_on_c, 7, 69, 0
15, 460080, Note_on_c, 7, 67, 123
15, 460320, Note_on_c, 7, 67, 0
15, 460320, Note_on_c, 7, 64, 123
15, 460560, Note_on_c, 7, 64, 0
15, 460560, Note_on_c, 7, 60, 123
15, 460800, Note_on_c, 7, 60, 0
15, 460800, Note_on_c, 7, 55, 123
15, 461040, Note_on_c, 7, 55, 0
15, 461040, Note_on_c, 7, 78, 123
15, 461280, Note_on_c, 7, 78, 0
15, 461280, Note_on_c, 7, 79, 123
15, 461520, Note_on_c, 7, 79, 0
15, 461520, Note_on_c, 7, 78, 123
15, 461760, Note_on_c, 7, 78, 0
15, 461760, Note_on_c, 7, 79, 123
15, 462000, Note_on_c, 7, 79, 0
15, 462000, Note_on_c, 7, 78, 123
15, 462240, Note_on_c, 7, 78, 0
15, 462240, Note_on_c, 7, 79, 123
15, 462480, Note_on_c, 7, 79, 0
15, 462480, Note_on_c, 7, 78, 123
15, 462720, Note_on_c, 7, 78, 0
15, 462720, Note_on_c, 7, 79, 123
15, 462960, Note_on_c, 7, 79, 0
15, 462960, Note_on_c, 7, 81, 123
15, 463200, Note_on_c, 7, 81, 0
15, 463200, Note_on_c, 7, 79, 123
15, 463440, Note_on_c, 7, 79, 0
15, 463440, Note_on_c, 7, 77, 123
15, 463680, Note_on_c, 7, 77, 0
15, 463680, Note_on_c, 7, 77, 123
15, 463920, Note_on_c, 7, 77, 0
15, 463920, Note_on_c, 7, 76, 123
15, 464160, Note_on_c, 7, 76, 0
15, 464160, Note_on_c, 7, 74, 123
15, 464400, Note_on_c, 7, 74, 0
15, 464400, Note_on_c, 7, 72, 123
15, 464640, Note_on_c, 7, 72, 0
15, 464640, Note_on_c, 7, 72, 123
15, 464880, Note_on_c, 7, 72, 0
15, 464880, Note_on_c, 7, 71, 123
15, 465120, Note_on_c, 7, 71, 0
15, 465120, Note_on_c, 7, 69, 123
15, 465360, Note_on_c, 7, 69, 0
15, 465360, Note_on_c, 7, 71, 123
15, 465600, Note_on_c, 7, 71, 0
15, 465600, Note_on_c, 7, 74, 123
15, 465840, Note_on_c, 7, 74, 0
15, 465840, Note_on_c, 7, 72, 123
15, 466080, Note_on_c, 7, 72, 0
15, 466080, Note_on_c, 7, 67, 123
15, 466320, Note_on_c, 7, 67, 0
15, 466320, Note_on_c, 7, 64, 123
15, 466560, Note_on_c, 7, 64, 0
15, 466560, Note_on_c, 7, 71, 123
15, 466800, Note_on_c, 7, 71, 0
15, 466800, Note_on_c, 7, 69, 123
15, 467040, Note_on_c, 7, 69, 0
15, 467040, Note_on_c, 7, 65, 123
15, 467280, Note_on_c, 7, 65, 0
15, 467280, Note_on_c, 7, 62, 123
15, 467520, Note_on_c, 7, 62, 0
15, 467520, Note_on_c, 7, 69, 123
15, 467760, Note_on_c, 7, 69, 0
15, 467760, Note_on_c, 7, 67, 123
15, 468000, Note_on_c, 7, 67, 0
15, 468000, Note_on_c, 7, 64, 123
15, 468240, Note_on_c, 7, 64, 0
15, 468240, Note_on_c, 7, 60, 123
15, 468480, Note_on_c, 7, 60, 0
15, 468480, Note_on_c, 7, 55, 123
15, 468720, Note_on_c, 7, 55, 0
15, 468720, Note_on_c, 7, 67, 123
15, 468960, Note_on_c, 7, 67, 0
15, 468960, Note_on_c, 7, 79, 123
15, 469200, Note_on_c, 7, 79, 0
15, 469200, Note_on_c, 7, 79, 123
15, 469440, Note_on_c, 7, 79, 0
15, 469440, Note_on_c, 7, 72, 123
15, 472560, Note_on_c, 7, 72, 0
15, 472560, Note_on_c, 7, 74, 123
15, 472800, Note_on_c, 7, 74, 0
15, 472800, Note_on_c, 7, 74, 123
15, 473040, Note_on_c, 7, 74, 0
15, 473040, Note_on_c, 7, 74, 123
15, 473280, Note_on_c, 7, 74, 0
15, 473280, Note_on_c, 7, 76, 123
15, 476400, Note_on_c, 7, 76, 0
15, 476400, Note_on_c, 7, 79, 123
15, 476640, Note_on_c, 7, 79, 0
15, 476640, Note_on_c, 7, 79, 123
15, 476880, Note_on_c, 7, 79, 0
15, 476880, Note_on_c, 7, 79, 123
15, 477120, Note_on_c, 7, 79, 0
15, 477120, Note_on_c, 7, 79, 123
15, 477600, Note_on_c, 7, 79, 0
15, 478320, Note_on_c, 7, 79, 123
15, 478560, Note_on_c, 7, 79, 0
15, 478560, Note_on_c, 7, 79, 123
15, 478800, Note_on_c, 7, 79, 0
15, 478800, Note_on_c, 7, 79, 123
15, 479040, Note_on_c, 7, 79, 0
15, 479040, Note_on_c, 7, 79, 123
15, 479520, Note_on_c, 7, 79, 0
15, 480240, Note_on_c, 7, 83, 123
15, 480480, Note_on_c, 7, 83, 0
15, 480480, Note_on_c, 7, 83, 123
15, 480720, Note_on_c, 7, 83, 0
15, 480720, Note_on_c, 7, 83, 123
15, 480960, Note_on_c, 7, 83, 0
15, 480960, Note_on_c, 7, 84, 115
15, 482160, Note_on_c, 7, 84, 0
15, 482160, Note_on_c, 7, 84, 115
15, 482400, Note_on_c, 7, 84, 0
15, 482400, Note_on_c, 7, 84, 115
15, 482640, Note_on_c, 7, 84, 0
15, 482640, Note_on_c, 7, 84, 115
15, 482880, Note_on_c, 7, 84, 0
15, 482880, Note_on_c, 7, 84, 115
15, 484080, Note_on_c, 7, 84, 0
15, 484080, Note_on_c, 7, 84, 115
15, 484320, Note_on_c, 7, 84, 0
15, 484320, Note_on_c, 7, 84, 115
15, 484560, Note_on_c, 7, 84, 0
15, 484560, Note_on_c, 7, 84, 115
15, 484800, Note_on_c, 7, 84, 0
15, 484800, Note_on_c, 7, 84, 115
15, 486000, Note_on_c, 7, 84, 0
15, 486000, Note_on_c, 7, 84, 115
15, 486240, Note_on_c, 7, 84, 0
15, 486240, Note_on_c, 7, 84, 115
15, 486480, Note_on_c, 7, 84, 0
15, 486480, Note_on_c, 7, 84, 115
15, 486720, Note_on_c, 7, 84, 0
15, 486720, Note_on_c, 7, 84, 115
15, 487920, Note_on_c, 7, 84, 0
15, 487920, Note_on_c, 7, 84, 115
15, 488160, Note_on_c, 7, 84, 0
15, 488160, Note_on_c, 7, 84, 115
15, 488400, Note_on_c, 7, 84, 0
15, 488400, Note_on_c, 7, 84, 115
15, 488640, Note_on_c, 7, 84, 0
15, 488640, Note_on_c, 7, 85, 123
15, 488880, Note_on_c, 7, 85, 0
15, 488880, Note_on_c, 7, 85, 123
15, 489120, Note_on_c, 7, 85, 0
15, 489120, Note_on_c, 7, 85, 123
15, 489360, Note_on_c, 7, 85, 0
15, 489360, Note_on_c, 7, 85, 123
15, 489600, Note_on_c, 7, 85, 0
15, 489600, Note_on_c, 7, 85, 123
15, 489840, Note_on_c, 7, 85, 0
15, 489840, Note_on_c, 7, 85, 123
15, 490080, Note_on_c, 7, 85, 0
15, 490080, Note_on_c, 7, 85, 123
15, 490320, Note_on_c, 7, 85, 0
15, 490320, Note_on_c, 7, 85, 123
15, 490560, Note_on_c, 7, 85, 0
15, 490560, Note_on_c, 7, 85, 123
15, 490800, Note_on_c, 7, 85, 0
15, 490800, Note_on_c, 7, 85, 123
15, 491040, Note_on_c, 7, 85, 0
15, 491040, Note_on_c, 7, 85, 123
15, 491280, Note_on_c, 7, 85, 0
15, 491280, Note_on_c, 7, 85, 123
15, 491520, Note_on_c, 7, 85, 0
15, 491520, Note_on_c, 7, 85, 123
15, 491760, Note_on_c, 7, 85, 0
15, 491760, Note_on_c, 7, 85, 123
15, 492000, Note_on_c, 7, 85, 0
15, 492000, Note_on_c, 7, 85, 123
15, 492240, Note_on_c, 7, 85, 0
15, 492240, Note_on_c, 7, 85, 123
15, 492480, Note_on_c, 7, 85, 0
15, 492480, Note_on_c, 7, 85, 123
15, 492960, Note_on_c, 7, 85, 0
15, 496560, Note_on_c, 7, 75, 123
15, 496560, Note_on_c, 7, 87, 123
15, 496800, Note_on_c, 7, 87, 0
15, 496800, Note_on_c, 7, 75, 0
15, 496800, Note_on_c, 7, 75, 123
15, 496800, Note_on_c, 7, 87, 123
15, 497040, Note_on_c, 7, 87, 0
15, 497040, Note_on_c, 7, 75, 0
15, 497040, Note_on_c, 7, 75, 123
15, 497040, Note_on_c, 7, 87, 123
15, 497280, Note_on_c, 7, 87, 0
15, 497280, Note_on_c, 7, 75, 0
15, 497280, Note_on_c, 7, 75, 123
15, 497280, Note_on_c, 7, 87, 123
15, 497520, Note_on_c, 7, 87, 0
15, 497520, Note_on_c, 7, 75, 0
15, 497520, Note_on_c, 7, 75, 123
15, 497520, Note_on_c, 7, 87, 123
15, 497760, Note_on_c, 7, 87, 0
15, 497760, Note_on_c, 7, 75, 0
15, 497760, Note_on_c, 7, 75, 123
15, 497760, Note_on_c, 7, 87, 123
15, 498000, Note_on_c, 7, 87, 0
15, 498000, Note_on_c, 7, 75, 0
15, 498000, Note_on_c, 7, 75, 123
15, 498000, Note_on_c, 7, 87, 123
15, 498240, Note_on_c, 7, 87, 0
15, 498240, Note_on_c, 7, 75, 0
15, 498240, Note_on_c, 7, 75, 123
15, 498240, Note_on_c, 7, 87, 123
15, 498480, Note_on_c, 7, 87, 0
15, 498480, Note_on_c, 7, 75, 0
15, 498480, Note_on_c, 7, 75, 123
15, 498480, Note_on_c, 7, 87, 123
15, 498720, Note_on_c, 7, 87, 0
15, 498720, Note_on_c, 7, 75, 0
15, 498720, Note_on_c, 7, 75, 123
15, 498720, Note_on_c, 7, 87, 123
15, 498960, Note_on_c, 7, 87, 0
15, 498960, Note_on_c, 7, 75, 0
15, 498960, Note_on_c, 7, 75, 123
15, 498960, Note_on_c, 7, 87, 123
15, 499200, Note_on_c, 7, 87, 0
15, 499200, Note_on_c, 7, 75, 0
15, 499200, Note_on_c, 7, 75, 123
15, 499200, Note_on_c, 7, 87, 123
15, 499440, Note_on_c, 7, 87, 0
15, 499440, Note_on_c, 7, 75, 0
15, 499440, Note_on_c, 7, 75, 123
15, 499440, Note_on_c, 7, 87, 123
15, 499680, Note_on_c, 7, 87, 0
15, 499680, Note_on_c, 7, 75, 0
15, 499680, Note_on_c, 7, 75, 123
15, 499680, Note_on_c, 7, 87, 123
15, 499920, Note_on_c, 7, 87, 0
15, 499920, Note_on_c, 7, 75, 0
15, 499920, Note_on_c, 7, 75, 123
15, 499920, Note_on_c, 7, 87, 123
15, 500160, Note_on_c, 7, 87, 0
15, 500160, Note_on_c, 7, 75, 0
15, 500160, Note_on_c, 7, 75, 123
15, 500160, Note_on_c, 7, 87, 123
15, 500400, Note_on_c, 7, 87, 0
15, 500400, Note_on_c, 7, 75, 0
15, 500400, Note_on_c, 7, 75, 123
15, 500400, Note_on_c, 7, 87, 123
15, 500640, Note_on_c, 7, 87, 0
15, 500640, Note_on_c, 7, 75, 0
15, 500640, Note_on_c, 7, 75, 123
15, 500640, Note_on_c, 7, 87, 123
15, 500880, Note_on_c, 7, 87, 0
15, 500880, Note_on_c, 7, 75, 0
15, 500880, Note_on_c, 7, 75, 123
15, 500880, Note_on_c, 7, 87, 123
15, 501120, Note_on_c, 7, 87, 0
15, 501120, Note_on_c, 7, 75, 0
15, 501120, Note_on_c, 7, 75, 123
15, 501120, Note_on_c, 7, 87, 123
15, 501600, Note_on_c, 7, 87, 0
15, 501600, Note_on_c, 7, 75, 0
15, 505920, Note_on_c, 7, 71, 115
15, 506160, Note_on_c, 7, 71, 0
15, 506160, Note_on_c, 7, 72, 115
15, 506400, Note_on_c, 7, 72, 0
15, 506400, Note_on_c, 7, 74, 115
15, 506640, Note_on_c, 7, 74, 0
15, 506640, Note_on_c, 7, 75, 115
15, 506880, Note_on_c, 7, 75, 0
15, 506880, Note_on_c, 7, 77, 115
15, 507120, Note_on_c, 7, 77, 0
15, 507120, Note_on_c, 7, 79, 115
15, 507360, Note_on_c, 7, 79, 0
15, 507360, Note_on_c, 7, 80, 115
15, 507600, Note_on_c, 7, 80, 0
15, 507600, Note_on_c, 7, 79, 115
15, 507840, Note_on_c, 7, 79, 0
15, 507840, Note_on_c, 7, 80, 115
15, 508080, Note_on_c, 7, 80, 0
15, 508080, Note_on_c, 7, 79, 115
15, 508320, Note_on_c, 7, 79, 0
15, 508320, Note_on_c, 7, 80, 115
15, 508560, Note_on_c, 7, 80, 0
15, 508560, Note_on_c, 7, 79, 115
15, 508800, Note_on_c, 7, 79, 0
15, 509760, Note_on_c, 7, 71, 115
15, 510000, Note_on_c, 7, 71, 0
15, 510000, Note_on_c, 7, 72, 115
15, 510240, Note_on_c, 7, 72, 0
15, 510240, Note_on_c, 7, 74, 115
15, 510480, Note_on_c, 7, 74, 0
15, 510480, Note_on_c, 7, 75, 115
15, 510720, Note_on_c, 7, 75, 0
15, 510720, Note_on_c, 7, 77, 115
15, 510960, Note_on_c, 7, 77, 0
15, 510960, Note_on_c, 7, 79, 115
15, 511200, Note_on_c, 7, 79, 0
15, 511200, Note_on_c, 7, 80, 115
15, 511440, Note_on_c, 7, 80, 0
15, 511440, Note_on_c, 7, 79, 115
15, 511680, Note_on_c, 7, 79, 0
15, 511680, Note_on_c, 7, 80, 115
15, 511920, Note_on_c, 7, 80, 0
15, 511920, Note_on_c, 7, 79, 115
15, 512160, Note_on_c, 7, 79, 0
15, 512160, Note_on_c, 7, 80, 115
15, 512400, Note_on_c, 7, 80, 0
15, 512400, Note_on_c, 7, 79, 115
15, 512640, Note_on_c, 7, 79, 0
15, 512640, Note_on_c, 7, 80, 115
15, 512880, Note_on_c, 7, 80, 0
15, 512880, Note_on_c, 7, 79, 115
15, 513120, Note_on_c, 7, 79, 0
15, 513120, Note_on_c, 7, 82, 115
15, 513360, Note_on_c, 7, 82, 0
15, 513360, Note_on_c, 7, 80, 115
15, 513600, Note_on_c, 7, 80, 0
15, 513600, Note_on_c, 7, 79, 115
15, 513840, Note_on_c, 7, 79, 0
15, 513840, Note_on_c, 7, 77, 115
15, 514080, Note_on_c, 7, 77, 0
15, 514080, Note_on_c, 7, 80, 115
15, 514320, Note_on_c, 7, 80, 0
15, 514320, Note_on_c, 7, 79, 115
15, 514560, Note_on_c, 7, 79, 0
15, 514560, Note_on_c, 7, 77, 115
15, 514800, Note_on_c, 7, 77, 0
15, 514800, Note_on_c, 7, 75, 115
15, 515040, Note_on_c, 7, 75, 0
15, 515040, Note_on_c, 7, 79, 115
15, 515280, Note_on_c, 7, 79, 0
15, 515280, Note_on_c, 7, 77, 115
15, 515520, Note_on_c, 7, 77, 0
15, 515520, Note_on_c, 7, 75, 115
15, 515760, Note_on_c, 7, 75, 0
15, 515760, Note_on_c, 7, 74, 115
15, 516000, Note_on_c, 7, 74, 0
15, 516000, Note_on_c, 7, 77, 115
15, 516240, Note_on_c, 7, 77, 0
15, 516240, Note_on_c, 7, 75, 115
15, 516480, Note_on_c, 7, 75, 0
15, 516480, Note_on_c, 7, 74, 115
15, 516720, Note_on_c, 7, 74, 0
15, 516720, Note_on_c, 7, 72, 115
15, 516960, Note_on_c, 7, 72, 0
15, 516960, Note_on_c, 7, 75, 115
15, 517200, Note_on_c, 7, 75, 0
15, 517200, Note_on_c, 7, 74, 115
15, 517440, Note_on_c, 7, 74, 0
15, 517440, Note_on_c, 7, 72, 115
15, 517680, Note_on_c, 7, 72, 0
15, 517680, Note_on_c, 7, 70, 115
15, 517920, Note_on_c, 7, 70, 0
15, 517920, Note_on_c, 7, 74, 115
15, 518160, Note_on_c, 7, 74, 0
15, 518160, Note_on_c, 7, 72, 115
15, 518400, Note_on_c, 7, 72, 0
15, 518400, Note_on_c, 7, 70, 115
15, 518640, Note_on_c, 7, 70, 0
15, 518640, Note_on_c, 7, 68, 115
15, 518880, Note_on_c, 7, 68, 0
15, 518880, Note_on_c, 7, 72, 115
15, 519120, Note_on_c, 7, 72, 0
15, 519120, Note_on_c, 7, 70, 115
15, 519360, Note_on_c, 7, 70, 0
15, 519360, Note_on_c, 7, 68, 115
15, 519600, Note_on_c, 7, 68, 0
15, 519600, Note_on_c, 7, 67, 115
15, 519840, Note_on_c, 7, 67, 0
15, 519840, Note_on_c, 7, 70, 115
15, 520080, Note_on_c, 7, 70, 0
15, 520080, Note_on_c, 7, 68, 115
15, 520320, Note_on_c, 7, 68, 0
15, 520320, Note_on_c, 7, 65, 115
15, 520560, Note_on_c, 7, 65, 0
15, 520560, Note_on_c, 7, 67, 115
15, 520800, Note_on_c, 7, 67, 0
15, 520800, Note_on_c, 7, 63, 115
15, 521040, Note_on_c, 7, 63, 0
15, 521040, Note_on_c, 7, 67, 115
15, 521280, Note_on_c, 7, 67, 0
15, 521280, Note_on_c, 7, 62, 115
15, 521520, Note_on_c, 7, 62, 0
15, 521520, Note_on_c, 7, 67, 115
15, 521760, Note_on_c, 7, 67, 0
15, 521760, Note_on_c, 7, 63, 115
15, 522000, Note_on_c, 7, 63, 0
15, 522000, Note_on_c, 7, 67, 115
15, 522240, Note_on_c, 7, 67, 0
15, 522240, Note_on_c, 7, 65, 115
15, 522480, Note_on_c, 7, 65, 0
15, 522480, Note_on_c, 7, 67, 115
15, 522720, Note_on_c, 7, 67, 0
15, 522720, Note_on_c, 7, 63, 115
15, 522960, Note_on_c, 7, 63, 0
15, 522960, Note_on_c, 7, 67, 115
15, 523200, Note_on_c, 7, 67, 0
15, 523200, Note_on_c, 7, 65, 115
15, 523440, Note_on_c, 7, 65, 0
15, 523440, Note_on_c, 7, 67, 115
15, 523680, Note_on_c, 7, 67, 0
15, 523680, Note_on_c, 7, 67, 115
15, 523920, Note_on_c, 7, 67, 0
15, 523920, Note_on_c, 7, 72, 115
15, 524160, Note_on_c, 7, 72, 0
15, 524160, Note_on_c, 7, 68, 115
15, 524400, Note_on_c, 7, 68, 0
15, 524400, Note_on_c, 7, 72, 115
15, 524640, Note_on_c, 7, 72, 0
15, 524640, Note_on_c, 7, 67, 115
15, 524880, Note_on_c, 7, 67, 0
15, 524880, Note_on_c, 7, 72, 115
15, 525120, Note_on_c, 7, 72, 0
15, 525120, Note_on_c, 7, 68, 115
15, 525360, Note_on_c, 7, 68, 0
15, 525360, Note_on_c, 7, 72, 115
15, 525600, Note_on_c, 7, 72, 0
15, 525600, Note_on_c, 7, 71, 115
15, 525840, Note_on_c, 7, 71, 0
15, 525840, Note_on_c, 7, 77, 115
15, 526080, Note_on_c, 7, 77, 0
15, 526080, Note_on_c, 7, 72, 115
15, 526320, Note_on_c, 7, 72, 0
15, 526320, Note_on_c, 7, 77, 115
15, 526560, Note_on_c, 7, 77, 0
15, 526560, Note_on_c, 7, 71, 115
15, 526800, Note_on_c, 7, 71, 0
15, 526800, Note_on_c, 7, 77, 115
15, 527040, Note_on_c, 7, 77, 0
15, 527040, Note_on_c, 7, 72, 115
15, 527280, Note_on_c, 7, 72, 0
15, 527280, Note_on_c, 7, 77, 115
15, 527520, Note_on_c, 7, 77, 0
15, 527520, Note_on_c, 7, 74, 115
15, 527760, Note_on_c, 7, 74, 0
15, 527760, Note_on_c, 7, 79, 115
15, 528000, Note_on_c, 7, 79, 0
15, 528000, Note_on_c, 7, 75, 115
15, 528480, Note_on_c, 7, 75, 0
15, 528480, Note_on_c, 7, 72, 115
15, 528960, Note_on_c, 7, 72, 0
15, 528960, Note_on_c, 7, 74, 115
15, 529440, Note_on_c, 7, 74, 0
15, 529440, Note_on_c, 7, 75, 115
15, 529920, Note_on_c, 7, 75, 0
15, 529920, Note_on_c, 7, 77, 115
15, 530400, Note_on_c, 7, 77, 0
15, 530400, Note_on_c, 7, 74, 115
15, 530880, Note_on_c, 7, 74, 0
15, 530880, Note_on_c, 7, 75, 115
15, 531360, Note_on_c, 7, 75, 0
15, 531360, Note_on_c, 7, 77, 115
15, 531840, Note_on_c, 7, 77, 0
15, 531840, Note_on_c, 7, 79, 115
15, 532320, Note_on_c, 7, 79, 0
15, 532320, Note_on_c, 7, 75, 115
15, 532800, Note_on_c, 7, 75, 0
15, 532800, Note_on_c, 7, 77, 115
15, 533280, Note_on_c, 7, 77, 0
15, 533280, Note_on_c, 7, 79, 115
15, 533760, Note_on_c, 7, 79, 0
15, 533760, Note_on_c, 7, 80, 115
15, 534240, Note_on_c, 7, 80, 0
15, 534240, Note_on_c, 7, 77, 115
15, 534720, Note_on_c, 7, 77, 0
15, 534720, Note_on_c, 7, 79, 115
15, 535200, Note_on_c, 7, 79, 0
15, 535200, Note_on_c, 7, 81, 115
15, 535680, Note_on_c, 7, 81, 0
15, 535680, Note_on_c, 7, 83, 115
15, 536160, Note_on_c, 7, 83, 0
15, 536160, Note_on_c, 7, 79, 115
15, 536640, Note_on_c, 7, 79, 0
15, 536640, Note_on_c, 7, 81, 115
15, 537120, Note_on_c, 7, 81, 0
15, 537120, Note_on_c, 7, 83, 115
15, 537600, Note_on_c, 7, 83, 0
15, 537600, Note_on_c, 7, 84, 115
15, 538080, Note_on_c, 7, 84, 0
15, 538080, Note_on_c, 7, 79, 115
15, 538560, Note_on_c, 7, 79, 0
15, 538560, Note_on_c, 7, 80, 115
15, 539040, Note_on_c, 7, 80, 0
15, 539040, Note_on_c, 7, 75, 115
15, 539520, Note_on_c, 7, 75, 0
15, 539520, Note_on_c, 7, 77, 115
15, 540000, Note_on_c, 7, 77, 0
15, 540000, Note_on_c, 7, 74, 115
15, 540480, Note_on_c, 7, 74, 0
15, 540480, Note_on_c, 7, 75, 115
15, 540960, Note_on_c, 7, 75, 0
15, 540960, Note_on_c, 7, 77, 115
15, 541440, Note_on_c, 7, 77, 0
15, 541440, Note_on_c, 7, 79, 115
15, 541920, Note_on_c, 7, 79, 0
15, 541920, Note_on_c, 7, 78, 115
15, 542400, Note_on_c, 7, 78, 0
15, 542400, Note_on_c, 7, 79, 115
15, 542880, Note_on_c, 7, 79, 0
15, 542880, Note_on_c, 7, 67, 115
15, 543360, Note_on_c, 7, 67, 0
15, 543360, Note_on_c, 7, 72, 115
15, 543840, Note_on_c, 7, 72, 0
15, 546240, Note_on_c, 7, 63, 115
15, 546720, Note_on_c, 7, 63, 0
15, 546720, Note_on_c, 7, 65, 115
15, 547200, Note_on_c, 7, 65, 0
15, 547200, Note_on_c, 7, 67, 115
15, 547680, Note_on_c, 7, 67, 0
15, 547680, Note_on_c, 7, 63, 115
15, 548160, Note_on_c, 7, 63, 0
15, 550080, Note_on_c, 7, 71, 115
15, 550560, Note_on_c, 7, 71, 0
15, 550560, Note_on_c, 7, 72, 115
15, 551040, Note_on_c, 7, 72, 0
15, 551040, Note_on_c, 7, 74, 115
15, 551520, Note_on_c, 7, 74, 0
15, 551520, Note_on_c, 7, 71, 115
15, 552000, Note_on_c, 7, 71, 0
15, 553920, Note_on_c, 7, 71, 115
15, 554400, Note_on_c, 7, 71, 0
15, 554400, Note_on_c, 7, 72, 115
15, 554880, Note_on_c, 7, 72, 0
15, 554880, Note_on_c, 7, 74, 115
15, 555360, Note_on_c, 7, 74, 0
15, 555360, Note_on_c, 7, 71, 115
15, 555840, Note_on_c, 7, 71, 0
15, 559680, Note_on_c, 7, 68, 115
15, 560160, Note_on_c, 7, 68, 0
15, 560160, Note_on_c, 7, 67, 115
15, 560640, Note_on_c, 7, 67, 0
15, 561600, Note_on_c, 7, 80, 115
15, 562080, Note_on_c, 7, 80, 0
15, 562080, Note_on_c, 7, 79, 115
15, 562560, Note_on_c, 7, 79, 0
15, 562560, Note_on_c, 7, 55, 115
15, 562560, Note_on_c, 7, 63, 115
15, 562560, Note_on_c, 7, 72, 115
15, 562560, Note_on_c, 7, 79, 115
15, 563040, Note_on_c, 7, 79, 0
15, 563040, Note_on_c, 7, 55, 0
15, 563040, Note_on_c, 7, 63, 0
15, 563040, Note_on_c, 7, 72, 0
15, 563520, Note_on_c, 7, 55, 115
15, 563520, Note_on_c, 7, 62, 115
15, 563520, Note_on_c, 7, 71, 115
15, 563520, Note_on_c, 7, 79, 115
15, 564000, Note_on_c, 7, 79, 0
15, 564000, Note_on_c, 7, 55, 0
15, 564000, Note_on_c, 7, 62, 0
15, 564000, Note_on_c, 7, 71, 0
15, 564480, Note_on_c, 7, 75, 115
15, 564960, Note_on_c, 7, 75, 0
15, 564960, Note_on_c, 7, 74, 115
15, 565440, Note_on_c, 7, 74, 0
15, 565440, Note_on_c, 7, 72, 115
15, 565920, Note_on_c, 7, 72, 0
15, 565920, Note_on_c, 7, 70, 115
15, 566400, Note_on_c, 7, 70, 0
15, 566400, Note_on_c, 7, 68, 115
15, 566880, Note_on_c, 7, 68, 0
15, 566880, Note_on_c, 7, 67, 115
15, 567360, Note_on_c, 7, 67, 0
15, 568320, Note_on_c, 7, 68, 115
15, 568800, Note_on_c, 7, 68, 0
15, 568800, Note_on_c, 7, 67, 115
15, 569280, Note_on_c, 7, 67, 0
15, 569280, Note_on_c, 7, 80, 115
15, 569760, Note_on_c, 7, 80, 0
15, 569760, Note_on_c, 7, 79, 115
15, 570240, Note_on_c, 7, 79, 0
15, 570240, Note_on_c, 7, 55, 115
15, 570240, Note_on_c, 7, 63, 115
15, 570240, Note_on_c, 7, 72, 115
15, 570240, Note_on_c, 7, 79, 115
15, 570720, Note_on_c, 7, 79, 0
15, 570720, Note_on_c, 7, 55, 0
15, 570720, Note_on_c, 7, 63, 0
15, 570720, Note_on_c, 7, 72, 0
15, 571200, Note_on_c, 7, 55, 115
15, 571200, Note_on_c, 7, 62, 115
15, 571200, Note_on_c, 7, 71, 115
15, 571200, Note_on_c, 7, 79, 115
15, 571680, Note_on_c, 7, 79, 0
15, 571680, Note_on_c, 7, 55, 0
15, 571680, Note_on_c, 7, 62, 0
15, 571680, Note_on_c, 7, 71, 0
15, 572160, Note_on_c, 7, 55, 115
15, 572160, Note_on_c, 7, 63, 115
15, 572160, Note_on_c, 7, 72, 115
15, 572400, Note_on_c, 7, 72, 0
15, 572400, Note_on_c, 7, 63, 0
15, 572400, Note_on_c, 7, 55, 0
15, 572400, Note_on_c, 7, 79, 115
15, 572640, Note_on_c, 7, 79, 0
15, 572640, Note_on_c, 7, 79, 115
15, 572880, Note_on_c, 7, 79, 0
15, 572880, Note_on_c, 7, 79, 115
15, 573120, Note_on_c, 7, 79, 0
15, 573120, Note_on_c, 7, 79, 115
15, 577200, Note_on_c, 7, 79, 0
15, 577200, Note_on_c, 7, 79, 115
15, 577440, Note_on_c, 7, 79, 0
15, 577440, Note_on_c, 7, 79, 115
15, 577680, Note_on_c, 7, 79, 0
15, 577680, Note_on_c, 7, 79, 115
15, 577920, Note_on_c, 7, 79, 0
15, 577920, Note_on_c, 7, 72, 115
15, 578160, Note_on_c, 7, 72, 0
15, 578160, Note_on_c, 7, 79, 115
15, 578400, Note_on_c, 7, 79, 0
15, 578400, Note_on_c, 7, 79, 115
15, 578640, Note_on_c, 7, 79, 0
15, 578640, Note_on_c, 7, 79, 115
15, 578880, Note_on_c, 7, 79, 0
15, 578880, Note_on_c, 7, 79, 115
15, 579120, Note_on_c, 7, 79, 0
15, 579120, Note_on_c, 7, 79, 115
15, 579360, Note_on_c, 7, 79, 0
15, 579360, Note_on_c, 7, 79, 115
15, 579600, Note_on_c, 7, 79, 0
15, 579600, Note_on_c, 7, 79, 115
15, 579840, Note_on_c, 7, 79, 0
15, 579840, Note_on_c, 7, 79, 115
15, 580080, Note_on_c, 7, 79, 0
15, 580080, Note_on_c, 7, 79, 115
15, 580320, Note_on_c, 7, 79, 0
15, 580320, Note_on_c, 7, 79, 115
15, 580560, Note_on_c, 7, 79, 0
15, 580560, Note_on_c, 7, 79, 115
15, 580800, Note_on_c, 7, 79, 0
15, 580800, Note_on_c, 7, 79, 115
15, 581040, Note_on_c, 7, 79, 0
15, 581040, Note_on_c, 7, 79, 115
15, 581280, Note_on_c, 7, 79, 0
15, 581280, Note_on_c, 7, 79, 115
15, 581520, Note_on_c, 7, 79, 0
15, 581520, Note_on_c, 7, 79, 115
15, 581760, Note_on_c, 7, 79, 0
15, 581760, Note_on_c, 7, 75, 123
15, 582720, Note_on_c, 7, 75, 0
15, 582960, Note_on_c, 7, 77, 123
15, 583200, Note_on_c, 7, 77, 0
15, 583200, Note_on_c, 7, 77, 123
15, 583440, Note_on_c, 7, 77, 0
15, 583440, Note_on_c, 7, 77, 123
15, 583680, Note_on_c, 7, 77, 0
15, 583680, Note_on_c, 7, 74, 123
15, 585600, Note_on_c, 7, 74, 0
15, 586800, Note_on_c, 7, 68, 78
15, 587040, Note_on_c, 7, 68, 0
15, 587040, Note_on_c, 7, 68, 78
15, 587280, Note_on_c, 7, 68, 0
15, 587280, Note_on_c, 7, 68, 78
15, 587520, Note_on_c, 7, 68, 0
15, 587520, Note_on_c, 7, 67, 78
15, 587760, Note_on_c, 7, 67, 0
15, 587760, Note_on_c, 7, 75, 78
15, 588000, Note_on_c, 7, 75, 0
15, 588000, Note_on_c, 7, 75, 78
15, 588240, Note_on_c, 7, 75, 0
15, 588240, Note_on_c, 7, 75, 78
15, 588480, Note_on_c, 7, 75, 0
15, 588480, Note_on_c, 7, 72, 78
15, 589920, Note_on_c, 7, 72, 0
15, 590640, Note_on_c, 7, 68, 78
15, 590880, Note_on_c, 7, 68, 0
15, 590880, Note_on_c, 7, 68, 78
15, 591120, Note_on_c, 7, 68, 0
15, 591120, Note_on_c, 7, 68, 78
15, 591360, Note_on_c, 7, 68, 0
15, 591360, Note_on_c, 7, 67, 78
15, 591600, Note_on_c, 7, 67, 0
15, 591600, Note_on_c, 7, 75, 78
15, 591840, Note_on_c, 7, 75, 0
15, 591840, Note_on_c, 7, 75, 78
15, 592080, Note_on_c, 7, 75, 0
15, 592080, Note_on_c, 7, 75, 78
15, 592320, Note_on_c, 7, 75, 0
15, 592320, Note_on_c, 7, 72, 78
15, 593520, Note_on_c, 7, 72, 0
15, 593520, Note_on_c, 7, 71, 123
15, 593520, Note_on_c, 7, 79, 123
15, 593760, Note_on_c, 7, 79, 0
15, 593760, Note_on_c, 7, 71, 0
15, 593760, Note_on_c, 7, 71, 123
15, 593760, Note_on_c, 7, 79, 123
15, 594000, Note_on_c, 7, 79, 0
15, 594000, Note_on_c, 7, 71, 0
15, 594000, Note_on_c, 7, 71, 123
15, 594000, Note_on_c, 7, 79, 123
15, 594240, Note_on_c, 7, 79, 0
15, 594240, Note_on_c, 7, 71, 0
15, 594240, Note_on_c, 7, 72, 123
15, 594240, Note_on_c, 7, 79, 123
15, 594720, Note_on_c, 7, 79, 0
15, 594720, Note_on_c, 7, 72, 0
15, 595440, Note_on_c, 7, 71, 123
15, 595440, Note_on_c, 7, 79, 123
15, 595680, Note_on_c, 7, 79, 0
15, 595680, Note_on_c, 7, 71, 0
15, 595680, Note_on_c, 7, 71, 123
15, 595680, Note_on_c, 7, 79, 123
15, 595920, Note_on_c, 7, 79, 0
15, 595920, Note_on_c, 7, 71, 0
15, 595920, Note_on_c, 7, 71, 123
15, 595920, Note_on_c, 7, 79, 123
15, 596160, Note_on_c, 7, 79, 0
15, 596160, Note_on_c, 7, 71, 0
15, 596160, Note_on_c, 7, 72, 123
15, 596160, Note_on_c, 7, 79, 123
15, 596640, Note_on_c, 7, 79, 0
15, 596640, Note_on_c, 7, 72, 0
15, 597360, Note_on_c, 7, 71, 123
15, 597360, Note_on_c, 7, 79, 123
15, 597600, Note_on_c, 7, 79, 0
15, 597600, Note_on_c, 7, 71, 0
15, 597600, Note_on_c, 7, 71, 123
15, 597600, Note_on_c, 7, 79, 123
15, 597840, Note_on_c, 7, 79, 0
15, 597840, Note_on_c, 7, 71, 0
15, 597840, Note_on_c, 7, 71, 123
15, 597840, Note_on_c, 7, 79, 123
15, 598080, Note_on_c, 7, 79, 0
15, 598080, Note_on_c, 7, 71, 0
15, 598080, Note_on_c, 7, 72, 123
15, 598080, Note_on_c, 7, 79, 123
15, 598560, Note_on_c, 7, 79, 0
15, 598560, Note_on_c, 7, 72, 0
15, 598560, Note_on_c, 7, 62, 123
15, 598560, Note_on_c, 7, 71, 123
15, 598560, Note_on_c, 7, 79, 123
15, 599040, Note_on_c, 7, 79, 0
15, 599040, Note_on_c, 7, 71, 0
15, 599040, Note_on_c, 7, 62, 0
15, 599040, Note_on_c, 7, 63, 123
15, 599040, Note_on_c, 7, 72, 123
15, 599040, Note_on_c, 7, 79, 123
15, 599520, Note_on_c, 7, 79, 0
15, 599520, Note_on_c, 7, 72, 0
15, 599520, Note_on_c, 7, 63, 0
15, 599520, Note_on_c, 7, 62, 123
15, 599520, Note_on_c, 7, 71, 123
15, 599520, Note_on_c, 7, 79, 123
15, 600000, Note_on_c, 7, 79, 0
15, 600000, Note_on_c, 7, 71, 0
15, 600000, Note_on_c, 7, 62, 0
15, 600000, Note_on_c, 7, 63, 123
15, 600000, Note_on_c, 7, 72, 123
15, 600000, Note_on_c, 7, 79, 123
15, 600480, Note_on_c, 7, 79, 0
15, 600480, Note_on_c, 7, 72, 0
15, 600480, Note_on_c, 7, 63, 0
15, 600480, Note_on_c, 7, 67, 123
15, 600480, Note_on_c, 7, 74, 123
15, 600480, Note_on_c, 7, 83, 123
15, 600960, Note_on_c, 7, 83, 0
15, 600960, Note_on_c, 7, 74, 0
15, 600960, Note_on_c, 7, 67, 0
15, 600960, Note_on_c, 7, 67, 123
15, 600960, Note_on_c, 7, 75, 123
15, 600960, Note_on_c, 7, 84, 123
15, 601440, Note_on_c, 7, 84, 0
15, 601440, Note_on_c, 7, 75, 0
15, 601440, Note_on_c, 7, 67, 0
15, 601440, Note_on_c, 7, 67, 123
15, 601440, Note_on_c, 7, 74, 123
15, 601440, Note_on_c, 7, 83, 123
15, 601920, Note_on_c, 7, 83, 0
15, 601920, Note_on_c, 7, 74, 0
15, 601920, Note_on_c, 7, 67, 0
15, 601920, Note_on_c, 7, 67, 123
15, 601920, Note_on_c, 7, 75, 123
15, 601920, Note_on_c, 7, 84, 123
15, 602400, Note_on_c, 7, 84, 0
15, 602400, Note_on_c, 7, 75, 0
15, 602400, Note_on_c, 7, 67, 0
15, 602880, Note_on_c, 7, 55, 123
15, 602880, Note_on_c, 7, 62, 123
15, 602880, Note_on_c, 7, 71, 123
15, 603360, Note_on_c, 7, 71, 0
15, 603360, Note_on_c, 7, 62, 0
15, 603360, Note_on_c, 7, 55, 0
15, 603840, Note_on_c, 7, 55, 123
15, 603840, Note_on_c, 7, 63, 123
15, 603840, Note_on_c, 7, 72, 123
15, 604320, Note_on_c, 7, 72, 0
15, 604320, Note_on_c, 7, 63, 0
15, 604320, Note_on_c, 7, 55, 0
15, 604320, End_track
16, 0, Start_track
16, 0, MIDI_port, 0
16, 0, Title_t, "Violins 2"
16, 240, Note_on_c, 7, 67, 123
16, 480, Note_on_c, 7, 67, 0
16, 480, Note_on_c, 7, 67, 123
16, 720, Note_on_c, 7, 67, 0
16, 720, Note_on_c, 7, 67, 123
16, 960, Note_on_c, 7, 67, 0
16, 960, Note_on_c, 7, 63, 123
16, 1920, Note_on_c, 7, 63, 0
16, 2160, Note_on_c, 7, 65, 123
16, 2400, Note_on_c, 7, 65, 0
16, 2400, Note_on_c, 7, 65, 123
16, 2640, Note_on_c, 7, 65, 0
16, 2640, Note_on_c, 7, 65, 123
16, 2880, Note_on_c, 7, 65, 0
16, 2880, Note_on_c, 7, 62, 123
16, 4800, Note_on_c, 7, 62, 0
16, 5040, Note_on_c, 7, 67, 91
16, 5280, Note_on_c, 7, 67, 0
16, 5280, Note_on_c, 7, 67, 91
16, 5520, Note_on_c, 7, 67, 0
16, 5520, Note_on_c, 7, 67, 91
16, 5760, Note_on_c, 7, 67, 0
16, 5760, Note_on_c, 7, 63, 91
16, 8880, Note_on_c, 7, 63, 0
16, 8880, Note_on_c, 7, 67, 91
16, 9120, Note_on_c, 7, 67, 0
16, 9120, Note_on_c, 7, 67, 91
16, 9360, Note_on_c, 7, 67, 0
16, 9360, Note_on_c, 7, 67, 91
16, 9600, Note_on_c, 7, 67, 0
16, 9600, Note_on_c, 7, 62, 91
16, 11520, Note_on_c, 7, 62, 0
16, 11520, Note_on_c, 7, 67, 91
16, 13680, Note_on_c, 7, 67, 0
16, 13680, Note_on_c, 7, 63, 91
16, 13920, Note_on_c, 7, 63, 0
16, 13920, Note_on_c, 7, 63, 91
16, 14160, Note_on_c, 7, 63, 0
16, 14160, Note_on_c, 7, 65, 91
16, 14400, Note_on_c, 7, 65, 0
16, 14400, Note_on_c, 7, 67, 91
16, 15600, Note_on_c, 7, 67, 0
16, 15600, Note_on_c, 7, 63, 91
16, 15840, Note_on_c, 7, 63, 0
16, 15840, Note_on_c, 7, 63, 91
16, 16080, Note_on_c, 7, 63, 0
16, 16080, Note_on_c, 7, 65, 91
16, 16320, Note_on_c, 7, 65, 0
16, 16320, Note_on_c, 7, 67, 91
16, 16560, Note_on_c, 7, 67, 0
16, 16560, Note_on_c, 7, 74, 91
16, 16800, Note_on_c, 7, 74, 0
16, 16800, Note_on_c, 7, 74, 101
16, 17040, Note_on_c, 7, 74, 0
16, 17040, Note_on_c, 7, 67, 109
16, 17280, Note_on_c, 7, 67, 0
16, 17280, Note_on_c, 7, 60, 115
16, 17280, Note_on_c, 7, 67, 115
16, 17280, Note_on_c, 7, 75, 115
16, 17760, Note_on_c, 7, 75, 0
16, 17760, Note_on_c, 7, 67, 0
16, 17760, Note_on_c, 7, 60, 0
16, 18240, Note_on_c, 7, 56, 115
16, 18240, Note_on_c, 7, 66, 115
16, 18240, Note_on_c, 7, 72, 115
16, 18720, Note_on_c, 7, 72, 0
16, 18720, Note_on_c, 7, 66, 0
16, 18720, Note_on_c, 7, 56, 0
16, 19200, Note_on_c, 7, 55, 115
16, 19200, Note_on_c, 7, 62, 115
16, 19200, Note_on_c, 7, 71, 115
16, 19680, Note_on_c, 7, 71, 0
16, 19680, Note_on_c, 7, 62, 0
16, 19680, Note_on_c, 7, 55, 0
16, 20400, Note_on_c, 7, 68, 123
16, 20640, Note_on_c, 7, 68, 0
16, 20640, Note_on_c, 7, 68, 123
16, 20880, Note_on_c, 7, 68, 0
16, 20880, Note_on_c, 7, 68, 123
16, 21120, Note_on_c, 7, 68, 0
16, 21120, Note_on_c, 7, 65, 123
16, 23040, Note_on_c, 7, 65, 0
16, 24240, Note_on_c, 7, 62, 91
16, 24480, Note_on_c, 7, 62, 0
16, 24480, Note_on_c, 7, 62, 91
16, 24720, Note_on_c, 7, 62, 0
16, 24720, Note_on_c, 7, 62, 91
16, 24960, Note_on_c, 7, 62, 0
16, 24960, Note_on_c, 7, 59, 91
16, 26880, Note_on_c, 7, 59, 0
16, 26880, Note_on_c, 7, 60, 91
16, 27360, Note_on_c, 7, 60, 0
16, 28080, Note_on_c, 7, 62, 91
16, 28320, Note_on_c, 7, 62, 0
16, 28320, Note_on_c, 7, 62, 91
16, 28560, Note_on_c, 7, 62, 0
16, 28560, Note_on_c, 7, 62, 91
16, 28800, Note_on_c, 7, 62, 0
16, 28800, Note_on_c, 7, 59, 91
16, 30720, Note_on_c, 7, 59, 0
16, 30720, Note_on_c, 7, 60, 91
16, 30960, Note_on_c, 7, 60, 0
16, 30960, Note_on_c, 7, 67, 91
16, 31200, Note_on_c, 7, 67, 0
16, 31200, Note_on_c, 7, 67, 91
16, 31440, Note_on_c, 7, 67, 0
16, 31440, Note_on_c, 7, 63, 91
16, 31680, Note_on_c, 7, 63, 0
16, 31680, Note_on_c, 7, 65, 91
16, 32880, Note_on_c, 7, 65, 0
16, 32880, Note_on_c, 7, 68, 101
16, 33120, Note_on_c, 7, 68, 0
16, 33120, Note_on_c, 7, 68, 109
16, 33360, Note_on_c, 7, 68, 0
16, 33360, Note_on_c, 7, 65, 109
16, 33600, Note_on_c, 7, 65, 0
16, 33600, Note_on_c, 7, 67, 115
16, 34800, Note_on_c, 7, 67, 0
16, 34800, Note_on_c, 7, 67, 123
16, 35040, Note_on_c, 7, 67, 0
16, 35040, Note_on_c, 7, 67, 123
16, 35280, Note_on_c, 7, 67, 0
16, 35280, Note_on_c, 7, 63, 123
16, 35520, Note_on_c, 7, 63, 0
16, 35520, Note_on_c, 7, 68, 123
16, 35760, Note_on_c, 7, 68, 0
16, 35760, Note_on_c, 7, 68, 123
16, 36000, Note_on_c, 7, 68, 0
16, 36000, Note_on_c, 7, 68, 123
16, 36240, Note_on_c, 7, 68, 0
16, 36240, Note_on_c, 7, 65, 123
16, 36480, Note_on_c, 7, 65, 0
16, 36480, Note_on_c, 7, 70, 123
16, 36720, Note_on_c, 7, 70, 0
16, 36720, Note_on_c, 7, 70, 123
16, 36960, Note_on_c, 7, 70, 0
16, 36960, Note_on_c, 7, 70, 123
16, 37200, Note_on_c, 7, 70, 0
16, 37200, Note_on_c, 7, 67, 123
16, 37440, Note_on_c, 7, 67, 0
16, 37440, Note_on_c, 7, 72, 123
16, 37680, Note_on_c, 7, 72, 0
16, 37680, Note_on_c, 7, 60, 123
16, 37920, Note_on_c, 7, 60, 0
16, 37920, Note_on_c, 7, 60, 123
16, 38160, Note_on_c, 7, 60, 0
16, 38160, Note_on_c, 7, 56, 123
16, 38400, Note_on_c, 7, 56, 0
16, 38400, Note_on_c, 7, 64, 123
16, 38640, Note_on_c, 7, 64, 0
16, 38640, Note_on_c, 7, 64, 123
16, 38880, Note_on_c, 7, 64, 0
16, 38880, Note_on_c, 7, 64, 123
16, 39120, Note_on_c, 7, 64, 0
16, 39120, Note_on_c, 7, 58, 123
16, 39360, Note_on_c, 7, 58, 0
16, 39360, Note_on_c, 7, 65, 123
16, 39600, Note_on_c, 7, 65, 0
16, 39600, Note_on_c, 7, 65, 123
16, 39840, Note_on_c, 7, 65, 0
16, 39840, Note_on_c, 7, 65, 123
16, 40080, Note_on_c, 7, 65, 0
16, 40080, Note_on_c, 7, 60, 123
16, 40320, Note_on_c, 7, 60, 0
16, 40320, Note_on_c, 7, 68, 123
16, 40560, Note_on_c, 7, 68, 0
16, 40560, Note_on_c, 7, 68, 123
16, 40800, Note_on_c, 7, 68, 0
16, 40800, Note_on_c, 7, 68, 123
16, 41040, Note_on_c, 7, 68, 0
16, 41040, Note_on_c, 7, 65, 123
16, 41280, Note_on_c, 7, 65, 0
16, 41280, Note_on_c, 7, 67, 123
16, 41520, Note_on_c, 7, 67, 0
16, 41520, Note_on_c, 7, 63, 123
16, 41520, Note_on_c, 7, 72, 123
16, 41760, Note_on_c, 7, 72, 0
16, 41760, Note_on_c, 7, 63, 0
16, 41760, Note_on_c, 7, 63, 123
16, 41760, Note_on_c, 7, 72, 123
16, 42000, Note_on_c, 7, 72, 0
16, 42000, Note_on_c, 7, 63, 0
16, 42000, Note_on_c, 7, 63, 123
16, 42000, Note_on_c, 7, 72, 123
16, 42240, Note_on_c, 7, 72, 0
16, 42240, Note_on_c, 7, 63, 0
16, 42240, Note_on_c, 7, 63, 123
16, 42240, Note_on_c, 7, 72, 123
16, 42480, Note_on_c, 7, 72, 0
16, 42480, Note_on_c, 7, 63, 0
16, 42480, Note_on_c, 7, 63, 123
16, 42480, Note_on_c, 7, 72, 123
16, 42720, Note_on_c, 7, 72, 0
16, 42720, Note_on_c, 7, 63, 0
16, 42720, Note_on_c, 7, 63, 123
16, 42720, Note_on_c, 7, 72, 123
16, 42960, Note_on_c, 7, 72, 0
16, 42960, Note_on_c, 7, 63, 0
16, 42960, Note_on_c, 7, 63, 123
16, 42960, Note_on_c, 7, 72, 123
16, 43200, Note_on_c, 7, 72, 0
16, 43200, Note_on_c, 7, 63, 0
16, 43200, Note_on_c, 7, 63, 123
16, 43200, Note_on_c, 7, 72, 123
16, 43440, Note_on_c, 7, 72, 0
16, 43440, Note_on_c, 7, 63, 0
16, 43440, Note_on_c, 7, 63, 123
16, 43440, Note_on_c, 7, 72, 123
16, 43680, Note_on_c, 7, 72, 0
16, 43680, Note_on_c, 7, 63, 0
16, 43680, Note_on_c, 7, 63, 123
16, 43680, Note_on_c, 7, 72, 123
16, 43920, Note_on_c, 7, 72, 0
16, 43920, Note_on_c, 7, 63, 0
16, 43920, Note_on_c, 7, 63, 123
16, 43920, Note_on_c, 7, 72, 123
16, 44160, Note_on_c, 7, 72, 0
16, 44160, Note_on_c, 7, 63, 0
16, 44160, Note_on_c, 7, 63, 123
16, 44160, Note_on_c, 7, 72, 123
16, 44400, Note_on_c, 7, 72, 0
16, 44400, Note_on_c, 7, 63, 0
16, 44400, Note_on_c, 7, 63, 123
16, 44400, Note_on_c, 7, 72, 123
16, 44640, Note_on_c, 7, 72, 0
16, 44640, Note_on_c, 7, 63, 0
16, 44640, Note_on_c, 7, 63, 123
16, 44640, Note_on_c, 7, 72, 123
16, 44880, Note_on_c, 7, 72, 0
16, 44880, Note_on_c, 7, 63, 0
16, 44880, Note_on_c, 7, 63, 123
16, 44880, Note_on_c, 7, 72, 123
16, 45120, Note_on_c, 7, 72, 0
16, 45120, Note_on_c, 7, 63, 0
16, 45120, Note_on_c, 7, 62, 123
16, 45120, Note_on_c, 7, 71, 123
16, 45360, Note_on_c, 7, 71, 0
16, 45360, Note_on_c, 7, 62, 0
16, 45360, Note_on_c, 7, 77, 123
16, 45600, Note_on_c, 7, 77, 0
16, 45600, Note_on_c, 7, 74, 123
16, 45840, Note_on_c, 7, 74, 0
16, 45840, Note_on_c, 7, 74, 123
16, 46080, Note_on_c, 7, 74, 0
16, 46080, Note_on_c, 7, 71, 123
16, 46320, Note_on_c, 7, 71, 0
16, 46320, Note_on_c, 7, 67, 123
16, 46560, Note_on_c, 7, 67, 0
16, 46560, Note_on_c, 7, 65, 123
16, 46800, Note_on_c, 7, 65, 0
16, 46800, Note_on_c, 7, 65, 123
16, 47040, Note_on_c, 7, 65, 0
16, 47040, Note_on_c, 7, 62, 123
16, 47280, Note_on_c, 7, 62, 0
16, 47280, Note_on_c, 7, 59, 123
16, 47520, Note_on_c, 7, 59, 0
16, 47520, Note_on_c, 7, 55, 123
16, 47760, Note_on_c, 7, 55, 0
16, 47760, Note_on_c, 7, 65, 123
16, 48000, Note_on_c, 7, 65, 0
16, 48000, Note_on_c, 7, 62, 123
16, 48240, Note_on_c, 7, 62, 0
16, 48240, Note_on_c, 7, 59, 123
16, 48480, Note_on_c, 7, 59, 0
16, 48480, Note_on_c, 7, 60, 123
16, 48720, Note_on_c, 7, 60, 0
16, 48720, Note_on_c, 7, 60, 123
16, 48960, Note_on_c, 7, 60, 0
16, 48960, Note_on_c, 7, 72, 123
16, 49200, Note_on_c, 7, 72, 0
16, 49200, Note_on_c, 7, 75, 123
16, 49440, Note_on_c, 7, 75, 0
16, 49440, Note_on_c, 7, 75, 123
16, 49680, Note_on_c, 7, 75, 0
16, 49680, Note_on_c, 7, 75, 123
16, 49920, Note_on_c, 7, 75, 0
16, 49920, Note_on_c, 7, 72, 123
16, 50160, Note_on_c, 7, 72, 0
16, 50160, Note_on_c, 7, 69, 123
16, 50400, Note_on_c, 7, 69, 0
16, 50400, Note_on_c, 7, 69, 123
16, 50640, Note_on_c, 7, 69, 0
16, 50640, Note_on_c, 7, 69, 123
16, 50880, Note_on_c, 7, 69, 0
16, 50880, Note_on_c, 7, 66, 123
16, 51120, Note_on_c, 7, 66, 0
16, 51120, Note_on_c, 7, 63, 123
16, 51360, Note_on_c, 7, 63, 0
16, 51360, Note_on_c, 7, 63, 123
16, 51600, Note_on_c, 7, 63, 0
16, 51600, Note_on_c, 7, 63, 123
16, 51840, Note_on_c, 7, 63, 0
16, 51840, Note_on_c, 7, 60, 123
16, 52080, Note_on_c, 7, 60, 0
16, 52080, Note_on_c, 7, 57, 123
16, 52080, Note_on_c, 7, 69, 123
16, 52320, Note_on_c, 7, 69, 0
16, 52320, Note_on_c, 7, 57, 0
16, 52320, Note_on_c, 7, 57, 123
16, 52320, Note_on_c, 7, 69, 123
16, 52560, Note_on_c, 7, 69, 0
16, 52560, Note_on_c, 7, 57, 0
16, 52560, Note_on_c, 7, 57, 123
16, 52560, Note_on_c, 7, 69, 123
16, 52800, Note_on_c, 7, 69, 0
16, 52800, Note_on_c, 7, 57, 0
16, 52800, Note_on_c, 7, 57, 123
16, 52800, Note_on_c, 7, 69, 123
16, 53280, Note_on_c, 7, 69, 0
16, 53280, Note_on_c, 7, 57, 0
16, 54720, Note_on_c, 7, 58, 123
16, 54720, Note_on_c, 7, 65, 123
16, 54720, Note_on_c, 7, 70, 123
16, 55200, Note_on_c, 7, 70, 0
16, 55200, Note_on_c, 7, 65, 0
16, 55200, Note_on_c, 7, 58, 0
16, 59520, Note_on_c, 7, 67, 91
16, 60480, Note_on_c, 7, 67, 0
16, 60480, Note_on_c, 7, 68, 91
16, 61440, Note_on_c, 7, 68, 0
16, 61440, Note_on_c, 7, 68, 91
16, 62400, Note_on_c, 7, 68, 0
16, 62400, Note_on_c, 7, 67, 91
16, 63360, Note_on_c, 7, 67, 0
16, 63360, Note_on_c, 7, 67, 91
16, 64320, Note_on_c, 7, 67, 0
16, 64320, Note_on_c, 7, 68, 91
16, 65280, Note_on_c, 7, 68, 0
16, 65280, Note_on_c, 7, 68, 91
16, 66240, Note_on_c, 7, 68, 0
16, 66240, Note_on_c, 7, 67, 91
16, 67200, Note_on_c, 7, 67, 0
16, 67200, Note_on_c, 7, 67, 91
16, 68160, Note_on_c, 7, 67, 0
16, 68160, Note_on_c, 7, 68, 91
16, 69120, Note_on_c, 7, 68, 0
16, 69120, Note_on_c, 7, 68, 91
16, 70080, Note_on_c, 7, 68, 0
16, 70080, Note_on_c, 7, 67, 91
16, 71040, Note_on_c, 7, 67, 0
16, 71040, Note_on_c, 7, 67, 91
16, 72960, Note_on_c, 7, 67, 0
16, 72960, Note_on_c, 7, 67, 91
16, 73920, Note_on_c, 7, 67, 0
16, 73920, Note_on_c, 7, 65, 91
16, 74880, Note_on_c, 7, 65, 0
16, 74880, Note_on_c, 7, 68, 91
16, 75840, Note_on_c, 7, 68, 0
16, 75840, Note_on_c, 7, 70, 91
16, 76800, Note_on_c, 7, 70, 0
16, 76800, Note_on_c, 7, 70, 91
16, 77760, Note_on_c, 7, 70, 0
16, 77760, Note_on_c, 7, 68, 91
16, 78720, Note_on_c, 7, 68, 0
16, 78720, Note_on_c, 7, 63, 91
16, 79200, Note_on_c, 7, 63, 0
16, 79200, Note_on_c, 7, 65, 91
16, 79680, Note_on_c, 7, 65, 0
16, 79680, Note_on_c, 7, 66, 91
16, 80160, Note_on_c, 7, 66, 0
16, 80160, Note_on_c, 7, 65, 91
16, 80640, Note_on_c, 7, 65, 0
16, 80640, Note_on_c, 7, 63, 91
16, 81120, Note_on_c, 7, 63, 0
16, 81120, Note_on_c, 7, 65, 91
16, 81600, Note_on_c, 7, 65, 0
16, 81600, Note_on_c, 7, 66, 91
16, 82080, Note_on_c, 7, 66, 0
16, 82080, Note_on_c, 7, 65, 91
16, 82560, Note_on_c, 7, 65, 0
16, 82560, Note_on_c, 7, 63, 91
16, 83040, Note_on_c, 7, 63, 0
16, 83040, Note_on_c, 7, 65, 91
16, 83520, Note_on_c, 7, 65, 0
16, 83520, Note_on_c, 7, 66, 101
16, 84000, Note_on_c, 7, 66, 0
16, 84000, Note_on_c, 7, 65, 101
16, 84480, Note_on_c, 7, 65, 0
16, 84480, Note_on_c, 7, 63, 101
16, 84960, Note_on_c, 7, 63, 0
16, 84960, Note_on_c, 7, 65, 101
16, 85440, Note_on_c, 7, 65, 0
16, 85440, Note_on_c, 7, 66, 109
16, 85920, Note_on_c, 7, 66, 0
16, 85920, Note_on_c, 7, 65, 109
16, 86400, Note_on_c, 7, 65, 0
16, 86400, Note_on_c, 7, 63, 109
16, 86880, Note_on_c, 7, 63, 0
16, 86880, Note_on_c, 7, 65, 109
16, 87360, Note_on_c, 7, 65, 0
16, 87360, Note_on_c, 7, 66, 115
16, 87840, Note_on_c, 7, 66, 0
16, 87840, Note_on_c, 7, 65, 115
16, 88320, Note_on_c, 7, 65, 0
16, 88320, Note_on_c, 7, 66, 115
16, 88800, Note_on_c, 7, 66, 0
16, 88800, Note_on_c, 7, 69, 115
16, 89280, Note_on_c, 7, 69, 0
16, 89280, Note_on_c, 7, 70, 123
16, 89280, Note_on_c, 7, 82, 123
16, 90480, Note_on_c, 7, 82, 0
16, 90480, Note_on_c, 7, 70, 0
16, 90480, Note_on_c, 7, 84, 123
16, 90720, Note_on_c, 7, 84, 0
16, 90720, Note_on_c, 7, 82, 123
16, 90960, Note_on_c, 7, 82, 0
16, 90960, Note_on_c, 7, 80, 123
16, 91200, Note_on_c, 7, 80, 0
16, 91200, Note_on_c, 7, 80, 123
16, 91440, Note_on_c, 7, 80, 0
16, 91440, Note_on_c, 7, 79, 123
16, 91680, Note_on_c, 7, 79, 0
16, 91680, Note_on_c, 7, 77, 123
16, 91920, Note_on_c, 7, 77, 0
16, 91920, Note_on_c, 7, 75, 123
16, 92160, Note_on_c, 7, 75, 0
16, 92160, Note_on_c, 7, 75, 123
16, 92400, Note_on_c, 7, 75, 0
16, 92400, Note_on_c, 7, 74, 123
16, 92640, Note_on_c, 7, 74, 0
16, 92640, Note_on_c, 7, 72, 123
16, 92880, Note_on_c, 7, 72, 0
16, 92880, Note_on_c, 7, 74, 123
16, 93120, Note_on_c, 7, 74, 0
16, 93120, Note_on_c, 7, 77, 123
16, 93360, Note_on_c, 7, 77, 0
16, 93360, Note_on_c, 7, 75, 123
16, 93600, Note_on_c, 7, 75, 0
16, 93600, Note_on_c, 7, 70, 123
16, 93840, Note_on_c, 7, 70, 0
16, 93840, Note_on_c, 7, 67, 123
16, 94080, Note_on_c, 7, 67, 0
16, 94080, Note_on_c, 7, 74, 123
16, 94320, Note_on_c, 7, 74, 0
16, 94320, Note_on_c, 7, 72, 123
16, 94560, Note_on_c, 7, 72, 0
16, 94560, Note_on_c, 7, 68, 123
16, 94800, Note_on_c, 7, 68, 0
16, 94800, Note_on_c, 7, 65, 123
16, 95040, Note_on_c, 7, 65, 0
16, 95040, Note_on_c, 7, 72, 123
16, 95280, Note_on_c, 7, 72, 0
16, 95280, Note_on_c, 7, 70, 123
16, 95520, Note_on_c, 7, 70, 0
16, 95520, Note_on_c, 7, 67, 123
16, 95760, Note_on_c, 7, 67, 0
16, 95760, Note_on_c, 7, 63, 123
16, 96000, Note_on_c, 7, 63, 0
16, 96000, Note_on_c, 7, 58, 123
16, 96240, Note_on_c, 7, 58, 0
16, 96240, Note_on_c, 7, 69, 123
16, 96480, Note_on_c, 7, 69, 0
16, 96480, Note_on_c, 7, 70, 123
16, 96720, Note_on_c, 7, 70, 0
16, 96720, Note_on_c, 7, 69, 123
16, 96960, Note_on_c, 7, 69, 0
16, 96960, Note_on_c, 7, 70, 123
16, 97200, Note_on_c, 7, 70, 0
16, 97200, Note_on_c, 7, 69, 123
16, 97440, Note_on_c, 7, 69, 0
16, 97440, Note_on_c, 7, 70, 123
16, 97680, Note_on_c, 7, 70, 0
16, 97680, Note_on_c, 7, 69, 123
16, 97920, Note_on_c, 7, 69, 0
16, 97920, Note_on_c, 7, 70, 123
16, 98160, Note_on_c, 7, 70, 0
16, 98160, Note_on_c, 7, 84, 123
16, 98400, Note_on_c, 7, 84, 0
16, 98400, Note_on_c, 7, 82, 123
16, 98640, Note_on_c, 7, 82, 0
16, 98640, Note_on_c, 7, 80, 123
16, 98880, Note_on_c, 7, 80, 0
16, 98880, Note_on_c, 7, 80, 123
16, 99120, Note_on_c, 7, 80, 0
16, 99120, Note_on_c, 7, 79, 123
16, 99360, Note_on_c, 7, 79, 0
16, 99360, Note_on_c, 7, 77, 123
16, 99600, Note_on_c, 7, 77, 0
16, 99600, Note_on_c, 7, 75, 123
16, 99840, Note_on_c, 7, 75, 0
16, 99840, Note_on_c, 7, 75, 123
16, 100080, Note_on_c, 7, 75, 0
16, 100080, Note_on_c, 7, 74, 123
16, 100320, Note_on_c, 7, 74, 0
16, 100320, Note_on_c, 7, 72, 123
16, 100560, Note_on_c, 7, 72, 0
16, 100560, Note_on_c, 7, 74, 123
16, 100800, Note_on_c, 7, 74, 0
16, 100800, Note_on_c, 7, 77, 123
16, 101040, Note_on_c, 7, 77, 0
16, 101040, Note_on_c, 7, 75, 123
16, 101280, Note_on_c, 7, 75, 0
16, 101280, Note_on_c, 7, 70, 123
16, 101520, Note_on_c, 7, 70, 0
16, 101520, Note_on_c, 7, 67, 123
16, 101760, Note_on_c, 7, 67, 0
16, 101760, Note_on_c, 7, 74, 123
16, 102000, Note_on_c, 7, 74, 0
16, 102000, Note_on_c, 7, 72, 123
16, 102240, Note_on_c, 7, 72, 0
16, 102240, Note_on_c, 7, 68, 123
16, 102480, Note_on_c, 7, 68, 0
16, 102480, Note_on_c, 7, 65, 123
16, 102720, Note_on_c, 7, 65, 0
16, 102720, Note_on_c, 7, 72, 123
16, 102960, Note_on_c, 7, 72, 0
16, 102960, Note_on_c, 7, 70, 123
16, 103200, Note_on_c, 7, 70, 0
16, 103200, Note_on_c, 7, 67, 123
16, 103440, Note_on_c, 7, 67, 0
16, 103440, Note_on_c, 7, 63, 123
16, 103680, Note_on_c, 7, 63, 0
16, 103680, Note_on_c, 7, 58, 123
16, 103920, Note_on_c, 7, 58, 0
16, 103920, Note_on_c, 7, 70, 123
16, 104160, Note_on_c, 7, 70, 0
16, 104160, Note_on_c, 7, 82, 123
16, 104400, Note_on_c, 7, 82, 0
16, 104400, Note_on_c, 7, 82, 123
16, 104640, Note_on_c, 7, 82, 0
16, 104640, Note_on_c, 7, 63, 123
16, 107760, Note_on_c, 7, 63, 0
16, 107760, Note_on_c, 7, 62, 123
16, 108000, Note_on_c, 7, 62, 0
16, 108000, Note_on_c, 7, 62, 123
16, 108240, Note_on_c, 7, 62, 0
16, 108240, Note_on_c, 7, 62, 123
16, 108480, Note_on_c, 7, 62, 0
16, 108480, Note_on_c, 7, 63, 123
16, 111600, Note_on_c, 7, 63, 0
16, 111600, Note_on_c, 7, 65, 123
16, 111600, Note_on_c, 7, 74, 123
16, 111840, Note_on_c, 7, 74, 0
16, 111840, Note_on_c, 7, 65, 0
16, 111840, Note_on_c, 7, 65, 123
16, 111840, Note_on_c, 7, 74, 123
16, 112080, Note_on_c, 7, 74, 0
16, 112080, Note_on_c, 7, 65, 0
16, 112080, Note_on_c, 7, 65, 123
16, 112080, Note_on_c, 7, 74, 123
16, 112320, Note_on_c, 7, 74, 0
16, 112320, Note_on_c, 7, 65, 0
16, 112320, Note_on_c, 7, 67, 123
16, 112320, Note_on_c, 7, 75, 123
16, 112800, Note_on_c, 7, 75, 0
16, 112800, Note_on_c, 7, 67, 0
16, 113520, Note_on_c, 7, 65, 123
16, 113520, Note_on_c, 7, 74, 123
16, 113760, Note_on_c, 7, 74, 0
16, 113760, Note_on_c, 7, 65, 0
16, 113760, Note_on_c, 7, 65, 123
16, 113760, Note_on_c, 7, 74, 123
16, 114000, Note_on_c, 7, 74, 0
16, 114000, Note_on_c, 7, 65, 0
16, 114000, Note_on_c, 7, 65, 123
16, 114000, Note_on_c, 7, 74, 123
16, 114240, Note_on_c, 7, 74, 0
16, 114240, Note_on_c, 7, 65, 0
16, 114240, Note_on_c, 7, 67, 123
16, 114240, Note_on_c, 7, 75, 123
16, 114720, Note_on_c, 7, 75, 0
16, 114720, Note_on_c, 7, 67, 0
16, 115440, Note_on_c, 7, 70, 123
16, 115440, Note_on_c, 7, 77, 123
16, 115680, Note_on_c, 7, 77, 0
16, 115680, Note_on_c, 7, 70, 0
16, 115680, Note_on_c, 7, 70, 123
16, 115680, Note_on_c, 7, 77, 123
16, 115920, Note_on_c, 7, 77, 0
16, 115920, Note_on_c, 7, 70, 0
16, 115920, Note_on_c, 7, 70, 123
16, 115920, Note_on_c, 7, 77, 123
16, 116160, Note_on_c, 7, 77, 0
16, 116160, Note_on_c, 7, 70, 0
16, 116160, Note_on_c, 7, 63, 123
16, 116160, Note_on_c, 7, 70, 123
16, 116160, Note_on_c, 7, 79, 123
16, 116640, Note_on_c, 7, 79, 0
16, 116640, Note_on_c, 7, 70, 0
16, 116640, Note_on_c, 7, 63, 0
16, 119280, Note_on_c, 7, 67, 123
16, 119520, Note_on_c, 7, 67, 0
16, 119520, Note_on_c, 7, 67, 123
16, 119760, Note_on_c, 7, 67, 0
16, 119760, Note_on_c, 7, 67, 123
16, 120000, Note_on_c, 7, 67, 0
16, 120000, Note_on_c, 7, 63, 123
16, 120960, Note_on_c, 7, 63, 0
16, 121200, Note_on_c, 7, 65, 123
16, 121440, Note_on_c, 7, 65, 0
16, 121440, Note_on_c, 7, 65, 123
16, 121680, Note_on_c, 7, 65, 0
16, 121680, Note_on_c, 7, 65, 123
16, 121920, Note_on_c, 7, 65, 0
16, 121920, Note_on_c, 7, 62, 123
16, 123840, Note_on_c, 7, 62, 0
16, 124080, Note_on_c, 7, 67, 91
16, 124320, Note_on_c, 7, 67, 0
16, 124320, Note_on_c, 7, 67, 91
16, 124560, Note_on_c, 7, 67, 0
16, 124560, Note_on_c, 7, 67, 91
16, 124800, Note_on_c, 7, 67, 0
16, 124800, Note_on_c, 7, 63, 91
16, 127920, Note_on_c, 7, 63, 0
16, 127920, Note_on_c, 7, 67, 91
16, 128160, Note_on_c, 7, 67, 0
16, 128160, Note_on_c, 7, 67, 91
16, 128400, Note_on_c, 7, 67, 0
16, 128400, Note_on_c, 7, 67, 91
16, 128640, Note_on_c, 7, 67, 0
16, 128640, Note_on_c, 7, 62, 91
16, 130560, Note_on_c, 7, 62, 0
16, 130560, Note_on_c, 7, 67, 91
16, 132720, Note_on_c, 7, 67, 0
16, 132720, Note_on_c, 7, 63, 91
16, 132960, Note_on_c, 7, 63, 0
16, 132960, Note_on_c, 7, 63, 91
16, 133200, Note_on_c, 7, 63, 0
16, 133200, Note_on_c, 7, 65, 91
16, 133440, Note_on_c, 7, 65, 0
16, 133440, Note_on_c, 7, 67, 91
16, 134640, Note_on_c, 7, 67, 0
16, 134640, Note_on_c, 7, 63, 91
16, 134880, Note_on_c, 7, 63, 0
16, 134880, Note_on_c, 7, 63, 91
16, 135120, Note_on_c, 7, 63, 0
16, 135120, Note_on_c, 7, 65, 91
16, 135360, Note_on_c, 7, 65, 0
16, 135360, Note_on_c, 7, 67, 91
16, 135600, Note_on_c, 7, 67, 0
16, 135600, Note_on_c, 7, 74, 91
16, 135840, Note_on_c, 7, 74, 0
16, 135840, Note_on_c, 7, 74, 101
16, 136080, Note_on_c, 7, 74, 0
16, 136080, Note_on_c, 7, 67, 109
16, 136320, Note_on_c, 7, 67, 0
16, 136320, Note_on_c, 7, 60, 115
16, 136320, Note_on_c, 7, 67, 115
16, 136320, Note_on_c, 7, 75, 115
16, 136800, Note_on_c, 7, 75, 0
16, 136800, Note_on_c, 7, 67, 0
16, 136800, Note_on_c, 7, 60, 0
16, 137280, Note_on_c, 7, 56, 115
16, 137280, Note_on_c, 7, 66, 115
16, 137280, Note_on_c, 7, 72, 115
16, 137760, Note_on_c, 7, 72, 0
16, 137760, Note_on_c, 7, 66, 0
16, 137760, Note_on_c, 7, 56, 0
16, 138240, Note_on_c, 7, 55, 115
16, 138240, Note_on_c, 7, 62, 115
16, 138240, Note_on_c, 7, 71, 115
16, 138720, Note_on_c, 7, 71, 0
16, 138720, Note_on_c, 7, 62, 0
16, 138720, Note_on_c, 7, 55, 0
16, 139440, Note_on_c, 7, 68, 123
16, 139680, Note_on_c, 7, 68, 0
16, 139680, Note_on_c, 7, 68, 123
16, 139920, Note_on_c, 7, 68, 0
16, 139920, Note_on_c, 7, 68, 123
16, 140160, Note_on_c, 7, 68, 0
16, 140160, Note_on_c, 7, 65, 123
16, 142080, Note_on_c, 7, 65, 0
16, 143280, Note_on_c, 7, 62, 91
16, 143520, Note_on_c, 7, 62, 0
16, 143520, Note_on_c, 7, 62, 91
16, 143760, Note_on_c, 7, 62, 0
16, 143760, Note_on_c, 7, 62, 91
16, 144000, Note_on_c, 7, 62, 0
16, 144000, Note_on_c, 7, 59, 91
16, 145920, Note_on_c, 7, 59, 0
16, 145920, Note_on_c, 7, 60, 91
16, 146400, Note_on_c, 7, 60, 0
16, 147120, Note_on_c, 7, 62, 91
16, 147360, Note_on_c, 7, 62, 0
16, 147360, Note_on_c, 7, 62, 91
16, 147600, Note_on_c, 7, 62, 0
16, 147600, Note_on_c, 7, 62, 91
16, 147840, Note_on_c, 7, 62, 0
16, 147840, Note_on_c, 7, 59, 91
16, 149760, Note_on_c, 7, 59, 0
16, 149760, Note_on_c, 7, 60, 91
16, 150000, Note_on_c, 7, 60, 0
16, 150000, Note_on_c, 7, 67, 91
16, 150240, Note_on_c, 7, 67, 0
16, 150240, Note_on_c, 7, 67, 91
16, 150480, Note_on_c, 7, 67, 0
16, 150480, Note_on_c, 7, 63, 91
16, 150720, Note_on_c, 7, 63, 0
16, 150720, Note_on_c, 7, 65, 91
16, 151920, Note_on_c, 7, 65, 0
16, 151920, Note_on_c, 7, 68, 101
16, 152160, Note_on_c, 7, 68, 0
16, 152160, Note_on_c, 7, 68, 109
16, 152400, Note_on_c, 7, 68, 0
16, 152400, Note_on_c, 7, 65, 109
16, 152640, Note_on_c, 7, 65, 0
16, 152640, Note_on_c, 7, 67, 115
16, 153840, Note_on_c, 7, 67, 0
16, 153840, Note_on_c, 7, 67, 123
16, 154080, Note_on_c, 7, 67, 0
16, 154080, Note_on_c, 7, 67, 123
16, 154320, Note_on_c, 7, 67, 0
16, 154320, Note_on_c, 7, 63, 123
16, 154560, Note_on_c, 7, 63, 0
16, 154560, Note_on_c, 7, 68, 123
16, 154800, Note_on_c, 7, 68, 0
16, 154800, Note_on_c, 7, 68, 123
16, 155040, Note_on_c, 7, 68, 0
16, 155040, Note_on_c, 7, 68, 123
16, 155280, Note_on_c, 7, 68, 0
16, 155280, Note_on_c, 7, 65, 123
16, 155520, Note_on_c, 7, 65, 0
16, 155520, Note_on_c, 7, 70, 123
16, 155760, Note_on_c, 7, 70, 0
16, 155760, Note_on_c, 7, 70, 123
16, 156000, Note_on_c, 7, 70, 0
16, 156000, Note_on_c, 7, 70, 123
16, 156240, Note_on_c, 7, 70, 0
16, 156240, Note_on_c, 7, 67, 123
16, 156480, Note_on_c, 7, 67, 0
16, 156480, Note_on_c, 7, 72, 123
16, 156720, Note_on_c, 7, 72, 0
16, 156720, Note_on_c, 7, 60, 123
16, 156960, Note_on_c, 7, 60, 0
16, 156960, Note_on_c, 7, 60, 123
16, 157200, Note_on_c, 7, 60, 0
16, 157200, Note_on_c, 7, 56, 123
16, 157440, Note_on_c, 7, 56, 0
16, 157440, Note_on_c, 7, 64, 123
16, 157680, Note_on_c, 7, 64, 0
16, 157680, Note_on_c, 7, 64, 123
16, 157920, Note_on_c, 7, 64, 0
16, 157920, Note_on_c, 7, 64, 123
16, 158160, Note_on_c, 7, 64, 0
16, 158160, Note_on_c, 7, 58, 123
16, 158400, Note_on_c, 7, 58, 0
16, 158400, Note_on_c, 7, 65, 123
16, 158640, Note_on_c, 7, 65, 0
16, 158640, Note_on_c, 7, 65, 123
16, 158880, Note_on_c, 7, 65, 0
16, 158880, Note_on_c, 7, 65, 123
16, 159120, Note_on_c, 7, 65, 0
16, 159120, Note_on_c, 7, 60, 123
16, 159360, Note_on_c, 7, 60, 0
16, 159360, Note_on_c, 7, 68, 123
16, 159600, Note_on_c, 7, 68, 0
16, 159600, Note_on_c, 7, 68, 123
16, 159840, Note_on_c, 7, 68, 0
16, 159840, Note_on_c, 7, 68, 123
16, 160080, Note_on_c, 7, 68, 0
16, 160080, Note_on_c, 7, 65, 123
16, 160320, Note_on_c, 7, 65, 0
16, 160320, Note_on_c, 7, 67, 123
16, 160560, Note_on_c, 7, 67, 0
16, 160560, Note_on_c, 7, 63, 123
16, 160560, Note_on_c, 7, 72, 123
16, 160800, Note_on_c, 7, 72, 0
16, 160800, Note_on_c, 7, 63, 0
16, 160800, Note_on_c, 7, 63, 123
16, 160800, Note_on_c, 7, 72, 123
16, 161040, Note_on_c, 7, 72, 0
16, 161040, Note_on_c, 7, 63, 0
16, 161040, Note_on_c, 7, 63, 123
16, 161040, Note_on_c, 7, 72, 123
16, 161280, Note_on_c, 7, 72, 0
16, 161280, Note_on_c, 7, 63, 0
16, 161280, Note_on_c, 7, 63, 123
16, 161280, Note_on_c, 7, 72, 123
16, 161520, Note_on_c, 7, 72, 0
16, 161520, Note_on_c, 7, 63, 0
16, 161520, Note_on_c, 7, 63, 123
16, 161520, Note_on_c, 7, 72, 123
16, 161760, Note_on_c, 7, 72, 0
16, 161760, Note_on_c, 7, 63, 0
16, 161760, Note_on_c, 7, 63, 123
16, 161760, Note_on_c, 7, 72, 123
16, 162000, Note_on_c, 7, 72, 0
16, 162000, Note_on_c, 7, 63, 0
16, 162000, Note_on_c, 7, 63, 123
16, 162000, Note_on_c, 7, 72, 123
16, 162240, Note_on_c, 7, 72, 0
16, 162240, Note_on_c, 7, 63, 0
16, 162240, Note_on_c, 7, 63, 123
16, 162240, Note_on_c, 7, 72, 123
16, 162480, Note_on_c, 7, 72, 0
16, 162480, Note_on_c, 7, 63, 0
16, 162480, Note_on_c, 7, 63, 123
16, 162480, Note_on_c, 7, 72, 123
16, 162720, Note_on_c, 7, 72, 0
16, 162720, Note_on_c, 7, 63, 0
16, 162720, Note_on_c, 7, 63, 123
16, 162720, Note_on_c, 7, 72, 123
16, 162960, Note_on_c, 7, 72, 0
16, 162960, Note_on_c, 7, 63, 0
16, 162960, Note_on_c, 7, 63, 123
16, 162960, Note_on_c, 7, 72, 123
16, 163200, Note_on_c, 7, 72, 0
16, 163200, Note_on_c, 7, 63, 0
16, 163200, Note_on_c, 7, 63, 123
16, 163200, Note_on_c, 7, 72, 123
16, 163440, Note_on_c, 7, 72, 0
16, 163440, Note_on_c, 7, 63, 0
16, 163440, Note_on_c, 7, 63, 123
16, 163440, Note_on_c, 7, 72, 123
16, 163680, Note_on_c, 7, 72, 0
16, 163680, Note_on_c, 7, 63, 0
16, 163680, Note_on_c, 7, 63, 123
16, 163680, Note_on_c, 7, 72, 123
16, 163920, Note_on_c, 7, 72, 0
16, 163920, Note_on_c, 7, 63, 0
16, 163920, Note_on_c, 7, 63, 123
16, 163920, Note_on_c, 7, 72, 123
16, 164160, Note_on_c, 7, 72, 0
16, 164160, Note_on_c, 7, 63, 0
16, 164160, Note_on_c, 7, 62, 123
16, 164160, Note_on_c, 7, 71, 123
16, 164400, Note_on_c, 7, 71, 0
16, 164400, Note_on_c, 7, 62, 0
16, 164400, Note_on_c, 7, 77, 123
16, 164640, Note_on_c, 7, 77, 0
16, 164640, Note_on_c, 7, 74, 123
16, 164880, Note_on_c, 7, 74, 0
16, 164880, Note_on_c, 7, 74, 123
16, 165120, Note_on_c, 7, 74, 0
16, 165120, Note_on_c, 7, 71, 123
16, 165360, Note_on_c, 7, 71, 0
16, 165360, Note_on_c, 7, 67, 123
16, 165600, Note_on_c, 7, 67, 0
16, 165600, Note_on_c, 7, 65, 123
16, 165840, Note_on_c, 7, 65, 0
16, 165840, Note_on_c, 7, 65, 123
16, 166080, Note_on_c, 7, 65, 0
16, 166080, Note_on_c, 7, 62, 123
16, 166320, Note_on_c, 7, 62, 0
16, 166320, Note_on_c, 7, 59, 123
16, 166560, Note_on_c, 7, 59, 0
16, 166560, Note_on_c, 7, 55, 123
16, 166800, Note_on_c, 7, 55, 0
16, 166800, Note_on_c, 7, 65, 123
16, 167040, Note_on_c, 7, 65, 0
16, 167040, Note_on_c, 7, 62, 123
16, 167280, Note_on_c, 7, 62, 0
16, 167280, Note_on_c, 7, 59, 123
16, 167520, Note_on_c, 7, 59, 0
16, 167520, Note_on_c, 7, 60, 123
16, 167760, Note_on_c, 7, 60, 0
16, 167760, Note_on_c, 7, 60, 123
16, 168000, Note_on_c, 7, 60, 0
16, 168000, Note_on_c, 7, 72, 123
16, 168240, Note_on_c, 7, 72, 0
16, 168240, Note_on_c, 7, 75, 123
16, 168480, Note_on_c, 7, 75, 0
16, 168480, Note_on_c, 7, 75, 123
16, 168720, Note_on_c, 7, 75, 0
16, 168720, Note_on_c, 7, 75, 123
16, 168960, Note_on_c, 7, 75, 0
16, 168960, Note_on_c, 7, 72, 123
16, 169200, Note_on_c, 7, 72, 0
16, 169200, Note_on_c, 7, 69, 123
16, 169440, Note_on_c, 7, 69, 0
16, 169440, Note_on_c, 7, 69, 123
16, 169680, Note_on_c, 7, 69, 0
16, 169680, Note_on_c, 7, 69, 123
16, 169920, Note_on_c, 7, 69, 0
16, 169920, Note_on_c, 7, 66, 123
16, 170160, Note_on_c, 7, 66, 0
16, 170160, Note_on_c, 7, 63, 123
16, 170400, Note_on_c, 7, 63, 0
16, 170400, Note_on_c, 7, 63, 123
16, 170640, Note_on_c, 7, 63, 0
16, 170640, Note_on_c, 7, 63, 123
16, 170880, Note_on_c, 7, 63, 0
16, 170880, Note_on_c, 7, 60, 123
16, 171120, Note_on_c, 7, 60, 0
16, 171120, Note_on_c, 7, 57, 123
16, 171120, Note_on_c, 7, 69, 123
16, 171360, Note_on_c, 7, 69, 0
16, 171360, Note_on_c, 7, 57, 0
16, 171360, Note_on_c, 7, 57, 123
16, 171360, Note_on_c, 7, 69, 123
16, 171600, Note_on_c, 7, 69, 0
16, 171600, Note_on_c, 7, 57, 0
16, 171600, Note_on_c, 7, 57, 123
16, 171600, Note_on_c, 7, 69, 123
16, 171840, Note_on_c, 7, 69, 0
16, 171840, Note_on_c, 7, 57, 0
16, 171840, Note_on_c, 7, 57, 123
16, 171840, Note_on_c, 7, 69, 123
16, 172320, Note_on_c, 7, 69, 0
16, 172320, Note_on_c, 7, 57, 0
16, 173760, Note_on_c, 7, 58, 123
16, 173760, Note_on_c, 7, 65, 123
16, 173760, Note_on_c, 7, 70, 123
16, 174240, Note_on_c, 7, 70, 0
16, 174240, Note_on_c, 7, 65, 0
16, 174240, Note_on_c, 7, 58, 0
16, 178560, Note_on_c, 7, 67, 91
16, 179520, Note_on_c, 7, 67, 0
16, 179520, Note_on_c, 7, 68, 91
16, 180480, Note_on_c, 7, 68, 0
16, 180480, Note_on_c, 7, 68, 91
16, 181440, Note_on_c, 7, 68, 0
16, 181440, Note_on_c, 7, 67, 91
16, 182400, Note_on_c, 7, 67, 0
16, 182400, Note_on_c, 7, 67, 91
16, 183360, Note_on_c, 7, 67, 0
16, 183360, Note_on_c, 7, 68, 91
16, 184320, Note_on_c, 7, 68, 0
16, 184320, Note_on_c, 7, 68, 91
16, 185280, Note_on_c, 7, 68, 0
16, 185280, Note_on_c, 7, 67, 91
16, 186240, Note_on_c, 7, 67, 0
16, 186240, Note_on_c, 7, 67, 91
16, 187200, Note_on_c, 7, 67, 0
16, 187200, Note_on_c, 7, 68, 91
16, 188160, Note_on_c, 7, 68, 0
16, 188160, Note_on_c, 7, 68, 91
16, 189120, Note_on_c, 7, 68, 0
16, 189120, Note_on_c, 7, 67, 91
16, 190080, Note_on_c, 7, 67, 0
16, 190080, Note_on_c, 7, 67, 91
16, 192000, Note_on_c, 7, 67, 0
16, 192000, Note_on_c, 7, 67, 91
16, 192960, Note_on_c, 7, 67, 0
16, 192960, Note_on_c, 7, 65, 91
16, 193920, Note_on_c, 7, 65, 0
16, 193920, Note_on_c, 7, 68, 91
16, 194880, Note_on_c, 7, 68, 0
16, 194880, Note_on_c, 7, 70, 91
16, 195840, Note_on_c, 7, 70, 0
16, 195840, Note_on_c, 7, 70, 91
16, 196800, Note_on_c, 7, 70, 0
16, 196800, Note_on_c, 7, 68, 91
16, 197760, Note_on_c, 7, 68, 0
16, 197760, Note_on_c, 7, 63, 91
16, 198240, Note_on_c, 7, 63, 0
16, 198240, Note_on_c, 7, 65, 91
16, 198720, Note_on_c, 7, 65, 0
16, 198720, Note_on_c, 7, 66, 91
16, 199200, Note_on_c, 7, 66, 0
16, 199200, Note_on_c, 7, 65, 91
16, 199680, Note_on_c, 7, 65, 0
16, 199680, Note_on_c, 7, 63, 91
16, 200160, Note_on_c, 7, 63, 0
16, 200160, Note_on_c, 7, 65, 91
16, 200640, Note_on_c, 7, 65, 0
16, 200640, Note_on_c, 7, 66, 91
16, 201120, Note_on_c, 7, 66, 0
16, 201120, Note_on_c, 7, 65, 91
16, 201600, Note_on_c, 7, 65, 0
16, 201600, Note_on_c, 7, 63, 91
16, 202080, Note_on_c, 7, 63, 0
16, 202080, Note_on_c, 7, 65, 91
16, 202560, Note_on_c, 7, 65, 0
16, 202560, Note_on_c, 7, 66, 101
16, 203040, Note_on_c, 7, 66, 0
16, 203040, Note_on_c, 7, 65, 101
16, 203520, Note_on_c, 7, 65, 0
16, 203520, Note_on_c, 7, 63, 101
16, 204000, Note_on_c, 7, 63, 0
16, 204000, Note_on_c, 7, 65, 101
16, 204480, Note_on_c, 7, 65, 0
16, 204480, Note_on_c, 7, 66, 109
16, 204960, Note_on_c, 7, 66, 0
16, 204960, Note_on_c, 7, 65, 109
16, 205440, Note_on_c, 7, 65, 0
16, 205440, Note_on_c, 7, 63, 109
16, 205920, Note_on_c, 7, 63, 0
16, 205920, Note_on_c, 7, 65, 109
16, 206400, Note_on_c, 7, 65, 0
16, 206400, Note_on_c, 7, 66, 115
16, 206880, Note_on_c, 7, 66, 0
16, 206880, Note_on_c, 7, 65, 115
16, 207360, Note_on_c, 7, 65, 0
16, 207360, Note_on_c, 7, 66, 115
16, 207840, Note_on_c, 7, 66, 0
16, 207840, Note_on_c, 7, 69, 115
16, 208320, Note_on_c, 7, 69, 0
16, 208320, Note_on_c, 7, 70, 123
16, 208320, Note_on_c, 7, 82, 123
16, 209520, Note_on_c, 7, 82, 0
16, 209520, Note_on_c, 7, 70, 0
16, 209520, Note_on_c, 7, 84, 123
16, 209760, Note_on_c, 7, 84, 0
16, 209760, Note_on_c, 7, 82, 123
16, 210000, Note_on_c, 7, 82, 0
16, 210000, Note_on_c, 7, 80, 123
16, 210240, Note_on_c, 7, 80, 0
16, 210240, Note_on_c, 7, 80, 123
16, 210480, Note_on_c, 7, 80, 0
16, 210480, Note_on_c, 7, 79, 123
16, 210720, Note_on_c, 7, 79, 0
16, 210720, Note_on_c, 7, 77, 123
16, 210960, Note_on_c, 7, 77, 0
16, 210960, Note_on_c, 7, 75, 123
16, 211200, Note_on_c, 7, 75, 0
16, 211200, Note_on_c, 7, 75, 123
16, 211440, Note_on_c, 7, 75, 0
16, 211440, Note_on_c, 7, 74, 123
16, 211680, Note_on_c, 7, 74, 0
16, 211680, Note_on_c, 7, 72, 123
16, 211920, Note_on_c, 7, 72, 0
16, 211920, Note_on_c, 7, 74, 123
16, 212160, Note_on_c, 7, 74, 0
16, 212160, Note_on_c, 7, 77, 123
16, 212400, Note_on_c, 7, 77, 0
16, 212400, Note_on_c, 7, 75, 123
16, 212640, Note_on_c, 7, 75, 0
16, 212640, Note_on_c, 7, 70, 123
16, 212880, Note_on_c, 7, 70, 0
16, 212880, Note_on_c, 7, 67, 123
16, 213120, Note_on_c, 7, 67, 0
16, 213120, Note_on_c, 7, 74, 123
16, 213360, Note_on_c, 7, 74, 0
16, 213360, Note_on_c, 7, 72, 123
16, 213600, Note_on_c, 7, 72, 0
16, 213600, Note_on_c, 7, 68, 123
16, 213840, Note_on_c, 7, 68, 0
16, 213840, Note_on_c, 7, 65, 123
16, 214080, Note_on_c, 7, 65, 0
16, 214080, Note_on_c, 7, 72, 123
16, 214320, Note_on_c, 7, 72, 0
16, 214320, Note_on_c, 7, 70, 123
16, 214560, Note_on_c, 7, 70, 0
16, 214560, Note_on_c, 7, 67, 123
16, 214800, Note_on_c, 7, 67, 0
16, 214800, Note_on_c, 7, 63, 123
16, 215040, Note_on_c, 7, 63, 0
16, 215040, Note_on_c, 7, 58, 123
16, 215280, Note_on_c, 7, 58, 0
16, 215280, Note_on_c, 7, 69, 123
16, 215520, Note_on_c, 7, 69, 0
16, 215520, Note_on_c, 7, 70, 123
16, 215760, Note_on_c, 7, 70, 0
16, 215760, Note_on_c, 7, 69, 123
16, 216000, Note_on_c, 7, 69, 0
16, 216000, Note_on_c, 7, 70, 123
16, 216240, Note_on_c, 7, 70, 0
16, 216240, Note_on_c, 7, 69, 123
16, 216480, Note_on_c, 7, 69, 0
16, 216480, Note_on_c, 7, 70, 123
16, 216720, Note_on_c, 7, 70, 0
16, 216720, Note_on_c, 7, 69, 123
16, 216960, Note_on_c, 7, 69, 0
16, 216960, Note_on_c, 7, 70, 123
16, 217200, Note_on_c, 7, 70, 0
16, 217200, Note_on_c, 7, 84, 123
16, 217440, Note_on_c, 7, 84, 0
16, 217440, Note_on_c, 7, 82, 123
16, 217680, Note_on_c, 7, 82, 0
16, 217680, Note_on_c, 7, 80, 123
16, 217920, Note_on_c, 7, 80, 0
16, 217920, Note_on_c, 7, 80, 123
16, 218160, Note_on_c, 7, 80, 0
16, 218160, Note_on_c, 7, 79, 123
16, 218400, Note_on_c, 7, 79, 0
16, 218400, Note_on_c, 7, 77, 123
16, 218640, Note_on_c, 7, 77, 0
16, 218640, Note_on_c, 7, 75, 123
16, 218880, Note_on_c, 7, 75, 0
16, 218880, Note_on_c, 7, 75, 123
16, 219120, Note_on_c, 7, 75, 0
16, 219120, Note_on_c, 7, 74, 123
16, 219360, Note_on_c, 7, 74, 0
16, 219360, Note_on_c, 7, 72, 123
16, 219600, Note_on_c, 7, 72, 0
16, 219600, Note_on_c, 7, 74, 123
16, 219840, Note_on_c, 7, 74, 0
16, 219840, Note_on_c, 7, 77, 123
16, 220080, Note_on_c, 7, 77, 0
16, 220080, Note_on_c, 7, 75, 123
16, 220320, Note_on_c, 7, 75, 0
16, 220320, Note_on_c, 7, 70, 123
16, 220560, Note_on_c, 7, 70, 0
16, 220560, Note_on_c, 7, 67, 123
16, 220800, Note_on_c, 7, 67, 0
16, 220800, Note_on_c, 7, 74, 123
16, 221040, Note_on_c, 7, 74, 0
16, 221040, Note_on_c, 7, 72, 123
16, 221280, Note_on_c, 7, 72, 0
16, 221280, Note_on_c, 7, 68, 123
16, 221520, Note_on_c, 7, 68, 0
16, 221520, Note_on_c, 7, 65, 123
16, 221760, Note_on_c, 7, 65, 0
16, 221760, Note_on_c, 7, 72, 123
16, 222000, Note_on_c, 7, 72, 0
16, 222000, Note_on_c, 7, 70, 123
16, 222240, Note_on_c, 7, 70, 0
16, 222240, Note_on_c, 7, 67, 123
16, 222480, Note_on_c, 7, 67, 0
16, 222480, Note_on_c, 7, 63, 123
16, 222720, Note_on_c, 7, 63, 0
16, 222720, Note_on_c, 7, 58, 123
16, 222960, Note_on_c, 7, 58, 0
16, 222960, Note_on_c, 7, 70, 123
16, 223200, Note_on_c, 7, 70, 0
16, 223200, Note_on_c, 7, 82, 123
16, 223440, Note_on_c, 7, 82, 0
16, 223440, Note_on_c, 7, 82, 123
16, 223680, Note_on_c, 7, 82, 0
16, 223680, Note_on_c, 7, 63, 123
16, 226800, Note_on_c, 7, 63, 0
16, 226800, Note_on_c, 7, 62, 123
16, 227040, Note_on_c, 7, 62, 0
16, 227040, Note_on_c, 7, 62, 123
16, 227280, Note_on_c, 7, 62, 0
16, 227280, Note_on_c, 7, 62, 123
16, 227520, Note_on_c, 7, 62, 0
16, 227520, Note_on_c, 7, 63, 123
16, 230640, Note_on_c, 7, 63, 0
16, 230640, Note_on_c, 7, 65, 123
16, 230640, Note_on_c, 7, 74, 123
16, 230880, Note_on_c, 7, 74, 0
16, 230880, Note_on_c, 7, 65, 0
16, 230880, Note_on_c, 7, 65, 123
16, 230880, Note_on_c, 7, 74, 123
16, 231120, Note_on_c, 7, 74, 0
16, 231120, Note_on_c, 7, 65, 0
16, 231120, Note_on_c, 7, 65, 123
16, 231120, Note_on_c, 7, 74, 123
16, 231360, Note_on_c, 7, 74, 0
16, 231360, Note_on_c, 7, 65, 0
16, 231360, Note_on_c, 7, 67, 123
16, 231360, Note_on_c, 7, 75, 123
16, 231840, Note_on_c, 7, 75, 0
16, 231840, Note_on_c, 7, 67, 0
16, 232560, Note_on_c, 7, 65, 123
16, 232560, Note_on_c, 7, 74, 123
16, 232800, Note_on_c, 7, 74, 0
16, 232800, Note_on_c, 7, 65, 0
16, 232800, Note_on_c, 7, 65, 123
16, 232800, Note_on_c, 7, 74, 123
16, 233040, Note_on_c, 7, 74, 0
16, 233040, Note_on_c, 7, 65, 0
16, 233040, Note_on_c, 7, 65, 123
16, 233040, Note_on_c, 7, 74, 123
16, 233280, Note_on_c, 7, 74, 0
16, 233280, Note_on_c, 7, 65, 0
16, 233280, Note_on_c, 7, 67, 123
16, 233280, Note_on_c, 7, 75, 123
16, 233760, Note_on_c, 7, 75, 0
16, 233760, Note_on_c, 7, 67, 0
16, 234480, Note_on_c, 7, 70, 123
16, 234480, Note_on_c, 7, 77, 123
16, 234720, Note_on_c, 7, 77, 0
16, 234720, Note_on_c, 7, 70, 0
16, 234720, Note_on_c, 7, 70, 123
16, 234720, Note_on_c, 7, 77, 123
16, 234960, Note_on_c, 7, 77, 0
16, 234960, Note_on_c, 7, 70, 0
16, 234960, Note_on_c, 7, 70, 123
16, 234960, Note_on_c, 7, 77, 123
16, 235200, Note_on_c, 7, 77, 0
16, 235200, Note_on_c, 7, 70, 0
16, 235200, Note_on_c, 7, 63, 123
16, 235200, Note_on_c, 7, 70, 123
16, 235200, Note_on_c, 7, 79, 123
16, 235680, Note_on_c, 7, 79, 0
16, 235680, Note_on_c, 7, 70, 0
16, 235680, Note_on_c, 7, 63, 0
16, 239280, Note_on_c, 7, 61, 123
16, 239520, Note_on_c, 7, 61, 0
16, 239520, Note_on_c, 7, 61, 123
16, 239760, Note_on_c, 7, 61, 0
16, 239760, Note_on_c, 7, 61, 123
16, 240000, Note_on_c, 7, 61, 0
16, 240000, Note_on_c, 7, 60, 123
16, 241920, Note_on_c, 7, 60, 0
16, 242160, Note_on_c, 7, 72, 91
16, 242400, Note_on_c, 7, 72, 0
16, 242400, Note_on_c, 7, 72, 91
16, 242640, Note_on_c, 7, 72, 0
16, 242640, Note_on_c, 7, 72, 91
16, 242880, Note_on_c, 7, 72, 0
16, 242880, Note_on_c, 7, 68, 91
16, 246000, Note_on_c, 7, 68, 0
16, 246000, Note_on_c, 7, 72, 91
16, 246240, Note_on_c, 7, 72, 0
16, 246240, Note_on_c, 7, 72, 91
16, 246480, Note_on_c, 7, 72, 0
16, 246480, Note_on_c, 7, 72, 91
16, 246720, Note_on_c, 7, 72, 0
16, 246720, Note_on_c, 7, 67, 91
16, 250560, Note_on_c, 7, 67, 0
16, 250560, Note_on_c, 7, 68, 91
16, 250800, Note_on_c, 7, 68, 0
16, 250800, Note_on_c, 7, 68, 91
16, 251040, Note_on_c, 7, 68, 0
16, 251040, Note_on_c, 7, 68, 91
16, 251280, Note_on_c, 7, 68, 0
16, 251280, Note_on_c, 7, 70, 91
16, 251520, Note_on_c, 7, 70, 0
16, 251520, Note_on_c, 7, 72, 91
16, 252720, Note_on_c, 7, 72, 0
16, 252720, Note_on_c, 7, 68, 91
16, 252960, Note_on_c, 7, 68, 0
16, 252960, Note_on_c, 7, 68, 91
16, 253200, Note_on_c, 7, 68, 0
16, 253200, Note_on_c, 7, 70, 91
16, 253440, Note_on_c, 7, 70, 0
16, 253440, Note_on_c, 7, 72, 91
16, 254880, Note_on_c, 7, 72, 0
16, 258480, Note_on_c, 7, 63, 91
16, 258720, Note_on_c, 7, 63, 0
16, 258720, Note_on_c, 7, 63, 91
16, 258960, Note_on_c, 7, 63, 0
16, 258960, Note_on_c, 7, 65, 91
16, 259200, Note_on_c, 7, 65, 0
16, 259200, Note_on_c, 7, 67, 91
16, 260400, Note_on_c, 7, 67, 0
16, 260400, Note_on_c, 7, 63, 91
16, 260640, Note_on_c, 7, 63, 0
16, 260640, Note_on_c, 7, 63, 91
16, 260880, Note_on_c, 7, 63, 0
16, 260880, Note_on_c, 7, 65, 91
16, 261120, Note_on_c, 7, 65, 0
16, 261120, Note_on_c, 7, 67, 91
16, 263040, Note_on_c, 7, 67, 0
16, 263040, Note_on_c, 7, 69, 91
16, 263520, Note_on_c, 7, 69, 0
16, 263520, Note_on_c, 7, 70, 91
16, 264000, Note_on_c, 7, 70, 0
16, 264000, Note_on_c, 7, 72, 91
16, 264480, Note_on_c, 7, 72, 0
16, 264480, Note_on_c, 7, 73, 91
16, 264960, Note_on_c, 7, 73, 0
16, 264960, Note_on_c, 7, 74, 91
16, 266160, Note_on_c, 7, 74, 0
16, 266160, Note_on_c, 7, 67, 91
16, 266400, Note_on_c, 7, 67, 0
16, 266400, Note_on_c, 7, 67, 91
16, 266640, Note_on_c, 7, 67, 0
16, 266640, Note_on_c, 7, 69, 91
16, 266880, Note_on_c, 7, 69, 0
16, 266880, Note_on_c, 7, 66, 91
16, 267360, Note_on_c, 7, 66, 0
16, 268080, Note_on_c, 7, 79, 91
16, 268320, Note_on_c, 7, 79, 0
16, 268320, Note_on_c, 7, 79, 91
16, 268560, Note_on_c, 7, 79, 0
16, 268560, Note_on_c, 7, 81, 91
16, 268800, Note_on_c, 7, 81, 0
16, 268800, Note_on_c, 7, 78, 91
16, 269280, Note_on_c, 7, 78, 0
16, 269280, Note_on_c, 7, 74, 91
16, 270000, Note_on_c, 7, 74, 0
16, 270000, Note_on_c, 7, 67, 91
16, 270240, Note_on_c, 7, 67, 0
16, 270240, Note_on_c, 7, 67, 91
16, 270480, Note_on_c, 7, 67, 0
16, 270480, Note_on_c, 7, 69, 91
16, 270720, Note_on_c, 7, 69, 0
16, 270720, Note_on_c, 7, 70, 91
16, 271200, Note_on_c, 7, 70, 0
16, 271920, Note_on_c, 7, 66, 91
16, 272160, Note_on_c, 7, 66, 0
16, 272160, Note_on_c, 7, 69, 91
16, 272400, Note_on_c, 7, 69, 0
16, 272400, Note_on_c, 7, 70, 91
16, 272640, Note_on_c, 7, 70, 0
16, 272640, Note_on_c, 7, 72, 91
16, 273120, Note_on_c, 7, 72, 0
16, 273840, Note_on_c, 7, 66, 91
16, 274080, Note_on_c, 7, 66, 0
16, 274080, Note_on_c, 7, 69, 91
16, 274320, Note_on_c, 7, 69, 0
16, 274320, Note_on_c, 7, 70, 91
16, 274560, Note_on_c, 7, 70, 0
16, 274560, Note_on_c, 7, 72, 91
16, 275040, Note_on_c, 7, 72, 0
16, 275760, Note_on_c, 7, 67, 91
16, 276000, Note_on_c, 7, 67, 0
16, 276000, Note_on_c, 7, 70, 91
16, 276240, Note_on_c, 7, 70, 0
16, 276240, Note_on_c, 7, 72, 91
16, 276480, Note_on_c, 7, 72, 0
16, 276480, Note_on_c, 7, 74, 91
16, 276960, Note_on_c, 7, 74, 0
16, 277680, Note_on_c, 7, 67, 91
16, 277920, Note_on_c, 7, 67, 0
16, 277920, Note_on_c, 7, 70, 91
16, 278160, Note_on_c, 7, 70, 0
16, 278160, Note_on_c, 7, 72, 101
16, 278400, Note_on_c, 7, 72, 0
16, 278400, Note_on_c, 7, 74, 101
16, 278640, Note_on_c, 7, 74, 0
16, 278640, Note_on_c, 7, 70, 109
16, 278880, Note_on_c, 7, 70, 0
16, 278880, Note_on_c, 7, 72, 109
16, 279120, Note_on_c, 7, 72, 0
16, 279120, Note_on_c, 7, 74, 109
16, 279360, Note_on_c, 7, 74, 0
16, 279360, Note_on_c, 7, 69, 115
16, 279600, Note_on_c, 7, 69, 0
16, 279600, Note_on_c, 7, 69, 115
16, 279600, Note_on_c, 7, 78, 115
16, 279840, Note_on_c, 7, 78, 0
16, 279840, Note_on_c, 7, 69, 0
16, 279840, Note_on_c, 7, 69, 115
16, 279840, Note_on_c, 7, 78, 115
16, 280080, Note_on_c, 7, 78, 0
16, 280080, Note_on_c, 7, 69, 0
16, 280080, Note_on_c, 7, 69, 115
16, 280080, Note_on_c, 7, 78, 115
16, 280320, Note_on_c, 7, 78, 0
16, 280320, Note_on_c, 7, 69, 0
16, 280320, Note_on_c, 7, 69, 115
16, 280320, Note_on_c, 7, 78, 115
16, 280560, Note_on_c, 7, 78, 0
16, 280560, Note_on_c, 7, 69, 0
16, 280560, Note_on_c, 7, 69, 115
16, 280560, Note_on_c, 7, 78, 115
16, 280800, Note_on_c, 7, 78, 0
16, 280800, Note_on_c, 7, 69, 0
16, 280800, Note_on_c, 7, 69, 115
16, 280800, Note_on_c, 7, 78, 115
16, 281040, Note_on_c, 7, 78, 0
16, 281040, Note_on_c, 7, 69, 0
16, 281040, Note_on_c, 7, 69, 115
16, 281040, Note_on_c, 7, 78, 115
16, 281280, Note_on_c, 7, 78, 0
16, 281280, Note_on_c, 7, 69, 0
16, 281280, Note_on_c, 7, 69, 115
16, 281280, Note_on_c, 7, 78, 115
16, 281760, Note_on_c, 7, 78, 0
16, 281760, Note_on_c, 7, 69, 0
16, 282480, Note_on_c, 7, 67, 115
16, 282480, Note_on_c, 7, 70, 115
16, 282720, Note_on_c, 7, 70, 0
16, 282720, Note_on_c, 7, 67, 0
16, 282720, Note_on_c, 7, 67, 115
16, 282720, Note_on_c, 7, 70, 115
16, 282960, Note_on_c, 7, 70, 0
16, 282960, Note_on_c, 7, 67, 0
16, 282960, Note_on_c, 7, 67, 115
16, 282960, Note_on_c, 7, 70, 115
16, 283200, Note_on_c, 7, 70, 0
16, 283200, Note_on_c, 7, 67, 0
16, 283200, Note_on_c, 7, 67, 115
16, 283200, Note_on_c, 7, 70, 115
16, 283440, Note_on_c, 7, 70, 0
16, 283440, Note_on_c, 7, 67, 0
16, 283440, Note_on_c, 7, 70, 115
16, 283440, Note_on_c, 7, 79, 115
16, 283680, Note_on_c, 7, 79, 0
16, 283680, Note_on_c, 7, 70, 0
16, 283680, Note_on_c, 7, 70, 115
16, 283680, Note_on_c, 7, 79, 115
16, 283920, Note_on_c, 7, 79, 0
16, 283920, Note_on_c, 7, 70, 0
16, 283920, Note_on_c, 7, 70, 115
16, 283920, Note_on_c, 7, 79, 115
16, 284160, Note_on_c, 7, 79, 0
16, 284160, Note_on_c, 7, 70, 0
16, 284160, Note_on_c, 7, 70, 115
16, 284160, Note_on_c, 7, 79, 115
16, 284400, Note_on_c, 7, 79, 0
16, 284400, Note_on_c, 7, 70, 0
16, 284400, Note_on_c, 7, 70, 115
16, 284400, Note_on_c, 7, 79, 115
16, 284640, Note_on_c, 7, 79, 0
16, 284640, Note_on_c, 7, 70, 0
16, 284640, Note_on_c, 7, 70, 115
16, 284640, Note_on_c, 7, 79, 115
16, 284880, Note_on_c, 7, 79, 0
16, 284880, Note_on_c, 7, 70, 0
16, 284880, Note_on_c, 7, 70, 115
16, 284880, Note_on_c, 7, 79, 115
16, 285120, Note_on_c, 7, 79, 0
16, 285120, Note_on_c, 7, 70, 0
16, 285120, Note_on_c, 7, 70, 115
16, 285120, Note_on_c, 7, 79, 115
16, 285600, Note_on_c, 7, 79, 0
16, 285600, Note_on_c, 7, 70, 0
16, 286320, Note_on_c, 7, 70, 115
16, 286320, Note_on_c, 7, 79, 115
16, 286560, Note_on_c, 7, 79, 0
16, 286560, Note_on_c, 7, 70, 0
16, 286560, Note_on_c, 7, 70, 115
16, 286560, Note_on_c, 7, 79, 115
16, 286800, Note_on_c, 7, 79, 0
16, 286800, Note_on_c, 7, 70, 0
16, 286800, Note_on_c, 7, 70, 115
16, 286800, Note_on_c, 7, 79, 115
16, 287040, Note_on_c, 7, 79, 0
16, 287040, Note_on_c, 7, 70, 0
16, 287040, Note_on_c, 7, 70, 115
16, 287040, Note_on_c, 7, 79, 115
16, 287520, Note_on_c, 7, 79, 0
16, 287520, Note_on_c, 7, 70, 0
16, 288480, Note_on_c, 7, 73, 115
16, 288720, Note_on_c, 7, 73, 0
16, 288720, Note_on_c, 7, 73, 115
16, 288960, Note_on_c, 7, 73, 0
16, 288960, Note_on_c, 7, 73, 115
16, 289440, Note_on_c, 7, 73, 0
16, 289440, Note_on_c, 7, 74, 115
16, 289680, Note_on_c, 7, 74, 0
16, 289680, Note_on_c, 7, 74, 115
16, 289920, Note_on_c, 7, 74, 0
16, 289920, Note_on_c, 7, 74, 115
16, 290160, Note_on_c, 7, 74, 0
16, 290160, Note_on_c, 7, 74, 123
16, 290400, Note_on_c, 7, 74, 0
16, 290400, Note_on_c, 7, 74, 123
16, 290640, Note_on_c, 7, 74, 0
16, 290640, Note_on_c, 7, 74, 123
16, 290880, Note_on_c, 7, 74, 0
16, 290880, Note_on_c, 7, 67, 123
16, 291840, Note_on_c, 7, 67, 0
16, 291840, Note_on_c, 7, 69, 123
16, 292800, Note_on_c, 7, 69, 0
16, 292800, Note_on_c, 7, 62, 123
16, 296160, Note_on_c, 7, 62, 0
16, 296160, Note_on_c, 7, 66, 123
16, 296400, Note_on_c, 7, 66, 0
16, 296400, Note_on_c, 7, 66, 123
16, 296640, Note_on_c, 7, 66, 0
16, 296640, Note_on_c, 7, 69, 123
16, 297120, Note_on_c, 7, 69, 0
16, 297120, Note_on_c, 7, 74, 123
16, 297360, Note_on_c, 7, 74, 0
16, 297360, Note_on_c, 7, 74, 123
16, 297600, Note_on_c, 7, 74, 0
16, 297600, Note_on_c, 7, 71, 123
16, 297840, Note_on_c, 7, 71, 0
16, 297840, Note_on_c, 7, 67, 123
16, 298080, Note_on_c, 7, 67, 0
16, 298080, Note_on_c, 7, 67, 123
16, 298320, Note_on_c, 7, 67, 0
16, 298320, Note_on_c, 7, 67, 123
16, 298560, Note_on_c, 7, 67, 0
16, 298560, Note_on_c, 7, 60, 123
16, 299520, Note_on_c, 7, 60, 0
16, 299520, Note_on_c, 7, 62, 123
16, 300480, Note_on_c, 7, 62, 0
16, 300480, Note_on_c, 7, 55, 123
16, 303840, Note_on_c, 7, 55, 0
16, 303840, Note_on_c, 7, 59, 123
16, 304080, Note_on_c, 7, 59, 0
16, 304080, Note_on_c, 7, 59, 123
16, 304320, Note_on_c, 7, 59, 0
16, 304320, Note_on_c, 7, 62, 123
16, 304800, Note_on_c, 7, 62, 0
16, 304800, Note_on_c, 7, 67, 123
16, 305040, Note_on_c, 7, 67, 0
16, 305040, Note_on_c, 7, 67, 123
16, 305280, Note_on_c, 7, 67, 0
16, 305280, Note_on_c, 7, 64, 123
16, 305760, Note_on_c, 7, 64, 0
16, 308160, Note_on_c, 7, 58, 123
16, 309120, Note_on_c, 7, 58, 0
16, 309120, Note_on_c, 7, 60, 123
16, 310080, Note_on_c, 7, 60, 0
16, 312000, Note_on_c, 7, 58, 123
16, 312960, Note_on_c, 7, 58, 0
16, 312960, Note_on_c, 7, 60, 123
16, 313920, Note_on_c, 7, 60, 0
16, 315840, Note_on_c, 7, 61, 123
16, 316800, Note_on_c, 7, 61, 0
16, 316800, Note_on_c, 7, 57, 123
16, 317760, Note_on_c, 7, 57, 0
16, 319680, Note_on_c, 7, 65, 123
16, 320640, Note_on_c, 7, 65, 0
16, 321600, Note_on_c, 7, 59, 115
16, 322560, Note_on_c, 7, 59, 0
16, 323520, Note_on_c, 7, 56, 109
16, 324480, Note_on_c, 7, 56, 0
16, 325440, Note_on_c, 7, 57, 101
16, 326400, Note_on_c, 7, 57, 0
16, 327360, Note_on_c, 7, 57, 91
16, 328320, Note_on_c, 7, 57, 0
16, 329280, Note_on_c, 7, 57, 91
16, 330240, Note_on_c, 7, 57, 0
16, 331200, Note_on_c, 7, 57, 78
16, 332160, Note_on_c, 7, 57, 0
16, 333120, Note_on_c, 7, 57, 78
16, 334080, Note_on_c, 7, 57, 0
16, 335040, Note_on_c, 7, 57, 78
16, 336000, Note_on_c, 7, 57, 0
16, 336960, Note_on_c, 7, 57, 123
16, 337200, Note_on_c, 7, 57, 0
16, 337200, Note_on_c, 7, 62, 123
16, 337440, Note_on_c, 7, 62, 0
16, 337440, Note_on_c, 7, 62, 123
16, 337680, Note_on_c, 7, 62, 0
16, 337680, Note_on_c, 7, 62, 123
16, 337920, Note_on_c, 7, 62, 0
16, 337920, Note_on_c, 7, 59, 123
16, 338880, Note_on_c, 7, 59, 0
16, 338880, Note_on_c, 7, 60, 123
16, 339840, Note_on_c, 7, 60, 0
16, 339840, Note_on_c, 7, 57, 123
16, 341760, Note_on_c, 7, 57, 0
16, 342720, Note_on_c, 7, 56, 78
16, 343680, Note_on_c, 7, 56, 0
16, 344640, Note_on_c, 7, 56, 78
16, 345600, Note_on_c, 7, 56, 0
16, 346560, Note_on_c, 7, 56, 78
16, 347520, Note_on_c, 7, 56, 0
16, 348480, Note_on_c, 7, 56, 115
16, 348960, Note_on_c, 7, 56, 0
16, 349680, Note_on_c, 7, 68, 123
16, 349920, Note_on_c, 7, 68, 0
16, 349920, Note_on_c, 7, 68, 123
16, 350160, Note_on_c, 7, 68, 0
16, 350160, Note_on_c, 7, 68, 123
16, 350400, Note_on_c, 7, 68, 0
16, 350400, Note_on_c, 7, 65, 123
16, 351600, Note_on_c, 7, 65, 0
16, 351600, Note_on_c, 7, 68, 123
16, 351840, Note_on_c, 7, 68, 0
16, 351840, Note_on_c, 7, 68, 123
16, 352080, Note_on_c, 7, 68, 0
16, 352080, Note_on_c, 7, 68, 123
16, 352320, Note_on_c, 7, 68, 0
16, 352320, Note_on_c, 7, 65, 123
16, 353520, Note_on_c, 7, 65, 0
16, 353520, Note_on_c, 7, 68, 123
16, 353760, Note_on_c, 7, 68, 0
16, 353760, Note_on_c, 7, 68, 123
16, 354000, Note_on_c, 7, 68, 0
16, 354000, Note_on_c, 7, 68, 123
16, 354240, Note_on_c, 7, 68, 0
16, 354240, Note_on_c, 7, 65, 123
16, 354480, Note_on_c, 7, 65, 0
16, 354480, Note_on_c, 7, 68, 123
16, 354720, Note_on_c, 7, 68, 0
16, 354720, Note_on_c, 7, 68, 123
16, 354960, Note_on_c, 7, 68, 0
16, 354960, Note_on_c, 7, 68, 123
16, 355200, Note_on_c, 7, 68, 0
16, 355200, Note_on_c, 7, 65, 123
16, 355440, Note_on_c, 7, 65, 0
16, 355440, Note_on_c, 7, 68, 123
16, 355680, Note_on_c, 7, 68, 0
16, 355680, Note_on_c, 7, 68, 123
16, 355920, Note_on_c, 7, 68, 0
16, 355920, Note_on_c, 7, 68, 123
16, 356160, Note_on_c, 7, 68, 0
16, 356160, Note_on_c, 7, 65, 123
16, 356400, Note_on_c, 7, 65, 0
16, 356400, Note_on_c, 7, 67, 123
16, 356640, Note_on_c, 7, 67, 0
16, 356640, Note_on_c, 7, 67, 123
16, 356880, Note_on_c, 7, 67, 0
16, 356880, Note_on_c, 7, 67, 123
16, 357120, Note_on_c, 7, 67, 0
16, 357120, Note_on_c, 7, 63, 123
16, 358080, Note_on_c, 7, 63, 0
16, 358320, Note_on_c, 7, 65, 123
16, 358560, Note_on_c, 7, 65, 0
16, 358560, Note_on_c, 7, 65, 123
16, 358800, Note_on_c, 7, 65, 0
16, 358800, Note_on_c, 7, 65, 123
16, 359040, Note_on_c, 7, 65, 0
16, 359040, Note_on_c, 7, 62, 123
16, 360960, Note_on_c, 7, 62, 0
16, 361200, Note_on_c, 7, 67, 91
16, 361440, Note_on_c, 7, 67, 0
16, 361440, Note_on_c, 7, 67, 91
16, 361680, Note_on_c, 7, 67, 0
16, 361680, Note_on_c, 7, 67, 91
16, 361920, Note_on_c, 7, 67, 0
16, 361920, Note_on_c, 7, 63, 91
16, 364320, Note_on_c, 7, 63, 0
16, 365040, Note_on_c, 7, 67, 91
16, 365280, Note_on_c, 7, 67, 0
16, 365280, Note_on_c, 7, 67, 91
16, 365520, Note_on_c, 7, 67, 0
16, 365520, Note_on_c, 7, 67, 91
16, 365760, Note_on_c, 7, 67, 0
16, 365760, Note_on_c, 7, 62, 91
16, 368160, Note_on_c, 7, 62, 0
16, 369840, Note_on_c, 7, 63, 91
16, 370080, Note_on_c, 7, 63, 0
16, 370080, Note_on_c, 7, 63, 91
16, 370320, Note_on_c, 7, 63, 0
16, 370320, Note_on_c, 7, 65, 91
16, 370560, Note_on_c, 7, 65, 0
16, 370560, Note_on_c, 7, 67, 91
16, 371760, Note_on_c, 7, 67, 0
16, 371760, Note_on_c, 7, 63, 91
16, 372000, Note_on_c, 7, 63, 0
16, 372000, Note_on_c, 7, 63, 91
16, 372240, Note_on_c, 7, 63, 0
16, 372240, Note_on_c, 7, 65, 91
16, 372480, Note_on_c, 7, 65, 0
16, 372480, Note_on_c, 7, 67, 91
16, 372720, Note_on_c, 7, 67, 0
16, 372720, Note_on_c, 7, 59, 91
16, 372960, Note_on_c, 7, 59, 0
16, 372960, Note_on_c, 7, 60, 91
16, 373200, Note_on_c, 7, 60, 0
16, 373200, Note_on_c, 7, 62, 91
16, 373440, Note_on_c, 7, 62, 0
16, 373440, Note_on_c, 7, 63, 91
16, 373920, Note_on_c, 7, 63, 0
16, 374400, Note_on_c, 7, 56, 91
16, 374400, Note_on_c, 7, 66, 91
16, 374400, Note_on_c, 7, 72, 91
16, 374880, Note_on_c, 7, 72, 0
16, 374880, Note_on_c, 7, 66, 0
16, 374880, Note_on_c, 7, 56, 0
16, 375360, Note_on_c, 7, 55, 123
16, 375360, Note_on_c, 7, 62, 123
16, 375360, Note_on_c, 7, 71, 123
16, 375360, Note_on_c, 7, 79, 123
16, 375840, Note_on_c, 7, 79, 0
16, 375840, Note_on_c, 7, 55, 0
16, 375840, Note_on_c, 7, 62, 0
16, 375840, Note_on_c, 7, 71, 0
16, 381360, Note_on_c, 7, 62, 91
16, 381600, Note_on_c, 7, 62, 0
16, 381600, Note_on_c, 7, 62, 91
16, 381840, Note_on_c, 7, 62, 0
16, 381840, Note_on_c, 7, 62, 91
16, 382080, Note_on_c, 7, 62, 0
16, 382080, Note_on_c, 7, 59, 91
16, 384000, Note_on_c, 7, 59, 0
16, 384000, Note_on_c, 7, 60, 91
16, 384240, Note_on_c, 7, 60, 0
16, 384240, Note_on_c, 7, 68, 91
16, 384480, Note_on_c, 7, 68, 0
16, 384480, Note_on_c, 7, 68, 91
16, 384720, Note_on_c, 7, 68, 0
16, 384720, Note_on_c, 7, 68, 91
16, 384960, Note_on_c, 7, 68, 0
16, 384960, Note_on_c, 7, 65, 101
16, 385200, Note_on_c, 7, 65, 0
16, 385200, Note_on_c, 7, 62, 101
16, 385440, Note_on_c, 7, 62, 0
16, 385440, Note_on_c, 7, 62, 101
16, 385680, Note_on_c, 7, 62, 0
16, 385680, Note_on_c, 7, 62, 101
16, 385920, Note_on_c, 7, 62, 0
16, 385920, Note_on_c, 7, 59, 101
16, 386160, Note_on_c, 7, 59, 0
16, 386160, Note_on_c, 7, 56, 101
16, 386400, Note_on_c, 7, 56, 0
16, 386400, Note_on_c, 7, 56, 109
16, 386640, Note_on_c, 7, 56, 0
16, 386640, Note_on_c, 7, 56, 109
16, 386880, Note_on_c, 7, 56, 0
16, 386880, Note_on_c, 7, 55, 109
16, 387120, Note_on_c, 7, 55, 0
16, 387120, Note_on_c, 7, 62, 109
16, 387360, Note_on_c, 7, 62, 0
16, 387360, Note_on_c, 7, 62, 109
16, 387600, Note_on_c, 7, 62, 0
16, 387600, Note_on_c, 7, 62, 109
16, 387840, Note_on_c, 7, 62, 0
16, 387840, Note_on_c, 7, 63, 115
16, 388080, Note_on_c, 7, 63, 0
16, 388080, Note_on_c, 7, 63, 115
16, 388320, Note_on_c, 7, 63, 0
16, 388320, Note_on_c, 7, 67, 115
16, 388560, Note_on_c, 7, 67, 0
16, 388560, Note_on_c, 7, 67, 115
16, 388800, Note_on_c, 7, 67, 0
16, 388800, Note_on_c, 7, 65, 115
16, 390000, Note_on_c, 7, 65, 0
16, 390000, Note_on_c, 7, 68, 115
16, 390240, Note_on_c, 7, 68, 0
16, 390240, Note_on_c, 7, 68, 115
16, 390480, Note_on_c, 7, 68, 0
16, 390480, Note_on_c, 7, 65, 115
16, 390720, Note_on_c, 7, 65, 0
16, 390720, Note_on_c, 7, 67, 115
16, 391920, Note_on_c, 7, 67, 0
16, 391920, Note_on_c, 7, 67, 115
16, 392160, Note_on_c, 7, 67, 0
16, 392160, Note_on_c, 7, 67, 115
16, 392400, Note_on_c, 7, 67, 0
16, 392400, Note_on_c, 7, 63, 115
16, 392640, Note_on_c, 7, 63, 0
16, 392640, Note_on_c, 7, 68, 115
16, 392880, Note_on_c, 7, 68, 0
16, 392880, Note_on_c, 7, 68, 115
16, 393120, Note_on_c, 7, 68, 0
16, 393120, Note_on_c, 7, 68, 115
16, 393360, Note_on_c, 7, 68, 0
16, 393360, Note_on_c, 7, 65, 115
16, 393600, Note_on_c, 7, 65, 0
16, 393600, Note_on_c, 7, 70, 115
16, 393840, Note_on_c, 7, 70, 0
16, 393840, Note_on_c, 7, 70, 115
16, 394080, Note_on_c, 7, 70, 0
16, 394080, Note_on_c, 7, 70, 115
16, 394320, Note_on_c, 7, 70, 0
16, 394320, Note_on_c, 7, 67, 115
16, 394560, Note_on_c, 7, 67, 0
16, 394560, Note_on_c, 7, 72, 115
16, 394800, Note_on_c, 7, 72, 0
16, 394800, Note_on_c, 7, 60, 115
16, 395040, Note_on_c, 7, 60, 0
16, 395040, Note_on_c, 7, 60, 115
16, 395280, Note_on_c, 7, 60, 0
16, 395280, Note_on_c, 7, 56, 115
16, 395520, Note_on_c, 7, 56, 0
16, 395520, Note_on_c, 7, 64, 115
16, 395760, Note_on_c, 7, 64, 0
16, 395760, Note_on_c, 7, 64, 115
16, 396000, Note_on_c, 7, 64, 0
16, 396000, Note_on_c, 7, 64, 115
16, 396240, Note_on_c, 7, 64, 0
16, 396240, Note_on_c, 7, 58, 115
16, 396480, Note_on_c, 7, 58, 0
16, 396480, Note_on_c, 7, 65, 115
16, 396720, Note_on_c, 7, 65, 0
16, 396720, Note_on_c, 7, 65, 115
16, 396960, Note_on_c, 7, 65, 0
16, 396960, Note_on_c, 7, 65, 115
16, 397200, Note_on_c, 7, 65, 0
16, 397200, Note_on_c, 7, 60, 115
16, 397440, Note_on_c, 7, 60, 0
16, 397440, Note_on_c, 7, 68, 115
16, 397680, Note_on_c, 7, 68, 0
16, 397680, Note_on_c, 7, 68, 115
16, 397920, Note_on_c, 7, 68, 0
16, 397920, Note_on_c, 7, 68, 115
16, 398160, Note_on_c, 7, 68, 0
16, 398160, Note_on_c, 7, 65, 115
16, 398400, Note_on_c, 7, 65, 0
16, 398400, Note_on_c, 7, 67, 123
16, 398640, Note_on_c, 7, 67, 0
16, 398640, Note_on_c, 7, 63, 123
16, 398640, Note_on_c, 7, 72, 123
16, 398880, Note_on_c, 7, 72, 0
16, 398880, Note_on_c, 7, 63, 0
16, 398880, Note_on_c, 7, 63, 123
16, 398880, Note_on_c, 7, 72, 123
16, 399120, Note_on_c, 7, 72, 0
16, 399120, Note_on_c, 7, 63, 0
16, 399120, Note_on_c, 7, 63, 123
16, 399120, Note_on_c, 7, 72, 123
16, 399360, Note_on_c, 7, 72, 0
16, 399360, Note_on_c, 7, 63, 0
16, 399360, Note_on_c, 7, 63, 123
16, 399360, Note_on_c, 7, 72, 123
16, 399600, Note_on_c, 7, 72, 0
16, 399600, Note_on_c, 7, 63, 0
16, 399600, Note_on_c, 7, 63, 123
16, 399600, Note_on_c, 7, 72, 123
16, 399840, Note_on_c, 7, 72, 0
16, 399840, Note_on_c, 7, 63, 0
16, 399840, Note_on_c, 7, 63, 123
16, 399840, Note_on_c, 7, 72, 123
16, 400080, Note_on_c, 7, 72, 0
16, 400080, Note_on_c, 7, 63, 0
16, 400080, Note_on_c, 7, 63, 123
16, 400080, Note_on_c, 7, 72, 123
16, 400320, Note_on_c, 7, 72, 0
16, 400320, Note_on_c, 7, 63, 0
16, 400320, Note_on_c, 7, 63, 123
16, 400320, Note_on_c, 7, 72, 123
16, 400560, Note_on_c, 7, 72, 0
16, 400560, Note_on_c, 7, 63, 0
16, 400560, Note_on_c, 7, 63, 123
16, 400560, Note_on_c, 7, 72, 123
16, 400800, Note_on_c, 7, 72, 0
16, 400800, Note_on_c, 7, 63, 0
16, 400800, Note_on_c, 7, 63, 123
16, 400800, Note_on_c, 7, 72, 123
16, 401040, Note_on_c, 7, 72, 0
16, 401040, Note_on_c, 7, 63, 0
16, 401040, Note_on_c, 7, 63, 123
16, 401040, Note_on_c, 7, 72, 123
16, 401280, Note_on_c, 7, 72, 0
16, 401280, Note_on_c, 7, 63, 0
16, 401280, Note_on_c, 7, 63, 123
16, 401280, Note_on_c, 7, 72, 123
16, 401520, Note_on_c, 7, 72, 0
16, 401520, Note_on_c, 7, 63, 0
16, 401520, Note_on_c, 7, 63, 123
16, 401520, Note_on_c, 7, 72, 123
16, 401760, Note_on_c, 7, 72, 0
16, 401760, Note_on_c, 7, 63, 0
16, 401760, Note_on_c, 7, 63, 123
16, 401760, Note_on_c, 7, 72, 123
16, 402000, Note_on_c, 7, 72, 0
16, 402000, Note_on_c, 7, 63, 0
16, 402000, Note_on_c, 7, 63, 123
16, 402000, Note_on_c, 7, 72, 123
16, 402240, Note_on_c, 7, 72, 0
16, 402240, Note_on_c, 7, 63, 0
16, 402240, Note_on_c, 7, 62, 123
16, 402240, Note_on_c, 7, 71, 123
16, 402480, Note_on_c, 7, 71, 0
16, 402480, Note_on_c, 7, 62, 0
16, 402480, Note_on_c, 7, 77, 123
16, 402720, Note_on_c, 7, 77, 0
16, 402720, Note_on_c, 7, 74, 123
16, 402960, Note_on_c, 7, 74, 0
16, 402960, Note_on_c, 7, 74, 123
16, 403200, Note_on_c, 7, 74, 0
16, 403200, Note_on_c, 7, 71, 123
16, 403440, Note_on_c, 7, 71, 0
16, 403440, Note_on_c, 7, 67, 123
16, 403680, Note_on_c, 7, 67, 0
16, 403680, Note_on_c, 7, 65, 123
16, 403920, Note_on_c, 7, 65, 0
16, 403920, Note_on_c, 7, 65, 123
16, 404160, Note_on_c, 7, 65, 0
16, 404160, Note_on_c, 7, 62, 123
16, 404400, Note_on_c, 7, 62, 0
16, 404400, Note_on_c, 7, 59, 123
16, 404640, Note_on_c, 7, 59, 0
16, 404640, Note_on_c, 7, 55, 123
16, 404880, Note_on_c, 7, 55, 0
16, 404880, Note_on_c, 7, 65, 123
16, 405120, Note_on_c, 7, 65, 0
16, 405120, Note_on_c, 7, 62, 123
16, 405360, Note_on_c, 7, 62, 0
16, 405360, Note_on_c, 7, 59, 123
16, 405600, Note_on_c, 7, 59, 0
16, 405600, Note_on_c, 7, 60, 123
16, 405840, Note_on_c, 7, 60, 0
16, 405840, Note_on_c, 7, 60, 123
16, 406080, Note_on_c, 7, 60, 0
16, 406080, Note_on_c, 7, 72, 123
16, 406320, Note_on_c, 7, 72, 0
16, 406320, Note_on_c, 7, 87, 123
16, 406560, Note_on_c, 7, 87, 0
16, 406560, Note_on_c, 7, 87, 123
16, 406800, Note_on_c, 7, 87, 0
16, 406800, Note_on_c, 7, 87, 123
16, 407040, Note_on_c, 7, 87, 0
16, 407040, Note_on_c, 7, 84, 123
16, 407280, Note_on_c, 7, 84, 0
16, 407280, Note_on_c, 7, 81, 123
16, 407520, Note_on_c, 7, 81, 0
16, 407520, Note_on_c, 7, 81, 123
16, 407760, Note_on_c, 7, 81, 0
16, 407760, Note_on_c, 7, 81, 123
16, 408000, Note_on_c, 7, 81, 0
16, 408000, Note_on_c, 7, 78, 123
16, 408240, Note_on_c, 7, 78, 0
16, 408240, Note_on_c, 7, 75, 123
16, 408480, Note_on_c, 7, 75, 0
16, 408480, Note_on_c, 7, 75, 123
16, 408720, Note_on_c, 7, 75, 0
16, 408720, Note_on_c, 7, 75, 123
16, 408960, Note_on_c, 7, 75, 0
16, 408960, Note_on_c, 7, 72, 123
16, 409200, Note_on_c, 7, 72, 0
16, 409200, Note_on_c, 7, 69, 123
16, 409440, Note_on_c, 7, 69, 0
16, 409440, Note_on_c, 7, 69, 123
16, 409680, Note_on_c, 7, 69, 0
16, 409680, Note_on_c, 7, 69, 123
16, 409920, Note_on_c, 7, 69, 0
16, 409920, Note_on_c, 7, 57, 123
16, 410400, Note_on_c, 7, 57, 0
16, 411840, Note_on_c, 7, 55, 123
16, 411840, Note_on_c, 7, 67, 123
16, 412320, Note_on_c, 7, 67, 0
16, 412320, Note_on_c, 7, 55, 0
16, 416640, Note_on_c, 7, 64, 91
16, 417600, Note_on_c, 7, 64, 0
16, 417600, Note_on_c, 7, 65, 91
16, 418560, Note_on_c, 7, 65, 0
16, 418560, Note_on_c, 7, 65, 91
16, 419520, Note_on_c, 7, 65, 0
16, 419520, Note_on_c, 7, 64, 91
16, 420480, Note_on_c, 7, 64, 0
16, 424320, Note_on_c, 7, 64, 91
16, 425280, Note_on_c, 7, 64, 0
16, 425280, Note_on_c, 7, 65, 91
16, 426240, Note_on_c, 7, 65, 0
16, 426240, Note_on_c, 7, 65, 91
16, 427200, Note_on_c, 7, 65, 0
16, 427200, Note_on_c, 7, 64, 91
16, 428160, Note_on_c, 7, 64, 0
16, 432000, Note_on_c, 7, 70, 91
16, 432960, Note_on_c, 7, 70, 0
16, 432960, Note_on_c, 7, 67, 91
16, 433920, Note_on_c, 7, 67, 0
16, 433920, Note_on_c, 7, 67, 91
16, 434880, Note_on_c, 7, 67, 0
16, 434880, Note_on_c, 7, 65, 91
16, 435840, Note_on_c, 7, 65, 0
16, 435840, Note_on_c, 7, 69, 91
16, 437760, Note_on_c, 7, 69, 0
16, 437760, Note_on_c, 7, 69, 91
16, 438720, Note_on_c, 7, 69, 0
16, 438720, Note_on_c, 7, 67, 91
16, 439680, Note_on_c, 7, 67, 0
16, 439680, Note_on_c, 7, 65, 91
16, 440160, Note_on_c, 7, 65, 0
16, 440160, Note_on_c, 7, 67, 91
16, 440640, Note_on_c, 7, 67, 0
16, 440640, Note_on_c, 7, 68, 91
16, 441120, Note_on_c, 7, 68, 0
16, 441120, Note_on_c, 7, 67, 91
16, 441600, Note_on_c, 7, 67, 0
16, 441600, Note_on_c, 7, 65, 91
16, 442080, Note_on_c, 7, 65, 0
16, 442080, Note_on_c, 7, 67, 91
16, 442560, Note_on_c, 7, 67, 0
16, 442560, Note_on_c, 7, 68, 101
16, 443040, Note_on_c, 7, 68, 0
16, 443040, Note_on_c, 7, 67, 101
16, 443520, Note_on_c, 7, 67, 0
16, 443520, Note_on_c, 7, 65, 101
16, 444000, Note_on_c, 7, 65, 0
16, 444000, Note_on_c, 7, 67, 101
16, 444480, Note_on_c, 7, 67, 0
16, 444480, Note_on_c, 7, 68, 101
16, 444960, Note_on_c, 7, 68, 0
16, 444960, Note_on_c, 7, 67, 101
16, 445440, Note_on_c, 7, 67, 0
16, 445440, Note_on_c, 7, 65, 101
16, 445920, Note_on_c, 7, 65, 0
16, 445920, Note_on_c, 7, 67, 101
16, 446400, Note_on_c, 7, 67, 0
16, 446400, Note_on_c, 7, 68, 109
16, 446880, Note_on_c, 7, 68, 0
16, 446880, Note_on_c, 7, 67, 109
16, 447360, Note_on_c, 7, 67, 0
16, 447360, Note_on_c, 7, 66, 109
16, 447840, Note_on_c, 7, 66, 0
16, 447840, Note_on_c, 7, 67, 109
16, 448320, Note_on_c, 7, 67, 0
16, 448320, Note_on_c, 7, 69, 109
16, 448800, Note_on_c, 7, 69, 0
16, 448800, Note_on_c, 7, 67, 109
16, 449280, Note_on_c, 7, 67, 0
16, 449280, Note_on_c, 7, 66, 109
16, 449760, Note_on_c, 7, 66, 0
16, 449760, Note_on_c, 7, 67, 109
16, 450240, Note_on_c, 7, 67, 0
16, 450240, Note_on_c, 7, 69, 115
16, 450720, Note_on_c, 7, 69, 0
16, 450720, Note_on_c, 7, 67, 115
16, 451200, Note_on_c, 7, 67, 0
16, 451200, Note_on_c, 7, 66, 115
16, 451680, Note_on_c, 7, 66, 0
16, 451680, Note_on_c, 7, 67, 115
16, 452160, Note_on_c, 7, 67, 0
16, 452160, Note_on_c, 7, 66, 115
16, 452640, Note_on_c, 7, 66, 0
16, 452640, Note_on_c, 7, 67, 115
16, 453120, Note_on_c, 7, 67, 0
16, 453120, Note_on_c, 7, 66, 115
16, 453600, Note_on_c, 7, 66, 0
16, 453600, Note_on_c, 7, 67, 115
16, 454080, Note_on_c, 7, 67, 0
16, 454080, Note_on_c, 7, 79, 123
16, 455280, Note_on_c, 7, 79, 0
16, 455280, Note_on_c, 7, 81, 123
16, 455520, Note_on_c, 7, 81, 0
16, 455520, Note_on_c, 7, 79, 123
16, 455760, Note_on_c, 7, 79, 0
16, 455760, Note_on_c, 7, 77, 123
16, 456000, Note_on_c, 7, 77, 0
16, 456000, Note_on_c, 7, 77, 123
16, 456240, Note_on_c, 7, 77, 0
16, 456240, Note_on_c, 7, 76, 123
16, 456480, Note_on_c, 7, 76, 0
16, 456480, Note_on_c, 7, 74, 123
16, 456720, Note_on_c, 7, 74, 0
16, 456720, Note_on_c, 7, 72, 123
16, 456960, Note_on_c, 7, 72, 0
16, 456960, Note_on_c, 7, 72, 123
16, 457200, Note_on_c, 7, 72, 0
16, 457200, Note_on_c, 7, 71, 123
16, 457440, Note_on_c, 7, 71, 0
16, 457440, Note_on_c, 7, 69, 123
16, 457680, Note_on_c, 7, 69, 0
16, 457680, Note_on_c, 7, 71, 123
16, 457920, Note_on_c, 7, 71, 0
16, 457920, Note_on_c, 7, 74, 123
16, 458160, Note_on_c, 7, 74, 0
16, 458160, Note_on_c, 7, 72, 123
16, 458400, Note_on_c, 7, 72, 0
16, 458400, Note_on_c, 7, 67, 123
16, 458640, Note_on_c, 7, 67, 0
16, 458640, Note_on_c, 7, 64, 123
16, 458880, Note_on_c, 7, 64, 0
16, 458880, Note_on_c, 7, 71, 123
16, 459120, Note_on_c, 7, 71, 0
16, 459120, Note_on_c, 7, 69, 123
16, 459360, Note_on_c, 7, 69, 0
16, 459360, Note_on_c, 7, 65, 123
16, 459600, Note_on_c, 7, 65, 0
16, 459600, Note_on_c, 7, 62, 123
16, 459840, Note_on_c, 7, 62, 0
16, 459840, Note_on_c, 7, 55, 123
16, 460080, Note_on_c, 7, 55, 0
16, 460080, Note_on_c, 7, 55, 123
16, 460320, Note_on_c, 7, 55, 0
16, 460320, Note_on_c, 7, 60, 123
16, 460560, Note_on_c, 7, 60, 0
16, 460560, Note_on_c, 7, 60, 123
16, 460800, Note_on_c, 7, 60, 0
16, 460800, Note_on_c, 7, 59, 123
16, 461040, Note_on_c, 7, 59, 0
16, 461040, Note_on_c, 7, 66, 123
16, 461280, Note_on_c, 7, 66, 0
16, 461280, Note_on_c, 7, 67, 123
16, 461520, Note_on_c, 7, 67, 0
16, 461520, Note_on_c, 7, 66, 123
16, 461760, Note_on_c, 7, 66, 0
16, 461760, Note_on_c, 7, 67, 123
16, 462000, Note_on_c, 7, 67, 0
16, 462000, Note_on_c, 7, 66, 123
16, 462240, Note_on_c, 7, 66, 0
16, 462240, Note_on_c, 7, 67, 123
16, 462480, Note_on_c, 7, 67, 0
16, 462480, Note_on_c, 7, 66, 123
16, 462720, Note_on_c, 7, 66, 0
16, 462720, Note_on_c, 7, 67, 123
16, 462960, Note_on_c, 7, 67, 0
16, 462960, Note_on_c, 7, 81, 123
16, 463200, Note_on_c, 7, 81, 0
16, 463200, Note_on_c, 7, 79, 123
16, 463440, Note_on_c, 7, 79, 0
16, 463440, Note_on_c, 7, 77, 123
16, 463680, Note_on_c, 7, 77, 0
16, 463680, Note_on_c, 7, 77, 123
16, 463920, Note_on_c, 7, 77, 0
16, 463920, Note_on_c, 7, 76, 123
16, 464160, Note_on_c, 7, 76, 0
16, 464160, Note_on_c, 7, 74, 123
16, 464400, Note_on_c, 7, 74, 0
16, 464400, Note_on_c, 7, 72, 123
16, 464640, Note_on_c, 7, 72, 0
16, 464640, Note_on_c, 7, 72, 123
16, 464880, Note_on_c, 7, 72, 0
16, 464880, Note_on_c, 7, 71, 123
16, 465120, Note_on_c, 7, 71, 0
16, 465120, Note_on_c, 7, 69, 123
16, 465360, Note_on_c, 7, 69, 0
16, 465360, Note_on_c, 7, 71, 123
16, 465600, Note_on_c, 7, 71, 0
16, 465600, Note_on_c, 7, 74, 123
16, 465840, Note_on_c, 7, 74, 0
16, 465840, Note_on_c, 7, 72, 123
16, 466080, Note_on_c, 7, 72, 0
16, 466080, Note_on_c, 7, 67, 123
16, 466320, Note_on_c, 7, 67, 0
16, 466320, Note_on_c, 7, 64, 123
16, 466560, Note_on_c, 7, 64, 0
16, 466560, Note_on_c, 7, 71, 123
16, 466800, Note_on_c, 7, 71, 0
16, 466800, Note_on_c, 7, 69, 123
16, 467040, Note_on_c, 7, 69, 0
16, 467040, Note_on_c, 7, 65, 123
16, 467280, Note_on_c, 7, 65, 0
16, 467280, Note_on_c, 7, 62, 123
16, 467520, Note_on_c, 7, 62, 0
16, 467520, Note_on_c, 7, 69, 123
16, 467760, Note_on_c, 7, 69, 0
16, 467760, Note_on_c, 7, 67, 123
16, 468000, Note_on_c, 7, 67, 0
16, 468000, Note_on_c, 7, 64, 123
16, 468240, Note_on_c, 7, 64, 0
16, 468240, Note_on_c, 7, 60, 123
16, 468480, Note_on_c, 7, 60, 0
16, 468480, Note_on_c, 7, 55, 123
16, 468720, Note_on_c, 7, 55, 0
16, 468720, Note_on_c, 7, 67, 123
16, 468960, Note_on_c, 7, 67, 0
16, 468960, Note_on_c, 7, 79, 123
16, 469200, Note_on_c, 7, 79, 0
16, 469200, Note_on_c, 7, 79, 123
16, 469440, Note_on_c, 7, 79, 0
16, 469440, Note_on_c, 7, 64, 123
16, 472560, Note_on_c, 7, 64, 0
16, 472560, Note_on_c, 7, 59, 123
16, 472800, Note_on_c, 7, 59, 0
16, 472800, Note_on_c, 7, 59, 123
16, 473040, Note_on_c, 7, 59, 0
16, 473040, Note_on_c, 7, 59, 123
16, 473280, Note_on_c, 7, 59, 0
16, 473280, Note_on_c, 7, 60, 123
16, 476400, Note_on_c, 7, 60, 0
16, 476400, Note_on_c, 7, 62, 123
16, 476400, Note_on_c, 7, 71, 123
16, 476640, Note_on_c, 7, 71, 0
16, 476640, Note_on_c, 7, 62, 0
16, 476640, Note_on_c, 7, 62, 123
16, 476640, Note_on_c, 7, 71, 123
16, 476880, Note_on_c, 7, 71, 0
16, 476880, Note_on_c, 7, 62, 0
16, 476880, Note_on_c, 7, 62, 123
16, 476880, Note_on_c, 7, 71, 123
16, 477120, Note_on_c, 7, 71, 0
16, 477120, Note_on_c, 7, 62, 0
16, 477120, Note_on_c, 7, 64, 123
16, 477120, Note_on_c, 7, 72, 123
16, 477600, Note_on_c, 7, 72, 0
16, 477600, Note_on_c, 7, 64, 0
16, 478320, Note_on_c, 7, 62, 123
16, 478320, Note_on_c, 7, 71, 123
16, 478560, Note_on_c, 7, 71, 0
16, 478560, Note_on_c, 7, 62, 0
16, 478560, Note_on_c, 7, 62, 123
16, 478560, Note_on_c, 7, 71, 123
16, 478800, Note_on_c, 7, 71, 0
16, 478800, Note_on_c, 7, 62, 0
16, 478800, Note_on_c, 7, 62, 123
16, 478800, Note_on_c, 7, 71, 123
16, 479040, Note_on_c, 7, 71, 0
16, 479040, Note_on_c, 7, 62, 0
16, 479040, Note_on_c, 7, 64, 123
16, 479040, Note_on_c, 7, 72, 123
16, 479520, Note_on_c, 7, 72, 0
16, 479520, Note_on_c, 7, 64, 0
16, 480240, Note_on_c, 7, 71, 123
16, 480240, Note_on_c, 7, 79, 123
16, 480480, Note_on_c, 7, 79, 0
16, 480480, Note_on_c, 7, 71, 0
16, 480480, Note_on_c, 7, 71, 123
16, 480480, Note_on_c, 7, 79, 123
16, 480720, Note_on_c, 7, 79, 0
16, 480720, Note_on_c, 7, 71, 0
16, 480720, Note_on_c, 7, 71, 123
16, 480720, Note_on_c, 7, 79, 123
16, 480960, Note_on_c, 7, 79, 0
16, 480960, Note_on_c, 7, 71, 0
16, 480960, Note_on_c, 7, 76, 123
16, 482160, Note_on_c, 7, 76, 0
16, 482160, Note_on_c, 7, 76, 123
16, 482400, Note_on_c, 7, 76, 0
16, 482400, Note_on_c, 7, 76, 123
16, 482640, Note_on_c, 7, 76, 0
16, 482640, Note_on_c, 7, 76, 123
16, 482880, Note_on_c, 7, 76, 0
16, 482880, Note_on_c, 7, 72, 123
16, 482880, Note_on_c, 7, 77, 123
16, 484080, Note_on_c, 7, 77, 0
16, 484080, Note_on_c, 7, 72, 0
16, 484080, Note_on_c, 7, 72, 123
16, 484080, Note_on_c, 7, 77, 123
16, 484320, Note_on_c, 7, 77, 0
16, 484320, Note_on_c, 7, 72, 0
16, 484320, Note_on_c, 7, 72, 123
16, 484320, Note_on_c, 7, 77, 123
16, 484560, Note_on_c, 7, 77, 0
16, 484560, Note_on_c, 7, 72, 0
16, 484560, Note_on_c, 7, 72, 123
16, 484560, Note_on_c, 7, 77, 123
16, 484800, Note_on_c, 7, 77, 0
16, 484800, Note_on_c, 7, 72, 0
16, 484800, Note_on_c, 7, 72, 123
16, 484800, Note_on_c, 7, 79, 123
16, 486000, Note_on_c, 7, 79, 0
16, 486000, Note_on_c, 7, 72, 0
16, 486000, Note_on_c, 7, 72, 123
16, 486000, Note_on_c, 7, 79, 123
16, 486240, Note_on_c, 7, 79, 0
16, 486240, Note_on_c, 7, 72, 0
16, 486240, Note_on_c, 7, 72, 123
16, 486240, Note_on_c, 7, 79, 123
16, 486480, Note_on_c, 7, 79, 0
16, 486480, Note_on_c, 7, 72, 0
16, 486480, Note_on_c, 7, 72, 123
16, 486480, Note_on_c, 7, 79, 123
16, 486720, Note_on_c, 7, 79, 0
16, 486720, Note_on_c, 7, 72, 0
16, 486720, Note_on_c, 7, 72, 123
16, 486720, Note_on_c, 7, 80, 123
16, 487920, Note_on_c, 7, 80, 0
16, 487920, Note_on_c, 7, 72, 0
16, 487920, Note_on_c, 7, 72, 123
16, 487920, Note_on_c, 7, 80, 123
16, 488160, Note_on_c, 7, 80, 0
16, 488160, Note_on_c, 7, 72, 0
16, 488160, Note_on_c, 7, 72, 123
16, 488160, Note_on_c, 7, 80, 123
16, 488400, Note_on_c, 7, 80, 0
16, 488400, Note_on_c, 7, 72, 0
16, 488400, Note_on_c, 7, 72, 123
16, 488400, Note_on_c, 7, 80, 123
16, 488640, Note_on_c, 7, 80, 0
16, 488640, Note_on_c, 7, 72, 0
16, 488640, Note_on_c, 7, 73, 123
16, 488880, Note_on_c, 7, 73, 0
16, 488880, Note_on_c, 7, 73, 123
16, 489120, Note_on_c, 7, 73, 0
16, 489120, Note_on_c, 7, 73, 123
16, 489360, Note_on_c, 7, 73, 0
16, 489360, Note_on_c, 7, 73, 123
16, 489600, Note_on_c, 7, 73, 0
16, 489600, Note_on_c, 7, 73, 123
16, 489840, Note_on_c, 7, 73, 0
16, 489840, Note_on_c, 7, 73, 123
16, 490080, Note_on_c, 7, 73, 0
16, 490080, Note_on_c, 7, 73, 123
16, 490320, Note_on_c, 7, 73, 0
16, 490320, Note_on_c, 7, 73, 123
16, 490560, Note_on_c, 7, 73, 0
16, 490560, Note_on_c, 7, 73, 123
16, 490800, Note_on_c, 7, 73, 0
16, 490800, Note_on_c, 7, 73, 123
16, 491040, Note_on_c, 7, 73, 0
16, 491040, Note_on_c, 7, 73, 123
16, 491280, Note_on_c, 7, 73, 0
16, 491280, Note_on_c, 7, 73, 123
16, 491520, Note_on_c, 7, 73, 0
16, 491520, Note_on_c, 7, 73, 123
16, 491760, Note_on_c, 7, 73, 0
16, 491760, Note_on_c, 7, 73, 123
16, 492000, Note_on_c, 7, 73, 0
16, 492000, Note_on_c, 7, 73, 123
16, 492240, Note_on_c, 7, 73, 0
16, 492240, Note_on_c, 7, 73, 123
16, 492480, Note_on_c, 7, 73, 0
16, 492480, Note_on_c, 7, 73, 123
16, 492960, Note_on_c, 7, 73, 0
16, 496560, Note_on_c, 7, 75, 123
16, 496560, Note_on_c, 7, 84, 123
16, 496800, Note_on_c, 7, 84, 0
16, 496800, Note_on_c, 7, 75, 0
16, 496800, Note_on_c, 7, 75, 123
16, 496800, Note_on_c, 7, 84, 123
16, 497040, Note_on_c, 7, 84, 0
16, 497040, Note_on_c, 7, 75, 0
16, 497040, Note_on_c, 7, 75, 123
16, 497040, Note_on_c, 7, 84, 123
16, 497280, Note_on_c, 7, 84, 0
16, 497280, Note_on_c, 7, 75, 0
16, 497280, Note_on_c, 7, 75, 123
16, 497280, Note_on_c, 7, 84, 123
16, 497520, Note_on_c, 7, 84, 0
16, 497520, Note_on_c, 7, 75, 0
16, 497520, Note_on_c, 7, 75, 123
16, 497520, Note_on_c, 7, 84, 123
16, 497760, Note_on_c, 7, 84, 0
16, 497760, Note_on_c, 7, 75, 0
16, 497760, Note_on_c, 7, 75, 123
16, 497760, Note_on_c, 7, 84, 123
16, 498000, Note_on_c, 7, 84, 0
16, 498000, Note_on_c, 7, 75, 0
16, 498000, Note_on_c, 7, 75, 123
16, 498000, Note_on_c, 7, 84, 123
16, 498240, Note_on_c, 7, 84, 0
16, 498240, Note_on_c, 7, 75, 0
16, 498240, Note_on_c, 7, 75, 123
16, 498240, Note_on_c, 7, 84, 123
16, 498480, Note_on_c, 7, 84, 0
16, 498480, Note_on_c, 7, 75, 0
16, 498480, Note_on_c, 7, 75, 123
16, 498480, Note_on_c, 7, 84, 123
16, 498720, Note_on_c, 7, 84, 0
16, 498720, Note_on_c, 7, 75, 0
16, 498720, Note_on_c, 7, 75, 123
16, 498720, Note_on_c, 7, 84, 123
16, 498960, Note_on_c, 7, 84, 0
16, 498960, Note_on_c, 7, 75, 0
16, 498960, Note_on_c, 7, 75, 123
16, 498960, Note_on_c, 7, 84, 123
16, 499200, Note_on_c, 7, 84, 0
16, 499200, Note_on_c, 7, 75, 0
16, 499200, Note_on_c, 7, 75, 123
16, 499200, Note_on_c, 7, 84, 123
16, 499440, Note_on_c, 7, 84, 0
16, 499440, Note_on_c, 7, 75, 0
16, 499440, Note_on_c, 7, 75, 123
16, 499440, Note_on_c, 7, 84, 123
16, 499680, Note_on_c, 7, 84, 0
16, 499680, Note_on_c, 7, 75, 0
16, 499680, Note_on_c, 7, 75, 123
16, 499680, Note_on_c, 7, 84, 123
16, 499920, Note_on_c, 7, 84, 0
16, 499920, Note_on_c, 7, 75, 0
16, 499920, Note_on_c, 7, 75, 123
16, 499920, Note_on_c, 7, 84, 123
16, 500160, Note_on_c, 7, 84, 0
16, 500160, Note_on_c, 7, 75, 0
16, 500160, Note_on_c, 7, 75, 123
16, 500160, Note_on_c, 7, 84, 123
16, 500400, Note_on_c, 7, 84, 0
16, 500400, Note_on_c, 7, 75, 0
16, 500400, Note_on_c, 7, 75, 123
16, 500400, Note_on_c, 7, 84, 123
16, 500640, Note_on_c, 7, 84, 0
16, 500640, Note_on_c, 7, 75, 0
16, 500640, Note_on_c, 7, 75, 123
16, 500640, Note_on_c, 7, 84, 123
16, 500880, Note_on_c, 7, 84, 0
16, 500880, Note_on_c, 7, 75, 0
16, 500880, Note_on_c, 7, 75, 123
16, 500880, Note_on_c, 7, 84, 123
16, 501120, Note_on_c, 7, 84, 0
16, 501120, Note_on_c, 7, 75, 0
16, 501120, Note_on_c, 7, 75, 123
16, 501120, Note_on_c, 7, 84, 123
16, 501600, Note_on_c, 7, 84, 0
16, 501600, Note_on_c, 7, 75, 0
16, 505920, Note_on_c, 7, 71, 115
16, 506160, Note_on_c, 7, 71, 0
16, 506160, Note_on_c, 7, 72, 115
16, 506400, Note_on_c, 7, 72, 0
16, 506400, Note_on_c, 7, 74, 115
16, 506640, Note_on_c, 7, 74, 0
16, 506640, Note_on_c, 7, 75, 115
16, 506880, Note_on_c, 7, 75, 0
16, 506880, Note_on_c, 7, 77, 115
16, 507120, Note_on_c, 7, 77, 0
16, 507120, Note_on_c, 7, 79, 115
16, 507360, Note_on_c, 7, 79, 0
16, 507360, Note_on_c, 7, 80, 115
16, 507600, Note_on_c, 7, 80, 0
16, 507600, Note_on_c, 7, 79, 115
16, 507840, Note_on_c, 7, 79, 0
16, 507840, Note_on_c, 7, 80, 115
16, 508080, Note_on_c, 7, 80, 0
16, 508080, Note_on_c, 7, 79, 115
16, 508320, Note_on_c, 7, 79, 0
16, 508320, Note_on_c, 7, 80, 115
16, 508560, Note_on_c, 7, 80, 0
16, 508560, Note_on_c, 7, 79, 115
16, 508800, Note_on_c, 7, 79, 0
16, 509760, Note_on_c, 7, 71, 115
16, 510000, Note_on_c, 7, 71, 0
16, 510000, Note_on_c, 7, 72, 115
16, 510240, Note_on_c, 7, 72, 0
16, 510240, Note_on_c, 7, 74, 115
16, 510480, Note_on_c, 7, 74, 0
16, 510480, Note_on_c, 7, 75, 115
16, 510720, Note_on_c, 7, 75, 0
16, 510720, Note_on_c, 7, 77, 115
16, 510960, Note_on_c, 7, 77, 0
16, 510960, Note_on_c, 7, 79, 115
16, 511200, Note_on_c, 7, 79, 0
16, 511200, Note_on_c, 7, 80, 115
16, 511440, Note_on_c, 7, 80, 0
16, 511440, Note_on_c, 7, 79, 115
16, 511680, Note_on_c, 7, 79, 0
16, 511680, Note_on_c, 7, 80, 115
16, 511920, Note_on_c, 7, 80, 0
16, 511920, Note_on_c, 7, 79, 115
16, 512160, Note_on_c, 7, 79, 0
16, 512160, Note_on_c, 7, 80, 115
16, 512400, Note_on_c, 7, 80, 0
16, 512400, Note_on_c, 7, 79, 115
16, 512640, Note_on_c, 7, 79, 0
16, 512640, Note_on_c, 7, 80, 115
16, 512880, Note_on_c, 7, 80, 0
16, 512880, Note_on_c, 7, 79, 115
16, 513120, Note_on_c, 7, 79, 0
16, 513120, Note_on_c, 7, 82, 115
16, 513360, Note_on_c, 7, 82, 0
16, 513360, Note_on_c, 7, 80, 115
16, 513600, Note_on_c, 7, 80, 0
16, 513600, Note_on_c, 7, 79, 115
16, 513840, Note_on_c, 7, 79, 0
16, 513840, Note_on_c, 7, 77, 115
16, 514080, Note_on_c, 7, 77, 0
16, 514080, Note_on_c, 7, 80, 115
16, 514320, Note_on_c, 7, 80, 0
16, 514320, Note_on_c, 7, 79, 115
16, 514560, Note_on_c, 7, 79, 0
16, 514560, Note_on_c, 7, 77, 115
16, 514800, Note_on_c, 7, 77, 0
16, 514800, Note_on_c, 7, 75, 115
16, 515040, Note_on_c, 7, 75, 0
16, 515040, Note_on_c, 7, 79, 115
16, 515280, Note_on_c, 7, 79, 0
16, 515280, Note_on_c, 7, 77, 115
16, 515520, Note_on_c, 7, 77, 0
16, 515520, Note_on_c, 7, 75, 115
16, 515760, Note_on_c, 7, 75, 0
16, 515760, Note_on_c, 7, 74, 115
16, 516000, Note_on_c, 7, 74, 0
16, 516000, Note_on_c, 7, 77, 115
16, 516240, Note_on_c, 7, 77, 0
16, 516240, Note_on_c, 7, 75, 115
16, 516480, Note_on_c, 7, 75, 0
16, 516480, Note_on_c, 7, 74, 115
16, 516720, Note_on_c, 7, 74, 0
16, 516720, Note_on_c, 7, 72, 115
16, 516960, Note_on_c, 7, 72, 0
16, 516960, Note_on_c, 7, 75, 115
16, 517200, Note_on_c, 7, 75, 0
16, 517200, Note_on_c, 7, 74, 115
16, 517440, Note_on_c, 7, 74, 0
16, 517440, Note_on_c, 7, 72, 115
16, 517680, Note_on_c, 7, 72, 0
16, 517680, Note_on_c, 7, 70, 115
16, 517920, Note_on_c, 7, 70, 0
16, 517920, Note_on_c, 7, 74, 115
16, 518160, Note_on_c, 7, 74, 0
16, 518160, Note_on_c, 7, 72, 115
16, 518400, Note_on_c, 7, 72, 0
16, 518400, Note_on_c, 7, 70, 115
16, 518640, Note_on_c, 7, 70, 0
16, 518640, Note_on_c, 7, 68, 115
16, 518880, Note_on_c, 7, 68, 0
16, 518880, Note_on_c, 7, 72, 115
16, 519120, Note_on_c, 7, 72, 0
16, 519120, Note_on_c, 7, 70, 115
16, 519360, Note_on_c, 7, 70, 0
16, 519360, Note_on_c, 7, 68, 115
16, 519600, Note_on_c, 7, 68, 0
16, 519600, Note_on_c, 7, 67, 115
16, 519840, Note_on_c, 7, 67, 0
16, 519840, Note_on_c, 7, 70, 115
16, 520080, Note_on_c, 7, 70, 0
16, 520080, Note_on_c, 7, 68, 115
16, 520320, Note_on_c, 7, 68, 0
16, 520320, Note_on_c, 7, 65, 115
16, 520560, Note_on_c, 7, 65, 0
16, 520560, Note_on_c, 7, 67, 115
16, 520800, Note_on_c, 7, 67, 0
16, 520800, Note_on_c, 7, 63, 115
16, 521040, Note_on_c, 7, 63, 0
16, 521040, Note_on_c, 7, 67, 115
16, 521280, Note_on_c, 7, 67, 0
16, 521280, Note_on_c, 7, 62, 115
16, 521520, Note_on_c, 7, 62, 0
16, 521520, Note_on_c, 7, 67, 115
16, 521760, Note_on_c, 7, 67, 0
16, 521760, Note_on_c, 7, 63, 115
16, 522000, Note_on_c, 7, 63, 0
16, 522000, Note_on_c, 7, 67, 115
16, 522240, Note_on_c, 7, 67, 0
16, 522240, Note_on_c, 7, 65, 115
16, 522480, Note_on_c, 7, 65, 0
16, 522480, Note_on_c, 7, 67, 115
16, 522720, Note_on_c, 7, 67, 0
16, 522720, Note_on_c, 7, 63, 115
16, 522960, Note_on_c, 7, 63, 0
16, 522960, Note_on_c, 7, 67, 115
16, 523200, Note_on_c, 7, 67, 0
16, 523200, Note_on_c, 7, 65, 115
16, 523440, Note_on_c, 7, 65, 0
16, 523440, Note_on_c, 7, 67, 115
16, 523680, Note_on_c, 7, 67, 0
16, 523680, Note_on_c, 7, 67, 115
16, 523920, Note_on_c, 7, 67, 0
16, 523920, Note_on_c, 7, 72, 115
16, 524160, Note_on_c, 7, 72, 0
16, 524160, Note_on_c, 7, 68, 115
16, 524400, Note_on_c, 7, 68, 0
16, 524400, Note_on_c, 7, 72, 115
16, 524640, Note_on_c, 7, 72, 0
16, 524640, Note_on_c, 7, 67, 115
16, 524880, Note_on_c, 7, 67, 0
16, 524880, Note_on_c, 7, 72, 115
16, 525120, Note_on_c, 7, 72, 0
16, 525120, Note_on_c, 7, 68, 115
16, 525360, Note_on_c, 7, 68, 0
16, 525360, Note_on_c, 7, 72, 115
16, 525600, Note_on_c, 7, 72, 0
16, 525600, Note_on_c, 7, 71, 115
16, 525840, Note_on_c, 7, 71, 0
16, 525840, Note_on_c, 7, 77, 115
16, 526080, Note_on_c, 7, 77, 0
16, 526080, Note_on_c, 7, 72, 115
16, 526320, Note_on_c, 7, 72, 0
16, 526320, Note_on_c, 7, 77, 115
16, 526560, Note_on_c, 7, 77, 0
16, 526560, Note_on_c, 7, 71, 115
16, 526800, Note_on_c, 7, 71, 0
16, 526800, Note_on_c, 7, 77, 115
16, 527040, Note_on_c, 7, 77, 0
16, 527040, Note_on_c, 7, 72, 115
16, 527280, Note_on_c, 7, 72, 0
16, 527280, Note_on_c, 7, 77, 115
16, 527520, Note_on_c, 7, 77, 0
16, 527520, Note_on_c, 7, 74, 115
16, 527760, Note_on_c, 7, 74, 0
16, 527760, Note_on_c, 7, 79, 115
16, 528000, Note_on_c, 7, 79, 0
16, 528000, Note_on_c, 7, 75, 115
16, 528480, Note_on_c, 7, 75, 0
16, 528480, Note_on_c, 7, 72, 115
16, 528960, Note_on_c, 7, 72, 0
16, 528960, Note_on_c, 7, 74, 115
16, 529440, Note_on_c, 7, 74, 0
16, 529440, Note_on_c, 7, 75, 115
16, 529920, Note_on_c, 7, 75, 0
16, 529920, Note_on_c, 7, 77, 115
16, 530400, Note_on_c, 7, 77, 0
16, 530400, Note_on_c, 7, 74, 115
16, 530880, Note_on_c, 7, 74, 0
16, 530880, Note_on_c, 7, 75, 115
16, 531360, Note_on_c, 7, 75, 0
16, 531360, Note_on_c, 7, 77, 115
16, 531840, Note_on_c, 7, 77, 0
16, 531840, Note_on_c, 7, 79, 115
16, 532320, Note_on_c, 7, 79, 0
16, 532320, Note_on_c, 7, 75, 115
16, 532800, Note_on_c, 7, 75, 0
16, 532800, Note_on_c, 7, 77, 115
16, 533280, Note_on_c, 7, 77, 0
16, 533280, Note_on_c, 7, 79, 115
16, 533760, Note_on_c, 7, 79, 0
16, 533760, Note_on_c, 7, 80, 115
16, 534240, Note_on_c, 7, 80, 0
16, 534240, Note_on_c, 7, 77, 115
16, 534720, Note_on_c, 7, 77, 0
16, 534720, Note_on_c, 7, 79, 115
16, 535200, Note_on_c, 7, 79, 0
16, 535200, Note_on_c, 7, 81, 115
16, 535680, Note_on_c, 7, 81, 0
16, 535680, Note_on_c, 7, 83, 115
16, 536160, Note_on_c, 7, 83, 0
16, 536160, Note_on_c, 7, 79, 115
16, 536640, Note_on_c, 7, 79, 0
16, 536640, Note_on_c, 7, 81, 115
16, 537120, Note_on_c, 7, 81, 0
16, 537120, Note_on_c, 7, 83, 115
16, 537600, Note_on_c, 7, 83, 0
16, 537600, Note_on_c, 7, 84, 115
16, 538080, Note_on_c, 7, 84, 0
16, 538080, Note_on_c, 7, 79, 115
16, 538560, Note_on_c, 7, 79, 0
16, 538560, Note_on_c, 7, 80, 115
16, 539040, Note_on_c, 7, 80, 0
16, 539040, Note_on_c, 7, 75, 115
16, 539520, Note_on_c, 7, 75, 0
16, 539520, Note_on_c, 7, 77, 115
16, 540000, Note_on_c, 7, 77, 0
16, 540000, Note_on_c, 7, 74, 115
16, 540480, Note_on_c, 7, 74, 0
16, 540480, Note_on_c, 7, 75, 115
16, 540960, Note_on_c, 7, 75, 0
16, 540960, Note_on_c, 7, 77, 115
16, 541440, Note_on_c, 7, 77, 0
16, 541440, Note_on_c, 7, 79, 115
16, 541920, Note_on_c, 7, 79, 0
16, 541920, Note_on_c, 7, 78, 115
16, 542400, Note_on_c, 7, 78, 0
16, 542400, Note_on_c, 7, 79, 115
16, 542880, Note_on_c, 7, 79, 0
16, 542880, Note_on_c, 7, 67, 115
16, 543360, Note_on_c, 7, 67, 0
16, 543360, Note_on_c, 7, 72, 115
16, 543840, Note_on_c, 7, 72, 0
16, 546240, Note_on_c, 7, 63, 115
16, 546720, Note_on_c, 7, 63, 0
16, 546720, Note_on_c, 7, 65, 115
16, 547200, Note_on_c, 7, 65, 0
16, 547200, Note_on_c, 7, 67, 115
16, 547680, Note_on_c, 7, 67, 0
16, 547680, Note_on_c, 7, 63, 115
16, 548160, Note_on_c, 7, 63, 0
16, 550080, Note_on_c, 7, 59, 115
16, 550560, Note_on_c, 7, 59, 0
16, 550560, Note_on_c, 7, 60, 115
16, 551040, Note_on_c, 7, 60, 0
16, 551040, Note_on_c, 7, 62, 115
16, 551520, Note_on_c, 7, 62, 0
16, 551520, Note_on_c, 7, 59, 115
16, 552000, Note_on_c, 7, 59, 0
16, 553920, Note_on_c, 7, 59, 115
16, 554400, Note_on_c, 7, 59, 0
16, 554400, Note_on_c, 7, 60, 115
16, 554880, Note_on_c, 7, 60, 0
16, 554880, Note_on_c, 7, 62, 115
16, 555360, Note_on_c, 7, 62, 0
16, 555360, Note_on_c, 7, 59, 115
16, 555840, Note_on_c, 7, 59, 0
16, 559680, Note_on_c, 7, 68, 115
16, 560160, Note_on_c, 7, 68, 0
16, 560160, Note_on_c, 7, 67, 115
16, 560640, Note_on_c, 7, 67, 0
16, 561600, Note_on_c, 7, 68, 115
16, 562080, Note_on_c, 7, 68, 0
16, 562080, Note_on_c, 7, 67, 115
16, 562560, Note_on_c, 7, 67, 0
16, 562560, Note_on_c, 7, 55, 115
16, 562560, Note_on_c, 7, 63, 115
16, 562560, Note_on_c, 7, 72, 115
16, 562560, Note_on_c, 7, 79, 115
16, 563040, Note_on_c, 7, 79, 0
16, 563040, Note_on_c, 7, 55, 0
16, 563040, Note_on_c, 7, 63, 0
16, 563040, Note_on_c, 7, 72, 0
16, 563520, Note_on_c, 7, 55, 115
16, 563520, Note_on_c, 7, 62, 115
16, 563520, Note_on_c, 7, 71, 115
16, 563520, Note_on_c, 7, 79, 115
16, 564000, Note_on_c, 7, 79, 0
16, 564000, Note_on_c, 7, 55, 0
16, 564000, Note_on_c, 7, 62, 0
16, 564000, Note_on_c, 7, 71, 0
16, 564480, Note_on_c, 7, 63, 115
16, 564960, Note_on_c, 7, 63, 0
16, 564960, Note_on_c, 7, 70, 115
16, 565440, Note_on_c, 7, 70, 0
16, 565440, Note_on_c, 7, 60, 115
16, 565920, Note_on_c, 7, 60, 0
16, 565920, Note_on_c, 7, 67, 115
16, 566400, Note_on_c, 7, 67, 0
16, 566400, Note_on_c, 7, 56, 115
16, 566880, Note_on_c, 7, 56, 0
16, 566880, Note_on_c, 7, 63, 115
16, 567360, Note_on_c, 7, 63, 0
16, 568320, Note_on_c, 7, 65, 115
16, 568800, Note_on_c, 7, 65, 0
16, 568800, Note_on_c, 7, 63, 115
16, 569280, Note_on_c, 7, 63, 0
16, 569280, Note_on_c, 7, 77, 115
16, 569760, Note_on_c, 7, 77, 0
16, 569760, Note_on_c, 7, 75, 115
16, 570240, Note_on_c, 7, 75, 0
16, 570240, Note_on_c, 7, 55, 115
16, 570240, Note_on_c, 7, 63, 115
16, 570240, Note_on_c, 7, 72, 115
16, 570240, Note_on_c, 7, 79, 115
16, 570720, Note_on_c, 7, 79, 0
16, 570720, Note_on_c, 7, 55, 0
16, 570720, Note_on_c, 7, 63, 0
16, 570720, Note_on_c, 7, 72, 0
16, 571200, Note_on_c, 7, 55, 115
16, 571200, Note_on_c, 7, 62, 115
16, 571200, Note_on_c, 7, 71, 115
16, 571200, Note_on_c, 7, 79, 115
16, 571680, Note_on_c, 7, 79, 0
16, 571680, Note_on_c, 7, 55, 0
16, 571680, Note_on_c, 7, 62, 0
16, 571680, Note_on_c, 7, 71, 0
16, 572160, Note_on_c, 7, 55, 115
16, 572160, Note_on_c, 7, 63, 115
16, 572160, Note_on_c, 7, 72, 115
16, 572400, Note_on_c, 7, 72, 0
16, 572400, Note_on_c, 7, 63, 0
16, 572400, Note_on_c, 7, 55, 0
16, 572400, Note_on_c, 7, 67, 115
16, 572640, Note_on_c, 7, 67, 0
16, 572640, Note_on_c, 7, 67, 115
16, 572880, Note_on_c, 7, 67, 0
16, 572880, Note_on_c, 7, 67, 115
16, 573120, Note_on_c, 7, 67, 0
16, 573120, Note_on_c, 7, 67, 115
16, 577200, Note_on_c, 7, 67, 0
16, 577200, Note_on_c, 7, 67, 115
16, 577440, Note_on_c, 7, 67, 0
16, 577440, Note_on_c, 7, 67, 115
16, 577680, Note_on_c, 7, 67, 0
16, 577680, Note_on_c, 7, 67, 115
16, 577920, Note_on_c, 7, 67, 0
16, 577920, Note_on_c, 7, 60, 115
16, 578160, Note_on_c, 7, 60, 0
16, 578160, Note_on_c, 7, 67, 115
16, 578400, Note_on_c, 7, 67, 0
16, 578400, Note_on_c, 7, 67, 115
16, 578640, Note_on_c, 7, 67, 0
16, 578640, Note_on_c, 7, 67, 115
16, 578880, Note_on_c, 7, 67, 0
16, 578880, Note_on_c, 7, 67, 115
16, 579120, Note_on_c, 7, 67, 0
16, 579120, Note_on_c, 7, 67, 115
16, 579360, Note_on_c, 7, 67, 0
16, 579360, Note_on_c, 7, 67, 115
16, 579600, Note_on_c, 7, 67, 0
16, 579600, Note_on_c, 7, 67, 115
16, 579840, Note_on_c, 7, 67, 0
16, 579840, Note_on_c, 7, 67, 115
16, 580080, Note_on_c, 7, 67, 0
16, 580080, Note_on_c, 7, 67, 115
16, 580320, Note_on_c, 7, 67, 0
16, 580320, Note_on_c, 7, 67, 115
16, 580560, Note_on_c, 7, 67, 0
16, 580560, Note_on_c, 7, 67, 115
16, 580800, Note_on_c, 7, 67, 0
16, 580800, Note_on_c, 7, 67, 115
16, 581040, Note_on_c, 7, 67, 0
16, 581040, Note_on_c, 7, 67, 115
16, 581280, Note_on_c, 7, 67, 0
16, 581280, Note_on_c, 7, 67, 115
16, 581520, Note_on_c, 7, 67, 0
16, 581520, Note_on_c, 7, 67, 115
16, 581760, Note_on_c, 7, 67, 0
16, 581760, Note_on_c, 7, 63, 123
16, 582720, Note_on_c, 7, 63, 0
16, 582960, Note_on_c, 7, 65, 123
16, 583200, Note_on_c, 7, 65, 0
16, 583200, Note_on_c, 7, 65, 123
16, 583440, Note_on_c, 7, 65, 0
16, 583440, Note_on_c, 7, 65, 123
16, 583680, Note_on_c, 7, 65, 0
16, 583680, Note_on_c, 7, 62, 123
16, 585600, Note_on_c, 7, 62, 0
16, 585840, Note_on_c, 7, 67, 78
16, 586080, Note_on_c, 7, 67, 0
16, 586080, Note_on_c, 7, 67, 78
16, 586320, Note_on_c, 7, 67, 0
16, 586320, Note_on_c, 7, 67, 78
16, 586560, Note_on_c, 7, 67, 0
16, 586560, Note_on_c, 7, 63, 78
16, 589680, Note_on_c, 7, 63, 0
16, 589680, Note_on_c, 7, 67, 78
16, 589920, Note_on_c, 7, 67, 0
16, 589920, Note_on_c, 7, 67, 78
16, 590160, Note_on_c, 7, 67, 0
16, 590160, Note_on_c, 7, 67, 78
16, 590400, Note_on_c, 7, 67, 0
16, 590400, Note_on_c, 7, 63, 78
16, 593520, Note_on_c, 7, 63, 0
16, 593520, Note_on_c, 7, 62, 123
16, 593520, Note_on_c, 7, 71, 123
16, 593760, Note_on_c, 7, 71, 0
16, 593760, Note_on_c, 7, 62, 0
16, 593760, Note_on_c, 7, 62, 123
16, 593760, Note_on_c, 7, 71, 123
16, 594000, Note_on_c, 7, 71, 0
16, 594000, Note_on_c, 7, 62, 0
16, 594000, Note_on_c, 7, 62, 123
16, 594000, Note_on_c, 7, 71, 123
16, 594240, Note_on_c, 7, 71, 0
16, 594240, Note_on_c, 7, 62, 0
16, 594240, Note_on_c, 7, 63, 123
16, 594240, Note_on_c, 7, 72, 123
16, 594720, Note_on_c, 7, 72, 0
16, 594720, Note_on_c, 7, 63, 0
16, 595440, Note_on_c, 7, 62, 123
16, 595440, Note_on_c, 7, 71, 123
16, 595680, Note_on_c, 7, 71, 0
16, 595680, Note_on_c, 7, 62, 0
16, 595680, Note_on_c, 7, 62, 123
16, 595680, Note_on_c, 7, 71, 123
16, 595920, Note_on_c, 7, 71, 0
16, 595920, Note_on_c, 7, 62, 0
16, 595920, Note_on_c, 7, 62, 123
16, 595920, Note_on_c, 7, 71, 123
16, 596160, Note_on_c, 7, 71, 0
16, 596160, Note_on_c, 7, 62, 0
16, 596160, Note_on_c, 7, 63, 123
16, 596160, Note_on_c, 7, 72, 123
16, 596640, Note_on_c, 7, 72, 0
16, 596640, Note_on_c, 7, 63, 0
16, 597360, Note_on_c, 7, 62, 123
16, 597360, Note_on_c, 7, 71, 123
16, 597600, Note_on_c, 7, 71, 0
16, 597600, Note_on_c, 7, 62, 0
16, 597600, Note_on_c, 7, 62, 123
16, 597600, Note_on_c, 7, 71, 123
16, 597840, Note_on_c, 7, 71, 0
16, 597840, Note_on_c, 7, 62, 0
16, 597840, Note_on_c, 7, 62, 123
16, 597840, Note_on_c, 7, 71, 123
16, 598080, Note_on_c, 7, 71, 0
16, 598080, Note_on_c, 7, 62, 0
16, 598080, Note_on_c, 7, 63, 123
16, 598080, Note_on_c, 7, 72, 123
16, 598560, Note_on_c, 7, 72, 0
16, 598560, Note_on_c, 7, 63, 0
16, 598560, Note_on_c, 7, 55, 123
16, 598560, Note_on_c, 7, 62, 123
16, 598560, Note_on_c, 7, 71, 123
16, 599040, Note_on_c, 7, 71, 0
16, 599040, Note_on_c, 7, 62, 0
16, 599040, Note_on_c, 7, 55, 0
16, 599040, Note_on_c, 7, 55, 123
16, 599040, Note_on_c, 7, 63, 123
16, 599040, Note_on_c, 7, 72, 123
16, 599520, Note_on_c, 7, 72, 0
16, 599520, Note_on_c, 7, 63, 0
16, 599520, Note_on_c, 7, 55, 0
16, 599520, Note_on_c, 7, 55, 123
16, 599520, Note_on_c, 7, 62, 123
16, 599520, Note_on_c, 7, 71, 123
16, 600000, Note_on_c, 7, 71, 0
16, 600000, Note_on_c, 7, 62, 0
16, 600000, Note_on_c, 7, 55, 0
16, 600000, Note_on_c, 7, 55, 123
16, 600000, Note_on_c, 7, 63, 123
16, 600000, Note_on_c, 7, 72, 123
16, 600480, Note_on_c, 7, 72, 0
16, 600480, Note_on_c, 7, 63, 0
16, 600480, Note_on_c, 7, 55, 0
16, 600480, Note_on_c, 7, 62, 123
16, 600480, Note_on_c, 7, 71, 123
16, 600480, Note_on_c, 7, 79, 123
16, 600960, Note_on_c, 7, 79, 0
16, 600960, Note_on_c, 7, 71, 0
16, 600960, Note_on_c, 7, 62, 0
16, 600960, Note_on_c, 7, 63, 123
16, 600960, Note_on_c, 7, 72, 123
16, 600960, Note_on_c, 7, 79, 123
16, 601440, Note_on_c, 7, 79, 0
16, 601440, Note_on_c, 7, 72, 0
16, 601440, Note_on_c, 7, 63, 0
16, 601440, Note_on_c, 7, 62, 123
16, 601440, Note_on_c, 7, 71, 123
16, 601440, Note_on_c, 7, 79, 123
16, 601920, Note_on_c, 7, 79, 0
16, 601920, Note_on_c, 7, 71, 0
16, 601920, Note_on_c, 7, 62, 0
16, 601920, Note_on_c, 7, 63, 123
16, 601920, Note_on_c, 7, 72, 123
16, 601920, Note_on_c, 7, 79, 123
16, 602400, Note_on_c, 7, 79, 0
16, 602400, Note_on_c, 7, 72, 0
16, 602400, Note_on_c, 7, 63, 0
16, 602880, Note_on_c, 7, 55, 123
16, 602880, Note_on_c, 7, 62, 123
16, 602880, Note_on_c, 7, 71, 123
16, 603360, Note_on_c, 7, 71, 0
16, 603360, Note_on_c, 7, 62, 0
16, 603360, Note_on_c, 7, 55, 0
16, 603840, Note_on_c, 7, 55, 123
16, 603840, Note_on_c, 7, 63, 123
16, 603840, Note_on_c, 7, 72, 123
16, 604320, Note_on_c, 7, 72, 0
16, 604320, Note_on_c, 7, 63, 0
16, 604320, Note_on_c, 7, 55, 0
16, 604320, End_track
17, 0, Start_track
17, 0, MIDI_port, 0
17, 0, Title_t, "Violas"
17, 0, Program_c, 8, 48
17, 240, Note_on_c, 8, 55, 123
17, 480, Note_on_c, 8, 55, 0
17, 480, Note_on_c, 8, 55, 123
17, 720, Note_on_c, 8, 55, 0
17, 720, Note_on_c, 8, 55, 123
17, 960, Note_on_c, 8, 55, 0
17, 960, Note_on_c, 8, 51, 123
17, 1920, Note_on_c, 8, 51, 0
17, 2160, Note_on_c, 8, 53, 123
17, 2400, Note_on_c, 8, 53, 0
17, 2400, Note_on_c, 8, 53, 123
17, 2640, Note_on_c, 8, 53, 0
17, 2640, Note_on_c, 8, 53, 123
17, 2880, Note_on_c, 8, 53, 0
17, 2880, Note_on_c, 8, 50, 123
17, 4800, Note_on_c, 8, 50, 0
17, 6000, Note_on_c, 8, 68, 91
17, 6240, Note_on_c, 8, 68, 0
17, 6240, Note_on_c, 8, 68, 91
17, 6480, Note_on_c, 8, 68, 0
17, 6480, Note_on_c, 8, 68, 91
17, 6720, Note_on_c, 8, 68, 0
17, 6720, Note_on_c, 8, 67, 91
17, 9120, Note_on_c, 8, 67, 0
17, 9840, Note_on_c, 8, 68, 91
17, 10080, Note_on_c, 8, 68, 0
17, 10080, Note_on_c, 8, 68, 91
17, 10320, Note_on_c, 8, 68, 0
17, 10320, Note_on_c, 8, 68, 91
17, 10560, Note_on_c, 8, 68, 0
17, 10560, Note_on_c, 8, 67, 91
17, 11520, Note_on_c, 8, 67, 0
17, 11520, Note_on_c, 8, 62, 91
17, 13440, Note_on_c, 8, 62, 0
17, 13440, Note_on_c, 8, 63, 91
17, 13680, Note_on_c, 8, 63, 0
17, 13680, Note_on_c, 8, 63, 91
17, 13920, Note_on_c, 8, 63, 0
17, 13920, Note_on_c, 8, 63, 91
17, 14160, Note_on_c, 8, 63, 0
17, 14160, Note_on_c, 8, 65, 91
17, 14400, Note_on_c, 8, 65, 0
17, 14400, Note_on_c, 8, 67, 91
17, 15600, Note_on_c, 8, 67, 0
17, 15600, Note_on_c, 8, 63, 91
17, 15840, Note_on_c, 8, 63, 0
17, 15840, Note_on_c, 8, 63, 91
17, 16080, Note_on_c, 8, 63, 0
17, 16080, Note_on_c, 8, 65, 91
17, 16320, Note_on_c, 8, 65, 0
17, 16320, Note_on_c, 8, 67, 91
17, 17040, Note_on_c, 8, 67, 0
17, 17040, Note_on_c, 8, 62, 109
17, 17280, Note_on_c, 8, 62, 0
17, 17280, Note_on_c, 8, 63, 115
17, 17760, Note_on_c, 8, 63, 0
17, 18240, Note_on_c, 8, 56, 115
17, 18720, Note_on_c, 8, 56, 0
17, 19200, Note_on_c, 8, 55, 115
17, 19680, Note_on_c, 8, 55, 0
17, 20400, Note_on_c, 8, 56, 123
17, 20640, Note_on_c, 8, 56, 0
17, 20640, Note_on_c, 8, 56, 123
17, 20880, Note_on_c, 8, 56, 0
17, 20880, Note_on_c, 8, 56, 123
17, 21120, Note_on_c, 8, 56, 0
17, 21120, Note_on_c, 8, 53, 123
17, 23040, Note_on_c, 8, 53, 0
17, 25200, Note_on_c, 8, 56, 91
17, 25440, Note_on_c, 8, 56, 0
17, 25440, Note_on_c, 8, 56, 91
17, 25680, Note_on_c, 8, 56, 0
17, 25680, Note_on_c, 8, 56, 91
17, 25920, Note_on_c, 8, 56, 0
17, 25920, Note_on_c, 8, 55, 91
17, 27360, Note_on_c, 8, 55, 0
17, 29040, Note_on_c, 8, 56, 91
17, 29280, Note_on_c, 8, 56, 0
17, 29280, Note_on_c, 8, 56, 91
17, 29520, Note_on_c, 8, 56, 0
17, 29520, Note_on_c, 8, 56, 91
17, 29760, Note_on_c, 8, 56, 0
17, 29760, Note_on_c, 8, 55, 91
17, 30960, Note_on_c, 8, 55, 0
17, 30960, Note_on_c, 8, 63, 91
17, 31200, Note_on_c, 8, 63, 0
17, 31200, Note_on_c, 8, 63, 91
17, 31440, Note_on_c, 8, 63, 0
17, 31440, Note_on_c, 8, 60, 91
17, 31680, Note_on_c, 8, 60, 0
17, 31680, Note_on_c, 8, 62, 91
17, 32880, Note_on_c, 8, 62, 0
17, 32880, Note_on_c, 8, 65, 101
17, 33120, Note_on_c, 8, 65, 0
17, 33120, Note_on_c, 8, 65, 109
17, 33360, Note_on_c, 8, 65, 0
17, 33360, Note_on_c, 8, 62, 109
17, 33600, Note_on_c, 8, 62, 0
17, 33600, Note_on_c, 8, 63, 115
17, 34800, Note_on_c, 8, 63, 0
17, 34800, Note_on_c, 8, 63, 123
17, 35040, Note_on_c, 8, 63, 0
17, 35040, Note_on_c, 8, 63, 123
17, 35280, Note_on_c, 8, 63, 0
17, 35280, Note_on_c, 8, 60, 123
17, 35520, Note_on_c, 8, 60, 0
17, 35520, Note_on_c, 8, 65, 123
17, 35760, Note_on_c, 8, 65, 0
17, 35760, Note_on_c, 8, 65, 123
17, 36000, Note_on_c, 8, 65, 0
17, 36000, Note_on_c, 8, 65, 123
17, 36240, Note_on_c, 8, 65, 0
17, 36240, Note_on_c, 8, 59, 123
17, 36480, Note_on_c, 8, 59, 0
17, 36480, Note_on_c, 8, 67, 123
17, 36720, Note_on_c, 8, 67, 0
17, 36720, Note_on_c, 8, 67, 123
17, 36960, Note_on_c, 8, 67, 0
17, 36960, Note_on_c, 8, 67, 123
17, 37200, Note_on_c, 8, 67, 0
17, 37200, Note_on_c, 8, 58, 123
17, 37440, Note_on_c, 8, 58, 0
17, 37440, Note_on_c, 8, 68, 123
17, 37680, Note_on_c, 8, 68, 0
17, 37680, Note_on_c, 8, 56, 123
17, 37920, Note_on_c, 8, 56, 0
17, 37920, Note_on_c, 8, 56, 123
17, 38160, Note_on_c, 8, 56, 0
17, 38160, Note_on_c, 8, 53, 123
17, 38400, Note_on_c, 8, 53, 0
17, 38400, Note_on_c, 8, 58, 123
17, 38640, Note_on_c, 8, 58, 0
17, 38640, Note_on_c, 8, 58, 123
17, 38880, Note_on_c, 8, 58, 0
17, 38880, Note_on_c, 8, 58, 123
17, 39120, Note_on_c, 8, 58, 0
17, 39120, Note_on_c, 8, 55, 123
17, 39360, Note_on_c, 8, 55, 0
17, 39360, Note_on_c, 8, 60, 123
17, 39600, Note_on_c, 8, 60, 0
17, 39600, Note_on_c, 8, 60, 123
17, 39840, Note_on_c, 8, 60, 0
17, 39840, Note_on_c, 8, 60, 123
17, 40080, Note_on_c, 8, 60, 0
17, 40080, Note_on_c, 8, 56, 123
17, 40320, Note_on_c, 8, 56, 0
17, 40320, Note_on_c, 8, 65, 123
17, 40560, Note_on_c, 8, 65, 0
17, 40560, Note_on_c, 8, 65, 123
17, 40800, Note_on_c, 8, 65, 0
17, 40800, Note_on_c, 8, 65, 123
17, 41040, Note_on_c, 8, 65, 0
17, 41040, Note_on_c, 8, 62, 123
17, 41280, Note_on_c, 8, 62, 0
17, 41280, Note_on_c, 8, 63, 115
17, 41520, Note_on_c, 8, 63, 0
17, 41520, Note_on_c, 8, 48, 115
17, 41520, Note_on_c, 8, 51, 115
17, 41760, Note_on_c, 8, 51, 0
17, 41760, Note_on_c, 8, 48, 0
17, 41760, Note_on_c, 8, 48, 115
17, 41760, Note_on_c, 8, 51, 115
17, 42000, Note_on_c, 8, 51, 0
17, 42000, Note_on_c, 8, 48, 0
17, 42000, Note_on_c, 8, 48, 115
17, 42000, Note_on_c, 8, 51, 115
17, 42240, Note_on_c, 8, 51, 0
17, 42240, Note_on_c, 8, 48, 0
17, 42240, Note_on_c, 8, 48, 115
17, 42240, Note_on_c, 8, 51, 115
17, 42480, Note_on_c, 8, 51, 0
17, 42480, Note_on_c, 8, 48, 0
17, 42480, Note_on_c, 8, 48, 115
17, 42480, Note_on_c, 8, 51, 115
17, 42720, Note_on_c, 8, 51, 0
17, 42720, Note_on_c, 8, 48, 0
17, 42720, Note_on_c, 8, 48, 115
17, 42720, Note_on_c, 8, 51, 115
17, 42960, Note_on_c, 8, 51, 0
17, 42960, Note_on_c, 8, 48, 0
17, 42960, Note_on_c, 8, 48, 115
17, 42960, Note_on_c, 8, 51, 115
17, 43200, Note_on_c, 8, 51, 0
17, 43200, Note_on_c, 8, 48, 0
17, 43200, Note_on_c, 8, 48, 115
17, 43200, Note_on_c, 8, 51, 115
17, 43440, Note_on_c, 8, 51, 0
17, 43440, Note_on_c, 8, 48, 0
17, 43440, Note_on_c, 8, 48, 115
17, 43440, Note_on_c, 8, 51, 115
17, 43680, Note_on_c, 8, 51, 0
17, 43680, Note_on_c, 8, 48, 0
17, 43680, Note_on_c, 8, 48, 115
17, 43680, Note_on_c, 8, 51, 115
17, 43920, Note_on_c, 8, 51, 0
17, 43920, Note_on_c, 8, 48, 0
17, 43920, Note_on_c, 8, 48, 115
17, 43920, Note_on_c, 8, 51, 115
17, 44160, Note_on_c, 8, 51, 0
17, 44160, Note_on_c, 8, 48, 0
17, 44160, Note_on_c, 8, 48, 115
17, 44160, Note_on_c, 8, 51, 115
17, 44400, Note_on_c, 8, 51, 0
17, 44400, Note_on_c, 8, 48, 0
17, 44400, Note_on_c, 8, 48, 115
17, 44400, Note_on_c, 8, 51, 115
17, 44640, Note_on_c, 8, 51, 0
17, 44640, Note_on_c, 8, 48, 0
17, 44640, Note_on_c, 8, 48, 115
17, 44640, Note_on_c, 8, 51, 115
17, 44880, Note_on_c, 8, 51, 0
17, 44880, Note_on_c, 8, 48, 0
17, 44880, Note_on_c, 8, 48, 115
17, 44880, Note_on_c, 8, 51, 115
17, 45120, Note_on_c, 8, 51, 0
17, 45120, Note_on_c, 8, 48, 0
17, 45120, Note_on_c, 8, 50, 115
17, 45120, Note_on_c, 8, 53, 115
17, 45360, Note_on_c, 8, 53, 0
17, 45360, Note_on_c, 8, 50, 0
17, 45360, Note_on_c, 8, 50, 115
17, 45360, Note_on_c, 8, 53, 115
17, 45600, Note_on_c, 8, 53, 0
17, 45600, Note_on_c, 8, 50, 0
17, 45600, Note_on_c, 8, 50, 115
17, 45600, Note_on_c, 8, 53, 115
17, 45840, Note_on_c, 8, 53, 0
17, 45840, Note_on_c, 8, 50, 0
17, 45840, Note_on_c, 8, 50, 115
17, 45840, Note_on_c, 8, 53, 115
17, 46080, Note_on_c, 8, 53, 0
17, 46080, Note_on_c, 8, 50, 0
17, 46080, Note_on_c, 8, 50, 115
17, 46080, Note_on_c, 8, 53, 115
17, 46320, Note_on_c, 8, 53, 0
17, 46320, Note_on_c, 8, 50, 0
17, 46320, Note_on_c, 8, 50, 115
17, 46320, Note_on_c, 8, 53, 115
17, 46560, Note_on_c, 8, 53, 0
17, 46560, Note_on_c, 8, 50, 0
17, 46560, Note_on_c, 8, 50, 115
17, 46560, Note_on_c, 8, 53, 115
17, 46800, Note_on_c, 8, 53, 0
17, 46800, Note_on_c, 8, 50, 0
17, 46800, Note_on_c, 8, 50, 115
17, 46800, Note_on_c, 8, 53, 115
17, 47040, Note_on_c, 8, 53, 0
17, 47040, Note_on_c, 8, 50, 0
17, 47040, Note_on_c, 8, 50, 115
17, 47040, Note_on_c, 8, 53, 115
17, 47280, Note_on_c, 8, 53, 0
17, 47280, Note_on_c, 8, 50, 0
17, 47280, Note_on_c, 8, 50, 115
17, 47280, Note_on_c, 8, 53, 115
17, 47520, Note_on_c, 8, 53, 0
17, 47520, Note_on_c, 8, 50, 0
17, 47520, Note_on_c, 8, 50, 115
17, 47520, Note_on_c, 8, 53, 115
17, 47760, Note_on_c, 8, 53, 0
17, 47760, Note_on_c, 8, 50, 0
17, 47760, Note_on_c, 8, 50, 115
17, 47760, Note_on_c, 8, 53, 115
17, 48000, Note_on_c, 8, 53, 0
17, 48000, Note_on_c, 8, 50, 0
17, 48000, Note_on_c, 8, 50, 115
17, 48000, Note_on_c, 8, 53, 115
17, 48240, Note_on_c, 8, 53, 0
17, 48240, Note_on_c, 8, 50, 0
17, 48240, Note_on_c, 8, 50, 115
17, 48240, Note_on_c, 8, 53, 115
17, 48480, Note_on_c, 8, 53, 0
17, 48480, Note_on_c, 8, 50, 0
17, 48480, Note_on_c, 8, 48, 115
17, 48480, Note_on_c, 8, 51, 115
17, 48720, Note_on_c, 8, 51, 0
17, 48720, Note_on_c, 8, 48, 0
17, 48720, Note_on_c, 8, 48, 115
17, 48720, Note_on_c, 8, 51, 115
17, 48960, Note_on_c, 8, 51, 0
17, 48960, Note_on_c, 8, 48, 0
17, 48960, Note_on_c, 8, 48, 123
17, 48960, Note_on_c, 8, 51, 123
17, 49200, Note_on_c, 8, 51, 0
17, 49200, Note_on_c, 8, 48, 0
17, 49200, Note_on_c, 8, 51, 123
17, 49200, Note_on_c, 8, 54, 123
17, 49440, Note_on_c, 8, 54, 0
17, 49440, Note_on_c, 8, 51, 0
17, 49440, Note_on_c, 8, 51, 123
17, 49440, Note_on_c, 8, 54, 123
17, 49680, Note_on_c, 8, 54, 0
17, 49680, Note_on_c, 8, 51, 0
17, 49680, Note_on_c, 8, 51, 123
17, 49680, Note_on_c, 8, 54, 123
17, 49920, Note_on_c, 8, 54, 0
17, 49920, Note_on_c, 8, 51, 0
17, 49920, Note_on_c, 8, 51, 123
17, 49920, Note_on_c, 8, 54, 123
17, 50160, Note_on_c, 8, 54, 0
17, 50160, Note_on_c, 8, 51, 0
17, 50160, Note_on_c, 8, 51, 123
17, 50160, Note_on_c, 8, 54, 123
17, 50400, Note_on_c, 8, 54, 0
17, 50400, Note_on_c, 8, 51, 0
17, 50400, Note_on_c, 8, 51, 123
17, 50400, Note_on_c, 8, 54, 123
17, 50640, Note_on_c, 8, 54, 0
17, 50640, Note_on_c, 8, 51, 0
17, 50640, Note_on_c, 8, 51, 123
17, 50640, Note_on_c, 8, 54, 123
17, 50880, Note_on_c, 8, 54, 0
17, 50880, Note_on_c, 8, 51, 0
17, 50880, Note_on_c, 8, 51, 123
17, 50880, Note_on_c, 8, 54, 123
17, 51120, Note_on_c, 8, 54, 0
17, 51120, Note_on_c, 8, 51, 0
17, 51120, Note_on_c, 8, 51, 123
17, 51120, Note_on_c, 8, 54, 123
17, 51360, Note_on_c, 8, 54, 0
17, 51360, Note_on_c, 8, 51, 0
17, 51360, Note_on_c, 8, 51, 123
17, 51360, Note_on_c, 8, 54, 123
17, 51600, Note_on_c, 8, 54, 0
17, 51600, Note_on_c, 8, 51, 0
17, 51600, Note_on_c, 8, 51, 123
17, 51600, Note_on_c, 8, 54, 123
17, 51840, Note_on_c, 8, 54, 0
17, 51840, Note_on_c, 8, 51, 0
17, 51840, Note_on_c, 8, 51, 123
17, 51840, Note_on_c, 8, 54, 123
17, 52080, Note_on_c, 8, 54, 0
17, 52080, Note_on_c, 8, 51, 0
17, 52080, Note_on_c, 8, 51, 123
17, 52080, Note_on_c, 8, 54, 123
17, 52320, Note_on_c, 8, 54, 0
17, 52320, Note_on_c, 8, 51, 0
17, 52320, Note_on_c, 8, 51, 123
17, 52320, Note_on_c, 8, 54, 123
17, 52560, Note_on_c, 8, 54, 0
17, 52560, Note_on_c, 8, 51, 0
17, 52560, Note_on_c, 8, 51, 123
17, 52560, Note_on_c, 8, 54, 123
17, 52800, Note_on_c, 8, 54, 0
17, 52800, Note_on_c, 8, 51, 0
17, 52800, Note_on_c, 8, 51, 123
17, 52800, Note_on_c, 8, 54, 123
17, 53280, Note_on_c, 8, 54, 0
17, 53280, Note_on_c, 8, 51, 0
17, 54720, Note_on_c, 8, 53, 123
17, 55200, Note_on_c, 8, 53, 0
17, 59520, Note_on_c, 8, 63, 91
17, 60480, Note_on_c, 8, 63, 0
17, 60480, Note_on_c, 8, 65, 91
17, 61440, Note_on_c, 8, 65, 0
17, 61440, Note_on_c, 8, 62, 91
17, 62400, Note_on_c, 8, 62, 0
17, 62400, Note_on_c, 8, 63, 91
17, 63360, Note_on_c, 8, 63, 0
17, 63360, Note_on_c, 8, 63, 91
17, 64320, Note_on_c, 8, 63, 0
17, 64320, Note_on_c, 8, 65, 91
17, 65280, Note_on_c, 8, 65, 0
17, 65280, Note_on_c, 8, 62, 91
17, 66240, Note_on_c, 8, 62, 0
17, 66240, Note_on_c, 8, 63, 91
17, 67200, Note_on_c, 8, 63, 0
17, 67200, Note_on_c, 8, 63, 91
17, 68160, Note_on_c, 8, 63, 0
17, 68160, Note_on_c, 8, 65, 91
17, 69120, Note_on_c, 8, 65, 0
17, 69120, Note_on_c, 8, 62, 91
17, 70080, Note_on_c, 8, 62, 0
17, 70080, Note_on_c, 8, 63, 91
17, 71040, Note_on_c, 8, 63, 0
17, 71040, Note_on_c, 8, 63, 91
17, 72000, Note_on_c, 8, 63, 0
17, 72000, Note_on_c, 8, 65, 91
17, 72960, Note_on_c, 8, 65, 0
17, 72960, Note_on_c, 8, 65, 91
17, 73920, Note_on_c, 8, 65, 0
17, 73920, Note_on_c, 8, 60, 91
17, 74880, Note_on_c, 8, 60, 0
17, 74880, Note_on_c, 8, 65, 91
17, 75840, Note_on_c, 8, 65, 0
17, 75840, Note_on_c, 8, 67, 91
17, 76800, Note_on_c, 8, 67, 0
17, 76800, Note_on_c, 8, 67, 91
17, 77760, Note_on_c, 8, 67, 0
17, 77760, Note_on_c, 8, 63, 91
17, 78720, Note_on_c, 8, 63, 0
17, 79920, Note_on_c, 8, 57, 91
17, 80160, Note_on_c, 8, 57, 0
17, 80160, Note_on_c, 8, 57, 91
17, 80400, Note_on_c, 8, 57, 0
17, 80400, Note_on_c, 8, 57, 91
17, 80640, Note_on_c, 8, 57, 0
17, 80640, Note_on_c, 8, 57, 91
17, 81120, Note_on_c, 8, 57, 0
17, 81840, Note_on_c, 8, 58, 91
17, 82080, Note_on_c, 8, 58, 0
17, 82080, Note_on_c, 8, 58, 91
17, 82320, Note_on_c, 8, 58, 0
17, 82320, Note_on_c, 8, 58, 91
17, 82560, Note_on_c, 8, 58, 0
17, 82560, Note_on_c, 8, 58, 91
17, 83040, Note_on_c, 8, 58, 0
17, 83760, Note_on_c, 8, 59, 101
17, 84000, Note_on_c, 8, 59, 0
17, 84000, Note_on_c, 8, 59, 101
17, 84240, Note_on_c, 8, 59, 0
17, 84240, Note_on_c, 8, 59, 101
17, 84480, Note_on_c, 8, 59, 0
17, 84480, Note_on_c, 8, 59, 101
17, 84960, Note_on_c, 8, 59, 0
17, 85680, Note_on_c, 8, 60, 109
17, 85920, Note_on_c, 8, 60, 0
17, 85920, Note_on_c, 8, 60, 109
17, 86160, Note_on_c, 8, 60, 0
17, 86160, Note_on_c, 8, 60, 109
17, 86400, Note_on_c, 8, 60, 0
17, 86400, Note_on_c, 8, 60, 109
17, 86880, Note_on_c, 8, 60, 0
17, 87600, Note_on_c, 8, 60, 115
17, 87840, Note_on_c, 8, 60, 0
17, 87840, Note_on_c, 8, 60, 115
17, 88080, Note_on_c, 8, 60, 0
17, 88080, Note_on_c, 8, 60, 115
17, 88320, Note_on_c, 8, 60, 0
17, 88320, Note_on_c, 8, 60, 115
17, 88800, Note_on_c, 8, 60, 0
17, 88800, Note_on_c, 8, 60, 115
17, 89040, Note_on_c, 8, 60, 0
17, 89040, Note_on_c, 8, 60, 115
17, 89280, Note_on_c, 8, 60, 0
17, 89280, Note_on_c, 8, 62, 123
17, 90720, Note_on_c, 8, 62, 0
17, 90720, Note_on_c, 8, 50, 123
17, 91200, Note_on_c, 8, 50, 0
17, 91200, Note_on_c, 8, 51, 123
17, 91680, Note_on_c, 8, 51, 0
17, 92160, Note_on_c, 8, 53, 123
17, 92640, Note_on_c, 8, 53, 0
17, 93120, Note_on_c, 8, 55, 123
17, 93600, Note_on_c, 8, 55, 0
17, 94080, Note_on_c, 8, 56, 123
17, 94560, Note_on_c, 8, 56, 0
17, 95040, Note_on_c, 8, 58, 123
17, 95520, Note_on_c, 8, 58, 0
17, 96000, Note_on_c, 8, 58, 123
17, 96480, Note_on_c, 8, 58, 0
17, 96960, Note_on_c, 8, 53, 123
17, 97200, Note_on_c, 8, 53, 0
17, 97200, Note_on_c, 8, 53, 123
17, 97440, Note_on_c, 8, 53, 0
17, 97440, Note_on_c, 8, 58, 123
17, 97680, Note_on_c, 8, 58, 0
17, 97680, Note_on_c, 8, 58, 123
17, 97920, Note_on_c, 8, 58, 0
17, 97920, Note_on_c, 8, 53, 123
17, 98160, Note_on_c, 8, 53, 0
17, 98160, Note_on_c, 8, 53, 123
17, 98400, Note_on_c, 8, 53, 0
17, 98400, Note_on_c, 8, 58, 123
17, 98640, Note_on_c, 8, 58, 0
17, 98640, Note_on_c, 8, 58, 123
17, 98880, Note_on_c, 8, 58, 0
17, 98880, Note_on_c, 8, 55, 123
17, 99120, Note_on_c, 8, 55, 0
17, 99120, Note_on_c, 8, 55, 123
17, 99360, Note_on_c, 8, 55, 0
17, 99360, Note_on_c, 8, 58, 123
17, 99600, Note_on_c, 8, 58, 0
17, 99600, Note_on_c, 8, 58, 123
17, 99840, Note_on_c, 8, 58, 0
17, 99840, Note_on_c, 8, 56, 123
17, 100080, Note_on_c, 8, 56, 0
17, 100080, Note_on_c, 8, 56, 123
17, 100320, Note_on_c, 8, 56, 0
17, 100320, Note_on_c, 8, 58, 123
17, 100560, Note_on_c, 8, 58, 0
17, 100560, Note_on_c, 8, 58, 123
17, 100800, Note_on_c, 8, 58, 0
17, 100800, Note_on_c, 8, 65, 123
17, 101040, Note_on_c, 8, 65, 0
17, 101040, Note_on_c, 8, 63, 123
17, 101280, Note_on_c, 8, 63, 0
17, 101280, Note_on_c, 8, 58, 123
17, 101520, Note_on_c, 8, 58, 0
17, 101520, Note_on_c, 8, 55, 123
17, 101760, Note_on_c, 8, 55, 0
17, 101760, Note_on_c, 8, 62, 123
17, 102000, Note_on_c, 8, 62, 0
17, 102000, Note_on_c, 8, 60, 123
17, 102240, Note_on_c, 8, 60, 0
17, 102240, Note_on_c, 8, 56, 123
17, 102480, Note_on_c, 8, 56, 0
17, 102480, Note_on_c, 8, 53, 123
17, 102720, Note_on_c, 8, 53, 0
17, 102720, Note_on_c, 8, 60, 123
17, 102960, Note_on_c, 8, 60, 0
17, 102960, Note_on_c, 8, 58, 123
17, 103200, Note_on_c, 8, 58, 0
17, 103200, Note_on_c, 8, 55, 123
17, 103440, Note_on_c, 8, 55, 0
17, 103440, Note_on_c, 8, 51, 123
17, 103680, Note_on_c, 8, 51, 0
17, 103680, Note_on_c, 8, 50, 123
17, 103920, Note_on_c, 8, 50, 0
17, 103920, Note_on_c, 8, 53, 123
17, 103920, Note_on_c, 8, 62, 123
17, 104160, Note_on_c, 8, 62, 0
17, 104160, Note_on_c, 8, 53, 0
17, 104160, Note_on_c, 8, 56, 123
17, 104160, Note_on_c, 8, 65, 123
17, 104400, Note_on_c, 8, 65, 0
17, 104400, Note_on_c, 8, 56, 0
17, 104400, Note_on_c, 8, 53, 123
17, 104400, Note_on_c, 8, 62, 123
17, 104640, Note_on_c, 8, 62, 0
17, 104640, Note_on_c, 8, 53, 0
17, 104640, Note_on_c, 8, 55, 123
17, 107760, Note_on_c, 8, 55, 0
17, 107760, Note_on_c, 8, 58, 123
17, 108000, Note_on_c, 8, 58, 0
17, 108000, Note_on_c, 8, 58, 123
17, 108240, Note_on_c, 8, 58, 0
17, 108240, Note_on_c, 8, 58, 123
17, 108480, Note_on_c, 8, 58, 0
17, 108480, Note_on_c, 8, 58, 123
17, 111600, Note_on_c, 8, 58, 0
17, 111600, Note_on_c, 8, 58, 123
17, 111840, Note_on_c, 8, 58, 0
17, 111840, Note_on_c, 8, 58, 123
17, 112080, Note_on_c, 8, 58, 0
17, 112080, Note_on_c, 8, 58, 123
17, 112320, Note_on_c, 8, 58, 0
17, 112320, Note_on_c, 8, 58, 123
17, 112800, Note_on_c, 8, 58, 0
17, 113520, Note_on_c, 8, 58, 123
17, 113760, Note_on_c, 8, 58, 0
17, 113760, Note_on_c, 8, 58, 123
17, 114000, Note_on_c, 8, 58, 0
17, 114000, Note_on_c, 8, 58, 123
17, 114240, Note_on_c, 8, 58, 0
17, 114240, Note_on_c, 8, 58, 123
17, 114720, Note_on_c, 8, 58, 0
17, 115440, Note_on_c, 8, 58, 123
17, 115680, Note_on_c, 8, 58, 0
17, 115680, Note_on_c, 8, 58, 123
17, 115920, Note_on_c, 8, 58, 0
17, 115920, Note_on_c, 8, 58, 123
17, 116160, Note_on_c, 8, 58, 0
17, 116160, Note_on_c, 8, 63, 123
17, 116640, Note_on_c, 8, 63, 0
17, 119280, Note_on_c, 8, 55, 123
17, 119520, Note_on_c, 8, 55, 0
17, 119520, Note_on_c, 8, 55, 123
17, 119760, Note_on_c, 8, 55, 0
17, 119760, Note_on_c, 8, 55, 123
17, 120000, Note_on_c, 8, 55, 0
17, 120000, Note_on_c, 8, 51, 123
17, 120960, Note_on_c, 8, 51, 0
17, 121200, Note_on_c, 8, 53, 123
17, 121440, Note_on_c, 8, 53, 0
17, 121440, Note_on_c, 8, 53, 123
17, 121680, Note_on_c, 8, 53, 0
17, 121680, Note_on_c, 8, 53, 123
17, 121920, Note_on_c, 8, 53, 0
17, 121920, Note_on_c, 8, 50, 123
17, 123840, Note_on_c, 8, 50, 0
17, 125040, Note_on_c, 8, 68, 91
17, 125280, Note_on_c, 8, 68, 0
17, 125280, Note_on_c, 8, 68, 91
17, 125520, Note_on_c, 8, 68, 0
17, 125520, Note_on_c, 8, 68, 91
17, 125760, Note_on_c, 8, 68, 0
17, 125760, Note_on_c, 8, 67, 91
17, 128160, Note_on_c, 8, 67, 0
17, 128880, Note_on_c, 8, 68, 91
17, 129120, Note_on_c, 8, 68, 0
17, 129120, Note_on_c, 8, 68, 91
17, 129360, Note_on_c, 8, 68, 0
17, 129360, Note_on_c, 8, 68, 91
17, 129600, Note_on_c, 8, 68, 0
17, 129600, Note_on_c, 8, 67, 91
17, 130560, Note_on_c, 8, 67, 0
17, 130560, Note_on_c, 8, 62, 91
17, 132480, Note_on_c, 8, 62, 0
17, 132480, Note_on_c, 8, 63, 91
17, 132720, Note_on_c, 8, 63, 0
17, 132720, Note_on_c, 8, 63, 91
17, 132960, Note_on_c, 8, 63, 0
17, 132960, Note_on_c, 8, 63, 91
17, 133200, Note_on_c, 8, 63, 0
17, 133200, Note_on_c, 8, 65, 91
17, 133440, Note_on_c, 8, 65, 0
17, 133440, Note_on_c, 8, 67, 91
17, 134640, Note_on_c, 8, 67, 0
17, 134640, Note_on_c, 8, 63, 91
17, 134880, Note_on_c, 8, 63, 0
17, 134880, Note_on_c, 8, 63, 91
17, 135120, Note_on_c, 8, 63, 0
17, 135120, Note_on_c, 8, 65, 91
17, 135360, Note_on_c, 8, 65, 0
17, 135360, Note_on_c, 8, 67, 91
17, 136080, Note_on_c, 8, 67, 0
17, 136080, Note_on_c, 8, 62, 109
17, 136320, Note_on_c, 8, 62, 0
17, 136320, Note_on_c, 8, 63, 115
17, 136800, Note_on_c, 8, 63, 0
17, 137280, Note_on_c, 8, 56, 115
17, 137760, Note_on_c, 8, 56, 0
17, 138240, Note_on_c, 8, 55, 115
17, 138720, Note_on_c, 8, 55, 0
17, 139440, Note_on_c, 8, 56, 123
17, 139680, Note_on_c, 8, 56, 0
17, 139680, Note_on_c, 8, 56, 123
17, 139920, Note_on_c, 8, 56, 0
17, 139920, Note_on_c, 8, 56, 123
17, 140160, Note_on_c, 8, 56, 0
17, 140160, Note_on_c, 8, 53, 123
17, 142080, Note_on_c, 8, 53, 0
17, 144240, Note_on_c, 8, 56, 91
17, 144480, Note_on_c, 8, 56, 0
17, 144480, Note_on_c, 8, 56, 91
17, 144720, Note_on_c, 8, 56, 0
17, 144720, Note_on_c, 8, 56, 91
17, 144960, Note_on_c, 8, 56, 0
17, 144960, Note_on_c, 8, 55, 91
17, 146400, Note_on_c, 8, 55, 0
17, 148080, Note_on_c, 8, 56, 91
17, 148320, Note_on_c, 8, 56, 0
17, 148320, Note_on_c, 8, 56, 91
17, 148560, Note_on_c, 8, 56, 0
17, 148560, Note_on_c, 8, 56, 91
17, 148800, Note_on_c, 8, 56, 0
17, 148800, Note_on_c, 8, 55, 91
17, 150000, Note_on_c, 8, 55, 0
17, 150000, Note_on_c, 8, 63, 91
17, 150240, Note_on_c, 8, 63, 0
17, 150240, Note_on_c, 8, 63, 91
17, 150480, Note_on_c, 8, 63, 0
17, 150480, Note_on_c, 8, 60, 91
17, 150720, Note_on_c, 8, 60, 0
17, 150720, Note_on_c, 8, 62, 91
17, 151920, Note_on_c, 8, 62, 0
17, 151920, Note_on_c, 8, 65, 101
17, 152160, Note_on_c, 8, 65, 0
17, 152160, Note_on_c, 8, 65, 109
17, 152400, Note_on_c, 8, 65, 0
17, 152400, Note_on_c, 8, 62, 109
17, 152640, Note_on_c, 8, 62, 0
17, 152640, Note_on_c, 8, 63, 115
17, 153840, Note_on_c, 8, 63, 0
17, 153840, Note_on_c, 8, 63, 123
17, 154080, Note_on_c, 8, 63, 0
17, 154080, Note_on_c, 8, 63, 123
17, 154320, Note_on_c, 8, 63, 0
17, 154320, Note_on_c, 8, 60, 123
17, 154560, Note_on_c, 8, 60, 0
17, 154560, Note_on_c, 8, 65, 123
17, 154800, Note_on_c, 8, 65, 0
17, 154800, Note_on_c, 8, 65, 123
17, 155040, Note_on_c, 8, 65, 0
17, 155040, Note_on_c, 8, 65, 123
17, 155280, Note_on_c, 8, 65, 0
17, 155280, Note_on_c, 8, 59, 123
17, 155520, Note_on_c, 8, 59, 0
17, 155520, Note_on_c, 8, 67, 123
17, 155760, Note_on_c, 8, 67, 0
17, 155760, Note_on_c, 8, 67, 123
17, 156000, Note_on_c, 8, 67, 0
17, 156000, Note_on_c, 8, 67, 123
17, 156240, Note_on_c, 8, 67, 0
17, 156240, Note_on_c, 8, 58, 123
17, 156480, Note_on_c, 8, 58, 0
17, 156480, Note_on_c, 8, 68, 123
17, 156720, Note_on_c, 8, 68, 0
17, 156720, Note_on_c, 8, 56, 123
17, 156960, Note_on_c, 8, 56, 0
17, 156960, Note_on_c, 8, 56, 123
17, 157200, Note_on_c, 8, 56, 0
17, 157200, Note_on_c, 8, 53, 123
17, 157440, Note_on_c, 8, 53, 0
17, 157440, Note_on_c, 8, 58, 123
17, 157680, Note_on_c, 8, 58, 0
17, 157680, Note_on_c, 8, 58, 123
17, 157920, Note_on_c, 8, 58, 0
17, 157920, Note_on_c, 8, 58, 123
17, 158160, Note_on_c, 8, 58, 0
17, 158160, Note_on_c, 8, 55, 123
17, 158400, Note_on_c, 8, 55, 0
17, 158400, Note_on_c, 8, 60, 123
17, 158640, Note_on_c, 8, 60, 0
17, 158640, Note_on_c, 8, 60, 123
17, 158880, Note_on_c, 8, 60, 0
17, 158880, Note_on_c, 8, 60, 123
17, 159120, Note_on_c, 8, 60, 0
17, 159120, Note_on_c, 8, 56, 123
17, 159360, Note_on_c, 8, 56, 0
17, 159360, Note_on_c, 8, 65, 123
17, 159600, Note_on_c, 8, 65, 0
17, 159600, Note_on_c, 8, 65, 123
17, 159840, Note_on_c, 8, 65, 0
17, 159840, Note_on_c, 8, 65, 123
17, 160080, Note_on_c, 8, 65, 0
17, 160080, Note_on_c, 8, 62, 123
17, 160320, Note_on_c, 8, 62, 0
17, 160320, Note_on_c, 8, 63, 115
17, 160560, Note_on_c, 8, 63, 0
17, 160560, Note_on_c, 8, 48, 115
17, 160560, Note_on_c, 8, 51, 115
17, 160800, Note_on_c, 8, 51, 0
17, 160800, Note_on_c, 8, 48, 0
17, 160800, Note_on_c, 8, 48, 115
17, 160800, Note_on_c, 8, 51, 115
17, 161040, Note_on_c, 8, 51, 0
17, 161040, Note_on_c, 8, 48, 0
17, 161040, Note_on_c, 8, 48, 115
17, 161040, Note_on_c, 8, 51, 115
17, 161280, Note_on_c, 8, 51, 0
17, 161280, Note_on_c, 8, 48, 0
17, 161280, Note_on_c, 8, 48, 115
17, 161280, Note_on_c, 8, 51, 115
17, 161520, Note_on_c, 8, 51, 0
17, 161520, Note_on_c, 8, 48, 0
17, 161520, Note_on_c, 8, 48, 115
17, 161520, Note_on_c, 8, 51, 115
17, 161760, Note_on_c, 8, 51, 0
17, 161760, Note_on_c, 8, 48, 0
17, 161760, Note_on_c, 8, 48, 115
17, 161760, Note_on_c, 8, 51, 115
17, 162000, Note_on_c, 8, 51, 0
17, 162000, Note_on_c, 8, 48, 0
17, 162000, Note_on_c, 8, 48, 115
17, 162000, Note_on_c, 8, 51, 115
17, 162240, Note_on_c, 8, 51, 0
17, 162240, Note_on_c, 8, 48, 0
17, 162240, Note_on_c, 8, 48, 115
17, 162240, Note_on_c, 8, 51, 115
17, 162480, Note_on_c, 8, 51, 0
17, 162480, Note_on_c, 8, 48, 0
17, 162480, Note_on_c, 8, 48, 115
17, 162480, Note_on_c, 8, 51, 115
17, 162720, Note_on_c, 8, 51, 0
17, 162720, Note_on_c, 8, 48, 0
17, 162720, Note_on_c, 8, 48, 115
17, 162720, Note_on_c, 8, 51, 115
17, 162960, Note_on_c, 8, 51, 0
17, 162960, Note_on_c, 8, 48, 0
17, 162960, Note_on_c, 8, 48, 115
17, 162960, Note_on_c, 8, 51, 115
17, 163200, Note_on_c, 8, 51, 0
17, 163200, Note_on_c, 8, 48, 0
17, 163200, Note_on_c, 8, 48, 115
17, 163200, Note_on_c, 8, 51, 115
17, 163440, Note_on_c, 8, 51, 0
17, 163440, Note_on_c, 8, 48, 0
17, 163440, Note_on_c, 8, 48, 115
17, 163440, Note_on_c, 8, 51, 115
17, 163680, Note_on_c, 8, 51, 0
17, 163680, Note_on_c, 8, 48, 0
17, 163680, Note_on_c, 8, 48, 115
17, 163680, Note_on_c, 8, 51, 115
17, 163920, Note_on_c, 8, 51, 0
17, 163920, Note_on_c, 8, 48, 0
17, 163920, Note_on_c, 8, 48, 115
17, 163920, Note_on_c, 8, 51, 115
17, 164160, Note_on_c, 8, 51, 0
17, 164160, Note_on_c, 8, 48, 0
17, 164160, Note_on_c, 8, 50, 115
17, 164160, Note_on_c, 8, 53, 115
17, 164400, Note_on_c, 8, 53, 0
17, 164400, Note_on_c, 8, 50, 0
17, 164400, Note_on_c, 8, 50, 115
17, 164400, Note_on_c, 8, 53, 115
17, 164640, Note_on_c, 8, 53, 0
17, 164640, Note_on_c, 8, 50, 0
17, 164640, Note_on_c, 8, 50, 115
17, 164640, Note_on_c, 8, 53, 115
17, 164880, Note_on_c, 8, 53, 0
17, 164880, Note_on_c, 8, 50, 0
17, 164880, Note_on_c, 8, 50, 115
17, 164880, Note_on_c, 8, 53, 115
17, 165120, Note_on_c, 8, 53, 0
17, 165120, Note_on_c, 8, 50, 0
17, 165120, Note_on_c, 8, 50, 115
17, 165120, Note_on_c, 8, 53, 115
17, 165360, Note_on_c, 8, 53, 0
17, 165360, Note_on_c, 8, 50, 0
17, 165360, Note_on_c, 8, 50, 115
17, 165360, Note_on_c, 8, 53, 115
17, 165600, Note_on_c, 8, 53, 0
17, 165600, Note_on_c, 8, 50, 0
17, 165600, Note_on_c, 8, 50, 115
17, 165600, Note_on_c, 8, 53, 115
17, 165840, Note_on_c, 8, 53, 0
17, 165840, Note_on_c, 8, 50, 0
17, 165840, Note_on_c, 8, 50, 115
17, 165840, Note_on_c, 8, 53, 115
17, 166080, Note_on_c, 8, 53, 0
17, 166080, Note_on_c, 8, 50, 0
17, 166080, Note_on_c, 8, 50, 115
17, 166080, Note_on_c, 8, 53, 115
17, 166320, Note_on_c, 8, 53, 0
17, 166320, Note_on_c, 8, 50, 0
17, 166320, Note_on_c, 8, 50, 115
17, 166320, Note_on_c, 8, 53, 115
17, 166560, Note_on_c, 8, 53, 0
17, 166560, Note_on_c, 8, 50, 0
17, 166560, Note_on_c, 8, 50, 115
17, 166560, Note_on_c, 8, 53, 115
17, 166800, Note_on_c, 8, 53, 0
17, 166800, Note_on_c, 8, 50, 0
17, 166800, Note_on_c, 8, 50, 115
17, 166800, Note_on_c, 8, 53, 115
17, 167040, Note_on_c, 8, 53, 0
17, 167040, Note_on_c, 8, 50, 0
17, 167040, Note_on_c, 8, 50, 115
17, 167040, Note_on_c, 8, 53, 115
17, 167280, Note_on_c, 8, 53, 0
17, 167280, Note_on_c, 8, 50, 0
17, 167280, Note_on_c, 8, 50, 115
17, 167280, Note_on_c, 8, 53, 115
17, 167520, Note_on_c, 8, 53, 0
17, 167520, Note_on_c, 8, 50, 0
17, 167520, Note_on_c, 8, 48, 115
17, 167520, Note_on_c, 8, 51, 115
17, 167760, Note_on_c, 8, 51, 0
17, 167760, Note_on_c, 8, 48, 0
17, 167760, Note_on_c, 8, 48, 115
17, 167760, Note_on_c, 8, 51, 115
17, 168000, Note_on_c, 8, 51, 0
17, 168000, Note_on_c, 8, 48, 0
17, 168000, Note_on_c, 8, 48, 123
17, 168000, Note_on_c, 8, 51, 123
17, 168240, Note_on_c, 8, 51, 0
17, 168240, Note_on_c, 8, 48, 0
17, 168240, Note_on_c, 8, 51, 123
17, 168240, Note_on_c, 8, 54, 123
17, 168480, Note_on_c, 8, 54, 0
17, 168480, Note_on_c, 8, 51, 0
17, 168480, Note_on_c, 8, 51, 123
17, 168480, Note_on_c, 8, 54, 123
17, 168720, Note_on_c, 8, 54, 0
17, 168720, Note_on_c, 8, 51, 0
17, 168720, Note_on_c, 8, 51, 123
17, 168720, Note_on_c, 8, 54, 123
17, 168960, Note_on_c, 8, 54, 0
17, 168960, Note_on_c, 8, 51, 0
17, 168960, Note_on_c, 8, 51, 123
17, 168960, Note_on_c, 8, 54, 123
17, 169200, Note_on_c, 8, 54, 0
17, 169200, Note_on_c, 8, 51, 0
17, 169200, Note_on_c, 8, 51, 123
17, 169200, Note_on_c, 8, 54, 123
17, 169440, Note_on_c, 8, 54, 0
17, 169440, Note_on_c, 8, 51, 0
17, 169440, Note_on_c, 8, 51, 123
17, 169440, Note_on_c, 8, 54, 123
17, 169680, Note_on_c, 8, 54, 0
17, 169680, Note_on_c, 8, 51, 0
17, 169680, Note_on_c, 8, 51, 123
17, 169680, Note_on_c, 8, 54, 123
17, 169920, Note_on_c, 8, 54, 0
17, 169920, Note_on_c, 8, 51, 0
17, 169920, Note_on_c, 8, 51, 123
17, 169920, Note_on_c, 8, 54, 123
17, 170160, Note_on_c, 8, 54, 0
17, 170160, Note_on_c, 8, 51, 0
17, 170160, Note_on_c, 8, 51, 123
17, 170160, Note_on_c, 8, 54, 123
17, 170400, Note_on_c, 8, 54, 0
17, 170400, Note_on_c, 8, 51, 0
17, 170400, Note_on_c, 8, 51, 123
17, 170400, Note_on_c, 8, 54, 123
17, 170640, Note_on_c, 8, 54, 0
17, 170640, Note_on_c, 8, 51, 0
17, 170640, Note_on_c, 8, 51, 123
17, 170640, Note_on_c, 8, 54, 123
17, 170880, Note_on_c, 8, 54, 0
17, 170880, Note_on_c, 8, 51, 0
17, 170880, Note_on_c, 8, 51, 123
17, 170880, Note_on_c, 8, 54, 123
17, 171120, Note_on_c, 8, 54, 0
17, 171120, Note_on_c, 8, 51, 0
17, 171120, Note_on_c, 8, 51, 123
17, 171120, Note_on_c, 8, 54, 123
17, 171360, Note_on_c, 8, 54, 0
17, 171360, Note_on_c, 8, 51, 0
17, 171360, Note_on_c, 8, 51, 123
17, 171360, Note_on_c, 8, 54, 123
17, 171600, Note_on_c, 8, 54, 0
17, 171600, Note_on_c, 8, 51, 0
17, 171600, Note_on_c, 8, 51, 123
17, 171600, Note_on_c, 8, 54, 123
17, 171840, Note_on_c, 8, 54, 0
17, 171840, Note_on_c, 8, 51, 0
17, 171840, Note_on_c, 8, 51, 123
17, 171840, Note_on_c, 8, 54, 123
17, 172320, Note_on_c, 8, 54, 0
17, 172320, Note_on_c, 8, 51, 0
17, 173760, Note_on_c, 8, 53, 123
17, 174240, Note_on_c, 8, 53, 0
17, 178560, Note_on_c, 8, 63, 91
17, 179520, Note_on_c, 8, 63, 0
17, 179520, Note_on_c, 8, 65, 91
17, 180480, Note_on_c, 8, 65, 0
17, 180480, Note_on_c, 8, 62, 91
17, 181440, Note_on_c, 8, 62, 0
17, 181440, Note_on_c, 8, 63, 91
17, 182400, Note_on_c, 8, 63, 0
17, 182400, Note_on_c, 8, 63, 91
17, 183360, Note_on_c, 8, 63, 0
17, 183360, Note_on_c, 8, 65, 91
17, 184320, Note_on_c, 8, 65, 0
17, 184320, Note_on_c, 8, 62, 91
17, 185280, Note_on_c, 8, 62, 0
17, 185280, Note_on_c, 8, 63, 91
17, 186240, Note_on_c, 8, 63, 0
17, 186240, Note_on_c, 8, 63, 91
17, 187200, Note_on_c, 8, 63, 0
17, 187200, Note_on_c, 8, 65, 91
17, 188160, Note_on_c, 8, 65, 0
17, 188160, Note_on_c, 8, 62, 91
17, 189120, Note_on_c, 8, 62, 0
17, 189120, Note_on_c, 8, 63, 91
17, 190080, Note_on_c, 8, 63, 0
17, 190080, Note_on_c, 8, 63, 91
17, 191040, Note_on_c, 8, 63, 0
17, 191040, Note_on_c, 8, 65, 91
17, 192000, Note_on_c, 8, 65, 0
17, 192000, Note_on_c, 8, 65, 91
17, 192960, Note_on_c, 8, 65, 0
17, 192960, Note_on_c, 8, 60, 91
17, 193920, Note_on_c, 8, 60, 0
17, 193920, Note_on_c, 8, 65, 91
17, 194880, Note_on_c, 8, 65, 0
17, 194880, Note_on_c, 8, 67, 91
17, 195840, Note_on_c, 8, 67, 0
17, 195840, Note_on_c, 8, 67, 91
17, 196800, Note_on_c, 8, 67, 0
17, 196800, Note_on_c, 8, 63, 91
17, 197760, Note_on_c, 8, 63, 0
17, 198960, Note_on_c, 8, 57, 91
17, 199200, Note_on_c, 8, 57, 0
17, 199200, Note_on_c, 8, 57, 91
17, 199440, Note_on_c, 8, 57, 0
17, 199440, Note_on_c, 8, 57, 91
17, 199680, Note_on_c, 8, 57, 0
17, 199680, Note_on_c, 8, 57, 91
17, 200160, Note_on_c, 8, 57, 0
17, 200880, Note_on_c, 8, 58, 91
17, 201120, Note_on_c, 8, 58, 0
17, 201120, Note_on_c, 8, 58, 91
17, 201360, Note_on_c, 8, 58, 0
17, 201360, Note_on_c, 8, 58, 91
17, 201600, Note_on_c, 8, 58, 0
17, 201600, Note_on_c, 8, 58, 91
17, 202080, Note_on_c, 8, 58, 0
17, 202800, Note_on_c, 8, 59, 101
17, 203040, Note_on_c, 8, 59, 0
17, 203040, Note_on_c, 8, 59, 101
17, 203280, Note_on_c, 8, 59, 0
17, 203280, Note_on_c, 8, 59, 101
17, 203520, Note_on_c, 8, 59, 0
17, 203520, Note_on_c, 8, 59, 101
17, 204000, Note_on_c, 8, 59, 0
17, 204720, Note_on_c, 8, 60, 109
17, 204960, Note_on_c, 8, 60, 0
17, 204960, Note_on_c, 8, 60, 109
17, 205200, Note_on_c, 8, 60, 0
17, 205200, Note_on_c, 8, 60, 109
17, 205440, Note_on_c, 8, 60, 0
17, 205440, Note_on_c, 8, 60, 109
17, 205920, Note_on_c, 8, 60, 0
17, 206640, Note_on_c, 8, 60, 115
17, 206880, Note_on_c, 8, 60, 0
17, 206880, Note_on_c, 8, 60, 115
17, 207120, Note_on_c, 8, 60, 0
17, 207120, Note_on_c, 8, 60, 115
17, 207360, Note_on_c, 8, 60, 0
17, 207360, Note_on_c, 8, 60, 115
17, 207840, Note_on_c, 8, 60, 0
17, 207840, Note_on_c, 8, 60, 115
17, 208080, Note_on_c, 8, 60, 0
17, 208080, Note_on_c, 8, 60, 115
17, 208320, Note_on_c, 8, 60, 0
17, 208320, Note_on_c, 8, 62, 123
17, 209760, Note_on_c, 8, 62, 0
17, 209760, Note_on_c, 8, 50, 123
17, 210240, Note_on_c, 8, 50, 0
17, 210240, Note_on_c, 8, 51, 123
17, 210720, Note_on_c, 8, 51, 0
17, 211200, Note_on_c, 8, 53, 123
17, 211680, Note_on_c, 8, 53, 0
17, 212160, Note_on_c, 8, 55, 123
17, 212640, Note_on_c, 8, 55, 0
17, 213120, Note_on_c, 8, 56, 123
17, 213600, Note_on_c, 8, 56, 0
17, 214080, Note_on_c, 8, 58, 123
17, 214560, Note_on_c, 8, 58, 0
17, 215040, Note_on_c, 8, 58, 123
17, 215520, Note_on_c, 8, 58, 0
17, 216000, Note_on_c, 8, 53, 123
17, 216240, Note_on_c, 8, 53, 0
17, 216240, Note_on_c, 8, 53, 123
17, 216480, Note_on_c, 8, 53, 0
17, 216480, Note_on_c, 8, 58, 123
17, 216720, Note_on_c, 8, 58, 0
17, 216720, Note_on_c, 8, 58, 123
17, 216960, Note_on_c, 8, 58, 0
17, 216960, Note_on_c, 8, 53, 123
17, 217200, Note_on_c, 8, 53, 0
17, 217200, Note_on_c, 8, 53, 123
17, 217440, Note_on_c, 8, 53, 0
17, 217440, Note_on_c, 8, 58, 123
17, 217680, Note_on_c, 8, 58, 0
17, 217680, Note_on_c, 8, 58, 123
17, 217920, Note_on_c, 8, 58, 0
17, 217920, Note_on_c, 8, 55, 123
17, 218160, Note_on_c, 8, 55, 0
17, 218160, Note_on_c, 8, 55, 123
17, 218400, Note_on_c, 8, 55, 0
17, 218400, Note_on_c, 8, 58, 123
17, 218640, Note_on_c, 8, 58, 0
17, 218640, Note_on_c, 8, 58, 123
17, 218880, Note_on_c, 8, 58, 0
17, 218880, Note_on_c, 8, 56, 123
17, 219120, Note_on_c, 8, 56, 0
17, 219120, Note_on_c, 8, 56, 123
17, 219360, Note_on_c, 8, 56, 0
17, 219360, Note_on_c, 8, 58, 123
17, 219600, Note_on_c, 8, 58, 0
17, 219600, Note_on_c, 8, 58, 123
17, 219840, Note_on_c, 8, 58, 0
17, 219840, Note_on_c, 8, 65, 123
17, 220080, Note_on_c, 8, 65, 0
17, 220080, Note_on_c, 8, 63, 123
17, 220320, Note_on_c, 8, 63, 0
17, 220320, Note_on_c, 8, 58, 123
17, 220560, Note_on_c, 8, 58, 0
17, 220560, Note_on_c, 8, 55, 123
17, 220800, Note_on_c, 8, 55, 0
17, 220800, Note_on_c, 8, 62, 123
17, 221040, Note_on_c, 8, 62, 0
17, 221040, Note_on_c, 8, 60, 123
17, 221280, Note_on_c, 8, 60, 0
17, 221280, Note_on_c, 8, 56, 123
17, 221520, Note_on_c, 8, 56, 0
17, 221520, Note_on_c, 8, 53, 123
17, 221760, Note_on_c, 8, 53, 0
17, 221760, Note_on_c, 8, 60, 123
17, 222000, Note_on_c, 8, 60, 0
17, 222000, Note_on_c, 8, 58, 123
17, 222240, Note_on_c, 8, 58, 0
17, 222240, Note_on_c, 8, 55, 123
17, 222480, Note_on_c, 8, 55, 0
17, 222480, Note_on_c, 8, 51, 123
17, 222720, Note_on_c, 8, 51, 0
17, 222720, Note_on_c, 8, 50, 123
17, 222960, Note_on_c, 8, 50, 0
17, 222960, Note_on_c, 8, 53, 123
17, 222960, Note_on_c, 8, 62, 123
17, 223200, Note_on_c, 8, 62, 0
17, 223200, Note_on_c, 8, 53, 0
17, 223200, Note_on_c, 8, 56, 123
17, 223200, Note_on_c, 8, 65, 123
17, 223440, Note_on_c, 8, 65, 0
17, 223440, Note_on_c, 8, 56, 0
17, 223440, Note_on_c, 8, 53, 123
17, 223440, Note_on_c, 8, 62, 123
17, 223680, Note_on_c, 8, 62, 0
17, 223680, Note_on_c, 8, 53, 0
17, 223680, Note_on_c, 8, 55, 123
17, 226800, Note_on_c, 8, 55, 0
17, 226800, Note_on_c, 8, 58, 123
17, 227040, Note_on_c, 8, 58, 0
17, 227040, Note_on_c, 8, 58, 123
17, 227280, Note_on_c, 8, 58, 0
17, 227280, Note_on_c, 8, 58, 123
17, 227520, Note_on_c, 8, 58, 0
17, 227520, Note_on_c, 8, 58, 123
17, 230640, Note_on_c, 8, 58, 0
17, 230640, Note_on_c, 8, 58, 123
17, 230880, Note_on_c, 8, 58, 0
17, 230880, Note_on_c, 8, 58, 123
17, 231120, Note_on_c, 8, 58, 0
17, 231120, Note_on_c, 8, 58, 123
17, 231360, Note_on_c, 8, 58, 0
17, 231360, Note_on_c, 8, 58, 123
17, 231840, Note_on_c, 8, 58, 0
17, 232560, Note_on_c, 8, 58, 123
17, 232800, Note_on_c, 8, 58, 0
17, 232800, Note_on_c, 8, 58, 123
17, 233040, Note_on_c, 8, 58, 0
17, 233040, Note_on_c, 8, 58, 123
17, 233280, Note_on_c, 8, 58, 0
17, 233280, Note_on_c, 8, 58, 123
17, 233760, Note_on_c, 8, 58, 0
17, 234480, Note_on_c, 8, 58, 123
17, 234720, Note_on_c, 8, 58, 0
17, 234720, Note_on_c, 8, 58, 123
17, 234960, Note_on_c, 8, 58, 0
17, 234960, Note_on_c, 8, 58, 123
17, 235200, Note_on_c, 8, 58, 0
17, 235200, Note_on_c, 8, 63, 123
17, 235680, Note_on_c, 8, 63, 0
17, 239280, Note_on_c, 8, 49, 123
17, 239520, Note_on_c, 8, 49, 0
17, 239520, Note_on_c, 8, 49, 123
17, 239760, Note_on_c, 8, 49, 0
17, 239760, Note_on_c, 8, 49, 123
17, 240000, Note_on_c, 8, 49, 0
17, 240000, Note_on_c, 8, 48, 123
17, 241920, Note_on_c, 8, 48, 0
17, 242880, Note_on_c, 8, 60, 91
17, 245040, Note_on_c, 8, 60, 0
17, 245040, Note_on_c, 8, 61, 91
17, 245280, Note_on_c, 8, 61, 0
17, 245280, Note_on_c, 8, 61, 91
17, 245520, Note_on_c, 8, 61, 0
17, 245520, Note_on_c, 8, 61, 91
17, 245760, Note_on_c, 8, 61, 0
17, 245760, Note_on_c, 8, 60, 91
17, 248880, Note_on_c, 8, 60, 0
17, 248880, Note_on_c, 8, 61, 91
17, 249120, Note_on_c, 8, 61, 0
17, 249120, Note_on_c, 8, 61, 91
17, 249360, Note_on_c, 8, 61, 0
17, 249360, Note_on_c, 8, 61, 91
17, 249600, Note_on_c, 8, 61, 0
17, 249600, Note_on_c, 8, 60, 91
17, 253440, Note_on_c, 8, 60, 0
17, 253440, Note_on_c, 8, 60, 91
17, 255360, Note_on_c, 8, 60, 0
17, 255360, Note_on_c, 8, 62, 91
17, 255840, Note_on_c, 8, 62, 0
17, 255840, Note_on_c, 8, 63, 91
17, 256320, Note_on_c, 8, 63, 0
17, 256320, Note_on_c, 8, 65, 91
17, 256800, Note_on_c, 8, 65, 0
17, 256800, Note_on_c, 8, 66, 91
17, 257280, Note_on_c, 8, 66, 0
17, 257280, Note_on_c, 8, 67, 91
17, 257520, Note_on_c, 8, 67, 0
17, 257520, Note_on_c, 8, 67, 91
17, 257760, Note_on_c, 8, 67, 0
17, 257760, Note_on_c, 8, 67, 91
17, 258000, Note_on_c, 8, 67, 0
17, 258000, Note_on_c, 8, 65, 91
17, 258240, Note_on_c, 8, 65, 0
17, 258240, Note_on_c, 8, 63, 91
17, 259200, Note_on_c, 8, 63, 0
17, 259200, Note_on_c, 8, 62, 91
17, 259440, Note_on_c, 8, 62, 0
17, 259440, Note_on_c, 8, 67, 91
17, 259680, Note_on_c, 8, 67, 0
17, 259680, Note_on_c, 8, 67, 91
17, 259920, Note_on_c, 8, 67, 0
17, 259920, Note_on_c, 8, 65, 91
17, 260160, Note_on_c, 8, 65, 0
17, 260160, Note_on_c, 8, 63, 91
17, 261120, Note_on_c, 8, 63, 0
17, 261120, Note_on_c, 8, 62, 91
17, 261360, Note_on_c, 8, 62, 0
17, 261360, Note_on_c, 8, 67, 91
17, 261600, Note_on_c, 8, 67, 0
17, 261600, Note_on_c, 8, 67, 91
17, 261840, Note_on_c, 8, 67, 0
17, 261840, Note_on_c, 8, 65, 91
17, 262080, Note_on_c, 8, 65, 0
17, 262080, Note_on_c, 8, 63, 91
17, 262320, Note_on_c, 8, 63, 0
17, 262320, Note_on_c, 8, 63, 91
17, 262560, Note_on_c, 8, 63, 0
17, 262560, Note_on_c, 8, 63, 91
17, 262800, Note_on_c, 8, 63, 0
17, 262800, Note_on_c, 8, 62, 91
17, 263040, Note_on_c, 8, 62, 0
17, 263040, Note_on_c, 8, 60, 91
17, 263280, Note_on_c, 8, 60, 0
17, 263280, Note_on_c, 8, 60, 91
17, 263520, Note_on_c, 8, 60, 0
17, 263520, Note_on_c, 8, 60, 91
17, 263760, Note_on_c, 8, 60, 0
17, 263760, Note_on_c, 8, 58, 91
17, 264000, Note_on_c, 8, 58, 0
17, 264000, Note_on_c, 8, 57, 91
17, 264240, Note_on_c, 8, 57, 0
17, 264240, Note_on_c, 8, 57, 91
17, 264480, Note_on_c, 8, 57, 0
17, 264480, Note_on_c, 8, 57, 91
17, 264720, Note_on_c, 8, 57, 0
17, 264720, Note_on_c, 8, 55, 91
17, 264960, Note_on_c, 8, 55, 0
17, 264960, Note_on_c, 8, 54, 91
17, 265440, Note_on_c, 8, 54, 0
17, 266160, Note_on_c, 8, 58, 91
17, 266400, Note_on_c, 8, 58, 0
17, 266400, Note_on_c, 8, 58, 91
17, 266640, Note_on_c, 8, 58, 0
17, 266640, Note_on_c, 8, 60, 91
17, 266880, Note_on_c, 8, 60, 0
17, 266880, Note_on_c, 8, 62, 91
17, 268080, Note_on_c, 8, 62, 0
17, 268080, Note_on_c, 8, 58, 91
17, 268320, Note_on_c, 8, 58, 0
17, 268320, Note_on_c, 8, 58, 91
17, 268560, Note_on_c, 8, 58, 0
17, 268560, Note_on_c, 8, 60, 91
17, 268800, Note_on_c, 8, 60, 0
17, 268800, Note_on_c, 8, 62, 91
17, 269040, Note_on_c, 8, 62, 0
17, 269040, Note_on_c, 8, 62, 91
17, 269280, Note_on_c, 8, 62, 0
17, 269280, Note_on_c, 8, 62, 91
17, 269520, Note_on_c, 8, 62, 0
17, 269520, Note_on_c, 8, 60, 91
17, 269760, Note_on_c, 8, 60, 0
17, 269760, Note_on_c, 8, 58, 91
17, 270000, Note_on_c, 8, 58, 0
17, 270000, Note_on_c, 8, 58, 91
17, 270240, Note_on_c, 8, 58, 0
17, 270240, Note_on_c, 8, 58, 91
17, 270480, Note_on_c, 8, 58, 0
17, 270480, Note_on_c, 8, 57, 91
17, 270720, Note_on_c, 8, 57, 0
17, 270720, Note_on_c, 8, 55, 91
17, 270960, Note_on_c, 8, 55, 0
17, 270960, Note_on_c, 8, 55, 91
17, 271200, Note_on_c, 8, 55, 0
17, 271200, Note_on_c, 8, 55, 91
17, 271440, Note_on_c, 8, 55, 0
17, 271440, Note_on_c, 8, 53, 91
17, 271680, Note_on_c, 8, 53, 0
17, 271680, Note_on_c, 8, 51, 91
17, 271920, Note_on_c, 8, 51, 0
17, 271920, Note_on_c, 8, 51, 91
17, 272160, Note_on_c, 8, 51, 0
17, 272160, Note_on_c, 8, 51, 91
17, 272400, Note_on_c, 8, 51, 0
17, 272400, Note_on_c, 8, 50, 91
17, 272640, Note_on_c, 8, 50, 0
17, 272640, Note_on_c, 8, 48, 91
17, 272880, Note_on_c, 8, 48, 0
17, 272880, Note_on_c, 8, 60, 91
17, 273120, Note_on_c, 8, 60, 0
17, 273120, Note_on_c, 8, 60, 91
17, 273360, Note_on_c, 8, 60, 0
17, 273360, Note_on_c, 8, 58, 91
17, 273600, Note_on_c, 8, 58, 0
17, 273600, Note_on_c, 8, 57, 91
17, 273840, Note_on_c, 8, 57, 0
17, 273840, Note_on_c, 8, 57, 91
17, 274080, Note_on_c, 8, 57, 0
17, 274080, Note_on_c, 8, 57, 91
17, 274320, Note_on_c, 8, 57, 0
17, 274320, Note_on_c, 8, 55, 91
17, 274560, Note_on_c, 8, 55, 0
17, 274560, Note_on_c, 8, 54, 91
17, 274800, Note_on_c, 8, 54, 0
17, 274800, Note_on_c, 8, 54, 91
17, 275040, Note_on_c, 8, 54, 0
17, 275040, Note_on_c, 8, 54, 91
17, 275280, Note_on_c, 8, 54, 0
17, 275280, Note_on_c, 8, 51, 91
17, 275520, Note_on_c, 8, 51, 0
17, 275520, Note_on_c, 8, 50, 91
17, 275760, Note_on_c, 8, 50, 0
17, 275760, Note_on_c, 8, 50, 91
17, 276000, Note_on_c, 8, 50, 0
17, 276000, Note_on_c, 8, 50, 91
17, 276240, Note_on_c, 8, 50, 0
17, 276240, Note_on_c, 8, 48, 91
17, 276480, Note_on_c, 8, 48, 0
17, 276480, Note_on_c, 8, 58, 91
17, 276720, Note_on_c, 8, 58, 0
17, 276720, Note_on_c, 8, 62, 91
17, 276960, Note_on_c, 8, 62, 0
17, 276960, Note_on_c, 8, 62, 91
17, 277200, Note_on_c, 8, 62, 0
17, 277200, Note_on_c, 8, 60, 91
17, 277440, Note_on_c, 8, 60, 0
17, 277440, Note_on_c, 8, 58, 91
17, 277680, Note_on_c, 8, 58, 0
17, 277680, Note_on_c, 8, 58, 91
17, 277920, Note_on_c, 8, 58, 0
17, 277920, Note_on_c, 8, 58, 91
17, 278160, Note_on_c, 8, 58, 0
17, 278160, Note_on_c, 8, 57, 101
17, 278400, Note_on_c, 8, 57, 0
17, 278400, Note_on_c, 8, 55, 101
17, 278640, Note_on_c, 8, 55, 0
17, 278640, Note_on_c, 8, 53, 109
17, 278880, Note_on_c, 8, 53, 0
17, 278880, Note_on_c, 8, 51, 109
17, 279120, Note_on_c, 8, 51, 0
17, 279120, Note_on_c, 8, 50, 109
17, 279360, Note_on_c, 8, 50, 0
17, 279360, Note_on_c, 8, 48, 115
17, 279600, Note_on_c, 8, 48, 0
17, 279600, Note_on_c, 8, 48, 115
17, 279600, Note_on_c, 8, 60, 115
17, 279840, Note_on_c, 8, 60, 0
17, 279840, Note_on_c, 8, 48, 0
17, 279840, Note_on_c, 8, 48, 115
17, 279840, Note_on_c, 8, 60, 115
17, 280080, Note_on_c, 8, 60, 0
17, 280080, Note_on_c, 8, 48, 0
17, 280080, Note_on_c, 8, 48, 115
17, 280080, Note_on_c, 8, 60, 115
17, 280320, Note_on_c, 8, 60, 0
17, 280320, Note_on_c, 8, 48, 0
17, 280320, Note_on_c, 8, 48, 115
17, 280320, Note_on_c, 8, 60, 115
17, 280560, Note_on_c, 8, 60, 0
17, 280560, Note_on_c, 8, 48, 0
17, 280560, Note_on_c, 8, 48, 115
17, 280560, Note_on_c, 8, 60, 115
17, 280800, Note_on_c, 8, 60, 0
17, 280800, Note_on_c, 8, 48, 0
17, 280800, Note_on_c, 8, 48, 115
17, 280800, Note_on_c, 8, 60, 115
17, 281040, Note_on_c, 8, 60, 0
17, 281040, Note_on_c, 8, 48, 0
17, 281040, Note_on_c, 8, 48, 115
17, 281040, Note_on_c, 8, 60, 115
17, 281280, Note_on_c, 8, 60, 0
17, 281280, Note_on_c, 8, 48, 0
17, 281280, Note_on_c, 8, 48, 115
17, 281280, Note_on_c, 8, 60, 115
17, 281760, Note_on_c, 8, 60, 0
17, 281760, Note_on_c, 8, 48, 0
17, 282480, Note_on_c, 8, 49, 115
17, 282720, Note_on_c, 8, 49, 0
17, 282720, Note_on_c, 8, 49, 115
17, 282960, Note_on_c, 8, 49, 0
17, 282960, Note_on_c, 8, 49, 115
17, 283200, Note_on_c, 8, 49, 0
17, 283200, Note_on_c, 8, 49, 115
17, 283440, Note_on_c, 8, 49, 0
17, 283440, Note_on_c, 8, 61, 115
17, 283680, Note_on_c, 8, 61, 0
17, 283680, Note_on_c, 8, 61, 115
17, 283920, Note_on_c, 8, 61, 0
17, 283920, Note_on_c, 8, 61, 115
17, 284160, Note_on_c, 8, 61, 0
17, 284160, Note_on_c, 8, 61, 115
17, 284400, Note_on_c, 8, 61, 0
17, 284400, Note_on_c, 8, 61, 115
17, 284640, Note_on_c, 8, 61, 0
17, 284640, Note_on_c, 8, 61, 115
17, 284880, Note_on_c, 8, 61, 0
17, 284880, Note_on_c, 8, 61, 115
17, 285120, Note_on_c, 8, 61, 0
17, 285120, Note_on_c, 8, 61, 115
17, 285600, Note_on_c, 8, 61, 0
17, 286320, Note_on_c, 8, 62, 115
17, 286560, Note_on_c, 8, 62, 0
17, 286560, Note_on_c, 8, 62, 115
17, 286800, Note_on_c, 8, 62, 0
17, 286800, Note_on_c, 8, 62, 115
17, 287040, Note_on_c, 8, 62, 0
17, 287040, Note_on_c, 8, 62, 115
17, 287520, Note_on_c, 8, 62, 0
17, 288480, Note_on_c, 8, 64, 115
17, 288720, Note_on_c, 8, 64, 0
17, 288720, Note_on_c, 8, 64, 115
17, 288960, Note_on_c, 8, 64, 0
17, 288960, Note_on_c, 8, 64, 115
17, 289440, Note_on_c, 8, 64, 0
17, 289440, Note_on_c, 8, 54, 115
17, 289680, Note_on_c, 8, 54, 0
17, 289680, Note_on_c, 8, 54, 115
17, 289920, Note_on_c, 8, 54, 0
17, 289920, Note_on_c, 8, 54, 115
17, 290400, Note_on_c, 8, 54, 0
17, 293280, Note_on_c, 8, 72, 115
17, 294240, Note_on_c, 8, 72, 0
17, 294240, Note_on_c, 8, 69, 115
17, 294720, Note_on_c, 8, 69, 0
17, 294720, Note_on_c, 8, 66, 115
17, 295200, Note_on_c, 8, 66, 0
17, 295200, Note_on_c, 8, 62, 115
17, 295680, Note_on_c, 8, 62, 0
17, 295680, Note_on_c, 8, 60, 115
17, 296160, Note_on_c, 8, 60, 0
17, 296160, Note_on_c, 8, 57, 115
17, 296640, Note_on_c, 8, 57, 0
17, 296640, Note_on_c, 8, 54, 115
17, 297120, Note_on_c, 8, 54, 0
17, 297120, Note_on_c, 8, 50, 115
17, 297600, Note_on_c, 8, 50, 0
17, 297600, Note_on_c, 8, 55, 115
17, 298080, Note_on_c, 8, 55, 0
17, 300960, Note_on_c, 8, 77, 115
17, 301920, Note_on_c, 8, 77, 0
17, 301920, Note_on_c, 8, 74, 115
17, 302400, Note_on_c, 8, 74, 0
17, 302400, Note_on_c, 8, 71, 115
17, 302880, Note_on_c, 8, 71, 0
17, 302880, Note_on_c, 8, 67, 115
17, 303360, Note_on_c, 8, 67, 0
17, 303360, Note_on_c, 8, 65, 115
17, 303840, Note_on_c, 8, 65, 0
17, 303840, Note_on_c, 8, 62, 115
17, 304320, Note_on_c, 8, 62, 0
17, 304320, Note_on_c, 8, 59, 115
17, 304800, Note_on_c, 8, 59, 0
17, 304800, Note_on_c, 8, 55, 115
17, 305280, Note_on_c, 8, 55, 0
17, 305280, Note_on_c, 8, 60, 115
17, 305760, Note_on_c, 8, 60, 0
17, 308160, Note_on_c, 8, 48, 115
17, 308160, Note_on_c, 8, 60, 115
17, 309120, Note_on_c, 8, 60, 0
17, 309120, Note_on_c, 8, 48, 0
17, 309120, Note_on_c, 8, 48, 115
17, 309120, Note_on_c, 8, 60, 115
17, 310080, Note_on_c, 8, 60, 0
17, 310080, Note_on_c, 8, 48, 0
17, 312000, Note_on_c, 8, 55, 115
17, 312960, Note_on_c, 8, 55, 0
17, 312960, Note_on_c, 8, 56, 115
17, 313920, Note_on_c, 8, 56, 0
17, 315840, Note_on_c, 8, 58, 115
17, 316800, Note_on_c, 8, 58, 0
17, 316800, Note_on_c, 8, 51, 115
17, 317760, Note_on_c, 8, 51, 0
17, 319680, Note_on_c, 8, 53, 115
17, 320640, Note_on_c, 8, 53, 0
17, 321600, Note_on_c, 8, 54, 115
17, 322560, Note_on_c, 8, 54, 0
17, 323520, Note_on_c, 8, 53, 109
17, 324480, Note_on_c, 8, 53, 0
17, 325440, Note_on_c, 8, 54, 101
17, 326400, Note_on_c, 8, 54, 0
17, 327360, Note_on_c, 8, 54, 91
17, 328320, Note_on_c, 8, 54, 0
17, 329280, Note_on_c, 8, 54, 91
17, 330240, Note_on_c, 8, 54, 0
17, 331200, Note_on_c, 8, 50, 78
17, 332160, Note_on_c, 8, 50, 0
17, 333120, Note_on_c, 8, 50, 78
17, 334080, Note_on_c, 8, 50, 0
17, 335040, Note_on_c, 8, 50, 78
17, 336000, Note_on_c, 8, 50, 0
17, 336960, Note_on_c, 8, 50, 123
17, 337200, Note_on_c, 8, 50, 0
17, 337200, Note_on_c, 8, 50, 123
17, 337200, Note_on_c, 8, 62, 123
17, 337440, Note_on_c, 8, 62, 0
17, 337440, Note_on_c, 8, 50, 0
17, 337440, Note_on_c, 8, 50, 123
17, 337440, Note_on_c, 8, 62, 123
17, 337680, Note_on_c, 8, 62, 0
17, 337680, Note_on_c, 8, 50, 0
17, 337680, Note_on_c, 8, 50, 123
17, 337680, Note_on_c, 8, 62, 123
17, 337920, Note_on_c, 8, 62, 0
17, 337920, Note_on_c, 8, 50, 0
17, 337920, Note_on_c, 8, 50, 123
17, 337920, Note_on_c, 8, 62, 123
17, 338880, Note_on_c, 8, 62, 0
17, 338880, Note_on_c, 8, 50, 0
17, 338880, Note_on_c, 8, 50, 123
17, 338880, Note_on_c, 8, 62, 123
17, 339840, Note_on_c, 8, 62, 0
17, 339840, Note_on_c, 8, 50, 0
17, 339840, Note_on_c, 8, 50, 123
17, 339840, Note_on_c, 8, 62, 123
17, 341760, Note_on_c, 8, 62, 0
17, 341760, Note_on_c, 8, 50, 0
17, 342720, Note_on_c, 8, 53, 78
17, 343680, Note_on_c, 8, 53, 0
17, 344640, Note_on_c, 8, 53, 78
17, 345600, Note_on_c, 8, 53, 0
17, 346560, Note_on_c, 8, 53, 78
17, 347520, Note_on_c, 8, 53, 0
17, 348480, Note_on_c, 8, 53, 115
17, 348960, Note_on_c, 8, 53, 0
17, 349680, Note_on_c, 8, 56, 123
17, 349920, Note_on_c, 8, 56, 0
17, 349920, Note_on_c, 8, 56, 123
17, 350160, Note_on_c, 8, 56, 0
17, 350160, Note_on_c, 8, 56, 123
17, 350400, Note_on_c, 8, 56, 0
17, 350400, Note_on_c, 8, 53, 123
17, 351600, Note_on_c, 8, 53, 0
17, 351600, Note_on_c, 8, 56, 123
17, 351840, Note_on_c, 8, 56, 0
17, 351840, Note_on_c, 8, 56, 123
17, 352080, Note_on_c, 8, 56, 0
17, 352080, Note_on_c, 8, 56, 123
17, 352320, Note_on_c, 8, 56, 0
17, 352320, Note_on_c, 8, 53, 123
17, 353520, Note_on_c, 8, 53, 0
17, 353520, Note_on_c, 8, 56, 123
17, 353760, Note_on_c, 8, 56, 0
17, 353760, Note_on_c, 8, 56, 123
17, 354000, Note_on_c, 8, 56, 0
17, 354000, Note_on_c, 8, 56, 123
17, 354240, Note_on_c, 8, 56, 0
17, 354240, Note_on_c, 8, 53, 123
17, 354480, Note_on_c, 8, 53, 0
17, 354480, Note_on_c, 8, 56, 123
17, 354720, Note_on_c, 8, 56, 0
17, 354720, Note_on_c, 8, 56, 123
17, 354960, Note_on_c, 8, 56, 0
17, 354960, Note_on_c, 8, 56, 123
17, 355200, Note_on_c, 8, 56, 0
17, 355200, Note_on_c, 8, 53, 123
17, 355440, Note_on_c, 8, 53, 0
17, 355440, Note_on_c, 8, 56, 123
17, 355680, Note_on_c, 8, 56, 0
17, 355680, Note_on_c, 8, 56, 123
17, 355920, Note_on_c, 8, 56, 0
17, 355920, Note_on_c, 8, 56, 123
17, 356160, Note_on_c, 8, 56, 0
17, 356160, Note_on_c, 8, 53, 123
17, 356400, Note_on_c, 8, 53, 0
17, 356400, Note_on_c, 8, 55, 123
17, 356640, Note_on_c, 8, 55, 0
17, 356640, Note_on_c, 8, 55, 123
17, 356880, Note_on_c, 8, 55, 0
17, 356880, Note_on_c, 8, 55, 123
17, 357120, Note_on_c, 8, 55, 0
17, 357120, Note_on_c, 8, 51, 123
17, 358080, Note_on_c, 8, 51, 0
17, 358320, Note_on_c, 8, 53, 123
17, 358560, Note_on_c, 8, 53, 0
17, 358560, Note_on_c, 8, 53, 123
17, 358800, Note_on_c, 8, 53, 0
17, 358800, Note_on_c, 8, 53, 123
17, 359040, Note_on_c, 8, 53, 0
17, 359040, Note_on_c, 8, 50, 123
17, 360960, Note_on_c, 8, 50, 0
17, 361920, Note_on_c, 8, 60, 91
17, 362400, Note_on_c, 8, 60, 0
17, 363840, Note_on_c, 8, 60, 91
17, 364320, Note_on_c, 8, 60, 0
17, 365760, Note_on_c, 8, 59, 91
17, 366240, Note_on_c, 8, 59, 0
17, 367680, Note_on_c, 8, 59, 91
17, 368160, Note_on_c, 8, 59, 0
17, 369600, Note_on_c, 8, 60, 91
17, 370080, Note_on_c, 8, 60, 0
17, 370560, Note_on_c, 8, 59, 91
17, 371040, Note_on_c, 8, 59, 0
17, 371760, Note_on_c, 8, 51, 91
17, 372000, Note_on_c, 8, 51, 0
17, 372000, Note_on_c, 8, 51, 91
17, 372240, Note_on_c, 8, 51, 0
17, 372240, Note_on_c, 8, 53, 91
17, 372480, Note_on_c, 8, 53, 0
17, 372480, Note_on_c, 8, 55, 91
17, 372720, Note_on_c, 8, 55, 0
17, 372720, Note_on_c, 8, 55, 91
17, 372960, Note_on_c, 8, 55, 0
17, 372960, Note_on_c, 8, 57, 91
17, 373200, Note_on_c, 8, 57, 0
17, 373200, Note_on_c, 8, 59, 91
17, 373440, Note_on_c, 8, 59, 0
17, 373440, Note_on_c, 8, 60, 91
17, 373920, Note_on_c, 8, 60, 0
17, 374400, Note_on_c, 8, 56, 91
17, 374880, Note_on_c, 8, 56, 0
17, 375360, Note_on_c, 8, 55, 123
17, 375840, Note_on_c, 8, 55, 0
17, 382320, Note_on_c, 8, 56, 91
17, 382560, Note_on_c, 8, 56, 0
17, 382560, Note_on_c, 8, 56, 91
17, 382800, Note_on_c, 8, 56, 0
17, 382800, Note_on_c, 8, 56, 91
17, 383040, Note_on_c, 8, 56, 0
17, 383040, Note_on_c, 8, 55, 91
17, 384000, Note_on_c, 8, 55, 0
17, 384000, Note_on_c, 8, 55, 91
17, 384240, Note_on_c, 8, 55, 0
17, 384240, Note_on_c, 8, 56, 91
17, 384480, Note_on_c, 8, 56, 0
17, 384480, Note_on_c, 8, 56, 91
17, 384720, Note_on_c, 8, 56, 0
17, 384720, Note_on_c, 8, 56, 91
17, 384960, Note_on_c, 8, 56, 0
17, 384960, Note_on_c, 8, 53, 101
17, 385200, Note_on_c, 8, 53, 0
17, 385200, Note_on_c, 8, 50, 101
17, 385440, Note_on_c, 8, 50, 0
17, 385440, Note_on_c, 8, 50, 101
17, 385680, Note_on_c, 8, 50, 0
17, 385680, Note_on_c, 8, 50, 101
17, 385920, Note_on_c, 8, 50, 0
17, 385920, Note_on_c, 8, 59, 101
17, 386160, Note_on_c, 8, 59, 0
17, 386160, Note_on_c, 8, 56, 101
17, 386400, Note_on_c, 8, 56, 0
17, 386400, Note_on_c, 8, 56, 109
17, 386640, Note_on_c, 8, 56, 0
17, 386640, Note_on_c, 8, 56, 109
17, 386880, Note_on_c, 8, 56, 0
17, 386880, Note_on_c, 8, 55, 109
17, 387120, Note_on_c, 8, 55, 0
17, 387120, Note_on_c, 8, 55, 109
17, 387360, Note_on_c, 8, 55, 0
17, 387360, Note_on_c, 8, 55, 109
17, 387600, Note_on_c, 8, 55, 0
17, 387600, Note_on_c, 8, 55, 109
17, 387840, Note_on_c, 8, 55, 0
17, 387840, Note_on_c, 8, 55, 115
17, 388080, Note_on_c, 8, 55, 0
17, 388080, Note_on_c, 8, 60, 115
17, 388320, Note_on_c, 8, 60, 0
17, 388320, Note_on_c, 8, 63, 115
17, 388560, Note_on_c, 8, 63, 0
17, 388560, Note_on_c, 8, 63, 115
17, 388800, Note_on_c, 8, 63, 0
17, 388800, Note_on_c, 8, 62, 115
17, 390000, Note_on_c, 8, 62, 0
17, 390000, Note_on_c, 8, 65, 115
17, 390240, Note_on_c, 8, 65, 0
17, 390240, Note_on_c, 8, 65, 115
17, 390480, Note_on_c, 8, 65, 0
17, 390480, Note_on_c, 8, 62, 115
17, 390720, Note_on_c, 8, 62, 0
17, 390720, Note_on_c, 8, 63, 115
17, 391920, Note_on_c, 8, 63, 0
17, 391920, Note_on_c, 8, 63, 115
17, 392160, Note_on_c, 8, 63, 0
17, 392160, Note_on_c, 8, 63, 115
17, 392400, Note_on_c, 8, 63, 0
17, 392400, Note_on_c, 8, 60, 115
17, 392640, Note_on_c, 8, 60, 0
17, 392640, Note_on_c, 8, 65, 115
17, 392880, Note_on_c, 8, 65, 0
17, 392880, Note_on_c, 8, 65, 115
17, 393120, Note_on_c, 8, 65, 0
17, 393120, Note_on_c, 8, 65, 115
17, 393360, Note_on_c, 8, 65, 0
17, 393360, Note_on_c, 8, 59, 115
17, 393600, Note_on_c, 8, 59, 0
17, 393600, Note_on_c, 8, 67, 115
17, 393840, Note_on_c, 8, 67, 0
17, 393840, Note_on_c, 8, 67, 115
17, 394080, Note_on_c, 8, 67, 0
17, 394080, Note_on_c, 8, 67, 115
17, 394320, Note_on_c, 8, 67, 0
17, 394320, Note_on_c, 8, 58, 115
17, 394560, Note_on_c, 8, 58, 0
17, 394560, Note_on_c, 8, 68, 115
17, 394800, Note_on_c, 8, 68, 0
17, 394800, Note_on_c, 8, 56, 115
17, 395040, Note_on_c, 8, 56, 0
17, 395040, Note_on_c, 8, 56, 115
17, 395280, Note_on_c, 8, 56, 0
17, 395280, Note_on_c, 8, 53, 115
17, 395520, Note_on_c, 8, 53, 0
17, 395520, Note_on_c, 8, 58, 115
17, 395760, Note_on_c, 8, 58, 0
17, 395760, Note_on_c, 8, 58, 115
17, 396000, Note_on_c, 8, 58, 0
17, 396000, Note_on_c, 8, 58, 115
17, 396240, Note_on_c, 8, 58, 0
17, 396240, Note_on_c, 8, 55, 115
17, 396480, Note_on_c, 8, 55, 0
17, 396480, Note_on_c, 8, 60, 115
17, 396720, Note_on_c, 8, 60, 0
17, 396720, Note_on_c, 8, 60, 115
17, 396960, Note_on_c, 8, 60, 0
17, 396960, Note_on_c, 8, 60, 115
17, 397200, Note_on_c, 8, 60, 0
17, 397200, Note_on_c, 8, 56, 115
17, 397440, Note_on_c, 8, 56, 0
17, 397440, Note_on_c, 8, 65, 115
17, 397680, Note_on_c, 8, 65, 0
17, 397680, Note_on_c, 8, 65, 115
17, 397920, Note_on_c, 8, 65, 0
17, 397920, Note_on_c, 8, 65, 115
17, 398160, Note_on_c, 8, 65, 0
17, 398160, Note_on_c, 8, 62, 115
17, 398400, Note_on_c, 8, 62, 0
17, 398400, Note_on_c, 8, 63, 115
17, 398640, Note_on_c, 8, 63, 0
17, 398640, Note_on_c, 8, 48, 115
17, 398640, Note_on_c, 8, 51, 115
17, 398880, Note_on_c, 8, 51, 0
17, 398880, Note_on_c, 8, 48, 0
17, 398880, Note_on_c, 8, 48, 115
17, 398880, Note_on_c, 8, 51, 115
17, 399120, Note_on_c, 8, 51, 0
17, 399120, Note_on_c, 8, 48, 0
17, 399120, Note_on_c, 8, 48, 115
17, 399120, Note_on_c, 8, 51, 115
17, 399360, Note_on_c, 8, 51, 0
17, 399360, Note_on_c, 8, 48, 0
17, 399360, Note_on_c, 8, 48, 115
17, 399360, Note_on_c, 8, 51, 115
17, 399600, Note_on_c, 8, 51, 0
17, 399600, Note_on_c, 8, 48, 0
17, 399600, Note_on_c, 8, 48, 115
17, 399600, Note_on_c, 8, 51, 115
17, 399840, Note_on_c, 8, 51, 0
17, 399840, Note_on_c, 8, 48, 0
17, 399840, Note_on_c, 8, 48, 115
17, 399840, Note_on_c, 8, 51, 115
17, 400080, Note_on_c, 8, 51, 0
17, 400080, Note_on_c, 8, 48, 0
17, 400080, Note_on_c, 8, 48, 115
17, 400080, Note_on_c, 8, 51, 115
17, 400320, Note_on_c, 8, 51, 0
17, 400320, Note_on_c, 8, 48, 0
17, 400320, Note_on_c, 8, 48, 115
17, 400320, Note_on_c, 8, 51, 115
17, 400560, Note_on_c, 8, 51, 0
17, 400560, Note_on_c, 8, 48, 0
17, 400560, Note_on_c, 8, 48, 115
17, 400560, Note_on_c, 8, 51, 115
17, 400800, Note_on_c, 8, 51, 0
17, 400800, Note_on_c, 8, 48, 0
17, 400800, Note_on_c, 8, 48, 115
17, 400800, Note_on_c, 8, 51, 115
17, 401040, Note_on_c, 8, 51, 0
17, 401040, Note_on_c, 8, 48, 0
17, 401040, Note_on_c, 8, 48, 115
17, 401040, Note_on_c, 8, 51, 115
17, 401280, Note_on_c, 8, 51, 0
17, 401280, Note_on_c, 8, 48, 0
17, 401280, Note_on_c, 8, 48, 115
17, 401280, Note_on_c, 8, 51, 115
17, 401520, Note_on_c, 8, 51, 0
17, 401520, Note_on_c, 8, 48, 0
17, 401520, Note_on_c, 8, 48, 115
17, 401520, Note_on_c, 8, 51, 115
17, 401760, Note_on_c, 8, 51, 0
17, 401760, Note_on_c, 8, 48, 0
17, 401760, Note_on_c, 8, 48, 115
17, 401760, Note_on_c, 8, 51, 115
17, 402000, Note_on_c, 8, 51, 0
17, 402000, Note_on_c, 8, 48, 0
17, 402000, Note_on_c, 8, 48, 115
17, 402000, Note_on_c, 8, 51, 115
17, 402240, Note_on_c, 8, 51, 0
17, 402240, Note_on_c, 8, 48, 0
17, 402240, Note_on_c, 8, 50, 115
17, 402240, Note_on_c, 8, 53, 115
17, 402480, Note_on_c, 8, 53, 0
17, 402480, Note_on_c, 8, 50, 0
17, 402480, Note_on_c, 8, 50, 115
17, 402480, Note_on_c, 8, 53, 115
17, 402720, Note_on_c, 8, 53, 0
17, 402720, Note_on_c, 8, 50, 0
17, 402720, Note_on_c, 8, 50, 115
17, 402720, Note_on_c, 8, 53, 115
17, 402960, Note_on_c, 8, 53, 0
17, 402960, Note_on_c, 8, 50, 0
17, 402960, Note_on_c, 8, 50, 115
17, 402960, Note_on_c, 8, 53, 115
17, 403200, Note_on_c, 8, 53, 0
17, 403200, Note_on_c, 8, 50, 0
17, 403200, Note_on_c, 8, 50, 115
17, 403200, Note_on_c, 8, 53, 115
17, 403440, Note_on_c, 8, 53, 0
17, 403440, Note_on_c, 8, 50, 0
17, 403440, Note_on_c, 8, 50, 115
17, 403440, Note_on_c, 8, 53, 115
17, 403680, Note_on_c, 8, 53, 0
17, 403680, Note_on_c, 8, 50, 0
17, 403680, Note_on_c, 8, 50, 115
17, 403680, Note_on_c, 8, 53, 115
17, 403920, Note_on_c, 8, 53, 0
17, 403920, Note_on_c, 8, 50, 0
17, 403920, Note_on_c, 8, 50, 115
17, 403920, Note_on_c, 8, 53, 115
17, 404160, Note_on_c, 8, 53, 0
17, 404160, Note_on_c, 8, 50, 0
17, 404160, Note_on_c, 8, 50, 115
17, 404160, Note_on_c, 8, 53, 115
17, 404400, Note_on_c, 8, 53, 0
17, 404400, Note_on_c, 8, 50, 0
17, 404400, Note_on_c, 8, 50, 115
17, 404400, Note_on_c, 8, 53, 115
17, 404640, Note_on_c, 8, 53, 0
17, 404640, Note_on_c, 8, 50, 0
17, 404640, Note_on_c, 8, 50, 115
17, 404640, Note_on_c, 8, 53, 115
17, 404880, Note_on_c, 8, 53, 0
17, 404880, Note_on_c, 8, 50, 0
17, 404880, Note_on_c, 8, 50, 115
17, 404880, Note_on_c, 8, 53, 115
17, 405120, Note_on_c, 8, 53, 0
17, 405120, Note_on_c, 8, 50, 0
17, 405120, Note_on_c, 8, 50, 115
17, 405120, Note_on_c, 8, 53, 115
17, 405360, Note_on_c, 8, 53, 0
17, 405360, Note_on_c, 8, 50, 0
17, 405360, Note_on_c, 8, 50, 115
17, 405360, Note_on_c, 8, 53, 115
17, 405600, Note_on_c, 8, 53, 0
17, 405600, Note_on_c, 8, 50, 0
17, 405600, Note_on_c, 8, 48, 115
17, 405600, Note_on_c, 8, 51, 115
17, 405840, Note_on_c, 8, 51, 0
17, 405840, Note_on_c, 8, 48, 0
17, 405840, Note_on_c, 8, 48, 115
17, 405840, Note_on_c, 8, 51, 115
17, 406080, Note_on_c, 8, 51, 0
17, 406080, Note_on_c, 8, 48, 0
17, 406080, Note_on_c, 8, 51, 123
17, 406080, Note_on_c, 8, 57, 123
17, 406320, Note_on_c, 8, 57, 0
17, 406320, Note_on_c, 8, 51, 0
17, 406320, Note_on_c, 8, 75, 123
17, 406560, Note_on_c, 8, 75, 0
17, 406560, Note_on_c, 8, 75, 123
17, 406800, Note_on_c, 8, 75, 0
17, 406800, Note_on_c, 8, 75, 123
17, 407040, Note_on_c, 8, 75, 0
17, 407040, Note_on_c, 8, 72, 123
17, 407280, Note_on_c, 8, 72, 0
17, 407280, Note_on_c, 8, 69, 123
17, 407520, Note_on_c, 8, 69, 0
17, 407520, Note_on_c, 8, 69, 123
17, 407760, Note_on_c, 8, 69, 0
17, 407760, Note_on_c, 8, 69, 123
17, 408000, Note_on_c, 8, 69, 0
17, 408000, Note_on_c, 8, 66, 123
17, 408240, Note_on_c, 8, 66, 0
17, 408240, Note_on_c, 8, 63, 123
17, 408480, Note_on_c, 8, 63, 0
17, 408480, Note_on_c, 8, 63, 123
17, 408720, Note_on_c, 8, 63, 0
17, 408720, Note_on_c, 8, 63, 123
17, 408960, Note_on_c, 8, 63, 0
17, 408960, Note_on_c, 8, 60, 123
17, 409200, Note_on_c, 8, 60, 0
17, 409200, Note_on_c, 8, 57, 123
17, 409440, Note_on_c, 8, 57, 0
17, 409440, Note_on_c, 8, 57, 123
17, 409680, Note_on_c, 8, 57, 0
17, 409680, Note_on_c, 8, 57, 123
17, 409920, Note_on_c, 8, 57, 0
17, 409920, Note_on_c, 8, 60, 123
17, 410400, Note_on_c, 8, 60, 0
17, 411840, Note_on_c, 8, 59, 123
17, 411840, Note_on_c, 8, 62, 123
17, 412320, Note_on_c, 8, 62, 0
17, 412320, Note_on_c, 8, 59, 0
17, 416640, Note_on_c, 8, 60, 91
17, 417600, Note_on_c, 8, 60, 0
17, 417600, Note_on_c, 8, 62, 91
17, 418560, Note_on_c, 8, 62, 0
17, 418560, Note_on_c, 8, 59, 91
17, 419520, Note_on_c, 8, 59, 0
17, 419520, Note_on_c, 8, 60, 91
17, 420480, Note_on_c, 8, 60, 0
17, 424320, Note_on_c, 8, 60, 91
17, 425280, Note_on_c, 8, 60, 0
17, 425280, Note_on_c, 8, 62, 91
17, 426240, Note_on_c, 8, 62, 0
17, 426240, Note_on_c, 8, 59, 91
17, 427200, Note_on_c, 8, 59, 0
17, 427200, Note_on_c, 8, 60, 91
17, 428160, Note_on_c, 8, 60, 0
17, 432000, Note_on_c, 8, 67, 91
17, 432960, Note_on_c, 8, 67, 0
17, 432960, Note_on_c, 8, 64, 91
17, 433920, Note_on_c, 8, 64, 0
17, 433920, Note_on_c, 8, 64, 91
17, 434880, Note_on_c, 8, 64, 0
17, 434880, Note_on_c, 8, 60, 91
17, 435840, Note_on_c, 8, 60, 0
17, 435840, Note_on_c, 8, 65, 91
17, 436800, Note_on_c, 8, 65, 0
17, 436800, Note_on_c, 8, 66, 91
17, 437760, Note_on_c, 8, 66, 0
17, 437760, Note_on_c, 8, 66, 91
17, 438720, Note_on_c, 8, 66, 0
17, 438720, Note_on_c, 8, 62, 91
17, 439680, Note_on_c, 8, 62, 0
17, 440880, Note_on_c, 8, 56, 91
17, 441120, Note_on_c, 8, 56, 0
17, 441120, Note_on_c, 8, 56, 91
17, 441360, Note_on_c, 8, 56, 0
17, 441360, Note_on_c, 8, 56, 91
17, 441600, Note_on_c, 8, 56, 0
17, 441600, Note_on_c, 8, 56, 91
17, 442080, Note_on_c, 8, 56, 0
17, 442800, Note_on_c, 8, 59, 101
17, 443040, Note_on_c, 8, 59, 0
17, 443040, Note_on_c, 8, 59, 101
17, 443280, Note_on_c, 8, 59, 0
17, 443280, Note_on_c, 8, 59, 101
17, 443520, Note_on_c, 8, 59, 0
17, 443520, Note_on_c, 8, 59, 101
17, 444000, Note_on_c, 8, 59, 0
17, 445440, Note_on_c, 8, 53, 101
17, 445920, Note_on_c, 8, 53, 0
17, 445920, Note_on_c, 8, 55, 101
17, 446400, Note_on_c, 8, 55, 0
17, 446400, Note_on_c, 8, 56, 109
17, 446880, Note_on_c, 8, 56, 0
17, 446880, Note_on_c, 8, 55, 109
17, 447360, Note_on_c, 8, 55, 0
17, 447360, Note_on_c, 8, 54, 109
17, 447840, Note_on_c, 8, 54, 0
17, 447840, Note_on_c, 8, 55, 109
17, 448320, Note_on_c, 8, 55, 0
17, 448320, Note_on_c, 8, 57, 109
17, 448800, Note_on_c, 8, 57, 0
17, 448800, Note_on_c, 8, 55, 109
17, 449280, Note_on_c, 8, 55, 0
17, 449280, Note_on_c, 8, 54, 109
17, 449760, Note_on_c, 8, 54, 0
17, 449760, Note_on_c, 8, 55, 109
17, 450240, Note_on_c, 8, 55, 0
17, 450240, Note_on_c, 8, 57, 115
17, 450720, Note_on_c, 8, 57, 0
17, 450720, Note_on_c, 8, 55, 115
17, 451200, Note_on_c, 8, 55, 0
17, 451200, Note_on_c, 8, 54, 115
17, 451680, Note_on_c, 8, 54, 0
17, 451680, Note_on_c, 8, 55, 115
17, 452160, Note_on_c, 8, 55, 0
17, 452160, Note_on_c, 8, 54, 115
17, 452640, Note_on_c, 8, 54, 0
17, 452640, Note_on_c, 8, 55, 115
17, 453120, Note_on_c, 8, 55, 0
17, 453120, Note_on_c, 8, 54, 115
17, 453600, Note_on_c, 8, 54, 0
17, 453600, Note_on_c, 8, 55, 115
17, 454080, Note_on_c, 8, 55, 0
17, 454080, Note_on_c, 8, 55, 123
17, 454080, Note_on_c, 8, 65, 123
17, 455520, Note_on_c, 8, 65, 0
17, 455520, Note_on_c, 8, 55, 0
17, 455520, Note_on_c, 8, 50, 123
17, 455760, Note_on_c, 8, 50, 0
17, 455760, Note_on_c, 8, 50, 123
17, 456000, Note_on_c, 8, 50, 0
17, 456000, Note_on_c, 8, 52, 123
17, 456240, Note_on_c, 8, 52, 0
17, 456240, Note_on_c, 8, 52, 123
17, 456480, Note_on_c, 8, 52, 0
17, 456480, Note_on_c, 8, 55, 123
17, 456720, Note_on_c, 8, 55, 0
17, 456720, Note_on_c, 8, 55, 123
17, 456960, Note_on_c, 8, 55, 0
17, 456960, Note_on_c, 8, 53, 123
17, 457200, Note_on_c, 8, 53, 0
17, 457200, Note_on_c, 8, 53, 123
17, 457440, Note_on_c, 8, 53, 0
17, 457440, Note_on_c, 8, 55, 123
17, 457680, Note_on_c, 8, 55, 0
17, 457680, Note_on_c, 8, 55, 123
17, 457920, Note_on_c, 8, 55, 0
17, 457920, Note_on_c, 8, 52, 123
17, 458160, Note_on_c, 8, 52, 0
17, 458160, Note_on_c, 8, 52, 123
17, 458400, Note_on_c, 8, 52, 0
17, 458400, Note_on_c, 8, 55, 123
17, 458640, Note_on_c, 8, 55, 0
17, 458640, Note_on_c, 8, 55, 123
17, 458880, Note_on_c, 8, 55, 0
17, 458880, Note_on_c, 8, 50, 123
17, 459120, Note_on_c, 8, 50, 0
17, 459120, Note_on_c, 8, 50, 123
17, 459360, Note_on_c, 8, 50, 0
17, 459360, Note_on_c, 8, 57, 123
17, 459600, Note_on_c, 8, 57, 0
17, 459600, Note_on_c, 8, 57, 123
17, 459840, Note_on_c, 8, 57, 0
17, 459840, Note_on_c, 8, 52, 123
17, 460080, Note_on_c, 8, 52, 0
17, 460080, Note_on_c, 8, 52, 123
17, 460320, Note_on_c, 8, 52, 0
17, 460320, Note_on_c, 8, 55, 123
17, 460560, Note_on_c, 8, 55, 0
17, 460560, Note_on_c, 8, 55, 123
17, 460800, Note_on_c, 8, 55, 0
17, 460800, Note_on_c, 8, 50, 123
17, 461280, Note_on_c, 8, 50, 0
17, 461760, Note_on_c, 8, 50, 123
17, 462000, Note_on_c, 8, 50, 0
17, 462000, Note_on_c, 8, 50, 123
17, 462240, Note_on_c, 8, 50, 0
17, 462240, Note_on_c, 8, 55, 123
17, 462480, Note_on_c, 8, 55, 0
17, 462480, Note_on_c, 8, 55, 123
17, 462720, Note_on_c, 8, 55, 0
17, 462720, Note_on_c, 8, 50, 123
17, 462960, Note_on_c, 8, 50, 0
17, 462960, Note_on_c, 8, 50, 123
17, 463200, Note_on_c, 8, 50, 0
17, 463200, Note_on_c, 8, 55, 123
17, 463440, Note_on_c, 8, 55, 0
17, 463440, Note_on_c, 8, 55, 123
17, 463680, Note_on_c, 8, 55, 0
17, 463680, Note_on_c, 8, 52, 123
17, 463920, Note_on_c, 8, 52, 0
17, 463920, Note_on_c, 8, 52, 123
17, 464160, Note_on_c, 8, 52, 0
17, 464160, Note_on_c, 8, 55, 123
17, 464400, Note_on_c, 8, 55, 0
17, 464400, Note_on_c, 8, 55, 123
17, 464640, Note_on_c, 8, 55, 0
17, 464640, Note_on_c, 8, 53, 123
17, 464880, Note_on_c, 8, 53, 0
17, 464880, Note_on_c, 8, 53, 123
17, 465120, Note_on_c, 8, 53, 0
17, 465120, Note_on_c, 8, 59, 123
17, 465360, Note_on_c, 8, 59, 0
17, 465360, Note_on_c, 8, 59, 123
17, 465600, Note_on_c, 8, 59, 0
17, 465600, Note_on_c, 8, 62, 123
17, 465840, Note_on_c, 8, 62, 0
17, 465840, Note_on_c, 8, 60, 123
17, 466080, Note_on_c, 8, 60, 0
17, 466080, Note_on_c, 8, 55, 123
17, 466320, Note_on_c, 8, 55, 0
17, 466320, Note_on_c, 8, 52, 123
17, 466560, Note_on_c, 8, 52, 0
17, 466560, Note_on_c, 8, 59, 123
17, 466800, Note_on_c, 8, 59, 0
17, 466800, Note_on_c, 8, 57, 123
17, 467040, Note_on_c, 8, 57, 0
17, 467040, Note_on_c, 8, 53, 123
17, 467280, Note_on_c, 8, 53, 0
17, 467280, Note_on_c, 8, 50, 123
17, 467520, Note_on_c, 8, 50, 0
17, 467520, Note_on_c, 8, 57, 123
17, 467760, Note_on_c, 8, 57, 0
17, 467760, Note_on_c, 8, 55, 123
17, 468000, Note_on_c, 8, 55, 0
17, 468000, Note_on_c, 8, 52, 123
17, 468240, Note_on_c, 8, 52, 0
17, 468240, Note_on_c, 8, 48, 123
17, 468480, Note_on_c, 8, 48, 0
17, 468480, Note_on_c, 8, 50, 123
17, 468480, Note_on_c, 8, 59, 123
17, 468720, Note_on_c, 8, 59, 0
17, 468720, Note_on_c, 8, 50, 0
17, 468720, Note_on_c, 8, 50, 123
17, 468720, Note_on_c, 8, 59, 123
17, 468960, Note_on_c, 8, 59, 0
17, 468960, Note_on_c, 8, 50, 0
17, 468960, Note_on_c, 8, 53, 123
17, 468960, Note_on_c, 8, 62, 123
17, 469200, Note_on_c, 8, 62, 0
17, 469200, Note_on_c, 8, 53, 0
17, 469200, Note_on_c, 8, 53, 123
17, 469200, Note_on_c, 8, 62, 123
17, 469440, Note_on_c, 8, 62, 0
17, 469440, Note_on_c, 8, 53, 0
17, 469440, Note_on_c, 8, 55, 123
17, 472560, Note_on_c, 8, 55, 0
17, 472560, Note_on_c, 8, 55, 123
17, 472800, Note_on_c, 8, 55, 0
17, 472800, Note_on_c, 8, 55, 123
17, 473040, Note_on_c, 8, 55, 0
17, 473040, Note_on_c, 8, 55, 123
17, 473280, Note_on_c, 8, 55, 0
17, 473280, Note_on_c, 8, 55, 123
17, 476400, Note_on_c, 8, 55, 0
17, 476400, Note_on_c, 8, 67, 123
17, 476640, Note_on_c, 8, 67, 0
17, 476640, Note_on_c, 8, 67, 123
17, 476880, Note_on_c, 8, 67, 0
17, 476880, Note_on_c, 8, 67, 123
17, 477120, Note_on_c, 8, 67, 0
17, 477120, Note_on_c, 8, 67, 123
17, 477600, Note_on_c, 8, 67, 0
17, 478320, Note_on_c, 8, 67, 123
17, 478560, Note_on_c, 8, 67, 0
17, 478560, Note_on_c, 8, 67, 123
17, 478800, Note_on_c, 8, 67, 0
17, 478800, Note_on_c, 8, 67, 123
17, 479040, Note_on_c, 8, 67, 0
17, 479040, Note_on_c, 8, 67, 123
17, 479520, Note_on_c, 8, 67, 0
17, 480240, Note_on_c, 8, 55, 123
17, 480480, Note_on_c, 8, 55, 0
17, 480480, Note_on_c, 8, 55, 123
17, 480720, Note_on_c, 8, 55, 0
17, 480720, Note_on_c, 8, 55, 123
17, 480960, Note_on_c, 8, 55, 0
17, 480960, Note_on_c, 8, 67, 123
17, 482160, Note_on_c, 8, 67, 0
17, 482160, Note_on_c, 8, 67, 123
17, 482400, Note_on_c, 8, 67, 0
17, 482400, Note_on_c, 8, 67, 123
17, 482640, Note_on_c, 8, 67, 0
17, 482640, Note_on_c, 8, 67, 123
17, 482880, Note_on_c, 8, 67, 0
17, 482880, Note_on_c, 8, 65, 123
17, 484080, Note_on_c, 8, 65, 0
17, 484080, Note_on_c, 8, 65, 123
17, 484320, Note_on_c, 8, 65, 0
17, 484320, Note_on_c, 8, 65, 123
17, 484560, Note_on_c, 8, 65, 0
17, 484560, Note_on_c, 8, 65, 123
17, 484800, Note_on_c, 8, 65, 0
17, 484800, Note_on_c, 8, 60, 123
17, 486000, Note_on_c, 8, 60, 0
17, 486000, Note_on_c, 8, 60, 123
17, 486240, Note_on_c, 8, 60, 0
17, 486240, Note_on_c, 8, 60, 123
17, 486480, Note_on_c, 8, 60, 0
17, 486480, Note_on_c, 8, 60, 123
17, 486720, Note_on_c, 8, 60, 0
17, 486720, Note_on_c, 8, 56, 123
17, 487920, Note_on_c, 8, 56, 0
17, 487920, Note_on_c, 8, 56, 123
17, 488160, Note_on_c, 8, 56, 0
17, 488160, Note_on_c, 8, 56, 123
17, 488400, Note_on_c, 8, 56, 0
17, 488400, Note_on_c, 8, 56, 123
17, 488640, Note_on_c, 8, 56, 0
17, 488640, Note_on_c, 8, 56, 123
17, 488880, Note_on_c, 8, 56, 0
17, 488880, Note_on_c, 8, 68, 123
17, 489120, Note_on_c, 8, 68, 0
17, 489120, Note_on_c, 8, 68, 123
17, 489360, Note_on_c, 8, 68, 0
17, 489360, Note_on_c, 8, 68, 123
17, 489600, Note_on_c, 8, 68, 0
17, 489600, Note_on_c, 8, 68, 123
17, 489840, Note_on_c, 8, 68, 0
17, 489840, Note_on_c, 8, 68, 123
17, 490080, Note_on_c, 8, 68, 0
17, 490080, Note_on_c, 8, 68, 123
17, 490320, Note_on_c, 8, 68, 0
17, 490320, Note_on_c, 8, 68, 123
17, 490560, Note_on_c, 8, 68, 0
17, 490560, Note_on_c, 8, 68, 123
17, 490800, Note_on_c, 8, 68, 0
17, 490800, Note_on_c, 8, 68, 123
17, 491040, Note_on_c, 8, 68, 0
17, 491040, Note_on_c, 8, 68, 123
17, 491280, Note_on_c, 8, 68, 0
17, 491280, Note_on_c, 8, 68, 123
17, 491520, Note_on_c, 8, 68, 0
17, 491520, Note_on_c, 8, 68, 123
17, 491760, Note_on_c, 8, 68, 0
17, 491760, Note_on_c, 8, 68, 123
17, 492000, Note_on_c, 8, 68, 0
17, 492000, Note_on_c, 8, 68, 123
17, 492240, Note_on_c, 8, 68, 0
17, 492240, Note_on_c, 8, 68, 123
17, 492480, Note_on_c, 8, 68, 0
17, 492480, Note_on_c, 8, 68, 123
17, 492960, Note_on_c, 8, 68, 0
17, 496560, Note_on_c, 8, 57, 123
17, 496800, Note_on_c, 8, 57, 0
17, 496800, Note_on_c, 8, 57, 123
17, 497040, Note_on_c, 8, 57, 0
17, 497040, Note_on_c, 8, 57, 123
17, 497280, Note_on_c, 8, 57, 0
17, 497280, Note_on_c, 8, 57, 123
17, 497520, Note_on_c, 8, 57, 0
17, 497520, Note_on_c, 8, 69, 123
17, 497760, Note_on_c, 8, 69, 0
17, 497760, Note_on_c, 8, 69, 123
17, 498000, Note_on_c, 8, 69, 0
17, 498000, Note_on_c, 8, 69, 123
17, 498240, Note_on_c, 8, 69, 0
17, 498240, Note_on_c, 8, 69, 123
17, 498480, Note_on_c, 8, 69, 0
17, 498480, Note_on_c, 8, 69, 123
17, 498720, Note_on_c, 8, 69, 0
17, 498720, Note_on_c, 8, 69, 123
17, 498960, Note_on_c, 8, 69, 0
17, 498960, Note_on_c, 8, 69, 123
17, 499200, Note_on_c, 8, 69, 0
17, 499200, Note_on_c, 8, 69, 123
17, 499440, Note_on_c, 8, 69, 0
17, 499440, Note_on_c, 8, 69, 123
17, 499680, Note_on_c, 8, 69, 0
17, 499680, Note_on_c, 8, 69, 123
17, 499920, Note_on_c, 8, 69, 0
17, 499920, Note_on_c, 8, 69, 123
17, 500160, Note_on_c, 8, 69, 0
17, 500160, Note_on_c, 8, 69, 123
17, 500400, Note_on_c, 8, 69, 0
17, 500400, Note_on_c, 8, 69, 123
17, 500640, Note_on_c, 8, 69, 0
17, 500640, Note_on_c, 8, 69, 123
17, 500880, Note_on_c, 8, 69, 0
17, 500880, Note_on_c, 8, 69, 123
17, 501120, Note_on_c, 8, 69, 0
17, 501120, Note_on_c, 8, 69, 123
17, 501600, Note_on_c, 8, 69, 0
17, 504240, Note_on_c, 8, 67, 115
17, 504480, Note_on_c, 8, 67, 0
17, 504480, Note_on_c, 8, 67, 115
17, 504720, Note_on_c, 8, 67, 0
17, 504720, Note_on_c, 8, 67, 115
17, 504960, Note_on_c, 8, 67, 0
17, 504960, Note_on_c, 8, 63, 115
17, 505920, Note_on_c, 8, 63, 0
17, 505920, Note_on_c, 8, 65, 115
17, 506880, Note_on_c, 8, 65, 0
17, 506880, Note_on_c, 8, 62, 115
17, 508080, Note_on_c, 8, 62, 0
17, 508080, Note_on_c, 8, 67, 115
17, 508320, Note_on_c, 8, 67, 0
17, 508320, Note_on_c, 8, 67, 115
17, 508560, Note_on_c, 8, 67, 0
17, 508560, Note_on_c, 8, 67, 115
17, 508800, Note_on_c, 8, 67, 0
17, 508800, Note_on_c, 8, 63, 115
17, 509760, Note_on_c, 8, 63, 0
17, 509760, Note_on_c, 8, 65, 115
17, 510720, Note_on_c, 8, 65, 0
17, 510720, Note_on_c, 8, 62, 115
17, 511920, Note_on_c, 8, 62, 0
17, 511920, Note_on_c, 8, 67, 115
17, 512160, Note_on_c, 8, 67, 0
17, 512160, Note_on_c, 8, 67, 115
17, 512400, Note_on_c, 8, 67, 0
17, 512400, Note_on_c, 8, 67, 115
17, 512640, Note_on_c, 8, 67, 0
17, 512640, Note_on_c, 8, 63, 115
17, 513120, Note_on_c, 8, 63, 0
17, 513120, Note_on_c, 8, 65, 115
17, 513600, Note_on_c, 8, 65, 0
17, 513600, Note_on_c, 8, 62, 115
17, 514080, Note_on_c, 8, 62, 0
17, 514080, Note_on_c, 8, 63, 115
17, 514560, Note_on_c, 8, 63, 0
17, 514560, Note_on_c, 8, 60, 115
17, 515040, Note_on_c, 8, 60, 0
17, 515040, Note_on_c, 8, 62, 115
17, 515520, Note_on_c, 8, 62, 0
17, 515520, Note_on_c, 8, 58, 115
17, 516000, Note_on_c, 8, 58, 0
17, 516000, Note_on_c, 8, 60, 115
17, 516480, Note_on_c, 8, 60, 0
17, 516480, Note_on_c, 8, 56, 115
17, 516960, Note_on_c, 8, 56, 0
17, 516960, Note_on_c, 8, 58, 115
17, 517440, Note_on_c, 8, 58, 0
17, 517440, Note_on_c, 8, 55, 115
17, 517920, Note_on_c, 8, 55, 0
17, 517920, Note_on_c, 8, 56, 115
17, 518400, Note_on_c, 8, 56, 0
17, 518400, Note_on_c, 8, 53, 115
17, 518880, Note_on_c, 8, 53, 0
17, 518880, Note_on_c, 8, 55, 115
17, 519360, Note_on_c, 8, 55, 0
17, 519360, Note_on_c, 8, 51, 115
17, 519840, Note_on_c, 8, 51, 0
17, 519840, Note_on_c, 8, 53, 115
17, 520320, Note_on_c, 8, 53, 0
17, 520320, Note_on_c, 8, 50, 115
17, 520800, Note_on_c, 8, 50, 0
17, 520800, Note_on_c, 8, 60, 115
17, 521280, Note_on_c, 8, 60, 0
17, 521280, Note_on_c, 8, 59, 115
17, 521760, Note_on_c, 8, 59, 0
17, 521760, Note_on_c, 8, 60, 115
17, 522240, Note_on_c, 8, 60, 0
17, 522240, Note_on_c, 8, 62, 115
17, 522720, Note_on_c, 8, 62, 0
17, 522720, Note_on_c, 8, 60, 115
17, 523200, Note_on_c, 8, 60, 0
17, 523200, Note_on_c, 8, 62, 115
17, 523680, Note_on_c, 8, 62, 0
17, 523680, Note_on_c, 8, 64, 115
17, 524160, Note_on_c, 8, 64, 0
17, 524160, Note_on_c, 8, 65, 115
17, 524640, Note_on_c, 8, 65, 0
17, 524640, Note_on_c, 8, 64, 115
17, 525120, Note_on_c, 8, 64, 0
17, 525120, Note_on_c, 8, 65, 115
17, 525600, Note_on_c, 8, 65, 0
17, 525600, Note_on_c, 8, 67, 115
17, 526080, Note_on_c, 8, 67, 0
17, 526080, Note_on_c, 8, 68, 115
17, 526560, Note_on_c, 8, 68, 0
17, 526560, Note_on_c, 8, 55, 115
17, 527040, Note_on_c, 8, 55, 0
17, 527040, Note_on_c, 8, 57, 115
17, 527520, Note_on_c, 8, 57, 0
17, 527520, Note_on_c, 8, 59, 115
17, 528000, Note_on_c, 8, 59, 0
17, 528000, Note_on_c, 8, 60, 115
17, 528960, Note_on_c, 8, 60, 0
17, 528960, Note_on_c, 8, 62, 115
17, 529440, Note_on_c, 8, 62, 0
17, 529440, Note_on_c, 8, 63, 115
17, 529920, Note_on_c, 8, 63, 0
17, 529920, Note_on_c, 8, 65, 115
17, 530400, Note_on_c, 8, 65, 0
17, 530400, Note_on_c, 8, 62, 115
17, 530880, Note_on_c, 8, 62, 0
17, 530880, Note_on_c, 8, 63, 115
17, 531360, Note_on_c, 8, 63, 0
17, 531360, Note_on_c, 8, 65, 115
17, 531840, Note_on_c, 8, 65, 0
17, 531840, Note_on_c, 8, 67, 115
17, 532320, Note_on_c, 8, 67, 0
17, 532320, Note_on_c, 8, 63, 115
17, 532800, Note_on_c, 8, 63, 0
17, 532800, Note_on_c, 8, 65, 115
17, 533280, Note_on_c, 8, 65, 0
17, 533280, Note_on_c, 8, 67, 115
17, 533760, Note_on_c, 8, 67, 0
17, 533760, Note_on_c, 8, 68, 115
17, 534240, Note_on_c, 8, 68, 0
17, 534240, Note_on_c, 8, 65, 115
17, 534720, Note_on_c, 8, 65, 0
17, 534720, Note_on_c, 8, 67, 115
17, 535200, Note_on_c, 8, 67, 0
17, 535200, Note_on_c, 8, 69, 115
17, 535680, Note_on_c, 8, 69, 0
17, 535680, Note_on_c, 8, 71, 115
17, 536160, Note_on_c, 8, 71, 0
17, 536160, Note_on_c, 8, 67, 115
17, 536640, Note_on_c, 8, 67, 0
17, 536640, Note_on_c, 8, 69, 115
17, 537120, Note_on_c, 8, 69, 0
17, 537120, Note_on_c, 8, 71, 115
17, 537600, Note_on_c, 8, 71, 0
17, 537600, Note_on_c, 8, 72, 115
17, 538080, Note_on_c, 8, 72, 0
17, 538080, Note_on_c, 8, 67, 115
17, 538560, Note_on_c, 8, 67, 0
17, 538560, Note_on_c, 8, 68, 115
17, 539040, Note_on_c, 8, 68, 0
17, 539040, Note_on_c, 8, 63, 115
17, 539520, Note_on_c, 8, 63, 0
17, 539520, Note_on_c, 8, 65, 115
17, 540000, Note_on_c, 8, 65, 0
17, 540000, Note_on_c, 8, 62, 115
17, 540480, Note_on_c, 8, 62, 0
17, 540480, Note_on_c, 8, 63, 115
17, 540960, Note_on_c, 8, 63, 0
17, 540960, Note_on_c, 8, 65, 115
17, 541440, Note_on_c, 8, 65, 0
17, 541440, Note_on_c, 8, 67, 115
17, 541920, Note_on_c, 8, 67, 0
17, 541920, Note_on_c, 8, 66, 115
17, 542400, Note_on_c, 8, 66, 0
17, 542400, Note_on_c, 8, 67, 115
17, 542880, Note_on_c, 8, 67, 0
17, 542880, Note_on_c, 8, 55, 115
17, 543360, Note_on_c, 8, 55, 0
17, 543360, Note_on_c, 8, 60, 115
17, 543840, Note_on_c, 8, 60, 0
17, 546240, Note_on_c, 8, 51, 115
17, 546720, Note_on_c, 8, 51, 0
17, 546720, Note_on_c, 8, 53, 115
17, 547200, Note_on_c, 8, 53, 0
17, 547200, Note_on_c, 8, 55, 115
17, 547680, Note_on_c, 8, 55, 0
17, 547680, Note_on_c, 8, 51, 115
17, 548160, Note_on_c, 8, 51, 0
17, 550080, Note_on_c, 8, 55, 115
17, 550560, Note_on_c, 8, 55, 0
17, 550560, Note_on_c, 8, 57, 115
17, 551040, Note_on_c, 8, 57, 0
17, 551040, Note_on_c, 8, 59, 115
17, 551520, Note_on_c, 8, 59, 0
17, 551520, Note_on_c, 8, 55, 115
17, 552000, Note_on_c, 8, 55, 0
17, 553920, Note_on_c, 8, 55, 115
17, 554400, Note_on_c, 8, 55, 0
17, 554400, Note_on_c, 8, 57, 115
17, 554880, Note_on_c, 8, 57, 0
17, 554880, Note_on_c, 8, 59, 115
17, 555360, Note_on_c, 8, 59, 0
17, 555360, Note_on_c, 8, 55, 115
17, 555840, Note_on_c, 8, 55, 0
17, 559680, Note_on_c, 8, 53, 115
17, 559680, Note_on_c, 8, 56, 115
17, 560160, Note_on_c, 8, 56, 0
17, 560160, Note_on_c, 8, 53, 0
17, 560160, Note_on_c, 8, 51, 115
17, 560160, Note_on_c, 8, 55, 115
17, 560640, Note_on_c, 8, 55, 0
17, 560640, Note_on_c, 8, 51, 0
17, 561600, Note_on_c, 8, 53, 115
17, 562080, Note_on_c, 8, 53, 0
17, 562080, Note_on_c, 8, 60, 115
17, 562560, Note_on_c, 8, 60, 0
17, 562560, Note_on_c, 8, 55, 115
17, 562560, Note_on_c, 8, 67, 115
17, 563040, Note_on_c, 8, 67, 0
17, 563040, Note_on_c, 8, 55, 0
17, 563520, Note_on_c, 8, 55, 115
17, 564000, Note_on_c, 8, 55, 0
17, 564480, Note_on_c, 8, 60, 115
17, 564960, Note_on_c, 8, 60, 0
17, 564960, Note_on_c, 8, 58, 115
17, 565440, Note_on_c, 8, 58, 0
17, 565440, Note_on_c, 8, 56, 115
17, 565920, Note_on_c, 8, 56, 0
17, 565920, Note_on_c, 8, 55, 115
17, 566400, Note_on_c, 8, 55, 0
17, 566400, Note_on_c, 8, 53, 115
17, 566880, Note_on_c, 8, 53, 0
17, 566880, Note_on_c, 8, 51, 115
17, 567360, Note_on_c, 8, 51, 0
17, 568320, Note_on_c, 8, 53, 115
17, 568320, Note_on_c, 8, 56, 115
17, 568800, Note_on_c, 8, 56, 0
17, 568800, Note_on_c, 8, 53, 0
17, 568800, Note_on_c, 8, 51, 115
17, 568800, Note_on_c, 8, 55, 115
17, 569280, Note_on_c, 8, 55, 0
17, 569280, Note_on_c, 8, 51, 0
17, 569280, Note_on_c, 8, 65, 115
17, 569760, Note_on_c, 8, 65, 0
17, 569760, Note_on_c, 8, 60, 115
17, 570240, Note_on_c, 8, 60, 0
17, 570240, Note_on_c, 8, 55, 115
17, 570240, Note_on_c, 8, 67, 115
17, 570720, Note_on_c, 8, 67, 0
17, 570720, Note_on_c, 8, 55, 0
17, 571200, Note_on_c, 8, 55, 115
17, 571200, Note_on_c, 8, 67, 115
17, 571680, Note_on_c, 8, 67, 0
17, 571680, Note_on_c, 8, 55, 0
17, 572160, Note_on_c, 8, 48, 115
17, 572160, Note_on_c, 8, 60, 115
17, 572400, Note_on_c, 8, 60, 0
17, 572400, Note_on_c, 8, 48, 0
17, 572400, Note_on_c, 8, 55, 115
17, 572640, Note_on_c, 8, 55, 0
17, 572640, Note_on_c, 8, 55, 115
17, 572880, Note_on_c, 8, 55, 0
17, 572880, Note_on_c, 8, 55, 115
17, 573120, Note_on_c, 8, 55, 0
17, 573120, Note_on_c, 8, 55, 115
17, 577200, Note_on_c, 8, 55, 0
17, 577200, Note_on_c, 8, 55, 115
17, 577440, Note_on_c, 8, 55, 0
17, 577440, Note_on_c, 8, 55, 115
17, 577680, Note_on_c, 8, 55, 0
17, 577680, Note_on_c, 8, 55, 115
17, 577920, Note_on_c, 8, 55, 0
17, 577920, Note_on_c, 8, 60, 115
17, 578160, Note_on_c, 8, 60, 0
17, 578160, Note_on_c, 8, 55, 115
17, 578400, Note_on_c, 8, 55, 0
17, 578400, Note_on_c, 8, 55, 115
17, 578640, Note_on_c, 8, 55, 0
17, 578640, Note_on_c, 8, 55, 115
17, 578880, Note_on_c, 8, 55, 0
17, 578880, Note_on_c, 8, 55, 115
17, 579120, Note_on_c, 8, 55, 0
17, 579120, Note_on_c, 8, 55, 115
17, 579360, Note_on_c, 8, 55, 0
17, 579360, Note_on_c, 8, 55, 115
17, 579600, Note_on_c, 8, 55, 0
17, 579600, Note_on_c, 8, 55, 115
17, 579840, Note_on_c, 8, 55, 0
17, 579840, Note_on_c, 8, 55, 115
17, 580080, Note_on_c, 8, 55, 0
17, 580080, Note_on_c, 8, 55, 115
17, 580320, Note_on_c, 8, 55, 0
17, 580320, Note_on_c, 8, 55, 115
17, 580560, Note_on_c, 8, 55, 0
17, 580560, Note_on_c, 8, 55, 115
17, 580800, Note_on_c, 8, 55, 0
17, 580800, Note_on_c, 8, 55, 115
17, 581040, Note_on_c, 8, 55, 0
17, 581040, Note_on_c, 8, 55, 115
17, 581280, Note_on_c, 8, 55, 0
17, 581280, Note_on_c, 8, 55, 115
17, 581520, Note_on_c, 8, 55, 0
17, 581520, Note_on_c, 8, 55, 115
17, 581760, Note_on_c, 8, 55, 0
17, 581760, Note_on_c, 8, 51, 123
17, 582720, Note_on_c, 8, 51, 0
17, 582960, Note_on_c, 8, 53, 123
17, 583200, Note_on_c, 8, 53, 0
17, 583200, Note_on_c, 8, 53, 123
17, 583440, Note_on_c, 8, 53, 0
17, 583440, Note_on_c, 8, 53, 123
17, 583680, Note_on_c, 8, 53, 0
17, 583680, Note_on_c, 8, 50, 123
17, 585600, Note_on_c, 8, 50, 0
17, 593520, Note_on_c, 8, 55, 123
17, 593760, Note_on_c, 8, 55, 0
17, 593760, Note_on_c, 8, 55, 123
17, 594000, Note_on_c, 8, 55, 0
17, 594000, Note_on_c, 8, 55, 123
17, 594240, Note_on_c, 8, 55, 0
17, 594240, Note_on_c, 8, 60, 123
17, 594720, Note_on_c, 8, 60, 0
17, 595440, Note_on_c, 8, 55, 123
17, 595680, Note_on_c, 8, 55, 0
17, 595680, Note_on_c, 8, 55, 123
17, 595920, Note_on_c, 8, 55, 0
17, 595920, Note_on_c, 8, 55, 123
17, 596160, Note_on_c, 8, 55, 0
17, 596160, Note_on_c, 8, 60, 123
17, 596640, Note_on_c, 8, 60, 0
17, 597360, Note_on_c, 8, 55, 123
17, 597600, Note_on_c, 8, 55, 0
17, 597600, Note_on_c, 8, 55, 123
17, 597840, Note_on_c, 8, 55, 0
17, 597840, Note_on_c, 8, 55, 123
17, 598080, Note_on_c, 8, 55, 0
17, 598080, Note_on_c, 8, 60, 123
17, 598560, Note_on_c, 8, 60, 0
17, 598560, Note_on_c, 8, 55, 123
17, 599040, Note_on_c, 8, 55, 0
17, 599040, Note_on_c, 8, 60, 123
17, 599520, Note_on_c, 8, 60, 0
17, 599520, Note_on_c, 8, 55, 123
17, 600000, Note_on_c, 8, 55, 0
17, 600000, Note_on_c, 8, 60, 123
17, 600480, Note_on_c, 8, 60, 0
17, 600480, Note_on_c, 8, 67, 123
17, 600960, Note_on_c, 8, 67, 0
17, 600960, Note_on_c, 8, 72, 123
17, 601440, Note_on_c, 8, 72, 0
17, 601440, Note_on_c, 8, 67, 123
17, 601920, Note_on_c, 8, 67, 0
17, 601920, Note_on_c, 8, 72, 123
17, 602400, Note_on_c, 8, 72, 0
17, 602880, Note_on_c, 8, 55, 123
17, 603360, Note_on_c, 8, 55, 0
17, 603840, Note_on_c, 8, 48, 123
17, 604320, Note_on_c, 8, 48, 0
17, 604320, End_track
18, 0, Start_track
18, 0, MIDI_port, 0
18, 0, Title_t, "Cellos"
18, 0, Program_c, 10, 48
18, 240, Note_on_c, 10, 43, 123
18, 480, Note_on_c, 10, 43, 0
18, 480, Note_on_c, 10, 43, 123
18, 720, Note_on_c, 10, 43, 0
18, 720, Note_on_c, 10, 43, 123
18, 960, Note_on_c, 10, 43, 0
18, 960, Note_on_c, 10, 39, 123
18, 1920, Note_on_c, 10, 39, 0
18, 2160, Note_on_c, 10, 41, 123
18, 2400, Note_on_c, 10, 41, 0
18, 2400, Note_on_c, 10, 41, 123
18, 2640, Note_on_c, 10, 41, 0
18, 2640, Note_on_c, 10, 41, 123
18, 2880, Note_on_c, 10, 41, 0
18, 2880, Note_on_c, 10, 38, 123
18, 4800, Note_on_c, 10, 38, 0
18, 5760, Note_on_c, 10, 60, 91
18, 9600, Note_on_c, 10, 60, 0
18, 9600, Note_on_c, 10, 59, 91
18, 13440, Note_on_c, 10, 59, 0
18, 13440, Note_on_c, 10, 60, 91
18, 14400, Note_on_c, 10, 60, 0
18, 14400, Note_on_c, 10, 59, 91
18, 15360, Note_on_c, 10, 59, 0
18, 15360, Note_on_c, 10, 60, 91
18, 16320, Note_on_c, 10, 60, 0
18, 16320, Note_on_c, 10, 59, 91
18, 16560, Note_on_c, 10, 59, 0
18, 16560, Note_on_c, 10, 59, 91
18, 16800, Note_on_c, 10, 59, 0
18, 16800, Note_on_c, 10, 59, 101
18, 17040, Note_on_c, 10, 59, 0
18, 17040, Note_on_c, 10, 59, 109
18, 17280, Note_on_c, 10, 59, 0
18, 17280, Note_on_c, 10, 60, 115
18, 17760, Note_on_c, 10, 60, 0
18, 18240, Note_on_c, 10, 44, 115
18, 18720, Note_on_c, 10, 44, 0
18, 19200, Note_on_c, 10, 43, 115
18, 19680, Note_on_c, 10, 43, 0
18, 20400, Note_on_c, 10, 44, 123
18, 20640, Note_on_c, 10, 44, 0
18, 20640, Note_on_c, 10, 44, 123
18, 20880, Note_on_c, 10, 44, 0
18, 20880, Note_on_c, 10, 44, 123
18, 21120, Note_on_c, 10, 44, 0
18, 21120, Note_on_c, 10, 41, 123
18, 23040, Note_on_c, 10, 41, 0
18, 26160, Note_on_c, 10, 43, 91
18, 26400, Note_on_c, 10, 43, 0
18, 26400, Note_on_c, 10, 43, 91
18, 26640, Note_on_c, 10, 43, 0
18, 26640, Note_on_c, 10, 43, 91
18, 26880, Note_on_c, 10, 43, 0
18, 26880, Note_on_c, 10, 48, 91
18, 27360, Note_on_c, 10, 48, 0
18, 30000, Note_on_c, 10, 43, 91
18, 30240, Note_on_c, 10, 43, 0
18, 30240, Note_on_c, 10, 43, 91
18, 30480, Note_on_c, 10, 43, 0
18, 30480, Note_on_c, 10, 43, 91
18, 30720, Note_on_c, 10, 43, 0
18, 30720, Note_on_c, 10, 48, 91
18, 31200, Note_on_c, 10, 48, 0
18, 31920, Note_on_c, 10, 48, 91
18, 32160, Note_on_c, 10, 48, 0
18, 32160, Note_on_c, 10, 48, 91
18, 32400, Note_on_c, 10, 48, 0
18, 32400, Note_on_c, 10, 48, 91
18, 32640, Note_on_c, 10, 48, 0
18, 32640, Note_on_c, 10, 48, 101
18, 33120, Note_on_c, 10, 48, 0
18, 33840, Note_on_c, 10, 48, 115
18, 34080, Note_on_c, 10, 48, 0
18, 34080, Note_on_c, 10, 48, 115
18, 34320, Note_on_c, 10, 48, 0
18, 34320, Note_on_c, 10, 48, 115
18, 34560, Note_on_c, 10, 48, 0
18, 34560, Note_on_c, 10, 48, 123
18, 35040, Note_on_c, 10, 48, 0
18, 35520, Note_on_c, 10, 48, 123
18, 36000, Note_on_c, 10, 48, 0
18, 36480, Note_on_c, 10, 48, 123
18, 36960, Note_on_c, 10, 48, 0
18, 37440, Note_on_c, 10, 48, 123
18, 37920, Note_on_c, 10, 48, 0
18, 38400, Note_on_c, 10, 48, 123
18, 38880, Note_on_c, 10, 48, 0
18, 39360, Note_on_c, 10, 48, 123
18, 39840, Note_on_c, 10, 48, 0
18, 40320, Note_on_c, 10, 48, 123
18, 40800, Note_on_c, 10, 48, 0
18, 41280, Note_on_c, 10, 48, 115
18, 44400, Note_on_c, 10, 48, 0
18, 44400, Note_on_c, 10, 48, 109
18, 44640, Note_on_c, 10, 48, 0
18, 44640, Note_on_c, 10, 48, 109
18, 44880, Note_on_c, 10, 48, 0
18, 44880, Note_on_c, 10, 48, 109
18, 45120, Note_on_c, 10, 48, 0
18, 45120, Note_on_c, 10, 43, 109
18, 48240, Note_on_c, 10, 43, 0
18, 48240, Note_on_c, 10, 43, 109
18, 48480, Note_on_c, 10, 43, 0
18, 48480, Note_on_c, 10, 48, 109
18, 48720, Note_on_c, 10, 48, 0
18, 48720, Note_on_c, 10, 48, 109
18, 48960, Note_on_c, 10, 48, 0
18, 48960, Note_on_c, 10, 48, 123
18, 49200, Note_on_c, 10, 48, 0
18, 49200, Note_on_c, 10, 48, 123
18, 49440, Note_on_c, 10, 48, 0
18, 49440, Note_on_c, 10, 48, 123
18, 49680, Note_on_c, 10, 48, 0
18, 49680, Note_on_c, 10, 48, 123
18, 49920, Note_on_c, 10, 48, 0
18, 49920, Note_on_c, 10, 48, 123
18, 50160, Note_on_c, 10, 48, 0
18, 50160, Note_on_c, 10, 48, 123
18, 50400, Note_on_c, 10, 48, 0
18, 50400, Note_on_c, 10, 48, 123
18, 50640, Note_on_c, 10, 48, 0
18, 50640, Note_on_c, 10, 48, 123
18, 50880, Note_on_c, 10, 48, 0
18, 50880, Note_on_c, 10, 48, 123
18, 51120, Note_on_c, 10, 48, 0
18, 51120, Note_on_c, 10, 48, 123
18, 51360, Note_on_c, 10, 48, 0
18, 51360, Note_on_c, 10, 48, 123
18, 51600, Note_on_c, 10, 48, 0
18, 51600, Note_on_c, 10, 48, 123
18, 51840, Note_on_c, 10, 48, 0
18, 51840, Note_on_c, 10, 48, 123
18, 52080, Note_on_c, 10, 48, 0
18, 52080, Note_on_c, 10, 48, 123
18, 52320, Note_on_c, 10, 48, 0
18, 52320, Note_on_c, 10, 48, 123
18, 52560, Note_on_c, 10, 48, 0
18, 52560, Note_on_c, 10, 48, 123
18, 52800, Note_on_c, 10, 48, 0
18, 52800, Note_on_c, 10, 48, 123
18, 53280, Note_on_c, 10, 48, 0
18, 54720, Note_on_c, 10, 50, 123
18, 55200, Note_on_c, 10, 50, 0
18, 61680, Note_on_c, 10, 46, 91
18, 61920, Note_on_c, 10, 46, 0
18, 61920, Note_on_c, 10, 46, 91
18, 62160, Note_on_c, 10, 46, 0
18, 62160, Note_on_c, 10, 46, 91
18, 62400, Note_on_c, 10, 46, 0
18, 62400, Note_on_c, 10, 51, 91
18, 62880, Note_on_c, 10, 51, 0
18, 65520, Note_on_c, 10, 46, 91
18, 65760, Note_on_c, 10, 46, 0
18, 65760, Note_on_c, 10, 46, 91
18, 66000, Note_on_c, 10, 46, 0
18, 66000, Note_on_c, 10, 46, 91
18, 66240, Note_on_c, 10, 46, 0
18, 66240, Note_on_c, 10, 51, 91
18, 66720, Note_on_c, 10, 51, 0
18, 69360, Note_on_c, 10, 46, 91
18, 69600, Note_on_c, 10, 46, 0
18, 69600, Note_on_c, 10, 46, 91
18, 69840, Note_on_c, 10, 46, 0
18, 69840, Note_on_c, 10, 46, 91
18, 70080, Note_on_c, 10, 46, 0
18, 70080, Note_on_c, 10, 51, 91
18, 70560, Note_on_c, 10, 51, 0
18, 73200, Note_on_c, 10, 48, 91
18, 73440, Note_on_c, 10, 48, 0
18, 73440, Note_on_c, 10, 48, 91
18, 73680, Note_on_c, 10, 48, 0
18, 73680, Note_on_c, 10, 48, 91
18, 73920, Note_on_c, 10, 48, 0
18, 73920, Note_on_c, 10, 53, 91
18, 74400, Note_on_c, 10, 53, 0
18, 77040, Note_on_c, 10, 51, 91
18, 77280, Note_on_c, 10, 51, 0
18, 77280, Note_on_c, 10, 51, 91
18, 77520, Note_on_c, 10, 51, 0
18, 77520, Note_on_c, 10, 51, 91
18, 77760, Note_on_c, 10, 51, 0
18, 77760, Note_on_c, 10, 56, 91
18, 78240, Note_on_c, 10, 56, 0
18, 78720, Note_on_c, 10, 63, 91
18, 79200, Note_on_c, 10, 63, 0
18, 79200, Note_on_c, 10, 65, 91
18, 79680, Note_on_c, 10, 65, 0
18, 79680, Note_on_c, 10, 66, 91
18, 80160, Note_on_c, 10, 66, 0
18, 80160, Note_on_c, 10, 65, 91
18, 80640, Note_on_c, 10, 65, 0
18, 80640, Note_on_c, 10, 63, 91
18, 81120, Note_on_c, 10, 63, 0
18, 81120, Note_on_c, 10, 65, 91
18, 81600, Note_on_c, 10, 65, 0
18, 81600, Note_on_c, 10, 66, 91
18, 82080, Note_on_c, 10, 66, 0
18, 82080, Note_on_c, 10, 65, 91
18, 82560, Note_on_c, 10, 65, 0
18, 82560, Note_on_c, 10, 63, 91
18, 83040, Note_on_c, 10, 63, 0
18, 83040, Note_on_c, 10, 65, 91
18, 83520, Note_on_c, 10, 65, 0
18, 83520, Note_on_c, 10, 66, 101
18, 84000, Note_on_c, 10, 66, 0
18, 84000, Note_on_c, 10, 65, 101
18, 84480, Note_on_c, 10, 65, 0
18, 84480, Note_on_c, 10, 63, 101
18, 84960, Note_on_c, 10, 63, 0
18, 84960, Note_on_c, 10, 65, 101
18, 85440, Note_on_c, 10, 65, 0
18, 85440, Note_on_c, 10, 66, 109
18, 85920, Note_on_c, 10, 66, 0
18, 85920, Note_on_c, 10, 65, 109
18, 86400, Note_on_c, 10, 65, 0
18, 86400, Note_on_c, 10, 63, 109
18, 86880, Note_on_c, 10, 63, 0
18, 86880, Note_on_c, 10, 65, 109
18, 87360, Note_on_c, 10, 65, 0
18, 87360, Note_on_c, 10, 66, 115
18, 87840, Note_on_c, 10, 66, 0
18, 87840, Note_on_c, 10, 65, 115
18, 88320, Note_on_c, 10, 65, 0
18, 88320, Note_on_c, 10, 66, 115
18, 88800, Note_on_c, 10, 66, 0
18, 88800, Note_on_c, 10, 60, 115
18, 89280, Note_on_c, 10, 60, 0
18, 89280, Note_on_c, 10, 62, 123
18, 90720, Note_on_c, 10, 62, 0
18, 90720, Note_on_c, 10, 50, 123
18, 91200, Note_on_c, 10, 50, 0
18, 91200, Note_on_c, 10, 51, 123
18, 91680, Note_on_c, 10, 51, 0
18, 92160, Note_on_c, 10, 53, 123
18, 92640, Note_on_c, 10, 53, 0
18, 93120, Note_on_c, 10, 55, 123
18, 93600, Note_on_c, 10, 55, 0
18, 94080, Note_on_c, 10, 56, 123
18, 94560, Note_on_c, 10, 56, 0
18, 95040, Note_on_c, 10, 58, 123
18, 95520, Note_on_c, 10, 58, 0
18, 96000, Note_on_c, 10, 46, 123
18, 96480, Note_on_c, 10, 46, 0
18, 96960, Note_on_c, 10, 50, 123
18, 97440, Note_on_c, 10, 50, 0
18, 97440, Note_on_c, 10, 53, 123
18, 97920, Note_on_c, 10, 53, 0
18, 97920, Note_on_c, 10, 50, 123
18, 98400, Note_on_c, 10, 50, 0
18, 98400, Note_on_c, 10, 53, 123
18, 98880, Note_on_c, 10, 53, 0
18, 98880, Note_on_c, 10, 51, 123
18, 99360, Note_on_c, 10, 51, 0
18, 99360, Note_on_c, 10, 55, 123
18, 99840, Note_on_c, 10, 55, 0
18, 99840, Note_on_c, 10, 53, 123
18, 100320, Note_on_c, 10, 53, 0
18, 100320, Note_on_c, 10, 56, 123
18, 100800, Note_on_c, 10, 56, 0
18, 100800, Note_on_c, 10, 55, 123
18, 101280, Note_on_c, 10, 55, 0
18, 101280, Note_on_c, 10, 58, 123
18, 101760, Note_on_c, 10, 58, 0
18, 101760, Note_on_c, 10, 56, 123
18, 102240, Note_on_c, 10, 56, 0
18, 102240, Note_on_c, 10, 60, 123
18, 102720, Note_on_c, 10, 60, 0
18, 102720, Note_on_c, 10, 58, 123
18, 103200, Note_on_c, 10, 58, 0
18, 103200, Note_on_c, 10, 46, 123
18, 103680, Note_on_c, 10, 46, 0
18, 103680, Note_on_c, 10, 58, 123
18, 104160, Note_on_c, 10, 58, 0
18, 104160, Note_on_c, 10, 46, 123
18, 104640, Note_on_c, 10, 46, 0
18, 104640, Note_on_c, 10, 51, 123
18, 107760, Note_on_c, 10, 51, 0
18, 107760, Note_on_c, 10, 46, 123
18, 108000, Note_on_c, 10, 46, 0
18, 108000, Note_on_c, 10, 46, 123
18, 108240, Note_on_c, 10, 46, 0
18, 108240, Note_on_c, 10, 46, 123
18, 108480, Note_on_c, 10, 46, 0
18, 108480, Note_on_c, 10, 51, 123
18, 111600, Note_on_c, 10, 51, 0
18, 111600, Note_on_c, 10, 46, 123
18, 111840, Note_on_c, 10, 46, 0
18, 111840, Note_on_c, 10, 46, 123
18, 112080, Note_on_c, 10, 46, 0
18, 112080, Note_on_c, 10, 46, 123
18, 112320, Note_on_c, 10, 46, 0
18, 112320, Note_on_c, 10, 51, 123
18, 112800, Note_on_c, 10, 51, 0
18, 113520, Note_on_c, 10, 46, 123
18, 113760, Note_on_c, 10, 46, 0
18, 113760, Note_on_c, 10, 46, 123
18, 114000, Note_on_c, 10, 46, 0
18, 114000, Note_on_c, 10, 46, 123
18, 114240, Note_on_c, 10, 46, 0
18, 114240, Note_on_c, 10, 51, 123
18, 114720, Note_on_c, 10, 51, 0
18, 115440, Note_on_c, 10, 46, 123
18, 115680, Note_on_c, 10, 46, 0
18, 115680, Note_on_c, 10, 46, 123
18, 115920, Note_on_c, 10, 46, 0
18, 115920, Note_on_c, 10, 46, 123
18, 116160, Note_on_c, 10, 46, 0
18, 116160, Note_on_c, 10, 51, 123
18, 116640, Note_on_c, 10, 51, 0
18, 119280, Note_on_c, 10, 43, 123
18, 119520, Note_on_c, 10, 43, 0
18, 119520, Note_on_c, 10, 43, 123
18, 119760, Note_on_c, 10, 43, 0
18, 119760, Note_on_c, 10, 43, 123
18, 120000, Note_on_c, 10, 43, 0
18, 120000, Note_on_c, 10, 39, 123
18, 120960, Note_on_c, 10, 39, 0
18, 121200, Note_on_c, 10, 41, 123
18, 121440, Note_on_c, 10, 41, 0
18, 121440, Note_on_c, 10, 41, 123
18, 121680, Note_on_c, 10, 41, 0
18, 121680, Note_on_c, 10, 41, 123
18, 121920, Note_on_c, 10, 41, 0
18, 121920, Note_on_c, 10, 38, 123
18, 123840, Note_on_c, 10, 38, 0
18, 124800, Note_on_c, 10, 60, 91
18, 128640, Note_on_c, 10, 60, 0
18, 128640, Note_on_c, 10, 59, 91
18, 132480, Note_on_c, 10, 59, 0
18, 132480, Note_on_c, 10, 60, 91
18, 133440, Note_on_c, 10, 60, 0
18, 133440, Note_on_c, 10, 59, 91
18, 134400, Note_on_c, 10, 59, 0
18, 134400, Note_on_c, 10, 60, 91
18, 135360, Note_on_c, 10, 60, 0
18, 135360, Note_on_c, 10, 59, 91
18, 135600, Note_on_c, 10, 59, 0
18, 135600, Note_on_c, 10, 59, 91
18, 135840, Note_on_c, 10, 59, 0
18, 135840, Note_on_c, 10, 59, 101
18, 136080, Note_on_c, 10, 59, 0
18, 136080, Note_on_c, 10, 59, 109
18, 136320, Note_on_c, 10, 59, 0
18, 136320, Note_on_c, 10, 60, 115
18, 136800, Note_on_c, 10, 60, 0
18, 137280, Note_on_c, 10, 44, 115
18, 137760, Note_on_c, 10, 44, 0
18, 138240, Note_on_c, 10, 43, 115
18, 138720, Note_on_c, 10, 43, 0
18, 139440, Note_on_c, 10, 44, 123
18, 139680, Note_on_c, 10, 44, 0
18, 139680, Note_on_c, 10, 44, 123
18, 139920, Note_on_c, 10, 44, 0
18, 139920, Note_on_c, 10, 44, 123
18, 140160, Note_on_c, 10, 44, 0
18, 140160, Note_on_c, 10, 41, 123
18, 142080, Note_on_c, 10, 41, 0
18, 145200, Note_on_c, 10, 43, 91
18, 145440, Note_on_c, 10, 43, 0
18, 145440, Note_on_c, 10, 43, 91
18, 145680, Note_on_c, 10, 43, 0
18, 145680, Note_on_c, 10, 43, 91
18, 145920, Note_on_c, 10, 43, 0
18, 145920, Note_on_c, 10, 48, 91
18, 146400, Note_on_c, 10, 48, 0
18, 149040, Note_on_c, 10, 43, 91
18, 149280, Note_on_c, 10, 43, 0
18, 149280, Note_on_c, 10, 43, 91
18, 149520, Note_on_c, 10, 43, 0
18, 149520, Note_on_c, 10, 43, 91
18, 149760, Note_on_c, 10, 43, 0
18, 149760, Note_on_c, 10, 48, 91
18, 150240, Note_on_c, 10, 48, 0
18, 150960, Note_on_c, 10, 48, 91
18, 151200, Note_on_c, 10, 48, 0
18, 151200, Note_on_c, 10, 48, 91
18, 151440, Note_on_c, 10, 48, 0
18, 151440, Note_on_c, 10, 48, 91
18, 151680, Note_on_c, 10, 48, 0
18, 151680, Note_on_c, 10, 48, 101
18, 152160, Note_on_c, 10, 48, 0
18, 152880, Note_on_c, 10, 48, 115
18, 153120, Note_on_c, 10, 48, 0
18, 153120, Note_on_c, 10, 48, 115
18, 153360, Note_on_c, 10, 48, 0
18, 153360, Note_on_c, 10, 48, 115
18, 153600, Note_on_c, 10, 48, 0
18, 153600, Note_on_c, 10, 48, 123
18, 154080, Note_on_c, 10, 48, 0
18, 154560, Note_on_c, 10, 48, 123
18, 155040, Note_on_c, 10, 48, 0
18, 155520, Note_on_c, 10, 48, 123
18, 156000, Note_on_c, 10, 48, 0
18, 156480, Note_on_c, 10, 48, 123
18, 156960, Note_on_c, 10, 48, 0
18, 157440, Note_on_c, 10, 48, 123
18, 157920, Note_on_c, 10, 48, 0
18, 158400, Note_on_c, 10, 48, 123
18, 158880, Note_on_c, 10, 48, 0
18, 159360, Note_on_c, 10, 48, 123
18, 159840, Note_on_c, 10, 48, 0
18, 160320, Note_on_c, 10, 48, 115
18, 163440, Note_on_c, 10, 48, 0
18, 163440, Note_on_c, 10, 48, 109
18, 163680, Note_on_c, 10, 48, 0
18, 163680, Note_on_c, 10, 48, 109
18, 163920, Note_on_c, 10, 48, 0
18, 163920, Note_on_c, 10, 48, 109
18, 164160, Note_on_c, 10, 48, 0
18, 164160, Note_on_c, 10, 43, 109
18, 167280, Note_on_c, 10, 43, 0
18, 167280, Note_on_c, 10, 43, 109
18, 167520, Note_on_c, 10, 43, 0
18, 167520, Note_on_c, 10, 48, 109
18, 167760, Note_on_c, 10, 48, 0
18, 167760, Note_on_c, 10, 48, 109
18, 168000, Note_on_c, 10, 48, 0
18, 168000, Note_on_c, 10, 48, 123
18, 168240, Note_on_c, 10, 48, 0
18, 168240, Note_on_c, 10, 48, 123
18, 168480, Note_on_c, 10, 48, 0
18, 168480, Note_on_c, 10, 48, 123
18, 168720, Note_on_c, 10, 48, 0
18, 168720, Note_on_c, 10, 48, 123
18, 168960, Note_on_c, 10, 48, 0
18, 168960, Note_on_c, 10, 48, 123
18, 169200, Note_on_c, 10, 48, 0
18, 169200, Note_on_c, 10, 48, 123
18, 169440, Note_on_c, 10, 48, 0
18, 169440, Note_on_c, 10, 48, 123
18, 169680, Note_on_c, 10, 48, 0
18, 169680, Note_on_c, 10, 48, 123
18, 169920, Note_on_c, 10, 48, 0
18, 169920, Note_on_c, 10, 48, 123
18, 170160, Note_on_c, 10, 48, 0
18, 170160, Note_on_c, 10, 48, 123
18, 170400, Note_on_c, 10, 48, 0
18, 170400, Note_on_c, 10, 48, 123
18, 170640, Note_on_c, 10, 48, 0
18, 170640, Note_on_c, 10, 48, 123
18, 170880, Note_on_c, 10, 48, 0
18, 170880, Note_on_c, 10, 48, 123
18, 171120, Note_on_c, 10, 48, 0
18, 171120, Note_on_c, 10, 48, 123
18, 171360, Note_on_c, 10, 48, 0
18, 171360, Note_on_c, 10, 48, 123
18, 171600, Note_on_c, 10, 48, 0
18, 171600, Note_on_c, 10, 48, 123
18, 171840, Note_on_c, 10, 48, 0
18, 171840, Note_on_c, 10, 48, 123
18, 172320, Note_on_c, 10, 48, 0
18, 173760, Note_on_c, 10, 50, 123
18, 174240, Note_on_c, 10, 50, 0
18, 180720, Note_on_c, 10, 46, 91
18, 180960, Note_on_c, 10, 46, 0
18, 180960, Note_on_c, 10, 46, 91
18, 181200, Note_on_c, 10, 46, 0
18, 181200, Note_on_c, 10, 46, 91
18, 181440, Note_on_c, 10, 46, 0
18, 181440, Note_on_c, 10, 51, 91
18, 181920, Note_on_c, 10, 51, 0
18, 184560, Note_on_c, 10, 46, 91
18, 184800, Note_on_c, 10, 46, 0
18, 184800, Note_on_c, 10, 46, 91
18, 185040, Note_on_c, 10, 46, 0
18, 185040, Note_on_c, 10, 46, 91
18, 185280, Note_on_c, 10, 46, 0
18, 185280, Note_on_c, 10, 51, 91
18, 185760, Note_on_c, 10, 51, 0
18, 188400, Note_on_c, 10, 46, 91
18, 188640, Note_on_c, 10, 46, 0
18, 188640, Note_on_c, 10, 46, 91
18, 188880, Note_on_c, 10, 46, 0
18, 188880, Note_on_c, 10, 46, 91
18, 189120, Note_on_c, 10, 46, 0
18, 189120, Note_on_c, 10, 51, 91
18, 189600, Note_on_c, 10, 51, 0
18, 192240, Note_on_c, 10, 48, 91
18, 192480, Note_on_c, 10, 48, 0
18, 192480, Note_on_c, 10, 48, 91
18, 192720, Note_on_c, 10, 48, 0
18, 192720, Note_on_c, 10, 48, 91
18, 192960, Note_on_c, 10, 48, 0
18, 192960, Note_on_c, 10, 53, 91
18, 193440, Note_on_c, 10, 53, 0
18, 196080, Note_on_c, 10, 51, 91
18, 196320, Note_on_c, 10, 51, 0
18, 196320, Note_on_c, 10, 51, 91
18, 196560, Note_on_c, 10, 51, 0
18, 196560, Note_on_c, 10, 51, 91
18, 196800, Note_on_c, 10, 51, 0
18, 196800, Note_on_c, 10, 56, 91
18, 197280, Note_on_c, 10, 56, 0
18, 197760, Note_on_c, 10, 63, 91
18, 198240, Note_on_c, 10, 63, 0
18, 198240, Note_on_c, 10, 65, 91
18, 198720, Note_on_c, 10, 65, 0
18, 198720, Note_on_c, 10, 66, 91
18, 199200, Note_on_c, 10, 66, 0
18, 199200, Note_on_c, 10, 65, 91
18, 199680, Note_on_c, 10, 65, 0
18, 199680, Note_on_c, 10, 63, 91
18, 200160, Note_on_c, 10, 63, 0
18, 200160, Note_on_c, 10, 65, 91
18, 200640, Note_on_c, 10, 65, 0
18, 200640, Note_on_c, 10, 66, 91
18, 201120, Note_on_c, 10, 66, 0
18, 201120, Note_on_c, 10, 65, 91
18, 201600, Note_on_c, 10, 65, 0
18, 201600, Note_on_c, 10, 63, 91
18, 202080, Note_on_c, 10, 63, 0
18, 202080, Note_on_c, 10, 65, 91
18, 202560, Note_on_c, 10, 65, 0
18, 202560, Note_on_c, 10, 66, 101
18, 203040, Note_on_c, 10, 66, 0
18, 203040, Note_on_c, 10, 65, 101
18, 203520, Note_on_c, 10, 65, 0
18, 203520, Note_on_c, 10, 63, 101
18, 204000, Note_on_c, 10, 63, 0
18, 204000, Note_on_c, 10, 65, 101
18, 204480, Note_on_c, 10, 65, 0
18, 204480, Note_on_c, 10, 66, 109
18, 204960, Note_on_c, 10, 66, 0
18, 204960, Note_on_c, 10, 65, 109
18, 205440, Note_on_c, 10, 65, 0
18, 205440, Note_on_c, 10, 63, 109
18, 205920, Note_on_c, 10, 63, 0
18, 205920, Note_on_c, 10, 65, 109
18, 206400, Note_on_c, 10, 65, 0
18, 206400, Note_on_c, 10, 66, 115
18, 206880, Note_on_c, 10, 66, 0
18, 206880, Note_on_c, 10, 65, 115
18, 207360, Note_on_c, 10, 65, 0
18, 207360, Note_on_c, 10, 66, 115
18, 207840, Note_on_c, 10, 66, 0
18, 207840, Note_on_c, 10, 60, 115
18, 208320, Note_on_c, 10, 60, 0
18, 208320, Note_on_c, 10, 62, 123
18, 209760, Note_on_c, 10, 62, 0
18, 209760, Note_on_c, 10, 50, 123
18, 210240, Note_on_c, 10, 50, 0
18, 210240, Note_on_c, 10, 51, 123
18, 210720, Note_on_c, 10, 51, 0
18, 211200, Note_on_c, 10, 53, 123
18, 211680, Note_on_c, 10, 53, 0
18, 212160, Note_on_c, 10, 55, 123
18, 212640, Note_on_c, 10, 55, 0
18, 213120, Note_on_c, 10, 56, 123
18, 213600, Note_on_c, 10, 56, 0
18, 214080, Note_on_c, 10, 58, 123
18, 214560, Note_on_c, 10, 58, 0
18, 215040, Note_on_c, 10, 46, 123
18, 215520, Note_on_c, 10, 46, 0
18, 216000, Note_on_c, 10, 50, 123
18, 216480, Note_on_c, 10, 50, 0
18, 216480, Note_on_c, 10, 53, 123
18, 216960, Note_on_c, 10, 53, 0
18, 216960, Note_on_c, 10, 50, 123
18, 217440, Note_on_c, 10, 50, 0
18, 217440, Note_on_c, 10, 53, 123
18, 217920, Note_on_c, 10, 53, 0
18, 217920, Note_on_c, 10, 51, 123
18, 218400, Note_on_c, 10, 51, 0
18, 218400, Note_on_c, 10, 55, 123
18, 218880, Note_on_c, 10, 55, 0
18, 218880, Note_on_c, 10, 53, 123
18, 219360, Note_on_c, 10, 53, 0
18, 219360, Note_on_c, 10, 56, 123
18, 219840, Note_on_c, 10, 56, 0
18, 219840, Note_on_c, 10, 55, 123
18, 220320, Note_on_c, 10, 55, 0
18, 220320, Note_on_c, 10, 58, 123
18, 220800, Note_on_c, 10, 58, 0
18, 220800, Note_on_c, 10, 56, 123
18, 221280, Note_on_c, 10, 56, 0
18, 221280, Note_on_c, 10, 60, 123
18, 221760, Note_on_c, 10, 60, 0
18, 221760, Note_on_c, 10, 58, 123
18, 222240, Note_on_c, 10, 58, 0
18, 222240, Note_on_c, 10, 46, 123
18, 222720, Note_on_c, 10, 46, 0
18, 222720, Note_on_c, 10, 58, 123
18, 223200, Note_on_c, 10, 58, 0
18, 223200, Note_on_c, 10, 46, 123
18, 223680, Note_on_c, 10, 46, 0
18, 223680, Note_on_c, 10, 51, 123
18, 226800, Note_on_c, 10, 51, 0
18, 226800, Note_on_c, 10, 46, 123
18, 227040, Note_on_c, 10, 46, 0
18, 227040, Note_on_c, 10, 46, 123
18, 227280, Note_on_c, 10, 46, 0
18, 227280, Note_on_c, 10, 46, 123
18, 227520, Note_on_c, 10, 46, 0
18, 227520, Note_on_c, 10, 51, 123
18, 230640, Note_on_c, 10, 51, 0
18, 230640, Note_on_c, 10, 46, 123
18, 230880, Note_on_c, 10, 46, 0
18, 230880, Note_on_c, 10, 46, 123
18, 231120, Note_on_c, 10, 46, 0
18, 231120, Note_on_c, 10, 46, 123
18, 231360, Note_on_c, 10, 46, 0
18, 231360, Note_on_c, 10, 51, 123
18, 231840, Note_on_c, 10, 51, 0
18, 232560, Note_on_c, 10, 46, 123
18, 232800, Note_on_c, 10, 46, 0
18, 232800, Note_on_c, 10, 46, 123
18, 233040, Note_on_c, 10, 46, 0
18, 233040, Note_on_c, 10, 46, 123
18, 233280, Note_on_c, 10, 46, 0
18, 233280, Note_on_c, 10, 51, 123
18, 233760, Note_on_c, 10, 51, 0
18, 234480, Note_on_c, 10, 46, 123
18, 234720, Note_on_c, 10, 46, 0
18, 234720, Note_on_c, 10, 46, 123
18, 234960, Note_on_c, 10, 46, 0
18, 234960, Note_on_c, 10, 46, 123
18, 235200, Note_on_c, 10, 46, 0
18, 235200, Note_on_c, 10, 51, 123
18, 235680, Note_on_c, 10, 51, 0
18, 239280, Note_on_c, 10, 37, 123
18, 239520, Note_on_c, 10, 37, 0
18, 239520, Note_on_c, 10, 37, 123
18, 239760, Note_on_c, 10, 37, 0
18, 239760, Note_on_c, 10, 37, 123
18, 240000, Note_on_c, 10, 37, 0
18, 240000, Note_on_c, 10, 36, 123
18, 241920, Note_on_c, 10, 36, 0
18, 242880, Note_on_c, 10, 60, 91
18, 245040, Note_on_c, 10, 60, 0
18, 245040, Note_on_c, 10, 61, 91
18, 245280, Note_on_c, 10, 61, 0
18, 245280, Note_on_c, 10, 61, 91
18, 245520, Note_on_c, 10, 61, 0
18, 245520, Note_on_c, 10, 61, 91
18, 245760, Note_on_c, 10, 61, 0
18, 245760, Note_on_c, 10, 60, 91
18, 248880, Note_on_c, 10, 60, 0
18, 248880, Note_on_c, 10, 61, 91
18, 249120, Note_on_c, 10, 61, 0
18, 249120, Note_on_c, 10, 61, 91
18, 249360, Note_on_c, 10, 61, 0
18, 249360, Note_on_c, 10, 61, 91
18, 249600, Note_on_c, 10, 61, 0
18, 249600, Note_on_c, 10, 60, 91
18, 253440, Note_on_c, 10, 60, 0
18, 253440, Note_on_c, 10, 60, 91
18, 255360, Note_on_c, 10, 60, 0
18, 255360, Note_on_c, 10, 62, 91
18, 255840, Note_on_c, 10, 62, 0
18, 255840, Note_on_c, 10, 63, 91
18, 256320, Note_on_c, 10, 63, 0
18, 256320, Note_on_c, 10, 65, 91
18, 256800, Note_on_c, 10, 65, 0
18, 256800, Note_on_c, 10, 66, 91
18, 257280, Note_on_c, 10, 66, 0
18, 257280, Note_on_c, 10, 67, 91
18, 257520, Note_on_c, 10, 67, 0
18, 257520, Note_on_c, 10, 67, 91
18, 257760, Note_on_c, 10, 67, 0
18, 257760, Note_on_c, 10, 67, 91
18, 258000, Note_on_c, 10, 67, 0
18, 258000, Note_on_c, 10, 65, 91
18, 258240, Note_on_c, 10, 65, 0
18, 258240, Note_on_c, 10, 63, 91
18, 259200, Note_on_c, 10, 63, 0
18, 259200, Note_on_c, 10, 62, 91
18, 259440, Note_on_c, 10, 62, 0
18, 259440, Note_on_c, 10, 67, 91
18, 259680, Note_on_c, 10, 67, 0
18, 259680, Note_on_c, 10, 67, 91
18, 259920, Note_on_c, 10, 67, 0
18, 259920, Note_on_c, 10, 65, 91
18, 260160, Note_on_c, 10, 65, 0
18, 260160, Note_on_c, 10, 63, 91
18, 261120, Note_on_c, 10, 63, 0
18, 261120, Note_on_c, 10, 62, 91
18, 261360, Note_on_c, 10, 62, 0
18, 261360, Note_on_c, 10, 67, 91
18, 261600, Note_on_c, 10, 67, 0
18, 261600, Note_on_c, 10, 67, 91
18, 261840, Note_on_c, 10, 67, 0
18, 261840, Note_on_c, 10, 65, 91
18, 262080, Note_on_c, 10, 65, 0
18, 262080, Note_on_c, 10, 63, 91
18, 262320, Note_on_c, 10, 63, 0
18, 262320, Note_on_c, 10, 63, 91
18, 262560, Note_on_c, 10, 63, 0
18, 262560, Note_on_c, 10, 63, 91
18, 262800, Note_on_c, 10, 63, 0
18, 262800, Note_on_c, 10, 62, 91
18, 263040, Note_on_c, 10, 62, 0
18, 263040, Note_on_c, 10, 60, 91
18, 263280, Note_on_c, 10, 60, 0
18, 263280, Note_on_c, 10, 60, 91
18, 263520, Note_on_c, 10, 60, 0
18, 263520, Note_on_c, 10, 60, 91
18, 263760, Note_on_c, 10, 60, 0
18, 263760, Note_on_c, 10, 58, 91
18, 264000, Note_on_c, 10, 58, 0
18, 264000, Note_on_c, 10, 57, 91
18, 264240, Note_on_c, 10, 57, 0
18, 264240, Note_on_c, 10, 57, 91
18, 264480, Note_on_c, 10, 57, 0
18, 264480, Note_on_c, 10, 57, 91
18, 264720, Note_on_c, 10, 57, 0
18, 264720, Note_on_c, 10, 55, 91
18, 264960, Note_on_c, 10, 55, 0
18, 264960, Note_on_c, 10, 54, 91
18, 265440, Note_on_c, 10, 54, 0
18, 266160, Note_on_c, 10, 58, 91
18, 266400, Note_on_c, 10, 58, 0
18, 266400, Note_on_c, 10, 58, 91
18, 266640, Note_on_c, 10, 58, 0
18, 266640, Note_on_c, 10, 60, 91
18, 266880, Note_on_c, 10, 60, 0
18, 266880, Note_on_c, 10, 62, 91
18, 268080, Note_on_c, 10, 62, 0
18, 268080, Note_on_c, 10, 58, 91
18, 268320, Note_on_c, 10, 58, 0
18, 268320, Note_on_c, 10, 58, 91
18, 268560, Note_on_c, 10, 58, 0
18, 268560, Note_on_c, 10, 60, 91
18, 268800, Note_on_c, 10, 60, 0
18, 268800, Note_on_c, 10, 62, 91
18, 269040, Note_on_c, 10, 62, 0
18, 269040, Note_on_c, 10, 62, 91
18, 269280, Note_on_c, 10, 62, 0
18, 269280, Note_on_c, 10, 62, 91
18, 269520, Note_on_c, 10, 62, 0
18, 269520, Note_on_c, 10, 60, 91
18, 269760, Note_on_c, 10, 60, 0
18, 269760, Note_on_c, 10, 58, 91
18, 270000, Note_on_c, 10, 58, 0
18, 270000, Note_on_c, 10, 58, 91
18, 270240, Note_on_c, 10, 58, 0
18, 270240, Note_on_c, 10, 58, 91
18, 270480, Note_on_c, 10, 58, 0
18, 270480, Note_on_c, 10, 57, 91
18, 270720, Note_on_c, 10, 57, 0
18, 270720, Note_on_c, 10, 55, 91
18, 270960, Note_on_c, 10, 55, 0
18, 270960, Note_on_c, 10, 55, 91
18, 271200, Note_on_c, 10, 55, 0
18, 271200, Note_on_c, 10, 55, 91
18, 271440, Note_on_c, 10, 55, 0
18, 271440, Note_on_c, 10, 53, 91
18, 271680, Note_on_c, 10, 53, 0
18, 271680, Note_on_c, 10, 51, 91
18, 271920, Note_on_c, 10, 51, 0
18, 271920, Note_on_c, 10, 51, 91
18, 272160, Note_on_c, 10, 51, 0
18, 272160, Note_on_c, 10, 51, 91
18, 272400, Note_on_c, 10, 51, 0
18, 272400, Note_on_c, 10, 50, 91
18, 272640, Note_on_c, 10, 50, 0
18, 272640, Note_on_c, 10, 48, 91
18, 272880, Note_on_c, 10, 48, 0
18, 272880, Note_on_c, 10, 60, 91
18, 273120, Note_on_c, 10, 60, 0
18, 273120, Note_on_c, 10, 60, 91
18, 273360, Note_on_c, 10, 60, 0
18, 273360, Note_on_c, 10, 58, 91
18, 273600, Note_on_c, 10, 58, 0
18, 273600, Note_on_c, 10, 57, 91
18, 273840, Note_on_c, 10, 57, 0
18, 273840, Note_on_c, 10, 57, 91
18, 274080, Note_on_c, 10, 57, 0
18, 274080, Note_on_c, 10, 57, 91
18, 274320, Note_on_c, 10, 57, 0
18, 274320, Note_on_c, 10, 55, 91
18, 274560, Note_on_c, 10, 55, 0
18, 274560, Note_on_c, 10, 54, 91
18, 274800, Note_on_c, 10, 54, 0
18, 274800, Note_on_c, 10, 54, 91
18, 275040, Note_on_c, 10, 54, 0
18, 275040, Note_on_c, 10, 54, 91
18, 275280, Note_on_c, 10, 54, 0
18, 275280, Note_on_c, 10, 51, 91
18, 275520, Note_on_c, 10, 51, 0
18, 275520, Note_on_c, 10, 50, 91
18, 275760, Note_on_c, 10, 50, 0
18, 275760, Note_on_c, 10, 50, 91
18, 276000, Note_on_c, 10, 50, 0
18, 276000, Note_on_c, 10, 50, 91
18, 276240, Note_on_c, 10, 50, 0
18, 276240, Note_on_c, 10, 48, 91
18, 276480, Note_on_c, 10, 48, 0
18, 276480, Note_on_c, 10, 46, 91
18, 276720, Note_on_c, 10, 46, 0
18, 276720, Note_on_c, 10, 62, 91
18, 276960, Note_on_c, 10, 62, 0
18, 276960, Note_on_c, 10, 62, 91
18, 277200, Note_on_c, 10, 62, 0
18, 277200, Note_on_c, 10, 60, 91
18, 277440, Note_on_c, 10, 60, 0
18, 277440, Note_on_c, 10, 58, 91
18, 277680, Note_on_c, 10, 58, 0
18, 277680, Note_on_c, 10, 58, 91
18, 277920, Note_on_c, 10, 58, 0
18, 277920, Note_on_c, 10, 58, 91
18, 278160, Note_on_c, 10, 58, 0
18, 278160, Note_on_c, 10, 57, 101
18, 278400, Note_on_c, 10, 57, 0
18, 278400, Note_on_c, 10, 55, 101
18, 278640, Note_on_c, 10, 55, 0
18, 278640, Note_on_c, 10, 53, 109
18, 278880, Note_on_c, 10, 53, 0
18, 278880, Note_on_c, 10, 51, 109
18, 279120, Note_on_c, 10, 51, 0
18, 279120, Note_on_c, 10, 50, 109
18, 279360, Note_on_c, 10, 50, 0
18, 279360, Note_on_c, 10, 36, 115
18, 279360, Note_on_c, 10, 48, 115
18, 279600, Note_on_c, 10, 48, 0
18, 279600, Note_on_c, 10, 36, 0
18, 279600, Note_on_c, 10, 36, 115
18, 279600, Note_on_c, 10, 48, 115
18, 279840, Note_on_c, 10, 48, 0
18, 279840, Note_on_c, 10, 36, 0
18, 279840, Note_on_c, 10, 36, 115
18, 279840, Note_on_c, 10, 48, 115
18, 280080, Note_on_c, 10, 48, 0
18, 280080, Note_on_c, 10, 36, 0
18, 280080, Note_on_c, 10, 36, 115
18, 280080, Note_on_c, 10, 48, 115
18, 280320, Note_on_c, 10, 48, 0
18, 280320, Note_on_c, 10, 36, 0
18, 280320, Note_on_c, 10, 36, 115
18, 280320, Note_on_c, 10, 48, 115
18, 280560, Note_on_c, 10, 48, 0
18, 280560, Note_on_c, 10, 36, 0
18, 280560, Note_on_c, 10, 36, 115
18, 280560, Note_on_c, 10, 48, 115
18, 280800, Note_on_c, 10, 48, 0
18, 280800, Note_on_c, 10, 36, 0
18, 280800, Note_on_c, 10, 36, 115
18, 280800, Note_on_c, 10, 48, 115
18, 281040, Note_on_c, 10, 48, 0
18, 281040, Note_on_c, 10, 36, 0
18, 281040, Note_on_c, 10, 36, 115
18, 281040, Note_on_c, 10, 48, 115
18, 281280, Note_on_c, 10, 48, 0
18, 281280, Note_on_c, 10, 36, 0
18, 281280, Note_on_c, 10, 36, 115
18, 281280, Note_on_c, 10, 48, 115
18, 281760, Note_on_c, 10, 48, 0
18, 281760, Note_on_c, 10, 36, 0
18, 282480, Note_on_c, 10, 49, 115
18, 282720, Note_on_c, 10, 49, 0
18, 282720, Note_on_c, 10, 49, 115
18, 282960, Note_on_c, 10, 49, 0
18, 282960, Note_on_c, 10, 49, 115
18, 283200, Note_on_c, 10, 49, 0
18, 283200, Note_on_c, 10, 49, 115
18, 283440, Note_on_c, 10, 49, 0
18, 283440, Note_on_c, 10, 49, 115
18, 283680, Note_on_c, 10, 49, 0
18, 283680, Note_on_c, 10, 49, 115
18, 283920, Note_on_c, 10, 49, 0
18, 283920, Note_on_c, 10, 49, 115
18, 284160, Note_on_c, 10, 49, 0
18, 284160, Note_on_c, 10, 49, 115
18, 284400, Note_on_c, 10, 49, 0
18, 284400, Note_on_c, 10, 49, 115
18, 284640, Note_on_c, 10, 49, 0
18, 284640, Note_on_c, 10, 49, 115
18, 284880, Note_on_c, 10, 49, 0
18, 284880, Note_on_c, 10, 49, 115
18, 285120, Note_on_c, 10, 49, 0
18, 285120, Note_on_c, 10, 49, 115
18, 285600, Note_on_c, 10, 49, 0
18, 286320, Note_on_c, 10, 50, 115
18, 286560, Note_on_c, 10, 50, 0
18, 286560, Note_on_c, 10, 50, 115
18, 286800, Note_on_c, 10, 50, 0
18, 286800, Note_on_c, 10, 50, 115
18, 287040, Note_on_c, 10, 50, 0
18, 287040, Note_on_c, 10, 50, 115
18, 287520, Note_on_c, 10, 50, 0
18, 288480, Note_on_c, 10, 52, 115
18, 288720, Note_on_c, 10, 52, 0
18, 288720, Note_on_c, 10, 52, 115
18, 288960, Note_on_c, 10, 52, 0
18, 288960, Note_on_c, 10, 52, 115
18, 289440, Note_on_c, 10, 52, 0
18, 289440, Note_on_c, 10, 54, 115
18, 289680, Note_on_c, 10, 54, 0
18, 289680, Note_on_c, 10, 54, 115
18, 289920, Note_on_c, 10, 54, 0
18, 289920, Note_on_c, 10, 54, 115
18, 290400, Note_on_c, 10, 54, 0
18, 293280, Note_on_c, 10, 60, 115
18, 294240, Note_on_c, 10, 60, 0
18, 294240, Note_on_c, 10, 57, 115
18, 294720, Note_on_c, 10, 57, 0
18, 294720, Note_on_c, 10, 54, 115
18, 295200, Note_on_c, 10, 54, 0
18, 295200, Note_on_c, 10, 50, 115
18, 295680, Note_on_c, 10, 50, 0
18, 295680, Note_on_c, 10, 48, 115
18, 296160, Note_on_c, 10, 48, 0
18, 296160, Note_on_c, 10, 45, 115
18, 296640, Note_on_c, 10, 45, 0
18, 296640, Note_on_c, 10, 42, 115
18, 297120, Note_on_c, 10, 42, 0
18, 297120, Note_on_c, 10, 38, 115
18, 297600, Note_on_c, 10, 38, 0
18, 297600, Note_on_c, 10, 43, 115
18, 298080, Note_on_c, 10, 43, 0
18, 300960, Note_on_c, 10, 65, 115
18, 301920, Note_on_c, 10, 65, 0
18, 301920, Note_on_c, 10, 62, 115
18, 302400, Note_on_c, 10, 62, 0
18, 302400, Note_on_c, 10, 59, 115
18, 302880, Note_on_c, 10, 59, 0
18, 302880, Note_on_c, 10, 55, 115
18, 303360, Note_on_c, 10, 55, 0
18, 303360, Note_on_c, 10, 53, 115
18, 303840, Note_on_c, 10, 53, 0
18, 303840, Note_on_c, 10, 50, 115
18, 304320, Note_on_c, 10, 50, 0
18, 304320, Note_on_c, 10, 47, 115
18, 304800, Note_on_c, 10, 47, 0
18, 304800, Note_on_c, 10, 43, 115
18, 305280, Note_on_c, 10, 43, 0
18, 305280, Note_on_c, 10, 48, 115
18, 305760, Note_on_c, 10, 48, 0
18, 308160, Note_on_c, 10, 43, 115
18, 309120, Note_on_c, 10, 43, 0
18, 309120, Note_on_c, 10, 44, 115
18, 310080, Note_on_c, 10, 44, 0
18, 312000, Note_on_c, 10, 43, 115
18, 312960, Note_on_c, 10, 43, 0
18, 312960, Note_on_c, 10, 44, 115
18, 313920, Note_on_c, 10, 44, 0
18, 315840, Note_on_c, 10, 46, 115
18, 316800, Note_on_c, 10, 46, 0
18, 316800, Note_on_c, 10, 48, 115
18, 317760, Note_on_c, 10, 48, 0
18, 319680, Note_on_c, 10, 49, 115
18, 320640, Note_on_c, 10, 49, 0
18, 321600, Note_on_c, 10, 51, 115
18, 322560, Note_on_c, 10, 51, 0
18, 323520, Note_on_c, 10, 53, 109
18, 324480, Note_on_c, 10, 53, 0
18, 325440, Note_on_c, 10, 42, 101
18, 326400, Note_on_c, 10, 42, 0
18, 327360, Note_on_c, 10, 42, 91
18, 328320, Note_on_c, 10, 42, 0
18, 329280, Note_on_c, 10, 42, 91
18, 330240, Note_on_c, 10, 42, 0
18, 331200, Note_on_c, 10, 42, 78
18, 332160, Note_on_c, 10, 42, 0
18, 333120, Note_on_c, 10, 42, 78
18, 334080, Note_on_c, 10, 42, 0
18, 335040, Note_on_c, 10, 42, 78
18, 336000, Note_on_c, 10, 42, 0
18, 336960, Note_on_c, 10, 42, 123
18, 337200, Note_on_c, 10, 42, 0
18, 337200, Note_on_c, 10, 50, 123
18, 337440, Note_on_c, 10, 50, 0
18, 337440, Note_on_c, 10, 50, 123
18, 337680, Note_on_c, 10, 50, 0
18, 337680, Note_on_c, 10, 50, 123
18, 337920, Note_on_c, 10, 50, 0
18, 337920, Note_on_c, 10, 47, 123
18, 338880, Note_on_c, 10, 47, 0
18, 338880, Note_on_c, 10, 48, 123
18, 339840, Note_on_c, 10, 48, 0
18, 339840, Note_on_c, 10, 45, 123
18, 341760, Note_on_c, 10, 45, 0
18, 342720, Note_on_c, 10, 47, 78
18, 343680, Note_on_c, 10, 47, 0
18, 344640, Note_on_c, 10, 47, 78
18, 345600, Note_on_c, 10, 47, 0
18, 346560, Note_on_c, 10, 47, 78
18, 347520, Note_on_c, 10, 47, 0
18, 348480, Note_on_c, 10, 47, 115
18, 348720, Note_on_c, 10, 47, 0
18, 348720, Note_on_c, 10, 44, 123
18, 348960, Note_on_c, 10, 44, 0
18, 348960, Note_on_c, 10, 44, 123
18, 349200, Note_on_c, 10, 44, 0
18, 349200, Note_on_c, 10, 44, 123
18, 349440, Note_on_c, 10, 44, 0
18, 349440, Note_on_c, 10, 41, 123
18, 350640, Note_on_c, 10, 41, 0
18, 350640, Note_on_c, 10, 44, 123
18, 350880, Note_on_c, 10, 44, 0
18, 350880, Note_on_c, 10, 44, 123
18, 351120, Note_on_c, 10, 44, 0
18, 351120, Note_on_c, 10, 44, 123
18, 351360, Note_on_c, 10, 44, 0
18, 351360, Note_on_c, 10, 41, 123
18, 352560, Note_on_c, 10, 41, 0
18, 352560, Note_on_c, 10, 44, 123
18, 352800, Note_on_c, 10, 44, 0
18, 352800, Note_on_c, 10, 44, 123
18, 353040, Note_on_c, 10, 44, 0
18, 353040, Note_on_c, 10, 44, 123
18, 353280, Note_on_c, 10, 44, 0
18, 353280, Note_on_c, 10, 41, 123
18, 353520, Note_on_c, 10, 41, 0
18, 353520, Note_on_c, 10, 44, 123
18, 353760, Note_on_c, 10, 44, 0
18, 353760, Note_on_c, 10, 44, 123
18, 354000, Note_on_c, 10, 44, 0
18, 354000, Note_on_c, 10, 44, 123
18, 354240, Note_on_c, 10, 44, 0
18, 354240, Note_on_c, 10, 41, 123
18, 354480, Note_on_c, 10, 41, 0
18, 354480, Note_on_c, 10, 44, 123
18, 354720, Note_on_c, 10, 44, 0
18, 354720, Note_on_c, 10, 44, 123
18, 354960, Note_on_c, 10, 44, 0
18, 354960, Note_on_c, 10, 44, 123
18, 355200, Note_on_c, 10, 44, 0
18, 355200, Note_on_c, 10, 41, 123
18, 355440, Note_on_c, 10, 41, 0
18, 355440, Note_on_c, 10, 44, 123
18, 355680, Note_on_c, 10, 44, 0
18, 355680, Note_on_c, 10, 44, 123
18, 355920, Note_on_c, 10, 44, 0
18, 355920, Note_on_c, 10, 44, 123
18, 356160, Note_on_c, 10, 44, 0
18, 356160, Note_on_c, 10, 41, 123
18, 356400, Note_on_c, 10, 41, 0
18, 356400, Note_on_c, 10, 43, 123
18, 356640, Note_on_c, 10, 43, 0
18, 356640, Note_on_c, 10, 43, 123
18, 356880, Note_on_c, 10, 43, 0
18, 356880, Note_on_c, 10, 43, 123
18, 357120, Note_on_c, 10, 43, 0
18, 357120, Note_on_c, 10, 39, 123
18, 358080, Note_on_c, 10, 39, 0
18, 358320, Note_on_c, 10, 41, 123
18, 358560, Note_on_c, 10, 41, 0
18, 358560, Note_on_c, 10, 41, 123
18, 358800, Note_on_c, 10, 41, 0
18, 358800, Note_on_c, 10, 41, 123
18, 359040, Note_on_c, 10, 41, 0
18, 359040, Note_on_c, 10, 38, 123
18, 360960, Note_on_c, 10, 38, 0
18, 361920, Note_on_c, 10, 48, 91
18, 362400, Note_on_c, 10, 48, 0
18, 363840, Note_on_c, 10, 48, 91
18, 364320, Note_on_c, 10, 48, 0
18, 365760, Note_on_c, 10, 47, 91
18, 366240, Note_on_c, 10, 47, 0
18, 367680, Note_on_c, 10, 47, 91
18, 368160, Note_on_c, 10, 47, 0
18, 369600, Note_on_c, 10, 48, 91
18, 370080, Note_on_c, 10, 48, 0
18, 370560, Note_on_c, 10, 47, 91
18, 371040, Note_on_c, 10, 47, 0
18, 371520, Note_on_c, 10, 48, 91
18, 372000, Note_on_c, 10, 48, 0
18, 372480, Note_on_c, 10, 43, 91
18, 372960, Note_on_c, 10, 43, 0
18, 373440, Note_on_c, 10, 48, 91
18, 373920, Note_on_c, 10, 48, 0
18, 374400, Note_on_c, 10, 44, 91
18, 374880, Note_on_c, 10, 44, 0
18, 375360, Note_on_c, 10, 43, 123
18, 375840, Note_on_c, 10, 43, 0
18, 383280, Note_on_c, 10, 43, 91
18, 383520, Note_on_c, 10, 43, 0
18, 383520, Note_on_c, 10, 43, 91
18, 383760, Note_on_c, 10, 43, 0
18, 383760, Note_on_c, 10, 43, 91
18, 384000, Note_on_c, 10, 43, 0
18, 384000, Note_on_c, 10, 48, 91
18, 384240, Note_on_c, 10, 48, 0
18, 384240, Note_on_c, 10, 56, 91
18, 384480, Note_on_c, 10, 56, 0
18, 384480, Note_on_c, 10, 56, 91
18, 384720, Note_on_c, 10, 56, 0
18, 384720, Note_on_c, 10, 56, 91
18, 384960, Note_on_c, 10, 56, 0
18, 384960, Note_on_c, 10, 53, 101
18, 385200, Note_on_c, 10, 53, 0
18, 385200, Note_on_c, 10, 50, 101
18, 385440, Note_on_c, 10, 50, 0
18, 385440, Note_on_c, 10, 50, 101
18, 385680, Note_on_c, 10, 50, 0
18, 385680, Note_on_c, 10, 50, 101
18, 385920, Note_on_c, 10, 50, 0
18, 385920, Note_on_c, 10, 47, 101
18, 386160, Note_on_c, 10, 47, 0
18, 386160, Note_on_c, 10, 44, 101
18, 386400, Note_on_c, 10, 44, 0
18, 386400, Note_on_c, 10, 44, 109
18, 386640, Note_on_c, 10, 44, 0
18, 386640, Note_on_c, 10, 44, 109
18, 386880, Note_on_c, 10, 44, 0
18, 386880, Note_on_c, 10, 43, 109
18, 387120, Note_on_c, 10, 43, 0
18, 387120, Note_on_c, 10, 55, 109
18, 387360, Note_on_c, 10, 55, 0
18, 387360, Note_on_c, 10, 55, 109
18, 387600, Note_on_c, 10, 55, 0
18, 387600, Note_on_c, 10, 55, 109
18, 387840, Note_on_c, 10, 55, 0
18, 387840, Note_on_c, 10, 48, 115
18, 388080, Note_on_c, 10, 48, 0
18, 388080, Note_on_c, 10, 48, 115
18, 388320, Note_on_c, 10, 48, 0
18, 388320, Note_on_c, 10, 48, 115
18, 388560, Note_on_c, 10, 48, 0
18, 388560, Note_on_c, 10, 48, 115
18, 388800, Note_on_c, 10, 48, 0
18, 388800, Note_on_c, 10, 48, 115
18, 390000, Note_on_c, 10, 48, 0
18, 390000, Note_on_c, 10, 48, 115
18, 390240, Note_on_c, 10, 48, 0
18, 390240, Note_on_c, 10, 48, 115
18, 390480, Note_on_c, 10, 48, 0
18, 390480, Note_on_c, 10, 48, 115
18, 390720, Note_on_c, 10, 48, 0
18, 390720, Note_on_c, 10, 48, 115
18, 391920, Note_on_c, 10, 48, 0
18, 391920, Note_on_c, 10, 48, 115
18, 392160, Note_on_c, 10, 48, 0
18, 392160, Note_on_c, 10, 48, 115
18, 392400, Note_on_c, 10, 48, 0
18, 392400, Note_on_c, 10, 48, 115
18, 392640, Note_on_c, 10, 48, 0
18, 392640, Note_on_c, 10, 48, 115
18, 393120, Note_on_c, 10, 48, 0
18, 393600, Note_on_c, 10, 48, 115
18, 394080, Note_on_c, 10, 48, 0
18, 394560, Note_on_c, 10, 48, 115
18, 395040, Note_on_c, 10, 48, 0
18, 395520, Note_on_c, 10, 48, 115
18, 396000, Note_on_c, 10, 48, 0
18, 396480, Note_on_c, 10, 48, 115
18, 396960, Note_on_c, 10, 48, 0
18, 397440, Note_on_c, 10, 48, 115
18, 397920, Note_on_c, 10, 48, 0
18, 398400, Note_on_c, 10, 48, 115
18, 401520, Note_on_c, 10, 48, 0
18, 401520, Note_on_c, 10, 48, 115
18, 401760, Note_on_c, 10, 48, 0
18, 401760, Note_on_c, 10, 48, 115
18, 402000, Note_on_c, 10, 48, 0
18, 402000, Note_on_c, 10, 48, 115
18, 402240, Note_on_c, 10, 48, 0
18, 402240, Note_on_c, 10, 43, 115
18, 405360, Note_on_c, 10, 43, 0
18, 405360, Note_on_c, 10, 43, 115
18, 405600, Note_on_c, 10, 43, 0
18, 405600, Note_on_c, 10, 48, 115
18, 405840, Note_on_c, 10, 48, 0
18, 405840, Note_on_c, 10, 48, 115
18, 406080, Note_on_c, 10, 48, 0
18, 406080, Note_on_c, 10, 48, 123
18, 406320, Note_on_c, 10, 48, 0
18, 406320, Note_on_c, 10, 63, 123
18, 406560, Note_on_c, 10, 63, 0
18, 406560, Note_on_c, 10, 63, 123
18, 406800, Note_on_c, 10, 63, 0
18, 406800, Note_on_c, 10, 63, 123
18, 407040, Note_on_c, 10, 63, 0
18, 407040, Note_on_c, 10, 60, 123
18, 407280, Note_on_c, 10, 60, 0
18, 407280, Note_on_c, 10, 57, 123
18, 407520, Note_on_c, 10, 57, 0
18, 407520, Note_on_c, 10, 57, 123
18, 407760, Note_on_c, 10, 57, 0
18, 407760, Note_on_c, 10, 57, 123
18, 408000, Note_on_c, 10, 57, 0
18, 408000, Note_on_c, 10, 54, 123
18, 408240, Note_on_c, 10, 54, 0
18, 408240, Note_on_c, 10, 51, 123
18, 408480, Note_on_c, 10, 51, 0
18, 408480, Note_on_c, 10, 51, 123
18, 408720, Note_on_c, 10, 51, 0
18, 408720, Note_on_c, 10, 51, 123
18, 408960, Note_on_c, 10, 51, 0
18, 408960, Note_on_c, 10, 48, 123
18, 409200, Note_on_c, 10, 48, 0
18, 409200, Note_on_c, 10, 45, 123
18, 409440, Note_on_c, 10, 45, 0
18, 409440, Note_on_c, 10, 45, 123
18, 409680, Note_on_c, 10, 45, 0
18, 409680, Note_on_c, 10, 45, 123
18, 409920, Note_on_c, 10, 45, 0
18, 409920, Note_on_c, 10, 48, 123
18, 410400, Note_on_c, 10, 48, 0
18, 411840, Note_on_c, 10, 47, 123
18, 412320, Note_on_c, 10, 47, 0
18, 418800, Note_on_c, 10, 43, 91
18, 419040, Note_on_c, 10, 43, 0
18, 419040, Note_on_c, 10, 43, 91
18, 419280, Note_on_c, 10, 43, 0
18, 419280, Note_on_c, 10, 43, 91
18, 419520, Note_on_c, 10, 43, 0
18, 419520, Note_on_c, 10, 48, 91
18, 420000, Note_on_c, 10, 48, 0
18, 426480, Note_on_c, 10, 43, 91
18, 426720, Note_on_c, 10, 43, 0
18, 426720, Note_on_c, 10, 43, 91
18, 426960, Note_on_c, 10, 43, 0
18, 426960, Note_on_c, 10, 43, 91
18, 427200, Note_on_c, 10, 43, 0
18, 427200, Note_on_c, 10, 48, 91
18, 427680, Note_on_c, 10, 48, 0
18, 434160, Note_on_c, 10, 48, 91
18, 434400, Note_on_c, 10, 48, 0
18, 434400, Note_on_c, 10, 48, 91
18, 434640, Note_on_c, 10, 48, 0
18, 434640, Note_on_c, 10, 48, 91
18, 434880, Note_on_c, 10, 48, 0
18, 434880, Note_on_c, 10, 53, 91
18, 435360, Note_on_c, 10, 53, 0
18, 438000, Note_on_c, 10, 50, 91
18, 438240, Note_on_c, 10, 50, 0
18, 438240, Note_on_c, 10, 50, 91
18, 438480, Note_on_c, 10, 50, 0
18, 438480, Note_on_c, 10, 50, 91
18, 438720, Note_on_c, 10, 50, 0
18, 438720, Note_on_c, 10, 55, 91
18, 439200, Note_on_c, 10, 55, 0
18, 439680, Note_on_c, 10, 65, 91
18, 440160, Note_on_c, 10, 65, 0
18, 440160, Note_on_c, 10, 67, 91
18, 440640, Note_on_c, 10, 67, 0
18, 440640, Note_on_c, 10, 68, 91
18, 441120, Note_on_c, 10, 68, 0
18, 441120, Note_on_c, 10, 67, 91
18, 441600, Note_on_c, 10, 67, 0
18, 441600, Note_on_c, 10, 65, 91
18, 442080, Note_on_c, 10, 65, 0
18, 442080, Note_on_c, 10, 67, 91
18, 442560, Note_on_c, 10, 67, 0
18, 442560, Note_on_c, 10, 68, 101
18, 443040, Note_on_c, 10, 68, 0
18, 443040, Note_on_c, 10, 67, 101
18, 443520, Note_on_c, 10, 67, 0
18, 443520, Note_on_c, 10, 65, 101
18, 444000, Note_on_c, 10, 65, 0
18, 444000, Note_on_c, 10, 67, 101
18, 444480, Note_on_c, 10, 67, 0
18, 444480, Note_on_c, 10, 68, 101
18, 444960, Note_on_c, 10, 68, 0
18, 444960, Note_on_c, 10, 67, 101
18, 445440, Note_on_c, 10, 67, 0
18, 445440, Note_on_c, 10, 65, 101
18, 445920, Note_on_c, 10, 65, 0
18, 445920, Note_on_c, 10, 67, 101
18, 446400, Note_on_c, 10, 67, 0
18, 446400, Note_on_c, 10, 68, 109
18, 446880, Note_on_c, 10, 68, 0
18, 446880, Note_on_c, 10, 67, 109
18, 447360, Note_on_c, 10, 67, 0
18, 447360, Note_on_c, 10, 66, 109
18, 447840, Note_on_c, 10, 66, 0
18, 447840, Note_on_c, 10, 67, 109
18, 448320, Note_on_c, 10, 67, 0
18, 448320, Note_on_c, 10, 69, 109
18, 448800, Note_on_c, 10, 69, 0
18, 448800, Note_on_c, 10, 67, 109
18, 449280, Note_on_c, 10, 67, 0
18, 449280, Note_on_c, 10, 66, 109
18, 449760, Note_on_c, 10, 66, 0
18, 449760, Note_on_c, 10, 67, 109
18, 450240, Note_on_c, 10, 67, 0
18, 450240, Note_on_c, 10, 69, 115
18, 450720, Note_on_c, 10, 69, 0
18, 450720, Note_on_c, 10, 67, 115
18, 451200, Note_on_c, 10, 67, 0
18, 451200, Note_on_c, 10, 66, 115
18, 451680, Note_on_c, 10, 66, 0
18, 451680, Note_on_c, 10, 67, 115
18, 452160, Note_on_c, 10, 67, 0
18, 452160, Note_on_c, 10, 66, 115
18, 452640, Note_on_c, 10, 66, 0
18, 452640, Note_on_c, 10, 67, 115
18, 453120, Note_on_c, 10, 67, 0
18, 453120, Note_on_c, 10, 66, 115
18, 453600, Note_on_c, 10, 66, 0
18, 453600, Note_on_c, 10, 67, 115
18, 454080, Note_on_c, 10, 67, 0
18, 454080, Note_on_c, 10, 62, 123
18, 455520, Note_on_c, 10, 62, 0
18, 455520, Note_on_c, 10, 59, 123
18, 456000, Note_on_c, 10, 59, 0
18, 456000, Note_on_c, 10, 60, 123
18, 456480, Note_on_c, 10, 60, 0
18, 456960, Note_on_c, 10, 62, 123
18, 457440, Note_on_c, 10, 62, 0
18, 457920, Note_on_c, 10, 64, 123
18, 458400, Note_on_c, 10, 64, 0
18, 458880, Note_on_c, 10, 65, 123
18, 459360, Note_on_c, 10, 65, 0
18, 459840, Note_on_c, 10, 67, 123
18, 460320, Note_on_c, 10, 67, 0
18, 460800, Note_on_c, 10, 59, 123
18, 461280, Note_on_c, 10, 59, 0
18, 461760, Note_on_c, 10, 47, 123
18, 462240, Note_on_c, 10, 47, 0
18, 462240, Note_on_c, 10, 50, 123
18, 462720, Note_on_c, 10, 50, 0
18, 462720, Note_on_c, 10, 47, 123
18, 463200, Note_on_c, 10, 47, 0
18, 463200, Note_on_c, 10, 50, 123
18, 463680, Note_on_c, 10, 50, 0
18, 463680, Note_on_c, 10, 48, 123
18, 464160, Note_on_c, 10, 48, 0
18, 464160, Note_on_c, 10, 52, 123
18, 464640, Note_on_c, 10, 52, 0
18, 464640, Note_on_c, 10, 50, 123
18, 465120, Note_on_c, 10, 50, 0
18, 465120, Note_on_c, 10, 53, 123
18, 465600, Note_on_c, 10, 53, 0
18, 465600, Note_on_c, 10, 52, 123
18, 466080, Note_on_c, 10, 52, 0
18, 466080, Note_on_c, 10, 55, 123
18, 466560, Note_on_c, 10, 55, 0
18, 466560, Note_on_c, 10, 53, 123
18, 467040, Note_on_c, 10, 53, 0
18, 467040, Note_on_c, 10, 57, 123
18, 467520, Note_on_c, 10, 57, 0
18, 467520, Note_on_c, 10, 55, 123
18, 468000, Note_on_c, 10, 55, 0
18, 468000, Note_on_c, 10, 43, 123
18, 468480, Note_on_c, 10, 43, 0
18, 468480, Note_on_c, 10, 55, 123
18, 468960, Note_on_c, 10, 55, 0
18, 468960, Note_on_c, 10, 43, 123
18, 469440, Note_on_c, 10, 43, 0
18, 469440, Note_on_c, 10, 48, 123
18, 472560, Note_on_c, 10, 48, 0
18, 472560, Note_on_c, 10, 43, 123
18, 472800, Note_on_c, 10, 43, 0
18, 472800, Note_on_c, 10, 43, 123
18, 473040, Note_on_c, 10, 43, 0
18, 473040, Note_on_c, 10, 43, 123
18, 473280, Note_on_c, 10, 43, 0
18, 473280, Note_on_c, 10, 48, 123
18, 476400, Note_on_c, 10, 48, 0
18, 476400, Note_on_c, 10, 43, 123
18, 476640, Note_on_c, 10, 43, 0
18, 476640, Note_on_c, 10, 43, 123
18, 476880, Note_on_c, 10, 43, 0
18, 476880, Note_on_c, 10, 43, 123
18, 477120, Note_on_c, 10, 43, 0
18, 477120, Note_on_c, 10, 48, 123
18, 477600, Note_on_c, 10, 48, 0
18, 478320, Note_on_c, 10, 43, 123
18, 478560, Note_on_c, 10, 43, 0
18, 478560, Note_on_c, 10, 43, 123
18, 478800, Note_on_c, 10, 43, 0
18, 478800, Note_on_c, 10, 43, 123
18, 479040, Note_on_c, 10, 43, 0
18, 479040, Note_on_c, 10, 48, 123
18, 479520, Note_on_c, 10, 48, 0
18, 480240, Note_on_c, 10, 43, 123
18, 480480, Note_on_c, 10, 43, 0
18, 480480, Note_on_c, 10, 43, 123
18, 480720, Note_on_c, 10, 43, 0
18, 480720, Note_on_c, 10, 43, 123
18, 480960, Note_on_c, 10, 43, 0
18, 480960, Note_on_c, 10, 48, 123
18, 482160, Note_on_c, 10, 48, 0
18, 482160, Note_on_c, 10, 48, 123
18, 482400, Note_on_c, 10, 48, 0
18, 482400, Note_on_c, 10, 48, 123
18, 482640, Note_on_c, 10, 48, 0
18, 482640, Note_on_c, 10, 48, 123
18, 482880, Note_on_c, 10, 48, 0
18, 482880, Note_on_c, 10, 44, 123
18, 484080, Note_on_c, 10, 44, 0
18, 484080, Note_on_c, 10, 44, 123
18, 484320, Note_on_c, 10, 44, 0
18, 484320, Note_on_c, 10, 44, 123
18, 484560, Note_on_c, 10, 44, 0
18, 484560, Note_on_c, 10, 44, 123
18, 484800, Note_on_c, 10, 44, 0
18, 484800, Note_on_c, 10, 52, 123
18, 486000, Note_on_c, 10, 52, 0
18, 486000, Note_on_c, 10, 52, 123
18, 486240, Note_on_c, 10, 52, 0
18, 486240, Note_on_c, 10, 52, 123
18, 486480, Note_on_c, 10, 52, 0
18, 486480, Note_on_c, 10, 52, 123
18, 486720, Note_on_c, 10, 52, 0
18, 486720, Note_on_c, 10, 53, 123
18, 487920, Note_on_c, 10, 53, 0
18, 487920, Note_on_c, 10, 53, 123
18, 488160, Note_on_c, 10, 53, 0
18, 488160, Note_on_c, 10, 53, 123
18, 488400, Note_on_c, 10, 53, 0
18, 488400, Note_on_c, 10, 53, 123
18, 488640, Note_on_c, 10, 53, 0
18, 488640, Note_on_c, 10, 41, 123
18, 488880, Note_on_c, 10, 41, 0
18, 488880, Note_on_c, 10, 53, 123
18, 489120, Note_on_c, 10, 53, 0
18, 489120, Note_on_c, 10, 53, 123
18, 489360, Note_on_c, 10, 53, 0
18, 489360, Note_on_c, 10, 53, 123
18, 489600, Note_on_c, 10, 53, 0
18, 489600, Note_on_c, 10, 53, 123
18, 489840, Note_on_c, 10, 53, 0
18, 489840, Note_on_c, 10, 53, 123
18, 490080, Note_on_c, 10, 53, 0
18, 490080, Note_on_c, 10, 53, 123
18, 490320, Note_on_c, 10, 53, 0
18, 490320, Note_on_c, 10, 53, 123
18, 490560, Note_on_c, 10, 53, 0
18, 490560, Note_on_c, 10, 53, 123
18, 490800, Note_on_c, 10, 53, 0
18, 490800, Note_on_c, 10, 53, 123
18, 491040, Note_on_c, 10, 53, 0
18, 491040, Note_on_c, 10, 53, 123
18, 491280, Note_on_c, 10, 53, 0
18, 491280, Note_on_c, 10, 53, 123
18, 491520, Note_on_c, 10, 53, 0
18, 491520, Note_on_c, 10, 53, 123
18, 491760, Note_on_c, 10, 53, 0
18, 491760, Note_on_c, 10, 53, 123
18, 492000, Note_on_c, 10, 53, 0
18, 492000, Note_on_c, 10, 53, 123
18, 492240, Note_on_c, 10, 53, 0
18, 492240, Note_on_c, 10, 53, 123
18, 492480, Note_on_c, 10, 53, 0
18, 492480, Note_on_c, 10, 53, 123
18, 492960, Note_on_c, 10, 53, 0
18, 496560, Note_on_c, 10, 42, 123
18, 496800, Note_on_c, 10, 42, 0
18, 496800, Note_on_c, 10, 42, 123
18, 497040, Note_on_c, 10, 42, 0
18, 497040, Note_on_c, 10, 42, 123
18, 497280, Note_on_c, 10, 42, 0
18, 497280, Note_on_c, 10, 42, 123
18, 497520, Note_on_c, 10, 42, 0
18, 497520, Note_on_c, 10, 54, 123
18, 497760, Note_on_c, 10, 54, 0
18, 497760, Note_on_c, 10, 54, 123
18, 498000, Note_on_c, 10, 54, 0
18, 498000, Note_on_c, 10, 54, 123
18, 498240, Note_on_c, 10, 54, 0
18, 498240, Note_on_c, 10, 54, 123
18, 498480, Note_on_c, 10, 54, 0
18, 498480, Note_on_c, 10, 54, 123
18, 498720, Note_on_c, 10, 54, 0
18, 498720, Note_on_c, 10, 54, 123
18, 498960, Note_on_c, 10, 54, 0
18, 498960, Note_on_c, 10, 54, 123
18, 499200, Note_on_c, 10, 54, 0
18, 499200, Note_on_c, 10, 54, 123
18, 499440, Note_on_c, 10, 54, 0
18, 499440, Note_on_c, 10, 54, 123
18, 499680, Note_on_c, 10, 54, 0
18, 499680, Note_on_c, 10, 54, 123
18, 499920, Note_on_c, 10, 54, 0
18, 499920, Note_on_c, 10, 54, 123
18, 500160, Note_on_c, 10, 54, 0
18, 500160, Note_on_c, 10, 54, 123
18, 500400, Note_on_c, 10, 54, 0
18, 500400, Note_on_c, 10, 54, 123
18, 500640, Note_on_c, 10, 54, 0
18, 500640, Note_on_c, 10, 54, 123
18, 500880, Note_on_c, 10, 54, 0
18, 500880, Note_on_c, 10, 54, 123
18, 501120, Note_on_c, 10, 54, 0
18, 501120, Note_on_c, 10, 54, 123
18, 501600, Note_on_c, 10, 54, 0
18, 504240, Note_on_c, 10, 67, 115
18, 504480, Note_on_c, 10, 67, 0
18, 504480, Note_on_c, 10, 67, 115
18, 504720, Note_on_c, 10, 67, 0
18, 504720, Note_on_c, 10, 67, 115
18, 504960, Note_on_c, 10, 67, 0
18, 504960, Note_on_c, 10, 63, 115
18, 505920, Note_on_c, 10, 63, 0
18, 505920, Note_on_c, 10, 65, 115
18, 506880, Note_on_c, 10, 65, 0
18, 506880, Note_on_c, 10, 62, 115
18, 508080, Note_on_c, 10, 62, 0
18, 508080, Note_on_c, 10, 67, 115
18, 508320, Note_on_c, 10, 67, 0
18, 508320, Note_on_c, 10, 67, 115
18, 508560, Note_on_c, 10, 67, 0
18, 508560, Note_on_c, 10, 67, 115
18, 508800, Note_on_c, 10, 67, 0
18, 508800, Note_on_c, 10, 63, 115
18, 509760, Note_on_c, 10, 63, 0
18, 509760, Note_on_c, 10, 65, 115
18, 510720, Note_on_c, 10, 65, 0
18, 510720, Note_on_c, 10, 62, 115
18, 511920, Note_on_c, 10, 62, 0
18, 511920, Note_on_c, 10, 67, 115
18, 512160, Note_on_c, 10, 67, 0
18, 512160, Note_on_c, 10, 67, 115
18, 512400, Note_on_c, 10, 67, 0
18, 512400, Note_on_c, 10, 67, 115
18, 512640, Note_on_c, 10, 67, 0
18, 512640, Note_on_c, 10, 63, 115
18, 513120, Note_on_c, 10, 63, 0
18, 513120, Note_on_c, 10, 65, 115
18, 513600, Note_on_c, 10, 65, 0
18, 513600, Note_on_c, 10, 62, 115
18, 514080, Note_on_c, 10, 62, 0
18, 514080, Note_on_c, 10, 63, 115
18, 514560, Note_on_c, 10, 63, 0
18, 514560, Note_on_c, 10, 60, 115
18, 515040, Note_on_c, 10, 60, 0
18, 515040, Note_on_c, 10, 62, 115
18, 515520, Note_on_c, 10, 62, 0
18, 515520, Note_on_c, 10, 58, 115
18, 516000, Note_on_c, 10, 58, 0
18, 516000, Note_on_c, 10, 60, 115
18, 516480, Note_on_c, 10, 60, 0
18, 516480, Note_on_c, 10, 56, 115
18, 516960, Note_on_c, 10, 56, 0
18, 516960, Note_on_c, 10, 58, 115
18, 517440, Note_on_c, 10, 58, 0
18, 517440, Note_on_c, 10, 55, 115
18, 517920, Note_on_c, 10, 55, 0
18, 517920, Note_on_c, 10, 56, 115
18, 518400, Note_on_c, 10, 56, 0
18, 518400, Note_on_c, 10, 53, 115
18, 518880, Note_on_c, 10, 53, 0
18, 518880, Note_on_c, 10, 55, 115
18, 519360, Note_on_c, 10, 55, 0
18, 519360, Note_on_c, 10, 51, 115
18, 519840, Note_on_c, 10, 51, 0
18, 519840, Note_on_c, 10, 53, 115
18, 520320, Note_on_c, 10, 53, 0
18, 520320, Note_on_c, 10, 50, 115
18, 520800, Note_on_c, 10, 50, 0
18, 520800, Note_on_c, 10, 48, 115
18, 521280, Note_on_c, 10, 48, 0
18, 521280, Note_on_c, 10, 47, 115
18, 521760, Note_on_c, 10, 47, 0
18, 521760, Note_on_c, 10, 48, 115
18, 522240, Note_on_c, 10, 48, 0
18, 522240, Note_on_c, 10, 50, 115
18, 522720, Note_on_c, 10, 50, 0
18, 522720, Note_on_c, 10, 48, 115
18, 523200, Note_on_c, 10, 48, 0
18, 523200, Note_on_c, 10, 50, 115
18, 523680, Note_on_c, 10, 50, 0
18, 523680, Note_on_c, 10, 52, 115
18, 524160, Note_on_c, 10, 52, 0
18, 524160, Note_on_c, 10, 53, 115
18, 524640, Note_on_c, 10, 53, 0
18, 524640, Note_on_c, 10, 52, 115
18, 525120, Note_on_c, 10, 52, 0
18, 525120, Note_on_c, 10, 53, 115
18, 525600, Note_on_c, 10, 53, 0
18, 525600, Note_on_c, 10, 55, 115
18, 526080, Note_on_c, 10, 55, 0
18, 526080, Note_on_c, 10, 56, 115
18, 526560, Note_on_c, 10, 56, 0
18, 526560, Note_on_c, 10, 55, 115
18, 527040, Note_on_c, 10, 55, 0
18, 527040, Note_on_c, 10, 57, 115
18, 527520, Note_on_c, 10, 57, 0
18, 527520, Note_on_c, 10, 59, 115
18, 528000, Note_on_c, 10, 59, 0
18, 528000, Note_on_c, 10, 60, 115
18, 529920, Note_on_c, 10, 60, 0
18, 529920, Note_on_c, 10, 56, 115
18, 531840, Note_on_c, 10, 56, 0
18, 531840, Note_on_c, 10, 51, 115
18, 533760, Note_on_c, 10, 51, 0
18, 533760, Note_on_c, 10, 53, 115
18, 534720, Note_on_c, 10, 53, 0
18, 534720, Note_on_c, 10, 51, 115
18, 535680, Note_on_c, 10, 51, 0
18, 535680, Note_on_c, 10, 50, 115
18, 536640, Note_on_c, 10, 50, 0
18, 536640, Note_on_c, 10, 53, 115
18, 537600, Note_on_c, 10, 53, 0
18, 537600, Note_on_c, 10, 51, 115
18, 538080, Note_on_c, 10, 51, 0
18, 538560, Note_on_c, 10, 48, 115
18, 539040, Note_on_c, 10, 48, 0
18, 539520, Note_on_c, 10, 53, 115
18, 540000, Note_on_c, 10, 53, 0
18, 540480, Note_on_c, 10, 50, 115
18, 540960, Note_on_c, 10, 50, 0
18, 541440, Note_on_c, 10, 55, 115
18, 541920, Note_on_c, 10, 55, 0
18, 542400, Note_on_c, 10, 43, 115
18, 542880, Note_on_c, 10, 43, 0
18, 543360, Note_on_c, 10, 48, 115
18, 543840, Note_on_c, 10, 48, 0
18, 546240, Note_on_c, 10, 39, 115
18, 546720, Note_on_c, 10, 39, 0
18, 546720, Note_on_c, 10, 41, 115
18, 547200, Note_on_c, 10, 41, 0
18, 547200, Note_on_c, 10, 43, 115
18, 547680, Note_on_c, 10, 43, 0
18, 547680, Note_on_c, 10, 39, 115
18, 548160, Note_on_c, 10, 39, 0
18, 550080, Note_on_c, 10, 43, 115
18, 550560, Note_on_c, 10, 43, 0
18, 550560, Note_on_c, 10, 45, 115
18, 551040, Note_on_c, 10, 45, 0
18, 551040, Note_on_c, 10, 47, 115
18, 551520, Note_on_c, 10, 47, 0
18, 551520, Note_on_c, 10, 43, 115
18, 552000, Note_on_c, 10, 43, 0
18, 553920, Note_on_c, 10, 43, 115
18, 554400, Note_on_c, 10, 43, 0
18, 554400, Note_on_c, 10, 45, 115
18, 554880, Note_on_c, 10, 45, 0
18, 554880, Note_on_c, 10, 47, 115
18, 555360, Note_on_c, 10, 47, 0
18, 555360, Note_on_c, 10, 43, 115
18, 555840, Note_on_c, 10, 43, 0
18, 559680, Note_on_c, 10, 53, 115
18, 560160, Note_on_c, 10, 53, 0
18, 560160, Note_on_c, 10, 48, 115
18, 560640, Note_on_c, 10, 48, 0
18, 561600, Note_on_c, 10, 53, 115
18, 562080, Note_on_c, 10, 53, 0
18, 562080, Note_on_c, 10, 48, 115
18, 562560, Note_on_c, 10, 48, 0
18, 562560, Note_on_c, 10, 55, 115
18, 563040, Note_on_c, 10, 55, 0
18, 563520, Note_on_c, 10, 43, 115
18, 564000, Note_on_c, 10, 43, 0
18, 564480, Note_on_c, 10, 60, 115
18, 564960, Note_on_c, 10, 60, 0
18, 564960, Note_on_c, 10, 55, 115
18, 565440, Note_on_c, 10, 55, 0
18, 565440, Note_on_c, 10, 56, 115
18, 565920, Note_on_c, 10, 56, 0
18, 565920, Note_on_c, 10, 51, 115
18, 566400, Note_on_c, 10, 51, 0
18, 566400, Note_on_c, 10, 53, 115
18, 566880, Note_on_c, 10, 53, 0
18, 566880, Note_on_c, 10, 48, 115
18, 567360, Note_on_c, 10, 48, 0
18, 568320, Note_on_c, 10, 53, 115
18, 568800, Note_on_c, 10, 53, 0
18, 568800, Note_on_c, 10, 48, 115
18, 569280, Note_on_c, 10, 48, 0
18, 569280, Note_on_c, 10, 53, 115
18, 569760, Note_on_c, 10, 53, 0
18, 569760, Note_on_c, 10, 48, 115
18, 570240, Note_on_c, 10, 48, 0
18, 570240, Note_on_c, 10, 55, 115
18, 570720, Note_on_c, 10, 55, 0
18, 571200, Note_on_c, 10, 43, 115
18, 571680, Note_on_c, 10, 43, 0
18, 572160, Note_on_c, 10, 48, 115
18, 572640, Note_on_c, 10, 48, 0
18, 577200, Note_on_c, 10, 43, 115
18, 577440, Note_on_c, 10, 43, 0
18, 577440, Note_on_c, 10, 43, 115
18, 577680, Note_on_c, 10, 43, 0
18, 577680, Note_on_c, 10, 43, 115
18, 577920, Note_on_c, 10, 43, 0
18, 577920, Note_on_c, 10, 48, 115
18, 578160, Note_on_c, 10, 48, 0
18, 578160, Note_on_c, 10, 43, 115
18, 578400, Note_on_c, 10, 43, 0
18, 578400, Note_on_c, 10, 43, 115
18, 578640, Note_on_c, 10, 43, 0
18, 578640, Note_on_c, 10, 43, 115
18, 578880, Note_on_c, 10, 43, 0
18, 578880, Note_on_c, 10, 43, 115
18, 579120, Note_on_c, 10, 43, 0
18, 579120, Note_on_c, 10, 43, 115
18, 579360, Note_on_c, 10, 43, 0
18, 579360, Note_on_c, 10, 43, 115
18, 579600, Note_on_c, 10, 43, 0
18, 579600, Note_on_c, 10, 43, 115
18, 579840, Note_on_c, 10, 43, 0
18, 579840, Note_on_c, 10, 43, 115
18, 580080, Note_on_c, 10, 43, 0
18, 580080, Note_on_c, 10, 43, 115
18, 580320, Note_on_c, 10, 43, 0
18, 580320, Note_on_c, 10, 43, 115
18, 580560, Note_on_c, 10, 43, 0
18, 580560, Note_on_c, 10, 43, 115
18, 580800, Note_on_c, 10, 43, 0
18, 580800, Note_on_c, 10, 43, 115
18, 581040, Note_on_c, 10, 43, 0
18, 581040, Note_on_c, 10, 43, 115
18, 581280, Note_on_c, 10, 43, 0
18, 581280, Note_on_c, 10, 43, 115
18, 581520, Note_on_c, 10, 43, 0
18, 581520, Note_on_c, 10, 43, 115
18, 581760, Note_on_c, 10, 43, 0
18, 581760, Note_on_c, 10, 39, 123
18, 582720, Note_on_c, 10, 39, 0
18, 582960, Note_on_c, 10, 41, 123
18, 583200, Note_on_c, 10, 41, 0
18, 583200, Note_on_c, 10, 41, 123
18, 583440, Note_on_c, 10, 41, 0
18, 583440, Note_on_c, 10, 41, 123
18, 583680, Note_on_c, 10, 41, 0
18, 583680, Note_on_c, 10, 38, 123
18, 585600, Note_on_c, 10, 38, 0
18, 586560, Note_on_c, 10, 36, 78
18, 586560, Note_on_c, 10, 43, 78
18, 590400, Note_on_c, 10, 43, 0
18, 590400, Note_on_c, 10, 36, 0
18, 590400, Note_on_c, 10, 36, 78
18, 590400, Note_on_c, 10, 43, 78
18, 593520, Note_on_c, 10, 43, 0
18, 593520, Note_on_c, 10, 36, 0
18, 593520, Note_on_c, 10, 43, 123
18, 593760, Note_on_c, 10, 43, 0
18, 593760, Note_on_c, 10, 43, 123
18, 594000, Note_on_c, 10, 43, 0
18, 594000, Note_on_c, 10, 43, 123
18, 594240, Note_on_c, 10, 43, 0
18, 594240, Note_on_c, 10, 48, 123
18, 594720, Note_on_c, 10, 48, 0
18, 595440, Note_on_c, 10, 43, 123
18, 595680, Note_on_c, 10, 43, 0
18, 595680, Note_on_c, 10, 43, 123
18, 595920, Note_on_c, 10, 43, 0
18, 595920, Note_on_c, 10, 43, 123
18, 596160, Note_on_c, 10, 43, 0
18, 596160, Note_on_c, 10, 48, 123
18, 596640, Note_on_c, 10, 48, 0
18, 597360, Note_on_c, 10, 43, 123
18, 597600, Note_on_c, 10, 43, 0
18, 597600, Note_on_c, 10, 43, 123
18, 597840, Note_on_c, 10, 43, 0
18, 597840, Note_on_c, 10, 43, 123
18, 598080, Note_on_c, 10, 43, 0
18, 598080, Note_on_c, 10, 48, 123
18, 598560, Note_on_c, 10, 48, 0
18, 598560, Note_on_c, 10, 43, 123
18, 599040, Note_on_c, 10, 43, 0
18, 599040, Note_on_c, 10, 48, 123
18, 599520, Note_on_c, 10, 48, 0
18, 599520, Note_on_c, 10, 43, 123
18, 600000, Note_on_c, 10, 43, 0
18, 600000, Note_on_c, 10, 48, 123
18, 600480, Note_on_c, 10, 48, 0
18, 600480, Note_on_c, 10, 55, 123
18, 600960, Note_on_c, 10, 55, 0
18, 600960, Note_on_c, 10, 60, 123
18, 601440, Note_on_c, 10, 60, 0
18, 601440, Note_on_c, 10, 55, 123
18, 601920, Note_on_c, 10, 55, 0
18, 601920, Note_on_c, 10, 60, 123
18, 602400, Note_on_c, 10, 60, 0
18, 602880, Note_on_c, 10, 43, 123
18, 603360, Note_on_c, 10, 43, 0
18, 603840, Note_on_c, 10, 36, 123
18, 603840, Note_on_c, 10, 48, 123
18, 604320, Note_on_c, 10, 48, 0
18, 604320, Note_on_c, 10, 36, 0
18, 604320, End_track
19, 0, Start_track
19, 0, MIDI_port, 0
19, 0, Title_t, "Double Bass"
19, 0, Program_c, 11, 43
19, 240, Note_on_c, 11, 43, 123
19, 480, Note_on_c, 11, 43, 0
19, 480, Note_on_c, 11, 43, 123
19, 720, Note_on_c, 11, 43, 0
19, 720, Note_on_c, 11, 43, 123
19, 960, Note_on_c, 11, 43, 0
19, 960, Note_on_c, 11, 39, 123
19, 1920, Note_on_c, 11, 39, 0
19, 2160, Note_on_c, 11, 41, 123
19, 2400, Note_on_c, 11, 41, 0
19, 2400, Note_on_c, 11, 41, 123
19, 2640, Note_on_c, 11, 41, 0
19, 2640, Note_on_c, 11, 41, 123
19, 2880, Note_on_c, 11, 41, 0
19, 2880, Note_on_c, 11, 38, 123
19, 4800, Note_on_c, 11, 38, 0
19, 16560, Note_on_c, 11, 35, 91
19, 16800, Note_on_c, 11, 35, 0
19, 16800, Note_on_c, 11, 35, 101
19, 17040, Note_on_c, 11, 35, 0
19, 17040, Note_on_c, 11, 35, 109
19, 17280, Note_on_c, 11, 35, 0
19, 17280, Note_on_c, 11, 36, 115
19, 17760, Note_on_c, 11, 36, 0
19, 18240, Note_on_c, 11, 32, 115
19, 18720, Note_on_c, 11, 32, 0
19, 19200, Note_on_c, 11, 31, 115
19, 19680, Note_on_c, 11, 31, 0
19, 20400, Note_on_c, 11, 32, 123
19, 20640, Note_on_c, 11, 32, 0
19, 20640, Note_on_c, 11, 32, 123
19, 20880, Note_on_c, 11, 32, 0
19, 20880, Note_on_c, 11, 32, 123
19, 21120, Note_on_c, 11, 32, 0
19, 21120, Note_on_c, 11, 29, 123
19, 23040, Note_on_c, 11, 29, 0
19, 26160, Note_on_c, 11, 31, 91
19, 26400, Note_on_c, 11, 31, 0
19, 26400, Note_on_c, 11, 31, 91
19, 26640, Note_on_c, 11, 31, 0
19, 26640, Note_on_c, 11, 31, 91
19, 26880, Note_on_c, 11, 31, 0
19, 26880, Note_on_c, 11, 36, 91
19, 27360, Note_on_c, 11, 36, 0
19, 30000, Note_on_c, 11, 31, 91
19, 30240, Note_on_c, 11, 31, 0
19, 30240, Note_on_c, 11, 31, 91
19, 30480, Note_on_c, 11, 31, 0
19, 30480, Note_on_c, 11, 31, 91
19, 30720, Note_on_c, 11, 31, 0
19, 30720, Note_on_c, 11, 36, 91
19, 31200, Note_on_c, 11, 36, 0
19, 31920, Note_on_c, 11, 36, 91
19, 32160, Note_on_c, 11, 36, 0
19, 32160, Note_on_c, 11, 36, 91
19, 32400, Note_on_c, 11, 36, 0
19, 32400, Note_on_c, 11, 36, 91
19, 32640, Note_on_c, 11, 36, 0
19, 32640, Note_on_c, 11, 36, 101
19, 33120, Note_on_c, 11, 36, 0
19, 33840, Note_on_c, 11, 36, 115
19, 34080, Note_on_c, 11, 36, 0
19, 34080, Note_on_c, 11, 36, 115
19, 34320, Note_on_c, 11, 36, 0
19, 34320, Note_on_c, 11, 36, 115
19, 34560, Note_on_c, 11, 36, 0
19, 34560, Note_on_c, 11, 36, 123
19, 35040, Note_on_c, 11, 36, 0
19, 35520, Note_on_c, 11, 36, 123
19, 36000, Note_on_c, 11, 36, 0
19, 36480, Note_on_c, 11, 36, 123
19, 36960, Note_on_c, 11, 36, 0
19, 37440, Note_on_c, 11, 36, 123
19, 37920, Note_on_c, 11, 36, 0
19, 38400, Note_on_c, 11, 36, 123
19, 38880, Note_on_c, 11, 36, 0
19, 39360, Note_on_c, 11, 36, 123
19, 39840, Note_on_c, 11, 36, 0
19, 40320, Note_on_c, 11, 36, 123
19, 40800, Note_on_c, 11, 36, 0
19, 41280, Note_on_c, 11, 36, 115
19, 44400, Note_on_c, 11, 36, 0
19, 44400, Note_on_c, 11, 36, 109
19, 44640, Note_on_c, 11, 36, 0
19, 44640, Note_on_c, 11, 36, 109
19, 44880, Note_on_c, 11, 36, 0
19, 44880, Note_on_c, 11, 36, 109
19, 45120, Note_on_c, 11, 36, 0
19, 45120, Note_on_c, 11, 31, 109
19, 48240, Note_on_c, 11, 31, 0
19, 48240, Note_on_c, 11, 31, 109
19, 48480, Note_on_c, 11, 31, 0
19, 48480, Note_on_c, 11, 36, 109
19, 48720, Note_on_c, 11, 36, 0
19, 48720, Note_on_c, 11, 36, 109
19, 48960, Note_on_c, 11, 36, 0
19, 48960, Note_on_c, 11, 36, 123
19, 49200, Note_on_c, 11, 36, 0
19, 49200, Note_on_c, 11, 36, 123
19, 49440, Note_on_c, 11, 36, 0
19, 49440, Note_on_c, 11, 36, 123
19, 49680, Note_on_c, 11, 36, 0
19, 49680, Note_on_c, 11, 36, 123
19, 49920, Note_on_c, 11, 36, 0
19, 49920, Note_on_c, 11, 36, 123
19, 50160, Note_on_c, 11, 36, 0
19, 50160, Note_on_c, 11, 36, 123
19, 50400, Note_on_c, 11, 36, 0
19, 50400, Note_on_c, 11, 36, 123
19, 50640, Note_on_c, 11, 36, 0
19, 50640, Note_on_c, 11, 36, 123
19, 50880, Note_on_c, 11, 36, 0
19, 50880, Note_on_c, 11, 36, 123
19, 51120, Note_on_c, 11, 36, 0
19, 51120, Note_on_c, 11, 36, 123
19, 51360, Note_on_c, 11, 36, 0
19, 51360, Note_on_c, 11, 36, 123
19, 51600, Note_on_c, 11, 36, 0
19, 51600, Note_on_c, 11, 36, 123
19, 51840, Note_on_c, 11, 36, 0
19, 51840, Note_on_c, 11, 36, 123
19, 52080, Note_on_c, 11, 36, 0
19, 52080, Note_on_c, 11, 36, 123
19, 52320, Note_on_c, 11, 36, 0
19, 52320, Note_on_c, 11, 36, 123
19, 52560, Note_on_c, 11, 36, 0
19, 52560, Note_on_c, 11, 36, 123
19, 52800, Note_on_c, 11, 36, 0
19, 52800, Note_on_c, 11, 36, 123
19, 53280, Note_on_c, 11, 36, 0
19, 54720, Note_on_c, 11, 38, 123
19, 55200, Note_on_c, 11, 38, 0
19, 61680, Note_on_c, 11, 34, 91
19, 61920, Note_on_c, 11, 34, 0
19, 61920, Note_on_c, 11, 34, 91
19, 62160, Note_on_c, 11, 34, 0
19, 62160, Note_on_c, 11, 34, 91
19, 62400, Note_on_c, 11, 34, 0
19, 62400, Note_on_c, 11, 39, 91
19, 62880, Note_on_c, 11, 39, 0
19, 65520, Note_on_c, 11, 34, 91
19, 65760, Note_on_c, 11, 34, 0
19, 65760, Note_on_c, 11, 34, 91
19, 66000, Note_on_c, 11, 34, 0
19, 66000, Note_on_c, 11, 34, 91
19, 66240, Note_on_c, 11, 34, 0
19, 66240, Note_on_c, 11, 39, 91
19, 66720, Note_on_c, 11, 39, 0
19, 69360, Note_on_c, 11, 34, 91
19, 69600, Note_on_c, 11, 34, 0
19, 69600, Note_on_c, 11, 34, 91
19, 69840, Note_on_c, 11, 34, 0
19, 69840, Note_on_c, 11, 34, 91
19, 70080, Note_on_c, 11, 34, 0
19, 70080, Note_on_c, 11, 39, 91
19, 70560, Note_on_c, 11, 39, 0
19, 73200, Note_on_c, 11, 36, 91
19, 73440, Note_on_c, 11, 36, 0
19, 73440, Note_on_c, 11, 36, 91
19, 73680, Note_on_c, 11, 36, 0
19, 73680, Note_on_c, 11, 36, 91
19, 73920, Note_on_c, 11, 36, 0
19, 73920, Note_on_c, 11, 41, 91
19, 74400, Note_on_c, 11, 41, 0
19, 77040, Note_on_c, 11, 39, 91
19, 77280, Note_on_c, 11, 39, 0
19, 77280, Note_on_c, 11, 39, 91
19, 77520, Note_on_c, 11, 39, 0
19, 77520, Note_on_c, 11, 39, 91
19, 77760, Note_on_c, 11, 39, 0
19, 77760, Note_on_c, 11, 44, 91
19, 78240, Note_on_c, 11, 44, 0
19, 79920, Note_on_c, 11, 45, 91
19, 80160, Note_on_c, 11, 45, 0
19, 80160, Note_on_c, 11, 45, 91
19, 80400, Note_on_c, 11, 45, 0
19, 80400, Note_on_c, 11, 45, 91
19, 80640, Note_on_c, 11, 45, 0
19, 80640, Note_on_c, 11, 45, 91
19, 81120, Note_on_c, 11, 45, 0
19, 81840, Note_on_c, 11, 46, 91
19, 82080, Note_on_c, 11, 46, 0
19, 82080, Note_on_c, 11, 46, 91
19, 82320, Note_on_c, 11, 46, 0
19, 82320, Note_on_c, 11, 46, 91
19, 82560, Note_on_c, 11, 46, 0
19, 82560, Note_on_c, 11, 46, 91
19, 83040, Note_on_c, 11, 46, 0
19, 83760, Note_on_c, 11, 47, 101
19, 84000, Note_on_c, 11, 47, 0
19, 84000, Note_on_c, 11, 47, 101
19, 84240, Note_on_c, 11, 47, 0
19, 84240, Note_on_c, 11, 47, 101
19, 84480, Note_on_c, 11, 47, 0
19, 84480, Note_on_c, 11, 47, 101
19, 84960, Note_on_c, 11, 47, 0
19, 85680, Note_on_c, 11, 48, 109
19, 85920, Note_on_c, 11, 48, 0
19, 85920, Note_on_c, 11, 48, 109
19, 86160, Note_on_c, 11, 48, 0
19, 86160, Note_on_c, 11, 48, 109
19, 86400, Note_on_c, 11, 48, 0
19, 86400, Note_on_c, 11, 48, 109
19, 86880, Note_on_c, 11, 48, 0
19, 87600, Note_on_c, 11, 48, 115
19, 87840, Note_on_c, 11, 48, 0
19, 87840, Note_on_c, 11, 48, 115
19, 88080, Note_on_c, 11, 48, 0
19, 88080, Note_on_c, 11, 48, 115
19, 88320, Note_on_c, 11, 48, 0
19, 88320, Note_on_c, 11, 48, 115
19, 88800, Note_on_c, 11, 48, 0
19, 88800, Note_on_c, 11, 48, 115
19, 89040, Note_on_c, 11, 48, 0
19, 89040, Note_on_c, 11, 48, 115
19, 89280, Note_on_c, 11, 48, 0
19, 89280, Note_on_c, 11, 50, 123
19, 90720, Note_on_c, 11, 50, 0
19, 90720, Note_on_c, 11, 38, 123
19, 91200, Note_on_c, 11, 38, 0
19, 91200, Note_on_c, 11, 39, 123
19, 91680, Note_on_c, 11, 39, 0
19, 92160, Note_on_c, 11, 41, 123
19, 92640, Note_on_c, 11, 41, 0
19, 93120, Note_on_c, 11, 43, 123
19, 93600, Note_on_c, 11, 43, 0
19, 94080, Note_on_c, 11, 44, 123
19, 94560, Note_on_c, 11, 44, 0
19, 95040, Note_on_c, 11, 46, 123
19, 95520, Note_on_c, 11, 46, 0
19, 96000, Note_on_c, 11, 34, 123
19, 96480, Note_on_c, 11, 34, 0
19, 96960, Note_on_c, 11, 38, 123
19, 97440, Note_on_c, 11, 38, 0
19, 97440, Note_on_c, 11, 41, 123
19, 97920, Note_on_c, 11, 41, 0
19, 97920, Note_on_c, 11, 38, 123
19, 98400, Note_on_c, 11, 38, 0
19, 98400, Note_on_c, 11, 41, 123
19, 98880, Note_on_c, 11, 41, 0
19, 98880, Note_on_c, 11, 39, 123
19, 99360, Note_on_c, 11, 39, 0
19, 99360, Note_on_c, 11, 43, 123
19, 99840, Note_on_c, 11, 43, 0
19, 99840, Note_on_c, 11, 41, 123
19, 100320, Note_on_c, 11, 41, 0
19, 100320, Note_on_c, 11, 44, 123
19, 100800, Note_on_c, 11, 44, 0
19, 100800, Note_on_c, 11, 43, 123
19, 101280, Note_on_c, 11, 43, 0
19, 101280, Note_on_c, 11, 46, 123
19, 101760, Note_on_c, 11, 46, 0
19, 101760, Note_on_c, 11, 44, 123
19, 102240, Note_on_c, 11, 44, 0
19, 102240, Note_on_c, 11, 48, 123
19, 102720, Note_on_c, 11, 48, 0
19, 102720, Note_on_c, 11, 46, 123
19, 103200, Note_on_c, 11, 46, 0
19, 103200, Note_on_c, 11, 34, 123
19, 103680, Note_on_c, 11, 34, 0
19, 103680, Note_on_c, 11, 46, 123
19, 104160, Note_on_c, 11, 46, 0
19, 104160, Note_on_c, 11, 34, 123
19, 104640, Note_on_c, 11, 34, 0
19, 104640, Note_on_c, 11, 39, 123
19, 107760, Note_on_c, 11, 39, 0
19, 107760, Note_on_c, 11, 34, 123
19, 108000, Note_on_c, 11, 34, 0
19, 108000, Note_on_c, 11, 34, 123
19, 108240, Note_on_c, 11, 34, 0
19, 108240, Note_on_c, 11, 34, 123
19, 108480, Note_on_c, 11, 34, 0
19, 108480, Note_on_c, 11, 39, 123
19, 111600, Note_on_c, 11, 39, 0
19, 111600, Note_on_c, 11, 34, 123
19, 111840, Note_on_c, 11, 34, 0
19, 111840, Note_on_c, 11, 34, 123
19, 112080, Note_on_c, 11, 34, 0
19, 112080, Note_on_c, 11, 34, 123
19, 112320, Note_on_c, 11, 34, 0
19, 112320, Note_on_c, 11, 39, 123
19, 112800, Note_on_c, 11, 39, 0
19, 113520, Note_on_c, 11, 34, 123
19, 113760, Note_on_c, 11, 34, 0
19, 113760, Note_on_c, 11, 34, 123
19, 114000, Note_on_c, 11, 34, 0
19, 114000, Note_on_c, 11, 34, 123
19, 114240, Note_on_c, 11, 34, 0
19, 114240, Note_on_c, 11, 39, 123
19, 114720, Note_on_c, 11, 39, 0
19, 115440, Note_on_c, 11, 34, 123
19, 115680, Note_on_c, 11, 34, 0
19, 115680, Note_on_c, 11, 34, 123
19, 115920, Note_on_c, 11, 34, 0
19, 115920, Note_on_c, 11, 34, 123
19, 116160, Note_on_c, 11, 34, 0
19, 116160, Note_on_c, 11, 39, 123
19, 116640, Note_on_c, 11, 39, 0
19, 119280, Note_on_c, 11, 43, 123
19, 119520, Note_on_c, 11, 43, 0
19, 119520, Note_on_c, 11, 43, 123
19, 119760, Note_on_c, 11, 43, 0
19, 119760, Note_on_c, 11, 43, 123
19, 120000, Note_on_c, 11, 43, 0
19, 120000, Note_on_c, 11, 39, 123
19, 120960, Note_on_c, 11, 39, 0
19, 121200, Note_on_c, 11, 41, 123
19, 121440, Note_on_c, 11, 41, 0
19, 121440, Note_on_c, 11, 41, 123
19, 121680, Note_on_c, 11, 41, 0
19, 121680, Note_on_c, 11, 41, 123
19, 121920, Note_on_c, 11, 41, 0
19, 121920, Note_on_c, 11, 38, 123
19, 123840, Note_on_c, 11, 38, 0
19, 135600, Note_on_c, 11, 35, 91
19, 135840, Note_on_c, 11, 35, 0
19, 135840, Note_on_c, 11, 35, 101
19, 136080, Note_on_c, 11, 35, 0
19, 136080, Note_on_c, 11, 35, 109
19, 136320, Note_on_c, 11, 35, 0
19, 136320, Note_on_c, 11, 36, 115
19, 136800, Note_on_c, 11, 36, 0
19, 137280, Note_on_c, 11, 32, 115
19, 137760, Note_on_c, 11, 32, 0
19, 138240, Note_on_c, 11, 31, 115
19, 138720, Note_on_c, 11, 31, 0
19, 139440, Note_on_c, 11, 32, 123
19, 139680, Note_on_c, 11, 32, 0
19, 139680, Note_on_c, 11, 32, 123
19, 139920, Note_on_c, 11, 32, 0
19, 139920, Note_on_c, 11, 32, 123
19, 140160, Note_on_c, 11, 32, 0
19, 140160, Note_on_c, 11, 29, 123
19, 142080, Note_on_c, 11, 29, 0
19, 145200, Note_on_c, 11, 31, 91
19, 145440, Note_on_c, 11, 31, 0
19, 145440, Note_on_c, 11, 31, 91
19, 145680, Note_on_c, 11, 31, 0
19, 145680, Note_on_c, 11, 31, 91
19, 145920, Note_on_c, 11, 31, 0
19, 145920, Note_on_c, 11, 36, 91
19, 146400, Note_on_c, 11, 36, 0
19, 149040, Note_on_c, 11, 31, 91
19, 149280, Note_on_c, 11, 31, 0
19, 149280, Note_on_c, 11, 31, 91
19, 149520, Note_on_c, 11, 31, 0
19, 149520, Note_on_c, 11, 31, 91
19, 149760, Note_on_c, 11, 31, 0
19, 149760, Note_on_c, 11, 36, 91
19, 150240, Note_on_c, 11, 36, 0
19, 150960, Note_on_c, 11, 36, 91
19, 151200, Note_on_c, 11, 36, 0
19, 151200, Note_on_c, 11, 36, 91
19, 151440, Note_on_c, 11, 36, 0
19, 151440, Note_on_c, 11, 36, 91
19, 151680, Note_on_c, 11, 36, 0
19, 151680, Note_on_c, 11, 36, 101
19, 152160, Note_on_c, 11, 36, 0
19, 152880, Note_on_c, 11, 36, 115
19, 153120, Note_on_c, 11, 36, 0
19, 153120, Note_on_c, 11, 36, 115
19, 153360, Note_on_c, 11, 36, 0
19, 153360, Note_on_c, 11, 36, 115
19, 153600, Note_on_c, 11, 36, 0
19, 153600, Note_on_c, 11, 36, 123
19, 154080, Note_on_c, 11, 36, 0
19, 154560, Note_on_c, 11, 36, 123
19, 155040, Note_on_c, 11, 36, 0
19, 155520, Note_on_c, 11, 36, 123
19, 156000, Note_on_c, 11, 36, 0
19, 156480, Note_on_c, 11, 36, 123
19, 156960, Note_on_c, 11, 36, 0
19, 157440, Note_on_c, 11, 36, 123
19, 157920, Note_on_c, 11, 36, 0
19, 158400, Note_on_c, 11, 36, 123
19, 158880, Note_on_c, 11, 36, 0
19, 159360, Note_on_c, 11, 36, 123
19, 159840, Note_on_c, 11, 36, 0
19, 160320, Note_on_c, 11, 36, 115
19, 163440, Note_on_c, 11, 36, 0
19, 163440, Note_on_c, 11, 36, 109
19, 163680, Note_on_c, 11, 36, 0
19, 163680, Note_on_c, 11, 36, 109
19, 163920, Note_on_c, 11, 36, 0
19, 163920, Note_on_c, 11, 36, 109
19, 164160, Note_on_c, 11, 36, 0
19, 164160, Note_on_c, 11, 31, 109
19, 167280, Note_on_c, 11, 31, 0
19, 167280, Note_on_c, 11, 31, 109
19, 167520, Note_on_c, 11, 31, 0
19, 167520, Note_on_c, 11, 36, 109
19, 167760, Note_on_c, 11, 36, 0
19, 167760, Note_on_c, 11, 36, 109
19, 168000, Note_on_c, 11, 36, 0
19, 168000, Note_on_c, 11, 36, 123
19, 168240, Note_on_c, 11, 36, 0
19, 168240, Note_on_c, 11, 36, 123
19, 168480, Note_on_c, 11, 36, 0
19, 168480, Note_on_c, 11, 36, 123
19, 168720, Note_on_c, 11, 36, 0
19, 168720, Note_on_c, 11, 36, 123
19, 168960, Note_on_c, 11, 36, 0
19, 168960, Note_on_c, 11, 36, 123
19, 169200, Note_on_c, 11, 36, 0
19, 169200, Note_on_c, 11, 36, 123
19, 169440, Note_on_c, 11, 36, 0
19, 169440, Note_on_c, 11, 36, 123
19, 169680, Note_on_c, 11, 36, 0
19, 169680, Note_on_c, 11, 36, 123
19, 169920, Note_on_c, 11, 36, 0
19, 169920, Note_on_c, 11, 36, 123
19, 170160, Note_on_c, 11, 36, 0
19, 170160, Note_on_c, 11, 36, 123
19, 170400, Note_on_c, 11, 36, 0
19, 170400, Note_on_c, 11, 36, 123
19, 170640, Note_on_c, 11, 36, 0
19, 170640, Note_on_c, 11, 36, 123
19, 170880, Note_on_c, 11, 36, 0
19, 170880, Note_on_c, 11, 36, 123
19, 171120, Note_on_c, 11, 36, 0
19, 171120, Note_on_c, 11, 36, 123
19, 171360, Note_on_c, 11, 36, 0
19, 171360, Note_on_c, 11, 36, 123
19, 171600, Note_on_c, 11, 36, 0
19, 171600, Note_on_c, 11, 36, 123
19, 171840, Note_on_c, 11, 36, 0
19, 171840, Note_on_c, 11, 36, 123
19, 172320, Note_on_c, 11, 36, 0
19, 173760, Note_on_c, 11, 38, 123
19, 174240, Note_on_c, 11, 38, 0
19, 180720, Note_on_c, 11, 34, 91
19, 180960, Note_on_c, 11, 34, 0
19, 180960, Note_on_c, 11, 34, 91
19, 181200, Note_on_c, 11, 34, 0
19, 181200, Note_on_c, 11, 34, 91
19, 181440, Note_on_c, 11, 34, 0
19, 181440, Note_on_c, 11, 39, 91
19, 181920, Note_on_c, 11, 39, 0
19, 184560, Note_on_c, 11, 34, 91
19, 184800, Note_on_c, 11, 34, 0
19, 184800, Note_on_c, 11, 34, 91
19, 185040, Note_on_c, 11, 34, 0
19, 185040, Note_on_c, 11, 34, 91
19, 185280, Note_on_c, 11, 34, 0
19, 185280, Note_on_c, 11, 39, 91
19, 185760, Note_on_c, 11, 39, 0
19, 188400, Note_on_c, 11, 34, 91
19, 188640, Note_on_c, 11, 34, 0
19, 188640, Note_on_c, 11, 34, 91
19, 188880, Note_on_c, 11, 34, 0
19, 188880, Note_on_c, 11, 34, 91
19, 189120, Note_on_c, 11, 34, 0
19, 189120, Note_on_c, 11, 39, 91
19, 189600, Note_on_c, 11, 39, 0
19, 192240, Note_on_c, 11, 36, 91
19, 192480, Note_on_c, 11, 36, 0
19, 192480, Note_on_c, 11, 36, 91
19, 192720, Note_on_c, 11, 36, 0
19, 192720, Note_on_c, 11, 36, 91
19, 192960, Note_on_c, 11, 36, 0
19, 192960, Note_on_c, 11, 41, 91
19, 193440, Note_on_c, 11, 41, 0
19, 196080, Note_on_c, 11, 39, 91
19, 196320, Note_on_c, 11, 39, 0
19, 196320, Note_on_c, 11, 39, 91
19, 196560, Note_on_c, 11, 39, 0
19, 196560, Note_on_c, 11, 39, 91
19, 196800, Note_on_c, 11, 39, 0
19, 196800, Note_on_c, 11, 44, 91
19, 197280, Note_on_c, 11, 44, 0
19, 198960, Note_on_c, 11, 45, 91
19, 199200, Note_on_c, 11, 45, 0
19, 199200, Note_on_c, 11, 45, 91
19, 199440, Note_on_c, 11, 45, 0
19, 199440, Note_on_c, 11, 45, 91
19, 199680, Note_on_c, 11, 45, 0
19, 199680, Note_on_c, 11, 45, 91
19, 200160, Note_on_c, 11, 45, 0
19, 200880, Note_on_c, 11, 46, 91
19, 201120, Note_on_c, 11, 46, 0
19, 201120, Note_on_c, 11, 46, 91
19, 201360, Note_on_c, 11, 46, 0
19, 201360, Note_on_c, 11, 46, 91
19, 201600, Note_on_c, 11, 46, 0
19, 201600, Note_on_c, 11, 46, 91
19, 202080, Note_on_c, 11, 46, 0
19, 202800, Note_on_c, 11, 47, 101
19, 203040, Note_on_c, 11, 47, 0
19, 203040, Note_on_c, 11, 47, 101
19, 203280, Note_on_c, 11, 47, 0
19, 203280, Note_on_c, 11, 47, 101
19, 203520, Note_on_c, 11, 47, 0
19, 203520, Note_on_c, 11, 47, 101
19, 204000, Note_on_c, 11, 47, 0
19, 204720, Note_on_c, 11, 48, 109
19, 204960, Note_on_c, 11, 48, 0
19, 204960, Note_on_c, 11, 48, 109
19, 205200, Note_on_c, 11, 48, 0
19, 205200, Note_on_c, 11, 48, 109
19, 205440, Note_on_c, 11, 48, 0
19, 205440, Note_on_c, 11, 48, 109
19, 205920, Note_on_c, 11, 48, 0
19, 206640, Note_on_c, 11, 48, 115
19, 206880, Note_on_c, 11, 48, 0
19, 206880, Note_on_c, 11, 48, 115
19, 207120, Note_on_c, 11, 48, 0
19, 207120, Note_on_c, 11, 48, 115
19, 207360, Note_on_c, 11, 48, 0
19, 207360, Note_on_c, 11, 48, 115
19, 207840, Note_on_c, 11, 48, 0
19, 207840, Note_on_c, 11, 48, 115
19, 208080, Note_on_c, 11, 48, 0
19, 208080, Note_on_c, 11, 48, 115
19, 208320, Note_on_c, 11, 48, 0
19, 208320, Note_on_c, 11, 50, 123
19, 209760, Note_on_c, 11, 50, 0
19, 209760, Note_on_c, 11, 38, 123
19, 210240, Note_on_c, 11, 38, 0
19, 210240, Note_on_c, 11, 39, 123
19, 210720, Note_on_c, 11, 39, 0
19, 211200, Note_on_c, 11, 41, 123
19, 211680, Note_on_c, 11, 41, 0
19, 212160, Note_on_c, 11, 43, 123
19, 212640, Note_on_c, 11, 43, 0
19, 213120, Note_on_c, 11, 44, 123
19, 213600, Note_on_c, 11, 44, 0
19, 214080, Note_on_c, 11, 46, 123
19, 214560, Note_on_c, 11, 46, 0
19, 215040, Note_on_c, 11, 34, 123
19, 215520, Note_on_c, 11, 34, 0
19, 216000, Note_on_c, 11, 38, 123
19, 216480, Note_on_c, 11, 38, 0
19, 216480, Note_on_c, 11, 41, 123
19, 216960, Note_on_c, 11, 41, 0
19, 216960, Note_on_c, 11, 38, 123
19, 217440, Note_on_c, 11, 38, 0
19, 217440, Note_on_c, 11, 41, 123
19, 217920, Note_on_c, 11, 41, 0
19, 217920, Note_on_c, 11, 39, 123
19, 218400, Note_on_c, 11, 39, 0
19, 218400, Note_on_c, 11, 43, 123
19, 218880, Note_on_c, 11, 43, 0
19, 218880, Note_on_c, 11, 41, 123
19, 219360, Note_on_c, 11, 41, 0
19, 219360, Note_on_c, 11, 44, 123
19, 219840, Note_on_c, 11, 44, 0
19, 219840, Note_on_c, 11, 43, 123
19, 220320, Note_on_c, 11, 43, 0
19, 220320, Note_on_c, 11, 46, 123
19, 220800, Note_on_c, 11, 46, 0
19, 220800, Note_on_c, 11, 44, 123
19, 221280, Note_on_c, 11, 44, 0
19, 221280, Note_on_c, 11, 48, 123
19, 221760, Note_on_c, 11, 48, 0
19, 221760, Note_on_c, 11, 46, 123
19, 222240, Note_on_c, 11, 46, 0
19, 222240, Note_on_c, 11, 34, 123
19, 222720, Note_on_c, 11, 34, 0
19, 222720, Note_on_c, 11, 46, 123
19, 223200, Note_on_c, 11, 46, 0
19, 223200, Note_on_c, 11, 34, 123
19, 223680, Note_on_c, 11, 34, 0
19, 223680, Note_on_c, 11, 39, 123
19, 226800, Note_on_c, 11, 39, 0
19, 226800, Note_on_c, 11, 34, 123
19, 227040, Note_on_c, 11, 34, 0
19, 227040, Note_on_c, 11, 34, 123
19, 227280, Note_on_c, 11, 34, 0
19, 227280, Note_on_c, 11, 34, 123
19, 227520, Note_on_c, 11, 34, 0
19, 227520, Note_on_c, 11, 39, 123
19, 230640, Note_on_c, 11, 39, 0
19, 230640, Note_on_c, 11, 34, 123
19, 230880, Note_on_c, 11, 34, 0
19, 230880, Note_on_c, 11, 34, 123
19, 231120, Note_on_c, 11, 34, 0
19, 231120, Note_on_c, 11, 34, 123
19, 231360, Note_on_c, 11, 34, 0
19, 231360, Note_on_c, 11, 39, 123
19, 231840, Note_on_c, 11, 39, 0
19, 232560, Note_on_c, 11, 34, 123
19, 232800, Note_on_c, 11, 34, 0
19, 232800, Note_on_c, 11, 34, 123
19, 233040, Note_on_c, 11, 34, 0
19, 233040, Note_on_c, 11, 34, 123
19, 233280, Note_on_c, 11, 34, 0
19, 233280, Note_on_c, 11, 39, 123
19, 233760, Note_on_c, 11, 39, 0
19, 234480, Note_on_c, 11, 34, 123
19, 234720, Note_on_c, 11, 34, 0
19, 234720, Note_on_c, 11, 34, 123
19, 234960, Note_on_c, 11, 34, 0
19, 234960, Note_on_c, 11, 34, 123
19, 235200, Note_on_c, 11, 34, 0
19, 235200, Note_on_c, 11, 39, 123
19, 235680, Note_on_c, 11, 39, 0
19, 239280, Note_on_c, 11, 37, 123
19, 239520, Note_on_c, 11, 37, 0
19, 239520, Note_on_c, 11, 37, 123
19, 239760, Note_on_c, 11, 37, 0
19, 239760, Note_on_c, 11, 37, 123
19, 240000, Note_on_c, 11, 37, 0
19, 240000, Note_on_c, 11, 36, 123
19, 241920, Note_on_c, 11, 36, 0
19, 257760, Note_on_c, 11, 31, 91
19, 258240, Note_on_c, 11, 31, 0
19, 258240, Note_on_c, 11, 36, 91
19, 258720, Note_on_c, 11, 36, 0
19, 259200, Note_on_c, 11, 31, 91
19, 259680, Note_on_c, 11, 31, 0
19, 260160, Note_on_c, 11, 36, 91
19, 260640, Note_on_c, 11, 36, 0
19, 261120, Note_on_c, 11, 31, 91
19, 261600, Note_on_c, 11, 31, 0
19, 262080, Note_on_c, 11, 36, 91
19, 262560, Note_on_c, 11, 36, 0
19, 264000, Note_on_c, 11, 33, 91
19, 264480, Note_on_c, 11, 33, 0
19, 264960, Note_on_c, 11, 38, 91
19, 265440, Note_on_c, 11, 38, 0
19, 265920, Note_on_c, 11, 43, 91
19, 266400, Note_on_c, 11, 43, 0
19, 266880, Note_on_c, 11, 38, 91
19, 267360, Note_on_c, 11, 38, 0
19, 267840, Note_on_c, 11, 43, 91
19, 268320, Note_on_c, 11, 43, 0
19, 268800, Note_on_c, 11, 38, 91
19, 269280, Note_on_c, 11, 38, 0
19, 269760, Note_on_c, 11, 31, 91
19, 270960, Note_on_c, 11, 31, 0
19, 270960, Note_on_c, 11, 31, 91
19, 271200, Note_on_c, 11, 31, 0
19, 271200, Note_on_c, 11, 31, 91
19, 271440, Note_on_c, 11, 31, 0
19, 271440, Note_on_c, 11, 31, 91
19, 271680, Note_on_c, 11, 31, 0
19, 271680, Note_on_c, 11, 33, 91
19, 272880, Note_on_c, 11, 33, 0
19, 272880, Note_on_c, 11, 33, 91
19, 273120, Note_on_c, 11, 33, 0
19, 273120, Note_on_c, 11, 33, 91
19, 273360, Note_on_c, 11, 33, 0
19, 273360, Note_on_c, 11, 33, 91
19, 273600, Note_on_c, 11, 33, 0
19, 273600, Note_on_c, 11, 33, 91
19, 274800, Note_on_c, 11, 33, 0
19, 274800, Note_on_c, 11, 33, 91
19, 275040, Note_on_c, 11, 33, 0
19, 275040, Note_on_c, 11, 33, 91
19, 275280, Note_on_c, 11, 33, 0
19, 275280, Note_on_c, 11, 33, 91
19, 275520, Note_on_c, 11, 33, 0
19, 275520, Note_on_c, 11, 34, 91
19, 276720, Note_on_c, 11, 34, 0
19, 276720, Note_on_c, 11, 34, 91
19, 276960, Note_on_c, 11, 34, 0
19, 276960, Note_on_c, 11, 34, 91
19, 277200, Note_on_c, 11, 34, 0
19, 277200, Note_on_c, 11, 34, 91
19, 277440, Note_on_c, 11, 34, 0
19, 277440, Note_on_c, 11, 34, 101
19, 278640, Note_on_c, 11, 34, 0
19, 278640, Note_on_c, 11, 34, 109
19, 278880, Note_on_c, 11, 34, 0
19, 278880, Note_on_c, 11, 34, 109
19, 279120, Note_on_c, 11, 34, 0
19, 279120, Note_on_c, 11, 34, 109
19, 279360, Note_on_c, 11, 34, 0
19, 279360, Note_on_c, 11, 36, 115
19, 279600, Note_on_c, 11, 36, 0
19, 279600, Note_on_c, 11, 36, 115
19, 279840, Note_on_c, 11, 36, 0
19, 279840, Note_on_c, 11, 36, 115
19, 280080, Note_on_c, 11, 36, 0
19, 280080, Note_on_c, 11, 36, 115
19, 280320, Note_on_c, 11, 36, 0
19, 280320, Note_on_c, 11, 36, 115
19, 280560, Note_on_c, 11, 36, 0
19, 280560, Note_on_c, 11, 36, 115
19, 280800, Note_on_c, 11, 36, 0
19, 280800, Note_on_c, 11, 36, 115
19, 281040, Note_on_c, 11, 36, 0
19, 281040, Note_on_c, 11, 36, 115
19, 281280, Note_on_c, 11, 36, 0
19, 281280, Note_on_c, 11, 36, 115
19, 281760, Note_on_c, 11, 36, 0
19, 282480, Note_on_c, 11, 37, 115
19, 282720, Note_on_c, 11, 37, 0
19, 282720, Note_on_c, 11, 37, 115
19, 282960, Note_on_c, 11, 37, 0
19, 282960, Note_on_c, 11, 37, 115
19, 283200, Note_on_c, 11, 37, 0
19, 283200, Note_on_c, 11, 37, 115
19, 283440, Note_on_c, 11, 37, 0
19, 283440, Note_on_c, 11, 37, 115
19, 283680, Note_on_c, 11, 37, 0
19, 283680, Note_on_c, 11, 37, 115
19, 283920, Note_on_c, 11, 37, 0
19, 283920, Note_on_c, 11, 37, 115
19, 284160, Note_on_c, 11, 37, 0
19, 284160, Note_on_c, 11, 37, 115
19, 284400, Note_on_c, 11, 37, 0
19, 284400, Note_on_c, 11, 37, 115
19, 284640, Note_on_c, 11, 37, 0
19, 284640, Note_on_c, 11, 37, 115
19, 284880, Note_on_c, 11, 37, 0
19, 284880, Note_on_c, 11, 37, 115
19, 285120, Note_on_c, 11, 37, 0
19, 285120, Note_on_c, 11, 37, 115
19, 285600, Note_on_c, 11, 37, 0
19, 286320, Note_on_c, 11, 38, 115
19, 286560, Note_on_c, 11, 38, 0
19, 286560, Note_on_c, 11, 38, 115
19, 286800, Note_on_c, 11, 38, 0
19, 286800, Note_on_c, 11, 38, 115
19, 287040, Note_on_c, 11, 38, 0
19, 287040, Note_on_c, 11, 38, 115
19, 287520, Note_on_c, 11, 38, 0
19, 288480, Note_on_c, 11, 40, 115
19, 288720, Note_on_c, 11, 40, 0
19, 288720, Note_on_c, 11, 40, 115
19, 288960, Note_on_c, 11, 40, 0
19, 288960, Note_on_c, 11, 40, 115
19, 289440, Note_on_c, 11, 40, 0
19, 289440, Note_on_c, 11, 42, 115
19, 289680, Note_on_c, 11, 42, 0
19, 289680, Note_on_c, 11, 42, 115
19, 289920, Note_on_c, 11, 42, 0
19, 289920, Note_on_c, 11, 42, 115
19, 290400, Note_on_c, 11, 42, 0
19, 293280, Note_on_c, 11, 48, 115
19, 294240, Note_on_c, 11, 48, 0
19, 294240, Note_on_c, 11, 45, 115
19, 294720, Note_on_c, 11, 45, 0
19, 294720, Note_on_c, 11, 42, 115
19, 295200, Note_on_c, 11, 42, 0
19, 295200, Note_on_c, 11, 38, 115
19, 295680, Note_on_c, 11, 38, 0
19, 295680, Note_on_c, 11, 36, 115
19, 296160, Note_on_c, 11, 36, 0
19, 296160, Note_on_c, 11, 33, 115
19, 296640, Note_on_c, 11, 33, 0
19, 296640, Note_on_c, 11, 30, 115
19, 297120, Note_on_c, 11, 30, 0
19, 297120, Note_on_c, 11, 38, 115
19, 297600, Note_on_c, 11, 38, 0
19, 297600, Note_on_c, 11, 31, 115
19, 298080, Note_on_c, 11, 31, 0
19, 300960, Note_on_c, 11, 53, 115
19, 301920, Note_on_c, 11, 53, 0
19, 301920, Note_on_c, 11, 50, 115
19, 302400, Note_on_c, 11, 50, 0
19, 302400, Note_on_c, 11, 47, 115
19, 302880, Note_on_c, 11, 47, 0
19, 302880, Note_on_c, 11, 43, 115
19, 303360, Note_on_c, 11, 43, 0
19, 303360, Note_on_c, 11, 41, 115
19, 303840, Note_on_c, 11, 41, 0
19, 303840, Note_on_c, 11, 38, 115
19, 304320, Note_on_c, 11, 38, 0
19, 304320, Note_on_c, 11, 35, 115
19, 304800, Note_on_c, 11, 35, 0
19, 304800, Note_on_c, 11, 31, 115
19, 305280, Note_on_c, 11, 31, 0
19, 305280, Note_on_c, 11, 36, 115
19, 305760, Note_on_c, 11, 36, 0
19, 308160, Note_on_c, 11, 31, 115
19, 309120, Note_on_c, 11, 31, 0
19, 309120, Note_on_c, 11, 32, 115
19, 310080, Note_on_c, 11, 32, 0
19, 312000, Note_on_c, 11, 31, 115
19, 312960, Note_on_c, 11, 31, 0
19, 312960, Note_on_c, 11, 32, 115
19, 313920, Note_on_c, 11, 32, 0
19, 315840, Note_on_c, 11, 34, 115
19, 316800, Note_on_c, 11, 34, 0
19, 316800, Note_on_c, 11, 36, 115
19, 317760, Note_on_c, 11, 36, 0
19, 319680, Note_on_c, 11, 37, 115
19, 320640, Note_on_c, 11, 37, 0
19, 321600, Note_on_c, 11, 39, 115
19, 322560, Note_on_c, 11, 39, 0
19, 323520, Note_on_c, 11, 41, 109
19, 324480, Note_on_c, 11, 41, 0
19, 325440, Note_on_c, 11, 30, 101
19, 326400, Note_on_c, 11, 30, 0
19, 327360, Note_on_c, 11, 30, 91
19, 328320, Note_on_c, 11, 30, 0
19, 329280, Note_on_c, 11, 30, 91
19, 330240, Note_on_c, 11, 30, 0
19, 331200, Note_on_c, 11, 30, 78
19, 332160, Note_on_c, 11, 30, 0
19, 333120, Note_on_c, 11, 30, 78
19, 334080, Note_on_c, 11, 30, 0
19, 335040, Note_on_c, 11, 30, 78
19, 336000, Note_on_c, 11, 30, 0
19, 336960, Note_on_c, 11, 30, 123
19, 337200, Note_on_c, 11, 30, 0
19, 337200, Note_on_c, 11, 38, 123
19, 337440, Note_on_c, 11, 38, 0
19, 337440, Note_on_c, 11, 38, 123
19, 337680, Note_on_c, 11, 38, 0
19, 337680, Note_on_c, 11, 38, 123
19, 337920, Note_on_c, 11, 38, 0
19, 337920, Note_on_c, 11, 35, 123
19, 338880, Note_on_c, 11, 35, 0
19, 338880, Note_on_c, 11, 36, 123
19, 339840, Note_on_c, 11, 36, 0
19, 339840, Note_on_c, 11, 33, 123
19, 341760, Note_on_c, 11, 33, 0
19, 342720, Note_on_c, 11, 35, 78
19, 343680, Note_on_c, 11, 35, 0
19, 344640, Note_on_c, 11, 35, 78
19, 345600, Note_on_c, 11, 35, 0
19, 346560, Note_on_c, 11, 35, 78
19, 347520, Note_on_c, 11, 35, 0
19, 348480, Note_on_c, 11, 35, 115
19, 348720, Note_on_c, 11, 35, 0
19, 348720, Note_on_c, 11, 44, 123
19, 348960, Note_on_c, 11, 44, 0
19, 348960, Note_on_c, 11, 44, 123
19, 349200, Note_on_c, 11, 44, 0
19, 349200, Note_on_c, 11, 44, 123
19, 349440, Note_on_c, 11, 44, 0
19, 349440, Note_on_c, 11, 41, 123
19, 350640, Note_on_c, 11, 41, 0
19, 350640, Note_on_c, 11, 44, 123
19, 350880, Note_on_c, 11, 44, 0
19, 350880, Note_on_c, 11, 44, 123
19, 351120, Note_on_c, 11, 44, 0
19, 351120, Note_on_c, 11, 44, 123
19, 351360, Note_on_c, 11, 44, 0
19, 351360, Note_on_c, 11, 41, 123
19, 352560, Note_on_c, 11, 41, 0
19, 352560, Note_on_c, 11, 44, 123
19, 352800, Note_on_c, 11, 44, 0
19, 352800, Note_on_c, 11, 44, 123
19, 353040, Note_on_c, 11, 44, 0
19, 353040, Note_on_c, 11, 44, 123
19, 353280, Note_on_c, 11, 44, 0
19, 353280, Note_on_c, 11, 41, 123
19, 353520, Note_on_c, 11, 41, 0
19, 353520, Note_on_c, 11, 44, 123
19, 353760, Note_on_c, 11, 44, 0
19, 353760, Note_on_c, 11, 44, 123
19, 354000, Note_on_c, 11, 44, 0
19, 354000, Note_on_c, 11, 44, 123
19, 354240, Note_on_c, 11, 44, 0
19, 354240, Note_on_c, 11, 41, 123
19, 354480, Note_on_c, 11, 41, 0
19, 354480, Note_on_c, 11, 44, 123
19, 354720, Note_on_c, 11, 44, 0
19, 354720, Note_on_c, 11, 44, 123
19, 354960, Note_on_c, 11, 44, 0
19, 354960, Note_on_c, 11, 44, 123
19, 355200, Note_on_c, 11, 44, 0
19, 355200, Note_on_c, 11, 41, 123
19, 355440, Note_on_c, 11, 41, 0
19, 355440, Note_on_c, 11, 44, 123
19, 355680, Note_on_c, 11, 44, 0
19, 355680, Note_on_c, 11, 44, 123
19, 355920, Note_on_c, 11, 44, 0
19, 355920, Note_on_c, 11, 44, 123
19, 356160, Note_on_c, 11, 44, 0
19, 356160, Note_on_c, 11, 41, 123
19, 356400, Note_on_c, 11, 41, 0
19, 356400, Note_on_c, 11, 43, 123
19, 356640, Note_on_c, 11, 43, 0
19, 356640, Note_on_c, 11, 43, 123
19, 356880, Note_on_c, 11, 43, 0
19, 356880, Note_on_c, 11, 43, 123
19, 357120, Note_on_c, 11, 43, 0
19, 357120, Note_on_c, 11, 39, 123
19, 358080, Note_on_c, 11, 39, 0
19, 358320, Note_on_c, 11, 41, 123
19, 358560, Note_on_c, 11, 41, 0
19, 358560, Note_on_c, 11, 41, 123
19, 358800, Note_on_c, 11, 41, 0
19, 358800, Note_on_c, 11, 41, 123
19, 359040, Note_on_c, 11, 41, 0
19, 359040, Note_on_c, 11, 38, 123
19, 360960, Note_on_c, 11, 38, 0
19, 361920, Note_on_c, 11, 36, 91
19, 362400, Note_on_c, 11, 36, 0
19, 363840, Note_on_c, 11, 36, 91
19, 364320, Note_on_c, 11, 36, 0
19, 365760, Note_on_c, 11, 35, 91
19, 366240, Note_on_c, 11, 35, 0
19, 367680, Note_on_c, 11, 35, 91
19, 368160, Note_on_c, 11, 35, 0
19, 369600, Note_on_c, 11, 36, 91
19, 370080, Note_on_c, 11, 36, 0
19, 370560, Note_on_c, 11, 35, 91
19, 371040, Note_on_c, 11, 35, 0
19, 371520, Note_on_c, 11, 36, 91
19, 372000, Note_on_c, 11, 36, 0
19, 372480, Note_on_c, 11, 31, 91
19, 372960, Note_on_c, 11, 31, 0
19, 373440, Note_on_c, 11, 36, 91
19, 373920, Note_on_c, 11, 36, 0
19, 374400, Note_on_c, 11, 32, 91
19, 374880, Note_on_c, 11, 32, 0
19, 375360, Note_on_c, 11, 31, 123
19, 375840, Note_on_c, 11, 31, 0
19, 383280, Note_on_c, 11, 31, 91
19, 383520, Note_on_c, 11, 31, 0
19, 383520, Note_on_c, 11, 31, 91
19, 383760, Note_on_c, 11, 31, 0
19, 383760, Note_on_c, 11, 31, 91
19, 384000, Note_on_c, 11, 31, 0
19, 384000, Note_on_c, 11, 36, 91
19, 384240, Note_on_c, 11, 36, 0
19, 384240, Note_on_c, 11, 44, 91
19, 384480, Note_on_c, 11, 44, 0
19, 384480, Note_on_c, 11, 44, 91
19, 384720, Note_on_c, 11, 44, 0
19, 384720, Note_on_c, 11, 44, 91
19, 384960, Note_on_c, 11, 44, 0
19, 384960, Note_on_c, 11, 41, 101
19, 385200, Note_on_c, 11, 41, 0
19, 385200, Note_on_c, 11, 38, 101
19, 385440, Note_on_c, 11, 38, 0
19, 385440, Note_on_c, 11, 38, 101
19, 385680, Note_on_c, 11, 38, 0
19, 385680, Note_on_c, 11, 38, 101
19, 385920, Note_on_c, 11, 38, 0
19, 385920, Note_on_c, 11, 35, 101
19, 386160, Note_on_c, 11, 35, 0
19, 386160, Note_on_c, 11, 32, 101
19, 386400, Note_on_c, 11, 32, 0
19, 386400, Note_on_c, 11, 32, 109
19, 386640, Note_on_c, 11, 32, 0
19, 386640, Note_on_c, 11, 32, 109
19, 386880, Note_on_c, 11, 32, 0
19, 386880, Note_on_c, 11, 31, 109
19, 387120, Note_on_c, 11, 31, 0
19, 387120, Note_on_c, 11, 43, 109
19, 387360, Note_on_c, 11, 43, 0
19, 387360, Note_on_c, 11, 43, 109
19, 387600, Note_on_c, 11, 43, 0
19, 387600, Note_on_c, 11, 43, 109
19, 387840, Note_on_c, 11, 43, 0
19, 387840, Note_on_c, 11, 36, 115
19, 388080, Note_on_c, 11, 36, 0
19, 388080, Note_on_c, 11, 36, 115
19, 388320, Note_on_c, 11, 36, 0
19, 388320, Note_on_c, 11, 36, 115
19, 388560, Note_on_c, 11, 36, 0
19, 388560, Note_on_c, 11, 36, 115
19, 388800, Note_on_c, 11, 36, 0
19, 388800, Note_on_c, 11, 36, 115
19, 390000, Note_on_c, 11, 36, 0
19, 390000, Note_on_c, 11, 36, 115
19, 390240, Note_on_c, 11, 36, 0
19, 390240, Note_on_c, 11, 36, 115
19, 390480, Note_on_c, 11, 36, 0
19, 390480, Note_on_c, 11, 36, 115
19, 390720, Note_on_c, 11, 36, 0
19, 390720, Note_on_c, 11, 36, 115
19, 391920, Note_on_c, 11, 36, 0
19, 391920, Note_on_c, 11, 36, 115
19, 392160, Note_on_c, 11, 36, 0
19, 392160, Note_on_c, 11, 36, 115
19, 392400, Note_on_c, 11, 36, 0
19, 392400, Note_on_c, 11, 36, 115
19, 392640, Note_on_c, 11, 36, 0
19, 392640, Note_on_c, 11, 36, 115
19, 393120, Note_on_c, 11, 36, 0
19, 393600, Note_on_c, 11, 36, 115
19, 394080, Note_on_c, 11, 36, 0
19, 394560, Note_on_c, 11, 36, 115
19, 395040, Note_on_c, 11, 36, 0
19, 395520, Note_on_c, 11, 36, 115
19, 396000, Note_on_c, 11, 36, 0
19, 396480, Note_on_c, 11, 36, 115
19, 396960, Note_on_c, 11, 36, 0
19, 397440, Note_on_c, 11, 36, 115
19, 397920, Note_on_c, 11, 36, 0
19, 398400, Note_on_c, 11, 36, 115
19, 401520, Note_on_c, 11, 36, 0
19, 401520, Note_on_c, 11, 36, 115
19, 401760, Note_on_c, 11, 36, 0
19, 401760, Note_on_c, 11, 36, 115
19, 402000, Note_on_c, 11, 36, 0
19, 402000, Note_on_c, 11, 36, 115
19, 402240, Note_on_c, 11, 36, 0
19, 402240, Note_on_c, 11, 31, 115
19, 405360, Note_on_c, 11, 31, 0
19, 405360, Note_on_c, 11, 31, 115
19, 405600, Note_on_c, 11, 31, 0
19, 405600, Note_on_c, 11, 36, 115
19, 405840, Note_on_c, 11, 36, 0
19, 405840, Note_on_c, 11, 36, 115
19, 406080, Note_on_c, 11, 36, 0
19, 406080, Note_on_c, 11, 36, 123
19, 406320, Note_on_c, 11, 36, 0
19, 406320, Note_on_c, 11, 51, 123
19, 406560, Note_on_c, 11, 51, 0
19, 406560, Note_on_c, 11, 51, 123
19, 406800, Note_on_c, 11, 51, 0
19, 406800, Note_on_c, 11, 51, 123
19, 407040, Note_on_c, 11, 51, 0
19, 407040, Note_on_c, 11, 48, 123
19, 407280, Note_on_c, 11, 48, 0
19, 407280, Note_on_c, 11, 45, 123
19, 407520, Note_on_c, 11, 45, 0
19, 407520, Note_on_c, 11, 45, 123
19, 407760, Note_on_c, 11, 45, 0
19, 407760, Note_on_c, 11, 45, 123
19, 408000, Note_on_c, 11, 45, 0
19, 408000, Note_on_c, 11, 42, 123
19, 408240, Note_on_c, 11, 42, 0
19, 408240, Note_on_c, 11, 39, 123
19, 408480, Note_on_c, 11, 39, 0
19, 408480, Note_on_c, 11, 39, 123
19, 408720, Note_on_c, 11, 39, 0
19, 408720, Note_on_c, 11, 39, 123
19, 408960, Note_on_c, 11, 39, 0
19, 408960, Note_on_c, 11, 36, 123
19, 409200, Note_on_c, 11, 36, 0
19, 409200, Note_on_c, 11, 33, 123
19, 409440, Note_on_c, 11, 33, 0
19, 409440, Note_on_c, 11, 33, 123
19, 409680, Note_on_c, 11, 33, 0
19, 409680, Note_on_c, 11, 33, 123
19, 409920, Note_on_c, 11, 33, 0
19, 409920, Note_on_c, 11, 36, 123
19, 410400, Note_on_c, 11, 36, 0
19, 411840, Note_on_c, 11, 35, 123
19, 412320, Note_on_c, 11, 35, 0
19, 418800, Note_on_c, 11, 31, 91
19, 419040, Note_on_c, 11, 31, 0
19, 419040, Note_on_c, 11, 31, 91
19, 419280, Note_on_c, 11, 31, 0
19, 419280, Note_on_c, 11, 31, 91
19, 419520, Note_on_c, 11, 31, 0
19, 419520, Note_on_c, 11, 36, 91
19, 420000, Note_on_c, 11, 36, 0
19, 426480, Note_on_c, 11, 31, 91
19, 426720, Note_on_c, 11, 31, 0
19, 426720, Note_on_c, 11, 31, 91
19, 426960, Note_on_c, 11, 31, 0
19, 426960, Note_on_c, 11, 31, 91
19, 427200, Note_on_c, 11, 31, 0
19, 427200, Note_on_c, 11, 36, 91
19, 427680, Note_on_c, 11, 36, 0
19, 434160, Note_on_c, 11, 36, 91
19, 434400, Note_on_c, 11, 36, 0
19, 434400, Note_on_c, 11, 36, 91
19, 434640, Note_on_c, 11, 36, 0
19, 434640, Note_on_c, 11, 36, 91
19, 434880, Note_on_c, 11, 36, 0
19, 434880, Note_on_c, 11, 41, 91
19, 435360, Note_on_c, 11, 41, 0
19, 438000, Note_on_c, 11, 38, 91
19, 438240, Note_on_c, 11, 38, 0
19, 438240, Note_on_c, 11, 38, 91
19, 438480, Note_on_c, 11, 38, 0
19, 438480, Note_on_c, 11, 38, 91
19, 438720, Note_on_c, 11, 38, 0
19, 438720, Note_on_c, 11, 43, 91
19, 439200, Note_on_c, 11, 43, 0
19, 440880, Note_on_c, 11, 44, 91
19, 441120, Note_on_c, 11, 44, 0
19, 441120, Note_on_c, 11, 44, 91
19, 441360, Note_on_c, 11, 44, 0
19, 441360, Note_on_c, 11, 44, 91
19, 441600, Note_on_c, 11, 44, 0
19, 441600, Note_on_c, 11, 44, 91
19, 442080, Note_on_c, 11, 44, 0
19, 442800, Note_on_c, 11, 47, 101
19, 443040, Note_on_c, 11, 47, 0
19, 443040, Note_on_c, 11, 47, 101
19, 443280, Note_on_c, 11, 47, 0
19, 443280, Note_on_c, 11, 47, 101
19, 443520, Note_on_c, 11, 47, 0
19, 443520, Note_on_c, 11, 47, 101
19, 444000, Note_on_c, 11, 47, 0
19, 444720, Note_on_c, 11, 50, 101
19, 444960, Note_on_c, 11, 50, 0
19, 444960, Note_on_c, 11, 50, 101
19, 445200, Note_on_c, 11, 50, 0
19, 445200, Note_on_c, 11, 50, 101
19, 445440, Note_on_c, 11, 50, 0
19, 445440, Note_on_c, 11, 50, 101
19, 445920, Note_on_c, 11, 50, 0
19, 446640, Note_on_c, 11, 50, 109
19, 446880, Note_on_c, 11, 50, 0
19, 446880, Note_on_c, 11, 50, 109
19, 447120, Note_on_c, 11, 50, 0
19, 447120, Note_on_c, 11, 50, 109
19, 447360, Note_on_c, 11, 50, 0
19, 447360, Note_on_c, 11, 50, 109
19, 447840, Note_on_c, 11, 50, 0
19, 448560, Note_on_c, 11, 50, 109
19, 448800, Note_on_c, 11, 50, 0
19, 448800, Note_on_c, 11, 50, 109
19, 449040, Note_on_c, 11, 50, 0
19, 449040, Note_on_c, 11, 50, 109
19, 449280, Note_on_c, 11, 50, 0
19, 449280, Note_on_c, 11, 50, 109
19, 449760, Note_on_c, 11, 50, 0
19, 450720, Note_on_c, 11, 50, 115
19, 451200, Note_on_c, 11, 50, 0
19, 451680, Note_on_c, 11, 50, 115
19, 452160, Note_on_c, 11, 50, 0
19, 452640, Note_on_c, 11, 50, 115
19, 453120, Note_on_c, 11, 50, 0
19, 453600, Note_on_c, 11, 50, 115
19, 454080, Note_on_c, 11, 50, 0
19, 454080, Note_on_c, 11, 50, 123
19, 455520, Note_on_c, 11, 50, 0
19, 455520, Note_on_c, 11, 47, 123
19, 456000, Note_on_c, 11, 47, 0
19, 456000, Note_on_c, 11, 48, 123
19, 456480, Note_on_c, 11, 48, 0
19, 456960, Note_on_c, 11, 50, 123
19, 457440, Note_on_c, 11, 50, 0
19, 457920, Note_on_c, 11, 52, 123
19, 458400, Note_on_c, 11, 52, 0
19, 458880, Note_on_c, 11, 53, 123
19, 459360, Note_on_c, 11, 53, 0
19, 459840, Note_on_c, 11, 55, 123
19, 460320, Note_on_c, 11, 55, 0
19, 460800, Note_on_c, 11, 47, 123
19, 461280, Note_on_c, 11, 47, 0
19, 461760, Note_on_c, 11, 35, 123
19, 462240, Note_on_c, 11, 35, 0
19, 462240, Note_on_c, 11, 38, 123
19, 462720, Note_on_c, 11, 38, 0
19, 462720, Note_on_c, 11, 35, 123
19, 463200, Note_on_c, 11, 35, 0
19, 463200, Note_on_c, 11, 38, 123
19, 463680, Note_on_c, 11, 38, 0
19, 463680, Note_on_c, 11, 36, 123
19, 464160, Note_on_c, 11, 36, 0
19, 464160, Note_on_c, 11, 40, 123
19, 464640, Note_on_c, 11, 40, 0
19, 464640, Note_on_c, 11, 38, 123
19, 465120, Note_on_c, 11, 38, 0
19, 465120, Note_on_c, 11, 41, 123
19, 465600, Note_on_c, 11, 41, 0
19, 465600, Note_on_c, 11, 40, 123
19, 466080, Note_on_c, 11, 40, 0
19, 466080, Note_on_c, 11, 43, 123
19, 466560, Note_on_c, 11, 43, 0
19, 466560, Note_on_c, 11, 41, 123
19, 467040, Note_on_c, 11, 41, 0
19, 467040, Note_on_c, 11, 45, 123
19, 467520, Note_on_c, 11, 45, 0
19, 467520, Note_on_c, 11, 43, 123
19, 468000, Note_on_c, 11, 43, 0
19, 468000, Note_on_c, 11, 31, 123
19, 468480, Note_on_c, 11, 31, 0
19, 468480, Note_on_c, 11, 43, 123
19, 468960, Note_on_c, 11, 43, 0
19, 468960, Note_on_c, 11, 31, 123
19, 469440, Note_on_c, 11, 31, 0
19, 469440, Note_on_c, 11, 36, 123
19, 472560, Note_on_c, 11, 36, 0
19, 472560, Note_on_c, 11, 31, 123
19, 472800, Note_on_c, 11, 31, 0
19, 472800, Note_on_c, 11, 31, 123
19, 473040, Note_on_c, 11, 31, 0
19, 473040, Note_on_c, 11, 31, 123
19, 473280, Note_on_c, 11, 31, 0
19, 473280, Note_on_c, 11, 36, 123
19, 476400, Note_on_c, 11, 36, 0
19, 476400, Note_on_c, 11, 31, 123
19, 476640, Note_on_c, 11, 31, 0
19, 476640, Note_on_c, 11, 31, 123
19, 476880, Note_on_c, 11, 31, 0
19, 476880, Note_on_c, 11, 31, 123
19, 477120, Note_on_c, 11, 31, 0
19, 477120, Note_on_c, 11, 36, 123
19, 477600, Note_on_c, 11, 36, 0
19, 478320, Note_on_c, 11, 31, 123
19, 478560, Note_on_c, 11, 31, 0
19, 478560, Note_on_c, 11, 31, 123
19, 478800, Note_on_c, 11, 31, 0
19, 478800, Note_on_c, 11, 31, 123
19, 479040, Note_on_c, 11, 31, 0
19, 479040, Note_on_c, 11, 36, 123
19, 479520, Note_on_c, 11, 36, 0
19, 480240, Note_on_c, 11, 31, 123
19, 480480, Note_on_c, 11, 31, 0
19, 480480, Note_on_c, 11, 31, 123
19, 480720, Note_on_c, 11, 31, 0
19, 480720, Note_on_c, 11, 31, 123
19, 480960, Note_on_c, 11, 31, 0
19, 480960, Note_on_c, 11, 36, 123
19, 482160, Note_on_c, 11, 36, 0
19, 482160, Note_on_c, 11, 36, 123
19, 482400, Note_on_c, 11, 36, 0
19, 482400, Note_on_c, 11, 36, 123
19, 482640, Note_on_c, 11, 36, 0
19, 482640, Note_on_c, 11, 36, 123
19, 482880, Note_on_c, 11, 36, 0
19, 482880, Note_on_c, 11, 32, 123
19, 484080, Note_on_c, 11, 32, 0
19, 484080, Note_on_c, 11, 32, 123
19, 484320, Note_on_c, 11, 32, 0
19, 484320, Note_on_c, 11, 32, 123
19, 484560, Note_on_c, 11, 32, 0
19, 484560, Note_on_c, 11, 32, 123
19, 484800, Note_on_c, 11, 32, 0
19, 484800, Note_on_c, 11, 40, 123
19, 486000, Note_on_c, 11, 40, 0
19, 486000, Note_on_c, 11, 40, 123
19, 486240, Note_on_c, 11, 40, 0
19, 486240, Note_on_c, 11, 40, 123
19, 486480, Note_on_c, 11, 40, 0
19, 486480, Note_on_c, 11, 40, 123
19, 486720, Note_on_c, 11, 40, 0
19, 486720, Note_on_c, 11, 41, 123
19, 487920, Note_on_c, 11, 41, 0
19, 487920, Note_on_c, 11, 41, 123
19, 488160, Note_on_c, 11, 41, 0
19, 488160, Note_on_c, 11, 41, 123
19, 488400, Note_on_c, 11, 41, 0
19, 488400, Note_on_c, 11, 41, 123
19, 488640, Note_on_c, 11, 41, 0
19, 488640, Note_on_c, 11, 29, 123
19, 488880, Note_on_c, 11, 29, 0
19, 488880, Note_on_c, 11, 41, 123
19, 489120, Note_on_c, 11, 41, 0
19, 489120, Note_on_c, 11, 41, 123
19, 489360, Note_on_c, 11, 41, 0
19, 489360, Note_on_c, 11, 41, 123
19, 489600, Note_on_c, 11, 41, 0
19, 489600, Note_on_c, 11, 41, 123
19, 489840, Note_on_c, 11, 41, 0
19, 489840, Note_on_c, 11, 41, 123
19, 490080, Note_on_c, 11, 41, 0
19, 490080, Note_on_c, 11, 41, 123
19, 490320, Note_on_c, 11, 41, 0
19, 490320, Note_on_c, 11, 41, 123
19, 490560, Note_on_c, 11, 41, 0
19, 490560, Note_on_c, 11, 41, 123
19, 490800, Note_on_c, 11, 41, 0
19, 490800, Note_on_c, 11, 41, 123
19, 491040, Note_on_c, 11, 41, 0
19, 491040, Note_on_c, 11, 41, 123
19, 491280, Note_on_c, 11, 41, 0
19, 491280, Note_on_c, 11, 41, 123
19, 491520, Note_on_c, 11, 41, 0
19, 491520, Note_on_c, 11, 41, 123
19, 491760, Note_on_c, 11, 41, 0
19, 491760, Note_on_c, 11, 41, 123
19, 492000, Note_on_c, 11, 41, 0
19, 492000, Note_on_c, 11, 41, 123
19, 492240, Note_on_c, 11, 41, 0
19, 492240, Note_on_c, 11, 41, 123
19, 492480, Note_on_c, 11, 41, 0
19, 492480, Note_on_c, 11, 41, 123
19, 492960, Note_on_c, 11, 41, 0
19, 496560, Note_on_c, 11, 30, 123
19, 496800, Note_on_c, 11, 30, 0
19, 496800, Note_on_c, 11, 30, 123
19, 497040, Note_on_c, 11, 30, 0
19, 497040, Note_on_c, 11, 30, 123
19, 497280, Note_on_c, 11, 30, 0
19, 497280, Note_on_c, 11, 30, 123
19, 497520, Note_on_c, 11, 30, 0
19, 497520, Note_on_c, 11, 42, 123
19, 497760, Note_on_c, 11, 42, 0
19, 497760, Note_on_c, 11, 42, 123
19, 498000, Note_on_c, 11, 42, 0
19, 498000, Note_on_c, 11, 42, 123
19, 498240, Note_on_c, 11, 42, 0
19, 498240, Note_on_c, 11, 42, 123
19, 498480, Note_on_c, 11, 42, 0
19, 498480, Note_on_c, 11, 42, 123
19, 498720, Note_on_c, 11, 42, 0
19, 498720, Note_on_c, 11, 42, 123
19, 498960, Note_on_c, 11, 42, 0
19, 498960, Note_on_c, 11, 42, 123
19, 499200, Note_on_c, 11, 42, 0
19, 499200, Note_on_c, 11, 42, 123
19, 499440, Note_on_c, 11, 42, 0
19, 499440, Note_on_c, 11, 42, 123
19, 499680, Note_on_c, 11, 42, 0
19, 499680, Note_on_c, 11, 42, 123
19, 499920, Note_on_c, 11, 42, 0
19, 499920, Note_on_c, 11, 42, 123
19, 500160, Note_on_c, 11, 42, 0
19, 500160, Note_on_c, 11, 42, 123
19, 500400, Note_on_c, 11, 42, 0
19, 500400, Note_on_c, 11, 42, 123
19, 500640, Note_on_c, 11, 42, 0
19, 500640, Note_on_c, 11, 42, 123
19, 500880, Note_on_c, 11, 42, 0
19, 500880, Note_on_c, 11, 42, 123
19, 501120, Note_on_c, 11, 42, 0
19, 501120, Note_on_c, 11, 42, 123
19, 501600, Note_on_c, 11, 42, 0
19, 504960, Note_on_c, 11, 31, 123
19, 505440, Note_on_c, 11, 31, 0
19, 508800, Note_on_c, 11, 31, 123
19, 509280, Note_on_c, 11, 31, 0
19, 516480, Note_on_c, 11, 44, 123
19, 516960, Note_on_c, 11, 44, 0
19, 516960, Note_on_c, 11, 46, 123
19, 517440, Note_on_c, 11, 46, 0
19, 517440, Note_on_c, 11, 43, 123
19, 517920, Note_on_c, 11, 43, 0
19, 517920, Note_on_c, 11, 44, 123
19, 518400, Note_on_c, 11, 44, 0
19, 518400, Note_on_c, 11, 41, 123
19, 518880, Note_on_c, 11, 41, 0
19, 518880, Note_on_c, 11, 43, 123
19, 519360, Note_on_c, 11, 43, 0
19, 519360, Note_on_c, 11, 39, 123
19, 519840, Note_on_c, 11, 39, 0
19, 519840, Note_on_c, 11, 41, 123
19, 520320, Note_on_c, 11, 41, 0
19, 520320, Note_on_c, 11, 38, 123
19, 520800, Note_on_c, 11, 38, 0
19, 520800, Note_on_c, 11, 36, 123
19, 521280, Note_on_c, 11, 36, 0
19, 521280, Note_on_c, 11, 35, 123
19, 521760, Note_on_c, 11, 35, 0
19, 521760, Note_on_c, 11, 36, 123
19, 522240, Note_on_c, 11, 36, 0
19, 522240, Note_on_c, 11, 38, 123
19, 522720, Note_on_c, 11, 38, 0
19, 522720, Note_on_c, 11, 36, 123
19, 523200, Note_on_c, 11, 36, 0
19, 523200, Note_on_c, 11, 38, 123
19, 523680, Note_on_c, 11, 38, 0
19, 523680, Note_on_c, 11, 40, 123
19, 524160, Note_on_c, 11, 40, 0
19, 524160, Note_on_c, 11, 41, 123
19, 524640, Note_on_c, 11, 41, 0
19, 524640, Note_on_c, 11, 40, 123
19, 525120, Note_on_c, 11, 40, 0
19, 525120, Note_on_c, 11, 41, 123
19, 525600, Note_on_c, 11, 41, 0
19, 525600, Note_on_c, 11, 43, 123
19, 526080, Note_on_c, 11, 43, 0
19, 526080, Note_on_c, 11, 44, 123
19, 526560, Note_on_c, 11, 44, 0
19, 526560, Note_on_c, 11, 43, 123
19, 527040, Note_on_c, 11, 43, 0
19, 527040, Note_on_c, 11, 45, 123
19, 527520, Note_on_c, 11, 45, 0
19, 527520, Note_on_c, 11, 47, 123
19, 528000, Note_on_c, 11, 47, 0
19, 528000, Note_on_c, 11, 48, 123
19, 529920, Note_on_c, 11, 48, 0
19, 529920, Note_on_c, 11, 44, 123
19, 531840, Note_on_c, 11, 44, 0
19, 531840, Note_on_c, 11, 39, 123
19, 533760, Note_on_c, 11, 39, 0
19, 533760, Note_on_c, 11, 41, 123
19, 534720, Note_on_c, 11, 41, 0
19, 534720, Note_on_c, 11, 39, 123
19, 535680, Note_on_c, 11, 39, 0
19, 535680, Note_on_c, 11, 38, 123
19, 536640, Note_on_c, 11, 38, 0
19, 536640, Note_on_c, 11, 41, 123
19, 537600, Note_on_c, 11, 41, 0
19, 537600, Note_on_c, 11, 39, 123
19, 538080, Note_on_c, 11, 39, 0
19, 538560, Note_on_c, 11, 36, 123
19, 539040, Note_on_c, 11, 36, 0
19, 539520, Note_on_c, 11, 41, 123
19, 540000, Note_on_c, 11, 41, 0
19, 540480, Note_on_c, 11, 38, 123
19, 540960, Note_on_c, 11, 38, 0
19, 541440, Note_on_c, 11, 43, 123
19, 541920, Note_on_c, 11, 43, 0
19, 542400, Note_on_c, 11, 31, 123
19, 542880, Note_on_c, 11, 31, 0
19, 543360, Note_on_c, 11, 36, 123
19, 543840, Note_on_c, 11, 36, 0
19, 546240, Note_on_c, 11, 39, 123
19, 546720, Note_on_c, 11, 39, 0
19, 546720, Note_on_c, 11, 41, 123
19, 547200, Note_on_c, 11, 41, 0
19, 547200, Note_on_c, 11, 43, 123
19, 547680, Note_on_c, 11, 43, 0
19, 547680, Note_on_c, 11, 39, 123
19, 548160, Note_on_c, 11, 39, 0
19, 550080, Note_on_c, 11, 31, 123
19, 550560, Note_on_c, 11, 31, 0
19, 550560, Note_on_c, 11, 33, 123
19, 551040, Note_on_c, 11, 33, 0
19, 551040, Note_on_c, 11, 35, 123
19, 551520, Note_on_c, 11, 35, 0
19, 551520, Note_on_c, 11, 31, 123
19, 552000, Note_on_c, 11, 31, 0
19, 553920, Note_on_c, 11, 31, 123
19, 554400, Note_on_c, 11, 31, 0
19, 554400, Note_on_c, 11, 33, 123
19, 554880, Note_on_c, 11, 33, 0
19, 554880, Note_on_c, 11, 35, 123
19, 555360, Note_on_c, 11, 35, 0
19, 555360, Note_on_c, 11, 31, 123
19, 555840, Note_on_c, 11, 31, 0
19, 559680, Note_on_c, 11, 41, 123
19, 560160, Note_on_c, 11, 41, 0
19, 560160, Note_on_c, 11, 36, 123
19, 560640, Note_on_c, 11, 36, 0
19, 561600, Note_on_c, 11, 41, 123
19, 562080, Note_on_c, 11, 41, 0
19, 562080, Note_on_c, 11, 36, 123
19, 562560, Note_on_c, 11, 36, 0
19, 562560, Note_on_c, 11, 43, 123
19, 563040, Note_on_c, 11, 43, 0
19, 563520, Note_on_c, 11, 31, 123
19, 564000, Note_on_c, 11, 31, 0
19, 564480, Note_on_c, 11, 48, 123
19, 564960, Note_on_c, 11, 48, 0
19, 564960, Note_on_c, 11, 43, 123
19, 565440, Note_on_c, 11, 43, 0
19, 565440, Note_on_c, 11, 44, 123
19, 565920, Note_on_c, 11, 44, 0
19, 565920, Note_on_c, 11, 39, 123
19, 566400, Note_on_c, 11, 39, 0
19, 566400, Note_on_c, 11, 41, 123
19, 566880, Note_on_c, 11, 41, 0
19, 566880, Note_on_c, 11, 36, 123
19, 567360, Note_on_c, 11, 36, 0
19, 568320, Note_on_c, 11, 41, 123
19, 568800, Note_on_c, 11, 41, 0
19, 568800, Note_on_c, 11, 36, 123
19, 569280, Note_on_c, 11, 36, 0
19, 569280, Note_on_c, 11, 41, 123
19, 569760, Note_on_c, 11, 41, 0
19, 569760, Note_on_c, 11, 36, 123
19, 570240, Note_on_c, 11, 36, 0
19, 570240, Note_on_c, 11, 43, 123
19, 570720, Note_on_c, 11, 43, 0
19, 571200, Note_on_c, 11, 31, 123
19, 571680, Note_on_c, 11, 31, 0
19, 572160, Note_on_c, 11, 36, 123
19, 572640, Note_on_c, 11, 36, 0
19, 577200, Note_on_c, 11, 31, 123
19, 577440, Note_on_c, 11, 31, 0
19, 577440, Note_on_c, 11, 31, 123
19, 577680, Note_on_c, 11, 31, 0
19, 577680, Note_on_c, 11, 31, 123
19, 577920, Note_on_c, 11, 31, 0
19, 577920, Note_on_c, 11, 36, 123
19, 578160, Note_on_c, 11, 36, 0
19, 578160, Note_on_c, 11, 31, 123
19, 578400, Note_on_c, 11, 31, 0
19, 578400, Note_on_c, 11, 31, 123
19, 578640, Note_on_c, 11, 31, 0
19, 578640, Note_on_c, 11, 31, 123
19, 578880, Note_on_c, 11, 31, 0
19, 578880, Note_on_c, 11, 31, 123
19, 579120, Note_on_c, 11, 31, 0
19, 579120, Note_on_c, 11, 31, 123
19, 579360, Note_on_c, 11, 31, 0
19, 579360, Note_on_c, 11, 31, 123
19, 579600, Note_on_c, 11, 31, 0
19, 579600, Note_on_c, 11, 31, 123
19, 579840, Note_on_c, 11, 31, 0
19, 579840, Note_on_c, 11, 31, 123
19, 580080, Note_on_c, 11, 31, 0
19, 580080, Note_on_c, 11, 31, 123
19, 580320, Note_on_c, 11, 31, 0
19, 580320, Note_on_c, 11, 31, 123
19, 580560, Note_on_c, 11, 31, 0
19, 580560, Note_on_c, 11, 31, 123
19, 580800, Note_on_c, 11, 31, 0
19, 580800, Note_on_c, 11, 31, 123
19, 581040, Note_on_c, 11, 31, 0
19, 581040, Note_on_c, 11, 31, 123
19, 581280, Note_on_c, 11, 31, 0
19, 581280, Note_on_c, 11, 31, 123
19, 581520, Note_on_c, 11, 31, 0
19, 581520, Note_on_c, 11, 31, 123
19, 581760, Note_on_c, 11, 31, 0
19, 581760, Note_on_c, 11, 27, 123
19, 582720, Note_on_c, 11, 27, 0
19, 582960, Note_on_c, 11, 29, 123
19, 583200, Note_on_c, 11, 29, 0
19, 583200, Note_on_c, 11, 29, 123
19, 583440, Note_on_c, 11, 29, 0
19, 583440, Note_on_c, 11, 29, 123
19, 583680, Note_on_c, 11, 29, 0
19, 583680, Note_on_c, 11, 26, 123
19, 585600, Note_on_c, 11, 26, 0
19, 593520, Note_on_c, 11, 31, 123
19, 593760, Note_on_c, 11, 31, 0
19, 593760, Note_on_c, 11, 31, 123
19, 594000, Note_on_c, 11, 31, 0
19, 594000, Note_on_c, 11, 31, 123
19, 594240, Note_on_c, 11, 31, 0
19, 594240, Note_on_c, 11, 36, 123
19, 594720, Note_on_c, 11, 36, 0
19, 595440, Note_on_c, 11, 31, 123
19, 595680, Note_on_c, 11, 31, 0
19, 595680, Note_on_c, 11, 31, 123
19, 595920, Note_on_c, 11, 31, 0
19, 595920, Note_on_c, 11, 31, 123
19, 596160, Note_on_c, 11, 31, 0
19, 596160, Note_on_c, 11, 36, 123
19, 596640, Note_on_c, 11, 36, 0
19, 597360, Note_on_c, 11, 31, 123
19, 597600, Note_on_c, 11, 31, 0
19, 597600, Note_on_c, 11, 31, 123
19, 597840, Note_on_c, 11, 31, 0
19, 597840, Note_on_c, 11, 31, 123
19, 598080, Note_on_c, 11, 31, 0
19, 598080, Note_on_c, 11, 36, 123
19, 598560, Note_on_c, 11, 36, 0
19, 598560, Note_on_c, 11, 31, 123
19, 599040, Note_on_c, 11, 31, 0
19, 599040, Note_on_c, 11, 36, 123
19, 599520, Note_on_c, 11, 36, 0
19, 599520, Note_on_c, 11, 31, 123
19, 600000, Note_on_c, 11, 31, 0
19, 600000, Note_on_c, 11, 36, 123
19, 600480, Note_on_c, 11, 36, 0
19, 600480, Note_on_c, 11, 43, 123
19, 600960, Note_on_c, 11, 43, 0
19, 600960, Note_on_c, 11, 48, 123
19, 601440, Note_on_c, 11, 48, 0
19, 601440, Note_on_c, 11, 43, 123
19, 601920, Note_on_c, 11, 43, 0
19, 601920, Note_on_c, 11, 48, 123
19, 602400, Note_on_c, 11, 48, 0
19, 602880, Note_on_c, 11, 31, 123
19, 603360, Note_on_c, 11, 31, 0
19, 603840, Note_on_c, 11, 36, 123
19, 604320, Note_on_c, 11, 36, 0
19, 604320, End_track
0, 0, End_of_file
